pid,taskRunCount,taskID,taskName,i,channel,pitch,velocity,microseconds
1,17,Jits_Phase_5,0,5,56,103,8279484
311,17,Jits_Phase_5,1,5,63,98,8282504
311,17,Jits_Phase_5,2,5,80,127,8285628
311,17,Jits_Phase_5,0,5,56,103,8779144
311,17,Jits_Phase_5,1,5,63,98,8782164
311,17,Jits_Phase_5,2,5,80,127,8785436
311,17,Jits_Phase_5,0,1,48,32,9266968
311,17,Jits_Phase_5,1,5,56,103,9278828
311,17,Jits_Phase_5,2,5,80,127,9289172
311,17,Jits_Phase_5,3,5,63,98,9308732
311,17,Jits_Phase_5,0,5,63,98,9729652
311,17,Jits_Phase_5,1,5,80,127,9759552
311,17,Jits_Phase_5,2,5,56,103,9769524
311,17,Jits_Phase_5,3,1,48,51,9772492
311,17,Jits_Phase_5,0,1,48,48,10217004
311,17,Jits_Phase_5,1,5,80,127,10298684
311,17,Jits_Phase_5,2,5,56,103,10308956
311,17,Jits_Phase_5,3,5,63,98,10338616
311,17,Jits_Phase_5,0,1,48,46,10780812
311,17,Jits_Phase_5,1,5,63,98,10789376
311,17,Jits_Phase_5,2,5,56,103,10818828
311,17,Jits_Phase_5,3,5,80,127,10829244
311,17,Jits_Phase_5,0,5,56,103,11238640
311,17,Jits_Phase_5,1,1,48,47,11281764
311,17,Jits_Phase_5,2,5,63,98,11288912
311,17,Jits_Phase_5,3,5,80,127,11309516
311,17,Jits_Phase_5,0,5,80,127,11738628
311,17,Jits_Phase_5,1,1,48,47,11739892
311,17,Jits_Phase_5,2,5,63,98,11788600
311,17,Jits_Phase_5,3,5,56,103,11828612
311,17,Jits_Phase_5,0,5,56,103,12239368
311,17,Jits_Phase_5,1,1,48,48,12261364
311,17,Jits_Phase_5,2,5,63,98,12269184
311,17,Jits_Phase_5,3,5,80,127,12338488
311,17,Jits_Phase_5,0,1,48,49,12730036
311,17,Jits_Phase_5,1,5,56,103,12738828
311,17,Jits_Phase_5,2,5,80,127,12799516
311,17,Jits_Phase_5,3,5,63,98,12829248
311,17,Jits_Phase_5,0,1,48,49,13235400
311,17,Jits_Phase_5,1,5,56,103,13248772
311,17,Jits_Phase_5,2,5,63,98,13259264
311,17,Jits_Phase_5,3,5,80,127,13299128
311,17,Jits_Phase_5,0,1,48,51,13719652
311,17,Jits_Phase_5,1,5,63,98,13739304
311,17,Jits_Phase_5,2,5,80,127,13819380
311,17,Jits_Phase_5,3,5,56,103,13828456
311,17,Jits_Phase_5,0,1,48,51,14210240
311,17,Jits_Phase_5,1,5,63,98,14289252
311,17,Jits_Phase_5,2,5,56,103,14329320
311,17,Jits_Phase_5,3,5,80,127,14332388
311,17,Jits_Phase_5,0,1,48,51,14745660
311,17,Jits_Phase_5,1,5,56,103,14749216
311,17,Jits_Phase_5,2,5,63,98,14759412
311,17,Jits_Phase_5,3,5,80,127,14799348
311,17,Jits_Phase_5,0,1,48,52,15234444
311,17,Jits_Phase_5,1,5,56,103,15238620
311,17,Jits_Phase_5,2,5,63,98,15241536
311,17,Jits_Phase_5,3,5,80,127,15259080
311,17,Jits_Phase_5,0,1,48,47,15709616
311,17,Jits_Phase_5,1,5,80,127,15748376
311,17,Jits_Phase_5,2,5,56,103,15758644
311,17,Jits_Phase_5,3,5,63,98,15829500
311,17,Jits_Phase_5,0,1,48,48,16221848
311,17,Jits_Phase_5,1,5,63,98,16239180
311,17,Jits_Phase_5,2,5,56,103,16258372
311,17,Jits_Phase_5,3,5,80,127,16339292
311,17,Jits_Phase_5,0,1,48,49,16706524
311,17,Jits_Phase_5,1,5,56,103,16749044
311,17,Jits_Phase_5,2,5,80,127,16789008
311,17,Jits_Phase_5,3,5,63,98,16799276
311,17,Jits_Phase_5,0,1,48,46,17218956
311,17,Jits_Phase_5,1,5,80,127,17239432
311,17,Jits_Phase_5,2,5,63,98,17269256
311,17,Jits_Phase_5,3,5,56,103,17309216
311,17,Jits_Phase_5,0,1,48,51,17726024
311,17,Jits_Phase_5,1,5,56,103,17758504
311,17,Jits_Phase_5,2,5,63,98,17789152
311,17,Jits_Phase_5,3,5,80,127,17838388
311,17,Jits_Phase_5,0,1,48,52,18209308
311,17,Jits_Phase_5,1,5,80,127,18259376
311,17,Jits_Phase_5,2,5,56,103,18299240
311,17,Jits_Phase_5,3,5,63,98,18309124
311,17,Jits_Phase_5,0,5,80,127,18738536
311,17,Jits_Phase_5,1,1,48,49,18745616
311,17,Jits_Phase_5,2,5,63,98,18778468
311,17,Jits_Phase_5,3,5,56,103,18840356
311,17,Jits_Phase_5,0,5,56,103,19239200
311,17,Jits_Phase_5,1,5,80,127,19248572
311,17,Jits_Phase_5,2,1,48,47,19256100
311,17,Jits_Phase_5,3,5,63,98,19329328
311,17,Jits_Phase_5,0,1,48,49,19721024
311,17,Jits_Phase_5,1,5,80,127,19739108
311,17,Jits_Phase_5,2,5,63,98,19799348
311,17,Jits_Phase_5,3,5,56,103,19829156
311,17,Jits_Phase_5,0,1,48,52,20220108
311,17,Jits_Phase_5,1,5,56,103,20238788
311,17,Jits_Phase_5,2,5,80,127,20299252
311,17,Jits_Phase_5,3,5,63,98,20339172
311,17,Jits_Phase_5,0,1,48,51,20717316
311,17,Jits_Phase_5,1,5,56,103,20788512
311,17,Jits_Phase_5,2,5,63,98,20799004
311,17,Jits_Phase_5,3,5,80,127,20802220
311,17,Jits_Phase_5,0,5,80,127,21239264
311,17,Jits_Phase_5,1,1,48,51,21240228
311,17,Jits_Phase_5,2,5,63,98,21329168
311,17,Jits_Phase_5,3,5,56,103,21338524
311,17,Jits_Phase_5,0,5,56,103,21738788
311,17,Jits_Phase_5,1,5,63,98,21741964
311,17,Jits_Phase_5,2,5,80,127,21745088
311,17,Jits_Phase_5,3,1,48,50,21756744
311,17,Jits_Phase_5,0,1,48,48,22216624
311,17,Jits_Phase_5,1,5,80,127,22259072
311,17,Jits_Phase_5,2,5,63,98,22309256
311,17,Jits_Phase_5,3,5,56,103,22338932
311,17,Jits_Phase_5,0,1,48,50,22735264
311,17,Jits_Phase_5,1,5,56,103,22739348
311,17,Jits_Phase_5,2,5,80,127,22748496
311,17,Jits_Phase_5,3,5,63,98,22819292
311,17,Jits_Phase_5,0,1,48,53,23230080
311,17,Jits_Phase_5,1,5,56,103,23249212
311,17,Jits_Phase_5,2,5,63,98,23268996
311,17,Jits_Phase_5,3,5,80,127,23330192
311,17,Jits_Phase_5,0,1,48,52,23715736
311,17,Jits_Phase_5,1,5,80,127,23728440
311,17,Jits_Phase_5,2,5,63,98,23799092
311,17,Jits_Phase_5,3,5,56,103,23818860
311,17,Jits_Phase_5,0,1,48,51,24230936
311,17,Jits_Phase_5,1,5,80,127,24248944
311,17,Jits_Phase_5,2,5,56,103,24258916
311,17,Jits_Phase_5,3,5,63,98,24269112
311,17,Jits_Phase_5,0,1,48,53,24703608
311,17,Jits_Phase_5,1,5,80,127,24739252
311,17,Jits_Phase_5,2,5,56,103,24758816
311,17,Jits_Phase_5,3,5,63,98,24829224
311,17,Jits_Phase_5,0,1,48,51,25198576
311,17,Jits_Phase_5,1,5,56,103,25249048
311,17,Jits_Phase_5,2,5,80,127,25278944
311,17,Jits_Phase_5,3,5,63,98,25299240
311,17,Jits_Phase_5,0,1,48,50,25701696
311,17,Jits_Phase_5,1,5,63,98,25738836
311,17,Jits_Phase_5,2,5,56,103,25798912
311,17,Jits_Phase_5,3,5,80,127,25828660
311,17,Jits_Phase_5,0,1,48,51,26227604
311,17,Jits_Phase_5,1,5,63,98,26239312
311,17,Jits_Phase_5,2,5,80,127,26242896
311,17,Jits_Phase_5,3,5,56,103,26328624
311,17,Jits_Phase_5,0,1,48,53,26713768
311,17,Jits_Phase_5,1,5,56,103,26758704
311,17,Jits_Phase_5,2,5,63,98,26789128
311,17,Jits_Phase_5,3,5,80,127,26829272
311,17,Jits_Phase_5,0,1,48,51,27187908
311,17,Jits_Phase_5,1,5,63,98,27259176
311,17,Jits_Phase_5,2,5,56,103,27299052
311,17,Jits_Phase_5,3,5,80,127,27318760
311,17,Jits_Phase_5,0,1,48,52,27694316
311,17,Jits_Phase_5,1,5,63,98,27769196
311,17,Jits_Phase_5,2,5,56,103,27809068
311,17,Jits_Phase_5,3,5,80,127,27819712
311,17,Jits_Phase_5,0,1,48,53,28213848
311,17,Jits_Phase_5,1,5,80,127,28248868
311,17,Jits_Phase_5,2,5,63,98,28319160
311,17,Jits_Phase_5,3,5,56,103,28338720
311,17,Jits_Phase_5,0,5,56,103,28738816
311,17,Jits_Phase_5,1,5,80,127,28759572
311,17,Jits_Phase_5,2,1,48,53,28760984
311,17,Jits_Phase_5,3,5,63,98,28799280
311,17,Jits_Phase_5,0,1,48,53,29239596
311,17,Jits_Phase_5,1,5,63,98,29248836
311,17,Jits_Phase_5,2,5,80,127,29269368
311,17,Jits_Phase_5,3,5,56,103,29309156
311,17,Jits_Phase_5,0,1,48,50,29705020
311,17,Jits_Phase_5,1,5,63,98,29748588
311,17,Jits_Phase_5,2,5,56,103,29769048
311,17,Jits_Phase_5,3,5,80,127,29779168
311,17,Jits_Phase_5,0,1,48,54,30232648
311,17,Jits_Phase_5,1,5,80,127,30249604
311,17,Jits_Phase_5,2,5,56,103,30268720
311,17,Jits_Phase_5,3,5,63,98,30298544
311,17,Jits_Phase_5,0,1,48,53,30757576
311,17,Jits_Phase_5,1,5,56,103,30818656
311,17,Jits_Phase_5,2,5,80,127,30821796
311,17,Jits_Phase_5,3,5,63,98,30839116
311,17,Jits_Phase_5,0,5,63,98,31238624
311,17,Jits_Phase_5,1,5,56,103,31269492
311,17,Jits_Phase_5,2,1,48,51,31273360
311,17,Jits_Phase_5,3,5,80,127,31328680
311,17,Jits_Phase_5,0,1,48,54,31749728
311,17,Jits_Phase_5,1,5,63,98,31819208
311,17,Jits_Phase_5,2,5,56,103,31829552
311,17,Jits_Phase_5,3,5,80,127,31838552
311,17,Jits_Phase_5,0,1,48,55,32271888
311,17,Jits_Phase_5,1,5,56,103,32278884
311,17,Jits_Phase_5,2,5,80,127,32308784
311,17,Jits_Phase_5,3,5,63,98,32318828
311,17,Jits_Phase_5,0,1,48,58,32775752
311,17,Jits_Phase_5,1,5,63,98,32818572
311,17,Jits_Phase_5,2,5,56,103,32828764
311,17,Jits_Phase_5,3,5,80,127,32849520
311,17,Jits_Phase_5,0,5,56,103,33248580
311,17,Jits_Phase_5,1,1,48,58,33283008
311,17,Jits_Phase_5,2,5,63,98,33309036
311,17,Jits_Phase_5,3,5,80,127,33312548
311,17,Jits_Phase_5,0,1,48,57,33742824
311,17,Jits_Phase_5,1,5,80,127,33768932
311,17,Jits_Phase_5,2,5,56,103,33779052
311,17,Jits_Phase_5,3,5,63,98,33848716
311,17,Jits_Phase_5,0,5,80,127,34259400
311,17,Jits_Phase_5,1,1,48,54,34286952
311,17,Jits_Phase_5,2,5,56,103,34328924
311,17,Jits_Phase_5,3,5,63,98,34339416
311,17,Jits_Phase_5,0,1,48,56,34748724
311,17,Jits_Phase_5,1,5,63,98,34799092
311,17,Jits_Phase_5,2,5,56,103,34809364
311,17,Jits_Phase_5,3,5,80,127,34828552
311,17,Jits_Phase_5,0,5,80,127,35248360
311,17,Jits_Phase_5,1,1,48,51,35263236
311,17,Jits_Phase_5,2,5,63,98,35308816
311,17,Jits_Phase_5,3,5,56,103,35348756
311,17,Jits_Phase_5,0,1,48,59,35767052
311,17,Jits_Phase_5,1,5,56,103,35789248
311,17,Jits_Phase_5,2,1,48,42,35797540
311,17,Jits_Phase_5,3,5,63,98,35799424
311,17,Jits_Phase_5,4,5,80,127,35839284
311,17,Jits_Phase_5,0,5,56,103,36248936
311,17,Jits_Phase_5,1,1,48,58,36269292
311,17,Jits_Phase_5,2,5,80,127,36278604
311,17,Jits_Phase_5,3,5,63,98,36328728
311,17,Jits_Phase_5,0,5,56,103,36788708
311,17,Jits_Phase_5,1,1,48,49,36800896
311,17,Jits_Phase_5,2,5,63,98,36828636
311,17,Jits_Phase_5,3,5,80,127,36831776
311,17,Jits_Phase_5,0,1,48,52,37268432
311,17,Jits_Phase_5,1,5,56,103,37289284
311,17,Jits_Phase_5,2,5,63,98,37298508
311,17,Jits_Phase_5,3,5,80,127,37319264
311,17,Jits_Phase_5,0,5,56,103,37759276
311,17,Jits_Phase_5,1,5,80,127,37762416
311,17,Jits_Phase_5,2,1,48,54,37769140
311,17,Jits_Phase_5,3,5,63,98,37799280
311,17,Jits_Phase_5,0,1,48,55,38265256
311,17,Jits_Phase_5,1,5,63,98,38299180
311,17,Jits_Phase_5,2,5,56,103,38328780
311,17,Jits_Phase_5,3,5,80,127,38349164
311,17,Jits_Phase_5,0,1,48,48,38756564
311,17,Jits_Phase_5,1,5,80,127,38769168
311,17,Jits_Phase_5,2,5,56,103,38779212
311,17,Jits_Phase_5,3,5,63,98,38788760
311,17,Jits_Phase_5,0,1,48,54,39251652
311,17,Jits_Phase_5,1,5,56,103,39268616
311,17,Jits_Phase_5,2,5,80,127,39308656
311,17,Jits_Phase_5,3,5,63,98,39339376
311,17,Jits_Phase_5,0,5,63,98,39778640
311,17,Jits_Phase_5,1,5,80,127,39789208
311,17,Jits_Phase_5,2,1,48,59,39792328
311,17,Jits_Phase_5,3,5,56,103,39799324
311,17,Jits_Phase_5,4,1,48,42,39823124
311,17,Jits_Phase_5,0,5,56,103,40269176
311,17,Jits_Phase_5,1,1,48,51,40290948
311,17,Jits_Phase_5,2,5,63,98,40338800
311,17,Jits_Phase_5,3,5,80,127,40349216
311,17,Jits_Phase_5,0,5,80,127,40779124
311,17,Jits_Phase_5,1,1,48,48,40784484
311,17,Jits_Phase_5,2,5,56,103,40789312
311,17,Jits_Phase_5,3,5,63,98,40838640
311,17,Jits_Phase_5,0,1,48,47,41262444
311,17,Jits_Phase_5,1,5,80,127,41289220
311,17,Jits_Phase_5,2,5,56,103,41348588
311,17,Jits_Phase_5,3,5,63,98,41379216
311,17,Jits_Phase_5,0,1,48,46,41756816
311,17,Jits_Phase_5,1,5,56,103,41788972
311,17,Jits_Phase_5,2,5,80,127,41791960
311,17,Jits_Phase_5,3,5,63,98,41828832
311,17,Jits_Phase_5,0,1,48,49,42299176
311,17,Jits_Phase_5,1,5,56,103,42319352
311,17,Jits_Phase_5,2,5,63,98,42349028
311,17,Jits_Phase_5,3,5,80,127,42359300
311,17,Jits_Phase_5,0,1,48,48,42810916
311,17,Jits_Phase_5,1,5,63,98,42829296
311,17,Jits_Phase_5,2,5,80,127,42839568
311,17,Jits_Phase_5,3,5,56,103,42848568
311,17,Jits_Phase_5,0,5,80,127,43278636
311,17,Jits_Phase_5,1,1,48,47,43298764
311,17,Jits_Phase_5,2,5,56,103,43328904
311,17,Jits_Phase_5,3,5,63,98,43332044
311,17,Jits_Phase_5,0,1,48,44,43790944
311,17,Jits_Phase_5,1,5,56,103,43809100
311,17,Jits_Phase_5,2,5,80,127,43828512
311,17,Jits_Phase_5,3,5,63,98,43839156
311,17,Jits_Phase_5,0,5,63,98,44289380
311,17,Jits_Phase_5,1,1,48,53,44318980
311,17,Jits_Phase_5,2,5,56,103,44320616
311,17,Jits_Phase_5,3,5,80,127,44338460
311,17,Jits_Phase_5,0,5,56,103,44799316
311,17,Jits_Phase_5,1,1,48,49,44801908
311,17,Jits_Phase_5,2,5,80,127,44808536
311,17,Jits_Phase_5,3,5,63,98,44879332
311,17,Jits_Phase_5,0,5,63,98,45288900
311,17,Jits_Phase_5,1,1,48,49,45316972
311,17,Jits_Phase_5,2,5,80,127,45328680
311,17,Jits_Phase_5,3,5,56,103,45368840
311,17,Jits_Phase_5,0,5,56,103,45798988
311,17,Jits_Phase_5,1,1,48,49,45800480
311,17,Jits_Phase_5,2,5,63,98,45808956
311,17,Jits_Phase_5,3,5,80,127,45828516
311,17,Jits_Phase_5,0,1,48,53,46286872
311,17,Jits_Phase_5,1,5,63,98,46338528
311,17,Jits_Phase_5,2,5,80,127,46358912
311,17,Jits_Phase_5,3,5,56,103,46380476
311,17,Jits_Phase_5,0,5,56,103,46778880
311,17,Jits_Phase_5,1,1,48,53,46803792
311,17,Jits_Phase_5,2,5,80,127,46858740
311,17,Jits_Phase_5,3,5,63,98,46868936
311,17,Jits_Phase_5,0,1,48,56,47313372
311,17,Jits_Phase_5,1,5,80,127,47319396
311,17,Jits_Phase_5,2,5,63,98,47328844
311,17,Jits_Phase_5,3,5,56,103,47359564
311,17,Jits_Phase_5,0,5,63,98,47779152
311,17,Jits_Phase_5,1,5,80,127,47819088
311,17,Jits_Phase_5,2,1,48,50,47847160
311,17,Jits_Phase_5,3,5,56,103,47878720
311,17,Jits_Phase_5,0,5,63,98,48289168
311,17,Jits_Phase_5,1,1,48,48,48298288
311,17,Jits_Phase_5,2,5,56,103,48339360
311,17,Jits_Phase_5,3,5,80,127,48368960
311,17,Jits_Phase_5,0,1,48,51,48776984
311,17,Jits_Phase_5,1,5,80,127,48788840
311,17,Jits_Phase_5,2,5,63,98,48799260
311,17,Jits_Phase_5,3,5,56,103,48868860
311,17,Jits_Phase_5,0,1,48,51,49277832
311,17,Jits_Phase_5,1,5,80,127,49348904
311,17,Jits_Phase_5,2,5,56,103,49359324
311,17,Jits_Phase_5,3,5,63,98,49362240
311,17,Jits_Phase_5,0,5,56,103,49789300
311,17,Jits_Phase_5,1,1,48,50,49794068
311,17,Jits_Phase_5,2,5,80,127,49808732
311,17,Jits_Phase_5,3,5,63,98,49818852
311,17,Jits_Phase_5,0,5,63,98,50299256
311,17,Jits_Phase_5,1,1,48,47,50301268
311,17,Jits_Phase_5,2,5,56,103,50339136
311,17,Jits_Phase_5,3,5,80,127,50358696
311,17,Jits_Phase_5,0,5,63,98,50799080
311,17,Jits_Phase_5,1,1,48,40,50800196
311,17,Jits_Phase_5,2,5,56,103,50859716
311,17,Jits_Phase_5,3,5,80,127,50862628
311,17,Jits_Phase_5,0,5,56,103,51258748
311,17,Jits_Phase_5,1,5,80,127,51279132
311,17,Jits_Phase_5,2,5,63,98,51319292
311,17,Jits_Phase_5,3,1,48,40,51334120
311,17,Jits_Phase_5,0,1,48,37,51781476
311,17,Jits_Phase_5,1,5,56,103,51789148
311,17,Jits_Phase_5,2,5,63,98,51808636
311,17,Jits_Phase_5,3,5,80,127,51818828
311,17,Jits_Phase_5,0,5,80,127,52259312
311,17,Jits_Phase_5,1,1,48,35,52262876
311,17,Jits_Phase_5,2,5,56,103,52288760
311,17,Jits_Phase_5,3,5,63,98,52328696
311,17,Jits_Phase_5,0,1,48,40,52750952
311,17,Jits_Phase_5,1,5,80,127,52769260
311,17,Jits_Phase_5,2,5,56,103,52788524
311,17,Jits_Phase_5,3,5,63,98,52848896
311,17,Jits_Phase_5,0,1,48,37,53265008
311,17,Jits_Phase_5,1,5,56,103,53278980
311,17,Jits_Phase_5,2,5,80,127,53298688
311,17,Jits_Phase_5,3,5,63,98,53358924
311,17,Jits_Phase_5,0,1,48,41,53753524
311,17,Jits_Phase_5,1,5,80,127,53759620
311,17,Jits_Phase_5,2,5,56,103,53768472
311,17,Jits_Phase_5,3,5,63,98,53808408
311,17,Jits_Phase_5,0,1,48,44,54249536
311,17,Jits_Phase_5,1,5,63,98,54259000
311,17,Jits_Phase_5,2,5,56,103,54299012
311,17,Jits_Phase_5,3,5,80,127,54301928
311,17,Jits_Phase_5,0,1,48,39,54731516
311,17,Jits_Phase_5,1,5,63,98,54779120
311,17,Jits_Phase_5,2,5,80,127,54819056
311,17,Jits_Phase_5,3,5,56,103,54848864
311,17,Jits_Phase_5,0,1,48,44,55229776
311,17,Jits_Phase_5,1,5,56,103,55268832
311,17,Jits_Phase_5,2,5,63,98,55278952
311,17,Jits_Phase_5,3,5,80,127,55308776
311,17,Jits_Phase_5,0,1,48,43,55758092
311,17,Jits_Phase_5,1,5,80,127,55759964
311,17,Jits_Phase_5,2,5,63,98,55828824
311,17,Jits_Phase_5,3,5,56,103,55838944
311,17,Jits_Phase_5,0,1,48,46,56252344
311,17,Jits_Phase_5,1,5,63,98,56258820
311,17,Jits_Phase_5,2,5,56,103,56328424
311,17,Jits_Phase_5,3,5,80,127,56338768
311,17,Jits_Phase_5,0,5,63,98,56739324
311,17,Jits_Phase_5,1,1,48,47,56742216
311,17,Jits_Phase_5,2,5,56,103,56758580
311,17,Jits_Phase_5,3,5,80,127,56798588
311,17,Jits_Phase_5,0,5,56,103,57218304
311,17,Jits_Phase_5,1,5,63,98,57228524
311,17,Jits_Phase_5,2,1,48,46,57248876
311,17,Jits_Phase_5,3,5,80,127,57308604
311,17,Jits_Phase_5,0,1,48,45,57708172
311,17,Jits_Phase_5,1,5,63,98,57709892
311,17,Jits_Phase_5,2,5,56,103,57738548
311,17,Jits_Phase_5,3,5,80,127,57778556
311,17,Jits_Phase_5,0,1,48,45,58186752
311,17,Jits_Phase_5,1,5,56,103,58208596
311,17,Jits_Phase_5,2,5,63,98,58248560
311,17,Jits_Phase_5,3,5,80,127,58288480
311,17,Jits_Phase_5,0,1,48,44,58681120
311,17,Jits_Phase_5,1,5,80,127,58709320
311,17,Jits_Phase_5,2,5,56,103,58789496
311,17,Jits_Phase_5,3,5,63,98,58798420
311,17,Jits_Phase_5,0,1,48,48,59220576
311,17,Jits_Phase_5,1,5,56,103,59249220
311,17,Jits_Phase_5,2,5,63,98,59252136
311,17,Jits_Phase_5,3,5,80,127,59259340
311,17,Jits_Phase_5,0,1,48,47,59726672
311,17,Jits_Phase_5,1,5,56,103,59769416
311,17,Jits_Phase_5,2,5,63,98,59788780
311,17,Jits_Phase_5,3,5,80,127,59798900
311,17,Jits_Phase_5,0,1,48,51,60216168
311,17,Jits_Phase_5,1,5,63,98,60228944
311,17,Jits_Phase_5,2,5,80,127,60239140
311,17,Jits_Phase_5,3,5,56,103,60258624
311,17,Jits_Phase_5,0,1,48,45,60704608
311,17,Jits_Phase_5,1,5,63,98,60728692
311,17,Jits_Phase_5,2,5,56,103,60808496
311,17,Jits_Phase_5,3,5,80,127,60811712
311,17,Jits_Phase_5,0,5,63,98,61229344
311,17,Jits_Phase_5,1,1,48,48,61239364
311,17,Jits_Phase_5,2,5,56,103,61248828
311,17,Jits_Phase_5,3,5,80,127,61278576
311,17,Jits_Phase_5,0,5,56,103,61729100
311,17,Jits_Phase_5,1,1,48,45,61732220
311,17,Jits_Phase_5,2,5,63,98,61748580
311,17,Jits_Phase_5,3,5,80,127,61758924
311,17,Jits_Phase_5,0,1,48,41,62233772
311,17,Jits_Phase_5,1,5,56,103,62258452
311,17,Jits_Phase_5,2,5,63,98,62289248
311,17,Jits_Phase_5,3,5,80,127,62292536
311,17,Jits_Phase_5,0,5,56,103,62719396
311,17,Jits_Phase_5,1,1,48,45,62730908
311,17,Jits_Phase_5,2,5,63,98,62759252
311,17,Jits_Phase_5,3,5,80,127,62818892
311,17,Jits_Phase_5,0,1,48,44,63225788
311,17,Jits_Phase_5,1,5,56,103,63238488
311,17,Jits_Phase_5,2,5,63,98,63248760
311,17,Jits_Phase_5,3,5,80,127,63309220
311,17,Jits_Phase_5,0,1,48,44,63705392
311,17,Jits_Phase_5,1,5,56,103,63739140
311,17,Jits_Phase_5,2,5,80,127,63758776
311,17,Jits_Phase_5,3,5,63,98,63789496
311,17,Jits_Phase_5,0,1,48,49,64205292
311,17,Jits_Phase_5,1,5,80,127,64238892
311,17,Jits_Phase_5,2,5,56,103,64249088
311,17,Jits_Phase_5,3,5,63,98,64268648
311,17,Jits_Phase_5,0,5,63,98,64728384
311,17,Jits_Phase_5,1,1,48,46,64737804
311,17,Jits_Phase_5,2,5,80,127,64809220
311,17,Jits_Phase_5,3,5,56,103,64818516
311,17,Jits_Phase_5,0,1,48,47,65171236
311,17,Jits_Phase_5,1,5,80,127,65319144
311,17,Jits_Phase_5,2,5,56,103,65339080
311,17,Jits_Phase_5,3,5,63,98,65342068
311,17,Jits_Phase_5,0,1,48,44,65748608
311,17,Jits_Phase_5,1,5,63,98,65808940
311,17,Jits_Phase_5,2,5,80,127,65812300
311,17,Jits_Phase_5,3,5,56,103,65869236
311,17,Jits_Phase_5,0,1,48,50,66280040
311,17,Jits_Phase_5,1,5,56,103,66289128
311,17,Jits_Phase_5,2,5,80,127,66299252
311,17,Jits_Phase_5,3,5,63,98,66339188
311,17,Jits_Phase_5,0,5,56,103,66769260
311,17,Jits_Phase_5,1,1,48,49,66782864
311,17,Jits_Phase_5,2,5,63,98,66828744
311,17,Jits_Phase_5,3,5,80,127,66838864
311,17,Jits_Phase_5,0,1,48,48,67241120
311,17,Jits_Phase_5,1,5,63,98,67279204
311,17,Jits_Phase_5,2,5,80,127,67319068
311,17,Jits_Phase_5,3,5,56,103,67359064
311,17,Jits_Phase_5,0,1,48,47,67769940
311,17,Jits_Phase_5,1,5,56,103,67778884
311,17,Jits_Phase_5,2,5,63,98,67859048
311,17,Jits_Phase_5,3,5,80,127,67862336
311,17,Jits_Phase_5,0,1,48,44,68246076
311,17,Jits_Phase_5,1,5,80,127,68339148
311,17,Jits_Phase_5,2,5,56,103,68368896
311,17,Jits_Phase_5,3,5,63,98,68371816
311,17,Jits_Phase_5,0,1,48,43,68789216
311,17,Jits_Phase_5,1,5,56,103,68798980
311,17,Jits_Phase_5,2,5,80,127,68819436
311,17,Jits_Phase_5,3,5,63,98,68859372
311,17,Jits_Phase_5,0,5,80,127,69279112
311,17,Jits_Phase_5,1,1,48,42,69286416
311,17,Jits_Phase_5,2,5,63,98,69298664
311,17,Jits_Phase_5,3,5,56,103,69358904
311,17,Jits_Phase_5,0,1,48,47,69777204
311,17,Jits_Phase_5,1,5,63,98,69788912
311,17,Jits_Phase_5,2,5,56,103,69799256
311,17,Jits_Phase_5,3,5,80,127,69848408
311,17,Jits_Phase_5,0,5,56,103,70278628
311,17,Jits_Phase_5,1,1,48,42,70283768
311,17,Jits_Phase_5,2,5,63,98,70298932
311,17,Jits_Phase_5,3,5,80,127,70309276
311,17,Jits_Phase_5,0,1,48,51,70769224
311,17,Jits_Phase_5,1,5,56,103,70770736
311,17,Jits_Phase_5,2,5,63,98,70773476
311,17,Jits_Phase_5,3,5,80,127,70788432
311,17,Jits_Phase_5,0,1,48,46,71244644
311,17,Jits_Phase_5,1,5,63,98,71308616
311,17,Jits_Phase_5,2,5,56,103,71339336
311,17,Jits_Phase_5,3,5,80,127,71369068
311,17,Jits_Phase_5,0,1,48,47,71753772
311,17,Jits_Phase_5,1,5,80,127,71768412
311,17,Jits_Phase_5,2,5,56,103,71858700
311,17,Jits_Phase_5,3,5,63,98,71861620
311,17,Jits_Phase_5,0,5,56,103,72269136
311,17,Jits_Phase_5,1,5,80,127,72272352
311,17,Jits_Phase_5,2,1,48,50,72321252
311,17,Jits_Phase_5,3,5,63,98,72348996
311,17,Jits_Phase_5,0,5,80,127,72768868
311,17,Jits_Phase_5,1,1,48,50,72805696
311,17,Jits_Phase_5,2,5,63,98,72829404
311,17,Jits_Phase_5,3,5,56,103,72858952
311,17,Jits_Phase_5,0,5,63,98,73268860
311,17,Jits_Phase_5,1,5,80,127,73278760
311,17,Jits_Phase_5,2,1,48,48,73293040
311,17,Jits_Phase_5,3,5,56,103,73348680
311,17,Jits_Phase_5,0,1,48,48,73745500
311,17,Jits_Phase_5,1,5,56,103,73828620
311,17,Jits_Phase_5,2,5,80,127,73858604
311,17,Jits_Phase_5,3,5,63,98,73908876
311,17,Jits_Phase_5,0,1,48,49,74240680
311,17,Jits_Phase_5,1,5,63,98,74418504
311,17,Jits_Phase_5,2,5,56,103,74449300
311,17,Jits_Phase_5,3,5,80,127,74452512
311,17,Jits_Phase_5,0,1,48,42,74914704
311,17,Jits_Phase_5,1,5,63,98,74928604
311,17,Jits_Phase_5,2,5,80,127,74948912
311,17,Jits_Phase_5,3,5,56,103,74959184
311,17,Jits_Phase_5,0,5,56,103,75438700
311,17,Jits_Phase_5,1,5,63,98,75441620
311,17,Jits_Phase_5,2,5,80,127,75458864
311,17,Jits_Phase_5,3,1,48,43,75497572
311,17,Jits_Phase_5,0,5,56,103,75888916
311,17,Jits_Phase_5,1,5,63,98,75899112
311,17,Jits_Phase_5,2,5,80,127,75928888
311,17,Jits_Phase_5,3,1,48,43,75983092
311,17,Jits_Phase_5,0,1,48,32,76406096
311,17,Jits_Phase_5,1,5,63,98,76409276
311,17,Jits_Phase_5,2,5,80,127,76428640
311,17,Jits_Phase_5,3,5,56,103,76468576
311,17,Jits_Phase_5,0,1,48,47,76888028
311,17,Jits_Phase_5,1,5,56,103,76938652
311,17,Jits_Phase_5,2,5,63,98,76978436
311,17,Jits_Phase_5,3,5,80,127,76981656
311,17,Jits_Phase_5,0,1,48,42,77366428
311,17,Jits_Phase_5,1,5,80,127,77378880
311,17,Jits_Phase_5,2,5,56,103,77418816
311,17,Jits_Phase_5,3,5,63,98,77469176
311,17,Jits_Phase_5,0,1,48,51,77857336
311,17,Jits_Phase_5,1,5,56,103,77939020
311,17,Jits_Phase_5,2,5,80,127,77949572
311,17,Jits_Phase_5,3,5,63,98,77979048
311,17,Jits_Phase_5,0,1,48,50,78356248
311,17,Jits_Phase_5,1,5,56,103,78388576
311,17,Jits_Phase_5,2,5,80,127,78428592
311,17,Jits_Phase_5,3,5,63,98,78478724
311,17,Jits_Phase_5,0,1,48,48,78827176
311,17,Jits_Phase_5,1,5,56,103,78889380
311,17,Jits_Phase_5,2,5,80,127,78929304
311,17,Jits_Phase_5,3,5,63,98,78978628
311,17,Jits_Phase_5,0,1,48,51,79315748
311,17,Jits_Phase_5,1,5,80,127,79378724
311,17,Jits_Phase_5,2,5,63,98,79458576
311,17,Jits_Phase_5,3,5,56,103,79468848
311,17,Jits_Phase_5,0,1,48,47,79912384
311,17,Jits_Phase_5,1,5,80,127,79928748
311,17,Jits_Phase_5,2,5,56,103,79938872
311,17,Jits_Phase_5,3,5,63,98,79959624
311,17,Jits_Phase_5,0,5,63,98,80398692
311,17,Jits_Phase_5,1,1,48,46,80427144
311,17,Jits_Phase_5,2,5,56,103,80469336
311,17,Jits_Phase_5,3,5,80,127,80472328
311,17,Jits_Phase_5,0,1,48,48,80888620
311,17,Jits_Phase_5,1,5,80,127,80890336
311,17,Jits_Phase_5,2,5,63,98,80939492
311,17,Jits_Phase_5,3,5,56,103,80979576
311,17,Jits_Phase_5,0,1,48,48,81348264
311,17,Jits_Phase_5,1,5,63,98,81428756
311,17,Jits_Phase_5,2,5,56,103,81468752
311,17,Jits_Phase_5,3,5,80,127,81479024
311,17,Jits_Phase_5,0,1,48,50,81866440
311,17,Jits_Phase_5,1,5,63,98,81919444
311,17,Jits_Phase_5,2,5,56,103,81938712
311,17,Jits_Phase_5,3,5,80,127,81959300
311,17,Jits_Phase_5,0,5,80,127,82379276
311,17,Jits_Phase_5,1,5,56,103,82389320
311,17,Jits_Phase_5,2,1,48,49,82397164
311,17,Jits_Phase_5,3,5,63,98,82408876
311,17,Jits_Phase_5,0,1,48,46,82879304
311,17,Jits_Phase_5,1,5,63,98,82908552
311,17,Jits_Phase_5,2,5,56,103,82948492
311,17,Jits_Phase_5,3,5,80,127,82980316
311,17,Jits_Phase_5,0,5,56,103,83369280
311,17,Jits_Phase_5,1,1,48,43,83385656
311,17,Jits_Phase_5,2,5,63,98,83399172
311,17,Jits_Phase_5,3,5,80,127,83428624
311,17,Jits_Phase_5,0,5,80,127,83789312
311,17,Jits_Phase_5,1,5,56,103,83858792
311,17,Jits_Phase_5,2,5,63,98,83862152
311,17,Jits_Phase_5,3,1,48,43,83867236
311,17,Jits_Phase_5,0,5,56,103,84299260
311,17,Jits_Phase_5,1,1,48,43,84338948
311,17,Jits_Phase_5,2,5,63,98,84349160
311,17,Jits_Phase_5,3,5,80,127,84379156
311,17,Jits_Phase_5,0,5,63,98,84779324
311,17,Jits_Phase_5,1,5,80,127,84782616
311,17,Jits_Phase_5,2,1,48,47,84784628
311,17,Jits_Phase_5,3,5,56,103,84838808
311,17,Jits_Phase_5,0,1,48,46,85247032
311,17,Jits_Phase_5,1,5,56,103,85308732
311,17,Jits_Phase_5,2,5,80,127,85319300
311,17,Jits_Phase_5,3,5,63,98,85369332
311,17,Jits_Phase_5,0,1,48,43,85756080
311,17,Jits_Phase_5,1,5,63,98,85778892
311,17,Jits_Phase_5,2,5,56,103,85789160
311,17,Jits_Phase_5,3,5,80,127,85818684
311,17,Jits_Phase_5,0,1,48,46,86244212
311,17,Jits_Phase_5,1,5,63,98,86309204
311,17,Jits_Phase_5,2,5,80,127,86312492
311,17,Jits_Phase_5,3,5,56,103,86339232
311,17,Jits_Phase_5,0,1,48,49,86745308
311,17,Jits_Phase_5,1,5,63,98,86829476
311,17,Jits_Phase_5,2,5,56,103,86848868
311,17,Jits_Phase_5,3,5,80,127,86852012
311,17,Jits_Phase_5,0,1,48,48,87274420
311,17,Jits_Phase_5,1,5,63,98,87289140
311,17,Jits_Phase_5,2,5,56,103,87358972
311,17,Jits_Phase_5,3,5,80,127,87379192
311,17,Jits_Phase_5,0,5,56,103,87778564
311,17,Jits_Phase_5,1,1,48,47,87781232
311,17,Jits_Phase_5,2,5,63,98,87788976
311,17,Jits_Phase_5,3,5,80,127,87879252
311,17,Jits_Phase_5,0,1,48,47,88293344
311,17,Jits_Phase_5,1,5,56,103,88299000
311,17,Jits_Phase_5,2,5,80,127,88338936
311,17,Jits_Phase_5,3,5,63,98,88348984
311,17,Jits_Phase_5,0,1,48,51,88780592
311,17,Jits_Phase_5,1,5,56,103,88819204
311,17,Jits_Phase_5,2,5,63,98,88849028
311,17,Jits_Phase_5,3,5,80,127,88878316
311,17,Jits_Phase_5,0,1,48,42,89271516
311,17,Jits_Phase_5,1,5,80,127,89278956
311,17,Jits_Phase_5,2,5,63,98,89318896
311,17,Jits_Phase_5,3,5,56,103,89339280
311,17,Jits_Phase_5,0,1,48,49,89784668
311,17,Jits_Phase_5,1,5,56,103,89818492
311,17,Jits_Phase_5,2,5,80,127,89838952
311,17,Jits_Phase_5,3,5,63,98,89858364
311,17,Jits_Phase_5,0,5,63,98,90288584
311,17,Jits_Phase_5,1,1,48,51,90293720
311,17,Jits_Phase_5,2,5,56,103,90298920
311,17,Jits_Phase_5,3,5,80,127,90359156
311,17,Jits_Phase_5,0,5,56,103,90789156
311,17,Jits_Phase_5,1,1,48,49,90800592
311,17,Jits_Phase_5,2,5,63,98,90858980
311,17,Jits_Phase_5,3,5,80,127,90879360
311,17,Jits_Phase_5,0,5,56,103,91289000
311,17,Jits_Phase_5,1,1,48,49,91300960
311,17,Jits_Phase_5,2,5,63,98,91318520
311,17,Jits_Phase_5,3,5,80,127,91358532
311,17,Jits_Phase_5,0,1,48,51,91769528
311,17,Jits_Phase_5,1,5,63,98,91778348
311,17,Jits_Phase_5,2,5,56,103,91828772
311,17,Jits_Phase_5,3,5,80,127,91838892
311,17,Jits_Phase_5,0,1,48,48,92241112
311,17,Jits_Phase_5,1,5,56,103,92319004
311,17,Jits_Phase_5,2,5,63,98,92369192
311,17,Jits_Phase_5,3,5,80,127,92378340
311,17,Jits_Phase_5,0,5,56,103,92789076
311,17,Jits_Phase_5,1,5,63,98,92799344
311,17,Jits_Phase_5,2,1,48,50,92812528
311,17,Jits_Phase_5,3,5,80,127,92879152
311,17,Jits_Phase_5,0,9999,9999,9999,8526916
311,17,Jits_Phase_5,1,9999,9999,9999,9026652
311,17,Jits_Phase_5,2,9999,9999,9999,9526396
311,17,Jits_Phase_5,3,9999,9999,9999,10027108
311,17,Jits_Phase_5,4,9999,9999,9999,10537044
311,17,Jits_Phase_5,5,9999,9999,9999,11036796
311,17,Jits_Phase_5,6,9999,9999,9999,11536472
311,17,Jits_Phase_5,7,9999,9999,9999,12036164
311,17,Jits_Phase_5,8,9999,9999,9999,12536900
311,17,Jits_Phase_5,9,9999,9999,9999,13036668
311,17,Jits_Phase_5,10,9999,9999,9999,13536344
311,17,Jits_Phase_5,11,9999,9999,9999,14037068
311,17,Jits_Phase_5,12,9999,9999,9999,14536816
311,17,Jits_Phase_5,13,9999,9999,9999,15036488
311,17,Jits_Phase_5,14,9999,9999,9999,15536224
311,17,Jits_Phase_5,15,9999,9999,9999,16036920
311,17,Jits_Phase_5,16,9999,9999,9999,16536672
311,17,Jits_Phase_5,17,9999,9999,9999,17036348
311,17,Jits_Phase_5,18,9999,9999,9999,17536072
311,17,Jits_Phase_5,19,9999,9999,9999,18036864
311,17,Jits_Phase_5,20,9999,9999,9999,18536544
311,17,Jits_Phase_5,21,9999,9999,9999,19036216
311,17,Jits_Phase_5,22,9999,9999,9999,19536956
311,17,Jits_Phase_5,23,9999,9999,9999,20036724
311,17,Jits_Phase_5,24,9999,9999,9999,20536404
311,17,Jits_Phase_5,25,9999,9999,9999,21036148
311,17,Jits_Phase_5,26,9999,9999,9999,21536876
311,17,Jits_Phase_5,27,9999,9999,9999,22036540
311,17,Jits_Phase_5,28,9999,9999,9999,22536312
311,17,Jits_Phase_5,29,9999,9999,9999,23037036
311,17,Jits_Phase_5,30,9999,9999,9999,23526524
311,17,Jits_Phase_5,31,9999,9999,9999,24026204
311,17,Jits_Phase_5,32,9999,9999,9999,24526928
311,17,Jits_Phase_5,33,9999,9999,9999,25026680
311,17,Jits_Phase_5,34,9999,9999,9999,25526360
311,17,Jits_Phase_5,35,9999,9999,9999,26027088
311,17,Jits_Phase_5,36,9999,9999,9999,26537016
311,17,Jits_Phase_5,37,9999,9999,9999,27036764
311,17,Jits_Phase_5,38,9999,9999,9999,27536440
311,17,Jits_Phase_5,39,9999,9999,9999,28036172
311,17,Jits_Phase_5,40,9999,9999,9999,28536900
311,17,Jits_Phase_5,41,9999,9999,9999,29036644
311,17,Jits_Phase_5,42,9999,9999,9999,29536336
311,17,Jits_Phase_5,43,9999,9999,9999,30037056
311,17,Jits_Phase_5,44,9999,9999,9999,30536808
311,17,Jits_Phase_5,45,9999,9999,9999,31036480
311,17,Jits_Phase_5,46,9999,9999,9999,31536232
311,17,Jits_Phase_5,47,9999,9999,9999,32036964
311,17,Jits_Phase_5,48,9999,9999,9999,32546904
311,17,Jits_Phase_5,49,9999,9999,9999,33046588
311,17,Jits_Phase_5,50,9999,9999,9999,33546328
311,17,Jits_Phase_5,51,9999,9999,9999,34047068
311,17,Jits_Phase_5,52,9999,9999,9999,34546748
311,17,Jits_Phase_5,53,9999,9999,9999,35046516
311,17,Jits_Phase_5,54,9999,9999,9999,35546196
311,17,Jits_Phase_5,55,9999,9999,9999,36046912
311,17,Jits_Phase_5,56,9999,9999,9999,36546616
311,17,Jits_Phase_5,57,9999,9999,9999,37046380
311,17,Jits_Phase_5,58,9999,9999,9999,37547120
311,17,Jits_Phase_5,59,9999,9999,9999,38057020
311,17,Jits_Phase_5,60,9999,9999,9999,38556792
311,17,Jits_Phase_5,61,9999,9999,9999,39056464
311,17,Jits_Phase_5,62,9999,9999,9999,39556216
311,17,Jits_Phase_5,63,9999,9999,9999,40056892
311,17,Jits_Phase_5,64,9999,9999,9999,40576072
311,17,Jits_Phase_5,65,9999,9999,9999,41076804
311,17,Jits_Phase_5,66,9999,9999,9999,41576572
311,17,Jits_Phase_5,67,9999,9999,9999,42076240
311,17,Jits_Phase_5,68,9999,9999,9999,42576964
311,17,Jits_Phase_5,69,9999,9999,9999,43076720
311,17,Jits_Phase_5,70,9999,9999,9999,43576384
311,17,Jits_Phase_5,71,9999,9999,9999,44076148
311,17,Jits_Phase_5,72,9999,9999,9999,44576872
311,17,Jits_Phase_5,73,9999,9999,9999,45076548
311,17,Jits_Phase_5,74,9999,9999,9999,45576320
311,17,Jits_Phase_5,75,9999,9999,9999,46077040
311,17,Jits_Phase_5,76,9999,9999,9999,46576736
311,17,Jits_Phase_5,77,9999,9999,9999,47076416
311,17,Jits_Phase_5,78,9999,9999,9999,47576184
311,17,Jits_Phase_5,79,9999,9999,9999,48076908
311,17,Jits_Phase_5,80,9999,9999,9999,48576588
311,17,Jits_Phase_5,81,9999,9999,9999,49056864
311,17,Jits_Phase_5,82,9999,9999,9999,49556540
311,17,Jits_Phase_5,83,9999,9999,9999,50056292
311,17,Jits_Phase_5,84,9999,9999,9999,50557012
311,17,Jits_Phase_5,85,9999,9999,9999,51056752
311,17,Jits_Phase_5,86,9999,9999,9999,51556432
311,17,Jits_Phase_5,87,9999,9999,9999,52056120
311,17,Jits_Phase_5,88,9999,9999,9999,52556920
311,17,Jits_Phase_5,89,9999,9999,9999,53056612
311,17,Jits_Phase_5,90,9999,9999,9999,53556292
311,17,Jits_Phase_5,91,9999,9999,9999,54057084
311,17,Jits_Phase_5,92,9999,9999,9999,54556752
311,17,Jits_Phase_5,93,9999,9999,9999,55056508
311,17,Jits_Phase_5,94,9999,9999,9999,55556184
311,17,Jits_Phase_5,95,9999,9999,9999,56056904
311,17,Jits_Phase_5,96,9999,9999,9999,56556656
311,17,Jits_Phase_5,97,9999,9999,9999,57006144
311,17,Jits_Phase_5,98,9999,9999,9999,57506940
311,17,Jits_Phase_5,99,9999,9999,9999,58006632
311,17,Jits_Phase_5,100,9999,9999,9999,58506308
311,17,Jits_Phase_5,101,9999,9999,9999,59007084
311,17,Jits_Phase_5,102,9999,9999,9999,59506748
311,17,Jits_Phase_5,103,9999,9999,9999,60006500
311,17,Jits_Phase_5,104,9999,9999,9999,60506180
311,17,Jits_Phase_5,105,9999,9999,9999,61006972
311,17,Jits_Phase_5,106,9999,9999,9999,61506652
311,17,Jits_Phase_5,107,9999,9999,9999,62006328
311,17,Jits_Phase_5,108,9999,9999,9999,62507136
311,17,Jits_Phase_5,109,9999,9999,9999,63017080
311,17,Jits_Phase_5,110,9999,9999,9999,63516776
311,17,Jits_Phase_5,111,9999,9999,9999,64016452
311,17,Jits_Phase_5,112,9999,9999,9999,64516204
311,17,Jits_Phase_5,113,9999,9999,9999,65016928
311,17,Jits_Phase_5,114,9999,9999,9999,65566796
311,17,Jits_Phase_5,115,9999,9999,9999,66066540
311,17,Jits_Phase_5,116,9999,9999,9999,66566220
311,17,Jits_Phase_5,117,9999,9999,9999,67066940
311,17,Jits_Phase_5,118,9999,9999,9999,67566708
311,17,Jits_Phase_5,119,9999,9999,9999,68066380
311,17,Jits_Phase_5,120,9999,9999,9999,68566128
311,17,Jits_Phase_5,121,9999,9999,9999,69066852
311,17,Jits_Phase_5,122,9999,9999,9999,69566532
311,17,Jits_Phase_5,123,9999,9999,9999,70066296
311,17,Jits_Phase_5,124,9999,9999,9999,70567020
311,17,Jits_Phase_5,125,9999,9999,9999,71066696
311,17,Jits_Phase_5,126,9999,9999,9999,71566448
311,17,Jits_Phase_5,127,9999,9999,9999,72066120
311,17,Jits_Phase_5,128,9999,9999,9999,72566860
311,17,Jits_Phase_5,129,9999,9999,9999,73066556
311,17,Jits_Phase_5,130,9999,9999,9999,73566320
311,17,Jits_Phase_5,131,9999,9999,9999,74166336
311,17,Jits_Phase_5,132,9999,9999,9999,74667128
311,17,Jits_Phase_5,133,9999,9999,9999,75177068
311,17,Jits_Phase_5,134,9999,9999,9999,75676744
311,17,Jits_Phase_5,135,9999,9999,9999,76176508
311,17,Jits_Phase_5,136,9999,9999,9999,76676204
311,17,Jits_Phase_5,137,9999,9999,9999,77176900
311,17,Jits_Phase_5,138,9999,9999,9999,77676644
311,17,Jits_Phase_5,139,9999,9999,9999,78176328
311,17,Jits_Phase_5,140,9999,9999,9999,78677052
311,17,Jits_Phase_5,141,9999,9999,9999,79176808
311,17,Jits_Phase_5,142,9999,9999,9999,79676488
311,17,Jits_Phase_5,143,9999,9999,9999,80176244
311,17,Jits_Phase_5,144,9999,9999,9999,80676964
311,17,Jits_Phase_5,145,9999,9999,9999,81176644
311,17,Jits_Phase_5,146,9999,9999,9999,81676400
311,17,Jits_Phase_5,147,9999,9999,9999,82176084
311,17,Jits_Phase_5,148,9999,9999,9999,82676804
311,17,Jits_Phase_5,149,9999,9999,9999,83176572
311,17,Jits_Phase_5,150,9999,9999,9999,83576896
311,17,Jits_Phase_5,151,9999,9999,9999,84076648
311,17,Jits_Phase_5,152,9999,9999,9999,84576348
311,17,Jits_Phase_5,153,9999,9999,9999,85077072
311,17,Jits_Phase_5,154,9999,9999,9999,85576828
311,17,Jits_Phase_5,155,9999,9999,9999,86076500
311,17,Jits_Phase_5,156,9999,9999,9999,86576244
311,17,Jits_Phase_5,157,9999,9999,9999,87076960
311,17,Jits_Phase_5,158,9999,9999,9999,87576644
311,17,Jits_Phase_5,159,9999,9999,9999,88076392
311,17,Jits_Phase_5,160,9999,9999,9999,88576088
311,17,Jits_Phase_5,161,9999,9999,9999,89076820
311,17,Jits_Phase_5,162,9999,9999,9999,89576568
311,17,Jits_Phase_5,163,9999,9999,9999,90076252
311,17,Jits_Phase_5,164,9999,9999,9999,90576972
311,17,Jits_Phase_5,165,9999,9999,9999,91076728
311,17,Jits_Phase_5,166,9999,9999,9999,91576420
311,17,Jits_Phase_5,167,9999,9999,9999,92076112
311,17,Jits_Phase_5,168,9999,9999,9999,92576840
311,17,Jits_Phase_5,169,9999,9999,9999,93076592
311,3,ISIP_8,0,5,42,127,5914060
311,3,ISIP_8,1,1,48,31,6326600
311,3,ISIP_8,2,5,42,127,6713720
311,3,ISIP_8,3,1,48,38,6835568
311,3,ISIP_8,4,1,48,44,7499204
311,3,ISIP_8,5,5,42,127,7513448
311,3,ISIP_8,6,1,48,35,8273580
311,3,ISIP_8,7,5,42,127,8314304
311,3,ISIP_8,8,1,48,34,9070544
311,3,ISIP_8,9,5,42,127,9114036
311,3,ISIP_8,10,1,48,35,9911984
311,3,ISIP_8,11,5,42,127,9913796
311,3,ISIP_8,12,1,48,31,10696664
311,3,ISIP_8,13,5,42,127,10713380
311,3,ISIP_8,14,1,48,28,11502984
311,3,ISIP_8,15,5,42,127,11514312
311,3,ISIP_8,16,1,48,29,12303764
311,3,ISIP_8,17,5,42,127,12314044
311,3,ISIP_8,18,1,48,31,13108440
311,3,ISIP_8,19,5,42,127,13113928
311,3,ISIP_8,20,5,42,127,13913444
311,3,ISIP_8,21,1,48,27,13916568
311,3,ISIP_8,22,1,48,32,14701996
311,3,ISIP_8,23,5,42,127,14714292
311,3,ISIP_8,24,5,42,127,15513960
311,3,ISIP_8,25,1,48,28,15533484
311,3,ISIP_8,26,1,48,31,16279540
311,3,ISIP_8,27,5,42,127,16313708
311,3,ISIP_8,28,1,48,35,17056608
311,3,ISIP_8,29,5,42,127,17113740
311,3,ISIP_8,30,1,48,33,17868044
311,3,ISIP_8,31,5,42,127,17914220
311,3,ISIP_8,32,1,48,36,18667848
311,3,ISIP_8,33,5,42,127,18714028
311,3,ISIP_8,34,1,48,36,19462644
311,3,ISIP_8,35,5,42,127,19513764
311,3,ISIP_8,36,1,48,37,20252128
311,3,ISIP_8,37,5,42,127,20313644
311,3,ISIP_8,38,1,48,36,21027704
311,3,ISIP_8,39,5,42,127,21114132
311,3,ISIP_8,40,1,48,32,21856984
311,3,ISIP_8,41,5,42,127,21913936
311,3,ISIP_8,42,1,48,41,22637944
311,3,ISIP_8,43,5,42,127,22713696
311,3,ISIP_8,44,1,48,37,23440968
311,3,ISIP_8,45,5,42,127,23513724
311,3,ISIP_8,46,1,48,36,24256808
311,3,ISIP_8,47,5,42,127,24314504
311,3,ISIP_8,48,1,48,38,25093936
311,3,ISIP_8,49,5,42,127,25113868
311,3,ISIP_8,50,1,48,38,25842360
311,3,ISIP_8,51,5,42,127,25913676
311,3,ISIP_8,52,1,48,39,26650616
311,3,ISIP_8,53,5,42,127,26713484
311,3,ISIP_8,54,1,48,38,27497928
311,3,ISIP_8,55,5,42,127,27514188
311,3,ISIP_8,56,1,48,35,28251656
311,3,ISIP_8,57,5,42,127,28314220
311,3,ISIP_8,58,1,48,33,29067996
311,3,ISIP_8,59,5,42,127,29113756
311,3,ISIP_8,60,1,48,33,29867604
311,3,ISIP_8,61,1,48,32,30730776
311,3,ISIP_8,62,1,48,34,31575756
311,3,ISIP_8,63,1,48,35,32399572
311,3,ISIP_8,64,1,48,31,33219896
311,3,ISIP_8,65,1,48,28,34131744
311,3,ISIP_8,66,1,48,33,34975080
311,3,ISIP_8,67,1,48,35,35804232
311,3,ISIP_8,68,1,48,31,36644876
311,3,ISIP_8,69,1,48,33,37460016
311,3,ISIP_8,70,1,48,28,38333520
311,3,ISIP_8,71,1,48,35,39174756
311,3,ISIP_8,72,1,48,35,39982120
311,3,ISIP_8,73,1,48,30,40803160
311,3,ISIP_8,74,1,48,33,41645552
311,3,ISIP_8,75,1,48,30,42505044
311,3,ISIP_8,76,1,48,31,43324968
311,3,ISIP_8,77,1,48,30,44108244
311,3,ISIP_8,78,1,48,31,44956892
311,3,ISIP_8,79,1,48,36,45799352
311,3,ISIP_8,80,1,48,31,46617932
311,3,ISIP_8,81,1,48,31,47420804
311,3,ISIP_8,82,1,48,32,48258976
311,3,ISIP_8,83,1,48,23,49091268
311,3,ISIP_8,84,1,48,31,49908572
311,3,ISIP_8,85,1,48,35,50697832
311,3,ISIP_8,86,1,48,31,51536692
311,3,ISIP_8,87,1,48,34,52353700
311,3,ISIP_8,88,1,48,36,53163256
311,3,ISIP_8,89,1,48,31,53957004
311,3,ISIP_8,90,1,48,35,54780440
311,3,ISIP_8,91,1,48,34,55568200
311,3,ISIP_8,92,1,48,34,56421484
311,3,ISIP_8,93,1,48,32,57271356
311,3,ISIP_8,94,1,48,35,58096816
311,3,ISIP_8,95,1,48,35,58901176
311,3,ISIP_8,96,1,48,33,59773088
311,3,ISIP_8,97,1,48,30,60600444
311,3,ISIP_8,98,1,48,30,61471452
311,3,ISIP_8,99,1,48,32,62309104
311,3,ISIP_8,100,1,48,36,63122224
311,3,ISIP_8,101,1,48,34,63934168
311,3,ISIP_8,102,1,48,35,64751928
311,3,ISIP_8,103,1,48,36,65577836
311,3,ISIP_8,104,1,48,32,66396640
311,3,ISIP_8,105,1,48,35,67232872
311,3,ISIP_8,106,1,48,36,68021480
311,3,ISIP_8,107,1,48,36,68867732
311,3,ISIP_8,108,1,48,30,69726252
311,3,ISIP_8,109,1,48,40,70536228
311,3,ISIP_8,110,1,48,35,71365524
311,3,ISIP_8,111,1,48,38,72206624
311,3,ISIP_8,112,1,48,36,73032600
311,3,ISIP_8,113,1,48,39,73866368
311,3,ISIP_8,114,1,48,41,74730008
311,3,ISIP_8,115,1,48,35,75556736
311,3,ISIP_8,116,1,48,31,76376888
311,3,ISIP_8,117,1,48,37,77190156
311,3,ISIP_8,118,1,48,41,78018636
311,3,ISIP_8,119,1,48,36,78850524
311,3,ISIP_8,120,1,48,36,79678300
311,3,ISIP_8,121,1,48,40,80483492
311,3,ISIP_8,122,1,48,37,81296688
311,3,ISIP_8,123,1,48,35,82133240
311,3,ISIP_8,124,1,48,40,82957728
311,3,ISIP_8,125,1,48,37,83793284
311,3,ISIP_8,126,1,48,40,84611412
311,3,ISIP_8,127,1,48,39,85428820
311,3,ISIP_8,128,1,48,42,86304388
311,3,ISIP_8,129,1,48,39,87137556
311,3,ISIP_8,130,1,48,40,87947460
311,3,ISIP_8,131,1,48,40,88757080
311,3,ISIP_8,132,1,48,34,89554640
311,3,ISIP_8,133,1,48,40,90393336
311,3,ISIP_8,134,1,48,37,91225456
311,3,ISIP_8,135,1,48,37,92062656
311,3,ISIP_8,136,1,48,38,92900108
311,3,ISIP_8,137,1,48,40,93744716
311,3,ISIP_8,138,1,48,33,94530532
311,3,ISIP_8,139,1,48,31,95360408
311,3,ISIP_8,140,1,48,39,96195616
311,3,ISIP_8,141,1,48,35,97019208
311,3,ISIP_8,142,1,48,43,97846080
311,3,ISIP_8,143,1,48,39,98664136
311,3,ISIP_8,144,1,48,46,99467908
311,3,ISIP_8,145,1,48,41,100289352
311,3,ISIP_8,146,1,48,39,101174296
311,3,ISIP_8,147,1,48,42,101984496
311,3,ISIP_8,148,1,48,39,102785344
311,3,ISIP_8,149,1,48,42,103598564
311,3,ISIP_8,150,1,48,42,104483336
311,3,ISIP_8,151,1,48,39,105314252
311,3,ISIP_8,152,1,48,44,106124384
311,3,ISIP_8,153,1,48,43,106939920
311,3,ISIP_8,154,1,48,41,107788040
311,3,ISIP_8,155,1,48,39,108624716
311,3,ISIP_8,156,1,48,44,109448388
311,3,ISIP_8,157,1,48,42,110267360
311,3,ISIP_8,158,1,48,43,111117052
311,3,ISIP_8,159,1,48,39,111956944
311,3,ISIP_8,160,1,48,44,112780764
311,3,ISIP_8,161,1,48,45,113610584
311,3,ISIP_8,162,1,48,45,114440984
311,3,ISIP_8,163,1,48,45,115233604
311,3,ISIP_8,164,1,48,39,116047696
311,3,ISIP_8,165,1,48,46,116877192
311,3,ISIP_8,166,1,48,44,117713448
311,3,ISIP_8,167,1,48,43,118583340
311,3,ISIP_8,168,1,48,41,119419716
311,3,ISIP_8,169,1,48,46,120277740
311,3,ISIP_8,170,1,48,47,121093624
311,3,ISIP_8,171,1,48,43,121945576
311,3,ISIP_8,172,1,48,50,122785716
311,3,ISIP_8,173,1,48,47,123630476
311,3,ISIP_8,0,9999,9999,9999,5911624
311,3,ISIP_8,1,9999,9999,9999,6711356
311,3,ISIP_8,2,9999,9999,9999,7511084
311,3,ISIP_8,3,9999,9999,9999,8311868
311,3,ISIP_8,4,9999,9999,9999,9111600
311,3,ISIP_8,5,9999,9999,9999,9911384
311,3,ISIP_8,6,9999,9999,9999,10711096
311,3,ISIP_8,7,9999,9999,9999,11511876
311,3,ISIP_8,8,9999,9999,9999,12311608
311,3,ISIP_8,9,9999,9999,9999,13111344
311,3,ISIP_8,10,9999,9999,9999,13911156
311,3,ISIP_8,11,9999,9999,9999,14711856
311,3,ISIP_8,12,9999,9999,9999,15511672
311,3,ISIP_8,13,9999,9999,9999,16311348
311,3,ISIP_8,14,9999,9999,9999,17111156
311,3,ISIP_8,15,9999,9999,9999,17911860
311,3,ISIP_8,16,9999,9999,9999,18711668
311,3,ISIP_8,17,9999,9999,9999,19511400
311,3,ISIP_8,18,9999,9999,9999,20311132
311,3,ISIP_8,19,9999,9999,9999,21111916
311,3,ISIP_8,20,9999,9999,9999,21911648
311,3,ISIP_8,21,9999,9999,9999,22711408
311,3,ISIP_8,22,9999,9999,9999,23511140
311,3,ISIP_8,23,9999,9999,9999,24311920
311,3,ISIP_8,24,9999,9999,9999,25111652
311,3,ISIP_8,25,9999,9999,9999,25911388
311,3,ISIP_8,26,9999,9999,9999,26711120
311,3,ISIP_8,27,9999,9999,9999,27511900
311,3,ISIP_8,28,9999,9999,9999,28311632
311,3,ISIP_8,29,9999,9999,9999,29111392
311,3,ISIP_8,30,9999,9999,9999,29911124
311,3,ISIP_8,31,9999,9999,9999,30711908
311,3,ISIP_8,32,9999,9999,9999,31511640
311,3,ISIP_8,33,9999,9999,9999,32311368
311,3,ISIP_8,34,9999,9999,9999,33111096
311,3,ISIP_8,35,9999,9999,9999,33911872
311,3,ISIP_8,36,9999,9999,9999,34711600
311,3,ISIP_8,37,9999,9999,9999,35511356
311,3,ISIP_8,38,9999,9999,9999,36311160
311,3,ISIP_8,39,9999,9999,9999,37111860
311,3,ISIP_8,40,9999,9999,9999,37911664
311,3,ISIP_8,41,9999,9999,9999,38711392
311,3,ISIP_8,42,9999,9999,9999,39511124
311,3,ISIP_8,43,9999,9999,9999,40311896
311,3,ISIP_8,44,9999,9999,9999,41111628
311,3,ISIP_8,45,9999,9999,9999,41911380
311,3,ISIP_8,46,9999,9999,9999,42711112
311,3,ISIP_8,47,9999,9999,9999,43511888
311,3,ISIP_8,48,9999,9999,9999,44311616
311,3,ISIP_8,49,9999,9999,9999,45111344
311,3,ISIP_8,50,9999,9999,9999,45911148
311,3,ISIP_8,51,9999,9999,9999,46711864
311,3,ISIP_8,52,9999,9999,9999,47511672
311,3,ISIP_8,53,9999,9999,9999,48311348
311,3,ISIP_8,54,9999,9999,9999,49111156
311,3,ISIP_8,55,9999,9999,9999,49911856
311,3,ISIP_8,56,9999,9999,9999,50711660
311,3,ISIP_8,57,9999,9999,9999,51511396
311,3,ISIP_8,58,9999,9999,9999,52311124
311,3,ISIP_8,59,9999,9999,9999,53111900
311,3,ISIP_8,60,9999,9999,9999,53911628
311,3,ISIP_8,61,9999,9999,9999,54711384
311,3,ISIP_8,62,9999,9999,9999,55511112
311,3,ISIP_8,63,9999,9999,9999,56311888
311,3,ISIP_8,64,9999,9999,9999,57111616
311,3,ISIP_8,65,9999,9999,9999,57911344
311,3,ISIP_8,66,9999,9999,9999,58711148
311,3,ISIP_8,67,9999,9999,9999,59511924
311,3,ISIP_8,68,9999,9999,9999,60311652
311,3,ISIP_8,69,9999,9999,9999,61111408
311,3,ISIP_8,70,9999,9999,9999,61911140
311,3,ISIP_8,71,9999,9999,9999,62711916
311,3,ISIP_8,72,9999,9999,9999,63511644
311,3,ISIP_8,73,9999,9999,9999,64311376
311,3,ISIP_8,74,9999,9999,9999,65111104
311,3,ISIP_8,75,9999,9999,9999,65911880
311,3,ISIP_8,76,9999,9999,9999,66711612
311,3,ISIP_8,77,9999,9999,9999,67511364
311,3,ISIP_8,78,9999,9999,9999,68311092
311,3,ISIP_8,79,9999,9999,9999,69111872
311,3,ISIP_8,80,9999,9999,9999,69911600
311,3,ISIP_8,81,9999,9999,9999,70711404
311,3,ISIP_8,82,9999,9999,9999,71511132
311,3,ISIP_8,83,9999,9999,9999,72311908
311,3,ISIP_8,84,9999,9999,9999,73111652
311,3,ISIP_8,85,9999,9999,9999,73911404
311,3,ISIP_8,86,9999,9999,9999,74711140
311,3,ISIP_8,87,9999,9999,9999,75511916
311,3,ISIP_8,88,9999,9999,9999,76311644
311,3,ISIP_8,89,9999,9999,9999,77111376
311,3,ISIP_8,90,9999,9999,9999,77911104
311,3,ISIP_8,91,9999,9999,9999,78711880
311,3,ISIP_8,92,9999,9999,9999,79511608
311,3,ISIP_8,93,9999,9999,9999,80311364
311,3,ISIP_8,94,9999,9999,9999,81111092
311,3,ISIP_8,95,9999,9999,9999,81911868
311,3,ISIP_8,96,9999,9999,9999,82711596
311,3,ISIP_8,97,9999,9999,9999,83511404
311,3,ISIP_8,98,9999,9999,9999,84311132
311,3,ISIP_8,99,9999,9999,9999,85111904
311,3,ISIP_8,100,9999,9999,9999,85911636
311,3,ISIP_8,101,9999,9999,9999,86711388
311,3,ISIP_8,102,9999,9999,9999,87511116
311,3,ISIP_8,103,9999,9999,9999,88311892
311,3,ISIP_8,104,9999,9999,9999,89111620
311,3,ISIP_8,105,9999,9999,9999,89911348
311,3,ISIP_8,106,9999,9999,9999,90711152
311,3,ISIP_8,107,9999,9999,9999,91511856
311,3,ISIP_8,108,9999,9999,9999,92311660
311,3,ISIP_8,109,9999,9999,9999,93111412
311,3,ISIP_8,110,9999,9999,9999,93911140
311,3,ISIP_8,111,9999,9999,9999,94711916
311,3,ISIP_8,112,9999,9999,9999,95511648
311,3,ISIP_8,113,9999,9999,9999,96311376
311,3,ISIP_8,114,9999,9999,9999,97111120
311,3,ISIP_8,115,9999,9999,9999,97911896
311,3,ISIP_8,116,9999,9999,9999,98711624
311,3,ISIP_8,117,9999,9999,9999,99511380
311,3,ISIP_8,118,9999,9999,9999,100311108
311,3,ISIP_8,119,9999,9999,9999,101111892
311,3,ISIP_8,120,9999,9999,9999,101911624
311,3,ISIP_8,121,9999,9999,9999,102711352
311,3,ISIP_8,122,9999,9999,9999,103511156
311,3,ISIP_8,123,9999,9999,9999,104311856
311,3,ISIP_8,124,9999,9999,9999,105111660
311,3,ISIP_8,125,9999,9999,9999,105911412
311,3,ISIP_8,126,9999,9999,9999,106711144
311,3,ISIP_8,127,9999,9999,9999,107511920
311,3,ISIP_8,128,9999,9999,9999,108311648
311,3,ISIP_8,129,9999,9999,9999,109111376
311,3,ISIP_8,130,9999,9999,9999,109911104
311,3,ISIP_8,131,9999,9999,9999,110711880
311,3,ISIP_8,132,9999,9999,9999,111511612
311,3,ISIP_8,133,9999,9999,9999,112311364
311,3,ISIP_8,134,9999,9999,9999,113111092
311,3,ISIP_8,135,9999,9999,9999,113911872
311,3,ISIP_8,136,9999,9999,9999,114711600
311,3,ISIP_8,137,9999,9999,9999,115511404
311,3,ISIP_8,138,9999,9999,9999,116311132
311,3,ISIP_8,139,9999,9999,9999,117111908
311,3,ISIP_8,140,9999,9999,9999,117911636
311,3,ISIP_8,141,9999,9999,9999,118711392
311,3,ISIP_8,142,9999,9999,9999,119511136
311,3,ISIP_8,143,9999,9999,9999,120311912
311,3,ISIP_8,144,9999,9999,9999,121111640
311,3,ISIP_8,145,9999,9999,9999,121911376
311,3,ISIP_8,146,9999,9999,9999,122711104
311,3,ISIP_8,147,9999,9999,9999,123511880
311,3,ISIP_8,148,9999,9999,9999,124311608
311,3,ISIP_8,149,9999,9999,9999,125111384
312,5,ISIP_5,0,5,42,127,144496220
312,5,ISIP_5,1,1,48,38,144935988
312,5,ISIP_5,2,5,42,127,144995632
312,5,ISIP_5,3,1,48,46,145473976
312,5,ISIP_5,4,5,42,127,145496304
312,5,ISIP_5,5,5,42,127,145996224
312,5,ISIP_5,6,1,48,47,146020444
312,5,ISIP_5,7,5,42,127,146495992
312,5,ISIP_5,8,1,48,46,146552072
312,5,ISIP_5,9,5,42,127,146995688
312,5,ISIP_5,10,1,48,47,147055804
312,5,ISIP_5,11,5,42,127,147496280
312,5,ISIP_5,12,1,48,46,147523556
312,5,ISIP_5,13,1,48,51,147991600
312,5,ISIP_5,14,5,42,127,147996120
312,5,ISIP_5,15,5,42,127,148495896
312,5,ISIP_5,16,1,48,51,148518992
312,5,ISIP_5,17,5,42,127,148995440
312,5,ISIP_5,18,1,48,45,149032368
312,5,ISIP_5,19,5,42,127,149496032
312,5,ISIP_5,20,1,48,46,149514340
312,5,ISIP_5,21,5,42,127,149995876
312,5,ISIP_5,22,1,48,44,150019940
312,5,ISIP_5,23,5,42,127,150495572
312,5,ISIP_5,24,1,48,46,150531084
312,5,ISIP_5,25,5,42,127,150996240
312,5,ISIP_5,26,1,48,43,151026360
312,5,ISIP_5,27,1,48,46,151485420
312,5,ISIP_5,28,5,42,127,151496004
312,5,ISIP_5,29,1,48,45,151982276
312,5,ISIP_5,30,5,42,127,151995996
312,5,ISIP_5,31,1,48,46,152487212
312,5,ISIP_5,32,5,42,127,152495544
312,5,ISIP_5,33,1,48,47,152984932
312,5,ISIP_5,34,5,42,127,152996136
312,5,ISIP_5,35,1,48,47,153477820
312,5,ISIP_5,36,5,42,127,153495880
312,5,ISIP_5,37,1,48,46,153962032
312,5,ISIP_5,38,5,42,127,153995872
312,5,ISIP_5,39,1,48,46,154464044
312,5,ISIP_5,40,5,42,127,154496392
312,5,ISIP_5,41,1,48,51,154983640
312,5,ISIP_5,42,5,42,127,154996088
312,5,ISIP_5,43,1,48,49,155492384
312,5,ISIP_5,44,5,42,127,155495780
312,5,ISIP_5,45,1,48,48,155953780
312,5,ISIP_5,46,5,42,127,155995624
312,5,ISIP_5,47,1,48,46,156474940
312,5,ISIP_5,48,5,42,127,156496144
312,5,ISIP_5,49,1,48,49,156984808
312,5,ISIP_5,50,5,42,127,156995912
312,5,ISIP_5,51,1,48,47,157481288
312,5,ISIP_5,52,5,42,127,157495608
312,5,ISIP_5,53,1,48,44,157986144
312,5,ISIP_5,54,5,42,127,157996352
312,5,ISIP_5,55,5,42,127,158496048
312,5,ISIP_5,56,1,48,48,158505972
312,5,ISIP_5,57,1,48,45,158980300
312,5,ISIP_5,58,5,42,127,158995740
312,5,ISIP_5,59,1,48,42,159474080
312,5,ISIP_5,60,5,42,127,159495508
312,5,ISIP_5,61,5,42,127,159996476
312,5,ISIP_5,62,1,48,39,159997520
312,5,ISIP_5,63,5,42,127,160495876
312,5,ISIP_5,64,1,48,49,160504232
312,5,ISIP_5,65,5,42,127,160995720
312,5,ISIP_5,66,1,48,42,161014320
312,5,ISIP_5,67,1,48,43,161488640
312,5,ISIP_5,68,5,42,127,161496384
312,5,ISIP_5,69,5,42,127,161996380
312,5,ISIP_5,70,1,48,44,162015360
312,5,ISIP_5,71,5,42,127,162495776
312,5,ISIP_5,72,1,48,41,162497340
312,5,ISIP_5,73,5,42,127,162995620
312,5,ISIP_5,74,1,48,47,162998816
312,5,ISIP_5,75,5,42,127,163496584
312,5,ISIP_5,76,1,48,45,163536956
312,5,ISIP_5,77,5,42,127,163996128
312,5,ISIP_5,78,1,48,48,164020192
312,5,ISIP_5,79,1,48,45,164484912
312,5,ISIP_5,80,1,48,42,165023240
312,5,ISIP_5,81,1,48,40,165541108
312,5,ISIP_5,82,1,48,37,166042644
312,5,ISIP_5,83,1,48,40,166564948
312,5,ISIP_5,84,1,48,41,167088576
312,5,ISIP_5,85,1,48,42,167569388
312,5,ISIP_5,86,1,48,44,168042000
312,5,ISIP_5,87,1,48,42,168553512
312,5,ISIP_5,88,1,48,43,169087756
312,5,ISIP_5,89,1,48,44,169588420
312,5,ISIP_5,90,1,48,44,170062980
312,5,ISIP_5,91,1,48,43,170570596
312,5,ISIP_5,92,1,48,37,171075444
312,5,ISIP_5,93,1,48,39,171586132
312,5,ISIP_5,94,1,48,40,172076020
312,5,ISIP_5,95,1,48,44,172586708
312,5,ISIP_5,96,1,48,41,173093804
312,5,ISIP_5,97,1,48,46,173608832
312,5,ISIP_5,98,1,48,43,174090796
312,5,ISIP_5,99,1,48,46,174582780
312,5,ISIP_5,100,1,48,47,175118828
312,5,ISIP_5,101,1,48,46,175627496
312,5,ISIP_5,102,1,48,46,176092848
312,5,ISIP_5,103,1,48,47,176595532
312,5,ISIP_5,104,1,48,43,177108240
312,5,ISIP_5,105,1,48,47,177604040
312,5,ISIP_5,106,1,48,40,178120560
312,5,ISIP_5,107,1,48,49,178629300
312,5,ISIP_5,108,1,48,49,179128020
312,5,ISIP_5,109,1,48,43,179623148
312,5,ISIP_5,110,1,48,45,180150064
312,5,ISIP_5,111,1,48,46,180649680
312,5,ISIP_5,112,1,48,45,181166652
312,5,ISIP_5,113,1,48,43,181672400
312,5,ISIP_5,114,1,48,45,182167956
312,5,ISIP_5,115,1,48,46,182676016
312,5,ISIP_5,116,1,48,43,183191792
312,5,ISIP_5,117,1,48,41,183707740
312,5,ISIP_5,118,1,48,39,184224856
312,5,ISIP_5,119,1,48,40,184715992
312,5,ISIP_5,120,1,48,43,185194436
312,5,ISIP_5,121,1,48,45,185701984
312,5,ISIP_5,122,1,48,44,186225532
312,5,ISIP_5,123,1,48,41,186727320
312,5,ISIP_5,124,1,48,45,187225588
312,5,ISIP_5,125,1,48,38,187711288
312,5,ISIP_5,126,1,48,45,188244264
312,5,ISIP_5,127,1,48,40,188729896
312,5,ISIP_5,128,1,48,40,189218144
312,5,ISIP_5,129,1,48,42,189723888
312,5,ISIP_5,130,1,48,52,190215204
312,5,ISIP_5,131,1,48,46,190709208
312,5,ISIP_5,132,1,48,46,191221092
312,5,ISIP_5,133,1,48,44,191715244
312,5,ISIP_5,134,1,48,54,192236784
312,5,ISIP_5,135,1,48,49,192740136
312,5,ISIP_5,136,1,48,47,193227936
312,5,ISIP_5,137,1,48,45,193731212
312,5,ISIP_5,138,1,48,49,194239136
312,5,ISIP_5,139,1,48,52,194744436
312,5,ISIP_5,140,1,48,51,195213132
312,5,ISIP_5,141,1,48,52,195714016
312,5,ISIP_5,142,1,48,46,196215724
312,5,ISIP_5,143,1,48,46,196716696
312,5,ISIP_5,144,1,48,51,197220268
312,5,ISIP_5,145,1,48,50,197701036
312,5,ISIP_5,146,1,48,50,198194964
312,5,ISIP_5,147,1,48,48,198691068
312,5,ISIP_5,148,1,48,50,199184996
312,5,ISIP_5,149,1,48,46,199696808
312,5,ISIP_5,150,1,48,48,200174132
312,5,ISIP_5,151,1,48,43,200702768
312,5,ISIP_5,152,1,48,47,201213604
312,5,ISIP_5,153,1,48,47,201690856
312,5,ISIP_5,154,1,48,44,202185236
312,5,ISIP_5,155,1,48,43,202688440
312,5,ISIP_5,156,1,48,46,203190304
312,5,ISIP_5,157,1,48,44,203685800
312,5,ISIP_5,158,1,48,41,204177692
312,5,ISIP_5,159,1,48,51,204690624
312,5,ISIP_5,160,1,48,48,205201228
312,5,ISIP_5,161,1,48,43,205697928
312,5,ISIP_5,162,1,48,43,206217140
312,5,ISIP_5,163,1,48,40,206724240
312,5,ISIP_5,164,1,48,45,207234772
312,5,ISIP_5,165,1,48,47,207730804
312,5,ISIP_5,166,1,48,45,208238868
312,5,ISIP_5,167,1,48,45,208763168
312,5,ISIP_5,168,1,48,46,209261212
312,5,ISIP_5,169,1,48,47,209737116
312,5,ISIP_5,170,1,48,45,210215264
312,5,ISIP_5,171,1,48,47,210737696
312,5,ISIP_5,172,1,48,47,211260048
312,5,ISIP_5,173,1,48,49,211758764
312,5,ISIP_5,174,1,48,51,212253368
312,5,ISIP_5,175,1,48,50,212777520
312,5,ISIP_5,176,1,48,46,213287608
312,5,ISIP_5,177,1,48,51,213802480
312,5,ISIP_5,178,1,48,50,214311520
312,5,ISIP_5,179,1,48,45,214837016
312,5,ISIP_5,180,1,48,50,215325936
312,5,ISIP_5,181,1,48,47,215823532
312,5,ISIP_5,182,1,48,49,216328460
312,5,ISIP_5,183,1,48,48,216834356
312,5,ISIP_5,184,1,48,49,217366584
312,5,ISIP_5,185,1,48,47,217864332
312,5,ISIP_5,186,1,48,49,218350184
312,5,ISIP_5,187,1,48,47,218856080
312,5,ISIP_5,188,1,48,50,219349936
312,5,ISIP_5,189,1,48,47,219854264
312,5,ISIP_5,190,1,48,51,220385744
312,5,ISIP_5,191,1,48,49,220894564
312,5,ISIP_5,192,1,48,50,221403752
312,5,ISIP_5,193,1,48,47,221896484
312,5,ISIP_5,194,1,48,47,222390792
312,5,ISIP_5,195,1,48,50,222908136
312,5,ISIP_5,196,1,48,51,223419944
312,5,ISIP_5,197,1,48,51,223944688
312,5,ISIP_5,198,1,48,49,224430024
312,5,ISIP_5,0,9999,9999,9999,144493636
312,5,ISIP_5,1,9999,9999,9999,144993348
312,5,ISIP_5,2,9999,9999,9999,145494088
312,5,ISIP_5,3,9999,9999,9999,145993788
312,5,ISIP_5,4,9999,9999,9999,146493556
312,5,ISIP_5,5,9999,9999,9999,146993252
312,5,ISIP_5,6,9999,9999,9999,147493992
312,5,ISIP_5,7,9999,9999,9999,147993684
312,5,ISIP_5,8,9999,9999,9999,148493384
312,5,ISIP_5,9,9999,9999,9999,148993080
312,5,ISIP_5,10,9999,9999,9999,149493820
312,5,ISIP_5,11,9999,9999,9999,149993592
312,5,ISIP_5,12,9999,9999,9999,150493284
312,5,ISIP_5,13,9999,9999,9999,150994028
312,5,ISIP_5,14,9999,9999,9999,151493716
312,5,ISIP_5,15,9999,9999,9999,151993412
312,5,ISIP_5,16,9999,9999,9999,152493108
312,5,ISIP_5,17,9999,9999,9999,152993848
312,5,ISIP_5,18,9999,9999,9999,153493592
312,5,ISIP_5,19,9999,9999,9999,153993288
312,5,ISIP_5,20,9999,9999,9999,154494028
312,5,ISIP_5,21,9999,9999,9999,154993724
312,5,ISIP_5,22,9999,9999,9999,155493492
312,5,ISIP_5,23,9999,9999,9999,155993188
312,5,ISIP_5,24,9999,9999,9999,156493932
312,5,ISIP_5,25,9999,9999,9999,156993628
312,5,ISIP_5,26,9999,9999,9999,157493320
312,5,ISIP_5,27,9999,9999,9999,157994064
312,5,ISIP_5,28,9999,9999,9999,158493764
312,5,ISIP_5,29,9999,9999,9999,158993528
312,5,ISIP_5,30,9999,9999,9999,159493220
312,5,ISIP_5,31,9999,9999,9999,159993968
312,5,ISIP_5,32,9999,9999,9999,160493664
312,5,ISIP_5,33,9999,9999,9999,160993356
312,5,ISIP_5,34,9999,9999,9999,161494092
312,5,ISIP_5,35,9999,9999,9999,161993796
312,5,ISIP_5,36,9999,9999,9999,162493488
312,5,ISIP_5,37,9999,9999,9999,162993256
312,5,ISIP_5,38,9999,9999,9999,163494000
312,5,ISIP_5,39,9999,9999,9999,163993668
312,5,ISIP_5,40,9999,9999,9999,164493432
312,5,ISIP_5,41,9999,9999,9999,164993128
312,5,ISIP_5,42,9999,9999,9999,165493868
312,5,ISIP_5,43,9999,9999,9999,165993560
312,5,ISIP_5,44,9999,9999,9999,166493248
312,5,ISIP_5,45,9999,9999,9999,166993988
312,5,ISIP_5,46,9999,9999,9999,167493752
312,5,ISIP_5,47,9999,9999,9999,167993440
312,5,ISIP_5,48,9999,9999,9999,168493132
312,5,ISIP_5,49,9999,9999,9999,168993868
312,5,ISIP_5,50,9999,9999,9999,169493560
312,5,ISIP_5,51,9999,9999,9999,169993324
312,5,ISIP_5,52,9999,9999,9999,170494060
312,5,ISIP_5,53,9999,9999,9999,170993752
312,5,ISIP_5,54,9999,9999,9999,171493444
312,5,ISIP_5,55,9999,9999,9999,171993208
312,5,ISIP_5,56,9999,9999,9999,172493872
312,5,ISIP_5,57,9999,9999,9999,172993636
312,5,ISIP_5,58,9999,9999,9999,173493328
312,5,ISIP_5,59,9999,9999,9999,173994064
312,5,ISIP_5,60,9999,9999,9999,174493756
312,5,ISIP_5,61,9999,9999,9999,174993496
312,5,ISIP_5,62,9999,9999,9999,175493188
312,5,ISIP_5,63,9999,9999,9999,175993924
312,5,ISIP_5,64,9999,9999,9999,176493616
312,5,ISIP_5,65,9999,9999,9999,176993380
312,5,ISIP_5,66,9999,9999,9999,177494120
312,5,ISIP_5,67,9999,9999,9999,177993812
312,5,ISIP_5,68,9999,9999,9999,178493500
312,5,ISIP_5,69,9999,9999,9999,178993268
312,5,ISIP_5,70,9999,9999,9999,179494004
312,5,ISIP_5,71,9999,9999,9999,179993696
312,5,ISIP_5,72,9999,9999,9999,180493388
312,5,ISIP_5,73,9999,9999,9999,180993080
312,5,ISIP_5,74,9999,9999,9999,181493816
312,5,ISIP_5,75,9999,9999,9999,181993580
312,5,ISIP_5,76,9999,9999,9999,182493272
312,5,ISIP_5,77,9999,9999,9999,182994008
312,5,ISIP_5,78,9999,9999,9999,183493700
312,5,ISIP_5,79,9999,9999,9999,183993464
312,5,ISIP_5,80,9999,9999,9999,184493156
312,5,ISIP_5,81,9999,9999,9999,184993892
312,5,ISIP_5,82,9999,9999,9999,185493556
312,5,ISIP_5,83,9999,9999,9999,185993320
312,5,ISIP_5,84,9999,9999,9999,186494056
312,5,ISIP_5,85,9999,9999,9999,186993748
312,5,ISIP_5,86,9999,9999,9999,187493436
312,5,ISIP_5,87,9999,9999,9999,187993204
312,5,ISIP_5,88,9999,9999,9999,188493940
312,5,ISIP_5,89,9999,9999,9999,188993628
312,5,ISIP_5,90,9999,9999,9999,189493320
312,5,ISIP_5,91,9999,9999,9999,189994060
312,5,ISIP_5,92,9999,9999,9999,190493748
312,5,ISIP_5,93,9999,9999,9999,190993516
312,5,ISIP_5,94,9999,9999,9999,191493204
312,5,ISIP_5,95,9999,9999,9999,191993944
312,5,ISIP_5,96,9999,9999,9999,192493636
312,5,ISIP_5,97,9999,9999,9999,192993400
312,5,ISIP_5,98,9999,9999,9999,193494064
312,5,ISIP_5,99,9999,9999,9999,193993832
312,5,ISIP_5,100,9999,9999,9999,194493520
312,5,ISIP_5,101,9999,9999,9999,194993212
312,5,ISIP_5,102,9999,9999,9999,195493948
312,5,ISIP_5,103,9999,9999,9999,195993712
312,5,ISIP_5,104,9999,9999,9999,196493380
312,5,ISIP_5,105,9999,9999,9999,196993144
312,5,ISIP_5,106,9999,9999,9999,197493880
312,5,ISIP_5,107,9999,9999,9999,197993568
312,5,ISIP_5,108,9999,9999,9999,198493260
312,5,ISIP_5,109,9999,9999,9999,198994000
312,5,ISIP_5,110,9999,9999,9999,199493688
312,5,ISIP_5,111,9999,9999,9999,199993456
312,5,ISIP_5,112,9999,9999,9999,200493144
312,5,ISIP_5,113,9999,9999,9999,200993880
312,5,ISIP_5,114,9999,9999,9999,201493572
312,5,ISIP_5,115,9999,9999,9999,201993264
312,5,ISIP_5,116,9999,9999,9999,202494000
312,5,ISIP_5,117,9999,9999,9999,202993764
312,5,ISIP_5,118,9999,9999,9999,203493456
312,5,ISIP_5,119,9999,9999,9999,203993148
312,5,ISIP_5,120,9999,9999,9999,204493884
312,5,ISIP_5,121,9999,9999,9999,204993648
312,5,ISIP_5,122,9999,9999,9999,205493340
312,5,ISIP_5,123,9999,9999,9999,205994076
312,5,ISIP_5,124,9999,9999,9999,206493768
312,5,ISIP_5,125,9999,9999,9999,206993508
312,5,ISIP_5,126,9999,9999,9999,207493200
312,5,ISIP_5,127,9999,9999,9999,207993936
312,5,ISIP_5,128,9999,9999,9999,208493628
312,5,ISIP_5,129,9999,9999,9999,208993392
312,5,ISIP_5,130,9999,9999,9999,209494132
312,5,ISIP_5,131,9999,9999,9999,209993820
312,5,ISIP_5,132,9999,9999,9999,210493512
312,5,ISIP_5,133,9999,9999,9999,210993204
312,5,ISIP_5,134,9999,9999,9999,211493940
312,5,ISIP_5,135,9999,9999,9999,211993704
312,5,ISIP_5,136,9999,9999,9999,212493396
312,5,ISIP_5,137,9999,9999,9999,212993084
312,5,ISIP_5,138,9999,9999,9999,213493824
312,5,ISIP_5,139,9999,9999,9999,213993588
312,5,ISIP_5,140,9999,9999,9999,214493280
312,5,ISIP_5,141,9999,9999,9999,214994016
312,5,ISIP_5,142,9999,9999,9999,215493708
312,5,ISIP_5,143,9999,9999,9999,215993396
312,5,ISIP_5,144,9999,9999,9999,216493164
312,5,ISIP_5,145,9999,9999,9999,216993900
312,5,ISIP_5,146,9999,9999,9999,217493564
312,5,ISIP_5,147,9999,9999,9999,217993332
312,5,ISIP_5,148,9999,9999,9999,218494068
312,5,ISIP_5,149,9999,9999,9999,218993760
312,5,ISIP_5,150,9999,9999,9999,219493448
312,5,ISIP_5,151,9999,9999,9999,219993140
312,5,ISIP_5,152,9999,9999,9999,220493880
312,5,ISIP_5,153,9999,9999,9999,220993608
312,5,ISIP_5,154,9999,9999,9999,221493352
312,5,ISIP_5,155,9999,9999,9999,221994088
312,5,ISIP_5,156,9999,9999,9999,222493764
312,5,ISIP_5,157,9999,9999,9999,222993472
312,5,ISIP_5,158,9999,9999,9999,223493236
312,5,ISIP_5,159,9999,9999,9999,223993976
313,11,Pattern_Practice,0,1,48,16,324904556
313,11,Pattern_Practice,1,1,48,17,324905124
313,11,Pattern_Practice,2,1,38,17,324906084
313,11,Pattern_Practice,3,1,38,39,324922212
313,11,Pattern_Practice,4,1,48,34,325263224
313,11,Pattern_Practice,5,5,42,127,325406328
313,11,Pattern_Practice,6,1,48,25,325850056
313,11,Pattern_Practice,7,5,42,127,325905740
313,11,Pattern_Practice,8,1,48,22,326157124
313,11,Pattern_Practice,9,5,42,127,326405420
313,11,Pattern_Practice,10,1,48,44,326460528
313,11,Pattern_Practice,11,5,42,127,326906312
313,11,Pattern_Practice,12,1,38,43,327066228
313,11,Pattern_Practice,13,5,42,127,327406004
313,11,Pattern_Practice,14,1,48,21,327883844
313,11,Pattern_Practice,15,5,42,127,327905716
313,11,Pattern_Practice,16,1,48,17,328271316
313,11,Pattern_Practice,17,5,42,127,328406448
313,11,Pattern_Practice,18,1,38,29,328820080
313,11,Pattern_Practice,19,5,42,127,328906152
313,11,Pattern_Practice,20,5,42,127,329406076
313,11,Pattern_Practice,21,1,48,36,329564552
313,11,Pattern_Practice,22,5,42,127,329905620
313,11,Pattern_Practice,23,1,38,38,330016300
313,11,Pattern_Practice,24,1,48,36,330186020
313,11,Pattern_Practice,25,5,42,127,330406192
313,11,Pattern_Practice,26,1,38,43,330515600
313,11,Pattern_Practice,27,1,48,28,330880168
313,11,Pattern_Practice,28,5,42,127,330905956
313,11,Pattern_Practice,29,1,48,17,331228548
313,11,Pattern_Practice,30,5,42,127,331405756
313,11,Pattern_Practice,31,1,48,28,331592308
313,11,Pattern_Practice,32,5,42,127,331906352
313,11,Pattern_Practice,33,1,48,26,332218808
313,11,Pattern_Practice,34,5,42,127,332406192
313,11,Pattern_Practice,35,1,38,44,332541728
313,11,Pattern_Practice,36,5,42,127,332906036
313,11,Pattern_Practice,37,1,38,22,332918212
313,11,Pattern_Practice,38,5,42,127,333405656
313,11,Pattern_Practice,39,1,48,23,333527880
313,11,Pattern_Practice,40,1,48,38,333847344
313,11,Pattern_Practice,41,5,42,127,333906168
313,11,Pattern_Practice,42,1,38,34,334163608
313,11,Pattern_Practice,43,5,42,127,334405848
313,11,Pattern_Practice,44,1,48,20,334806572
313,11,Pattern_Practice,45,5,42,127,334905768
313,11,Pattern_Practice,46,1,48,30,335115428
313,11,Pattern_Practice,47,5,42,127,335405388
313,11,Pattern_Practice,48,1,38,32,335446208
313,11,Pattern_Practice,49,5,42,127,335906128
313,11,Pattern_Practice,50,1,48,36,336078096
313,11,Pattern_Practice,51,1,48,35,336393296
313,11,Pattern_Practice,52,5,42,127,336405964
313,11,Pattern_Practice,53,1,38,42,336694748
313,11,Pattern_Practice,54,5,42,127,336905716
313,11,Pattern_Practice,55,1,48,19,337332164
313,11,Pattern_Practice,56,5,42,127,337406324
313,11,Pattern_Practice,57,1,48,35,337611860
313,11,Pattern_Practice,58,5,42,127,337906080
313,11,Pattern_Practice,59,1,38,44,337946676
313,11,Pattern_Practice,60,5,42,127,338405852
313,11,Pattern_Practice,61,1,48,33,338536728
313,11,Pattern_Practice,62,1,38,40,338853596
313,11,Pattern_Practice,63,5,42,127,338905688
313,11,Pattern_Practice,64,1,48,31,339146300
313,11,Pattern_Practice,65,5,42,127,339406192
313,11,Pattern_Practice,66,1,38,35,339431228
313,11,Pattern_Practice,67,1,48,28,339717784
313,11,Pattern_Practice,68,5,42,127,339905940
313,11,Pattern_Practice,69,1,48,18,340073544
313,11,Pattern_Practice,70,1,38,36,340359724
313,11,Pattern_Practice,71,5,42,127,340405632
313,11,Pattern_Practice,72,5,42,127,340906600
313,11,Pattern_Practice,73,1,48,31,341004644
313,11,Pattern_Practice,74,5,42,127,341406000
313,11,Pattern_Practice,75,1,48,21,341503440
313,11,Pattern_Practice,76,5,42,127,341905768
313,11,Pattern_Practice,77,1,38,29,341920112
313,11,Pattern_Practice,78,5,42,127,342405588
313,11,Pattern_Practice,79,1,48,24,342552944
313,11,Pattern_Practice,80,5,42,127,342906332
313,11,Pattern_Practice,81,1,38,41,342921868
313,11,Pattern_Practice,82,1,48,39,343392376
313,11,Pattern_Practice,83,5,42,127,343405944
313,11,Pattern_Practice,84,1,48,17,343493820
313,11,Pattern_Practice,85,1,38,41,343827048
313,11,Pattern_Practice,86,5,42,127,343905544
313,11,Pattern_Practice,87,5,42,127,344406368
313,11,Pattern_Practice,88,1,48,23,344812172
313,11,Pattern_Practice,89,5,42,127,344906208
313,11,Pattern_Practice,90,1,48,38,345258388
313,11,Pattern_Practice,91,5,42,127,345405904
313,11,Pattern_Practice,92,1,48,16,345706972
313,11,Pattern_Practice,93,5,42,127,345905452
313,11,Pattern_Practice,94,1,48,38,346313720
313,11,Pattern_Practice,95,5,42,127,346406356
313,11,Pattern_Practice,96,1,48,28,346735380
313,11,Pattern_Practice,97,5,42,127,346906112
313,11,Pattern_Practice,98,1,48,39,346917608
313,11,Pattern_Practice,99,1,48,18,347160780
313,11,Pattern_Practice,100,1,48,33,347326232
313,11,Pattern_Practice,101,5,42,127,347405776
313,11,Pattern_Practice,102,1,48,21,347634348
313,11,Pattern_Practice,103,1,48,39,347754828
313,11,Pattern_Practice,104,5,42,127,347906340
313,11,Pattern_Practice,105,1,48,23,348107768
313,11,Pattern_Practice,106,1,48,40,348231912
313,11,Pattern_Practice,107,5,42,127,348406084
313,11,Pattern_Practice,108,1,38,31,348712380
313,11,Pattern_Practice,109,1,48,44,348814180
313,11,Pattern_Practice,110,5,42,127,348905920
313,11,Pattern_Practice,111,1,38,29,349189616
313,11,Pattern_Practice,112,1,48,37,349336676
313,11,Pattern_Practice,113,5,42,127,349405520
313,11,Pattern_Practice,114,1,38,35,349652560
313,11,Pattern_Practice,115,1,48,43,349794360
313,11,Pattern_Practice,116,5,42,127,349906148
313,11,Pattern_Practice,117,1,38,41,350146928
313,11,Pattern_Practice,118,5,42,127,350406288
313,11,Pattern_Practice,119,1,38,35,350573888
313,11,Pattern_Practice,120,1,38,34,350873108
313,11,Pattern_Practice,121,5,42,127,350905604
313,11,Pattern_Practice,122,1,48,31,351090464
313,11,Pattern_Practice,123,1,38,27,351249040
313,11,Pattern_Practice,124,5,42,127,351405336
313,11,Pattern_Practice,125,1,48,29,351419372
313,11,Pattern_Practice,126,1,38,35,351622652
313,11,Pattern_Practice,127,1,48,35,351839496
313,11,Pattern_Practice,128,5,42,127,351906120
313,11,Pattern_Practice,129,1,38,29,352112976
313,11,Pattern_Practice,130,5,42,127,352405948
313,11,Pattern_Practice,131,1,48,16,352464792
313,11,Pattern_Practice,132,1,48,23,352694948
313,11,Pattern_Practice,133,5,42,127,352905524
313,11,Pattern_Practice,134,1,48,40,353081748
313,11,Pattern_Practice,135,5,42,127,353406264
313,11,Pattern_Practice,136,1,38,41,353477400
313,11,Pattern_Practice,137,5,42,127,353906032
313,11,Pattern_Practice,138,1,48,33,354122800
313,11,Pattern_Practice,139,1,38,38,354276888
313,11,Pattern_Practice,140,5,42,127,354406076
313,11,Pattern_Practice,141,1,48,35,354589940
313,11,Pattern_Practice,142,1,38,26,354708416
313,11,Pattern_Practice,143,5,42,127,354905308
313,11,Pattern_Practice,144,1,48,36,354994468
313,11,Pattern_Practice,145,1,48,19,355130432
313,11,Pattern_Practice,146,5,42,127,355406100
313,11,Pattern_Practice,147,1,48,28,355797396
313,11,Pattern_Practice,148,1,38,50,355800668
313,11,Pattern_Practice,149,5,42,127,355905820
313,11,Pattern_Practice,150,1,48,32,356078908
313,11,Pattern_Practice,151,1,38,34,356207988
313,11,Pattern_Practice,152,5,42,127,356405864
313,11,Pattern_Practice,153,1,48,48,356507000
313,11,Pattern_Practice,154,1,48,29,356587088
313,11,Pattern_Practice,155,1,38,46,356626484
313,11,Pattern_Practice,156,1,38,26,356680916
313,11,Pattern_Practice,157,5,42,127,356906456
313,11,Pattern_Practice,158,1,48,39,357385788
313,11,Pattern_Practice,159,5,42,127,357406020
313,11,Pattern_Practice,160,1,38,37,357483248
313,11,Pattern_Practice,161,1,48,36,357757608
313,11,Pattern_Practice,162,1,38,43,357879832
313,11,Pattern_Practice,163,5,42,127,357905892
313,11,Pattern_Practice,164,1,48,39,358242400
313,11,Pattern_Practice,165,1,48,20,358325944
313,11,Pattern_Practice,166,5,42,127,358405416
313,11,Pattern_Practice,167,1,48,24,358903208
313,11,Pattern_Practice,168,5,42,127,358906232
313,11,Pattern_Practice,169,1,48,46,359032376
313,11,Pattern_Practice,170,1,48,26,359247204
313,11,Pattern_Practice,171,5,42,127,359405888
313,11,Pattern_Practice,172,1,48,48,359427484
313,11,Pattern_Practice,173,1,38,40,359757348
313,11,Pattern_Practice,174,5,42,127,359905560
313,11,Pattern_Practice,175,5,42,127,360406256
313,11,Pattern_Practice,176,1,48,37,360407220
313,11,Pattern_Practice,177,1,48,35,360500972
313,11,Pattern_Practice,178,1,48,42,360812356
313,11,Pattern_Practice,179,1,48,27,360883272
313,11,Pattern_Practice,180,5,42,127,360906040
313,11,Pattern_Practice,181,1,38,46,361286596
313,11,Pattern_Practice,182,5,42,127,361405796
313,11,Pattern_Practice,183,5,42,127,361905584
313,11,Pattern_Practice,184,1,48,41,362159076
313,11,Pattern_Practice,185,1,48,28,362319644
313,11,Pattern_Practice,186,5,42,127,362406540
313,11,Pattern_Practice,187,1,48,30,362470084
313,11,Pattern_Practice,188,1,48,22,362705324
313,11,Pattern_Practice,189,1,48,44,362817580
313,11,Pattern_Practice,190,5,42,127,362905896
313,11,Pattern_Practice,191,1,48,22,363122996
313,11,Pattern_Practice,192,1,48,42,363289800
313,11,Pattern_Practice,193,5,42,127,363405700
313,11,Pattern_Practice,194,1,38,34,363673104
313,11,Pattern_Practice,195,5,42,127,363906496
313,11,Pattern_Practice,196,1,38,24,364104860
313,11,Pattern_Practice,197,5,42,127,364406112
313,11,Pattern_Practice,198,1,38,36,364513220
313,11,Pattern_Practice,199,5,42,127,364905804
313,11,Pattern_Practice,0,9999,9999,9999,325403744
313,11,Pattern_Practice,1,9999,9999,9999,325903456
313,11,Pattern_Practice,2,9999,9999,9999,326403136
313,11,Pattern_Practice,3,9999,9999,9999,326903876
313,11,Pattern_Practice,4,9999,9999,9999,327403568
313,11,Pattern_Practice,5,9999,9999,9999,327903280
313,11,Pattern_Practice,6,9999,9999,9999,328404080
313,11,Pattern_Practice,7,9999,9999,9999,328903792
313,11,Pattern_Practice,8,9999,9999,9999,329403492
313,11,Pattern_Practice,9,9999,9999,9999,329903184
313,11,Pattern_Practice,10,9999,9999,9999,330403904
313,11,Pattern_Practice,11,9999,9999,9999,330903668
313,11,Pattern_Practice,12,9999,9999,9999,331403324
313,11,Pattern_Practice,13,9999,9999,9999,331904064
313,11,Pattern_Practice,14,9999,9999,9999,332403832
313,11,Pattern_Practice,15,9999,9999,9999,332903528
313,11,Pattern_Practice,16,9999,9999,9999,333403224
313,11,Pattern_Practice,17,9999,9999,9999,333903956
313,11,Pattern_Practice,18,9999,9999,9999,334403636
313,11,Pattern_Practice,19,9999,9999,9999,334903404
313,11,Pattern_Practice,20,9999,9999,9999,335403100
313,11,Pattern_Practice,21,9999,9999,9999,335903840
313,11,Pattern_Practice,22,9999,9999,9999,336403532
313,11,Pattern_Practice,23,9999,9999,9999,336903284
313,11,Pattern_Practice,24,9999,9999,9999,337403964
313,11,Pattern_Practice,25,9999,9999,9999,337903716
313,11,Pattern_Practice,26,9999,9999,9999,338403416
313,11,Pattern_Practice,27,9999,9999,9999,338903104
313,11,Pattern_Practice,28,9999,9999,9999,339403832
313,11,Pattern_Practice,29,9999,9999,9999,339903580
313,11,Pattern_Practice,30,9999,9999,9999,340403268
313,11,Pattern_Practice,31,9999,9999,9999,340904016
313,11,Pattern_Practice,32,9999,9999,9999,341403712
313,11,Pattern_Practice,33,9999,9999,9999,341903408
313,11,Pattern_Practice,34,9999,9999,9999,342403156
313,11,Pattern_Practice,35,9999,9999,9999,342903896
313,11,Pattern_Practice,36,9999,9999,9999,343403584
313,11,Pattern_Practice,37,9999,9999,9999,343903332
313,11,Pattern_Practice,38,9999,9999,9999,344404080
313,11,Pattern_Practice,39,9999,9999,9999,344903732
313,11,Pattern_Practice,40,9999,9999,9999,345403468
313,11,Pattern_Practice,41,9999,9999,9999,345903164
313,11,Pattern_Practice,42,9999,9999,9999,346403920
313,11,Pattern_Practice,43,9999,9999,9999,346903600
313,11,Pattern_Practice,44,9999,9999,9999,347403344
313,11,Pattern_Practice,45,9999,9999,9999,347904048
313,11,Pattern_Practice,46,9999,9999,9999,348403796
313,11,Pattern_Practice,47,9999,9999,9999,348903484
313,11,Pattern_Practice,48,9999,9999,9999,349403232
313,11,Pattern_Practice,49,9999,9999,9999,349903936
313,11,Pattern_Practice,50,9999,9999,9999,350403704
313,11,Pattern_Practice,51,9999,9999,9999,350903392
313,11,Pattern_Practice,52,9999,9999,9999,351403124
313,11,Pattern_Practice,53,9999,9999,9999,351903836
313,11,Pattern_Practice,54,9999,9999,9999,352403516
313,11,Pattern_Practice,55,9999,9999,9999,352903236
313,11,Pattern_Practice,56,9999,9999,9999,353403976
313,11,Pattern_Practice,57,9999,9999,9999,353903672
313,11,Pattern_Practice,58,9999,9999,9999,354403420
313,11,Pattern_Practice,59,9999,9999,9999,354903096
313,11,Pattern_Practice,60,9999,9999,9999,355403888
313,11,Pattern_Practice,61,9999,9999,9999,355903608
313,11,Pattern_Practice,62,9999,9999,9999,356403284
313,11,Pattern_Practice,63,9999,9999,9999,356904020
313,11,Pattern_Practice,64,9999,9999,9999,357403732
313,11,Pattern_Practice,65,9999,9999,9999,357903456
313,11,Pattern_Practice,66,9999,9999,9999,358403128
313,11,Pattern_Practice,67,9999,9999,9999,358903872
313,11,Pattern_Practice,68,9999,9999,9999,359403604
313,11,Pattern_Practice,69,9999,9999,9999,359903348
313,11,Pattern_Practice,70,9999,9999,9999,360404036
313,11,Pattern_Practice,71,9999,9999,9999,360903756
313,11,Pattern_Practice,72,9999,9999,9999,361403508
313,11,Pattern_Practice,73,9999,9999,9999,361903224
313,11,Pattern_Practice,74,9999,9999,9999,362403960
313,11,Pattern_Practice,75,9999,9999,9999,362903608
313,11,Pattern_Practice,76,9999,9999,9999,363403320
313,11,Pattern_Practice,77,9999,9999,9999,363904056
313,11,Pattern_Practice,78,9999,9999,9999,364403824
313,11,Pattern_Practice,79,9999,9999,9999,364903520
314,13,Improv_Metronome,0,1,38,18,388831168
314,13,Improv_Metronome,1,1,38,23,389191704
314,13,Improv_Metronome,2,5,42,127,389228908
314,13,Improv_Metronome,3,5,42,127,389728684
314,13,Improv_Metronome,4,5,42,127,390229300
314,13,Improv_Metronome,5,1,38,25,390250216
314,13,Improv_Metronome,6,5,42,127,390729216
314,13,Improv_Metronome,7,1,38,32,390732408
314,13,Improv_Metronome,8,1,38,33,391220496
314,13,Improv_Metronome,9,5,42,127,391228756
314,13,Improv_Metronome,10,1,38,35,391706952
314,13,Improv_Metronome,11,5,42,127,391728376
314,13,Improv_Metronome,12,5,42,127,392229348
314,13,Improv_Metronome,13,1,38,35,392235756
314,13,Improv_Metronome,14,5,42,127,392729116
314,13,Improv_Metronome,15,1,38,30,392730008
314,13,Improv_Metronome,16,1,38,23,393181048
314,13,Improv_Metronome,17,5,42,127,393228660
314,13,Improv_Metronome,18,1,38,33,393277388
314,13,Improv_Metronome,19,1,38,29,393649236
314,13,Improv_Metronome,20,1,38,32,393709652
314,13,Improv_Metronome,21,5,42,127,393729356
314,13,Improv_Metronome,22,1,38,26,394136412
314,13,Improv_Metronome,23,1,38,32,394202964
314,13,Improv_Metronome,24,5,42,127,394229028
314,13,Improv_Metronome,25,1,38,27,394618264
314,13,Improv_Metronome,26,5,42,127,394728784
314,13,Improv_Metronome,27,1,38,35,394738556
314,13,Improv_Metronome,28,1,48,41,395139480
314,13,Improv_Metronome,29,1,48,31,395229724
314,13,Improv_Metronome,30,5,42,127,395230916
314,13,Improv_Metronome,31,1,48,42,395601152
314,13,Improv_Metronome,32,1,48,29,395698916
314,13,Improv_Metronome,33,5,42,127,395729316
314,13,Improv_Metronome,34,1,48,40,396086312
314,13,Improv_Metronome,35,1,48,34,396188416
314,13,Improv_Metronome,36,5,42,127,396229064
314,13,Improv_Metronome,37,1,48,37,396624432
314,13,Improv_Metronome,38,5,42,127,396728668
314,13,Improv_Metronome,39,1,48,34,397141480
314,13,Improv_Metronome,40,5,42,127,397229424
314,13,Improv_Metronome,41,1,38,38,397233812
314,13,Improv_Metronome,42,1,48,28,397608824
314,13,Improv_Metronome,43,1,38,37,397695420
314,13,Improv_Metronome,44,5,42,127,397729124
314,13,Improv_Metronome,45,1,48,33,398160840
314,13,Improv_Metronome,46,1,48,37,398220012
314,13,Improv_Metronome,47,5,42,127,398229024
314,13,Improv_Metronome,48,1,48,38,398569940
314,13,Improv_Metronome,49,1,48,35,398674928
314,13,Improv_Metronome,50,5,42,127,398728452
314,13,Improv_Metronome,51,1,38,30,399102672
314,13,Improv_Metronome,52,1,38,36,399176100
314,13,Improv_Metronome,53,5,42,127,399229244
314,13,Improv_Metronome,54,1,38,32,399548116
314,13,Improv_Metronome,55,1,38,40,399638524
314,13,Improv_Metronome,56,5,42,127,399728988
314,13,Improv_Metronome,57,1,48,42,400097680
314,13,Improv_Metronome,58,1,48,38,400171480
314,13,Improv_Metronome,59,5,42,127,400228884
314,13,Improv_Metronome,60,1,48,38,400595256
314,13,Improv_Metronome,61,1,48,35,400638840
314,13,Improv_Metronome,62,5,42,127,400728336
314,13,Improv_Metronome,63,1,38,35,401180348
314,13,Improv_Metronome,64,1,38,35,401229580
314,13,Improv_Metronome,65,5,42,127,401231668
314,13,Improv_Metronome,66,1,38,30,401609112
314,13,Improv_Metronome,67,1,38,37,401681868
314,13,Improv_Metronome,68,5,42,127,401728952
314,13,Improv_Metronome,69,1,48,37,402112148
314,13,Improv_Metronome,70,1,48,29,402177280
314,13,Improv_Metronome,71,5,42,127,402228624
314,13,Improv_Metronome,72,1,48,20,402590808
314,13,Improv_Metronome,73,1,48,22,402626764
314,13,Improv_Metronome,74,5,42,127,402729256
314,13,Improv_Metronome,75,1,38,21,403136252
314,13,Improv_Metronome,76,1,38,24,403227508
314,13,Improv_Metronome,77,5,42,127,403229536
314,13,Improv_Metronome,78,1,38,27,403530964
314,13,Improv_Metronome,79,1,38,28,403663652
314,13,Improv_Metronome,80,5,42,127,403728692
314,13,Improv_Metronome,81,1,48,24,404188632
314,13,Improv_Metronome,82,5,42,127,404228680
314,13,Improv_Metronome,83,1,48,25,404395840
314,13,Improv_Metronome,84,1,38,33,404654348
314,13,Improv_Metronome,85,5,42,127,404729104
314,13,Improv_Metronome,86,1,48,34,405171396
314,13,Improv_Metronome,87,5,42,127,405228948
314,13,Improv_Metronome,88,1,48,24,405372296
314,13,Improv_Metronome,89,1,48,33,405652364
314,13,Improv_Metronome,90,5,42,127,405728620
314,13,Improv_Metronome,91,1,38,30,405918072
314,13,Improv_Metronome,92,5,42,127,406229568
314,13,Improv_Metronome,93,1,48,31,406450524
314,13,Improv_Metronome,94,1,48,40,406544368
314,13,Improv_Metronome,95,5,42,127,406729168
314,13,Improv_Metronome,96,1,48,33,406835876
314,13,Improv_Metronome,97,1,38,41,407104556
314,13,Improv_Metronome,98,5,42,127,407228764
314,13,Improv_Metronome,99,1,48,43,407610684
314,13,Improv_Metronome,100,5,42,127,407728608
314,13,Improv_Metronome,101,1,48,36,407732252
314,13,Improv_Metronome,102,1,48,40,408057248
314,13,Improv_Metronome,103,1,48,23,408124768
314,13,Improv_Metronome,104,5,42,127,408229156
314,13,Improv_Metronome,105,1,38,45,408349036
314,13,Improv_Metronome,106,5,42,127,408728852
314,13,Improv_Metronome,107,1,48,43,408866080
314,13,Improv_Metronome,108,1,48,35,408980148
314,13,Improv_Metronome,109,5,42,127,409228672
314,13,Improv_Metronome,110,1,48,39,409283628
314,13,Improv_Metronome,111,1,38,33,409568832
314,13,Improv_Metronome,112,5,42,127,409729592
314,13,Improv_Metronome,113,1,48,34,410162172
314,13,Improv_Metronome,114,5,42,127,410229152
314,13,Improv_Metronome,115,1,48,34,410247220
314,13,Improv_Metronome,116,1,48,46,410512176
314,13,Improv_Metronome,117,5,42,127,410728812
314,13,Improv_Metronome,118,1,38,42,410827544
314,13,Improv_Metronome,119,5,42,127,411228504
314,13,Improv_Metronome,120,1,48,37,411433896
314,13,Improv_Metronome,121,1,48,40,411726064
314,13,Improv_Metronome,122,5,42,127,411729388
314,13,Improv_Metronome,123,1,38,20,412099052
314,13,Improv_Metronome,124,5,42,127,412228920
314,13,Improv_Metronome,125,5,42,127,412728560
314,13,Improv_Metronome,126,1,38,34,412764960
314,13,Improv_Metronome,127,1,38,13,413044860
314,13,Improv_Metronome,128,1,38,19,413160504
314,13,Improv_Metronome,129,5,42,127,413229348
314,13,Improv_Metronome,130,1,38,33,413361356
314,13,Improv_Metronome,131,1,38,18,413481012
314,13,Improv_Metronome,132,1,38,27,413659404
314,13,Improv_Metronome,133,5,42,127,413729296
314,13,Improv_Metronome,134,1,38,23,413758808
314,13,Improv_Metronome,135,1,38,27,413950440
314,13,Improv_Metronome,136,1,38,24,414065452
314,13,Improv_Metronome,137,5,42,127,414228784
314,13,Improv_Metronome,138,1,38,26,414242828
314,13,Improv_Metronome,139,1,38,22,414336972
314,13,Improv_Metronome,140,1,38,10,414546484
314,13,Improv_Metronome,141,1,38,22,414605356
314,13,Improv_Metronome,142,5,42,127,414728492
314,13,Improv_Metronome,143,1,38,28,414806408
314,13,Improv_Metronome,144,1,38,20,414898264
314,13,Improv_Metronome,145,1,38,23,415085608
314,13,Improv_Metronome,146,1,38,24,415169160
314,13,Improv_Metronome,147,5,42,127,415229404
314,13,Improv_Metronome,148,1,38,32,415284716
314,13,Improv_Metronome,149,1,38,21,415369692
314,13,Improv_Metronome,150,1,38,32,415492412
314,13,Improv_Metronome,151,1,38,21,415596584
314,13,Improv_Metronome,152,1,38,31,415699432
314,13,Improv_Metronome,153,5,42,127,415729160
314,13,Improv_Metronome,154,1,38,22,415822620
314,13,Improv_Metronome,155,1,38,22,415924572
314,13,Improv_Metronome,156,1,38,20,416023132
314,13,Improv_Metronome,157,1,38,30,416134108
314,13,Improv_Metronome,158,5,42,127,416228940
314,13,Improv_Metronome,159,1,38,26,416240492
314,13,Improv_Metronome,160,1,38,18,416347808
314,13,Improv_Metronome,161,1,38,33,416534732
314,13,Improv_Metronome,162,5,42,127,416728428
314,13,Improv_Metronome,163,1,38,32,416734908
314,13,Improv_Metronome,164,1,38,32,417104708
314,13,Improv_Metronome,165,5,42,127,417229144
314,13,Improv_Metronome,166,1,38,23,417436792
314,13,Improv_Metronome,167,1,38,38,417452100
314,13,Improv_Metronome,168,5,42,127,417728892
314,13,Improv_Metronome,169,1,48,44,417822216
314,13,Improv_Metronome,170,1,38,40,418133308
314,13,Improv_Metronome,171,5,42,127,418228568
314,13,Improv_Metronome,172,1,48,22,418558724
314,13,Improv_Metronome,173,5,42,127,418729312
314,13,Improv_Metronome,174,1,38,38,418871328
314,13,Improv_Metronome,175,1,38,35,419198496
314,13,Improv_Metronome,176,5,42,127,419228996
314,13,Improv_Metronome,177,5,42,127,419728700
314,13,Improv_Metronome,178,1,38,38,420128120
314,13,Improv_Metronome,179,5,42,127,420228368
314,13,Improv_Metronome,180,1,38,42,420457324
314,13,Improv_Metronome,181,5,42,127,420729256
314,13,Improv_Metronome,182,1,48,39,420963148
314,13,Improv_Metronome,183,5,42,127,421228804
314,13,Improv_Metronome,184,1,38,41,421242096
314,13,Improv_Metronome,185,1,38,41,421538024
314,13,Improv_Metronome,186,5,42,127,421728848
314,13,Improv_Metronome,187,1,48,38,422102044
314,13,Improv_Metronome,188,5,42,127,422229292
314,13,Improv_Metronome,189,1,38,39,422526092
314,13,Improv_Metronome,190,5,42,127,422729060
314,13,Improv_Metronome,191,1,38,41,422925780
314,13,Improv_Metronome,192,5,42,127,423229052
314,13,Improv_Metronome,193,1,48,27,423643608
314,13,Improv_Metronome,194,5,42,127,423728540
314,13,Improv_Metronome,195,1,38,34,424111516
314,13,Improv_Metronome,196,5,42,127,424229188
314,13,Improv_Metronome,197,1,48,43,424545364
314,13,Improv_Metronome,198,5,42,127,424729032
314,13,Improv_Metronome,199,1,38,37,425017456
314,13,Improv_Metronome,200,5,42,127,425228728
314,13,Improv_Metronome,201,1,48,24,425510788
314,13,Improv_Metronome,202,5,42,127,425729468
314,13,Improv_Metronome,203,1,48,21,425809184
314,13,Improv_Metronome,204,1,48,23,426050556
314,13,Improv_Metronome,205,1,48,25,426130968
314,13,Improv_Metronome,206,5,42,127,426228972
314,13,Improv_Metronome,207,1,48,32,426352212
314,13,Improv_Metronome,208,1,48,23,426436136
314,13,Improv_Metronome,209,1,48,39,426620492
314,13,Improv_Metronome,210,1,48,25,426728696
314,13,Improv_Metronome,211,5,42,127,426730480
314,13,Improv_Metronome,212,1,48,33,426903100
314,13,Improv_Metronome,213,1,48,19,426979752
314,13,Improv_Metronome,214,1,48,38,427138524
314,13,Improv_Metronome,215,5,42,127,427228640
314,13,Improv_Metronome,216,1,48,23,427230488
314,13,Improv_Metronome,217,1,48,39,427364108
314,13,Improv_Metronome,218,1,48,26,427509596
314,13,Improv_Metronome,219,1,48,36,427597316
314,13,Improv_Metronome,220,5,42,127,427729376
314,13,Improv_Metronome,221,1,48,24,427780516
314,13,Improv_Metronome,222,1,48,33,428014712
314,13,Improv_Metronome,223,5,42,127,428228900
314,13,Improv_Metronome,224,1,38,46,428509396
314,13,Improv_Metronome,225,1,38,37,428560832
314,13,Improv_Metronome,226,5,42,127,428728724
314,13,Improv_Metronome,227,5,42,127,429229564
314,13,Improv_Metronome,228,1,38,22,429552536
314,13,Improv_Metronome,229,1,38,29,429657164
314,13,Improv_Metronome,230,5,42,127,429729620
314,13,Improv_Metronome,231,1,38,15,429818000
314,13,Improv_Metronome,232,1,38,23,429849616
314,13,Improv_Metronome,233,1,38,27,429960396
314,13,Improv_Metronome,234,1,38,28,430071296
314,13,Improv_Metronome,235,1,38,26,430176060
314,13,Improv_Metronome,236,5,42,127,430228784
314,13,Improv_Metronome,237,1,38,28,430287236
314,13,Improv_Metronome,238,1,38,27,430375028
314,13,Improv_Metronome,239,1,38,34,430480044
314,13,Improv_Metronome,240,1,38,27,430572396
314,13,Improv_Metronome,241,1,38,30,430675964
314,13,Improv_Metronome,242,5,42,127,430728688
314,13,Improv_Metronome,243,1,38,27,430776372
314,13,Improv_Metronome,244,1,38,31,430855484
314,13,Improv_Metronome,245,1,38,26,431022808
314,13,Improv_Metronome,246,1,38,33,431062656
314,13,Improv_Metronome,247,5,42,127,431229548
314,13,Improv_Metronome,248,1,38,40,431233936
314,13,Improv_Metronome,249,1,48,51,431678340
314,13,Improv_Metronome,250,1,38,43,431694028
314,13,Improv_Metronome,251,5,42,127,431728920
314,13,Improv_Metronome,252,1,48,26,432018892
314,13,Improv_Metronome,253,1,38,34,432022160
314,13,Improv_Metronome,254,5,42,127,432228744
314,13,Improv_Metronome,255,1,38,38,432328380
314,13,Improv_Metronome,256,1,48,36,432337484
314,13,Improv_Metronome,257,5,42,127,432728616
314,13,Improv_Metronome,258,5,42,127,433229308
314,13,Improv_Metronome,259,1,48,34,433548944
314,13,Improv_Metronome,260,5,42,127,433728852
314,13,Improv_Metronome,261,1,48,27,433929388
314,13,Improv_Metronome,262,5,42,127,434228696
314,13,Improv_Metronome,263,1,48,46,434363332
314,13,Improv_Metronome,264,1,48,27,434729068
314,13,Improv_Metronome,265,5,42,127,434730776
314,13,Improv_Metronome,266,1,48,50,435063092
314,13,Improv_Metronome,267,5,42,127,435229036
314,13,Improv_Metronome,268,1,48,38,435364872
314,13,Improv_Metronome,269,1,48,54,435627564
314,13,Improv_Metronome,270,5,42,127,435728712
314,13,Improv_Metronome,271,1,48,24,435822480
314,13,Improv_Metronome,272,1,48,16,436137264
314,13,Improv_Metronome,273,5,42,127,436228400
314,13,Improv_Metronome,274,1,48,42,436363396
314,13,Improv_Metronome,275,1,48,23,436555228
314,13,Improv_Metronome,276,1,48,38,436709312
314,13,Improv_Metronome,277,5,42,127,436729244
314,13,Improv_Metronome,278,1,48,21,436863764
314,13,Improv_Metronome,279,1,48,32,437021820
314,13,Improv_Metronome,280,1,48,20,437163412
314,13,Improv_Metronome,281,5,42,127,437229192
314,13,Improv_Metronome,282,1,48,32,437337836
314,13,Improv_Metronome,283,5,42,127,437728576
314,13,Improv_Metronome,284,1,38,32,437812024
314,13,Improv_Metronome,285,1,48,28,438214612
314,13,Improv_Metronome,286,5,42,127,438229308
314,13,Improv_Metronome,287,1,38,29,438539180
314,13,Improv_Metronome,288,5,42,127,438729212
314,13,Improv_Metronome,289,5,42,127,439229004
314,13,Improv_Metronome,290,1,38,29,439590204
314,13,Improv_Metronome,291,5,42,127,439728624
314,13,Improv_Metronome,292,1,38,19,439964460
314,13,Improv_Metronome,293,5,42,127,440229288
314,13,Improv_Metronome,294,1,48,18,440552644
314,13,Improv_Metronome,295,5,42,127,440729208
314,13,Improv_Metronome,296,1,48,42,440818196
314,13,Improv_Metronome,297,1,38,34,441075128
314,13,Improv_Metronome,298,5,42,127,441228660
314,13,Improv_Metronome,299,1,48,37,441556124
314,13,Improv_Metronome,300,5,42,127,441729452
314,13,Improv_Metronome,301,1,48,20,441742840
314,13,Improv_Metronome,302,1,48,37,442001796
314,13,Improv_Metronome,303,5,42,127,442229124
314,13,Improv_Metronome,304,1,38,40,442286872
314,13,Improv_Metronome,305,5,42,127,442728896
314,13,Improv_Metronome,306,1,38,37,442833612
314,13,Improv_Metronome,307,1,38,31,442974732
314,13,Improv_Metronome,308,1,38,38,443159112
314,13,Improv_Metronome,309,5,42,127,443228560
314,13,Improv_Metronome,310,1,38,33,443339248
314,13,Improv_Metronome,311,1,48,34,443562816
314,13,Improv_Metronome,312,5,42,127,443729340
314,13,Improv_Metronome,313,1,48,32,443832640
314,13,Improv_Metronome,314,5,42,127,444228960
314,13,Improv_Metronome,315,1,38,30,444376244
314,13,Improv_Metronome,316,1,38,37,444512048
314,13,Improv_Metronome,317,1,38,43,444726964
314,13,Improv_Metronome,318,5,42,127,444729296
314,13,Improv_Metronome,319,1,48,43,445017780
314,13,Improv_Metronome,320,5,42,127,445229428
314,13,Improv_Metronome,321,1,38,37,445491744
314,13,Improv_Metronome,322,5,42,127,445729196
314,13,Improv_Metronome,323,1,38,13,446059280
314,13,Improv_Metronome,324,5,42,127,446228744
314,13,Improv_Metronome,325,1,48,37,446256248
314,13,Improv_Metronome,326,1,38,35,446504496
314,13,Improv_Metronome,327,5,42,127,446728788
314,13,Improv_Metronome,328,1,38,32,447054232
314,13,Improv_Metronome,329,5,42,127,447229232
314,13,Improv_Metronome,330,1,38,40,447299596
314,13,Improv_Metronome,331,1,48,27,447588468
314,13,Improv_Metronome,332,5,42,127,447729052
314,13,Improv_Metronome,333,1,38,38,448049860
314,13,Improv_Metronome,334,5,42,127,448228896
314,13,Improv_Metronome,335,1,48,44,448396968
314,13,Improv_Metronome,336,1,38,42,448672152
314,13,Improv_Metronome,337,5,42,127,448728360
314,13,Improv_Metronome,338,1,48,38,448948924
314,13,Improv_Metronome,339,1,38,37,449168380
314,13,Improv_Metronome,340,5,42,127,449229152
314,13,Improv_Metronome,341,1,48,39,449437376
314,13,Improv_Metronome,342,5,42,127,449728756
314,13,Improv_Metronome,343,1,48,36,449737632
314,13,Improv_Metronome,344,1,48,20,450027932
314,13,Improv_Metronome,345,5,42,127,450228584
314,13,Improv_Metronome,346,1,38,34,450299392
314,13,Improv_Metronome,347,5,42,127,450729176
314,13,Improv_Metronome,348,1,38,43,450960528
314,13,Improv_Metronome,349,5,42,127,451228944
314,13,Improv_Metronome,350,1,48,43,451322864
314,13,Improv_Metronome,351,1,38,42,451649964
314,13,Improv_Metronome,352,5,42,127,451728708
314,13,Improv_Metronome,353,5,42,127,452228684
314,13,Improv_Metronome,354,1,38,41,452274360
314,13,Improv_Metronome,355,1,48,26,452556204
314,13,Improv_Metronome,356,5,42,127,452729156
314,13,Improv_Metronome,357,1,38,43,452793484
314,13,Improv_Metronome,358,1,48,43,453064696
314,13,Improv_Metronome,359,5,42,127,453228904
314,13,Improv_Metronome,360,1,38,38,453329880
314,13,Improv_Metronome,361,1,38,33,453600948
314,13,Improv_Metronome,362,5,42,127,453728648
314,13,Improv_Metronome,363,1,48,22,453913104
314,13,Improv_Metronome,364,5,42,127,454229540
314,13,Improv_Metronome,365,5,42,127,454729108
314,13,Improv_Metronome,366,1,38,25,454922388
314,13,Improv_Metronome,367,5,42,127,455228656
314,13,Improv_Metronome,368,1,38,27,455293032
314,13,Improv_Metronome,369,1,38,33,455612892
314,13,Improv_Metronome,370,5,42,127,455728476
314,13,Improv_Metronome,371,5,42,127,456229460
314,13,Improv_Metronome,372,1,48,30,456377336
314,13,Improv_Metronome,373,1,48,20,456510456
314,13,Improv_Metronome,374,1,48,41,456667388
314,13,Improv_Metronome,375,5,42,127,456728828
314,13,Improv_Metronome,376,1,48,32,456853352
314,13,Improv_Metronome,377,1,38,35,457184564
314,13,Improv_Metronome,378,5,42,127,457228580
314,13,Improv_Metronome,379,5,42,127,457729400
314,13,Improv_Metronome,380,1,38,46,457901512
314,13,Improv_Metronome,381,1,48,45,458225836
314,13,Improv_Metronome,382,5,42,127,458229088
314,13,Improv_Metronome,383,1,38,43,458507324
314,13,Improv_Metronome,384,5,42,127,458728768
314,13,Improv_Metronome,385,1,38,40,458838252
314,13,Improv_Metronome,0,9999,9999,9999,389226548
314,13,Improv_Metronome,1,9999,9999,9999,389726324
314,13,Improv_Metronome,2,9999,9999,9999,390227012
314,13,Improv_Metronome,3,9999,9999,9999,390726708
314,13,Improv_Metronome,4,9999,9999,9999,391226468
314,13,Improv_Metronome,5,9999,9999,9999,391726164
314,13,Improv_Metronome,6,9999,9999,9999,392226912
314,13,Improv_Metronome,7,9999,9999,9999,392726608
314,13,Improv_Metronome,8,9999,9999,9999,393226296
314,13,Improv_Metronome,9,9999,9999,9999,393727068
314,13,Improv_Metronome,10,9999,9999,9999,394226744
314,13,Improv_Metronome,11,9999,9999,9999,394726496
314,13,Improv_Metronome,12,9999,9999,9999,395226184
314,13,Improv_Metronome,13,9999,9999,9999,395726956
314,13,Improv_Metronome,14,9999,9999,9999,396226628
314,13,Improv_Metronome,15,9999,9999,9999,396726384
314,13,Improv_Metronome,16,9999,9999,9999,397227064
314,13,Improv_Metronome,17,9999,9999,9999,397726840
314,13,Improv_Metronome,18,9999,9999,9999,398226516
314,13,Improv_Metronome,19,9999,9999,9999,398726240
314,13,Improv_Metronome,20,9999,9999,9999,399226956
314,13,Improv_Metronome,21,9999,9999,9999,399726704
314,13,Improv_Metronome,22,9999,9999,9999,400226376
314,13,Improv_Metronome,23,9999,9999,9999,400726124
314,13,Improv_Metronome,24,9999,9999,9999,401226864
314,13,Improv_Metronome,25,9999,9999,9999,401726516
314,13,Improv_Metronome,26,9999,9999,9999,402226264
314,13,Improv_Metronome,27,9999,9999,9999,402726968
314,13,Improv_Metronome,28,9999,9999,9999,403226736
314,13,Improv_Metronome,29,9999,9999,9999,403726404
314,13,Improv_Metronome,30,9999,9999,9999,404226172
314,13,Improv_Metronome,31,9999,9999,9999,404726892
314,13,Improv_Metronome,32,9999,9999,9999,405226588
314,13,Improv_Metronome,33,9999,9999,9999,405726332
314,13,Improv_Metronome,34,9999,9999,9999,406227060
314,13,Improv_Metronome,35,9999,9999,9999,406726732
314,13,Improv_Metronome,36,9999,9999,9999,407226476
314,13,Improv_Metronome,37,9999,9999,9999,407726172
314,13,Improv_Metronome,38,9999,9999,9999,408226868
314,13,Improv_Metronome,39,9999,9999,9999,408726640
314,13,Improv_Metronome,40,9999,9999,9999,409226312
314,13,Improv_Metronome,41,9999,9999,9999,409727080
314,13,Improv_Metronome,42,9999,9999,9999,410226792
314,13,Improv_Metronome,43,9999,9999,9999,410726524
314,13,Improv_Metronome,44,9999,9999,9999,411226220
314,13,Improv_Metronome,45,9999,9999,9999,411726956
314,13,Improv_Metronome,46,9999,9999,9999,412226632
314,13,Improv_Metronome,47,9999,9999,9999,412726348
314,13,Improv_Metronome,48,9999,9999,9999,413227064
314,13,Improv_Metronome,49,9999,9999,9999,413726788
314,13,Improv_Metronome,50,9999,9999,9999,414226500
314,13,Improv_Metronome,51,9999,9999,9999,414726204
314,13,Improv_Metronome,52,9999,9999,9999,415226968
314,13,Improv_Metronome,53,9999,9999,9999,415726652
314,13,Improv_Metronome,54,9999,9999,9999,416226428
314,13,Improv_Metronome,55,9999,9999,9999,416726140
314,13,Improv_Metronome,56,9999,9999,9999,417226860
314,13,Improv_Metronome,57,9999,9999,9999,417726532
314,13,Improv_Metronome,58,9999,9999,9999,418226280
314,13,Improv_Metronome,59,9999,9999,9999,418727024
314,13,Improv_Metronome,60,9999,9999,9999,419226712
314,13,Improv_Metronome,61,9999,9999,9999,419726412
314,13,Improv_Metronome,62,9999,9999,9999,420226156
314,13,Improv_Metronome,63,9999,9999,9999,420726896
314,13,Improv_Metronome,64,9999,9999,9999,421226592
314,13,Improv_Metronome,65,9999,9999,9999,421726264
314,13,Improv_Metronome,66,9999,9999,9999,422227004
314,13,Improv_Metronome,67,9999,9999,9999,422726776
314,13,Improv_Metronome,68,9999,9999,9999,423226468
314,13,Improv_Metronome,69,9999,9999,9999,423726180
314,13,Improv_Metronome,70,9999,9999,9999,424226904
314,13,Improv_Metronome,71,9999,9999,9999,424726596
314,13,Improv_Metronome,72,9999,9999,9999,425226292
314,13,Improv_Metronome,73,9999,9999,9999,425727032
314,13,Improv_Metronome,74,9999,9999,9999,426226760
314,13,Improv_Metronome,75,9999,9999,9999,426726484
314,13,Improv_Metronome,76,9999,9999,9999,427226204
314,13,Improv_Metronome,77,9999,9999,9999,427726940
314,13,Improv_Metronome,78,9999,9999,9999,428226612
314,13,Improv_Metronome,79,9999,9999,9999,428726364
314,13,Improv_Metronome,80,9999,9999,9999,429227128
314,13,Improv_Metronome,81,9999,9999,9999,429726816
314,13,Improv_Metronome,82,9999,9999,9999,430226496
314,13,Improv_Metronome,83,9999,9999,9999,430726252
314,13,Improv_Metronome,84,9999,9999,9999,431226964
314,13,Improv_Metronome,85,9999,9999,9999,431726708
314,13,Improv_Metronome,86,9999,9999,9999,432226384
314,13,Improv_Metronome,87,9999,9999,9999,432726108
314,13,Improv_Metronome,88,9999,9999,9999,433226872
314,13,Improv_Metronome,89,9999,9999,9999,433726564
314,13,Improv_Metronome,90,9999,9999,9999,434226260
314,13,Improv_Metronome,91,9999,9999,9999,434727004
314,13,Improv_Metronome,92,9999,9999,9999,435226676
314,13,Improv_Metronome,93,9999,9999,9999,435726424
314,13,Improv_Metronome,94,9999,9999,9999,436226112
314,13,Improv_Metronome,95,9999,9999,9999,436726884
314,13,Improv_Metronome,96,9999,9999,9999,437226608
314,13,Improv_Metronome,97,9999,9999,9999,437726288
314,13,Improv_Metronome,98,9999,9999,9999,438227024
314,13,Improv_Metronome,99,9999,9999,9999,438726776
314,13,Improv_Metronome,100,9999,9999,9999,439226492
314,13,Improv_Metronome,101,9999,9999,9999,439726188
314,13,Improv_Metronome,102,9999,9999,9999,440226928
314,13,Improv_Metronome,103,9999,9999,9999,440726624
314,13,Improv_Metronome,104,9999,9999,9999,441226300
314,13,Improv_Metronome,105,9999,9999,9999,441727088
314,13,Improv_Metronome,106,9999,9999,9999,442226764
314,13,Improv_Metronome,107,9999,9999,9999,442726460
314,13,Improv_Metronome,108,9999,9999,9999,443226200
314,13,Improv_Metronome,109,9999,9999,9999,443726904
314,13,Improv_Metronome,110,9999,9999,9999,444226672
314,13,Improv_Metronome,111,9999,9999,9999,444726368
314,13,Improv_Metronome,112,9999,9999,9999,445227068
314,13,Improv_Metronome,113,9999,9999,9999,445726836
314,13,Improv_Metronome,114,9999,9999,9999,446226532
314,13,Improv_Metronome,115,9999,9999,9999,446726204
314,13,Improv_Metronome,116,9999,9999,9999,447226944
314,13,Improv_Metronome,117,9999,9999,9999,447726692
314,13,Improv_Metronome,118,9999,9999,9999,448226384
314,13,Improv_Metronome,119,9999,9999,9999,448726072
314,13,Improv_Metronome,120,9999,9999,9999,449226868
314,13,Improv_Metronome,121,9999,9999,9999,449726544
314,13,Improv_Metronome,122,9999,9999,9999,450226296
314,13,Improv_Metronome,123,9999,9999,9999,450726964
314,13,Improv_Metronome,124,9999,9999,9999,451226732
314,13,Improv_Metronome,125,9999,9999,9999,451726424
314,13,Improv_Metronome,126,9999,9999,9999,452226172
314,13,Improv_Metronome,127,9999,9999,9999,452726868
314,13,Improv_Metronome,128,9999,9999,9999,453226616
314,13,Improv_Metronome,129,9999,9999,9999,453726288
314,13,Improv_Metronome,130,9999,9999,9999,454227032
314,13,Improv_Metronome,131,9999,9999,9999,454726748
314,13,Improv_Metronome,132,9999,9999,9999,455226440
314,13,Improv_Metronome,133,9999,9999,9999,455726188
314,13,Improv_Metronome,134,9999,9999,9999,456226876
314,13,Improv_Metronome,135,9999,9999,9999,456726616
314,13,Improv_Metronome,136,9999,9999,9999,457226292
314,13,Improv_Metronome,137,9999,9999,9999,457727040
314,13,Improv_Metronome,138,9999,9999,9999,458226800
314,13,Improv_Metronome,139,9999,9999,9999,458726480
315,14,Improv_Melody,0,2,48,80,518668576
315,14,Improv_Melody,1,2,72,80,518671096
315,14,Improv_Melody,2,5,42,127,518672808
315,14,Improv_Melody,3,5,42,110,519166396
315,14,Improv_Melody,4,5,42,110,519665896
315,14,Improv_Melody,5,1,38,8,519700804
315,14,Improv_Melody,6,5,42,110,520165596
315,14,Improv_Melody,7,1,38,29,520630716
315,14,Improv_Melody,8,5,42,127,520665608
315,14,Improv_Melody,9,5,42,110,521166136
315,14,Improv_Melody,10,1,38,29,521655788
315,14,Improv_Melody,11,5,42,110,521666000
315,14,Improv_Melody,12,5,42,110,522165560
315,14,Improv_Melody,13,1,38,32,522607464
315,14,Improv_Melody,14,2,43,80,522668976
315,14,Improv_Melody,15,2,67,80,522671132
315,14,Improv_Melody,16,5,42,127,522673736
315,14,Improv_Melody,17,1,38,27,523059008
315,14,Improv_Melody,18,5,42,110,523166168
315,14,Improv_Melody,19,5,42,110,523665740
315,14,Improv_Melody,20,5,42,110,524165684
315,14,Improv_Melody,21,1,38,25,524628540
315,14,Improv_Melody,22,5,42,127,524666644
315,14,Improv_Melody,23,1,38,8,525132576
315,14,Improv_Melody,24,1,38,16,525162024
315,14,Improv_Melody,25,5,42,110,525165876
315,14,Improv_Melody,26,1,38,20,525566208
315,14,Improv_Melody,27,5,42,110,525665560
315,14,Improv_Melody,28,1,38,22,525682440
315,14,Improv_Melody,29,5,42,110,526166460
315,14,Improv_Melody,30,1,48,44,526630084
315,14,Improv_Melody,31,2,45,80,526668524
315,14,Improv_Melody,32,2,69,80,526670908
315,14,Improv_Melody,33,5,42,127,526673512
315,14,Improv_Melody,34,5,42,110,527165816
315,14,Improv_Melody,35,1,48,42,527648068
315,14,Improv_Melody,36,5,42,110,527665532
315,14,Improv_Melody,37,5,42,110,528166284
315,14,Improv_Melody,38,1,48,48,528632528
315,14,Improv_Melody,39,5,42,127,528666300
315,14,Improv_Melody,40,1,48,23,528706660
315,14,Improv_Melody,41,5,42,110,529165612
315,14,Improv_Melody,42,1,48,46,529552568
315,14,Improv_Melody,43,5,42,110,529666508
315,14,Improv_Melody,44,5,42,110,530166152
315,14,Improv_Melody,45,2,41,80,530668384
315,14,Improv_Melody,46,2,65,80,530670684
315,14,Improv_Melody,47,5,42,127,530673144
315,14,Improv_Melody,48,1,38,42,530690848
315,14,Improv_Melody,49,5,42,110,531165440
315,14,Improv_Melody,50,1,38,42,531633256
315,14,Improv_Melody,51,5,42,110,531666200
315,14,Improv_Melody,52,5,42,110,532166056
315,14,Improv_Melody,53,1,38,42,532616968
315,14,Improv_Melody,54,5,42,127,532665700
315,14,Improv_Melody,55,5,42,110,533165404
315,14,Improv_Melody,56,1,38,43,533633888
315,14,Improv_Melody,57,5,42,110,533666092
315,14,Improv_Melody,58,5,42,110,534165948
315,14,Improv_Melody,59,1,48,40,534668332
315,14,Improv_Melody,60,2,48,80,534670040
315,14,Improv_Melody,61,2,72,80,534671816
315,14,Improv_Melody,62,5,42,127,534674348
315,14,Improv_Melody,63,1,48,25,534830868
315,14,Improv_Melody,64,1,48,37,535053472
315,14,Improv_Melody,65,5,42,110,535166536
315,14,Improv_Melody,66,1,38,27,535570152
315,14,Improv_Melody,67,5,42,110,535665988
315,14,Improv_Melody,68,5,42,110,536165784
315,14,Improv_Melody,69,1,48,34,536517588
315,14,Improv_Melody,70,1,48,27,536651600
315,14,Improv_Melody,71,5,42,127,536665404
315,14,Improv_Melody,72,1,48,40,537012632
315,14,Improv_Melody,73,1,48,27,537152032
315,14,Improv_Melody,74,5,42,110,537166056
315,14,Improv_Melody,75,1,38,46,537628996
315,14,Improv_Melody,76,5,42,110,537665980
315,14,Improv_Melody,77,1,38,22,537700728
315,14,Improv_Melody,78,5,42,110,538166036
315,14,Improv_Melody,79,1,48,40,538604228
315,14,Improv_Melody,80,2,43,80,538669008
315,14,Improv_Melody,81,2,67,80,538671164
315,14,Improv_Melody,82,5,42,127,538673768
315,14,Improv_Melody,83,1,48,40,538958292
315,14,Improv_Melody,84,1,48,34,539111400
315,14,Improv_Melody,85,5,42,110,539166120
315,14,Improv_Melody,86,1,38,48,539620156
315,14,Improv_Melody,87,5,42,110,539665672
315,14,Improv_Melody,88,5,42,110,540165452
315,14,Improv_Melody,89,1,48,39,540601700
315,14,Improv_Melody,90,5,42,127,540666212
315,14,Improv_Melody,91,1,48,35,540696316
315,14,Improv_Melody,92,1,48,47,541002844
315,14,Improv_Melody,93,1,48,36,541138980
315,14,Improv_Melody,94,5,42,110,541165868
315,14,Improv_Melody,95,1,38,51,541625660
315,14,Improv_Melody,96,5,42,110,541665640
315,14,Improv_Melody,97,5,42,110,542166400
315,14,Improv_Melody,98,1,38,44,542661508
315,14,Improv_Melody,99,2,45,80,542668848
315,14,Improv_Melody,100,2,69,80,542670840
315,14,Improv_Melody,101,5,42,127,542673528
315,14,Improv_Melody,102,5,42,110,543165756
315,14,Improv_Melody,103,1,38,45,543661692
315,14,Improv_Melody,104,5,42,110,543665400
315,14,Improv_Melody,105,1,38,20,543746448
315,14,Improv_Melody,106,5,42,110,544166280
315,14,Improv_Melody,107,1,38,42,544547156
315,14,Improv_Melody,108,5,42,127,544665832
315,14,Improv_Melody,109,5,42,110,545165628
315,14,Improv_Melody,110,1,38,43,545648376
315,14,Improv_Melody,111,5,42,110,545666392
315,14,Improv_Melody,112,5,42,110,546166368
315,14,Improv_Melody,113,2,41,80,546668220
315,14,Improv_Melody,114,2,65,80,546670300
315,14,Improv_Melody,115,5,42,127,546672608
315,14,Improv_Melody,116,1,48,29,546681044
315,14,Improv_Melody,117,1,48,20,546774468
315,14,Improv_Melody,118,1,48,15,546861660
315,14,Improv_Melody,119,1,48,35,546911752
315,14,Improv_Melody,120,1,48,16,547058208
315,14,Improv_Melody,121,1,48,33,547160512
315,14,Improv_Melody,122,5,42,110,547165412
315,14,Improv_Melody,123,1,48,15,547303552
315,14,Improv_Melody,124,1,48,33,547427620
315,14,Improv_Melody,125,1,48,15,547530172
315,14,Improv_Melody,126,1,48,29,547661640
315,14,Improv_Melody,127,5,42,110,547666316
315,14,Improv_Melody,128,1,48,19,547901696
315,14,Improv_Melody,129,1,48,32,548109488
315,14,Improv_Melody,130,5,42,110,548166144
315,14,Improv_Melody,131,1,48,16,548200964
315,14,Improv_Melody,132,1,48,32,548319676
315,14,Improv_Melody,133,1,48,32,548526496
315,14,Improv_Melody,134,1,48,19,548621688
315,14,Improv_Melody,135,5,42,127,548665708
315,14,Improv_Melody,136,1,48,35,548720196
315,14,Improv_Melody,137,1,48,24,548863140
315,14,Improv_Melody,138,1,48,15,548971348
315,14,Improv_Melody,139,1,48,18,549067616
315,14,Improv_Melody,140,5,42,110,549165400
315,14,Improv_Melody,141,1,48,33,549184372
315,14,Improv_Melody,142,1,48,17,549302112
315,14,Improv_Melody,143,1,48,34,549392600
315,14,Improv_Melody,144,5,42,110,549666252
315,14,Improv_Melody,145,5,42,110,550165828
315,14,Improv_Melody,146,2,48,80,550668208
315,14,Improv_Melody,147,2,72,80,550670280
315,14,Improv_Melody,148,5,42,127,550672968
315,14,Improv_Melody,149,1,48,28,550725980
315,14,Improv_Melody,150,5,42,110,551166312
315,14,Improv_Melody,151,1,48,25,551193216
315,14,Improv_Melody,152,1,48,33,551592144
315,14,Improv_Melody,153,5,42,110,551666152
315,14,Improv_Melody,154,1,48,28,552090420
315,14,Improv_Melody,155,5,42,110,552165928
315,14,Improv_Melody,156,1,38,36,552645992
315,14,Improv_Melody,157,5,42,127,552665404
315,14,Improv_Melody,158,1,38,28,553148616
315,14,Improv_Melody,159,5,42,110,553166152
315,14,Improv_Melody,160,1,38,38,553600664
315,14,Improv_Melody,161,5,42,110,553666076
315,14,Improv_Melody,162,1,38,30,554108048
315,14,Improv_Melody,163,5,42,110,554165752
315,14,Improv_Melody,164,1,48,29,554656812
315,14,Improv_Melody,165,2,43,80,554668852
315,14,Improv_Melody,166,2,67,80,554671080
315,14,Improv_Melody,167,5,42,127,554673620
315,14,Improv_Melody,168,1,48,33,555126960
315,14,Improv_Melody,169,5,42,110,555165912
315,14,Improv_Melody,170,5,42,110,555666068
315,14,Improv_Melody,171,1,48,38,555708464
315,14,Improv_Melody,172,1,48,34,556139600
315,14,Improv_Melody,173,5,42,110,556165464
315,14,Improv_Melody,174,1,38,33,556647824
315,14,Improv_Melody,175,5,42,127,556666184
315,14,Improv_Melody,176,1,38,37,557115328
315,14,Improv_Melody,177,5,42,110,557165860
315,14,Improv_Melody,178,1,38,37,557625356
315,14,Improv_Melody,179,5,42,110,557665784
315,14,Improv_Melody,180,1,38,27,558129916
315,14,Improv_Melody,181,5,42,110,558166532
315,14,Improv_Melody,182,1,38,29,558631560
315,14,Improv_Melody,183,2,45,80,558668664
315,14,Improv_Melody,184,2,69,80,558670812
315,14,Improv_Melody,185,5,42,127,558673500
315,14,Improv_Melody,186,1,38,28,559131804
315,14,Improv_Melody,187,5,42,110,559165796
315,14,Improv_Melody,188,1,38,29,559662912
315,14,Improv_Melody,189,5,42,110,559665796
315,14,Improv_Melody,190,1,38,30,560166028
315,14,Improv_Melody,191,5,42,110,560168116
315,14,Improv_Melody,192,5,42,127,560666024
315,14,Improv_Melody,193,1,48,50,560689420
315,14,Improv_Melody,194,5,42,110,561165652
315,14,Improv_Melody,195,5,42,110,561666572
315,14,Improv_Melody,196,5,42,110,562166140
315,14,Improv_Melody,197,2,41,80,562668444
315,14,Improv_Melody,198,2,65,80,562670516
315,14,Improv_Melody,199,5,42,127,562672980
315,14,Improv_Melody,200,1,38,45,562698468
315,14,Improv_Melody,201,1,38,37,563108684
315,14,Improv_Melody,202,5,42,110,563165716
315,14,Improv_Melody,203,1,38,35,563610632
315,14,Improv_Melody,204,5,42,110,563666464
315,14,Improv_Melody,205,1,38,33,564079336
315,14,Improv_Melody,206,5,42,110,564165940
315,14,Improv_Melody,207,1,48,53,564633584
315,14,Improv_Melody,208,5,42,127,564665640
315,14,Improv_Melody,209,5,42,110,565165496
315,14,Improv_Melody,210,5,42,110,565666112
315,14,Improv_Melody,211,5,42,110,566165836
315,14,Improv_Melody,212,2,48,80,566667836
315,14,Improv_Melody,213,2,72,80,566670288
315,14,Improv_Melody,214,5,42,127,566672676
315,14,Improv_Melody,215,1,48,51,566699064
315,14,Improv_Melody,216,5,42,110,567166392
315,14,Improv_Melody,217,5,42,110,567666088
315,14,Improv_Melody,218,1,48,50,567753380
315,14,Improv_Melody,219,5,42,110,568165788
315,14,Improv_Melody,220,5,42,127,568665436
315,14,Improv_Melody,221,1,48,48,568677908
315,14,Improv_Melody,222,5,42,110,569166260
315,14,Improv_Melody,223,5,42,110,569665832
315,14,Improv_Melody,224,1,48,33,569668880
315,14,Improv_Melody,225,5,42,110,570165684
315,14,Improv_Melody,226,1,48,40,570652196
315,14,Improv_Melody,227,2,43,80,570669028
315,14,Improv_Melody,228,2,67,80,570671184
315,14,Improv_Melody,229,5,42,127,570673716
315,14,Improv_Melody,230,5,42,110,571166216
315,14,Improv_Melody,231,1,48,41,571627004
315,14,Improv_Melody,232,5,42,110,571665636
315,14,Improv_Melody,233,5,42,110,572165340
315,14,Improv_Melody,234,1,48,38,572596124
315,14,Improv_Melody,235,5,42,127,572666252
315,14,Improv_Melody,236,5,42,110,573166032
315,14,Improv_Melody,237,1,48,43,573595548
315,14,Improv_Melody,238,5,42,110,573665524
315,14,Improv_Melody,239,5,42,110,574166284
315,14,Improv_Melody,240,1,48,40,574637088
315,14,Improv_Melody,241,2,45,80,574668420
315,14,Improv_Melody,242,2,69,80,574670796
315,14,Improv_Melody,243,5,42,127,574673188
315,14,Improv_Melody,244,5,42,110,575165936
315,14,Improv_Melody,245,1,38,32,575635772
315,14,Improv_Melody,246,5,42,110,575665428
315,14,Improv_Melody,247,5,42,110,576166108
315,14,Improv_Melody,248,1,48,39,576661296
315,14,Improv_Melody,249,5,42,127,576666048
315,14,Improv_Melody,250,1,38,24,577162420
315,14,Improv_Melody,251,5,42,110,577165968
315,14,Improv_Melody,252,1,38,38,577629852
315,14,Improv_Melody,253,5,42,110,577666348
315,14,Improv_Melody,254,5,42,110,578166100
315,14,Improv_Melody,255,1,48,31,578648872
315,14,Improv_Melody,256,2,41,80,578668624
315,14,Improv_Melody,257,2,65,80,578670624
315,14,Improv_Melody,258,5,42,127,578673156
315,14,Improv_Melody,259,5,42,110,579165756
315,14,Improv_Melody,260,1,38,40,579184812
315,14,Improv_Melody,261,1,38,32,579652324
315,14,Improv_Melody,262,5,42,110,579666424
315,14,Improv_Melody,263,5,42,110,580166128
315,14,Improv_Melody,264,1,48,46,580636864
315,14,Improv_Melody,265,5,42,127,580665920
315,14,Improv_Melody,266,1,38,43,581094296
315,14,Improv_Melody,267,5,42,110,581165472
315,14,Improv_Melody,268,1,38,46,581627436
315,14,Improv_Melody,269,5,42,110,581666144
315,14,Improv_Melody,270,1,38,31,581691840
315,14,Improv_Melody,271,5,42,110,582165904
315,14,Improv_Melody,272,2,48,80,582668052
315,14,Improv_Melody,273,2,72,80,582670360
315,14,Improv_Melody,274,5,42,127,582672820
315,14,Improv_Melody,275,1,38,49,582694188
315,14,Improv_Melody,276,1,38,25,582764176
315,14,Improv_Melody,277,5,42,110,583166212
315,14,Improv_Melody,278,1,38,48,583663344
315,14,Improv_Melody,279,5,42,110,583666000
315,14,Improv_Melody,280,5,42,110,584165708
315,14,Improv_Melody,281,1,38,51,584656480
315,14,Improv_Melody,282,5,42,127,584665648
315,14,Improv_Melody,283,1,38,47,585108616
315,14,Improv_Melody,284,5,42,110,585166616
315,14,Improv_Melody,285,1,38,50,585618408
315,14,Improv_Melody,286,5,42,110,585666016
315,14,Improv_Melody,287,5,42,110,586165800
315,14,Improv_Melody,288,2,43,80,586669156
315,14,Improv_Melody,289,2,67,80,586671156
315,14,Improv_Melody,290,5,42,127,586673836
315,14,Improv_Melody,291,1,38,54,586708300
315,14,Improv_Melody,292,1,38,38,586744852
315,14,Improv_Melody,293,5,42,110,587165960
315,14,Improv_Melody,294,1,38,57,587662496
315,14,Improv_Melody,295,5,42,110,587665676
315,14,Improv_Melody,296,5,42,110,588165604
315,14,Improv_Melody,297,1,38,57,588619184
315,14,Improv_Melody,298,5,42,127,588666516
315,14,Improv_Melody,299,1,38,47,589100928
315,14,Improv_Melody,300,5,42,110,589165896
315,14,Improv_Melody,301,1,38,52,589636984
315,14,Improv_Melody,302,5,42,110,589665592
315,14,Improv_Melody,303,5,42,110,590166352
315,14,Improv_Melody,304,2,45,80,590668572
315,14,Improv_Melody,305,2,69,80,590670880
315,14,Improv_Melody,306,5,42,127,590673412
315,14,Improv_Melody,307,1,38,24,590734676
315,14,Improv_Melody,308,5,42,110,591165784
315,14,Improv_Melody,309,1,38,44,591181468
315,14,Improv_Melody,310,1,38,35,591655636
315,14,Improv_Melody,311,5,42,110,591665624
315,14,Improv_Melody,312,1,38,57,592149504
315,14,Improv_Melody,313,5,42,110,592166148
315,14,Improv_Melody,314,1,48,41,592654140
315,14,Improv_Melody,315,5,42,127,592666148
315,14,Improv_Melody,316,1,48,34,593125572
315,14,Improv_Melody,317,5,42,110,593165624
315,14,Improv_Melody,318,1,48,34,593652872
315,14,Improv_Melody,319,5,42,110,593666524
315,14,Improv_Melody,320,1,48,40,594163264
315,14,Improv_Melody,321,5,42,110,594166072
315,14,Improv_Melody,322,2,41,80,594668284
315,14,Improv_Melody,323,2,65,80,594670664
315,14,Improv_Melody,324,5,42,127,594673272
315,14,Improv_Melody,325,1,38,49,594676316
315,14,Improv_Melody,326,5,42,110,595165420
315,14,Improv_Melody,327,1,48,40,595644376
315,14,Improv_Melody,328,5,42,110,595666332
315,14,Improv_Melody,329,5,42,110,596166112
315,14,Improv_Melody,330,1,48,39,596557308
315,14,Improv_Melody,331,5,42,127,596665812
315,14,Improv_Melody,332,1,38,48,596702296
315,14,Improv_Melody,333,1,48,36,596971720
315,14,Improv_Melody,334,1,38,41,597140016
315,14,Improv_Melody,335,5,42,110,597165484
315,14,Improv_Melody,336,1,48,43,597496600
315,14,Improv_Melody,337,1,38,40,597630868
315,14,Improv_Melody,338,5,42,110,597666136
315,14,Improv_Melody,339,5,42,110,598165916
315,14,Improv_Melody,340,2,48,80,598668300
315,14,Improv_Melody,341,2,72,80,598670524
315,14,Improv_Melody,342,5,42,127,598673128
315,14,Improv_Melody,343,1,48,22,598681484
315,14,Improv_Melody,344,5,42,110,599166248
315,14,Improv_Melody,345,1,48,29,599171540
315,14,Improv_Melody,346,1,48,33,599648380
315,14,Improv_Melody,0,9999,9999,9999,518663224
315,14,Improv_Melody,1,9999,9999,9999,519163956
315,14,Improv_Melody,2,9999,9999,9999,519663680
315,14,Improv_Melody,3,9999,9999,9999,520163376
315,14,Improv_Melody,4,9999,9999,9999,520663092
315,14,Improv_Melody,5,9999,9999,9999,521163844
315,14,Improv_Melody,6,9999,9999,9999,521663560
315,14,Improv_Melody,7,9999,9999,9999,522163268
315,14,Improv_Melody,8,9999,9999,9999,522664028
315,14,Improv_Melody,9,9999,9999,9999,523163728
315,14,Improv_Melody,10,9999,9999,9999,523663448
315,14,Improv_Melody,11,9999,9999,9999,524163168
315,14,Improv_Melody,12,9999,9999,9999,524663908
315,14,Improv_Melody,13,9999,9999,9999,525163584
315,14,Improv_Melody,14,9999,9999,9999,525663344
315,14,Improv_Melody,15,9999,9999,9999,526164088
315,14,Improv_Melody,16,9999,9999,9999,526663732
315,14,Improv_Melody,17,9999,9999,9999,527163452
315,14,Improv_Melody,18,9999,9999,9999,527663168
315,14,Improv_Melody,19,9999,9999,9999,528163920
315,14,Improv_Melody,20,9999,9999,9999,528663636
315,14,Improv_Melody,21,9999,9999,9999,529163320
315,14,Improv_Melody,22,9999,9999,9999,529664064
315,14,Improv_Melody,23,9999,9999,9999,530163788
315,14,Improv_Melody,24,9999,9999,9999,530663508
315,14,Improv_Melody,25,9999,9999,9999,531163220
315,14,Improv_Melody,26,9999,9999,9999,531663984
315,14,Improv_Melody,27,9999,9999,9999,532163692
315,14,Improv_Melody,28,9999,9999,9999,532663408
315,14,Improv_Melody,29,9999,9999,9999,533163112
315,14,Improv_Melody,30,9999,9999,9999,533663800
315,14,Improv_Melody,31,9999,9999,9999,534163508
315,14,Improv_Melody,32,9999,9999,9999,534663228
315,14,Improv_Melody,33,9999,9999,9999,535163996
315,14,Improv_Melody,34,9999,9999,9999,535663696
315,14,Improv_Melody,35,9999,9999,9999,536163420
315,14,Improv_Melody,36,9999,9999,9999,536663112
315,14,Improv_Melody,37,9999,9999,9999,537163840
315,14,Improv_Melody,38,9999,9999,9999,537663540
315,14,Improv_Melody,39,9999,9999,9999,538163300
315,14,Improv_Melody,40,9999,9999,9999,538663984
315,14,Improv_Melody,41,9999,9999,9999,539163752
315,14,Improv_Melody,42,9999,9999,9999,539663452
315,14,Improv_Melody,43,9999,9999,9999,540163160
315,14,Improv_Melody,44,9999,9999,9999,540663920
315,14,Improv_Melody,45,9999,9999,9999,541163576
315,14,Improv_Melody,46,9999,9999,9999,541663352
315,14,Improv_Melody,47,9999,9999,9999,542164032
315,14,Improv_Melody,48,9999,9999,9999,542663744
315,14,Improv_Melody,49,9999,9999,9999,543163464
315,14,Improv_Melody,50,9999,9999,9999,543663180
315,14,Improv_Melody,51,9999,9999,9999,544163912
315,14,Improv_Melody,52,9999,9999,9999,544663616
315,14,Improv_Melody,53,9999,9999,9999,545163336
315,14,Improv_Melody,54,9999,9999,9999,545664096
315,14,Improv_Melody,55,9999,9999,9999,546163780
315,14,Improv_Melody,56,9999,9999,9999,546663500
315,14,Improv_Melody,57,9999,9999,9999,547163192
315,14,Improv_Melody,58,9999,9999,9999,547663952
315,14,Improv_Melody,59,9999,9999,9999,548163704
315,14,Improv_Melody,60,9999,9999,9999,548663416
315,14,Improv_Melody,61,9999,9999,9999,549163108
315,14,Improv_Melody,62,9999,9999,9999,549663812
315,14,Improv_Melody,63,9999,9999,9999,550163536
315,14,Improv_Melody,64,9999,9999,9999,550663260
315,14,Improv_Melody,65,9999,9999,9999,551164020
315,14,Improv_Melody,66,9999,9999,9999,551663712
315,14,Improv_Melody,67,9999,9999,9999,552163412
315,14,Improv_Melody,68,9999,9999,9999,552663112
315,14,Improv_Melody,69,9999,9999,9999,553163860
315,14,Improv_Melody,70,9999,9999,9999,553663560
315,14,Improv_Melody,71,9999,9999,9999,554163312
315,14,Improv_Melody,72,9999,9999,9999,554664056
315,14,Improv_Melody,73,9999,9999,9999,555163696
315,14,Improv_Melody,74,9999,9999,9999,555663476
315,14,Improv_Melody,75,9999,9999,9999,556163172
315,14,Improv_Melody,76,9999,9999,9999,556663892
315,14,Improv_Melody,77,9999,9999,9999,557163568
315,14,Improv_Melody,78,9999,9999,9999,557663344
315,14,Improv_Melody,79,9999,9999,9999,558164088
315,14,Improv_Melody,80,9999,9999,9999,558663788
315,14,Improv_Melody,81,9999,9999,9999,559163504
315,14,Improv_Melody,82,9999,9999,9999,559663204
315,14,Improv_Melody,83,9999,9999,9999,560163956
315,14,Improv_Melody,84,9999,9999,9999,560663660
315,14,Improv_Melody,85,9999,9999,9999,561163360
315,14,Improv_Melody,86,9999,9999,9999,561664052
315,14,Improv_Melody,87,9999,9999,9999,562163776
315,14,Improv_Melody,88,9999,9999,9999,562663496
315,14,Improv_Melody,89,9999,9999,9999,563163204
315,14,Improv_Melody,90,9999,9999,9999,563663948
315,14,Improv_Melody,91,9999,9999,9999,564163648
315,14,Improv_Melody,92,9999,9999,9999,564663348
315,14,Improv_Melody,93,9999,9999,9999,565163128
315,14,Improv_Melody,94,9999,9999,9999,565663820
315,14,Improv_Melody,95,9999,9999,9999,566163544
315,14,Improv_Melody,96,9999,9999,9999,566663264
315,14,Improv_Melody,97,9999,9999,9999,567164024
315,14,Improv_Melody,98,9999,9999,9999,567663724
315,14,Improv_Melody,99,9999,9999,9999,568163424
315,14,Improv_Melody,100,9999,9999,9999,568663144
315,14,Improv_Melody,101,9999,9999,9999,569163892
315,14,Improv_Melody,102,9999,9999,9999,569663540
315,14,Improv_Melody,103,9999,9999,9999,570163316
315,14,Improv_Melody,104,9999,9999,9999,570664004
315,14,Improv_Melody,105,9999,9999,9999,571163704
315,14,Improv_Melody,106,9999,9999,9999,571663420
315,14,Improv_Melody,107,9999,9999,9999,572163124
315,14,Improv_Melody,108,9999,9999,9999,572663888
315,14,Improv_Melody,109,9999,9999,9999,573163592
315,14,Improv_Melody,110,9999,9999,9999,573663308
315,14,Improv_Melody,111,9999,9999,9999,574164060
315,14,Improv_Melody,112,9999,9999,9999,574663776
315,14,Improv_Melody,113,9999,9999,9999,575163496
315,14,Improv_Melody,114,9999,9999,9999,575663212
315,14,Improv_Melody,115,9999,9999,9999,576163888
315,14,Improv_Melody,116,9999,9999,9999,576663608
315,14,Improv_Melody,117,9999,9999,9999,577163380
315,14,Improv_Melody,118,9999,9999,9999,577664052
315,14,Improv_Melody,119,9999,9999,9999,578163808
315,14,Improv_Melody,120,9999,9999,9999,578663524
315,14,Improv_Melody,121,9999,9999,9999,579163244
315,14,Improv_Melody,122,9999,9999,9999,579663984
315,14,Improv_Melody,123,9999,9999,9999,580163688
315,14,Improv_Melody,124,9999,9999,9999,580663404
315,14,Improv_Melody,125,9999,9999,9999,581163108
315,14,Improv_Melody,126,9999,9999,9999,581663852
315,14,Improv_Melody,127,9999,9999,9999,582163536
315,14,Improv_Melody,128,9999,9999,9999,582663256
315,14,Improv_Melody,129,9999,9999,9999,583163996
315,14,Improv_Melody,130,9999,9999,9999,583663712
315,14,Improv_Melody,131,9999,9999,9999,584163416
315,14,Improv_Melody,132,9999,9999,9999,584663132
315,14,Improv_Melody,133,9999,9999,9999,585163880
315,14,Improv_Melody,134,9999,9999,9999,585663576
315,14,Improv_Melody,135,9999,9999,9999,586163284
315,14,Improv_Melody,136,9999,9999,9999,586664052
315,14,Improv_Melody,137,9999,9999,9999,587163744
315,14,Improv_Melody,138,9999,9999,9999,587663460
315,14,Improv_Melody,139,9999,9999,9999,588163164
315,14,Improv_Melody,140,9999,9999,9999,588663904
315,14,Improv_Melody,141,9999,9999,9999,589163604
315,14,Improv_Melody,142,9999,9999,9999,589663304
315,14,Improv_Melody,143,9999,9999,9999,590164056
315,14,Improv_Melody,144,9999,9999,9999,590663776
315,14,Improv_Melody,145,9999,9999,9999,591163492
315,14,Improv_Melody,146,9999,9999,9999,591663184
315,14,Improv_Melody,147,9999,9999,9999,592163932
315,14,Improv_Melody,148,9999,9999,9999,592663632
315,14,Improv_Melody,149,9999,9999,9999,593163332
315,14,Improv_Melody,150,9999,9999,9999,593664080
315,14,Improv_Melody,151,9999,9999,9999,594163780
315,14,Improv_Melody,152,9999,9999,9999,594663488
315,14,Improv_Melody,153,9999,9999,9999,595163204
315,14,Improv_Melody,154,9999,9999,9999,595663964
315,14,Improv_Melody,155,9999,9999,9999,596163672
315,14,Improv_Melody,156,9999,9999,9999,596663372
315,14,Improv_Melody,157,9999,9999,9999,597163120
315,14,Improv_Melody,158,9999,9999,9999,597663844
315,14,Improv_Melody,159,9999,9999,9999,598163552
315,14,Improv_Melody,160,9999,9999,9999,598663272
315,14,Improv_Melody,161,9999,9999,9999,599163956
31