pid,taskRunCount,taskID,taskName,i,channel,pitch,velocity,microseconds
30,1,1,Ticks_Pract_5,0,5,42,127,103787996
30,1,1,Ticks_Pract_5,1,5,42,127,104287712
30,1,1,Ticks_Pract_5,2,5,42,127,104788476
30,1,1,Ticks_Pract_5,3,5,42,127,105288044
30,1,1,Ticks_Pract_5,4,5,42,127,105787684
30,1,1,Ticks_Pract_5,5,1,48,16,105792748
30,1,1,Ticks_Pract_5,6,1,48,25,106235104
30,1,1,Ticks_Pract_5,7,5,42,127,106287348
30,1,1,Ticks_Pract_5,8,5,42,127,106788244
30,1,1,Ticks_Pract_5,9,1,48,24,106819592
30,1,1,Ticks_Pract_5,10,5,42,127,107287940
30,1,1,Ticks_Pract_5,11,1,48,26,107301380
30,1,1,Ticks_Pract_5,12,5,42,127,107787708
30,1,1,Ticks_Pract_5,13,1,48,24,107807808
30,1,1,Ticks_Pract_5,14,5,42,127,108288228
30,1,1,Ticks_Pract_5,15,1,48,21,108311460
30,1,1,Ticks_Pract_5,16,5,42,127,108787992
30,1,1,Ticks_Pract_5,17,1,48,25,108792084
30,1,1,Ticks_Pract_5,18,1,48,24,109279720
30,1,1,Ticks_Pract_5,19,5,42,127,109287756
30,1,1,Ticks_Pract_5,20,5,42,127,109787756
30,1,1,Ticks_Pract_5,21,1,48,21,109811664
30,1,1,Ticks_Pract_5,22,5,42,127,110288124
30,1,1,Ticks_Pract_5,23,1,48,21,110304924
30,1,1,Ticks_Pract_5,24,5,42,127,110787816
30,1,1,Ticks_Pract_5,25,1,48,21,110802896
30,1,1,Ticks_Pract_5,26,5,42,127,111287660
30,1,1,Ticks_Pract_5,27,1,48,26,111290928
30,1,1,Ticks_Pract_5,28,1,48,28,111780356
30,1,1,Ticks_Pract_5,29,5,42,127,111788692
30,1,1,Ticks_Pract_5,30,1,48,24,112250284
30,1,1,Ticks_Pract_5,31,5,42,127,112288088
30,1,1,Ticks_Pract_5,32,1,48,21,112778848
30,1,1,Ticks_Pract_5,33,5,42,127,112787784
30,1,1,Ticks_Pract_5,34,5,42,127,113287636
30,1,1,Ticks_Pract_5,35,1,48,21,113305788
30,1,1,Ticks_Pract_5,36,5,42,127,113788300
30,1,1,Ticks_Pract_5,37,1,48,23,113806976
30,1,1,Ticks_Pract_5,38,5,42,127,114287844
30,1,1,Ticks_Pract_5,39,1,48,25,114305768
30,1,1,Ticks_Pract_5,40,1,48,22,114773956
30,1,1,Ticks_Pract_5,41,5,42,127,114787684
30,1,1,Ticks_Pract_5,42,5,42,127,115288504
30,1,1,Ticks_Pract_5,43,1,48,23,115292520
30,1,1,Ticks_Pract_5,44,5,42,127,115788272
30,1,1,Ticks_Pract_5,45,1,48,21,115815024
30,1,1,Ticks_Pract_5,46,1,48,23,116283664
30,1,1,Ticks_Pract_5,47,5,42,127,116287960
30,1,1,Ticks_Pract_5,48,5,42,127,116787440
30,1,1,Ticks_Pract_5,49,1,48,21,116794144
30,1,1,Ticks_Pract_5,50,5,42,127,117288376
30,1,1,Ticks_Pract_5,51,1,48,24,117330192
30,1,1,Ticks_Pract_5,52,5,42,127,117788296
30,1,1,Ticks_Pract_5,53,1,48,19,117826072
30,1,1,Ticks_Pract_5,54,5,42,127,118287696
30,1,1,Ticks_Pract_5,55,1,48,24,118299716
30,1,1,Ticks_Pract_5,56,1,48,27,118771044
30,1,1,Ticks_Pract_5,57,5,42,127,118787460
30,1,1,Ticks_Pract_5,58,5,42,127,119288356
30,1,1,Ticks_Pract_5,59,1,48,27,119325132
30,1,1,Ticks_Pract_5,60,5,42,127,119787752
30,1,1,Ticks_Pract_5,61,1,48,27,119795504
30,1,1,Ticks_Pract_5,62,5,42,127,120287596
30,1,1,Ticks_Pract_5,63,1,48,31,120304472
30,1,1,Ticks_Pract_5,64,1,48,27,120783432
30,1,1,Ticks_Pract_5,65,5,42,127,120788328
30,1,1,Ticks_Pract_5,66,5,42,127,121288252
30,1,1,Ticks_Pract_5,67,1,48,29,121306856
30,1,1,Ticks_Pract_5,68,5,42,127,121787948
30,1,1,Ticks_Pract_5,69,1,48,28,121802436
30,1,1,Ticks_Pract_5,70,1,48,31,122279976
30,1,1,Ticks_Pract_5,71,5,42,127,122287412
30,1,1,Ticks_Pract_5,72,5,42,127,122788160
30,1,1,Ticks_Pract_5,73,1,48,27,122824112
30,1,1,Ticks_Pract_5,74,5,42,127,123287928
30,1,1,Ticks_Pract_5,75,1,48,25,123304804
30,1,1,Ticks_Pract_5,0,9999,9999,9999,103785556
30,1,1,Ticks_Pract_5,1,9999,9999,9999,104285272
30,1,1,Ticks_Pract_5,2,9999,9999,9999,104786036
30,1,1,Ticks_Pract_5,3,9999,9999,9999,105285752
30,1,1,Ticks_Pract_5,4,9999,9999,9999,105785396
30,1,1,Ticks_Pract_5,5,9999,9999,9999,106285132
30,1,1,Ticks_Pract_5,6,9999,9999,9999,106785880
30,1,1,Ticks_Pract_5,7,9999,9999,9999,107285576
30,1,1,Ticks_Pract_5,8,9999,9999,9999,107785268
30,1,1,Ticks_Pract_5,9,9999,9999,9999,108286012
30,1,1,Ticks_Pract_5,10,9999,9999,9999,108785776
30,1,1,Ticks_Pract_5,11,9999,9999,9999,109285468
30,1,1,Ticks_Pract_5,12,9999,9999,9999,109785168
30,1,1,Ticks_Pract_5,13,9999,9999,9999,110285908
30,1,1,Ticks_Pract_5,14,9999,9999,9999,110785600
30,1,1,Ticks_Pract_5,15,9999,9999,9999,111285368
30,1,1,Ticks_Pract_5,16,9999,9999,9999,111786104
30,1,1,Ticks_Pract_5,17,9999,9999,9999,112285800
30,1,1,Ticks_Pract_5,18,9999,9999,9999,112785492
30,1,1,Ticks_Pract_5,19,9999,9999,9999,113285196
30,1,1,Ticks_Pract_5,20,9999,9999,9999,113785936
30,1,1,Ticks_Pract_5,21,9999,9999,9999,114285632
30,1,1,Ticks_Pract_5,22,9999,9999,9999,114785392
30,1,1,Ticks_Pract_5,23,9999,9999,9999,115286068
30,1,1,Ticks_Pract_5,24,9999,9999,9999,115785836
30,1,1,Ticks_Pract_5,25,9999,9999,9999,116285524
30,1,1,Ticks_Pract_5,26,9999,9999,9999,116785224
30,1,1,Ticks_Pract_5,27,9999,9999,9999,117285940
30,1,1,Ticks_Pract_5,28,9999,9999,9999,117785708
30,1,1,Ticks_Pract_5,29,9999,9999,9999,118285404
30,1,1,Ticks_Pract_5,30,9999,9999,9999,118785092
30,1,1,Ticks_Pract_5,31,9999,9999,9999,119285844
30,1,1,Ticks_Pract_5,32,9999,9999,9999,119785536
30,1,1,Ticks_Pract_5,33,9999,9999,9999,120285304
30,1,1,Ticks_Pract_5,34,9999,9999,9999,120786040
30,1,1,Ticks_Pract_5,35,9999,9999,9999,121285740
30,1,1,Ticks_Pract_5,36,9999,9999,9999,121785436
30,1,1,Ticks_Pract_5,37,9999,9999,9999,122285124
30,1,1,Ticks_Pract_5,38,9999,9999,9999,122785872
30,1,1,Ticks_Pract_5,39,9999,9999,9999,123285564
30,2,0,Ticks_Pract_8,0,5,42,127,131689804
30,2,0,Ticks_Pract_8,1,5,42,127,132489860
30,2,0,Ticks_Pract_8,2,5,42,127,133290292
30,2,0,Ticks_Pract_8,3,5,42,127,134090044
30,2,0,Ticks_Pract_8,4,5,42,127,134889800
30,2,0,Ticks_Pract_8,5,1,48,39,134900396
30,2,0,Ticks_Pract_8,6,5,42,127,135689532
30,2,0,Ticks_Pract_8,7,1,48,29,135718380
30,2,0,Ticks_Pract_8,8,5,42,127,136490460
30,2,0,Ticks_Pract_8,9,1,48,27,136491352
30,2,0,Ticks_Pract_8,10,5,42,127,137290148
30,2,0,Ticks_Pract_8,11,1,48,20,137303884
30,2,0,Ticks_Pract_8,12,5,42,127,138089808
30,2,0,Ticks_Pract_8,13,1,48,21,138115292
30,2,0,Ticks_Pract_8,14,5,42,127,138889540
30,2,0,Ticks_Pract_8,15,1,48,27,138917048
30,2,0,Ticks_Pract_8,16,5,42,127,139690396
30,2,0,Ticks_Pract_8,17,1,48,28,139724256
30,2,0,Ticks_Pract_8,18,5,42,127,140490276
30,2,0,Ticks_Pract_8,19,1,48,33,140501700
30,2,0,Ticks_Pract_8,20,5,42,127,141289788
30,2,0,Ticks_Pract_8,21,1,48,36,141296720
30,2,0,Ticks_Pract_8,22,5,42,127,142089444
30,2,0,Ticks_Pract_8,23,1,48,30,142094132
30,2,0,Ticks_Pract_8,24,1,48,30,142856676
30,2,0,Ticks_Pract_8,25,5,42,127,142890368
30,2,0,Ticks_Pract_8,26,5,42,127,143690280
30,2,0,Ticks_Pract_8,27,1,48,29,143712548
30,2,0,Ticks_Pract_8,28,5,42,127,144489940
30,2,0,Ticks_Pract_8,29,1,48,29,144564936
30,2,0,Ticks_Pract_8,30,1,48,25,145253952
30,2,0,Ticks_Pract_8,31,5,42,127,145289520
30,2,0,Ticks_Pract_8,32,1,48,25,146077620
30,2,0,Ticks_Pract_8,33,5,42,127,146090296
30,2,0,Ticks_Pract_8,34,1,48,31,146884984
30,2,0,Ticks_Pract_8,35,5,42,127,146890032
30,2,0,Ticks_Pract_8,36,5,42,127,147689996
30,2,0,Ticks_Pract_8,37,1,48,29,147747944
30,2,0,Ticks_Pract_8,38,5,42,127,148489432
30,2,0,Ticks_Pract_8,39,1,48,30,148500028
30,2,0,Ticks_Pract_8,40,1,48,31,149249260
30,2,0,Ticks_Pract_8,41,5,42,127,149290280
30,2,0,Ticks_Pract_8,42,1,48,32,150087088
30,2,0,Ticks_Pract_8,43,5,42,127,150090112
30,2,0,Ticks_Pract_8,44,5,42,127,150889928
30,2,0,Ticks_Pract_8,45,1,48,35,150899328
30,2,0,Ticks_Pract_8,46,5,42,127,151689512
30,2,0,Ticks_Pract_8,47,1,48,29,151703544
30,2,0,Ticks_Pract_8,48,5,42,127,152490216
30,2,0,Ticks_Pract_8,49,1,48,29,152515396
30,2,0,Ticks_Pract_8,50,1,48,32,153290248
30,2,0,Ticks_Pract_8,51,5,42,127,153291736
30,2,0,Ticks_Pract_8,52,5,42,127,154089984
30,2,0,Ticks_Pract_8,53,1,48,15,154245340
30,2,0,Ticks_Pract_8,54,5,42,127,154889644
30,2,0,Ticks_Pract_8,55,1,48,34,154946640
30,2,0,Ticks_Pract_8,56,1,48,35,155674676
30,2,0,Ticks_Pract_8,0,9999,9999,9999,131687516
30,2,0,Ticks_Pract_8,1,9999,9999,9999,132487272
30,2,0,Ticks_Pract_8,2,9999,9999,9999,133288000
30,2,0,Ticks_Pract_8,3,9999,9999,9999,134087756
30,2,0,Ticks_Pract_8,4,9999,9999,9999,134887512
30,2,0,Ticks_Pract_8,5,9999,9999,9999,135687244
30,2,0,Ticks_Pract_8,6,9999,9999,9999,136488024
30,2,0,Ticks_Pract_8,7,9999,9999,9999,137287784
30,2,0,Ticks_Pract_8,8,9999,9999,9999,138087520
30,2,0,Ticks_Pract_8,9,9999,9999,9999,138887252
30,2,0,Ticks_Pract_8,10,9999,9999,9999,139688032
30,2,0,Ticks_Pract_8,11,9999,9999,9999,140487768
30,2,0,Ticks_Pract_8,12,9999,9999,9999,141287500
30,2,0,Ticks_Pract_8,13,9999,9999,9999,142087232
30,2,0,Ticks_Pract_8,14,9999,9999,9999,142888004
30,2,0,Ticks_Pract_8,15,9999,9999,9999,143687768
30,2,0,Ticks_Pract_8,16,9999,9999,9999,144487504
30,2,0,Ticks_Pract_8,17,9999,9999,9999,145287232
30,2,0,Ticks_Pract_8,18,9999,9999,9999,146088012
30,2,0,Ticks_Pract_8,19,9999,9999,9999,146887744
30,2,0,Ticks_Pract_8,20,9999,9999,9999,147687484
30,2,0,Ticks_Pract_8,21,9999,9999,9999,148487220
30,2,0,Ticks_Pract_8,22,9999,9999,9999,149287992
30,2,0,Ticks_Pract_8,23,9999,9999,9999,150087752
30,2,0,Ticks_Pract_8,24,9999,9999,9999,150887492
30,2,0,Ticks_Pract_8,25,9999,9999,9999,151687224
30,2,0,Ticks_Pract_8,26,9999,9999,9999,152488004
30,2,0,Ticks_Pract_8,27,9999,9999,9999,153287736
30,2,0,Ticks_Pract_8,28,9999,9999,9999,154087472
30,2,0,Ticks_Pract_8,29,9999,9999,9999,154887280
30,3,4,T1_SMS_5,0,5,42,127,226047720
30,3,4,T1_SMS_5,1,5,42,127,226546916
30,3,4,T1_SMS_5,2,5,42,127,227046784
30,3,4,T1_SMS_5,3,5,42,127,227546348
30,3,4,T1_SMS_5,4,5,42,127,228047260
30,3,4,T1_SMS_5,5,1,48,36,228085752
30,3,4,T1_SMS_5,6,5,42,127,228546808
30,3,4,T1_SMS_5,7,1,48,35,228550972
30,3,4,T1_SMS_5,8,1,48,37,229036064
30,3,4,T1_SMS_5,9,5,42,127,229046572
30,3,4,T1_SMS_5,10,5,42,127,229547468
30,3,4,T1_SMS_5,11,1,48,38,229556272
30,3,4,T1_SMS_5,12,1,48,44,230044124
30,3,4,T1_SMS_5,13,5,42,127,230047376
30,3,4,T1_SMS_5,14,1,48,40,230545648
30,3,4,T1_SMS_5,15,5,42,127,230547600
30,3,4,T1_SMS_5,16,5,42,127,231046552
30,3,4,T1_SMS_5,17,1,48,36,231061264
30,3,4,T1_SMS_5,18,5,42,127,231547220
30,3,4,T1_SMS_5,19,1,48,42,231568592
30,3,4,T1_SMS_5,20,1,48,40,232043732
30,3,4,T1_SMS_5,21,5,42,127,232047060
30,3,4,T1_SMS_5,22,5,42,127,232546540
30,3,4,T1_SMS_5,23,1,48,39,232547876
30,3,4,T1_SMS_5,24,1,48,35,233038412
30,3,4,T1_SMS_5,25,5,42,127,233047348
30,3,4,T1_SMS_5,26,1,48,35,233539004
30,3,4,T1_SMS_5,27,5,42,127,233547416
30,3,4,T1_SMS_5,28,5,42,127,234046968
30,3,4,T1_SMS_5,29,1,48,38,234083968
30,3,4,T1_SMS_5,30,1,48,42,234539964
30,3,4,T1_SMS_5,31,5,42,127,234546508
30,3,4,T1_SMS_5,32,5,42,127,235047380
30,3,4,T1_SMS_5,33,1,48,39,235049020
30,3,4,T1_SMS_5,34,5,42,127,235547048
30,3,4,T1_SMS_5,35,1,48,34,235570240
30,3,4,T1_SMS_5,36,5,42,127,236046892
30,3,4,T1_SMS_5,37,1,48,40,236066240
30,3,4,T1_SMS_5,38,5,42,127,236546292
30,3,4,T1_SMS_5,39,1,48,35,236558832
30,3,4,T1_SMS_5,40,5,42,127,237047108
30,3,4,T1_SMS_5,41,1,48,35,237053364
30,3,4,T1_SMS_5,42,1,48,38,237536664
30,3,4,T1_SMS_5,43,5,42,127,237546944
30,3,4,T1_SMS_5,44,5,42,127,238046572
30,3,4,T1_SMS_5,45,1,48,37,238061880
30,3,4,T1_SMS_5,46,5,42,127,238547240
30,3,4,T1_SMS_5,47,1,48,35,238558288
30,3,4,T1_SMS_5,48,1,48,35,239038288
30,3,4,T1_SMS_5,49,5,42,127,239047076
30,3,4,T1_SMS_5,50,5,42,127,239547152
30,3,4,T1_SMS_5,51,1,48,37,239553184
30,3,4,T1_SMS_5,52,1,48,38,240041196
30,3,4,T1_SMS_5,53,5,42,127,240046392
30,3,4,T1_SMS_5,54,5,42,127,240547144
30,3,4,T1_SMS_5,55,1,48,37,240564248
30,3,4,T1_SMS_5,56,5,42,127,241046836
30,3,4,T1_SMS_5,57,1,48,33,241050776
30,3,4,T1_SMS_5,58,1,48,42,241536468
30,3,4,T1_SMS_5,59,5,42,127,241546820
30,3,4,T1_SMS_5,60,5,42,127,242047420
30,3,4,T1_SMS_5,61,1,48,36,242058916
30,3,4,T1_SMS_5,62,1,48,36,242538552
30,3,4,T1_SMS_5,63,5,42,127,242546960
30,3,4,T1_SMS_5,64,1,48,35,243046960
30,3,4,T1_SMS_5,65,5,42,127,243048452
30,3,4,T1_SMS_5,66,5,42,127,243546656
30,3,4,T1_SMS_5,67,1,48,37,243570796
30,3,4,T1_SMS_5,68,5,42,127,244047548
30,3,4,T1_SMS_5,69,1,48,37,244048440
30,3,4,T1_SMS_5,70,5,42,127,244546872
30,3,4,T1_SMS_5,71,1,48,42,244564276
30,3,4,T1_SMS_5,72,5,42,127,245046640
30,3,4,T1_SMS_5,73,1,48,39,245052452
30,3,4,T1_SMS_5,74,1,48,35,245543224
30,3,4,T1_SMS_5,75,5,42,127,245547524
30,3,4,T1_SMS_5,76,5,42,127,246046976
30,3,4,T1_SMS_5,77,1,48,35,246069716
30,3,4,T1_SMS_5,78,5,42,127,246546748
30,3,4,T1_SMS_5,79,1,48,39,246555848
30,3,4,T1_SMS_5,80,5,42,127,247046664
30,3,4,T1_SMS_5,81,1,48,30,247077536
30,3,4,T1_SMS_5,82,1,48,34,247527244
30,3,4,T1_SMS_5,83,5,42,127,247547180
30,3,4,T1_SMS_5,84,5,42,127,248046880
30,3,4,T1_SMS_5,85,1,48,44,248052612
30,3,4,T1_SMS_5,86,5,42,127,248546648
30,3,4,T1_SMS_5,87,1,48,38,248563976
30,3,4,T1_SMS_5,88,5,42,127,249047316
30,3,4,T1_SMS_5,89,1,48,38,249073468
30,3,4,T1_SMS_5,90,5,42,127,249547008
30,3,4,T1_SMS_5,91,1,48,40,249583332
30,3,4,T1_SMS_5,92,5,42,127,250046852
30,3,4,T1_SMS_5,93,1,48,41,250073232
30,3,4,T1_SMS_5,94,5,42,127,250546620
30,3,4,T1_SMS_5,95,1,48,36,250557892
30,3,4,T1_SMS_5,96,5,42,127,251047436
30,3,4,T1_SMS_5,97,1,48,31,251052276
30,3,4,T1_SMS_5,98,5,42,127,251546908
30,3,4,T1_SMS_5,99,1,48,31,251559448
30,3,4,T1_SMS_5,100,5,42,127,252046604
30,3,4,T1_SMS_5,101,1,48,42,252047568
30,3,4,T1_SMS_5,102,1,48,35,252546376
30,3,4,T1_SMS_5,103,5,42,127,252548084
30,3,4,T1_SMS_5,104,5,42,127,253047340
30,3,4,T1_SMS_5,105,1,48,40,253060032
30,3,4,T1_SMS_5,106,1,48,40,253497328
30,3,4,T1_SMS_5,107,5,42,127,253546732
30,3,4,T1_SMS_5,108,5,42,127,254046508
30,3,4,T1_SMS_5,109,1,48,35,254066080
30,3,4,T1_SMS_5,110,5,42,127,254547248
30,3,4,T1_SMS_5,111,1,48,37,254574076
30,3,4,T1_SMS_5,112,5,42,127,255047168
30,3,4,T1_SMS_5,113,1,48,36,255077740
30,3,4,T1_SMS_5,114,5,42,127,255546640
30,3,4,T1_SMS_5,115,1,48,37,255565684
30,3,4,T1_SMS_5,116,5,42,127,256046412
30,3,4,T1_SMS_5,117,1,48,41,256072264
30,3,4,T1_SMS_5,118,5,42,127,256547276
30,3,4,T1_SMS_5,119,1,48,34,256581236
30,3,4,T1_SMS_5,120,5,42,127,257047120
30,3,4,T1_SMS_5,121,1,48,38,257056820
30,3,4,T1_SMS_5,122,5,42,127,257546516
30,3,4,T1_SMS_5,123,1,48,37,257550004
30,3,4,T1_SMS_5,124,1,48,42,258044444
30,3,4,T1_SMS_5,125,5,42,127,258047472
30,3,4,T1_SMS_5,126,5,42,127,258547100
30,3,4,T1_SMS_5,127,1,48,35,258550588
30,3,4,T1_SMS_5,128,5,42,127,259046720
30,3,4,T1_SMS_5,129,1,48,41,259050284
30,3,4,T1_SMS_5,130,5,42,127,259546340
30,3,4,T1_SMS_5,131,1,48,34,259558880
30,3,4,T1_SMS_5,132,5,42,127,260047232
30,3,4,T1_SMS_5,133,1,48,29,260068972
30,3,4,T1_SMS_5,134,1,48,35,260540972
30,3,4,T1_SMS_5,135,5,42,127,260546920
30,3,4,T1_SMS_5,136,5,42,127,261046844
30,3,4,T1_SMS_5,137,1,48,32,261057596
30,3,4,T1_SMS_5,138,5,42,127,261547360
30,3,4,T1_SMS_5,139,1,48,31,261551824
30,3,4,T1_SMS_5,140,5,42,127,262047204
30,3,4,T1_SMS_5,141,1,48,32,262082036
30,3,4,T1_SMS_5,142,1,48,35,262524864
30,3,4,T1_SMS_5,143,5,42,127,262546820
30,3,4,T1_SMS_5,144,5,42,127,263046672
30,3,4,T1_SMS_5,145,1,48,37,263056144
30,3,4,T1_SMS_5,146,5,42,127,263547116
30,3,4,T1_SMS_5,147,1,48,31,263554496
30,3,4,T1_SMS_5,148,5,42,127,264046812
30,3,4,T1_SMS_5,149,1,48,31,264063020
30,3,4,T1_SMS_5,150,5,42,127,264546876
30,3,4,T1_SMS_5,151,1,48,29,264573036
30,3,4,T1_SMS_5,152,5,42,127,265047320
30,3,4,T1_SMS_5,153,1,48,35,265075640
30,3,4,T1_SMS_5,154,5,42,127,265547016
30,3,4,T1_SMS_5,155,1,48,26,265551108
30,3,4,T1_SMS_5,156,1,48,35,266038064
30,3,4,T1_SMS_5,157,5,42,127,266046852
30,3,4,T1_SMS_5,158,1,48,31,266545500
30,3,4,T1_SMS_5,159,5,42,127,266547144
30,3,4,T1_SMS_5,160,5,42,127,267047224
30,3,4,T1_SMS_5,161,1,48,32,267054004
30,3,4,T1_SMS_5,162,1,48,33,267538172
30,3,4,T1_SMS_5,163,5,42,127,267547036
30,3,4,T1_SMS_5,164,5,42,127,268046740
30,3,4,T1_SMS_5,165,1,48,31,268055240
30,3,4,T1_SMS_5,166,5,42,127,268546508
30,3,4,T1_SMS_5,167,1,48,27,268552840
30,3,4,T1_SMS_5,168,5,42,127,269047100
30,3,4,T1_SMS_5,169,1,48,30,269054628
30,3,4,T1_SMS_5,170,1,48,33,269530520
30,3,4,T1_SMS_5,171,5,42,127,269546712
30,3,4,T1_SMS_5,172,5,42,127,270046488
30,3,4,T1_SMS_5,173,1,48,32,270098676
30,3,4,T1_SMS_5,174,5,42,127,270547456
30,3,4,T1_SMS_5,175,1,48,29,270585576
30,3,4,T1_SMS_5,176,5,42,127,271047148
30,3,4,T1_SMS_5,177,1,48,27,271059840
30,3,4,T1_SMS_5,178,5,42,127,271546844
30,3,4,T1_SMS_5,179,1,48,29,271548856
30,3,4,T1_SMS_5,180,5,42,127,272046392
30,3,4,T1_SMS_5,181,1,48,30,272047356
30,3,4,T1_SMS_5,182,1,48,24,272545384
30,3,4,T1_SMS_5,183,5,42,127,272547276
30,3,4,T1_SMS_5,184,1,48,33,273041848
30,3,4,T1_SMS_5,185,5,42,127,273046820
30,3,4,T1_SMS_5,186,1,48,30,273545912
30,3,4,T1_SMS_5,187,5,42,127,273547636
30,3,4,T1_SMS_5,188,1,48,31,274034280
30,3,4,T1_SMS_5,189,5,42,127,274047404
30,3,4,T1_SMS_5,190,1,48,32,274545360
30,3,4,T1_SMS_5,191,5,42,127,274547176
30,3,4,T1_SMS_5,192,1,48,34,275003900
30,3,4,T1_SMS_5,193,5,42,127,275046796
30,3,4,T1_SMS_5,194,5,42,127,275546572
30,3,4,T1_SMS_5,195,1,48,28,275568916
30,3,4,T1_SMS_5,196,5,42,127,276047388
30,3,4,T1_SMS_5,197,1,48,28,276063000
30,3,4,T1_SMS_5,198,1,48,39,276526996
30,3,4,T1_SMS_5,199,5,42,127,276546856
30,3,4,T1_SMS_5,200,5,42,127,277046632
30,3,4,T1_SMS_5,201,1,48,35,277081464
30,3,4,T1_SMS_5,202,5,42,127,277547300
30,3,4,T1_SMS_5,203,1,48,27,277585344
30,3,4,T1_SMS_5,204,5,42,127,278047192
30,3,4,T1_SMS_5,205,1,48,28,278086532
30,3,4,T1_SMS_5,206,5,42,127,278546812
30,3,4,T1_SMS_5,207,1,48,30,278559500
30,3,4,T1_SMS_5,208,1,48,35,279038164
30,3,4,T1_SMS_5,209,5,42,127,279046648
30,3,4,T1_SMS_5,210,5,42,127,279547248
30,3,4,T1_SMS_5,211,1,48,28,279575720
30,3,4,T1_SMS_5,212,5,42,127,280047016
30,3,4,T1_SMS_5,213,1,48,29,280063300
30,3,4,T1_SMS_5,214,5,42,127,280546636
30,3,4,T1_SMS_5,215,1,48,32,280569352
30,3,4,T1_SMS_5,216,5,42,127,281047376
30,3,4,T1_SMS_5,217,1,48,39,281066804
30,3,4,T1_SMS_5,218,1,48,35,281547220
30,3,4,T1_SMS_5,219,5,42,127,281548864
30,3,4,T1_SMS_5,220,5,42,127,282046992
30,3,4,T1_SMS_5,221,1,48,30,282074640
30,3,4,T1_SMS_5,222,5,42,127,282546464
30,3,4,T1_SMS_5,223,1,48,29,282565284
30,3,4,T1_SMS_5,224,5,42,127,283047280
30,3,4,T1_SMS_5,225,1,48,33,283056308
30,3,4,T1_SMS_5,226,1,48,29,283530256
30,3,4,T1_SMS_5,227,5,42,127,283547116
30,3,4,T1_SMS_5,228,5,42,127,284046820
30,3,4,T1_SMS_5,229,1,48,26,284056896
30,3,4,T1_SMS_5,230,5,42,127,284546364
30,3,4,T1_SMS_5,231,1,48,25,284558608
30,3,4,T1_SMS_5,232,5,42,127,285047104
30,3,4,T1_SMS_5,233,1,48,28,285050076
30,3,4,T1_SMS_5,234,5,42,127,285546800
30,3,4,T1_SMS_5,235,1,48,36,285555080
30,3,4,T1_SMS_5,236,5,42,127,286046792
30,3,4,T1_SMS_5,237,1,48,29,286065844
30,3,4,T1_SMS_5,238,5,42,127,286547312
30,3,4,T1_SMS_5,239,1,48,33,286552076
30,3,4,T1_SMS_5,240,5,42,127,287047004
30,3,4,T1_SMS_5,241,1,48,35,287057456
30,3,4,T1_SMS_5,242,5,42,127,287546700
30,3,4,T1_SMS_5,243,1,48,27,287558640
30,3,4,T1_SMS_5,244,1,48,35,288038952
30,3,4,T1_SMS_5,245,5,42,127,288046612
30,3,4,T1_SMS_5,246,5,42,127,288547040
30,3,4,T1_SMS_5,247,1,48,28,288549780
30,3,4,T1_SMS_5,248,5,42,127,289047004
30,3,4,T1_SMS_5,249,1,48,21,289068324
30,3,4,T1_SMS_5,250,5,42,127,289546772
30,3,4,T1_SMS_5,251,1,48,30,289549668
30,3,4,T1_SMS_5,252,5,42,127,290047364
30,3,4,T1_SMS_5,253,1,48,27,290063648
30,3,4,T1_SMS_5,254,5,42,127,290546984
30,3,4,T1_SMS_5,255,1,48,31,290604728
30,3,4,T1_SMS_5,0,9999,9999,9999,226044984
30,3,4,T1_SMS_5,1,9999,9999,9999,226544700
30,3,4,T1_SMS_5,2,9999,9999,9999,227044416
30,3,4,T1_SMS_5,3,9999,9999,9999,227544132
30,3,4,T1_SMS_5,4,9999,9999,9999,228044896
30,3,4,T1_SMS_5,5,9999,9999,9999,228544592
30,3,4,T1_SMS_5,6,9999,9999,9999,229044280
30,3,4,T1_SMS_5,7,9999,9999,9999,229545028
30,3,4,T1_SMS_5,8,9999,9999,9999,230044788
30,3,4,T1_SMS_5,9,9999,9999,9999,230544492
30,3,4,T1_SMS_5,10,9999,9999,9999,231044188
30,3,4,T1_SMS_5,11,9999,9999,9999,231544928
30,3,4,T1_SMS_5,12,9999,9999,9999,232044620
30,3,4,T1_SMS_5,13,9999,9999,9999,232544324
30,3,4,T1_SMS_5,14,9999,9999,9999,233045056
30,3,4,T1_SMS_5,15,9999,9999,9999,233544752
30,3,4,T1_SMS_5,16,9999,9999,9999,234044528
30,3,4,T1_SMS_5,17,9999,9999,9999,234544220
30,3,4,T1_SMS_5,18,9999,9999,9999,235044940
30,3,4,T1_SMS_5,19,9999,9999,9999,235544684
30,3,4,T1_SMS_5,20,9999,9999,9999,236044380
30,3,4,T1_SMS_5,21,9999,9999,9999,236544076
30,3,4,T1_SMS_5,22,9999,9999,9999,237044816
30,3,4,T1_SMS_5,23,9999,9999,9999,237544504
30,3,4,T1_SMS_5,24,9999,9999,9999,238044280
30,3,4,T1_SMS_5,25,9999,9999,9999,238544948
30,3,4,T1_SMS_5,26,9999,9999,9999,239044712
30,3,4,T1_SMS_5,27,9999,9999,9999,239544412
30,3,4,T1_SMS_5,28,9999,9999,9999,240044104
30,3,4,T1_SMS_5,29,9999,9999,9999,240544852
30,3,4,T1_SMS_5,30,9999,9999,9999,241044544
30,3,4,T1_SMS_5,31,9999,9999,9999,241544308
30,3,4,T1_SMS_5,32,9999,9999,9999,242044980
30,3,4,T1_SMS_5,33,9999,9999,9999,242544744
30,3,4,T1_SMS_5,34,9999,9999,9999,243044448
30,3,4,T1_SMS_5,35,9999,9999,9999,243544144
30,3,4,T1_SMS_5,36,9999,9999,9999,244044884
30,3,4,T1_SMS_5,37,9999,9999,9999,244544580
30,3,4,T1_SMS_5,38,9999,9999,9999,245044276
30,3,4,T1_SMS_5,39,9999,9999,9999,245545008
30,3,4,T1_SMS_5,40,9999,9999,9999,246044760
30,3,4,T1_SMS_5,41,9999,9999,9999,246544456
30,3,4,T1_SMS_5,42,9999,9999,9999,247044152
30,3,4,T1_SMS_5,43,9999,9999,9999,247544888
30,3,4,T1_SMS_5,44,9999,9999,9999,248044664
30,3,4,T1_SMS_5,45,9999,9999,9999,248544360
30,3,4,T1_SMS_5,46,9999,9999,9999,249045100
30,3,4,T1_SMS_5,47,9999,9999,9999,249544792
30,3,4,T1_SMS_5,48,9999,9999,9999,250044488
30,3,4,T1_SMS_5,49,9999,9999,9999,250544180
30,3,4,T1_SMS_5,50,9999,9999,9999,251044924
30,3,4,T1_SMS_5,51,9999,9999,9999,251544692
30,3,4,T1_SMS_5,52,9999,9999,9999,252044388
30,3,4,T1_SMS_5,53,9999,9999,9999,252544084
30,3,4,T1_SMS_5,54,9999,9999,9999,253044828
30,3,4,T1_SMS_5,55,9999,9999,9999,253544516
30,3,4,T1_SMS_5,56,9999,9999,9999,254044216
30,3,4,T1_SMS_5,57,9999,9999,9999,254544960
30,3,4,T1_SMS_5,58,9999,9999,9999,255044656
30,3,4,T1_SMS_5,59,9999,9999,9999,255544424
30,3,4,T1_SMS_5,60,9999,9999,9999,256044120
30,3,4,T1_SMS_5,61,9999,9999,9999,256544836
30,3,4,T1_SMS_5,62,9999,9999,9999,257044532
30,3,4,T1_SMS_5,63,9999,9999,9999,257544300
30,3,4,T1_SMS_5,64,9999,9999,9999,258045032
30,3,4,T1_SMS_5,65,9999,9999,9999,258544736
30,3,4,T1_SMS_5,66,9999,9999,9999,259044432
30,3,4,T1_SMS_5,67,9999,9999,9999,259544124
30,3,4,T1_SMS_5,68,9999,9999,9999,260044864
30,3,4,T1_SMS_5,69,9999,9999,9999,260544628
30,3,4,T1_SMS_5,70,9999,9999,9999,261044328
30,3,4,T1_SMS_5,71,9999,9999,9999,261545072
30,3,4,T1_SMS_5,72,9999,9999,9999,262044768
30,3,4,T1_SMS_5,73,9999,9999,9999,262544456
30,3,4,T1_SMS_5,74,9999,9999,9999,263044160
30,3,4,T1_SMS_5,75,9999,9999,9999,263544900
30,3,4,T1_SMS_5,76,9999,9999,9999,264044596
30,3,4,T1_SMS_5,77,9999,9999,9999,264544364
30,3,4,T1_SMS_5,78,9999,9999,9999,265045104
30,3,4,T1_SMS_5,79,9999,9999,9999,265544800
30,3,4,T1_SMS_5,80,9999,9999,9999,266044488
30,3,4,T1_SMS_5,81,9999,9999,9999,266544188
30,3,4,T1_SMS_5,82,9999,9999,9999,267044932
30,3,4,T1_SMS_5,83,9999,9999,9999,267544672
30,3,4,T1_SMS_5,84,9999,9999,9999,268044372
30,3,4,T1_SMS_5,85,9999,9999,9999,268544068
30,3,4,T1_SMS_5,86,9999,9999,9999,269044808
30,3,4,T1_SMS_5,87,9999,9999,9999,269544496
30,3,4,T1_SMS_5,88,9999,9999,9999,270044272
30,3,4,T1_SMS_5,89,9999,9999,9999,270545016
30,3,4,T1_SMS_5,90,9999,9999,9999,271044712
30,3,4,T1_SMS_5,91,9999,9999,9999,271544404
30,3,4,T1_SMS_5,92,9999,9999,9999,272044100
30,3,4,T1_SMS_5,93,9999,9999,9999,272544860
30,3,4,T1_SMS_5,94,9999,9999,9999,273044528
30,3,4,T1_SMS_5,95,9999,9999,9999,273544304
30,3,4,T1_SMS_5,96,9999,9999,9999,274045040
30,3,4,T1_SMS_5,97,9999,9999,9999,274544760
30,3,4,T1_SMS_5,98,9999,9999,9999,275044432
30,3,4,T1_SMS_5,99,9999,9999,9999,275544132
30,3,4,T1_SMS_5,100,9999,9999,9999,276044876
30,3,4,T1_SMS_5,101,9999,9999,9999,276544568
30,3,4,T1_SMS_5,102,9999,9999,9999,277044340
30,3,4,T1_SMS_5,103,9999,9999,9999,277545008
30,3,4,T1_SMS_5,104,9999,9999,9999,278044752
30,3,4,T1_SMS_5,105,9999,9999,9999,278544448
30,3,4,T1_SMS_5,106,9999,9999,9999,279044208
30,3,4,T1_SMS_5,107,9999,9999,9999,279544880
30,3,4,T1_SMS_5,108,9999,9999,9999,280044652
30,3,4,T1_SMS_5,109,9999,9999,9999,280544348
30,3,4,T1_SMS_5,110,9999,9999,9999,281045088
30,3,4,T1_SMS_5,111,9999,9999,9999,281544780
30,3,4,T1_SMS_5,112,9999,9999,9999,282044476
30,3,4,T1_SMS_5,113,9999,9999,9999,282544248
30,3,4,T1_SMS_5,114,9999,9999,9999,283044916
30,3,4,T1_SMS_5,115,9999,9999,9999,283544676
30,3,4,T1_SMS_5,116,9999,9999,9999,284044380
30,3,4,T1_SMS_5,117,9999,9999,9999,284544076
30,3,4,T1_SMS_5,118,9999,9999,9999,285044816
30,3,4,T1_SMS_5,119,9999,9999,9999,285544508
30,3,4,T1_SMS_5,120,9999,9999,9999,286044280
30,3,4,T1_SMS_5,121,9999,9999,9999,286544948
30,3,4,T1_SMS_5,122,9999,9999,9999,287044716
30,3,4,T1_SMS_5,123,9999,9999,9999,287544408
30,3,4,T1_SMS_5,124,9999,9999,9999,288044100
30,3,4,T1_SMS_5,125,9999,9999,9999,288544820
30,3,4,T1_SMS_5,126,9999,9999,9999,289044564
30,3,4,T1_SMS_5,127,9999,9999,9999,289544260
30,3,4,T1_SMS_5,128,9999,9999,9999,290045000
30,3,4,T1_SMS_5,129,9999,9999,9999,290544696
30,4,2,T1_SMS_8,0,5,42,127,338827576
30,4,2,T1_SMS_8,1,5,42,127,339628380
30,4,2,T1_SMS_8,2,1,48,30,340371096
30,4,2,T1_SMS_8,3,5,42,127,340428348
30,4,2,T1_SMS_8,4,1,48,32,341210772
30,4,2,T1_SMS_8,5,5,42,127,341227860
30,4,2,T1_SMS_8,6,5,42,127,342027524
30,4,2,T1_SMS_8,7,1,48,37,342034908
30,4,2,T1_SMS_8,8,5,42,127,342828256
30,4,2,T1_SMS_8,9,1,48,33,342866752
30,4,2,T1_SMS_8,10,5,42,127,343628364
30,4,2,T1_SMS_8,11,1,48,34,343655492
30,4,2,T1_SMS_8,12,5,42,127,344428020
30,4,2,T1_SMS_8,13,1,48,35,344495168
30,4,2,T1_SMS_8,14,1,48,34,345212900
30,4,2,T1_SMS_8,15,5,42,127,345227600
30,4,2,T1_SMS_8,16,5,42,127,346028388
30,4,2,T1_SMS_8,17,1,48,35,346037188
30,4,2,T1_SMS_8,18,5,42,127,346828196
30,4,2,T1_SMS_8,19,1,48,36,346845072
30,4,2,T1_SMS_8,20,5,42,127,347628004
30,4,2,T1_SMS_8,21,1,48,35,347654976
30,4,2,T1_SMS_8,22,5,42,127,348427588
30,4,2,T1_SMS_8,23,1,48,37,348432196
30,4,2,T1_SMS_8,24,5,42,127,349228392
30,4,2,T1_SMS_8,25,1,48,39,349234048
30,4,2,T1_SMS_8,26,5,42,127,350028348
30,4,2,T1_SMS_8,27,1,48,37,350041712
30,4,2,T1_SMS_8,28,5,42,127,350828080
30,4,2,T1_SMS_8,29,1,48,35,350866508
30,4,2,T1_SMS_8,30,5,42,127,351627592
30,4,2,T1_SMS_8,31,1,48,36,351655992
30,4,2,T1_SMS_8,32,5,42,127,352428296
30,4,2,T1_SMS_8,33,1,48,38,352429636
30,4,2,T1_SMS_8,34,1,48,36,353210260
30,4,2,T1_SMS_8,35,5,42,127,353228100
30,4,2,T1_SMS_8,36,5,42,127,354027988
30,4,2,T1_SMS_8,37,1,48,34,354036944
30,4,2,T1_SMS_8,38,5,42,127,354827720
30,4,2,T1_SMS_8,39,1,48,38,354832856
30,4,2,T1_SMS_8,40,1,48,38,355610660
30,4,2,T1_SMS_8,41,5,42,127,355628296
30,4,2,T1_SMS_8,42,5,42,127,356428256
30,4,2,T1_SMS_8,43,1,48,37,356448432
30,4,2,T1_SMS_8,44,1,48,40,357227160
30,4,2,T1_SMS_8,45,5,42,127,357228956
30,4,2,T1_SMS_8,46,5,42,127,358027572
30,4,2,T1_SMS_8,47,1,48,36,358059192
30,4,2,T1_SMS_8,48,5,42,127,358828652
30,4,2,T1_SMS_8,49,1,48,30,358864160
30,4,2,T1_SMS_8,50,5,42,127,359628016
30,4,2,T1_SMS_8,51,1,48,29,359651556
30,4,2,T1_SMS_8,52,5,42,127,360427824
30,4,2,T1_SMS_8,53,1,48,36,360466316
30,4,2,T1_SMS_8,54,5,42,127,361227708
30,4,2,T1_SMS_8,55,1,48,36,361233592
30,4,2,T1_SMS_8,56,1,48,38,362014628
30,4,2,T1_SMS_8,57,5,42,127,362028576
30,4,2,T1_SMS_8,58,5,42,127,362828020
30,4,2,T1_SMS_8,59,1,48,38,362834800
30,4,2,T1_SMS_8,60,5,42,127,363627828
30,4,2,T1_SMS_8,61,1,48,35,363656976
30,4,2,T1_SMS_8,62,5,42,127,364427708
30,4,2,T1_SMS_8,63,1,48,37,364465756
30,4,2,T1_SMS_8,64,5,42,127,365228416
30,4,2,T1_SMS_8,65,1,48,37,365272672
30,4,2,T1_SMS_8,66,5,42,127,366028148
30,4,2,T1_SMS_8,67,1,48,38,366067544
30,4,2,T1_SMS_8,68,5,42,127,366827808
30,4,2,T1_SMS_8,69,1,48,36,366835036
30,4,2,T1_SMS_8,70,5,42,127,367627540
30,4,2,T1_SMS_8,71,1,48,39,367636412
30,4,2,T1_SMS_8,72,5,42,127,368428492
30,4,2,T1_SMS_8,73,1,48,37,368442156
30,4,2,T1_SMS_8,74,5,42,127,369228300
30,4,2,T1_SMS_8,75,1,48,37,369234112
30,4,2,T1_SMS_8,76,1,48,35,370018268
30,4,2,T1_SMS_8,77,5,42,127,370027952
30,4,2,T1_SMS_8,78,1,48,37,370805136
30,4,2,T1_SMS_8,79,5,42,127,370827612
30,4,2,T1_SMS_8,80,5,42,127,371628400
30,4,2,T1_SMS_8,81,1,48,38,371666372
30,4,2,T1_SMS_8,82,1,48,39,372390992
30,4,2,T1_SMS_8,83,5,42,127,372428196
30,4,2,T1_SMS_8,84,1,48,33,373227864
30,4,2,T1_SMS_8,85,5,42,127,373229352
30,4,2,T1_SMS_8,86,1,48,29,374023516
30,4,2,T1_SMS_8,87,5,42,127,374027888
30,4,2,T1_SMS_8,88,1,48,34,374817820
30,4,2,T1_SMS_8,89,5,42,127,374828396
30,4,2,T1_SMS_8,90,5,42,127,375628136
30,4,2,T1_SMS_8,91,1,48,33,375630148
30,4,2,T1_SMS_8,92,1,48,39,376424984
30,4,2,T1_SMS_8,93,5,42,127,376427860
30,4,2,T1_SMS_8,94,5,42,127,377227752
30,4,2,T1_SMS_8,95,1,48,29,377244856
30,4,2,T1_SMS_8,96,5,42,127,378028532
30,4,2,T1_SMS_8,97,1,48,35,378036812
30,4,2,T1_SMS_8,98,1,48,35,378805484
30,4,2,T1_SMS_8,99,5,42,127,378828036
30,4,2,T1_SMS_8,100,1,48,38,379616964
30,4,2,T1_SMS_8,101,5,42,127,379627844
30,4,2,T1_SMS_8,102,5,42,127,380427804
30,4,2,T1_SMS_8,103,1,48,33,380454804
30,4,2,T1_SMS_8,104,5,42,127,381228536
30,4,2,T1_SMS_8,105,1,48,32,381238912
30,4,2,T1_SMS_8,106,1,48,35,382022020
30,4,2,T1_SMS_8,107,5,42,127,382028336
30,4,2,T1_SMS_8,108,5,42,127,382827928
30,4,2,T1_SMS_8,109,1,48,33,382834336
30,4,2,T1_SMS_8,110,1,48,39,383618944
30,4,2,T1_SMS_8,111,5,42,127,383627508
30,4,2,T1_SMS_8,112,1,48,40,384405588
30,4,2,T1_SMS_8,113,5,42,127,384428512
30,4,2,T1_SMS_8,114,5,42,127,385228252
30,4,2,T1_SMS_8,115,1,48,40,385249844
30,4,2,T1_SMS_8,116,1,48,38,385975132
30,4,2,T1_SMS_8,117,5,42,127,386027828
30,4,2,T1_SMS_8,118,1,48,34,386811148
30,4,2,T1_SMS_8,119,5,42,127,386827636
30,4,2,T1_SMS_8,120,1,48,30,387609532
30,4,2,T1_SMS_8,121,5,42,127,387628440
30,4,2,T1_SMS_8,122,5,42,127,388428256
30,4,2,T1_SMS_8,123,1,48,33,388455608
30,4,2,T1_SMS_8,124,5,42,127,389227840
30,4,2,T1_SMS_8,125,1,48,27,389262524
30,4,2,T1_SMS_8,126,1,48,29,390003820
30,4,2,T1_SMS_8,127,5,42,127,390027568
30,4,2,T1_SMS_8,128,5,42,127,390828352
30,4,2,T1_SMS_8,129,1,48,33,390867228
30,4,2,T1_SMS_8,130,5,42,127,391628160
30,4,2,T1_SMS_8,131,1,48,38,391637564
30,4,2,T1_SMS_8,132,1,48,32,392410944
30,4,2,T1_SMS_8,133,5,42,127,392427812
30,4,2,T1_SMS_8,134,1,48,40,393215096
30,4,2,T1_SMS_8,135,5,42,127,393227544
30,4,2,T1_SMS_8,136,5,42,127,394028432
30,4,2,T1_SMS_8,137,1,48,30,394065356
30,4,2,T1_SMS_8,138,1,48,32,394825280
30,4,2,T1_SMS_8,139,5,42,127,394828008
30,4,2,T1_SMS_8,140,1,48,34,395612228
30,4,2,T1_SMS_8,141,5,42,127,395627968
30,4,2,T1_SMS_8,142,5,42,127,396427708
30,4,2,T1_SMS_8,143,1,48,28,396463212
30,4,2,T1_SMS_8,144,5,42,127,397228412
30,4,2,T1_SMS_8,145,1,48,27,397232124
30,4,2,T1_SMS_8,146,1,48,32,398001180
30,4,2,T1_SMS_8,147,5,42,127,398028212
30,4,2,T1_SMS_8,148,1,48,20,398822900
30,4,2,T1_SMS_8,149,5,42,127,398827872
30,4,2,T1_SMS_8,150,5,42,127,399627836
30,4,2,T1_SMS_8,151,1,48,23,399943580
30,4,2,T1_SMS_8,152,1,48,38,400391096
30,4,2,T1_SMS_8,153,5,42,127,400428336
30,4,2,T1_SMS_8,154,1,48,35,401143560
30,4,2,T1_SMS_8,155,5,42,127,401228140
30,4,2,T1_SMS_8,156,1,48,34,401997848
30,4,2,T1_SMS_8,157,5,42,127,402027800
30,4,2,T1_SMS_8,158,5,42,127,402827912
30,4,2,T1_SMS_8,159,1,48,29,402864088
30,4,2,T1_SMS_8,160,5,42,127,403628468
30,4,2,T1_SMS_8,161,1,48,32,403630480
30,4,2,T1_SMS_8,162,5,42,127,404428128
30,4,2,T1_SMS_8,163,1,48,28,404442316
30,4,2,T1_SMS_8,164,5,42,127,405227936
30,4,2,T1_SMS_8,165,1,48,30,405244588
30,4,2,T1_SMS_8,166,1,48,30,406011620
30,4,2,T1_SMS_8,167,5,42,127,406027588
30,4,2,T1_SMS_8,168,1,48,30,406828252
30,4,2,T1_SMS_8,169,5,42,127,406829884
30,4,2,T1_SMS_8,170,5,42,127,407628132
30,4,2,T1_SMS_8,171,1,48,27,407630072
30,4,2,T1_SMS_8,172,5,42,127,408427868
30,4,2,T1_SMS_8,173,1,48,27,408435920
30,4,2,T1_SMS_8,174,5,42,127,409227600
30,4,2,T1_SMS_8,175,1,48,28,409229688
30,4,2,T1_SMS_8,176,1,48,30,410003804
30,4,2,T1_SMS_8,177,5,42,127,410028448
30,4,2,T1_SMS_8,178,5,42,127,410828412
30,4,2,T1_SMS_8,179,1,48,28,411600152
30,4,2,T1_SMS_8,180,5,42,127,411628012
30,4,2,T1_SMS_8,181,1,48,27,412417012
30,4,2,T1_SMS_8,182,5,42,127,412427520
30,4,2,T1_SMS_8,183,1,48,33,413227808
30,4,2,T1_SMS_8,184,5,42,127,413229520
30,4,2,T1_SMS_8,185,1,48,35,414005808
30,4,2,T1_SMS_8,186,5,42,127,414028280
30,4,2,T1_SMS_8,187,1,48,33,414813168
30,4,2,T1_SMS_8,188,5,42,127,414827868
30,4,2,T1_SMS_8,189,5,42,127,415627608
30,4,2,T1_SMS_8,190,1,48,26,415633420
30,4,2,T1_SMS_8,191,5,42,127,416428388
30,4,2,T1_SMS_8,192,1,48,31,416442876
30,4,2,T1_SMS_8,193,1,48,25,417220004
30,4,2,T1_SMS_8,194,5,42,127,417228116
30,4,2,T1_SMS_8,195,5,42,127,418028080
30,4,2,T1_SMS_8,196,1,48,37,418037332
30,4,2,T1_SMS_8,197,1,48,32,418813188
30,4,2,T1_SMS_8,198,5,42,127,418827656
30,4,2,T1_SMS_8,199,1,48,32,419625956
30,4,2,T1_SMS_8,200,5,42,127,419628388
30,4,2,T1_SMS_8,201,1,48,32,420426232
30,4,2,T1_SMS_8,202,5,42,127,420427972
30,4,2,T1_SMS_8,203,1,48,27,421215552
30,4,2,T1_SMS_8,204,5,42,127,421228004
30,4,2,T1_SMS_8,205,1,48,29,422009080
30,4,2,T1_SMS_8,206,5,42,127,422027812
30,4,2,T1_SMS_8,207,1,48,27,422810084
30,4,2,T1_SMS_8,208,5,42,127,422828368
30,4,2,T1_SMS_8,209,5,42,127,423628108
30,4,2,T1_SMS_8,210,1,48,24,423669448
30,4,2,T1_SMS_8,211,5,42,127,424427844
30,4,2,T1_SMS_8,212,1,48,27,424445616
30,4,2,T1_SMS_8,213,1,48,28,425213692
30,4,2,T1_SMS_8,214,5,42,127,425227792
30,4,2,T1_SMS_8,215,5,42,127,426028604
30,4,2,T1_SMS_8,216,1,48,20,426047208
30,4,2,T1_SMS_8,217,1,48,28,426824708
30,4,2,T1_SMS_8,218,5,42,127,426828256
30,4,2,T1_SMS_8,219,5,42,127,427627996
30,4,2,T1_SMS_8,220,1,48,25,427645176
30,4,2,T1_SMS_8,221,5,42,127,428427728
30,4,2,T1_SMS_8,222,1,48,27,428429740
30,4,2,T1_SMS_8,223,5,42,127,429228508
30,4,2,T1_SMS_8,224,1,48,28,429231628
30,4,2,T1_SMS_8,225,1,48,26,430007336
30,4,2,T1_SMS_8,226,5,42,127,430028160
30,4,2,T1_SMS_8,227,1,48,30,430805716
30,4,2,T1_SMS_8,228,5,42,127,430827820
30,4,2,T1_SMS_8,229,5,42,127,431627488
30,4,2,T1_SMS_8,230,1,48,27,431637484
30,4,2,T1_SMS_8,231,1,48,27,432413740
30,4,2,T1_SMS_8,232,5,42,127,432428360
30,4,2,T1_SMS_8,233,1,48,24,433210780
30,4,2,T1_SMS_8,234,5,42,127,433228388
30,4,2,T1_SMS_8,235,1,48,32,434022252
30,4,2,T1_SMS_8,236,5,42,127,434027900
30,4,2,T1_SMS_8,0,9999,9999,9999,338825284
30,4,2,T1_SMS_8,1,9999,9999,9999,339626088
30,4,2,T1_SMS_8,2,9999,9999,9999,340425836
30,4,2,T1_SMS_8,3,9999,9999,9999,341225568
30,4,2,T1_SMS_8,4,9999,9999,9999,342025308
30,4,2,T1_SMS_8,5,9999,9999,9999,342826040
30,4,2,T1_SMS_8,6,9999,9999,9999,343625776
30,4,2,T1_SMS_8,7,9999,9999,9999,344425580
30,4,2,T1_SMS_8,8,9999,9999,9999,345225308
30,4,2,T1_SMS_8,9,9999,9999,9999,346026096
30,4,2,T1_SMS_8,10,9999,9999,9999,346825828
30,4,2,T1_SMS_8,11,9999,9999,9999,347625564
30,4,2,T1_SMS_8,12,9999,9999,9999,348425296
30,4,2,T1_SMS_8,13,9999,9999,9999,349226100
30,4,2,T1_SMS_8,14,9999,9999,9999,350025832
30,4,2,T1_SMS_8,15,9999,9999,9999,350825568
30,4,2,T1_SMS_8,16,9999,9999,9999,351625300
30,4,2,T1_SMS_8,17,9999,9999,9999,352426080
30,4,2,T1_SMS_8,18,9999,9999,9999,353225808
30,4,2,T1_SMS_8,19,9999,9999,9999,354025548
30,4,2,T1_SMS_8,20,9999,9999,9999,354825280
30,4,2,T1_SMS_8,21,9999,9999,9999,355626076
30,4,2,T1_SMS_8,22,9999,9999,9999,356425816
30,4,2,T1_SMS_8,23,9999,9999,9999,357225548
30,4,2,T1_SMS_8,24,9999,9999,9999,358025280
30,4,2,T1_SMS_8,25,9999,9999,9999,358826060
30,4,2,T1_SMS_8,26,9999,9999,9999,359625796
30,4,2,T1_SMS_8,27,9999,9999,9999,360425532
30,4,2,T1_SMS_8,28,9999,9999,9999,361225268
30,4,2,T1_SMS_8,29,9999,9999,9999,362026064
30,4,2,T1_SMS_8,30,9999,9999,9999,362825804
30,4,2,T1_SMS_8,31,9999,9999,9999,363625536
30,4,2,T1_SMS_8,32,9999,9999,9999,364425268
30,4,2,T1_SMS_8,33,9999,9999,9999,365226048
30,4,2,T1_SMS_8,34,9999,9999,9999,366025780
30,4,2,T1_SMS_8,35,9999,9999,9999,366825588
30,4,2,T1_SMS_8,36,9999,9999,9999,367625324
30,4,2,T1_SMS_8,37,9999,9999,9999,368426052
30,4,2,T1_SMS_8,38,9999,9999,9999,369225788
30,4,2,T1_SMS_8,39,9999,9999,9999,370025588
30,4,2,T1_SMS_8,40,9999,9999,9999,370825320
30,4,2,T1_SMS_8,41,9999,9999,9999,371626032
30,4,2,T1_SMS_8,42,9999,9999,9999,372425832
30,4,2,T1_SMS_8,43,9999,9999,9999,373225572
30,4,2,T1_SMS_8,44,9999,9999,9999,374025300
30,4,2,T1_SMS_8,45,9999,9999,9999,374826104
30,4,2,T1_SMS_8,46,9999,9999,9999,375625844
30,4,2,T1_SMS_8,47,9999,9999,9999,376425568
30,4,2,T1_SMS_8,48,9999,9999,9999,377225308
30,4,2,T1_SMS_8,49,9999,9999,9999,378026088
30,4,2,T1_SMS_8,50,9999,9999,9999,378825816
30,4,2,T1_SMS_8,51,9999,9999,9999,379625552
30,4,2,T1_SMS_8,52,9999,9999,9999,380425292
30,4,2,T1_SMS_8,53,9999,9999,9999,381226096
30,4,2,T1_SMS_8,54,9999,9999,9999,382025824
30,4,2,T1_SMS_8,55,9999,9999,9999,382825564
30,4,2,T1_SMS_8,56,9999,9999,9999,383625292
30,4,2,T1_SMS_8,57,9999,9999,9999,384426072
30,4,2,T1_SMS_8,58,9999,9999,9999,385225812
30,4,2,T1_SMS_8,59,9999,9999,9999,386025536
30,4,2,T1_SMS_8,60,9999,9999,9999,386825272
30,4,2,T1_SMS_8,61,9999,9999,9999,387626076
30,4,2,T1_SMS_8,62,9999,9999,9999,388425812
30,4,2,T1_SMS_8,63,9999,9999,9999,389225548
30,4,2,T1_SMS_8,64,9999,9999,9999,390025276
30,4,2,T1_SMS_8,65,9999,9999,9999,390826060
30,4,2,T1_SMS_8,66,9999,9999,9999,391625796
30,4,2,T1_SMS_8,67,9999,9999,9999,392425520
30,4,2,T1_SMS_8,68,9999,9999,9999,393225328
30,4,2,T1_SMS_8,69,9999,9999,9999,394026064
30,4,2,T1_SMS_8,70,9999,9999,9999,394825792
30,4,2,T1_SMS_8,71,9999,9999,9999,395625528
30,4,2,T1_SMS_8,72,9999,9999,9999,396425264
30,4,2,T1_SMS_8,73,9999,9999,9999,397226044
30,4,2,T1_SMS_8,74,9999,9999,9999,398025844
30,4,2,T1_SMS_8,75,9999,9999,9999,398825580
30,4,2,T1_SMS_8,76,9999,9999,9999,399625320
30,4,2,T1_SMS_8,77,9999,9999,9999,400426044
30,4,2,T1_SMS_8,78,9999,9999,9999,401225776
30,4,2,T1_SMS_8,79,9999,9999,9999,402025584
30,4,2,T1_SMS_8,80,9999,9999,9999,402825324
30,4,2,T1_SMS_8,81,9999,9999,9999,403626104
30,4,2,T1_SMS_8,82,9999,9999,9999,404425836
30,4,2,T1_SMS_8,83,9999,9999,9999,405225568
30,4,2,T1_SMS_8,84,9999,9999,9999,406025296
30,4,2,T1_SMS_8,85,9999,9999,9999,406826032
30,4,2,T1_SMS_8,86,9999,9999,9999,407625840
30,4,2,T1_SMS_8,87,9999,9999,9999,408425576
30,4,2,T1_SMS_8,88,9999,9999,9999,409225308
30,4,2,T1_SMS_8,89,9999,9999,9999,410026080
30,4,2,T1_SMS_8,90,9999,9999,9999,410825820
30,4,2,T1_SMS_8,91,9999,9999,9999,411625572
30,4,2,T1_SMS_8,92,9999,9999,9999,412425304
30,4,2,T1_SMS_8,93,9999,9999,9999,413226040
30,4,2,T1_SMS_8,94,9999,9999,9999,414025840
30,4,2,T1_SMS_8,95,9999,9999,9999,414825576
30,4,2,T1_SMS_8,96,9999,9999,9999,415625316
30,4,2,T1_SMS_8,97,9999,9999,9999,416426096
30,4,2,T1_SMS_8,98,9999,9999,9999,417225824
30,4,2,T1_SMS_8,99,9999,9999,9999,418025564
30,4,2,T1_SMS_8,100,9999,9999,9999,418825292
30,4,2,T1_SMS_8,101,9999,9999,9999,419626096
30,4,2,T1_SMS_8,102,9999,9999,9999,420425780
30,4,2,T1_SMS_8,103,9999,9999,9999,421225564
30,4,2,T1_SMS_8,104,9999,9999,9999,422025296
30,4,2,T1_SMS_8,105,9999,9999,9999,422826076
30,4,2,T1_SMS_8,106,9999,9999,9999,423625816
30,4,2,T1_SMS_8,107,9999,9999,9999,424425552
30,4,2,T1_SMS_8,108,9999,9999,9999,425225276
30,4,2,T1_SMS_8,109,9999,9999,9999,426026088
30,4,2,T1_SMS_8,110,9999,9999,9999,426825816
30,4,2,T1_SMS_8,111,9999,9999,9999,427625556
30,4,2,T1_SMS_8,112,9999,9999,9999,428425288
30,4,2,T1_SMS_8,113,9999,9999,9999,429226068
30,4,2,T1_SMS_8,114,9999,9999,9999,430025796
30,4,2,T1_SMS_8,115,9999,9999,9999,430825528
30,4,2,T1_SMS_8,116,9999,9999,9999,431625268
30,4,2,T1_SMS_8,117,9999,9999,9999,432426064
30,4,2,T1_SMS_8,118,9999,9999,9999,433225800
30,4,2,T1_SMS_8,119,9999,9999,9999,434025532
30,5,21,Ticks_Linear_5,0,5,42,127,457235864
30,5,21,Ticks_Linear_5,1,5,42,127,457716312
30,5,21,Ticks_Linear_5,2,5,42,127,458196412
30,5,21,Ticks_Linear_5,3,1,48,28,458614464
30,5,21,Ticks_Linear_5,4,5,42,127,458675532
30,5,21,Ticks_Linear_5,5,5,42,127,459155768
30,5,21,Ticks_Linear_5,6,1,48,31,459156736
30,5,21,Ticks_Linear_5,7,1,48,35,459628088
30,5,21,Ticks_Linear_5,8,5,42,127,459646324
30,5,21,Ticks_Linear_5,9,5,42,127,460135700
30,5,21,Ticks_Linear_5,10,1,48,26,460140764
30,5,21,Ticks_Linear_5,11,1,48,35,460625812
30,5,21,Ticks_Linear_5,12,5,42,127,460627528
30,5,21,Ticks_Linear_5,13,5,42,127,461115852
30,5,21,Ticks_Linear_5,14,1,48,29,461125044
30,5,21,Ticks_Linear_5,15,1,48,32,461589644
30,5,21,Ticks_Linear_5,16,5,42,127,461606236
30,5,21,Ticks_Linear_5,17,1,48,27,462068128
30,5,21,Ticks_Linear_5,18,5,42,127,462106380
30,5,21,Ticks_Linear_5,19,5,42,127,462605616
30,5,21,Ticks_Linear_5,20,1,48,28,462645232
30,5,21,Ticks_Linear_5,21,1,48,32,463093204
30,5,21,Ticks_Linear_5,22,5,42,127,463106284
30,5,21,Ticks_Linear_5,23,1,48,29,463596056
30,5,21,Ticks_Linear_5,24,5,42,127,463616392
30,5,21,Ticks_Linear_5,25,1,48,30,464094108
30,5,21,Ticks_Linear_5,26,5,42,127,464116088
30,5,21,Ticks_Linear_5,27,1,48,27,464601812
30,5,21,Ticks_Linear_5,28,5,42,127,464626124
30,5,21,Ticks_Linear_5,29,1,48,30,465116048
30,5,21,Ticks_Linear_5,30,5,42,127,465135932
30,5,21,Ticks_Linear_5,31,1,48,27,465617544
30,5,21,Ticks_Linear_5,32,5,42,127,465646040
30,5,21,Ticks_Linear_5,33,1,48,23,466148172
30,5,21,Ticks_Linear_5,34,5,42,127,466156000
30,5,21,Ticks_Linear_5,35,1,48,28,466638212
30,5,21,Ticks_Linear_5,36,5,42,127,466665960
30,5,21,Ticks_Linear_5,37,1,48,29,467164800
30,5,21,Ticks_Linear_5,38,5,42,127,467186104
30,5,21,Ticks_Linear_5,39,1,48,33,467681940
30,5,21,Ticks_Linear_5,40,5,42,127,467706100
30,5,21,Ticks_Linear_5,41,5,42,127,468226476
30,5,21,Ticks_Linear_5,42,1,48,32,468230788
30,5,21,Ticks_Linear_5,43,1,48,37,468737360
30,5,21,Ticks_Linear_5,44,5,42,127,468755896
30,5,21,Ticks_Linear_5,45,1,48,34,469251580
30,5,21,Ticks_Linear_5,46,5,42,127,469275992
30,5,21,Ticks_Linear_5,47,1,48,23,469796996
30,5,21,Ticks_Linear_5,48,5,42,127,469805420
30,5,21,Ticks_Linear_5,49,1,48,29,470306204
30,5,21,Ticks_Linear_5,50,5,42,127,470335972
30,5,21,Ticks_Linear_5,51,1,48,33,470839524
30,5,21,Ticks_Linear_5,52,5,42,127,470866224
30,5,21,Ticks_Linear_5,53,1,48,34,471389992
30,5,21,Ticks_Linear_5,54,5,42,127,471395728
30,5,21,Ticks_Linear_5,55,1,48,35,471895984
30,5,21,Ticks_Linear_5,56,5,42,127,471926132
30,5,21,Ticks_Linear_5,57,1,48,32,472404824
30,5,21,Ticks_Linear_5,58,5,42,127,472465896
30,5,21,Ticks_Linear_5,59,1,48,30,472978956
30,5,21,Ticks_Linear_5,60,5,42,127,473005360
30,5,21,Ticks_Linear_5,61,1,48,32,473529360
30,5,21,Ticks_Linear_5,62,5,42,127,473546024
30,5,21,Ticks_Linear_5,63,1,48,33,474033332
30,5,21,Ticks_Linear_5,64,5,42,127,474085712
30,5,21,Ticks_Linear_5,65,1,48,35,474602516
30,5,21,Ticks_Linear_5,66,5,42,127,474626524
30,5,21,Ticks_Linear_5,67,1,48,38,475142728
30,5,21,Ticks_Linear_5,68,5,42,127,475185560
30,5,21,Ticks_Linear_5,69,1,48,38,475714804
30,5,21,Ticks_Linear_5,70,5,42,127,475736632
30,5,21,Ticks_Linear_5,71,1,48,30,476265724
30,5,21,Ticks_Linear_5,72,5,42,127,476295568
30,5,21,Ticks_Linear_5,73,1,48,30,476822852
30,5,21,Ticks_Linear_5,74,5,42,127,476845368
30,5,21,Ticks_Linear_5,75,5,42,127,477396668
30,5,21,Ticks_Linear_5,76,1,48,33,477400760
30,5,21,Ticks_Linear_5,77,5,42,127,477955380
30,5,21,Ticks_Linear_5,78,1,48,31,477962760
30,5,21,Ticks_Linear_5,79,5,42,127,478515464
30,5,21,Ticks_Linear_5,80,1,48,30,478527944
30,5,21,Ticks_Linear_5,81,1,48,29,479050836
30,5,21,Ticks_Linear_5,82,5,42,127,479075664
30,5,21,Ticks_Linear_5,83,1,48,34,479590296
30,5,21,Ticks_Linear_5,84,5,42,127,479635872
30,5,21,Ticks_Linear_5,85,5,42,127,480195936
30,5,21,Ticks_Linear_5,86,1,48,29,480216808
30,5,21,Ticks_Linear_5,87,1,48,29,480760512
30,5,21,Ticks_Linear_5,88,5,42,127,480766324
30,5,21,Ticks_Linear_5,89,1,48,26,481334420
30,5,21,Ticks_Linear_5,90,5,42,127,481336368
30,5,21,Ticks_Linear_5,91,1,48,28,481893460
30,5,21,Ticks_Linear_5,92,5,42,127,481906232
30,5,21,Ticks_Linear_5,93,1,48,30,482473732
30,5,21,Ticks_Linear_5,94,5,42,127,482476404
30,5,21,Ticks_Linear_5,95,5,42,127,483045608
30,5,21,Ticks_Linear_5,96,1,48,27,483058240
30,5,21,Ticks_Linear_5,97,1,48,29,483585700
30,5,21,Ticks_Linear_5,98,5,42,127,483626280
30,5,21,Ticks_Linear_5,99,1,48,28,484132220
30,5,21,Ticks_Linear_5,100,5,42,127,484205956
30,5,21,Ticks_Linear_5,101,5,42,127,484785492
30,5,21,Ticks_Linear_5,102,1,48,33,484828452
30,5,21,Ticks_Linear_5,103,5,42,127,485366216
30,5,21,Ticks_Linear_5,104,1,48,23,485423292
30,5,21,Ticks_Linear_5,105,5,42,127,485945700
30,5,21,Ticks_Linear_5,106,1,48,31,485980720
30,5,21,Ticks_Linear_5,107,1,48,26,486495228
30,5,21,Ticks_Linear_5,108,5,42,127,486535408
30,5,21,Ticks_Linear_5,109,1,48,21,487088168
30,5,21,Ticks_Linear_5,110,5,42,127,487126324
30,5,21,Ticks_Linear_5,111,5,42,127,487716144
30,5,21,Ticks_Linear_5,112,1,48,28,487721656
30,5,21,Ticks_Linear_5,113,5,42,127,488306156
30,5,21,Ticks_Linear_5,114,1,48,28,488331440
30,5,21,Ticks_Linear_5,115,5,42,127,488895944
30,5,21,Ticks_Linear_5,116,1,48,27,488896912
30,5,21,Ticks_Linear_5,117,1,48,27,489485088
30,5,21,Ticks_Linear_5,118,5,42,127,489495860
30,5,21,Ticks_Linear_5,119,1,48,26,490092268
30,5,21,Ticks_Linear_5,120,5,42,127,490095984
30,5,21,Ticks_Linear_5,121,1,48,22,490677348
30,5,21,Ticks_Linear_5,122,5,42,127,490696032
30,5,21,Ticks_Linear_5,123,1,48,27,491282928
30,5,21,Ticks_Linear_5,124,5,42,127,491296004
30,5,21,Ticks_Linear_5,125,5,42,127,491896136
30,5,21,Ticks_Linear_5,126,1,48,23,491910860
30,5,21,Ticks_Linear_5,127,5,42,127,492505620
30,5,21,Ticks_Linear_5,128,1,48,28,492526192
30,5,21,Ticks_Linear_5,129,1,48,29,493077412
30,5,21,Ticks_Linear_5,130,5,42,127,493115944
30,5,21,Ticks_Linear_5,131,5,42,127,493725964
30,5,21,Ticks_Linear_5,132,1,48,32,493726932
30,5,21,Ticks_Linear_5,133,1,48,29,494327612
30,5,21,Ticks_Linear_5,134,5,42,127,494336268
30,5,21,Ticks_Linear_5,135,5,42,127,494945856
30,5,21,Ticks_Linear_5,136,1,48,19,494949652
30,5,21,Ticks_Linear_5,137,1,48,27,495560836
30,5,21,Ticks_Linear_5,138,5,42,127,495566192
30,5,21,Ticks_Linear_5,139,1,48,29,496171168
30,5,21,Ticks_Linear_5,140,5,42,127,496185664
30,5,21,Ticks_Linear_5,141,1,48,30,496801096
30,5,21,Ticks_Linear_5,142,5,42,127,496806304
30,5,21,Ticks_Linear_5,143,5,42,127,497425756
30,5,21,Ticks_Linear_5,144,1,48,27,497437660
30,5,21,Ticks_Linear_5,145,1,48,25,498011472
30,5,21,Ticks_Linear_5,146,5,42,127,498046268
30,5,21,Ticks_Linear_5,147,1,48,26,498648300
30,5,21,Ticks_Linear_5,148,5,42,127,498675972
30,5,21,Ticks_Linear_5,149,1,48,25,499269864
30,5,21,Ticks_Linear_5,150,5,42,127,499305700
30,5,21,Ticks_Linear_5,151,1,48,24,499929520
30,5,21,Ticks_Linear_5,152,5,42,127,499935556
30,5,21,Ticks_Linear_5,153,5,42,127,500566488
30,5,21,Ticks_Linear_5,154,1,48,30,500578524
30,5,21,Ticks_Linear_5,155,1,48,26,501192316
30,5,21,Ticks_Linear_5,156,5,42,127,501196108
30,5,21,Ticks_Linear_5,157,1,48,29,501821676
30,5,21,Ticks_Linear_5,158,5,42,127,501836244
30,5,21,Ticks_Linear_5,159,5,42,127,502476288
30,5,21,Ticks_Linear_5,160,1,48,23,502495444
30,5,21,Ticks_Linear_5,161,1,48,24,503111584
30,5,21,Ticks_Linear_5,162,5,42,127,503116424
30,5,21,Ticks_Linear_5,163,1,48,29,503713728
30,5,21,Ticks_Linear_5,164,5,42,127,503756236
30,5,21,Ticks_Linear_5,165,1,48,26,504385476
30,5,21,Ticks_Linear_5,166,5,42,127,504396300
30,5,21,Ticks_Linear_5,167,1,48,26,505009492
30,5,21,Ticks_Linear_5,168,5,42,127,505046304
30,5,21,Ticks_Linear_5,169,1,48,27,505640416
30,5,21,Ticks_Linear_5,170,5,42,127,505695576
30,5,21,Ticks_Linear_5,171,1,48,27,506293644
30,5,21,Ticks_Linear_5,172,5,42,127,506345800
30,5,21,Ticks_Linear_5,173,1,48,25,506926588
30,5,21,Ticks_Linear_5,174,5,42,127,506996268
30,5,21,Ticks_Linear_5,175,1,48,27,507586540
30,5,21,Ticks_Linear_5,176,5,42,127,507646344
30,5,21,Ticks_Linear_5,177,1,48,14,508288688
30,5,21,Ticks_Linear_5,178,5,42,127,508306028
30,5,21,Ticks_Linear_5,179,1,48,27,508907984
30,5,21,Ticks_Linear_5,180,5,42,127,508966236
30,5,21,Ticks_Linear_5,181,1,48,27,509573052
30,5,21,Ticks_Linear_5,182,5,42,127,509625672
30,5,21,Ticks_Linear_5,183,1,48,26,510224256
30,5,21,Ticks_Linear_5,184,5,42,127,510286176
30,5,21,Ticks_Linear_5,185,1,48,27,510904236
30,5,21,Ticks_Linear_5,186,5,42,127,510945688
30,5,21,Ticks_Linear_5,187,1,48,27,511580988
30,5,21,Ticks_Linear_5,188,5,42,127,511616232
30,5,21,Ticks_Linear_5,189,1,48,30,512214592
30,5,21,Ticks_Linear_5,190,5,42,127,512286020
30,5,21,Ticks_Linear_5,191,1,48,26,512921444
30,5,21,Ticks_Linear_5,192,5,42,127,512955864
30,5,21,Ticks_Linear_5,193,1,48,28,513593108
30,5,21,Ticks_Linear_5,194,5,42,127,513625732
30,5,21,Ticks_Linear_5,195,5,42,127,514296108
30,5,21,Ticks_Linear_5,196,1,48,30,514306424
30,5,21,Ticks_Linear_5,197,1,48,27,514944368
30,5,21,Ticks_Linear_5,198,5,42,127,514976080
30,5,21,Ticks_Linear_5,199,1,48,27,515647856
30,5,21,Ticks_Linear_5,200,5,42,127,515656056
30,5,21,Ticks_Linear_5,201,1,48,27,516329152
30,5,21,Ticks_Linear_5,202,5,42,127,516335932
30,5,21,Ticks_Linear_5,203,1,48,27,517002460
30,5,21,Ticks_Linear_5,204,5,42,127,517015912
30,5,21,Ticks_Linear_5,205,1,48,27,517673672
30,5,21,Ticks_Linear_5,206,5,42,127,517695816
30,5,21,Ticks_Linear_5,207,1,48,23,518370412
30,5,21,Ticks_Linear_5,208,5,42,127,518386028
30,5,21,Ticks_Linear_5,209,1,48,31,519058480
30,5,21,Ticks_Linear_5,210,5,42,127,519076192
30,5,21,Ticks_Linear_5,211,5,42,127,519766584
30,5,21,Ticks_Linear_5,212,1,48,27,519771648
30,5,21,Ticks_Linear_5,213,5,42,127,520455600
30,5,21,Ticks_Linear_5,214,1,48,27,520458796
30,5,21,Ticks_Linear_5,215,1,48,27,521124152
30,5,21,Ticks_Linear_5,216,5,42,127,521145608
30,5,21,Ticks_Linear_5,217,5,42,127,521846036
30,5,21,Ticks_Linear_5,218,1,48,18,521873416
30,5,21,Ticks_Linear_5,219,1,48,28,522511108
30,5,21,Ticks_Linear_5,220,5,42,127,522545628
30,5,21,Ticks_Linear_5,221,1,48,27,523224496
30,5,21,Ticks_Linear_5,222,5,42,127,523245876
30,5,21,Ticks_Linear_5,223,1,48,26,523924020
30,5,21,Ticks_Linear_5,224,5,42,127,523946520
30,5,21,Ticks_Linear_5,225,1,48,23,524637548
30,5,21,Ticks_Linear_5,226,5,42,127,524645748
30,5,21,Ticks_Linear_5,227,1,48,25,525335576
30,5,21,Ticks_Linear_5,228,5,42,127,525356432
30,5,21,Ticks_Linear_5,229,5,42,127,526066044
30,5,21,Ticks_Linear_5,230,1,48,23,526072824
30,5,21,Ticks_Linear_5,231,1,48,27,526753380
30,5,21,Ticks_Linear_5,232,5,42,127,526775668
30,5,21,Ticks_Linear_5,233,1,48,22,527475232
30,5,21,Ticks_Linear_5,234,5,42,127,527486276
30,5,21,Ticks_Linear_5,235,1,48,21,528162392
30,5,21,Ticks_Linear_5,236,5,42,127,528196060
30,5,21,Ticks_Linear_5,237,1,48,25,528903148
30,5,21,Ticks_Linear_5,238,5,42,127,528915804
30,5,21,Ticks_Linear_5,239,1,48,19,529605084
30,5,21,Ticks_Linear_5,240,5,42,127,529635600
30,5,21,Ticks_Linear_5,241,1,48,29,530351100
30,5,21,Ticks_Linear_5,242,5,42,127,530355640
30,5,21,Ticks_Linear_5,243,1,48,26,531031384
30,5,21,Ticks_Linear_5,244,5,42,127,531075536
30,5,21,Ticks_Linear_5,245,1,48,21,531754132
30,5,21,Ticks_Linear_5,246,5,42,127,531796328
30,5,21,Ticks_Linear_5,247,5,42,127,532525368
30,5,21,Ticks_Linear_5,248,1,48,19,532539644
30,5,21,Ticks_Linear_5,249,5,42,127,533255420
30,5,21,Ticks_Linear_5,250,1,48,21,533280204
30,5,21,Ticks_Linear_5,251,1,48,22,533975864
30,5,21,Ticks_Linear_5,252,5,42,127,533985788
30,5,21,Ticks_Linear_5,253,5,42,127,534715872
30,5,21,Ticks_Linear_5,254,1,48,21,534732392
30,5,21,Ticks_Linear_5,255,1,48,22,535429208
30,5,21,Ticks_Linear_5,256,5,42,127,535445944
30,5,21,Ticks_Linear_5,257,1,48,21,536167600
30,5,21,Ticks_Linear_5,258,5,42,127,536186284
30,5,21,Ticks_Linear_5,259,1,48,25,536849220
30,5,21,Ticks_Linear_5,260,5,42,127,536925424
30,5,21,Ticks_Linear_5,261,1,48,21,537606084
30,5,21,Ticks_Linear_5,262,5,42,127,537665984
30,5,21,Ticks_Linear_5,263,1,48,21,538359300
30,5,21,Ticks_Linear_5,264,5,42,127,538406172
30,5,21,Ticks_Linear_5,265,1,48,18,539137088
30,5,21,Ticks_Linear_5,266,5,42,127,539145584
30,5,21,Ticks_Linear_5,267,1,48,23,539867464
30,5,21,Ticks_Linear_5,268,5,42,127,539896180
30,5,21,Ticks_Linear_5,269,5,42,127,540645812
30,5,21,Ticks_Linear_5,270,1,48,21,540653732
30,5,21,Ticks_Linear_5,271,5,42,127,541396332
30,5,21,Ticks_Linear_5,272,1,48,28,541401844
30,5,21,Ticks_Linear_5,273,5,42,127,542145956
30,5,21,Ticks_Linear_5,274,1,48,20,542185028
30,5,21,Ticks_Linear_5,275,1,48,32,542881448
30,5,21,Ticks_Linear_5,276,5,42,127,542895576
30,5,21,Ticks_Linear_5,277,1,48,32,543631824
30,5,21,Ticks_Linear_5,278,5,42,127,543656432
30,5,21,Ticks_Linear_5,279,1,48,28,544381072
30,5,21,Ticks_Linear_5,280,5,42,127,544416164
30,5,21,Ticks_Linear_5,281,1,48,29,545162372
30,5,21,Ticks_Linear_5,282,5,42,127,545175896
30,5,21,Ticks_Linear_5,283,1,48,27,545898144
30,5,21,Ticks_Linear_5,284,5,42,127,545935780
30,5,21,Ticks_Linear_5,285,1,48,28,546669936
30,5,21,Ticks_Linear_5,286,5,42,127,546695516
30,5,21,Ticks_Linear_5,287,1,48,27,547433108
30,5,21,Ticks_Linear_5,288,5,42,127,547465580
30,5,21,Ticks_Linear_5,289,1,48,32,548164244
30,5,21,Ticks_Linear_5,290,5,42,127,548235576
30,5,21,Ticks_Linear_5,291,1,48,23,548972048
30,5,21,Ticks_Linear_5,292,5,42,127,549005644
30,5,21,Ticks_Linear_5,293,5,42,127,549775792
30,5,21,Ticks_Linear_5,294,1,48,16,549782580
30,5,21,Ticks_Linear_5,295,1,48,23,550463276
30,5,21,Ticks_Linear_5,296,5,42,127,550545780
30,5,21,Ticks_Linear_5,297,1,48,15,551296636
30,5,21,Ticks_Linear_5,298,5,42,127,551326104
30,5,21,Ticks_Linear_5,299,5,42,127,552106288
30,5,21,Ticks_Linear_5,300,1,48,13,552121016
30,5,21,Ticks_Linear_5,301,5,42,127,552885644
30,5,21,Ticks_Linear_5,302,1,48,17,552896180
30,5,21,Ticks_Linear_5,303,1,48,23,553654168
30,5,21,Ticks_Linear_5,304,5,42,127,553666188
30,5,21,Ticks_Linear_5,305,5,42,127,554446152
30,5,21,Ticks_Linear_5,306,1,48,26,554467096
30,5,21,Ticks_Linear_5,307,5,42,127,555235616
30,5,21,Ticks_Linear_5,308,1,48,26,555238360
30,5,21,Ticks_Linear_5,309,5,42,127,556026348
30,5,21,Ticks_Linear_5,310,1,48,19,556032092
30,5,21,Ticks_Linear_5,311,1,48,26,556788064
30,5,21,Ticks_Linear_5,312,5,42,127,556815984
30,5,21,Ticks_Linear_5,313,1,48,19,557571756
30,5,21,Ticks_Linear_5,314,5,42,127,557606200
30,5,21,Ticks_Linear_5,315,1,48,23,558352780
30,5,21,Ticks_Linear_5,316,5,42,127,558396036
30,5,21,Ticks_Linear_5,317,1,48,24,559157004
30,5,21,Ticks_Linear_5,318,5,42,127,559195388
30,5,21,Ticks_Linear_5,319,5,42,127,559996164
30,5,21,Ticks_Linear_5,320,1,48,19,559998180
30,5,21,Ticks_Linear_5,321,5,42,127,560795888
30,5,21,Ticks_Linear_5,322,1,48,22,560810612
30,5,21,Ticks_Linear_5,323,5,42,127,561595688
30,5,21,Ticks_Linear_5,324,1,48,24,561612428
30,5,21,Ticks_Linear_5,325,1,48,18,562382696
30,5,21,Ticks_Linear_5,326,5,42,127,562395628
30,5,21,Ticks_Linear_5,327,1,48,20,563199280
30,5,21,Ticks_Linear_5,328,5,42,127,563205608
30,5,21,Ticks_Linear_5,329,5,42,127,564015772
30,5,21,Ticks_Linear_5,330,1,48,21,564018744
30,5,21,Ticks_Linear_5,331,5,42,127,564825604
30,5,21,Ticks_Linear_5,332,1,48,20,564846252
30,5,21,Ticks_Linear_5,333,1,48,18,565588140
30,5,21,Ticks_Linear_5,334,5,42,127,565635656
30,5,21,Ticks_Linear_5,335,1,48,19,566425980
30,5,21,Ticks_Linear_5,336,5,42,127,566445640
30,5,21,Ticks_Linear_5,0,9999,9999,9999,457233492
30,5,21,Ticks_Linear_5,1,9999,9999,9999,457713788
30,5,21,Ticks_Linear_5,2,9999,9999,9999,458194040
30,5,21,Ticks_Linear_5,3,9999,9999,9999,458673236
30,5,21,Ticks_Linear_5,4,9999,9999,9999,459153472
30,5,21,Ticks_Linear_5,5,9999,9999,9999,459644028
30,5,21,Ticks_Linear_5,6,9999,9999,9999,460133476
30,5,21,Ticks_Linear_5,7,9999,9999,9999,460623964
30,5,21,Ticks_Linear_5,8,9999,9999,9999,461113404
30,5,21,Ticks_Linear_5,9,9999,9999,9999,461603936
30,5,21,Ticks_Linear_5,10,9999,9999,9999,462103636
30,5,21,Ticks_Linear_5,11,9999,9999,9999,462603316
30,5,21,Ticks_Linear_5,12,9999,9999,9999,463104060
30,5,21,Ticks_Linear_5,13,9999,9999,9999,463614016
30,5,21,Ticks_Linear_5,14,9999,9999,9999,464113792
30,5,21,Ticks_Linear_5,15,9999,9999,9999,464623676
30,5,21,Ticks_Linear_5,16,9999,9999,9999,465133636
30,5,21,Ticks_Linear_5,17,9999,9999,9999,465643596
30,5,21,Ticks_Linear_5,18,9999,9999,9999,466153556
30,5,21,Ticks_Linear_5,19,9999,9999,9999,466663512
30,5,21,Ticks_Linear_5,20,9999,9999,9999,467183732
30,5,21,Ticks_Linear_5,21,9999,9999,9999,467703876
30,5,21,Ticks_Linear_5,22,9999,9999,9999,468224100
30,5,21,Ticks_Linear_5,23,9999,9999,9999,468753524
30,5,21,Ticks_Linear_5,24,9999,9999,9999,469273692
30,5,21,Ticks_Linear_5,25,9999,9999,9999,469803120
30,5,21,Ticks_Linear_5,26,9999,9999,9999,470333524
30,5,21,Ticks_Linear_5,27,9999,9999,9999,470863928
30,5,21,Ticks_Linear_5,28,9999,9999,9999,471393356
30,5,21,Ticks_Linear_5,29,9999,9999,9999,471923832
30,5,21,Ticks_Linear_5,30,9999,9999,9999,472463448
30,5,21,Ticks_Linear_5,31,9999,9999,9999,473003060
30,5,21,Ticks_Linear_5,32,9999,9999,9999,473543796
30,5,21,Ticks_Linear_5,33,9999,9999,9999,474083416
30,5,21,Ticks_Linear_5,34,9999,9999,9999,474624076
30,5,21,Ticks_Linear_5,35,9999,9999,9999,475183188
30,5,21,Ticks_Linear_5,36,9999,9999,9999,475734108
30,5,21,Ticks_Linear_5,37,9999,9999,9999,476293192
30,5,21,Ticks_Linear_5,38,9999,9999,9999,476843068
30,5,21,Ticks_Linear_5,39,9999,9999,9999,477393996
30,5,21,Ticks_Linear_5,40,9999,9999,9999,477953080
30,5,21,Ticks_Linear_5,41,9999,9999,9999,478513240
30,5,21,Ticks_Linear_5,42,9999,9999,9999,479073368
30,5,21,Ticks_Linear_5,43,9999,9999,9999,479633500
30,5,21,Ticks_Linear_5,44,9999,9999,9999,480193640
30,5,21,Ticks_Linear_5,45,9999,9999,9999,480764024
30,5,21,Ticks_Linear_5,46,9999,9999,9999,481333328
30,5,21,Ticks_Linear_5,47,9999,9999,9999,481903712
30,5,21,Ticks_Linear_5,48,9999,9999,9999,482474104
30,5,21,Ticks_Linear_5,49,9999,9999,9999,483043380
30,5,21,Ticks_Linear_5,50,9999,9999,9999,483624052
30,5,21,Ticks_Linear_5,51,9999,9999,9999,484203584
30,5,21,Ticks_Linear_5,52,9999,9999,9999,484783196
30,5,21,Ticks_Linear_5,53,9999,9999,9999,485363772
30,5,21,Ticks_Linear_5,54,9999,9999,9999,485943400
30,5,21,Ticks_Linear_5,55,9999,9999,9999,486533184
30,5,21,Ticks_Linear_5,56,9999,9999,9999,487124024
30,5,21,Ticks_Linear_5,57,9999,9999,9999,487713844
30,5,21,Ticks_Linear_5,58,9999,9999,9999,488303708
30,5,21,Ticks_Linear_5,59,9999,9999,9999,488893496
30,5,21,Ticks_Linear_5,60,9999,9999,9999,489493564
30,5,21,Ticks_Linear_5,61,9999,9999,9999,490093688
30,5,21,Ticks_Linear_5,62,9999,9999,9999,490693732
30,5,21,Ticks_Linear_5,63,9999,9999,9999,491293780
30,5,21,Ticks_Linear_5,64,9999,9999,9999,491893836
30,5,21,Ticks_Linear_5,65,9999,9999,9999,492503100
30,5,21,Ticks_Linear_5,66,9999,9999,9999,493113424
30,5,21,Ticks_Linear_5,67,9999,9999,9999,493723740
30,5,21,Ticks_Linear_5,68,9999,9999,9999,494334040
30,5,21,Ticks_Linear_5,69,9999,9999,9999,494943332
30,5,21,Ticks_Linear_5,70,9999,9999,9999,495563896
30,5,21,Ticks_Linear_5,71,9999,9999,9999,496183364
30,5,21,Ticks_Linear_5,72,9999,9999,9999,496803932
30,5,21,Ticks_Linear_5,73,9999,9999,9999,497423456
30,5,21,Ticks_Linear_5,74,9999,9999,9999,498043968
30,5,21,Ticks_Linear_5,75,9999,9999,9999,498673748
30,5,21,Ticks_Linear_5,76,9999,9999,9999,499303480
30,5,21,Ticks_Linear_5,77,9999,9999,9999,499933256
30,5,21,Ticks_Linear_5,78,9999,9999,9999,500564040
30,5,21,Ticks_Linear_5,79,9999,9999,9999,501193812
30,5,21,Ticks_Linear_5,80,9999,9999,9999,501833800
30,5,21,Ticks_Linear_5,81,9999,9999,9999,502473844
30,5,21,Ticks_Linear_5,82,9999,9999,9999,503113828
30,5,21,Ticks_Linear_5,83,9999,9999,9999,503753792
30,5,21,Ticks_Linear_5,84,9999,9999,9999,504393852
30,5,21,Ticks_Linear_5,85,9999,9999,9999,505044076
30,5,21,Ticks_Linear_5,86,9999,9999,9999,505693280
30,5,21,Ticks_Linear_5,87,9999,9999,9999,506343500
30,5,21,Ticks_Linear_5,88,9999,9999,9999,506993748
30,5,21,Ticks_Linear_5,89,9999,9999,9999,507643972
30,5,21,Ticks_Linear_5,90,9999,9999,9999,508303432
30,5,21,Ticks_Linear_5,91,9999,9999,9999,508963936
30,5,21,Ticks_Linear_5,92,9999,9999,9999,509623372
30,5,21,Ticks_Linear_5,93,9999,9999,9999,510283880
30,5,21,Ticks_Linear_5,94,9999,9999,9999,510943316
30,5,21,Ticks_Linear_5,95,9999,9999,9999,511614004
30,5,21,Ticks_Linear_5,96,9999,9999,9999,512283724
30,5,21,Ticks_Linear_5,97,9999,9999,9999,512953416
30,5,21,Ticks_Linear_5,98,9999,9999,9999,513623136
30,5,21,Ticks_Linear_5,99,9999,9999,9999,514293884
30,5,21,Ticks_Linear_5,100,9999,9999,9999,514973780
30,5,21,Ticks_Linear_5,101,9999,9999,9999,515653760
30,5,21,Ticks_Linear_5,102,9999,9999,9999,516333636
30,5,21,Ticks_Linear_5,103,9999,9999,9999,517013612
30,5,21,Ticks_Linear_5,104,9999,9999,9999,517693516
30,5,21,Ticks_Linear_5,105,9999,9999,9999,518383728
30,5,21,Ticks_Linear_5,106,9999,9999,9999,519073892
30,5,21,Ticks_Linear_5,107,9999,9999,9999,519764060
30,5,21,Ticks_Linear_5,108,9999,9999,9999,520453228
30,5,21,Ticks_Linear_5,109,9999,9999,9999,521143384
30,5,21,Ticks_Linear_5,110,9999,9999,9999,521843812
30,5,21,Ticks_Linear_5,111,9999,9999,9999,522543180
30,5,21,Ticks_Linear_5,112,9999,9999,9999,523243576
30,5,21,Ticks_Linear_5,113,9999,9999,9999,523944000
30,5,21,Ticks_Linear_5,114,9999,9999,9999,524643448
30,5,21,Ticks_Linear_5,115,9999,9999,9999,525354056
30,5,21,Ticks_Linear_5,116,9999,9999,9999,526063672
30,5,21,Ticks_Linear_5,117,9999,9999,9999,526773372
30,5,21,Ticks_Linear_5,118,9999,9999,9999,527483980
30,5,21,Ticks_Linear_5,119,9999,9999,9999,528193612
30,5,21,Ticks_Linear_5,120,9999,9999,9999,528913508
30,5,21,Ticks_Linear_5,121,9999,9999,9999,529633376
30,5,21,Ticks_Linear_5,122,9999,9999,9999,530353268
30,5,21,Ticks_Linear_5,123,9999,9999,9999,531073088
30,5,21,Ticks_Linear_5,124,9999,9999,9999,531794032
30,5,21,Ticks_Linear_5,125,9999,9999,9999,532523068
30,5,21,Ticks_Linear_5,126,9999,9999,9999,533253196
30,5,21,Ticks_Linear_5,127,9999,9999,9999,533983340
30,5,21,Ticks_Linear_5,128,9999,9999,9999,534713428
30,5,21,Ticks_Linear_5,129,9999,9999,9999,535443572
30,5,21,Ticks_Linear_5,130,9999,9999,9999,536183908
30,5,21,Ticks_Linear_5,131,9999,9999,9999,536923200
30,5,21,Ticks_Linear_5,132,9999,9999,9999,537663612
30,5,21,Ticks_Linear_5,133,9999,9999,9999,538403948
30,5,21,Ticks_Linear_5,134,9999,9999,9999,539143288
30,5,21,Ticks_Linear_5,135,9999,9999,9999,539893884
30,5,21,Ticks_Linear_5,136,9999,9999,9999,540643440
30,5,21,Ticks_Linear_5,137,9999,9999,9999,541394036
30,5,21,Ticks_Linear_5,138,9999,9999,9999,542143584
30,5,21,Ticks_Linear_5,139,9999,9999,9999,542893124
30,5,21,Ticks_Linear_5,140,9999,9999,9999,543653984
30,5,21,Ticks_Linear_5,141,9999,9999,9999,544413788
30,5,21,Ticks_Linear_5,142,9999,9999,9999,545173600
30,5,21,Ticks_Linear_5,143,9999,9999,9999,545933404
30,5,21,Ticks_Linear_5,144,9999,9999,9999,546693216
30,5,21,Ticks_Linear_5,145,9999,9999,9999,547463284
30,5,21,Ticks_Linear_5,146,9999,9999,9999,548233276
30,5,21,Ticks_Linear_5,147,9999,9999,9999,549003344
30,5,21,Ticks_Linear_5,148,9999,9999,9999,549773420
30,5,21,Ticks_Linear_5,149,9999,9999,9999,550543480
30,5,21,Ticks_Linear_5,150,9999,9999,9999,551323732
30,5,21,Ticks_Linear_5,151,9999,9999,9999,552103992
30,5,21,Ticks_Linear_5,152,9999,9999,9999,552883272
30,5,21,Ticks_Linear_5,153,9999,9999,9999,553663592
30,5,21,Ticks_Linear_5,154,9999,9999,9999,554443852
30,5,21,Ticks_Linear_5,155,9999,9999,9999,555233392
30,5,21,Ticks_Linear_5,156,9999,9999,9999,556023900
30,5,21,Ticks_Linear_5,157,9999,9999,9999,556813436
30,5,21,Ticks_Linear_5,158,9999,9999,9999,557603900
30,5,21,Ticks_Linear_5,159,9999,9999,9999,558393440
30,5,21,Ticks_Linear_5,160,9999,9999,9999,559193164
30,5,21,Ticks_Linear_5,161,9999,9999,9999,559993940
30,5,21,Ticks_Linear_5,162,9999,9999,9999,560793664
30,5,21,Ticks_Linear_5,163,9999,9999,9999,561593464
30,5,21,Ticks_Linear_5,164,9999,9999,9999,562393180
30,5,21,Ticks_Linear_5,165,9999,9999,9999,563203164
30,5,21,Ticks_Linear_5,166,9999,9999,9999,564013176
30,5,21,Ticks_Linear_5,167,9999,9999,9999,564823160
30,5,21,Ticks_Linear_5,168,9999,9999,9999,565633136
30,5,21,Ticks_Linear_5,169,9999,9999,9999,566443120
30,6,20,Ticks_Linear_8,0,5,42,127,584852968
30,6,20,Ticks_Linear_8,1,1,48,31,585441912
30,6,20,Ticks_Linear_8,2,5,42,127,585673060
30,6,20,Ticks_Linear_8,3,1,48,30,586375776
30,6,20,Ticks_Linear_8,4,5,42,127,586493376
30,6,20,Ticks_Linear_8,5,1,48,27,587260716
30,6,20,Ticks_Linear_8,6,5,42,127,587312464
30,6,20,Ticks_Linear_8,7,1,48,34,588104132
30,6,20,Ticks_Linear_8,8,5,42,127,588132704
30,6,20,Ticks_Linear_8,9,5,42,127,588942692
30,6,20,Ticks_Linear_8,10,1,48,33,588982664
30,6,20,Ticks_Linear_8,11,5,42,127,589752676
30,6,20,Ticks_Linear_8,12,1,48,23,589787400
30,6,20,Ticks_Linear_8,13,5,42,127,590562736
30,6,20,Ticks_Linear_8,14,1,48,33,590581436
30,6,20,Ticks_Linear_8,15,5,42,127,591372592
30,6,20,Ticks_Linear_8,16,5,42,127,592182524
30,6,20,Ticks_Linear_8,17,1,48,35,592225180
30,6,20,Ticks_Linear_8,18,5,42,127,592983292
30,6,20,Ticks_Linear_8,19,1,48,35,593014872
30,6,20,Ticks_Linear_8,20,5,42,127,593783388
30,6,20,Ticks_Linear_8,21,1,48,31,593795348
30,6,20,Ticks_Linear_8,22,5,42,127,594582892
30,6,20,Ticks_Linear_8,23,1,48,22,594628168
30,6,20,Ticks_Linear_8,24,1,48,27,595377020
30,6,20,Ticks_Linear_8,25,5,42,127,595382680
30,6,20,Ticks_Linear_8,26,1,48,28,596173980
30,6,20,Ticks_Linear_8,27,5,42,127,596183380
30,6,20,Ticks_Linear_8,28,5,42,127,596972848
30,6,20,Ticks_Linear_8,29,1,48,30,597006168
30,6,20,Ticks_Linear_8,30,5,42,127,597762388
30,6,20,Ticks_Linear_8,31,1,48,27,597767900
30,6,20,Ticks_Linear_8,32,1,48,30,598543216
30,6,20,Ticks_Linear_8,33,5,42,127,598552916
30,6,20,Ticks_Linear_8,34,5,42,127,599342388
30,6,20,Ticks_Linear_8,35,1,48,26,599375312
30,6,20,Ticks_Linear_8,36,1,48,27,600106040
30,6,20,Ticks_Linear_8,37,5,42,127,600133192
30,6,20,Ticks_Linear_8,38,5,42,127,600913152
30,6,20,Ticks_Linear_8,39,1,48,22,600914116
30,6,20,Ticks_Linear_8,40,5,42,127,601692508
30,6,20,Ticks_Linear_8,41,1,48,28,601695172
30,6,20,Ticks_Linear_8,42,1,48,31,602440352
30,6,20,Ticks_Linear_8,43,5,42,127,602472976
30,6,20,Ticks_Linear_8,44,1,48,23,603249740
30,6,20,Ticks_Linear_8,45,5,42,127,603253080
30,6,20,Ticks_Linear_8,46,5,42,127,604033488
30,6,20,Ticks_Linear_8,47,1,48,24,604044996
30,6,20,Ticks_Linear_8,48,5,42,127,604802360
30,6,20,Ticks_Linear_8,49,1,48,27,604822480
30,6,20,Ticks_Linear_8,50,1,48,29,605572052
30,6,20,Ticks_Linear_8,51,5,42,127,605573544
30,6,20,Ticks_Linear_8,52,5,42,127,606342720
30,6,20,Ticks_Linear_8,53,1,48,29,606367256
30,6,20,Ticks_Linear_8,54,5,42,127,607112940
30,6,20,Ticks_Linear_8,55,1,48,26,607143916
30,6,20,Ticks_Linear_8,56,5,42,127,607882708
30,6,20,Ticks_Linear_8,57,1,48,29,607896308
30,6,20,Ticks_Linear_8,58,1,48,29,608625616
30,6,20,Ticks_Linear_8,59,5,42,127,608642288
30,6,20,Ticks_Linear_8,60,5,42,127,609403152
30,6,20,Ticks_Linear_8,61,1,48,27,609430524
30,6,20,Ticks_Linear_8,62,5,42,127,610162960
30,6,20,Ticks_Linear_8,63,1,48,27,610189212
30,6,20,Ticks_Linear_8,64,5,42,127,610922916
30,6,20,Ticks_Linear_8,65,1,48,29,610936740
30,6,20,Ticks_Linear_8,66,5,42,127,611682652
30,6,20,Ticks_Linear_8,67,1,48,30,611688840
30,6,20,Ticks_Linear_8,68,5,42,127,612433324
30,6,20,Ticks_Linear_8,69,1,48,27,612478228
30,6,20,Ticks_Linear_8,70,1,48,29,613088736
30,6,20,Ticks_Linear_8,71,5,42,127,613183896
30,6,20,Ticks_Linear_8,72,1,48,26,613857608
30,6,20,Ticks_Linear_8,73,5,42,127,613933608
30,6,20,Ticks_Linear_8,74,1,48,29,614640328
30,6,20,Ticks_Linear_8,75,5,42,127,614693196
30,6,20,Ticks_Linear_8,76,1,48,26,615421636
30,6,20,Ticks_Linear_8,77,5,42,127,615442744
30,6,20,Ticks_Linear_8,78,5,42,127,616183064
30,6,20,Ticks_Linear_8,79,1,48,26,616203660
30,6,20,Ticks_Linear_8,80,1,48,19,616890784
30,6,20,Ticks_Linear_8,81,5,42,127,616922348
30,6,20,Ticks_Linear_8,82,1,48,21,617533540
30,6,20,Ticks_Linear_8,83,5,42,127,617662744
30,6,20,Ticks_Linear_8,84,1,48,24,618385828
30,6,20,Ticks_Linear_8,85,5,42,127,618403392
30,6,20,Ticks_Linear_8,86,5,42,127,619142472
30,6,20,Ticks_Linear_8,87,1,48,33,619840852
30,6,20,Ticks_Linear_8,88,5,42,127,619872712
30,6,20,Ticks_Linear_8,89,1,48,32,620602948
30,6,20,Ticks_Linear_8,90,5,42,127,620604512
30,6,20,Ticks_Linear_8,91,5,42,127,621332952
30,6,20,Ticks_Linear_8,92,1,48,33,621346032
30,6,20,Ticks_Linear_8,93,5,42,127,622062932
30,6,20,Ticks_Linear_8,94,1,48,35,622110864
30,6,20,Ticks_Linear_8,95,5,42,127,622793156
30,6,20,Ticks_Linear_8,96,1,48,31,622854012
30,6,20,Ticks_Linear_8,97,5,42,127,623513124
30,6,20,Ticks_Linear_8,98,1,48,26,623516536
30,6,20,Ticks_Linear_8,99,5,42,127,624233092
30,6,20,Ticks_Linear_8,100,1,48,28,624247220
30,6,20,Ticks_Linear_8,101,1,48,32,624924404
30,6,20,Ticks_Linear_8,102,5,42,127,624952756
30,6,20,Ticks_Linear_8,103,5,42,127,625672632
30,6,20,Ticks_Linear_8,104,1,48,17,625935860
30,6,20,Ticks_Linear_8,105,5,42,127,626392428
30,6,20,Ticks_Linear_8,106,1,48,28,626398160
30,6,20,Ticks_Linear_8,107,5,42,127,627103036
30,6,20,Ticks_Linear_8,108,1,48,24,627110120
30,6,20,Ticks_Linear_8,109,5,42,127,627812816
30,6,20,Ticks_Linear_8,110,1,48,29,627827616
30,6,20,Ticks_Linear_8,111,5,42,127,628523352
30,6,20,Ticks_Linear_8,112,1,48,25,628533364
30,6,20,Ticks_Linear_8,113,1,48,27,629230060
30,6,20,Ticks_Linear_8,114,5,42,127,629233104
30,6,20,Ticks_Linear_8,115,5,42,127,629942668
30,6,20,Ticks_Linear_8,116,1,48,27,629945416
30,6,20,Ticks_Linear_8,117,5,42,127,630643092
30,6,20,Ticks_Linear_8,118,1,48,27,630660448
30,6,20,Ticks_Linear_8,119,5,42,127,631342616
30,6,20,Ticks_Linear_8,120,1,48,21,631346708
30,6,20,Ticks_Linear_8,121,1,48,24,632030000
30,6,20,Ticks_Linear_8,122,5,42,127,632042856
30,6,20,Ticks_Linear_8,123,1,48,26,632740160
30,6,20,Ticks_Linear_8,124,5,42,127,632743276
30,6,20,Ticks_Linear_8,125,5,42,127,633442588
30,6,20,Ticks_Linear_8,126,1,48,22,633476780
30,6,20,Ticks_Linear_8,127,5,42,127,634132824
30,6,20,Ticks_Linear_8,128,1,48,24,634146056
30,6,20,Ticks_Linear_8,129,1,48,29,634795652
30,6,20,Ticks_Linear_8,130,5,42,127,634823032
30,6,20,Ticks_Linear_8,131,5,42,127,635513200
30,6,20,Ticks_Linear_8,132,1,48,23,635561112
30,6,20,Ticks_Linear_8,133,5,42,127,636203584
30,6,20,Ticks_Linear_8,134,1,48,22,636208800
30,6,20,Ticks_Linear_8,135,1,48,20,636887684
30,6,20,Ticks_Linear_8,136,5,42,127,636892524
30,6,20,Ticks_Linear_8,137,5,42,127,637572508
30,6,20,Ticks_Linear_8,138,1,48,21,637609544
30,6,20,Ticks_Linear_8,139,1,48,18,638227048
30,6,20,Ticks_Linear_8,140,5,42,127,638253524
30,6,20,Ticks_Linear_8,141,5,42,127,638942624
30,6,20,Ticks_Linear_8,142,1,48,22,638955928
30,6,20,Ticks_Linear_8,143,5,42,127,639622676
30,6,20,Ticks_Linear_8,144,1,48,23,639661228
30,6,20,Ticks_Linear_8,145,1,48,21,640242672
30,6,20,Ticks_Linear_8,146,5,42,127,640302572
30,6,20,Ticks_Linear_8,147,5,42,127,640973544
30,6,20,Ticks_Linear_8,148,1,48,23,641017476
30,6,20,Ticks_Linear_8,149,1,48,20,641612820
30,6,20,Ticks_Linear_8,150,5,42,127,641642960
30,6,20,Ticks_Linear_8,151,5,42,127,642312612
30,6,20,Ticks_Linear_8,152,1,48,26,642373996
30,6,20,Ticks_Linear_8,153,5,42,127,642983280
30,6,20,Ticks_Linear_8,154,1,48,27,643007288
30,6,20,Ticks_Linear_8,155,5,42,127,643652924
30,6,20,Ticks_Linear_8,156,1,48,27,643691548
30,6,20,Ticks_Linear_8,157,1,48,23,644235920
30,6,20,Ticks_Linear_8,158,5,42,127,644312352
30,6,20,Ticks_Linear_8,159,5,42,127,644973088
30,6,20,Ticks_Linear_8,160,1,48,20,645106740
30,6,20,Ticks_Linear_8,161,5,42,127,645633276
30,6,20,Ticks_Linear_8,162,1,48,27,645640396
30,6,20,Ticks_Linear_8,163,5,42,127,646292736
30,6,20,Ticks_Linear_8,164,1,48,20,646320572
30,6,20,Ticks_Linear_8,165,1,48,17,646871992
30,6,20,Ticks_Linear_8,166,5,42,127,646953308
30,6,20,Ticks_Linear_8,167,1,48,22,647587016
30,6,20,Ticks_Linear_8,168,5,42,127,647602484
30,6,20,Ticks_Linear_8,169,1,48,31,648243256
30,6,20,Ticks_Linear_8,170,5,42,127,648253028
30,6,20,Ticks_Linear_8,171,5,42,127,648903184
30,6,20,Ticks_Linear_8,172,1,48,29,648984664
30,6,20,Ticks_Linear_8,173,5,42,127,649553356
30,6,20,Ticks_Linear_8,174,1,48,36,649630532
30,6,20,Ticks_Linear_8,175,5,42,127,650202460
30,6,20,Ticks_Linear_8,176,1,48,28,650247764
30,6,20,Ticks_Linear_8,177,5,42,127,650842376
30,6,20,Ticks_Linear_8,178,1,48,28,650902716
30,6,20,Ticks_Linear_8,179,1,48,34,651478540
30,6,20,Ticks_Linear_8,180,5,42,127,651482480
30,6,20,Ticks_Linear_8,181,1,48,35,652091804
30,6,20,Ticks_Linear_8,182,5,42,127,652122472
30,6,20,Ticks_Linear_8,183,1,48,28,652736708
30,6,20,Ticks_Linear_8,184,5,42,127,652762360
30,6,20,Ticks_Linear_8,185,5,42,127,653402356
30,6,20,Ticks_Linear_8,186,1,48,27,653417680
30,6,20,Ticks_Linear_8,187,1,48,34,654007372
30,6,20,Ticks_Linear_8,188,5,42,127,654033176
30,6,20,Ticks_Linear_8,189,5,42,127,654662988
30,6,20,Ticks_Linear_8,190,1,48,27,654683032
30,6,20,Ticks_Linear_8,191,5,42,127,655292692
30,6,20,Ticks_Linear_8,192,1,48,22,655312736
30,6,20,Ticks_Linear_8,193,1,48,28,655906568
30,6,20,Ticks_Linear_8,194,5,42,127,655922640
30,6,20,Ticks_Linear_8,195,5,42,127,656553252
30,6,20,Ticks_Linear_8,196,1,48,26,656562740
30,6,20,Ticks_Linear_8,197,1,48,29,657165632
30,6,20,Ticks_Linear_8,198,5,42,127,657172864
30,6,20,Ticks_Linear_8,199,1,48,27,657793140
30,6,20,Ticks_Linear_8,200,5,42,127,657794848
30,6,20,Ticks_Linear_8,201,5,42,127,658412884
30,6,20,Ticks_Linear_8,202,1,48,30,658432632
30,6,20,Ticks_Linear_8,203,1,48,32,658988940
30,6,20,Ticks_Linear_8,204,5,42,127,659032720
30,6,20,Ticks_Linear_8,205,5,42,127,659653072
30,6,20,Ticks_Linear_8,206,1,48,28,659658212
30,6,20,Ticks_Linear_8,207,5,42,127,660263256
30,6,20,Ticks_Linear_8,208,1,48,33,660267276
30,6,20,Ticks_Linear_8,209,5,42,127,660872740
30,6,20,Ticks_Linear_8,210,1,48,31,660893312
30,6,20,Ticks_Linear_8,211,5,42,127,661482976
30,6,20,Ticks_Linear_8,212,1,48,25,661493888
30,6,20,Ticks_Linear_8,213,1,48,33,662067500
30,6,20,Ticks_Linear_8,214,5,42,127,662093076
30,6,20,Ticks_Linear_8,215,5,42,127,662702568
30,6,20,Ticks_Linear_8,216,1,48,33,662713556
30,6,20,Ticks_Linear_8,217,5,42,127,663302492
30,6,20,Ticks_Linear_8,218,1,48,32,663318936
30,6,20,Ticks_Linear_8,219,5,42,127,663902616
30,6,20,Ticks_Linear_8,220,1,48,30,663947520
30,6,20,Ticks_Linear_8,221,5,42,127,664502516
30,6,20,Ticks_Linear_8,222,1,48,22,664521436
30,6,20,Ticks_Linear_8,223,1,48,30,665038184
30,6,20,Ticks_Linear_8,224,5,42,127,665102580
30,6,20,Ticks_Linear_8,225,1,48,23,665660808
30,6,20,Ticks_Linear_8,226,5,42,127,665702708
30,6,20,Ticks_Linear_8,227,1,48,31,666290456
30,6,20,Ticks_Linear_8,228,5,42,127,666292500
30,6,20,Ticks_Linear_8,229,5,42,127,666882520
30,6,20,Ticks_Linear_8,230,1,48,25,666910368
30,6,20,Ticks_Linear_8,231,1,48,28,667466288
30,6,20,Ticks_Linear_8,232,5,42,127,667473224
30,6,20,Ticks_Linear_8,233,5,42,127,668063096
30,6,20,Ticks_Linear_8,234,1,48,27,668094600
30,6,20,Ticks_Linear_8,235,1,48,34,668583048
30,6,20,Ticks_Linear_8,236,5,42,127,668653104
30,6,20,Ticks_Linear_8,237,5,42,127,669232444
30,6,20,Ticks_Linear_8,238,1,48,27,669233408
30,6,20,Ticks_Linear_8,239,5,42,127,669813240
30,6,20,Ticks_Linear_8,240,1,48,25,669834184
30,6,20,Ticks_Linear_8,241,5,42,127,670392700
30,6,20,Ticks_Linear_8,242,1,48,23,670417384
30,6,20,Ticks_Linear_8,243,1,48,23,670920648
30,6,20,Ticks_Linear_8,244,5,42,127,670973344
30,6,20,Ticks_Linear_8,245,1,48,28,671536756
30,6,20,Ticks_Linear_8,246,5,42,127,671552976
30,6,20,Ticks_Linear_8,247,5,42,127,672123224
30,6,20,Ticks_Linear_8,248,1,48,26,672168056
30,6,20,Ticks_Linear_8,249,5,42,127,672692572
30,6,20,Ticks_Linear_8,250,1,48,24,672721604
30,6,20,Ticks_Linear_8,251,5,42,127,673263260
30,6,20,Ticks_Linear_8,252,1,48,23,673285424
30,6,20,Ticks_Linear_8,253,1,48,27,673815952
30,6,20,Ticks_Linear_8,254,5,42,127,673833216
30,6,20,Ticks_Linear_8,255,1,48,29,674390396
30,6,20,Ticks_Linear_8,256,5,42,127,674402788
30,6,20,Ticks_Linear_8,257,1,48,29,674952100
30,6,20,Ticks_Linear_8,258,5,42,127,674962924
30,6,20,Ticks_Linear_8,259,1,48,24,675492992
30,6,20,Ticks_Linear_8,260,5,42,127,675523056
30,6,20,Ticks_Linear_8,261,1,48,29,676080596
30,6,20,Ticks_Linear_8,262,5,42,127,676083192
30,6,20,Ticks_Linear_8,263,1,48,30,676618140
30,6,20,Ticks_Linear_8,264,5,42,127,676643124
30,6,20,Ticks_Linear_8,265,1,48,29,677201372
30,6,20,Ticks_Linear_8,266,5,42,127,677203260
30,6,20,Ticks_Linear_8,267,5,42,127,677753064
30,6,20,Ticks_Linear_8,268,1,48,29,677772440
30,6,20,Ticks_Linear_8,269,5,42,127,678303088
30,6,20,Ticks_Linear_8,270,1,48,28,678369108
30,6,20,Ticks_Linear_8,271,1,48,29,678826700
30,6,20,Ticks_Linear_8,272,5,42,127,678853032
30,6,20,Ticks_Linear_8,273,1,48,29,679352316
30,6,20,Ticks_Linear_8,274,5,42,127,679402832
30,6,20,Ticks_Linear_8,275,1,48,25,679923012
30,6,20,Ticks_Linear_8,276,5,42,127,679952804
30,6,20,Ticks_Linear_8,277,1,48,26,680482948
30,6,20,Ticks_Linear_8,278,5,42,127,680493392
30,6,20,Ticks_Linear_8,279,1,48,30,681025776
30,6,20,Ticks_Linear_8,280,5,42,127,681043268
30,6,20,Ticks_Linear_8,281,5,42,127,681582964
30,6,20,Ticks_Linear_8,282,1,48,27,681584376
30,6,20,Ticks_Linear_8,283,1,48,28,682103364
30,6,20,Ticks_Linear_8,284,5,42,127,682122796
30,6,20,Ticks_Linear_8,285,1,48,26,682662716
30,6,20,Ticks_Linear_8,286,5,42,127,682664580
30,6,20,Ticks_Linear_8,287,5,42,127,683192600
30,6,20,Ticks_Linear_8,288,1,48,28,683208296
30,6,20,Ticks_Linear_8,289,5,42,127,683723228
30,6,20,Ticks_Linear_8,290,1,48,27,683734212
30,6,20,Ticks_Linear_8,291,5,42,127,684252656
30,6,20,Ticks_Linear_8,292,1,48,23,684257500
30,6,20,Ticks_Linear_8,293,1,48,29,684762644
30,6,20,Ticks_Linear_8,294,5,42,127,684782976
30,6,20,Ticks_Linear_8,295,5,42,127,685313688
30,6,20,Ticks_Linear_8,296,1,48,29,685319456
30,6,20,Ticks_Linear_8,297,5,42,127,685832660
30,6,20,Ticks_Linear_8,298,1,48,27,685860188
30,6,20,Ticks_Linear_8,299,5,42,127,686352804
30,6,20,Ticks_Linear_8,300,1,48,25,686372328
30,6,20,Ticks_Linear_8,301,1,48,30,686869676
30,6,20,Ticks_Linear_8,302,5,42,127,686872868
30,6,20,Ticks_Linear_8,303,1,48,29,687378284
30,6,20,Ticks_Linear_8,304,5,42,127,687393236
30,6,20,Ticks_Linear_8,305,5,42,127,687913536
30,6,20,Ticks_Linear_8,306,1,48,30,687947580
30,6,20,Ticks_Linear_8,307,5,42,127,688423272
30,6,20,Ticks_Linear_8,308,1,48,22,688466600
30,6,20,Ticks_Linear_8,309,5,42,127,688933380
30,6,20,Ticks_Linear_8,310,1,48,29,688973420
30,6,20,Ticks_Linear_8,311,5,42,127,689443488
30,6,20,Ticks_Linear_8,312,1,48,23,689474844
30,6,20,Ticks_Linear_8,313,5,42,127,689953296
30,6,20,Ticks_Linear_8,314,1,48,25,689983452
30,6,20,Ticks_Linear_8,315,5,42,127,690463332
30,6,20,Ticks_Linear_8,316,1,48,29,690478508
30,6,20,Ticks_Linear_8,317,5,42,127,690963032
30,6,20,Ticks_Linear_8,318,1,48,31,690969672
30,6,20,Ticks_Linear_8,319,5,42,127,691462508
30,6,20,Ticks_Linear_8,320,1,48,31,691495208
30,6,20,Ticks_Linear_8,321,1,48,30,691960180
30,6,20,Ticks_Linear_8,322,5,42,127,691963300
30,6,20,Ticks_Linear_8,323,5,42,127,692463156
30,6,20,Ticks_Linear_8,324,1,48,28,692466572
30,6,20,Ticks_Linear_8,325,1,48,26,692959360
30,6,20,Ticks_Linear_8,326,5,42,127,692962552
30,6,20,Ticks_Linear_8,327,1,48,24,693443484
30,6,20,Ticks_Linear_8,328,5,42,127,693453112
30,6,20,Ticks_Linear_8,329,1,48,34,693936148
30,6,20,Ticks_Linear_8,330,5,42,127,693942556
30,6,20,Ticks_Linear_8,331,1,48,34,694433348
30,6,20,Ticks_Linear_8,332,5,42,127,694434756
30,6,20,Ticks_Linear_8,333,5,42,127,694922568
30,6,20,Ticks_Linear_8,334,1,48,27,694942684
30,6,20,Ticks_Linear_8,335,5,42,127,695413204
30,6,20,Ticks_Linear_8,0,9999,9999,9999,584850520
30,6,20,Ticks_Linear_8,1,9999,9999,9999,585670760
30,6,20,Ticks_Linear_8,2,9999,9999,9999,586491004
30,6,20,Ticks_Linear_8,3,9999,9999,9999,587310164
30,6,20,Ticks_Linear_8,4,9999,9999,9999,588130408
30,6,20,Ticks_Linear_8,5,9999,9999,9999,588940396
30,6,20,Ticks_Linear_8,6,9999,9999,9999,589750380
30,6,20,Ticks_Linear_8,7,9999,9999,9999,590560360
30,6,20,Ticks_Linear_8,8,9999,9999,9999,591370344
30,6,20,Ticks_Linear_8,9,9999,9999,9999,592180296
30,6,20,Ticks_Linear_8,10,9999,9999,9999,592981068
30,6,20,Ticks_Linear_8,11,9999,9999,9999,593780792
30,6,20,Ticks_Linear_8,12,9999,9999,9999,594580592
30,6,20,Ticks_Linear_8,13,9999,9999,9999,595380308
30,6,20,Ticks_Linear_8,14,9999,9999,9999,596181080
30,6,20,Ticks_Linear_8,15,9999,9999,9999,596970552
30,6,20,Ticks_Linear_8,16,9999,9999,9999,597760088
30,6,20,Ticks_Linear_8,17,9999,9999,9999,598550620
30,6,20,Ticks_Linear_8,18,9999,9999,9999,599340088
30,6,20,Ticks_Linear_8,19,9999,9999,9999,600130668
30,6,20,Ticks_Linear_8,20,9999,9999,9999,600910928
30,6,20,Ticks_Linear_8,21,9999,9999,9999,601690208
30,6,20,Ticks_Linear_8,22,9999,9999,9999,602470456
30,6,20,Ticks_Linear_8,23,9999,9999,9999,603250780
30,6,20,Ticks_Linear_8,24,9999,9999,9999,604031040
30,6,20,Ticks_Linear_8,25,9999,9999,9999,604800060
30,6,20,Ticks_Linear_8,26,9999,9999,9999,605570132
30,6,20,Ticks_Linear_8,27,9999,9999,9999,606340200
30,6,20,Ticks_Linear_8,28,9999,9999,9999,607110268
30,6,20,Ticks_Linear_8,29,9999,9999,9999,607880260
30,6,20,Ticks_Linear_8,30,9999,9999,9999,608640064
30,6,20,Ticks_Linear_8,31,9999,9999,9999,609400928
30,6,20,Ticks_Linear_8,32,9999,9999,9999,610160736
30,6,20,Ticks_Linear_8,33,9999,9999,9999,610920544
30,6,20,Ticks_Linear_8,34,9999,9999,9999,611680356
30,6,20,Ticks_Linear_8,35,9999,9999,9999,612430952
30,6,20,Ticks_Linear_8,36,9999,9999,9999,613180492
30,6,20,Ticks_Linear_8,37,9999,9999,9999,613931088
30,6,20,Ticks_Linear_8,38,9999,9999,9999,614690896
30,6,20,Ticks_Linear_8,39,9999,9999,9999,615440444
30,6,20,Ticks_Linear_8,40,9999,9999,9999,616180840
30,6,20,Ticks_Linear_8,41,9999,9999,9999,616920124
30,6,20,Ticks_Linear_8,42,9999,9999,9999,617660520
30,6,20,Ticks_Linear_8,43,9999,9999,9999,618400872
30,6,20,Ticks_Linear_8,44,9999,9999,9999,619140172
30,6,20,Ticks_Linear_8,45,9999,9999,9999,619870264
30,6,20,Ticks_Linear_8,46,9999,9999,9999,620600424
30,6,20,Ticks_Linear_8,47,9999,9999,9999,621330504
30,6,20,Ticks_Linear_8,48,9999,9999,9999,622060632
30,6,20,Ticks_Linear_8,49,9999,9999,9999,622790780
30,6,20,Ticks_Linear_8,50,9999,9999,9999,623510600
30,6,20,Ticks_Linear_8,51,9999,9999,9999,624230496
30,6,20,Ticks_Linear_8,52,9999,9999,9999,624950384
30,6,20,Ticks_Linear_8,53,9999,9999,9999,625670260
30,6,20,Ticks_Linear_8,54,9999,9999,9999,626390128
30,6,20,Ticks_Linear_8,55,9999,9999,9999,627100736
30,6,20,Ticks_Linear_8,56,9999,9999,9999,627810368
30,6,20,Ticks_Linear_8,57,9999,9999,9999,628521052
30,6,20,Ticks_Linear_8,58,9999,9999,9999,629230656
30,6,20,Ticks_Linear_8,59,9999,9999,9999,629940296
30,6,20,Ticks_Linear_8,60,9999,9999,9999,630640716
30,6,20,Ticks_Linear_8,61,9999,9999,9999,631340092
30,6,20,Ticks_Linear_8,62,9999,9999,9999,632040556
30,6,20,Ticks_Linear_8,63,9999,9999,9999,632740980
30,6,20,Ticks_Linear_8,64,9999,9999,9999,633440360
30,6,20,Ticks_Linear_8,65,9999,9999,9999,634130524
30,6,20,Ticks_Linear_8,66,9999,9999,9999,634820732
30,6,20,Ticks_Linear_8,67,9999,9999,9999,635510900
30,6,20,Ticks_Linear_8,68,9999,9999,9999,636201064
30,6,20,Ticks_Linear_8,69,9999,9999,9999,636890224
30,6,20,Ticks_Linear_8,70,9999,9999,9999,637570136
30,6,20,Ticks_Linear_8,71,9999,9999,9999,638251080
30,6,20,Ticks_Linear_8,72,9999,9999,9999,638940252
30,6,20,Ticks_Linear_8,73,9999,9999,9999,639620156
30,6,20,Ticks_Linear_8,74,9999,9999,9999,640300124
30,6,20,Ticks_Linear_8,75,9999,9999,9999,640970872
30,6,20,Ticks_Linear_8,76,9999,9999,9999,641640512
30,6,20,Ticks_Linear_8,77,9999,9999,9999,642310212
30,6,20,Ticks_Linear_8,78,9999,9999,9999,642980980
30,6,20,Ticks_Linear_8,79,9999,9999,9999,643650624
30,6,20,Ticks_Linear_8,80,9999,9999,9999,644310128
30,6,20,Ticks_Linear_8,81,9999,9999,9999,644970568
30,6,20,Ticks_Linear_8,82,9999,9999,9999,645631048
30,6,20,Ticks_Linear_8,83,9999,9999,9999,646290508
30,6,20,Ticks_Linear_8,84,9999,9999,9999,646951008
30,6,20,Ticks_Linear_8,85,9999,9999,9999,647600184
30,6,20,Ticks_Linear_8,86,9999,9999,9999,648250432
30,6,20,Ticks_Linear_8,87,9999,9999,9999,648900736
30,6,20,Ticks_Linear_8,88,9999,9999,9999,649550908
30,6,20,Ticks_Linear_8,89,9999,9999,9999,650200160
30,6,20,Ticks_Linear_8,90,9999,9999,9999,650840152
30,6,20,Ticks_Linear_8,91,9999,9999,9999,651480184
30,6,20,Ticks_Linear_8,92,9999,9999,9999,652120172
30,6,20,Ticks_Linear_8,93,9999,9999,9999,652760136
30,6,20,Ticks_Linear_8,94,9999,9999,9999,653400132
30,6,20,Ticks_Linear_8,95,9999,9999,9999,654030952
30,6,20,Ticks_Linear_8,96,9999,9999,9999,654660688
30,6,20,Ticks_Linear_8,97,9999,9999,9999,655290468
30,6,20,Ticks_Linear_8,98,9999,9999,9999,655920192
30,6,20,Ticks_Linear_8,99,9999,9999,9999,656551028
30,6,20,Ticks_Linear_8,100,9999,9999,9999,657170492
30,6,20,Ticks_Linear_8,101,9999,9999,9999,657791064
30,6,20,Ticks_Linear_8,102,9999,9999,9999,658410588
30,6,20,Ticks_Linear_8,103,9999,9999,9999,659030124
30,6,20,Ticks_Linear_8,104,9999,9999,9999,659650624
30,6,20,Ticks_Linear_8,105,9999,9999,9999,660260956
30,6,20,Ticks_Linear_8,106,9999,9999,9999,660870220
30,6,20,Ticks_Linear_8,107,9999,9999,9999,661480524
30,6,20,Ticks_Linear_8,108,9999,9999,9999,662090852
30,6,20,Ticks_Linear_8,109,9999,9999,9999,662700120
30,6,20,Ticks_Linear_8,110,9999,9999,9999,663300168
30,6,20,Ticks_Linear_8,111,9999,9999,9999,663900240
30,6,20,Ticks_Linear_8,112,9999,9999,9999,664500288
30,6,20,Ticks_Linear_8,113,9999,9999,9999,665100356
30,6,20,Ticks_Linear_8,114,9999,9999,9999,665700408
30,6,20,Ticks_Linear_8,115,9999,9999,9999,666290236
30,6,20,Ticks_Linear_8,116,9999,9999,9999,666880068
30,6,20,Ticks_Linear_8,117,9999,9999,9999,667470924
30,6,20,Ticks_Linear_8,118,9999,9999,9999,668060796
30,6,20,Ticks_Linear_8,119,9999,9999,9999,668650580
30,6,20,Ticks_Linear_8,120,9999,9999,9999,669230144
30,6,20,Ticks_Linear_8,121,9999,9999,9999,669810792
30,6,20,Ticks_Linear_8,122,9999,9999,9999,670390324
30,6,20,Ticks_Linear_8,123,9999,9999,9999,670970968
30,6,20,Ticks_Linear_8,124,9999,9999,9999,671550528
30,6,20,Ticks_Linear_8,125,9999,9999,9999,672120928
30,6,20,Ticks_Linear_8,126,9999,9999,9999,672690272
30,6,20,Ticks_Linear_8,127,9999,9999,9999,673260664
30,6,20,Ticks_Linear_8,128,9999,9999,9999,673830992
30,6,20,Ticks_Linear_8,129,9999,9999,9999,674400340
30,6,20,Ticks_Linear_8,130,9999,9999,9999,674960476
30,6,20,Ticks_Linear_8,131,9999,9999,9999,675520608
30,6,20,Ticks_Linear_8,132,9999,9999,9999,676080744
30,6,20,Ticks_Linear_8,133,9999,9999,9999,676640828
30,6,20,Ticks_Linear_8,134,9999,9999,9999,677200984
30,6,20,Ticks_Linear_8,135,9999,9999,9999,677750840
30,6,20,Ticks_Linear_8,136,9999,9999,9999,678300788
30,6,20,Ticks_Linear_8,137,9999,9999,9999,678850660
30,6,20,Ticks_Linear_8,138,9999,9999,9999,679400532
30,6,20,Ticks_Linear_8,139,9999,9999,9999,679950432
30,6,20,Ticks_Linear_8,140,9999,9999,9999,680491096
30,6,20,Ticks_Linear_8,141,9999,9999,9999,681040968
30,6,20,Ticks_Linear_8,142,9999,9999,9999,681580664
30,6,20,Ticks_Linear_8,143,9999,9999,9999,682120276
30,6,20,Ticks_Linear_8,144,9999,9999,9999,682660944
30,6,20,Ticks_Linear_8,145,9999,9999,9999,683190376
30,6,20,Ticks_Linear_8,146,9999,9999,9999,683720780
30,6,20,Ticks_Linear_8,147,9999,9999,9999,684250208
30,6,20,Ticks_Linear_8,148,9999,9999,9999,684780604
30,6,20,Ticks_Linear_8,149,9999,9999,9999,685311092
30,6,20,Ticks_Linear_8,150,9999,9999,9999,685830212
30,6,20,Ticks_Linear_8,151,9999,9999,9999,686350432
30,6,20,Ticks_Linear_8,152,9999,9999,9999,686870644
30,6,20,Ticks_Linear_8,153,9999,9999,9999,687390788
30,6,20,Ticks_Linear_8,154,9999,9999,9999,687911012
30,6,20,Ticks_Linear_8,155,9999,9999,9999,688420972
30,6,20,Ticks_Linear_8,156,9999,9999,9999,688930932
30,6,20,Ticks_Linear_8,157,9999,9999,9999,689440892
30,6,20,Ticks_Linear_8,158,9999,9999,9999,689950776
30,6,20,Ticks_Linear_8,159,9999,9999,9999,690460736
30,6,20,Ticks_Linear_8,160,9999,9999,9999,690960512
30,6,20,Ticks_Linear_8,161,9999,9999,9999,691460212
30,6,20,Ticks_Linear_8,162,9999,9999,9999,691960924
30,6,20,Ticks_Linear_8,163,9999,9999,9999,692460632
30,6,20,Ticks_Linear_8,164,9999,9999,9999,692960324
30,6,20,Ticks_Linear_8,165,9999,9999,9999,693450816
30,6,20,Ticks_Linear_8,166,9999,9999,9999,693940332
30,6,20,Ticks_Linear_8,167,9999,9999,9999,694430824
30,6,20,Ticks_Linear_8,168,9999,9999,9999,694920268
30,6,20,Ticks_Linear_8,169,9999,9999,9999,695410756
30,7,23,Ticks_Phase_5,0,5,42,127,710295048
30,7,23,Ticks_Phase_5,1,5,42,127,710794532
30,7,23,Ticks_Phase_5,2,5,42,127,711295512
30,7,23,Ticks_Phase_5,3,5,42,127,711795224
30,7,23,Ticks_Phase_5,4,5,42,127,712294712
30,7,23,Ticks_Phase_5,5,5,42,127,712794568
30,7,23,Ticks_Phase_5,6,1,48,32,713278668
30,7,23,Ticks_Phase_5,7,5,42,127,713295248
30,7,23,Ticks_Phase_5,8,1,48,33,713788312
30,7,23,Ticks_Phase_5,9,5,42,127,713794784
30,7,23,Ticks_Phase_5,10,1,48,32,714293040
30,7,23,Ticks_Phase_5,11,5,42,127,714294772
30,7,23,Ticks_Phase_5,12,5,42,127,714795364
30,7,23,Ticks_Phase_5,13,1,48,38,714813992
30,7,23,Ticks_Phase_5,14,1,48,30,715295204
30,7,23,Ticks_Phase_5,15,5,42,127,715296688
30,7,23,Ticks_Phase_5,16,5,42,127,715794892
30,7,23,Ticks_Phase_5,17,1,48,32,715809172
30,7,23,Ticks_Phase_5,18,5,42,127,716294504
30,7,23,Ticks_Phase_5,19,1,48,32,716308184
30,7,23,Ticks_Phase_5,20,1,48,38,716787020
30,7,23,Ticks_Phase_5,21,5,42,127,716795432
30,7,23,Ticks_Phase_5,22,1,48,36,717291572
30,7,23,Ticks_Phase_5,23,5,42,127,717295196
30,7,23,Ticks_Phase_5,24,1,48,33,717783480
30,7,23,Ticks_Phase_5,25,5,42,127,717794660
30,7,23,Ticks_Phase_5,26,5,42,127,718295480
30,7,23,Ticks_Phase_5,27,1,48,29,718323020
30,7,23,Ticks_Phase_5,28,1,48,36,718790260
30,7,23,Ticks_Phase_5,29,5,42,127,718795160
30,7,23,Ticks_Phase_5,30,1,48,33,719290476
30,7,23,Ticks_Phase_5,31,5,42,127,719294776
30,7,23,Ticks_Phase_5,32,5,42,127,719794696
30,7,23,Ticks_Phase_5,33,1,48,27,719795660
30,7,23,Ticks_Phase_5,34,5,42,127,720295132
30,7,23,Ticks_Phase_5,35,1,48,36,720311504
30,7,23,Ticks_Phase_5,36,5,42,127,720795120
30,7,23,Ticks_Phase_5,37,1,48,33,720798840
30,7,23,Ticks_Phase_5,38,1,48,38,721272152
30,7,23,Ticks_Phase_5,39,5,42,127,721294876
30,7,23,Ticks_Phase_5,40,5,42,127,721794348
30,7,23,Ticks_Phase_5,41,1,48,31,721818132
30,7,23,Ticks_Phase_5,42,5,42,127,722295156
30,7,23,Ticks_Phase_5,43,1,48,29,722318348
30,7,23,Ticks_Phase_5,44,5,42,127,722794916
30,7,23,Ticks_Phase_5,45,1,48,28,722806500
30,7,23,Ticks_Phase_5,46,1,48,32,723279968
30,7,23,Ticks_Phase_5,47,5,42,127,723294896
30,7,23,Ticks_Phase_5,48,5,42,127,723795268
30,7,23,Ticks_Phase_5,49,1,48,29,723814644
30,7,23,Ticks_Phase_5,50,5,42,127,724294956
30,7,23,Ticks_Phase_5,51,1,48,29,724313804
30,7,23,Ticks_Phase_5,52,5,42,127,724794868
30,7,23,Ticks_Phase_5,53,1,48,30,724795836
30,7,23,Ticks_Phase_5,54,5,42,127,725285196
30,7,23,Ticks_Phase_5,55,1,48,35,725306444
30,7,23,Ticks_Phase_5,56,1,48,32,725776988
30,7,23,Ticks_Phase_5,57,5,42,127,725785028
30,7,23,Ticks_Phase_5,58,5,42,127,726284724
30,7,23,Ticks_Phase_5,59,1,48,14,726297132
30,7,23,Ticks_Phase_5,60,1,48,28,726764060
30,7,23,Ticks_Phase_5,61,5,42,127,726785600
30,7,23,Ticks_Phase_5,62,1,48,32,727249808
30,7,23,Ticks_Phase_5,63,5,42,127,727284964
30,7,23,Ticks_Phase_5,64,1,48,29,727769716
30,7,23,Ticks_Phase_5,65,5,42,127,727784804
30,7,23,Ticks_Phase_5,66,5,42,127,728284796
30,7,23,Ticks_Phase_5,67,1,48,29,728318692
30,7,23,Ticks_Phase_5,68,5,42,127,728785456
30,7,23,Ticks_Phase_5,69,1,48,33,728792700
30,7,23,Ticks_Phase_5,70,5,42,127,729284920
30,7,23,Ticks_Phase_5,71,1,48,20,729331692
30,7,23,Ticks_Phase_5,72,5,42,127,729784608
30,7,23,Ticks_Phase_5,73,1,48,32,729813716
30,7,23,Ticks_Phase_5,74,5,42,127,730285640
30,7,23,Ticks_Phase_5,75,1,48,40,730314600
30,7,23,Ticks_Phase_5,76,5,42,127,730795512
30,7,23,Ticks_Phase_5,77,5,42,127,731295448
30,7,23,Ticks_Phase_5,78,1,48,29,731332560
30,7,23,Ticks_Phase_5,79,5,42,127,731794840
30,7,23,Ticks_Phase_5,80,1,48,24,731800500
30,7,23,Ticks_Phase_5,81,5,42,127,732294452
30,7,23,Ticks_Phase_5,82,1,48,34,732305212
30,7,23,Ticks_Phase_5,83,1,48,33,732780696
30,7,23,Ticks_Phase_5,84,5,42,127,732795480
30,7,23,Ticks_Phase_5,85,5,42,127,733294952
30,7,23,Ticks_Phase_5,86,1,48,34,733300916
30,7,23,Ticks_Phase_5,87,5,42,127,733794792
30,7,23,Ticks_Phase_5,88,1,48,35,733815288
30,7,23,Ticks_Phase_5,89,1,48,31,734303688
30,7,23,Ticks_Phase_5,90,5,42,127,734305556
30,7,23,Ticks_Phase_5,91,1,48,29,734795404
30,7,23,Ticks_Phase_5,92,5,42,127,734805316
30,7,23,Ticks_Phase_5,93,1,48,27,735296516
30,7,23,Ticks_Phase_5,94,5,42,127,735305228
30,7,23,Ticks_Phase_5,95,1,48,35,735792316
30,7,23,Ticks_Phase_5,96,5,42,127,735804768
30,7,23,Ticks_Phase_5,97,1,48,32,736297684
30,7,23,Ticks_Phase_5,98,5,42,127,736304532
30,7,23,Ticks_Phase_5,99,5,42,127,736805272
30,7,23,Ticks_Phase_5,100,1,48,34,736819700
30,7,23,Ticks_Phase_5,101,5,42,127,737304888
30,7,23,Ticks_Phase_5,102,1,48,35,737338260
30,7,23,Ticks_Phase_5,103,5,42,127,737804648
30,7,23,Ticks_Phase_5,104,1,48,34,737811356
30,7,23,Ticks_Phase_5,105,5,42,127,738305312
30,7,23,Ticks_Phase_5,106,1,48,32,738308052
30,7,23,Ticks_Phase_5,107,5,42,127,738805268
30,7,23,Ticks_Phase_5,108,1,48,31,738822192
30,7,23,Ticks_Phase_5,109,1,48,37,739301320
30,7,23,Ticks_Phase_5,110,5,42,127,739304952
30,7,23,Ticks_Phase_5,111,1,48,36,739786636
30,7,23,Ticks_Phase_5,112,5,42,127,739804416
30,7,23,Ticks_Phase_5,113,1,48,38,740294640
30,7,23,Ticks_Phase_5,114,5,42,127,740305228
30,7,23,Ticks_Phase_5,115,1,48,34,740799940
30,7,23,Ticks_Phase_5,116,5,42,127,740805064
30,7,23,Ticks_Phase_5,117,1,48,30,741294392
30,7,23,Ticks_Phase_5,118,5,42,127,741304604
30,7,23,Ticks_Phase_5,119,5,42,127,741805348
30,7,23,Ticks_Phase_5,120,1,48,29,741831828
30,7,23,Ticks_Phase_5,121,1,48,29,742311060
30,7,23,Ticks_Phase_5,122,5,42,127,742334984
30,7,23,Ticks_Phase_5,123,1,48,30,742834752
30,7,23,Ticks_Phase_5,124,5,42,127,742836320
30,7,23,Ticks_Phase_5,125,5,42,127,743335264
30,7,23,Ticks_Phase_5,126,1,48,27,743376128
30,7,23,Ticks_Phase_5,127,5,42,127,743835100
30,7,23,Ticks_Phase_5,128,1,48,30,743847360
30,7,23,Ticks_Phase_5,129,1,48,28,744321716
30,7,23,Ticks_Phase_5,130,5,42,127,744334856
30,7,23,Ticks_Phase_5,131,5,42,127,744834328
30,7,23,Ticks_Phase_5,132,1,48,33,744846884
30,7,23,Ticks_Phase_5,133,1,48,33,745334308
30,7,23,Ticks_Phase_5,134,5,42,127,745335956
30,7,23,Ticks_Phase_5,135,1,48,31,745834676
30,7,23,Ticks_Phase_5,136,5,42,127,745836312
30,7,23,Ticks_Phase_5,137,1,48,25,746319124
30,7,23,Ticks_Phase_5,138,5,42,127,746334808
30,7,23,Ticks_Phase_5,139,1,48,35,746811472
30,7,23,Ticks_Phase_5,140,5,42,127,746835172
30,7,23,Ticks_Phase_5,141,5,42,127,747335088
30,7,23,Ticks_Phase_5,142,1,48,30,747341948
30,7,23,Ticks_Phase_5,143,1,48,29,747829572
30,7,23,Ticks_Phase_5,144,5,42,127,747834920
30,7,23,Ticks_Phase_5,145,1,48,28,748332800
30,7,23,Ticks_Phase_5,146,5,42,127,748334680
30,7,23,Ticks_Phase_5,147,5,42,127,748835200
30,7,23,Ticks_Phase_5,148,1,48,25,748850748
30,7,23,Ticks_Phase_5,149,5,42,127,749334888
30,7,23,Ticks_Phase_5,150,1,48,28,749336448
30,7,23,Ticks_Phase_5,151,1,48,32,749828696
30,7,23,Ticks_Phase_5,152,5,42,127,749834868
30,7,23,Ticks_Phase_5,153,1,48,25,750328140
30,7,23,Ticks_Phase_5,154,5,42,127,750335456
30,7,23,Ticks_Phase_5,155,5,42,127,750814832
30,7,23,Ticks_Phase_5,156,1,48,29,750833836
30,7,23,Ticks_Phase_5,157,1,48,27,751309092
30,7,23,Ticks_Phase_5,158,5,42,127,751315408
30,7,23,Ticks_Phase_5,159,1,48,29,751811096
30,7,23,Ticks_Phase_5,160,5,42,127,751814948
30,7,23,Ticks_Phase_5,161,1,48,24,752288396
30,7,23,Ticks_Phase_5,162,5,42,127,752314640
30,7,23,Ticks_Phase_5,163,1,48,29,752760748
30,7,23,Ticks_Phase_5,164,5,42,127,752814552
30,7,23,Ticks_Phase_5,165,1,48,37,753295936
30,7,23,Ticks_Phase_5,166,5,42,127,753315136
30,7,23,Ticks_Phase_5,167,1,48,36,753785892
30,7,23,Ticks_Phase_5,168,5,42,127,753814752
30,7,23,Ticks_Phase_5,169,5,42,127,754314596
30,7,23,Ticks_Phase_5,170,1,48,29,754324232
30,7,23,Ticks_Phase_5,171,5,42,127,754815552
30,7,23,Ticks_Phase_5,172,1,48,31,754826916
30,7,23,Ticks_Phase_5,173,1,48,29,755314640
30,7,23,Ticks_Phase_5,174,5,42,127,755316428
30,7,23,Ticks_Phase_5,175,5,42,127,755814632
30,7,23,Ticks_Phase_5,176,1,48,29,755828836
30,7,23,Ticks_Phase_5,177,1,48,32,756314092
30,7,23,Ticks_Phase_5,178,5,42,127,756315732
30,7,23,Ticks_Phase_5,179,5,42,127,756815504
30,7,23,Ticks_Phase_5,180,1,48,34,756823720
30,7,23,Ticks_Phase_5,181,5,42,127,757314820
30,7,23,Ticks_Phase_5,182,1,48,31,757325728
30,7,23,Ticks_Phase_5,183,1,48,33,757804068
30,7,23,Ticks_Phase_5,184,5,42,127,757814724
30,7,23,Ticks_Phase_5,185,5,42,127,758315316
30,7,23,Ticks_Phase_5,186,1,48,35,758321728
30,7,23,Ticks_Phase_5,187,5,42,127,758765252
30,7,23,Ticks_Phase_5,188,1,48,33,758820444
30,7,23,Ticks_Phase_5,189,5,42,127,759264572
30,7,23,Ticks_Phase_5,190,1,48,31,759272480
30,7,23,Ticks_Phase_5,191,1,48,23,759750588
30,7,23,Ticks_Phase_5,192,5,42,127,759765448
30,7,23,Ticks_Phase_5,193,1,48,28,760237548
30,7,23,Ticks_Phase_5,194,5,42,127,760265212
30,7,23,Ticks_Phase_5,195,1,48,30,760715376
30,7,23,Ticks_Phase_5,196,5,42,127,760764824
30,7,23,Ticks_Phase_5,197,1,48,29,761222168
30,7,23,Ticks_Phase_5,198,5,42,127,761264364
30,7,23,Ticks_Phase_5,199,1,48,27,761761392
30,7,23,Ticks_Phase_5,200,5,42,127,761765100
30,7,23,Ticks_Phase_5,201,5,42,127,762265092
30,7,23,Ticks_Phase_5,202,1,48,28,762271724
30,7,23,Ticks_Phase_5,203,1,48,28,762732612
30,7,23,Ticks_Phase_5,204,5,42,127,762764548
30,7,23,Ticks_Phase_5,205,1,48,29,763232464
30,7,23,Ticks_Phase_5,206,5,42,127,763265432
30,7,23,Ticks_Phase_5,207,1,48,28,763741796
30,7,23,Ticks_Phase_5,208,5,42,127,763765196
30,7,23,Ticks_Phase_5,209,1,48,27,764265264
30,7,23,Ticks_Phase_5,210,5,42,127,764266684
30,7,23,Ticks_Phase_5,211,1,48,21,764753760
30,7,23,Ticks_Phase_5,212,5,42,127,764764500
30,7,23,Ticks_Phase_5,213,1,48,30,765232412
30,7,23,Ticks_Phase_5,214,5,42,127,765265308
30,7,23,Ticks_Phase_5,215,1,48,25,765733972
30,7,23,Ticks_Phase_5,216,5,42,127,765764848
30,7,23,Ticks_Phase_5,217,1,48,32,766239192
30,7,23,Ticks_Phase_5,218,5,42,127,766264688
30,7,23,Ticks_Phase_5,219,1,48,27,766739856
30,7,23,Ticks_Phase_5,220,5,42,127,766765496
30,7,23,Ticks_Phase_5,221,1,48,30,767236024
30,7,23,Ticks_Phase_5,222,5,42,127,767324648
30,7,23,Ticks_Phase_5,223,5,42,127,767825240
30,7,23,Ticks_Phase_5,224,1,48,28,767945936
30,7,23,Ticks_Phase_5,225,5,42,127,768325004
30,7,23,Ticks_Phase_5,226,1,48,25,768488684
30,7,23,Ticks_Phase_5,227,5,42,127,768824916
30,7,23,Ticks_Phase_5,228,1,48,15,768934304
30,7,23,Ticks_Phase_5,229,5,42,127,769325276
30,7,23,Ticks_Phase_5,230,1,48,24,769424632
30,7,23,Ticks_Phase_5,231,5,42,127,769835596
30,7,23,Ticks_Phase_5,232,1,48,25,769867252
30,7,23,Ticks_Phase_5,233,5,42,127,770335060
30,7,23,Ticks_Phase_5,234,1,48,24,770377872
30,7,23,Ticks_Phase_5,235,1,48,24,770824456
30,7,23,Ticks_Phase_5,236,5,42,127,770834744
30,7,23,Ticks_Phase_5,237,1,48,27,771319244
30,7,23,Ticks_Phase_5,238,5,42,127,771334800
30,7,23,Ticks_Phase_5,239,1,48,22,771809572
30,7,23,Ticks_Phase_5,240,5,42,127,771835216
30,7,23,Ticks_Phase_5,241,5,42,127,772334960
30,7,23,Ticks_Phase_5,242,1,48,29,772349708
30,7,23,Ticks_Phase_5,243,1,48,30,772802864
30,7,23,Ticks_Phase_5,244,5,42,127,772834640
30,7,23,Ticks_Phase_5,245,1,48,25,773313936
30,7,23,Ticks_Phase_5,246,5,42,127,773335672
30,7,23,Ticks_Phase_5,247,1,48,30,773822684
30,7,23,Ticks_Phase_5,248,5,42,127,773835064
30,7,23,Ticks_Phase_5,249,1,48,27,774305892
30,7,23,Ticks_Phase_5,250,5,42,127,774334900
30,7,23,Ticks_Phase_5,251,1,48,23,774806708
30,7,23,Ticks_Phase_5,252,5,42,127,774834740
30,7,23,Ticks_Phase_5,253,1,48,30,775320388
30,7,23,Ticks_Phase_5,254,5,42,127,775335400
30,7,23,Ticks_Phase_5,255,1,48,26,775827648
30,7,23,Ticks_Phase_5,256,5,42,127,775935596
30,7,23,Ticks_Phase_5,257,5,42,127,776434984
30,7,23,Ticks_Phase_5,258,1,48,26,776491520
30,7,23,Ticks_Phase_5,259,5,42,127,776934672
30,7,23,Ticks_Phase_5,260,1,48,18,776962536
30,7,23,Ticks_Phase_5,261,5,42,127,777434584
30,7,23,Ticks_Phase_5,262,1,48,31,777474800
30,7,23,Ticks_Phase_5,263,1,48,24,777848040
30,7,23,Ticks_Phase_5,264,5,42,127,777935312
30,7,23,Ticks_Phase_5,265,1,48,30,778425312
30,7,23,Ticks_Phase_5,266,5,42,127,778434776
30,7,23,Ticks_Phase_5,267,1,48,32,778917436
30,7,23,Ticks_Phase_5,268,5,42,127,778934616
30,7,23,Ticks_Phase_5,269,1,48,30,779424016
30,7,23,Ticks_Phase_5,270,5,42,127,779435348
30,7,23,Ticks_Phase_5,271,1,48,29,779917232
30,7,23,Ticks_Phase_5,272,5,42,127,779935012
30,7,23,Ticks_Phase_5,273,1,48,29,780433112
30,7,23,Ticks_Phase_5,274,5,42,127,780434848
30,7,23,Ticks_Phase_5,275,1,48,30,780905976
30,7,23,Ticks_Phase_5,276,5,42,127,780934536
30,7,23,Ticks_Phase_5,277,5,42,127,781435352
30,7,23,Ticks_Phase_5,278,1,48,29,781444916
30,7,23,Ticks_Phase_5,279,1,48,32,781894796
30,7,23,Ticks_Phase_5,280,5,42,127,781934960
30,7,23,Ticks_Phase_5,281,1,48,29,782404144
30,7,23,Ticks_Phase_5,282,5,42,127,782434576
30,7,23,Ticks_Phase_5,283,5,42,127,782935392
30,7,23,Ticks_Phase_5,284,1,48,29,782950792
30,7,23,Ticks_Phase_5,285,5,42,127,783435304
30,7,23,Ticks_Phase_5,286,1,48,28,783439248
30,7,23,Ticks_Phase_5,287,1,48,27,783929788
30,7,23,Ticks_Phase_5,288,5,42,127,783934760
30,7,23,Ticks_Phase_5,289,5,42,127,784434532
30,7,23,Ticks_Phase_5,290,1,48,29,784438172
30,7,23,Ticks_Phase_5,291,5,42,127,784935264
30,7,23,Ticks_Phase_5,292,1,48,29,784946476
30,7,23,Ticks_Phase_5,293,5,42,127,785334656
30,7,23,Ticks_Phase_5,294,1,48,29,785437104
30,7,23,Ticks_Phase_5,295,5,42,127,785835316
30,7,23,Ticks_Phase_5,296,1,48,32,786071660
30,7,23,Ticks_Phase_5,297,1,48,22,786323592
30,7,23,Ticks_Phase_5,298,5,42,127,786335296
30,7,23,Ticks_Phase_5,299,5,42,127,786834916
30,7,23,Ticks_Phase_5,300,1,48,37,786846348
30,7,23,Ticks_Phase_5,301,5,42,127,787334456
30,7,23,Ticks_Phase_5,302,1,48,31,787361680
30,7,23,Ticks_Phase_5,303,5,42,127,787835264
30,7,23,Ticks_Phase_5,304,1,48,29,787861296
30,7,23,Ticks_Phase_5,305,1,48,29,788318888
30,7,23,Ticks_Phase_5,306,5,42,127,788334944
30,7,23,Ticks_Phase_5,307,1,48,29,788785104
30,7,23,Ticks_Phase_5,308,5,42,127,788834932
30,7,23,Ticks_Phase_5,309,1,48,26,789321332
30,7,23,Ticks_Phase_5,310,5,42,127,789335372
30,7,23,Ticks_Phase_5,311,1,48,32,789821696
30,7,23,Ticks_Phase_5,312,5,42,127,789835136
30,7,23,Ticks_Phase_5,313,5,42,127,790335052
30,7,23,Ticks_Phase_5,314,1,48,25,790348584
30,7,23,Ticks_Phase_5,315,1,48,27,790825496
30,7,23,Ticks_Phase_5,316,5,42,127,790834516
30,7,23,Ticks_Phase_5,317,5,42,127,791335328
30,7,23,Ticks_Phase_5,318,1,48,27,791344744
30,7,23,Ticks_Phase_5,319,1,48,28,791831832
30,7,23,Ticks_Phase_5,320,5,42,127,791834936
30,7,23,Ticks_Phase_5,321,1,48,32,792320512
30,7,23,Ticks_Phase_5,322,5,42,127,792334996
30,7,23,Ticks_Phase_5,323,5,42,127,792834544
30,7,23,Ticks_Phase_5,324,1,48,27,792841924
30,7,23,Ticks_Phase_5,325,5,42,127,793335180
30,7,23,Ticks_Phase_5,326,1,48,31,793342512
30,7,23,Ticks_Phase_5,327,1,48,28,793823680
30,7,23,Ticks_Phase_5,328,5,42,127,793835008
30,7,23,Ticks_Phase_5,329,5,42,127,794334704
30,7,23,Ticks_Phase_5,330,1,48,31,794342996
30,7,23,Ticks_Phase_5,331,5,42,127,794835216
30,7,23,Ticks_Phase_5,0,9999,9999,9999,710292536
30,7,23,Ticks_Phase_5,1,9999,9999,9999,710792248
30,7,23,Ticks_Phase_5,2,9999,9999,9999,711293004
30,7,23,Ticks_Phase_5,3,9999,9999,9999,711792712
30,7,23,Ticks_Phase_5,4,9999,9999,9999,712292424
30,7,23,Ticks_Phase_5,5,9999,9999,9999,712792136
30,7,23,Ticks_Phase_5,6,9999,9999,9999,713292888
30,7,23,Ticks_Phase_5,7,9999,9999,9999,713792572
30,7,23,Ticks_Phase_5,8,9999,9999,9999,714292348
30,7,23,Ticks_Phase_5,9,9999,9999,9999,714793076
30,7,23,Ticks_Phase_5,10,9999,9999,9999,715292768
30,7,23,Ticks_Phase_5,11,9999,9999,9999,715792456
30,7,23,Ticks_Phase_5,12,9999,9999,9999,716292220
30,7,23,Ticks_Phase_5,13,9999,9999,9999,716792924
30,7,23,Ticks_Phase_5,14,9999,9999,9999,717292612
30,7,23,Ticks_Phase_5,15,9999,9999,9999,717792376
30,7,23,Ticks_Phase_5,16,9999,9999,9999,718293116
30,7,23,Ticks_Phase_5,17,9999,9999,9999,718792800
30,7,23,Ticks_Phase_5,18,9999,9999,9999,719292488
30,7,23,Ticks_Phase_5,19,9999,9999,9999,719792184
30,7,23,Ticks_Phase_5,20,9999,9999,9999,720292920
30,7,23,Ticks_Phase_5,21,9999,9999,9999,720792684
30,7,23,Ticks_Phase_5,22,9999,9999,9999,721292364
30,7,23,Ticks_Phase_5,23,9999,9999,9999,721792060
30,7,23,Ticks_Phase_5,24,9999,9999,9999,722292796
30,7,23,Ticks_Phase_5,25,9999,9999,9999,722792556
30,7,23,Ticks_Phase_5,26,9999,9999,9999,723292240
30,7,23,Ticks_Phase_5,27,9999,9999,9999,723792980
30,7,23,Ticks_Phase_5,28,9999,9999,9999,724292668
30,7,23,Ticks_Phase_5,29,9999,9999,9999,724792432
30,7,23,Ticks_Phase_5,30,9999,9999,9999,725282908
30,7,23,Ticks_Phase_5,31,9999,9999,9999,725782592
30,7,23,Ticks_Phase_5,32,9999,9999,9999,726282360
30,7,23,Ticks_Phase_5,33,9999,9999,9999,726783064
30,7,23,Ticks_Phase_5,34,9999,9999,9999,727282752
30,7,23,Ticks_Phase_5,35,9999,9999,9999,727782516
30,7,23,Ticks_Phase_5,36,9999,9999,9999,728282212
30,7,23,Ticks_Phase_5,37,9999,9999,9999,728782944
30,7,23,Ticks_Phase_5,38,9999,9999,9999,729282632
30,7,23,Ticks_Phase_5,39,9999,9999,9999,729782396
30,7,23,Ticks_Phase_5,40,9999,9999,9999,730283132
30,7,23,Ticks_Phase_5,41,9999,9999,9999,730793076
30,7,23,Ticks_Phase_5,42,9999,9999,9999,731292788
30,7,23,Ticks_Phase_5,43,9999,9999,9999,731792476
30,7,23,Ticks_Phase_5,44,9999,9999,9999,732292164
30,7,23,Ticks_Phase_5,45,9999,9999,9999,732792896
30,7,23,Ticks_Phase_5,46,9999,9999,9999,733292664
30,7,23,Ticks_Phase_5,47,9999,9999,9999,733792356
30,7,23,Ticks_Phase_5,48,9999,9999,9999,734302304
30,7,23,Ticks_Phase_5,49,9999,9999,9999,734803032
30,7,23,Ticks_Phase_5,50,9999,9999,9999,735302720
30,7,23,Ticks_Phase_5,51,9999,9999,9999,735802484
30,7,23,Ticks_Phase_5,52,9999,9999,9999,736302172
30,7,23,Ticks_Phase_5,53,9999,9999,9999,736802912
30,7,23,Ticks_Phase_5,54,9999,9999,9999,737302600
30,7,23,Ticks_Phase_5,55,9999,9999,9999,737802364
30,7,23,Ticks_Phase_5,56,9999,9999,9999,738303072
30,7,23,Ticks_Phase_5,57,9999,9999,9999,738802760
30,7,23,Ticks_Phase_5,58,9999,9999,9999,739302516
30,7,23,Ticks_Phase_5,59,9999,9999,9999,739802204
30,7,23,Ticks_Phase_5,60,9999,9999,9999,740302940
30,7,23,Ticks_Phase_5,61,9999,9999,9999,740802628
30,7,23,Ticks_Phase_5,62,9999,9999,9999,741302392
30,7,23,Ticks_Phase_5,63,9999,9999,9999,741803132
30,7,23,Ticks_Phase_5,64,9999,9999,9999,742332472
30,7,23,Ticks_Phase_5,65,9999,9999,9999,742832244
30,7,23,Ticks_Phase_5,66,9999,9999,9999,743332976
30,7,23,Ticks_Phase_5,67,9999,9999,9999,743832664
30,7,23,Ticks_Phase_5,68,9999,9999,9999,744332348
30,7,23,Ticks_Phase_5,69,9999,9999,9999,744832116
30,7,23,Ticks_Phase_5,70,9999,9999,9999,745332852
30,7,23,Ticks_Phase_5,71,9999,9999,9999,745832536
30,7,23,Ticks_Phase_5,72,9999,9999,9999,746332220
30,7,23,Ticks_Phase_5,73,9999,9999,9999,746832960
30,7,23,Ticks_Phase_5,74,9999,9999,9999,747332728
30,7,23,Ticks_Phase_5,75,9999,9999,9999,747832408
30,7,23,Ticks_Phase_5,76,9999,9999,9999,748332104
30,7,23,Ticks_Phase_5,77,9999,9999,9999,748832840
30,7,23,Ticks_Phase_5,78,9999,9999,9999,749332604
30,7,23,Ticks_Phase_5,79,9999,9999,9999,749832284
30,7,23,Ticks_Phase_5,80,9999,9999,9999,750332992
30,7,23,Ticks_Phase_5,81,9999,9999,9999,750812244
30,7,23,Ticks_Phase_5,82,9999,9999,9999,751312976
30,7,23,Ticks_Phase_5,83,9999,9999,9999,751812664
30,7,23,Ticks_Phase_5,84,9999,9999,9999,752312428
30,7,23,Ticks_Phase_5,85,9999,9999,9999,752812116
30,7,23,Ticks_Phase_5,86,9999,9999,9999,753312852
30,7,23,Ticks_Phase_5,87,9999,9999,9999,753812540
30,7,23,Ticks_Phase_5,88,9999,9999,9999,754312308
30,7,23,Ticks_Phase_5,89,9999,9999,9999,754813044
30,7,23,Ticks_Phase_5,90,9999,9999,9999,755312732
30,7,23,Ticks_Phase_5,91,9999,9999,9999,755812420
30,7,23,Ticks_Phase_5,92,9999,9999,9999,756312184
30,7,23,Ticks_Phase_5,93,9999,9999,9999,756812916
30,7,23,Ticks_Phase_5,94,9999,9999,9999,757312608
30,7,23,Ticks_Phase_5,95,9999,9999,9999,757812288
30,7,23,Ticks_Phase_5,96,9999,9999,9999,758313028
30,7,23,Ticks_Phase_5,97,9999,9999,9999,758762592
30,7,23,Ticks_Phase_5,98,9999,9999,9999,759262284
30,7,23,Ticks_Phase_5,99,9999,9999,9999,759763012
30,7,23,Ticks_Phase_5,100,9999,9999,9999,760262776
30,7,23,Ticks_Phase_5,101,9999,9999,9999,760762464
30,7,23,Ticks_Phase_5,102,9999,9999,9999,761262152
30,7,23,Ticks_Phase_5,103,9999,9999,9999,761762888
30,7,23,Ticks_Phase_5,104,9999,9999,9999,762262580
30,7,23,Ticks_Phase_5,105,9999,9999,9999,762762336
30,7,23,Ticks_Phase_5,106,9999,9999,9999,763263072
30,7,23,Ticks_Phase_5,107,9999,9999,9999,763762760
30,7,23,Ticks_Phase_5,108,9999,9999,9999,764262456
30,7,23,Ticks_Phase_5,109,9999,9999,9999,764762212
30,7,23,Ticks_Phase_5,110,9999,9999,9999,765262948
30,7,23,Ticks_Phase_5,111,9999,9999,9999,765762636
30,7,23,Ticks_Phase_5,112,9999,9999,9999,766262324
30,7,23,Ticks_Phase_5,113,9999,9999,9999,766763136
30,7,23,Ticks_Phase_5,114,9999,9999,9999,767322212
30,7,23,Ticks_Phase_5,115,9999,9999,9999,767822956
30,7,23,Ticks_Phase_5,116,9999,9999,9999,768322644
30,7,23,Ticks_Phase_5,117,9999,9999,9999,768822332
30,7,23,Ticks_Phase_5,118,9999,9999,9999,769323064
30,7,23,Ticks_Phase_5,119,9999,9999,9999,769833084
30,7,23,Ticks_Phase_5,120,9999,9999,9999,770332772
30,7,23,Ticks_Phase_5,121,9999,9999,9999,770832456
30,7,23,Ticks_Phase_5,122,9999,9999,9999,771332216
30,7,23,Ticks_Phase_5,123,9999,9999,9999,771832928
30,7,23,Ticks_Phase_5,124,9999,9999,9999,772332596
30,7,23,Ticks_Phase_5,125,9999,9999,9999,772832352
30,7,23,Ticks_Phase_5,126,9999,9999,9999,773333088
30,7,23,Ticks_Phase_5,127,9999,9999,9999,773832776
30,7,23,Ticks_Phase_5,128,9999,9999,9999,774332540
30,7,23,Ticks_Phase_5,129,9999,9999,9999,774832232
30,7,23,Ticks_Phase_5,130,9999,9999,9999,775332964
30,7,23,Ticks_Phase_5,131,9999,9999,9999,775933012
30,7,23,Ticks_Phase_5,132,9999,9999,9999,776432696
30,7,23,Ticks_Phase_5,133,9999,9999,9999,776932460
30,7,23,Ticks_Phase_5,134,9999,9999,9999,777432148
30,7,23,Ticks_Phase_5,135,9999,9999,9999,777932876
30,7,23,Ticks_Phase_5,136,9999,9999,9999,778432564
30,7,23,Ticks_Phase_5,137,9999,9999,9999,778932328
30,7,23,Ticks_Phase_5,138,9999,9999,9999,779433060
30,7,23,Ticks_Phase_5,139,9999,9999,9999,779932724
30,7,23,Ticks_Phase_5,140,9999,9999,9999,780432500
30,7,23,Ticks_Phase_5,141,9999,9999,9999,780932176
30,7,23,Ticks_Phase_5,142,9999,9999,9999,781432916
30,7,23,Ticks_Phase_5,143,9999,9999,9999,781932600
30,7,23,Ticks_Phase_5,144,9999,9999,9999,782432364
30,7,23,Ticks_Phase_5,145,9999,9999,9999,782933104
30,7,23,Ticks_Phase_5,146,9999,9999,9999,783432792
30,7,23,Ticks_Phase_5,147,9999,9999,9999,783932476
30,7,23,Ticks_Phase_5,148,9999,9999,9999,784432244
30,7,23,Ticks_Phase_5,149,9999,9999,9999,784932976
30,7,23,Ticks_Phase_5,150,9999,9999,9999,785332296
30,7,23,Ticks_Phase_5,151,9999,9999,9999,785833028
30,7,23,Ticks_Phase_5,152,9999,9999,9999,786332784
30,7,23,Ticks_Phase_5,153,9999,9999,9999,786832480
30,7,23,Ticks_Phase_5,154,9999,9999,9999,787332168
30,7,23,Ticks_Phase_5,155,9999,9999,9999,787832904
30,7,23,Ticks_Phase_5,156,9999,9999,9999,788332660
30,7,23,Ticks_Phase_5,157,9999,9999,9999,788832348
30,7,23,Ticks_Phase_5,158,9999,9999,9999,789333084
30,7,23,Ticks_Phase_5,159,9999,9999,9999,789832772
30,7,23,Ticks_Phase_5,160,9999,9999,9999,790332544
30,7,23,Ticks_Phase_5,161,9999,9999,9999,790832228
30,7,23,Ticks_Phase_5,162,9999,9999,9999,791332968
30,7,23,Ticks_Phase_5,163,9999,9999,9999,791832652
30,7,23,Ticks_Phase_5,164,9999,9999,9999,792332412
30,7,23,Ticks_Phase_5,165,9999,9999,9999,792832108
30,7,23,Ticks_Phase_5,166,9999,9999,9999,793332820
30,7,23,Ticks_Phase_5,167,9999,9999,9999,793832576
30,7,23,Ticks_Phase_5,168,9999,9999,9999,794332268
30,7,23,Ticks_Phase_5,169,9999,9999,9999,794833004
30,8,22,Ticks_Phase_8,0,5,42,127,810242412
30,8,22,Ticks_Phase_8,1,1,48,21,810792412
30,8,22,Ticks_Phase_8,2,5,42,127,811052384
30,8,22,Ticks_Phase_8,3,1,48,26,811767208
30,8,22,Ticks_Phase_8,4,5,42,127,811852112
30,8,22,Ticks_Phase_8,5,1,48,26,812645428
30,8,22,Ticks_Phase_8,6,5,42,127,812651896
30,8,22,Ticks_Phase_8,7,5,42,127,813451912
30,8,22,Ticks_Phase_8,8,1,48,25,813473908
30,8,22,Ticks_Phase_8,9,1,48,30,814237652
30,8,22,Ticks_Phase_8,10,5,42,127,814252292
30,8,22,Ticks_Phase_8,11,1,48,29,815042764
30,8,22,Ticks_Phase_8,12,5,42,127,815052080
30,8,22,Ticks_Phase_8,13,5,42,127,815851872
30,8,22,Ticks_Phase_8,14,1,48,26,815853732
30,8,22,Ticks_Phase_8,15,1,48,30,816641092
30,8,22,Ticks_Phase_8,16,5,42,127,816651824
30,8,22,Ticks_Phase_8,17,1,48,25,817445436
30,8,22,Ticks_Phase_8,18,5,42,127,817452284
30,8,22,Ticks_Phase_8,19,1,48,28,818251096
30,8,22,Ticks_Phase_8,20,5,42,127,818252896
30,8,22,Ticks_Phase_8,21,1,48,25,819045084
30,8,22,Ticks_Phase_8,22,5,42,127,819051860
30,8,22,Ticks_Phase_8,23,5,42,127,819851576
30,8,22,Ticks_Phase_8,24,1,48,29,819871100
30,8,22,Ticks_Phase_8,25,1,48,23,820642488
30,8,22,Ticks_Phase_8,26,5,42,127,820652552
30,8,22,Ticks_Phase_8,27,1,48,27,821448556
30,8,22,Ticks_Phase_8,28,5,42,127,821452260
30,8,22,Ticks_Phase_8,29,5,42,127,822251908
30,8,22,Ticks_Phase_8,30,1,48,24,822273252
30,8,22,Ticks_Phase_8,31,5,42,127,823051572
30,8,22,Ticks_Phase_8,32,1,48,24,823083300
30,8,22,Ticks_Phase_8,33,1,48,34,823835964
30,8,22,Ticks_Phase_8,34,5,42,127,823852396
30,8,22,Ticks_Phase_8,35,1,48,36,824601160
30,8,22,Ticks_Phase_8,36,5,42,127,824652332
30,8,22,Ticks_Phase_8,37,5,42,127,825451752
30,8,22,Ticks_Phase_8,38,1,48,26,825472620
30,8,22,Ticks_Phase_8,39,5,42,127,826251540
30,8,22,Ticks_Phase_8,40,1,48,27,826263120
30,8,22,Ticks_Phase_8,41,1,48,32,826997736
30,8,22,Ticks_Phase_8,42,5,42,127,827052516
30,8,22,Ticks_Phase_8,43,1,48,32,827814752
30,8,22,Ticks_Phase_8,44,5,42,127,827852080
30,8,22,Ticks_Phase_8,45,1,48,36,828632740
30,8,22,Ticks_Phase_8,46,5,42,127,828652012
30,8,22,Ticks_Phase_8,47,1,48,30,829425932
30,8,22,Ticks_Phase_8,48,5,42,127,829451676
30,8,22,Ticks_Phase_8,49,1,48,30,830244916
30,8,22,Ticks_Phase_8,50,5,42,127,830252360
30,8,22,Ticks_Phase_8,51,1,48,30,831014220
30,8,22,Ticks_Phase_8,52,5,42,127,831052072
30,8,22,Ticks_Phase_8,53,5,42,127,831852160
30,8,22,Ticks_Phase_8,54,1,48,28,831855204
30,8,22,Ticks_Phase_8,55,1,48,32,832642404
30,8,22,Ticks_Phase_8,56,5,42,127,832651496
30,8,22,Ticks_Phase_8,57,1,48,31,833441440
30,8,22,Ticks_Phase_8,58,5,42,127,833452328
30,8,22,Ticks_Phase_8,59,5,42,127,834231676
30,8,22,Ticks_Phase_8,60,1,48,32,834269160
30,8,22,Ticks_Phase_8,61,1,48,29,835026552
30,8,22,Ticks_Phase_8,62,5,42,127,835032428
30,8,22,Ticks_Phase_8,63,1,48,33,835794292
30,8,22,Ticks_Phase_8,64,5,42,127,835842272
30,8,22,Ticks_Phase_8,65,1,48,26,836645544
30,8,22,Ticks_Phase_8,66,5,42,127,836652392
30,8,22,Ticks_Phase_8,67,5,42,127,837452112
30,8,22,Ticks_Phase_8,68,1,48,27,837460108
30,8,22,Ticks_Phase_8,69,5,42,127,838251824
30,8,22,Ticks_Phase_8,70,1,48,29,838266620
30,8,22,Ticks_Phase_8,71,5,42,127,839051980
30,8,22,Ticks_Phase_8,72,1,48,29,839062144
30,8,22,Ticks_Phase_8,73,5,42,127,839852368
30,8,22,Ticks_Phase_8,74,1,48,34,839892632
30,8,22,Ticks_Phase_8,75,5,42,127,840652080
30,8,22,Ticks_Phase_8,76,1,48,26,840682236
30,8,22,Ticks_Phase_8,77,5,42,127,841451864
30,8,22,Ticks_Phase_8,78,1,48,32,841457300
30,8,22,Ticks_Phase_8,79,1,48,24,842222788
30,8,22,Ticks_Phase_8,80,5,42,127,842251744
30,8,22,Ticks_Phase_8,81,1,48,35,843042364
30,8,22,Ticks_Phase_8,82,5,42,127,843052576
30,8,22,Ticks_Phase_8,83,5,42,127,843852072
30,8,22,Ticks_Phase_8,84,1,48,38,843880512
30,8,22,Ticks_Phase_8,85,1,48,36,844614524
30,8,22,Ticks_Phase_8,86,5,42,127,844651852
30,8,22,Ticks_Phase_8,87,5,42,127,845451572
30,8,22,Ticks_Phase_8,88,1,48,34,845455284
30,8,22,Ticks_Phase_8,89,1,48,25,846250208
30,8,22,Ticks_Phase_8,90,5,42,127,846252324
30,8,22,Ticks_Phase_8,91,5,42,127,847052564
30,8,22,Ticks_Phase_8,92,1,48,27,847131352
30,8,22,Ticks_Phase_8,93,5,42,127,847851756
30,8,22,Ticks_Phase_8,94,1,48,29,847864484
30,8,22,Ticks_Phase_8,95,1,48,32,848645984
30,8,22,Ticks_Phase_8,96,5,42,127,848672376
30,8,22,Ticks_Phase_8,97,1,48,29,849446296
30,8,22,Ticks_Phase_8,98,5,42,127,849471864
30,8,22,Ticks_Phase_8,99,5,42,127,850271584
30,8,22,Ticks_Phase_8,100,1,48,30,850278144
30,8,22,Ticks_Phase_8,101,1,48,35,851055080
30,8,22,Ticks_Phase_8,102,5,42,127,851072484
30,8,22,Ticks_Phase_8,103,5,42,127,851872428
30,8,22,Ticks_Phase_8,104,1,48,31,851873468
30,8,22,Ticks_Phase_8,105,1,48,32,852672364
30,8,22,Ticks_Phase_8,106,5,42,127,852673632
30,8,22,Ticks_Phase_8,107,5,42,127,853471552
30,8,22,Ticks_Phase_8,108,1,48,32,853486572
30,8,22,Ticks_Phase_8,109,1,48,33,854265936
30,8,22,Ticks_Phase_8,110,5,42,127,854272256
30,8,22,Ticks_Phase_8,111,5,42,127,855072200
30,8,22,Ticks_Phase_8,112,1,48,31,855089556
30,8,22,Ticks_Phase_8,113,5,42,127,855872060
30,8,22,Ticks_Phase_8,114,1,48,31,855919504
30,8,22,Ticks_Phase_8,115,5,42,127,856671696
30,8,22,Ticks_Phase_8,116,1,48,27,856692792
30,8,22,Ticks_Phase_8,117,1,48,27,857431980
30,8,22,Ticks_Phase_8,118,5,42,127,857472448
30,8,22,Ticks_Phase_8,119,1,48,27,858268452
30,8,22,Ticks_Phase_8,120,5,42,127,858272160
30,8,22,Ticks_Phase_8,121,5,42,127,859072028
30,8,22,Ticks_Phase_8,122,1,48,27,859096116
30,8,22,Ticks_Phase_8,123,1,48,26,859835152
30,8,22,Ticks_Phase_8,124,5,42,127,859871804
30,8,22,Ticks_Phase_8,125,1,48,27,860666268
30,8,22,Ticks_Phase_8,126,5,42,127,860672440
30,8,22,Ticks_Phase_8,127,1,48,26,861474516
30,8,22,Ticks_Phase_8,128,5,42,127,861511920
30,8,22,Ticks_Phase_8,129,5,42,127,862311788
30,8,22,Ticks_Phase_8,130,1,48,29,862335496
30,8,22,Ticks_Phase_8,131,5,42,127,863111796
30,8,22,Ticks_Phase_8,132,1,48,29,863124276
30,8,22,Ticks_Phase_8,133,1,48,30,863881968
30,8,22,Ticks_Phase_8,134,5,42,127,863912324
30,8,22,Ticks_Phase_8,135,1,48,25,864710912
30,8,22,Ticks_Phase_8,136,5,42,127,864712712
30,8,22,Ticks_Phase_8,137,5,42,127,865511752
30,8,22,Ticks_Phase_8,138,1,48,28,865526956
30,8,22,Ticks_Phase_8,139,5,42,127,866311712
30,8,22,Ticks_Phase_8,140,1,48,24,866326064
30,8,22,Ticks_Phase_8,141,5,42,127,867112472
30,8,22,Ticks_Phase_8,142,1,48,25,867136560
30,8,22,Ticks_Phase_8,143,1,48,33,867886008
30,8,22,Ticks_Phase_8,144,5,42,127,867912028
30,8,22,Ticks_Phase_8,145,5,42,127,868711748
30,8,22,Ticks_Phase_8,146,1,48,27,868720716
30,8,22,Ticks_Phase_8,147,5,42,127,869511608
30,8,22,Ticks_Phase_8,148,1,48,31,869514948
30,8,22,Ticks_Phase_8,149,5,42,127,870312440
30,8,22,Ticks_Phase_8,150,1,48,30,870337652
30,8,22,Ticks_Phase_8,151,1,48,29,871108144
30,8,22,Ticks_Phase_8,152,5,42,127,871111996
30,8,22,Ticks_Phase_8,153,5,42,127,871911788
30,8,22,Ticks_Phase_8,154,1,48,32,871945784
30,8,22,Ticks_Phase_8,155,5,42,127,872711600
30,8,22,Ticks_Phase_8,156,1,48,29,872757552
30,8,22,Ticks_Phase_8,157,5,42,127,873512432
30,8,22,Ticks_Phase_8,158,1,48,23,873532708
30,8,22,Ticks_Phase_8,159,5,42,127,874312220
30,8,22,Ticks_Phase_8,160,1,48,30,874317212
30,8,22,Ticks_Phase_8,161,5,42,127,875071720
30,8,22,Ticks_Phase_8,162,1,48,27,875119164
30,8,22,Ticks_Phase_8,163,5,42,127,875871580
30,8,22,Ticks_Phase_8,164,1,48,26,875886904
30,8,22,Ticks_Phase_8,165,1,48,30,876602808
30,8,22,Ticks_Phase_8,166,5,42,127,876672480
30,8,22,Ticks_Phase_8,167,1,48,28,877427156
30,8,22,Ticks_Phase_8,168,5,42,127,877472192
30,8,22,Ticks_Phase_8,169,1,48,24,878264612
30,8,22,Ticks_Phase_8,170,5,42,127,878271980
30,8,22,Ticks_Phase_8,171,1,48,29,879044252
30,8,22,Ticks_Phase_8,172,5,42,127,879071472
30,8,22,Ticks_Phase_8,173,1,48,27,879852504
30,8,22,Ticks_Phase_8,174,5,42,127,879872328
30,8,22,Ticks_Phase_8,175,1,48,29,880598960
30,8,22,Ticks_Phase_8,176,5,42,127,880672040
30,8,22,Ticks_Phase_8,177,5,42,127,881471832
30,8,22,Ticks_Phase_8,178,1,48,25,881477416
30,8,22,Ticks_Phase_8,179,5,42,127,882271544
30,8,22,Ticks_Phase_8,180,1,48,28,882283348
30,8,22,Ticks_Phase_8,181,5,42,127,883072376
30,8,22,Ticks_Phase_8,182,1,48,25,883076468
30,8,22,Ticks_Phase_8,183,1,48,28,883869124
30,8,22,Ticks_Phase_8,184,5,42,127,883872304
30,8,22,Ticks_Phase_8,185,5,42,127,884671876
30,8,22,Ticks_Phase_8,186,1,48,27,884694612
30,8,22,Ticks_Phase_8,187,1,48,27,885471512
30,8,22,Ticks_Phase_8,188,5,42,127,885473144
30,8,22,Ticks_Phase_8,189,1,48,28,886264096
30,8,22,Ticks_Phase_8,190,5,42,127,886272512
30,8,22,Ticks_Phase_8,191,5,42,127,887072080
30,8,22,Ticks_Phase_8,192,1,48,30,887074092
30,8,22,Ticks_Phase_8,193,5,42,127,887791940
30,8,22,Ticks_Phase_8,194,1,48,23,887902324
30,8,22,Ticks_Phase_8,195,1,48,31,888574488
30,8,22,Ticks_Phase_8,196,5,42,127,888591668
30,8,22,Ticks_Phase_8,197,1,48,29,889298908
30,8,22,Ticks_Phase_8,198,5,42,127,889391828
30,8,22,Ticks_Phase_8,199,1,48,28,890137064
30,8,22,Ticks_Phase_8,200,5,42,127,890192512
30,8,22,Ticks_Phase_8,201,1,48,25,890939708
30,8,22,Ticks_Phase_8,202,5,42,127,890991924
30,8,22,Ticks_Phase_8,203,1,48,32,891790512
30,8,22,Ticks_Phase_8,204,5,42,127,891792536
30,8,22,Ticks_Phase_8,205,5,42,127,892591656
30,8,22,Ticks_Phase_8,206,1,48,31,892606076
30,8,22,Ticks_Phase_8,207,5,42,127,893392412
30,8,22,Ticks_Phase_8,208,1,48,32,893417696
30,8,22,Ticks_Phase_8,209,5,42,127,894191976
30,8,22,Ticks_Phase_8,210,1,48,31,894199380
30,8,22,Ticks_Phase_8,211,5,42,127,894991712
30,8,22,Ticks_Phase_8,212,1,48,34,895007860
30,8,22,Ticks_Phase_8,213,5,42,127,895791424
30,8,22,Ticks_Phase_8,214,1,48,34,895809976
30,8,22,Ticks_Phase_8,215,1,48,30,896590816
30,8,22,Ticks_Phase_8,216,5,42,127,896592548
30,8,22,Ticks_Phase_8,217,5,42,127,897392268
30,8,22,Ticks_Phase_8,218,1,48,30,897400484
30,8,22,Ticks_Phase_8,219,1,48,31,898176292
30,8,22,Ticks_Phase_8,220,5,42,127,898191676
30,8,22,Ticks_Phase_8,221,1,48,29,898967912
30,8,22,Ticks_Phase_8,222,5,42,127,898991460
30,8,22,Ticks_Phase_8,223,1,48,28,899774068
30,8,22,Ticks_Phase_8,224,5,42,127,899792220
30,8,22,Ticks_Phase_8,225,1,48,30,900570568
30,8,22,Ticks_Phase_8,226,5,42,127,900592160
30,8,22,Ticks_Phase_8,227,1,48,27,901379292
30,8,22,Ticks_Phase_8,228,5,42,127,901471500
30,8,22,Ticks_Phase_8,229,1,48,18,902229908
30,8,22,Ticks_Phase_8,230,5,42,127,902272336
30,8,22,Ticks_Phase_8,231,5,42,127,903072056
30,8,22,Ticks_Phase_8,232,1,48,26,903101616
30,8,22,Ticks_Phase_8,233,5,42,127,903871840
30,8,22,Ticks_Phase_8,234,1,48,32,903896824
30,8,22,Ticks_Phase_8,235,5,42,127,904671776
30,8,22,Ticks_Phase_8,236,1,48,28,904692824
30,8,22,Ticks_Phase_8,237,5,42,127,905472336
30,8,22,Ticks_Phase_8,238,1,48,28,905494476
30,8,22,Ticks_Phase_8,239,5,42,127,906272196
30,8,22,Ticks_Phase_8,240,1,48,27,906280860
30,8,22,Ticks_Phase_8,241,1,48,28,907046852
30,8,22,Ticks_Phase_8,242,5,42,127,907071828
30,8,22,Ticks_Phase_8,243,1,48,27,907868364
30,8,22,Ticks_Phase_8,244,5,42,127,907871840
30,8,22,Ticks_Phase_8,245,1,48,21,908552752
30,8,22,Ticks_Phase_8,246,5,42,127,908672360
30,8,22,Ticks_Phase_8,247,1,48,22,909424804
30,8,22,Ticks_Phase_8,248,5,42,127,909472084
30,8,22,Ticks_Phase_8,249,1,48,27,910269288
30,8,22,Ticks_Phase_8,250,5,42,127,910271800
30,8,22,Ticks_Phase_8,251,5,42,127,911071668
30,8,22,Ticks_Phase_8,252,1,48,29,911074260
30,8,22,Ticks_Phase_8,253,5,42,127,911872448
30,8,22,Ticks_Phase_8,254,1,48,30,911888672
30,8,22,Ticks_Phase_8,255,1,48,27,912656920
30,8,22,Ticks_Phase_8,256,5,42,127,912672080
30,8,22,Ticks_Phase_8,257,5,42,127,913471948
30,8,22,Ticks_Phase_8,258,1,48,26,913473508
30,8,22,Ticks_Phase_8,259,1,48,29,914256416
30,8,22,Ticks_Phase_8,260,5,42,127,914271504
30,8,22,Ticks_Phase_8,261,1,48,32,914999524
30,8,22,Ticks_Phase_8,262,5,42,127,915232456
30,8,22,Ticks_Phase_8,263,5,42,127,916031816
30,8,22,Ticks_Phase_8,264,1,48,25,916151988
30,8,22,Ticks_Phase_8,265,1,48,29,916791432
30,8,22,Ticks_Phase_8,266,5,42,127,916831596
30,8,22,Ticks_Phase_8,267,1,48,26,917618992
30,8,22,Ticks_Phase_8,268,5,42,127,917632356
30,8,22,Ticks_Phase_8,269,5,42,127,918432224
30,8,22,Ticks_Phase_8,270,1,48,27,918491812
30,8,22,Ticks_Phase_8,271,1,48,24,919163752
30,8,22,Ticks_Phase_8,272,5,42,127,919231928
30,8,22,Ticks_Phase_8,273,1,48,26,920011096
30,8,22,Ticks_Phase_8,274,5,42,127,920031492
30,8,22,Ticks_Phase_8,275,5,42,127,920832356
30,8,22,Ticks_Phase_8,276,1,48,27,920869172
30,8,22,Ticks_Phase_8,277,1,48,27,921604020
30,8,22,Ticks_Phase_8,278,5,42,127,921632136
30,8,22,Ticks_Phase_8,279,1,48,27,922408892
30,8,22,Ticks_Phase_8,280,5,42,127,922432072
30,8,22,Ticks_Phase_8,281,5,42,127,923231492
30,8,22,Ticks_Phase_8,282,1,48,24,923282468
30,8,22,Ticks_Phase_8,283,1,48,25,924032248
30,8,22,Ticks_Phase_8,284,5,42,127,924033884
30,8,22,Ticks_Phase_8,285,1,48,26,924798296
30,8,22,Ticks_Phase_8,286,5,42,127,924832104
30,8,22,Ticks_Phase_8,287,1,48,24,925610372
30,8,22,Ticks_Phase_8,288,5,42,127,925632040
30,8,22,Ticks_Phase_8,289,1,48,28,926402892
30,8,22,Ticks_Phase_8,290,5,42,127,926431748
30,8,22,Ticks_Phase_8,291,1,48,27,927197580
30,8,22,Ticks_Phase_8,292,5,42,127,927232236
30,8,22,Ticks_Phase_8,293,5,42,127,928032028
30,8,22,Ticks_Phase_8,294,1,48,29,928036712
30,8,22,Ticks_Phase_8,295,5,42,127,928831964
30,8,22,Ticks_Phase_8,296,1,48,27,928853212
30,8,22,Ticks_Phase_8,297,5,42,127,929631904
30,8,22,Ticks_Phase_8,298,1,48,27,929670600
30,8,22,Ticks_Phase_8,299,5,42,127,930271856
30,8,22,Ticks_Phase_8,300,1,48,29,930436532
30,8,22,Ticks_Phase_8,301,1,48,26,930980548
30,8,22,Ticks_Phase_8,302,5,42,127,931072260
30,8,22,Ticks_Phase_8,303,1,48,22,931790148
30,8,22,Ticks_Phase_8,304,5,42,127,931871972
30,8,22,Ticks_Phase_8,305,1,48,30,932628888
30,8,22,Ticks_Phase_8,306,5,42,127,932671832
30,8,22,Ticks_Phase_8,307,1,48,30,933416020
30,8,22,Ticks_Phase_8,308,5,42,127,933471840
30,8,22,Ticks_Phase_8,309,1,48,32,934187572
30,8,22,Ticks_Phase_8,310,5,42,127,934272528
30,8,22,Ticks_Phase_8,311,1,48,24,935067044
30,8,22,Ticks_Phase_8,312,5,42,127,935072240
30,8,22,Ticks_Phase_8,313,1,48,29,935864060
30,8,22,Ticks_Phase_8,314,5,42,127,935871804
30,8,22,Ticks_Phase_8,315,1,48,28,936665268
30,8,22,Ticks_Phase_8,316,5,42,127,936671664
30,8,22,Ticks_Phase_8,317,1,48,25,937450452
30,8,22,Ticks_Phase_8,318,5,42,127,937472372
30,8,22,Ticks_Phase_8,319,1,48,21,938264644
30,8,22,Ticks_Phase_8,320,5,42,127,938272380
30,8,22,Ticks_Phase_8,321,5,42,127,939071880
30,8,22,Ticks_Phase_8,322,1,48,24,939110200
30,8,22,Ticks_Phase_8,323,5,42,127,939871592
30,8,22,Ticks_Phase_8,324,1,48,27,939879272
30,8,22,Ticks_Phase_8,325,5,42,127,940672352
30,8,22,Ticks_Phase_8,326,1,48,21,940714264
30,8,22,Ticks_Phase_8,327,1,48,31,941432188
30,8,22,Ticks_Phase_8,328,5,42,127,941472276
30,8,22,Ticks_Phase_8,329,5,42,127,942271996
30,8,22,Ticks_Phase_8,330,1,48,24,942284700
30,8,22,Ticks_Phase_8,331,1,48,29,943014604
30,8,22,Ticks_Phase_8,332,5,42,127,943071480
30,8,22,Ticks_Phase_8,333,1,48,28,943831920
30,8,22,Ticks_Phase_8,334,5,42,127,943872336
30,8,22,Ticks_Phase_8,335,1,48,29,944671300
30,8,22,Ticks_Phase_8,336,5,42,127,944673096
30,8,22,Ticks_Phase_8,337,1,48,25,945423728
30,8,22,Ticks_Phase_8,338,5,42,127,945472056
30,8,22,Ticks_Phase_8,0,9999,9999,9999,810240128
30,8,22,Ticks_Phase_8,1,9999,9999,9999,811050100
30,8,22,Ticks_Phase_8,2,9999,9999,9999,811849824
30,8,22,Ticks_Phase_8,3,9999,9999,9999,812649536
30,8,22,Ticks_Phase_8,4,9999,9999,9999,813449328
30,8,22,Ticks_Phase_8,5,9999,9999,9999,814250080
30,8,22,Ticks_Phase_8,6,9999,9999,9999,815049792
30,8,22,Ticks_Phase_8,7,9999,9999,9999,815849584
30,8,22,Ticks_Phase_8,8,9999,9999,9999,816649316
30,8,22,Ticks_Phase_8,9,9999,9999,9999,817450072
30,8,22,Ticks_Phase_8,10,9999,9999,9999,818249792
30,8,22,Ticks_Phase_8,11,9999,9999,9999,819049572
30,8,22,Ticks_Phase_8,12,9999,9999,9999,819849288
30,8,22,Ticks_Phase_8,13,9999,9999,9999,820650044
30,8,22,Ticks_Phase_8,14,9999,9999,9999,821449828
30,8,22,Ticks_Phase_8,15,9999,9999,9999,822249548
30,8,22,Ticks_Phase_8,16,9999,9999,9999,823049284
30,8,22,Ticks_Phase_8,17,9999,9999,9999,823850108
30,8,22,Ticks_Phase_8,18,9999,9999,9999,824649820
30,8,22,Ticks_Phase_8,19,9999,9999,9999,825449540
30,8,22,Ticks_Phase_8,20,9999,9999,9999,826249328
30,8,22,Ticks_Phase_8,21,9999,9999,9999,827050080
30,8,22,Ticks_Phase_8,22,9999,9999,9999,827849792
30,8,22,Ticks_Phase_8,23,9999,9999,9999,828649580
30,8,22,Ticks_Phase_8,24,9999,9999,9999,829449312
30,8,22,Ticks_Phase_8,25,9999,9999,9999,830250072
30,8,22,Ticks_Phase_8,26,9999,9999,9999,831049784
30,8,22,Ticks_Phase_8,27,9999,9999,9999,831849576
30,8,22,Ticks_Phase_8,28,9999,9999,9999,832649284
30,8,22,Ticks_Phase_8,29,9999,9999,9999,833450040
30,8,22,Ticks_Phase_8,30,9999,9999,9999,834229316
30,8,22,Ticks_Phase_8,31,9999,9999,9999,835030140
30,8,22,Ticks_Phase_8,32,9999,9999,9999,835840064
30,8,22,Ticks_Phase_8,33,9999,9999,9999,836650108
30,8,22,Ticks_Phase_8,34,9999,9999,9999,837449824
30,8,22,Ticks_Phase_8,35,9999,9999,9999,838249536
30,8,22,Ticks_Phase_8,36,9999,9999,9999,839049324
30,8,22,Ticks_Phase_8,37,9999,9999,9999,839850084
30,8,22,Ticks_Phase_8,38,9999,9999,9999,840649792
30,8,22,Ticks_Phase_8,39,9999,9999,9999,841449580
30,8,22,Ticks_Phase_8,40,9999,9999,9999,842249308
30,8,22,Ticks_Phase_8,41,9999,9999,9999,843050068
30,8,22,Ticks_Phase_8,42,9999,9999,9999,843849784
30,8,22,Ticks_Phase_8,43,9999,9999,9999,844649564
30,8,22,Ticks_Phase_8,44,9999,9999,9999,845449284
30,8,22,Ticks_Phase_8,45,9999,9999,9999,846250080
30,8,22,Ticks_Phase_8,46,9999,9999,9999,847049828
30,8,22,Ticks_Phase_8,47,9999,9999,9999,847849544
30,8,22,Ticks_Phase_8,48,9999,9999,9999,848669792
30,8,22,Ticks_Phase_8,49,9999,9999,9999,849469504
30,8,22,Ticks_Phase_8,50,9999,9999,9999,850269296
30,8,22,Ticks_Phase_8,51,9999,9999,9999,851070048
30,8,22,Ticks_Phase_8,52,9999,9999,9999,851869768
30,8,22,Ticks_Phase_8,53,9999,9999,9999,852669556
30,8,22,Ticks_Phase_8,54,9999,9999,9999,853469268
30,8,22,Ticks_Phase_8,55,9999,9999,9999,854270044
30,8,22,Ticks_Phase_8,56,9999,9999,9999,855069764
30,8,22,Ticks_Phase_8,57,9999,9999,9999,855869548
30,8,22,Ticks_Phase_8,58,9999,9999,9999,856669260
30,8,22,Ticks_Phase_8,59,9999,9999,9999,857470012
30,8,22,Ticks_Phase_8,60,9999,9999,9999,858269800
30,8,22,Ticks_Phase_8,61,9999,9999,9999,859069516
30,8,22,Ticks_Phase_8,62,9999,9999,9999,859869296
30,8,22,Ticks_Phase_8,63,9999,9999,9999,860670080
30,8,22,Ticks_Phase_8,64,9999,9999,9999,861509708
30,8,22,Ticks_Phase_8,65,9999,9999,9999,862309500
30,8,22,Ticks_Phase_8,66,9999,9999,9999,863109212
30,8,22,Ticks_Phase_8,67,9999,9999,9999,863909964
30,8,22,Ticks_Phase_8,68,9999,9999,9999,864709756
30,8,22,Ticks_Phase_8,69,9999,9999,9999,865509468
30,8,22,Ticks_Phase_8,70,9999,9999,9999,866309204
30,8,22,Ticks_Phase_8,71,9999,9999,9999,867109964
30,8,22,Ticks_Phase_8,72,9999,9999,9999,867909740
30,8,22,Ticks_Phase_8,73,9999,9999,9999,868709460
30,8,22,Ticks_Phase_8,74,9999,9999,9999,869509244
30,8,22,Ticks_Phase_8,75,9999,9999,9999,870310004
30,8,22,Ticks_Phase_8,76,9999,9999,9999,871109708
30,8,22,Ticks_Phase_8,77,9999,9999,9999,871909504
30,8,22,Ticks_Phase_8,78,9999,9999,9999,872709240
30,8,22,Ticks_Phase_8,79,9999,9999,9999,873509996
30,8,22,Ticks_Phase_8,80,9999,9999,9999,874309708
30,8,22,Ticks_Phase_8,81,9999,9999,9999,875069508
30,8,22,Ticks_Phase_8,82,9999,9999,9999,875869296
30,8,22,Ticks_Phase_8,83,9999,9999,9999,876670044
30,8,22,Ticks_Phase_8,84,9999,9999,9999,877469760
30,8,22,Ticks_Phase_8,85,9999,9999,9999,878269544
30,8,22,Ticks_Phase_8,86,9999,9999,9999,879069260
30,8,22,Ticks_Phase_8,87,9999,9999,9999,879870040
30,8,22,Ticks_Phase_8,88,9999,9999,9999,880669752
30,8,22,Ticks_Phase_8,89,9999,9999,9999,881469544
30,8,22,Ticks_Phase_8,90,9999,9999,9999,882269256
30,8,22,Ticks_Phase_8,91,9999,9999,9999,883070016
30,8,22,Ticks_Phase_8,92,9999,9999,9999,883869796
30,8,22,Ticks_Phase_8,93,9999,9999,9999,884669512
30,8,22,Ticks_Phase_8,94,9999,9999,9999,885469300
30,8,22,Ticks_Phase_8,95,9999,9999,9999,886270076
30,8,22,Ticks_Phase_8,96,9999,9999,9999,887069792
30,8,22,Ticks_Phase_8,97,9999,9999,9999,887789652
30,8,22,Ticks_Phase_8,98,9999,9999,9999,888589384
30,8,22,Ticks_Phase_8,99,9999,9999,9999,889389168
30,8,22,Ticks_Phase_8,100,9999,9999,9999,890189928
30,8,22,Ticks_Phase_8,101,9999,9999,9999,890989640
30,8,22,Ticks_Phase_8,102,9999,9999,9999,891789432
30,8,22,Ticks_Phase_8,103,9999,9999,9999,892589144
30,8,22,Ticks_Phase_8,104,9999,9999,9999,893389900
30,8,22,Ticks_Phase_8,105,9999,9999,9999,894189688
30,8,22,Ticks_Phase_8,106,9999,9999,9999,894989424
30,8,22,Ticks_Phase_8,107,9999,9999,9999,895789136
30,8,22,Ticks_Phase_8,108,9999,9999,9999,896589896
30,8,22,Ticks_Phase_8,109,9999,9999,9999,897389684
30,8,22,Ticks_Phase_8,110,9999,9999,9999,898189388
30,8,22,Ticks_Phase_8,111,9999,9999,9999,898989176
30,8,22,Ticks_Phase_8,112,9999,9999,9999,899789936
30,8,22,Ticks_Phase_8,113,9999,9999,9999,900589648
30,8,22,Ticks_Phase_8,114,9999,9999,9999,901469288
30,8,22,Ticks_Phase_8,115,9999,9999,9999,902270048
30,8,22,Ticks_Phase_8,116,9999,9999,9999,903069768
30,8,22,Ticks_Phase_8,117,9999,9999,9999,903869552
30,8,22,Ticks_Phase_8,118,9999,9999,9999,904669264
30,8,22,Ticks_Phase_8,119,9999,9999,9999,905470048
30,8,22,Ticks_Phase_8,120,9999,9999,9999,906269764
30,8,22,Ticks_Phase_8,121,9999,9999,9999,907069544
30,8,22,Ticks_Phase_8,122,9999,9999,9999,907869256
30,8,22,Ticks_Phase_8,123,9999,9999,9999,908670072
30,8,22,Ticks_Phase_8,124,9999,9999,9999,909469800
30,8,22,Ticks_Phase_8,125,9999,9999,9999,910269512
30,8,22,Ticks_Phase_8,126,9999,9999,9999,911069304
30,8,22,Ticks_Phase_8,127,9999,9999,9999,911870012
30,8,22,Ticks_Phase_8,128,9999,9999,9999,912669792
30,8,22,Ticks_Phase_8,129,9999,9999,9999,913469512
30,8,22,Ticks_Phase_8,130,9999,9999,9999,914269292
30,8,22,Ticks_Phase_8,131,9999,9999,9999,915229796
30,8,22,Ticks_Phase_8,132,9999,9999,9999,916029532
30,8,22,Ticks_Phase_8,133,9999,9999,9999,916829312
30,8,22,Ticks_Phase_8,134,9999,9999,9999,917630068
30,8,22,Ticks_Phase_8,135,9999,9999,9999,918429788
30,8,22,Ticks_Phase_8,136,9999,9999,9999,919229492
30,8,22,Ticks_Phase_8,137,9999,9999,9999,920029280
30,8,22,Ticks_Phase_8,138,9999,9999,9999,920830068
30,8,22,Ticks_Phase_8,139,9999,9999,9999,921629776
30,8,22,Ticks_Phase_8,140,9999,9999,9999,922429560
30,8,22,Ticks_Phase_8,141,9999,9999,9999,923229280
30,8,22,Ticks_Phase_8,142,9999,9999,9999,924030036
30,8,22,Ticks_Phase_8,143,9999,9999,9999,924829816
30,8,22,Ticks_Phase_8,144,9999,9999,9999,925629528
30,8,22,Ticks_Phase_8,145,9999,9999,9999,926429240
30,8,22,Ticks_Phase_8,146,9999,9999,9999,927230024
30,8,22,Ticks_Phase_8,147,9999,9999,9999,928029816
30,8,22,Ticks_Phase_8,148,9999,9999,9999,928829528
30,8,22,Ticks_Phase_8,149,9999,9999,9999,929629244
30,8,22,Ticks_Phase_8,150,9999,9999,9999,930269272
30,8,22,Ticks_Phase_8,151,9999,9999,9999,931070048
30,8,22,Ticks_Phase_8,152,9999,9999,9999,931869760
30,8,22,Ticks_Phase_8,153,9999,9999,9999,932669548
30,8,22,Ticks_Phase_8,154,9999,9999,9999,933469256
30,8,22,Ticks_Phase_8,155,9999,9999,9999,934270016
30,8,22,Ticks_Phase_8,156,9999,9999,9999,935069808
30,8,22,Ticks_Phase_8,157,9999,9999,9999,935869516
30,8,22,Ticks_Phase_8,158,9999,9999,9999,936669304
30,8,22,Ticks_Phase_8,159,9999,9999,9999,937470012
30,8,22,Ticks_Phase_8,160,9999,9999,9999,938269800
30,8,22,Ticks_Phase_8,161,9999,9999,9999,939069516
30,8,22,Ticks_Phase_8,162,9999,9999,9999,939869304
30,8,22,Ticks_Phase_8,163,9999,9999,9999,940670064
30,8,22,Ticks_Phase_8,164,9999,9999,9999,941469768
30,8,22,Ticks_Phase_8,165,9999,9999,9999,942269564
30,8,22,Ticks_Phase_8,166,9999,9999,9999,943069268
30,8,22,Ticks_Phase_8,167,9999,9999,9999,943870048
30,8,22,Ticks_Phase_8,168,9999,9999,9999,944669768
30,8,22,Ticks_Phase_8,169,9999,9999,9999,945469548
30,9,10,Ticks_ISO_T2_5,0,5,42,127,957505896
30,9,10,Ticks_ISO_T2_5,1,5,42,127,958005536
30,9,10,Ticks_ISO_T2_5,2,1,48,30,958144640
30,9,10,Ticks_ISO_T2_5,3,5,42,127,958506500
30,9,10,Ticks_ISO_T2_5,4,1,48,25,958604392
30,9,10,Ticks_ISO_T2_5,5,5,42,127,959005972
30,9,10,Ticks_ISO_T2_5,6,1,48,28,959058312
30,9,10,Ticks_ISO_T2_5,7,5,42,127,959505744
30,9,10,Ticks_ISO_T2_5,8,1,48,29,959531228
30,9,10,Ticks_ISO_T2_5,9,1,48,27,959996720
30,9,10,Ticks_ISO_T2_5,10,5,42,127,960005508
30,9,10,Ticks_ISO_T2_5,11,1,48,26,960490184
30,9,10,Ticks_ISO_T2_5,12,5,42,127,960506320
30,9,10,Ticks_ISO_T2_5,13,1,48,25,960998556
30,9,10,Ticks_ISO_T2_5,14,5,42,127,961006064
30,9,10,Ticks_ISO_T2_5,15,1,48,27,961494484
30,9,10,Ticks_ISO_T2_5,16,5,42,127,961505736
30,9,10,Ticks_ISO_T2_5,17,5,42,127,962006340
30,9,10,Ticks_ISO_T2_5,18,1,48,29,962013044
30,9,10,Ticks_ISO_T2_5,19,5,42,127,962506252
30,9,10,Ticks_ISO_T2_5,20,1,48,28,962528452
30,9,10,Ticks_ISO_T2_5,21,5,42,127,963005876
30,9,10,Ticks_ISO_T2_5,22,1,48,33,963026420
30,9,10,Ticks_ISO_T2_5,23,5,42,127,963505644
30,9,10,Ticks_ISO_T2_5,24,1,48,29,963525144
30,9,10,Ticks_ISO_T2_5,25,1,48,30,964000660
30,9,10,Ticks_ISO_T2_5,26,5,42,127,964006232
30,9,10,Ticks_ISO_T2_5,27,5,42,127,964506156
30,9,10,Ticks_ISO_T2_5,28,1,48,30,964531496
30,9,10,Ticks_ISO_T2_5,29,5,42,127,965005628
30,9,10,Ticks_ISO_T2_5,30,1,48,31,965011888
30,9,10,Ticks_ISO_T2_5,31,1,48,32,965495332
30,9,10,Ticks_ISO_T2_5,32,5,42,127,965506364
30,9,10,Ticks_ISO_T2_5,33,5,42,127,966006212
30,9,10,Ticks_ISO_T2_5,34,1,48,31,966039252
30,9,10,Ticks_ISO_T2_5,35,1,48,32,966499060
30,9,10,Ticks_ISO_T2_5,36,5,42,127,966506048
30,9,10,Ticks_ISO_T2_5,37,5,42,127,967005604
30,9,10,Ticks_ISO_T2_5,38,1,48,33,967019648
30,9,10,Ticks_ISO_T2_5,39,1,48,30,967501072
30,9,10,Ticks_ISO_T2_5,40,5,42,127,967506336
30,9,10,Ticks_ISO_T2_5,41,5,42,127,968005964
30,9,10,Ticks_ISO_T2_5,42,1,48,27,968006932
30,9,10,Ticks_ISO_T2_5,43,5,42,127,968505884
30,9,10,Ticks_ISO_T2_5,44,1,48,32,968516552
30,9,10,Ticks_ISO_T2_5,45,5,42,127,969005352
30,9,10,Ticks_ISO_T2_5,46,1,48,31,969020288
30,9,10,Ticks_ISO_T2_5,47,1,48,35,969502240
30,9,10,Ticks_ISO_T2_5,48,5,42,127,969506164
30,9,10,Ticks_ISO_T2_5,49,5,42,127,970006012
30,9,10,Ticks_ISO_T2_5,50,1,48,37,970007428
30,9,10,Ticks_ISO_T2_5,51,5,42,127,970505560
30,9,10,Ticks_ISO_T2_5,52,1,48,33,970541368
30,9,10,Ticks_ISO_T2_5,53,5,42,127,971006376
30,9,10,Ticks_ISO_T2_5,54,1,48,32,971030816
30,9,10,Ticks_ISO_T2_5,55,1,48,33,971506144
30,9,10,Ticks_ISO_T2_5,56,5,42,127,971507704
30,9,10,Ticks_ISO_T2_5,57,1,48,31,972006112
30,9,10,Ticks_ISO_T2_5,58,5,42,127,972007828
30,9,10,Ticks_ISO_T2_5,59,5,42,127,972505584
30,9,10,Ticks_ISO_T2_5,60,1,48,32,972545380
30,9,10,Ticks_ISO_T2_5,61,1,48,31,972985116
30,9,10,Ticks_ISO_T2_5,62,5,42,127,973006168
30,9,10,Ticks_ISO_T2_5,63,1,48,36,973485560
30,9,10,Ticks_ISO_T2_5,64,5,42,127,973505864
30,9,10,Ticks_ISO_T2_5,65,5,42,127,974005640
30,9,10,Ticks_ISO_T2_5,66,1,48,29,974012428
30,9,10,Ticks_ISO_T2_5,67,5,42,127,974506308
30,9,10,Ticks_ISO_T2_5,68,1,48,28,974525884
30,9,10,Ticks_ISO_T2_5,69,5,42,127,975006004
30,9,10,Ticks_ISO_T2_5,70,1,48,32,975011292
30,9,10,Ticks_ISO_T2_5,71,5,42,127,975505768
30,9,10,Ticks_ISO_T2_5,72,1,48,37,975506736
30,9,10,Ticks_ISO_T2_5,73,5,42,127,976005612
30,9,10,Ticks_ISO_T2_5,74,1,48,27,976029904
30,9,10,Ticks_ISO_T2_5,75,5,42,127,976506208
30,9,10,Ticks_ISO_T2_5,76,1,48,30,976529524
30,9,10,Ticks_ISO_T2_5,77,5,42,127,977005976
30,9,10,Ticks_ISO_T2_5,78,1,48,23,977013432
30,9,10,Ticks_ISO_T2_5,79,1,48,32,977493884
30,9,10,Ticks_ISO_T2_5,80,5,42,127,977505588
30,9,10,Ticks_ISO_T2_5,81,1,48,28,977998812
30,9,10,Ticks_ISO_T2_5,82,5,42,127,978006404
30,9,10,Ticks_ISO_T2_5,83,1,48,34,978499260
30,9,10,Ticks_ISO_T2_5,84,5,42,127,978506024
30,9,10,Ticks_ISO_T2_5,85,5,42,127,979005652
30,9,10,Ticks_ISO_T2_5,86,1,48,26,979006992
30,9,10,Ticks_ISO_T2_5,87,5,42,127,979505420
30,9,10,Ticks_ISO_T2_5,88,1,48,30,979517436
30,9,10,Ticks_ISO_T2_5,89,5,42,127,980006460
30,9,10,Ticks_ISO_T2_5,90,1,48,29,980009208
30,9,10,Ticks_ISO_T2_5,91,5,42,127,980505932
30,9,10,Ticks_ISO_T2_5,92,1,48,32,980512340
30,9,10,Ticks_ISO_T2_5,93,5,42,127,981005624
30,9,10,Ticks_ISO_T2_5,94,1,48,29,981007564
30,9,10,Ticks_ISO_T2_5,95,5,42,127,981506520
30,9,10,Ticks_ISO_T2_5,96,1,48,37,981512480
30,9,10,Ticks_ISO_T2_5,97,1,48,29,982002432
30,9,10,Ticks_ISO_T2_5,98,5,42,127,982006204
30,9,10,Ticks_ISO_T2_5,99,1,48,34,982493208
30,9,10,Ticks_ISO_T2_5,100,5,42,127,982505804
30,9,10,Ticks_ISO_T2_5,101,1,48,29,983000828
30,9,10,Ticks_ISO_T2_5,102,5,42,127,983005648
30,9,10,Ticks_ISO_T2_5,103,1,48,29,983502540
30,9,10,Ticks_ISO_T2_5,104,5,42,127,983506464
30,9,10,Ticks_ISO_T2_5,105,1,48,33,984003896
30,9,10,Ticks_ISO_T2_5,106,5,42,127,984005936
30,9,10,Ticks_ISO_T2_5,107,5,42,127,984505636
30,9,10,Ticks_ISO_T2_5,108,1,48,32,984512420
30,9,10,Ticks_ISO_T2_5,109,1,48,32,985003048
30,9,10,Ticks_ISO_T2_5,110,5,42,127,985005400
30,9,10,Ticks_ISO_T2_5,111,5,42,127,985506296
30,9,10,Ticks_ISO_T2_5,112,1,48,25,985512112
30,9,10,Ticks_ISO_T2_5,113,1,48,36,986006288
30,9,10,Ticks_ISO_T2_5,114,5,42,127,986007780
30,9,10,Ticks_ISO_T2_5,115,1,48,35,986505388
30,9,10,Ticks_ISO_T2_5,116,5,42,127,986507024
30,9,10,Ticks_ISO_T2_5,117,5,42,127,987006428
30,9,10,Ticks_ISO_T2_5,118,1,48,31,987020620
30,9,10,Ticks_ISO_T2_5,119,5,42,127,987506048
30,9,10,Ticks_ISO_T2_5,120,1,48,31,987524048
30,9,10,Ticks_ISO_T2_5,121,1,48,30,987999496
30,9,10,Ticks_ISO_T2_5,122,5,42,127,988005808
30,9,10,Ticks_ISO_T2_5,123,5,42,127,988505512
30,9,10,Ticks_ISO_T2_5,124,1,48,28,988508032
30,9,10,Ticks_ISO_T2_5,125,5,42,127,989006176
30,9,10,Ticks_ISO_T2_5,126,1,48,33,989011996
30,9,10,Ticks_ISO_T2_5,127,1,48,37,989505800
30,9,10,Ticks_ISO_T2_5,128,5,42,127,989507436
30,9,10,Ticks_ISO_T2_5,129,1,48,29,989999916
30,9,10,Ticks_ISO_T2_5,130,5,42,127,990005708
30,9,10,Ticks_ISO_T2_5,131,1,48,34,990497896
30,9,10,Ticks_ISO_T2_5,132,5,42,127,990506376
30,9,10,Ticks_ISO_T2_5,133,5,42,127,991006152
30,9,10,Ticks_ISO_T2_5,134,1,48,33,991027000
30,9,10,Ticks_ISO_T2_5,135,5,42,127,991505848
30,9,10,Ticks_ISO_T2_5,136,1,48,30,991529016
30,9,10,Ticks_ISO_T2_5,137,5,42,127,992005392
30,9,10,Ticks_ISO_T2_5,138,1,48,21,992047484
30,9,10,Ticks_ISO_T2_5,139,5,42,127,992506284
30,9,10,Ticks_ISO_T2_5,140,1,48,25,992537608
30,9,10,Ticks_ISO_T2_5,141,5,42,127,993005904
30,9,10,Ticks_ISO_T2_5,142,1,48,27,993027500
30,9,10,Ticks_ISO_T2_5,143,5,42,127,993505576
30,9,10,Ticks_ISO_T2_5,144,1,48,22,993506468
30,9,10,Ticks_ISO_T2_5,145,5,42,127,994006320
30,9,10,Ticks_ISO_T2_5,146,1,48,24,994022000
30,9,10,Ticks_ISO_T2_5,147,1,48,27,994493780
30,9,10,Ticks_ISO_T2_5,148,5,42,127,994506080
30,9,10,Ticks_ISO_T2_5,149,1,48,29,994972304
30,9,10,Ticks_ISO_T2_5,150,5,42,127,995005772
30,9,10,Ticks_ISO_T2_5,151,1,48,27,995480524
30,9,10,Ticks_ISO_T2_5,152,5,42,127,995505544
30,9,10,Ticks_ISO_T2_5,153,1,48,28,995989196
30,9,10,Ticks_ISO_T2_5,154,5,42,127,996006208
30,9,10,Ticks_ISO_T2_5,155,1,48,31,996499212
30,9,10,Ticks_ISO_T2_5,156,5,42,127,996505904
30,9,10,Ticks_ISO_T2_5,157,5,42,127,997005904
30,9,10,Ticks_ISO_T2_5,158,1,48,27,997009100
30,9,10,Ticks_ISO_T2_5,159,1,48,29,997496432
30,9,10,Ticks_ISO_T2_5,160,5,42,127,997506640
30,9,10,Ticks_ISO_T2_5,161,1,48,28,997999124
30,9,10,Ticks_ISO_T2_5,162,5,42,127,998006112
30,9,10,Ticks_ISO_T2_5,163,5,42,127,998505964
30,9,10,Ticks_ISO_T2_5,164,1,48,27,998522400
30,9,10,Ticks_ISO_T2_5,165,1,48,28,998999564
30,9,10,Ticks_ISO_T2_5,166,5,42,127,999005576
30,9,10,Ticks_ISO_T2_5,167,1,48,26,999496412
30,9,10,Ticks_ISO_T2_5,168,5,42,127,999506468
30,9,10,Ticks_ISO_T2_5,169,5,42,127,1000006096
30,9,10,Ticks_ISO_T2_5,170,1,48,28,1000007064
30,9,10,Ticks_ISO_T2_5,171,1,48,32,1000505420
30,9,10,Ticks_ISO_T2_5,172,5,42,127,1000507056
30,9,10,Ticks_ISO_T2_5,173,1,48,35,1000994080
30,9,10,Ticks_ISO_T2_5,174,5,42,127,1001005480
30,9,10,Ticks_ISO_T2_5,175,5,42,127,1001506228
30,9,10,Ticks_ISO_T2_5,176,1,48,31,1001522588
30,9,10,Ticks_ISO_T2_5,177,1,48,31,1001982472
30,9,10,Ticks_ISO_T2_5,178,5,42,127,1002005988
30,9,10,Ticks_ISO_T2_5,179,1,48,31,1002467856
30,9,10,Ticks_ISO_T2_5,180,5,42,127,1002505608
30,9,10,Ticks_ISO_T2_5,181,1,48,31,1002990460
30,9,10,Ticks_ISO_T2_5,182,5,42,127,1003006276
30,9,10,Ticks_ISO_T2_5,183,1,48,31,1003505680
30,9,10,Ticks_ISO_T2_5,184,5,42,127,1003507464
30,9,10,Ticks_ISO_T2_5,185,1,48,30,1003989380
30,9,10,Ticks_ISO_T2_5,186,5,42,127,1004005644
30,9,10,Ticks_ISO_T2_5,187,5,42,127,1004505568
30,9,10,Ticks_ISO_T2_5,188,1,48,28,1004515496
30,9,10,Ticks_ISO_T2_5,189,1,48,35,1004990860
30,9,10,Ticks_ISO_T2_5,190,5,42,127,1005006448
30,9,10,Ticks_ISO_T2_5,191,1,48,30,1005483748
30,9,10,Ticks_ISO_T2_5,192,5,42,127,1005505772
30,9,10,Ticks_ISO_T2_5,193,1,48,29,1005993392
30,9,10,Ticks_ISO_T2_5,194,5,42,127,1006005540
30,9,10,Ticks_ISO_T2_5,195,1,48,31,1006479700
30,9,10,Ticks_ISO_T2_5,196,5,42,127,1006506284
30,9,10,Ticks_ISO_T2_5,197,1,48,30,1006963160
30,9,10,Ticks_ISO_T2_5,198,5,42,127,1007006200
30,9,10,Ticks_ISO_T2_5,199,1,48,30,1007490380
30,9,10,Ticks_ISO_T2_5,200,5,42,127,1007505820
30,9,10,Ticks_ISO_T2_5,201,5,42,127,1008005448
30,9,10,Ticks_ISO_T2_5,202,1,48,27,1008013804
30,9,10,Ticks_ISO_T2_5,203,5,42,127,1008506412
30,9,10,Ticks_ISO_T2_5,204,1,48,31,1008508056
30,9,10,Ticks_ISO_T2_5,205,1,48,32,1008970688
30,9,10,Ticks_ISO_T2_5,206,5,42,127,1009005880
30,9,10,Ticks_ISO_T2_5,207,1,48,32,1009502252
30,9,10,Ticks_ISO_T2_5,208,5,42,127,1009505500
30,9,10,Ticks_ISO_T2_5,209,5,42,127,1010006324
30,9,10,Ticks_ISO_T2_5,210,1,48,32,1010020064
30,9,10,Ticks_ISO_T2_5,211,5,42,127,1010506168
30,9,10,Ticks_ISO_T2_5,212,1,48,25,1010530532
30,9,10,Ticks_ISO_T2_5,213,5,42,127,1011006088
30,9,10,Ticks_ISO_T2_5,214,1,48,30,1011017888
30,9,10,Ticks_ISO_T2_5,215,1,48,30,1011500804
30,9,10,Ticks_ISO_T2_5,216,5,42,127,1011505476
30,9,10,Ticks_ISO_T2_5,217,1,48,26,1012002368
30,9,10,Ticks_ISO_T2_5,218,5,42,127,1012006440
30,9,10,Ticks_ISO_T2_5,219,5,42,127,1012505996
30,9,10,Ticks_ISO_T2_5,220,1,48,27,1012516368
30,9,10,Ticks_ISO_T2_5,221,1,48,29,1012989492
30,9,10,Ticks_ISO_T2_5,222,5,42,127,1013005608
30,9,10,Ticks_ISO_T2_5,223,1,48,38,1013481088
30,9,10,Ticks_ISO_T2_5,224,5,42,127,1013506280
30,9,10,Ticks_ISO_T2_5,225,5,42,127,1014006052
30,9,10,Ticks_ISO_T2_5,226,1,48,28,1014010220
30,9,10,Ticks_ISO_T2_5,227,5,42,127,1014506340
30,9,10,Ticks_ISO_T2_5,228,1,48,28,1014540952
30,9,10,Ticks_ISO_T2_5,229,5,42,127,1015005640
30,9,10,Ticks_ISO_T2_5,230,1,48,26,1015029356
30,9,10,Ticks_ISO_T2_5,231,5,42,127,1015506232
30,9,10,Ticks_ISO_T2_5,232,1,48,25,1015539444
30,9,10,Ticks_ISO_T2_5,233,1,48,23,1016001776
30,9,10,Ticks_ISO_T2_5,234,5,42,127,1016005996
30,9,10,Ticks_ISO_T2_5,235,5,42,127,1016505848
30,9,10,Ticks_ISO_T2_5,236,1,48,29,1016507788
30,9,10,Ticks_ISO_T2_5,237,1,48,28,1016996672
30,9,10,Ticks_ISO_T2_5,238,5,42,127,1017005608
30,9,10,Ticks_ISO_T2_5,239,1,48,31,1017502576
30,9,10,Ticks_ISO_T2_5,240,5,42,127,1017506276
30,9,10,Ticks_ISO_T2_5,241,1,48,30,1017985964
30,9,10,Ticks_ISO_T2_5,242,5,42,127,1018005824
30,9,10,Ticks_ISO_T2_5,243,1,48,32,1018501668
30,9,10,Ticks_ISO_T2_5,244,5,42,127,1018505816
30,9,10,Ticks_ISO_T2_5,245,5,42,127,1019006268
30,9,10,Ticks_ISO_T2_5,246,1,48,28,1019022776
30,9,10,Ticks_ISO_T2_5,247,5,42,127,1019505888
30,9,10,Ticks_ISO_T2_5,248,1,48,32,1019508932
30,9,10,Ticks_ISO_T2_5,249,5,42,127,1020005808
30,9,10,Ticks_ISO_T2_5,250,1,48,26,1020008252
30,9,10,Ticks_ISO_T2_5,251,1,48,29,1020502916
30,9,10,Ticks_ISO_T2_5,252,5,42,127,1020505644
30,9,10,Ticks_ISO_T2_5,253,1,48,24,1020998876
30,9,10,Ticks_ISO_T2_5,254,5,42,127,1021006236
30,9,10,Ticks_ISO_T2_5,255,1,48,27,1021501336
30,9,10,Ticks_ISO_T2_5,256,5,42,127,1021505860
30,9,10,Ticks_ISO_T2_5,257,1,48,27,1021975824
30,9,10,Ticks_ISO_T2_5,258,5,42,127,1022005776
30,9,10,Ticks_ISO_T2_5,259,1,48,31,1022487640
30,9,10,Ticks_ISO_T2_5,0,9999,9999,9999,957503608
30,9,10,Ticks_ISO_T2_5,1,9999,9999,9999,958003252
30,9,10,Ticks_ISO_T2_5,2,9999,9999,9999,958503992
30,9,10,Ticks_ISO_T2_5,3,9999,9999,9999,959003760
30,9,10,Ticks_ISO_T2_5,4,9999,9999,9999,959503456
30,9,10,Ticks_ISO_T2_5,5,9999,9999,9999,960003148
30,9,10,Ticks_ISO_T2_5,6,9999,9999,9999,960503888
30,9,10,Ticks_ISO_T2_5,7,9999,9999,9999,961003632
30,9,10,Ticks_ISO_T2_5,8,9999,9999,9999,961503304
30,9,10,Ticks_ISO_T2_5,9,9999,9999,9999,962004048
30,9,10,Ticks_ISO_T2_5,10,9999,9999,9999,962503744
30,9,10,Ticks_ISO_T2_5,11,9999,9999,9999,963003512
30,9,10,Ticks_ISO_T2_5,12,9999,9999,9999,963503208
30,9,10,Ticks_ISO_T2_5,13,9999,9999,9999,964003944
30,9,10,Ticks_ISO_T2_5,14,9999,9999,9999,964503648
30,9,10,Ticks_ISO_T2_5,15,9999,9999,9999,965003340
30,9,10,Ticks_ISO_T2_5,16,9999,9999,9999,965504076
30,9,10,Ticks_ISO_T2_5,17,9999,9999,9999,966003776
30,9,10,Ticks_ISO_T2_5,18,9999,9999,9999,966503540
30,9,10,Ticks_ISO_T2_5,19,9999,9999,9999,967003244
30,9,10,Ticks_ISO_T2_5,20,9999,9999,9999,967503976
30,9,10,Ticks_ISO_T2_5,21,9999,9999,9999,968003676
30,9,10,Ticks_ISO_T2_5,22,9999,9999,9999,968503372
30,9,10,Ticks_ISO_T2_5,23,9999,9999,9999,969003068
30,9,10,Ticks_ISO_T2_5,24,9999,9999,9999,969503804
30,9,10,Ticks_ISO_T2_5,25,9999,9999,9999,970003576
30,9,10,Ticks_ISO_T2_5,26,9999,9999,9999,970503272
30,9,10,Ticks_ISO_T2_5,27,9999,9999,9999,971004016
30,9,10,Ticks_ISO_T2_5,28,9999,9999,9999,971503708
30,9,10,Ticks_ISO_T2_5,29,9999,9999,9999,972003380
30,9,10,Ticks_ISO_T2_5,30,9999,9999,9999,972503148
30,9,10,Ticks_ISO_T2_5,31,9999,9999,9999,973003884
30,9,10,Ticks_ISO_T2_5,32,9999,9999,9999,973503580
30,9,10,Ticks_ISO_T2_5,33,9999,9999,9999,974003280
30,9,10,Ticks_ISO_T2_5,34,9999,9999,9999,974504020
30,9,10,Ticks_ISO_T2_5,35,9999,9999,9999,975003716
30,9,10,Ticks_ISO_T2_5,36,9999,9999,9999,975503408
30,9,10,Ticks_ISO_T2_5,37,9999,9999,9999,976003180
30,9,10,Ticks_ISO_T2_5,38,9999,9999,9999,976503920
30,9,10,Ticks_ISO_T2_5,39,9999,9999,9999,977003612
30,9,10,Ticks_ISO_T2_5,40,9999,9999,9999,977503300
30,9,10,Ticks_ISO_T2_5,41,9999,9999,9999,978004044
30,9,10,Ticks_ISO_T2_5,42,9999,9999,9999,978503740
30,9,10,Ticks_ISO_T2_5,43,9999,9999,9999,979003440
30,9,10,Ticks_ISO_T2_5,44,9999,9999,9999,979503208
30,9,10,Ticks_ISO_T2_5,45,9999,9999,9999,980003948
30,9,10,Ticks_ISO_T2_5,46,9999,9999,9999,980503644
30,9,10,Ticks_ISO_T2_5,47,9999,9999,9999,981003340
30,9,10,Ticks_ISO_T2_5,48,9999,9999,9999,981504084
30,9,10,Ticks_ISO_T2_5,49,9999,9999,9999,982003772
30,9,10,Ticks_ISO_T2_5,50,9999,9999,9999,982503516
30,9,10,Ticks_ISO_T2_5,51,9999,9999,9999,983003212
30,9,10,Ticks_ISO_T2_5,52,9999,9999,9999,983503952
30,9,10,Ticks_ISO_T2_5,53,9999,9999,9999,984003688
30,9,10,Ticks_ISO_T2_5,54,9999,9999,9999,984503348
30,9,10,Ticks_ISO_T2_5,55,9999,9999,9999,985003112
30,9,10,Ticks_ISO_T2_5,56,9999,9999,9999,985503860
30,9,10,Ticks_ISO_T2_5,57,9999,9999,9999,986003552
30,9,10,Ticks_ISO_T2_5,58,9999,9999,9999,986503248
30,9,10,Ticks_ISO_T2_5,59,9999,9999,9999,987003992
30,9,10,Ticks_ISO_T2_5,60,9999,9999,9999,987503684
30,9,10,Ticks_ISO_T2_5,61,9999,9999,9999,988003448
30,9,10,Ticks_ISO_T2_5,62,9999,9999,9999,988503152
30,9,10,Ticks_ISO_T2_5,63,9999,9999,9999,989003892
30,9,10,Ticks_ISO_T2_5,64,9999,9999,9999,989503588
30,9,10,Ticks_ISO_T2_5,65,9999,9999,9999,990003276
30,9,10,Ticks_ISO_T2_5,66,9999,9999,9999,990504016
30,9,10,Ticks_ISO_T2_5,67,9999,9999,9999,991003716
30,9,10,Ticks_ISO_T2_5,68,9999,9999,9999,991503412
30,9,10,Ticks_ISO_T2_5,69,9999,9999,9999,992003180
30,9,10,Ticks_ISO_T2_5,70,9999,9999,9999,992503920
30,9,10,Ticks_ISO_T2_5,71,9999,9999,9999,993003616
30,9,10,Ticks_ISO_T2_5,72,9999,9999,9999,993503288
30,9,10,Ticks_ISO_T2_5,73,9999,9999,9999,994004028
30,9,10,Ticks_ISO_T2_5,74,9999,9999,9999,994503792
30,9,10,Ticks_ISO_T2_5,75,9999,9999,9999,995003488
30,9,10,Ticks_ISO_T2_5,76,9999,9999,9999,995503180
30,9,10,Ticks_ISO_T2_5,77,9999,9999,9999,996003924
30,9,10,Ticks_ISO_T2_5,78,9999,9999,9999,996503620
30,9,10,Ticks_ISO_T2_5,79,9999,9999,9999,997003320
30,9,10,Ticks_ISO_T2_5,80,9999,9999,9999,997504056
30,9,10,Ticks_ISO_T2_5,81,9999,9999,9999,998003824
30,9,10,Ticks_ISO_T2_5,82,9999,9999,9999,998503528
30,9,10,Ticks_ISO_T2_5,83,9999,9999,9999,999003216
30,9,10,Ticks_ISO_T2_5,84,9999,9999,9999,999503960
30,9,10,Ticks_ISO_T2_5,85,9999,9999,9999,1000003660
30,9,10,Ticks_ISO_T2_5,86,9999,9999,9999,1000503356
30,9,10,Ticks_ISO_T2_5,87,9999,9999,9999,1001003120
30,9,10,Ticks_ISO_T2_5,88,9999,9999,9999,1001503792
30,9,10,Ticks_ISO_T2_5,89,9999,9999,9999,1002003556
30,9,10,Ticks_ISO_T2_5,90,9999,9999,9999,1002503248
30,9,10,Ticks_ISO_T2_5,91,9999,9999,9999,1003003992
30,9,10,Ticks_ISO_T2_5,92,9999,9999,9999,1003503692
30,9,10,Ticks_ISO_T2_5,93,9999,9999,9999,1004003432
30,9,10,Ticks_ISO_T2_5,94,9999,9999,9999,1004503132
30,9,10,Ticks_ISO_T2_5,95,9999,9999,9999,1005003864
30,9,10,Ticks_ISO_T2_5,96,9999,9999,9999,1005503560
30,9,10,Ticks_ISO_T2_5,97,9999,9999,9999,1006003256
30,9,10,Ticks_ISO_T2_5,98,9999,9999,9999,1006503996
30,9,10,Ticks_ISO_T2_5,99,9999,9999,9999,1007003768
30,9,10,Ticks_ISO_T2_5,100,9999,9999,9999,1007503460
30,9,10,Ticks_ISO_T2_5,101,9999,9999,9999,1008003164
30,9,10,Ticks_ISO_T2_5,102,9999,9999,9999,1008503904
30,9,10,Ticks_ISO_T2_5,103,9999,9999,9999,1009003592
30,9,10,Ticks_ISO_T2_5,104,9999,9999,9999,1009503288
30,9,10,Ticks_ISO_T2_5,105,9999,9999,9999,1010004036
30,9,10,Ticks_ISO_T2_5,106,9999,9999,9999,1010503732
30,9,10,Ticks_ISO_T2_5,107,9999,9999,9999,1011003504
30,9,10,Ticks_ISO_T2_5,108,9999,9999,9999,1011503192
30,9,10,Ticks_ISO_T2_5,109,9999,9999,9999,1012003932
30,9,10,Ticks_ISO_T2_5,110,9999,9999,9999,1012503632
30,9,10,Ticks_ISO_T2_5,111,9999,9999,9999,1013003320
30,9,10,Ticks_ISO_T2_5,112,9999,9999,9999,1013504064
30,9,10,Ticks_ISO_T2_5,113,9999,9999,9999,1014003764
30,9,10,Ticks_ISO_T2_5,114,9999,9999,9999,1014503508
30,9,10,Ticks_ISO_T2_5,115,9999,9999,9999,1015003204
30,9,10,Ticks_ISO_T2_5,116,9999,9999,9999,1015503944
30,9,10,Ticks_ISO_T2_5,117,9999,9999,9999,1016003636
30,9,10,Ticks_ISO_T2_5,118,9999,9999,9999,1016503412
30,9,10,Ticks_ISO_T2_5,119,9999,9999,9999,1017003100
30,9,10,Ticks_ISO_T2_5,120,9999,9999,9999,1017503840
30,9,10,Ticks_ISO_T2_5,121,9999,9999,9999,1018003536
30,9,10,Ticks_ISO_T2_5,122,9999,9999,9999,1018503232
30,9,10,Ticks_ISO_T2_5,123,9999,9999,9999,1019003980
30,9,10,Ticks_ISO_T2_5,124,9999,9999,9999,1019503676
30,9,10,Ticks_ISO_T2_5,125,9999,9999,9999,1020003448
30,9,10,Ticks_ISO_T2_5,126,9999,9999,9999,1020503136
30,9,10,Ticks_ISO_T2_5,127,9999,9999,9999,1021003876
30,9,10,Ticks_ISO_T2_5,128,9999,9999,9999,1021503572
30,9,10,Ticks_ISO_T2_5,129,9999,9999,9999,1022003268
30,10,9,Ticks_ISO_T2_8,0,5,42,127,1035761112
30,10,9,Ticks_ISO_T2_8,1,1,48,32,1036302748
30,10,9,Ticks_ISO_T2_8,2,5,42,127,1036560848
30,10,9,Ticks_ISO_T2_8,3,1,48,24,1037312316
30,10,9,Ticks_ISO_T2_8,4,5,42,127,1037360372
30,10,9,Ticks_ISO_T2_8,5,1,48,31,1038133740
30,10,9,Ticks_ISO_T2_8,6,5,42,127,1038161224
30,10,9,Ticks_ISO_T2_8,7,1,48,32,1038924344
30,10,9,Ticks_ISO_T2_8,8,5,42,127,1038961104
30,10,9,Ticks_ISO_T2_8,9,5,42,127,1039760920
30,10,9,Ticks_ISO_T2_8,10,1,48,32,1039779300
30,10,9,Ticks_ISO_T2_8,11,5,42,127,1040560356
30,10,9,Ticks_ISO_T2_8,12,1,48,29,1040571776
30,10,9,Ticks_ISO_T2_8,13,1,48,31,1041343892
30,10,9,Ticks_ISO_T2_8,14,5,42,127,1041361128
30,10,9,Ticks_ISO_T2_8,15,1,48,34,1042158612
30,10,9,Ticks_ISO_T2_8,16,5,42,127,1042161108
30,10,9,Ticks_ISO_T2_8,17,5,42,127,1042960776
30,10,9,Ticks_ISO_T2_8,18,1,48,32,1042990892
30,10,9,Ticks_ISO_T2_8,19,1,48,35,1043758992
30,10,9,Ticks_ISO_T2_8,20,5,42,127,1043760724
30,10,9,Ticks_ISO_T2_8,21,1,48,33,1044554292
30,10,9,Ticks_ISO_T2_8,22,5,42,127,1044561208
30,10,9,Ticks_ISO_T2_8,23,5,42,127,1045361096
30,10,9,Ticks_ISO_T2_8,24,1,48,33,1045388972
30,10,9,Ticks_ISO_T2_8,25,5,42,127,1046160828
30,10,9,Ticks_ISO_T2_8,26,1,48,32,1046170756
30,10,9,Ticks_ISO_T2_8,27,5,42,127,1046960636
30,10,9,Ticks_ISO_T2_8,28,1,48,23,1047028256
30,10,9,Ticks_ISO_T2_8,29,5,42,127,1047761416
30,10,9,Ticks_ISO_T2_8,30,1,48,35,1047772244
30,10,9,Ticks_ISO_T2_8,31,1,48,30,1048559208
30,10,9,Ticks_ISO_T2_8,32,5,42,127,1048560872
30,10,9,Ticks_ISO_T2_8,33,1,48,32,1049360684
30,10,9,Ticks_ISO_T2_8,34,5,42,127,1049362396
30,10,9,Ticks_ISO_T2_8,35,5,42,127,1050160420
30,10,9,Ticks_ISO_T2_8,36,1,48,33,1050164884
30,10,9,Ticks_ISO_T2_8,37,5,42,127,1050961424
30,10,9,Ticks_ISO_T2_8,38,1,48,31,1050987584
30,10,9,Ticks_ISO_T2_8,39,5,42,127,1051760860
30,10,9,Ticks_ISO_T2_8,40,1,48,27,1051810428
30,10,9,Ticks_ISO_T2_8,41,1,48,31,1052546344
30,10,9,Ticks_ISO_T2_8,42,5,42,127,1052560812
30,10,9,Ticks_ISO_T2_8,43,1,48,28,1053346000
30,10,9,Ticks_ISO_T2_8,44,5,42,127,1053360468
30,10,9,Ticks_ISO_T2_8,45,1,48,28,1054134960
30,10,9,Ticks_ISO_T2_8,46,5,42,127,1054161248
30,10,9,Ticks_ISO_T2_8,47,1,48,32,1054907768
30,10,9,Ticks_ISO_T2_8,48,5,42,127,1054961156
30,10,9,Ticks_ISO_T2_8,49,1,48,26,1055723980
30,10,9,Ticks_ISO_T2_8,50,5,42,127,1055760740
30,10,9,Ticks_ISO_T2_8,51,1,48,29,1056559880
30,10,9,Ticks_ISO_T2_8,52,5,42,127,1056561596
30,10,9,Ticks_ISO_T2_8,53,5,42,127,1057361184
30,10,9,Ticks_ISO_T2_8,54,1,48,27,1057383076
30,10,9,Ticks_ISO_T2_8,55,1,48,32,1058141804
30,10,9,Ticks_ISO_T2_8,56,5,42,127,1058161136
30,10,9,Ticks_ISO_T2_8,57,5,42,127,1058960876
30,10,9,Ticks_ISO_T2_8,58,1,48,36,1059002064
30,10,9,Ticks_ISO_T2_8,59,1,48,31,1059725416
30,10,9,Ticks_ISO_T2_8,60,5,42,127,1059760604
30,10,9,Ticks_ISO_T2_8,61,1,48,29,1060513932
30,10,9,Ticks_ISO_T2_8,62,5,42,127,1060561308
30,10,9,Ticks_ISO_T2_8,63,1,48,29,1061361148
30,10,9,Ticks_ISO_T2_8,64,5,42,127,1061362712
30,10,9,Ticks_ISO_T2_8,65,5,42,127,1062160880
30,10,9,Ticks_ISO_T2_8,66,1,48,37,1062205284
30,10,9,Ticks_ISO_T2_8,67,5,42,127,1062960392
30,10,9,Ticks_ISO_T2_8,68,1,48,27,1062968296
30,10,9,Ticks_ISO_T2_8,69,1,48,35,1063705108
30,10,9,Ticks_ISO_T2_8,70,5,42,127,1063761164
30,10,9,Ticks_ISO_T2_8,71,1,48,33,1064529672
30,10,9,Ticks_ISO_T2_8,72,5,42,127,1064560972
30,10,9,Ticks_ISO_T2_8,73,1,48,38,1065328736
30,10,9,Ticks_ISO_T2_8,74,5,42,127,1065360780
30,10,9,Ticks_ISO_T2_8,75,5,42,127,1066160668
30,10,9,Ticks_ISO_T2_8,76,1,48,32,1066177556
30,10,9,Ticks_ISO_T2_8,77,5,42,127,1066961372
30,10,9,Ticks_ISO_T2_8,78,1,48,35,1066966660
30,10,9,Ticks_ISO_T2_8,79,5,42,127,1067760908
30,10,9,Ticks_ISO_T2_8,80,1,48,35,1067763648
30,10,9,Ticks_ISO_T2_8,81,1,48,40,1068499464
30,10,9,Ticks_ISO_T2_8,82,5,42,127,1068560712
30,10,9,Ticks_ISO_T2_8,83,1,48,33,1069356964
30,10,9,Ticks_ISO_T2_8,84,5,42,127,1069360592
30,10,9,Ticks_ISO_T2_8,85,5,42,127,1070161380
30,10,9,Ticks_ISO_T2_8,86,1,48,25,1070162640
30,10,9,Ticks_ISO_T2_8,87,5,42,127,1070961112
30,10,9,Ticks_ISO_T2_8,88,1,48,26,1070998568
30,10,9,Ticks_ISO_T2_8,89,5,42,127,1071760696
30,10,9,Ticks_ISO_T2_8,90,1,48,23,1071782364
30,10,9,Ticks_ISO_T2_8,91,5,42,127,1072560432
30,10,9,Ticks_ISO_T2_8,92,1,48,26,1072578432
30,10,9,Ticks_ISO_T2_8,93,1,48,30,1073351748
30,10,9,Ticks_ISO_T2_8,94,5,42,127,1073361280
30,10,9,Ticks_ISO_T2_8,95,1,48,32,1074117296
30,10,9,Ticks_ISO_T2_8,96,5,42,127,1074161112
30,10,9,Ticks_ISO_T2_8,97,1,48,24,1074927376
30,10,9,Ticks_ISO_T2_8,98,5,42,127,1074960696
30,10,9,Ticks_ISO_T2_8,99,1,48,30,1075740124
30,10,9,Ticks_ISO_T2_8,100,5,42,127,1075760428
30,10,9,Ticks_ISO_T2_8,101,1,48,28,1076559472
30,10,9,Ticks_ISO_T2_8,102,5,42,127,1076561212
30,10,9,Ticks_ISO_T2_8,103,5,42,127,1077360952
30,10,9,Ticks_ISO_T2_8,104,1,48,32,1077362816
30,10,9,Ticks_ISO_T2_8,105,1,48,30,1078157052
30,10,9,Ticks_ISO_T2_8,106,5,42,127,1078160680
30,10,9,Ticks_ISO_T2_8,107,5,42,127,1078960420
30,10,9,Ticks_ISO_T2_8,108,1,48,31,1078967876
30,10,9,Ticks_ISO_T2_8,109,5,42,127,1079761200
30,10,9,Ticks_ISO_T2_8,110,1,48,28,1079763868
30,10,9,Ticks_ISO_T2_8,111,1,48,27,1080559592
30,10,9,Ticks_ISO_T2_8,112,5,42,127,1080561400
30,10,9,Ticks_ISO_T2_8,113,1,48,35,1081346220
30,10,9,Ticks_ISO_T2_8,114,5,42,127,1081360908
30,10,9,Ticks_ISO_T2_8,115,5,42,127,1082160352
30,10,9,Ticks_ISO_T2_8,116,1,48,28,1082182316
30,10,9,Ticks_ISO_T2_8,117,5,42,127,1082961132
30,10,9,Ticks_ISO_T2_8,118,1,48,24,1082989008
30,10,9,Ticks_ISO_T2_8,119,1,48,35,1083756636
30,10,9,Ticks_ISO_T2_8,120,5,42,127,1083760860
30,10,9,Ticks_ISO_T2_8,121,5,42,127,1084560824
30,10,9,Ticks_ISO_T2_8,122,1,48,35,1084591840
30,10,9,Ticks_ISO_T2_8,123,5,42,127,1085360704
30,10,9,Ticks_ISO_T2_8,124,1,48,33,1085371080
30,10,9,Ticks_ISO_T2_8,125,5,42,127,1086161260
30,10,9,Ticks_ISO_T2_8,126,1,48,29,1086212576
30,10,9,Ticks_ISO_T2_8,127,5,42,127,1086960944
30,10,9,Ticks_ISO_T2_8,128,1,48,28,1086985152
30,10,9,Ticks_ISO_T2_8,129,1,48,30,1087735724
30,10,9,Ticks_ISO_T2_8,130,5,42,127,1087760672
30,10,9,Ticks_ISO_T2_8,131,1,48,32,1088540704
30,10,9,Ticks_ISO_T2_8,132,5,42,127,1088560852
30,10,9,Ticks_ISO_T2_8,133,1,48,34,1089355092
30,10,9,Ticks_ISO_T2_8,134,5,42,127,1089361184
30,10,9,Ticks_ISO_T2_8,135,1,48,33,1090160548
30,10,9,Ticks_ISO_T2_8,136,5,42,127,1090162340
30,10,9,Ticks_ISO_T2_8,137,5,42,127,1090960732
30,10,9,Ticks_ISO_T2_8,138,1,48,18,1091051240
30,10,9,Ticks_ISO_T2_8,139,1,48,28,1091726092
30,10,9,Ticks_ISO_T2_8,140,5,42,127,1091760608
30,10,9,Ticks_ISO_T2_8,141,1,48,21,1092517600
30,10,9,Ticks_ISO_T2_8,142,5,42,127,1092561388
30,10,9,Ticks_ISO_T2_8,143,5,42,127,1093361080
30,10,9,Ticks_ISO_T2_8,144,1,48,29,1093399128
30,10,9,Ticks_ISO_T2_8,145,5,42,127,1094160740
30,10,9,Ticks_ISO_T2_8,146,1,48,37,1094197372
30,10,9,Ticks_ISO_T2_8,147,5,42,127,1094960400
30,10,9,Ticks_ISO_T2_8,148,1,48,24,1095011012
30,10,9,Ticks_ISO_T2_8,149,5,42,127,1095761400
30,10,9,Ticks_ISO_T2_8,150,1,48,42,1095781348
30,10,9,Ticks_ISO_T2_8,151,5,42,127,1096561284
30,10,9,Ticks_ISO_T2_8,152,1,48,36,1096573156
30,10,9,Ticks_ISO_T2_8,153,1,48,28,1097311760
30,10,9,Ticks_ISO_T2_8,154,5,42,127,1097360712
30,10,9,Ticks_ISO_T2_8,155,1,48,29,1098108728
30,10,9,Ticks_ISO_T2_8,156,5,42,127,1098160448
30,10,9,Ticks_ISO_T2_8,157,1,48,36,1098928136
30,10,9,Ticks_ISO_T2_8,158,5,42,127,1098961300
30,10,9,Ticks_ISO_T2_8,159,1,48,40,1099727048
30,10,9,Ticks_ISO_T2_8,160,5,42,127,1099761284
30,10,9,Ticks_ISO_T2_8,161,1,48,41,1100529796
30,10,9,Ticks_ISO_T2_8,162,5,42,127,1100560720
30,10,9,Ticks_ISO_T2_8,163,1,48,40,1101360904
30,10,9,Ticks_ISO_T2_8,164,5,42,127,1101362320
30,10,9,Ticks_ISO_T2_8,165,5,42,127,1102161236
30,10,9,Ticks_ISO_T2_8,166,1,48,35,1102162952
30,10,9,Ticks_ISO_T2_8,167,1,48,32,1102947544
30,10,9,Ticks_ISO_T2_8,168,5,42,127,1102960964
30,10,9,Ticks_ISO_T2_8,169,1,48,37,1103701872
30,10,9,Ticks_ISO_T2_8,170,5,42,127,1103760996
30,10,9,Ticks_ISO_T2_8,171,1,48,32,1104545888
30,10,9,Ticks_ISO_T2_8,172,5,42,127,1104560432
30,10,9,Ticks_ISO_T2_8,173,1,48,37,1105322284
30,10,9,Ticks_ISO_T2_8,174,5,42,127,1105361136
30,10,9,Ticks_ISO_T2_8,175,1,48,41,1106142660
30,10,9,Ticks_ISO_T2_8,176,5,42,127,1106161044
30,10,9,Ticks_ISO_T2_8,177,5,42,127,1106961080
30,10,9,Ticks_ISO_T2_8,178,1,48,37,1106978864
30,10,9,Ticks_ISO_T2_8,179,5,42,127,1107760368
30,10,9,Ticks_ISO_T2_8,180,1,48,28,1107780988
30,10,9,Ticks_ISO_T2_8,181,1,48,32,1108515480
30,10,9,Ticks_ISO_T2_8,182,5,42,127,1108561216
30,10,9,Ticks_ISO_T2_8,183,1,48,35,1109329276
30,10,9,Ticks_ISO_T2_8,184,5,42,127,1109360876
30,10,9,Ticks_ISO_T2_8,185,1,48,32,1110139932
30,10,9,Ticks_ISO_T2_8,186,5,42,127,1110160908
30,10,9,Ticks_ISO_T2_8,187,1,48,27,1110915576
30,10,9,Ticks_ISO_T2_8,188,5,42,127,1110960492
30,10,9,Ticks_ISO_T2_8,189,1,48,35,1111739292
30,10,9,Ticks_ISO_T2_8,190,5,42,127,1111761544
30,10,9,Ticks_ISO_T2_8,191,1,48,32,1112539332
30,10,9,Ticks_ISO_T2_8,192,5,42,127,1112560856
30,10,9,Ticks_ISO_T2_8,193,1,48,35,1113340432
30,10,9,Ticks_ISO_T2_8,194,5,42,127,1113360812
30,10,9,Ticks_ISO_T2_8,195,5,42,127,1114160628
30,10,9,Ticks_ISO_T2_8,196,1,48,35,1114175112
30,10,9,Ticks_ISO_T2_8,197,1,48,33,1114942364
30,10,9,Ticks_ISO_T2_8,198,5,42,127,1114961472
30,10,9,Ticks_ISO_T2_8,199,1,48,33,1115726392
30,10,9,Ticks_ISO_T2_8,200,5,42,127,1115761208
30,10,9,Ticks_ISO_T2_8,201,1,48,33,1116555600
30,10,9,Ticks_ISO_T2_8,202,5,42,127,1116560796
30,10,9,Ticks_ISO_T2_8,203,1,48,32,1117327208
30,10,9,Ticks_ISO_T2_8,204,5,42,127,1117360452
30,10,9,Ticks_ISO_T2_8,205,1,48,33,1118135016
30,10,9,Ticks_ISO_T2_8,206,5,42,127,1118161604
30,10,9,Ticks_ISO_T2_8,207,1,48,33,1118957672
30,10,9,Ticks_ISO_T2_8,208,5,42,127,1118960992
30,10,9,Ticks_ISO_T2_8,209,1,48,32,1119733244
30,10,9,Ticks_ISO_T2_8,210,5,42,127,1119760800
30,10,9,Ticks_ISO_T2_8,211,1,48,32,1120526620
30,10,9,Ticks_ISO_T2_8,212,5,42,127,1120560684
30,10,9,Ticks_ISO_T2_8,213,1,48,32,1121358736
30,10,9,Ticks_ISO_T2_8,214,5,42,127,1121361316
30,10,9,Ticks_ISO_T2_8,215,1,48,25,1122112172
30,10,9,Ticks_ISO_T2_8,216,5,42,127,1122161272
30,10,9,Ticks_ISO_T2_8,217,5,42,127,1122960864
30,10,9,Ticks_ISO_T2_8,218,1,48,30,1122963536
30,10,9,Ticks_ISO_T2_8,219,5,42,127,1123760452
30,10,9,Ticks_ISO_T2_8,220,1,48,36,1123772392
30,10,9,Ticks_ISO_T2_8,221,5,42,127,1124561232
30,10,9,Ticks_ISO_T2_8,222,1,48,40,1124575044
30,10,9,Ticks_ISO_T2_8,223,1,48,37,1125350776
30,10,9,Ticks_ISO_T2_8,224,5,42,127,1125361280
30,10,9,Ticks_ISO_T2_8,225,1,48,32,1126138168
30,10,9,Ticks_ISO_T2_8,226,5,42,127,1126160716
30,10,9,Ticks_ISO_T2_8,227,5,42,127,1126960456
30,10,9,Ticks_ISO_T2_8,228,1,48,35,1126971952
30,10,9,Ticks_ISO_T2_8,229,1,48,34,1127742344
30,10,9,Ticks_ISO_T2_8,230,5,42,127,1127761156
30,10,9,Ticks_ISO_T2_8,231,5,42,127,1128560896
30,10,9,Ticks_ISO_T2_8,232,1,48,33,1128566480
30,10,9,Ticks_ISO_T2_8,233,5,42,127,1129360852
30,10,9,Ticks_ISO_T2_8,234,1,48,31,1129369884
30,10,9,Ticks_ISO_T2_8,235,1,48,29,1130130556
30,10,9,Ticks_ISO_T2_8,236,5,42,127,1130160432
30,10,9,Ticks_ISO_T2_8,237,5,42,127,1130961364
30,10,9,Ticks_ISO_T2_8,238,1,48,28,1130972936
30,10,9,Ticks_ISO_T2_8,0,9999,9999,9999,1035758672
30,10,9,Ticks_ISO_T2_8,1,9999,9999,9999,1036558408
30,10,9,Ticks_ISO_T2_8,2,9999,9999,9999,1037358156
30,10,9,Ticks_ISO_T2_8,3,9999,9999,9999,1038158936
30,10,9,Ticks_ISO_T2_8,4,9999,9999,9999,1038958668
30,10,9,Ticks_ISO_T2_8,5,9999,9999,9999,1039758408
30,10,9,Ticks_ISO_T2_8,6,9999,9999,9999,1040558144
30,10,9,Ticks_ISO_T2_8,7,9999,9999,9999,1041358916
30,10,9,Ticks_ISO_T2_8,8,9999,9999,9999,1042158672
30,10,9,Ticks_ISO_T2_8,9,9999,9999,9999,1042958412
30,10,9,Ticks_ISO_T2_8,10,9999,9999,9999,1043758144
30,10,9,Ticks_ISO_T2_8,11,9999,9999,9999,1044558920
30,10,9,Ticks_ISO_T2_8,12,9999,9999,9999,1045358656
30,10,9,Ticks_ISO_T2_8,13,9999,9999,9999,1046158392
30,10,9,Ticks_ISO_T2_8,14,9999,9999,9999,1046958196
30,10,9,Ticks_ISO_T2_8,15,9999,9999,9999,1047758904
30,10,9,Ticks_ISO_T2_8,16,9999,9999,9999,1048558680
30,10,9,Ticks_ISO_T2_8,17,9999,9999,9999,1049358396
30,10,9,Ticks_ISO_T2_8,18,9999,9999,9999,1050158132
30,10,9,Ticks_ISO_T2_8,19,9999,9999,9999,1050958912
30,10,9,Ticks_ISO_T2_8,20,9999,9999,9999,1051758648
30,10,9,Ticks_ISO_T2_8,21,9999,9999,9999,1052558448
30,10,9,Ticks_ISO_T2_8,22,9999,9999,9999,1053358180
30,10,9,Ticks_ISO_T2_8,23,9999,9999,9999,1054158960
30,10,9,Ticks_ISO_T2_8,24,9999,9999,9999,1054958644
30,10,9,Ticks_ISO_T2_8,25,9999,9999,9999,1055758452
30,10,9,Ticks_ISO_T2_8,26,9999,9999,9999,1056558192
30,10,9,Ticks_ISO_T2_8,27,9999,9999,9999,1057358896
30,10,9,Ticks_ISO_T2_8,28,9999,9999,9999,1058158696
30,10,9,Ticks_ISO_T2_8,29,9999,9999,9999,1058958436
30,10,9,Ticks_ISO_T2_8,30,9999,9999,9999,1059758164
30,10,9,Ticks_ISO_T2_8,31,9999,9999,9999,1060558944
30,10,9,Ticks_ISO_T2_8,32,9999,9999,9999,1061358708
30,10,9,Ticks_ISO_T2_8,33,9999,9999,9999,1062158444
30,10,9,Ticks_ISO_T2_8,34,9999,9999,9999,1062958176
30,10,9,Ticks_ISO_T2_8,35,9999,9999,9999,1063758952
30,10,9,Ticks_ISO_T2_8,36,9999,9999,9999,1064558684
30,10,9,Ticks_ISO_T2_8,37,9999,9999,9999,1065358416
30,10,9,Ticks_ISO_T2_8,38,9999,9999,9999,1066158156
30,10,9,Ticks_ISO_T2_8,39,9999,9999,9999,1066958936
30,10,9,Ticks_ISO_T2_8,40,9999,9999,9999,1067758692
30,10,9,Ticks_ISO_T2_8,41,9999,9999,9999,1068558420
30,10,9,Ticks_ISO_T2_8,42,9999,9999,9999,1069358152
30,10,9,Ticks_ISO_T2_8,43,9999,9999,9999,1070158940
30,10,9,Ticks_ISO_T2_8,44,9999,9999,9999,1070958676
30,10,9,Ticks_ISO_T2_8,45,9999,9999,9999,1071758408
30,10,9,Ticks_ISO_T2_8,46,9999,9999,9999,1072558140
30,10,9,Ticks_ISO_T2_8,47,9999,9999,9999,1073358916
30,10,9,Ticks_ISO_T2_8,48,9999,9999,9999,1074158676
30,10,9,Ticks_ISO_T2_8,49,9999,9999,9999,1074958408
30,10,9,Ticks_ISO_T2_8,50,9999,9999,9999,1075758140
30,10,9,Ticks_ISO_T2_8,51,9999,9999,9999,1076558948
30,10,9,Ticks_ISO_T2_8,52,9999,9999,9999,1077358660
30,10,9,Ticks_ISO_T2_8,53,9999,9999,9999,1078158392
30,10,9,Ticks_ISO_T2_8,54,9999,9999,9999,1078958132
30,10,9,Ticks_ISO_T2_8,55,9999,9999,9999,1079758912
30,10,9,Ticks_ISO_T2_8,56,9999,9999,9999,1080558672
30,10,9,Ticks_ISO_T2_8,57,9999,9999,9999,1081358396
30,10,9,Ticks_ISO_T2_8,58,9999,9999,9999,1082158136
30,10,9,Ticks_ISO_T2_8,59,9999,9999,9999,1082958916
30,10,9,Ticks_ISO_T2_8,60,9999,9999,9999,1083758644
30,10,9,Ticks_ISO_T2_8,61,9999,9999,9999,1084558384
30,10,9,Ticks_ISO_T2_8,62,9999,9999,9999,1085358192
30,10,9,Ticks_ISO_T2_8,63,9999,9999,9999,1086158900
30,10,9,Ticks_ISO_T2_8,64,9999,9999,9999,1086958656
30,10,9,Ticks_ISO_T2_8,65,9999,9999,9999,1087758384
30,10,9,Ticks_ISO_T2_8,66,9999,9999,9999,1088558192
30,10,9,Ticks_ISO_T2_8,67,9999,9999,9999,1089358896
30,10,9,Ticks_ISO_T2_8,68,9999,9999,9999,1090158636
30,10,9,Ticks_ISO_T2_8,69,9999,9999,9999,1090958444
30,10,9,Ticks_ISO_T2_8,70,9999,9999,9999,1091758172
30,10,9,Ticks_ISO_T2_8,71,9999,9999,9999,1092558952
30,10,9,Ticks_ISO_T2_8,72,9999,9999,9999,1093358640
30,10,9,Ticks_ISO_T2_8,73,9999,9999,9999,1094158448
30,10,9,Ticks_ISO_T2_8,74,9999,9999,9999,1094958184
30,10,9,Ticks_ISO_T2_8,75,9999,9999,9999,1095758964
30,10,9,Ticks_ISO_T2_8,76,9999,9999,9999,1096558696
30,10,9,Ticks_ISO_T2_8,77,9999,9999,9999,1097358424
30,10,9,Ticks_ISO_T2_8,78,9999,9999,9999,1098158160
30,10,9,Ticks_ISO_T2_8,79,9999,9999,9999,1098958940
30,10,9,Ticks_ISO_T2_8,80,9999,9999,9999,1099758696
30,10,9,Ticks_ISO_T2_8,81,9999,9999,9999,1100558432
30,10,9,Ticks_ISO_T2_8,82,9999,9999,9999,1101358168
30,10,9,Ticks_ISO_T2_8,83,9999,9999,9999,1102158948
30,10,9,Ticks_ISO_T2_8,84,9999,9999,9999,1102958676
30,10,9,Ticks_ISO_T2_8,85,9999,9999,9999,1103758408
30,10,9,Ticks_ISO_T2_8,86,9999,9999,9999,1104558144
30,10,9,Ticks_ISO_T2_8,87,9999,9999,9999,1105358924
30,10,9,Ticks_ISO_T2_8,88,9999,9999,9999,1106158680
30,10,9,Ticks_ISO_T2_8,89,9999,9999,9999,1106958420
30,10,9,Ticks_ISO_T2_8,90,9999,9999,9999,1107758152
30,10,9,Ticks_ISO_T2_8,91,9999,9999,9999,1108558928
30,10,9,Ticks_ISO_T2_8,92,9999,9999,9999,1109358660
30,10,9,Ticks_ISO_T2_8,93,9999,9999,9999,1110158396
30,10,9,Ticks_ISO_T2_8,94,9999,9999,9999,1110958128
30,10,9,Ticks_ISO_T2_8,95,9999,9999,9999,1111758956
30,10,9,Ticks_ISO_T2_8,96,9999,9999,9999,1112558640
30,10,9,Ticks_ISO_T2_8,97,9999,9999,9999,1113358448
30,10,9,Ticks_ISO_T2_8,98,9999,9999,9999,1114158188
30,10,9,Ticks_ISO_T2_8,99,9999,9999,9999,1114958960
30,10,9,Ticks_ISO_T2_8,100,9999,9999,9999,1115758696
30,10,9,Ticks_ISO_T2_8,101,9999,9999,9999,1116558432
30,10,9,Ticks_ISO_T2_8,102,9999,9999,9999,1117358164
30,10,9,Ticks_ISO_T2_8,103,9999,9999,9999,1118158944
30,10,9,Ticks_ISO_T2_8,104,9999,9999,9999,1118958704
30,10,9,Ticks_ISO_T2_8,105,9999,9999,9999,1119758440
30,10,9,Ticks_ISO_T2_8,106,9999,9999,9999,1120558172
30,10,9,Ticks_ISO_T2_8,107,9999,9999,9999,1121358952
30,10,9,Ticks_ISO_T2_8,108,9999,9999,9999,1122158688
30,10,9,Ticks_ISO_T2_8,109,9999,9999,9999,1122958428
30,10,9,Ticks_ISO_T2_8,110,9999,9999,9999,1123758160
30,10,9,Ticks_ISO_T2_8,111,9999,9999,9999,1124558940
30,10,9,Ticks_ISO_T2_8,112,9999,9999,9999,1125358692
30,10,9,Ticks_ISO_T2_8,113,9999,9999,9999,1126158428
30,10,9,Ticks_ISO_T2_8,114,9999,9999,9999,1126958168
30,10,9,Ticks_ISO_T2_8,115,9999,9999,9999,1127758940
30,10,9,Ticks_ISO_T2_8,116,9999,9999,9999,1128558680
30,10,9,Ticks_ISO_T2_8,117,9999,9999,9999,1129358412
30,10,9,Ticks_ISO_T2_8,118,9999,9999,9999,1130158140
30,10,9,Ticks_ISO_T2_8,119,9999,9999,9999,1130958928
30,11,25,Jits_Pract_5,0,5,56,103,1210788388
30,11,25,Jits_Pract_5,1,5,63,98,1210791336
30,11,25,Jits_Pract_5,2,5,80,127,1210794384
30,11,25,Jits_Pract_5,0,5,56,103,1211288040
30,11,25,Jits_Pract_5,1,5,63,98,1211291064
30,11,25,Jits_Pract_5,2,5,80,127,1211294336
30,11,25,Jits_Pract_5,0,5,56,103,1211787712
30,11,25,Jits_Pract_5,1,1,48,26,1211796464
30,11,25,Jits_Pract_5,2,5,80,127,1211798344
30,11,25,Jits_Pract_5,3,5,63,98,1211818284
30,11,25,Jits_Pract_5,0,5,63,98,1212238044
30,11,25,Jits_Pract_5,1,5,80,127,1212268020
30,11,25,Jits_Pract_5,2,5,56,103,1212277992
30,11,25,Jits_Pract_5,0,1,48,32,1212712112
30,11,25,Jits_Pract_5,1,5,80,127,1212798304
30,11,25,Jits_Pract_5,2,5,56,103,1212807528
30,11,25,Jits_Pract_5,3,5,63,98,1212838232
30,11,25,Jits_Pract_5,0,5,63,98,1213287888
30,11,25,Jits_Pract_5,1,5,56,103,1213317492
30,11,25,Jits_Pract_5,2,5,80,127,1213327984
30,11,25,Jits_Pract_5,3,1,48,28,1213330428
30,11,25,Jits_Pract_5,0,5,56,103,1213738284
30,11,25,Jits_Pract_5,1,1,48,33,1213765984
30,11,25,Jits_Pract_5,2,5,63,98,1213787584
30,11,25,Jits_Pract_5,3,5,80,127,1213808040
30,11,25,Jits_Pract_5,0,5,80,127,1214237992
30,11,25,Jits_Pract_5,1,1,48,32,1214267416
30,11,25,Jits_Pract_5,2,5,63,98,1214288184
30,11,25,Jits_Pract_5,3,5,56,103,1214328196
30,11,25,Jits_Pract_5,0,5,56,103,1214737920
30,11,25,Jits_Pract_5,1,5,63,98,1214767596
30,11,25,Jits_Pract_5,2,1,48,30,1214774308
30,11,25,Jits_Pract_5,3,5,80,127,1214838092
30,11,25,Jits_Pract_5,0,5,56,103,1215237404
30,11,25,Jits_Pract_5,1,1,48,31,1215254224
30,11,25,Jits_Pract_5,2,5,80,127,1215298084
30,11,25,Jits_Pract_5,3,5,63,98,1215327612
30,11,25,Jits_Pract_5,0,5,56,103,1215747452
30,11,25,Jits_Pract_5,1,5,63,98,1215757648
30,11,25,Jits_Pract_5,2,1,48,29,1215797884
30,11,25,Jits_Pract_5,3,5,80,127,1215799300
30,11,25,Jits_Pract_5,0,5,63,98,1216238016
30,11,25,Jits_Pract_5,1,1,48,31,1216278896
30,11,25,Jits_Pract_5,2,5,80,127,1216317804
30,11,25,Jits_Pract_5,3,5,56,103,1216327928
30,11,25,Jits_Pract_5,0,1,48,37,1216787160
30,11,25,Jits_Pract_5,1,5,63,98,1216788948
30,11,25,Jits_Pract_5,2,5,56,103,1216827912
30,11,25,Jits_Pract_5,3,5,80,127,1216831056
30,11,25,Jits_Pract_5,0,5,56,103,1217247808
30,11,25,Jits_Pract_5,1,5,63,98,1217257784
30,11,25,Jits_Pract_5,2,5,80,127,1217297868
30,11,25,Jits_Pract_5,3,1,48,29,1217302788
30,11,25,Jits_Pract_5,0,5,56,103,1217748232
30,11,25,Jits_Pract_5,1,5,63,98,1217751380
30,11,25,Jits_Pract_5,2,5,80,127,1217767948
30,11,25,Jits_Pract_5,3,1,48,38,1217784848
30,11,25,Jits_Pract_5,0,9999,9999,9999,1211035752
30,11,25,Jits_Pract_5,1,9999,9999,9999,1211535480
30,11,25,Jits_Pract_5,2,9999,9999,9999,1212035128
30,11,25,Jits_Pract_5,3,9999,9999,9999,1212535900
30,11,25,Jits_Pract_5,4,9999,9999,9999,1213035616
30,11,25,Jits_Pract_5,5,9999,9999,9999,1213535308
30,11,25,Jits_Pract_5,6,9999,9999,9999,1214036048
30,11,25,Jits_Pract_5,7,9999,9999,9999,1214535752
30,11,25,Jits_Pract_5,8,9999,9999,9999,1215035460
30,11,25,Jits_Pract_5,9,9999,9999,9999,1215535168
30,11,25,Jits_Pract_5,10,9999,9999,9999,1216035924
30,11,25,Jits_Pract_5,11,9999,9999,9999,1216535632
30,11,25,Jits_Pract_5,12,9999,9999,9999,1217035320
30,11,25,Jits_Pract_5,13,9999,9999,9999,1217536060
30,11,25,Jits_Pract_5,14,9999,9999,9999,1218046064
30,12,24,Jits_Pract_8,0,5,56,103,1224518980
30,12,24,Jits_Pract_8,1,5,63,98,1224522000
30,12,24,Jits_Pract_8,2,5,80,127,1224525272
30,12,24,Jits_Pract_8,0,5,56,103,1225318688
30,12,24,Jits_Pract_8,1,5,63,98,1225321940
30,12,24,Jits_Pract_8,2,5,80,127,1225324984
30,12,24,Jits_Pract_8,0,5,80,127,1226059232
30,12,24,Jits_Pract_8,1,1,48,29,1226068648
30,12,24,Jits_Pract_8,2,5,63,98,1226149508
30,12,24,Jits_Pract_8,3,5,56,103,1226158508
30,12,24,Jits_Pract_8,0,5,56,103,1226879528
30,12,24,Jits_Pract_8,1,5,63,98,1226888532
30,12,24,Jits_Pract_8,2,1,48,38,1226905204
30,12,24,Jits_Pract_8,3,5,80,127,1226978604
30,12,24,Jits_Pract_8,0,1,48,40,1227641808
30,12,24,Jits_Pract_8,1,5,63,98,1227649332
30,12,24,Jits_Pract_8,2,5,80,127,1227679228
30,12,24,Jits_Pract_8,3,5,56,103,1227708828
30,12,24,Jits_Pract_8,0,1,48,37,1228433164
30,12,24,Jits_Pract_8,1,5,56,103,1228449304
30,12,24,Jits_Pract_8,2,5,80,127,1228548440
30,12,24,Jits_Pract_8,3,5,63,98,1228598568
30,12,24,Jits_Pract_8,0,5,56,103,1229249068
30,12,24,Jits_Pract_8,1,1,48,38,1229259536
30,12,24,Jits_Pract_8,2,5,80,127,1229299292
30,12,24,Jits_Pract_8,3,5,63,98,1229338928
30,12,24,Jits_Pract_8,0,1,48,41,1230027604
30,12,24,Jits_Pract_8,1,5,80,127,1230079200
30,12,24,Jits_Pract_8,2,5,63,98,1230109096
30,12,24,Jits_Pract_8,3,5,56,103,1230178688
30,12,24,Jits_Pract_8,0,1,48,42,1230868672
30,12,24,Jits_Pract_8,1,5,63,98,1230908700
30,12,24,Jits_Pract_8,2,5,56,103,1230938600
30,12,24,Jits_Pract_8,3,5,80,127,1230998972
30,12,24,Jits_Pract_8,0,5,56,103,1231649040
30,12,24,Jits_Pract_8,1,1,48,39,1231650552
30,12,24,Jits_Pract_8,2,5,80,127,1231653596
30,12,24,Jits_Pract_8,3,5,63,98,1231768896
30,12,24,Jits_Pract_8,0,1,48,39,1232448552
30,12,24,Jits_Pract_8,1,5,56,103,1232528664
30,12,24,Jits_Pract_8,2,5,80,127,1232568736
30,12,24,Jits_Pract_8,3,5,63,98,1232579084
30,12,24,Jits_Pract_8,0,5,56,103,1233288500
30,12,24,Jits_Pract_8,1,5,80,127,1233309032
30,12,24,Jits_Pract_8,2,1,48,42,1233320840
30,12,24,Jits_Pract_8,3,5,63,98,1233389068
30,12,24,Jits_Pract_8,0,5,80,127,1234079200
30,12,24,Jits_Pract_8,1,1,48,40,1234154864
30,12,24,Jits_Pract_8,2,5,56,103,1234178424
30,12,24,Jits_Pract_8,3,5,63,98,1234188544
30,12,24,Jits_Pract_8,0,5,63,98,1234849080
30,12,24,Jits_Pract_8,1,5,80,127,1234908524
30,12,24,Jits_Pract_8,2,5,56,103,1234918944
30,12,24,Jits_Pract_8,3,1,48,40,1234939296
30,12,24,Jits_Pract_8,0,5,56,103,1235649056
30,12,24,Jits_Pract_8,1,1,48,37,1235687048
30,12,24,Jits_Pract_8,2,5,63,98,1235718456
30,12,24,Jits_Pract_8,3,5,80,127,1235722192
30,12,24,Jits_Pract_8,0,9999,9999,9999,1224917060
30,12,24,Jits_Pract_8,1,9999,9999,9999,1225716796
30,12,24,Jits_Pract_8,2,9999,9999,9999,1226516584
30,12,24,Jits_Pract_8,3,9999,9999,9999,1227316284
30,12,24,Jits_Pract_8,4,9999,9999,9999,1228117096
30,12,24,Jits_Pract_8,5,9999,9999,9999,1228916852
30,12,24,Jits_Pract_8,6,9999,9999,9999,1229716532
30,12,24,Jits_Pract_8,7,9999,9999,9999,1230516304
30,12,24,Jits_Pract_8,8,9999,9999,9999,1231317112
30,12,24,Jits_Pract_8,9,9999,9999,9999,1232116796
30,12,24,Jits_Pract_8,10,9999,9999,9999,1232916576
30,12,24,Jits_Pract_8,11,9999,9999,9999,1233716332
30,12,24,Jits_Pract_8,12,9999,9999,9999,1234517076
30,12,24,Jits_Pract_8,13,9999,9999,9999,1235316840
30,12,24,Jits_Pract_8,14,9999,9999,9999,1236116588
30,13,19,Jits_Linear_5,0,5,56,103,1256821076
30,13,19,Jits_Linear_5,1,5,63,98,1256824244
30,13,19,Jits_Linear_5,2,5,80,127,1256827296
30,13,19,Jits_Linear_5,0,5,56,103,1257301312
30,13,19,Jits_Linear_5,1,5,63,98,1257304332
30,13,19,Jits_Linear_5,2,5,80,127,1257307532
30,13,19,Jits_Linear_5,3,1,48,34,1257519856
30,13,19,Jits_Linear_5,0,5,56,103,1257780636
30,13,19,Jits_Linear_5,1,5,80,127,1257791056
30,13,19,Jits_Linear_5,2,5,63,98,1257811440
30,13,19,Jits_Linear_5,3,1,48,31,1257885056
30,13,19,Jits_Linear_5,0,5,63,98,1258210888
30,13,19,Jits_Linear_5,1,5,80,127,1258241460
30,13,19,Jits_Linear_5,2,5,56,103,1258250688
30,13,19,Jits_Linear_5,3,1,48,34,1258295076
30,13,19,Jits_Linear_5,0,1,48,33,1258701828
30,13,19,Jits_Linear_5,1,5,80,127,1258751400
30,13,19,Jits_Linear_5,2,5,56,103,1258760552
30,13,19,Jits_Linear_5,3,5,63,98,1258791200
30,13,19,Jits_Linear_5,0,1,48,34,1259221448
30,13,19,Jits_Linear_5,1,5,63,98,1259230568
30,13,19,Jits_Linear_5,2,5,56,103,1259261364
30,13,19,Jits_Linear_5,3,5,80,127,1259270364
30,13,19,Jits_Linear_5,0,5,56,103,1259671040
30,13,19,Jits_Linear_5,1,1,48,37,1259697752
30,13,19,Jits_Linear_5,2,5,63,98,1259721160
30,13,19,Jits_Linear_5,3,5,80,127,1259740524
30,13,19,Jits_Linear_5,0,5,80,127,1260161448
30,13,19,Jits_Linear_5,1,1,48,33,1260168236
30,13,19,Jits_Linear_5,2,5,63,98,1260210524
30,13,19,Jits_Linear_5,3,5,56,103,1260250340
30,13,19,Jits_Linear_5,0,5,56,103,1260651036
30,13,19,Jits_Linear_5,1,5,63,98,1260680636
30,13,19,Jits_Linear_5,2,1,48,35,1260687424
30,13,19,Jits_Linear_5,3,5,80,127,1260751360
30,13,19,Jits_Linear_5,0,5,56,103,1261141224
30,13,19,Jits_Linear_5,1,1,48,38,1261166584
30,13,19,Jits_Linear_5,2,5,80,127,1261200936
30,13,19,Jits_Linear_5,3,5,63,98,1261230388
30,13,19,Jits_Linear_5,0,5,56,103,1261641152
30,13,19,Jits_Linear_5,1,5,63,98,1261651276
30,13,19,Jits_Linear_5,2,1,48,40,1261673872
30,13,19,Jits_Linear_5,3,5,80,127,1261691356
30,13,19,Jits_Linear_5,0,5,63,98,1262130736
30,13,19,Jits_Linear_5,1,1,48,25,1262154232
30,13,19,Jits_Linear_5,2,5,80,127,1262210456
30,13,19,Jits_Linear_5,3,5,56,103,1262220948
30,13,19,Jits_Linear_5,0,1,48,31,1262649876
30,13,19,Jits_Linear_5,1,5,63,98,1262680320
30,13,19,Jits_Linear_5,2,5,56,103,1262721456
30,13,19,Jits_Linear_5,3,5,80,127,1262724668
30,13,19,Jits_Linear_5,0,5,56,103,1263141272
30,13,19,Jits_Linear_5,1,5,63,98,1263150720
30,13,19,Jits_Linear_5,2,1,48,35,1263167768
30,13,19,Jits_Linear_5,3,5,80,127,1263191920
30,13,19,Jits_Linear_5,0,1,48,33,1263599284
30,13,19,Jits_Linear_5,1,5,56,103,1263630848
30,13,19,Jits_Linear_5,2,5,63,98,1263633988
30,13,19,Jits_Linear_5,3,5,80,127,1263651084
30,13,19,Jits_Linear_5,0,1,48,22,1264125768
30,13,19,Jits_Linear_5,1,5,80,127,1264150980
30,13,19,Jits_Linear_5,2,5,56,103,1264161176
30,13,19,Jits_Linear_5,3,5,63,98,1264230768
30,13,19,Jits_Linear_5,0,5,63,98,1264650896
30,13,19,Jits_Linear_5,1,1,48,42,1264651860
30,13,19,Jits_Linear_5,2,5,56,103,1264670976
30,13,19,Jits_Linear_5,3,5,80,127,1264750908
30,13,19,Jits_Linear_5,0,1,48,48,1265129652
30,13,19,Jits_Linear_5,1,5,56,103,1265170804
30,13,19,Jits_Linear_5,2,5,80,127,1265210672
30,13,19,Jits_Linear_5,3,5,63,98,1265221092
30,13,19,Jits_Linear_5,0,1,48,44,1265640272
30,13,19,Jits_Linear_5,1,5,80,127,1265670792
30,13,19,Jits_Linear_5,2,5,63,98,1265701144
30,13,19,Jits_Linear_5,3,5,56,103,1265741292
30,13,19,Jits_Linear_5,0,1,48,36,1266156280
30,13,19,Jits_Linear_5,1,5,56,103,1266200900
30,13,19,Jits_Linear_5,2,5,63,98,1266230724
30,13,19,Jits_Linear_5,3,5,80,127,1266280912
30,13,19,Jits_Linear_5,0,1,48,44,1266660252
30,13,19,Jits_Linear_5,1,5,80,127,1266710776
30,13,19,Jits_Linear_5,2,5,56,103,1266750720
30,13,19,Jits_Linear_5,3,5,63,98,1266761348
30,13,19,Jits_Linear_5,0,1,48,46,1267155040
30,13,19,Jits_Linear_5,1,5,80,127,1267210764
30,13,19,Jits_Linear_5,2,5,63,98,1267251664
30,13,19,Jits_Linear_5,3,5,56,103,1267310860
30,13,19,Jits_Linear_5,0,1,48,42,1267704800
30,13,19,Jits_Linear_5,1,5,56,103,1267730756
30,13,19,Jits_Linear_5,2,5,80,127,1267741028
30,13,19,Jits_Linear_5,3,5,63,98,1267820884
30,13,19,Jits_Linear_5,0,1,48,44,1268230496
30,13,19,Jits_Linear_5,1,5,80,127,1268250900
30,13,19,Jits_Linear_5,2,5,63,98,1268311664
30,13,19,Jits_Linear_5,3,5,56,103,1268341028
30,13,19,Jits_Linear_5,0,1,48,43,1268753928
30,13,19,Jits_Linear_5,1,5,56,103,1268771192
30,13,19,Jits_Linear_5,2,5,80,127,1268830612
30,13,19,Jits_Linear_5,3,5,63,98,1268870536
30,13,19,Jits_Linear_5,0,1,48,37,1269314604
30,13,19,Jits_Linear_5,1,5,56,103,1269350824
30,13,19,Jits_Linear_5,2,5,63,98,1269361240
30,13,19,Jits_Linear_5,3,5,80,127,1269364456
30,13,19,Jits_Linear_5,0,5,80,127,1269830880
30,13,19,Jits_Linear_5,1,1,48,41,1269847700
30,13,19,Jits_Linear_5,2,5,63,98,1269921384
30,13,19,Jits_Linear_5,3,5,56,103,1269931504
30,13,19,Jits_Linear_5,0,5,56,103,1270360608
30,13,19,Jits_Linear_5,1,5,63,98,1270363480
30,13,19,Jits_Linear_5,2,5,80,127,1270366680
30,13,19,Jits_Linear_5,3,1,48,42,1270389740
30,13,19,Jits_Linear_5,0,1,48,40,1270848344
30,13,19,Jits_Linear_5,1,5,80,127,1270911392
30,13,19,Jits_Linear_5,2,5,63,98,1270960536
30,13,19,Jits_Linear_5,3,5,56,103,1270991332
30,13,19,Jits_Linear_5,0,1,48,44,1271400720
30,13,19,Jits_Linear_5,1,5,56,103,1271421568
30,13,19,Jits_Linear_5,2,5,80,127,1271430568
30,13,19,Jits_Linear_5,3,5,63,98,1271501360
30,13,19,Jits_Linear_5,0,1,48,39,1271936876
30,13,19,Jits_Linear_5,1,5,56,103,1271961188
30,13,19,Jits_Linear_5,2,5,63,98,1271981280
30,13,19,Jits_Linear_5,3,5,80,127,1272040784
30,13,19,Jits_Linear_5,0,1,48,38,1272488256
30,13,19,Jits_Linear_5,1,5,80,127,1272491364
30,13,19,Jits_Linear_5,2,5,63,98,1272561148
30,13,19,Jits_Linear_5,3,5,56,103,1272580412
30,13,19,Jits_Linear_5,0,1,48,37,1273018280
30,13,19,Jits_Linear_5,1,5,80,127,1273050340
30,13,19,Jits_Linear_5,2,5,56,103,1273060688
30,13,19,Jits_Linear_5,3,5,63,98,1273071104
30,13,19,Jits_Linear_5,0,1,48,43,1273542852
30,13,19,Jits_Linear_5,1,5,80,127,1273581040
30,13,19,Jits_Linear_5,2,5,56,103,1273601428
30,13,19,Jits_Linear_5,3,5,63,98,1273671240
30,13,19,Jits_Linear_5,0,1,48,40,1274107440
30,13,19,Jits_Linear_5,1,5,56,103,1274131072
30,13,19,Jits_Linear_5,2,5,80,127,1274160680
30,13,19,Jits_Linear_5,3,5,63,98,1274181064
30,13,19,Jits_Linear_5,0,1,48,43,1274654556
30,13,19,Jits_Linear_5,1,5,63,98,1274670400
30,13,19,Jits_Linear_5,2,5,56,103,1274730796
30,13,19,Jits_Linear_5,3,5,80,127,1274760604
30,13,19,Jits_Linear_5,0,1,48,38,1275208412
30,13,19,Jits_Linear_5,1,5,63,98,1275211368
30,13,19,Jits_Linear_5,2,5,80,127,1275214432
30,13,19,Jits_Linear_5,3,5,56,103,1275301128
30,13,19,Jits_Linear_5,0,1,48,43,1275754464
30,13,19,Jits_Linear_5,1,5,56,103,1275780500
30,13,19,Jits_Linear_5,2,5,63,98,1275811300
30,13,19,Jits_Linear_5,3,5,80,127,1275851296
30,13,19,Jits_Linear_5,0,1,48,41,1276306000
30,13,19,Jits_Linear_5,1,5,63,98,1276331508
30,13,19,Jits_Linear_5,2,5,56,103,1276371376
30,13,19,Jits_Linear_5,3,5,80,127,1276390716
30,13,19,Jits_Linear_5,0,1,48,39,1276878636
30,13,19,Jits_Linear_5,1,5,63,98,1276890464
30,13,19,Jits_Linear_5,2,5,56,103,1276930332
30,13,19,Jits_Linear_5,3,5,80,127,1276940600
30,13,19,Jits_Linear_5,0,5,80,127,1277421100
30,13,19,Jits_Linear_5,1,1,48,45,1277433512
30,13,19,Jits_Linear_5,2,5,63,98,1277490408
30,13,19,Jits_Linear_5,3,5,56,103,1277511168
30,13,19,Jits_Linear_5,0,1,48,43,1277978004
30,13,19,Jits_Linear_5,1,5,56,103,1277981040
30,13,19,Jits_Linear_5,2,5,80,127,1278000452
30,13,19,Jits_Linear_5,3,5,63,98,1278040392
30,13,19,Jits_Linear_5,0,1,48,42,1278507136
30,13,19,Jits_Linear_5,1,5,63,98,1278551376
30,13,19,Jits_Linear_5,2,5,80,127,1278571012
30,13,19,Jits_Linear_5,3,5,56,103,1278610932
30,13,19,Jits_Linear_5,0,1,48,42,1279103848
30,13,19,Jits_Linear_5,1,5,63,98,1279110624
30,13,19,Jits_Linear_5,2,5,56,103,1279131008
30,13,19,Jits_Linear_5,3,5,80,127,1279141128
30,13,19,Jits_Linear_5,0,1,48,38,1279601436
30,13,19,Jits_Linear_5,1,5,80,127,1279670620
30,13,19,Jits_Linear_5,2,5,56,103,1279691004
30,13,19,Jits_Linear_5,3,5,63,98,1279720912
30,13,19,Jits_Linear_5,0,1,48,41,1280213380
30,13,19,Jits_Linear_5,1,5,56,103,1280310948
30,13,19,Jits_Linear_5,2,5,80,127,1280313932
30,13,19,Jits_Linear_5,3,5,63,98,1280331104
30,13,19,Jits_Linear_5,0,5,63,98,1280801280
30,13,19,Jits_Linear_5,1,1,48,36,1280829136
30,13,19,Jits_Linear_5,2,5,56,103,1280831024
30,13,19,Jits_Linear_5,3,5,80,127,1280891116
30,13,19,Jits_Linear_5,0,1,48,41,1281330748
30,13,19,Jits_Linear_5,1,5,63,98,1281451312
30,13,19,Jits_Linear_5,2,5,56,103,1281460464
30,13,19,Jits_Linear_5,3,5,80,127,1281471108
30,13,19,Jits_Linear_5,0,1,48,43,1281902740
30,13,19,Jits_Linear_5,1,5,56,103,1281970424
30,13,19,Jits_Linear_5,2,5,80,127,1282001208
30,13,19,Jits_Linear_5,3,5,63,98,1282010460
30,13,19,Jits_Linear_5,0,1,48,45,1282484612
30,13,19,Jits_Linear_5,1,5,63,98,1282580948
30,13,19,Jits_Linear_5,2,5,56,103,1282591056
30,13,19,Jits_Linear_5,3,5,80,127,1282610544
30,13,19,Jits_Linear_5,0,1,48,40,1283041272
30,13,19,Jits_Linear_5,1,5,56,103,1283080560
30,13,19,Jits_Linear_5,2,5,63,98,1283140940
30,13,19,Jits_Linear_5,3,5,80,127,1283144300
30,13,19,Jits_Linear_5,0,1,48,36,1283626648
30,13,19,Jits_Linear_5,1,5,80,127,1283680780
30,13,19,Jits_Linear_5,2,5,56,103,1283690976
30,13,19,Jits_Linear_5,3,5,63,98,1283760796
30,13,19,Jits_Linear_5,0,1,48,43,1284210260
30,13,19,Jits_Linear_5,1,5,80,127,1284251044
30,13,19,Jits_Linear_5,2,5,56,103,1284320860
30,13,19,Jits_Linear_5,3,5,63,98,1284330832
30,13,19,Jits_Linear_5,0,1,48,40,1284818616
30,13,19,Jits_Linear_5,1,5,63,98,1284870680
30,13,19,Jits_Linear_5,2,5,56,103,1284880728
30,13,19,Jits_Linear_5,3,5,80,127,1284901188
30,13,19,Jits_Linear_5,0,5,80,127,1285400864
30,13,19,Jits_Linear_5,1,1,48,38,1285402200
30,13,19,Jits_Linear_5,2,5,63,98,1285461400
30,13,19,Jits_Linear_5,3,5,56,103,1285501548
30,13,19,Jits_Linear_5,0,1,48,38,1286020416
30,13,19,Jits_Linear_5,1,5,56,103,1286030704
30,13,19,Jits_Linear_5,2,5,63,98,1286040900
30,13,19,Jits_Linear_5,3,5,80,127,1286080764
30,13,19,Jits_Linear_5,0,5,56,103,1286580816
30,13,19,Jits_Linear_5,1,1,48,41,1286608200
30,13,19,Jits_Linear_5,2,5,80,127,1286611308
30,13,19,Jits_Linear_5,3,5,63,98,1286660564
30,13,19,Jits_Linear_5,0,1,48,38,1287188628
30,13,19,Jits_Linear_5,1,5,56,103,1287211420
30,13,19,Jits_Linear_5,2,5,63,98,1287251284
30,13,19,Jits_Linear_5,3,5,80,127,1287254872
30,13,19,Jits_Linear_5,0,1,48,40,1287772960
30,13,19,Jits_Linear_5,1,5,56,103,1287801160
30,13,19,Jits_Linear_5,2,5,63,98,1287810680
30,13,19,Jits_Linear_5,3,5,80,127,1287830844
30,13,19,Jits_Linear_5,0,1,48,44,1288328320
30,13,19,Jits_Linear_5,1,5,56,103,1288350956
30,13,19,Jits_Linear_5,2,5,80,127,1288354028
30,13,19,Jits_Linear_5,3,5,63,98,1288390976
30,13,19,Jits_Linear_5,0,1,48,42,1288905368
30,13,19,Jits_Linear_5,1,5,63,98,1288980800
30,13,19,Jits_Linear_5,2,5,56,103,1289010612
30,13,19,Jits_Linear_5,3,5,80,127,1289031072
30,13,19,Jits_Linear_5,0,1,48,35,1289511408
30,13,19,Jits_Linear_5,1,5,80,127,1289551512
30,13,19,Jits_Linear_5,2,5,56,103,1289560440
30,13,19,Jits_Linear_5,3,5,63,98,1289570564
30,13,19,Jits_Linear_5,0,1,48,40,1290097160
30,13,19,Jits_Linear_5,1,5,56,103,1290151588
30,13,19,Jits_Linear_5,2,5,80,127,1290191892
30,13,19,Jits_Linear_5,3,5,63,98,1290220844
30,13,19,Jits_Linear_5,0,1,48,35,1290717044
30,13,19,Jits_Linear_5,1,5,63,98,1290760540
30,13,19,Jits_Linear_5,2,5,80,127,1290770736
30,13,19,Jits_Linear_5,3,5,56,103,1290780932
30,13,19,Jits_Linear_5,0,1,48,44,1291297716
30,13,19,Jits_Linear_5,1,5,56,103,1291341360
30,13,19,Jits_Linear_5,2,5,63,98,1291410732
30,13,19,Jits_Linear_5,3,5,80,127,1291420928
30,13,19,Jits_Linear_5,0,1,48,40,1291872856
30,13,19,Jits_Linear_5,1,5,80,127,1291950656
30,13,19,Jits_Linear_5,2,5,56,103,1291960632
30,13,19,Jits_Linear_5,3,5,63,98,1292010844
30,13,19,Jits_Linear_5,0,1,48,38,1292485668
30,13,19,Jits_Linear_5,1,5,80,127,1292570988
30,13,19,Jits_Linear_5,2,5,56,103,1292631592
30,13,19,Jits_Linear_5,3,5,63,98,1292661044
30,13,19,Jits_Linear_5,0,1,48,43,1293142500
30,13,19,Jits_Linear_5,1,5,56,103,1293181480
30,13,19,Jits_Linear_5,2,5,80,127,1293184472
30,13,19,Jits_Linear_5,3,5,63,98,1293221420
30,13,19,Jits_Linear_5,0,1,48,42,1293737384
30,13,19,Jits_Linear_5,1,5,56,103,1293821508
30,13,19,Jits_Linear_5,2,5,63,98,1293851096
30,13,19,Jits_Linear_5,3,5,80,127,1293861292
30,13,19,Jits_Linear_5,0,1,48,36,1294423140
30,13,19,Jits_Linear_5,1,5,63,98,1294440852
30,13,19,Jits_Linear_5,2,5,80,127,1294451196
30,13,19,Jits_Linear_5,3,5,56,103,1294461316
30,13,19,Jits_Linear_5,0,5,80,127,1295000932
30,13,19,Jits_Linear_5,1,1,48,37,1295040020
30,13,19,Jits_Linear_5,2,5,56,103,1295051276
30,13,19,Jits_Linear_5,3,5,63,98,1295054268
30,13,19,Jits_Linear_5,0,5,56,103,1295651312
30,13,19,Jits_Linear_5,1,1,48,34,1295659536
30,13,19,Jits_Linear_5,2,5,80,127,1295670496
30,13,19,Jits_Linear_5,3,5,63,98,1295680992
30,13,19,Jits_Linear_5,0,5,63,98,1296251256
30,13,19,Jits_Linear_5,1,1,48,35,1296258208
30,13,19,Jits_Linear_5,2,5,56,103,1296281152
30,13,19,Jits_Linear_5,3,5,80,127,1296301464
30,13,19,Jits_Linear_5,0,1,48,37,1296847248
30,13,19,Jits_Linear_5,1,5,56,103,1296880876
30,13,19,Jits_Linear_5,2,5,80,127,1296891220
30,13,19,Jits_Linear_5,3,5,63,98,1296960740
30,13,19,Jits_Linear_5,0,5,63,98,1297491224
30,13,19,Jits_Linear_5,1,1,48,35,1297519524
30,13,19,Jits_Linear_5,2,5,80,127,1297531236
30,13,19,Jits_Linear_5,3,5,56,103,1297571176
30,13,19,Jits_Linear_5,0,1,48,30,1298116288
30,13,19,Jits_Linear_5,1,5,56,103,1298131556
30,13,19,Jits_Linear_5,2,5,63,98,1298140484
30,13,19,Jits_Linear_5,3,5,80,127,1298161092
30,13,19,Jits_Linear_5,0,1,48,34,1298745764
30,13,19,Jits_Linear_5,1,5,63,98,1298801092
30,13,19,Jits_Linear_5,2,5,80,127,1298820432
30,13,19,Jits_Linear_5,3,5,56,103,1298841024
30,13,19,Jits_Linear_5,0,5,56,103,1299371364
30,13,19,Jits_Linear_5,1,1,48,32,1299391572
30,13,19,Jits_Linear_5,2,5,80,127,1299451180
30,13,19,Jits_Linear_5,3,5,63,98,1299460332
30,13,19,Jits_Linear_5,0,1,48,35,1299985608
30,13,19,Jits_Linear_5,1,5,80,127,1300041012
30,13,19,Jits_Linear_5,2,5,63,98,1300051504
30,13,19,Jits_Linear_5,3,5,56,103,1300081104
30,13,19,Jits_Linear_5,0,5,63,98,1300630984
30,13,19,Jits_Linear_5,1,1,48,30,1300660928
30,13,19,Jits_Linear_5,2,5,80,127,1300670696
30,13,19,Jits_Linear_5,3,5,56,103,1300731184
30,13,19,Jits_Linear_5,0,1,48,38,1301249496
30,13,19,Jits_Linear_5,1,5,63,98,1301270944
30,13,19,Jits_Linear_5,2,5,56,103,1301321148
30,13,19,Jits_Linear_5,3,5,80,127,1301350660
30,13,19,Jits_Linear_5,0,1,48,33,1301869948
30,13,19,Jits_Linear_5,1,5,80,127,1301920996
30,13,19,Jits_Linear_5,2,5,63,98,1301931340
30,13,19,Jits_Linear_5,3,5,56,103,1302001032
30,13,19,Jits_Linear_5,0,1,48,37,1302538988
30,13,19,Jits_Linear_5,1,5,80,127,1302630868
30,13,19,Jits_Linear_5,2,5,56,103,1302641120
30,13,19,Jits_Linear_5,3,5,63,98,1302644040
30,13,19,Jits_Linear_5,0,1,48,34,1303189036
30,13,19,Jits_Linear_5,1,5,56,103,1303211312
30,13,19,Jits_Linear_5,2,5,80,127,1303230948
30,13,19,Jits_Linear_5,3,5,63,98,1303241068
30,13,19,Jits_Linear_5,0,1,48,35,1303827936
30,13,19,Jits_Linear_5,1,5,63,98,1303860568
30,13,19,Jits_Linear_5,2,5,56,103,1303900732
30,13,19,Jits_Linear_5,3,5,80,127,1303921852
30,13,19,Jits_Linear_5,0,1,48,35,1304447056
30,13,19,Jits_Linear_5,1,5,63,98,1304510928
30,13,19,Jits_Linear_5,2,5,56,103,1304571100
30,13,19,Jits_Linear_5,3,5,80,127,1304574396
30,13,19,Jits_Linear_5,0,5,56,103,1305121224
30,13,19,Jits_Linear_5,1,5,80,127,1305140564
30,13,19,Jits_Linear_5,2,1,48,34,1305155436
30,13,19,Jits_Linear_5,3,5,63,98,1305180496
30,13,19,Jits_Linear_5,0,1,48,32,1305784064
30,13,19,Jits_Linear_5,1,5,56,103,1305801028
30,13,19,Jits_Linear_5,2,5,63,98,1305820396
30,13,19,Jits_Linear_5,3,5,80,127,1305830812
30,13,19,Jits_Linear_5,0,1,48,34,1306419416
30,13,19,Jits_Linear_5,1,5,80,127,1306421208
30,13,19,Jits_Linear_5,2,5,56,103,1306451264
30,13,19,Jits_Linear_5,3,5,63,98,1306491276
30,13,19,Jits_Linear_5,0,1,48,31,1307041044
30,13,19,Jits_Linear_5,1,5,80,127,1307080928
30,13,19,Jits_Linear_5,2,5,56,103,1307100812
30,13,19,Jits_Linear_5,3,5,63,98,1307160892
30,13,19,Jits_Linear_5,0,1,48,33,1307719072
30,13,19,Jits_Linear_5,1,5,56,103,1307740820
30,13,19,Jits_Linear_5,2,5,80,127,1307761132
30,13,19,Jits_Linear_5,3,5,63,98,1307821512
30,13,19,Jits_Linear_5,0,5,80,127,1308380868
30,13,19,Jits_Linear_5,1,5,56,103,1308390912
30,13,19,Jits_Linear_5,2,1,48,28,1308417552
30,13,19,Jits_Linear_5,3,5,63,98,1308430920
30,13,19,Jits_Linear_5,0,1,48,33,1309000856
30,13,19,Jits_Linear_5,1,5,63,98,1309040892
30,13,19,Jits_Linear_5,2,5,56,103,1309080904
30,13,19,Jits_Linear_5,3,5,80,127,1309084044
30,13,19,Jits_Linear_5,0,1,48,31,1309644000
30,13,19,Jits_Linear_5,1,5,63,98,1309720852
30,13,19,Jits_Linear_5,2,5,80,127,1309760780
30,13,19,Jits_Linear_5,3,5,56,103,1309790676
30,13,19,Jits_Linear_5,0,1,48,32,1310338520
30,13,19,Jits_Linear_5,1,5,56,103,1310371056
30,13,19,Jits_Linear_5,2,5,63,98,1310381772
30,13,19,Jits_Linear_5,3,5,80,127,1310411076
30,13,19,Jits_Linear_5,0,1,48,26,1311025224
30,13,19,Jits_Linear_5,1,5,80,127,1311030648
30,13,19,Jits_Linear_5,2,5,63,98,1311101380
30,13,19,Jits_Linear_5,3,5,56,103,1311110604
30,13,19,Jits_Linear_5,0,5,63,98,1311701632
30,13,19,Jits_Linear_5,1,1,48,32,1311710308
30,13,19,Jits_Linear_5,2,5,56,103,1311771012
30,13,19,Jits_Linear_5,3,5,80,127,1311781360
30,13,19,Jits_Linear_5,0,1,48,36,1312322428
30,13,19,Jits_Linear_5,1,5,63,98,1312370936
30,13,19,Jits_Linear_5,2,5,56,103,1312390576
30,13,19,Jits_Linear_5,3,5,80,127,1312430572
30,13,19,Jits_Linear_5,0,1,48,33,1312974052
30,13,19,Jits_Linear_5,1,5,56,103,1313051052
30,13,19,Jits_Linear_5,2,5,63,98,1313061472
30,13,19,Jits_Linear_5,3,5,80,127,1313140956
30,13,19,Jits_Linear_5,0,1,48,35,1313652596
30,13,19,Jits_Linear_5,1,5,63,98,1313710620
30,13,19,Jits_Linear_5,2,5,56,103,1313741268
30,13,19,Jits_Linear_5,3,5,80,127,1313781072
30,13,19,Jits_Linear_5,0,1,48,30,1314328364
30,13,19,Jits_Linear_5,1,5,56,103,1314381448
30,13,19,Jits_Linear_5,2,5,63,98,1314421092
30,13,19,Jits_Linear_5,3,5,80,127,1314461012
30,13,19,Jits_Linear_5,0,1,48,34,1314958724
30,13,19,Jits_Linear_5,1,5,80,127,1315061104
30,13,19,Jits_Linear_5,2,5,56,103,1315140904
30,13,19,Jits_Linear_5,3,5,63,98,1315151472
30,13,19,Jits_Linear_5,0,1,48,32,1315704848
30,13,19,Jits_Linear_5,1,5,56,103,1315780924
30,13,19,Jits_Linear_5,2,5,63,98,1315783988
30,13,19,Jits_Linear_5,3,5,80,127,1315791568
30,13,19,Jits_Linear_5,0,1,48,31,1316393424
30,13,19,Jits_Linear_5,1,5,56,103,1316481340
30,13,19,Jits_Linear_5,2,5,63,98,1316500736
30,13,19,Jits_Linear_5,3,5,80,127,1316511232
30,13,19,Jits_Linear_5,0,1,48,29,1317115568
30,13,19,Jits_Linear_5,1,5,63,98,1317121448
30,13,19,Jits_Linear_5,2,5,80,127,1317130672
30,13,19,Jits_Linear_5,3,5,56,103,1317151056
30,13,19,Jits_Linear_5,0,1,48,34,1317772668
30,13,19,Jits_Linear_5,1,5,63,98,1317810532
30,13,19,Jits_Linear_5,2,5,56,103,1317890488
30,13,19,Jits_Linear_5,3,5,80,127,1317893556
30,13,19,Jits_Linear_5,0,1,48,32,1318465888
30,13,19,Jits_Linear_5,1,5,63,98,1318500688
30,13,19,Jits_Linear_5,2,5,56,103,1318521300
30,13,19,Jits_Linear_5,3,5,80,127,1318550828
30,13,19,Jits_Linear_5,0,1,48,28,1319126676
30,13,19,Jits_Linear_5,1,5,56,103,1319190848
30,13,19,Jits_Linear_5,2,5,63,98,1319211460
30,13,19,Jits_Linear_5,3,5,80,127,1319220608
30,13,19,Jits_Linear_5,0,1,48,29,1319816660
30,13,19,Jits_Linear_5,1,5,56,103,1319910752
30,13,19,Jits_Linear_5,2,5,63,98,1319940332
30,13,19,Jits_Linear_5,3,5,80,127,1319943776
30,13,19,Jits_Linear_5,0,1,48,33,1320523976
30,13,19,Jits_Linear_5,1,5,56,103,1320550680
30,13,19,Jits_Linear_5,2,5,63,98,1320590696
30,13,19,Jits_Linear_5,3,5,80,127,1320651220
30,13,19,Jits_Linear_5,0,1,48,29,1321238652
30,13,19,Jits_Linear_5,1,5,56,103,1321261372
30,13,19,Jits_Linear_5,2,5,63,98,1321270668
30,13,19,Jits_Linear_5,3,5,80,127,1321331192
30,13,19,Jits_Linear_5,0,1,48,27,1321909748
30,13,19,Jits_Linear_5,1,5,56,103,1321960744
30,13,19,Jits_Linear_5,2,5,80,127,1321981204
30,13,19,Jits_Linear_5,3,5,63,98,1322011088
30,13,19,Jits_Linear_5,0,1,48,29,1322609120
30,13,19,Jits_Linear_5,1,5,80,127,1322661216
30,13,19,Jits_Linear_5,2,5,56,103,1322670440
30,13,19,Jits_Linear_5,3,5,63,98,1322691120
30,13,19,Jits_Linear_5,0,1,48,27,1323329020
30,13,19,Jits_Linear_5,1,5,63,98,1323351368
30,13,19,Jits_Linear_5,2,5,80,127,1323431228
30,13,19,Jits_Linear_5,3,5,56,103,1323440376
30,13,19,Jits_Linear_5,0,1,48,33,1324014080
30,13,19,Jits_Linear_5,1,5,80,127,1324111344
30,13,19,Jits_Linear_5,2,5,56,103,1324130756
30,13,19,Jits_Linear_5,3,5,63,98,1324133748
30,13,19,Jits_Linear_5,0,1,48,33,1324760956
30,13,19,Jits_Linear_5,1,5,63,98,1324791172
30,13,19,Jits_Linear_5,2,5,80,127,1324794388
30,13,19,Jits_Linear_5,3,5,56,103,1324850444
30,13,19,Jits_Linear_5,0,1,48,30,1325427996
30,13,19,Jits_Linear_5,1,5,56,103,1325481228
30,13,19,Jits_Linear_5,2,5,80,127,1325490600
30,13,19,Jits_Linear_5,3,5,63,98,1325530552
30,13,19,Jits_Linear_5,0,1,48,33,1326141164
30,13,19,Jits_Linear_5,1,5,56,103,1326170416
30,13,19,Jits_Linear_5,2,5,63,98,1326231180
30,13,19,Jits_Linear_5,3,5,80,127,1326241140
30,13,19,Jits_Linear_5,0,1,48,29,1326836336
30,13,19,Jits_Linear_5,1,5,63,98,1326891364
30,13,19,Jits_Linear_5,2,5,80,127,1326932188
30,13,19,Jits_Linear_5,3,5,56,103,1326971304
30,13,19,Jits_Linear_5,0,1,48,34,1327533596
30,13,19,Jits_Linear_5,1,5,56,103,1327601156
30,13,19,Jits_Linear_5,2,5,63,98,1327681012
30,13,19,Jits_Linear_5,3,5,80,127,1327684300
30,13,19,Jits_Linear_5,0,1,48,33,1328231092
30,13,19,Jits_Linear_5,1,5,80,127,1328371016
30,13,19,Jits_Linear_5,2,5,56,103,1328400912
30,13,19,Jits_Linear_5,3,5,63,98,1328403828
30,13,19,Jits_Linear_5,0,1,48,27,1328973464
30,13,19,Jits_Linear_5,1,5,56,103,1329050968
30,13,19,Jits_Linear_5,2,5,80,127,1329070440
30,13,19,Jits_Linear_5,3,5,63,98,1329111528
30,13,19,Jits_Linear_5,0,1,48,33,1329705132
30,13,19,Jits_Linear_5,1,5,80,127,1329751388
30,13,19,Jits_Linear_5,2,5,63,98,1329770804
30,13,19,Jits_Linear_5,3,5,56,103,1329831180
30,13,19,Jits_Linear_5,0,1,48,30,1330417836
30,13,19,Jits_Linear_5,1,5,63,98,1330480360
30,13,19,Jits_Linear_5,2,5,56,103,1330490856
30,13,19,Jits_Linear_5,3,5,80,127,1330540892
30,13,19,Jits_Linear_5,0,1,48,29,1331118160
30,13,19,Jits_Linear_5,1,5,56,103,1331191120
30,13,19,Jits_Linear_5,2,5,63,98,1331211344
30,13,19,Jits_Linear_5,3,5,80,127,1331220864
30,13,19,Jits_Linear_5,0,1,48,32,1331865260
30,13,19,Jits_Linear_5,1,5,56,103,1331911072
30,13,19,Jits_Linear_5,2,5,63,98,1331914136
30,13,19,Jits_Linear_5,3,5,80,127,1331930508
30,13,19,Jits_Linear_5,0,1,48,28,1332582612
30,13,19,Jits_Linear_5,1,5,63,98,1332681072
30,13,19,Jits_Linear_5,2,5,56,103,1332710700
30,13,19,Jits_Linear_5,3,5,80,127,1332740672
30,13,19,Jits_Linear_5,0,1,48,28,1333342300
30,13,19,Jits_Linear_5,1,5,80,127,1333371468
30,13,19,Jits_Linear_5,2,5,56,103,1333461468
30,13,19,Jits_Linear_5,3,5,63,98,1333464532
30,13,19,Jits_Linear_5,0,1,48,28,1334089028
30,13,19,Jits_Linear_5,1,5,56,103,1334101404
30,13,19,Jits_Linear_5,2,5,80,127,1334104396
30,13,19,Jits_Linear_5,3,5,63,98,1334181204
30,13,19,Jits_Linear_5,0,1,48,30,1334799244
30,13,19,Jits_Linear_5,1,5,80,127,1334830588
30,13,19,Jits_Linear_5,2,5,63,98,1334890832
30,13,19,Jits_Linear_5,3,5,56,103,1334920644
30,13,19,Jits_Linear_5,0,1,48,36,1335530912
30,13,19,Jits_Linear_5,1,5,63,98,1335560604
30,13,19,Jits_Linear_5,2,5,80,127,1335570800
30,13,19,Jits_Linear_5,3,5,56,103,1335640616
30,13,19,Jits_Linear_5,0,1,48,34,1336236240
30,13,19,Jits_Linear_5,1,5,56,103,1336321484
30,13,19,Jits_Linear_5,2,5,80,127,1336351072
30,13,19,Jits_Linear_5,3,5,63,98,1336401200
30,13,19,Jits_Linear_5,0,1,48,30,1336996524
30,13,19,Jits_Linear_5,1,5,63,98,1337100568
30,13,19,Jits_Linear_5,2,5,56,103,1337131588
30,13,19,Jits_Linear_5,3,5,80,127,1337134652
30,13,19,Jits_Linear_5,0,1,48,35,1337733056
30,13,19,Jits_Linear_5,1,5,63,98,1337841064
30,13,19,Jits_Linear_5,2,5,80,127,1337860624
30,13,19,Jits_Linear_5,3,5,56,103,1337870672
30,13,19,Jits_Linear_5,0,1,48,33,1338512756
30,13,19,Jits_Linear_5,1,5,56,103,1338590576
30,13,19,Jits_Linear_5,2,5,63,98,1338593496
30,13,19,Jits_Linear_5,3,5,80,127,1338611024
30,13,19,Jits_Linear_5,0,1,48,33,1339271616
30,13,19,Jits_Linear_5,1,5,56,103,1339290968
30,13,19,Jits_Linear_5,2,5,63,98,1339301316
30,13,19,Jits_Linear_5,3,5,80,127,1339330992
30,13,19,Jits_Linear_5,0,1,48,30,1339985804
30,13,19,Jits_Linear_5,1,5,63,98,1340061068
30,13,19,Jits_Linear_5,2,5,80,127,1340080912
30,13,19,Jits_Linear_5,3,5,56,103,1340120356
30,13,19,Jits_Linear_5,0,1,48,29,1340741164
30,13,19,Jits_Linear_5,1,5,56,103,1340841572
30,13,19,Jits_Linear_5,2,5,63,98,1340881460
30,13,19,Jits_Linear_5,3,5,80,127,1340884824
30,13,19,Jits_Linear_5,0,1,48,33,1341504592
30,13,19,Jits_Linear_5,1,5,80,127,1341530472
30,13,19,Jits_Linear_5,2,5,56,103,1341570412
30,13,19,Jits_Linear_5,3,5,63,98,1341620524
30,13,19,Jits_Linear_5,0,1,48,34,1342249600
30,13,19,Jits_Linear_5,1,5,56,103,1342340432
30,13,19,Jits_Linear_5,2,5,80,127,1342350692
30,13,19,Jits_Linear_5,3,5,63,98,1342381412
30,13,19,Jits_Linear_5,0,5,56,103,1343040792
30,13,19,Jits_Linear_5,1,1,48,29,1343055516
30,13,19,Jits_Linear_5,2,5,80,127,1343080800
30,13,19,Jits_Linear_5,3,5,63,98,1343131076
30,13,19,Jits_Linear_5,0,1,48,32,1343789376
30,13,19,Jits_Linear_5,1,5,56,103,1343800784
30,13,19,Jits_Linear_5,2,5,80,127,1343840648
30,13,19,Jits_Linear_5,3,5,63,98,1343890688
30,13,19,Jits_Linear_5,0,5,80,127,1344551260
30,13,19,Jits_Linear_5,1,1,48,26,1344562096
30,13,19,Jits_Linear_5,2,5,63,98,1344631276
30,13,19,Jits_Linear_5,3,5,56,103,1344641248
30,13,19,Jits_Linear_5,0,5,80,127,1345361308
30,13,19,Jits_Linear_5,1,5,56,103,1345370384
30,13,19,Jits_Linear_5,2,1,48,32,1345373948
30,13,19,Jits_Linear_5,3,5,63,98,1345391136
30,13,19,Jits_Linear_5,0,1,48,28,1346089212
30,13,19,Jits_Linear_5,1,5,63,98,1346091328
30,13,19,Jits_Linear_5,2,5,56,103,1346161160
30,13,19,Jits_Linear_5,3,5,80,127,1346164300
30,13,19,Jits_Linear_5,0,5,80,127,1346851308
30,13,19,Jits_Linear_5,1,1,48,31,1346864320
30,13,19,Jits_Linear_5,2,5,63,98,1346901360
30,13,19,Jits_Linear_5,3,5,56,103,1346941296
30,13,19,Jits_Linear_5,0,1,48,31,1347634496
30,13,19,Jits_Linear_5,1,5,63,98,1347661124
30,13,19,Jits_Linear_5,2,5,56,103,1347701212
30,13,19,Jits_Linear_5,3,5,80,127,1347711336
30,13,19,Jits_Linear_5,0,5,63,98,1348421040
30,13,19,Jits_Linear_5,1,1,48,28,1348431056
30,13,19,Jits_Linear_5,2,5,56,103,1348440444
30,13,19,Jits_Linear_5,3,5,80,127,1348460904
30,13,19,Jits_Linear_5,0,5,80,127,1349151048
30,13,19,Jits_Linear_5,1,5,56,103,1349161320
30,13,19,Jits_Linear_5,2,1,48,30,1349166460
30,13,19,Jits_Linear_5,3,5,63,98,1349180948
30,13,19,Jits_Linear_5,0,1,48,29,1349867912
30,13,19,Jits_Linear_5,1,5,63,98,1349951112
30,13,19,Jits_Linear_5,2,5,56,103,1349990964
30,13,19,Jits_Linear_5,3,5,80,127,1350020344
30,13,19,Jits_Linear_5,0,1,48,28,1350643408
30,13,19,Jits_Linear_5,1,5,56,103,1350731104
30,13,19,Jits_Linear_5,2,5,63,98,1350760912
30,13,19,Jits_Linear_5,3,5,80,127,1350790364
30,13,19,Jits_Linear_5,0,1,48,27,1351423924
30,13,19,Jits_Linear_5,1,5,80,127,1351480972
30,13,19,Jits_Linear_5,2,5,56,103,1351551392
30,13,19,Jits_Linear_5,3,5,63,98,1351554308
30,13,19,Jits_Linear_5,0,5,56,103,1352271304
30,13,19,Jits_Linear_5,1,1,48,32,1352276440
30,13,19,Jits_Linear_5,2,5,63,98,1352321280
30,13,19,Jits_Linear_5,3,5,80,127,1352351028
30,13,19,Jits_Linear_5,0,1,48,34,1353031228
30,13,19,Jits_Linear_5,1,5,63,98,1353032888
30,13,19,Jits_Linear_5,2,5,80,127,1353035932
30,13,19,Jits_Linear_5,3,5,56,103,1353090416
30,13,19,Jits_Linear_5,0,1,48,32,1353777596
30,13,19,Jits_Linear_5,1,5,56,103,1353840944
30,13,19,Jits_Linear_5,2,5,80,127,1353851140
30,13,19,Jits_Linear_5,3,5,63,98,1353901404
30,13,19,Jits_Linear_5,0,1,48,30,1354586660
30,13,19,Jits_Linear_5,1,5,63,98,1354600932
30,13,19,Jits_Linear_5,2,5,56,103,1354611052
30,13,19,Jits_Linear_5,3,5,80,127,1354640876
30,13,19,Jits_Linear_5,0,1,48,31,1355379468
30,13,19,Jits_Linear_5,1,5,63,98,1355421000
30,13,19,Jits_Linear_5,2,5,80,127,1355424732
30,13,19,Jits_Linear_5,3,5,56,103,1355450676
30,13,19,Jits_Linear_5,0,1,48,33,1356181848
30,13,19,Jits_Linear_5,1,5,63,98,1356230952
30,13,19,Jits_Linear_5,2,5,56,103,1356250684
30,13,19,Jits_Linear_5,3,5,80,127,1356253748
30,13,19,Jits_Linear_5,0,5,63,98,1356980668
30,13,19,Jits_Linear_5,1,1,48,25,1357023524
30,13,19,Jits_Linear_5,2,5,56,103,1357051196
30,13,19,Jits_Linear_5,3,5,80,127,1357070684
30,13,19,Jits_Linear_5,0,5,56,103,1357760812
30,13,19,Jits_Linear_5,1,5,63,98,1357771080
30,13,19,Jits_Linear_5,2,1,48,27,1357779328
30,13,19,Jits_Linear_5,3,5,80,127,1357861160
30,13,19,Jits_Linear_5,0,1,48,30,1358517016
30,13,19,Jits_Linear_5,1,5,56,103,1358570800
30,13,19,Jits_Linear_5,2,5,80,127,1358611552
30,13,19,Jits_Linear_5,3,5,63,98,1358621148
30,13,19,Jits_Linear_5,0,1,48,29,1359303984
30,13,19,Jits_Linear_5,1,5,56,103,1359391024
30,13,19,Jits_Linear_5,2,5,63,98,1359420836
30,13,19,Jits_Linear_5,3,5,80,127,1359450516
30,13,19,Jits_Linear_5,0,1,48,27,1360134428
30,13,19,Jits_Linear_5,1,5,80,127,1360150940
30,13,19,Jits_Linear_5,2,5,63,98,1360190808
30,13,19,Jits_Linear_5,3,5,56,103,1360211416
30,13,19,Jits_Linear_5,0,1,48,20,1360897248
30,13,19,Jits_Linear_5,1,5,56,103,1360990636
30,13,19,Jits_Linear_5,2,5,80,127,1361011012
30,13,19,Jits_Linear_5,3,5,63,98,1361030572
30,13,19,Jits_Linear_5,0,1,48,27,1361711336
30,13,19,Jits_Linear_5,1,5,63,98,1361760736
30,13,19,Jits_Linear_5,2,5,56,103,1361770856
30,13,19,Jits_Linear_5,3,5,80,127,1361831380
30,13,19,Jits_Linear_5,0,1,48,36,1362474012
30,13,19,Jits_Linear_5,1,5,56,103,1362570680
30,13,19,Jits_Linear_5,2,5,63,98,1362641508
30,13,19,Jits_Linear_5,3,5,80,127,1362660700
30,13,19,Jits_Linear_5,0,1,48,28,1363295432
30,13,19,Jits_Linear_5,1,5,56,103,1363380580
30,13,19,Jits_Linear_5,2,5,63,98,1363411464
30,13,19,Jits_Linear_5,3,5,80,127,1363451400
30,13,19,Jits_Linear_5,0,1,48,26,1364123972
30,13,19,Jits_Linear_5,1,5,63,98,1364181492
30,13,19,Jits_Linear_5,2,5,56,103,1364230484
30,13,19,Jits_Linear_5,3,5,80,127,1364240680
30,13,19,Jits_Linear_5,0,1,48,31,1364941572
30,13,19,Jits_Linear_5,1,5,56,103,1365031212
30,13,19,Jits_Linear_5,2,5,63,98,1365080576
30,13,19,Jits_Linear_5,3,5,80,127,1365090624
30,13,19,Jits_Linear_5,0,1,48,29,1365777296
30,13,19,Jits_Linear_5,1,5,56,103,1365810452
30,13,19,Jits_Linear_5,2,5,63,98,1365820724
30,13,19,Jits_Linear_5,3,5,80,127,1365900652
30,13,19,Jits_Linear_5,0,9999,9999,9999,1257058412
30,13,19,Jits_Linear_5,1,9999,9999,9999,1257538644
30,13,19,Jits_Linear_5,2,9999,9999,9999,1258018928
30,13,19,Jits_Linear_5,3,9999,9999,9999,1258498176
30,13,19,Jits_Linear_5,4,9999,9999,9999,1258978388
30,13,19,Jits_Linear_5,5,9999,9999,9999,1259468912
30,13,19,Jits_Linear_5,6,9999,9999,9999,1259958328
30,13,19,Jits_Linear_5,7,9999,9999,9999,1260448888
30,13,19,Jits_Linear_5,8,9999,9999,9999,1260938324
30,13,19,Jits_Linear_5,9,9999,9999,9999,1261428812
30,13,19,Jits_Linear_5,10,9999,9999,9999,1261928512
30,13,19,Jits_Linear_5,11,9999,9999,9999,1262428216
30,13,19,Jits_Linear_5,12,9999,9999,9999,1262929020
30,13,19,Jits_Linear_5,13,9999,9999,9999,1263428704
30,13,19,Jits_Linear_5,14,9999,9999,9999,1263928396
30,13,19,Jits_Linear_5,15,9999,9999,9999,1264438348
30,13,19,Jits_Linear_5,16,9999,9999,9999,1264948300
30,13,19,Jits_Linear_5,17,9999,9999,9999,1265458252
30,13,19,Jits_Linear_5,18,9999,9999,9999,1265968200
30,13,19,Jits_Linear_5,19,9999,9999,9999,1266478156
30,13,19,Jits_Linear_5,20,9999,9999,9999,1266998372
30,13,19,Jits_Linear_5,21,9999,9999,9999,1267518588
30,13,19,Jits_Linear_5,22,9999,9999,9999,1268038728
30,13,19,Jits_Linear_5,23,9999,9999,9999,1268558948
30,13,19,Jits_Linear_5,24,9999,9999,9999,1269078116
30,13,19,Jits_Linear_5,25,9999,9999,9999,1269608516
30,13,19,Jits_Linear_5,26,9999,9999,9999,1270138996
30,13,19,Jits_Linear_5,27,9999,9999,9999,1270668344
30,13,19,Jits_Linear_5,28,9999,9999,9999,1271198840
30,13,19,Jits_Linear_5,29,9999,9999,9999,1271728196
30,13,19,Jits_Linear_5,30,9999,9999,9999,1272268864
30,13,19,Jits_Linear_5,31,9999,9999,9999,1272808504
30,13,19,Jits_Linear_5,32,9999,9999,9999,1273348192
30,13,19,Jits_Linear_5,33,9999,9999,9999,1273888860
30,13,19,Jits_Linear_5,34,9999,9999,9999,1274428484
30,13,19,Jits_Linear_5,35,9999,9999,9999,1274978372
30,13,19,Jits_Linear_5,36,9999,9999,9999,1275528248
30,13,19,Jits_Linear_5,37,9999,9999,9999,1276078136
30,13,19,Jits_Linear_5,38,9999,9999,9999,1276629068
30,13,19,Jits_Linear_5,39,9999,9999,9999,1277178956
30,13,19,Jits_Linear_5,40,9999,9999,9999,1277739112
30,13,19,Jits_Linear_5,41,9999,9999,9999,1278308412
30,13,19,Jits_Linear_5,42,9999,9999,9999,1278868556
30,13,19,Jits_Linear_5,43,9999,9999,9999,1279428704
30,13,19,Jits_Linear_5,44,9999,9999,9999,1279988800
30,13,19,Jits_Linear_5,45,9999,9999,9999,1280558168
30,13,19,Jits_Linear_5,46,9999,9999,9999,1281128572
30,13,19,Jits_Linear_5,47,9999,9999,9999,1281698916
30,13,19,Jits_Linear_5,48,9999,9999,9999,1282268232
30,13,19,Jits_Linear_5,49,9999,9999,9999,1282838648
30,13,19,Jits_Linear_5,50,9999,9999,9999,1283418188
30,13,19,Jits_Linear_5,51,9999,9999,9999,1283998792
30,13,19,Jits_Linear_5,52,9999,9999,9999,1284578420
30,13,19,Jits_Linear_5,53,9999,9999,9999,1285159020
30,13,19,Jits_Linear_5,54,9999,9999,9999,1285738576
30,13,19,Jits_Linear_5,55,9999,9999,9999,1286328408
30,13,19,Jits_Linear_5,56,9999,9999,9999,1286918248
30,13,19,Jits_Linear_5,57,9999,9999,9999,1287509048
30,13,19,Jits_Linear_5,58,9999,9999,9999,1288098936
30,13,19,Jits_Linear_5,59,9999,9999,9999,1288688764
30,13,19,Jits_Linear_5,60,9999,9999,9999,1289288772
30,13,19,Jits_Linear_5,61,9999,9999,9999,1289888848
30,13,19,Jits_Linear_5,62,9999,9999,9999,1290488956
30,13,19,Jits_Linear_5,63,9999,9999,9999,1291088960
30,13,19,Jits_Linear_5,64,9999,9999,9999,1291689040
30,13,19,Jits_Linear_5,65,9999,9999,9999,1292298356
30,13,19,Jits_Linear_5,66,9999,9999,9999,1292908628
30,13,19,Jits_Linear_5,67,9999,9999,9999,1293518964
30,13,19,Jits_Linear_5,68,9999,9999,9999,1294128208
30,13,19,Jits_Linear_5,69,9999,9999,9999,1294738556
30,13,19,Jits_Linear_5,70,9999,9999,9999,1295359104
30,13,19,Jits_Linear_5,71,9999,9999,9999,1295978604
30,13,19,Jits_Linear_5,72,9999,9999,9999,1296598128
30,13,19,Jits_Linear_5,73,9999,9999,9999,1297218660
30,13,19,Jits_Linear_5,74,9999,9999,9999,1297838148
30,13,19,Jits_Linear_5,75,9999,9999,9999,1298468968
30,13,19,Jits_Linear_5,76,9999,9999,9999,1299098724
30,13,19,Jits_Linear_5,77,9999,9999,9999,1299728500
30,13,19,Jits_Linear_5,78,9999,9999,9999,1300358268
30,13,19,Jits_Linear_5,79,9999,9999,9999,1300989016
30,13,19,Jits_Linear_5,80,9999,9999,9999,1301629032
30,13,19,Jits_Linear_5,81,9999,9999,9999,1302268996
30,13,19,Jits_Linear_5,82,9999,9999,9999,1302909008
30,13,19,Jits_Linear_5,83,9999,9999,9999,1303549044
30,13,19,Jits_Linear_5,84,9999,9999,9999,1304188992
30,13,19,Jits_Linear_5,85,9999,9999,9999,1304838244
30,13,19,Jits_Linear_5,86,9999,9999,9999,1305488448
30,13,19,Jits_Linear_5,87,9999,9999,9999,1306138688
30,13,19,Jits_Linear_5,88,9999,9999,9999,1306788964
30,13,19,Jits_Linear_5,89,9999,9999,9999,1307438144
30,13,19,Jits_Linear_5,90,9999,9999,9999,1308098612
30,13,19,Jits_Linear_5,91,9999,9999,9999,1308758128
30,13,19,Jits_Linear_5,92,9999,9999,9999,1309418620
30,13,19,Jits_Linear_5,93,9999,9999,9999,1310079088
30,13,19,Jits_Linear_5,94,9999,9999,9999,1310738532
30,13,19,Jits_Linear_5,95,9999,9999,9999,1311408220
30,13,19,Jits_Linear_5,96,9999,9999,9999,1312078972
30,13,19,Jits_Linear_5,97,9999,9999,9999,1312748604
30,13,19,Jits_Linear_5,98,9999,9999,9999,1313418356
30,13,19,Jits_Linear_5,99,9999,9999,9999,1314089036
30,13,19,Jits_Linear_5,100,9999,9999,9999,1314768980
30,13,19,Jits_Linear_5,101,9999,9999,9999,1315448952
30,13,19,Jits_Linear_5,102,9999,9999,9999,1316128836
30,13,19,Jits_Linear_5,103,9999,9999,9999,1316808784
30,13,19,Jits_Linear_5,104,9999,9999,9999,1317488748
30,13,19,Jits_Linear_5,105,9999,9999,9999,1318178904
30,13,19,Jits_Linear_5,106,9999,9999,9999,1318869064
30,13,19,Jits_Linear_5,107,9999,9999,9999,1319558224
30,13,19,Jits_Linear_5,108,9999,9999,9999,1320248376
30,13,19,Jits_Linear_5,109,9999,9999,9999,1320938612
30,13,19,Jits_Linear_5,110,9999,9999,9999,1321639012
30,13,19,Jits_Linear_5,111,9999,9999,9999,1322338384
30,13,19,Jits_Linear_5,112,9999,9999,9999,1323038804
30,13,19,Jits_Linear_5,113,9999,9999,9999,1323738180
30,13,19,Jits_Linear_5,114,9999,9999,9999,1324438648
30,13,19,Jits_Linear_5,115,9999,9999,9999,1325148280
30,13,19,Jits_Linear_5,116,9999,9999,9999,1325858892
30,13,19,Jits_Linear_5,117,9999,9999,9999,1326568536
30,13,19,Jits_Linear_5,118,9999,9999,9999,1327278148
30,13,19,Jits_Linear_5,119,9999,9999,9999,1327988828
30,13,19,Jits_Linear_5,120,9999,9999,9999,1328708732
30,13,19,Jits_Linear_5,121,9999,9999,9999,1329428560
30,13,19,Jits_Linear_5,122,9999,9999,9999,1330148460
30,13,19,Jits_Linear_5,123,9999,9999,9999,1330868336
30,13,19,Jits_Linear_5,124,9999,9999,9999,1331588164
30,13,19,Jits_Linear_5,125,9999,9999,9999,1332318320
30,13,19,Jits_Linear_5,126,9999,9999,9999,1333048416
30,13,19,Jits_Linear_5,127,9999,9999,9999,1333778500
30,13,19,Jits_Linear_5,128,9999,9999,9999,1334508656
30,13,19,Jits_Linear_5,129,9999,9999,9999,1335238724
30,13,19,Jits_Linear_5,130,9999,9999,9999,1335979072
30,13,19,Jits_Linear_5,131,9999,9999,9999,1336728648
30,13,19,Jits_Linear_5,132,9999,9999,9999,1337468996
30,13,19,Jits_Linear_5,133,9999,9999,9999,1338208380
30,13,19,Jits_Linear_5,134,9999,9999,9999,1338948728
30,13,19,Jits_Linear_5,135,9999,9999,9999,1339698300
30,13,19,Jits_Linear_5,136,9999,9999,9999,1340448848
30,13,19,Jits_Linear_5,137,9999,9999,9999,1341198420
30,13,19,Jits_Linear_5,138,9999,9999,9999,1341949040
30,13,19,Jits_Linear_5,139,9999,9999,9999,1342698620
30,13,19,Jits_Linear_5,140,9999,9999,9999,1343458380
30,13,19,Jits_Linear_5,141,9999,9999,9999,1344218232
30,13,19,Jits_Linear_5,142,9999,9999,9999,1344979040
30,13,19,Jits_Linear_5,143,9999,9999,9999,1345738868
30,13,19,Jits_Linear_5,144,9999,9999,9999,1346498628
30,13,19,Jits_Linear_5,145,9999,9999,9999,1347268728
30,13,19,Jits_Linear_5,146,9999,9999,9999,1348038764
30,13,19,Jits_Linear_5,147,9999,9999,9999,1348808788
30,13,19,Jits_Linear_5,148,9999,9999,9999,1349578872
30,13,19,Jits_Linear_5,149,9999,9999,9999,1350348908
30,13,19,Jits_Linear_5,150,9999,9999,9999,1351128172
30,13,19,Jits_Linear_5,151,9999,9999,9999,1351908452
30,13,19,Jits_Linear_5,152,9999,9999,9999,1352688744
30,13,19,Jits_Linear_5,153,9999,9999,9999,1353469036
30,13,19,Jits_Linear_5,154,9999,9999,9999,1354248276
30,13,19,Jits_Linear_5,155,9999,9999,9999,1355038828
30,13,19,Jits_Linear_5,156,9999,9999,9999,1355828324
30,13,19,Jits_Linear_5,157,9999,9999,9999,1356618868
30,13,19,Jits_Linear_5,158,9999,9999,9999,1357408376
30,13,19,Jits_Linear_5,159,9999,9999,9999,1358198852
30,13,19,Jits_Linear_5,160,9999,9999,9999,1358998636
30,13,19,Jits_Linear_5,161,9999,9999,9999,1359798336
30,13,19,Jits_Linear_5,162,9999,9999,9999,1360598128
30,13,19,Jits_Linear_5,163,9999,9999,9999,1361398868
30,13,19,Jits_Linear_5,164,9999,9999,9999,1362198632
30,13,19,Jits_Linear_5,165,9999,9999,9999,1363008596
30,13,19,Jits_Linear_5,166,9999,9999,9999,1363818552
30,13,19,Jits_Linear_5,167,9999,9999,9999,1364628580
30,13,19,Jits_Linear_5,168,9999,9999,9999,1365438520
30,13,19,Jits_Linear_5,169,9999,9999,9999,1366248576
30,14,18,Jits_Linear_8,0,5,56,103,1376446804
30,14,18,Jits_Linear_8,1,5,63,98,1376450204
30,14,18,Jits_Linear_8,2,5,80,127,1376453176
30,14,18,Jits_Linear_8,0,1,48,30,1377077616
30,14,18,Jits_Linear_8,1,5,56,103,1377266968
30,14,18,Jits_Linear_8,2,5,63,98,1377270064
30,14,18,Jits_Linear_8,3,5,80,127,1377273264
30,14,18,Jits_Linear_8,0,1,48,35,1377977220
30,14,18,Jits_Linear_8,1,5,80,127,1378026796
30,14,18,Jits_Linear_8,2,5,63,98,1378116844
30,14,18,Jits_Linear_8,3,5,56,103,1378127188
30,14,18,Jits_Linear_8,0,1,48,36,1378865732
30,14,18,Jits_Linear_8,1,5,56,103,1378867604
30,14,18,Jits_Linear_8,2,5,63,98,1378876828
30,14,18,Jits_Linear_8,3,5,80,127,1378966796
30,14,18,Jits_Linear_8,0,1,48,41,1379623568
30,14,18,Jits_Linear_8,1,5,63,98,1379657168
30,14,18,Jits_Linear_8,2,5,80,127,1379686772
30,14,18,Jits_Linear_8,3,5,56,103,1379717256
30,14,18,Jits_Linear_8,0,1,48,42,1380436884
30,14,18,Jits_Linear_8,1,5,56,103,1380477516
30,14,18,Jits_Linear_8,2,5,80,127,1380576508
30,14,18,Jits_Linear_8,3,5,63,98,1380626932
30,14,18,Jits_Linear_8,0,5,56,103,1381287244
30,14,18,Jits_Linear_8,1,5,80,127,1381336724
30,14,18,Jits_Linear_8,2,1,48,45,1381348464
30,14,18,Jits_Linear_8,3,5,63,98,1381377332
30,14,18,Jits_Linear_8,0,1,48,45,1382072364
30,14,18,Jits_Linear_8,1,5,80,127,1382126812
30,14,18,Jits_Linear_8,2,5,63,98,1382156640
30,14,18,Jits_Linear_8,3,5,56,103,1382227428
30,14,18,Jits_Linear_8,0,1,48,41,1382903304
30,14,18,Jits_Linear_8,1,5,63,98,1382966728
30,14,18,Jits_Linear_8,2,5,56,103,1382997508
30,14,18,Jits_Linear_8,3,5,80,127,1383056628
30,14,18,Jits_Linear_8,0,5,56,103,1383717484
30,14,18,Jits_Linear_8,1,5,80,127,1383720404
30,14,18,Jits_Linear_8,2,1,48,44,1383723520
30,14,18,Jits_Linear_8,3,5,63,98,1383836892
30,14,18,Jits_Linear_8,0,1,48,40,1384508672
30,14,18,Jits_Linear_8,1,5,56,103,1384596884
30,14,18,Jits_Linear_8,2,5,80,127,1384636808
30,14,18,Jits_Linear_8,3,5,63,98,1384647004
30,14,18,Jits_Linear_8,0,1,48,45,1385344400
30,14,18,Jits_Linear_8,1,5,56,103,1385356556
30,14,18,Jits_Linear_8,2,5,80,127,1385377092
30,14,18,Jits_Linear_8,3,5,63,98,1385456972
30,14,18,Jits_Linear_8,0,1,48,40,1386143684
30,14,18,Jits_Linear_8,1,5,80,127,1386147316
30,14,18,Jits_Linear_8,2,5,56,103,1386246532
30,14,18,Jits_Linear_8,3,5,63,98,1386256728
30,14,18,Jits_Linear_8,0,5,63,98,1386917264
30,14,18,Jits_Linear_8,1,5,80,127,1386976488
30,14,18,Jits_Linear_8,2,5,56,103,1386986756
30,14,18,Jits_Linear_8,3,1,48,35,1386997740
30,14,18,Jits_Linear_8,0,1,48,38,1387676972
30,14,18,Jits_Linear_8,1,5,56,103,1387717004
30,14,18,Jits_Linear_8,2,5,63,98,1387786696
30,14,18,Jits_Linear_8,3,5,80,127,1387790060
30,14,18,Jits_Linear_8,0,1,48,40,1388442460
30,14,18,Jits_Linear_8,1,5,63,98,1388546280
30,14,18,Jits_Linear_8,2,5,56,103,1388596628
30,14,18,Jits_Linear_8,3,5,80,127,1388599696
30,14,18,Jits_Linear_8,0,1,48,41,1389294224
30,14,18,Jits_Linear_8,1,5,56,103,1389297180
30,14,18,Jits_Linear_8,2,5,80,127,1389300096
30,14,18,Jits_Linear_8,3,5,63,98,1389388344
30,14,18,Jits_Linear_8,0,1,48,42,1390047064
30,14,18,Jits_Linear_8,1,5,63,98,1390126436
30,14,18,Jits_Linear_8,2,5,56,103,1390216484
30,14,18,Jits_Linear_8,3,5,80,127,1390247280
30,14,18,Jits_Linear_8,0,1,48,35,1390844268
30,14,18,Jits_Linear_8,1,5,56,103,1390906640
30,14,18,Jits_Linear_8,2,5,63,98,1391007104
30,14,18,Jits_Linear_8,3,5,80,127,1391036780
30,14,18,Jits_Linear_8,0,1,48,39,1391669812
30,14,18,Jits_Linear_8,1,5,63,98,1391716668
30,14,18,Jits_Linear_8,2,5,56,103,1391727164
30,14,18,Jits_Linear_8,3,5,80,127,1391817056
30,14,18,Jits_Linear_8,0,1,48,39,1392462000
30,14,18,Jits_Linear_8,1,5,63,98,1392516352
30,14,18,Jits_Linear_8,2,5,56,103,1392597356
30,14,18,Jits_Linear_8,3,5,80,127,1392600496
30,14,18,Jits_Linear_8,0,1,48,40,1393257068
30,14,18,Jits_Linear_8,1,5,80,127,1393258560
30,14,18,Jits_Linear_8,2,5,63,98,1393277444
30,14,18,Jits_Linear_8,3,5,56,103,1393336864
30,14,18,Jits_Linear_8,0,1,48,39,1394028312
30,14,18,Jits_Linear_8,1,5,56,103,1394077116
30,14,18,Jits_Linear_8,2,5,63,98,1394096452
30,14,18,Jits_Linear_8,3,5,80,127,1394100040
30,14,18,Jits_Linear_8,0,1,48,41,1394791044
30,14,18,Jits_Linear_8,1,5,63,98,1394807108
30,14,18,Jits_Linear_8,2,5,80,127,1394886980
30,14,18,Jits_Linear_8,3,5,56,103,1394897336
30,14,18,Jits_Linear_8,0,1,48,42,1395547496
30,14,18,Jits_Linear_8,1,5,63,98,1395607084
30,14,18,Jits_Linear_8,2,5,56,103,1395627320
30,14,18,Jits_Linear_8,3,5,80,127,1395676636
30,14,18,Jits_Linear_8,0,1,48,39,1396327168
30,14,18,Jits_Linear_8,1,5,80,127,1396387132
30,14,18,Jits_Linear_8,2,5,63,98,1396426984
30,14,18,Jits_Linear_8,3,5,56,103,1396446544
30,14,18,Jits_Linear_8,0,1,48,40,1397130636
30,14,18,Jits_Linear_8,1,5,56,103,1397197296
30,14,18,Jits_Linear_8,2,5,63,98,1397207492
30,14,18,Jits_Linear_8,3,5,80,127,1397226964
30,14,18,Jits_Linear_8,0,5,56,103,1397896488
30,14,18,Jits_Linear_8,1,1,48,40,1397947636
30,14,18,Jits_Linear_8,2,5,63,98,1397986644
30,14,18,Jits_Linear_8,3,5,80,127,1398047240
30,14,18,Jits_Linear_8,0,1,48,41,1398686708
30,14,18,Jits_Linear_8,1,5,80,127,1398697596
30,14,18,Jits_Linear_8,2,5,56,103,1398706672
30,14,18,Jits_Linear_8,3,5,63,98,1398777348
30,14,18,Jits_Linear_8,0,1,48,43,1399438732
30,14,18,Jits_Linear_8,1,5,63,98,1399497052
30,14,18,Jits_Linear_8,2,5,80,127,1399587324
30,14,18,Jits_Linear_8,3,5,56,103,1399597444
30,14,18,Jits_Linear_8,0,5,63,98,1400196324
30,14,18,Jits_Linear_8,1,1,48,42,1400231136
30,14,18,Jits_Linear_8,2,5,80,127,1400246748
30,14,18,Jits_Linear_8,3,5,56,103,1400307012
30,14,18,Jits_Linear_8,0,1,48,42,1400974472
30,14,18,Jits_Linear_8,1,5,56,103,1400986928
30,14,18,Jits_Linear_8,2,5,80,127,1401037232
30,14,18,Jits_Linear_8,3,5,63,98,1401056868
30,14,18,Jits_Linear_8,0,5,56,103,1401717084
30,14,18,Jits_Linear_8,1,1,48,45,1401723788
30,14,18,Jits_Linear_8,2,5,80,127,1401776572
30,14,18,Jits_Linear_8,3,5,63,98,1401847084
30,14,18,Jits_Linear_8,0,5,56,103,1402476768
30,14,18,Jits_Linear_8,1,1,48,35,1402503780
30,14,18,Jits_Linear_8,2,5,80,127,1402506512
30,14,18,Jits_Linear_8,3,5,63,98,1402537456
30,14,18,Jits_Linear_8,0,1,48,39,1403206676
30,14,18,Jits_Linear_8,1,5,56,103,1403276748
30,14,18,Jits_Linear_8,2,5,80,127,1403297208
30,14,18,Jits_Linear_8,3,5,63,98,1403356636
30,14,18,Jits_Linear_8,0,1,48,44,1404005460
30,14,18,Jits_Linear_8,1,5,80,127,1404117496
30,14,18,Jits_Linear_8,2,5,56,103,1404126720
30,14,18,Jits_Linear_8,3,5,63,98,1404136844
30,14,18,Jits_Linear_8,0,5,56,103,1404826980
30,14,18,Jits_Linear_8,1,1,48,37,1404856924
30,14,18,Jits_Linear_8,2,5,80,127,1404866912
30,14,18,Jits_Linear_8,3,5,63,98,1404896612
30,14,18,Jits_Linear_8,0,5,56,103,1405546812
30,14,18,Jits_Linear_8,1,1,48,41,1405560048
30,14,18,Jits_Linear_8,2,5,63,98,1405576708
30,14,18,Jits_Linear_8,3,5,80,127,1405616572
30,14,18,Jits_Linear_8,0,5,80,127,1406247460
30,14,18,Jits_Linear_8,1,1,48,37,1406265720
30,14,18,Jits_Linear_8,2,5,63,98,1406296460
30,14,18,Jits_Linear_8,3,5,56,103,1406316848
30,14,18,Jits_Linear_8,0,1,48,37,1406996472
30,14,18,Jits_Linear_8,1,5,56,103,1407026468
30,14,18,Jits_Linear_8,2,5,80,127,1407097408
30,14,18,Jits_Linear_8,3,5,63,98,1407156528
30,14,18,Jits_Linear_8,0,1,48,42,1407726404
30,14,18,Jits_Linear_8,1,5,80,127,1407766816
30,14,18,Jits_Linear_8,2,5,63,98,1407856940
30,14,18,Jits_Linear_8,3,5,56,103,1407876428
30,14,18,Jits_Linear_8,0,1,48,40,1408496424
30,14,18,Jits_Linear_8,1,5,63,98,1408526644
30,14,18,Jits_Linear_8,2,5,56,103,1408547252
30,14,18,Jits_Linear_8,3,5,80,127,1408587268
30,14,18,Jits_Linear_8,0,1,48,44,1409185344
30,14,18,Jits_Linear_8,1,5,80,127,1409227124
30,14,18,Jits_Linear_8,2,5,63,98,1409246612
30,14,18,Jits_Linear_8,3,5,56,103,1409326464
30,14,18,Jits_Linear_8,0,1,48,40,1409946432
30,14,18,Jits_Linear_8,1,5,63,98,1409957468
30,14,18,Jits_Linear_8,2,5,56,103,1410066872
30,14,18,Jits_Linear_8,3,5,80,127,1410070012
30,14,18,Jits_Linear_8,0,1,48,39,1410685716
30,14,18,Jits_Linear_8,1,5,63,98,1410717208
30,14,18,Jits_Linear_8,2,5,56,103,1410727252
30,14,18,Jits_Linear_8,3,5,80,127,1410730320
30,14,18,Jits_Linear_8,0,5,56,103,1411436860
30,14,18,Jits_Linear_8,1,1,48,36,1411437976
30,14,18,Jits_Linear_8,2,5,80,127,1411556672
30,14,18,Jits_Linear_8,3,5,63,98,1411596532
30,14,18,Jits_Linear_8,0,5,56,103,1412186512
30,14,18,Jits_Linear_8,1,1,48,40,1412205516
30,14,18,Jits_Linear_8,2,5,80,127,1412267348
30,14,18,Jits_Linear_8,3,5,63,98,1412286688
30,14,18,Jits_Linear_8,0,5,56,103,1412916456
30,14,18,Jits_Linear_8,1,1,48,38,1412927596
30,14,18,Jits_Linear_8,2,5,63,98,1413027172
30,14,18,Jits_Linear_8,3,5,80,127,1413030608
30,14,18,Jits_Linear_8,0,5,56,103,1413677484
30,14,18,Jits_Linear_8,1,1,48,38,1413693332
30,14,18,Jits_Linear_8,2,5,80,127,1413707304
30,14,18,Jits_Linear_8,3,5,63,98,1413726568
30,14,18,Jits_Linear_8,0,1,48,42,1414377352
30,14,18,Jits_Linear_8,1,5,63,98,1414387120
30,14,18,Jits_Linear_8,2,5,56,103,1414397240
30,14,18,Jits_Linear_8,3,5,80,127,1414406464
30,14,18,Jits_Linear_8,0,1,48,38,1415045072
30,14,18,Jits_Linear_8,1,5,80,127,1415096720
30,14,18,Jits_Linear_8,2,5,56,103,1415147008
30,14,18,Jits_Linear_8,3,5,63,98,1415186944
30,14,18,Jits_Linear_8,0,1,48,37,1415822940
30,14,18,Jits_Linear_8,1,5,80,127,1415836988
30,14,18,Jits_Linear_8,2,5,63,98,1415856476
30,14,18,Jits_Linear_8,3,5,56,103,1415906628
30,14,18,Jits_Linear_8,0,1,48,40,1416546284
30,14,18,Jits_Linear_8,1,5,80,127,1416577328
30,14,18,Jits_Linear_8,2,5,56,103,1416607228
30,14,18,Jits_Linear_8,3,5,63,98,1416676920
30,14,18,Jits_Linear_8,0,1,48,40,1417286556
30,14,18,Jits_Linear_8,1,5,56,103,1417346372
30,14,18,Jits_Linear_8,2,5,80,127,1417356792
30,14,18,Jits_Linear_8,3,5,63,98,1417396568
30,14,18,Jits_Linear_8,0,5,56,103,1417977112
30,14,18,Jits_Linear_8,1,5,63,98,1417996524
30,14,18,Jits_Linear_8,2,1,48,36,1418039124
30,14,18,Jits_Linear_8,3,5,80,127,1418067320
30,14,18,Jits_Linear_8,0,1,48,38,1418683684
30,14,18,Jits_Linear_8,1,5,63,98,1418716412
30,14,18,Jits_Linear_8,2,5,80,127,1418777028
30,14,18,Jits_Linear_8,3,5,56,103,1418797400
30,14,18,Jits_Linear_8,0,1,48,39,1419407928
30,14,18,Jits_Linear_8,1,5,80,127,1419417020
30,14,18,Jits_Linear_8,2,5,56,103,1419446844
30,14,18,Jits_Linear_8,3,5,63,98,1419477220
30,14,18,Jits_Linear_8,0,1,48,38,1420120252
30,14,18,Jits_Linear_8,1,5,56,103,1420126720
30,14,18,Jits_Linear_8,2,5,63,98,1420186892
30,14,18,Jits_Linear_8,3,5,80,127,1420247440
30,14,18,Jits_Linear_8,0,1,48,41,1420809944
30,14,18,Jits_Linear_8,1,5,80,127,1420856800
30,14,18,Jits_Linear_8,2,5,56,103,1420877112
30,14,18,Jits_Linear_8,3,5,63,98,1420947000
30,14,18,Jits_Linear_8,0,5,80,127,1421567336
30,14,18,Jits_Linear_8,1,1,48,43,1421575104
30,14,18,Jits_Linear_8,2,5,63,98,1421586888
30,14,18,Jits_Linear_8,3,5,56,103,1421616936
30,14,18,Jits_Linear_8,0,5,80,127,1422256868
30,14,18,Jits_Linear_8,1,5,63,98,1422276956
30,14,18,Jits_Linear_8,2,1,48,45,1422300476
30,14,18,Jits_Linear_8,3,5,56,103,1422337288
30,14,18,Jits_Linear_8,0,5,80,127,1422956988
30,14,18,Jits_Linear_8,1,1,48,40,1422971196
30,14,18,Jits_Linear_8,2,5,56,103,1423057260
30,14,18,Jits_Linear_8,3,5,63,98,1423086920
30,14,18,Jits_Linear_8,0,5,63,98,1423647228
30,14,18,Jits_Linear_8,1,5,80,127,1423697136
30,14,18,Jits_Linear_8,2,5,56,103,1423716768
30,14,18,Jits_Linear_8,3,1,48,40,1423750676
30,14,18,Jits_Linear_8,0,1,48,41,1424363780
30,14,18,Jits_Linear_8,1,5,80,127,1424386368
30,14,18,Jits_Linear_8,2,5,56,103,1424417088
30,14,18,Jits_Linear_8,3,5,63,98,1424420080
30,14,18,Jits_Linear_8,0,1,48,40,1425048880
30,14,18,Jits_Linear_8,1,5,63,98,1425116812
30,14,18,Jits_Linear_8,2,5,56,103,1425156588
30,14,18,Jits_Linear_8,3,5,80,127,1425176900
30,14,18,Jits_Linear_8,0,5,80,127,1425756824
30,14,18,Jits_Linear_8,1,1,48,43,1425758240
30,14,18,Jits_Linear_8,2,5,63,98,1425837660
30,14,18,Jits_Linear_8,3,5,56,103,1425877608
30,14,18,Jits_Linear_8,0,5,63,98,1426467144
30,14,18,Jits_Linear_8,1,1,48,41,1426484040
30,14,18,Jits_Linear_8,2,5,80,127,1426547012
30,14,18,Jits_Linear_8,3,5,56,103,1426566572
30,14,18,Jits_Linear_8,0,1,48,38,1427186116
30,14,18,Jits_Linear_8,1,5,56,103,1427197448
30,14,18,Jits_Linear_8,2,5,63,98,1427206524
30,14,18,Jits_Linear_8,3,5,80,127,1427246612
30,14,18,Jits_Linear_8,0,5,56,103,1427806592
30,14,18,Jits_Linear_8,1,5,80,127,1427809660
30,14,18,Jits_Linear_8,2,1,48,33,1427850316
30,14,18,Jits_Linear_8,3,5,63,98,1427946848
30,14,18,Jits_Linear_8,0,5,56,103,1428486556
30,14,18,Jits_Linear_8,1,1,48,38,1428508180
30,14,18,Jits_Linear_8,2,5,63,98,1428576764
30,14,18,Jits_Linear_8,3,5,80,127,1428647548
30,14,18,Jits_Linear_8,0,1,48,41,1429175320
30,14,18,Jits_Linear_8,1,5,63,98,1429247584
30,14,18,Jits_Linear_8,2,5,80,127,1429250876
30,14,18,Jits_Linear_8,3,5,56,103,1429306692
30,14,18,Jits_Linear_8,0,1,48,45,1429879460
30,14,18,Jits_Linear_8,1,5,80,127,1429967400
30,14,18,Jits_Linear_8,2,5,56,103,1429986648
30,14,18,Jits_Linear_8,3,5,63,98,1429996844
30,14,18,Jits_Linear_8,0,5,56,103,1430556920
30,14,18,Jits_Linear_8,1,5,63,98,1430567564
30,14,18,Jits_Linear_8,2,1,48,40,1430632564
30,14,18,Jits_Linear_8,3,5,80,127,1430636868
30,14,18,Jits_Linear_8,0,5,80,127,1431236868
30,14,18,Jits_Linear_8,1,1,48,40,1431275304
30,14,18,Jits_Linear_8,2,5,56,103,1431287236
30,14,18,Jits_Linear_8,3,5,63,98,1431337364
30,14,18,Jits_Linear_8,0,1,48,39,1431958764
30,14,18,Jits_Linear_8,1,5,56,103,1431996704
30,14,18,Jits_Linear_8,2,5,63,98,1432006900
30,14,18,Jits_Linear_8,3,5,80,127,1432046864
30,14,18,Jits_Linear_8,0,5,56,103,1432617264
30,14,18,Jits_Linear_8,1,1,48,44,1432656520
30,14,18,Jits_Linear_8,2,5,63,98,1432658244
30,14,18,Jits_Linear_8,3,5,80,127,1432706424
30,14,18,Jits_Linear_8,0,5,80,127,1433247236
30,14,18,Jits_Linear_8,1,1,48,34,1433277332
30,14,18,Jits_Linear_8,2,5,56,103,1433297236
30,14,18,Jits_Linear_8,3,5,63,98,1433316648
30,14,18,Jits_Linear_8,0,1,48,36,1433916016
30,14,18,Jits_Linear_8,1,5,80,127,1433926980
30,14,18,Jits_Linear_8,2,5,63,98,1433986400
30,14,18,Jits_Linear_8,3,5,56,103,1434067400
30,14,18,Jits_Linear_8,0,5,80,127,1434577352
30,14,18,Jits_Linear_8,1,5,56,103,1434617440
30,14,18,Jits_Linear_8,2,1,48,39,1434624076
30,14,18,Jits_Linear_8,3,5,63,98,1434636548
30,14,18,Jits_Linear_8,0,1,48,39,1435269620
30,14,18,Jits_Linear_8,1,5,56,103,1435297368
30,14,18,Jits_Linear_8,2,5,80,127,1435307492
30,14,18,Jits_Linear_8,3,5,63,98,1435347528
30,14,18,Jits_Linear_8,0,1,48,34,1435931516
30,14,18,Jits_Linear_8,1,5,56,103,1436027304
30,14,18,Jits_Linear_8,2,5,63,98,1436067228
30,14,18,Jits_Linear_8,3,5,80,127,1436070592
30,14,18,Jits_Linear_8,0,5,63,98,1436577328
30,14,18,Jits_Linear_8,1,5,80,127,1436617216
30,14,18,Jits_Linear_8,2,1,48,37,1436646716
30,14,18,Jits_Linear_8,3,5,56,103,1436686668
30,14,18,Jits_Linear_8,0,5,63,98,1437227312
30,14,18,Jits_Linear_8,1,1,48,30,1437276136
30,14,18,Jits_Linear_8,2,5,56,103,1437307104
30,14,18,Jits_Linear_8,3,5,80,127,1437366600
30,14,18,Jits_Linear_8,0,1,48,37,1437853928
30,14,18,Jits_Linear_8,1,5,80,127,1437897068
30,14,18,Jits_Linear_8,2,5,63,98,1437947272
30,14,18,Jits_Linear_8,3,5,56,103,1437977080
30,14,18,Jits_Linear_8,0,5,56,103,1438547188
30,14,18,Jits_Linear_8,1,1,48,39,1438571056
30,14,18,Jits_Linear_8,2,5,63,98,1438596412
30,14,18,Jits_Linear_8,3,5,80,127,1438606904
30,14,18,Jits_Linear_8,0,1,48,42,1439179544
30,14,18,Jits_Linear_8,1,5,56,103,1439217108
30,14,18,Jits_Linear_8,2,5,63,98,1439326712
30,14,18,Jits_Linear_8,3,5,80,127,1439347020
30,14,18,Jits_Linear_8,0,5,63,98,1439867160
30,14,18,Jits_Linear_8,1,1,48,39,1439915316
30,14,18,Jits_Linear_8,2,5,80,127,1439917360
30,14,18,Jits_Linear_8,3,5,56,103,1440006396
30,14,18,Jits_Linear_8,0,5,63,98,1440507188
30,14,18,Jits_Linear_8,1,5,80,127,1440536864
30,14,18,Jits_Linear_8,2,1,48,41,1440545680
30,14,18,Jits_Linear_8,3,5,56,103,1440627064
30,14,18,Jits_Linear_8,0,5,63,98,1441156404
30,14,18,Jits_Linear_8,1,5,56,103,1441166748
30,14,18,Jits_Linear_8,2,1,48,40,1441184540
30,14,18,Jits_Linear_8,3,5,80,127,1441267084
30,14,18,Jits_Linear_8,0,1,48,37,1441772928
30,14,18,Jits_Linear_8,1,5,63,98,1441907060
30,14,18,Jits_Linear_8,2,5,80,127,1441937036
30,14,18,Jits_Linear_8,3,5,56,103,1441966340
30,14,18,Jits_Linear_8,0,1,48,34,1442521008
30,14,18,Jits_Linear_8,1,5,80,127,1442566448
30,14,18,Jits_Linear_8,2,5,63,98,1442577016
30,14,18,Jits_Linear_8,3,5,56,103,1442606392
30,14,18,Jits_Linear_8,0,5,80,127,1443107184
30,14,18,Jits_Linear_8,1,5,63,98,1443126896
30,14,18,Jits_Linear_8,2,1,48,32,1443148900
30,14,18,Jits_Linear_8,3,5,56,103,1443177016
30,14,18,Jits_Linear_8,0,1,48,39,1443714352
30,14,18,Jits_Linear_8,1,5,63,98,1443777008
30,14,18,Jits_Linear_8,2,5,80,127,1443837264
30,14,18,Jits_Linear_8,3,5,56,103,1443856972
30,14,18,Jits_Linear_8,0,1,48,31,1444347036
30,14,18,Jits_Linear_8,1,5,63,98,1444376880
30,14,18,Jits_Linear_8,2,5,56,103,1444427232
30,14,18,Jits_Linear_8,3,5,80,127,1444438608
30,14,18,Jits_Linear_8,0,1,48,30,1445038504
30,14,18,Jits_Linear_8,1,5,56,103,1445046920
30,14,18,Jits_Linear_8,2,5,80,127,1445056816
30,14,18,Jits_Linear_8,3,5,63,98,1445157372
30,14,18,Jits_Linear_8,0,5,80,127,1445646868
30,14,18,Jits_Linear_8,1,5,63,98,1445656916
30,14,18,Jits_Linear_8,2,1,48,33,1445692096
30,14,18,Jits_Linear_8,3,5,56,103,1445806584
30,14,18,Jits_Linear_8,0,5,63,98,1446286808
30,14,18,Jits_Linear_8,1,1,48,27,1446318400
30,14,18,Jits_Linear_8,2,5,80,127,1446326892
30,14,18,Jits_Linear_8,3,5,56,103,1446406712
30,14,18,Jits_Linear_8,0,5,56,103,1446907204
30,14,18,Jits_Linear_8,1,1,48,33,1446946736
30,14,18,Jits_Linear_8,2,5,80,127,1447006776
30,14,18,Jits_Linear_8,3,5,63,98,1447027012
30,14,18,Jits_Linear_8,0,1,48,27,1447568840
30,14,18,Jits_Linear_8,1,5,80,127,1447597636
30,14,18,Jits_Linear_8,2,5,56,103,1447606784
30,14,18,Jits_Linear_8,3,5,63,98,1447696708
30,14,18,Jits_Linear_8,0,1,48,35,1448224820
30,14,18,Jits_Linear_8,1,5,56,103,1448227328
30,14,18,Jits_Linear_8,2,5,63,98,1448246816
30,14,18,Jits_Linear_8,3,5,80,127,1448326596
30,14,18,Jits_Linear_8,0,5,63,98,1448796688
30,14,18,Jits_Linear_8,1,1,48,32,1448825588
30,14,18,Jits_Linear_8,2,5,56,103,1448886892
30,14,18,Jits_Linear_8,3,5,80,127,1448889812
30,14,18,Jits_Linear_8,0,1,48,35,1449405332
30,14,18,Jits_Linear_8,1,5,56,103,1449446816
30,14,18,Jits_Linear_8,2,5,80,127,1449507120
30,14,18,Jits_Linear_8,3,5,63,98,1449517536
30,14,18,Jits_Linear_8,0,1,48,39,1450081468
30,14,18,Jits_Linear_8,1,5,80,127,1450116636
30,14,18,Jits_Linear_8,2,5,56,103,1450126904
30,14,18,Jits_Linear_8,3,5,63,98,1450129900
30,14,18,Jits_Linear_8,0,5,56,103,1450697024
30,14,18,Jits_Linear_8,1,5,80,127,1450707444
30,14,18,Jits_Linear_8,2,1,48,37,1450718204
30,14,18,Jits_Linear_8,3,5,63,98,1450726848
30,14,18,Jits_Linear_8,0,1,48,40,1451275796
30,14,18,Jits_Linear_8,1,5,63,98,1451286832
30,14,18,Jits_Linear_8,2,5,80,127,1451347300
30,14,18,Jits_Linear_8,3,5,56,103,1451396664
30,14,18,Jits_Linear_8,0,1,48,38,1451925092
30,14,18,Jits_Linear_8,1,5,63,98,1451987476
30,14,18,Jits_Linear_8,2,5,56,103,1451996552
30,14,18,Jits_Linear_8,3,5,80,127,1452046812
30,14,18,Jits_Linear_8,0,5,63,98,1452497424
30,14,18,Jits_Linear_8,1,5,80,127,1452516764
30,14,18,Jits_Linear_8,2,5,56,103,1452527180
30,14,18,Jits_Linear_8,3,1,48,32,1452597656
30,14,18,Jits_Linear_8,0,5,63,98,1453106624
30,14,18,Jits_Linear_8,1,5,80,127,1453109840
30,14,18,Jits_Linear_8,2,5,56,103,1453146636
30,14,18,Jits_Linear_8,3,1,48,37,1453147676
30,14,18,Jits_Linear_8,0,1,48,38,1453743044
30,14,18,Jits_Linear_8,1,5,63,98,1453786416
30,14,18,Jits_Linear_8,2,5,80,127,1453817140
30,14,18,Jits_Linear_8,3,5,56,103,1453826584
30,14,18,Jits_Linear_8,0,5,56,103,1454346632
30,14,18,Jits_Linear_8,1,5,80,127,1454377504
30,14,18,Jits_Linear_8,2,5,63,98,1454407032
30,14,18,Jits_Linear_8,3,1,48,37,1454415328
30,14,18,Jits_Linear_8,0,1,48,41,1454985120
30,14,18,Jits_Linear_8,1,5,63,98,1455047132
30,14,18,Jits_Linear_8,2,5,56,103,1455086904
30,14,18,Jits_Linear_8,3,5,80,127,1455090044
30,14,18,Jits_Linear_8,0,5,80,127,1455546784
30,14,18,Jits_Linear_8,1,5,56,103,1455626532
30,14,18,Jits_Linear_8,2,1,48,38,1455627868
30,14,18,Jits_Linear_8,3,5,63,98,1455676800
30,14,18,Jits_Linear_8,0,5,80,127,1456127264
30,14,18,Jits_Linear_8,1,5,56,103,1456146900
30,14,18,Jits_Linear_8,2,5,63,98,1456236808
30,14,18,Jits_Linear_8,3,1,48,38,1456253628
30,14,18,Jits_Linear_8,0,5,80,127,1456767352
30,14,18,Jits_Linear_8,1,1,48,37,1456801260
30,14,18,Jits_Linear_8,2,5,63,98,1456807360
30,14,18,Jits_Linear_8,3,5,56,103,1456847472
30,14,18,Jits_Linear_8,0,5,63,98,1457336644
30,14,18,Jits_Linear_8,1,5,80,127,1457397212
30,14,18,Jits_Linear_8,2,1,48,32,1457411196
30,14,18,Jits_Linear_8,3,5,56,103,1457426880
30,14,18,Jits_Linear_8,0,5,56,103,1457937036
30,14,18,Jits_Linear_8,1,5,80,127,1457966416
30,14,18,Jits_Linear_8,2,1,48,33,1457979796
30,14,18,Jits_Linear_8,3,5,63,98,1458056616
30,14,18,Jits_Linear_8,0,5,56,103,1458536748
30,14,18,Jits_Linear_8,1,1,48,34,1458607152
30,14,18,Jits_Linear_8,2,5,80,127,1458647428
30,14,18,Jits_Linear_8,3,5,63,98,1458677252
30,14,18,Jits_Linear_8,0,5,56,103,1459176796
30,14,18,Jits_Linear_8,1,1,48,40,1459178584
30,14,18,Jits_Linear_8,2,5,63,98,1459237180
30,14,18,Jits_Linear_8,3,5,80,127,1459266856
30,14,18,Jits_Linear_8,0,5,56,103,1459737028
30,14,18,Jits_Linear_8,1,1,48,33,1459792216
30,14,18,Jits_Linear_8,2,5,63,98,1459806704
30,14,18,Jits_Linear_8,3,5,80,127,1459827016
30,14,18,Jits_Linear_8,0,5,80,127,1460297256
30,14,18,Jits_Linear_8,1,5,63,98,1460316596
30,14,18,Jits_Linear_8,2,1,48,36,1460348336
30,14,18,Jits_Linear_8,3,5,56,103,1460366568
30,14,18,Jits_Linear_8,0,5,63,98,1460897188
30,14,18,Jits_Linear_8,1,1,48,38,1460899052
30,14,18,Jits_Linear_8,2,5,80,127,1460907304
30,14,18,Jits_Linear_8,3,5,56,103,1460956556
30,14,18,Jits_Linear_8,0,1,48,36,1461470196
30,14,18,Jits_Linear_8,1,5,63,98,1461476596
30,14,18,Jits_Linear_8,2,5,80,127,1461547476
30,14,18,Jits_Linear_8,3,5,56,103,1461567024
30,14,18,Jits_Linear_8,0,1,48,40,1462044408
30,14,18,Jits_Linear_8,1,5,63,98,1462086924
30,14,18,Jits_Linear_8,2,5,80,127,1462090220
30,14,18,Jits_Linear_8,3,5,56,103,1462156596
30,14,18,Jits_Linear_8,0,5,80,127,1462616500
30,14,18,Jits_Linear_8,1,1,48,38,1462635144
30,14,18,Jits_Linear_8,2,5,56,103,1462636880
30,14,18,Jits_Linear_8,3,5,63,98,1462647372
30,14,18,Jits_Linear_8,0,1,48,38,1463179380
30,14,18,Jits_Linear_8,1,5,56,103,1463216564
30,14,18,Jits_Linear_8,2,5,63,98,1463306636
30,14,18,Jits_Linear_8,3,5,80,127,1463310000
30,14,18,Jits_Linear_8,0,1,48,35,1463758260
30,14,18,Jits_Linear_8,1,5,80,127,1463767280
30,14,18,Jits_Linear_8,2,5,56,103,1463776652
30,14,18,Jits_Linear_8,3,5,63,98,1463797036
30,14,18,Jits_Linear_8,0,1,48,35,1464291416
30,14,18,Jits_Linear_8,1,5,63,98,1464336996
30,14,18,Jits_Linear_8,2,5,80,127,1464397152
30,14,18,Jits_Linear_8,3,5,56,103,1464407348
30,14,18,Jits_Linear_8,0,1,48,36,1464879352
30,14,18,Jits_Linear_8,1,5,63,98,1464976912
30,14,18,Jits_Linear_8,2,5,80,127,1465006516
30,14,18,Jits_Linear_8,3,5,56,103,1465047452
30,14,18,Jits_Linear_8,0,1,48,31,1465502800
30,14,18,Jits_Linear_8,1,5,56,103,1465536996
30,14,18,Jits_Linear_8,2,5,80,127,1465546996
30,14,18,Jits_Linear_8,3,5,63,98,1465587080
30,14,18,Jits_Linear_8,0,1,48,35,1466061316
30,14,18,Jits_Linear_8,1,5,80,127,1466067192
30,14,18,Jits_Linear_8,2,5,56,103,1466147136
30,14,18,Jits_Linear_8,3,5,63,98,1466157840
30,14,18,Jits_Linear_8,0,1,48,28,1466673892
30,14,18,Jits_Linear_8,1,5,80,127,1466676556
30,14,18,Jits_Linear_8,2,5,56,103,1466756352
30,14,18,Jits_Linear_8,3,5,63,98,1466767508
30,14,18,Jits_Linear_8,0,5,80,127,1467196924
30,14,18,Jits_Linear_8,1,1,48,32,1467241624
30,14,18,Jits_Linear_8,2,5,56,103,1467246972
30,14,18,Jits_Linear_8,3,5,63,98,1467297024
30,14,18,Jits_Linear_8,0,1,48,38,1467808736
30,14,18,Jits_Linear_8,1,5,56,103,1467817228
30,14,18,Jits_Linear_8,2,5,63,98,1467820448
30,14,18,Jits_Linear_8,3,5,80,127,1467866560
30,14,18,Jits_Linear_8,0,1,48,33,1468374060
30,14,18,Jits_Linear_8,1,5,56,103,1468396944
30,14,18,Jits_Linear_8,2,5,63,98,1468426696
30,14,18,Jits_Linear_8,3,5,80,127,1468436892
30,14,18,Jits_Linear_8,0,5,63,98,1468867088
30,14,18,Jits_Linear_8,1,5,56,103,1468936500
30,14,18,Jits_Linear_8,2,1,48,34,1468941640
30,14,18,Jits_Linear_8,3,5,80,127,1468986620
30,14,18,Jits_Linear_8,0,1,48,35,1469435168
30,14,18,Jits_Linear_8,1,5,63,98,1469456916
30,14,18,Jits_Linear_8,2,5,56,103,1469466964
30,14,18,Jits_Linear_8,3,5,80,127,1469470028
30,14,18,Jits_Linear_8,0,5,80,127,1469956588
30,14,18,Jits_Linear_8,1,1,48,31,1470000240
30,14,18,Jits_Linear_8,2,5,56,103,1470016828
30,14,18,Jits_Linear_8,3,5,63,98,1470106944
30,14,18,Jits_Linear_8,0,5,80,127,1470507672
30,14,18,Jits_Linear_8,1,1,48,35,1470541960
30,14,18,Jits_Linear_8,2,5,56,103,1470606648
30,14,18,Jits_Linear_8,3,5,63,98,1470646720
30,14,18,Jits_Linear_8,0,5,56,103,1471106492
30,14,18,Jits_Linear_8,1,1,48,34,1471122192
30,14,18,Jits_Linear_8,2,5,63,98,1471126872
30,14,18,Jits_Linear_8,3,5,80,127,1471166808
30,14,18,Jits_Linear_8,0,5,63,98,1471626784
30,14,18,Jits_Linear_8,1,5,56,103,1471647020
30,14,18,Jits_Linear_8,2,1,48,32,1471693460
30,14,18,Jits_Linear_8,3,5,80,127,1471746388
30,14,18,Jits_Linear_8,0,5,63,98,1472157104
30,14,18,Jits_Linear_8,1,1,48,31,1472208052
30,14,18,Jits_Linear_8,2,5,80,127,1472266664
30,14,18,Jits_Linear_8,3,5,56,103,1472297460
30,14,18,Jits_Linear_8,0,5,56,103,1472717196
30,14,18,Jits_Linear_8,1,5,63,98,1472746872
30,14,18,Jits_Linear_8,2,5,80,127,1472796928
30,14,18,Jits_Linear_8,3,1,48,30,1472797892
30,14,18,Jits_Linear_8,0,5,63,98,1473227148
30,14,18,Jits_Linear_8,1,5,56,103,1473256748
30,14,18,Jits_Linear_8,2,1,48,31,1473290360
30,14,18,Jits_Linear_8,3,5,80,127,1473306944
30,14,18,Jits_Linear_8,0,5,56,103,1473796648
30,14,18,Jits_Linear_8,1,1,48,31,1473811828
30,14,18,Jits_Linear_8,2,5,63,98,1473816952
30,14,18,Jits_Linear_8,3,5,80,127,1473896748
30,14,18,Jits_Linear_8,0,5,63,98,1474306452
30,14,18,Jits_Linear_8,1,1,48,33,1474366624
30,14,18,Jits_Linear_8,2,5,56,103,1474368108
30,14,18,Jits_Linear_8,3,5,80,127,1474396516
30,14,18,Jits_Linear_8,0,5,56,103,1474887044
30,14,18,Jits_Linear_8,1,1,48,39,1474899600
30,14,18,Jits_Linear_8,2,5,80,127,1474946532
30,14,18,Jits_Linear_8,3,5,63,98,1474987516
30,14,18,Jits_Linear_8,0,5,63,98,1475396928
30,14,18,Jits_Linear_8,1,5,56,103,1475457468
30,14,18,Jits_Linear_8,2,1,48,33,1475477676
30,14,18,Jits_Linear_8,3,5,80,127,1475527092
30,14,18,Jits_Linear_8,0,5,56,103,1476007340
30,14,18,Jits_Linear_8,1,1,48,35,1476010236
30,14,18,Jits_Linear_8,2,5,63,98,1476016632
30,14,18,Jits_Linear_8,3,5,80,127,1476019920
30,14,18,Jits_Linear_8,0,5,63,98,1476477576
30,14,18,Jits_Linear_8,1,5,56,103,1476536700
30,14,18,Jits_Linear_8,2,5,80,127,1476539764
30,14,18,Jits_Linear_8,3,1,48,35,1476551004
30,14,18,Jits_Linear_8,0,5,63,98,1476987360
30,14,18,Jits_Linear_8,1,5,80,127,1477016888
30,14,18,Jits_Linear_8,2,5,56,103,1477037572
30,14,18,Jits_Linear_8,3,1,48,30,1477067616
30,14,18,Jits_Linear_8,0,5,56,103,1477516708
30,14,18,Jits_Linear_8,1,1,48,37,1477554524
30,14,18,Jits_Linear_8,2,5,63,98,1477566828
30,14,18,Jits_Linear_8,3,5,80,127,1477646648
30,14,18,Jits_Linear_8,0,5,80,127,1478017368
30,14,18,Jits_Linear_8,1,5,63,98,1478057456
30,14,18,Jits_Linear_8,2,5,56,103,1478076792
30,14,18,Jits_Linear_8,3,1,48,34,1478135008
30,14,18,Jits_Linear_8,0,1,48,35,1478588272
30,14,18,Jits_Linear_8,1,5,56,103,1478607204
30,14,18,Jits_Linear_8,2,5,80,127,1478616576
30,14,18,Jits_Linear_8,3,5,63,98,1478637036
30,14,18,Jits_Linear_8,0,5,56,103,1479106940
30,14,18,Jits_Linear_8,1,1,48,40,1479149468
30,14,18,Jits_Linear_8,2,5,63,98,1479157140
30,14,18,Jits_Linear_8,3,5,80,127,1479186740
30,14,18,Jits_Linear_8,0,5,56,103,1479576940
30,14,18,Jits_Linear_8,1,5,63,98,1479587360
30,14,18,Jits_Linear_8,2,5,80,127,1479637364
30,14,18,Jits_Linear_8,3,1,48,36,1479671344
30,14,18,Jits_Linear_8,0,5,56,103,1480087040
30,14,18,Jits_Linear_8,1,5,80,127,1480089884
30,14,18,Jits_Linear_8,2,1,48,34,1480163524
30,14,18,Jits_Linear_8,3,5,63,98,1480246568
30,14,18,Jits_Linear_8,0,5,63,98,1480617292
30,14,18,Jits_Linear_8,1,1,48,40,1480679396
30,14,18,Jits_Linear_8,2,5,56,103,1480687068
30,14,18,Jits_Linear_8,3,5,80,127,1480726860
30,14,18,Jits_Linear_8,0,5,63,98,1481167344
30,14,18,Jits_Linear_8,1,1,48,38,1481205308
30,14,18,Jits_Linear_8,2,5,56,103,1481257324
30,14,18,Jits_Linear_8,3,5,80,127,1481260388
30,14,18,Jits_Linear_8,0,5,56,103,1481656580
30,14,18,Jits_Linear_8,1,1,48,37,1481728724
30,14,18,Jits_Linear_8,2,5,63,98,1481746884
30,14,18,Jits_Linear_8,3,5,80,127,1481757080
30,14,18,Jits_Linear_8,0,5,56,103,1482137096
30,14,18,Jits_Linear_8,1,5,63,98,1482187324
30,14,18,Jits_Linear_8,2,5,80,127,1482216924
30,14,18,Jits_Linear_8,3,1,48,31,1482238104
30,14,18,Jits_Linear_8,0,5,63,98,1482716532
30,14,18,Jits_Linear_8,1,1,48,45,1482726048
30,14,18,Jits_Linear_8,2,5,80,127,1482727772
30,14,18,Jits_Linear_8,3,5,56,103,1482787260
30,14,18,Jits_Linear_8,0,5,63,98,1483137448
30,14,18,Jits_Linear_8,1,5,80,127,1483196792
30,14,18,Jits_Linear_8,2,5,56,103,1483236608
30,14,18,Jits_Linear_8,3,1,48,42,1483278756
30,14,18,Jits_Linear_8,0,5,56,103,1483736420
30,14,18,Jits_Linear_8,1,5,80,127,1483757176
30,14,18,Jits_Linear_8,2,1,48,38,1483775216
30,14,18,Jits_Linear_8,3,5,63,98,1483777332
30,14,18,Jits_Linear_8,0,5,63,98,1484157200
30,14,18,Jits_Linear_8,1,5,56,103,1484176760
30,14,18,Jits_Linear_8,2,5,80,127,1484216624
30,14,18,Jits_Linear_8,3,1,48,38,1484302392
30,14,18,Jits_Linear_8,0,5,63,98,1484667212
30,14,18,Jits_Linear_8,1,5,80,127,1484697188
30,14,18,Jits_Linear_8,2,5,56,103,1484717424
30,14,18,Jits_Linear_8,3,1,48,41,1484827924
30,14,18,Jits_Linear_8,0,5,80,127,1485137220
30,14,18,Jits_Linear_8,1,5,56,103,1485186376
30,14,18,Jits_Linear_8,2,5,63,98,1485246916
30,14,18,Jits_Linear_8,3,1,48,43,1485278528
30,14,18,Jits_Linear_8,0,5,63,98,1485616384
30,14,18,Jits_Linear_8,1,5,56,103,1485737312
30,14,18,Jits_Linear_8,2,5,80,127,1485767160
30,14,18,Jits_Linear_8,3,1,48,48,1485771924
30,14,18,Jits_Linear_8,0,5,80,127,1486146856
30,14,18,Jits_Linear_8,1,5,63,98,1486167468
30,14,18,Jits_Linear_8,2,5,56,103,1486237072
30,14,18,Jits_Linear_8,3,1,48,41,1486305920
30,14,18,Jits_Linear_8,0,5,63,98,1486656964
30,14,18,Jits_Linear_8,1,5,56,103,1486667236
30,14,18,Jits_Linear_8,2,5,80,127,1486746880
30,14,18,Jits_Linear_8,3,1,48,39,1486820964
30,14,18,Jits_Linear_8,0,5,56,103,1487206976
30,14,18,Jits_Linear_8,1,5,80,127,1487236432
30,14,18,Jits_Linear_8,2,5,63,98,1487247000
30,14,18,Jits_Linear_8,3,1,48,33,1487312316
30,14,18,Jits_Linear_8,0,9999,9999,9999,1376854140
30,14,18,Jits_Linear_8,1,9999,9999,9999,1377674352
30,14,18,Jits_Linear_8,2,9999,9999,9999,1378494556
30,14,18,Jits_Linear_8,3,9999,9999,9999,1379314784
30,14,18,Jits_Linear_8,4,9999,9999,9999,1380134988
30,14,18,Jits_Linear_8,5,9999,9999,9999,1380945008
30,14,18,Jits_Linear_8,6,9999,9999,9999,1381754944
30,14,18,Jits_Linear_8,7,9999,9999,9999,1382564976
30,14,18,Jits_Linear_8,8,9999,9999,9999,1383374952
30,14,18,Jits_Linear_8,9,9999,9999,9999,1384184956
30,14,18,Jits_Linear_8,10,9999,9999,9999,1384984656
30,14,18,Jits_Linear_8,11,9999,9999,9999,1385784408
30,14,18,Jits_Linear_8,12,9999,9999,9999,1386584168
30,14,18,Jits_Linear_8,13,9999,9999,9999,1387384888
30,14,18,Jits_Linear_8,14,9999,9999,9999,1388184704
30,14,18,Jits_Linear_8,15,9999,9999,9999,1388974184
30,14,18,Jits_Linear_8,16,9999,9999,9999,1389764704
30,14,18,Jits_Linear_8,17,9999,9999,9999,1390554220
30,14,18,Jits_Linear_8,18,9999,9999,9999,1391344764
30,14,18,Jits_Linear_8,19,9999,9999,9999,1392134260
30,14,18,Jits_Linear_8,20,9999,9999,9999,1392914532
30,14,18,Jits_Linear_8,21,9999,9999,9999,1393694800
30,14,18,Jits_Linear_8,22,9999,9999,9999,1394475068
30,14,18,Jits_Linear_8,23,9999,9999,9999,1395264632
30,14,18,Jits_Linear_8,24,9999,9999,9999,1396044900
30,14,18,Jits_Linear_8,25,9999,9999,9999,1396814960
30,14,18,Jits_Linear_8,26,9999,9999,9999,1397584968
30,14,18,Jits_Linear_8,27,9999,9999,9999,1398355052
30,14,18,Jits_Linear_8,28,9999,9999,9999,1399125076
30,14,18,Jits_Linear_8,29,9999,9999,9999,1399894096
30,14,18,Jits_Linear_8,30,9999,9999,9999,1400654960
30,14,18,Jits_Linear_8,31,9999,9999,9999,1401414780
30,14,18,Jits_Linear_8,32,9999,9999,9999,1402174524
30,14,18,Jits_Linear_8,33,9999,9999,9999,1402934352
30,14,18,Jits_Linear_8,34,9999,9999,9999,1403694188
30,14,18,Jits_Linear_8,35,9999,9999,9999,1404444728
30,14,18,Jits_Linear_8,36,9999,9999,9999,1405194296
30,14,18,Jits_Linear_8,37,9999,9999,9999,1405944916
30,14,18,Jits_Linear_8,38,9999,9999,9999,1406694484
30,14,18,Jits_Linear_8,39,9999,9999,9999,1407445108
30,14,18,Jits_Linear_8,40,9999,9999,9999,1408184388
30,14,18,Jits_Linear_8,41,9999,9999,9999,1408924728
30,14,18,Jits_Linear_8,42,9999,9999,9999,1409664092
30,14,18,Jits_Linear_8,43,9999,9999,9999,1410404424
30,14,18,Jits_Linear_8,44,9999,9999,9999,1411144820
30,14,18,Jits_Linear_8,45,9999,9999,9999,1411874900
30,14,18,Jits_Linear_8,46,9999,9999,9999,1412604996
30,14,18,Jits_Linear_8,47,9999,9999,9999,1413334108
30,14,18,Jits_Linear_8,48,9999,9999,9999,1414064252
30,14,18,Jits_Linear_8,49,9999,9999,9999,1414794344
30,14,18,Jits_Linear_8,50,9999,9999,9999,1415514236
30,14,18,Jits_Linear_8,51,9999,9999,9999,1416235096
30,14,18,Jits_Linear_8,52,9999,9999,9999,1416964204
30,14,18,Jits_Linear_8,53,9999,9999,9999,1417685072
30,14,18,Jits_Linear_8,54,9999,9999,9999,1418404932
30,14,18,Jits_Linear_8,55,9999,9999,9999,1419114576
30,14,18,Jits_Linear_8,56,9999,9999,9999,1419824200
30,14,18,Jits_Linear_8,57,9999,9999,9999,1420534872
30,14,18,Jits_Linear_8,58,9999,9999,9999,1421244476
30,14,18,Jits_Linear_8,59,9999,9999,9999,1421954176
30,14,18,Jits_Linear_8,60,9999,9999,9999,1422654524
30,14,18,Jits_Linear_8,61,9999,9999,9999,1423354952
30,14,18,Jits_Linear_8,62,9999,9999,9999,1424054376
30,14,18,Jits_Linear_8,63,9999,9999,9999,1424754776
30,14,18,Jits_Linear_8,64,9999,9999,9999,1425454144
30,14,18,Jits_Linear_8,65,9999,9999,9999,1426144372
30,14,18,Jits_Linear_8,66,9999,9999,9999,1426834516
30,14,18,Jits_Linear_8,67,9999,9999,9999,1427524668
30,14,18,Jits_Linear_8,68,9999,9999,9999,1428214880
30,14,18,Jits_Linear_8,69,9999,9999,9999,1428905020
30,14,18,Jits_Linear_8,70,9999,9999,9999,1429584984
30,14,18,Jits_Linear_8,71,9999,9999,9999,1430264952
30,14,18,Jits_Linear_8,72,9999,9999,9999,1430944884
30,14,18,Jits_Linear_8,73,9999,9999,9999,1431624784
30,14,18,Jits_Linear_8,74,9999,9999,9999,1432304764
30,14,18,Jits_Linear_8,75,9999,9999,9999,1432974440
30,14,18,Jits_Linear_8,76,9999,9999,9999,1433644148
30,14,18,Jits_Linear_8,77,9999,9999,9999,1434314832
30,14,18,Jits_Linear_8,78,9999,9999,9999,1434984568
30,14,18,Jits_Linear_8,79,9999,9999,9999,1435654204
30,14,18,Jits_Linear_8,80,9999,9999,9999,1436314732
30,14,18,Jits_Linear_8,81,9999,9999,9999,1436974164
30,14,18,Jits_Linear_8,82,9999,9999,9999,1437634616
30,14,18,Jits_Linear_8,83,9999,9999,9999,1438294108
30,14,18,Jits_Linear_8,84,9999,9999,9999,1438954580
30,14,18,Jits_Linear_8,85,9999,9999,9999,1439604792
30,14,18,Jits_Linear_8,86,9999,9999,9999,1440255080
30,14,18,Jits_Linear_8,87,9999,9999,9999,1440904296
30,14,18,Jits_Linear_8,88,9999,9999,9999,1441554508
30,14,18,Jits_Linear_8,89,9999,9999,9999,1442204780
30,14,18,Jits_Linear_8,90,9999,9999,9999,1442844740
30,14,18,Jits_Linear_8,91,9999,9999,9999,1443484736
30,14,18,Jits_Linear_8,92,9999,9999,9999,1444124780
30,14,18,Jits_Linear_8,93,9999,9999,9999,1444764776
30,14,18,Jits_Linear_8,94,9999,9999,9999,1445404728
30,14,18,Jits_Linear_8,95,9999,9999,9999,1446034540
30,14,18,Jits_Linear_8,96,9999,9999,9999,1446664316
30,14,18,Jits_Linear_8,97,9999,9999,9999,1447295100
30,14,18,Jits_Linear_8,98,9999,9999,9999,1447924808
30,14,18,Jits_Linear_8,99,9999,9999,9999,1448554552
30,14,18,Jits_Linear_8,100,9999,9999,9999,1449174116
30,14,18,Jits_Linear_8,101,9999,9999,9999,1449794636
30,14,18,Jits_Linear_8,102,9999,9999,9999,1450414176
30,14,18,Jits_Linear_8,103,9999,9999,9999,1451034720
30,14,18,Jits_Linear_8,104,9999,9999,9999,1451654208
30,14,18,Jits_Linear_8,105,9999,9999,9999,1452264500
30,14,18,Jits_Linear_8,106,9999,9999,9999,1452874828
30,14,18,Jits_Linear_8,107,9999,9999,9999,1453484092
30,14,18,Jits_Linear_8,108,9999,9999,9999,1454094452
30,14,18,Jits_Linear_8,109,9999,9999,9999,1454704708
30,14,18,Jits_Linear_8,110,9999,9999,9999,1455304816
30,14,18,Jits_Linear_8,111,9999,9999,9999,1455904888
30,14,18,Jits_Linear_8,112,9999,9999,9999,1456504892
30,14,18,Jits_Linear_8,113,9999,9999,9999,1457105000
30,14,18,Jits_Linear_8,114,9999,9999,9999,1457705084
30,14,18,Jits_Linear_8,115,9999,9999,9999,1458294892
30,14,18,Jits_Linear_8,116,9999,9999,9999,1458884716
30,14,18,Jits_Linear_8,117,9999,9999,9999,1459474492
30,14,18,Jits_Linear_8,118,9999,9999,9999,1460064320
30,14,18,Jits_Linear_8,119,9999,9999,9999,1460654136
30,14,18,Jits_Linear_8,120,9999,9999,9999,1461234760
30,14,18,Jits_Linear_8,121,9999,9999,9999,1461814380
30,14,18,Jits_Linear_8,122,9999,9999,9999,1462394964
30,14,18,Jits_Linear_8,123,9999,9999,9999,1462974572
30,14,18,Jits_Linear_8,124,9999,9999,9999,1463554140
30,14,18,Jits_Linear_8,125,9999,9999,9999,1464124536
30,14,18,Jits_Linear_8,126,9999,9999,9999,1464694860
30,14,18,Jits_Linear_8,127,9999,9999,9999,1465264216
30,14,18,Jits_Linear_8,128,9999,9999,9999,1465834572
30,14,18,Jits_Linear_8,129,9999,9999,9999,1466404972
30,14,18,Jits_Linear_8,130,9999,9999,9999,1466965044
30,14,18,Jits_Linear_8,131,9999,9999,9999,1467524212
30,14,18,Jits_Linear_8,132,9999,9999,9999,1468084284
30,14,18,Jits_Linear_8,133,9999,9999,9999,1468644456
30,14,18,Jits_Linear_8,134,9999,9999,9999,1469204592
30,14,18,Jits_Linear_8,135,9999,9999,9999,1469754456
30,14,18,Jits_Linear_8,136,9999,9999,9999,1470304332
30,14,18,Jits_Linear_8,137,9999,9999,9999,1470854220
30,14,18,Jits_Linear_8,138,9999,9999,9999,1471404108
30,14,18,Jits_Linear_8,139,9999,9999,9999,1471955072
30,14,18,Jits_Linear_8,140,9999,9999,9999,1472494684
30,14,18,Jits_Linear_8,141,9999,9999,9999,1473034296
30,14,18,Jits_Linear_8,142,9999,9999,9999,1473575036
30,14,18,Jits_Linear_8,143,9999,9999,9999,1474114648
30,14,18,Jits_Linear_8,144,9999,9999,9999,1474654268
30,14,18,Jits_Linear_8,145,9999,9999,9999,1475184744
30,14,18,Jits_Linear_8,146,9999,9999,9999,1475714104
30,14,18,Jits_Linear_8,147,9999,9999,9999,1476244568
30,14,18,Jits_Linear_8,148,9999,9999,9999,1476774968
30,14,18,Jits_Linear_8,149,9999,9999,9999,1477304388
30,14,18,Jits_Linear_8,150,9999,9999,9999,1477824592
30,14,18,Jits_Linear_8,151,9999,9999,9999,1478344828
30,14,18,Jits_Linear_8,152,9999,9999,9999,1478864976
30,14,18,Jits_Linear_8,153,9999,9999,9999,1479384188
30,14,18,Jits_Linear_8,154,9999,9999,9999,1479904324
30,14,18,Jits_Linear_8,155,9999,9999,9999,1480414272
30,14,18,Jits_Linear_8,156,9999,9999,9999,1480924232
30,14,18,Jits_Linear_8,157,9999,9999,9999,1481434172
30,14,18,Jits_Linear_8,158,9999,9999,9999,1481944120
30,14,18,Jits_Linear_8,159,9999,9999,9999,1482454072
30,14,18,Jits_Linear_8,160,9999,9999,9999,1482954820
30,14,18,Jits_Linear_8,161,9999,9999,9999,1483454548
30,14,18,Jits_Linear_8,162,9999,9999,9999,1483954232
30,14,18,Jits_Linear_8,163,9999,9999,9999,1484454964
30,14,18,Jits_Linear_8,164,9999,9999,9999,1484954716
30,14,18,Jits_Linear_8,165,9999,9999,9999,1485444208
30,14,18,Jits_Linear_8,166,9999,9999,9999,1485934684
30,14,18,Jits_Linear_8,167,9999,9999,9999,1486424176
30,14,18,Jits_Linear_8,168,9999,9999,9999,1486914672
30,14,18,Jits_Linear_8,169,9999,9999,9999,1487404156
30,15,17,Jits_Phase_5,0,5,56,103,1497101600
30,15,17,Jits_Phase_5,1,5,63,98,1497104700
30,15,17,Jits_Phase_5,2,5,80,127,1497107972
30,15,17,Jits_Phase_5,0,5,56,103,1497602512
30,15,17,Jits_Phase_5,1,5,63,98,1497605684
30,15,17,Jits_Phase_5,2,5,80,127,1497608732
30,15,17,Jits_Phase_5,0,5,56,103,1498102232
30,15,17,Jits_Phase_5,1,5,80,127,1498112504
30,15,17,Jits_Phase_5,2,5,63,98,1498131916
30,15,17,Jits_Phase_5,3,1,48,36,1498138248
30,15,17,Jits_Phase_5,0,5,63,98,1498551632
30,15,17,Jits_Phase_5,1,5,80,127,1498582456
30,15,17,Jits_Phase_5,2,5,56,103,1498591528
30,15,17,Jits_Phase_5,3,1,48,40,1498624532
30,15,17,Jits_Phase_5,0,1,48,39,1499085752
30,15,17,Jits_Phase_5,1,5,80,127,1499111784
30,15,17,Jits_Phase_5,2,5,56,103,1499121980
30,15,17,Jits_Phase_5,3,5,63,98,1499151656
30,15,17,Jits_Phase_5,0,5,63,98,1499611548
30,15,17,Jits_Phase_5,1,1,48,29,1499623204
30,15,17,Jits_Phase_5,2,5,56,103,1499642408
30,15,17,Jits_Phase_5,3,5,80,127,1499651484
30,15,17,Jits_Phase_5,0,5,56,103,1500062200
30,15,17,Jits_Phase_5,1,5,63,98,1500112204
30,15,17,Jits_Phase_5,2,1,48,33,1500113168
30,15,17,Jits_Phase_5,3,5,80,127,1500131680
30,15,17,Jits_Phase_5,0,5,80,127,1500561816
30,15,17,Jits_Phase_5,1,1,48,32,1500578412
30,15,17,Jits_Phase_5,2,5,63,98,1500612256
30,15,17,Jits_Phase_5,3,5,56,103,1500651896
30,15,17,Jits_Phase_5,0,5,56,103,1501061424
30,15,17,Jits_Phase_5,1,1,48,42,1501075628
30,15,17,Jits_Phase_5,2,5,63,98,1501092140
30,15,17,Jits_Phase_5,3,5,80,127,1501161840
30,15,17,Jits_Phase_5,0,5,56,103,1501562456
30,15,17,Jits_Phase_5,1,1,48,38,1501599280
30,15,17,Jits_Phase_5,2,5,80,127,1501621716
30,15,17,Jits_Phase_5,3,5,63,98,1501652464
30,15,17,Jits_Phase_5,0,5,56,103,1502072332
30,15,17,Jits_Phase_5,1,5,63,98,1502082384
30,15,17,Jits_Phase_5,2,1,48,40,1502098532
30,15,17,Jits_Phase_5,3,5,80,127,1502122312
30,15,17,Jits_Phase_5,0,5,63,98,1502561616
30,15,17,Jits_Phase_5,1,1,48,40,1502566300
30,15,17,Jits_Phase_5,2,5,80,127,1502641476
30,15,17,Jits_Phase_5,3,5,56,103,1502651896
30,15,17,Jits_Phase_5,0,1,48,41,1503096840
30,15,17,Jits_Phase_5,1,5,63,98,1503111480
30,15,17,Jits_Phase_5,2,5,56,103,1503151492
30,15,17,Jits_Phase_5,3,5,80,127,1503154632
30,15,17,Jits_Phase_5,0,5,56,103,1503581564
30,15,17,Jits_Phase_5,1,5,63,98,1503591760
30,15,17,Jits_Phase_5,2,1,48,40,1503595852
30,15,17,Jits_Phase_5,3,5,80,127,1503631616
30,15,17,Jits_Phase_5,0,1,48,34,1504061368
30,15,17,Jits_Phase_5,1,5,56,103,1504072252
30,15,17,Jits_Phase_5,2,5,63,98,1504075316
30,15,17,Jits_Phase_5,3,5,80,127,1504091364
30,15,17,Jits_Phase_5,0,1,48,39,1504538312
30,15,17,Jits_Phase_5,1,5,80,127,1504582104
30,15,17,Jits_Phase_5,2,5,56,103,1504592224
30,15,17,Jits_Phase_5,3,5,63,98,1504661812
30,15,17,Jits_Phase_5,0,5,63,98,1505071444
30,15,17,Jits_Phase_5,1,1,48,44,1505081908
30,15,17,Jits_Phase_5,2,5,56,103,1505091896
30,15,17,Jits_Phase_5,3,5,80,127,1505171836
30,15,17,Jits_Phase_5,0,1,48,40,1505565460
30,15,17,Jits_Phase_5,1,5,56,103,1505581304
30,15,17,Jits_Phase_5,2,5,80,127,1505622512
30,15,17,Jits_Phase_5,3,5,63,98,1505631588
30,15,17,Jits_Phase_5,0,5,80,127,1506072064
30,15,17,Jits_Phase_5,1,1,48,38,1506080964
30,15,17,Jits_Phase_5,2,5,63,98,1506101660
30,15,17,Jits_Phase_5,3,5,56,103,1506141524
30,15,17,Jits_Phase_5,0,1,48,37,1506573596
30,15,17,Jits_Phase_5,1,5,56,103,1506592200
30,15,17,Jits_Phase_5,2,5,63,98,1506621952
30,15,17,Jits_Phase_5,3,5,80,127,1506671928
30,15,17,Jits_Phase_5,0,1,48,38,1507076864
30,15,17,Jits_Phase_5,1,5,80,127,1507091956
30,15,17,Jits_Phase_5,2,5,56,103,1507131968
30,15,17,Jits_Phase_5,3,5,63,98,1507142236
30,15,17,Jits_Phase_5,0,5,80,127,1507572012
30,15,17,Jits_Phase_5,1,1,48,36,1507604944
30,15,17,Jits_Phase_5,2,5,63,98,1507611944
30,15,17,Jits_Phase_5,3,5,56,103,1507672476
30,15,17,Jits_Phase_5,0,5,56,103,1508071996
30,15,17,Jits_Phase_5,1,5,80,127,1508082196
30,15,17,Jits_Phase_5,2,1,48,39,1508095872
30,15,17,Jits_Phase_5,3,5,63,98,1508162128
30,15,17,Jits_Phase_5,0,5,80,127,1508571616
30,15,17,Jits_Phase_5,1,1,48,43,1508599520
30,15,17,Jits_Phase_5,2,5,63,98,1508631996
30,15,17,Jits_Phase_5,3,5,56,103,1508661672
30,15,17,Jits_Phase_5,0,5,56,103,1509072200
30,15,17,Jits_Phase_5,1,1,48,40,1509129876
30,15,17,Jits_Phase_5,2,5,80,127,1509131536
30,15,17,Jits_Phase_5,3,5,63,98,1509171696
30,15,17,Jits_Phase_5,0,1,48,41,1509608564
30,15,17,Jits_Phase_5,1,5,56,103,1509622232
30,15,17,Jits_Phase_5,2,5,63,98,1509632500
30,15,17,Jits_Phase_5,3,5,80,127,1509635788
30,15,17,Jits_Phase_5,0,5,80,127,1510071756
30,15,17,Jits_Phase_5,1,1,48,31,1510118944
30,15,17,Jits_Phase_5,2,5,63,98,1510161908
30,15,17,Jits_Phase_5,3,5,56,103,1510172032
30,15,17,Jits_Phase_5,0,5,56,103,1510572408
30,15,17,Jits_Phase_5,1,5,63,98,1510575356
30,15,17,Jits_Phase_5,2,5,80,127,1510578556
30,15,17,Jits_Phase_5,3,1,48,33,1510631228
30,15,17,Jits_Phase_5,0,1,48,33,1511096848
30,15,17,Jits_Phase_5,1,5,80,127,1511101900
30,15,17,Jits_Phase_5,2,5,63,98,1511152052
30,15,17,Jits_Phase_5,3,5,56,103,1511181800
30,15,17,Jits_Phase_5,0,5,56,103,1511582100
30,15,17,Jits_Phase_5,1,5,80,127,1511592296
30,15,17,Jits_Phase_5,2,1,48,41,1511626828
30,15,17,Jits_Phase_5,3,5,63,98,1511661916
30,15,17,Jits_Phase_5,0,5,56,103,1512092128
30,15,17,Jits_Phase_5,1,5,63,98,1512111464
30,15,17,Jits_Phase_5,2,1,48,37,1512122676
30,15,17,Jits_Phase_5,3,5,80,127,1512171944
30,15,17,Jits_Phase_5,0,5,80,127,1512572188
30,15,17,Jits_Phase_5,1,1,48,38,1512614560
30,15,17,Jits_Phase_5,2,5,63,98,1512641936
30,15,17,Jits_Phase_5,3,5,56,103,1512662320
30,15,17,Jits_Phase_5,0,5,80,127,1513091480
30,15,17,Jits_Phase_5,1,5,56,103,1513101972
30,15,17,Jits_Phase_5,2,5,63,98,1513111872
30,15,17,Jits_Phase_5,3,1,48,39,1513131848
30,15,17,Jits_Phase_5,0,5,80,127,1513581800
30,15,17,Jits_Phase_5,1,1,48,35,1513598692
30,15,17,Jits_Phase_5,2,5,56,103,1513602772
30,15,17,Jits_Phase_5,3,5,63,98,1513672028
30,15,17,Jits_Phase_5,0,5,56,103,1514092052
30,15,17,Jits_Phase_5,1,5,80,127,1514121872
30,15,17,Jits_Phase_5,2,1,48,42,1514138920
30,15,17,Jits_Phase_5,3,5,63,98,1514142028
30,15,17,Jits_Phase_5,0,5,63,98,1514582376
30,15,17,Jits_Phase_5,1,1,48,49,1514634492
30,15,17,Jits_Phase_5,2,5,56,103,1514641636
30,15,17,Jits_Phase_5,3,5,80,127,1514671756
30,15,17,Jits_Phase_5,0,5,63,98,1515071936
30,15,17,Jits_Phase_5,1,5,80,127,1515075224
30,15,17,Jits_Phase_5,2,1,48,36,1515141880
30,15,17,Jits_Phase_5,3,5,56,103,1515162056
30,15,17,Jits_Phase_5,0,5,56,103,1515592128
30,15,17,Jits_Phase_5,1,5,63,98,1515621880
30,15,17,Jits_Phase_5,2,1,48,39,1515639524
30,15,17,Jits_Phase_5,3,5,80,127,1515661884
30,15,17,Jits_Phase_5,0,5,63,98,1516091820
30,15,17,Jits_Phase_5,1,5,56,103,1516131684
30,15,17,Jits_Phase_5,2,1,48,30,1516133020
30,15,17,Jits_Phase_5,3,5,80,127,1516152208
30,15,17,Jits_Phase_5,0,5,63,98,1516601836
30,15,17,Jits_Phase_5,1,1,48,33,1516631484
30,15,17,Jits_Phase_5,2,5,56,103,1516641768
30,15,17,Jits_Phase_5,3,5,80,127,1516651964
30,15,17,Jits_Phase_5,0,5,80,127,1517082108
30,15,17,Jits_Phase_5,1,1,48,36,1517127176
30,15,17,Jits_Phase_5,2,5,63,98,1517151632
30,15,17,Jits_Phase_5,3,5,56,103,1517172016
30,15,17,Jits_Phase_5,0,5,56,103,1517571760
30,15,17,Jits_Phase_5,1,5,80,127,1517591924
30,15,17,Jits_Phase_5,2,5,63,98,1517631712
30,15,17,Jits_Phase_5,3,1,48,37,1517653484
30,15,17,Jits_Phase_5,0,5,63,98,1518082532
30,15,17,Jits_Phase_5,1,5,80,127,1518101796
30,15,17,Jits_Phase_5,2,1,48,35,1518112260
30,15,17,Jits_Phase_5,3,5,56,103,1518141800
30,15,17,Jits_Phase_5,0,5,63,98,1518581984
30,15,17,Jits_Phase_5,1,1,48,40,1518583996
30,15,17,Jits_Phase_5,2,5,56,103,1518601612
30,15,17,Jits_Phase_5,3,5,80,127,1518611880
30,15,17,Jits_Phase_5,0,5,80,127,1519081880
30,15,17,Jits_Phase_5,1,5,56,103,1519102340
30,15,17,Jits_Phase_5,2,1,48,39,1519103676
30,15,17,Jits_Phase_5,3,5,63,98,1519132080
30,15,17,Jits_Phase_5,0,1,48,42,1519607152
30,15,17,Jits_Phase_5,1,5,56,103,1519652132
30,15,17,Jits_Phase_5,2,5,80,127,1519655200
30,15,17,Jits_Phase_5,3,5,63,98,1519671768
30,15,17,Jits_Phase_5,0,5,63,98,1520072028
30,15,17,Jits_Phase_5,1,5,56,103,1520101700
30,15,17,Jits_Phase_5,2,1,48,37,1520116576
30,15,17,Jits_Phase_5,3,5,80,127,1520162452
30,15,17,Jits_Phase_5,0,1,48,35,1520582084
30,15,17,Jits_Phase_5,1,5,63,98,1520651484
30,15,17,Jits_Phase_5,2,5,56,103,1520661980
30,15,17,Jits_Phase_5,3,5,80,127,1520672320
30,15,17,Jits_Phase_5,0,5,56,103,1521112508
30,15,17,Jits_Phase_5,1,1,48,29,1521136524
30,15,17,Jits_Phase_5,2,5,80,127,1521142176
30,15,17,Jits_Phase_5,3,5,63,98,1521152596
30,15,17,Jits_Phase_5,0,5,63,98,1521652208
30,15,17,Jits_Phase_5,1,1,48,38,1521655696
30,15,17,Jits_Phase_5,2,5,56,103,1521662324
30,15,17,Jits_Phase_5,3,5,80,127,1521681808
30,15,17,Jits_Phase_5,0,5,56,103,1522082336
30,15,17,Jits_Phase_5,1,5,63,98,1522141476
30,15,17,Jits_Phase_5,2,5,80,127,1522144768
30,15,17,Jits_Phase_5,3,1,48,36,1522208040
30,15,17,Jits_Phase_5,0,5,80,127,1522602316
30,15,17,Jits_Phase_5,1,5,56,103,1522611468
30,15,17,Jits_Phase_5,2,5,63,98,1522682436
30,15,17,Jits_Phase_5,3,1,48,36,1522687056
30,15,17,Jits_Phase_5,0,5,80,127,1523091888
30,15,17,Jits_Phase_5,1,1,48,30,1523160312
30,15,17,Jits_Phase_5,2,5,56,103,1523162108
30,15,17,Jits_Phase_5,3,5,63,98,1523171708
30,15,17,Jits_Phase_5,0,5,63,98,1523631440
30,15,17,Jits_Phase_5,1,5,56,103,1523641708
30,15,17,Jits_Phase_5,2,5,80,127,1523662412
30,15,17,Jits_Phase_5,3,1,48,38,1523695568
30,15,17,Jits_Phase_5,0,5,80,127,1524081892
30,15,17,Jits_Phase_5,1,5,63,98,1524141532
30,15,17,Jits_Phase_5,2,5,56,103,1524182316
30,15,17,Jits_Phase_5,3,1,48,33,1524183208
30,15,17,Jits_Phase_5,0,5,56,103,1524621812
30,15,17,Jits_Phase_5,1,5,63,98,1524631860
30,15,17,Jits_Phase_5,2,5,80,127,1524671720
30,15,17,Jits_Phase_5,3,1,48,35,1524675836
30,15,17,Jits_Phase_5,0,5,56,103,1525081496
30,15,17,Jits_Phase_5,1,5,80,127,1525112144
30,15,17,Jits_Phase_5,2,5,63,98,1525162268
30,15,17,Jits_Phase_5,3,1,48,31,1525165312
30,15,17,Jits_Phase_5,0,5,56,103,1525622388
30,15,17,Jits_Phase_5,1,5,63,98,1525662024
30,15,17,Jits_Phase_5,2,5,80,127,1525665612
30,15,17,Jits_Phase_5,3,1,48,37,1525668212
30,15,17,Jits_Phase_5,0,5,56,103,1526121700
30,15,17,Jits_Phase_5,1,5,63,98,1526132268
30,15,17,Jits_Phase_5,2,5,80,127,1526151604
30,15,17,Jits_Phase_5,3,1,48,29,1526201996
30,15,17,Jits_Phase_5,0,5,56,103,1526581604
30,15,17,Jits_Phase_5,1,5,80,127,1526584596
30,15,17,Jits_Phase_5,2,5,63,98,1526621464
30,15,17,Jits_Phase_5,3,1,48,19,1526656268
30,15,17,Jits_Phase_5,0,1,48,29,1527099908
30,15,17,Jits_Phase_5,1,5,63,98,1527122476
30,15,17,Jits_Phase_5,2,5,56,103,1527152224
30,15,17,Jits_Phase_5,3,5,80,127,1527171488
30,15,17,Jits_Phase_5,0,5,80,127,1527592196
30,15,17,Jits_Phase_5,1,5,56,103,1527601568
30,15,17,Jits_Phase_5,2,5,63,98,1527611688
30,15,17,Jits_Phase_5,3,1,48,37,1527619220
30,15,17,Jits_Phase_5,0,5,56,103,1528092180
30,15,17,Jits_Phase_5,1,1,48,39,1528119188
30,15,17,Jits_Phase_5,2,5,80,127,1528132112
30,15,17,Jits_Phase_5,3,5,63,98,1528161784
30,15,17,Jits_Phase_5,0,5,63,98,1528602060
30,15,17,Jits_Phase_5,1,5,80,127,1528612108
30,15,17,Jits_Phase_5,2,5,56,103,1528621404
30,15,17,Jits_Phase_5,3,1,48,42,1528661012
30,15,17,Jits_Phase_5,0,5,56,103,1529091468
30,15,17,Jits_Phase_5,1,1,48,34,1529156988
30,15,17,Jits_Phase_5,2,5,63,98,1529162040
30,15,17,Jits_Phase_5,3,5,80,127,1529172308
30,15,17,Jits_Phase_5,0,5,80,127,1529602320
30,15,17,Jits_Phase_5,1,5,56,103,1529611764
30,15,17,Jits_Phase_5,2,1,48,33,1529641484
30,15,17,Jits_Phase_5,3,5,63,98,1529662032
30,15,17,Jits_Phase_5,0,5,80,127,1530112416
30,15,17,Jits_Phase_5,1,1,48,40,1530127068
30,15,17,Jits_Phase_5,2,5,56,103,1530171900
30,15,17,Jits_Phase_5,3,5,63,98,1530201500
30,15,17,Jits_Phase_5,0,5,56,103,1530612104
30,15,17,Jits_Phase_5,1,5,80,127,1530615168
30,15,17,Jits_Phase_5,2,5,63,98,1530652188
30,15,17,Jits_Phase_5,3,1,48,43,1530655232
30,15,17,Jits_Phase_5,0,5,56,103,1531141452
30,15,17,Jits_Phase_5,1,1,48,42,1531145320
30,15,17,Jits_Phase_5,2,5,63,98,1531172092
30,15,17,Jits_Phase_5,3,5,80,127,1531181464
30,15,17,Jits_Phase_5,0,1,48,44,1531647396
30,15,17,Jits_Phase_5,1,5,63,98,1531651476
30,15,17,Jits_Phase_5,2,5,80,127,1531661748
30,15,17,Jits_Phase_5,3,5,56,103,1531671868
30,15,17,Jits_Phase_5,0,5,80,127,1532101936
30,15,17,Jits_Phase_5,1,5,56,103,1532152056
30,15,17,Jits_Phase_5,2,5,63,98,1532155128
30,15,17,Jits_Phase_5,3,1,48,41,1532190096
30,15,17,Jits_Phase_5,0,5,56,103,1532632556
30,15,17,Jits_Phase_5,1,5,80,127,1532651820
30,15,17,Jits_Phase_5,2,1,48,43,1532658452
30,15,17,Jits_Phase_5,3,5,63,98,1532662160
30,15,17,Jits_Phase_5,0,5,63,98,1533111920
30,15,17,Jits_Phase_5,1,1,48,38,1533135968
30,15,17,Jits_Phase_5,2,5,56,103,1533142288
30,15,17,Jits_Phase_5,3,5,80,127,1533161996
30,15,17,Jits_Phase_5,0,5,56,103,1533621488
30,15,17,Jits_Phase_5,1,5,80,127,1533631832
30,15,17,Jits_Phase_5,2,1,48,43,1533643664
30,15,17,Jits_Phase_5,3,5,63,98,1533701600
30,15,17,Jits_Phase_5,0,5,63,98,1534112184
30,15,17,Jits_Phase_5,1,1,48,44,1534135380
30,15,17,Jits_Phase_5,2,5,80,127,1534151988
30,15,17,Jits_Phase_5,3,5,56,103,1534191924
30,15,17,Jits_Phase_5,0,1,48,38,1534611376
30,15,17,Jits_Phase_5,1,5,56,103,1534622040
30,15,17,Jits_Phase_5,2,5,63,98,1534632236
30,15,17,Jits_Phase_5,3,5,80,127,1534652020
30,15,17,Jits_Phase_5,0,1,48,44,1535141924
30,15,17,Jits_Phase_5,1,5,63,98,1535161872
30,15,17,Jits_Phase_5,2,5,80,127,1535182060
30,15,17,Jits_Phase_5,3,5,56,103,1535201840
30,15,17,Jits_Phase_5,0,5,56,103,1535601924
30,15,17,Jits_Phase_5,1,5,80,127,1535681892
30,15,17,Jits_Phase_5,2,1,48,44,1535684484
30,15,17,Jits_Phase_5,3,5,63,98,1535692080
30,15,17,Jits_Phase_5,0,5,80,127,1536141772
30,15,17,Jits_Phase_5,1,5,63,98,1536151892
30,15,17,Jits_Phase_5,2,1,48,44,1536161836
30,15,17,Jits_Phase_5,3,5,56,103,1536181708
30,15,17,Jits_Phase_5,0,5,63,98,1536601604
30,15,17,Jits_Phase_5,1,1,48,41,1536639252
30,15,17,Jits_Phase_5,2,5,80,127,1536642508
30,15,17,Jits_Phase_5,3,5,56,103,1536701848
30,15,17,Jits_Phase_5,0,5,63,98,1537112364
30,15,17,Jits_Phase_5,1,1,48,40,1537129876
30,15,17,Jits_Phase_5,2,5,56,103,1537161808
30,15,17,Jits_Phase_5,3,5,80,127,1537192232
30,15,17,Jits_Phase_5,0,5,80,127,1537612116
30,15,17,Jits_Phase_5,1,5,63,98,1537622384
30,15,17,Jits_Phase_5,2,1,48,40,1537626024
30,15,17,Jits_Phase_5,3,5,56,103,1537691980
30,15,17,Jits_Phase_5,0,1,48,42,1538140548
30,15,17,Jits_Phase_5,1,5,80,127,1538172184
30,15,17,Jits_Phase_5,2,5,56,103,1538181704
30,15,17,Jits_Phase_5,3,5,63,98,1538184844
30,15,17,Jits_Phase_5,0,5,56,103,1538611700
30,15,17,Jits_Phase_5,1,5,80,127,1538632012
30,15,17,Jits_Phase_5,2,5,63,98,1538642280
30,15,17,Jits_Phase_5,3,1,48,42,1538660540
30,15,17,Jits_Phase_5,0,1,48,37,1539120224
30,15,17,Jits_Phase_5,1,5,63,98,1539122016
30,15,17,Jits_Phase_5,2,5,56,103,1539161660
30,15,17,Jits_Phase_5,3,5,80,127,1539181968
30,15,17,Jits_Phase_5,0,1,48,39,1539618812
30,15,17,Jits_Phase_5,1,5,63,98,1539622224
30,15,17,Jits_Phase_5,2,5,56,103,1539681788
30,15,17,Jits_Phase_5,3,5,80,127,1539684852
30,15,17,Jits_Phase_5,0,5,56,103,1540081968
30,15,17,Jits_Phase_5,1,5,80,127,1540101676
30,15,17,Jits_Phase_5,2,1,48,41,1540123976
30,15,17,Jits_Phase_5,3,5,63,98,1540141532
30,15,17,Jits_Phase_5,0,5,56,103,1540611620
30,15,17,Jits_Phase_5,1,1,48,32,1540616836
30,15,17,Jits_Phase_5,2,5,63,98,1540631924
30,15,17,Jits_Phase_5,3,5,80,127,1540642044
30,15,17,Jits_Phase_5,0,5,80,127,1541081416
30,15,17,Jits_Phase_5,1,5,56,103,1541112436
30,15,17,Jits_Phase_5,2,1,48,38,1541146044
30,15,17,Jits_Phase_5,3,5,63,98,1541151992
30,15,17,Jits_Phase_5,0,5,80,127,1541592416
30,15,17,Jits_Phase_5,1,5,56,103,1541611828
30,15,17,Jits_Phase_5,2,1,48,38,1541637268
30,15,17,Jits_Phase_5,3,5,63,98,1541672504
30,15,17,Jits_Phase_5,0,5,56,103,1542102664
30,15,17,Jits_Phase_5,1,1,48,39,1542120264
30,15,17,Jits_Phase_5,2,5,80,127,1542122068
30,15,17,Jits_Phase_5,3,5,63,98,1542182236
30,15,17,Jits_Phase_5,0,5,80,127,1542581580
30,15,17,Jits_Phase_5,1,5,56,103,1542592172
30,15,17,Jits_Phase_5,2,1,48,37,1542620324
30,15,17,Jits_Phase_5,3,5,63,98,1542631804
30,15,17,Jits_Phase_5,0,5,63,98,1543082460
30,15,17,Jits_Phase_5,1,1,48,33,1543119912
30,15,17,Jits_Phase_5,2,5,56,103,1543122416
30,15,17,Jits_Phase_5,3,5,80,127,1543125704
30,15,17,Jits_Phase_5,0,5,63,98,1543601600
30,15,17,Jits_Phase_5,1,1,48,40,1543607416
30,15,17,Jits_Phase_5,2,5,80,127,1543641556
30,15,17,Jits_Phase_5,3,5,56,103,1543672128
30,15,17,Jits_Phase_5,0,5,56,103,1544091988
30,15,17,Jits_Phase_5,1,5,63,98,1544102332
30,15,17,Jits_Phase_5,2,1,48,40,1544110776
30,15,17,Jits_Phase_5,3,5,80,127,1544131948
30,15,17,Jits_Phase_5,0,5,80,127,1544581476
30,15,17,Jits_Phase_5,1,1,48,35,1544604072
30,15,17,Jits_Phase_5,2,5,63,98,1544652296
30,15,17,Jits_Phase_5,3,5,56,103,1544662564
30,15,17,Jits_Phase_5,0,5,63,98,1545082212
30,15,17,Jits_Phase_5,1,1,48,34,1545103392
30,15,17,Jits_Phase_5,2,5,56,103,1545151988
30,15,17,Jits_Phase_5,3,5,80,127,1545162108
30,15,17,Jits_Phase_5,0,5,63,98,1545561440
30,15,17,Jits_Phase_5,1,5,56,103,1545581824
30,15,17,Jits_Phase_5,2,1,48,36,1545595352
30,15,17,Jits_Phase_5,3,5,80,127,1545621828
30,15,17,Jits_Phase_5,0,5,56,103,1546041712
30,15,17,Jits_Phase_5,1,5,63,98,1546051908
30,15,17,Jits_Phase_5,2,1,48,35,1546085064
30,15,17,Jits_Phase_5,3,5,80,127,1546131840
30,15,17,Jits_Phase_5,0,5,63,98,1546532408
30,15,17,Jits_Phase_5,1,5,56,103,1546561856
30,15,17,Jits_Phase_5,2,1,48,36,1546574640
30,15,17,Jits_Phase_5,3,5,80,127,1546601788
30,15,17,Jits_Phase_5,0,5,56,103,1547031856
30,15,17,Jits_Phase_5,1,1,48,34,1547053408
30,15,17,Jits_Phase_5,2,5,63,98,1547071788
30,15,17,Jits_Phase_5,3,5,80,127,1547111872
30,15,17,Jits_Phase_5,0,1,48,30,1547496596
30,15,17,Jits_Phase_5,1,5,80,127,1547531612
30,15,17,Jits_Phase_5,2,5,56,103,1547611468
30,15,17,Jits_Phase_5,3,5,63,98,1547621888
30,15,17,Jits_Phase_5,0,1,48,38,1548040784
30,15,17,Jits_Phase_5,1,5,56,103,1548072420
30,15,17,Jits_Phase_5,2,5,63,98,1548075484
30,15,17,Jits_Phase_5,3,5,80,127,1548081492
30,15,17,Jits_Phase_5,0,1,48,38,1548549296
30,15,17,Jits_Phase_5,1,5,56,103,1548591568
30,15,17,Jits_Phase_5,2,5,63,98,1548612028
30,15,17,Jits_Phase_5,3,5,80,127,1548622296
30,15,17,Jits_Phase_5,0,1,48,40,1549036676
30,15,17,Jits_Phase_5,1,5,63,98,1549052360
30,15,17,Jits_Phase_5,2,5,80,127,1549061436
30,15,17,Jits_Phase_5,3,5,56,103,1549081968
30,15,17,Jits_Phase_5,0,5,63,98,1549552116
30,15,17,Jits_Phase_5,1,1,48,42,1549561312
30,15,17,Jits_Phase_5,2,5,56,103,1549631828
30,15,17,Jits_Phase_5,3,5,80,127,1549635116
30,15,17,Jits_Phase_5,0,5,63,98,1550051564
30,15,17,Jits_Phase_5,1,5,56,103,1550072320
30,15,17,Jits_Phase_5,2,1,48,42,1550077308
30,15,17,Jits_Phase_5,3,5,80,127,1550101988
30,15,17,Jits_Phase_5,0,5,56,103,1550552288
30,15,17,Jits_Phase_5,1,5,63,98,1550571772
30,15,17,Jits_Phase_5,2,5,80,127,1550582264
30,15,17,Jits_Phase_5,3,1,48,32,1550601196
30,15,17,Jits_Phase_5,0,1,48,38,1551071196
30,15,17,Jits_Phase_5,1,5,56,103,1551082008
30,15,17,Jits_Phase_5,2,5,63,98,1551111532
30,15,17,Jits_Phase_5,3,5,80,127,1551114896
30,15,17,Jits_Phase_5,0,5,56,103,1551532288
30,15,17,Jits_Phase_5,1,1,48,35,1551563304
30,15,17,Jits_Phase_5,2,5,63,98,1551572320
30,15,17,Jits_Phase_5,3,5,80,127,1551631584
30,15,17,Jits_Phase_5,0,1,48,35,1552057492
30,15,17,Jits_Phase_5,1,5,56,103,1552061792
30,15,17,Jits_Phase_5,2,5,63,98,1552072088
30,15,17,Jits_Phase_5,3,5,80,127,1552131428
30,15,17,Jits_Phase_5,0,5,56,103,1552561400
30,15,17,Jits_Phase_5,1,1,48,37,1552575400
30,15,17,Jits_Phase_5,2,5,80,127,1552582100
30,15,17,Jits_Phase_5,3,5,63,98,1552611772
30,15,17,Jits_Phase_5,0,5,80,127,1553062284
30,15,17,Jits_Phase_5,1,5,56,103,1553071360
30,15,17,Jits_Phase_5,2,5,63,98,1553092140
30,15,17,Jits_Phase_5,3,1,48,36,1553104548
30,15,17,Jits_Phase_5,0,5,63,98,1553551852
30,15,17,Jits_Phase_5,1,1,48,44,1553583964
30,15,17,Jits_Phase_5,2,5,80,127,1553631812
30,15,17,Jits_Phase_5,3,5,56,103,1553641936
30,15,17,Jits_Phase_5,0,1,48,39,1554068868
30,15,17,Jits_Phase_5,1,5,80,127,1554141452
30,15,17,Jits_Phase_5,2,5,56,103,1554162136
30,15,17,Jits_Phase_5,3,5,63,98,1554165200
30,15,17,Jits_Phase_5,0,1,48,42,1554618132
30,15,17,Jits_Phase_5,1,5,63,98,1554642160
30,15,17,Jits_Phase_5,2,5,80,127,1554645532
30,15,17,Jits_Phase_5,3,5,56,103,1554701880
30,15,17,Jits_Phase_5,0,5,56,103,1555121516
30,15,17,Jits_Phase_5,1,5,80,127,1555131860
30,15,17,Jits_Phase_5,2,1,48,38,1555166012
30,15,17,Jits_Phase_5,3,5,63,98,1555171812
30,15,17,Jits_Phase_5,0,5,56,103,1555602020
30,15,17,Jits_Phase_5,1,1,48,37,1555659176
30,15,17,Jits_Phase_5,2,5,63,98,1555662208
30,15,17,Jits_Phase_5,3,5,80,127,1555672400
30,15,17,Jits_Phase_5,0,5,63,98,1556111820
30,15,17,Jits_Phase_5,1,1,48,38,1556129840
30,15,17,Jits_Phase_5,2,5,80,127,1556151824
30,15,17,Jits_Phase_5,3,5,56,103,1556191860
30,15,17,Jits_Phase_5,0,5,56,103,1556611424
30,15,17,Jits_Phase_5,1,1,48,35,1556668476
30,15,17,Jits_Phase_5,2,5,63,98,1556692200
30,15,17,Jits_Phase_5,3,5,80,127,1556695568
30,15,17,Jits_Phase_5,0,5,80,127,1557171860
30,15,17,Jits_Phase_5,1,1,48,40,1557202380
30,15,17,Jits_Phase_5,2,5,56,103,1557203964
30,15,17,Jits_Phase_5,3,5,63,98,1557206784
30,15,17,Jits_Phase_5,0,5,56,103,1557632364
30,15,17,Jits_Phase_5,1,5,80,127,1557651924
30,15,17,Jits_Phase_5,2,5,63,98,1557691932
30,15,17,Jits_Phase_5,3,1,48,35,1557717248
30,15,17,Jits_Phase_5,0,5,80,127,1558111820
30,15,17,Jits_Phase_5,1,5,63,98,1558132056
30,15,17,Jits_Phase_5,2,5,56,103,1558191472
30,15,17,Jits_Phase_5,3,1,48,33,1558203056
30,15,17,Jits_Phase_5,0,5,63,98,1558631744
30,15,17,Jits_Phase_5,1,5,56,103,1558641940
30,15,17,Jits_Phase_5,2,5,80,127,1558692136
30,15,17,Jits_Phase_5,3,1,48,31,1558701776
30,15,17,Jits_Phase_5,0,5,56,103,1559122272
30,15,17,Jits_Phase_5,1,5,63,98,1559141984
30,15,17,Jits_Phase_5,2,5,80,127,1559151884
30,15,17,Jits_Phase_5,3,1,48,33,1559177844
30,15,17,Jits_Phase_5,0,5,56,103,1559611696
30,15,17,Jits_Phase_5,1,5,63,98,1559614760
30,15,17,Jits_Phase_5,2,5,80,127,1559632376
30,15,17,Jits_Phase_5,3,1,48,39,1559672208
30,15,17,Jits_Phase_5,0,1,48,38,1560139052
30,15,17,Jits_Phase_5,1,5,63,98,1560152644
30,15,17,Jits_Phase_5,2,5,56,103,1560182096
30,15,17,Jits_Phase_5,3,5,80,127,1560211696
30,15,17,Jits_Phase_5,0,5,80,127,1560612248
30,15,17,Jits_Phase_5,1,1,48,40,1560662568
30,15,17,Jits_Phase_5,2,5,56,103,1560702444
30,15,17,Jits_Phase_5,3,5,63,98,1560705364
30,15,17,Jits_Phase_5,0,5,56,103,1561111928
30,15,17,Jits_Phase_5,1,5,80,127,1561114992
30,15,17,Jits_Phase_5,2,1,48,36,1561186884
30,15,17,Jits_Phase_5,3,5,63,98,1561191784
30,15,17,Jits_Phase_5,0,5,80,127,1561611828
30,15,17,Jits_Phase_5,1,5,63,98,1561671996
30,15,17,Jits_Phase_5,2,1,48,39,1561691900
30,15,17,Jits_Phase_5,3,5,56,103,1561701740
30,15,17,Jits_Phase_5,0,5,63,98,1562112344
30,15,17,Jits_Phase_5,1,5,80,127,1562121568
30,15,17,Jits_Phase_5,2,1,48,32,1562143636
30,15,17,Jits_Phase_5,3,5,56,103,1562192136
30,15,17,Jits_Phase_5,0,1,48,32,1562638044
30,15,17,Jits_Phase_5,1,5,56,103,1562671644
30,15,17,Jits_Phase_5,2,5,80,127,1562702216
30,15,17,Jits_Phase_5,3,5,63,98,1562752252
30,15,17,Jits_Phase_5,0,1,48,38,1563156896
30,15,17,Jits_Phase_5,1,5,63,98,1563262400
30,15,17,Jits_Phase_5,2,5,56,103,1563292000
30,15,17,Jits_Phase_5,3,5,80,127,1563295136
30,15,17,Jits_Phase_5,0,5,63,98,1563761940
30,15,17,Jits_Phase_5,1,5,80,127,1563781652
30,15,17,Jits_Phase_5,2,1,48,36,1563789504
30,15,17,Jits_Phase_5,3,5,56,103,1563791616
30,15,17,Jits_Phase_5,0,5,56,103,1564271952
30,15,17,Jits_Phase_5,1,5,63,98,1564275020
30,15,17,Jits_Phase_5,2,5,80,127,1564291440
30,15,17,Jits_Phase_5,3,1,48,33,1564338448
30,15,17,Jits_Phase_5,0,5,56,103,1564721740
30,15,17,Jits_Phase_5,1,5,63,98,1564731788
30,15,17,Jits_Phase_5,2,5,80,127,1564761684
30,15,17,Jits_Phase_5,3,1,48,31,1564839404
30,15,17,Jits_Phase_5,0,5,63,98,1565241804
30,15,17,Jits_Phase_5,1,5,80,127,1565262188
30,15,17,Jits_Phase_5,2,1,48,29,1565294900
30,15,17,Jits_Phase_5,3,5,56,103,1565302264
30,15,17,Jits_Phase_5,0,5,56,103,1565772048
30,15,17,Jits_Phase_5,1,1,48,35,1565781316
30,15,17,Jits_Phase_5,2,5,63,98,1565812576
30,15,17,Jits_Phase_5,3,5,80,127,1565815712
30,15,17,Jits_Phase_5,0,5,80,127,1566211572
30,15,17,Jits_Phase_5,1,5,56,103,1566252484
30,15,17,Jits_Phase_5,2,5,63,98,1566301712
30,15,17,Jits_Phase_5,3,1,48,20,1566310976
30,15,17,Jits_Phase_5,0,5,56,103,1566771500
30,15,17,Jits_Phase_5,1,5,80,127,1566781768
30,15,17,Jits_Phase_5,2,1,48,31,1566783032
30,15,17,Jits_Phase_5,3,5,63,98,1566811364
30,15,17,Jits_Phase_5,0,5,56,103,1567222044
30,15,17,Jits_Phase_5,1,5,80,127,1567262056
30,15,17,Jits_Phase_5,2,1,48,33,1567304880
30,15,17,Jits_Phase_5,3,5,63,98,1567312320
30,15,17,Jits_Phase_5,0,5,56,103,1567721808
30,15,17,Jits_Phase_5,1,5,80,127,1567761748
30,15,17,Jits_Phase_5,2,1,48,36,1567791984
30,15,17,Jits_Phase_5,3,5,63,98,1567811940
30,15,17,Jits_Phase_5,0,5,80,127,1568212432
30,15,17,Jits_Phase_5,1,1,48,29,1568288512
30,15,17,Jits_Phase_5,2,5,63,98,1568292516
30,15,17,Jits_Phase_5,3,5,56,103,1568301368
30,15,17,Jits_Phase_5,0,5,80,127,1568762320
30,15,17,Jits_Phase_5,1,5,56,103,1568771468
30,15,17,Jits_Phase_5,2,1,48,37,1568783504
30,15,17,Jits_Phase_5,3,5,63,98,1568791844
30,15,17,Jits_Phase_5,0,5,63,98,1569232420
30,15,17,Jits_Phase_5,1,1,48,37,1569282068
30,15,17,Jits_Phase_5,2,5,56,103,1569301864
30,15,17,Jits_Phase_5,3,5,80,127,1569305004
30,15,17,Jits_Phase_5,0,5,80,127,1569721576
30,15,17,Jits_Phase_5,1,5,63,98,1569772024
30,15,17,Jits_Phase_5,2,1,48,37,1569788916
30,15,17,Jits_Phase_5,3,5,56,103,1569811804
30,15,17,Jits_Phase_5,0,5,63,98,1570262496
30,15,17,Jits_Phase_5,1,1,48,35,1570290048
30,15,17,Jits_Phase_5,2,5,56,103,1570302428
30,15,17,Jits_Phase_5,3,5,80,127,1570311504
30,15,17,Jits_Phase_5,0,5,63,98,1570751988
30,15,17,Jits_Phase_5,1,5,56,103,1570772300
30,15,17,Jits_Phase_5,2,5,80,127,1570791784
30,15,17,Jits_Phase_5,3,1,48,38,1570798192
30,15,17,Jits_Phase_5,0,5,80,127,1571211488
30,15,17,Jits_Phase_5,1,5,56,103,1571221836
30,15,17,Jits_Phase_5,2,5,63,98,1571242292
30,15,17,Jits_Phase_5,3,1,48,37,1571246532
30,15,17,Jits_Phase_5,0,5,63,98,1571742332
30,15,17,Jits_Phase_5,1,1,48,37,1571747996
30,15,17,Jits_Phase_5,2,5,56,103,1571782288
30,15,17,Jits_Phase_5,3,5,80,127,1571811740
30,15,17,Jits_Phase_5,0,5,56,103,1572201708
30,15,17,Jits_Phase_5,1,5,63,98,1572231604
30,15,17,Jits_Phase_5,2,5,80,127,1572262400
30,15,17,Jits_Phase_5,3,1,48,36,1572300840
30,15,17,Jits_Phase_5,0,5,80,127,1572621768
30,15,17,Jits_Phase_5,1,5,56,103,1572692272
30,15,17,Jits_Phase_5,2,5,63,98,1572695264
30,15,17,Jits_Phase_5,3,1,48,34,1572763184
30,15,17,Jits_Phase_5,0,5,56,103,1573131640
30,15,17,Jits_Phase_5,1,1,48,36,1573141356
30,15,17,Jits_Phase_5,2,5,63,98,1573181760
30,15,17,Jits_Phase_5,3,5,80,127,1573211432
30,15,17,Jits_Phase_5,0,5,63,98,1573611996
30,15,17,Jits_Phase_5,1,5,80,127,1573615212
30,15,17,Jits_Phase_5,2,1,48,34,1573623508
30,15,17,Jits_Phase_5,3,5,56,103,1573672452
30,15,17,Jits_Phase_5,0,1,48,37,1574100620
30,15,17,Jits_Phase_5,1,5,56,103,1574142220
30,15,17,Jits_Phase_5,2,5,80,127,1574151592
30,15,17,Jits_Phase_5,3,5,63,98,1574201704
30,15,17,Jits_Phase_5,0,5,63,98,1574612308
30,15,17,Jits_Phase_5,1,1,48,36,1574620252
30,15,17,Jits_Phase_5,2,5,56,103,1574622120
30,15,17,Jits_Phase_5,3,5,80,127,1574652244
30,15,17,Jits_Phase_5,0,1,48,33,1575109532
30,15,17,Jits_Phase_5,1,5,63,98,1575141632
30,15,17,Jits_Phase_5,2,5,80,127,1575145148
30,15,17,Jits_Phase_5,3,5,56,103,1575171312
30,15,17,Jits_Phase_5,0,1,48,40,1575641208
30,15,17,Jits_Phase_5,1,5,63,98,1575662052
30,15,17,Jits_Phase_5,2,5,56,103,1575682280
30,15,17,Jits_Phase_5,3,5,80,127,1575685800
30,15,17,Jits_Phase_5,0,5,63,98,1576121696
30,15,17,Jits_Phase_5,1,1,48,34,1576129796
30,15,17,Jits_Phase_5,2,5,56,103,1576192296
30,15,17,Jits_Phase_5,3,5,80,127,1576212076
30,15,17,Jits_Phase_5,0,5,56,103,1576612232
30,15,17,Jits_Phase_5,1,5,63,98,1576621380
30,15,17,Jits_Phase_5,2,1,48,39,1576651496
30,15,17,Jits_Phase_5,3,5,80,127,1576711452
30,15,17,Jits_Phase_5,0,5,56,103,1577132372
30,15,17,Jits_Phase_5,1,1,48,37,1577144252
30,15,17,Jits_Phase_5,2,5,80,127,1577172400
30,15,17,Jits_Phase_5,3,5,63,98,1577181624
30,15,17,Jits_Phase_5,0,1,48,35,1577634568
30,15,17,Jits_Phase_5,1,5,56,103,1577651608
30,15,17,Jits_Phase_5,2,5,63,98,1577682428
30,15,17,Jits_Phase_5,3,5,80,127,1577711952
30,15,17,Jits_Phase_5,0,5,80,127,1578112396
30,15,17,Jits_Phase_5,1,5,63,98,1578152188
30,15,17,Jits_Phase_5,2,1,48,38,1578153672
30,15,17,Jits_Phase_5,3,5,56,103,1578171816
30,15,17,Jits_Phase_5,0,1,48,36,1578647780
30,15,17,Jits_Phase_5,1,5,56,103,1578652080
30,15,17,Jits_Phase_5,2,5,80,127,1578671420
30,15,17,Jits_Phase_5,3,5,63,98,1578692052
30,15,17,Jits_Phase_5,0,5,63,98,1579122024
30,15,17,Jits_Phase_5,1,5,56,103,1579132296
30,15,17,Jits_Phase_5,2,1,48,38,1579179324
30,15,17,Jits_Phase_5,3,5,80,127,1579191924
30,15,17,Jits_Phase_5,0,5,56,103,1579621920
30,15,17,Jits_Phase_5,1,1,48,35,1579682880
30,15,17,Jits_Phase_5,2,5,63,98,1579692344
30,15,17,Jits_Phase_5,3,5,80,127,1579712152
30,15,17,Jits_Phase_5,0,5,56,103,1580121392
30,15,17,Jits_Phase_5,1,1,48,40,1580146080
30,15,17,Jits_Phase_5,2,5,63,98,1580152104
30,15,17,Jits_Phase_5,3,5,80,127,1580191968
30,15,17,Jits_Phase_5,0,5,63,98,1580611936
30,15,17,Jits_Phase_5,1,1,48,40,1580623076
30,15,17,Jits_Phase_5,2,5,56,103,1580662060
30,15,17,Jits_Phase_5,3,5,80,127,1580672404
30,15,17,Jits_Phase_5,0,1,48,38,1581124088
30,15,17,Jits_Phase_5,1,5,56,103,1581151540
30,15,17,Jits_Phase_5,2,5,63,98,1581201964
30,15,17,Jits_Phase_5,3,5,80,127,1581212156
30,15,17,Jits_Phase_5,0,5,56,103,1581621776
30,15,17,Jits_Phase_5,1,1,48,47,1581623492
30,15,17,Jits_Phase_5,2,5,63,98,1581632116
30,15,17,Jits_Phase_5,3,5,80,127,1581711756
30,15,17,Jits_Phase_5,0,9999,9999,9999,1497349184
30,15,17,Jits_Phase_5,1,9999,9999,9999,1497849944
30,15,17,Jits_Phase_5,2,9999,9999,9999,1498349648
30,15,17,Jits_Phase_5,3,9999,9999,9999,1498849336
30,15,17,Jits_Phase_5,4,9999,9999,9999,1499350140
30,15,17,Jits_Phase_5,5,9999,9999,9999,1499860084
30,15,17,Jits_Phase_5,6,9999,9999,9999,1500359756
30,15,17,Jits_Phase_5,7,9999,9999,9999,1500859496
30,15,17,Jits_Phase_5,8,9999,9999,9999,1501359180
30,15,17,Jits_Phase_5,9,9999,9999,9999,1501859916
30,15,17,Jits_Phase_5,10,9999,9999,9999,1502359680
30,15,17,Jits_Phase_5,11,9999,9999,9999,1502859372
30,15,17,Jits_Phase_5,12,9999,9999,9999,1503360092
30,15,17,Jits_Phase_5,13,9999,9999,9999,1503870028
30,15,17,Jits_Phase_5,14,9999,9999,9999,1504369776
30,15,17,Jits_Phase_5,15,9999,9999,9999,1504869452
30,15,17,Jits_Phase_5,16,9999,9999,9999,1505369200
30,15,17,Jits_Phase_5,17,9999,9999,9999,1505869924
30,15,17,Jits_Phase_5,18,9999,9999,9999,1506369600
30,15,17,Jits_Phase_5,19,9999,9999,9999,1506869364
30,15,17,Jits_Phase_5,20,9999,9999,9999,1507370088
30,15,17,Jits_Phase_5,21,9999,9999,9999,1507869768
30,15,17,Jits_Phase_5,22,9999,9999,9999,1508369532
30,15,17,Jits_Phase_5,23,9999,9999,9999,1508869220
30,15,17,Jits_Phase_5,24,9999,9999,9999,1509369960
30,15,17,Jits_Phase_5,25,9999,9999,9999,1509869640
30,15,17,Jits_Phase_5,26,9999,9999,9999,1510369396
30,15,17,Jits_Phase_5,27,9999,9999,9999,1510870108
30,15,17,Jits_Phase_5,28,9999,9999,9999,1511380060
30,15,17,Jits_Phase_5,29,9999,9999,9999,1511879804
30,15,17,Jits_Phase_5,30,9999,9999,9999,1512369208
30,15,17,Jits_Phase_5,31,9999,9999,9999,1512869992
30,15,17,Jits_Phase_5,32,9999,9999,9999,1513369680
30,15,17,Jits_Phase_5,33,9999,9999,9999,1513869368
30,15,17,Jits_Phase_5,34,9999,9999,9999,1514369132
30,15,17,Jits_Phase_5,35,9999,9999,9999,1514869868
30,15,17,Jits_Phase_5,36,9999,9999,9999,1515369532
30,15,17,Jits_Phase_5,37,9999,9999,9999,1515869288
30,15,17,Jits_Phase_5,38,9999,9999,9999,1516370024
30,15,17,Jits_Phase_5,39,9999,9999,9999,1516869704
30,15,17,Jits_Phase_5,40,9999,9999,9999,1517369456
30,15,17,Jits_Phase_5,41,9999,9999,9999,1517869144
30,15,17,Jits_Phase_5,42,9999,9999,9999,1518369876
30,15,17,Jits_Phase_5,43,9999,9999,9999,1518869620
30,15,17,Jits_Phase_5,44,9999,9999,9999,1519369296
30,15,17,Jits_Phase_5,45,9999,9999,9999,1519870032
30,15,17,Jits_Phase_5,46,9999,9999,9999,1520369780
30,15,17,Jits_Phase_5,47,9999,9999,9999,1520869464
30,15,17,Jits_Phase_5,48,9999,9999,9999,1521379404
30,15,17,Jits_Phase_5,49,9999,9999,9999,1521879096
30,15,17,Jits_Phase_5,50,9999,9999,9999,1522379884
30,15,17,Jits_Phase_5,51,9999,9999,9999,1522879548
30,15,17,Jits_Phase_5,52,9999,9999,9999,1523379308
30,15,17,Jits_Phase_5,53,9999,9999,9999,1523880048
30,15,17,Jits_Phase_5,54,9999,9999,9999,1524379724
30,15,17,Jits_Phase_5,55,9999,9999,9999,1524879416
30,15,17,Jits_Phase_5,56,9999,9999,9999,1525379176
30,15,17,Jits_Phase_5,57,9999,9999,9999,1525879904
30,15,17,Jits_Phase_5,58,9999,9999,9999,1526379600
30,15,17,Jits_Phase_5,59,9999,9999,9999,1526879348
30,15,17,Jits_Phase_5,60,9999,9999,9999,1527380088
30,15,17,Jits_Phase_5,61,9999,9999,9999,1527879760
30,15,17,Jits_Phase_5,62,9999,9999,9999,1528379452
30,15,17,Jits_Phase_5,63,9999,9999,9999,1528879212
30,15,17,Jits_Phase_5,64,9999,9999,9999,1529399412
30,15,17,Jits_Phase_5,65,9999,9999,9999,1529899096
30,15,17,Jits_Phase_5,66,9999,9999,9999,1530399836
30,15,17,Jits_Phase_5,67,9999,9999,9999,1530899512
30,15,17,Jits_Phase_5,68,9999,9999,9999,1531399280
30,15,17,Jits_Phase_5,69,9999,9999,9999,1531900016
30,15,17,Jits_Phase_5,70,9999,9999,9999,1532399684
30,15,17,Jits_Phase_5,71,9999,9999,9999,1532899448
30,15,17,Jits_Phase_5,72,9999,9999,9999,1533399140
30,15,17,Jits_Phase_5,73,9999,9999,9999,1533899860
30,15,17,Jits_Phase_5,74,9999,9999,9999,1534399600
30,15,17,Jits_Phase_5,75,9999,9999,9999,1534899276
30,15,17,Jits_Phase_5,76,9999,9999,9999,1535400004
30,15,17,Jits_Phase_5,77,9999,9999,9999,1535899756
30,15,17,Jits_Phase_5,78,9999,9999,9999,1536399448
30,15,17,Jits_Phase_5,79,9999,9999,9999,1536899136
30,15,17,Jits_Phase_5,80,9999,9999,9999,1537399932
30,15,17,Jits_Phase_5,81,9999,9999,9999,1537879156
30,15,17,Jits_Phase_5,82,9999,9999,9999,1538379892
30,15,17,Jits_Phase_5,83,9999,9999,9999,1538879564
30,15,17,Jits_Phase_5,84,9999,9999,9999,1539379256
30,15,17,Jits_Phase_5,85,9999,9999,9999,1539880052
30,15,17,Jits_Phase_5,86,9999,9999,9999,1540379720
30,15,17,Jits_Phase_5,87,9999,9999,9999,1540879484
30,15,17,Jits_Phase_5,88,9999,9999,9999,1541379172
30,15,17,Jits_Phase_5,89,9999,9999,9999,1541879908
30,15,17,Jits_Phase_5,90,9999,9999,9999,1542379596
30,15,17,Jits_Phase_5,91,9999,9999,9999,1542879356
30,15,17,Jits_Phase_5,92,9999,9999,9999,1543380080
30,15,17,Jits_Phase_5,93,9999,9999,9999,1543879756
30,15,17,Jits_Phase_5,94,9999,9999,9999,1544379476
30,15,17,Jits_Phase_5,95,9999,9999,9999,1544879160
30,15,17,Jits_Phase_5,96,9999,9999,9999,1545379896
30,15,17,Jits_Phase_5,97,9999,9999,9999,1545829452
30,15,17,Jits_Phase_5,98,9999,9999,9999,1546329204
30,15,17,Jits_Phase_5,99,9999,9999,9999,1546829936
30,15,17,Jits_Phase_5,100,9999,9999,9999,1547329612
30,15,17,Jits_Phase_5,101,9999,9999,9999,1547829308
30,15,17,Jits_Phase_5,102,9999,9999,9999,1548330092
30,15,17,Jits_Phase_5,103,9999,9999,9999,1548829772
30,15,17,Jits_Phase_5,104,9999,9999,9999,1549329520
30,15,17,Jits_Phase_5,105,9999,9999,9999,1549829192
30,15,17,Jits_Phase_5,106,9999,9999,9999,1550329912
30,15,17,Jits_Phase_5,107,9999,9999,9999,1550829660
30,15,17,Jits_Phase_5,108,9999,9999,9999,1551329344
30,15,17,Jits_Phase_5,109,9999,9999,9999,1551830072
30,15,17,Jits_Phase_5,110,9999,9999,9999,1552340024
30,15,17,Jits_Phase_5,111,9999,9999,9999,1552839776
30,15,17,Jits_Phase_5,112,9999,9999,9999,1553339512
30,15,17,Jits_Phase_5,113,9999,9999,9999,1553839200
30,15,17,Jits_Phase_5,114,9999,9999,9999,1554390136
30,15,17,Jits_Phase_5,115,9999,9999,9999,1554900064
30,15,17,Jits_Phase_5,116,9999,9999,9999,1555399740
30,15,17,Jits_Phase_5,117,9999,9999,9999,1555899480
30,15,17,Jits_Phase_5,118,9999,9999,9999,1556399164
30,15,17,Jits_Phase_5,119,9999,9999,9999,1556899952
30,15,17,Jits_Phase_5,120,9999,9999,9999,1557399640
30,15,17,Jits_Phase_5,121,9999,9999,9999,1557899328
30,15,17,Jits_Phase_5,122,9999,9999,9999,1558400064
30,15,17,Jits_Phase_5,123,9999,9999,9999,1558910016
30,15,17,Jits_Phase_5,124,9999,9999,9999,1559409764
30,15,17,Jits_Phase_5,125,9999,9999,9999,1559909440
30,15,17,Jits_Phase_5,126,9999,9999,9999,1560409208
30,15,17,Jits_Phase_5,127,9999,9999,9999,1560909924
30,15,17,Jits_Phase_5,128,9999,9999,9999,1561409600
30,15,17,Jits_Phase_5,129,9999,9999,9999,1561909364
30,15,17,Jits_Phase_5,130,9999,9999,9999,1562410100
30,15,17,Jits_Phase_5,131,9999,9999,9999,1563009112
30,15,17,Jits_Phase_5,132,9999,9999,9999,1563509828
30,15,17,Jits_Phase_5,133,9999,9999,9999,1564009580
30,15,17,Jits_Phase_5,134,9999,9999,9999,1564509244
30,15,17,Jits_Phase_5,135,9999,9999,9999,1565009980
30,15,17,Jits_Phase_5,136,9999,9999,9999,1565509744
30,15,17,Jits_Phase_5,137,9999,9999,9999,1566009416
30,15,17,Jits_Phase_5,138,9999,9999,9999,1566509180
30,15,17,Jits_Phase_5,139,9999,9999,9999,1567009848
30,15,17,Jits_Phase_5,140,9999,9999,9999,1567509612
30,15,17,Jits_Phase_5,141,9999,9999,9999,1568009304
30,15,17,Jits_Phase_5,142,9999,9999,9999,1568510040
30,15,17,Jits_Phase_5,143,9999,9999,9999,1569009736
30,15,17,Jits_Phase_5,144,9999,9999,9999,1569509492
30,15,17,Jits_Phase_5,145,9999,9999,9999,1570009168
30,15,17,Jits_Phase_5,146,9999,9999,9999,1570509912
30,15,17,Jits_Phase_5,147,9999,9999,9999,1571009592
30,15,17,Jits_Phase_5,148,9999,9999,9999,1571509316
30,15,17,Jits_Phase_5,149,9999,9999,9999,1572010052
30,15,17,Jits_Phase_5,150,9999,9999,9999,1572409420
30,15,17,Jits_Phase_5,151,9999,9999,9999,1572909180
30,15,17,Jits_Phase_5,152,9999,9999,9999,1573409848
30,15,17,Jits_Phase_5,153,9999,9999,9999,1573909592
30,15,17,Jits_Phase_5,154,9999,9999,9999,1574409344
30,15,17,Jits_Phase_5,155,9999,9999,9999,1574910060
30,15,17,Jits_Phase_5,156,9999,9999,9999,1575409720
30,15,17,Jits_Phase_5,157,9999,9999,9999,1575909468
30,15,17,Jits_Phase_5,158,9999,9999,9999,1576409144
30,15,17,Jits_Phase_5,159,9999,9999,9999,1576909936
30,15,17,Jits_Phase_5,160,9999,9999,9999,1577409624
30,15,17,Jits_Phase_5,161,9999,9999,9999,1577909364
30,15,17,Jits_Phase_5,162,9999,9999,9999,1578410076
30,15,17,Jits_Phase_5,163,9999,9999,9999,1578909768
30,15,17,Jits_Phase_5,164,9999,9999,9999,1579409516
30,15,17,Jits_Phase_5,165,9999,9999,9999,1579909196
30,15,17,Jits_Phase_5,166,9999,9999,9999,1580409928
30,15,17,Jits_Phase_5,167,9999,9999,9999,1580909692
30,15,17,Jits_Phase_5,168,9999,9999,9999,1581409376
30,15,17,Jits_Phase_5,169,9999,9999,9999,1581910092
30,16,15,Jits_Phase_8,0,5,56,103,1592970580
30,16,15,Jits_Phase_8,1,5,63,98,1592973680
30,16,15,Jits_Phase_8,2,5,80,127,1592976804
30,16,15,Jits_Phase_8,0,1,48,32,1593576828
30,16,15,Jits_Phase_8,1,5,56,103,1593771476
30,16,15,Jits_Phase_8,2,5,63,98,1593774424
30,16,15,Jits_Phase_8,3,5,80,127,1593777548
30,16,15,Jits_Phase_8,0,1,48,43,1594502224
30,16,15,Jits_Phase_8,1,5,80,127,1594510640
30,16,15,Jits_Phase_8,2,5,63,98,1594600712
30,16,15,Jits_Phase_8,3,5,56,103,1594611204
30,16,15,Jits_Phase_8,0,5,56,103,1595331032
30,16,15,Jits_Phase_8,1,5,63,98,1595341228
30,16,15,Jits_Phase_8,2,1,48,49,1595392372
30,16,15,Jits_Phase_8,3,5,80,127,1595431428
30,16,15,Jits_Phase_8,0,5,63,98,1596101212
30,16,15,Jits_Phase_8,1,5,80,127,1596130664
30,16,15,Jits_Phase_8,2,1,48,45,1596132300
30,16,15,Jits_Phase_8,3,5,56,103,1596161304
30,16,15,Jits_Phase_8,0,5,56,103,1596900668
30,16,15,Jits_Phase_8,1,1,48,42,1596911204
30,16,15,Jits_Phase_8,2,5,80,127,1597001280
30,16,15,Jits_Phase_8,3,5,63,98,1597051320
30,16,15,Jits_Phase_8,0,5,56,103,1597700436
30,16,15,Jits_Phase_8,1,5,80,127,1597750640
30,16,15,Jits_Phase_8,2,1,48,49,1597766484
30,16,15,Jits_Phase_8,3,5,63,98,1597790572
30,16,15,Jits_Phase_8,0,1,48,46,1598513056
30,16,15,Jits_Phase_8,1,5,80,127,1598531140
30,16,15,Jits_Phase_8,2,5,63,98,1598560596
30,16,15,Jits_Phase_8,3,5,56,103,1598631304
30,16,15,Jits_Phase_8,0,1,48,51,1599355740
30,16,15,Jits_Phase_8,1,5,63,98,1599361396
30,16,15,Jits_Phase_8,2,5,56,103,1599391072
30,16,15,Jits_Phase_8,3,5,80,127,1599450348
30,16,15,Jits_Phase_8,0,5,56,103,1600100704
30,16,15,Jits_Phase_8,1,5,80,127,1600103992
30,16,15,Jits_Phase_8,2,1,48,48,1600126440
30,16,15,Jits_Phase_8,3,5,63,98,1600220580
30,16,15,Jits_Phase_8,0,1,48,53,1600909200
30,16,15,Jits_Phase_8,1,5,56,103,1600981248
30,16,15,Jits_Phase_8,2,5,80,127,1601021324
30,16,15,Jits_Phase_8,3,5,63,98,1601030400
30,16,15,Jits_Phase_8,0,5,56,103,1601741236
30,16,15,Jits_Phase_8,1,5,80,127,1601760572
30,16,15,Jits_Phase_8,2,1,48,44,1601794852
30,16,15,Jits_Phase_8,3,5,63,98,1601840432
30,16,15,Jits_Phase_8,0,5,80,127,1602530816
30,16,15,Jits_Phase_8,1,1,48,51,1602570948
30,16,15,Jits_Phase_8,2,5,56,103,1602630984
30,16,15,Jits_Phase_8,3,5,63,98,1602641404
30,16,15,Jits_Phase_8,0,5,63,98,1603300996
30,16,15,Jits_Phase_8,1,5,80,127,1603361164
30,16,15,Jits_Phase_8,2,1,48,47,1603365628
30,16,15,Jits_Phase_8,3,5,56,103,1603371504
30,16,15,Jits_Phase_8,0,1,48,41,1604091496
30,16,15,Jits_Phase_8,1,5,56,103,1604100512
30,16,15,Jits_Phase_8,2,5,63,98,1604171164
30,16,15,Jits_Phase_8,3,5,80,127,1604174528
30,16,15,Jits_Phase_8,0,1,48,40,1604875052
30,16,15,Jits_Phase_8,1,5,63,98,1604930900
30,16,15,Jits_Phase_8,2,5,56,103,1604981008
30,16,15,Jits_Phase_8,3,5,80,127,1604984228
30,16,15,Jits_Phase_8,0,1,48,48,1605651656
30,16,15,Jits_Phase_8,1,5,56,103,1605690788
30,16,15,Jits_Phase_8,2,5,80,127,1605693780
30,16,15,Jits_Phase_8,3,5,63,98,1605780976
30,16,15,Jits_Phase_8,0,1,48,45,1606496416
30,16,15,Jits_Phase_8,1,5,63,98,1606530540
30,16,15,Jits_Phase_8,2,5,56,103,1606620536
30,16,15,Jits_Phase_8,3,5,80,127,1606651256
30,16,15,Jits_Phase_8,0,5,56,103,1607321088
30,16,15,Jits_Phase_8,1,1,48,47,1607369120
30,16,15,Jits_Phase_8,2,5,63,98,1607421356
30,16,15,Jits_Phase_8,3,5,80,127,1607450884
30,16,15,Jits_Phase_8,0,5,63,98,1608141120
30,16,15,Jits_Phase_8,1,5,56,103,1608151688
30,16,15,Jits_Phase_8,2,1,48,34,1608164024
30,16,15,Jits_Phase_8,3,5,80,127,1608240616
30,16,15,Jits_Phase_8,0,1,48,31,1608799672
30,16,15,Jits_Phase_8,1,5,63,98,1608961536
30,16,15,Jits_Phase_8,2,5,56,103,1609041176
30,16,15,Jits_Phase_8,3,5,80,127,1609044544
30,16,15,Jits_Phase_8,0,5,80,127,1609721156
30,16,15,Jits_Phase_8,1,5,63,98,1609740568
30,16,15,Jits_Phase_8,2,1,48,46,1609743536
30,16,15,Jits_Phase_8,3,5,56,103,1609801024
30,16,15,Jits_Phase_8,0,1,48,32,1610538260
30,16,15,Jits_Phase_8,1,5,56,103,1610560772
30,16,15,Jits_Phase_8,2,5,63,98,1610581528
30,16,15,Jits_Phase_8,3,5,80,127,1610584740
30,16,15,Jits_Phase_8,0,5,63,98,1611301188
30,16,15,Jits_Phase_8,1,1,48,38,1611317036
30,16,15,Jits_Phase_8,2,5,80,127,1611381200
30,16,15,Jits_Phase_8,3,5,56,103,1611391396
30,16,15,Jits_Phase_8,0,1,48,29,1612088312
30,16,15,Jits_Phase_8,1,5,63,98,1612120644
30,16,15,Jits_Phase_8,2,5,56,103,1612140956
30,16,15,Jits_Phase_8,3,5,80,127,1612191140
30,16,15,Jits_Phase_8,0,1,48,29,1612881492
30,16,15,Jits_Phase_8,1,5,80,127,1612921148
30,16,15,Jits_Phase_8,2,5,63,98,1612961088
30,16,15,Jits_Phase_8,3,5,56,103,1612980560
30,16,15,Jits_Phase_8,0,1,48,40,1613724096
30,16,15,Jits_Phase_8,1,5,56,103,1613760788
30,16,15,Jits_Phase_8,2,5,63,98,1613771208
30,16,15,Jits_Phase_8,3,5,80,127,1613790544
30,16,15,Jits_Phase_8,0,5,56,103,1614490924
30,16,15,Jits_Phase_8,1,1,48,37,1614518700
30,16,15,Jits_Phase_8,2,5,63,98,1614581076
30,16,15,Jits_Phase_8,3,5,80,127,1614640552
30,16,15,Jits_Phase_8,0,1,48,43,1615249760
30,16,15,Jits_Phase_8,1,5,80,127,1615320680
30,16,15,Jits_Phase_8,2,5,56,103,1615330876
30,16,15,Jits_Phase_8,3,5,63,98,1615401440
30,16,15,Jits_Phase_8,0,1,48,35,1616029508
30,16,15,Jits_Phase_8,1,5,63,98,1616150988
30,16,15,Jits_Phase_8,2,5,80,127,1616241124
30,16,15,Jits_Phase_8,3,5,56,103,1616251244
30,16,15,Jits_Phase_8,0,5,63,98,1616881096
30,16,15,Jits_Phase_8,1,5,80,127,1616931448
30,16,15,Jits_Phase_8,2,1,48,37,1616939300
30,16,15,Jits_Phase_8,3,5,56,103,1616990560
30,16,15,Jits_Phase_8,0,1,48,43,1617682548
30,16,15,Jits_Phase_8,1,5,56,103,1617701228
30,16,15,Jits_Phase_8,2,5,80,127,1617751356
30,16,15,Jits_Phase_8,3,5,63,98,1617770844
30,16,15,Jits_Phase_8,0,5,56,103,1618471172
30,16,15,Jits_Phase_8,1,1,48,37,1618502236
30,16,15,Jits_Phase_8,2,5,80,127,1618530736
30,16,15,Jits_Phase_8,3,5,63,98,1618601296
30,16,15,Jits_Phase_8,0,5,56,103,1619271164
30,16,15,Jits_Phase_8,1,1,48,41,1619275180
30,16,15,Jits_Phase_8,2,5,80,127,1619300612
30,16,15,Jits_Phase_8,3,5,63,98,1619330360
30,16,15,Jits_Phase_8,0,1,48,46,1620025492
30,16,15,Jits_Phase_8,1,5,56,103,1620110560
30,16,15,Jits_Phase_8,2,5,80,127,1620131376
30,16,15,Jits_Phase_8,3,5,63,98,1620190448
30,16,15,Jits_Phase_8,0,1,48,41,1620873352
30,16,15,Jits_Phase_8,1,5,80,127,1620991316
30,16,15,Jits_Phase_8,2,5,56,103,1621000540
30,16,15,Jits_Phase_8,3,5,63,98,1621010740
30,16,15,Jits_Phase_8,0,1,48,40,1621745512
30,16,15,Jits_Phase_8,1,5,56,103,1621751312
30,16,15,Jits_Phase_8,2,5,80,127,1621791180
30,16,15,Jits_Phase_8,3,5,63,98,1621820780
30,16,15,Jits_Phase_8,0,5,56,103,1622521268
30,16,15,Jits_Phase_8,1,1,48,42,1622527084
30,16,15,Jits_Phase_8,2,5,63,98,1622551012
30,16,15,Jits_Phase_8,3,5,80,127,1622591100
30,16,15,Jits_Phase_8,0,5,80,127,1623270696
30,16,15,Jits_Phase_8,1,1,48,43,1623302732
30,16,15,Jits_Phase_8,2,5,63,98,1623321116
30,16,15,Jits_Phase_8,3,5,56,103,1623341276
30,16,15,Jits_Phase_8,0,1,48,39,1624074844
30,16,15,Jits_Phase_8,1,5,56,103,1624101172
30,16,15,Jits_Phase_8,2,5,80,127,1624171212
30,16,15,Jits_Phase_8,3,5,63,98,1624231304
30,16,15,Jits_Phase_8,0,5,80,127,1624901088
30,16,15,Jits_Phase_8,1,1,48,43,1624928936
30,16,15,Jits_Phase_8,2,5,63,98,1624991140
30,16,15,Jits_Phase_8,3,5,56,103,1625010404
30,16,15,Jits_Phase_8,0,5,63,98,1625721092
30,16,15,Jits_Phase_8,1,1,48,42,1625734252
30,16,15,Jits_Phase_8,2,5,56,103,1625740872
30,16,15,Jits_Phase_8,3,5,80,127,1625780884
30,16,15,Jits_Phase_8,0,5,80,127,1626480988
30,16,15,Jits_Phase_8,1,1,48,42,1626492872
30,16,15,Jits_Phase_8,2,5,63,98,1626500396
30,16,15,Jits_Phase_8,3,5,56,103,1626581336
30,16,15,Jits_Phase_8,0,5,63,98,1627270644
30,16,15,Jits_Phase_8,1,1,48,40,1627272436
30,16,15,Jits_Phase_8,2,5,56,103,1627381156
30,16,15,Jits_Phase_8,3,5,80,127,1627384000
30,16,15,Jits_Phase_8,0,1,48,42,1628045032
30,16,15,Jits_Phase_8,1,5,63,98,1628090868
30,16,15,Jits_Phase_8,2,5,56,103,1628100912
30,16,15,Jits_Phase_8,3,5,80,127,1628104052
30,16,15,Jits_Phase_8,0,1,48,44,1628819160
30,16,15,Jits_Phase_8,1,5,56,103,1628870976
30,16,15,Jits_Phase_8,2,5,80,127,1628990916
30,16,15,Jits_Phase_8,3,5,63,98,1629030704
30,16,15,Jits_Phase_8,0,5,56,103,1629691124
30,16,15,Jits_Phase_8,1,1,48,43,1629702264
30,16,15,Jits_Phase_8,2,5,80,127,1629771064
30,16,15,Jits_Phase_8,3,5,63,98,1629790696
30,16,15,Jits_Phase_8,0,1,48,46,1630488008
30,16,15,Jits_Phase_8,1,5,56,103,1630490964
30,16,15,Jits_Phase_8,2,5,63,98,1630600712
30,16,15,Jits_Phase_8,3,5,80,127,1630604076
30,16,15,Jits_Phase_8,0,1,48,46,1631316824
30,16,15,Jits_Phase_8,1,5,56,103,1631330724
30,16,15,Jits_Phase_8,2,5,80,127,1631361520
30,16,15,Jits_Phase_8,3,5,63,98,1631380708
30,16,15,Jits_Phase_8,0,1,48,38,1632092092
30,16,15,Jits_Phase_8,1,5,63,98,1632121192
30,16,15,Jits_Phase_8,2,5,56,103,1632130860
30,16,15,Jits_Phase_8,3,5,80,127,1632140832
30,16,15,Jits_Phase_8,0,1,48,37,1632853188
30,16,15,Jits_Phase_8,1,5,80,127,1632910604
30,16,15,Jits_Phase_8,2,5,56,103,1632960816
30,16,15,Jits_Phase_8,3,5,63,98,1633000752
30,16,15,Jits_Phase_8,0,1,48,38,1633698780
30,16,15,Jits_Phase_8,1,5,80,127,1633730912
30,16,15,Jits_Phase_8,2,5,63,98,1633751668
30,16,15,Jits_Phase_8,3,5,56,103,1633800584
30,16,15,Jits_Phase_8,0,1,48,39,1634535880
30,16,15,Jits_Phase_8,1,5,80,127,1634540784
30,16,15,Jits_Phase_8,2,5,56,103,1634570608
30,16,15,Jits_Phase_8,3,5,63,98,1634641392
30,16,15,Jits_Phase_8,0,1,48,39,1635359856
30,16,15,Jits_Phase_8,1,5,56,103,1635390816
30,16,15,Jits_Phase_8,2,5,80,127,1635401012
30,16,15,Jits_Phase_8,3,5,63,98,1635441024
30,16,15,Jits_Phase_8,0,5,56,103,1636100384
30,16,15,Jits_Phase_8,1,5,63,98,1636120992
30,16,15,Jits_Phase_8,2,1,48,41,1636156768
30,16,15,Jits_Phase_8,3,5,80,127,1636190516
30,16,15,Jits_Phase_8,0,1,48,42,1636905280
30,16,15,Jits_Phase_8,1,5,63,98,1636920820
30,16,15,Jits_Phase_8,2,5,80,127,1636980988
30,16,15,Jits_Phase_8,3,5,56,103,1637000608
30,16,15,Jits_Phase_8,0,1,48,42,1637709556
30,16,15,Jits_Phase_8,1,5,80,127,1637711360
30,16,15,Jits_Phase_8,2,5,56,103,1637740888
30,16,15,Jits_Phase_8,3,5,63,98,1637770564
30,16,15,Jits_Phase_8,0,1,48,40,1638463212
30,16,15,Jits_Phase_8,1,5,56,103,1638510968
30,16,15,Jits_Phase_8,2,5,63,98,1638571568
30,16,15,Jits_Phase_8,3,5,80,127,1638630712
30,16,15,Jits_Phase_8,0,1,48,42,1639319092
30,16,15,Jits_Phase_8,1,5,80,127,1639331252
30,16,15,Jits_Phase_8,2,5,56,103,1639350664
30,16,15,Jits_Phase_8,3,5,63,98,1639421472
30,16,15,Jits_Phase_8,0,5,80,127,1640130888
30,16,15,Jits_Phase_8,1,1,48,44,1640140532
30,16,15,Jits_Phase_8,2,5,63,98,1640151416
30,16,15,Jits_Phase_8,3,5,56,103,1640181240
30,16,15,Jits_Phase_8,0,1,48,49,1640900208
30,16,15,Jits_Phase_8,1,5,80,127,1640920460
30,16,15,Jits_Phase_8,2,5,63,98,1640940844
30,16,15,Jits_Phase_8,3,5,56,103,1641001292
30,16,15,Jits_Phase_8,0,1,48,42,1641652880
30,16,15,Jits_Phase_8,1,5,80,127,1641721336
30,16,15,Jits_Phase_8,2,5,56,103,1641820596
30,16,15,Jits_Phase_8,3,5,63,98,1641851316
30,16,15,Jits_Phase_8,0,5,63,98,1642510616
30,16,15,Jits_Phase_8,1,5,80,127,1642561044
30,16,15,Jits_Phase_8,2,1,48,47,1642572404
30,16,15,Jits_Phase_8,3,5,56,103,1642581496
30,16,15,Jits_Phase_8,0,1,48,45,1643310788
30,16,15,Jits_Phase_8,1,5,80,127,1643351344
30,16,15,Jits_Phase_8,2,5,56,103,1643381240
30,16,15,Jits_Phase_8,3,5,63,98,1643384304
30,16,15,Jits_Phase_8,0,1,48,47,1644123868
30,16,15,Jits_Phase_8,1,5,63,98,1644201292
30,16,15,Jits_Phase_8,2,5,56,103,1644241316
30,16,15,Jits_Phase_8,3,5,80,127,1644260580
30,16,15,Jits_Phase_8,0,1,48,45,1644944304
30,16,15,Jits_Phase_8,1,5,80,127,1644961196
30,16,15,Jits_Phase_8,2,5,63,98,1645041004
30,16,15,Jits_Phase_8,3,5,56,103,1645081236
30,16,15,Jits_Phase_8,0,5,63,98,1645781440
30,16,15,Jits_Phase_8,1,1,48,40,1645825760
30,16,15,Jits_Phase_8,2,5,80,127,1645861304
30,16,15,Jits_Phase_8,3,5,56,103,1645880568
30,16,15,Jits_Phase_8,0,5,56,103,1646620912
30,16,15,Jits_Phase_8,1,1,48,44,1646624476
30,16,15,Jits_Phase_8,2,5,63,98,1646631400
30,16,15,Jits_Phase_8,3,5,80,127,1646671188
30,16,15,Jits_Phase_8,0,5,56,103,1647341188
30,16,15,Jits_Phase_8,1,5,80,127,1647344108
30,16,15,Jits_Phase_8,2,1,48,46,1647387008
30,16,15,Jits_Phase_8,3,5,63,98,1647482164
30,16,15,Jits_Phase_8,0,5,56,103,1648130468
30,16,15,Jits_Phase_8,1,1,48,49,1648173812
30,16,15,Jits_Phase_8,2,5,63,98,1648220444
30,16,15,Jits_Phase_8,3,5,80,127,1648291304
30,16,15,Jits_Phase_8,0,1,48,48,1648940400
30,16,15,Jits_Phase_8,1,5,63,98,1649011148
30,16,15,Jits_Phase_8,2,5,80,127,1649014584
30,16,15,Jits_Phase_8,3,5,56,103,1649070400
30,16,15,Jits_Phase_8,0,1,48,48,1649696912
30,16,15,Jits_Phase_8,1,5,80,127,1649850992
30,16,15,Jits_Phase_8,2,5,56,103,1649871152
30,16,15,Jits_Phase_8,3,5,63,98,1649880304
30,16,15,Jits_Phase_8,0,5,56,103,1650561448
30,16,15,Jits_Phase_8,1,5,63,98,1650570744
30,16,15,Jits_Phase_8,2,1,48,33,1650628492
30,16,15,Jits_Phase_8,3,5,80,127,1650641340
30,16,15,Jits_Phase_8,0,1,48,35,1651360692
30,16,15,Jits_Phase_8,1,5,80,127,1651362332
30,16,15,Jits_Phase_8,2,5,56,103,1651411216
30,16,15,Jits_Phase_8,3,5,63,98,1651460876
30,16,15,Jits_Phase_8,0,1,48,45,1652180232
30,16,15,Jits_Phase_8,1,5,56,103,1652240788
30,16,15,Jits_Phase_8,2,5,63,98,1652251136
30,16,15,Jits_Phase_8,3,5,80,127,1652291060
30,16,15,Jits_Phase_8,0,5,56,103,1652981072
30,16,15,Jits_Phase_8,1,5,63,98,1653020940
30,16,15,Jits_Phase_8,2,1,48,38,1653023760
30,16,15,Jits_Phase_8,3,5,80,127,1653071208
30,16,15,Jits_Phase_8,0,5,80,127,1653740840
30,16,15,Jits_Phase_8,1,1,48,39,1653777444
30,16,15,Jits_Phase_8,2,5,56,103,1653790964
30,16,15,Jits_Phase_8,3,5,63,98,1653810672
30,16,15,Jits_Phase_8,0,1,48,46,1654537796
30,16,15,Jits_Phase_8,1,5,80,127,1654550944
30,16,15,Jits_Phase_8,2,5,63,98,1654611408
30,16,15,Jits_Phase_8,3,5,56,103,1654691184
30,16,15,Jits_Phase_8,0,5,80,127,1655331152
30,16,15,Jits_Phase_8,1,5,56,103,1655371168
30,16,15,Jits_Phase_8,2,5,63,98,1655390504
30,16,15,Jits_Phase_8,3,1,48,34,1655433700
30,16,15,Jits_Phase_8,0,1,48,35,1656173816
30,16,15,Jits_Phase_8,1,5,56,103,1656181036
30,16,15,Jits_Phase_8,2,5,80,127,1656191528
30,16,15,Jits_Phase_8,3,5,63,98,1656231244
30,16,15,Jits_Phase_8,0,1,48,45,1656962560
30,16,15,Jits_Phase_8,1,5,56,103,1657050720
30,16,15,Jits_Phase_8,2,5,63,98,1657090720
30,16,15,Jits_Phase_8,3,5,80,127,1657093928
30,16,15,Jits_Phase_8,0,5,63,98,1657721292
30,16,15,Jits_Phase_8,1,5,80,127,1657761080
30,16,15,Jits_Phase_8,2,1,48,35,1657804452
30,16,15,Jits_Phase_8,3,5,56,103,1657830628
30,16,15,Jits_Phase_8,0,5,63,98,1658491528
30,16,15,Jits_Phase_8,1,1,48,37,1658511440
30,16,15,Jits_Phase_8,2,5,56,103,1658571268
30,16,15,Jits_Phase_8,3,5,80,127,1658630668
30,16,15,Jits_Phase_8,0,1,48,34,1659265400
30,16,15,Jits_Phase_8,1,5,80,127,1659301244
30,16,15,Jits_Phase_8,2,5,63,98,1659351472
30,16,15,Jits_Phase_8,3,5,56,103,1659380980
30,16,15,Jits_Phase_8,0,5,56,103,1660090764
30,16,15,Jits_Phase_8,1,1,48,39,1660095004
30,16,15,Jits_Phase_8,2,5,63,98,1660140812
30,16,15,Jits_Phase_8,3,5,80,127,1660151084
30,16,15,Jits_Phase_8,0,1,48,40,1660820048
30,16,15,Jits_Phase_8,1,5,56,103,1660900864
30,16,15,Jits_Phase_8,2,5,63,98,1661011508
30,16,15,Jits_Phase_8,3,5,80,127,1661030624
30,16,15,Jits_Phase_8,0,5,63,98,1661700332
30,16,15,Jits_Phase_8,1,1,48,37,1661726516
30,16,15,Jits_Phase_8,2,5,80,127,1661750752
30,16,15,Jits_Phase_8,3,5,56,103,1661840716
30,16,15,Jits_Phase_8,0,1,48,47,1662482448
30,16,15,Jits_Phase_8,1,5,63,98,1662491088
30,16,15,Jits_Phase_8,2,5,80,127,1662520616
30,16,15,Jits_Phase_8,3,5,56,103,1662610732
30,16,15,Jits_Phase_8,0,1,48,44,1663263540
30,16,15,Jits_Phase_8,1,5,63,98,1663290620
30,16,15,Jits_Phase_8,2,5,56,103,1663301112
30,16,15,Jits_Phase_8,3,5,80,127,1663401416
30,16,15,Jits_Phase_8,0,1,48,41,1664056248
30,16,15,Jits_Phase_8,1,5,63,98,1664190780
30,16,15,Jits_Phase_8,2,5,80,127,1664220456
30,16,15,Jits_Phase_8,3,5,56,103,1664251104
30,16,15,Jits_Phase_8,0,1,48,42,1664977856
30,16,15,Jits_Phase_8,1,5,80,127,1665011160
30,16,15,Jits_Phase_8,2,5,63,98,1665021284
30,16,15,Jits_Phase_8,3,5,56,103,1665051180
30,16,15,Jits_Phase_8,0,5,80,127,1665710440
30,16,15,Jits_Phase_8,1,5,63,98,1665731220
30,16,15,Jits_Phase_8,2,5,56,103,1665781272
30,16,15,Jits_Phase_8,3,1,48,43,1665786036
30,16,15,Jits_Phase_8,0,5,63,98,1666540872
30,16,15,Jits_Phase_8,1,1,48,39,1666558664
30,16,15,Jits_Phase_8,2,5,80,127,1666601256
30,16,15,Jits_Phase_8,3,5,56,103,1666620668
30,16,15,Jits_Phase_8,0,5,63,98,1667300624
30,16,15,Jits_Phase_8,1,5,56,103,1667351200
30,16,15,Jits_Phase_8,2,1,48,33,1667358132
30,16,15,Jits_Phase_8,3,5,80,127,1667361240
30,16,15,Jits_Phase_8,0,5,56,103,1668131092
30,16,15,Jits_Phase_8,1,1,48,35,1668134212
30,16,15,Jits_Phase_8,2,5,80,127,1668141356
30,16,15,Jits_Phase_8,3,5,63,98,1668241136
30,16,15,Jits_Phase_8,0,5,80,127,1668891156
30,16,15,Jits_Phase_8,1,5,63,98,1668901204
30,16,15,Jits_Phase_8,2,1,48,41,1668936984
30,16,15,Jits_Phase_8,3,5,56,103,1669050896
30,16,15,Jits_Phase_8,0,5,63,98,1669701040
30,16,15,Jits_Phase_8,1,5,80,127,1669740980
30,16,15,Jits_Phase_8,2,1,48,35,1669751592
30,16,15,Jits_Phase_8,3,5,56,103,1669820940
30,16,15,Jits_Phase_8,0,5,56,103,1670450452
30,16,15,Jits_Phase_8,1,1,48,46,1670508792
30,16,15,Jits_Phase_8,2,5,80,127,1670550992
30,16,15,Jits_Phase_8,3,5,63,98,1670571376
30,16,15,Jits_Phase_8,0,1,48,40,1671233932
30,16,15,Jits_Phase_8,1,5,80,127,1671270824
30,16,15,Jits_Phase_8,2,5,56,103,1671281168
30,16,15,Jits_Phase_8,3,5,63,98,1671371012
30,16,15,Jits_Phase_8,0,1,48,46,1672029880
30,16,15,Jits_Phase_8,1,5,56,103,1672070512
30,16,15,Jits_Phase_8,2,5,63,98,1672090972
30,16,15,Jits_Phase_8,3,5,80,127,1672170772
30,16,15,Jits_Phase_8,0,1,48,43,1672779440
30,16,15,Jits_Phase_8,1,5,63,98,1672821044
30,16,15,Jits_Phase_8,2,5,56,103,1672911188
30,16,15,Jits_Phase_8,3,5,80,127,1672914252
30,16,15,Jits_Phase_8,0,1,48,46,1673557448
30,16,15,Jits_Phase_8,1,5,56,103,1673650820
30,16,15,Jits_Phase_8,2,5,80,127,1673710864
30,16,15,Jits_Phase_8,3,5,63,98,1673721136
30,16,15,Jits_Phase_8,0,1,48,45,1674391156
30,16,15,Jits_Phase_8,1,5,80,127,1674500356
30,16,15,Jits_Phase_8,2,5,56,103,1674510996
30,16,15,Jits_Phase_8,3,5,63,98,1674513988
30,16,15,Jits_Phase_8,0,1,48,49,1675237224
30,16,15,Jits_Phase_8,1,5,56,103,1675261236
30,16,15,Jits_Phase_8,2,5,80,127,1675270608
30,16,15,Jits_Phase_8,3,5,63,98,1675290920
30,16,15,Jits_Phase_8,0,1,48,41,1676021036
30,16,15,Jits_Phase_8,1,5,63,98,1676031248
30,16,15,Jits_Phase_8,2,5,80,127,1676090816
30,16,15,Jits_Phase_8,3,5,56,103,1676140852
30,16,15,Jits_Phase_8,0,1,48,44,1676798156
30,16,15,Jits_Phase_8,1,5,63,98,1676910936
30,16,15,Jits_Phase_8,2,5,56,103,1676921132
30,16,15,Jits_Phase_8,3,5,80,127,1676971332
30,16,15,Jits_Phase_8,0,5,63,98,1677611304
30,16,15,Jits_Phase_8,1,5,80,127,1677630792
30,16,15,Jits_Phase_8,2,5,56,103,1677640988
30,16,15,Jits_Phase_8,3,1,48,44,1677662612
30,16,15,Jits_Phase_8,0,1,48,40,1678400308
30,16,15,Jits_Phase_8,1,5,63,98,1678410968
30,16,15,Jits_Phase_8,2,5,80,127,1678414560
30,16,15,Jits_Phase_8,3,5,56,103,1678450912
30,16,15,Jits_Phase_8,0,1,48,42,1679161308
30,16,15,Jits_Phase_8,1,5,63,98,1679280744
30,16,15,Jits_Phase_8,2,5,80,127,1679311420
30,16,15,Jits_Phase_8,3,5,56,103,1679320792
30,16,15,Jits_Phase_8,0,1,48,40,1680014784
30,16,15,Jits_Phase_8,1,5,56,103,1680030996
30,16,15,Jits_Phase_8,2,5,80,127,1680060920
30,16,15,Jits_Phase_8,3,5,63,98,1680090524
30,16,15,Jits_Phase_8,0,1,48,41,1680789672
30,16,15,Jits_Phase_8,1,5,63,98,1680931152
30,16,15,Jits_Phase_8,2,5,56,103,1680971092
30,16,15,Jits_Phase_8,3,5,80,127,1680974452
30,16,15,Jits_Phase_8,0,5,80,127,1681630612
30,16,15,Jits_Phase_8,1,1,48,36,1681703332
30,16,15,Jits_Phase_8,2,5,56,103,1681710552
30,16,15,Jits_Phase_8,3,5,63,98,1681760676
30,16,15,Jits_Phase_8,0,5,80,127,1682410828
30,16,15,Jits_Phase_8,1,5,56,103,1682431440
30,16,15,Jits_Phase_8,2,1,48,38,1682486472
30,16,15,Jits_Phase_8,3,5,63,98,1682520516
30,16,15,Jits_Phase_8,0,1,48,40,1683200528
30,16,15,Jits_Phase_8,1,5,80,127,1683250524
30,16,15,Jits_Phase_8,2,5,63,98,1683290392
30,16,15,Jits_Phase_8,3,5,56,103,1683330684
30,16,15,Jits_Phase_8,0,1,48,42,1684044108
30,16,15,Jits_Phase_8,1,5,63,98,1684060472
30,16,15,Jits_Phase_8,2,5,80,127,1684121308
30,16,15,Jits_Phase_8,3,5,56,103,1684150548
30,16,15,Jits_Phase_8,0,1,48,38,1684813512
30,16,15,Jits_Phase_8,1,5,56,103,1684901348
30,16,15,Jits_Phase_8,2,5,80,127,1684930884
30,16,15,Jits_Phase_8,3,5,63,98,1685021312
30,16,15,Jits_Phase_8,0,5,56,103,1685711396
30,16,15,Jits_Phase_8,1,1,48,43,1685723880
30,16,15,Jits_Phase_8,2,5,80,127,1685820768
30,16,15,Jits_Phase_8,3,5,63,98,1685850440
30,16,15,Jits_Phase_8,0,5,56,103,1686561220
30,16,15,Jits_Phase_8,1,1,48,40,1686590568
30,16,15,Jits_Phase_8,2,5,63,98,1686620560
30,16,15,Jits_Phase_8,3,5,80,127,1686651428
30,16,15,Jits_Phase_8,0,5,56,103,1687331400
30,16,15,Jits_Phase_8,1,1,48,44,1687387484
30,16,15,Jits_Phase_8,2,5,63,98,1687400704
30,16,15,Jits_Phase_8,3,5,80,127,1687421388
30,16,15,Jits_Phase_8,0,5,80,127,1688101136
30,16,15,Jits_Phase_8,1,5,63,98,1688120624
30,16,15,Jits_Phase_8,2,5,56,103,1688170972
30,16,15,Jits_Phase_8,3,1,48,36,1688220092
30,16,15,Jits_Phase_8,0,5,63,98,1688920456
30,16,15,Jits_Phase_8,1,5,80,127,1688930652
30,16,15,Jits_Phase_8,2,1,48,39,1688940596
30,16,15,Jits_Phase_8,3,5,56,103,1688980848
30,16,15,Jits_Phase_8,0,1,48,40,1689684880
30,16,15,Jits_Phase_8,1,5,63,98,1689721104
30,16,15,Jits_Phase_8,2,5,80,127,1689790796
30,16,15,Jits_Phase_8,3,5,56,103,1689811404
30,16,15,Jits_Phase_8,0,1,48,46,1690521660
30,16,15,Jits_Phase_8,1,5,63,98,1690550700
30,16,15,Jits_Phase_8,2,5,80,127,1690554212
30,16,15,Jits_Phase_8,3,5,56,103,1690621336
30,16,15,Jits_Phase_8,0,5,80,127,1691301276
30,16,15,Jits_Phase_8,1,5,56,103,1691320716
30,16,15,Jits_Phase_8,2,5,63,98,1691331208
30,16,15,Jits_Phase_8,3,1,48,43,1691385416
30,16,15,Jits_Phase_8,0,1,48,43,1692102232
30,16,15,Jits_Phase_8,1,5,56,103,1692120316
30,16,15,Jits_Phase_8,2,5,63,98,1692210508
30,16,15,Jits_Phase_8,3,5,80,127,1692213800
30,16,15,Jits_Phase_8,0,1,48,40,1692879212
30,16,15,Jits_Phase_8,1,5,80,127,1692890396
30,16,15,Jits_Phase_8,2,5,56,103,1692900668
30,16,15,Jits_Phase_8,3,5,63,98,1692921276
30,16,15,Jits_Phase_8,0,1,48,42,1693654224
30,16,15,Jits_Phase_8,1,5,63,98,1693691192
30,16,15,Jits_Phase_8,2,5,80,127,1693750608
30,16,15,Jits_Phase_8,3,5,56,103,1693761088
30,16,15,Jits_Phase_8,0,1,48,42,1694454276
30,16,15,Jits_Phase_8,1,5,63,98,1694560608
30,16,15,Jits_Phase_8,2,5,80,127,1694591404
30,16,15,Jits_Phase_8,3,5,56,103,1694631416
30,16,15,Jits_Phase_8,0,1,48,38,1695336444
30,16,15,Jits_Phase_8,1,5,56,103,1695351016
30,16,15,Jits_Phase_8,2,5,80,127,1695361360
30,16,15,Jits_Phase_8,3,5,63,98,1695401224
30,16,15,Jits_Phase_8,0,5,80,127,1696110920
30,16,15,Jits_Phase_8,1,1,48,39,1696138844
30,16,15,Jits_Phase_8,2,5,56,103,1696190808
30,16,15,Jits_Phase_8,3,5,63,98,1696201080
30,16,15,Jits_Phase_8,0,5,80,127,1696960840
30,16,15,Jits_Phase_8,1,1,48,38,1696966124
30,16,15,Jits_Phase_8,2,5,56,103,1697040928
30,16,15,Jits_Phase_8,3,5,63,98,1697050976
30,16,15,Jits_Phase_8,0,1,48,43,1697722972
30,16,15,Jits_Phase_8,1,5,80,127,1697800768
30,16,15,Jits_Phase_8,2,5,56,103,1697850956
30,16,15,Jits_Phase_8,3,5,63,98,1697901084
30,16,15,Jits_Phase_8,0,1,48,36,1698583476
30,16,15,Jits_Phase_8,1,5,56,103,1698740556
30,16,15,Jits_Phase_8,2,5,63,98,1698743768
30,16,15,Jits_Phase_8,3,5,80,127,1698790752
30,16,15,Jits_Phase_8,0,1,48,29,1699549964
30,16,15,Jits_Phase_8,1,5,56,103,1699560776
30,16,15,Jits_Phase_8,2,5,63,98,1699590824
30,16,15,Jits_Phase_8,3,5,80,127,1699600948
30,16,15,Jits_Phase_8,0,5,63,98,1700270392
30,16,15,Jits_Phase_8,1,1,48,39,1700291672
30,16,15,Jits_Phase_8,2,5,56,103,1700341216
30,16,15,Jits_Phase_8,3,5,80,127,1700391176
30,16,15,Jits_Phase_8,0,1,48,40,1701034748
30,16,15,Jits_Phase_8,1,5,63,98,1701100888
30,16,15,Jits_Phase_8,2,5,56,103,1701111080
30,16,15,Jits_Phase_8,3,5,80,127,1701114148
30,16,15,Jits_Phase_8,0,5,80,127,1701850516
30,16,15,Jits_Phase_8,1,1,48,29,1701911276
30,16,15,Jits_Phase_8,2,5,56,103,1701912768
30,16,15,Jits_Phase_8,3,5,63,98,1702001104
30,16,15,Jits_Phase_8,0,5,80,127,1702651332
30,16,15,Jits_Phase_8,1,1,48,40,1702731024
30,16,15,Jits_Phase_8,2,5,56,103,1702750748
30,16,15,Jits_Phase_8,3,5,63,98,1702790688
30,16,15,Jits_Phase_8,0,5,56,103,1703501152
30,16,15,Jits_Phase_8,1,5,63,98,1703520568
30,16,15,Jits_Phase_8,2,5,80,127,1703560504
30,16,15,Jits_Phase_8,3,1,48,36,1703562876
30,16,15,Jits_Phase_8,0,1,48,34,1704217648
30,16,15,Jits_Phase_8,1,5,63,98,1704271176
30,16,15,Jits_Phase_8,2,5,56,103,1704290812
30,16,15,Jits_Phase_8,3,5,80,127,1704390916
30,16,15,Jits_Phase_8,0,1,48,37,1705047592
30,16,15,Jits_Phase_8,1,5,63,98,1705060664
30,16,15,Jits_Phase_8,2,5,80,127,1705171408
30,16,15,Jits_Phase_8,3,5,56,103,1705200860
30,16,15,Jits_Phase_8,0,5,56,103,1705880880
30,16,15,Jits_Phase_8,1,5,63,98,1705910584
30,16,15,Jits_Phase_8,2,1,48,41,1705922096
30,16,15,Jits_Phase_8,3,5,80,127,1705960852
30,16,15,Jits_Phase_8,0,5,63,98,1706650984
30,16,15,Jits_Phase_8,1,1,48,44,1706677944
30,16,15,Jits_Phase_8,2,5,56,103,1706680604
30,16,15,Jits_Phase_8,3,5,80,127,1706730728
30,16,15,Jits_Phase_8,0,1,48,39,1707457612
30,16,15,Jits_Phase_8,1,5,56,103,1707480496
30,16,15,Jits_Phase_8,2,5,63,98,1707500808
30,16,15,Jits_Phase_8,3,5,80,127,1707580660
30,16,15,Jits_Phase_8,0,5,63,98,1708250440
30,16,15,Jits_Phase_8,1,1,48,40,1708256328
30,16,15,Jits_Phase_8,2,5,56,103,1708310976
30,16,15,Jits_Phase_8,3,5,80,127,1708340724
30,16,15,Jits_Phase_8,0,1,48,43,1709006544
30,16,15,Jits_Phase_8,1,5,56,103,1709091464
30,16,15,Jits_Phase_8,2,5,80,127,1709150572
30,16,15,Jits_Phase_8,3,5,63,98,1709190508
30,16,15,Jits_Phase_8,0,5,63,98,1709870332
30,16,15,Jits_Phase_8,1,1,48,29,1709915176
30,16,15,Jits_Phase_8,2,5,56,103,1709930716
30,16,15,Jits_Phase_8,3,5,80,127,1710000392
30,16,15,Jits_Phase_8,0,1,48,38,1710667324
30,16,15,Jits_Phase_8,1,5,56,103,1710751268
30,16,15,Jits_Phase_8,2,5,63,98,1710761300
30,16,15,Jits_Phase_8,3,5,80,127,1710764588
30,16,15,Jits_Phase_8,0,5,63,98,1711490416
30,16,15,Jits_Phase_8,1,1,48,44,1711491532
30,16,15,Jits_Phase_8,2,5,56,103,1711550744
30,16,15,Jits_Phase_8,3,5,80,127,1711553892
30,16,15,Jits_Phase_8,0,5,63,98,1712270684
30,16,15,Jits_Phase_8,1,1,48,43,1712275372
30,16,15,Jits_Phase_8,2,5,80,127,1712301328
30,16,15,Jits_Phase_8,3,5,56,103,1712320764
30,16,15,Jits_Phase_8,0,5,56,103,1713000836
30,16,15,Jits_Phase_8,1,5,63,98,1713050964
30,16,15,Jits_Phase_8,2,1,48,37,1713066660
30,16,15,Jits_Phase_8,3,5,80,127,1713130996
30,16,15,Jits_Phase_8,0,5,80,127,1713701124
30,16,15,Jits_Phase_8,1,5,63,98,1713741140
30,16,15,Jits_Phase_8,2,5,56,103,1713760700
30,16,15,Jits_Phase_8,3,1,48,35,1713816400
30,16,15,Jits_Phase_8,0,1,48,40,1714452756
30,16,15,Jits_Phase_8,1,5,56,103,1714570624
30,16,15,Jits_Phase_8,2,5,80,127,1714581044
30,16,15,Jits_Phase_8,3,5,63,98,1714601280
30,16,15,Jits_Phase_8,0,1,48,36,1715278208
30,16,15,Jits_Phase_8,1,5,56,103,1715351068
30,16,15,Jits_Phase_8,2,5,63,98,1715401056
30,16,15,Jits_Phase_8,3,5,80,127,1715430952
30,16,15,Jits_Phase_8,0,1,48,40,1716094752
30,16,15,Jits_Phase_8,1,5,56,103,1716100480
30,16,15,Jits_Phase_8,2,5,63,98,1716111124
30,16,15,Jits_Phase_8,3,5,80,127,1716161052
30,16,15,Jits_Phase_8,0,1,48,43,1716860572
30,16,15,Jits_Phase_8,1,5,56,103,1716891088
30,16,15,Jits_Phase_8,2,5,80,127,1716894152
30,16,15,Jits_Phase_8,3,5,63,98,1717051048
30,16,15,Jits_Phase_8,0,5,63,98,1717711320
30,16,15,Jits_Phase_8,1,5,56,103,1717781004
30,16,15,Jits_Phase_8,2,1,48,35,1717803000
30,16,15,Jits_Phase_8,3,5,80,127,1717820932
30,16,15,Jits_Phase_8,0,1,48,32,1718512920
30,16,15,Jits_Phase_8,1,5,63,98,1718551008
30,16,15,Jits_Phase_8,2,5,56,103,1718641052
30,16,15,Jits_Phase_8,3,5,80,127,1718644044
30,16,15,Jits_Phase_8,0,1,48,38,1719325332
30,16,15,Jits_Phase_8,1,5,56,103,1719331132
30,16,15,Jits_Phase_8,2,5,63,98,1719421252
30,16,15,Jits_Phase_8,3,5,80,127,1719430404
30,16,15,Jits_Phase_8,0,5,56,103,1720101160
30,16,15,Jits_Phase_8,1,1,48,39,1720119644
30,16,15,Jits_Phase_8,2,5,63,98,1720151356
30,16,15,Jits_Phase_8,3,5,80,127,1720180956
30,16,15,Jits_Phase_8,0,1,48,40,1720853840
30,16,15,Jits_Phase_8,1,5,63,98,1720980848
30,16,15,Jits_Phase_8,2,5,80,127,1720991192
30,16,15,Jits_Phase_8,3,5,56,103,1721050636
30,16,15,Jits_Phase_8,0,5,63,98,1721700912
30,16,15,Jits_Phase_8,1,1,48,41,1721707172
30,16,15,Jits_Phase_8,2,5,80,127,1721761076
30,16,15,Jits_Phase_8,3,5,56,103,1721801036
30,16,15,Jits_Phase_8,0,1,48,41,1722532476
30,16,15,Jits_Phase_8,1,5,56,103,1722600784
30,16,15,Jits_Phase_8,2,5,80,127,1722621240
30,16,15,Jits_Phase_8,3,5,63,98,1722640860
30,16,15,Jits_Phase_8,0,5,63,98,1723320760
30,16,15,Jits_Phase_8,1,5,56,103,1723341144
30,16,15,Jits_Phase_8,2,1,48,44,1723377968
30,16,15,Jits_Phase_8,3,5,80,127,1723381148
30,16,15,Jits_Phase_8,0,5,63,98,1724130776
30,16,15,Jits_Phase_8,1,1,48,42,1724142216
30,16,15,Jits_Phase_8,2,5,80,127,1724161492
30,16,15,Jits_Phase_8,3,5,56,103,1724180756
30,16,15,Jits_Phase_8,0,5,80,127,1724900792
30,16,15,Jits_Phase_8,1,1,48,40,1724932232
30,16,15,Jits_Phase_8,2,5,56,103,1724950912
30,16,15,Jits_Phase_8,3,5,63,98,1725011524
30,16,15,Jits_Phase_8,0,5,63,98,1725691124
30,16,15,Jits_Phase_8,1,1,48,41,1725786612
30,16,15,Jits_Phase_8,2,5,56,103,1725811068
30,16,15,Jits_Phase_8,3,5,80,127,1725840740
30,16,15,Jits_Phase_8,0,1,48,40,1726487020
30,16,15,Jits_Phase_8,1,5,80,127,1726530956
30,16,15,Jits_Phase_8,2,5,63,98,1726551568
30,16,15,Jits_Phase_8,3,5,56,103,1726621008
30,16,15,Jits_Phase_8,0,1,48,40,1727268944
30,16,15,Jits_Phase_8,1,5,63,98,1727351316
30,16,15,Jits_Phase_8,2,5,56,103,1727361364
30,16,15,Jits_Phase_8,3,5,80,127,1727441240
30,16,15,Jits_Phase_8,0,1,48,40,1728112464
30,16,15,Jits_Phase_8,1,5,56,103,1728211548
30,16,15,Jits_Phase_8,2,5,80,127,1728241148
30,16,15,Jits_Phase_8,3,5,63,98,1728251420
30,16,15,Jits_Phase_8,0,9999,9999,9999,1593368696
30,16,15,Jits_Phase_8,1,9999,9999,9999,1594168392
30,16,15,Jits_Phase_8,2,9999,9999,9999,1594968152
30,16,15,Jits_Phase_8,3,9999,9999,9999,1595768956
30,16,15,Jits_Phase_8,4,9999,9999,9999,1596568652
30,16,15,Jits_Phase_8,5,9999,9999,9999,1597368412
30,16,15,Jits_Phase_8,6,9999,9999,9999,1598168128
30,16,15,Jits_Phase_8,7,9999,9999,9999,1598968948
30,16,15,Jits_Phase_8,8,9999,9999,9999,1599768636
30,16,15,Jits_Phase_8,9,9999,9999,9999,1600568388
30,16,15,Jits_Phase_8,10,9999,9999,9999,1601368164
30,16,15,Jits_Phase_8,11,9999,9999,9999,1602168896
30,16,15,Jits_Phase_8,12,9999,9999,9999,1602968668
30,16,15,Jits_Phase_8,13,9999,9999,9999,1603768436
30,16,15,Jits_Phase_8,14,9999,9999,9999,1604568128
30,16,15,Jits_Phase_8,15,9999,9999,9999,1605368920
30,16,15,Jits_Phase_8,16,9999,9999,9999,1606168664
30,16,15,Jits_Phase_8,17,9999,9999,9999,1606968424
30,16,15,Jits_Phase_8,18,9999,9999,9999,1607768184
30,16,15,Jits_Phase_8,19,9999,9999,9999,1608568932
30,16,15,Jits_Phase_8,20,9999,9999,9999,1609368684
30,16,15,Jits_Phase_8,21,9999,9999,9999,1610168444
30,16,15,Jits_Phase_8,22,9999,9999,9999,1610968152
30,16,15,Jits_Phase_8,23,9999,9999,9999,1611768956
30,16,15,Jits_Phase_8,24,9999,9999,9999,1612568640
30,16,15,Jits_Phase_8,25,9999,9999,9999,1613368392
30,16,15,Jits_Phase_8,26,9999,9999,9999,1614168152
30,16,15,Jits_Phase_8,27,9999,9999,9999,1614968956
30,16,15,Jits_Phase_8,28,9999,9999,9999,1615768648
30,16,15,Jits_Phase_8,29,9999,9999,9999,1616568416
30,16,15,Jits_Phase_8,30,9999,9999,9999,1617348712
30,16,15,Jits_Phase_8,31,9999,9999,9999,1618148472
30,16,15,Jits_Phase_8,32,9999,9999,9999,1618948152
30,16,15,Jits_Phase_8,33,9999,9999,9999,1619748964
30,16,15,Jits_Phase_8,34,9999,9999,9999,1620548664
30,16,15,Jits_Phase_8,35,9999,9999,9999,1621348432
30,16,15,Jits_Phase_8,36,9999,9999,9999,1622148196
30,16,15,Jits_Phase_8,37,9999,9999,9999,1622948928
30,16,15,Jits_Phase_8,38,9999,9999,9999,1623748720
30,16,15,Jits_Phase_8,39,9999,9999,9999,1624548420
30,16,15,Jits_Phase_8,40,9999,9999,9999,1625348180
30,16,15,Jits_Phase_8,41,9999,9999,9999,1626148924
30,16,15,Jits_Phase_8,42,9999,9999,9999,1626948680
30,16,15,Jits_Phase_8,43,9999,9999,9999,1627748444
30,16,15,Jits_Phase_8,44,9999,9999,9999,1628548184
30,16,15,Jits_Phase_8,45,9999,9999,9999,1629348916
30,16,15,Jits_Phase_8,46,9999,9999,9999,1630148700
30,16,15,Jits_Phase_8,47,9999,9999,9999,1630948468
30,16,15,Jits_Phase_8,48,9999,9999,9999,1631768676
30,16,15,Jits_Phase_8,49,9999,9999,9999,1632568432
30,16,15,Jits_Phase_8,50,9999,9999,9999,1633368188
30,16,15,Jits_Phase_8,51,9999,9999,9999,1634168916
30,16,15,Jits_Phase_8,52,9999,9999,9999,1634968676
30,16,15,Jits_Phase_8,53,9999,9999,9999,1635768392
30,16,15,Jits_Phase_8,54,9999,9999,9999,1636568148
30,16,15,Jits_Phase_8,55,9999,9999,9999,1637368888
30,16,15,Jits_Phase_8,56,9999,9999,9999,1638168644
30,16,15,Jits_Phase_8,57,9999,9999,9999,1638968404
30,16,15,Jits_Phase_8,58,9999,9999,9999,1639768160
30,16,15,Jits_Phase_8,59,9999,9999,9999,1640568884
30,16,15,Jits_Phase_8,60,9999,9999,9999,1641368652
30,16,15,Jits_Phase_8,61,9999,9999,9999,1642168440
30,16,15,Jits_Phase_8,62,9999,9999,9999,1642968116
30,16,15,Jits_Phase_8,63,9999,9999,9999,1643768912
30,16,15,Jits_Phase_8,64,9999,9999,9999,1644608608
30,16,15,Jits_Phase_8,65,9999,9999,9999,1645408372
30,16,15,Jits_Phase_8,66,9999,9999,9999,1646208060
30,16,15,Jits_Phase_8,67,9999,9999,9999,1647008868
30,16,15,Jits_Phase_8,68,9999,9999,9999,1647808576
30,16,15,Jits_Phase_8,69,9999,9999,9999,1648608352
30,16,15,Jits_Phase_8,70,9999,9999,9999,1649408116
30,16,15,Jits_Phase_8,71,9999,9999,9999,1650208856
30,16,15,Jits_Phase_8,72,9999,9999,9999,1651008612
30,16,15,Jits_Phase_8,73,9999,9999,9999,1651808312
30,16,15,Jits_Phase_8,74,9999,9999,9999,1652608080
30,16,15,Jits_Phase_8,75,9999,9999,9999,1653408884
30,16,15,Jits_Phase_8,76,9999,9999,9999,1654208608
30,16,15,Jits_Phase_8,77,9999,9999,9999,1655008380
30,16,15,Jits_Phase_8,78,9999,9999,9999,1655808056
30,16,15,Jits_Phase_8,79,9999,9999,9999,1656608876
30,16,15,Jits_Phase_8,80,9999,9999,9999,1657408632
30,16,15,Jits_Phase_8,81,9999,9999,9999,1658168380
30,16,15,Jits_Phase_8,82,9999,9999,9999,1658968136
30,16,15,Jits_Phase_8,83,9999,9999,9999,1659768940
30,16,15,Jits_Phase_8,84,9999,9999,9999,1660568692
30,16,15,Jits_Phase_8,85,9999,9999,9999,1661368416
30,16,15,Jits_Phase_8,86,9999,9999,9999,1662168172
30,16,15,Jits_Phase_8,87,9999,9999,9999,1662968900
30,16,15,Jits_Phase_8,88,9999,9999,9999,1663768652
30,16,15,Jits_Phase_8,89,9999,9999,9999,1664568420
30,16,15,Jits_Phase_8,90,9999,9999,9999,1665368184
30,16,15,Jits_Phase_8,91,9999,9999,9999,1666168908
30,16,15,Jits_Phase_8,92,9999,9999,9999,1666968684
30,16,15,Jits_Phase_8,93,9999,9999,9999,1667768388
30,16,15,Jits_Phase_8,94,9999,9999,9999,1668568148
30,16,15,Jits_Phase_8,95,9999,9999,9999,1669368888
30,16,15,Jits_Phase_8,96,9999,9999,9999,1670168656
30,16,15,Jits_Phase_8,97,9999,9999,9999,1670888552
30,16,15,Jits_Phase_8,98,9999,9999,9999,1671688256
30,16,15,Jits_Phase_8,99,9999,9999,9999,1672489060
30,16,15,Jits_Phase_8,100,9999,9999,9999,1673288808
30,16,15,Jits_Phase_8,101,9999,9999,9999,1674088568
30,16,15,Jits_Phase_8,102,9999,9999,9999,1674888316
30,16,15,Jits_Phase_8,103,9999,9999,9999,1675689048
30,16,15,Jits_Phase_8,104,9999,9999,9999,1676488756
30,16,15,Jits_Phase_8,105,9999,9999,9999,1677288524
30,16,15,Jits_Phase_8,106,9999,9999,9999,1678088280
30,16,15,Jits_Phase_8,107,9999,9999,9999,1678889068
30,16,15,Jits_Phase_8,108,9999,9999,9999,1679688824
30,16,15,Jits_Phase_8,109,9999,9999,9999,1680488504
30,16,15,Jits_Phase_8,110,9999,9999,9999,1681288260
30,16,15,Jits_Phase_8,111,9999,9999,9999,1682089064
30,16,15,Jits_Phase_8,112,9999,9999,9999,1682888780
30,16,15,Jits_Phase_8,113,9999,9999,9999,1683688556
30,16,15,Jits_Phase_8,114,9999,9999,9999,1684568168
30,16,15,Jits_Phase_8,115,9999,9999,9999,1685368896
30,16,15,Jits_Phase_8,116,9999,9999,9999,1686168656
30,16,15,Jits_Phase_8,117,9999,9999,9999,1686968384
30,16,15,Jits_Phase_8,118,9999,9999,9999,1687768160
30,16,15,Jits_Phase_8,119,9999,9999,9999,1688568896
30,16,15,Jits_Phase_8,120,9999,9999,9999,1689368668
30,16,15,Jits_Phase_8,121,9999,9999,9999,1690168424
30,16,15,Jits_Phase_8,122,9999,9999,9999,1690968168
30,16,15,Jits_Phase_8,123,9999,9999,9999,1691768888
30,16,15,Jits_Phase_8,124,9999,9999,9999,1692568656
30,16,15,Jits_Phase_8,125,9999,9999,9999,1693368424
30,16,15,Jits_Phase_8,126,9999,9999,9999,1694168180
30,16,15,Jits_Phase_8,127,9999,9999,9999,1694968908
30,16,15,Jits_Phase_8,128,9999,9999,9999,1695768668
30,16,15,Jits_Phase_8,129,9999,9999,9999,1696568424
30,16,15,Jits_Phase_8,130,9999,9999,9999,1697368128
30,16,15,Jits_Phase_8,131,9999,9999,9999,1698328696
30,16,15,Jits_Phase_8,132,9999,9999,9999,1699128372
30,16,15,Jits_Phase_8,133,9999,9999,9999,1699928140
30,16,15,Jits_Phase_8,134,9999,9999,9999,1700728944
30,16,15,Jits_Phase_8,135,9999,9999,9999,1701528688
30,16,15,Jits_Phase_8,136,9999,9999,9999,1702328396
30,16,15,Jits_Phase_8,137,9999,9999,9999,1703128168
30,16,15,Jits_Phase_8,138,9999,9999,9999,1703928912
30,16,15,Jits_Phase_8,139,9999,9999,9999,1704728684
30,16,15,Jits_Phase_8,140,9999,9999,9999,1705528440
30,16,15,Jits_Phase_8,141,9999,9999,9999,1706328120
30,16,15,Jits_Phase_8,142,9999,9999,9999,1707128936
30,16,15,Jits_Phase_8,143,9999,9999,9999,1707928688
30,16,15,Jits_Phase_8,144,9999,9999,9999,1708728392
30,16,15,Jits_Phase_8,145,9999,9999,9999,1709528152
30,16,15,Jits_Phase_8,146,9999,9999,9999,1710328932
30,16,15,Jits_Phase_8,147,9999,9999,9999,1711128684
30,16,15,Jits_Phase_8,148,9999,9999,9999,1711928432
30,16,15,Jits_Phase_8,149,9999,9999,9999,1712728184
30,16,15,Jits_Phase_8,150,9999,9999,9999,1713368148
30,16,15,Jits_Phase_8,151,9999,9999,9999,1714168888
30,16,15,Jits_Phase_8,152,9999,9999,9999,1714968664
30,16,15,Jits_Phase_8,153,9999,9999,9999,1715768424
30,16,15,Jits_Phase_8,154,9999,9999,9999,1716568172
30,16,15,Jits_Phase_8,155,9999,9999,9999,1717368892
30,16,15,Jits_Phase_8,156,9999,9999,9999,1718168652
30,16,15,Jits_Phase_8,157,9999,9999,9999,1718968432
30,16,15,Jits_Phase_8,158,9999,9999,9999,1719768120
30,16,15,Jits_Phase_8,159,9999,9999,9999,1720568924
30,16,15,Jits_Phase_8,160,9999,9999,9999,1721368700
30,16,15,Jits_Phase_8,161,9999,9999,9999,1722168380
30,16,15,Jits_Phase_8,162,9999,9999,9999,1722968144
30,16,15,Jits_Phase_8,163,9999,9999,9999,1723768944
30,16,15,Jits_Phase_8,164,9999,9999,9999,1724568700
30,16,15,Jits_Phase_8,165,9999,9999,9999,1725368408
30,16,15,Jits_Phase_8,166,9999,9999,9999,1726168184
30,16,15,Jits_Phase_8,167,9999,9999,9999,1726968912
30,16,15,Jits_Phase_8,168,9999,9999,9999,1727768672
30,16,15,Jits_Phase_8,169,9999,9999,9999,1728568440
30,17,16,Jits_ISO_5,0,5,56,103,1738375520
30,17,16,Jits_ISO_5,1,5,63,98,1738378468
30,17,16,Jits_ISO_5,2,5,80,127,1738381592
30,17,16,Jits_ISO_5,0,5,56,103,1738885504
30,17,16,Jits_ISO_5,1,5,63,98,1738888452
30,17,16,Jits_ISO_5,2,5,80,127,1738891948
30,17,16,Jits_ISO_5,3,1,48,30,1739003712
30,17,16,Jits_ISO_5,0,5,56,103,1739386148
30,17,16,Jits_ISO_5,1,5,80,127,1739395372
30,17,16,Jits_ISO_5,2,5,63,98,1739415904
30,17,16,Jits_ISO_5,3,1,48,38,1739423212
30,17,16,Jits_ISO_5,0,5,63,98,1739836000
30,17,16,Jits_ISO_5,1,5,80,127,1739865600
30,17,16,Jits_ISO_5,2,5,56,103,1739876168
30,17,16,Jits_ISO_5,3,1,48,38,1739913832
30,17,16,Jits_ISO_5,0,1,48,41,1740375032
30,17,16,Jits_ISO_5,1,5,80,127,1740396036
30,17,16,Jits_ISO_5,2,5,56,103,1740406084
30,17,16,Jits_ISO_5,3,5,63,98,1740436052
30,17,16,Jits_ISO_5,0,5,63,98,1740886416
30,17,16,Jits_ISO_5,1,5,56,103,1740915944
30,17,16,Jits_ISO_5,2,5,80,127,1740926288
30,17,16,Jits_ISO_5,3,1,48,39,1740931352
30,17,16,Jits_ISO_5,0,5,56,103,1741336028
30,17,16,Jits_ISO_5,1,5,63,98,1741386156
30,17,16,Jits_ISO_5,2,5,80,127,1741405568
30,17,16,Jits_ISO_5,3,1,48,44,1741428764
30,17,16,Jits_ISO_5,0,5,80,127,1741835772
30,17,16,Jits_ISO_5,1,5,63,98,1741885900
30,17,16,Jits_ISO_5,2,1,48,43,1741916888
30,17,16,Jits_ISO_5,3,5,56,103,1741925828
30,17,16,Jits_ISO_5,0,5,56,103,1742336344
30,17,16,Jits_ISO_5,1,5,63,98,1742366020
30,17,16,Jits_ISO_5,2,1,48,48,1742436068
30,17,16,Jits_ISO_5,3,5,80,127,1742437632
30,17,16,Jits_ISO_5,0,5,56,103,1742836164
30,17,16,Jits_ISO_5,1,5,80,127,1742895580
30,17,16,Jits_ISO_5,2,1,48,48,1742897948
30,17,16,Jits_ISO_5,3,5,63,98,1742926144
30,17,16,Jits_ISO_5,0,5,56,103,1743346100
30,17,16,Jits_ISO_5,1,5,63,98,1743356296
30,17,16,Jits_ISO_5,2,5,80,127,1743396156
30,17,16,Jits_ISO_5,3,1,48,44,1743402936
30,17,16,Jits_ISO_5,0,5,63,98,1743835432
30,17,16,Jits_ISO_5,1,1,48,44,1743892636
30,17,16,Jits_ISO_5,2,5,80,127,1743916344
30,17,16,Jits_ISO_5,3,5,56,103,1743925788
30,17,16,Jits_ISO_5,0,5,63,98,1744386412
30,17,16,Jits_ISO_5,1,1,48,44,1744404820
30,17,16,Jits_ISO_5,2,5,56,103,1744426488
30,17,16,Jits_ISO_5,3,5,80,127,1744429408
30,17,16,Jits_ISO_5,0,5,56,103,1744846132
30,17,16,Jits_ISO_5,1,5,63,98,1744856548
30,17,16,Jits_ISO_5,2,5,80,127,1744896484
30,17,16,Jits_ISO_5,3,1,48,46,1744931216
30,17,16,Jits_ISO_5,0,5,56,103,1745335756
30,17,16,Jits_ISO_5,1,5,63,98,1745338676
30,17,16,Jits_ISO_5,2,5,80,127,1745356140
30,17,16,Jits_ISO_5,3,1,48,48,1745386536
30,17,16,Jits_ISO_5,0,5,80,127,1745845904
30,17,16,Jits_ISO_5,1,5,56,103,1745855876
30,17,16,Jits_ISO_5,2,1,48,46,1745856916
30,17,16,Jits_ISO_5,3,5,63,98,1745925472
30,17,16,Jits_ISO_5,0,5,63,98,1746346448
30,17,16,Jits_ISO_5,1,5,56,103,1746365736
30,17,16,Jits_ISO_5,2,1,48,49,1746416732
30,17,16,Jits_ISO_5,3,5,80,127,1746445816
30,17,16,Jits_ISO_5,0,5,56,103,1746856444
30,17,16,Jits_ISO_5,1,5,80,127,1746896184
30,17,16,Jits_ISO_5,2,1,48,51,1746902368
30,17,16,Jits_ISO_5,3,5,63,98,1746905548
30,17,16,Jits_ISO_5,0,5,80,127,1747345852
30,17,16,Jits_ISO_5,1,5,63,98,1747375992
30,17,16,Jits_ISO_5,2,1,48,52,1747395148
30,17,16,Jits_ISO_5,3,5,56,103,1747416448
30,17,16,Jits_ISO_5,0,5,56,103,1747865896
30,17,16,Jits_ISO_5,1,5,63,98,1747895520
30,17,16,Jits_ISO_5,2,1,48,50,1747913460
30,17,16,Jits_ISO_5,3,5,80,127,1747945712
30,17,16,Jits_ISO_5,0,5,80,127,1748365788
30,17,16,Jits_ISO_5,1,5,56,103,1748405752
30,17,16,Jits_ISO_5,2,5,63,98,1748415800
30,17,16,Jits_ISO_5,3,1,48,52,1748440564
30,17,16,Jits_ISO_5,0,5,80,127,1748845984
30,17,16,Jits_ISO_5,1,5,63,98,1748885920
30,17,16,Jits_ISO_5,2,5,56,103,1748946480
30,17,16,Jits_ISO_5,3,1,48,52,1748954924
30,17,16,Jits_ISO_5,0,5,56,103,1749345508
30,17,16,Jits_ISO_5,1,5,80,127,1749355852
30,17,16,Jits_ISO_5,2,5,63,98,1749435668
30,17,16,Jits_ISO_5,3,1,48,51,1749458784
30,17,16,Jits_ISO_5,0,5,80,127,1749846524
30,17,16,Jits_ISO_5,1,5,63,98,1749905644
30,17,16,Jits_ISO_5,2,5,56,103,1749935788
30,17,16,Jits_ISO_5,3,1,48,44,1749944536
30,17,16,Jits_ISO_5,0,5,56,103,1750356536
30,17,16,Jits_ISO_5,1,5,80,127,1750415656
30,17,16,Jits_ISO_5,2,5,63,98,1750455764
30,17,16,Jits_ISO_5,3,1,48,37,1750466976
30,17,16,Jits_ISO_5,0,5,56,103,1750906332
30,17,16,Jits_ISO_5,1,5,63,98,1750915404
30,17,16,Jits_ISO_5,2,5,80,127,1750918844
30,17,16,Jits_ISO_5,3,1,48,48,1750993448
30,17,16,Jits_ISO_5,0,5,80,127,1751355728
30,17,16,Jits_ISO_5,1,5,63,98,1751446008
30,17,16,Jits_ISO_5,2,5,56,103,1751456052
30,17,16,Jits_ISO_5,3,1,48,38,1751514788
30,17,16,Jits_ISO_5,0,5,56,103,1751855464
30,17,16,Jits_ISO_5,1,5,63,98,1751858860
30,17,16,Jits_ISO_5,2,5,80,127,1751861904
30,17,16,Jits_ISO_5,3,1,48,51,1752005368
30,17,16,Jits_ISO_5,0,5,80,127,1752375580
30,17,16,Jits_ISO_5,1,5,63,98,1752425704
30,17,16,Jits_ISO_5,2,5,56,103,1752455600
30,17,16,Jits_ISO_5,3,1,48,44,1752548260
30,17,16,Jits_ISO_5,0,5,56,103,1752855924
30,17,16,Jits_ISO_5,1,5,80,127,1752866564
30,17,16,Jits_ISO_5,2,5,63,98,1752935720
30,17,16,Jits_ISO_5,0,5,56,103,1753366072
30,17,16,Jits_ISO_5,1,5,63,98,1753386232
30,17,16,Jits_ISO_5,2,5,80,127,1753445872
30,17,16,Jits_ISO_5,3,1,48,49,1753485480
30,17,16,Jits_ISO_5,0,5,80,127,1753856528
30,17,16,Jits_ISO_5,1,1,48,51,1753897036
30,17,16,Jits_ISO_5,2,5,63,98,1753926128
30,17,16,Jits_ISO_5,3,5,56,103,1753945388
30,17,16,Jits_ISO_5,0,5,80,127,1754375460
30,17,16,Jits_ISO_5,1,5,56,103,1754385656
30,17,16,Jits_ISO_5,2,5,63,98,1754396296
30,17,16,Jits_ISO_5,3,1,48,49,1754416576
30,17,16,Jits_ISO_5,0,5,80,127,1754866136
30,17,16,Jits_ISO_5,1,5,56,103,1754885696
30,17,16,Jits_ISO_5,2,1,48,42,1754924332
30,17,16,Jits_ISO_5,3,5,63,98,1754956112
30,17,16,Jits_ISO_5,0,5,56,103,1755376072
30,17,16,Jits_ISO_5,1,5,80,127,1755405676
30,17,16,Jits_ISO_5,2,1,48,48,1755410360
30,17,16,Jits_ISO_5,3,5,63,98,1755426644
30,17,16,Jits_ISO_5,0,5,63,98,1755865412
30,17,16,Jits_ISO_5,1,5,56,103,1755925800
30,17,16,Jits_ISO_5,2,1,48,42,1755935216
30,17,16,Jits_ISO_5,3,5,80,127,1755955616
30,17,16,Jits_ISO_5,0,5,63,98,1756356152
30,17,16,Jits_ISO_5,1,5,80,127,1756359440
30,17,16,Jits_ISO_5,2,1,48,47,1756407144
30,17,16,Jits_ISO_5,3,5,56,103,1756446196
30,17,16,Jits_ISO_5,0,5,56,103,1756876104
30,17,16,Jits_ISO_5,1,5,63,98,1756905928
30,17,16,Jits_ISO_5,2,1,48,38,1756930992
30,17,16,Jits_ISO_5,3,5,80,127,1756945856
30,17,16,Jits_ISO_5,0,5,63,98,1757375856
30,17,16,Jits_ISO_5,1,5,56,103,1757415720
30,17,16,Jits_ISO_5,2,5,80,127,1757436252
30,17,16,Jits_ISO_5,3,1,48,44,1757450904
30,17,16,Jits_ISO_5,0,5,63,98,1757896264
30,17,16,Jits_ISO_5,1,1,48,43,1757897380
30,17,16,Jits_ISO_5,2,5,56,103,1757936272
30,17,16,Jits_ISO_5,3,5,80,127,1757946244
30,17,16,Jits_ISO_5,0,5,80,127,1758376272
30,17,16,Jits_ISO_5,1,1,48,50,1758416432
30,17,16,Jits_ISO_5,2,5,63,98,1758446120
30,17,16,Jits_ISO_5,3,5,56,103,1758466428
30,17,16,Jits_ISO_5,0,5,56,103,1758865760
30,17,16,Jits_ISO_5,1,5,80,127,1758886220
30,17,16,Jits_ISO_5,2,5,63,98,1758926104
30,17,16,Jits_ISO_5,3,1,48,55,1758947656
30,17,16,Jits_ISO_5,0,5,63,98,1759375696
30,17,16,Jits_ISO_5,1,5,80,127,1759396080
30,17,16,Jits_ISO_5,2,5,56,103,1759436264
30,17,16,Jits_ISO_5,3,1,48,48,1759442448
30,17,16,Jits_ISO_5,0,5,63,98,1759875352
30,17,16,Jits_ISO_5,1,5,56,103,1759896036
30,17,16,Jits_ISO_5,2,5,80,127,1759906304
30,17,16,Jits_ISO_5,3,1,48,41,1759969076
30,17,16,Jits_ISO_5,0,5,80,127,1760376056
30,17,16,Jits_ISO_5,1,5,56,103,1760395692
30,17,16,Jits_ISO_5,2,5,63,98,1760426340
30,17,16,Jits_ISO_5,3,1,48,49,1760461920
30,17,16,Jits_ISO_5,0,5,56,103,1760945652
30,17,16,Jits_ISO_5,1,1,48,41,1760948272
30,17,16,Jits_ISO_5,2,5,80,127,1760950132
30,17,16,Jits_ISO_5,3,5,63,98,1760965880
30,17,16,Jits_ISO_5,0,5,63,98,1761366260
30,17,16,Jits_ISO_5,1,5,56,103,1761396156
30,17,16,Jits_ISO_5,2,1,48,49,1761451712
30,17,16,Jits_ISO_5,3,5,80,127,1761455368
30,17,16,Jits_ISO_5,0,1,48,46,1761945976
30,17,16,Jits_ISO_5,1,5,63,98,1761956112
30,17,16,Jits_ISO_5,2,5,56,103,1761965412
30,17,16,Jits_ISO_5,3,5,80,127,1761975852
30,17,16,Jits_ISO_5,0,5,56,103,1762405956
30,17,16,Jits_ISO_5,1,5,80,127,1762435408
30,17,16,Jits_ISO_5,2,5,63,98,1762445900
30,17,16,Jits_ISO_5,3,1,48,52,1762484108
30,17,16,Jits_ISO_5,0,1,48,35,1762907252
30,17,16,Jits_ISO_5,1,5,63,98,1762946308
30,17,16,Jits_ISO_5,2,5,56,103,1762955828
30,17,16,Jits_ISO_5,3,5,80,127,1762976064
30,17,16,Jits_ISO_5,0,5,56,103,1763375328
30,17,16,Jits_ISO_5,1,5,63,98,1763435784
30,17,16,Jits_ISO_5,2,5,80,127,1763439080
30,17,16,Jits_ISO_5,3,1,48,41,1763456144
30,17,16,Jits_ISO_5,0,5,80,127,1763895888
30,17,16,Jits_ISO_5,1,5,56,103,1763906012
30,17,16,Jits_ISO_5,2,1,48,40,1763970032
30,17,16,Jits_ISO_5,3,5,63,98,1763975532
30,17,16,Jits_ISO_5,0,5,80,127,1764386124
30,17,16,Jits_ISO_5,1,1,48,34,1764455952
30,17,16,Jits_ISO_5,2,5,56,103,1764457592
30,17,16,Jits_ISO_5,3,5,63,98,1764465992
30,17,16,Jits_ISO_5,0,5,63,98,1764925880
30,17,16,Jits_ISO_5,1,5,56,103,1764936000
30,17,16,Jits_ISO_5,2,5,80,127,1764955488
30,17,16,Jits_ISO_5,3,1,48,42,1764987072
30,17,16,Jits_ISO_5,0,5,80,127,1765376464
30,17,16,Jits_ISO_5,1,5,63,98,1765435880
30,17,16,Jits_ISO_5,2,1,48,36,1765453828
30,17,16,Jits_ISO_5,3,5,56,103,1765475884
30,17,16,Jits_ISO_5,0,5,56,103,1765915992
30,17,16,Jits_ISO_5,1,5,63,98,1765926116
30,17,16,Jits_ISO_5,2,1,48,41,1765927080
30,17,16,Jits_ISO_5,3,5,80,127,1765966120
30,17,16,Jits_ISO_5,0,5,56,103,1766375888
30,17,16,Jits_ISO_5,1,5,80,127,1766405712
30,17,16,Jits_ISO_5,2,5,63,98,1766455836
30,17,16,Jits_ISO_5,3,1,48,43,1766457476
30,17,16,Jits_ISO_5,0,5,56,103,1766915416
30,17,16,Jits_ISO_5,1,5,63,98,1766956324
30,17,16,Jits_ISO_5,2,1,48,43,1766958808
30,17,16,Jits_ISO_5,3,5,80,127,1766961104
30,17,16,Jits_ISO_5,0,5,56,103,1767416128
30,17,16,Jits_ISO_5,1,5,63,98,1767426400
30,17,16,Jits_ISO_5,2,5,80,127,1767445960
30,17,16,Jits_ISO_5,3,1,48,48,1767470652
30,17,16,Jits_ISO_5,0,5,56,103,1767875944
30,17,16,Jits_ISO_5,1,5,80,127,1767878860
30,17,16,Jits_ISO_5,2,5,63,98,1767916028
30,17,16,Jits_ISO_5,3,1,48,41,1767958248
30,17,16,Jits_ISO_5,0,5,63,98,1768415608
30,17,16,Jits_ISO_5,1,5,56,103,1768446256
30,17,16,Jits_ISO_5,2,1,48,34,1768461508
30,17,16,Jits_ISO_5,3,5,80,127,1768465884
30,17,16,Jits_ISO_5,0,5,80,127,1768885824
30,17,16,Jits_ISO_5,1,5,56,103,1768896020
30,17,16,Jits_ISO_5,2,5,63,98,1768906068
30,17,16,Jits_ISO_5,3,1,48,42,1768952032
30,17,16,Jits_ISO_5,0,5,56,103,1769395684
30,17,16,Jits_ISO_5,1,5,80,127,1769435620
30,17,16,Jits_ISO_5,2,1,48,40,1769440908
30,17,16,Jits_ISO_5,3,5,63,98,1769466112
30,17,16,Jits_ISO_5,0,5,63,98,1769905768
30,17,16,Jits_ISO_5,1,5,80,127,1769915740
30,17,16,Jits_ISO_5,2,5,56,103,1769925936
30,17,16,Jits_ISO_5,3,1,48,38,1769968760
30,17,16,Jits_ISO_5,0,5,56,103,1770385696
30,17,16,Jits_ISO_5,1,1,48,43,1770431688
30,17,16,Jits_ISO_5,2,5,63,98,1770456440
30,17,16,Jits_ISO_5,3,5,80,127,1770465812
30,17,16,Jits_ISO_5,0,5,80,127,1770885592
30,17,16,Jits_ISO_5,1,5,56,103,1770895860
30,17,16,Jits_ISO_5,2,5,63,98,1770945788
30,17,16,Jits_ISO_5,3,1,48,42,1770967484
30,17,16,Jits_ISO_5,0,5,80,127,1771395672
30,17,16,Jits_ISO_5,1,5,56,103,1771455716
30,17,16,Jits_ISO_5,2,1,48,38,1771460252
30,17,16,Jits_ISO_5,3,5,63,98,1771485756
30,17,16,Jits_ISO_5,0,5,56,103,1771896084
30,17,16,Jits_ISO_5,1,5,80,127,1771899084
30,17,16,Jits_ISO_5,2,5,63,98,1771936028
30,17,16,Jits_ISO_5,3,1,48,38,1771983360
30,17,16,Jits_ISO_5,0,5,56,103,1772425720
30,17,16,Jits_ISO_5,1,5,63,98,1772456516
30,17,16,Jits_ISO_5,2,5,80,127,1772465392
30,17,16,Jits_ISO_5,3,1,48,37,1772481616
30,17,16,Jits_ISO_5,0,5,63,98,1772935732
30,17,16,Jits_ISO_5,1,5,80,127,1772945708
30,17,16,Jits_ISO_5,2,5,56,103,1772956048
30,17,16,Jits_ISO_5,3,1,48,31,1772964948
30,17,16,Jits_ISO_5,0,5,80,127,1773396432
30,17,16,Jits_ISO_5,1,5,56,103,1773445512
30,17,16,Jits_ISO_5,2,5,63,98,1773448652
30,17,16,Jits_ISO_5,3,1,48,37,1773454480
30,17,16,Jits_ISO_5,0,5,56,103,1773925764
30,17,16,Jits_ISO_5,1,1,48,35,1773938468
30,17,16,Jits_ISO_5,2,5,80,127,1773946364
30,17,16,Jits_ISO_5,3,5,63,98,1773955436
30,17,16,Jits_ISO_5,0,5,63,98,1774405956
30,17,16,Jits_ISO_5,1,5,56,103,1774435632
30,17,16,Jits_ISO_5,2,5,80,127,1774456460
30,17,16,Jits_ISO_5,3,1,48,38,1774457800
30,17,16,Jits_ISO_5,0,5,56,103,1774915876
30,17,16,Jits_ISO_5,1,1,48,39,1774925320
30,17,16,Jits_ISO_5,2,5,80,127,1774927112
30,17,16,Jits_ISO_5,3,5,63,98,1774995744
30,17,16,Jits_ISO_5,0,5,63,98,1775405436
30,17,16,Jits_ISO_5,1,5,80,127,1775446420
30,17,16,Jits_ISO_5,2,1,48,44,1775482720
30,17,16,Jits_ISO_5,3,5,56,103,1775486424
30,17,16,Jits_ISO_5,0,5,56,103,1775916332
30,17,16,Jits_ISO_5,1,5,63,98,1775925556
30,17,16,Jits_ISO_5,2,1,48,38,1775943048
30,17,16,Jits_ISO_5,3,5,80,127,1775946376
30,17,16,Jits_ISO_5,0,1,48,38,1776410796
30,17,16,Jits_ISO_5,1,5,63,98,1776456152
30,17,16,Jits_ISO_5,2,5,80,127,1776475416
30,17,16,Jits_ISO_5,3,5,56,103,1776495872
30,17,16,Jits_ISO_5,0,5,56,103,1776896412
30,17,16,Jits_ISO_5,1,1,48,37,1776943964
30,17,16,Jits_ISO_5,2,5,80,127,1776976420
30,17,16,Jits_ISO_5,3,5,63,98,1776985568
30,17,16,Jits_ISO_5,0,5,80,127,1777435940
30,17,16,Jits_ISO_5,1,5,63,98,1777446284
30,17,16,Jits_ISO_5,2,1,48,37,1777458324
30,17,16,Jits_ISO_5,3,5,56,103,1777475880
30,17,16,Jits_ISO_5,0,5,63,98,1777895832
30,17,16,Jits_ISO_5,1,5,80,127,1777935844
30,17,16,Jits_ISO_5,2,1,48,42,1777958072
30,17,16,Jits_ISO_5,3,5,56,103,1777996152
30,17,16,Jits_ISO_5,0,5,63,98,1778405832
30,17,16,Jits_ISO_5,1,5,56,103,1778455884
30,17,16,Jits_ISO_5,2,1,48,34,1778467764
30,17,16,Jits_ISO_5,3,5,80,127,1778485552
30,17,16,Jits_ISO_5,0,5,80,127,1778915608
30,17,16,Jits_ISO_5,1,5,63,98,1778925876
30,17,16,Jits_ISO_5,2,1,48,35,1778973188
30,17,16,Jits_ISO_5,3,5,56,103,1778995548
30,17,16,Jits_ISO_5,0,5,80,127,1779486224
30,17,16,Jits_ISO_5,1,1,48,30,1779494140
30,17,16,Jits_ISO_5,2,5,56,103,1779496184
30,17,16,Jits_ISO_5,3,5,63,98,1779499408
30,17,16,Jits_ISO_5,0,5,56,103,1779926264
30,17,16,Jits_ISO_5,1,5,80,127,1779946048
30,17,16,Jits_ISO_5,2,5,63,98,1779956092
30,17,16,Jits_ISO_5,3,1,48,32,1780022360
30,17,16,Jits_ISO_5,0,5,63,98,1780436272
30,17,16,Jits_ISO_5,1,5,56,103,1780476360
30,17,16,Jits_ISO_5,2,1,48,30,1780486380
30,17,16,Jits_ISO_5,3,5,80,127,1780495764
30,17,16,Jits_ISO_5,0,5,63,98,1780946276
30,17,16,Jits_ISO_5,1,1,48,34,1780987084
30,17,16,Jits_ISO_5,2,5,56,103,1781005684
30,17,16,Jits_ISO_5,3,5,80,127,1781008824
30,17,16,Jits_ISO_5,0,5,56,103,1781406196
30,17,16,Jits_ISO_5,1,5,80,127,1781425408
30,17,16,Jits_ISO_5,2,5,63,98,1781465568
30,17,16,Jits_ISO_5,3,1,48,22,1781515212
30,17,16,Jits_ISO_5,0,5,56,103,1781935340
30,17,16,Jits_ISO_5,1,5,63,98,1781956244
30,17,16,Jits_ISO_5,2,5,80,127,1781966144
30,17,16,Jits_ISO_5,3,1,48,29,1782006872
30,17,16,Jits_ISO_5,0,5,80,127,1782405468
30,17,16,Jits_ISO_5,1,5,56,103,1782436192
30,17,16,Jits_ISO_5,2,5,63,98,1782476004
30,17,16,Jits_ISO_5,3,1,48,38,1782476968
30,17,16,Jits_ISO_5,0,5,80,127,1782915476
30,17,16,Jits_ISO_5,1,5,56,103,1782936084
30,17,16,Jits_ISO_5,2,1,48,37,1782949836
30,17,16,Jits_ISO_5,3,5,63,98,1782996192
30,17,16,Jits_ISO_5,0,5,56,103,1783426304
30,17,16,Jits_ISO_5,1,5,80,127,1783445864
30,17,16,Jits_ISO_5,2,1,48,31,1783486768
30,17,16,Jits_ISO_5,3,5,63,98,1783506268
30,17,16,Jits_ISO_5,0,5,80,127,1783905524
30,17,16,Jits_ISO_5,1,5,56,103,1783916164
30,17,16,Jits_ISO_5,2,5,63,98,1783955952
30,17,16,Jits_ISO_5,3,1,48,43,1783993492
30,17,16,Jits_ISO_5,0,5,63,98,1784406388
30,17,16,Jits_ISO_5,1,5,56,103,1784446248
30,17,16,Jits_ISO_5,2,5,80,127,1784449392
30,17,16,Jits_ISO_5,3,1,48,35,1784461428
30,17,16,Jits_ISO_5,0,5,63,98,1784935852
30,17,16,Jits_ISO_5,1,1,48,34,1784958600
30,17,16,Jits_ISO_5,2,5,80,127,1784975860
30,17,16,Jits_ISO_5,3,5,56,103,1785005484
30,17,16,Jits_ISO_5,0,5,56,103,1785426224
30,17,16,Jits_ISO_5,1,5,63,98,1785435372
30,17,16,Jits_ISO_5,2,1,48,43,1785449580
30,17,16,Jits_ISO_5,3,5,80,127,1785466160
30,17,16,Jits_ISO_5,0,5,80,127,1785915852
30,17,16,Jits_ISO_5,1,1,48,40,1785918444
30,17,16,Jits_ISO_5,2,5,63,98,1785986424
30,17,16,Jits_ISO_5,3,5,56,103,1785995720
30,17,16,Jits_ISO_5,0,5,63,98,1786415452
30,17,16,Jits_ISO_5,1,1,48,39,1786469212
30,17,16,Jits_ISO_5,2,5,56,103,1786486024
30,17,16,Jits_ISO_5,3,5,80,127,1786496216
30,17,16,Jits_ISO_5,0,5,63,98,1786916156
30,17,16,Jits_ISO_5,1,5,56,103,1786935792
30,17,16,Jits_ISO_5,2,1,48,39,1786940932
30,17,16,Jits_ISO_5,3,5,80,127,1786975572
30,17,16,Jits_ISO_5,0,5,56,103,1787426148
30,17,16,Jits_ISO_5,1,5,63,98,1787436420
30,17,16,Jits_ISO_5,2,1,48,43,1787445236
30,17,16,Jits_ISO_5,3,5,80,127,1787516204
30,17,16,Jits_ISO_5,0,5,63,98,1787915856
30,17,16,Jits_ISO_5,1,1,48,41,1787937408
30,17,16,Jits_ISO_5,2,5,56,103,1787946348
30,17,16,Jits_ISO_5,3,5,80,127,1787986284
30,17,16,Jits_ISO_5,0,5,56,103,1788416264
30,17,16,Jits_ISO_5,1,1,48,40,1788421476
30,17,16,Jits_ISO_5,2,5,63,98,1788456192
30,17,16,Jits_ISO_5,3,5,80,127,1788496128
30,17,16,Jits_ISO_5,0,5,80,127,1788915932
30,17,16,Jits_ISO_5,1,1,48,40,1788926920
30,17,16,Jits_ISO_5,2,5,56,103,1788995872
30,17,16,Jits_ISO_5,3,5,63,98,1789006140
30,17,16,Jits_ISO_5,0,1,48,41,1789454696
30,17,16,Jits_ISO_5,1,5,56,103,1789456592
30,17,16,Jits_ISO_5,2,5,63,98,1789459344
30,17,16,Jits_ISO_5,3,5,80,127,1789466100
30,17,16,Jits_ISO_5,0,1,48,42,1789961816
30,17,16,Jits_ISO_5,1,5,56,103,1789975860
30,17,16,Jits_ISO_5,2,5,63,98,1789996616
30,17,16,Jits_ISO_5,3,5,80,127,1790005692
30,17,16,Jits_ISO_5,0,5,63,98,1790435820
30,17,16,Jits_ISO_5,1,5,80,127,1790445868
30,17,16,Jits_ISO_5,2,1,48,40,1790464732
30,17,16,Jits_ISO_5,3,5,56,103,1790466544
30,17,16,Jits_ISO_5,0,5,63,98,1790936748
30,17,16,Jits_ISO_5,1,1,48,38,1790956880
30,17,16,Jits_ISO_5,2,5,56,103,1791016460
30,17,16,Jits_ISO_5,3,5,80,127,1791019304
30,17,16,Jits_ISO_5,0,5,63,98,1791436104
30,17,16,Jits_ISO_5,1,5,56,103,1791455888
30,17,16,Jits_ISO_5,2,1,48,41,1791479984
30,17,16,Jits_ISO_5,3,5,80,127,1791486304
30,17,16,Jits_ISO_5,0,5,56,103,1791935764
30,17,16,Jits_ISO_5,1,5,63,98,1791956520
30,17,16,Jits_ISO_5,2,5,80,127,1791965672
30,17,16,Jits_ISO_5,3,1,48,40,1791971632
30,17,16,Jits_ISO_5,0,1,48,44,1792441092
30,17,16,Jits_ISO_5,1,5,56,103,1792475664
30,17,16,Jits_ISO_5,2,5,63,98,1792506164
30,17,16,Jits_ISO_5,3,5,80,127,1792509824
30,17,16,Jits_ISO_5,0,5,56,103,1792926000
30,17,16,Jits_ISO_5,1,1,48,39,1792960980
30,17,16,Jits_ISO_5,2,5,63,98,1792965956
30,17,16,Jits_ISO_5,3,5,80,127,1793026492
30,17,16,Jits_ISO_5,0,5,56,103,1793446128
30,17,16,Jits_ISO_5,1,1,48,39,1793453008
30,17,16,Jits_ISO_5,2,5,63,98,1793455592
30,17,16,Jits_ISO_5,3,5,80,127,1793515904
30,17,16,Jits_ISO_5,0,5,56,103,1793945872
30,17,16,Jits_ISO_5,1,5,80,127,1793965608
30,17,16,Jits_ISO_5,2,1,48,34,1793972840
30,17,16,Jits_ISO_5,3,5,63,98,1793996100
30,17,16,Jits_ISO_5,0,5,80,127,1794445692
30,17,16,Jits_ISO_5,1,5,56,103,1794455964
30,17,16,Jits_ISO_5,2,1,48,38,1794469048
30,17,16,Jits_ISO_5,3,5,63,98,1794476516
30,17,16,Jits_ISO_5,0,5,63,98,1794936064
30,17,16,Jits_ISO_5,1,1,48,41,1794956572
30,17,16,Jits_ISO_5,2,5,80,127,1795015956
30,17,16,Jits_ISO_5,3,5,56,103,1795026524
30,17,16,Jits_ISO_5,0,1,48,39,1795479220
30,17,16,Jits_ISO_5,1,5,80,127,1795496404
30,17,16,Jits_ISO_5,2,5,56,103,1795515612
30,17,16,Jits_ISO_5,3,5,63,98,1795518688
30,17,16,Jits_ISO_5,0,5,63,98,1795966628
30,17,16,Jits_ISO_5,1,5,80,127,1795969764
30,17,16,Jits_ISO_5,2,1,48,41,1795993184
30,17,16,Jits_ISO_5,3,5,56,103,1796025684
30,17,16,Jits_ISO_5,0,5,56,103,1796455716
30,17,16,Jits_ISO_5,1,5,80,127,1796465984
30,17,16,Jits_ISO_5,2,1,48,32,1796498996
30,17,16,Jits_ISO_5,3,5,63,98,1796505916
30,17,16,Jits_ISO_5,0,5,56,103,1796935908
30,17,16,Jits_ISO_5,1,1,48,38,1796984136
30,17,16,Jits_ISO_5,2,5,63,98,1796995392
30,17,16,Jits_ISO_5,3,5,80,127,1797005588
30,17,16,Jits_ISO_5,0,5,63,98,1797446140
30,17,16,Jits_ISO_5,1,1,48,35,1797475640
30,17,16,Jits_ISO_5,2,5,80,127,1797485924
30,17,16,Jits_ISO_5,3,5,56,103,1797525784
30,17,16,Jits_ISO_5,0,5,56,103,1797945648
30,17,16,Jits_ISO_5,1,1,48,38,1797976936
30,17,16,Jits_ISO_5,2,5,63,98,1798025512
30,17,16,Jits_ISO_5,3,5,80,127,1798028800
30,17,16,Jits_ISO_5,0,9999,9999,9999,1738624072
30,17,16,Jits_ISO_5,1,9999,9999,9999,1739134032
30,17,16,Jits_ISO_5,2,9999,9999,9999,1739633780
30,17,16,Jits_ISO_5,3,9999,9999,9999,1740133452
30,17,16,Jits_ISO_5,4,9999,9999,9999,1740633192
30,17,16,Jits_ISO_5,5,9999,9999,9999,1741133904
30,17,16,Jits_ISO_5,6,9999,9999,9999,1741633632
30,17,16,Jits_ISO_5,7,9999,9999,9999,1742133304
30,17,16,Jits_ISO_5,8,9999,9999,9999,1742634096
30,17,16,Jits_ISO_5,9,9999,9999,9999,1743133768
30,17,16,Jits_ISO_5,10,9999,9999,9999,1743633512
30,17,16,Jits_ISO_5,11,9999,9999,9999,1744133188
30,17,16,Jits_ISO_5,12,9999,9999,9999,1744633964
30,17,16,Jits_ISO_5,13,9999,9999,9999,1745133616
30,17,16,Jits_ISO_5,14,9999,9999,9999,1745633348
30,17,16,Jits_ISO_5,15,9999,9999,9999,1746134068
30,17,16,Jits_ISO_5,16,9999,9999,9999,1746644076
30,17,16,Jits_ISO_5,17,9999,9999,9999,1747143736
30,17,16,Jits_ISO_5,18,9999,9999,9999,1747643472
30,17,16,Jits_ISO_5,19,9999,9999,9999,1748143220
30,17,16,Jits_ISO_5,20,9999,9999,9999,1748643916
30,17,16,Jits_ISO_5,21,9999,9999,9999,1749143660
30,17,16,Jits_ISO_5,22,9999,9999,9999,1749643332
30,17,16,Jits_ISO_5,23,9999,9999,9999,1750144056
30,17,16,Jits_ISO_5,24,9999,9999,9999,1750654068
30,17,16,Jits_ISO_5,25,9999,9999,9999,1751153732
30,17,16,Jits_ISO_5,26,9999,9999,9999,1751653484
30,17,16,Jits_ISO_5,27,9999,9999,9999,1752153208
30,17,16,Jits_ISO_5,28,9999,9999,9999,1752653928
30,17,16,Jits_ISO_5,29,9999,9999,9999,1753153620
30,17,16,Jits_ISO_5,30,9999,9999,9999,1753653340
30,17,16,Jits_ISO_5,31,9999,9999,9999,1754154060
30,17,16,Jits_ISO_5,32,9999,9999,9999,1754653804
30,17,16,Jits_ISO_5,33,9999,9999,9999,1755153476
30,17,16,Jits_ISO_5,34,9999,9999,9999,1755653224
30,17,16,Jits_ISO_5,35,9999,9999,9999,1756153948
30,17,16,Jits_ISO_5,36,9999,9999,9999,1756653672
30,17,16,Jits_ISO_5,37,9999,9999,9999,1757153332
30,17,16,Jits_ISO_5,38,9999,9999,9999,1757654128
30,17,16,Jits_ISO_5,39,9999,9999,9999,1758164056
30,17,16,Jits_ISO_5,40,9999,9999,9999,1758663792
30,17,16,Jits_ISO_5,41,9999,9999,9999,1759163464
30,17,16,Jits_ISO_5,42,9999,9999,9999,1759663208
30,17,16,Jits_ISO_5,43,9999,9999,9999,1760163964
30,17,16,Jits_ISO_5,44,9999,9999,9999,1760663624
30,17,16,Jits_ISO_5,45,9999,9999,9999,1761163364
30,17,16,Jits_ISO_5,46,9999,9999,9999,1761664088
30,17,16,Jits_ISO_5,47,9999,9999,9999,1762174016
30,17,16,Jits_ISO_5,48,9999,9999,9999,1762673744
30,17,16,Jits_ISO_5,49,9999,9999,9999,1763173500
30,17,16,Jits_ISO_5,50,9999,9999,9999,1763673144
30,17,16,Jits_ISO_5,51,9999,9999,9999,1764173940
30,17,16,Jits_ISO_5,52,9999,9999,9999,1764673616
30,17,16,Jits_ISO_5,53,9999,9999,9999,1765173364
30,17,16,Jits_ISO_5,54,9999,9999,9999,1765674068
30,17,16,Jits_ISO_5,55,9999,9999,9999,1766173820
30,17,16,Jits_ISO_5,56,9999,9999,9999,1766673488
30,17,16,Jits_ISO_5,57,9999,9999,9999,1767173232
30,17,16,Jits_ISO_5,58,9999,9999,9999,1767673952
30,17,16,Jits_ISO_5,59,9999,9999,9999,1768173684
30,17,16,Jits_ISO_5,60,9999,9999,9999,1768673360
30,17,16,Jits_ISO_5,61,9999,9999,9999,1769174136
30,17,16,Jits_ISO_5,62,9999,9999,9999,1769684072
30,17,16,Jits_ISO_5,63,9999,9999,9999,1770183744
30,17,16,Jits_ISO_5,64,9999,9999,9999,1770683476
30,17,16,Jits_ISO_5,65,9999,9999,9999,1771183220
30,17,16,Jits_ISO_5,66,9999,9999,9999,1771683912
30,17,16,Jits_ISO_5,67,9999,9999,9999,1772183644
30,17,16,Jits_ISO_5,68,9999,9999,9999,1772683320
30,17,16,Jits_ISO_5,69,9999,9999,9999,1773184116
30,17,16,Jits_ISO_5,70,9999,9999,9999,1773694024
30,17,16,Jits_ISO_5,71,9999,9999,9999,1774193776
30,17,16,Jits_ISO_5,72,9999,9999,9999,1774693448
30,17,16,Jits_ISO_5,73,9999,9999,9999,1775193180
30,17,16,Jits_ISO_5,74,9999,9999,9999,1775693900
30,17,16,Jits_ISO_5,75,9999,9999,9999,1776193628
30,17,16,Jits_ISO_5,76,9999,9999,9999,1776693312
30,17,16,Jits_ISO_5,77,9999,9999,9999,1777194092
30,17,16,Jits_ISO_5,78,9999,9999,9999,1777693764
30,17,16,Jits_ISO_5,79,9999,9999,9999,1778193516
30,17,16,Jits_ISO_5,80,9999,9999,9999,1778693176
30,17,16,Jits_ISO_5,81,9999,9999,9999,1779193956
30,17,16,Jits_ISO_5,82,9999,9999,9999,1779693624
30,17,16,Jits_ISO_5,83,9999,9999,9999,1780193376
30,17,16,Jits_ISO_5,84,9999,9999,9999,1780694100
30,17,16,Jits_ISO_5,85,9999,9999,9999,1781204092
30,17,16,Jits_ISO_5,86,9999,9999,9999,1781703752
30,17,16,Jits_ISO_5,87,9999,9999,9999,1782203500
30,17,16,Jits_ISO_5,88,9999,9999,9999,1782703172
30,17,16,Jits_ISO_5,89,9999,9999,9999,1783203940
30,17,16,Jits_ISO_5,90,9999,9999,9999,1783703604
30,17,16,Jits_ISO_5,91,9999,9999,9999,1784203344
30,17,16,Jits_ISO_5,92,9999,9999,9999,1784704056
30,17,16,Jits_ISO_5,93,9999,9999,9999,1785214056
30,17,16,Jits_ISO_5,94,9999,9999,9999,1785713784
30,17,16,Jits_ISO_5,95,9999,9999,9999,1786213460
30,17,16,Jits_ISO_5,96,9999,9999,9999,1786713204
30,17,16,Jits_ISO_5,97,9999,9999,9999,1787213908
30,17,16,Jits_ISO_5,98,9999,9999,9999,1787713640
30,17,16,Jits_ISO_5,99,9999,9999,9999,1788213312
30,17,16,Jits_ISO_5,100,9999,9999,9999,1788714088
30,17,16,Jits_ISO_5,101,9999,9999,9999,1789213764
30,17,16,Jits_ISO_5,102,9999,9999,9999,1789713504
30,17,16,Jits_ISO_5,103,9999,9999,9999,1790213240
30,17,16,Jits_ISO_5,104,9999,9999,9999,1790713944
30,17,16,Jits_ISO_5,105,9999,9999,9999,1791213672
30,17,16,Jits_ISO_5,106,9999,9999,9999,1791713328
30,17,16,Jits_ISO_5,107,9999,9999,9999,1792214112
30,17,16,Jits_ISO_5,108,9999,9999,9999,1792724048
30,17,16,Jits_ISO_5,109,9999,9999,9999,1793223780
30,17,16,Jits_ISO_5,110,9999,9999,9999,1793723452
30,17,16,Jits_ISO_5,111,9999,9999,9999,1794223200
30,17,16,Jits_ISO_5,112,9999,9999,9999,1794723892
30,17,16,Jits_ISO_5,113,9999,9999,9999,1795223636
30,17,16,Jits_ISO_5,114,9999,9999,9999,1795723368
30,17,16,Jits_ISO_5,115,9999,9999,9999,1796224068
30,17,16,Jits_ISO_5,116,9999,9999,9999,1796734064
30,17,16,Jits_ISO_5,117,9999,9999,9999,1797233732
30,17,16,Jits_ISO_5,118,9999,9999,9999,1797733484
30,17,16,Jits_ISO_5,119,9999,9999,9999,1798233208
30,18,7,Jits_ISO_8,0,5,56,103,1808132412
30,18,7,Jits_ISO_8,1,5,63,98,1808135580
30,18,7,Jits_ISO_8,2,5,80,127,1808138780
30,18,7,Jits_ISO_8,0,1,48,41,1808701304
30,18,7,Jits_ISO_8,1,5,56,103,1808933360
30,18,7,Jits_ISO_8,2,5,63,98,1808936456
30,18,7,Jits_ISO_8,3,5,80,127,1808939728
30,18,7,Jits_ISO_8,0,1,48,43,1809613032
30,18,7,Jits_ISO_8,1,5,80,127,1809672692
30,18,7,Jits_ISO_8,2,5,63,98,1809762888
30,18,7,Jits_ISO_8,3,5,56,103,1809772936
30,18,7,Jits_ISO_8,0,5,56,103,1810492936
30,18,7,Jits_ISO_8,1,5,63,98,1810502984
30,18,7,Jits_ISO_8,2,1,48,48,1810569924
30,18,7,Jits_ISO_8,3,5,80,127,1810593108
30,18,7,Jits_ISO_8,0,5,63,98,1811262988
30,18,7,Jits_ISO_8,1,5,80,127,1811292816
30,18,7,Jits_ISO_8,2,1,48,50,1811295340
30,18,7,Jits_ISO_8,3,5,56,103,1811323232
30,18,7,Jits_ISO_8,0,1,48,48,1812035236
30,18,7,Jits_ISO_8,1,5,56,103,1812062688
30,18,7,Jits_ISO_8,2,5,80,127,1812162948
30,18,7,Jits_ISO_8,3,5,63,98,1812213000
30,18,7,Jits_ISO_8,0,5,56,103,1812863228
30,18,7,Jits_ISO_8,1,1,48,44,1812882760
30,18,7,Jits_ISO_8,2,5,80,127,1812912772
30,18,7,Jits_ISO_8,3,5,63,98,1812952564
30,18,7,Jits_ISO_8,0,1,48,46,1813686464
30,18,7,Jits_ISO_8,1,5,80,127,1813692788
30,18,7,Jits_ISO_8,2,5,63,98,1813722688
30,18,7,Jits_ISO_8,3,5,56,103,1813793252
30,18,7,Jits_ISO_8,0,1,48,50,1814510068
30,18,7,Jits_ISO_8,1,5,63,98,1814523364
30,18,7,Jits_ISO_8,2,5,56,103,1814553040
30,18,7,Jits_ISO_8,3,5,80,127,1814613564
30,18,7,Jits_ISO_8,0,5,56,103,1815262548
30,18,7,Jits_ISO_8,1,5,80,127,1815265616
30,18,7,Jits_ISO_8,2,1,48,44,1815310848
30,18,7,Jits_ISO_8,3,5,63,98,1815383536
30,18,7,Jits_ISO_8,0,1,48,43,1816043048
30,18,7,Jits_ISO_8,1,5,56,103,1816143232
30,18,7,Jits_ISO_8,2,5,80,127,1816183544
30,18,7,Jits_ISO_8,3,5,63,98,1816193812
30,18,7,Jits_ISO_8,0,1,48,39,1816887860
30,18,7,Jits_ISO_8,1,5,56,103,1816902952
30,18,7,Jits_ISO_8,2,5,80,127,1816922588
30,18,7,Jits_ISO_8,3,5,63,98,1817003516
30,18,7,Jits_ISO_8,0,5,80,127,1817692628
30,18,7,Jits_ISO_8,1,1,48,45,1817736280
30,18,7,Jits_ISO_8,2,5,56,103,1817792900
30,18,7,Jits_ISO_8,3,5,63,98,1817803092
30,18,7,Jits_ISO_8,0,5,63,98,1818462684
30,18,7,Jits_ISO_8,1,5,80,127,1818522856
30,18,7,Jits_ISO_8,2,5,56,103,1818533424
30,18,7,Jits_ISO_8,3,1,48,46,1818574252
30,18,7,Jits_ISO_8,0,5,56,103,1819263660
30,18,7,Jits_ISO_8,1,1,48,42,1819291668
30,18,7,Jits_ISO_8,2,5,63,98,1819332916
30,18,7,Jits_ISO_8,3,5,80,127,1819336500
30,18,7,Jits_ISO_8,0,1,48,40,1820039364
30,18,7,Jits_ISO_8,1,5,63,98,1820092840
30,18,7,Jits_ISO_8,2,5,56,103,1820143100
30,18,7,Jits_ISO_8,3,5,80,127,1820145944
30,18,7,Jits_ISO_8,0,1,48,39,1820844260
30,18,7,Jits_ISO_8,1,5,56,103,1820852676
30,18,7,Jits_ISO_8,2,5,80,127,1820855664
30,18,7,Jits_ISO_8,3,5,63,98,1820942644
30,18,7,Jits_ISO_8,0,1,48,43,1821628132
30,18,7,Jits_ISO_8,1,5,63,98,1821693424
30,18,7,Jits_ISO_8,2,5,56,103,1821783472
30,18,7,Jits_ISO_8,3,5,80,127,1821813372
30,18,7,Jits_ISO_8,0,5,56,103,1822482660
30,18,7,Jits_ISO_8,1,1,48,44,1822491104
30,18,7,Jits_ISO_8,2,5,63,98,1822584308
30,18,7,Jits_ISO_8,3,5,80,127,1822612864
30,18,7,Jits_ISO_8,0,5,63,98,1823303140
30,18,7,Jits_ISO_8,1,1,48,43,1823306704
30,18,7,Jits_ISO_8,2,5,56,103,1823313256
30,18,7,Jits_ISO_8,3,5,80,127,1823403412
30,18,7,Jits_ISO_8,0,5,63,98,1824123156
30,18,7,Jits_ISO_8,1,1,48,40,1824186684
30,18,7,Jits_ISO_8,2,5,56,103,1824203196
30,18,7,Jits_ISO_8,3,5,80,127,1824206184
30,18,7,Jits_ISO_8,0,1,48,43,1824881488
30,18,7,Jits_ISO_8,1,5,80,127,1824883220
30,18,7,Jits_ISO_8,2,5,63,98,1824902412
30,18,7,Jits_ISO_8,3,5,56,103,1824963196
30,18,7,Jits_ISO_8,0,1,48,33,1825675180
30,18,7,Jits_ISO_8,1,5,56,103,1825722588
30,18,7,Jits_ISO_8,2,5,63,98,1825743196
30,18,7,Jits_ISO_8,3,5,80,127,1825746632
30,18,7,Jits_ISO_8,0,5,63,98,1826463080
30,18,7,Jits_ISO_8,1,1,48,35,1826504656
30,18,7,Jits_ISO_8,2,5,80,127,1826543192
30,18,7,Jits_ISO_8,3,5,56,103,1826553388
30,18,7,Jits_ISO_8,0,1,48,36,1827231068
30,18,7,Jits_ISO_8,1,5,63,98,1827283404
30,18,7,Jits_ISO_8,2,5,56,103,1827302672
30,18,7,Jits_ISO_8,3,5,80,127,1827353080
30,18,7,Jits_ISO_8,0,1,48,36,1828045248
30,18,7,Jits_ISO_8,1,5,80,127,1828083260
30,18,7,Jits_ISO_8,2,5,63,98,1828123348
30,18,7,Jits_ISO_8,3,5,56,103,1828142300
30,18,7,Jits_ISO_8,0,1,48,34,1828886380
30,18,7,Jits_ISO_8,1,5,56,103,1828922824
30,18,7,Jits_ISO_8,2,5,63,98,1828932948
30,18,7,Jits_ISO_8,3,5,80,127,1828952436
30,18,7,Jits_ISO_8,0,5,56,103,1829653012
30,18,7,Jits_ISO_8,1,1,48,38,1829671348
30,18,7,Jits_ISO_8,2,5,63,98,1829743216
30,18,7,Jits_ISO_8,3,5,80,127,1829803244
30,18,7,Jits_ISO_8,0,1,48,45,1830421840
30,18,7,Jits_ISO_8,1,5,80,127,1830483448
30,18,7,Jits_ISO_8,2,5,56,103,1830492448
30,18,7,Jits_ISO_8,3,5,63,98,1830563236
30,18,7,Jits_ISO_8,0,1,48,34,1831252264
30,18,7,Jits_ISO_8,1,5,63,98,1831312972
30,18,7,Jits_ISO_8,2,5,80,127,1831402972
30,18,7,Jits_ISO_8,3,5,56,103,1831413092
30,18,7,Jits_ISO_8,0,5,63,98,1832053132
30,18,7,Jits_ISO_8,1,1,48,28,1832098276
30,18,7,Jits_ISO_8,2,5,80,127,1832103256
30,18,7,Jits_ISO_8,3,5,56,103,1832162700
30,18,7,Jits_ISO_8,0,1,48,40,1832863668
30,18,7,Jits_ISO_8,1,5,56,103,1832882528
30,18,7,Jits_ISO_8,2,5,80,127,1832932880
30,18,7,Jits_ISO_8,3,5,63,98,1832953192
30,18,7,Jits_ISO_8,0,5,56,103,1833652800
30,18,7,Jits_ISO_8,1,1,48,42,1833672256
30,18,7,Jits_ISO_8,2,5,80,127,1833712960
30,18,7,Jits_ISO_8,3,5,63,98,1833782924
30,18,7,Jits_ISO_8,0,5,56,103,1834453344
30,18,7,Jits_ISO_8,1,1,48,37,1834470784
30,18,7,Jits_ISO_8,2,5,80,127,1834483088
30,18,7,Jits_ISO_8,3,5,63,98,1834512840
30,18,7,Jits_ISO_8,0,1,48,42,1835219676
30,18,7,Jits_ISO_8,1,5,56,103,1835293064
30,18,7,Jits_ISO_8,2,5,80,127,1835312612
30,18,7,Jits_ISO_8,3,5,63,98,1835372852
30,18,7,Jits_ISO_8,0,1,48,38,1836092224
30,18,7,Jits_ISO_8,1,5,80,127,1836172792
30,18,7,Jits_ISO_8,2,5,56,103,1836184092
30,18,7,Jits_ISO_8,3,5,63,98,1836193092
30,18,7,Jits_ISO_8,0,5,56,103,1836932652
30,18,7,Jits_ISO_8,1,1,48,38,1836972160
30,18,7,Jits_ISO_8,2,5,80,127,1836973880
30,18,7,Jits_ISO_8,3,5,63,98,1837003108
30,18,7,Jits_ISO_8,0,5,56,103,1837702636
30,18,7,Jits_ISO_8,1,5,63,98,1837733212
30,18,7,Jits_ISO_8,2,5,80,127,1837773248
30,18,7,Jits_ISO_8,3,1,48,45,1837783120
30,18,7,Jits_ISO_8,0,5,80,127,1838453060
30,18,7,Jits_ISO_8,1,5,63,98,1838503264
30,18,7,Jits_ISO_8,2,5,56,103,1838522704
30,18,7,Jits_ISO_8,3,1,48,43,1838546420
30,18,7,Jits_ISO_8,0,5,56,103,1839282548
30,18,7,Jits_ISO_8,1,1,48,43,1839316384
30,18,7,Jits_ISO_8,2,5,80,127,1839353272
30,18,7,Jits_ISO_8,3,5,63,98,1839412456
30,18,7,Jits_ISO_8,0,5,80,127,1840083400
30,18,7,Jits_ISO_8,1,1,48,45,1840104580
30,18,7,Jits_ISO_8,2,5,63,98,1840173528
30,18,7,Jits_ISO_8,3,5,56,103,1840192792
30,18,7,Jits_ISO_8,0,5,63,98,1840902456
30,18,7,Jits_ISO_8,1,5,56,103,1840922916
30,18,7,Jits_ISO_8,2,1,48,39,1840931288
30,18,7,Jits_ISO_8,3,5,80,127,1840962848
30,18,7,Jits_ISO_8,0,5,80,127,1841663428
30,18,7,Jits_ISO_8,1,5,63,98,1841682692
30,18,7,Jits_ISO_8,2,1,48,41,1841687756
30,18,7,Jits_ISO_8,3,5,56,103,1841762704
30,18,7,Jits_ISO_8,0,5,63,98,1842452808
30,18,7,Jits_ISO_8,1,1,48,40,1842501484
30,18,7,Jits_ISO_8,2,5,56,103,1842562492
30,18,7,Jits_ISO_8,3,5,80,127,1842565484
30,18,7,Jits_ISO_8,0,5,63,98,1843273260
30,18,7,Jits_ISO_8,1,5,56,103,1843283452
30,18,7,Jits_ISO_8,2,5,80,127,1843286444
30,18,7,Jits_ISO_8,3,1,48,35,1843304484
30,18,7,Jits_ISO_8,0,1,48,42,1844048336
30,18,7,Jits_ISO_8,1,5,56,103,1844053536
30,18,7,Jits_ISO_8,2,5,80,127,1844173280
30,18,7,Jits_ISO_8,3,5,63,98,1844213216
30,18,7,Jits_ISO_8,0,5,56,103,1844872512
30,18,7,Jits_ISO_8,1,1,48,41,1844910032
30,18,7,Jits_ISO_8,2,5,80,127,1844952476
30,18,7,Jits_ISO_8,3,5,63,98,1844972860
30,18,7,Jits_ISO_8,0,5,56,103,1845673232
30,18,7,Jits_ISO_8,1,1,48,41,1845678816
30,18,7,Jits_ISO_8,2,5,63,98,1845782896
30,18,7,Jits_ISO_8,3,5,80,127,1845786260
30,18,7,Jits_ISO_8,0,1,48,48,1846457992
30,18,7,Jits_ISO_8,1,5,56,103,1846502756
30,18,7,Jits_ISO_8,2,5,80,127,1846532436
30,18,7,Jits_ISO_8,3,5,63,98,1846552820
30,18,7,Jits_ISO_8,0,1,48,44,1847216720
30,18,7,Jits_ISO_8,1,5,63,98,1847283136
30,18,7,Jits_ISO_8,2,5,56,103,1847293256
30,18,7,Jits_ISO_8,3,5,80,127,1847302556
30,18,7,Jits_ISO_8,0,1,48,38,1848011564
30,18,7,Jits_ISO_8,1,5,80,127,1848072428
30,18,7,Jits_ISO_8,2,5,56,103,1848122764
30,18,7,Jits_ISO_8,3,5,63,98,1848162704
30,18,7,Jits_ISO_8,0,1,48,39,1848824748
30,18,7,Jits_ISO_8,1,5,80,127,1848892960
30,18,7,Jits_ISO_8,2,5,63,98,1848913196
30,18,7,Jits_ISO_8,3,5,56,103,1848962412
30,18,7,Jits_ISO_8,0,1,48,45,1849631284
30,18,7,Jits_ISO_8,1,5,80,127,1849702784
30,18,7,Jits_ISO_8,2,5,56,103,1849732520
30,18,7,Jits_ISO_8,3,5,63,98,1849803048
30,18,7,Jits_ISO_8,0,1,48,43,1850498564
30,18,7,Jits_ISO_8,1,5,56,103,1850552792
30,18,7,Jits_ISO_8,2,5,80,127,1850563212
30,18,7,Jits_ISO_8,3,5,63,98,1850603132
30,18,7,Jits_ISO_8,0,5,56,103,1851263324
30,18,7,Jits_ISO_8,1,5,63,98,1851282740
30,18,7,Jits_ISO_8,2,1,48,43,1851339144
30,18,7,Jits_ISO_8,3,5,80,127,1851352288
30,18,7,Jits_ISO_8,0,1,48,45,1852061664
30,18,7,Jits_ISO_8,1,5,63,98,1852082468
30,18,7,Jits_ISO_8,2,5,80,127,1852142936
30,18,7,Jits_ISO_8,3,5,56,103,1852162332
30,18,7,Jits_ISO_8,0,5,80,127,1852873040
30,18,7,Jits_ISO_8,1,1,48,44,1852880948
30,18,7,Jits_ISO_8,2,5,56,103,1852902784
30,18,7,Jits_ISO_8,3,5,63,98,1852932460
30,18,7,Jits_ISO_8,0,5,56,103,1853672912
30,18,7,Jits_ISO_8,1,1,48,30,1853708544
30,18,7,Jits_ISO_8,2,5,63,98,1853733224
30,18,7,Jits_ISO_8,3,5,80,127,1853792640
30,18,7,Jits_ISO_8,0,1,48,33,1854457832
30,18,7,Jits_ISO_8,1,5,80,127,1854492932
30,18,7,Jits_ISO_8,2,5,56,103,1854512644
30,18,7,Jits_ISO_8,3,5,63,98,1854583056
30,18,7,Jits_ISO_8,0,5,80,127,1855292872
30,18,7,Jits_ISO_8,1,5,63,98,1855313256
30,18,7,Jits_ISO_8,2,1,48,40,1855332336
30,18,7,Jits_ISO_8,3,5,56,103,1855343072
30,18,7,Jits_ISO_8,0,5,80,127,1856083228
30,18,7,Jits_ISO_8,1,1,48,44,1856089860
30,18,7,Jits_ISO_8,2,5,63,98,1856102856
30,18,7,Jits_ISO_8,3,5,56,103,1856163172
30,18,7,Jits_ISO_8,0,1,48,40,1856864556
30,18,7,Jits_ISO_8,1,5,80,127,1856883012
30,18,7,Jits_ISO_8,2,5,56,103,1856983348
30,18,7,Jits_ISO_8,3,5,63,98,1857013248
30,18,7,Jits_ISO_8,0,5,63,98,1857672692
30,18,7,Jits_ISO_8,1,5,80,127,1857722700
30,18,7,Jits_ISO_8,2,1,48,51,1857740640
30,18,7,Jits_ISO_8,3,5,56,103,1857743228
30,18,7,Jits_ISO_8,0,5,80,127,1858513332
30,18,7,Jits_ISO_8,1,1,48,45,1858519520
30,18,7,Jits_ISO_8,2,5,56,103,1858542924
30,18,7,Jits_ISO_8,3,5,63,98,1858545992
30,18,7,Jits_ISO_8,0,1,48,43,1859321784
30,18,7,Jits_ISO_8,1,5,63,98,1859342636
30,18,7,Jits_ISO_8,2,5,56,103,1859382652
30,18,7,Jits_ISO_8,3,5,80,127,1859403036
30,18,7,Jits_ISO_8,0,5,80,127,1860082944
30,18,7,Jits_ISO_8,1,5,63,98,1860162892
30,18,7,Jits_ISO_8,2,1,48,41,1860186536
30,18,7,Jits_ISO_8,3,5,56,103,1860202820
30,18,7,Jits_ISO_8,0,5,63,98,1860903348
30,18,7,Jits_ISO_8,1,1,48,44,1860948196
30,18,7,Jits_ISO_8,2,5,80,127,1860983064
30,18,7,Jits_ISO_8,3,5,56,103,1861002776
30,18,7,Jits_ISO_8,0,1,48,46,1861727600
30,18,7,Jits_ISO_8,1,5,56,103,1861742916
30,18,7,Jits_ISO_8,2,5,63,98,1861753112
30,18,7,Jits_ISO_8,3,5,80,127,1861793052
30,18,7,Jits_ISO_8,0,5,56,103,1862462840
30,18,7,Jits_ISO_8,1,5,80,127,1862465756
30,18,7,Jits_ISO_8,2,1,48,48,1862493604
30,18,7,Jits_ISO_8,3,5,63,98,1862603240
30,18,7,Jits_ISO_8,0,5,56,103,1863253484
30,18,7,Jits_ISO_8,1,1,48,39,1863270772
30,18,7,Jits_ISO_8,2,5,63,98,1863342592
30,18,7,Jits_ISO_8,3,5,80,127,1863413004
30,18,7,Jits_ISO_8,0,1,48,33,1864095208
30,18,7,Jits_ISO_8,1,5,63,98,1864133020
30,18,7,Jits_ISO_8,2,5,80,127,1864136308
30,18,7,Jits_ISO_8,3,5,56,103,1864193560
30,18,7,Jits_ISO_8,0,1,48,48,1864865460
30,18,7,Jits_ISO_8,1,5,80,127,1864972568
30,18,7,Jits_ISO_8,2,5,56,103,1864993104
30,18,7,Jits_ISO_8,3,5,63,98,1865003524
30,18,7,Jits_ISO_8,0,5,56,103,1865683444
30,18,7,Jits_ISO_8,1,5,63,98,1865692520
30,18,7,Jits_ISO_8,2,1,48,48,1865695564
30,18,7,Jits_ISO_8,3,5,80,127,1865763240
30,18,7,Jits_ISO_8,0,1,48,43,1866443876
30,18,7,Jits_ISO_8,1,5,80,127,1866482936
30,18,7,Jits_ISO_8,2,5,56,103,1866533512
30,18,7,Jits_ISO_8,3,5,63,98,1866583328
30,18,7,Jits_ISO_8,0,1,48,49,1867276400
30,18,7,Jits_ISO_8,1,5,56,103,1867362664
30,18,7,Jits_ISO_8,2,5,63,98,1867372920
30,18,7,Jits_ISO_8,3,5,80,127,1867412708
30,18,7,Jits_ISO_8,0,5,56,103,1868103048
30,18,7,Jits_ISO_8,1,1,48,44,1868111864
30,18,7,Jits_ISO_8,2,5,63,98,1868143056
30,18,7,Jits_ISO_8,3,5,80,127,1868193332
30,18,7,Jits_ISO_8,0,5,80,127,1868862764
30,18,7,Jits_ISO_8,1,1,48,48,1868892340
30,18,7,Jits_ISO_8,2,5,56,103,1868912960
30,18,7,Jits_ISO_8,3,5,63,98,1868932524
30,18,7,Jits_ISO_8,0,5,80,127,1869672744
30,18,7,Jits_ISO_8,1,1,48,47,1869677356
30,18,7,Jits_ISO_8,2,5,63,98,1869733280
30,18,7,Jits_ISO_8,3,5,56,103,1869813232
30,18,7,Jits_ISO_8,0,5,80,127,1870453208
30,18,7,Jits_ISO_8,1,1,48,46,1870470104
30,18,7,Jits_ISO_8,2,5,56,103,1870493144
30,18,7,Jits_ISO_8,3,5,63,98,1870512432
30,18,7,Jits_ISO_8,0,1,48,43,1871238352
30,18,7,Jits_ISO_8,1,5,56,103,1871303144
30,18,7,Jits_ISO_8,2,5,80,127,1871313264
30,18,7,Jits_ISO_8,3,5,63,98,1871353264
30,18,7,Jits_ISO_8,0,1,48,45,1872066184
30,18,7,Jits_ISO_8,1,5,56,103,1872173340
30,18,7,Jits_ISO_8,2,5,63,98,1872213352
30,18,7,Jits_ISO_8,3,5,80,127,1872216644
30,18,7,Jits_ISO_8,0,5,63,98,1872862484
30,18,7,Jits_ISO_8,1,5,80,127,1872902648
30,18,7,Jits_ISO_8,2,1,48,41,1872941212
30,18,7,Jits_ISO_8,3,5,56,103,1872973292
30,18,7,Jits_ISO_8,0,5,63,98,1873652976
30,18,7,Jits_ISO_8,1,1,48,41,1873671760
30,18,7,Jits_ISO_8,2,5,56,103,1873733140
30,18,7,Jits_ISO_8,3,5,80,127,1873793364
30,18,7,Jits_ISO_8,0,5,80,127,1874463024
30,18,7,Jits_ISO_8,1,1,48,43,1874474980
30,18,7,Jits_ISO_8,2,5,63,98,1874513220
30,18,7,Jits_ISO_8,3,5,56,103,1874543044
30,18,7,Jits_ISO_8,0,5,56,103,1875252480
30,18,7,Jits_ISO_8,1,5,63,98,1875302980
30,18,7,Jits_ISO_8,2,5,80,127,1875313176
30,18,7,Jits_ISO_8,3,1,48,42,1875327156
30,18,7,Jits_ISO_8,0,5,56,103,1876062680
30,18,7,Jits_ISO_8,1,1,48,46,1876075692
30,18,7,Jits_ISO_8,2,5,63,98,1876173048
30,18,7,Jits_ISO_8,3,5,80,127,1876192760
30,18,7,Jits_ISO_8,0,5,63,98,1876863376
30,18,7,Jits_ISO_8,1,1,48,45,1876899456
30,18,7,Jits_ISO_8,2,5,80,127,1876912552
30,18,7,Jits_ISO_8,3,5,56,103,1877002668
30,18,7,Jits_ISO_8,0,5,63,98,1877653048
30,18,7,Jits_ISO_8,1,1,48,43,1877670048
30,18,7,Jits_ISO_8,2,5,80,127,1877682668
30,18,7,Jits_ISO_8,3,5,56,103,1877772636
30,18,7,Jits_ISO_8,0,1,48,48,1878442708
30,18,7,Jits_ISO_8,1,5,63,98,1878453068
30,18,7,Jits_ISO_8,2,5,56,103,1878463116
30,18,7,Jits_ISO_8,3,5,80,127,1878563276
30,18,7,Jits_ISO_8,0,1,48,48,1879228544
30,18,7,Jits_ISO_8,1,5,63,98,1879352784
30,18,7,Jits_ISO_8,2,5,80,127,1879383432
30,18,7,Jits_ISO_8,3,5,56,103,1879413032
30,18,7,Jits_ISO_8,0,1,48,44,1880143352
30,18,7,Jits_ISO_8,1,5,80,127,1880172972
30,18,7,Jits_ISO_8,2,5,63,98,1880183240
30,18,7,Jits_ISO_8,3,5,56,103,1880212916
30,18,7,Jits_ISO_8,0,5,80,127,1880873348
30,18,7,Jits_ISO_8,1,5,63,98,1880892688
30,18,7,Jits_ISO_8,2,5,56,103,1880942888
30,18,7,Jits_ISO_8,3,1,48,40,1880959708
30,18,7,Jits_ISO_8,0,1,48,40,1881673864
30,18,7,Jits_ISO_8,1,5,63,98,1881702736
30,18,7,Jits_ISO_8,2,5,80,127,1881763200
30,18,7,Jits_ISO_8,3,5,56,103,1881782600
30,18,7,Jits_ISO_8,0,1,48,39,1882443504
30,18,7,Jits_ISO_8,1,5,63,98,1882462712
30,18,7,Jits_ISO_8,2,5,56,103,1882512916
30,18,7,Jits_ISO_8,3,5,80,127,1882522888
30,18,7,Jits_ISO_8,0,1,48,40,1883232648
30,18,7,Jits_ISO_8,1,5,56,103,1883292912
30,18,7,Jits_ISO_8,2,5,80,127,1883303132
30,18,7,Jits_ISO_8,3,5,63,98,1883402764
30,18,7,Jits_ISO_8,0,5,80,127,1884052844
30,18,7,Jits_ISO_8,1,5,63,98,1884063188
30,18,7,Jits_ISO_8,2,1,48,40,1884076296
30,18,7,Jits_ISO_8,3,5,56,103,1884212732
30,18,7,Jits_ISO_8,0,5,63,98,1884862780
30,18,7,Jits_ISO_8,1,1,48,39,1884896088
30,18,7,Jits_ISO_8,2,5,80,127,1884902640
30,18,7,Jits_ISO_8,3,5,56,103,1884982584
30,18,7,Jits_ISO_8,0,1,48,37,1885646944
30,18,7,Jits_ISO_8,1,5,56,103,1885653412
30,18,7,Jits_ISO_8,2,5,80,127,1885752680
30,18,7,Jits_ISO_8,3,5,63,98,1885773140
30,18,7,Jits_ISO_8,0,1,48,40,1886461048
30,18,7,Jits_ISO_8,1,5,80,127,1886512468
30,18,7,Jits_ISO_8,2,5,56,103,1886522888
30,18,7,Jits_ISO_8,3,5,63,98,1886612780
30,18,7,Jits_ISO_8,0,1,48,38,1887292528
30,18,7,Jits_ISO_8,1,5,56,103,1887313376
30,18,7,Jits_ISO_8,2,5,63,98,1887332716
30,18,7,Jits_ISO_8,3,5,80,127,1887412520
30,18,7,Jits_ISO_8,0,5,63,98,1888062900
30,18,7,Jits_ISO_8,1,1,48,39,1888108264
30,18,7,Jits_ISO_8,2,5,56,103,1888153024
30,18,7,Jits_ISO_8,3,5,80,127,1888155944
30,18,7,Jits_ISO_8,0,1,48,41,1888859032
30,18,7,Jits_ISO_8,1,5,56,103,1888893380
30,18,7,Jits_ISO_8,2,5,80,127,1888952676
30,18,7,Jits_ISO_8,3,5,63,98,1888962932
30,18,7,Jits_ISO_8,0,1,48,40,1889648404
30,18,7,Jits_ISO_8,1,5,80,127,1889743300
30,18,7,Jits_ISO_8,2,5,56,103,1889752376
30,18,7,Jits_ISO_8,3,5,63,98,1889755440
30,18,7,Jits_ISO_8,0,1,48,40,1890474588
30,18,7,Jits_ISO_8,1,5,56,103,1890502936
30,18,7,Jits_ISO_8,2,5,80,127,1890513504
30,18,7,Jits_ISO_8,3,5,63,98,1890532620
30,18,7,Jits_ISO_8,0,1,48,40,1891265300
30,18,7,Jits_ISO_8,1,5,63,98,1891273196
30,18,7,Jits_ISO_8,2,5,80,127,1891332468
30,18,7,Jits_ISO_8,3,5,56,103,1891382580
30,18,7,Jits_ISO_8,0,1,48,39,1892031004
30,18,7,Jits_ISO_8,1,5,63,98,1892152612
30,18,7,Jits_ISO_8,2,5,56,103,1892162880
30,18,7,Jits_ISO_8,3,5,80,127,1892213232
30,18,7,Jits_ISO_8,0,5,63,98,1892853220
30,18,7,Jits_ISO_8,1,5,80,127,1892872632
30,18,7,Jits_ISO_8,2,5,56,103,1892882756
30,18,7,Jits_ISO_8,3,1,48,43,1892918384
30,18,7,Jits_ISO_8,0,1,48,38,1893649204
30,18,7,Jits_ISO_8,1,5,63,98,1893652988
30,18,7,Jits_ISO_8,2,5,80,127,1893656200
30,18,7,Jits_ISO_8,3,5,56,103,1893692776
30,18,7,Jits_ISO_8,0,1,48,36,1894438184
30,18,7,Jits_ISO_8,1,5,63,98,1894523256
30,18,7,Jits_ISO_8,2,5,80,127,1894553068
30,18,7,Jits_ISO_8,3,5,56,103,1894563264
30,18,7,Jits_ISO_8,0,1,48,41,1895234008
30,18,7,Jits_ISO_8,1,5,56,103,1895273140
30,18,7,Jits_ISO_8,2,5,80,127,1895302596
30,18,7,Jits_ISO_8,3,5,63,98,1895333324
30,18,7,Jits_ISO_8,0,1,48,37,1895995500
30,18,7,Jits_ISO_8,1,5,63,98,1896172956
30,18,7,Jits_ISO_8,2,5,56,103,1896212820
30,18,7,Jits_ISO_8,3,5,80,127,1896216108
30,18,7,Jits_ISO_8,0,5,80,127,1896873264
30,18,7,Jits_ISO_8,1,1,48,37,1896933852
30,18,7,Jits_ISO_8,2,5,56,103,1896953128
30,18,7,Jits_ISO_8,3,5,63,98,1897003260
30,18,7,Jits_ISO_8,0,5,80,127,1897652460
30,18,7,Jits_ISO_8,1,1,48,38,1897670480
30,18,7,Jits_ISO_8,2,5,56,103,1897673064
30,18,7,Jits_ISO_8,3,5,63,98,1897763268
30,18,7,Jits_ISO_8,0,1,48,40,1898413932
30,18,7,Jits_ISO_8,1,5,80,127,1898493304
30,18,7,Jits_ISO_8,2,5,63,98,1898533156
30,18,7,Jits_ISO_8,3,5,56,103,1898573096
30,18,7,Jits_ISO_8,0,1,48,39,1899232384
30,18,7,Jits_ISO_8,1,5,63,98,1899263344
30,18,7,Jits_ISO_8,2,5,80,127,1899322912
30,18,7,Jits_ISO_8,3,5,56,103,1899352572
30,18,7,Jits_ISO_8,0,1,48,42,1900022420
30,18,7,Jits_ISO_8,1,5,56,103,1900063128
30,18,7,Jits_ISO_8,2,5,80,127,1900092880
30,18,7,Jits_ISO_8,3,5,63,98,1900182848
30,18,7,Jits_ISO_8,0,1,48,39,1900845572
30,18,7,Jits_ISO_8,1,5,56,103,1900873024
30,18,7,Jits_ISO_8,2,5,80,127,1900982872
30,18,7,Jits_ISO_8,3,5,63,98,1901013372
30,18,7,Jits_ISO_8,0,1,48,39,1901666860
30,18,7,Jits_ISO_8,1,5,56,103,1901723084
30,18,7,Jits_ISO_8,2,5,63,98,1901783340
30,18,7,Jits_ISO_8,3,5,80,127,1901813160
30,18,7,Jits_ISO_8,0,5,56,103,1902492988
30,18,7,Jits_ISO_8,1,1,48,37,1902513064
30,18,7,Jits_ISO_8,2,5,63,98,1902562912
30,18,7,Jits_ISO_8,3,5,80,127,1902583148
30,18,7,Jits_ISO_8,0,5,80,127,1903263044
30,18,7,Jits_ISO_8,1,5,63,98,1903282408
30,18,7,Jits_ISO_8,2,1,48,34,1903302236
30,18,7,Jits_ISO_8,3,5,56,103,1903332676
30,18,7,Jits_ISO_8,0,9999,9999,9999,1808530500
30,18,7,Jits_ISO_8,1,9999,9999,9999,1809330280
30,18,7,Jits_ISO_8,2,9999,9999,9999,1810131036
30,18,7,Jits_ISO_8,3,9999,9999,9999,1810930744
30,18,7,Jits_ISO_8,4,9999,9999,9999,1811730536
30,18,7,Jits_ISO_8,5,9999,9999,9999,1812530248
30,18,7,Jits_ISO_8,6,9999,9999,9999,1813331000
30,18,7,Jits_ISO_8,7,9999,9999,9999,1814130800
30,18,7,Jits_ISO_8,8,9999,9999,9999,1814930516
30,18,7,Jits_ISO_8,9,9999,9999,9999,1815730236
30,18,7,Jits_ISO_8,10,9999,9999,9999,1816531016
30,18,7,Jits_ISO_8,11,9999,9999,9999,1817330800
30,18,7,Jits_ISO_8,12,9999,9999,9999,1818130516
30,18,7,Jits_ISO_8,13,9999,9999,9999,1818930232
30,18,7,Jits_ISO_8,14,9999,9999,9999,1819731052
30,18,7,Jits_ISO_8,15,9999,9999,9999,1820530768
30,18,7,Jits_ISO_8,16,9999,9999,9999,1821330532
30,18,7,Jits_ISO_8,17,9999,9999,9999,1822130272
30,18,7,Jits_ISO_8,18,9999,9999,9999,1822931032
30,18,7,Jits_ISO_8,19,9999,9999,9999,1823730760
30,18,7,Jits_ISO_8,20,9999,9999,9999,1824530540
30,18,7,Jits_ISO_8,21,9999,9999,9999,1825330248
30,18,7,Jits_ISO_8,22,9999,9999,9999,1826130996
30,18,7,Jits_ISO_8,23,9999,9999,9999,1826930776
30,18,7,Jits_ISO_8,24,9999,9999,9999,1827730484
30,18,7,Jits_ISO_8,25,9999,9999,9999,1828530288
30,18,7,Jits_ISO_8,26,9999,9999,9999,1829331044
30,18,7,Jits_ISO_8,27,9999,9999,9999,1830130752
30,18,7,Jits_ISO_8,28,9999,9999,9999,1830930548
30,18,7,Jits_ISO_8,29,9999,9999,9999,1831730268
30,18,7,Jits_ISO_8,30,9999,9999,9999,1832531020
30,18,7,Jits_ISO_8,31,9999,9999,9999,1833330804
30,18,7,Jits_ISO_8,32,9999,9999,9999,1834130516
30,18,7,Jits_ISO_8,33,9999,9999,9999,1834930256
30,18,7,Jits_ISO_8,34,9999,9999,9999,1835731028
30,18,7,Jits_ISO_8,35,9999,9999,9999,1836530740
30,18,7,Jits_ISO_8,36,9999,9999,9999,1837330528
30,18,7,Jits_ISO_8,37,9999,9999,9999,1838130256
30,18,7,Jits_ISO_8,38,9999,9999,9999,1838931020
30,18,7,Jits_ISO_8,39,9999,9999,9999,1839730748
30,18,7,Jits_ISO_8,40,9999,9999,9999,1840530552
30,18,7,Jits_ISO_8,41,9999,9999,9999,1841330300
30,18,7,Jits_ISO_8,42,9999,9999,9999,1842131052
30,18,7,Jits_ISO_8,43,9999,9999,9999,1842930764
30,18,7,Jits_ISO_8,44,9999,9999,9999,1843730528
30,18,7,Jits_ISO_8,45,9999,9999,9999,1844530240
30,18,7,Jits_ISO_8,46,9999,9999,9999,1845330996
30,18,7,Jits_ISO_8,47,9999,9999,9999,1846130784
30,18,7,Jits_ISO_8,48,9999,9999,9999,1846930504
30,18,7,Jits_ISO_8,49,9999,9999,9999,1847730236
30,18,7,Jits_ISO_8,50,9999,9999,9999,1848531064
30,18,7,Jits_ISO_8,51,9999,9999,9999,1849330772
30,18,7,Jits_ISO_8,52,9999,9999,9999,1850130484
30,18,7,Jits_ISO_8,53,9999,9999,9999,1850930272
30,18,7,Jits_ISO_8,54,9999,9999,9999,1851731020
30,18,7,Jits_ISO_8,55,9999,9999,9999,1852530744
30,18,7,Jits_ISO_8,56,9999,9999,9999,1853330524
30,18,7,Jits_ISO_8,57,9999,9999,9999,1854130272
30,18,7,Jits_ISO_8,58,9999,9999,9999,1854931044
30,18,7,Jits_ISO_8,59,9999,9999,9999,1855730752
30,18,7,Jits_ISO_8,60,9999,9999,9999,1856530548
30,18,7,Jits_ISO_8,61,9999,9999,9999,1857330272
30,18,7,Jits_ISO_8,62,9999,9999,9999,1858131028
30,18,7,Jits_ISO_8,63,9999,9999,9999,1858930800
30,18,7,Jits_ISO_8,64,9999,9999,9999,1859730532
30,18,7,Jits_ISO_8,65,9999,9999,9999,1860530268
30,18,7,Jits_ISO_8,66,9999,9999,9999,1861331044
30,18,7,Jits_ISO_8,67,9999,9999,9999,1862130760
30,18,7,Jits_ISO_8,68,9999,9999,9999,1862930528
30,18,7,Jits_ISO_8,69,9999,9999,9999,1863730252
30,18,7,Jits_ISO_8,70,9999,9999,9999,1864531020
30,18,7,Jits_ISO_8,71,9999,9999,9999,1865330808
30,18,7,Jits_ISO_8,72,9999,9999,9999,1866130516
30,18,7,Jits_ISO_8,73,9999,9999,9999,1866930264
30,18,7,Jits_ISO_8,74,9999,9999,9999,1867731028
30,18,7,Jits_ISO_8,75,9999,9999,9999,1868530744
30,18,7,Jits_ISO_8,76,9999,9999,9999,1869330536
30,18,7,Jits_ISO_8,77,9999,9999,9999,1870130256
30,18,7,Jits_ISO_8,78,9999,9999,9999,1870931020
30,18,7,Jits_ISO_8,79,9999,9999,9999,1871730740
30,18,7,Jits_ISO_8,80,9999,9999,9999,1872530528
30,18,7,Jits_ISO_8,81,9999,9999,9999,1873330256
30,18,7,Jits_ISO_8,82,9999,9999,9999,1874131012
30,18,7,Jits_ISO_8,83,9999,9999,9999,1874930792
30,18,7,Jits_ISO_8,84,9999,9999,9999,1875730512
30,18,7,Jits_ISO_8,85,9999,9999,9999,1876530236
30,18,7,Jits_ISO_8,86,9999,9999,9999,1877331004
30,18,7,Jits_ISO_8,87,9999,9999,9999,1878130788
30,18,7,Jits_ISO_8,88,9999,9999,9999,1878930488
30,18,7,Jits_ISO_8,89,9999,9999,9999,1879730232
30,18,7,Jits_ISO_8,90,9999,9999,9999,1880531000
30,18,7,Jits_ISO_8,91,9999,9999,9999,1881330780
30,18,7,Jits_ISO_8,92,9999,9999,9999,1882130484
30,18,7,Jits_ISO_8,93,9999,9999,9999,1882930264
30,18,7,Jits_ISO_8,94,9999,9999,9999,1883731024
30,18,7,Jits_ISO_8,95,9999,9999,9999,1884530804
30,18,7,Jits_ISO_8,96,9999,9999,9999,1885330528
30,18,7,Jits_ISO_8,97,9999,9999,9999,1886130264
30,18,7,Jits_ISO_8,98,9999,9999,9999,1886931024
30,18,7,Jits_ISO_8,99,9999,9999,9999,1887730740
30,18,7,Jits_ISO_8,100,9999,9999,9999,1888530516
30,18,7,Jits_ISO_8,101,9999,9999,9999,1889330300
30,18,7,Jits_ISO_8,102,9999,9999,9999,1890131052
30,18,7,Jits_ISO_8,103,9999,9999,9999,1890930756
30,18,7,Jits_ISO_8,104,9999,9999,9999,1891730540
30,18,7,Jits_ISO_8,105,9999,9999,9999,1892530280
30,18,7,Jits_ISO_8,106,9999,9999,9999,1893331028
30,18,7,Jits_ISO_8,107,9999,9999,9999,1894130792
30,18,7,Jits_ISO_8,108,9999,9999,9999,1894930504
30,18,7,Jits_ISO_8,109,9999,9999,9999,1895730284
30,18,7,Jits_ISO_8,110,9999,9999,9999,1896531040
30,18,7,Jits_ISO_8,111,9999,9999,9999,1897330752
30,18,7,Jits_ISO_8,112,9999,9999,9999,1898130548
30,18,7,Jits_ISO_8,113,9999,9999,9999,1898930296
30,18,7,Jits_ISO_8,114,9999,9999,9999,1899731052
30,18,7,Jits_ISO_8,115,9999,9999,9999,1900530756
30,18,7,Jits_ISO_8,116,9999,9999,9999,1901330544
30,18,7,Jits_ISO_8,117,9999,9999,9999,1902130260
30,18,7,Jits_ISO_8,118,9999,9999,9999,1902931020
30,18,7,Jits_ISO_8,119,9999,9999,9999,1903730812
30,19,5,ISIP_5,0,5,42,127,1971437856
30,19,5,ISIP_5,1,5,42,127,1971937872
30,19,5,ISIP_5,2,1,48,21,1972075852
30,19,5,ISIP_5,3,5,42,127,1972438392
30,19,5,ISIP_5,4,1,48,26,1972487956
30,19,5,ISIP_5,5,5,42,127,1972938160
30,19,5,ISIP_5,6,1,48,28,1972961028
30,19,5,ISIP_5,7,5,42,127,1973437708
30,19,5,ISIP_5,8,1,48,30,1973475008
30,19,5,ISIP_5,9,5,42,127,1973937624
30,19,5,ISIP_5,10,1,48,30,1973948000
30,19,5,ISIP_5,11,5,42,127,1974438144
30,19,5,ISIP_5,12,1,48,32,1974446796
30,19,5,ISIP_5,13,5,42,127,1974937888
30,19,5,ISIP_5,14,1,48,32,1974979632
30,19,5,ISIP_5,15,5,42,127,1975437732
30,19,5,ISIP_5,16,1,48,38,1975456808
30,19,5,ISIP_5,17,5,42,127,1975938400
30,19,5,ISIP_5,18,1,48,35,1975954684
30,19,5,ISIP_5,19,5,42,127,1976438168
30,19,5,ISIP_5,20,1,48,37,1976449664
30,19,5,ISIP_5,21,5,42,127,1976937712
30,19,5,ISIP_5,22,1,48,30,1976983240
30,19,5,ISIP_5,23,5,42,127,1977437560
30,19,5,ISIP_5,24,1,48,33,1977459752
30,19,5,ISIP_5,25,5,42,127,1977938300
30,19,5,ISIP_5,26,1,48,32,1977947624
30,19,5,ISIP_5,27,1,48,32,1978438140
30,19,5,ISIP_5,28,5,42,127,1978439708
30,19,5,ISIP_5,29,1,48,31,1978938132
30,19,5,ISIP_5,30,5,42,127,1978939476
30,19,5,ISIP_5,31,5,42,127,1979437532
30,19,5,ISIP_5,32,1,48,36,1979462192
30,19,5,ISIP_5,33,1,48,34,1979938272
30,19,5,ISIP_5,34,5,42,127,1979939832
30,19,5,ISIP_5,35,5,42,127,1980437964
30,19,5,ISIP_5,36,1,48,35,1980438932
30,19,5,ISIP_5,37,5,42,127,1980937512
30,19,5,ISIP_5,38,1,48,29,1980940636
30,19,5,ISIP_5,39,5,42,127,1981438480
30,19,5,ISIP_5,40,1,48,30,1981440124
30,19,5,ISIP_5,41,5,42,127,1981938172
30,19,5,ISIP_5,42,1,48,31,1981940692
30,19,5,ISIP_5,43,5,42,127,1982437720
30,19,5,ISIP_5,44,1,48,27,1982461040
30,19,5,ISIP_5,45,1,48,28,1982919948
30,19,5,ISIP_5,46,5,42,127,1982937556
30,19,5,ISIP_5,47,1,48,38,1983423452
30,19,5,ISIP_5,48,5,42,127,1983438148
30,19,5,ISIP_5,49,5,42,127,1983938072
30,19,5,ISIP_5,50,1,48,38,1983948520
30,19,5,ISIP_5,51,5,42,127,1984437548
30,19,5,ISIP_5,52,1,48,39,1984464452
30,19,5,ISIP_5,53,5,42,127,1984938288
30,19,5,ISIP_5,54,1,48,38,1984969528
30,19,5,ISIP_5,55,5,42,127,1985438208
30,19,5,ISIP_5,56,1,48,36,1985477756
30,19,5,ISIP_5,57,5,42,127,1985937800
30,19,5,ISIP_5,58,1,48,38,1985954188
30,19,5,ISIP_5,59,5,42,127,1986437348
30,19,5,ISIP_5,60,1,48,40,1986455200
30,19,5,ISIP_5,61,5,42,127,1986938164
30,19,5,ISIP_5,62,1,48,37,1986945020
30,19,5,ISIP_5,63,5,42,127,1987438080
30,19,5,ISIP_5,64,1,48,39,1987446812
30,19,5,ISIP_5,65,5,42,127,1987937776
30,19,5,ISIP_5,66,1,48,35,1987956980
30,19,5,ISIP_5,67,5,42,127,1988438372
30,19,5,ISIP_5,68,1,48,38,1988454436
30,19,5,ISIP_5,69,5,42,127,1988937992
30,19,5,ISIP_5,70,1,48,38,1988947996
30,19,5,ISIP_5,71,5,42,127,1989437836
30,19,5,ISIP_5,72,1,48,36,1989457408
30,19,5,ISIP_5,73,5,42,127,1989937380
30,19,5,ISIP_5,74,1,48,37,1989945736
30,19,5,ISIP_5,75,1,48,35,1990428884
30,19,5,ISIP_5,76,5,42,127,1990438192
30,19,5,ISIP_5,77,1,48,34,1990935160
30,19,5,ISIP_5,78,5,42,127,1990937960
30,19,5,ISIP_5,79,1,48,31,1991413536
30,19,5,ISIP_5,80,1,48,30,1991967992
30,19,5,ISIP_5,81,1,48,37,1992477404
30,19,5,ISIP_5,82,1,48,35,1992983008
30,19,5,ISIP_5,83,1,48,35,1993493696
30,19,5,ISIP_5,84,1,48,33,1994006468
30,19,5,ISIP_5,85,1,48,36,1994525760
30,19,5,ISIP_5,86,1,48,34,1995048116
30,19,5,ISIP_5,87,1,48,36,1995579444
30,19,5,ISIP_5,88,1,48,37,1996072180
30,19,5,ISIP_5,89,1,48,35,1996593412
30,19,5,ISIP_5,90,1,48,40,1997141572
30,19,5,ISIP_5,91,1,48,37,1997656592
30,19,5,ISIP_5,92,1,48,40,1998188972
30,19,5,ISIP_5,93,1,48,35,1998707956
30,19,5,ISIP_5,94,1,48,33,1999238168
30,19,5,ISIP_5,95,1,48,39,1999760368
30,19,5,ISIP_5,96,1,48,32,2000268588
30,19,5,ISIP_5,97,1,48,35,2000781448
30,19,5,ISIP_5,98,1,48,35,2001314292
30,19,5,ISIP_5,99,1,48,36,2001842408
30,19,5,ISIP_5,100,1,48,33,2002372540
30,19,5,ISIP_5,101,1,48,34,2002905516
30,19,5,ISIP_5,102,1,48,33,2003429444
30,19,5,ISIP_5,103,1,48,38,2003952784
30,19,5,ISIP_5,104,1,48,33,2004450604
30,19,5,ISIP_5,105,1,48,38,2004972584
30,19,5,ISIP_5,106,1,48,32,2005496208
30,19,5,ISIP_5,107,1,48,35,2006027908
30,19,5,ISIP_5,108,1,48,36,2006540240
30,19,5,ISIP_5,109,1,48,33,2007066260
30,19,5,ISIP_5,110,1,48,29,2007590188
30,19,5,ISIP_5,111,1,48,36,2008150540
30,19,5,ISIP_5,112,1,48,34,2008661672
30,19,5,ISIP_5,113,1,48,35,2009203624
30,19,5,ISIP_5,114,1,48,38,2009707656
30,19,5,ISIP_5,115,1,48,36,2010234420
30,19,5,ISIP_5,116,1,48,32,2010756996
30,19,5,ISIP_5,117,1,48,34,2011276436
30,19,5,ISIP_5,118,1,48,31,2011793856
30,19,5,ISIP_5,119,1,48,31,2012328496
30,19,5,ISIP_5,120,1,48,28,2012855344
30,19,5,ISIP_5,121,1,48,37,2013385776
30,19,5,ISIP_5,122,1,48,40,2013920244
30,19,5,ISIP_5,123,1,48,40,2014466624
30,19,5,ISIP_5,124,1,48,44,2014983968
30,19,5,ISIP_5,125,1,48,38,2015509160
30,19,5,ISIP_5,126,1,48,41,2016030472
30,19,5,ISIP_5,127,1,48,45,2016562100
30,19,5,ISIP_5,128,1,48,40,2017090740
30,19,5,ISIP_5,129,1,48,34,2017614068
30,19,5,ISIP_5,130,1,48,44,2018144192
30,19,5,ISIP_5,131,1,48,41,2018664532
30,19,5,ISIP_5,132,1,48,38,2019201176
30,19,5,ISIP_5,133,1,48,41,2019713056
30,19,5,ISIP_5,134,1,48,37,2020234132
30,19,5,ISIP_5,135,1,48,42,2020755288
30,19,5,ISIP_5,136,1,48,34,2021270988
30,19,5,ISIP_5,137,1,48,39,2021797628
30,19,5,ISIP_5,138,1,48,35,2022331728
30,19,5,ISIP_5,139,1,48,47,2022831864
30,19,5,ISIP_5,140,1,48,35,2023341728
30,19,5,ISIP_5,141,1,48,34,2023877544
30,19,5,ISIP_5,142,1,48,38,2024387112
30,19,5,ISIP_5,143,1,48,39,2024919936
30,19,5,ISIP_5,144,1,48,37,2025440812
30,19,5,ISIP_5,145,1,48,38,2025969296
30,19,5,ISIP_5,146,1,48,21,2026507132
30,19,5,ISIP_5,147,1,48,42,2027024408
30,19,5,ISIP_5,148,1,48,43,2027531576
30,19,5,ISIP_5,149,1,48,37,2028051308
30,19,5,ISIP_5,150,1,48,43,2028548604
30,19,5,ISIP_5,151,1,48,40,2029085772
30,19,5,ISIP_5,152,1,48,45,2029614412
30,19,5,ISIP_5,153,1,48,39,2030142600
30,19,5,ISIP_5,154,1,48,40,2030690156
30,19,5,ISIP_5,155,1,48,40,2031223732
30,19,5,ISIP_5,156,1,48,37,2031755884
30,19,5,ISIP_5,157,1,48,40,2032293744
30,19,5,ISIP_5,158,1,48,39,2032816252
30,19,5,ISIP_5,159,1,48,43,2033357376
30,19,5,ISIP_5,160,1,48,40,2033887060
30,19,5,ISIP_5,161,1,48,46,2034412408
30,19,5,ISIP_5,162,1,48,34,2034932372
30,19,5,ISIP_5,163,1,48,43,2035462668
30,19,5,ISIP_5,164,1,48,40,2035991008
30,19,5,ISIP_5,165,1,48,41,2036496460
30,19,5,ISIP_5,166,1,48,38,2037042148
30,19,5,ISIP_5,167,1,48,43,2037556724
30,19,5,ISIP_5,168,1,48,43,2038093740
30,19,5,ISIP_5,169,1,48,45,2038625968
30,19,5,ISIP_5,170,1,48,41,2039168368
30,19,5,ISIP_5,171,1,48,43,2039696928
30,19,5,ISIP_5,172,1,48,39,2040249004
30,19,5,ISIP_5,173,1,48,44,2040766572
30,19,5,ISIP_5,174,1,48,39,2041302984
30,19,5,ISIP_5,175,1,48,43,2041852420
30,19,5,ISIP_5,176,1,48,41,2042360940
30,19,5,ISIP_5,177,1,48,39,2042899748
30,19,5,ISIP_5,178,1,48,43,2043426288
30,19,5,ISIP_5,179,1,48,41,2043969828
30,19,5,ISIP_5,180,1,48,42,2044483880
30,19,5,ISIP_5,181,1,48,40,2045011996
30,19,5,ISIP_5,182,1,48,41,2045528288
30,19,5,ISIP_5,183,1,48,46,2046063208
30,19,5,ISIP_5,184,1,48,38,2046603736
30,19,5,ISIP_5,185,1,48,41,2047141976
30,19,5,ISIP_5,186,1,48,44,2047688712
30,19,5,ISIP_5,187,1,48,45,2048220112
30,19,5,ISIP_5,188,1,48,42,2048733496
30,19,5,ISIP_5,189,1,48,41,2049250912
30,19,5,ISIP_5,190,1,48,43,2049784336
30,19,5,ISIP_5,191,1,48,43,2050313424
30,19,5,ISIP_5,192,1,48,41,2050847440
30,19,5,ISIP_5,193,1,48,43,2051389096
30,19,5,ISIP_5,0,9999,9999,9999,1971435568
30,19,5,ISIP_5,1,9999,9999,9999,1971935288
30,19,5,ISIP_5,2,9999,9999,9999,1972436028
30,19,5,ISIP_5,3,9999,9999,9999,1972935800
30,19,5,ISIP_5,4,9999,9999,9999,1973435496
30,19,5,ISIP_5,5,9999,9999,9999,1973935188
30,19,5,ISIP_5,6,9999,9999,9999,1974435932
30,19,5,ISIP_5,7,9999,9999,9999,1974935600
30,19,5,ISIP_5,8,9999,9999,9999,1975435368
30,19,5,ISIP_5,9,9999,9999,9999,1975936112
30,19,5,ISIP_5,10,9999,9999,9999,1976435804
30,19,5,ISIP_5,11,9999,9999,9999,1976935500
30,19,5,ISIP_5,12,9999,9999,9999,1977435196
30,19,5,ISIP_5,13,9999,9999,9999,1977935936
30,19,5,ISIP_5,14,9999,9999,9999,1978435632
30,19,5,ISIP_5,15,9999,9999,9999,1978935400
30,19,5,ISIP_5,16,9999,9999,9999,1979435096
30,19,5,ISIP_5,17,9999,9999,9999,1979935836
30,19,5,ISIP_5,18,9999,9999,9999,1980435532
30,19,5,ISIP_5,19,9999,9999,9999,1980935228
30,19,5,ISIP_5,20,9999,9999,9999,1981435968
30,19,5,ISIP_5,21,9999,9999,9999,1981935664
30,19,5,ISIP_5,22,9999,9999,9999,1982435432
30,19,5,ISIP_5,23,9999,9999,9999,1982935120
30,19,5,ISIP_5,24,9999,9999,9999,1983435864
30,19,5,ISIP_5,25,9999,9999,9999,1983935564
30,19,5,ISIP_5,26,9999,9999,9999,1984435260
30,19,5,ISIP_5,27,9999,9999,9999,1984936000
30,19,5,ISIP_5,28,9999,9999,9999,1985435748
30,19,5,ISIP_5,29,9999,9999,9999,1985935440
30,19,5,ISIP_5,30,9999,9999,9999,1986435136
30,19,5,ISIP_5,31,9999,9999,9999,1986935876
30,19,5,ISIP_5,32,9999,9999,9999,1987435572
30,19,5,ISIP_5,33,9999,9999,9999,1987935340
30,19,5,ISIP_5,34,9999,9999,9999,1988436084
30,19,5,ISIP_5,35,9999,9999,9999,1988935780
30,19,5,ISIP_5,36,9999,9999,9999,1989435476
30,19,5,ISIP_5,37,9999,9999,9999,1989935168
30,19,5,ISIP_5,38,9999,9999,9999,1990435904
30,19,5,ISIP_5,39,9999,9999,9999,1990935672
30,19,5,ISIP_5,40,9999,9999,9999,1991435368
30,19,5,ISIP_5,41,9999,9999,9999,1991936112
30,19,5,ISIP_5,42,9999,9999,9999,1992435804
30,19,5,ISIP_5,43,9999,9999,9999,1992935492
30,19,5,ISIP_5,44,9999,9999,9999,1993435184
30,19,5,ISIP_5,45,9999,9999,9999,1993935920
30,19,5,ISIP_5,46,9999,9999,9999,1994435688
30,19,5,ISIP_5,47,9999,9999,9999,1994935376
30,19,5,ISIP_5,48,9999,9999,9999,1995435068
30,19,5,ISIP_5,49,9999,9999,9999,1995935804
30,19,5,ISIP_5,50,9999,9999,9999,1996435544
30,19,5,ISIP_5,51,9999,9999,9999,1996935236
30,19,5,ISIP_5,52,9999,9999,9999,1997435972
30,19,5,ISIP_5,53,9999,9999,9999,1997935736
30,19,5,ISIP_5,54,9999,9999,9999,1998435428
30,19,5,ISIP_5,55,9999,9999,9999,1998935116
30,19,5,ISIP_5,56,9999,9999,9999,1999435856
30,19,5,ISIP_5,57,9999,9999,9999,1999935548
30,19,5,ISIP_5,58,9999,9999,9999,2000435312
30,19,5,ISIP_5,59,9999,9999,9999,2000936048
30,19,5,ISIP_5,60,9999,9999,9999,2001435740
30,19,5,ISIP_5,61,9999,9999,9999,2001935428
30,19,5,ISIP_5,62,9999,9999,9999,2002435136
30,19,5,ISIP_5,63,9999,9999,9999,2002935872
30,19,5,ISIP_5,64,9999,9999,9999,2003435640
30,19,5,ISIP_5,65,9999,9999,9999,2003935336
30,19,5,ISIP_5,66,9999,9999,9999,2004436072
30,19,5,ISIP_5,67,9999,9999,9999,2004935764
30,19,5,ISIP_5,68,9999,9999,9999,2005435456
30,19,5,ISIP_5,69,9999,9999,9999,2005935220
30,19,5,ISIP_5,70,9999,9999,9999,2006435960
30,19,5,ISIP_5,71,9999,9999,9999,2006935624
30,19,5,ISIP_5,72,9999,9999,9999,2007435316
30,19,5,ISIP_5,73,9999,9999,9999,2007936052
30,19,5,ISIP_5,74,9999,9999,9999,2008435816
30,19,5,ISIP_5,75,9999,9999,9999,2008935508
30,19,5,ISIP_5,76,9999,9999,9999,2009435200
30,19,5,ISIP_5,77,9999,9999,9999,2009935936
30,19,5,ISIP_5,78,9999,9999,9999,2010435700
30,19,5,ISIP_5,79,9999,9999,9999,2010935392
30,19,5,ISIP_5,80,9999,9999,9999,2011435084
30,19,5,ISIP_5,81,9999,9999,9999,2011935820
30,19,5,ISIP_5,82,9999,9999,9999,2012435508
30,19,5,ISIP_5,83,9999,9999,9999,2012935216
30,19,5,ISIP_5,84,9999,9999,9999,2013435956
30,19,5,ISIP_5,85,9999,9999,9999,2013935720
30,19,5,ISIP_5,86,9999,9999,9999,2014435416
30,19,5,ISIP_5,87,9999,9999,9999,2014935108
30,19,5,ISIP_5,88,9999,9999,9999,2015435844
30,19,5,ISIP_5,89,9999,9999,9999,2015935536
30,19,5,ISIP_5,90,9999,9999,9999,2016435300
30,19,5,ISIP_5,91,9999,9999,9999,2016936040
30,19,5,ISIP_5,92,9999,9999,9999,2017435732
30,19,5,ISIP_5,93,9999,9999,9999,2017935468
30,19,5,ISIP_5,94,9999,9999,9999,2018435160
30,19,5,ISIP_5,95,9999,9999,9999,2018935896
30,19,5,ISIP_5,96,9999,9999,9999,2019435588
30,19,5,ISIP_5,97,9999,9999,9999,2019935352
30,19,5,ISIP_5,98,9999,9999,9999,2020436088
30,19,5,ISIP_5,99,9999,9999,9999,2020935776
30,19,5,ISIP_5,100,9999,9999,9999,2021435468
30,19,5,ISIP_5,101,9999,9999,9999,2021935160
30,19,5,ISIP_5,102,9999,9999,9999,2022435896
30,19,5,ISIP_5,103,9999,9999,9999,2022935660
30,19,5,ISIP_5,104,9999,9999,9999,2023435368
30,19,5,ISIP_5,105,9999,9999,9999,2023936104
30,19,5,ISIP_5,106,9999,9999,9999,2024435796
30,19,5,ISIP_5,107,9999,9999,9999,2024935488
30,19,5,ISIP_5,108,9999,9999,9999,2025435184
30,19,5,ISIP_5,109,9999,9999,9999,2025935920
30,19,5,ISIP_5,110,9999,9999,9999,2026435688
30,19,5,ISIP_5,111,9999,9999,9999,2026935376
30,19,5,ISIP_5,112,9999,9999,9999,2027435068
30,19,5,ISIP_5,113,9999,9999,9999,2027935804
30,19,5,ISIP_5,114,9999,9999,9999,2028435544
30,19,5,ISIP_5,115,9999,9999,9999,2028935236
30,19,5,ISIP_5,116,9999,9999,9999,2029435976
30,19,5,ISIP_5,117,9999,9999,9999,2029935664
30,19,5,ISIP_5,118,9999,9999,9999,2030435432
30,19,5,ISIP_5,119,9999,9999,9999,2030935120
30,19,5,ISIP_5,120,9999,9999,9999,2031435860
30,19,5,ISIP_5,121,9999,9999,9999,2031935548
30,19,5,ISIP_5,122,9999,9999,9999,2032435312
30,19,5,ISIP_5,123,9999,9999,9999,2032936052
30,19,5,ISIP_5,124,9999,9999,9999,2033435760
30,19,5,ISIP_5,125,9999,9999,9999,2033935448
30,19,5,ISIP_5,126,9999,9999,9999,2034435140
30,19,5,ISIP_5,127,9999,9999,9999,2034935876
30,19,5,ISIP_5,128,9999,9999,9999,2035435576
30,19,5,ISIP_5,129,9999,9999,9999,2035935340
30,19,5,ISIP_5,130,9999,9999,9999,2036436080
30,19,5,ISIP_5,131,9999,9999,9999,2036935772
30,19,5,ISIP_5,132,9999,9999,9999,2037435460
30,19,5,ISIP_5,133,9999,9999,9999,2037935152
30,19,5,ISIP_5,134,9999,9999,9999,2038435892
30,19,5,ISIP_5,135,9999,9999,9999,2038935632
30,19,5,ISIP_5,136,9999,9999,9999,2039435320
30,19,5,ISIP_5,137,9999,9999,9999,2039936060
30,19,5,ISIP_5,138,9999,9999,9999,2040435824
30,19,5,ISIP_5,139,9999,9999,9999,2040935516
30,19,5,ISIP_5,140,9999,9999,9999,2041435204
30,19,5,ISIP_5,141,9999,9999,9999,2041935960
30,19,5,ISIP_5,142,9999,9999,9999,2042435648
30,19,5,ISIP_5,143,9999,9999,9999,2042935416
30,19,5,ISIP_5,144,9999,9999,9999,2043435108
30,19,5,ISIP_5,145,9999,9999,9999,2043935852
30,19,5,ISIP_5,146,9999,9999,9999,2044435540
30,19,5,ISIP_5,147,9999,9999,9999,2044935232
30,19,5,ISIP_5,148,9999,9999,9999,2045435972
30,19,5,ISIP_5,149,9999,9999,9999,2045935736
30,19,5,ISIP_5,150,9999,9999,9999,2046435424
30,19,5,ISIP_5,151,9999,9999,9999,2046935116
30,19,5,ISIP_5,152,9999,9999,9999,2047435852
30,19,5,ISIP_5,153,9999,9999,9999,2047935544
30,19,5,ISIP_5,154,9999,9999,9999,2048435308
30,19,5,ISIP_5,155,9999,9999,9999,2048936044
30,19,5,ISIP_5,156,9999,9999,9999,2049435736
30,19,5,ISIP_5,157,9999,9999,9999,2049935476
30,19,5,ISIP_5,158,9999,9999,9999,2050435168
30,19,5,ISIP_5,159,9999,9999,9999,2050935920
30,20,3,ISIP_8,0,5,42,127,2076643652
30,20,3,ISIP_8,1,1,48,37,2077179824
30,20,3,ISIP_8,2,5,42,127,2077443532
30,20,3,ISIP_8,3,1,48,47,2078138608
30,20,3,ISIP_8,4,5,42,127,2078244164
30,20,3,ISIP_8,5,1,48,43,2078992196
30,20,3,ISIP_8,6,5,42,127,2079044064
30,20,3,ISIP_8,7,1,48,42,2079834788
30,20,3,ISIP_8,8,5,42,127,2079843796
30,20,3,ISIP_8,9,5,42,127,2080643316
30,20,3,ISIP_8,10,1,48,45,2080678024
30,20,3,ISIP_8,11,5,42,127,2081444192
30,20,3,ISIP_8,12,1,48,47,2081452548
30,20,3,ISIP_8,13,5,42,127,2082244000
30,20,3,ISIP_8,14,1,48,43,2082262976
30,20,3,ISIP_8,15,1,48,48,2083040176
30,20,3,ISIP_8,16,5,42,127,2083043876
30,20,3,ISIP_8,17,1,48,43,2083839832
30,20,3,ISIP_8,18,5,42,127,2083843756
30,20,3,ISIP_8,19,1,48,52,2084641512
30,20,3,ISIP_8,20,5,42,127,2084644092
30,20,3,ISIP_8,21,5,42,127,2085443908
30,20,3,ISIP_8,22,1,48,44,2085456372
30,20,3,ISIP_8,23,5,42,127,2086243712
30,20,3,ISIP_8,24,1,48,43,2086244976
30,20,3,ISIP_8,25,1,48,44,2087039368
30,20,3,ISIP_8,26,5,42,127,2087043664
30,20,3,ISIP_8,27,5,42,127,2087844100
30,20,3,ISIP_8,28,1,48,44,2087855068
30,20,3,ISIP_8,29,1,48,46,2088625768
30,20,3,ISIP_8,30,5,42,127,2088643828
30,20,3,ISIP_8,31,1,48,50,2089410768
30,20,3,ISIP_8,32,5,42,127,2089443560
30,20,3,ISIP_8,33,1,48,41,2090207056
30,20,3,ISIP_8,34,5,42,127,2090243368
30,20,3,ISIP_8,35,1,48,44,2091029304
30,20,3,ISIP_8,36,5,42,127,2091044372
30,20,3,ISIP_8,37,5,42,127,2091843964
30,20,3,ISIP_8,38,1,48,50,2091855756
30,20,3,ISIP_8,39,5,42,127,2092643624
30,20,3,ISIP_8,40,1,48,42,2092663200
30,20,3,ISIP_8,41,1,48,43,2093436360
30,20,3,ISIP_8,42,5,42,127,2093443352
30,20,3,ISIP_8,43,5,42,127,2094244164
30,20,3,ISIP_8,44,1,48,46,2094245128
30,20,3,ISIP_8,45,5,42,127,2095043972
30,20,3,ISIP_8,46,1,48,47,2095071552
30,20,3,ISIP_8,47,5,42,127,2095843556
30,20,3,ISIP_8,48,1,48,45,2095876812
30,20,3,ISIP_8,49,1,48,45,2096629860
30,20,3,ISIP_8,50,5,42,127,2096643356
30,20,3,ISIP_8,51,1,48,46,2097443316
30,20,3,ISIP_8,52,5,42,127,2097445112
30,20,3,ISIP_8,53,1,48,46,2098230300
30,20,3,ISIP_8,54,5,42,127,2098243872
30,20,3,ISIP_8,55,1,48,45,2099004000
30,20,3,ISIP_8,56,5,42,127,2099043752
30,20,3,ISIP_8,57,1,48,44,2099794756
30,20,3,ISIP_8,58,5,42,127,2099843412
30,20,3,ISIP_8,59,1,48,44,2100620220
30,20,3,ISIP_8,60,1,48,44,2101443400
30,20,3,ISIP_8,61,1,48,47,2102235412
30,20,3,ISIP_8,62,1,48,40,2103056844
30,20,3,ISIP_8,63,1,48,43,2103893376
30,20,3,ISIP_8,64,1,48,44,2104692428
30,20,3,ISIP_8,65,1,48,43,2105530560
30,20,3,ISIP_8,66,1,48,43,2106359984
30,20,3,ISIP_8,67,1,48,39,2107200028
30,20,3,ISIP_8,68,1,48,42,2108021744
30,20,3,ISIP_8,69,1,48,41,2108838624
30,20,3,ISIP_8,70,1,48,48,2109667976
30,20,3,ISIP_8,71,1,48,43,2110487976
30,20,3,ISIP_8,72,1,48,47,2111284344
30,20,3,ISIP_8,73,1,48,44,2112121764
30,20,3,ISIP_8,74,1,48,44,2112928620
30,20,3,ISIP_8,75,1,48,41,2113783184
30,20,3,ISIP_8,76,1,48,41,2114639084
30,20,3,ISIP_8,77,1,48,41,2115490372
30,20,3,ISIP_8,78,1,48,45,2116348664
30,20,3,ISIP_8,79,1,48,45,2117178092
30,20,3,ISIP_8,80,1,48,46,2118016420
30,20,3,ISIP_8,81,1,48,47,2118855964
30,20,3,ISIP_8,82,1,48,43,2119682696
30,20,3,ISIP_8,83,1,48,43,2120514664
30,20,3,ISIP_8,84,1,48,42,2121373880
30,20,3,ISIP_8,85,1,48,51,2122208236
30,20,3,ISIP_8,86,1,48,49,2123056752
30,20,3,ISIP_8,87,1,48,45,2123875928
30,20,3,ISIP_8,88,1,48,45,2124723700
30,20,3,ISIP_8,89,1,48,44,2125552080
30,20,3,ISIP_8,90,1,48,47,2126385016
30,20,3,ISIP_8,91,1,48,43,2127224760
30,20,3,ISIP_8,92,1,48,46,2128062892
30,20,3,ISIP_8,93,1,48,41,2128903608
30,20,3,ISIP_8,94,1,48,46,2129737592
30,20,3,ISIP_8,95,1,48,33,2130580808
30,20,3,ISIP_8,96,1,48,49,2131453240
30,20,3,ISIP_8,97,1,48,48,2132278476
30,20,3,ISIP_8,98,1,48,48,2133086356
30,20,3,ISIP_8,99,1,48,51,2133915880
30,20,3,ISIP_8,100,1,48,47,2134778360
30,20,3,ISIP_8,101,1,48,48,2135603672
30,20,3,ISIP_8,102,1,48,47,2136412800
30,20,3,ISIP_8,103,1,48,40,2137255416
30,20,3,ISIP_8,104,1,48,42,2138123060
30,20,3,ISIP_8,105,1,48,43,2138982856
30,20,3,ISIP_8,106,1,48,44,2139840876
30,20,3,ISIP_8,107,1,48,44,2140706736
30,20,3,ISIP_8,108,1,48,48,2141599316
30,20,3,ISIP_8,109,1,48,47,2142435848
30,20,3,ISIP_8,110,1,48,49,2143284792
30,20,3,ISIP_8,111,1,48,49,2144106288
30,20,3,ISIP_8,112,1,48,45,2144959824
30,20,3,ISIP_8,113,1,48,45,2145778544
30,20,3,ISIP_8,114,1,48,45,2146613588
30,20,3,ISIP_8,115,1,48,50,2147480960
30,20,3,ISIP_8,116,1,48,48,2148322120
30,20,3,ISIP_8,117,1,48,51,2149157676
30,20,3,ISIP_8,118,1,48,43,2150026524
30,20,3,ISIP_8,119,1,48,49,2150963904
30,20,3,ISIP_8,120,1,48,48,2151823472
30,20,3,ISIP_8,121,1,48,50,2152644452
30,20,3,ISIP_8,122,1,48,48,2153482260
30,20,3,ISIP_8,123,1,48,43,2154318560
30,20,3,ISIP_8,124,1,48,51,2155165436
30,20,3,ISIP_8,125,1,48,50,2156012512
30,20,3,ISIP_8,126,1,48,54,2156874852
30,20,3,ISIP_8,127,1,48,49,2157774680
30,20,3,ISIP_8,128,1,48,50,2158610616
30,20,3,ISIP_8,129,1,48,49,2159427620
30,20,3,ISIP_8,130,1,48,54,2160234452
30,20,3,ISIP_8,131,1,48,51,2161080208
30,20,3,ISIP_8,132,1,48,48,2161986520
30,20,3,ISIP_8,133,1,48,48,2162843948
30,20,3,ISIP_8,134,1,48,50,2163688556
30,20,3,ISIP_8,135,1,48,51,2164572580
30,20,3,ISIP_8,136,1,48,52,2165458436
30,20,3,ISIP_8,137,1,48,48,2166296164
30,20,3,ISIP_8,138,1,48,45,2167151772
30,20,3,ISIP_8,139,1,48,55,2168041280
30,20,3,ISIP_8,140,1,48,55,2168904812
30,20,3,ISIP_8,141,1,48,49,2169772484
30,20,3,ISIP_8,142,1,48,54,2170640428
30,20,3,ISIP_8,143,1,48,49,2171537492
30,20,3,ISIP_8,144,1,48,53,2172452188
30,20,3,ISIP_8,145,1,48,51,2173320208
30,20,3,ISIP_8,146,1,48,53,2174158852
30,20,3,ISIP_8,147,1,48,54,2175024332
30,20,3,ISIP_8,148,1,48,59,2175869544
30,20,3,ISIP_8,149,1,48,55,2176759884
30,20,3,ISIP_8,150,1,48,61,2177638296
30,20,3,ISIP_8,151,1,48,56,2178549276
30,20,3,ISIP_8,152,1,48,53,2179391568
30,20,3,ISIP_8,153,1,48,52,2180270756
30,20,3,ISIP_8,154,1,48,54,2181131296
30,20,3,ISIP_8,155,1,48,58,2182011504
30,20,3,ISIP_8,156,1,48,56,2182863540
30,20,3,ISIP_8,157,1,48,48,2183789452
30,20,3,ISIP_8,158,1,48,54,2184680632
30,20,3,ISIP_8,159,1,48,52,2185567272
30,20,3,ISIP_8,160,1,48,50,2186441152
30,20,3,ISIP_8,161,1,48,51,2187297500
30,20,3,ISIP_8,162,1,48,54,2188151312
30,20,3,ISIP_8,163,1,48,61,2189011428
30,20,3,ISIP_8,164,1,48,52,2189878400
30,20,3,ISIP_8,165,1,48,54,2190747260
30,20,3,ISIP_8,166,1,48,55,2191646548
30,20,3,ISIP_8,167,1,48,46,2192543992
30,20,3,ISIP_8,168,1,48,49,2193456972
30,20,3,ISIP_8,169,1,48,46,2194328532
30,20,3,ISIP_8,170,1,48,51,2195199248
30,20,3,ISIP_8,171,1,48,62,2196101380
30,20,3,ISIP_8,0,9999,9999,9999,2076641364
30,20,3,ISIP_8,1,9999,9999,9999,2077441096
30,20,3,ISIP_8,2,9999,9999,9999,2078241876
30,20,3,ISIP_8,3,9999,9999,9999,2079041628
30,20,3,ISIP_8,4,9999,9999,9999,2079841360
30,20,3,ISIP_8,5,9999,9999,9999,2080641100
30,20,3,ISIP_8,6,9999,9999,9999,2081441904
30,20,3,ISIP_8,7,9999,9999,9999,2082241640
30,20,3,ISIP_8,8,9999,9999,9999,2083041364
30,20,3,ISIP_8,9,9999,9999,9999,2083841096
30,20,3,ISIP_8,10,9999,9999,9999,2084641880
30,20,3,ISIP_8,11,9999,9999,9999,2085441620
30,20,3,ISIP_8,12,9999,9999,9999,2086241352
30,20,3,ISIP_8,13,9999,9999,9999,2087041076
30,20,3,ISIP_8,14,9999,9999,9999,2087841888
30,20,3,ISIP_8,15,9999,9999,9999,2088641616
30,20,3,ISIP_8,16,9999,9999,9999,2089441348
30,20,3,ISIP_8,17,9999,9999,9999,2090241080
30,20,3,ISIP_8,18,9999,9999,9999,2091041864
30,20,3,ISIP_8,19,9999,9999,9999,2091841604
30,20,3,ISIP_8,20,9999,9999,9999,2092641336
30,20,3,ISIP_8,21,9999,9999,9999,2093441136
30,20,3,ISIP_8,22,9999,9999,9999,2094241876
30,20,3,ISIP_8,23,9999,9999,9999,2095041608
30,20,3,ISIP_8,24,9999,9999,9999,2095841340
30,20,3,ISIP_8,25,9999,9999,9999,2096641144
30,20,3,ISIP_8,26,9999,9999,9999,2097441856
30,20,3,ISIP_8,27,9999,9999,9999,2098241584
30,20,3,ISIP_8,28,9999,9999,9999,2099041392
30,20,3,ISIP_8,29,9999,9999,9999,2099841124
30,20,3,ISIP_8,30,9999,9999,9999,2100641852
30,20,3,ISIP_8,31,9999,9999,9999,2101441588
30,20,3,ISIP_8,32,9999,9999,9999,2102241384
30,20,3,ISIP_8,33,9999,9999,9999,2103041120
30,20,3,ISIP_8,34,9999,9999,9999,2103841896
30,20,3,ISIP_8,35,9999,9999,9999,2104641624
30,20,3,ISIP_8,36,9999,9999,9999,2105441356
30,20,3,ISIP_8,37,9999,9999,9999,2106241084
30,20,3,ISIP_8,38,9999,9999,9999,2107041888
30,20,3,ISIP_8,39,9999,9999,9999,2107841616
30,20,3,ISIP_8,40,9999,9999,9999,2108641344
30,20,3,ISIP_8,41,9999,9999,9999,2109441076
30,20,3,ISIP_8,42,9999,9999,9999,2110241852
30,20,3,ISIP_8,43,9999,9999,9999,2111041656
30,20,3,ISIP_8,44,9999,9999,9999,2111841384
30,20,3,ISIP_8,45,9999,9999,9999,2112641112
30,20,3,ISIP_8,46,9999,9999,9999,2113441840
30,20,3,ISIP_8,47,9999,9999,9999,2114241640
30,20,3,ISIP_8,48,9999,9999,9999,2115041372
30,20,3,ISIP_8,49,9999,9999,9999,2115841100
30,20,3,ISIP_8,50,9999,9999,9999,2116641876
30,20,3,ISIP_8,51,9999,9999,9999,2117441604
30,20,3,ISIP_8,52,9999,9999,9999,2118241332
30,20,3,ISIP_8,53,9999,9999,9999,2119041136
30,20,3,ISIP_8,54,9999,9999,9999,2119841864
30,20,3,ISIP_8,55,9999,9999,9999,2120641592
30,20,3,ISIP_8,56,9999,9999,9999,2121441336
30,20,3,ISIP_8,57,9999,9999,9999,2122241144
30,20,3,ISIP_8,58,9999,9999,9999,2123041852
30,20,3,ISIP_8,59,9999,9999,9999,2123841652
30,20,3,ISIP_8,60,9999,9999,9999,2124641380
30,20,3,ISIP_8,61,9999,9999,9999,2125441112
30,20,3,ISIP_8,62,9999,9999,9999,2126241840
30,20,3,ISIP_8,63,9999,9999,9999,2127041644
30,20,3,ISIP_8,64,9999,9999,9999,2127841372
30,20,3,ISIP_8,65,9999,9999,9999,2128641100
30,20,3,ISIP_8,66,9999,9999,9999,2129441876
30,20,3,ISIP_8,67,9999,9999,9999,2130241608
30,20,3,ISIP_8,68,9999,9999,9999,2131041336
30,20,3,ISIP_8,69,9999,9999,9999,2131841140
30,20,3,ISIP_8,70,9999,9999,9999,2132641864
30,20,3,ISIP_8,71,9999,9999,9999,2133441596
30,20,3,ISIP_8,72,9999,9999,9999,2134241400
30,20,3,ISIP_8,73,9999,9999,9999,2135041128
30,20,3,ISIP_8,74,9999,9999,9999,2135841876
30,20,3,ISIP_8,75,9999,9999,9999,2136641608
30,20,3,ISIP_8,76,9999,9999,9999,2137441336
30,20,3,ISIP_8,77,9999,9999,9999,2138241140
30,20,3,ISIP_8,78,9999,9999,9999,2139041884
30,20,3,ISIP_8,79,9999,9999,9999,2139841612
30,20,3,ISIP_8,80,9999,9999,9999,2140641348
30,20,3,ISIP_8,81,9999,9999,9999,2141441080
30,20,3,ISIP_8,82,9999,9999,9999,2142241852
30,20,3,ISIP_8,83,9999,9999,9999,2143041584
30,20,3,ISIP_8,84,9999,9999,9999,2143841388
30,20,3,ISIP_8,85,9999,9999,9999,2144641116
30,20,3,ISIP_8,86,9999,9999,9999,2145441844
30,20,3,ISIP_8,87,9999,9999,9999,2146241648
30,20,3,ISIP_8,88,9999,9999,9999,2147041376
30,20,3,ISIP_8,89,9999,9999,9999,2147841108
30,20,3,ISIP_8,90,9999,9999,9999,2148641884
30,20,3,ISIP_8,91,9999,9999,9999,2149441612
30,20,3,ISIP_8,92,9999,9999,9999,2150241340
30,20,3,ISIP_8,93,9999,9999,9999,2151041088
30,20,3,ISIP_8,94,9999,9999,9999,2151841860
30,20,3,ISIP_8,95,9999,9999,9999,2152641596
30,20,3,ISIP_8,96,9999,9999,9999,2153441328
30,20,3,ISIP_8,97,9999,9999,9999,2154241128
30,20,3,ISIP_8,98,9999,9999,9999,2155041904
30,20,3,ISIP_8,99,9999,9999,9999,2155841632
30,20,3,ISIP_8,100,9999,9999,9999,2156641364
30,20,3,ISIP_8,101,9999,9999,9999,2157441092
30,20,3,ISIP_8,102,9999,9999,9999,2158241892
30,20,3,ISIP_8,103,9999,9999,9999,2159041624
30,20,3,ISIP_8,104,9999,9999,9999,2159841348
30,20,3,ISIP_8,105,9999,9999,9999,2160641080
30,20,3,ISIP_8,106,9999,9999,9999,2161441856
30,20,3,ISIP_8,107,9999,9999,9999,2162241584
30,20,3,ISIP_8,108,9999,9999,9999,2163041388
30,20,3,ISIP_8,109,9999,9999,9999,2163841116
30,20,3,ISIP_8,110,9999,9999,9999,2164641856
30,20,3,ISIP_8,111,9999,9999,9999,2165441592
30,20,3,ISIP_8,112,9999,9999,9999,2166241396
30,20,3,ISIP_8,113,9999,9999,9999,2167041128
30,20,3,ISIP_8,114,9999,9999,9999,2167841900
30,20,3,ISIP_8,115,9999,9999,9999,2168641632
30,20,3,ISIP_8,116,9999,9999,9999,2169441360
30,20,3,ISIP_8,117,9999,9999,9999,2170241088
30,20,3,ISIP_8,118,9999,9999,9999,2171041892
30,20,3,ISIP_8,119,9999,9999,9999,2171841620
30,20,3,ISIP_8,120,9999,9999,9999,2172641348
30,20,3,ISIP_8,121,9999,9999,9999,2173441076
30,20,3,ISIP_8,122,9999,9999,9999,2174241868
30,20,3,ISIP_8,123,9999,9999,9999,2175041596
30,20,3,ISIP_8,124,9999,9999,9999,2175841332
30,20,3,ISIP_8,125,9999,9999,9999,2176641136
30,20,3,ISIP_8,126,9999,9999,9999,2177441864
30,20,3,ISIP_8,127,9999,9999,9999,2178241592
30,20,3,ISIP_8,128,9999,9999,9999,2179041396
30,20,3,ISIP_8,129,9999,9999,9999,2179841124
30,20,3,ISIP_8,130,9999,9999,9999,2180641900
30,20,3,ISIP_8,131,9999,9999,9999,2181441628
30,20,3,ISIP_8,132,9999,9999,9999,2182241356
30,20,3,ISIP_8,133,9999,9999,9999,2183041088
30,20,3,ISIP_8,134,9999,9999,9999,2183841904
30,20,3,ISIP_8,135,9999,9999,9999,2184641640
30,20,3,ISIP_8,136,9999,9999,9999,2185441372
30,20,3,ISIP_8,137,9999,9999,9999,2186241100
30,20,3,ISIP_8,138,9999,9999,9999,2187041876
30,20,3,ISIP_8,139,9999,9999,9999,2187841604
30,20,3,ISIP_8,140,9999,9999,9999,2188641336
30,20,3,ISIP_8,141,9999,9999,9999,2189441140
30,20,3,ISIP_8,142,9999,9999,9999,2190241864
30,20,3,ISIP_8,143,9999,9999,9999,2191041592
30,20,3,ISIP_8,144,9999,9999,9999,2191841396
30,20,3,ISIP_8,145,9999,9999,9999,2192641100
30,20,3,ISIP_8,146,9999,9999,9999,2193441848
30,20,3,ISIP_8,147,9999,9999,9999,2194241652
30,20,3,ISIP_8,148,9999,9999,9999,2195041384
30,20,3,ISIP_8,149,9999,9999,9999,2195841112
30,21,11,Pattern_Practice,0,5,42,127,2318981432
30,21,11,Pattern_Practice,1,5,42,127,2319482320
30,21,11,Pattern_Practice,2,5,42,127,2319982036
30,21,11,Pattern_Practice,3,1,38,26,2319988444
30,21,11,Pattern_Practice,4,1,38,37,2320447056
30,21,11,Pattern_Practice,5,5,42,127,2320481576
30,21,11,Pattern_Practice,6,1,38,43,2320982028
30,21,11,Pattern_Practice,7,5,42,127,2320984264
30,21,11,Pattern_Practice,8,1,38,35,2321482020
30,21,11,Pattern_Practice,9,5,42,127,2321484256
30,21,11,Pattern_Practice,10,1,38,43,2321964764
30,21,11,Pattern_Practice,11,5,42,127,2321981708
30,21,11,Pattern_Practice,12,1,38,43,2322459300
30,21,11,Pattern_Practice,13,5,42,127,2322481476
30,21,11,Pattern_Practice,14,5,42,127,2322982224
30,21,11,Pattern_Practice,15,1,38,40,2322988040
30,21,11,Pattern_Practice,16,1,38,35,2323478888
30,21,11,Pattern_Practice,17,5,42,127,2323482136
30,21,11,Pattern_Practice,18,1,38,38,2323741300
30,21,11,Pattern_Practice,19,5,42,127,2323981668
30,21,11,Pattern_Practice,20,1,38,38,2324229476
30,21,11,Pattern_Practice,21,1,48,48,2324469804
30,21,11,Pattern_Practice,22,5,42,127,2324482328
30,21,11,Pattern_Practice,23,1,38,44,2324959252
30,21,11,Pattern_Practice,24,5,42,127,2324982320
30,21,11,Pattern_Practice,25,1,38,41,2325468068
30,21,11,Pattern_Practice,26,5,42,127,2325481944
30,21,11,Pattern_Practice,27,5,42,127,2325981420
30,21,11,Pattern_Practice,28,1,38,38,2325989700
30,21,11,Pattern_Practice,29,1,38,40,2326261368
30,21,11,Pattern_Practice,30,5,42,127,2326482216
30,21,11,Pattern_Practice,31,1,38,41,2326495360
30,21,11,Pattern_Practice,32,1,38,36,2326732468
30,21,11,Pattern_Practice,33,1,38,40,2326962172
30,21,11,Pattern_Practice,34,5,42,127,2326982104
30,21,11,Pattern_Practice,35,1,38,43,2327468156
30,21,11,Pattern_Practice,36,5,42,127,2327481652
30,21,11,Pattern_Practice,37,1,38,42,2327699224
30,21,11,Pattern_Practice,38,1,38,38,2327965208
30,21,11,Pattern_Practice,39,5,42,127,2327981328
30,21,11,Pattern_Practice,40,1,38,45,2328477616
30,21,11,Pattern_Practice,41,5,42,127,2328482368
30,21,11,Pattern_Practice,42,1,38,42,2328726120
30,21,11,Pattern_Practice,43,5,42,127,2328981976
30,21,11,Pattern_Practice,44,1,38,46,2329007308
30,21,11,Pattern_Practice,45,5,42,127,2329481668
30,21,11,Pattern_Practice,46,1,38,41,2329533856
30,21,11,Pattern_Practice,47,5,42,127,2329982312
30,21,11,Pattern_Practice,48,1,38,40,2330053144
30,21,11,Pattern_Practice,49,1,48,49,2330439400
30,21,11,Pattern_Practice,50,5,42,127,2330482072
30,21,11,Pattern_Practice,51,1,38,42,2330556708
30,21,11,Pattern_Practice,52,1,48,54,2330886864
30,21,11,Pattern_Practice,53,5,42,127,2330982044
30,21,11,Pattern_Practice,54,1,38,41,2331103360
30,21,11,Pattern_Practice,55,5,42,127,2331481428
30,21,11,Pattern_Practice,56,1,48,49,2331525780
30,21,11,Pattern_Practice,57,1,38,42,2331614476
30,21,11,Pattern_Practice,58,1,48,52,2331943412
30,21,11,Pattern_Practice,59,5,42,127,2331982040
30,21,11,Pattern_Practice,60,1,38,39,2332139628
30,21,11,Pattern_Practice,61,5,42,127,2332481868
30,21,11,Pattern_Practice,62,1,48,51,2332539512
30,21,11,Pattern_Practice,63,1,38,43,2332616496
30,21,11,Pattern_Practice,64,1,48,47,2332948876
30,21,11,Pattern_Practice,65,5,42,127,2332981600
30,21,11,Pattern_Practice,66,1,38,38,2333103136
30,21,11,Pattern_Practice,67,5,42,127,2333482476
30,21,11,Pattern_Practice,68,1,48,50,2333517908
30,21,11,Pattern_Practice,69,1,38,38,2333601548
30,21,11,Pattern_Practice,70,5,42,127,2333981912
30,21,11,Pattern_Practice,71,1,48,45,2333982880
30,21,11,Pattern_Practice,72,1,38,38,2334106500
30,21,11,Pattern_Practice,73,1,48,41,2334473088
30,21,11,Pattern_Practice,74,5,42,127,2334481876
30,21,11,Pattern_Practice,75,1,38,38,2334599744
30,21,11,Pattern_Practice,76,5,42,127,2334981632
30,21,11,Pattern_Practice,77,1,38,40,2335150676
30,21,11,Pattern_Practice,78,5,42,127,2335482076
30,21,11,Pattern_Practice,79,1,38,38,2335653584
30,21,11,Pattern_Practice,80,1,48,44,2335880004
30,21,11,Pattern_Practice,81,5,42,127,2335981896
30,21,11,Pattern_Practice,82,1,38,36,2336120176
30,21,11,Pattern_Practice,83,5,42,127,2336481592
30,21,11,Pattern_Practice,84,1,38,46,2336650268
30,21,11,Pattern_Practice,85,1,48,44,2336900912
30,21,11,Pattern_Practice,86,5,42,127,2336982400
30,21,11,Pattern_Practice,87,1,38,42,2337160104
30,21,11,Pattern_Practice,88,5,42,127,2337482156
30,21,11,Pattern_Practice,89,1,38,38,2337684184
30,21,11,Pattern_Practice,90,1,48,42,2337936032
30,21,11,Pattern_Practice,91,5,42,127,2337981844
30,21,11,Pattern_Practice,92,1,38,41,2338212804
30,21,11,Pattern_Practice,93,5,42,127,2338481600
30,21,11,Pattern_Practice,94,1,38,41,2338730676
30,21,11,Pattern_Practice,95,1,48,46,2338748536
30,21,11,Pattern_Practice,96,5,42,127,2338982144
30,21,11,Pattern_Practice,97,1,38,40,2339264208
30,21,11,Pattern_Practice,98,1,48,40,2339267400
30,21,11,Pattern_Practice,99,5,42,127,2339481940
30,21,11,Pattern_Practice,100,1,38,41,2339808364
30,21,11,Pattern_Practice,101,1,48,42,2339823224
30,21,11,Pattern_Practice,102,5,42,127,2339981592
30,21,11,Pattern_Practice,103,1,38,41,2340347572
30,21,11,Pattern_Practice,104,1,48,49,2340351892
30,21,11,Pattern_Practice,105,5,42,127,2340482508
30,21,11,Pattern_Practice,106,1,38,40,2340882904
30,21,11,Pattern_Practice,107,1,48,43,2340888792
30,21,11,Pattern_Practice,108,5,42,127,2340982008
30,21,11,Pattern_Practice,109,1,38,36,2341427292
30,21,11,Pattern_Practice,110,1,48,46,2341437596
30,21,11,Pattern_Practice,111,5,42,127,2341481836
30,21,11,Pattern_Practice,112,1,38,44,2341978772
30,21,11,Pattern_Practice,113,5,42,127,2341981500
30,21,11,Pattern_Practice,114,1,48,47,2341982392
30,21,11,Pattern_Practice,115,1,38,45,2342185648
30,21,11,Pattern_Practice,116,1,48,54,2342210092
30,21,11,Pattern_Practice,117,1,48,61,2342469088
30,21,11,Pattern_Practice,118,1,38,43,2342478640
30,21,11,Pattern_Practice,119,5,42,127,2342482492
30,21,11,Pattern_Practice,120,5,42,127,2342981940
30,21,11,Pattern_Practice,121,1,38,38,2343004804
30,21,11,Pattern_Practice,122,1,48,54,2343008000
30,21,11,Pattern_Practice,123,5,42,127,2343481664
30,21,11,Pattern_Practice,124,1,38,39,2343501756
30,21,11,Pattern_Practice,125,1,48,48,2343511012
30,21,11,Pattern_Practice,126,5,42,127,2343981532
30,21,11,Pattern_Practice,127,1,38,38,2344001256
30,21,11,Pattern_Practice,128,1,48,52,2344005128
30,21,11,Pattern_Practice,129,1,38,34,2344231812
30,21,11,Pattern_Practice,130,1,48,49,2344250644
30,21,11,Pattern_Practice,131,5,42,127,2344482156
30,21,11,Pattern_Practice,132,1,48,53,2344491040
30,21,11,Pattern_Practice,133,1,38,39,2344494384
30,21,11,Pattern_Practice,134,5,42,127,2344981732
30,21,11,Pattern_Practice,135,1,38,39,2344998460
30,21,11,Pattern_Practice,136,1,48,54,2345012056
30,21,11,Pattern_Practice,137,5,42,127,2345481456
30,21,11,Pattern_Practice,138,1,38,39,2345498332
30,21,11,Pattern_Practice,139,1,48,61,2345502128
30,21,11,Pattern_Practice,140,5,42,127,2345982296
30,21,11,Pattern_Practice,141,1,38,37,2346007400
30,21,11,Pattern_Practice,142,5,42,127,2346482140
30,21,11,Pattern_Practice,143,1,38,40,2346539412
30,21,11,Pattern_Practice,144,5,42,127,2346981612
30,21,11,Pattern_Practice,145,1,38,36,2347047928
30,21,11,Pattern_Practice,146,1,48,50,2347321844
30,21,11,Pattern_Practice,147,5,42,127,2347481432
30,21,11,Pattern_Practice,148,1,38,43,2347576924
30,21,11,Pattern_Practice,149,5,42,127,2347982172
30,21,11,Pattern_Practice,150,1,38,41,2348057392
30,21,11,Pattern_Practice,151,5,42,127,2348482092
30,21,11,Pattern_Practice,152,1,38,41,2348550056
30,21,11,Pattern_Practice,153,5,42,127,2348981712
30,21,11,Pattern_Practice,154,1,38,37,2349061128
30,21,11,Pattern_Practice,155,1,48,56,2349320148
30,21,11,Pattern_Practice,156,5,42,127,2349482208
30,21,11,Pattern_Practice,157,1,38,39,2349575684
30,21,11,Pattern_Practice,158,5,42,127,2349982204
30,21,11,Pattern_Practice,159,1,38,38,2350070144
30,21,11,Pattern_Practice,160,5,42,127,2350481748
30,21,11,Pattern_Practice,161,1,38,40,2350562280
30,21,11,Pattern_Practice,162,5,42,127,2350981444
30,21,11,Pattern_Practice,163,1,38,40,2351057712
30,21,11,Pattern_Practice,164,5,42,127,2351482088
30,21,11,Pattern_Practice,165,1,38,44,2351557180
30,21,11,Pattern_Practice,166,5,42,127,2351982004
30,21,11,Pattern_Practice,167,1,38,48,2352022848
30,21,11,Pattern_Practice,168,5,42,127,2352482068
30,21,11,Pattern_Practice,169,1,38,41,2352513416
30,21,11,Pattern_Practice,170,5,42,127,2352982440
30,21,11,Pattern_Practice,171,1,38,44,2353012788
30,21,11,Pattern_Practice,172,5,42,127,2353482060
30,21,11,Pattern_Practice,173,1,48,50,2353528708
30,21,11,Pattern_Practice,174,1,48,39,2353768964
30,21,11,Pattern_Practice,175,5,42,127,2353981880
30,21,11,Pattern_Practice,176,1,48,54,2353994200
30,21,11,Pattern_Practice,177,1,48,23,2354065856
30,21,11,Pattern_Practice,178,5,42,127,2354481552
30,21,11,Pattern_Practice,179,1,48,50,2354488860
30,21,11,Pattern_Practice,180,1,48,52,2354724028
30,21,11,Pattern_Practice,181,1,48,59,2354964032
30,21,11,Pattern_Practice,182,5,42,127,2354982240
30,21,11,Pattern_Practice,183,5,42,127,2355482092
30,21,11,Pattern_Practice,184,1,38,45,2355516100
30,21,11,Pattern_Practice,185,1,38,48,2355739448
30,21,11,Pattern_Practice,186,1,38,58,2355978656
30,21,11,Pattern_Practice,187,5,42,127,2355981832
30,21,11,Pattern_Practice,188,5,42,127,2356482504
30,21,11,Pattern_Practice,189,1,38,46,2356483544
30,21,11,Pattern_Practice,190,1,38,38,2356704264
30,21,11,Pattern_Practice,191,5,42,127,2356982252
30,21,11,Pattern_Practice,192,1,38,56,2356990308
30,21,11,Pattern_Practice,193,5,42,127,2357481724
30,21,11,Pattern_Practice,194,1,48,41,2357490080
30,21,11,Pattern_Practice,195,1,48,45,2357696524
30,21,11,Pattern_Practice,196,5,42,127,2357981696
30,21,11,Pattern_Practice,197,1,48,60,2358001344
30,21,11,Pattern_Practice,198,5,42,127,2358482212
30,21,11,Pattern_Practice,199,1,48,55,2358497448
30,21,11,Pattern_Practice,200,1,48,56,2358723868
30,21,11,Pattern_Practice,0,9999,9999,9999,2318979144
30,21,11,Pattern_Practice,1,9999,9999,9999,2319479884
30,21,11,Pattern_Practice,2,9999,9999,9999,2319979600
30,21,11,Pattern_Practice,3,9999,9999,9999,2320479288
30,21,11,Pattern_Practice,4,9999,9999,9999,2320980036
30,21,11,Pattern_Practice,5,9999,9999,9999,2321479732
30,21,11,Pattern_Practice,6,9999,9999,9999,2321979492
30,21,11,Pattern_Practice,7,9999,9999,9999,2322479188
30,21,11,Pattern_Practice,8,9999,9999,9999,2322979936
30,21,11,Pattern_Practice,9,9999,9999,9999,2323479628
30,21,11,Pattern_Practice,10,9999,9999,9999,2323979380
30,21,11,Pattern_Practice,11,9999,9999,9999,2324480116
30,21,11,Pattern_Practice,12,9999,9999,9999,2324979812
30,21,11,Pattern_Practice,13,9999,9999,9999,2325479508
30,21,11,Pattern_Practice,14,9999,9999,9999,2325979208
30,21,11,Pattern_Practice,15,9999,9999,9999,2326479928
30,21,11,Pattern_Practice,16,9999,9999,9999,2326979668
30,21,11,Pattern_Practice,17,9999,9999,9999,2327479364
30,21,11,Pattern_Practice,18,9999,9999,9999,2327979112
30,21,11,Pattern_Practice,19,9999,9999,9999,2328479856
30,21,11,Pattern_Practice,20,9999,9999,9999,2328979540
30,21,11,Pattern_Practice,21,9999,9999,9999,2329479232
30,21,11,Pattern_Practice,22,9999,9999,9999,2329980024
30,21,11,Pattern_Practice,23,9999,9999,9999,2330479712
30,21,11,Pattern_Practice,24,9999,9999,9999,2330979384
30,21,11,Pattern_Practice,25,9999,9999,9999,2331479140
30,21,11,Pattern_Practice,26,9999,9999,9999,2331979828
30,21,11,Pattern_Practice,27,9999,9999,9999,2332479580
30,21,11,Pattern_Practice,28,9999,9999,9999,2332979312
30,21,11,Pattern_Practice,29,9999,9999,9999,2333480040
30,21,11,Pattern_Practice,30,9999,9999,9999,2333979700
30,21,11,Pattern_Practice,31,9999,9999,9999,2334479440
30,21,11,Pattern_Practice,32,9999,9999,9999,2334979196
30,21,11,Pattern_Practice,33,9999,9999,9999,2335479860
30,21,11,Pattern_Practice,34,9999,9999,9999,2335979608
30,21,11,Pattern_Practice,35,9999,9999,9999,2336479304
30,21,11,Pattern_Practice,36,9999,9999,9999,2336980040
30,21,11,Pattern_Practice,37,9999,9999,9999,2337479792
30,21,11,Pattern_Practice,38,9999,9999,9999,2337979484
30,21,11,Pattern_Practice,39,9999,9999,9999,2338479164
30,21,11,Pattern_Practice,40,9999,9999,9999,2338979932
30,21,11,Pattern_Practice,41,9999,9999,9999,2339479652
30,21,11,Pattern_Practice,42,9999,9999,9999,2339979376
30,21,11,Pattern_Practice,43,9999,9999,9999,2340480072
30,21,11,Pattern_Practice,44,9999,9999,9999,2340979796
30,21,11,Pattern_Practice,45,9999,9999,9999,2341479472
30,21,11,Pattern_Practice,46,9999,9999,9999,2341979212
30,21,11,Pattern_Practice,47,9999,9999,9999,2342479980
30,21,11,Pattern_Practice,48,9999,9999,9999,2342979652
30,21,11,Pattern_Practice,49,9999,9999,9999,2343479376
30,21,11,Pattern_Practice,50,9999,9999,9999,2343979096
30,21,11,Pattern_Practice,51,9999,9999,9999,2344479796
30,21,11,Pattern_Practice,52,9999,9999,9999,2344979520
30,21,11,Pattern_Practice,53,9999,9999,9999,2345479240
30,21,11,Pattern_Practice,54,9999,9999,9999,2345980008
30,21,11,Pattern_Practice,55,9999,9999,9999,2346479704
30,21,11,Pattern_Practice,56,9999,9999,9999,2346979396
30,21,11,Pattern_Practice,57,9999,9999,9999,2347479144
30,21,11,Pattern_Practice,58,9999,9999,9999,2347979884
30,21,11,Pattern_Practice,59,9999,9999,9999,2348479580
30,21,11,Pattern_Practice,60,9999,9999,9999,2348979276
30,21,11,Pattern_Practice,61,9999,9999,9999,2349479996
30,21,11,Pattern_Practice,62,9999,9999,9999,2349979764
30,21,11,Pattern_Practice,63,9999,9999,9999,2350479460
30,21,11,Pattern_Practice,64,9999,9999,9999,2350979156
30,21,11,Pattern_Practice,65,9999,9999,9999,2351479872
30,21,11,Pattern_Practice,66,9999,9999,9999,2351979640
30,21,11,Pattern_Practice,67,9999,9999,9999,2352479336
30,21,11,Pattern_Practice,68,9999,9999,9999,2352980076
30,21,11,Pattern_Practice,69,9999,9999,9999,2353479772
30,21,11,Pattern_Practice,70,9999,9999,9999,2353979444
30,21,11,Pattern_Practice,71,9999,9999,9999,2354479192
30,21,11,Pattern_Practice,72,9999,9999,9999,2354979952
30,21,11,Pattern_Practice,73,9999,9999,9999,2355479656
30,21,11,Pattern_Practice,74,9999,9999,9999,2355979324
30,21,11,Pattern_Practice,75,9999,9999,9999,2356480072
30,21,11,Pattern_Practice,76,9999,9999,9999,2356979816
30,21,11,Pattern_Practice,77,9999,9999,9999,2357479512
30,21,11,Pattern_Practice,78,9999,9999,9999,2357979260
30,21,11,Pattern_Practice,79,9999,9999,9999,2358479924
30,22,13,Improv_Metronome,0,5,42,127,2384393660
30,22,13,Improv_Metronome,1,5,42,127,2384894500
30,22,13,Improv_Metronome,2,5,42,127,2385393916
30,22,13,Improv_Metronome,3,1,48,42,2385853424
30,22,13,Improv_Metronome,4,5,42,127,2385893924
30,22,13,Improv_Metronome,5,5,42,127,2386393328
30,22,13,Improv_Metronome,6,1,48,51,2386419556
30,22,13,Improv_Metronome,7,5,42,127,2386894292
30,22,13,Improv_Metronome,8,1,48,47,2386924484
30,22,13,Improv_Metronome,9,1,48,48,2387394208
30,22,13,Improv_Metronome,10,5,42,127,2387395628
30,22,13,Improv_Metronome,11,5,42,127,2387893608
30,22,13,Improv_Metronome,12,1,48,53,2387896276
30,22,13,Improv_Metronome,13,5,42,127,2388394424
30,22,13,Improv_Metronome,14,1,38,59,2388419836
30,22,13,Improv_Metronome,15,5,42,127,2388894044
30,22,13,Improv_Metronome,16,1,48,54,2388904420
30,22,13,Improv_Metronome,17,1,48,57,2389141304
30,22,13,Improv_Metronome,18,5,42,127,2389393716
30,22,13,Improv_Metronome,19,1,38,64,2389409400
30,22,13,Improv_Metronome,20,5,42,127,2389893488
30,22,13,Improv_Metronome,21,1,48,56,2389923680
30,22,13,Improv_Metronome,22,1,38,59,2390383240
30,22,13,Improv_Metronome,23,5,42,127,2390394196
30,22,13,Improv_Metronome,24,5,42,127,2390894044
30,22,13,Improv_Metronome,25,1,48,55,2390919104
30,22,13,Improv_Metronome,26,1,48,55,2391168632
30,22,13,Improv_Metronome,27,5,42,127,2391393720
30,22,13,Improv_Metronome,28,1,38,59,2391446680
30,22,13,Improv_Metronome,29,5,42,127,2391894312
30,22,13,Improv_Metronome,30,1,48,54,2391945100
30,22,13,Improv_Metronome,31,5,42,127,2392394380
30,22,13,Improv_Metronome,32,1,48,57,2392410516
30,22,13,Improv_Metronome,33,1,38,62,2392415952
30,22,13,Improv_Metronome,34,5,42,127,2392893652
30,22,13,Improv_Metronome,35,1,38,51,2392903280
30,22,13,Improv_Metronome,36,1,48,51,2392906472
30,22,13,Improv_Metronome,37,1,38,48,2393373288
30,22,13,Improv_Metronome,38,1,48,54,2393379772
30,22,13,Improv_Metronome,39,5,42,127,2393393496
30,22,13,Improv_Metronome,40,1,48,60,2393880640
30,22,13,Improv_Metronome,41,1,38,53,2393881216
30,22,13,Improv_Metronome,42,5,42,127,2393894340
30,22,13,Improv_Metronome,43,5,42,127,2394393940
30,22,13,Improv_Metronome,44,1,48,83,2394398104
30,22,13,Improv_Metronome,45,1,38,56,2394401304
30,22,13,Improv_Metronome,46,1,38,49,2394628724
30,22,13,Improv_Metronome,47,1,48,66,2394638952
30,22,13,Improv_Metronome,48,1,38,56,2394851128
30,22,13,Improv_Metronome,49,1,48,65,2394882376
30,22,13,Improv_Metronome,50,5,42,127,2394893700
30,22,13,Improv_Metronome,51,1,38,61,2395091204
30,22,13,Improv_Metronome,52,1,48,70,2395109808
30,22,13,Improv_Metronome,53,1,38,54,2395325948
30,22,13,Improv_Metronome,54,1,48,75,2395337368
30,22,13,Improv_Metronome,55,5,42,127,2395394400
30,22,13,Improv_Metronome,56,1,38,52,2395540288
30,22,13,Improv_Metronome,57,1,48,73,2395583952
30,22,13,Improv_Metronome,58,1,38,53,2395796652
30,22,13,Improv_Metronome,59,1,48,69,2395822664
30,22,13,Improv_Metronome,60,5,42,127,2395894276
30,22,13,Improv_Metronome,61,1,38,49,2396020336
30,22,13,Improv_Metronome,62,1,48,67,2396045560
30,22,13,Improv_Metronome,63,1,48,73,2396333880
30,22,13,Improv_Metronome,64,1,38,56,2396336480
30,22,13,Improv_Metronome,65,5,42,127,2396393956
30,22,13,Improv_Metronome,66,1,38,55,2396884020
30,22,13,Improv_Metronome,67,5,42,127,2396893476
30,22,13,Improv_Metronome,68,1,38,51,2397172604
30,22,13,Improv_Metronome,69,5,42,127,2397394276
30,22,13,Improv_Metronome,70,1,38,59,2397415496
30,22,13,Improv_Metronome,71,5,42,127,2397893896
30,22,13,Improv_Metronome,72,1,38,64,2397904420
30,22,13,Improv_Metronome,73,1,38,54,2398120068
30,22,13,Improv_Metronome,74,5,42,127,2398393868
30,22,13,Improv_Metronome,75,1,38,70,2398399980
30,22,13,Improv_Metronome,76,1,38,41,2398438476
30,22,13,Improv_Metronome,77,5,42,127,2398893316
30,22,13,Improv_Metronome,78,1,38,58,2398902192
30,22,13,Improv_Metronome,79,1,38,56,2399124344
30,22,13,Improv_Metronome,80,5,42,127,2399394260
30,22,13,Improv_Metronome,81,1,38,62,2399398424
30,22,13,Improv_Metronome,82,1,38,60,2399876560
30,22,13,Improv_Metronome,83,5,42,127,2399893948
30,22,13,Improv_Metronome,84,5,42,127,2400393648
30,22,13,Improv_Metronome,85,1,38,85,2400429160
30,22,13,Improv_Metronome,86,1,48,96,2400434520
30,22,13,Improv_Metronome,87,1,38,38,2400476084
30,22,13,Improv_Metronome,88,5,42,127,2400894400
30,22,13,Improv_Metronome,89,1,48,49,2400912928
30,22,13,Improv_Metronome,90,1,48,55,2401162752
30,22,13,Improv_Metronome,91,5,42,127,2401393896
30,22,13,Improv_Metronome,92,1,48,64,2401397912
30,22,13,Improv_Metronome,93,1,48,47,2401891772
30,22,13,Improv_Metronome,94,5,42,127,2401893884
30,22,13,Improv_Metronome,95,1,48,50,2402125072
30,22,13,Improv_Metronome,96,1,48,60,2402383572
30,22,13,Improv_Metronome,97,5,42,127,2402393556
30,22,13,Improv_Metronome,98,1,48,57,2402875712
30,22,13,Improv_Metronome,99,5,42,127,2402894148
30,22,13,Improv_Metronome,100,1,48,49,2403127800
30,22,13,Improv_Metronome,101,1,48,65,2403391704
30,22,13,Improv_Metronome,102,5,42,127,2403393820
30,22,13,Improv_Metronome,103,5,42,127,2403893668
30,22,13,Improv_Metronome,104,1,48,49,2403911524
30,22,13,Improv_Metronome,105,5,42,127,2404394336
30,22,13,Improv_Metronome,106,1,48,81,2404432756
30,22,13,Improv_Metronome,107,1,38,75,2404436628
30,22,13,Improv_Metronome,108,5,42,127,2404894056
30,22,13,Improv_Metronome,109,1,38,58,2404957984
30,22,13,Improv_Metronome,110,1,38,58,2405203104
30,22,13,Improv_Metronome,111,5,42,127,2405393804
30,22,13,Improv_Metronome,112,1,38,62,2405451904
30,22,13,Improv_Metronome,113,5,42,127,2405893648
30,22,13,Improv_Metronome,114,1,38,63,2405938428
30,22,13,Improv_Metronome,115,1,38,59,2406180176
30,22,13,Improv_Metronome,116,5,42,127,2406394068
30,22,13,Improv_Metronome,117,1,38,65,2406424336
30,22,13,Improv_Metronome,118,5,42,127,2406893836
30,22,13,Improv_Metronome,119,1,38,55,2406899124
30,22,13,Improv_Metronome,120,1,38,62,2407092628
30,22,13,Improv_Metronome,121,5,42,127,2407393508
30,22,13,Improv_Metronome,122,1,38,61,2407399620
30,22,13,Improv_Metronome,123,5,42,127,2407894472
30,22,13,Improv_Metronome,124,1,38,66,2407902456
30,22,13,Improv_Metronome,125,1,48,67,2407906172
30,22,13,Improv_Metronome,126,5,42,127,2408393972
30,22,13,Improv_Metronome,127,1,48,86,2408396940
30,22,13,Improv_Metronome,128,1,38,71,2408400140
30,22,13,Improv_Metronome,129,1,38,44,2408436916
30,22,13,Improv_Metronome,130,1,48,45,2408455372
30,22,13,Improv_Metronome,131,5,42,127,2408894024
30,22,13,Improv_Metronome,132,1,38,70,2408907240
30,22,13,Improv_Metronome,133,1,48,83,2408915448
30,22,13,Improv_Metronome,134,5,42,127,2409393596
30,22,13,Improv_Metronome,135,1,38,65,2409402628
30,22,13,Improv_Metronome,136,1,48,67,2409405820
30,22,13,Improv_Metronome,137,5,42,127,2409894512
30,22,13,Improv_Metronome,138,1,48,72,2409907508
30,22,13,Improv_Metronome,139,1,38,65,2409914744
30,22,13,Improv_Metronome,140,5,42,127,2410393940
30,22,13,Improv_Metronome,141,1,38,71,2410403492
30,22,13,Improv_Metronome,142,1,48,91,2410409828
30,22,13,Improv_Metronome,143,1,38,54,2410614424
30,22,13,Improv_Metronome,144,1,48,70,2410638532
30,22,13,Improv_Metronome,145,1,38,55,2410846192
30,22,13,Improv_Metronome,146,1,48,61,2410881964
30,22,13,Improv_Metronome,147,5,42,127,2410893668
30,22,13,Improv_Metronome,148,1,38,50,2411116348
30,22,13,Improv_Metronome,149,1,48,71,2411126500
30,22,13,Improv_Metronome,150,1,38,54,2411369048
30,22,13,Improv_Metronome,151,1,48,74,2411385332
30,22,13,Improv_Metronome,152,5,42,127,2411394592
30,22,13,Improv_Metronome,153,1,38,51,2411603884
30,22,13,Improv_Metronome,154,1,48,77,2411626828
30,22,13,Improv_Metronome,155,1,38,57,2411856656
30,22,13,Improv_Metronome,156,1,48,75,2411881624
30,22,13,Improv_Metronome,157,5,42,127,2411894220
30,22,13,Improv_Metronome,158,1,38,56,2412085208
30,22,13,Improv_Metronome,159,1,48,73,2412114364
30,22,13,Improv_Metronome,160,1,48,106,2412384436
30,22,13,Improv_Metronome,161,1,38,64,2412391756
30,22,13,Improv_Metronome,162,5,42,127,2412394844
30,22,13,Improv_Metronome,163,1,48,46,2412436044
30,22,13,Improv_Metronome,164,5,42,127,2412893600
30,22,13,Improv_Metronome,165,1,38,53,2412907860
30,22,13,Improv_Metronome,166,1,38,45,2413113108
30,22,13,Improv_Metronome,167,5,42,127,2413394168
30,22,13,Improv_Metronome,168,1,38,65,2413409404
30,22,13,Improv_Metronome,169,1,48,62,2413892496
30,22,13,Improv_Metronome,170,5,42,127,2413894376
30,22,13,Improv_Metronome,171,1,48,62,2414159448
30,22,13,Improv_Metronome,172,5,42,127,2414393760
30,22,13,Improv_Metronome,173,1,48,70,2414423360
30,22,13,Improv_Metronome,174,5,42,127,2414893380
30,22,13,Improv_Metronome,175,1,38,59,2414908616
30,22,13,Improv_Metronome,176,1,38,48,2415142364
30,22,13,Improv_Metronome,177,5,42,127,2415394248
30,22,13,Improv_Metronome,178,1,38,72,2415405892
30,22,13,Improv_Metronome,179,5,42,127,2415893868
30,22,13,Improv_Metronome,180,1,48,71,2415919208
30,22,13,Improv_Metronome,181,1,48,64,2416176212
30,22,13,Improv_Metronome,182,5,42,127,2416393688
30,22,13,Improv_Metronome,183,1,48,71,2416412368
30,22,13,Improv_Metronome,184,5,42,127,2416894208
30,22,13,Improv_Metronome,185,1,38,57,2416908244
30,22,13,Improv_Metronome,186,1,38,49,2417150296
30,22,13,Improv_Metronome,187,1,38,68,2417393808
30,22,13,Improv_Metronome,188,5,42,127,2417396412
30,22,13,Improv_Metronome,189,1,38,33,2417446492
30,22,13,Improv_Metronome,190,5,42,127,2417893852
30,22,13,Improv_Metronome,191,1,38,68,2417917612
30,22,13,Improv_Metronome,192,1,38,62,2418388420
30,22,13,Improv_Metronome,193,5,42,127,2418393540
30,22,13,Improv_Metronome,194,1,38,59,2418800424
30,22,13,Improv_Metronome,195,5,42,127,2418894132
30,22,13,Improv_Metronome,196,1,38,60,2418923788
30,22,13,Improv_Metronome,197,1,38,61,2419318948
30,22,13,Improv_Metronome,198,5,42,127,2419394028
30,22,13,Improv_Metronome,199,1,38,60,2419407524
30,22,13,Improv_Metronome,200,1,38,56,2419832456
30,22,13,Improv_Metronome,201,5,42,127,2419893700
30,22,13,Improv_Metronome,202,1,38,59,2419939440
30,22,13,Improv_Metronome,203,1,38,62,2420231972
30,22,13,Improv_Metronome,204,5,42,127,2420394480
30,22,13,Improv_Metronome,205,1,38,64,2420479800
30,22,13,Improv_Metronome,206,1,38,67,2420878948
30,22,13,Improv_Metronome,207,5,42,127,2420894168
30,22,13,Improv_Metronome,208,1,38,60,2421007672
30,22,13,Improv_Metronome,209,1,38,54,2421348680
30,22,13,Improv_Metronome,210,5,42,127,2421393840
30,22,13,Improv_Metronome,211,1,38,56,2421477052
30,22,13,Improv_Metronome,212,1,38,57,2421874084
30,22,13,Improv_Metronome,213,5,42,127,2421893440
30,22,13,Improv_Metronome,214,1,38,59,2422004928
30,22,13,Improv_Metronome,215,5,42,127,2422394384
30,22,13,Improv_Metronome,216,1,38,57,2422534388
30,22,13,Improv_Metronome,217,1,48,45,2422540352
30,22,13,Improv_Metronome,218,5,42,127,2422893932
30,22,13,Improv_Metronome,219,1,38,54,2423055196
30,22,13,Improv_Metronome,220,1,48,57,2423060568
30,22,13,Improv_Metronome,221,5,42,127,2423393504
30,22,13,Improv_Metronome,222,1,38,48,2423586632
30,22,13,Improv_Metronome,223,1,48,54,2423597312
30,22,13,Improv_Metronome,224,5,42,127,2423894348
30,22,13,Improv_Metronome,225,1,38,51,2424098248
30,22,13,Improv_Metronome,226,1,48,54,2424105780
30,22,13,Improv_Metronome,227,5,42,127,2424393996
30,22,13,Improv_Metronome,228,1,38,55,2424619436
30,22,13,Improv_Metronome,229,5,42,127,2424893688
30,22,13,Improv_Metronome,230,1,48,60,2424917820
30,22,13,Improv_Metronome,231,1,38,53,2425176776
30,22,13,Improv_Metronome,232,5,42,127,2425393508
30,22,13,Improv_Metronome,233,1,48,67,2425441512
30,22,13,Improv_Metronome,234,1,38,54,2425699260
30,22,13,Improv_Metronome,235,5,42,127,2425894380
30,22,13,Improv_Metronome,236,1,48,62,2425987952
30,22,13,Improv_Metronome,237,1,38,51,2426225716
30,22,13,Improv_Metronome,238,5,42,127,2426393904
30,22,13,Improv_Metronome,239,1,48,65,2426522936
30,22,13,Improv_Metronome,240,1,38,53,2426783384
30,22,13,Improv_Metronome,241,5,42,127,2426893876
30,22,13,Improv_Metronome,242,1,38,57,2427346060
30,22,13,Improv_Metronome,243,1,48,70,2427352472
30,22,13,Improv_Metronome,244,5,42,127,2427394392
30,22,13,Improv_Metronome,245,1,48,61,2427892476
30,22,13,Improv_Metronome,246,5,42,127,2427894056
30,22,13,Improv_Metronome,247,1,38,54,2427896724
30,22,13,Improv_Metronome,248,5,42,127,2428393800
30,22,13,Improv_Metronome,249,1,38,52,2428423020
30,22,13,Improv_Metronome,250,1,48,59,2428426816
30,22,13,Improv_Metronome,251,5,42,127,2428893596
30,22,13,Improv_Metronome,252,1,38,61,2428947728
30,22,13,Improv_Metronome,253,1,48,89,2428956532
30,22,13,Improv_Metronome,254,5,42,127,2429394364
30,22,13,Improv_Metronome,255,1,48,60,2429457244
30,22,13,Improv_Metronome,256,1,38,48,2429466056
30,22,13,Improv_Metronome,257,1,38,55,2429680400
30,22,13,Improv_Metronome,258,1,48,70,2429699976
30,22,13,Improv_Metronome,259,5,42,127,2429893944
30,22,13,Improv_Metronome,260,1,38,54,2430197472
30,22,13,Improv_Metronome,261,1,48,80,2430209424
30,22,13,Improv_Metronome,262,5,42,127,2430393740
30,22,13,Improv_Metronome,263,1,38,59,2430459392
30,22,13,Improv_Metronome,264,1,48,82,2430462588
30,22,13,Improv_Metronome,265,5,42,127,2430893388
30,22,13,Improv_Metronome,266,1,48,80,2430956340
30,22,13,Improv_Metronome,267,1,38,51,2430959612
30,22,13,Improv_Metronome,268,5,42,127,2431394008
30,22,13,Improv_Metronome,269,1,48,63,2431477908
30,22,13,Improv_Metronome,270,1,38,56,2431491724
30,22,13,Improv_Metronome,271,5,42,127,2431893804
30,22,13,Improv_Metronome,272,1,38,52,2432005900
30,22,13,Improv_Metronome,273,1,48,57,2432012320
30,22,13,Improv_Metronome,274,5,42,127,2432393528
30,22,13,Improv_Metronome,275,1,38,49,2432505928
30,22,13,Improv_Metronome,276,1,48,48,2432509124
30,22,13,Improv_Metronome,277,5,42,127,2432894444
30,22,13,Improv_Metronome,278,1,38,62,2433036464
30,22,13,Improv_Metronome,279,1,48,83,2433041832
30,22,13,Improv_Metronome,280,5,42,127,2433393992
30,22,13,Improv_Metronome,281,1,48,61,2433557200
30,22,13,Improv_Metronome,282,1,38,46,2433560472
30,22,13,Improv_Metronome,283,1,38,53,2433787844
30,22,13,Improv_Metronome,284,1,48,65,2433795904
30,22,13,Improv_Metronome,285,5,42,127,2433893732
30,22,13,Improv_Metronome,286,1,38,46,2434353840
30,22,13,Improv_Metronome,287,1,48,64,2434362424
30,22,13,Improv_Metronome,288,5,42,127,2434393424
30,22,13,Improv_Metronome,289,1,38,53,2434604008
30,22,13,Improv_Metronome,290,1,48,70,2434610428
30,22,13,Improv_Metronome,291,5,42,127,2434894368
30,22,13,Improv_Metronome,292,1,48,85,2435131856
30,22,13,Improv_Metronome,293,1,38,54,2435132512
30,22,13,Improv_Metronome,294,5,42,127,2435394016
30,22,13,Improv_Metronome,295,1,38,45,2435729736
30,22,13,Improv_Metronome,296,1,48,54,2435732932
30,22,13,Improv_Metronome,297,5,42,127,2435893740
30,22,13,Improv_Metronome,298,1,48,66,2436274108
30,22,13,Improv_Metronome,299,1,38,51,2436277312
30,22,13,Improv_Metronome,300,5,42,127,2436394432
30,22,13,Improv_Metronome,301,1,38,49,2436841300
30,22,13,Improv_Metronome,302,1,48,53,2436843824
30,22,13,Improv_Metronome,303,5,42,127,2436894272
30,22,13,Improv_Metronome,304,1,38,51,2437379244
30,22,13,Improv_Metronome,305,1,48,62,2437382960
30,22,13,Improv_Metronome,306,5,42,127,2437393692
30,22,13,Improv_Metronome,307,5,42,127,2437893444
30,22,13,Improv_Metronome,308,1,38,49,2437921024
30,22,13,Improv_Metronome,309,1,48,58,2437924292
30,22,13,Improv_Metronome,310,5,42,127,2438394360
30,22,13,Improv_Metronome,311,1,38,44,2438441088
30,22,13,Improv_Metronome,312,1,48,55,2438446972
30,22,13,Improv_Metronome,313,5,42,127,2438893932
30,22,13,Improv_Metronome,314,1,38,49,2438943948
30,22,13,Improv_Metronome,315,1,48,60,2438947220
30,22,13,Improv_Metronome,316,5,42,127,2439393728
30,22,13,Improv_Metronome,317,1,48,71,2439472092
30,22,13,Improv_Metronome,318,1,38,55,2439472748
30,22,13,Improv_Metronome,319,1,38,42,2439687392
30,22,13,Improv_Metronome,320,1,48,58,2439703680
30,22,13,Improv_Metronome,321,5,42,127,2439894368
30,22,13,Improv_Metronome,322,1,38,52,2439950892
30,22,13,Improv_Metronome,323,1,48,68,2439956404
30,22,13,Improv_Metronome,324,5,42,127,2440394088
30,22,13,Improv_Metronome,325,1,48,60,2440458320
30,22,13,Improv_Metronome,326,1,38,42,2440461592
30,22,13,Improv_Metronome,327,1,38,40,2440684764
30,22,13,Improv_Metronome,328,1,48,57,2440699628
30,22,13,Improv_Metronome,329,5,42,127,2440893968
30,22,13,Improv_Metronome,330,1,38,50,2440929552
30,22,13,Improv_Metronome,331,1,48,72,2440939252
30,22,13,Improv_Metronome,332,5,42,127,2441393616
30,22,13,Improv_Metronome,333,1,48,74,2441436528
30,22,13,Improv_Metronome,334,1,38,46,2441445332
30,22,13,Improv_Metronome,335,5,42,127,2441894312
30,22,13,Improv_Metronome,336,1,38,49,2441927800
30,22,13,Improv_Metronome,337,1,48,67,2441931072
30,22,13,Improv_Metronome,338,5,42,127,2442394180
30,22,13,Improv_Metronome,339,1,38,51,2442420640
30,22,13,Improv_Metronome,340,1,48,58,2442430044
30,22,13,Improv_Metronome,341,5,42,127,2442893604
30,22,13,Improv_Metronome,342,5,42,127,2443394444
30,22,13,Improv_Metronome,343,1,38,56,2443422172
30,22,13,Improv_Metronome,344,5,42,127,2443894264
30,22,13,Improv_Metronome,345,1,38,52,2443902692
30,22,13,Improv_Metronome,346,1,38,56,2444180120
30,22,13,Improv_Metronome,347,5,42,127,2444393908
30,22,13,Improv_Metronome,348,1,38,56,2444670168
30,22,13,Improv_Metronome,349,5,42,127,2444893680
30,22,13,Improv_Metronome,350,1,38,55,2444904504
30,22,13,Improv_Metronome,351,1,38,52,2445142660
30,22,13,Improv_Metronome,352,1,38,62,2445387852
30,22,13,Improv_Metronome,353,5,42,127,2445394244
30,22,13,Improv_Metronome,354,1,38,58,2445877372
30,22,13,Improv_Metronome,355,5,42,127,2445894236
30,22,13,Improv_Metronome,356,5,42,127,2446393864
30,22,13,Improv_Metronome,357,1,38,55,2446394828
30,22,13,Improv_Metronome,358,5,42,127,2446893408
30,22,13,Improv_Metronome,359,1,38,56,2446900492
30,22,13,Improv_Metronome,360,5,42,127,2447394296
30,22,13,Improv_Metronome,361,1,48,48,2447428604
30,22,13,Improv_Metronome,362,5,42,127,2447893992
30,22,13,Improv_Metronome,363,1,48,52,2447962484
30,22,13,Improv_Metronome,364,5,42,127,2448393760
30,22,13,Improv_Metronome,365,1,48,60,2448434948
30,22,13,Improv_Metronome,366,5,42,127,2448894352
30,22,13,Improv_Metronome,367,1,48,55,2448906144
30,22,13,Improv_Metronome,368,1,48,58,2449150216
30,22,13,Improv_Metronome,369,5,42,127,2449393952
30,22,13,Improv_Metronome,370,1,48,60,2449412924
30,22,13,Improv_Metronome,371,5,42,127,2449893720
30,22,13,Improv_Metronome,372,1,48,55,2449896540
30,22,13,Improv_Metronome,373,1,48,61,2450079196
30,22,13,Improv_Metronome,374,1,48,64,2450374728
30,22,13,Improv_Metronome,375,5,42,127,2450393388
30,22,13,Improv_Metronome,376,5,42,127,2450894132
30,22,13,Improv_Metronome,377,1,48,57,2450913708
30,22,13,Improv_Metronome,378,5,42,127,2451393828
30,22,13,Improv_Metronome,379,1,48,56,2451425372
30,22,13,Improv_Metronome,380,1,48,54,2451666072
30,22,13,Improv_Metronome,381,5,42,127,2451893800
30,22,13,Improv_Metronome,382,1,48,48,2451907312
30,22,13,Improv_Metronome,383,1,48,52,2452180852
30,22,13,Improv_Metronome,384,5,42,127,2452394520
30,22,13,Improv_Metronome,385,1,48,51,2452421952
30,22,13,Improv_Metronome,386,5,42,127,2452893992
30,22,13,Improv_Metronome,387,1,48,54,2452919772
30,22,13,Improv_Metronome,388,5,42,127,2453393684
30,22,13,Improv_Metronome,389,1,38,48,2453421860
30,22,13,Improv_Metronome,390,1,48,66,2453444732
30,22,13,Improv_Metronome,391,5,42,127,2453893408
30,22,13,Improv_Metronome,392,1,38,55,2453938564
30,22,13,Improv_Metronome,393,1,48,53,2453947140
30,22,13,Improv_Metronome,0,9999,9999,9999,2384391224
30,22,13,Improv_Metronome,1,9999,9999,9999,2384891988
30,22,13,Improv_Metronome,2,9999,9999,9999,2385391704
30,22,13,Improv_Metronome,3,9999,9999,9999,2385891416
30,22,13,Improv_Metronome,4,9999,9999,9999,2386391116
30,22,13,Improv_Metronome,5,9999,9999,9999,2386891856
30,22,13,Improv_Metronome,6,9999,9999,9999,2387391552
30,22,13,Improv_Metronome,7,9999,9999,9999,2387891320
30,22,13,Improv_Metronome,8,9999,9999,9999,2388391988
30,22,13,Improv_Metronome,9,9999,9999,9999,2388891756
30,22,13,Improv_Metronome,10,9999,9999,9999,2389391432
30,22,13,Improv_Metronome,11,9999,9999,9999,2389891124
30,22,13,Improv_Metronome,12,9999,9999,9999,2390391912
30,22,13,Improv_Metronome,13,9999,9999,9999,2390891612
30,22,13,Improv_Metronome,14,9999,9999,9999,2391391284
30,22,13,Improv_Metronome,15,9999,9999,9999,2391892024
30,22,13,Improv_Metronome,16,9999,9999,9999,2392391792
30,22,13,Improv_Metronome,17,9999,9999,9999,2392891440
30,22,13,Improv_Metronome,18,9999,9999,9999,2393391212
30,22,13,Improv_Metronome,19,9999,9999,9999,2393891904
30,22,13,Improv_Metronome,20,9999,9999,9999,2394391652
30,22,13,Improv_Metronome,21,9999,9999,9999,2394891340
30,22,13,Improv_Metronome,22,9999,9999,9999,2395392116
30,22,13,Improv_Metronome,23,9999,9999,9999,2395891768
30,22,13,Improv_Metronome,24,9999,9999,9999,2396391520
30,22,13,Improv_Metronome,25,9999,9999,9999,2396891188
30,22,13,Improv_Metronome,26,9999,9999,9999,2397391988
30,22,13,Improv_Metronome,27,9999,9999,9999,2397891684
30,22,13,Improv_Metronome,28,9999,9999,9999,2398391356
30,22,13,Improv_Metronome,29,9999,9999,9999,2398891104
30,22,13,Improv_Metronome,30,9999,9999,9999,2399391824
30,22,13,Improv_Metronome,31,9999,9999,9999,2399891512
30,22,13,Improv_Metronome,32,9999,9999,9999,2400391288
30,22,13,Improv_Metronome,33,9999,9999,9999,2400891964
30,22,13,Improv_Metronome,34,9999,9999,9999,2401391684
30,22,13,Improv_Metronome,35,9999,9999,9999,2401891396
30,22,13,Improv_Metronome,36,9999,9999,9999,2402391120
30,22,13,Improv_Metronome,37,9999,9999,9999,2402891860
30,22,13,Improv_Metronome,38,9999,9999,9999,2403391572
30,22,13,Improv_Metronome,39,9999,9999,9999,2403891308
30,22,13,Improv_Metronome,40,9999,9999,9999,2404392048
30,22,13,Improv_Metronome,41,9999,9999,9999,2404891696
30,22,13,Improv_Metronome,42,9999,9999,9999,2405391444
30,22,13,Improv_Metronome,43,9999,9999,9999,2405891136
30,22,13,Improv_Metronome,44,9999,9999,9999,2406391856
30,22,13,Improv_Metronome,45,9999,9999,9999,2406891624
30,22,13,Improv_Metronome,46,9999,9999,9999,2407391296
30,22,13,Improv_Metronome,47,9999,9999,9999,2407892040
30,22,13,Improv_Metronome,48,9999,9999,9999,2408391760
30,22,13,Improv_Metronome,49,9999,9999,9999,2408891512
30,22,13,Improv_Metronome,50,9999,9999,9999,2409391160
30,22,13,Improv_Metronome,51,9999,9999,9999,2409891928
30,22,13,Improv_Metronome,52,9999,9999,9999,2410391652
30,22,13,Improv_Metronome,53,9999,9999,9999,2410891380
30,22,13,Improv_Metronome,54,9999,9999,9999,2411392084
30,22,13,Improv_Metronome,55,9999,9999,9999,2411891784
30,22,13,Improv_Metronome,56,9999,9999,9999,2412391476
30,22,13,Improv_Metronome,57,9999,9999,9999,2412891236
30,22,13,Improv_Metronome,58,9999,9999,9999,2413391956
30,22,13,Improv_Metronome,59,9999,9999,9999,2413891648
30,22,13,Improv_Metronome,60,9999,9999,9999,2414391400
30,22,13,Improv_Metronome,61,9999,9999,9999,2414891096
30,22,13,Improv_Metronome,62,9999,9999,9999,2415391812
30,22,13,Improv_Metronome,63,9999,9999,9999,2415891508
30,22,13,Improv_Metronome,64,9999,9999,9999,2416391252
30,22,13,Improv_Metronome,65,9999,9999,9999,2416891996
30,22,13,Improv_Metronome,66,9999,9999,9999,2417391668
30,22,13,Improv_Metronome,67,9999,9999,9999,2417891416
30,22,13,Improv_Metronome,68,9999,9999,9999,2418391104
30,22,13,Improv_Metronome,69,9999,9999,9999,2418891844
30,22,13,Improv_Metronome,70,9999,9999,9999,2419391592
30,22,13,Improv_Metronome,71,9999,9999,9999,2419891264
30,22,13,Improv_Metronome,72,9999,9999,9999,2420392044
30,22,13,Improv_Metronome,73,9999,9999,9999,2420891732
30,22,13,Improv_Metronome,74,9999,9999,9999,2421391480
30,22,13,Improv_Metronome,75,9999,9999,9999,2421891156
30,22,13,Improv_Metronome,76,9999,9999,9999,2422391856
30,22,13,Improv_Metronome,77,9999,9999,9999,2422891572
30,22,13,Improv_Metronome,78,9999,9999,9999,2423391292
30,22,13,Improv_Metronome,79,9999,9999,9999,2423892060
30,22,13,Improv_Metronome,80,9999,9999,9999,2424391784
30,22,13,Improv_Metronome,81,9999,9999,9999,2424891476
30,22,13,Improv_Metronome,82,9999,9999,9999,2425391224
30,22,13,Improv_Metronome,83,9999,9999,9999,2425891944
30,22,13,Improv_Metronome,84,9999,9999,9999,2426391620
30,22,13,Improv_Metronome,85,9999,9999,9999,2426891368
30,22,13,Improv_Metronome,86,9999,9999,9999,2427392104
30,22,13,Improv_Metronome,87,9999,9999,9999,2427891784
30,22,13,Improv_Metronome,88,9999,9999,9999,2428391512
30,22,13,Improv_Metronome,89,9999,9999,9999,2428891236
30,22,13,Improv_Metronome,90,9999,9999,9999,2429391928
30,22,13,Improv_Metronome,91,9999,9999,9999,2429891656
30,22,13,Improv_Metronome,92,9999,9999,9999,2430391380
30,22,13,Improv_Metronome,93,9999,9999,9999,2430891100
30,22,13,Improv_Metronome,94,9999,9999,9999,2431391796
30,22,13,Improv_Metronome,95,9999,9999,9999,2431891516
30,22,13,Improv_Metronome,96,9999,9999,9999,2432391240
30,22,13,Improv_Metronome,97,9999,9999,9999,2432892008
30,22,13,Improv_Metronome,98,9999,9999,9999,2433391704
30,22,13,Improv_Metronome,99,9999,9999,9999,2433891444
30,22,13,Improv_Metronome,100,9999,9999,9999,2434391136
30,22,13,Improv_Metronome,101,9999,9999,9999,2434891860
30,22,13,Improv_Metronome,102,9999,9999,9999,2435391580
30,22,13,Improv_Metronome,103,9999,9999,9999,2435891304
30,22,13,Improv_Metronome,104,9999,9999,9999,2436391996
30,22,13,Improv_Metronome,105,9999,9999,9999,2436891760
30,22,13,Improv_Metronome,106,9999,9999,9999,2437391408
30,22,13,Improv_Metronome,107,9999,9999,9999,2437891156
30,22,13,Improv_Metronome,108,9999,9999,9999,2438391924
30,22,13,Improv_Metronome,109,9999,9999,9999,2438891572
30,22,13,Improv_Metronome,110,9999,9999,9999,2439391292
30,22,13,Improv_Metronome,111,9999,9999,9999,2439892080
30,22,13,Improv_Metronome,112,9999,9999,9999,2440391728
30,22,13,Improv_Metronome,113,9999,9999,9999,2440891460
30,22,13,Improv_Metronome,114,9999,9999,9999,2441391180
30,22,13,Improv_Metronome,115,9999,9999,9999,2441891948
30,22,13,Improv_Metronome,116,9999,9999,9999,2442391672
30,22,13,Improv_Metronome,117,9999,9999,9999,2442891320
30,22,13,Improv_Metronome,118,9999,9999,9999,2443392080
30,22,13,Improv_Metronome,119,9999,9999,9999,2443891828
30,22,13,Improv_Metronome,120,9999,9999,9999,2444391472
30,22,13,Improv_Metronome,121,9999,9999,9999,2444891244
30,22,13,Improv_Metronome,122,9999,9999,9999,2445391956
30,22,13,Improv_Metronome,123,9999,9999,9999,2445891652
30,22,13,Improv_Metronome,124,9999,9999,9999,2446391352
30,22,13,Improv_Metronome,125,9999,9999,9999,2446891120
30,22,13,Improv_Metronome,126,9999,9999,9999,2447391860
30,22,13,Improv_Metronome,127,9999,9999,9999,2447891556
30,22,13,Improv_Metronome,128,9999,9999,9999,2448391248
30,22,13,Improv_Metronome,129,9999,9999,9999,2448891992
30,22,13,Improv_Metronome,130,9999,9999,9999,2449391664
30,22,13,Improv_Metronome,131,9999,9999,9999,2449891432
30,22,13,Improv_Metronome,132,9999,9999,9999,2450391100
30,22,13,Improv_Metronome,133,9999,9999,9999,2450891848
30,22,13,Improv_Metronome,134,9999,9999,9999,2451391544
30,22,13,Improv_Metronome,135,9999,9999,9999,2451891292
30,22,13,Improv_Metronome,136,9999,9999,9999,2452392008
30,22,13,Improv_Metronome,137,9999,9999,9999,2452891704
30,22,13,Improv_Metronome,138,9999,9999,9999,2453391472
30,22,13,Improv_Metronome,139,9999,9999,9999,2453891120
30,23,14,Improv_Melody,0,2,48,80,2512850268
30,23,14,Improv_Melody,1,2,72,80,2512852652
30,23,14,Improv_Melody,2,5,42,127,2512855116
30,23,14,Improv_Melody,3,5,42,110,2513347880
30,23,14,Improv_Melody,4,5,42,110,2513847824
30,23,14,Improv_Melody,5,5,42,110,2514348300
30,23,14,Improv_Melody,6,5,42,127,2514848092
30,23,14,Improv_Melody,7,5,42,110,2515347816
30,23,14,Improv_Melody,8,5,42,110,2515847612
30,23,14,Improv_Melody,9,5,42,110,2516348304
30,23,14,Improv_Melody,10,2,43,80,2516850756
30,23,14,Improv_Melody,11,2,67,80,2516852920
30,23,14,Improv_Melody,12,5,42,127,2516855376
30,23,14,Improv_Melody,13,5,42,110,2517347892
30,23,14,Improv_Melody,14,5,42,110,2517848512
30,23,14,Improv_Melody,15,5,42,110,2518348012
30,23,14,Improv_Melody,16,5,42,127,2518847952
30,23,14,Improv_Melody,17,5,42,110,2519347600
30,23,14,Improv_Melody,18,5,42,110,2519848520
30,23,14,Improv_Melody,19,5,42,110,2520347944
30,23,14,Improv_Melody,20,2,45,80,2520850092
30,23,14,Improv_Melody,21,2,69,80,2520852396
30,23,14,Improv_Melody,22,5,42,127,2520854788
30,23,14,Improv_Melody,23,5,42,110,2521347324
30,23,14,Improv_Melody,24,5,42,110,2521848540
30,23,14,Improv_Melody,25,5,42,110,2522347816
30,23,14,Improv_Melody,26,5,42,127,2522847464
30,23,14,Improv_Melody,27,5,42,110,2523348380
30,23,14,Improv_Melody,28,5,42,110,2523848028
30,23,14,Improv_Melody,29,5,42,110,2524347752
30,23,14,Improv_Melody,30,2,41,80,2524849900
30,23,14,Improv_Melody,31,2,65,80,2524852128
30,23,14,Improv_Melody,32,5,42,127,2524854592
30,23,14,Improv_Melody,33,5,42,110,2525348400
30,23,14,Improv_Melody,34,5,42,110,2525847976
30,23,14,Improv_Melody,35,5,42,110,2526347548
30,23,14,Improv_Melody,36,5,42,127,2526848316
30,23,14,Improv_Melody,37,5,42,110,2527348112
30,23,14,Improv_Melody,38,1,38,38,2527349980
30,23,14,Improv_Melody,39,5,42,110,2527847936
30,23,14,Improv_Melody,40,1,38,51,2528133472
30,23,14,Improv_Melody,41,5,42,110,2528347412
30,23,14,Improv_Melody,42,1,38,50,2528370304
30,23,14,Improv_Melody,43,1,48,64,2528831664
30,23,14,Improv_Melody,44,1,38,53,2528847716
30,23,14,Improv_Melody,45,2,48,80,2528853412
30,23,14,Improv_Melody,46,2,72,80,2528855188
30,23,14,Improv_Melody,47,5,42,127,2528858020
30,23,14,Improv_Melody,48,1,38,47,2529336636
30,23,14,Improv_Melody,49,1,48,56,2529345912
30,23,14,Improv_Melody,50,5,42,110,2529347948
30,23,14,Improv_Melody,51,1,38,52,2529584276
30,23,14,Improv_Melody,52,1,48,61,2529598012
30,23,14,Improv_Melody,53,5,42,110,2529847636
30,23,14,Improv_Melody,54,1,38,41,2530088932
30,23,14,Improv_Melody,55,1,48,51,2530103652
30,23,14,Improv_Melody,56,1,38,40,2530346216
30,23,14,Improv_Melody,57,5,42,110,2530348404
30,23,14,Improv_Melody,58,1,48,48,2530353992
30,23,14,Improv_Melody,59,1,38,47,2530810408
30,23,14,Improv_Melody,60,5,42,127,2530847996
30,23,14,Improv_Melody,61,1,38,48,2531326040
30,23,14,Improv_Melody,62,5,42,110,2531347992
30,23,14,Improv_Melody,63,1,38,46,2531817208
30,23,14,Improv_Melody,64,5,42,110,2531847544
30,23,14,Improv_Melody,65,1,38,48,2532327232
30,23,14,Improv_Melody,66,5,42,110,2532348364
30,23,14,Improv_Melody,67,1,38,46,2532839348
30,23,14,Improv_Melody,68,1,48,53,2532850040
30,23,14,Improv_Melody,69,2,43,80,2532851992
30,23,14,Improv_Melody,70,2,67,80,2532853840
30,23,14,Improv_Melody,71,5,42,127,2532856300
30,23,14,Improv_Melody,72,5,42,110,2533347824
30,23,14,Improv_Melody,73,1,38,44,2533359848
30,23,14,Improv_Melody,74,1,48,54,2533372320
30,23,14,Improv_Melody,75,5,42,110,2533848304
30,23,14,Improv_Melody,76,1,48,51,2533858376
30,23,14,Improv_Melody,77,1,48,50,2534327388
30,23,14,Improv_Melody,78,5,42,110,2534348068
30,23,14,Improv_Melody,79,1,48,43,2534598328
30,23,14,Improv_Melody,80,5,42,127,2534847752
30,23,14,Improv_Melody,81,1,48,49,2534848720
30,23,14,Improv_Melody,82,1,48,48,2535314872
30,23,14,Improv_Melody,83,5,42,110,2535347744
30,23,14,Improv_Melody,84,1,48,51,2535549832
30,23,14,Improv_Melody,85,1,48,46,2535824720
30,23,14,Improv_Melody,86,5,42,110,2535848248
30,23,14,Improv_Melody,87,5,42,110,2536347952
30,23,14,Improv_Melody,88,1,48,56,2536744460
30,23,14,Improv_Melody,89,2,45,80,2536850232
30,23,14,Improv_Melody,90,2,69,80,2536852456
30,23,14,Improv_Melody,91,5,42,127,2536854920
30,23,14,Improv_Melody,92,1,48,67,2536904264
30,23,14,Improv_Melody,93,5,42,110,2537347736
30,23,14,Improv_Melody,94,1,38,51,2537400452
30,23,14,Improv_Melody,95,5,42,110,2537848040
30,23,14,Improv_Melody,96,1,38,52,2537896856
30,23,14,Improv_Melody,97,5,42,110,2538347864
30,23,14,Improv_Melody,98,1,38,38,2538570612
30,23,14,Improv_Melody,99,1,38,48,2538842728
30,23,14,Improv_Melody,100,5,42,127,2538848000
30,23,14,Improv_Melody,101,5,42,110,2539348308
30,23,14,Improv_Melody,102,1,38,51,2539359956
30,23,14,Improv_Melody,103,1,38,40,2539599460
30,23,14,Improv_Melody,104,5,42,110,2539847912
30,23,14,Improv_Melody,105,1,38,53,2540069020
30,23,14,Improv_Melody,106,1,38,39,2540304412
30,23,14,Improv_Melody,107,5,42,110,2540347900
30,23,14,Improv_Melody,108,1,38,44,2540542564
30,23,14,Improv_Melody,109,1,38,54,2540775864
30,23,14,Improv_Melody,110,2,41,80,2540849988
30,23,14,Improv_Melody,111,2,65,80,2540852292
30,23,14,Improv_Melody,112,5,42,127,2540854752
30,23,14,Improv_Melody,113,5,42,110,2541348172
30,23,14,Improv_Melody,114,1,38,49,2541354212
30,23,14,Improv_Melody,115,1,48,51,2541356732
30,23,14,Improv_Melody,116,1,38,47,2541834616
30,23,14,Improv_Melody,117,1,48,58,2541837060
30,23,14,Improv_Melody,118,5,42,110,2541848020
30,23,14,Improv_Melody,119,1,48,30,2541912312
30,23,14,Improv_Melody,120,5,42,110,2542347692
30,23,14,Improv_Melody,121,1,38,14,2542405560
30,23,14,Improv_Melody,122,1,48,65,2542822064
30,23,14,Improv_Melody,123,1,38,49,2542824588
30,23,14,Improv_Melody,124,5,42,127,2542848560
30,23,14,Improv_Melody,125,1,38,49,2543328748
30,23,14,Improv_Melody,126,1,48,67,2543346180
30,23,14,Improv_Melody,127,5,42,110,2543348360
30,23,14,Improv_Melody,128,1,48,57,2543576604
30,23,14,Improv_Melody,129,1,38,27,2543588176
30,23,14,Improv_Melody,130,1,38,48,2543821152
30,23,14,Improv_Melody,131,1,48,62,2543836612
30,23,14,Improv_Melody,132,5,42,110,2543847724
30,23,14,Improv_Melody,133,1,48,61,2544340472
30,23,14,Improv_Melody,134,1,38,40,2544343820
30,23,14,Improv_Melody,135,5,42,110,2544347376
30,23,14,Improv_Melody,136,1,38,47,2544831680
30,23,14,Improv_Melody,137,2,48,80,2544850900
30,23,14,Improv_Melody,138,2,72,80,2544853128
30,23,14,Improv_Melody,139,5,42,127,2544855736
30,23,14,Improv_Melody,140,1,48,64,2545146088
30,23,14,Improv_Melody,141,5,42,110,2545347940
30,23,14,Improv_Melody,142,1,38,48,2545399752
30,23,14,Improv_Melody,143,1,48,62,2545617268
30,23,14,Improv_Melody,144,5,42,110,2545847692
30,23,14,Improv_Melody,145,1,38,49,2545855528
30,23,14,Improv_Melody,146,1,48,57,2546126148
30,23,14,Improv_Melody,147,5,42,110,2546348348
30,23,14,Improv_Melody,148,1,38,43,2546359168
30,23,14,Improv_Melody,149,1,48,62,2546626576
30,23,14,Improv_Melody,150,5,42,127,2546848396
30,23,14,Improv_Melody,151,1,38,42,2546852116
30,23,14,Improv_Melody,152,5,42,110,2547347872
30,23,14,Improv_Melody,153,1,38,45,2547381060
30,23,14,Improv_Melody,154,1,38,52,2547747872
30,23,14,Improv_Melody,155,5,42,110,2547847696
30,23,14,Improv_Melody,156,1,38,53,2547859268
30,23,14,Improv_Melody,157,1,38,51,2548120096
30,23,14,Improv_Melody,158,5,42,110,2548348276
30,23,14,Improv_Melody,159,1,38,49,2548356704
30,23,14,Improv_Melody,160,1,38,49,2548600472
30,23,14,Improv_Melody,161,1,38,52,2548840252
30,23,14,Improv_Melody,162,2,43,80,2548850608
30,23,14,Improv_Melody,163,2,67,80,2548852912
30,23,14,Improv_Melody,164,5,42,127,2548855444
30,23,14,Improv_Melody,165,5,42,110,2549347648
30,23,14,Improv_Melody,166,1,48,52,2549351216
30,23,14,Improv_Melody,167,5,42,110,2549848396
30,23,14,Improv_Melody,168,1,48,51,2549855628
30,23,14,Improv_Melody,169,1,48,61,2549871460
30,23,14,Improv_Melody,170,5,42,110,2550348272
30,23,14,Improv_Melody,171,1,38,65,2550352216
30,23,14,Improv_Melody,172,1,38,51,2550748968
30,23,14,Improv_Melody,173,5,42,127,2550847948
30,23,14,Improv_Melody,174,1,38,48,2550866848
30,23,14,Improv_Melody,175,1,38,58,2551116380
30,23,14,Improv_Melody,176,5,42,110,2551347552
30,23,14,Improv_Melody,177,1,38,44,2551350972
30,23,14,Improv_Melody,178,1,38,58,2551589724
30,23,14,Improv_Melody,179,1,38,45,2551843896
30,23,14,Improv_Melody,180,5,42,110,2551848196
30,23,14,Improv_Melody,181,5,42,110,2552348048
30,23,14,Improv_Melody,182,1,48,82,2552353264
30,23,14,Improv_Melody,183,1,38,53,2552356608
30,23,14,Improv_Melody,184,2,45,80,2552850440
30,23,14,Improv_Melody,185,2,69,80,2552852588
30,23,14,Improv_Melody,186,5,42,127,2552855120
30,23,14,Improv_Melody,187,1,38,57,2552869460
30,23,14,Improv_Melody,188,1,48,85,2552877072
30,23,14,Improv_Melody,189,5,42,110,2553347368
30,23,14,Improv_Melody,190,1,38,45,2553397160
30,23,14,Improv_Melody,191,1,38,46,2553752552
30,23,14,Improv_Melody,192,5,42,110,2553848184
30,23,14,Improv_Melody,193,1,38,48,2553874776
30,23,14,Improv_Melody,194,5,42,110,2554347868
30,23,14,Improv_Melody,195,1,38,55,2554358464
30,23,14,Improv_Melody,196,1,38,43,2554723856
30,23,14,Improv_Melody,197,5,42,127,2554847472
30,23,14,Improv_Melody,198,1,38,49,2554868316
30,23,14,Improv_Melody,199,1,38,44,2555134304
30,23,14,Improv_Melody,200,1,38,48,2555343068
30,23,14,Improv_Melody,201,5,42,110,2555348340
30,23,14,Improv_Melody,202,1,38,52,2555579004
30,23,14,Improv_Melody,203,5,42,110,2555848024
30,23,14,Improv_Melody,204,1,38,48,2555850116
30,23,14,Improv_Melody,205,1,38,52,2556339976
30,23,14,Improv_Melody,206,5,42,110,2556348016
30,23,14,Improv_Melody,207,1,48,62,2556354804
30,23,14,Improv_Melody,208,2,41,80,2556850120
30,23,14,Improv_Melody,209,2,65,80,2556852276
30,23,14,Improv_Melody,210,5,42,127,2556854808
30,23,14,Improv_Melody,211,1,48,97,2556874680
30,23,14,Improv_Melody,212,1,38,49,2556877880
30,23,14,Improv_Melody,213,5,42,110,2557348252
30,23,14,Improv_Melody,214,1,38,50,2557420332
30,23,14,Improv_Melody,215,1,38,48,2557747428
30,23,14,Improv_Melody,216,5,42,110,2557848152
30,23,14,Improv_Melody,217,1,38,50,2557870944
30,23,14,Improv_Melody,218,5,42,110,2558347704
30,23,14,Improv_Melody,219,1,38,46,2558348744
30,23,14,Improv_Melody,220,1,38,61,2558360604
30,23,14,Improv_Melody,221,5,42,127,2558848356
30,23,14,Improv_Melody,222,1,38,57,2558873840
30,23,14,Improv_Melody,223,1,38,27,2559090528
30,23,14,Improv_Melody,224,1,38,48,2559106964
30,23,14,Improv_Melody,225,1,38,35,2559323336
30,23,14,Improv_Melody,226,1,38,47,2559344352
30,23,14,Improv_Melody,227,5,42,110,2559347984
30,23,14,Improv_Melody,228,1,38,33,2559573164
30,23,14,Improv_Melody,229,1,38,46,2559583612
30,23,14,Improv_Melody,230,1,38,55,2559842716
30,23,14,Improv_Melody,231,5,42,110,2559847840
30,23,14,Improv_Melody,232,1,38,65,2560347620
30,23,14,Improv_Melody,233,5,42,110,2560350156
30,23,14,Improv_Melody,234,1,48,17,2560357764
30,23,14,Improv_Melody,235,1,38,44,2560568892
30,23,14,Improv_Melody,236,1,38,51,2560584352
30,23,14,Improv_Melody,237,1,38,68,2560830892
30,23,14,Improv_Melody,238,2,48,80,2560851020
30,23,14,Improv_Melody,239,2,72,80,2560852940
30,23,14,Improv_Melody,240,5,42,127,2560855924
30,23,14,Improv_Melody,241,5,42,110,2561347928
30,23,14,Improv_Melody,242,1,38,53,2561365708
30,23,14,Improv_Melody,243,1,48,71,2561379076
30,23,14,Improv_Melody,244,1,38,49,2561815824
30,23,14,Improv_Melody,245,5,42,110,2561847648
30,23,14,Improv_Melody,246,5,42,110,2562348256
30,23,14,Improv_Melody,247,1,48,76,2562354068
30,23,14,Improv_Melody,248,1,38,62,2562361304
30,23,14,Improv_Melody,249,5,42,127,2562847984
30,23,14,Improv_Melody,250,1,38,48,2562885580
30,23,14,Improv_Melody,251,5,42,110,2563347684
30,23,14,Improv_Melody,252,1,38,58,2563359780
30,23,14,Improv_Melody,253,1,48,72,2563385416
30,23,14,Improv_Melody,254,5,42,110,2563847632
30,23,14,Improv_Melody,255,1,38,52,2563883144
30,23,14,Improv_Melody,256,5,42,110,2564348452
30,23,14,Improv_Melody,257,1,38,60,2564361072
30,23,14,Improv_Melody,258,1,48,76,2564368232
30,23,14,Improv_Melody,259,2,43,80,2564850552
30,23,14,Improv_Melody,260,2,67,80,2564852628
30,23,14,Improv_Melody,261,5,42,127,2564855020
30,23,14,Improv_Melody,262,1,38,49,2564864344
30,23,14,Improv_Melody,263,5,42,110,2565347608
30,23,14,Improv_Melody,264,1,38,44,2565378108
30,23,14,Improv_Melody,265,1,38,28,2565601080
30,23,14,Improv_Melody,266,1,38,46,2565606668
30,23,14,Improv_Melody,267,5,42,110,2565848612
30,23,14,Improv_Melody,268,1,38,63,2565850480
30,23,14,Improv_Melody,269,1,48,61,2566328292
30,23,14,Improv_Melody,270,1,38,52,2566335608
30,23,14,Improv_Melody,271,5,42,110,2566348284
30,23,14,Improv_Melody,272,1,48,81,2566825184
30,23,14,Improv_Melody,273,1,38,62,2566832492
30,23,14,Improv_Melody,274,5,42,127,2566848012
30,23,14,Improv_Melody,275,1,38,52,2567324688
30,23,14,Improv_Melody,276,1,38,61,2567335580
30,23,14,Improv_Melody,277,5,42,110,2567347512
30,23,14,Improv_Melody,278,1,38,30,2567554168
30,23,14,Improv_Melody,279,1,38,52,2567562968
30,23,14,Improv_Melody,280,1,38,61,2567824840
30,23,14,Improv_Melody,281,1,48,17,2567835216
30,23,14,Improv_Melody,282,5,42,110,2567848492
30,23,14,Improv_Melody,283,1,38,53,2568342516
30,23,14,Improv_Melody,284,1,48,54,2568345808
30,23,14,Improv_Melody,285,5,42,110,2568347920
30,23,14,Improv_Melody,286,2,45,80,2568850180
30,23,14,Improv_Melody,287,1,38,52,2568851372
30,23,14,Improv_Melody,288,2,69,80,2568855256
30,23,14,Improv_Melody,289,1,48,64,2568856148
30,23,14,Improv_Melody,290,5,42,127,2568858984
30,23,14,Improv_Melody,291,5,42,110,2569347296
30,23,14,Improv_Melody,292,1,38,46,2569374876
30,23,14,Improv_Melody,293,5,42,110,2569848264
30,23,14,Improv_Melody,294,1,38,58,2569851460
30,23,14,Improv_Melody,295,5,42,110,2570348016
30,23,14,Improv_Melody,296,1,38,58,2570375668
30,23,14,Improv_Melody,297,1,48,62,2570618016
30,23,14,Improv_Melody,298,5,42,127,2570847592
30,23,14,Improv_Melody,299,1,38,54,2570856920
30,23,14,Improv_Melody,300,5,42,110,2571348264
30,23,14,Improv_Melody,301,1,38,57,2571370084
30,23,14,Improv_Melody,302,5,42,110,2571848260
30,23,14,Improv_Melody,303,1,38,53,2571854596
30,23,14,Improv_Melody,304,5,42,110,2572347736
30,23,14,Improv_Melody,305,1,38,53,2572369036
30,23,14,Improv_Melody,306,1,48,64,2572647584
30,23,14,Improv_Melody,307,2,41,80,2572850228
30,23,14,Improv_Melody,308,2,65,80,2572852228
30,23,14,Improv_Melody,309,5,42,127,2572854836
30,23,14,Improv_Melody,310,1,38,59,2572885184
30,23,14,Improv_Melody,311,5,42,110,2573348104
30,23,14,Improv_Melody,312,1,38,51,2573378372
30,23,14,Improv_Melody,313,1,38,62,2573405208
30,23,14,Improv_Melody,314,5,42,110,2573848080
30,23,14,Improv_Melody,315,1,38,59,2573858156
30,23,14,Improv_Melody,316,5,42,110,2574347484
30,23,14,Improv_Melody,317,1,48,82,2574396752
30,23,14,Improv_Melody,318,1,38,56,2574657724
30,23,14,Improv_Melody,319,5,42,127,2574848356
30,23,14,Improv_Melody,320,1,38,57,2575138876
30,23,14,Improv_Melody,321,5,42,110,2575348204
30,23,14,Improv_Melody,322,1,48,76,2575365012
30,23,14,Improv_Melody,323,5,42,110,2575847904
30,23,14,Improv_Melody,324,1,38,61,2575851100
30,23,14,Improv_Melody,325,1,48,63,2575858632
30,23,14,Improv_Melody,326,1,38,57,2576344148
30,23,14,Improv_Melody,327,1,48,73,2576347536
30,23,14,Improv_Melody,328,5,42,110,2576349328
30,23,14,Improv_Melody,329,1,38,61,2576830788
30,23,14,Improv_Melody,330,1,48,70,2576837648
30,23,14,Improv_Melody,331,2,48,80,2576850968
30,23,14,Improv_Melody,332,2,72,80,2576853116
30,23,14,Improv_Melody,333,5,42,127,2576855724
30,23,14,Improv_Melody,334,1,48,61,2577333444
30,23,14,Improv_Melody,335,1,38,51,2577336788
30,23,14,Improv_Melody,336,5,42,110,2577347896
30,23,14,Improv_Melody,337,1,48,66,2577844240
30,23,14,Improv_Melody,338,5,42,110,2577847864
30,23,14,Improv_Melody,339,1,38,60,2577850236
30,23,14,Improv_Melody,340,1,38,55,2578327748
30,23,14,Improv_Melody,341,5,42,110,2578348356
30,23,14,Improv_Melody,342,1,38,41,2578579240
30,23,14,Improv_Melody,343,5,42,127,2578848116
30,23,14,Improv_Melody,344,1,38,53,2579077152
30,23,14,Improv_Melody,345,1,38,49,2579306008
30,23,14,Improv_Melody,346,1,38,56,2579319248
30,23,14,Improv_Melody,347,5,42,110,2579347784
30,23,14,Improv_Melody,348,1,38,64,2579833912
30,23,14,Improv_Melody,349,5,42,110,2579847708
30,23,14,Improv_Melody,350,1,38,64,2580324832
30,23,14,Improv_Melody,351,5,42,110,2580348380
30,23,14,Improv_Melody,352,1,48,80,2580830892
30,23,14,Improv_Melody,353,1,38,59,2580835204
30,23,14,Improv_Melody,354,2,43,80,2580850568
30,23,14,Improv_Melody,355,2,67,80,2580852568
30,23,14,Improv_Melody,356,5,42,127,2580855108
30,23,14,Improv_Melody,357,1,48,38,2580894864
30,23,14,Improv_Melody,358,5,42,110,2581347852
30,23,14,Improv_Melody,359,1,38,59,2581368648
30,23,14,Improv_Melody,360,1,38,53,2581838236
30,23,14,Improv_Melody,361,5,42,110,2581848524
30,23,14,Improv_Melody,362,1,38,53,2582318416
30,23,14,Improv_Melody,363,5,42,110,2582348072
30,23,14,Improv_Melody,364,1,38,60,2582811456
30,23,14,Improv_Melody,365,5,42,127,2582847772
30,23,14,Improv_Melody,366,1,38,49,2583324996
30,23,14,Improv_Melody,367,1,38,58,2583342552
30,23,14,Improv_Melody,368,5,42,110,2583347748
30,23,14,Improv_Melody,369,1,38,37,2583563528
30,23,14,Improv_Melody,370,1,38,48,2583819788
30,23,14,Improv_Melody,371,5,42,110,2583848324
30,23,14,Improv_Melody,372,1,38,35,2584061340
30,23,14,Improv_Melody,373,1,38,35,2584302488
30,23,14,Improv_Melody,374,1,38,49,2584312488
30,23,14,Improv_Melody,375,5,42,110,2584347908
30,23,14,Improv_Melody,376,1,38,40,2584528752
30,23,14,Improv_Melody,377,1,38,47,2584549532
30,23,14,Improv_Melody,378,1,38,58,2584810576
30,23,14,Improv_Melody,379,2,45,80,2584850140
30,23,14,Improv_Melody,380,2,69,80,2584852596
30,23,14,Improv_Melody,381,5,42,127,2584854980
30,23,14,Improv_Melody,382,5,42,110,2585347508
30,23,14,Improv_Melody,383,1,38,52,2585363868
30,23,14,Improv_Melody,384,1,48,67,2585372000
30,23,14,Improv_Melody,385,5,42,110,2585848132
30,23,14,Improv_Melody,386,1,38,57,2585851848
30,23,14,Improv_Melody,387,1,48,70,2585859460
30,23,14,Improv_Melody,388,1,38,54,2586320512
30,23,14,Improv_Melody,389,1,48,68,2586326924
30,23,14,Improv_Melody,390,5,42,110,2586347832
30,23,14,Improv_Melody,391,1,48,36,2586387588
30,23,14,Improv_Melody,392,5,42,127,2586847500
30,23,14,Improv_Melody,393,1,48,65,2586851068
30,23,14,Improv_Melody,394,1,38,47,2586854264
30,23,14,Improv_Melody,395,5,42,110,2587348424
30,23,14,Improv_Melody,396,1,38,53,2587378544
30,23,14,Improv_Melody,397,1,48,66,2587382868
30,23,14,Improv_Melody,398,5,42,110,2587848004
30,23,14,Improv_Melody,399,1,38,48,2587869452
30,23,14,Improv_Melody,400,1,48,65,2587875340
30,23,14,Improv_Melody,401,1,38,52,2588338932
30,23,14,Improv_Melody,402,1,48,73,2588345424
30,23,14,Improv_Melody,403,5,42,110,2588347704
30,23,14,Improv_Melody,404,2,41,80,2588849960
30,23,14,Improv_Melody,405,2,65,80,2588852188
30,23,14,Improv_Melody,406,5,42,127,2588854728
30,23,14,Improv_Melody,407,1,38,43,2588863760
30,23,14,Improv_Melody,408,1,38,59,2588873160
30,23,14,Improv_Melody,409,1,38,27,2588931852
30,23,14,Improv_Melody,410,5,42,110,2589348400
30,23,14,Improv_Melody,411,1,38,66,2589809032
30,23,14,Improv_Melody,412,1,38,90,2589829656
30,23,14,Improv_Melody,413,1,48,21,2589838908
30,23,14,Improv_Melody,414,5,42,110,2589847848
30,23,14,Improv_Melody,415,1,38,44,2589886404
30,23,14,Improv_Melody,416,1,38,48,2590318216
30,23,14,Improv_Melody,417,5,42,110,2590347500
30,23,14,Improv_Melody,418,1,38,52,2590846964
30,23,14,Improv_Melody,419,5,42,127,2590849744
30,23,14,Improv_Melody,420,5,42,110,2591348104
30,23,14,Improv_Melody,421,1,38,52,2591350696
30,23,14,Improv_Melody,422,1,38,60,2591845116
30,23,14,Improv_Melody,423,5,42,110,2591847772
30,23,14,Improv_Melody,424,1,38,57,2592335092
30,23,14,Improv_Melody,425,5,42,110,2592347396
30,23,14,Improv_Melody,426,1,38,53,2592849312
30,23,14,Improv_Melody,427,2,48,80,2592853508
30,23,14,Improv_Melody,428,2,72,80,2592855284
30,23,14,Improv_Melody,429,5,42,127,2592858196
30,23,14,Improv_Melody,430,5,42,110,2593348024
30,23,14,Improv_Melody,431,1,38,52,2593636452
30,23,14,Improv_Melody,432,1,48,61,2593639724
30,23,14,Improv_Melody,0,9999,9999,9999,2512845880
30,23,14,Improv_Melody,1,9999,9999,9999,2513345584
30,23,14,Improv_Melody,2,9999,9999,9999,2513845308
30,23,14,Improv_Melody,3,9999,9999,9999,2514346080
30,23,14,Improv_Melody,4,9999,9999,9999,2514845800
30,23,14,Improv_Melody,5,9999,9999,9999,2515345524
30,23,14,Improv_Melody,6,9999,9999,9999,2515845172
30,23,14,Improv_Melody,7,9999,9999,9999,2516345936
30,23,14,Improv_Melody,8,9999,9999,9999,2516845636
30,23,14,Improv_Melody,9,9999,9999,9999,2517345376
30,23,14,Improv_Melody,10,9999,9999,9999,2517846072
30,23,14,Improv_Melody,11,9999,9999,9999,2518345792
30,23,14,Improv_Melody,12,9999,9999,9999,2518845512
30,23,14,Improv_Melody,13,9999,9999,9999,2519345236
30,23,14,Improv_Melody,14,9999,9999,9999,2519846004
30,23,14,Improv_Melody,15,9999,9999,9999,2520345652
30,23,14,Improv_Melody,16,9999,9999,9999,2520845376
30,23,14,Improv_Melody,17,9999,9999,9999,2521345108
30,23,14,Improv_Melody,18,9999,9999,9999,2521845876
30,23,14,Improv_Melody,19,9999,9999,9999,2522345524
30,23,14,Improv_Melody,20,9999,9999,9999,2522845244
30,23,14,Improv_Melody,21,9999,9999,9999,2523346016
30,23,14,Improv_Melody,22,9999,9999,9999,2523845736
30,23,14,Improv_Melody,23,9999,9999,9999,2524345460
30,23,14,Improv_Melody,24,9999,9999,9999,2524845108
30,23,14,Improv_Melody,25,9999,9999,9999,2525345888
30,23,14,Improv_Melody,26,9999,9999,9999,2525845608
30,23,14,Improv_Melody,27,9999,9999,9999,2526345332
30,23,14,Improv_Melody,28,9999,9999,9999,2526846024
30,23,14,Improv_Melody,29,9999,9999,9999,2527345748
30,23,14,Improv_Melody,30,9999,9999,9999,2527845496
30,23,14,Improv_Melody,31,9999,9999,9999,2528345196
30,23,14,Improv_Melody,32,9999,9999,9999,2528845936
30,23,14,Improv_Melody,33,9999,9999,9999,2529345620
30,23,14,Improv_Melody,34,9999,9999,9999,2529845344
30,23,14,Improv_Melody,35,9999,9999,9999,2530346076
30,23,14,Improv_Melody,36,9999,9999,9999,2530845776
30,23,14,Improv_Melody,37,9999,9999,9999,2531345476
30,23,14,Improv_Melody,38,9999,9999,9999,2531845180
30,23,14,Improv_Melody,39,9999,9999,9999,2532345924
30,23,14,Improv_Melody,40,9999,9999,9999,2532845624
30,23,14,Improv_Melody,41,9999,9999,9999,2533345384
30,23,14,Improv_Melody,42,9999,9999,9999,2533846084
30,23,14,Improv_Melody,43,9999,9999,9999,2534345776
30,23,14,Improv_Melody,44,9999,9999,9999,2534845536
30,23,14,Improv_Melody,45,9999,9999,9999,2535345232
30,23,14,Improv_Melody,46,9999,9999,9999,2535845956
30,23,14,Improv_Melody,47,9999,9999,9999,2536345660
30,23,14,Improv_Melody,48,9999,9999,9999,2536845360
30,23,14,Improv_Melody,49,9999,9999,9999,2537345072
30,23,14,Improv_Melody,50,9999,9999,9999,2537845820
30,23,14,Improv_Melody,51,9999,9999,9999,2538345572
30,23,14,Improv_Melody,52,9999,9999,9999,2538845264
30,23,14,Improv_Melody,53,9999,9999,9999,2539346016
30,23,14,Improv_Melody,54,9999,9999,9999,2539845696
30,23,14,Improv_Melody,55,9999,9999,9999,2540345460
30,23,14,Improv_Melody,56,9999,9999,9999,2540845116
30,23,14,Improv_Melody,57,9999,9999,9999,2541345880
30,23,14,Improv_Melody,58,9999,9999,9999,2541845580
30,23,14,Improv_Melody,59,9999,9999,9999,2542345324
30,23,14,Improv_Melody,60,9999,9999,9999,2542846044
30,23,14,Improv_Melody,61,9999,9999,9999,2543345716
30,23,14,Improv_Melody,62,9999,9999,9999,2543845432
30,23,14,Improv_Melody,63,9999,9999,9999,2544345156
30,23,14,Improv_Melody,64,9999,9999,9999,2544845876
30,23,14,Improv_Melody,65,9999,9999,9999,2545345648
30,23,14,Improv_Melody,66,9999,9999,9999,2545845328
30,23,14,Improv_Melody,67,9999,9999,9999,2546346052
30,23,14,Improv_Melody,68,9999,9999,9999,2546845804
30,23,14,Improv_Melody,69,9999,9999,9999,2547345504
30,23,14,Improv_Melody,70,9999,9999,9999,2547845200
30,23,14,Improv_Melody,71,9999,9999,9999,2548345908
30,23,14,Improv_Melody,72,9999,9999,9999,2548845632
30,23,14,Improv_Melody,73,9999,9999,9999,2549345356
30,23,14,Improv_Melody,74,9999,9999,9999,2549846104
30,23,14,Improv_Melody,75,9999,9999,9999,2550345832
30,23,14,Improv_Melody,76,9999,9999,9999,2550845508
30,23,14,Improv_Melody,77,9999,9999,9999,2551345260
30,23,14,Improv_Melody,78,9999,9999,9999,2551845980
30,23,14,Improv_Melody,79,9999,9999,9999,2552345684
30,23,14,Improv_Melody,80,9999,9999,9999,2552845412
30,23,14,Improv_Melody,81,9999,9999,9999,2553345076
30,23,14,Improv_Melody,82,9999,9999,9999,2553845820
30,23,14,Improv_Melody,83,9999,9999,9999,2554345576
30,23,14,Improv_Melody,84,9999,9999,9999,2554845252
30,23,14,Improv_Melody,85,9999,9999,9999,2555345976
30,23,14,Improv_Melody,86,9999,9999,9999,2555845732
30,23,14,Improv_Melody,87,9999,9999,9999,2556345428
30,23,14,Improv_Melody,88,9999,9999,9999,2556845172
30,23,14,Improv_Melody,89,9999,9999,9999,2557345884
30,23,14,Improv_Melody,90,9999,9999,9999,2557845564
30,23,14,Improv_Melody,91,9999,9999,9999,2558345264
30,23,14,Improv_Melody,92,9999,9999,9999,2558846064
30,23,14,Improv_Melody,93,9999,9999,9999,2559345768
30,23,14,Improv_Melody,94,9999,9999,9999,2559845476
30,23,14,Improv_Melody,95,9999,9999,9999,2560345180
30,23,14,Improv_Melody,96,9999,9999,9999,2560845916
30,23,14,Improv_Melody,97,9999,9999,9999,2561345636
30,23,14,Improv_Melody,98,9999,9999,9999,2561845360
30,23,14,Improv_Melody,99,9999,9999,9999,2562346040
30,23,14,Improv_Melody,100,9999,9999,9999,2562845764
30,23,14,Improv_Melody,101,9999,9999,9999,2563345464
30,23,14,Improv_Melody,102,9999,9999,9999,2563845192
30,23,14,Improv_Melody,103,9999,9999,9999,2564345940
30,23,14,Improv_Melody,104,9999,9999,9999,2564845680
30,23,14,Improv_Melody,105,9999,9999,9999,2565345392
30,23,14,Improv_Melody,106,9999,9999,9999,2565846096
30,23,14,Improv_Melody,107,9999,9999,9999,2566345844
30,23,14,Improv_Melody,108,9999,9999,9999,2566845496
30,23,14,Improv_Melody,109,9999,9999,9999,2567345220
30,23,14,Improv_Melody,110,9999,9999,9999,2567845980
30,23,14,Improv_Melody,111,9999,9999,9999,2568345668
30,23,14,Improv_Melody,112,9999,9999,9999,2568845384
30,23,14,Improv_Melody,113,9999,9999,9999,2569345076
30,23,14,Improv_Melody,114,9999,9999,9999,2569845824
30,23,14,Improv_Melody,115,9999,9999,9999,2570345572
30,23,14,Improv_Melody,116,9999,9999,9999,2570845300
30,23,14,Improv_Melody,117,9999,9999,9999,2571345972
30,23,14,Improv_Melody,118,9999,9999,9999,2571845748
30,23,14,Improv_Melody,119,9999,9999,9999,2572345444
30,23,14,Improv_Melody,120,9999,9999,9999,2572845128
30,23,14,Improv_Melody,121,9999,9999,9999,2573345888
30,23,14,Improv_Melody,122,9999,9999,9999,2573845564
30,23,14,Improv_Melody,123,9999,9999,9999,2574345264
30,23,14,Improv_Melody,124,9999,9999,9999,2574846064
30,23,14,Improv_Melody,125,9999,9999,9999,2575345764
30,23,14,Improv_Melody,126,9999,9999,9999,2575845464
30,23,14,Improv_Melody,127,9999,9999,9999,2576345184
30,23,14,Improv_Melody,128,9999,9999,9999,2576845940
30,23,14,Improv_Melody,129,9999,9999,9999,2577345604
30,23,14,Improv_Melody,130,9999,9999,9999,2577845352
30,23,14,Improv_Melody,131,9999,9999,9999,2578346064
30,23,14,Improv_Melody,132,9999,9999,9999,2578845748
30,23,14,Improv_Melody,133,9999,9999,9999,2579345496
30,23,14,Improv_Melody,134,9999,9999,9999,2579845196
30,23,14,Improv_Melody,135,9999,9999,9999,2580345940
30,23,14,Improv_Melody,136,9999,9999,9999,2580845620
30,23,14,Improv_Melody,137,9999,9999,9999,2581345340
30,23,14,Improv_Melody,138,9999,9999,9999,2581846080
30,23,14,Improv_Melody,139,9999,9999,9999,2582345780
30,23,14,Improv_Melody,140,9999,9999,9999,2582845556
30,23,14,Improv_Melody,141,9999,9999,9999,2583345232
30,23,14,Improv_Melody,142,9999,9999,9999,2583845960
30,23,14,Improv_Melody,143,9999,9999,9999,2584345692
30,23,14,Improv_Melody,144,9999,9999,9999,2584845420
30,23,14,Improv_Melody,145,9999,9999,9999,2585345140
30,23,14,Improv_Melody,146,9999,9999,9999,2585845840
30,23,14,Improv_Melody,147,9999,9999,9999,2586345540
30,23,14,Improv_Melody,148,9999,9999,9999,2586845284
30,23,14,Improv_Melody,149,9999,9999,9999,2587345984
30,23,14,Improv_Melody,150,9999,9999,9999,2587845712
30,23,14,Improv_Melody,151,9999,9999,9999,2588345488
30,23,14,Improv_Melody,152,9999,9999,9999,2588845164
30,23,14,Improv_Melody,153,9999,9999,9999,2589345884
30,23,14,Improv_Melody,154,9999,9999,9999,2589845556
30,23,14,Improv_Melody,155,9999,9999,9999,2590345284
30,23,14,Improv_Melody,156,9999,9999,9999,2590846036
30,23,14,Improv_Melody,157,9999,9999,9999,2591345736
30,23,14,Improv_Melody,158,9999,9999,9999,2591845480
30,23,14,Improv_Melody,159,9999,9999,9999,2592345180
30,23,14,Improv_Melody,160,9999,9999,9999,2592845932
30,23,14,Improv_Melody,161,9999,9999,9999,2593345584
