pid,taskRunCount,taskID,taskName,i,channel,pitch,velocity,microseconds
34,1,0,Ticks_Pract_8,0,1,48,48,176633284
34,1,0,Ticks_Pract_8,1,5,42,127,176804236
34,1,0,Ticks_Pract_8,2,1,48,54,176867572
34,1,0,Ticks_Pract_8,3,1,48,46,177099592
34,1,0,Ticks_Pract_8,4,5,42,127,177603800
34,1,0,Ticks_Pract_8,5,5,42,127,178403704
34,1,0,Ticks_Pract_8,6,1,48,90,178526144
34,1,0,Ticks_Pract_8,7,5,42,127,179203584
34,1,0,Ticks_Pract_8,8,1,48,97,179215632
34,1,0,Ticks_Pract_8,9,1,48,98,179954812
34,1,0,Ticks_Pract_8,10,5,42,127,180004236
34,1,0,Ticks_Pract_8,11,1,48,83,180753596
34,1,0,Ticks_Pract_8,12,5,42,127,180803820
34,1,0,Ticks_Pract_8,13,1,48,73,181583396
34,1,0,Ticks_Pract_8,14,5,42,127,181603552
34,1,0,Ticks_Pract_8,15,1,48,97,182397420
34,1,0,Ticks_Pract_8,16,5,42,127,182403580
34,1,0,Ticks_Pract_8,17,5,42,127,183204220
34,1,0,Ticks_Pract_8,18,1,48,87,183206084
34,1,0,Ticks_Pract_8,19,5,42,127,184003952
34,1,0,Ticks_Pract_8,20,1,48,88,184017696
34,1,0,Ticks_Pract_8,21,1,48,93,184775900
34,1,0,Ticks_Pract_8,22,5,42,127,184803608
34,1,0,Ticks_Pract_8,23,5,42,127,185603420
34,1,0,Ticks_Pract_8,24,1,48,103,185607588
34,1,0,Ticks_Pract_8,25,5,42,127,186404276
34,1,0,Ticks_Pract_8,26,1,48,88,186411064
34,1,0,Ticks_Pract_8,27,1,48,84,187189312
34,1,0,Ticks_Pract_8,28,5,42,127,187204224
34,1,0,Ticks_Pract_8,29,1,48,88,187978800
34,1,0,Ticks_Pract_8,30,5,42,127,188003660
34,1,0,Ticks_Pract_8,31,1,48,86,188766784
34,1,0,Ticks_Pract_8,32,5,42,127,188803392
34,1,0,Ticks_Pract_8,33,1,48,99,189570560
34,1,0,Ticks_Pract_8,34,5,42,127,189604176
34,1,0,Ticks_Pract_8,35,1,48,95,190383232
34,1,0,Ticks_Pract_8,36,5,42,127,190404204
34,1,0,Ticks_Pract_8,37,1,48,99,191198376
34,1,0,Ticks_Pract_8,38,5,42,127,191203792
34,1,0,Ticks_Pract_8,39,1,48,90,191971180
34,1,0,Ticks_Pract_8,40,5,42,127,192003452
34,1,0,Ticks_Pract_8,41,1,48,84,192779540
34,1,0,Ticks_Pract_8,42,5,42,127,192804104
34,1,0,Ticks_Pract_8,43,1,48,92,193597452
34,1,0,Ticks_Pract_8,44,5,42,127,193603916
34,1,0,Ticks_Pract_8,45,1,48,106,194397928
34,1,0,Ticks_Pract_8,46,5,42,127,194403796
34,1,0,Ticks_Pract_8,47,1,48,118,195200728
34,1,0,Ticks_Pract_8,48,5,42,127,195203456
34,1,0,Ticks_Pract_8,49,1,48,99,195996952
34,1,0,Ticks_Pract_8,50,5,42,127,196004088
34,1,0,Ticks_Pract_8,51,1,48,100,196783592
34,1,0,Ticks_Pract_8,52,5,42,127,196803896
34,1,0,Ticks_Pract_8,53,1,48,91,197576744
34,1,0,Ticks_Pract_8,54,5,42,127,197603852
34,1,0,Ticks_Pract_8,55,5,42,127,198403368
34,1,0,Ticks_Pract_8,56,1,48,98,198423116
34,1,0,Ticks_Pract_8,57,1,38,21,198432972
34,1,0,Ticks_Pract_8,58,5,42,127,199204128
34,1,0,Ticks_Pract_8,59,1,48,102,199222804
34,1,0,Ticks_Pract_8,60,1,38,21,199232956
34,1,0,Ticks_Pract_8,61,1,48,103,200001916
34,1,0,Ticks_Pract_8,62,5,42,127,200003880
34,1,0,Ticks_Pract_8,63,1,48,111,200774556
34,1,0,Ticks_Pract_8,0,9999,9999,9999,176801872
34,1,0,Ticks_Pract_8,1,9999,9999,9999,177601584
34,1,0,Ticks_Pract_8,2,9999,9999,9999,178401340
34,1,0,Ticks_Pract_8,3,9999,9999,9999,179201076
34,1,0,Ticks_Pract_8,4,9999,9999,9999,180001872
34,1,0,Ticks_Pract_8,5,9999,9999,9999,180801604
34,1,0,Ticks_Pract_8,6,9999,9999,9999,181601340
34,1,0,Ticks_Pract_8,7,9999,9999,9999,182401072
34,1,0,Ticks_Pract_8,8,9999,9999,9999,183201856
34,1,0,Ticks_Pract_8,9,9999,9999,9999,184001592
34,1,0,Ticks_Pract_8,10,9999,9999,9999,184801392
34,1,0,Ticks_Pract_8,11,9999,9999,9999,185601132
34,1,0,Ticks_Pract_8,12,9999,9999,9999,186401836
34,1,0,Ticks_Pract_8,13,9999,9999,9999,187201640
34,1,0,Ticks_Pract_8,14,9999,9999,9999,188001372
34,1,0,Ticks_Pract_8,15,9999,9999,9999,188801104
34,1,0,Ticks_Pract_8,16,9999,9999,9999,189601888
34,1,0,Ticks_Pract_8,17,9999,9999,9999,190401620
34,1,0,Ticks_Pract_8,18,9999,9999,9999,191201356
34,1,0,Ticks_Pract_8,19,9999,9999,9999,192001088
34,1,0,Ticks_Pract_8,20,9999,9999,9999,192801892
34,1,0,Ticks_Pract_8,21,9999,9999,9999,193601628
34,1,0,Ticks_Pract_8,22,9999,9999,9999,194401360
34,1,0,Ticks_Pract_8,23,9999,9999,9999,195201092
34,1,0,Ticks_Pract_8,24,9999,9999,9999,196001872
34,1,0,Ticks_Pract_8,25,9999,9999,9999,196801608
34,1,0,Ticks_Pract_8,26,9999,9999,9999,197601340
34,1,0,Ticks_Pract_8,27,9999,9999,9999,198401080
34,1,0,Ticks_Pract_8,28,9999,9999,9999,199201836
34,1,0,Ticks_Pract_8,29,9999,9999,9999,200001632
34,2,1,Ticks_Pract_5,0,5,42,127,208049416
34,2,1,Ticks_Pract_5,1,5,42,127,208550404
34,2,1,Ticks_Pract_5,2,5,42,127,209050120
34,2,1,Ticks_Pract_5,3,5,42,127,209549612
34,2,1,Ticks_Pract_5,4,1,48,82,210049776
34,2,1,Ticks_Pract_5,5,5,42,127,210051416
34,2,1,Ticks_Pract_5,6,1,48,75,210531852
34,2,1,Ticks_Pract_5,7,5,42,127,210550288
34,2,1,Ticks_Pract_5,8,1,48,81,211020180
34,2,1,Ticks_Pract_5,9,5,42,127,211049756
34,2,1,Ticks_Pract_5,10,5,42,127,211549532
34,2,1,Ticks_Pract_5,11,1,48,83,211551544
34,2,1,Ticks_Pract_5,12,5,42,127,212050276
34,2,1,Ticks_Pract_5,13,1,48,82,212063716
34,2,1,Ticks_Pract_5,14,5,42,127,212550044
34,2,1,Ticks_Pract_5,15,1,48,77,212563632
34,2,1,Ticks_Pract_5,16,5,42,127,213049816
34,2,1,Ticks_Pract_5,17,1,48,88,213064524
34,2,1,Ticks_Pract_5,18,1,48,89,213545128
34,2,1,Ticks_Pract_5,19,5,42,127,213549352
34,2,1,Ticks_Pract_5,20,1,48,86,214044300
34,2,1,Ticks_Pract_5,21,5,42,127,214050244
34,2,1,Ticks_Pract_5,22,1,48,92,214538836
34,2,1,Ticks_Pract_5,23,5,42,127,214550088
34,2,1,Ticks_Pract_5,24,5,42,127,215049788
34,2,1,Ticks_Pract_5,25,1,48,88,215056504
34,2,1,Ticks_Pract_5,26,1,48,89,215543728
34,2,1,Ticks_Pract_5,27,5,42,127,215550424
34,2,1,Ticks_Pract_5,28,1,48,86,216048772
34,2,1,Ticks_Pract_5,29,5,42,127,216050492
34,2,1,Ticks_Pract_5,30,5,42,127,216549820
34,2,1,Ticks_Pract_5,31,1,48,90,216554280
34,2,1,Ticks_Pract_5,32,1,48,88,217048840
34,2,1,Ticks_Pract_5,33,5,42,127,217050628
34,2,1,Ticks_Pract_5,34,5,42,127,217550180
34,2,1,Ticks_Pract_5,35,1,48,101,217551072
34,2,1,Ticks_Pract_5,36,1,48,97,218042580
34,2,1,Ticks_Pract_5,37,5,42,127,218050092
34,2,1,Ticks_Pract_5,38,1,38,20,218053360
34,2,1,Ticks_Pract_5,39,1,48,101,218545380
34,2,1,Ticks_Pract_5,40,5,42,127,218549752
34,2,1,Ticks_Pract_5,41,5,42,127,219050276
34,2,1,Ticks_Pract_5,42,1,48,95,219051764
34,2,1,Ticks_Pract_5,43,1,38,20,219062212
34,2,1,Ticks_Pract_5,44,1,48,92,219543460
34,2,1,Ticks_Pract_5,45,5,42,127,219550080
34,2,1,Ticks_Pract_5,46,5,42,127,220049856
34,2,1,Ticks_Pract_5,47,1,48,95,220054692
34,2,1,Ticks_Pract_5,48,1,48,91,220544716
34,2,1,Ticks_Pract_5,49,5,42,127,220549764
34,2,1,Ticks_Pract_5,50,5,42,127,221050216
34,2,1,Ticks_Pract_5,51,1,48,92,221053480
34,2,1,Ticks_Pract_5,52,5,42,127,221549836
34,2,1,Ticks_Pract_5,53,1,48,76,221550876
34,2,1,Ticks_Pract_5,54,5,42,127,222049752
34,2,1,Ticks_Pract_5,55,1,48,84,222056464
34,2,1,Ticks_Pract_5,56,1,38,19,222066312
34,2,1,Ticks_Pract_5,57,5,42,127,222550372
34,2,1,Ticks_Pract_5,58,1,48,95,222551340
34,2,1,Ticks_Pract_5,59,1,48,96,223049312
34,2,1,Ticks_Pract_5,60,5,42,127,223051108
34,2,1,Ticks_Pract_5,61,1,48,93,223536556
34,2,1,Ticks_Pract_5,62,5,42,127,223549680
34,2,1,Ticks_Pract_5,63,1,48,97,224036176
34,2,1,Ticks_Pract_5,64,5,42,127,224049672
34,2,1,Ticks_Pract_5,65,5,42,127,224550120
34,2,1,Ticks_Pract_5,66,1,48,104,224551088
34,2,1,Ticks_Pract_5,67,5,42,127,225049816
34,2,1,Ticks_Pract_5,68,1,48,92,225058768
34,2,1,Ticks_Pract_5,69,1,48,98,225531196
34,2,1,Ticks_Pract_5,70,1,38,21,225541460
34,2,1,Ticks_Pract_5,71,5,42,127,225549644
34,2,1,Ticks_Pract_5,72,1,48,91,226031300
34,2,1,Ticks_Pract_5,73,5,42,127,226050732
34,2,1,Ticks_Pract_5,74,1,48,76,226532864
34,2,1,Ticks_Pract_5,75,5,42,127,226550104
34,2,1,Ticks_Pract_5,76,1,48,89,227030764
34,2,1,Ticks_Pract_5,77,1,38,20,227040620
34,2,1,Ticks_Pract_5,78,5,42,127,227049852
34,2,1,Ticks_Pract_5,79,5,42,127,227549452
34,2,1,Ticks_Pract_5,80,1,48,82,227554136
34,2,1,Ticks_Pract_5,81,1,38,20,227563464
34,2,1,Ticks_Pract_5,0,9999,9999,9999,208047204
34,2,1,Ticks_Pract_5,1,9999,9999,9999,208547892
34,2,1,Ticks_Pract_5,2,9999,9999,9999,209047608
34,2,1,Ticks_Pract_5,3,9999,9999,9999,209547324
34,2,1,Ticks_Pract_5,4,9999,9999,9999,210048088
34,2,1,Ticks_Pract_5,5,9999,9999,9999,210547780
34,2,1,Ticks_Pract_5,6,9999,9999,9999,211047472
34,2,1,Ticks_Pract_5,7,9999,9999,9999,211547248
34,2,1,Ticks_Pract_5,8,9999,9999,9999,212047988
34,2,1,Ticks_Pract_5,9,9999,9999,9999,212547684
34,2,1,Ticks_Pract_5,10,9999,9999,9999,213047380
34,2,1,Ticks_Pract_5,11,9999,9999,9999,213547068
34,2,1,Ticks_Pract_5,12,9999,9999,9999,214047808
34,2,1,Ticks_Pract_5,13,9999,9999,9999,214547504
34,2,1,Ticks_Pract_5,14,9999,9999,9999,215047280
34,2,1,Ticks_Pract_5,15,9999,9999,9999,215547988
34,2,1,Ticks_Pract_5,16,9999,9999,9999,216047692
34,2,1,Ticks_Pract_5,17,9999,9999,9999,216547384
34,2,1,Ticks_Pract_5,18,9999,9999,9999,217047152
34,2,1,Ticks_Pract_5,19,9999,9999,9999,217547892
34,2,1,Ticks_Pract_5,20,9999,9999,9999,218047584
34,2,1,Ticks_Pract_5,21,9999,9999,9999,218547316
34,2,1,Ticks_Pract_5,22,9999,9999,9999,219047992
34,2,1,Ticks_Pract_5,23,9999,9999,9999,219547720
34,2,1,Ticks_Pract_5,24,9999,9999,9999,220047420
34,2,1,Ticks_Pract_5,25,9999,9999,9999,220547180
34,2,1,Ticks_Pract_5,26,9999,9999,9999,221047928
34,2,1,Ticks_Pract_5,27,9999,9999,9999,221547624
34,2,1,Ticks_Pract_5,28,9999,9999,9999,222047320
34,2,1,Ticks_Pract_5,29,9999,9999,9999,222548088
34,2,1,Ticks_Pract_5,30,9999,9999,9999,223047780
34,2,1,Ticks_Pract_5,31,9999,9999,9999,223547468
34,2,1,Ticks_Pract_5,32,9999,9999,9999,224047164
34,2,1,Ticks_Pract_5,33,9999,9999,9999,224547908
34,2,1,Ticks_Pract_5,34,9999,9999,9999,225047604
34,2,1,Ticks_Pract_5,35,9999,9999,9999,225547360
34,2,1,Ticks_Pract_5,36,9999,9999,9999,226048048
34,2,1,Ticks_Pract_5,37,9999,9999,9999,226547816
34,2,1,Ticks_Pract_5,38,9999,9999,9999,227047492
34,2,1,Ticks_Pract_5,39,9999,9999,9999,227547240
34,3,2,T1_SMS_8,0,5,42,127,294181420
34,3,2,T1_SMS_8,1,5,42,127,294980948
34,3,2,T1_SMS_8,2,1,48,87,295765776
34,3,2,T1_SMS_8,3,5,42,127,295780624
34,3,2,T1_SMS_8,4,1,48,82,296570672
34,3,2,T1_SMS_8,5,5,42,127,296580432
34,3,2,T1_SMS_8,6,5,42,127,297381364
34,3,2,T1_SMS_8,7,1,48,96,297395104
34,3,2,T1_SMS_8,8,1,48,80,298156380
34,3,2,T1_SMS_8,9,5,42,127,298181092
34,3,2,T1_SMS_8,10,1,48,76,298965232
34,3,2,T1_SMS_8,11,5,42,127,298980676
34,3,2,T1_SMS_8,12,1,48,78,299762724
34,3,2,T1_SMS_8,13,5,42,127,299780432
34,3,2,T1_SMS_8,14,1,48,71,300538972
34,3,2,T1_SMS_8,15,5,42,127,300581288
34,3,2,T1_SMS_8,16,5,42,127,301380952
34,3,2,T1_SMS_8,17,1,48,72,301382140
34,3,2,T1_SMS_8,18,5,42,127,302180760
34,3,2,T1_SMS_8,19,1,48,80,302184848
34,3,2,T1_SMS_8,20,1,48,70,302954196
34,3,2,T1_SMS_8,21,5,42,127,302980412
34,3,2,T1_SMS_8,22,1,48,103,303749444
34,3,2,T1_SMS_8,23,5,42,127,303781192
34,3,2,T1_SMS_8,24,1,48,99,304544016
34,3,2,T1_SMS_8,25,5,42,127,304580924
34,3,2,T1_SMS_8,26,5,42,127,305380888
34,3,2,T1_SMS_8,27,1,48,94,305409012
34,3,2,T1_SMS_8,28,5,42,127,306180500
34,3,2,T1_SMS_8,29,1,48,77,306208828
34,3,2,T1_SMS_8,30,1,48,88,306935804
34,3,2,T1_SMS_8,31,5,42,127,306981120
34,3,2,T1_SMS_8,32,1,48,97,307739084
34,3,2,T1_SMS_8,33,5,42,127,307781004
34,3,2,T1_SMS_8,34,1,48,77,308573968
34,3,2,T1_SMS_8,35,5,42,127,308580588
34,3,2,T1_SMS_8,36,5,42,127,309380628
34,3,2,T1_SMS_8,37,1,48,79,309392720
34,3,2,T1_SMS_8,38,5,42,127,310181184
34,3,2,T1_SMS_8,39,1,48,82,310202028
34,3,2,T1_SMS_8,40,1,48,95,310957612
34,3,2,T1_SMS_8,41,5,42,127,310980908
34,3,2,T1_SMS_8,42,1,48,96,311756224
34,3,2,T1_SMS_8,43,1,38,20,311766156
34,3,2,T1_SMS_8,44,5,42,127,311780696
34,3,2,T1_SMS_8,45,1,48,99,312549704
34,3,2,T1_SMS_8,46,5,42,127,312580428
34,3,2,T1_SMS_8,47,1,48,79,313350436
34,3,2,T1_SMS_8,48,5,42,127,313381208
34,3,2,T1_SMS_8,49,1,48,89,314159444
34,3,2,T1_SMS_8,50,5,42,127,314180868
34,3,2,T1_SMS_8,51,1,48,96,314971592
34,3,2,T1_SMS_8,52,5,42,127,314980824
34,3,2,T1_SMS_8,53,1,48,89,315753444
34,3,2,T1_SMS_8,54,5,42,127,315780484
34,3,2,T1_SMS_8,55,5,42,127,316581344
34,3,2,T1_SMS_8,56,1,48,84,316590820
34,3,2,T1_SMS_8,57,1,48,79,317367576
34,3,2,T1_SMS_8,58,5,42,127,317381220
34,3,2,T1_SMS_8,59,1,48,92,318151976
34,3,2,T1_SMS_8,60,5,42,127,318180656
34,3,2,T1_SMS_8,61,1,48,86,318950808
34,3,2,T1_SMS_8,62,5,42,127,318980412
34,3,2,T1_SMS_8,63,1,48,86,319780600
34,3,2,T1_SMS_8,64,5,42,127,319782240
34,3,2,T1_SMS_8,65,1,48,85,320580636
34,3,2,T1_SMS_8,66,5,42,127,320582272
34,3,2,T1_SMS_8,67,1,48,73,321352804
34,3,2,T1_SMS_8,68,5,42,127,321380660
34,3,2,T1_SMS_8,69,1,48,96,322178508
34,3,2,T1_SMS_8,70,5,42,127,322180396
34,3,2,T1_SMS_8,71,5,42,127,322981180
34,3,2,T1_SMS_8,72,1,48,89,322994916
34,3,2,T1_SMS_8,73,1,48,99,323761872
34,3,2,T1_SMS_8,74,5,42,127,323780980
34,3,2,T1_SMS_8,75,1,48,89,324571780
34,3,2,T1_SMS_8,76,5,42,127,324580864
34,3,2,T1_SMS_8,77,5,42,127,325380404
34,3,2,T1_SMS_8,78,1,48,79,325381444
34,3,2,T1_SMS_8,79,1,48,86,326179744
34,3,2,T1_SMS_8,80,5,42,127,326181400
34,3,2,T1_SMS_8,81,5,42,127,326981068
34,3,2,T1_SMS_8,82,1,48,80,327001612
34,3,2,T1_SMS_8,83,1,48,89,327750020
34,3,2,T1_SMS_8,84,5,42,127,327780944
34,3,2,T1_SMS_8,85,1,48,83,328580536
34,3,2,T1_SMS_8,86,5,42,127,328582020
34,3,2,T1_SMS_8,87,1,48,86,329355988
34,3,2,T1_SMS_8,88,5,42,127,329381160
34,3,2,T1_SMS_8,89,1,48,84,330172780
34,3,2,T1_SMS_8,90,5,42,127,330180968
34,3,2,T1_SMS_8,91,1,48,79,330962712
34,3,2,T1_SMS_8,92,5,42,127,330980700
34,3,2,T1_SMS_8,93,5,42,127,331780468
34,3,2,T1_SMS_8,94,1,48,79,331804680
34,3,2,T1_SMS_8,95,5,42,127,332581620
34,3,2,T1_SMS_8,96,1,48,88,332598728
34,3,2,T1_SMS_8,97,1,48,75,333337556
34,3,2,T1_SMS_8,98,5,42,127,333380976
34,3,2,T1_SMS_8,99,1,48,87,334129664
34,3,2,T1_SMS_8,100,5,42,127,334180708
34,3,2,T1_SMS_8,101,1,48,86,334962380
34,3,2,T1_SMS_8,102,5,42,127,334980664
34,3,2,T1_SMS_8,103,1,48,78,335756732
34,3,2,T1_SMS_8,104,5,42,127,335781444
34,3,2,T1_SMS_8,105,1,48,82,336558632
34,3,2,T1_SMS_8,106,5,42,127,336581104
34,3,2,T1_SMS_8,107,1,48,83,337331736
34,3,2,T1_SMS_8,108,5,42,127,337380612
34,3,2,T1_SMS_8,109,1,48,80,338167300
34,3,2,T1_SMS_8,110,5,42,127,338180444
34,3,2,T1_SMS_8,111,1,48,84,338952468
34,3,2,T1_SMS_8,112,5,42,127,338981148
34,3,2,T1_SMS_8,113,1,48,81,339771348
34,3,2,T1_SMS_8,114,5,42,127,339780956
34,3,2,T1_SMS_8,115,1,48,76,340558444
34,3,2,T1_SMS_8,116,5,42,127,340580692
34,3,2,T1_SMS_8,117,1,48,86,341362740
34,3,2,T1_SMS_8,118,5,42,127,341380424
34,3,2,T1_SMS_8,119,1,48,89,342176008
34,3,2,T1_SMS_8,120,5,42,127,342181128
34,3,2,T1_SMS_8,121,1,48,92,342959732
34,3,2,T1_SMS_8,122,5,42,127,342981160
34,3,2,T1_SMS_8,123,5,42,127,343780604
34,3,2,T1_SMS_8,124,1,48,77,343781568
34,3,2,T1_SMS_8,125,1,48,91,344562416
34,3,2,T1_SMS_8,126,5,42,127,344580428
34,3,2,T1_SMS_8,127,1,48,93,345341532
34,3,2,T1_SMS_8,128,5,42,127,345381284
34,3,2,T1_SMS_8,129,1,48,90,346176948
34,3,2,T1_SMS_8,130,5,42,127,346181168
34,3,2,T1_SMS_8,131,5,42,127,346980684
34,3,2,T1_SMS_8,132,1,48,83,346988364
34,3,2,T1_SMS_8,133,1,48,86,347761828
34,3,2,T1_SMS_8,134,5,42,127,347780336
34,3,2,T1_SMS_8,135,1,48,94,348540764
34,3,2,T1_SMS_8,136,5,42,127,348581116
34,3,2,T1_SMS_8,137,5,42,127,349380932
34,3,2,T1_SMS_8,138,1,48,69,349381896
34,3,2,T1_SMS_8,139,5,42,127,350180816
34,3,2,T1_SMS_8,140,1,48,85,350199416
34,3,2,T1_SMS_8,141,5,42,127,350980648
34,3,2,T1_SMS_8,142,1,48,95,350987436
34,3,2,T1_SMS_8,143,1,48,79,351773908
34,3,2,T1_SMS_8,144,5,42,127,351781124
34,3,2,T1_SMS_8,145,1,48,101,352568708
34,3,2,T1_SMS_8,146,5,42,127,352580860
34,3,2,T1_SMS_8,147,1,48,92,353376968
34,3,2,T1_SMS_8,148,5,42,127,353380888
34,3,2,T1_SMS_8,149,1,48,91,354175724
34,3,2,T1_SMS_8,150,5,42,127,354180548
34,3,2,T1_SMS_8,151,1,48,84,354919440
34,3,2,T1_SMS_8,152,1,38,19,354929816
34,3,2,T1_SMS_8,153,5,42,127,354981160
34,3,2,T1_SMS_8,154,5,42,127,355780948
34,3,2,T1_SMS_8,155,1,48,85,355782664
34,3,2,T1_SMS_8,156,1,48,88,356570916
34,3,2,T1_SMS_8,157,5,42,127,356580676
34,3,2,T1_SMS_8,158,1,48,81,357373888
34,3,2,T1_SMS_8,159,5,42,127,357380508
34,3,2,T1_SMS_8,160,5,42,127,358181448
34,3,2,T1_SMS_8,161,1,48,84,358185164
34,3,2,T1_SMS_8,162,1,48,89,358975904
34,3,2,T1_SMS_8,163,5,42,127,358980876
34,3,2,T1_SMS_8,164,1,48,78,359774064
34,3,2,T1_SMS_8,165,5,42,127,359780684
34,3,2,T1_SMS_8,166,1,48,89,360557872
34,3,2,T1_SMS_8,167,5,42,127,360580568
34,3,2,T1_SMS_8,168,1,48,95,361357604
34,3,2,T1_SMS_8,169,5,42,127,361381420
34,3,2,T1_SMS_8,170,1,48,98,362171400
34,3,2,T1_SMS_8,171,5,42,127,362180856
34,3,2,T1_SMS_8,172,5,42,127,362980596
34,3,2,T1_SMS_8,173,1,48,89,362983336
34,3,2,T1_SMS_8,174,5,42,127,363780428
34,3,2,T1_SMS_8,175,1,48,81,363791924
34,3,2,T1_SMS_8,176,5,42,127,364581284
34,3,2,T1_SMS_8,177,1,48,95,364582248
34,3,2,T1_SMS_8,178,5,42,127,365380940
34,3,2,T1_SMS_8,179,1,48,83,365387128
34,3,2,T1_SMS_8,180,1,38,19,365396528
34,3,2,T1_SMS_8,181,1,48,88,366180252
34,3,2,T1_SMS_8,182,5,42,127,366182040
34,3,2,T1_SMS_8,183,5,42,127,366980508
34,3,2,T1_SMS_8,184,1,48,75,366993052
34,3,2,T1_SMS_8,185,1,48,85,367765916
34,3,2,T1_SMS_8,186,5,42,127,367781280
34,3,2,T1_SMS_8,187,1,48,103,368542384
34,3,2,T1_SMS_8,188,5,42,127,368581164
34,3,2,T1_SMS_8,189,1,48,104,369348256
34,3,2,T1_SMS_8,190,5,42,127,369380900
34,3,2,T1_SMS_8,191,1,48,94,370139240
34,3,2,T1_SMS_8,192,5,42,127,370180432
34,3,2,T1_SMS_8,193,5,42,127,370981144
34,3,2,T1_SMS_8,194,1,48,84,370987408
34,3,2,T1_SMS_8,195,5,42,127,371780952
34,3,2,T1_SMS_8,196,1,48,89,371795216
34,3,2,T1_SMS_8,197,1,48,91,372574588
34,3,2,T1_SMS_8,198,5,42,127,372580828
34,3,2,T1_SMS_8,199,1,48,92,373366168
34,3,2,T1_SMS_8,200,5,42,127,373380340
34,3,2,T1_SMS_8,201,1,48,84,374159168
34,3,2,T1_SMS_8,202,5,42,127,374181344
34,3,2,T1_SMS_8,203,5,42,127,374980860
34,3,2,T1_SMS_8,204,1,48,83,374993400
34,3,2,T1_SMS_8,205,5,42,127,375780816
34,3,2,T1_SMS_8,206,1,48,81,375790744
34,3,2,T1_SMS_8,207,5,42,127,376580576
34,3,2,T1_SMS_8,208,1,48,93,376583768
34,3,2,T1_SMS_8,209,5,42,127,377381204
34,3,2,T1_SMS_8,210,1,48,99,377400408
34,3,2,T1_SMS_8,211,1,48,93,378176184
34,3,2,T1_SMS_8,212,5,42,127,378180932
34,3,2,T1_SMS_8,213,5,42,127,378980748
34,3,2,T1_SMS_8,214,1,48,100,378987908
34,3,2,T1_SMS_8,215,1,48,94,379750748
34,3,2,T1_SMS_8,216,5,42,127,379780476
34,3,2,T1_SMS_8,217,5,42,127,380581412
34,3,2,T1_SMS_8,218,1,48,78,380592388
34,3,2,T1_SMS_8,219,5,42,127,381380920
34,3,2,T1_SMS_8,220,1,48,93,381391668
34,3,2,T1_SMS_8,221,5,42,127,382180728
34,3,2,T1_SMS_8,222,1,48,78,382181768
34,3,2,T1_SMS_8,223,1,48,85,382946084
34,3,2,T1_SMS_8,224,5,42,127,382980480
34,3,2,T1_SMS_8,225,1,48,87,383759464
34,3,2,T1_SMS_8,226,5,42,127,383781184
34,3,2,T1_SMS_8,227,1,48,86,384576848
34,3,2,T1_SMS_8,228,5,42,127,384581068
34,3,2,T1_SMS_8,229,1,48,81,385370596
34,3,2,T1_SMS_8,230,5,42,127,385380580
34,3,2,T1_SMS_8,231,1,48,77,386175120
34,3,2,T1_SMS_8,232,5,42,127,386180536
34,3,2,T1_SMS_8,233,1,48,85,386973952
34,3,2,T1_SMS_8,234,5,42,127,386981316
34,3,2,T1_SMS_8,235,5,42,127,387780908
34,3,2,T1_SMS_8,236,1,48,98,387787096
34,3,2,T1_SMS_8,237,5,42,127,388580568
34,3,2,T1_SMS_8,238,1,48,86,388615868
34,3,2,T1_SMS_8,239,5,42,127,389380396
34,3,2,T1_SMS_8,240,1,48,99,389391520
34,3,2,T1_SMS_8,241,1,48,90,390169020
34,3,2,T1_SMS_8,0,9999,9999,9999,294178908
34,3,2,T1_SMS_8,1,9999,9999,9999,294978660
34,3,2,T1_SMS_8,2,9999,9999,9999,295778412
34,3,2,T1_SMS_8,3,9999,9999,9999,296578144
34,3,2,T1_SMS_8,4,9999,9999,9999,297378928
34,3,2,T1_SMS_8,5,9999,9999,9999,298178656
34,3,2,T1_SMS_8,6,9999,9999,9999,298978388
34,3,2,T1_SMS_8,7,9999,9999,9999,299778144
34,3,2,T1_SMS_8,8,9999,9999,9999,300578924
34,3,2,T1_SMS_8,9,9999,9999,9999,301378664
34,3,2,T1_SMS_8,10,9999,9999,9999,302178396
34,3,2,T1_SMS_8,11,9999,9999,9999,302978124
34,3,2,T1_SMS_8,12,9999,9999,9999,303778904
34,3,2,T1_SMS_8,13,9999,9999,9999,304578636
34,3,2,T1_SMS_8,14,9999,9999,9999,305378376
34,3,2,T1_SMS_8,15,9999,9999,9999,306178136
34,3,2,T1_SMS_8,16,9999,9999,9999,306978908
34,3,2,T1_SMS_8,17,9999,9999,9999,307778640
34,3,2,T1_SMS_8,18,9999,9999,9999,308578376
34,3,2,T1_SMS_8,19,9999,9999,9999,309378116
34,3,2,T1_SMS_8,20,9999,9999,9999,310178896
34,3,2,T1_SMS_8,21,9999,9999,9999,310978620
34,3,2,T1_SMS_8,22,9999,9999,9999,311778408
34,3,2,T1_SMS_8,23,9999,9999,9999,312578140
34,3,2,T1_SMS_8,24,9999,9999,9999,313378920
34,3,2,T1_SMS_8,25,9999,9999,9999,314178656
34,3,2,T1_SMS_8,26,9999,9999,9999,314978388
34,3,2,T1_SMS_8,27,9999,9999,9999,315778120
34,3,2,T1_SMS_8,28,9999,9999,9999,316578908
34,3,2,T1_SMS_8,29,9999,9999,9999,317378632
34,3,2,T1_SMS_8,30,9999,9999,9999,318178368
34,3,2,T1_SMS_8,31,9999,9999,9999,318978124
34,3,2,T1_SMS_8,32,9999,9999,9999,319778912
34,3,2,T1_SMS_8,33,9999,9999,9999,320578648
34,3,2,T1_SMS_8,34,9999,9999,9999,321378372
34,3,2,T1_SMS_8,35,9999,9999,9999,322178132
34,3,2,T1_SMS_8,36,9999,9999,9999,322978892
34,3,2,T1_SMS_8,37,9999,9999,9999,323778620
34,3,2,T1_SMS_8,38,9999,9999,9999,324578352
34,3,2,T1_SMS_8,39,9999,9999,9999,325378116
34,3,2,T1_SMS_8,40,9999,9999,9999,326178896
34,3,2,T1_SMS_8,41,9999,9999,9999,326978632
34,3,2,T1_SMS_8,42,9999,9999,9999,327778360
34,3,2,T1_SMS_8,43,9999,9999,9999,328578100
34,3,2,T1_SMS_8,44,9999,9999,9999,329378872
34,3,2,T1_SMS_8,45,9999,9999,9999,330178608
34,3,2,T1_SMS_8,46,9999,9999,9999,330978412
34,3,2,T1_SMS_8,47,9999,9999,9999,331778104
34,3,2,T1_SMS_8,48,9999,9999,9999,332578884
34,3,2,T1_SMS_8,49,9999,9999,9999,333378612
34,3,2,T1_SMS_8,50,9999,9999,9999,334178420
34,3,2,T1_SMS_8,51,9999,9999,9999,334978152
34,3,2,T1_SMS_8,52,9999,9999,9999,335778932
34,3,2,T1_SMS_8,53,9999,9999,9999,336578668
34,3,2,T1_SMS_8,54,9999,9999,9999,337378400
34,3,2,T1_SMS_8,55,9999,9999,9999,338178156
34,3,2,T1_SMS_8,56,9999,9999,9999,338978860
34,3,2,T1_SMS_8,57,9999,9999,9999,339778668
34,3,2,T1_SMS_8,58,9999,9999,9999,340578404
34,3,2,T1_SMS_8,59,9999,9999,9999,341378136
34,3,2,T1_SMS_8,60,9999,9999,9999,342178916
34,3,2,T1_SMS_8,61,9999,9999,9999,342978648
34,3,2,T1_SMS_8,62,9999,9999,9999,343778388
34,3,2,T1_SMS_8,63,9999,9999,9999,344578140
34,3,2,T1_SMS_8,64,9999,9999,9999,345378920
34,3,2,T1_SMS_8,65,9999,9999,9999,346178656
34,3,2,T1_SMS_8,66,9999,9999,9999,346978396
34,3,2,T1_SMS_8,67,9999,9999,9999,347778124
34,3,2,T1_SMS_8,68,9999,9999,9999,348578904
34,3,2,T1_SMS_8,69,9999,9999,9999,349378644
34,3,2,T1_SMS_8,70,9999,9999,9999,350178380
34,3,2,T1_SMS_8,71,9999,9999,9999,350978136
34,3,2,T1_SMS_8,72,9999,9999,9999,351778912
34,3,2,T1_SMS_8,73,9999,9999,9999,352578644
34,3,2,T1_SMS_8,74,9999,9999,9999,353378376
34,3,2,T1_SMS_8,75,9999,9999,9999,354178112
34,3,2,T1_SMS_8,76,9999,9999,9999,354978872
34,3,2,T1_SMS_8,77,9999,9999,9999,355778660
34,3,2,T1_SMS_8,78,9999,9999,9999,356578388
34,3,2,T1_SMS_8,79,9999,9999,9999,357378144
34,3,2,T1_SMS_8,80,9999,9999,9999,358178936
34,3,2,T1_SMS_8,81,9999,9999,9999,358978664
34,3,2,T1_SMS_8,82,9999,9999,9999,359778396
34,3,2,T1_SMS_8,83,9999,9999,9999,360578132
34,3,2,T1_SMS_8,84,9999,9999,9999,361378908
34,3,2,T1_SMS_8,85,9999,9999,9999,362178644
34,3,2,T1_SMS_8,86,9999,9999,9999,362978380
34,3,2,T1_SMS_8,87,9999,9999,9999,363778140
34,3,2,T1_SMS_8,88,9999,9999,9999,364578920
34,3,2,T1_SMS_8,89,9999,9999,9999,365378652
34,3,2,T1_SMS_8,90,9999,9999,9999,366178416
34,3,2,T1_SMS_8,91,9999,9999,9999,366978148
34,3,2,T1_SMS_8,92,9999,9999,9999,367778920
34,3,2,T1_SMS_8,93,9999,9999,9999,368578652
34,3,2,T1_SMS_8,94,9999,9999,9999,369378388
34,3,2,T1_SMS_8,95,9999,9999,9999,370178148
34,3,2,T1_SMS_8,96,9999,9999,9999,370978932
34,3,2,T1_SMS_8,97,9999,9999,9999,371778664
34,3,2,T1_SMS_8,98,9999,9999,9999,372578392
34,3,2,T1_SMS_8,99,9999,9999,9999,373378124
34,3,2,T1_SMS_8,100,9999,9999,9999,374178908
34,3,2,T1_SMS_8,101,9999,9999,9999,374978644
34,3,2,T1_SMS_8,102,9999,9999,9999,375778380
34,3,2,T1_SMS_8,103,9999,9999,9999,376578140
34,3,2,T1_SMS_8,104,9999,9999,9999,377378916
34,3,2,T1_SMS_8,105,9999,9999,9999,378178644
34,3,2,T1_SMS_8,106,9999,9999,9999,378978384
34,3,2,T1_SMS_8,107,9999,9999,9999,379778116
34,3,2,T1_SMS_8,108,9999,9999,9999,380578900
34,3,2,T1_SMS_8,109,9999,9999,9999,381378632
34,3,2,T1_SMS_8,110,9999,9999,9999,382178368
34,3,2,T1_SMS_8,111,9999,9999,9999,382978116
34,3,2,T1_SMS_8,112,9999,9999,9999,383778896
34,3,2,T1_SMS_8,113,9999,9999,9999,384578632
34,3,2,T1_SMS_8,114,9999,9999,9999,385378364
34,3,2,T1_SMS_8,115,9999,9999,9999,386178100
34,3,2,T1_SMS_8,116,9999,9999,9999,386978880
34,3,2,T1_SMS_8,117,9999,9999,9999,387778620
34,3,2,T1_SMS_8,118,9999,9999,9999,388578352
34,3,2,T1_SMS_8,119,9999,9999,9999,389378108
34,4,4,T1_SMS_5,0,5,42,127,429940256
34,4,4,T1_SMS_5,1,5,42,127,430439676
34,4,4,T1_SMS_5,2,1,48,86,430598548
34,4,4,T1_SMS_5,3,5,42,127,430939372
34,4,4,T1_SMS_5,4,1,48,80,430959468
34,4,4,T1_SMS_5,5,1,48,83,431421600
34,4,4,T1_SMS_5,6,5,42,127,431440180
34,4,4,T1_SMS_5,7,5,42,127,431940108
34,4,4,T1_SMS_5,8,1,48,92,431948016
34,4,4,T1_SMS_5,9,1,48,94,432431756
34,4,4,T1_SMS_5,10,5,42,127,432439572
34,4,4,T1_SMS_5,11,1,48,62,432933396
34,4,4,T1_SMS_5,12,5,42,127,432940388
34,4,4,T1_SMS_5,13,1,48,100,433428532
34,4,4,T1_SMS_5,14,5,42,127,433440308
34,4,4,T1_SMS_5,15,1,48,90,433928072
34,4,4,T1_SMS_5,16,5,42,127,433939852
34,4,4,T1_SMS_5,17,5,42,127,434439480
34,4,4,T1_SMS_5,18,1,48,98,434442144
34,4,4,T1_SMS_5,19,5,42,127,434940368
34,4,4,T1_SMS_5,20,1,48,87,434949176
34,4,4,T1_SMS_5,21,5,42,127,435439892
34,4,4,T1_SMS_5,22,1,48,85,435450364
34,4,4,T1_SMS_5,23,5,42,127,435939956
34,4,4,T1_SMS_5,24,1,48,78,435947116
34,4,4,T1_SMS_5,25,5,42,127,436440400
34,4,4,T1_SMS_5,26,1,48,88,436444344
34,4,4,T1_SMS_5,27,5,42,127,436940096
34,4,4,T1_SMS_5,28,1,48,81,436942688
34,4,4,T1_SMS_5,29,1,48,81,437428308
34,4,4,T1_SMS_5,30,5,42,127,437439784
34,4,4,T1_SMS_5,31,1,48,81,437921944
34,4,4,T1_SMS_5,32,5,42,127,437939704
34,4,4,T1_SMS_5,33,1,48,79,438422160
34,4,4,T1_SMS_5,34,5,42,127,438440220
34,4,4,T1_SMS_5,35,1,48,69,438934192
34,4,4,T1_SMS_5,36,5,42,127,438939988
34,4,4,T1_SMS_5,37,1,48,70,439426032
34,4,4,T1_SMS_5,38,5,42,127,439439984
34,4,4,T1_SMS_5,39,1,48,78,439930444
34,4,4,T1_SMS_5,40,5,42,127,439939380
34,4,4,T1_SMS_5,41,5,42,127,440440128
34,4,4,T1_SMS_5,42,1,48,82,440444220
34,4,4,T1_SMS_5,43,5,42,127,440939824
34,4,4,T1_SMS_5,44,1,48,85,440950948
34,4,4,T1_SMS_5,45,1,48,84,441438992
34,4,4,T1_SMS_5,46,5,42,127,441440784
34,4,4,T1_SMS_5,47,5,42,127,441940484
34,4,4,T1_SMS_5,48,1,48,78,441955120
34,4,4,T1_SMS_5,49,5,42,127,442440028
34,4,4,T1_SMS_5,50,1,48,73,442446212
34,4,4,T1_SMS_5,51,1,48,84,442935040
34,4,4,T1_SMS_5,52,5,42,127,442939792
34,4,4,T1_SMS_5,53,5,42,127,443439492
34,4,4,T1_SMS_5,54,1,48,89,443446352
34,4,4,T1_SMS_5,55,5,42,127,443940160
34,4,4,T1_SMS_5,56,1,48,83,443954796
34,4,4,T1_SMS_5,57,1,48,82,444433680
34,4,4,T1_SMS_5,58,5,42,127,444439848
34,4,4,T1_SMS_5,59,1,48,73,444938796
34,4,4,T1_SMS_5,60,5,42,127,444940664
34,4,4,T1_SMS_5,61,5,42,127,445440444
34,4,4,T1_SMS_5,62,1,48,78,445457700
34,4,4,T1_SMS_5,63,5,42,127,445940212
34,4,4,T1_SMS_5,64,1,48,83,445955448
34,4,4,T1_SMS_5,65,5,42,127,446439732
34,4,4,T1_SMS_5,66,1,48,79,446446584
34,4,4,T1_SMS_5,67,1,48,77,446928540
34,4,4,T1_SMS_5,68,5,42,127,446939420
34,4,4,T1_SMS_5,69,1,48,74,447425616
34,4,4,T1_SMS_5,70,5,42,127,447440536
34,4,4,T1_SMS_5,71,1,48,89,447932720
34,4,4,T1_SMS_5,72,5,42,127,447940084
34,4,4,T1_SMS_5,73,5,42,127,448439636
34,4,4,T1_SMS_5,74,1,48,74,448447768
34,4,4,T1_SMS_5,75,5,42,127,448940376
34,4,4,T1_SMS_5,76,1,48,65,448961296
34,4,4,T1_SMS_5,77,1,48,72,449439092
34,4,4,T1_SMS_5,78,5,42,127,449440732
34,4,4,T1_SMS_5,79,5,42,127,449939988
34,4,4,T1_SMS_5,80,1,48,73,449951036
34,4,4,T1_SMS_5,81,1,48,79,450431116
34,4,4,T1_SMS_5,82,5,42,127,450439528
34,4,4,T1_SMS_5,83,1,48,87,450937392
34,4,4,T1_SMS_5,84,5,42,127,450940416
34,4,4,T1_SMS_5,85,5,42,127,451440120
34,4,4,T1_SMS_5,86,1,48,78,451456404
34,4,4,T1_SMS_5,87,5,42,127,451939668
34,4,4,T1_SMS_5,88,1,48,80,451957824
34,4,4,T1_SMS_5,89,5,42,127,452440408
34,4,4,T1_SMS_5,90,1,48,81,452443600
34,4,4,T1_SMS_5,91,5,42,127,452940104
34,4,4,T1_SMS_5,92,1,48,75,452949212
34,4,4,T1_SMS_5,93,5,42,127,453440100
34,4,4,T1_SMS_5,94,1,48,80,453443596
34,4,4,T1_SMS_5,95,5,42,127,453939568
34,4,4,T1_SMS_5,96,1,48,86,453949268
34,4,4,T1_SMS_5,97,5,42,127,454440236
34,4,4,T1_SMS_5,98,1,48,79,454447992
34,4,4,T1_SMS_5,99,1,48,76,454932260
34,4,4,T1_SMS_5,100,5,42,127,454940000
34,4,4,T1_SMS_5,101,5,42,127,455439848
34,4,4,T1_SMS_5,102,1,48,86,455450752
34,4,4,T1_SMS_5,103,1,48,80,455933892
34,4,4,T1_SMS_5,104,5,42,127,455939316
34,4,4,T1_SMS_5,105,5,42,127,456440288
34,4,4,T1_SMS_5,106,1,48,80,456441476
34,4,4,T1_SMS_5,107,5,42,127,456940108
34,4,4,T1_SMS_5,108,1,48,81,456956860
34,4,4,T1_SMS_5,109,1,48,78,457435644
34,4,4,T1_SMS_5,110,5,42,127,457439572
34,4,4,T1_SMS_5,111,5,42,127,457940320
34,4,4,T1_SMS_5,112,1,48,83,457963108
34,4,4,T1_SMS_5,113,5,42,127,458440016
34,4,4,T1_SMS_5,114,1,48,71,458445672
34,4,4,T1_SMS_5,115,5,42,127,458939932
34,4,4,T1_SMS_5,116,1,48,90,458964440
34,4,4,T1_SMS_5,117,5,42,127,459439404
34,4,4,T1_SMS_5,118,1,48,67,459452096
34,4,4,T1_SMS_5,119,5,42,127,459940072
34,4,4,T1_SMS_5,120,1,48,54,459961140
34,4,4,T1_SMS_5,121,1,48,65,460438472
34,4,4,T1_SMS_5,122,5,42,127,460440132
34,4,4,T1_SMS_5,123,1,48,79,460933956
34,4,4,T1_SMS_5,124,5,42,127,460940052
34,4,4,T1_SMS_5,125,1,48,81,461412936
34,4,4,T1_SMS_5,126,5,42,127,461440272
34,4,4,T1_SMS_5,127,1,48,81,461925268
34,4,4,T1_SMS_5,128,5,42,127,461940040
34,4,4,T1_SMS_5,129,1,48,67,462425936
34,4,4,T1_SMS_5,130,5,42,127,462439740
34,4,4,T1_SMS_5,131,1,48,74,462930124
34,4,4,T1_SMS_5,132,5,42,127,462939656
34,4,4,T1_SMS_5,133,1,48,65,463426076
34,4,4,T1_SMS_5,134,5,42,127,463440248
34,4,4,T1_SMS_5,135,5,42,127,463939876
34,4,4,T1_SMS_5,136,1,48,76,463944716
34,4,4,T1_SMS_5,137,5,42,127,464439720
34,4,4,T1_SMS_5,138,1,48,78,464448000
34,4,4,T1_SMS_5,139,1,48,72,464936528
34,4,4,T1_SMS_5,140,5,42,127,464940604
34,4,4,T1_SMS_5,141,1,48,78,465439024
34,4,4,T1_SMS_5,142,5,42,127,465440900
34,4,4,T1_SMS_5,143,5,42,127,465939852
34,4,4,T1_SMS_5,144,1,48,80,465948880
34,4,4,T1_SMS_5,145,5,42,127,466439544
34,4,4,T1_SMS_5,146,1,48,82,466446852
34,4,4,T1_SMS_5,147,1,48,74,466940064
34,4,4,T1_SMS_5,148,5,42,127,466941624
34,4,4,T1_SMS_5,149,1,48,66,467439528
34,4,4,T1_SMS_5,150,5,42,127,467441320
34,4,4,T1_SMS_5,151,5,42,127,467939724
34,4,4,T1_SMS_5,152,1,48,77,467946584
34,4,4,T1_SMS_5,153,1,48,63,468434516
34,4,4,T1_SMS_5,154,5,42,127,468440536
34,4,4,T1_SMS_5,155,1,48,71,468939112
34,4,4,T1_SMS_5,156,5,42,127,468940904
34,4,4,T1_SMS_5,157,1,48,67,469430320
34,4,4,T1_SMS_5,158,5,42,127,469439776
34,4,4,T1_SMS_5,159,5,42,127,469939700
34,4,4,T1_SMS_5,160,1,48,83,469950224
34,4,4,T1_SMS_5,161,5,42,127,470440368
34,4,4,T1_SMS_5,162,1,48,85,470446408
34,4,4,T1_SMS_5,163,5,42,127,470939916
34,4,4,T1_SMS_5,164,1,48,85,470941252
34,4,4,T1_SMS_5,165,5,42,127,471439688
34,4,4,T1_SMS_5,166,1,48,82,471469284
34,4,4,T1_SMS_5,167,5,42,127,471939308
34,4,4,T1_SMS_5,168,1,48,72,471955588
34,4,4,T1_SMS_5,169,1,48,85,472428788
34,4,4,T1_SMS_5,170,5,42,127,472440412
34,4,4,T1_SMS_5,171,1,48,88,472929004
34,4,4,T1_SMS_5,172,5,42,127,472939812
34,4,4,T1_SMS_5,173,1,48,84,473409252
34,4,4,T1_SMS_5,174,5,42,127,473439584
34,4,4,T1_SMS_5,175,1,48,79,473931536
34,4,4,T1_SMS_5,176,5,42,127,473940248
34,4,4,T1_SMS_5,177,5,42,127,474440248
34,4,4,T1_SMS_5,178,1,48,71,474458100
34,4,4,T1_SMS_5,179,5,42,127,474939644
34,4,4,T1_SMS_5,180,1,48,82,474949048
34,4,4,T1_SMS_5,181,1,48,91,475433684
34,4,4,T1_SMS_5,182,5,42,127,475439484
34,4,4,T1_SMS_5,183,1,48,89,475925004
34,4,4,T1_SMS_5,184,5,42,127,475940372
34,4,4,T1_SMS_5,185,5,42,127,476440076
34,4,4,T1_SMS_5,186,1,48,84,476445740
34,4,4,T1_SMS_5,187,1,48,72,476936136
34,4,4,T1_SMS_5,188,5,42,127,476939692
34,4,4,T1_SMS_5,189,5,42,127,477440216
34,4,4,T1_SMS_5,190,1,48,83,477472504
34,4,4,T1_SMS_5,191,1,48,84,477931092
34,4,4,T1_SMS_5,192,5,42,127,477939976
34,4,4,T1_SMS_5,193,1,48,79,478432880
34,4,4,T1_SMS_5,194,5,42,127,478439944
34,4,4,T1_SMS_5,195,1,48,80,478936836
34,4,4,T1_SMS_5,196,5,42,127,478939492
34,4,4,T1_SMS_5,197,1,48,72,479425532
34,4,4,T1_SMS_5,198,5,42,127,479440308
34,4,4,T1_SMS_5,199,1,48,77,479930768
34,4,4,T1_SMS_5,200,5,42,127,479939928
34,4,4,T1_SMS_5,201,1,48,59,480427544
34,4,4,T1_SMS_5,202,5,42,127,480439768
34,4,4,T1_SMS_5,203,1,48,77,480923872
34,4,4,T1_SMS_5,204,5,42,127,480940288
34,4,4,T1_SMS_5,205,1,48,76,481400380
34,4,4,T1_SMS_5,206,5,42,127,481440056
34,4,4,T1_SMS_5,207,1,48,84,481923932
34,4,4,T1_SMS_5,208,5,42,127,481939976
34,4,4,T1_SMS_5,209,5,42,127,482439676
34,4,4,T1_SMS_5,210,1,48,79,482441012
34,4,4,T1_SMS_5,211,1,48,86,482931176
34,4,4,T1_SMS_5,212,5,42,127,482940264
34,4,4,T1_SMS_5,213,5,42,127,483440040
34,4,4,T1_SMS_5,214,1,48,72,483453256
34,4,4,T1_SMS_5,215,5,42,127,483939732
34,4,4,T1_SMS_5,216,1,48,73,483959308
34,4,4,T1_SMS_5,217,1,48,89,484438428
34,4,4,T1_SMS_5,218,5,42,127,484440468
34,4,4,T1_SMS_5,219,5,42,127,484940020
34,4,4,T1_SMS_5,220,1,48,90,484947256
34,4,4,T1_SMS_5,221,5,42,127,485439864
34,4,4,T1_SMS_5,222,1,48,85,485445372
34,4,4,T1_SMS_5,223,5,42,127,485939560
34,4,4,T1_SMS_5,224,1,48,84,485951952
34,4,4,T1_SMS_5,225,1,48,79,486433156
34,4,4,T1_SMS_5,226,5,42,127,486440520
34,4,4,T1_SMS_5,227,1,48,75,486925964
34,4,4,T1_SMS_5,228,5,42,127,486940140
34,4,4,T1_SMS_5,229,5,42,127,487439768
34,4,4,T1_SMS_5,230,1,48,76,487443484
34,4,4,T1_SMS_5,231,5,42,127,487939684
34,4,4,T1_SMS_5,232,1,48,80,487963444
34,4,4,T1_SMS_5,233,5,42,127,488440204
34,4,4,T1_SMS_5,234,1,48,70,488450800
34,4,4,T1_SMS_5,235,1,48,85,488925324
34,4,4,T1_SMS_5,236,5,42,127,488940016
34,4,4,T1_SMS_5,237,5,42,127,489439568
34,4,4,T1_SMS_5,238,1,48,78,489443136
34,4,4,T1_SMS_5,239,5,42,127,489940532
34,4,4,T1_SMS_5,240,1,48,80,489965364
34,4,4,T1_SMS_5,241,5,42,127,490440004
34,4,4,T1_SMS_5,242,1,48,75,490460256
34,4,4,T1_SMS_5,243,1,48,87,490938420
34,4,4,T1_SMS_5,244,5,42,127,490940212
34,4,4,T1_SMS_5,245,1,48,79,491432916
34,4,4,T1_SMS_5,246,5,42,127,491439464
34,4,4,T1_SMS_5,247,1,48,78,491924836
34,4,4,T1_SMS_5,248,5,42,127,491940204
34,4,4,T1_SMS_5,249,5,42,127,492439980
34,4,4,T1_SMS_5,250,1,48,91,492450056
34,4,4,T1_SMS_5,251,1,48,92,492929464
34,4,4,T1_SMS_5,252,5,42,127,492939520
34,4,4,T1_SMS_5,253,5,42,127,493440344
34,4,4,T1_SMS_5,254,1,48,84,493443008
34,4,4,T1_SMS_5,255,5,42,127,493940188
34,4,4,T1_SMS_5,256,1,48,78,493946592
34,4,4,T1_SMS_5,257,1,48,75,494422488
34,4,4,T1_SMS_5,258,5,42,127,494439728
34,4,4,T1_SMS_5,259,1,48,84,494927120
34,4,4,T1_SMS_5,0,9999,9999,9999,429937748
34,4,4,T1_SMS_5,1,9999,9999,9999,430437464
34,4,4,T1_SMS_5,2,9999,9999,9999,430937160
34,4,4,T1_SMS_5,3,9999,9999,9999,431437896
34,4,4,T1_SMS_5,4,9999,9999,9999,431937596
34,4,4,T1_SMS_5,5,9999,9999,9999,432437360
34,4,4,T1_SMS_5,6,9999,9999,9999,432938100
34,4,4,T1_SMS_5,7,9999,9999,9999,433437796
34,4,4,T1_SMS_5,8,9999,9999,9999,433937492
34,4,4,T1_SMS_5,9,9999,9999,9999,434437192
34,4,4,T1_SMS_5,10,9999,9999,9999,434937932
34,4,4,T1_SMS_5,11,9999,9999,9999,435437680
34,4,4,T1_SMS_5,12,9999,9999,9999,435937372
34,4,4,T1_SMS_5,13,9999,9999,9999,436438116
34,4,4,T1_SMS_5,14,9999,9999,9999,436937808
34,4,4,T1_SMS_5,15,9999,9999,9999,437437496
34,4,4,T1_SMS_5,16,9999,9999,9999,437937268
34,4,4,T1_SMS_5,17,9999,9999,9999,438438008
34,4,4,T1_SMS_5,18,9999,9999,9999,438937704
34,4,4,T1_SMS_5,19,9999,9999,9999,439437400
34,4,4,T1_SMS_5,20,9999,9999,9999,439937096
34,4,4,T1_SMS_5,21,9999,9999,9999,440437840
34,4,4,T1_SMS_5,22,9999,9999,9999,440937540
34,4,4,T1_SMS_5,23,9999,9999,9999,441437232
34,4,4,T1_SMS_5,24,9999,9999,9999,441937972
34,4,4,T1_SMS_5,25,9999,9999,9999,442437744
34,4,4,T1_SMS_5,26,9999,9999,9999,442937432
34,4,4,T1_SMS_5,27,9999,9999,9999,443437132
34,4,4,T1_SMS_5,28,9999,9999,9999,443937872
34,4,4,T1_SMS_5,29,9999,9999,9999,444437560
34,4,4,T1_SMS_5,30,9999,9999,9999,444937336
34,4,4,T1_SMS_5,31,9999,9999,9999,445438008
34,4,4,T1_SMS_5,32,9999,9999,9999,445937776
34,4,4,T1_SMS_5,33,9999,9999,9999,446437444
34,4,4,T1_SMS_5,34,9999,9999,9999,446937208
34,4,4,T1_SMS_5,35,9999,9999,9999,447437876
34,4,4,T1_SMS_5,36,9999,9999,9999,447937648
34,4,4,T1_SMS_5,37,9999,9999,9999,448437348
34,4,4,T1_SMS_5,38,9999,9999,9999,448938088
34,4,4,T1_SMS_5,39,9999,9999,9999,449437784
34,4,4,T1_SMS_5,40,9999,9999,9999,449937476
34,4,4,T1_SMS_5,41,9999,9999,9999,450437240
34,4,4,T1_SMS_5,42,9999,9999,9999,450937908
34,4,4,T1_SMS_5,43,9999,9999,9999,451437684
34,4,4,T1_SMS_5,44,9999,9999,9999,451937380
34,4,4,T1_SMS_5,45,9999,9999,9999,452438124
34,4,4,T1_SMS_5,46,9999,9999,9999,452937816
34,4,4,T1_SMS_5,47,9999,9999,9999,453437516
34,4,4,T1_SMS_5,48,9999,9999,9999,453937208
34,4,4,T1_SMS_5,49,9999,9999,9999,454437952
34,4,4,T1_SMS_5,50,9999,9999,9999,454937712
34,4,4,T1_SMS_5,51,9999,9999,9999,455437416
34,4,4,T1_SMS_5,52,9999,9999,9999,455937104
34,4,4,T1_SMS_5,53,9999,9999,9999,456437852
34,4,4,T1_SMS_5,54,9999,9999,9999,456937524
34,4,4,T1_SMS_5,55,9999,9999,9999,457437284
34,4,4,T1_SMS_5,56,9999,9999,9999,457938032
34,4,4,T1_SMS_5,57,9999,9999,9999,458437728
34,4,4,T1_SMS_5,58,9999,9999,9999,458937420
34,4,4,T1_SMS_5,59,9999,9999,9999,459437116
34,4,4,T1_SMS_5,60,9999,9999,9999,459937860
34,4,4,T1_SMS_5,61,9999,9999,9999,460437552
34,4,4,T1_SMS_5,62,9999,9999,9999,460937316
34,4,4,T1_SMS_5,63,9999,9999,9999,461438060
34,4,4,T1_SMS_5,64,9999,9999,9999,461937756
34,4,4,T1_SMS_5,65,9999,9999,9999,462437452
34,4,4,T1_SMS_5,66,9999,9999,9999,462937144
34,4,4,T1_SMS_5,67,9999,9999,9999,463437888
34,4,4,T1_SMS_5,68,9999,9999,9999,463937592
34,4,4,T1_SMS_5,69,9999,9999,9999,464437360
34,4,4,T1_SMS_5,70,9999,9999,9999,464938092
34,4,4,T1_SMS_5,71,9999,9999,9999,465437796
34,4,4,T1_SMS_5,72,9999,9999,9999,465937488
34,4,4,T1_SMS_5,73,9999,9999,9999,466437184
34,4,4,T1_SMS_5,74,9999,9999,9999,466937924
34,4,4,T1_SMS_5,75,9999,9999,9999,467437668
34,4,4,T1_SMS_5,76,9999,9999,9999,467937364
34,4,4,T1_SMS_5,77,9999,9999,9999,468438100
34,4,4,T1_SMS_5,78,9999,9999,9999,468937804
34,4,4,T1_SMS_5,79,9999,9999,9999,469437492
34,4,4,T1_SMS_5,80,9999,9999,9999,469937268
34,4,4,T1_SMS_5,81,9999,9999,9999,470438008
34,4,4,T1_SMS_5,82,9999,9999,9999,470937704
34,4,4,T1_SMS_5,83,9999,9999,9999,471437400
34,4,4,T1_SMS_5,84,9999,9999,9999,471937096
34,4,4,T1_SMS_5,85,9999,9999,9999,472437828
34,4,4,T1_SMS_5,86,9999,9999,9999,472937524
34,4,4,T1_SMS_5,87,9999,9999,9999,473437296
34,4,4,T1_SMS_5,88,9999,9999,9999,473938036
34,4,4,T1_SMS_5,89,9999,9999,9999,474437740
34,4,4,T1_SMS_5,90,9999,9999,9999,474937432
34,4,4,T1_SMS_5,91,9999,9999,9999,475437120
34,4,4,T1_SMS_5,92,9999,9999,9999,475937864
34,4,4,T1_SMS_5,93,9999,9999,9999,476437564
34,4,4,T1_SMS_5,94,9999,9999,9999,476937332
34,4,4,T1_SMS_5,95,9999,9999,9999,477438004
34,4,4,T1_SMS_5,96,9999,9999,9999,477937764
34,4,4,T1_SMS_5,97,9999,9999,9999,478437436
34,4,4,T1_SMS_5,98,9999,9999,9999,478937204
34,4,4,T1_SMS_5,99,9999,9999,9999,479437872
34,4,4,T1_SMS_5,100,9999,9999,9999,479937640
34,4,4,T1_SMS_5,101,9999,9999,9999,480437336
34,4,4,T1_SMS_5,102,9999,9999,9999,480938076
34,4,4,T1_SMS_5,103,9999,9999,9999,481437772
34,4,4,T1_SMS_5,104,9999,9999,9999,481937464
34,4,4,T1_SMS_5,105,9999,9999,9999,482437240
34,4,4,T1_SMS_5,106,9999,9999,9999,482937976
34,4,4,T1_SMS_5,107,9999,9999,9999,483437676
34,4,4,T1_SMS_5,108,9999,9999,9999,483937372
34,4,4,T1_SMS_5,109,9999,9999,9999,484438144
34,4,4,T1_SMS_5,110,9999,9999,9999,484937808
34,4,4,T1_SMS_5,111,9999,9999,9999,485437504
34,4,4,T1_SMS_5,112,9999,9999,9999,485937272
34,4,4,T1_SMS_5,113,9999,9999,9999,486438008
34,4,4,T1_SMS_5,114,9999,9999,9999,486937704
34,4,4,T1_SMS_5,115,9999,9999,9999,487437404
34,4,4,T1_SMS_5,116,9999,9999,9999,487937100
34,4,4,T1_SMS_5,117,9999,9999,9999,488437840
34,4,4,T1_SMS_5,118,9999,9999,9999,488937580
34,4,4,T1_SMS_5,119,9999,9999,9999,489437284
34,4,4,T1_SMS_5,120,9999,9999,9999,489938024
34,4,4,T1_SMS_5,121,9999,9999,9999,490437720
34,4,4,T1_SMS_5,122,9999,9999,9999,490937412
34,4,4,T1_SMS_5,123,9999,9999,9999,491437176
34,4,4,T1_SMS_5,124,9999,9999,9999,491937844
34,4,4,T1_SMS_5,125,9999,9999,9999,492437616
34,4,4,T1_SMS_5,126,9999,9999,9999,492937308
34,4,4,T1_SMS_5,127,9999,9999,9999,493438056
34,4,4,T1_SMS_5,128,9999,9999,9999,493937752
34,4,4,T1_SMS_5,129,9999,9999,9999,494437440
34,5,22,Ticks_Phase_8,0,5,42,127,507443740
34,5,22,Ticks_Phase_8,1,1,48,44,508128080
34,5,22,Ticks_Phase_8,2,5,42,127,508244424
34,5,22,Ticks_Phase_8,3,5,42,127,509044008
34,5,22,Ticks_Phase_8,4,1,48,59,509067196
34,5,22,Ticks_Phase_8,5,5,42,127,509843796
34,5,22,Ticks_Phase_8,6,1,48,66,509857248
34,5,22,Ticks_Phase_8,7,5,42,127,510643580
34,5,22,Ticks_Phase_8,8,1,48,73,510677776
34,5,22,Ticks_Phase_8,9,1,48,67,511441452
34,5,22,Ticks_Phase_8,10,5,42,127,511444480
34,5,22,Ticks_Phase_8,11,5,42,127,512244080
34,5,22,Ticks_Phase_8,12,1,48,70,512255364
34,5,22,Ticks_Phase_8,13,5,42,127,513043940
34,5,22,Ticks_Phase_8,14,1,48,68,513044904
34,5,22,Ticks_Phase_8,15,5,42,127,513843504
34,5,22,Ticks_Phase_8,16,1,48,67,513851032
34,5,22,Ticks_Phase_8,17,1,48,70,514643580
34,5,22,Ticks_Phase_8,18,5,42,127,514645448
34,5,22,Ticks_Phase_8,19,1,48,64,515441532
34,5,22,Ticks_Phase_8,20,5,42,127,515444264
34,5,22,Ticks_Phase_8,21,5,42,127,516243760
34,5,22,Ticks_Phase_8,22,1,48,69,516246276
34,5,22,Ticks_Phase_8,23,5,42,127,517043696
34,5,22,Ticks_Phase_8,24,1,48,66,517050484
34,5,22,Ticks_Phase_8,25,1,48,70,517831844
34,5,22,Ticks_Phase_8,26,5,42,127,517844296
34,5,22,Ticks_Phase_8,27,1,48,65,518629672
34,5,22,Ticks_Phase_8,28,5,42,127,518644184
34,5,22,Ticks_Phase_8,29,1,48,59,519427392
34,5,22,Ticks_Phase_8,30,5,42,127,519443820
34,5,22,Ticks_Phase_8,31,1,48,72,520216016
34,5,22,Ticks_Phase_8,32,5,42,127,520243604
34,5,22,Ticks_Phase_8,33,5,42,127,521044296
34,5,22,Ticks_Phase_8,34,1,48,65,521054084
34,5,22,Ticks_Phase_8,35,1,48,63,521841888
34,5,22,Ticks_Phase_8,36,5,42,127,521844076
34,5,22,Ticks_Phase_8,37,1,48,57,522616424
34,5,22,Ticks_Phase_8,38,5,42,127,522644384
34,5,22,Ticks_Phase_8,39,1,48,83,523438152
34,5,22,Ticks_Phase_8,40,5,42,127,523443500
34,5,22,Ticks_Phase_8,41,5,42,127,524244264
34,5,22,Ticks_Phase_8,42,1,48,82,524259064
34,5,22,Ticks_Phase_8,43,1,48,84,525039616
34,5,22,Ticks_Phase_8,44,5,42,127,525044068
34,5,22,Ticks_Phase_8,45,5,42,127,525844008
34,5,22,Ticks_Phase_8,46,1,48,84,525867576
34,5,22,Ticks_Phase_8,47,1,48,79,526628780
34,5,22,Ticks_Phase_8,48,5,42,127,526643568
34,5,22,Ticks_Phase_8,49,1,48,74,527412100
34,5,22,Ticks_Phase_8,50,5,42,127,527444328
34,5,22,Ticks_Phase_8,51,1,48,76,528194508
34,5,22,Ticks_Phase_8,52,5,42,127,528244112
34,5,22,Ticks_Phase_8,53,1,48,74,529022904
34,5,22,Ticks_Phase_8,54,5,42,127,529043752
34,5,22,Ticks_Phase_8,55,5,42,127,529843692
34,5,22,Ticks_Phase_8,56,1,48,82,529848832
34,5,22,Ticks_Phase_8,57,1,48,75,530628088
34,5,22,Ticks_Phase_8,58,5,42,127,530644372
34,5,22,Ticks_Phase_8,59,5,42,127,531423720
34,5,22,Ticks_Phase_8,60,1,48,73,531428860
34,5,22,Ticks_Phase_8,61,1,48,85,532192624
34,5,22,Ticks_Phase_8,62,5,42,127,532224648
34,5,22,Ticks_Phase_8,63,5,42,127,533024068
34,5,22,Ticks_Phase_8,64,1,48,77,533027264
34,5,22,Ticks_Phase_8,65,5,42,127,533823928
34,5,22,Ticks_Phase_8,66,1,48,85,533830264
34,5,22,Ticks_Phase_8,67,5,42,127,534623716
34,5,22,Ticks_Phase_8,68,1,48,77,534628408
34,5,22,Ticks_Phase_8,69,1,48,79,535405868
34,5,22,Ticks_Phase_8,70,5,42,127,535424540
34,5,22,Ticks_Phase_8,71,1,48,69,536195016
34,5,22,Ticks_Phase_8,72,5,42,127,536224400
34,5,22,Ticks_Phase_8,73,1,48,73,536996904
34,5,22,Ticks_Phase_8,74,5,42,127,537023816
34,5,22,Ticks_Phase_8,75,1,48,52,537796160
34,5,22,Ticks_Phase_8,76,5,42,127,537823676
34,5,22,Ticks_Phase_8,77,1,48,72,538602196
34,5,22,Ticks_Phase_8,78,5,42,127,538624388
34,5,22,Ticks_Phase_8,79,1,48,92,539411792
34,5,22,Ticks_Phase_8,80,5,42,127,539424320
34,5,22,Ticks_Phase_8,81,1,48,84,540185964
34,5,22,Ticks_Phase_8,82,5,42,127,540223736
34,5,22,Ticks_Phase_8,83,5,42,127,541023680
34,5,22,Ticks_Phase_8,84,1,48,84,541024568
34,5,22,Ticks_Phase_8,85,1,48,73,541822000
34,5,22,Ticks_Phase_8,86,5,42,127,541824356
34,5,22,Ticks_Phase_8,87,1,48,69,542588764
34,5,22,Ticks_Phase_8,88,5,42,127,542624364
34,5,22,Ticks_Phase_8,89,1,48,68,543393052
34,5,22,Ticks_Phase_8,90,5,42,127,543423852
34,5,22,Ticks_Phase_8,91,1,48,68,544217840
34,5,22,Ticks_Phase_8,92,5,42,127,544223788
34,5,22,Ticks_Phase_8,93,1,48,84,545005148
34,5,22,Ticks_Phase_8,94,5,42,127,545024352
34,5,22,Ticks_Phase_8,95,1,48,78,545805464
34,5,22,Ticks_Phase_8,96,5,42,127,545843684
34,5,22,Ticks_Phase_8,97,1,48,78,546631156
34,5,22,Ticks_Phase_8,98,5,42,127,546644296
34,5,22,Ticks_Phase_8,99,5,42,127,547443940
34,5,22,Ticks_Phase_8,100,1,48,87,547445276
34,5,22,Ticks_Phase_8,101,1,48,78,548225268
34,5,22,Ticks_Phase_8,102,5,42,127,548243792
34,5,22,Ticks_Phase_8,103,5,42,127,549043512
34,5,22,Ticks_Phase_8,104,1,48,70,549070664
34,5,22,Ticks_Phase_8,105,1,48,68,549816604
34,5,22,Ticks_Phase_8,106,5,42,127,549844264
34,5,22,Ticks_Phase_8,107,5,42,127,550644008
34,5,22,Ticks_Phase_8,108,1,48,65,550648696
34,5,22,Ticks_Phase_8,109,1,48,60,551442128
34,5,22,Ticks_Phase_8,110,5,42,127,551443864
34,5,22,Ticks_Phase_8,111,5,42,127,552243656
34,5,22,Ticks_Phase_8,112,1,48,67,552256888
34,5,22,Ticks_Phase_8,113,1,48,65,553043740
34,5,22,Ticks_Phase_8,114,5,42,127,553045528
34,5,22,Ticks_Phase_8,115,1,48,73,553823872
34,5,22,Ticks_Phase_8,116,5,42,127,553844044
34,5,22,Ticks_Phase_8,117,5,42,127,554643764
34,5,22,Ticks_Phase_8,118,1,48,66,554667924
34,5,22,Ticks_Phase_8,119,5,42,127,555443552
34,5,22,Ticks_Phase_8,120,1,48,80,555445112
34,5,22,Ticks_Phase_8,121,5,42,127,556244460
34,5,22,Ticks_Phase_8,122,1,48,83,556260156
34,5,22,Ticks_Phase_8,123,1,48,76,557027364
34,5,22,Ticks_Phase_8,124,5,42,127,557044116
34,5,22,Ticks_Phase_8,125,1,48,72,557825080
34,5,22,Ticks_Phase_8,126,5,42,127,557843680
34,5,22,Ticks_Phase_8,127,1,48,77,558622924
34,5,22,Ticks_Phase_8,128,5,42,127,558683680
34,5,22,Ticks_Phase_8,129,1,48,77,559482404
34,5,22,Ticks_Phase_8,130,5,42,127,559484440
34,5,22,Ticks_Phase_8,131,5,42,127,560284156
34,5,22,Ticks_Phase_8,132,1,48,64,560306376
34,5,22,Ticks_Phase_8,133,5,42,127,561083720
34,5,22,Ticks_Phase_8,134,1,48,59,561086460
34,5,22,Ticks_Phase_8,135,1,48,63,561875680
34,5,22,Ticks_Phase_8,136,5,42,127,561883424
34,5,22,Ticks_Phase_8,137,5,42,127,562684216
34,5,22,Ticks_Phase_8,138,1,48,70,562697820
34,5,22,Ticks_Phase_8,139,5,42,127,563484224
34,5,22,Ticks_Phase_8,140,1,48,70,563496256
34,5,22,Ticks_Phase_8,141,1,48,73,564215380
34,5,22,Ticks_Phase_8,142,5,42,127,564283856
34,5,22,Ticks_Phase_8,143,1,48,73,565074180
34,5,22,Ticks_Phase_8,144,5,42,127,565083492
34,5,22,Ticks_Phase_8,145,1,48,72,565880396
34,5,22,Ticks_Phase_8,146,5,42,127,565884252
34,5,22,Ticks_Phase_8,147,1,48,76,566665884
34,5,22,Ticks_Phase_8,148,5,42,127,566684184
34,5,22,Ticks_Phase_8,149,1,48,85,567446052
34,5,22,Ticks_Phase_8,150,5,42,127,567483972
34,5,22,Ticks_Phase_8,151,5,42,127,568283392
34,5,22,Ticks_Phase_8,152,1,48,76,568284360
34,5,22,Ticks_Phase_8,153,1,48,65,569072016
34,5,22,Ticks_Phase_8,154,5,42,127,569084172
34,5,22,Ticks_Phase_8,155,1,48,70,569875312
34,5,22,Ticks_Phase_8,156,5,42,127,569884104
34,5,22,Ticks_Phase_8,157,1,48,79,570662976
34,5,22,Ticks_Phase_8,158,5,42,127,570683892
34,5,22,Ticks_Phase_8,159,1,48,64,571469192
34,5,22,Ticks_Phase_8,160,5,42,127,571483456
34,5,22,Ticks_Phase_8,161,5,42,127,572244232
34,5,22,Ticks_Phase_8,162,1,48,83,572280596
34,5,22,Ticks_Phase_8,163,5,42,127,573044020
34,5,22,Ticks_Phase_8,164,1,48,60,573051476
34,5,22,Ticks_Phase_8,165,1,48,77,573785956
34,5,22,Ticks_Phase_8,166,5,42,127,573843800
34,5,22,Ticks_Phase_8,167,1,48,71,574594360
34,5,22,Ticks_Phase_8,168,5,42,127,574643512
34,5,22,Ticks_Phase_8,169,1,48,80,575410012
34,5,22,Ticks_Phase_8,170,5,42,127,575444420
34,5,22,Ticks_Phase_8,171,1,48,63,576237912
34,5,22,Ticks_Phase_8,172,5,42,127,576244008
34,5,22,Ticks_Phase_8,173,1,48,61,577036428
34,5,22,Ticks_Phase_8,174,5,42,127,577043944
34,5,22,Ticks_Phase_8,175,5,42,127,577843516
34,5,22,Ticks_Phase_8,176,1,48,59,577873972
34,5,22,Ticks_Phase_8,177,1,48,68,578606644
34,5,22,Ticks_Phase_8,178,5,42,127,578644340
34,5,22,Ticks_Phase_8,179,1,48,64,579439304
34,5,22,Ticks_Phase_8,180,5,42,127,579444204
34,5,22,Ticks_Phase_8,181,5,42,127,580243696
34,5,22,Ticks_Phase_8,182,1,48,54,580245636
34,5,22,Ticks_Phase_8,183,5,42,127,581043484
34,5,22,Ticks_Phase_8,184,1,48,55,581044896
34,5,22,Ticks_Phase_8,185,5,42,127,581844388
34,5,22,Ticks_Phase_8,186,1,48,55,581857020
34,5,22,Ticks_Phase_8,187,1,48,67,582630080
34,5,22,Ticks_Phase_8,188,5,42,127,582644044
34,5,22,Ticks_Phase_8,189,5,42,127,583444208
34,5,22,Ticks_Phase_8,190,1,48,65,583466352
34,5,22,Ticks_Phase_8,191,1,48,78,584236400
34,5,22,Ticks_Phase_8,192,5,42,127,584243544
34,5,22,Ticks_Phase_8,193,5,42,127,584963432
34,5,22,Ticks_Phase_8,194,1,48,78,585055068
34,5,22,Ticks_Phase_8,195,1,48,60,585736224
34,5,22,Ticks_Phase_8,196,5,42,127,585764332
34,5,22,Ticks_Phase_8,197,1,48,73,586525976
34,5,22,Ticks_Phase_8,198,5,42,127,586564120
34,5,22,Ticks_Phase_8,199,1,48,69,587349196
34,5,22,Ticks_Phase_8,200,5,42,127,587363608
34,5,22,Ticks_Phase_8,201,1,48,56,588153260
34,5,22,Ticks_Phase_8,202,5,42,127,588163320
34,5,22,Ticks_Phase_8,203,1,48,60,588941128
34,5,22,Ticks_Phase_8,204,5,42,127,588964152
34,5,22,Ticks_Phase_8,205,5,42,127,589764244
34,5,22,Ticks_Phase_8,206,1,48,68,589776128
34,5,22,Ticks_Phase_8,207,1,48,69,590540548
34,5,22,Ticks_Phase_8,208,5,42,127,590563876
34,5,22,Ticks_Phase_8,209,1,48,70,591341796
34,5,22,Ticks_Phase_8,210,5,42,127,591363388
34,5,22,Ticks_Phase_8,211,5,42,127,592164304
34,5,22,Ticks_Phase_8,212,1,48,61,592184428
34,5,22,Ticks_Phase_8,213,1,48,75,592941968
34,5,22,Ticks_Phase_8,214,5,42,127,592964084
34,5,22,Ticks_Phase_8,215,1,48,59,593746612
34,5,22,Ticks_Phase_8,216,5,42,127,593763796
34,5,22,Ticks_Phase_8,217,1,48,68,594538236
34,5,22,Ticks_Phase_8,218,5,42,127,594563584
34,5,22,Ticks_Phase_8,219,1,48,68,595356824
34,5,22,Ticks_Phase_8,220,5,42,127,595364192
34,5,22,Ticks_Phase_8,221,5,42,127,596163984
34,5,22,Ticks_Phase_8,222,1,48,67,596178856
34,5,22,Ticks_Phase_8,223,1,48,62,596961332
34,5,22,Ticks_Phase_8,224,5,42,127,596963688
34,5,22,Ticks_Phase_8,225,5,42,127,597763504
34,5,22,Ticks_Phase_8,226,1,48,67,597766848
34,5,22,Ticks_Phase_8,227,1,48,60,598551488
34,5,22,Ticks_Phase_8,228,5,42,127,598644016
34,5,22,Ticks_Phase_8,229,5,42,127,599443808
34,5,22,Ticks_Phase_8,230,1,48,63,599496804
34,5,22,Ticks_Phase_8,231,1,48,61,600221232
34,5,22,Ticks_Phase_8,232,5,42,127,600243956
34,5,22,Ticks_Phase_8,233,1,48,59,601013092
34,5,22,Ticks_Phase_8,234,5,42,127,601044496
34,5,22,Ticks_Phase_8,235,1,48,58,601803588
34,5,22,Ticks_Phase_8,236,5,42,127,601844080
34,5,22,Ticks_Phase_8,237,1,48,57,602583088
34,5,22,Ticks_Phase_8,238,5,42,127,602643940
34,5,22,Ticks_Phase_8,239,1,48,58,603441464
34,5,22,Ticks_Phase_8,240,5,42,127,603443504
34,5,22,Ticks_Phase_8,241,5,42,127,604244416
34,5,22,Ticks_Phase_8,242,1,48,59,604256528
34,5,22,Ticks_Phase_8,243,1,48,53,605018480
34,5,22,Ticks_Phase_8,244,5,42,127,605044048
34,5,22,Ticks_Phase_8,245,1,48,65,605836916
34,5,22,Ticks_Phase_8,246,5,42,127,605843760
34,5,22,Ticks_Phase_8,247,1,48,59,606642348
34,5,22,Ticks_Phase_8,248,5,42,127,606643844
34,5,22,Ticks_Phase_8,249,5,42,127,607444312
34,5,22,Ticks_Phase_8,250,1,48,56,607451560
34,5,22,Ticks_Phase_8,251,1,48,59,608241236
34,5,22,Ticks_Phase_8,252,5,42,127,608244340
34,5,22,Ticks_Phase_8,253,1,48,54,609037956
34,5,22,Ticks_Phase_8,254,5,42,127,609043756
34,5,22,Ticks_Phase_8,255,5,42,127,609843548
34,5,22,Ticks_Phase_8,256,1,48,53,609846296
34,5,22,Ticks_Phase_8,257,1,48,60,610634840
34,5,22,Ticks_Phase_8,258,5,42,127,610644228
34,5,22,Ticks_Phase_8,259,1,48,58,611423016
34,5,22,Ticks_Phase_8,260,5,42,127,611444164
34,5,22,Ticks_Phase_8,261,1,48,59,612219208
34,5,22,Ticks_Phase_8,262,5,42,127,612403620
34,5,22,Ticks_Phase_8,263,5,42,127,613204328
34,5,22,Ticks_Phase_8,264,1,48,57,613268252
34,5,22,Ticks_Phase_8,265,1,48,54,613998984
34,5,22,Ticks_Phase_8,266,5,42,127,614004180
34,5,22,Ticks_Phase_8,267,5,42,127,614803972
34,5,22,Ticks_Phase_8,268,1,48,54,614849928
34,5,22,Ticks_Phase_8,269,5,42,127,615603612
34,5,22,Ticks_Phase_8,270,1,48,62,615628072
34,5,22,Ticks_Phase_8,271,1,48,52,616385984
34,5,22,Ticks_Phase_8,272,5,42,127,616404360
34,5,22,Ticks_Phase_8,273,1,48,53,617166672
34,5,22,Ticks_Phase_8,274,5,42,127,617204024
34,5,22,Ticks_Phase_8,275,1,48,60,617992480
34,5,22,Ticks_Phase_8,276,5,42,127,618003956
34,5,22,Ticks_Phase_8,277,1,48,46,618757056
34,5,22,Ticks_Phase_8,278,5,42,127,618803668
34,5,22,Ticks_Phase_8,279,5,42,127,619604212
34,5,22,Ticks_Phase_8,280,1,48,71,619609800
34,5,22,Ticks_Phase_8,281,1,48,69,620402180
34,5,22,Ticks_Phase_8,282,5,42,127,620403992
34,5,22,Ticks_Phase_8,283,5,42,127,621203860
34,5,22,Ticks_Phase_8,284,1,48,70,621210192
34,5,22,Ticks_Phase_8,285,5,42,127,622003572
34,5,22,Ticks_Phase_8,286,1,48,63,622041816
34,5,22,Ticks_Phase_8,287,5,42,127,622804628
34,5,22,Ticks_Phase_8,288,1,48,61,622825148
34,5,22,Ticks_Phase_8,289,1,48,62,623587852
34,5,22,Ticks_Phase_8,290,5,42,127,623604132
34,5,22,Ticks_Phase_8,291,1,48,54,624398048
34,5,22,Ticks_Phase_8,292,5,42,127,624403920
34,5,22,Ticks_Phase_8,293,1,48,56,625187204
34,5,22,Ticks_Phase_8,294,5,42,127,625203636
34,5,22,Ticks_Phase_8,295,5,42,127,626004624
34,5,22,Ticks_Phase_8,296,1,48,66,626011796
34,5,22,Ticks_Phase_8,297,1,48,78,626786628
34,5,22,Ticks_Phase_8,298,5,42,127,626804104
34,5,22,Ticks_Phase_8,299,5,42,127,627444240
34,5,22,Ticks_Phase_8,300,1,48,76,627583212
34,5,22,Ticks_Phase_8,301,1,48,54,628181056
34,5,22,Ticks_Phase_8,302,5,42,127,628243792
34,5,22,Ticks_Phase_8,303,1,48,63,629041696
34,5,22,Ticks_Phase_8,304,5,42,127,629043508
34,5,22,Ticks_Phase_8,305,5,42,127,629844272
34,5,22,Ticks_Phase_8,306,1,48,53,629852340
34,5,22,Ticks_Phase_8,307,1,48,57,630618408
34,5,22,Ticks_Phase_8,308,5,42,127,630644272
34,5,22,Ticks_Phase_8,309,1,48,63,631418120
34,5,22,Ticks_Phase_8,310,5,42,127,631443912
34,5,22,Ticks_Phase_8,311,5,42,127,632243480
34,5,22,Ticks_Phase_8,312,1,48,51,632250864
34,5,22,Ticks_Phase_8,313,1,48,57,633006684
34,5,22,Ticks_Phase_8,314,5,42,127,633044232
34,5,22,Ticks_Phase_8,315,5,42,127,633844272
34,5,22,Ticks_Phase_8,316,1,48,58,633886940
34,5,22,Ticks_Phase_8,317,1,48,58,634643008
34,5,22,Ticks_Phase_8,318,5,42,127,634644728
34,5,22,Ticks_Phase_8,319,1,48,67,635440512
34,5,22,Ticks_Phase_8,320,5,42,127,635443544
34,5,22,Ticks_Phase_8,321,1,48,62,636217012
34,5,22,Ticks_Phase_8,322,5,42,127,636244376
34,5,22,Ticks_Phase_8,323,5,42,127,637044020
34,5,22,Ticks_Phase_8,324,1,48,64,637059416
34,5,22,Ticks_Phase_8,325,1,48,55,637818304
34,5,22,Ticks_Phase_8,326,5,42,127,637843944
34,5,22,Ticks_Phase_8,327,5,42,127,638643516
34,5,22,Ticks_Phase_8,328,1,48,54,638650604
34,5,22,Ticks_Phase_8,329,1,48,69,639406648
34,5,22,Ticks_Phase_8,330,5,42,127,639444196
34,5,22,Ticks_Phase_8,331,5,42,127,640244016
34,5,22,Ticks_Phase_8,332,1,48,69,640251768
34,5,22,Ticks_Phase_8,333,5,42,127,641044024
34,5,22,Ticks_Phase_8,334,1,48,56,641074704
34,5,22,Ticks_Phase_8,335,5,42,127,641843736
34,5,22,Ticks_Phase_8,336,1,48,56,641862740
34,5,22,Ticks_Phase_8,337,1,48,63,642575936
34,5,22,Ticks_Phase_8,338,5,42,127,642644412
34,5,22,Ticks_Phase_8,0,9999,9999,9999,507441232
34,5,22,Ticks_Phase_8,1,9999,9999,9999,508241988
34,5,22,Ticks_Phase_8,2,9999,9999,9999,509041720
34,5,22,Ticks_Phase_8,3,9999,9999,9999,509841508
34,5,22,Ticks_Phase_8,4,9999,9999,9999,510641220
34,5,22,Ticks_Phase_8,5,9999,9999,9999,511442048
34,5,22,Ticks_Phase_8,6,9999,9999,9999,512241792
34,5,22,Ticks_Phase_8,7,9999,9999,9999,513041504
34,5,22,Ticks_Phase_8,8,9999,9999,9999,513841216
34,5,22,Ticks_Phase_8,9,9999,9999,9999,514641972
34,5,22,Ticks_Phase_8,10,9999,9999,9999,515441756
34,5,22,Ticks_Phase_8,11,9999,9999,9999,516241472
34,5,22,Ticks_Phase_8,12,9999,9999,9999,517041260
34,5,22,Ticks_Phase_8,13,9999,9999,9999,517842012
34,5,22,Ticks_Phase_8,14,9999,9999,9999,518641748
34,5,22,Ticks_Phase_8,15,9999,9999,9999,519441536
34,5,22,Ticks_Phase_8,16,9999,9999,9999,520241244
34,5,22,Ticks_Phase_8,17,9999,9999,9999,521042012
34,5,22,Ticks_Phase_8,18,9999,9999,9999,521841752
34,5,22,Ticks_Phase_8,19,9999,9999,9999,522641500
34,5,22,Ticks_Phase_8,20,9999,9999,9999,523441212
34,5,22,Ticks_Phase_8,21,9999,9999,9999,524241976
34,5,22,Ticks_Phase_8,22,9999,9999,9999,525041784
34,5,22,Ticks_Phase_8,23,9999,9999,9999,525841500
34,5,22,Ticks_Phase_8,24,9999,9999,9999,526641208
34,5,22,Ticks_Phase_8,25,9999,9999,9999,527442040
34,5,22,Ticks_Phase_8,26,9999,9999,9999,528241752
34,5,22,Ticks_Phase_8,27,9999,9999,9999,529041464
34,5,22,Ticks_Phase_8,28,9999,9999,9999,529841256
34,5,22,Ticks_Phase_8,29,9999,9999,9999,530642008
34,5,22,Ticks_Phase_8,30,9999,9999,9999,531421284
34,5,22,Ticks_Phase_8,31,9999,9999,9999,532222060
34,5,22,Ticks_Phase_8,32,9999,9999,9999,533021780
34,5,22,Ticks_Phase_8,33,9999,9999,9999,533821568
34,5,22,Ticks_Phase_8,34,9999,9999,9999,534621280
34,5,22,Ticks_Phase_8,35,9999,9999,9999,535422032
34,5,22,Ticks_Phase_8,36,9999,9999,9999,536221820
34,5,22,Ticks_Phase_8,37,9999,9999,9999,537021532
34,5,22,Ticks_Phase_8,38,9999,9999,9999,537821240
34,5,22,Ticks_Phase_8,39,9999,9999,9999,538622024
34,5,22,Ticks_Phase_8,40,9999,9999,9999,539421812
34,5,22,Ticks_Phase_8,41,9999,9999,9999,540221524
34,5,22,Ticks_Phase_8,42,9999,9999,9999,541021244
34,5,22,Ticks_Phase_8,43,9999,9999,9999,541822068
34,5,22,Ticks_Phase_8,44,9999,9999,9999,542621784
34,5,22,Ticks_Phase_8,45,9999,9999,9999,543421568
34,5,22,Ticks_Phase_8,46,9999,9999,9999,544221280
34,5,22,Ticks_Phase_8,47,9999,9999,9999,545022064
34,5,22,Ticks_Phase_8,48,9999,9999,9999,545841248
34,5,22,Ticks_Phase_8,49,9999,9999,9999,546642008
34,5,22,Ticks_Phase_8,50,9999,9999,9999,547441728
34,5,22,Ticks_Phase_8,51,9999,9999,9999,548241504
34,5,22,Ticks_Phase_8,52,9999,9999,9999,549041228
34,5,22,Ticks_Phase_8,53,9999,9999,9999,549841980
34,5,22,Ticks_Phase_8,54,9999,9999,9999,550641720
34,5,22,Ticks_Phase_8,55,9999,9999,9999,551441528
34,5,22,Ticks_Phase_8,56,9999,9999,9999,552241220
34,5,22,Ticks_Phase_8,57,9999,9999,9999,553041980
34,5,22,Ticks_Phase_8,58,9999,9999,9999,553841760
34,5,22,Ticks_Phase_8,59,9999,9999,9999,554641476
34,5,22,Ticks_Phase_8,60,9999,9999,9999,555441264
34,5,22,Ticks_Phase_8,61,9999,9999,9999,556242024
34,5,22,Ticks_Phase_8,62,9999,9999,9999,557041756
34,5,22,Ticks_Phase_8,63,9999,9999,9999,557841468
34,5,22,Ticks_Phase_8,64,9999,9999,9999,558681172
34,5,22,Ticks_Phase_8,65,9999,9999,9999,559481956
34,5,22,Ticks_Phase_8,66,9999,9999,9999,560281720
34,5,22,Ticks_Phase_8,67,9999,9999,9999,561081432
34,5,22,Ticks_Phase_8,68,9999,9999,9999,561881212
34,5,22,Ticks_Phase_8,69,9999,9999,9999,562681928
34,5,22,Ticks_Phase_8,70,9999,9999,9999,563481716
34,5,22,Ticks_Phase_8,71,9999,9999,9999,564281420
34,5,22,Ticks_Phase_8,72,9999,9999,9999,565081208
34,5,22,Ticks_Phase_8,73,9999,9999,9999,565881964
34,5,22,Ticks_Phase_8,74,9999,9999,9999,566681676
34,5,22,Ticks_Phase_8,75,9999,9999,9999,567481464
34,5,22,Ticks_Phase_8,76,9999,9999,9999,568281180
34,5,22,Ticks_Phase_8,77,9999,9999,9999,569081960
34,5,22,Ticks_Phase_8,78,9999,9999,9999,569881668
34,5,22,Ticks_Phase_8,79,9999,9999,9999,570681456
34,5,22,Ticks_Phase_8,80,9999,9999,9999,571481168
34,5,22,Ticks_Phase_8,81,9999,9999,9999,572242020
34,5,22,Ticks_Phase_8,82,9999,9999,9999,573041732
34,5,22,Ticks_Phase_8,83,9999,9999,9999,573841512
34,5,22,Ticks_Phase_8,84,9999,9999,9999,574641224
34,5,22,Ticks_Phase_8,85,9999,9999,9999,575441984
34,5,22,Ticks_Phase_8,86,9999,9999,9999,576241720
34,5,22,Ticks_Phase_8,87,9999,9999,9999,577041508
34,5,22,Ticks_Phase_8,88,9999,9999,9999,577841228
34,5,22,Ticks_Phase_8,89,9999,9999,9999,578641980
34,5,22,Ticks_Phase_8,90,9999,9999,9999,579441768
34,5,22,Ticks_Phase_8,91,9999,9999,9999,580241484
34,5,22,Ticks_Phase_8,92,9999,9999,9999,581041272
34,5,22,Ticks_Phase_8,93,9999,9999,9999,581842028
34,5,22,Ticks_Phase_8,94,9999,9999,9999,582641760
34,5,22,Ticks_Phase_8,95,9999,9999,9999,583441476
34,5,22,Ticks_Phase_8,96,9999,9999,9999,584241256
34,5,22,Ticks_Phase_8,97,9999,9999,9999,584961144
34,5,22,Ticks_Phase_8,98,9999,9999,9999,585761896
34,5,22,Ticks_Phase_8,99,9999,9999,9999,586561612
34,5,22,Ticks_Phase_8,100,9999,9999,9999,587361396
34,5,22,Ticks_Phase_8,101,9999,9999,9999,588161108
34,5,22,Ticks_Phase_8,102,9999,9999,9999,588961868
34,5,22,Ticks_Phase_8,103,9999,9999,9999,589761660
34,5,22,Ticks_Phase_8,104,9999,9999,9999,590561364
34,5,22,Ticks_Phase_8,105,9999,9999,9999,591361104
34,5,22,Ticks_Phase_8,106,9999,9999,9999,592161868
34,5,22,Ticks_Phase_8,107,9999,9999,9999,592961648
34,5,22,Ticks_Phase_8,108,9999,9999,9999,593761360
34,5,22,Ticks_Phase_8,109,9999,9999,9999,594561148
34,5,22,Ticks_Phase_8,110,9999,9999,9999,595361904
34,5,22,Ticks_Phase_8,111,9999,9999,9999,596161624
34,5,22,Ticks_Phase_8,112,9999,9999,9999,596961404
34,5,22,Ticks_Phase_8,113,9999,9999,9999,597761144
34,5,22,Ticks_Phase_8,114,9999,9999,9999,598641728
34,5,22,Ticks_Phase_8,115,9999,9999,9999,599441520
34,5,22,Ticks_Phase_8,116,9999,9999,9999,600241224
34,5,22,Ticks_Phase_8,117,9999,9999,9999,601041984
34,5,22,Ticks_Phase_8,118,9999,9999,9999,601841720
34,5,22,Ticks_Phase_8,119,9999,9999,9999,602641508
34,5,22,Ticks_Phase_8,120,9999,9999,9999,603441256
34,5,22,Ticks_Phase_8,121,9999,9999,9999,604241984
34,5,22,Ticks_Phase_8,122,9999,9999,9999,605041760
34,5,22,Ticks_Phase_8,123,9999,9999,9999,605841476
34,5,22,Ticks_Phase_8,124,9999,9999,9999,606641268
34,5,22,Ticks_Phase_8,125,9999,9999,9999,607442028
34,5,22,Ticks_Phase_8,126,9999,9999,9999,608241756
34,5,22,Ticks_Phase_8,127,9999,9999,9999,609041468
34,5,22,Ticks_Phase_8,128,9999,9999,9999,609841264
34,5,22,Ticks_Phase_8,129,9999,9999,9999,610642016
34,5,22,Ticks_Phase_8,130,9999,9999,9999,611441728
34,5,22,Ticks_Phase_8,131,9999,9999,9999,612401260
34,5,22,Ticks_Phase_8,132,9999,9999,9999,613202040
34,5,22,Ticks_Phase_8,133,9999,9999,9999,614001744
34,5,22,Ticks_Phase_8,134,9999,9999,9999,614801464
34,5,22,Ticks_Phase_8,135,9999,9999,9999,615601248
34,5,22,Ticks_Phase_8,136,9999,9999,9999,616402000
34,5,22,Ticks_Phase_8,137,9999,9999,9999,617201736
34,5,22,Ticks_Phase_8,138,9999,9999,9999,618001524
34,5,22,Ticks_Phase_8,139,9999,9999,9999,618801236
34,5,22,Ticks_Phase_8,140,9999,9999,9999,619602000
34,5,22,Ticks_Phase_8,141,9999,9999,9999,620401728
34,5,22,Ticks_Phase_8,142,9999,9999,9999,621201496
34,5,22,Ticks_Phase_8,143,9999,9999,9999,622001212
34,5,22,Ticks_Phase_8,144,9999,9999,9999,622802040
34,5,22,Ticks_Phase_8,145,9999,9999,9999,623601772
34,5,22,Ticks_Phase_8,146,9999,9999,9999,624401484
34,5,22,Ticks_Phase_8,147,9999,9999,9999,625201272
34,5,22,Ticks_Phase_8,148,9999,9999,9999,626002040
34,5,22,Ticks_Phase_8,149,9999,9999,9999,626801744
34,5,22,Ticks_Phase_8,150,9999,9999,9999,627441728
34,5,22,Ticks_Phase_8,151,9999,9999,9999,628241508
34,5,22,Ticks_Phase_8,152,9999,9999,9999,629041244
34,5,22,Ticks_Phase_8,153,9999,9999,9999,629841984
34,5,22,Ticks_Phase_8,154,9999,9999,9999,630641764
34,5,22,Ticks_Phase_8,155,9999,9999,9999,631441476
34,5,22,Ticks_Phase_8,156,9999,9999,9999,632241268
34,5,22,Ticks_Phase_8,157,9999,9999,9999,633042020
34,5,22,Ticks_Phase_8,158,9999,9999,9999,633841764
34,5,22,Ticks_Phase_8,159,9999,9999,9999,634641476
34,5,22,Ticks_Phase_8,160,9999,9999,9999,635441256
34,5,22,Ticks_Phase_8,161,9999,9999,9999,636242016
34,5,22,Ticks_Phase_8,162,9999,9999,9999,637041732
34,5,22,Ticks_Phase_8,163,9999,9999,9999,637841512
34,5,22,Ticks_Phase_8,164,9999,9999,9999,638641232
34,5,22,Ticks_Phase_8,165,9999,9999,9999,639441984
34,5,22,Ticks_Phase_8,166,9999,9999,9999,640241728
34,5,22,Ticks_Phase_8,167,9999,9999,9999,641041516
34,5,22,Ticks_Phase_8,168,9999,9999,9999,641841224
34,5,22,Ticks_Phase_8,169,9999,9999,9999,642641976
34,6,23,Ticks_Phase_5,0,5,42,127,656216508
34,6,23,Ticks_Phase_5,1,5,42,127,656726252
34,6,23,Ticks_Phase_5,2,5,42,127,657226108
34,6,23,Ticks_Phase_5,3,1,48,45,657242332
34,6,23,Ticks_Phase_5,4,5,42,127,657725944
34,6,23,Ticks_Phase_5,5,1,48,70,657751676
34,6,23,Ticks_Phase_5,6,5,42,127,658225488
34,6,23,Ticks_Phase_5,7,1,48,72,658268892
34,6,23,Ticks_Phase_5,8,5,42,127,658726144
34,6,23,Ticks_Phase_5,9,1,48,75,658744996
34,6,23,Ticks_Phase_5,10,1,48,74,659211936
34,6,23,Ticks_Phase_5,11,5,42,127,659225976
34,6,23,Ticks_Phase_5,12,5,42,127,659725968
34,6,23,Ticks_Phase_5,13,1,48,72,659727008
34,6,23,Ticks_Phase_5,14,5,42,127,660226408
34,6,23,Ticks_Phase_5,15,1,48,68,660239936
34,6,23,Ticks_Phase_5,16,1,48,71,660734464
34,6,23,Ticks_Phase_5,17,5,42,127,660736204
34,6,23,Ticks_Phase_5,18,5,42,127,661235968
34,6,23,Ticks_Phase_5,19,1,48,68,661246952
34,6,23,Ticks_Phase_5,20,5,42,127,661735732
34,6,23,Ticks_Phase_5,21,1,48,78,661747316
34,6,23,Ticks_Phase_5,22,5,42,127,662235696
34,6,23,Ticks_Phase_5,23,1,48,75,662244984
34,6,23,Ticks_Phase_5,24,5,42,127,662736204
34,6,23,Ticks_Phase_5,25,1,48,72,662741492
34,6,23,Ticks_Phase_5,26,1,48,74,663219904
34,6,23,Ticks_Phase_5,27,5,42,127,663235888
34,6,23,Ticks_Phase_5,28,5,42,127,663735580
34,6,23,Ticks_Phase_5,29,1,48,62,663750380
34,6,23,Ticks_Phase_5,30,5,42,127,664236688
34,6,23,Ticks_Phase_5,31,1,48,64,664246480
34,6,23,Ticks_Phase_5,32,5,42,127,664736080
34,6,23,Ticks_Phase_5,33,1,48,67,664737492
34,6,23,Ticks_Phase_5,34,1,48,54,665231684
34,6,23,Ticks_Phase_5,35,5,42,127,665235912
34,6,23,Ticks_Phase_5,36,1,48,63,665735152
34,6,23,Ticks_Phase_5,37,5,42,127,665736944
34,6,23,Ticks_Phase_5,38,5,42,127,666236192
34,6,23,Ticks_Phase_5,39,1,48,70,666237532
34,6,23,Ticks_Phase_5,40,1,48,70,666733908
34,6,23,Ticks_Phase_5,41,5,42,127,666736172
34,6,23,Ticks_Phase_5,42,5,42,127,667235644
34,6,23,Ticks_Phase_5,43,1,48,69,667246252
34,6,23,Ticks_Phase_5,44,1,48,54,667736604
34,6,23,Ticks_Phase_5,45,5,42,127,667738392
34,6,23,Ticks_Phase_5,46,1,48,65,668231456
34,6,23,Ticks_Phase_5,47,5,42,127,668246468
34,6,23,Ticks_Phase_5,48,1,48,70,668740432
34,6,23,Ticks_Phase_5,49,5,42,127,668746008
34,6,23,Ticks_Phase_5,50,1,48,74,669242516
34,6,23,Ticks_Phase_5,51,5,42,127,669245768
34,6,23,Ticks_Phase_5,52,1,48,62,669745012
34,6,23,Ticks_Phase_5,53,5,42,127,669746732
34,6,23,Ticks_Phase_5,54,5,42,127,670246644
34,6,23,Ticks_Phase_5,55,1,48,76,670248140
34,6,23,Ticks_Phase_5,56,1,48,58,670734172
34,6,23,Ticks_Phase_5,57,5,42,127,670745880
34,6,23,Ticks_Phase_5,58,5,42,127,671235392
34,6,23,Ticks_Phase_5,59,1,48,73,671240756
34,6,23,Ticks_Phase_5,60,1,48,75,671716552
34,6,23,Ticks_Phase_5,61,5,42,127,671736268
34,6,23,Ticks_Phase_5,62,1,48,58,672232480
34,6,23,Ticks_Phase_5,63,5,42,127,672236032
34,6,23,Ticks_Phase_5,64,1,48,73,672722036
34,6,23,Ticks_Phase_5,65,5,42,127,672735572
34,6,23,Ticks_Phase_5,66,5,42,127,673236212
34,6,23,Ticks_Phase_5,67,1,48,73,673249988
34,6,23,Ticks_Phase_5,68,5,42,127,673735976
34,6,23,Ticks_Phase_5,69,1,48,66,673749428
34,6,23,Ticks_Phase_5,70,1,48,66,674233376
34,6,23,Ticks_Phase_5,71,5,42,127,674235732
34,6,23,Ticks_Phase_5,72,5,42,127,674735352
34,6,23,Ticks_Phase_5,73,1,48,76,674747012
34,6,23,Ticks_Phase_5,74,1,48,66,675213668
34,6,23,Ticks_Phase_5,75,5,42,127,675236156
34,6,23,Ticks_Phase_5,76,1,48,57,675733732
34,6,23,Ticks_Phase_5,77,5,42,127,675735844
34,6,23,Ticks_Phase_5,78,1,48,65,676224944
34,6,23,Ticks_Phase_5,79,5,42,127,676235532
34,6,23,Ticks_Phase_5,80,1,48,82,676731516
34,6,23,Ticks_Phase_5,81,5,42,127,676736420
34,6,23,Ticks_Phase_5,82,5,42,127,677236260
34,6,23,Ticks_Phase_5,83,1,48,70,677243792
34,6,23,Ticks_Phase_5,84,1,48,71,677730220
34,6,23,Ticks_Phase_5,85,5,42,127,677735720
34,6,23,Ticks_Phase_5,86,1,48,72,678228416
34,6,23,Ticks_Phase_5,87,5,42,127,678235484
34,6,23,Ticks_Phase_5,88,5,42,127,678736224
34,6,23,Ticks_Phase_5,89,1,48,60,678741216
34,6,23,Ticks_Phase_5,90,5,42,127,679235912
34,6,23,Ticks_Phase_5,91,1,48,75,679259028
34,6,23,Ticks_Phase_5,92,5,42,127,679735676
34,6,23,Ticks_Phase_5,93,1,48,69,679745764
34,6,23,Ticks_Phase_5,94,1,48,68,680214964
34,6,23,Ticks_Phase_5,95,5,42,127,680245692
34,6,23,Ticks_Phase_5,96,1,48,71,680741376
34,6,23,Ticks_Phase_5,97,5,42,127,680746276
34,6,23,Ticks_Phase_5,98,1,48,66,681232900
34,6,23,Ticks_Phase_5,99,5,42,127,681246112
34,6,23,Ticks_Phase_5,100,1,48,61,681735220
34,6,23,Ticks_Phase_5,101,5,42,127,681745804
34,6,23,Ticks_Phase_5,102,5,42,127,682245424
34,6,23,Ticks_Phase_5,103,1,48,67,682248020
34,6,23,Ticks_Phase_5,104,1,48,68,682731364
34,6,23,Ticks_Phase_5,105,5,42,127,682746152
34,6,23,Ticks_Phase_5,106,5,42,127,683245920
34,6,23,Ticks_Phase_5,107,1,48,72,683259228
34,6,23,Ticks_Phase_5,108,5,42,127,683745832
34,6,23,Ticks_Phase_5,109,1,48,71,683750072
34,6,23,Ticks_Phase_5,110,1,48,71,684233320
34,6,23,Ticks_Phase_5,111,5,42,127,684246388
34,6,23,Ticks_Phase_5,112,1,48,62,684724856
34,6,23,Ticks_Phase_5,113,5,42,127,684746004
34,6,23,Ticks_Phase_5,114,5,42,127,685245848
34,6,23,Ticks_Phase_5,115,1,48,70,685265892
34,6,23,Ticks_Phase_5,116,1,48,70,685745084
34,6,23,Ticks_Phase_5,117,5,42,127,685746800
34,6,23,Ticks_Phase_5,118,5,42,127,686246344
34,6,23,Ticks_Phase_5,119,1,48,59,686291324
34,6,23,Ticks_Phase_5,120,1,48,67,686738356
34,6,23,Ticks_Phase_5,121,5,42,127,686745948
34,6,23,Ticks_Phase_5,122,1,48,71,687228088
34,6,23,Ticks_Phase_5,123,5,42,127,687245864
34,6,23,Ticks_Phase_5,124,5,42,127,687746680
34,6,23,Ticks_Phase_5,125,1,48,64,687750996
34,6,23,Ticks_Phase_5,126,1,48,67,688224696
34,6,23,Ticks_Phase_5,127,5,42,127,688275792
34,6,23,Ticks_Phase_5,128,1,48,58,688768264
34,6,23,Ticks_Phase_5,129,5,42,127,688775484
34,6,23,Ticks_Phase_5,130,1,48,66,689265408
34,6,23,Ticks_Phase_5,131,5,42,127,689276368
34,6,23,Ticks_Phase_5,132,1,48,67,689769812
34,6,23,Ticks_Phase_5,133,5,42,127,689775908
34,6,23,Ticks_Phase_5,134,1,48,70,690262236
34,6,23,Ticks_Phase_5,135,5,42,127,690275672
34,6,23,Ticks_Phase_5,136,5,42,127,690776564
34,6,23,Ticks_Phase_5,137,1,48,64,690780804
34,6,23,Ticks_Phase_5,138,1,48,67,691263400
34,6,23,Ticks_Phase_5,139,5,42,127,691286504
34,6,23,Ticks_Phase_5,140,5,42,127,691786200
34,6,23,Ticks_Phase_5,141,1,48,59,691795020
34,6,23,Ticks_Phase_5,142,1,48,61,692284984
34,6,23,Ticks_Phase_5,143,5,42,127,692286780
34,6,23,Ticks_Phase_5,144,5,42,127,692785576
34,6,23,Ticks_Phase_5,145,1,48,63,692808464
34,6,23,Ticks_Phase_5,146,5,42,127,693286460
34,6,23,Ticks_Phase_5,147,1,48,58,693304492
34,6,23,Ticks_Phase_5,148,5,42,127,693786000
34,6,23,Ticks_Phase_5,149,1,48,63,693796164
34,6,23,Ticks_Phase_5,150,1,48,65,694272392
34,6,23,Ticks_Phase_5,151,5,42,127,694285680
34,6,23,Ticks_Phase_5,152,1,48,55,694782412
34,6,23,Ticks_Phase_5,153,5,42,127,694786416
34,6,23,Ticks_Phase_5,154,1,48,69,695290860
34,6,23,Ticks_Phase_5,155,5,42,127,695296364
34,6,23,Ticks_Phase_5,156,1,48,56,695775284
34,6,23,Ticks_Phase_5,157,5,42,127,695796348
34,6,23,Ticks_Phase_5,158,5,42,127,696295748
34,6,23,Ticks_Phase_5,159,1,48,71,696310544
34,6,23,Ticks_Phase_5,160,5,42,127,696776164
34,6,23,Ticks_Phase_5,161,1,48,46,696789100
34,6,23,Ticks_Phase_5,162,1,48,70,697269824
34,6,23,Ticks_Phase_5,163,5,42,127,697275844
34,6,23,Ticks_Phase_5,164,5,42,127,697775540
34,6,23,Ticks_Phase_5,165,1,48,59,697778736
34,6,23,Ticks_Phase_5,166,5,42,127,698276124
34,6,23,Ticks_Phase_5,167,1,48,62,698285540
34,6,23,Ticks_Phase_5,168,1,48,60,698766496
34,6,23,Ticks_Phase_5,169,5,42,127,698776176
34,6,23,Ticks_Phase_5,170,5,42,127,699275500
34,6,23,Ticks_Phase_5,171,1,48,63,699300856
34,6,23,Ticks_Phase_5,172,1,48,60,699775104
34,6,23,Ticks_Phase_5,173,5,42,127,699777056
34,6,23,Ticks_Phase_5,174,5,42,127,700276296
34,6,23,Ticks_Phase_5,175,1,48,64,700293280
34,6,23,Ticks_Phase_5,176,1,48,59,700761124
34,6,23,Ticks_Phase_5,177,5,42,127,700775980
34,6,23,Ticks_Phase_5,178,1,48,64,701256244
34,6,23,Ticks_Phase_5,179,5,42,127,701275368
34,6,23,Ticks_Phase_5,180,1,48,53,701765516
34,6,23,Ticks_Phase_5,181,5,42,127,701776180
34,6,23,Ticks_Phase_5,182,1,48,59,702265952
34,6,23,Ticks_Phase_5,183,5,42,127,702275940
34,6,23,Ticks_Phase_5,184,1,48,54,702729092
34,6,23,Ticks_Phase_5,185,5,42,127,702775776
34,6,23,Ticks_Phase_5,186,1,48,62,703259184
34,6,23,Ticks_Phase_5,187,5,42,127,703276292
34,6,23,Ticks_Phase_5,188,1,48,62,703754908
34,6,23,Ticks_Phase_5,189,5,42,127,703776052
34,6,23,Ticks_Phase_5,190,1,48,60,704259756
34,6,23,Ticks_Phase_5,191,5,42,127,704275816
34,6,23,Ticks_Phase_5,192,5,42,127,704726364
34,6,23,Ticks_Phase_5,193,1,48,67,704760728
34,6,23,Ticks_Phase_5,194,5,42,127,705226048
34,6,23,Ticks_Phase_5,195,1,48,67,705262436
34,6,23,Ticks_Phase_5,196,5,42,127,705725960
34,6,23,Ticks_Phase_5,197,1,48,58,705734328
34,6,23,Ticks_Phase_5,198,5,42,127,706225648
34,6,23,Ticks_Phase_5,199,1,48,62,706241572
34,6,23,Ticks_Phase_5,200,5,42,127,706726384
34,6,23,Ticks_Phase_5,201,1,48,55,706743272
34,6,23,Ticks_Phase_5,202,5,42,127,707226072
34,6,23,Ticks_Phase_5,203,1,48,67,707233452
34,6,23,Ticks_Phase_5,204,1,48,69,707697416
34,6,23,Ticks_Phase_5,205,5,42,127,707725676
34,6,23,Ticks_Phase_5,206,1,48,63,708211180
34,6,23,Ticks_Phase_5,207,5,42,127,708226564
34,6,23,Ticks_Phase_5,208,5,42,127,708736296
34,6,23,Ticks_Phase_5,209,1,48,52,708746308
34,6,23,Ticks_Phase_5,210,1,48,65,709233860
34,6,23,Ticks_Phase_5,211,5,42,127,709235972
34,6,23,Ticks_Phase_5,212,1,48,66,709716464
34,6,23,Ticks_Phase_5,213,5,42,127,709735884
34,6,23,Ticks_Phase_5,214,1,48,62,710221756
34,6,23,Ticks_Phase_5,215,5,42,127,710235648
34,6,23,Ticks_Phase_5,216,1,48,65,710730812
34,6,23,Ticks_Phase_5,217,5,42,127,710736160
34,6,23,Ticks_Phase_5,218,1,48,67,711232292
34,6,23,Ticks_Phase_5,219,5,42,127,711236144
34,6,23,Ticks_Phase_5,220,1,48,68,711730488
34,6,23,Ticks_Phase_5,221,5,42,127,711735684
34,6,23,Ticks_Phase_5,222,5,42,127,712236504
34,6,23,Ticks_Phase_5,223,1,48,64,712243972
34,6,23,Ticks_Phase_5,224,1,48,64,712727624
34,6,23,Ticks_Phase_5,225,5,42,127,712736184
34,6,23,Ticks_Phase_5,226,1,48,56,713237944
34,6,23,Ticks_Phase_5,227,5,42,127,713286048
34,6,23,Ticks_Phase_5,228,1,48,59,713779716
34,6,23,Ticks_Phase_5,229,5,42,127,713785588
34,6,23,Ticks_Phase_5,230,1,48,63,714266976
34,6,23,Ticks_Phase_5,231,5,42,127,714285352
34,6,23,Ticks_Phase_5,232,1,48,69,714783500
34,6,23,Ticks_Phase_5,233,5,42,127,714786232
34,6,23,Ticks_Phase_5,234,5,42,127,715285856
34,6,23,Ticks_Phase_5,235,1,48,65,715287268
34,6,23,Ticks_Phase_5,236,5,42,127,715785544
34,6,23,Ticks_Phase_5,237,1,48,76,715792104
34,6,23,Ticks_Phase_5,238,5,42,127,716286356
34,6,23,Ticks_Phase_5,239,1,48,76,716287916
34,6,23,Ticks_Phase_5,240,1,48,65,716780388
34,6,23,Ticks_Phase_5,241,5,42,127,716785888
34,6,23,Ticks_Phase_5,242,5,42,127,717285732
34,6,23,Ticks_Phase_5,243,1,48,73,717296796
34,6,23,Ticks_Phase_5,244,5,42,127,717785468
34,6,23,Ticks_Phase_5,245,1,48,70,717787212
34,6,23,Ticks_Phase_5,246,1,48,67,718274116
34,6,23,Ticks_Phase_5,247,5,42,127,718286196
34,6,23,Ticks_Phase_5,248,5,42,127,718786040
34,6,23,Ticks_Phase_5,249,1,48,64,718799196
34,6,23,Ticks_Phase_5,250,5,42,127,719285584
34,6,23,Ticks_Phase_5,251,1,48,66,719297016
34,6,23,Ticks_Phase_5,252,1,48,66,719784952
34,6,23,Ticks_Phase_5,253,5,42,127,719786532
34,6,23,Ticks_Phase_5,254,5,42,127,720286228
34,6,23,Ticks_Phase_5,255,1,48,57,720289720
34,6,23,Ticks_Phase_5,256,1,48,72,720784488
34,6,23,Ticks_Phase_5,257,5,42,127,720786280
34,6,23,Ticks_Phase_5,258,5,42,127,721285456
34,6,23,Ticks_Phase_5,259,1,48,70,721304908
34,6,23,Ticks_Phase_5,260,1,48,73,721786680
34,6,23,Ticks_Phase_5,261,5,42,127,721885500
34,6,23,Ticks_Phase_5,262,1,48,50,722349048
34,6,23,Ticks_Phase_5,263,5,42,127,722386224
34,6,23,Ticks_Phase_5,264,5,42,127,722885992
34,6,23,Ticks_Phase_5,265,1,48,67,722900048
34,6,23,Ticks_Phase_5,266,5,42,127,723385680
34,6,23,Ticks_Phase_5,267,1,48,68,723405648
34,6,23,Ticks_Phase_5,268,5,42,127,723885292
34,6,23,Ticks_Phase_5,269,1,48,60,723904596
34,6,23,Ticks_Phase_5,270,1,48,67,724379176
34,6,23,Ticks_Phase_5,271,5,42,127,724386168
34,6,23,Ticks_Phase_5,272,1,48,64,724873924
34,6,23,Ticks_Phase_5,273,5,42,127,724886080
34,6,23,Ticks_Phase_5,274,1,48,66,725373004
34,6,23,Ticks_Phase_5,275,5,42,127,725385696
34,6,23,Ticks_Phase_5,276,5,42,127,725886288
34,6,23,Ticks_Phase_5,277,1,48,61,725888080
34,6,23,Ticks_Phase_5,278,1,48,71,726378228
34,6,23,Ticks_Phase_5,279,5,42,127,726386044
34,6,23,Ticks_Phase_5,280,1,48,69,726881808
34,6,23,Ticks_Phase_5,281,5,42,127,726886032
34,6,23,Ticks_Phase_5,282,5,42,127,727385428
34,6,23,Ticks_Phase_5,283,1,48,64,727391616
34,6,23,Ticks_Phase_5,284,5,42,127,727886312
34,6,23,Ticks_Phase_5,285,1,48,67,727903744
34,6,23,Ticks_Phase_5,286,5,42,127,728385780
34,6,23,Ticks_Phase_5,287,1,48,67,728397364
34,6,23,Ticks_Phase_5,288,1,48,68,728885544
34,6,23,Ticks_Phase_5,289,5,42,127,728887104
34,6,23,Ticks_Phase_5,290,1,48,71,729380100
34,6,23,Ticks_Phase_5,291,5,42,127,729386496
34,6,23,Ticks_Phase_5,292,1,48,66,729859792
34,6,23,Ticks_Phase_5,293,5,42,127,729886032
34,6,23,Ticks_Phase_5,294,1,48,64,730355440
34,6,23,Ticks_Phase_5,295,5,42,127,730385796
34,6,23,Ticks_Phase_5,296,1,48,73,730858648
34,6,23,Ticks_Phase_5,297,5,42,127,730885636
34,6,23,Ticks_Phase_5,298,5,42,127,731286004
34,6,23,Ticks_Phase_5,299,1,48,65,731338404
34,6,23,Ticks_Phase_5,300,5,42,127,731785544
34,6,23,Ticks_Phase_5,301,1,48,72,731811276
34,6,23,Ticks_Phase_5,302,1,48,71,732275764
34,6,23,Ticks_Phase_5,303,5,42,127,732286348
34,6,23,Ticks_Phase_5,304,5,42,127,732785968
34,6,23,Ticks_Phase_5,305,1,48,65,732792600
34,6,23,Ticks_Phase_5,306,5,42,127,733285732
34,6,23,Ticks_Phase_5,307,1,48,65,733294544
34,6,23,Ticks_Phase_5,308,1,48,57,733774304
34,6,23,Ticks_Phase_5,309,5,42,127,733785708
34,6,23,Ticks_Phase_5,310,1,48,60,734245084
34,6,23,Ticks_Phase_5,311,5,42,127,734286220
34,6,23,Ticks_Phase_5,312,1,48,62,734781008
34,6,23,Ticks_Phase_5,313,5,42,127,734785836
34,6,23,Ticks_Phase_5,314,1,48,79,735280472
34,6,23,Ticks_Phase_5,315,5,42,127,735285672
34,6,23,Ticks_Phase_5,316,1,48,73,735779712
34,6,23,Ticks_Phase_5,317,5,42,127,735786332
34,6,23,Ticks_Phase_5,318,1,48,69,736284284
34,6,23,Ticks_Phase_5,319,5,42,127,736286096
34,6,23,Ticks_Phase_5,320,5,42,127,736785716
34,6,23,Ticks_Phase_5,321,1,48,69,736799468
34,6,23,Ticks_Phase_5,322,5,42,127,737285404
34,6,23,Ticks_Phase_5,323,1,48,72,737302148
34,6,23,Ticks_Phase_5,324,1,48,72,737754880
34,6,23,Ticks_Phase_5,325,5,42,127,737786580
34,6,23,Ticks_Phase_5,326,1,48,67,738249972
34,6,23,Ticks_Phase_5,327,5,42,127,738285972
34,6,23,Ticks_Phase_5,328,1,48,62,738783620
34,6,23,Ticks_Phase_5,329,5,42,127,738785584
34,6,23,Ticks_Phase_5,330,5,42,127,739286452
34,6,23,Ticks_Phase_5,331,1,48,61,739296344
34,6,23,Ticks_Phase_5,332,1,48,55,739767312
34,6,23,Ticks_Phase_5,333,5,42,127,739786208
34,6,23,Ticks_Phase_5,334,1,48,64,740280624
34,6,23,Ticks_Phase_5,335,5,42,127,740285820
34,6,23,Ticks_Phase_5,336,1,48,61,740770648
34,6,23,Ticks_Phase_5,337,5,42,127,740785584
34,6,23,Ticks_Phase_5,0,9999,9999,9999,656214144
34,6,23,Ticks_Phase_5,1,9999,9999,9999,656724040
34,6,23,Ticks_Phase_5,2,9999,9999,9999,657223748
34,6,23,Ticks_Phase_5,3,9999,9999,9999,657723508
34,6,23,Ticks_Phase_5,4,9999,9999,9999,658223200
34,6,23,Ticks_Phase_5,5,9999,9999,9999,658723932
34,6,23,Ticks_Phase_5,6,9999,9999,9999,659223616
34,6,23,Ticks_Phase_5,7,9999,9999,9999,659723384
34,6,23,Ticks_Phase_5,8,9999,9999,9999,660224120
34,6,23,Ticks_Phase_5,9,9999,9999,9999,660734012
34,6,23,Ticks_Phase_5,10,9999,9999,9999,661233756
34,6,23,Ticks_Phase_5,11,9999,9999,9999,661733448
34,6,23,Ticks_Phase_5,12,9999,9999,9999,662233184
34,6,23,Ticks_Phase_5,13,9999,9999,9999,662733916
34,6,23,Ticks_Phase_5,14,9999,9999,9999,663233600
34,6,23,Ticks_Phase_5,15,9999,9999,9999,663733368
34,6,23,Ticks_Phase_5,16,9999,9999,9999,664234104
34,6,23,Ticks_Phase_5,17,9999,9999,9999,664733792
34,6,23,Ticks_Phase_5,18,9999,9999,9999,665233476
34,6,23,Ticks_Phase_5,19,9999,9999,9999,665733244
34,6,23,Ticks_Phase_5,20,9999,9999,9999,666233980
34,6,23,Ticks_Phase_5,21,9999,9999,9999,666733624
34,6,23,Ticks_Phase_5,22,9999,9999,9999,667233356
34,6,23,Ticks_Phase_5,23,9999,9999,9999,667734092
34,6,23,Ticks_Phase_5,24,9999,9999,9999,668244032
34,6,23,Ticks_Phase_5,25,9999,9999,9999,668743796
34,6,23,Ticks_Phase_5,26,9999,9999,9999,669243484
34,6,23,Ticks_Phase_5,27,9999,9999,9999,669743180
34,6,23,Ticks_Phase_5,28,9999,9999,9999,670243912
34,6,23,Ticks_Phase_5,29,9999,9999,9999,670743668
34,6,23,Ticks_Phase_5,30,9999,9999,9999,671233104
34,6,23,Ticks_Phase_5,31,9999,9999,9999,671733832
34,6,23,Ticks_Phase_5,32,9999,9999,9999,672233596
34,6,23,Ticks_Phase_5,33,9999,9999,9999,672733260
34,6,23,Ticks_Phase_5,34,9999,9999,9999,673234000
34,6,23,Ticks_Phase_5,35,9999,9999,9999,673733688
34,6,23,Ticks_Phase_5,36,9999,9999,9999,674233448
34,6,23,Ticks_Phase_5,37,9999,9999,9999,674733140
34,6,23,Ticks_Phase_5,38,9999,9999,9999,675233872
34,6,23,Ticks_Phase_5,39,9999,9999,9999,675733596
34,6,23,Ticks_Phase_5,40,9999,9999,9999,676233320
34,6,23,Ticks_Phase_5,41,9999,9999,9999,676734056
34,6,23,Ticks_Phase_5,42,9999,9999,9999,677233752
34,6,23,Ticks_Phase_5,43,9999,9999,9999,677733436
34,6,23,Ticks_Phase_5,44,9999,9999,9999,678233196
34,6,23,Ticks_Phase_5,45,9999,9999,9999,678733936
34,6,23,Ticks_Phase_5,46,9999,9999,9999,679233628
34,6,23,Ticks_Phase_5,47,9999,9999,9999,679733316
34,6,23,Ticks_Phase_5,48,9999,9999,9999,680243256
34,6,23,Ticks_Phase_5,49,9999,9999,9999,680743992
34,6,23,Ticks_Phase_5,50,9999,9999,9999,681243752
34,6,23,Ticks_Phase_5,51,9999,9999,9999,681743440
34,6,23,Ticks_Phase_5,52,9999,9999,9999,682243136
34,6,23,Ticks_Phase_5,53,9999,9999,9999,682743864
34,6,23,Ticks_Phase_5,54,9999,9999,9999,683243636
34,6,23,Ticks_Phase_5,55,9999,9999,9999,683743320
34,6,23,Ticks_Phase_5,56,9999,9999,9999,684244024
34,6,23,Ticks_Phase_5,57,9999,9999,9999,684743788
34,6,23,Ticks_Phase_5,58,9999,9999,9999,685243484
34,6,23,Ticks_Phase_5,59,9999,9999,9999,685743172
34,6,23,Ticks_Phase_5,60,9999,9999,9999,686243908
34,6,23,Ticks_Phase_5,61,9999,9999,9999,686743664
34,6,23,Ticks_Phase_5,62,9999,9999,9999,687243352
34,6,23,Ticks_Phase_5,63,9999,9999,9999,687744092
34,6,23,Ticks_Phase_5,64,9999,9999,9999,688273504
34,6,23,Ticks_Phase_5,65,9999,9999,9999,688773196
34,6,23,Ticks_Phase_5,66,9999,9999,9999,689273932
34,6,23,Ticks_Phase_5,67,9999,9999,9999,689773624
34,6,23,Ticks_Phase_5,68,9999,9999,9999,690273384
34,6,23,Ticks_Phase_5,69,9999,9999,9999,690774124
34,6,23,Ticks_Phase_5,70,9999,9999,9999,691284068
34,6,23,Ticks_Phase_5,71,9999,9999,9999,691783760
34,6,23,Ticks_Phase_5,72,9999,9999,9999,692283452
34,6,23,Ticks_Phase_5,73,9999,9999,9999,692783216
34,6,23,Ticks_Phase_5,74,9999,9999,9999,693283948
34,6,23,Ticks_Phase_5,75,9999,9999,9999,693783640
34,6,23,Ticks_Phase_5,76,9999,9999,9999,694283320
34,6,23,Ticks_Phase_5,77,9999,9999,9999,694784052
34,6,23,Ticks_Phase_5,78,9999,9999,9999,695294076
34,6,23,Ticks_Phase_5,79,9999,9999,9999,695793764
34,6,23,Ticks_Phase_5,80,9999,9999,9999,696293460
34,6,23,Ticks_Phase_5,81,9999,9999,9999,696773728
34,6,23,Ticks_Phase_5,82,9999,9999,9999,697273408
34,6,23,Ticks_Phase_5,83,9999,9999,9999,697773180
34,6,23,Ticks_Phase_5,84,9999,9999,9999,698273912
34,6,23,Ticks_Phase_5,85,9999,9999,9999,698773592
34,6,23,Ticks_Phase_5,86,9999,9999,9999,699273288
34,6,23,Ticks_Phase_5,87,9999,9999,9999,699774024
34,6,23,Ticks_Phase_5,88,9999,9999,9999,700273788
34,6,23,Ticks_Phase_5,89,9999,9999,9999,700773468
34,6,23,Ticks_Phase_5,90,9999,9999,9999,701273156
34,6,23,Ticks_Phase_5,91,9999,9999,9999,701773892
34,6,23,Ticks_Phase_5,92,9999,9999,9999,702273656
34,6,23,Ticks_Phase_5,93,9999,9999,9999,702773340
34,6,23,Ticks_Phase_5,94,9999,9999,9999,703274076
34,6,23,Ticks_Phase_5,95,9999,9999,9999,703773768
34,6,23,Ticks_Phase_5,96,9999,9999,9999,704273528
34,6,23,Ticks_Phase_5,97,9999,9999,9999,704724072
34,6,23,Ticks_Phase_5,98,9999,9999,9999,705223760
34,6,23,Ticks_Phase_5,99,9999,9999,9999,705723448
34,6,23,Ticks_Phase_5,100,9999,9999,9999,706223212
34,6,23,Ticks_Phase_5,101,9999,9999,9999,706723948
34,6,23,Ticks_Phase_5,102,9999,9999,9999,707223636
34,6,23,Ticks_Phase_5,103,9999,9999,9999,707723392
34,6,23,Ticks_Phase_5,104,9999,9999,9999,708224128
34,6,23,Ticks_Phase_5,105,9999,9999,9999,708734004
34,6,23,Ticks_Phase_5,106,9999,9999,9999,709233732
34,6,23,Ticks_Phase_5,107,9999,9999,9999,709733448
34,6,23,Ticks_Phase_5,108,9999,9999,9999,710233212
34,6,23,Ticks_Phase_5,109,9999,9999,9999,710733948
34,6,23,Ticks_Phase_5,110,9999,9999,9999,711233636
34,6,23,Ticks_Phase_5,111,9999,9999,9999,711733324
34,6,23,Ticks_Phase_5,112,9999,9999,9999,712234068
34,6,23,Ticks_Phase_5,113,9999,9999,9999,712733824
34,6,23,Ticks_Phase_5,114,9999,9999,9999,713283684
34,6,23,Ticks_Phase_5,115,9999,9999,9999,713783376
34,6,23,Ticks_Phase_5,116,9999,9999,9999,714283064
34,6,23,Ticks_Phase_5,117,9999,9999,9999,714783796
34,6,23,Ticks_Phase_5,118,9999,9999,9999,715283568
34,6,23,Ticks_Phase_5,119,9999,9999,9999,715783256
34,6,23,Ticks_Phase_5,120,9999,9999,9999,716283992
34,6,23,Ticks_Phase_5,121,9999,9999,9999,716783676
34,6,23,Ticks_Phase_5,122,9999,9999,9999,717283444
34,6,23,Ticks_Phase_5,123,9999,9999,9999,717783108
34,6,23,Ticks_Phase_5,124,9999,9999,9999,718283836
34,6,23,Ticks_Phase_5,125,9999,9999,9999,718783604
34,6,23,Ticks_Phase_5,126,9999,9999,9999,719283296
34,6,23,Ticks_Phase_5,127,9999,9999,9999,719784028
34,6,23,Ticks_Phase_5,128,9999,9999,9999,720283720
34,6,23,Ticks_Phase_5,129,9999,9999,9999,720783480
34,6,23,Ticks_Phase_5,130,9999,9999,9999,721283168
34,6,23,Ticks_Phase_5,131,9999,9999,9999,721883212
34,6,23,Ticks_Phase_5,132,9999,9999,9999,722383936
34,6,23,Ticks_Phase_5,133,9999,9999,9999,722883704
34,6,23,Ticks_Phase_5,134,9999,9999,9999,723383392
34,6,23,Ticks_Phase_5,135,9999,9999,9999,723883080
34,6,23,Ticks_Phase_5,136,9999,9999,9999,724383808
34,6,23,Ticks_Phase_5,137,9999,9999,9999,724883572
34,6,23,Ticks_Phase_5,138,9999,9999,9999,725383260
34,6,23,Ticks_Phase_5,139,9999,9999,9999,725884000
34,6,23,Ticks_Phase_5,140,9999,9999,9999,726383684
34,6,23,Ticks_Phase_5,141,9999,9999,9999,726883448
34,6,23,Ticks_Phase_5,142,9999,9999,9999,727383144
34,6,23,Ticks_Phase_5,143,9999,9999,9999,727883876
34,6,23,Ticks_Phase_5,144,9999,9999,9999,728383564
34,6,23,Ticks_Phase_5,145,9999,9999,9999,728883256
34,6,23,Ticks_Phase_5,146,9999,9999,9999,729384060
34,6,23,Ticks_Phase_5,147,9999,9999,9999,729883748
34,6,23,Ticks_Phase_5,148,9999,9999,9999,730383436
34,6,23,Ticks_Phase_5,149,9999,9999,9999,730883200
34,6,23,Ticks_Phase_5,150,9999,9999,9999,731283568
34,6,23,Ticks_Phase_5,151,9999,9999,9999,731783260
34,6,23,Ticks_Phase_5,152,9999,9999,9999,732283984
34,6,23,Ticks_Phase_5,153,9999,9999,9999,732783680
34,6,23,Ticks_Phase_5,154,9999,9999,9999,733283444
34,6,23,Ticks_Phase_5,155,9999,9999,9999,733783124
34,6,23,Ticks_Phase_5,156,9999,9999,9999,734283860
34,6,23,Ticks_Phase_5,157,9999,9999,9999,734783548
34,6,23,Ticks_Phase_5,158,9999,9999,9999,735283312
34,6,23,Ticks_Phase_5,159,9999,9999,9999,735784048
34,6,23,Ticks_Phase_5,160,9999,9999,9999,736283760
34,6,23,Ticks_Phase_5,161,9999,9999,9999,736783428
34,6,23,Ticks_Phase_5,162,9999,9999,9999,737283192
34,6,23,Ticks_Phase_5,163,9999,9999,9999,737783924
34,6,23,Ticks_Phase_5,164,9999,9999,9999,738283612
34,6,23,Ticks_Phase_5,165,9999,9999,9999,738783328
34,6,23,Ticks_Phase_5,166,9999,9999,9999,739284088
34,6,23,Ticks_Phase_5,167,9999,9999,9999,739783772
34,6,23,Ticks_Phase_5,168,9999,9999,9999,740283460
34,6,23,Ticks_Phase_5,169,9999,9999,9999,740783224
34,7,20,Ticks_Linear_8,0,5,42,127,754107708
34,7,20,Ticks_Linear_8,1,5,42,127,754928144
34,7,20,Ticks_Linear_8,2,1,48,65,755743040
34,7,20,Ticks_Linear_8,3,5,42,127,755748400
34,7,20,Ticks_Linear_8,4,5,42,127,756568576
34,7,20,Ticks_Linear_8,5,1,48,72,756580012
34,7,20,Ticks_Linear_8,6,1,48,70,757381360
34,7,20,Ticks_Linear_8,7,5,42,127,757397804
34,7,20,Ticks_Linear_8,8,5,42,127,758207868
34,7,20,Ticks_Linear_8,9,1,48,60,758239248
34,7,20,Ticks_Linear_8,10,5,42,127,759017800
34,7,20,Ticks_Linear_8,11,1,48,68,759024356
34,7,20,Ticks_Linear_8,12,1,48,71,759810212
34,7,20,Ticks_Linear_8,13,5,42,127,759827704
34,7,20,Ticks_Linear_8,14,1,48,73,760630304
34,7,20,Ticks_Linear_8,15,5,42,127,760637908
34,7,20,Ticks_Linear_8,16,1,48,59,761419920
34,7,20,Ticks_Linear_8,17,5,42,127,761447668
34,7,20,Ticks_Linear_8,18,1,48,61,762236268
34,7,20,Ticks_Linear_8,19,5,42,127,762247468
34,7,20,Ticks_Linear_8,20,5,42,127,763048320
34,7,20,Ticks_Linear_8,21,1,48,65,763085800
34,7,20,Ticks_Linear_8,22,5,42,127,763848188
34,7,20,Ticks_Linear_8,23,1,48,66,763868860
34,7,20,Ticks_Linear_8,24,1,48,63,764601132
34,7,20,Ticks_Linear_8,25,5,42,127,764647932
34,7,20,Ticks_Linear_8,26,5,42,127,765447516
34,7,20,Ticks_Linear_8,27,1,48,66,765468608
34,7,20,Ticks_Linear_8,28,1,48,70,766226296
34,7,20,Ticks_Linear_8,29,5,42,127,766238020
34,7,20,Ticks_Linear_8,30,5,42,127,767027788
34,7,20,Ticks_Linear_8,31,1,48,76,767044760
34,7,20,Ticks_Linear_8,32,5,42,127,767818080
34,7,20,Ticks_Linear_8,33,1,48,59,767828760
34,7,20,Ticks_Linear_8,34,1,48,57,768578436
34,7,20,Ticks_Linear_8,35,5,42,127,768607612
34,7,20,Ticks_Linear_8,36,1,48,55,769386396
34,7,20,Ticks_Linear_8,37,5,42,127,769398124
34,7,20,Ticks_Linear_8,38,1,48,60,770176940
34,7,20,Ticks_Linear_8,39,5,42,127,770178672
34,7,20,Ticks_Linear_8,40,1,48,48,770965872
34,7,20,Ticks_Linear_8,41,5,42,127,770967840
34,7,20,Ticks_Linear_8,42,5,42,127,771748172
34,7,20,Ticks_Linear_8,43,1,48,58,771765900
34,7,20,Ticks_Linear_8,44,5,42,127,772527528
34,7,20,Ticks_Linear_8,45,1,48,64,772536344
34,7,20,Ticks_Linear_8,46,1,48,63,773303904
34,7,20,Ticks_Linear_8,47,5,42,127,773307624
34,7,20,Ticks_Linear_8,48,1,48,52,774050764
34,7,20,Ticks_Linear_8,49,5,42,127,774077768
34,7,20,Ticks_Linear_8,50,5,42,127,774847768
34,7,20,Ticks_Linear_8,51,1,48,61,774857704
34,7,20,Ticks_Linear_8,52,5,42,127,775617912
34,7,20,Ticks_Linear_8,53,1,48,66,775626276
34,7,20,Ticks_Linear_8,54,1,48,66,776353548
34,7,20,Ticks_Linear_8,55,5,42,127,776388044
34,7,20,Ticks_Linear_8,56,1,48,63,777149464
34,7,20,Ticks_Linear_8,57,5,42,127,777158040
34,7,20,Ticks_Linear_8,58,5,42,127,777917708
34,7,20,Ticks_Linear_8,59,1,48,68,777919044
34,7,20,Ticks_Linear_8,60,5,42,127,778677740
34,7,20,Ticks_Linear_8,61,1,48,57,778687604
34,7,20,Ticks_Linear_8,62,1,48,58,779419900
34,7,20,Ticks_Linear_8,63,5,42,127,779437540
34,7,20,Ticks_Linear_8,64,1,48,54,780170944
34,7,20,Ticks_Linear_8,65,5,42,127,780198544
34,7,20,Ticks_Linear_8,66,1,48,52,780912552
34,7,20,Ticks_Linear_8,67,5,42,127,780958060
34,7,20,Ticks_Linear_8,68,5,42,127,781707616
34,7,20,Ticks_Linear_8,69,1,48,57,781734168
34,7,20,Ticks_Linear_8,70,5,42,127,782458360
34,7,20,Ticks_Linear_8,71,1,48,51,782473832
34,7,20,Ticks_Linear_8,72,5,42,127,783207760
34,7,20,Ticks_Linear_8,73,1,48,48,783209248
34,7,20,Ticks_Linear_8,74,1,48,57,783951640
34,7,20,Ticks_Linear_8,75,5,42,127,783958280
34,7,20,Ticks_Linear_8,76,5,42,127,784708056
34,7,20,Ticks_Linear_8,77,1,48,48,784717472
34,7,20,Ticks_Linear_8,78,1,48,61,785420936
34,7,20,Ticks_Linear_8,79,5,42,127,785448388
34,7,20,Ticks_Linear_8,80,5,42,127,786187688
34,7,20,Ticks_Linear_8,81,1,48,57,786209080
34,7,20,Ticks_Linear_8,82,5,42,127,786927948
34,7,20,Ticks_Linear_8,83,1,48,56,786929884
34,7,20,Ticks_Linear_8,84,1,48,62,787660876
34,7,20,Ticks_Linear_8,85,5,42,127,787668476
34,7,20,Ticks_Linear_8,86,5,42,127,788407676
34,7,20,Ticks_Linear_8,87,1,48,54,788408640
34,7,20,Ticks_Linear_8,88,5,42,127,789137904
34,7,20,Ticks_Linear_8,89,1,48,71,789161096
34,7,20,Ticks_Linear_8,90,1,48,59,789855804
34,7,20,Ticks_Linear_8,91,5,42,127,789868048
34,7,20,Ticks_Linear_8,92,5,42,127,790598060
34,7,20,Ticks_Linear_8,93,1,48,54,790612264
34,7,20,Ticks_Linear_8,94,5,42,127,791328140
34,7,20,Ticks_Linear_8,95,1,48,66,791337628
34,7,20,Ticks_Linear_8,96,1,48,72,792024240
34,7,20,Ticks_Linear_8,97,5,42,127,792058140
34,7,20,Ticks_Linear_8,98,1,48,70,792774140
34,7,20,Ticks_Linear_8,99,5,42,127,792778080
34,7,20,Ticks_Linear_8,100,1,48,64,793493956
34,7,20,Ticks_Linear_8,101,5,42,127,793498124
34,7,20,Ticks_Linear_8,102,1,48,65,794213324
34,7,20,Ticks_Linear_8,103,5,42,127,794217792
34,7,20,Ticks_Linear_8,104,1,48,58,794918252
34,7,20,Ticks_Linear_8,105,5,42,127,794937836
34,7,20,Ticks_Linear_8,106,5,42,127,795657512
34,7,20,Ticks_Linear_8,107,1,48,62,795681824
34,7,20,Ticks_Linear_8,108,5,42,127,796368244
34,7,20,Ticks_Linear_8,109,1,48,58,796371732
34,7,20,Ticks_Linear_8,110,1,48,60,797043052
34,7,20,Ticks_Linear_8,111,5,42,127,797077848
34,7,20,Ticks_Linear_8,112,1,48,51,797774252
34,7,20,Ticks_Linear_8,113,5,42,127,797787856
34,7,20,Ticks_Linear_8,114,1,48,52,798497952
34,7,20,Ticks_Linear_8,115,5,42,127,798499584
34,7,20,Ticks_Linear_8,116,5,42,127,799207956
34,7,20,Ticks_Linear_8,117,1,48,57,799208924
34,7,20,Ticks_Linear_8,118,1,48,65,799892052
34,7,20,Ticks_Linear_8,119,5,42,127,799908348
34,7,20,Ticks_Linear_8,120,5,42,127,800607656
34,7,20,Ticks_Linear_8,121,1,48,54,800623424
34,7,20,Ticks_Linear_8,122,1,48,51,801306488
34,7,20,Ticks_Linear_8,123,5,42,127,801308148
34,7,20,Ticks_Linear_8,124,1,48,51,802004628
34,7,20,Ticks_Linear_8,125,5,42,127,802008720
34,7,20,Ticks_Linear_8,126,5,42,127,802718040
34,7,20,Ticks_Linear_8,127,1,48,55,802726848
34,7,20,Ticks_Linear_8,128,5,42,127,803408200
34,7,20,Ticks_Linear_8,129,1,48,49,803409092
34,7,20,Ticks_Linear_8,130,1,48,58,804084676
34,7,20,Ticks_Linear_8,131,5,42,127,804098360
34,7,20,Ticks_Linear_8,132,5,42,127,804797864
34,7,20,Ticks_Linear_8,133,1,48,57,804827000
34,7,20,Ticks_Linear_8,134,5,42,127,805488176
34,7,20,Ticks_Linear_8,135,1,48,62,805492796
34,7,20,Ticks_Linear_8,136,1,48,59,806168112
34,7,20,Ticks_Linear_8,137,5,42,127,806178036
34,7,20,Ticks_Linear_8,138,5,42,127,806858144
34,7,20,Ticks_Linear_8,139,1,48,56,806863956
34,7,20,Ticks_Linear_8,140,1,48,51,807534172
34,7,20,Ticks_Linear_8,141,5,42,127,807538192
34,7,20,Ticks_Linear_8,142,1,48,61,808206072
34,7,20,Ticks_Linear_8,143,5,42,127,808217948
34,7,20,Ticks_Linear_8,144,1,48,55,808885508
34,7,20,Ticks_Linear_8,145,5,42,127,808898124
34,7,20,Ticks_Linear_8,146,1,48,66,809567804
34,7,20,Ticks_Linear_8,147,5,42,127,809578028
34,7,20,Ticks_Linear_8,148,1,48,61,810230556
34,7,20,Ticks_Linear_8,149,5,42,127,810247452
34,7,20,Ticks_Linear_8,150,5,42,127,810918124
34,7,20,Ticks_Linear_8,151,1,48,55,810988368
34,7,20,Ticks_Linear_8,152,5,42,127,811587992
34,7,20,Ticks_Linear_8,153,1,48,57,811625716
34,7,20,Ticks_Linear_8,154,5,42,127,812257784
34,7,20,Ticks_Linear_8,155,1,48,60,812269892
34,7,20,Ticks_Linear_8,156,5,42,127,812928304
34,7,20,Ticks_Linear_8,157,1,48,58,812931796
34,7,20,Ticks_Linear_8,158,5,42,127,813587764
34,7,20,Ticks_Linear_8,159,1,48,65,813609308
34,7,20,Ticks_Linear_8,160,1,48,57,814244520
34,7,20,Ticks_Linear_8,161,5,42,127,814248240
34,7,20,Ticks_Linear_8,162,5,42,127,814907856
34,7,20,Ticks_Linear_8,163,1,48,54,814913364
34,7,20,Ticks_Linear_8,164,1,48,59,815550312
34,7,20,Ticks_Linear_8,165,5,42,127,815568180
34,7,20,Ticks_Linear_8,166,1,48,48,816214488
34,7,20,Ticks_Linear_8,167,5,42,127,816227792
34,7,20,Ticks_Linear_8,168,1,48,47,816851040
34,7,20,Ticks_Linear_8,169,5,42,127,816877816
34,7,20,Ticks_Linear_8,170,5,42,127,817528272
34,7,20,Ticks_Linear_8,171,1,48,55,817545160
34,7,20,Ticks_Linear_8,172,1,48,52,818173972
34,7,20,Ticks_Linear_8,173,5,42,127,818178584
34,7,20,Ticks_Linear_8,174,1,48,54,818824492
34,7,20,Ticks_Linear_8,175,5,42,127,818837872
34,7,20,Ticks_Linear_8,176,5,42,127,819488128
34,7,20,Ticks_Linear_8,177,1,48,57,819491244
34,7,20,Ticks_Linear_8,178,5,42,127,820128092
34,7,20,Ticks_Linear_8,179,1,48,53,820177496
34,7,20,Ticks_Linear_8,180,5,42,127,820768080
34,7,20,Ticks_Linear_8,181,1,48,54,820797564
34,7,20,Ticks_Linear_8,182,1,48,50,821408488
34,7,20,Ticks_Linear_8,183,5,42,127,821409908
34,7,20,Ticks_Linear_8,184,1,48,69,822017580
34,7,20,Ticks_Linear_8,185,5,42,127,822048172
34,7,20,Ticks_Linear_8,186,5,42,127,822687996
34,7,20,Ticks_Linear_8,187,1,48,60,822694104
34,7,20,Ticks_Linear_8,188,5,42,127,823317872
34,7,20,Ticks_Linear_8,189,1,48,57,823349148
34,7,20,Ticks_Linear_8,190,1,48,51,823944452
34,7,20,Ticks_Linear_8,191,5,42,127,823947572
34,7,20,Ticks_Linear_8,192,5,42,127,824578580
34,7,20,Ticks_Linear_8,193,1,48,41,824602740
34,7,20,Ticks_Linear_8,194,1,48,51,825204408
34,7,20,Ticks_Linear_8,195,5,42,127,825218384
34,7,20,Ticks_Linear_8,196,1,48,48,825842152
34,7,20,Ticks_Linear_8,197,5,42,127,825858376
34,7,20,Ticks_Linear_8,198,1,48,52,826481972
34,7,20,Ticks_Linear_8,199,5,42,127,826488156
34,7,20,Ticks_Linear_8,200,5,42,127,827107624
34,7,20,Ticks_Linear_8,201,1,48,67,827134548
34,7,20,Ticks_Linear_8,202,5,42,127,827728116
34,7,20,Ticks_Linear_8,203,1,48,62,827767708
34,7,20,Ticks_Linear_8,204,5,42,127,828347712
34,7,20,Ticks_Linear_8,205,1,48,66,828350680
34,7,20,Ticks_Linear_8,206,5,42,127,828968228
34,7,20,Ticks_Linear_8,207,1,48,52,828971644
34,7,20,Ticks_Linear_8,208,1,48,73,829556696
34,7,20,Ticks_Linear_8,209,5,42,127,829577484
34,7,20,Ticks_Linear_8,210,5,42,127,830188120
34,7,20,Ticks_Linear_8,211,1,48,73,830216108
34,7,20,Ticks_Linear_8,212,1,48,63,830797304
34,7,20,Ticks_Linear_8,213,5,42,127,830799172
34,7,20,Ticks_Linear_8,214,1,48,62,831393556
34,7,20,Ticks_Linear_8,215,5,42,127,831407388
34,7,20,Ticks_Linear_8,216,1,48,62,832006224
34,7,20,Ticks_Linear_8,217,5,42,127,832017944
34,7,20,Ticks_Linear_8,218,1,48,67,832610160
34,7,20,Ticks_Linear_8,219,5,42,127,832618068
34,7,20,Ticks_Linear_8,220,1,48,68,833207216
34,7,20,Ticks_Linear_8,221,5,42,127,833217816
34,7,20,Ticks_Linear_8,222,1,48,71,833806920
34,7,20,Ticks_Linear_8,223,5,42,127,833818040
34,7,20,Ticks_Linear_8,224,1,48,65,834416124
34,7,20,Ticks_Linear_8,225,5,42,127,834418012
34,7,20,Ticks_Linear_8,226,5,42,127,835018072
34,7,20,Ticks_Linear_8,227,1,48,61,835034984
34,7,20,Ticks_Linear_8,228,5,42,127,835607884
34,7,20,Ticks_Linear_8,229,1,48,58,835624400
34,7,20,Ticks_Linear_8,230,5,42,127,836197896
34,7,20,Ticks_Linear_8,231,1,48,62,836215312
34,7,20,Ticks_Linear_8,232,5,42,127,836787760
34,7,20,Ticks_Linear_8,233,1,48,61,836809828
34,7,20,Ticks_Linear_8,234,1,48,54,837373176
34,7,20,Ticks_Linear_8,235,5,42,127,837378540
34,7,20,Ticks_Linear_8,236,1,48,56,837955716
34,7,20,Ticks_Linear_8,237,5,42,127,837977396
34,7,20,Ticks_Linear_8,238,5,42,127,838558056
34,7,20,Ticks_Linear_8,239,1,48,54,838566120
34,7,20,Ticks_Linear_8,240,5,42,127,839137536
34,7,20,Ticks_Linear_8,241,1,48,51,839139472
34,7,20,Ticks_Linear_8,242,1,48,59,839713784
34,7,20,Ticks_Linear_8,243,5,42,127,839718404
34,7,20,Ticks_Linear_8,244,5,42,127,840297940
34,7,20,Ticks_Linear_8,245,1,48,50,840302552
34,7,20,Ticks_Linear_8,246,1,48,61,840873372
34,7,20,Ticks_Linear_8,247,5,42,127,840877836
34,7,20,Ticks_Linear_8,248,5,42,127,841447668
34,7,20,Ticks_Linear_8,249,1,48,56,841465996
34,7,20,Ticks_Linear_8,250,5,42,127,842018208
34,7,20,Ticks_Linear_8,251,1,48,53,842034576
34,7,20,Ticks_Linear_8,252,1,48,59,842582560
34,7,20,Ticks_Linear_8,253,5,42,127,842587400
34,7,20,Ticks_Linear_8,254,5,42,127,843157800
34,7,20,Ticks_Linear_8,255,1,48,54,843171400
34,7,20,Ticks_Linear_8,256,1,48,61,843713832
34,7,20,Ticks_Linear_8,257,5,42,127,843728260
34,7,20,Ticks_Linear_8,258,5,42,127,844288548
34,7,20,Ticks_Linear_8,259,1,48,56,844300280
34,7,20,Ticks_Linear_8,260,5,42,127,844847564
34,7,20,Ticks_Linear_8,261,1,48,60,844858700
34,7,20,Ticks_Linear_8,262,5,42,127,845407472
34,7,20,Ticks_Linear_8,263,1,48,46,845445496
34,7,20,Ticks_Linear_8,264,1,48,58,845950480
34,7,20,Ticks_Linear_8,265,5,42,127,845967672
34,7,20,Ticks_Linear_8,266,5,42,127,846527740
34,7,20,Ticks_Linear_8,267,1,48,55,846536104
34,7,20,Ticks_Linear_8,268,1,48,54,847078160
34,7,20,Ticks_Linear_8,269,5,42,127,847079576
34,7,20,Ticks_Linear_8,270,5,42,127,847627736
34,7,20,Ticks_Linear_8,271,1,48,60,847663204
34,7,20,Ticks_Linear_8,272,5,42,127,848177460
34,7,20,Ticks_Linear_8,273,1,48,55,848230228
34,7,20,Ticks_Linear_8,274,5,42,127,848728384
34,7,20,Ticks_Linear_8,275,1,48,55,848774704
34,7,20,Ticks_Linear_8,276,5,42,127,849287468
34,7,20,Ticks_Linear_8,277,1,48,53,849306692
34,7,20,Ticks_Linear_8,278,5,42,127,849828352
34,7,20,Ticks_Linear_8,279,1,48,53,849863148
34,7,20,Ticks_Linear_8,280,5,42,127,850367744
34,7,20,Ticks_Linear_8,281,1,48,51,850390880
34,7,20,Ticks_Linear_8,282,5,42,127,850907532
34,7,20,Ticks_Linear_8,283,1,48,55,850926984
34,7,20,Ticks_Linear_8,284,1,48,51,851436392
34,7,20,Ticks_Linear_8,285,5,42,127,851448192
34,7,20,Ticks_Linear_8,286,5,42,127,851988112
34,7,20,Ticks_Linear_8,287,1,48,57,851991304
34,7,20,Ticks_Linear_8,288,5,42,127,852518144
34,7,20,Ticks_Linear_8,289,1,48,55,852537592
34,7,20,Ticks_Linear_8,290,5,42,127,853047652
34,7,20,Ticks_Linear_8,291,1,48,56,853082592
34,7,20,Ticks_Linear_8,292,1,48,51,853578352
34,7,20,Ticks_Linear_8,293,5,42,127,853579920
34,7,20,Ticks_Linear_8,294,5,42,127,854107484
34,7,20,Ticks_Linear_8,295,1,48,56,854120036
34,7,20,Ticks_Linear_8,296,1,48,52,854617176
34,7,20,Ticks_Linear_8,297,5,42,127,854637880
34,7,20,Ticks_Linear_8,298,5,42,127,855158108
34,7,20,Ticks_Linear_8,299,1,48,59,855176208
34,7,20,Ticks_Linear_8,300,5,42,127,855678248
34,7,20,Ticks_Linear_8,301,1,48,56,855720088
34,7,20,Ticks_Linear_8,302,5,42,127,856197424
34,7,20,Ticks_Linear_8,303,1,48,52,856200088
34,7,20,Ticks_Linear_8,304,5,42,127,856717864
34,7,20,Ticks_Linear_8,305,1,48,51,856757312
34,7,20,Ticks_Linear_8,306,5,42,127,857238008
34,7,20,Ticks_Linear_8,307,1,48,56,857273320
34,7,20,Ticks_Linear_8,308,5,42,127,857747964
34,7,20,Ticks_Linear_8,309,1,48,56,857760740
34,7,20,Ticks_Linear_8,310,1,48,51,858253976
34,7,20,Ticks_Linear_8,311,5,42,127,858257920
34,7,20,Ticks_Linear_8,312,1,48,50,858765916
34,7,20,Ticks_Linear_8,313,5,42,127,858767652
34,7,20,Ticks_Linear_8,314,1,48,54,859276104
34,7,20,Ticks_Linear_8,315,5,42,127,859277836
34,7,20,Ticks_Linear_8,316,5,42,127,859787580
34,7,20,Ticks_Linear_8,317,1,48,49,859799536
34,7,20,Ticks_Linear_8,318,1,48,54,860278996
34,7,20,Ticks_Linear_8,319,5,42,127,860288244
34,7,20,Ticks_Linear_8,320,5,42,127,860787952
34,7,20,Ticks_Linear_8,321,1,48,50,860799980
34,7,20,Ticks_Linear_8,322,5,42,127,861287948
34,7,20,Ticks_Linear_8,323,1,48,54,861318104
34,7,20,Ticks_Linear_8,324,5,42,127,861787724
34,7,20,Ticks_Linear_8,325,1,48,52,861800504
34,7,20,Ticks_Linear_8,326,5,42,127,862288172
34,7,20,Ticks_Linear_8,327,1,48,50,862295864
34,7,20,Ticks_Linear_8,328,5,42,127,862777688
34,7,20,Ticks_Linear_8,329,1,48,51,862809716
34,7,20,Ticks_Linear_8,330,5,42,127,863268328
34,7,20,Ticks_Linear_8,331,1,48,51,863270844
34,7,20,Ticks_Linear_8,332,5,42,127,863757768
34,7,20,Ticks_Linear_8,333,1,48,51,863776760
34,7,20,Ticks_Linear_8,334,1,48,50,864246900
34,7,20,Ticks_Linear_8,335,5,42,127,864248696
34,7,20,Ticks_Linear_8,336,5,42,127,864737548
34,7,20,Ticks_Linear_8,337,1,48,53,864744852
34,7,20,Ticks_Linear_8,0,9999,9999,9999,754105408
34,7,20,Ticks_Linear_8,1,9999,9999,9999,754925692
34,7,20,Ticks_Linear_8,2,9999,9999,9999,755745876
34,7,20,Ticks_Linear_8,3,9999,9999,9999,756566128
34,7,20,Ticks_Linear_8,4,9999,9999,9999,757395576
34,7,20,Ticks_Linear_8,5,9999,9999,9999,758205564
34,7,20,Ticks_Linear_8,6,9999,9999,9999,759015500
34,7,20,Ticks_Linear_8,7,9999,9999,9999,759825476
34,7,20,Ticks_Linear_8,8,9999,9999,9999,760635460
34,7,20,Ticks_Linear_8,9,9999,9999,9999,761445444
34,7,20,Ticks_Linear_8,10,9999,9999,9999,762245240
34,7,20,Ticks_Linear_8,11,9999,9999,9999,763045944
34,7,20,Ticks_Linear_8,12,9999,9999,9999,763845740
34,7,20,Ticks_Linear_8,13,9999,9999,9999,764645484
34,7,20,Ticks_Linear_8,14,9999,9999,9999,765445216
34,7,20,Ticks_Linear_8,15,9999,9999,9999,766235720
34,7,20,Ticks_Linear_8,16,9999,9999,9999,767025264
34,7,20,Ticks_Linear_8,17,9999,9999,9999,767815776
34,7,20,Ticks_Linear_8,18,9999,9999,9999,768605312
34,7,20,Ticks_Linear_8,19,9999,9999,9999,769395820
34,7,20,Ticks_Linear_8,20,9999,9999,9999,770176084
34,7,20,Ticks_Linear_8,21,9999,9999,9999,770965576
34,7,20,Ticks_Linear_8,22,9999,9999,9999,771745872
34,7,20,Ticks_Linear_8,23,9999,9999,9999,772525152
34,7,20,Ticks_Linear_8,24,9999,9999,9999,773305396
34,7,20,Ticks_Linear_8,25,9999,9999,9999,774075468
34,7,20,Ticks_Linear_8,26,9999,9999,9999,774845540
34,7,20,Ticks_Linear_8,27,9999,9999,9999,775615608
34,7,20,Ticks_Linear_8,28,9999,9999,9999,776385596
34,7,20,Ticks_Linear_8,29,9999,9999,9999,777155664
34,7,20,Ticks_Linear_8,30,9999,9999,9999,777915480
34,7,20,Ticks_Linear_8,31,9999,9999,9999,778675288
34,7,20,Ticks_Linear_8,32,9999,9999,9999,779435092
34,7,20,Ticks_Linear_8,33,9999,9999,9999,780195948
34,7,20,Ticks_Linear_8,34,9999,9999,9999,780955756
34,7,20,Ticks_Linear_8,35,9999,9999,9999,781705312
34,7,20,Ticks_Linear_8,36,9999,9999,9999,782455912
34,7,20,Ticks_Linear_8,37,9999,9999,9999,783205460
34,7,20,Ticks_Linear_8,38,9999,9999,9999,783956052
34,7,20,Ticks_Linear_8,39,9999,9999,9999,784705608
34,7,20,Ticks_Linear_8,40,9999,9999,9999,785446012
34,7,20,Ticks_Linear_8,41,9999,9999,9999,786185312
34,7,20,Ticks_Linear_8,42,9999,9999,9999,786925648
34,7,20,Ticks_Linear_8,43,9999,9999,9999,787666028
34,7,20,Ticks_Linear_8,44,9999,9999,9999,788405372
34,7,20,Ticks_Linear_8,45,9999,9999,9999,789135452
34,7,20,Ticks_Linear_8,46,9999,9999,9999,789865600
34,7,20,Ticks_Linear_8,47,9999,9999,9999,790595684
34,7,20,Ticks_Linear_8,48,9999,9999,9999,791325764
34,7,20,Ticks_Linear_8,49,9999,9999,9999,792055912
34,7,20,Ticks_Linear_8,50,9999,9999,9999,792775780
34,7,20,Ticks_Linear_8,51,9999,9999,9999,793495672
34,7,20,Ticks_Linear_8,52,9999,9999,9999,794215492
34,7,20,Ticks_Linear_8,53,9999,9999,9999,794935384
34,7,20,Ticks_Linear_8,54,9999,9999,9999,795655284
34,7,20,Ticks_Linear_8,55,9999,9999,9999,796365944
34,7,20,Ticks_Linear_8,56,9999,9999,9999,797075548
34,7,20,Ticks_Linear_8,57,9999,9999,9999,797785184
34,7,20,Ticks_Linear_8,58,9999,9999,9999,798495800
34,7,20,Ticks_Linear_8,59,9999,9999,9999,799205432
34,7,20,Ticks_Linear_8,60,9999,9999,9999,799905900
34,7,20,Ticks_Linear_8,61,9999,9999,9999,800605280
34,7,20,Ticks_Linear_8,62,9999,9999,9999,801305704
34,7,20,Ticks_Linear_8,63,9999,9999,9999,802006124
34,7,20,Ticks_Linear_8,64,9999,9999,9999,802715736
34,7,20,Ticks_Linear_8,65,9999,9999,9999,803405900
34,7,20,Ticks_Linear_8,66,9999,9999,9999,804096060
34,7,20,Ticks_Linear_8,67,9999,9999,9999,804795488
34,7,20,Ticks_Linear_8,68,9999,9999,9999,805485652
34,7,20,Ticks_Linear_8,69,9999,9999,9999,806175808
34,7,20,Ticks_Linear_8,70,9999,9999,9999,806855768
34,7,20,Ticks_Linear_8,71,9999,9999,9999,807535740
34,7,20,Ticks_Linear_8,72,9999,9999,9999,808215644
34,7,20,Ticks_Linear_8,73,9999,9999,9999,808895600
34,7,20,Ticks_Linear_8,74,9999,9999,9999,809575504
34,7,20,Ticks_Linear_8,75,9999,9999,9999,810245224
34,7,20,Ticks_Linear_8,76,9999,9999,9999,810915896
34,7,20,Ticks_Linear_8,77,9999,9999,9999,811585616
34,7,20,Ticks_Linear_8,78,9999,9999,9999,812255336
34,7,20,Ticks_Linear_8,79,9999,9999,9999,812926076
34,7,20,Ticks_Linear_8,80,9999,9999,9999,813585464
34,7,20,Ticks_Linear_8,81,9999,9999,9999,814246012
34,7,20,Ticks_Linear_8,82,9999,9999,9999,814905404
34,7,20,Ticks_Linear_8,83,9999,9999,9999,815565880
34,7,20,Ticks_Linear_8,84,9999,9999,9999,816225340
34,7,20,Ticks_Linear_8,85,9999,9999,9999,816875592
34,7,20,Ticks_Linear_8,86,9999,9999,9999,817525820
34,7,20,Ticks_Linear_8,87,9999,9999,9999,818176064
34,7,20,Ticks_Linear_8,88,9999,9999,9999,818835568
34,7,20,Ticks_Linear_8,89,9999,9999,9999,819485752
34,7,20,Ticks_Linear_8,90,9999,9999,9999,820125792
34,7,20,Ticks_Linear_8,91,9999,9999,9999,820765780
34,7,20,Ticks_Linear_8,92,9999,9999,9999,821405816
34,7,20,Ticks_Linear_8,93,9999,9999,9999,822045800
34,7,20,Ticks_Linear_8,94,9999,9999,9999,822685768
34,7,20,Ticks_Linear_8,95,9999,9999,9999,823315572
34,7,20,Ticks_Linear_8,96,9999,9999,9999,823945272
34,7,20,Ticks_Linear_8,97,9999,9999,9999,824576128
34,7,20,Ticks_Linear_8,98,9999,9999,9999,825216088
34,7,20,Ticks_Linear_8,99,9999,9999,9999,825856076
34,7,20,Ticks_Linear_8,100,9999,9999,9999,826485852
34,7,20,Ticks_Linear_8,101,9999,9999,9999,827105400
34,7,20,Ticks_Linear_8,102,9999,9999,9999,827725888
34,7,20,Ticks_Linear_8,103,9999,9999,9999,828345408
34,7,20,Ticks_Linear_8,104,9999,9999,9999,828966000
34,7,20,Ticks_Linear_8,105,9999,9999,9999,829575256
34,7,20,Ticks_Linear_8,106,9999,9999,9999,830185596
34,7,20,Ticks_Linear_8,107,9999,9999,9999,830795828
34,7,20,Ticks_Linear_8,108,9999,9999,9999,831405160
34,7,20,Ticks_Linear_8,109,9999,9999,9999,832015420
34,7,20,Ticks_Linear_8,110,9999,9999,9999,832615544
34,7,20,Ticks_Linear_8,111,9999,9999,9999,833215592
34,7,20,Ticks_Linear_8,112,9999,9999,9999,833815664
34,7,20,Ticks_Linear_8,113,9999,9999,9999,834415736
34,7,20,Ticks_Linear_8,114,9999,9999,9999,835015768
34,7,20,Ticks_Linear_8,115,9999,9999,9999,835605584
34,7,20,Ticks_Linear_8,116,9999,9999,9999,836195448
34,7,20,Ticks_Linear_8,117,9999,9999,9999,836785236
34,7,20,Ticks_Linear_8,118,9999,9999,9999,837376092
34,7,20,Ticks_Linear_8,119,9999,9999,9999,837975092
34,7,20,Ticks_Linear_8,120,9999,9999,9999,838555752
34,7,20,Ticks_Linear_8,121,9999,9999,9999,839135308
34,7,20,Ticks_Linear_8,122,9999,9999,9999,839715952
34,7,20,Ticks_Linear_8,123,9999,9999,9999,840295492
34,7,20,Ticks_Linear_8,124,9999,9999,9999,840875088
34,7,20,Ticks_Linear_8,125,9999,9999,9999,841445440
34,7,20,Ticks_Linear_8,126,9999,9999,9999,842015832
34,7,20,Ticks_Linear_8,127,9999,9999,9999,842585172
34,7,20,Ticks_Linear_8,128,9999,9999,9999,843155572
34,7,20,Ticks_Linear_8,129,9999,9999,9999,843725884
34,7,20,Ticks_Linear_8,130,9999,9999,9999,844286024
34,7,20,Ticks_Linear_8,131,9999,9999,9999,844845112
34,7,20,Ticks_Linear_8,132,9999,9999,9999,845405248
34,7,20,Ticks_Linear_8,133,9999,9999,9999,845965372
34,7,20,Ticks_Linear_8,134,9999,9999,9999,846525512
34,7,20,Ticks_Linear_8,135,9999,9999,9999,847075412
34,7,20,Ticks_Linear_8,136,9999,9999,9999,847625284
34,7,20,Ticks_Linear_8,137,9999,9999,9999,848175160
34,7,20,Ticks_Linear_8,138,9999,9999,9999,848726084
34,7,20,Ticks_Linear_8,139,9999,9999,9999,849285240
34,7,20,Ticks_Linear_8,140,9999,9999,9999,849825904
34,7,20,Ticks_Linear_8,141,9999,9999,9999,850365520
34,7,20,Ticks_Linear_8,142,9999,9999,9999,850905156
34,7,20,Ticks_Linear_8,143,9999,9999,9999,851445816
34,7,20,Ticks_Linear_8,144,9999,9999,9999,851985512
34,7,20,Ticks_Linear_8,145,9999,9999,9999,852515916
34,7,20,Ticks_Linear_8,146,9999,9999,9999,853045348
34,7,20,Ticks_Linear_8,147,9999,9999,9999,853575752
34,7,20,Ticks_Linear_8,148,9999,9999,9999,854105184
34,7,20,Ticks_Linear_8,149,9999,9999,9999,854635580
34,7,20,Ticks_Linear_8,150,9999,9999,9999,855155804
34,7,20,Ticks_Linear_8,151,9999,9999,9999,855676020
34,7,20,Ticks_Linear_8,152,9999,9999,9999,856195196
34,7,20,Ticks_Linear_8,153,9999,9999,9999,856715340
34,7,20,Ticks_Linear_8,154,9999,9999,9999,857235556
34,7,20,Ticks_Linear_8,155,9999,9999,9999,857745516
34,7,20,Ticks_Linear_8,156,9999,9999,9999,858255468
34,7,20,Ticks_Linear_8,157,9999,9999,9999,858765376
34,7,20,Ticks_Linear_8,158,9999,9999,9999,859275320
34,7,20,Ticks_Linear_8,159,9999,9999,9999,859785280
34,7,20,Ticks_Linear_8,160,9999,9999,9999,860286020
34,7,20,Ticks_Linear_8,161,9999,9999,9999,860785724
34,7,20,Ticks_Linear_8,162,9999,9999,9999,861285500
34,7,20,Ticks_Linear_8,163,9999,9999,9999,861785200
34,7,20,Ticks_Linear_8,164,9999,9999,9999,862285944
34,7,20,Ticks_Linear_8,165,9999,9999,9999,862775388
34,7,20,Ticks_Linear_8,166,9999,9999,9999,863265876
34,7,20,Ticks_Linear_8,167,9999,9999,9999,863755392
34,7,20,Ticks_Linear_8,168,9999,9999,9999,864245880
34,7,20,Ticks_Linear_8,169,9999,9999,9999,864735320
34,8,21,Ticks_Linear_5,0,5,42,127,876136828
34,8,21,Ticks_Linear_5,1,5,42,127,876617228
34,8,21,Ticks_Linear_5,2,5,42,127,877097404
34,8,21,Ticks_Linear_5,3,5,42,127,877576832
34,8,21,Ticks_Linear_5,4,1,48,65,878052308
34,8,21,Ticks_Linear_5,5,5,42,127,878056776
34,8,21,Ticks_Linear_5,6,1,48,77,878526156
34,8,21,Ticks_Linear_5,7,5,42,127,878547264
34,8,21,Ticks_Linear_5,8,1,48,73,879011996
34,8,21,Ticks_Linear_5,9,5,42,127,879036752
34,8,21,Ticks_Linear_5,10,1,48,66,879507128
34,8,21,Ticks_Linear_5,11,5,42,127,879527164
34,8,21,Ticks_Linear_5,12,1,48,67,879992220
34,8,21,Ticks_Linear_5,13,5,42,127,880017052
34,8,21,Ticks_Linear_5,14,1,48,61,880495148
34,8,21,Ticks_Linear_5,15,5,42,127,880507244
34,8,21,Ticks_Linear_5,16,1,48,65,880981956
34,8,21,Ticks_Linear_5,17,5,42,127,881006868
34,8,21,Ticks_Linear_5,18,1,48,60,881470804
34,8,21,Ticks_Linear_5,19,5,42,127,881506644
34,8,21,Ticks_Linear_5,20,1,48,62,881981732
34,8,21,Ticks_Linear_5,21,5,42,127,882007688
34,8,21,Ticks_Linear_5,22,1,48,61,882490120
34,8,21,Ticks_Linear_5,23,5,42,127,882507088
34,8,21,Ticks_Linear_5,24,1,48,73,882991244
34,8,21,Ticks_Linear_5,25,5,42,127,883006716
34,8,21,Ticks_Linear_5,26,1,48,70,883479112
34,8,21,Ticks_Linear_5,27,5,42,127,883516748
34,8,21,Ticks_Linear_5,28,1,48,70,884006000
34,8,21,Ticks_Linear_5,29,5,42,127,884026632
34,8,21,Ticks_Linear_5,30,1,48,69,884503964
34,8,21,Ticks_Linear_5,31,5,42,127,884536888
34,8,21,Ticks_Linear_5,32,1,48,68,885012424
34,8,21,Ticks_Linear_5,33,5,42,127,885046624
34,8,21,Ticks_Linear_5,34,1,48,66,885523356
34,8,21,Ticks_Linear_5,35,5,42,127,885556584
34,8,21,Ticks_Linear_5,36,1,48,64,886031528
34,8,21,Ticks_Linear_5,37,5,42,127,886076728
34,8,21,Ticks_Linear_5,38,1,48,62,886550244
34,8,21,Ticks_Linear_5,39,5,42,127,886596944
34,8,21,Ticks_Linear_5,40,1,48,54,887063120
34,8,21,Ticks_Linear_5,41,5,42,127,887117460
34,8,21,Ticks_Linear_5,42,1,48,51,887614728
34,8,21,Ticks_Linear_5,43,5,42,127,887637380
34,8,21,Ticks_Linear_5,44,1,48,57,888155276
34,8,21,Ticks_Linear_5,45,5,42,127,888156996
34,8,21,Ticks_Linear_5,46,1,48,55,888671412
34,8,21,Ticks_Linear_5,47,5,42,127,888686884
34,8,21,Ticks_Linear_5,48,1,48,55,889166920
34,8,21,Ticks_Linear_5,49,5,42,127,889217360
34,8,21,Ticks_Linear_5,50,1,48,54,889729224
34,8,21,Ticks_Linear_5,51,5,42,127,889746716
34,8,21,Ticks_Linear_5,52,1,48,40,890258504
34,8,21,Ticks_Linear_5,53,5,42,127,890277416
34,8,21,Ticks_Linear_5,54,1,48,53,890786136
34,8,21,Ticks_Linear_5,55,5,42,127,890806620
34,8,21,Ticks_Linear_5,56,1,48,54,891302232
34,8,21,Ticks_Linear_5,57,5,42,127,891347232
34,8,21,Ticks_Linear_5,58,1,48,57,891881112
34,8,21,Ticks_Linear_5,59,5,42,127,891887220
34,8,21,Ticks_Linear_5,60,1,48,53,892400208
34,8,21,Ticks_Linear_5,61,5,42,127,892426612
34,8,21,Ticks_Linear_5,62,1,48,61,892909048
34,8,21,Ticks_Linear_5,63,5,42,127,892967276
34,8,21,Ticks_Linear_5,64,5,42,127,893506972
34,8,21,Ticks_Linear_5,65,1,48,47,893515336
34,8,21,Ticks_Linear_5,66,1,48,46,894050360
34,8,21,Ticks_Linear_5,67,5,42,127,894056988
34,8,21,Ticks_Linear_5,68,1,48,52,894592588
34,8,21,Ticks_Linear_5,69,5,42,127,894606936
34,8,21,Ticks_Linear_5,70,1,48,44,895129432
34,8,21,Ticks_Linear_5,71,5,42,127,895156516
34,8,21,Ticks_Linear_5,72,1,48,49,895674748
34,8,21,Ticks_Linear_5,73,5,42,127,895706560
34,8,21,Ticks_Linear_5,74,1,48,57,896212504
34,8,21,Ticks_Linear_5,75,5,42,127,896257260
34,8,21,Ticks_Linear_5,76,1,48,56,896763424
34,8,21,Ticks_Linear_5,77,5,42,127,896816420
34,8,21,Ticks_Linear_5,78,1,48,51,897353888
34,8,21,Ticks_Linear_5,79,5,42,127,897376552
34,8,21,Ticks_Linear_5,80,1,48,55,897922484
34,8,21,Ticks_Linear_5,81,5,42,127,897936760
34,8,21,Ticks_Linear_5,82,1,48,46,898486744
34,8,21,Ticks_Linear_5,83,5,42,127,898496968
34,8,21,Ticks_Linear_5,84,1,48,51,899022036
34,8,21,Ticks_Linear_5,85,5,42,127,899057052
34,8,21,Ticks_Linear_5,86,1,48,49,899533708
34,8,21,Ticks_Linear_5,87,5,42,127,899628176
34,8,21,Ticks_Linear_5,88,5,42,127,900196796
34,8,21,Ticks_Linear_5,89,1,48,46,900216996
34,8,21,Ticks_Linear_5,90,5,42,127,900767188
34,8,21,Ticks_Linear_5,91,1,48,45,900773972
34,8,21,Ticks_Linear_5,92,5,42,127,901336332
34,8,21,Ticks_Linear_5,93,1,48,44,901342220
34,8,21,Ticks_Linear_5,94,1,48,49,901892444
34,8,21,Ticks_Linear_5,95,5,42,127,901906944
34,8,21,Ticks_Linear_5,96,5,42,127,902487308
34,8,21,Ticks_Linear_5,97,1,48,47,902488272
34,8,21,Ticks_Linear_5,98,1,48,59,903062888
34,8,21,Ticks_Linear_5,99,5,42,127,903066980
34,8,21,Ticks_Linear_5,100,1,48,49,903635856
34,8,21,Ticks_Linear_5,101,5,42,127,903646608
34,8,21,Ticks_Linear_5,102,1,48,51,904207152
34,8,21,Ticks_Linear_5,103,5,42,127,904227184
34,8,21,Ticks_Linear_5,104,1,48,51,904788104
34,8,21,Ticks_Linear_5,105,5,42,127,904806716
34,8,21,Ticks_Linear_5,106,1,48,45,905351076
34,8,21,Ticks_Linear_5,107,5,42,127,905396728
34,8,21,Ticks_Linear_5,108,1,48,50,905943360
34,8,21,Ticks_Linear_5,109,5,42,127,905986616
34,8,21,Ticks_Linear_5,110,1,48,52,906534568
34,8,21,Ticks_Linear_5,111,5,42,127,906577380
34,8,21,Ticks_Linear_5,112,1,48,49,907126244
34,8,21,Ticks_Linear_5,113,5,42,127,907167020
34,8,21,Ticks_Linear_5,114,1,48,50,907757288
34,8,21,Ticks_Linear_5,115,5,42,127,907758704
34,8,21,Ticks_Linear_5,116,1,48,51,908331152
34,8,21,Ticks_Linear_5,117,5,42,127,908357104
34,8,21,Ticks_Linear_5,118,1,48,49,908957308
34,8,21,Ticks_Linear_5,119,5,42,127,908958876
34,8,21,Ticks_Linear_5,120,1,48,45,909550896
34,8,21,Ticks_Linear_5,121,5,42,127,909557080
34,8,21,Ticks_Linear_5,122,1,48,45,910154676
34,8,21,Ticks_Linear_5,123,5,42,127,910157272
34,8,21,Ticks_Linear_5,124,1,48,55,910755360
34,8,21,Ticks_Linear_5,125,5,42,127,910757248
34,8,21,Ticks_Linear_5,126,1,48,49,911321484
34,8,21,Ticks_Linear_5,127,5,42,127,911366536
34,8,21,Ticks_Linear_5,128,1,48,58,911946700
34,8,21,Ticks_Linear_5,129,5,42,127,911976848
34,8,21,Ticks_Linear_5,130,5,42,127,912587336
34,8,21,Ticks_Linear_5,131,1,48,54,912592548
34,8,21,Ticks_Linear_5,132,1,48,48,913197792
34,8,21,Ticks_Linear_5,133,5,42,127,913199284
34,8,21,Ticks_Linear_5,134,1,48,58,913801756
34,8,21,Ticks_Linear_5,135,5,42,127,913817080
34,8,21,Ticks_Linear_5,136,1,48,59,914393740
34,8,21,Ticks_Linear_5,137,5,42,127,914436552
34,8,21,Ticks_Linear_5,138,1,48,62,915032284
34,8,21,Ticks_Linear_5,139,5,42,127,915057044
34,8,21,Ticks_Linear_5,140,1,48,59,915614132
34,8,21,Ticks_Linear_5,141,5,42,127,915676440
34,8,21,Ticks_Linear_5,142,1,48,62,916250308
34,8,21,Ticks_Linear_5,143,5,42,127,916297008
34,8,21,Ticks_Linear_5,144,1,48,66,916909592
34,8,21,Ticks_Linear_5,145,5,42,127,916916676
34,8,21,Ticks_Linear_5,146,5,42,127,917547312
34,8,21,Ticks_Linear_5,147,1,48,54,917555000
34,8,21,Ticks_Linear_5,148,5,42,127,918177088
34,8,21,Ticks_Linear_5,149,1,48,24,918185452
34,8,21,Ticks_Linear_5,150,1,48,80,918755996
34,8,21,Ticks_Linear_5,151,5,42,127,918806960
34,8,21,Ticks_Linear_5,152,1,48,73,919421564
34,8,21,Ticks_Linear_5,153,5,42,127,919436812
34,8,21,Ticks_Linear_5,154,1,48,67,920062304
34,8,21,Ticks_Linear_5,155,5,42,127,920066468
34,8,21,Ticks_Linear_5,156,1,48,63,920703688
34,8,21,Ticks_Linear_5,157,5,42,127,920706360
34,8,21,Ticks_Linear_5,158,1,48,67,921332820
34,8,21,Ticks_Linear_5,159,5,42,127,921346644
34,8,21,Ticks_Linear_5,160,1,48,72,921938344
34,8,21,Ticks_Linear_5,161,5,42,127,921986460
34,8,21,Ticks_Linear_5,162,1,48,67,922580572
34,8,21,Ticks_Linear_5,163,5,42,127,922626300
34,8,21,Ticks_Linear_5,164,1,48,70,923262840
34,8,21,Ticks_Linear_5,165,5,42,127,923266708
34,8,21,Ticks_Linear_5,166,1,48,67,923909948
34,8,21,Ticks_Linear_5,167,5,42,127,923916584
34,8,21,Ticks_Linear_5,168,1,48,70,924537040
34,8,21,Ticks_Linear_5,169,5,42,127,924566880
34,8,21,Ticks_Linear_5,170,1,48,69,925174692
34,8,21,Ticks_Linear_5,171,5,42,127,925217056
34,8,21,Ticks_Linear_5,172,5,42,127,925867508
34,8,21,Ticks_Linear_5,173,1,48,56,925875800
34,8,21,Ticks_Linear_5,174,5,42,127,926516560
34,8,21,Ticks_Linear_5,175,1,48,72,926546416
34,8,21,Ticks_Linear_5,176,1,48,62,927151004
34,8,21,Ticks_Linear_5,177,5,42,127,927177108
34,8,21,Ticks_Linear_5,178,1,48,58,927788652
34,8,21,Ticks_Linear_5,179,5,42,127,927836768
34,8,21,Ticks_Linear_5,180,1,48,47,928461360
34,8,21,Ticks_Linear_5,181,5,42,127,928497052
34,8,21,Ticks_Linear_5,182,1,48,58,929146632
34,8,21,Ticks_Linear_5,183,5,42,127,929156636
34,8,21,Ticks_Linear_5,184,1,48,59,929749332
34,8,21,Ticks_Linear_5,185,5,42,127,929816848
34,8,21,Ticks_Linear_5,186,1,48,55,930453016
34,8,21,Ticks_Linear_5,187,5,42,127,930486764
34,8,21,Ticks_Linear_5,188,1,48,54,931136372
34,8,21,Ticks_Linear_5,189,5,42,127,931157604
34,8,21,Ticks_Linear_5,190,5,42,127,931827552
34,8,21,Ticks_Linear_5,191,1,48,55,931831716
34,8,21,Ticks_Linear_5,192,1,48,51,932485300
34,8,21,Ticks_Linear_5,193,5,42,127,932496792
34,8,21,Ticks_Linear_5,194,1,48,52,933119216
34,8,21,Ticks_Linear_5,195,5,42,127,933166440
34,8,21,Ticks_Linear_5,196,1,48,51,933836116
34,8,21,Ticks_Linear_5,197,5,42,127,933847312
34,8,21,Ticks_Linear_5,198,1,48,57,934490004
34,8,21,Ticks_Linear_5,199,5,42,127,934527268
34,8,21,Ticks_Linear_5,200,1,48,57,935145272
34,8,21,Ticks_Linear_5,201,5,42,127,935207320
34,8,21,Ticks_Linear_5,202,5,42,127,935887228
34,8,21,Ticks_Linear_5,203,1,48,70,935903820
34,8,21,Ticks_Linear_5,204,5,42,127,936567032
34,8,21,Ticks_Linear_5,205,1,48,63,936599884
34,8,21,Ticks_Linear_5,206,1,48,61,937246064
34,8,21,Ticks_Linear_5,207,5,42,127,937257264
34,8,21,Ticks_Linear_5,208,1,48,57,937916660
34,8,21,Ticks_Linear_5,209,5,42,127,937946380
34,8,21,Ticks_Linear_5,210,1,48,58,938624348
34,8,21,Ticks_Linear_5,211,5,42,127,938636592
34,8,21,Ticks_Linear_5,212,1,48,54,939307392
34,8,21,Ticks_Linear_5,213,5,42,127,939327124
34,8,21,Ticks_Linear_5,214,1,48,51,939980928
34,8,21,Ticks_Linear_5,215,5,42,127,940017216
34,8,21,Ticks_Linear_5,216,1,48,52,940647104
34,8,21,Ticks_Linear_5,217,5,42,127,940717316
34,8,21,Ticks_Linear_5,218,5,42,127,941427028
34,8,21,Ticks_Linear_5,219,1,48,54,941436068
34,8,21,Ticks_Linear_5,220,5,42,127,942126404
34,8,21,Ticks_Linear_5,221,1,48,50,942134768
34,8,21,Ticks_Linear_5,222,1,48,48,942781964
34,8,21,Ticks_Linear_5,223,5,42,127,942826964
34,8,21,Ticks_Linear_5,224,1,48,53,943498864
34,8,21,Ticks_Linear_5,225,5,42,127,943527440
34,8,21,Ticks_Linear_5,226,1,48,51,944225356
34,8,21,Ticks_Linear_5,227,5,42,127,944236924
34,8,21,Ticks_Linear_5,228,1,48,50,944914376
34,8,21,Ticks_Linear_5,229,5,42,127,944946708
34,8,21,Ticks_Linear_5,230,1,48,49,945646488
34,8,21,Ticks_Linear_5,231,5,42,127,945657092
34,8,21,Ticks_Linear_5,232,5,42,127,946366856
34,8,21,Ticks_Linear_5,233,1,48,53,946380704
34,8,21,Ticks_Linear_5,234,5,42,127,947076564
34,8,21,Ticks_Linear_5,235,1,48,55,947086352
34,8,21,Ticks_Linear_5,236,1,48,54,947786980
34,8,21,Ticks_Linear_5,237,5,42,127,947797496
34,8,21,Ticks_Linear_5,238,1,48,58,948474508
34,8,21,Ticks_Linear_5,239,5,42,127,948517392
34,8,21,Ticks_Linear_5,240,1,48,62,949224744
34,8,21,Ticks_Linear_5,241,5,42,127,949236988
34,8,21,Ticks_Linear_5,242,1,48,46,949887916
34,8,21,Ticks_Linear_5,243,5,42,127,949957080
34,8,21,Ticks_Linear_5,244,1,48,60,950647956
34,8,21,Ticks_Linear_5,245,5,42,127,950676824
34,8,21,Ticks_Linear_5,246,1,48,55,951381248
34,8,21,Ticks_Linear_5,247,5,42,127,951406976
34,8,21,Ticks_Linear_5,248,1,48,67,952124812
34,8,21,Ticks_Linear_5,249,5,42,127,952136980
34,8,21,Ticks_Linear_5,250,5,42,127,952867364
34,8,21,Ticks_Linear_5,251,1,48,55,952868700
34,8,21,Ticks_Linear_5,252,1,48,54,953589008
34,8,21,Ticks_Linear_5,253,5,42,127,953597512
34,8,21,Ticks_Linear_5,254,1,48,56,954303704
34,8,21,Ticks_Linear_5,255,5,42,127,954327440
34,8,21,Ticks_Linear_5,256,5,42,127,955066640
34,8,21,Ticks_Linear_5,257,1,48,57,955068652
34,8,21,Ticks_Linear_5,258,5,42,127,955807272
34,8,21,Ticks_Linear_5,259,1,48,56,955842436
34,8,21,Ticks_Linear_5,260,1,48,60,956537980
34,8,21,Ticks_Linear_5,261,5,42,127,956546404
34,8,21,Ticks_Linear_5,262,1,48,61,957248356
34,8,21,Ticks_Linear_5,263,5,42,127,957286668
34,8,21,Ticks_Linear_5,264,1,48,57,957974996
34,8,21,Ticks_Linear_5,265,5,42,127,958027304
34,8,21,Ticks_Linear_5,266,1,48,60,958753588
34,8,21,Ticks_Linear_5,267,5,42,127,958776632
34,8,21,Ticks_Linear_5,268,5,42,127,959527232
34,8,21,Ticks_Linear_5,269,1,48,52,959528272
34,8,21,Ticks_Linear_5,270,5,42,127,960277228
34,8,21,Ticks_Linear_5,271,1,48,62,960285748
34,8,21,Ticks_Linear_5,272,1,48,66,960998200
34,8,21,Ticks_Linear_5,273,5,42,127,961026400
34,8,21,Ticks_Linear_5,274,1,48,61,961731320
34,8,21,Ticks_Linear_5,275,5,42,127,961777072
34,8,21,Ticks_Linear_5,276,1,48,60,962491352
34,8,21,Ticks_Linear_5,277,5,42,127,962536952
34,8,21,Ticks_Linear_5,278,1,48,56,963263812
34,8,21,Ticks_Linear_5,279,5,42,127,963296688
34,8,21,Ticks_Linear_5,280,5,42,127,964056504
34,8,21,Ticks_Linear_5,281,1,48,61,964081408
34,8,21,Ticks_Linear_5,282,1,48,48,964799232
34,8,21,Ticks_Linear_5,283,5,42,127,964817200
34,8,21,Ticks_Linear_5,284,1,48,52,965546168
34,8,21,Ticks_Linear_5,285,5,42,127,965577008
34,8,21,Ticks_Linear_5,286,1,48,49,966327320
34,8,21,Ticks_Linear_5,287,5,42,127,966347000
34,8,21,Ticks_Linear_5,288,1,48,52,967082176
34,8,21,Ticks_Linear_5,289,5,42,127,967117292
34,8,21,Ticks_Linear_5,290,1,48,57,967863096
34,8,21,Ticks_Linear_5,291,5,42,127,967887360
34,8,21,Ticks_Linear_5,292,1,48,54,968592056
34,8,21,Ticks_Linear_5,293,5,42,127,968657204
34,8,21,Ticks_Linear_5,294,1,48,60,969403832
34,8,21,Ticks_Linear_5,295,5,42,127,969427272
34,8,21,Ticks_Linear_5,296,1,48,62,970201036
34,8,21,Ticks_Linear_5,297,5,42,127,970206628
34,8,21,Ticks_Linear_5,298,1,48,60,970969388
34,8,21,Ticks_Linear_5,299,5,42,127,970986732
34,8,21,Ticks_Linear_5,300,1,48,62,971745072
34,8,21,Ticks_Linear_5,301,5,42,127,971767352
34,8,21,Ticks_Linear_5,302,1,48,67,972506004
34,8,21,Ticks_Linear_5,303,5,42,127,972546560
34,8,21,Ticks_Linear_5,304,1,48,70,973317784
34,8,21,Ticks_Linear_5,305,5,42,127,973326588
34,8,21,Ticks_Linear_5,306,1,48,74,974097064
34,8,21,Ticks_Linear_5,307,5,42,127,974117248
34,8,21,Ticks_Linear_5,308,5,42,127,974906720
34,8,21,Ticks_Linear_5,309,1,48,54,974917328
34,8,21,Ticks_Linear_5,310,1,48,61,975674500
34,8,21,Ticks_Linear_5,311,5,42,127,975697448
34,8,21,Ticks_Linear_5,312,1,48,61,976455420
34,8,21,Ticks_Linear_5,313,5,42,127,976486692
34,8,21,Ticks_Linear_5,314,1,48,62,977233196
34,8,21,Ticks_Linear_5,315,5,42,127,977277276
34,8,21,Ticks_Linear_5,316,1,48,60,978068344
34,8,21,Ticks_Linear_5,317,5,42,127,978077148
34,8,21,Ticks_Linear_5,318,5,42,127,978876732
34,8,21,Ticks_Linear_5,319,1,48,56,978883136
34,8,21,Ticks_Linear_5,320,1,48,60,979641200
34,8,21,Ticks_Linear_5,321,5,42,127,979676472
34,8,21,Ticks_Linear_5,322,1,48,48,980448300
34,8,21,Ticks_Linear_5,323,5,42,127,980477392
34,8,21,Ticks_Linear_5,324,5,42,127,981276972
34,8,21,Ticks_Linear_5,325,1,48,51,981283156
34,8,21,Ticks_Linear_5,326,5,42,127,982087104
34,8,21,Ticks_Linear_5,327,1,48,58,982096144
34,8,21,Ticks_Linear_5,328,1,48,52,982833900
34,8,21,Ticks_Linear_5,329,5,42,127,982897080
34,8,21,Ticks_Linear_5,330,1,48,66,983683576
34,8,21,Ticks_Linear_5,331,5,42,127,983707212
34,8,21,Ticks_Linear_5,332,1,48,52,984514376
34,8,21,Ticks_Linear_5,333,5,42,127,984517296
34,8,21,Ticks_Linear_5,334,1,48,48,985301992
34,8,21,Ticks_Linear_5,335,5,42,127,985326980
34,8,21,Ticks_Linear_5,0,9999,9999,9999,876134528
34,8,21,Ticks_Linear_5,1,9999,9999,9999,876614780
34,8,21,Ticks_Linear_5,2,9999,9999,9999,877095028
34,8,21,Ticks_Linear_5,3,9999,9999,9999,877574232
34,8,21,Ticks_Linear_5,4,9999,9999,9999,878054476
34,8,21,Ticks_Linear_5,5,9999,9999,9999,878544964
34,8,21,Ticks_Linear_5,6,9999,9999,9999,879034452
34,8,21,Ticks_Linear_5,7,9999,9999,9999,879524940
34,8,21,Ticks_Linear_5,8,9999,9999,9999,880014456
34,8,21,Ticks_Linear_5,9,9999,9999,9999,880504940
34,8,21,Ticks_Linear_5,10,9999,9999,9999,881004640
34,8,21,Ticks_Linear_5,11,9999,9999,9999,881504344
34,8,21,Ticks_Linear_5,12,9999,9999,9999,882005088
34,8,21,Ticks_Linear_5,13,9999,9999,9999,882504788
34,8,21,Ticks_Linear_5,14,9999,9999,9999,883004488
34,8,21,Ticks_Linear_5,15,9999,9999,9999,883514448
34,8,21,Ticks_Linear_5,16,9999,9999,9999,884024408
34,8,21,Ticks_Linear_5,17,9999,9999,9999,884534364
34,8,21,Ticks_Linear_5,18,9999,9999,9999,885044324
34,8,21,Ticks_Linear_5,19,9999,9999,9999,885554284
34,8,21,Ticks_Linear_5,20,9999,9999,9999,886074428
34,8,21,Ticks_Linear_5,21,9999,9999,9999,886594644
34,8,21,Ticks_Linear_5,22,9999,9999,9999,887114864
34,8,21,Ticks_Linear_5,23,9999,9999,9999,887635004
34,8,21,Ticks_Linear_5,24,9999,9999,9999,888154184
34,8,21,Ticks_Linear_5,25,9999,9999,9999,888684656
34,8,21,Ticks_Linear_5,26,9999,9999,9999,889215056
34,8,21,Ticks_Linear_5,27,9999,9999,9999,889744488
34,8,21,Ticks_Linear_5,28,9999,9999,9999,890274892
34,8,21,Ticks_Linear_5,29,9999,9999,9999,890804320
34,8,21,Ticks_Linear_5,30,9999,9999,9999,891345008
34,8,21,Ticks_Linear_5,31,9999,9999,9999,891884624
34,8,21,Ticks_Linear_5,32,9999,9999,9999,892424312
34,8,21,Ticks_Linear_5,33,9999,9999,9999,892964976
34,8,21,Ticks_Linear_5,34,9999,9999,9999,893504596
34,8,21,Ticks_Linear_5,35,9999,9999,9999,894054464
34,8,21,Ticks_Linear_5,36,9999,9999,9999,894604412
34,8,21,Ticks_Linear_5,37,9999,9999,9999,895154288
34,8,21,Ticks_Linear_5,38,9999,9999,9999,895704184
34,8,21,Ticks_Linear_5,39,9999,9999,9999,896255032
34,8,21,Ticks_Linear_5,40,9999,9999,9999,896814192
34,8,21,Ticks_Linear_5,41,9999,9999,9999,897374324
34,8,21,Ticks_Linear_5,42,9999,9999,9999,897934460
34,8,21,Ticks_Linear_5,43,9999,9999,9999,898494520
34,8,21,Ticks_Linear_5,44,9999,9999,9999,899054676
34,8,21,Ticks_Linear_5,45,9999,9999,9999,899625068
34,8,21,Ticks_Linear_5,46,9999,9999,9999,900194420
34,8,21,Ticks_Linear_5,47,9999,9999,9999,900764740
34,8,21,Ticks_Linear_5,48,9999,9999,9999,901334108
34,8,21,Ticks_Linear_5,49,9999,9999,9999,901904496
34,8,21,Ticks_Linear_5,50,9999,9999,9999,902485080
34,8,21,Ticks_Linear_5,51,9999,9999,9999,903064680
34,8,21,Ticks_Linear_5,52,9999,9999,9999,903644232
34,8,21,Ticks_Linear_5,53,9999,9999,9999,904224884
34,8,21,Ticks_Linear_5,54,9999,9999,9999,904804416
34,8,21,Ticks_Linear_5,55,9999,9999,9999,905394280
34,8,21,Ticks_Linear_5,56,9999,9999,9999,905984092
34,8,21,Ticks_Linear_5,57,9999,9999,9999,906574928
34,8,21,Ticks_Linear_5,58,9999,9999,9999,907164796
34,8,21,Ticks_Linear_5,59,9999,9999,9999,907754612
34,8,21,Ticks_Linear_5,60,9999,9999,9999,908354656
34,8,21,Ticks_Linear_5,61,9999,9999,9999,908954712
34,8,21,Ticks_Linear_5,62,9999,9999,9999,909554776
34,8,21,Ticks_Linear_5,63,9999,9999,9999,910154824
34,8,21,Ticks_Linear_5,64,9999,9999,9999,910754896
34,8,21,Ticks_Linear_5,65,9999,9999,9999,911364164
34,8,21,Ticks_Linear_5,66,9999,9999,9999,911974472
34,8,21,Ticks_Linear_5,67,9999,9999,9999,912584788
34,8,21,Ticks_Linear_5,68,9999,9999,9999,913195116
34,8,21,Ticks_Linear_5,69,9999,9999,9999,913814632
34,8,21,Ticks_Linear_5,70,9999,9999,9999,914434100
34,8,21,Ticks_Linear_5,71,9999,9999,9999,915054668
34,8,21,Ticks_Linear_5,72,9999,9999,9999,915674212
34,8,21,Ticks_Linear_5,73,9999,9999,9999,916294780
34,8,21,Ticks_Linear_5,74,9999,9999,9999,916914300
34,8,21,Ticks_Linear_5,75,9999,9999,9999,917545084
34,8,21,Ticks_Linear_5,76,9999,9999,9999,918174788
34,8,21,Ticks_Linear_5,77,9999,9999,9999,918804584
34,8,21,Ticks_Linear_5,78,9999,9999,9999,919434364
34,8,21,Ticks_Linear_5,79,9999,9999,9999,920064092
34,8,21,Ticks_Linear_5,80,9999,9999,9999,920704060
34,8,21,Ticks_Linear_5,81,9999,9999,9999,921344120
34,8,21,Ticks_Linear_5,82,9999,9999,9999,921984084
34,8,21,Ticks_Linear_5,83,9999,9999,9999,922624072
34,8,21,Ticks_Linear_5,84,9999,9999,9999,923264112
34,8,21,Ticks_Linear_5,85,9999,9999,9999,923914360
34,8,21,Ticks_Linear_5,86,9999,9999,9999,924564580
34,8,21,Ticks_Linear_5,87,9999,9999,9999,925214828
34,8,21,Ticks_Linear_5,88,9999,9999,9999,925865056
34,8,21,Ticks_Linear_5,89,9999,9999,9999,926514260
34,8,21,Ticks_Linear_5,90,9999,9999,9999,927174736
34,8,21,Ticks_Linear_5,91,9999,9999,9999,927834172
34,8,21,Ticks_Linear_5,92,9999,9999,9999,928494676
34,8,21,Ticks_Linear_5,93,9999,9999,9999,929154112
34,8,21,Ticks_Linear_5,94,9999,9999,9999,929814620
34,8,21,Ticks_Linear_5,95,9999,9999,9999,930484316
34,8,21,Ticks_Linear_5,96,9999,9999,9999,931155004
34,8,21,Ticks_Linear_5,97,9999,9999,9999,931824732
34,8,21,Ticks_Linear_5,98,9999,9999,9999,932494420
34,8,21,Ticks_Linear_5,99,9999,9999,9999,933164136
34,8,21,Ticks_Linear_5,100,9999,9999,9999,933845088
34,8,21,Ticks_Linear_5,101,9999,9999,9999,934525040
34,8,21,Ticks_Linear_5,102,9999,9999,9999,935204944
34,8,21,Ticks_Linear_5,103,9999,9999,9999,935884852
34,8,21,Ticks_Linear_5,104,9999,9999,9999,936564804
34,8,21,Ticks_Linear_5,105,9999,9999,9999,937255036
34,8,21,Ticks_Linear_5,106,9999,9999,9999,937944152
34,8,21,Ticks_Linear_5,107,9999,9999,9999,938634364
34,8,21,Ticks_Linear_5,108,9999,9999,9999,939324528
34,8,21,Ticks_Linear_5,109,9999,9999,9999,940014692
34,8,21,Ticks_Linear_5,110,9999,9999,9999,940715088
34,8,21,Ticks_Linear_5,111,9999,9999,9999,941424728
34,8,21,Ticks_Linear_5,112,9999,9999,9999,942124104
34,8,21,Ticks_Linear_5,113,9999,9999,9999,942824516
34,8,21,Ticks_Linear_5,114,9999,9999,9999,943524988
34,8,21,Ticks_Linear_5,115,9999,9999,9999,944234624
34,8,21,Ticks_Linear_5,116,9999,9999,9999,944944184
34,8,21,Ticks_Linear_5,117,9999,9999,9999,945654864
34,8,21,Ticks_Linear_5,118,9999,9999,9999,946364480
34,8,21,Ticks_Linear_5,119,9999,9999,9999,947074116
34,8,21,Ticks_Linear_5,120,9999,9999,9999,947795048
34,8,21,Ticks_Linear_5,121,9999,9999,9999,948514944
34,8,21,Ticks_Linear_5,122,9999,9999,9999,949234760
34,8,21,Ticks_Linear_5,123,9999,9999,9999,949954632
34,8,21,Ticks_Linear_5,124,9999,9999,9999,950674524
34,8,21,Ticks_Linear_5,125,9999,9999,9999,951404600
34,8,21,Ticks_Linear_5,126,9999,9999,9999,952134756
34,8,21,Ticks_Linear_5,127,9999,9999,9999,952864840
34,8,21,Ticks_Linear_5,128,9999,9999,9999,953594988
34,8,21,Ticks_Linear_5,129,9999,9999,9999,954325064
34,8,21,Ticks_Linear_5,130,9999,9999,9999,955064412
34,8,21,Ticks_Linear_5,131,9999,9999,9999,955804748
34,8,21,Ticks_Linear_5,132,9999,9999,9999,956544104
34,8,21,Ticks_Linear_5,133,9999,9999,9999,957284444
34,8,21,Ticks_Linear_5,134,9999,9999,9999,958024780
34,8,21,Ticks_Linear_5,135,9999,9999,9999,958774332
34,8,21,Ticks_Linear_5,136,9999,9999,9999,959524932
34,8,21,Ticks_Linear_5,137,9999,9999,9999,960274556
34,8,21,Ticks_Linear_5,138,9999,9999,9999,961024100
34,8,21,Ticks_Linear_5,139,9999,9999,9999,961774696
34,8,21,Ticks_Linear_5,140,9999,9999,9999,962534504
34,8,21,Ticks_Linear_5,141,9999,9999,9999,963294312
34,8,21,Ticks_Linear_5,142,9999,9999,9999,964054128
34,8,21,Ticks_Linear_5,143,9999,9999,9999,964814972
34,8,21,Ticks_Linear_5,144,9999,9999,9999,965574784
34,8,21,Ticks_Linear_5,145,9999,9999,9999,966344776
34,8,21,Ticks_Linear_5,146,9999,9999,9999,967114844
34,8,21,Ticks_Linear_5,147,9999,9999,9999,967884908
34,8,21,Ticks_Linear_5,148,9999,9999,9999,968654904
34,8,21,Ticks_Linear_5,149,9999,9999,9999,969424972
34,8,21,Ticks_Linear_5,150,9999,9999,9999,970204252
34,8,21,Ticks_Linear_5,151,9999,9999,9999,970984504
34,8,21,Ticks_Linear_5,152,9999,9999,9999,971764828
34,8,21,Ticks_Linear_5,153,9999,9999,9999,972544108
34,8,21,Ticks_Linear_5,154,9999,9999,9999,973324360
34,8,21,Ticks_Linear_5,155,9999,9999,9999,974114876
34,8,21,Ticks_Linear_5,156,9999,9999,9999,974904420
34,8,21,Ticks_Linear_5,157,9999,9999,9999,975694924
34,8,21,Ticks_Linear_5,158,9999,9999,9999,976484464
34,8,21,Ticks_Linear_5,159,9999,9999,9999,977274976
34,8,21,Ticks_Linear_5,160,9999,9999,9999,978074700
34,8,21,Ticks_Linear_5,161,9999,9999,9999,978874432
34,8,21,Ticks_Linear_5,162,9999,9999,9999,979674172
34,8,21,Ticks_Linear_5,163,9999,9999,9999,980474940
34,8,21,Ticks_Linear_5,164,9999,9999,9999,981274744
34,8,21,Ticks_Linear_5,165,9999,9999,9999,982084728
34,8,21,Ticks_Linear_5,166,9999,9999,9999,982894708
34,8,21,Ticks_Linear_5,167,9999,9999,9999,983704688
34,8,21,Ticks_Linear_5,168,9999,9999,9999,984514672
34,8,21,Ticks_Linear_5,169,9999,9999,9999,985324604
34,9,9,Ticks_ISO_T2_8,0,5,42,127,997745252
34,9,9,Ticks_ISO_T2_8,1,5,42,127,998544712
34,9,9,Ticks_ISO_T2_8,2,5,42,127,999344616
34,9,9,Ticks_ISO_T2_8,3,1,48,56,999448436
34,9,9,Ticks_ISO_T2_8,4,5,42,127,1000145272
34,9,9,Ticks_ISO_T2_8,5,1,48,60,1000182872
34,9,9,Ticks_ISO_T2_8,6,1,48,58,1000905024
34,9,9,Ticks_ISO_T2_8,7,5,42,127,1000945000
34,9,9,Ticks_ISO_T2_8,8,1,48,56,1001693084
34,9,9,Ticks_ISO_T2_8,9,5,42,127,1001744880
34,9,9,Ticks_ISO_T2_8,10,1,48,51,1002533360
34,9,9,Ticks_ISO_T2_8,11,5,42,127,1002544388
34,9,9,Ticks_ISO_T2_8,12,1,48,54,1003326736
34,9,9,Ticks_ISO_T2_8,13,5,42,127,1003345244
34,9,9,Ticks_ISO_T2_8,14,5,42,127,1004144908
34,9,9,Ticks_ISO_T2_8,15,1,48,53,1004150644
34,9,9,Ticks_ISO_T2_8,16,1,48,52,1004906152
34,9,9,Ticks_ISO_T2_8,17,5,42,127,1004945008
34,9,9,Ticks_ISO_T2_8,18,5,42,127,1005744524
34,9,9,Ticks_ISO_T2_8,19,1,48,47,1005772720
34,9,9,Ticks_ISO_T2_8,20,1,48,50,1006530304
34,9,9,Ticks_ISO_T2_8,21,5,42,127,1006545172
34,9,9,Ticks_ISO_T2_8,22,1,48,48,1007323332
34,9,9,Ticks_ISO_T2_8,23,5,42,127,1007344904
34,9,9,Ticks_ISO_T2_8,24,1,48,42,1008141236
34,9,9,Ticks_ISO_T2_8,25,5,42,127,1008144936
34,9,9,Ticks_ISO_T2_8,26,1,48,46,1008902376
34,9,9,Ticks_ISO_T2_8,27,5,42,127,1008944596
34,9,9,Ticks_ISO_T2_8,28,1,48,58,1009738388
34,9,9,Ticks_ISO_T2_8,29,5,42,127,1009745376
34,9,9,Ticks_ISO_T2_8,30,5,42,127,1010544892
34,9,9,Ticks_ISO_T2_8,31,1,48,59,1010567460
34,9,9,Ticks_ISO_T2_8,32,1,48,58,1011323788
34,9,9,Ticks_ISO_T2_8,33,5,42,127,1011344840
34,9,9,Ticks_ISO_T2_8,34,1,48,61,1012138784
34,9,9,Ticks_ISO_T2_8,35,5,42,127,1012144576
34,9,9,Ticks_ISO_T2_8,36,5,42,127,1012945164
34,9,9,Ticks_ISO_T2_8,37,1,48,58,1012951948
34,9,9,Ticks_ISO_T2_8,38,1,48,55,1013741940
34,9,9,Ticks_ISO_T2_8,39,5,42,127,1013744968
34,9,9,Ticks_ISO_T2_8,40,5,42,127,1014544708
34,9,9,Ticks_ISO_T2_8,41,1,48,48,1014551644
34,9,9,Ticks_ISO_T2_8,42,1,38,13,1014563140
34,9,9,Ticks_ISO_T2_8,43,1,48,56,1015328720
34,9,9,Ticks_ISO_T2_8,44,5,42,127,1015344536
34,9,9,Ticks_ISO_T2_8,45,5,42,127,1016145548
34,9,9,Ticks_ISO_T2_8,46,1,48,65,1016159516
34,9,9,Ticks_ISO_T2_8,47,1,48,61,1016914128
34,9,9,Ticks_ISO_T2_8,48,5,42,127,1016944904
34,9,9,Ticks_ISO_T2_8,49,1,48,67,1017696884
34,9,9,Ticks_ISO_T2_8,50,5,42,127,1017744636
34,9,9,Ticks_ISO_T2_8,51,1,48,70,1018508364
34,9,9,Ticks_ISO_T2_8,52,5,42,127,1018544448
34,9,9,Ticks_ISO_T2_8,53,5,42,127,1019345108
34,9,9,Ticks_ISO_T2_8,54,1,48,61,1019355032
34,9,9,Ticks_ISO_T2_8,55,5,42,127,1020145140
34,9,9,Ticks_ISO_T2_8,56,1,48,55,1020152972
34,9,9,Ticks_ISO_T2_8,57,5,42,127,1020944800
34,9,9,Ticks_ISO_T2_8,58,1,48,59,1020951208
34,9,9,Ticks_ISO_T2_8,59,1,48,52,1021728788
34,9,9,Ticks_ISO_T2_8,60,5,42,127,1021744452
34,9,9,Ticks_ISO_T2_8,61,5,42,127,1022545388
34,9,9,Ticks_ISO_T2_8,62,1,48,58,1022551872
34,9,9,Ticks_ISO_T2_8,63,1,48,59,1023327284
34,9,9,Ticks_ISO_T2_8,64,5,42,127,1023345188
34,9,9,Ticks_ISO_T2_8,65,5,42,127,1024144856
34,9,9,Ticks_ISO_T2_8,66,1,48,61,1024155228
34,9,9,Ticks_ISO_T2_8,67,1,48,63,1024943072
34,9,9,Ticks_ISO_T2_8,68,5,42,127,1024944952
34,9,9,Ticks_ISO_T2_8,69,1,48,57,1025741612
34,9,9,Ticks_ISO_T2_8,70,5,42,127,1025745312
34,9,9,Ticks_ISO_T2_8,71,1,48,59,1026543308
34,9,9,Ticks_ISO_T2_8,72,5,42,127,1026545124
34,9,9,Ticks_ISO_T2_8,73,1,48,66,1027323652
34,9,9,Ticks_ISO_T2_8,74,5,42,127,1027344856
34,9,9,Ticks_ISO_T2_8,75,1,48,62,1028136476
34,9,9,Ticks_ISO_T2_8,76,5,42,127,1028144588
34,9,9,Ticks_ISO_T2_8,77,1,48,60,1028930676
34,9,9,Ticks_ISO_T2_8,78,5,42,127,1028945220
34,9,9,Ticks_ISO_T2_8,79,1,48,57,1029723972
34,9,9,Ticks_ISO_T2_8,80,5,42,127,1029744952
34,9,9,Ticks_ISO_T2_8,81,1,48,55,1030533656
34,9,9,Ticks_ISO_T2_8,82,5,42,127,1030544684
34,9,9,Ticks_ISO_T2_8,83,1,48,64,1031338624
34,9,9,Ticks_ISO_T2_8,84,5,42,127,1031344568
34,9,9,Ticks_ISO_T2_8,85,1,48,64,1032143484
34,9,9,Ticks_ISO_T2_8,86,5,42,127,1032145148
34,9,9,Ticks_ISO_T2_8,87,5,42,127,1032944964
34,9,9,Ticks_ISO_T2_8,88,1,48,61,1032956160
34,9,9,Ticks_ISO_T2_8,89,5,42,127,1033744844
34,9,9,Ticks_ISO_T2_8,90,1,48,55,1033748564
34,9,9,Ticks_ISO_T2_8,91,1,48,64,1034544656
34,9,9,Ticks_ISO_T2_8,92,5,42,127,1034546296
34,9,9,Ticks_ISO_T2_8,93,5,42,127,1035345360
34,9,9,Ticks_ISO_T2_8,94,1,48,67,1035373912
34,9,9,Ticks_ISO_T2_8,95,1,48,62,1036129576
34,9,9,Ticks_ISO_T2_8,96,5,42,127,1036144940
34,9,9,Ticks_ISO_T2_8,97,1,48,59,1036903348
34,9,9,Ticks_ISO_T2_8,98,5,42,127,1036944748
34,9,9,Ticks_ISO_T2_8,99,1,48,63,1037735396
34,9,9,Ticks_ISO_T2_8,100,5,42,127,1037744480
34,9,9,Ticks_ISO_T2_8,101,5,42,127,1038545368
34,9,9,Ticks_ISO_T2_8,102,1,48,63,1038554396
34,9,9,Ticks_ISO_T2_8,103,1,48,62,1039343360
34,9,9,Ticks_ISO_T2_8,104,5,42,127,1039345168
34,9,9,Ticks_ISO_T2_8,105,1,48,60,1040132972
34,9,9,Ticks_ISO_T2_8,106,5,42,127,1040144604
34,9,9,Ticks_ISO_T2_8,107,1,48,57,1040925828
34,9,9,Ticks_ISO_T2_8,108,5,42,127,1040944412
34,9,9,Ticks_ISO_T2_8,109,1,48,65,1041734236
34,9,9,Ticks_ISO_T2_8,110,5,42,127,1041745264
34,9,9,Ticks_ISO_T2_8,111,1,48,57,1042531276
34,9,9,Ticks_ISO_T2_8,112,5,42,127,1042545000
34,9,9,Ticks_ISO_T2_8,113,5,42,127,1043344816
34,9,9,Ticks_ISO_T2_8,114,1,48,54,1043362224
34,9,9,Ticks_ISO_T2_8,115,1,48,60,1044102252
34,9,9,Ticks_ISO_T2_8,116,5,42,127,1044144544
34,9,9,Ticks_ISO_T2_8,117,1,48,59,1044900936
34,9,9,Ticks_ISO_T2_8,118,5,42,127,1044945200
34,9,9,Ticks_ISO_T2_8,119,5,42,127,1045744936
34,9,9,Ticks_ISO_T2_8,120,1,48,49,1045752244
34,9,9,Ticks_ISO_T2_8,121,5,42,127,1046544968
34,9,9,Ticks_ISO_T2_8,122,1,48,55,1046563124
34,9,9,Ticks_ISO_T2_8,123,1,48,62,1047292380
34,9,9,Ticks_ISO_T2_8,124,5,42,127,1047344472
34,9,9,Ticks_ISO_T2_8,125,1,48,62,1048105352
34,9,9,Ticks_ISO_T2_8,126,5,42,127,1048145176
34,9,9,Ticks_ISO_T2_8,127,5,42,127,1048944992
34,9,9,Ticks_ISO_T2_8,128,1,48,62,1048951772
34,9,9,Ticks_ISO_T2_8,129,5,42,127,1049744872
34,9,9,Ticks_ISO_T2_8,130,1,48,58,1049761232
34,9,9,Ticks_ISO_T2_8,131,5,42,127,1050544756
34,9,9,Ticks_ISO_T2_8,132,1,48,53,1050553112
34,9,9,Ticks_ISO_T2_8,133,1,48,57,1051318572
34,9,9,Ticks_ISO_T2_8,134,5,42,127,1051345332
34,9,9,Ticks_ISO_T2_8,135,5,42,127,1052144920
34,9,9,Ticks_ISO_T2_8,136,1,48,54,1052150432
34,9,9,Ticks_ISO_T2_8,137,1,48,57,1052940580
34,9,9,Ticks_ISO_T2_8,138,5,42,127,1052944724
34,9,9,Ticks_ISO_T2_8,139,5,42,127,1053744688
34,9,9,Ticks_ISO_T2_8,140,1,48,51,1053759176
34,9,9,Ticks_ISO_T2_8,141,1,48,58,1054522840
34,9,9,Ticks_ISO_T2_8,142,5,42,127,1054545164
34,9,9,Ticks_ISO_T2_8,143,5,42,127,1055345048
34,9,9,Ticks_ISO_T2_8,144,1,48,64,1055349364
34,9,9,Ticks_ISO_T2_8,145,5,42,127,1056144636
34,9,9,Ticks_ISO_T2_8,146,1,48,55,1056147376
34,9,9,Ticks_ISO_T2_8,147,1,48,55,1056902884
34,9,9,Ticks_ISO_T2_8,148,5,42,127,1056944732
34,9,9,Ticks_ISO_T2_8,149,5,42,127,1057745472
34,9,9,Ticks_ISO_T2_8,150,1,48,59,1057763100
34,9,9,Ticks_ISO_T2_8,151,1,48,55,1058533720
34,9,9,Ticks_ISO_T2_8,152,5,42,127,1058544900
34,9,9,Ticks_ISO_T2_8,153,1,48,51,1059318644
34,9,9,Ticks_ISO_T2_8,154,5,42,127,1059344632
34,9,9,Ticks_ISO_T2_8,155,1,48,58,1060102892
34,9,9,Ticks_ISO_T2_8,156,5,42,127,1060144440
34,9,9,Ticks_ISO_T2_8,157,5,42,127,1060945228
34,9,9,Ticks_ISO_T2_8,158,1,48,65,1060955156
34,9,9,Ticks_ISO_T2_8,159,1,48,67,1061719120
34,9,9,Ticks_ISO_T2_8,160,5,42,127,1061745176
34,9,9,Ticks_ISO_T2_8,161,1,48,61,1062495440
34,9,9,Ticks_ISO_T2_8,162,5,42,127,1062544688
34,9,9,Ticks_ISO_T2_8,163,1,48,60,1063317012
34,9,9,Ticks_ISO_T2_8,164,5,42,127,1063344496
34,9,9,Ticks_ISO_T2_8,165,1,48,58,1064134120
34,9,9,Ticks_ISO_T2_8,166,5,42,127,1064145228
34,9,9,Ticks_ISO_T2_8,167,1,48,65,1064944588
34,9,9,Ticks_ISO_T2_8,168,5,42,127,1064946380
34,9,9,Ticks_ISO_T2_8,169,1,48,51,1065740244
34,9,9,Ticks_ISO_T2_8,170,5,42,127,1065744620
34,9,9,Ticks_ISO_T2_8,171,1,48,63,1066496076
34,9,9,Ticks_ISO_T2_8,172,5,42,127,1066544500
34,9,9,Ticks_ISO_T2_8,173,1,48,59,1067332832
34,9,9,Ticks_ISO_T2_8,174,5,42,127,1067345208
34,9,9,Ticks_ISO_T2_8,175,5,42,127,1068145096
34,9,9,Ticks_ISO_T2_8,176,1,48,56,1068155172
34,9,9,Ticks_ISO_T2_8,177,1,48,58,1068938804
34,9,9,Ticks_ISO_T2_8,178,5,42,127,1068944896
34,9,9,Ticks_ISO_T2_8,179,1,48,58,1069695752
34,9,9,Ticks_ISO_T2_8,180,5,42,127,1069744480
34,9,9,Ticks_ISO_T2_8,181,1,48,60,1070514932
34,9,9,Ticks_ISO_T2_8,182,5,42,127,1070545284
34,9,9,Ticks_ISO_T2_8,183,5,42,127,1071344952
34,9,9,Ticks_ISO_T2_8,184,1,48,57,1071345840
34,9,9,Ticks_ISO_T2_8,185,1,48,51,1072137988
34,9,9,Ticks_ISO_T2_8,186,5,42,127,1072144900
34,9,9,Ticks_ISO_T2_8,187,5,42,127,1072944496
34,9,9,Ticks_ISO_T2_8,188,1,48,54,1072975964
34,9,9,Ticks_ISO_T2_8,189,1,48,48,1073728632
34,9,9,Ticks_ISO_T2_8,190,5,42,127,1073745116
34,9,9,Ticks_ISO_T2_8,191,1,48,50,1074503380
34,9,9,Ticks_ISO_T2_8,192,5,42,127,1074545076
34,9,9,Ticks_ISO_T2_8,193,1,48,55,1075335204
34,9,9,Ticks_ISO_T2_8,194,5,42,127,1075344808
34,9,9,Ticks_ISO_T2_8,195,1,48,56,1076123116
34,9,9,Ticks_ISO_T2_8,196,5,42,127,1076144468
34,9,9,Ticks_ISO_T2_8,197,1,48,57,1076921652
34,9,9,Ticks_ISO_T2_8,198,5,42,127,1076945496
34,9,9,Ticks_ISO_T2_8,199,5,42,127,1077744864
34,9,9,Ticks_ISO_T2_8,200,1,48,61,1077753144
34,9,9,Ticks_ISO_T2_8,201,1,48,55,1078537232
34,9,9,Ticks_ISO_T2_8,202,5,42,127,1078544888
34,9,9,Ticks_ISO_T2_8,203,1,48,50,1079330080
34,9,9,Ticks_ISO_T2_8,204,5,42,127,1079344476
34,9,9,Ticks_ISO_T2_8,205,1,48,61,1080116504
34,9,9,Ticks_ISO_T2_8,206,5,42,127,1080145480
34,9,9,Ticks_ISO_T2_8,207,5,42,127,1080945148
34,9,9,Ticks_ISO_T2_8,208,1,48,67,1080967864
34,9,9,Ticks_ISO_T2_8,209,5,42,127,1081744656
34,9,9,Ticks_ISO_T2_8,210,1,48,65,1081752484
34,9,9,Ticks_ISO_T2_8,211,1,48,59,1082536868
34,9,9,Ticks_ISO_T2_8,212,5,42,127,1082544532
34,9,9,Ticks_ISO_T2_8,213,1,48,57,1083302864
34,9,9,Ticks_ISO_T2_8,214,5,42,127,1083345336
34,9,9,Ticks_ISO_T2_8,215,1,48,51,1084113024
34,9,9,Ticks_ISO_T2_8,216,5,42,127,1084145072
34,9,9,Ticks_ISO_T2_8,217,1,48,60,1084917544
34,9,9,Ticks_ISO_T2_8,218,5,42,127,1084944656
34,9,9,Ticks_ISO_T2_8,219,5,42,127,1085744396
34,9,9,Ticks_ISO_T2_8,220,1,48,57,1085770696
34,9,9,Ticks_ISO_T2_8,221,5,42,127,1086545248
34,9,9,Ticks_ISO_T2_8,222,1,48,56,1086549044
34,9,9,Ticks_ISO_T2_8,223,1,48,58,1087321004
34,9,9,Ticks_ISO_T2_8,224,5,42,127,1087345196
34,9,9,Ticks_ISO_T2_8,225,5,42,127,1088144716
34,9,9,Ticks_ISO_T2_8,226,1,48,58,1088178124
34,9,9,Ticks_ISO_T2_8,227,1,48,49,1088918376
34,9,9,Ticks_ISO_T2_8,228,5,42,127,1088944444
34,9,9,Ticks_ISO_T2_8,229,1,48,51,1089722152
34,9,9,Ticks_ISO_T2_8,230,5,42,127,1089745248
34,9,9,Ticks_ISO_T2_8,231,5,42,127,1090544988
34,9,9,Ticks_ISO_T2_8,232,1,48,59,1090547436
34,9,9,Ticks_ISO_T2_8,233,1,48,65,1091329200
34,9,9,Ticks_ISO_T2_8,234,5,42,127,1091344788
34,9,9,Ticks_ISO_T2_8,235,1,48,66,1092124820
34,9,9,Ticks_ISO_T2_8,236,5,42,127,1092144376
34,9,9,Ticks_ISO_T2_8,237,1,48,57,1092917448
34,9,9,Ticks_ISO_T2_8,238,5,42,127,1092945232
34,9,9,Ticks_ISO_T2_8,0,9999,9999,9999,997742668
34,9,9,Ticks_ISO_T2_8,1,9999,9999,9999,998542424
34,9,9,Ticks_ISO_T2_8,2,9999,9999,9999,999342176
34,9,9,Ticks_ISO_T2_8,3,9999,9999,9999,1000142908
34,9,9,Ticks_ISO_T2_8,4,9999,9999,9999,1000942708
34,9,9,Ticks_ISO_T2_8,5,9999,9999,9999,1001742440
34,9,9,Ticks_ISO_T2_8,6,9999,9999,9999,1002542176
34,9,9,Ticks_ISO_T2_8,7,9999,9999,9999,1003342952
34,9,9,Ticks_ISO_T2_8,8,9999,9999,9999,1004142692
34,9,9,Ticks_ISO_T2_8,9,9999,9999,9999,1004942420
34,9,9,Ticks_ISO_T2_8,10,9999,9999,9999,1005742160
34,9,9,Ticks_ISO_T2_8,11,9999,9999,9999,1006542960
34,9,9,Ticks_ISO_T2_8,12,9999,9999,9999,1007342692
34,9,9,Ticks_ISO_T2_8,13,9999,9999,9999,1008142424
34,9,9,Ticks_ISO_T2_8,14,9999,9999,9999,1008942160
34,9,9,Ticks_ISO_T2_8,15,9999,9999,9999,1009742936
34,9,9,Ticks_ISO_T2_8,16,9999,9999,9999,1010542676
34,9,9,Ticks_ISO_T2_8,17,9999,9999,9999,1011342404
34,9,9,Ticks_ISO_T2_8,18,9999,9999,9999,1012142140
34,9,9,Ticks_ISO_T2_8,19,9999,9999,9999,1012942948
34,9,9,Ticks_ISO_T2_8,20,9999,9999,9999,1013742676
34,9,9,Ticks_ISO_T2_8,21,9999,9999,9999,1014542420
34,9,9,Ticks_ISO_T2_8,22,9999,9999,9999,1015342172
34,9,9,Ticks_ISO_T2_8,23,9999,9999,9999,1016142960
34,9,9,Ticks_ISO_T2_8,24,9999,9999,9999,1016942692
34,9,9,Ticks_ISO_T2_8,25,9999,9999,9999,1017742424
34,9,9,Ticks_ISO_T2_8,26,9999,9999,9999,1018542160
34,9,9,Ticks_ISO_T2_8,27,9999,9999,9999,1019342896
34,9,9,Ticks_ISO_T2_8,28,9999,9999,9999,1020142704
34,9,9,Ticks_ISO_T2_8,29,9999,9999,9999,1020942436
34,9,9,Ticks_ISO_T2_8,30,9999,9999,9999,1021742164
34,9,9,Ticks_ISO_T2_8,31,9999,9999,9999,1022542948
34,9,9,Ticks_ISO_T2_8,32,9999,9999,9999,1023342676
34,9,9,Ticks_ISO_T2_8,33,9999,9999,9999,1024142416
34,9,9,Ticks_ISO_T2_8,34,9999,9999,9999,1024942148
34,9,9,Ticks_ISO_T2_8,35,9999,9999,9999,1025742952
34,9,9,Ticks_ISO_T2_8,36,9999,9999,9999,1026542708
34,9,9,Ticks_ISO_T2_8,37,9999,9999,9999,1027342416
34,9,9,Ticks_ISO_T2_8,38,9999,9999,9999,1028142152
34,9,9,Ticks_ISO_T2_8,39,9999,9999,9999,1028942932
34,9,9,Ticks_ISO_T2_8,40,9999,9999,9999,1029742664
34,9,9,Ticks_ISO_T2_8,41,9999,9999,9999,1030542396
34,9,9,Ticks_ISO_T2_8,42,9999,9999,9999,1031342128
34,9,9,Ticks_ISO_T2_8,43,9999,9999,9999,1032142960
34,9,9,Ticks_ISO_T2_8,44,9999,9999,9999,1032942676
34,9,9,Ticks_ISO_T2_8,45,9999,9999,9999,1033742408
34,9,9,Ticks_ISO_T2_8,46,9999,9999,9999,1034542144
34,9,9,Ticks_ISO_T2_8,47,9999,9999,9999,1035342920
34,9,9,Ticks_ISO_T2_8,48,9999,9999,9999,1036142652
34,9,9,Ticks_ISO_T2_8,49,9999,9999,9999,1036942384
34,9,9,Ticks_ISO_T2_8,50,9999,9999,9999,1037742192
34,9,9,Ticks_ISO_T2_8,51,9999,9999,9999,1038542928
34,9,9,Ticks_ISO_T2_8,52,9999,9999,9999,1039342664
34,9,9,Ticks_ISO_T2_8,53,9999,9999,9999,1040142392
34,9,9,Ticks_ISO_T2_8,54,9999,9999,9999,1040942196
34,9,9,Ticks_ISO_T2_8,55,9999,9999,9999,1041742904
34,9,9,Ticks_ISO_T2_8,56,9999,9999,9999,1042542712
34,9,9,Ticks_ISO_T2_8,57,9999,9999,9999,1043342452
34,9,9,Ticks_ISO_T2_8,58,9999,9999,9999,1044142180
34,9,9,Ticks_ISO_T2_8,59,9999,9999,9999,1044942908
34,9,9,Ticks_ISO_T2_8,60,9999,9999,9999,1045742648
34,9,9,Ticks_ISO_T2_8,61,9999,9999,9999,1046542380
34,9,9,Ticks_ISO_T2_8,62,9999,9999,9999,1047342184
34,9,9,Ticks_ISO_T2_8,63,9999,9999,9999,1048142964
34,9,9,Ticks_ISO_T2_8,64,9999,9999,9999,1048942704
34,9,9,Ticks_ISO_T2_8,65,9999,9999,9999,1049742436
34,9,9,Ticks_ISO_T2_8,66,9999,9999,9999,1050542172
34,9,9,Ticks_ISO_T2_8,67,9999,9999,9999,1051342968
34,9,9,Ticks_ISO_T2_8,68,9999,9999,9999,1052142708
34,9,9,Ticks_ISO_T2_8,69,9999,9999,9999,1052942436
34,9,9,Ticks_ISO_T2_8,70,9999,9999,9999,1053742176
34,9,9,Ticks_ISO_T2_8,71,9999,9999,9999,1054542948
34,9,9,Ticks_ISO_T2_8,72,9999,9999,9999,1055342688
34,9,9,Ticks_ISO_T2_8,73,9999,9999,9999,1056142420
34,9,9,Ticks_ISO_T2_8,74,9999,9999,9999,1056942148
34,9,9,Ticks_ISO_T2_8,75,9999,9999,9999,1057742956
34,9,9,Ticks_ISO_T2_8,76,9999,9999,9999,1058542684
34,9,9,Ticks_ISO_T2_8,77,9999,9999,9999,1059342420
34,9,9,Ticks_ISO_T2_8,78,9999,9999,9999,1060142152
34,9,9,Ticks_ISO_T2_8,79,9999,9999,9999,1060942940
34,9,9,Ticks_ISO_T2_8,80,9999,9999,9999,1061742664
34,9,9,Ticks_ISO_T2_8,81,9999,9999,9999,1062542400
34,9,9,Ticks_ISO_T2_8,82,9999,9999,9999,1063342132
34,9,9,Ticks_ISO_T2_8,83,9999,9999,9999,1064142936
34,9,9,Ticks_ISO_T2_8,84,9999,9999,9999,1064942676
34,9,9,Ticks_ISO_T2_8,85,9999,9999,9999,1065742404
34,9,9,Ticks_ISO_T2_8,86,9999,9999,9999,1066542140
34,9,9,Ticks_ISO_T2_8,87,9999,9999,9999,1067342916
34,9,9,Ticks_ISO_T2_8,88,9999,9999,9999,1068142656
34,9,9,Ticks_ISO_T2_8,89,9999,9999,9999,1068942384
34,9,9,Ticks_ISO_T2_8,90,9999,9999,9999,1069742192
34,9,9,Ticks_ISO_T2_8,91,9999,9999,9999,1070542920
34,9,9,Ticks_ISO_T2_8,92,9999,9999,9999,1071342660
34,9,9,Ticks_ISO_T2_8,93,9999,9999,9999,1072142388
34,9,9,Ticks_ISO_T2_8,94,9999,9999,9999,1072942132
34,9,9,Ticks_ISO_T2_8,95,9999,9999,9999,1073742904
34,9,9,Ticks_ISO_T2_8,96,9999,9999,9999,1074542636
34,9,9,Ticks_ISO_T2_8,97,9999,9999,9999,1075342444
34,9,9,Ticks_ISO_T2_8,98,9999,9999,9999,1076142180
34,9,9,Ticks_ISO_T2_8,99,9999,9999,9999,1076942908
34,9,9,Ticks_ISO_T2_8,100,9999,9999,9999,1077742648
34,9,9,Ticks_ISO_T2_8,101,9999,9999,9999,1078542452
34,9,9,Ticks_ISO_T2_8,102,9999,9999,9999,1079342188
34,9,9,Ticks_ISO_T2_8,103,9999,9999,9999,1080142968
34,9,9,Ticks_ISO_T2_8,104,9999,9999,9999,1080942708
34,9,9,Ticks_ISO_T2_8,105,9999,9999,9999,1081742440
34,9,9,Ticks_ISO_T2_8,106,9999,9999,9999,1082542168
34,9,9,Ticks_ISO_T2_8,107,9999,9999,9999,1083342900
34,9,9,Ticks_ISO_T2_8,108,9999,9999,9999,1084142708
34,9,9,Ticks_ISO_T2_8,109,9999,9999,9999,1084942440
34,9,9,Ticks_ISO_T2_8,110,9999,9999,9999,1085742180
34,9,9,Ticks_ISO_T2_8,111,9999,9999,9999,1086542960
34,9,9,Ticks_ISO_T2_8,112,9999,9999,9999,1087342684
34,9,9,Ticks_ISO_T2_8,113,9999,9999,9999,1088142424
34,9,9,Ticks_ISO_T2_8,114,9999,9999,9999,1088942152
34,9,9,Ticks_ISO_T2_8,115,9999,9999,9999,1089742960
34,9,9,Ticks_ISO_T2_8,116,9999,9999,9999,1090542700
34,9,9,Ticks_ISO_T2_8,117,9999,9999,9999,1091342424
34,9,9,Ticks_ISO_T2_8,118,9999,9999,9999,1092142160
34,9,9,Ticks_ISO_T2_8,119,9999,9999,9999,1092942940
34,10,10,Ticks_ISO_T2_5,0,5,42,127,1108500872
34,10,10,Ticks_ISO_T2_5,1,5,42,127,1109000588
34,10,10,Ticks_ISO_T2_5,2,5,42,127,1109501276
34,10,10,Ticks_ISO_T2_5,3,5,42,127,1110001068
34,10,10,Ticks_ISO_T2_5,4,5,42,127,1110500856
34,10,10,Ticks_ISO_T2_5,5,1,48,66,1110510256
34,10,10,Ticks_ISO_T2_5,6,5,42,127,1111000404
34,10,10,Ticks_ISO_T2_5,7,1,48,74,1111017432
34,10,10,Ticks_ISO_T2_5,8,5,42,127,1111501220
34,10,10,Ticks_ISO_T2_5,9,1,48,67,1111507632
34,10,10,Ticks_ISO_T2_5,10,1,48,66,1111991576
34,10,10,Ticks_ISO_T2_5,11,5,42,127,1112000836
34,10,10,Ticks_ISO_T2_5,12,1,48,66,1112475040
34,10,10,Ticks_ISO_T2_5,13,5,42,127,1112500800
34,10,10,Ticks_ISO_T2_5,14,1,48,63,1112979968
34,10,10,Ticks_ISO_T2_5,15,5,42,127,1113001244
34,10,10,Ticks_ISO_T2_5,16,1,48,66,1113495968
34,10,10,Ticks_ISO_T2_5,17,5,42,127,1113501088
34,10,10,Ticks_ISO_T2_5,18,1,48,70,1113996788
34,10,10,Ticks_ISO_T2_5,19,5,42,127,1114000636
34,10,10,Ticks_ISO_T2_5,20,5,42,127,1114500412
34,10,10,Ticks_ISO_T2_5,21,1,48,55,1114525516
34,10,10,Ticks_ISO_T2_5,22,5,42,127,1115001228
34,10,10,Ticks_ISO_T2_5,23,1,48,63,1115030372
34,10,10,Ticks_ISO_T2_5,24,1,48,66,1115485400
34,10,10,Ticks_ISO_T2_5,25,5,42,127,1115500840
34,10,10,Ticks_ISO_T2_5,26,1,48,61,1115968764
34,10,10,Ticks_ISO_T2_5,27,5,42,127,1116000808
34,10,10,Ticks_ISO_T2_5,28,1,48,63,1116478180
34,10,10,Ticks_ISO_T2_5,29,5,42,127,1116501548
34,10,10,Ticks_ISO_T2_5,30,5,42,127,1117001028
34,10,10,Ticks_ISO_T2_5,31,1,48,65,1117014468
34,10,10,Ticks_ISO_T2_5,32,5,42,127,1117500724
34,10,10,Ticks_ISO_T2_5,33,1,48,69,1117519548
34,10,10,Ticks_ISO_T2_5,34,5,42,127,1118000564
34,10,10,Ticks_ISO_T2_5,35,1,48,63,1118011616
34,10,10,Ticks_ISO_T2_5,36,1,48,64,1118494232
34,10,10,Ticks_ISO_T2_5,37,5,42,127,1118501300
34,10,10,Ticks_ISO_T2_5,38,1,48,62,1118984580
34,10,10,Ticks_ISO_T2_5,39,5,42,127,1119000844
34,10,10,Ticks_ISO_T2_5,40,1,48,67,1119485692
34,10,10,Ticks_ISO_T2_5,41,5,42,127,1119500616
34,10,10,Ticks_ISO_T2_5,42,1,48,67,1120000836
34,10,10,Ticks_ISO_T2_5,43,5,42,127,1120002552
34,10,10,Ticks_ISO_T2_5,44,5,42,127,1120501132
34,10,10,Ticks_ISO_T2_5,45,1,48,62,1120507320
34,10,10,Ticks_ISO_T2_5,46,1,48,68,1121000676
34,10,10,Ticks_ISO_T2_5,47,5,42,127,1121002460
34,10,10,Ticks_ISO_T2_5,48,1,48,57,1121493224
34,10,10,Ticks_ISO_T2_5,49,5,42,127,1121500736
34,10,10,Ticks_ISO_T2_5,50,1,48,62,1121988956
34,10,10,Ticks_ISO_T2_5,51,5,42,127,1122001256
34,10,10,Ticks_ISO_T2_5,52,1,48,58,1122497552
34,10,10,Ticks_ISO_T2_5,53,5,42,127,1122501172
34,10,10,Ticks_ISO_T2_5,54,5,42,127,1123000552
34,10,10,Ticks_ISO_T2_5,55,1,48,63,1123004140
34,10,10,Ticks_ISO_T2_5,56,1,48,70,1123500160
34,10,10,Ticks_ISO_T2_5,57,5,42,127,1123501880
34,10,10,Ticks_ISO_T2_5,58,1,48,62,1123988532
34,10,10,Ticks_ISO_T2_5,59,5,42,127,1124001352
34,10,10,Ticks_ISO_T2_5,60,5,42,127,1124500980
34,10,10,Ticks_ISO_T2_5,61,1,48,61,1124516364
34,10,10,Ticks_ISO_T2_5,62,1,48,51,1124986272
34,10,10,Ticks_ISO_T2_5,63,5,42,127,1125000592
34,10,10,Ticks_ISO_T2_5,64,1,48,65,1125488136
34,10,10,Ticks_ISO_T2_5,65,5,42,127,1125501332
34,10,10,Ticks_ISO_T2_5,66,5,42,127,1126001036
34,10,10,Ticks_ISO_T2_5,67,1,48,57,1126002000
34,10,10,Ticks_ISO_T2_5,68,5,42,127,1126500656
34,10,10,Ticks_ISO_T2_5,69,1,48,60,1126519556
34,10,10,Ticks_ISO_T2_5,70,5,42,127,1127000352
34,10,10,Ticks_ISO_T2_5,71,1,48,57,1127001316
34,10,10,Ticks_ISO_T2_5,72,5,42,127,1127501168
34,10,10,Ticks_ISO_T2_5,73,1,48,61,1127502504
34,10,10,Ticks_ISO_T2_5,74,1,48,63,1127990280
34,10,10,Ticks_ISO_T2_5,75,5,42,127,1128000932
34,10,10,Ticks_ISO_T2_5,76,5,42,127,1128500484
34,10,10,Ticks_ISO_T2_5,77,1,48,57,1128510560
34,10,10,Ticks_ISO_T2_5,78,1,48,63,1128987872
34,10,10,Ticks_ISO_T2_5,79,5,42,127,1129001292
34,10,10,Ticks_ISO_T2_5,80,1,48,60,1129470956
34,10,10,Ticks_ISO_T2_5,81,5,42,127,1129501136
34,10,10,Ticks_ISO_T2_5,82,1,48,63,1129994060
34,10,10,Ticks_ISO_T2_5,83,5,42,127,1130000680
34,10,10,Ticks_ISO_T2_5,84,1,48,62,1130500604
34,10,10,Ticks_ISO_T2_5,85,5,42,127,1130502016
34,10,10,Ticks_ISO_T2_5,86,5,42,127,1131001196
34,10,10,Ticks_ISO_T2_5,87,1,48,65,1131010972
34,10,10,Ticks_ISO_T2_5,88,5,42,127,1131501040
34,10,10,Ticks_ISO_T2_5,89,1,48,68,1131502008
34,10,10,Ticks_ISO_T2_5,90,1,48,60,1131988280
34,10,10,Ticks_ISO_T2_5,91,5,42,127,1132000728
34,10,10,Ticks_ISO_T2_5,92,1,48,50,1132471496
34,10,10,Ticks_ISO_T2_5,93,5,42,127,1132501248
34,10,10,Ticks_ISO_T2_5,94,1,48,50,1132983532
34,10,10,Ticks_ISO_T2_5,95,5,42,127,1133001016
34,10,10,Ticks_ISO_T2_5,96,1,48,40,1133464972
34,10,10,Ticks_ISO_T2_5,97,5,42,127,1133500932
34,10,10,Ticks_ISO_T2_5,98,1,48,62,1133987256
34,10,10,Ticks_ISO_T2_5,99,5,42,127,1134000528
34,10,10,Ticks_ISO_T2_5,100,1,48,65,1134489868
34,10,10,Ticks_ISO_T2_5,101,5,42,127,1134501120
34,10,10,Ticks_ISO_T2_5,102,1,48,69,1134983124
34,10,10,Ticks_ISO_T2_5,103,5,42,127,1135001040
34,10,10,Ticks_ISO_T2_5,104,1,48,63,1135496516
34,10,10,Ticks_ISO_T2_5,105,5,42,127,1135500732
34,10,10,Ticks_ISO_T2_5,106,5,42,127,1136001332
34,10,10,Ticks_ISO_T2_5,107,1,48,72,1136004452
34,10,10,Ticks_ISO_T2_5,108,5,42,127,1136501028
34,10,10,Ticks_ISO_T2_5,109,1,48,60,1136510428
34,10,10,Ticks_ISO_T2_5,110,5,42,127,1137000796
34,10,10,Ticks_ISO_T2_5,111,1,48,57,1137013488
34,10,10,Ticks_ISO_T2_5,112,5,42,127,1137500788
34,10,10,Ticks_ISO_T2_5,113,1,48,55,1137508996
34,10,10,Ticks_ISO_T2_5,114,5,42,127,1138001380
34,10,10,Ticks_ISO_T2_5,115,1,48,55,1138017668
34,10,10,Ticks_ISO_T2_5,116,1,48,51,1138489216
34,10,10,Ticks_ISO_T2_5,117,5,42,127,1138500996
34,10,10,Ticks_ISO_T2_5,118,5,42,127,1139000552
34,10,10,Ticks_ISO_T2_5,119,1,48,51,1139007936
34,10,10,Ticks_ISO_T2_5,120,5,42,127,1139501592
34,10,10,Ticks_ISO_T2_5,121,1,48,49,1139508972
34,10,10,Ticks_ISO_T2_5,122,1,48,51,1139986356
34,10,10,Ticks_ISO_T2_5,123,5,42,127,1140001204
34,10,10,Ticks_ISO_T2_5,124,1,48,60,1140498172
34,10,10,Ticks_ISO_T2_5,125,5,42,127,1140500824
34,10,10,Ticks_ISO_T2_5,126,5,42,127,1141000600
34,10,10,Ticks_ISO_T2_5,127,1,48,66,1141006864
34,10,10,Ticks_ISO_T2_5,128,5,42,127,1141501268
34,10,10,Ticks_ISO_T2_5,129,1,48,54,1141502752
34,10,10,Ticks_ISO_T2_5,130,1,48,58,1142001408
34,10,10,Ticks_ISO_T2_5,131,5,42,127,1142002828
34,10,10,Ticks_ISO_T2_5,132,1,48,61,1142499680
34,10,10,Ticks_ISO_T2_5,133,5,42,127,1142501472
34,10,10,Ticks_ISO_T2_5,134,5,42,127,1143000352
34,10,10,Ticks_ISO_T2_5,135,1,48,59,1143003396
34,10,10,Ticks_ISO_T2_5,136,5,42,127,1143501168
34,10,10,Ticks_ISO_T2_5,137,1,48,51,1143525152
34,10,10,Ticks_ISO_T2_5,138,5,42,127,1144001012
34,10,10,Ticks_ISO_T2_5,139,1,48,57,1144004128
34,10,10,Ticks_ISO_T2_5,140,5,42,127,1144500456
34,10,10,Ticks_ISO_T2_5,141,1,48,56,1144510328
34,10,10,Ticks_ISO_T2_5,142,1,48,62,1144975652
34,10,10,Ticks_ISO_T2_5,143,5,42,127,1145001192
34,10,10,Ticks_ISO_T2_5,144,1,48,54,1145497484
34,10,10,Ticks_ISO_T2_5,145,5,42,127,1145501184
34,10,10,Ticks_ISO_T2_5,146,5,42,127,1146000664
34,10,10,Ticks_ISO_T2_5,147,1,48,48,1146006320
34,10,10,Ticks_ISO_T2_5,148,1,48,56,1146495080
34,10,10,Ticks_ISO_T2_5,149,5,42,127,1146500348
34,10,10,Ticks_ISO_T2_5,150,1,48,46,1146997844
34,10,10,Ticks_ISO_T2_5,151,5,42,127,1147001092
34,10,10,Ticks_ISO_T2_5,152,1,48,51,1147489388
34,10,10,Ticks_ISO_T2_5,153,5,42,127,1147501088
34,10,10,Ticks_ISO_T2_5,154,1,48,51,1147994540
34,10,10,Ticks_ISO_T2_5,155,5,42,127,1148000632
34,10,10,Ticks_ISO_T2_5,156,1,48,52,1148486080
34,10,10,Ticks_ISO_T2_5,157,5,42,127,1148501300
34,10,10,Ticks_ISO_T2_5,158,1,48,51,1148987872
34,10,10,Ticks_ISO_T2_5,159,5,42,127,1149001216
34,10,10,Ticks_ISO_T2_5,160,1,48,50,1149488908
34,10,10,Ticks_ISO_T2_5,161,5,42,127,1149500984
34,10,10,Ticks_ISO_T2_5,162,1,48,59,1149988008
34,10,10,Ticks_ISO_T2_5,163,5,42,127,1150000456
34,10,10,Ticks_ISO_T2_5,164,1,48,53,1150500524
34,10,10,Ticks_ISO_T2_5,165,5,42,127,1150502320
34,10,10,Ticks_ISO_T2_5,166,5,42,127,1151001048
34,10,10,Ticks_ISO_T2_5,167,1,48,54,1151006560
34,10,10,Ticks_ISO_T2_5,168,1,48,59,1151485816
34,10,10,Ticks_ISO_T2_5,169,5,42,127,1151500588
34,10,10,Ticks_ISO_T2_5,170,1,48,56,1151994712
34,10,10,Ticks_ISO_T2_5,171,5,42,127,1152001256
34,10,10,Ticks_ISO_T2_5,172,1,48,51,1152476388
34,10,10,Ticks_ISO_T2_5,173,5,42,127,1152501176
34,10,10,Ticks_ISO_T2_5,174,1,48,51,1152991712
34,10,10,Ticks_ISO_T2_5,175,5,42,127,1153000944
34,10,10,Ticks_ISO_T2_5,176,1,48,57,1153483928
34,10,10,Ticks_ISO_T2_5,177,5,42,127,1153500640
34,10,10,Ticks_ISO_T2_5,178,1,48,67,1153950308
34,10,10,Ticks_ISO_T2_5,179,5,42,127,1154001156
34,10,10,Ticks_ISO_T2_5,180,5,42,127,1154500932
34,10,10,Ticks_ISO_T2_5,181,1,48,64,1154520804
34,10,10,Ticks_ISO_T2_5,182,5,42,127,1155000852
34,10,10,Ticks_ISO_T2_5,183,1,48,74,1155017812
34,10,10,Ticks_ISO_T2_5,184,1,48,87,1155494644
34,10,10,Ticks_ISO_T2_5,185,5,42,127,1155501336
34,10,10,Ticks_ISO_T2_5,186,1,48,75,1155985740
34,10,10,Ticks_ISO_T2_5,187,5,42,127,1156001104
34,10,10,Ticks_ISO_T2_5,188,1,48,57,1156475484
34,10,10,Ticks_ISO_T2_5,189,5,42,127,1156500876
34,10,10,Ticks_ISO_T2_5,190,1,48,72,1156966200
34,10,10,Ticks_ISO_T2_5,191,5,42,127,1157000720
34,10,10,Ticks_ISO_T2_5,192,1,48,59,1157483176
34,10,10,Ticks_ISO_T2_5,193,5,42,127,1157501236
34,10,10,Ticks_ISO_T2_5,194,5,42,127,1158000864
34,10,10,Ticks_ISO_T2_5,195,1,48,72,1158003760
34,10,10,Ticks_ISO_T2_5,196,1,48,70,1158485632
34,10,10,Ticks_ISO_T2_5,197,5,42,127,1158500700
34,10,10,Ticks_ISO_T2_5,198,1,48,76,1158978748
34,10,10,Ticks_ISO_T2_5,199,5,42,127,1159000396
34,10,10,Ticks_ISO_T2_5,200,1,48,80,1159494592
34,10,10,Ticks_ISO_T2_5,201,5,42,127,1159501136
34,10,10,Ticks_ISO_T2_5,202,1,48,71,1159979556
34,10,10,Ticks_ISO_T2_5,203,5,42,127,1160000832
34,10,10,Ticks_ISO_T2_5,204,1,48,77,1160477756
34,10,10,Ticks_ISO_T2_5,205,5,42,127,1160500528
34,10,10,Ticks_ISO_T2_5,206,1,48,71,1160969448
34,10,10,Ticks_ISO_T2_5,207,5,42,127,1161001344
34,10,10,Ticks_ISO_T2_5,208,1,48,73,1161486572
34,10,10,Ticks_ISO_T2_5,209,5,42,127,1161500892
34,10,10,Ticks_ISO_T2_5,210,1,48,78,1161987316
34,10,10,Ticks_ISO_T2_5,211,5,42,127,1162000660
34,10,10,Ticks_ISO_T2_5,212,1,48,66,1162465320
34,10,10,Ticks_ISO_T2_5,213,5,42,127,1162500652
34,10,10,Ticks_ISO_T2_5,214,1,48,81,1162960976
34,10,10,Ticks_ISO_T2_5,215,5,42,127,1163001472
34,10,10,Ticks_ISO_T2_5,216,1,48,80,1163483028
34,10,10,Ticks_ISO_T2_5,217,5,42,127,1163500868
34,10,10,Ticks_ISO_T2_5,218,1,48,71,1163981304
34,10,10,Ticks_ISO_T2_5,219,5,42,127,1164000488
34,10,10,Ticks_ISO_T2_5,220,1,48,83,1164482272
34,10,10,Ticks_ISO_T2_5,221,5,42,127,1164501604
34,10,10,Ticks_ISO_T2_5,222,1,48,89,1164973712
34,10,10,Ticks_ISO_T2_5,223,5,42,127,1165001076
34,10,10,Ticks_ISO_T2_5,224,1,48,85,1165480512
34,10,10,Ticks_ISO_T2_5,225,5,42,127,1165500768
34,10,10,Ticks_ISO_T2_5,226,1,48,75,1165982832
34,10,10,Ticks_ISO_T2_5,227,5,42,127,1166000588
34,10,10,Ticks_ISO_T2_5,228,1,48,76,1166495916
34,10,10,Ticks_ISO_T2_5,229,5,42,127,1166501408
34,10,10,Ticks_ISO_T2_5,230,1,48,73,1166994036
34,10,10,Ticks_ISO_T2_5,231,5,42,127,1167001100
34,10,10,Ticks_ISO_T2_5,232,5,42,127,1167500580
34,10,10,Ticks_ISO_T2_5,233,1,48,72,1167502288
34,10,10,Ticks_ISO_T2_5,234,1,48,66,1167992904
34,10,10,Ticks_ISO_T2_5,235,5,42,127,1168001388
34,10,10,Ticks_ISO_T2_5,236,1,48,71,1168499272
34,10,10,Ticks_ISO_T2_5,237,5,42,127,1168501156
34,10,10,Ticks_ISO_T2_5,238,1,48,70,1168993788
34,10,10,Ticks_ISO_T2_5,239,5,42,127,1169000852
34,10,10,Ticks_ISO_T2_5,240,1,48,69,1169475156
34,10,10,Ticks_ISO_T2_5,241,5,42,127,1169500472
34,10,10,Ticks_ISO_T2_5,242,1,48,82,1169978520
34,10,10,Ticks_ISO_T2_5,243,5,42,127,1170001288
34,10,10,Ticks_ISO_T2_5,244,1,48,74,1170475144
34,10,10,Ticks_ISO_T2_5,245,5,42,127,1170501132
34,10,10,Ticks_ISO_T2_5,246,1,48,59,1170989424
34,10,10,Ticks_ISO_T2_5,247,5,42,127,1171000604
34,10,10,Ticks_ISO_T2_5,248,1,48,76,1171484932
34,10,10,Ticks_ISO_T2_5,249,5,42,127,1171501348
34,10,10,Ticks_ISO_T2_5,250,1,48,69,1171978044
34,10,10,Ticks_ISO_T2_5,251,5,42,127,1172001188
34,10,10,Ticks_ISO_T2_5,252,1,48,78,1172495312
34,10,10,Ticks_ISO_T2_5,253,5,42,127,1172500960
34,10,10,Ticks_ISO_T2_5,254,5,42,127,1173000736
34,10,10,Ticks_ISO_T2_5,255,1,48,67,1173001704
34,10,10,Ticks_ISO_T2_5,256,1,48,54,1173486780
34,10,10,Ticks_ISO_T2_5,0,9999,9999,9999,1108498512
34,10,10,Ticks_ISO_T2_5,1,9999,9999,9999,1108998228
34,10,10,Ticks_ISO_T2_5,2,9999,9999,9999,1109498988
34,10,10,Ticks_ISO_T2_5,3,9999,9999,9999,1109998704
34,10,10,Ticks_ISO_T2_5,4,9999,9999,9999,1110498420
34,10,10,Ticks_ISO_T2_5,5,9999,9999,9999,1110998116
34,10,10,Ticks_ISO_T2_5,6,9999,9999,9999,1111498856
34,10,10,Ticks_ISO_T2_5,7,9999,9999,9999,1111998548
34,10,10,Ticks_ISO_T2_5,8,9999,9999,9999,1112498292
34,10,10,Ticks_ISO_T2_5,9,9999,9999,9999,1112998960
34,10,10,Ticks_ISO_T2_5,10,9999,9999,9999,1113498728
34,10,10,Ticks_ISO_T2_5,11,9999,9999,9999,1113998424
34,10,10,Ticks_ISO_T2_5,12,9999,9999,9999,1114498124
34,10,10,Ticks_ISO_T2_5,13,9999,9999,9999,1114998864
34,10,10,Ticks_ISO_T2_5,14,9999,9999,9999,1115498552
34,10,10,Ticks_ISO_T2_5,15,9999,9999,9999,1115998296
34,10,10,Ticks_ISO_T2_5,16,9999,9999,9999,1116499040
34,10,10,Ticks_ISO_T2_5,17,9999,9999,9999,1116998740
34,10,10,Ticks_ISO_T2_5,18,9999,9999,9999,1117498436
34,10,10,Ticks_ISO_T2_5,19,9999,9999,9999,1117998132
34,10,10,Ticks_ISO_T2_5,20,9999,9999,9999,1118498864
34,10,10,Ticks_ISO_T2_5,21,9999,9999,9999,1118998636
34,10,10,Ticks_ISO_T2_5,22,9999,9999,9999,1119498328
34,10,10,Ticks_ISO_T2_5,23,9999,9999,9999,1119999076
34,10,10,Ticks_ISO_T2_5,24,9999,9999,9999,1120498772
34,10,10,Ticks_ISO_T2_5,25,9999,9999,9999,1120998464
34,10,10,Ticks_ISO_T2_5,26,9999,9999,9999,1121498228
34,10,10,Ticks_ISO_T2_5,27,9999,9999,9999,1121998968
34,10,10,Ticks_ISO_T2_5,28,9999,9999,9999,1122498664
34,10,10,Ticks_ISO_T2_5,29,9999,9999,9999,1122998340
34,10,10,Ticks_ISO_T2_5,30,9999,9999,9999,1123499080
34,10,10,Ticks_ISO_T2_5,31,9999,9999,9999,1123998768
34,10,10,Ticks_ISO_T2_5,32,9999,9999,9999,1124498544
34,10,10,Ticks_ISO_T2_5,33,9999,9999,9999,1124998232
34,10,10,Ticks_ISO_T2_5,34,9999,9999,9999,1125498972
34,10,10,Ticks_ISO_T2_5,35,9999,9999,9999,1125998672
34,10,10,Ticks_ISO_T2_5,36,9999,9999,9999,1126498368
34,10,10,Ticks_ISO_T2_5,37,9999,9999,9999,1126998136
34,10,10,Ticks_ISO_T2_5,38,9999,9999,9999,1127498804
34,10,10,Ticks_ISO_T2_5,39,9999,9999,9999,1127998568
34,10,10,Ticks_ISO_T2_5,40,9999,9999,9999,1128498272
34,10,10,Ticks_ISO_T2_5,41,9999,9999,9999,1128999008
34,10,10,Ticks_ISO_T2_5,42,9999,9999,9999,1129498700
34,10,10,Ticks_ISO_T2_5,43,9999,9999,9999,1129998396
34,10,10,Ticks_ISO_T2_5,44,9999,9999,9999,1130498096
34,10,10,Ticks_ISO_T2_5,45,9999,9999,9999,1130998836
34,10,10,Ticks_ISO_T2_5,46,9999,9999,9999,1131498604
34,10,10,Ticks_ISO_T2_5,47,9999,9999,9999,1131998292
34,10,10,Ticks_ISO_T2_5,48,9999,9999,9999,1132499036
34,10,10,Ticks_ISO_T2_5,49,9999,9999,9999,1132998728
34,10,10,Ticks_ISO_T2_5,50,9999,9999,9999,1133498424
34,10,10,Ticks_ISO_T2_5,51,9999,9999,9999,1133998168
34,10,10,Ticks_ISO_T2_5,52,9999,9999,9999,1134498908
34,10,10,Ticks_ISO_T2_5,53,9999,9999,9999,1134998604
34,10,10,Ticks_ISO_T2_5,54,9999,9999,9999,1135498300
34,10,10,Ticks_ISO_T2_5,55,9999,9999,9999,1135999044
34,10,10,Ticks_ISO_T2_5,56,9999,9999,9999,1136498740
34,10,10,Ticks_ISO_T2_5,57,9999,9999,9999,1136998512
34,10,10,Ticks_ISO_T2_5,58,9999,9999,9999,1137498204
34,10,10,Ticks_ISO_T2_5,59,9999,9999,9999,1137998948
34,10,10,Ticks_ISO_T2_5,60,9999,9999,9999,1138498636
34,10,10,Ticks_ISO_T2_5,61,9999,9999,9999,1138998340
34,10,10,Ticks_ISO_T2_5,62,9999,9999,9999,1139499080
34,10,10,Ticks_ISO_T2_5,63,9999,9999,9999,1139998768
34,10,10,Ticks_ISO_T2_5,64,9999,9999,9999,1140498536
34,10,10,Ticks_ISO_T2_5,65,9999,9999,9999,1140998240
34,10,10,Ticks_ISO_T2_5,66,9999,9999,9999,1141498980
34,10,10,Ticks_ISO_T2_5,67,9999,9999,9999,1141998676
34,10,10,Ticks_ISO_T2_5,68,9999,9999,9999,1142498372
34,10,10,Ticks_ISO_T2_5,69,9999,9999,9999,1142998068
34,10,10,Ticks_ISO_T2_5,70,9999,9999,9999,1143498808
34,10,10,Ticks_ISO_T2_5,71,9999,9999,9999,1143998576
34,10,10,Ticks_ISO_T2_5,72,9999,9999,9999,1144498244
34,10,10,Ticks_ISO_T2_5,73,9999,9999,9999,1144998980
34,10,10,Ticks_ISO_T2_5,74,9999,9999,9999,1145498676
34,10,10,Ticks_ISO_T2_5,75,9999,9999,9999,1145998452
34,10,10,Ticks_ISO_T2_5,76,9999,9999,9999,1146498140
34,10,10,Ticks_ISO_T2_5,77,9999,9999,9999,1146998880
34,10,10,Ticks_ISO_T2_5,78,9999,9999,9999,1147498576
34,10,10,Ticks_ISO_T2_5,79,9999,9999,9999,1147998272
34,10,10,Ticks_ISO_T2_5,80,9999,9999,9999,1148499012
34,10,10,Ticks_ISO_T2_5,81,9999,9999,9999,1148998708
34,10,10,Ticks_ISO_T2_5,82,9999,9999,9999,1149498476
34,10,10,Ticks_ISO_T2_5,83,9999,9999,9999,1149998172
34,10,10,Ticks_ISO_T2_5,84,9999,9999,9999,1150498920
34,10,10,Ticks_ISO_T2_5,85,9999,9999,9999,1150998616
34,10,10,Ticks_ISO_T2_5,86,9999,9999,9999,1151498304
34,10,10,Ticks_ISO_T2_5,87,9999,9999,9999,1151999044
34,10,10,Ticks_ISO_T2_5,88,9999,9999,9999,1152498740
34,10,10,Ticks_ISO_T2_5,89,9999,9999,9999,1152998508
34,10,10,Ticks_ISO_T2_5,90,9999,9999,9999,1153498204
34,10,10,Ticks_ISO_T2_5,91,9999,9999,9999,1153998944
34,10,10,Ticks_ISO_T2_5,92,9999,9999,9999,1154498648
34,10,10,Ticks_ISO_T2_5,93,9999,9999,9999,1154998340
34,10,10,Ticks_ISO_T2_5,94,9999,9999,9999,1155499128
34,10,10,Ticks_ISO_T2_5,95,9999,9999,9999,1155998820
34,10,10,Ticks_ISO_T2_5,96,9999,9999,9999,1156498516
34,10,10,Ticks_ISO_T2_5,97,9999,9999,9999,1156998208
34,10,10,Ticks_ISO_T2_5,98,9999,9999,9999,1157498952
34,10,10,Ticks_ISO_T2_5,99,9999,9999,9999,1157998652
34,10,10,Ticks_ISO_T2_5,100,9999,9999,9999,1158498416
34,10,10,Ticks_ISO_T2_5,101,9999,9999,9999,1158998112
34,10,10,Ticks_ISO_T2_5,102,9999,9999,9999,1159498852
34,10,10,Ticks_ISO_T2_5,103,9999,9999,9999,1159998544
34,10,10,Ticks_ISO_T2_5,104,9999,9999,9999,1160498240
34,10,10,Ticks_ISO_T2_5,105,9999,9999,9999,1160998984
34,10,10,Ticks_ISO_T2_5,106,9999,9999,9999,1161498680
34,10,10,Ticks_ISO_T2_5,107,9999,9999,9999,1161998448
34,10,10,Ticks_ISO_T2_5,108,9999,9999,9999,1162498144
34,10,10,Ticks_ISO_T2_5,109,9999,9999,9999,1162998888
34,10,10,Ticks_ISO_T2_5,110,9999,9999,9999,1163498580
34,10,10,Ticks_ISO_T2_5,111,9999,9999,9999,1163998276
34,10,10,Ticks_ISO_T2_5,112,9999,9999,9999,1164499020
34,10,10,Ticks_ISO_T2_5,113,9999,9999,9999,1164998716
34,10,10,Ticks_ISO_T2_5,114,9999,9999,9999,1165498480
34,10,10,Ticks_ISO_T2_5,115,9999,9999,9999,1165998156
34,10,10,Ticks_ISO_T2_5,116,9999,9999,9999,1166498896
34,10,10,Ticks_ISO_T2_5,117,9999,9999,9999,1166998592
34,10,10,Ticks_ISO_T2_5,118,9999,9999,9999,1167498292
34,10,10,Ticks_ISO_T2_5,119,9999,9999,9999,1167999028
34,10,10,Ticks_ISO_T2_5,120,9999,9999,9999,1168498748
34,10,10,Ticks_ISO_T2_5,121,9999,9999,9999,1168998492
34,10,10,Ticks_ISO_T2_5,122,9999,9999,9999,1169498184
34,10,10,Ticks_ISO_T2_5,123,9999,9999,9999,1169998928
34,10,10,Ticks_ISO_T2_5,124,9999,9999,9999,1170498624
34,10,10,Ticks_ISO_T2_5,125,9999,9999,9999,1170998392
34,10,10,Ticks_ISO_T2_5,126,9999,9999,9999,1171499060
34,10,10,Ticks_ISO_T2_5,127,9999,9999,9999,1171998828
34,10,10,Ticks_ISO_T2_5,128,9999,9999,9999,1172498524
34,10,10,Ticks_ISO_T2_5,129,9999,9999,9999,1172998228
34,11,24,Jits_Pract_8,0,5,56,103,1229503932
34,11,24,Jits_Pract_8,1,5,63,98,1229507112
34,11,24,Jits_Pract_8,2,5,80,127,1229510228
34,11,24,Jits_Pract_8,3,1,48,18,1229577264
34,11,24,Jits_Pract_8,0,5,56,103,1230303536
34,11,24,Jits_Pract_8,1,5,63,98,1230306560
34,11,24,Jits_Pract_8,2,5,80,127,1230309832
34,11,24,Jits_Pract_8,0,5,80,127,1231044080
34,11,24,Jits_Pract_8,1,5,63,98,1231134364
34,11,24,Jits_Pract_8,2,5,56,103,1231144264
34,11,24,Jits_Pract_8,0,5,56,103,1231864196
34,11,24,Jits_Pract_8,1,5,63,98,1231874468
34,11,24,Jits_Pract_8,2,1,48,46,1231893396
34,11,24,Jits_Pract_8,3,5,80,127,1231963468
34,11,24,Jits_Pract_8,0,5,63,98,1232634140
34,11,24,Jits_Pract_8,1,1,48,49,1232649396
34,11,24,Jits_Pract_8,2,5,80,127,1232664184
34,11,24,Jits_Pract_8,3,5,56,103,1232693560
34,11,24,Jits_Pract_8,0,1,48,54,1233379460
34,11,24,Jits_Pract_8,1,5,56,103,1233434184
34,11,24,Jits_Pract_8,2,5,80,127,1233534192
34,11,24,Jits_Pract_8,3,5,63,98,1233583420
34,11,24,Jits_Pract_8,0,5,56,103,1234233648
34,11,24,Jits_Pract_8,1,5,80,127,1234284148
34,11,24,Jits_Pract_8,2,1,48,56,1234288612
34,11,24,Jits_Pract_8,3,5,63,98,1234324080
34,11,24,Jits_Pract_8,0,1,48,58,1235049856
34,11,24,Jits_Pract_8,1,5,80,127,1235064128
34,11,24,Jits_Pract_8,2,5,63,98,1235093952
34,11,24,Jits_Pract_8,3,5,56,103,1235163492
34,11,24,Jits_Pract_8,0,1,48,57,1235866780
34,11,24,Jits_Pract_8,1,5,63,98,1235893652
34,11,24,Jits_Pract_8,2,5,56,103,1235924300
34,11,24,Jits_Pract_8,3,5,80,127,1235983776
34,11,24,Jits_Pract_8,0,5,56,103,1236633976
34,11,24,Jits_Pract_8,1,5,80,127,1236636896
34,11,24,Jits_Pract_8,2,1,48,57,1236687020
34,11,24,Jits_Pract_8,3,5,63,98,1236754016
34,11,24,Jits_Pract_8,0,1,48,58,1237453888
34,11,24,Jits_Pract_8,1,5,56,103,1237513772
34,11,24,Jits_Pract_8,2,5,80,127,1237554744
34,11,24,Jits_Pract_8,3,5,63,98,1237563892
34,11,24,Jits_Pract_8,0,5,56,103,1238274432
34,11,24,Jits_Pract_8,1,5,80,127,1238293844
34,11,24,Jits_Pract_8,2,1,48,47,1238303632
34,11,24,Jits_Pract_8,3,5,63,98,1238374072
34,11,24,Jits_Pract_8,0,5,80,127,1239064008
34,11,24,Jits_Pract_8,1,1,48,58,1239090496
34,11,24,Jits_Pract_8,2,5,56,103,1239164324
34,11,24,Jits_Pract_8,3,5,63,98,1239173620
34,11,24,Jits_Pract_8,0,5,63,98,1239834108
34,11,24,Jits_Pract_8,1,5,80,127,1239894280
34,11,24,Jits_Pract_8,2,5,56,103,1239903872
34,11,24,Jits_Pract_8,3,1,48,61,1239931780
34,11,24,Jits_Pract_8,0,1,48,58,1240614800
34,11,24,Jits_Pract_8,1,5,56,103,1240633932
34,11,24,Jits_Pract_8,2,5,63,98,1240704360
34,11,24,Jits_Pract_8,3,5,80,127,1240707800
34,11,24,Jits_Pract_8,0,9999,9999,9999,1229901920
34,11,24,Jits_Pract_8,1,9999,9999,9999,1230701620
34,11,24,Jits_Pract_8,2,9999,9999,9999,1231501432
34,11,24,Jits_Pract_8,3,9999,9999,9999,1232301144
34,11,24,Jits_Pract_8,4,9999,9999,9999,1233101900
34,11,24,Jits_Pract_8,5,9999,9999,9999,1233901656
34,11,24,Jits_Pract_8,6,9999,9999,9999,1234701412
34,11,24,Jits_Pract_8,7,9999,9999,9999,1235501108
34,11,24,Jits_Pract_8,8,9999,9999,9999,1236301912
34,11,24,Jits_Pract_8,9,9999,9999,9999,1237101656
34,11,24,Jits_Pract_8,10,9999,9999,9999,1237901432
34,11,24,Jits_Pract_8,11,9999,9999,9999,1238701116
34,11,24,Jits_Pract_8,12,9999,9999,9999,1239501884
34,11,24,Jits_Pract_8,13,9999,9999,9999,1240301648
34,11,24,Jits_Pract_8,14,9999,9999,9999,1241101392
34,12,25,Jits_Pract_5,0,5,56,103,1320904988
34,12,25,Jits_Pract_5,1,5,63,98,1320908160
34,12,25,Jits_Pract_5,2,5,80,127,1320911356
34,12,25,Jits_Pract_5,0,5,56,103,1321404860
34,12,25,Jits_Pract_5,1,5,63,98,1321407884
34,12,25,Jits_Pract_5,2,5,80,127,1321410932
34,12,25,Jits_Pract_5,0,5,56,103,1321904380
34,12,25,Jits_Pract_5,1,5,80,127,1321914872
34,12,25,Jits_Pract_5,2,5,63,98,1321935108
34,12,25,Jits_Pract_5,0,5,63,98,1322355020
34,12,25,Jits_Pract_5,1,5,80,127,1322384844
34,12,25,Jits_Pract_5,2,5,56,103,1322395040
34,12,25,Jits_Pract_5,0,1,48,84,1322862492
34,12,25,Jits_Pract_5,1,5,80,127,1322915128
34,12,25,Jits_Pract_5,2,5,56,103,1322925720
34,12,25,Jits_Pract_5,3,5,63,98,1322955024
34,12,25,Jits_Pract_5,0,5,63,98,1323404864
34,12,25,Jits_Pract_5,1,1,48,79,1323417420
34,12,25,Jits_Pract_5,2,5,56,103,1323435304
34,12,25,Jits_Pract_5,3,5,80,127,1323444752
34,12,25,Jits_Pract_5,0,5,56,103,1323855256
34,12,25,Jits_Pract_5,1,5,63,98,1323905532
34,12,25,Jits_Pract_5,2,1,48,76,1323918764
34,12,25,Jits_Pract_5,3,5,80,127,1323924864
34,12,25,Jits_Pract_5,0,5,80,127,1324354884
34,12,25,Jits_Pract_5,1,1,48,78,1324389316
34,12,25,Jits_Pract_5,2,5,63,98,1324405080
34,12,25,Jits_Pract_5,3,5,56,103,1324445020
34,12,25,Jits_Pract_5,0,5,56,103,1324854736
34,12,25,Jits_Pract_5,1,5,63,98,1324885236
34,12,25,Jits_Pract_5,2,1,48,76,1324916376
34,12,25,Jits_Pract_5,3,5,80,127,1324954984
34,12,25,Jits_Pract_5,0,5,56,103,1325355488
34,12,25,Jits_Pract_5,1,1,48,67,1325387008
34,12,25,Jits_Pract_5,2,5,80,127,1325414904
34,12,25,Jits_Pract_5,3,5,63,98,1325444652
34,12,25,Jits_Pract_5,0,5,56,103,1325865388
34,12,25,Jits_Pract_5,1,5,63,98,1325874684
34,12,25,Jits_Pract_5,2,1,48,58,1325880196
34,12,25,Jits_Pract_5,3,5,80,127,1325914764
34,12,25,Jits_Pract_5,0,5,63,98,1326354752
34,12,25,Jits_Pract_5,1,1,48,75,1326372472
34,12,25,Jits_Pract_5,2,5,80,127,1326434620
34,12,25,Jits_Pract_5,3,5,56,103,1326445036
34,12,25,Jits_Pract_5,0,1,48,67,1326877940
34,12,25,Jits_Pract_5,1,5,63,98,1326904788
34,12,25,Jits_Pract_5,2,5,56,103,1326944724
34,12,25,Jits_Pract_5,3,5,80,127,1326947716
34,12,25,Jits_Pract_5,0,5,56,103,1327364548
34,12,25,Jits_Pract_5,1,5,63,98,1327374672
34,12,25,Jits_Pract_5,2,1,48,62,1327408356
34,12,25,Jits_Pract_5,3,5,80,127,1327414600
34,12,25,Jits_Pract_5,0,5,56,103,1327854956
34,12,25,Jits_Pract_5,1,5,63,98,1327857948
34,12,25,Jits_Pract_5,2,5,80,127,1327874592
34,12,25,Jits_Pract_5,3,1,48,73,1327886556
34,12,25,Jits_Pract_5,0,9999,9999,9999,1321152576
34,12,25,Jits_Pract_5,1,9999,9999,9999,1321652300
34,12,25,Jits_Pract_5,2,9999,9999,9999,1322153016
34,12,25,Jits_Pract_5,3,9999,9999,9999,1322652728
34,12,25,Jits_Pract_5,4,9999,9999,9999,1323152440
34,12,25,Jits_Pract_5,5,9999,9999,9999,1323652208
34,12,25,Jits_Pract_5,6,9999,9999,9999,1324152944
34,12,25,Jits_Pract_5,7,9999,9999,9999,1324652648
34,12,25,Jits_Pract_5,8,9999,9999,9999,1325152352
34,12,25,Jits_Pract_5,9,9999,9999,9999,1325653104
34,12,25,Jits_Pract_5,10,9999,9999,9999,1326152812
34,12,25,Jits_Pract_5,11,9999,9999,9999,1326652520
34,12,25,Jits_Pract_5,12,9999,9999,9999,1327152208
34,12,25,Jits_Pract_5,13,9999,9999,9999,1327652944
34,12,25,Jits_Pract_5,14,9999,9999,9999,1328152632
34,13,15,Jits_Phase_8,0,5,56,103,1339264352
34,13,15,Jits_Phase_8,1,5,63,98,1339267600
34,13,15,Jits_Phase_8,2,5,80,127,1339270792
34,13,15,Jits_Phase_8,0,5,56,103,1340064064
34,13,15,Jits_Phase_8,1,5,63,98,1340067160
34,13,15,Jits_Phase_8,2,5,80,127,1340070284
34,13,15,Jits_Phase_8,0,5,80,127,1340803412
34,13,15,Jits_Phase_8,1,1,48,67,1340888140
34,13,15,Jits_Phase_8,2,5,63,98,1340893564
34,13,15,Jits_Phase_8,3,5,56,103,1340903908
34,13,15,Jits_Phase_8,0,5,56,103,1341623808
34,13,15,Jits_Phase_8,1,5,63,98,1341634004
34,13,15,Jits_Phase_8,2,1,48,68,1341655184
34,13,15,Jits_Phase_8,3,5,80,127,1341723980
34,13,15,Jits_Phase_8,0,5,63,98,1342393912
34,13,15,Jits_Phase_8,1,5,80,127,1342424412
34,13,15,Jits_Phase_8,2,1,48,70,1342446332
34,13,15,Jits_Phase_8,3,5,56,103,1342454004
34,13,15,Jits_Phase_8,0,5,56,103,1343193440
34,13,15,Jits_Phase_8,1,1,48,70,1343197756
34,13,15,Jits_Phase_8,2,5,80,127,1343295236
34,13,15,Jits_Phase_8,3,5,63,98,1343344164
34,13,15,Jits_Phase_8,0,5,56,103,1343994260
34,13,15,Jits_Phase_8,1,5,80,127,1344044688
34,13,15,Jits_Phase_8,2,1,48,71,1344050276
34,13,15,Jits_Phase_8,3,5,63,98,1344084320
34,13,15,Jits_Phase_8,0,5,80,127,1344823924
34,13,15,Jits_Phase_8,1,1,48,73,1344847272
34,13,15,Jits_Phase_8,2,5,63,98,1344854420
34,13,15,Jits_Phase_8,3,5,56,103,1344923948
34,13,15,Jits_Phase_8,0,5,63,98,1345654116
34,13,15,Jits_Phase_8,1,5,56,103,1345683716
34,13,15,Jits_Phase_8,2,1,48,66,1345687208
34,13,15,Jits_Phase_8,3,5,80,127,1345744272
34,13,15,Jits_Phase_8,0,5,56,103,1346393708
34,13,15,Jits_Phase_8,1,5,80,127,1346396624
34,13,15,Jits_Phase_8,2,1,48,68,1346444100
34,13,15,Jits_Phase_8,3,5,63,98,1346514420
34,13,15,Jits_Phase_8,0,1,48,65,1347236364
34,13,15,Jits_Phase_8,1,5,56,103,1347273952
34,13,15,Jits_Phase_8,2,5,80,127,1347313968
34,13,15,Jits_Phase_8,3,5,63,98,1347324388
34,13,15,Jits_Phase_8,0,5,56,103,1348033936
34,13,15,Jits_Phase_8,1,5,80,127,1348054620
34,13,15,Jits_Phase_8,2,1,48,54,1348119992
34,13,15,Jits_Phase_8,3,5,63,98,1348134332
34,13,15,Jits_Phase_8,0,5,80,127,1348824420
34,13,15,Jits_Phase_8,1,1,48,61,1348910468
34,13,15,Jits_Phase_8,2,5,56,103,1348923688
34,13,15,Jits_Phase_8,3,5,63,98,1348933888
34,13,15,Jits_Phase_8,0,5,63,98,1349593704
34,13,15,Jits_Phase_8,1,5,80,127,1349653872
34,13,15,Jits_Phase_8,2,5,56,103,1349664064
34,13,15,Jits_Phase_8,3,1,48,67,1349754608
34,13,15,Jits_Phase_8,0,5,56,103,1350394352
34,13,15,Jits_Phase_8,1,5,63,98,1350463812
34,13,15,Jits_Phase_8,2,1,48,68,1350466292
34,13,15,Jits_Phase_8,3,5,80,127,1350468588
34,13,15,Jits_Phase_8,0,5,63,98,1351223712
34,13,15,Jits_Phase_8,1,1,48,73,1351224752
34,13,15,Jits_Phase_8,2,5,56,103,1351273980
34,13,15,Jits_Phase_8,3,5,80,127,1351276896
34,13,15,Jits_Phase_8,0,5,56,103,1351983448
34,13,15,Jits_Phase_8,1,5,80,127,1351986440
34,13,15,Jits_Phase_8,2,1,48,73,1352015264
34,13,15,Jits_Phase_8,3,5,63,98,1352073572
34,13,15,Jits_Phase_8,0,1,48,72,1352820848
34,13,15,Jits_Phase_8,1,5,63,98,1352824328
34,13,15,Jits_Phase_8,2,5,56,103,1352914264
34,13,15,Jits_Phase_8,3,5,80,127,1352944148
34,13,15,Jits_Phase_8,0,5,56,103,1353613608
34,13,15,Jits_Phase_8,1,1,48,70,1353699304
34,13,15,Jits_Phase_8,2,5,63,98,1353714172
34,13,15,Jits_Phase_8,3,5,80,127,1353743776
34,13,15,Jits_Phase_8,0,5,63,98,1354434012
34,13,15,Jits_Phase_8,1,5,56,103,1354444432
34,13,15,Jits_Phase_8,2,1,48,73,1354475576
34,13,15,Jits_Phase_8,3,5,80,127,1354534332
34,13,15,Jits_Phase_8,0,5,63,98,1355254220
34,13,15,Jits_Phase_8,1,1,48,71,1355296976
34,13,15,Jits_Phase_8,2,5,56,103,1355333936
34,13,15,Jits_Phase_8,3,5,80,127,1355337076
34,13,15,Jits_Phase_8,0,5,80,127,1356013896
34,13,15,Jits_Phase_8,1,5,63,98,1356034356
34,13,15,Jits_Phase_8,2,1,48,74,1356046988
34,13,15,Jits_Phase_8,3,5,56,103,1356093764
34,13,15,Jits_Phase_8,0,1,48,65,1356841492
34,13,15,Jits_Phase_8,1,5,56,103,1356853744
34,13,15,Jits_Phase_8,2,5,63,98,1356874272
34,13,15,Jits_Phase_8,3,5,80,127,1356877564
34,13,15,Jits_Phase_8,0,5,63,98,1357594156
34,13,15,Jits_Phase_8,1,1,48,81,1357629260
34,13,15,Jits_Phase_8,2,5,80,127,1357673724
34,13,15,Jits_Phase_8,3,5,56,103,1357684216
34,13,15,Jits_Phase_8,0,5,63,98,1358414140
34,13,15,Jits_Phase_8,1,1,48,59,1358416964
34,13,15,Jits_Phase_8,2,5,56,103,1358433620
34,13,15,Jits_Phase_8,3,5,80,127,1358484044
34,13,15,Jits_Phase_8,0,5,80,127,1359213896
34,13,15,Jits_Phase_8,1,1,48,60,1359234476
34,13,15,Jits_Phase_8,2,5,63,98,1359253904
34,13,15,Jits_Phase_8,3,5,56,103,1359274460
34,13,15,Jits_Phase_8,0,1,48,78,1360022032
34,13,15,Jits_Phase_8,1,5,56,103,1360053620
34,13,15,Jits_Phase_8,2,5,63,98,1360064260
34,13,15,Jits_Phase_8,3,5,80,127,1360084200
34,13,15,Jits_Phase_8,0,1,48,85,1360779296
34,13,15,Jits_Phase_8,1,5,56,103,1360783672
34,13,15,Jits_Phase_8,2,5,63,98,1360873816
34,13,15,Jits_Phase_8,3,5,80,127,1360934204
34,13,15,Jits_Phase_8,0,1,48,78,1361612208
34,13,15,Jits_Phase_8,1,5,80,127,1361614096
34,13,15,Jits_Phase_8,2,5,56,103,1361624440
34,13,15,Jits_Phase_8,3,5,63,98,1361694192
34,13,15,Jits_Phase_8,0,1,48,75,1362434356
34,13,15,Jits_Phase_8,1,5,63,98,1362443596
34,13,15,Jits_Phase_8,2,5,80,127,1362533864
34,13,15,Jits_Phase_8,3,5,56,103,1362543836
34,13,15,Jits_Phase_8,0,5,63,98,1363173836
34,13,15,Jits_Phase_8,1,5,80,127,1363224040
34,13,15,Jits_Phase_8,2,1,48,64,1363251444
34,13,15,Jits_Phase_8,3,5,56,103,1363284200
34,13,15,Jits_Phase_8,0,5,56,103,1363993972
34,13,15,Jits_Phase_8,1,1,48,78,1363997092
34,13,15,Jits_Phase_8,2,5,80,127,1364044244
34,13,15,Jits_Phase_8,3,5,63,98,1364063732
34,13,15,Jits_Phase_8,0,5,56,103,1364763996
34,13,15,Jits_Phase_8,1,5,80,127,1364824392
34,13,15,Jits_Phase_8,2,1,48,78,1364836348
34,13,15,Jits_Phase_8,3,5,63,98,1364894212
34,13,15,Jits_Phase_8,0,5,56,103,1365563696
34,13,15,Jits_Phase_8,1,5,80,127,1365593444
34,13,15,Jits_Phase_8,2,1,48,73,1365611928
34,13,15,Jits_Phase_8,3,5,63,98,1365624160
34,13,15,Jits_Phase_8,0,5,56,103,1366403320
34,13,15,Jits_Phase_8,1,1,48,63,1366412812
34,13,15,Jits_Phase_8,2,5,80,127,1366423920
34,13,15,Jits_Phase_8,3,5,63,98,1366484332
34,13,15,Jits_Phase_8,0,1,48,61,1367184404
34,13,15,Jits_Phase_8,1,5,80,127,1367284080
34,13,15,Jits_Phase_8,2,5,56,103,1367294276
34,13,15,Jits_Phase_8,3,5,63,98,1367303800
34,13,15,Jits_Phase_8,0,5,56,103,1368043860
34,13,15,Jits_Phase_8,1,1,48,71,1368046528
34,13,15,Jits_Phase_8,2,5,80,127,1368083716
34,13,15,Jits_Phase_8,3,5,63,98,1368113616
34,13,15,Jits_Phase_8,0,5,56,103,1368813892
34,13,15,Jits_Phase_8,1,5,63,98,1368843568
34,13,15,Jits_Phase_8,2,1,48,62,1368853808
34,13,15,Jits_Phase_8,3,5,80,127,1368883796
34,13,15,Jits_Phase_8,0,5,80,127,1369563692
34,13,15,Jits_Phase_8,1,1,48,59,1369609508
34,13,15,Jits_Phase_8,2,5,63,98,1369613736
34,13,15,Jits_Phase_8,3,5,56,103,1369634124
34,13,15,Jits_Phase_8,0,1,48,65,1370356604
34,13,15,Jits_Phase_8,1,5,56,103,1370393872
34,13,15,Jits_Phase_8,2,5,80,127,1370463760
34,13,15,Jits_Phase_8,3,5,63,98,1370524000
34,13,15,Jits_Phase_8,0,5,80,127,1371193860
34,13,15,Jits_Phase_8,1,1,48,61,1371253852
34,13,15,Jits_Phase_8,2,5,63,98,1371283764
34,13,15,Jits_Phase_8,3,5,56,103,1371304396
34,13,15,Jits_Phase_8,0,5,63,98,1372013868
34,13,15,Jits_Phase_8,1,1,48,74,1372018108
34,13,15,Jits_Phase_8,2,5,56,103,1372034468
34,13,15,Jits_Phase_8,3,5,80,127,1372074356
34,13,15,Jits_Phase_8,0,5,80,127,1372773688
34,13,15,Jits_Phase_8,1,1,48,71,1372777856
34,13,15,Jits_Phase_8,2,5,63,98,1372794440
34,13,15,Jits_Phase_8,3,5,56,103,1372874388
34,13,15,Jits_Phase_8,0,5,63,98,1373564240
34,13,15,Jits_Phase_8,1,1,48,75,1373573732
34,13,15,Jits_Phase_8,2,5,56,103,1373673700
34,13,15,Jits_Phase_8,3,5,80,127,1373676772
34,13,15,Jits_Phase_8,0,1,48,68,1374373424
34,13,15,Jits_Phase_8,1,5,63,98,1374383412
34,13,15,Jits_Phase_8,2,5,56,103,1374393756
34,13,15,Jits_Phase_8,3,5,80,127,1374396672
34,13,15,Jits_Phase_8,0,1,48,72,1375143792
34,13,15,Jits_Phase_8,1,5,56,103,1375163896
34,13,15,Jits_Phase_8,2,5,80,127,1375283460
34,13,15,Jits_Phase_8,3,5,63,98,1375323396
34,13,15,Jits_Phase_8,0,5,56,103,1375984412
34,13,15,Jits_Phase_8,1,1,48,81,1376022156
34,13,15,Jits_Phase_8,2,5,80,127,1376063832
34,13,15,Jits_Phase_8,3,5,63,98,1376084216
34,13,15,Jits_Phase_8,0,5,56,103,1376783664
34,13,15,Jits_Phase_8,1,1,48,71,1376837728
34,13,15,Jits_Phase_8,2,5,63,98,1376894392
34,13,15,Jits_Phase_8,3,5,80,127,1376897608
34,13,15,Jits_Phase_8,0,5,56,103,1377624336
34,13,15,Jits_Phase_8,1,1,48,77,1377637792
34,13,15,Jits_Phase_8,2,5,80,127,1377654304
34,13,15,Jits_Phase_8,3,5,63,98,1377673492
34,13,15,Jits_Phase_8,0,5,63,98,1378413916
34,13,15,Jits_Phase_8,1,5,56,103,1378424336
34,13,15,Jits_Phase_8,2,5,80,127,1378434532
34,13,15,Jits_Phase_8,3,1,48,77,1378447540
34,13,15,Jits_Phase_8,0,1,48,81,1379165156
34,13,15,Jits_Phase_8,1,5,80,127,1379203544
34,13,15,Jits_Phase_8,2,5,56,103,1379253624
34,13,15,Jits_Phase_8,3,5,63,98,1379293692
34,13,15,Jits_Phase_8,0,1,48,64,1379980416
34,13,15,Jits_Phase_8,1,5,80,127,1380023704
34,13,15,Jits_Phase_8,2,5,63,98,1380044312
34,13,15,Jits_Phase_8,3,5,56,103,1380094424
34,13,15,Jits_Phase_8,0,5,80,127,1380833508
34,13,15,Jits_Phase_8,1,5,56,103,1380864232
34,13,15,Jits_Phase_8,2,1,48,73,1380867796
34,13,15,Jits_Phase_8,3,5,63,98,1380934124
34,13,15,Jits_Phase_8,0,5,56,103,1381683632
34,13,15,Jits_Phase_8,1,1,48,70,1381692548
34,13,15,Jits_Phase_8,2,5,80,127,1381694340
34,13,15,Jits_Phase_8,3,5,63,98,1381733832
34,13,15,Jits_Phase_8,0,5,56,103,1382394176
34,13,15,Jits_Phase_8,1,5,63,98,1382413812
34,13,15,Jits_Phase_8,2,5,80,127,1382484316
34,13,15,Jits_Phase_8,3,1,48,72,1382522052
34,13,15,Jits_Phase_8,0,5,63,98,1383213280
34,13,15,Jits_Phase_8,1,1,48,69,1383265472
34,13,15,Jits_Phase_8,2,5,80,127,1383273812
34,13,15,Jits_Phase_8,3,5,56,103,1383294344
34,13,15,Jits_Phase_8,0,5,80,127,1384003892
34,13,15,Jits_Phase_8,1,5,56,103,1384033792
34,13,15,Jits_Phase_8,2,1,48,57,1384049192
34,13,15,Jits_Phase_8,3,5,63,98,1384064360
34,13,15,Jits_Phase_8,0,5,56,103,1384803956
34,13,15,Jits_Phase_8,1,1,48,68,1384841308
34,13,15,Jits_Phase_8,2,5,63,98,1384864044
34,13,15,Jits_Phase_8,3,5,80,127,1384923560
34,13,15,Jits_Phase_8,0,5,80,127,1385623884
34,13,15,Jits_Phase_8,1,5,56,103,1385644444
34,13,15,Jits_Phase_8,2,1,48,69,1385663224
34,13,15,Jits_Phase_8,3,5,63,98,1385713968
34,13,15,Jits_Phase_8,0,5,80,127,1386423756
34,13,15,Jits_Phase_8,1,5,63,98,1386444140
34,13,15,Jits_Phase_8,2,1,48,73,1386461352
34,13,15,Jits_Phase_8,3,5,56,103,1386473880
34,13,15,Jits_Phase_8,0,5,80,127,1387214084
34,13,15,Jits_Phase_8,1,1,48,62,1387229180
34,13,15,Jits_Phase_8,2,5,63,98,1387233788
34,13,15,Jits_Phase_8,3,5,56,103,1387294100
34,13,15,Jits_Phase_8,0,5,80,127,1388013924
34,13,15,Jits_Phase_8,1,1,48,74,1388087620
34,13,15,Jits_Phase_8,2,5,56,103,1388114240
34,13,15,Jits_Phase_8,3,5,63,98,1388143992
34,13,15,Jits_Phase_8,0,5,63,98,1388803660
34,13,15,Jits_Phase_8,1,5,80,127,1388853864
34,13,15,Jits_Phase_8,2,5,56,103,1388874024
34,13,15,Jits_Phase_8,3,1,48,68,1388910848
34,13,15,Jits_Phase_8,0,5,80,127,1389644172
34,13,15,Jits_Phase_8,1,5,56,103,1389673848
34,13,15,Jits_Phase_8,2,5,63,98,1389676764
34,13,15,Jits_Phase_8,3,1,48,79,1389689320
34,13,15,Jits_Phase_8,0,5,63,98,1390494132
34,13,15,Jits_Phase_8,1,1,48,79,1390527844
34,13,15,Jits_Phase_8,2,5,56,103,1390533940
34,13,15,Jits_Phase_8,3,5,80,127,1390553576
34,13,15,Jits_Phase_8,0,5,80,127,1391253884
34,13,15,Jits_Phase_8,1,5,63,98,1391333632
34,13,15,Jits_Phase_8,2,1,48,78,1391352340
34,13,15,Jits_Phase_8,3,5,56,103,1391373640
34,13,15,Jits_Phase_8,0,5,63,98,1392084476
34,13,15,Jits_Phase_8,1,1,48,58,1392116144
34,13,15,Jits_Phase_8,2,5,80,127,1392164564
34,13,15,Jits_Phase_8,3,5,56,103,1392183532
34,13,15,Jits_Phase_8,0,1,48,75,1392911932
34,13,15,Jits_Phase_8,1,5,56,103,1392934356
34,13,15,Jits_Phase_8,2,5,63,98,1392943656
34,13,15,Jits_Phase_8,3,5,80,127,1392984416
34,13,15,Jits_Phase_8,0,5,56,103,1393654104
34,13,15,Jits_Phase_8,1,5,80,127,1393657172
34,13,15,Jits_Phase_8,2,1,48,67,1393741964
34,13,15,Jits_Phase_8,3,5,63,98,1393794572
34,13,15,Jits_Phase_8,0,5,56,103,1394443676
34,13,15,Jits_Phase_8,1,1,48,68,1394533588
34,13,15,Jits_Phase_8,2,5,63,98,1394535372
34,13,15,Jits_Phase_8,3,5,80,127,1394604484
34,13,15,Jits_Phase_8,0,5,63,98,1395324592
34,13,15,Jits_Phase_8,1,5,80,127,1395327876
34,13,15,Jits_Phase_8,2,1,48,77,1395332508
34,13,15,Jits_Phase_8,3,5,56,103,1395383796
34,13,15,Jits_Phase_8,0,5,80,127,1396163852
34,13,15,Jits_Phase_8,1,1,48,72,1396168388
34,13,15,Jits_Phase_8,2,5,56,103,1396184304
34,13,15,Jits_Phase_8,3,5,63,98,1396193604
34,13,15,Jits_Phase_8,0,5,56,103,1396873620
34,13,15,Jits_Phase_8,1,5,63,98,1396883816
34,13,15,Jits_Phase_8,2,5,80,127,1396953524
34,13,15,Jits_Phase_8,3,1,48,73,1397006536
34,13,15,Jits_Phase_8,0,5,80,127,1397674240
34,13,15,Jits_Phase_8,1,5,56,103,1397723468
34,13,15,Jits_Phase_8,2,5,63,98,1397773672
34,13,15,Jits_Phase_8,3,1,48,78,1397791536
34,13,15,Jits_Phase_8,0,5,56,103,1398554180
34,13,15,Jits_Phase_8,1,5,63,98,1398564224
34,13,15,Jits_Phase_8,2,5,80,127,1398604240
34,13,15,Jits_Phase_8,3,1,48,72,1398620240
34,13,15,Jits_Phase_8,0,5,56,103,1399294320
34,13,15,Jits_Phase_8,1,1,48,72,1399334184
34,13,15,Jits_Phase_8,2,5,63,98,1399335596
34,13,15,Jits_Phase_8,3,5,80,127,1399384528
34,13,15,Jits_Phase_8,0,5,80,127,1400054308
34,13,15,Jits_Phase_8,1,1,48,74,1400057356
34,13,15,Jits_Phase_8,2,5,56,103,1400104356
34,13,15,Jits_Phase_8,3,5,63,98,1400123620
34,13,15,Jits_Phase_8,0,1,48,64,1400860552
34,13,15,Jits_Phase_8,1,5,80,127,1400864184
34,13,15,Jits_Phase_8,2,5,63,98,1400923380
34,13,15,Jits_Phase_8,3,5,56,103,1401004384
34,13,15,Jits_Phase_8,0,1,48,75,1401630120
34,13,15,Jits_Phase_8,1,5,80,127,1401644316
34,13,15,Jits_Phase_8,2,5,56,103,1401684404
34,13,15,Jits_Phase_8,3,5,63,98,1401703668
34,13,15,Jits_Phase_8,0,1,48,59,1402484128
34,13,15,Jits_Phase_8,1,5,56,103,1402494264
34,13,15,Jits_Phase_8,2,5,80,127,1402503488
34,13,15,Jits_Phase_8,3,5,63,98,1402543528
34,13,15,Jits_Phase_8,0,1,48,82,1403337544
34,13,15,Jits_Phase_8,1,5,56,103,1403363724
34,13,15,Jits_Phase_8,2,5,63,98,1403403664
34,13,15,Jits_Phase_8,3,5,80,127,1403407028
34,13,15,Jits_Phase_8,0,5,63,98,1404034452
34,13,15,Jits_Phase_8,1,5,80,127,1404074264
34,13,15,Jits_Phase_8,2,5,56,103,1404144168
34,13,15,Jits_Phase_8,3,1,48,78,1404162352
34,13,15,Jits_Phase_8,0,5,63,98,1404803416
34,13,15,Jits_Phase_8,1,1,48,66,1404851372
34,13,15,Jits_Phase_8,2,5,56,103,1404884204
34,13,15,Jits_Phase_8,3,5,80,127,1404943696
34,13,15,Jits_Phase_8,0,1,48,76,1405573176
34,13,15,Jits_Phase_8,1,5,80,127,1405613308
34,13,15,Jits_Phase_8,2,5,63,98,1405663508
34,13,15,Jits_Phase_8,3,5,56,103,1405694288
34,13,15,Jits_Phase_8,0,5,56,103,1406403924
34,13,15,Jits_Phase_8,1,1,48,66,1406405336
34,13,15,Jits_Phase_8,2,5,63,98,1406454120
34,13,15,Jits_Phase_8,3,5,80,127,1406464316
34,13,15,Jits_Phase_8,0,1,48,68,1407181244
34,13,15,Jits_Phase_8,1,5,56,103,1407214092
34,13,15,Jits_Phase_8,2,5,63,98,1407323544
34,13,15,Jits_Phase_8,3,5,80,127,1407343928
34,13,15,Jits_Phase_8,0,5,63,98,1408013640
34,13,15,Jits_Phase_8,1,1,48,69,1408045308
34,13,15,Jits_Phase_8,2,5,80,127,1408063836
34,13,15,Jits_Phase_8,3,5,56,103,1408153948
34,13,15,Jits_Phase_8,0,5,63,98,1408804176
34,13,15,Jits_Phase_8,1,5,80,127,1408833924
34,13,15,Jits_Phase_8,2,1,48,66,1408866636
34,13,15,Jits_Phase_8,3,5,56,103,1408924048
34,13,15,Jits_Phase_8,0,5,63,98,1409603852
34,13,15,Jits_Phase_8,1,5,56,103,1409614048
34,13,15,Jits_Phase_8,2,1,48,65,1409627504
34,13,15,Jits_Phase_8,3,5,80,127,1409713636
34,13,15,Jits_Phase_8,0,1,48,61,1410349468
34,13,15,Jits_Phase_8,1,5,63,98,1410504000
34,13,15,Jits_Phase_8,2,5,80,127,1410533824
34,13,15,Jits_Phase_8,3,5,56,103,1410563652
34,13,15,Jits_Phase_8,0,1,48,73,1411318508
34,13,15,Jits_Phase_8,1,5,80,127,1411324160
34,13,15,Jits_Phase_8,2,5,63,98,1411333828
34,13,15,Jits_Phase_8,3,5,56,103,1411364180
34,13,15,Jits_Phase_8,0,5,80,127,1412023760
34,13,15,Jits_Phase_8,1,5,63,98,1412044292
34,13,15,Jits_Phase_8,2,5,56,103,1412094268
34,13,15,Jits_Phase_8,3,1,48,70,1412196576
34,13,15,Jits_Phase_8,0,5,63,98,1412854092
34,13,15,Jits_Phase_8,1,1,48,66,1412881400
34,13,15,Jits_Phase_8,2,5,80,127,1412913804
34,13,15,Jits_Phase_8,3,5,56,103,1412933888
34,13,15,Jits_Phase_8,0,5,63,98,1413613848
34,13,15,Jits_Phase_8,1,5,56,103,1413664124
34,13,15,Jits_Phase_8,2,1,48,64,1413668964
34,13,15,Jits_Phase_8,3,5,80,127,1413674608
34,13,15,Jits_Phase_8,0,1,48,66,1414423908
34,13,15,Jits_Phase_8,1,5,56,103,1414444532
34,13,15,Jits_Phase_8,2,5,80,127,1414453532
34,13,15,Jits_Phase_8,3,5,63,98,1414553984
34,13,15,Jits_Phase_8,0,5,80,127,1415204288
34,13,15,Jits_Phase_8,1,5,63,98,1415213512
34,13,15,Jits_Phase_8,2,1,48,65,1415290712
34,13,15,Jits_Phase_8,3,5,56,103,1415363892
34,13,15,Jits_Phase_8,0,5,63,98,1416014248
34,13,15,Jits_Phase_8,1,5,80,127,1416054184
34,13,15,Jits_Phase_8,2,1,48,69,1416056124
34,13,15,Jits_Phase_8,3,5,56,103,1416133996
34,13,15,Jits_Phase_8,0,5,56,103,1416763800
34,13,15,Jits_Phase_8,1,1,48,75,1416856448
34,13,15,Jits_Phase_8,2,5,80,127,1416864044
34,13,15,Jits_Phase_8,3,5,63,98,1416883552
34,13,15,Jits_Phase_8,0,5,80,127,1417583884
34,13,15,Jits_Phase_8,1,5,56,103,1417594304
34,13,15,Jits_Phase_8,2,1,48,59,1417650484
34,13,15,Jits_Phase_8,3,5,63,98,1417684376
34,13,15,Jits_Phase_8,0,5,56,103,1418383660
34,13,15,Jits_Phase_8,1,5,63,98,1418404368
34,13,15,Jits_Phase_8,2,1,48,64,1418408088
34,13,15,Jits_Phase_8,3,5,80,127,1418484300
34,13,15,Jits_Phase_8,0,5,63,98,1419134284
34,13,15,Jits_Phase_8,1,1,48,80,1419143776
34,13,15,Jits_Phase_8,2,5,56,103,1419224360
34,13,15,Jits_Phase_8,3,5,80,127,1419227352
34,13,15,Jits_Phase_8,0,5,56,103,1419963728
34,13,15,Jits_Phase_8,1,1,48,73,1419967968
34,13,15,Jits_Phase_8,2,5,80,127,1420024412
34,13,15,Jits_Phase_8,3,5,63,98,1420034460
34,13,15,Jits_Phase_8,0,1,48,78,1420812644
34,13,15,Jits_Phase_8,1,5,80,127,1420814444
34,13,15,Jits_Phase_8,2,5,56,103,1420823808
34,13,15,Jits_Phase_8,3,5,63,98,1420826956
34,13,15,Jits_Phase_8,0,5,56,103,1421573368
34,13,15,Jits_Phase_8,1,5,80,127,1421583640
34,13,15,Jits_Phase_8,2,5,63,98,1421604396
34,13,15,Jits_Phase_8,3,1,48,76,1421649536
34,13,15,Jits_Phase_8,0,5,63,98,1422343396
34,13,15,Jits_Phase_8,1,1,48,73,1422391992
34,13,15,Jits_Phase_8,2,5,80,127,1422403928
34,13,15,Jits_Phase_8,3,5,56,103,1422454128
34,13,15,Jits_Phase_8,0,1,48,78,1423133008
34,13,15,Jits_Phase_8,1,5,63,98,1423224132
34,13,15,Jits_Phase_8,2,5,56,103,1423234392
34,13,15,Jits_Phase_8,3,5,80,127,1423283640
34,13,15,Jits_Phase_8,0,5,63,98,1423923508
34,13,15,Jits_Phase_8,1,5,80,127,1423944116
34,13,15,Jits_Phase_8,2,5,56,103,1423954240
34,13,15,Jits_Phase_8,3,1,48,93,1423988516
34,13,15,Jits_Phase_8,0,1,48,73,1424711596
34,13,15,Jits_Phase_8,1,5,63,98,1424724372
34,13,15,Jits_Phase_8,2,5,80,127,1424727660
34,13,15,Jits_Phase_8,3,5,56,103,1424764308
34,13,15,Jits_Phase_8,0,1,48,54,1425492920
34,13,15,Jits_Phase_8,1,5,63,98,1425593656
34,13,15,Jits_Phase_8,2,5,80,127,1425624376
34,13,15,Jits_Phase_8,3,5,56,103,1425634048
34,13,15,Jits_Phase_8,0,1,48,59,1426327816
34,13,15,Jits_Phase_8,1,5,56,103,1426344276
34,13,15,Jits_Phase_8,2,5,80,127,1426374028
34,13,15,Jits_Phase_8,3,5,63,98,1426403552
34,13,15,Jits_Phase_8,0,1,48,74,1427159804
34,13,15,Jits_Phase_8,1,5,63,98,1427244428
34,13,15,Jits_Phase_8,2,5,56,103,1427284272
34,13,15,Jits_Phase_8,3,5,80,127,1427287416
34,13,15,Jits_Phase_8,0,5,80,127,1427943872
34,13,15,Jits_Phase_8,1,5,56,103,1428023668
34,13,15,Jits_Phase_8,2,1,48,66,1428047916
34,13,15,Jits_Phase_8,3,5,63,98,1428074012
34,13,15,Jits_Phase_8,0,5,80,127,1428723944
34,13,15,Jits_Phase_8,1,5,56,103,1428743504
34,13,15,Jits_Phase_8,2,5,63,98,1428834080
34,13,15,Jits_Phase_8,3,1,48,65,1428845144
34,13,15,Jits_Phase_8,0,5,80,127,1429563940
34,13,15,Jits_Phase_8,1,1,48,65,1429587660
34,13,15,Jits_Phase_8,2,5,63,98,1429603872
34,13,15,Jits_Phase_8,3,5,56,103,1429643812
34,13,15,Jits_Phase_8,0,5,63,98,1430373976
34,13,15,Jits_Phase_8,1,1,48,62,1430383396
34,13,15,Jits_Phase_8,2,5,80,127,1430434236
34,13,15,Jits_Phase_8,3,5,56,103,1430463764
34,13,15,Jits_Phase_8,0,5,56,103,1431213316
34,13,15,Jits_Phase_8,1,1,48,70,1431215908
34,13,15,Jits_Phase_8,2,5,80,127,1431244032
34,13,15,Jits_Phase_8,3,5,63,98,1431334220
34,13,15,Jits_Phase_8,0,5,56,103,1432024324
34,13,15,Jits_Phase_8,1,1,48,73,1432106632
34,13,15,Jits_Phase_8,2,5,80,127,1432133932
34,13,15,Jits_Phase_8,3,5,63,98,1432163680
34,13,15,Jits_Phase_8,0,5,56,103,1432874220
34,13,15,Jits_Phase_8,1,1,48,71,1432913084
34,13,15,Jits_Phase_8,2,5,63,98,1432933932
34,13,15,Jits_Phase_8,3,5,80,127,1432963532
34,13,15,Jits_Phase_8,0,5,56,103,1433644628
34,13,15,Jits_Phase_8,1,1,48,60,1433693532
34,13,15,Jits_Phase_8,2,5,63,98,1433714152
34,13,15,Jits_Phase_8,3,5,80,127,1433733416
34,13,15,Jits_Phase_8,0,5,80,127,1434413384
34,13,15,Jits_Phase_8,1,5,63,98,1434433844
34,13,15,Jits_Phase_8,2,1,48,62,1434460704
34,13,15,Jits_Phase_8,3,5,56,103,1434483964
34,13,15,Jits_Phase_8,0,5,63,98,1435233604
34,13,15,Jits_Phase_8,1,5,80,127,1435243876
34,13,15,Jits_Phase_8,2,1,48,64,1435294152
34,13,15,Jits_Phase_8,3,5,56,103,1435296040
34,13,15,Jits_Phase_8,0,1,48,66,1436031960
34,13,15,Jits_Phase_8,1,5,63,98,1436034552
34,13,15,Jits_Phase_8,2,5,80,127,1436104032
34,13,15,Jits_Phase_8,3,5,56,103,1436123668
34,13,15,Jits_Phase_8,0,5,63,98,1436863784
34,13,15,Jits_Phase_8,1,5,80,127,1436867148
34,13,15,Jits_Phase_8,2,1,48,62,1436893432
34,13,15,Jits_Phase_8,3,5,56,103,1436933604
34,13,15,Jits_Phase_8,0,5,80,127,1437613636
34,13,15,Jits_Phase_8,1,5,56,103,1437633872
34,13,15,Jits_Phase_8,2,5,63,98,1437644068
34,13,15,Jits_Phase_8,3,1,48,72,1437664120
34,13,15,Jits_Phase_8,0,1,48,70,1438412924
34,13,15,Jits_Phase_8,1,5,56,103,1438433624
34,13,15,Jits_Phase_8,2,5,63,98,1438523744
34,13,15,Jits_Phase_8,3,5,80,127,1438527032
34,13,15,Jits_Phase_8,0,5,80,127,1439203636
34,13,15,Jits_Phase_8,1,5,56,103,1439213832
34,13,15,Jits_Phase_8,2,5,63,98,1439234440
34,13,15,Jits_Phase_8,3,1,48,80,1439240924
34,13,15,Jits_Phase_8,0,1,48,75,1439985604
34,13,15,Jits_Phase_8,1,5,63,98,1440003392
34,13,15,Jits_Phase_8,2,5,80,127,1440063860
34,13,15,Jits_Phase_8,3,5,56,103,1440074352
34,13,15,Jits_Phase_8,0,1,48,65,1440820644
34,13,15,Jits_Phase_8,1,5,63,98,1440873724
34,13,15,Jits_Phase_8,2,5,80,127,1440903476
34,13,15,Jits_Phase_8,3,5,56,103,1440943496
34,13,15,Jits_Phase_8,0,5,56,103,1441664424
34,13,15,Jits_Phase_8,1,5,80,127,1441673572
34,13,15,Jits_Phase_8,2,1,48,78,1441688452
34,13,15,Jits_Phase_8,3,5,63,98,1441713532
34,13,15,Jits_Phase_8,0,5,80,127,1442424264
34,13,15,Jits_Phase_8,1,1,48,68,1442434284
34,13,15,Jits_Phase_8,2,5,56,103,1442504008
34,13,15,Jits_Phase_8,3,5,63,98,1442514500
34,13,15,Jits_Phase_8,0,1,48,70,1443237360
34,13,15,Jits_Phase_8,1,5,80,127,1443274176
34,13,15,Jits_Phase_8,2,5,56,103,1443353960
34,13,15,Jits_Phase_8,3,5,63,98,1443364156
34,13,15,Jits_Phase_8,0,5,80,127,1444113736
34,13,15,Jits_Phase_8,1,1,48,66,1444121116
34,13,15,Jits_Phase_8,2,5,56,103,1444164156
34,13,15,Jits_Phase_8,3,5,63,98,1444215312
34,13,15,Jits_Phase_8,0,1,48,72,1445012516
34,13,15,Jits_Phase_8,1,5,56,103,1445053688
34,13,15,Jits_Phase_8,2,5,63,98,1445057132
34,13,15,Jits_Phase_8,3,5,80,127,1445104116
34,13,15,Jits_Phase_8,0,5,56,103,1445874132
34,13,15,Jits_Phase_8,1,1,48,73,1445881980
34,13,15,Jits_Phase_8,2,5,63,98,1445903724
34,13,15,Jits_Phase_8,3,5,80,127,1445914144
34,13,15,Jits_Phase_8,0,5,63,98,1446583780
34,13,15,Jits_Phase_8,1,5,56,103,1446654212
34,13,15,Jits_Phase_8,2,5,80,127,1446703516
34,13,15,Jits_Phase_8,3,1,48,70,1446709100
34,13,15,Jits_Phase_8,0,1,48,70,1447406732
34,13,15,Jits_Phase_8,1,5,63,98,1447414252
34,13,15,Jits_Phase_8,2,5,56,103,1447424296
34,13,15,Jits_Phase_8,3,5,80,127,1447427436
34,13,15,Jits_Phase_8,0,5,80,127,1448163580
34,13,15,Jits_Phase_8,1,1,48,67,1448206412
34,13,15,Jits_Phase_8,2,5,56,103,1448223968
34,13,15,Jits_Phase_8,3,5,63,98,1448314304
34,13,15,Jits_Phase_8,0,5,80,127,1448963352
34,13,15,Jits_Phase_8,1,1,48,54,1449035472
34,13,15,Jits_Phase_8,2,5,56,103,1449063968
34,13,15,Jits_Phase_8,3,5,63,98,1449103980
34,13,15,Jits_Phase_8,0,5,56,103,1449814516
34,13,15,Jits_Phase_8,1,5,63,98,1449833928
34,13,15,Jits_Phase_8,2,5,80,127,1449873864
34,13,15,Jits_Phase_8,3,1,48,56,1449875880
34,13,15,Jits_Phase_8,0,5,63,98,1450584396
34,13,15,Jits_Phase_8,1,5,56,103,1450603808
34,13,15,Jits_Phase_8,2,1,48,59,1450631192
34,13,15,Jits_Phase_8,3,5,80,127,1450704368
34,13,15,Jits_Phase_8,0,5,63,98,1451373884
34,13,15,Jits_Phase_8,1,1,48,55,1451402856
34,13,15,Jits_Phase_8,2,5,80,127,1451483444
34,13,15,Jits_Phase_8,3,5,56,103,1451514224
34,13,15,Jits_Phase_8,0,1,48,54,1452175184
34,13,15,Jits_Phase_8,1,5,56,103,1452194192
34,13,15,Jits_Phase_8,2,5,63,98,1452224016
34,13,15,Jits_Phase_8,3,5,80,127,1452273976
34,13,15,Jits_Phase_8,0,5,63,98,1452964060
34,13,15,Jits_Phase_8,1,5,56,103,1452993884
34,13,15,Jits_Phase_8,2,1,48,55,1453000664
34,13,15,Jits_Phase_8,3,5,80,127,1453044152
34,13,15,Jits_Phase_8,0,1,48,56,1453779948
34,13,15,Jits_Phase_8,1,5,56,103,1453793920
34,13,15,Jits_Phase_8,2,5,63,98,1453814156
34,13,15,Jits_Phase_8,3,5,80,127,1453894012
34,13,15,Jits_Phase_8,0,5,63,98,1454563868
34,13,15,Jits_Phase_8,1,1,48,63,1454616356
34,13,15,Jits_Phase_8,2,5,56,103,1454624104
34,13,15,Jits_Phase_8,3,5,80,127,1454653704
34,13,15,Jits_Phase_8,0,1,48,58,1455356172
34,13,15,Jits_Phase_8,1,5,56,103,1455404520
34,13,15,Jits_Phase_8,2,5,80,127,1455463848
34,13,15,Jits_Phase_8,3,5,63,98,1455503716
34,13,15,Jits_Phase_8,0,5,63,98,1456183688
34,13,15,Jits_Phase_8,1,5,56,103,1456244080
34,13,15,Jits_Phase_8,2,1,48,73,1456245044
34,13,15,Jits_Phase_8,3,5,80,127,1456313848
34,13,15,Jits_Phase_8,0,1,48,64,1457003796
34,13,15,Jits_Phase_8,1,5,56,103,1457064600
34,13,15,Jits_Phase_8,2,5,63,98,1457073600
34,13,15,Jits_Phase_8,3,5,80,127,1457076964
34,13,15,Jits_Phase_8,0,5,63,98,1457803576
34,13,15,Jits_Phase_8,1,1,48,59,1457838632
34,13,15,Jits_Phase_8,2,5,56,103,1457864132
34,13,15,Jits_Phase_8,3,5,80,127,1457867200
34,13,15,Jits_Phase_8,0,5,63,98,1458583920
34,13,15,Jits_Phase_8,1,5,80,127,1458613844
34,13,15,Jits_Phase_8,2,1,48,51,1458629392
34,13,15,Jits_Phase_8,3,5,56,103,1458634220
34,13,15,Jits_Phase_8,0,5,56,103,1459314068
34,13,15,Jits_Phase_8,1,5,63,98,1459364076
34,13,15,Jits_Phase_8,2,1,48,56,1459406672
34,13,15,Jits_Phase_8,3,5,80,127,1459444008
34,13,15,Jits_Phase_8,0,5,80,127,1460013536
34,13,15,Jits_Phase_8,1,5,63,98,1460054524
34,13,15,Jits_Phase_8,2,5,56,103,1460073784
34,13,15,Jits_Phase_8,3,1,48,77,1460102828
34,13,15,Jits_Phase_8,0,1,48,61,1460817536
34,13,15,Jits_Phase_8,1,5,56,103,1460883796
34,13,15,Jits_Phase_8,2,5,80,127,1460894092
34,13,15,Jits_Phase_8,3,5,63,98,1460913636
34,13,15,Jits_Phase_8,0,1,48,65,1461635056
34,13,15,Jits_Phase_8,1,5,56,103,1461664252
34,13,15,Jits_Phase_8,2,5,63,98,1461714452
34,13,15,Jits_Phase_8,3,5,80,127,1461743964
34,13,15,Jits_Phase_8,0,5,56,103,1462413648
34,13,15,Jits_Phase_8,1,5,63,98,1462424436
34,13,15,Jits_Phase_8,2,1,48,59,1462462276
34,13,15,Jits_Phase_8,3,5,80,127,1462474580
34,13,15,Jits_Phase_8,0,1,48,62,1463150580
34,13,15,Jits_Phase_8,1,5,56,103,1463204284
34,13,15,Jits_Phase_8,2,5,80,127,1463207500
34,13,15,Jits_Phase_8,3,5,63,98,1463363924
34,13,15,Jits_Phase_8,0,1,48,48,1463995472
34,13,15,Jits_Phase_8,1,5,63,98,1464024416
34,13,15,Jits_Phase_8,2,5,56,103,1464093932
34,13,15,Jits_Phase_8,3,5,80,127,1464133872
34,13,15,Jits_Phase_8,0,1,48,59,1464777688
34,13,15,Jits_Phase_8,1,5,63,98,1464864256
34,13,15,Jits_Phase_8,2,5,56,103,1464954448
34,13,15,Jits_Phase_8,3,5,80,127,1464957368
34,13,15,Jits_Phase_8,0,1,48,58,1465639256
34,13,15,Jits_Phase_8,1,5,56,103,1465644532
34,13,15,Jits_Phase_8,2,5,63,98,1465733380
34,13,15,Jits_Phase_8,3,5,80,127,1465743800
34,13,15,Jits_Phase_8,0,5,56,103,1466413360
34,13,15,Jits_Phase_8,1,5,63,98,1466463564
34,13,15,Jits_Phase_8,2,5,80,127,1466494284
34,13,15,Jits_Phase_8,3,1,48,46,1466506400
34,13,15,Jits_Phase_8,0,1,48,47,1467241104
34,13,15,Jits_Phase_8,1,5,63,98,1467294064
34,13,15,Jits_Phase_8,2,5,80,127,1467304184
34,13,15,Jits_Phase_8,3,5,56,103,1467363884
34,13,15,Jits_Phase_8,0,5,63,98,1468013940
34,13,15,Jits_Phase_8,1,5,80,127,1468074284
34,13,15,Jits_Phase_8,2,1,48,65,1468095456
34,13,15,Jits_Phase_8,3,5,56,103,1468114360
34,13,15,Jits_Phase_8,0,1,48,58,1468882996
34,13,15,Jits_Phase_8,1,5,56,103,1468914108
34,13,15,Jits_Phase_8,2,5,80,127,1468933448
34,13,15,Jits_Phase_8,3,5,63,98,1468953908
34,13,15,Jits_Phase_8,0,5,63,98,1469634012
34,13,15,Jits_Phase_8,1,5,56,103,1469654252
34,13,15,Jits_Phase_8,2,1,48,60,1469671068
34,13,15,Jits_Phase_8,3,5,80,127,1469694404
34,13,15,Jits_Phase_8,0,1,48,62,1470415828
34,13,15,Jits_Phase_8,1,5,63,98,1470443876
34,13,15,Jits_Phase_8,2,5,80,127,1470473552
34,13,15,Jits_Phase_8,3,5,56,103,1470494012
34,13,15,Jits_Phase_8,0,1,48,55,1471181040
34,13,15,Jits_Phase_8,1,5,80,127,1471213888
34,13,15,Jits_Phase_8,2,5,56,103,1471264244
34,13,15,Jits_Phase_8,3,5,63,98,1471323568
34,13,15,Jits_Phase_8,0,5,63,98,1472003392
34,13,15,Jits_Phase_8,1,1,48,72,1472044496
34,13,15,Jits_Phase_8,2,5,56,103,1472124380
34,13,15,Jits_Phase_8,3,5,80,127,1472153820
34,13,15,Jits_Phase_8,0,5,80,127,1472844052
34,13,15,Jits_Phase_8,1,1,48,69,1472851880
34,13,15,Jits_Phase_8,2,5,63,98,1472863532
34,13,15,Jits_Phase_8,3,5,56,103,1472934136
34,13,15,Jits_Phase_8,0,5,63,98,1473664428
34,13,15,Jits_Phase_8,1,1,48,72,1473669788
34,13,15,Jits_Phase_8,2,5,56,103,1473673572
34,13,15,Jits_Phase_8,3,5,80,127,1473753388
34,13,15,Jits_Phase_8,0,1,48,74,1474461096
34,13,15,Jits_Phase_8,1,5,56,103,1474523620
34,13,15,Jits_Phase_8,2,5,80,127,1474554268
34,13,15,Jits_Phase_8,3,5,63,98,1474563404
34,13,15,Jits_Phase_8,0,9999,9999,9999,1339661412
34,13,15,Jits_Phase_8,1,9999,9999,9999,1340461124
34,13,15,Jits_Phase_8,2,9999,9999,9999,1341261888
34,13,15,Jits_Phase_8,3,9999,9999,9999,1342061660
34,13,15,Jits_Phase_8,4,9999,9999,9999,1342861424
34,13,15,Jits_Phase_8,5,9999,9999,9999,1343661136
34,13,15,Jits_Phase_8,6,9999,9999,9999,1344461876
34,13,15,Jits_Phase_8,7,9999,9999,9999,1345261652
34,13,15,Jits_Phase_8,8,9999,9999,9999,1346061424
34,13,15,Jits_Phase_8,9,9999,9999,9999,1346861164
34,13,15,Jits_Phase_8,10,9999,9999,9999,1347661916
34,13,15,Jits_Phase_8,11,9999,9999,9999,1348461672
34,13,15,Jits_Phase_8,12,9999,9999,9999,1349261376
34,13,15,Jits_Phase_8,13,9999,9999,9999,1350061168
34,13,15,Jits_Phase_8,14,9999,9999,9999,1350861884
34,13,15,Jits_Phase_8,15,9999,9999,9999,1351661648
34,13,15,Jits_Phase_8,16,9999,9999,9999,1352461388
34,13,15,Jits_Phase_8,17,9999,9999,9999,1353261168
34,13,15,Jits_Phase_8,18,9999,9999,9999,1354061900
34,13,15,Jits_Phase_8,19,9999,9999,9999,1354861672
34,13,15,Jits_Phase_8,20,9999,9999,9999,1355661428
34,13,15,Jits_Phase_8,21,9999,9999,9999,1356461132
34,13,15,Jits_Phase_8,22,9999,9999,9999,1357261944
34,13,15,Jits_Phase_8,23,9999,9999,9999,1358061624
34,13,15,Jits_Phase_8,24,9999,9999,9999,1358861380
34,13,15,Jits_Phase_8,25,9999,9999,9999,1359661136
34,13,15,Jits_Phase_8,26,9999,9999,9999,1360461876
34,13,15,Jits_Phase_8,27,9999,9999,9999,1361261636
34,13,15,Jits_Phase_8,28,9999,9999,9999,1362061388
34,13,15,Jits_Phase_8,29,9999,9999,9999,1362861180
34,13,15,Jits_Phase_8,30,9999,9999,9999,1363641456
34,13,15,Jits_Phase_8,31,9999,9999,9999,1364441212
34,13,15,Jits_Phase_8,32,9999,9999,9999,1365241952
34,13,15,Jits_Phase_8,33,9999,9999,9999,1366041720
34,13,15,Jits_Phase_8,34,9999,9999,9999,1366841416
34,13,15,Jits_Phase_8,35,9999,9999,9999,1367641196
34,13,15,Jits_Phase_8,36,9999,9999,9999,1368441928
34,13,15,Jits_Phase_8,37,9999,9999,9999,1369241700
34,13,15,Jits_Phase_8,38,9999,9999,9999,1370041420
34,13,15,Jits_Phase_8,39,9999,9999,9999,1370841192
34,13,15,Jits_Phase_8,40,9999,9999,9999,1371641928
34,13,15,Jits_Phase_8,41,9999,9999,9999,1372441696
34,13,15,Jits_Phase_8,42,9999,9999,9999,1373241452
34,13,15,Jits_Phase_8,43,9999,9999,9999,1374041212
34,13,15,Jits_Phase_8,44,9999,9999,9999,1374841928
34,13,15,Jits_Phase_8,45,9999,9999,9999,1375641688
34,13,15,Jits_Phase_8,46,9999,9999,9999,1376441468
34,13,15,Jits_Phase_8,47,9999,9999,9999,1377241160
34,13,15,Jits_Phase_8,48,9999,9999,9999,1378061384
34,13,15,Jits_Phase_8,49,9999,9999,9999,1378861148
34,13,15,Jits_Phase_8,50,9999,9999,9999,1379661952
34,13,15,Jits_Phase_8,51,9999,9999,9999,1380461632
34,13,15,Jits_Phase_8,52,9999,9999,9999,1381261392
34,13,15,Jits_Phase_8,53,9999,9999,9999,1382061124
34,13,15,Jits_Phase_8,54,9999,9999,9999,1382861936
34,13,15,Jits_Phase_8,55,9999,9999,9999,1383661640
34,13,15,Jits_Phase_8,56,9999,9999,9999,1384461392
34,13,15,Jits_Phase_8,57,9999,9999,9999,1385261164
34,13,15,Jits_Phase_8,58,9999,9999,9999,1386061908
34,13,15,Jits_Phase_8,59,9999,9999,9999,1386861676
34,13,15,Jits_Phase_8,60,9999,9999,9999,1387661372
34,13,15,Jits_Phase_8,61,9999,9999,9999,1388461168
34,13,15,Jits_Phase_8,62,9999,9999,9999,1389261912
34,13,15,Jits_Phase_8,63,9999,9999,9999,1390061660
34,13,15,Jits_Phase_8,64,9999,9999,9999,1390901368
34,13,15,Jits_Phase_8,65,9999,9999,9999,1391702100
34,13,15,Jits_Phase_8,66,9999,9999,9999,1392512068
34,13,15,Jits_Phase_8,67,9999,9999,9999,1393322044
34,13,15,Jits_Phase_8,68,9999,9999,9999,1394121788
34,13,15,Jits_Phase_8,69,9999,9999,9999,1394921560
34,13,15,Jits_Phase_8,70,9999,9999,9999,1395721324
34,13,15,Jits_Phase_8,71,9999,9999,9999,1396522064
34,13,15,Jits_Phase_8,72,9999,9999,9999,1397321832
34,13,15,Jits_Phase_8,73,9999,9999,9999,1398121528
34,13,15,Jits_Phase_8,74,9999,9999,9999,1398921308
34,13,15,Jits_Phase_8,75,9999,9999,9999,1399722080
34,13,15,Jits_Phase_8,76,9999,9999,9999,1400521852
34,13,15,Jits_Phase_8,77,9999,9999,9999,1401321548
34,13,15,Jits_Phase_8,78,9999,9999,9999,1402121300
34,13,15,Jits_Phase_8,79,9999,9999,9999,1402922104
34,13,15,Jits_Phase_8,80,9999,9999,9999,1403721788
34,13,15,Jits_Phase_8,81,9999,9999,9999,1404481612
34,13,15,Jits_Phase_8,82,9999,9999,9999,1405281372
34,13,15,Jits_Phase_8,83,9999,9999,9999,1406081128
34,13,15,Jits_Phase_8,84,9999,9999,9999,1406881872
34,13,15,Jits_Phase_8,85,9999,9999,9999,1407681648
34,13,15,Jits_Phase_8,86,9999,9999,9999,1408481404
34,13,15,Jits_Phase_8,87,9999,9999,9999,1409281080
34,13,15,Jits_Phase_8,88,9999,9999,9999,1410081876
34,13,15,Jits_Phase_8,89,9999,9999,9999,1410881640
34,13,15,Jits_Phase_8,90,9999,9999,9999,1411681408
34,13,15,Jits_Phase_8,91,9999,9999,9999,1412481084
34,13,15,Jits_Phase_8,92,9999,9999,9999,1413281856
34,13,15,Jits_Phase_8,93,9999,9999,9999,1414081608
34,13,15,Jits_Phase_8,94,9999,9999,9999,1414881364
34,13,15,Jits_Phase_8,95,9999,9999,9999,1415681120
34,13,15,Jits_Phase_8,96,9999,9999,9999,1416481860
34,13,15,Jits_Phase_8,97,9999,9999,9999,1417201756
34,13,15,Jits_Phase_8,98,9999,9999,9999,1418001532
34,13,15,Jits_Phase_8,99,9999,9999,9999,1418801232
34,13,15,Jits_Phase_8,100,9999,9999,9999,1419602040
34,13,15,Jits_Phase_8,101,9999,9999,9999,1420401724
34,13,15,Jits_Phase_8,102,9999,9999,9999,1421201492
34,13,15,Jits_Phase_8,103,9999,9999,9999,1422001276
34,13,15,Jits_Phase_8,104,9999,9999,9999,1422802020
34,13,15,Jits_Phase_8,105,9999,9999,9999,1423601784
34,13,15,Jits_Phase_8,106,9999,9999,9999,1424401532
34,13,15,Jits_Phase_8,107,9999,9999,9999,1425201272
34,13,15,Jits_Phase_8,108,9999,9999,9999,1426002008
34,13,15,Jits_Phase_8,109,9999,9999,9999,1426801756
34,13,15,Jits_Phase_8,110,9999,9999,9999,1427601516
34,13,15,Jits_Phase_8,111,9999,9999,9999,1428401228
34,13,15,Jits_Phase_8,112,9999,9999,9999,1429202044
34,13,15,Jits_Phase_8,113,9999,9999,9999,1430001740
34,13,15,Jits_Phase_8,114,9999,9999,9999,1430881372
34,13,15,Jits_Phase_8,115,9999,9999,9999,1431681132
34,13,15,Jits_Phase_8,116,9999,9999,9999,1432481904
34,13,15,Jits_Phase_8,117,9999,9999,9999,1433281608
34,13,15,Jits_Phase_8,118,9999,9999,9999,1434081384
34,13,15,Jits_Phase_8,119,9999,9999,9999,1434881148
34,13,15,Jits_Phase_8,120,9999,9999,9999,1435681888
34,13,15,Jits_Phase_8,121,9999,9999,9999,1436481644
34,13,15,Jits_Phase_8,122,9999,9999,9999,1437281396
34,13,15,Jits_Phase_8,123,9999,9999,9999,1438081148
34,13,15,Jits_Phase_8,124,9999,9999,9999,1438881908
34,13,15,Jits_Phase_8,125,9999,9999,9999,1439681656
34,13,15,Jits_Phase_8,126,9999,9999,9999,1440481352
34,13,15,Jits_Phase_8,127,9999,9999,9999,1441281116
34,13,15,Jits_Phase_8,128,9999,9999,9999,1442081848
34,13,15,Jits_Phase_8,129,9999,9999,9999,1442881620
34,13,15,Jits_Phase_8,130,9999,9999,9999,1443681400
34,13,15,Jits_Phase_8,131,9999,9999,9999,1444641876
34,13,15,Jits_Phase_8,132,9999,9999,9999,1445441644
34,13,15,Jits_Phase_8,133,9999,9999,9999,1446241336
34,13,15,Jits_Phase_8,134,9999,9999,9999,1447041112
34,13,15,Jits_Phase_8,135,9999,9999,9999,1447841852
34,13,15,Jits_Phase_8,136,9999,9999,9999,1448641612
34,13,15,Jits_Phase_8,137,9999,9999,9999,1449441380
34,13,15,Jits_Phase_8,138,9999,9999,9999,1450241076
34,13,15,Jits_Phase_8,139,9999,9999,9999,1451041896
34,13,15,Jits_Phase_8,140,9999,9999,9999,1451841652
34,13,15,Jits_Phase_8,141,9999,9999,9999,1452641336
34,13,15,Jits_Phase_8,142,9999,9999,9999,1453441088
34,13,15,Jits_Phase_8,143,9999,9999,9999,1454241916
34,13,15,Jits_Phase_8,144,9999,9999,9999,1455041596
34,13,15,Jits_Phase_8,145,9999,9999,9999,1455841356
34,13,15,Jits_Phase_8,146,9999,9999,9999,1456641116
34,13,15,Jits_Phase_8,147,9999,9999,9999,1457441912
34,13,15,Jits_Phase_8,148,9999,9999,9999,1458241664
34,13,15,Jits_Phase_8,149,9999,9999,9999,1459041344
34,13,15,Jits_Phase_8,150,9999,9999,9999,1459681380
34,13,15,Jits_Phase_8,151,9999,9999,9999,1460481148
34,13,15,Jits_Phase_8,152,9999,9999,9999,1461281896
34,13,15,Jits_Phase_8,153,9999,9999,9999,1462081656
34,13,15,Jits_Phase_8,154,9999,9999,9999,1462881332
34,13,15,Jits_Phase_8,155,9999,9999,9999,1463681092
34,13,15,Jits_Phase_8,156,9999,9999,9999,1464481848
34,13,15,Jits_Phase_8,157,9999,9999,9999,1465281608
34,13,15,Jits_Phase_8,158,9999,9999,9999,1466081372
34,13,15,Jits_Phase_8,159,9999,9999,9999,1466881124
34,13,15,Jits_Phase_8,160,9999,9999,9999,1467681876
34,13,15,Jits_Phase_8,161,9999,9999,9999,1468481632
34,13,15,Jits_Phase_8,162,9999,9999,9999,1469281396
34,13,15,Jits_Phase_8,163,9999,9999,9999,1470081076
34,13,15,Jits_Phase_8,164,9999,9999,9999,1470881904
34,13,15,Jits_Phase_8,165,9999,9999,9999,1471681588
34,13,15,Jits_Phase_8,166,9999,9999,9999,1472481348
34,13,15,Jits_Phase_8,167,9999,9999,9999,1473281104
34,13,15,Jits_Phase_8,168,9999,9999,9999,1474081852
34,13,15,Jits_Phase_8,169,9999,9999,9999,1474881616
34,14,17,Jits_Phase_5,0,5,56,103,1499065788
34,14,17,Jits_Phase_5,1,5,63,98,1499068808
34,14,17,Jits_Phase_5,2,5,80,127,1499071932
34,14,17,Jits_Phase_5,0,5,56,103,1499565496
34,14,17,Jits_Phase_5,1,5,63,98,1499568444
34,14,17,Jits_Phase_5,2,5,80,127,1499571640
34,14,17,Jits_Phase_5,0,5,56,103,1500066268
34,14,17,Jits_Phase_5,1,5,80,127,1500076688
34,14,17,Jits_Phase_5,2,5,63,98,1500095800
34,14,17,Jits_Phase_5,0,5,63,98,1500515704
34,14,17,Jits_Phase_5,1,5,80,127,1500546500
34,14,17,Jits_Phase_5,2,5,56,103,1500555576
34,14,17,Jits_Phase_5,0,1,48,79,1501002036
34,14,17,Jits_Phase_5,1,5,80,127,1501075944
34,14,17,Jits_Phase_5,2,5,56,103,1501086016
34,14,17,Jits_Phase_5,3,5,63,98,1501115672
34,14,17,Jits_Phase_5,0,1,48,86,1501565812
34,14,17,Jits_Phase_5,1,5,63,98,1501567600
34,14,17,Jits_Phase_5,2,5,56,103,1501595956
34,14,17,Jits_Phase_5,3,5,80,127,1501606376
34,14,17,Jits_Phase_5,0,5,56,103,1502015824
34,14,17,Jits_Phase_5,1,5,63,98,1502066172
34,14,17,Jits_Phase_5,2,1,48,89,1502072428
34,14,17,Jits_Phase_5,3,5,80,127,1502085352
34,14,17,Jits_Phase_5,0,5,80,127,1502515660
34,14,17,Jits_Phase_5,1,1,48,93,1502556172
34,14,17,Jits_Phase_5,2,5,63,98,1502565632
34,14,17,Jits_Phase_5,3,5,56,103,1502605644
34,14,17,Jits_Phase_5,0,5,56,103,1503016544
34,14,17,Jits_Phase_5,1,5,63,98,1503046148
34,14,17,Jits_Phase_5,2,1,48,85,1503049712
34,14,17,Jits_Phase_5,3,5,80,127,1503115596
34,14,17,Jits_Phase_5,0,5,56,103,1503516016
34,14,17,Jits_Phase_5,1,1,48,79,1503523924
34,14,17,Jits_Phase_5,2,5,80,127,1503576548
34,14,17,Jits_Phase_5,3,5,63,98,1503606148
34,14,17,Jits_Phase_5,0,5,56,103,1504025896
34,14,17,Jits_Phase_5,1,1,48,79,1504032748
34,14,17,Jits_Phase_5,2,5,63,98,1504036456
34,14,17,Jits_Phase_5,3,5,80,127,1504076172
34,14,17,Jits_Phase_5,0,5,63,98,1504515396
34,14,17,Jits_Phase_5,1,1,48,76,1504547960
34,14,17,Jits_Phase_5,2,5,80,127,1504596528
34,14,17,Jits_Phase_5,3,5,56,103,1504605676
34,14,17,Jits_Phase_5,0,1,48,70,1505042600
34,14,17,Jits_Phase_5,1,5,63,98,1505066308
34,14,17,Jits_Phase_5,2,5,56,103,1505106468
34,14,17,Jits_Phase_5,3,5,80,127,1505109384
34,14,17,Jits_Phase_5,0,5,56,103,1505526348
34,14,17,Jits_Phase_5,1,5,63,98,1505536544
34,14,17,Jits_Phase_5,2,1,48,74,1505551120
34,14,17,Jits_Phase_5,3,5,80,127,1505576252
34,14,17,Jits_Phase_5,0,5,56,103,1506015624
34,14,17,Jits_Phase_5,1,5,63,98,1506018612
34,14,17,Jits_Phase_5,2,1,48,74,1506030420
34,14,17,Jits_Phase_5,3,5,80,127,1506036072
34,14,17,Jits_Phase_5,0,1,48,76,1506512856
34,14,17,Jits_Phase_5,1,5,80,127,1506525484
34,14,17,Jits_Phase_5,2,5,56,103,1506536048
34,14,17,Jits_Phase_5,3,5,63,98,1506605504
34,14,17,Jits_Phase_5,0,5,63,98,1507016244
34,14,17,Jits_Phase_5,1,1,48,77,1507019436
34,14,17,Jits_Phase_5,2,5,56,103,1507035500
34,14,17,Jits_Phase_5,3,5,80,127,1507116396
34,14,17,Jits_Phase_5,0,5,56,103,1507525888
34,14,17,Jits_Phase_5,1,1,48,75,1507528932
34,14,17,Jits_Phase_5,2,5,80,127,1507566040
34,14,17,Jits_Phase_5,3,5,63,98,1507576236
34,14,17,Jits_Phase_5,0,5,80,127,1508015460
34,14,17,Jits_Phase_5,1,1,48,81,1508035212
34,14,17,Jits_Phase_5,2,5,63,98,1508046396
34,14,17,Jits_Phase_5,3,5,56,103,1508086108
34,14,17,Jits_Phase_5,0,1,48,86,1508522144
34,14,17,Jits_Phase_5,1,5,56,103,1508535664
34,14,17,Jits_Phase_5,2,5,63,98,1508566464
34,14,17,Jits_Phase_5,3,5,80,127,1508615896
34,14,17,Jits_Phase_5,0,1,48,74,1509027748
34,14,17,Jits_Phase_5,1,5,80,127,1509036468
34,14,17,Jits_Phase_5,2,5,56,103,1509076332
34,14,17,Jits_Phase_5,3,5,63,98,1509085480
34,14,17,Jits_Phase_5,0,5,80,127,1509515596
34,14,17,Jits_Phase_5,1,1,48,83,1509551844
34,14,17,Jits_Phase_5,2,5,63,98,1509555628
34,14,17,Jits_Phase_5,3,5,56,103,1509616236
34,14,17,Jits_Phase_5,0,5,56,103,1510016260
34,14,17,Jits_Phase_5,1,5,80,127,1510025708
34,14,17,Jits_Phase_5,2,1,48,86,1510043844
34,14,17,Jits_Phase_5,3,5,63,98,1510105588
34,14,17,Jits_Phase_5,0,5,80,127,1510516244
34,14,17,Jits_Phase_5,1,1,48,87,1510555808
34,14,17,Jits_Phase_5,2,5,63,98,1510575460
34,14,17,Jits_Phase_5,3,5,56,103,1510606180
34,14,17,Jits_Phase_5,0,5,56,103,1511015788
34,14,17,Jits_Phase_5,1,1,48,80,1511063792
34,14,17,Jits_Phase_5,2,5,80,127,1511076120
34,14,17,Jits_Phase_5,3,5,63,98,1511116208
34,14,17,Jits_Phase_5,0,5,56,103,1511565596
34,14,17,Jits_Phase_5,1,1,48,80,1511567080
34,14,17,Jits_Phase_5,2,5,63,98,1511576004
34,14,17,Jits_Phase_5,3,5,80,127,1511579468
34,14,17,Jits_Phase_5,0,5,80,127,1512016124
34,14,17,Jits_Phase_5,1,1,48,78,1512061268
34,14,17,Jits_Phase_5,2,5,63,98,1512106276
34,14,17,Jits_Phase_5,3,5,56,103,1512115424
34,14,17,Jits_Phase_5,0,5,56,103,1512515948
34,14,17,Jits_Phase_5,1,5,63,98,1512519124
34,14,17,Jits_Phase_5,2,5,80,127,1512522240
34,14,17,Jits_Phase_5,3,1,48,75,1512586800
34,14,17,Jits_Phase_5,0,5,80,127,1513036080
34,14,17,Jits_Phase_5,1,1,48,77,1513057180
34,14,17,Jits_Phase_5,2,5,63,98,1513086276
34,14,17,Jits_Phase_5,3,5,56,103,1513116048
34,14,17,Jits_Phase_5,0,5,56,103,1513516516
34,14,17,Jits_Phase_5,1,5,80,127,1513525516
34,14,17,Jits_Phase_5,2,1,48,68,1513553868
34,14,17,Jits_Phase_5,3,5,63,98,1513596456
34,14,17,Jits_Phase_5,0,5,56,103,1514026468
34,14,17,Jits_Phase_5,1,1,48,68,1514040452
34,14,17,Jits_Phase_5,2,5,63,98,1514046024
34,14,17,Jits_Phase_5,3,5,80,127,1514106260
34,14,17,Jits_Phase_5,0,5,80,127,1514515868
34,14,17,Jits_Phase_5,1,1,48,70,1514526484
34,14,17,Jits_Phase_5,2,5,63,98,1514585396
34,14,17,Jits_Phase_5,3,5,56,103,1514606076
34,14,17,Jits_Phase_5,0,1,48,83,1515028640
34,14,17,Jits_Phase_5,1,5,80,127,1515036080
34,14,17,Jits_Phase_5,2,5,56,103,1515046204
34,14,17,Jits_Phase_5,3,5,63,98,1515055652
34,14,17,Jits_Phase_5,0,5,80,127,1515525348
34,14,17,Jits_Phase_5,1,1,48,84,1515531008
34,14,17,Jits_Phase_5,2,5,56,103,1515546100
34,14,17,Jits_Phase_5,3,5,63,98,1515615924
34,14,17,Jits_Phase_5,0,5,56,103,1516035448
34,14,17,Jits_Phase_5,1,1,48,83,1516039316
34,14,17,Jits_Phase_5,2,5,80,127,1516066160
34,14,17,Jits_Phase_5,3,5,63,98,1516085572
34,14,17,Jits_Phase_5,0,5,63,98,1516525920
34,14,17,Jits_Phase_5,1,1,48,79,1516534964
34,14,17,Jits_Phase_5,2,5,56,103,1516586300
34,14,17,Jits_Phase_5,3,5,80,127,1516615900
34,14,17,Jits_Phase_5,0,5,63,98,1517016524
34,14,17,Jits_Phase_5,1,5,80,127,1517019964
34,14,17,Jits_Phase_5,2,1,48,81,1517028036
34,14,17,Jits_Phase_5,3,5,56,103,1517105748
34,14,17,Jits_Phase_5,0,1,48,95,1517515636
34,14,17,Jits_Phase_5,1,5,56,103,1517535740
34,14,17,Jits_Phase_5,2,5,63,98,1517566236
34,14,17,Jits_Phase_5,3,5,80,127,1517606172
34,14,17,Jits_Phase_5,0,1,48,64,1518036248
34,14,17,Jits_Phase_5,1,5,63,98,1518037808
34,14,17,Jits_Phase_5,2,5,56,103,1518076552
34,14,17,Jits_Phase_5,3,5,80,127,1518095888
34,14,17,Jits_Phase_5,0,5,63,98,1518546488
34,14,17,Jits_Phase_5,1,1,48,83,1518547980
34,14,17,Jits_Phase_5,2,5,56,103,1518586196
34,14,17,Jits_Phase_5,3,5,80,127,1518595644
34,14,17,Jits_Phase_5,0,5,80,127,1519025712
34,14,17,Jits_Phase_5,1,1,48,84,1519033636
34,14,17,Jits_Phase_5,2,5,63,98,1519096136
34,14,17,Jits_Phase_5,3,5,56,103,1519115620
34,14,17,Jits_Phase_5,0,5,56,103,1519515968
34,14,17,Jits_Phase_5,1,5,80,127,1519535676
34,14,17,Jits_Phase_5,2,1,48,83,1519542536
34,14,17,Jits_Phase_5,3,5,63,98,1519576652
34,14,17,Jits_Phase_5,0,1,48,87,1520013880
34,14,17,Jits_Phase_5,1,5,63,98,1520025988
34,14,17,Jits_Phase_5,2,5,80,127,1520045620
34,14,17,Jits_Phase_5,3,5,56,103,1520086680
34,14,17,Jits_Phase_5,0,5,63,98,1520525644
34,14,17,Jits_Phase_5,1,1,48,74,1520532272
34,14,17,Jits_Phase_5,2,5,56,103,1520546044
34,14,17,Jits_Phase_5,3,5,80,127,1520556540
34,14,17,Jits_Phase_5,0,5,80,127,1521026584
34,14,17,Jits_Phase_5,1,1,48,73,1521029776
34,14,17,Jits_Phase_5,2,5,56,103,1521045988
34,14,17,Jits_Phase_5,3,5,63,98,1521075540
34,14,17,Jits_Phase_5,0,1,48,66,1521544376
34,14,17,Jits_Phase_5,1,5,56,103,1521595884
34,14,17,Jits_Phase_5,2,5,80,127,1521598804
34,14,17,Jits_Phase_5,3,5,63,98,1521616492
34,14,17,Jits_Phase_5,0,5,63,98,1522015744
34,14,17,Jits_Phase_5,1,5,56,103,1522046540
34,14,17,Jits_Phase_5,2,1,48,77,1522083612
34,14,17,Jits_Phase_5,3,5,80,127,1522105752
34,14,17,Jits_Phase_5,0,1,48,65,1522560336
34,14,17,Jits_Phase_5,1,5,63,98,1522596500
34,14,17,Jits_Phase_5,2,5,56,103,1522605500
34,14,17,Jits_Phase_5,3,5,80,127,1522615772
34,14,17,Jits_Phase_5,0,5,56,103,1523056452
34,14,17,Jits_Phase_5,1,1,48,70,1523082272
34,14,17,Jits_Phase_5,2,5,80,127,1523085824
34,14,17,Jits_Phase_5,3,5,63,98,1523095872
34,14,17,Jits_Phase_5,0,1,48,56,1523537880
34,14,17,Jits_Phase_5,1,5,63,98,1523595676
34,14,17,Jits_Phase_5,2,5,56,103,1523605872
34,14,17,Jits_Phase_5,3,5,80,127,1523626576
34,14,17,Jits_Phase_5,0,5,56,103,1524025612
34,14,17,Jits_Phase_5,1,1,48,59,1524064920
34,14,17,Jits_Phase_5,2,5,63,98,1524086068
34,14,17,Jits_Phase_5,3,5,80,127,1524089428
34,14,17,Jits_Phase_5,0,5,80,127,1524545816
34,14,17,Jits_Phase_5,1,1,48,69,1524547828
34,14,17,Jits_Phase_5,2,5,56,103,1524556080
34,14,17,Jits_Phase_5,3,5,63,98,1524625832
34,14,17,Jits_Phase_5,0,5,80,127,1525036364
34,14,17,Jits_Phase_5,1,1,48,72,1525064140
34,14,17,Jits_Phase_5,2,5,56,103,1525106112
34,14,17,Jits_Phase_5,3,5,63,98,1525116604
34,14,17,Jits_Phase_5,0,1,48,74,1525575308
34,14,17,Jits_Phase_5,1,5,63,98,1525576956
34,14,17,Jits_Phase_5,2,5,56,103,1525586400
34,14,17,Jits_Phase_5,3,5,80,127,1525605736
34,14,17,Jits_Phase_5,0,5,80,127,1526025696
34,14,17,Jits_Phase_5,1,1,48,75,1526059972
34,14,17,Jits_Phase_5,2,5,63,98,1526085928
34,14,17,Jits_Phase_5,3,5,56,103,1526125940
34,14,17,Jits_Phase_5,0,5,56,103,1526566216
34,14,17,Jits_Phase_5,1,1,48,81,1526572400
34,14,17,Jits_Phase_5,2,5,63,98,1526575508
34,14,17,Jits_Phase_5,3,5,80,127,1526616416
34,14,17,Jits_Phase_5,0,5,56,103,1527025976
34,14,17,Jits_Phase_5,1,5,80,127,1527055724
34,14,17,Jits_Phase_5,2,1,48,75,1527080936
34,14,17,Jits_Phase_5,3,5,63,98,1527105844
34,14,17,Jits_Phase_5,0,5,56,103,1527565596
34,14,17,Jits_Phase_5,1,1,48,79,1527570660
34,14,17,Jits_Phase_5,2,5,63,98,1527605676
34,14,17,Jits_Phase_5,3,5,80,127,1527609260
34,14,17,Jits_Phase_5,0,5,56,103,1528066324
34,14,17,Jits_Phase_5,1,1,48,66,1528068264
34,14,17,Jits_Phase_5,2,5,63,98,1528075616
34,14,17,Jits_Phase_5,3,5,80,127,1528096224
34,14,17,Jits_Phase_5,0,5,56,103,1528526304
34,14,17,Jits_Phase_5,1,5,80,127,1528529372
34,14,17,Jits_Phase_5,2,5,63,98,1528566388
34,14,17,Jits_Phase_5,3,1,48,73,1528573696
34,14,17,Jits_Phase_5,0,1,48,73,1529048048
34,14,17,Jits_Phase_5,1,5,63,98,1529065908
34,14,17,Jits_Phase_5,2,5,56,103,1529095508
34,14,17,Jits_Phase_5,3,5,80,127,1529116116
34,14,17,Jits_Phase_5,0,5,80,127,1529536216
34,14,17,Jits_Phase_5,1,1,48,80,1529544760
34,14,17,Jits_Phase_5,2,5,56,103,1529546556
34,14,17,Jits_Phase_5,3,5,63,98,1529556380
34,14,17,Jits_Phase_5,0,5,56,103,1530035536
34,14,17,Jits_Phase_5,1,1,48,76,1530038200
34,14,17,Jits_Phase_5,2,5,80,127,1530075540
34,14,17,Jits_Phase_5,3,5,63,98,1530106184
34,14,17,Jits_Phase_5,0,5,63,98,1530545564
34,14,17,Jits_Phase_5,1,1,48,67,1530547124
34,14,17,Jits_Phase_5,2,5,80,127,1530555752
34,14,17,Jits_Phase_5,3,5,56,103,1530566172
34,14,17,Jits_Phase_5,0,5,56,103,1531036096
34,14,17,Jits_Phase_5,1,1,48,67,1531039140
34,14,17,Jits_Phase_5,2,5,63,98,1531105548
34,14,17,Jits_Phase_5,3,5,80,127,1531115968
34,14,17,Jits_Phase_5,0,5,80,127,1531546052
34,14,17,Jits_Phase_5,1,5,56,103,1531556248
34,14,17,Jits_Phase_5,2,1,48,65,1531572020
34,14,17,Jits_Phase_5,3,5,63,98,1531606368
34,14,17,Jits_Phase_5,0,1,48,69,1532053780
34,14,17,Jits_Phase_5,1,5,80,127,1532056144
34,14,17,Jits_Phase_5,2,5,56,103,1532116384
34,14,17,Jits_Phase_5,3,5,63,98,1532147240
34,14,17,Jits_Phase_5,0,5,56,103,1532555728
34,14,17,Jits_Phase_5,1,5,80,127,1532558868
34,14,17,Jits_Phase_5,2,1,48,63,1532575652
34,14,17,Jits_Phase_5,3,5,63,98,1532595456
34,14,17,Jits_Phase_5,0,1,48,68,1533038212
34,14,17,Jits_Phase_5,1,5,56,103,1533085992
34,14,17,Jits_Phase_5,2,5,63,98,1533115740
34,14,17,Jits_Phase_5,3,5,80,127,1533126084
34,14,17,Jits_Phase_5,0,1,48,75,1533540660
34,14,17,Jits_Phase_5,1,5,63,98,1533596156
34,14,17,Jits_Phase_5,2,5,80,127,1533606204
34,14,17,Jits_Phase_5,3,5,56,103,1533615352
34,14,17,Jits_Phase_5,0,5,80,127,1534045468
34,14,17,Jits_Phase_5,1,1,48,67,1534067020
34,14,17,Jits_Phase_5,2,5,56,103,1534095580
34,14,17,Jits_Phase_5,3,5,63,98,1534098800
34,14,17,Jits_Phase_5,0,1,48,78,1534571324
34,14,17,Jits_Phase_5,1,5,56,103,1534576228
34,14,17,Jits_Phase_5,2,5,80,127,1534595344
34,14,17,Jits_Phase_5,3,5,63,98,1534605612
34,14,17,Jits_Phase_5,0,5,63,98,1535056280
34,14,17,Jits_Phase_5,1,1,48,75,1535079476
34,14,17,Jits_Phase_5,2,5,56,103,1535085872
34,14,17,Jits_Phase_5,3,5,80,127,1535106480
34,14,17,Jits_Phase_5,0,5,56,103,1535566144
34,14,17,Jits_Phase_5,1,1,48,77,1535573300
34,14,17,Jits_Phase_5,2,5,80,127,1535576480
34,14,17,Jits_Phase_5,3,5,63,98,1535646108
34,14,17,Jits_Phase_5,0,5,63,98,1536055644
34,14,17,Jits_Phase_5,1,1,48,66,1536093608
34,14,17,Jits_Phase_5,2,5,80,127,1536095576
34,14,17,Jits_Phase_5,3,5,56,103,1536135660
34,14,17,Jits_Phase_5,0,5,56,103,1536565804
34,14,17,Jits_Phase_5,1,5,63,98,1536575924
34,14,17,Jits_Phase_5,2,5,80,127,1536596384
34,14,17,Jits_Phase_5,3,1,48,67,1536599056
34,14,17,Jits_Phase_5,0,1,48,68,1537103800
34,14,17,Jits_Phase_5,1,5,63,98,1537106316
34,14,17,Jits_Phase_5,2,5,80,127,1537126024
34,14,17,Jits_Phase_5,3,5,56,103,1537146260
34,14,17,Jits_Phase_5,0,5,56,103,1537545688
34,14,17,Jits_Phase_5,1,1,48,62,1537603412
34,14,17,Jits_Phase_5,2,5,80,127,1537625404
34,14,17,Jits_Phase_5,3,5,63,98,1537635896
34,14,17,Jits_Phase_5,0,5,80,127,1538086208
34,14,17,Jits_Phase_5,1,1,48,66,1538087400
34,14,17,Jits_Phase_5,2,5,63,98,1538095504
34,14,17,Jits_Phase_5,3,5,56,103,1538126148
34,14,17,Jits_Phase_5,0,5,63,98,1538546116
34,14,17,Jits_Phase_5,1,5,80,127,1538586056
34,14,17,Jits_Phase_5,2,1,48,70,1538602876
34,14,17,Jits_Phase_5,3,5,56,103,1538646288
34,14,17,Jits_Phase_5,0,5,63,98,1539055984
34,14,17,Jits_Phase_5,1,5,56,103,1539106112
34,14,17,Jits_Phase_5,2,1,48,69,1539109008
34,14,17,Jits_Phase_5,3,5,80,127,1539135852
34,14,17,Jits_Phase_5,0,5,80,127,1539555664
34,14,17,Jits_Phase_5,1,5,63,98,1539566084
34,14,17,Jits_Phase_5,2,1,48,79,1539577224
34,14,17,Jits_Phase_5,3,5,56,103,1539635756
34,14,17,Jits_Phase_5,0,1,48,71,1540089632
34,14,17,Jits_Phase_5,1,5,80,127,1540115884
34,14,17,Jits_Phase_5,2,5,56,103,1540126228
34,14,17,Jits_Phase_5,3,5,63,98,1540129296
34,14,17,Jits_Phase_5,0,5,56,103,1540556004
34,14,17,Jits_Phase_5,1,5,80,127,1540575788
34,14,17,Jits_Phase_5,2,5,63,98,1540585760
34,14,17,Jits_Phase_5,3,1,48,80,1540595624
34,14,17,Jits_Phase_5,0,5,63,98,1541065960
34,14,17,Jits_Phase_5,1,1,48,67,1541069448
34,14,17,Jits_Phase_5,2,5,56,103,1541105964
34,14,17,Jits_Phase_5,3,5,80,127,1541125672
34,14,17,Jits_Phase_5,0,1,48,90,1541560200
34,14,17,Jits_Phase_5,1,5,63,98,1541565776
34,14,17,Jits_Phase_5,2,5,56,103,1541626164
34,14,17,Jits_Phase_5,3,5,80,127,1541629528
34,14,17,Jits_Phase_5,0,5,56,103,1542025648
34,14,17,Jits_Phase_5,1,5,80,127,1542046056
34,14,17,Jits_Phase_5,2,1,48,76,1542052240
34,14,17,Jits_Phase_5,3,5,63,98,1542086060
34,14,17,Jits_Phase_5,0,1,48,59,1542553184
34,14,17,Jits_Phase_5,1,5,56,103,1542555992
34,14,17,Jits_Phase_5,2,5,63,98,1542575552
34,14,17,Jits_Phase_5,3,5,80,127,1542585824
34,14,17,Jits_Phase_5,0,5,80,127,1543026132
34,14,17,Jits_Phase_5,1,1,48,71,1543054680
34,14,17,Jits_Phase_5,2,5,56,103,1543056476
34,14,17,Jits_Phase_5,3,5,63,98,1543095760
34,14,17,Jits_Phase_5,0,5,80,127,1543535860
34,14,17,Jits_Phase_5,1,1,48,80,1543541072
34,14,17,Jits_Phase_5,2,5,56,103,1543555488
34,14,17,Jits_Phase_5,3,5,63,98,1543615752
34,14,17,Jits_Phase_5,0,5,56,103,1544046028
34,14,17,Jits_Phase_5,1,1,48,75,1544058068
34,14,17,Jits_Phase_5,2,5,80,127,1544066556
34,14,17,Jits_Phase_5,3,5,63,98,1544125696
34,14,17,Jits_Phase_5,0,5,80,127,1544526460
34,14,17,Jits_Phase_5,1,5,56,103,1544536808
34,14,17,Jits_Phase_5,2,1,48,72,1544570044
34,14,17,Jits_Phase_5,3,5,63,98,1544576588
34,14,17,Jits_Phase_5,0,5,63,98,1545025776
34,14,17,Jits_Phase_5,1,1,48,71,1545050012
34,14,17,Jits_Phase_5,2,5,56,103,1545065852
34,14,17,Jits_Phase_5,3,5,80,127,1545068992
34,14,17,Jits_Phase_5,0,1,48,70,1545510408
34,14,17,Jits_Phase_5,1,5,63,98,1545546028
34,14,17,Jits_Phase_5,2,5,80,127,1545585968
34,14,17,Jits_Phase_5,3,5,56,103,1545615700
34,14,17,Jits_Phase_5,0,5,56,103,1546035524
34,14,17,Jits_Phase_5,1,5,63,98,1546045720
34,14,17,Jits_Phase_5,2,1,48,71,1546055740
34,14,17,Jits_Phase_5,3,5,80,127,1546075388
34,14,17,Jits_Phase_5,0,5,80,127,1546525992
34,14,17,Jits_Phase_5,1,1,48,67,1546545528
34,14,17,Jits_Phase_5,2,5,63,98,1546595668
34,14,17,Jits_Phase_5,3,5,56,103,1546605940
34,14,17,Jits_Phase_5,0,5,63,98,1547025760
34,14,17,Jits_Phase_5,1,1,48,84,1547042356
34,14,17,Jits_Phase_5,2,5,56,103,1547096480
34,14,17,Jits_Phase_5,3,5,80,127,1547105552
34,14,17,Jits_Phase_5,0,5,63,98,1547506104
34,14,17,Jits_Phase_5,1,5,56,103,1547525520
34,14,17,Jits_Phase_5,2,1,48,65,1547538900
34,14,17,Jits_Phase_5,3,5,80,127,1547565524
34,14,17,Jits_Phase_5,0,5,56,103,1547986452
34,14,17,Jits_Phase_5,1,5,63,98,1547995452
34,14,17,Jits_Phase_5,2,1,48,86,1548026664
34,14,17,Jits_Phase_5,3,5,80,127,1548076356
34,14,17,Jits_Phase_5,0,5,63,98,1548475652
34,14,17,Jits_Phase_5,1,1,48,82,1548492544
34,14,17,Jits_Phase_5,2,5,56,103,1548505396
34,14,17,Jits_Phase_5,3,5,80,127,1548546456
34,14,17,Jits_Phase_5,0,1,48,77,1548964508
34,14,17,Jits_Phase_5,1,5,56,103,1548975468
34,14,17,Jits_Phase_5,2,5,63,98,1549016380
34,14,17,Jits_Phase_5,3,5,80,127,1549056392
34,14,17,Jits_Phase_5,0,5,80,127,1549476416
34,14,17,Jits_Phase_5,1,1,48,68,1549500512
34,14,17,Jits_Phase_5,2,5,56,103,1549556352
34,14,17,Jits_Phase_5,3,5,63,98,1549566548
34,14,17,Jits_Phase_5,0,5,56,103,1550015964
34,14,17,Jits_Phase_5,1,1,48,70,1550017100
34,14,17,Jits_Phase_5,2,5,63,98,1550020368
34,14,17,Jits_Phase_5,3,5,80,127,1550026304
34,14,17,Jits_Phase_5,0,1,48,75,1550514648
34,14,17,Jits_Phase_5,1,5,56,103,1550536244
34,14,17,Jits_Phase_5,2,5,63,98,1550555584
34,14,17,Jits_Phase_5,3,5,80,127,1550565852
34,14,17,Jits_Phase_5,0,5,63,98,1550995824
34,14,17,Jits_Phase_5,1,5,80,127,1551006168
34,14,17,Jits_Phase_5,2,5,56,103,1551025580
34,14,17,Jits_Phase_5,3,1,48,73,1551031764
34,14,17,Jits_Phase_5,0,5,63,98,1551495472
34,14,17,Jits_Phase_5,1,1,48,66,1551513292
34,14,17,Jits_Phase_5,2,5,56,103,1551576408
34,14,17,Jits_Phase_5,3,5,80,127,1551579548
34,14,17,Jits_Phase_5,0,5,63,98,1551996340
34,14,17,Jits_Phase_5,1,5,56,103,1552015604
34,14,17,Jits_Phase_5,2,1,48,64,1552026540
34,14,17,Jits_Phase_5,3,5,80,127,1552045596
34,14,17,Jits_Phase_5,0,5,56,103,1552496084
34,14,17,Jits_Phase_5,1,1,48,68,1552512084
34,14,17,Jits_Phase_5,2,5,63,98,1552515416
34,14,17,Jits_Phase_5,3,5,80,127,1552525688
34,14,17,Jits_Phase_5,0,1,48,86,1552997984
34,14,17,Jits_Phase_5,1,5,56,103,1553026408
34,14,17,Jits_Phase_5,2,5,63,98,1553056104
34,14,17,Jits_Phase_5,3,5,80,127,1553059544
34,14,17,Jits_Phase_5,0,5,56,103,1553476036
34,14,17,Jits_Phase_5,1,1,48,82,1553486500
34,14,17,Jits_Phase_5,2,5,63,98,1553515968
34,14,17,Jits_Phase_5,3,5,80,127,1553576304
34,14,17,Jits_Phase_5,0,1,48,74,1553975096
34,14,17,Jits_Phase_5,1,5,56,103,1553996024
34,14,17,Jits_Phase_5,2,5,63,98,1554006516
34,14,17,Jits_Phase_5,3,5,80,127,1554065856
34,14,17,Jits_Phase_5,0,5,56,103,1554496076
34,14,17,Jits_Phase_5,1,1,48,79,1554505496
34,14,17,Jits_Phase_5,2,5,80,127,1554516304
34,14,17,Jits_Phase_5,3,5,63,98,1554546352
34,14,17,Jits_Phase_5,0,5,80,127,1555006028
34,14,17,Jits_Phase_5,1,1,48,74,1555016224
34,14,17,Jits_Phase_5,2,5,56,103,1555017868
34,14,17,Jits_Phase_5,3,5,63,98,1555035556
34,14,17,Jits_Phase_5,0,5,63,98,1555496276
34,14,17,Jits_Phase_5,1,1,48,66,1555517004
34,14,17,Jits_Phase_5,2,5,80,127,1555576140
34,14,17,Jits_Phase_5,3,5,56,103,1555586484
34,14,17,Jits_Phase_5,0,1,48,65,1556007908
34,14,17,Jits_Phase_5,1,5,80,127,1556086152
34,14,17,Jits_Phase_5,2,5,56,103,1556105700
34,14,17,Jits_Phase_5,3,5,63,98,1556108912
34,14,17,Jits_Phase_5,0,1,48,69,1556529308
34,14,17,Jits_Phase_5,1,5,63,98,1556575560
34,14,17,Jits_Phase_5,2,5,80,127,1556578920
34,14,17,Jits_Phase_5,3,5,56,103,1556636032
34,14,17,Jits_Phase_5,0,5,56,103,1557056052
34,14,17,Jits_Phase_5,1,5,80,127,1557066024
34,14,17,Jits_Phase_5,2,1,48,73,1557069588
34,14,17,Jits_Phase_5,3,5,63,98,1557106028
34,14,17,Jits_Phase_5,0,5,56,103,1557546296
34,14,17,Jits_Phase_5,1,1,48,77,1557588520
34,14,17,Jits_Phase_5,2,5,63,98,1557605708
34,14,17,Jits_Phase_5,3,5,80,127,1557615976
34,14,17,Jits_Phase_5,0,5,63,98,1558056248
34,14,17,Jits_Phase_5,1,1,48,79,1558085368
34,14,17,Jits_Phase_5,2,5,80,127,1558096176
34,14,17,Jits_Phase_5,3,5,56,103,1558136040
34,14,17,Jits_Phase_5,0,5,56,103,1558555924
34,14,17,Jits_Phase_5,1,1,48,76,1558572372
34,14,17,Jits_Phase_5,2,5,63,98,1558636080
34,14,17,Jits_Phase_5,3,5,80,127,1558639296
34,14,17,Jits_Phase_5,0,1,48,69,1559099320
34,14,17,Jits_Phase_5,1,5,80,127,1559116136
34,14,17,Jits_Phase_5,2,5,56,103,1559145884
34,14,17,Jits_Phase_5,3,5,63,98,1559148800
34,14,17,Jits_Phase_5,0,5,56,103,1559576032
34,14,17,Jits_Phase_5,1,5,80,127,1559596268
34,14,17,Jits_Phase_5,2,1,48,79,1559626284
34,14,17,Jits_Phase_5,3,5,63,98,1559636272
34,14,17,Jits_Phase_5,0,5,80,127,1560056244
34,14,17,Jits_Phase_5,1,5,63,98,1560075580
34,14,17,Jits_Phase_5,2,1,48,77,1560101392
34,14,17,Jits_Phase_5,3,5,56,103,1560135960
34,14,17,Jits_Phase_5,0,5,63,98,1560566120
34,14,17,Jits_Phase_5,1,5,56,103,1560576244
34,14,17,Jits_Phase_5,2,1,48,70,1560591492
34,14,17,Jits_Phase_5,3,5,80,127,1560625388
34,14,17,Jits_Phase_5,0,5,56,103,1561055680
34,14,17,Jits_Phase_5,1,5,63,98,1561076068
34,14,17,Jits_Phase_5,2,1,48,70,1561082028
34,14,17,Jits_Phase_5,3,5,80,127,1561086256
34,14,17,Jits_Phase_5,0,5,56,103,1561556264
34,14,17,Jits_Phase_5,1,5,63,98,1561559404
34,14,17,Jits_Phase_5,2,5,80,127,1561575748
34,14,17,Jits_Phase_5,3,1,48,68,1561578340
34,14,17,Jits_Phase_5,0,1,48,65,1562068196
34,14,17,Jits_Phase_5,1,5,63,98,1562096016
34,14,17,Jits_Phase_5,2,5,56,103,1562125916
34,14,17,Jits_Phase_5,3,5,80,127,1562156264
34,14,17,Jits_Phase_5,0,5,80,127,1562555696
34,14,17,Jits_Phase_5,1,1,48,71,1562586240
34,14,17,Jits_Phase_5,2,5,56,103,1562645816
34,14,17,Jits_Phase_5,3,5,63,98,1562648956
34,14,17,Jits_Phase_5,0,5,56,103,1563055744
34,14,17,Jits_Phase_5,1,5,80,127,1563058736
34,14,17,Jits_Phase_5,2,1,48,60,1563117076
34,14,17,Jits_Phase_5,3,5,63,98,1563136576
34,14,17,Jits_Phase_5,0,5,80,127,1563556252
34,14,17,Jits_Phase_5,1,5,63,98,1563615592
34,14,17,Jits_Phase_5,2,1,48,69,1563618344
34,14,17,Jits_Phase_5,3,5,56,103,1563646456
34,14,17,Jits_Phase_5,0,5,63,98,1564055868
34,14,17,Jits_Phase_5,1,5,80,127,1564066140
34,14,17,Jits_Phase_5,2,1,48,67,1564115412
34,14,17,Jits_Phase_5,3,5,56,103,1564135960
34,14,17,Jits_Phase_5,0,1,48,64,1564555864
34,14,17,Jits_Phase_5,1,5,56,103,1564615924
34,14,17,Jits_Phase_5,2,5,80,127,1564645748
34,14,17,Jits_Phase_5,3,5,63,98,1564695928
34,14,17,Jits_Phase_5,0,1,48,57,1565136920
34,14,17,Jits_Phase_5,1,5,63,98,1565205868
34,14,17,Jits_Phase_5,2,5,56,103,1565235752
34,14,17,Jits_Phase_5,3,5,80,127,1565238744
34,14,17,Jits_Phase_5,0,5,63,98,1565705544
34,14,17,Jits_Phase_5,1,1,48,72,1565708740
34,14,17,Jits_Phase_5,2,5,80,127,1565725996
34,14,17,Jits_Phase_5,3,5,56,103,1565736640
34,14,17,Jits_Phase_5,0,5,56,103,1566215636
34,14,17,Jits_Phase_5,1,5,63,98,1566218700
34,14,17,Jits_Phase_5,2,1,48,62,1566227292
34,14,17,Jits_Phase_5,3,5,80,127,1566236012
34,14,17,Jits_Phase_5,0,5,56,103,1566665948
34,14,17,Jits_Phase_5,1,5,63,98,1566676668
34,14,17,Jits_Phase_5,2,5,80,127,1566705892
34,14,17,Jits_Phase_5,3,1,48,70,1566731776
34,14,17,Jits_Phase_5,0,5,63,98,1567186312
34,14,17,Jits_Phase_5,1,1,48,74,1567205948
34,14,17,Jits_Phase_5,2,5,80,127,1567207360
34,14,17,Jits_Phase_5,3,5,56,103,1567245656
34,14,17,Jits_Phase_5,0,1,48,65,1567709332
34,14,17,Jits_Phase_5,1,5,56,103,1567715656
34,14,17,Jits_Phase_5,2,5,63,98,1567755740
34,14,17,Jits_Phase_5,3,5,80,127,1567758956
34,14,17,Jits_Phase_5,0,5,80,127,1568155924
34,14,17,Jits_Phase_5,1,5,56,103,1568196008
34,14,17,Jits_Phase_5,2,1,48,67,1568214640
34,14,17,Jits_Phase_5,3,5,63,98,1568246424
34,14,17,Jits_Phase_5,0,1,48,62,1568703288
34,14,17,Jits_Phase_5,1,5,56,103,1568716284
34,14,17,Jits_Phase_5,2,5,80,127,1568726484
34,14,17,Jits_Phase_5,3,5,63,98,1568756156
34,14,17,Jits_Phase_5,0,5,56,103,1569165680
34,14,17,Jits_Phase_5,1,5,80,127,1569205640
34,14,17,Jits_Phase_5,2,1,48,59,1569210408
34,14,17,Jits_Phase_5,3,5,63,98,1569255760
34,14,17,Jits_Phase_5,0,5,56,103,1569666564
34,14,17,Jits_Phase_5,1,1,48,64,1569705852
34,14,17,Jits_Phase_5,2,5,80,127,1569707416
34,14,17,Jits_Phase_5,3,5,63,98,1569755448
34,14,17,Jits_Phase_5,0,5,80,127,1570155768
34,14,17,Jits_Phase_5,1,1,48,63,1570212616
34,14,17,Jits_Phase_5,2,5,63,98,1570235728
34,14,17,Jits_Phase_5,3,5,56,103,1570246000
34,14,17,Jits_Phase_5,0,5,80,127,1570705656
34,14,17,Jits_Phase_5,1,1,48,66,1570714584
34,14,17,Jits_Phase_5,2,5,56,103,1570716392
34,14,17,Jits_Phase_5,3,5,63,98,1570735356
34,14,17,Jits_Phase_5,0,5,63,98,1571175680
34,14,17,Jits_Phase_5,1,1,48,61,1571197084
34,14,17,Jits_Phase_5,2,5,56,103,1571245376
34,14,17,Jits_Phase_5,3,5,80,127,1571248440
34,14,17,Jits_Phase_5,0,5,80,127,1571666508
34,14,17,Jits_Phase_5,1,1,48,69,1571687684
34,14,17,Jits_Phase_5,2,5,63,98,1571715356
34,14,17,Jits_Phase_5,3,5,56,103,1571756364
34,14,17,Jits_Phase_5,0,1,48,57,1572179424
34,14,17,Jits_Phase_5,1,5,63,98,1572205828
34,14,17,Jits_Phase_5,2,5,56,103,1572245792
34,14,17,Jits_Phase_5,3,5,80,127,1572256284
34,14,17,Jits_Phase_5,0,1,48,61,1572675892
34,14,17,Jits_Phase_5,1,5,63,98,1572696440
34,14,17,Jits_Phase_5,2,5,56,103,1572716004
34,14,17,Jits_Phase_5,3,5,80,127,1572736388
34,14,17,Jits_Phase_5,0,5,80,127,1573156124
34,14,17,Jits_Phase_5,1,5,56,103,1573165572
34,14,17,Jits_Phase_5,2,1,48,79,1573184600
34,14,17,Jits_Phase_5,3,5,63,98,1573186468
34,14,17,Jits_Phase_5,0,1,48,69,1573665216
34,14,17,Jits_Phase_5,1,5,63,98,1573685616
34,14,17,Jits_Phase_5,2,5,56,103,1573725408
34,14,17,Jits_Phase_5,3,5,80,127,1573756204
34,14,17,Jits_Phase_5,0,5,56,103,1574146492
34,14,17,Jits_Phase_5,1,5,63,98,1574176316
34,14,17,Jits_Phase_5,2,1,48,76,1574182952
34,14,17,Jits_Phase_5,3,5,80,127,1574205760
34,14,17,Jits_Phase_5,0,5,80,127,1574566256
34,14,17,Jits_Phase_5,1,5,56,103,1574636008
34,14,17,Jits_Phase_5,2,5,63,98,1574639220
34,14,17,Jits_Phase_5,3,1,48,70,1574681672
34,14,17,Jits_Phase_5,0,5,56,103,1575076348
34,14,17,Jits_Phase_5,1,5,63,98,1575126400
34,14,17,Jits_Phase_5,2,5,80,127,1575156296
34,14,17,Jits_Phase_5,3,1,48,68,1575172064
34,14,17,Jits_Phase_5,0,5,63,98,1575555556
34,14,17,Jits_Phase_5,1,5,80,127,1575558772
34,14,17,Jits_Phase_5,2,1,48,66,1575608892
34,14,17,Jits_Phase_5,3,5,56,103,1575615960
34,14,17,Jits_Phase_5,0,1,48,82,1576086036
34,14,17,Jits_Phase_5,1,5,56,103,1576087444
34,14,17,Jits_Phase_5,2,5,80,127,1576096076
34,14,17,Jits_Phase_5,3,5,63,98,1576146276
34,14,17,Jits_Phase_5,0,5,63,98,1576556016
34,14,17,Jits_Phase_5,1,5,56,103,1576566140
34,14,17,Jits_Phase_5,2,1,48,78,1576590008
34,14,17,Jits_Phase_5,3,5,80,127,1576595956
34,14,17,Jits_Phase_5,0,5,63,98,1577086304
34,14,17,Jits_Phase_5,1,5,80,127,1577089520
34,14,17,Jits_Phase_5,2,1,48,67,1577100056
34,14,17,Jits_Phase_5,3,5,56,103,1577115920
34,14,17,Jits_Phase_5,0,1,48,74,1577598892
34,14,17,Jits_Phase_5,1,5,63,98,1577605444
34,14,17,Jits_Phase_5,2,5,56,103,1577626148
34,14,17,Jits_Phase_5,3,5,80,127,1577629212
34,14,17,Jits_Phase_5,0,5,63,98,1578066232
34,14,17,Jits_Phase_5,1,1,48,71,1578099464
34,14,17,Jits_Phase_5,2,5,56,103,1578136004
34,14,17,Jits_Phase_5,3,5,80,127,1578156536
34,14,17,Jits_Phase_5,0,5,56,103,1578555868
34,14,17,Jits_Phase_5,1,5,63,98,1578566140
34,14,17,Jits_Phase_5,2,1,48,59,1578610232
34,14,17,Jits_Phase_5,3,5,80,127,1578656064
34,14,17,Jits_Phase_5,0,5,56,103,1579075936
34,14,17,Jits_Phase_5,1,1,48,54,1579085956
34,14,17,Jits_Phase_5,2,5,80,127,1579115940
34,14,17,Jits_Phase_5,3,5,63,98,1579126064
34,14,17,Jits_Phase_5,0,1,48,70,1579588028
34,14,17,Jits_Phase_5,1,5,56,103,1579596220
34,14,17,Jits_Phase_5,2,5,63,98,1579626120
34,14,17,Jits_Phase_5,3,5,80,127,1579655644
34,14,17,Jits_Phase_5,0,5,80,127,1580055820
34,14,17,Jits_Phase_5,1,5,63,98,1580095760
34,14,17,Jits_Phase_5,2,1,48,73,1580106076
34,14,17,Jits_Phase_5,3,5,56,103,1580116284
34,14,17,Jits_Phase_5,0,5,56,103,1580595740
34,14,17,Jits_Phase_5,1,5,80,127,1580615976
34,14,17,Jits_Phase_5,2,1,48,63,1580617988
34,14,17,Jits_Phase_5,3,5,63,98,1580635456
34,14,17,Jits_Phase_5,0,5,63,98,1581065764
34,14,17,Jits_Phase_5,1,5,56,103,1581075736
34,14,17,Jits_Phase_5,2,1,48,73,1581114448
34,14,17,Jits_Phase_5,3,5,80,127,1581136340
34,14,17,Jits_Phase_5,0,5,56,103,1581566332
34,14,17,Jits_Phase_5,1,1,48,79,1581584448
34,14,17,Jits_Phase_5,2,5,63,98,1581635932
34,14,17,Jits_Phase_5,3,5,80,127,1581656540
34,14,17,Jits_Phase_5,0,5,56,103,1582066028
34,14,17,Jits_Phase_5,1,1,48,72,1582071016
34,14,17,Jits_Phase_5,2,5,63,98,1582095992
34,14,17,Jits_Phase_5,3,5,80,127,1582135928
34,14,17,Jits_Phase_5,0,5,63,98,1582555676
34,14,17,Jits_Phase_5,1,1,48,64,1582591900
34,14,17,Jits_Phase_5,2,5,56,103,1582605720
34,14,17,Jits_Phase_5,3,5,80,127,1582615916
34,14,17,Jits_Phase_5,0,5,56,103,1583096108
34,14,17,Jits_Phase_5,1,1,48,60,1583105824
34,14,17,Jits_Phase_5,2,5,63,98,1583146300
34,14,17,Jits_Phase_5,3,5,80,127,1583155524
34,14,17,Jits_Phase_5,0,5,56,103,1583566208
34,14,17,Jits_Phase_5,1,5,63,98,1583576552
34,14,17,Jits_Phase_5,2,1,48,75,1583584920
34,14,17,Jits_Phase_5,3,5,80,127,1583656260
34,14,17,Jits_Phase_5,0,9999,9999,9999,1499313216
34,14,17,Jits_Phase_5,1,9999,9999,9999,1499813972
34,14,17,Jits_Phase_5,2,9999,9999,9999,1500313684
34,14,17,Jits_Phase_5,3,9999,9999,9999,1500813404
34,14,17,Jits_Phase_5,4,9999,9999,9999,1501313100
34,14,17,Jits_Phase_5,5,9999,9999,9999,1501813828
34,14,17,Jits_Phase_5,6,9999,9999,9999,1502313576
34,14,17,Jits_Phase_5,7,9999,9999,9999,1502813268
34,14,17,Jits_Phase_5,8,9999,9999,9999,1503314004
34,14,17,Jits_Phase_5,9,9999,9999,9999,1503813696
34,14,17,Jits_Phase_5,10,9999,9999,9999,1504313460
34,14,17,Jits_Phase_5,11,9999,9999,9999,1504813152
34,14,17,Jits_Phase_5,12,9999,9999,9999,1505313868
34,14,17,Jits_Phase_5,13,9999,9999,9999,1505813616
34,14,17,Jits_Phase_5,14,9999,9999,9999,1506313288
34,14,17,Jits_Phase_5,15,9999,9999,9999,1506814028
34,14,17,Jits_Phase_5,16,9999,9999,9999,1507313776
34,14,17,Jits_Phase_5,17,9999,9999,9999,1507813452
34,14,17,Jits_Phase_5,18,9999,9999,9999,1508313212
34,14,17,Jits_Phase_5,19,9999,9999,9999,1508813948
34,14,17,Jits_Phase_5,20,9999,9999,9999,1509313628
34,14,17,Jits_Phase_5,21,9999,9999,9999,1509813304
34,14,17,Jits_Phase_5,22,9999,9999,9999,1510314036
34,14,17,Jits_Phase_5,23,9999,9999,9999,1510813804
34,14,17,Jits_Phase_5,24,9999,9999,9999,1511313468
34,14,17,Jits_Phase_5,25,9999,9999,9999,1511813220
34,14,17,Jits_Phase_5,26,9999,9999,9999,1512313960
34,14,17,Jits_Phase_5,27,9999,9999,9999,1512813692
34,14,17,Jits_Phase_5,28,9999,9999,9999,1513313384
34,14,17,Jits_Phase_5,29,9999,9999,9999,1513814124
34,14,17,Jits_Phase_5,30,9999,9999,9999,1514313784
34,14,17,Jits_Phase_5,31,9999,9999,9999,1514813552
34,14,17,Jits_Phase_5,32,9999,9999,9999,1515313240
34,14,17,Jits_Phase_5,33,9999,9999,9999,1515813960
34,14,17,Jits_Phase_5,34,9999,9999,9999,1516313724
34,14,17,Jits_Phase_5,35,9999,9999,9999,1516813412
34,14,17,Jits_Phase_5,36,9999,9999,9999,1517313152
34,14,17,Jits_Phase_5,37,9999,9999,9999,1517813872
34,14,17,Jits_Phase_5,38,9999,9999,9999,1518313552
34,14,17,Jits_Phase_5,39,9999,9999,9999,1518813308
34,14,17,Jits_Phase_5,40,9999,9999,9999,1519314032
34,14,17,Jits_Phase_5,41,9999,9999,9999,1519813720
34,14,17,Jits_Phase_5,42,9999,9999,9999,1520313412
34,14,17,Jits_Phase_5,43,9999,9999,9999,1520813156
34,14,17,Jits_Phase_5,44,9999,9999,9999,1521313872
34,14,17,Jits_Phase_5,45,9999,9999,9999,1521813608
34,14,17,Jits_Phase_5,46,9999,9999,9999,1522313276
34,14,17,Jits_Phase_5,47,9999,9999,9999,1522814008
34,14,17,Jits_Phase_5,48,9999,9999,9999,1523323992
34,14,17,Jits_Phase_5,49,9999,9999,9999,1523823692
34,14,17,Jits_Phase_5,50,9999,9999,9999,1524323432
34,14,17,Jits_Phase_5,51,9999,9999,9999,1524823120
34,14,17,Jits_Phase_5,52,9999,9999,9999,1525323856
34,14,17,Jits_Phase_5,53,9999,9999,9999,1525823552
34,14,17,Jits_Phase_5,54,9999,9999,9999,1526323304
34,14,17,Jits_Phase_5,55,9999,9999,9999,1526824040
34,14,17,Jits_Phase_5,56,9999,9999,9999,1527323728
34,14,17,Jits_Phase_5,57,9999,9999,9999,1527823484
34,14,17,Jits_Phase_5,58,9999,9999,9999,1528323176
34,14,17,Jits_Phase_5,59,9999,9999,9999,1528823896
34,14,17,Jits_Phase_5,60,9999,9999,9999,1529323588
34,14,17,Jits_Phase_5,61,9999,9999,9999,1529823336
34,14,17,Jits_Phase_5,62,9999,9999,9999,1530324072
34,14,17,Jits_Phase_5,63,9999,9999,9999,1530823760
34,14,17,Jits_Phase_5,64,9999,9999,9999,1531343968
34,14,17,Jits_Phase_5,65,9999,9999,9999,1531843656
34,14,17,Jits_Phase_5,66,9999,9999,9999,1532343420
34,14,17,Jits_Phase_5,67,9999,9999,9999,1532843084
34,14,17,Jits_Phase_5,68,9999,9999,9999,1533343824
34,14,17,Jits_Phase_5,69,9999,9999,9999,1533843552
34,14,17,Jits_Phase_5,70,9999,9999,9999,1534343284
34,14,17,Jits_Phase_5,71,9999,9999,9999,1534844020
34,14,17,Jits_Phase_5,72,9999,9999,9999,1535343696
34,14,17,Jits_Phase_5,73,9999,9999,9999,1535843444
34,14,17,Jits_Phase_5,74,9999,9999,9999,1536343136
34,14,17,Jits_Phase_5,75,9999,9999,9999,1536843852
34,14,17,Jits_Phase_5,76,9999,9999,9999,1537343548
34,14,17,Jits_Phase_5,77,9999,9999,9999,1537843296
34,14,17,Jits_Phase_5,78,9999,9999,9999,1538344036
34,14,17,Jits_Phase_5,79,9999,9999,9999,1538843728
34,14,17,Jits_Phase_5,80,9999,9999,9999,1539343480
34,14,17,Jits_Phase_5,81,9999,9999,9999,1539823680
34,14,17,Jits_Phase_5,82,9999,9999,9999,1540323444
34,14,17,Jits_Phase_5,83,9999,9999,9999,1540823120
34,14,17,Jits_Phase_5,84,9999,9999,9999,1541323856
34,14,17,Jits_Phase_5,85,9999,9999,9999,1541823604
34,14,17,Jits_Phase_5,86,9999,9999,9999,1542323276
34,14,17,Jits_Phase_5,87,9999,9999,9999,1542824012
34,14,17,Jits_Phase_5,88,9999,9999,9999,1543323760
34,14,17,Jits_Phase_5,89,9999,9999,9999,1543823424
34,14,17,Jits_Phase_5,90,9999,9999,9999,1544323184
34,14,17,Jits_Phase_5,91,9999,9999,9999,1544823916
34,14,17,Jits_Phase_5,92,9999,9999,9999,1545323588
34,14,17,Jits_Phase_5,93,9999,9999,9999,1545823340
34,14,17,Jits_Phase_5,94,9999,9999,9999,1546324060
34,14,17,Jits_Phase_5,95,9999,9999,9999,1546823748
34,14,17,Jits_Phase_5,96,9999,9999,9999,1547323512
34,14,17,Jits_Phase_5,97,9999,9999,9999,1547774044
34,14,17,Jits_Phase_5,98,9999,9999,9999,1548273720
34,14,17,Jits_Phase_5,99,9999,9999,9999,1548773480
34,14,17,Jits_Phase_5,100,9999,9999,9999,1549273156
34,14,17,Jits_Phase_5,101,9999,9999,9999,1549773876
34,14,17,Jits_Phase_5,102,9999,9999,9999,1550273632
34,14,17,Jits_Phase_5,103,9999,9999,9999,1550773328
34,14,17,Jits_Phase_5,104,9999,9999,9999,1551274096
34,14,17,Jits_Phase_5,105,9999,9999,9999,1551773772
34,14,17,Jits_Phase_5,106,9999,9999,9999,1552273496
34,14,17,Jits_Phase_5,107,9999,9999,9999,1552773240
34,14,17,Jits_Phase_5,108,9999,9999,9999,1553273968
34,14,17,Jits_Phase_5,109,9999,9999,9999,1553773644
34,14,17,Jits_Phase_5,110,9999,9999,9999,1554273408
34,14,17,Jits_Phase_5,111,9999,9999,9999,1554774132
34,14,17,Jits_Phase_5,112,9999,9999,9999,1555284080
34,14,17,Jits_Phase_5,113,9999,9999,9999,1555783772
34,14,17,Jits_Phase_5,114,9999,9999,9999,1556333640
34,14,17,Jits_Phase_5,115,9999,9999,9999,1556833384
34,14,17,Jits_Phase_5,116,9999,9999,9999,1557334104
34,14,17,Jits_Phase_5,117,9999,9999,9999,1557844052
34,14,17,Jits_Phase_5,118,9999,9999,9999,1558343736
34,14,17,Jits_Phase_5,119,9999,9999,9999,1558843484
34,14,17,Jits_Phase_5,120,9999,9999,9999,1559343172
34,14,17,Jits_Phase_5,121,9999,9999,9999,1559843896
34,14,17,Jits_Phase_5,122,9999,9999,9999,1560343660
34,14,17,Jits_Phase_5,123,9999,9999,9999,1560843348
34,14,17,Jits_Phase_5,124,9999,9999,9999,1561344068
34,14,17,Jits_Phase_5,125,9999,9999,9999,1561854008
34,14,17,Jits_Phase_5,126,9999,9999,9999,1562353776
34,14,17,Jits_Phase_5,127,9999,9999,9999,1562853440
34,14,17,Jits_Phase_5,128,9999,9999,9999,1563353196
34,14,17,Jits_Phase_5,129,9999,9999,9999,1563853932
34,14,17,Jits_Phase_5,130,9999,9999,9999,1564353624
34,14,17,Jits_Phase_5,131,9999,9999,9999,1564953684
34,14,17,Jits_Phase_5,132,9999,9999,9999,1565453428
34,14,17,Jits_Phase_5,133,9999,9999,9999,1565953108
34,14,17,Jits_Phase_5,134,9999,9999,9999,1566453824
34,14,17,Jits_Phase_5,135,9999,9999,9999,1566953588
34,14,17,Jits_Phase_5,136,9999,9999,9999,1567453280
34,14,17,Jits_Phase_5,137,9999,9999,9999,1567954000
34,14,17,Jits_Phase_5,138,9999,9999,9999,1568453752
34,14,17,Jits_Phase_5,139,9999,9999,9999,1568953444
34,14,17,Jits_Phase_5,140,9999,9999,9999,1569453120
34,14,17,Jits_Phase_5,141,9999,9999,9999,1569953860
34,14,17,Jits_Phase_5,142,9999,9999,9999,1570453624
34,14,17,Jits_Phase_5,143,9999,9999,9999,1570953292
34,14,17,Jits_Phase_5,144,9999,9999,9999,1571454024
34,14,17,Jits_Phase_5,145,9999,9999,9999,1571953776
34,14,17,Jits_Phase_5,146,9999,9999,9999,1572453472
34,14,17,Jits_Phase_5,147,9999,9999,9999,1572953156
34,14,17,Jits_Phase_5,148,9999,9999,9999,1573453948
34,14,17,Jits_Phase_5,149,9999,9999,9999,1573953640
34,14,17,Jits_Phase_5,150,9999,9999,9999,1574353980
34,14,17,Jits_Phase_5,151,9999,9999,9999,1574853740
34,14,17,Jits_Phase_5,152,9999,9999,9999,1575353428
34,14,17,Jits_Phase_5,153,9999,9999,9999,1575853176
34,14,17,Jits_Phase_5,154,9999,9999,9999,1576353900
34,14,17,Jits_Phase_5,155,9999,9999,9999,1576853620
34,14,17,Jits_Phase_5,156,9999,9999,9999,1577353332
34,14,17,Jits_Phase_5,157,9999,9999,9999,1577854048
34,14,17,Jits_Phase_5,158,9999,9999,9999,1578353724
34,14,17,Jits_Phase_5,159,9999,9999,9999,1578853476
34,14,17,Jits_Phase_5,160,9999,9999,9999,1579353164
34,14,17,Jits_Phase_5,161,9999,9999,9999,1579853904
34,14,17,Jits_Phase_5,162,9999,9999,9999,1580353648
34,14,17,Jits_Phase_5,163,9999,9999,9999,1580853340
34,14,17,Jits_Phase_5,164,9999,9999,9999,1581354076
34,14,17,Jits_Phase_5,165,9999,9999,9999,1581853756
34,14,17,Jits_Phase_5,166,9999,9999,9999,1582353516
34,14,17,Jits_Phase_5,167,9999,9999,9999,1582853208
34,14,17,Jits_Phase_5,168,9999,9999,9999,1583353936
34,14,17,Jits_Phase_5,169,9999,9999,9999,1583853624
34,15,18,Jits_Linear_8,0,5,56,103,1598563784
34,15,18,Jits_Linear_8,1,5,63,98,1598566884
34,15,18,Jits_Linear_8,2,5,80,127,1598570004
34,15,18,Jits_Linear_8,0,5,56,103,1599383968
34,15,18,Jits_Linear_8,1,5,63,98,1599387292
34,15,18,Jits_Linear_8,2,5,80,127,1599390188
34,15,18,Jits_Linear_8,0,5,80,127,1600143660
34,15,18,Jits_Linear_8,1,1,48,77,1600171536
34,15,18,Jits_Linear_8,2,5,63,98,1600234040
34,15,18,Jits_Linear_8,3,5,56,103,1600244084
34,15,18,Jits_Linear_8,0,5,56,103,1600984432
34,15,18,Jits_Linear_8,1,5,63,98,1600993804
34,15,18,Jits_Linear_8,2,1,48,63,1601015732
34,15,18,Jits_Linear_8,3,5,80,127,1601083860
34,15,18,Jits_Linear_8,0,1,48,66,1601770000
34,15,18,Jits_Linear_8,1,5,63,98,1601774076
34,15,18,Jits_Linear_8,2,5,80,127,1601803828
34,15,18,Jits_Linear_8,3,5,56,103,1601834328
34,15,18,Jits_Linear_8,0,1,48,74,1602579408
34,15,18,Jits_Linear_8,1,5,56,103,1602594128
34,15,18,Jits_Linear_8,2,5,80,127,1602693540
34,15,18,Jits_Linear_8,3,5,63,98,1602743840
34,15,18,Jits_Linear_8,0,5,56,103,1603404080
34,15,18,Jits_Linear_8,1,5,80,127,1603454428
34,15,18,Jits_Linear_8,2,1,48,55,1603465348
34,15,18,Jits_Linear_8,3,5,63,98,1603494236
34,15,18,Jits_Linear_8,0,5,80,127,1604243876
34,15,18,Jits_Linear_8,1,1,48,66,1604248040
34,15,18,Jits_Linear_8,2,5,63,98,1604273472
34,15,18,Jits_Linear_8,3,5,56,103,1604344780
34,15,18,Jits_Linear_8,0,1,48,65,1605080688
34,15,18,Jits_Linear_8,1,5,63,98,1605083648
34,15,18,Jits_Linear_8,2,5,56,103,1605114368
34,15,18,Jits_Linear_8,3,5,80,127,1605173640
34,15,18,Jits_Linear_8,0,5,56,103,1605834032
34,15,18,Jits_Linear_8,1,5,80,127,1605837100
34,15,18,Jits_Linear_8,2,1,48,72,1605923016
34,15,18,Jits_Linear_8,3,5,63,98,1605953900
34,15,18,Jits_Linear_8,0,1,48,77,1606683508
34,15,18,Jits_Linear_8,1,5,56,103,1606713656
34,15,18,Jits_Linear_8,2,5,80,127,1606753596
34,15,18,Jits_Linear_8,3,5,63,98,1606763940
34,15,18,Jits_Linear_8,0,5,56,103,1607473708
34,15,18,Jits_Linear_8,1,5,80,127,1607493944
34,15,18,Jits_Linear_8,2,1,48,61,1607513848
34,15,18,Jits_Linear_8,3,5,63,98,1607573832
34,15,18,Jits_Linear_8,0,5,80,127,1608264112
34,15,18,Jits_Linear_8,1,1,48,66,1608338276
34,15,18,Jits_Linear_8,2,5,56,103,1608364532
34,15,18,Jits_Linear_8,3,5,63,98,1608373680
34,15,18,Jits_Linear_8,0,5,63,98,1609034216
34,15,18,Jits_Linear_8,1,1,48,47,1609082072
34,15,18,Jits_Linear_8,2,5,80,127,1609093704
34,15,18,Jits_Linear_8,3,5,56,103,1609103900
34,15,18,Jits_Linear_8,0,5,56,103,1609833816
34,15,18,Jits_Linear_8,1,5,63,98,1609903448
34,15,18,Jits_Linear_8,2,5,80,127,1609906812
34,15,18,Jits_Linear_8,3,1,48,53,1609909560
34,15,18,Jits_Linear_8,0,5,63,98,1610664464
34,15,18,Jits_Linear_8,1,1,48,59,1610696732
34,15,18,Jits_Linear_8,2,5,56,103,1610713464
34,15,18,Jits_Linear_8,3,5,80,127,1610716604
34,15,18,Jits_Linear_8,0,5,56,103,1611413932
34,15,18,Jits_Linear_8,1,5,80,127,1611416776
34,15,18,Jits_Linear_8,2,1,48,49,1611465372
34,15,18,Jits_Linear_8,3,5,63,98,1611503908
34,15,18,Jits_Linear_8,0,5,63,98,1612244332
34,15,18,Jits_Linear_8,1,1,48,54,1612321388
34,15,18,Jits_Linear_8,2,5,56,103,1612333416
34,15,18,Jits_Linear_8,3,5,80,127,1612364360
34,15,18,Jits_Linear_8,0,5,56,103,1613023636
34,15,18,Jits_Linear_8,1,1,48,58,1613091928
34,15,18,Jits_Linear_8,2,5,63,98,1613123880
34,15,18,Jits_Linear_8,3,5,80,127,1613153632
34,15,18,Jits_Linear_8,0,5,63,98,1613843864
34,15,18,Jits_Linear_8,1,5,56,103,1613854356
34,15,18,Jits_Linear_8,2,1,48,59,1613893588
34,15,18,Jits_Linear_8,3,5,80,127,1613944408
34,15,18,Jits_Linear_8,0,5,63,98,1614643472
34,15,18,Jits_Linear_8,1,1,48,57,1614652812
34,15,18,Jits_Linear_8,2,5,56,103,1614723484
34,15,18,Jits_Linear_8,3,5,80,127,1614726476
34,15,18,Jits_Linear_8,0,5,80,127,1615383952
34,15,18,Jits_Linear_8,1,5,63,98,1615404340
34,15,18,Jits_Linear_8,2,5,56,103,1615463680
34,15,18,Jits_Linear_8,3,1,48,58,1615479528
34,15,18,Jits_Linear_8,0,5,56,103,1616204248
34,15,18,Jits_Linear_8,1,1,48,68,1616223964
34,15,18,Jits_Linear_8,2,5,63,98,1616225548
34,15,18,Jits_Linear_8,3,5,80,127,1616228520
34,15,18,Jits_Linear_8,0,5,63,98,1616924064
34,15,18,Jits_Linear_8,1,1,48,70,1616972296
34,15,18,Jits_Linear_8,2,5,80,127,1617003860
34,15,18,Jits_Linear_8,3,5,56,103,1617014352
34,15,18,Jits_Linear_8,0,5,63,98,1617723672
34,15,18,Jits_Linear_8,1,5,56,103,1617744208
34,15,18,Jits_Linear_8,2,1,48,73,1617755200
34,15,18,Jits_Linear_8,3,5,80,127,1617794404
34,15,18,Jits_Linear_8,0,5,80,127,1618504168
34,15,18,Jits_Linear_8,1,1,48,78,1618512020
34,15,18,Jits_Linear_8,2,5,63,98,1618543956
34,15,18,Jits_Linear_8,3,5,56,103,1618563368
34,15,18,Jits_Linear_8,0,5,56,103,1619314200
34,15,18,Jits_Linear_8,1,5,63,98,1619324248
34,15,18,Jits_Linear_8,2,1,48,76,1619327292
34,15,18,Jits_Linear_8,3,5,80,127,1619343728
34,15,18,Jits_Linear_8,0,5,56,103,1620013352
34,15,18,Jits_Linear_8,1,5,63,98,1620103560
34,15,18,Jits_Linear_8,2,1,48,62,1620135252
34,15,18,Jits_Linear_8,3,5,80,127,1620164192
34,15,18,Jits_Linear_8,0,5,80,127,1620814092
34,15,18,Jits_Linear_8,1,5,56,103,1620824292
34,15,18,Jits_Linear_8,2,1,48,80,1620876556
34,15,18,Jits_Linear_8,3,5,63,98,1620894212
34,15,18,Jits_Linear_8,0,1,48,70,1621607460
34,15,18,Jits_Linear_8,1,5,63,98,1621613928
34,15,18,Jits_Linear_8,2,5,80,127,1621703928
34,15,18,Jits_Linear_8,3,5,56,103,1621714420
34,15,18,Jits_Linear_8,0,5,63,98,1622314348
34,15,18,Jits_Linear_8,1,5,80,127,1622363580
34,15,18,Jits_Linear_8,2,5,56,103,1622424068
34,15,18,Jits_Linear_8,3,1,48,68,1622456180
34,15,18,Jits_Linear_8,0,5,56,103,1623103840
34,15,18,Jits_Linear_8,1,5,80,127,1623153972
34,15,18,Jits_Linear_8,2,5,63,98,1623173604
34,15,18,Jits_Linear_8,3,1,48,70,1623174572
34,15,18,Jits_Linear_8,0,5,56,103,1623833856
34,15,18,Jits_Linear_8,1,5,80,127,1623894252
34,15,18,Jits_Linear_8,2,1,48,67,1623926888
34,15,18,Jits_Linear_8,3,5,63,98,1623964020
34,15,18,Jits_Linear_8,0,5,56,103,1624593916
34,15,18,Jits_Linear_8,1,5,80,127,1624623664
34,15,18,Jits_Linear_8,2,5,63,98,1624654164
34,15,18,Jits_Linear_8,3,1,48,66,1624730720
34,15,18,Jits_Linear_8,0,5,56,103,1625393456
34,15,18,Jits_Linear_8,1,5,80,127,1625414064
34,15,18,Jits_Linear_8,2,1,48,78,1625474604
34,15,18,Jits_Linear_8,3,5,63,98,1625476092
34,15,18,Jits_Linear_8,0,1,48,71,1626172896
34,15,18,Jits_Linear_8,1,5,80,127,1626234280
34,15,18,Jits_Linear_8,2,5,56,103,1626243576
34,15,18,Jits_Linear_8,3,5,63,98,1626253772
34,15,18,Jits_Linear_8,0,5,56,103,1626943816
34,15,18,Jits_Linear_8,1,5,80,127,1626983760
34,15,18,Jits_Linear_8,2,1,48,69,1626992128
34,15,18,Jits_Linear_8,3,5,63,98,1627013504
34,15,18,Jits_Linear_8,0,5,56,103,1627663656
34,15,18,Jits_Linear_8,1,5,63,98,1627693480
34,15,18,Jits_Linear_8,2,5,80,127,1627734392
34,15,18,Jits_Linear_8,3,1,48,64,1627756016
34,15,18,Jits_Linear_8,0,5,80,127,1628364076
34,15,18,Jits_Linear_8,1,5,63,98,1628414280
34,15,18,Jits_Linear_8,2,5,56,103,1628433768
34,15,18,Jits_Linear_8,3,1,48,78,1628480780
34,15,18,Jits_Linear_8,0,5,56,103,1629144660
34,15,18,Jits_Linear_8,1,1,48,61,1629184272
34,15,18,Jits_Linear_8,2,5,80,127,1629214036
34,15,18,Jits_Linear_8,3,5,63,98,1629273676
34,15,18,Jits_Linear_8,0,5,80,127,1629883748
34,15,18,Jits_Linear_8,1,5,63,98,1629973736
34,15,18,Jits_Linear_8,2,5,56,103,1629994492
34,15,18,Jits_Linear_8,3,1,48,81,1630026908
34,15,18,Jits_Linear_8,0,5,63,98,1630643740
34,15,18,Jits_Linear_8,1,5,56,103,1630663904
34,15,18,Jits_Linear_8,2,5,80,127,1630703988
34,15,18,Jits_Linear_8,3,1,48,78,1630781952
34,15,18,Jits_Linear_8,0,5,80,127,1631343972
34,15,18,Jits_Linear_8,1,5,63,98,1631363532
34,15,18,Jits_Linear_8,2,5,56,103,1631444400
34,15,18,Jits_Linear_8,3,1,48,63,1631531952
34,15,18,Jits_Linear_8,0,5,63,98,1632073988
34,15,18,Jits_Linear_8,1,5,56,103,1632183628
34,15,18,Jits_Linear_8,2,5,80,127,1632186696
34,15,18,Jits_Linear_8,3,1,48,78,1632221588
34,15,18,Jits_Linear_8,0,5,63,98,1632833948
34,15,18,Jits_Linear_8,1,5,56,103,1632844144
34,15,18,Jits_Linear_8,2,5,80,127,1632847284
34,15,18,Jits_Linear_8,3,1,48,84,1632939648
34,15,18,Jits_Linear_8,0,5,56,103,1633553820
34,15,18,Jits_Linear_8,1,1,48,83,1633636056
34,15,18,Jits_Linear_8,2,5,80,127,1633673544
34,15,18,Jits_Linear_8,3,5,63,98,1633713508
34,15,18,Jits_Linear_8,0,5,56,103,1634304372
34,15,18,Jits_Linear_8,1,5,80,127,1634384392
34,15,18,Jits_Linear_8,2,1,48,56,1634403880
34,15,18,Jits_Linear_8,3,5,63,98,1634405368
34,15,18,Jits_Linear_8,0,5,56,103,1635033420
34,15,18,Jits_Linear_8,1,1,48,78,1635117304
34,15,18,Jits_Linear_8,2,5,63,98,1635144296
34,15,18,Jits_Linear_8,3,5,80,127,1635147584
34,15,18,Jits_Linear_8,0,5,56,103,1635794448
34,15,18,Jits_Linear_8,1,5,80,127,1635824276
34,15,18,Jits_Linear_8,2,1,48,70,1635826724
34,15,18,Jits_Linear_8,3,5,63,98,1635843384
34,15,18,Jits_Linear_8,0,5,63,98,1636504016
34,15,18,Jits_Linear_8,1,5,56,103,1636514360
34,15,18,Jits_Linear_8,2,5,80,127,1636524260
34,15,18,Jits_Linear_8,3,1,48,62,1636525228
34,15,18,Jits_Linear_8,0,1,48,65,1637221356
34,15,18,Jits_Linear_8,1,5,80,127,1637223720
34,15,18,Jits_Linear_8,2,5,56,103,1637274172
34,15,18,Jits_Linear_8,3,5,63,98,1637314184
34,15,18,Jits_Linear_8,0,1,48,61,1637943364
34,15,18,Jits_Linear_8,1,5,80,127,1637964360
34,15,18,Jits_Linear_8,2,5,63,98,1637983700
34,15,18,Jits_Linear_8,3,5,56,103,1638033628
34,15,18,Jits_Linear_8,0,1,48,75,1638657776
34,15,18,Jits_Linear_8,1,5,80,127,1638694368
34,15,18,Jits_Linear_8,2,5,56,103,1638724120
34,15,18,Jits_Linear_8,3,5,63,98,1638793564
34,15,18,Jits_Linear_8,0,1,48,77,1639445628
34,15,18,Jits_Linear_8,1,5,56,103,1639464160
34,15,18,Jits_Linear_8,2,5,80,127,1639473456
34,15,18,Jits_Linear_8,3,5,63,98,1639513396
34,15,18,Jits_Linear_8,0,5,56,103,1640094148
34,15,18,Jits_Linear_8,1,5,63,98,1640113560
34,15,18,Jits_Linear_8,2,1,48,75,1640184364
34,15,18,Jits_Linear_8,3,5,80,127,1640185932
34,15,18,Jits_Linear_8,0,5,63,98,1640834400
34,15,18,Jits_Linear_8,1,1,48,69,1640866316
34,15,18,Jits_Linear_8,2,5,80,127,1640893912
34,15,18,Jits_Linear_8,3,5,56,103,1640914220
34,15,18,Jits_Linear_8,0,5,80,127,1641533912
34,15,18,Jits_Linear_8,1,1,48,86,1641550884
34,15,18,Jits_Linear_8,2,5,56,103,1641563432
34,15,18,Jits_Linear_8,3,5,63,98,1641594152
34,15,18,Jits_Linear_8,0,5,56,103,1642243396
34,15,18,Jits_Linear_8,1,1,48,73,1642254540
34,15,18,Jits_Linear_8,2,5,63,98,1642303932
34,15,18,Jits_Linear_8,3,5,80,127,1642364308
34,15,18,Jits_Linear_8,0,1,48,63,1642971200
34,15,18,Jits_Linear_8,1,5,80,127,1642984044
34,15,18,Jits_Linear_8,2,5,56,103,1643004208
34,15,18,Jits_Linear_8,3,5,63,98,1643073872
34,15,18,Jits_Linear_8,0,5,80,127,1643693528
34,15,18,Jits_Linear_8,1,5,63,98,1643713988
34,15,18,Jits_Linear_8,2,1,48,67,1643729992
34,15,18,Jits_Linear_8,3,5,56,103,1643743660
34,15,18,Jits_Linear_8,0,5,80,127,1644383588
34,15,18,Jits_Linear_8,1,5,63,98,1644404048
34,15,18,Jits_Linear_8,2,1,48,70,1644450636
34,15,18,Jits_Linear_8,3,5,56,103,1644463408
34,15,18,Jits_Linear_8,0,5,80,127,1645083940
34,15,18,Jits_Linear_8,1,1,48,78,1645155912
34,15,18,Jits_Linear_8,2,5,56,103,1645184332
34,15,18,Jits_Linear_8,3,5,63,98,1645213956
34,15,18,Jits_Linear_8,0,5,63,98,1645774252
34,15,18,Jits_Linear_8,1,5,80,127,1645824232
34,15,18,Jits_Linear_8,2,5,56,103,1645844092
34,15,18,Jits_Linear_8,3,1,48,65,1645881604
34,15,18,Jits_Linear_8,0,5,80,127,1646513768
34,15,18,Jits_Linear_8,1,5,56,103,1646544192
34,15,18,Jits_Linear_8,2,5,63,98,1646547484
34,15,18,Jits_Linear_8,3,1,48,63,1646548448
34,15,18,Jits_Linear_8,0,1,48,73,1647232860
34,15,18,Jits_Linear_8,1,5,63,98,1647243748
34,15,18,Jits_Linear_8,2,5,56,103,1647283788
34,15,18,Jits_Linear_8,3,5,80,127,1647304024
34,15,18,Jits_Linear_8,0,5,80,127,1647883780
34,15,18,Jits_Linear_8,1,1,48,75,1647928852
34,15,18,Jits_Linear_8,2,5,63,98,1647963572
34,15,18,Jits_Linear_8,3,5,56,103,1648003588
34,15,18,Jits_Linear_8,0,5,63,98,1648594252
34,15,18,Jits_Linear_8,1,1,48,75,1648672004
34,15,18,Jits_Linear_8,2,5,80,127,1648674116
34,15,18,Jits_Linear_8,3,5,56,103,1648693828
34,15,18,Jits_Linear_8,0,5,56,103,1649324264
34,15,18,Jits_Linear_8,1,5,63,98,1649333860
34,15,18,Jits_Linear_8,2,1,48,74,1649345296
34,15,18,Jits_Linear_8,3,5,80,127,1649373716
34,15,18,Jits_Linear_8,0,5,56,103,1649933860
34,15,18,Jits_Linear_8,1,5,80,127,1649936852
34,15,18,Jits_Linear_8,2,1,48,71,1650008672
34,15,18,Jits_Linear_8,3,5,63,98,1650073908
34,15,18,Jits_Linear_8,0,5,56,103,1650613820
34,15,18,Jits_Linear_8,1,5,63,98,1650703660
34,15,18,Jits_Linear_8,2,1,48,79,1650716744
34,15,18,Jits_Linear_8,3,5,80,127,1650774456
34,15,18,Jits_Linear_8,0,1,48,80,1651348900
34,15,18,Jits_Linear_8,1,5,63,98,1651373356
34,15,18,Jits_Linear_8,2,5,80,127,1651376724
34,15,18,Jits_Linear_8,3,5,56,103,1651433824
34,15,18,Jits_Linear_8,0,1,48,62,1652052440
34,15,18,Jits_Linear_8,1,5,80,127,1652103708
34,15,18,Jits_Linear_8,2,5,56,103,1652123896
34,15,18,Jits_Linear_8,3,5,63,98,1652134240
34,15,18,Jits_Linear_8,0,5,56,103,1652694520
34,15,18,Jits_Linear_8,1,5,63,98,1652703592
34,15,18,Jits_Linear_8,2,5,80,127,1652774392
34,15,18,Jits_Linear_8,3,1,48,63,1652777440
34,15,18,Jits_Linear_8,0,5,80,127,1653374460
34,15,18,Jits_Linear_8,1,5,56,103,1653423644
34,15,18,Jits_Linear_8,2,1,48,62,1653441756
34,15,18,Jits_Linear_8,3,5,63,98,1653473612
34,15,18,Jits_Linear_8,0,5,56,103,1654134528
34,15,18,Jits_Linear_8,1,5,63,98,1654144724
34,15,18,Jits_Linear_8,2,1,48,52,1654150316
34,15,18,Jits_Linear_8,3,5,80,127,1654184532
34,15,18,Jits_Linear_8,0,5,56,103,1654753600
34,15,18,Jits_Linear_8,1,5,63,98,1654793540
34,15,18,Jits_Linear_8,2,1,48,67,1654843288
34,15,18,Jits_Linear_8,3,5,80,127,1654845080
34,15,18,Jits_Linear_8,0,5,80,127,1655384548
34,15,18,Jits_Linear_8,1,5,56,103,1655433704
34,15,18,Jits_Linear_8,2,5,63,98,1655454040
34,15,18,Jits_Linear_8,3,1,48,46,1655486448
34,15,18,Jits_Linear_8,0,5,80,127,1656064520
34,15,18,Jits_Linear_8,1,1,48,48,1656105256
34,15,18,Jits_Linear_8,2,5,63,98,1656123712
34,15,18,Jits_Linear_8,3,5,56,103,1656203564
34,15,18,Jits_Linear_8,0,5,80,127,1656713572
34,15,18,Jits_Linear_8,1,5,56,103,1656753388
34,15,18,Jits_Linear_8,2,5,63,98,1656774068
34,15,18,Jits_Linear_8,3,1,48,40,1656846784
34,15,18,Jits_Linear_8,0,5,56,103,1657433400
34,15,18,Jits_Linear_8,1,5,80,127,1657443668
34,15,18,Jits_Linear_8,2,1,48,50,1657450752
34,15,18,Jits_Linear_8,3,5,63,98,1657483600
34,15,18,Jits_Linear_8,0,1,48,45,1658084796
34,15,18,Jits_Linear_8,1,5,56,103,1658163564
34,15,18,Jits_Linear_8,2,5,63,98,1658203564
34,15,18,Jits_Linear_8,3,5,80,127,1658206856
34,15,18,Jits_Linear_8,0,5,63,98,1658713440
34,15,18,Jits_Linear_8,1,5,80,127,1658754280
34,15,18,Jits_Linear_8,2,1,48,54,1658816156
34,15,18,Jits_Linear_8,3,5,56,103,1658824200
34,15,18,Jits_Linear_8,0,5,63,98,1659363652
34,15,18,Jits_Linear_8,1,5,56,103,1659443600
34,15,18,Jits_Linear_8,2,1,48,48,1659446116
34,15,18,Jits_Linear_8,3,5,80,127,1659504204
34,15,18,Jits_Linear_8,0,1,48,59,1660029160
34,15,18,Jits_Linear_8,1,5,80,127,1660034360
34,15,18,Jits_Linear_8,2,5,63,98,1660083468
34,15,18,Jits_Linear_8,3,5,56,103,1660114264
34,15,18,Jits_Linear_8,0,5,56,103,1660683528
34,15,18,Jits_Linear_8,1,1,48,61,1660711064
34,15,18,Jits_Linear_8,2,5,63,98,1660733800
34,15,18,Jits_Linear_8,3,5,80,127,1660744292
34,15,18,Jits_Linear_8,0,1,48,61,1661352460
34,15,18,Jits_Linear_8,1,5,56,103,1661354272
34,15,18,Jits_Linear_8,2,5,63,98,1661464096
34,15,18,Jits_Linear_8,3,5,80,127,1661484332
34,15,18,Jits_Linear_8,0,5,63,98,1662003500
34,15,18,Jits_Linear_8,1,5,80,127,1662053628
34,15,18,Jits_Linear_8,2,1,48,61,1662079588
34,15,18,Jits_Linear_8,3,5,56,103,1662144076
34,15,18,Jits_Linear_8,0,5,63,98,1662643524
34,15,18,Jits_Linear_8,1,5,80,127,1662674248
34,15,18,Jits_Linear_8,2,1,48,65,1662699988
34,15,18,Jits_Linear_8,3,5,56,103,1662764300
34,15,18,Jits_Linear_8,0,5,63,98,1663294008
34,15,18,Jits_Linear_8,1,5,56,103,1663304128
34,15,18,Jits_Linear_8,2,1,48,65,1663312052
34,15,18,Jits_Linear_8,3,5,80,127,1663404380
34,15,18,Jits_Linear_8,0,1,48,74,1663964864
34,15,18,Jits_Linear_8,1,1,38,18,1663974736
34,15,18,Jits_Linear_8,2,5,63,98,1664044440
34,15,18,Jits_Linear_8,3,5,80,127,1664075048
34,15,18,Jits_Linear_8,4,5,56,103,1664103896
34,15,18,Jits_Linear_8,0,1,48,71,1664700740
34,15,18,Jits_Linear_8,1,5,80,127,1664714036
34,15,18,Jits_Linear_8,2,5,63,98,1664724232
34,15,18,Jits_Linear_8,3,5,56,103,1664754056
34,15,18,Jits_Linear_8,0,5,80,127,1665253880
34,15,18,Jits_Linear_8,1,5,63,98,1665274264
34,15,18,Jits_Linear_8,2,5,56,103,1665324468
34,15,18,Jits_Linear_8,3,1,48,69,1665393068
34,15,18,Jits_Linear_8,0,5,63,98,1665923412
34,15,18,Jits_Linear_8,1,5,80,127,1665983904
34,15,18,Jits_Linear_8,2,5,56,103,1666004440
34,15,18,Jits_Linear_8,3,1,48,65,1666018568
34,15,18,Jits_Linear_8,0,5,63,98,1666523360
34,15,18,Jits_Linear_8,1,5,56,103,1666573788
34,15,18,Jits_Linear_8,2,5,80,127,1666583908
34,15,18,Jits_Linear_8,3,1,48,48,1666685168
34,15,18,Jits_Linear_8,0,5,56,103,1667194220
34,15,18,Jits_Linear_8,1,5,80,127,1667203296
34,15,18,Jits_Linear_8,2,1,48,70,1667284800
34,15,18,Jits_Linear_8,3,5,63,98,1667303784
34,15,18,Jits_Linear_8,0,5,80,127,1667784064
34,15,18,Jits_Linear_8,1,5,63,98,1667794264
34,15,18,Jits_Linear_8,2,1,48,72,1667923696
34,15,18,Jits_Linear_8,3,5,56,103,1667943724
34,15,18,Jits_Linear_8,0,5,63,98,1668434340
34,15,18,Jits_Linear_8,1,5,80,127,1668474208
34,15,18,Jits_Linear_8,2,1,48,79,1668528220
34,15,18,Jits_Linear_8,3,5,56,103,1668554244
34,15,18,Jits_Linear_8,0,5,56,103,1669064028
34,15,18,Jits_Linear_8,1,1,48,67,1669099432
34,15,18,Jits_Linear_8,2,5,80,127,1669164572
34,15,18,Jits_Linear_8,3,5,63,98,1669183760
34,15,18,Jits_Linear_8,0,5,80,127,1669763384
34,15,18,Jits_Linear_8,1,1,48,70,1669773228
34,15,18,Jits_Linear_8,2,5,56,103,1669774944
34,15,18,Jits_Linear_8,3,5,63,98,1669863808
34,15,18,Jits_Linear_8,0,5,56,103,1670403500
34,15,18,Jits_Linear_8,1,5,63,98,1670424036
34,15,18,Jits_Linear_8,2,1,48,81,1670471568
34,15,18,Jits_Linear_8,3,5,80,127,1670503972
34,15,18,Jits_Linear_8,0,5,63,98,1670994220
34,15,18,Jits_Linear_8,1,5,56,103,1671084380
34,15,18,Jits_Linear_8,2,1,48,81,1671087444
34,15,18,Jits_Linear_8,3,5,80,127,1671089080
34,15,18,Jits_Linear_8,0,5,56,103,1671643604
34,15,18,Jits_Linear_8,1,1,48,78,1671678412
34,15,18,Jits_Linear_8,2,5,80,127,1671703916
34,15,18,Jits_Linear_8,3,5,63,98,1671714408
34,15,18,Jits_Linear_8,0,1,48,81,1672303972
34,15,18,Jits_Linear_8,1,5,80,127,1672314256
34,15,18,Jits_Linear_8,2,5,56,103,1672323552
34,15,18,Jits_Linear_8,3,5,63,98,1672326472
34,15,18,Jits_Linear_8,0,5,56,103,1672893820
34,15,18,Jits_Linear_8,1,5,80,127,1672904168
34,15,18,Jits_Linear_8,2,5,63,98,1672923652
34,15,18,Jits_Linear_8,3,1,48,78,1672938532
34,15,18,Jits_Linear_8,0,5,63,98,1673483564
34,15,18,Jits_Linear_8,1,1,48,78,1673522356
34,15,18,Jits_Linear_8,2,5,80,127,1673543952
34,15,18,Jits_Linear_8,3,5,56,103,1673594152
34,15,18,Jits_Linear_8,0,1,48,80,1674137792
34,15,18,Jits_Linear_8,1,5,63,98,1674183972
34,15,18,Jits_Linear_8,2,5,56,103,1674194244
34,15,18,Jits_Linear_8,3,5,80,127,1674243456
34,15,18,Jits_Linear_8,0,5,63,98,1674694068
34,15,18,Jits_Linear_8,1,5,80,127,1674713408
34,15,18,Jits_Linear_8,2,5,56,103,1674723604
34,15,18,Jits_Linear_8,3,1,48,76,1674792280
34,15,18,Jits_Linear_8,0,5,63,98,1675304464
34,15,18,Jits_Linear_8,1,5,80,127,1675307680
34,15,18,Jits_Linear_8,2,5,56,103,1675344184
34,15,18,Jits_Linear_8,3,1,48,87,1675376744
34,15,18,Jits_Linear_8,0,1,48,78,1675979428
34,15,18,Jits_Linear_8,1,5,63,98,1675984404
34,15,18,Jits_Linear_8,2,5,80,127,1676013860
34,15,18,Jits_Linear_8,3,5,56,103,1676024280
34,15,18,Jits_Linear_8,0,5,56,103,1676544404
34,15,18,Jits_Linear_8,1,5,80,127,1676574004
34,15,18,Jits_Linear_8,2,1,48,80,1676594288
34,15,18,Jits_Linear_8,3,5,63,98,1676603672
34,15,18,Jits_Linear_8,0,1,48,75,1677209656
34,15,18,Jits_Linear_8,1,5,63,98,1677243628
34,15,18,Jits_Linear_8,2,5,56,103,1677283640
34,15,18,Jits_Linear_8,3,5,80,127,1677286708
34,15,18,Jits_Linear_8,0,5,80,127,1677743604
34,15,18,Jits_Linear_8,1,5,56,103,1677824376
34,15,18,Jits_Linear_8,2,1,48,88,1677856412
34,15,18,Jits_Linear_8,3,5,63,98,1677873376
34,15,18,Jits_Linear_8,0,5,80,127,1678324208
34,15,18,Jits_Linear_8,1,5,56,103,1678343396
34,15,18,Jits_Linear_8,2,5,63,98,1678433604
34,15,18,Jits_Linear_8,3,1,48,77,1678441356
34,15,18,Jits_Linear_8,0,5,80,127,1678964292
34,15,18,Jits_Linear_8,1,5,63,98,1679004112
34,15,18,Jits_Linear_8,2,5,56,103,1679043900
34,15,18,Jits_Linear_8,3,1,48,76,1679075040
34,15,18,Jits_Linear_8,0,5,63,98,1679533460
34,15,18,Jits_Linear_8,1,5,80,127,1679593928
34,15,18,Jits_Linear_8,2,5,56,103,1679623604
34,15,18,Jits_Linear_8,3,1,48,75,1679641172
34,15,18,Jits_Linear_8,0,5,56,103,1680133452
34,15,18,Jits_Linear_8,1,5,80,127,1680164324
34,15,18,Jits_Linear_8,2,1,48,67,1680204308
34,15,18,Jits_Linear_8,3,5,63,98,1680254224
34,15,18,Jits_Linear_8,0,5,56,103,1680733528
34,15,18,Jits_Linear_8,1,1,48,78,1680811972
34,15,18,Jits_Linear_8,2,5,80,127,1680844284
34,15,18,Jits_Linear_8,3,5,63,98,1680873736
34,15,18,Jits_Linear_8,0,5,56,103,1681373504
34,15,18,Jits_Linear_8,1,1,48,80,1681422104
34,15,18,Jits_Linear_8,2,5,63,98,1681434184
34,15,18,Jits_Linear_8,3,5,80,127,1681463636
34,15,18,Jits_Linear_8,0,5,56,103,1681933580
34,15,18,Jits_Linear_8,1,5,63,98,1682004464
34,15,18,Jits_Linear_8,2,1,48,76,1682012240
34,15,18,Jits_Linear_8,3,5,80,127,1682023792
34,15,18,Jits_Linear_8,0,5,80,127,1682494028
34,15,18,Jits_Linear_8,1,5,63,98,1682514268
34,15,18,Jits_Linear_8,2,5,56,103,1682563420
34,15,18,Jits_Linear_8,3,1,48,77,1682584924
34,15,18,Jits_Linear_8,0,5,63,98,1683104096
34,15,18,Jits_Linear_8,1,5,80,127,1683114292
34,15,18,Jits_Linear_8,2,1,48,70,1683138088
34,15,18,Jits_Linear_8,3,5,56,103,1683163440
34,15,18,Jits_Linear_8,0,5,63,98,1683683636
34,15,18,Jits_Linear_8,1,1,48,89,1683713728
34,15,18,Jits_Linear_8,2,5,80,127,1683754208
34,15,18,Jits_Linear_8,3,5,56,103,1683773920
34,15,18,Jits_Linear_8,0,5,63,98,1684294188
34,15,18,Jits_Linear_8,1,5,80,127,1684297476
34,15,18,Jits_Linear_8,2,1,48,87,1684314172
34,15,18,Jits_Linear_8,3,5,56,103,1684363664
34,15,18,Jits_Linear_8,0,5,80,127,1684824420
34,15,18,Jits_Linear_8,1,5,56,103,1684844056
34,15,18,Jits_Linear_8,2,5,63,98,1684854104
34,15,18,Jits_Linear_8,3,1,48,77,1684908856
34,15,18,Jits_Linear_8,0,5,56,103,1685423400
34,15,18,Jits_Linear_8,1,1,48,63,1685463756
34,15,18,Jits_Linear_8,2,1,38,16,1685474224
34,15,18,Jits_Linear_8,3,5,63,98,1685513732
34,15,18,Jits_Linear_8,4,5,80,127,1685517096
34,15,18,Jits_Linear_8,0,5,80,127,1685974352
34,15,18,Jits_Linear_8,1,5,56,103,1685983796
34,15,18,Jits_Linear_8,2,5,63,98,1686004032
34,15,18,Jits_Linear_8,3,1,48,77,1686074952
34,15,18,Jits_Linear_8,0,5,63,98,1686543856
34,15,18,Jits_Linear_8,1,5,80,127,1686604100
34,15,18,Jits_Linear_8,2,1,48,59,1686608044
34,15,18,Jits_Linear_8,3,5,56,103,1686614588
34,15,18,Jits_Linear_8,0,5,63,98,1687183808
34,15,18,Jits_Linear_8,1,1,48,59,1687184920
34,15,18,Jits_Linear_8,2,5,80,127,1687213476
34,15,18,Jits_Linear_8,3,5,56,103,1687254536
34,15,18,Jits_Linear_8,0,5,56,103,1687743796
34,15,18,Jits_Linear_8,1,5,80,127,1687753992
34,15,18,Jits_Linear_8,2,5,63,98,1687794080
34,15,18,Jits_Linear_8,3,1,48,62,1687813688
34,15,18,Jits_Linear_8,0,5,80,127,1688274204
34,15,18,Jits_Linear_8,1,5,56,103,1688354152
34,15,18,Jits_Linear_8,2,5,63,98,1688364276
34,15,18,Jits_Linear_8,3,1,48,61,1688367016
34,15,18,Jits_Linear_8,0,5,80,127,1688883428
34,15,18,Jits_Linear_8,1,1,48,50,1688959740
34,15,18,Jits_Linear_8,2,5,56,103,1688963448
34,15,18,Jits_Linear_8,3,5,63,98,1688973964
34,15,18,Jits_Linear_8,0,5,80,127,1689403876
34,15,18,Jits_Linear_8,1,5,56,103,1689453928
34,15,18,Jits_Linear_8,2,5,63,98,1689504008
34,15,18,Jits_Linear_8,3,1,48,58,1689525260
34,15,18,Jits_Linear_8,0,5,56,103,1690024284
34,15,18,Jits_Linear_8,1,5,63,98,1690027276
34,15,18,Jits_Linear_8,2,1,48,68,1690050772
34,15,18,Jits_Linear_8,3,1,38,19,1690060636
34,15,18,Jits_Linear_8,4,5,80,127,1690073636
34,15,18,Jits_Linear_8,0,1,48,76,1690559088
34,15,18,Jits_Linear_8,1,5,56,103,1690603852
34,15,18,Jits_Linear_8,2,5,63,98,1690633676
34,15,18,Jits_Linear_8,3,5,80,127,1690643948
34,15,18,Jits_Linear_8,0,5,63,98,1691073944
34,15,18,Jits_Linear_8,1,5,56,103,1691143780
34,15,18,Jits_Linear_8,2,1,48,66,1691149888
34,15,18,Jits_Linear_8,3,5,80,127,1691193972
34,15,18,Jits_Linear_8,0,5,63,98,1691663756
34,15,18,Jits_Linear_8,1,5,56,103,1691674024
34,15,18,Jits_Linear_8,2,5,80,127,1691677016
34,15,18,Jits_Linear_8,3,1,48,77,1691683892
34,15,18,Jits_Linear_8,0,5,80,127,1692163564
34,15,18,Jits_Linear_8,1,5,56,103,1692223884
34,15,18,Jits_Linear_8,2,1,48,73,1692265740
34,15,18,Jits_Linear_8,3,5,63,98,1692313884
34,15,18,Jits_Linear_8,0,5,80,127,1692714496
34,15,18,Jits_Linear_8,1,5,56,103,1692813652
34,15,18,Jits_Linear_8,2,5,63,98,1692853588
34,15,18,Jits_Linear_8,3,1,48,76,1692878652
34,15,18,Jits_Linear_8,0,5,56,103,1693314500
34,15,18,Jits_Linear_8,1,5,63,98,1693333864
34,15,18,Jits_Linear_8,2,5,80,127,1693373804
34,15,18,Jits_Linear_8,3,1,48,81,1693426740
34,15,18,Jits_Linear_8,0,5,63,98,1693833524
34,15,18,Jits_Linear_8,1,5,56,103,1693854156
34,15,18,Jits_Linear_8,2,5,80,127,1693954552
34,15,18,Jits_Linear_8,3,1,48,83,1693967636
34,15,18,Jits_Linear_8,0,5,63,98,1694363940
34,15,18,Jits_Linear_8,1,1,48,79,1694473408
34,15,18,Jits_Linear_8,2,5,80,127,1694475044
34,15,18,Jits_Linear_8,3,5,56,103,1694504272
34,15,18,Jits_Linear_8,0,5,56,103,1694924156
34,15,18,Jits_Linear_8,1,1,48,76,1694937760
34,15,18,Jits_Linear_8,2,5,63,98,1694953752
34,15,18,Jits_Linear_8,3,5,80,127,1695004028
34,15,18,Jits_Linear_8,0,5,63,98,1695434108
34,15,18,Jits_Linear_8,1,5,56,103,1695463784
34,15,18,Jits_Linear_8,2,1,48,84,1695470116
34,15,18,Jits_Linear_8,3,5,80,127,1695513904
34,15,18,Jits_Linear_8,0,1,48,90,1695953004
34,15,18,Jits_Linear_8,1,5,56,103,1696003600
34,15,18,Jits_Linear_8,2,5,63,98,1696023912
34,15,18,Jits_Linear_8,3,5,80,127,1696103764
34,15,18,Jits_Linear_8,0,1,48,82,1696495304
34,15,18,Jits_Linear_8,1,5,63,98,1696514512
34,15,18,Jits_Linear_8,2,5,56,103,1696573932
34,15,18,Jits_Linear_8,3,5,80,127,1696603520
34,15,18,Jits_Linear_8,0,1,48,58,1697017676
34,15,18,Jits_Linear_8,1,5,56,103,1697093980
34,15,18,Jits_Linear_8,2,5,80,127,1697154356
34,15,18,Jits_Linear_8,3,5,63,98,1697194616
34,15,18,Jits_Linear_8,0,5,63,98,1697604004
34,15,18,Jits_Linear_8,1,1,48,57,1697651392
34,15,18,Jits_Linear_8,2,5,56,103,1697664316
34,15,18,Jits_Linear_8,3,5,80,127,1697733872
34,15,18,Jits_Linear_8,0,1,48,66,1698152724
34,15,18,Jits_Linear_8,1,5,56,103,1698214580
34,15,18,Jits_Linear_8,2,5,63,98,1698223348
34,15,18,Jits_Linear_8,3,5,80,127,1698226644
34,15,18,Jits_Linear_8,0,5,63,98,1698684268
34,15,18,Jits_Linear_8,1,1,48,77,1698741648
34,15,18,Jits_Linear_8,2,5,56,103,1698743624
34,15,18,Jits_Linear_8,3,5,80,127,1698746548
34,15,18,Jits_Linear_8,0,5,63,98,1699194644
34,15,18,Jits_Linear_8,1,5,80,127,1699223972
34,15,18,Jits_Linear_8,2,5,56,103,1699244508
34,15,18,Jits_Linear_8,3,1,48,93,1699279912
34,15,18,Jits_Linear_8,0,5,56,103,1699723568
34,15,18,Jits_Linear_8,1,5,63,98,1699773696
34,15,18,Jits_Linear_8,2,1,48,87,1699797044
34,15,18,Jits_Linear_8,3,5,80,127,1699853708
34,15,18,Jits_Linear_8,0,5,80,127,1700224284
34,15,18,Jits_Linear_8,1,5,63,98,1700264324
34,15,18,Jits_Linear_8,2,5,56,103,1700283884
34,15,18,Jits_Linear_8,3,1,48,86,1700305584
34,15,18,Jits_Linear_8,0,1,48,78,1700811680
34,15,18,Jits_Linear_8,1,5,56,103,1700814340
34,15,18,Jits_Linear_8,2,5,80,127,1700824316
34,15,18,Jits_Linear_8,3,5,63,98,1700844172
34,15,18,Jits_Linear_8,0,5,56,103,1701314028
34,15,18,Jits_Linear_8,1,1,48,82,1701353188
34,15,18,Jits_Linear_8,2,5,63,98,1701364300
34,15,18,Jits_Linear_8,3,5,80,127,1701393752
34,15,18,Jits_Linear_8,0,5,56,103,1701784052
34,15,18,Jits_Linear_8,1,5,63,98,1701794248
34,15,18,Jits_Linear_8,2,5,80,127,1701844228
34,15,18,Jits_Linear_8,3,1,48,70,1701887128
34,15,18,Jits_Linear_8,0,5,56,103,1702293852
34,15,18,Jits_Linear_8,1,5,80,127,1702296920
34,15,18,Jits_Linear_8,2,1,48,55,1702403584
34,15,18,Jits_Linear_8,3,5,63,98,1702453576
34,15,18,Jits_Linear_8,0,5,63,98,1702824256
34,15,18,Jits_Linear_8,1,5,56,103,1702894088
34,15,18,Jits_Linear_8,2,1,48,56,1702930016
34,15,18,Jits_Linear_8,3,5,80,127,1702933868
34,15,18,Jits_Linear_8,0,5,63,98,1703374284
34,15,18,Jits_Linear_8,1,1,48,81,1703429544
34,15,18,Jits_Linear_8,2,5,56,103,1703464180
34,15,18,Jits_Linear_8,3,5,80,127,1703467328
34,15,18,Jits_Linear_8,0,5,56,103,1703863620
34,15,18,Jits_Linear_8,1,1,48,52,1703941292
34,15,18,Jits_Linear_8,2,5,63,98,1703953900
34,15,18,Jits_Linear_8,3,5,80,127,1703964092
34,15,18,Jits_Linear_8,0,5,56,103,1704344060
34,15,18,Jits_Linear_8,1,5,63,98,1704394116
34,15,18,Jits_Linear_8,2,5,80,127,1704423792
34,15,18,Jits_Linear_8,3,1,48,53,1704443248
34,15,18,Jits_Linear_8,0,1,48,61,1704925532
34,15,18,Jits_Linear_8,1,5,63,98,1704933948
34,15,18,Jits_Linear_8,2,5,80,127,1704944072
34,15,18,Jits_Linear_8,3,5,56,103,1705004316
34,15,18,Jits_Linear_8,0,5,63,98,1705353836
34,15,18,Jits_Linear_8,1,5,80,127,1705414376
34,15,18,Jits_Linear_8,2,5,56,103,1705454244
34,15,18,Jits_Linear_8,3,1,48,57,1705466876
34,15,18,Jits_Linear_8,0,1,48,57,1705949680
34,15,18,Jits_Linear_8,1,5,56,103,1705953608
34,15,18,Jits_Linear_8,2,5,80,127,1705973992
34,15,18,Jits_Linear_8,3,5,63,98,1705993628
34,15,18,Jits_Linear_8,0,5,63,98,1706373552
34,15,18,Jits_Linear_8,1,5,56,103,1706394260
34,15,18,Jits_Linear_8,2,5,80,127,1706434200
34,15,18,Jits_Linear_8,3,1,48,72,1706469380
34,15,18,Jits_Linear_8,0,5,63,98,1706883420
34,15,18,Jits_Linear_8,1,5,80,127,1706914168
34,15,18,Jits_Linear_8,2,5,56,103,1706933504
34,15,18,Jits_Linear_8,3,1,48,81,1706978944
34,15,18,Jits_Linear_8,0,5,80,127,1707353424
34,15,18,Jits_Linear_8,1,5,56,103,1707403580
34,15,18,Jits_Linear_8,2,1,48,65,1707445584
34,15,18,Jits_Linear_8,3,5,63,98,1707464184
34,15,18,Jits_Linear_8,0,5,63,98,1707833860
34,15,18,Jits_Linear_8,1,1,48,75,1707938516
34,15,18,Jits_Linear_8,2,5,56,103,1707953388
34,15,18,Jits_Linear_8,3,5,80,127,1707984180
34,15,18,Jits_Linear_8,0,5,80,127,1708364108
34,15,18,Jits_Linear_8,1,5,63,98,1708383820
34,15,18,Jits_Linear_8,2,1,48,71,1708421932
34,15,18,Jits_Linear_8,3,5,56,103,1708454196
34,15,18,Jits_Linear_8,0,5,63,98,1708874144
34,15,18,Jits_Linear_8,1,5,56,103,1708884264
34,15,18,Jits_Linear_8,2,1,48,75,1708902824
34,15,18,Jits_Linear_8,3,5,80,127,1708964080
34,15,18,Jits_Linear_8,0,1,48,67,1709379176
34,15,18,Jits_Linear_8,1,5,56,103,1709424088
34,15,18,Jits_Linear_8,2,5,80,127,1709453792
34,15,18,Jits_Linear_8,3,5,63,98,1709464060
34,15,18,Jits_Linear_8,0,9999,9999,9999,1598972012
34,15,18,Jits_Linear_8,1,9999,9999,9999,1599791204
34,15,18,Jits_Linear_8,2,9999,9999,9999,1600611440
34,15,18,Jits_Linear_8,3,9999,9999,9999,1601431608
34,15,18,Jits_Linear_8,4,9999,9999,9999,1602251896
34,15,18,Jits_Linear_8,5,9999,9999,9999,1603061840
34,15,18,Jits_Linear_8,6,9999,9999,9999,1603871852
34,15,18,Jits_Linear_8,7,9999,9999,9999,1604681808
34,15,18,Jits_Linear_8,8,9999,9999,9999,1605491772
34,15,18,Jits_Linear_8,9,9999,9999,9999,1606301800
34,15,18,Jits_Linear_8,10,9999,9999,9999,1607101504
34,15,18,Jits_Linear_8,11,9999,9999,9999,1607901256
34,15,18,Jits_Linear_8,12,9999,9999,9999,1608702076
34,15,18,Jits_Linear_8,13,9999,9999,9999,1609501764
34,15,18,Jits_Linear_8,14,9999,9999,9999,1610301508
34,15,18,Jits_Linear_8,15,9999,9999,9999,1611092048
34,15,18,Jits_Linear_8,16,9999,9999,9999,1611881596
34,15,18,Jits_Linear_8,17,9999,9999,9999,1612672084
34,15,18,Jits_Linear_8,18,9999,9999,9999,1613471864
34,15,18,Jits_Linear_8,19,9999,9999,9999,1614261368
34,15,18,Jits_Linear_8,20,9999,9999,9999,1615041640
34,15,18,Jits_Linear_8,21,9999,9999,9999,1615821908
34,15,18,Jits_Linear_8,22,9999,9999,9999,1616601148
34,15,18,Jits_Linear_8,23,9999,9999,9999,1617381432
34,15,18,Jits_Linear_8,24,9999,9999,9999,1618161780
34,15,18,Jits_Linear_8,25,9999,9999,9999,1618931788
34,15,18,Jits_Linear_8,26,9999,9999,9999,1619701816
34,15,18,Jits_Linear_8,27,9999,9999,9999,1620471916
34,15,18,Jits_Linear_8,28,9999,9999,9999,1621241936
34,15,18,Jits_Linear_8,29,9999,9999,9999,1622011972
34,15,18,Jits_Linear_8,30,9999,9999,9999,1622771792
34,15,18,Jits_Linear_8,31,9999,9999,9999,1623531612
34,15,18,Jits_Linear_8,32,9999,9999,9999,1624291444
34,15,18,Jits_Linear_8,33,9999,9999,9999,1625051200
34,15,18,Jits_Linear_8,34,9999,9999,9999,1625812084
34,15,18,Jits_Linear_8,35,9999,9999,9999,1626561644
34,15,18,Jits_Linear_8,36,9999,9999,9999,1627311208
34,15,18,Jits_Linear_8,37,9999,9999,9999,1628061756
34,15,18,Jits_Linear_8,38,9999,9999,9999,1628811376
34,15,18,Jits_Linear_8,39,9999,9999,9999,1629561920
34,15,18,Jits_Linear_8,40,9999,9999,9999,1630301308
34,15,18,Jits_Linear_8,41,9999,9999,9999,1631041592
34,15,18,Jits_Linear_8,42,9999,9999,9999,1631782004
34,15,18,Jits_Linear_8,43,9999,9999,9999,1632521308
34,15,18,Jits_Linear_8,44,9999,9999,9999,1633261632
34,15,18,Jits_Linear_8,45,9999,9999,9999,1633991788
34,15,18,Jits_Linear_8,46,9999,9999,9999,1634721884
34,15,18,Jits_Linear_8,47,9999,9999,9999,1635452020
34,15,18,Jits_Linear_8,48,9999,9999,9999,1636182116
34,15,18,Jits_Linear_8,49,9999,9999,9999,1636921420
34,15,18,Jits_Linear_8,50,9999,9999,9999,1637641312
34,15,18,Jits_Linear_8,51,9999,9999,9999,1638361200
34,15,18,Jits_Linear_8,52,9999,9999,9999,1639082068
34,15,18,Jits_Linear_8,53,9999,9999,9999,1639801936
34,15,18,Jits_Linear_8,54,9999,9999,9999,1640521820
34,15,18,Jits_Linear_8,55,9999,9999,9999,1641231460
34,15,18,Jits_Linear_8,56,9999,9999,9999,1641942128
34,15,18,Jits_Linear_8,57,9999,9999,9999,1642661956
34,15,18,Jits_Linear_8,58,9999,9999,9999,1643371644
34,15,18,Jits_Linear_8,59,9999,9999,9999,1644081268
34,15,18,Jits_Linear_8,60,9999,9999,9999,1644781692
34,15,18,Jits_Linear_8,61,9999,9999,9999,1645482048
34,15,18,Jits_Linear_8,62,9999,9999,9999,1646181472
34,15,18,Jits_Linear_8,63,9999,9999,9999,1646881872
34,15,18,Jits_Linear_8,64,9999,9999,9999,1647581256
34,15,18,Jits_Linear_8,65,9999,9999,9999,1648271480
34,15,18,Jits_Linear_8,66,9999,9999,9999,1648961620
34,15,18,Jits_Linear_8,67,9999,9999,9999,1649651772
34,15,18,Jits_Linear_8,68,9999,9999,9999,1650341996
34,15,18,Jits_Linear_8,69,9999,9999,9999,1651031160
34,15,18,Jits_Linear_8,70,9999,9999,9999,1651712104
34,15,18,Jits_Linear_8,71,9999,9999,9999,1652401208
34,15,18,Jits_Linear_8,72,9999,9999,9999,1653081212
34,15,18,Jits_Linear_8,73,9999,9999,9999,1653761108
34,15,18,Jits_Linear_8,74,9999,9999,9999,1654442064
34,15,18,Jits_Linear_8,75,9999,9999,9999,1655111752
34,15,18,Jits_Linear_8,76,9999,9999,9999,1655781456
34,15,18,Jits_Linear_8,77,9999,9999,9999,1656451196
34,15,18,Jits_Linear_8,78,9999,9999,9999,1657121864
34,15,18,Jits_Linear_8,79,9999,9999,9999,1657791572
34,15,18,Jits_Linear_8,80,9999,9999,9999,1658452040
34,15,18,Jits_Linear_8,81,9999,9999,9999,1659111544
34,15,18,Jits_Linear_8,82,9999,9999,9999,1659771996
34,15,18,Jits_Linear_8,83,9999,9999,9999,1660431424
34,15,18,Jits_Linear_8,84,9999,9999,9999,1661091896
34,15,18,Jits_Linear_8,85,9999,9999,9999,1661741128
34,15,18,Jits_Linear_8,86,9999,9999,9999,1662391416
34,15,18,Jits_Linear_8,87,9999,9999,9999,1663041604
34,15,18,Jits_Linear_8,88,9999,9999,9999,1663691888
34,15,18,Jits_Linear_8,89,9999,9999,9999,1664342112
34,15,18,Jits_Linear_8,90,9999,9999,9999,1664982072
34,15,18,Jits_Linear_8,91,9999,9999,9999,1665622144
34,15,18,Jits_Linear_8,92,9999,9999,9999,1666262112
34,15,18,Jits_Linear_8,93,9999,9999,9999,1666902108
34,15,18,Jits_Linear_8,94,9999,9999,9999,1667542136
34,15,18,Jits_Linear_8,95,9999,9999,9999,1668182076
34,15,18,Jits_Linear_8,96,9999,9999,9999,1668822112
34,15,18,Jits_Linear_8,97,9999,9999,9999,1669462112
34,15,18,Jits_Linear_8,98,9999,9999,9999,1670102084
34,15,18,Jits_Linear_8,99,9999,9999,9999,1670742100
34,15,18,Jits_Linear_8,100,9999,9999,9999,1671371864
34,15,18,Jits_Linear_8,101,9999,9999,9999,1671991416
34,15,18,Jits_Linear_8,102,9999,9999,9999,1672611896
34,15,18,Jits_Linear_8,103,9999,9999,9999,1673231444
34,15,18,Jits_Linear_8,104,9999,9999,9999,1673851980
34,15,18,Jits_Linear_8,105,9999,9999,9999,1674461296
34,15,18,Jits_Linear_8,106,9999,9999,9999,1675071548
34,15,18,Jits_Linear_8,107,9999,9999,9999,1675681888
34,15,18,Jits_Linear_8,108,9999,9999,9999,1676291176
34,15,18,Jits_Linear_8,109,9999,9999,9999,1676901504
34,15,18,Jits_Linear_8,110,9999,9999,9999,1677501540
34,15,18,Jits_Linear_8,111,9999,9999,9999,1678101612
34,15,18,Jits_Linear_8,112,9999,9999,9999,1678701688
34,15,18,Jits_Linear_8,113,9999,9999,9999,1679301720
34,15,18,Jits_Linear_8,114,9999,9999,9999,1679901800
34,15,18,Jits_Linear_8,115,9999,9999,9999,1680491600
34,15,18,Jits_Linear_8,116,9999,9999,9999,1681081452
34,15,18,Jits_Linear_8,117,9999,9999,9999,1681671272
34,15,18,Jits_Linear_8,118,9999,9999,9999,1682262144
34,15,18,Jits_Linear_8,119,9999,9999,9999,1682861120
34,15,18,Jits_Linear_8,120,9999,9999,9999,1683441720
34,15,18,Jits_Linear_8,121,9999,9999,9999,1684021336
34,15,18,Jits_Linear_8,122,9999,9999,9999,1684601912
34,15,18,Jits_Linear_8,123,9999,9999,9999,1685181548
34,15,18,Jits_Linear_8,124,9999,9999,9999,1685761124
34,15,18,Jits_Linear_8,125,9999,9999,9999,1686331448
34,15,18,Jits_Linear_8,126,9999,9999,9999,1686901856
34,15,18,Jits_Linear_8,127,9999,9999,9999,1687471164
34,15,18,Jits_Linear_8,128,9999,9999,9999,1688041564
34,15,18,Jits_Linear_8,129,9999,9999,9999,1688611904
34,15,18,Jits_Linear_8,130,9999,9999,9999,1689172064
34,15,18,Jits_Linear_8,131,9999,9999,9999,1689731164
34,15,18,Jits_Linear_8,132,9999,9999,9999,1690291284
34,15,18,Jits_Linear_8,133,9999,9999,9999,1690851436
34,15,18,Jits_Linear_8,134,9999,9999,9999,1691411572
34,15,18,Jits_Linear_8,135,9999,9999,9999,1691961436
34,15,18,Jits_Linear_8,136,9999,9999,9999,1692511308
34,15,18,Jits_Linear_8,137,9999,9999,9999,1693061196
34,15,18,Jits_Linear_8,138,9999,9999,9999,1693611100
34,15,18,Jits_Linear_8,139,9999,9999,9999,1694162032
34,15,18,Jits_Linear_8,140,9999,9999,9999,1694701648
34,15,18,Jits_Linear_8,141,9999,9999,9999,1695241328
34,15,18,Jits_Linear_8,142,9999,9999,9999,1695781992
34,15,18,Jits_Linear_8,143,9999,9999,9999,1696321604
34,15,18,Jits_Linear_8,144,9999,9999,9999,1696861284
34,15,18,Jits_Linear_8,145,9999,9999,9999,1697391684
34,15,18,Jits_Linear_8,146,9999,9999,9999,1697921108
34,15,18,Jits_Linear_8,147,9999,9999,9999,1698451516
34,15,18,Jits_Linear_8,148,9999,9999,9999,1698981976
34,15,18,Jits_Linear_8,149,9999,9999,9999,1699511396
34,15,18,Jits_Linear_8,150,9999,9999,9999,1700031604
34,15,18,Jits_Linear_8,151,9999,9999,9999,1700551744
34,15,18,Jits_Linear_8,152,9999,9999,9999,1701071964
34,15,18,Jits_Linear_8,153,9999,9999,9999,1701591128
34,15,18,Jits_Linear_8,154,9999,9999,9999,1702111340
34,15,18,Jits_Linear_8,155,9999,9999,9999,1702621288
34,15,18,Jits_Linear_8,156,9999,9999,9999,1703131248
34,15,18,Jits_Linear_8,157,9999,9999,9999,1703641188
34,15,18,Jits_Linear_8,158,9999,9999,9999,1704151132
34,15,18,Jits_Linear_8,159,9999,9999,9999,1704662136
34,15,18,Jits_Linear_8,160,9999,9999,9999,1705172020
34,15,18,Jits_Linear_8,161,9999,9999,9999,1705671764
34,15,18,Jits_Linear_8,162,9999,9999,9999,1706171452
34,15,18,Jits_Linear_8,163,9999,9999,9999,1706671200
34,15,18,Jits_Linear_8,164,9999,9999,9999,1707171924
34,15,18,Jits_Linear_8,165,9999,9999,9999,1707661412
34,15,18,Jits_Linear_8,166,9999,9999,9999,1708151864
34,15,18,Jits_Linear_8,167,9999,9999,9999,1708641356
34,15,18,Jits_Linear_8,168,9999,9999,9999,1709131836
34,15,18,Jits_Linear_8,169,9999,9999,9999,1709621332
34,16,19,Jits_Linear_5,0,5,56,103,1720726864
34,16,19,Jits_Linear_5,1,5,63,98,1720730268
34,16,19,Jits_Linear_5,2,5,80,127,1720733236
34,16,19,Jits_Linear_5,0,5,56,103,1721207224
34,16,19,Jits_Linear_5,1,5,63,98,1721210244
34,16,19,Jits_Linear_5,2,5,80,127,1721213520
34,16,19,Jits_Linear_5,0,1,48,69,1721655312
34,16,19,Jits_Linear_5,1,5,56,103,1721687468
34,16,19,Jits_Linear_5,2,5,80,127,1721696620
34,16,19,Jits_Linear_5,3,5,63,98,1721717300
34,16,19,Jits_Linear_5,0,5,63,98,1722116436
34,16,19,Jits_Linear_5,1,1,48,89,1722132960
34,16,19,Jits_Linear_5,2,5,80,127,1722147304
34,16,19,Jits_Linear_5,3,5,56,103,1722157352
34,16,19,Jits_Linear_5,0,1,48,98,1722569628
34,16,19,Jits_Linear_5,1,5,80,127,1722657396
34,16,19,Jits_Linear_5,2,5,56,103,1722667352
34,16,19,Jits_Linear_5,3,5,63,98,1722697252
34,16,19,Jits_Linear_5,0,1,48,76,1723079512
34,16,19,Jits_Linear_5,1,5,63,98,1723137384
34,16,19,Jits_Linear_5,2,5,56,103,1723167208
34,16,19,Jits_Linear_5,3,5,80,127,1723177316
34,16,19,Jits_Linear_5,0,5,56,103,1723576620
34,16,19,Jits_Linear_5,1,1,48,84,1723598692
34,16,19,Jits_Linear_5,2,1,38,19,1723608492
34,16,19,Jits_Linear_5,3,5,63,98,1723626724
34,16,19,Jits_Linear_5,4,5,80,127,1723647408
34,16,19,Jits_Linear_5,0,5,80,127,1724067128
34,16,19,Jits_Linear_5,1,1,48,84,1724069792
34,16,19,Jits_Linear_5,2,1,38,20,1724080192
34,16,19,Jits_Linear_5,3,5,63,98,1724117304
34,16,19,Jits_Linear_5,4,5,56,103,1724157248
34,16,19,Jits_Linear_5,0,1,48,71,1724548960
34,16,19,Jits_Linear_5,1,5,56,103,1724556584
34,16,19,Jits_Linear_5,2,5,63,98,1724587456
34,16,19,Jits_Linear_5,3,5,80,127,1724657200
34,16,19,Jits_Linear_5,0,1,48,60,1725029472
34,16,19,Jits_Linear_5,1,5,56,103,1725047032
34,16,19,Jits_Linear_5,2,5,80,127,1725106624
34,16,19,Jits_Linear_5,3,5,63,98,1725137260
34,16,19,Jits_Linear_5,0,1,48,60,1725505868
34,16,19,Jits_Linear_5,1,5,56,103,1725546796
34,16,19,Jits_Linear_5,2,5,63,98,1725557216
34,16,19,Jits_Linear_5,3,5,80,127,1725597104
34,16,19,Jits_Linear_5,0,1,48,58,1725999176
34,16,19,Jits_Linear_5,1,5,63,98,1726037412
34,16,19,Jits_Linear_5,2,5,80,127,1726117376
34,16,19,Jits_Linear_5,3,5,56,103,1726126452
34,16,19,Jits_Linear_5,0,1,48,60,1726506584
34,16,19,Jits_Linear_5,1,5,63,98,1726587300
34,16,19,Jits_Linear_5,2,5,56,103,1726627324
34,16,19,Jits_Linear_5,3,5,80,127,1726630240
34,16,19,Jits_Linear_5,0,5,56,103,1727047200
34,16,19,Jits_Linear_5,1,1,48,76,1727052116
34,16,19,Jits_Linear_5,2,5,63,98,1727057392
34,16,19,Jits_Linear_5,3,5,80,127,1727097180
34,16,19,Jits_Linear_5,0,5,56,103,1727536564
34,16,19,Jits_Linear_5,1,5,63,98,1727539552
34,16,19,Jits_Linear_5,2,1,48,94,1727549192
34,16,19,Jits_Linear_5,3,5,80,127,1727556864
34,16,19,Jits_Linear_5,0,1,48,79,1728044392
34,16,19,Jits_Linear_5,1,1,38,18,1728054792
34,16,19,Jits_Linear_5,2,5,80,127,1728057272
34,16,19,Jits_Linear_5,3,5,56,103,1728067024
34,16,19,Jits_Linear_5,4,5,63,98,1728136580
34,16,19,Jits_Linear_5,0,5,63,98,1728557536
34,16,19,Jits_Linear_5,1,1,48,85,1728568676
34,16,19,Jits_Linear_5,2,5,56,103,1728577164
34,16,19,Jits_Linear_5,3,5,80,127,1728656688
34,16,19,Jits_Linear_5,0,1,48,85,1729069848
34,16,19,Jits_Linear_5,1,5,56,103,1729076476
34,16,19,Jits_Linear_5,2,5,80,127,1729116416
34,16,19,Jits_Linear_5,3,5,63,98,1729127056
34,16,19,Jits_Linear_5,0,5,80,127,1729577216
34,16,19,Jits_Linear_5,1,1,48,77,1729580704
34,16,19,Jits_Linear_5,2,1,38,18,1729591172
34,16,19,Jits_Linear_5,3,5,63,98,1729607240
34,16,19,Jits_Linear_5,4,5,56,103,1729646956
34,16,19,Jits_Linear_5,0,5,56,103,1730106832
34,16,19,Jits_Linear_5,1,1,48,83,1730117972
34,16,19,Jits_Linear_5,2,5,63,98,1730136504
34,16,19,Jits_Linear_5,3,5,80,127,1730186580
34,16,19,Jits_Linear_5,0,5,80,127,1730616876
34,16,19,Jits_Linear_5,1,1,48,88,1730635512
34,16,19,Jits_Linear_5,2,5,56,103,1730656812
34,16,19,Jits_Linear_5,3,5,63,98,1730666860
34,16,19,Jits_Linear_5,0,5,80,127,1731117324
34,16,19,Jits_Linear_5,1,1,48,65,1731157636
34,16,19,Jits_Linear_5,2,5,63,98,1731158972
34,16,19,Jits_Linear_5,3,5,56,103,1731216852
34,16,19,Jits_Linear_5,0,5,56,103,1731636656
34,16,19,Jits_Linear_5,1,5,80,127,1731646776
34,16,19,Jits_Linear_5,2,1,48,89,1731647744
34,16,19,Jits_Linear_5,3,5,63,98,1731726888
34,16,19,Jits_Linear_5,0,1,48,65,1732142232
34,16,19,Jits_Linear_5,1,5,80,127,1732156876
34,16,19,Jits_Linear_5,2,5,63,98,1732217268
34,16,19,Jits_Linear_5,3,5,56,103,1732246880
34,16,19,Jits_Linear_5,0,5,56,103,1732677020
34,16,19,Jits_Linear_5,1,1,48,62,1732700816
34,16,19,Jits_Linear_5,2,5,80,127,1732737260
34,16,19,Jits_Linear_5,3,5,63,98,1732777224
34,16,19,Jits_Linear_5,0,5,56,103,1733256768
34,16,19,Jits_Linear_5,1,1,48,57,1733258336
34,16,19,Jits_Linear_5,2,5,63,98,1733266884
34,16,19,Jits_Linear_5,3,5,80,127,1733270248
34,16,19,Jits_Linear_5,0,5,80,127,1733736808
34,16,19,Jits_Linear_5,1,1,48,61,1733772392
34,16,19,Jits_Linear_5,2,5,63,98,1733826968
34,16,19,Jits_Linear_5,3,5,56,103,1733837312
34,16,19,Jits_Linear_5,0,5,56,103,1734267360
34,16,19,Jits_Linear_5,1,5,63,98,1734270380
34,16,19,Jits_Linear_5,2,5,80,127,1734273580
34,16,19,Jits_Linear_5,3,1,48,71,1734319440
34,16,19,Jits_Linear_5,0,1,48,67,1734791460
34,16,19,Jits_Linear_5,1,5,80,127,1734817040
34,16,19,Jits_Linear_5,2,5,63,98,1734867248
34,16,19,Jits_Linear_5,3,5,56,103,1734896908
34,16,19,Jits_Linear_5,0,5,56,103,1735327076
34,16,19,Jits_Linear_5,1,5,80,127,1735337272
34,16,19,Jits_Linear_5,2,1,48,73,1735342412
34,16,19,Jits_Linear_5,3,5,63,98,1735407024
34,16,19,Jits_Linear_5,0,5,56,103,1735866860
34,16,19,Jits_Linear_5,1,5,63,98,1735887172
34,16,19,Jits_Linear_5,2,1,48,58,1735891484
34,16,19,Jits_Linear_5,3,5,80,127,1735946584
34,16,19,Jits_Linear_5,0,5,80,127,1736397128
34,16,19,Jits_Linear_5,1,1,48,74,1736408940
34,16,19,Jits_Linear_5,2,5,63,98,1736466808
34,16,19,Jits_Linear_5,3,5,56,103,1736487192
34,16,19,Jits_Linear_5,0,5,80,127,1736957292
34,16,19,Jits_Linear_5,1,5,56,103,1736966592
34,16,19,Jits_Linear_5,2,1,48,76,1736975044
34,16,19,Jits_Linear_5,3,5,63,98,1736976856
34,16,19,Jits_Linear_5,0,5,80,127,1737486736
34,16,19,Jits_Linear_5,1,1,48,64,1737489104
34,16,19,Jits_Linear_5,2,5,56,103,1737507116
34,16,19,Jits_Linear_5,3,5,63,98,1737576724
34,16,19,Jits_Linear_5,0,1,48,58,1738036036
34,16,19,Jits_Linear_5,1,5,56,103,1738037748
34,16,19,Jits_Linear_5,2,5,80,127,1738067280
34,16,19,Jits_Linear_5,3,5,63,98,1738086692
34,16,19,Jits_Linear_5,0,1,48,75,1738541152
34,16,19,Jits_Linear_5,1,5,63,98,1738577368
34,16,19,Jits_Linear_5,2,5,56,103,1738637400
34,16,19,Jits_Linear_5,3,5,80,127,1738667448
34,16,19,Jits_Linear_5,0,5,63,98,1739116840
34,16,19,Jits_Linear_5,1,5,80,127,1739120428
34,16,19,Jits_Linear_5,2,1,48,78,1739131344
34,16,19,Jits_Linear_5,3,5,56,103,1739207068
34,16,19,Jits_Linear_5,0,1,48,64,1739656300
34,16,19,Jits_Linear_5,1,5,56,103,1739687484
34,16,19,Jits_Linear_5,2,5,63,98,1739717088
34,16,19,Jits_Linear_5,3,5,80,127,1739757012
34,16,19,Jits_Linear_5,0,1,48,83,1740199432
34,16,19,Jits_Linear_5,1,5,63,98,1740247484
34,16,19,Jits_Linear_5,2,5,56,103,1740287428
34,16,19,Jits_Linear_5,3,5,80,127,1740306676
34,16,19,Jits_Linear_5,0,1,48,79,1740771112
34,16,19,Jits_Linear_5,1,5,63,98,1740806364
34,16,19,Jits_Linear_5,2,5,56,103,1740846528
34,16,19,Jits_Linear_5,3,5,80,127,1740856800
34,16,19,Jits_Linear_5,0,5,80,127,1741336932
34,16,19,Jits_Linear_5,1,1,48,95,1741340420
34,16,19,Jits_Linear_5,2,5,63,98,1741406536
34,16,19,Jits_Linear_5,3,5,56,103,1741426920
34,16,19,Jits_Linear_5,0,5,56,103,1741886904
34,16,19,Jits_Linear_5,1,5,80,127,1741907288
34,16,19,Jits_Linear_5,2,1,48,74,1741922016
34,16,19,Jits_Linear_5,3,5,63,98,1741947444
34,16,19,Jits_Linear_5,0,1,48,85,1742448076
34,16,19,Jits_Linear_5,1,5,63,98,1742457316
34,16,19,Jits_Linear_5,2,5,80,127,1742476608
34,16,19,Jits_Linear_5,3,5,56,103,1742516548
34,16,19,Jits_Linear_5,0,1,48,60,1742994452
34,16,19,Jits_Linear_5,1,5,63,98,1743017264
34,16,19,Jits_Linear_5,2,5,56,103,1743036752
34,16,19,Jits_Linear_5,3,5,80,127,1743047024
34,16,19,Jits_Linear_5,0,1,48,81,1743525616
34,16,19,Jits_Linear_5,1,1,38,19,1743534960
34,16,19,Jits_Linear_5,2,5,80,127,1743576492
34,16,19,Jits_Linear_5,3,5,56,103,1743596804
34,16,19,Jits_Linear_5,4,5,63,98,1743626616
34,16,19,Jits_Linear_5,0,1,48,83,1744102644
34,16,19,Jits_Linear_5,1,5,56,103,1744216400
34,16,19,Jits_Linear_5,2,5,80,127,1744219540
34,16,19,Jits_Linear_5,3,5,63,98,1744236784
34,16,19,Jits_Linear_5,0,1,48,75,1744695016
34,16,19,Jits_Linear_5,1,5,63,98,1744706876
34,16,19,Jits_Linear_5,2,5,56,103,1744736556
34,16,19,Jits_Linear_5,3,5,80,127,1744797328
34,16,19,Jits_Linear_5,0,1,48,96,1745247744
34,16,19,Jits_Linear_5,1,5,63,98,1745357320
34,16,19,Jits_Linear_5,2,5,56,103,1745367368
34,16,19,Jits_Linear_5,3,5,80,127,1745376516
34,16,19,Jits_Linear_5,0,5,56,103,1745877408
34,16,19,Jits_Linear_5,1,5,80,127,1745907160
34,16,19,Jits_Linear_5,2,5,63,98,1745917284
34,16,19,Jits_Linear_5,3,1,48,71,1745925136
34,16,19,Jits_Linear_5,4,1,38,17,1745935148
34,16,19,Jits_Linear_5,0,1,48,88,1746481168
34,16,19,Jits_Linear_5,1,5,63,98,1746486668
34,16,19,Jits_Linear_5,2,5,56,103,1746497012
34,16,19,Jits_Linear_5,3,5,80,127,1746517252
34,16,19,Jits_Linear_5,0,5,56,103,1746987264
34,16,19,Jits_Linear_5,1,5,63,98,1747046832
34,16,19,Jits_Linear_5,2,5,80,127,1747050268
34,16,19,Jits_Linear_5,3,1,48,62,1747056924
34,16,19,Jits_Linear_5,0,5,80,127,1747586296
34,16,19,Jits_Linear_5,1,5,56,103,1747596516
34,16,19,Jits_Linear_5,2,1,48,90,1747618440
34,16,19,Jits_Linear_5,3,5,63,98,1747667240
34,16,19,Jits_Linear_5,0,5,80,127,1748156744
34,16,19,Jits_Linear_5,1,1,48,57,1748181956
34,16,19,Jits_Linear_5,2,5,56,103,1748226348
34,16,19,Jits_Linear_5,3,5,63,98,1748236620
34,16,19,Jits_Linear_5,0,1,48,89,1748754572
34,16,19,Jits_Linear_5,1,5,63,98,1748777292
34,16,19,Jits_Linear_5,2,5,56,103,1748786664
34,16,19,Jits_Linear_5,3,5,80,127,1748806972
34,16,19,Jits_Linear_5,0,5,80,127,1749306876
34,16,19,Jits_Linear_5,1,1,48,61,1749324744
34,16,19,Jits_Linear_5,2,5,63,98,1749367116
34,16,19,Jits_Linear_5,3,5,56,103,1749407080
34,16,19,Jits_Linear_5,0,1,48,76,1749908388
34,16,19,Jits_Linear_5,1,5,56,103,1749936440
34,16,19,Jits_Linear_5,2,5,63,98,1749946860
34,16,19,Jits_Linear_5,3,5,80,127,1749986576
34,16,19,Jits_Linear_5,0,5,56,103,1750487452
34,16,19,Jits_Linear_5,1,1,48,86,1750489972
34,16,19,Jits_Linear_5,2,5,80,127,1750517124
34,16,19,Jits_Linear_5,3,5,63,98,1750567252
34,16,19,Jits_Linear_5,0,1,48,81,1751068864
34,16,19,Jits_Linear_5,1,5,56,103,1751117288
34,16,19,Jits_Linear_5,2,5,63,98,1751157080
34,16,19,Jits_Linear_5,3,5,80,127,1751160368
34,16,19,Jits_Linear_5,0,1,48,90,1751665344
34,16,19,Jits_Linear_5,1,1,38,20,1751675440
34,16,19,Jits_Linear_5,2,5,56,103,1751707028
34,16,19,Jits_Linear_5,3,5,63,98,1751717152
34,16,19,Jits_Linear_5,4,5,80,127,1751736936
34,16,19,Jits_Linear_5,0,5,56,103,1752256884
34,16,19,Jits_Linear_5,1,5,80,127,1752259952
34,16,19,Jits_Linear_5,2,1,48,101,1752268248
34,16,19,Jits_Linear_5,3,5,63,98,1752296744
34,16,19,Jits_Linear_5,0,1,48,86,1752838292
34,16,19,Jits_Linear_5,1,5,63,98,1752886572
34,16,19,Jits_Linear_5,2,5,56,103,1752917444
34,16,19,Jits_Linear_5,3,5,80,127,1752936932
34,16,19,Jits_Linear_5,0,1,48,74,1753435240
34,16,19,Jits_Linear_5,1,1,38,18,1753444660
34,16,19,Jits_Linear_5,2,5,80,127,1753457112
34,16,19,Jits_Linear_5,3,5,56,103,1753467236
34,16,19,Jits_Linear_5,4,5,63,98,1753476384
34,16,19,Jits_Linear_5,0,1,48,88,1754009656
34,16,19,Jits_Linear_5,1,5,56,103,1754057036
34,16,19,Jits_Linear_5,2,5,80,127,1754096900
34,16,19,Jits_Linear_5,3,5,63,98,1754126784
34,16,19,Jits_Linear_5,0,1,48,81,1754646224
34,16,19,Jits_Linear_5,1,5,63,98,1754667376
34,16,19,Jits_Linear_5,2,5,80,127,1754676896
34,16,19,Jits_Linear_5,3,5,56,103,1754686872
34,16,19,Jits_Linear_5,0,5,56,103,1755247004
34,16,19,Jits_Linear_5,1,1,48,88,1755257472
34,16,19,Jits_Linear_5,2,5,63,98,1755316708
34,16,19,Jits_Linear_5,3,5,80,127,1755326832
34,16,19,Jits_Linear_5,0,5,80,127,1755857240
34,16,19,Jits_Linear_5,1,5,56,103,1755866688
34,16,19,Jits_Linear_5,2,1,48,71,1755887044
34,16,19,Jits_Linear_5,3,5,63,98,1755916808
34,16,19,Jits_Linear_5,0,5,80,127,1756476816
34,16,19,Jits_Linear_5,1,1,48,79,1756501584
34,16,19,Jits_Linear_5,2,5,56,103,1756537128
34,16,19,Jits_Linear_5,3,5,63,98,1756566832
34,16,19,Jits_Linear_5,0,1,48,68,1757085220
34,16,19,Jits_Linear_5,1,5,56,103,1757087036
34,16,19,Jits_Linear_5,2,5,80,127,1757090036
34,16,19,Jits_Linear_5,3,1,38,17,1757095416
34,16,19,Jits_Linear_5,4,5,63,98,1757126976
34,16,19,Jits_Linear_5,0,1,48,88,1757651080
34,16,19,Jits_Linear_5,1,5,56,103,1757727232
34,16,19,Jits_Linear_5,2,5,63,98,1757756820
34,16,19,Jits_Linear_5,3,5,80,127,1757767164
34,16,19,Jits_Linear_5,0,1,48,77,1758303528
34,16,19,Jits_Linear_5,1,1,38,19,1758313476
34,16,19,Jits_Linear_5,2,5,63,98,1758346728
34,16,19,Jits_Linear_5,3,5,80,127,1758356848
34,16,19,Jits_Linear_5,4,5,56,103,1758366968
34,16,19,Jits_Linear_5,0,5,80,127,1758906704
34,16,19,Jits_Linear_5,1,1,48,75,1758921808
34,16,19,Jits_Linear_5,2,5,56,103,1758956820
34,16,19,Jits_Linear_5,3,5,63,98,1758960040
34,16,19,Jits_Linear_5,0,1,48,78,1759521356
34,16,19,Jits_Linear_5,1,5,56,103,1759557056
34,16,19,Jits_Linear_5,2,5,80,127,1759576616
34,16,19,Jits_Linear_5,3,5,63,98,1759586812
34,16,19,Jits_Linear_5,0,5,63,98,1760156944
34,16,19,Jits_Linear_5,1,1,48,74,1760158956
34,16,19,Jits_Linear_5,2,1,38,18,1760169200
34,16,19,Jits_Linear_5,3,5,56,103,1760186684
34,16,19,Jits_Linear_5,4,5,80,127,1760207216
34,16,19,Jits_Linear_5,0,1,48,66,1760782864
34,16,19,Jits_Linear_5,1,5,56,103,1760786796
34,16,19,Jits_Linear_5,2,1,38,18,1760793656
34,16,19,Jits_Linear_5,3,5,80,127,1760796984
34,16,19,Jits_Linear_5,4,5,63,98,1760866664
34,16,19,Jits_Linear_5,0,5,63,98,1761397032
34,16,19,Jits_Linear_5,1,5,80,127,1761437144
34,16,19,Jits_Linear_5,2,5,56,103,1761477084
34,16,19,Jits_Linear_5,3,1,48,86,1761478052
34,16,19,Jits_Linear_5,4,1,38,20,1761487840
34,16,19,Jits_Linear_5,0,5,56,103,1762036960
34,16,19,Jits_Linear_5,1,1,48,94,1762047084
34,16,19,Jits_Linear_5,2,5,63,98,1762048792
34,16,19,Jits_Linear_5,3,1,38,21,1762057316
34,16,19,Jits_Linear_5,4,5,80,127,1762066856
34,16,19,Jits_Linear_5,0,1,48,85,1762623256
34,16,19,Jits_Linear_5,1,1,38,19,1762633724
34,16,19,Jits_Linear_5,2,5,63,98,1762706840
34,16,19,Jits_Linear_5,3,5,80,127,1762727360
34,16,19,Jits_Linear_5,4,5,56,103,1762746608
34,16,19,Jits_Linear_5,0,5,56,103,1763277312
34,16,19,Jits_Linear_5,1,1,48,74,1763280356
34,16,19,Jits_Linear_5,2,5,80,127,1763357108
34,16,19,Jits_Linear_5,3,5,63,98,1763367304
34,16,19,Jits_Linear_5,0,5,80,127,1763946720
34,16,19,Jits_Linear_5,1,5,63,98,1763957212
34,16,19,Jits_Linear_5,2,1,48,57,1763983272
34,16,19,Jits_Linear_5,3,5,56,103,1763986980
34,16,19,Jits_Linear_5,0,5,63,98,1764536572
34,16,19,Jits_Linear_5,1,5,80,127,1764576516
34,16,19,Jits_Linear_5,2,1,48,84,1764586904
34,16,19,Jits_Linear_5,3,5,56,103,1764636972
34,16,19,Jits_Linear_5,0,1,48,69,1765148232
34,16,19,Jits_Linear_5,1,5,63,98,1765176804
34,16,19,Jits_Linear_5,2,5,56,103,1765227156
34,16,19,Jits_Linear_5,3,5,80,127,1765256696
34,16,19,Jits_Linear_5,0,1,48,63,1765778228
34,16,19,Jits_Linear_5,1,1,38,16,1765788176
34,16,19,Jits_Linear_5,2,5,80,127,1765827016
34,16,19,Jits_Linear_5,3,5,63,98,1765837284
34,16,19,Jits_Linear_5,4,5,56,103,1765906924
34,16,19,Jits_Linear_5,0,1,48,63,1766471456
34,16,19,Jits_Linear_5,1,5,80,127,1766536628
34,16,19,Jits_Linear_5,2,5,56,103,1766546972
34,16,19,Jits_Linear_5,3,5,63,98,1766550112
34,16,19,Jits_Linear_5,0,5,56,103,1767117304
34,16,19,Jits_Linear_5,1,5,80,127,1767136572
34,16,19,Jits_Linear_5,2,5,63,98,1767147064
34,16,19,Jits_Linear_5,3,1,48,79,1767166224
34,16,19,Jits_Linear_5,0,5,63,98,1767767448
34,16,19,Jits_Linear_5,1,1,48,86,1767773856
34,16,19,Jits_Linear_5,2,1,38,19,1767783800
34,16,19,Jits_Linear_5,3,5,56,103,1767807288
34,16,19,Jits_Linear_5,4,5,80,127,1767826800
34,16,19,Jits_Linear_5,0,1,48,93,1768381024
34,16,19,Jits_Linear_5,1,5,63,98,1768416500
34,16,19,Jits_Linear_5,2,5,56,103,1768477248
34,16,19,Jits_Linear_5,3,5,80,127,1768480236
34,16,19,Jits_Linear_5,0,5,56,103,1769027068
34,16,19,Jits_Linear_5,1,1,48,67,1769037456
34,16,19,Jits_Linear_5,2,5,80,127,1769047520
34,16,19,Jits_Linear_5,3,5,63,98,1769087312
34,16,19,Jits_Linear_5,0,5,56,103,1769706904
34,16,19,Jits_Linear_5,1,5,63,98,1769727288
34,16,19,Jits_Linear_5,2,1,48,57,1769733096
34,16,19,Jits_Linear_5,3,5,80,127,1769736580
34,16,19,Jits_Linear_5,0,5,80,127,1770327372
34,16,19,Jits_Linear_5,1,1,48,80,1770353412
34,16,19,Jits_Linear_5,2,5,56,103,1770357116
34,16,19,Jits_Linear_5,3,1,38,20,1770363600
34,16,19,Jits_Linear_5,4,5,63,98,1770397148
34,16,19,Jits_Linear_5,0,5,80,127,1770987088
34,16,19,Jits_Linear_5,1,1,48,95,1770992224
34,16,19,Jits_Linear_5,2,5,56,103,1771007392
34,16,19,Jits_Linear_5,3,5,63,98,1771066812
34,16,19,Jits_Linear_5,0,5,56,103,1771647420
34,16,19,Jits_Linear_5,1,5,80,127,1771667008
34,16,19,Jits_Linear_5,2,1,48,95,1771684428
34,16,19,Jits_Linear_5,3,5,63,98,1771727244
34,16,19,Jits_Linear_5,0,5,80,127,1772287324
34,16,19,Jits_Linear_5,1,1,48,90,1772296400
34,16,19,Jits_Linear_5,2,5,56,103,1772298108
34,16,19,Jits_Linear_5,3,5,63,98,1772336408
34,16,19,Jits_Linear_5,0,5,63,98,1772947004
34,16,19,Jits_Linear_5,1,1,48,79,1772949896
34,16,19,Jits_Linear_5,2,1,38,18,1772959468
34,16,19,Jits_Linear_5,3,5,56,103,1772986916
34,16,19,Jits_Linear_5,4,5,80,127,1772990056
34,16,19,Jits_Linear_5,0,1,48,100,1773594700
34,16,19,Jits_Linear_5,1,1,38,21,1773604644
34,16,19,Jits_Linear_5,2,5,63,98,1773627156
34,16,19,Jits_Linear_5,3,5,80,127,1773666876
34,16,19,Jits_Linear_5,4,5,56,103,1773697284
34,16,19,Jits_Linear_5,0,5,56,103,1774277100
34,16,19,Jits_Linear_5,1,5,63,98,1774287220
34,16,19,Jits_Linear_5,2,1,48,69,1774311912
34,16,19,Jits_Linear_5,3,5,80,127,1774316892
34,16,19,Jits_Linear_5,4,1,38,18,1774322176
34,16,19,Jits_Linear_5,0,5,80,127,1774936416
34,16,19,Jits_Linear_5,1,1,48,74,1774939980
34,16,19,Jits_Linear_5,2,1,38,18,1774950076
34,16,19,Jits_Linear_5,3,5,63,98,1775007072
34,16,19,Jits_Linear_5,4,5,56,103,1775017268
34,16,19,Jits_Linear_5,0,5,63,98,1775607284
34,16,19,Jits_Linear_5,1,1,48,86,1775654672
34,16,19,Jits_Linear_5,2,5,56,103,1775676888
34,16,19,Jits_Linear_5,3,5,80,127,1775687308
34,16,19,Jits_Linear_5,0,1,48,76,1776267800
34,16,19,Jits_Linear_5,1,5,63,98,1776276964
34,16,19,Jits_Linear_5,2,5,56,103,1776297352
34,16,19,Jits_Linear_5,3,5,80,127,1776337288
34,16,19,Jits_Linear_5,0,1,48,46,1776914088
34,16,19,Jits_Linear_5,1,5,56,103,1776956760
34,16,19,Jits_Linear_5,2,5,63,98,1776967108
34,16,19,Jits_Linear_5,3,5,80,127,1777046840
34,16,19,Jits_Linear_5,0,1,48,61,1777615816
34,16,19,Jits_Linear_5,1,5,63,98,1777617620
34,16,19,Jits_Linear_5,2,5,56,103,1777647076
34,16,19,Jits_Linear_5,3,5,80,127,1777687016
34,16,19,Jits_Linear_5,0,1,48,79,1778284968
34,16,19,Jits_Linear_5,1,5,56,103,1778286932
34,16,19,Jits_Linear_5,2,5,63,98,1778326824
34,16,19,Jits_Linear_5,3,5,80,127,1778366764
34,16,19,Jits_Linear_5,0,1,48,79,1778949420
34,16,19,Jits_Linear_5,1,5,80,127,1778966828
34,16,19,Jits_Linear_5,2,5,56,103,1779046764
34,16,19,Jits_Linear_5,3,5,63,98,1779056960
34,16,19,Jits_Linear_5,0,1,48,81,1779676228
34,16,19,Jits_Linear_5,1,5,56,103,1779686656
34,16,19,Jits_Linear_5,2,5,63,98,1779689952
34,16,19,Jits_Linear_5,3,5,80,127,1779697080
34,16,19,Jits_Linear_5,0,1,48,81,1780383448
34,16,19,Jits_Linear_5,1,5,56,103,1780387600
34,16,19,Jits_Linear_5,2,5,63,98,1780406568
34,16,19,Jits_Linear_5,3,5,80,127,1780416912
34,16,19,Jits_Linear_5,0,5,63,98,1781027176
34,16,19,Jits_Linear_5,1,5,80,127,1781037520
34,16,19,Jits_Linear_5,2,5,56,103,1781056860
34,16,19,Jits_Linear_5,3,1,48,75,1781081772
34,16,19,Jits_Linear_5,0,1,48,89,1781698348
34,16,19,Jits_Linear_5,1,5,63,98,1781717480
34,16,19,Jits_Linear_5,2,5,56,103,1781797264
34,16,19,Jits_Linear_5,3,5,80,127,1781800404
34,16,19,Jits_Linear_5,0,1,48,84,1782402484
34,16,19,Jits_Linear_5,1,5,63,98,1782406664
34,16,19,Jits_Linear_5,2,5,56,103,1782426976
34,16,19,Jits_Linear_5,3,5,80,127,1782456724
34,16,19,Jits_Linear_5,0,5,56,103,1783096732
34,16,19,Jits_Linear_5,1,1,48,69,1783100676
34,16,19,Jits_Linear_5,2,5,63,98,1783117184
34,16,19,Jits_Linear_5,3,5,80,127,1783127680
34,16,19,Jits_Linear_5,0,1,48,87,1783784236
34,16,19,Jits_Linear_5,1,5,56,103,1783816496
34,16,19,Jits_Linear_5,2,5,63,98,1783847440
34,16,19,Jits_Linear_5,3,5,80,127,1783850652
34,16,19,Jits_Linear_5,0,5,56,103,1784456532
34,16,19,Jits_Linear_5,1,1,48,63,1784472528
34,16,19,Jits_Linear_5,2,5,63,98,1784496392
34,16,19,Jits_Linear_5,3,5,80,127,1784557008
34,16,19,Jits_Linear_5,0,1,48,64,1785153384
34,16,19,Jits_Linear_5,1,5,56,103,1785167204
34,16,19,Jits_Linear_5,2,5,63,98,1785176508
34,16,19,Jits_Linear_5,3,5,80,127,1785237072
34,16,19,Jits_Linear_5,0,1,48,72,1785811480
34,16,19,Jits_Linear_5,1,5,56,103,1785866512
34,16,19,Jits_Linear_5,2,5,80,127,1785887192
34,16,19,Jits_Linear_5,3,5,63,98,1785916780
34,16,19,Jits_Linear_5,0,1,48,71,1786539852
34,16,19,Jits_Linear_5,1,5,80,127,1786566932
34,16,19,Jits_Linear_5,2,5,56,103,1786577280
34,16,19,Jits_Linear_5,3,5,63,98,1786596840
34,16,19,Jits_Linear_5,0,1,48,68,1787247372
34,16,19,Jits_Linear_5,1,5,63,98,1787257436
34,16,19,Jits_Linear_5,2,5,80,127,1787337188
34,16,19,Jits_Linear_5,3,5,56,103,1787347444
34,16,19,Jits_Linear_5,0,1,48,65,1788010660
34,16,19,Jits_Linear_5,1,5,80,127,1788017208
34,16,19,Jits_Linear_5,2,5,56,103,1788036420
34,16,19,Jits_Linear_5,3,5,63,98,1788039488
34,16,19,Jits_Linear_5,0,5,63,98,1788696956
34,16,19,Jits_Linear_5,1,5,80,127,1788700244
34,16,19,Jits_Linear_5,2,1,48,68,1788757200
34,16,19,Jits_Linear_5,3,5,56,103,1788758684
34,16,19,Jits_Linear_5,0,5,56,103,1789387328
34,16,19,Jits_Linear_5,1,5,80,127,1789397300
34,16,19,Jits_Linear_5,2,1,48,61,1789415712
34,16,19,Jits_Linear_5,3,5,63,98,1789437380
34,16,19,Jits_Linear_5,0,5,56,103,1790077180
34,16,19,Jits_Linear_5,1,1,48,57,1790100852
34,16,19,Jits_Linear_5,2,5,63,98,1790136844
34,16,19,Jits_Linear_5,3,5,80,127,1790147116
34,16,19,Jits_Linear_5,0,1,48,70,1790774204
34,16,19,Jits_Linear_5,1,5,63,98,1790797320
34,16,19,Jits_Linear_5,2,5,80,127,1790837184
34,16,19,Jits_Linear_5,3,5,56,103,1790877136
34,16,19,Jits_Linear_5,0,5,56,103,1791506820
34,16,19,Jits_Linear_5,1,1,48,77,1791537292
34,16,19,Jits_Linear_5,2,5,63,98,1791586612
34,16,19,Jits_Linear_5,3,5,80,127,1791589976
34,16,19,Jits_Linear_5,0,1,48,79,1792233140
34,16,19,Jits_Linear_5,1,1,38,18,1792243012
34,16,19,Jits_Linear_5,2,5,80,127,1792277060
34,16,19,Jits_Linear_5,3,5,56,103,1792306512
34,16,19,Jits_Linear_5,4,5,63,98,1792309728
34,16,19,Jits_Linear_5,0,1,48,70,1792954580
34,16,19,Jits_Linear_5,1,5,56,103,1792956692
34,16,19,Jits_Linear_5,2,5,80,127,1792977304
34,16,19,Jits_Linear_5,3,5,63,98,1793017316
34,16,19,Jits_Linear_5,0,1,48,89,1793654356
34,16,19,Jits_Linear_5,1,5,80,127,1793657316
34,16,19,Jits_Linear_5,2,1,38,19,1793665092
34,16,19,Jits_Linear_5,3,5,63,98,1793676596
34,16,19,Jits_Linear_5,4,5,56,103,1793737064
34,16,19,Jits_Linear_5,0,5,63,98,1794387376
34,16,19,Jits_Linear_5,1,5,56,103,1794396452
34,16,19,Jits_Linear_5,2,1,48,107,1794399116
34,16,19,Jits_Linear_5,3,5,80,127,1794446672
34,16,19,Jits_Linear_5,0,1,48,102,1795090096
34,16,19,Jits_Linear_5,1,5,56,103,1795097092
34,16,19,Jits_Linear_5,2,5,63,98,1795117480
34,16,19,Jits_Linear_5,3,5,80,127,1795126928
34,16,19,Jits_Linear_5,0,1,48,91,1795810624
34,16,19,Jits_Linear_5,1,5,56,103,1795817092
34,16,19,Jits_Linear_5,2,5,63,98,1795819936
34,16,19,Jits_Linear_5,3,5,80,127,1795837252
34,16,19,Jits_Linear_5,0,1,48,86,1796527512
34,16,19,Jits_Linear_5,1,1,38,19,1796537460
34,16,19,Jits_Linear_5,2,5,63,98,1796586932
34,16,19,Jits_Linear_5,3,5,56,103,1796616536
34,16,19,Jits_Linear_5,4,5,80,127,1796647216
34,16,19,Jits_Linear_5,0,1,48,115,1797258224
34,16,19,Jits_Linear_5,1,5,80,127,1797277060
34,16,19,Jits_Linear_5,2,5,56,103,1797367108
34,16,19,Jits_Linear_5,3,5,63,98,1797370024
34,16,19,Jits_Linear_5,0,5,56,103,1798007080
34,16,19,Jits_Linear_5,1,5,80,127,1798009996
34,16,19,Jits_Linear_5,2,1,48,90,1798067688
34,16,19,Jits_Linear_5,3,5,63,98,1798087044
34,16,19,Jits_Linear_5,0,5,80,127,1798737252
34,16,19,Jits_Linear_5,1,1,48,109,1798756108
34,16,19,Jits_Linear_5,2,5,63,98,1798796764
34,16,19,Jits_Linear_5,3,5,56,103,1798827340
34,16,19,Jits_Linear_5,0,5,63,98,1799467520
34,16,19,Jits_Linear_5,1,5,80,127,1799476668
34,16,19,Jits_Linear_5,2,5,56,103,1799547324
34,16,19,Jits_Linear_5,3,1,48,109,1799548216
34,16,19,Jits_Linear_5,0,5,56,103,1800217028
34,16,19,Jits_Linear_5,1,5,80,127,1800246852
34,16,19,Jits_Linear_5,2,1,48,99,1800268552
34,16,19,Jits_Linear_5,3,5,63,98,1800296676
34,16,19,Jits_Linear_5,0,1,48,82,1800942000
34,16,19,Jits_Linear_5,1,5,63,98,1800997180
34,16,19,Jits_Linear_5,2,5,56,103,1801026856
34,16,19,Jits_Linear_5,3,5,80,127,1801029848
34,16,19,Jits_Linear_5,0,1,48,112,1801664760
34,16,19,Jits_Linear_5,1,5,63,98,1801736704
34,16,19,Jits_Linear_5,2,5,80,127,1801757016
34,16,19,Jits_Linear_5,3,5,56,103,1801767200
34,16,19,Jits_Linear_5,0,1,48,101,1802432464
34,16,19,Jits_Linear_5,1,5,56,103,1802487040
34,16,19,Jits_Linear_5,2,5,63,98,1802490260
34,16,19,Jits_Linear_5,3,5,80,127,1802506684
34,16,19,Jits_Linear_5,0,1,48,72,1803185692
34,16,19,Jits_Linear_5,1,5,56,103,1803187636
34,16,19,Jits_Linear_5,2,1,38,19,1803195432
34,16,19,Jits_Linear_5,3,5,63,98,1803197976
34,16,19,Jits_Linear_5,4,5,80,127,1803226532
34,16,19,Jits_Linear_5,0,1,48,105,1803887588
34,16,19,Jits_Linear_5,1,1,38,21,1803897536
34,16,19,Jits_Linear_5,2,5,63,98,1803956704
34,16,19,Jits_Linear_5,3,5,80,127,1803976940
34,16,19,Jits_Linear_5,4,5,56,103,1804016912
34,16,19,Jits_Linear_5,0,1,48,94,1804685868
34,16,19,Jits_Linear_5,1,1,38,21,1804695964
34,16,19,Jits_Linear_5,2,5,56,103,1804736820
34,16,19,Jits_Linear_5,3,5,63,98,1804776756
34,16,19,Jits_Linear_5,4,5,80,127,1804780120
34,16,19,Jits_Linear_5,0,5,80,127,1805427004
34,16,19,Jits_Linear_5,1,5,56,103,1805466972
34,16,19,Jits_Linear_5,2,1,48,83,1805510844
34,16,19,Jits_Linear_5,3,5,63,98,1805517392
34,16,19,Jits_Linear_5,0,1,48,56,1806236632
34,16,19,Jits_Linear_5,1,5,56,103,1806238348
34,16,19,Jits_Linear_5,2,5,80,127,1806247496
34,16,19,Jits_Linear_5,3,5,63,98,1806277100
34,16,19,Jits_Linear_5,0,5,56,103,1806936364
34,16,19,Jits_Linear_5,1,1,48,59,1806945780
34,16,19,Jits_Linear_5,2,5,80,127,1806977592
34,16,19,Jits_Linear_5,3,5,63,98,1807026600
34,16,19,Jits_Linear_5,0,5,56,103,1807697412
34,16,19,Jits_Linear_5,1,1,48,78,1807706832
34,16,19,Jits_Linear_5,2,5,80,127,1807737348
34,16,19,Jits_Linear_5,3,5,63,98,1807787352
34,16,19,Jits_Linear_5,0,5,80,127,1808446852
34,16,19,Jits_Linear_5,1,1,48,86,1808474928
34,16,19,Jits_Linear_5,2,5,63,98,1808526672
34,16,19,Jits_Linear_5,3,5,56,103,1808537240
34,16,19,Jits_Linear_5,0,1,48,89,1809237096
34,16,19,Jits_Linear_5,1,5,80,127,1809256824
34,16,19,Jits_Linear_5,2,5,56,103,1809267244
34,16,19,Jits_Linear_5,3,5,63,98,1809286456
34,16,19,Jits_Linear_5,0,1,48,84,1809973320
34,16,19,Jits_Linear_5,1,5,63,98,1809986988
34,16,19,Jits_Linear_5,2,5,56,103,1810056548
34,16,19,Jits_Linear_5,3,5,80,127,1810059688
34,16,19,Jits_Linear_5,0,5,80,127,1810746676
34,16,19,Jits_Linear_5,1,1,48,80,1810777448
34,16,19,Jits_Linear_5,2,5,63,98,1810797096
34,16,19,Jits_Linear_5,3,5,56,103,1810837060
34,16,19,Jits_Linear_5,0,1,48,85,1811528752
34,16,19,Jits_Linear_5,1,5,63,98,1811556652
34,16,19,Jits_Linear_5,2,5,56,103,1811596540
34,16,19,Jits_Linear_5,3,5,80,127,1811607184
34,16,19,Jits_Linear_5,0,1,48,70,1812256748
34,16,19,Jits_Linear_5,1,5,63,98,1812316488
34,16,19,Jits_Linear_5,2,5,56,103,1812337248
34,16,19,Jits_Linear_5,3,5,80,127,1812356448
34,16,19,Jits_Linear_5,0,1,48,88,1813045684
34,16,19,Jits_Linear_5,1,5,80,127,1813047404
34,16,19,Jits_Linear_5,2,5,56,103,1813057000
34,16,19,Jits_Linear_5,3,5,63,98,1813077312
34,16,19,Jits_Linear_5,0,1,48,77,1813820164
34,16,19,Jits_Linear_5,1,5,63,98,1813847544
34,16,19,Jits_Linear_5,2,5,56,103,1813887484
34,16,19,Jits_Linear_5,3,5,80,127,1813917244
34,16,19,Jits_Linear_5,0,5,56,103,1814626576
34,16,19,Jits_Linear_5,1,1,48,86,1814629472
34,16,19,Jits_Linear_5,2,5,63,98,1814657468
34,16,19,Jits_Linear_5,3,5,80,127,1814686992
34,16,19,Jits_Linear_5,0,5,80,127,1815377208
34,16,19,Jits_Linear_5,1,1,48,66,1815429948
34,16,19,Jits_Linear_5,2,5,56,103,1815447060
34,16,19,Jits_Linear_5,3,5,63,98,1815450052
34,16,19,Jits_Linear_5,0,5,56,103,1816166868
34,16,19,Jits_Linear_5,1,1,48,76,1816195944
34,16,19,Jits_Linear_5,2,5,63,98,1816217020
34,16,19,Jits_Linear_5,3,5,80,127,1816246768
34,16,19,Jits_Linear_5,0,5,63,98,1816926716
34,16,19,Jits_Linear_5,1,1,48,99,1816927776
34,16,19,Jits_Linear_5,2,5,80,127,1816931424
34,16,19,Jits_Linear_5,3,5,56,103,1816987200
34,16,19,Jits_Linear_5,0,1,48,82,1817736992
34,16,19,Jits_Linear_5,1,5,56,103,1817738408
34,16,19,Jits_Linear_5,2,5,80,127,1817746884
34,16,19,Jits_Linear_5,3,5,63,98,1817796936
34,16,19,Jits_Linear_5,0,5,63,98,1818497352
34,16,19,Jits_Linear_5,1,5,56,103,1818506724
34,16,19,Jits_Linear_5,2,5,80,127,1818537300
34,16,19,Jits_Linear_5,3,1,48,83,1818567696
34,16,19,Jits_Linear_5,0,1,48,91,1819298060
34,16,19,Jits_Linear_5,1,5,63,98,1819316664
34,16,19,Jits_Linear_5,2,5,80,127,1819319952
34,16,19,Jits_Linear_5,3,5,56,103,1819347312
34,16,19,Jits_Linear_5,0,1,48,87,1820028936
34,16,19,Jits_Linear_5,1,1,38,19,1820039220
34,16,19,Jits_Linear_5,2,5,63,98,1820126816
34,16,19,Jits_Linear_5,3,5,56,103,1820147040
34,16,19,Jits_Linear_5,4,5,80,127,1820150180
34,16,19,Jits_Linear_5,0,1,48,77,1820854480
34,16,19,Jits_Linear_5,1,5,63,98,1820877272
34,16,19,Jits_Linear_5,2,5,56,103,1820947020
34,16,19,Jits_Linear_5,3,5,80,127,1820967256
34,16,19,Jits_Linear_5,0,5,56,103,1821656368
34,16,19,Jits_Linear_5,1,5,63,98,1821666788
34,16,19,Jits_Linear_5,2,1,48,90,1821679800
34,16,19,Jits_Linear_5,3,5,80,127,1821756844
34,16,19,Jits_Linear_5,0,1,48,88,1822448100
34,16,19,Jits_Linear_5,1,5,56,103,1822466560
34,16,19,Jits_Linear_5,2,5,80,127,1822507324
34,16,19,Jits_Linear_5,3,5,63,98,1822516696
34,16,19,Jits_Linear_5,0,1,48,99,1823231380
34,16,19,Jits_Linear_5,1,5,56,103,1823286784
34,16,19,Jits_Linear_5,2,5,63,98,1823317508
34,16,19,Jits_Linear_5,3,5,80,127,1823347020
34,16,19,Jits_Linear_5,0,5,80,127,1824046480
34,16,19,Jits_Linear_5,1,1,48,80,1824049072
34,16,19,Jits_Linear_5,2,5,63,98,1824087684
34,16,19,Jits_Linear_5,3,5,56,103,1824106724
34,16,19,Jits_Linear_5,0,1,48,83,1824849144
34,16,19,Jits_Linear_5,1,5,56,103,1824887084
34,16,19,Jits_Linear_5,2,5,80,127,1824906744
34,16,19,Jits_Linear_5,3,5,63,98,1824927204
34,16,19,Jits_Linear_5,0,5,63,98,1825657488
34,16,19,Jits_Linear_5,1,5,56,103,1825666440
34,16,19,Jits_Linear_5,2,1,48,67,1825668376
34,16,19,Jits_Linear_5,3,5,80,127,1825726824
34,16,19,Jits_Linear_5,0,1,48,86,1826381244
34,16,19,Jits_Linear_5,1,5,56,103,1826467388
34,16,19,Jits_Linear_5,2,5,63,98,1826536764
34,16,19,Jits_Linear_5,3,5,80,127,1826557444
34,16,19,Jits_Linear_5,0,1,48,80,1827240904
34,16,19,Jits_Linear_5,1,5,56,103,1827277352
34,16,19,Jits_Linear_5,2,5,63,98,1827306804
34,16,19,Jits_Linear_5,3,5,80,127,1827346880
34,16,19,Jits_Linear_5,0,1,48,70,1828075388
34,16,19,Jits_Linear_5,1,5,63,98,1828077192
34,16,19,Jits_Linear_5,2,5,56,103,1828126952
34,16,19,Jits_Linear_5,3,5,80,127,1828137592
34,16,19,Jits_Linear_5,0,1,48,94,1828879104
34,16,19,Jits_Linear_5,1,5,56,103,1828926788
34,16,19,Jits_Linear_5,2,5,63,98,1828976976
34,16,19,Jits_Linear_5,3,5,80,127,1828987324
34,16,19,Jits_Linear_5,0,1,48,86,1829706260
34,16,19,Jits_Linear_5,1,5,56,103,1829708128
34,16,19,Jits_Linear_5,2,5,63,98,1829717576
34,16,19,Jits_Linear_5,3,5,80,127,1829797248
34,16,19,Jits_Linear_5,0,9999,9999,9999,1720964180
34,16,19,Jits_Linear_5,1,9999,9999,9999,1721444412
34,16,19,Jits_Linear_5,2,9999,9999,9999,1721924720
34,16,19,Jits_Linear_5,3,9999,9999,9999,1722404920
34,16,19,Jits_Linear_5,4,9999,9999,9999,1722884160
34,16,19,Jits_Linear_5,5,9999,9999,9999,1723374712
34,16,19,Jits_Linear_5,6,9999,9999,9999,1723864160
34,16,19,Jits_Linear_5,7,9999,9999,9999,1724354672
34,16,19,Jits_Linear_5,8,9999,9999,9999,1724844108
34,16,19,Jits_Linear_5,9,9999,9999,9999,1725334652
34,16,19,Jits_Linear_5,10,9999,9999,9999,1725834340
34,16,19,Jits_Linear_5,11,9999,9999,9999,1726335052
34,16,19,Jits_Linear_5,12,9999,9999,9999,1726834808
34,16,19,Jits_Linear_5,13,9999,9999,9999,1727334488
34,16,19,Jits_Linear_5,14,9999,9999,9999,1727834176
34,16,19,Jits_Linear_5,15,9999,9999,9999,1728344172
34,16,19,Jits_Linear_5,16,9999,9999,9999,1728854116
34,16,19,Jits_Linear_5,17,9999,9999,9999,1729365116
34,16,19,Jits_Linear_5,18,9999,9999,9999,1729875020
34,16,19,Jits_Linear_5,19,9999,9999,9999,1730384980
34,16,19,Jits_Linear_5,20,9999,9999,9999,1730904164
34,16,19,Jits_Linear_5,21,9999,9999,9999,1731424320
34,16,19,Jits_Linear_5,22,9999,9999,9999,1731944544
34,16,19,Jits_Linear_5,23,9999,9999,9999,1732464700
34,16,19,Jits_Linear_5,24,9999,9999,9999,1732984916
34,16,19,Jits_Linear_5,25,9999,9999,9999,1733514308
34,16,19,Jits_Linear_5,26,9999,9999,9999,1734044728
34,16,19,Jits_Linear_5,27,9999,9999,9999,1734574152
34,16,19,Jits_Linear_5,28,9999,9999,9999,1735104640
34,16,19,Jits_Linear_5,29,9999,9999,9999,1735635040
34,16,19,Jits_Linear_5,30,9999,9999,9999,1736174676
34,16,19,Jits_Linear_5,31,9999,9999,9999,1736714312
34,16,19,Jits_Linear_5,32,9999,9999,9999,1737254992
34,16,19,Jits_Linear_5,33,9999,9999,9999,1737794628
34,16,19,Jits_Linear_5,34,9999,9999,9999,1738334336
34,16,19,Jits_Linear_5,35,9999,9999,9999,1738884220
34,16,19,Jits_Linear_5,36,9999,9999,9999,1739435084
34,16,19,Jits_Linear_5,37,9999,9999,9999,1739994184
34,16,19,Jits_Linear_5,38,9999,9999,9999,1740544072
34,16,19,Jits_Linear_5,39,9999,9999,9999,1741095008
34,16,19,Jits_Linear_5,40,9999,9999,9999,1741654116
34,16,19,Jits_Linear_5,41,9999,9999,9999,1742214224
34,16,19,Jits_Linear_5,42,9999,9999,9999,1742774380
34,16,19,Jits_Linear_5,43,9999,9999,9999,1743334524
34,16,19,Jits_Linear_5,44,9999,9999,9999,1743894636
34,16,19,Jits_Linear_5,45,9999,9999,9999,1744464964
34,16,19,Jits_Linear_5,46,9999,9999,9999,1745034356
34,16,19,Jits_Linear_5,47,9999,9999,9999,1745604700
34,16,19,Jits_Linear_5,48,9999,9999,9999,1746175064
34,16,19,Jits_Linear_5,49,9999,9999,9999,1746744444
34,16,19,Jits_Linear_5,50,9999,9999,9999,1747325036
34,16,19,Jits_Linear_5,51,9999,9999,9999,1747904620
34,16,19,Jits_Linear_5,52,9999,9999,9999,1748484188
34,16,19,Jits_Linear_5,53,9999,9999,9999,1749064808
34,16,19,Jits_Linear_5,54,9999,9999,9999,1749644388
34,16,19,Jits_Linear_5,55,9999,9999,9999,1750234224
34,16,19,Jits_Linear_5,56,9999,9999,9999,1750825084
34,16,19,Jits_Linear_5,57,9999,9999,9999,1751414912
34,16,19,Jits_Linear_5,58,9999,9999,9999,1752004708
34,16,19,Jits_Linear_5,59,9999,9999,9999,1752594508
34,16,19,Jits_Linear_5,60,9999,9999,9999,1753194616
34,16,19,Jits_Linear_5,61,9999,9999,9999,1753794672
34,16,19,Jits_Linear_5,62,9999,9999,9999,1754394748
34,16,19,Jits_Linear_5,63,9999,9999,9999,1754994748
34,16,19,Jits_Linear_5,64,9999,9999,9999,1755594852
34,16,19,Jits_Linear_5,65,9999,9999,9999,1756204092
34,16,19,Jits_Linear_5,66,9999,9999,9999,1756814400
34,16,19,Jits_Linear_5,67,9999,9999,9999,1757424712
34,16,19,Jits_Linear_5,68,9999,9999,9999,1758035052
34,16,19,Jits_Linear_5,69,9999,9999,9999,1758644332
34,16,19,Jits_Linear_5,70,9999,9999,9999,1759264852
34,16,19,Jits_Linear_5,71,9999,9999,9999,1759884376
34,16,19,Jits_Linear_5,72,9999,9999,9999,1760504952
34,16,19,Jits_Linear_5,73,9999,9999,9999,1761124472
34,16,19,Jits_Linear_5,74,9999,9999,9999,1761744992
34,16,19,Jits_Linear_5,75,9999,9999,9999,1762374776
34,16,19,Jits_Linear_5,76,9999,9999,9999,1763004532
34,16,19,Jits_Linear_5,77,9999,9999,9999,1763634284
34,16,19,Jits_Linear_5,78,9999,9999,9999,1764265044
34,16,19,Jits_Linear_5,79,9999,9999,9999,1764894808
34,16,19,Jits_Linear_5,80,9999,9999,9999,1765534848
34,16,19,Jits_Linear_5,81,9999,9999,9999,1766174812
34,16,19,Jits_Linear_5,82,9999,9999,9999,1766814848
34,16,19,Jits_Linear_5,83,9999,9999,9999,1767454784
34,16,19,Jits_Linear_5,84,9999,9999,9999,1768094792
34,16,19,Jits_Linear_5,85,9999,9999,9999,1768745060
34,16,19,Jits_Linear_5,86,9999,9999,9999,1769394240
34,16,19,Jits_Linear_5,87,9999,9999,9999,1770044536
34,16,19,Jits_Linear_5,88,9999,9999,9999,1770694736
34,16,19,Jits_Linear_5,89,9999,9999,9999,1771345020
34,16,19,Jits_Linear_5,90,9999,9999,9999,1772004408
34,16,19,Jits_Linear_5,91,9999,9999,9999,1772664956
34,16,19,Jits_Linear_5,92,9999,9999,9999,1773324360
34,16,19,Jits_Linear_5,93,9999,9999,9999,1773984884
34,16,19,Jits_Linear_5,94,9999,9999,9999,1774644288
34,16,19,Jits_Linear_5,95,9999,9999,9999,1775315004
34,16,19,Jits_Linear_5,96,9999,9999,9999,1775984748
34,16,19,Jits_Linear_5,97,9999,9999,9999,1776654456
34,16,19,Jits_Linear_5,98,9999,9999,9999,1777324092
34,16,19,Jits_Linear_5,99,9999,9999,9999,1777994816
34,16,19,Jits_Linear_5,100,9999,9999,9999,1778674792
34,16,19,Jits_Linear_5,101,9999,9999,9999,1779354692
34,16,19,Jits_Linear_5,102,9999,9999,9999,1780034628
34,16,19,Jits_Linear_5,103,9999,9999,9999,1780714600
34,16,19,Jits_Linear_5,104,9999,9999,9999,1781394496
34,16,19,Jits_Linear_5,105,9999,9999,9999,1782084704
34,16,19,Jits_Linear_5,106,9999,9999,9999,1782774868
34,16,19,Jits_Linear_5,107,9999,9999,9999,1783465024
34,16,19,Jits_Linear_5,108,9999,9999,9999,1784154200
34,16,19,Jits_Linear_5,109,9999,9999,9999,1784844360
34,16,19,Jits_Linear_5,110,9999,9999,9999,1785544800
34,16,19,Jits_Linear_5,111,9999,9999,9999,1786244176
34,16,19,Jits_Linear_5,112,9999,9999,9999,1786944572
34,16,19,Jits_Linear_5,113,9999,9999,9999,1787645000
34,16,19,Jits_Linear_5,114,9999,9999,9999,1788344448
34,16,19,Jits_Linear_5,115,9999,9999,9999,1789055032
34,16,19,Jits_Linear_5,116,9999,9999,9999,1789764664
34,16,19,Jits_Linear_5,117,9999,9999,9999,1790474320
34,16,19,Jits_Linear_5,118,9999,9999,9999,1791184952
34,16,19,Jits_Linear_5,119,9999,9999,9999,1791894588
34,16,19,Jits_Linear_5,120,9999,9999,9999,1792614512
34,16,19,Jits_Linear_5,121,9999,9999,9999,1793334336
34,16,19,Jits_Linear_5,122,9999,9999,9999,1794054204
34,16,19,Jits_Linear_5,123,9999,9999,9999,1794774104
34,16,19,Jits_Linear_5,124,9999,9999,9999,1795494988
34,16,19,Jits_Linear_5,125,9999,9999,9999,1796224092
34,16,19,Jits_Linear_5,126,9999,9999,9999,1796954212
34,16,19,Jits_Linear_5,127,9999,9999,9999,1797684292
34,16,19,Jits_Linear_5,128,9999,9999,9999,1798414396
34,16,19,Jits_Linear_5,129,9999,9999,9999,1799144508
34,16,19,Jits_Linear_5,130,9999,9999,9999,1799884888
34,16,19,Jits_Linear_5,131,9999,9999,9999,1800624208
34,16,19,Jits_Linear_5,132,9999,9999,9999,1801364572
34,16,19,Jits_Linear_5,133,9999,9999,9999,1802104908
34,16,19,Jits_Linear_5,134,9999,9999,9999,1802844228
34,16,19,Jits_Linear_5,135,9999,9999,9999,1803594836
34,16,19,Jits_Linear_5,136,9999,9999,9999,1804344432
34,16,19,Jits_Linear_5,137,9999,9999,9999,1805095032
34,16,19,Jits_Linear_5,138,9999,9999,9999,1805844600
34,16,19,Jits_Linear_5,139,9999,9999,9999,1806594120
34,16,19,Jits_Linear_5,140,9999,9999,9999,1807355004
34,16,19,Jits_Linear_5,141,9999,9999,9999,1808114780
34,16,19,Jits_Linear_5,142,9999,9999,9999,1808874560
34,16,19,Jits_Linear_5,143,9999,9999,9999,1809634412
34,16,19,Jits_Linear_5,144,9999,9999,9999,1810394168
34,16,19,Jits_Linear_5,145,9999,9999,9999,1811164268
34,16,19,Jits_Linear_5,146,9999,9999,9999,1811934316
34,16,19,Jits_Linear_5,147,9999,9999,9999,1812704344
34,16,19,Jits_Linear_5,148,9999,9999,9999,1813474360
34,16,19,Jits_Linear_5,149,9999,9999,9999,1814244468
34,16,19,Jits_Linear_5,150,9999,9999,9999,1815024760
34,16,19,Jits_Linear_5,151,9999,9999,9999,1815805056
34,16,19,Jits_Linear_5,152,9999,9999,9999,1816584316
34,16,19,Jits_Linear_5,153,9999,9999,9999,1817364600
34,16,19,Jits_Linear_5,154,9999,9999,9999,1818144892
34,16,19,Jits_Linear_5,155,9999,9999,9999,1818934392
34,16,19,Jits_Linear_5,156,9999,9999,9999,1819724864
34,16,19,Jits_Linear_5,157,9999,9999,9999,1820514416
34,16,19,Jits_Linear_5,158,9999,9999,9999,1821304888
34,16,19,Jits_Linear_5,159,9999,9999,9999,1822094412
34,16,19,Jits_Linear_5,160,9999,9999,9999,1822894196
34,16,19,Jits_Linear_5,161,9999,9999,9999,1823694940
34,16,19,Jits_Linear_5,162,9999,9999,9999,1824494708
34,16,19,Jits_Linear_5,163,9999,9999,9999,1825294416
34,16,19,Jits_Linear_5,164,9999,9999,9999,1826094184
34,16,19,Jits_Linear_5,165,9999,9999,9999,1826904144
34,16,19,Jits_Linear_5,166,9999,9999,9999,1827714132
34,16,19,Jits_Linear_5,167,9999,9999,9999,1828524160
34,16,19,Jits_Linear_5,168,9999,9999,9999,1829334124
34,16,19,Jits_Linear_5,169,9999,9999,9999,1830144084
34,17,7,Jits_ISO_8,0,5,56,103,1843766676
34,17,7,Jits_ISO_8,1,5,63,98,1843769772
34,17,7,Jits_ISO_8,2,5,80,127,1843772892
34,17,7,Jits_ISO_8,0,5,56,103,1844567644
34,17,7,Jits_ISO_8,1,5,63,98,1844570596
34,17,7,Jits_ISO_8,2,5,80,127,1844573640
34,17,7,Jits_ISO_8,0,5,80,127,1845306676
34,17,7,Jits_ISO_8,1,5,63,98,1845396764
34,17,7,Jits_ISO_8,2,5,56,103,1845407032
34,17,7,Jits_ISO_8,3,1,48,58,1845411048
34,17,7,Jits_ISO_8,0,5,56,103,1846126856
34,17,7,Jits_ISO_8,1,5,63,98,1846137424
34,17,7,Jits_ISO_8,2,1,48,66,1846161092
34,17,7,Jits_ISO_8,3,5,80,127,1846227572
34,17,7,Jits_ISO_8,0,5,63,98,1846897128
34,17,7,Jits_ISO_8,1,5,80,127,1846926608
34,17,7,Jits_ISO_8,2,1,48,64,1846935952
34,17,7,Jits_ISO_8,3,5,56,103,1846957472
34,17,7,Jits_ISO_8,0,1,48,65,1847636936
34,17,7,Jits_ISO_8,1,1,38,16,1847646956
34,17,7,Jits_ISO_8,2,5,56,103,1847696608
34,17,7,Jits_ISO_8,3,5,80,127,1847797040
34,17,7,Jits_ISO_8,4,5,63,98,1847847540
34,17,7,Jits_ISO_8,0,5,56,103,1848496468
34,17,7,Jits_ISO_8,1,1,48,97,1848527684
34,17,7,Jits_ISO_8,2,5,80,127,1848546668
34,17,7,Jits_ISO_8,3,5,63,98,1848586604
34,17,7,Jits_ISO_8,0,1,48,72,1849297280
34,17,7,Jits_ISO_8,1,5,80,127,1849326976
34,17,7,Jits_ISO_8,2,5,63,98,1849356728
34,17,7,Jits_ISO_8,3,5,56,103,1849427512
34,17,7,Jits_ISO_8,0,1,48,84,1850104764
34,17,7,Jits_ISO_8,1,5,63,98,1850157552
34,17,7,Jits_ISO_8,2,5,56,103,1850187228
34,17,7,Jits_ISO_8,3,5,80,127,1850246656
34,17,7,Jits_ISO_8,0,5,56,103,1850896732
34,17,7,Jits_ISO_8,1,5,80,127,1850899800
34,17,7,Jits_ISO_8,2,1,48,55,1850968256
34,17,7,Jits_ISO_8,3,5,63,98,1851016476
34,17,7,Jits_ISO_8,0,1,48,57,1851756656
34,17,7,Jits_ISO_8,1,5,56,103,1851777304
34,17,7,Jits_ISO_8,2,5,80,127,1851817244
34,17,7,Jits_ISO_8,3,5,63,98,1851826468
34,17,7,Jits_ISO_8,0,5,56,103,1852537440
34,17,7,Jits_ISO_8,1,1,48,79,1852544936
34,17,7,Jits_ISO_8,2,5,80,127,1852556572
34,17,7,Jits_ISO_8,3,5,63,98,1852636576
34,17,7,Jits_ISO_8,0,5,80,127,1853326776
34,17,7,Jits_ISO_8,1,1,48,84,1853365492
34,17,7,Jits_ISO_8,2,5,56,103,1853427320
34,17,7,Jits_ISO_8,3,5,63,98,1853437440
34,17,7,Jits_ISO_8,0,5,63,98,1854096616
34,17,7,Jits_ISO_8,1,5,80,127,1854157304
34,17,7,Jits_ISO_8,2,5,56,103,1854167352
34,17,7,Jits_ISO_8,3,1,48,76,1854209576
34,17,7,Jits_ISO_8,0,5,56,103,1854896468
34,17,7,Jits_ISO_8,1,5,63,98,1854967120
34,17,7,Jits_ISO_8,2,5,80,127,1854970412
34,17,7,Jits_ISO_8,3,1,48,46,1854973380
34,17,7,Jits_ISO_8,0,1,48,68,1855708584
34,17,7,Jits_ISO_8,1,5,63,98,1855727188
34,17,7,Jits_ISO_8,2,5,56,103,1855777164
34,17,7,Jits_ISO_8,3,5,80,127,1855780304
34,17,7,Jits_ISO_8,0,5,56,103,1856486884
34,17,7,Jits_ISO_8,1,5,80,127,1856489876
34,17,7,Jits_ISO_8,2,1,48,63,1856502656
34,17,7,Jits_ISO_8,3,5,63,98,1856577232
34,17,7,Jits_ISO_8,0,1,48,59,1857288880
34,17,7,Jits_ISO_8,1,5,63,98,1857326372
34,17,7,Jits_ISO_8,2,5,56,103,1857416444
34,17,7,Jits_ISO_8,3,5,80,127,1857447240
34,17,7,Jits_ISO_8,0,5,56,103,1858117172
34,17,7,Jits_ISO_8,1,1,48,61,1858127040
34,17,7,Jits_ISO_8,2,5,63,98,1858218248
34,17,7,Jits_ISO_8,3,5,80,127,1858247248
34,17,7,Jits_ISO_8,0,5,63,98,1858937052
34,17,7,Jits_ISO_8,1,1,48,73,1858941392
34,17,7,Jits_ISO_8,2,5,56,103,1858946444
34,17,7,Jits_ISO_8,3,5,80,127,1859036580
34,17,7,Jits_ISO_8,0,5,63,98,1859757468
34,17,7,Jits_ISO_8,1,1,48,54,1859766736
34,17,7,Jits_ISO_8,2,5,56,103,1859837256
34,17,7,Jits_ISO_8,3,5,80,127,1859840468
34,17,7,Jits_ISO_8,0,5,80,127,1860517312
34,17,7,Jits_ISO_8,1,5,63,98,1860536800
34,17,7,Jits_ISO_8,2,1,48,59,1860571904
34,17,7,Jits_ISO_8,3,5,56,103,1860597036
34,17,7,Jits_ISO_8,0,1,48,58,1861301340
34,17,7,Jits_ISO_8,1,5,56,103,1861357036
34,17,7,Jits_ISO_8,2,5,63,98,1861377348
34,17,7,Jits_ISO_8,3,5,80,127,1861380708
34,17,7,Jits_ISO_8,0,5,63,98,1862097404
34,17,7,Jits_ISO_8,1,1,48,55,1862114296
34,17,7,Jits_ISO_8,2,5,80,127,1862177268
34,17,7,Jits_ISO_8,3,5,56,103,1862187540
34,17,7,Jits_ISO_8,0,5,63,98,1862916440
34,17,7,Jits_ISO_8,1,5,56,103,1862936900
34,17,7,Jits_ISO_8,2,1,48,61,1862951776
34,17,7,Jits_ISO_8,3,5,80,127,1862987096
34,17,7,Jits_ISO_8,0,1,48,64,1863705708
34,17,7,Jits_ISO_8,1,5,80,127,1863717336
34,17,7,Jits_ISO_8,2,5,63,98,1863757128
34,17,7,Jits_ISO_8,3,5,56,103,1863776764
34,17,7,Jits_ISO_8,0,1,48,54,1864511764
34,17,7,Jits_ISO_8,1,5,56,103,1864556904
34,17,7,Jits_ISO_8,2,5,63,98,1864567100
34,17,7,Jits_ISO_8,3,5,80,127,1864586684
34,17,7,Jits_ISO_8,0,5,56,103,1865287088
34,17,7,Jits_ISO_8,1,1,48,66,1865349572
34,17,7,Jits_ISO_8,2,5,63,98,1865377096
34,17,7,Jits_ISO_8,3,5,80,127,1865436884
34,17,7,Jits_ISO_8,0,1,48,77,1866092240
34,17,7,Jits_ISO_8,1,5,80,127,1866116648
34,17,7,Jits_ISO_8,2,5,56,103,1866126844
34,17,7,Jits_ISO_8,3,5,63,98,1866197556
34,17,7,Jits_ISO_8,0,1,48,59,1866905696
34,17,7,Jits_ISO_8,1,5,63,98,1866946848
34,17,7,Jits_ISO_8,2,5,80,127,1867037120
34,17,7,Jits_ISO_8,3,5,56,103,1867047392
34,17,7,Jits_ISO_8,0,5,63,98,1867687156
34,17,7,Jits_ISO_8,1,5,80,127,1867736460
34,17,7,Jits_ISO_8,2,1,48,72,1867777564
34,17,7,Jits_ISO_8,3,5,56,103,1867796844
34,17,7,Jits_ISO_8,0,1,48,63,1868491840
34,17,7,Jits_ISO_8,1,5,56,103,1868516748
34,17,7,Jits_ISO_8,2,5,80,127,1868566804
34,17,7,Jits_ISO_8,3,5,63,98,1868587484
34,17,7,Jits_ISO_8,0,5,56,103,1869286792
34,17,7,Jits_ISO_8,1,1,48,76,1869341676
34,17,7,Jits_ISO_8,2,5,80,127,1869347180
34,17,7,Jits_ISO_8,3,5,63,98,1869416788
34,17,7,Jits_ISO_8,0,5,56,103,1870086440
34,17,7,Jits_ISO_8,1,5,80,127,1870117388
34,17,7,Jits_ISO_8,2,1,48,78,1870127332
34,17,7,Jits_ISO_8,3,5,63,98,1870146908
34,17,7,Jits_ISO_8,0,1,48,64,1870881320
34,17,7,Jits_ISO_8,1,5,56,103,1870927428
34,17,7,Jits_ISO_8,2,5,80,127,1870946768
34,17,7,Jits_ISO_8,3,5,63,98,1871007240
34,17,7,Jits_ISO_8,0,1,48,69,1871725920
34,17,7,Jits_ISO_8,1,5,80,127,1871806956
34,17,7,Jits_ISO_8,2,5,56,103,1871817888
34,17,7,Jits_ISO_8,3,5,63,98,1871827480
34,17,7,Jits_ISO_8,0,5,56,103,1872566524
34,17,7,Jits_ISO_8,1,1,48,73,1872603044
34,17,7,Jits_ISO_8,2,5,80,127,1872606680
34,17,7,Jits_ISO_8,3,5,63,98,1872637400
34,17,7,Jits_ISO_8,0,5,56,103,1873336580
34,17,7,Jits_ISO_8,1,1,48,74,1873343360
34,17,7,Jits_ISO_8,2,5,63,98,1873367296
34,17,7,Jits_ISO_8,3,5,80,127,1873407608
34,17,7,Jits_ISO_8,0,5,80,127,1874087452
34,17,7,Jits_ISO_8,1,1,48,62,1874104744
34,17,7,Jits_ISO_8,2,5,63,98,1874136380
34,17,7,Jits_ISO_8,3,5,56,103,1874156912
34,17,7,Jits_ISO_8,0,1,48,71,1874903236
34,17,7,Jits_ISO_8,1,5,56,103,1874916684
34,17,7,Jits_ISO_8,2,5,80,127,1874987340
34,17,7,Jits_ISO_8,3,5,63,98,1875046744
34,17,7,Jits_ISO_8,0,5,80,127,1875716552
34,17,7,Jits_ISO_8,1,1,48,71,1875767848
34,17,7,Jits_ISO_8,2,5,63,98,1875806684
34,17,7,Jits_ISO_8,3,5,56,103,1875827140
34,17,7,Jits_ISO_8,0,5,63,98,1876536736
34,17,7,Jits_ISO_8,1,5,56,103,1876557420
34,17,7,Jits_ISO_8,2,1,48,86,1876574412
34,17,7,Jits_ISO_8,3,5,80,127,1876597424
34,17,7,Jits_ISO_8,0,5,80,127,1877296436
34,17,7,Jits_ISO_8,1,1,48,74,1877315912
34,17,7,Jits_ISO_8,2,5,63,98,1877317484
34,17,7,Jits_ISO_8,3,5,56,103,1877396856
34,17,7,Jits_ISO_8,0,5,63,98,1878087160
34,17,7,Jits_ISO_8,1,1,48,71,1878132760
34,17,7,Jits_ISO_8,2,5,56,103,1878196644
34,17,7,Jits_ISO_8,3,5,80,127,1878199640
34,17,7,Jits_ISO_8,0,1,48,67,1878890724
34,17,7,Jits_ISO_8,1,5,63,98,1878907308
34,17,7,Jits_ISO_8,2,5,56,103,1878916456
34,17,7,Jits_ISO_8,3,5,80,127,1878919448
34,17,7,Jits_ISO_8,0,1,48,54,1879683664
34,17,7,Jits_ISO_8,1,5,56,103,1879686400
34,17,7,Jits_ISO_8,2,5,80,127,1879807312
34,17,7,Jits_ISO_8,3,5,63,98,1879847252
34,17,7,Jits_ISO_8,0,5,56,103,1880506948
34,17,7,Jits_ISO_8,1,1,48,55,1880544068
34,17,7,Jits_ISO_8,2,5,80,127,1880586592
34,17,7,Jits_ISO_8,3,5,63,98,1880607048
34,17,7,Jits_ISO_8,0,5,56,103,1881306376
34,17,7,Jits_ISO_8,1,1,48,69,1881324240
34,17,7,Jits_ISO_8,2,5,63,98,1881417180
34,17,7,Jits_ISO_8,3,5,80,127,1881421424
34,17,7,Jits_ISO_8,0,1,48,74,1882127864
34,17,7,Jits_ISO_8,1,5,56,103,1882136956
34,17,7,Jits_ISO_8,2,5,80,127,1882166632
34,17,7,Jits_ISO_8,3,5,63,98,1882187164
34,17,7,Jits_ISO_8,0,1,48,81,1882900668
34,17,7,Jits_ISO_8,1,5,63,98,1882917256
34,17,7,Jits_ISO_8,2,5,56,103,1882926408
34,17,7,Jits_ISO_8,3,5,80,127,1882936976
34,17,7,Jits_ISO_8,0,1,48,76,1883695440
34,17,7,Jits_ISO_8,1,1,38,18,1883705628
34,17,7,Jits_ISO_8,2,5,80,127,1883708244
34,17,7,Jits_ISO_8,3,5,56,103,1883756880
34,17,7,Jits_ISO_8,4,5,63,98,1883796976
34,17,7,Jits_ISO_8,0,1,48,84,1884499544
34,17,7,Jits_ISO_8,1,5,80,127,1884526996
34,17,7,Jits_ISO_8,2,5,63,98,1884546360
34,17,7,Jits_ISO_8,3,5,56,103,1884596768
34,17,7,Jits_ISO_8,0,5,80,127,1885337000
34,17,7,Jits_ISO_8,1,1,48,90,1885338336
34,17,7,Jits_ISO_8,2,5,56,103,1885366816
34,17,7,Jits_ISO_8,3,5,63,98,1885437900
34,17,7,Jits_ISO_8,0,5,56,103,1886186776
34,17,7,Jits_ISO_8,1,1,48,87,1886192584
34,17,7,Jits_ISO_8,2,5,80,127,1886197188
34,17,7,Jits_ISO_8,3,1,38,19,1886202772
34,17,7,Jits_ISO_8,4,5,63,98,1886236972
34,17,7,Jits_ISO_8,0,5,56,103,1886896584
34,17,7,Jits_ISO_8,1,5,63,98,1886917044
34,17,7,Jits_ISO_8,2,1,48,127,1886966392
34,17,7,Jits_ISO_8,3,5,80,127,1886986868
34,17,7,Jits_ISO_8,0,1,48,106,1887701444
34,17,7,Jits_ISO_8,1,5,63,98,1887716836
34,17,7,Jits_ISO_8,2,5,80,127,1887777232
34,17,7,Jits_ISO_8,3,5,56,103,1887796628
34,17,7,Jits_ISO_8,0,5,80,127,1888507212
34,17,7,Jits_ISO_8,1,1,48,77,1888526896
34,17,7,Jits_ISO_8,2,5,56,103,1888536884
34,17,7,Jits_ISO_8,3,5,63,98,1888566708
34,17,7,Jits_ISO_8,0,1,48,116,1889283060
34,17,7,Jits_ISO_8,1,5,56,103,1889306852
34,17,7,Jits_ISO_8,2,5,63,98,1889367616
34,17,7,Jits_ISO_8,3,5,80,127,1889426672
34,17,7,Jits_ISO_8,0,1,48,92,1890070964
34,17,7,Jits_ISO_8,1,5,80,127,1890127188
34,17,7,Jits_ISO_8,2,5,56,103,1890146752
34,17,7,Jits_ISO_8,3,5,63,98,1890217264
34,17,7,Jits_ISO_8,0,5,80,127,1890926976
34,17,7,Jits_ISO_8,1,1,48,92,1890936320
34,17,7,Jits_ISO_8,2,5,63,98,1890946408
34,17,7,Jits_ISO_8,3,5,56,103,1890977204
34,17,7,Jits_ISO_8,0,5,80,127,1891716608
34,17,7,Jits_ISO_8,1,5,63,98,1891736844
34,17,7,Jits_ISO_8,2,1,48,92,1891752992
34,17,7,Jits_ISO_8,3,5,56,103,1891797748
34,17,7,Jits_ISO_8,0,1,48,92,1892514336
34,17,7,Jits_ISO_8,1,5,80,127,1892517444
34,17,7,Jits_ISO_8,2,5,56,103,1892616560
34,17,7,Jits_ISO_8,3,5,63,98,1892647280
34,17,7,Jits_ISO_8,0,5,63,98,1893306824
34,17,7,Jits_ISO_8,1,1,48,64,1893338420
34,17,7,Jits_ISO_8,2,5,80,127,1893357024
34,17,7,Jits_ISO_8,3,5,56,103,1893377556
34,17,7,Jits_ISO_8,0,1,48,80,1894125764
34,17,7,Jits_ISO_8,1,5,80,127,1894146388
34,17,7,Jits_ISO_8,2,5,56,103,1894177256
34,17,7,Jits_ISO_8,3,5,63,98,1894180324
34,17,7,Jits_ISO_8,0,1,48,82,1894916468
34,17,7,Jits_ISO_8,1,5,63,98,1894976952
34,17,7,Jits_ISO_8,2,5,56,103,1895016804
34,17,7,Jits_ISO_8,3,5,80,127,1895037660
34,17,7,Jits_ISO_8,0,5,80,127,1895717336
34,17,7,Jits_ISO_8,1,1,48,82,1895764720
34,17,7,Jits_ISO_8,2,5,63,98,1895797200
34,17,7,Jits_ISO_8,3,5,56,103,1895837016
34,17,7,Jits_ISO_8,0,5,63,98,1896536396
34,17,7,Jits_ISO_8,1,1,48,97,1896537880
34,17,7,Jits_ISO_8,2,1,38,21,1896548576
34,17,7,Jits_ISO_8,3,5,80,127,1896617472
34,17,7,Jits_ISO_8,4,5,56,103,1896636648
34,17,7,Jits_ISO_8,0,1,48,95,1897356928
34,17,7,Jits_ISO_8,1,1,38,21,1897366876
34,17,7,Jits_ISO_8,2,5,56,103,1897377236
34,17,7,Jits_ISO_8,3,5,63,98,1897387284
34,17,7,Jits_ISO_8,4,5,80,127,1897427368
34,17,7,Jits_ISO_8,0,5,56,103,1898097276
34,17,7,Jits_ISO_8,1,5,80,127,1898100192
34,17,7,Jits_ISO_8,2,1,48,114,1898154056
34,17,7,Jits_ISO_8,3,5,63,98,1898237172
34,17,7,Jits_ISO_8,0,5,56,103,1898886388
34,17,7,Jits_ISO_8,1,1,48,70,1898936412
34,17,7,Jits_ISO_8,2,1,38,17,1898946956
34,17,7,Jits_ISO_8,3,5,63,98,1898976572
34,17,7,Jits_ISO_8,4,5,80,127,1899047480
34,17,7,Jits_ISO_8,0,1,48,81,1899662068
34,17,7,Jits_ISO_8,1,5,63,98,1899767352
34,17,7,Jits_ISO_8,2,5,80,127,1899770712
34,17,7,Jits_ISO_8,3,5,56,103,1899826620
34,17,7,Jits_ISO_8,0,1,48,89,1900534444
34,17,7,Jits_ISO_8,1,5,80,127,1900607084
34,17,7,Jits_ISO_8,2,5,56,103,1900627320
34,17,7,Jits_ISO_8,3,5,63,98,1900636528
34,17,7,Jits_ISO_8,0,5,56,103,1901316380
34,17,7,Jits_ISO_8,1,5,63,98,1901326724
34,17,7,Jits_ISO_8,2,1,48,100,1901378988
34,17,7,Jits_ISO_8,3,5,80,127,1901397292
34,17,7,Jits_ISO_8,0,1,48,90,1902109552
34,17,7,Jits_ISO_8,1,5,80,127,1902117300
34,17,7,Jits_ISO_8,2,5,56,103,1902167428
34,17,7,Jits_ISO_8,3,5,63,98,1902216444
34,17,7,Jits_ISO_8,0,1,48,65,1902938336
34,17,7,Jits_ISO_8,1,1,38,16,1902948732
34,17,7,Jits_ISO_8,2,5,56,103,1902996956
34,17,7,Jits_ISO_8,3,5,63,98,1903007080
34,17,7,Jits_ISO_8,4,5,80,127,1903046976
34,17,7,Jits_ISO_8,0,1,48,89,1903701532
34,17,7,Jits_ISO_8,1,5,56,103,1903737228
34,17,7,Jits_ISO_8,2,5,63,98,1903777092
34,17,7,Jits_ISO_8,3,5,80,127,1903827352
34,17,7,Jits_ISO_8,0,5,80,127,1904497208
34,17,7,Jits_ISO_8,1,1,48,91,1904520656
34,17,7,Jits_ISO_8,2,5,56,103,1904547360
34,17,7,Jits_ISO_8,3,5,63,98,1904566620
34,17,7,Jits_ISO_8,0,1,48,78,1905306096
34,17,7,Jits_ISO_8,1,5,80,127,1905307888
34,17,7,Jits_ISO_8,2,5,63,98,1905367384
34,17,7,Jits_ISO_8,3,5,56,103,1905447384
34,17,7,Jits_ISO_8,0,5,80,127,1906087224
34,17,7,Jits_ISO_8,1,5,56,103,1906127316
34,17,7,Jits_ISO_8,2,1,48,81,1906140020
34,17,7,Jits_ISO_8,3,5,63,98,1906146720
34,17,7,Jits_ISO_8,4,1,38,19,1906150360
34,17,7,Jits_ISO_8,0,1,48,76,1906915220
34,17,7,Jits_ISO_8,1,1,38,18,1906925096
34,17,7,Jits_ISO_8,2,5,56,103,1906937176
34,17,7,Jits_ISO_8,3,5,80,127,1906946548
34,17,7,Jits_ISO_8,4,5,63,98,1906987312
34,17,7,Jits_ISO_8,0,1,48,102,1907720664
34,17,7,Jits_ISO_8,1,5,56,103,1907806780
34,17,7,Jits_ISO_8,2,5,63,98,1907846508
34,17,7,Jits_ISO_8,3,5,80,127,1907849944
34,17,7,Jits_ISO_8,0,5,63,98,1908496908
34,17,7,Jits_ISO_8,1,1,48,85,1908525884
34,17,7,Jits_ISO_8,2,5,80,127,1908536992
34,17,7,Jits_ISO_8,3,5,56,103,1908607296
34,17,7,Jits_ISO_8,0,5,63,98,1909287324
34,17,7,Jits_ISO_8,1,1,48,104,1909320632
34,17,7,Jits_ISO_8,2,5,56,103,1909367188
34,17,7,Jits_ISO_8,3,5,80,127,1909426836
34,17,7,Jits_ISO_8,0,1,48,76,1910085964
34,17,7,Jits_ISO_8,1,1,38,19,1910095928
34,17,7,Jits_ISO_8,2,5,80,127,1910098692
34,17,7,Jits_ISO_8,3,5,63,98,1910146384
34,17,7,Jits_ISO_8,4,5,56,103,1910177028
34,17,7,Jits_ISO_8,0,5,56,103,1910886788
34,17,7,Jits_ISO_8,1,1,48,102,1910907996
34,17,7,Jits_ISO_8,2,5,63,98,1910937084
34,17,7,Jits_ISO_8,3,5,80,127,1910947060
34,17,7,Jits_ISO_8,0,1,48,85,1911653436
34,17,7,Jits_ISO_8,1,1,38,19,1911663300
34,17,7,Jits_ISO_8,2,5,56,103,1911696780
34,17,7,Jits_ISO_8,3,5,63,98,1911807548
34,17,7,Jits_ISO_8,4,5,80,127,1911826664
34,17,7,Jits_ISO_8,0,5,63,98,1912496644
34,17,7,Jits_ISO_8,1,1,48,81,1912505916
34,17,7,Jits_ISO_8,2,5,80,127,1912546620
34,17,7,Jits_ISO_8,3,5,56,103,1912636884
34,17,7,Jits_ISO_8,0,5,63,98,1913286988
34,17,7,Jits_ISO_8,1,1,48,121,1913289884
34,17,7,Jits_ISO_8,2,5,80,127,1913316656
34,17,7,Jits_ISO_8,3,5,56,103,1913406924
34,17,7,Jits_ISO_8,0,5,63,98,1914086704
34,17,7,Jits_ISO_8,1,5,56,103,1914097048
34,17,7,Jits_ISO_8,2,1,48,90,1914120324
34,17,7,Jits_ISO_8,3,1,38,21,1914130188
34,17,7,Jits_ISO_8,4,5,80,127,1914197492
34,17,7,Jits_ISO_8,0,1,48,80,1914865000
34,17,7,Jits_ISO_8,1,1,38,20,1914874328
34,17,7,Jits_ISO_8,2,5,63,98,1914986860
34,17,7,Jits_ISO_8,3,5,80,127,1915016488
34,17,7,Jits_ISO_8,4,5,56,103,1915047432
34,17,7,Jits_ISO_8,0,1,48,76,1915728892
34,17,7,Jits_ISO_8,1,1,38,18,1915738692
34,17,7,Jits_ISO_8,2,5,80,127,1915807000
34,17,7,Jits_ISO_8,3,5,63,98,1915817492
34,17,7,Jits_ISO_8,4,5,56,103,1915846904
34,17,7,Jits_ISO_8,0,5,80,127,1916506520
34,17,7,Jits_ISO_8,1,5,63,98,1916526832
34,17,7,Jits_ISO_8,2,5,56,103,1916577428
34,17,7,Jits_ISO_8,3,1,48,95,1916615696
34,17,7,Jits_ISO_8,0,1,48,79,1917334616
34,17,7,Jits_ISO_8,1,5,63,98,1917337124
34,17,7,Jits_ISO_8,2,1,38,19,1917344900
34,17,7,Jits_ISO_8,3,5,80,127,1917397288
34,17,7,Jits_ISO_8,4,5,56,103,1917416772
34,17,7,Jits_ISO_8,0,5,63,98,1918096824
34,17,7,Jits_ISO_8,1,1,48,113,1918144832
34,17,7,Jits_ISO_8,2,5,56,103,1918146948
34,17,7,Jits_ISO_8,3,1,38,22,1918155024
34,17,7,Jits_ISO_8,4,5,80,127,1918157656
34,17,7,Jits_ISO_8,0,5,56,103,1918927316
34,17,7,Jits_ISO_8,1,1,48,73,1918932304
34,17,7,Jits_ISO_8,2,5,80,127,1918936536
34,17,7,Jits_ISO_8,3,1,38,18,1918943088
34,17,7,Jits_ISO_8,4,5,63,98,1919036760
34,17,7,Jits_ISO_8,0,5,80,127,1919687180
34,17,7,Jits_ISO_8,1,5,63,98,1919697452
34,17,7,Jits_ISO_8,2,1,48,89,1919769048
34,17,7,Jits_ISO_8,3,1,38,20,1919778920
34,17,7,Jits_ISO_8,4,5,56,103,1919846668
34,17,7,Jits_ISO_8,0,5,63,98,1920497156
34,17,7,Jits_ISO_8,1,1,48,84,1920512260
34,17,7,Jits_ISO_8,2,5,80,127,1920537088
34,17,7,Jits_ISO_8,3,5,56,103,1920616796
34,17,7,Jits_ISO_8,0,1,48,94,1921244988
34,17,7,Jits_ISO_8,1,5,56,103,1921286368
34,17,7,Jits_ISO_8,2,5,80,127,1921387052
34,17,7,Jits_ISO_8,3,5,63,98,1921407312
34,17,7,Jits_ISO_8,0,1,48,95,1922101848
34,17,7,Jits_ISO_8,1,5,80,127,1922146764
34,17,7,Jits_ISO_8,2,5,56,103,1922157184
34,17,7,Jits_ISO_8,3,5,63,98,1922247324
34,17,7,Jits_ISO_8,0,5,56,103,1922946508
34,17,7,Jits_ISO_8,1,1,48,89,1922956304
34,17,7,Jits_ISO_8,2,5,63,98,1922967036
34,17,7,Jits_ISO_8,3,5,80,127,1923046756
34,17,7,Jits_ISO_8,0,5,63,98,1923696984
34,17,7,Jits_ISO_8,1,1,48,91,1923752120
34,17,7,Jits_ISO_8,2,5,56,103,1923787136
34,17,7,Jits_ISO_8,3,5,80,127,1923790276
34,17,7,Jits_ISO_8,0,1,48,108,1924480336
34,17,7,Jits_ISO_8,1,5,56,103,1924526448
34,17,7,Jits_ISO_8,2,5,80,127,1924587048
34,17,7,Jits_ISO_8,3,5,63,98,1924597168
34,17,7,Jits_ISO_8,0,1,48,91,1925281116
34,17,7,Jits_ISO_8,1,1,38,21,1925290984
34,17,7,Jits_ISO_8,2,5,80,127,1925377392
34,17,7,Jits_ISO_8,3,5,56,103,1925386672
34,17,7,Jits_ISO_8,4,5,63,98,1925389884
34,17,7,Jits_ISO_8,0,1,48,107,1926107856
34,17,7,Jits_ISO_8,1,5,56,103,1926137180
34,17,7,Jits_ISO_8,2,5,80,127,1926146552
34,17,7,Jits_ISO_8,3,5,63,98,1926166860
34,17,7,Jits_ISO_8,0,5,63,98,1926907244
34,17,7,Jits_ISO_8,1,1,48,73,1926933508
34,17,7,Jits_ISO_8,2,5,80,127,1926966584
34,17,7,Jits_ISO_8,3,5,56,103,1927016936
34,17,7,Jits_ISO_8,0,1,48,97,1927703016
34,17,7,Jits_ISO_8,1,5,63,98,1927786816
34,17,7,Jits_ISO_8,2,5,56,103,1927797164
34,17,7,Jits_ISO_8,3,5,80,127,1927847348
34,17,7,Jits_ISO_8,0,5,63,98,1928487312
34,17,7,Jits_ISO_8,1,5,80,127,1928506952
34,17,7,Jits_ISO_8,2,5,56,103,1928516924
34,17,7,Jits_ISO_8,3,1,48,98,1928549032
34,17,7,Jits_ISO_8,4,1,38,20,1928559128
34,17,7,Jits_ISO_8,0,5,63,98,1929286984
34,17,7,Jits_ISO_8,1,5,80,127,1929290196
34,17,7,Jits_ISO_8,2,1,48,80,1929305320
34,17,7,Jits_ISO_8,3,5,56,103,1929326988
34,17,7,Jits_ISO_8,0,1,48,84,1930024516
34,17,7,Jits_ISO_8,1,1,38,19,1930034484
34,17,7,Jits_ISO_8,2,5,63,98,1930157284
34,17,7,Jits_ISO_8,3,5,80,127,1930187036
34,17,7,Jits_ISO_8,4,5,56,103,1930197232
34,17,7,Jits_ISO_8,0,1,48,74,1930848492
34,17,7,Jits_ISO_8,1,5,56,103,1930906980
34,17,7,Jits_ISO_8,2,5,80,127,1930936804
34,17,7,Jits_ISO_8,3,5,63,98,1930967288
34,17,7,Jits_ISO_8,0,1,48,92,1931681032
34,17,7,Jits_ISO_8,1,5,63,98,1931807068
34,17,7,Jits_ISO_8,2,5,56,103,1931847008
34,17,7,Jits_ISO_8,3,5,80,127,1931850220
34,17,7,Jits_ISO_8,0,5,80,127,1932506552
34,17,7,Jits_ISO_8,1,1,48,87,1932556652
34,17,7,Jits_ISO_8,2,5,56,103,1932587468
34,17,7,Jits_ISO_8,3,5,63,98,1932636696
34,17,7,Jits_ISO_8,0,5,80,127,1933286724
34,17,7,Jits_ISO_8,1,5,56,103,1933307108
34,17,7,Jits_ISO_8,2,1,48,78,1933365820
34,17,7,Jits_ISO_8,3,5,63,98,1933397308
34,17,7,Jits_ISO_8,0,1,48,77,1934123636
34,17,7,Jits_ISO_8,1,5,80,127,1934126744
34,17,7,Jits_ISO_8,2,5,63,98,1934167504
34,17,7,Jits_ISO_8,3,5,56,103,1934207544
34,17,7,Jits_ISO_8,0,5,63,98,1934896492
34,17,7,Jits_ISO_8,1,1,48,104,1934912484
34,17,7,Jits_ISO_8,2,5,80,127,1934956948
34,17,7,Jits_ISO_8,3,5,56,103,1934986648
34,17,7,Jits_ISO_8,0,5,56,103,1935697404
34,17,7,Jits_ISO_8,1,5,80,127,1935726856
34,17,7,Jits_ISO_8,2,1,48,66,1935732068
34,17,7,Jits_ISO_8,3,5,63,98,1935816932
34,17,7,Jits_ISO_8,0,5,56,103,1936507488
34,17,7,Jits_ISO_8,1,1,48,89,1936541544
34,17,7,Jits_ISO_8,2,5,80,127,1936616876
34,17,7,Jits_ISO_8,3,5,63,98,1936646608
34,17,7,Jits_ISO_8,0,1,48,65,1937349216
34,17,7,Jits_ISO_8,1,5,56,103,1937357108
34,17,7,Jits_ISO_8,2,1,38,17,1937359628
34,17,7,Jits_ISO_8,3,5,63,98,1937416524
34,17,7,Jits_ISO_8,4,5,80,127,1937447528
34,17,7,Jits_ISO_8,0,5,56,103,1938127384
34,17,7,Jits_ISO_8,1,1,48,73,1938189468
34,17,7,Jits_ISO_8,2,5,63,98,1938196764
34,17,7,Jits_ISO_8,3,1,38,18,1938199808
34,17,7,Jits_ISO_8,4,5,80,127,1938217288
34,17,7,Jits_ISO_8,0,5,80,127,1938897276
34,17,7,Jits_ISO_8,1,5,63,98,1938916688
34,17,7,Jits_ISO_8,2,1,48,113,1938944316
34,17,7,Jits_ISO_8,3,5,56,103,1938967032
34,17,7,Jits_ISO_8,0,9999,9999,9999,1844164716
34,17,7,Jits_ISO_8,1,9999,9999,9999,1844964416
34,17,7,Jits_ISO_8,2,9999,9999,9999,1845764188
34,17,7,Jits_ISO_8,3,9999,9999,9999,1846564960
34,17,7,Jits_ISO_8,4,9999,9999,9999,1847364676
34,17,7,Jits_ISO_8,5,9999,9999,9999,1848164420
34,17,7,Jits_ISO_8,6,9999,9999,9999,1848964172
34,17,7,Jits_ISO_8,7,9999,9999,9999,1849764940
34,17,7,Jits_ISO_8,8,9999,9999,9999,1850564728
34,17,7,Jits_ISO_8,9,9999,9999,9999,1851364424
34,17,7,Jits_ISO_8,10,9999,9999,9999,1852164152
34,17,7,Jits_ISO_8,11,9999,9999,9999,1852964984
34,17,7,Jits_ISO_8,12,9999,9999,9999,1853764716
34,17,7,Jits_ISO_8,13,9999,9999,9999,1854564436
34,17,7,Jits_ISO_8,14,9999,9999,9999,1855364156
34,17,7,Jits_ISO_8,15,9999,9999,9999,1856164920
34,17,7,Jits_ISO_8,16,9999,9999,9999,1856964688
34,17,7,Jits_ISO_8,17,9999,9999,9999,1857764412
34,17,7,Jits_ISO_8,18,9999,9999,9999,1858564200
34,17,7,Jits_ISO_8,19,9999,9999,9999,1859364972
34,17,7,Jits_ISO_8,20,9999,9999,9999,1860164676
34,17,7,Jits_ISO_8,21,9999,9999,9999,1860964460
34,17,7,Jits_ISO_8,22,9999,9999,9999,1861764200
34,17,7,Jits_ISO_8,23,9999,9999,9999,1862564956
34,17,7,Jits_ISO_8,24,9999,9999,9999,1863364660
34,17,7,Jits_ISO_8,25,9999,9999,9999,1864164440
34,17,7,Jits_ISO_8,26,9999,9999,9999,1864964148
34,17,7,Jits_ISO_8,27,9999,9999,9999,1865764980
34,17,7,Jits_ISO_8,28,9999,9999,9999,1866564700
34,17,7,Jits_ISO_8,29,9999,9999,9999,1867364416
34,17,7,Jits_ISO_8,30,9999,9999,9999,1868164220
34,17,7,Jits_ISO_8,31,9999,9999,9999,1868964972
34,17,7,Jits_ISO_8,32,9999,9999,9999,1869764684
34,17,7,Jits_ISO_8,33,9999,9999,9999,1870564476
34,17,7,Jits_ISO_8,34,9999,9999,9999,1871364196
34,17,7,Jits_ISO_8,35,9999,9999,9999,1872164960
34,17,7,Jits_ISO_8,36,9999,9999,9999,1872964672
34,17,7,Jits_ISO_8,37,9999,9999,9999,1873764472
34,17,7,Jits_ISO_8,38,9999,9999,9999,1874564216
34,17,7,Jits_ISO_8,39,9999,9999,9999,1875364988
34,17,7,Jits_ISO_8,40,9999,9999,9999,1876164704
34,17,7,Jits_ISO_8,41,9999,9999,9999,1876964428
34,17,7,Jits_ISO_8,42,9999,9999,9999,1877764208
34,17,7,Jits_ISO_8,43,9999,9999,9999,1878564972
34,17,7,Jits_ISO_8,44,9999,9999,9999,1879364712
34,17,7,Jits_ISO_8,45,9999,9999,9999,1880164424
34,17,7,Jits_ISO_8,46,9999,9999,9999,1880964160
34,17,7,Jits_ISO_8,47,9999,9999,9999,1881764928
34,17,7,Jits_ISO_8,48,9999,9999,9999,1882564728
34,17,7,Jits_ISO_8,49,9999,9999,9999,1883364432
34,17,7,Jits_ISO_8,50,9999,9999,9999,1884164180
34,17,7,Jits_ISO_8,51,9999,9999,9999,1884964956
34,17,7,Jits_ISO_8,52,9999,9999,9999,1885764668
34,17,7,Jits_ISO_8,53,9999,9999,9999,1886564444
34,17,7,Jits_ISO_8,54,9999,9999,9999,1887364208
34,17,7,Jits_ISO_8,55,9999,9999,9999,1888164916
34,17,7,Jits_ISO_8,56,9999,9999,9999,1888964724
34,17,7,Jits_ISO_8,57,9999,9999,9999,1889764448
34,17,7,Jits_ISO_8,58,9999,9999,9999,1890564180
34,17,7,Jits_ISO_8,59,9999,9999,9999,1891364932
34,17,7,Jits_ISO_8,60,9999,9999,9999,1892164728
34,17,7,Jits_ISO_8,61,9999,9999,9999,1892964456
34,17,7,Jits_ISO_8,62,9999,9999,9999,1893764188
34,17,7,Jits_ISO_8,63,9999,9999,9999,1894564936
34,17,7,Jits_ISO_8,64,9999,9999,9999,1895364724
34,17,7,Jits_ISO_8,65,9999,9999,9999,1896164440
34,17,7,Jits_ISO_8,66,9999,9999,9999,1896964216
34,17,7,Jits_ISO_8,67,9999,9999,9999,1897764952
34,17,7,Jits_ISO_8,68,9999,9999,9999,1898564668
34,17,7,Jits_ISO_8,69,9999,9999,9999,1899364432
34,17,7,Jits_ISO_8,70,9999,9999,9999,1900164196
34,17,7,Jits_ISO_8,71,9999,9999,9999,1900964960
34,17,7,Jits_ISO_8,72,9999,9999,9999,1901764672
34,17,7,Jits_ISO_8,73,9999,9999,9999,1902564408
34,17,7,Jits_ISO_8,74,9999,9999,9999,1903364152
34,17,7,Jits_ISO_8,75,9999,9999,9999,1904164980
34,17,7,Jits_ISO_8,76,9999,9999,9999,1904964688
34,17,7,Jits_ISO_8,77,9999,9999,9999,1905764412
34,17,7,Jits_ISO_8,78,9999,9999,9999,1906564180
34,17,7,Jits_ISO_8,79,9999,9999,9999,1907364924
34,17,7,Jits_ISO_8,80,9999,9999,9999,1908164728
34,17,7,Jits_ISO_8,81,9999,9999,9999,1908964460
34,17,7,Jits_ISO_8,82,9999,9999,9999,1909764164
34,17,7,Jits_ISO_8,83,9999,9999,9999,1910564952
34,17,7,Jits_ISO_8,84,9999,9999,9999,1911364676
34,17,7,Jits_ISO_8,85,9999,9999,9999,1912164440
34,17,7,Jits_ISO_8,86,9999,9999,9999,1912964196
34,17,7,Jits_ISO_8,87,9999,9999,9999,1913764948
34,17,7,Jits_ISO_8,88,9999,9999,9999,1914564696
34,17,7,Jits_ISO_8,89,9999,9999,9999,1915364460
34,17,7,Jits_ISO_8,90,9999,9999,9999,1916164156
34,17,7,Jits_ISO_8,91,9999,9999,9999,1916964924
34,17,7,Jits_ISO_8,92,9999,9999,9999,1917764696
34,17,7,Jits_ISO_8,93,9999,9999,9999,1918564464
34,17,7,Jits_ISO_8,94,9999,9999,9999,1919364204
34,17,7,Jits_ISO_8,95,9999,9999,9999,1920164960
34,17,7,Jits_ISO_8,96,9999,9999,9999,1920964708
34,17,7,Jits_ISO_8,97,9999,9999,9999,1921764416
34,17,7,Jits_ISO_8,98,9999,9999,9999,1922564204
34,17,7,Jits_ISO_8,99,9999,9999,9999,1923364960
34,17,7,Jits_ISO_8,100,9999,9999,9999,1924164676
34,17,7,Jits_ISO_8,101,9999,9999,9999,1924964460
34,17,7,Jits_ISO_8,102,9999,9999,9999,1925764176
34,17,7,Jits_ISO_8,103,9999,9999,9999,1926564948
34,17,7,Jits_ISO_8,104,9999,9999,9999,1927364684
34,17,7,Jits_ISO_8,105,9999,9999,9999,1928164448
34,17,7,Jits_ISO_8,106,9999,9999,9999,1928964176
34,17,7,Jits_ISO_8,107,9999,9999,9999,1929764932
34,17,7,Jits_ISO_8,108,9999,9999,9999,1930564672
34,17,7,Jits_ISO_8,109,9999,9999,9999,1931364472
34,17,7,Jits_ISO_8,110,9999,9999,9999,1932164208
34,17,7,Jits_ISO_8,111,9999,9999,9999,1932964964
34,17,7,Jits_ISO_8,112,9999,9999,9999,1933764684
34,17,7,Jits_ISO_8,113,9999,9999,9999,1934564408
34,17,7,Jits_ISO_8,114,9999,9999,9999,1935364188
34,17,7,Jits_ISO_8,115,9999,9999,9999,1936164952
34,17,7,Jits_ISO_8,116,9999,9999,9999,1936964680
34,17,7,Jits_ISO_8,117,9999,9999,9999,1937764464
34,17,7,Jits_ISO_8,118,9999,9999,9999,1938564188
34,17,7,Jits_ISO_8,119,9999,9999,9999,1939364976
34,18,16,Jits_ISO_5,0,5,56,103,1950695832
34,18,16,Jits_ISO_5,1,5,63,98,1950699004
34,18,16,Jits_ISO_5,2,5,80,127,1950702048
34,18,16,Jits_ISO_5,0,5,56,103,1951195700
34,18,16,Jits_ISO_5,1,5,63,98,1951198572
34,18,16,Jits_ISO_5,2,5,80,127,1951201992
34,18,16,Jits_ISO_5,0,1,48,50,1951668880
34,18,16,Jits_ISO_5,1,5,56,103,1951696252
34,18,16,Jits_ISO_5,2,5,80,127,1951705404
34,18,16,Jits_ISO_5,3,5,63,98,1951726012
34,18,16,Jits_ISO_5,0,5,63,98,1952145876
34,18,16,Jits_ISO_5,1,1,48,88,1952157164
34,18,16,Jits_ISO_5,2,5,80,127,1952175768
34,18,16,Jits_ISO_5,3,5,56,103,1952186036
34,18,16,Jits_ISO_5,0,1,48,107,1952601860
34,18,16,Jits_ISO_5,1,5,80,127,1952705896
34,18,16,Jits_ISO_5,2,5,56,103,1952716092
34,18,16,Jits_ISO_5,3,5,63,98,1952745840
34,18,16,Jits_ISO_5,0,1,48,91,1953187812
34,18,16,Jits_ISO_5,1,5,63,98,1953196308
34,18,16,Jits_ISO_5,2,5,56,103,1953226208
34,18,16,Jits_ISO_5,3,5,80,127,1953236328
34,18,16,Jits_ISO_5,0,5,56,103,1953645908
34,18,16,Jits_ISO_5,1,5,63,98,1953695984
34,18,16,Jits_ISO_5,2,1,48,96,1953702616
34,18,16,Jits_ISO_5,3,1,38,21,1953712560
34,18,16,Jits_ISO_5,4,5,80,127,1953715816
34,18,16,Jits_ISO_5,0,5,80,127,1954145572
34,18,16,Jits_ISO_5,1,1,48,95,1954194668
34,18,16,Jits_ISO_5,2,5,63,98,1954196764
34,18,16,Jits_ISO_5,3,1,38,21,1954204912
34,18,16,Jits_ISO_5,4,5,56,103,1954235648
34,18,16,Jits_ISO_5,0,5,56,103,1954646448
34,18,16,Jits_ISO_5,1,5,63,98,1954676048
34,18,16,Jits_ISO_5,2,1,48,105,1954711024
34,18,16,Jits_ISO_5,3,5,80,127,1954745740
34,18,16,Jits_ISO_5,0,5,56,103,1955156468
34,18,16,Jits_ISO_5,1,1,48,86,1955188280
34,18,16,Jits_ISO_5,2,1,38,19,1955198636
34,18,16,Jits_ISO_5,3,5,80,127,1955215596
34,18,16,Jits_ISO_5,4,5,63,98,1955245640
34,18,16,Jits_ISO_5,0,5,56,103,1955666260
34,18,16,Jits_ISO_5,1,5,63,98,1955675632
34,18,16,Jits_ISO_5,2,1,48,71,1955678452
34,18,16,Jits_ISO_5,3,5,80,127,1955715584
34,18,16,Jits_ISO_5,0,5,63,98,1956155736
34,18,16,Jits_ISO_5,1,1,48,65,1956168968
34,18,16,Jits_ISO_5,2,5,80,127,1956235620
34,18,16,Jits_ISO_5,3,5,56,103,1956245816
34,18,16,Jits_ISO_5,0,1,48,64,1956678508
34,18,16,Jits_ISO_5,1,5,63,98,1956705512
34,18,16,Jits_ISO_5,2,5,56,103,1956745548
34,18,16,Jits_ISO_5,3,5,80,127,1956748536
34,18,16,Jits_ISO_5,0,5,56,103,1957165612
34,18,16,Jits_ISO_5,1,5,63,98,1957175956
34,18,16,Jits_ISO_5,2,1,48,71,1957183412
34,18,16,Jits_ISO_5,3,5,80,127,1957215740
34,18,16,Jits_ISO_5,0,5,56,103,1957655988
34,18,16,Jits_ISO_5,1,5,63,98,1957658832
34,18,16,Jits_ISO_5,2,5,80,127,1957676596
34,18,16,Jits_ISO_5,3,1,48,80,1957679120
34,18,16,Jits_ISO_5,4,1,38,19,1957688764
34,18,16,Jits_ISO_5,0,1,48,68,1958160024
34,18,16,Jits_ISO_5,1,5,80,127,1958165976
34,18,16,Jits_ISO_5,2,5,56,103,1958176540
34,18,16,Jits_ISO_5,3,5,63,98,1958245772
34,18,16,Jits_ISO_5,0,5,63,98,1958656500
34,18,16,Jits_ISO_5,1,1,48,67,1958671076
34,18,16,Jits_ISO_5,2,5,56,103,1958675756
34,18,16,Jits_ISO_5,3,5,80,127,1958755692
34,18,16,Jits_ISO_5,0,5,56,103,1959166492
34,18,16,Jits_ISO_5,1,1,48,70,1959180476
34,18,16,Jits_ISO_5,2,5,80,127,1959206424
34,18,16,Jits_ISO_5,3,5,63,98,1959215500
34,18,16,Jits_ISO_5,0,5,80,127,1959655680
34,18,16,Jits_ISO_5,1,1,48,69,1959680448
34,18,16,Jits_ISO_5,2,5,63,98,1959685572
34,18,16,Jits_ISO_5,3,5,56,103,1959725584
34,18,16,Jits_ISO_5,0,1,48,63,1960169024
34,18,16,Jits_ISO_5,1,5,56,103,1960175948
34,18,16,Jits_ISO_5,2,5,63,98,1960205772
34,18,16,Jits_ISO_5,3,5,80,127,1960255820
34,18,16,Jits_ISO_5,0,5,80,127,1960675692
34,18,16,Jits_ISO_5,1,1,48,56,1960687276
34,18,16,Jits_ISO_5,2,5,56,103,1960715696
34,18,16,Jits_ISO_5,3,5,63,98,1960725892
34,18,16,Jits_ISO_5,0,5,80,127,1961155888
34,18,16,Jits_ISO_5,1,1,48,61,1961196344
34,18,16,Jits_ISO_5,2,5,63,98,1961197688
34,18,16,Jits_ISO_5,3,5,56,103,1961256428
34,18,16,Jits_ISO_5,0,5,56,103,1961655560
34,18,16,Jits_ISO_5,1,5,80,127,1961666276
34,18,16,Jits_ISO_5,2,1,48,71,1961711416
34,18,16,Jits_ISO_5,3,5,63,98,1961745912
34,18,16,Jits_ISO_5,0,5,80,127,1962156280
34,18,16,Jits_ISO_5,1,1,48,56,1962195516
34,18,16,Jits_ISO_5,2,5,63,98,1962215692
34,18,16,Jits_ISO_5,3,5,56,103,1962245440
34,18,16,Jits_ISO_5,0,5,56,103,1962666444
34,18,16,Jits_ISO_5,1,1,48,68,1962695416
34,18,16,Jits_ISO_5,2,5,80,127,1962725632
34,18,16,Jits_ISO_5,3,5,63,98,1962765640
34,18,16,Jits_ISO_5,0,5,56,103,1963216316
34,18,16,Jits_ISO_5,1,1,48,67,1963217652
34,18,16,Jits_ISO_5,2,5,63,98,1963225376
34,18,16,Jits_ISO_5,3,5,80,127,1963228892
34,18,16,Jits_ISO_5,0,5,80,127,1963665636
34,18,16,Jits_ISO_5,1,1,48,64,1963723808
34,18,16,Jits_ISO_5,2,5,63,98,1963755836
34,18,16,Jits_ISO_5,3,5,56,103,1963766104
34,18,16,Jits_ISO_5,0,5,56,103,1964165520
34,18,16,Jits_ISO_5,1,5,63,98,1964168692
34,18,16,Jits_ISO_5,2,5,80,127,1964171812
34,18,16,Jits_ISO_5,3,1,48,47,1964226932
34,18,16,Jits_ISO_5,0,5,80,127,1964685636
34,18,16,Jits_ISO_5,1,1,48,68,1964686600
34,18,16,Jits_ISO_5,2,5,63,98,1964735828
34,18,16,Jits_ISO_5,3,5,56,103,1964765504
34,18,16,Jits_ISO_5,0,5,56,103,1965166180
34,18,16,Jits_ISO_5,1,5,80,127,1965176476
34,18,16,Jits_ISO_5,2,1,48,67,1965197124
34,18,16,Jits_ISO_5,3,5,63,98,1965245772
34,18,16,Jits_ISO_5,0,5,56,103,1965675816
34,18,16,Jits_ISO_5,1,1,48,66,1965686232
34,18,16,Jits_ISO_5,2,5,63,98,1965696292
34,18,16,Jits_ISO_5,3,5,80,127,1965755708
34,18,16,Jits_ISO_5,0,5,80,127,1966166424
34,18,16,Jits_ISO_5,1,1,48,95,1966179728
34,18,16,Jits_ISO_5,2,1,38,21,1966189900
34,18,16,Jits_ISO_5,3,5,63,98,1966236100
34,18,16,Jits_ISO_5,4,5,56,103,1966255584
34,18,16,Jits_ISO_5,0,5,80,127,1966695900
34,18,16,Jits_ISO_5,1,1,48,95,1966704964
34,18,16,Jits_ISO_5,2,5,56,103,1966706764
34,18,16,Jits_ISO_5,3,1,38,21,1966715080
34,18,16,Jits_ISO_5,4,5,63,98,1966717400
34,18,16,Jits_ISO_5,0,5,80,127,1967186184
34,18,16,Jits_ISO_5,1,1,48,111,1967204072
34,18,16,Jits_ISO_5,2,5,56,103,1967205884
34,18,16,Jits_ISO_5,3,5,63,98,1967276260
34,18,16,Jits_ISO_5,0,5,56,103,1967696348
34,18,16,Jits_ISO_5,1,1,48,72,1967713636
34,18,16,Jits_ISO_5,2,1,38,18,1967723184
34,18,16,Jits_ISO_5,3,5,80,127,1967726220
34,18,16,Jits_ISO_5,4,5,63,98,1967746404
34,18,16,Jits_ISO_5,0,5,63,98,1968185824
34,18,16,Jits_ISO_5,1,1,48,73,1968226104
34,18,16,Jits_ISO_5,2,1,38,18,1968235448
34,18,16,Jits_ISO_5,3,5,56,103,1968245988
34,18,16,Jits_ISO_5,4,5,80,127,1968276032
34,18,16,Jits_ISO_5,0,5,63,98,1968676176
34,18,16,Jits_ISO_5,1,5,80,127,1968679392
34,18,16,Jits_ISO_5,2,1,48,78,1968700864
34,18,16,Jits_ISO_5,3,5,56,103,1968766248
34,18,16,Jits_ISO_5,0,1,48,74,1969182224
34,18,16,Jits_ISO_5,1,1,38,19,1969192168
34,18,16,Jits_ISO_5,2,5,56,103,1969196548
34,18,16,Jits_ISO_5,3,5,63,98,1969226072
34,18,16,Jits_ISO_5,4,5,80,127,1969266084
34,18,16,Jits_ISO_5,0,5,63,98,1969696052
34,18,16,Jits_ISO_5,1,1,48,92,1969705692
34,18,16,Jits_ISO_5,2,5,56,103,1969735908
34,18,16,Jits_ISO_5,3,5,80,127,1969755468
34,18,16,Jits_ISO_5,0,5,63,98,1970206048
34,18,16,Jits_ISO_5,1,1,48,105,1970211860
34,18,16,Jits_ISO_5,2,1,38,22,1970221728
34,18,16,Jits_ISO_5,3,5,56,103,1970246032
34,18,16,Jits_ISO_5,4,5,80,127,1970256156
34,18,16,Jits_ISO_5,0,5,80,127,1970686232
34,18,16,Jits_ISO_5,1,1,48,110,1970713088
34,18,16,Jits_ISO_5,2,1,38,23,1970722884
34,18,16,Jits_ISO_5,3,5,63,98,1970755884
34,18,16,Jits_ISO_5,4,5,56,103,1970776340
34,18,16,Jits_ISO_5,0,5,56,103,1971176016
34,18,16,Jits_ISO_5,1,5,80,127,1971196252
34,18,16,Jits_ISO_5,2,1,48,117,1971233988
34,18,16,Jits_ISO_5,3,5,63,98,1971236108
34,18,16,Jits_ISO_5,0,5,63,98,1971685960
34,18,16,Jits_ISO_5,1,5,80,127,1971706124
34,18,16,Jits_ISO_5,2,1,48,97,1971728340
34,18,16,Jits_ISO_5,3,5,56,103,1971746052
34,18,16,Jits_ISO_5,0,5,63,98,1972185396
34,18,16,Jits_ISO_5,1,5,56,103,1972206004
34,18,16,Jits_ISO_5,2,5,80,127,1972216052
34,18,16,Jits_ISO_5,3,1,48,92,1972218868
34,18,16,Jits_ISO_5,0,1,48,103,1972680292
34,18,16,Jits_ISO_5,1,5,80,127,1972686316
34,18,16,Jits_ISO_5,2,5,56,103,1972705804
34,18,16,Jits_ISO_5,3,5,63,98,1972736224
34,18,16,Jits_ISO_5,0,1,48,102,1973159816
34,18,16,Jits_ISO_5,1,5,56,103,1973255524
34,18,16,Jits_ISO_5,2,5,80,127,1973259240
34,18,16,Jits_ISO_5,3,5,63,98,1973275888
34,18,16,Jits_ISO_5,0,5,63,98,1973676616
34,18,16,Jits_ISO_5,1,5,56,103,1973706216
34,18,16,Jits_ISO_5,2,1,48,86,1973720420
34,18,16,Jits_ISO_5,3,5,80,127,1973765476
34,18,16,Jits_ISO_5,0,1,48,91,1974193628
34,18,16,Jits_ISO_5,1,5,63,98,1974266248
34,18,16,Jits_ISO_5,2,5,56,103,1974275620
34,18,16,Jits_ISO_5,3,5,80,127,1974285888
34,18,16,Jits_ISO_5,0,5,56,103,1974715724
34,18,16,Jits_ISO_5,1,5,80,127,1974745400
34,18,16,Jits_ISO_5,2,1,48,92,1974746884
34,18,16,Jits_ISO_5,3,5,63,98,1974755812
34,18,16,Jits_ISO_5,0,1,48,68,1975215888
34,18,16,Jits_ISO_5,1,5,63,98,1975256296
34,18,16,Jits_ISO_5,2,5,56,103,1975265816
34,18,16,Jits_ISO_5,3,5,80,127,1975286052
34,18,16,Jits_ISO_5,0,5,56,103,1975685616
34,18,16,Jits_ISO_5,1,1,48,99,1975723208
34,18,16,Jits_ISO_5,2,5,63,98,1975745848
34,18,16,Jits_ISO_5,3,5,80,127,1975749212
34,18,16,Jits_ISO_5,0,5,80,127,1976205880
34,18,16,Jits_ISO_5,1,5,56,103,1976215852
34,18,16,Jits_ISO_5,2,1,48,80,1976224900
34,18,16,Jits_ISO_5,3,5,63,98,1976285748
34,18,16,Jits_ISO_5,0,5,80,127,1976696116
34,18,16,Jits_ISO_5,1,1,48,74,1976726808
34,18,16,Jits_ISO_5,2,5,56,103,1976765936
34,18,16,Jits_ISO_5,3,5,63,98,1976775908
34,18,16,Jits_ISO_5,0,1,48,85,1977230960
34,18,16,Jits_ISO_5,1,5,63,98,1977235716
34,18,16,Jits_ISO_5,2,5,56,103,1977246136
34,18,16,Jits_ISO_5,3,5,80,127,1977265620
34,18,16,Jits_ISO_5,0,5,80,127,1977686508
34,18,16,Jits_ISO_5,1,1,48,80,1977710752
34,18,16,Jits_ISO_5,2,1,38,19,1977720884
34,18,16,Jits_ISO_5,3,5,63,98,1977745788
34,18,16,Jits_ISO_5,4,5,56,103,1977785648
34,18,16,Jits_ISO_5,0,1,48,90,1978226984
34,18,16,Jits_ISO_5,1,5,56,103,1978236300
34,18,16,Jits_ISO_5,2,1,38,19,1978237412
34,18,16,Jits_ISO_5,3,5,63,98,1978245440
34,18,16,Jits_ISO_5,4,5,80,127,1978285452
34,18,16,Jits_ISO_5,0,5,56,103,1978696160
34,18,16,Jits_ISO_5,1,5,80,127,1978725836
34,18,16,Jits_ISO_5,2,1,48,84,1978734352
34,18,16,Jits_ISO_5,3,1,38,19,1978744632
34,18,16,Jits_ISO_5,4,5,63,98,1978775896
34,18,16,Jits_ISO_5,0,5,56,103,1979235692
34,18,16,Jits_ISO_5,1,1,48,66,1979238360
34,18,16,Jits_ISO_5,2,5,63,98,1979275720
34,18,16,Jits_ISO_5,3,5,80,127,1979278936
34,18,16,Jits_ISO_5,0,5,56,103,1979736704
34,18,16,Jits_ISO_5,1,5,63,98,1979745556
34,18,16,Jits_ISO_5,2,1,48,91,1979747344
34,18,16,Jits_ISO_5,3,5,80,127,1979766028
34,18,16,Jits_ISO_5,0,5,56,103,1980196292
34,18,16,Jits_ISO_5,1,5,80,127,1980199508
34,18,16,Jits_ISO_5,2,1,48,93,1980213432
34,18,16,Jits_ISO_5,3,5,63,98,1980236224
34,18,16,Jits_ISO_5,0,1,48,75,1980693980
34,18,16,Jits_ISO_5,1,5,63,98,1980735732
34,18,16,Jits_ISO_5,2,5,56,103,1980765628
34,18,16,Jits_ISO_5,3,5,80,127,1980785996
34,18,16,Jits_ISO_5,0,5,80,127,1981205804
34,18,16,Jits_ISO_5,1,5,56,103,1981216076
34,18,16,Jits_ISO_5,2,1,48,84,1981220168
34,18,16,Jits_ISO_5,3,5,63,98,1981226560
34,18,16,Jits_ISO_5,0,5,56,103,1981705476
34,18,16,Jits_ISO_5,1,1,48,112,1981719524
34,18,16,Jits_ISO_5,2,5,80,127,1981745480
34,18,16,Jits_ISO_5,3,5,63,98,1981776348
34,18,16,Jits_ISO_5,0,5,63,98,1982215424
34,18,16,Jits_ISO_5,1,5,80,127,1982225844
34,18,16,Jits_ISO_5,2,5,56,103,1982235964
34,18,16,Jits_ISO_5,3,1,48,83,1982259608
34,18,16,Jits_ISO_5,0,5,56,103,1982695676
34,18,16,Jits_ISO_5,1,1,48,76,1982744200
34,18,16,Jits_ISO_5,2,1,38,18,1982754144
34,18,16,Jits_ISO_5,3,5,63,98,1982765480
34,18,16,Jits_ISO_5,4,5,80,127,1982775600
34,18,16,Jits_ISO_5,0,5,80,127,1983195416
34,18,16,Jits_ISO_5,1,5,56,103,1983205684
34,18,16,Jits_ISO_5,2,1,48,87,1983242204
34,18,16,Jits_ISO_5,3,1,38,19,1983251776
34,18,16,Jits_ISO_5,4,5,63,98,1983255784
34,18,16,Jits_ISO_5,0,1,48,85,1983701192
34,18,16,Jits_ISO_5,1,5,80,127,1983705496
34,18,16,Jits_ISO_5,2,5,56,103,1983765808
34,18,16,Jits_ISO_5,3,5,63,98,1983795540
34,18,16,Jits_ISO_5,0,5,56,103,1984206584
34,18,16,Jits_ISO_5,1,5,80,127,1984209568
34,18,16,Jits_ISO_5,2,1,48,70,1984223420
34,18,16,Jits_ISO_5,3,5,63,98,1984246508
34,18,16,Jits_ISO_5,0,1,48,78,1984726736
34,18,16,Jits_ISO_5,1,5,56,103,1984735528
34,18,16,Jits_ISO_5,2,5,63,98,1984766472
34,18,16,Jits_ISO_5,3,5,80,127,1984775472
34,18,16,Jits_ISO_5,0,5,63,98,1985245536
34,18,16,Jits_ISO_5,1,5,80,127,1985255732
34,18,16,Jits_ISO_5,2,1,48,81,1985263636
34,18,16,Jits_ISO_5,3,5,56,103,1985266216
34,18,16,Jits_ISO_5,0,5,80,127,1985706312
34,18,16,Jits_ISO_5,1,5,56,103,1985755464
34,18,16,Jits_ISO_5,2,5,63,98,1985758680
34,18,16,Jits_ISO_5,3,1,48,88,1985759644
34,18,16,Jits_ISO_5,4,1,38,20,1985769588
34,18,16,Jits_ISO_5,0,5,56,103,1986235720
34,18,16,Jits_ISO_5,1,1,48,95,1986254204
34,18,16,Jits_ISO_5,2,5,80,127,1986256172
34,18,16,Jits_ISO_5,3,5,63,98,1986265396
34,18,16,Jits_ISO_5,0,5,63,98,1986716212
34,18,16,Jits_ISO_5,1,5,56,103,1986745664
34,18,16,Jits_ISO_5,2,1,48,82,1986753044
34,18,16,Jits_ISO_5,3,1,38,19,1986762840
34,18,16,Jits_ISO_5,4,5,80,127,1986766392
34,18,16,Jits_ISO_5,0,1,48,90,1987223304
34,18,16,Jits_ISO_5,1,5,56,103,1987225968
34,18,16,Jits_ISO_5,2,5,80,127,1987236088
34,18,16,Jits_ISO_5,3,5,63,98,1987305764
34,18,16,Jits_ISO_5,0,5,63,98,1987715368
34,18,16,Jits_ISO_5,1,1,48,97,1987721776
34,18,16,Jits_ISO_5,2,5,80,127,1987756348
34,18,16,Jits_ISO_5,3,5,56,103,1987796280
34,18,16,Jits_ISO_5,0,5,56,103,1988226412
34,18,16,Jits_ISO_5,1,5,63,98,1988235560
34,18,16,Jits_ISO_5,2,1,48,99,1988242940
34,18,16,Jits_ISO_5,3,5,80,127,1988256236
34,18,16,Jits_ISO_5,0,5,63,98,1988766164
34,18,16,Jits_ISO_5,1,1,48,83,1988769728
34,18,16,Jits_ISO_5,2,5,80,127,1988785496
34,18,16,Jits_ISO_5,3,5,56,103,1988806100
34,18,16,Jits_ISO_5,0,5,56,103,1989206320
34,18,16,Jits_ISO_5,1,5,80,127,1989286212
34,18,16,Jits_ISO_5,2,1,48,75,1989294304
34,18,16,Jits_ISO_5,3,5,63,98,1989296176
34,18,16,Jits_ISO_5,0,5,80,127,1989756140
34,18,16,Jits_ISO_5,1,5,63,98,1989765512
34,18,16,Jits_ISO_5,2,1,48,96,1989783080
34,18,16,Jits_ISO_5,3,5,56,103,1989796152
34,18,16,Jits_ISO_5,0,5,63,98,1990216228
34,18,16,Jits_ISO_5,1,5,80,127,1990256096
34,18,16,Jits_ISO_5,2,1,48,84,1990269796
34,18,16,Jits_ISO_5,3,5,56,103,1990316352
34,18,16,Jits_ISO_5,0,5,63,98,1990726232
34,18,16,Jits_ISO_5,1,5,56,103,1990776380
34,18,16,Jits_ISO_5,2,1,48,89,1990784976
34,18,16,Jits_ISO_5,3,5,80,127,1990806048
34,18,16,Jits_ISO_5,0,5,80,127,1991236004
34,18,16,Jits_ISO_5,1,5,63,98,1991246124
34,18,16,Jits_ISO_5,2,1,48,91,1991261452
34,18,16,Jits_ISO_5,3,5,56,103,1991315968
34,18,16,Jits_ISO_5,0,1,48,93,1991770700
34,18,16,Jits_ISO_5,1,5,80,127,1991806272
34,18,16,Jits_ISO_5,2,5,56,103,1991815492
34,18,16,Jits_ISO_5,3,5,63,98,1991818632
34,18,16,Jits_ISO_5,0,5,56,103,1992245604
34,18,16,Jits_ISO_5,1,5,80,127,1992266284
34,18,16,Jits_ISO_5,2,5,63,98,1992276328
34,18,16,Jits_ISO_5,3,1,48,100,1992286116
34,18,16,Jits_ISO_5,0,5,63,98,1992755476
34,18,16,Jits_ISO_5,1,1,48,95,1992763844
34,18,16,Jits_ISO_5,2,5,56,103,1992795556
34,18,16,Jits_ISO_5,3,5,80,127,1992815936
34,18,16,Jits_ISO_5,0,5,63,98,1993256260
34,18,16,Jits_ISO_5,1,1,48,97,1993267696
34,18,16,Jits_ISO_5,2,1,38,20,1993278088
34,18,16,Jits_ISO_5,3,5,56,103,1993315868
34,18,16,Jits_ISO_5,4,5,80,127,1993318788
34,18,16,Jits_ISO_5,0,5,56,103,1993716120
34,18,16,Jits_ISO_5,1,5,80,127,1993735756
34,18,16,Jits_ISO_5,2,1,48,101,1993774264
34,18,16,Jits_ISO_5,3,5,63,98,1993775984
34,18,16,Jits_ISO_5,0,5,56,103,1994245844
34,18,16,Jits_ISO_5,1,5,63,98,1994265932
34,18,16,Jits_ISO_5,2,1,48,104,1994268976
34,18,16,Jits_ISO_5,3,5,80,127,1994276192
34,18,16,Jits_ISO_5,0,5,80,127,1994715412
34,18,16,Jits_ISO_5,1,5,56,103,1994746132
34,18,16,Jits_ISO_5,2,1,48,93,1994749180
34,18,16,Jits_ISO_5,3,5,63,98,1994786288
34,18,16,Jits_ISO_5,0,5,80,127,1995225496
34,18,16,Jits_ISO_5,1,1,48,99,1995243832
34,18,16,Jits_ISO_5,2,5,56,103,1995245876
34,18,16,Jits_ISO_5,3,1,38,21,1995254316
34,18,16,Jits_ISO_5,4,5,63,98,1995306476
34,18,16,Jits_ISO_5,0,5,56,103,1995736412
34,18,16,Jits_ISO_5,1,1,48,101,1995743656
34,18,16,Jits_ISO_5,2,5,80,127,1995755816
34,18,16,Jits_ISO_5,3,5,63,98,1995816276
34,18,16,Jits_ISO_5,0,5,80,127,1996215864
34,18,16,Jits_ISO_5,1,5,56,103,1996226060
34,18,16,Jits_ISO_5,2,5,63,98,1996265848
34,18,16,Jits_ISO_5,3,1,48,99,1996268816
34,18,16,Jits_ISO_5,0,5,63,98,1996716508
34,18,16,Jits_ISO_5,1,1,48,114,1996728544
34,18,16,Jits_ISO_5,2,5,56,103,1996756288
34,18,16,Jits_ISO_5,3,5,80,127,1996759428
34,18,16,Jits_ISO_5,0,1,48,111,1997216512
34,18,16,Jits_ISO_5,1,5,63,98,1997245908
34,18,16,Jits_ISO_5,2,5,80,127,1997285844
34,18,16,Jits_ISO_5,3,5,56,103,1997315576
34,18,16,Jits_ISO_5,0,5,56,103,1997736380
34,18,16,Jits_ISO_5,1,1,48,84,1997741148
34,18,16,Jits_ISO_5,2,5,63,98,1997745748
34,18,16,Jits_ISO_5,3,5,80,127,1997776096
34,18,16,Jits_ISO_5,0,5,80,127,1998225716
34,18,16,Jits_ISO_5,1,1,48,89,1998280444
34,18,16,Jits_ISO_5,2,5,63,98,1998296360
34,18,16,Jits_ISO_5,3,5,56,103,1998305732
34,18,16,Jits_ISO_5,0,5,63,98,1998725688
34,18,16,Jits_ISO_5,1,1,48,76,1998780720
34,18,16,Jits_ISO_5,2,5,56,103,1998796108
34,18,16,Jits_ISO_5,3,5,80,127,1998806380
34,18,16,Jits_ISO_5,0,5,63,98,1999226244
34,18,16,Jits_ISO_5,1,1,48,76,1999242092
34,18,16,Jits_ISO_5,2,5,56,103,1999245652
34,18,16,Jits_ISO_5,3,5,80,127,1999285736
34,18,16,Jits_ISO_5,0,1,48,80,1999728536
34,18,16,Jits_ISO_5,1,5,56,103,1999736156
34,18,16,Jits_ISO_5,2,1,38,19,1999738824
34,18,16,Jits_ISO_5,3,5,63,98,1999746568
34,18,16,Jits_ISO_5,4,5,80,127,1999827244
34,18,16,Jits_ISO_5,0,5,63,98,2000225848
34,18,16,Jits_ISO_5,1,1,48,70,2000236692
34,18,16,Jits_ISO_5,2,1,38,17,2000246744
34,18,16,Jits_ISO_5,3,5,56,103,2000256360
34,18,16,Jits_ISO_5,4,5,80,127,2000296220
34,18,16,Jits_ISO_5,0,5,56,103,2000726556
34,18,16,Jits_ISO_5,1,1,48,76,2000735972
34,18,16,Jits_ISO_5,2,1,38,18,2000746140
34,18,16,Jits_ISO_5,3,5,63,98,2000766268
34,18,16,Jits_ISO_5,4,5,80,127,2000806204
34,18,16,Jits_ISO_5,0,5,80,127,2001236480
34,18,16,Jits_ISO_5,1,1,48,69,2001245380
34,18,16,Jits_ISO_5,2,1,38,17,2001255168
34,18,16,Jits_ISO_5,3,5,56,103,2001316124
34,18,16,Jits_ISO_5,4,5,63,98,2001325572
34,18,16,Jits_ISO_5,0,5,56,103,2001776000
34,18,16,Jits_ISO_5,1,5,63,98,2001779016
34,18,16,Jits_ISO_5,2,1,48,58,2001779980
34,18,16,Jits_ISO_5,3,5,80,127,2001786360
34,18,16,Jits_ISO_5,0,1,48,62,2002281544
34,18,16,Jits_ISO_5,1,5,56,103,2002296132
34,18,16,Jits_ISO_5,2,5,63,98,2002315696
34,18,16,Jits_ISO_5,3,5,80,127,2002325740
34,18,16,Jits_ISO_5,0,1,48,58,2002744880
34,18,16,Jits_ISO_5,1,5,63,98,2002755916
34,18,16,Jits_ISO_5,2,5,80,127,2002766188
34,18,16,Jits_ISO_5,3,5,56,103,2002785600
34,18,16,Jits_ISO_5,0,5,63,98,2003255728
34,18,16,Jits_ISO_5,1,1,48,62,2003283188
34,18,16,Jits_ISO_5,2,5,56,103,2003335464
34,18,16,Jits_ISO_5,3,5,80,127,2003338528
34,18,16,Jits_ISO_5,0,5,63,98,2003756352
34,18,16,Jits_ISO_5,1,5,56,103,2003775912
34,18,16,Jits_ISO_5,2,1,48,59,2003800900
34,18,16,Jits_ISO_5,3,5,80,127,2003805504
34,18,16,Jits_ISO_5,0,5,56,103,2004256088
34,18,16,Jits_ISO_5,1,5,63,98,2004275572
34,18,16,Jits_ISO_5,2,5,80,127,2004285844
34,18,16,Jits_ISO_5,3,1,48,62,2004314220
34,18,16,Jits_ISO_5,0,5,56,103,2004785576
34,18,16,Jits_ISO_5,1,1,48,59,2004810120
34,18,16,Jits_ISO_5,2,5,63,98,2004816512
34,18,16,Jits_ISO_5,3,5,80,127,2004819728
34,18,16,Jits_ISO_5,0,5,56,103,2005236024
34,18,16,Jits_ISO_5,1,1,48,62,2005274520
34,18,16,Jits_ISO_5,2,5,63,98,2005276328
34,18,16,Jits_ISO_5,3,5,80,127,2005336416
34,18,16,Jits_ISO_5,0,5,56,103,2005756448
34,18,16,Jits_ISO_5,1,1,48,96,2005762408
34,18,16,Jits_ISO_5,2,5,63,98,2005765444
34,18,16,Jits_ISO_5,3,5,80,127,2005825904
34,18,16,Jits_ISO_5,0,1,48,114,2006253776
34,18,16,Jits_ISO_5,1,5,56,103,2006255892
34,18,16,Jits_ISO_5,2,5,80,127,2006275452
34,18,16,Jits_ISO_5,3,5,63,98,2006306248
34,18,16,Jits_ISO_5,0,1,48,81,2006752840
34,18,16,Jits_ISO_5,1,5,80,127,2006755576
34,18,16,Jits_ISO_5,2,5,56,103,2006766068
34,18,16,Jits_ISO_5,3,5,63,98,2006786304
34,18,16,Jits_ISO_5,0,5,63,98,2007246396
34,18,16,Jits_ISO_5,1,1,48,76,2007249140
34,18,16,Jits_ISO_5,2,5,80,127,2007326332
34,18,16,Jits_ISO_5,3,5,56,103,2007336452
34,18,16,Jits_ISO_5,0,1,48,78,2007778392
34,18,16,Jits_ISO_5,1,5,80,127,2007806288
34,18,16,Jits_ISO_5,2,5,56,103,2007825692
34,18,16,Jits_ISO_5,3,5,63,98,2007828836
34,18,16,Jits_ISO_5,0,1,48,69,2008273612
34,18,16,Jits_ISO_5,1,5,63,98,2008276496
34,18,16,Jits_ISO_5,2,5,80,127,2008279636
34,18,16,Jits_ISO_5,3,5,56,103,2008335760
34,18,16,Jits_ISO_5,0,5,56,103,2008765740
34,18,16,Jits_ISO_5,1,5,80,127,2008776012
34,18,16,Jits_ISO_5,2,5,63,98,2008816020
34,18,16,Jits_ISO_5,0,5,56,103,2009246220
34,18,16,Jits_ISO_5,1,1,48,74,2009257656
34,18,16,Jits_ISO_5,2,5,63,98,2009305332
34,18,16,Jits_ISO_5,3,5,80,127,2009315604
34,18,16,Jits_ISO_5,0,1,48,83,2009748712
34,18,16,Jits_ISO_5,1,5,63,98,2009756152
34,18,16,Jits_ISO_5,2,5,80,127,2009796164
34,18,16,Jits_ISO_5,3,5,56,103,2009835880
34,18,16,Jits_ISO_5,0,5,56,103,2010255820
34,18,16,Jits_ISO_5,1,1,48,86,2010263668
34,18,16,Jits_ISO_5,2,5,63,98,2010335452
34,18,16,Jits_ISO_5,3,5,80,127,2010338744
34,18,16,Jits_ISO_5,0,9999,9999,9999,1950943328
34,18,16,Jits_ISO_5,1,9999,9999,9999,1951444024
34,18,16,Jits_ISO_5,2,9999,9999,9999,1951943744
34,18,16,Jits_ISO_5,3,9999,9999,9999,1952443472
34,18,16,Jits_ISO_5,4,9999,9999,9999,1952943212
34,18,16,Jits_ISO_5,5,9999,9999,9999,1953443948
34,18,16,Jits_ISO_5,6,9999,9999,9999,1953943636
34,18,16,Jits_ISO_5,7,9999,9999,9999,1954443316
34,18,16,Jits_ISO_5,8,9999,9999,9999,1954944076
34,18,16,Jits_ISO_5,9,9999,9999,9999,1955454060
34,18,16,Jits_ISO_5,10,9999,9999,9999,1955953744
34,18,16,Jits_ISO_5,11,9999,9999,9999,1956453488
34,18,16,Jits_ISO_5,12,9999,9999,9999,1956953144
34,18,16,Jits_ISO_5,13,9999,9999,9999,1957453920
34,18,16,Jits_ISO_5,14,9999,9999,9999,1957953604
34,18,16,Jits_ISO_5,15,9999,9999,9999,1958453320
34,18,16,Jits_ISO_5,16,9999,9999,9999,1958954100
34,18,16,Jits_ISO_5,17,9999,9999,9999,1959453756
34,18,16,Jits_ISO_5,18,9999,9999,9999,1959953504
34,18,16,Jits_ISO_5,19,9999,9999,9999,1960453180
34,18,16,Jits_ISO_5,20,9999,9999,9999,1960953964
34,18,16,Jits_ISO_5,21,9999,9999,9999,1961453636
34,18,16,Jits_ISO_5,22,9999,9999,9999,1961953384
34,18,16,Jits_ISO_5,23,9999,9999,9999,1962454108
34,18,16,Jits_ISO_5,24,9999,9999,9999,1962964048
34,18,16,Jits_ISO_5,25,9999,9999,9999,1963463788
34,18,16,Jits_ISO_5,26,9999,9999,9999,1963963460
34,18,16,Jits_ISO_5,27,9999,9999,9999,1964463184
34,18,16,Jits_ISO_5,28,9999,9999,9999,1964963908
34,18,16,Jits_ISO_5,29,9999,9999,9999,1965463652
34,18,16,Jits_ISO_5,30,9999,9999,9999,1965963328
34,18,16,Jits_ISO_5,31,9999,9999,9999,1966464076
34,18,16,Jits_ISO_5,32,9999,9999,9999,1966974060
34,18,16,Jits_ISO_5,33,9999,9999,9999,1967473744
34,18,16,Jits_ISO_5,34,9999,9999,9999,1967973448
34,18,16,Jits_ISO_5,35,9999,9999,9999,1968473188
34,18,16,Jits_ISO_5,36,9999,9999,9999,1968973916
34,18,16,Jits_ISO_5,37,9999,9999,9999,1969473652
34,18,16,Jits_ISO_5,38,9999,9999,9999,1969973352
34,18,16,Jits_ISO_5,39,9999,9999,9999,1970474084
34,18,16,Jits_ISO_5,40,9999,9999,9999,1970973820
34,18,16,Jits_ISO_5,41,9999,9999,9999,1971473468
34,18,16,Jits_ISO_5,42,9999,9999,9999,1971973224
34,18,16,Jits_ISO_5,43,9999,9999,9999,1972473928
34,18,16,Jits_ISO_5,44,9999,9999,9999,1972973660
34,18,16,Jits_ISO_5,45,9999,9999,9999,1973473336
34,18,16,Jits_ISO_5,46,9999,9999,9999,1973974068
34,18,16,Jits_ISO_5,47,9999,9999,9999,1974484072
34,18,16,Jits_ISO_5,48,9999,9999,9999,1974983732
34,18,16,Jits_ISO_5,49,9999,9999,9999,1975483484
34,18,16,Jits_ISO_5,50,9999,9999,9999,1975983208
34,18,16,Jits_ISO_5,51,9999,9999,9999,1976483928
34,18,16,Jits_ISO_5,52,9999,9999,9999,1976983604
34,18,16,Jits_ISO_5,53,9999,9999,9999,1977483352
34,18,16,Jits_ISO_5,54,9999,9999,9999,1977984104
34,18,16,Jits_ISO_5,55,9999,9999,9999,1978494016
34,18,16,Jits_ISO_5,56,9999,9999,9999,1978993724
34,18,16,Jits_ISO_5,57,9999,9999,9999,1979493428
34,18,16,Jits_ISO_5,58,9999,9999,9999,1979993176
34,18,16,Jits_ISO_5,59,9999,9999,9999,1980493884
34,18,16,Jits_ISO_5,60,9999,9999,9999,1980993632
34,18,16,Jits_ISO_5,61,9999,9999,9999,1981493364
34,18,16,Jits_ISO_5,62,9999,9999,9999,1981994080
34,18,16,Jits_ISO_5,63,9999,9999,9999,1982493764
34,18,16,Jits_ISO_5,64,9999,9999,9999,1982993528
34,18,16,Jits_ISO_5,65,9999,9999,9999,1983493200
34,18,16,Jits_ISO_5,66,9999,9999,9999,1983993960
34,18,16,Jits_ISO_5,67,9999,9999,9999,1984493680
34,18,16,Jits_ISO_5,68,9999,9999,9999,1984993356
34,18,16,Jits_ISO_5,69,9999,9999,9999,1985494140
34,18,16,Jits_ISO_5,70,9999,9999,9999,1986004016
34,18,16,Jits_ISO_5,71,9999,9999,9999,1986503800
34,18,16,Jits_ISO_5,72,9999,9999,9999,1987003500
34,18,16,Jits_ISO_5,73,9999,9999,9999,1987503200
34,18,16,Jits_ISO_5,74,9999,9999,9999,1988003904
34,18,16,Jits_ISO_5,75,9999,9999,9999,1988503636
34,18,16,Jits_ISO_5,76,9999,9999,9999,1989003312
34,18,16,Jits_ISO_5,77,9999,9999,9999,1989504100
34,18,16,Jits_ISO_5,78,9999,9999,9999,1990014036
34,18,16,Jits_ISO_5,79,9999,9999,9999,1990513764
34,18,16,Jits_ISO_5,80,9999,9999,9999,1991013496
34,18,16,Jits_ISO_5,81,9999,9999,9999,1991513156
34,18,16,Jits_ISO_5,82,9999,9999,9999,1992013876
34,18,16,Jits_ISO_5,83,9999,9999,9999,1992513608
34,18,16,Jits_ISO_5,84,9999,9999,9999,1993013296
34,18,16,Jits_ISO_5,85,9999,9999,9999,1993514100
34,18,16,Jits_ISO_5,86,9999,9999,9999,1994013796
34,18,16,Jits_ISO_5,87,9999,9999,9999,1994513480
34,18,16,Jits_ISO_5,88,9999,9999,9999,1995013236
34,18,16,Jits_ISO_5,89,9999,9999,9999,1995513924
34,18,16,Jits_ISO_5,90,9999,9999,9999,1996013636
34,18,16,Jits_ISO_5,91,9999,9999,9999,1996513388
34,18,16,Jits_ISO_5,92,9999,9999,9999,1997014104
34,18,16,Jits_ISO_5,93,9999,9999,9999,1997524036
34,18,16,Jits_ISO_5,94,9999,9999,9999,1998023792
34,18,16,Jits_ISO_5,95,9999,9999,9999,1998523464
34,18,16,Jits_ISO_5,96,9999,9999,9999,1999023216
34,18,16,Jits_ISO_5,97,9999,9999,9999,1999523920
34,18,16,Jits_ISO_5,98,9999,9999,9999,2000023628
34,18,16,Jits_ISO_5,99,9999,9999,9999,2000523368
34,18,16,Jits_ISO_5,100,9999,9999,9999,2001024064
34,18,16,Jits_ISO_5,101,9999,9999,9999,2001534060
34,18,16,Jits_ISO_5,102,9999,9999,9999,2002033760
34,18,16,Jits_ISO_5,103,9999,9999,9999,2002533488
34,18,16,Jits_ISO_5,104,9999,9999,9999,2003033144
34,18,16,Jits_ISO_5,105,9999,9999,9999,2003533920
34,18,16,Jits_ISO_5,106,9999,9999,9999,2004033648
34,18,16,Jits_ISO_5,107,9999,9999,9999,2004533312
34,18,16,Jits_ISO_5,108,9999,9999,9999,2005034100
34,18,16,Jits_ISO_5,109,9999,9999,9999,2005533776
34,18,16,Jits_ISO_5,110,9999,9999,9999,2006033524
34,18,16,Jits_ISO_5,111,9999,9999,9999,2006533196
34,18,16,Jits_ISO_5,112,9999,9999,9999,2007033928
34,18,16,Jits_ISO_5,113,9999,9999,9999,2007533664
34,18,16,Jits_ISO_5,114,9999,9999,9999,2008033392
34,18,16,Jits_ISO_5,115,9999,9999,9999,2008534092
34,18,16,Jits_ISO_5,116,9999,9999,9999,2009044032
34,18,16,Jits_ISO_5,117,9999,9999,9999,2009543748
34,18,16,Jits_ISO_5,118,9999,9999,9999,2010043500
34,18,16,Jits_ISO_5,119,9999,9999,9999,2010543228
34,19,3,ISIP_8,0,5,42,127,2062867712
34,19,3,ISIP_8,1,5,42,127,2063667688
34,19,3,ISIP_8,2,5,42,127,2064468416
34,19,3,ISIP_8,3,1,48,84,2064522276
34,19,3,ISIP_8,4,5,42,127,2065268248
34,19,3,ISIP_8,5,1,48,75,2065269216
34,19,3,ISIP_8,6,1,48,66,2066059192
34,19,3,ISIP_8,7,5,42,127,2066067904
34,19,3,ISIP_8,8,1,48,71,2066838056
34,19,3,ISIP_8,9,5,42,127,2066867560
34,19,3,ISIP_8,10,1,48,70,2067640708
34,19,3,ISIP_8,11,5,42,127,2067668340
34,19,3,ISIP_8,12,1,48,77,2068444480
34,19,3,ISIP_8,13,5,42,127,2068467924
34,19,3,ISIP_8,14,5,42,127,2069267816
34,19,3,ISIP_8,15,1,48,83,2069269528
34,19,3,ISIP_8,16,1,48,74,2070053444
34,19,3,ISIP_8,17,5,42,127,2070067616
34,19,3,ISIP_8,18,1,48,89,2070860356
34,19,3,ISIP_8,19,5,42,127,2070868320
34,19,3,ISIP_8,20,5,42,127,2071668160
34,19,3,ISIP_8,21,1,48,86,2071671648
34,19,3,ISIP_8,22,1,48,75,2072461720
34,19,3,ISIP_8,23,5,42,127,2072467812
34,19,3,ISIP_8,24,1,48,73,2073235272
34,19,3,ISIP_8,25,5,42,127,2073267620
34,19,3,ISIP_8,26,1,48,74,2074043984
34,19,3,ISIP_8,27,5,42,127,2074068476
34,19,3,ISIP_8,28,1,48,78,2074842668
34,19,3,ISIP_8,29,5,42,127,2074868060
34,19,3,ISIP_8,30,1,48,73,2075650260
34,19,3,ISIP_8,31,5,42,127,2075668092
34,19,3,ISIP_8,32,1,48,77,2076453876
34,19,3,ISIP_8,33,5,42,127,2076467528
34,19,3,ISIP_8,34,1,48,76,2077227880
34,19,3,ISIP_8,35,5,42,127,2077268308
34,19,3,ISIP_8,36,1,48,65,2078040632
34,19,3,ISIP_8,37,5,42,127,2078067992
34,19,3,ISIP_8,38,1,48,82,2078854452
34,19,3,ISIP_8,39,5,42,127,2078868096
34,19,3,ISIP_8,40,1,48,90,2079644840
34,19,3,ISIP_8,41,5,42,127,2079667608
34,19,3,ISIP_8,42,1,48,76,2080460124
34,19,3,ISIP_8,43,5,42,127,2080468384
34,19,3,ISIP_8,44,1,48,86,2081245944
34,19,3,ISIP_8,45,5,42,127,2081268120
34,19,3,ISIP_8,46,1,48,58,2082036628
34,19,3,ISIP_8,47,5,42,127,2082067856
34,19,3,ISIP_8,48,1,48,86,2082833292
34,19,3,ISIP_8,49,5,42,127,2082867812
34,19,3,ISIP_8,50,1,48,105,2083646496
34,19,3,ISIP_8,51,5,42,127,2083668292
34,19,3,ISIP_8,52,1,48,73,2084433060
34,19,3,ISIP_8,53,5,42,127,2084467976
34,19,3,ISIP_8,54,1,48,77,2085246136
34,19,3,ISIP_8,55,5,42,127,2085267784
34,19,3,ISIP_8,56,1,48,91,2086030304
34,19,3,ISIP_8,57,5,42,127,2086067740
34,19,3,ISIP_8,58,1,48,90,2086858464
34,19,3,ISIP_8,59,1,48,89,2087650864
34,19,3,ISIP_8,60,1,48,83,2088462416
34,19,3,ISIP_8,61,1,48,85,2089271128
34,19,3,ISIP_8,62,1,48,88,2090093248
34,19,3,ISIP_8,63,1,48,70,2090897092
34,19,3,ISIP_8,64,1,48,80,2091712080
34,19,3,ISIP_8,65,1,48,75,2092517648
34,19,3,ISIP_8,66,1,48,57,2093317300
34,19,3,ISIP_8,67,1,48,72,2094095788
34,19,3,ISIP_8,68,1,48,70,2094924236
34,19,3,ISIP_8,69,1,48,75,2095728928
34,19,3,ISIP_8,70,1,48,77,2096582736
34,19,3,ISIP_8,71,1,48,69,2097395780
34,19,3,ISIP_8,72,1,48,67,2098208744
34,19,3,ISIP_8,73,1,48,78,2099028000
34,19,3,ISIP_8,74,1,48,64,2099829244
34,19,3,ISIP_8,75,1,48,59,2100621572
34,19,3,ISIP_8,76,1,48,83,2101440444
34,19,3,ISIP_8,77,1,48,79,2102277800
34,19,3,ISIP_8,78,1,48,76,2103106928
34,19,3,ISIP_8,79,1,48,76,2103914080
34,19,3,ISIP_8,80,1,48,85,2104745528
34,19,3,ISIP_8,81,1,48,82,2105555208
34,19,3,ISIP_8,82,1,48,79,2106373780
34,19,3,ISIP_8,83,1,48,77,2107186900
34,19,3,ISIP_8,84,1,48,58,2107970244
34,19,3,ISIP_8,85,1,48,69,2108779576
34,19,3,ISIP_8,86,1,48,86,2109609744
34,19,3,ISIP_8,87,1,48,74,2110450388
34,19,3,ISIP_8,88,1,48,84,2111269564
34,19,3,ISIP_8,89,1,48,92,2112086648
34,19,3,ISIP_8,90,1,48,81,2112920136
34,19,3,ISIP_8,91,1,48,73,2113765192
34,19,3,ISIP_8,92,1,48,81,2114612420
34,19,3,ISIP_8,93,1,48,78,2115446652
34,19,3,ISIP_8,94,1,48,82,2116281984
34,19,3,ISIP_8,95,1,48,74,2117132948
34,19,3,ISIP_8,96,1,48,76,2117938664
34,19,3,ISIP_8,97,1,48,75,2118787708
34,19,3,ISIP_8,98,1,48,64,2119608536
34,19,3,ISIP_8,99,1,48,75,2120413572
34,19,3,ISIP_8,100,1,48,79,2121252120
34,19,3,ISIP_8,101,1,48,66,2122054020
34,19,3,ISIP_8,102,1,48,70,2122814400
34,19,3,ISIP_8,103,1,48,79,2123609572
34,19,3,ISIP_8,104,1,48,80,2124414784
34,19,3,ISIP_8,105,1,48,71,2125249820
34,19,3,ISIP_8,106,1,48,81,2126047976
34,19,3,ISIP_8,107,1,48,75,2126878164
34,19,3,ISIP_8,108,1,48,74,2127721824
34,19,3,ISIP_8,109,1,48,85,2128560224
34,19,3,ISIP_8,110,1,48,90,2129385308
34,19,3,ISIP_8,111,1,48,80,2130209568
34,19,3,ISIP_8,112,1,48,73,2130971076
34,19,3,ISIP_8,113,1,48,77,2131769084
34,19,3,ISIP_8,114,1,48,74,2132565228
34,19,3,ISIP_8,115,1,48,73,2133403200
34,19,3,ISIP_8,116,1,48,77,2134193656
34,19,3,ISIP_8,117,1,48,76,2135018220
34,19,3,ISIP_8,118,1,48,61,2135831484
34,19,3,ISIP_8,119,1,48,71,2136668764
34,19,3,ISIP_8,120,1,48,71,2137459092
34,19,3,ISIP_8,121,1,48,84,2138258148
34,19,3,ISIP_8,122,1,48,80,2139024672
34,19,3,ISIP_8,123,1,48,63,2139779444
34,19,3,ISIP_8,124,1,48,60,2140594360
34,19,3,ISIP_8,125,1,48,70,2141402168
34,19,3,ISIP_8,126,1,48,69,2142193892
34,19,3,ISIP_8,127,1,48,79,2142995116
34,19,3,ISIP_8,128,1,48,67,2143799856
34,19,3,ISIP_8,129,1,48,66,2144638952
34,19,3,ISIP_8,130,1,48,76,2145448704
34,19,3,ISIP_8,131,1,48,70,2146242372
34,19,3,ISIP_8,132,1,48,71,2147064764
34,19,3,ISIP_8,133,1,48,76,2147916036
34,19,3,ISIP_8,134,1,48,68,2148751236
34,19,3,ISIP_8,135,1,48,72,2149580816
34,19,3,ISIP_8,136,1,48,69,2150379648
34,19,3,ISIP_8,137,1,48,61,2151194108
34,19,3,ISIP_8,138,1,48,77,2152008572
34,19,3,ISIP_8,139,1,48,74,2152841312
34,19,3,ISIP_8,140,1,48,76,2153668720
34,19,3,ISIP_8,141,1,48,62,2154494024
34,19,3,ISIP_8,142,1,48,66,2155318516
34,19,3,ISIP_8,143,1,48,74,2156101556
34,19,3,ISIP_8,144,1,48,65,2156949408
34,19,3,ISIP_8,145,1,48,67,2157736648
34,19,3,ISIP_8,146,1,48,70,2158531964
34,19,3,ISIP_8,147,1,48,75,2159295716
34,19,3,ISIP_8,148,1,48,73,2160134716
34,19,3,ISIP_8,149,1,48,67,2160952472
34,19,3,ISIP_8,150,1,48,67,2161728564
34,19,3,ISIP_8,151,1,48,72,2162524408
34,19,3,ISIP_8,152,1,48,68,2163327524
34,19,3,ISIP_8,153,1,48,70,2164160236
34,19,3,ISIP_8,154,1,48,64,2164959296
34,19,3,ISIP_8,155,1,48,69,2165781840
34,19,3,ISIP_8,156,1,48,58,2166604304
34,19,3,ISIP_8,157,1,48,64,2167476540
34,19,3,ISIP_8,158,1,48,59,2168305816
34,19,3,ISIP_8,159,1,48,64,2169078916
34,19,3,ISIP_8,160,1,48,66,2169886196
34,19,3,ISIP_8,161,1,48,72,2170671636
34,19,3,ISIP_8,162,1,48,70,2171452816
34,19,3,ISIP_8,163,1,48,62,2172240576
34,19,3,ISIP_8,164,1,48,70,2173049828
34,19,3,ISIP_8,165,1,48,66,2173847620
34,19,3,ISIP_8,166,1,48,65,2174648168
34,19,3,ISIP_8,167,1,48,71,2175451336
34,19,3,ISIP_8,168,1,48,68,2176259444
34,19,3,ISIP_8,169,1,48,71,2177063732
34,19,3,ISIP_8,170,1,48,67,2177874236
34,19,3,ISIP_8,171,1,48,59,2178673840
34,19,3,ISIP_8,172,1,48,61,2179527644
34,19,3,ISIP_8,173,1,48,69,2180319524
34,19,3,ISIP_8,174,1,48,69,2181121052
34,19,3,ISIP_8,175,1,48,68,2181902600
34,19,3,ISIP_8,176,1,48,63,2182696200
34,19,3,ISIP_8,0,9999,9999,9999,2062865496
34,19,3,ISIP_8,1,9999,9999,9999,2063665252
34,19,3,ISIP_8,2,9999,9999,9999,2064465980
34,19,3,ISIP_8,3,9999,9999,9999,2065265740
34,19,3,ISIP_8,4,9999,9999,9999,2066065468
34,19,3,ISIP_8,5,9999,9999,9999,2066865200
34,19,3,ISIP_8,6,9999,9999,9999,2067665980
34,19,3,ISIP_8,7,9999,9999,9999,2068465712
34,19,3,ISIP_8,8,9999,9999,9999,2069265524
34,19,3,ISIP_8,9,9999,9999,9999,2070065252
34,19,3,ISIP_8,10,9999,9999,9999,2070866032
34,19,3,ISIP_8,11,9999,9999,9999,2071665724
34,19,3,ISIP_8,12,9999,9999,9999,2072465524
34,19,3,ISIP_8,13,9999,9999,9999,2073265256
34,19,3,ISIP_8,14,9999,9999,9999,2074066040
34,19,3,ISIP_8,15,9999,9999,9999,2074865772
34,19,3,ISIP_8,16,9999,9999,9999,2075665508
34,19,3,ISIP_8,17,9999,9999,9999,2076465240
34,19,3,ISIP_8,18,9999,9999,9999,2077266020
34,19,3,ISIP_8,19,9999,9999,9999,2078065780
34,19,3,ISIP_8,20,9999,9999,9999,2078865512
34,19,3,ISIP_8,21,9999,9999,9999,2079665244
34,19,3,ISIP_8,22,9999,9999,9999,2080466024
34,19,3,ISIP_8,23,9999,9999,9999,2081265756
34,19,3,ISIP_8,24,9999,9999,9999,2082065492
34,19,3,ISIP_8,25,9999,9999,9999,2082865224
34,19,3,ISIP_8,26,9999,9999,9999,2083666008
34,19,3,ISIP_8,27,9999,9999,9999,2084465764
34,19,3,ISIP_8,28,9999,9999,9999,2085265496
34,19,3,ISIP_8,29,9999,9999,9999,2086065228
34,19,3,ISIP_8,30,9999,9999,9999,2086866012
34,19,3,ISIP_8,31,9999,9999,9999,2087665740
34,19,3,ISIP_8,32,9999,9999,9999,2088465472
34,19,3,ISIP_8,33,9999,9999,9999,2089265208
34,19,3,ISIP_8,34,9999,9999,9999,2090065984
34,19,3,ISIP_8,35,9999,9999,9999,2090865736
34,19,3,ISIP_8,36,9999,9999,9999,2091665468
34,19,3,ISIP_8,37,9999,9999,9999,2092465268
34,19,3,ISIP_8,38,9999,9999,9999,2093265972
34,19,3,ISIP_8,39,9999,9999,9999,2094065776
34,19,3,ISIP_8,40,9999,9999,9999,2094865504
34,19,3,ISIP_8,41,9999,9999,9999,2095665232
34,19,3,ISIP_8,42,9999,9999,9999,2096466008
34,19,3,ISIP_8,43,9999,9999,9999,2097265764
34,19,3,ISIP_8,44,9999,9999,9999,2098065492
34,19,3,ISIP_8,45,9999,9999,9999,2098865220
34,19,3,ISIP_8,46,9999,9999,9999,2099665996
34,19,3,ISIP_8,47,9999,9999,9999,2100465724
34,19,3,ISIP_8,48,9999,9999,9999,2101265456
34,19,3,ISIP_8,49,9999,9999,9999,2102065260
34,19,3,ISIP_8,50,9999,9999,9999,2102866032
34,19,3,ISIP_8,51,9999,9999,9999,2103665712
34,19,3,ISIP_8,52,9999,9999,9999,2104465516
34,19,3,ISIP_8,53,9999,9999,9999,2105265244
34,19,3,ISIP_8,54,9999,9999,9999,2106066020
34,19,3,ISIP_8,55,9999,9999,9999,2106865752
34,19,3,ISIP_8,56,9999,9999,9999,2107665480
34,19,3,ISIP_8,57,9999,9999,9999,2108465208
34,19,3,ISIP_8,58,9999,9999,9999,2109265984
34,19,3,ISIP_8,59,9999,9999,9999,2110065736
34,19,3,ISIP_8,60,9999,9999,9999,2110865464
34,19,3,ISIP_8,61,9999,9999,9999,2111665272
34,19,3,ISIP_8,62,9999,9999,9999,2112465972
34,19,3,ISIP_8,63,9999,9999,9999,2113265776
34,19,3,ISIP_8,64,9999,9999,9999,2114065508
34,19,3,ISIP_8,65,9999,9999,9999,2114865236
34,19,3,ISIP_8,66,9999,9999,9999,2115666012
34,19,3,ISIP_8,67,9999,9999,9999,2116465764
34,19,3,ISIP_8,68,9999,9999,9999,2117265492
34,19,3,ISIP_8,69,9999,9999,9999,2118065224
34,19,3,ISIP_8,70,9999,9999,9999,2118866012
34,19,3,ISIP_8,71,9999,9999,9999,2119665744
34,19,3,ISIP_8,72,9999,9999,9999,2120465472
34,19,3,ISIP_8,73,9999,9999,9999,2121265200
34,19,3,ISIP_8,74,9999,9999,9999,2122065976
34,19,3,ISIP_8,75,9999,9999,9999,2122865732
34,19,3,ISIP_8,76,9999,9999,9999,2123665460
34,19,3,ISIP_8,77,9999,9999,9999,2124465264
34,19,3,ISIP_8,78,9999,9999,9999,2125265964
34,19,3,ISIP_8,79,9999,9999,9999,2126065772
34,19,3,ISIP_8,80,9999,9999,9999,2126865504
34,19,3,ISIP_8,81,9999,9999,9999,2127665236
34,19,3,ISIP_8,82,9999,9999,9999,2128466012
34,19,3,ISIP_8,83,9999,9999,9999,2129265764
34,19,3,ISIP_8,84,9999,9999,9999,2130065496
34,19,3,ISIP_8,85,9999,9999,9999,2130865224
34,19,3,ISIP_8,86,9999,9999,9999,2131666000
34,19,3,ISIP_8,87,9999,9999,9999,2132465728
34,19,3,ISIP_8,88,9999,9999,9999,2133265456
34,19,3,ISIP_8,89,9999,9999,9999,2134065264
34,19,3,ISIP_8,90,9999,9999,9999,2134866040
34,19,3,ISIP_8,91,9999,9999,9999,2135665720
34,19,3,ISIP_8,92,9999,9999,9999,2136465520
34,19,3,ISIP_8,93,9999,9999,9999,2137265252
34,19,3,ISIP_8,94,9999,9999,9999,2138066028
34,19,3,ISIP_8,95,9999,9999,9999,2138865756
34,19,3,ISIP_8,96,9999,9999,9999,2139665484
34,19,3,ISIP_8,97,9999,9999,9999,2140465216
34,19,3,ISIP_8,98,9999,9999,9999,2141265992
34,19,3,ISIP_8,99,9999,9999,9999,2142065744
34,19,3,ISIP_8,100,9999,9999,9999,2142865476
34,19,3,ISIP_8,101,9999,9999,9999,2143665204
34,19,3,ISIP_8,102,9999,9999,9999,2144465980
34,19,3,ISIP_8,103,9999,9999,9999,2145265784
34,19,3,ISIP_8,104,9999,9999,9999,2146065512
34,19,3,ISIP_8,105,9999,9999,9999,2146865240
34,19,3,ISIP_8,106,9999,9999,9999,2147666016
34,19,3,ISIP_8,107,9999,9999,9999,2148465772
34,19,3,ISIP_8,108,9999,9999,9999,2149265500
34,19,3,ISIP_8,109,9999,9999,9999,2150065228
34,19,3,ISIP_8,110,9999,9999,9999,2150866004
34,19,3,ISIP_8,111,9999,9999,9999,2151665732
34,19,3,ISIP_8,112,9999,9999,9999,2152465460
34,19,3,ISIP_8,113,9999,9999,9999,2153265264
34,19,3,ISIP_8,114,9999,9999,9999,2154065968
34,19,3,ISIP_8,115,9999,9999,9999,2154865720
34,19,3,ISIP_8,116,9999,9999,9999,2155665524
34,19,3,ISIP_8,117,9999,9999,9999,2156465252
34,19,3,ISIP_8,118,9999,9999,9999,2157266028
34,19,3,ISIP_8,119,9999,9999,9999,2158065756
34,19,3,ISIP_8,120,9999,9999,9999,2158865488
34,19,3,ISIP_8,121,9999,9999,9999,2159665216
34,19,3,ISIP_8,122,9999,9999,9999,2160465992
34,19,3,ISIP_8,123,9999,9999,9999,2161265748
34,19,3,ISIP_8,124,9999,9999,9999,2162065476
34,19,3,ISIP_8,125,9999,9999,9999,2162865208
34,19,3,ISIP_8,126,9999,9999,9999,2163665984
34,19,3,ISIP_8,127,9999,9999,9999,2164465712
34,19,3,ISIP_8,128,9999,9999,9999,2165265516
34,19,3,ISIP_8,129,9999,9999,9999,2166065248
34,19,3,ISIP_8,130,9999,9999,9999,2166866020
34,19,3,ISIP_8,131,9999,9999,9999,2167665776
34,19,3,ISIP_8,132,9999,9999,9999,2168465504
34,19,3,ISIP_8,133,9999,9999,9999,2169265232
34,19,3,ISIP_8,134,9999,9999,9999,2170066008
34,19,3,ISIP_8,135,9999,9999,9999,2170865736
34,19,3,ISIP_8,136,9999,9999,9999,2171665468
34,19,3,ISIP_8,137,9999,9999,9999,2172465268
34,19,3,ISIP_8,138,9999,9999,9999,2173265972
34,19,3,ISIP_8,139,9999,9999,9999,2174065728
34,19,3,ISIP_8,140,9999,9999,9999,2174865456
34,19,3,ISIP_8,141,9999,9999,9999,2175665260
34,19,3,ISIP_8,142,9999,9999,9999,2176466036
34,19,3,ISIP_8,143,9999,9999,9999,2177265764
34,19,3,ISIP_8,144,9999,9999,9999,2178065492
34,19,3,ISIP_8,145,9999,9999,9999,2178865220
34,19,3,ISIP_8,146,9999,9999,9999,2179666000
34,19,3,ISIP_8,147,9999,9999,9999,2180465752
34,19,3,ISIP_8,148,9999,9999,9999,2181265484
34,19,3,ISIP_8,149,9999,9999,9999,2182065212
34,20,5,ISIP_5,0,5,42,127,2210858224
34,20,5,ISIP_5,1,5,42,127,2211358016
34,20,5,ISIP_5,2,5,42,127,2211858028
34,20,5,ISIP_5,3,5,42,127,2212357448
34,20,5,ISIP_5,4,5,42,127,2212858212
34,20,5,ISIP_5,5,1,48,80,2212873672
34,20,5,ISIP_5,6,5,42,127,2213357904
34,20,5,ISIP_5,7,1,48,81,2213371124
34,20,5,ISIP_5,8,1,38,19,2213381128
34,20,5,ISIP_5,9,1,48,78,2213852884
34,20,5,ISIP_5,10,5,42,127,2213857856
34,20,5,ISIP_5,11,1,38,19,2213863140
34,20,5,ISIP_5,12,1,48,74,2214356152
34,20,5,ISIP_5,13,5,42,127,2214358264
34,20,5,ISIP_5,14,5,42,127,2214858040
34,20,5,ISIP_5,15,1,48,78,2214868640
34,20,5,ISIP_5,16,1,38,18,2214879016
34,20,5,ISIP_5,17,5,42,127,2215357912
34,20,5,ISIP_5,18,1,48,67,2215367844
34,20,5,ISIP_5,19,5,42,127,2215857608
34,20,5,ISIP_5,20,1,48,67,2215879128
34,20,5,ISIP_5,21,5,42,127,2216358204
34,20,5,ISIP_5,22,1,48,73,2216388776
34,20,5,ISIP_5,23,5,42,127,2216857900
34,20,5,ISIP_5,24,1,48,65,2216874184
34,20,5,ISIP_5,25,5,42,127,2217357744
34,20,5,ISIP_5,26,1,48,76,2217360416
34,20,5,ISIP_5,27,1,38,18,2217370264
34,20,5,ISIP_5,28,1,48,84,2217846576
34,20,5,ISIP_5,29,5,42,127,2217858356
34,20,5,ISIP_5,30,5,42,127,2218358132
34,20,5,ISIP_5,31,1,48,64,2218359096
34,20,5,ISIP_5,32,1,48,72,2218843624
34,20,5,ISIP_5,33,5,42,127,2218857820
34,20,5,ISIP_5,34,1,48,85,2219329708
34,20,5,ISIP_5,35,5,42,127,2219357640
34,20,5,ISIP_5,36,1,48,83,2219847500
34,20,5,ISIP_5,37,5,42,127,2219858232
34,20,5,ISIP_5,38,5,42,127,2220357936
34,20,5,ISIP_5,39,1,48,65,2220372792
34,20,5,ISIP_5,40,1,48,73,2220848688
34,20,5,ISIP_5,41,5,42,127,2220857696
34,20,5,ISIP_5,42,1,48,68,2221357848
34,20,5,ISIP_5,43,5,42,127,2221359412
34,20,5,ISIP_5,44,5,42,127,2221858140
34,20,5,ISIP_5,45,1,48,59,2221870312
34,20,5,ISIP_5,46,5,42,127,2222357912
34,20,5,ISIP_5,47,1,48,64,2222367016
34,20,5,ISIP_5,48,5,42,127,2222857680
34,20,5,ISIP_5,49,1,48,85,2222868656
34,20,5,ISIP_5,50,5,42,127,2223358492
34,20,5,ISIP_5,51,1,48,80,2223371488
34,20,5,ISIP_5,52,5,42,127,2223857968
34,20,5,ISIP_5,53,1,48,71,2223910300
34,20,5,ISIP_5,54,5,42,127,2224357732
34,20,5,ISIP_5,55,1,48,82,2224362120
34,20,5,ISIP_5,56,5,42,127,2224857576
34,20,5,ISIP_5,57,1,48,68,2224858916
34,20,5,ISIP_5,58,1,48,67,2225336740
34,20,5,ISIP_5,59,5,42,127,2225358388
34,20,5,ISIP_5,60,1,48,72,2225844204
34,20,5,ISIP_5,61,5,42,127,2225857784
34,20,5,ISIP_5,62,1,48,69,2226345624
34,20,5,ISIP_5,63,5,42,127,2226357552
34,20,5,ISIP_5,64,1,48,60,2226853840
34,20,5,ISIP_5,65,5,42,127,2226858444
34,20,5,ISIP_5,66,1,48,74,2227347256
34,20,5,ISIP_5,67,5,42,127,2227358140
34,20,5,ISIP_5,68,1,48,59,2227857468
34,20,5,ISIP_5,69,5,42,127,2227859252
34,20,5,ISIP_5,70,1,48,73,2228352928
34,20,5,ISIP_5,71,5,42,127,2228357452
34,20,5,ISIP_5,72,1,48,80,2228857904
34,20,5,ISIP_5,73,5,42,127,2228859612
34,20,5,ISIP_5,74,1,48,81,2229353288
34,20,5,ISIP_5,75,5,42,127,2229358188
34,20,5,ISIP_5,76,1,48,76,2229854388
34,20,5,ISIP_5,77,5,42,127,2229857584
34,20,5,ISIP_5,78,5,42,127,2230358308
34,20,5,ISIP_5,79,1,48,82,2230374312
34,20,5,ISIP_5,80,1,48,77,2230863208
34,20,5,ISIP_5,81,1,48,62,2231376440
34,20,5,ISIP_5,82,1,48,72,2231878596
34,20,5,ISIP_5,83,1,48,56,2232391376
34,20,5,ISIP_5,84,1,48,83,2232883736
34,20,5,ISIP_5,85,1,48,79,2233342500
34,20,5,ISIP_5,86,1,48,82,2233828876
34,20,5,ISIP_5,87,1,48,73,2234339340
34,20,5,ISIP_5,88,1,48,78,2234860732
34,20,5,ISIP_5,89,1,48,80,2235357432
34,20,5,ISIP_5,90,1,48,81,2235861312
34,20,5,ISIP_5,91,1,48,73,2236375440
34,20,5,ISIP_5,92,1,48,71,2236895624
34,20,5,ISIP_5,93,1,48,78,2237375496
34,20,5,ISIP_5,94,1,48,83,2237851232
34,20,5,ISIP_5,95,1,48,82,2238343592
34,20,5,ISIP_5,96,1,38,18,2238353968
34,20,5,ISIP_5,97,1,48,75,2238856268
34,20,5,ISIP_5,98,1,38,18,2238866268
34,20,5,ISIP_5,99,1,48,73,2239377972
34,20,5,ISIP_5,100,1,48,69,2239873176
34,20,5,ISIP_5,101,1,48,69,2240375560
34,20,5,ISIP_5,102,1,48,64,2240896792
34,20,5,ISIP_5,103,1,48,73,2241383544
34,20,5,ISIP_5,104,1,48,60,2241876328
34,20,5,ISIP_5,105,1,48,69,2242379604
34,20,5,ISIP_5,106,1,48,57,2242888568
34,20,5,ISIP_5,107,1,48,60,2243363796
34,20,5,ISIP_5,108,1,48,58,2243860652
34,20,5,ISIP_5,109,1,48,68,2244313948
34,20,5,ISIP_5,110,1,48,60,2244817012
34,20,5,ISIP_5,111,1,48,68,2245316628
34,20,5,ISIP_5,112,1,48,57,2245834792
34,20,5,ISIP_5,113,1,48,69,2246338220
34,20,5,ISIP_5,114,1,48,58,2246831180
34,20,5,ISIP_5,115,1,48,66,2247309100
34,20,5,ISIP_5,116,1,48,61,2247818520
34,20,5,ISIP_5,117,1,48,73,2248289488
34,20,5,ISIP_5,118,1,48,61,2248788256
34,20,5,ISIP_5,119,1,48,66,2249293548
34,20,5,ISIP_5,120,1,38,17,2249303028
34,20,5,ISIP_5,121,1,48,78,2249806960
34,20,5,ISIP_5,122,1,48,69,2250309264
34,20,5,ISIP_5,123,1,48,55,2250816208
34,20,5,ISIP_5,124,1,48,72,2251314780
34,20,5,ISIP_5,125,1,48,72,2251813048
34,20,5,ISIP_5,126,1,48,69,2252296056
34,20,5,ISIP_5,127,1,48,61,2252787972
34,20,5,ISIP_5,128,1,48,76,2253278240
34,20,5,ISIP_5,129,1,48,74,2253776728
34,20,5,ISIP_5,130,1,48,84,2254293100
34,20,5,ISIP_5,131,1,48,59,2254795932
34,20,5,ISIP_5,132,1,48,67,2255296072
34,20,5,ISIP_5,133,1,48,58,2255794268
34,20,5,ISIP_5,134,1,48,64,2256292604
34,20,5,ISIP_5,135,1,48,62,2256785340
34,20,5,ISIP_5,136,1,48,59,2257277180
34,20,5,ISIP_5,137,1,48,58,2257759368
34,20,5,ISIP_5,138,1,48,62,2258256492
34,20,5,ISIP_5,139,1,48,64,2258750344
34,20,5,ISIP_5,140,1,48,71,2259246596
34,20,5,ISIP_5,141,1,48,73,2259743292
34,20,5,ISIP_5,142,1,48,62,2260246728
34,20,5,ISIP_5,143,1,48,76,2260725472
34,20,5,ISIP_5,144,1,48,78,2261224936
34,20,5,ISIP_5,145,1,48,78,2261735100
34,20,5,ISIP_5,146,1,48,56,2262228952
34,20,5,ISIP_5,147,1,48,69,2262759836
34,20,5,ISIP_5,148,1,48,68,2263263936
34,20,5,ISIP_5,149,1,48,80,2263784948
34,20,5,ISIP_5,150,1,48,80,2264266164
34,20,5,ISIP_5,151,1,48,80,2264780364
34,20,5,ISIP_5,152,1,48,75,2265279756
34,20,5,ISIP_5,153,1,48,79,2265818416
34,20,5,ISIP_5,154,1,48,66,2266325736
34,20,5,ISIP_5,155,1,48,60,2266830360
34,20,5,ISIP_5,156,1,48,65,2267343892
34,20,5,ISIP_5,157,1,48,77,2267850764
34,20,5,ISIP_5,158,1,38,18,2267861228
34,20,5,ISIP_5,159,1,48,83,2268367696
34,20,5,ISIP_5,160,1,48,86,2268875316
34,20,5,ISIP_5,161,1,48,71,2269368576
34,20,5,ISIP_5,162,1,48,76,2269880008
34,20,5,ISIP_5,163,1,48,67,2270382540
34,20,5,ISIP_5,164,1,48,69,2270898316
34,20,5,ISIP_5,165,1,48,71,2271408552
34,20,5,ISIP_5,166,1,48,64,2271895228
34,20,5,ISIP_5,167,1,48,61,2272419080
34,20,5,ISIP_5,168,1,48,67,2272932980
34,20,5,ISIP_5,169,1,48,73,2273464308
34,20,5,ISIP_5,170,1,48,71,2273961604
34,20,5,ISIP_5,171,1,48,72,2274475660
34,20,5,ISIP_5,172,1,48,54,2274994648
34,20,5,ISIP_5,173,1,48,70,2275490076
34,20,5,ISIP_5,174,1,48,55,2276007640
34,20,5,ISIP_5,175,1,48,64,2276480036
34,20,5,ISIP_5,176,1,48,71,2276961696
34,20,5,ISIP_5,177,1,48,59,2277473504
34,20,5,ISIP_5,178,1,48,59,2277989124
34,20,5,ISIP_5,179,1,48,60,2278482732
34,20,5,ISIP_5,180,1,48,62,2278998728
34,20,5,ISIP_5,181,1,48,62,2279514652
34,20,5,ISIP_5,182,1,48,57,2280012076
34,20,5,ISIP_5,183,1,48,63,2280519172
34,20,5,ISIP_5,184,1,48,61,2281008912
34,20,5,ISIP_5,185,1,48,62,2281516008
34,20,5,ISIP_5,186,1,48,65,2282007624
34,20,5,ISIP_5,187,1,48,57,2282525940
34,20,5,ISIP_5,188,1,48,59,2283011712
34,20,5,ISIP_5,189,1,48,55,2283514620
34,20,5,ISIP_5,190,1,48,58,2284008852
34,20,5,ISIP_5,191,1,48,57,2284526568
34,20,5,ISIP_5,192,1,48,40,2285038156
34,20,5,ISIP_5,193,1,48,62,2285537920
34,20,5,ISIP_5,194,1,48,59,2286021004
34,20,5,ISIP_5,195,1,48,76,2286525488
34,20,5,ISIP_5,196,1,38,18,2286535560
34,20,5,ISIP_5,197,1,48,75,2287029616
34,20,5,ISIP_5,198,1,38,18,2287039464
34,20,5,ISIP_5,199,1,48,76,2287532020
34,20,5,ISIP_5,200,1,38,18,2287542172
34,20,5,ISIP_5,201,1,48,78,2288031292
34,20,5,ISIP_5,202,1,38,18,2288041296
34,20,5,ISIP_5,203,1,48,54,2288524052
34,20,5,ISIP_5,204,1,48,61,2289049028
34,20,5,ISIP_5,205,1,48,70,2289511472
34,20,5,ISIP_5,206,1,38,17,2289521396
34,20,5,ISIP_5,207,1,48,55,2290028164
34,20,5,ISIP_5,208,1,48,73,2290520724
34,20,5,ISIP_5,0,9999,9999,9999,2210856012
34,20,5,ISIP_5,1,9999,9999,9999,2211355728
34,20,5,ISIP_5,2,9999,9999,9999,2211855444
34,20,5,ISIP_5,3,9999,9999,9999,2212355160
34,20,5,ISIP_5,4,9999,9999,9999,2212855924
34,20,5,ISIP_5,5,9999,9999,9999,2213355620
34,20,5,ISIP_5,6,9999,9999,9999,2213855348
34,20,5,ISIP_5,7,9999,9999,9999,2214356016
34,20,5,ISIP_5,8,9999,9999,9999,2214855756
34,20,5,ISIP_5,9,9999,9999,9999,2215355476
34,20,5,ISIP_5,10,9999,9999,9999,2215855176
34,20,5,ISIP_5,11,9999,9999,9999,2216355916
34,20,5,ISIP_5,12,9999,9999,9999,2216855612
34,20,5,ISIP_5,13,9999,9999,9999,2217355380
34,20,5,ISIP_5,14,9999,9999,9999,2217856068
34,20,5,ISIP_5,15,9999,9999,9999,2218355772
34,20,5,ISIP_5,16,9999,9999,9999,2218855536
34,20,5,ISIP_5,17,9999,9999,9999,2219355204
34,20,5,ISIP_5,18,9999,9999,9999,2219855948
34,20,5,ISIP_5,19,9999,9999,9999,2220355648
34,20,5,ISIP_5,20,9999,9999,9999,2220855412
34,20,5,ISIP_5,21,9999,9999,9999,2221355112
34,20,5,ISIP_5,22,9999,9999,9999,2221855856
34,20,5,ISIP_5,23,9999,9999,9999,2222355548
34,20,5,ISIP_5,24,9999,9999,9999,2222855244
34,20,5,ISIP_5,25,9999,9999,9999,2223355984
34,20,5,ISIP_5,26,9999,9999,9999,2223855680
34,20,5,ISIP_5,27,9999,9999,9999,2224355448
34,20,5,ISIP_5,28,9999,9999,9999,2224855144
34,20,5,ISIP_5,29,9999,9999,9999,2225355876
34,20,5,ISIP_5,30,9999,9999,9999,2225855572
34,20,5,ISIP_5,31,9999,9999,9999,2226355268
34,20,5,ISIP_5,32,9999,9999,9999,2226856008
34,20,5,ISIP_5,33,9999,9999,9999,2227355704
34,20,5,ISIP_5,34,9999,9999,9999,2227855480
34,20,5,ISIP_5,35,9999,9999,9999,2228355168
34,20,5,ISIP_5,36,9999,9999,9999,2228855916
34,20,5,ISIP_5,37,9999,9999,9999,2229355604
34,20,5,ISIP_5,38,9999,9999,9999,2229855300
34,20,5,ISIP_5,39,9999,9999,9999,2230356020
34,20,5,ISIP_5,40,9999,9999,9999,2230855788
34,20,5,ISIP_5,41,9999,9999,9999,2231355480
34,20,5,ISIP_5,42,9999,9999,9999,2231855172
34,20,5,ISIP_5,43,9999,9999,9999,2232355908
34,20,5,ISIP_5,44,9999,9999,9999,2232855672
34,20,5,ISIP_5,45,9999,9999,9999,2233355356
34,20,5,ISIP_5,46,9999,9999,9999,2233856096
34,20,5,ISIP_5,47,9999,9999,9999,2234355784
34,20,5,ISIP_5,48,9999,9999,9999,2234855480
34,20,5,ISIP_5,49,9999,9999,9999,2235355248
34,20,5,ISIP_5,50,9999,9999,9999,2235855984
34,20,5,ISIP_5,51,9999,9999,9999,2236355676
34,20,5,ISIP_5,52,9999,9999,9999,2236855364
34,20,5,ISIP_5,53,9999,9999,9999,2237355132
34,20,5,ISIP_5,54,9999,9999,9999,2237855860
34,20,5,ISIP_5,55,9999,9999,9999,2238355532
34,20,5,ISIP_5,56,9999,9999,9999,2238855276
34,20,5,ISIP_5,57,9999,9999,9999,2239355968
34,20,5,ISIP_5,58,9999,9999,9999,2239855732
34,20,5,ISIP_5,59,9999,9999,9999,2240355424
34,20,5,ISIP_5,60,9999,9999,9999,2240855088
34,20,5,ISIP_5,61,9999,9999,9999,2241355828
34,20,5,ISIP_5,62,9999,9999,9999,2241855592
34,20,5,ISIP_5,63,9999,9999,9999,2242355284
34,20,5,ISIP_5,64,9999,9999,9999,2242856016
34,20,5,ISIP_5,65,9999,9999,9999,2243355708
34,20,5,ISIP_5,66,9999,9999,9999,2243855476
34,20,5,ISIP_5,67,9999,9999,9999,2244355156
34,20,5,ISIP_5,68,9999,9999,9999,2244855896
34,20,5,ISIP_5,69,9999,9999,9999,2245355588
34,20,5,ISIP_5,70,9999,9999,9999,2245855352
34,20,5,ISIP_5,71,9999,9999,9999,2246356088
34,20,5,ISIP_5,72,9999,9999,9999,2246855780
34,20,5,ISIP_5,73,9999,9999,9999,2247355472
34,20,5,ISIP_5,74,9999,9999,9999,2247855160
34,20,5,ISIP_5,75,9999,9999,9999,2248355896
34,20,5,ISIP_5,76,9999,9999,9999,2248855664
34,20,5,ISIP_5,77,9999,9999,9999,2249355332
34,20,5,ISIP_5,78,9999,9999,9999,2249856116
34,20,5,ISIP_5,79,9999,9999,9999,2250355808
34,20,5,ISIP_5,80,9999,9999,9999,2250855496
34,20,5,ISIP_5,81,9999,9999,9999,2251355236
34,20,5,ISIP_5,82,9999,9999,9999,2251855976
34,20,5,ISIP_5,83,9999,9999,9999,2252355664
34,20,5,ISIP_5,84,9999,9999,9999,2252855356
34,20,5,ISIP_5,85,9999,9999,9999,2253355120
34,20,5,ISIP_5,86,9999,9999,9999,2253855856
34,20,5,ISIP_5,87,9999,9999,9999,2254355548
34,20,5,ISIP_5,88,9999,9999,9999,2254855236
34,20,5,ISIP_5,89,9999,9999,9999,2255355976
34,20,5,ISIP_5,90,9999,9999,9999,2255855668
34,20,5,ISIP_5,91,9999,9999,9999,2256355432
34,20,5,ISIP_5,92,9999,9999,9999,2256855120
34,20,5,ISIP_5,93,9999,9999,9999,2257355860
34,20,5,ISIP_5,94,9999,9999,9999,2257855548
34,20,5,ISIP_5,95,9999,9999,9999,2258355300
34,20,5,ISIP_5,96,9999,9999,9999,2258856036
34,20,5,ISIP_5,97,9999,9999,9999,2259355728
34,20,5,ISIP_5,98,9999,9999,9999,2259855416
34,20,5,ISIP_5,99,9999,9999,9999,2260355180
34,20,5,ISIP_5,100,9999,9999,9999,2260855920
34,20,5,ISIP_5,101,9999,9999,9999,2261355612
34,20,5,ISIP_5,102,9999,9999,9999,2261855300
34,20,5,ISIP_5,103,9999,9999,9999,2262356088
34,20,5,ISIP_5,104,9999,9999,9999,2262855776
34,20,5,ISIP_5,105,9999,9999,9999,2263355484
34,20,5,ISIP_5,106,9999,9999,9999,2263855176
34,20,5,ISIP_5,107,9999,9999,9999,2264355912
34,20,5,ISIP_5,108,9999,9999,9999,2264855604
34,20,5,ISIP_5,109,9999,9999,9999,2265355368
34,20,5,ISIP_5,110,9999,9999,9999,2265856104
34,20,5,ISIP_5,111,9999,9999,9999,2266355796
34,20,5,ISIP_5,112,9999,9999,9999,2266855488
34,20,5,ISIP_5,113,9999,9999,9999,2267355252
34,20,5,ISIP_5,114,9999,9999,9999,2267855988
34,20,5,ISIP_5,115,9999,9999,9999,2268355640
34,20,5,ISIP_5,116,9999,9999,9999,2268855404
34,20,5,ISIP_5,117,9999,9999,9999,2269355096
34,20,5,ISIP_5,118,9999,9999,9999,2269855832
34,20,5,ISIP_5,119,9999,9999,9999,2270355524
34,20,5,ISIP_5,120,9999,9999,9999,2270855216
34,20,5,ISIP_5,121,9999,9999,9999,2271355952
34,20,5,ISIP_5,122,9999,9999,9999,2271855720
34,20,5,ISIP_5,123,9999,9999,9999,2272355408
34,20,5,ISIP_5,124,9999,9999,9999,2272855148
34,20,5,ISIP_5,125,9999,9999,9999,2273355888
34,20,5,ISIP_5,126,9999,9999,9999,2273855576
34,20,5,ISIP_5,127,9999,9999,9999,2274355268
34,20,5,ISIP_5,128,9999,9999,9999,2274856008
34,20,5,ISIP_5,129,9999,9999,9999,2275355696
34,20,5,ISIP_5,130,9999,9999,9999,2275855464
34,20,5,ISIP_5,131,9999,9999,9999,2276355152
34,20,5,ISIP_5,132,9999,9999,9999,2276855892
34,20,5,ISIP_5,133,9999,9999,9999,2277355584
34,20,5,ISIP_5,134,9999,9999,9999,2277855348
34,20,5,ISIP_5,135,9999,9999,9999,2278356084
34,20,5,ISIP_5,136,9999,9999,9999,2278855776
34,20,5,ISIP_5,137,9999,9999,9999,2279355468
34,20,5,ISIP_5,138,9999,9999,9999,2279855208
34,20,5,ISIP_5,139,9999,9999,9999,2280355944
34,20,5,ISIP_5,140,9999,9999,9999,2280855636
34,20,5,ISIP_5,141,9999,9999,9999,2281355328
34,20,5,ISIP_5,142,9999,9999,9999,2281856064
34,20,5,ISIP_5,143,9999,9999,9999,2282355832
34,20,5,ISIP_5,144,9999,9999,9999,2282855520
34,20,5,ISIP_5,145,9999,9999,9999,2283355212
34,20,5,ISIP_5,146,9999,9999,9999,2283855928
34,20,5,ISIP_5,147,9999,9999,9999,2284355692
34,20,5,ISIP_5,148,9999,9999,9999,2284855384
34,20,5,ISIP_5,149,9999,9999,9999,2285355076
34,20,5,ISIP_5,150,9999,9999,9999,2285855812
34,20,5,ISIP_5,151,9999,9999,9999,2286355576
34,20,5,ISIP_5,152,9999,9999,9999,2286855220
34,20,5,ISIP_5,153,9999,9999,9999,2287355984
34,20,5,ISIP_5,154,9999,9999,9999,2287855704
34,20,5,ISIP_5,155,9999,9999,9999,2288355420
34,20,5,ISIP_5,156,9999,9999,9999,2288855112
34,20,5,ISIP_5,157,9999,9999,9999,2289355852
34,20,5,ISIP_5,158,9999,9999,9999,2289855568
34,20,5,ISIP_5,159,9999,9999,9999,2290355260
34,21,11,Pattern_Practice,0,5,42,127,2378875412
34,21,11,Pattern_Practice,1,5,42,127,2379374980
34,21,11,Pattern_Practice,2,5,42,127,2379874548
34,21,11,Pattern_Practice,3,5,42,127,2380375388
34,21,11,Pattern_Practice,4,1,38,71,2380712796
34,21,11,Pattern_Practice,5,1,38,42,2380794456
34,21,11,Pattern_Practice,6,1,38,94,2380860256
34,21,11,Pattern_Practice,7,5,42,127,2380875252
34,21,11,Pattern_Practice,8,1,38,77,2381045628
34,21,11,Pattern_Practice,9,1,38,112,2381309296
34,21,11,Pattern_Practice,10,5,42,127,2381374776
34,21,11,Pattern_Practice,11,1,38,127,2381579256
34,21,11,Pattern_Practice,12,1,38,127,2381860876
34,21,11,Pattern_Practice,13,5,42,127,2381874600
34,21,11,Pattern_Practice,14,1,38,101,2382004132
34,21,11,Pattern_Practice,15,1,38,127,2382233316
34,21,11,Pattern_Practice,16,5,42,127,2382375380
34,21,11,Pattern_Practice,17,1,38,117,2382511288
34,21,11,Pattern_Practice,18,1,48,28,2382521812
34,21,11,Pattern_Practice,19,5,42,127,2382875176
34,21,11,Pattern_Practice,20,5,42,127,2383374668
34,21,11,Pattern_Practice,21,5,42,127,2383874460
34,21,11,Pattern_Practice,22,1,38,98,2384319008
34,21,11,Pattern_Practice,23,1,48,92,2384324444
34,21,11,Pattern_Practice,24,5,42,127,2384375196
34,21,11,Pattern_Practice,25,1,48,53,2384683024
34,21,11,Pattern_Practice,26,5,42,127,2384874996
34,21,11,Pattern_Practice,27,5,42,127,2385374492
34,21,11,Pattern_Practice,28,5,42,127,2385875252
34,21,11,Pattern_Practice,29,1,48,82,2386183572
34,21,11,Pattern_Practice,30,1,48,35,2386274076
34,21,11,Pattern_Practice,31,1,38,106,2386342496
34,21,11,Pattern_Practice,32,5,42,127,2386375056
34,21,11,Pattern_Practice,33,1,48,78,2386638184
34,21,11,Pattern_Practice,34,5,42,127,2386874888
34,21,11,Pattern_Practice,35,5,42,127,2387374304
34,21,11,Pattern_Practice,36,1,48,73,2387682324
34,21,11,Pattern_Practice,37,1,38,115,2387827812
34,21,11,Pattern_Practice,38,5,42,127,2387875264
34,21,11,Pattern_Practice,39,1,48,72,2387985632
34,21,11,Pattern_Practice,40,1,38,92,2388110020
34,21,11,Pattern_Practice,41,1,48,113,2388294444
34,21,11,Pattern_Practice,42,1,38,24,2388304376
34,21,11,Pattern_Practice,43,5,42,127,2388374820
34,21,11,Pattern_Practice,44,1,48,88,2388643524
34,21,11,Pattern_Practice,45,5,42,127,2388874920
34,21,11,Pattern_Practice,46,5,42,127,2389375388
34,21,11,Pattern_Practice,47,1,48,83,2389394888
34,21,11,Pattern_Practice,48,1,48,127,2389425160
34,21,11,Pattern_Practice,49,1,48,78,2389713204
34,21,11,Pattern_Practice,50,1,48,61,2389850012
34,21,11,Pattern_Practice,51,5,42,127,2389875180
34,21,11,Pattern_Practice,52,1,48,99,2390020996
34,21,11,Pattern_Practice,53,1,38,21,2390031148
34,21,11,Pattern_Practice,54,1,38,111,2390172868
34,21,11,Pattern_Practice,55,1,48,22,2390183172
34,21,11,Pattern_Practice,56,1,48,111,2390350592
34,21,11,Pattern_Practice,57,1,38,24,2390360856
34,21,11,Pattern_Practice,58,5,42,127,2390374808
34,21,11,Pattern_Practice,59,1,38,127,2390708884
34,21,11,Pattern_Practice,60,1,48,94,2390725472
34,21,11,Pattern_Practice,61,5,42,127,2390874340
34,21,11,Pattern_Practice,62,1,38,127,2391243092
34,21,11,Pattern_Practice,63,5,42,127,2391375204
34,21,11,Pattern_Practice,64,1,38,99,2391382236
34,21,11,Pattern_Practice,65,1,38,127,2391577060
34,21,11,Pattern_Practice,66,1,38,95,2391725168
34,21,11,Pattern_Practice,67,1,38,127,2391867108
34,21,11,Pattern_Practice,68,5,42,127,2391874848
34,21,11,Pattern_Practice,69,1,38,80,2392353784
34,21,11,Pattern_Practice,70,1,38,121,2392361172
34,21,11,Pattern_Practice,71,5,42,127,2392374820
34,21,11,Pattern_Practice,72,1,38,97,2392705440
34,21,11,Pattern_Practice,73,5,42,127,2392875248
34,21,11,Pattern_Practice,74,1,38,38,2393282100
34,21,11,Pattern_Practice,75,1,48,18,2393289336
34,21,11,Pattern_Practice,76,5,42,127,2393375896
34,21,11,Pattern_Practice,77,1,38,85,2393513060
34,21,11,Pattern_Practice,78,1,48,20,2393522464
34,21,11,Pattern_Practice,79,5,42,127,2393874780
34,21,11,Pattern_Practice,80,1,38,92,2393903024
34,21,11,Pattern_Practice,81,1,38,86,2394364704
34,21,11,Pattern_Practice,82,5,42,127,2394374544
34,21,11,Pattern_Practice,83,1,38,87,2394451640
34,21,11,Pattern_Practice,84,1,38,52,2394512584
34,21,11,Pattern_Practice,85,1,38,65,2394791956
34,21,11,Pattern_Practice,86,5,42,127,2394875388
34,21,11,Pattern_Practice,87,5,42,127,2395374940
34,21,11,Pattern_Practice,88,5,42,127,2395874660
34,21,11,Pattern_Practice,89,1,48,71,2396094112
34,21,11,Pattern_Practice,90,1,48,45,2396155428
34,21,11,Pattern_Practice,91,1,48,72,2396241792
34,21,11,Pattern_Practice,92,5,42,127,2396375556
34,21,11,Pattern_Practice,93,1,48,81,2396378600
34,21,11,Pattern_Practice,94,1,38,21,2396388224
34,21,11,Pattern_Practice,95,1,48,95,2396651568
34,21,11,Pattern_Practice,96,1,38,21,2396661492
34,21,11,Pattern_Practice,97,5,42,127,2396875060
34,21,11,Pattern_Practice,98,5,42,127,2397374776
34,21,11,Pattern_Practice,99,1,48,75,2397709644
34,21,11,Pattern_Practice,100,1,48,82,2397855056
34,21,11,Pattern_Practice,101,5,42,127,2397874612
34,21,11,Pattern_Practice,102,1,48,78,2397979888
34,21,11,Pattern_Practice,103,1,38,19,2397989516
34,21,11,Pattern_Practice,104,1,48,87,2398117248
34,21,11,Pattern_Practice,105,1,48,94,2398272580
34,21,11,Pattern_Practice,106,1,38,22,2398281836
34,21,11,Pattern_Practice,107,5,42,127,2398375300
34,21,11,Pattern_Practice,108,1,38,60,2398597288
34,21,11,Pattern_Practice,109,1,48,109,2398795928
34,21,11,Pattern_Practice,110,1,38,23,2398805964
34,21,11,Pattern_Practice,111,5,42,127,2398875044
34,21,11,Pattern_Practice,112,1,48,82,2399341532
34,21,11,Pattern_Practice,113,1,38,106,2399342116
34,21,11,Pattern_Practice,114,5,42,127,2399374688
34,21,11,Pattern_Practice,115,1,48,77,2399688496
34,21,11,Pattern_Practice,116,1,38,18,2399698204
34,21,11,Pattern_Practice,117,1,38,45,2399844328
34,21,11,Pattern_Practice,118,5,42,127,2399874512
34,21,11,Pattern_Practice,119,1,48,127,2400164040
34,21,11,Pattern_Practice,120,1,38,26,2400173964
34,21,11,Pattern_Practice,121,5,42,127,2400375412
34,21,11,Pattern_Practice,122,1,48,79,2400716344
34,21,11,Pattern_Practice,123,1,38,19,2400726200
34,21,11,Pattern_Practice,124,5,42,127,2400874840
34,21,11,Pattern_Practice,125,1,38,111,2400878780
34,21,11,Pattern_Practice,126,1,48,22,2400888408
34,21,11,Pattern_Practice,127,1,38,110,2401254364
34,21,11,Pattern_Practice,128,1,48,21,2401264748
34,21,11,Pattern_Practice,129,5,42,127,2401374432
34,21,11,Pattern_Practice,130,5,42,127,2401875340
34,21,11,Pattern_Practice,131,1,38,107,2402209988
34,21,11,Pattern_Practice,132,1,48,21,2402219916
34,21,11,Pattern_Practice,133,1,38,81,2402347920
34,21,11,Pattern_Practice,134,1,48,19,2402357552
34,21,11,Pattern_Practice,135,5,42,127,2402375160
34,21,11,Pattern_Practice,136,1,48,127,2402682560
34,21,11,Pattern_Practice,137,1,38,24,2402692492
34,21,11,Pattern_Practice,138,1,38,71,2402837472
34,21,11,Pattern_Practice,139,1,48,20,2402848672
34,21,11,Pattern_Practice,140,5,42,127,2402874664
34,21,11,Pattern_Practice,141,1,48,127,2403135520
34,21,11,Pattern_Practice,142,1,38,27,2403145520
34,21,11,Pattern_Practice,143,5,42,127,2403374416
34,21,11,Pattern_Practice,144,1,48,58,2403673708
34,21,11,Pattern_Practice,145,1,48,127,2403823056
34,21,11,Pattern_Practice,146,5,42,127,2403875300
34,21,11,Pattern_Practice,147,1,38,105,2404330228
34,21,11,Pattern_Practice,148,5,42,127,2404374996
34,21,11,Pattern_Practice,149,1,38,93,2404655024
34,21,11,Pattern_Practice,150,1,48,20,2404664952
34,21,11,Pattern_Practice,151,5,42,127,2404874552
34,21,11,Pattern_Practice,152,1,38,117,2405039332
34,21,11,Pattern_Practice,153,1,38,127,2405356404
34,21,11,Pattern_Practice,154,5,42,127,2405375288
34,21,11,Pattern_Practice,155,5,42,127,2405875140
34,21,11,Pattern_Practice,156,1,38,123,2405907580
34,21,11,Pattern_Practice,157,1,48,100,2405916908
34,21,11,Pattern_Practice,158,1,48,80,2406070592
34,21,11,Pattern_Practice,159,1,38,19,2406080292
34,21,11,Pattern_Practice,160,1,38,127,2406207252
34,21,11,Pattern_Practice,161,1,48,27,2406217480
34,21,11,Pattern_Practice,162,5,42,127,2406374720
34,21,11,Pattern_Practice,163,1,48,127,2406410072
34,21,11,Pattern_Practice,164,1,38,29,2406420004
34,21,11,Pattern_Practice,165,5,42,127,2406874520
34,21,11,Pattern_Practice,166,1,38,99,2407151796
34,21,11,Pattern_Practice,167,1,48,21,2407161124
34,21,11,Pattern_Practice,168,1,48,111,2407166936
34,21,11,Pattern_Practice,169,5,42,127,2407375428
34,21,11,Pattern_Practice,170,1,48,82,2407665872
34,21,11,Pattern_Practice,171,1,38,19,2407676176
34,21,11,Pattern_Practice,172,1,38,93,2407813036
34,21,11,Pattern_Practice,173,5,42,127,2407875156
34,21,11,Pattern_Practice,174,5,42,127,2408374708
34,21,11,Pattern_Practice,175,1,48,65,2408693952
34,21,11,Pattern_Practice,176,1,38,81,2408853648
34,21,11,Pattern_Practice,177,5,42,127,2408875448
34,21,11,Pattern_Practice,178,1,48,89,2409025004
34,21,11,Pattern_Practice,179,1,38,86,2409127624
34,21,11,Pattern_Practice,180,1,48,98,2409345888
34,21,11,Pattern_Practice,181,1,38,23,2409355892
34,21,11,Pattern_Practice,182,5,42,127,2409375076
34,21,11,Pattern_Practice,183,1,48,82,2409674224
34,21,11,Pattern_Practice,184,1,38,23,2409683032
34,21,11,Pattern_Practice,185,1,48,127,2409823848
34,21,11,Pattern_Practice,186,5,42,127,2409874972
34,21,11,Pattern_Practice,187,1,48,88,2410057512
34,21,11,Pattern_Practice,188,1,38,21,2410067704
34,21,11,Pattern_Practice,189,1,48,101,2410190620
34,21,11,Pattern_Practice,190,1,38,22,2410200848
34,21,11,Pattern_Practice,191,1,48,120,2410361564
34,21,11,Pattern_Practice,192,1,38,27,2410371496
34,21,11,Pattern_Practice,193,5,42,127,2410374376
34,21,11,Pattern_Practice,194,5,42,127,2410875172
34,21,11,Pattern_Practice,195,1,38,89,2411171368
34,21,11,Pattern_Practice,196,1,48,21,2411180624
34,21,11,Pattern_Practice,197,5,42,127,2411374892
34,21,11,Pattern_Practice,198,1,38,82,2411722928
34,21,11,Pattern_Practice,199,1,38,121,2411868708
34,21,11,Pattern_Practice,200,5,42,127,2411874656
34,21,11,Pattern_Practice,201,1,48,23,2411878744
34,21,11,Pattern_Practice,202,1,48,84,2412340296
34,21,11,Pattern_Practice,203,1,38,20,2412349700
34,21,11,Pattern_Practice,204,5,42,127,2412375564
34,21,11,Pattern_Practice,205,1,48,69,2412641580
34,21,11,Pattern_Practice,206,1,38,29,2412649864
34,21,11,Pattern_Practice,207,5,42,127,2412875068
34,21,11,Pattern_Practice,208,1,48,127,2413088992
34,21,11,Pattern_Practice,209,1,38,26,2413098844
34,21,11,Pattern_Practice,210,5,42,127,2413374716
34,21,11,Pattern_Practice,211,1,48,77,2413780816
34,21,11,Pattern_Practice,212,5,42,127,2413874724
34,21,11,Pattern_Practice,213,1,38,127,2413944196
34,21,11,Pattern_Practice,214,1,48,25,2413953972
34,21,11,Pattern_Practice,215,5,42,127,2414375624
34,21,11,Pattern_Practice,216,1,38,116,2414403952
34,21,11,Pattern_Practice,217,1,48,23,2414413804
34,21,11,Pattern_Practice,218,5,42,127,2414874980
34,21,11,Pattern_Practice,219,5,42,127,2415374620
34,21,11,Pattern_Practice,220,1,38,93,2415629460
34,21,11,Pattern_Practice,221,1,38,61,2415693536
34,21,11,Pattern_Practice,222,1,38,122,2415796464
34,21,11,Pattern_Practice,223,5,42,127,2415874364
34,21,11,Pattern_Practice,224,1,38,77,2416339240
34,21,11,Pattern_Practice,225,1,38,127,2416350812
34,21,11,Pattern_Practice,226,1,48,28,2416360288
34,21,11,Pattern_Practice,227,5,42,127,2416375136
34,21,11,Pattern_Practice,228,1,38,80,2416686028
34,21,11,Pattern_Practice,229,1,48,18,2416695960
34,21,11,Pattern_Practice,230,1,38,99,2416836476
34,21,11,Pattern_Practice,231,1,48,21,2416846184
34,21,11,Pattern_Practice,232,5,42,127,2416874788
34,21,11,Pattern_Practice,233,1,38,110,2417151720
34,21,11,Pattern_Practice,234,1,48,23,2417161048
34,21,11,Pattern_Practice,235,5,42,127,2417374616
34,21,11,Pattern_Practice,236,1,38,75,2417685104
34,21,11,Pattern_Practice,237,1,38,127,2417806952
34,21,11,Pattern_Practice,238,5,42,127,2417875424
34,21,11,Pattern_Practice,239,1,38,127,2418310384
34,21,11,Pattern_Practice,240,5,42,127,2418374972
34,21,11,Pattern_Practice,0,9999,9999,9999,2378872900
34,21,11,Pattern_Practice,1,9999,9999,9999,2379372616
34,21,11,Pattern_Practice,2,9999,9999,9999,2379872332
34,21,11,Pattern_Practice,3,9999,9999,9999,2380373096
34,21,11,Pattern_Practice,4,9999,9999,9999,2380872812
34,21,11,Pattern_Practice,5,9999,9999,9999,2381372488
34,21,11,Pattern_Practice,6,9999,9999,9999,2381872232
34,21,11,Pattern_Practice,7,9999,9999,9999,2382372940
34,21,11,Pattern_Practice,8,9999,9999,9999,2382872664
34,21,11,Pattern_Practice,9,9999,9999,9999,2383372380
34,21,11,Pattern_Practice,10,9999,9999,9999,2383872096
34,21,11,Pattern_Practice,11,9999,9999,9999,2384372832
34,21,11,Pattern_Practice,12,9999,9999,9999,2384872556
34,21,11,Pattern_Practice,13,9999,9999,9999,2385372276
34,21,11,Pattern_Practice,14,9999,9999,9999,2385872964
34,21,11,Pattern_Practice,15,9999,9999,9999,2386372692
34,21,11,Pattern_Practice,16,9999,9999,9999,2386872372
34,21,11,Pattern_Practice,17,9999,9999,9999,2387372088
34,21,11,Pattern_Practice,18,9999,9999,9999,2387872828
34,21,11,Pattern_Practice,19,9999,9999,9999,2388372532
34,21,11,Pattern_Practice,20,9999,9999,9999,2388872260
34,21,11,Pattern_Practice,21,9999,9999,9999,2389373024
34,21,11,Pattern_Practice,22,9999,9999,9999,2389872740
34,21,11,Pattern_Practice,23,9999,9999,9999,2390372440
34,21,11,Pattern_Practice,24,9999,9999,9999,2390872124
34,21,11,Pattern_Practice,25,9999,9999,9999,2391372912
34,21,11,Pattern_Practice,26,9999,9999,9999,2391872632
34,21,11,Pattern_Practice,27,9999,9999,9999,2392372308
34,21,11,Pattern_Practice,28,9999,9999,9999,2392873032
34,21,11,Pattern_Practice,29,9999,9999,9999,2393372724
34,21,11,Pattern_Practice,30,9999,9999,9999,2393872488
34,21,11,Pattern_Practice,31,9999,9999,9999,2394372180
34,21,11,Pattern_Practice,32,9999,9999,9999,2394872952
34,21,11,Pattern_Practice,33,9999,9999,9999,2395372652
34,21,11,Pattern_Practice,34,9999,9999,9999,2395872368
34,21,11,Pattern_Practice,35,9999,9999,9999,2396373040
34,21,11,Pattern_Practice,36,9999,9999,9999,2396872768
34,21,11,Pattern_Practice,37,9999,9999,9999,2397372484
34,21,11,Pattern_Practice,38,9999,9999,9999,2397872248
34,21,11,Pattern_Practice,39,9999,9999,9999,2398372936
34,21,11,Pattern_Practice,40,9999,9999,9999,2398872676
34,21,11,Pattern_Practice,41,9999,9999,9999,2399372400
34,21,11,Pattern_Practice,42,9999,9999,9999,2399872072
34,21,11,Pattern_Practice,43,9999,9999,9999,2400372824
34,21,11,Pattern_Practice,44,9999,9999,9999,2400872548
34,21,11,Pattern_Practice,45,9999,9999,9999,2401372216
34,21,11,Pattern_Practice,46,9999,9999,9999,2401872976
34,21,11,Pattern_Practice,47,9999,9999,9999,2402372724
34,21,11,Pattern_Practice,48,9999,9999,9999,2402872376
34,21,11,Pattern_Practice,49,9999,9999,9999,2403372128
34,21,11,Pattern_Practice,50,9999,9999,9999,2403872860
34,21,11,Pattern_Practice,51,9999,9999,9999,2404372556
34,21,11,Pattern_Practice,52,9999,9999,9999,2404872264
34,21,11,Pattern_Practice,53,9999,9999,9999,2405373000
34,21,11,Pattern_Practice,54,9999,9999,9999,2405872700
34,21,11,Pattern_Practice,55,9999,9999,9999,2406372432
34,21,11,Pattern_Practice,56,9999,9999,9999,2406872152
34,21,11,Pattern_Practice,57,9999,9999,9999,2407372916
34,21,11,Pattern_Practice,58,9999,9999,9999,2407872568
34,21,11,Pattern_Practice,59,9999,9999,9999,2408372344
34,21,11,Pattern_Practice,60,9999,9999,9999,2408873080
34,21,11,Pattern_Practice,61,9999,9999,9999,2409372788
34,21,11,Pattern_Practice,62,9999,9999,9999,2409872456
34,21,11,Pattern_Practice,63,9999,9999,9999,2410372160
34,21,11,Pattern_Practice,64,9999,9999,9999,2410872880
34,21,11,Pattern_Practice,65,9999,9999,9999,2411372600
34,21,11,Pattern_Practice,66,9999,9999,9999,2411872364
34,21,11,Pattern_Practice,67,9999,9999,9999,2412373052
34,21,11,Pattern_Practice,68,9999,9999,9999,2412872780
34,21,11,Pattern_Practice,69,9999,9999,9999,2413372500
34,21,11,Pattern_Practice,70,9999,9999,9999,2413872212
34,21,11,Pattern_Practice,71,9999,9999,9999,2414372964
34,21,11,Pattern_Practice,72,9999,9999,9999,2414872688
34,21,11,Pattern_Practice,73,9999,9999,9999,2415372404
34,21,11,Pattern_Practice,74,9999,9999,9999,2415872072
34,21,11,Pattern_Practice,75,9999,9999,9999,2416372848
34,21,11,Pattern_Practice,76,9999,9999,9999,2416872500
34,21,11,Pattern_Practice,77,9999,9999,9999,2417372252
34,21,11,Pattern_Practice,78,9999,9999,9999,2417872988
34,21,11,Pattern_Practice,79,9999,9999,9999,2418372680
34,22,13,Improv_Metronome,0,5,42,127,2436938980
34,22,13,Improv_Metronome,1,5,42,127,2437438772
34,22,13,Improv_Metronome,2,5,42,127,2437938636
34,22,13,Improv_Metronome,3,5,42,127,2438439400
34,22,13,Improv_Metronome,4,1,48,94,2438932044
34,22,13,Improv_Metronome,5,5,42,127,2438939036
34,22,13,Improv_Metronome,6,1,48,75,2439430620
34,22,13,Improv_Metronome,7,5,42,127,2439438804
34,22,13,Improv_Metronome,8,1,48,99,2439768900
34,22,13,Improv_Metronome,9,1,38,101,2439920268
34,22,13,Improv_Metronome,10,1,48,21,2439930348
34,22,13,Improv_Metronome,11,5,42,127,2439938608
34,22,13,Improv_Metronome,12,1,48,75,2440224144
34,22,13,Improv_Metronome,13,5,42,127,2440439156
34,22,13,Improv_Metronome,14,1,38,111,2440865160
34,22,13,Improv_Metronome,15,1,48,99,2440875088
34,22,13,Improv_Metronome,16,5,42,127,2440938848
34,22,13,Improv_Metronome,17,1,48,85,2441253404
34,22,13,Improv_Metronome,18,1,38,108,2441393284
34,22,13,Improv_Metronome,19,5,42,127,2441438492
34,22,13,Improv_Metronome,20,1,38,127,2441731760
34,22,13,Improv_Metronome,21,5,42,127,2441939444
34,22,13,Improv_Metronome,22,1,38,68,2442282244
34,22,13,Improv_Metronome,23,1,38,71,2442423316
34,22,13,Improv_Metronome,24,5,42,127,2442438980
34,22,13,Improv_Metronome,25,1,38,93,2442555480
34,22,13,Improv_Metronome,26,1,48,20,2442565556
34,22,13,Improv_Metronome,27,1,38,83,2442721932
34,22,13,Improv_Metronome,28,1,48,21,2442730740
34,22,13,Improv_Metronome,29,1,38,127,2442901776
34,22,13,Improv_Metronome,30,5,42,127,2442938612
34,22,13,Improv_Metronome,31,5,42,127,2443438536
34,22,13,Improv_Metronome,32,5,42,127,2443939372
34,22,13,Improv_Metronome,33,1,38,92,2444271476
34,22,13,Improv_Metronome,34,1,48,19,2444281404
34,22,13,Improv_Metronome,35,1,38,116,2444404952
34,22,13,Improv_Metronome,36,5,42,127,2444438940
34,22,13,Improv_Metronome,37,1,48,127,2444896716
34,22,13,Improv_Metronome,38,5,42,127,2444938560
34,22,13,Improv_Metronome,39,5,42,127,2445439308
34,22,13,Improv_Metronome,40,1,38,105,2445705964
34,22,13,Improv_Metronome,41,1,48,127,2445717092
34,22,13,Improv_Metronome,42,5,42,127,2445939180
34,22,13,Improv_Metronome,43,1,48,48,2446316536
34,22,13,Improv_Metronome,44,1,38,107,2446435244
34,22,13,Improv_Metronome,45,5,42,127,2446439016
34,22,13,Improv_Metronome,46,5,42,127,2446938420
34,22,13,Improv_Metronome,47,1,48,102,2446945204
34,22,13,Improv_Metronome,48,1,48,127,2446960364
34,22,13,Improv_Metronome,49,1,48,103,2447261652
34,22,13,Improv_Metronome,50,1,48,127,2447381760
34,22,13,Improv_Metronome,51,1,38,26,2447392212
34,22,13,Improv_Metronome,52,5,42,127,2447439316
34,22,13,Improv_Metronome,53,1,48,119,2447752152
34,22,13,Improv_Metronome,54,5,42,127,2447939020
34,22,13,Improv_Metronome,55,1,48,109,2448274360
34,22,13,Improv_Metronome,56,1,38,26,2448283848
34,22,13,Improv_Metronome,57,1,38,124,2448408332
34,22,13,Improv_Metronome,58,1,48,23,2448419012
34,22,13,Improv_Metronome,59,5,42,127,2448438568
34,22,13,Improv_Metronome,60,1,48,80,2448583708
34,22,13,Improv_Metronome,61,1,38,21,2448593412
34,22,13,Improv_Metronome,62,1,38,102,2448712888
34,22,13,Improv_Metronome,63,1,48,23,2448722852
34,22,13,Improv_Metronome,64,1,38,127,2448905392
34,22,13,Improv_Metronome,65,5,42,127,2448939304
34,22,13,Improv_Metronome,66,1,38,121,2449235740
34,22,13,Improv_Metronome,67,1,48,26,2449245068
34,22,13,Improv_Metronome,68,5,42,127,2449439012
34,22,13,Improv_Metronome,69,1,38,110,2449562056
34,22,13,Improv_Metronome,70,1,48,22,2449572060
34,22,13,Improv_Metronome,71,1,38,127,2449888804
34,22,13,Improv_Metronome,72,5,42,127,2449939024
34,22,13,Improv_Metronome,73,1,38,127,2450432032
34,22,13,Improv_Metronome,74,5,42,127,2450438496
34,22,13,Improv_Metronome,75,1,38,121,2450482812
34,22,13,Improv_Metronome,76,1,38,114,2450632112
34,22,13,Improv_Metronome,77,1,48,22,2450641884
34,22,13,Improv_Metronome,78,1,38,90,2450770888
34,22,13,Improv_Metronome,79,1,48,21,2450780520
34,22,13,Improv_Metronome,80,5,42,127,2450939308
34,22,13,Improv_Metronome,81,1,38,119,2450949980
34,22,13,Improv_Metronome,82,1,48,28,2450959540
34,22,13,Improv_Metronome,83,5,42,127,2451438884
34,22,13,Improv_Metronome,84,5,42,127,2451938820
34,22,13,Improv_Metronome,85,1,48,108,2452264120
34,22,13,Improv_Metronome,86,1,48,95,2452313116
34,22,13,Improv_Metronome,87,1,38,21,2452322292
34,22,13,Improv_Metronome,88,1,48,54,2452350248
34,22,13,Improv_Metronome,89,1,38,127,2452423600
34,22,13,Improv_Metronome,90,1,48,25,2452434424
34,22,13,Improv_Metronome,91,5,42,127,2452439324
34,22,13,Improv_Metronome,92,1,48,127,2452606380
34,22,13,Improv_Metronome,93,1,38,107,2452740692
34,22,13,Improv_Metronome,94,1,48,23,2452749724
34,22,13,Improv_Metronome,95,1,48,127,2452912008
34,22,13,Improv_Metronome,96,1,38,35,2452922012
34,22,13,Improv_Metronome,97,5,42,127,2452939176
34,22,13,Improv_Metronome,98,1,48,127,2453240492
34,22,13,Improv_Metronome,99,1,38,33,2453250500
34,22,13,Improv_Metronome,100,5,42,127,2453439004
34,22,13,Improv_Metronome,101,1,48,127,2453474960
34,22,13,Improv_Metronome,102,1,48,127,2453755456
34,22,13,Improv_Metronome,103,5,42,127,2453938676
34,22,13,Improv_Metronome,104,1,48,115,2454416664
34,22,13,Improv_Metronome,105,5,42,127,2454439136
34,22,13,Improv_Metronome,106,1,48,124,2454574780
34,22,13,Improv_Metronome,107,1,38,24,2454585156
34,22,13,Improv_Metronome,108,1,48,113,2454714908
34,22,13,Improv_Metronome,109,1,38,24,2454724532
34,22,13,Improv_Metronome,110,1,48,127,2454887344
34,22,13,Improv_Metronome,111,1,38,32,2454897424
34,22,13,Improv_Metronome,112,5,42,127,2454938968
34,22,13,Improv_Metronome,113,1,38,95,2455215756
34,22,13,Improv_Metronome,114,1,48,21,2455225536
34,22,13,Improv_Metronome,115,5,42,127,2455438648
34,22,13,Improv_Metronome,116,1,38,80,2455614852
34,22,13,Improv_Metronome,117,1,38,127,2455736328
34,22,13,Improv_Metronome,118,1,48,127,2455880288
34,22,13,Improv_Metronome,119,1,38,28,2455889356
34,22,13,Improv_Metronome,120,5,42,127,2455938308
34,22,13,Improv_Metronome,121,1,48,82,2456428512
34,22,13,Improv_Metronome,122,1,38,85,2456431788
34,22,13,Improv_Metronome,123,5,42,127,2456439004
34,22,13,Improv_Metronome,124,1,48,66,2456680932
34,22,13,Improv_Metronome,125,1,38,89,2456768728
34,22,13,Improv_Metronome,126,1,48,22,2456778952
34,22,13,Improv_Metronome,127,1,48,127,2456932032
34,22,13,Improv_Metronome,128,5,42,127,2456938804
34,22,13,Improv_Metronome,129,1,38,32,2456942588
34,22,13,Improv_Metronome,130,1,48,108,2457253276
34,22,13,Improv_Metronome,131,1,38,24,2457262532
34,22,13,Improv_Metronome,132,1,48,127,2457270444
34,22,13,Improv_Metronome,133,5,42,127,2457438824
34,22,13,Improv_Metronome,134,1,48,127,2457557136
34,22,13,Improv_Metronome,135,1,38,28,2457566468
34,22,13,Improv_Metronome,136,1,48,82,2457765552
34,22,13,Improv_Metronome,137,5,42,127,2457939572
34,22,13,Improv_Metronome,138,1,48,127,2458034844
34,22,13,Improv_Metronome,139,1,38,33,2458045296
34,22,13,Improv_Metronome,140,5,42,127,2458439048
34,22,13,Improv_Metronome,141,1,48,122,2458934084
34,22,13,Improv_Metronome,142,5,42,127,2458938608
34,22,13,Improv_Metronome,143,1,38,27,2458943748
34,22,13,Improv_Metronome,144,1,48,71,2458978976
34,22,13,Improv_Metronome,145,1,38,74,2459133608
34,22,13,Improv_Metronome,146,1,48,82,2459263684
34,22,13,Improv_Metronome,147,1,38,20,2459273836
34,22,13,Improv_Metronome,148,1,38,97,2459398776
34,22,13,Improv_Metronome,149,5,42,127,2459438676
34,22,13,Improv_Metronome,150,1,48,96,2459825472
34,22,13,Improv_Metronome,151,1,38,22,2459835552
34,22,13,Improv_Metronome,152,1,38,127,2459910992
34,22,13,Improv_Metronome,153,1,48,28,2459921068
34,22,13,Improv_Metronome,154,5,42,127,2459939132
34,22,13,Improv_Metronome,155,1,48,102,2460080536
34,22,13,Improv_Metronome,156,1,38,24,2460090760
34,22,13,Improv_Metronome,157,1,38,98,2460221904
34,22,13,Improv_Metronome,158,1,48,127,2460381076
34,22,13,Improv_Metronome,159,1,38,34,2460390856
34,22,13,Improv_Metronome,160,5,42,127,2460438764
34,22,13,Improv_Metronome,161,5,42,127,2460938584
34,22,13,Improv_Metronome,162,1,48,127,2460943272
34,22,13,Improv_Metronome,163,1,38,116,2460945876
34,22,13,Improv_Metronome,164,1,48,99,2461105544
34,22,13,Improv_Metronome,165,1,38,21,2461115244
34,22,13,Improv_Metronome,166,1,48,101,2461241080
34,22,13,Improv_Metronome,167,1,38,22,2461251308
34,22,13,Improv_Metronome,168,1,48,127,2461392796
34,22,13,Improv_Metronome,169,5,42,127,2461439584
34,22,13,Improv_Metronome,170,1,48,54,2461509556
34,22,13,Improv_Metronome,171,1,48,127,2461712856
34,22,13,Improv_Metronome,172,1,38,79,2461857668
34,22,13,Improv_Metronome,173,5,42,127,2461939160
34,22,13,Improv_Metronome,174,1,38,127,2462042740
34,22,13,Improv_Metronome,175,1,38,106,2462181400
34,22,13,Improv_Metronome,176,1,48,22,2462191100
34,22,13,Improv_Metronome,177,1,38,127,2462352124
34,22,13,Improv_Metronome,178,1,48,32,2462361980
34,22,13,Improv_Metronome,179,5,42,127,2462438684
34,22,13,Improv_Metronome,180,1,38,112,2462852968
34,22,13,Improv_Metronome,181,1,38,127,2462860356
34,22,13,Improv_Metronome,182,5,42,127,2462938404
34,22,13,Improv_Metronome,183,1,38,102,2463214772
34,22,13,Improv_Metronome,184,5,42,127,2463439352
34,22,13,Improv_Metronome,185,1,38,127,2463534772
34,22,13,Improv_Metronome,186,1,48,23,2463544780
34,22,13,Improv_Metronome,187,1,38,127,2463916892
34,22,13,Improv_Metronome,188,1,48,28,2463926304
34,22,13,Improv_Metronome,189,5,42,127,2463938900
34,22,13,Improv_Metronome,190,1,38,127,2464354760
34,22,13,Improv_Metronome,191,5,42,127,2464438640
34,22,13,Improv_Metronome,192,1,38,92,2464512652
34,22,13,Improv_Metronome,193,1,38,109,2464652380
34,22,13,Improv_Metronome,194,1,38,101,2464788640
34,22,13,Improv_Metronome,195,1,48,21,2464798192
34,22,13,Improv_Metronome,196,5,42,127,2464939352
34,22,13,Improv_Metronome,197,1,38,127,2464956832
34,22,13,Improv_Metronome,198,1,48,25,2464966836
34,22,13,Improv_Metronome,199,1,38,127,2465255976
34,22,13,Improv_Metronome,200,1,48,25,2465266504
34,22,13,Improv_Metronome,201,5,42,127,2465438940
34,22,13,Improv_Metronome,202,1,38,105,2465494420
34,22,13,Improv_Metronome,203,1,48,127,2465695404
34,22,13,Improv_Metronome,204,1,38,29,2465705332
34,22,13,Improv_Metronome,205,1,38,97,2465852404
34,22,13,Improv_Metronome,206,5,42,127,2465938708
34,22,13,Improv_Metronome,207,5,42,127,2466438484
34,22,13,Improv_Metronome,208,1,48,60,2466734836
34,22,13,Improv_Metronome,209,1,38,24,2466743344
34,22,13,Improv_Metronome,210,1,38,92,2466872092
34,22,13,Improv_Metronome,211,1,48,21,2466881728
34,22,13,Improv_Metronome,212,5,42,127,2466939156
34,22,13,Improv_Metronome,213,1,48,58,2467206592
34,22,13,Improv_Metronome,214,1,38,21,2467215400
34,22,13,Improv_Metronome,215,1,48,75,2467376008
34,22,13,Improv_Metronome,216,1,38,23,2467385116
34,22,13,Improv_Metronome,217,5,42,127,2467438804
34,22,13,Improv_Metronome,218,1,48,125,2467668172
34,22,13,Improv_Metronome,219,1,38,25,2467678020
34,22,13,Improv_Metronome,220,5,42,127,2467938560
34,22,13,Improv_Metronome,221,1,48,85,2468230348
34,22,13,Improv_Metronome,222,1,38,21,2468240428
34,22,13,Improv_Metronome,223,1,38,91,2468394384
34,22,13,Improv_Metronome,224,5,42,127,2468439396
34,22,13,Improv_Metronome,225,1,48,88,2468574372
34,22,13,Improv_Metronome,226,1,38,19,2468584676
34,22,13,Improv_Metronome,227,1,38,69,2468718084
34,22,13,Improv_Metronome,228,1,48,123,2468909248
34,22,13,Improv_Metronome,229,5,42,127,2468939344
34,22,13,Improv_Metronome,230,1,38,111,2469216684
34,22,13,Improv_Metronome,231,5,42,127,2469438776
34,22,13,Improv_Metronome,232,1,38,127,2469561296
34,22,13,Improv_Metronome,233,1,38,127,2469753084
34,22,13,Improv_Metronome,234,1,48,24,2469763536
34,22,13,Improv_Metronome,235,1,48,127,2469917868
34,22,13,Improv_Metronome,236,5,42,127,2469938620
34,22,13,Improv_Metronome,237,1,38,123,2470411580
34,22,13,Improv_Metronome,238,1,38,127,2470421128
34,22,13,Improv_Metronome,239,5,42,127,2470439264
34,22,13,Improv_Metronome,240,1,38,108,2470908112
34,22,13,Improv_Metronome,241,5,42,127,2470939108
34,22,13,Improv_Metronome,242,1,38,122,2471248336
34,22,13,Improv_Metronome,243,1,48,24,2471258192
34,22,13,Improv_Metronome,244,5,42,127,2471438816
34,22,13,Improv_Metronome,245,1,38,127,2471592748
34,22,13,Improv_Metronome,246,5,42,127,2471938288
34,22,13,Improv_Metronome,247,1,38,126,2472002064
34,22,13,Improv_Metronome,248,1,48,23,2472011728
34,22,13,Improv_Metronome,249,5,42,127,2472439140
34,22,13,Improv_Metronome,250,1,38,127,2472545732
34,22,13,Improv_Metronome,251,1,38,102,2472656560
34,22,13,Improv_Metronome,252,1,38,127,2472823284
34,22,13,Improv_Metronome,253,5,42,127,2472938944
34,22,13,Improv_Metronome,254,1,38,127,2472968688
34,22,13,Improv_Metronome,255,5,42,127,2473438564
34,22,13,Improv_Metronome,256,5,42,127,2473939400
34,22,13,Improv_Metronome,257,1,48,111,2474249664
34,22,13,Improv_Metronome,258,1,48,61,2474316460
34,22,13,Improv_Metronome,259,1,48,127,2474413000
34,22,13,Improv_Metronome,260,5,42,127,2474439068
34,22,13,Improv_Metronome,261,1,48,102,2474574888
34,22,13,Improv_Metronome,262,1,38,23,2474584072
34,22,13,Improv_Metronome,263,1,48,83,2474734432
34,22,13,Improv_Metronome,264,1,48,127,2474881568
34,22,13,Improv_Metronome,265,1,38,27,2474890820
34,22,13,Improv_Metronome,266,5,42,127,2474938952
34,22,13,Improv_Metronome,267,1,48,83,2475031112
34,22,13,Improv_Metronome,268,1,38,21,2475041264
34,22,13,Improv_Metronome,269,1,48,127,2475191732
34,22,13,Improv_Metronome,270,1,38,26,2475201736
34,22,13,Improv_Metronome,271,1,48,104,2475353624
34,22,13,Improv_Metronome,272,1,38,32,2475363028
34,22,13,Improv_Metronome,273,5,42,127,2475438388
34,22,13,Improv_Metronome,274,1,48,127,2475832604
34,22,13,Improv_Metronome,275,5,42,127,2475939084
34,22,13,Improv_Metronome,276,1,48,91,2476010868
34,22,13,Improv_Metronome,277,1,48,127,2476160540
34,22,13,Improv_Metronome,278,1,38,25,2476170620
34,22,13,Improv_Metronome,279,1,48,127,2476335648
34,22,13,Improv_Metronome,280,1,38,28,2476345356
34,22,13,Improv_Metronome,281,5,42,127,2476438864
34,22,13,Improv_Metronome,282,1,48,127,2476935848
34,22,13,Improv_Metronome,283,5,42,127,2476938648
34,22,13,Improv_Metronome,284,1,38,24,2476947080
34,22,13,Improv_Metronome,285,1,48,127,2477282820
34,22,13,Improv_Metronome,286,1,38,30,2477292152
34,22,13,Improv_Metronome,287,5,42,127,2477439232
34,22,13,Improv_Metronome,288,1,48,127,2477561504
34,22,13,Improv_Metronome,289,1,38,28,2477570832
34,22,13,Improv_Metronome,290,1,48,127,2477753092
34,22,13,Improv_Metronome,291,1,38,28,2477762948
34,22,13,Improv_Metronome,292,5,42,127,2477939112
34,22,13,Improv_Metronome,293,1,48,127,2477943876
34,22,13,Improv_Metronome,294,1,48,124,2478149172
34,22,13,Improv_Metronome,295,1,38,25,2478159216
34,22,13,Improv_Metronome,296,1,48,127,2478291184
34,22,13,Improv_Metronome,297,5,42,127,2478438876
34,22,13,Improv_Metronome,298,1,48,127,2478464436
34,22,13,Improv_Metronome,299,1,38,32,2478474368
34,22,13,Improv_Metronome,300,1,38,127,2478928988
34,22,13,Improv_Metronome,301,1,48,96,2478932180
34,22,13,Improv_Metronome,302,5,42,127,2478938424
34,22,13,Improv_Metronome,303,1,48,127,2479278264
34,22,13,Improv_Metronome,304,1,38,27,2479288188
34,22,13,Improv_Metronome,305,1,48,125,2479424272
34,22,13,Improv_Metronome,306,1,38,25,2479435064
34,22,13,Improv_Metronome,307,5,42,127,2479439136
34,22,13,Improv_Metronome,308,1,48,121,2479721680
34,22,13,Improv_Metronome,309,1,38,27,2479731084
34,22,13,Improv_Metronome,310,1,48,109,2479873524
34,22,13,Improv_Metronome,311,1,38,25,2479883456
34,22,13,Improv_Metronome,312,5,42,127,2479938912
34,22,13,Improv_Metronome,313,1,48,106,2480026688
34,22,13,Improv_Metronome,314,1,38,24,2480036836
34,22,13,Improv_Metronome,315,1,48,85,2480189076
34,22,13,Improv_Metronome,316,1,38,19,2480198784
34,22,13,Improv_Metronome,317,1,48,118,2480350668
34,22,13,Improv_Metronome,318,1,38,27,2480360524
34,22,13,Improv_Metronome,319,5,42,127,2480438572
34,22,13,Improv_Metronome,320,1,48,101,2480753980
34,22,13,Improv_Metronome,321,1,38,23,2480763828
34,22,13,Improv_Metronome,322,1,48,127,2480917264
34,22,13,Improv_Metronome,323,1,38,27,2480927492
34,22,13,Improv_Metronome,324,5,42,127,2480939568
34,22,13,Improv_Metronome,325,1,48,114,2481270088
34,22,13,Improv_Metronome,326,1,38,26,2481280168
34,22,13,Improv_Metronome,327,5,42,127,2481439176
34,22,13,Improv_Metronome,328,1,48,102,2481609344
34,22,13,Improv_Metronome,329,1,38,24,2481620172
34,22,13,Improv_Metronome,330,5,42,127,2481938824
34,22,13,Improv_Metronome,331,1,48,61,2482324884
34,22,13,Improv_Metronome,332,1,38,21,2482333764
34,22,13,Improv_Metronome,333,5,42,127,2482438544
34,22,13,Improv_Metronome,334,1,48,95,2482481532
34,22,13,Improv_Metronome,335,1,38,22,2482491684
34,22,13,Improv_Metronome,336,5,42,127,2482939464
34,22,13,Improv_Metronome,337,1,48,116,2483271792
34,22,13,Improv_Metronome,338,1,38,27,2483281984
34,22,13,Improv_Metronome,339,5,42,127,2483438824
34,22,13,Improv_Metronome,340,1,48,123,2483774596
34,22,13,Improv_Metronome,341,1,38,27,2483784000
34,22,13,Improv_Metronome,342,5,42,127,2483938696
34,22,13,Improv_Metronome,343,1,38,127,2484249032
34,22,13,Improv_Metronome,344,1,48,26,2484258964
34,22,13,Improv_Metronome,345,1,48,92,2484430520
34,22,13,Improv_Metronome,346,5,42,127,2484439380
34,22,13,Improv_Metronome,347,1,38,20,2484440792
34,22,13,Improv_Metronome,348,1,48,127,2484758648
34,22,13,Improv_Metronome,349,1,38,32,2484769024
34,22,13,Improv_Metronome,350,1,38,127,2484915456
34,22,13,Improv_Metronome,351,1,48,29,2484925304
34,22,13,Improv_Metronome,352,5,42,127,2484939028
34,22,13,Improv_Metronome,353,1,38,109,2485208332
34,22,13,Improv_Metronome,354,1,48,24,2485218108
34,22,13,Improv_Metronome,355,1,48,113,2485402460
34,22,13,Improv_Metronome,356,1,38,25,2485412540
34,22,13,Improv_Metronome,357,5,42,127,2485438680
34,22,13,Improv_Metronome,358,1,38,127,2485720776
34,22,13,Improv_Metronome,359,1,48,29,2485731152
34,22,13,Improv_Metronome,360,1,48,98,2485929792
34,22,13,Improv_Metronome,361,5,42,127,2485938652
34,22,13,Improv_Metronome,362,1,38,24,2485940292
34,22,13,Improv_Metronome,363,1,48,112,2486223964
34,22,13,Improv_Metronome,364,1,38,127,2486371088
34,22,13,Improv_Metronome,365,1,48,29,2486380268
34,22,13,Improv_Metronome,366,5,42,127,2486439544
34,22,13,Improv_Metronome,367,1,48,104,2486693220
34,22,13,Improv_Metronome,368,1,38,22,2486702624
34,22,13,Improv_Metronome,369,1,48,70,2486843040
34,22,13,Improv_Metronome,370,1,38,22,2486852224
34,22,13,Improv_Metronome,371,5,42,127,2486939936
34,22,13,Improv_Metronome,372,1,38,127,2487175908
34,22,13,Improv_Metronome,373,1,48,103,2487362428
34,22,13,Improv_Metronome,374,1,38,25,2487372396
34,22,13,Improv_Metronome,375,5,42,127,2487438552
34,22,13,Improv_Metronome,376,1,48,111,2487802700
34,22,13,Improv_Metronome,377,1,38,26,2487812556
34,22,13,Improv_Metronome,378,5,42,127,2487938384
34,22,13,Improv_Metronome,379,1,38,127,2487947560
34,22,13,Improv_Metronome,380,1,38,127,2488326712
34,22,13,Improv_Metronome,381,5,42,127,2488439248
34,22,13,Improv_Metronome,382,1,38,127,2488691468
34,22,13,Improv_Metronome,383,1,48,28,2488701252
34,22,13,Improv_Metronome,384,1,48,127,2488825144
34,22,13,Improv_Metronome,385,1,38,35,2488834252
34,22,13,Improv_Metronome,386,5,42,127,2488938832
34,22,13,Improv_Metronome,387,1,48,93,2489386200
34,22,13,Improv_Metronome,388,1,38,126,2489392464
34,22,13,Improv_Metronome,389,5,42,127,2489438672
34,22,13,Improv_Metronome,390,1,48,68,2489701544
34,22,13,Improv_Metronome,391,1,38,24,2489711024
34,22,13,Improv_Metronome,392,5,42,127,2489939396
34,22,13,Improv_Metronome,393,1,48,86,2490297980
34,22,13,Improv_Metronome,394,1,38,127,2490421600
34,22,13,Improv_Metronome,395,1,48,24,2490430632
34,22,13,Improv_Metronome,396,5,42,127,2490439188
34,22,13,Improv_Metronome,397,1,38,121,2490604300
34,22,13,Improv_Metronome,398,1,38,114,2490796312
34,22,13,Improv_Metronome,399,1,48,27,2490805716
34,22,13,Improv_Metronome,400,5,42,127,2490938696
34,22,13,Improv_Metronome,401,1,48,127,2490983504
34,22,13,Improv_Metronome,402,1,38,32,2490992908
34,22,13,Improv_Metronome,403,5,42,127,2491438568
34,22,13,Improv_Metronome,404,1,48,106,2491463524
34,22,13,Improv_Metronome,405,1,38,127,2491467656
34,22,13,Improv_Metronome,406,1,48,126,2491776032
34,22,13,Improv_Metronome,407,1,38,26,2491786480
34,22,13,Improv_Metronome,408,1,48,127,2491935204
34,22,13,Improv_Metronome,409,5,42,127,2491939124
34,22,13,Improv_Metronome,410,1,48,127,2492111520
34,22,13,Improv_Metronome,411,1,38,30,2492121448
34,22,13,Improv_Metronome,412,1,38,127,2492240952
34,22,13,Improv_Metronome,413,1,48,108,2492404136
34,22,13,Improv_Metronome,414,1,38,31,2492413392
34,22,13,Improv_Metronome,415,5,42,127,2492439080
34,22,13,Improv_Metronome,416,1,48,80,2492550268
34,22,13,Improv_Metronome,417,1,38,32,2492557952
34,22,13,Improv_Metronome,418,1,48,127,2492710864
34,22,13,Improv_Metronome,419,1,38,31,2492719672
34,22,13,Improv_Metronome,420,1,38,127,2492842092
34,22,13,Improv_Metronome,421,5,42,127,2492938540
34,22,13,Improv_Metronome,422,1,48,103,2493027388
34,22,13,Improv_Metronome,423,1,38,31,2493036488
34,22,13,Improv_Metronome,424,1,48,61,2493150656
34,22,13,Improv_Metronome,425,1,38,41,2493159012
34,22,13,Improv_Metronome,426,1,48,127,2493341420
34,22,13,Improv_Metronome,427,1,38,29,2493350304
34,22,13,Improv_Metronome,428,5,42,127,2493439552
34,22,13,Improv_Metronome,429,1,38,91,2493515760
34,22,13,Improv_Metronome,430,1,48,71,2493676560
34,22,13,Improv_Metronome,431,1,38,33,2493686260
34,22,13,Improv_Metronome,432,1,48,115,2493825804
34,22,13,Improv_Metronome,433,1,38,25,2493834836
34,22,13,Improv_Metronome,434,5,42,127,2493939168
34,22,13,Improv_Metronome,435,5,42,127,2494438736
34,22,13,Improv_Metronome,436,5,42,127,2494938452
34,22,13,Improv_Metronome,437,1,48,105,2495222836
34,22,13,Improv_Metronome,438,1,38,22,2495232760
34,22,13,Improv_Metronome,439,1,48,74,2495268272
34,22,13,Improv_Metronome,440,1,38,98,2495386056
34,22,13,Improv_Metronome,441,1,48,20,2495395680
34,22,13,Improv_Metronome,442,5,42,127,2495439176
34,22,13,Improv_Metronome,443,1,48,102,2495530584
34,22,13,Improv_Metronome,444,1,38,25,2495540368
34,22,13,Improv_Metronome,445,1,38,121,2495695844
34,22,13,Improv_Metronome,446,1,48,22,2495705996
34,22,13,Improv_Metronome,447,1,48,127,2495867464
34,22,13,Improv_Metronome,448,1,38,32,2495877016
34,22,13,Improv_Metronome,449,5,42,127,2495938832
34,22,13,Improv_Metronome,450,1,38,127,2496275232
34,22,13,Improv_Metronome,451,5,42,127,2496438560
34,22,13,Improv_Metronome,452,5,42,127,2496939248
34,22,13,Improv_Metronome,453,1,38,104,2497293940
34,22,13,Improv_Metronome,454,1,48,21,2497303196
34,22,13,Improv_Metronome,455,1,38,127,2497410212
34,22,13,Improv_Metronome,456,5,42,127,2497439040
34,22,13,Improv_Metronome,457,1,38,127,2497909832
34,22,13,Improv_Metronome,458,1,38,127,2497914816
34,22,13,Improv_Metronome,459,5,42,127,2497938788
34,22,13,Improv_Metronome,460,1,38,95,2498249864
34,22,13,Improv_Metronome,461,1,48,21,2498260240
34,22,13,Improv_Metronome,462,5,42,127,2498438424
34,22,13,Improv_Metronome,463,1,38,122,2498560768
34,22,13,Improv_Metronome,464,1,38,127,2498906736
34,22,13,Improv_Metronome,465,1,48,23,2498916668
34,22,13,Improv_Metronome,466,5,42,127,2498939360
34,22,13,Improv_Metronome,467,1,38,118,2499427624
34,22,13,Improv_Metronome,468,5,42,127,2499438880
34,22,13,Improv_Metronome,469,1,38,127,2499460308
34,22,13,Improv_Metronome,470,1,48,28,2499469488
34,22,13,Improv_Metronome,471,1,38,86,2499652620
34,22,13,Improv_Metronome,472,1,38,125,2499784560
34,22,13,Improv_Metronome,473,1,48,24,2499794340
34,22,13,Improv_Metronome,474,5,42,127,2499938940
34,22,13,Improv_Metronome,475,1,48,127,2499949540
34,22,13,Improv_Metronome,476,1,48,127,2500276036
34,22,13,Improv_Metronome,477,1,38,26,2500285968
34,22,13,Improv_Metronome,478,1,38,121,2500398188
34,22,13,Improv_Metronome,479,1,48,24,2500407892
34,22,13,Improv_Metronome,480,5,42,127,2500439288
34,22,13,Improv_Metronome,481,1,38,124,2500742552
34,22,13,Improv_Metronome,482,1,48,127,2500747920
34,22,13,Improv_Metronome,483,5,42,127,2500939340
34,22,13,Improv_Metronome,484,1,48,87,2501314684
34,22,13,Improv_Metronome,485,1,38,22,2501324380
34,22,13,Improv_Metronome,486,1,38,91,2501434060
34,22,13,Improv_Metronome,487,5,42,127,2501438808
34,22,13,Improv_Metronome,488,5,42,127,2501938584
34,22,13,Improv_Metronome,489,1,48,65,2501939476
34,22,13,Improv_Metronome,490,1,38,83,2501941848
34,22,13,Improv_Metronome,491,1,48,77,2502287248
34,22,13,Improv_Metronome,492,1,38,21,2502297704
34,22,13,Improv_Metronome,493,1,38,127,2502411120
34,22,13,Improv_Metronome,494,5,42,127,2502439204
34,22,13,Improv_Metronome,495,1,48,104,2502759348
34,22,13,Improv_Metronome,496,1,38,24,2502768684
34,22,13,Improv_Metronome,497,1,38,127,2502774564
34,22,13,Improv_Metronome,498,1,48,102,2502908184
34,22,13,Improv_Metronome,499,1,38,24,2502917808
34,22,13,Improv_Metronome,500,5,42,127,2502939012
34,22,13,Improv_Metronome,501,1,48,37,2503270428
34,22,13,Improv_Metronome,502,1,38,21,2503278856
34,22,13,Improv_Metronome,503,1,38,127,2503401396
34,22,13,Improv_Metronome,504,5,42,127,2503438684
34,22,13,Improv_Metronome,505,1,48,95,2503770572
34,22,13,Improv_Metronome,506,1,38,127,2503771156
34,22,13,Improv_Metronome,507,1,48,89,2503893544
34,22,13,Improv_Metronome,508,1,38,21,2503903696
34,22,13,Improv_Metronome,509,1,38,51,2503919684
34,22,13,Improv_Metronome,510,5,42,127,2503938492
34,22,13,Improv_Metronome,511,1,48,88,2504305972
34,22,13,Improv_Metronome,512,1,38,22,2504316048
34,22,13,Improv_Metronome,513,5,42,127,2504439004
34,22,13,Improv_Metronome,514,1,38,127,2504442196
34,22,13,Improv_Metronome,515,1,48,89,2504785924
34,22,13,Improv_Metronome,516,1,38,127,2504789196
34,22,13,Improv_Metronome,517,1,48,103,2504913084
34,22,13,Improv_Metronome,518,1,38,118,2504913732
34,22,13,Improv_Metronome,519,5,42,127,2504938976
34,22,13,Improv_Metronome,520,1,48,121,2505305400
34,22,13,Improv_Metronome,521,1,38,26,2505315700
34,22,13,Improv_Metronome,522,5,42,127,2505438584
34,22,13,Improv_Metronome,523,1,38,127,2505442820
34,22,13,Improv_Metronome,524,1,48,125,2505711948
34,22,13,Improv_Metronome,525,1,38,29,2505721952
34,22,13,Improv_Metronome,526,5,42,127,2505939400
34,22,13,Improv_Metronome,527,5,42,127,2506438896
34,22,13,Improv_Metronome,0,9999,9999,9999,2436936768
34,22,13,Improv_Metronome,1,9999,9999,9999,2437436484
34,22,13,Improv_Metronome,2,9999,9999,9999,2437936200
34,22,13,Improv_Metronome,3,9999,9999,9999,2438436964
34,22,13,Improv_Metronome,4,9999,9999,9999,2438936676
34,22,13,Improv_Metronome,5,9999,9999,9999,2439436372
34,22,13,Improv_Metronome,6,9999,9999,9999,2439936100
34,22,13,Improv_Metronome,7,9999,9999,9999,2440436796
34,22,13,Improv_Metronome,8,9999,9999,9999,2440936564
34,22,13,Improv_Metronome,9,9999,9999,9999,2441436208
34,22,13,Improv_Metronome,10,9999,9999,9999,2441937008
34,22,13,Improv_Metronome,11,9999,9999,9999,2442436696
34,22,13,Improv_Metronome,12,9999,9999,9999,2442936400
34,22,13,Improv_Metronome,13,9999,9999,9999,2443436100
34,22,13,Improv_Metronome,14,9999,9999,9999,2443936864
34,22,13,Improv_Metronome,15,9999,9999,9999,2444436580
34,22,13,Improv_Metronome,16,9999,9999,9999,2444936276
34,22,13,Improv_Metronome,17,9999,9999,9999,2445437024
34,22,13,Improv_Metronome,18,9999,9999,9999,2445936744
34,22,13,Improv_Metronome,19,9999,9999,9999,2446436432
34,22,13,Improv_Metronome,20,9999,9999,9999,2446936136
34,22,13,Improv_Metronome,21,9999,9999,9999,2447436884
34,22,13,Improv_Metronome,22,9999,9999,9999,2447936584
34,22,13,Improv_Metronome,23,9999,9999,9999,2448436280
34,22,13,Improv_Metronome,24,9999,9999,9999,2448937020
34,22,13,Improv_Metronome,25,9999,9999,9999,2449436724
34,22,13,Improv_Metronome,26,9999,9999,9999,2449936440
34,22,13,Improv_Metronome,27,9999,9999,9999,2450436208
34,22,13,Improv_Metronome,28,9999,9999,9999,2450936948
34,22,13,Improv_Metronome,29,9999,9999,9999,2451436596
34,22,13,Improv_Metronome,30,9999,9999,9999,2451936312
34,22,13,Improv_Metronome,31,9999,9999,9999,2452437112
34,22,13,Improv_Metronome,32,9999,9999,9999,2452936816
34,22,13,Improv_Metronome,33,9999,9999,9999,2453436496
34,22,13,Improv_Metronome,34,9999,9999,9999,2453936240
34,22,13,Improv_Metronome,35,9999,9999,9999,2454436924
34,22,13,Improv_Metronome,36,9999,9999,9999,2454936684
34,22,13,Improv_Metronome,37,9999,9999,9999,2455436364
34,22,13,Improv_Metronome,38,9999,9999,9999,2455936096
34,22,13,Improv_Metronome,39,9999,9999,9999,2456436792
34,22,13,Improv_Metronome,40,9999,9999,9999,2456936516
34,22,13,Improv_Metronome,41,9999,9999,9999,2457436240
34,22,13,Improv_Metronome,42,9999,9999,9999,2457936988
34,22,13,Improv_Metronome,43,9999,9999,9999,2458436688
34,22,13,Improv_Metronome,44,9999,9999,9999,2458936396
34,22,13,Improv_Metronome,45,9999,9999,9999,2459436092
34,22,13,Improv_Metronome,46,9999,9999,9999,2459936844
34,22,13,Improv_Metronome,47,9999,9999,9999,2460436552
34,22,13,Improv_Metronome,48,9999,9999,9999,2460936300
34,22,13,Improv_Metronome,49,9999,9999,9999,2461437000
34,22,13,Improv_Metronome,50,9999,9999,9999,2461936724
34,22,13,Improv_Metronome,51,9999,9999,9999,2462436472
34,22,13,Improv_Metronome,52,9999,9999,9999,2462936120
34,22,13,Improv_Metronome,53,9999,9999,9999,2463436920
34,22,13,Improv_Metronome,54,9999,9999,9999,2463936616
34,22,13,Improv_Metronome,55,9999,9999,9999,2464436280
34,22,13,Improv_Metronome,56,9999,9999,9999,2464937064
34,22,13,Improv_Metronome,57,9999,9999,9999,2465436728
34,22,13,Improv_Metronome,58,9999,9999,9999,2465936496
34,22,13,Improv_Metronome,59,9999,9999,9999,2466436200
34,22,13,Improv_Metronome,60,9999,9999,9999,2466936944
34,22,13,Improv_Metronome,61,9999,9999,9999,2467436592
34,22,13,Improv_Metronome,62,9999,9999,9999,2467936348
34,22,13,Improv_Metronome,63,9999,9999,9999,2468437108
34,22,13,Improv_Metronome,64,9999,9999,9999,2468936764
34,22,13,Improv_Metronome,65,9999,9999,9999,2469436492
34,22,13,Improv_Metronome,66,9999,9999,9999,2469936184
34,22,13,Improv_Metronome,67,9999,9999,9999,2470436980
34,22,13,Improv_Metronome,68,9999,9999,9999,2470936676
34,22,13,Improv_Metronome,69,9999,9999,9999,2471436380
34,22,13,Improv_Metronome,70,9999,9999,9999,2471936076
34,22,13,Improv_Metronome,71,9999,9999,9999,2472436856
34,22,13,Improv_Metronome,72,9999,9999,9999,2472936508
34,22,13,Improv_Metronome,73,9999,9999,9999,2473436276
34,22,13,Improv_Metronome,74,9999,9999,9999,2473936964
34,22,13,Improv_Metronome,75,9999,9999,9999,2474436704
34,22,13,Improv_Metronome,76,9999,9999,9999,2474936440
34,22,13,Improv_Metronome,77,9999,9999,9999,2475436100
34,22,13,Improv_Metronome,78,9999,9999,9999,2475936872
34,22,13,Improv_Metronome,79,9999,9999,9999,2476436576
34,22,13,Improv_Metronome,80,9999,9999,9999,2476936288
34,22,13,Improv_Metronome,81,9999,9999,9999,2477437020
34,22,13,Improv_Metronome,82,9999,9999,9999,2477936752
34,22,13,Improv_Metronome,83,9999,9999,9999,2478436440
34,22,13,Improv_Metronome,84,9999,9999,9999,2478936136
34,22,13,Improv_Metronome,85,9999,9999,9999,2479436848
34,22,13,Improv_Metronome,86,9999,9999,9999,2479936628
34,22,13,Improv_Metronome,87,9999,9999,9999,2480436284
34,22,13,Improv_Metronome,88,9999,9999,9999,2480937060
34,22,13,Improv_Metronome,89,9999,9999,9999,2481436740
34,22,13,Improv_Metronome,90,9999,9999,9999,2481936460
34,22,13,Improv_Metronome,91,9999,9999,9999,2482436184
34,22,13,Improv_Metronome,92,9999,9999,9999,2482936952
34,22,13,Improv_Metronome,93,9999,9999,9999,2483436612
34,22,13,Improv_Metronome,94,9999,9999,9999,2483936336
34,22,13,Improv_Metronome,95,9999,9999,9999,2484437096
34,22,13,Improv_Metronome,96,9999,9999,9999,2484936816
34,22,13,Improv_Metronome,97,9999,9999,9999,2485436468
34,22,13,Improv_Metronome,98,9999,9999,9999,2485936216
34,22,13,Improv_Metronome,99,9999,9999,9999,2486436960
34,22,13,Improv_Metronome,100,9999,9999,9999,2486936688
34,22,13,Improv_Metronome,101,9999,9999,9999,2487436340
34,22,13,Improv_Metronome,102,9999,9999,9999,2487936096
34,22,13,Improv_Metronome,103,9999,9999,9999,2488436812
34,22,13,Improv_Metronome,104,9999,9999,9999,2488936544
34,22,13,Improv_Metronome,105,9999,9999,9999,2489436236
34,22,13,Improv_Metronome,106,9999,9999,9999,2489936960
34,22,13,Improv_Metronome,107,9999,9999,9999,2490436680
34,22,13,Improv_Metronome,108,9999,9999,9999,2490936412
34,22,13,Improv_Metronome,109,9999,9999,9999,2491436132
34,22,13,Improv_Metronome,110,9999,9999,9999,2491936840
34,22,13,Improv_Metronome,111,9999,9999,9999,2492436572
34,22,13,Improv_Metronome,112,9999,9999,9999,2492936252
34,22,13,Improv_Metronome,113,9999,9999,9999,2493437044
34,22,13,Improv_Metronome,114,9999,9999,9999,2493936732
34,22,13,Improv_Metronome,115,9999,9999,9999,2494436452
34,22,13,Improv_Metronome,116,9999,9999,9999,2494936168
34,22,13,Improv_Metronome,117,9999,9999,9999,2495436888
34,22,13,Improv_Metronome,118,9999,9999,9999,2495936620
34,22,13,Improv_Metronome,119,9999,9999,9999,2496436272
34,22,13,Improv_Metronome,120,9999,9999,9999,2496937036
34,22,13,Improv_Metronome,121,9999,9999,9999,2497436756
34,22,13,Improv_Metronome,122,9999,9999,9999,2497936504
34,22,13,Improv_Metronome,123,9999,9999,9999,2498436212
34,22,13,Improv_Metronome,124,9999,9999,9999,2498936928
34,22,13,Improv_Metronome,125,9999,9999,9999,2499436592
34,22,13,Improv_Metronome,126,9999,9999,9999,2499936356
34,22,13,Improv_Metronome,127,9999,9999,9999,2500437076
34,22,13,Improv_Metronome,128,9999,9999,9999,2500936756
34,22,13,Improv_Metronome,129,9999,9999,9999,2501436524
34,22,13,Improv_Metronome,130,9999,9999,9999,2501936224
34,22,13,Improv_Metronome,131,9999,9999,9999,2502436920
34,22,13,Improv_Metronome,132,9999,9999,9999,2502936652
34,22,13,Improv_Metronome,133,9999,9999,9999,2503436396
34,22,13,Improv_Metronome,134,9999,9999,9999,2503936056
34,22,13,Improv_Metronome,135,9999,9999,9999,2504436792
34,22,13,Improv_Metronome,136,9999,9999,9999,2504936540
34,22,13,Improv_Metronome,137,9999,9999,9999,2505436220
34,22,13,Improv_Metronome,138,9999,9999,9999,2505936964
34,22,13,Improv_Metronome,139,9999,9999,9999,2506436684
34,23,14,Improv_Melody,0,2,48,80,2549269768
34,23,14,Improv_Melody,1,2,72,80,2549272436
34,23,14,Improv_Melody,2,5,42,127,2549273852
34,23,14,Improv_Melody,3,5,42,110,2549766468
34,23,14,Improv_Melody,4,5,42,110,2550267388
34,23,14,Improv_Melody,5,5,42,110,2550767032
34,23,14,Improv_Melody,6,5,42,127,2551266532
34,23,14,Improv_Melody,7,5,42,110,2551767524
34,23,14,Improv_Melody,8,5,42,110,2552267244
34,23,14,Improv_Melody,9,5,42,110,2552766744
34,23,14,Improv_Melody,10,2,43,80,2553269276
34,23,14,Improv_Melody,11,2,67,80,2553271120
34,23,14,Improv_Melody,12,5,42,127,2553273660
34,23,14,Improv_Melody,13,5,42,110,2553767172
34,23,14,Improv_Melody,14,5,42,110,2554267268
34,23,14,Improv_Melody,15,5,42,110,2554766912
34,23,14,Improv_Melody,16,5,42,127,2555266412
34,23,14,Improv_Melody,17,5,42,110,2555767180
34,23,14,Improv_Melody,18,5,42,110,2556267052
34,23,14,Improv_Melody,19,5,42,110,2556766552
34,23,14,Improv_Melody,20,2,45,80,2557269744
34,23,14,Improv_Melody,21,2,69,80,2557272044
34,23,14,Improv_Melody,22,5,42,127,2557274588
34,23,14,Improv_Melody,23,5,42,110,2557767128
34,23,14,Improv_Melody,24,5,42,110,2558266676
34,23,14,Improv_Melody,25,5,42,110,2558766396
34,23,14,Improv_Melody,26,5,42,127,2559267092
34,23,14,Improv_Melody,27,5,42,110,2559766960
34,23,14,Improv_Melody,28,5,42,110,2560266536
34,23,14,Improv_Melody,29,5,42,110,2560767452
34,23,14,Improv_Melody,30,2,41,80,2561269528
34,23,14,Improv_Melody,31,2,65,80,2561271680
34,23,14,Improv_Melody,32,5,42,127,2561274144
34,23,14,Improv_Melody,33,5,42,110,2561766984
34,23,14,Improv_Melody,34,5,42,110,2562266484
34,23,14,Improv_Melody,35,5,42,110,2562767176
34,23,14,Improv_Melody,36,5,42,127,2563266900
34,23,14,Improv_Melody,37,5,42,110,2563766916
34,23,14,Improv_Melody,38,5,42,110,2564267612
34,23,14,Improv_Melody,39,1,48,89,2564387564
34,23,14,Improv_Melody,40,1,48,65,2564436784
34,23,14,Improv_Melody,41,1,48,37,2564489796
34,23,14,Improv_Melody,42,1,48,70,2564572572
34,23,14,Improv_Melody,43,1,48,78,2564719032
34,23,14,Improv_Melody,44,5,42,110,2564766944
34,23,14,Improv_Melody,45,1,48,122,2564895856
34,23,14,Improv_Melody,46,1,48,127,2565044412
34,23,14,Improv_Melody,47,1,48,127,2565221152
34,23,14,Improv_Melody,48,1,38,30,2565231232
34,23,14,Improv_Melody,49,2,48,80,2565269384
34,23,14,Improv_Melody,50,2,72,80,2565271612
34,23,14,Improv_Melody,51,5,42,127,2565274072
34,23,14,Improv_Melody,52,5,42,110,2565766496
34,23,14,Improv_Melody,53,5,42,110,2566267188
34,23,14,Improv_Melody,54,1,38,107,2566563988
34,23,14,Improv_Melody,55,1,38,116,2566716632
34,23,14,Improv_Melody,56,5,42,110,2566766956
34,23,14,Improv_Melody,57,1,38,127,2567015724
34,23,14,Improv_Melody,58,1,48,25,2567025648
34,23,14,Improv_Melody,59,5,42,127,2567266744
34,23,14,Improv_Melody,60,5,42,110,2567767364
34,23,14,Improv_Melody,61,5,42,110,2568267088
34,23,14,Improv_Melody,62,1,38,115,2568569272
34,23,14,Improv_Melody,63,1,38,127,2568727520
34,23,14,Improv_Melody,64,5,42,110,2568766832
34,23,14,Improv_Melody,65,1,38,99,2568890832
34,23,14,Improv_Melody,66,1,38,112,2569040652
34,23,14,Improv_Melody,67,1,48,127,2569243784
34,23,14,Improv_Melody,68,1,38,31,2569253780
34,23,14,Improv_Melody,69,2,43,80,2569269196
34,23,14,Improv_Melody,70,2,67,80,2569271352
34,23,14,Improv_Melody,71,5,42,127,2569273884
34,23,14,Improv_Melody,72,1,38,127,2569666332
34,23,14,Improv_Melody,73,1,48,115,2569675216
34,23,14,Improv_Melody,74,5,42,110,2569767540
34,23,14,Improv_Melody,75,5,42,110,2570267100
34,23,14,Improv_Melody,76,1,48,80,2570596984
34,23,14,Improv_Melody,77,1,48,106,2570764528
34,23,14,Improv_Melody,78,5,42,110,2570766644
34,23,14,Improv_Melody,79,1,38,102,2571216264
34,23,14,Improv_Melody,80,1,48,121,2571223500
34,23,14,Improv_Melody,81,5,42,127,2571266476
34,23,14,Improv_Melody,82,1,48,105,2571567420
34,23,14,Improv_Melody,83,5,42,110,2571767324
34,23,14,Improv_Melody,84,1,48,101,2571919620
34,23,14,Improv_Melody,85,1,48,114,2572237804
34,23,14,Improv_Melody,86,1,38,23,2572247884
34,23,14,Improv_Melody,87,5,42,110,2572266852
34,23,14,Improv_Melody,88,1,48,63,2572756536
34,23,14,Improv_Melody,89,5,42,110,2572766448
34,23,14,Improv_Melody,90,1,48,59,2572932260
34,23,14,Improv_Melody,91,1,48,71,2573084524
34,23,14,Improv_Melody,92,1,48,103,2573230536
34,23,14,Improv_Melody,93,1,38,21,2573240688
34,23,14,Improv_Melody,94,2,45,80,2573270012
34,23,14,Improv_Melody,95,2,69,80,2573272092
34,23,14,Improv_Melody,96,5,42,127,2573274700
34,23,14,Improv_Melody,97,5,42,110,2573767124
34,23,14,Improv_Melody,98,5,42,110,2574266696
34,23,14,Improv_Melody,99,1,48,21,2574494832
34,23,14,Improv_Melody,100,1,48,24,2574602140
34,23,14,Improv_Melody,101,1,48,32,2574761092
34,23,14,Improv_Melody,102,5,42,110,2574766440
34,23,14,Improv_Melody,103,1,48,34,2574902312
34,23,14,Improv_Melody,104,1,48,42,2575052280
34,23,14,Improv_Melody,105,1,48,47,2575215344
34,23,14,Improv_Melody,106,5,42,127,2575267068
34,23,14,Improv_Melody,107,1,48,54,2575373988
34,23,14,Improv_Melody,108,1,48,60,2575518500
34,23,14,Improv_Melody,109,1,48,67,2575712532
34,23,14,Improv_Melody,110,5,42,110,2575766872
34,23,14,Improv_Melody,111,1,48,59,2575885988
34,23,14,Improv_Melody,112,1,48,64,2576059296
34,23,14,Improv_Melody,113,1,48,81,2576223704
34,23,14,Improv_Melody,114,5,42,110,2576266604
34,23,14,Improv_Melody,115,1,48,69,2576391476
34,23,14,Improv_Melody,116,1,38,17,2576401252
34,23,14,Improv_Melody,117,1,48,97,2576556140
34,23,14,Improv_Melody,118,1,48,82,2576693592
34,23,14,Improv_Melody,119,1,38,21,2576703368
34,23,14,Improv_Melody,120,5,42,110,2576767312
34,23,14,Improv_Melody,121,1,48,95,2577028392
34,23,14,Improv_Melody,122,1,38,127,2577208412
34,23,14,Improv_Melody,123,2,41,80,2577269620
34,23,14,Improv_Melody,124,2,65,80,2577271848
34,23,14,Improv_Melody,125,5,42,127,2577274456
34,23,14,Improv_Melody,126,1,38,72,2577598620
34,23,14,Improv_Melody,127,5,42,110,2577767036
34,23,14,Improv_Melody,128,1,38,74,2578211188
34,23,14,Improv_Melody,129,1,38,84,2578220812
34,23,14,Improv_Melody,130,5,42,110,2578266432
34,23,14,Improv_Melody,131,1,38,95,2578546912
34,23,14,Improv_Melody,132,5,42,110,2578767312
34,23,14,Improv_Melody,133,5,42,127,2579267112
34,23,14,Improv_Melody,134,1,38,93,2579273520
34,23,14,Improv_Melody,135,1,38,110,2579591936
34,23,14,Improv_Melody,136,5,42,110,2579766692
34,23,14,Improv_Melody,137,1,38,127,2580266408
34,23,14,Improv_Melody,138,5,42,110,2580268724
34,23,14,Improv_Melody,139,1,38,89,2580637192
34,23,14,Improv_Melody,140,5,42,110,2580767212
34,23,14,Improv_Melody,141,1,38,106,2580784324
34,23,14,Improv_Melody,142,1,38,97,2580961296
34,23,14,Improv_Melody,143,1,38,127,2581098776
34,23,14,Improv_Melody,144,2,48,80,2581269296
34,23,14,Improv_Melody,145,2,72,80,2581271448
34,23,14,Improv_Melody,146,1,48,127,2581272488
34,23,14,Improv_Melody,147,5,42,127,2581275704
34,23,14,Improv_Melody,148,1,38,27,2581282484
34,23,14,Improv_Melody,149,5,42,110,2581766548
34,23,14,Improv_Melody,150,1,48,113,2581819856
34,23,14,Improv_Melody,151,1,38,127,2581824700
34,23,14,Improv_Melody,152,5,42,110,2582267248
34,23,14,Improv_Melody,153,1,48,102,2582607228
34,23,14,Improv_Melody,154,1,38,23,2582617384
34,23,14,Improv_Melody,155,1,38,53,2582754664
34,23,14,Improv_Melody,156,1,48,15,2582766052
34,23,14,Improv_Melody,157,5,42,110,2582767992
34,23,14,Improv_Melody,158,1,38,127,2583240336
34,23,14,Improv_Melody,159,1,48,106,2583260060
34,23,14,Improv_Melody,160,5,42,127,2583266760
34,23,14,Improv_Melody,161,5,42,110,2583767340
34,23,14,Improv_Melody,162,1,48,88,2583775168
34,23,14,Improv_Melody,163,1,38,22,2583785096
34,23,14,Improv_Melody,164,1,48,120,2584039320
34,23,14,Improv_Melody,165,1,38,127,2584041844
34,23,14,Improv_Melody,166,5,42,110,2584267232
34,23,14,Improv_Melody,167,1,48,79,2584629776
34,23,14,Improv_Melody,168,1,38,18,2584639708
34,23,14,Improv_Melody,169,5,42,110,2584766736
34,23,14,Improv_Melody,170,1,38,127,2584776288
34,23,14,Improv_Melody,171,1,48,27,2584786368
34,23,14,Improv_Melody,172,2,43,80,2585269120
34,23,14,Improv_Melody,173,2,67,80,2585271496
34,23,14,Improv_Melody,174,5,42,127,2585273880
34,23,14,Improv_Melody,175,1,48,111,2585283736
34,23,14,Improv_Melody,176,1,38,102,2585286932
34,23,14,Improv_Melody,177,1,48,74,2585747232
34,23,14,Improv_Melody,178,5,42,110,2585767244
34,23,14,Improv_Melody,179,1,38,118,2586032760
34,23,14,Improv_Melody,180,1,48,87,2586038804
34,23,14,Improv_Melody,181,5,42,110,2586267108
34,23,14,Improv_Melody,182,1,48,71,2586573252
34,23,14,Improv_Melody,183,1,38,121,2586727792
34,23,14,Improv_Melody,184,1,48,26,2586737568
34,23,14,Improv_Melody,185,5,42,110,2586766632
34,23,14,Improv_Melody,186,1,48,95,2587212932
34,23,14,Improv_Melody,187,1,38,118,2587217848
34,23,14,Improv_Melody,188,5,42,127,2587266508
34,23,14,Improv_Melody,189,1,38,82,2587523248
34,23,14,Improv_Melody,190,1,38,93,2587674168
34,23,14,Improv_Melody,191,1,48,22,2587683420
34,23,14,Improv_Melody,192,5,42,110,2587767036
34,23,14,Improv_Melody,193,1,38,106,2587852176
34,23,14,Improv_Melody,194,1,48,21,2587862032
34,23,14,Improv_Melody,195,1,38,86,2588013772
34,23,14,Improv_Melody,196,1,48,127,2588207328
34,23,14,Improv_Melody,197,1,38,27,2588217324
34,23,14,Improv_Melody,198,5,42,110,2588266984
34,23,14,Improv_Melody,199,1,38,127,2588639132
34,23,14,Improv_Melody,200,1,48,27,2588648544
34,23,14,Improv_Melody,201,1,38,127,2588653828
34,23,14,Improv_Melody,202,5,42,110,2588766720
34,23,14,Improv_Melody,203,1,38,96,2589219172
34,23,14,Improv_Melody,204,1,48,20,2589228576
34,23,14,Improv_Melody,205,1,38,98,2589233416
34,23,14,Improv_Melody,206,2,45,80,2589269868
34,23,14,Improv_Melody,207,2,69,80,2589272248
34,23,14,Improv_Melody,208,5,42,127,2589274784
34,23,14,Improv_Melody,209,5,42,110,2589766980
34,23,14,Improv_Melody,210,5,42,110,2590266680
34,23,14,Improv_Melody,211,1,38,90,2590568516
34,23,14,Improv_Melody,212,1,48,21,2590578292
34,23,14,Improv_Melody,213,1,38,52,2590644088
34,23,14,Improv_Melody,214,1,38,90,2590726396
34,23,14,Improv_Melody,215,5,42,110,2590766528
34,23,14,Improv_Melody,216,1,38,87,2591218916
34,23,14,Improv_Melody,217,5,42,127,2591267348
34,23,14,Improv_Melody,218,1,38,73,2591633420
34,23,14,Improv_Melody,219,1,48,19,2591642752
34,23,14,Improv_Melody,220,5,42,110,2591766764
34,23,14,Improv_Melody,221,1,38,113,2592083628
34,23,14,Improv_Melody,222,1,48,22,2592093636
34,23,14,Improv_Melody,223,1,38,98,2592111412
34,23,14,Improv_Melody,224,5,42,110,2592266544
34,23,14,Improv_Melody,225,5,42,110,2592767312
34,23,14,Improv_Melody,226,1,48,86,2593107292
34,23,14,Improv_Melody,227,1,38,127,2593260828
34,23,14,Improv_Melody,228,2,41,80,2593269504
34,23,14,Improv_Melody,229,1,48,25,2593271000
34,23,14,Improv_Melody,230,2,65,80,2593273608
34,23,14,Improv_Melody,231,5,42,127,2593275928
34,23,14,Improv_Melody,232,1,48,116,2593763364
34,23,14,Improv_Melody,233,5,42,110,2593766620
34,23,14,Improv_Melody,234,1,48,87,2593782960
34,23,14,Improv_Melody,235,1,48,87,2594051336
34,23,14,Improv_Melody,236,1,38,21,2594060964
34,23,14,Improv_Melody,237,1,48,127,2594208820
34,23,14,Improv_Melody,238,5,42,110,2594266452
34,23,14,Improv_Melody,239,1,48,103,2594529428
34,23,14,Improv_Melody,240,5,42,110,2594767332
34,23,14,Improv_Melody,241,1,48,111,2595131748
34,23,14,Improv_Melody,242,1,38,23,2595142160
34,23,14,Improv_Melody,243,1,38,127,2595205644
34,23,14,Improv_Melody,244,5,42,127,2595267004
34,23,14,Improv_Melody,245,1,48,103,2595387164
34,23,14,Improv_Melody,246,1,38,22,2595397356
34,23,14,Improv_Melody,247,5,42,110,2595766580
34,23,14,Improv_Melody,248,1,38,127,2595855192
34,23,14,Improv_Melody,249,1,48,82,2595858384
34,23,14,Improv_Melody,250,1,48,80,2596131148
34,23,14,Improv_Melody,251,5,42,110,2596267404
34,23,14,Improv_Melody,252,5,42,110,2596767276
34,23,14,Improv_Melody,253,1,48,59,2597208980
34,23,14,Improv_Melody,254,1,38,97,2597248012
34,23,14,Improv_Melody,255,2,48,80,2597269560
34,23,14,Improv_Melody,256,2,72,80,2597271780
34,23,14,Improv_Melody,257,5,42,127,2597274316
34,23,14,Improv_Melody,258,1,48,60,2597758464
34,23,14,Improv_Melody,259,5,42,110,2597766656
34,23,14,Improv_Melody,260,1,38,114,2598036288
34,23,14,Improv_Melody,261,1,48,85,2598046144
34,23,14,Improv_Melody,262,5,42,110,2598267268
34,23,14,Improv_Melody,263,1,48,67,2598617100
34,23,14,Improv_Melody,264,1,38,101,2598761908
34,23,14,Improv_Melody,265,5,42,110,2598767184
34,23,14,Improv_Melody,266,1,48,24,2598771948
34,23,14,Improv_Melody,267,1,48,53,2599132300
34,23,14,Improv_Melody,268,1,48,94,2599256912
34,23,14,Improv_Melody,269,5,42,127,2599266604
34,23,14,Improv_Melody,270,1,48,80,2599590464
34,23,14,Improv_Melody,271,1,38,19,2599599940
34,23,14,Improv_Melody,272,1,38,127,2599714480
34,23,14,Improv_Melody,273,5,42,110,2599767428
34,23,14,Improv_Melody,274,1,38,127,2600032352
34,23,14,Improv_Melody,275,1,48,120,2600044148
34,23,14,Improv_Melody,276,5,42,110,2600267068
34,23,14,Improv_Melody,277,1,48,84,2600635676
34,23,14,Improv_Melody,278,1,38,19,2600645600
34,23,14,Improv_Melody,279,5,42,110,2600767068
34,23,14,Improv_Melody,280,1,48,109,2600772732
34,23,14,Improv_Melody,281,1,38,23,2600782884
34,23,14,Improv_Melody,282,1,48,68,2601125060
34,23,14,Improv_Melody,283,1,38,17,2601135060
34,23,14,Improv_Melody,284,1,38,115,2601261420
34,23,14,Improv_Melody,285,2,43,80,2601269280
34,23,14,Improv_Melody,286,1,48,22,2601271440
34,23,14,Improv_Melody,287,2,67,80,2601273224
34,23,14,Improv_Melody,288,5,42,127,2601275312
34,23,14,Improv_Melody,289,1,48,66,2601644800
34,23,14,Improv_Melody,290,5,42,110,2601767196
34,23,14,Improv_Melody,291,1,38,108,2601773680
34,23,14,Improv_Melody,292,1,48,21,2601783908
34,23,14,Improv_Melody,293,1,38,108,2602077112
34,23,14,Improv_Melody,294,5,42,110,2602267052
34,23,14,Improv_Melody,295,1,38,86,2602756108
34,23,14,Improv_Melody,296,5,42,110,2602766988
34,23,14,Improv_Melody,297,1,38,108,2602802776
34,23,14,Improv_Melody,298,1,48,24,2602811960
34,23,14,Improv_Melody,299,1,38,73,2602959288
34,23,14,Improv_Melody,300,1,38,121,2603093476
34,23,14,Improv_Melody,301,1,48,26,2603103260
34,23,14,Improv_Melody,302,1,38,127,2603230064
34,23,14,Improv_Melody,303,5,42,127,2603266608
34,23,14,Improv_Melody,304,1,38,127,2603715932
34,23,14,Improv_Melody,305,1,48,108,2603720848
34,23,14,Improv_Melody,306,5,42,110,2603767036
34,23,14,Improv_Melody,307,1,48,94,2604023924
34,23,14,Improv_Melody,308,1,38,21,2604033328
34,23,14,Improv_Melody,309,1,48,103,2604174968
34,23,14,Improv_Melody,310,5,42,110,2604266860
34,23,14,Improv_Melody,311,1,48,78,2604469548
34,23,14,Improv_Melody,312,1,38,21,2604478952
34,23,14,Improv_Melody,313,5,42,110,2604766796
34,23,14,Improv_Melody,314,1,38,89,2605240816
34,23,14,Improv_Melody,315,2,45,80,2605269992
34,23,14,Improv_Melody,316,2,69,80,2605271916
34,23,14,Improv_Melody,317,5,42,127,2605274308
34,23,14,Improv_Melody,318,1,38,58,2605530700
34,23,14,Improv_Melody,319,5,42,110,2605766964
34,23,14,Improv_Melody,320,1,48,73,2605966896
34,23,14,Improv_Melody,321,1,38,92,2606133380
34,23,14,Improv_Melody,322,1,48,21,2606143152
34,23,14,Improv_Melody,323,5,42,110,2606266668
34,23,14,Improv_Melody,324,1,38,87,2606470044
34,23,14,Improv_Melody,325,5,42,110,2606766664
34,23,14,Improv_Melody,326,1,48,71,2607122704
34,23,14,Improv_Melody,327,1,38,19,2607132628
34,23,14,Improv_Melody,328,5,42,127,2607267140
34,23,14,Improv_Melody,329,1,38,105,2607275720
34,23,14,Improv_Melody,330,1,48,24,2607285352
34,23,14,Improv_Melody,331,1,38,127,2607583544
34,23,14,Improv_Melody,332,5,42,110,2607766848
34,23,14,Improv_Melody,333,1,48,65,2608108000
34,23,14,Improv_Melody,334,1,38,126,2608249072
34,23,14,Improv_Melody,335,1,48,24,2608259448
34,23,14,Improv_Melody,336,5,42,110,2608266668
34,23,14,Improv_Melody,337,1,38,94,2608562600
34,23,14,Improv_Melody,338,1,48,20,2608572376
34,23,14,Improv_Melody,339,1,38,127,2608729132
34,23,14,Improv_Melody,340,1,48,27,2608738612
34,23,14,Improv_Melody,341,5,42,110,2608767596
34,23,14,Improv_Melody,342,1,48,126,2608868060
34,23,14,Improv_Melody,343,1,38,25,2608878288
34,23,14,Improv_Melody,344,1,48,127,2609003848
34,23,14,Improv_Melody,345,1,38,27,2609013780
34,23,14,Improv_Melody,346,1,48,127,2609172220
34,23,14,Improv_Melody,347,1,38,29,2609181552
34,23,14,Improv_Melody,348,2,41,80,2609269752
34,23,14,Improv_Melody,349,2,65,80,2609271752
34,23,14,Improv_Melody,350,5,42,127,2609274440
34,23,14,Improv_Melody,351,1,38,127,2609505336
34,23,14,Improv_Melody,352,1,48,26,2609515260
34,23,14,Improv_Melody,353,5,42,110,2609766676
34,23,14,Improv_Melody,354,5,42,110,2610266620
34,23,14,Improv_Melody,355,1,38,123,2610285604
34,23,14,Improv_Melody,356,1,48,127,2610300388
34,23,14,Improv_Melody,357,5,42,110,2610767544
34,23,14,Improv_Melody,358,1,48,88,2610797892
34,23,14,Improv_Melody,359,1,38,21,2610807820
34,23,14,Improv_Melody,360,1,38,124,2610947040
34,23,14,Improv_Melody,361,1,48,24,2610956600
34,23,14,Improv_Melody,362,1,48,115,2611098236
34,23,14,Improv_Melody,363,5,42,127,2611266884
34,23,14,Improv_Melody,364,1,38,127,2611269476
34,23,14,Improv_Melody,365,1,48,26,2611278804
34,23,14,Improv_Melody,366,1,48,76,2611549172
34,23,14,Improv_Melody,367,1,38,19,2611558432
34,23,14,Improv_Melody,368,1,38,51,2611565892
34,23,14,Improv_Melody,369,5,42,110,2611766568
34,23,14,Improv_Melody,370,1,38,127,2612008760
34,23,14,Improv_Melody,371,1,48,86,2612015404
34,23,14,Improv_Melody,372,1,48,95,2612147320
34,23,14,Improv_Melody,373,1,38,23,2612157096
34,23,14,Improv_Melody,374,5,42,110,2612267568
34,23,14,Improv_Melody,375,1,38,127,2612289336
34,23,14,Improv_Melody,376,1,48,126,2612611568
34,23,14,Improv_Melody,377,1,38,27,2612621572
34,23,14,Improv_Melody,378,5,42,110,2612767200
34,23,14,Improv_Melody,379,1,38,107,2613258500
34,23,14,Improv_Melody,380,2,48,80,2613269268
34,23,14,Improv_Melody,381,2,72,80,2613271420
34,23,14,Improv_Melody,382,1,48,127,2613272688
34,23,14,Improv_Melody,383,5,42,127,2613275676
34,23,14,Improv_Melody,384,5,42,110,2613766452
34,23,14,Improv_Melody,385,1,48,64,2614018520
34,23,14,Improv_Melody,386,1,38,17,2614028452
34,23,14,Improv_Melody,387,1,38,127,2614191632
34,23,14,Improv_Melody,388,1,48,26,2614201416
34,23,14,Improv_Melody,389,1,48,93,2614206252
34,23,14,Improv_Melody,390,5,42,110,2614267328
34,23,14,Improv_Melody,391,1,48,73,2614726492
34,23,14,Improv_Melody,392,1,38,18,2614736348
34,23,14,Improv_Melody,393,5,42,110,2614766832
34,23,14,Improv_Melody,394,1,48,71,2615142220
34,23,14,Improv_Melody,395,1,38,127,2615255448
34,23,14,Improv_Melody,396,1,48,24,2615265792
34,23,14,Improv_Melody,397,5,42,127,2615267808
34,23,14,Improv_Melody,398,5,42,110,2615767340
34,23,14,Improv_Melody,399,1,38,127,2615783844
34,23,14,Improv_Melody,400,1,48,76,2615792804
34,23,14,Improv_Melody,401,1,48,127,2616067436
34,23,14,Improv_Melody,402,1,38,24,2616077960
34,23,14,Improv_Melody,403,5,42,110,2616267144
34,23,14,Improv_Melody,404,1,38,127,2616702048
34,23,14,Improv_Melody,405,1,48,23,2616711896
34,23,14,Improv_Melody,406,5,42,110,2616766692
34,23,14,Improv_Melody,407,1,38,127,2616808840
34,23,14,Improv_Melody,408,1,38,99,2616952732
34,23,14,Improv_Melody,409,1,48,21,2616962592
34,23,14,Improv_Melody,410,1,38,109,2617075112
34,23,14,Improv_Melody,411,1,48,127,2617258516
34,23,14,Improv_Melody,412,2,43,80,2617269372
34,23,14,Improv_Melody,413,2,67,80,2617271372
34,23,14,Improv_Melody,414,5,42,127,2617274276
34,23,14,Improv_Melody,415,5,42,110,2617767180
34,23,14,Improv_Melody,416,1,38,82,2618083048
34,23,14,Improv_Melody,417,1,38,127,2618087520
34,23,14,Improv_Melody,418,5,42,110,2618267156
34,23,14,Improv_Melody,419,5,42,110,2618766656
34,23,14,Improv_Melody,420,1,48,95,2618776204
34,23,14,Improv_Melody,421,1,48,88,2619097316
34,23,14,Improv_Melody,422,1,38,121,2619240032
34,23,14,Improv_Melody,423,5,42,127,2619266400
34,23,14,Improv_Melody,424,1,38,106,2619522864
34,23,14,Improv_Melody,425,1,38,64,2619659948
34,23,14,Improv_Melody,426,5,42,110,2619767112
34,23,14,Improv_Melody,427,1,38,126,2619960588
34,23,14,Improv_Melody,428,1,48,25,2619970476
34,23,14,Improv_Melody,429,5,42,110,2620266924
34,23,14,Improv_Melody,430,1,38,103,2620653032
34,23,14,Improv_Melody,431,5,42,110,2620766476
34,23,14,Improv_Melody,432,1,38,102,2620775276
34,23,14,Improv_Melody,433,1,48,27,2620784156
34,23,14,Improv_Melody,434,1,38,84,2620965568
34,23,14,Improv_Melody,435,1,38,104,2621088088
34,23,14,Improv_Melody,436,2,45,80,2621269780
34,23,14,Improv_Melody,437,2,69,80,2621272004
34,23,14,Improv_Melody,438,5,42,127,2621274624
34,23,14,Improv_Melody,439,1,38,117,2621287164
34,23,14,Improv_Melody,440,1,48,23,2621297172
34,23,14,Improv_Melody,441,5,42,110,2621767092
34,23,14,Improv_Melody,442,5,42,110,2622266864
34,23,14,Improv_Melody,443,1,38,63,2622518936
34,23,14,Improv_Melody,444,1,38,50,2622621188
34,23,14,Improv_Melody,445,5,42,110,2622766468
34,23,14,Improv_Melody,446,5,42,127,2623267088
34,23,14,Improv_Melody,447,1,38,93,2623286888
34,23,14,Improv_Melody,448,5,42,110,2623767012
34,23,14,Improv_Melody,449,5,42,110,2624266808
34,23,14,Improv_Melody,450,1,38,39,2624602380
34,23,14,Improv_Melody,451,1,38,33,2624706472
34,23,14,Improv_Melody,452,5,42,110,2624767252
34,23,14,Improv_Melody,453,1,38,40,2625101680
34,23,14,Improv_Melody,454,1,38,39,2625227468
34,23,14,Improv_Melody,455,2,41,80,2625269812
34,23,14,Improv_Melody,456,2,65,80,2625271808
34,23,14,Improv_Melody,457,5,42,127,2625274348
34,23,14,Improv_Melody,458,1,38,43,2625622988
34,23,14,Improv_Melody,459,1,38,44,2625746988
34,23,14,Improv_Melody,460,5,42,110,2625766920
34,23,14,Improv_Melody,461,1,38,53,2626127308
34,23,14,Improv_Melody,462,5,42,110,2626266604
34,23,14,Improv_Melody,463,1,38,56,2626270324
34,23,14,Improv_Melody,464,1,38,66,2626637680
34,23,14,Improv_Melody,465,1,48,17,2626647240
34,23,14,Improv_Melody,466,1,38,85,2626752124
34,23,14,Improv_Melody,467,5,42,110,2626767200
34,23,14,Improv_Melody,468,1,38,97,2627130632
34,23,14,Improv_Melody,469,1,48,21,2627140748
34,23,14,Improv_Melody,470,1,38,88,2627257384
34,23,14,Improv_Melody,471,5,42,127,2627266920
34,23,14,Improv_Melody,472,1,38,127,2627615916
34,23,14,Improv_Melody,473,1,48,24,2627625840
34,23,14,Improv_Melody,474,1,38,89,2627727620
34,23,14,Improv_Melody,475,5,42,110,2627766776
34,23,14,Improv_Melody,476,1,38,127,2628105672
34,23,14,Improv_Melody,477,1,38,82,2628232900
34,23,14,Improv_Melody,478,5,42,110,2628267348
34,23,14,Improv_Melody,479,1,38,127,2628596444
34,23,14,Improv_Melody,480,1,38,127,2628727872
34,23,14,Improv_Melody,481,5,42,110,2628767028
34,23,14,Improv_Melody,482,1,38,127,2628885464
34,23,14,Improv_Melody,483,1,38,127,2628996100
34,23,14,Improv_Melody,484,1,38,60,2629066912
34,23,14,Improv_Melody,485,1,48,127,2629182692
34,23,14,Improv_Melody,486,1,38,37,2629192408
34,23,14,Improv_Melody,487,2,48,80,2629269608
34,23,14,Improv_Melody,488,2,72,80,2629271680
34,23,14,Improv_Melody,489,5,42,127,2629274364
34,23,14,Improv_Melody,490,1,48,127,2629580696
34,23,14,Improv_Melody,491,1,38,127,2629586884
34,23,14,Improv_Melody,492,5,42,110,2629766572
34,23,14,Improv_Melody,0,9999,9999,9999,2549264488
34,23,14,Improv_Melody,1,9999,9999,9999,2549764176
34,23,14,Improv_Melody,2,9999,9999,9999,2550264948
34,23,14,Improv_Melody,3,9999,9999,9999,2550764668
34,23,14,Improv_Melody,4,9999,9999,9999,2551264316
34,23,14,Improv_Melody,5,9999,9999,9999,2551765084
34,23,14,Improv_Melody,6,9999,9999,9999,2552264804
34,23,14,Improv_Melody,7,9999,9999,9999,2552764528
34,23,14,Improv_Melody,8,9999,9999,9999,2553264248
34,23,14,Improv_Melody,9,9999,9999,9999,2553764956
34,23,14,Improv_Melody,10,9999,9999,9999,2554264680
34,23,14,Improv_Melody,11,9999,9999,9999,2554764400
34,23,14,Improv_Melody,12,9999,9999,9999,2555264120
34,23,14,Improv_Melody,13,9999,9999,9999,2555764816
34,23,14,Improv_Melody,14,9999,9999,9999,2556264536
34,23,14,Improv_Melody,15,9999,9999,9999,2556764260
34,23,14,Improv_Melody,16,9999,9999,9999,2557264952
34,23,14,Improv_Melody,17,9999,9999,9999,2557764688
34,23,14,Improv_Melody,18,9999,9999,9999,2558264384
34,23,14,Improv_Melody,19,9999,9999,9999,2558764104
34,23,14,Improv_Melody,20,9999,9999,9999,2559264872
34,23,14,Improv_Melody,21,9999,9999,9999,2559764596
34,23,14,Improv_Melody,22,9999,9999,9999,2560264244
34,23,14,Improv_Melody,23,9999,9999,9999,2560765012
34,23,14,Improv_Melody,24,9999,9999,9999,2561264732
34,23,14,Improv_Melody,25,9999,9999,9999,2561764468
34,23,14,Improv_Melody,26,9999,9999,9999,2562264116
34,23,14,Improv_Melody,27,9999,9999,9999,2562764884
34,23,14,Improv_Melody,28,9999,9999,9999,2563264608
34,23,14,Improv_Melody,29,9999,9999,9999,2563764328
34,23,14,Improv_Melody,30,9999,9999,9999,2564265020
34,23,14,Improv_Melody,31,9999,9999,9999,2564764728
34,23,14,Improv_Melody,32,9999,9999,9999,2565264436
34,23,14,Improv_Melody,33,9999,9999,9999,2565764204
34,23,14,Improv_Melody,34,9999,9999,9999,2566264896
34,23,14,Improv_Melody,35,9999,9999,9999,2566764664
34,23,14,Improv_Melody,36,9999,9999,9999,2567264380
34,23,14,Improv_Melody,37,9999,9999,9999,2567765072
34,23,14,Improv_Melody,38,9999,9999,9999,2568264796
34,23,14,Improv_Melody,39,9999,9999,9999,2568764540
34,23,14,Improv_Melody,40,9999,9999,9999,2569264252
34,23,14,Improv_Melody,41,9999,9999,9999,2569764952
34,23,14,Improv_Melody,42,9999,9999,9999,2570264656
34,23,14,Improv_Melody,43,9999,9999,9999,2570764392
34,23,14,Improv_Melody,44,9999,9999,9999,2571264108
34,23,14,Improv_Melody,45,9999,9999,9999,2571764812
34,23,14,Improv_Melody,46,9999,9999,9999,2572264560
34,23,14,Improv_Melody,47,9999,9999,9999,2572764232
34,23,14,Improv_Melody,48,9999,9999,9999,2573264992
34,23,14,Improv_Melody,49,9999,9999,9999,2573764684
34,23,14,Improv_Melody,50,9999,9999,9999,2574264404
34,23,14,Improv_Melody,51,9999,9999,9999,2574764148
34,23,14,Improv_Melody,52,9999,9999,9999,2575264852
34,23,14,Improv_Melody,53,9999,9999,9999,2575764584
34,23,14,Improv_Melody,54,9999,9999,9999,2576264312
34,23,14,Improv_Melody,55,9999,9999,9999,2576765020
34,23,14,Improv_Melody,56,9999,9999,9999,2577264748
34,23,14,Improv_Melody,57,9999,9999,9999,2577764448
34,23,14,Improv_Melody,58,9999,9999,9999,2578264140
34,23,14,Improv_Melody,59,9999,9999,9999,2578764872
34,23,14,Improv_Melody,60,9999,9999,9999,2579264572
34,23,14,Improv_Melody,61,9999,9999,9999,2579764328
34,23,14,Improv_Melody,62,9999,9999,9999,2580265020
34,23,14,Improv_Melody,63,9999,9999,9999,2580764772
34,23,14,Improv_Melody,64,9999,9999,9999,2581264504
34,23,14,Improv_Melody,65,9999,9999,9999,2581764180
34,23,14,Improv_Melody,66,9999,9999,9999,2582264956
34,23,14,Improv_Melody,67,9999,9999,9999,2582764600
34,23,14,Improv_Melody,68,9999,9999,9999,2583264320
34,23,14,Improv_Melody,69,9999,9999,9999,2583765048
34,23,14,Improv_Melody,70,9999,9999,9999,2584264792
34,23,14,Improv_Melody,71,9999,9999,9999,2584764516
34,23,14,Improv_Melody,72,9999,9999,9999,2585264248
34,23,14,Improv_Melody,73,9999,9999,9999,2585764956
34,23,14,Improv_Melody,74,9999,9999,9999,2586264668
34,23,14,Improv_Melody,75,9999,9999,9999,2586764340
34,23,14,Improv_Melody,76,9999,9999,9999,2587264068
34,23,14,Improv_Melody,77,9999,9999,9999,2587764820
34,23,14,Improv_Melody,78,9999,9999,9999,2588264544
34,23,14,Improv_Melody,79,9999,9999,9999,2588764280
34,23,14,Improv_Melody,80,9999,9999,9999,2589264996
34,23,14,Improv_Melody,81,9999,9999,9999,2589764692
34,23,14,Improv_Melody,82,9999,9999,9999,2590264388
34,23,14,Improv_Melody,83,9999,9999,9999,2590764088
34,23,14,Improv_Melody,84,9999,9999,9999,2591264832
34,23,14,Improv_Melody,85,9999,9999,9999,2591764544
34,23,14,Improv_Melody,86,9999,9999,9999,2592264252
34,23,14,Improv_Melody,87,9999,9999,9999,2592765020
34,23,14,Improv_Melody,88,9999,9999,9999,2593264712
34,23,14,Improv_Melody,89,9999,9999,9999,2593764404
34,23,14,Improv_Melody,90,9999,9999,9999,2594264160
34,23,14,Improv_Melody,91,9999,9999,9999,2594764892
34,23,14,Improv_Melody,92,9999,9999,9999,2595264564
34,23,14,Improv_Melody,93,9999,9999,9999,2595764288
34,23,14,Improv_Melody,94,9999,9999,9999,2596265040
34,23,14,Improv_Melody,95,9999,9999,9999,2596764760
34,23,14,Improv_Melody,96,9999,9999,9999,2597264456
34,23,14,Improv_Melody,97,9999,9999,9999,2597764216
34,23,14,Improv_Melody,98,9999,9999,9999,2598264900
34,23,14,Improv_Melody,99,9999,9999,9999,2598764596
34,23,14,Improv_Melody,100,9999,9999,9999,2599264312
34,23,14,Improv_Melody,101,9999,9999,9999,2599765064
34,23,14,Improv_Melody,102,9999,9999,9999,2600264776
34,23,14,Improv_Melody,103,9999,9999,9999,2600764480
34,23,14,Improv_Melody,104,9999,9999,9999,2601264180
34,23,14,Improv_Melody,105,9999,9999,9999,2601764976
34,23,14,Improv_Melody,106,9999,9999,9999,2602264684
34,23,14,Improv_Melody,107,9999,9999,9999,2602764400
34,23,14,Improv_Melody,108,9999,9999,9999,2603264092
34,23,14,Improv_Melody,109,9999,9999,9999,2603764820
34,23,14,Improv_Melody,110,9999,9999,9999,2604264568
34,23,14,Improv_Melody,111,9999,9999,9999,2604764280
34,23,14,Improv_Melody,112,9999,9999,9999,2605264968
34,23,14,Improv_Melody,113,9999,9999,9999,2605764672
34,23,14,Improv_Melody,114,9999,9999,9999,2606264376
34,23,14,Improv_Melody,115,9999,9999,9999,2606764152
34,23,14,Improv_Melody,116,9999,9999,9999,2607264848
34,23,14,Improv_Melody,117,9999,9999,9999,2607764556
34,23,14,Improv_Melody,118,9999,9999,9999,2608264300
34,23,14,Improv_Melody,119,9999,9999,9999,2608765008
34,23,14,Improv_Melody,120,9999,9999,9999,2609264748
34,23,14,Improv_Melody,121,9999,9999,9999,2609764460
34,23,14,Improv_Melody,122,9999,9999,9999,2610264180
34,23,14,Improv_Melody,123,9999,9999,9999,2610764880
34,23,14,Improv_Melody,124,9999,9999,9999,2611264592
34,23,14,Improv_Melody,125,9999,9999,9999,2611764276
34,23,14,Improv_Melody,126,9999,9999,9999,2612265052
34,23,14,Improv_Melody,127,9999,9999,9999,2612764760
34,23,14,Improv_Melody,128,9999,9999,9999,2613264476
34,23,14,Improv_Melody,129,9999,9999,9999,2613764160
34,23,14,Improv_Melody,130,9999,9999,9999,2614264888
34,23,14,Improv_Melody,131,9999,9999,9999,2614764612
34,23,14,Improv_Melody,132,9999,9999,9999,2615264340
34,23,14,Improv_Melody,133,9999,9999,9999,2615765048
34,23,14,Improv_Melody,134,9999,9999,9999,2616264780
34,23,14,Improv_Melody,135,9999,9999,9999,2616764476
34,23,14,Improv_Melody,136,9999,9999,9999,2617264196
34,23,14,Improv_Melody,137,9999,9999,9999,2617764964
34,23,14,Improv_Melody,138,9999,9999,9999,2618264640
34,23,14,Improv_Melody,139,9999,9999,9999,2618764364
34,23,14,Improv_Melody,140,9999,9999,9999,2619264108
34,23,14,Improv_Melody,141,9999,9999,9999,2619764820
34,23,14,Improv_Melody,142,9999,9999,9999,2620264560
34,23,14,Improv_Melody,143,9999,9999,9999,2620764260
34,23,14,Improv_Melody,144,9999,9999,9999,2621264988
34,23,14,Improv_Melody,145,9999,9999,9999,2621764728
34,23,14,Improv_Melody,146,9999,9999,9999,2622264424
34,23,14,Improv_Melody,147,9999,9999,9999,2622764104
34,23,14,Improv_Melody,148,9999,9999,9999,2623264872
34,23,14,Improv_Melody,149,9999,9999,9999,2623764572
34,23,14,Improv_Melody,150,9999,9999,9999,2624264292
34,23,14,Improv_Melody,151,9999,9999,9999,2624765036
34,23,14,Improv_Melody,152,9999,9999,9999,2625264712
34,23,14,Improv_Melody,153,9999,9999,9999,2625764404
34,23,14,Improv_Melody,154,9999,9999,9999,2626264164
34,23,14,Improv_Melody,155,9999,9999,9999,2626764908
34,23,14,Improv_Melody,156,9999,9999,9999,2627264628
34,23,14,Improv_Melody,157,9999,9999,9999,2627764336
34,23,14,Improv_Melody,158,9999,9999,9999,2628265060
34,23,14,Improv_Melody,159,9999,9999,9999,2628764736
34,23,14,Improv_Melody,160,9999,9999,9999,2629264508
34,23,14,Improv_Melody,161,9999,9999,9999,2629764204
