pid,taskRunCount,taskID,taskName,i,channel,pitch,velocity,microseconds
1,0,Ticks_Pract_8,0,5,42,127,81639916
371,0,Ticks_Pract_8,1,5,42,127,82439672
371,0,Ticks_Pract_8,2,1,48,18,83234152
371,0,Ticks_Pract_8,3,5,42,127,83240244
371,0,Ticks_Pract_8,4,1,48,23,83982576
371,0,Ticks_Pract_8,5,5,42,127,84040080
371,0,Ticks_Pract_8,6,1,48,23,84782680
371,0,Ticks_Pract_8,7,5,42,127,84839736
371,0,Ticks_Pract_8,8,1,48,32,85596804
371,0,Ticks_Pract_8,9,5,42,127,85639620
371,0,Ticks_Pract_8,10,1,48,24,86398704
371,0,Ticks_Pract_8,11,5,42,127,86440552
371,0,Ticks_Pract_8,12,1,48,19,87214148
371,0,Ticks_Pract_8,13,5,42,127,87240060
371,0,Ticks_Pract_8,14,1,48,27,87980744
371,0,Ticks_Pract_8,15,5,42,127,88039868
371,0,Ticks_Pract_8,16,1,48,24,88053592
371,0,Ticks_Pract_8,17,1,48,32,88784944
371,0,Ticks_Pract_8,18,5,42,127,88839728
371,0,Ticks_Pract_8,19,1,48,24,89570912
371,0,Ticks_Pract_8,20,5,42,127,89640508
371,0,Ticks_Pract_8,21,1,48,25,90420364
371,0,Ticks_Pract_8,22,5,42,127,90440096
371,0,Ticks_Pract_8,23,5,42,127,91239832
371,0,Ticks_Pract_8,24,1,48,23,91249012
371,0,Ticks_Pract_8,25,1,48,26,92018736
371,0,Ticks_Pract_8,26,5,42,127,92039636
371,0,Ticks_Pract_8,27,1,48,27,92784808
371,0,Ticks_Pract_8,28,5,42,127,92840268
371,0,Ticks_Pract_8,29,1,48,28,93616928
371,0,Ticks_Pract_8,30,5,42,127,93640000
371,0,Ticks_Pract_8,31,1,48,32,94438300
371,0,Ticks_Pract_8,32,5,42,127,94440180
371,0,Ticks_Pract_8,33,1,48,34,95212204
371,0,Ticks_Pract_8,34,5,42,127,95239468
371,0,Ticks_Pract_8,35,1,48,24,96005880
371,0,Ticks_Pract_8,36,5,42,127,96040176
371,0,Ticks_Pract_8,37,1,48,25,96798656
371,0,Ticks_Pract_8,38,5,42,127,96840228
371,0,Ticks_Pract_8,39,1,48,25,97523296
371,0,Ticks_Pract_8,40,5,42,127,97639876
371,0,Ticks_Pract_8,41,1,48,29,98375412
371,0,Ticks_Pract_8,42,5,42,127,98439476
371,0,Ticks_Pract_8,43,1,48,27,99160192
371,0,Ticks_Pract_8,44,5,42,127,99240256
371,0,Ticks_Pract_8,45,1,48,29,99967552
371,0,Ticks_Pract_8,46,5,42,127,100040212
371,0,Ticks_Pract_8,47,1,48,29,100761900
371,0,Ticks_Pract_8,48,5,42,127,100839724
371,0,Ticks_Pract_8,49,1,48,31,101587216
371,0,Ticks_Pract_8,50,5,42,127,101639456
371,0,Ticks_Pract_8,51,1,48,38,102398836
371,0,Ticks_Pract_8,52,5,42,127,102440388
371,0,Ticks_Pract_8,53,1,48,22,103229544
371,0,Ticks_Pract_8,54,5,42,127,103239920
371,0,Ticks_Pract_8,55,1,48,22,104038532
371,0,Ticks_Pract_8,56,5,42,127,104040400
371,0,Ticks_Pract_8,57,5,42,127,104839472
371,0,Ticks_Pract_8,58,1,48,21,104914096
371,0,Ticks_Pract_8,59,1,48,29,105545068
371,0,Ticks_Pract_8,0,9999,9999,9999,81637480
371,0,Ticks_Pract_8,1,9999,9999,9999,82437236
371,0,Ticks_Pract_8,2,9999,9999,9999,83237956
371,0,Ticks_Pract_8,3,9999,9999,9999,84037716
371,0,Ticks_Pract_8,4,9999,9999,9999,84837448
371,0,Ticks_Pract_8,5,9999,9999,9999,85637184
371,0,Ticks_Pract_8,6,9999,9999,9999,86437964
371,0,Ticks_Pract_8,7,9999,9999,9999,87237700
371,0,Ticks_Pract_8,8,9999,9999,9999,88037432
371,0,Ticks_Pract_8,9,9999,9999,9999,88837216
371,0,Ticks_Pract_8,10,9999,9999,9999,89637996
371,0,Ticks_Pract_8,11,9999,9999,9999,90437732
371,0,Ticks_Pract_8,12,9999,9999,9999,91237472
371,0,Ticks_Pract_8,13,9999,9999,9999,92037200
371,0,Ticks_Pract_8,14,9999,9999,9999,92837980
371,0,Ticks_Pract_8,15,9999,9999,9999,93637712
371,0,Ticks_Pract_8,16,9999,9999,9999,94437452
371,0,Ticks_Pract_8,17,9999,9999,9999,95237180
371,0,Ticks_Pract_8,18,9999,9999,9999,96037960
371,0,Ticks_Pract_8,19,9999,9999,9999,96837720
371,0,Ticks_Pract_8,20,9999,9999,9999,97637440
371,0,Ticks_Pract_8,21,9999,9999,9999,98437188
371,0,Ticks_Pract_8,22,9999,9999,9999,99237968
371,0,Ticks_Pract_8,23,9999,9999,9999,100037704
371,0,Ticks_Pract_8,24,9999,9999,9999,100837436
371,0,Ticks_Pract_8,25,9999,9999,9999,101637172
371,0,Ticks_Pract_8,26,9999,9999,9999,102437952
371,0,Ticks_Pract_8,27,9999,9999,9999,103237708
371,0,Ticks_Pract_8,28,9999,9999,9999,104037448
371,0,Ticks_Pract_8,29,9999,9999,9999,104837184
372,1,Ticks_Pract_5,0,5,42,127,111134140
372,1,Ticks_Pract_5,1,5,42,127,111633708
372,1,Ticks_Pract_5,2,5,42,127,112133720
372,1,Ticks_Pract_5,3,5,42,127,112634188
372,1,Ticks_Pract_5,4,5,42,127,113134052
372,1,Ticks_Pract_5,5,1,48,30,113166720
372,1,Ticks_Pract_5,6,1,48,34,113585760
372,1,Ticks_Pract_5,7,5,42,127,113633592
372,1,Ticks_Pract_5,8,1,48,26,114068780
372,1,Ticks_Pract_5,9,5,42,127,114134628
372,1,Ticks_Pract_5,10,1,48,28,114571540
372,1,Ticks_Pract_5,11,5,42,127,114634176
372,1,Ticks_Pract_5,12,1,48,29,115085668
372,1,Ticks_Pract_5,13,5,42,127,115133944
372,1,Ticks_Pract_5,14,1,48,29,115572568
372,1,Ticks_Pract_5,15,5,42,127,115633640
372,1,Ticks_Pract_5,16,1,48,27,116099272
372,1,Ticks_Pract_5,17,5,42,127,116134384
372,1,Ticks_Pract_5,18,1,48,29,116581236
372,1,Ticks_Pract_5,19,5,42,127,116634080
372,1,Ticks_Pract_5,20,1,48,31,117102400
372,1,Ticks_Pract_5,21,5,42,127,117133628
372,1,Ticks_Pract_5,22,1,48,31,117604492
372,1,Ticks_Pract_5,23,5,42,127,117634588
372,1,Ticks_Pract_5,24,1,48,24,118099768
372,1,Ticks_Pract_5,25,5,42,127,118133988
372,1,Ticks_Pract_5,26,1,48,21,118632248
372,1,Ticks_Pract_5,27,5,42,127,118633904
372,1,Ticks_Pract_5,28,1,48,22,119108432
372,1,Ticks_Pract_5,29,5,42,127,119133596
372,1,Ticks_Pract_5,30,1,48,23,119590976
372,1,Ticks_Pract_5,31,5,42,127,119634412
372,1,Ticks_Pract_5,32,1,48,23,120109296
372,1,Ticks_Pract_5,33,5,42,127,120133960
372,1,Ticks_Pract_5,34,1,48,25,120624764
372,1,Ticks_Pract_5,35,5,42,127,120633704
372,1,Ticks_Pract_5,36,1,48,21,121114964
372,1,Ticks_Pract_5,37,5,42,127,121133324
372,1,Ticks_Pract_5,38,1,48,22,121587956
372,1,Ticks_Pract_5,39,5,42,127,121634284
372,1,Ticks_Pract_5,40,1,48,20,122068800
372,1,Ticks_Pract_5,41,5,42,127,122133832
372,1,Ticks_Pract_5,42,1,48,21,122588988
372,1,Ticks_Pract_5,43,5,42,127,122633528
372,1,Ticks_Pract_5,44,1,48,26,123105960
372,1,Ticks_Pract_5,45,5,42,127,123134192
372,1,Ticks_Pract_5,46,1,48,21,123608400
372,1,Ticks_Pract_5,47,5,42,127,123634308
372,1,Ticks_Pract_5,48,5,42,127,124133864
372,1,Ticks_Pract_5,49,1,48,22,124144384
372,1,Ticks_Pract_5,50,1,48,22,124601876
372,1,Ticks_Pract_5,51,5,42,127,124633400
372,1,Ticks_Pract_5,52,1,48,29,125084744
372,1,Ticks_Pract_5,53,5,42,127,125134144
372,1,Ticks_Pract_5,54,5,42,127,125633992
372,1,Ticks_Pract_5,55,1,48,26,125643848
372,1,Ticks_Pract_5,56,1,48,24,126104248
372,1,Ticks_Pract_5,57,5,42,127,126133680
372,1,Ticks_Pract_5,58,1,48,28,126609032
372,1,Ticks_Pract_5,59,5,42,127,126634200
372,1,Ticks_Pract_5,60,5,42,127,127134272
372,1,Ticks_Pract_5,61,1,48,37,127137020
372,1,Ticks_Pract_5,62,5,42,127,127633892
372,1,Ticks_Pract_5,63,1,48,24,127644412
372,1,Ticks_Pract_5,64,1,48,27,128101156
372,1,Ticks_Pract_5,65,5,42,127,128133356
372,1,Ticks_Pract_5,66,1,48,23,128585292
372,1,Ticks_Pract_5,67,5,42,127,128634320
372,1,Ticks_Pract_5,68,1,48,20,129048988
372,1,Ticks_Pract_5,69,5,42,127,129134012
372,1,Ticks_Pract_5,70,1,48,28,129589744
372,1,Ticks_Pract_5,71,5,42,127,129633632
372,1,Ticks_Pract_5,72,1,48,23,130069544
372,1,Ticks_Pract_5,73,5,42,127,130134372
372,1,Ticks_Pract_5,74,1,48,24,130573872
372,1,Ticks_Pract_5,75,5,42,127,130634216
372,1,Ticks_Pract_5,76,1,48,24,131038112
372,1,Ticks_Pract_5,0,9999,9999,9999,111131704
372,1,Ticks_Pract_5,1,9999,9999,9999,111631420
372,1,Ticks_Pract_5,2,9999,9999,9999,112131136
372,1,Ticks_Pract_5,3,9999,9999,9999,112631900
372,1,Ticks_Pract_5,4,9999,9999,9999,113131616
372,1,Ticks_Pract_5,5,9999,9999,9999,113631304
372,1,Ticks_Pract_5,6,9999,9999,9999,114132044
372,1,Ticks_Pract_5,7,9999,9999,9999,114631740
372,1,Ticks_Pract_5,8,9999,9999,9999,115131508
372,1,Ticks_Pract_5,9,9999,9999,9999,115631204
372,1,Ticks_Pract_5,10,9999,9999,9999,116131948
372,1,Ticks_Pract_5,11,9999,9999,9999,116631644
372,1,Ticks_Pract_5,12,9999,9999,9999,117131340
372,1,Ticks_Pract_5,13,9999,9999,9999,117632080
372,1,Ticks_Pract_5,14,9999,9999,9999,118131776
372,1,Ticks_Pract_5,15,9999,9999,9999,118631476
372,1,Ticks_Pract_5,16,9999,9999,9999,119131236
372,1,Ticks_Pract_5,17,9999,9999,9999,119631976
372,1,Ticks_Pract_5,18,9999,9999,9999,120131672
372,1,Ticks_Pract_5,19,9999,9999,9999,120631416
372,1,Ticks_Pract_5,20,9999,9999,9999,121131112
372,1,Ticks_Pract_5,21,9999,9999,9999,121631852
372,1,Ticks_Pract_5,22,9999,9999,9999,122131548
372,1,Ticks_Pract_5,23,9999,9999,9999,122631244
372,1,Ticks_Pract_5,24,9999,9999,9999,123131984
372,1,Ticks_Pract_5,25,9999,9999,9999,123631728
372,1,Ticks_Pract_5,26,9999,9999,9999,124131428
372,1,Ticks_Pract_5,27,9999,9999,9999,124631116
372,1,Ticks_Pract_5,28,9999,9999,9999,125131856
372,1,Ticks_Pract_5,29,9999,9999,9999,125631556
372,1,Ticks_Pract_5,30,9999,9999,9999,126131320
372,1,Ticks_Pract_5,31,9999,9999,9999,126631988
372,1,Ticks_Pract_5,32,9999,9999,9999,127131760
372,1,Ticks_Pract_5,33,9999,9999,9999,127631456
372,1,Ticks_Pract_5,34,9999,9999,9999,128131144
372,1,Ticks_Pract_5,35,9999,9999,9999,128631884
372,1,Ticks_Pract_5,36,9999,9999,9999,129131580
372,1,Ticks_Pract_5,37,9999,9999,9999,129631348
372,1,Ticks_Pract_5,38,9999,9999,9999,130132088
372,1,Ticks_Pract_5,39,9999,9999,9999,130631784
373,2,T1_SMS_8,0,5,42,127,214829620
373,2,T1_SMS_8,1,1,48,24,215585952
373,2,T1_SMS_8,2,5,42,127,215629244
373,2,T1_SMS_8,3,1,48,29,216412036
373,2,T1_SMS_8,4,5,42,127,216428828
373,2,T1_SMS_8,5,1,48,26,217200032
373,2,T1_SMS_8,6,5,42,127,217228636
373,2,T1_SMS_8,7,1,48,24,217995648
373,2,T1_SMS_8,8,5,42,127,218029640
373,2,T1_SMS_8,9,1,48,28,218825596
373,2,T1_SMS_8,10,5,42,127,218829448
373,2,T1_SMS_8,11,5,42,127,219628892
373,2,T1_SMS_8,12,1,48,24,219642184
373,2,T1_SMS_8,13,5,42,127,220428700
373,2,T1_SMS_8,14,1,48,27,220435560
373,2,T1_SMS_8,15,1,48,30,221220164
373,2,T1_SMS_8,16,5,42,127,221229400
373,2,T1_SMS_8,17,1,48,27,222015280
373,2,T1_SMS_8,18,5,42,127,222029304
373,2,T1_SMS_8,19,1,48,28,222815088
373,2,T1_SMS_8,20,5,42,127,222828964
373,2,T1_SMS_8,21,1,48,25,223617744
373,2,T1_SMS_8,22,5,42,127,223628548
373,2,T1_SMS_8,23,1,48,24,224398776
373,2,T1_SMS_8,24,5,42,127,224429328
373,2,T1_SMS_8,25,1,48,26,225206292
373,2,T1_SMS_8,26,5,42,127,225229436
373,2,T1_SMS_8,27,1,48,27,226007148
373,2,T1_SMS_8,28,5,42,127,226028872
373,2,T1_SMS_8,29,1,48,28,226777032
373,2,T1_SMS_8,30,5,42,127,226828680
373,2,T1_SMS_8,31,1,48,27,227582672
373,2,T1_SMS_8,32,5,42,127,227629384
373,2,T1_SMS_8,33,1,48,23,228387200
373,2,T1_SMS_8,34,5,42,127,228429364
373,2,T1_SMS_8,35,1,48,27,229140560
373,2,T1_SMS_8,36,5,42,127,229229100
373,2,T1_SMS_8,37,1,48,26,229918224
373,2,T1_SMS_8,38,5,42,127,230028520
373,2,T1_SMS_8,39,1,48,21,230753584
373,2,T1_SMS_8,40,5,42,127,230829388
373,2,T1_SMS_8,41,5,42,127,231629128
373,2,T1_SMS_8,42,1,48,23,231672864
373,2,T1_SMS_8,43,1,48,21,232412736
373,2,T1_SMS_8,44,5,42,127,232429152
373,2,T1_SMS_8,45,1,48,22,233192200
373,2,T1_SMS_8,46,5,42,127,233228588
373,2,T1_SMS_8,47,1,48,21,233994700
373,2,T1_SMS_8,48,5,42,127,234029368
373,2,T1_SMS_8,49,1,48,23,234803264
373,2,T1_SMS_8,50,5,42,127,234829052
373,2,T1_SMS_8,51,1,48,20,235596888
373,2,T1_SMS_8,52,5,42,127,235629080
373,2,T1_SMS_8,53,1,48,22,236381060
373,2,T1_SMS_8,54,5,42,127,236428744
373,2,T1_SMS_8,55,1,48,17,237152820
373,2,T1_SMS_8,56,5,42,127,237229300
373,2,T1_SMS_8,57,1,48,17,237993764
373,2,T1_SMS_8,58,5,42,127,238029032
373,2,T1_SMS_8,59,1,48,16,238804720
373,2,T1_SMS_8,60,5,42,127,238828916
373,2,T1_SMS_8,61,1,48,20,239609736
373,2,T1_SMS_8,62,5,42,127,239628696
373,2,T1_SMS_8,63,5,42,127,240429412
373,2,T1_SMS_8,64,1,48,19,240455816
373,2,T1_SMS_8,65,5,42,127,241229096
373,2,T1_SMS_8,66,1,48,20,241280604
373,2,T1_SMS_8,67,5,42,127,242028900
373,2,T1_SMS_8,68,1,48,20,242823752
373,2,T1_SMS_8,69,5,42,127,242828800
373,2,T1_SMS_8,70,1,48,30,243600296
373,2,T1_SMS_8,71,5,42,127,243629580
373,2,T1_SMS_8,72,1,48,32,244371084
373,2,T1_SMS_8,73,5,42,127,244429236
373,2,T1_SMS_8,74,1,48,26,245199316
373,2,T1_SMS_8,75,5,42,127,245228824
373,2,T1_SMS_8,76,1,48,28,245978928
373,2,T1_SMS_8,77,5,42,127,246028628
373,2,T1_SMS_8,78,1,48,24,246734980
373,2,T1_SMS_8,79,5,42,127,246829632
373,2,T1_SMS_8,80,1,48,19,247544584
373,2,T1_SMS_8,81,5,42,127,247629020
373,2,T1_SMS_8,82,1,48,27,248377412
373,2,T1_SMS_8,83,5,42,127,248428900
373,2,T1_SMS_8,84,1,48,21,249163080
373,2,T1_SMS_8,85,5,42,127,249228636
373,2,T1_SMS_8,86,1,48,20,249978296
373,2,T1_SMS_8,87,5,42,127,250029564
373,2,T1_SMS_8,88,1,48,24,250702632
373,2,T1_SMS_8,89,5,42,127,250829360
373,2,T1_SMS_8,90,1,48,23,251619800
373,2,T1_SMS_8,91,5,42,127,251628808
373,2,T1_SMS_8,92,1,48,23,252421328
373,2,T1_SMS_8,93,5,42,127,252428620
373,2,T1_SMS_8,94,5,42,127,253229480
373,2,T1_SMS_8,95,1,48,27,253247060
373,2,T1_SMS_8,96,1,48,23,254007256
373,2,T1_SMS_8,97,5,42,127,254029380
373,2,T1_SMS_8,98,1,48,25,254799684
373,2,T1_SMS_8,99,5,42,127,254829040
373,2,T1_SMS_8,100,1,48,28,255580568
373,2,T1_SMS_8,101,5,42,127,255628548
373,2,T1_SMS_8,102,1,48,32,256354196
373,2,T1_SMS_8,103,5,42,127,256429332
373,2,T1_SMS_8,104,1,48,25,257173904
373,2,T1_SMS_8,105,5,42,127,257229136
373,2,T1_SMS_8,106,1,48,24,257921948
373,2,T1_SMS_8,107,5,42,127,258029004
373,2,T1_SMS_8,108,1,48,29,258737768
373,2,T1_SMS_8,109,5,42,127,258829340
373,2,T1_SMS_8,110,1,48,35,259590080
373,2,T1_SMS_8,111,5,42,127,259629460
373,2,T1_SMS_8,112,1,48,28,260421856
373,2,T1_SMS_8,113,5,42,127,260429144
373,2,T1_SMS_8,114,1,48,28,261223536
373,2,T1_SMS_8,115,5,42,127,261229104
373,2,T1_SMS_8,116,1,48,30,261987520
373,2,T1_SMS_8,117,5,42,127,262028764
373,2,T1_SMS_8,118,1,48,30,262793904
373,2,T1_SMS_8,119,5,42,127,262829324
373,2,T1_SMS_8,120,1,48,32,263611292
373,2,T1_SMS_8,121,5,42,127,263629128
373,2,T1_SMS_8,122,1,48,32,264418508
373,2,T1_SMS_8,123,5,42,127,264429012
373,2,T1_SMS_8,124,1,48,33,265203056
373,2,T1_SMS_8,125,5,42,127,265228820
373,2,T1_SMS_8,126,1,48,29,265986856
373,2,T1_SMS_8,127,5,42,127,266029452
373,2,T1_SMS_8,128,1,48,29,266775516
373,2,T1_SMS_8,129,5,42,127,266829284
373,2,T1_SMS_8,130,1,48,31,267560592
373,2,T1_SMS_8,131,5,42,127,267628868
373,2,T1_SMS_8,132,1,48,32,268381740
373,2,T1_SMS_8,133,5,42,127,268428748
373,2,T1_SMS_8,134,1,48,28,269186192
373,2,T1_SMS_8,135,5,42,127,269229676
373,2,T1_SMS_8,136,1,48,34,269994968
373,2,T1_SMS_8,137,5,42,127,270029116
373,2,T1_SMS_8,138,1,48,22,270670616
373,2,T1_SMS_8,139,5,42,127,270828760
373,2,T1_SMS_8,140,1,48,28,271609400
373,2,T1_SMS_8,141,5,42,127,271628732
373,2,T1_SMS_8,142,5,42,127,272429592
373,2,T1_SMS_8,143,1,48,27,272443056
373,2,T1_SMS_8,144,1,48,25,273208744
373,2,T1_SMS_8,145,5,42,127,273229120
373,2,T1_SMS_8,146,1,48,27,273994560
373,2,T1_SMS_8,147,5,42,127,274028780
373,2,T1_SMS_8,148,1,48,32,274794220
373,2,T1_SMS_8,149,5,42,127,274828588
373,2,T1_SMS_8,150,1,48,33,275601356
373,2,T1_SMS_8,151,5,42,127,275629516
373,2,T1_SMS_8,152,1,48,33,276374236
373,2,T1_SMS_8,153,5,42,127,276429324
373,2,T1_SMS_8,154,1,48,31,277203072
373,2,T1_SMS_8,155,5,42,127,277228764
373,2,T1_SMS_8,156,1,48,31,277936240
373,2,T1_SMS_8,157,5,42,127,278028644
373,2,T1_SMS_8,158,5,42,127,278829432
373,2,T1_SMS_8,159,1,48,17,278843340
373,2,T1_SMS_8,160,1,48,24,279605708
373,2,T1_SMS_8,161,5,42,127,279629380
373,2,T1_SMS_8,162,1,48,19,280374076
373,2,T1_SMS_8,163,5,42,127,280428864
373,2,T1_SMS_8,164,1,48,21,281115820
373,2,T1_SMS_8,165,5,42,127,281228508
373,2,T1_SMS_8,166,1,48,40,281977284
373,2,T1_SMS_8,167,5,42,127,282029528
373,2,T1_SMS_8,168,1,48,34,282818084
373,2,T1_SMS_8,169,5,42,127,282829336
373,2,T1_SMS_8,170,5,42,127,283628776
373,2,T1_SMS_8,171,1,48,30,283631824
373,2,T1_SMS_8,172,1,48,29,284412908
373,2,T1_SMS_8,173,5,42,127,284428580
373,2,T1_SMS_8,174,1,48,31,285218480
373,2,T1_SMS_8,175,5,42,127,285229284
373,2,T1_SMS_8,176,1,48,34,285990908
373,2,T1_SMS_8,177,5,42,127,286029116
373,2,T1_SMS_8,178,1,48,30,286771120
373,2,T1_SMS_8,179,5,42,127,286828924
373,2,T1_SMS_8,180,1,48,29,287579104
373,2,T1_SMS_8,181,5,42,127,287628656
373,2,T1_SMS_8,182,1,48,28,288388040
373,2,T1_SMS_8,183,5,42,127,288429288
373,2,T1_SMS_8,184,1,48,34,289213580
373,2,T1_SMS_8,185,5,42,127,289229096
373,2,T1_SMS_8,186,1,48,40,290009572
373,2,T1_SMS_8,187,5,42,127,290028976
373,2,T1_SMS_8,188,1,48,34,290828496
373,2,T1_SMS_8,189,5,42,127,290830204
373,2,T1_SMS_8,190,1,48,29,291616896
373,2,T1_SMS_8,191,5,42,127,291629344
373,2,T1_SMS_8,192,1,48,31,292421740
373,2,T1_SMS_8,193,5,42,127,292429104
373,2,T1_SMS_8,194,5,42,127,293228920
373,2,T1_SMS_8,195,1,48,40,293244304
373,2,T1_SMS_8,196,5,42,127,294028728
373,2,T1_SMS_8,197,1,48,38,294075224
373,2,T1_SMS_8,198,1,48,39,294796252
373,2,T1_SMS_8,199,5,42,127,294829428
373,2,T1_SMS_8,200,1,48,36,295582076
373,2,T1_SMS_8,201,5,42,127,295629160
373,2,T1_SMS_8,202,1,48,37,296408588
373,2,T1_SMS_8,203,5,42,127,296428892
373,2,T1_SMS_8,204,1,48,32,297212188
373,2,T1_SMS_8,205,5,42,127,297228752
373,2,T1_SMS_8,206,1,48,44,297952152
373,2,T1_SMS_8,207,5,42,127,298029604
373,2,T1_SMS_8,208,1,48,34,298788992
373,2,T1_SMS_8,209,5,42,127,298829068
373,2,T1_SMS_8,210,1,48,35,299570020
373,2,T1_SMS_8,211,5,42,127,299628800
373,2,T1_SMS_8,212,1,48,33,300377192
373,2,T1_SMS_8,213,5,42,127,300428608
373,2,T1_SMS_8,214,1,48,34,301175876
373,2,T1_SMS_8,215,5,42,127,301229612
373,2,T1_SMS_8,216,1,48,33,301976584
373,2,T1_SMS_8,217,5,42,127,302029124
373,2,T1_SMS_8,218,1,48,35,302692468
373,2,T1_SMS_8,219,5,42,127,302828840
373,2,T1_SMS_8,220,1,48,36,303591980
373,2,T1_SMS_8,221,5,42,127,303628664
373,2,T1_SMS_8,222,1,48,23,304381836
373,2,T1_SMS_8,223,5,42,127,304429520
373,2,T1_SMS_8,224,1,48,27,305221388
373,2,T1_SMS_8,225,5,42,127,305229280
373,2,T1_SMS_8,226,1,48,27,305951536
373,2,T1_SMS_8,227,5,42,127,306028864
373,2,T1_SMS_8,228,1,48,28,306755932
373,2,T1_SMS_8,229,5,42,127,306828596
373,2,T1_SMS_8,230,5,42,127,307629380
373,2,T1_SMS_8,231,1,48,29,307645364
373,2,T1_SMS_8,232,5,42,127,308429264
373,2,T1_SMS_8,233,1,48,26,308450784
373,2,T1_SMS_8,234,1,48,27,309224020
373,2,T1_SMS_8,235,5,42,127,309228844
373,2,T1_SMS_8,236,5,42,127,310028584
373,2,T1_SMS_8,237,1,48,27,310030596
373,2,T1_SMS_8,238,1,48,32,310811144
373,2,T1_SMS_8,0,9999,9999,9999,214827112
373,2,T1_SMS_8,1,9999,9999,9999,215626808
373,2,T1_SMS_8,2,9999,9999,9999,216426616
373,2,T1_SMS_8,3,9999,9999,9999,217226352
373,2,T1_SMS_8,4,9999,9999,9999,218027128
373,2,T1_SMS_8,5,9999,9999,9999,218826864
373,2,T1_SMS_8,6,9999,9999,9999,219626604
373,2,T1_SMS_8,7,9999,9999,9999,220426336
373,2,T1_SMS_8,8,9999,9999,9999,221227112
373,2,T1_SMS_8,9,9999,9999,9999,222026868
373,2,T1_SMS_8,10,9999,9999,9999,222826604
373,2,T1_SMS_8,11,9999,9999,9999,223626336
373,2,T1_SMS_8,12,9999,9999,9999,224427116
373,2,T1_SMS_8,13,9999,9999,9999,225226848
373,2,T1_SMS_8,14,9999,9999,9999,226026584
373,2,T1_SMS_8,15,9999,9999,9999,226826316
373,2,T1_SMS_8,16,9999,9999,9999,227627096
373,2,T1_SMS_8,17,9999,9999,9999,228426856
373,2,T1_SMS_8,18,9999,9999,9999,229226588
373,2,T1_SMS_8,19,9999,9999,9999,230026304
373,2,T1_SMS_8,20,9999,9999,9999,230827100
373,2,T1_SMS_8,21,9999,9999,9999,231626840
373,2,T1_SMS_8,22,9999,9999,9999,232426568
373,2,T1_SMS_8,23,9999,9999,9999,233226300
373,2,T1_SMS_8,24,9999,9999,9999,234027080
373,2,T1_SMS_8,25,9999,9999,9999,234826836
373,2,T1_SMS_8,26,9999,9999,9999,235626572
373,2,T1_SMS_8,27,9999,9999,9999,236426308
373,2,T1_SMS_8,28,9999,9999,9999,237227088
373,2,T1_SMS_8,29,9999,9999,9999,238026820
373,2,T1_SMS_8,30,9999,9999,9999,238826552
373,2,T1_SMS_8,31,9999,9999,9999,239626336
373,2,T1_SMS_8,32,9999,9999,9999,240427124
373,2,T1_SMS_8,33,9999,9999,9999,241226808
373,2,T1_SMS_8,34,9999,9999,9999,242026612
373,2,T1_SMS_8,35,9999,9999,9999,242826364
373,2,T1_SMS_8,36,9999,9999,9999,243627068
373,2,T1_SMS_8,37,9999,9999,9999,244426876
373,2,T1_SMS_8,38,9999,9999,9999,245226608
373,2,T1_SMS_8,39,9999,9999,9999,246026340
373,2,T1_SMS_8,40,9999,9999,9999,246827124
373,2,T1_SMS_8,41,9999,9999,9999,247626804
373,2,T1_SMS_8,42,9999,9999,9999,248426612
373,2,T1_SMS_8,43,9999,9999,9999,249226348
373,2,T1_SMS_8,44,9999,9999,9999,250027128
373,2,T1_SMS_8,45,9999,9999,9999,250826848
373,2,T1_SMS_8,46,9999,9999,9999,251626596
373,2,T1_SMS_8,47,9999,9999,9999,252426332
373,2,T1_SMS_8,48,9999,9999,9999,253227116
373,2,T1_SMS_8,49,9999,9999,9999,254026868
373,2,T1_SMS_8,50,9999,9999,9999,254826604
373,2,T1_SMS_8,51,9999,9999,9999,255626336
373,2,T1_SMS_8,52,9999,9999,9999,256427116
373,2,T1_SMS_8,53,9999,9999,9999,257226852
373,2,T1_SMS_8,54,9999,9999,9999,258026568
373,2,T1_SMS_8,55,9999,9999,9999,258826316
373,2,T1_SMS_8,56,9999,9999,9999,259627096
373,2,T1_SMS_8,57,9999,9999,9999,260426856
373,2,T1_SMS_8,58,9999,9999,9999,261226592
373,2,T1_SMS_8,59,9999,9999,9999,262026328
373,2,T1_SMS_8,60,9999,9999,9999,262827108
373,2,T1_SMS_8,61,9999,9999,9999,263626840
373,2,T1_SMS_8,62,9999,9999,9999,264426576
373,2,T1_SMS_8,63,9999,9999,9999,265226308
373,2,T1_SMS_8,64,9999,9999,9999,266027088
373,2,T1_SMS_8,65,9999,9999,9999,266826848
373,2,T1_SMS_8,66,9999,9999,9999,267626580
373,2,T1_SMS_8,67,9999,9999,9999,268426312
373,2,T1_SMS_8,68,9999,9999,9999,269227092
373,2,T1_SMS_8,69,9999,9999,9999,270026828
373,2,T1_SMS_8,70,9999,9999,9999,270826548
373,2,T1_SMS_8,71,9999,9999,9999,271626296
373,2,T1_SMS_8,72,9999,9999,9999,272427080
373,2,T1_SMS_8,73,9999,9999,9999,273226832
373,2,T1_SMS_8,74,9999,9999,9999,274026568
373,2,T1_SMS_8,75,9999,9999,9999,274826300
373,2,T1_SMS_8,76,9999,9999,9999,275627080
373,2,T1_SMS_8,77,9999,9999,9999,276426812
373,2,T1_SMS_8,78,9999,9999,9999,277226548
373,2,T1_SMS_8,79,9999,9999,9999,278026356
373,2,T1_SMS_8,80,9999,9999,9999,278827068
373,2,T1_SMS_8,81,9999,9999,9999,279626868
373,2,T1_SMS_8,82,9999,9999,9999,280426576
373,2,T1_SMS_8,83,9999,9999,9999,281226296
373,2,T1_SMS_8,84,9999,9999,9999,282027088
373,2,T1_SMS_8,85,9999,9999,9999,282826824
373,2,T1_SMS_8,86,9999,9999,9999,283626564
373,2,T1_SMS_8,87,9999,9999,9999,284426292
373,2,T1_SMS_8,88,9999,9999,9999,285227072
373,2,T1_SMS_8,89,9999,9999,9999,286026828
373,2,T1_SMS_8,90,9999,9999,9999,286826564
373,2,T1_SMS_8,91,9999,9999,9999,287626296
373,2,T1_SMS_8,92,9999,9999,9999,288427076
373,2,T1_SMS_8,93,9999,9999,9999,289226808
373,2,T1_SMS_8,94,9999,9999,9999,290026616
373,2,T1_SMS_8,95,9999,9999,9999,290826356
373,2,T1_SMS_8,96,9999,9999,9999,291627132
373,2,T1_SMS_8,97,9999,9999,9999,292426816
373,2,T1_SMS_8,98,9999,9999,9999,293226556
373,2,T1_SMS_8,99,9999,9999,9999,294026364
373,2,T1_SMS_8,100,9999,9999,9999,294827064
373,2,T1_SMS_8,101,9999,9999,9999,295626872
373,2,T1_SMS_8,102,9999,9999,9999,296426604
373,2,T1_SMS_8,103,9999,9999,9999,297226316
373,2,T1_SMS_8,104,9999,9999,9999,298027096
373,2,T1_SMS_8,105,9999,9999,9999,298826852
373,2,T1_SMS_8,106,9999,9999,9999,299626584
373,2,T1_SMS_8,107,9999,9999,9999,300426320
373,2,T1_SMS_8,108,9999,9999,9999,301227100
373,2,T1_SMS_8,109,9999,9999,9999,302026836
373,2,T1_SMS_8,110,9999,9999,9999,302826552
373,2,T1_SMS_8,111,9999,9999,9999,303626300
373,2,T1_SMS_8,112,9999,9999,9999,304427084
373,2,T1_SMS_8,113,9999,9999,9999,305226844
373,2,T1_SMS_8,114,9999,9999,9999,306026576
373,2,T1_SMS_8,115,9999,9999,9999,306826308
373,2,T1_SMS_8,116,9999,9999,9999,307627092
373,2,T1_SMS_8,117,9999,9999,9999,308426828
373,2,T1_SMS_8,118,9999,9999,9999,309226556
373,2,T1_SMS_8,119,9999,9999,9999,310026296
374,4,T1_SMS_5,0,5,42,127,365341084
374,4,T1_SMS_5,1,5,42,127,365840872
374,4,T1_SMS_5,2,1,48,27,366049340
374,4,T1_SMS_5,3,5,42,127,366340344
374,4,T1_SMS_5,4,1,48,43,366710172
374,4,T1_SMS_5,5,5,42,127,366841160
374,4,T1_SMS_5,6,1,48,35,367291092
374,4,T1_SMS_5,7,5,42,127,367340796
374,4,T1_SMS_5,8,1,48,30,367818992
374,4,T1_SMS_5,9,5,42,127,367840492
374,4,T1_SMS_5,10,1,48,28,368313968
374,4,T1_SMS_5,11,5,42,127,368341304
374,4,T1_SMS_5,12,1,48,30,368792944
374,4,T1_SMS_5,13,5,42,127,368841076
374,4,T1_SMS_5,14,1,48,35,369325776
374,4,T1_SMS_5,15,5,42,127,369340772
374,4,T1_SMS_5,16,1,48,35,369834820
374,4,T1_SMS_5,17,5,42,127,369840616
374,4,T1_SMS_5,18,1,48,29,370324116
374,4,T1_SMS_5,19,5,42,127,370341208
374,4,T1_SMS_5,20,1,48,27,370830244
374,4,T1_SMS_5,21,5,42,127,370840976
374,4,T1_SMS_5,22,1,48,30,371324700
374,4,T1_SMS_5,23,5,42,127,371340820
374,4,T1_SMS_5,24,5,42,127,371841496
374,4,T1_SMS_5,25,1,48,26,371851868
374,4,T1_SMS_5,26,1,48,24,372295968
374,4,T1_SMS_5,27,5,42,127,372340960
374,4,T1_SMS_5,28,5,42,127,372840736
374,4,T1_SMS_5,29,1,48,31,372845944
374,4,T1_SMS_5,30,5,42,127,373340580
374,4,T1_SMS_5,31,1,48,29,373348256
374,4,T1_SMS_5,32,5,42,127,373841168
374,4,T1_SMS_5,33,1,48,32,373848552
374,4,T1_SMS_5,34,1,48,24,374339572
374,4,T1_SMS_5,35,5,42,127,374341528
374,4,T1_SMS_5,36,5,42,127,374840784
374,4,T1_SMS_5,37,1,48,23,374855640
374,4,T1_SMS_5,38,1,48,30,375315656
374,4,T1_SMS_5,39,5,42,127,375341492
374,4,T1_SMS_5,40,1,48,26,375829236
374,4,T1_SMS_5,41,5,42,127,375841088
374,4,T1_SMS_5,42,1,48,27,376320256
374,4,T1_SMS_5,43,5,42,127,376340784
374,4,T1_SMS_5,44,1,48,27,376831396
374,4,T1_SMS_5,45,5,42,127,376840480
374,4,T1_SMS_5,46,1,48,22,377337448
374,4,T1_SMS_5,47,5,42,127,377341148
374,4,T1_SMS_5,48,1,48,26,377841444
374,4,T1_SMS_5,49,5,42,127,377842860
374,4,T1_SMS_5,50,5,42,127,378340692
374,4,T1_SMS_5,51,1,48,28,378354280
374,4,T1_SMS_5,52,5,42,127,378840612
374,4,T1_SMS_5,53,1,48,29,378873796
374,4,T1_SMS_5,54,1,48,27,379296132
374,4,T1_SMS_5,55,5,42,127,379341196
374,4,T1_SMS_5,56,1,48,24,379802188
374,4,T1_SMS_5,57,5,42,127,379840816
374,4,T1_SMS_5,58,1,48,27,380260892
374,4,T1_SMS_5,59,5,42,127,380340584
374,4,T1_SMS_5,60,1,48,23,380798732
374,4,T1_SMS_5,61,5,42,127,380841400
374,4,T1_SMS_5,62,1,48,26,381302392
374,4,T1_SMS_5,63,5,42,127,381341172
374,4,T1_SMS_5,64,1,48,26,381805752
374,4,T1_SMS_5,65,5,42,127,381840792
374,4,T1_SMS_5,66,1,48,27,382316364
374,4,T1_SMS_5,67,5,42,127,382340412
374,4,T1_SMS_5,68,5,42,127,382841384
374,4,T1_SMS_5,69,1,48,20,382844652
374,4,T1_SMS_5,70,1,48,31,383322712
374,4,T1_SMS_5,71,5,42,127,383340996
374,4,T1_SMS_5,72,1,48,30,383826892
374,4,T1_SMS_5,73,5,42,127,383840472
374,4,T1_SMS_5,74,5,42,127,384341368
374,4,T1_SMS_5,75,1,48,35,384342408
374,4,T1_SMS_5,76,5,42,127,384841212
374,4,T1_SMS_5,77,1,48,29,384852336
374,4,T1_SMS_5,78,1,48,35,385330324
374,4,T1_SMS_5,79,5,42,127,385340676
374,4,T1_SMS_5,80,5,42,127,385840452
374,4,T1_SMS_5,81,1,48,38,385841416
374,4,T1_SMS_5,82,1,48,31,386310312
374,4,T1_SMS_5,83,5,42,127,386341160
374,4,T1_SMS_5,84,1,48,34,386815908
374,4,T1_SMS_5,85,5,42,127,386841152
374,4,T1_SMS_5,86,1,48,35,387332288
374,4,T1_SMS_5,87,5,42,127,387340776
374,4,T1_SMS_5,88,5,42,127,387841300
374,4,T1_SMS_5,89,1,48,31,387843316
374,4,T1_SMS_5,90,1,48,38,388332276
374,4,T1_SMS_5,91,5,42,127,388341140
374,4,T1_SMS_5,92,5,42,127,388840692
374,4,T1_SMS_5,93,1,48,33,388841656
374,4,T1_SMS_5,94,1,48,38,389321568
374,4,T1_SMS_5,95,5,42,127,389340380
374,4,T1_SMS_5,96,1,48,39,389802640
374,4,T1_SMS_5,97,5,42,127,389841124
374,4,T1_SMS_5,98,1,48,38,390336820
374,4,T1_SMS_5,99,5,42,127,390341264
374,4,T1_SMS_5,100,5,42,127,390840892
374,4,T1_SMS_5,101,1,48,34,390858744
374,4,T1_SMS_5,102,1,48,32,391302000
374,4,T1_SMS_5,103,5,42,127,391341452
374,4,T1_SMS_5,104,1,48,35,391786432
374,4,T1_SMS_5,105,5,42,127,391841000
374,4,T1_SMS_5,106,1,48,35,392323004
374,4,T1_SMS_5,107,5,42,127,392340920
374,4,T1_SMS_5,108,1,48,36,392823976
374,4,T1_SMS_5,109,5,42,127,392840540
374,4,T1_SMS_5,110,1,48,37,393321948
374,4,T1_SMS_5,111,5,42,127,393341208
374,4,T1_SMS_5,112,5,42,127,393841056
374,4,T1_SMS_5,113,1,48,21,393881424
374,4,T1_SMS_5,114,1,48,28,394294488
374,4,T1_SMS_5,115,5,42,127,394340820
374,4,T1_SMS_5,116,1,48,38,394839920
374,4,T1_SMS_5,117,5,42,127,394841564
374,4,T1_SMS_5,118,5,42,127,395341116
374,4,T1_SMS_5,119,1,48,35,395347000
374,4,T1_SMS_5,120,1,48,38,395824908
374,4,T1_SMS_5,121,5,42,127,395840952
374,4,T1_SMS_5,122,5,42,127,396340800
374,4,T1_SMS_5,123,1,48,37,396365012
374,4,T1_SMS_5,124,5,42,127,396841520
374,4,T1_SMS_5,125,1,48,34,396850120
374,4,T1_SMS_5,126,1,48,35,397319856
374,4,T1_SMS_5,127,5,42,127,397340908
374,4,T1_SMS_5,128,1,48,34,397840908
374,4,T1_SMS_5,129,5,42,127,397842392
374,4,T1_SMS_5,130,1,48,32,398336524
374,4,T1_SMS_5,131,5,42,127,398340672
374,4,T1_SMS_5,132,1,48,34,398798148
374,4,T1_SMS_5,133,5,42,127,398841192
374,4,T1_SMS_5,134,1,48,37,399314668
374,4,T1_SMS_5,135,5,42,127,399341036
374,4,T1_SMS_5,136,1,48,37,399823192
374,4,T1_SMS_5,137,5,42,127,399840876
374,4,T1_SMS_5,138,1,48,32,400305212
374,4,T1_SMS_5,139,5,42,127,400341296
374,4,T1_SMS_5,140,1,48,31,400798472
374,4,T1_SMS_5,141,5,42,127,400841064
374,4,T1_SMS_5,142,1,48,37,401286652
374,4,T1_SMS_5,143,5,42,127,401340688
374,4,T1_SMS_5,144,1,48,35,401800928
374,4,T1_SMS_5,145,5,42,127,401840608
374,4,T1_SMS_5,146,1,48,33,402322164
374,4,T1_SMS_5,147,5,42,127,402341348
374,4,T1_SMS_5,148,1,48,34,402827404
374,4,T1_SMS_5,149,5,42,127,402840896
374,4,T1_SMS_5,150,1,48,32,403319612
374,4,T1_SMS_5,151,5,42,127,403340592
374,4,T1_SMS_5,152,1,48,28,403812652
374,4,T1_SMS_5,153,5,42,127,403841480
374,4,T1_SMS_5,154,1,48,30,404284892
374,4,T1_SMS_5,155,5,42,127,404341100
374,4,T1_SMS_5,156,1,48,29,404818844
374,4,T1_SMS_5,157,5,42,127,404840872
374,4,T1_SMS_5,158,1,48,31,405313904
374,4,T1_SMS_5,159,5,42,127,405340492
374,4,T1_SMS_5,160,1,48,27,405809264
374,4,T1_SMS_5,161,5,42,127,405841308
374,4,T1_SMS_5,162,1,48,26,406328028
374,4,T1_SMS_5,163,5,42,127,406340928
374,4,T1_SMS_5,164,5,42,127,406840628
374,4,T1_SMS_5,165,1,48,24,406852348
374,4,T1_SMS_5,166,5,42,127,407341444
374,4,T1_SMS_5,167,1,48,28,407350400
374,4,T1_SMS_5,168,1,48,28,407820432
374,4,T1_SMS_5,169,5,42,127,407841332
374,4,T1_SMS_5,170,1,48,27,408301952
374,4,T1_SMS_5,171,5,42,127,408340804
374,4,T1_SMS_5,172,1,48,26,408793344
374,4,T1_SMS_5,173,5,42,127,408840500
374,4,T1_SMS_5,174,1,48,34,409301788
374,4,T1_SMS_5,175,5,42,127,409341464
374,4,T1_SMS_5,176,1,48,27,409827140
374,4,T1_SMS_5,177,5,42,127,409841088
374,4,T1_SMS_5,178,1,48,29,410321004
374,4,T1_SMS_5,179,5,42,127,410340856
374,4,T1_SMS_5,180,1,48,27,410833264
374,4,T1_SMS_5,181,5,42,127,410840628
374,4,T1_SMS_5,182,1,48,27,411292264
374,4,T1_SMS_5,183,5,42,127,411341292
374,4,T1_SMS_5,184,1,48,31,411837064
374,4,T1_SMS_5,185,5,42,127,411840840
374,4,T1_SMS_5,186,5,42,127,412340616
374,4,T1_SMS_5,187,1,48,28,412362360
374,4,T1_SMS_5,188,1,48,28,412830776
374,4,T1_SMS_5,189,5,42,127,412841276
374,4,T1_SMS_5,190,1,48,32,413310348
374,4,T1_SMS_5,191,5,42,127,413340972
374,4,T1_SMS_5,192,1,48,27,413824032
374,4,T1_SMS_5,193,5,42,127,413840744
374,4,T1_SMS_5,194,1,48,28,414300688
374,4,T1_SMS_5,195,5,42,127,414340364
374,4,T1_SMS_5,196,1,48,27,414788560
374,4,T1_SMS_5,197,5,42,127,414841180
374,4,T1_SMS_5,198,1,48,29,415290952
374,4,T1_SMS_5,199,5,42,127,415341324
374,4,T1_SMS_5,200,1,48,29,415797152
374,4,T1_SMS_5,201,5,42,127,415840572
374,4,T1_SMS_5,202,1,48,27,416300516
374,4,T1_SMS_5,203,5,42,127,416341388
374,4,T1_SMS_5,204,1,48,28,416823696
374,4,T1_SMS_5,205,5,42,127,416841008
374,4,T1_SMS_5,206,1,48,24,417316112
374,4,T1_SMS_5,207,5,42,127,417340856
374,4,T1_SMS_5,208,1,48,24,417809824
374,4,T1_SMS_5,209,5,42,127,417840400
374,4,T1_SMS_5,210,1,48,22,418312956
374,4,T1_SMS_5,211,5,42,127,418341192
374,4,T1_SMS_5,212,1,48,24,418811160
374,4,T1_SMS_5,213,5,42,127,418841112
374,4,T1_SMS_5,214,1,48,27,419316088
374,4,T1_SMS_5,215,5,42,127,419340732
374,4,T1_SMS_5,216,1,48,25,419833212
374,4,T1_SMS_5,217,5,42,127,419841328
374,4,T1_SMS_5,218,5,42,127,420341100
374,4,T1_SMS_5,219,1,48,28,420345944
374,4,T1_SMS_5,220,1,48,25,420833652
374,4,T1_SMS_5,221,5,42,127,420840940
374,4,T1_SMS_5,222,1,48,25,421321452
374,4,T1_SMS_5,223,5,42,127,421340412
374,4,T1_SMS_5,224,1,48,20,421770292
374,4,T1_SMS_5,225,5,42,127,421841228
374,4,T1_SMS_5,226,1,48,22,422273424
374,4,T1_SMS_5,227,5,42,127,422341004
374,4,T1_SMS_5,228,1,48,22,422779700
374,4,T1_SMS_5,229,5,42,127,422840700
374,4,T1_SMS_5,230,1,48,23,423305124
374,4,T1_SMS_5,231,5,42,127,423341512
374,4,T1_SMS_5,232,5,42,127,423841068
374,4,T1_SMS_5,233,1,48,18,423847032
374,4,T1_SMS_5,234,1,48,18,424330324
374,4,T1_SMS_5,235,5,42,127,424340828
374,4,T1_SMS_5,236,1,48,16,424819920
374,4,T1_SMS_5,237,5,42,127,424840748
374,4,T1_SMS_5,238,1,48,18,425327696
374,4,T1_SMS_5,239,5,42,127,425341192
374,4,T1_SMS_5,240,1,48,19,425830900
374,4,T1_SMS_5,241,5,42,127,425840960
374,4,T1_SMS_5,242,1,48,17,426307184
374,4,T1_SMS_5,243,5,42,127,426340876
374,4,T1_SMS_5,244,1,48,23,426814508
374,4,T1_SMS_5,245,5,42,127,426840572
374,4,T1_SMS_5,246,1,48,25,427322128
374,4,T1_SMS_5,247,5,42,127,427341236
374,4,T1_SMS_5,248,1,48,21,427811628
374,4,T1_SMS_5,249,5,42,127,427840932
374,4,T1_SMS_5,250,1,48,17,428277440
374,4,T1_SMS_5,251,5,42,127,428340848
374,4,T1_SMS_5,252,1,48,21,428823280
374,4,T1_SMS_5,253,5,42,127,428841420
374,4,T1_SMS_5,254,1,48,21,429311064
374,4,T1_SMS_5,255,5,42,127,429341164
374,4,T1_SMS_5,256,1,48,19,429811352
374,4,T1_SMS_5,257,5,42,127,429840708
374,4,T1_SMS_5,258,1,48,20,430322492
374,4,T1_SMS_5,0,9999,9999,9999,365338720
374,4,T1_SMS_5,1,9999,9999,9999,365838436
374,4,T1_SMS_5,2,9999,9999,9999,366338132
374,4,T1_SMS_5,3,9999,9999,9999,366838872
374,4,T1_SMS_5,4,9999,9999,9999,367338584
374,4,T1_SMS_5,5,9999,9999,9999,367838280
374,4,T1_SMS_5,6,9999,9999,9999,368339020
374,4,T1_SMS_5,7,9999,9999,9999,368838716
374,4,T1_SMS_5,8,9999,9999,9999,369338484
374,4,T1_SMS_5,9,9999,9999,9999,369838180
374,4,T1_SMS_5,10,9999,9999,9999,370338920
374,4,T1_SMS_5,11,9999,9999,9999,370838616
374,4,T1_SMS_5,12,9999,9999,9999,371338312
374,4,T1_SMS_5,13,9999,9999,9999,371839056
374,4,T1_SMS_5,14,9999,9999,9999,372338748
374,4,T1_SMS_5,15,9999,9999,9999,372838448
374,4,T1_SMS_5,16,9999,9999,9999,373338216
374,4,T1_SMS_5,17,9999,9999,9999,373838956
374,4,T1_SMS_5,18,9999,9999,9999,374338652
374,4,T1_SMS_5,19,9999,9999,9999,374838348
374,4,T1_SMS_5,20,9999,9999,9999,375339060
374,4,T1_SMS_5,21,9999,9999,9999,375838804
374,4,T1_SMS_5,22,9999,9999,9999,376338496
374,4,T1_SMS_5,23,9999,9999,9999,376838192
374,4,T1_SMS_5,24,9999,9999,9999,377338936
374,4,T1_SMS_5,25,9999,9999,9999,377838712
374,4,T1_SMS_5,26,9999,9999,9999,378338408
374,4,T1_SMS_5,27,9999,9999,9999,378838100
374,4,T1_SMS_5,28,9999,9999,9999,379338836
374,4,T1_SMS_5,29,9999,9999,9999,379838532
374,4,T1_SMS_5,30,9999,9999,9999,380338224
374,4,T1_SMS_5,31,9999,9999,9999,380838968
374,4,T1_SMS_5,32,9999,9999,9999,381338736
374,4,T1_SMS_5,33,9999,9999,9999,381838432
374,4,T1_SMS_5,34,9999,9999,9999,382338128
374,4,T1_SMS_5,35,9999,9999,9999,382838876
374,4,T1_SMS_5,36,9999,9999,9999,383338564
374,4,T1_SMS_5,37,9999,9999,9999,383838260
374,4,T1_SMS_5,38,9999,9999,9999,384339008
374,4,T1_SMS_5,39,9999,9999,9999,384838776
374,4,T1_SMS_5,40,9999,9999,9999,385338464
374,4,T1_SMS_5,41,9999,9999,9999,385838164
374,4,T1_SMS_5,42,9999,9999,9999,386338876
374,4,T1_SMS_5,43,9999,9999,9999,386838644
374,4,T1_SMS_5,44,9999,9999,9999,387338340
374,4,T1_SMS_5,45,9999,9999,9999,387839088
374,4,T1_SMS_5,46,9999,9999,9999,388338776
374,4,T1_SMS_5,47,9999,9999,9999,388838480
374,4,T1_SMS_5,48,9999,9999,9999,389338168
374,4,T1_SMS_5,49,9999,9999,9999,389838912
374,4,T1_SMS_5,50,9999,9999,9999,390338680
374,4,T1_SMS_5,51,9999,9999,9999,390838384
374,4,T1_SMS_5,52,9999,9999,9999,391339092
374,4,T1_SMS_5,53,9999,9999,9999,391838788
374,4,T1_SMS_5,54,9999,9999,9999,392338484
374,4,T1_SMS_5,55,9999,9999,9999,392838252
374,4,T1_SMS_5,56,9999,9999,9999,393338996
374,4,T1_SMS_5,57,9999,9999,9999,393838696
374,4,T1_SMS_5,58,9999,9999,9999,394338384
374,4,T1_SMS_5,59,9999,9999,9999,394838088
374,4,T1_SMS_5,60,9999,9999,9999,395338828
374,4,T1_SMS_5,61,9999,9999,9999,395838516
374,4,T1_SMS_5,62,9999,9999,9999,396338292
374,4,T1_SMS_5,63,9999,9999,9999,396839008
374,4,T1_SMS_5,64,9999,9999,9999,397338696
374,4,T1_SMS_5,65,9999,9999,9999,397838396
374,4,T1_SMS_5,66,9999,9999,9999,398338160
374,4,T1_SMS_5,67,9999,9999,9999,398838904
374,4,T1_SMS_5,68,9999,9999,9999,399338600
374,4,T1_SMS_5,69,9999,9999,9999,399838296
374,4,T1_SMS_5,70,9999,9999,9999,400339012
374,4,T1_SMS_5,71,9999,9999,9999,400838704
374,4,T1_SMS_5,72,9999,9999,9999,401338476
374,4,T1_SMS_5,73,9999,9999,9999,401838172
374,4,T1_SMS_5,74,9999,9999,9999,402338916
374,4,T1_SMS_5,75,9999,9999,9999,402838612
374,4,T1_SMS_5,76,9999,9999,9999,403338304
374,4,T1_SMS_5,77,9999,9999,9999,403839048
374,4,T1_SMS_5,78,9999,9999,9999,404338740
374,4,T1_SMS_5,79,9999,9999,9999,404838508
374,4,T1_SMS_5,80,9999,9999,9999,405338204
374,4,T1_SMS_5,81,9999,9999,9999,405838948
374,4,T1_SMS_5,82,9999,9999,9999,406338640
374,4,T1_SMS_5,83,9999,9999,9999,406838344
374,4,T1_SMS_5,84,9999,9999,9999,407339060
374,4,T1_SMS_5,85,9999,9999,9999,407838824
374,4,T1_SMS_5,86,9999,9999,9999,408338520
374,4,T1_SMS_5,87,9999,9999,9999,408838216
374,4,T1_SMS_5,88,9999,9999,9999,409338956
374,4,T1_SMS_5,89,9999,9999,9999,409838652
374,4,T1_SMS_5,90,9999,9999,9999,410338420
374,4,T1_SMS_5,91,9999,9999,9999,410838116
374,4,T1_SMS_5,92,9999,9999,9999,411338856
374,4,T1_SMS_5,93,9999,9999,9999,411838552
374,4,T1_SMS_5,94,9999,9999,9999,412338256
374,4,T1_SMS_5,95,9999,9999,9999,412838992
374,4,T1_SMS_5,96,9999,9999,9999,413338688
374,4,T1_SMS_5,97,9999,9999,9999,413838456
374,4,T1_SMS_5,98,9999,9999,9999,414338152
374,4,T1_SMS_5,99,9999,9999,9999,414838896
374,4,T1_SMS_5,100,9999,9999,9999,415338588
374,4,T1_SMS_5,101,9999,9999,9999,415838284
374,4,T1_SMS_5,102,9999,9999,9999,416339028
374,4,T1_SMS_5,103,9999,9999,9999,416838724
374,4,T1_SMS_5,104,9999,9999,9999,417338420
374,4,T1_SMS_5,105,9999,9999,9999,417838188
374,4,T1_SMS_5,106,9999,9999,9999,418338908
374,4,T1_SMS_5,107,9999,9999,9999,418838600
374,4,T1_SMS_5,108,9999,9999,9999,419338296
374,4,T1_SMS_5,109,9999,9999,9999,419839040
374,4,T1_SMS_5,110,9999,9999,9999,420338740
374,4,T1_SMS_5,111,9999,9999,9999,420838504
374,4,T1_SMS_5,112,9999,9999,9999,421338200
374,4,T1_SMS_5,113,9999,9999,9999,421838944
374,4,T1_SMS_5,114,9999,9999,9999,422338640
374,4,T1_SMS_5,115,9999,9999,9999,422838336
374,4,T1_SMS_5,116,9999,9999,9999,423339080
374,4,T1_SMS_5,117,9999,9999,9999,423838780
374,4,T1_SMS_5,118,9999,9999,9999,424338540
374,4,T1_SMS_5,119,9999,9999,9999,424838236
374,4,T1_SMS_5,120,9999,9999,9999,425338980
374,4,T1_SMS_5,121,9999,9999,9999,425838672
374,4,T1_SMS_5,122,9999,9999,9999,426338368
374,4,T1_SMS_5,123,9999,9999,9999,426838136
374,4,T1_SMS_5,124,9999,9999,9999,427338804
374,4,T1_SMS_5,125,9999,9999,9999,427838572
374,4,T1_SMS_5,126,9999,9999,9999,428338268
374,4,T1_SMS_5,127,9999,9999,9999,428838984
374,4,T1_SMS_5,128,9999,9999,9999,429338728
374,4,T1_SMS_5,129,9999,9999,9999,429838424
375,20,Ticks_Linear_8,0,5,42,127,445950352
375,20,Ticks_Linear_8,1,5,42,127,446769520
375,20,Ticks_Linear_8,2,1,48,36,446899208
375,20,Ticks_Linear_8,3,1,48,31,447537748
375,20,Ticks_Linear_8,4,5,42,127,447589756
375,20,Ticks_Linear_8,5,1,48,24,448319800
375,20,Ticks_Linear_8,6,5,42,127,448409928
375,20,Ticks_Linear_8,7,1,48,29,449131576
375,20,Ticks_Linear_8,8,5,42,127,449230152
375,20,Ticks_Linear_8,9,1,48,26,450001616
375,20,Ticks_Linear_8,10,5,42,127,450040152
375,20,Ticks_Linear_8,11,1,48,26,450843952
375,20,Ticks_Linear_8,12,5,42,127,450850208
375,20,Ticks_Linear_8,13,5,42,127,451660148
375,20,Ticks_Linear_8,14,1,48,29,451675396
375,20,Ticks_Linear_8,15,1,48,28,452432264
375,20,Ticks_Linear_8,16,5,42,127,452470124
375,20,Ticks_Linear_8,17,1,48,24,453234756
375,20,Ticks_Linear_8,18,5,42,127,453280184
375,20,Ticks_Linear_8,19,1,48,27,454061964
375,20,Ticks_Linear_8,20,5,42,127,454079832
375,20,Ticks_Linear_8,21,1,48,22,454865652
375,20,Ticks_Linear_8,22,5,42,127,454879632
375,20,Ticks_Linear_8,23,1,48,24,455651004
375,20,Ticks_Linear_8,24,5,42,127,455680476
375,20,Ticks_Linear_8,25,1,48,24,456454616
375,20,Ticks_Linear_8,26,5,42,127,456480128
375,20,Ticks_Linear_8,27,1,48,26,457242288
375,20,Ticks_Linear_8,28,5,42,127,457279800
375,20,Ticks_Linear_8,29,5,42,127,458070616
375,20,Ticks_Linear_8,30,1,48,28,458079808
375,20,Ticks_Linear_8,31,1,48,29,458822064
375,20,Ticks_Linear_8,32,5,42,127,458860000
375,20,Ticks_Linear_8,33,1,48,29,459597368
375,20,Ticks_Linear_8,34,5,42,127,459650584
375,20,Ticks_Linear_8,35,1,48,29,460378384
375,20,Ticks_Linear_8,36,5,42,127,460450088
375,20,Ticks_Linear_8,37,1,48,27,461175028
375,20,Ticks_Linear_8,38,5,42,127,461239552
375,20,Ticks_Linear_8,39,1,48,27,461967332
375,20,Ticks_Linear_8,40,5,42,127,462019880
375,20,Ticks_Linear_8,41,1,48,20,462790880
375,20,Ticks_Linear_8,42,5,42,127,462800428
375,20,Ticks_Linear_8,43,1,48,19,463542600
375,20,Ticks_Linear_8,44,5,42,127,463579636
375,20,Ticks_Linear_8,45,1,48,20,464245044
375,20,Ticks_Linear_8,46,5,42,127,464359728
375,20,Ticks_Linear_8,47,1,48,16,465104228
375,20,Ticks_Linear_8,48,5,42,127,465140144
375,20,Ticks_Linear_8,49,1,48,16,465897748
375,20,Ticks_Linear_8,50,5,42,127,465910584
375,20,Ticks_Linear_8,51,5,42,127,466680140
375,20,Ticks_Linear_8,52,1,48,19,466684304
375,20,Ticks_Linear_8,53,5,42,127,467450280
375,20,Ticks_Linear_8,54,1,48,30,467452652
375,20,Ticks_Linear_8,55,1,48,27,468195656
375,20,Ticks_Linear_8,56,5,42,127,468220268
375,20,Ticks_Linear_8,57,5,42,127,468990268
375,20,Ticks_Linear_8,58,1,48,26,469001256
375,20,Ticks_Linear_8,59,1,48,22,469722468
375,20,Ticks_Linear_8,60,5,42,127,469750220
375,20,Ticks_Linear_8,61,1,48,21,470464828
375,20,Ticks_Linear_8,62,5,42,127,470510028
375,20,Ticks_Linear_8,63,1,48,28,471221192
375,20,Ticks_Linear_8,64,5,42,127,471269688
375,20,Ticks_Linear_8,65,1,48,36,471955160
375,20,Ticks_Linear_8,66,5,42,127,472029424
375,20,Ticks_Linear_8,67,1,48,24,472780880
375,20,Ticks_Linear_8,68,5,42,127,472790500
375,20,Ticks_Linear_8,69,5,42,127,473539836
375,20,Ticks_Linear_8,70,1,48,26,473585556
375,20,Ticks_Linear_8,71,1,48,28,474270464
375,20,Ticks_Linear_8,72,5,42,127,474289452
375,20,Ticks_Linear_8,73,1,48,25,475004060
375,20,Ticks_Linear_8,74,5,42,127,475040048
375,20,Ticks_Linear_8,75,1,48,27,475755776
375,20,Ticks_Linear_8,76,5,42,127,475789820
375,20,Ticks_Linear_8,77,1,48,26,476488484
375,20,Ticks_Linear_8,78,5,42,127,476540272
375,20,Ticks_Linear_8,79,1,48,24,477206772
375,20,Ticks_Linear_8,80,5,42,127,477279784
375,20,Ticks_Linear_8,81,1,48,23,477947936
375,20,Ticks_Linear_8,82,5,42,127,478019896
375,20,Ticks_Linear_8,83,1,48,25,478685352
375,20,Ticks_Linear_8,84,5,42,127,478760236
375,20,Ticks_Linear_8,85,1,48,28,479470928
375,20,Ticks_Linear_8,86,5,42,127,479499796
375,20,Ticks_Linear_8,87,1,48,26,480219952
375,20,Ticks_Linear_8,88,5,42,127,480240136
375,20,Ticks_Linear_8,89,1,48,28,480945680
375,20,Ticks_Linear_8,90,5,42,127,480969992
375,20,Ticks_Linear_8,91,1,48,27,481683852
375,20,Ticks_Linear_8,92,5,42,127,481700144
375,20,Ticks_Linear_8,93,1,48,24,482385320
375,20,Ticks_Linear_8,94,5,42,127,482430300
375,20,Ticks_Linear_8,95,1,48,25,483067668
375,20,Ticks_Linear_8,96,5,42,127,483160660
375,20,Ticks_Linear_8,97,1,48,23,483865072
375,20,Ticks_Linear_8,98,5,42,127,483899744
375,20,Ticks_Linear_8,99,1,48,23,484574560
375,20,Ticks_Linear_8,100,5,42,127,484619536
375,20,Ticks_Linear_8,101,1,48,20,485256032
375,20,Ticks_Linear_8,102,5,42,127,485339432
375,20,Ticks_Linear_8,103,1,48,24,486001920
375,20,Ticks_Linear_8,104,5,42,127,486060448
375,20,Ticks_Linear_8,105,1,48,21,486720392
375,20,Ticks_Linear_8,106,5,42,127,486780488
375,20,Ticks_Linear_8,107,1,48,21,487425132
375,20,Ticks_Linear_8,108,5,42,127,487500160
375,20,Ticks_Linear_8,109,1,48,20,488155728
375,20,Ticks_Linear_8,110,5,42,127,488209696
375,20,Ticks_Linear_8,111,1,48,21,488887844
375,20,Ticks_Linear_8,112,5,42,127,488920380
375,20,Ticks_Linear_8,113,1,48,21,489579348
375,20,Ticks_Linear_8,114,5,42,127,489640496
375,20,Ticks_Linear_8,115,1,48,24,490320284
375,20,Ticks_Linear_8,116,5,42,127,490349908
375,20,Ticks_Linear_8,117,1,48,26,491023376
375,20,Ticks_Linear_8,118,5,42,127,491059540
375,20,Ticks_Linear_8,119,1,48,26,491685824
375,20,Ticks_Linear_8,120,5,42,127,491760012
375,20,Ticks_Linear_8,121,1,48,19,492378396
375,20,Ticks_Linear_8,122,5,42,127,492460360
375,20,Ticks_Linear_8,123,1,48,23,493084776
375,20,Ticks_Linear_8,124,5,42,127,493159884
375,20,Ticks_Linear_8,125,1,48,21,493781532
375,20,Ticks_Linear_8,126,5,42,127,493860132
375,20,Ticks_Linear_8,127,1,48,21,494461660
375,20,Ticks_Linear_8,128,5,42,127,494559644
375,20,Ticks_Linear_8,129,1,48,26,495195852
375,20,Ticks_Linear_8,130,5,42,127,495249744
375,20,Ticks_Linear_8,131,1,48,25,495885844
375,20,Ticks_Linear_8,132,5,42,127,495940208
375,20,Ticks_Linear_8,133,1,48,27,496600652
375,20,Ticks_Linear_8,134,5,42,127,496630196
375,20,Ticks_Linear_8,135,1,48,25,497296800
375,20,Ticks_Linear_8,136,5,42,127,497320436
375,20,Ticks_Linear_8,137,5,42,127,498009408
375,20,Ticks_Linear_8,138,1,48,24,498022788
375,20,Ticks_Linear_8,139,1,48,22,498673284
375,20,Ticks_Linear_8,140,5,42,127,498690404
375,20,Ticks_Linear_8,141,1,48,19,499312676
375,20,Ticks_Linear_8,142,5,42,127,499379444
375,20,Ticks_Linear_8,143,1,48,20,499975328
375,20,Ticks_Linear_8,144,5,42,127,500059496
375,20,Ticks_Linear_8,145,1,48,20,500675372
375,20,Ticks_Linear_8,146,5,42,127,500739304
375,20,Ticks_Linear_8,147,1,48,17,501372284
375,20,Ticks_Linear_8,148,5,42,127,501420328
375,20,Ticks_Linear_8,149,1,48,19,502072556
375,20,Ticks_Linear_8,150,5,42,127,502090048
375,20,Ticks_Linear_8,151,1,48,21,502739332
375,20,Ticks_Linear_8,152,5,42,127,502759816
375,20,Ticks_Linear_8,153,1,48,19,503421256
375,20,Ticks_Linear_8,154,5,42,127,503429608
375,20,Ticks_Linear_8,155,1,48,19,504060916
375,20,Ticks_Linear_8,156,5,42,127,504100276
375,20,Ticks_Linear_8,157,1,48,16,504680988
375,20,Ticks_Linear_8,158,5,42,127,504769920
375,20,Ticks_Linear_8,159,1,48,26,505359748
375,20,Ticks_Linear_8,160,5,42,127,505430352
375,20,Ticks_Linear_8,161,1,48,22,506061216
375,20,Ticks_Linear_8,162,5,42,127,506089716
375,20,Ticks_Linear_8,163,1,48,23,506729360
375,20,Ticks_Linear_8,164,5,42,127,506750292
375,20,Ticks_Linear_8,165,1,48,23,507383624
375,20,Ticks_Linear_8,166,5,42,127,507409732
375,20,Ticks_Linear_8,167,1,48,21,508027432
375,20,Ticks_Linear_8,168,5,42,127,508070164
375,20,Ticks_Linear_8,169,1,48,22,508708072
375,20,Ticks_Linear_8,170,5,42,127,508719440
375,20,Ticks_Linear_8,171,1,48,20,509311432
375,20,Ticks_Linear_8,172,5,42,127,509369664
375,20,Ticks_Linear_8,173,1,48,21,509980008
375,20,Ticks_Linear_8,174,5,42,127,510019984
375,20,Ticks_Linear_8,175,1,48,17,510631976
375,20,Ticks_Linear_8,176,5,42,127,510670060
375,20,Ticks_Linear_8,177,1,48,16,511261600
375,20,Ticks_Linear_8,178,5,42,127,511320532
375,20,Ticks_Linear_8,179,1,48,20,511870964
375,20,Ticks_Linear_8,180,5,42,127,511960572
375,20,Ticks_Linear_8,181,1,48,21,512516912
375,20,Ticks_Linear_8,182,5,42,127,512600484
375,20,Ticks_Linear_8,183,1,48,27,513176516
375,20,Ticks_Linear_8,184,5,42,127,513240520
375,20,Ticks_Linear_8,185,1,48,19,513813488
375,20,Ticks_Linear_8,186,5,42,127,513880508
375,20,Ticks_Linear_8,187,1,48,16,514453928
375,20,Ticks_Linear_8,188,5,42,127,514520400
375,20,Ticks_Linear_8,189,5,42,127,515160396
375,20,Ticks_Linear_8,190,1,48,24,515762736
375,20,Ticks_Linear_8,191,5,42,127,515800300
375,20,Ticks_Linear_8,192,1,48,19,516392912
375,20,Ticks_Linear_8,193,5,42,127,516440436
375,20,Ticks_Linear_8,194,1,48,22,517033404
375,20,Ticks_Linear_8,195,5,42,127,517080400
375,20,Ticks_Linear_8,196,1,48,21,517715328
375,20,Ticks_Linear_8,197,5,42,127,517720468
375,20,Ticks_Linear_8,198,1,48,28,518327672
375,20,Ticks_Linear_8,199,5,42,127,518350172
375,20,Ticks_Linear_8,200,1,48,29,518950060
375,20,Ticks_Linear_8,201,5,42,127,518969716
375,20,Ticks_Linear_8,202,1,48,29,519569276
375,20,Ticks_Linear_8,203,5,42,127,519590208
375,20,Ticks_Linear_8,204,5,42,127,520209736
375,20,Ticks_Linear_8,205,1,48,26,520212328
375,20,Ticks_Linear_8,206,1,48,28,520780932
375,20,Ticks_Linear_8,207,5,42,127,520830244
375,20,Ticks_Linear_8,208,1,48,29,521378584
375,20,Ticks_Linear_8,209,5,42,127,521439508
375,20,Ticks_Linear_8,210,1,48,25,521965068
375,20,Ticks_Linear_8,211,5,42,127,522049988
375,20,Ticks_Linear_8,212,1,48,24,522566116
375,20,Ticks_Linear_8,213,5,42,127,522660148
375,20,Ticks_Linear_8,214,1,48,23,523159884
375,20,Ticks_Linear_8,215,5,42,127,523269396
375,20,Ticks_Linear_8,216,1,48,24,523831400
375,20,Ticks_Linear_8,217,5,42,127,523879968
375,20,Ticks_Linear_8,218,1,48,25,524466036
375,20,Ticks_Linear_8,219,5,42,127,524480312
375,20,Ticks_Linear_8,220,5,42,127,525080368
375,20,Ticks_Linear_8,221,1,48,25,525102164
375,20,Ticks_Linear_8,222,1,48,21,525637704
375,20,Ticks_Linear_8,223,5,42,127,525680136
375,20,Ticks_Linear_8,224,1,48,22,526162792
375,20,Ticks_Linear_8,225,5,42,127,526280096
375,20,Ticks_Linear_8,226,1,48,27,526737988
375,20,Ticks_Linear_8,227,5,42,127,526880072
375,20,Ticks_Linear_8,228,1,48,22,527400068
375,20,Ticks_Linear_8,229,5,42,127,527469976
375,20,Ticks_Linear_8,230,1,48,24,528007980
375,20,Ticks_Linear_8,231,5,42,127,528059764
375,20,Ticks_Linear_8,232,1,48,24,528593048
375,20,Ticks_Linear_8,233,5,42,127,528649632
375,20,Ticks_Linear_8,234,1,48,29,529201436
375,20,Ticks_Linear_8,235,5,42,127,529240416
375,20,Ticks_Linear_8,236,1,48,24,529809428
375,20,Ticks_Linear_8,237,5,42,127,529839496
375,20,Ticks_Linear_8,238,1,48,19,530406392
375,20,Ticks_Linear_8,239,5,42,127,530420000
375,20,Ticks_Linear_8,240,5,42,127,530999936
375,20,Ticks_Linear_8,241,1,48,20,531003728
375,20,Ticks_Linear_8,242,1,48,15,531559800
375,20,Ticks_Linear_8,243,5,42,127,531580280
375,20,Ticks_Linear_8,244,1,48,17,532103676
375,20,Ticks_Linear_8,245,5,42,127,532159736
375,20,Ticks_Linear_8,246,1,48,15,532630936
375,20,Ticks_Linear_8,247,5,42,127,532739624
375,20,Ticks_Linear_8,248,5,42,127,533309764
375,20,Ticks_Linear_8,249,1,48,21,533817536
375,20,Ticks_Linear_8,250,5,42,127,533880100
375,20,Ticks_Linear_8,251,1,48,24,534414356
375,20,Ticks_Linear_8,252,5,42,127,534449744
375,20,Ticks_Linear_8,253,5,42,127,535019920
375,20,Ticks_Linear_8,254,1,48,22,535022512
375,20,Ticks_Linear_8,255,1,48,18,535577680
375,20,Ticks_Linear_8,256,5,42,127,535590180
375,20,Ticks_Linear_8,257,1,48,16,536119576
375,20,Ticks_Linear_8,258,5,42,127,536150612
375,20,Ticks_Linear_8,259,1,48,17,536683672
375,20,Ticks_Linear_8,260,5,42,127,536709776
375,20,Ticks_Linear_8,261,1,48,19,537242384
375,20,Ticks_Linear_8,262,5,42,127,537269612
375,20,Ticks_Linear_8,263,1,48,19,537807996
375,20,Ticks_Linear_8,264,5,42,127,537829820
375,20,Ticks_Linear_8,265,1,48,18,538342512
375,20,Ticks_Linear_8,266,5,42,127,538389956
375,20,Ticks_Linear_8,267,1,48,18,538911480
375,20,Ticks_Linear_8,268,5,42,127,538939856
375,20,Ticks_Linear_8,269,1,48,17,539458240
375,20,Ticks_Linear_8,270,5,42,127,539489656
375,20,Ticks_Linear_8,271,5,42,127,540039464
375,20,Ticks_Linear_8,272,1,48,17,540565340
375,20,Ticks_Linear_8,273,5,42,127,540589428
375,20,Ticks_Linear_8,274,1,48,16,541136776
375,20,Ticks_Linear_8,275,5,42,127,541140496
375,20,Ticks_Linear_8,276,5,42,127,541679972
375,20,Ticks_Linear_8,277,1,48,16,541710200
375,20,Ticks_Linear_8,278,1,48,18,542175500
375,20,Ticks_Linear_8,279,5,42,127,542219728
375,20,Ticks_Linear_8,280,1,48,19,542699844
375,20,Ticks_Linear_8,281,5,42,127,542760488
375,20,Ticks_Linear_8,282,1,48,18,543215108
375,20,Ticks_Linear_8,283,5,42,127,543299952
375,20,Ticks_Linear_8,284,1,48,20,543748668
375,20,Ticks_Linear_8,285,5,42,127,543839572
375,20,Ticks_Linear_8,286,1,48,26,544306348
375,20,Ticks_Linear_8,287,5,42,127,544369972
375,20,Ticks_Linear_8,288,1,48,33,544856372
375,20,Ticks_Linear_8,289,5,42,127,544899404
375,20,Ticks_Linear_8,290,5,42,127,545429740
375,20,Ticks_Linear_8,291,1,48,26,545439080
375,20,Ticks_Linear_8,292,1,48,25,545933360
375,20,Ticks_Linear_8,293,5,42,127,545960360
375,20,Ticks_Linear_8,294,1,48,28,546441896
375,20,Ticks_Linear_8,295,5,42,127,546489716
375,20,Ticks_Linear_8,296,1,48,34,546969760
375,20,Ticks_Linear_8,297,5,42,127,547009860
375,20,Ticks_Linear_8,298,1,48,26,547486368
375,20,Ticks_Linear_8,299,5,42,127,547530448
375,20,Ticks_Linear_8,300,1,48,25,548002548
375,20,Ticks_Linear_8,301,5,42,127,548050444
375,20,Ticks_Linear_8,302,1,48,17,548531312
375,20,Ticks_Linear_8,303,5,42,127,548569396
375,20,Ticks_Linear_8,304,1,48,29,549038280
375,20,Ticks_Linear_8,305,5,42,127,549089612
375,20,Ticks_Linear_8,306,1,48,19,549540740
375,20,Ticks_Linear_8,307,5,42,127,549599572
375,20,Ticks_Linear_8,308,1,48,22,550048088
375,20,Ticks_Linear_8,309,5,42,127,550109608
375,20,Ticks_Linear_8,310,1,48,20,550573612
375,20,Ticks_Linear_8,311,5,42,127,550619492
375,20,Ticks_Linear_8,312,1,48,34,551054668
375,20,Ticks_Linear_8,313,5,42,127,551129452
375,20,Ticks_Linear_8,314,1,48,29,551539024
375,20,Ticks_Linear_8,315,5,42,127,551640368
375,20,Ticks_Linear_8,316,1,48,27,552089120
375,20,Ticks_Linear_8,317,5,42,127,552150488
375,20,Ticks_Linear_8,318,1,48,30,552621764
375,20,Ticks_Linear_8,319,5,42,127,552650044
375,20,Ticks_Linear_8,320,5,42,127,553150044
375,20,Ticks_Linear_8,321,1,48,30,553166040
375,20,Ticks_Linear_8,322,1,48,29,553618924
375,20,Ticks_Linear_8,323,5,42,127,553649516
375,20,Ticks_Linear_8,324,1,48,30,554097960
375,20,Ticks_Linear_8,325,5,42,127,554150340
375,20,Ticks_Linear_8,326,1,48,37,554603936
375,20,Ticks_Linear_8,327,5,42,127,554639704
375,20,Ticks_Linear_8,328,1,48,30,555058788
375,20,Ticks_Linear_8,329,5,42,127,555130116
375,20,Ticks_Linear_8,330,1,48,32,555531048
375,20,Ticks_Linear_8,331,5,42,127,555619856
375,20,Ticks_Linear_8,332,1,48,24,556014044
375,20,Ticks_Linear_8,333,5,42,127,556110252
375,20,Ticks_Linear_8,334,1,48,32,556502140
375,20,Ticks_Linear_8,335,5,42,127,556599860
375,20,Ticks_Linear_8,0,9999,9999,9999,445947980
375,20,Ticks_Linear_8,1,9999,9999,9999,446767220
375,20,Ticks_Linear_8,2,9999,9999,9999,447587384
375,20,Ticks_Linear_8,3,9999,9999,9999,448407628
375,20,Ticks_Linear_8,4,9999,9999,9999,449227856
375,20,Ticks_Linear_8,5,9999,9999,9999,450037852
375,20,Ticks_Linear_8,6,9999,9999,9999,450847836
375,20,Ticks_Linear_8,7,9999,9999,9999,451657848
375,20,Ticks_Linear_8,8,9999,9999,9999,452467828
375,20,Ticks_Linear_8,9,9999,9999,9999,453277808
375,20,Ticks_Linear_8,10,9999,9999,9999,454077532
375,20,Ticks_Linear_8,11,9999,9999,9999,454877260
375,20,Ticks_Linear_8,12,9999,9999,9999,455678028
375,20,Ticks_Linear_8,13,9999,9999,9999,456477752
375,20,Ticks_Linear_8,14,9999,9999,9999,457277500
375,20,Ticks_Linear_8,15,9999,9999,9999,458068092
375,20,Ticks_Linear_8,16,9999,9999,9999,458857552
375,20,Ticks_Linear_8,17,9999,9999,9999,459648064
375,20,Ticks_Linear_8,18,9999,9999,9999,460447864
375,20,Ticks_Linear_8,19,9999,9999,9999,461237328
375,20,Ticks_Linear_8,20,9999,9999,9999,462017656
375,20,Ticks_Linear_8,21,9999,9999,9999,462797908
375,20,Ticks_Linear_8,22,9999,9999,9999,463577188
375,20,Ticks_Linear_8,23,9999,9999,9999,464357504
375,20,Ticks_Linear_8,24,9999,9999,9999,465137768
375,20,Ticks_Linear_8,25,9999,9999,9999,465907840
375,20,Ticks_Linear_8,26,9999,9999,9999,466677840
375,20,Ticks_Linear_8,27,9999,9999,9999,467447908
375,20,Ticks_Linear_8,28,9999,9999,9999,468217968
375,20,Ticks_Linear_8,29,9999,9999,9999,468987968
375,20,Ticks_Linear_8,30,9999,9999,9999,469747772
375,20,Ticks_Linear_8,31,9999,9999,9999,470507580
375,20,Ticks_Linear_8,32,9999,9999,9999,471267388
375,20,Ticks_Linear_8,33,9999,9999,9999,472027200
375,20,Ticks_Linear_8,34,9999,9999,9999,472788052
375,20,Ticks_Linear_8,35,9999,9999,9999,473537612
375,20,Ticks_Linear_8,36,9999,9999,9999,474287228
375,20,Ticks_Linear_8,37,9999,9999,9999,475037752
375,20,Ticks_Linear_8,38,9999,9999,9999,475787376
375,20,Ticks_Linear_8,39,9999,9999,9999,476537972
375,20,Ticks_Linear_8,40,9999,9999,9999,477277264
375,20,Ticks_Linear_8,41,9999,9999,9999,478017600
375,20,Ticks_Linear_8,42,9999,9999,9999,478757984
375,20,Ticks_Linear_8,43,9999,9999,9999,479497276
375,20,Ticks_Linear_8,44,9999,9999,9999,480237688
375,20,Ticks_Linear_8,45,9999,9999,9999,480967768
375,20,Ticks_Linear_8,46,9999,9999,9999,481697848
375,20,Ticks_Linear_8,47,9999,9999,9999,482428000
375,20,Ticks_Linear_8,48,9999,9999,9999,483158080
375,20,Ticks_Linear_8,49,9999,9999,9999,483897444
375,20,Ticks_Linear_8,50,9999,9999,9999,484617312
375,20,Ticks_Linear_8,51,9999,9999,9999,485337208
375,20,Ticks_Linear_8,52,9999,9999,9999,486058076
375,20,Ticks_Linear_8,53,9999,9999,9999,486777968
375,20,Ticks_Linear_8,54,9999,9999,9999,487497788
375,20,Ticks_Linear_8,55,9999,9999,9999,488207472
375,20,Ticks_Linear_8,56,9999,9999,9999,488918080
375,20,Ticks_Linear_8,57,9999,9999,9999,489637972
375,20,Ticks_Linear_8,58,9999,9999,9999,490347608
375,20,Ticks_Linear_8,59,9999,9999,9999,491057240
375,20,Ticks_Linear_8,60,9999,9999,9999,491757640
375,20,Ticks_Linear_8,61,9999,9999,9999,492458060
375,20,Ticks_Linear_8,62,9999,9999,9999,493157436
375,20,Ticks_Linear_8,63,9999,9999,9999,493857908
375,20,Ticks_Linear_8,64,9999,9999,9999,494557268
375,20,Ticks_Linear_8,65,9999,9999,9999,495247448
375,20,Ticks_Linear_8,66,9999,9999,9999,495937612
375,20,Ticks_Linear_8,67,9999,9999,9999,496627824
375,20,Ticks_Linear_8,68,9999,9999,9999,497317988
375,20,Ticks_Linear_8,69,9999,9999,9999,498007108
375,20,Ticks_Linear_8,70,9999,9999,9999,498688104
375,20,Ticks_Linear_8,71,9999,9999,9999,499377220
375,20,Ticks_Linear_8,72,9999,9999,9999,500057196
375,20,Ticks_Linear_8,73,9999,9999,9999,500737080
375,20,Ticks_Linear_8,74,9999,9999,9999,501418104
375,20,Ticks_Linear_8,75,9999,9999,9999,502087748
375,20,Ticks_Linear_8,76,9999,9999,9999,502757444
375,20,Ticks_Linear_8,77,9999,9999,9999,503427164
375,20,Ticks_Linear_8,78,9999,9999,9999,504097904
375,20,Ticks_Linear_8,79,9999,9999,9999,504767548
375,20,Ticks_Linear_8,80,9999,9999,9999,505428056
375,20,Ticks_Linear_8,81,9999,9999,9999,506087492
375,20,Ticks_Linear_8,82,9999,9999,9999,506747996
375,20,Ticks_Linear_8,83,9999,9999,9999,507407432
375,20,Ticks_Linear_8,84,9999,9999,9999,508067940
375,20,Ticks_Linear_8,85,9999,9999,9999,508717140
375,20,Ticks_Linear_8,86,9999,9999,9999,509367364
375,20,Ticks_Linear_8,87,9999,9999,9999,510017612
375,20,Ticks_Linear_8,88,9999,9999,9999,510667836
375,20,Ticks_Linear_8,89,9999,9999,9999,511318084
375,20,Ticks_Linear_8,90,9999,9999,9999,511958120
375,20,Ticks_Linear_8,91,9999,9999,9999,512598112
375,20,Ticks_Linear_8,92,9999,9999,9999,513238076
375,20,Ticks_Linear_8,93,9999,9999,9999,513878136
375,20,Ticks_Linear_8,94,9999,9999,9999,514518100
375,20,Ticks_Linear_8,95,9999,9999,9999,515158096
375,20,Ticks_Linear_8,96,9999,9999,9999,515798076
375,20,Ticks_Linear_8,97,9999,9999,9999,516438140
375,20,Ticks_Linear_8,98,9999,9999,9999,517078100
375,20,Ticks_Linear_8,99,9999,9999,9999,517718092
375,20,Ticks_Linear_8,100,9999,9999,9999,518347872
375,20,Ticks_Linear_8,101,9999,9999,9999,518967420
375,20,Ticks_Linear_8,102,9999,9999,9999,519587912
375,20,Ticks_Linear_8,103,9999,9999,9999,520207436
375,20,Ticks_Linear_8,104,9999,9999,9999,520828020
375,20,Ticks_Linear_8,105,9999,9999,9999,521437284
375,20,Ticks_Linear_8,106,9999,9999,9999,522047540
375,20,Ticks_Linear_8,107,9999,9999,9999,522657852
375,20,Ticks_Linear_8,108,9999,9999,9999,523267172
375,20,Ticks_Linear_8,109,9999,9999,9999,523877444
375,20,Ticks_Linear_8,110,9999,9999,9999,524477496
375,20,Ticks_Linear_8,111,9999,9999,9999,525077624
375,20,Ticks_Linear_8,112,9999,9999,9999,525677688
375,20,Ticks_Linear_8,113,9999,9999,9999,526277724
375,20,Ticks_Linear_8,114,9999,9999,9999,526877772
375,20,Ticks_Linear_8,115,9999,9999,9999,527467600
375,20,Ticks_Linear_8,116,9999,9999,9999,528057464
375,20,Ticks_Linear_8,117,9999,9999,9999,528647256
375,20,Ticks_Linear_8,118,9999,9999,9999,529238120
375,20,Ticks_Linear_8,119,9999,9999,9999,529837120
375,20,Ticks_Linear_8,120,9999,9999,9999,530417776
375,20,Ticks_Linear_8,121,9999,9999,9999,530997336
375,20,Ticks_Linear_8,122,9999,9999,9999,531577980
375,20,Ticks_Linear_8,123,9999,9999,9999,532157512
375,20,Ticks_Linear_8,124,9999,9999,9999,532737100
375,20,Ticks_Linear_8,125,9999,9999,9999,533307468
375,20,Ticks_Linear_8,126,9999,9999,9999,533877876
375,20,Ticks_Linear_8,127,9999,9999,9999,534447224
375,20,Ticks_Linear_8,128,9999,9999,9999,535017548
375,20,Ticks_Linear_8,129,9999,9999,9999,535587956
375,20,Ticks_Linear_8,130,9999,9999,9999,536148092
375,20,Ticks_Linear_8,131,9999,9999,9999,536707180
375,20,Ticks_Linear_8,132,9999,9999,9999,537267312
375,20,Ticks_Linear_8,133,9999,9999,9999,537827448
375,20,Ticks_Linear_8,134,9999,9999,9999,538387580
375,20,Ticks_Linear_8,135,9999,9999,9999,538937408
375,20,Ticks_Linear_8,136,9999,9999,9999,539487356
375,20,Ticks_Linear_8,137,9999,9999,9999,540037240
375,20,Ticks_Linear_8,138,9999,9999,9999,540587128
375,20,Ticks_Linear_8,139,9999,9999,9999,541137976
375,20,Ticks_Linear_8,140,9999,9999,9999,541677672
375,20,Ticks_Linear_8,141,9999,9999,9999,542217280
375,20,Ticks_Linear_8,142,9999,9999,9999,542757964
375,20,Ticks_Linear_8,143,9999,9999,9999,543297656
375,20,Ticks_Linear_8,144,9999,9999,9999,543837272
375,20,Ticks_Linear_8,145,9999,9999,9999,544367672
375,20,Ticks_Linear_8,146,9999,9999,9999,544897104
375,20,Ticks_Linear_8,147,9999,9999,9999,545427516
375,20,Ticks_Linear_8,148,9999,9999,9999,545957988
375,20,Ticks_Linear_8,149,9999,9999,9999,546487416
375,20,Ticks_Linear_8,150,9999,9999,9999,547007564
375,20,Ticks_Linear_8,151,9999,9999,9999,547527780
375,20,Ticks_Linear_8,152,9999,9999,9999,548047996
375,20,Ticks_Linear_8,153,9999,9999,9999,548567096
375,20,Ticks_Linear_8,154,9999,9999,9999,549087312
375,20,Ticks_Linear_8,155,9999,9999,9999,549597272
375,20,Ticks_Linear_8,156,9999,9999,9999,550107232
375,20,Ticks_Linear_8,157,9999,9999,9999,550617192
375,20,Ticks_Linear_8,158,9999,9999,9999,551127152
375,20,Ticks_Linear_8,159,9999,9999,9999,551638144
375,20,Ticks_Linear_8,160,9999,9999,9999,552148044
375,20,Ticks_Linear_8,161,9999,9999,9999,552647744
375,20,Ticks_Linear_8,162,9999,9999,9999,553147448
375,20,Ticks_Linear_8,163,9999,9999,9999,553647216
375,20,Ticks_Linear_8,164,9999,9999,9999,554147964
375,20,Ticks_Linear_8,165,9999,9999,9999,554637404
375,20,Ticks_Linear_8,166,9999,9999,9999,555127892
375,20,Ticks_Linear_8,167,9999,9999,9999,555617332
375,20,Ticks_Linear_8,168,9999,9999,9999,556107896
375,20,Ticks_Linear_8,169,9999,9999,9999,556597336
376,21,Ticks_Linear_5,0,5,42,127,570866152
376,21,Ticks_Linear_5,1,5,42,127,571346180
376,21,Ticks_Linear_5,2,1,48,37,571766100
376,21,Ticks_Linear_5,3,5,42,127,571825672
376,21,Ticks_Linear_5,4,1,48,23,572204616
376,21,Ticks_Linear_5,5,5,42,127,572305736
376,21,Ticks_Linear_5,6,1,48,24,572705140
376,21,Ticks_Linear_5,7,5,42,127,572786052
376,21,Ticks_Linear_5,8,1,48,26,573160096
376,21,Ticks_Linear_5,9,5,42,127,573275404
376,21,Ticks_Linear_5,10,1,48,30,573659500
376,21,Ticks_Linear_5,11,5,42,127,573766112
376,21,Ticks_Linear_5,12,1,48,29,574148564
376,21,Ticks_Linear_5,13,5,42,127,574255480
376,21,Ticks_Linear_5,14,1,48,25,574640844
376,21,Ticks_Linear_5,15,5,42,127,574746088
376,21,Ticks_Linear_5,16,1,48,24,575117636
376,21,Ticks_Linear_5,17,5,42,127,575235384
376,21,Ticks_Linear_5,18,1,48,41,575647140
376,21,Ticks_Linear_5,19,5,42,127,575736292
376,21,Ticks_Linear_5,20,1,48,38,576104756
376,21,Ticks_Linear_5,21,5,42,127,576235976
376,21,Ticks_Linear_5,22,1,48,28,576652972
376,21,Ticks_Linear_5,23,5,42,127,576735696
376,21,Ticks_Linear_5,24,1,48,27,577106396
376,21,Ticks_Linear_5,25,5,42,127,577236352
376,21,Ticks_Linear_5,26,1,48,39,577646088
376,21,Ticks_Linear_5,27,5,42,127,577736212
376,21,Ticks_Linear_5,28,1,48,23,578139116
376,21,Ticks_Linear_5,29,5,42,127,578245936
376,21,Ticks_Linear_5,30,1,48,34,578667728
376,21,Ticks_Linear_5,31,5,42,127,578755984
376,21,Ticks_Linear_5,32,1,48,20,579119200
376,21,Ticks_Linear_5,33,5,42,127,579266148
376,21,Ticks_Linear_5,34,1,48,25,579648704
376,21,Ticks_Linear_5,35,5,42,127,579775888
376,21,Ticks_Linear_5,36,5,42,127,580286088
376,21,Ticks_Linear_5,37,1,48,26,580681968
376,21,Ticks_Linear_5,38,5,42,127,580806160
376,21,Ticks_Linear_5,39,1,48,21,581160476
376,21,Ticks_Linear_5,40,5,42,127,581326156
376,21,Ticks_Linear_5,41,1,48,33,581720760
376,21,Ticks_Linear_5,42,5,42,127,581846380
376,21,Ticks_Linear_5,43,1,48,36,582311224
376,21,Ticks_Linear_5,44,5,42,127,582365636
376,21,Ticks_Linear_5,45,1,48,36,582804716
376,21,Ticks_Linear_5,46,5,42,127,582885780
376,21,Ticks_Linear_5,47,1,48,32,583344184
376,21,Ticks_Linear_5,48,5,42,127,583416332
376,21,Ticks_Linear_5,49,1,48,27,583846052
376,21,Ticks_Linear_5,50,5,42,127,583945524
376,21,Ticks_Linear_5,51,1,48,27,584374432
376,21,Ticks_Linear_5,52,5,42,127,584476076
376,21,Ticks_Linear_5,53,1,48,19,584921748
376,21,Ticks_Linear_5,54,5,42,127,585005692
376,21,Ticks_Linear_5,55,1,48,22,585483916
376,21,Ticks_Linear_5,56,5,42,127,585535800
376,21,Ticks_Linear_5,57,1,48,22,585976496
376,21,Ticks_Linear_5,58,5,42,127,586075992
376,21,Ticks_Linear_5,59,1,48,18,586507796
376,21,Ticks_Linear_5,60,5,42,127,586616060
376,21,Ticks_Linear_5,61,1,48,19,587059492
376,21,Ticks_Linear_5,62,5,42,127,587155688
376,21,Ticks_Linear_5,63,1,48,21,587621644
376,21,Ticks_Linear_5,64,5,42,127,587695600
376,21,Ticks_Linear_5,65,1,48,25,588174968
376,21,Ticks_Linear_5,66,5,42,127,588236116
376,21,Ticks_Linear_5,67,1,48,24,588717876
376,21,Ticks_Linear_5,68,5,42,127,588785988
376,21,Ticks_Linear_5,69,1,48,21,589226636
376,21,Ticks_Linear_5,70,5,42,127,589335920
376,21,Ticks_Linear_5,71,1,48,24,589759208
376,21,Ticks_Linear_5,72,5,42,127,589885748
376,21,Ticks_Linear_5,73,1,48,28,590283464
376,21,Ticks_Linear_5,74,5,42,127,590435772
376,21,Ticks_Linear_5,75,1,48,37,590859108
376,21,Ticks_Linear_5,76,5,42,127,590985720
376,21,Ticks_Linear_5,77,1,48,38,591443228
376,21,Ticks_Linear_5,78,5,42,127,591545704
376,21,Ticks_Linear_5,79,1,48,33,591965700
376,21,Ticks_Linear_5,80,5,42,127,592105836
376,21,Ticks_Linear_5,81,1,48,32,592593372
376,21,Ticks_Linear_5,82,5,42,127,592666060
376,21,Ticks_Linear_5,83,1,48,38,593074288
376,21,Ticks_Linear_5,84,5,42,127,593225980
376,21,Ticks_Linear_5,85,1,48,25,593615472
376,21,Ticks_Linear_5,86,5,42,127,593786336
376,21,Ticks_Linear_5,87,1,48,22,594220040
376,21,Ticks_Linear_5,88,5,42,127,594355536
376,21,Ticks_Linear_5,89,5,42,127,594925800
376,21,Ticks_Linear_5,90,1,48,35,595363680
376,21,Ticks_Linear_5,91,5,42,127,595496512
376,21,Ticks_Linear_5,92,1,48,20,596007352
376,21,Ticks_Linear_5,93,5,42,127,596065800
376,21,Ticks_Linear_5,94,1,48,17,596546892
376,21,Ticks_Linear_5,95,5,42,127,596635972
376,21,Ticks_Linear_5,96,1,48,22,597088752
376,21,Ticks_Linear_5,97,5,42,127,597215560
376,21,Ticks_Linear_5,98,1,48,31,597648360
376,21,Ticks_Linear_5,99,5,42,127,597796312
376,21,Ticks_Linear_5,100,1,48,32,598227368
376,21,Ticks_Linear_5,101,5,42,127,598375844
376,21,Ticks_Linear_5,102,1,48,38,598802020
376,21,Ticks_Linear_5,103,5,42,127,598956348
376,21,Ticks_Linear_5,104,1,48,35,599317376
376,21,Ticks_Linear_5,105,5,42,127,599536248
376,21,Ticks_Linear_5,106,1,48,37,599859340
376,21,Ticks_Linear_5,107,5,42,127,600125764
376,21,Ticks_Linear_5,108,1,48,37,600628656
376,21,Ticks_Linear_5,109,5,42,127,600715568
376,21,Ticks_Linear_5,110,1,48,30,601279252
376,21,Ticks_Linear_5,111,5,42,127,601305432
376,21,Ticks_Linear_5,112,1,48,25,601881024
376,21,Ticks_Linear_5,113,5,42,127,601896292
376,21,Ticks_Linear_5,114,1,48,22,602448520
376,21,Ticks_Linear_5,115,5,42,127,602486080
376,21,Ticks_Linear_5,116,1,48,25,603007384
376,21,Ticks_Linear_5,117,5,42,127,603086276
376,21,Ticks_Linear_5,118,1,48,22,603603304
376,21,Ticks_Linear_5,119,5,42,127,603686200
376,21,Ticks_Linear_5,120,1,48,32,604185840
376,21,Ticks_Linear_5,121,5,42,127,604286384
376,21,Ticks_Linear_5,122,1,48,26,604792712
376,21,Ticks_Linear_5,123,5,42,127,604887184
376,21,Ticks_Linear_5,124,1,48,28,605348216
376,21,Ticks_Linear_5,125,5,42,127,605485312
376,21,Ticks_Linear_5,126,1,48,29,605966836
376,21,Ticks_Linear_5,127,5,42,127,606095840
376,21,Ticks_Linear_5,128,1,48,32,606575296
376,21,Ticks_Linear_5,129,5,42,127,606706148
376,21,Ticks_Linear_5,130,1,48,21,607089224
376,21,Ticks_Linear_5,131,5,42,127,607316260
376,21,Ticks_Linear_5,132,1,48,29,607743484
376,21,Ticks_Linear_5,133,5,42,127,607925596
376,21,Ticks_Linear_5,134,1,48,26,608457776
376,21,Ticks_Linear_5,135,5,42,127,608535920
376,21,Ticks_Linear_5,136,5,42,127,609155396
376,21,Ticks_Linear_5,137,1,48,23,609218576
376,21,Ticks_Linear_5,138,5,42,127,609775888
376,21,Ticks_Linear_5,139,1,48,29,609814660
376,21,Ticks_Linear_5,140,1,48,23,610343852
376,21,Ticks_Linear_5,141,5,42,127,610395648
376,21,Ticks_Linear_5,142,1,48,30,610920916
376,21,Ticks_Linear_5,143,5,42,127,611015992
376,21,Ticks_Linear_5,144,1,48,36,611505916
376,21,Ticks_Linear_5,145,5,42,127,611635672
376,21,Ticks_Linear_5,146,1,48,33,612144108
376,21,Ticks_Linear_5,147,5,42,127,612266272
376,21,Ticks_Linear_5,148,1,48,22,612833576
376,21,Ticks_Linear_5,149,5,42,127,612896016
376,21,Ticks_Linear_5,150,1,48,30,613443912
376,21,Ticks_Linear_5,151,5,42,127,613525796
376,21,Ticks_Linear_5,152,1,48,31,614057212
376,21,Ticks_Linear_5,153,5,42,127,614155724
376,21,Ticks_Linear_5,154,1,48,29,614678896
376,21,Ticks_Linear_5,155,5,42,127,614786712
376,21,Ticks_Linear_5,156,1,48,29,615358128
376,21,Ticks_Linear_5,157,5,42,127,615426616
376,21,Ticks_Linear_5,158,1,48,32,616006732
376,21,Ticks_Linear_5,159,5,42,127,616066676
376,21,Ticks_Linear_5,160,5,42,127,616706648
376,21,Ticks_Linear_5,161,1,48,26,616728940
376,21,Ticks_Linear_5,162,1,48,28,617322316
376,21,Ticks_Linear_5,163,5,42,127,617346704
376,21,Ticks_Linear_5,164,1,48,28,617940048
376,21,Ticks_Linear_5,165,5,42,127,617986668
376,21,Ticks_Linear_5,166,1,48,33,618604304
376,21,Ticks_Linear_5,167,5,42,127,618645904
376,21,Ticks_Linear_5,168,1,48,27,619257896
376,21,Ticks_Linear_5,169,5,42,127,619296000
376,21,Ticks_Linear_5,170,1,48,30,619899452
376,21,Ticks_Linear_5,171,5,42,127,619946448
376,21,Ticks_Linear_5,172,1,48,21,620538896
376,21,Ticks_Linear_5,173,5,42,127,620595500
376,21,Ticks_Linear_5,174,1,48,21,621207040
376,21,Ticks_Linear_5,175,5,42,127,621245872
376,21,Ticks_Linear_5,176,1,48,22,621861404
376,21,Ticks_Linear_5,177,5,42,127,621906380
376,21,Ticks_Linear_5,178,1,48,21,622480024
376,21,Ticks_Linear_5,179,5,42,127,622565664
376,21,Ticks_Linear_5,180,1,48,23,623125160
376,21,Ticks_Linear_5,181,5,42,127,623226380
376,21,Ticks_Linear_5,182,1,48,27,623824608
376,21,Ticks_Linear_5,183,5,42,127,623885608
376,21,Ticks_Linear_5,184,5,42,127,624546344
376,21,Ticks_Linear_5,185,1,48,29,624551928
376,21,Ticks_Linear_5,186,5,42,127,625215840
376,21,Ticks_Linear_5,187,1,48,27,625229072
376,21,Ticks_Linear_5,188,1,48,27,625829692
376,21,Ticks_Linear_5,189,5,42,127,625885604
376,21,Ticks_Linear_5,190,1,48,18,626501060
376,21,Ticks_Linear_5,191,5,42,127,626556144
376,21,Ticks_Linear_5,192,1,48,22,627132856
376,21,Ticks_Linear_5,193,5,42,127,627226124
376,21,Ticks_Linear_5,194,1,48,18,627787908
376,21,Ticks_Linear_5,195,5,42,127,627895544
376,21,Ticks_Linear_5,196,1,48,19,628426220
376,21,Ticks_Linear_5,197,5,42,127,628575672
376,21,Ticks_Linear_5,198,1,48,21,629215240
376,21,Ticks_Linear_5,199,5,42,127,629255416
376,21,Ticks_Linear_5,200,1,48,24,629929732
376,21,Ticks_Linear_5,201,5,42,127,629935468
376,21,Ticks_Linear_5,202,1,48,30,630566876
376,21,Ticks_Linear_5,203,5,42,127,630616492
376,21,Ticks_Linear_5,204,1,48,27,631235076
376,21,Ticks_Linear_5,205,5,42,127,631305508
376,21,Ticks_Linear_5,206,1,48,21,631931300
376,21,Ticks_Linear_5,207,5,42,127,631995896
376,21,Ticks_Linear_5,208,1,48,20,632631044
376,21,Ticks_Linear_5,209,5,42,127,632685908
376,21,Ticks_Linear_5,210,1,48,24,633304716
376,21,Ticks_Linear_5,211,5,42,127,633376220
376,21,Ticks_Linear_5,212,1,48,18,633968216
376,21,Ticks_Linear_5,213,5,42,127,634066268
376,21,Ticks_Linear_5,214,1,48,32,634724436
376,21,Ticks_Linear_5,215,5,42,127,634755400
376,21,Ticks_Linear_5,216,1,48,32,635391424
376,21,Ticks_Linear_5,217,5,42,127,635455820
376,21,Ticks_Linear_5,218,1,48,37,636069984
376,21,Ticks_Linear_5,219,5,42,127,636156368
376,21,Ticks_Linear_5,220,1,48,35,636759248
376,21,Ticks_Linear_5,221,5,42,127,636857148
376,21,Ticks_Linear_5,222,1,48,31,637528640
376,21,Ticks_Linear_5,223,5,42,127,637555940
376,21,Ticks_Linear_5,224,1,48,30,638226344
376,21,Ticks_Linear_5,225,5,42,127,638255616
376,21,Ticks_Linear_5,226,1,48,37,638868356
376,21,Ticks_Linear_5,227,5,42,127,638966108
376,21,Ticks_Linear_5,228,5,42,127,639675764
376,21,Ticks_Linear_5,229,1,48,50,639677484
376,21,Ticks_Linear_5,230,5,42,127,640386372
376,21,Ticks_Linear_5,231,1,48,27,640413668
376,21,Ticks_Linear_5,232,1,48,28,641045084
376,21,Ticks_Linear_5,233,5,42,127,641106256
376,21,Ticks_Linear_5,234,1,48,29,641761380
376,21,Ticks_Linear_5,235,5,42,127,641815940
376,21,Ticks_Linear_5,236,1,48,24,642480376
376,21,Ticks_Linear_5,237,5,42,127,642535688
376,21,Ticks_Linear_5,238,1,48,38,643233216
376,21,Ticks_Linear_5,239,5,42,127,643255656
376,21,Ticks_Linear_5,240,1,48,21,643968096
376,21,Ticks_Linear_5,241,5,42,127,643975548
376,21,Ticks_Linear_5,242,1,48,20,644662744
376,21,Ticks_Linear_5,243,5,42,127,644696416
376,21,Ticks_Linear_5,244,1,48,20,645392344
376,21,Ticks_Linear_5,245,5,42,127,645425596
376,21,Ticks_Linear_5,246,1,48,19,646089476
376,21,Ticks_Linear_5,247,5,42,127,646155720
376,21,Ticks_Linear_5,248,1,48,18,646822248
376,21,Ticks_Linear_5,249,5,42,127,646885724
376,21,Ticks_Linear_5,250,5,42,127,647615884
376,21,Ticks_Linear_5,251,1,48,21,647621172
376,21,Ticks_Linear_5,252,1,48,27,648303068
376,21,Ticks_Linear_5,253,5,42,127,648345880
376,21,Ticks_Linear_5,254,1,48,24,649007400
376,21,Ticks_Linear_5,255,5,42,127,649076180
376,21,Ticks_Linear_5,256,1,48,18,649803588
376,21,Ticks_Linear_5,257,5,42,127,649816448
376,21,Ticks_Linear_5,258,1,48,19,650462432
376,21,Ticks_Linear_5,259,5,42,127,650566276
376,21,Ticks_Linear_5,260,1,48,27,651291760
376,21,Ticks_Linear_5,261,5,42,127,651306328
376,21,Ticks_Linear_5,262,1,48,18,651990656
376,21,Ticks_Linear_5,263,5,42,127,652045668
376,21,Ticks_Linear_5,264,1,48,29,652780872
376,21,Ticks_Linear_5,265,5,42,127,652786304
376,21,Ticks_Linear_5,266,5,42,127,653535564
376,21,Ticks_Linear_5,267,1,48,21,654250336
376,21,Ticks_Linear_5,268,5,42,127,654286248
376,21,Ticks_Linear_5,269,1,48,13,654987232
376,21,Ticks_Linear_5,270,5,42,127,655035872
376,21,Ticks_Linear_5,271,1,48,18,655733552
376,21,Ticks_Linear_5,272,5,42,127,655786396
376,21,Ticks_Linear_5,273,1,48,16,656509616
376,21,Ticks_Linear_5,274,5,42,127,656536168
376,21,Ticks_Linear_5,275,5,42,127,657295836
376,21,Ticks_Linear_5,276,1,48,17,657988516
376,21,Ticks_Linear_5,277,5,42,127,658055512
376,21,Ticks_Linear_5,278,1,48,21,658751992
376,21,Ticks_Linear_5,279,5,42,127,658816368
376,21,Ticks_Linear_5,280,1,48,22,659536220
376,21,Ticks_Linear_5,281,5,42,127,659576172
376,21,Ticks_Linear_5,282,1,48,26,660291604
376,21,Ticks_Linear_5,283,5,42,127,660335980
376,21,Ticks_Linear_5,284,1,48,28,661036372
376,21,Ticks_Linear_5,285,5,42,127,661106124
376,21,Ticks_Linear_5,286,1,48,20,661854516
376,21,Ticks_Linear_5,287,5,42,127,661876044
376,21,Ticks_Linear_5,288,5,42,127,662646192
376,21,Ticks_Linear_5,289,1,48,21,662647160
376,21,Ticks_Linear_5,290,1,48,19,663390824
376,21,Ticks_Linear_5,291,5,42,127,663416104
376,21,Ticks_Linear_5,292,1,48,17,664151160
376,21,Ticks_Linear_5,293,5,42,127,664186100
376,21,Ticks_Linear_5,294,1,48,17,664937780
376,21,Ticks_Linear_5,295,5,42,127,664965676
376,21,Ticks_Linear_5,296,1,48,21,665696840
376,21,Ticks_Linear_5,297,5,42,127,665745852
376,21,Ticks_Linear_5,298,1,48,19,666498656
376,21,Ticks_Linear_5,299,5,42,127,666525956
376,21,Ticks_Linear_5,300,1,48,27,667282124
376,21,Ticks_Linear_5,301,5,42,127,667306656
376,21,Ticks_Linear_5,302,1,48,18,668043128
376,21,Ticks_Linear_5,303,5,42,127,668085564
376,21,Ticks_Linear_5,304,1,48,18,668773280
376,21,Ticks_Linear_5,305,5,42,127,668876360
376,21,Ticks_Linear_5,306,1,48,23,669605072
376,21,Ticks_Linear_5,307,5,42,127,669665544
376,21,Ticks_Linear_5,308,1,48,20,670324292
376,21,Ticks_Linear_5,309,5,42,127,670456116
376,21,Ticks_Linear_5,310,1,48,26,671225780
376,21,Ticks_Linear_5,311,5,42,127,671245668
376,21,Ticks_Linear_5,312,1,48,14,672031516
376,21,Ticks_Linear_5,313,5,42,127,672036504
376,21,Ticks_Linear_5,314,1,48,16,672778872
376,21,Ticks_Linear_5,315,5,42,127,672835928
376,21,Ticks_Linear_5,316,5,42,127,673635584
376,21,Ticks_Linear_5,317,1,48,20,674403688
376,21,Ticks_Linear_5,318,5,42,127,674435620
376,21,Ticks_Linear_5,319,1,48,16,675203856
376,21,Ticks_Linear_5,320,5,42,127,675236392
376,21,Ticks_Linear_5,321,1,48,18,675979232
376,21,Ticks_Linear_5,322,5,42,127,676035820
376,21,Ticks_Linear_5,323,1,48,14,676773040
376,21,Ticks_Linear_5,324,5,42,127,676845876
376,21,Ticks_Linear_5,325,1,48,21,677560108
376,21,Ticks_Linear_5,326,5,42,127,677656512
376,21,Ticks_Linear_5,327,1,48,19,678420192
376,21,Ticks_Linear_5,328,5,42,127,678465940
376,21,Ticks_Linear_5,329,1,48,25,679226832
376,21,Ticks_Linear_5,330,5,42,127,679276144
376,21,Ticks_Linear_5,331,1,48,24,679987316
376,21,Ticks_Linear_5,332,5,42,127,680086040
376,21,Ticks_Linear_5,0,9999,9999,9999,570863708
376,21,Ticks_Linear_5,1,9999,9999,9999,571343956
376,21,Ticks_Linear_5,2,9999,9999,9999,571823224
376,21,Ticks_Linear_5,3,9999,9999,9999,572303436
376,21,Ticks_Linear_5,4,9999,9999,9999,572783680
376,21,Ticks_Linear_5,5,9999,9999,9999,573273180
376,21,Ticks_Linear_5,6,9999,9999,9999,573763668
376,21,Ticks_Linear_5,7,9999,9999,9999,574253180
376,21,Ticks_Linear_5,8,9999,9999,9999,574743644
376,21,Ticks_Linear_5,9,9999,9999,9999,575233084
376,21,Ticks_Linear_5,10,9999,9999,9999,575733848
376,21,Ticks_Linear_5,11,9999,9999,9999,576233532
376,21,Ticks_Linear_5,12,9999,9999,9999,576733248
376,21,Ticks_Linear_5,13,9999,9999,9999,577233980
376,21,Ticks_Linear_5,14,9999,9999,9999,577733692
376,21,Ticks_Linear_5,15,9999,9999,9999,578243712
376,21,Ticks_Linear_5,16,9999,9999,9999,578753608
376,21,Ticks_Linear_5,17,9999,9999,9999,579263552
376,21,Ticks_Linear_5,18,9999,9999,9999,579773512
376,21,Ticks_Linear_5,19,9999,9999,9999,580283492
376,21,Ticks_Linear_5,20,9999,9999,9999,580803636
376,21,Ticks_Linear_5,21,9999,9999,9999,581323860
376,21,Ticks_Linear_5,22,9999,9999,9999,581844076
376,21,Ticks_Linear_5,23,9999,9999,9999,582363188
376,21,Ticks_Linear_5,24,9999,9999,9999,582883408
376,21,Ticks_Linear_5,25,9999,9999,9999,583413884
376,21,Ticks_Linear_5,26,9999,9999,9999,583943224
376,21,Ticks_Linear_5,27,9999,9999,9999,584473700
376,21,Ticks_Linear_5,28,9999,9999,9999,585003096
376,21,Ticks_Linear_5,29,9999,9999,9999,585533500
376,21,Ticks_Linear_5,30,9999,9999,9999,586073188
376,21,Ticks_Linear_5,31,9999,9999,9999,586613836
376,21,Ticks_Linear_5,32,9999,9999,9999,587153464
376,21,Ticks_Linear_5,33,9999,9999,9999,587693156
376,21,Ticks_Linear_5,34,9999,9999,9999,588233816
376,21,Ticks_Linear_5,35,9999,9999,9999,588783692
376,21,Ticks_Linear_5,36,9999,9999,9999,589333624
376,21,Ticks_Linear_5,37,9999,9999,9999,589883448
376,21,Ticks_Linear_5,38,9999,9999,9999,590433396
376,21,Ticks_Linear_5,39,9999,9999,9999,590983272
376,21,Ticks_Linear_5,40,9999,9999,9999,591543404
376,21,Ticks_Linear_5,41,9999,9999,9999,592103540
376,21,Ticks_Linear_5,42,9999,9999,9999,592663612
376,21,Ticks_Linear_5,43,9999,9999,9999,593223756
376,21,Ticks_Linear_5,44,9999,9999,9999,593783888
376,21,Ticks_Linear_5,45,9999,9999,9999,594353236
376,21,Ticks_Linear_5,46,9999,9999,9999,594923576
376,21,Ticks_Linear_5,47,9999,9999,9999,595493992
376,21,Ticks_Linear_5,48,9999,9999,9999,596063356
376,21,Ticks_Linear_5,49,9999,9999,9999,596633672
376,21,Ticks_Linear_5,50,9999,9999,9999,597213260
376,21,Ticks_Linear_5,51,9999,9999,9999,597793864
376,21,Ticks_Linear_5,52,9999,9999,9999,598373472
376,21,Ticks_Linear_5,53,9999,9999,9999,598954048
376,21,Ticks_Linear_5,54,9999,9999,9999,599533652
376,21,Ticks_Linear_5,55,9999,9999,9999,600123464
376,21,Ticks_Linear_5,56,9999,9999,9999,600713268
376,21,Ticks_Linear_5,57,9999,9999,9999,601303132
376,21,Ticks_Linear_5,58,9999,9999,9999,601893992
376,21,Ticks_Linear_5,59,9999,9999,9999,602483784
376,21,Ticks_Linear_5,60,9999,9999,9999,603083832
376,21,Ticks_Linear_5,61,9999,9999,9999,603683904
376,21,Ticks_Linear_5,62,9999,9999,9999,604284024
376,21,Ticks_Linear_5,63,9999,9999,9999,604884076
376,21,Ticks_Linear_5,64,9999,9999,9999,605483084
376,21,Ticks_Linear_5,65,9999,9999,9999,606093392
376,21,Ticks_Linear_5,66,9999,9999,9999,606703700
376,21,Ticks_Linear_5,67,9999,9999,9999,607314036
376,21,Ticks_Linear_5,68,9999,9999,9999,607923296
376,21,Ticks_Linear_5,69,9999,9999,9999,608533620
376,21,Ticks_Linear_5,70,9999,9999,9999,609153096
376,21,Ticks_Linear_5,71,9999,9999,9999,609773660
376,21,Ticks_Linear_5,72,9999,9999,9999,610393200
376,21,Ticks_Linear_5,73,9999,9999,9999,611013692
376,21,Ticks_Linear_5,74,9999,9999,9999,611633224
376,21,Ticks_Linear_5,75,9999,9999,9999,612264048
376,21,Ticks_Linear_5,76,9999,9999,9999,612893792
376,21,Ticks_Linear_5,77,9999,9999,9999,613523572
376,21,Ticks_Linear_5,78,9999,9999,9999,614153276
376,21,Ticks_Linear_5,79,9999,9999,9999,614784112
376,21,Ticks_Linear_5,80,9999,9999,9999,615424092
376,21,Ticks_Linear_5,81,9999,9999,9999,616064080
376,21,Ticks_Linear_5,82,9999,9999,9999,616704124
376,21,Ticks_Linear_5,83,9999,9999,9999,617344108
376,21,Ticks_Linear_5,84,9999,9999,9999,617984072
376,21,Ticks_Linear_5,85,9999,9999,9999,618643532
376,21,Ticks_Linear_5,86,9999,9999,9999,619293776
376,21,Ticks_Linear_5,87,9999,9999,9999,619944000
376,21,Ticks_Linear_5,88,9999,9999,9999,620593276
376,21,Ticks_Linear_5,89,9999,9999,9999,621243500
376,21,Ticks_Linear_5,90,9999,9999,9999,621903932
376,21,Ticks_Linear_5,91,9999,9999,9999,622563444
376,21,Ticks_Linear_5,92,9999,9999,9999,623223932
376,21,Ticks_Linear_5,93,9999,9999,9999,623883384
376,21,Ticks_Linear_5,94,9999,9999,9999,624543820
376,21,Ticks_Linear_5,95,9999,9999,9999,625213540
376,21,Ticks_Linear_5,96,9999,9999,9999,625883232
376,21,Ticks_Linear_5,97,9999,9999,9999,626553920
376,21,Ticks_Linear_5,98,9999,9999,9999,627223616
376,21,Ticks_Linear_5,99,9999,9999,9999,627893320
376,21,Ticks_Linear_5,100,9999,9999,9999,628573300
376,21,Ticks_Linear_5,101,9999,9999,9999,629253192
376,21,Ticks_Linear_5,102,9999,9999,9999,629933168
376,21,Ticks_Linear_5,103,9999,9999,9999,630614120
376,21,Ticks_Linear_5,104,9999,9999,9999,631303284
376,21,Ticks_Linear_5,105,9999,9999,9999,631993448
376,21,Ticks_Linear_5,106,9999,9999,9999,632683612
376,21,Ticks_Linear_5,107,9999,9999,9999,633373772
376,21,Ticks_Linear_5,108,9999,9999,9999,634063972
376,21,Ticks_Linear_5,109,9999,9999,9999,634753100
376,21,Ticks_Linear_5,110,9999,9999,9999,635453524
376,21,Ticks_Linear_5,111,9999,9999,9999,636153920
376,21,Ticks_Linear_5,112,9999,9999,9999,636853372
376,21,Ticks_Linear_5,113,9999,9999,9999,637553720
376,21,Ticks_Linear_5,114,9999,9999,9999,638253168
376,21,Ticks_Linear_5,115,9999,9999,9999,638963812
376,21,Ticks_Linear_5,116,9999,9999,9999,639673468
376,21,Ticks_Linear_5,117,9999,9999,9999,640384072
376,21,Ticks_Linear_5,118,9999,9999,9999,641103956
376,21,Ticks_Linear_5,119,9999,9999,9999,641813568
376,21,Ticks_Linear_5,120,9999,9999,9999,642533464
376,21,Ticks_Linear_5,121,9999,9999,9999,643253356
376,21,Ticks_Linear_5,122,9999,9999,9999,643973176
376,21,Ticks_Linear_5,123,9999,9999,9999,644694116
376,21,Ticks_Linear_5,124,9999,9999,9999,645423220
376,21,Ticks_Linear_5,125,9999,9999,9999,646153276
376,21,Ticks_Linear_5,126,9999,9999,9999,646883428
376,21,Ticks_Linear_5,127,9999,9999,9999,647613508
376,21,Ticks_Linear_5,128,9999,9999,9999,648343656
376,21,Ticks_Linear_5,129,9999,9999,9999,649073736
376,21,Ticks_Linear_5,130,9999,9999,9999,649814072
376,21,Ticks_Linear_5,131,9999,9999,9999,650563680
376,21,Ticks_Linear_5,132,9999,9999,9999,651304032
376,21,Ticks_Linear_5,133,9999,9999,9999,652043372
376,21,Ticks_Linear_5,134,9999,9999,9999,652783708
376,21,Ticks_Linear_5,135,9999,9999,9999,653533264
376,21,Ticks_Linear_5,136,9999,9999,9999,654283876
376,21,Ticks_Linear_5,137,9999,9999,9999,655033428
376,21,Ticks_Linear_5,138,9999,9999,9999,655784024
376,21,Ticks_Linear_5,139,9999,9999,9999,656533572
376,21,Ticks_Linear_5,140,9999,9999,9999,657293388
376,21,Ticks_Linear_5,141,9999,9999,9999,658053212
376,21,Ticks_Linear_5,142,9999,9999,9999,658814068
376,21,Ticks_Linear_5,143,9999,9999,9999,659573876
376,21,Ticks_Linear_5,144,9999,9999,9999,660333684
376,21,Ticks_Linear_5,145,9999,9999,9999,661103680
376,21,Ticks_Linear_5,146,9999,9999,9999,661873744
376,21,Ticks_Linear_5,147,9999,9999,9999,662643820
376,21,Ticks_Linear_5,148,9999,9999,9999,663413880
376,21,Ticks_Linear_5,149,9999,9999,9999,664183872
376,21,Ticks_Linear_5,150,9999,9999,9999,664963156
376,21,Ticks_Linear_5,151,9999,9999,9999,665743480
376,21,Ticks_Linear_5,152,9999,9999,9999,666523732
376,21,Ticks_Linear_5,153,9999,9999,9999,667304060
376,21,Ticks_Linear_5,154,9999,9999,9999,668083268
376,21,Ticks_Linear_5,155,9999,9999,9999,668873840
376,21,Ticks_Linear_5,156,9999,9999,9999,669663320
376,21,Ticks_Linear_5,157,9999,9999,9999,670453816
376,21,Ticks_Linear_5,158,9999,9999,9999,671243372
376,21,Ticks_Linear_5,159,9999,9999,9999,672033908
376,21,Ticks_Linear_5,160,9999,9999,9999,672833632
376,21,Ticks_Linear_5,161,9999,9999,9999,673633360
376,21,Ticks_Linear_5,162,9999,9999,9999,674433100
376,21,Ticks_Linear_5,163,9999,9999,9999,675233868
376,21,Ticks_Linear_5,164,9999,9999,9999,676033596
376,21,Ticks_Linear_5,165,9999,9999,9999,676843576
376,21,Ticks_Linear_5,166,9999,9999,9999,677653560
376,21,Ticks_Linear_5,167,9999,9999,9999,678463568
376,21,Ticks_Linear_5,168,9999,9999,9999,679273548
376,21,Ticks_Linear_5,169,9999,9999,9999,680083516
377,22,Ticks_Phase_8,0,5,42,127,694446596
377,22,Ticks_Phase_8,1,5,42,127,695247152
377,22,Ticks_Phase_8,2,1,48,40,695381048
377,22,Ticks_Phase_8,3,1,48,25,695972984
377,22,Ticks_Phase_8,4,5,42,127,696046932
377,22,Ticks_Phase_8,5,1,48,15,696740720
377,22,Ticks_Phase_8,6,5,42,127,696846632
377,22,Ticks_Phase_8,7,1,48,23,697584088
377,22,Ticks_Phase_8,8,5,42,127,697646532
377,22,Ticks_Phase_8,9,1,48,22,698385308
377,22,Ticks_Phase_8,10,5,42,127,698447440
377,22,Ticks_Phase_8,11,1,48,21,699210124
377,22,Ticks_Phase_8,12,5,42,127,699246852
377,22,Ticks_Phase_8,13,1,48,21,699952992
377,22,Ticks_Phase_8,14,5,42,127,700046624
377,22,Ticks_Phase_8,15,1,48,20,700770156
377,22,Ticks_Phase_8,16,5,42,127,700846504
377,22,Ticks_Phase_8,17,1,48,19,701573908
377,22,Ticks_Phase_8,18,5,42,127,701647408
377,22,Ticks_Phase_8,19,1,48,16,702426280
377,22,Ticks_Phase_8,20,5,42,127,702446824
377,22,Ticks_Phase_8,21,1,48,16,703243196
377,22,Ticks_Phase_8,22,5,42,127,703246756
377,22,Ticks_Phase_8,23,1,48,16,704004508
377,22,Ticks_Phase_8,24,5,42,127,704046568
377,22,Ticks_Phase_8,25,1,48,21,704770512
377,22,Ticks_Phase_8,26,5,42,127,704847180
377,22,Ticks_Phase_8,27,1,48,21,705611732
377,22,Ticks_Phase_8,28,5,42,127,705647040
377,22,Ticks_Phase_8,29,1,48,20,706390256
377,22,Ticks_Phase_8,30,5,42,127,706446824
377,22,Ticks_Phase_8,31,1,48,22,707156792
377,22,Ticks_Phase_8,32,5,42,127,707246464
377,22,Ticks_Phase_8,33,1,48,33,707995520
377,22,Ticks_Phase_8,34,5,42,127,708047296
377,22,Ticks_Phase_8,35,1,48,20,708793432
377,22,Ticks_Phase_8,36,5,42,127,708847160
377,22,Ticks_Phase_8,37,1,48,22,709583032
377,22,Ticks_Phase_8,38,5,42,127,709646872
377,22,Ticks_Phase_8,39,1,48,19,710409784
377,22,Ticks_Phase_8,40,5,42,127,710446460
377,22,Ticks_Phase_8,41,5,42,127,711247148
377,22,Ticks_Phase_8,42,1,48,14,712047404
377,22,Ticks_Phase_8,43,5,42,127,712048820
377,22,Ticks_Phase_8,44,1,48,13,712830232
377,22,Ticks_Phase_8,45,5,42,127,712846812
377,22,Ticks_Phase_8,46,1,48,19,713546368
377,22,Ticks_Phase_8,47,5,42,127,713646508
377,22,Ticks_Phase_8,48,5,42,127,714447140
377,22,Ticks_Phase_8,49,1,48,23,715198084
377,22,Ticks_Phase_8,50,5,42,127,715247016
377,22,Ticks_Phase_8,51,1,48,18,715991800
377,22,Ticks_Phase_8,52,5,42,127,716046800
377,22,Ticks_Phase_8,53,1,48,16,716760660
377,22,Ticks_Phase_8,54,5,42,127,716846464
377,22,Ticks_Phase_8,55,1,48,20,717501956
377,22,Ticks_Phase_8,56,5,42,127,717647132
377,22,Ticks_Phase_8,57,1,48,19,718368052
377,22,Ticks_Phase_8,58,5,42,127,718426568
377,22,Ticks_Phase_8,59,1,48,20,719170680
377,22,Ticks_Phase_8,60,5,42,127,719227324
377,22,Ticks_Phase_8,61,1,48,19,719943128
377,22,Ticks_Phase_8,62,5,42,127,720026888
377,22,Ticks_Phase_8,63,1,48,19,720787032
377,22,Ticks_Phase_8,64,5,42,127,720826824
377,22,Ticks_Phase_8,65,1,48,20,721561496
377,22,Ticks_Phase_8,66,5,42,127,721626608
377,22,Ticks_Phase_8,67,1,48,19,722367804
377,22,Ticks_Phase_8,68,5,42,127,722427368
377,22,Ticks_Phase_8,69,1,48,21,723165044
377,22,Ticks_Phase_8,70,5,42,127,723226952
377,22,Ticks_Phase_8,71,1,48,27,723983240
377,22,Ticks_Phase_8,72,5,42,127,724026888
377,22,Ticks_Phase_8,73,5,42,127,724826608
377,22,Ticks_Phase_8,74,1,48,18,724827872
377,22,Ticks_Phase_8,75,1,48,17,725561128
377,22,Ticks_Phase_8,76,5,42,127,725627360
377,22,Ticks_Phase_8,77,1,48,21,726365716
377,22,Ticks_Phase_8,78,5,42,127,726427000
377,22,Ticks_Phase_8,79,1,48,24,727224352
377,22,Ticks_Phase_8,80,5,42,127,727226784
377,22,Ticks_Phase_8,81,1,48,25,728006700
377,22,Ticks_Phase_8,82,5,42,127,728026500
377,22,Ticks_Phase_8,83,1,48,20,728771504
377,22,Ticks_Phase_8,84,5,42,127,728827480
377,22,Ticks_Phase_8,85,1,48,27,729588296
377,22,Ticks_Phase_8,86,5,42,127,729626920
377,22,Ticks_Phase_8,87,5,42,127,730426712
377,22,Ticks_Phase_8,88,1,48,20,730451620
377,22,Ticks_Phase_8,89,1,48,33,731189468
377,22,Ticks_Phase_8,90,5,42,127,731226492
377,22,Ticks_Phase_8,91,1,48,29,731926276
377,22,Ticks_Phase_8,92,5,42,127,732027388
377,22,Ticks_Phase_8,93,1,48,30,732739840
377,22,Ticks_Phase_8,94,5,42,127,732846424
377,22,Ticks_Phase_8,95,1,48,26,733624704
377,22,Ticks_Phase_8,96,5,42,127,733647344
377,22,Ticks_Phase_8,97,1,48,27,734423060
377,22,Ticks_Phase_8,98,5,42,127,734447056
377,22,Ticks_Phase_8,99,1,48,17,735222172
377,22,Ticks_Phase_8,100,5,42,127,735246768
377,22,Ticks_Phase_8,101,1,48,19,735991180
377,22,Ticks_Phase_8,102,5,42,127,736046356
377,22,Ticks_Phase_8,103,1,48,25,736742516
377,22,Ticks_Phase_8,104,5,42,127,736847248
377,22,Ticks_Phase_8,105,1,48,27,737620060
377,22,Ticks_Phase_8,106,5,42,127,737647124
377,22,Ticks_Phase_8,107,1,48,25,738427488
377,22,Ticks_Phase_8,108,5,42,127,738446836
377,22,Ticks_Phase_8,109,1,48,25,739202704
377,22,Ticks_Phase_8,110,5,42,127,739246472
377,22,Ticks_Phase_8,111,1,48,27,739978680
377,22,Ticks_Phase_8,112,5,42,127,740047232
377,22,Ticks_Phase_8,113,1,48,23,740805952
377,22,Ticks_Phase_8,114,5,42,127,740846944
377,22,Ticks_Phase_8,115,1,48,21,741612172
377,22,Ticks_Phase_8,116,5,42,127,741646804
377,22,Ticks_Phase_8,117,1,48,24,742402152
377,22,Ticks_Phase_8,118,5,42,127,742446396
377,22,Ticks_Phase_8,119,1,48,27,743169588
377,22,Ticks_Phase_8,120,5,42,127,743247152
377,22,Ticks_Phase_8,121,1,48,23,744035828
377,22,Ticks_Phase_8,122,5,42,127,744047012
377,22,Ticks_Phase_8,123,1,48,27,744763936
377,22,Ticks_Phase_8,124,5,42,127,744846800
377,22,Ticks_Phase_8,125,1,48,21,745599528
377,22,Ticks_Phase_8,126,5,42,127,745687624
377,22,Ticks_Phase_8,127,1,48,21,746479440
377,22,Ticks_Phase_8,128,5,42,127,746487112
377,22,Ticks_Phase_8,129,1,48,22,747283492
377,22,Ticks_Phase_8,130,5,42,127,747286748
377,22,Ticks_Phase_8,131,1,48,24,748084800
377,22,Ticks_Phase_8,132,5,42,127,748086688
377,22,Ticks_Phase_8,133,5,42,127,748887528
377,22,Ticks_Phase_8,134,1,48,18,748903896
377,22,Ticks_Phase_8,135,1,48,22,749685720
377,22,Ticks_Phase_8,136,5,42,127,749687528
377,22,Ticks_Phase_8,137,1,48,26,750467596
377,22,Ticks_Phase_8,138,5,42,127,750486868
377,22,Ticks_Phase_8,139,1,48,24,751253520
377,22,Ticks_Phase_8,140,5,42,127,751286728
377,22,Ticks_Phase_8,141,1,48,19,752078324
377,22,Ticks_Phase_8,142,5,42,127,752087340
377,22,Ticks_Phase_8,143,1,48,24,752876692
377,22,Ticks_Phase_8,144,5,42,127,752887124
377,22,Ticks_Phase_8,145,1,48,21,753662536
377,22,Ticks_Phase_8,146,5,42,127,753686788
377,22,Ticks_Phase_8,147,5,42,127,754486580
377,22,Ticks_Phase_8,148,1,48,24,754491868
377,22,Ticks_Phase_8,149,5,42,127,755287340
377,22,Ticks_Phase_8,150,1,48,22,755291124
377,22,Ticks_Phase_8,151,1,48,24,756056464
377,22,Ticks_Phase_8,152,5,42,127,756087492
377,22,Ticks_Phase_8,153,1,48,28,756875196
377,22,Ticks_Phase_8,154,5,42,127,756886832
377,22,Ticks_Phase_8,155,1,48,29,757637540
377,22,Ticks_Phase_8,156,5,42,127,757686544
377,22,Ticks_Phase_8,157,1,48,24,758453492
377,22,Ticks_Phase_8,158,5,42,127,758487304
377,22,Ticks_Phase_8,159,1,48,35,759231936
377,22,Ticks_Phase_8,160,5,42,127,759247396
377,22,Ticks_Phase_8,161,5,42,127,760047040
377,22,Ticks_Phase_8,162,1,48,29,760061464
377,22,Ticks_Phase_8,163,5,42,127,760846900
377,22,Ticks_Phase_8,164,1,48,20,760862172
377,22,Ticks_Phase_8,165,1,48,22,761619340
377,22,Ticks_Phase_8,166,5,42,127,761646408
377,22,Ticks_Phase_8,167,1,48,29,762417560
377,22,Ticks_Phase_8,168,5,42,127,762447168
377,22,Ticks_Phase_8,169,1,48,16,763241528
377,22,Ticks_Phase_8,170,5,42,127,763247252
377,22,Ticks_Phase_8,171,5,42,127,764046672
377,22,Ticks_Phase_8,172,1,48,23,764056084
377,22,Ticks_Phase_8,173,5,42,127,764846532
377,22,Ticks_Phase_8,174,1,48,16,764884244
377,22,Ticks_Phase_8,175,1,48,28,765628980
377,22,Ticks_Phase_8,176,5,42,127,765647208
377,22,Ticks_Phase_8,177,1,48,28,766433332
377,22,Ticks_Phase_8,178,5,42,127,766447068
377,22,Ticks_Phase_8,179,5,42,127,767246640
377,22,Ticks_Phase_8,180,1,48,23,767248652
377,22,Ticks_Phase_8,181,1,48,28,768019004
377,22,Ticks_Phase_8,182,5,42,127,768046368
377,22,Ticks_Phase_8,183,1,48,21,768826732
377,22,Ticks_Phase_8,184,5,42,127,768847128
377,22,Ticks_Phase_8,185,1,48,14,769632576
377,22,Ticks_Phase_8,186,5,42,127,769647060
377,22,Ticks_Phase_8,187,1,48,23,770383384
377,22,Ticks_Phase_8,188,5,42,127,770446700
377,22,Ticks_Phase_8,189,1,48,21,771204972
377,22,Ticks_Phase_8,190,5,42,127,771246488
377,22,Ticks_Phase_8,191,5,42,127,771967276
377,22,Ticks_Phase_8,192,1,48,24,771997884
377,22,Ticks_Phase_8,193,1,48,21,772736624
377,22,Ticks_Phase_8,194,5,42,127,772766980
377,22,Ticks_Phase_8,195,1,48,28,773486236
377,22,Ticks_Phase_8,196,5,42,127,773566768
377,22,Ticks_Phase_8,197,1,48,26,774274492
377,22,Ticks_Phase_8,198,5,42,127,774366704
377,22,Ticks_Phase_8,199,1,48,21,775121004
377,22,Ticks_Phase_8,200,5,42,127,775167464
377,22,Ticks_Phase_8,201,1,48,28,775932468
377,22,Ticks_Phase_8,202,5,42,127,775967124
377,22,Ticks_Phase_8,203,1,48,27,776718028
377,22,Ticks_Phase_8,204,5,42,127,776766688
377,22,Ticks_Phase_8,205,1,48,23,777539032
377,22,Ticks_Phase_8,206,5,42,127,777566624
377,22,Ticks_Phase_8,207,1,48,22,778275764
377,22,Ticks_Phase_8,208,5,42,127,778367512
377,22,Ticks_Phase_8,209,1,48,21,779041620
377,22,Ticks_Phase_8,210,5,42,127,779167076
377,22,Ticks_Phase_8,211,1,48,21,779923560
377,22,Ticks_Phase_8,212,5,42,127,779966728
377,22,Ticks_Phase_8,213,1,48,20,780742436
377,22,Ticks_Phase_8,214,5,42,127,780766516
377,22,Ticks_Phase_8,215,1,48,21,781558408
377,22,Ticks_Phase_8,216,5,42,127,781567348
377,22,Ticks_Phase_8,217,1,48,24,782359264
377,22,Ticks_Phase_8,218,5,42,127,782367380
377,22,Ticks_Phase_8,219,1,48,19,783166504
377,22,Ticks_Phase_8,220,5,42,127,783168212
377,22,Ticks_Phase_8,221,1,48,21,783936296
377,22,Ticks_Phase_8,222,5,42,127,783966580
377,22,Ticks_Phase_8,223,1,48,24,784702528
377,22,Ticks_Phase_8,224,5,42,127,784767340
377,22,Ticks_Phase_8,225,1,48,26,785557740
377,22,Ticks_Phase_8,226,5,42,127,785647108
377,22,Ticks_Phase_8,227,1,48,23,786395868
377,22,Ticks_Phase_8,228,5,42,127,786446596
377,22,Ticks_Phase_8,229,1,48,22,787227280
377,22,Ticks_Phase_8,230,5,42,127,787246408
377,22,Ticks_Phase_8,231,5,42,127,788047320
377,22,Ticks_Phase_8,232,1,48,23,788048880
377,22,Ticks_Phase_8,233,5,42,127,788846956
377,22,Ticks_Phase_8,234,1,48,18,788864164
377,22,Ticks_Phase_8,235,5,42,127,789646816
377,22,Ticks_Phase_8,236,1,48,17,789659372
377,22,Ticks_Phase_8,237,1,48,26,790394660
377,22,Ticks_Phase_8,238,5,42,127,790446520
377,22,Ticks_Phase_8,239,1,48,20,791245540
377,22,Ticks_Phase_8,240,5,42,127,791247132
377,22,Ticks_Phase_8,241,5,42,127,792047148
377,22,Ticks_Phase_8,242,1,48,17,792072504
377,22,Ticks_Phase_8,243,1,48,21,792821728
377,22,Ticks_Phase_8,244,5,42,127,792846928
377,22,Ticks_Phase_8,245,1,48,21,793608392
377,22,Ticks_Phase_8,246,5,42,127,793646340
377,22,Ticks_Phase_8,247,1,48,17,794346320
377,22,Ticks_Phase_8,248,5,42,127,794447232
377,22,Ticks_Phase_8,249,1,48,18,795213972
377,22,Ticks_Phase_8,250,5,42,127,795247032
377,22,Ticks_Phase_8,251,1,48,19,796019980
377,22,Ticks_Phase_8,252,5,42,127,796046820
377,22,Ticks_Phase_8,253,5,42,127,796846612
377,22,Ticks_Phase_8,254,1,48,21,796853544
377,22,Ticks_Phase_8,255,1,48,19,797590940
377,22,Ticks_Phase_8,256,5,42,127,797647212
377,22,Ticks_Phase_8,257,1,48,23,798402932
377,22,Ticks_Phase_8,258,5,42,127,798446852
377,22,Ticks_Phase_8,259,1,48,21,799221440
377,22,Ticks_Phase_8,260,5,42,127,799406384
377,22,Ticks_Phase_8,261,5,42,127,800207088
377,22,Ticks_Phase_8,262,1,48,19,800392280
377,22,Ticks_Phase_8,263,1,48,27,800690036
377,22,Ticks_Phase_8,264,5,42,127,801006852
377,22,Ticks_Phase_8,265,1,48,25,801796064
377,22,Ticks_Phase_8,266,5,42,127,801806728
377,22,Ticks_Phase_8,267,1,48,22,802581044
377,22,Ticks_Phase_8,268,5,42,127,802606540
377,22,Ticks_Phase_8,269,1,48,18,803349080
377,22,Ticks_Phase_8,270,5,42,127,803407224
377,22,Ticks_Phase_8,271,1,48,19,804147820
377,22,Ticks_Phase_8,272,5,42,127,804207008
377,22,Ticks_Phase_8,273,1,48,18,804937720
377,22,Ticks_Phase_8,274,5,42,127,805006796
377,22,Ticks_Phase_8,275,1,48,19,805762512
377,22,Ticks_Phase_8,276,5,42,127,805806580
377,22,Ticks_Phase_8,277,1,48,20,806584392
377,22,Ticks_Phase_8,278,5,42,127,806607340
377,22,Ticks_Phase_8,279,1,48,22,807397744
377,22,Ticks_Phase_8,280,5,42,127,807407056
377,22,Ticks_Phase_8,281,1,48,25,808197380
377,22,Ticks_Phase_8,282,5,42,127,808206692
377,22,Ticks_Phase_8,283,1,48,28,808979060
377,22,Ticks_Phase_8,284,5,42,127,809006500
377,22,Ticks_Phase_8,285,1,48,22,809790228
377,22,Ticks_Phase_8,286,5,42,127,809807480
377,22,Ticks_Phase_8,287,1,48,23,810602816
377,22,Ticks_Phase_8,288,5,42,127,810607044
377,22,Ticks_Phase_8,289,1,48,19,811369356
377,22,Ticks_Phase_8,290,5,42,127,811406684
377,22,Ticks_Phase_8,291,1,48,24,812101512
377,22,Ticks_Phase_8,292,5,42,127,812206380
377,22,Ticks_Phase_8,293,1,48,15,812958296
377,22,Ticks_Phase_8,294,5,42,127,813007300
377,22,Ticks_Phase_8,295,5,42,127,813807168
377,22,Ticks_Phase_8,296,1,48,16,813838376
377,22,Ticks_Phase_8,297,5,42,127,814447072
377,22,Ticks_Phase_8,298,1,48,18,814555112
377,22,Ticks_Phase_8,299,1,48,17,814942456
377,22,Ticks_Phase_8,300,5,42,127,815246912
377,22,Ticks_Phase_8,301,1,48,20,815920352
377,22,Ticks_Phase_8,302,5,42,127,816046476
377,22,Ticks_Phase_8,303,1,48,19,816760128
377,22,Ticks_Phase_8,304,5,42,127,816847176
377,22,Ticks_Phase_8,305,5,42,127,817646968
377,22,Ticks_Phase_8,306,1,48,21,817694216
377,22,Ticks_Phase_8,307,1,48,21,818313188
377,22,Ticks_Phase_8,308,5,42,127,818447128
377,22,Ticks_Phase_8,309,1,48,22,819209952
377,22,Ticks_Phase_8,310,5,42,127,819246332
377,22,Ticks_Phase_8,311,1,48,25,820012084
377,22,Ticks_Phase_8,312,5,42,127,820047164
377,22,Ticks_Phase_8,313,1,48,22,820785140
377,22,Ticks_Phase_8,314,5,42,127,820846952
377,22,Ticks_Phase_8,315,1,48,20,821598180
377,22,Ticks_Phase_8,316,5,42,127,821646816
377,22,Ticks_Phase_8,317,1,48,21,822422448
377,22,Ticks_Phase_8,318,5,42,127,822446452
377,22,Ticks_Phase_8,319,5,42,127,823247144
377,22,Ticks_Phase_8,320,1,48,18,823280584
377,22,Ticks_Phase_8,321,1,48,26,824000908
377,22,Ticks_Phase_8,322,5,42,127,824046996
377,22,Ticks_Phase_8,323,1,48,25,824803232
377,22,Ticks_Phase_8,324,5,42,127,824846660
377,22,Ticks_Phase_8,325,5,42,127,825646672
377,22,Ticks_Phase_8,326,1,48,24,825679744
377,22,Ticks_Phase_8,327,1,48,26,826407412
377,22,Ticks_Phase_8,328,5,42,127,826447276
377,22,Ticks_Phase_8,329,1,48,32,827216628
377,22,Ticks_Phase_8,330,5,42,127,827247060
377,22,Ticks_Phase_8,331,1,48,27,828039556
377,22,Ticks_Phase_8,332,5,42,127,828046700
377,22,Ticks_Phase_8,333,1,48,24,828829976
377,22,Ticks_Phase_8,334,5,42,127,828846412
377,22,Ticks_Phase_8,335,5,42,127,829647100
377,22,Ticks_Phase_8,336,1,48,27,829648068
377,22,Ticks_Phase_8,0,9999,9999,9999,694444156
377,22,Ticks_Phase_8,1,9999,9999,9999,695244860
377,22,Ticks_Phase_8,2,9999,9999,9999,696044644
377,22,Ticks_Phase_8,3,9999,9999,9999,696844344
377,22,Ticks_Phase_8,4,9999,9999,9999,697644096
377,22,Ticks_Phase_8,5,9999,9999,9999,698444928
377,22,Ticks_Phase_8,6,9999,9999,9999,699244636
377,22,Ticks_Phase_8,7,9999,9999,9999,700044388
377,22,Ticks_Phase_8,8,9999,9999,9999,700844140
377,22,Ticks_Phase_8,9,9999,9999,9999,701644896
377,22,Ticks_Phase_8,10,9999,9999,9999,702444608
377,22,Ticks_Phase_8,11,9999,9999,9999,703244392
377,22,Ticks_Phase_8,12,9999,9999,9999,704044132
377,22,Ticks_Phase_8,13,9999,9999,9999,704844888
377,22,Ticks_Phase_8,14,9999,9999,9999,705644600
377,22,Ticks_Phase_8,15,9999,9999,9999,706444388
377,22,Ticks_Phase_8,16,9999,9999,9999,707244100
377,22,Ticks_Phase_8,17,9999,9999,9999,708044860
377,22,Ticks_Phase_8,18,9999,9999,9999,708844648
377,22,Ticks_Phase_8,19,9999,9999,9999,709644360
377,22,Ticks_Phase_8,20,9999,9999,9999,710444096
377,22,Ticks_Phase_8,21,9999,9999,9999,711244860
377,22,Ticks_Phase_8,22,9999,9999,9999,712044668
377,22,Ticks_Phase_8,23,9999,9999,9999,712844376
377,22,Ticks_Phase_8,24,9999,9999,9999,713644124
377,22,Ticks_Phase_8,25,9999,9999,9999,714444924
377,22,Ticks_Phase_8,26,9999,9999,9999,715244652
377,22,Ticks_Phase_8,27,9999,9999,9999,716044364
377,22,Ticks_Phase_8,28,9999,9999,9999,716844100
377,22,Ticks_Phase_8,29,9999,9999,9999,717644916
377,22,Ticks_Phase_8,30,9999,9999,9999,718424128
377,22,Ticks_Phase_8,31,9999,9999,9999,719224888
377,22,Ticks_Phase_8,32,9999,9999,9999,720024676
377,22,Ticks_Phase_8,33,9999,9999,9999,720824384
377,22,Ticks_Phase_8,34,9999,9999,9999,721624172
377,22,Ticks_Phase_8,35,9999,9999,9999,722424928
377,22,Ticks_Phase_8,36,9999,9999,9999,723224664
377,22,Ticks_Phase_8,37,9999,9999,9999,724024376
377,22,Ticks_Phase_8,38,9999,9999,9999,724824168
377,22,Ticks_Phase_8,39,9999,9999,9999,725624924
377,22,Ticks_Phase_8,40,9999,9999,9999,726424636
377,22,Ticks_Phase_8,41,9999,9999,9999,727224424
377,22,Ticks_Phase_8,42,9999,9999,9999,728024136
377,22,Ticks_Phase_8,43,9999,9999,9999,728824892
377,22,Ticks_Phase_8,44,9999,9999,9999,729624628
377,22,Ticks_Phase_8,45,9999,9999,9999,730424424
377,22,Ticks_Phase_8,46,9999,9999,9999,731224128
377,22,Ticks_Phase_8,47,9999,9999,9999,732024948
377,22,Ticks_Phase_8,48,9999,9999,9999,732844132
377,22,Ticks_Phase_8,49,9999,9999,9999,733644908
377,22,Ticks_Phase_8,50,9999,9999,9999,734444620
377,22,Ticks_Phase_8,51,9999,9999,9999,735244404
377,22,Ticks_Phase_8,52,9999,9999,9999,736044144
377,22,Ticks_Phase_8,53,9999,9999,9999,736844884
377,22,Ticks_Phase_8,54,9999,9999,9999,737644612
377,22,Ticks_Phase_8,55,9999,9999,9999,738444400
377,22,Ticks_Phase_8,56,9999,9999,9999,739244112
377,22,Ticks_Phase_8,57,9999,9999,9999,740044868
377,22,Ticks_Phase_8,58,9999,9999,9999,740844656
377,22,Ticks_Phase_8,59,9999,9999,9999,741644368
377,22,Ticks_Phase_8,60,9999,9999,9999,742444108
377,22,Ticks_Phase_8,61,9999,9999,9999,743244864
377,22,Ticks_Phase_8,62,9999,9999,9999,744044652
377,22,Ticks_Phase_8,63,9999,9999,9999,744844360
377,22,Ticks_Phase_8,64,9999,9999,9999,745685112
377,22,Ticks_Phase_8,65,9999,9999,9999,746484824
377,22,Ticks_Phase_8,66,9999,9999,9999,747284536
377,22,Ticks_Phase_8,67,9999,9999,9999,748084348
377,22,Ticks_Phase_8,68,9999,9999,9999,748885088
377,22,Ticks_Phase_8,69,9999,9999,9999,749684800
377,22,Ticks_Phase_8,70,9999,9999,9999,750484580
377,22,Ticks_Phase_8,71,9999,9999,9999,751284292
377,22,Ticks_Phase_8,72,9999,9999,9999,752085048
377,22,Ticks_Phase_8,73,9999,9999,9999,752884836
377,22,Ticks_Phase_8,74,9999,9999,9999,753684572
377,22,Ticks_Phase_8,75,9999,9999,9999,754484292
377,22,Ticks_Phase_8,76,9999,9999,9999,755285048
377,22,Ticks_Phase_8,77,9999,9999,9999,756084832
377,22,Ticks_Phase_8,78,9999,9999,9999,756884544
377,22,Ticks_Phase_8,79,9999,9999,9999,757684328
377,22,Ticks_Phase_8,80,9999,9999,9999,758485088
377,22,Ticks_Phase_8,81,9999,9999,9999,759244884
377,22,Ticks_Phase_8,82,9999,9999,9999,760044604
377,22,Ticks_Phase_8,83,9999,9999,9999,760844388
377,22,Ticks_Phase_8,84,9999,9999,9999,761644120
377,22,Ticks_Phase_8,85,9999,9999,9999,762444876
377,22,Ticks_Phase_8,86,9999,9999,9999,763244664
377,22,Ticks_Phase_8,87,9999,9999,9999,764044384
377,22,Ticks_Phase_8,88,9999,9999,9999,764844096
377,22,Ticks_Phase_8,89,9999,9999,9999,765644920
377,22,Ticks_Phase_8,90,9999,9999,9999,766444632
377,22,Ticks_Phase_8,91,9999,9999,9999,767244348
377,22,Ticks_Phase_8,92,9999,9999,9999,768044152
377,22,Ticks_Phase_8,93,9999,9999,9999,768844912
377,22,Ticks_Phase_8,94,9999,9999,9999,769644624
377,22,Ticks_Phase_8,95,9999,9999,9999,770444412
377,22,Ticks_Phase_8,96,9999,9999,9999,771244124
377,22,Ticks_Phase_8,97,9999,9999,9999,771964988
377,22,Ticks_Phase_8,98,9999,9999,9999,772764764
377,22,Ticks_Phase_8,99,9999,9999,9999,773564480
377,22,Ticks_Phase_8,100,9999,9999,9999,774364268
377,22,Ticks_Phase_8,101,9999,9999,9999,775165024
377,22,Ticks_Phase_8,102,9999,9999,9999,775964764
377,22,Ticks_Phase_8,103,9999,9999,9999,776764472
377,22,Ticks_Phase_8,104,9999,9999,9999,777564260
377,22,Ticks_Phase_8,105,9999,9999,9999,778365016
377,22,Ticks_Phase_8,106,9999,9999,9999,779164788
377,22,Ticks_Phase_8,107,9999,9999,9999,779964516
377,22,Ticks_Phase_8,108,9999,9999,9999,780764224
377,22,Ticks_Phase_8,109,9999,9999,9999,781564984
377,22,Ticks_Phase_8,110,9999,9999,9999,782364796
377,22,Ticks_Phase_8,111,9999,9999,9999,783164512
377,22,Ticks_Phase_8,112,9999,9999,9999,783964220
377,22,Ticks_Phase_8,113,9999,9999,9999,784765048
377,22,Ticks_Phase_8,114,9999,9999,9999,785644668
377,22,Ticks_Phase_8,115,9999,9999,9999,786444380
377,22,Ticks_Phase_8,116,9999,9999,9999,787244116
377,22,Ticks_Phase_8,117,9999,9999,9999,788044884
377,22,Ticks_Phase_8,118,9999,9999,9999,788844668
377,22,Ticks_Phase_8,119,9999,9999,9999,789644380
377,22,Ticks_Phase_8,120,9999,9999,9999,790444160
377,22,Ticks_Phase_8,121,9999,9999,9999,791244928
377,22,Ticks_Phase_8,122,9999,9999,9999,792044636
377,22,Ticks_Phase_8,123,9999,9999,9999,792844416
377,22,Ticks_Phase_8,124,9999,9999,9999,793644124
377,22,Ticks_Phase_8,125,9999,9999,9999,794444868
377,22,Ticks_Phase_8,126,9999,9999,9999,795244668
377,22,Ticks_Phase_8,127,9999,9999,9999,796044380
377,22,Ticks_Phase_8,128,9999,9999,9999,796844100
377,22,Ticks_Phase_8,129,9999,9999,9999,797644924
377,22,Ticks_Phase_8,130,9999,9999,9999,798444636
377,22,Ticks_Phase_8,131,9999,9999,9999,799404092
377,22,Ticks_Phase_8,132,9999,9999,9999,800204872
377,22,Ticks_Phase_8,133,9999,9999,9999,801004640
377,22,Ticks_Phase_8,134,9999,9999,9999,801804364
377,22,Ticks_Phase_8,135,9999,9999,9999,802604100
377,22,Ticks_Phase_8,136,9999,9999,9999,803404860
377,22,Ticks_Phase_8,137,9999,9999,9999,804204644
377,22,Ticks_Phase_8,138,9999,9999,9999,805004356
377,22,Ticks_Phase_8,139,9999,9999,9999,805804144
377,22,Ticks_Phase_8,140,9999,9999,9999,806604904
377,22,Ticks_Phase_8,141,9999,9999,9999,807404616
377,22,Ticks_Phase_8,142,9999,9999,9999,808204400
377,22,Ticks_Phase_8,143,9999,9999,9999,809004140
377,22,Ticks_Phase_8,144,9999,9999,9999,809804896
377,22,Ticks_Phase_8,145,9999,9999,9999,810604608
377,22,Ticks_Phase_8,146,9999,9999,9999,811404392
377,22,Ticks_Phase_8,147,9999,9999,9999,812204088
377,22,Ticks_Phase_8,148,9999,9999,9999,813004864
377,22,Ticks_Phase_8,149,9999,9999,9999,813804656
377,22,Ticks_Phase_8,150,9999,9999,9999,814444636
377,22,Ticks_Phase_8,151,9999,9999,9999,815244400
377,22,Ticks_Phase_8,152,9999,9999,9999,816044112
377,22,Ticks_Phase_8,153,9999,9999,9999,816844888
377,22,Ticks_Phase_8,154,9999,9999,9999,817644604
377,22,Ticks_Phase_8,155,9999,9999,9999,818444372
377,22,Ticks_Phase_8,156,9999,9999,9999,819244116
377,22,Ticks_Phase_8,157,9999,9999,9999,820044876
377,22,Ticks_Phase_8,158,9999,9999,9999,820844664
377,22,Ticks_Phase_8,159,9999,9999,9999,821644376
377,22,Ticks_Phase_8,160,9999,9999,9999,822444088
377,22,Ticks_Phase_8,161,9999,9999,9999,823244928
377,22,Ticks_Phase_8,162,9999,9999,9999,824044632
377,22,Ticks_Phase_8,163,9999,9999,9999,824844344
377,22,Ticks_Phase_8,164,9999,9999,9999,825644088
377,22,Ticks_Phase_8,165,9999,9999,9999,826444912
377,22,Ticks_Phase_8,166,9999,9999,9999,827244624
377,22,Ticks_Phase_8,167,9999,9999,9999,828044412
377,22,Ticks_Phase_8,168,9999,9999,9999,828844120
377,22,Ticks_Phase_8,169,9999,9999,9999,829644888
378,23,Ticks_Phase_5,0,5,42,127,843353372
378,23,Ticks_Phase_5,1,5,42,127,843854204
378,23,Ticks_Phase_5,2,1,48,35,843957896
378,23,Ticks_Phase_5,3,1,48,19,844295344
378,23,Ticks_Phase_5,4,5,42,127,844353884
378,23,Ticks_Phase_5,5,1,48,27,844807760
378,23,Ticks_Phase_5,6,5,42,127,844853496
378,23,Ticks_Phase_5,7,1,48,24,845307372
378,23,Ticks_Phase_5,8,5,42,127,845354304
378,23,Ticks_Phase_5,9,1,48,24,845830272
378,23,Ticks_Phase_5,10,5,42,127,845853992
378,23,Ticks_Phase_5,11,1,48,29,846332436
378,23,Ticks_Phase_5,12,5,42,127,846353904
378,23,Ticks_Phase_5,13,1,48,29,846847252
378,23,Ticks_Phase_5,14,5,42,127,846853572
378,23,Ticks_Phase_5,15,1,48,21,847341852
378,23,Ticks_Phase_5,16,5,42,127,847354232
378,23,Ticks_Phase_5,17,1,48,29,847811736
378,23,Ticks_Phase_5,18,5,42,127,847853920
378,23,Ticks_Phase_5,19,5,42,127,848353912
378,23,Ticks_Phase_5,20,1,48,26,848373436
378,23,Ticks_Phase_5,21,1,48,25,848832076
378,23,Ticks_Phase_5,22,5,42,127,848854416
378,23,Ticks_Phase_5,23,1,48,24,849331988
378,23,Ticks_Phase_5,24,5,42,127,849353956
378,23,Ticks_Phase_5,25,1,48,22,849832052
378,23,Ticks_Phase_5,26,5,42,127,849853868
378,23,Ticks_Phase_5,27,1,48,19,850337200
378,23,Ticks_Phase_5,28,5,42,127,850353480
378,23,Ticks_Phase_5,29,1,48,30,850827748
378,23,Ticks_Phase_5,30,5,42,127,850854440
378,23,Ticks_Phase_5,31,5,42,127,851354060
378,23,Ticks_Phase_5,32,1,48,21,851412896
378,23,Ticks_Phase_5,33,5,42,127,851853820
378,23,Ticks_Phase_5,34,1,48,20,851854788
378,23,Ticks_Phase_5,35,5,42,127,852354556
378,23,Ticks_Phase_5,36,1,48,27,852357232
378,23,Ticks_Phase_5,37,1,48,29,852837956
378,23,Ticks_Phase_5,38,5,42,127,852864644
378,23,Ticks_Phase_5,39,1,48,27,853337792
378,23,Ticks_Phase_5,40,5,42,127,853364112
378,23,Ticks_Phase_5,41,1,48,27,853796896
378,23,Ticks_Phase_5,42,5,42,127,853863800
378,23,Ticks_Phase_5,43,1,48,26,854350720
378,23,Ticks_Phase_5,44,5,42,127,854363712
378,23,Ticks_Phase_5,45,1,48,28,854822488
378,23,Ticks_Phase_5,46,5,42,127,854864376
378,23,Ticks_Phase_5,47,1,48,26,855335424
378,23,Ticks_Phase_5,48,5,42,127,855363912
378,23,Ticks_Phase_5,49,1,48,26,855846864
378,23,Ticks_Phase_5,50,5,42,127,855863676
378,23,Ticks_Phase_5,51,1,48,29,856334948
378,23,Ticks_Phase_5,52,5,42,127,856364784
378,23,Ticks_Phase_5,53,1,48,27,856833120
378,23,Ticks_Phase_5,54,5,42,127,856864024
378,23,Ticks_Phase_5,55,1,48,25,857313560
378,23,Ticks_Phase_5,56,5,42,127,857363860
378,23,Ticks_Phase_5,57,1,48,29,857822684
378,23,Ticks_Phase_5,58,5,42,127,857863600
378,23,Ticks_Phase_5,59,1,48,28,858337348
378,23,Ticks_Phase_5,60,5,42,127,858354076
378,23,Ticks_Phase_5,61,1,48,29,858805580
378,23,Ticks_Phase_5,62,5,42,127,858853692
378,23,Ticks_Phase_5,63,1,48,29,859331248
378,23,Ticks_Phase_5,64,5,42,127,859353676
378,23,Ticks_Phase_5,65,1,48,30,859801504
378,23,Ticks_Phase_5,66,5,42,127,859854484
378,23,Ticks_Phase_5,67,1,48,28,860321784
378,23,Ticks_Phase_5,68,5,42,127,860353800
378,23,Ticks_Phase_5,69,1,48,29,860799756
378,23,Ticks_Phase_5,70,5,42,127,860853564
378,23,Ticks_Phase_5,71,1,48,30,861329480
378,23,Ticks_Phase_5,72,5,42,127,861354448
378,23,Ticks_Phase_5,73,1,48,31,861825576
378,23,Ticks_Phase_5,74,5,42,127,861854064
378,23,Ticks_Phase_5,75,1,48,33,862341744
378,23,Ticks_Phase_5,76,5,42,127,862353752
378,23,Ticks_Phase_5,77,1,48,26,862852080
378,23,Ticks_Phase_5,78,5,42,127,862853812
378,23,Ticks_Phase_5,79,1,48,30,863295132
378,23,Ticks_Phase_5,80,5,42,127,863354176
378,23,Ticks_Phase_5,81,1,48,35,863826572
378,23,Ticks_Phase_5,82,5,42,127,863853864
378,23,Ticks_Phase_5,83,1,48,35,864332480
378,23,Ticks_Phase_5,84,5,42,127,864353624
378,23,Ticks_Phase_5,85,1,48,33,864843104
378,23,Ticks_Phase_5,86,5,42,127,864854360
378,23,Ticks_Phase_5,87,1,48,31,865303320
378,23,Ticks_Phase_5,88,5,42,127,865354124
378,23,Ticks_Phase_5,89,1,48,32,865797292
378,23,Ticks_Phase_5,90,5,42,127,865853960
378,23,Ticks_Phase_5,91,1,48,30,866338188
378,23,Ticks_Phase_5,92,5,42,127,866353424
378,23,Ticks_Phase_5,93,1,48,31,866831132
378,23,Ticks_Phase_5,94,5,42,127,866854308
378,23,Ticks_Phase_5,95,1,48,35,867347376
378,23,Ticks_Phase_5,96,5,42,127,867364180
378,23,Ticks_Phase_5,97,5,42,127,867863952
378,23,Ticks_Phase_5,98,1,48,31,867877108
378,23,Ticks_Phase_5,99,5,42,127,868363640
378,23,Ticks_Phase_5,100,1,48,32,868367132
378,23,Ticks_Phase_5,101,1,48,30,868824700
378,23,Ticks_Phase_5,102,5,42,127,868864268
378,23,Ticks_Phase_5,103,1,48,38,869283796
378,23,Ticks_Phase_5,104,5,42,127,869364032
378,23,Ticks_Phase_5,105,1,48,34,869850952
378,23,Ticks_Phase_5,106,5,42,127,869863940
378,23,Ticks_Phase_5,107,5,42,127,870363416
378,23,Ticks_Phase_5,108,1,48,24,870367432
378,23,Ticks_Phase_5,109,1,48,25,870834536
378,23,Ticks_Phase_5,110,5,42,127,870864292
378,23,Ticks_Phase_5,111,1,48,28,871307560
378,23,Ticks_Phase_5,112,5,42,127,871364052
378,23,Ticks_Phase_5,113,1,48,27,871805896
378,23,Ticks_Phase_5,114,5,42,127,871863592
378,23,Ticks_Phase_5,115,1,48,28,872309400
378,23,Ticks_Phase_5,116,5,42,127,872364328
378,23,Ticks_Phase_5,117,1,48,30,872824972
378,23,Ticks_Phase_5,118,5,42,127,872864016
378,23,Ticks_Phase_5,119,1,48,29,873347648
378,23,Ticks_Phase_5,120,5,42,127,873364076
378,23,Ticks_Phase_5,121,1,48,29,873847336
378,23,Ticks_Phase_5,122,5,42,127,873863692
378,23,Ticks_Phase_5,123,1,48,34,874338416
378,23,Ticks_Phase_5,124,5,42,127,874364132
378,23,Ticks_Phase_5,125,1,48,29,874826192
378,23,Ticks_Phase_5,126,5,42,127,874864044
378,23,Ticks_Phase_5,127,1,48,34,875350812
378,23,Ticks_Phase_5,128,5,42,127,875384028
378,23,Ticks_Phase_5,129,1,48,26,875850808
378,23,Ticks_Phase_5,130,5,42,127,875883940
378,23,Ticks_Phase_5,131,1,48,27,876364724
378,23,Ticks_Phase_5,132,5,42,127,876383552
378,23,Ticks_Phase_5,133,1,48,29,876856480
378,23,Ticks_Phase_5,134,5,42,127,876884436
378,23,Ticks_Phase_5,135,1,48,23,877343960
378,23,Ticks_Phase_5,136,5,42,127,877383976
378,23,Ticks_Phase_5,137,1,48,32,877831568
378,23,Ticks_Phase_5,138,5,42,127,877883812
378,23,Ticks_Phase_5,139,1,48,26,878325860
378,23,Ticks_Phase_5,140,5,42,127,878383724
378,23,Ticks_Phase_5,141,1,48,24,878857072
378,23,Ticks_Phase_5,142,5,42,127,878884160
378,23,Ticks_Phase_5,143,5,42,127,879383928
378,23,Ticks_Phase_5,144,1,48,17,879389220
378,23,Ticks_Phase_5,145,1,48,21,879847760
378,23,Ticks_Phase_5,146,5,42,127,879883536
378,23,Ticks_Phase_5,147,1,48,24,880311116
378,23,Ticks_Phase_5,148,5,42,127,880384544
378,23,Ticks_Phase_5,149,1,48,25,880821900
378,23,Ticks_Phase_5,150,5,42,127,880884008
378,23,Ticks_Phase_5,151,1,48,23,881329892
378,23,Ticks_Phase_5,152,5,42,127,881383696
378,23,Ticks_Phase_5,153,1,48,20,881835352
378,23,Ticks_Phase_5,154,5,42,127,881883680
378,23,Ticks_Phase_5,155,1,48,27,882330988
378,23,Ticks_Phase_5,156,5,42,127,882384344
378,23,Ticks_Phase_5,157,1,48,29,882854424
378,23,Ticks_Phase_5,158,5,42,127,882883808
378,23,Ticks_Phase_5,159,1,48,28,883377180
378,23,Ticks_Phase_5,160,5,42,127,883383648
378,23,Ticks_Phase_5,161,5,42,127,883863948
378,23,Ticks_Phase_5,162,1,48,24,883888784
378,23,Ticks_Phase_5,163,1,48,23,884304664
378,23,Ticks_Phase_5,164,5,42,127,884363484
378,23,Ticks_Phase_5,165,1,48,28,884793796
378,23,Ticks_Phase_5,166,5,42,127,884864516
378,23,Ticks_Phase_5,167,1,48,33,885285244
378,23,Ticks_Phase_5,168,5,42,127,885364056
378,23,Ticks_Phase_5,169,1,48,35,885805820
378,23,Ticks_Phase_5,170,5,42,127,885863744
378,23,Ticks_Phase_5,171,1,48,34,886315920
378,23,Ticks_Phase_5,172,5,42,127,886363580
378,23,Ticks_Phase_5,173,1,48,32,886790568
378,23,Ticks_Phase_5,174,5,42,127,886864320
378,23,Ticks_Phase_5,175,1,48,38,887276708
378,23,Ticks_Phase_5,176,5,42,127,887364376
378,23,Ticks_Phase_5,177,1,48,34,887794220
378,23,Ticks_Phase_5,178,5,42,127,887863692
378,23,Ticks_Phase_5,179,1,48,38,888316740
378,23,Ticks_Phase_5,180,5,42,127,888364352
378,23,Ticks_Phase_5,181,1,48,38,888848956
378,23,Ticks_Phase_5,182,5,42,127,888864340
378,23,Ticks_Phase_5,183,1,48,44,889339260
378,23,Ticks_Phase_5,184,5,42,127,889363804
378,23,Ticks_Phase_5,185,1,48,38,889838048
378,23,Ticks_Phase_5,186,5,42,127,889863392
378,23,Ticks_Phase_5,187,1,48,39,890322964
378,23,Ticks_Phase_5,188,5,42,127,890364400
378,23,Ticks_Phase_5,189,1,48,35,890848180
378,23,Ticks_Phase_5,190,5,42,127,890864240
378,23,Ticks_Phase_5,191,1,48,39,891335288
378,23,Ticks_Phase_5,192,5,42,127,891363628
378,23,Ticks_Phase_5,193,5,42,127,891814348
378,23,Ticks_Phase_5,194,1,48,32,891856184
378,23,Ticks_Phase_5,195,1,48,40,892226524
378,23,Ticks_Phase_5,196,5,42,127,892314028
378,23,Ticks_Phase_5,197,1,48,42,892730180
378,23,Ticks_Phase_5,198,5,42,127,892813568
378,23,Ticks_Phase_5,199,1,48,38,893230320
378,23,Ticks_Phase_5,200,5,42,127,893314376
378,23,Ticks_Phase_5,201,1,48,37,893745136
378,23,Ticks_Phase_5,202,5,42,127,893824324
378,23,Ticks_Phase_5,203,1,48,42,894234720
378,23,Ticks_Phase_5,204,5,42,127,894324160
378,23,Ticks_Phase_5,205,1,48,37,894781740
378,23,Ticks_Phase_5,206,5,42,127,894824072
378,23,Ticks_Phase_5,207,1,48,38,895302024
378,23,Ticks_Phase_5,208,5,42,127,895323464
378,23,Ticks_Phase_5,209,1,48,43,895812192
378,23,Ticks_Phase_5,210,5,42,127,895824200
378,23,Ticks_Phase_5,211,1,48,39,896308952
378,23,Ticks_Phase_5,212,5,42,127,896324036
378,23,Ticks_Phase_5,213,1,48,42,896762640
378,23,Ticks_Phase_5,214,5,42,127,896823872
378,23,Ticks_Phase_5,215,1,48,46,897309300
378,23,Ticks_Phase_5,216,5,42,127,897324532
378,23,Ticks_Phase_5,217,1,48,45,897787324
378,23,Ticks_Phase_5,218,5,42,127,897823996
378,23,Ticks_Phase_5,219,1,48,40,898255484
378,23,Ticks_Phase_5,220,5,42,127,898324056
378,23,Ticks_Phase_5,221,1,48,41,898788644
378,23,Ticks_Phase_5,222,5,42,127,898823500
378,23,Ticks_Phase_5,223,1,48,43,899277100
378,23,Ticks_Phase_5,224,5,42,127,899324232
378,23,Ticks_Phase_5,225,1,48,35,899776036
378,23,Ticks_Phase_5,226,5,42,127,899823920
378,23,Ticks_Phase_5,227,1,48,40,900293624
378,23,Ticks_Phase_5,228,5,42,127,900373884
378,23,Ticks_Phase_5,229,5,42,127,900873952
378,23,Ticks_Phase_5,230,1,48,42,900876328
378,23,Ticks_Phase_5,231,5,42,127,901374736
378,23,Ticks_Phase_5,232,1,48,44,901408892
378,23,Ticks_Phase_5,233,1,48,42,901798380
378,23,Ticks_Phase_5,234,5,42,127,901873976
378,23,Ticks_Phase_5,235,1,48,49,902299016
378,23,Ticks_Phase_5,236,5,42,127,902373712
378,23,Ticks_Phase_5,237,1,48,38,902851812
378,23,Ticks_Phase_5,238,5,42,127,902873404
378,23,Ticks_Phase_5,239,5,42,127,903374220
378,23,Ticks_Phase_5,240,1,48,38,903385280
378,23,Ticks_Phase_5,241,1,48,44,903811496
378,23,Ticks_Phase_5,242,5,42,127,903873972
378,23,Ticks_Phase_5,243,1,48,38,904348992
378,23,Ticks_Phase_5,244,5,42,127,904373808
378,23,Ticks_Phase_5,245,1,48,44,904827856
378,23,Ticks_Phase_5,246,5,42,127,904874396
378,23,Ticks_Phase_5,247,1,48,40,905311384
378,23,Ticks_Phase_5,248,5,42,127,905374008
378,23,Ticks_Phase_5,249,1,48,40,905859288
378,23,Ticks_Phase_5,250,5,42,127,905873772
378,23,Ticks_Phase_5,251,1,48,38,906331796
378,23,Ticks_Phase_5,252,5,42,127,906373536
378,23,Ticks_Phase_5,253,1,48,41,906809832
378,23,Ticks_Phase_5,254,5,42,127,906874344
378,23,Ticks_Phase_5,255,1,48,44,907291244
378,23,Ticks_Phase_5,256,5,42,127,907374032
378,23,Ticks_Phase_5,257,1,48,39,907819840
378,23,Ticks_Phase_5,258,5,42,127,907873572
378,23,Ticks_Phase_5,259,1,48,34,908314592
378,23,Ticks_Phase_5,260,5,42,127,908374532
378,23,Ticks_Phase_5,261,1,48,22,908790960
378,23,Ticks_Phase_5,262,5,42,127,908973432
378,23,Ticks_Phase_5,263,5,42,127,909474488
378,23,Ticks_Phase_5,264,1,48,30,909596708
378,23,Ticks_Phase_5,265,1,48,32,909887872
378,23,Ticks_Phase_5,266,5,42,127,909973944
378,23,Ticks_Phase_5,267,1,48,31,910457280
378,23,Ticks_Phase_5,268,5,42,127,910473488
378,23,Ticks_Phase_5,269,1,48,27,910964604
378,23,Ticks_Phase_5,270,5,42,127,910974296
378,23,Ticks_Phase_5,271,1,48,24,911446696
378,23,Ticks_Phase_5,272,5,42,127,911473908
378,23,Ticks_Phase_5,273,1,48,23,911934704
378,23,Ticks_Phase_5,274,5,42,127,911973672
378,23,Ticks_Phase_5,275,1,48,26,912407128
378,23,Ticks_Phase_5,276,5,42,127,912473584
378,23,Ticks_Phase_5,277,1,48,27,912918196
378,23,Ticks_Phase_5,278,5,42,127,912974392
378,23,Ticks_Phase_5,279,1,48,22,913398992
378,23,Ticks_Phase_5,280,5,42,127,913473784
378,23,Ticks_Phase_5,281,1,48,18,913905868
378,23,Ticks_Phase_5,282,5,42,127,913973620
378,23,Ticks_Phase_5,283,1,48,19,914393800
378,23,Ticks_Phase_5,284,5,42,127,914474356
378,23,Ticks_Phase_5,285,1,48,18,914864732
378,23,Ticks_Phase_5,286,5,42,127,914974180
378,23,Ticks_Phase_5,287,1,48,18,915341956
378,23,Ticks_Phase_5,288,5,42,127,915473720
378,23,Ticks_Phase_5,289,1,48,18,915829956
378,23,Ticks_Phase_5,290,5,42,127,915973456
378,23,Ticks_Phase_5,291,1,48,19,916373956
378,23,Ticks_Phase_5,292,5,42,127,916474316
378,23,Ticks_Phase_5,293,1,48,17,916891232
378,23,Ticks_Phase_5,294,5,42,127,916974092
378,23,Ticks_Phase_5,295,5,42,127,917473640
378,23,Ticks_Phase_5,296,1,48,17,917887788
378,23,Ticks_Phase_5,297,5,42,127,917974316
378,23,Ticks_Phase_5,298,5,42,127,918373664
378,23,Ticks_Phase_5,299,1,48,26,918784124
378,23,Ticks_Phase_5,300,5,42,127,918873444
378,23,Ticks_Phase_5,301,1,48,19,919219100
378,23,Ticks_Phase_5,302,5,42,127,919374240
378,23,Ticks_Phase_5,303,1,48,15,919728076
378,23,Ticks_Phase_5,304,5,42,127,919874076
378,23,Ticks_Phase_5,305,5,42,127,920373560
378,23,Ticks_Phase_5,306,5,42,127,920874464
378,23,Ticks_Phase_5,307,5,42,127,921374028
378,23,Ticks_Phase_5,308,5,42,127,921873888
378,23,Ticks_Phase_5,309,5,42,127,922373572
378,23,Ticks_Phase_5,310,1,48,15,922747352
378,23,Ticks_Phase_5,311,5,42,127,922874228
378,23,Ticks_Phase_5,312,5,42,127,923374084
378,23,Ticks_Phase_5,313,5,42,127,923873796
378,23,Ticks_Phase_5,314,5,42,127,924374328
378,23,Ticks_Phase_5,315,5,42,127,924874112
378,23,Ticks_Phase_5,316,5,42,127,925373748
378,23,Ticks_Phase_5,317,1,48,14,925754728
378,23,Ticks_Phase_5,318,5,42,127,925873808
378,23,Ticks_Phase_5,319,1,48,18,926257632
378,23,Ticks_Phase_5,320,5,42,127,926374248
378,23,Ticks_Phase_5,321,1,48,18,926765632
378,23,Ticks_Phase_5,322,5,42,127,926873936
378,23,Ticks_Phase_5,323,1,48,21,927299620
378,23,Ticks_Phase_5,324,5,42,127,927373788
378,23,Ticks_Phase_5,325,1,48,27,927829856
378,23,Ticks_Phase_5,326,5,42,127,927874524
378,23,Ticks_Phase_5,0,9999,9999,9999,843351160
378,23,Ticks_Phase_5,1,9999,9999,9999,843851844
378,23,Ticks_Phase_5,2,9999,9999,9999,844351596
378,23,Ticks_Phase_5,3,9999,9999,9999,844851284
378,23,Ticks_Phase_5,4,9999,9999,9999,845352020
378,23,Ticks_Phase_5,5,9999,9999,9999,845851708
378,23,Ticks_Phase_5,6,9999,9999,9999,846351468
378,23,Ticks_Phase_5,7,9999,9999,9999,846851136
378,23,Ticks_Phase_5,8,9999,9999,9999,847351868
378,23,Ticks_Phase_5,9,9999,9999,9999,847851632
378,23,Ticks_Phase_5,10,9999,9999,9999,848351328
378,23,Ticks_Phase_5,11,9999,9999,9999,848852056
378,23,Ticks_Phase_5,12,9999,9999,9999,849351744
378,23,Ticks_Phase_5,13,9999,9999,9999,849851504
378,23,Ticks_Phase_5,14,9999,9999,9999,850351192
378,23,Ticks_Phase_5,15,9999,9999,9999,850851928
378,23,Ticks_Phase_5,16,9999,9999,9999,851351624
378,23,Ticks_Phase_5,17,9999,9999,9999,851851384
378,23,Ticks_Phase_5,18,9999,9999,9999,852352120
378,23,Ticks_Phase_5,19,9999,9999,9999,852862060
378,23,Ticks_Phase_5,20,9999,9999,9999,853361752
378,23,Ticks_Phase_5,21,9999,9999,9999,853861440
378,23,Ticks_Phase_5,22,9999,9999,9999,854361204
378,23,Ticks_Phase_5,23,9999,9999,9999,854861940
378,23,Ticks_Phase_5,24,9999,9999,9999,855361628
378,23,Ticks_Phase_5,25,9999,9999,9999,855861316
378,23,Ticks_Phase_5,26,9999,9999,9999,856362048
378,23,Ticks_Phase_5,27,9999,9999,9999,856861812
378,23,Ticks_Phase_5,28,9999,9999,9999,857361500
378,23,Ticks_Phase_5,29,9999,9999,9999,857861236
378,23,Ticks_Phase_5,30,9999,9999,9999,858351712
378,23,Ticks_Phase_5,31,9999,9999,9999,858851404
378,23,Ticks_Phase_5,32,9999,9999,9999,859351164
378,23,Ticks_Phase_5,33,9999,9999,9999,859851900
378,23,Ticks_Phase_5,34,9999,9999,9999,860351588
378,23,Ticks_Phase_5,35,9999,9999,9999,860851276
378,23,Ticks_Phase_5,36,9999,9999,9999,861352012
378,23,Ticks_Phase_5,37,9999,9999,9999,861851700
378,23,Ticks_Phase_5,38,9999,9999,9999,862351464
378,23,Ticks_Phase_5,39,9999,9999,9999,862851160
378,23,Ticks_Phase_5,40,9999,9999,9999,863351888
378,23,Ticks_Phase_5,41,9999,9999,9999,863851576
378,23,Ticks_Phase_5,42,9999,9999,9999,864351336
378,23,Ticks_Phase_5,43,9999,9999,9999,864852072
378,23,Ticks_Phase_5,44,9999,9999,9999,865351764
378,23,Ticks_Phase_5,45,9999,9999,9999,865851448
378,23,Ticks_Phase_5,46,9999,9999,9999,866351212
378,23,Ticks_Phase_5,47,9999,9999,9999,866851948
378,23,Ticks_Phase_5,48,9999,9999,9999,867361896
378,23,Ticks_Phase_5,49,9999,9999,9999,867861592
378,23,Ticks_Phase_5,50,9999,9999,9999,868361328
378,23,Ticks_Phase_5,51,9999,9999,9999,868862056
378,23,Ticks_Phase_5,52,9999,9999,9999,869361744
378,23,Ticks_Phase_5,53,9999,9999,9999,869861432
378,23,Ticks_Phase_5,54,9999,9999,9999,870361204
378,23,Ticks_Phase_5,55,9999,9999,9999,870861932
378,23,Ticks_Phase_5,56,9999,9999,9999,871361620
378,23,Ticks_Phase_5,57,9999,9999,9999,871861308
378,23,Ticks_Phase_5,58,9999,9999,9999,872362040
378,23,Ticks_Phase_5,59,9999,9999,9999,872861804
378,23,Ticks_Phase_5,60,9999,9999,9999,873361496
378,23,Ticks_Phase_5,61,9999,9999,9999,873861180
378,23,Ticks_Phase_5,62,9999,9999,9999,874361916
378,23,Ticks_Phase_5,63,9999,9999,9999,874861680
378,23,Ticks_Phase_5,64,9999,9999,9999,875381812
378,23,Ticks_Phase_5,65,9999,9999,9999,875881580
378,23,Ticks_Phase_5,66,9999,9999,9999,876381264
378,23,Ticks_Phase_5,67,9999,9999,9999,876882004
378,23,Ticks_Phase_5,68,9999,9999,9999,877381692
378,23,Ticks_Phase_5,69,9999,9999,9999,877881452
378,23,Ticks_Phase_5,70,9999,9999,9999,878381140
378,23,Ticks_Phase_5,71,9999,9999,9999,878881876
378,23,Ticks_Phase_5,72,9999,9999,9999,879381568
378,23,Ticks_Phase_5,73,9999,9999,9999,879881300
378,23,Ticks_Phase_5,74,9999,9999,9999,880382032
378,23,Ticks_Phase_5,75,9999,9999,9999,880881720
378,23,Ticks_Phase_5,76,9999,9999,9999,881381484
378,23,Ticks_Phase_5,77,9999,9999,9999,881881172
378,23,Ticks_Phase_5,78,9999,9999,9999,882381908
378,23,Ticks_Phase_5,79,9999,9999,9999,882881596
378,23,Ticks_Phase_5,80,9999,9999,9999,883381360
378,23,Ticks_Phase_5,81,9999,9999,9999,883861588
378,23,Ticks_Phase_5,82,9999,9999,9999,884361272
378,23,Ticks_Phase_5,83,9999,9999,9999,884862008
378,23,Ticks_Phase_5,84,9999,9999,9999,885361768
378,23,Ticks_Phase_5,85,9999,9999,9999,885861456
378,23,Ticks_Phase_5,86,9999,9999,9999,886361148
378,23,Ticks_Phase_5,87,9999,9999,9999,886861884
378,23,Ticks_Phase_5,88,9999,9999,9999,887361644
378,23,Ticks_Phase_5,89,9999,9999,9999,887861332
378,23,Ticks_Phase_5,90,9999,9999,9999,888362068
378,23,Ticks_Phase_5,91,9999,9999,9999,888861756
378,23,Ticks_Phase_5,92,9999,9999,9999,889361520
378,23,Ticks_Phase_5,93,9999,9999,9999,889861180
378,23,Ticks_Phase_5,94,9999,9999,9999,890361964
378,23,Ticks_Phase_5,95,9999,9999,9999,890861656
378,23,Ticks_Phase_5,96,9999,9999,9999,891361344
378,23,Ticks_Phase_5,97,9999,9999,9999,891811912
378,23,Ticks_Phase_5,98,9999,9999,9999,892311664
378,23,Ticks_Phase_5,99,9999,9999,9999,892811356
378,23,Ticks_Phase_5,100,9999,9999,9999,893312092
378,23,Ticks_Phase_5,101,9999,9999,9999,893822036
378,23,Ticks_Phase_5,102,9999,9999,9999,894321724
378,23,Ticks_Phase_5,103,9999,9999,9999,894821488
378,23,Ticks_Phase_5,104,9999,9999,9999,895321176
378,23,Ticks_Phase_5,105,9999,9999,9999,895821912
378,23,Ticks_Phase_5,106,9999,9999,9999,896321600
378,23,Ticks_Phase_5,107,9999,9999,9999,896821364
378,23,Ticks_Phase_5,108,9999,9999,9999,897322096
378,23,Ticks_Phase_5,109,9999,9999,9999,897821784
378,23,Ticks_Phase_5,110,9999,9999,9999,898321476
378,23,Ticks_Phase_5,111,9999,9999,9999,898821212
378,23,Ticks_Phase_5,112,9999,9999,9999,899321948
378,23,Ticks_Phase_5,113,9999,9999,9999,899821636
378,23,Ticks_Phase_5,114,9999,9999,9999,900371524
378,23,Ticks_Phase_5,115,9999,9999,9999,900871268
378,23,Ticks_Phase_5,116,9999,9999,9999,901372004
378,23,Ticks_Phase_5,117,9999,9999,9999,901871688
378,23,Ticks_Phase_5,118,9999,9999,9999,902371428
378,23,Ticks_Phase_5,119,9999,9999,9999,902871116
378,23,Ticks_Phase_5,120,9999,9999,9999,903371856
378,23,Ticks_Phase_5,121,9999,9999,9999,903871612
378,23,Ticks_Phase_5,122,9999,9999,9999,904371300
378,23,Ticks_Phase_5,123,9999,9999,9999,904872036
378,23,Ticks_Phase_5,124,9999,9999,9999,905371724
378,23,Ticks_Phase_5,125,9999,9999,9999,905871488
378,23,Ticks_Phase_5,126,9999,9999,9999,906371176
378,23,Ticks_Phase_5,127,9999,9999,9999,906871912
378,23,Ticks_Phase_5,128,9999,9999,9999,907371596
378,23,Ticks_Phase_5,129,9999,9999,9999,907871284
378,23,Ticks_Phase_5,130,9999,9999,9999,908372096
378,23,Ticks_Phase_5,131,9999,9999,9999,908971072
378,23,Ticks_Phase_5,132,9999,9999,9999,909471828
378,23,Ticks_Phase_5,133,9999,9999,9999,909971508
378,23,Ticks_Phase_5,134,9999,9999,9999,910471276
378,23,Ticks_Phase_5,135,9999,9999,9999,910972008
378,23,Ticks_Phase_5,136,9999,9999,9999,911471696
378,23,Ticks_Phase_5,137,9999,9999,9999,911971384
378,23,Ticks_Phase_5,138,9999,9999,9999,912471148
378,23,Ticks_Phase_5,139,9999,9999,9999,912971884
378,23,Ticks_Phase_5,140,9999,9999,9999,913471572
378,23,Ticks_Phase_5,141,9999,9999,9999,913971260
378,23,Ticks_Phase_5,142,9999,9999,9999,914471996
378,23,Ticks_Phase_5,143,9999,9999,9999,914971744
378,23,Ticks_Phase_5,144,9999,9999,9999,915471432
378,23,Ticks_Phase_5,145,9999,9999,9999,915971172
378,23,Ticks_Phase_5,146,9999,9999,9999,916471880
378,23,Ticks_Phase_5,147,9999,9999,9999,916971584
378,23,Ticks_Phase_5,148,9999,9999,9999,917471352
378,23,Ticks_Phase_5,149,9999,9999,9999,917972028
378,23,Ticks_Phase_5,150,9999,9999,9999,918371452
378,23,Ticks_Phase_5,151,9999,9999,9999,918871156
378,23,Ticks_Phase_5,152,9999,9999,9999,919371876
378,23,Ticks_Phase_5,153,9999,9999,9999,919871564
378,23,Ticks_Phase_5,154,9999,9999,9999,920371272
378,23,Ticks_Phase_5,155,9999,9999,9999,920872032
378,23,Ticks_Phase_5,156,9999,9999,9999,921371744
378,23,Ticks_Phase_5,157,9999,9999,9999,921871452
378,23,Ticks_Phase_5,158,9999,9999,9999,922371136
378,23,Ticks_Phase_5,159,9999,9999,9999,922871864
378,23,Ticks_Phase_5,160,9999,9999,9999,923371576
378,23,Ticks_Phase_5,161,9999,9999,9999,923871360
378,23,Ticks_Phase_5,162,9999,9999,9999,924372044
378,23,Ticks_Phase_5,163,9999,9999,9999,924871752
378,23,Ticks_Phase_5,164,9999,9999,9999,925371464
378,23,Ticks_Phase_5,165,9999,9999,9999,925871224
378,23,Ticks_Phase_5,166,9999,9999,9999,926371960
378,23,Ticks_Phase_5,167,9999,9999,9999,926871648
378,23,Ticks_Phase_5,168,9999,9999,9999,927371352
378,23,Ticks_Phase_5,169,9999,9999,9999,927872088
379,9,Ticks_ISO_T2_8,0,5,42,127,941135196
379,9,Ticks_ISO_T2_8,1,5,42,127,941935172
379,9,Ticks_ISO_T2_8,2,5,42,127,942734632
379,9,Ticks_ISO_T2_8,3,1,48,22,942763256
379,9,Ticks_ISO_T2_8,4,1,48,19,943498276
379,9,Ticks_ISO_T2_8,5,5,42,127,943534432
379,9,Ticks_ISO_T2_8,6,1,48,18,944286480
379,9,Ticks_ISO_T2_8,7,5,42,127,944335136
379,9,Ticks_ISO_T2_8,8,1,48,19,945099456
379,9,Ticks_ISO_T2_8,9,5,42,127,945134944
379,9,Ticks_ISO_T2_8,10,1,48,17,945907344
379,9,Ticks_ISO_T2_8,11,5,42,127,945934780
379,9,Ticks_ISO_T2_8,12,1,48,24,946703064
379,9,Ticks_ISO_T2_8,13,5,42,127,946734512
379,9,Ticks_ISO_T2_8,14,1,48,27,947515740
379,9,Ticks_ISO_T2_8,15,5,42,127,947535072
379,9,Ticks_ISO_T2_8,16,1,48,20,948263264
379,9,Ticks_ISO_T2_8,17,5,42,127,948334876
379,9,Ticks_ISO_T2_8,18,1,48,24,949061728
379,9,Ticks_ISO_T2_8,19,5,42,127,949134984
379,9,Ticks_ISO_T2_8,20,1,48,27,949912624
379,9,Ticks_ISO_T2_8,21,5,42,127,949934496
379,9,Ticks_ISO_T2_8,22,1,48,23,950709512
379,9,Ticks_ISO_T2_8,23,5,42,127,950735200
379,9,Ticks_ISO_T2_8,24,1,48,29,951485308
379,9,Ticks_ISO_T2_8,25,5,42,127,951535008
379,9,Ticks_ISO_T2_8,26,1,48,25,952283916
379,9,Ticks_ISO_T2_8,27,5,42,127,952335064
379,9,Ticks_ISO_T2_8,28,1,48,27,953100956
379,9,Ticks_ISO_T2_8,29,5,42,127,953134500
379,9,Ticks_ISO_T2_8,30,1,48,25,953923128
379,9,Ticks_ISO_T2_8,31,5,42,127,953935132
379,9,Ticks_ISO_T2_8,32,1,48,29,954669232
379,9,Ticks_ISO_T2_8,33,5,42,127,954734864
379,9,Ticks_ISO_T2_8,34,1,48,27,955493048
379,9,Ticks_ISO_T2_8,35,5,42,127,955534672
379,9,Ticks_ISO_T2_8,36,1,48,29,956331752
379,9,Ticks_ISO_T2_8,37,5,42,127,956334628
379,9,Ticks_ISO_T2_8,38,1,48,27,957084660
379,9,Ticks_ISO_T2_8,39,5,42,127,957135332
379,9,Ticks_ISO_T2_8,40,1,48,28,957874072
379,9,Ticks_ISO_T2_8,41,5,42,127,957934992
379,9,Ticks_ISO_T2_8,42,1,48,26,958695648
379,9,Ticks_ISO_T2_8,43,5,42,127,958734600
379,9,Ticks_ISO_T2_8,44,1,48,27,959508944
379,9,Ticks_ISO_T2_8,45,5,42,127,959534708
379,9,Ticks_ISO_T2_8,46,1,48,28,960280328
379,9,Ticks_ISO_T2_8,47,5,42,127,960335188
379,9,Ticks_ISO_T2_8,48,1,48,28,961086340
379,9,Ticks_ISO_T2_8,49,5,42,127,961134920
379,9,Ticks_ISO_T2_8,50,1,48,32,961862588
379,9,Ticks_ISO_T2_8,51,5,42,127,961934656
379,9,Ticks_ISO_T2_8,52,1,48,30,962676608
379,9,Ticks_ISO_T2_8,53,5,42,127,962734540
379,9,Ticks_ISO_T2_8,54,1,48,28,963494744
379,9,Ticks_ISO_T2_8,55,5,42,127,963535316
379,9,Ticks_ISO_T2_8,56,1,48,29,964314300
379,9,Ticks_ISO_T2_8,57,5,42,127,964334904
379,9,Ticks_ISO_T2_8,58,1,48,28,965132472
379,9,Ticks_ISO_T2_8,59,5,42,127,965134660
379,9,Ticks_ISO_T2_8,60,1,48,30,965891776
379,9,Ticks_ISO_T2_8,61,5,42,127,965934368
379,9,Ticks_ISO_T2_8,62,1,48,32,966685148
379,9,Ticks_ISO_T2_8,63,5,42,127,966735148
379,9,Ticks_ISO_T2_8,64,1,48,28,967463788
379,9,Ticks_ISO_T2_8,65,5,42,127,967534884
379,9,Ticks_ISO_T2_8,66,1,48,31,968303464
379,9,Ticks_ISO_T2_8,67,5,42,127,968334688
379,9,Ticks_ISO_T2_8,68,1,48,27,969098936
379,9,Ticks_ISO_T2_8,69,5,42,127,969134424
379,9,Ticks_ISO_T2_8,70,1,48,30,969923656
379,9,Ticks_ISO_T2_8,71,5,42,127,969935204
379,9,Ticks_ISO_T2_8,72,1,48,29,970707980
379,9,Ticks_ISO_T2_8,73,5,42,127,970735236
379,9,Ticks_ISO_T2_8,74,1,48,34,971505020
379,9,Ticks_ISO_T2_8,75,5,42,127,971534696
379,9,Ticks_ISO_T2_8,76,1,48,33,972297300
379,9,Ticks_ISO_T2_8,77,5,42,127,972334356
379,9,Ticks_ISO_T2_8,78,1,48,32,973122536
379,9,Ticks_ISO_T2_8,79,5,42,127,973135136
379,9,Ticks_ISO_T2_8,80,5,42,127,973935024
379,9,Ticks_ISO_T2_8,81,1,48,35,973951532
379,9,Ticks_ISO_T2_8,82,1,48,36,974647432
379,9,Ticks_ISO_T2_8,83,5,42,127,974734900
379,9,Ticks_ISO_T2_8,84,1,48,36,975432204
379,9,Ticks_ISO_T2_8,85,5,42,127,975534396
379,9,Ticks_ISO_T2_8,86,1,48,40,976307632
379,9,Ticks_ISO_T2_8,87,5,42,127,976335116
379,9,Ticks_ISO_T2_8,88,1,48,38,977105196
379,9,Ticks_ISO_T2_8,89,5,42,127,977135000
379,9,Ticks_ISO_T2_8,90,1,48,36,977898196
379,9,Ticks_ISO_T2_8,91,5,42,127,977934980
379,9,Ticks_ISO_T2_8,92,1,48,32,978700352
379,9,Ticks_ISO_T2_8,93,5,42,127,978734712
379,9,Ticks_ISO_T2_8,94,1,48,36,979437680
379,9,Ticks_ISO_T2_8,95,5,42,127,979535196
379,9,Ticks_ISO_T2_8,96,1,48,32,980305200
379,9,Ticks_ISO_T2_8,97,5,42,127,980334928
379,9,Ticks_ISO_T2_8,98,1,48,36,981117424
379,9,Ticks_ISO_T2_8,99,5,42,127,981134884
379,9,Ticks_ISO_T2_8,100,1,48,29,981921196
379,9,Ticks_ISO_T2_8,101,5,42,127,981934544
379,9,Ticks_ISO_T2_8,102,1,48,37,982723396
379,9,Ticks_ISO_T2_8,103,5,42,127,982735172
379,9,Ticks_ISO_T2_8,104,5,42,127,983535064
379,9,Ticks_ISO_T2_8,105,1,48,32,983585104
379,9,Ticks_ISO_T2_8,106,1,48,35,984284492
379,9,Ticks_ISO_T2_8,107,5,42,127,984334664
379,9,Ticks_ISO_T2_8,108,1,48,36,985013240
379,9,Ticks_ISO_T2_8,109,5,42,127,985134680
379,9,Ticks_ISO_T2_8,110,1,48,38,985870292
379,9,Ticks_ISO_T2_8,111,5,42,127,985935400
379,9,Ticks_ISO_T2_8,112,1,48,38,986672276
379,9,Ticks_ISO_T2_8,113,5,42,127,986734836
379,9,Ticks_ISO_T2_8,114,1,48,43,987472676
379,9,Ticks_ISO_T2_8,115,5,42,127,987534644
379,9,Ticks_ISO_T2_8,116,1,48,38,988251320
379,9,Ticks_ISO_T2_8,117,5,42,127,988334524
379,9,Ticks_ISO_T2_8,118,1,48,36,989083436
379,9,Ticks_ISO_T2_8,119,5,42,127,989135380
379,9,Ticks_ISO_T2_8,120,5,42,127,989934900
379,9,Ticks_ISO_T2_8,121,1,48,26,989939140
379,9,Ticks_ISO_T2_8,122,1,48,25,990649400
379,9,Ticks_ISO_T2_8,123,5,42,127,990734648
379,9,Ticks_ISO_T2_8,124,1,48,27,991406424
379,9,Ticks_ISO_T2_8,125,5,42,127,991534368
379,9,Ticks_ISO_T2_8,126,1,48,38,992311192
379,9,Ticks_ISO_T2_8,127,5,42,127,992335236
379,9,Ticks_ISO_T2_8,128,1,48,45,993097240
379,9,Ticks_ISO_T2_8,129,5,42,127,993134896
379,9,Ticks_ISO_T2_8,130,1,48,36,993874460
379,9,Ticks_ISO_T2_8,131,5,42,127,993934704
379,9,Ticks_ISO_T2_8,132,1,48,19,994673820
379,9,Ticks_ISO_T2_8,133,5,42,127,994734436
379,9,Ticks_ISO_T2_8,134,1,48,16,995505416
379,9,Ticks_ISO_T2_8,135,5,42,127,995535216
379,9,Ticks_ISO_T2_8,136,1,48,17,996253612
379,9,Ticks_ISO_T2_8,137,5,42,127,996335176
379,9,Ticks_ISO_T2_8,138,1,48,25,997040780
379,9,Ticks_ISO_T2_8,139,5,42,127,997135744
379,9,Ticks_ISO_T2_8,140,1,48,33,997877464
379,9,Ticks_ISO_T2_8,141,5,42,127,997934296
379,9,Ticks_ISO_T2_8,142,1,48,27,998725992
379,9,Ticks_ISO_T2_8,143,5,42,127,998735076
379,9,Ticks_ISO_T2_8,144,1,48,24,999509120
379,9,Ticks_ISO_T2_8,145,5,42,127,999535180
379,9,Ticks_ISO_T2_8,146,1,48,22,1000273916
379,9,Ticks_ISO_T2_8,147,5,42,127,1000334840
379,9,Ticks_ISO_T2_8,148,1,48,24,1001015160
379,9,Ticks_ISO_T2_8,149,5,42,127,1001134484
379,9,Ticks_ISO_T2_8,150,1,48,28,1001890740
379,9,Ticks_ISO_T2_8,151,5,42,127,1001935204
379,9,Ticks_ISO_T2_8,152,1,48,24,1002706924
379,9,Ticks_ISO_T2_8,153,5,42,127,1002734864
379,9,Ticks_ISO_T2_8,154,1,48,19,1003480336
379,9,Ticks_ISO_T2_8,155,5,42,127,1003534844
379,9,Ticks_ISO_T2_8,156,1,48,19,1004245284
379,9,Ticks_ISO_T2_8,157,5,42,127,1004334428
379,9,Ticks_ISO_T2_8,158,1,48,18,1005025796
379,9,Ticks_ISO_T2_8,159,5,42,127,1005135120
379,9,Ticks_ISO_T2_8,160,1,48,21,1005883452
379,9,Ticks_ISO_T2_8,161,5,42,127,1005934944
379,9,Ticks_ISO_T2_8,162,1,48,23,1006680040
379,9,Ticks_ISO_T2_8,163,5,42,127,1006734828
379,9,Ticks_ISO_T2_8,164,1,48,27,1007468860
379,9,Ticks_ISO_T2_8,165,5,42,127,1007534488
379,9,Ticks_ISO_T2_8,166,1,48,28,1008264776
379,9,Ticks_ISO_T2_8,167,5,42,127,1008335192
379,9,Ticks_ISO_T2_8,168,1,48,24,1009017312
379,9,Ticks_ISO_T2_8,169,5,42,127,1009134836
379,9,Ticks_ISO_T2_8,170,1,48,20,1009876956
379,9,Ticks_ISO_T2_8,171,5,42,127,1009934612
379,9,Ticks_ISO_T2_8,172,1,48,14,1010717036
379,9,Ticks_ISO_T2_8,173,5,42,127,1010734644
379,9,Ticks_ISO_T2_8,174,1,48,19,1011434460
379,9,Ticks_ISO_T2_8,175,5,42,127,1011535484
379,9,Ticks_ISO_T2_8,176,1,48,22,1012242900
379,9,Ticks_ISO_T2_8,177,5,42,127,1012335008
379,9,Ticks_ISO_T2_8,178,1,48,20,1013058488
379,9,Ticks_ISO_T2_8,179,5,42,127,1013134740
379,9,Ticks_ISO_T2_8,180,1,48,17,1013890760
379,9,Ticks_ISO_T2_8,181,5,42,127,1013934548
379,9,Ticks_ISO_T2_8,182,1,48,19,1014651224
379,9,Ticks_ISO_T2_8,183,5,42,127,1014735476
379,9,Ticks_ISO_T2_8,184,5,42,127,1015534996
379,9,Ticks_ISO_T2_8,185,5,42,127,1016334700
379,9,Ticks_ISO_T2_8,186,5,42,127,1017134380
379,9,Ticks_ISO_T2_8,187,1,48,13,1017831296
379,9,Ticks_ISO_T2_8,188,5,42,127,1017935384
379,9,Ticks_ISO_T2_8,189,1,48,22,1018660748
379,9,Ticks_ISO_T2_8,190,5,42,127,1018735056
379,9,Ticks_ISO_T2_8,191,1,48,22,1019483968
379,9,Ticks_ISO_T2_8,192,5,42,127,1019534644
379,9,Ticks_ISO_T2_8,193,1,48,17,1020264328
379,9,Ticks_ISO_T2_8,194,5,42,127,1020334376
379,9,Ticks_ISO_T2_8,195,1,48,14,1021055312
379,9,Ticks_ISO_T2_8,196,5,42,127,1021135228
379,9,Ticks_ISO_T2_8,197,5,42,127,1021935196
379,9,Ticks_ISO_T2_8,198,1,48,17,1022620320
379,9,Ticks_ISO_T2_8,199,5,42,127,1022734656
379,9,Ticks_ISO_T2_8,200,5,42,127,1023534412
379,9,Ticks_ISO_T2_8,201,1,48,16,1024227812
379,9,Ticks_ISO_T2_8,202,5,42,127,1024335336
379,9,Ticks_ISO_T2_8,203,5,42,127,1025135244
379,9,Ticks_ISO_T2_8,204,1,48,13,1025866520
379,9,Ticks_ISO_T2_8,205,5,42,127,1025934844
379,9,Ticks_ISO_T2_8,206,1,48,15,1026717868
379,9,Ticks_ISO_T2_8,207,5,42,127,1026734428
379,9,Ticks_ISO_T2_8,208,1,48,15,1027508624
379,9,Ticks_ISO_T2_8,209,5,42,127,1027535284
379,9,Ticks_ISO_T2_8,210,5,42,127,1028335100
379,9,Ticks_ISO_T2_8,211,1,48,22,1029087020
379,9,Ticks_ISO_T2_8,212,5,42,127,1029134872
379,9,Ticks_ISO_T2_8,213,1,48,18,1029926420
379,9,Ticks_ISO_T2_8,214,5,42,127,1029934312
379,9,Ticks_ISO_T2_8,215,1,48,20,1030631888
379,9,Ticks_ISO_T2_8,216,5,42,127,1030735296
379,9,Ticks_ISO_T2_8,217,5,42,127,1031535052
379,9,Ticks_ISO_T2_8,218,1,48,20,1032218604
379,9,Ticks_ISO_T2_8,219,5,42,127,1032334860
379,9,Ticks_ISO_T2_8,220,1,48,21,1033008620
379,9,Ticks_ISO_T2_8,221,5,42,127,1033134520
379,9,Ticks_ISO_T2_8,222,5,42,127,1033935176
379,9,Ticks_ISO_T2_8,223,1,48,22,1034585368
379,9,Ticks_ISO_T2_8,224,5,42,127,1034734908
379,9,Ticks_ISO_T2_8,225,1,48,13,1035501716
379,9,Ticks_ISO_T2_8,226,5,42,127,1035534756
379,9,Ticks_ISO_T2_8,227,1,48,17,1036266360
379,9,Ticks_ISO_T2_8,228,5,42,127,1036334564
379,9,Ticks_ISO_T2_8,229,1,48,15,1037046500
379,9,Ticks_ISO_T2_8,0,9999,9999,9999,941132908
379,9,Ticks_ISO_T2_8,1,9999,9999,9999,941932664
379,9,Ticks_ISO_T2_8,2,9999,9999,9999,942732344
379,9,Ticks_ISO_T2_8,3,9999,9999,9999,943532144
379,9,Ticks_ISO_T2_8,4,9999,9999,9999,944332848
379,9,Ticks_ISO_T2_8,5,9999,9999,9999,945132656
379,9,Ticks_ISO_T2_8,6,9999,9999,9999,945932344
379,9,Ticks_ISO_T2_8,7,9999,9999,9999,946732152
379,9,Ticks_ISO_T2_8,8,9999,9999,9999,947532856
379,9,Ticks_ISO_T2_8,9,9999,9999,9999,948332588
379,9,Ticks_ISO_T2_8,10,9999,9999,9999,949132400
379,9,Ticks_ISO_T2_8,11,9999,9999,9999,949932132
379,9,Ticks_ISO_T2_8,12,9999,9999,9999,950732912
379,9,Ticks_ISO_T2_8,13,9999,9999,9999,951532644
379,9,Ticks_ISO_T2_8,14,9999,9999,9999,952332400
379,9,Ticks_ISO_T2_8,15,9999,9999,9999,953132136
379,9,Ticks_ISO_T2_8,16,9999,9999,9999,953932916
379,9,Ticks_ISO_T2_8,17,9999,9999,9999,954732648
379,9,Ticks_ISO_T2_8,18,9999,9999,9999,955532384
379,9,Ticks_ISO_T2_8,19,9999,9999,9999,956332116
379,9,Ticks_ISO_T2_8,20,9999,9999,9999,957132896
379,9,Ticks_ISO_T2_8,21,9999,9999,9999,957932632
379,9,Ticks_ISO_T2_8,22,9999,9999,9999,958732388
379,9,Ticks_ISO_T2_8,23,9999,9999,9999,959532120
379,9,Ticks_ISO_T2_8,24,9999,9999,9999,960332900
379,9,Ticks_ISO_T2_8,25,9999,9999,9999,961132632
379,9,Ticks_ISO_T2_8,26,9999,9999,9999,961932368
379,9,Ticks_ISO_T2_8,27,9999,9999,9999,962732100
379,9,Ticks_ISO_T2_8,28,9999,9999,9999,963532880
379,9,Ticks_ISO_T2_8,29,9999,9999,9999,964332612
379,9,Ticks_ISO_T2_8,30,9999,9999,9999,965132344
379,9,Ticks_ISO_T2_8,31,9999,9999,9999,965932080
379,9,Ticks_ISO_T2_8,32,9999,9999,9999,966732860
379,9,Ticks_ISO_T2_8,33,9999,9999,9999,967532596
379,9,Ticks_ISO_T2_8,34,9999,9999,9999,968332404
379,9,Ticks_ISO_T2_8,35,9999,9999,9999,969132136
379,9,Ticks_ISO_T2_8,36,9999,9999,9999,969932916
379,9,Ticks_ISO_T2_8,37,9999,9999,9999,970732652
379,9,Ticks_ISO_T2_8,38,9999,9999,9999,971532336
379,9,Ticks_ISO_T2_8,39,9999,9999,9999,972332140
379,9,Ticks_ISO_T2_8,40,9999,9999,9999,973132848
379,9,Ticks_ISO_T2_8,41,9999,9999,9999,973932664
379,9,Ticks_ISO_T2_8,42,9999,9999,9999,974732388
379,9,Ticks_ISO_T2_8,43,9999,9999,9999,975532108
379,9,Ticks_ISO_T2_8,44,9999,9999,9999,976332904
379,9,Ticks_ISO_T2_8,45,9999,9999,9999,977132636
379,9,Ticks_ISO_T2_8,46,9999,9999,9999,977932396
379,9,Ticks_ISO_T2_8,47,9999,9999,9999,978732128
379,9,Ticks_ISO_T2_8,48,9999,9999,9999,979532908
379,9,Ticks_ISO_T2_8,49,9999,9999,9999,980332640
379,9,Ticks_ISO_T2_8,50,9999,9999,9999,981132372
379,9,Ticks_ISO_T2_8,51,9999,9999,9999,981932108
379,9,Ticks_ISO_T2_8,52,9999,9999,9999,982732884
379,9,Ticks_ISO_T2_8,53,9999,9999,9999,983532624
379,9,Ticks_ISO_T2_8,54,9999,9999,9999,984332376
379,9,Ticks_ISO_T2_8,55,9999,9999,9999,985132096
379,9,Ticks_ISO_T2_8,56,9999,9999,9999,985932892
379,9,Ticks_ISO_T2_8,57,9999,9999,9999,986732624
379,9,Ticks_ISO_T2_8,58,9999,9999,9999,987532356
379,9,Ticks_ISO_T2_8,59,9999,9999,9999,988332088
379,9,Ticks_ISO_T2_8,60,9999,9999,9999,989132868
379,9,Ticks_ISO_T2_8,61,9999,9999,9999,989932608
379,9,Ticks_ISO_T2_8,62,9999,9999,9999,990732360
379,9,Ticks_ISO_T2_8,63,9999,9999,9999,991532080
379,9,Ticks_ISO_T2_8,64,9999,9999,9999,992332876
379,9,Ticks_ISO_T2_8,65,9999,9999,9999,993132608
379,9,Ticks_ISO_T2_8,66,9999,9999,9999,993932344
379,9,Ticks_ISO_T2_8,67,9999,9999,9999,994732148
379,9,Ticks_ISO_T2_8,68,9999,9999,9999,995532856
379,9,Ticks_ISO_T2_8,69,9999,9999,9999,996332588
379,9,Ticks_ISO_T2_8,70,9999,9999,9999,997132348
379,9,Ticks_ISO_T2_8,71,9999,9999,9999,997932080
379,9,Ticks_ISO_T2_8,72,9999,9999,9999,998732860
379,9,Ticks_ISO_T2_8,73,9999,9999,9999,999532596
379,9,Ticks_ISO_T2_8,74,9999,9999,9999,1000332404
379,9,Ticks_ISO_T2_8,75,9999,9999,9999,1001132120
379,9,Ticks_ISO_T2_8,76,9999,9999,9999,1001932916
379,9,Ticks_ISO_T2_8,77,9999,9999,9999,1002732648
379,9,Ticks_ISO_T2_8,78,9999,9999,9999,1003532332
379,9,Ticks_ISO_T2_8,79,9999,9999,9999,1004332140
379,9,Ticks_ISO_T2_8,80,9999,9999,9999,1005132904
379,9,Ticks_ISO_T2_8,81,9999,9999,9999,1005932656
379,9,Ticks_ISO_T2_8,82,9999,9999,9999,1006732392
379,9,Ticks_ISO_T2_8,83,9999,9999,9999,1007532128
379,9,Ticks_ISO_T2_8,84,9999,9999,9999,1008332904
379,9,Ticks_ISO_T2_8,85,9999,9999,9999,1009132624
379,9,Ticks_ISO_T2_8,86,9999,9999,9999,1009932396
379,9,Ticks_ISO_T2_8,87,9999,9999,9999,1010732132
379,9,Ticks_ISO_T2_8,88,9999,9999,9999,1011532896
379,9,Ticks_ISO_T2_8,89,9999,9999,9999,1012332644
379,9,Ticks_ISO_T2_8,90,9999,9999,9999,1013132380
379,9,Ticks_ISO_T2_8,91,9999,9999,9999,1013932112
379,9,Ticks_ISO_T2_8,92,9999,9999,9999,1014732892
379,9,Ticks_ISO_T2_8,93,9999,9999,9999,1015532632
379,9,Ticks_ISO_T2_8,94,9999,9999,9999,1016332336
379,9,Ticks_ISO_T2_8,95,9999,9999,9999,1017132092
379,9,Ticks_ISO_T2_8,96,9999,9999,9999,1017932872
379,9,Ticks_ISO_T2_8,97,9999,9999,9999,1018732620
379,9,Ticks_ISO_T2_8,98,9999,9999,9999,1019532356
379,9,Ticks_ISO_T2_8,99,9999,9999,9999,1020332088
379,9,Ticks_ISO_T2_8,100,9999,9999,9999,1021132868
379,9,Ticks_ISO_T2_8,101,9999,9999,9999,1021932608
379,9,Ticks_ISO_T2_8,102,9999,9999,9999,1022732368
379,9,Ticks_ISO_T2_8,103,9999,9999,9999,1023532124
379,9,Ticks_ISO_T2_8,104,9999,9999,9999,1024332900
379,9,Ticks_ISO_T2_8,105,9999,9999,9999,1025132656
379,9,Ticks_ISO_T2_8,106,9999,9999,9999,1025932408
379,9,Ticks_ISO_T2_8,107,9999,9999,9999,1026732140
379,9,Ticks_ISO_T2_8,108,9999,9999,9999,1027532848
379,9,Ticks_ISO_T2_8,109,9999,9999,9999,1028332664
379,9,Ticks_ISO_T2_8,110,9999,9999,9999,1029132364
379,9,Ticks_ISO_T2_8,111,9999,9999,9999,1029932096
379,9,Ticks_ISO_T2_8,112,9999,9999,9999,1030732860
379,9,Ticks_ISO_T2_8,113,9999,9999,9999,1031532616
379,9,Ticks_ISO_T2_8,114,9999,9999,9999,1032332348
379,9,Ticks_ISO_T2_8,115,9999,9999,9999,1033132084
379,9,Ticks_ISO_T2_8,116,9999,9999,9999,1033932888
379,9,Ticks_ISO_T2_8,117,9999,9999,9999,1034732620
379,9,Ticks_ISO_T2_8,118,9999,9999,9999,1035532396
379,9,Ticks_ISO_T2_8,119,9999,9999,9999,1036332124
3710,10,Ticks_ISO_T2_5,0,5,42,127,1075765548
3710,10,Ticks_ISO_T2_5,1,5,42,127,1076266236
3710,10,Ticks_ISO_T2_5,2,1,48,25,1076437800
3710,10,Ticks_ISO_T2_5,3,1,48,33,1076727048
3710,10,Ticks_ISO_T2_5,4,5,42,127,1076766000
3710,10,Ticks_ISO_T2_5,5,1,48,42,1077209012
3710,10,Ticks_ISO_T2_5,6,5,42,127,1077265992
3710,10,Ticks_ISO_T2_5,7,1,48,32,1077724268
3710,10,Ticks_ISO_T2_5,8,5,42,127,1077765388
3710,10,Ticks_ISO_T2_5,9,1,48,28,1078228228
3710,10,Ticks_ISO_T2_5,10,5,42,127,1078266104
3710,10,Ticks_ISO_T2_5,11,1,48,38,1078754328
3710,10,Ticks_ISO_T2_5,12,5,42,127,1078766024
3710,10,Ticks_ISO_T2_5,13,5,42,127,1079265576
3710,10,Ticks_ISO_T2_5,14,1,48,30,1079266544
3710,10,Ticks_ISO_T2_5,15,1,48,26,1079754984
3710,10,Ticks_ISO_T2_5,16,5,42,127,1079766312
3710,10,Ticks_ISO_T2_5,17,1,48,25,1080231712
3710,10,Ticks_ISO_T2_5,18,5,42,127,1080266080
3710,10,Ticks_ISO_T2_5,19,1,48,34,1080748464
3710,10,Ticks_ISO_T2_5,20,5,42,127,1080765700
3710,10,Ticks_ISO_T2_5,21,1,48,29,1081208812
3710,10,Ticks_ISO_T2_5,22,5,42,127,1081265764
3710,10,Ticks_ISO_T2_5,23,1,48,35,1081747776
3710,10,Ticks_ISO_T2_5,24,5,42,127,1081766208
3710,10,Ticks_ISO_T2_5,25,1,48,29,1082237976
3710,10,Ticks_ISO_T2_5,26,5,42,127,1082265904
3710,10,Ticks_ISO_T2_5,27,1,48,32,1082741628
3710,10,Ticks_ISO_T2_5,28,5,42,127,1082765676
3710,10,Ticks_ISO_T2_5,29,1,48,33,1083206848
3710,10,Ticks_ISO_T2_5,30,5,42,127,1083266344
3710,10,Ticks_ISO_T2_5,31,1,48,29,1083720752
3710,10,Ticks_ISO_T2_5,32,5,42,127,1083766184
3710,10,Ticks_ISO_T2_5,33,5,42,127,1084265884
3710,10,Ticks_ISO_T2_5,34,1,48,30,1084274388
3710,10,Ticks_ISO_T2_5,35,1,48,31,1084720140
3710,10,Ticks_ISO_T2_5,36,5,42,127,1084765724
3710,10,Ticks_ISO_T2_5,37,1,48,27,1085236136
3710,10,Ticks_ISO_T2_5,38,5,42,127,1085266240
3710,10,Ticks_ISO_T2_5,39,1,48,28,1085709952
3710,10,Ticks_ISO_T2_5,40,5,42,127,1085765860
3710,10,Ticks_ISO_T2_5,41,1,48,28,1086235004
3710,10,Ticks_ISO_T2_5,42,5,42,127,1086265632
3710,10,Ticks_ISO_T2_5,43,1,48,35,1086728716
3710,10,Ticks_ISO_T2_5,44,5,42,127,1086765552
3710,10,Ticks_ISO_T2_5,45,1,48,32,1087207968
3710,10,Ticks_ISO_T2_5,46,5,42,127,1087266140
3710,10,Ticks_ISO_T2_5,47,1,48,30,1087761768
3710,10,Ticks_ISO_T2_5,48,5,42,127,1087765984
3710,10,Ticks_ISO_T2_5,49,1,48,31,1088219400
3710,10,Ticks_ISO_T2_5,50,5,42,127,1088265456
3710,10,Ticks_ISO_T2_5,51,1,48,38,1088724552
3710,10,Ticks_ISO_T2_5,52,5,42,127,1088766420
3710,10,Ticks_ISO_T2_5,53,1,48,33,1089210560
3710,10,Ticks_ISO_T2_5,54,5,42,127,1089266536
3710,10,Ticks_ISO_T2_5,55,1,48,36,1089745332
3710,10,Ticks_ISO_T2_5,56,5,42,127,1089765712
3710,10,Ticks_ISO_T2_5,57,1,48,36,1090218624
3710,10,Ticks_ISO_T2_5,58,5,42,127,1090265408
3710,10,Ticks_ISO_T2_5,59,1,48,36,1090739564
3710,10,Ticks_ISO_T2_5,60,5,42,127,1090766296
3710,10,Ticks_ISO_T2_5,61,1,48,29,1091251748
3710,10,Ticks_ISO_T2_5,62,5,42,127,1091265768
3710,10,Ticks_ISO_T2_5,63,1,48,36,1091736480
3710,10,Ticks_ISO_T2_5,64,5,42,127,1091765464
3710,10,Ticks_ISO_T2_5,65,1,48,37,1092255400
3710,10,Ticks_ISO_T2_5,66,5,42,127,1092266280
3710,10,Ticks_ISO_T2_5,67,1,48,35,1092755240
3710,10,Ticks_ISO_T2_5,68,5,42,127,1092766344
3710,10,Ticks_ISO_T2_5,69,1,48,37,1093243568
3710,10,Ticks_ISO_T2_5,70,5,42,127,1093265892
3710,10,Ticks_ISO_T2_5,71,5,42,127,1093765444
3710,10,Ticks_ISO_T2_5,72,1,48,31,1093769536
3710,10,Ticks_ISO_T2_5,73,1,48,29,1094247368
3710,10,Ticks_ISO_T2_5,74,5,42,127,1094266700
3710,10,Ticks_ISO_T2_5,75,1,48,28,1094747740
3710,10,Ticks_ISO_T2_5,76,5,42,127,1094766024
3710,10,Ticks_ISO_T2_5,77,1,48,34,1095222304
3710,10,Ticks_ISO_T2_5,78,5,42,127,1095265568
3710,10,Ticks_ISO_T2_5,79,5,42,127,1095766320
3710,10,Ticks_ISO_T2_5,80,1,48,33,1095771076
3710,10,Ticks_ISO_T2_5,81,1,48,34,1096239640
3710,10,Ticks_ISO_T2_5,82,5,42,127,1096266076
3710,10,Ticks_ISO_T2_5,83,1,48,29,1096735740
3710,10,Ticks_ISO_T2_5,84,5,42,127,1096765772
3710,10,Ticks_ISO_T2_5,85,1,48,33,1097242700
3710,10,Ticks_ISO_T2_5,86,5,42,127,1097265468
3710,10,Ticks_ISO_T2_5,87,1,48,35,1097752264
3710,10,Ticks_ISO_T2_5,88,5,42,127,1097766208
3710,10,Ticks_ISO_T2_5,89,1,48,34,1098232708
3710,10,Ticks_ISO_T2_5,90,5,42,127,1098266200
3710,10,Ticks_ISO_T2_5,91,1,48,34,1098744520
3710,10,Ticks_ISO_T2_5,92,5,42,127,1098765600
3710,10,Ticks_ISO_T2_5,93,5,42,127,1099266424
3710,10,Ticks_ISO_T2_5,94,1,48,30,1099267984
3710,10,Ticks_ISO_T2_5,95,1,48,34,1099721772
3710,10,Ticks_ISO_T2_5,96,5,42,127,1099766084
3710,10,Ticks_ISO_T2_5,97,1,48,34,1100215408
3710,10,Ticks_ISO_T2_5,98,5,42,127,1100266076
3710,10,Ticks_ISO_T2_5,99,1,48,34,1100763736
3710,10,Ticks_ISO_T2_5,100,5,42,127,1100765548
3710,10,Ticks_ISO_T2_5,101,1,48,27,1101239480
3710,10,Ticks_ISO_T2_5,102,5,42,127,1101266140
3710,10,Ticks_ISO_T2_5,103,1,48,35,1101728400
3710,10,Ticks_ISO_T2_5,104,5,42,127,1101765908
3710,10,Ticks_ISO_T2_5,105,1,48,31,1102240512
3710,10,Ticks_ISO_T2_5,106,5,42,127,1102265828
3710,10,Ticks_ISO_T2_5,107,1,48,32,1102756144
3710,10,Ticks_ISO_T2_5,108,5,42,127,1102765452
3710,10,Ticks_ISO_T2_5,109,1,48,35,1103244240
3710,10,Ticks_ISO_T2_5,110,5,42,127,1103266116
3710,10,Ticks_ISO_T2_5,111,1,48,30,1103732640
3710,10,Ticks_ISO_T2_5,112,5,42,127,1103766036
3710,10,Ticks_ISO_T2_5,113,1,48,30,1104248420
3710,10,Ticks_ISO_T2_5,114,5,42,127,1104265584
3710,10,Ticks_ISO_T2_5,115,5,42,127,1104766256
3710,10,Ticks_ISO_T2_5,116,1,48,32,1104778052
3710,10,Ticks_ISO_T2_5,117,1,48,29,1105262772
3710,10,Ticks_ISO_T2_5,118,5,42,127,1105266024
3710,10,Ticks_ISO_T2_5,119,1,48,32,1105709584
3710,10,Ticks_ISO_T2_5,120,5,42,127,1105765792
3710,10,Ticks_ISO_T2_5,121,1,48,28,1106211904
3710,10,Ticks_ISO_T2_5,122,5,42,127,1106265340
3710,10,Ticks_ISO_T2_5,123,1,48,29,1106720196
3710,10,Ticks_ISO_T2_5,124,5,42,127,1106766084
3710,10,Ticks_ISO_T2_5,125,1,48,28,1107242632
3710,10,Ticks_ISO_T2_5,126,5,42,127,1107265852
3710,10,Ticks_ISO_T2_5,127,1,48,25,1107740084
3710,10,Ticks_ISO_T2_5,128,5,42,127,1107765700
3710,10,Ticks_ISO_T2_5,129,1,48,34,1108239252
3710,10,Ticks_ISO_T2_5,130,5,42,127,1108266292
3710,10,Ticks_ISO_T2_5,131,1,48,25,1108732520
3710,10,Ticks_ISO_T2_5,132,5,42,127,1108765988
3710,10,Ticks_ISO_T2_5,133,1,48,26,1109244332
3710,10,Ticks_ISO_T2_5,134,5,42,127,1109265760
3710,10,Ticks_ISO_T2_5,135,1,48,29,1109718124
3710,10,Ticks_ISO_T2_5,136,5,42,127,1109765676
3710,10,Ticks_ISO_T2_5,137,1,48,28,1110234200
3710,10,Ticks_ISO_T2_5,138,5,42,127,1110266192
3710,10,Ticks_ISO_T2_5,139,1,48,31,1110761496
3710,10,Ticks_ISO_T2_5,140,5,42,127,1110765864
3710,10,Ticks_ISO_T2_5,141,1,48,29,1111233512
3710,10,Ticks_ISO_T2_5,142,5,42,127,1111265708
3710,10,Ticks_ISO_T2_5,143,1,48,32,1111722736
3710,10,Ticks_ISO_T2_5,144,5,42,127,1111766528
3710,10,Ticks_ISO_T2_5,145,1,48,29,1112243452
3710,10,Ticks_ISO_T2_5,146,5,42,127,1112266072
3710,10,Ticks_ISO_T2_5,147,1,48,32,1112742024
3710,10,Ticks_ISO_T2_5,148,5,42,127,1112765692
3710,10,Ticks_ISO_T2_5,149,1,48,36,1113238580
3710,10,Ticks_ISO_T2_5,150,5,42,127,1113265612
3710,10,Ticks_ISO_T2_5,151,1,48,35,1113765832
3710,10,Ticks_ISO_T2_5,152,5,42,127,1113767624
3710,10,Ticks_ISO_T2_5,153,5,42,127,1114265908
3710,10,Ticks_ISO_T2_5,154,1,48,36,1114284808
3710,10,Ticks_ISO_T2_5,155,1,48,33,1114738036
3710,10,Ticks_ISO_T2_5,156,5,42,127,1114765820
3710,10,Ticks_ISO_T2_5,157,1,48,31,1115219332
3710,10,Ticks_ISO_T2_5,158,5,42,127,1115266564
3710,10,Ticks_ISO_T2_5,159,1,48,37,1115728376
3710,10,Ticks_ISO_T2_5,160,5,42,127,1115766256
3710,10,Ticks_ISO_T2_5,161,1,48,27,1116200320
3710,10,Ticks_ISO_T2_5,162,5,42,127,1116265800
3710,10,Ticks_ISO_T2_5,163,1,48,36,1116736140
3710,10,Ticks_ISO_T2_5,164,5,42,127,1116765496
3710,10,Ticks_ISO_T2_5,165,1,48,34,1117231352
3710,10,Ticks_ISO_T2_5,166,5,42,127,1117266240
3710,10,Ticks_ISO_T2_5,167,1,48,37,1117761112
3710,10,Ticks_ISO_T2_5,168,5,42,127,1117765860
3710,10,Ticks_ISO_T2_5,169,1,48,40,1118259316
3710,10,Ticks_ISO_T2_5,170,5,42,127,1118265780
3710,10,Ticks_ISO_T2_5,171,1,48,36,1118753544
3710,10,Ticks_ISO_T2_5,172,5,42,127,1118765400
3710,10,Ticks_ISO_T2_5,173,1,48,35,1119236712
3710,10,Ticks_ISO_T2_5,174,5,42,127,1119266436
3710,10,Ticks_ISO_T2_5,175,1,48,34,1119712596
3710,10,Ticks_ISO_T2_5,176,5,42,127,1119765836
3710,10,Ticks_ISO_T2_5,177,1,48,32,1120230236
3710,10,Ticks_ISO_T2_5,178,5,42,127,1120265452
3710,10,Ticks_ISO_T2_5,179,1,48,32,1120732256
3710,10,Ticks_ISO_T2_5,180,5,42,127,1120766268
3710,10,Ticks_ISO_T2_5,181,1,48,28,1121194472
3710,10,Ticks_ISO_T2_5,182,5,42,127,1121266236
3710,10,Ticks_ISO_T2_5,183,1,48,39,1121728580
3710,10,Ticks_ISO_T2_5,184,5,42,127,1121765636
3710,10,Ticks_ISO_T2_5,185,1,48,38,1122258864
3710,10,Ticks_ISO_T2_5,186,5,42,127,1122265332
3710,10,Ticks_ISO_T2_5,187,5,42,127,1122766228
3710,10,Ticks_ISO_T2_5,188,1,48,30,1122767420
3710,10,Ticks_ISO_T2_5,189,5,42,127,1123266000
3710,10,Ticks_ISO_T2_5,190,1,48,33,1123268972
3710,10,Ticks_ISO_T2_5,191,1,48,34,1123755780
3710,10,Ticks_ISO_T2_5,192,5,42,127,1123765612
3710,10,Ticks_ISO_T2_5,193,1,48,39,1124253904
3710,10,Ticks_ISO_T2_5,194,5,42,127,1124266280
3710,10,Ticks_ISO_T2_5,195,1,48,36,1124755316
3710,10,Ticks_ISO_T2_5,196,5,42,127,1124766048
3710,10,Ticks_ISO_T2_5,197,1,48,42,1125239008
3710,10,Ticks_ISO_T2_5,198,5,42,127,1125265744
3710,10,Ticks_ISO_T2_5,199,1,48,35,1125705116
3710,10,Ticks_ISO_T2_5,200,5,42,127,1125765364
3710,10,Ticks_ISO_T2_5,201,1,48,44,1126205108
3710,10,Ticks_ISO_T2_5,202,5,42,127,1126266180
3710,10,Ticks_ISO_T2_5,203,1,48,35,1126756040
3710,10,Ticks_ISO_T2_5,204,5,42,127,1126766096
3710,10,Ticks_ISO_T2_5,205,1,48,37,1127254388
3710,10,Ticks_ISO_T2_5,206,5,42,127,1127265568
3710,10,Ticks_ISO_T2_5,207,1,48,41,1127746452
3710,10,Ticks_ISO_T2_5,208,5,42,127,1127766388
3710,10,Ticks_ISO_T2_5,209,1,48,43,1128236352
3710,10,Ticks_ISO_T2_5,210,5,42,127,1128266076
3710,10,Ticks_ISO_T2_5,211,1,48,48,1128724300
3710,10,Ticks_ISO_T2_5,212,5,42,127,1128766072
3710,10,Ticks_ISO_T2_5,213,1,48,44,1129228340
3710,10,Ticks_ISO_T2_5,214,5,42,127,1129265616
3710,10,Ticks_ISO_T2_5,215,1,48,50,1129737604
3710,10,Ticks_ISO_T2_5,216,5,42,127,1129766284
3710,10,Ticks_ISO_T2_5,217,1,48,45,1130246200
3710,10,Ticks_ISO_T2_5,218,5,42,127,1130266052
3710,10,Ticks_ISO_T2_5,219,1,48,40,1130741080
3710,10,Ticks_ISO_T2_5,220,5,42,127,1130765748
3710,10,Ticks_ISO_T2_5,221,1,48,35,1131260996
3710,10,Ticks_ISO_T2_5,222,5,42,127,1131266340
3710,10,Ticks_ISO_T2_5,223,1,48,36,1131763432
3710,10,Ticks_ISO_T2_5,224,5,42,127,1131766156
3710,10,Ticks_ISO_T2_5,225,1,48,34,1132244052
3710,10,Ticks_ISO_T2_5,226,5,42,127,1132265924
3710,10,Ticks_ISO_T2_5,227,1,48,43,1132729236
3710,10,Ticks_ISO_T2_5,228,5,42,127,1132765624
3710,10,Ticks_ISO_T2_5,229,1,48,42,1133215320
3710,10,Ticks_ISO_T2_5,230,5,42,127,1133266140
3710,10,Ticks_ISO_T2_5,231,1,48,38,1133722564
3710,10,Ticks_ISO_T2_5,232,5,42,127,1133765984
3710,10,Ticks_ISO_T2_5,233,1,48,30,1134224584
3710,10,Ticks_ISO_T2_5,234,5,42,127,1134265680
3710,10,Ticks_ISO_T2_5,235,1,48,43,1134730184
3710,10,Ticks_ISO_T2_5,236,5,42,127,1134765896
3710,10,Ticks_ISO_T2_5,237,1,48,36,1135239976
3710,10,Ticks_ISO_T2_5,238,5,42,127,1135266264
3710,10,Ticks_ISO_T2_5,239,1,48,41,1135754036
3710,10,Ticks_ISO_T2_5,240,5,42,127,1135765888
3710,10,Ticks_ISO_T2_5,241,1,48,46,1136241840
3710,10,Ticks_ISO_T2_5,242,5,42,127,1136265728
3710,10,Ticks_ISO_T2_5,243,1,48,40,1136752976
3710,10,Ticks_ISO_T2_5,244,5,42,127,1136766396
3710,10,Ticks_ISO_T2_5,245,1,48,43,1137239360
3710,10,Ticks_ISO_T2_5,246,5,42,127,1137266016
3710,10,Ticks_ISO_T2_5,247,5,42,127,1137765644
3710,10,Ticks_ISO_T2_5,248,1,48,46,1137768240
3710,10,Ticks_ISO_T2_5,249,5,42,127,1138265712
3710,10,Ticks_ISO_T2_5,250,1,48,40,1138269056
3710,10,Ticks_ISO_T2_5,251,1,48,44,1138760884
3710,10,Ticks_ISO_T2_5,252,5,42,127,1138766148
3710,10,Ticks_ISO_T2_5,253,1,48,43,1139244716
3710,10,Ticks_ISO_T2_5,254,5,42,127,1139265768
3710,10,Ticks_ISO_T2_5,255,1,48,43,1139721972
3710,10,Ticks_ISO_T2_5,256,5,42,127,1139765688
3710,10,Ticks_ISO_T2_5,257,1,48,32,1140230196
3710,10,Ticks_ISO_T2_5,258,5,42,127,1140266576
3710,10,Ticks_ISO_T2_5,259,1,48,46,1140719464
3710,10,Ticks_ISO_T2_5,0,9999,9999,9999,1075763264
3710,10,Ticks_ISO_T2_5,1,9999,9999,9999,1076264024
3710,10,Ticks_ISO_T2_5,2,9999,9999,9999,1076763712
3710,10,Ticks_ISO_T2_5,3,9999,9999,9999,1077263480
3710,10,Ticks_ISO_T2_5,4,9999,9999,9999,1077763176
3710,10,Ticks_ISO_T2_5,5,9999,9999,9999,1078263892
3710,10,Ticks_ISO_T2_5,6,9999,9999,9999,1078763588
3710,10,Ticks_ISO_T2_5,7,9999,9999,9999,1079263288
3710,10,Ticks_ISO_T2_5,8,9999,9999,9999,1079764024
3710,10,Ticks_ISO_T2_5,9,9999,9999,9999,1080263792
3710,10,Ticks_ISO_T2_5,10,9999,9999,9999,1080763488
3710,10,Ticks_ISO_T2_5,11,9999,9999,9999,1081263184
3710,10,Ticks_ISO_T2_5,12,9999,9999,9999,1081763924
3710,10,Ticks_ISO_T2_5,13,9999,9999,9999,1082263620
3710,10,Ticks_ISO_T2_5,14,9999,9999,9999,1082763316
3710,10,Ticks_ISO_T2_5,15,9999,9999,9999,1083264056
3710,10,Ticks_ISO_T2_5,16,9999,9999,9999,1083763824
3710,10,Ticks_ISO_T2_5,17,9999,9999,9999,1084263524
3710,10,Ticks_ISO_T2_5,18,9999,9999,9999,1084763212
3710,10,Ticks_ISO_T2_5,19,9999,9999,9999,1085263956
3710,10,Ticks_ISO_T2_5,20,9999,9999,9999,1085763648
3710,10,Ticks_ISO_T2_5,21,9999,9999,9999,1086263344
3710,10,Ticks_ISO_T2_5,22,9999,9999,9999,1086763116
3710,10,Ticks_ISO_T2_5,23,9999,9999,9999,1087263856
3710,10,Ticks_ISO_T2_5,24,9999,9999,9999,1087763552
3710,10,Ticks_ISO_T2_5,25,9999,9999,9999,1088263244
3710,10,Ticks_ISO_T2_5,26,9999,9999,9999,1088763988
3710,10,Ticks_ISO_T2_5,27,9999,9999,9999,1089263732
3710,10,Ticks_ISO_T2_5,28,9999,9999,9999,1089763424
3710,10,Ticks_ISO_T2_5,29,9999,9999,9999,1090263120
3710,10,Ticks_ISO_T2_5,30,9999,9999,9999,1090763864
3710,10,Ticks_ISO_T2_5,31,9999,9999,9999,1091263556
3710,10,Ticks_ISO_T2_5,32,9999,9999,9999,1091763252
3710,10,Ticks_ISO_T2_5,33,9999,9999,9999,1092263992
3710,10,Ticks_ISO_T2_5,34,9999,9999,9999,1092763764
3710,10,Ticks_ISO_T2_5,35,9999,9999,9999,1093263456
3710,10,Ticks_ISO_T2_5,36,9999,9999,9999,1093763156
3710,10,Ticks_ISO_T2_5,37,9999,9999,9999,1094263892
3710,10,Ticks_ISO_T2_5,38,9999,9999,9999,1094763588
3710,10,Ticks_ISO_T2_5,39,9999,9999,9999,1095263280
3710,10,Ticks_ISO_T2_5,40,9999,9999,9999,1095764028
3710,10,Ticks_ISO_T2_5,41,9999,9999,9999,1096263792
3710,10,Ticks_ISO_T2_5,42,9999,9999,9999,1096763488
3710,10,Ticks_ISO_T2_5,43,9999,9999,9999,1097263180
3710,10,Ticks_ISO_T2_5,44,9999,9999,9999,1097763924
3710,10,Ticks_ISO_T2_5,45,9999,9999,9999,1098263616
3710,10,Ticks_ISO_T2_5,46,9999,9999,9999,1098763312
3710,10,Ticks_ISO_T2_5,47,9999,9999,9999,1099264060
3710,10,Ticks_ISO_T2_5,48,9999,9999,9999,1099763796
3710,10,Ticks_ISO_T2_5,49,9999,9999,9999,1100263492
3710,10,Ticks_ISO_T2_5,50,9999,9999,9999,1100763212
3710,10,Ticks_ISO_T2_5,51,9999,9999,9999,1101263928
3710,10,Ticks_ISO_T2_5,52,9999,9999,9999,1101763696
3710,10,Ticks_ISO_T2_5,53,9999,9999,9999,1102263392
3710,10,Ticks_ISO_T2_5,54,9999,9999,9999,1102763088
3710,10,Ticks_ISO_T2_5,55,9999,9999,9999,1103263832
3710,10,Ticks_ISO_T2_5,56,9999,9999,9999,1103763528
3710,10,Ticks_ISO_T2_5,57,9999,9999,9999,1104263224
3710,10,Ticks_ISO_T2_5,58,9999,9999,9999,1104763972
3710,10,Ticks_ISO_T2_5,59,9999,9999,9999,1105263736
3710,10,Ticks_ISO_T2_5,60,9999,9999,9999,1105763432
3710,10,Ticks_ISO_T2_5,61,9999,9999,9999,1106263128
3710,10,Ticks_ISO_T2_5,62,9999,9999,9999,1106763872
3710,10,Ticks_ISO_T2_5,63,9999,9999,9999,1107263568
3710,10,Ticks_ISO_T2_5,64,9999,9999,9999,1107763264
3710,10,Ticks_ISO_T2_5,65,9999,9999,9999,1108264004
3710,10,Ticks_ISO_T2_5,66,9999,9999,9999,1108763700
3710,10,Ticks_ISO_T2_5,67,9999,9999,9999,1109263472
3710,10,Ticks_ISO_T2_5,68,9999,9999,9999,1109763168
3710,10,Ticks_ISO_T2_5,69,9999,9999,9999,1110263884
3710,10,Ticks_ISO_T2_5,70,9999,9999,9999,1110763580
3710,10,Ticks_ISO_T2_5,71,9999,9999,9999,1111263348
3710,10,Ticks_ISO_T2_5,72,9999,9999,9999,1111764016
3710,10,Ticks_ISO_T2_5,73,9999,9999,9999,1112263784
3710,10,Ticks_ISO_T2_5,74,9999,9999,9999,1112763480
3710,10,Ticks_ISO_T2_5,75,9999,9999,9999,1113263176
3710,10,Ticks_ISO_T2_5,76,9999,9999,9999,1113763924
3710,10,Ticks_ISO_T2_5,77,9999,9999,9999,1114263620
3710,10,Ticks_ISO_T2_5,78,9999,9999,9999,1114763384
3710,10,Ticks_ISO_T2_5,79,9999,9999,9999,1115264052
3710,10,Ticks_ISO_T2_5,80,9999,9999,9999,1115763820
3710,10,Ticks_ISO_T2_5,81,9999,9999,9999,1116263516
3710,10,Ticks_ISO_T2_5,82,9999,9999,9999,1116763212
3710,10,Ticks_ISO_T2_5,83,9999,9999,9999,1117263952
3710,10,Ticks_ISO_T2_5,84,9999,9999,9999,1117763648
3710,10,Ticks_ISO_T2_5,85,9999,9999,9999,1118263344
3710,10,Ticks_ISO_T2_5,86,9999,9999,9999,1118763112
3710,10,Ticks_ISO_T2_5,87,9999,9999,9999,1119263852
3710,10,Ticks_ISO_T2_5,88,9999,9999,9999,1119763548
3710,10,Ticks_ISO_T2_5,89,9999,9999,9999,1120263240
3710,10,Ticks_ISO_T2_5,90,9999,9999,9999,1120763984
3710,10,Ticks_ISO_T2_5,91,9999,9999,9999,1121263728
3710,10,Ticks_ISO_T2_5,92,9999,9999,9999,1121763424
3710,10,Ticks_ISO_T2_5,93,9999,9999,9999,1122263120
3710,10,Ticks_ISO_T2_5,94,9999,9999,9999,1122763868
3710,10,Ticks_ISO_T2_5,95,9999,9999,9999,1123263564
3710,10,Ticks_ISO_T2_5,96,9999,9999,9999,1123763252
3710,10,Ticks_ISO_T2_5,97,9999,9999,9999,1124263992
3710,10,Ticks_ISO_T2_5,98,9999,9999,9999,1124763760
3710,10,Ticks_ISO_T2_5,99,9999,9999,9999,1125263456
3710,10,Ticks_ISO_T2_5,100,9999,9999,9999,1125763152
3710,10,Ticks_ISO_T2_5,101,9999,9999,9999,1126263892
3710,10,Ticks_ISO_T2_5,102,9999,9999,9999,1126763588
3710,10,Ticks_ISO_T2_5,103,9999,9999,9999,1127263280
3710,10,Ticks_ISO_T2_5,104,9999,9999,9999,1127764024
3710,10,Ticks_ISO_T2_5,105,9999,9999,9999,1128263792
3710,10,Ticks_ISO_T2_5,106,9999,9999,9999,1128763488
3710,10,Ticks_ISO_T2_5,107,9999,9999,9999,1129263184
3710,10,Ticks_ISO_T2_5,108,9999,9999,9999,1129763924
3710,10,Ticks_ISO_T2_5,109,9999,9999,9999,1130263616
3710,10,Ticks_ISO_T2_5,110,9999,9999,9999,1130763312
3710,10,Ticks_ISO_T2_5,111,9999,9999,9999,1131264052
3710,10,Ticks_ISO_T2_5,112,9999,9999,9999,1131763796
3710,10,Ticks_ISO_T2_5,113,9999,9999,9999,1132263492
3710,10,Ticks_ISO_T2_5,114,9999,9999,9999,1132763188
3710,10,Ticks_ISO_T2_5,115,9999,9999,9999,1133263928
3710,10,Ticks_ISO_T2_5,116,9999,9999,9999,1133763696
3710,10,Ticks_ISO_T2_5,117,9999,9999,9999,1134263396
3710,10,Ticks_ISO_T2_5,118,9999,9999,9999,1134763088
3710,10,Ticks_ISO_T2_5,119,9999,9999,9999,1135263832
3710,10,Ticks_ISO_T2_5,120,9999,9999,9999,1135763528
3710,10,Ticks_ISO_T2_5,121,9999,9999,9999,1136263220
3710,10,Ticks_ISO_T2_5,122,9999,9999,9999,1136763960
3710,10,Ticks_ISO_T2_5,123,9999,9999,9999,1137263732
3710,10,Ticks_ISO_T2_5,124,9999,9999,9999,1137763432
3710,10,Ticks_ISO_T2_5,125,9999,9999,9999,1138263128
3710,10,Ticks_ISO_T2_5,126,9999,9999,9999,1138763864
3710,10,Ticks_ISO_T2_5,127,9999,9999,9999,1139263556
3710,10,Ticks_ISO_T2_5,128,9999,9999,9999,1139763252
3710,10,Ticks_ISO_T2_5,129,9999,9999,9999,1140263992
3711,25,Jits_Pract_5,0,5,56,103,1192589656
3711,25,Jits_Pract_5,1,5,63,98,1192592908
3711,25,Jits_Pract_5,2,5,80,127,1192596024
3711,25,Jits_Pract_5,0,5,56,103,1193090356
3711,25,Jits_Pract_5,1,5,63,98,1193093524
3711,25,Jits_Pract_5,2,5,80,127,1193096724
3711,25,Jits_Pract_5,0,5,56,103,1193590544
3711,25,Jits_Pract_5,1,5,80,127,1193600664
3711,25,Jits_Pract_5,2,5,63,98,1193619928
3711,25,Jits_Pract_5,0,5,63,98,1194039572
3711,25,Jits_Pract_5,1,5,80,127,1194070368
3711,25,Jits_Pract_5,2,5,56,103,1194079740
3711,25,Jits_Pract_5,0,5,80,127,1194599684
3711,25,Jits_Pract_5,1,5,56,103,1194610252
3711,25,Jits_Pract_5,2,5,63,98,1194639852
3711,25,Jits_Pract_5,0,5,63,98,1195099432
3711,25,Jits_Pract_5,1,5,56,103,1195130452
3711,25,Jits_Pract_5,2,5,80,127,1195139376
3711,25,Jits_Pract_5,0,5,56,103,1195550160
3711,25,Jits_Pract_5,1,5,63,98,1195600140
3711,25,Jits_Pract_5,2,5,80,127,1195619776
3711,25,Jits_Pract_5,0,5,80,127,1196050200
3711,25,Jits_Pract_5,1,5,63,98,1196100104
3711,25,Jits_Pract_5,2,5,56,103,1196139968
3711,25,Jits_Pract_5,0,5,56,103,1196549572
3711,25,Jits_Pract_5,1,5,63,98,1196580144
3711,25,Jits_Pract_5,2,5,80,127,1196649824
3711,25,Jits_Pract_5,0,5,56,103,1197050360
3711,25,Jits_Pract_5,1,5,80,127,1197109480
3711,25,Jits_Pract_5,2,5,63,98,1197140204
3711,25,Jits_Pract_5,0,5,56,103,1197560292
3711,25,Jits_Pract_5,1,5,63,98,1197570340
3711,25,Jits_Pract_5,2,5,80,127,1197610204
3711,25,Jits_Pract_5,0,5,63,98,1198049748
3711,25,Jits_Pract_5,1,5,80,127,1198129496
3711,25,Jits_Pract_5,2,5,56,103,1198139840
3711,25,Jits_Pract_5,0,5,63,98,1198599404
3711,25,Jits_Pract_5,1,5,56,103,1198639336
3711,25,Jits_Pract_5,2,5,80,127,1198642408
3711,25,Jits_Pract_5,0,5,56,103,1199069508
3711,25,Jits_Pract_5,1,5,63,98,1199079776
3711,25,Jits_Pract_5,2,5,80,127,1199119664
3711,25,Jits_Pract_5,0,5,56,103,1199560252
3711,25,Jits_Pract_5,1,5,63,98,1199563172
3711,25,Jits_Pract_5,2,5,80,127,1199579516
3711,25,Jits_Pract_5,0,9999,9999,9999,1192837168
3711,25,Jits_Pract_5,1,9999,9999,9999,1193337944
3711,25,Jits_Pract_5,2,9999,9999,9999,1193837688
3711,25,Jits_Pract_5,3,9999,9999,9999,1194337352
3711,25,Jits_Pract_5,4,9999,9999,9999,1194838136
3711,25,Jits_Pract_5,5,9999,9999,9999,1195348068
3711,25,Jits_Pract_5,6,9999,9999,9999,1195847800
3711,25,Jits_Pract_5,7,9999,9999,9999,1196347468
3711,25,Jits_Pract_5,8,9999,9999,9999,1196847208
3711,25,Jits_Pract_5,9,9999,9999,9999,1197347924
3711,25,Jits_Pract_5,10,9999,9999,9999,1197847664
3711,25,Jits_Pract_5,11,9999,9999,9999,1198347336
3711,25,Jits_Pract_5,12,9999,9999,9999,1198848108
3711,25,Jits_Pract_5,13,9999,9999,9999,1199358024
3711,25,Jits_Pract_5,14,9999,9999,9999,1199857728
3712,24,Jits_Pract_8,0,5,56,103,1277206872
3712,24,Jits_Pract_8,1,5,63,98,1277210120
3712,24,Jits_Pract_8,2,5,80,127,1277213240
3712,24,Jits_Pract_8,0,1,48,39,1277744472
3712,24,Jits_Pract_8,1,5,56,103,1278006716
3712,24,Jits_Pract_8,2,5,63,98,1278009964
3712,24,Jits_Pract_8,3,5,80,127,1278013084
3712,24,Jits_Pract_8,0,1,48,27,1278730108
3712,24,Jits_Pract_8,1,5,80,127,1278746852
3712,24,Jits_Pract_8,2,5,63,98,1278837120
3712,24,Jits_Pract_8,3,5,56,103,1278847240
3712,24,Jits_Pract_8,0,5,56,103,1279567136
3712,24,Jits_Pract_8,1,5,63,98,1279576360
3712,24,Jits_Pract_8,2,1,48,26,1279623300
3712,24,Jits_Pract_8,3,5,80,127,1279666484
3712,24,Jits_Pract_8,0,5,63,98,1280337316
3712,24,Jits_Pract_8,1,1,48,26,1280352496
3712,24,Jits_Pract_8,2,5,80,127,1280366984
3712,24,Jits_Pract_8,3,5,56,103,1280396732
3712,24,Jits_Pract_8,0,1,48,25,1281107512
3712,24,Jits_Pract_8,1,5,56,103,1281136984
3712,24,Jits_Pract_8,2,5,80,127,1281237364
3712,24,Jits_Pract_8,3,5,63,98,1281286468
3712,24,Jits_Pract_8,0,5,56,103,1281936748
3712,24,Jits_Pract_8,1,5,80,127,1281986800
3712,24,Jits_Pract_8,2,5,63,98,1282026884
3712,24,Jits_Pract_8,3,1,48,22,1282036852
3712,24,Jits_Pract_8,0,1,48,27,1282750784
3712,24,Jits_Pract_8,1,5,80,127,1282767296
3712,24,Jits_Pract_8,2,5,63,98,1282796848
3712,24,Jits_Pract_8,3,5,56,103,1282866584
3712,24,Jits_Pract_8,0,5,63,98,1283596752
3712,24,Jits_Pract_8,1,1,48,21,1283599872
3712,24,Jits_Pract_8,2,5,56,103,1283627320
3712,24,Jits_Pract_8,3,5,80,127,1283686884
3712,24,Jits_Pract_8,0,5,56,103,1284336952
3712,24,Jits_Pract_8,1,5,80,127,1284339944
3712,24,Jits_Pract_8,2,1,48,21,1284379400
3712,24,Jits_Pract_8,3,5,63,98,1284456740
3712,24,Jits_Pract_8,0,1,48,18,1285115928
3712,24,Jits_Pract_8,1,5,56,103,1285216776
3712,24,Jits_Pract_8,2,5,80,127,1285256716
3712,24,Jits_Pract_8,3,5,63,98,1285266764
3712,24,Jits_Pract_8,0,1,48,21,1285943092
3712,24,Jits_Pract_8,1,5,56,103,1285976544
3712,24,Jits_Pract_8,2,5,80,127,1285996852
3712,24,Jits_Pract_8,3,5,63,98,1286076856
3712,24,Jits_Pract_8,0,1,48,19,1286755376
3712,24,Jits_Pract_8,1,5,80,127,1286767008
3712,24,Jits_Pract_8,2,5,56,103,1286867168
3712,24,Jits_Pract_8,3,5,63,98,1286876764
3712,24,Jits_Pract_8,0,5,63,98,1287536956
3712,24,Jits_Pract_8,1,5,80,127,1287597644
3712,24,Jits_Pract_8,2,5,56,103,1287606572
3712,24,Jits_Pract_8,3,1,48,19,1287609236
3712,24,Jits_Pract_8,0,1,48,20,1288268568
3712,24,Jits_Pract_8,1,5,56,103,1288336776
3712,24,Jits_Pract_8,2,5,63,98,1288407564
3712,24,Jits_Pract_8,3,5,80,127,1288410700
3712,24,Jits_Pract_8,0,9999,9999,9999,1277604952
3712,24,Jits_Pract_8,1,9999,9999,9999,1278404720
3712,24,Jits_Pract_8,2,9999,9999,9999,1279204408
3712,24,Jits_Pract_8,3,9999,9999,9999,1280004184
3712,24,Jits_Pract_8,4,9999,9999,9999,1280804924
3712,24,Jits_Pract_8,5,9999,9999,9999,1281604680
3712,24,Jits_Pract_8,6,9999,9999,9999,1282404432
3712,24,Jits_Pract_8,7,9999,9999,9999,1283204200
3712,24,Jits_Pract_8,8,9999,9999,9999,1284004932
3712,24,Jits_Pract_8,9,9999,9999,9999,1284804676
3712,24,Jits_Pract_8,10,9999,9999,9999,1285604452
3712,24,Jits_Pract_8,11,9999,9999,9999,1286404156
3712,24,Jits_Pract_8,12,9999,9999,9999,1287204964
3712,24,Jits_Pract_8,13,9999,9999,9999,1288004716
3712,24,Jits_Pract_8,14,9999,9999,9999,1288804460
3713,25,Jits_Pract_5,0,5,56,103,1294096716
3713,25,Jits_Pract_5,1,5,63,98,1294099812
3713,25,Jits_Pract_5,2,5,80,127,1294102784
3713,25,Jits_Pract_5,0,5,56,103,1294596360
3713,25,Jits_Pract_5,1,5,63,98,1294599460
3713,25,Jits_Pract_5,2,5,80,127,1294602584
3713,25,Jits_Pract_5,3,1,48,30,1294750968
3713,25,Jits_Pract_5,0,1,48,35,1295036752
3713,25,Jits_Pract_5,1,5,56,103,1295097332
3713,25,Jits_Pract_5,2,5,80,127,1295106408
3713,25,Jits_Pract_5,3,5,63,98,1295127016
3713,25,Jits_Pract_5,0,1,48,37,1295533440
3713,25,Jits_Pract_5,1,5,63,98,1295546808
3713,25,Jits_Pract_5,2,5,80,127,1295576412
3713,25,Jits_Pract_5,3,5,56,103,1295586756
3713,25,Jits_Pract_5,0,1,48,34,1296022932
3713,25,Jits_Pract_5,1,5,80,127,1296106804
3713,25,Jits_Pract_5,2,5,56,103,1296117372
3713,25,Jits_Pract_5,3,5,63,98,1296146808
3713,25,Jits_Pract_5,0,1,48,33,1296583064
3713,25,Jits_Pract_5,1,5,63,98,1296597332
3713,25,Jits_Pract_5,2,5,56,103,1296627108
3713,25,Jits_Pract_5,3,5,80,127,1296637156
3713,25,Jits_Pract_5,0,5,56,103,1297046836
3713,25,Jits_Pract_5,1,5,63,98,1297097040
3713,25,Jits_Pract_5,2,5,80,127,1297116600
3713,25,Jits_Pract_5,3,1,48,31,1297120840
3713,25,Jits_Pract_5,0,1,48,25,1297505156
3713,25,Jits_Pract_5,1,5,80,127,1297546536
3713,25,Jits_Pract_5,2,5,63,98,1297596664
3713,25,Jits_Pract_5,3,5,56,103,1297636588
3713,25,Jits_Pract_5,0,5,56,103,1298047280
3713,25,Jits_Pract_5,1,1,48,32,1298050024
3713,25,Jits_Pract_5,2,5,63,98,1298077176
3713,25,Jits_Pract_5,3,5,80,127,1298146544
3713,25,Jits_Pract_5,0,5,56,103,1298547284
3713,25,Jits_Pract_5,1,1,48,33,1298575960
3713,25,Jits_Pract_5,2,5,80,127,1298606548
3713,25,Jits_Pract_5,3,5,63,98,1298637272
3713,25,Jits_Pract_5,0,1,48,27,1299045620
3713,25,Jits_Pract_5,1,5,56,103,1299057028
3713,25,Jits_Pract_5,2,5,63,98,1299067296
3713,25,Jits_Pract_5,3,5,80,127,1299107084
3713,25,Jits_Pract_5,0,1,48,26,1299534052
3713,25,Jits_Pract_5,1,5,63,98,1299546452
3713,25,Jits_Pract_5,2,5,80,127,1299627432
3713,25,Jits_Pract_5,3,5,56,103,1299636580
3713,25,Jits_Pract_5,0,1,48,28,1300095880
3713,25,Jits_Pract_5,1,5,63,98,1300097612
3713,25,Jits_Pract_5,2,5,56,103,1300137548
3713,25,Jits_Pract_5,3,5,80,127,1300140540
3713,25,Jits_Pract_5,0,5,56,103,1300557224
3713,25,Jits_Pract_5,1,5,63,98,1300567348
3713,25,Jits_Pract_5,2,5,80,127,1300607356
3713,25,Jits_Pract_5,3,1,48,30,1300632344
3713,25,Jits_Pract_5,0,5,56,103,1301046588
3713,25,Jits_Pract_5,1,5,63,98,1301049800
3713,25,Jits_Pract_5,2,5,80,127,1301067192
3713,25,Jits_Pract_5,3,1,48,25,1301073008
3713,25,Jits_Pract_5,0,9999,9999,9999,1294344300
3713,25,Jits_Pract_5,1,9999,9999,9999,1294844992
3713,25,Jits_Pract_5,2,9999,9999,9999,1295344760
3713,25,Jits_Pract_5,3,9999,9999,9999,1295844428
3713,25,Jits_Pract_5,4,9999,9999,9999,1296344168
3713,25,Jits_Pract_5,5,9999,9999,9999,1296844908
3713,25,Jits_Pract_5,6,9999,9999,9999,1297344600
3713,25,Jits_Pract_5,7,9999,9999,9999,1297844304
3713,25,Jits_Pract_5,8,9999,9999,9999,1298345044
3713,25,Jits_Pract_5,9,9999,9999,9999,1298844752
3713,25,Jits_Pract_5,10,9999,9999,9999,1299344456
3713,25,Jits_Pract_5,11,9999,9999,9999,1299844148
3713,25,Jits_Pract_5,12,9999,9999,9999,1300344884
3713,25,Jits_Pract_5,13,9999,9999,9999,1300844648
3713,25,Jits_Pract_5,14,9999,9999,9999,1301344336
3714,18,Jits_Linear_8,0,5,56,103,1330774532
3714,18,Jits_Linear_8,1,5,63,98,1330777404
3714,18,Jits_Linear_8,2,5,80,127,1330780824
3714,18,Jits_Linear_8,0,1,48,32,1331365912
3714,18,Jits_Linear_8,1,5,56,103,1331593624
3714,18,Jits_Linear_8,2,5,63,98,1331596872
3714,18,Jits_Linear_8,3,5,80,127,1331599992
3714,18,Jits_Linear_8,0,1,48,38,1332319996
3714,18,Jits_Linear_8,1,5,80,127,1332354276
3714,18,Jits_Linear_8,2,5,63,98,1332443648
3714,18,Jits_Linear_8,3,5,56,103,1332453768
3714,18,Jits_Linear_8,0,5,56,103,1333204232
3714,18,Jits_Linear_8,1,5,63,98,1333213532
3714,18,Jits_Linear_8,2,1,48,42,1333230900
3714,18,Jits_Linear_8,3,5,80,127,1333303904
3714,18,Jits_Linear_8,0,5,63,98,1333993836
3714,18,Jits_Linear_8,1,1,48,32,1334022380
3714,18,Jits_Linear_8,2,5,80,127,1334024028
3714,18,Jits_Linear_8,3,5,56,103,1334054300
3714,18,Jits_Linear_8,0,1,48,25,1334768444
3714,18,Jits_Linear_8,1,5,56,103,1334814032
3714,18,Jits_Linear_8,2,5,80,127,1334914492
3714,18,Jits_Linear_8,3,5,63,98,1334963720
3714,18,Jits_Linear_8,0,5,56,103,1335624056
3714,18,Jits_Linear_8,1,5,80,127,1335674184
3714,18,Jits_Linear_8,2,1,48,28,1335710484
3714,18,Jits_Linear_8,3,5,63,98,1335714116
3714,18,Jits_Linear_8,0,1,48,27,1336461160
3714,18,Jits_Linear_8,1,5,80,127,1336463748
3714,18,Jits_Linear_8,2,5,63,98,1336493352
3714,18,Jits_Linear_8,3,5,56,103,1336564088
3714,18,Jits_Linear_8,0,1,48,29,1337254708
3714,18,Jits_Linear_8,1,5,63,98,1337304636
3714,18,Jits_Linear_8,2,5,56,103,1337334188
3714,18,Jits_Linear_8,3,5,80,127,1337393740
3714,18,Jits_Linear_8,0,5,56,103,1338054052
3714,18,Jits_Linear_8,1,5,80,127,1338056968
3714,18,Jits_Linear_8,2,1,48,23,1338068404
3714,18,Jits_Linear_8,3,5,63,98,1338173780
3714,18,Jits_Linear_8,0,1,48,25,1338853556
3714,18,Jits_Linear_8,1,5,56,103,1338933696
3714,18,Jits_Linear_8,2,5,80,127,1338973696
3714,18,Jits_Linear_8,3,5,63,98,1338983816
3714,18,Jits_Linear_8,0,5,56,103,1339693604
3714,18,Jits_Linear_8,1,5,80,127,1339713988
3714,18,Jits_Linear_8,2,1,48,35,1339720696
3714,18,Jits_Linear_8,3,5,63,98,1339793704
3714,18,Jits_Linear_8,0,5,80,127,1340483932
3714,18,Jits_Linear_8,1,1,48,33,1340521056
3714,18,Jits_Linear_8,2,5,56,103,1340584400
3714,18,Jits_Linear_8,3,5,63,98,1340593624
3714,18,Jits_Linear_8,0,5,63,98,1341253960
3714,18,Jits_Linear_8,1,5,80,127,1341314576
3714,18,Jits_Linear_8,2,5,56,103,1341323504
3714,18,Jits_Linear_8,3,1,48,29,1341341988
3714,18,Jits_Linear_8,0,1,48,32,1342043492
3714,18,Jits_Linear_8,1,5,56,103,1342053704
3714,18,Jits_Linear_8,2,5,63,98,1342124432
3714,18,Jits_Linear_8,3,5,80,127,1342127572
3714,18,Jits_Linear_8,0,1,48,24,1342809952
3714,18,Jits_Linear_8,1,5,63,98,1342884612
3714,18,Jits_Linear_8,2,5,56,103,1342934500
3714,18,Jits_Linear_8,3,5,80,127,1342937568
3714,18,Jits_Linear_8,0,1,48,28,1343618468
3714,18,Jits_Linear_8,1,5,56,103,1343633708
3714,18,Jits_Linear_8,2,5,80,127,1343636772
3714,18,Jits_Linear_8,3,5,63,98,1343723848
3714,18,Jits_Linear_8,0,1,48,28,1344437464
3714,18,Jits_Linear_8,1,5,63,98,1344464536
3714,18,Jits_Linear_8,2,5,56,103,1344554460
3714,18,Jits_Linear_8,3,5,80,127,1344584136
3714,18,Jits_Linear_8,0,1,48,29,1345243176
3714,18,Jits_Linear_8,1,5,56,103,1345244812
3714,18,Jits_Linear_8,2,5,63,98,1345343804
3714,18,Jits_Linear_8,3,5,80,127,1345373480
3714,18,Jits_Linear_8,0,1,48,25,1346049508
3714,18,Jits_Linear_8,1,5,63,98,1346053440
3714,18,Jits_Linear_8,2,5,56,103,1346063636
3714,18,Jits_Linear_8,3,5,80,127,1346153976
3714,18,Jits_Linear_8,0,1,48,30,1346828284
3714,18,Jits_Linear_8,1,5,63,98,1346854316
3714,18,Jits_Linear_8,2,5,56,103,1346934396
3714,18,Jits_Linear_8,3,5,80,127,1346937460
3714,18,Jits_Linear_8,0,5,80,127,1347593460
3714,18,Jits_Linear_8,1,5,63,98,1347614216
3714,18,Jits_Linear_8,2,5,56,103,1347673412
3714,18,Jits_Linear_8,3,1,48,27,1347722460
3714,18,Jits_Linear_8,0,1,48,36,1348368380
3714,18,Jits_Linear_8,1,5,56,103,1348413672
3714,18,Jits_Linear_8,2,5,63,98,1348434280
3714,18,Jits_Linear_8,3,5,80,127,1348437644
3714,18,Jits_Linear_8,0,5,63,98,1349133700
3714,18,Jits_Linear_8,1,1,48,29,1349147908
3714,18,Jits_Linear_8,2,5,80,127,1349213492
3714,18,Jits_Linear_8,3,5,56,103,1349223764
3714,18,Jits_Linear_8,0,1,48,35,1349928544
3714,18,Jits_Linear_8,1,5,63,98,1349933524
3714,18,Jits_Linear_8,2,5,56,103,1349953832
3714,18,Jits_Linear_8,3,5,80,127,1350004108
3714,18,Jits_Linear_8,0,1,48,21,1350689176
3714,18,Jits_Linear_8,1,5,80,127,1350713788
3714,18,Jits_Linear_8,2,5,63,98,1350753656
3714,18,Jits_Linear_8,3,5,56,103,1350774188
3714,18,Jits_Linear_8,0,1,48,33,1351509464
3714,18,Jits_Linear_8,1,5,56,103,1351523584
3714,18,Jits_Linear_8,2,5,63,98,1351534080
3714,18,Jits_Linear_8,3,5,80,127,1351554464
3714,18,Jits_Linear_8,0,5,56,103,1352223996
3714,18,Jits_Linear_8,1,1,48,29,1352259924
3714,18,Jits_Linear_8,2,5,63,98,1352314200
3714,18,Jits_Linear_8,3,5,80,127,1352373752
3714,18,Jits_Linear_8,0,1,48,35,1352964324
3714,18,Jits_Linear_8,1,5,80,127,1353024056
3714,18,Jits_Linear_8,2,5,56,103,1353034180
3714,18,Jits_Linear_8,3,5,63,98,1353103844
3714,18,Jits_Linear_8,0,1,48,39,1353791876
3714,18,Jits_Linear_8,1,5,63,98,1353823588
3714,18,Jits_Linear_8,2,5,80,127,1353913932
3714,18,Jits_Linear_8,3,5,56,103,1353924128
3714,18,Jits_Linear_8,0,5,63,98,1354524008
3714,18,Jits_Linear_8,1,5,80,127,1354574136
3714,18,Jits_Linear_8,2,5,56,103,1354633556
3714,18,Jits_Linear_8,3,1,48,46,1354673460
3714,18,Jits_Linear_8,0,1,48,44,1355297572
3714,18,Jits_Linear_8,1,5,56,103,1355313488
3714,18,Jits_Linear_8,2,5,80,127,1355363840
3714,18,Jits_Linear_8,3,5,63,98,1355384076
3714,18,Jits_Linear_8,0,5,56,103,1356043564
3714,18,Jits_Linear_8,1,1,48,46,1356059264
3714,18,Jits_Linear_8,2,5,80,127,1356104096
3714,18,Jits_Linear_8,3,5,63,98,1356173988
3714,18,Jits_Linear_8,0,5,56,103,1356813808
3714,18,Jits_Linear_8,1,1,48,32,1356822560
3714,18,Jits_Linear_8,2,5,80,127,1356844452
3714,18,Jits_Linear_8,3,5,63,98,1356874128
3714,18,Jits_Linear_8,0,1,48,44,1357552928
3714,18,Jits_Linear_8,1,5,56,103,1357613416
3714,18,Jits_Linear_8,2,5,80,127,1357633876
3714,18,Jits_Linear_8,3,5,63,98,1357694176
3714,18,Jits_Linear_8,0,1,48,40,1358339708
3714,18,Jits_Linear_8,1,5,80,127,1358454140
3714,18,Jits_Linear_8,2,5,56,103,1358464484
3714,18,Jits_Linear_8,3,5,63,98,1358473708
3714,18,Jits_Linear_8,0,1,48,40,1359120816
3714,18,Jits_Linear_8,1,5,56,103,1359163860
3714,18,Jits_Linear_8,2,5,80,127,1359203872
3714,18,Jits_Linear_8,3,5,63,98,1359234284
3714,18,Jits_Linear_8,0,5,56,103,1359883908
3714,18,Jits_Linear_8,1,1,48,40,1359896920
3714,18,Jits_Linear_8,2,5,63,98,1359914328
3714,18,Jits_Linear_8,3,5,80,127,1359954416
3714,18,Jits_Linear_8,0,5,80,127,1360584008
3714,18,Jits_Linear_8,1,1,48,42,1360606904
3714,18,Jits_Linear_8,2,5,63,98,1360634156
3714,18,Jits_Linear_8,3,5,56,103,1360653716
3714,18,Jits_Linear_8,0,1,48,39,1361302008
3714,18,Jits_Linear_8,1,5,56,103,1361364436
3714,18,Jits_Linear_8,2,5,80,127,1361433908
3714,18,Jits_Linear_8,3,5,63,98,1361494372
3714,18,Jits_Linear_8,0,1,48,41,1362090660
3714,18,Jits_Linear_8,1,5,80,127,1362103812
3714,18,Jits_Linear_8,2,5,63,98,1362193808
3714,18,Jits_Linear_8,3,5,56,103,1362214340
3714,18,Jits_Linear_8,0,5,63,98,1362863568
3714,18,Jits_Linear_8,1,1,48,40,1362884324
3714,18,Jits_Linear_8,2,5,56,103,1362885820
3714,18,Jits_Linear_8,3,5,80,127,1362923764
3714,18,Jits_Linear_8,0,1,48,50,1363557268
3714,18,Jits_Linear_8,1,5,80,127,1363563896
3714,18,Jits_Linear_8,2,5,63,98,1363584432
3714,18,Jits_Linear_8,3,5,56,103,1363664208
3714,18,Jits_Linear_8,0,5,63,98,1364293900
3714,18,Jits_Linear_8,1,1,48,42,1364316648
3714,18,Jits_Linear_8,2,5,56,103,1364403584
3714,18,Jits_Linear_8,3,5,80,127,1364406724
3714,18,Jits_Linear_8,0,1,48,45,1365052804
3714,18,Jits_Linear_8,1,5,63,98,1365054604
3714,18,Jits_Linear_8,2,5,56,103,1365064048
3714,18,Jits_Linear_8,3,5,80,127,1365067040
3714,18,Jits_Linear_8,0,1,48,44,1365738176
3714,18,Jits_Linear_8,1,5,56,103,1365773648
3714,18,Jits_Linear_8,2,5,80,127,1365893664
3714,18,Jits_Linear_8,3,5,63,98,1365933676
3714,18,Jits_Linear_8,0,5,56,103,1366524412
3714,18,Jits_Linear_8,1,1,48,45,1366559968
3714,18,Jits_Linear_8,2,5,80,127,1366604204
3714,18,Jits_Linear_8,3,5,63,98,1366623616
3714,18,Jits_Linear_8,0,5,56,103,1367254632
3714,18,Jits_Linear_8,1,1,48,40,1367265172
3714,18,Jits_Linear_8,2,5,63,98,1367363812
3714,18,Jits_Linear_8,3,5,80,127,1367368140
3714,18,Jits_Linear_8,0,1,48,40,1368006412
3714,18,Jits_Linear_8,1,5,56,103,1368014304
3714,18,Jits_Linear_8,2,5,80,127,1368043784
3714,18,Jits_Linear_8,3,5,63,98,1368064468
3714,18,Jits_Linear_8,0,5,63,98,1368723788
3714,18,Jits_Linear_8,1,5,56,103,1368733984
3714,18,Jits_Linear_8,2,5,80,127,1368744476
3714,18,Jits_Linear_8,3,1,48,35,1368748644
3714,18,Jits_Linear_8,0,1,48,43,1369419504
3714,18,Jits_Linear_8,1,5,80,127,1369433400
3714,18,Jits_Linear_8,2,5,56,103,1369483528
3714,18,Jits_Linear_8,3,5,63,98,1369523528
3714,18,Jits_Linear_8,0,1,48,43,1370134536
3714,18,Jits_Linear_8,1,5,80,127,1370173816
3714,18,Jits_Linear_8,2,5,63,98,1370194276
3714,18,Jits_Linear_8,3,5,56,103,1370243416
3714,18,Jits_Linear_8,0,1,48,39,1370895924
3714,18,Jits_Linear_8,1,5,80,127,1370904044
3714,18,Jits_Linear_8,2,5,56,103,1370933572
3714,18,Jits_Linear_8,3,5,63,98,1371004432
3714,18,Jits_Linear_8,0,1,48,42,1371651268
3714,18,Jits_Linear_8,1,5,56,103,1371674060
3714,18,Jits_Linear_8,2,5,80,127,1371684404
3714,18,Jits_Linear_8,3,5,63,98,1371724416
3714,18,Jits_Linear_8,0,5,56,103,1372303728
3714,18,Jits_Linear_8,1,5,63,98,1372324484
3714,18,Jits_Linear_8,2,5,80,127,1372393820
3714,18,Jits_Linear_8,3,1,48,37,1372396644
3714,18,Jits_Linear_8,0,1,48,36,1372927836
3714,18,Jits_Linear_8,1,5,63,98,1373044284
3714,18,Jits_Linear_8,2,5,80,127,1373103480
3714,18,Jits_Linear_8,3,5,56,103,1373124164
3714,18,Jits_Linear_8,0,1,48,39,1373677252
3714,18,Jits_Linear_8,1,5,80,127,1373743588
3714,18,Jits_Linear_8,2,5,56,103,1373774076
3714,18,Jits_Linear_8,3,5,63,98,1373803900
3714,18,Jits_Linear_8,0,1,48,32,1374424320
3714,18,Jits_Linear_8,1,5,56,103,1374454332
3714,18,Jits_Linear_8,2,5,63,98,1374513456
3714,18,Jits_Linear_8,3,5,80,127,1374574052
3714,18,Jits_Linear_8,0,1,48,38,1375127044
3714,18,Jits_Linear_8,1,5,80,127,1375184240
3714,18,Jits_Linear_8,2,5,56,103,1375203576
3714,18,Jits_Linear_8,3,5,63,98,1375274388
3714,18,Jits_Linear_8,0,1,48,41,1375848952
3714,18,Jits_Linear_8,1,5,80,127,1375893940
3714,18,Jits_Linear_8,2,5,63,98,1375914328
3714,18,Jits_Linear_8,3,5,56,103,1375944508
3714,18,Jits_Linear_8,0,1,48,34,1376574552
3714,18,Jits_Linear_8,1,5,80,127,1376584088
3714,18,Jits_Linear_8,2,5,63,98,1376603428
3714,18,Jits_Linear_8,3,5,56,103,1376664116
3714,18,Jits_Linear_8,0,1,48,38,1377281784
3714,18,Jits_Linear_8,1,5,80,127,1377293716
3714,18,Jits_Linear_8,2,5,56,103,1377394252
3714,18,Jits_Linear_8,3,5,63,98,1377423704
3714,18,Jits_Linear_8,0,5,63,98,1377984144
3714,18,Jits_Linear_8,1,5,80,127,1378034224
3714,18,Jits_Linear_8,2,1,48,34,1378036896
3714,18,Jits_Linear_8,3,5,56,103,1378053632
3714,18,Jits_Linear_8,0,1,48,35,1378617908
3714,18,Jits_Linear_8,1,5,80,127,1378724164
3714,18,Jits_Linear_8,2,5,56,103,1378753988
3714,18,Jits_Linear_8,3,5,63,98,1378757056
3714,18,Jits_Linear_8,0,1,48,29,1379382604
3714,18,Jits_Linear_8,1,5,63,98,1379454252
3714,18,Jits_Linear_8,2,5,56,103,1379494176
3714,18,Jits_Linear_8,3,5,80,127,1379513884
3714,18,Jits_Linear_8,0,1,48,36,1380073728
3714,18,Jits_Linear_8,1,5,80,127,1380094424
3714,18,Jits_Linear_8,2,5,63,98,1380174212
3714,18,Jits_Linear_8,3,5,56,103,1380214076
3714,18,Jits_Linear_8,0,1,48,32,1380771108
3714,18,Jits_Linear_8,1,5,63,98,1380804184
3714,18,Jits_Linear_8,2,5,80,127,1380883844
3714,18,Jits_Linear_8,3,5,56,103,1380904300
3714,18,Jits_Linear_8,0,5,56,103,1381533980
3714,18,Jits_Linear_8,1,1,48,30,1381540760
3714,18,Jits_Linear_8,2,5,63,98,1381544464
3714,18,Jits_Linear_8,3,5,80,127,1381584108
3714,18,Jits_Linear_8,0,5,56,103,1382144424
3714,18,Jits_Linear_8,1,5,80,127,1382147712
3714,18,Jits_Linear_8,2,1,48,34,1382254976
3714,18,Jits_Linear_8,3,5,63,98,1382283768
3714,18,Jits_Linear_8,0,1,48,31,1382819376
3714,18,Jits_Linear_8,1,5,56,103,1382824280
3714,18,Jits_Linear_8,2,5,63,98,1382914516
3714,18,Jits_Linear_8,3,5,80,127,1382984032
3714,18,Jits_Linear_8,0,1,48,29,1383509520
3714,18,Jits_Linear_8,1,5,63,98,1383584176
3714,18,Jits_Linear_8,2,5,80,127,1383587468
3714,18,Jits_Linear_8,3,5,56,103,1383643432
3714,18,Jits_Linear_8,0,1,48,22,1384171408
3714,18,Jits_Linear_8,1,5,80,127,1384303976
3714,18,Jits_Linear_8,2,5,56,103,1384323388
3714,18,Jits_Linear_8,3,5,63,98,1384334032
3714,18,Jits_Linear_8,0,5,56,103,1384893952
3714,18,Jits_Linear_8,1,5,63,98,1384904000
3714,18,Jits_Linear_8,2,1,48,27,1384935468
3714,18,Jits_Linear_8,3,5,80,127,1384973848
3714,18,Jits_Linear_8,0,1,48,27,1385474016
3714,18,Jits_Linear_8,1,5,80,127,1385573900
3714,18,Jits_Linear_8,2,5,56,103,1385623804
3714,18,Jits_Linear_8,3,5,63,98,1385674080
3714,18,Jits_Linear_8,0,1,48,24,1386258936
3714,18,Jits_Linear_8,1,5,56,103,1386333592
3714,18,Jits_Linear_8,2,5,63,98,1386343792
3714,18,Jits_Linear_8,3,5,80,127,1386383712
3714,18,Jits_Linear_8,0,5,56,103,1386954128
3714,18,Jits_Linear_8,1,5,63,98,1386994092
3714,18,Jits_Linear_8,2,1,48,23,1387035272
3714,18,Jits_Linear_8,3,5,80,127,1387044212
3714,18,Jits_Linear_8,0,1,48,27,1387566560
3714,18,Jits_Linear_8,1,5,80,127,1387583820
3714,18,Jits_Linear_8,2,5,56,103,1387633952
3714,18,Jits_Linear_8,3,5,63,98,1387653584
3714,18,Jits_Linear_8,0,1,48,33,1388176660
3714,18,Jits_Linear_8,1,5,80,127,1388263776
3714,18,Jits_Linear_8,2,5,63,98,1388324152
3714,18,Jits_Linear_8,3,5,56,103,1388404024
3714,18,Jits_Linear_8,0,5,80,127,1388914048
3714,18,Jits_Linear_8,1,1,48,18,1388945188
3714,18,Jits_Linear_8,2,5,56,103,1388953904
3714,18,Jits_Linear_8,3,5,63,98,1388973616
3714,18,Jits_Linear_8,0,1,48,34,1389530636
3714,18,Jits_Linear_8,1,5,56,103,1389633776
3714,18,Jits_Linear_8,2,5,80,127,1389644272
3714,18,Jits_Linear_8,3,5,63,98,1389684060
3714,18,Jits_Linear_8,0,1,48,27,1390250152
3714,18,Jits_Linear_8,1,5,56,103,1390363932
3714,18,Jits_Linear_8,2,5,63,98,1390403944
3714,18,Jits_Linear_8,3,5,80,127,1390407532
3714,18,Jits_Linear_8,0,5,63,98,1390913968
3714,18,Jits_Linear_8,1,5,80,127,1390953908
3714,18,Jits_Linear_8,2,5,56,103,1391023664
3714,18,Jits_Linear_8,3,1,48,32,1391032856
3714,18,Jits_Linear_8,0,1,48,21,1391527480
3714,18,Jits_Linear_8,1,5,63,98,1391564076
3714,18,Jits_Linear_8,2,5,56,103,1391643956
3714,18,Jits_Linear_8,3,5,80,127,1391704644
3714,18,Jits_Linear_8,0,1,48,25,1392186464
3714,18,Jits_Linear_8,1,5,80,127,1392233840
3714,18,Jits_Linear_8,2,5,63,98,1392284032
3714,18,Jits_Linear_8,3,5,56,103,1392313704
3714,18,Jits_Linear_8,0,1,48,27,1392860016
3714,18,Jits_Linear_8,1,5,56,103,1392884200
3714,18,Jits_Linear_8,2,5,63,98,1392934700
3714,18,Jits_Linear_8,3,5,80,127,1392943552
3714,18,Jits_Linear_8,0,1,48,26,1393514580
3714,18,Jits_Linear_8,1,5,56,103,1393553640
3714,18,Jits_Linear_8,2,5,63,98,1393664316
3714,18,Jits_Linear_8,3,5,80,127,1393683800
3714,18,Jits_Linear_8,0,5,63,98,1394204016
3714,18,Jits_Linear_8,1,1,48,29,1394207504
3714,18,Jits_Linear_8,2,5,80,127,1394254360
3714,18,Jits_Linear_8,3,5,56,103,1394344252
3714,18,Jits_Linear_8,0,5,63,98,1394844016
3714,18,Jits_Linear_8,1,5,80,127,1394873692
3714,18,Jits_Linear_8,2,1,48,32,1394879424
3714,18,Jits_Linear_8,3,5,56,103,1394963768
3714,18,Jits_Linear_8,0,1,48,28,1395474488
3714,18,Jits_Linear_8,1,5,63,98,1395494364
3714,18,Jits_Linear_8,2,5,56,103,1395503516
3714,18,Jits_Linear_8,3,5,80,127,1395603896
3714,18,Jits_Linear_8,0,1,48,28,1396128260
3714,18,Jits_Linear_8,1,5,63,98,1396243760
3714,18,Jits_Linear_8,2,5,80,127,1396273512
3714,18,Jits_Linear_8,3,5,56,103,1396304308
3714,18,Jits_Linear_8,0,1,48,25,1396903412
3714,18,Jits_Linear_8,1,5,80,127,1396905208
3714,18,Jits_Linear_8,2,5,63,98,1396913460
3714,18,Jits_Linear_8,3,5,56,103,1396944480
3714,18,Jits_Linear_8,0,5,80,127,1397443928
3714,18,Jits_Linear_8,1,5,63,98,1397464388
3714,18,Jits_Linear_8,2,5,56,103,1397513568
3714,18,Jits_Linear_8,3,1,48,26,1397570916
3714,18,Jits_Linear_8,0,1,48,23,1397959668
3714,18,Jits_Linear_8,1,5,63,98,1398113536
3714,18,Jits_Linear_8,2,5,80,127,1398174152
3714,18,Jits_Linear_8,3,5,56,103,1398193640
3714,18,Jits_Linear_8,0,5,63,98,1398713852
3714,18,Jits_Linear_8,1,1,48,24,1398722896
3714,18,Jits_Linear_8,2,5,56,103,1398763924
3714,18,Jits_Linear_8,3,5,80,127,1398774344
3714,18,Jits_Linear_8,0,1,48,32,1399317348
3714,18,Jits_Linear_8,1,5,56,103,1399384364
3714,18,Jits_Linear_8,2,5,80,127,1399393584
3714,18,Jits_Linear_8,3,5,63,98,1399493964
3714,18,Jits_Linear_8,0,5,80,127,1399983464
3714,18,Jits_Linear_8,1,5,63,98,1399993808
3714,18,Jits_Linear_8,2,1,48,38,1400057188
3714,18,Jits_Linear_8,3,5,56,103,1400144340
3714,18,Jits_Linear_8,0,5,63,98,1400623504
3714,18,Jits_Linear_8,1,1,48,38,1400629236
3714,18,Jits_Linear_8,2,5,80,127,1400664484
3714,18,Jits_Linear_8,3,5,56,103,1400744264
3714,18,Jits_Linear_8,0,5,56,103,1401244100
3714,18,Jits_Linear_8,1,1,48,28,1401271656
3714,18,Jits_Linear_8,2,5,80,127,1401344224
3714,18,Jits_Linear_8,3,5,63,98,1401363932
3714,18,Jits_Linear_8,0,1,48,33,1401882992
3714,18,Jits_Linear_8,1,5,80,127,1401934112
3714,18,Jits_Linear_8,2,5,56,103,1401944308
3714,18,Jits_Linear_8,3,5,63,98,1402033376
3714,18,Jits_Linear_8,0,5,56,103,1402564152
3714,18,Jits_Linear_8,1,5,63,98,1402584392
3714,18,Jits_Linear_8,2,1,48,35,1402591788
3714,18,Jits_Linear_8,3,5,80,127,1402664276
3714,18,Jits_Linear_8,0,5,63,98,1403134296
3714,18,Jits_Linear_8,1,1,48,36,1403204544
3714,18,Jits_Linear_8,2,5,56,103,1403224344
3714,18,Jits_Linear_8,3,5,80,127,1403227488
3714,18,Jits_Linear_8,0,1,48,31,1403770424
3714,18,Jits_Linear_8,1,5,56,103,1403783424
3714,18,Jits_Linear_8,2,5,80,127,1403844116
3714,18,Jits_Linear_8,3,5,63,98,1403854312
3714,18,Jits_Linear_8,0,1,48,32,1404397048
3714,18,Jits_Linear_8,1,5,80,127,1404454244
3714,18,Jits_Linear_8,2,5,56,103,1404463388
3714,18,Jits_Linear_8,3,5,63,98,1404466536
3714,18,Jits_Linear_8,0,1,48,34,1405027532
3714,18,Jits_Linear_8,1,5,56,103,1405034000
3714,18,Jits_Linear_8,2,5,80,127,1405044124
3714,18,Jits_Linear_8,3,5,63,98,1405063388
3714,18,Jits_Linear_8,0,1,48,35,1405606924
3714,18,Jits_Linear_8,1,5,63,98,1405623808
3714,18,Jits_Linear_8,2,5,80,127,1405684148
3714,18,Jits_Linear_8,3,5,56,103,1405734188
3714,18,Jits_Linear_8,0,1,48,35,1406247100
3714,18,Jits_Linear_8,1,5,63,98,1406324148
3714,18,Jits_Linear_8,2,5,56,103,1406334344
3714,18,Jits_Linear_8,3,5,80,127,1406383408
3714,18,Jits_Linear_8,0,5,63,98,1406834024
3714,18,Jits_Linear_8,1,5,80,127,1406853360
3714,18,Jits_Linear_8,2,5,56,103,1406863856
3714,18,Jits_Linear_8,3,1,48,29,1406926604
3714,18,Jits_Linear_8,0,1,48,21,1407359712
3714,18,Jits_Linear_8,1,5,63,98,1407444336
3714,18,Jits_Linear_8,2,5,80,127,1407447628
3714,18,Jits_Linear_8,3,5,56,103,1407484208
3714,18,Jits_Linear_8,0,1,48,33,1407952068
3714,18,Jits_Linear_8,1,5,63,98,1408124196
3714,18,Jits_Linear_8,2,5,80,127,1408154024
3714,18,Jits_Linear_8,3,5,56,103,1408164216
3714,18,Jits_Linear_8,0,1,48,41,1408682236
3714,18,Jits_Linear_8,1,5,56,103,1408684424
3714,18,Jits_Linear_8,2,5,80,127,1408714100
3714,18,Jits_Linear_8,3,5,63,98,1408743728
3714,18,Jits_Linear_8,0,1,48,39,1409324204
3714,18,Jits_Linear_8,1,5,63,98,1409383940
3714,18,Jits_Linear_8,2,5,56,103,1409423864
3714,18,Jits_Linear_8,3,5,80,127,1409426856
3714,18,Jits_Linear_8,0,5,80,127,1409883540
3714,18,Jits_Linear_8,1,5,56,103,1409964316
3714,18,Jits_Linear_8,2,1,48,39,1409998668
3714,18,Jits_Linear_8,3,5,63,98,1410013760
3714,18,Jits_Linear_8,0,5,80,127,1410464072
3714,18,Jits_Linear_8,1,5,56,103,1410483856
3714,18,Jits_Linear_8,2,1,48,28,1410513428
3714,18,Jits_Linear_8,3,5,63,98,1410573856
3714,18,Jits_Linear_8,0,1,48,26,1411050344
3714,18,Jits_Linear_8,1,5,80,127,1411104176
3714,18,Jits_Linear_8,2,5,63,98,1411144028
3714,18,Jits_Linear_8,3,5,56,103,1411184040
3714,18,Jits_Linear_8,0,5,63,98,1411673460
3714,18,Jits_Linear_8,1,1,48,38,1411704824
3714,18,Jits_Linear_8,2,5,80,127,1411733772
3714,18,Jits_Linear_8,3,5,56,103,1411763748
3714,18,Jits_Linear_8,0,5,56,103,1412273604
3714,18,Jits_Linear_8,1,1,48,32,1412276724
3714,18,Jits_Linear_8,2,5,80,127,1412304172
3714,18,Jits_Linear_8,3,5,63,98,1412394388
3714,18,Jits_Linear_8,0,5,56,103,1412873636
3714,18,Jits_Linear_8,1,1,48,37,1412888668
3714,18,Jits_Linear_8,2,5,80,127,1412984144
3714,18,Jits_Linear_8,3,5,63,98,1413013880
3714,18,Jits_Linear_8,0,1,48,38,1413450984
3714,18,Jits_Linear_8,1,5,56,103,1413513584
3714,18,Jits_Linear_8,2,5,63,98,1413573960
3714,18,Jits_Linear_8,3,5,80,127,1413603660
3714,18,Jits_Linear_8,0,5,56,103,1414073732
3714,18,Jits_Linear_8,1,1,48,32,1414106596
3714,18,Jits_Linear_8,2,5,63,98,1414144256
3714,18,Jits_Linear_8,3,5,80,127,1414163892
3714,18,Jits_Linear_8,0,5,80,127,1414633832
3714,18,Jits_Linear_8,1,5,63,98,1414654216
3714,18,Jits_Linear_8,2,1,48,36,1414698612
3714,18,Jits_Linear_8,3,5,56,103,1414703516
3714,18,Jits_Linear_8,0,5,63,98,1415233840
3714,18,Jits_Linear_8,1,1,48,32,1415238300
3714,18,Jits_Linear_8,2,5,80,127,1415244100
3714,18,Jits_Linear_8,3,5,56,103,1415294228
3714,18,Jits_Linear_8,0,1,48,32,1415792368
3714,18,Jits_Linear_8,1,5,63,98,1415813520
3714,18,Jits_Linear_8,2,5,80,127,1415884104
3714,18,Jits_Linear_8,3,5,56,103,1415903796
3714,18,Jits_Linear_8,0,1,48,32,1416396480
3714,18,Jits_Linear_8,1,5,63,98,1416423732
3714,18,Jits_Linear_8,2,5,80,127,1416426944
3714,18,Jits_Linear_8,3,5,56,103,1416493692
3714,18,Jits_Linear_8,0,5,80,127,1416954196
3714,18,Jits_Linear_8,1,5,56,103,1416973532
3714,18,Jits_Linear_8,2,1,48,35,1416982060
3714,18,Jits_Linear_8,3,5,63,98,1416983872
3714,18,Jits_Linear_8,0,1,48,32,1417508380
3714,18,Jits_Linear_8,1,5,56,103,1417554264
3714,18,Jits_Linear_8,2,5,63,98,1417644836
3714,18,Jits_Linear_8,3,5,80,127,1417647972
3714,18,Jits_Linear_8,0,5,80,127,1418104360
3714,18,Jits_Linear_8,1,1,48,30,1418107932
3714,18,Jits_Linear_8,2,5,56,103,1418114624
3714,18,Jits_Linear_8,3,5,63,98,1418133816
3714,18,Jits_Linear_8,0,5,63,98,1418673640
3714,18,Jits_Linear_8,1,1,48,29,1418685228
3714,18,Jits_Linear_8,2,5,80,127,1418733904
3714,18,Jits_Linear_8,3,5,56,103,1418744100
3714,18,Jits_Linear_8,0,1,48,32,1419213660
3714,18,Jits_Linear_8,1,5,63,98,1419313644
3714,18,Jits_Linear_8,2,5,80,127,1419344368
3714,18,Jits_Linear_8,3,5,56,103,1419384080
3714,18,Jits_Linear_8,0,5,56,103,1419873584
3714,18,Jits_Linear_8,1,5,80,127,1419883852
3714,18,Jits_Linear_8,2,1,48,33,1419890860
3714,18,Jits_Linear_8,3,5,63,98,1419923708
3714,18,Jits_Linear_8,0,5,80,127,1420404064
3714,18,Jits_Linear_8,1,1,48,29,1420444948
3714,18,Jits_Linear_8,2,5,56,103,1420483856
3714,18,Jits_Linear_8,3,5,63,98,1420494128
3714,18,Jits_Linear_8,0,1,48,30,1420964708
3714,18,Jits_Linear_8,1,5,80,127,1421014560
3714,18,Jits_Linear_8,2,5,56,103,1421094440
3714,18,Jits_Linear_8,3,5,63,98,1421103440
3714,18,Jits_Linear_8,0,5,80,127,1421533652
3714,18,Jits_Linear_8,1,5,56,103,1421583732
3714,18,Jits_Linear_8,2,1,48,27,1421595992
3714,18,Jits_Linear_8,3,5,63,98,1421633848
3714,18,Jits_Linear_8,0,1,48,30,1422141756
3714,18,Jits_Linear_8,1,5,56,103,1422154208
3714,18,Jits_Linear_8,2,5,63,98,1422157348
3714,18,Jits_Linear_8,3,5,80,127,1422204408
3714,18,Jits_Linear_8,0,1,48,33,1422710632
3714,18,Jits_Linear_8,1,5,56,103,1422743864
3714,18,Jits_Linear_8,2,5,63,98,1422773616
3714,18,Jits_Linear_8,3,5,80,127,1422783884
3714,18,Jits_Linear_8,0,5,63,98,1423213956
3714,18,Jits_Linear_8,1,5,56,103,1423283568
3714,18,Jits_Linear_8,2,1,48,29,1423289452
3714,18,Jits_Linear_8,3,5,80,127,1423333784
3714,18,Jits_Linear_8,0,1,48,29,1423775264
3714,18,Jits_Linear_8,1,5,63,98,1423803760
3714,18,Jits_Linear_8,2,5,56,103,1423813956
3714,18,Jits_Linear_8,3,5,80,127,1423817244
3714,18,Jits_Linear_8,0,5,80,127,1424303428
3714,18,Jits_Linear_8,1,1,48,38,1424305876
3714,18,Jits_Linear_8,2,5,56,103,1424363840
3714,18,Jits_Linear_8,3,5,63,98,1424454180
3714,18,Jits_Linear_8,0,5,80,127,1424854440
3714,18,Jits_Linear_8,1,1,48,38,1424879832
3714,18,Jits_Linear_8,2,5,56,103,1424953736
3714,18,Jits_Linear_8,3,5,63,98,1424993736
3714,18,Jits_Linear_8,0,1,48,28,1425385216
3714,18,Jits_Linear_8,1,5,56,103,1425453352
3714,18,Jits_Linear_8,2,5,63,98,1425473960
3714,18,Jits_Linear_8,3,5,80,127,1425513808
3714,18,Jits_Linear_8,0,1,48,35,1425944616
3714,18,Jits_Linear_8,1,5,63,98,1425973484
3714,18,Jits_Linear_8,2,5,56,103,1425994168
3714,18,Jits_Linear_8,3,5,80,127,1426093352
3714,18,Jits_Linear_8,0,5,63,98,1426504252
3714,18,Jits_Linear_8,1,1,48,34,1426516812
3714,18,Jits_Linear_8,2,5,80,127,1426613564
3714,18,Jits_Linear_8,3,5,56,103,1426644420
3714,18,Jits_Linear_8,0,5,56,103,1427064392
3714,18,Jits_Linear_8,1,1,48,24,1427077180
3714,18,Jits_Linear_8,2,5,63,98,1427093840
3714,18,Jits_Linear_8,3,5,80,127,1427144192
3714,18,Jits_Linear_8,0,5,63,98,1427574124
3714,18,Jits_Linear_8,1,5,56,103,1427603800
3714,18,Jits_Linear_8,2,1,48,29,1427642588
3714,18,Jits_Linear_8,3,5,80,127,1427654292
3714,18,Jits_Linear_8,0,1,48,31,1428114216
3714,18,Jits_Linear_8,1,5,56,103,1428143540
3714,18,Jits_Linear_8,2,5,63,98,1428164148
3714,18,Jits_Linear_8,3,5,80,127,1428243732
3714,18,Jits_Linear_8,0,5,63,98,1428653412
3714,18,Jits_Linear_8,1,1,48,30,1428679672
3714,18,Jits_Linear_8,2,5,56,103,1428713972
3714,18,Jits_Linear_8,3,5,80,127,1428743424
3714,18,Jits_Linear_8,0,1,48,34,1429200616
3714,18,Jits_Linear_8,1,5,56,103,1429234244
3714,18,Jits_Linear_8,2,5,80,127,1429293368
3714,18,Jits_Linear_8,3,5,63,98,1429334340
3714,18,Jits_Linear_8,0,5,63,98,1429744120
3714,18,Jits_Linear_8,1,1,48,24,1429769640
3714,18,Jits_Linear_8,2,5,56,103,1429804360
3714,18,Jits_Linear_8,3,5,80,127,1429874248
3714,18,Jits_Linear_8,0,1,48,27,1430274492
3714,18,Jits_Linear_8,1,5,56,103,1430354308
3714,18,Jits_Linear_8,2,5,63,98,1430363528
3714,18,Jits_Linear_8,3,5,80,127,1430366892
3714,18,Jits_Linear_8,0,5,63,98,1430824240
3714,18,Jits_Linear_8,1,1,48,26,1430854936
3714,18,Jits_Linear_8,2,5,56,103,1430884028
3714,18,Jits_Linear_8,3,5,80,127,1430887016
3714,18,Jits_Linear_8,0,5,63,98,1431334172
3714,18,Jits_Linear_8,1,1,48,30,1431342916
3714,18,Jits_Linear_8,2,5,80,127,1431363916
3714,18,Jits_Linear_8,3,5,56,103,1431384304
3714,18,Jits_Linear_8,0,1,48,32,1431839804
3714,18,Jits_Linear_8,1,5,56,103,1431863736
3714,18,Jits_Linear_8,2,5,63,98,1431913868
3714,18,Jits_Linear_8,3,5,80,127,1431993644
3714,18,Jits_Linear_8,0,5,80,127,1432364472
3714,18,Jits_Linear_8,1,1,48,36,1432383708
3714,18,Jits_Linear_8,2,5,63,98,1432404404
3714,18,Jits_Linear_8,3,5,56,103,1432423668
3714,18,Jits_Linear_8,0,1,48,37,1432920980
3714,18,Jits_Linear_8,1,5,56,103,1432954212
3714,18,Jits_Linear_8,2,5,80,127,1432963584
3714,18,Jits_Linear_8,3,5,63,98,1432984340
3714,18,Jits_Linear_8,0,5,56,103,1433453900
3714,18,Jits_Linear_8,1,1,48,32,1433455688
3714,18,Jits_Linear_8,2,5,63,98,1433504096
3714,18,Jits_Linear_8,3,5,80,127,1433533920
3714,18,Jits_Linear_8,0,5,56,103,1433924148
3714,18,Jits_Linear_8,1,5,63,98,1433934124
3714,18,Jits_Linear_8,2,1,48,33,1433975748
3714,18,Jits_Linear_8,3,5,80,127,1433984244
3714,18,Jits_Linear_8,0,1,48,37,1434396004
3714,18,Jits_Linear_8,1,5,56,103,1434434012
3714,18,Jits_Linear_8,2,5,80,127,1434436932
3714,18,Jits_Linear_8,3,5,63,98,1434593904
3714,18,Jits_Linear_8,0,5,63,98,1434964260
3714,18,Jits_Linear_8,1,1,48,39,1435005516
3714,18,Jits_Linear_8,2,5,56,103,1435033860
3714,18,Jits_Linear_8,3,5,80,127,1435073800
3714,18,Jits_Linear_8,0,1,48,28,1435493052
3714,18,Jits_Linear_8,1,5,63,98,1435514128
3714,18,Jits_Linear_8,2,5,56,103,1435604324
3714,18,Jits_Linear_8,3,5,80,127,1435607392
3714,18,Jits_Linear_8,0,5,56,103,1436003772
3714,18,Jits_Linear_8,1,1,48,29,1436057836
3714,18,Jits_Linear_8,2,5,63,98,1436093900
3714,18,Jits_Linear_8,3,5,80,127,1436103948
3714,18,Jits_Linear_8,0,5,56,103,1436484060
3714,18,Jits_Linear_8,1,5,63,98,1436534044
3714,18,Jits_Linear_8,2,1,48,29,1436552900
3714,18,Jits_Linear_8,3,5,80,127,1436563784
3714,18,Jits_Linear_8,0,1,48,29,1437015636
3714,18,Jits_Linear_8,1,5,63,98,1437063612
3714,18,Jits_Linear_8,2,5,80,127,1437073956
3714,18,Jits_Linear_8,3,5,56,103,1437134184
3714,18,Jits_Linear_8,0,5,63,98,1437484484
3714,18,Jits_Linear_8,1,5,80,127,1437543756
3714,18,Jits_Linear_8,2,1,48,31,1437544720
3714,18,Jits_Linear_8,3,5,56,103,1437583836
3714,18,Jits_Linear_8,0,1,48,26,1437989968
3714,18,Jits_Linear_8,1,5,56,103,1438083356
3714,18,Jits_Linear_8,2,5,80,127,1438104024
3714,18,Jits_Linear_8,3,5,63,98,1438124336
3714,18,Jits_Linear_8,0,5,63,98,1438504224
3714,18,Jits_Linear_8,1,5,56,103,1438523712
3714,18,Jits_Linear_8,2,1,48,27,1438542348
3714,18,Jits_Linear_8,3,5,80,127,1438563868
3714,18,Jits_Linear_8,0,1,48,30,1438958612
3714,18,Jits_Linear_8,1,5,63,98,1439014160
3714,18,Jits_Linear_8,2,5,80,127,1439044060
3714,18,Jits_Linear_8,3,5,56,103,1439064428
3714,18,Jits_Linear_8,0,5,80,127,1439484396
3714,18,Jits_Linear_8,1,1,48,28,1439485360
3714,18,Jits_Linear_8,2,5,56,103,1439533548
3714,18,Jits_Linear_8,3,5,63,98,1439593920
3714,18,Jits_Linear_8,0,5,63,98,1439963836
3714,18,Jits_Linear_8,1,1,48,20,1439991616
3714,18,Jits_Linear_8,2,5,56,103,1440085144
3714,18,Jits_Linear_8,3,5,80,127,1440113992
3714,18,Jits_Linear_8,0,1,48,20,1440468428
3714,18,Jits_Linear_8,1,5,80,127,1440493884
3714,18,Jits_Linear_8,2,5,63,98,1440514344
3714,18,Jits_Linear_8,3,5,56,103,1440584008
3714,18,Jits_Linear_8,0,1,48,26,1440972312
3714,18,Jits_Linear_8,1,5,63,98,1441003900
3714,18,Jits_Linear_8,2,5,56,103,1441014096
3714,18,Jits_Linear_8,3,5,80,127,1441093952
3714,18,Jits_Linear_8,0,1,48,24,1441460888
3714,18,Jits_Linear_8,1,5,56,103,1441553856
3714,18,Jits_Linear_8,2,5,80,127,1441583668
3714,18,Jits_Linear_8,3,5,63,98,1441593940
3714,18,Jits_Linear_8,0,9999,9999,9999,1331181644
3714,18,Jits_Linear_8,1,9999,9999,9999,1332001856
3714,18,Jits_Linear_8,2,9999,9999,9999,1332822132
3714,18,Jits_Linear_8,3,9999,9999,9999,1333651556
3714,18,Jits_Linear_8,4,9999,9999,9999,1334471772
3714,18,Jits_Linear_8,5,9999,9999,9999,1335281744
3714,18,Jits_Linear_8,6,9999,9999,9999,1336091760
3714,18,Jits_Linear_8,7,9999,9999,9999,1336901716
3714,18,Jits_Linear_8,8,9999,9999,9999,1337711740
3714,18,Jits_Linear_8,9,9999,9999,9999,1338521668
3714,18,Jits_Linear_8,10,9999,9999,9999,1339321444
3714,18,Jits_Linear_8,11,9999,9999,9999,1340121200
3714,18,Jits_Linear_8,12,9999,9999,9999,1340921972
3714,18,Jits_Linear_8,13,9999,9999,9999,1341721660
3714,18,Jits_Linear_8,14,9999,9999,9999,1342521404
3714,18,Jits_Linear_8,15,9999,9999,9999,1343311932
3714,18,Jits_Linear_8,16,9999,9999,9999,1344101480
3714,18,Jits_Linear_8,17,9999,9999,9999,1344892020
3714,18,Jits_Linear_8,18,9999,9999,9999,1345681512
3714,18,Jits_Linear_8,19,9999,9999,9999,1346472052
3714,18,Jits_Linear_8,20,9999,9999,9999,1347251272
3714,18,Jits_Linear_8,21,9999,9999,9999,1348031616
3714,18,Jits_Linear_8,22,9999,9999,9999,1348811896
3714,18,Jits_Linear_8,23,9999,9999,9999,1349591116
3714,18,Jits_Linear_8,24,9999,9999,9999,1350371388
3714,18,Jits_Linear_8,25,9999,9999,9999,1351141468
3714,18,Jits_Linear_8,26,9999,9999,9999,1351911504
3714,18,Jits_Linear_8,27,9999,9999,9999,1352681588
3714,18,Jits_Linear_8,28,9999,9999,9999,1353451612
3714,18,Jits_Linear_8,29,9999,9999,9999,1354221628
3714,18,Jits_Linear_8,30,9999,9999,9999,1354981496
3714,18,Jits_Linear_8,31,9999,9999,9999,1355741244
3714,18,Jits_Linear_8,32,9999,9999,9999,1356502104
3714,18,Jits_Linear_8,33,9999,9999,9999,1357271148
3714,18,Jits_Linear_8,34,9999,9999,9999,1358031952
3714,18,Jits_Linear_8,35,9999,9999,9999,1358781520
3714,18,Jits_Linear_8,36,9999,9999,9999,1359531084
3714,18,Jits_Linear_8,37,9999,9999,9999,1360281692
3714,18,Jits_Linear_8,38,9999,9999,9999,1361031260
3714,18,Jits_Linear_8,39,9999,9999,9999,1361781884
3714,18,Jits_Linear_8,40,9999,9999,9999,1362521180
3714,18,Jits_Linear_8,41,9999,9999,9999,1363261524
3714,18,Jits_Linear_8,42,9999,9999,9999,1364001860
3714,18,Jits_Linear_8,43,9999,9999,9999,1364741220
3714,18,Jits_Linear_8,44,9999,9999,9999,1365481544
3714,18,Jits_Linear_8,45,9999,9999,9999,1366211672
3714,18,Jits_Linear_8,46,9999,9999,9999,1366941752
3714,18,Jits_Linear_8,47,9999,9999,9999,1367671912
3714,18,Jits_Linear_8,48,9999,9999,9999,1368402008
3714,18,Jits_Linear_8,49,9999,9999,9999,1369131104
3714,18,Jits_Linear_8,50,9999,9999,9999,1369851964
3714,18,Jits_Linear_8,51,9999,9999,9999,1370571904
3714,18,Jits_Linear_8,52,9999,9999,9999,1371291720
3714,18,Jits_Linear_8,53,9999,9999,9999,1372011616
3714,18,Jits_Linear_8,54,9999,9999,9999,1372731500
3714,18,Jits_Linear_8,55,9999,9999,9999,1373441144
3714,18,Jits_Linear_8,56,9999,9999,9999,1374151788
3714,18,Jits_Linear_8,57,9999,9999,9999,1374861416
3714,18,Jits_Linear_8,58,9999,9999,9999,1375572088
3714,18,Jits_Linear_8,59,9999,9999,9999,1376281716
3714,18,Jits_Linear_8,60,9999,9999,9999,1376982104
3714,18,Jits_Linear_8,61,9999,9999,9999,1377691736
3714,18,Jits_Linear_8,62,9999,9999,9999,1378391096
3714,18,Jits_Linear_8,63,9999,9999,9999,1379091568
3714,18,Jits_Linear_8,64,9999,9999,9999,1379791956
3714,18,Jits_Linear_8,65,9999,9999,9999,1380481136
3714,18,Jits_Linear_8,66,9999,9999,9999,1381171288
3714,18,Jits_Linear_8,67,9999,9999,9999,1381861440
3714,18,Jits_Linear_8,68,9999,9999,9999,1382551636
3714,18,Jits_Linear_8,69,9999,9999,9999,1383241800
3714,18,Jits_Linear_8,70,9999,9999,9999,1383921752
3714,18,Jits_Linear_8,71,9999,9999,9999,1384601692
3714,18,Jits_Linear_8,72,9999,9999,9999,1385281644
3714,18,Jits_Linear_8,73,9999,9999,9999,1385961544
3714,18,Jits_Linear_8,74,9999,9999,9999,1386641484
3714,18,Jits_Linear_8,75,9999,9999,9999,1387311180
3714,18,Jits_Linear_8,76,9999,9999,9999,1387981908
3714,18,Jits_Linear_8,77,9999,9999,9999,1388651604
3714,18,Jits_Linear_8,78,9999,9999,9999,1389321292
3714,18,Jits_Linear_8,79,9999,9999,9999,1389992024
3714,18,Jits_Linear_8,80,9999,9999,9999,1390651452
3714,18,Jits_Linear_8,81,9999,9999,9999,1391311976
3714,18,Jits_Linear_8,82,9999,9999,9999,1391971408
3714,18,Jits_Linear_8,83,9999,9999,9999,1392631880
3714,18,Jits_Linear_8,84,9999,9999,9999,1393291356
3714,18,Jits_Linear_8,85,9999,9999,9999,1393941572
3714,18,Jits_Linear_8,86,9999,9999,9999,1394591836
3714,18,Jits_Linear_8,87,9999,9999,9999,1395242044
3714,18,Jits_Linear_8,88,9999,9999,9999,1395891256
3714,18,Jits_Linear_8,89,9999,9999,9999,1396541552
3714,18,Jits_Linear_8,90,9999,9999,9999,1397181560
3714,18,Jits_Linear_8,91,9999,9999,9999,1397821508
3714,18,Jits_Linear_8,92,9999,9999,9999,1398461524
3714,18,Jits_Linear_8,93,9999,9999,9999,1399101548
3714,18,Jits_Linear_8,94,9999,9999,9999,1399741548
3714,18,Jits_Linear_8,95,9999,9999,9999,1400371312
3714,18,Jits_Linear_8,96,9999,9999,9999,1401002108
3714,18,Jits_Linear_8,97,9999,9999,9999,1401631800
3714,18,Jits_Linear_8,98,9999,9999,9999,1402261628
3714,18,Jits_Linear_8,99,9999,9999,9999,1402891320
3714,18,Jits_Linear_8,100,9999,9999,9999,1403511920
3714,18,Jits_Linear_8,101,9999,9999,9999,1404131420
3714,18,Jits_Linear_8,102,9999,9999,9999,1404751936
3714,18,Jits_Linear_8,103,9999,9999,9999,1405371484
3714,18,Jits_Linear_8,104,9999,9999,9999,1405992032
3714,18,Jits_Linear_8,105,9999,9999,9999,1406601324
3714,18,Jits_Linear_8,106,9999,9999,9999,1407211596
3714,18,Jits_Linear_8,107,9999,9999,9999,1407821912
3714,18,Jits_Linear_8,108,9999,9999,9999,1408431204
3714,18,Jits_Linear_8,109,9999,9999,9999,1409041484
3714,18,Jits_Linear_8,110,9999,9999,9999,1409641552
3714,18,Jits_Linear_8,111,9999,9999,9999,1410241624
3714,18,Jits_Linear_8,112,9999,9999,9999,1410841728
3714,18,Jits_Linear_8,113,9999,9999,9999,1411441736
3714,18,Jits_Linear_8,114,9999,9999,9999,1412041804
3714,18,Jits_Linear_8,115,9999,9999,9999,1412631632
3714,18,Jits_Linear_8,116,9999,9999,9999,1413221460
3714,18,Jits_Linear_8,117,9999,9999,9999,1413811288
3714,18,Jits_Linear_8,118,9999,9999,9999,1414401120
3714,18,Jits_Linear_8,119,9999,9999,9999,1414991984
3714,18,Jits_Linear_8,120,9999,9999,9999,1415571536
3714,18,Jits_Linear_8,121,9999,9999,9999,1416151156
3714,18,Jits_Linear_8,122,9999,9999,9999,1416731760
3714,18,Jits_Linear_8,123,9999,9999,9999,1417311296
3714,18,Jits_Linear_8,124,9999,9999,9999,1417891964
3714,18,Jits_Linear_8,125,9999,9999,9999,1418461240
3714,18,Jits_Linear_8,126,9999,9999,9999,1419031668
3714,18,Jits_Linear_8,127,9999,9999,9999,1419601996
3714,18,Jits_Linear_8,128,9999,9999,9999,1420171348
3714,18,Jits_Linear_8,129,9999,9999,9999,1420741692
3714,18,Jits_Linear_8,130,9999,9999,9999,1421301880
3714,18,Jits_Linear_8,131,9999,9999,9999,1421862012
3714,18,Jits_Linear_8,132,9999,9999,9999,1422422084
3714,18,Jits_Linear_8,133,9999,9999,9999,1422991448
3714,18,Jits_Linear_8,134,9999,9999,9999,1423551584
3714,18,Jits_Linear_8,135,9999,9999,9999,1424101476
3714,18,Jits_Linear_8,136,9999,9999,9999,1424651348
3714,18,Jits_Linear_8,137,9999,9999,9999,1425201240
3714,18,Jits_Linear_8,138,9999,9999,9999,1425751128
3714,18,Jits_Linear_8,139,9999,9999,9999,1426302052
3714,18,Jits_Linear_8,140,9999,9999,9999,1426841664
3714,18,Jits_Linear_8,141,9999,9999,9999,1427381348
3714,18,Jits_Linear_8,142,9999,9999,9999,1427922012
3714,18,Jits_Linear_8,143,9999,9999,9999,1428461648
3714,18,Jits_Linear_8,144,9999,9999,9999,1429001328
3714,18,Jits_Linear_8,145,9999,9999,9999,1429531728
3714,18,Jits_Linear_8,146,9999,9999,9999,1430061152
3714,18,Jits_Linear_8,147,9999,9999,9999,1430591616
3714,18,Jits_Linear_8,148,9999,9999,9999,1431122004
3714,18,Jits_Linear_8,149,9999,9999,9999,1431651420
3714,18,Jits_Linear_8,150,9999,9999,9999,1432171632
3714,18,Jits_Linear_8,151,9999,9999,9999,1432691832
3714,18,Jits_Linear_8,152,9999,9999,9999,1433211984
3714,18,Jits_Linear_8,153,9999,9999,9999,1433731144
3714,18,Jits_Linear_8,154,9999,9999,9999,1434251360
3714,18,Jits_Linear_8,155,9999,9999,9999,1434761308
3714,18,Jits_Linear_8,156,9999,9999,9999,1435271252
3714,18,Jits_Linear_8,157,9999,9999,9999,1435781188
3714,18,Jits_Linear_8,158,9999,9999,9999,1436291136
3714,18,Jits_Linear_8,159,9999,9999,9999,1436801088
3714,18,Jits_Linear_8,160,9999,9999,9999,1437301836
3714,18,Jits_Linear_8,161,9999,9999,9999,1437801588
3714,18,Jits_Linear_8,162,9999,9999,9999,1438301276
3714,18,Jits_Linear_8,163,9999,9999,9999,1438801996
3714,18,Jits_Linear_8,164,9999,9999,9999,1439301748
3714,18,Jits_Linear_8,165,9999,9999,9999,1439791164
3714,18,Jits_Linear_8,166,9999,9999,9999,1440281720
3714,18,Jits_Linear_8,167,9999,9999,9999,1440771136
3714,18,Jits_Linear_8,168,9999,9999,9999,1441261676
3714,18,Jits_Linear_8,169,9999,9999,9999,1441751152
3715,19,Jits_Linear_5,0,5,56,103,1453583844
3715,19,Jits_Linear_5,1,5,63,98,1453587096
3715,19,Jits_Linear_5,2,5,80,127,1453590064
3715,19,Jits_Linear_5,0,5,56,103,1454064084
3715,19,Jits_Linear_5,1,5,63,98,1454067408
3715,19,Jits_Linear_5,2,5,80,127,1454070380
3715,19,Jits_Linear_5,3,1,48,34,1454076060
3715,19,Jits_Linear_5,0,1,48,40,1454542612
3715,19,Jits_Linear_5,1,5,56,103,1454544344
3715,19,Jits_Linear_5,2,5,80,127,1454553420
3715,19,Jits_Linear_5,3,5,63,98,1454574200
3715,19,Jits_Linear_5,0,5,63,98,1454974360
3715,19,Jits_Linear_5,1,5,80,127,1455004112
3715,19,Jits_Linear_5,2,1,48,40,1455008880
3715,19,Jits_Linear_5,3,5,56,103,1455014300
3715,19,Jits_Linear_5,0,1,48,35,1455414000
3715,19,Jits_Linear_5,1,5,80,127,1455514184
3715,19,Jits_Linear_5,2,5,56,103,1455524304
3715,19,Jits_Linear_5,3,5,63,98,1455553908
3715,19,Jits_Linear_5,0,1,48,35,1455937740
3715,19,Jits_Linear_5,1,5,63,98,1455994188
3715,19,Jits_Linear_5,2,5,56,103,1456023940
3715,19,Jits_Linear_5,3,5,80,127,1456034272
3715,19,Jits_Linear_5,0,5,56,103,1456433500
3715,19,Jits_Linear_5,1,1,48,38,1456454980
3715,19,Jits_Linear_5,2,5,63,98,1456483624
3715,19,Jits_Linear_5,3,5,80,127,1456504304
3715,19,Jits_Linear_5,0,1,48,36,1456893016
3715,19,Jits_Linear_5,1,5,80,127,1456924128
3715,19,Jits_Linear_5,2,5,63,98,1456974260
3715,19,Jits_Linear_5,3,5,56,103,1457014184
3715,19,Jits_Linear_5,0,1,48,33,1457387676
3715,19,Jits_Linear_5,1,5,56,103,1457413480
3715,19,Jits_Linear_5,2,5,63,98,1457444204
3715,19,Jits_Linear_5,3,5,80,127,1457514016
3715,19,Jits_Linear_5,0,1,48,33,1457859984
3715,19,Jits_Linear_5,1,5,56,103,1457903948
3715,19,Jits_Linear_5,2,5,80,127,1457964328
3715,19,Jits_Linear_5,3,5,63,98,1457994300
3715,19,Jits_Linear_5,0,1,48,38,1458387772
3715,19,Jits_Linear_5,1,5,56,103,1458403640
3715,19,Jits_Linear_5,2,5,63,98,1458414428
3715,19,Jits_Linear_5,3,5,80,127,1458453996
3715,19,Jits_Linear_5,0,1,48,41,1458891048
3715,19,Jits_Linear_5,1,5,63,98,1458894156
3715,19,Jits_Linear_5,2,5,80,127,1458974128
3715,19,Jits_Linear_5,3,5,56,103,1458984252
3715,19,Jits_Linear_5,0,1,48,38,1459426360
3715,19,Jits_Linear_5,1,5,63,98,1459444068
3715,19,Jits_Linear_5,2,5,56,103,1459484008
3715,19,Jits_Linear_5,3,5,80,127,1459487148
3715,19,Jits_Linear_5,0,5,56,103,1459904096
3715,19,Jits_Linear_5,1,5,63,98,1459914292
3715,19,Jits_Linear_5,2,5,80,127,1459954180
3715,19,Jits_Linear_5,3,1,48,39,1459968460
3715,19,Jits_Linear_5,0,1,48,37,1460365328
3715,19,Jits_Linear_5,1,5,56,103,1460394264
3715,19,Jits_Linear_5,2,5,63,98,1460397412
3715,19,Jits_Linear_5,3,5,80,127,1460413908
3715,19,Jits_Linear_5,0,1,48,32,1460846940
3715,19,Jits_Linear_5,1,5,80,127,1460913500
3715,19,Jits_Linear_5,2,5,56,103,1460924068
3715,19,Jits_Linear_5,3,5,63,98,1460994364
3715,19,Jits_Linear_5,0,1,48,29,1461376668
3715,19,Jits_Linear_5,1,5,63,98,1461414160
3715,19,Jits_Linear_5,2,5,56,103,1461433648
3715,19,Jits_Linear_5,3,5,80,127,1461513876
3715,19,Jits_Linear_5,0,1,48,35,1461895812
3715,19,Jits_Linear_5,1,5,56,103,1461933304
3715,19,Jits_Linear_5,2,5,80,127,1461974368
3715,19,Jits_Linear_5,3,5,63,98,1461983764
3715,19,Jits_Linear_5,0,1,48,36,1462431996
3715,19,Jits_Linear_5,1,5,80,127,1462434112
3715,19,Jits_Linear_5,2,5,63,98,1462464088
3715,19,Jits_Linear_5,3,5,56,103,1462504052
3715,19,Jits_Linear_5,0,1,48,39,1462919828
3715,19,Jits_Linear_5,1,5,56,103,1462963772
3715,19,Jits_Linear_5,2,5,63,98,1462994272
3715,19,Jits_Linear_5,3,5,80,127,1463043436
3715,19,Jits_Linear_5,0,1,48,41,1463440500
3715,19,Jits_Linear_5,1,5,80,127,1463473576
3715,19,Jits_Linear_5,2,5,56,103,1463513592
3715,19,Jits_Linear_5,3,5,63,98,1463523812
3715,19,Jits_Linear_5,0,1,48,36,1463931116
3715,19,Jits_Linear_5,1,5,80,127,1463974236
3715,19,Jits_Linear_5,2,5,63,98,1464014176
3715,19,Jits_Linear_5,3,5,56,103,1464073752
3715,19,Jits_Linear_5,0,1,48,37,1464456732
3715,19,Jits_Linear_5,1,5,56,103,1464493400
3715,19,Jits_Linear_5,2,5,80,127,1464503744
3715,19,Jits_Linear_5,3,5,63,98,1464583700
3715,19,Jits_Linear_5,0,1,48,37,1464980008
3715,19,Jits_Linear_5,1,5,80,127,1465013908
3715,19,Jits_Linear_5,2,5,63,98,1465074028
3715,19,Jits_Linear_5,3,5,56,103,1465103912
3715,19,Jits_Linear_5,0,1,48,34,1465519184
3715,19,Jits_Linear_5,1,5,56,103,1465533752
3715,19,Jits_Linear_5,2,5,80,127,1465594168
3715,19,Jits_Linear_5,3,5,63,98,1465634020
3715,19,Jits_Linear_5,0,1,48,38,1466050712
3715,19,Jits_Linear_5,1,5,56,103,1466114532
3715,19,Jits_Linear_5,2,5,63,98,1466123608
3715,19,Jits_Linear_5,3,5,80,127,1466126820
3715,19,Jits_Linear_5,0,1,48,40,1466578936
3715,19,Jits_Linear_5,1,5,80,127,1466593904
3715,19,Jits_Linear_5,2,5,63,98,1466683808
3715,19,Jits_Linear_5,3,5,56,103,1466693928
3715,19,Jits_Linear_5,0,5,56,103,1467124008
3715,19,Jits_Linear_5,1,5,63,98,1467127104
3715,19,Jits_Linear_5,2,5,80,127,1467130152
3715,19,Jits_Linear_5,3,1,48,43,1467169836
3715,19,Jits_Linear_5,0,1,48,44,1467583708
3715,19,Jits_Linear_5,1,5,80,127,1467674040
3715,19,Jits_Linear_5,2,5,63,98,1467724084
3715,19,Jits_Linear_5,3,5,56,103,1467753908
3715,19,Jits_Linear_5,0,5,56,103,1468183852
3715,19,Jits_Linear_5,1,5,80,127,1468194272
3715,19,Jits_Linear_5,2,1,48,46,1468227660
3715,19,Jits_Linear_5,3,5,63,98,1468263724
3715,19,Jits_Linear_5,0,1,48,30,1468723412
3715,19,Jits_Linear_5,1,5,56,103,1468725048
3715,19,Jits_Linear_5,2,5,63,98,1468744016
3715,19,Jits_Linear_5,3,5,80,127,1468803732
3715,19,Jits_Linear_5,0,1,48,34,1469224708
3715,19,Jits_Linear_5,1,5,80,127,1469254032
3715,19,Jits_Linear_5,2,5,63,98,1469323852
3715,19,Jits_Linear_5,3,5,56,103,1469344016
3715,19,Jits_Linear_5,0,1,48,35,1469796552
3715,19,Jits_Linear_5,1,5,80,127,1469814184
3715,19,Jits_Linear_5,2,5,56,103,1469824752
3715,19,Jits_Linear_5,3,5,63,98,1469833604
3715,19,Jits_Linear_5,0,1,48,32,1470327176
3715,19,Jits_Linear_5,1,5,80,127,1470343764
3715,19,Jits_Linear_5,2,5,56,103,1470364000
3715,19,Jits_Linear_5,3,5,63,98,1470433544
3715,19,Jits_Linear_5,0,5,56,103,1470893432
3715,19,Jits_Linear_5,1,1,48,34,1470895876
3715,19,Jits_Linear_5,2,5,80,127,1470924000
3715,19,Jits_Linear_5,3,5,63,98,1470943736
3715,19,Jits_Linear_5,0,1,48,28,1471407096
3715,19,Jits_Linear_5,1,5,63,98,1471433952
3715,19,Jits_Linear_5,2,5,56,103,1471493696
3715,19,Jits_Linear_5,3,5,80,127,1471524180
3715,19,Jits_Linear_5,0,1,48,31,1471960652
3715,19,Jits_Linear_5,1,5,63,98,1471973820
3715,19,Jits_Linear_5,2,5,80,127,1471977184
3715,19,Jits_Linear_5,3,5,56,103,1472064016
3715,19,Jits_Linear_5,0,1,48,33,1472501408
3715,19,Jits_Linear_5,1,5,56,103,1472544080
3715,19,Jits_Linear_5,2,5,63,98,1472573756
3715,19,Jits_Linear_5,3,5,80,127,1472613756
3715,19,Jits_Linear_5,0,1,48,32,1473039684
3715,19,Jits_Linear_5,1,5,63,98,1473093964
3715,19,Jits_Linear_5,2,5,56,103,1473133908
3715,19,Jits_Linear_5,3,5,80,127,1473154576
3715,19,Jits_Linear_5,0,1,48,36,1473551128
3715,19,Jits_Linear_5,1,5,63,98,1473654248
3715,19,Jits_Linear_5,2,5,56,103,1473693968
3715,19,Jits_Linear_5,3,5,80,127,1473704536
3715,19,Jits_Linear_5,0,1,48,31,1474126576
3715,19,Jits_Linear_5,1,5,80,127,1474183624
3715,19,Jits_Linear_5,2,5,63,98,1474254268
3715,19,Jits_Linear_5,3,5,56,103,1474273632
3715,19,Jits_Linear_5,0,5,56,103,1474733668
3715,19,Jits_Linear_5,1,5,80,127,1474753904
3715,19,Jits_Linear_5,2,1,48,31,1474765044
3715,19,Jits_Linear_5,3,5,63,98,1474793788
3715,19,Jits_Linear_5,0,1,48,30,1475282036
3715,19,Jits_Linear_5,1,5,63,98,1475303808
3715,19,Jits_Linear_5,2,5,80,127,1475324344
3715,19,Jits_Linear_5,3,5,56,103,1475364432
3715,19,Jits_Linear_5,0,1,48,31,1475849008
3715,19,Jits_Linear_5,1,5,63,98,1475864028
3715,19,Jits_Linear_5,2,5,56,103,1475884344
3715,19,Jits_Linear_5,3,5,80,127,1475893640
3715,19,Jits_Linear_5,0,1,48,28,1476376792
3715,19,Jits_Linear_5,1,5,80,127,1476434508
3715,19,Jits_Linear_5,2,5,56,103,1476453700
3715,19,Jits_Linear_5,3,5,63,98,1476483584
3715,19,Jits_Linear_5,0,1,48,36,1476956940
3715,19,Jits_Linear_5,1,5,56,103,1477074512
3715,19,Jits_Linear_5,2,5,80,127,1477077428
3715,19,Jits_Linear_5,3,5,63,98,1477093876
3715,19,Jits_Linear_5,0,5,63,98,1477563656
3715,19,Jits_Linear_5,1,5,56,103,1477593556
3715,19,Jits_Linear_5,2,1,48,36,1477609352
3715,19,Jits_Linear_5,3,5,80,127,1477653740
3715,19,Jits_Linear_5,0,1,48,31,1478056556
3715,19,Jits_Linear_5,1,5,63,98,1478214088
3715,19,Jits_Linear_5,2,5,56,103,1478224360
3715,19,Jits_Linear_5,3,5,80,127,1478233432
3715,19,Jits_Linear_5,0,5,56,103,1478734180
3715,19,Jits_Linear_5,1,1,48,38,1478735144
3715,19,Jits_Linear_5,2,5,80,127,1478764000
3715,19,Jits_Linear_5,3,5,63,98,1478774120
3715,19,Jits_Linear_5,0,1,48,32,1479301288
3715,19,Jits_Linear_5,1,5,63,98,1479343564
3715,19,Jits_Linear_5,2,5,56,103,1479353684
3715,19,Jits_Linear_5,3,5,80,127,1479374216
3715,19,Jits_Linear_5,0,5,56,103,1479844304
3715,19,Jits_Linear_5,1,1,48,34,1479878584
3715,19,Jits_Linear_5,2,5,63,98,1479903668
3715,19,Jits_Linear_5,3,5,80,127,1479907180
3715,19,Jits_Linear_5,0,1,48,35,1480396252
3715,19,Jits_Linear_5,1,5,80,127,1480444256
3715,19,Jits_Linear_5,2,5,56,103,1480453480
3715,19,Jits_Linear_5,3,5,63,98,1480524344
3715,19,Jits_Linear_5,0,1,48,38,1480966392
3715,19,Jits_Linear_5,1,5,80,127,1481013620
3715,19,Jits_Linear_5,2,5,56,103,1481084188
3715,19,Jits_Linear_5,3,5,63,98,1481093636
3715,19,Jits_Linear_5,0,1,48,39,1481561388
3715,19,Jits_Linear_5,1,5,63,98,1481634232
3715,19,Jits_Linear_5,2,5,56,103,1481644428
3715,19,Jits_Linear_5,3,5,80,127,1481663752
3715,19,Jits_Linear_5,0,1,48,33,1482117028
3715,19,Jits_Linear_5,1,5,80,127,1482163516
3715,19,Jits_Linear_5,2,5,63,98,1482224068
3715,19,Jits_Linear_5,3,5,56,103,1482263860
3715,19,Jits_Linear_5,0,1,48,33,1482689312
3715,19,Jits_Linear_5,1,5,56,103,1482794404
3715,19,Jits_Linear_5,2,5,63,98,1482803628
3715,19,Jits_Linear_5,3,5,80,127,1482843420
3715,19,Jits_Linear_5,0,1,48,35,1483283520
3715,19,Jits_Linear_5,1,5,56,103,1483344228
3715,19,Jits_Linear_5,2,5,80,127,1483374204
3715,19,Jits_Linear_5,3,5,63,98,1483424168
3715,19,Jits_Linear_5,0,1,48,41,1483903748
3715,19,Jits_Linear_5,1,5,56,103,1483974204
3715,19,Jits_Linear_5,2,5,63,98,1484014152
3715,19,Jits_Linear_5,3,5,80,127,1484017368
3715,19,Jits_Linear_5,0,1,48,38,1484557120
3715,19,Jits_Linear_5,1,5,56,103,1484563892
3715,19,Jits_Linear_5,2,5,63,98,1484574236
3715,19,Jits_Linear_5,3,5,80,127,1484593428
3715,19,Jits_Linear_5,0,5,56,103,1485113704
3715,19,Jits_Linear_5,1,5,80,127,1485116772
3715,19,Jits_Linear_5,2,1,48,36,1485135704
3715,19,Jits_Linear_5,3,5,63,98,1485153712
3715,19,Jits_Linear_5,0,1,48,33,1485669168
3715,19,Jits_Linear_5,1,5,63,98,1485743528
3715,19,Jits_Linear_5,2,5,56,103,1485774236
3715,19,Jits_Linear_5,3,5,80,127,1485793600
3715,19,Jits_Linear_5,0,1,48,47,1486267536
3715,19,Jits_Linear_5,1,5,80,127,1486313964
3715,19,Jits_Linear_5,2,5,56,103,1486324012
3715,19,Jits_Linear_5,3,5,63,98,1486334284
3715,19,Jits_Linear_5,0,1,48,46,1486910488
3715,19,Jits_Linear_5,1,5,56,103,1486914044
3715,19,Jits_Linear_5,2,5,80,127,1486953908
3715,19,Jits_Linear_5,3,5,63,98,1486983584
3715,19,Jits_Linear_5,0,1,48,41,1487483456
3715,19,Jits_Linear_5,1,5,63,98,1487524164
3715,19,Jits_Linear_5,2,5,80,127,1487533388
3715,19,Jits_Linear_5,3,5,56,103,1487543808
3715,19,Jits_Linear_5,0,1,48,46,1488077832
3715,19,Jits_Linear_5,1,5,56,103,1488103960
3715,19,Jits_Linear_5,2,5,63,98,1488173332
3715,19,Jits_Linear_5,3,5,80,127,1488183752
3715,19,Jits_Linear_5,0,1,48,46,1488655240
3715,19,Jits_Linear_5,1,5,80,127,1488714156
3715,19,Jits_Linear_5,2,5,56,103,1488724356
3715,19,Jits_Linear_5,3,5,63,98,1488773424
3715,19,Jits_Linear_5,0,1,48,46,1489327176
3715,19,Jits_Linear_5,1,5,80,127,1489334016
3715,19,Jits_Linear_5,2,5,56,103,1489393988
3715,19,Jits_Linear_5,3,5,63,98,1489423872
3715,19,Jits_Linear_5,0,5,56,103,1489944020
3715,19,Jits_Linear_5,1,5,80,127,1489946940
3715,19,Jits_Linear_5,2,5,63,98,1489983960
3715,19,Jits_Linear_5,3,1,48,42,1489997564
3715,19,Jits_Linear_5,0,1,48,48,1490550956
3715,19,Jits_Linear_5,1,5,56,103,1490584032
3715,19,Jits_Linear_5,2,5,63,98,1490613856
3715,19,Jits_Linear_5,3,5,80,127,1490624052
3715,19,Jits_Linear_5,0,1,48,47,1491175124
3715,19,Jits_Linear_5,1,5,63,98,1491203768
3715,19,Jits_Linear_5,2,5,80,127,1491214040
3715,19,Jits_Linear_5,3,5,56,103,1491223868
3715,19,Jits_Linear_5,0,5,80,127,1491763704
3715,19,Jits_Linear_5,1,5,56,103,1491813908
3715,19,Jits_Linear_5,2,5,63,98,1491816824
3715,19,Jits_Linear_5,3,1,48,46,1491820916
3715,19,Jits_Linear_5,0,1,48,56,1492373196
3715,19,Jits_Linear_5,1,5,56,103,1492413680
3715,19,Jits_Linear_5,2,5,80,127,1492434288
3715,19,Jits_Linear_5,3,5,63,98,1492443736
3715,19,Jits_Linear_5,0,1,48,48,1493005516
3715,19,Jits_Linear_5,1,5,63,98,1493013780
3715,19,Jits_Linear_5,2,5,56,103,1493043680
3715,19,Jits_Linear_5,3,5,80,127,1493063992
3715,19,Jits_Linear_5,0,1,48,48,1493601996
3715,19,Jits_Linear_5,1,5,56,103,1493643752
3715,19,Jits_Linear_5,2,5,80,127,1493653948
3715,19,Jits_Linear_5,3,5,63,98,1493723688
3715,19,Jits_Linear_5,0,1,48,44,1494242036
3715,19,Jits_Linear_5,1,5,63,98,1494253896
3715,19,Jits_Linear_5,2,5,80,127,1494293764
3715,19,Jits_Linear_5,3,5,56,103,1494333760
3715,19,Jits_Linear_5,0,5,56,103,1494893992
3715,19,Jits_Linear_5,1,1,48,43,1494900476
3715,19,Jits_Linear_5,2,5,63,98,1494904256
3715,19,Jits_Linear_5,3,5,80,127,1494923744
3715,19,Jits_Linear_5,0,1,48,41,1495512192
3715,19,Jits_Linear_5,1,5,63,98,1495563560
3715,19,Jits_Linear_5,2,5,80,127,1495584320
3715,19,Jits_Linear_5,3,5,56,103,1495603732
3715,19,Jits_Linear_5,0,1,48,48,1496115440
3715,19,Jits_Linear_5,1,5,56,103,1496133972
3715,19,Jits_Linear_5,2,5,80,127,1496213832
3715,19,Jits_Linear_5,3,5,63,98,1496224400
3715,19,Jits_Linear_5,0,1,48,43,1496747360
3715,19,Jits_Linear_5,1,5,80,127,1496803756
3715,19,Jits_Linear_5,2,5,63,98,1496814104
3715,19,Jits_Linear_5,3,5,56,103,1496843616
3715,19,Jits_Linear_5,0,1,48,38,1497391312
3715,19,Jits_Linear_5,1,5,63,98,1497393428
3715,19,Jits_Linear_5,2,5,80,127,1497433516
3715,19,Jits_Linear_5,3,5,56,103,1497493744
3715,19,Jits_Linear_5,0,1,48,35,1497990404
3715,19,Jits_Linear_5,1,5,63,98,1498033596
3715,19,Jits_Linear_5,2,5,56,103,1498083660
3715,19,Jits_Linear_5,3,5,80,127,1498114532
3715,19,Jits_Linear_5,0,1,48,37,1498668948
3715,19,Jits_Linear_5,1,5,80,127,1498683968
3715,19,Jits_Linear_5,2,5,63,98,1498694092
3715,19,Jits_Linear_5,3,5,56,103,1498763760
3715,19,Jits_Linear_5,0,1,48,43,1499331592
3715,19,Jits_Linear_5,1,5,80,127,1499394516
3715,19,Jits_Linear_5,2,5,56,103,1499403736
3715,19,Jits_Linear_5,3,5,63,98,1499406804
3715,19,Jits_Linear_5,0,5,56,103,1499973996
3715,19,Jits_Linear_5,1,1,48,39,1499980624
3715,19,Jits_Linear_5,2,5,80,127,1499993476
3715,19,Jits_Linear_5,3,5,63,98,1500003596
3715,19,Jits_Linear_5,0,1,48,44,1500581460
3715,19,Jits_Linear_5,1,5,63,98,1500624204
3715,19,Jits_Linear_5,2,5,56,103,1500664320
3715,19,Jits_Linear_5,3,5,80,127,1500683644
3715,19,Jits_Linear_5,0,1,48,35,1501218964
3715,19,Jits_Linear_5,1,5,63,98,1501273544
3715,19,Jits_Linear_5,2,5,56,103,1501333992
3715,19,Jits_Linear_5,3,5,80,127,1501336984
3715,19,Jits_Linear_5,0,1,48,39,1501862280
3715,19,Jits_Linear_5,1,5,56,103,1501883876
3715,19,Jits_Linear_5,2,5,80,127,1501904336
3715,19,Jits_Linear_5,3,5,63,98,1501944152
3715,19,Jits_Linear_5,0,1,48,38,1502473840
3715,19,Jits_Linear_5,1,5,56,103,1502563624
3715,19,Jits_Linear_5,2,5,63,98,1502584292
3715,19,Jits_Linear_5,3,5,80,127,1502594564
3715,19,Jits_Linear_5,0,1,48,38,1503113852
3715,19,Jits_Linear_5,1,5,80,127,1503184232
3715,19,Jits_Linear_5,2,5,56,103,1503213844
3715,19,Jits_Linear_5,3,5,63,98,1503253784
3715,19,Jits_Linear_5,0,5,80,127,1503843608
3715,19,Jits_Linear_5,1,1,48,35,1503846204
3715,19,Jits_Linear_5,2,5,56,103,1503864284
3715,19,Jits_Linear_5,3,5,63,98,1503923704
3715,19,Jits_Linear_5,0,5,56,103,1504504268
3715,19,Jits_Linear_5,1,1,48,43,1504505308
3715,19,Jits_Linear_5,2,5,80,127,1504523748
3715,19,Jits_Linear_5,3,5,63,98,1504584212
3715,19,Jits_Linear_5,0,5,80,127,1505144220
3715,19,Jits_Linear_5,1,5,56,103,1505154344
3715,19,Jits_Linear_5,2,1,48,35,1505190348
3715,19,Jits_Linear_5,3,5,63,98,1505194500
3715,19,Jits_Linear_5,0,5,63,98,1505803756
3715,19,Jits_Linear_5,1,1,48,37,1505829644
3715,19,Jits_Linear_5,2,5,56,103,1505843612
3715,19,Jits_Linear_5,3,5,80,127,1505846752
3715,19,Jits_Linear_5,0,1,48,28,1506422148
3715,19,Jits_Linear_5,1,5,63,98,1506483460
3715,19,Jits_Linear_5,2,5,80,127,1506523384
3715,19,Jits_Linear_5,3,5,56,103,1506554256
3715,19,Jits_Linear_5,0,1,48,31,1507126444
3715,19,Jits_Linear_5,1,5,56,103,1507133812
3715,19,Jits_Linear_5,2,5,63,98,1507144308
3715,19,Jits_Linear_5,3,5,80,127,1507173684
3715,19,Jits_Linear_5,0,1,48,34,1507782272
3715,19,Jits_Linear_5,1,5,80,127,1507794280
3715,19,Jits_Linear_5,2,5,63,98,1507863916
3715,19,Jits_Linear_5,3,5,56,103,1507874172
3715,19,Jits_Linear_5,0,5,63,98,1508464068
3715,19,Jits_Linear_5,1,1,48,38,1508477824
3715,19,Jits_Linear_5,2,5,56,103,1508533748
3715,19,Jits_Linear_5,3,5,80,127,1508543944
3715,19,Jits_Linear_5,0,1,48,39,1509131108
3715,19,Jits_Linear_5,1,5,63,98,1509133696
3715,19,Jits_Linear_5,2,5,56,103,1509154156
3715,19,Jits_Linear_5,3,5,80,127,1509194020
3715,19,Jits_Linear_5,0,5,56,103,1509813572
3715,19,Jits_Linear_5,1,1,48,40,1509816240
3715,19,Jits_Linear_5,2,5,63,98,1509823984
3715,19,Jits_Linear_5,3,5,80,127,1509903584
3715,19,Jits_Linear_5,0,5,63,98,1510474004
3715,19,Jits_Linear_5,1,1,48,43,1510488212
3715,19,Jits_Linear_5,2,5,56,103,1510503672
3715,19,Jits_Linear_5,3,5,80,127,1510543760
3715,19,Jits_Linear_5,0,5,56,103,1511143932
3715,19,Jits_Linear_5,1,5,63,98,1511184024
3715,19,Jits_Linear_5,2,1,48,40,1511189160
3715,19,Jits_Linear_5,3,5,80,127,1511223584
3715,19,Jits_Linear_5,0,1,48,39,1511749600
3715,19,Jits_Linear_5,1,5,80,127,1511824108
3715,19,Jits_Linear_5,2,5,56,103,1511903548
3715,19,Jits_Linear_5,3,5,63,98,1511913968
3715,19,Jits_Linear_5,0,1,48,35,1512511164
3715,19,Jits_Linear_5,1,5,56,103,1512543644
3715,19,Jits_Linear_5,2,5,63,98,1512546564
3715,19,Jits_Linear_5,3,5,80,127,1512553988
3715,19,Jits_Linear_5,0,1,48,38,1513230092
3715,19,Jits_Linear_5,1,5,56,103,1513244212
3715,19,Jits_Linear_5,2,5,63,98,1513263328
3715,19,Jits_Linear_5,3,5,80,127,1513273824
3715,19,Jits_Linear_5,0,5,63,98,1513884008
3715,19,Jits_Linear_5,1,1,48,38,1513886904
3715,19,Jits_Linear_5,2,5,80,127,1513894124
3715,19,Jits_Linear_5,3,5,56,103,1513913832
3715,19,Jits_Linear_5,0,1,48,32,1514505052
3715,19,Jits_Linear_5,1,5,63,98,1514574160
3715,19,Jits_Linear_5,2,5,56,103,1514654092
3715,19,Jits_Linear_5,3,5,80,127,1514657232
3715,19,Jits_Linear_5,0,1,48,33,1515251020
3715,19,Jits_Linear_5,1,5,63,98,1515264392
3715,19,Jits_Linear_5,2,5,56,103,1515284028
3715,19,Jits_Linear_5,3,5,80,127,1515313556
3715,19,Jits_Linear_5,0,1,48,42,1515924688
3715,19,Jits_Linear_5,1,5,56,103,1515953556
3715,19,Jits_Linear_5,2,5,63,98,1515974016
3715,19,Jits_Linear_5,3,5,80,127,1515984216
3715,19,Jits_Linear_5,0,1,48,32,1516596708
3715,19,Jits_Linear_5,1,5,56,103,1516674360
3715,19,Jits_Linear_5,2,5,63,98,1516704092
3715,19,Jits_Linear_5,3,5,80,127,1516707456
3715,19,Jits_Linear_5,0,5,56,103,1517314540
3715,19,Jits_Linear_5,1,1,48,29,1517336540
3715,19,Jits_Linear_5,2,5,63,98,1517354324
3715,19,Jits_Linear_5,3,5,80,127,1517413744
3715,19,Jits_Linear_5,0,1,48,30,1518004136
3715,19,Jits_Linear_5,1,5,56,103,1518024016
3715,19,Jits_Linear_5,2,5,63,98,1518034660
3715,19,Jits_Linear_5,3,5,80,127,1518093880
3715,19,Jits_Linear_5,0,1,48,35,1518662452
3715,19,Jits_Linear_5,1,5,56,103,1518723392
3715,19,Jits_Linear_5,2,5,80,127,1518743856
3715,19,Jits_Linear_5,3,5,63,98,1518773812
3715,19,Jits_Linear_5,0,1,48,33,1519372844
3715,19,Jits_Linear_5,1,5,80,127,1519423964
3715,19,Jits_Linear_5,2,5,56,103,1519434236
3715,19,Jits_Linear_5,3,5,63,98,1519453800
3715,19,Jits_Linear_5,0,1,48,35,1520076084
3715,19,Jits_Linear_5,1,5,63,98,1520113972
3715,19,Jits_Linear_5,2,5,80,127,1520193760
3715,19,Jits_Linear_5,3,5,56,103,1520204104
3715,19,Jits_Linear_5,0,1,48,37,1520751176
3715,19,Jits_Linear_5,1,5,80,127,1520873876
3715,19,Jits_Linear_5,2,5,56,103,1520894336
3715,19,Jits_Linear_5,3,5,63,98,1520897256
3715,19,Jits_Linear_5,0,1,48,36,1521537472
3715,19,Jits_Linear_5,1,5,63,98,1521553680
3715,19,Jits_Linear_5,2,5,80,127,1521556976
3715,19,Jits_Linear_5,3,5,56,103,1521614152
3715,19,Jits_Linear_5,0,5,56,103,1522244072
3715,19,Jits_Linear_5,1,5,80,127,1522254416
3715,19,Jits_Linear_5,2,1,48,38,1522258880
3715,19,Jits_Linear_5,3,5,63,98,1522294276
3715,19,Jits_Linear_5,0,5,56,103,1522934096
3715,19,Jits_Linear_5,1,1,48,46,1522961256
3715,19,Jits_Linear_5,2,5,63,98,1522993660
3715,19,Jits_Linear_5,3,5,80,127,1523003632
3715,19,Jits_Linear_5,0,1,48,41,1523634856
3715,19,Jits_Linear_5,1,5,63,98,1523654060
3715,19,Jits_Linear_5,2,5,80,127,1523693876
3715,19,Jits_Linear_5,3,5,56,103,1523733800
3715,19,Jits_Linear_5,0,1,48,45,1524360596
3715,19,Jits_Linear_5,1,5,56,103,1524363704
3715,19,Jits_Linear_5,2,5,63,98,1524443676
3715,19,Jits_Linear_5,3,5,80,127,1524446892
3715,19,Jits_Linear_5,0,1,48,40,1525112880
3715,19,Jits_Linear_5,1,5,80,127,1525133728
3715,19,Jits_Linear_5,2,5,56,103,1525164600
3715,19,Jits_Linear_5,3,5,63,98,1525167740
3715,19,Jits_Linear_5,0,5,56,103,1525813544
3715,19,Jits_Linear_5,1,5,80,127,1525834156
3715,19,Jits_Linear_5,2,1,48,40,1525857580
3715,19,Jits_Linear_5,3,5,63,98,1525874088
3715,19,Jits_Linear_5,0,1,48,42,1526511864
3715,19,Jits_Linear_5,1,5,80,127,1526513976
3715,19,Jits_Linear_5,2,5,63,98,1526533616
3715,19,Jits_Linear_5,3,5,56,103,1526593856
3715,19,Jits_Linear_5,0,1,48,36,1527230672
3715,19,Jits_Linear_5,1,5,63,98,1527254312
3715,19,Jits_Linear_5,2,5,56,103,1527263560
3715,19,Jits_Linear_5,3,5,80,127,1527313836
3715,19,Jits_Linear_5,0,1,48,43,1527900900
3715,19,Jits_Linear_5,1,5,56,103,1527964024
3715,19,Jits_Linear_5,2,5,63,98,1527983436
3715,19,Jits_Linear_5,3,5,80,127,1527993632
3715,19,Jits_Linear_5,0,1,48,32,1528663076
3715,19,Jits_Linear_5,1,5,56,103,1528683924
3715,19,Jits_Linear_5,2,5,63,98,1528687064
3715,19,Jits_Linear_5,3,5,80,127,1528704460
3715,19,Jits_Linear_5,0,1,48,40,1529376588
3715,19,Jits_Linear_5,1,5,63,98,1529453792
3715,19,Jits_Linear_5,2,5,56,103,1529483676
3715,19,Jits_Linear_5,3,5,80,127,1529514324
3715,19,Jits_Linear_5,0,1,48,41,1530096648
3715,19,Jits_Linear_5,1,5,80,127,1530144252
3715,19,Jits_Linear_5,2,5,56,103,1530234444
3715,19,Jits_Linear_5,3,5,63,98,1530237364
3715,19,Jits_Linear_5,0,5,56,103,1530874416
3715,19,Jits_Linear_5,1,5,80,127,1530877484
3715,19,Jits_Linear_5,2,1,48,40,1530917468
3715,19,Jits_Linear_5,3,5,63,98,1530954204
3715,19,Jits_Linear_5,0,1,48,39,1531582364
3715,19,Jits_Linear_5,1,5,80,127,1531604264
3715,19,Jits_Linear_5,2,5,63,98,1531663636
3715,19,Jits_Linear_5,3,5,56,103,1531693444
3715,19,Jits_Linear_5,0,5,63,98,1532333544
3715,19,Jits_Linear_5,1,5,80,127,1532343740
3715,19,Jits_Linear_5,2,1,48,41,1532354804
3715,19,Jits_Linear_5,3,5,56,103,1532414336
3715,19,Jits_Linear_5,0,1,48,43,1533030096
3715,19,Jits_Linear_5,1,5,56,103,1533084376
3715,19,Jits_Linear_5,2,5,80,127,1533113684
3715,19,Jits_Linear_5,3,5,63,98,1533163748
3715,19,Jits_Linear_5,0,1,48,38,1533809124
3715,19,Jits_Linear_5,1,5,63,98,1533864452
3715,19,Jits_Linear_5,2,5,56,103,1533894128
3715,19,Jits_Linear_5,3,5,80,127,1533897044
3715,19,Jits_Linear_5,0,1,48,43,1534552116
3715,19,Jits_Linear_5,1,5,63,98,1534603832
3715,19,Jits_Linear_5,2,5,80,127,1534624288
3715,19,Jits_Linear_5,3,5,56,103,1534634336
3715,19,Jits_Linear_5,0,1,48,40,1535240312
3715,19,Jits_Linear_5,1,5,56,103,1535354216
3715,19,Jits_Linear_5,2,5,63,98,1535357356
3715,19,Jits_Linear_5,3,5,80,127,1535373628
3715,19,Jits_Linear_5,0,5,56,103,1536053684
3715,19,Jits_Linear_5,1,1,48,35,1536064324
3715,19,Jits_Linear_5,2,5,63,98,1536065892
3715,19,Jits_Linear_5,3,5,80,127,1536093548
3715,19,Jits_Linear_5,0,1,48,42,1536765096
3715,19,Jits_Linear_5,1,5,63,98,1536823788
3715,19,Jits_Linear_5,2,5,80,127,1536844100
3715,19,Jits_Linear_5,3,5,56,103,1536884172
3715,19,Jits_Linear_5,0,1,48,40,1537564800
3715,19,Jits_Linear_5,1,5,56,103,1537603932
3715,19,Jits_Linear_5,2,5,63,98,1537644020
3715,19,Jits_Linear_5,3,5,80,127,1537647088
3715,19,Jits_Linear_5,0,5,80,127,1538294168
3715,19,Jits_Linear_5,1,5,56,103,1538333960
3715,19,Jits_Linear_5,2,1,48,39,1538348536
3715,19,Jits_Linear_5,3,5,63,98,1538384228
3715,19,Jits_Linear_5,0,1,48,37,1539060868
3715,19,Jits_Linear_5,1,5,56,103,1539104060
3715,19,Jits_Linear_5,2,5,80,127,1539114332
3715,19,Jits_Linear_5,3,5,63,98,1539143936
3715,19,Jits_Linear_5,0,5,56,103,1539803376
3715,19,Jits_Linear_5,1,1,48,32,1539834968
3715,19,Jits_Linear_5,2,5,80,127,1539843384
3715,19,Jits_Linear_5,3,5,63,98,1539893512
3715,19,Jits_Linear_5,0,1,48,34,1540555076
3715,19,Jits_Linear_5,1,5,56,103,1540564388
3715,19,Jits_Linear_5,2,5,80,127,1540604208
3715,19,Jits_Linear_5,3,5,63,98,1540653288
3715,19,Jits_Linear_5,0,5,80,127,1541313968
3715,19,Jits_Linear_5,1,1,48,55,1541357048
3715,19,Jits_Linear_5,2,5,63,98,1541393860
3715,19,Jits_Linear_5,3,5,56,103,1541404056
3715,19,Jits_Linear_5,0,1,48,54,1542118836
3715,19,Jits_Linear_5,1,5,80,127,1542123740
3715,19,Jits_Linear_5,2,5,56,103,1542134160
3715,19,Jits_Linear_5,3,5,63,98,1542153572
3715,19,Jits_Linear_5,0,5,63,98,1542853964
3715,19,Jits_Linear_5,1,1,48,53,1542877560
3715,19,Jits_Linear_5,2,5,56,103,1542923740
3715,19,Jits_Linear_5,3,5,80,127,1542926808
3715,19,Jits_Linear_5,0,1,48,51,1543590376
3715,19,Jits_Linear_5,1,5,80,127,1543613712
3715,19,Jits_Linear_5,2,5,63,98,1543663944
3715,19,Jits_Linear_5,3,5,56,103,1543703792
3715,19,Jits_Linear_5,0,1,48,51,1544404176
3715,19,Jits_Linear_5,1,5,63,98,1544424000
3715,19,Jits_Linear_5,2,5,56,103,1544463940
3715,19,Jits_Linear_5,3,5,80,127,1544473916
3715,19,Jits_Linear_5,0,1,48,52,1545164760
3715,19,Jits_Linear_5,1,5,63,98,1545183692
3715,19,Jits_Linear_5,2,5,56,103,1545204076
3715,19,Jits_Linear_5,3,5,80,127,1545223492
3715,19,Jits_Linear_5,0,5,80,127,1545913620
3715,19,Jits_Linear_5,1,5,56,103,1545924036
3715,19,Jits_Linear_5,2,5,63,98,1545944576
3715,19,Jits_Linear_5,3,1,48,55,1545960796
3715,19,Jits_Linear_5,0,1,48,47,1546709288
3715,19,Jits_Linear_5,1,5,63,98,1546713616
3715,19,Jits_Linear_5,2,5,56,103,1546754604
3715,19,Jits_Linear_5,3,5,80,127,1546784060
3715,19,Jits_Linear_5,0,1,48,50,1547466360
3715,19,Jits_Linear_5,1,5,56,103,1547493688
3715,19,Jits_Linear_5,2,5,63,98,1547523736
3715,19,Jits_Linear_5,3,5,80,127,1547554164
3715,19,Jits_Linear_5,0,1,48,44,1548218408
3715,19,Jits_Linear_5,1,5,80,127,1548244284
3715,19,Jits_Linear_5,2,5,56,103,1548313904
3715,19,Jits_Linear_5,3,5,63,98,1548317196
3715,19,Jits_Linear_5,0,1,48,44,1549001008
3715,19,Jits_Linear_5,1,5,56,103,1549044148
3715,19,Jits_Linear_5,2,5,63,98,1549094192
3715,19,Jits_Linear_5,3,5,80,127,1549123864
3715,19,Jits_Linear_5,0,1,48,46,1549762956
3715,19,Jits_Linear_5,1,5,63,98,1549804060
3715,19,Jits_Linear_5,2,5,80,127,1549807348
3715,19,Jits_Linear_5,3,5,56,103,1549864508
3715,19,Jits_Linear_5,0,5,56,103,1550613868
3715,19,Jits_Linear_5,1,1,48,53,1550622244
3715,19,Jits_Linear_5,2,5,80,127,1550624056
3715,19,Jits_Linear_5,3,5,63,98,1550674408
3715,19,Jits_Linear_5,0,5,63,98,1551373720
3715,19,Jits_Linear_5,1,5,56,103,1551383992
3715,19,Jits_Linear_5,2,5,80,127,1551413592
3715,19,Jits_Linear_5,3,1,48,48,1551439552
3715,19,Jits_Linear_5,0,1,48,47,1552122136
3715,19,Jits_Linear_5,1,5,63,98,1552193776
3715,19,Jits_Linear_5,2,5,80,127,1552197220
3715,19,Jits_Linear_5,3,5,56,103,1552223592
3715,19,Jits_Linear_5,0,1,48,48,1552897240
3715,19,Jits_Linear_5,1,5,63,98,1553004020
3715,19,Jits_Linear_5,2,5,56,103,1553024552
3715,19,Jits_Linear_5,3,5,80,127,1553027692
3715,19,Jits_Linear_5,0,1,48,42,1553722856
3715,19,Jits_Linear_5,1,5,63,98,1553753448
3715,19,Jits_Linear_5,2,5,56,103,1553824240
3715,19,Jits_Linear_5,3,5,80,127,1553843504
3715,19,Jits_Linear_5,0,5,56,103,1554533672
3715,19,Jits_Linear_5,1,5,63,98,1554543868
3715,19,Jits_Linear_5,2,1,48,39,1554579796
3715,19,Jits_Linear_5,3,5,80,127,1554634592
3715,19,Jits_Linear_5,0,1,48,40,1555300376
3715,19,Jits_Linear_5,1,5,56,103,1555343640
3715,19,Jits_Linear_5,2,5,80,127,1555383584
3715,19,Jits_Linear_5,3,5,63,98,1555393852
3715,19,Jits_Linear_5,0,1,48,42,1556068900
3715,19,Jits_Linear_5,1,5,56,103,1556164012
3715,19,Jits_Linear_5,2,5,63,98,1556193624
3715,19,Jits_Linear_5,3,5,80,127,1556224424
3715,19,Jits_Linear_5,0,1,48,47,1556911000
3715,19,Jits_Linear_5,1,5,80,127,1556923700
3715,19,Jits_Linear_5,2,5,63,98,1556963892
3715,19,Jits_Linear_5,3,5,56,103,1556984200
3715,19,Jits_Linear_5,0,1,48,49,1557712956
3715,19,Jits_Linear_5,1,5,56,103,1557763504
3715,19,Jits_Linear_5,2,5,80,127,1557783888
3715,19,Jits_Linear_5,3,5,63,98,1557804500
3715,19,Jits_Linear_5,0,1,48,47,1558530348
3715,19,Jits_Linear_5,1,5,63,98,1558533528
3715,19,Jits_Linear_5,2,5,56,103,1558543800
3715,19,Jits_Linear_5,3,5,80,127,1558604116
3715,19,Jits_Linear_5,0,5,56,103,1559343344
3715,19,Jits_Linear_5,1,1,48,50,1559361360
3715,19,Jits_Linear_5,2,5,63,98,1559414292
3715,19,Jits_Linear_5,3,5,80,127,1559433556
3715,19,Jits_Linear_5,0,5,56,103,1560153396
3715,19,Jits_Linear_5,1,5,63,98,1560184120
3715,19,Jits_Linear_5,2,1,48,52,1560192344
3715,19,Jits_Linear_5,3,5,80,127,1560224200
3715,19,Jits_Linear_5,0,1,48,50,1560894108
3715,19,Jits_Linear_5,1,5,63,98,1560954220
3715,19,Jits_Linear_5,2,5,56,103,1561004488
3715,19,Jits_Linear_5,3,5,80,127,1561013560
3715,19,Jits_Linear_5,0,1,48,44,1561696940
3715,19,Jits_Linear_5,1,5,56,103,1561804324
3715,19,Jits_Linear_5,2,5,63,98,1561854260
3715,19,Jits_Linear_5,3,5,80,127,1561863556
3715,19,Jits_Linear_5,0,1,48,46,1562539644
3715,19,Jits_Linear_5,1,5,56,103,1562584436
3715,19,Jits_Linear_5,2,5,63,98,1562593508
3715,19,Jits_Linear_5,3,5,80,127,1562673440
3715,19,Jits_Linear_5,0,9999,9999,9999,1453822080
3715,19,Jits_Linear_5,1,9999,9999,9999,1454301300
3715,19,Jits_Linear_5,2,9999,9999,9999,1454781520
3715,19,Jits_Linear_5,3,9999,9999,9999,1455261796
3715,19,Jits_Linear_5,4,9999,9999,9999,1455742012
3715,19,Jits_Linear_5,5,9999,9999,9999,1456231516
3715,19,Jits_Linear_5,6,9999,9999,9999,1456721988
3715,19,Jits_Linear_5,7,9999,9999,9999,1457211504
3715,19,Jits_Linear_5,8,9999,9999,9999,1457701972
3715,19,Jits_Linear_5,9,9999,9999,9999,1458191472
3715,19,Jits_Linear_5,10,9999,9999,9999,1458691156
3715,19,Jits_Linear_5,11,9999,9999,9999,1459191892
3715,19,Jits_Linear_5,12,9999,9999,9999,1459691648
3715,19,Jits_Linear_5,13,9999,9999,9999,1460191332
3715,19,Jits_Linear_5,14,9999,9999,9999,1460692040
3715,19,Jits_Linear_5,15,9999,9999,9999,1461201992
3715,19,Jits_Linear_5,16,9999,9999,9999,1461711992
3715,19,Jits_Linear_5,17,9999,9999,9999,1462221944
3715,19,Jits_Linear_5,18,9999,9999,9999,1462731896
3715,19,Jits_Linear_5,19,9999,9999,9999,1463241852
3715,19,Jits_Linear_5,20,9999,9999,9999,1463761992
3715,19,Jits_Linear_5,21,9999,9999,9999,1464281160
3715,19,Jits_Linear_5,22,9999,9999,9999,1464801396
3715,19,Jits_Linear_5,23,9999,9999,9999,1465321536
3715,19,Jits_Linear_5,24,9999,9999,9999,1465841752
3715,19,Jits_Linear_5,25,9999,9999,9999,1466371176
3715,19,Jits_Linear_5,26,9999,9999,9999,1466901588
3715,19,Jits_Linear_5,27,9999,9999,9999,1467432040
3715,19,Jits_Linear_5,28,9999,9999,9999,1467961416
3715,19,Jits_Linear_5,29,9999,9999,9999,1468491892
3715,19,Jits_Linear_5,30,9999,9999,9999,1469031528
3715,19,Jits_Linear_5,31,9999,9999,9999,1469571148
3715,19,Jits_Linear_5,32,9999,9999,9999,1470111816
3715,19,Jits_Linear_5,33,9999,9999,9999,1470651512
3715,19,Jits_Linear_5,34,9999,9999,9999,1471191132
3715,19,Jits_Linear_5,35,9999,9999,9999,1471742028
3715,19,Jits_Linear_5,36,9999,9999,9999,1472291900
3715,19,Jits_Linear_5,37,9999,9999,9999,1472841788
3715,19,Jits_Linear_5,38,9999,9999,9999,1473391676
3715,19,Jits_Linear_5,39,9999,9999,9999,1473941564
3715,19,Jits_Linear_5,40,9999,9999,9999,1474501716
3715,19,Jits_Linear_5,41,9999,9999,9999,1475061884
3715,19,Jits_Linear_5,42,9999,9999,9999,1475621968
3715,19,Jits_Linear_5,43,9999,9999,9999,1476182112
3715,19,Jits_Linear_5,44,9999,9999,9999,1476751472
3715,19,Jits_Linear_5,45,9999,9999,9999,1477321812
3715,19,Jits_Linear_5,46,9999,9999,9999,1477891196
3715,19,Jits_Linear_5,47,9999,9999,9999,1478461540
3715,19,Jits_Linear_5,48,9999,9999,9999,1479031880
3715,19,Jits_Linear_5,49,9999,9999,9999,1479601264
3715,19,Jits_Linear_5,50,9999,9999,9999,1480181876
3715,19,Jits_Linear_5,51,9999,9999,9999,1480761444
3715,19,Jits_Linear_5,52,9999,9999,9999,1481342044
3715,19,Jits_Linear_5,53,9999,9999,9999,1481921600
3715,19,Jits_Linear_5,54,9999,9999,9999,1482501184
3715,19,Jits_Linear_5,55,9999,9999,9999,1483092052
3715,19,Jits_Linear_5,56,9999,9999,9999,1483681868
3715,19,Jits_Linear_5,57,9999,9999,9999,1484271704
3715,19,Jits_Linear_5,58,9999,9999,9999,1484861524
3715,19,Jits_Linear_5,59,9999,9999,9999,1485451328
3715,19,Jits_Linear_5,60,9999,9999,9999,1486051448
3715,19,Jits_Linear_5,61,9999,9999,9999,1486651448
3715,19,Jits_Linear_5,62,9999,9999,9999,1487251532
3715,19,Jits_Linear_5,63,9999,9999,9999,1487851636
3715,19,Jits_Linear_5,64,9999,9999,9999,1488451644
3715,19,Jits_Linear_5,65,9999,9999,9999,1489061984
3715,19,Jits_Linear_5,66,9999,9999,9999,1489671236
3715,19,Jits_Linear_5,67,9999,9999,9999,1490281568
3715,19,Jits_Linear_5,68,9999,9999,9999,1490891852
3715,19,Jits_Linear_5,69,9999,9999,9999,1491501180
3715,19,Jits_Linear_5,70,9999,9999,9999,1492121700
3715,19,Jits_Linear_5,71,9999,9999,9999,1492741224
3715,19,Jits_Linear_5,72,9999,9999,9999,1493361756
3715,19,Jits_Linear_5,73,9999,9999,9999,1493981268
3715,19,Jits_Linear_5,74,9999,9999,9999,1494601796
3715,19,Jits_Linear_5,75,9999,9999,9999,1495231544
3715,19,Jits_Linear_5,76,9999,9999,9999,1495861340
3715,19,Jits_Linear_5,77,9999,9999,9999,1496491092
3715,19,Jits_Linear_5,78,9999,9999,9999,1497121912
3715,19,Jits_Linear_5,79,9999,9999,9999,1497751664
3715,19,Jits_Linear_5,80,9999,9999,9999,1498391636
3715,19,Jits_Linear_5,81,9999,9999,9999,1499031648
3715,19,Jits_Linear_5,82,9999,9999,9999,1499671608
3715,19,Jits_Linear_5,83,9999,9999,9999,1500311624
3715,19,Jits_Linear_5,84,9999,9999,9999,1500951608
3715,19,Jits_Linear_5,85,9999,9999,9999,1501601880
3715,19,Jits_Linear_5,86,9999,9999,9999,1502251132
3715,19,Jits_Linear_5,87,9999,9999,9999,1502901336
3715,19,Jits_Linear_5,88,9999,9999,9999,1503551564
3715,19,Jits_Linear_5,89,9999,9999,9999,1504201840
3715,19,Jits_Linear_5,90,9999,9999,9999,1504861304
3715,19,Jits_Linear_5,91,9999,9999,9999,1505521732
3715,19,Jits_Linear_5,92,9999,9999,9999,1506181232
3715,19,Jits_Linear_5,93,9999,9999,9999,1506841700
3715,19,Jits_Linear_5,94,9999,9999,9999,1507501116
3715,19,Jits_Linear_5,95,9999,9999,9999,1508171872
3715,19,Jits_Linear_5,96,9999,9999,9999,1508841584
3715,19,Jits_Linear_5,97,9999,9999,9999,1509511264
3715,19,Jits_Linear_5,98,9999,9999,9999,1510182016
3715,19,Jits_Linear_5,99,9999,9999,9999,1510851640
3715,19,Jits_Linear_5,100,9999,9999,9999,1511531608
3715,19,Jits_Linear_5,101,9999,9999,9999,1512211524
3715,19,Jits_Linear_5,102,9999,9999,9999,1512891460
3715,19,Jits_Linear_5,103,9999,9999,9999,1513571436
3715,19,Jits_Linear_5,104,9999,9999,9999,1514251328
3715,19,Jits_Linear_5,105,9999,9999,9999,1514941536
3715,19,Jits_Linear_5,106,9999,9999,9999,1515631696
3715,19,Jits_Linear_5,107,9999,9999,9999,1516321856
3715,19,Jits_Linear_5,108,9999,9999,9999,1517012060
3715,19,Jits_Linear_5,109,9999,9999,9999,1517701244
3715,19,Jits_Linear_5,110,9999,9999,9999,1518401608
3715,19,Jits_Linear_5,111,9999,9999,9999,1519102032
3715,19,Jits_Linear_5,112,9999,9999,9999,1519801460
3715,19,Jits_Linear_5,113,9999,9999,9999,1520501884
3715,19,Jits_Linear_5,114,9999,9999,9999,1521201256
3715,19,Jits_Linear_5,115,9999,9999,9999,1521911864
3715,19,Jits_Linear_5,116,9999,9999,9999,1522621556
3715,19,Jits_Linear_5,117,9999,9999,9999,1523331140
3715,19,Jits_Linear_5,118,9999,9999,9999,1524041844
3715,19,Jits_Linear_5,119,9999,9999,9999,1524751476
3715,19,Jits_Linear_5,120,9999,9999,9999,1525471300
3715,19,Jits_Linear_5,121,9999,9999,9999,1526191184
3715,19,Jits_Linear_5,122,9999,9999,9999,1526912072
3715,19,Jits_Linear_5,123,9999,9999,9999,1527641192
3715,19,Jits_Linear_5,124,9999,9999,9999,1528362068
3715,19,Jits_Linear_5,125,9999,9999,9999,1529091172
3715,19,Jits_Linear_5,126,9999,9999,9999,1529821268
3715,19,Jits_Linear_5,127,9999,9999,9999,1530551404
3715,19,Jits_Linear_5,128,9999,9999,9999,1531281488
3715,19,Jits_Linear_5,129,9999,9999,9999,1532011600
3715,19,Jits_Linear_5,130,9999,9999,9999,1532751956
3715,19,Jits_Linear_5,131,9999,9999,9999,1533491268
3715,19,Jits_Linear_5,132,9999,9999,9999,1534231620
3715,19,Jits_Linear_5,133,9999,9999,9999,1534971984
3715,19,Jits_Linear_5,134,9999,9999,9999,1535711360
3715,19,Jits_Linear_5,135,9999,9999,9999,1536461880
3715,19,Jits_Linear_5,136,9999,9999,9999,1537211472
3715,19,Jits_Linear_5,137,9999,9999,9999,1537962088
3715,19,Jits_Linear_5,138,9999,9999,9999,1538711656
3715,19,Jits_Linear_5,139,9999,9999,9999,1539461176
3715,19,Jits_Linear_5,140,9999,9999,9999,1540222060
3715,19,Jits_Linear_5,141,9999,9999,9999,1540981840
3715,19,Jits_Linear_5,142,9999,9999,9999,1541741676
3715,19,Jits_Linear_5,143,9999,9999,9999,1542501456
3715,19,Jits_Linear_5,144,9999,9999,9999,1543261284
3715,19,Jits_Linear_5,145,9999,9999,9999,1544031312
3715,19,Jits_Linear_5,146,9999,9999,9999,1544801348
3715,19,Jits_Linear_5,147,9999,9999,9999,1545571448
3715,19,Jits_Linear_5,148,9999,9999,9999,1546341444
3715,19,Jits_Linear_5,149,9999,9999,9999,1547111488
3715,19,Jits_Linear_5,150,9999,9999,9999,1547891784
3715,19,Jits_Linear_5,151,9999,9999,9999,1548672064
3715,19,Jits_Linear_5,152,9999,9999,9999,1549461576
3715,19,Jits_Linear_5,153,9999,9999,9999,1550241852
3715,19,Jits_Linear_5,154,9999,9999,9999,1551021168
3715,19,Jits_Linear_5,155,9999,9999,9999,1551811660
3715,19,Jits_Linear_5,156,9999,9999,9999,1552601184
3715,19,Jits_Linear_5,157,9999,9999,9999,1553391728
3715,19,Jits_Linear_5,158,9999,9999,9999,1554181236
3715,19,Jits_Linear_5,159,9999,9999,9999,1554971716
3715,19,Jits_Linear_5,160,9999,9999,9999,1555771500
3715,19,Jits_Linear_5,161,9999,9999,9999,1556571200
3715,19,Jits_Linear_5,162,9999,9999,9999,1557372012
3715,19,Jits_Linear_5,163,9999,9999,9999,1558171708
3715,19,Jits_Linear_5,164,9999,9999,9999,1558971480
3715,19,Jits_Linear_5,165,9999,9999,9999,1559781464
3715,19,Jits_Linear_5,166,9999,9999,9999,1560591440
3715,19,Jits_Linear_5,167,9999,9999,9999,1561401412
3715,19,Jits_Linear_5,168,9999,9999,9999,1562211452
3715,19,Jits_Linear_5,169,9999,9999,9999,1563021412
3716,15,Jits_Phase_8,0,5,56,103,1577100576
3716,15,Jits_Phase_8,1,5,63,98,1577103676
3716,15,Jits_Phase_8,2,5,80,127,1577107020
3716,15,Jits_Phase_8,0,1,48,42,1577692964
3716,15,Jits_Phase_8,1,5,56,103,1577901396
3716,15,Jits_Phase_8,2,5,63,98,1577904492
3716,15,Jits_Phase_8,3,5,80,127,1577907688
3716,15,Jits_Phase_8,0,1,48,40,1578554284
3716,15,Jits_Phase_8,1,5,80,127,1578640776
3716,15,Jits_Phase_8,2,5,63,98,1578730920
3716,15,Jits_Phase_8,3,5,56,103,1578741192
3716,15,Jits_Phase_8,0,1,48,28,1579408676
3716,15,Jits_Phase_8,1,5,56,103,1579460840
3716,15,Jits_Phase_8,2,5,63,98,1579471408
3716,15,Jits_Phase_8,3,5,80,127,1579561624
3716,15,Jits_Phase_8,0,1,48,33,1580228272
3716,15,Jits_Phase_8,1,5,63,98,1580231152
3716,15,Jits_Phase_8,2,5,80,127,1580260780
3716,15,Jits_Phase_8,3,5,56,103,1580290380
3716,15,Jits_Phase_8,0,5,56,103,1581030640
3716,15,Jits_Phase_8,1,1,48,33,1581031980
3716,15,Jits_Phase_8,2,5,80,127,1581131388
3716,15,Jits_Phase_8,3,5,63,98,1581181440
3716,15,Jits_Phase_8,0,5,56,103,1581830488
3716,15,Jits_Phase_8,1,1,48,31,1581840584
3716,15,Jits_Phase_8,2,5,80,127,1581880684
3716,15,Jits_Phase_8,3,5,63,98,1581920772
3716,15,Jits_Phase_8,0,1,48,36,1582598228
3716,15,Jits_Phase_8,1,5,80,127,1582660968
3716,15,Jits_Phase_8,2,5,63,98,1582690644
3716,15,Jits_Phase_8,3,5,56,103,1582761432
3716,15,Jits_Phase_8,0,1,48,45,1583443620
3716,15,Jits_Phase_8,1,5,63,98,1583490400
3716,15,Jits_Phase_8,2,5,56,103,1583521196
3716,15,Jits_Phase_8,3,5,80,127,1583580400
3716,15,Jits_Phase_8,0,5,56,103,1584230672
3716,15,Jits_Phase_8,1,5,80,127,1584234044
3716,15,Jits_Phase_8,2,1,48,44,1584265036
3716,15,Jits_Phase_8,3,5,63,98,1584350648
3716,15,Jits_Phase_8,0,1,48,45,1584985900
3716,15,Jits_Phase_8,1,5,56,103,1585111360
3716,15,Jits_Phase_8,2,5,80,127,1585151448
3716,15,Jits_Phase_8,3,5,63,98,1585160524
3716,15,Jits_Phase_8,0,1,48,38,1585841192
3716,15,Jits_Phase_8,1,5,56,103,1585871328
3716,15,Jits_Phase_8,2,5,80,127,1585890544
3716,15,Jits_Phase_8,3,5,63,98,1585970548
3716,15,Jits_Phase_8,0,1,48,38,1586652512
3716,15,Jits_Phase_8,1,5,80,127,1586660852
3716,15,Jits_Phase_8,2,5,56,103,1586761236
3716,15,Jits_Phase_8,3,5,63,98,1586771284
3716,15,Jits_Phase_8,0,5,63,98,1587430656
3716,15,Jits_Phase_8,1,5,80,127,1587491196
3716,15,Jits_Phase_8,2,5,56,103,1587501392
3716,15,Jits_Phase_8,3,1,48,36,1587511856
3716,15,Jits_Phase_8,0,5,56,103,1588230632
3716,15,Jits_Phase_8,1,1,48,34,1588245436
3716,15,Jits_Phase_8,2,5,63,98,1588301132
3716,15,Jits_Phase_8,3,5,80,127,1588304496
3716,15,Jits_Phase_8,0,1,48,36,1589015220
3716,15,Jits_Phase_8,1,5,63,98,1589061176
3716,15,Jits_Phase_8,2,5,56,103,1589111060
3716,15,Jits_Phase_8,3,5,80,127,1589114352
3716,15,Jits_Phase_8,0,1,48,44,1589782232
3716,15,Jits_Phase_8,1,5,56,103,1589820912
3716,15,Jits_Phase_8,2,5,80,127,1589823980
3716,15,Jits_Phase_8,3,5,63,98,1589911180
3716,15,Jits_Phase_8,0,1,48,42,1590568032
3716,15,Jits_Phase_8,1,5,63,98,1590660368
3716,15,Jits_Phase_8,2,5,56,103,1590750664
3716,15,Jits_Phase_8,3,5,80,127,1590781164
3716,15,Jits_Phase_8,0,1,48,41,1591427356
3716,15,Jits_Phase_8,1,5,56,103,1591450916
3716,15,Jits_Phase_8,2,5,63,98,1591551324
3716,15,Jits_Phase_8,3,5,80,127,1591580996
3716,15,Jits_Phase_8,0,5,63,98,1592271212
3716,15,Jits_Phase_8,1,5,56,103,1592280388
3716,15,Jits_Phase_8,2,1,48,36,1592283804
3716,15,Jits_Phase_8,3,5,80,127,1592370436
3716,15,Jits_Phase_8,0,1,48,41,1593068036
3716,15,Jits_Phase_8,1,5,63,98,1593090396
3716,15,Jits_Phase_8,2,5,56,103,1593171300
3716,15,Jits_Phase_8,3,5,80,127,1593174368
3716,15,Jits_Phase_8,0,5,80,127,1593851272
3716,15,Jits_Phase_8,1,5,63,98,1593870836
3716,15,Jits_Phase_8,2,1,48,41,1593900780
3716,15,Jits_Phase_8,3,5,56,103,1593931068
3716,15,Jits_Phase_8,0,1,48,42,1594626876
3716,15,Jits_Phase_8,1,5,56,103,1594691120
3716,15,Jits_Phase_8,2,5,63,98,1594711428
3716,15,Jits_Phase_8,3,5,80,127,1594714792
3716,15,Jits_Phase_8,0,5,63,98,1595431388
3716,15,Jits_Phase_8,1,1,48,26,1595446264
3716,15,Jits_Phase_8,2,5,80,127,1595511100
3716,15,Jits_Phase_8,3,5,56,103,1595521372
3716,15,Jits_Phase_8,0,1,48,23,1596229316
3716,15,Jits_Phase_8,1,5,63,98,1596250468
3716,15,Jits_Phase_8,2,5,56,103,1596270928
3716,15,Jits_Phase_8,3,5,80,127,1596321128
3716,15,Jits_Phase_8,0,1,48,24,1596995200
3716,15,Jits_Phase_8,1,5,80,127,1597051268
3716,15,Jits_Phase_8,2,5,63,98,1597091268
3716,15,Jits_Phase_8,3,5,56,103,1597110604
3716,15,Jits_Phase_8,0,1,48,36,1597807012
3716,15,Jits_Phase_8,1,5,56,103,1597890960
3716,15,Jits_Phase_8,2,5,63,98,1597901216
3716,15,Jits_Phase_8,3,5,80,127,1597920576
3716,15,Jits_Phase_8,0,5,56,103,1598620972
3716,15,Jits_Phase_8,1,1,48,32,1598648132
3716,15,Jits_Phase_8,2,5,63,98,1598711124
3716,15,Jits_Phase_8,3,5,80,127,1598770752
3716,15,Jits_Phase_8,0,1,48,33,1599430980
3716,15,Jits_Phase_8,1,5,80,127,1599450732
3716,15,Jits_Phase_8,2,5,56,103,1599460852
3716,15,Jits_Phase_8,3,5,63,98,1599531340
3716,15,Jits_Phase_8,0,1,48,28,1600235848
3716,15,Jits_Phase_8,1,5,63,98,1600280908
3716,15,Jits_Phase_8,2,5,80,127,1600371100
3716,15,Jits_Phase_8,3,5,56,103,1600381224
3716,15,Jits_Phase_8,0,5,63,98,1601010924
3716,15,Jits_Phase_8,1,1,48,26,1601053152
3716,15,Jits_Phase_8,2,5,80,127,1601061120
3716,15,Jits_Phase_8,3,5,56,103,1601120536
3716,15,Jits_Phase_8,0,1,48,27,1601820168
3716,15,Jits_Phase_8,1,5,56,103,1601831500
3716,15,Jits_Phase_8,2,5,80,127,1601880580
3716,15,Jits_Phase_8,3,5,63,98,1601900888
3716,15,Jits_Phase_8,0,1,48,29,1602599620
3716,15,Jits_Phase_8,1,5,56,103,1602601432
3716,15,Jits_Phase_8,2,5,80,127,1602660852
3716,15,Jits_Phase_8,3,5,63,98,1602731636
3716,15,Jits_Phase_8,0,5,56,103,1603401044
3716,15,Jits_Phase_8,1,5,80,127,1603430648
3716,15,Jits_Phase_8,2,5,63,98,1603460620
3716,15,Jits_Phase_8,3,1,48,35,1603474296
3716,15,Jits_Phase_8,0,1,48,35,1604191784
3716,15,Jits_Phase_8,1,5,56,103,1604240736
3716,15,Jits_Phase_8,2,5,80,127,1604261416
3716,15,Jits_Phase_8,3,5,63,98,1604320548
3716,15,Jits_Phase_8,0,1,48,42,1604996556
3716,15,Jits_Phase_8,1,5,80,127,1605121344
3716,15,Jits_Phase_8,2,5,56,103,1605130640
3716,15,Jits_Phase_8,3,5,63,98,1605140912
3716,15,Jits_Phase_8,0,1,48,46,1605867968
3716,15,Jits_Phase_8,1,5,56,103,1605881560
3716,15,Jits_Phase_8,2,5,80,127,1605921352
3716,15,Jits_Phase_8,3,5,63,98,1605950880
3716,15,Jits_Phase_8,0,5,56,103,1606651436
3716,15,Jits_Phase_8,1,5,63,98,1606681040
3716,15,Jits_Phase_8,2,1,48,49,1606698384
3716,15,Jits_Phase_8,3,5,80,127,1606720968
3716,15,Jits_Phase_8,0,5,80,127,1607400864
3716,15,Jits_Phase_8,1,1,48,48,1607430512
3716,15,Jits_Phase_8,2,5,63,98,1607451432
3716,15,Jits_Phase_8,3,5,56,103,1607470472
3716,15,Jits_Phase_8,0,1,48,50,1608208548
3716,15,Jits_Phase_8,1,5,56,103,1608231264
3716,15,Jits_Phase_8,2,5,80,127,1608300872
3716,15,Jits_Phase_8,3,5,63,98,1608361320
3716,15,Jits_Phase_8,0,5,80,127,1609030956
3716,15,Jits_Phase_8,1,1,48,47,1609043740
3716,15,Jits_Phase_8,2,5,63,98,1609121232
3716,15,Jits_Phase_8,3,5,56,103,1609140484
3716,15,Jits_Phase_8,0,5,63,98,1609851260
3716,15,Jits_Phase_8,1,5,56,103,1609870672
3716,15,Jits_Phase_8,2,1,48,46,1609898952
3716,15,Jits_Phase_8,3,5,80,127,1609910752
3716,15,Jits_Phase_8,0,5,80,127,1610611308
3716,15,Jits_Phase_8,1,5,63,98,1610630644
3716,15,Jits_Phase_8,2,1,48,48,1610686128
3716,15,Jits_Phase_8,3,5,56,103,1610711356
3716,15,Jits_Phase_8,0,1,48,50,1611364664
3716,15,Jits_Phase_8,1,5,63,98,1611400508
3716,15,Jits_Phase_8,2,5,56,103,1611511324
3716,15,Jits_Phase_8,3,5,80,127,1611514316
3716,15,Jits_Phase_8,0,1,48,35,1612217296
3716,15,Jits_Phase_8,1,5,63,98,1612221004
3716,15,Jits_Phase_8,2,5,56,103,1612231124
3716,15,Jits_Phase_8,3,5,80,127,1612234264
3716,15,Jits_Phase_8,0,1,48,46,1612968340
3716,15,Jits_Phase_8,1,5,56,103,1613000968
3716,15,Jits_Phase_8,2,5,80,127,1613121152
3716,15,Jits_Phase_8,3,5,63,98,1613160792
3716,15,Jits_Phase_8,0,5,56,103,1613821284
3716,15,Jits_Phase_8,1,1,48,48,1613834744
3716,15,Jits_Phase_8,2,5,80,127,1613901224
3716,15,Jits_Phase_8,3,5,63,98,1613920488
3716,15,Jits_Phase_8,0,1,48,53,1614617724
3716,15,Jits_Phase_8,1,5,56,103,1614621200
3716,15,Jits_Phase_8,2,1,48,43,1614649564
3716,15,Jits_Phase_8,3,5,63,98,1614730644
3716,15,Jits_Phase_8,4,5,80,127,1614734156
3716,15,Jits_Phase_8,0,1,48,43,1615454896
3716,15,Jits_Phase_8,1,5,56,103,1615460844
3716,15,Jits_Phase_8,2,5,80,127,1615490372
3716,15,Jits_Phase_8,3,5,63,98,1615510980
3716,15,Jits_Phase_8,0,1,48,40,1616243492
3716,15,Jits_Phase_8,1,5,63,98,1616251460
3716,15,Jits_Phase_8,2,5,56,103,1616260388
3716,15,Jits_Phase_8,3,5,80,127,1616270660
3716,15,Jits_Phase_8,0,5,80,127,1617040880
3716,15,Jits_Phase_8,1,1,48,45,1617048956
3716,15,Jits_Phase_8,2,5,56,103,1617091000
3716,15,Jits_Phase_8,3,5,63,98,1617131036
3716,15,Jits_Phase_8,0,1,48,48,1617859064
3716,15,Jits_Phase_8,1,5,80,127,1617860948
3716,15,Jits_Phase_8,2,5,63,98,1617880388
3716,15,Jits_Phase_8,3,1,48,40,1617887152
3716,15,Jits_Phase_8,4,5,56,103,1617930712
3716,15,Jits_Phase_8,0,5,80,127,1618671108
3716,15,Jits_Phase_8,1,1,48,47,1618677968
3716,15,Jits_Phase_8,2,5,56,103,1618700852
3716,15,Jits_Phase_8,3,5,63,98,1618771208
3716,15,Jits_Phase_8,0,1,48,44,1619514384
3716,15,Jits_Phase_8,1,5,56,103,1619521000
3716,15,Jits_Phase_8,2,5,80,127,1619531048
3716,15,Jits_Phase_8,3,5,63,98,1619570988
3716,15,Jits_Phase_8,0,5,56,103,1620230716
3716,15,Jits_Phase_8,1,5,63,98,1620250952
3716,15,Jits_Phase_8,2,1,48,41,1620285760
3716,15,Jits_Phase_8,3,5,80,127,1620320920
3716,15,Jits_Phase_8,0,1,48,41,1620960176
3716,15,Jits_Phase_8,1,5,63,98,1621050780
3716,15,Jits_Phase_8,2,5,80,127,1621111008
3716,15,Jits_Phase_8,3,5,56,103,1621130716
3716,15,Jits_Phase_8,0,1,48,37,1621778672
3716,15,Jits_Phase_8,1,5,80,127,1621841248
3716,15,Jits_Phase_8,2,5,56,103,1621870924
3716,15,Jits_Phase_8,3,5,63,98,1621900880
3716,15,Jits_Phase_8,0,1,48,32,1622581936
3716,15,Jits_Phase_8,1,5,56,103,1622641000
3716,15,Jits_Phase_8,2,5,63,98,1622701748
3716,15,Jits_Phase_8,3,5,80,127,1622760672
3716,15,Jits_Phase_8,0,1,48,32,1623428752
3716,15,Jits_Phase_8,1,5,80,127,1623461288
3716,15,Jits_Phase_8,2,5,56,103,1623480848
3716,15,Jits_Phase_8,3,5,63,98,1623551212
3716,15,Jits_Phase_8,0,5,80,127,1624260828
3716,15,Jits_Phase_8,1,1,48,40,1624268136
3716,15,Jits_Phase_8,2,5,63,98,1624280560
3716,15,Jits_Phase_8,3,5,56,103,1624311056
3716,15,Jits_Phase_8,0,5,80,127,1625050732
3716,15,Jits_Phase_8,1,5,63,98,1625070968
3716,15,Jits_Phase_8,2,1,48,41,1625073636
3716,15,Jits_Phase_8,3,5,56,103,1625131576
3716,15,Jits_Phase_8,0,5,80,127,1625851328
3716,15,Jits_Phase_8,1,1,48,38,1625857068
3716,15,Jits_Phase_8,2,5,56,103,1625951856
3716,15,Jits_Phase_8,3,5,63,98,1625981308
3716,15,Jits_Phase_8,0,5,63,98,1626640692
3716,15,Jits_Phase_8,1,1,48,35,1626665980
3716,15,Jits_Phase_8,2,5,80,127,1626690888
3716,15,Jits_Phase_8,3,5,56,103,1626711648
3716,15,Jits_Phase_8,0,1,48,38,1627453676
3716,15,Jits_Phase_8,1,5,80,127,1627480524
3716,15,Jits_Phase_8,2,5,56,103,1627511244
3716,15,Jits_Phase_8,3,5,63,98,1627514236
3716,15,Jits_Phase_8,0,1,48,52,1628285560
3716,15,Jits_Phase_8,1,5,63,98,1628331592
3716,15,Jits_Phase_8,2,5,56,103,1628371484
3716,15,Jits_Phase_8,3,5,80,127,1628390804
3716,15,Jits_Phase_8,0,5,80,127,1629091056
3716,15,Jits_Phase_8,1,1,48,44,1629113204
3716,15,Jits_Phase_8,2,5,63,98,1629171092
3716,15,Jits_Phase_8,3,5,56,103,1629211092
3716,15,Jits_Phase_8,0,5,63,98,1629911608
3716,15,Jits_Phase_8,1,1,48,46,1629928676
3716,15,Jits_Phase_8,2,5,80,127,1629991400
3716,15,Jits_Phase_8,3,5,56,103,1630010588
3716,15,Jits_Phase_8,0,1,48,46,1630709472
3716,15,Jits_Phase_8,1,5,56,103,1630751300
3716,15,Jits_Phase_8,2,5,63,98,1630761496
3716,15,Jits_Phase_8,3,5,80,127,1630802396
3716,15,Jits_Phase_8,0,5,56,103,1631470824
3716,15,Jits_Phase_8,1,5,80,127,1631474120
3716,15,Jits_Phase_8,2,1,48,46,1631552616
3716,15,Jits_Phase_8,3,5,63,98,1631611372
3716,15,Jits_Phase_8,0,1,48,44,1632244108
3716,15,Jits_Phase_8,1,5,56,103,1632260472
3716,15,Jits_Phase_8,2,5,63,98,1632350668
3716,15,Jits_Phase_8,3,5,80,127,1632421468
3716,15,Jits_Phase_8,0,1,48,47,1633049492
3716,15,Jits_Phase_8,1,5,63,98,1633141220
3716,15,Jits_Phase_8,2,5,80,127,1633144656
3716,15,Jits_Phase_8,3,5,56,103,1633200472
3716,15,Jits_Phase_8,0,1,48,42,1633916368
3716,15,Jits_Phase_8,1,5,80,127,1633980908
3716,15,Jits_Phase_8,2,5,56,103,1634001444
3716,15,Jits_Phase_8,3,5,63,98,1634010452
3716,15,Jits_Phase_8,0,5,56,103,1634690476
3716,15,Jits_Phase_8,1,5,63,98,1634700596
3716,15,Jits_Phase_8,2,1,48,32,1634764396
3716,15,Jits_Phase_8,3,5,80,127,1634771340
3716,15,Jits_Phase_8,0,1,48,43,1635470284
3716,15,Jits_Phase_8,1,5,80,127,1635491284
3716,15,Jits_Phase_8,2,5,56,103,1635541364
3716,15,Jits_Phase_8,3,5,63,98,1635590504
3716,15,Jits_Phase_8,0,1,48,41,1636261872
3716,15,Jits_Phase_8,1,5,56,103,1636370700
3716,15,Jits_Phase_8,2,5,63,98,1636381192
3716,15,Jits_Phase_8,3,5,80,127,1636420908
3716,15,Jits_Phase_8,0,1,48,47,1637103024
3716,15,Jits_Phase_8,1,5,56,103,1637111360
3716,15,Jits_Phase_8,2,5,63,98,1637151304
3716,15,Jits_Phase_8,3,5,80,127,1637201340
3716,15,Jits_Phase_8,0,5,80,127,1637871124
3716,15,Jits_Phase_8,1,1,48,48,1637904884
3716,15,Jits_Phase_8,2,5,56,103,1637921168
3716,15,Jits_Phase_8,3,5,63,98,1637940732
3716,15,Jits_Phase_8,0,1,48,47,1638656840
3716,15,Jits_Phase_8,1,5,80,127,1638681148
3716,15,Jits_Phase_8,2,5,63,98,1638741468
3716,15,Jits_Phase_8,3,5,56,103,1638821100
3716,15,Jits_Phase_8,0,5,80,127,1639461208
3716,15,Jits_Phase_8,1,5,56,103,1639501368
3716,15,Jits_Phase_8,2,5,63,98,1639520560
3716,15,Jits_Phase_8,3,1,48,46,1639540612
3716,15,Jits_Phase_8,0,1,48,50,1640275544
3716,15,Jits_Phase_8,1,5,56,103,1640311160
3716,15,Jits_Phase_8,2,5,80,127,1640321360
3716,15,Jits_Phase_8,3,5,63,98,1640361224
3716,15,Jits_Phase_8,0,1,48,46,1641073732
3716,15,Jits_Phase_8,1,5,56,103,1641180532
3716,15,Jits_Phase_8,2,5,63,98,1641220544
3716,15,Jits_Phase_8,3,5,80,127,1641224132
3716,15,Jits_Phase_8,0,5,63,98,1641851268
3716,15,Jits_Phase_8,1,5,80,127,1641891132
3716,15,Jits_Phase_8,2,5,56,103,1641960912
3716,15,Jits_Phase_8,3,1,48,46,1641984260
3716,15,Jits_Phase_8,0,5,63,98,1642621280
3716,15,Jits_Phase_8,1,1,48,43,1642646648
3716,15,Jits_Phase_8,2,5,56,103,1642701292
3716,15,Jits_Phase_8,3,5,80,127,1642760496
3716,15,Jits_Phase_8,0,1,48,49,1643381520
3716,15,Jits_Phase_8,1,5,80,127,1643431220
3716,15,Jits_Phase_8,2,5,63,98,1643480532
3716,15,Jits_Phase_8,3,5,56,103,1643511032
3716,15,Jits_Phase_8,0,5,56,103,1644220788
3716,15,Jits_Phase_8,1,1,48,23,1644254724
3716,15,Jits_Phase_8,2,5,63,98,1644270936
3716,15,Jits_Phase_8,3,5,80,127,1644281056
3716,15,Jits_Phase_8,0,1,48,54,1644983808
3716,15,Jits_Phase_8,1,5,56,103,1645031060
3716,15,Jits_Phase_8,2,5,63,98,1645141332
3716,15,Jits_Phase_8,3,5,80,127,1645160896
3716,15,Jits_Phase_8,0,1,48,46,1645804120
3716,15,Jits_Phase_8,1,5,63,98,1645830524
3716,15,Jits_Phase_8,2,5,80,127,1645880800
3716,15,Jits_Phase_8,3,5,56,103,1645970992
3716,15,Jits_Phase_8,0,5,63,98,1646621144
3716,15,Jits_Phase_8,1,1,48,46,1646632136
3716,15,Jits_Phase_8,2,5,80,127,1646650888
3716,15,Jits_Phase_8,3,5,56,103,1646740780
3716,15,Jits_Phase_8,0,1,48,46,1647391944
3716,15,Jits_Phase_8,1,5,63,98,1647420812
3716,15,Jits_Phase_8,2,5,56,103,1647431008
3716,15,Jits_Phase_8,3,5,80,127,1647531312
3716,15,Jits_Phase_8,0,1,48,40,1648199940
3716,15,Jits_Phase_8,1,5,63,98,1648320872
3716,15,Jits_Phase_8,2,5,80,127,1648350724
3716,15,Jits_Phase_8,3,5,56,103,1648381220
3716,15,Jits_Phase_8,0,5,80,127,1649140988
3716,15,Jits_Phase_8,1,1,48,40,1649145008
3716,15,Jits_Phase_8,2,5,63,98,1649151548
3716,15,Jits_Phase_8,3,5,56,103,1649181076
3716,15,Jits_Phase_8,0,5,80,127,1649840496
3716,15,Jits_Phase_8,1,5,63,98,1649860956
3716,15,Jits_Phase_8,2,5,56,103,1649911180
3716,15,Jits_Phase_8,3,1,48,49,1649954672
3716,15,Jits_Phase_8,0,1,48,50,1650585684
3716,15,Jits_Phase_8,1,5,63,98,1650671072
3716,15,Jits_Phase_8,2,5,80,127,1650731376
3716,15,Jits_Phase_8,3,5,56,103,1650750860
3716,15,Jits_Phase_8,0,1,48,46,1651373160
3716,15,Jits_Phase_8,1,5,63,98,1651430748
3716,15,Jits_Phase_8,2,5,56,103,1651480860
3716,15,Jits_Phase_8,3,5,80,127,1651491056
3716,15,Jits_Phase_8,0,1,48,48,1652154700
3716,15,Jits_Phase_8,1,5,56,103,1652261128
3716,15,Jits_Phase_8,2,5,80,127,1652270652
3716,15,Jits_Phase_8,3,5,63,98,1652370748
3716,15,Jits_Phase_8,0,5,80,127,1653020976
3716,15,Jits_Phase_8,1,5,63,98,1653031248
3716,15,Jits_Phase_8,2,1,48,28,1653085904
3716,15,Jits_Phase_8,3,5,56,103,1653181588
3716,15,Jits_Phase_8,0,1,48,45,1653764296
3716,15,Jits_Phase_8,1,5,63,98,1653830928
3716,15,Jits_Phase_8,2,5,80,127,1653870852
3716,15,Jits_Phase_8,3,5,56,103,1653950720
3716,15,Jits_Phase_8,0,5,56,103,1654580644
3716,15,Jits_Phase_8,1,1,48,41,1654584512
3716,15,Jits_Phase_8,2,5,80,127,1654680956
3716,15,Jits_Phase_8,3,5,63,98,1654701404
3716,15,Jits_Phase_8,0,1,48,42,1655331240
3716,15,Jits_Phase_8,1,5,80,127,1655400720
3716,15,Jits_Phase_8,2,5,56,103,1655410988
3716,15,Jits_Phase_8,3,5,63,98,1655501400
3716,15,Jits_Phase_8,0,1,48,36,1656184488
3716,15,Jits_Phase_8,1,5,56,103,1656200552
3716,15,Jits_Phase_8,2,5,63,98,1656220936
3716,15,Jits_Phase_8,3,5,80,127,1656300816
3716,15,Jits_Phase_8,0,5,63,98,1656961360
3716,15,Jits_Phase_8,1,1,48,41,1657018728
3716,15,Jits_Phase_8,2,5,56,103,1657050536
3716,15,Jits_Phase_8,3,5,80,127,1657053600
3716,15,Jits_Phase_8,0,1,48,45,1657746752
3716,15,Jits_Phase_8,1,5,56,103,1657790764
3716,15,Jits_Phase_8,2,5,80,127,1657851388
3716,15,Jits_Phase_8,3,5,63,98,1657860540
3716,15,Jits_Phase_8,0,1,48,46,1658511384
3716,15,Jits_Phase_8,1,5,80,127,1658640656
3716,15,Jits_Phase_8,2,5,56,103,1658650848
3716,15,Jits_Phase_8,3,5,63,98,1658654140
3716,15,Jits_Phase_8,0,1,48,41,1659394320
3716,15,Jits_Phase_8,1,5,56,103,1659400564
3716,15,Jits_Phase_8,2,5,80,127,1659410912
3716,15,Jits_Phase_8,3,5,63,98,1659431220
3716,15,Jits_Phase_8,0,5,63,98,1660170508
3716,15,Jits_Phase_8,1,1,48,39,1660179480
3716,15,Jits_Phase_8,2,5,80,127,1660231040
3716,15,Jits_Phase_8,3,5,56,103,1660281524
3716,15,Jits_Phase_8,0,1,48,39,1660960344
3716,15,Jits_Phase_8,1,5,63,98,1661051320
3716,15,Jits_Phase_8,2,5,56,103,1661060528
3716,15,Jits_Phase_8,3,5,80,127,1661110504
3716,15,Jits_Phase_8,0,5,63,98,1661750768
3716,15,Jits_Phase_8,1,5,80,127,1661771228
3716,15,Jits_Phase_8,2,1,48,35,1661777944
3716,15,Jits_Phase_8,3,5,56,103,1661781344
3716,15,Jits_Phase_8,0,1,48,37,1662448732
3716,15,Jits_Phase_8,1,5,63,98,1662551392
3716,15,Jits_Phase_8,2,5,80,127,1662554904
3716,15,Jits_Phase_8,3,5,56,103,1662591252
3716,15,Jits_Phase_8,0,1,48,44,1663244128
3716,15,Jits_Phase_8,1,5,63,98,1663420664
3716,15,Jits_Phase_8,2,5,80,127,1663450436
3716,15,Jits_Phase_8,3,5,56,103,1663460708
3716,15,Jits_Phase_8,0,5,56,103,1664171296
3716,15,Jits_Phase_8,1,5,80,127,1664201192
3716,15,Jits_Phase_8,2,5,63,98,1664230892
3716,15,Jits_Phase_8,3,1,48,43,1664237604
3716,15,Jits_Phase_8,0,1,48,39,1664990316
3716,15,Jits_Phase_8,1,5,63,98,1665070428
3716,15,Jits_Phase_8,2,5,56,103,1665111396
3716,15,Jits_Phase_8,3,5,80,127,1665114540
3716,15,Jits_Phase_8,0,5,80,127,1665770920
3716,15,Jits_Phase_8,1,5,56,103,1665850640
3716,15,Jits_Phase_8,2,1,48,49,1665861108
3716,15,Jits_Phase_8,3,5,63,98,1665901208
3716,15,Jits_Phase_8,0,5,80,127,1666551140
3716,15,Jits_Phase_8,1,5,56,103,1666570552
3716,15,Jits_Phase_8,2,1,48,45,1666654428
3716,15,Jits_Phase_8,3,5,63,98,1666660600
3716,15,Jits_Phase_8,0,1,48,41,1667361144
3716,15,Jits_Phase_8,1,5,80,127,1667390836
3716,15,Jits_Phase_8,2,5,63,98,1667430700
3716,15,Jits_Phase_8,3,5,56,103,1667470920
3716,15,Jits_Phase_8,0,1,48,35,1668192884
3716,15,Jits_Phase_8,1,5,63,98,1668201228
3716,15,Jits_Phase_8,2,5,80,127,1668261172
3716,15,Jits_Phase_8,3,5,56,103,1668290908
3716,15,Jits_Phase_8,0,5,56,103,1669040544
3716,15,Jits_Phase_8,1,1,48,28,1669054300
3716,15,Jits_Phase_8,2,5,80,127,1669071188
3716,15,Jits_Phase_8,3,5,63,98,1669161304
3716,15,Jits_Phase_8,0,1,48,38,1669844328
3716,15,Jits_Phase_8,1,5,56,103,1669850428
3716,15,Jits_Phase_8,2,5,80,127,1669960924
3716,15,Jits_Phase_8,3,5,63,98,1669991044
3716,15,Jits_Phase_8,0,1,48,38,1670665960
3716,15,Jits_Phase_8,1,5,56,103,1670701360
3716,15,Jits_Phase_8,2,5,63,98,1670760836
3716,15,Jits_Phase_8,3,5,80,127,1670790588
3716,15,Jits_Phase_8,0,5,56,103,1671470412
3716,15,Jits_Phase_8,1,1,48,39,1671515108
3716,15,Jits_Phase_8,2,5,63,98,1671541060
3716,15,Jits_Phase_8,3,5,80,127,1671560844
3716,15,Jits_Phase_8,0,5,80,127,1672240368
3716,15,Jits_Phase_8,1,5,63,98,1672260976
3716,15,Jits_Phase_8,2,1,48,48,1672272412
3716,15,Jits_Phase_8,3,5,56,103,1672311096
3716,15,Jits_Phase_8,0,5,63,98,1673060736
3716,15,Jits_Phase_8,1,5,80,127,1673070932
3716,15,Jits_Phase_8,2,1,48,44,1673075616
3716,15,Jits_Phase_8,3,5,56,103,1673121124
3716,15,Jits_Phase_8,0,5,63,98,1673860636
3716,15,Jits_Phase_8,1,1,48,45,1673873576
3716,15,Jits_Phase_8,2,5,80,127,1673931136
3716,15,Jits_Phase_8,3,5,56,103,1673950724
3716,15,Jits_Phase_8,0,5,63,98,1674691036
3716,15,Jits_Phase_8,1,5,80,127,1674694252
3716,15,Jits_Phase_8,2,1,48,29,1674711120
3716,15,Jits_Phase_8,3,5,56,103,1674760736
3716,15,Jits_Phase_8,0,5,80,127,1675440668
3716,15,Jits_Phase_8,1,5,56,103,1675460904
3716,15,Jits_Phase_8,2,5,63,98,1675471568
3716,15,Jits_Phase_8,3,1,48,49,1675478672
3716,15,Jits_Phase_8,0,1,48,52,1676230364
3716,15,Jits_Phase_8,1,5,56,103,1676260680
3716,15,Jits_Phase_8,2,5,63,98,1676350948
3716,15,Jits_Phase_8,3,5,80,127,1676354164
3716,15,Jits_Phase_8,0,1,48,54,1677027808
3716,15,Jits_Phase_8,1,5,80,127,1677030912
3716,15,Jits_Phase_8,2,5,56,103,1677040960
3716,15,Jits_Phase_8,3,5,63,98,1677060668
3716,15,Jits_Phase_8,0,1,48,49,1677818556
3716,15,Jits_Phase_8,1,5,63,98,1677830656
3716,15,Jits_Phase_8,2,5,80,127,1677890972
3716,15,Jits_Phase_8,3,5,56,103,1677901172
3716,15,Jits_Phase_8,0,1,48,48,1678601396
3716,15,Jits_Phase_8,1,5,63,98,1678700972
3716,15,Jits_Phase_8,2,5,80,127,1678730572
3716,15,Jits_Phase_8,3,5,56,103,1678770588
3716,15,Jits_Phase_8,0,5,56,103,1679490640
3716,15,Jits_Phase_8,1,1,48,54,1679499172
3716,15,Jits_Phase_8,2,5,80,127,1679500976
3716,15,Jits_Phase_8,3,5,63,98,1679540692
3716,15,Jits_Phase_8,0,5,80,127,1680251224
3716,15,Jits_Phase_8,1,1,48,54,1680274344
3716,15,Jits_Phase_8,2,5,56,103,1680331088
3716,15,Jits_Phase_8,3,5,63,98,1680341308
3716,15,Jits_Phase_8,0,5,80,127,1681101340
3716,15,Jits_Phase_8,1,1,48,61,1681129440
3716,15,Jits_Phase_8,2,5,56,103,1681181084
3716,15,Jits_Phase_8,3,5,63,98,1681191728
3716,15,Jits_Phase_8,0,5,80,127,1681940856
3716,15,Jits_Phase_8,1,1,48,53,1681947116
3716,15,Jits_Phase_8,2,5,56,103,1681991052
3716,15,Jits_Phase_8,3,5,63,98,1682041404
3716,15,Jits_Phase_8,0,1,48,52,1682747692
3716,15,Jits_Phase_8,1,5,56,103,1682880924
3716,15,Jits_Phase_8,2,5,63,98,1682883840
3716,15,Jits_Phase_8,3,5,80,127,1682931072
3716,15,Jits_Phase_8,0,1,48,45,1683637576
3716,15,Jits_Phase_8,1,5,56,103,1683701316
3716,15,Jits_Phase_8,2,5,63,98,1683730772
3716,15,Jits_Phase_8,3,5,80,127,1683741028
3716,15,Jits_Phase_8,0,5,63,98,1684410712
3716,15,Jits_Phase_8,1,1,48,46,1684480488
3716,15,Jits_Phase_8,2,5,56,103,1684482356
3716,15,Jits_Phase_8,3,5,80,127,1684530612
3716,15,Jits_Phase_8,0,1,48,47,1685192304
3716,15,Jits_Phase_8,1,5,63,98,1685241424
3716,15,Jits_Phase_8,2,5,56,103,1685250352
3716,15,Jits_Phase_8,3,5,80,127,1685253564
3716,15,Jits_Phase_8,0,5,80,127,1685990680
3716,15,Jits_Phase_8,1,1,48,49,1685999652
3716,15,Jits_Phase_8,2,5,56,103,1686051288
3716,15,Jits_Phase_8,3,5,63,98,1686141256
3716,15,Jits_Phase_8,0,5,80,127,1686790444
3716,15,Jits_Phase_8,1,1,48,50,1686860544
3716,15,Jits_Phase_8,2,5,56,103,1686890836
3716,15,Jits_Phase_8,3,5,63,98,1686930772
3716,15,Jits_Phase_8,0,1,48,45,1687621052
3716,15,Jits_Phase_8,1,5,56,103,1687640484
3716,15,Jits_Phase_8,2,5,63,98,1687660792
3716,15,Jits_Phase_8,3,5,80,127,1687700732
3716,15,Jits_Phase_8,0,1,48,43,1688381476
3716,15,Jits_Phase_8,1,5,63,98,1688410420
3716,15,Jits_Phase_8,2,5,56,103,1688431400
3716,15,Jits_Phase_8,3,5,80,127,1688531356
3716,15,Jits_Phase_8,0,1,48,51,1689156344
3716,15,Jits_Phase_8,1,5,63,98,1689200956
3716,15,Jits_Phase_8,2,5,80,127,1689310580
3716,15,Jits_Phase_8,3,5,56,103,1689341448
3716,15,Jits_Phase_8,0,5,56,103,1690021400
3716,15,Jits_Phase_8,1,1,48,37,1690022368
3716,15,Jits_Phase_8,2,5,63,98,1690051292
3716,15,Jits_Phase_8,3,5,80,127,1690101220
3716,15,Jits_Phase_8,0,5,63,98,1690791352
3716,15,Jits_Phase_8,1,1,48,30,1690800020
3716,15,Jits_Phase_8,2,5,56,103,1690820948
3716,15,Jits_Phase_8,3,5,80,127,1690871100
3716,15,Jits_Phase_8,0,1,48,41,1691544540
3716,15,Jits_Phase_8,1,5,56,103,1691620644
3716,15,Jits_Phase_8,2,5,63,98,1691641104
3716,15,Jits_Phase_8,3,5,80,127,1691721028
3716,15,Jits_Phase_8,0,5,63,98,1692390884
3716,15,Jits_Phase_8,1,1,48,45,1692420680
3716,15,Jits_Phase_8,2,5,56,103,1692451268
3716,15,Jits_Phase_8,3,5,80,127,1692481168
3716,15,Jits_Phase_8,0,1,48,45,1693213748
3716,15,Jits_Phase_8,1,5,56,103,1693230332
3716,15,Jits_Phase_8,2,5,80,127,1693291020
3716,15,Jits_Phase_8,3,5,63,98,1693331020
3716,15,Jits_Phase_8,0,5,63,98,1694010840
3716,15,Jits_Phase_8,1,1,48,36,1694039592
3716,15,Jits_Phase_8,2,5,56,103,1694071076
3716,15,Jits_Phase_8,3,5,80,127,1694141036
3716,15,Jits_Phase_8,0,1,48,45,1694826220
3716,15,Jits_Phase_8,1,5,56,103,1694891584
3716,15,Jits_Phase_8,2,5,63,98,1694900728
3716,15,Jits_Phase_8,3,5,80,127,1694904096
3716,15,Jits_Phase_8,0,5,63,98,1695630880
3716,15,Jits_Phase_8,1,1,48,43,1695656844
3716,15,Jits_Phase_8,2,5,56,103,1695691112
3716,15,Jits_Phase_8,3,5,80,127,1695694280
3716,15,Jits_Phase_8,0,5,63,98,1696410852
3716,15,Jits_Phase_8,1,5,80,127,1696440824
3716,15,Jits_Phase_8,2,5,56,103,1696461132
3716,15,Jits_Phase_8,3,1,48,42,1696475860
3716,15,Jits_Phase_8,0,5,56,103,1697141044
3716,15,Jits_Phase_8,1,1,48,40,1697189580
3716,15,Jits_Phase_8,2,5,63,98,1697191168
3716,15,Jits_Phase_8,3,5,80,127,1697271208
3716,15,Jits_Phase_8,0,5,80,127,1697840512
3716,15,Jits_Phase_8,1,5,63,98,1697880304
3716,15,Jits_Phase_8,2,5,56,103,1697900984
3716,15,Jits_Phase_8,3,1,48,48,1697927844
3716,15,Jits_Phase_8,0,1,48,43,1698529516
3716,15,Jits_Phase_8,1,5,56,103,1698710904
3716,15,Jits_Phase_8,2,5,80,127,1698721248
3716,15,Jits_Phase_8,3,5,63,98,1698740736
3716,15,Jits_Phase_8,0,1,48,35,1699446964
3716,15,Jits_Phase_8,1,5,56,103,1699491124
3716,15,Jits_Phase_8,2,5,63,98,1699541356
3716,15,Jits_Phase_8,3,5,80,127,1699570940
3716,15,Jits_Phase_8,0,5,56,103,1700240620
3716,15,Jits_Phase_8,1,5,63,98,1700250892
3716,15,Jits_Phase_8,2,1,48,38,1700260756
3716,15,Jits_Phase_8,3,5,80,127,1700301236
3716,15,Jits_Phase_8,0,1,48,46,1701006532
3716,15,Jits_Phase_8,1,5,56,103,1701031212
3716,15,Jits_Phase_8,2,5,80,127,1701034204
3716,15,Jits_Phase_8,3,5,63,98,1701191024
3716,15,Jits_Phase_8,0,5,63,98,1701850620
3716,15,Jits_Phase_8,1,1,48,41,1701882888
3716,15,Jits_Phase_8,2,5,56,103,1701921044
3716,15,Jits_Phase_8,3,5,80,127,1701961056
3716,15,Jits_Phase_8,0,1,48,42,1702608452
3716,15,Jits_Phase_8,1,5,63,98,1702691128
3716,15,Jits_Phase_8,2,5,56,103,1702781544
3716,15,Jits_Phase_8,3,5,80,127,1702784316
3716,15,Jits_Phase_8,0,1,48,39,1703448900
3716,15,Jits_Phase_8,1,5,56,103,1703470572
3716,15,Jits_Phase_8,2,5,63,98,1703560840
3716,15,Jits_Phase_8,3,5,80,127,1703570740
3716,15,Jits_Phase_8,0,1,48,41,1704219140
3716,15,Jits_Phase_8,1,5,56,103,1704240588
3716,15,Jits_Phase_8,2,5,63,98,1704290644
3716,15,Jits_Phase_8,3,5,80,127,1704321724
3716,15,Jits_Phase_8,0,1,48,40,1705006220
3716,15,Jits_Phase_8,1,5,63,98,1705121092
3716,15,Jits_Phase_8,2,5,80,127,1705131512
3716,15,Jits_Phase_8,3,5,56,103,1705190728
3716,15,Jits_Phase_8,0,5,63,98,1705841008
3716,15,Jits_Phase_8,1,1,48,40,1705893952
3716,15,Jits_Phase_8,2,5,80,127,1705901616
3716,15,Jits_Phase_8,3,5,56,103,1705941504
3716,15,Jits_Phase_8,0,1,48,41,1706618392
3716,15,Jits_Phase_8,1,5,56,103,1706741308
3716,15,Jits_Phase_8,2,5,80,127,1706760500
3716,15,Jits_Phase_8,3,5,63,98,1706781256
3716,15,Jits_Phase_8,0,5,63,98,1707460908
3716,15,Jits_Phase_8,1,5,56,103,1707480344
3716,15,Jits_Phase_8,2,1,48,44,1707505712
3716,15,Jits_Phase_8,3,5,80,127,1707521472
3716,15,Jits_Phase_8,0,1,48,42,1708226156
3716,15,Jits_Phase_8,1,5,63,98,1708270944
3716,15,Jits_Phase_8,2,5,80,127,1708300620
3716,15,Jits_Phase_8,3,5,56,103,1708322036
3716,15,Jits_Phase_8,0,1,48,40,1709039216
3716,15,Jits_Phase_8,1,5,80,127,1709040952
3716,15,Jits_Phase_8,2,5,56,103,1709091304
3716,15,Jits_Phase_8,3,5,63,98,1709150708
3716,15,Jits_Phase_8,0,1,48,32,1709815572
3716,15,Jits_Phase_8,1,5,63,98,1709830516
3716,15,Jits_Phase_8,2,5,56,103,1709951576
3716,15,Jits_Phase_8,3,5,80,127,1709981324
3716,15,Jits_Phase_8,0,1,48,37,1710632644
3716,15,Jits_Phase_8,1,5,80,127,1710671328
3716,15,Jits_Phase_8,2,5,63,98,1710690744
3716,15,Jits_Phase_8,3,5,56,103,1710761308
3716,15,Jits_Phase_8,0,1,48,40,1711442296
3716,15,Jits_Phase_8,1,5,63,98,1711490348
3716,15,Jits_Phase_8,2,5,56,103,1711500616
3716,15,Jits_Phase_8,3,5,80,127,1711580572
3716,15,Jits_Phase_8,0,1,48,27,1712226688
3716,15,Jits_Phase_8,1,5,56,103,1712350580
3716,15,Jits_Phase_8,2,5,80,127,1712381228
3716,15,Jits_Phase_8,3,5,63,98,1712390376
3716,15,Jits_Phase_8,0,9999,9999,9999,1577498688
3716,15,Jits_Phase_8,1,9999,9999,9999,1578298456
3716,15,Jits_Phase_8,2,9999,9999,9999,1579098216
3716,15,Jits_Phase_8,3,9999,9999,9999,1579898948
3716,15,Jits_Phase_8,4,9999,9999,9999,1580698700
3716,15,Jits_Phase_8,5,9999,9999,9999,1581498460
3716,15,Jits_Phase_8,6,9999,9999,9999,1582298180
3716,15,Jits_Phase_8,7,9999,9999,9999,1583099000
3716,15,Jits_Phase_8,8,9999,9999,9999,1583898692
3716,15,Jits_Phase_8,9,9999,9999,9999,1584698440
3716,15,Jits_Phase_8,10,9999,9999,9999,1585498216
3716,15,Jits_Phase_8,11,9999,9999,9999,1586298952
3716,15,Jits_Phase_8,12,9999,9999,9999,1587098716
3716,15,Jits_Phase_8,13,9999,9999,9999,1587898468
3716,15,Jits_Phase_8,14,9999,9999,9999,1588698164
3716,15,Jits_Phase_8,15,9999,9999,9999,1589498972
3716,15,Jits_Phase_8,16,9999,9999,9999,1590298716
3716,15,Jits_Phase_8,17,9999,9999,9999,1591098480
3716,15,Jits_Phase_8,18,9999,9999,9999,1591898168
3716,15,Jits_Phase_8,19,9999,9999,9999,1592698972
3716,15,Jits_Phase_8,20,9999,9999,9999,1593498732
3716,15,Jits_Phase_8,21,9999,9999,9999,1594298488
3716,15,Jits_Phase_8,22,9999,9999,9999,1595098200
3716,15,Jits_Phase_8,23,9999,9999,9999,1595899004
3716,15,Jits_Phase_8,24,9999,9999,9999,1596698684
3716,15,Jits_Phase_8,25,9999,9999,9999,1597498440
3716,15,Jits_Phase_8,26,9999,9999,9999,1598298200
3716,15,Jits_Phase_8,27,9999,9999,9999,1599099004
3716,15,Jits_Phase_8,28,9999,9999,9999,1599898700
3716,15,Jits_Phase_8,29,9999,9999,9999,1600698464
3716,15,Jits_Phase_8,30,9999,9999,9999,1601478740
3716,15,Jits_Phase_8,31,9999,9999,9999,1602278520
3716,15,Jits_Phase_8,32,9999,9999,9999,1603078200
3716,15,Jits_Phase_8,33,9999,9999,9999,1603878996
3716,15,Jits_Phase_8,34,9999,9999,9999,1604678764
3716,15,Jits_Phase_8,35,9999,9999,9999,1605478456
3716,15,Jits_Phase_8,36,9999,9999,9999,1606278220
3716,15,Jits_Phase_8,37,9999,9999,9999,1607079024
3716,15,Jits_Phase_8,38,9999,9999,9999,1607878716
3716,15,Jits_Phase_8,39,9999,9999,9999,1608678516
3716,15,Jits_Phase_8,40,9999,9999,9999,1609478200
3716,15,Jits_Phase_8,41,9999,9999,9999,1610279020
3716,15,Jits_Phase_8,42,9999,9999,9999,1611078772
3716,15,Jits_Phase_8,43,9999,9999,9999,1611878460
3716,15,Jits_Phase_8,44,9999,9999,9999,1612678200
3716,15,Jits_Phase_8,45,9999,9999,9999,1613479008
3716,15,Jits_Phase_8,46,9999,9999,9999,1614278764
3716,15,Jits_Phase_8,47,9999,9999,9999,1615078460
3716,15,Jits_Phase_8,48,9999,9999,9999,1615898724
3716,15,Jits_Phase_8,49,9999,9999,9999,1616698480
3716,15,Jits_Phase_8,50,9999,9999,9999,1617498236
3716,15,Jits_Phase_8,51,9999,9999,9999,1618298956
3716,15,Jits_Phase_8,52,9999,9999,9999,1619098696
3716,15,Jits_Phase_8,53,9999,9999,9999,1619898476
3716,15,Jits_Phase_8,54,9999,9999,9999,1620698184
3716,15,Jits_Phase_8,55,9999,9999,9999,1621499000
3716,15,Jits_Phase_8,56,9999,9999,9999,1622298680
3716,15,Jits_Phase_8,57,9999,9999,9999,1623098440
3716,15,Jits_Phase_8,58,9999,9999,9999,1623898196
3716,15,Jits_Phase_8,59,9999,9999,9999,1624699000
3716,15,Jits_Phase_8,60,9999,9999,9999,1625498696
3716,15,Jits_Phase_8,61,9999,9999,9999,1626298476
3716,15,Jits_Phase_8,62,9999,9999,9999,1627098196
3716,15,Jits_Phase_8,63,9999,9999,9999,1627898992
3716,15,Jits_Phase_8,64,9999,9999,9999,1628738684
3716,15,Jits_Phase_8,65,9999,9999,9999,1629538372
3716,15,Jits_Phase_8,66,9999,9999,9999,1630338152
3716,15,Jits_Phase_8,67,9999,9999,9999,1631138888
3716,15,Jits_Phase_8,68,9999,9999,9999,1631938640
3716,15,Jits_Phase_8,69,9999,9999,9999,1632738364
3716,15,Jits_Phase_8,70,9999,9999,9999,1633538116
3716,15,Jits_Phase_8,71,9999,9999,9999,1634338932
3716,15,Jits_Phase_8,72,9999,9999,9999,1635138684
3716,15,Jits_Phase_8,73,9999,9999,9999,1635938384
3716,15,Jits_Phase_8,74,9999,9999,9999,1636738148
3716,15,Jits_Phase_8,75,9999,9999,9999,1637538884
3716,15,Jits_Phase_8,76,9999,9999,9999,1638338636
3716,15,Jits_Phase_8,77,9999,9999,9999,1639138364
3716,15,Jits_Phase_8,78,9999,9999,9999,1639938112
3716,15,Jits_Phase_8,79,9999,9999,9999,1640738928
3716,15,Jits_Phase_8,80,9999,9999,9999,1641538688
3716,15,Jits_Phase_8,81,9999,9999,9999,1642298436
3716,15,Jits_Phase_8,82,9999,9999,9999,1643098192
3716,15,Jits_Phase_8,83,9999,9999,9999,1643898988
3716,15,Jits_Phase_8,84,9999,9999,9999,1644698740
3716,15,Jits_Phase_8,85,9999,9999,9999,1645498440
3716,15,Jits_Phase_8,86,9999,9999,9999,1646298224
3716,15,Jits_Phase_8,87,9999,9999,9999,1647098948
3716,15,Jits_Phase_8,88,9999,9999,9999,1647898696
3716,15,Jits_Phase_8,89,9999,9999,9999,1648698460
3716,15,Jits_Phase_8,90,9999,9999,9999,1649498228
3716,15,Jits_Phase_8,91,9999,9999,9999,1650298968
3716,15,Jits_Phase_8,92,9999,9999,9999,1651098740
3716,15,Jits_Phase_8,93,9999,9999,9999,1651898492
3716,15,Jits_Phase_8,94,9999,9999,9999,1652698204
3716,15,Jits_Phase_8,95,9999,9999,9999,1653499004
3716,15,Jits_Phase_8,96,9999,9999,9999,1654298700
3716,15,Jits_Phase_8,97,9999,9999,9999,1655018596
3716,15,Jits_Phase_8,98,9999,9999,9999,1655818300
3716,15,Jits_Phase_8,99,9999,9999,9999,1656619104
3716,15,Jits_Phase_8,100,9999,9999,9999,1657429112
3716,15,Jits_Phase_8,101,9999,9999,9999,1658228796
3716,15,Jits_Phase_8,102,9999,9999,9999,1659028548
3716,15,Jits_Phase_8,103,9999,9999,9999,1659828304
3716,15,Jits_Phase_8,104,9999,9999,9999,1660629060
3716,15,Jits_Phase_8,105,9999,9999,9999,1661428824
3716,15,Jits_Phase_8,106,9999,9999,9999,1662228568
3716,15,Jits_Phase_8,107,9999,9999,9999,1663028308
3716,15,Jits_Phase_8,108,9999,9999,9999,1663829116
3716,15,Jits_Phase_8,109,9999,9999,9999,1664628792
3716,15,Jits_Phase_8,110,9999,9999,9999,1665428568
3716,15,Jits_Phase_8,111,9999,9999,9999,1666228328
3716,15,Jits_Phase_8,112,9999,9999,9999,1667029092
3716,15,Jits_Phase_8,113,9999,9999,9999,1667828792
3716,15,Jits_Phase_8,114,9999,9999,9999,1668708408
3716,15,Jits_Phase_8,115,9999,9999,9999,1669508212
3716,15,Jits_Phase_8,116,9999,9999,9999,1670308964
3716,15,Jits_Phase_8,117,9999,9999,9999,1671108728
3716,15,Jits_Phase_8,118,9999,9999,9999,1671908440
3716,15,Jits_Phase_8,119,9999,9999,9999,1672708204
3716,15,Jits_Phase_8,120,9999,9999,9999,1673508944
3716,15,Jits_Phase_8,121,9999,9999,9999,1674308704
3716,15,Jits_Phase_8,122,9999,9999,9999,1675108452
3716,15,Jits_Phase_8,123,9999,9999,9999,1675908208
3716,15,Jits_Phase_8,124,9999,9999,9999,1676708940
3716,15,Jits_Phase_8,125,9999,9999,9999,1677508692
3716,15,Jits_Phase_8,126,9999,9999,9999,1678308472
3716,15,Jits_Phase_8,127,9999,9999,9999,1679108156
3716,15,Jits_Phase_8,128,9999,9999,9999,1679908960
3716,15,Jits_Phase_8,129,9999,9999,9999,1680708728
3716,15,Jits_Phase_8,130,9999,9999,9999,1681508436
3716,15,Jits_Phase_8,131,9999,9999,9999,1682468924
3716,15,Jits_Phase_8,132,9999,9999,9999,1683268692
3716,15,Jits_Phase_8,133,9999,9999,9999,1684068460
3716,15,Jits_Phase_8,134,9999,9999,9999,1684868216
3716,15,Jits_Phase_8,135,9999,9999,9999,1685668932
3716,15,Jits_Phase_8,136,9999,9999,9999,1686468684
3716,15,Jits_Phase_8,137,9999,9999,9999,1687268476
3716,15,Jits_Phase_8,138,9999,9999,9999,1688068172
3716,15,Jits_Phase_8,139,9999,9999,9999,1688868976
3716,15,Jits_Phase_8,140,9999,9999,9999,1689668732
3716,15,Jits_Phase_8,141,9999,9999,9999,1690468416
3716,15,Jits_Phase_8,142,9999,9999,9999,1691268184
3716,15,Jits_Phase_8,143,9999,9999,9999,1692068984
3716,15,Jits_Phase_8,144,9999,9999,9999,1692868664
3716,15,Jits_Phase_8,145,9999,9999,9999,1693668436
3716,15,Jits_Phase_8,146,9999,9999,9999,1694468196
3716,15,Jits_Phase_8,147,9999,9999,9999,1695268924
3716,15,Jits_Phase_8,148,9999,9999,9999,1696068668
3716,15,Jits_Phase_8,149,9999,9999,9999,1696868472
3716,15,Jits_Phase_8,150,9999,9999,9999,1697508432
3716,15,Jits_Phase_8,151,9999,9999,9999,1698308200
3716,15,Jits_Phase_8,152,9999,9999,9999,1699108944
3716,15,Jits_Phase_8,153,9999,9999,9999,1699908708
3716,15,Jits_Phase_8,154,9999,9999,9999,1700708432
3716,15,Jits_Phase_8,155,9999,9999,9999,1701508192
3716,15,Jits_Phase_8,156,9999,9999,9999,1702308924
3716,15,Jits_Phase_8,157,9999,9999,9999,1703108676
3716,15,Jits_Phase_8,158,9999,9999,9999,1703908456
3716,15,Jits_Phase_8,159,9999,9999,9999,1704708212
3716,15,Jits_Phase_8,160,9999,9999,9999,1705508944
3716,15,Jits_Phase_8,161,9999,9999,9999,1706308700
3716,15,Jits_Phase_8,162,9999,9999,9999,1707108464
3716,15,Jits_Phase_8,163,9999,9999,9999,1707908220
3716,15,Jits_Phase_8,164,9999,9999,9999,1708708944
3716,15,Jits_Phase_8,165,9999,9999,9999,1709508704
3716,15,Jits_Phase_8,166,9999,9999,9999,1710308408
3716,15,Jits_Phase_8,167,9999,9999,9999,1711108168
3716,15,Jits_Phase_8,168,9999,9999,9999,1711908976
3716,15,Jits_Phase_8,169,9999,9999,9999,1712708664
3717,17,Jits_Phase_5,0,5,56,103,1725563272
3717,17,Jits_Phase_5,1,5,63,98,1725566368
3717,17,Jits_Phase_5,2,5,80,127,1725569712
3717,17,Jits_Phase_5,0,5,56,103,1726062904
3717,17,Jits_Phase_5,1,5,63,98,1726066076
3717,17,Jits_Phase_5,2,5,80,127,1726069200
3717,17,Jits_Phase_5,3,1,48,42,1726163372
3717,17,Jits_Phase_5,0,1,48,39,1726503820
3717,17,Jits_Phase_5,1,5,56,103,1726562808
3717,17,Jits_Phase_5,2,5,80,127,1726572928
3717,17,Jits_Phase_5,3,5,63,98,1726593536
3717,17,Jits_Phase_5,0,1,48,39,1726984992
3717,17,Jits_Phase_5,1,5,63,98,1727013188
3717,17,Jits_Phase_5,2,5,80,127,1727042864
3717,17,Jits_Phase_5,3,5,56,103,1727053132
3717,17,Jits_Phase_5,0,1,48,41,1727469068
3717,17,Jits_Phase_5,1,5,80,127,1727573524
3717,17,Jits_Phase_5,2,5,56,103,1727582824
3717,17,Jits_Phase_5,3,5,63,98,1727613396
3717,17,Jits_Phase_5,0,1,48,35,1728032820
3717,17,Jits_Phase_5,1,5,63,98,1728062956
3717,17,Jits_Phase_5,2,5,56,103,1728092632
3717,17,Jits_Phase_5,3,5,80,127,1728102900
3717,17,Jits_Phase_5,0,1,48,40,1728512284
3717,17,Jits_Phase_5,1,5,56,103,1728514084
3717,17,Jits_Phase_5,2,5,63,98,1728562488
3717,17,Jits_Phase_5,3,5,80,127,1728583172
3717,17,Jits_Phase_5,0,1,48,36,1729006612
3717,17,Jits_Phase_5,1,5,80,127,1729023344
3717,17,Jits_Phase_5,2,5,63,98,1729072720
3717,17,Jits_Phase_5,3,5,56,103,1729112640
3717,17,Jits_Phase_5,0,1,48,43,1729477556
3717,17,Jits_Phase_5,1,5,56,103,1729523168
3717,17,Jits_Phase_5,2,5,63,98,1729552620
3717,17,Jits_Phase_5,3,5,80,127,1729623696
3717,17,Jits_Phase_5,0,5,56,103,1730022772
3717,17,Jits_Phase_5,1,1,48,35,1730051520
3717,17,Jits_Phase_5,2,5,80,127,1730083080
3717,17,Jits_Phase_5,3,5,63,98,1730112904
3717,17,Jits_Phase_5,0,5,56,103,1730532652
3717,17,Jits_Phase_5,1,5,63,98,1730542920
3717,17,Jits_Phase_5,2,1,48,40,1730572864
3717,17,Jits_Phase_5,3,5,80,127,1730582848
3717,17,Jits_Phase_5,0,1,48,36,1731015492
3717,17,Jits_Phase_5,1,5,63,98,1731023188
3717,17,Jits_Phase_5,2,5,80,127,1731103204
3717,17,Jits_Phase_5,3,5,56,103,1731113684
3717,17,Jits_Phase_5,0,1,48,36,1731523716
3717,17,Jits_Phase_5,1,5,63,98,1731573208
3717,17,Jits_Phase_5,2,5,56,103,1731612996
3717,17,Jits_Phase_5,3,5,80,127,1731615988
3717,17,Jits_Phase_5,0,5,56,103,1732032852
3717,17,Jits_Phase_5,1,1,48,27,1732039484
3717,17,Jits_Phase_5,2,5,63,98,1732043440
3717,17,Jits_Phase_5,3,5,80,127,1732083004
3717,17,Jits_Phase_5,0,1,48,27,1732514004
3717,17,Jits_Phase_5,1,5,56,103,1732523464
3717,17,Jits_Phase_5,2,5,63,98,1732526528
3717,17,Jits_Phase_5,3,5,80,127,1732542872
3717,17,Jits_Phase_5,0,1,48,18,1732959556
3717,17,Jits_Phase_5,1,5,80,127,1733033532
3717,17,Jits_Phase_5,2,5,56,103,1733042536
3717,17,Jits_Phase_5,3,5,63,98,1733113340
3717,17,Jits_Phase_5,0,1,48,40,1733508820
3717,17,Jits_Phase_5,1,5,63,98,1733522864
3717,17,Jits_Phase_5,2,5,56,103,1733543248
3717,17,Jits_Phase_5,3,5,80,127,1733623124
3717,17,Jits_Phase_5,0,5,56,103,1734032732
3717,17,Jits_Phase_5,1,1,48,46,1734040040
3717,17,Jits_Phase_5,2,5,80,127,1734072740
3717,17,Jits_Phase_5,3,5,63,98,1734082860
3717,17,Jits_Phase_5,0,5,80,127,1734523352
3717,17,Jits_Phase_5,1,1,48,43,1734537108
3717,17,Jits_Phase_5,2,5,63,98,1734552800
3717,17,Jits_Phase_5,3,5,56,103,1734592808
3717,17,Jits_Phase_5,0,5,56,103,1735042372
3717,17,Jits_Phase_5,1,1,48,43,1735066316
3717,17,Jits_Phase_5,2,5,63,98,1735073236
3717,17,Jits_Phase_5,3,5,80,127,1735123384
3717,17,Jits_Phase_5,0,1,48,43,1735517896
3717,17,Jits_Phase_5,1,5,80,127,1735543400
3717,17,Jits_Phase_5,2,5,56,103,1735583340
3717,17,Jits_Phase_5,3,5,63,98,1735593608
3717,17,Jits_Phase_5,0,1,48,44,1735993080
3717,17,Jits_Phase_5,1,5,80,127,1736023372
3717,17,Jits_Phase_5,2,5,63,98,1736063236
3717,17,Jits_Phase_5,3,5,56,103,1736122784
3717,17,Jits_Phase_5,0,1,48,43,1736522832
3717,17,Jits_Phase_5,1,5,56,103,1736524464
3717,17,Jits_Phase_5,2,5,80,127,1736533468
3717,17,Jits_Phase_5,3,5,63,98,1736614064
3717,17,Jits_Phase_5,0,5,80,127,1737022800
3717,17,Jits_Phase_5,1,1,48,40,1737049588
3717,17,Jits_Phase_5,2,5,63,98,1737083408
3717,17,Jits_Phase_5,3,5,56,103,1737113228
3717,17,Jits_Phase_5,0,5,56,103,1737522488
3717,17,Jits_Phase_5,1,1,48,36,1737545764
3717,17,Jits_Phase_5,2,5,80,127,1737583096
3717,17,Jits_Phase_5,3,5,63,98,1737622884
3717,17,Jits_Phase_5,0,1,48,39,1738006332
3717,17,Jits_Phase_5,1,5,56,103,1738072372
3717,17,Jits_Phase_5,2,5,63,98,1738082560
3717,17,Jits_Phase_5,3,5,80,127,1738086300
3717,17,Jits_Phase_5,0,5,80,127,1738523116
3717,17,Jits_Phase_5,1,1,48,36,1738575532
3717,17,Jits_Phase_5,2,5,63,98,1738613168
3717,17,Jits_Phase_5,3,5,56,103,1738623288
3717,17,Jits_Phase_5,0,5,56,103,1739022644
3717,17,Jits_Phase_5,1,5,63,98,1739025592
3717,17,Jits_Phase_5,2,5,80,127,1739029084
3717,17,Jits_Phase_5,3,1,48,34,1739035436
3717,17,Jits_Phase_5,0,1,48,36,1739451696
3717,17,Jits_Phase_5,1,5,80,127,1739542844
3717,17,Jits_Phase_5,2,5,63,98,1739593252
3717,17,Jits_Phase_5,3,5,56,103,1739622776
3717,17,Jits_Phase_5,0,5,56,103,1740023120
3717,17,Jits_Phase_5,1,5,80,127,1740033464
3717,17,Jits_Phase_5,2,1,48,38,1740040788
3717,17,Jits_Phase_5,3,5,63,98,1740103208
3717,17,Jits_Phase_5,0,1,48,29,1740513488
3717,17,Jits_Phase_5,1,5,56,103,1740533364
3717,17,Jits_Phase_5,2,5,63,98,1740552480
3717,17,Jits_Phase_5,3,5,80,127,1740613148
3717,17,Jits_Phase_5,0,1,48,34,1741003052
3717,17,Jits_Phase_5,1,5,80,127,1741013264
3717,17,Jits_Phase_5,2,5,63,98,1741083092
3717,17,Jits_Phase_5,3,5,56,103,1741103684
3717,17,Jits_Phase_5,0,5,80,127,1741532500
3717,17,Jits_Phase_5,1,5,56,103,1741542696
3717,17,Jits_Phase_5,2,1,48,32,1741548584
3717,17,Jits_Phase_5,3,5,63,98,1741553256
3717,17,Jits_Phase_5,0,1,48,29,1742013548
3717,17,Jits_Phase_5,1,5,80,127,1742023160
3717,17,Jits_Phase_5,2,5,56,103,1742042520
3717,17,Jits_Phase_5,3,5,63,98,1742113228
3717,17,Jits_Phase_5,0,5,56,103,1742533252
3717,17,Jits_Phase_5,1,1,48,29,1742537416
3717,17,Jits_Phase_5,2,5,80,127,1742562792
3717,17,Jits_Phase_5,3,5,63,98,1742583104
3717,17,Jits_Phase_5,0,1,48,30,1742996644
3717,17,Jits_Phase_5,1,5,63,98,1743022372
3717,17,Jits_Phase_5,2,5,56,103,1743083084
3717,17,Jits_Phase_5,3,5,80,127,1743112520
3717,17,Jits_Phase_5,0,5,63,98,1743512984
3717,17,Jits_Phase_5,1,5,80,127,1743516420
3717,17,Jits_Phase_5,2,1,48,38,1743544724
3717,17,Jits_Phase_5,3,5,56,103,1743602980
3717,17,Jits_Phase_5,0,1,48,40,1743993428
3717,17,Jits_Phase_5,1,5,56,103,1744033088
3717,17,Jits_Phase_5,2,5,63,98,1744063060
3717,17,Jits_Phase_5,3,5,80,127,1744102708
3717,17,Jits_Phase_5,0,1,48,35,1744528008
3717,17,Jits_Phase_5,1,5,63,98,1744532912
3717,17,Jits_Phase_5,2,5,56,103,1744572924
3717,17,Jits_Phase_5,3,5,80,127,1744593408
3717,17,Jits_Phase_5,0,1,48,34,1745046192
3717,17,Jits_Phase_5,1,5,63,98,1745053112
3717,17,Jits_Phase_5,2,5,56,103,1745093052
3717,17,Jits_Phase_5,3,5,80,127,1745103348
3717,17,Jits_Phase_5,0,1,48,33,1745515904
3717,17,Jits_Phase_5,1,5,80,127,1745533236
3717,17,Jits_Phase_5,2,5,63,98,1745603140
3717,17,Jits_Phase_5,3,5,56,103,1745623384
3717,17,Jits_Phase_5,0,5,56,103,1746022804
3717,17,Jits_Phase_5,1,1,48,38,1746035816
3717,17,Jits_Phase_5,2,5,80,127,1746043184
3717,17,Jits_Phase_5,3,5,63,98,1746083192
3717,17,Jits_Phase_5,0,1,48,33,1746506192
3717,17,Jits_Phase_5,1,5,63,98,1746532892
3717,17,Jits_Phase_5,2,5,80,127,1746553128
3717,17,Jits_Phase_5,3,5,56,103,1746593140
3717,17,Jits_Phase_5,0,1,48,26,1746988108
3717,17,Jits_Phase_5,1,5,63,98,1747032344
3717,17,Jits_Phase_5,2,5,56,103,1747052876
3717,17,Jits_Phase_5,3,5,80,127,1747063292
3717,17,Jits_Phase_5,0,1,48,24,1747489420
3717,17,Jits_Phase_5,1,5,80,127,1747533136
3717,17,Jits_Phase_5,2,5,56,103,1747552844
3717,17,Jits_Phase_5,3,5,63,98,1747583340
3717,17,Jits_Phase_5,0,1,48,29,1747985052
3717,17,Jits_Phase_5,1,5,56,103,1748102464
3717,17,Jits_Phase_5,2,5,80,127,1748105680
3717,17,Jits_Phase_5,3,5,63,98,1748122924
3717,17,Jits_Phase_5,0,5,63,98,1748523268
3717,17,Jits_Phase_5,1,1,48,30,1748537472
3717,17,Jits_Phase_5,2,5,56,103,1748553084
3717,17,Jits_Phase_5,3,5,80,127,1748612352
3717,17,Jits_Phase_5,0,1,48,30,1749004328
3717,17,Jits_Phase_5,1,5,63,98,1749102856
3717,17,Jits_Phase_5,2,5,56,103,1749113128
3717,17,Jits_Phase_5,3,5,80,127,1749122348
3717,17,Jits_Phase_5,0,1,48,37,1749514192
3717,17,Jits_Phase_5,1,5,56,103,1749562844
3717,17,Jits_Phase_5,2,5,80,127,1749592296
3717,17,Jits_Phase_5,3,5,63,98,1749602788
3717,17,Jits_Phase_5,0,1,48,39,1750030268
3717,17,Jits_Phase_5,1,5,63,98,1750103800
3717,17,Jits_Phase_5,2,5,56,103,1750112724
3717,17,Jits_Phase_5,3,5,80,127,1750133168
3717,17,Jits_Phase_5,0,5,56,103,1750532316
3717,17,Jits_Phase_5,1,1,48,44,1750564652
3717,17,Jits_Phase_5,2,5,63,98,1750592848
3717,17,Jits_Phase_5,3,5,80,127,1750596212
3717,17,Jits_Phase_5,0,1,48,43,1751040212
3717,17,Jits_Phase_5,1,5,80,127,1751052740
3717,17,Jits_Phase_5,2,5,56,103,1751062788
3717,17,Jits_Phase_5,3,5,63,98,1751132612
3717,17,Jits_Phase_5,0,1,48,41,1751532836
3717,17,Jits_Phase_5,1,5,80,127,1751543048
3717,17,Jits_Phase_5,2,5,56,103,1751612876
3717,17,Jits_Phase_5,3,5,63,98,1751623148
3717,17,Jits_Phase_5,0,1,48,44,1752072668
3717,17,Jits_Phase_5,1,5,63,98,1752082808
3717,17,Jits_Phase_5,2,5,56,103,1752093076
3717,17,Jits_Phase_5,3,5,80,127,1752112636
3717,17,Jits_Phase_5,0,5,80,127,1752533340
3717,17,Jits_Phase_5,1,1,48,48,1752557736
3717,17,Jits_Phase_5,2,5,63,98,1752592828
3717,17,Jits_Phase_5,3,5,56,103,1752632688
3717,17,Jits_Phase_5,0,5,56,103,1753072964
3717,17,Jits_Phase_5,1,5,63,98,1753083236
3717,17,Jits_Phase_5,2,1,48,41,1753102692
3717,17,Jits_Phase_5,3,5,80,127,1753123088
3717,17,Jits_Phase_5,0,5,56,103,1753532772
3717,17,Jits_Phase_5,1,5,80,127,1753562772
3717,17,Jits_Phase_5,2,1,48,38,1753596600
3717,17,Jits_Phase_5,3,5,63,98,1753612664
3717,17,Jits_Phase_5,0,1,48,45,1754053332
3717,17,Jits_Phase_5,1,5,56,103,1754072636
3717,17,Jits_Phase_5,2,5,63,98,1754113320
3717,17,Jits_Phase_5,3,5,80,127,1754116684
3717,17,Jits_Phase_5,0,1,48,42,1754531200
3717,17,Jits_Phase_5,1,5,56,103,1754573200
3717,17,Jits_Phase_5,2,5,63,98,1754583692
3717,17,Jits_Phase_5,3,5,80,127,1754602808
3717,17,Jits_Phase_5,0,1,48,40,1755032532
3717,17,Jits_Phase_5,1,5,56,103,1755034580
3717,17,Jits_Phase_5,2,5,80,127,1755037104
3717,17,Jits_Phase_5,3,5,63,98,1755072928
3717,17,Jits_Phase_5,0,1,48,41,1755486768
3717,17,Jits_Phase_5,1,5,63,98,1755572732
3717,17,Jits_Phase_5,2,5,56,103,1755603240
3717,17,Jits_Phase_5,3,5,80,127,1755622728
3717,17,Jits_Phase_5,0,5,80,127,1756042676
3717,17,Jits_Phase_5,1,1,48,42,1756046396
3717,17,Jits_Phase_5,2,5,56,103,1756052788
3717,17,Jits_Phase_5,3,5,63,98,1756063280
3717,17,Jits_Phase_5,0,1,48,37,1756491608
3717,17,Jits_Phase_5,1,5,56,103,1756552544
3717,17,Jits_Phase_5,2,5,80,127,1756592688
3717,17,Jits_Phase_5,3,5,63,98,1756623136
3717,17,Jits_Phase_5,0,5,63,98,1757062488
3717,17,Jits_Phase_5,1,5,80,127,1757072756
3717,17,Jits_Phase_5,2,1,48,45,1757083100
3717,17,Jits_Phase_5,3,5,56,103,1757084660
3717,17,Jits_Phase_5,0,5,56,103,1757553092
3717,17,Jits_Phase_5,1,1,48,33,1757572548
3717,17,Jits_Phase_5,2,5,63,98,1757622688
3717,17,Jits_Phase_5,3,5,80,127,1757632812
3717,17,Jits_Phase_5,0,1,48,37,1758042488
3717,17,Jits_Phase_5,1,5,80,127,1758062964
3717,17,Jits_Phase_5,2,5,56,103,1758073532
3717,17,Jits_Phase_5,3,5,63,98,1758123360
3717,17,Jits_Phase_5,0,1,48,37,1758554892
3717,17,Jits_Phase_5,1,5,80,127,1758572824
3717,17,Jits_Phase_5,2,5,56,103,1758633584
3717,17,Jits_Phase_5,3,5,63,98,1758662948
3717,17,Jits_Phase_5,0,5,56,103,1759072576
3717,17,Jits_Phase_5,1,1,48,32,1759074388
3717,17,Jits_Phase_5,2,5,80,127,1759077056
3717,17,Jits_Phase_5,3,5,63,98,1759112656
3717,17,Jits_Phase_5,0,1,48,40,1759535732
3717,17,Jits_Phase_5,1,5,56,103,1759603412
3717,17,Jits_Phase_5,2,5,63,98,1759632640
3717,17,Jits_Phase_5,3,5,80,127,1759643120
3717,17,Jits_Phase_5,0,1,48,32,1760075796
3717,17,Jits_Phase_5,1,5,63,98,1760113204
3717,17,Jits_Phase_5,2,5,80,127,1760123400
3717,17,Jits_Phase_5,3,5,56,103,1760132548
3717,17,Jits_Phase_5,0,5,80,127,1760562472
3717,17,Jits_Phase_5,1,1,48,31,1760596376
3717,17,Jits_Phase_5,2,5,56,103,1760612812
3717,17,Jits_Phase_5,3,5,63,98,1760615728
3717,17,Jits_Phase_5,0,1,48,38,1761054772
3717,17,Jits_Phase_5,1,5,56,103,1761093008
3717,17,Jits_Phase_5,2,5,80,127,1761112420
3717,17,Jits_Phase_5,3,5,63,98,1761122540
3717,17,Jits_Phase_5,0,1,48,39,1761571464
3717,17,Jits_Phase_5,1,5,63,98,1761573276
3717,17,Jits_Phase_5,2,5,56,103,1761602952
3717,17,Jits_Phase_5,3,5,80,127,1761623336
3717,17,Jits_Phase_5,0,1,48,42,1762068196
3717,17,Jits_Phase_5,1,5,56,103,1762083436
3717,17,Jits_Phase_5,2,5,80,127,1762093412
3717,17,Jits_Phase_5,3,5,63,98,1762162996
3717,17,Jits_Phase_5,0,1,48,45,1762559776
3717,17,Jits_Phase_5,1,5,63,98,1762572772
3717,17,Jits_Phase_5,2,5,80,127,1762612712
3717,17,Jits_Phase_5,3,5,56,103,1762652556
3717,17,Jits_Phase_5,0,5,56,103,1763082720
3717,17,Jits_Phase_5,1,1,48,42,1763084204
3717,17,Jits_Phase_5,2,5,63,98,1763092832
3717,17,Jits_Phase_5,3,5,80,127,1763113440
3717,17,Jits_Phase_5,0,1,48,44,1763562968
3717,17,Jits_Phase_5,1,5,63,98,1763623376
3717,17,Jits_Phase_5,2,5,80,127,1763642640
3717,17,Jits_Phase_5,3,5,56,103,1763663380
3717,17,Jits_Phase_5,0,5,56,103,1764062528
3717,17,Jits_Phase_5,1,1,48,43,1764120724
3717,17,Jits_Phase_5,2,5,80,127,1764142392
3717,17,Jits_Phase_5,3,5,63,98,1764152736
3717,17,Jits_Phase_5,0,1,48,44,1764582268
3717,17,Jits_Phase_5,1,5,80,127,1764603420
3717,17,Jits_Phase_5,2,5,63,98,1764612344
3717,17,Jits_Phase_5,3,5,56,103,1764643436
3717,17,Jits_Phase_5,0,5,63,98,1765063144
3717,17,Jits_Phase_5,1,1,48,39,1765074160
3717,17,Jits_Phase_5,2,5,80,127,1765103100
3717,17,Jits_Phase_5,3,5,56,103,1765163340
3717,17,Jits_Phase_5,0,5,63,98,1765573232
3717,17,Jits_Phase_5,1,1,48,49,1765574568
3717,17,Jits_Phase_5,2,5,56,103,1765623444
3717,17,Jits_Phase_5,3,5,80,127,1765652820
3717,17,Jits_Phase_5,0,5,80,127,1766072752
3717,17,Jits_Phase_5,1,5,63,98,1766083172
3717,17,Jits_Phase_5,2,1,48,46,1766109536
3717,17,Jits_Phase_5,3,5,56,103,1766152492
3717,17,Jits_Phase_5,0,1,48,43,1766582748
3717,17,Jits_Phase_5,1,5,80,127,1766632840
3717,17,Jits_Phase_5,2,5,56,103,1766643184
3717,17,Jits_Phase_5,3,5,63,98,1766646324
3717,17,Jits_Phase_5,0,5,56,103,1767073228
3717,17,Jits_Phase_5,1,5,80,127,1767092492
3717,17,Jits_Phase_5,2,5,63,98,1767102984
3717,17,Jits_Phase_5,3,1,48,46,1767108724
3717,17,Jits_Phase_5,0,1,48,44,1767522164
3717,17,Jits_Phase_5,1,5,63,98,1767583024
3717,17,Jits_Phase_5,2,5,56,103,1767623024
3717,17,Jits_Phase_5,3,5,80,127,1767642532
3717,17,Jits_Phase_5,0,1,48,43,1767998308
3717,17,Jits_Phase_5,1,5,63,98,1768083076
3717,17,Jits_Phase_5,2,5,56,103,1768143176
3717,17,Jits_Phase_5,3,5,80,127,1768146316
3717,17,Jits_Phase_5,0,1,48,39,1768542820
3717,17,Jits_Phase_5,1,5,56,103,1768544388
3717,17,Jits_Phase_5,2,5,80,127,1768563200
3717,17,Jits_Phase_5,3,5,63,98,1768602988
3717,17,Jits_Phase_5,0,1,48,44,1769009112
3717,17,Jits_Phase_5,1,5,56,103,1769073204
3717,17,Jits_Phase_5,2,5,63,98,1769092468
3717,17,Jits_Phase_5,3,5,80,127,1769102660
3717,17,Jits_Phase_5,0,1,48,50,1769517032
3717,17,Jits_Phase_5,1,5,80,127,1769543060
3717,17,Jits_Phase_5,2,5,56,103,1769572812
3717,17,Jits_Phase_5,3,5,63,98,1769612524
3717,17,Jits_Phase_5,0,1,48,33,1770032372
3717,17,Jits_Phase_5,1,5,80,127,1770053144
3717,17,Jits_Phase_5,2,5,56,103,1770072484
3717,17,Jits_Phase_5,3,5,63,98,1770132932
3717,17,Jits_Phase_5,0,1,48,54,1770532420
3717,17,Jits_Phase_5,1,5,56,103,1770562860
3717,17,Jits_Phase_5,2,5,80,127,1770583468
3717,17,Jits_Phase_5,3,5,63,98,1770643164
3717,17,Jits_Phase_5,0,5,80,127,1771043136
3717,17,Jits_Phase_5,1,5,56,103,1771053408
3717,17,Jits_Phase_5,2,1,48,48,1771068280
3717,17,Jits_Phase_5,3,5,63,98,1771093336
3717,17,Jits_Phase_5,0,1,48,48,1771533428
3717,17,Jits_Phase_5,1,5,63,98,1771543040
3717,17,Jits_Phase_5,2,5,56,103,1771583048
3717,17,Jits_Phase_5,3,5,80,127,1771586192
3717,17,Jits_Phase_5,0,1,48,50,1772010368
3717,17,Jits_Phase_5,1,5,63,98,1772063004
3717,17,Jits_Phase_5,2,5,80,127,1772102928
3717,17,Jits_Phase_5,3,5,56,103,1772132900
3717,17,Jits_Phase_5,0,1,48,46,1772498512
3717,17,Jits_Phase_5,1,5,56,103,1772552492
3717,17,Jits_Phase_5,2,5,63,98,1772563060
3717,17,Jits_Phase_5,3,5,80,127,1772592644
3717,17,Jits_Phase_5,0,1,48,48,1773005604
3717,17,Jits_Phase_5,1,5,80,127,1773042944
3717,17,Jits_Phase_5,2,5,63,98,1773113132
3717,17,Jits_Phase_5,3,5,56,103,1773123176
3717,17,Jits_Phase_5,0,5,63,98,1773542776
3717,17,Jits_Phase_5,1,1,48,49,1773569560
3717,17,Jits_Phase_5,2,5,56,103,1773613420
3717,17,Jits_Phase_5,3,5,80,127,1773622792
3717,17,Jits_Phase_5,0,5,63,98,1774023020
3717,17,Jits_Phase_5,1,5,56,103,1774042460
3717,17,Jits_Phase_5,2,1,48,47,1774078308
3717,17,Jits_Phase_5,3,5,80,127,1774082608
3717,17,Jits_Phase_5,0,1,48,42,1774496436
3717,17,Jits_Phase_5,1,5,56,103,1774503136
3717,17,Jits_Phase_5,2,5,63,98,1774512508
3717,17,Jits_Phase_5,3,5,80,127,1774593368
3717,17,Jits_Phase_5,0,1,48,48,1774985772
3717,17,Jits_Phase_5,1,5,63,98,1774992916
3717,17,Jits_Phase_5,2,5,56,103,1775022444
3717,17,Jits_Phase_5,3,5,80,127,1775063524
3717,17,Jits_Phase_5,0,1,48,48,1775449328
3717,17,Jits_Phase_5,1,5,56,103,1775492588
3717,17,Jits_Phase_5,2,5,63,98,1775533352
3717,17,Jits_Phase_5,3,5,80,127,1775573224
3717,17,Jits_Phase_5,0,1,48,40,1775936120
3717,17,Jits_Phase_5,1,5,80,127,1775993164
3717,17,Jits_Phase_5,2,5,56,103,1776072968
3717,17,Jits_Phase_5,3,5,63,98,1776083532
3717,17,Jits_Phase_5,0,1,48,48,1776501656
3717,17,Jits_Phase_5,1,5,56,103,1776532764
3717,17,Jits_Phase_5,2,5,63,98,1776535912
3717,17,Jits_Phase_5,3,5,80,127,1776542968
3717,17,Jits_Phase_5,0,1,48,43,1776973524
3717,17,Jits_Phase_5,1,5,56,103,1777053112
3717,17,Jits_Phase_5,2,5,63,98,1777072732
3717,17,Jits_Phase_5,3,5,80,127,1777082704
3717,17,Jits_Phase_5,0,1,48,42,1777512796
3717,17,Jits_Phase_5,1,5,63,98,1777514356
3717,17,Jits_Phase_5,2,5,80,127,1777523132
3717,17,Jits_Phase_5,3,5,56,103,1777542768
3717,17,Jits_Phase_5,0,1,48,39,1777988004
3717,17,Jits_Phase_5,1,5,63,98,1778012612
3717,17,Jits_Phase_5,2,5,56,103,1778093360
3717,17,Jits_Phase_5,3,5,80,127,1778096648
3717,17,Jits_Phase_5,0,1,48,44,1778499204
3717,17,Jits_Phase_5,1,5,63,98,1778513324
3717,17,Jits_Phase_5,2,5,56,103,1778532812
3717,17,Jits_Phase_5,3,5,80,127,1778562412
3717,17,Jits_Phase_5,0,1,48,47,1778981584
3717,17,Jits_Phase_5,1,5,56,103,1779012996
3717,17,Jits_Phase_5,2,5,63,98,1779032412
3717,17,Jits_Phase_5,3,5,80,127,1779042604
3717,17,Jits_Phase_5,0,1,48,44,1779482380
3717,17,Jits_Phase_5,1,5,56,103,1779543612
3717,17,Jits_Phase_5,2,5,63,98,1779573064
3717,17,Jits_Phase_5,3,5,80,127,1779576500
3717,17,Jits_Phase_5,0,1,48,46,1779991736
3717,17,Jits_Phase_5,1,5,56,103,1779993528
3717,17,Jits_Phase_5,2,5,63,98,1780032948
3717,17,Jits_Phase_5,3,5,80,127,1780093396
3717,17,Jits_Phase_5,0,1,48,47,1780482328
3717,17,Jits_Phase_5,1,5,56,103,1780513140
3717,17,Jits_Phase_5,2,5,63,98,1780523632
3717,17,Jits_Phase_5,3,5,80,127,1780582736
3717,17,Jits_Phase_5,0,1,48,48,1780983716
3717,17,Jits_Phase_5,1,5,56,103,1781012960
3717,17,Jits_Phase_5,2,5,80,127,1781033272
3717,17,Jits_Phase_5,3,5,63,98,1781063168
3717,17,Jits_Phase_5,0,1,48,44,1781487808
3717,17,Jits_Phase_5,1,5,80,127,1781522900
3717,17,Jits_Phase_5,2,5,56,103,1781533172
3717,17,Jits_Phase_5,3,5,63,98,1781552432
3717,17,Jits_Phase_5,0,1,48,46,1781971608
3717,17,Jits_Phase_5,1,5,63,98,1782013432
3717,17,Jits_Phase_5,2,5,80,127,1782093284
3717,17,Jits_Phase_5,3,5,56,103,1782103632
3717,17,Jits_Phase_5,0,1,48,48,1782504472
3717,17,Jits_Phase_5,1,5,80,127,1782603016
3717,17,Jits_Phase_5,2,5,56,103,1782622636
3717,17,Jits_Phase_5,3,5,63,98,1782625628
3717,17,Jits_Phase_5,0,1,48,42,1783065272
3717,17,Jits_Phase_5,1,5,63,98,1783092572
3717,17,Jits_Phase_5,2,5,80,127,1783095936
3717,17,Jits_Phase_5,3,5,56,103,1783152956
3717,17,Jits_Phase_5,0,5,56,103,1783572916
3717,17,Jits_Phase_5,1,5,80,127,1783583040
3717,17,Jits_Phase_5,2,1,48,41,1783614324
3717,17,Jits_Phase_5,3,5,63,98,1783622896
3717,17,Jits_Phase_5,0,5,56,103,1784063536
3717,17,Jits_Phase_5,1,1,48,35,1784065908
3717,17,Jits_Phase_5,2,5,63,98,1784122876
3717,17,Jits_Phase_5,3,5,80,127,1784133068
3717,17,Jits_Phase_5,0,1,48,39,1784543420
3717,17,Jits_Phase_5,1,5,63,98,1784573484
3717,17,Jits_Phase_5,2,5,80,127,1784613424
3717,17,Jits_Phase_5,3,5,56,103,1784653044
3717,17,Jits_Phase_5,0,1,48,45,1785046756
3717,17,Jits_Phase_5,1,5,56,103,1785073084
3717,17,Jits_Phase_5,2,5,63,98,1785153012
3717,17,Jits_Phase_5,3,5,80,127,1785156304
3717,17,Jits_Phase_5,0,1,48,44,1785586812
3717,17,Jits_Phase_5,1,5,80,127,1785633212
3717,17,Jits_Phase_5,2,5,56,103,1785662960
3717,17,Jits_Phase_5,3,5,63,98,1785665880
3717,17,Jits_Phase_5,0,5,56,103,1786092960
3717,17,Jits_Phase_5,1,1,48,42,1786106944
3717,17,Jits_Phase_5,2,5,80,127,1786113340
3717,17,Jits_Phase_5,3,5,63,98,1786153572
3717,17,Jits_Phase_5,0,1,48,44,1786545912
3717,17,Jits_Phase_5,1,5,80,127,1786573456
3717,17,Jits_Phase_5,2,5,63,98,1786592572
3717,17,Jits_Phase_5,3,5,56,103,1786652944
3717,17,Jits_Phase_5,0,1,48,43,1787050448
3717,17,Jits_Phase_5,1,5,63,98,1787083396
3717,17,Jits_Phase_5,2,5,56,103,1787093520
3717,17,Jits_Phase_5,3,5,80,127,1787142448
3717,17,Jits_Phase_5,0,1,48,40,1787550888
3717,17,Jits_Phase_5,1,5,56,103,1787572560
3717,17,Jits_Phase_5,2,5,63,98,1787593120
3717,17,Jits_Phase_5,3,5,80,127,1787603388
3717,17,Jits_Phase_5,0,1,48,29,1788023132
3717,17,Jits_Phase_5,1,5,56,103,1788063316
3717,17,Jits_Phase_5,2,5,63,98,1788066376
3717,17,Jits_Phase_5,3,5,80,127,1788082500
3717,17,Jits_Phase_5,0,5,63,98,1788602768
3717,17,Jits_Phase_5,1,1,48,32,1788606636
3717,17,Jits_Phase_5,2,5,56,103,1788632460
3717,17,Jits_Phase_5,3,5,80,127,1788663404
3717,17,Jits_Phase_5,0,1,48,42,1789055428
3717,17,Jits_Phase_5,1,5,80,127,1789062424
3717,17,Jits_Phase_5,2,5,56,103,1789152568
3717,17,Jits_Phase_5,3,5,63,98,1789155784
3717,17,Jits_Phase_5,0,1,48,37,1789541168
3717,17,Jits_Phase_5,1,5,56,103,1789563136
3717,17,Jits_Phase_5,2,5,80,127,1789566280
3717,17,Jits_Phase_5,3,5,63,98,1789643312
3717,17,Jits_Phase_5,0,1,48,36,1790020064
3717,17,Jits_Phase_5,1,5,80,127,1790062956
3717,17,Jits_Phase_5,2,5,63,98,1790123256
3717,17,Jits_Phase_5,3,5,56,103,1790153252
3717,17,Jits_Phase_5,0,1,48,43,1790524092
3717,17,Jits_Phase_5,1,5,63,98,1790562632
3717,17,Jits_Phase_5,2,5,80,127,1790573124
3717,17,Jits_Phase_5,3,5,56,103,1790642412
3717,17,Jits_Phase_5,0,1,48,38,1791053660
3717,17,Jits_Phase_5,1,5,56,103,1791122764
3717,17,Jits_Phase_5,2,5,80,127,1791153396
3717,17,Jits_Phase_5,3,5,63,98,1791202796
3717,17,Jits_Phase_5,0,1,48,43,1791594084
3717,17,Jits_Phase_5,1,5,63,98,1791712572
3717,17,Jits_Phase_5,2,5,56,103,1791743516
3717,17,Jits_Phase_5,3,5,80,127,1791746580
3717,17,Jits_Phase_5,0,1,48,37,1792176684
3717,17,Jits_Phase_5,1,5,63,98,1792213448
3717,17,Jits_Phase_5,2,5,80,127,1792232788
3717,17,Jits_Phase_5,3,5,56,103,1792243280
3717,17,Jits_Phase_5,0,1,48,36,1792702140
3717,17,Jits_Phase_5,1,5,56,103,1792723156
3717,17,Jits_Phase_5,2,5,63,98,1792726304
3717,17,Jits_Phase_5,3,5,80,127,1792742724
3717,17,Jits_Phase_5,0,5,56,103,1793172836
3717,17,Jits_Phase_5,1,5,63,98,1793183404
3717,17,Jits_Phase_5,2,5,80,127,1793212780
3717,17,Jits_Phase_5,3,1,48,41,1793238024
3717,17,Jits_Phase_5,0,1,48,35,1793634804
3717,17,Jits_Phase_5,1,5,63,98,1793693044
3717,17,Jits_Phase_5,2,5,80,127,1793712380
3717,17,Jits_Phase_5,3,5,56,103,1793752400
3717,17,Jits_Phase_5,0,1,48,37,1794149828
3717,17,Jits_Phase_5,1,5,56,103,1794222388
3717,17,Jits_Phase_5,2,5,63,98,1794263380
3717,17,Jits_Phase_5,3,5,80,127,1794266748
3717,17,Jits_Phase_5,0,5,80,127,1794663024
3717,17,Jits_Phase_5,1,1,48,38,1794673412
3717,17,Jits_Phase_5,2,5,56,103,1794703028
3717,17,Jits_Phase_5,3,5,63,98,1794753228
3717,17,Jits_Phase_5,0,1,48,41,1795138700
3717,17,Jits_Phase_5,1,5,56,103,1795223016
3717,17,Jits_Phase_5,2,5,80,127,1795233124
3717,17,Jits_Phase_5,3,5,63,98,1795262944
3717,17,Jits_Phase_5,0,1,48,48,1795671072
3717,17,Jits_Phase_5,1,5,56,103,1795673100
3717,17,Jits_Phase_5,2,5,80,127,1795713556
3717,17,Jits_Phase_5,3,5,63,98,1795763372
3717,17,Jits_Phase_5,0,1,48,42,1796169216
3717,17,Jits_Phase_5,1,5,56,103,1796173296
3717,17,Jits_Phase_5,2,5,80,127,1796213232
3717,17,Jits_Phase_5,3,5,63,98,1796264464
3717,17,Jits_Phase_5,0,1,48,32,1796630380
3717,17,Jits_Phase_5,1,5,80,127,1796662560
3717,17,Jits_Phase_5,2,5,63,98,1796742564
3717,17,Jits_Phase_5,3,5,56,103,1796752908
3717,17,Jits_Phase_5,0,1,48,39,1797152852
3717,17,Jits_Phase_5,1,5,80,127,1797212508
3717,17,Jits_Phase_5,2,5,56,103,1797223004
3717,17,Jits_Phase_5,3,5,63,98,1797243164
3717,17,Jits_Phase_5,0,1,48,30,1797679336
3717,17,Jits_Phase_5,1,5,63,98,1797682444
3717,17,Jits_Phase_5,2,5,56,103,1797753240
3717,17,Jits_Phase_5,3,5,80,127,1797756160
3717,17,Jits_Phase_5,0,5,80,127,1798173052
3717,17,Jits_Phase_5,1,1,48,33,1798219092
3717,17,Jits_Phase_5,2,5,63,98,1798223244
3717,17,Jits_Phase_5,3,5,56,103,1798263184
3717,17,Jits_Phase_5,0,1,48,38,1798678396
3717,17,Jits_Phase_5,1,5,63,98,1798712672
3717,17,Jits_Phase_5,2,5,56,103,1798752832
3717,17,Jits_Phase_5,3,5,80,127,1798763104
3717,17,Jits_Phase_5,0,1,48,38,1799150824
3717,17,Jits_Phase_5,1,5,63,98,1799203136
3717,17,Jits_Phase_5,2,5,56,103,1799222844
3717,17,Jits_Phase_5,3,5,80,127,1799243080
3717,17,Jits_Phase_5,0,5,80,127,1799662888
3717,17,Jits_Phase_5,1,5,56,103,1799673084
3717,17,Jits_Phase_5,2,1,48,43,1799686764
3717,17,Jits_Phase_5,3,5,63,98,1799692860
3717,17,Jits_Phase_5,0,1,48,47,1800132544
3717,17,Jits_Phase_5,1,5,63,98,1800193428
3717,17,Jits_Phase_5,2,5,56,103,1800233276
3717,17,Jits_Phase_5,3,5,80,127,1800262876
3717,17,Jits_Phase_5,0,1,48,42,1800643012
3717,17,Jits_Phase_5,1,5,56,103,1800653172
3717,17,Jits_Phase_5,2,5,63,98,1800683144
3717,17,Jits_Phase_5,3,5,80,127,1800712968
3717,17,Jits_Phase_5,0,5,80,127,1801072976
3717,17,Jits_Phase_5,1,1,48,46,1801130028
3717,17,Jits_Phase_5,2,5,56,103,1801142724
3717,17,Jits_Phase_5,3,5,63,98,1801145864
3717,17,Jits_Phase_5,0,1,48,46,1801577188
3717,17,Jits_Phase_5,1,5,56,103,1801583064
3717,17,Jits_Phase_5,2,5,63,98,1801633192
3717,17,Jits_Phase_5,3,5,80,127,1801662940
3717,17,Jits_Phase_5,0,1,48,37,1802053576
3717,17,Jits_Phase_5,1,5,63,98,1802063188
3717,17,Jits_Phase_5,2,5,80,127,1802066704
3717,17,Jits_Phase_5,3,5,56,103,1802122752
3717,17,Jits_Phase_5,0,1,48,39,1802494944
3717,17,Jits_Phase_5,1,5,56,103,1802592880
3717,17,Jits_Phase_5,2,5,80,127,1802602928
3717,17,Jits_Phase_5,3,5,63,98,1802653052
3717,17,Jits_Phase_5,0,1,48,36,1803062312
3717,17,Jits_Phase_5,1,5,63,98,1803063948
3717,17,Jits_Phase_5,2,5,56,103,1803072800
3717,17,Jits_Phase_5,3,5,80,127,1803102696
3717,17,Jits_Phase_5,0,1,48,34,1803538788
3717,17,Jits_Phase_5,1,5,63,98,1803593136
3717,17,Jits_Phase_5,2,5,80,127,1803596576
3717,17,Jits_Phase_5,3,5,56,103,1803622660
3717,17,Jits_Phase_5,0,1,48,40,1804060792
3717,17,Jits_Phase_5,1,5,63,98,1804113476
3717,17,Jits_Phase_5,2,5,56,103,1804132812
3717,17,Jits_Phase_5,3,5,80,127,1804135880
3717,17,Jits_Phase_5,0,1,48,44,1804545096
3717,17,Jits_Phase_5,1,5,63,98,1804572916
3717,17,Jits_Phase_5,2,5,56,103,1804642804
3717,17,Jits_Phase_5,3,5,80,127,1804663188
3717,17,Jits_Phase_5,0,1,48,42,1805030692
3717,17,Jits_Phase_5,1,5,56,103,1805062776
3717,17,Jits_Phase_5,2,5,63,98,1805073044
3717,17,Jits_Phase_5,3,5,80,127,1805162864
3717,17,Jits_Phase_5,0,1,48,37,1805534924
3717,17,Jits_Phase_5,1,5,56,103,1805582676
3717,17,Jits_Phase_5,2,5,80,127,1805622688
3717,17,Jits_Phase_5,3,5,63,98,1805632960
3717,17,Jits_Phase_5,0,1,48,39,1806053556
3717,17,Jits_Phase_5,1,5,56,103,1806102952
3717,17,Jits_Phase_5,2,5,63,98,1806132552
3717,17,Jits_Phase_5,3,5,80,127,1806163332
3717,17,Jits_Phase_5,0,1,48,48,1806559444
3717,17,Jits_Phase_5,1,5,80,127,1806562624
3717,17,Jits_Phase_5,2,5,63,98,1806602564
3717,17,Jits_Phase_5,3,5,56,103,1806622948
3717,17,Jits_Phase_5,0,1,48,43,1807050716
3717,17,Jits_Phase_5,1,5,56,103,1807103276
3717,17,Jits_Phase_5,2,5,80,127,1807122688
3717,17,Jits_Phase_5,3,5,63,98,1807143444
3717,17,Jits_Phase_5,0,1,48,45,1807543644
3717,17,Jits_Phase_5,1,5,63,98,1807573436
3717,17,Jits_Phase_5,2,5,56,103,1807582808
3717,17,Jits_Phase_5,3,5,80,127,1807642956
3717,17,Jits_Phase_5,0,1,48,43,1808059416
3717,17,Jits_Phase_5,1,5,56,103,1808073032
3717,17,Jits_Phase_5,2,5,63,98,1808142712
3717,17,Jits_Phase_5,3,5,80,127,1808163080
3717,17,Jits_Phase_5,0,1,48,41,1808545460
3717,17,Jits_Phase_5,1,5,56,103,1808572684
3717,17,Jits_Phase_5,2,5,63,98,1808602608
3717,17,Jits_Phase_5,3,5,80,127,1808642528
3717,17,Jits_Phase_5,0,5,63,98,1809063520
3717,17,Jits_Phase_5,1,1,48,38,1809066492
3717,17,Jits_Phase_5,2,5,56,103,1809112468
3717,17,Jits_Phase_5,3,5,80,127,1809122664
3717,17,Jits_Phase_5,0,1,48,42,1809535960
3717,17,Jits_Phase_5,1,5,56,103,1809603044
3717,17,Jits_Phase_5,2,5,63,98,1809653032
3717,17,Jits_Phase_5,3,5,80,127,1809663600
3717,17,Jits_Phase_5,0,1,48,46,1810057740
3717,17,Jits_Phase_5,1,5,56,103,1810072908
3717,17,Jits_Phase_5,2,5,63,98,1810083104
3717,17,Jits_Phase_5,3,5,80,127,1810163052
3717,17,Jits_Phase_5,0,9999,9999,9999,1725810776
3717,17,Jits_Phase_5,1,9999,9999,9999,1726310464
3717,17,Jits_Phase_5,2,9999,9999,9999,1726810232
3717,17,Jits_Phase_5,3,9999,9999,9999,1727310948
3717,17,Jits_Phase_5,4,9999,9999,9999,1727810624
3717,17,Jits_Phase_5,5,9999,9999,9999,1728310380
3717,17,Jits_Phase_5,6,9999,9999,9999,1728811100
3717,17,Jits_Phase_5,7,9999,9999,9999,1729321032
3717,17,Jits_Phase_5,8,9999,9999,9999,1729820780
3717,17,Jits_Phase_5,9,9999,9999,9999,1730320456
3717,17,Jits_Phase_5,10,9999,9999,9999,1730820216
3717,17,Jits_Phase_5,11,9999,9999,9999,1731320952
3717,17,Jits_Phase_5,12,9999,9999,9999,1731820624
3717,17,Jits_Phase_5,13,9999,9999,9999,1732320368
3717,17,Jits_Phase_5,14,9999,9999,9999,1732821088
3717,17,Jits_Phase_5,15,9999,9999,9999,1733320812
3717,17,Jits_Phase_5,16,9999,9999,9999,1733820476
3717,17,Jits_Phase_5,17,9999,9999,9999,1734320224
3717,17,Jits_Phase_5,18,9999,9999,9999,1734820960
3717,17,Jits_Phase_5,19,9999,9999,9999,1735320648
3717,17,Jits_Phase_5,20,9999,9999,9999,1735820412
3717,17,Jits_Phase_5,21,9999,9999,9999,1736320088
3717,17,Jits_Phase_5,22,9999,9999,9999,1736820808
3717,17,Jits_Phase_5,23,9999,9999,9999,1737320560
3717,17,Jits_Phase_5,24,9999,9999,9999,1737820244
3717,17,Jits_Phase_5,25,9999,9999,9999,1738320976
3717,17,Jits_Phase_5,26,9999,9999,9999,1738820728
3717,17,Jits_Phase_5,27,9999,9999,9999,1739320388
3717,17,Jits_Phase_5,28,9999,9999,9999,1739820156
3717,17,Jits_Phase_5,29,9999,9999,9999,1740320872
3717,17,Jits_Phase_5,30,9999,9999,9999,1740810304
3717,17,Jits_Phase_5,31,9999,9999,9999,1741311100
3717,17,Jits_Phase_5,32,9999,9999,9999,1741810772
3717,17,Jits_Phase_5,33,9999,9999,9999,1742310460
3717,17,Jits_Phase_5,34,9999,9999,9999,1742810208
3717,17,Jits_Phase_5,35,9999,9999,9999,1743310944
3717,17,Jits_Phase_5,36,9999,9999,9999,1743810656
3717,17,Jits_Phase_5,37,9999,9999,9999,1744310396
3717,17,Jits_Phase_5,38,9999,9999,9999,1744811124
3717,17,Jits_Phase_5,39,9999,9999,9999,1745321060
3717,17,Jits_Phase_5,40,9999,9999,9999,1745820736
3717,17,Jits_Phase_5,41,9999,9999,9999,1746320484
3717,17,Jits_Phase_5,42,9999,9999,9999,1746820168
3717,17,Jits_Phase_5,43,9999,9999,9999,1747320960
3717,17,Jits_Phase_5,44,9999,9999,9999,1747820632
3717,17,Jits_Phase_5,45,9999,9999,9999,1748320376
3717,17,Jits_Phase_5,46,9999,9999,9999,1748821096
3717,17,Jits_Phase_5,47,9999,9999,9999,1749320776
3717,17,Jits_Phase_5,48,9999,9999,9999,1749830716
3717,17,Jits_Phase_5,49,9999,9999,9999,1750330472
3717,17,Jits_Phase_5,50,9999,9999,9999,1750830140
3717,17,Jits_Phase_5,51,9999,9999,9999,1751330876
3717,17,Jits_Phase_5,52,9999,9999,9999,1751830624
3717,17,Jits_Phase_5,53,9999,9999,9999,1752330300
3717,17,Jits_Phase_5,54,9999,9999,9999,1752831096
3717,17,Jits_Phase_5,55,9999,9999,9999,1753330788
3717,17,Jits_Phase_5,56,9999,9999,9999,1753830476
3717,17,Jits_Phase_5,57,9999,9999,9999,1754330236
3717,17,Jits_Phase_5,58,9999,9999,9999,1754830956
3717,17,Jits_Phase_5,59,9999,9999,9999,1755330668
3717,17,Jits_Phase_5,60,9999,9999,9999,1755830344
3717,17,Jits_Phase_5,61,9999,9999,9999,1756331064
3717,17,Jits_Phase_5,62,9999,9999,9999,1756841016
3717,17,Jits_Phase_5,63,9999,9999,9999,1757340760
3717,17,Jits_Phase_5,64,9999,9999,9999,1757860960
3717,17,Jits_Phase_5,65,9999,9999,9999,1758360648
3717,17,Jits_Phase_5,66,9999,9999,9999,1758860396
3717,17,Jits_Phase_5,67,9999,9999,9999,1759360060
3717,17,Jits_Phase_5,68,9999,9999,9999,1759860796
3717,17,Jits_Phase_5,69,9999,9999,9999,1760360552
3717,17,Jits_Phase_5,70,9999,9999,9999,1760860216
3717,17,Jits_Phase_5,71,9999,9999,9999,1761360952
3717,17,Jits_Phase_5,72,9999,9999,9999,1761860700
3717,17,Jits_Phase_5,73,9999,9999,9999,1762360376
3717,17,Jits_Phase_5,74,9999,9999,9999,1762860124
3717,17,Jits_Phase_5,75,9999,9999,9999,1763360844
3717,17,Jits_Phase_5,76,9999,9999,9999,1763860536
3717,17,Jits_Phase_5,77,9999,9999,9999,1764360292
3717,17,Jits_Phase_5,78,9999,9999,9999,1764861028
3717,17,Jits_Phase_5,79,9999,9999,9999,1765360700
3717,17,Jits_Phase_5,80,9999,9999,9999,1765860444
3717,17,Jits_Phase_5,81,9999,9999,9999,1766340692
3717,17,Jits_Phase_5,82,9999,9999,9999,1766840376
3717,17,Jits_Phase_5,83,9999,9999,9999,1767340120
3717,17,Jits_Phase_5,84,9999,9999,9999,1767840860
3717,17,Jits_Phase_5,85,9999,9999,9999,1768340604
3717,17,Jits_Phase_5,86,9999,9999,9999,1768840280
3717,17,Jits_Phase_5,87,9999,9999,9999,1769341000
3717,17,Jits_Phase_5,88,9999,9999,9999,1769840748
3717,17,Jits_Phase_5,89,9999,9999,9999,1770340424
3717,17,Jits_Phase_5,90,9999,9999,9999,1770840172
3717,17,Jits_Phase_5,91,9999,9999,9999,1771340888
3717,17,Jits_Phase_5,92,9999,9999,9999,1771840568
3717,17,Jits_Phase_5,93,9999,9999,9999,1772340316
3717,17,Jits_Phase_5,94,9999,9999,9999,1772841036
3717,17,Jits_Phase_5,95,9999,9999,9999,1773340784
3717,17,Jits_Phase_5,96,9999,9999,9999,1773840456
3717,17,Jits_Phase_5,97,9999,9999,9999,1774291060
3717,17,Jits_Phase_5,98,9999,9999,9999,1774790708
3717,17,Jits_Phase_5,99,9999,9999,9999,1775290452
3717,17,Jits_Phase_5,100,9999,9999,9999,1775790204
3717,17,Jits_Phase_5,101,9999,9999,9999,1776290928
3717,17,Jits_Phase_5,102,9999,9999,9999,1776790592
3717,17,Jits_Phase_5,103,9999,9999,9999,1777290348
3717,17,Jits_Phase_5,104,9999,9999,9999,1777791068
3717,17,Jits_Phase_5,105,9999,9999,9999,1778290812
3717,17,Jits_Phase_5,106,9999,9999,9999,1778790488
3717,17,Jits_Phase_5,107,9999,9999,9999,1779290232
3717,17,Jits_Phase_5,108,9999,9999,9999,1779790948
3717,17,Jits_Phase_5,109,9999,9999,9999,1780290624
3717,17,Jits_Phase_5,110,9999,9999,9999,1780790376
3717,17,Jits_Phase_5,111,9999,9999,9999,1781291096
3717,17,Jits_Phase_5,112,9999,9999,9999,1781801032
3717,17,Jits_Phase_5,113,9999,9999,9999,1782300788
3717,17,Jits_Phase_5,114,9999,9999,9999,1782850652
3717,17,Jits_Phase_5,115,9999,9999,9999,1783350396
3717,17,Jits_Phase_5,116,9999,9999,9999,1783851120
3717,17,Jits_Phase_5,117,9999,9999,9999,1784361072
3717,17,Jits_Phase_5,118,9999,9999,9999,1784860760
3717,17,Jits_Phase_5,119,9999,9999,9999,1785360504
3717,17,Jits_Phase_5,120,9999,9999,9999,1785860176
3717,17,Jits_Phase_5,121,9999,9999,9999,1786360900
3717,17,Jits_Phase_5,122,9999,9999,9999,1786860660
3717,17,Jits_Phase_5,123,9999,9999,9999,1787360336
3717,17,Jits_Phase_5,124,9999,9999,9999,1787861052
3717,17,Jits_Phase_5,125,9999,9999,9999,1788360788
3717,17,Jits_Phase_5,126,9999,9999,9999,1788860520
3717,17,Jits_Phase_5,127,9999,9999,9999,1789360184
3717,17,Jits_Phase_5,128,9999,9999,9999,1789860968
3717,17,Jits_Phase_5,129,9999,9999,9999,1790360644
3717,17,Jits_Phase_5,130,9999,9999,9999,1790860392
3717,17,Jits_Phase_5,131,9999,9999,9999,1791460476
3717,17,Jits_Phase_5,132,9999,9999,9999,1791960148
3717,17,Jits_Phase_5,133,9999,9999,9999,1792460872
3717,17,Jits_Phase_5,134,9999,9999,9999,1792960584
3717,17,Jits_Phase_5,135,9999,9999,9999,1793460328
3717,17,Jits_Phase_5,136,9999,9999,9999,1793961064
3717,17,Jits_Phase_5,137,9999,9999,9999,1794460736
3717,17,Jits_Phase_5,138,9999,9999,9999,1794960484
3717,17,Jits_Phase_5,139,9999,9999,9999,1795460176
3717,17,Jits_Phase_5,140,9999,9999,9999,1795960896
3717,17,Jits_Phase_5,141,9999,9999,9999,1796460648
3717,17,Jits_Phase_5,142,9999,9999,9999,1796960324
3717,17,Jits_Phase_5,143,9999,9999,9999,1797461052
3717,17,Jits_Phase_5,144,9999,9999,9999,1797960792
3717,17,Jits_Phase_5,145,9999,9999,9999,1798460472
3717,17,Jits_Phase_5,146,9999,9999,9999,1798960244
3717,17,Jits_Phase_5,147,9999,9999,9999,1799460968
3717,17,Jits_Phase_5,148,9999,9999,9999,1799960636
3717,17,Jits_Phase_5,149,9999,9999,9999,1800460404
3717,17,Jits_Phase_5,150,9999,9999,9999,1800860796
3717,17,Jits_Phase_5,151,9999,9999,9999,1801360460
3717,17,Jits_Phase_5,152,9999,9999,9999,1801860156
3717,17,Jits_Phase_5,153,9999,9999,9999,1802360940
3717,17,Jits_Phase_5,154,9999,9999,9999,1802860620
3717,17,Jits_Phase_5,155,9999,9999,9999,1803360360
3717,17,Jits_Phase_5,156,9999,9999,9999,1803861072
3717,17,Jits_Phase_5,157,9999,9999,9999,1804360816
3717,17,Jits_Phase_5,158,9999,9999,9999,1804860492
3717,17,Jits_Phase_5,159,9999,9999,9999,1805360240
3717,17,Jits_Phase_5,160,9999,9999,9999,1805860960
3717,17,Jits_Phase_5,161,9999,9999,9999,1806360636
3717,17,Jits_Phase_5,162,9999,9999,9999,1806860388
3717,17,Jits_Phase_5,163,9999,9999,9999,1807360064
3717,17,Jits_Phase_5,164,9999,9999,9999,1807860860
3717,17,Jits_Phase_5,165,9999,9999,9999,1808360536
3717,17,Jits_Phase_5,166,9999,9999,9999,1808860284
3717,17,Jits_Phase_5,167,9999,9999,9999,1809361004
3717,17,Jits_Phase_5,168,9999,9999,9999,1809860680
3717,17,Jits_Phase_5,169,9999,9999,9999,1810360404
3718,7,Jits_ISO_8,0,5,56,103,1889467764
3718,7,Jits_ISO_8,1,5,63,98,1889470864
3718,7,Jits_ISO_8,2,5,80,127,1889473836
3718,7,Jits_ISO_8,0,1,48,40,1890030660
3718,7,Jits_ISO_8,1,5,56,103,1890267444
3718,7,Jits_ISO_8,2,5,63,98,1890270696
3718,7,Jits_ISO_8,3,5,80,127,1890273740
3718,7,Jits_ISO_8,0,1,48,28,1890873656
3718,7,Jits_ISO_8,1,5,80,127,1891007736
3718,7,Jits_ISO_8,2,5,63,98,1891098096
3718,7,Jits_ISO_8,3,5,56,103,1891108292
3718,7,Jits_ISO_8,0,1,48,28,1891810508
3718,7,Jits_ISO_8,1,5,56,103,1891828064
3718,7,Jits_ISO_8,2,5,63,98,1891838188
3718,7,Jits_ISO_8,3,5,80,127,1891928452
3718,7,Jits_ISO_8,0,1,48,27,1892573348
3718,7,Jits_ISO_8,1,5,63,98,1892598252
3718,7,Jits_ISO_8,2,5,80,127,1892627852
3718,7,Jits_ISO_8,3,5,56,103,1892657452
3718,7,Jits_ISO_8,0,1,48,26,1893376580
3718,7,Jits_ISO_8,1,5,56,103,1893397956
3718,7,Jits_ISO_8,2,5,80,127,1893498192
3718,7,Jits_ISO_8,3,5,63,98,1893548316
3718,7,Jits_ISO_8,0,5,56,103,1894197820
3718,7,Jits_ISO_8,1,1,48,28,1894214568
3718,7,Jits_ISO_8,2,5,80,127,1894247868
3718,7,Jits_ISO_8,3,5,63,98,1894287880
3718,7,Jits_ISO_8,0,1,48,26,1894962664
3718,7,Jits_ISO_8,1,5,80,127,1895028176
3718,7,Jits_ISO_8,2,5,63,98,1895057632
3718,7,Jits_ISO_8,3,5,56,103,1895128440
3718,7,Jits_ISO_8,0,1,48,30,1895773684
3718,7,Jits_ISO_8,1,5,63,98,1895857484
3718,7,Jits_ISO_8,2,5,56,103,1895888216
3718,7,Jits_ISO_8,3,5,80,127,1895947636
3718,7,Jits_ISO_8,0,5,56,103,1896598084
3718,7,Jits_ISO_8,1,5,80,127,1896601152
3718,7,Jits_ISO_8,2,1,48,44,1896624048
3718,7,Jits_ISO_8,3,5,63,98,1896717828
3718,7,Jits_ISO_8,0,1,48,35,1897376644
3718,7,Jits_ISO_8,1,5,56,103,1897477452
3718,7,Jits_ISO_8,2,5,80,127,1897517464
3718,7,Jits_ISO_8,3,5,63,98,1897528032
3718,7,Jits_ISO_8,0,1,48,35,1898161440
3718,7,Jits_ISO_8,1,5,56,103,1898238364
3718,7,Jits_ISO_8,2,5,80,127,1898258060
3718,7,Jits_ISO_8,3,5,63,98,1898337780
3718,7,Jits_ISO_8,0,1,48,26,1898961476
3718,7,Jits_ISO_8,1,5,80,127,1899027736
3718,7,Jits_ISO_8,2,5,56,103,1899128124
3718,7,Jits_ISO_8,3,5,63,98,1899138320
3718,7,Jits_ISO_8,0,5,63,98,1899797864
3718,7,Jits_ISO_8,1,5,80,127,1899858256
3718,7,Jits_ISO_8,2,5,56,103,1899867480
3718,7,Jits_ISO_8,3,1,48,41,1899900264
3718,7,Jits_ISO_8,0,1,48,27,1900498784
3718,7,Jits_ISO_8,1,5,56,103,1900597548
3718,7,Jits_ISO_8,2,5,63,98,1900668204
3718,7,Jits_ISO_8,3,5,80,127,1900671788
3718,7,Jits_ISO_8,0,1,48,26,1901242260
3718,7,Jits_ISO_8,1,5,63,98,1901428112
3718,7,Jits_ISO_8,2,5,56,103,1901478240
3718,7,Jits_ISO_8,3,5,80,127,1901481532
3718,7,Jits_ISO_8,0,1,48,25,1902145520
3718,7,Jits_ISO_8,1,5,56,103,1902187816
3718,7,Jits_ISO_8,2,5,80,127,1902190884
3718,7,Jits_ISO_8,3,5,63,98,1902278032
3718,7,Jits_ISO_8,0,1,48,31,1902939160
3718,7,Jits_ISO_8,1,5,63,98,1903027668
3718,7,Jits_ISO_8,2,5,56,103,1903117668
3718,7,Jits_ISO_8,3,5,80,127,1903148540
3718,7,Jits_ISO_8,0,5,56,103,1903817976
3718,7,Jits_ISO_8,1,1,48,36,1903826424
3718,7,Jits_ISO_8,2,5,63,98,1903917696
3718,7,Jits_ISO_8,3,5,80,127,1903948028
3718,7,Jits_ISO_8,0,1,48,29,1904578188
3718,7,Jits_ISO_8,1,5,63,98,1904638672
3718,7,Jits_ISO_8,2,5,56,103,1904647528
3718,7,Jits_ISO_8,3,5,80,127,1904737644
3718,7,Jits_ISO_8,0,1,48,30,1905388912
3718,7,Jits_ISO_8,1,5,63,98,1905457720
3718,7,Jits_ISO_8,2,5,56,103,1905538696
3718,7,Jits_ISO_8,3,5,80,127,1905541764
3718,7,Jits_ISO_8,0,1,48,30,1906213336
3718,7,Jits_ISO_8,1,5,80,127,1906218608
3718,7,Jits_ISO_8,2,5,63,98,1906237800
3718,7,Jits_ISO_8,3,5,56,103,1906298188
3718,7,Jits_ISO_8,0,1,48,24,1906922308
3718,7,Jits_ISO_8,1,5,56,103,1907058016
3718,7,Jits_ISO_8,2,5,63,98,1907077724
3718,7,Jits_ISO_8,3,5,80,127,1907080936
3718,7,Jits_ISO_8,0,1,48,34,1907772212
3718,7,Jits_ISO_8,1,5,63,98,1907798612
3718,7,Jits_ISO_8,2,5,80,127,1907878472
3718,7,Jits_ISO_8,3,5,56,103,1907887620
3718,7,Jits_ISO_8,0,5,63,98,1908617588
3718,7,Jits_ISO_8,1,1,48,30,1908627532
3718,7,Jits_ISO_8,2,5,56,103,1908638040
3718,7,Jits_ISO_8,3,5,80,127,1908688488
3718,7,Jits_ISO_8,0,5,80,127,1909418636
3718,7,Jits_ISO_8,1,1,48,26,1909431352
3718,7,Jits_ISO_8,2,5,63,98,1909458372
3718,7,Jits_ISO_8,3,5,56,103,1909477712
3718,7,Jits_ISO_8,0,1,48,24,1910236420
3718,7,Jits_ISO_8,1,5,56,103,1910257940
3718,7,Jits_ISO_8,2,5,63,98,1910268512
3718,7,Jits_ISO_8,3,5,80,127,1910287700
3718,7,Jits_ISO_8,0,5,56,103,1910988352
3718,7,Jits_ISO_8,1,1,48,27,1911012824
3718,7,Jits_ISO_8,2,5,63,98,1911078332
3718,7,Jits_ISO_8,3,5,80,127,1911137588
3718,7,Jits_ISO_8,0,1,48,28,1911816472
3718,7,Jits_ISO_8,1,5,80,127,1911818344
3718,7,Jits_ISO_8,2,5,56,103,1911827792
3718,7,Jits_ISO_8,3,5,63,98,1911897400
3718,7,Jits_ISO_8,0,1,48,34,1912596004
3718,7,Jits_ISO_8,1,5,63,98,1912648020
3718,7,Jits_ISO_8,2,5,80,127,1912738292
3718,7,Jits_ISO_8,3,5,56,103,1912748336
3718,7,Jits_ISO_8,0,5,63,98,1913388328
3718,7,Jits_ISO_8,1,5,80,127,1913437484
3718,7,Jits_ISO_8,2,1,48,34,1913456644
3718,7,Jits_ISO_8,3,5,56,103,1913497868
3718,7,Jits_ISO_8,0,1,48,32,1914192640
3718,7,Jits_ISO_8,1,5,56,103,1914217848
3718,7,Jits_ISO_8,2,5,80,127,1914268128
3718,7,Jits_ISO_8,3,5,63,98,1914287540
3718,7,Jits_ISO_8,0,1,48,31,1914896760
3718,7,Jits_ISO_8,1,5,56,103,1914987812
3718,7,Jits_ISO_8,2,5,80,127,1915048340
3718,7,Jits_ISO_8,3,5,63,98,1915117896
3718,7,Jits_ISO_8,0,1,48,27,1915703120
3718,7,Jits_ISO_8,1,5,56,103,1915787596
3718,7,Jits_ISO_8,2,5,80,127,1915818380
3718,7,Jits_ISO_8,3,5,63,98,1915848004
3718,7,Jits_ISO_8,0,1,48,34,1916504696
3718,7,Jits_ISO_8,1,5,56,103,1916628440
3718,7,Jits_ISO_8,2,5,80,127,1916647704
3718,7,Jits_ISO_8,3,5,63,98,1916708092
3718,7,Jits_ISO_8,0,1,48,32,1917360680
3718,7,Jits_ISO_8,1,5,80,127,1917508168
3718,7,Jits_ISO_8,2,5,56,103,1917518292
3718,7,Jits_ISO_8,3,5,63,98,1917528564
3718,7,Jits_ISO_8,0,1,48,26,1918222984
3718,7,Jits_ISO_8,1,5,56,103,1918267744
3718,7,Jits_ISO_8,2,5,80,127,1918307760
3718,7,Jits_ISO_8,3,5,63,98,1918338320
3718,7,Jits_ISO_8,0,1,48,29,1919004340
3718,7,Jits_ISO_8,1,5,56,103,1919037940
3718,7,Jits_ISO_8,2,5,63,98,1919067396
3718,7,Jits_ISO_8,3,5,80,127,1919107392
3718,7,Jits_ISO_8,0,1,48,34,1919763368
3718,7,Jits_ISO_8,1,5,80,127,1919788424
3718,7,Jits_ISO_8,2,5,63,98,1919837508
3718,7,Jits_ISO_8,3,5,56,103,1919858100
3718,7,Jits_ISO_8,0,1,48,35,1920564648
3718,7,Jits_ISO_8,1,5,56,103,1920617876
3718,7,Jits_ISO_8,2,5,80,127,1920687324
3718,7,Jits_ISO_8,3,5,63,98,1920748112
3718,7,Jits_ISO_8,0,5,80,127,1921417596
3718,7,Jits_ISO_8,1,1,48,33,1921429784
3718,7,Jits_ISO_8,2,5,63,98,1921507824
3718,7,Jits_ISO_8,3,5,56,103,1921528568
3718,7,Jits_ISO_8,0,1,48,34,1922213540
3718,7,Jits_ISO_8,1,5,63,98,1922238096
3718,7,Jits_ISO_8,2,5,56,103,1922258256
3718,7,Jits_ISO_8,3,5,80,127,1922298196
3718,7,Jits_ISO_8,0,5,80,127,1922997704
3718,7,Jits_ISO_8,1,1,48,38,1922998668
3718,7,Jits_ISO_8,2,5,63,98,1923018180
3718,7,Jits_ISO_8,3,5,56,103,1923097960
3718,7,Jits_ISO_8,0,5,63,98,1923788084
3718,7,Jits_ISO_8,1,1,48,35,1923823864
3718,7,Jits_ISO_8,2,5,56,103,1923897912
3718,7,Jits_ISO_8,3,5,80,127,1923900980
3718,7,Jits_ISO_8,0,5,63,98,1924608312
3718,7,Jits_ISO_8,1,1,48,32,1924614792
3718,7,Jits_ISO_8,2,5,56,103,1924617528
3718,7,Jits_ISO_8,3,5,80,127,1924620668
3718,7,Jits_ISO_8,0,1,48,35,1925386492
3718,7,Jits_ISO_8,1,5,56,103,1925388284
3718,7,Jits_ISO_8,2,5,80,127,1925507484
3718,7,Jits_ISO_8,3,5,63,98,1925548392
3718,7,Jits_ISO_8,0,1,48,31,1926191120
3718,7,Jits_ISO_8,1,5,56,103,1926207780
3718,7,Jits_ISO_8,2,5,80,127,1926288836
3718,7,Jits_ISO_8,3,5,63,98,1926308172
3718,7,Jits_ISO_8,0,5,56,103,1927007868
3718,7,Jits_ISO_8,1,1,48,36,1927010392
3718,7,Jits_ISO_8,2,5,63,98,1927118160
3718,7,Jits_ISO_8,3,5,80,127,1927121820
3718,7,Jits_ISO_8,0,1,48,28,1927720040
3718,7,Jits_ISO_8,1,5,56,103,1927838056
3718,7,Jits_ISO_8,2,5,80,127,1927867736
3718,7,Jits_ISO_8,3,5,63,98,1927888268
3718,7,Jits_ISO_8,0,1,48,29,1928501440
3718,7,Jits_ISO_8,1,5,63,98,1928618260
3718,7,Jits_ISO_8,2,5,56,103,1928627780
3718,7,Jits_ISO_8,3,5,80,127,1928637780
3718,7,Jits_ISO_8,0,1,48,30,1929352836
3718,7,Jits_ISO_8,1,5,80,127,1929407960
3718,7,Jits_ISO_8,2,5,56,103,1929458000
3718,7,Jits_ISO_8,3,5,63,98,1929498016
3718,7,Jits_ISO_8,0,1,48,32,1930203668
3718,7,Jits_ISO_8,1,5,80,127,1930228048
3718,7,Jits_ISO_8,2,5,63,98,1930247464
3718,7,Jits_ISO_8,3,5,56,103,1930297796
3718,7,Jits_ISO_8,0,5,80,127,1931038028
3718,7,Jits_ISO_8,1,1,48,32,1931052088
3718,7,Jits_ISO_8,2,5,56,103,1931067700
3718,7,Jits_ISO_8,3,5,63,98,1931138648
3718,7,Jits_ISO_8,0,1,48,30,1931828660
3718,7,Jits_ISO_8,1,5,56,103,1931887948
3718,7,Jits_ISO_8,2,5,80,127,1931898668
3718,7,Jits_ISO_8,3,5,63,98,1931938144
3718,7,Jits_ISO_8,0,5,56,103,1932597688
3718,7,Jits_ISO_8,1,5,63,98,1932618000
3718,7,Jits_ISO_8,2,1,48,24,1932643444
3718,7,Jits_ISO_8,3,5,80,127,1932687824
3718,7,Jits_ISO_8,0,1,48,29,1933344616
3718,7,Jits_ISO_8,1,5,63,98,1933417856
3718,7,Jits_ISO_8,2,5,80,127,1933478604
3718,7,Jits_ISO_8,3,5,56,103,1933497720
3718,7,Jits_ISO_8,0,1,48,31,1934198208
3718,7,Jits_ISO_8,1,5,80,127,1934208420
3718,7,Jits_ISO_8,2,5,56,103,1934238024
3718,7,Jits_ISO_8,3,5,63,98,1934267700
3718,7,Jits_ISO_8,0,1,48,38,1934971136
3718,7,Jits_ISO_8,1,5,56,103,1935008028
3718,7,Jits_ISO_8,2,5,63,98,1935068128
3718,7,Jits_ISO_8,3,5,80,127,1935127848
3718,7,Jits_ISO_8,0,1,48,36,1935742596
3718,7,Jits_ISO_8,1,5,80,127,1935828588
3718,7,Jits_ISO_8,2,5,56,103,1935847764
3718,7,Jits_ISO_8,3,5,63,98,1935917372
3718,7,Jits_ISO_8,0,1,48,36,1936625720
3718,7,Jits_ISO_8,1,5,80,127,1936628152
3718,7,Jits_ISO_8,2,5,63,98,1936647640
3718,7,Jits_ISO_8,3,5,56,103,1936678360
3718,7,Jits_ISO_8,0,1,48,40,1937398612
3718,7,Jits_ISO_8,1,5,80,127,1937417524
3718,7,Jits_ISO_8,2,5,63,98,1937438204
3718,7,Jits_ISO_8,3,5,56,103,1937497384
3718,7,Jits_ISO_8,0,5,80,127,1938218360
3718,7,Jits_ISO_8,1,1,48,34,1938220880
3718,7,Jits_ISO_8,2,5,56,103,1938317616
3718,7,Jits_ISO_8,3,5,63,98,1938348264
3718,7,Jits_ISO_8,0,5,63,98,1939007824
3718,7,Jits_ISO_8,1,1,48,31,1939027656
3718,7,Jits_ISO_8,2,5,80,127,1939058320
3718,7,Jits_ISO_8,3,5,56,103,1939077436
3718,7,Jits_ISO_8,0,1,48,37,1939769592
3718,7,Jits_ISO_8,1,5,80,127,1939847612
3718,7,Jits_ISO_8,2,5,56,103,1939878164
3718,7,Jits_ISO_8,3,5,63,98,1939881312
3718,7,Jits_ISO_8,0,1,48,37,1940593632
3718,7,Jits_ISO_8,1,5,63,98,1940678428
3718,7,Jits_ISO_8,2,5,56,103,1940718280
3718,7,Jits_ISO_8,3,5,80,127,1940738292
3718,7,Jits_ISO_8,0,1,48,38,1941384132
3718,7,Jits_ISO_8,1,5,80,127,1941418256
3718,7,Jits_ISO_8,2,5,63,98,1941498288
3718,7,Jits_ISO_8,3,5,56,103,1941538152
3718,7,Jits_ISO_8,0,1,48,35,1942229060
3718,7,Jits_ISO_8,1,5,63,98,1942237476
3718,7,Jits_ISO_8,2,5,80,127,1942317348
3718,7,Jits_ISO_8,3,5,56,103,1942338016
3718,7,Jits_ISO_8,0,1,48,35,1943063756
3718,7,Jits_ISO_8,1,5,56,103,1943078248
3718,7,Jits_ISO_8,2,5,63,98,1943087396
3718,7,Jits_ISO_8,3,5,80,127,1943128304
3718,7,Jits_ISO_8,0,5,56,103,1943798320
3718,7,Jits_ISO_8,1,5,80,127,1943801236
3718,7,Jits_ISO_8,2,1,48,30,1943876364
3718,7,Jits_ISO_8,3,5,63,98,1943938340
3718,7,Jits_ISO_8,0,1,48,32,1944563832
3718,7,Jits_ISO_8,1,5,56,103,1944587612
3718,7,Jits_ISO_8,2,5,63,98,1944677884
3718,7,Jits_ISO_8,3,5,80,127,1944748312
3718,7,Jits_ISO_8,0,1,48,36,1945341440
3718,7,Jits_ISO_8,1,5,63,98,1945468224
3718,7,Jits_ISO_8,2,5,80,127,1945471812
3718,7,Jits_ISO_8,3,5,56,103,1945527716
3718,7,Jits_ISO_8,0,1,48,30,1946166556
3718,7,Jits_ISO_8,1,5,80,127,1946308192
3718,7,Jits_ISO_8,2,5,56,103,1946328356
3718,7,Jits_ISO_8,3,5,63,98,1946337576
3718,7,Jits_ISO_8,0,1,48,27,1947014808
3718,7,Jits_ISO_8,1,5,56,103,1947017468
3718,7,Jits_ISO_8,2,5,63,98,1947028112
3718,7,Jits_ISO_8,3,5,80,127,1947097448
3718,7,Jits_ISO_8,0,1,48,29,1947704752
3718,7,Jits_ISO_8,1,5,80,127,1947818284
3718,7,Jits_ISO_8,2,5,56,103,1947867540
3718,7,Jits_ISO_8,3,5,63,98,1947917664
3718,7,Jits_ISO_8,0,1,48,26,1948580068
3718,7,Jits_ISO_8,1,5,56,103,1948697888
3718,7,Jits_ISO_8,2,5,63,98,1948708084
3718,7,Jits_ISO_8,3,5,80,127,1948748020
3718,7,Jits_ISO_8,0,1,48,27,1949418100
3718,7,Jits_ISO_8,1,5,56,103,1949438424
3718,7,Jits_ISO_8,2,5,63,98,1949478292
3718,7,Jits_ISO_8,3,5,80,127,1949528404
3718,7,Jits_ISO_8,0,1,48,40,1950179600
3718,7,Jits_ISO_8,1,5,80,127,1950197980
3718,7,Jits_ISO_8,2,5,56,103,1950248260
3718,7,Jits_ISO_8,3,5,63,98,1950267896
3718,7,Jits_ISO_8,0,1,48,43,1950975696
3718,7,Jits_ISO_8,1,5,80,127,1951008252
3718,7,Jits_ISO_8,2,5,63,98,1951067820
3718,7,Jits_ISO_8,3,5,56,103,1951148424
3718,7,Jits_ISO_8,0,5,80,127,1951788492
3718,7,Jits_ISO_8,1,1,48,35,1951826164
3718,7,Jits_ISO_8,2,5,56,103,1951828276
3718,7,Jits_ISO_8,3,5,63,98,1951847764
3718,7,Jits_ISO_8,0,1,48,39,1952560308
3718,7,Jits_ISO_8,1,5,56,103,1952638252
3718,7,Jits_ISO_8,2,5,80,127,1952647480
3718,7,Jits_ISO_8,3,5,63,98,1952687404
3718,7,Jits_ISO_8,0,1,48,34,1953377852
3718,7,Jits_ISO_8,1,5,56,103,1953507656
3718,7,Jits_ISO_8,2,5,63,98,1953547892
3718,7,Jits_ISO_8,3,5,80,127,1953551032
3718,7,Jits_ISO_8,0,5,63,98,1954197972
3718,7,Jits_ISO_8,1,5,80,127,1954237936
3718,7,Jits_ISO_8,2,1,48,35,1954303904
3718,7,Jits_ISO_8,3,5,56,103,1954307608
3718,7,Jits_ISO_8,0,1,48,37,1954956520
3718,7,Jits_ISO_8,1,5,63,98,1954988676
3718,7,Jits_ISO_8,2,5,56,103,1955068188
3718,7,Jits_ISO_8,3,5,80,127,1955127828
3718,7,Jits_ISO_8,0,1,48,39,1955731720
3718,7,Jits_ISO_8,1,5,80,127,1955798456
3718,7,Jits_ISO_8,2,5,63,98,1955847744
3718,7,Jits_ISO_8,3,5,56,103,1955878244
3718,7,Jits_ISO_8,0,1,48,38,1956539920
3718,7,Jits_ISO_8,1,5,56,103,1956587972
3718,7,Jits_ISO_8,2,5,63,98,1956638012
3718,7,Jits_ISO_8,3,5,80,127,1956648360
3718,7,Jits_ISO_8,0,1,48,36,1957302660
3718,7,Jits_ISO_8,1,5,56,103,1957397928
3718,7,Jits_ISO_8,2,5,63,98,1957507396
3718,7,Jits_ISO_8,3,5,80,127,1957527932
3718,7,Jits_ISO_8,0,1,48,40,1958139264
3718,7,Jits_ISO_8,1,5,63,98,1958197656
3718,7,Jits_ISO_8,2,5,80,127,1958247920
3718,7,Jits_ISO_8,3,5,56,103,1958337856
3718,7,Jits_ISO_8,0,5,63,98,1958988236
3718,7,Jits_ISO_8,1,1,48,36,1959012780
3718,7,Jits_ISO_8,2,5,80,127,1959017832
3718,7,Jits_ISO_8,3,5,56,103,1959108060
3718,7,Jits_ISO_8,0,5,63,98,1959787944
3718,7,Jits_ISO_8,1,5,56,103,1959798288
3718,7,Jits_ISO_8,2,1,48,35,1959829424
3718,7,Jits_ISO_8,3,5,80,127,1959897652
3718,7,Jits_ISO_8,0,1,48,27,1960549924
3718,7,Jits_ISO_8,1,5,63,98,1960687900
3718,7,Jits_ISO_8,2,5,80,127,1960717652
3718,7,Jits_ISO_8,3,5,56,103,1960748520
3718,7,Jits_ISO_8,0,1,48,32,1961406168
3718,7,Jits_ISO_8,1,5,80,127,1961508148
3718,7,Jits_ISO_8,2,5,63,98,1961517668
3718,7,Jits_ISO_8,3,5,56,103,1961548092
3718,7,Jits_ISO_8,0,5,80,127,1962207564
3718,7,Jits_ISO_8,1,5,63,98,1962228172
3718,7,Jits_ISO_8,2,1,48,29,1962262684
3718,7,Jits_ISO_8,3,5,56,103,1962278368
3718,7,Jits_ISO_8,0,1,48,44,1963010548
3718,7,Jits_ISO_8,1,5,63,98,1963038000
3718,7,Jits_ISO_8,2,5,80,127,1963097420
3718,7,Jits_ISO_8,3,5,56,103,1963117788
3718,7,Jits_ISO_8,0,1,48,40,1963747704
3718,7,Jits_ISO_8,1,1,48,30,1963794052
3718,7,Jits_ISO_8,2,5,63,98,1963797756
3718,7,Jits_ISO_8,3,5,56,103,1963848108
3718,7,Jits_ISO_8,4,5,80,127,1963858380
3718,7,Jits_ISO_8,0,1,48,46,1964580592
3718,7,Jits_ISO_8,1,5,56,103,1964628276
3718,7,Jits_ISO_8,2,5,80,127,1964637576
3718,7,Jits_ISO_8,3,5,63,98,1964737904
3718,7,Jits_ISO_8,0,5,80,127,1965388432
3718,7,Jits_ISO_8,1,5,63,98,1965398556
3718,7,Jits_ISO_8,2,1,48,46,1965438388
3718,7,Jits_ISO_8,3,5,56,103,1965547876
3718,7,Jits_ISO_8,0,5,63,98,1966198196
3718,7,Jits_ISO_8,1,1,48,44,1966209784
3718,7,Jits_ISO_8,2,5,80,127,1966238204
3718,7,Jits_ISO_8,3,5,56,103,1966317788
3718,7,Jits_ISO_8,0,5,56,103,1966987492
3718,7,Jits_ISO_8,1,1,48,40,1967053636
3718,7,Jits_ISO_8,2,5,80,127,1967087908
3718,7,Jits_ISO_8,3,5,63,98,1967107544
3718,7,Jits_ISO_8,0,1,48,38,1967731280
3718,7,Jits_ISO_8,1,5,80,127,1967847756
3718,7,Jits_ISO_8,2,5,56,103,1967858324
3718,7,Jits_ISO_8,3,5,63,98,1967948232
3718,7,Jits_ISO_8,0,1,48,52,1968624144
3718,7,Jits_ISO_8,1,5,56,103,1968647556
3718,7,Jits_ISO_8,2,5,63,98,1968668164
3718,7,Jits_ISO_8,3,5,80,127,1968747868
3718,7,Jits_ISO_8,0,5,63,98,1969398272
3718,7,Jits_ISO_8,1,1,48,46,1969461480
3718,7,Jits_ISO_8,2,5,56,103,1969488252
3718,7,Jits_ISO_8,3,5,80,127,1969491316
3718,7,Jits_ISO_8,0,5,56,103,1970227640
3718,7,Jits_ISO_8,1,1,48,32,1970280884
3718,7,Jits_ISO_8,2,5,80,127,1970288028
3718,7,Jits_ISO_8,3,5,63,98,1970298148
3718,7,Jits_ISO_8,0,1,48,32,1971023056
3718,7,Jits_ISO_8,1,5,80,127,1971077408
3718,7,Jits_ISO_8,2,5,56,103,1971087676
3718,7,Jits_ISO_8,3,5,63,98,1971090968
3718,7,Jits_ISO_8,0,1,48,32,1971773832
3718,7,Jits_ISO_8,1,5,56,103,1971838448
3718,7,Jits_ISO_8,2,5,80,127,1971847596
3718,7,Jits_ISO_8,3,5,63,98,1971868792
3718,7,Jits_ISO_8,0,1,48,48,1972571892
3718,7,Jits_ISO_8,1,5,63,98,1972608484
3718,7,Jits_ISO_8,2,5,80,127,1972668004
3718,7,Jits_ISO_8,3,5,56,103,1972717968
3718,7,Jits_ISO_8,0,1,48,43,1973414984
3718,7,Jits_ISO_8,1,5,63,98,1973487940
3718,7,Jits_ISO_8,2,5,56,103,1973498212
3718,7,Jits_ISO_8,3,5,80,127,1973548400
3718,7,Jits_ISO_8,0,5,63,98,1974188364
3718,7,Jits_ISO_8,1,5,80,127,1974208024
3718,7,Jits_ISO_8,2,5,56,103,1974218220
3718,7,Jits_ISO_8,3,1,48,46,1974295048
3718,7,Jits_ISO_8,0,1,48,44,1974858188
3718,7,Jits_ISO_8,1,5,63,98,1974988060
3718,7,Jits_ISO_8,2,5,80,127,1974991428
3718,7,Jits_ISO_8,3,5,56,103,1975028152
3718,7,Jits_ISO_8,0,1,48,35,1975695324
3718,7,Jits_ISO_8,1,5,63,98,1975857588
3718,7,Jits_ISO_8,2,5,80,127,1975888308
3718,7,Jits_ISO_8,3,5,56,103,1975897384
3718,7,Jits_ISO_8,0,1,48,43,1976581008
3718,7,Jits_ISO_8,1,5,56,103,1976608160
3718,7,Jits_ISO_8,2,5,80,127,1976637912
3718,7,Jits_ISO_8,3,5,63,98,1976667364
3718,7,Jits_ISO_8,0,1,48,43,1977331336
3718,7,Jits_ISO_8,1,5,63,98,1977508248
3718,7,Jits_ISO_8,2,5,56,103,1977548136
3718,7,Jits_ISO_8,3,5,80,127,1977551200
3718,7,Jits_ISO_8,0,5,80,127,1978207656
3718,7,Jits_ISO_8,1,1,48,46,1978243364
3718,7,Jits_ISO_8,2,5,56,103,1978287376
3718,7,Jits_ISO_8,3,5,63,98,1978337896
3718,7,Jits_ISO_8,0,5,80,127,1978987752
3718,7,Jits_ISO_8,1,5,56,103,1979008736
3718,7,Jits_ISO_8,2,1,48,45,1979037484
3718,7,Jits_ISO_8,3,5,63,98,1979097316
3718,7,Jits_ISO_8,0,1,48,48,1979772672
3718,7,Jits_ISO_8,1,5,80,127,1979827772
3718,7,Jits_ISO_8,2,5,63,98,1979867724
3718,7,Jits_ISO_8,3,5,56,103,1979907292
3718,7,Jits_ISO_8,0,5,63,98,1980597672
3718,7,Jits_ISO_8,1,1,48,53,1980608088
3718,7,Jits_ISO_8,2,5,80,127,1980658008
3718,7,Jits_ISO_8,3,5,56,103,1980687760
3718,7,Jits_ISO_8,0,1,48,44,1981380360
3718,7,Jits_ISO_8,1,5,56,103,1981398596
3718,7,Jits_ISO_8,2,5,80,127,1981427976
3718,7,Jits_ISO_8,3,5,63,98,1981518240
3718,7,Jits_ISO_8,0,1,48,34,1982172352
3718,7,Jits_ISO_8,1,5,56,103,1982208716
3718,7,Jits_ISO_8,2,5,80,127,1982318024
3718,7,Jits_ISO_8,3,5,63,98,1982347844
3718,7,Jits_ISO_8,0,1,48,35,1982979564
3718,7,Jits_ISO_8,1,5,56,103,1983058408
3718,7,Jits_ISO_8,2,5,63,98,1983117664
3718,7,Jits_ISO_8,3,5,80,127,1983148608
3718,7,Jits_ISO_8,0,1,48,43,1983812240
3718,7,Jits_ISO_8,1,5,56,103,1983828376
3718,7,Jits_ISO_8,2,5,63,98,1983897836
3718,7,Jits_ISO_8,3,5,80,127,1983917832
3718,7,Jits_ISO_8,0,5,80,127,1984598428
3718,7,Jits_ISO_8,1,1,48,47,1984615248
3718,7,Jits_ISO_8,2,5,63,98,1984617832
3718,7,Jits_ISO_8,3,5,56,103,1984667960
3718,7,Jits_ISO_8,0,9999,9999,9999,1889865780
3718,7,Jits_ISO_8,1,9999,9999,9999,1890665536
3718,7,Jits_ISO_8,2,9999,9999,9999,1891465320
3718,7,Jits_ISO_8,3,9999,9999,9999,1892266076
3718,7,Jits_ISO_8,4,9999,9999,9999,1893065804
3718,7,Jits_ISO_8,5,9999,9999,9999,1893865592
3718,7,Jits_ISO_8,6,9999,9999,9999,1894665296
3718,7,Jits_ISO_8,7,9999,9999,9999,1895466064
3718,7,Jits_ISO_8,8,9999,9999,9999,1896265780
3718,7,Jits_ISO_8,9,9999,9999,9999,1897065552
3718,7,Jits_ISO_8,10,9999,9999,9999,1897865284
3718,7,Jits_ISO_8,11,9999,9999,9999,1898666040
3718,7,Jits_ISO_8,12,9999,9999,9999,1899465780
3718,7,Jits_ISO_8,13,9999,9999,9999,1900265560
3718,7,Jits_ISO_8,14,9999,9999,9999,1901065332
3718,7,Jits_ISO_8,15,9999,9999,9999,1901866084
3718,7,Jits_ISO_8,16,9999,9999,9999,1902665848
3718,7,Jits_ISO_8,17,9999,9999,9999,1903465564
3718,7,Jits_ISO_8,18,9999,9999,9999,1904265276
3718,7,Jits_ISO_8,19,9999,9999,9999,1905066052
3718,7,Jits_ISO_8,20,9999,9999,9999,1905865784
3718,7,Jits_ISO_8,21,9999,9999,9999,1906665564
3718,7,Jits_ISO_8,22,9999,9999,9999,1907465340
3718,7,Jits_ISO_8,23,9999,9999,9999,1908266096
3718,7,Jits_ISO_8,24,9999,9999,9999,1909065804
3718,7,Jits_ISO_8,25,9999,9999,9999,1909865588
3718,7,Jits_ISO_8,26,9999,9999,9999,1910665312
3718,7,Jits_ISO_8,27,9999,9999,9999,1911466072
3718,7,Jits_ISO_8,28,9999,9999,9999,1912265820
3718,7,Jits_ISO_8,29,9999,9999,9999,1913065536
3718,7,Jits_ISO_8,30,9999,9999,9999,1913865316
3718,7,Jits_ISO_8,31,9999,9999,9999,1914666076
3718,7,Jits_ISO_8,32,9999,9999,9999,1915465784
3718,7,Jits_ISO_8,33,9999,9999,9999,1916265560
3718,7,Jits_ISO_8,34,9999,9999,9999,1917065268
3718,7,Jits_ISO_8,35,9999,9999,9999,1917866036
3718,7,Jits_ISO_8,36,9999,9999,9999,1918665780
3718,7,Jits_ISO_8,37,9999,9999,9999,1919465564
3718,7,Jits_ISO_8,38,9999,9999,9999,1920265272
3718,7,Jits_ISO_8,39,9999,9999,9999,1921066108
3718,7,Jits_ISO_8,40,9999,9999,9999,1921865820
3718,7,Jits_ISO_8,41,9999,9999,9999,1922665548
3718,7,Jits_ISO_8,42,9999,9999,9999,1923465328
3718,7,Jits_ISO_8,43,9999,9999,9999,1924266088
3718,7,Jits_ISO_8,44,9999,9999,9999,1925065804
3718,7,Jits_ISO_8,45,9999,9999,9999,1925865592
3718,7,Jits_ISO_8,46,9999,9999,9999,1926665296
3718,7,Jits_ISO_8,47,9999,9999,9999,1927466048
3718,7,Jits_ISO_8,48,9999,9999,9999,1928265820
3718,7,Jits_ISO_8,49,9999,9999,9999,1929065524
3718,7,Jits_ISO_8,50,9999,9999,9999,1929865304
3718,7,Jits_ISO_8,51,9999,9999,9999,1930666060
3718,7,Jits_ISO_8,52,9999,9999,9999,1931465800
3718,7,Jits_ISO_8,53,9999,9999,9999,1932265532
3718,7,Jits_ISO_8,54,9999,9999,9999,1933065312
3718,7,Jits_ISO_8,55,9999,9999,9999,1933866084
3718,7,Jits_ISO_8,56,9999,9999,9999,1934665836
3718,7,Jits_ISO_8,57,9999,9999,9999,1935465548
3718,7,Jits_ISO_8,58,9999,9999,9999,1936265332
3718,7,Jits_ISO_8,59,9999,9999,9999,1937066088
3718,7,Jits_ISO_8,60,9999,9999,9999,1937865820
3718,7,Jits_ISO_8,61,9999,9999,9999,1938665536
3718,7,Jits_ISO_8,62,9999,9999,9999,1939465336
3718,7,Jits_ISO_8,63,9999,9999,9999,1940266084
3718,7,Jits_ISO_8,64,9999,9999,9999,1941065800
3718,7,Jits_ISO_8,65,9999,9999,9999,1941865588
3718,7,Jits_ISO_8,66,9999,9999,9999,1942665300
3718,7,Jits_ISO_8,67,9999,9999,9999,1943466064
3718,7,Jits_ISO_8,68,9999,9999,9999,1944265788
3718,7,Jits_ISO_8,69,9999,9999,9999,1945065584
3718,7,Jits_ISO_8,70,9999,9999,9999,1945865292
3718,7,Jits_ISO_8,71,9999,9999,9999,1946666060
3718,7,Jits_ISO_8,72,9999,9999,9999,1947465844
3718,7,Jits_ISO_8,73,9999,9999,9999,1948265552
3718,7,Jits_ISO_8,74,9999,9999,9999,1949065268
3718,7,Jits_ISO_8,75,9999,9999,9999,1949866100
3718,7,Jits_ISO_8,76,9999,9999,9999,1950665836
3718,7,Jits_ISO_8,77,9999,9999,9999,1951465548
3718,7,Jits_ISO_8,78,9999,9999,9999,1952265332
3718,7,Jits_ISO_8,79,9999,9999,9999,1953066100
3718,7,Jits_ISO_8,80,9999,9999,9999,1953865812
3718,7,Jits_ISO_8,81,9999,9999,9999,1954665592
3718,7,Jits_ISO_8,82,9999,9999,9999,1955465304
3718,7,Jits_ISO_8,83,9999,9999,9999,1956266060
3718,7,Jits_ISO_8,84,9999,9999,9999,1957065792
3718,7,Jits_ISO_8,85,9999,9999,9999,1957865580
3718,7,Jits_ISO_8,86,9999,9999,9999,1958665292
3718,7,Jits_ISO_8,87,9999,9999,9999,1959466048
3718,7,Jits_ISO_8,88,9999,9999,9999,1960265828
3718,7,Jits_ISO_8,89,9999,9999,9999,1961065544
3718,7,Jits_ISO_8,90,9999,9999,9999,1961865268
3718,7,Jits_ISO_8,91,9999,9999,9999,1962666096
3718,7,Jits_ISO_8,92,9999,9999,9999,1963465848
3718,7,Jits_ISO_8,93,9999,9999,9999,1964265536
3718,7,Jits_ISO_8,94,9999,9999,9999,1965065268
3718,7,Jits_ISO_8,95,9999,9999,9999,1965866096
3718,7,Jits_ISO_8,96,9999,9999,9999,1966665820
3718,7,Jits_ISO_8,97,9999,9999,9999,1967465528
3718,7,Jits_ISO_8,98,9999,9999,9999,1968265332
3718,7,Jits_ISO_8,99,9999,9999,9999,1969066088
3718,7,Jits_ISO_8,100,9999,9999,9999,1969865812
3718,7,Jits_ISO_8,101,9999,9999,9999,1970665524
3718,7,Jits_ISO_8,102,9999,9999,9999,1971465312
3718,7,Jits_ISO_8,103,9999,9999,9999,1972266068
3718,7,Jits_ISO_8,104,9999,9999,9999,1973065780
3718,7,Jits_ISO_8,105,9999,9999,9999,1973865572
3718,7,Jits_ISO_8,106,9999,9999,9999,1974665272
3718,7,Jits_ISO_8,107,9999,9999,9999,1975466084
3718,7,Jits_ISO_8,108,9999,9999,9999,1976265820
3718,7,Jits_ISO_8,109,9999,9999,9999,1977065528
3718,7,Jits_ISO_8,110,9999,9999,9999,1977865308
3718,7,Jits_ISO_8,111,9999,9999,9999,1978666068
3718,7,Jits_ISO_8,112,9999,9999,9999,1979465788
3718,7,Jits_ISO_8,113,9999,9999,9999,1980265588
3718,7,Jits_ISO_8,114,9999,9999,9999,1981065296
3718,7,Jits_ISO_8,115,9999,9999,9999,1981866052
3718,7,Jits_ISO_8,116,9999,9999,9999,1982665792
3718,7,Jits_ISO_8,117,9999,9999,9999,1983465584
3718,7,Jits_ISO_8,118,9999,9999,9999,1984265296
3718,7,Jits_ISO_8,119,9999,9999,9999,1985066048
3719,16,Jits_ISO_5,0,5,56,103,1995038332
3719,16,Jits_ISO_5,1,5,63,98,1995041432
3719,16,Jits_ISO_5,2,5,80,127,1995044552
3719,16,Jits_ISO_5,0,5,56,103,1995537756
3719,16,Jits_ISO_5,1,5,63,98,1995540928
3719,16,Jits_ISO_5,2,5,80,127,1995544200
3719,16,Jits_ISO_5,3,1,48,43,1995642612
3719,16,Jits_ISO_5,0,1,48,38,1995948888
3719,16,Jits_ISO_5,1,5,56,103,1996037496
3719,16,Jits_ISO_5,2,5,80,127,1996047680
3719,16,Jits_ISO_5,3,5,63,98,1996068360
3719,16,Jits_ISO_5,0,1,48,42,1996465176
3719,16,Jits_ISO_5,1,5,63,98,1996488084
3719,16,Jits_ISO_5,2,5,80,127,1996517608
3719,16,Jits_ISO_5,3,5,56,103,1996528176
3719,16,Jits_ISO_5,0,1,48,41,1996944004
3719,16,Jits_ISO_5,1,5,80,127,1997048112
3719,16,Jits_ISO_5,2,5,56,103,1997058304
3719,16,Jits_ISO_5,3,5,63,98,1997088052
3719,16,Jits_ISO_5,0,1,48,39,1997506112
3719,16,Jits_ISO_5,1,5,63,98,1997537600
3719,16,Jits_ISO_5,2,5,56,103,1997568320
3719,16,Jits_ISO_5,3,5,80,127,1997577620
3719,16,Jits_ISO_5,0,1,48,40,1997979076
3719,16,Jits_ISO_5,1,5,56,103,1997988088
3719,16,Jits_ISO_5,2,5,63,98,1998038240
3719,16,Jits_ISO_5,3,5,80,127,1998057952
3719,16,Jits_ISO_5,0,1,48,43,1998461864
3719,16,Jits_ISO_5,1,5,80,127,1998488044
3719,16,Jits_ISO_5,2,5,63,98,1998538120
3719,16,Jits_ISO_5,3,5,56,103,1998578116
3719,16,Jits_ISO_5,0,1,48,44,1998965344
3719,16,Jits_ISO_5,1,5,56,103,1998987556
3719,16,Jits_ISO_5,2,5,63,98,1999018280
3719,16,Jits_ISO_5,3,5,80,127,1999088040
3719,16,Jits_ISO_5,0,1,48,44,1999458348
3719,16,Jits_ISO_5,1,5,56,103,1999488336
3719,16,Jits_ISO_5,2,5,80,127,1999548004
3719,16,Jits_ISO_5,3,5,63,98,1999577364
3719,16,Jits_ISO_5,0,1,48,46,1999983540
3719,16,Jits_ISO_5,1,5,56,103,1999998260
3719,16,Jits_ISO_5,2,5,63,98,2000007484
3719,16,Jits_ISO_5,3,5,80,127,2000047420
3719,16,Jits_ISO_5,0,1,48,35,2000478640
3719,16,Jits_ISO_5,1,5,63,98,2000488028
3719,16,Jits_ISO_5,2,5,80,127,2000567548
3719,16,Jits_ISO_5,3,5,56,103,2000577952
3719,16,Jits_ISO_5,0,1,48,36,2000970056
3719,16,Jits_ISO_5,1,5,63,98,2001037884
3719,16,Jits_ISO_5,2,5,56,103,2001077580
3719,16,Jits_ISO_5,3,5,80,127,2001080820
3719,16,Jits_ISO_5,0,1,48,34,2001474572
3719,16,Jits_ISO_5,1,5,56,103,2001497528
3719,16,Jits_ISO_5,2,5,63,98,2001507800
3719,16,Jits_ISO_5,3,5,80,127,2001547664
3719,16,Jits_ISO_5,0,1,48,36,2001950404
3719,16,Jits_ISO_5,1,5,56,103,2001988040
3719,16,Jits_ISO_5,2,5,63,98,2001991108
3719,16,Jits_ISO_5,3,5,80,127,2002008576
3719,16,Jits_ISO_5,0,1,48,40,2002429300
3719,16,Jits_ISO_5,1,5,80,127,2002498024
3719,16,Jits_ISO_5,2,5,56,103,2002508072
3719,16,Jits_ISO_5,3,5,63,98,2002577956
3719,16,Jits_ISO_5,0,1,48,43,2002981768
3719,16,Jits_ISO_5,1,5,63,98,2002988396
3719,16,Jits_ISO_5,2,5,56,103,2003007956
3719,16,Jits_ISO_5,3,5,80,127,2003087728
3719,16,Jits_ISO_5,0,1,48,42,2003501732
3719,16,Jits_ISO_5,1,5,56,103,2003507528
3719,16,Jits_ISO_5,2,5,80,127,2003547692
3719,16,Jits_ISO_5,3,5,63,98,2003558036
3719,16,Jits_ISO_5,0,5,80,127,2003998052
3719,16,Jits_ISO_5,1,1,48,37,2004015568
3719,16,Jits_ISO_5,2,5,63,98,2004027872
3719,16,Jits_ISO_5,3,5,56,103,2004067880
3719,16,Jits_ISO_5,0,1,48,45,2004513492
3719,16,Jits_ISO_5,1,5,56,103,2004518244
3719,16,Jits_ISO_5,2,5,63,98,2004548068
3719,16,Jits_ISO_5,3,5,80,127,2004598268
3719,16,Jits_ISO_5,0,1,48,42,2004993076
3719,16,Jits_ISO_5,1,5,80,127,2005017904
3719,16,Jits_ISO_5,2,5,56,103,2005057844
3719,16,Jits_ISO_5,3,5,63,98,2005068112
3719,16,Jits_ISO_5,0,1,48,41,2005485236
3719,16,Jits_ISO_5,1,5,80,127,2005498156
3719,16,Jits_ISO_5,2,5,63,98,2005538168
3719,16,Jits_ISO_5,3,5,56,103,2005597644
3719,16,Jits_ISO_5,0,1,48,41,2005980408
3719,16,Jits_ISO_5,1,5,56,103,2005997964
3719,16,Jits_ISO_5,2,5,80,127,2006008308
3719,16,Jits_ISO_5,3,5,63,98,2006088008
3719,16,Jits_ISO_5,0,1,48,45,2006484548
3719,16,Jits_ISO_5,1,5,80,127,2006497768
3719,16,Jits_ISO_5,2,5,63,98,2006557936
3719,16,Jits_ISO_5,3,5,56,103,2006587816
3719,16,Jits_ISO_5,0,5,56,103,2006998336
3719,16,Jits_ISO_5,1,1,48,40,2007034708
3719,16,Jits_ISO_5,2,5,80,127,2007057744
3719,16,Jits_ISO_5,3,5,63,98,2007097828
3719,16,Jits_ISO_5,0,1,48,35,2007504560
3719,16,Jits_ISO_5,1,5,56,103,2007557640
3719,16,Jits_ISO_5,2,5,63,98,2007567836
3719,16,Jits_ISO_5,3,5,80,127,2007571124
3719,16,Jits_ISO_5,0,1,48,39,2008006484
3719,16,Jits_ISO_5,1,5,80,127,2008008216
3719,16,Jits_ISO_5,2,5,63,98,2008098184
3719,16,Jits_ISO_5,3,5,56,103,2008108604
3719,16,Jits_ISO_5,0,1,48,42,2008489100
3719,16,Jits_ISO_5,1,5,56,103,2008507860
3719,16,Jits_ISO_5,2,5,63,98,2008510960
3719,16,Jits_ISO_5,3,5,80,127,2008514228
3719,16,Jits_ISO_5,0,1,48,47,2008994412
3719,16,Jits_ISO_5,1,5,80,127,2009027964
3719,16,Jits_ISO_5,2,5,63,98,2009078164
3719,16,Jits_ISO_5,3,5,56,103,2009107896
3719,16,Jits_ISO_5,0,5,56,103,2009508348
3719,16,Jits_ISO_5,1,5,80,127,2009517348
3719,16,Jits_ISO_5,2,1,48,45,2009527316
3719,16,Jits_ISO_5,3,5,63,98,2009588164
3719,16,Jits_ISO_5,0,1,48,45,2009977876
3719,16,Jits_ISO_5,1,5,56,103,2010018052
3719,16,Jits_ISO_5,2,5,63,98,2010037764
3719,16,Jits_ISO_5,3,5,80,127,2010097912
3719,16,Jits_ISO_5,0,1,48,44,2010483868
3719,16,Jits_ISO_5,1,5,80,127,2010507720
3719,16,Jits_ISO_5,2,5,63,98,2010578400
3719,16,Jits_ISO_5,3,5,56,103,2010597720
3719,16,Jits_ISO_5,0,1,48,45,2011005996
3719,16,Jits_ISO_5,1,5,80,127,2011027684
3719,16,Jits_ISO_5,2,5,56,103,2011038104
3719,16,Jits_ISO_5,3,5,63,98,2011048448
3719,16,Jits_ISO_5,0,1,48,43,2011485444
3719,16,Jits_ISO_5,1,5,80,127,2011518424
3719,16,Jits_ISO_5,2,5,56,103,2011537912
3719,16,Jits_ISO_5,3,5,63,98,2011608644
3719,16,Jits_ISO_5,0,1,48,41,2012004416
3719,16,Jits_ISO_5,1,5,56,103,2012028348
3719,16,Jits_ISO_5,2,5,80,127,2012057872
3719,16,Jits_ISO_5,3,5,63,98,2012077580
3719,16,Jits_ISO_5,0,1,48,40,2012501160
3719,16,Jits_ISO_5,1,5,63,98,2012517668
3719,16,Jits_ISO_5,2,5,56,103,2012578056
3719,16,Jits_ISO_5,3,5,80,127,2012607740
3719,16,Jits_ISO_5,0,1,48,37,2012996400
3719,16,Jits_ISO_5,1,5,63,98,2013008332
3719,16,Jits_ISO_5,2,5,80,127,2013011620
3719,16,Jits_ISO_5,3,5,56,103,2013098296
3719,16,Jits_ISO_5,0,5,56,103,2013528664
3719,16,Jits_ISO_5,1,1,48,41,2013544668
3719,16,Jits_ISO_5,2,5,63,98,2013558108
3719,16,Jits_ISO_5,3,5,80,127,2013598268
3719,16,Jits_ISO_5,0,1,48,40,2014027056
3719,16,Jits_ISO_5,1,5,63,98,2014028856
3719,16,Jits_ISO_5,2,5,56,103,2014068044
3719,16,Jits_ISO_5,3,5,80,127,2014087532
3719,16,Jits_ISO_5,0,1,48,42,2014524884
3719,16,Jits_ISO_5,1,5,63,98,2014537956
3719,16,Jits_ISO_5,2,5,56,103,2014577968
3719,16,Jits_ISO_5,3,5,80,127,2014588460
3719,16,Jits_ISO_5,0,1,48,36,2015024768
3719,16,Jits_ISO_5,1,5,80,127,2015027428
3719,16,Jits_ISO_5,2,5,63,98,2015098376
3719,16,Jits_ISO_5,3,5,56,103,2015117564
3719,16,Jits_ISO_5,0,5,56,103,2015518176
3719,16,Jits_ISO_5,1,5,80,127,2015537664
3719,16,Jits_ISO_5,2,1,48,45,2015545812
3719,16,Jits_ISO_5,3,5,63,98,2015577592
3719,16,Jits_ISO_5,0,1,48,46,2016020356
3719,16,Jits_ISO_5,1,5,63,98,2016027956
3719,16,Jits_ISO_5,2,5,80,127,2016047444
3719,16,Jits_ISO_5,3,5,56,103,2016088576
3719,16,Jits_ISO_5,0,1,48,45,2016454684
3719,16,Jits_ISO_5,1,5,63,98,2016527836
3719,16,Jits_ISO_5,2,5,56,103,2016548208
3719,16,Jits_ISO_5,3,5,80,127,2016557580
3719,16,Jits_ISO_5,0,1,48,46,2016947208
3719,16,Jits_ISO_5,1,5,80,127,2017027564
3719,16,Jits_ISO_5,2,5,56,103,2017047788
3719,16,Jits_ISO_5,3,5,63,98,2017077684
3719,16,Jits_ISO_5,0,1,48,44,2017483960
3719,16,Jits_ISO_5,1,5,56,103,2017597780
3719,16,Jits_ISO_5,2,5,80,127,2017600772
3719,16,Jits_ISO_5,3,5,63,98,2017618388
3719,16,Jits_ISO_5,0,5,63,98,2018017520
3719,16,Jits_ISO_5,1,5,56,103,2018048316
3719,16,Jits_ISO_5,2,1,48,48,2018073232
3719,16,Jits_ISO_5,3,5,80,127,2018107800
3719,16,Jits_ISO_5,0,1,48,39,2018474704
3719,16,Jits_ISO_5,1,5,63,98,2018598140
3719,16,Jits_ISO_5,2,5,56,103,2018607440
3719,16,Jits_ISO_5,3,5,80,127,2018617784
3719,16,Jits_ISO_5,0,1,48,40,2019035620
3719,16,Jits_ISO_5,1,5,56,103,2019058116
3719,16,Jits_ISO_5,2,5,80,127,2019088012
3719,16,Jits_ISO_5,3,5,63,98,2019098060
3719,16,Jits_ISO_5,0,1,48,34,2019514664
3719,16,Jits_ISO_5,1,5,63,98,2019597784
3719,16,Jits_ISO_5,2,5,56,103,2019608128
3719,16,Jits_ISO_5,3,5,80,127,2019628272
3719,16,Jits_ISO_5,0,5,56,103,2020027628
3719,16,Jits_ISO_5,1,1,48,40,2020056896
3719,16,Jits_ISO_5,2,5,63,98,2020088308
3719,16,Jits_ISO_5,3,5,80,127,2020091596
3719,16,Jits_ISO_5,0,1,48,37,2020483020
3719,16,Jits_ISO_5,1,5,80,127,2020548036
3719,16,Jits_ISO_5,2,5,56,103,2020558080
3719,16,Jits_ISO_5,3,5,63,98,2020627892
3719,16,Jits_ISO_5,0,1,48,37,2021008608
3719,16,Jits_ISO_5,1,5,80,127,2021037404
3719,16,Jits_ISO_5,2,5,56,103,2021108364
3719,16,Jits_ISO_5,3,5,63,98,2021118260
3719,16,Jits_ISO_5,0,1,48,38,2021521372
3719,16,Jits_ISO_5,1,5,63,98,2021577992
3719,16,Jits_ISO_5,2,5,56,103,2021588264
3719,16,Jits_ISO_5,3,5,80,127,2021607896
3719,16,Jits_ISO_5,0,5,80,127,2022027736
3719,16,Jits_ISO_5,1,1,48,36,2022040444
3719,16,Jits_ISO_5,2,5,63,98,2022088220
3719,16,Jits_ISO_5,3,5,56,103,2022128152
3719,16,Jits_ISO_5,0,1,48,38,2022566424
3719,16,Jits_ISO_5,1,5,56,103,2022568236
3719,16,Jits_ISO_5,2,5,63,98,2022577460
3719,16,Jits_ISO_5,3,5,80,127,2022617496
3719,16,Jits_ISO_5,0,1,48,32,2023008388
3719,16,Jits_ISO_5,1,5,56,103,2023028184
3719,16,Jits_ISO_5,2,5,80,127,2023057860
3719,16,Jits_ISO_5,3,5,63,98,2023108144
3719,16,Jits_ISO_5,0,1,48,38,2023500996
3719,16,Jits_ISO_5,1,5,56,103,2023567924
3719,16,Jits_ISO_5,2,5,63,98,2023607652
3719,16,Jits_ISO_5,3,5,80,127,2023611312
3719,16,Jits_ISO_5,0,1,48,36,2024047476
3719,16,Jits_ISO_5,1,5,56,103,2024067428
3719,16,Jits_ISO_5,2,5,63,98,2024077552
3719,16,Jits_ISO_5,3,5,80,127,2024098156
3719,16,Jits_ISO_5,0,5,56,103,2024528208
3719,16,Jits_ISO_5,1,5,80,127,2024531276
3719,16,Jits_ISO_5,2,1,48,39,2024540692
3719,16,Jits_ISO_5,3,5,63,98,2024568136
3719,16,Jits_ISO_5,0,1,48,38,2025030152
3719,16,Jits_ISO_5,1,5,63,98,2025068016
3719,16,Jits_ISO_5,2,5,56,103,2025097468
3719,16,Jits_ISO_5,3,5,80,127,2025118072
3719,16,Jits_ISO_5,0,1,48,38,2025516932
3719,16,Jits_ISO_5,1,5,80,127,2025537860
3719,16,Jits_ISO_5,2,5,56,103,2025548280
3719,16,Jits_ISO_5,3,5,63,98,2025558548
3719,16,Jits_ISO_5,0,1,48,36,2026026704
3719,16,Jits_ISO_5,1,5,56,103,2026037592
3719,16,Jits_ISO_5,2,5,80,127,2026077680
3719,16,Jits_ISO_5,3,5,63,98,2026108248
3719,16,Jits_ISO_5,0,1,48,40,2026528836
3719,16,Jits_ISO_5,1,5,63,98,2026558000
3719,16,Jits_ISO_5,2,5,80,127,2026568124
3719,16,Jits_ISO_5,3,5,56,103,2026578244
3719,16,Jits_ISO_5,0,1,48,41,2027029840
3719,16,Jits_ISO_5,1,5,56,103,2027038252
3719,16,Jits_ISO_5,2,5,63,98,2027107860
3719,16,Jits_ISO_5,3,5,80,127,2027117908
3719,16,Jits_ISO_5,0,1,48,45,2027512412
3719,16,Jits_ISO_5,1,5,80,127,2027537916
3719,16,Jits_ISO_5,2,5,56,103,2027548112
3719,16,Jits_ISO_5,3,5,63,98,2027598160
3719,16,Jits_ISO_5,0,1,48,44,2028006760
3719,16,Jits_ISO_5,1,5,80,127,2028047836
3719,16,Jits_ISO_5,2,5,56,103,2028108136
3719,16,Jits_ISO_5,3,5,63,98,2028137808
3719,16,Jits_ISO_5,0,5,56,103,2028547348
3719,16,Jits_ISO_5,1,5,80,127,2028550492
3719,16,Jits_ISO_5,2,1,48,38,2028556916
3719,16,Jits_ISO_5,3,5,63,98,2028588404
3719,16,Jits_ISO_5,0,1,48,43,2029009368
3719,16,Jits_ISO_5,1,5,56,103,2029077948
3719,16,Jits_ISO_5,2,5,63,98,2029107680
3719,16,Jits_ISO_5,3,5,80,127,2029117876
3719,16,Jits_ISO_5,0,1,48,39,2029535856
3719,16,Jits_ISO_5,1,5,63,98,2029587944
3719,16,Jits_ISO_5,2,5,80,127,2029597992
3719,16,Jits_ISO_5,3,5,56,103,2029608412
3719,16,Jits_ISO_5,0,5,80,127,2030038468
3719,16,Jits_ISO_5,1,1,48,46,2030068708
3719,16,Jits_ISO_5,2,5,56,103,2030087612
3719,16,Jits_ISO_5,3,5,63,98,2030090604
3719,16,Jits_ISO_5,0,5,56,103,2030577912
3719,16,Jits_ISO_5,1,1,48,46,2030578876
3719,16,Jits_ISO_5,2,5,80,127,2030597464
3719,16,Jits_ISO_5,3,5,63,98,2030607884
3719,16,Jits_ISO_5,0,5,63,98,2031058404
3719,16,Jits_ISO_5,1,1,48,47,2031073132
3719,16,Jits_ISO_5,2,5,56,103,2031088072
3719,16,Jits_ISO_5,3,5,80,127,2031107336
3719,16,Jits_ISO_5,0,5,56,103,2031568252
3719,16,Jits_ISO_5,1,1,48,43,2031570844
3719,16,Jits_ISO_5,2,5,80,127,2031577540
3719,16,Jits_ISO_5,3,5,63,98,2031648040
3719,16,Jits_ISO_5,0,5,63,98,2032057960
3719,16,Jits_ISO_5,1,5,80,127,2032097824
3719,16,Jits_ISO_5,2,1,48,43,2032099688
3719,16,Jits_ISO_5,3,5,56,103,2032137752
3719,16,Jits_ISO_5,0,1,48,43,2032541076
3719,16,Jits_ISO_5,1,5,56,103,2032567652
3719,16,Jits_ISO_5,2,5,63,98,2032577776
3719,16,Jits_ISO_5,3,5,80,127,2032598528
3719,16,Jits_ISO_5,0,1,48,39,2033009044
3719,16,Jits_ISO_5,1,5,63,98,2033108348
3719,16,Jits_ISO_5,2,5,80,127,2033127760
3719,16,Jits_ISO_5,3,5,56,103,2033148292
3719,16,Jits_ISO_5,0,5,56,103,2033547624
3719,16,Jits_ISO_5,1,1,48,40,2033579288
3719,16,Jits_ISO_5,2,5,80,127,2033627732
3719,16,Jits_ISO_5,3,5,63,98,2033637928
3719,16,Jits_ISO_5,0,1,48,42,2034010028
3719,16,Jits_ISO_5,1,5,80,127,2034088272
3719,16,Jits_ISO_5,2,5,63,98,2034097644
3719,16,Jits_ISO_5,3,5,56,103,2034128152
3719,16,Jits_ISO_5,0,5,63,98,2034547932
3719,16,Jits_ISO_5,1,1,48,46,2034548896
3719,16,Jits_ISO_5,2,5,80,127,2034587936
3719,16,Jits_ISO_5,3,5,56,103,2034648632
3719,16,Jits_ISO_5,0,1,48,44,2035049508
3719,16,Jits_ISO_5,1,5,63,98,2035057924
3719,16,Jits_ISO_5,2,5,56,103,2035108200
3719,16,Jits_ISO_5,3,5,80,127,2035137896
3719,16,Jits_ISO_5,0,5,80,127,2035567932
3719,16,Jits_ISO_5,1,5,63,98,2035578124
3719,16,Jits_ISO_5,2,1,48,47,2035598628
3719,16,Jits_ISO_5,3,5,56,103,2035647968
3719,16,Jits_ISO_5,0,1,48,44,2036090048
3719,16,Jits_ISO_5,1,5,80,127,2036138468
3719,16,Jits_ISO_5,2,5,56,103,2036147688
3719,16,Jits_ISO_5,3,5,63,98,2036150980
3719,16,Jits_ISO_5,0,5,56,103,2036577648
3719,16,Jits_ISO_5,1,5,80,127,2036598108
3719,16,Jits_ISO_5,2,5,63,98,2036608524
3719,16,Jits_ISO_5,3,1,48,49,2036622660
3719,16,Jits_ISO_5,0,1,48,44,2037070616
3719,16,Jits_ISO_5,1,5,63,98,2037087652
3719,16,Jits_ISO_5,2,5,56,103,2037127664
3719,16,Jits_ISO_5,3,5,80,127,2037148124
3719,16,Jits_ISO_5,0,1,48,46,2037553272
3719,16,Jits_ISO_5,1,5,63,98,2037588588
3719,16,Jits_ISO_5,2,5,56,103,2037647704
3719,16,Jits_ISO_5,3,5,80,127,2037650844
3719,16,Jits_ISO_5,0,1,48,43,2038028436
3719,16,Jits_ISO_5,1,5,56,103,2038058500
3719,16,Jits_ISO_5,2,5,80,127,2038077764
3719,16,Jits_ISO_5,3,5,63,98,2038117772
3719,16,Jits_ISO_5,0,1,48,47,2038537756
3719,16,Jits_ISO_5,1,5,56,103,2038587752
3719,16,Jits_ISO_5,2,5,63,98,2038608432
3719,16,Jits_ISO_5,3,5,80,127,2038617436
3719,16,Jits_ISO_5,0,1,48,40,2039031044
3719,16,Jits_ISO_5,1,5,80,127,2039057744
3719,16,Jits_ISO_5,2,5,56,103,2039087416
3719,16,Jits_ISO_5,3,5,63,98,2039128532
3719,16,Jits_ISO_5,0,1,48,44,2039565552
3719,16,Jits_ISO_5,1,5,80,127,2039567664
3719,16,Jits_ISO_5,2,5,56,103,2039588344
3719,16,Jits_ISO_5,3,5,63,98,2039647684
3719,16,Jits_ISO_5,0,5,56,103,2040077668
3719,16,Jits_ISO_5,1,1,48,49,2040083928
3719,16,Jits_ISO_5,2,5,80,127,2040098492
3719,16,Jits_ISO_5,3,5,63,98,2040157684
3719,16,Jits_ISO_5,0,5,80,127,2040557936
3719,16,Jits_ISO_5,1,5,56,103,2040568132
3719,16,Jits_ISO_5,2,1,48,45,2040579120
3719,16,Jits_ISO_5,3,5,63,98,2040608208
3719,16,Jits_ISO_5,0,1,48,44,2041039968
3719,16,Jits_ISO_5,1,5,63,98,2041057600
3719,16,Jits_ISO_5,2,5,56,103,2041097608
3719,16,Jits_ISO_5,3,5,80,127,2041100676
3719,16,Jits_ISO_5,0,1,48,47,2041530168
3719,16,Jits_ISO_5,1,5,63,98,2041577700
3719,16,Jits_ISO_5,2,5,80,127,2041617712
3719,16,Jits_ISO_5,3,5,56,103,2041647444
3719,16,Jits_ISO_5,0,1,48,44,2042068864
3719,16,Jits_ISO_5,1,5,56,103,2042077436
3719,16,Jits_ISO_5,2,5,63,98,2042087928
3719,16,Jits_ISO_5,3,5,80,127,2042117452
3719,16,Jits_ISO_5,0,1,48,36,2042567804
3719,16,Jits_ISO_5,1,5,80,127,2042569512
3719,16,Jits_ISO_5,2,5,63,98,2042637628
3719,16,Jits_ISO_5,3,5,56,103,2042647972
3719,16,Jits_ISO_5,0,1,48,42,2043051592
3719,16,Jits_ISO_5,1,5,63,98,2043067756
3719,16,Jits_ISO_5,2,5,56,103,2043138332
3719,16,Jits_ISO_5,3,5,80,127,2043147616
3719,16,Jits_ISO_5,0,1,48,42,2043540316
3719,16,Jits_ISO_5,1,5,63,98,2043567468
3719,16,Jits_ISO_5,2,5,56,103,2043587952
3719,16,Jits_ISO_5,3,5,80,127,2043627812
3719,16,Jits_ISO_5,0,1,48,38,2044035412
3719,16,Jits_ISO_5,1,5,56,103,2044077536
3719,16,Jits_ISO_5,2,5,63,98,2044087756
3719,16,Jits_ISO_5,3,5,80,127,2044167604
3719,16,Jits_ISO_5,0,5,63,98,2044568060
3719,16,Jits_ISO_5,1,1,48,39,2044584732
3719,16,Jits_ISO_5,2,5,56,103,2044597676
3719,16,Jits_ISO_5,3,5,80,127,2044637688
3719,16,Jits_ISO_5,0,1,48,38,2045051052
3719,16,Jits_ISO_5,1,5,56,103,2045067712
3719,16,Jits_ISO_5,2,5,63,98,2045107500
3719,16,Jits_ISO_5,3,5,80,127,2045147436
3719,16,Jits_ISO_5,0,1,48,41,2045543188
3719,16,Jits_ISO_5,1,5,80,127,2045568244
3719,16,Jits_ISO_5,2,5,56,103,2045648124
3719,16,Jits_ISO_5,3,5,63,98,2045657420
3719,16,Jits_ISO_5,0,1,48,47,2046066980
3719,16,Jits_ISO_5,1,5,56,103,2046108276
3719,16,Jits_ISO_5,2,5,63,98,2046111416
3719,16,Jits_ISO_5,3,5,80,127,2046118248
3719,16,Jits_ISO_5,0,1,48,46,2046565656
3719,16,Jits_ISO_5,1,5,56,103,2046628156
3719,16,Jits_ISO_5,2,5,63,98,2046647592
3719,16,Jits_ISO_5,3,5,80,127,2046658160
3719,16,Jits_ISO_5,0,1,48,38,2047048084
3719,16,Jits_ISO_5,1,5,63,98,2047088112
3719,16,Jits_ISO_5,2,5,80,127,2047098160
3719,16,Jits_ISO_5,3,5,56,103,2047117648
3719,16,Jits_ISO_5,0,1,48,35,2047529752
3719,16,Jits_ISO_5,1,5,63,98,2047587624
3719,16,Jits_ISO_5,2,5,56,103,2047667796
3719,16,Jits_ISO_5,3,5,80,127,2047670788
3719,16,Jits_ISO_5,0,5,63,98,2048088328
3719,16,Jits_ISO_5,1,1,48,47,2048101564
3719,16,Jits_ISO_5,2,5,56,103,2048108032
3719,16,Jits_ISO_5,3,5,80,127,2048137556
3719,16,Jits_ISO_5,0,1,48,45,2048555664
3719,16,Jits_ISO_5,1,5,56,103,2048588124
3719,16,Jits_ISO_5,2,5,63,98,2048607612
3719,16,Jits_ISO_5,3,5,80,127,2048618032
3719,16,Jits_ISO_5,0,1,48,48,2049073512
3719,16,Jits_ISO_5,1,5,56,103,2049117524
3719,16,Jits_ISO_5,2,5,63,98,2049148244
3719,16,Jits_ISO_5,3,5,80,127,2049151608
3719,16,Jits_ISO_5,0,1,48,41,2049560356
3719,16,Jits_ISO_5,1,5,56,103,2049578216
3719,16,Jits_ISO_5,2,5,63,98,2049618228
3719,16,Jits_ISO_5,3,5,80,127,2049677852
3719,16,Jits_ISO_5,0,1,48,38,2050084804
3719,16,Jits_ISO_5,1,5,56,103,2050097504
3719,16,Jits_ISO_5,2,5,63,98,2050107848
3719,16,Jits_ISO_5,3,5,80,127,2050168160
3719,16,Jits_ISO_5,0,1,48,37,2050558548
3719,16,Jits_ISO_5,1,5,56,103,2050598132
3719,16,Jits_ISO_5,2,5,80,127,2050617844
3719,16,Jits_ISO_5,3,5,63,98,2050648340
3719,16,Jits_ISO_5,0,1,48,40,2051083072
3719,16,Jits_ISO_5,1,5,80,127,2051098088
3719,16,Jits_ISO_5,2,5,56,103,2051108360
3719,16,Jits_ISO_5,3,5,63,98,2051127548
3719,16,Jits_ISO_5,0,1,48,43,2051554708
3719,16,Jits_ISO_5,1,5,63,98,2051587332
3719,16,Jits_ISO_5,2,5,80,127,2051668460
3719,16,Jits_ISO_5,3,5,56,103,2051677608
3719,16,Jits_ISO_5,0,1,48,45,2052086900
3719,16,Jits_ISO_5,1,5,80,127,2052147528
3719,16,Jits_ISO_5,2,5,56,103,2052167984
3719,16,Jits_ISO_5,3,5,63,98,2052171052
3719,16,Jits_ISO_5,0,5,63,98,2052617520
3719,16,Jits_ISO_5,1,1,48,45,2052620808
3719,16,Jits_ISO_5,2,5,80,127,2052622296
3719,16,Jits_ISO_5,3,5,56,103,2052677972
3719,16,Jits_ISO_5,0,5,56,103,2053097764
3719,16,Jits_ISO_5,1,5,80,127,2053108260
3719,16,Jits_ISO_5,2,1,48,38,2053116704
3719,16,Jits_ISO_5,3,5,63,98,2053147892
3719,16,Jits_ISO_5,0,1,48,36,2053553992
3719,16,Jits_ISO_5,1,5,56,103,2053588288
3719,16,Jits_ISO_5,2,5,63,98,2053647916
3719,16,Jits_ISO_5,3,5,80,127,2053657960
3719,16,Jits_ISO_5,0,1,48,43,2054051628
3719,16,Jits_ISO_5,1,5,63,98,2054098284
3719,16,Jits_ISO_5,2,5,80,127,2054138224
3719,16,Jits_ISO_5,3,5,56,103,2054178068
3719,16,Jits_ISO_5,0,1,48,41,2054592968
3719,16,Jits_ISO_5,1,5,56,103,2054597944
3719,16,Jits_ISO_5,2,5,63,98,2054677808
3719,16,Jits_ISO_5,3,5,80,127,2054681324
3719,16,Jits_ISO_5,0,9999,9999,9999,1995285612
3719,16,Jits_ISO_5,1,9999,9999,9999,1995785312
3719,16,Jits_ISO_5,2,9999,9999,9999,1996286036
3719,16,Jits_ISO_5,3,9999,9999,9999,1996785768
3719,16,Jits_ISO_5,4,9999,9999,9999,1997285432
3719,16,Jits_ISO_5,5,9999,9999,9999,1997785168
3719,16,Jits_ISO_5,6,9999,9999,9999,1998285876
3719,16,Jits_ISO_5,7,9999,9999,9999,1998785608
3719,16,Jits_ISO_5,8,9999,9999,9999,1999285316
3719,16,Jits_ISO_5,9,9999,9999,9999,1999786100
3719,16,Jits_ISO_5,10,9999,9999,9999,2000285752
3719,16,Jits_ISO_5,11,9999,9999,9999,2000785492
3719,16,Jits_ISO_5,12,9999,9999,9999,2001285220
3719,16,Jits_ISO_5,13,9999,9999,9999,2001785924
3719,16,Jits_ISO_5,14,9999,9999,9999,2002285640
3719,16,Jits_ISO_5,15,9999,9999,9999,2002785372
3719,16,Jits_ISO_5,16,9999,9999,9999,2003286080
3719,16,Jits_ISO_5,17,9999,9999,9999,2003796076
3719,16,Jits_ISO_5,18,9999,9999,9999,2004295728
3719,16,Jits_ISO_5,19,9999,9999,9999,2004795480
3719,16,Jits_ISO_5,20,9999,9999,9999,2005295212
3719,16,Jits_ISO_5,21,9999,9999,9999,2005795916
3719,16,Jits_ISO_5,22,9999,9999,9999,2006295648
3719,16,Jits_ISO_5,23,9999,9999,9999,2006795384
3719,16,Jits_ISO_5,24,9999,9999,9999,2007296088
3719,16,Jits_ISO_5,25,9999,9999,9999,2007806020
3719,16,Jits_ISO_5,26,9999,9999,9999,2008305756
3719,16,Jits_ISO_5,27,9999,9999,9999,2008805464
3719,16,Jits_ISO_5,28,9999,9999,9999,2009305200
3719,16,Jits_ISO_5,29,9999,9999,9999,2009805900
3719,16,Jits_ISO_5,30,9999,9999,9999,2010305624
3719,16,Jits_ISO_5,31,9999,9999,9999,2010805336
3719,16,Jits_ISO_5,32,9999,9999,9999,2011306036
3719,16,Jits_ISO_5,33,9999,9999,9999,2011805772
3719,16,Jits_ISO_5,34,9999,9999,9999,2012305504
3719,16,Jits_ISO_5,35,9999,9999,9999,2012805240
3719,16,Jits_ISO_5,36,9999,9999,9999,2013305932
3719,16,Jits_ISO_5,37,9999,9999,9999,2013805668
3719,16,Jits_ISO_5,38,9999,9999,9999,2014305340
3719,16,Jits_ISO_5,39,9999,9999,9999,2014806124
3719,16,Jits_ISO_5,40,9999,9999,9999,2015316048
3719,16,Jits_ISO_5,41,9999,9999,9999,2015815780
3719,16,Jits_ISO_5,42,9999,9999,9999,2016315452
3719,16,Jits_ISO_5,43,9999,9999,9999,2016815180
3719,16,Jits_ISO_5,44,9999,9999,9999,2017315960
3719,16,Jits_ISO_5,45,9999,9999,9999,2017815616
3719,16,Jits_ISO_5,46,9999,9999,9999,2018315348
3719,16,Jits_ISO_5,47,9999,9999,9999,2018816060
3719,16,Jits_ISO_5,48,9999,9999,9999,2019326060
3719,16,Jits_ISO_5,49,9999,9999,9999,2019825724
3719,16,Jits_ISO_5,50,9999,9999,9999,2020325448
3719,16,Jits_ISO_5,51,9999,9999,9999,2020825192
3719,16,Jits_ISO_5,52,9999,9999,9999,2021325900
3719,16,Jits_ISO_5,53,9999,9999,9999,2021825632
3719,16,Jits_ISO_5,54,9999,9999,9999,2022325368
3719,16,Jits_ISO_5,55,9999,9999,9999,2022826068
3719,16,Jits_ISO_5,56,9999,9999,9999,2023325796
3719,16,Jits_ISO_5,57,9999,9999,9999,2023825524
3719,16,Jits_ISO_5,58,9999,9999,9999,2024325184
3719,16,Jits_ISO_5,59,9999,9999,9999,2024825948
3719,16,Jits_ISO_5,60,9999,9999,9999,2025325624
3719,16,Jits_ISO_5,61,9999,9999,9999,2025825352
3719,16,Jits_ISO_5,62,9999,9999,9999,2026326136
3719,16,Jits_ISO_5,63,9999,9999,9999,2026836056
3719,16,Jits_ISO_5,64,9999,9999,9999,2027335792
3719,16,Jits_ISO_5,65,9999,9999,9999,2027835448
3719,16,Jits_ISO_5,66,9999,9999,9999,2028335184
3719,16,Jits_ISO_5,67,9999,9999,9999,2028835952
3719,16,Jits_ISO_5,68,9999,9999,9999,2029335628
3719,16,Jits_ISO_5,69,9999,9999,9999,2029835364
3719,16,Jits_ISO_5,70,9999,9999,9999,2030336060
3719,16,Jits_ISO_5,71,9999,9999,9999,2030846072
3719,16,Jits_ISO_5,72,9999,9999,9999,2031345744
3719,16,Jits_ISO_5,73,9999,9999,9999,2031845476
3719,16,Jits_ISO_5,74,9999,9999,9999,2032345156
3719,16,Jits_ISO_5,75,9999,9999,9999,2032845932
3719,16,Jits_ISO_5,76,9999,9999,9999,2033345596
3719,16,Jits_ISO_5,77,9999,9999,9999,2033845328
3719,16,Jits_ISO_5,78,9999,9999,9999,2034346100
3719,16,Jits_ISO_5,79,9999,9999,9999,2034845760
3719,16,Jits_ISO_5,80,9999,9999,9999,2035345496
3719,16,Jits_ISO_5,81,9999,9999,9999,2035845232
3719,16,Jits_ISO_5,82,9999,9999,9999,2036345924
3719,16,Jits_ISO_5,83,9999,9999,9999,2036845660
3719,16,Jits_ISO_5,84,9999,9999,9999,2037345336
3719,16,Jits_ISO_5,85,9999,9999,9999,2037846112
3719,16,Jits_ISO_5,86,9999,9999,9999,2038356032
3719,16,Jits_ISO_5,87,9999,9999,9999,2038855772
3719,16,Jits_ISO_5,88,9999,9999,9999,2039355500
3719,16,Jits_ISO_5,89,9999,9999,9999,2039855160
3719,16,Jits_ISO_5,90,9999,9999,9999,2040355944
3719,16,Jits_ISO_5,91,9999,9999,9999,2040855612
3719,16,Jits_ISO_5,92,9999,9999,9999,2041355348
3719,16,Jits_ISO_5,93,9999,9999,9999,2041856056
3719,16,Jits_ISO_5,94,9999,9999,9999,2042366048
3719,16,Jits_ISO_5,95,9999,9999,9999,2042865784
3719,16,Jits_ISO_5,96,9999,9999,9999,2043365444
3719,16,Jits_ISO_5,97,9999,9999,9999,2043865172
3719,16,Jits_ISO_5,98,9999,9999,9999,2044365880
3719,16,Jits_ISO_5,99,9999,9999,9999,2044865612
3719,16,Jits_ISO_5,100,9999,9999,9999,2045365324
3719,16,Jits_ISO_5,101,9999,9999,9999,2045866080
3719,16,Jits_ISO_5,102,9999,9999,9999,2046365800
3719,16,Jits_ISO_5,103,9999,9999,9999,2046865464
3719,16,Jits_ISO_5,104,9999,9999,9999,2047365196
3719,16,Jits_ISO_5,105,9999,9999,9999,2047865972
3719,16,Jits_ISO_5,106,9999,9999,9999,2048365632
3719,16,Jits_ISO_5,107,9999,9999,9999,2048865356
3719,16,Jits_ISO_5,108,9999,9999,9999,2049366128
3719,16,Jits_ISO_5,109,9999,9999,9999,2049876052
3719,16,Jits_ISO_5,110,9999,9999,9999,2050375784
3719,16,Jits_ISO_5,111,9999,9999,9999,2050875516
3719,16,Jits_ISO_5,112,9999,9999,9999,2051375172
3719,16,Jits_ISO_5,113,9999,9999,9999,2051875956
3719,16,Jits_ISO_5,114,9999,9999,9999,2052375612
3719,16,Jits_ISO_5,115,9999,9999,9999,2052875336
3719,16,Jits_ISO_5,116,9999,9999,9999,2053376112
3719,16,Jits_ISO_5,117,9999,9999,9999,2053886048
3719,16,Jits_ISO_5,118,9999,9999,9999,2054385784
3719,16,Jits_ISO_5,119,9999,9999,9999,2054885436
3720,3,ISIP_8,0,5,42,127,2083392956
3720,3,ISIP_8,1,1,48,41,2084054296
3720,3,ISIP_8,2,5,42,127,2084192540
3720,3,ISIP_8,3,1,48,37,2084885292
3720,3,ISIP_8,4,5,42,127,2084993472
3720,3,ISIP_8,5,1,48,27,2085687644
3720,3,ISIP_8,6,5,42,127,2085793204
3720,3,ISIP_8,7,1,48,39,2086537272
3720,3,ISIP_8,8,5,42,127,2086592752
3720,3,ISIP_8,9,1,48,37,2087325860
3720,3,ISIP_8,10,5,42,127,2087392784
3720,3,ISIP_8,11,1,48,31,2088152320
3720,3,ISIP_8,12,5,42,127,2088193564
3720,3,ISIP_8,13,1,48,34,2088921460
3720,3,ISIP_8,14,5,42,127,2088993000
3720,3,ISIP_8,15,1,48,37,2089708028
3720,3,ISIP_8,16,5,42,127,2089792732
3720,3,ISIP_8,17,1,48,38,2090504768
3720,3,ISIP_8,18,5,42,127,2090592616
3720,3,ISIP_8,19,1,48,35,2091327312
3720,3,ISIP_8,20,5,42,127,2091393472
3720,3,ISIP_8,21,1,48,31,2092153452
3720,3,ISIP_8,22,5,42,127,2092193276
3720,3,ISIP_8,23,1,48,35,2092930372
3720,3,ISIP_8,24,5,42,127,2092992740
3720,3,ISIP_8,25,1,48,37,2093732796
3720,3,ISIP_8,26,5,42,127,2093792548
3720,3,ISIP_8,27,1,48,34,2094536668
3720,3,ISIP_8,28,5,42,127,2094593324
3720,3,ISIP_8,29,1,48,29,2095360340
3720,3,ISIP_8,30,5,42,127,2095393356
3720,3,ISIP_8,31,1,48,35,2096158572
3720,3,ISIP_8,32,5,42,127,2096193092
3720,3,ISIP_8,33,1,48,33,2096952848
3720,3,ISIP_8,34,5,42,127,2096992748
3720,3,ISIP_8,35,1,48,34,2097712112
3720,3,ISIP_8,36,5,42,127,2097793308
3720,3,ISIP_8,37,1,48,32,2098512000
3720,3,ISIP_8,38,5,42,127,2098593188
3720,3,ISIP_8,39,1,48,31,2099312932
3720,3,ISIP_8,40,5,42,127,2099392944
3720,3,ISIP_8,41,1,48,37,2100096208
3720,3,ISIP_8,42,5,42,127,2100192736
3720,3,ISIP_8,43,1,48,32,2100907460
3720,3,ISIP_8,44,5,42,127,2100993532
3720,3,ISIP_8,45,1,48,37,2101696296
3720,3,ISIP_8,46,5,42,127,2101793104
3720,3,ISIP_8,47,1,48,40,2102501264
3720,3,ISIP_8,48,5,42,127,2102593076
3720,3,ISIP_8,49,1,48,38,2103311848
3720,3,ISIP_8,50,5,42,127,2103392516
3720,3,ISIP_8,51,1,48,35,2104112256
3720,3,ISIP_8,52,5,42,127,2104193296
3720,3,ISIP_8,53,1,48,36,2104954696
3720,3,ISIP_8,54,5,42,127,2104993252
3720,3,ISIP_8,55,1,48,34,2105710296
3720,3,ISIP_8,56,5,42,127,2105793084
3720,3,ISIP_8,57,1,48,41,2106494180
3720,3,ISIP_8,58,5,42,127,2106593476
3720,3,ISIP_8,59,1,48,40,2107246936
3720,3,ISIP_8,60,1,48,37,2108112288
3720,3,ISIP_8,61,1,48,36,2108973872
3720,3,ISIP_8,62,1,48,32,2109782880
3720,3,ISIP_8,63,1,48,32,2110652732
3720,3,ISIP_8,64,1,48,39,2111446852
3720,3,ISIP_8,65,1,48,32,2112319512
3720,3,ISIP_8,66,1,48,38,2113179448
3720,3,ISIP_8,67,1,48,24,2114060208
3720,3,ISIP_8,68,1,48,29,2114861292
3720,3,ISIP_8,69,1,48,34,2115700656
3720,3,ISIP_8,70,1,48,42,2116551732
3720,3,ISIP_8,71,1,48,38,2117378684
3720,3,ISIP_8,72,1,48,42,2118231444
3720,3,ISIP_8,73,1,48,42,2119044860
3720,3,ISIP_8,74,1,48,39,2119899516
3720,3,ISIP_8,75,1,48,40,2120709788
3720,3,ISIP_8,76,1,48,40,2121525384
3720,3,ISIP_8,77,1,48,37,2122262656
3720,3,ISIP_8,78,1,48,38,2123069408
3720,3,ISIP_8,79,1,48,39,2123842364
3720,3,ISIP_8,80,1,48,34,2124705520
3720,3,ISIP_8,81,1,48,40,2125453940
3720,3,ISIP_8,82,1,48,39,2126261624
3720,3,ISIP_8,83,1,48,38,2127031360
3720,3,ISIP_8,84,1,48,35,2127805584
3720,3,ISIP_8,85,1,48,39,2128557736
3720,3,ISIP_8,86,1,48,34,2129415512
3720,3,ISIP_8,87,1,48,41,2130196912
3720,3,ISIP_8,88,1,48,40,2131042268
3720,3,ISIP_8,89,1,48,42,2131836536
3720,3,ISIP_8,90,1,48,39,2132630280
3720,3,ISIP_8,91,1,48,44,2133438864
3720,3,ISIP_8,92,1,48,37,2134232008
3720,3,ISIP_8,93,1,48,39,2135020144
3720,3,ISIP_8,94,1,48,47,2135814268
3720,3,ISIP_8,95,1,48,43,2136595896
3720,3,ISIP_8,96,1,48,42,2137407140
3720,3,ISIP_8,97,1,48,40,2138217568
3720,3,ISIP_8,98,1,48,40,2139021036
3720,3,ISIP_8,99,1,48,43,2139769824
3720,3,ISIP_8,100,1,48,32,2140579352
3720,3,ISIP_8,101,1,48,39,2141335704
3720,3,ISIP_8,102,1,48,38,2142097508
3720,3,ISIP_8,103,1,48,38,2142870380
3720,3,ISIP_8,104,1,48,40,2143621792
3720,3,ISIP_8,105,1,48,38,2144396392
3720,3,ISIP_8,106,1,48,35,2145194324
3720,3,ISIP_8,107,1,48,43,2145936232
3720,3,ISIP_8,108,1,48,41,2146709408
3720,3,ISIP_8,109,1,48,46,2147509392
3720,3,ISIP_8,110,1,48,43,2148305980
3720,3,ISIP_8,111,1,48,44,2149060828
3720,3,ISIP_8,112,1,48,40,2149834524
3720,3,ISIP_8,113,1,48,41,2150595504
3720,3,ISIP_8,114,1,48,45,2151360068
3720,3,ISIP_8,115,1,48,47,2152116496
3720,3,ISIP_8,116,1,48,47,2152904032
3720,3,ISIP_8,117,1,48,44,2153654396
3720,3,ISIP_8,118,1,48,44,2154436696
3720,3,ISIP_8,119,1,48,40,2155167508
3720,3,ISIP_8,120,1,48,42,2155960152
3720,3,ISIP_8,121,1,48,45,2156733632
3720,3,ISIP_8,122,1,48,39,2157518252
3720,3,ISIP_8,123,1,48,43,2158308928
3720,3,ISIP_8,124,1,48,40,2159055180
3720,3,ISIP_8,125,1,48,49,2159877048
3720,3,ISIP_8,126,1,48,49,2160678272
3720,3,ISIP_8,127,1,48,41,2161443000
3720,3,ISIP_8,128,1,48,38,2162228292
3720,3,ISIP_8,129,1,48,45,2163002360
3720,3,ISIP_8,130,1,48,44,2163787132
3720,3,ISIP_8,131,1,48,44,2164531512
3720,3,ISIP_8,132,1,48,43,2165308200
3720,3,ISIP_8,133,1,48,45,2166031416
3720,3,ISIP_8,134,1,48,50,2166818128
3720,3,ISIP_8,135,1,48,51,2167593920
3720,3,ISIP_8,136,1,48,48,2168365380
3720,3,ISIP_8,137,1,48,46,2169145436
3720,3,ISIP_8,138,1,48,46,2169906420
3720,3,ISIP_8,139,1,48,46,2170679964
3720,3,ISIP_8,140,1,48,47,2171439604
3720,3,ISIP_8,141,1,48,40,2172177984
3720,3,ISIP_8,142,1,48,45,2173003836
3720,3,ISIP_8,143,1,48,46,2173742864
3720,3,ISIP_8,144,1,48,43,2174487392
3720,3,ISIP_8,145,1,48,38,2175245832
3720,3,ISIP_8,146,1,48,40,2176032472
3720,3,ISIP_8,147,1,48,38,2176713348
3720,3,ISIP_8,148,1,48,42,2177438328
3720,3,ISIP_8,149,1,48,40,2178170216
3720,3,ISIP_8,150,1,48,37,2178863660
3720,3,ISIP_8,151,1,48,35,2179575572
3720,3,ISIP_8,152,1,48,40,2180307760
3720,3,ISIP_8,153,1,48,40,2181039944
3720,3,ISIP_8,154,1,48,40,2181792232
3720,3,ISIP_8,155,1,48,40,2182504808
3720,3,ISIP_8,156,1,48,38,2183244100
3720,3,ISIP_8,157,1,48,32,2183979424
3720,3,ISIP_8,158,1,48,36,2184739888
3720,3,ISIP_8,159,1,48,37,2185470352
3720,3,ISIP_8,160,1,48,39,2186222360
3720,3,ISIP_8,161,1,48,39,2186981628
3720,3,ISIP_8,162,1,48,35,2187777912
3720,3,ISIP_8,163,1,48,36,2188542488
3720,3,ISIP_8,164,1,48,38,2189285448
3720,3,ISIP_8,165,1,48,42,2190081660
3720,3,ISIP_8,166,1,48,40,2190877800
3720,3,ISIP_8,167,1,48,40,2191635264
3720,3,ISIP_8,168,1,48,44,2192379196
3720,3,ISIP_8,169,1,48,43,2193178852
3720,3,ISIP_8,170,1,48,39,2193934380
3720,3,ISIP_8,171,1,48,42,2194666408
3720,3,ISIP_8,172,1,48,46,2195377196
3720,3,ISIP_8,173,1,48,45,2196161288
3720,3,ISIP_8,174,1,48,40,2196871612
3720,3,ISIP_8,175,1,48,42,2197668124
3720,3,ISIP_8,176,1,48,43,2198391484
3720,3,ISIP_8,177,1,48,45,2199142820
3720,3,ISIP_8,178,1,48,43,2199914724
3720,3,ISIP_8,179,1,48,43,2200672492
3720,3,ISIP_8,180,1,48,40,2201451876
3720,3,ISIP_8,181,1,48,42,2202186156
3720,3,ISIP_8,182,1,48,43,2202939808
3720,3,ISIP_8,0,9999,9999,9999,2083390516
3720,3,ISIP_8,1,9999,9999,9999,2084190324
3720,3,ISIP_8,2,9999,9999,9999,2084991032
3720,3,ISIP_8,3,9999,9999,9999,2085790840
3720,3,ISIP_8,4,9999,9999,9999,2086590536
3720,3,ISIP_8,5,9999,9999,9999,2087390272
3720,3,ISIP_8,6,9999,9999,9999,2088191052
3720,3,ISIP_8,7,9999,9999,9999,2088990784
3720,3,ISIP_8,8,9999,9999,9999,2089790520
3720,3,ISIP_8,9,9999,9999,9999,2090590324
3720,3,ISIP_8,10,9999,9999,9999,2091391032
3720,3,ISIP_8,11,9999,9999,9999,2092190840
3720,3,ISIP_8,12,9999,9999,9999,2092990524
3720,3,ISIP_8,13,9999,9999,9999,2093790260
3720,3,ISIP_8,14,9999,9999,9999,2094591036
3720,3,ISIP_8,15,9999,9999,9999,2095390772
3720,3,ISIP_8,16,9999,9999,9999,2096190576
3720,3,ISIP_8,17,9999,9999,9999,2096990312
3720,3,ISIP_8,18,9999,9999,9999,2097791092
3720,3,ISIP_8,19,9999,9999,9999,2098590824
3720,3,ISIP_8,20,9999,9999,9999,2099390584
3720,3,ISIP_8,21,9999,9999,9999,2100190300
3720,3,ISIP_8,22,9999,9999,9999,2100991096
3720,3,ISIP_8,23,9999,9999,9999,2101790832
3720,3,ISIP_8,24,9999,9999,9999,2102590564
3720,3,ISIP_8,25,9999,9999,9999,2103390300
3720,3,ISIP_8,26,9999,9999,9999,2104191080
3720,3,ISIP_8,27,9999,9999,9999,2104990816
3720,3,ISIP_8,28,9999,9999,9999,2105790572
3720,3,ISIP_8,29,9999,9999,9999,2106590304
3720,3,ISIP_8,30,9999,9999,9999,2107391068
3720,3,ISIP_8,31,9999,9999,9999,2108190812
3720,3,ISIP_8,32,9999,9999,9999,2108990544
3720,3,ISIP_8,33,9999,9999,9999,2109790276
3720,3,ISIP_8,34,9999,9999,9999,2110591056
3720,3,ISIP_8,35,9999,9999,9999,2111390788
3720,3,ISIP_8,36,9999,9999,9999,2112190540
3720,3,ISIP_8,37,9999,9999,9999,2112990268
3720,3,ISIP_8,38,9999,9999,9999,2113791048
3720,3,ISIP_8,39,9999,9999,9999,2114590776
3720,3,ISIP_8,40,9999,9999,9999,2115390580
3720,3,ISIP_8,41,9999,9999,9999,2116190312
3720,3,ISIP_8,42,9999,9999,9999,2116991088
3720,3,ISIP_8,43,9999,9999,9999,2117790820
3720,3,ISIP_8,44,9999,9999,9999,2118590572
3720,3,ISIP_8,45,9999,9999,9999,2119390300
3720,3,ISIP_8,46,9999,9999,9999,2120191076
3720,3,ISIP_8,47,9999,9999,9999,2120990804
3720,3,ISIP_8,48,9999,9999,9999,2121790536
3720,3,ISIP_8,49,9999,9999,9999,2122590264
3720,3,ISIP_8,50,9999,9999,9999,2123391040
3720,3,ISIP_8,51,9999,9999,9999,2124190772
3720,3,ISIP_8,52,9999,9999,9999,2124990524
3720,3,ISIP_8,53,9999,9999,9999,2125790328
3720,3,ISIP_8,54,9999,9999,9999,2126591028
3720,3,ISIP_8,55,9999,9999,9999,2127390832
3720,3,ISIP_8,56,9999,9999,9999,2128190564
3720,3,ISIP_8,57,9999,9999,9999,2128990292
3720,3,ISIP_8,58,9999,9999,9999,2129791068
3720,3,ISIP_8,59,9999,9999,9999,2130590796
3720,3,ISIP_8,60,9999,9999,9999,2131390552
3720,3,ISIP_8,61,9999,9999,9999,2132190280
3720,3,ISIP_8,62,9999,9999,9999,2132991056
3720,3,ISIP_8,63,9999,9999,9999,2133790784
3720,3,ISIP_8,64,9999,9999,9999,2134590512
3720,3,ISIP_8,65,9999,9999,9999,2135390320
3720,3,ISIP_8,66,9999,9999,9999,2136191092
3720,3,ISIP_8,67,9999,9999,9999,2136990824
3720,3,ISIP_8,68,9999,9999,9999,2137790580
3720,3,ISIP_8,69,9999,9999,9999,2138590308
3720,3,ISIP_8,70,9999,9999,9999,2139391084
3720,3,ISIP_8,71,9999,9999,9999,2140190812
3720,3,ISIP_8,72,9999,9999,9999,2140990540
3720,3,ISIP_8,73,9999,9999,9999,2141790268
3720,3,ISIP_8,74,9999,9999,9999,2142591044
3720,3,ISIP_8,75,9999,9999,9999,2143390772
3720,3,ISIP_8,76,9999,9999,9999,2144190528
3720,3,ISIP_8,77,9999,9999,9999,2144990256
3720,3,ISIP_8,78,9999,9999,9999,2145791032
3720,3,ISIP_8,79,9999,9999,9999,2146590836
3720,3,ISIP_8,80,9999,9999,9999,2147390568
3720,3,ISIP_8,81,9999,9999,9999,2148190296
3720,3,ISIP_8,82,9999,9999,9999,2148991072
3720,3,ISIP_8,83,9999,9999,9999,2149790800
3720,3,ISIP_8,84,9999,9999,9999,2150590556
3720,3,ISIP_8,85,9999,9999,9999,2151390276
3720,3,ISIP_8,86,9999,9999,9999,2152191056
3720,3,ISIP_8,87,9999,9999,9999,2152990784
3720,3,ISIP_8,88,9999,9999,9999,2153790572
3720,3,ISIP_8,89,9999,9999,9999,2154590304
3720,3,ISIP_8,90,9999,9999,9999,2155391076
3720,3,ISIP_8,91,9999,9999,9999,2156190804
3720,3,ISIP_8,92,9999,9999,9999,2156990560
3720,3,ISIP_8,93,9999,9999,9999,2157790292
3720,3,ISIP_8,94,9999,9999,9999,2158591064
3720,3,ISIP_8,95,9999,9999,9999,2159390796
3720,3,ISIP_8,96,9999,9999,9999,2160190524
3720,3,ISIP_8,97,9999,9999,9999,2160990328
3720,3,ISIP_8,98,9999,9999,9999,2161791028
3720,3,ISIP_8,99,9999,9999,9999,2162590832
3720,3,ISIP_8,100,9999,9999,9999,2163390512
3720,3,ISIP_8,101,9999,9999,9999,2164190316
3720,3,ISIP_8,102,9999,9999,9999,2164991092
3720,3,ISIP_8,103,9999,9999,9999,2165790820
3720,3,ISIP_8,104,9999,9999,9999,2166590552
3720,3,ISIP_8,105,9999,9999,9999,2167390280
3720,3,ISIP_8,106,9999,9999,9999,2168191056
3720,3,ISIP_8,107,9999,9999,9999,2168990784
3720,3,ISIP_8,108,9999,9999,9999,2169790540
3720,3,ISIP_8,109,9999,9999,9999,2170590268
3720,3,ISIP_8,110,9999,9999,9999,2171391044
3720,3,ISIP_8,111,9999,9999,9999,2172190840
3720,3,ISIP_8,112,9999,9999,9999,2172990576
3720,3,ISIP_8,113,9999,9999,9999,2173790276
3720,3,ISIP_8,114,9999,9999,9999,2174591036
3720,3,ISIP_8,115,9999,9999,9999,2175390840
3720,3,ISIP_8,116,9999,9999,9999,2176190520
3720,3,ISIP_8,117,9999,9999,9999,2176990324
3720,3,ISIP_8,118,9999,9999,9999,2177791024
3720,3,ISIP_8,119,9999,9999,9999,2178590828
3720,3,ISIP_8,120,9999,9999,9999,2179390556
3720,3,ISIP_8,121,9999,9999,9999,2180190288
3720,3,ISIP_8,122,9999,9999,9999,2180991064
3720,3,ISIP_8,123,9999,9999,9999,2181790792
3720,3,ISIP_8,124,9999,9999,9999,2182590540
3720,3,ISIP_8,125,9999,9999,9999,2183390328
3720,3,ISIP_8,126,9999,9999,9999,2184191028
3720,3,ISIP_8,127,9999,9999,9999,2184990832
3720,3,ISIP_8,128,9999,9999,9999,2185790560
3720,3,ISIP_8,129,9999,9999,9999,2186590288
3720,3,ISIP_8,130,9999,9999,9999,2187391064
3720,3,ISIP_8,131,9999,9999,9999,2188190796
3720,3,ISIP_8,132,9999,9999,9999,2188990548
3720,3,ISIP_8,133,9999,9999,9999,2189790280
3720,3,ISIP_8,134,9999,9999,9999,2190591056
3720,3,ISIP_8,135,9999,9999,9999,2191390784
3720,3,ISIP_8,136,9999,9999,9999,2192190512
3720,3,ISIP_8,137,9999,9999,9999,2192990316
3720,3,ISIP_8,138,9999,9999,9999,2193791096
3720,3,ISIP_8,139,9999,9999,9999,2194590824
3720,3,ISIP_8,140,9999,9999,9999,2195390572
3720,3,ISIP_8,141,9999,9999,9999,2196190300
3720,3,ISIP_8,142,9999,9999,9999,2196991060
3720,3,ISIP_8,143,9999,9999,9999,2197790792
3720,3,ISIP_8,144,9999,9999,9999,2198590520
3720,3,ISIP_8,145,9999,9999,9999,2199390324
3720,3,ISIP_8,146,9999,9999,9999,2200191024
3720,3,ISIP_8,147,9999,9999,9999,2200990828
3720,3,ISIP_8,148,9999,9999,9999,2201790580
3720,3,ISIP_8,149,9999,9999,9999,2202590312
3721,5,ISIP_5,0,5,42,127,2228234492
3721,5,ISIP_5,1,5,42,127,2228735400
3721,5,ISIP_5,2,1,48,43,2229194840
3721,5,ISIP_5,3,5,42,127,2229235112
3721,5,ISIP_5,4,1,48,43,2229658228
3721,5,ISIP_5,5,5,42,127,2229734880
3721,5,ISIP_5,6,1,48,42,2230161140
3721,5,ISIP_5,7,5,42,127,2230234428
3721,5,ISIP_5,8,1,48,39,2230658296
3721,5,ISIP_5,9,5,42,127,2230735172
3721,5,ISIP_5,10,1,48,36,2231166588
3721,5,ISIP_5,11,5,42,127,2231235160
3721,5,ISIP_5,12,1,48,33,2231668080
3721,5,ISIP_5,13,5,42,127,2231734560
3721,5,ISIP_5,14,1,48,36,2232193656
3721,5,ISIP_5,15,5,42,127,2232235308
3721,5,ISIP_5,16,1,48,35,2232686468
3721,5,ISIP_5,17,5,42,127,2232735048
3721,5,ISIP_5,18,1,48,35,2233216608
3721,5,ISIP_5,19,5,42,127,2233234820
3721,5,ISIP_5,20,1,48,35,2233702092
3721,5,ISIP_5,21,5,42,127,2233734588
3721,5,ISIP_5,22,1,48,36,2234165288
3721,5,ISIP_5,23,5,42,127,2234235180
3721,5,ISIP_5,24,1,48,38,2234699236
3721,5,ISIP_5,25,5,42,127,2234734948
3721,5,ISIP_5,26,1,48,40,2235227728
3721,5,ISIP_5,27,5,42,127,2235234864
3721,5,ISIP_5,28,1,48,30,2235735688
3721,5,ISIP_5,29,5,42,127,2235737180
3721,5,ISIP_5,30,1,48,25,2236220232
3721,5,ISIP_5,31,5,42,127,2236235152
3721,5,ISIP_5,32,1,48,36,2236722400
3721,5,ISIP_5,33,5,42,127,2236734772
3721,5,ISIP_5,34,5,42,127,2237234624
3721,5,ISIP_5,35,1,48,34,2237242904
3721,5,ISIP_5,36,5,42,127,2237735216
3721,5,ISIP_5,37,1,48,32,2237750456
3721,5,ISIP_5,38,5,42,127,2238235060
3721,5,ISIP_5,39,1,48,32,2238240200
3721,5,ISIP_5,40,1,48,35,2238718560
3721,5,ISIP_5,41,5,42,127,2238734824
3721,5,ISIP_5,42,1,48,34,2239134380
3721,5,ISIP_5,43,5,42,127,2239234576
3721,5,ISIP_5,44,1,48,39,2239603784
3721,5,ISIP_5,45,5,42,127,2239735020
3721,5,ISIP_5,46,1,48,22,2240182860
3721,5,ISIP_5,47,5,42,127,2240234956
3721,5,ISIP_5,48,1,48,37,2240698040
3721,5,ISIP_5,49,5,42,127,2240734500
3721,5,ISIP_5,50,1,48,35,2241193768
3721,5,ISIP_5,51,5,42,127,2241235392
3721,5,ISIP_5,52,1,48,35,2241674964
3721,5,ISIP_5,53,5,42,127,2241735084
3721,5,ISIP_5,54,1,48,37,2242195904
3721,5,ISIP_5,55,5,42,127,2242234780
3721,5,ISIP_5,56,1,48,32,2242712128
3721,5,ISIP_5,57,5,42,127,2242734624
3721,5,ISIP_5,58,1,48,32,2243200972
3721,5,ISIP_5,59,5,42,127,2243235192
3721,5,ISIP_5,60,1,48,29,2243667508
3721,5,ISIP_5,61,5,42,127,2243734860
3721,5,ISIP_5,62,1,48,36,2244198472
3721,5,ISIP_5,63,5,42,127,2244234632
3721,5,ISIP_5,64,1,48,32,2244722400
3721,5,ISIP_5,65,5,42,127,2244735372
3721,5,ISIP_5,66,1,48,29,2245221500
3721,5,ISIP_5,67,5,42,127,2245234920
3721,5,ISIP_5,68,1,48,37,2245690604
3721,5,ISIP_5,69,5,42,127,2245734692
3721,5,ISIP_5,70,1,48,26,2246197328
3721,5,ISIP_5,71,5,42,127,2246234608
3721,5,ISIP_5,72,1,48,36,2246652292
3721,5,ISIP_5,73,5,42,127,2246735500
3721,5,ISIP_5,74,1,48,39,2247168368
3721,5,ISIP_5,75,5,42,127,2247235044
3721,5,ISIP_5,76,1,48,40,2247711820
3721,5,ISIP_5,77,5,42,127,2247734664
3721,5,ISIP_5,78,1,48,37,2248205460
3721,5,ISIP_5,79,1,48,34,2248765596
3721,5,ISIP_5,80,1,48,34,2249277104
3721,5,ISIP_5,81,1,48,38,2249792352
3721,5,ISIP_5,82,1,48,38,2250306028
3721,5,ISIP_5,83,1,48,36,2250836536
3721,5,ISIP_5,84,1,48,36,2251330392
3721,5,ISIP_5,85,1,48,35,2251867560
3721,5,ISIP_5,86,1,48,39,2252375252
3721,5,ISIP_5,87,1,48,38,2252956544
3721,5,ISIP_5,88,1,48,40,2253483560
3721,5,ISIP_5,89,1,48,26,2253962060
3721,5,ISIP_5,90,1,48,41,2254485688
3721,5,ISIP_5,91,1,48,41,2255034544
3721,5,ISIP_5,92,1,48,33,2255525408
3721,5,ISIP_5,93,1,48,42,2256056960
3721,5,ISIP_5,94,1,48,43,2256542940
3721,5,ISIP_5,95,1,48,37,2257093744
3721,5,ISIP_5,96,1,48,35,2257606448
3721,5,ISIP_5,97,1,48,33,2258133964
3721,5,ISIP_5,98,1,48,41,2258618996
3721,5,ISIP_5,99,1,48,37,2259157432
3721,5,ISIP_5,100,1,48,38,2259683004
3721,5,ISIP_5,101,1,48,34,2260186656
3721,5,ISIP_5,102,1,48,39,2260720304
3721,5,ISIP_5,103,1,48,33,2261229048
3721,5,ISIP_5,104,1,48,34,2261752388
3721,5,ISIP_5,105,1,48,39,2262269060
3721,5,ISIP_5,106,1,48,39,2262798144
3721,5,ISIP_5,107,1,48,30,2263302400
3721,5,ISIP_5,108,1,48,30,2263797976
3721,5,ISIP_5,109,1,48,36,2264292280
3721,5,ISIP_5,110,1,48,43,2264776936
3721,5,ISIP_5,111,1,48,39,2265313052
3721,5,ISIP_5,112,1,48,36,2265818580
3721,5,ISIP_5,113,1,48,36,2266337116
3721,5,ISIP_5,114,1,48,38,2266871140
3721,5,ISIP_5,115,1,48,29,2267362380
3721,5,ISIP_5,116,1,48,35,2267871272
3721,5,ISIP_5,117,1,48,33,2268384428
3721,5,ISIP_5,118,1,48,33,2268912164
3721,5,ISIP_5,119,1,48,32,2269418136
3721,5,ISIP_5,120,1,48,40,2269907360
3721,5,ISIP_5,121,1,48,38,2270421556
3721,5,ISIP_5,122,1,48,44,2270914516
3721,5,ISIP_5,123,1,48,37,2271413012
3721,5,ISIP_5,124,1,48,41,2271926164
3721,5,ISIP_5,125,1,48,33,2272430572
3721,5,ISIP_5,126,1,48,46,2272914680
3721,5,ISIP_5,127,1,48,29,2273386244
3721,5,ISIP_5,128,1,48,41,2273887580
3721,5,ISIP_5,129,1,48,36,2274378896
3721,5,ISIP_5,130,1,48,43,2274868860
3721,5,ISIP_5,131,1,48,35,2275355088
3721,5,ISIP_5,132,1,48,33,2275855296
3721,5,ISIP_5,133,1,48,32,2276312432
3721,5,ISIP_5,134,1,48,40,2276823416
3721,5,ISIP_5,135,1,48,32,2277308596
3721,5,ISIP_5,136,1,48,32,2277773180
3721,5,ISIP_5,137,1,48,38,2278279752
3721,5,ISIP_5,138,1,48,48,2278760972
3721,5,ISIP_5,139,1,48,37,2279243084
3721,5,ISIP_5,140,1,48,35,2279698104
3721,5,ISIP_5,141,1,48,30,2280182164
3721,5,ISIP_5,142,1,48,42,2280677516
3721,5,ISIP_5,143,1,48,41,2281151852
3721,5,ISIP_5,144,1,48,37,2281667468
3721,5,ISIP_5,145,1,48,38,2282133780
3721,5,ISIP_5,146,1,48,37,2282630404
3721,5,ISIP_5,147,1,48,33,2283123060
3721,5,ISIP_5,148,1,48,28,2283565160
3721,5,ISIP_5,149,1,48,34,2284086836
3721,5,ISIP_5,150,1,48,34,2284563264
3721,5,ISIP_5,151,1,48,36,2285055476
3721,5,ISIP_5,152,1,48,32,2285508044
3721,5,ISIP_5,153,1,48,36,2286022248
3721,5,ISIP_5,154,1,48,46,2286522984
3721,5,ISIP_5,155,1,48,37,2287008140
3721,5,ISIP_5,156,1,48,38,2287505664
3721,5,ISIP_5,157,1,48,40,2288003260
3721,5,ISIP_5,158,1,48,43,2288495240
3721,5,ISIP_5,159,1,48,37,2289034576
3721,5,ISIP_5,160,1,48,44,2289545932
3721,5,ISIP_5,161,1,48,43,2290014204
3721,5,ISIP_5,162,1,48,49,2290495948
3721,5,ISIP_5,163,1,48,43,2291001548
3721,5,ISIP_5,164,1,48,40,2291508272
3721,5,ISIP_5,165,1,48,39,2292017832
3721,5,ISIP_5,166,1,48,48,2292493136
3721,5,ISIP_5,167,1,48,47,2292950864
3721,5,ISIP_5,168,1,48,45,2293474568
3721,5,ISIP_5,169,1,48,42,2293934692
3721,5,ISIP_5,170,1,48,48,2294437596
3721,5,ISIP_5,171,1,48,41,2294913628
3721,5,ISIP_5,172,1,48,39,2295381604
3721,5,ISIP_5,173,1,48,34,2295872992
3721,5,ISIP_5,174,1,48,43,2296377316
3721,5,ISIP_5,175,1,48,42,2296834896
3721,5,ISIP_5,176,1,48,43,2297370792
3721,5,ISIP_5,177,1,48,37,2297882900
3721,5,ISIP_5,178,1,48,49,2298361948
3721,5,ISIP_5,179,1,48,41,2298866420
3721,5,ISIP_5,180,1,48,43,2299340604
3721,5,ISIP_5,181,1,48,47,2299820624
3721,5,ISIP_5,182,1,48,38,2300321512
3721,5,ISIP_5,183,1,48,42,2300784080
3721,5,ISIP_5,184,1,48,38,2301299328
3721,5,ISIP_5,185,1,48,45,2301751672
3721,5,ISIP_5,186,1,48,48,2302254356
3721,5,ISIP_5,187,1,48,43,2302743796
3721,5,ISIP_5,188,1,48,41,2303248500
3721,5,ISIP_5,189,1,48,46,2303736296
3721,5,ISIP_5,190,1,48,44,2304238684
3721,5,ISIP_5,191,1,48,31,2304713668
3721,5,ISIP_5,192,1,48,35,2305154620
3721,5,ISIP_5,193,1,48,35,2305635836
3721,5,ISIP_5,194,1,48,51,2306152956
3721,5,ISIP_5,195,1,48,44,2306612104
3721,5,ISIP_5,196,1,48,40,2307094068
3721,5,ISIP_5,197,1,48,40,2307581716
3721,5,ISIP_5,198,1,48,51,2308072508
3721,5,ISIP_5,0,9999,9999,9999,2228232276
3721,5,ISIP_5,1,9999,9999,9999,2228733040
3721,5,ISIP_5,2,9999,9999,9999,2229232752
3721,5,ISIP_5,3,9999,9999,9999,2229732444
3721,5,ISIP_5,4,9999,9999,9999,2230232144
3721,5,ISIP_5,5,9999,9999,9999,2230732884
3721,5,ISIP_5,6,9999,9999,9999,2231232576
3721,5,ISIP_5,7,9999,9999,9999,2231732272
3721,5,ISIP_5,8,9999,9999,9999,2232233016
3721,5,ISIP_5,9,9999,9999,9999,2232732760
3721,5,ISIP_5,10,9999,9999,9999,2233232456
3721,5,ISIP_5,11,9999,9999,9999,2233732152
3721,5,ISIP_5,12,9999,9999,9999,2234232892
3721,5,ISIP_5,13,9999,9999,9999,2234732664
3721,5,ISIP_5,14,9999,9999,9999,2235232356
3721,5,ISIP_5,15,9999,9999,9999,2235733104
3721,5,ISIP_5,16,9999,9999,9999,2236232792
3721,5,ISIP_5,17,9999,9999,9999,2236732488
3721,5,ISIP_5,18,9999,9999,9999,2237232188
3721,5,ISIP_5,19,9999,9999,9999,2237732928
3721,5,ISIP_5,20,9999,9999,9999,2238232628
3721,5,ISIP_5,21,9999,9999,9999,2238732388
3721,5,ISIP_5,22,9999,9999,9999,2239232088
3721,5,ISIP_5,23,9999,9999,9999,2239732808
3721,5,ISIP_5,24,9999,9999,9999,2240232520
3721,5,ISIP_5,25,9999,9999,9999,2240732216
3721,5,ISIP_5,26,9999,9999,9999,2241232956
3721,5,ISIP_5,27,9999,9999,9999,2241732724
3721,5,ISIP_5,28,9999,9999,9999,2242232420
3721,5,ISIP_5,29,9999,9999,9999,2242732112
3721,5,ISIP_5,30,9999,9999,9999,2243232828
3721,5,ISIP_5,31,9999,9999,9999,2243732576
3721,5,ISIP_5,32,9999,9999,9999,2244232268
3721,5,ISIP_5,33,9999,9999,9999,2244733012
3721,5,ISIP_5,34,9999,9999,9999,2245232708
3721,5,ISIP_5,35,9999,9999,9999,2245732404
3721,5,ISIP_5,36,9999,9999,9999,2246232172
3721,5,ISIP_5,37,9999,9999,9999,2246732916
3721,5,ISIP_5,38,9999,9999,9999,2247232608
3721,5,ISIP_5,39,9999,9999,9999,2247732304
3721,5,ISIP_5,40,9999,9999,9999,2248233048
3721,5,ISIP_5,41,9999,9999,9999,2248732744
3721,5,ISIP_5,42,9999,9999,9999,2249232436
3721,5,ISIP_5,43,9999,9999,9999,2249732200
3721,5,ISIP_5,44,9999,9999,9999,2250232936
3721,5,ISIP_5,45,9999,9999,9999,2250732628
3721,5,ISIP_5,46,9999,9999,9999,2251232320
3721,5,ISIP_5,47,9999,9999,9999,2251733056
3721,5,ISIP_5,48,9999,9999,9999,2252232820
3721,5,ISIP_5,49,9999,9999,9999,2252732508
3721,5,ISIP_5,50,9999,9999,9999,2253232200
3721,5,ISIP_5,51,9999,9999,9999,2253732936
3721,5,ISIP_5,52,9999,9999,9999,2254232680
3721,5,ISIP_5,53,9999,9999,9999,2254732368
3721,5,ISIP_5,54,9999,9999,9999,2255232060
3721,5,ISIP_5,55,9999,9999,9999,2255732800
3721,5,ISIP_5,56,9999,9999,9999,2256232564
3721,5,ISIP_5,57,9999,9999,9999,2256732252
3721,5,ISIP_5,58,9999,9999,9999,2257232992
3721,5,ISIP_5,59,9999,9999,9999,2257732684
3721,5,ISIP_5,60,9999,9999,9999,2258232376
3721,5,ISIP_5,61,9999,9999,9999,2258732144
3721,5,ISIP_5,62,9999,9999,9999,2259232820
3721,5,ISIP_5,63,9999,9999,9999,2259732584
3721,5,ISIP_5,64,9999,9999,9999,2260232276
3721,5,ISIP_5,65,9999,9999,9999,2260733012
3721,5,ISIP_5,66,9999,9999,9999,2261232704
3721,5,ISIP_5,67,9999,9999,9999,2261732400
3721,5,ISIP_5,68,9999,9999,9999,2262232168
3721,5,ISIP_5,69,9999,9999,9999,2262732904
3721,5,ISIP_5,70,9999,9999,9999,2263232596
3721,5,ISIP_5,71,9999,9999,9999,2263732288
3721,5,ISIP_5,72,9999,9999,9999,2264233024
3721,5,ISIP_5,73,9999,9999,9999,2264732764
3721,5,ISIP_5,74,9999,9999,9999,2265232456
3721,5,ISIP_5,75,9999,9999,9999,2265732144
3721,5,ISIP_5,76,9999,9999,9999,2266232884
3721,5,ISIP_5,77,9999,9999,9999,2266732648
3721,5,ISIP_5,78,9999,9999,9999,2267232340
3721,5,ISIP_5,79,9999,9999,9999,2267733076
3721,5,ISIP_5,80,9999,9999,9999,2268232768
3721,5,ISIP_5,81,9999,9999,9999,2268732532
3721,5,ISIP_5,82,9999,9999,9999,2269232224
3721,5,ISIP_5,83,9999,9999,9999,2269732964
3721,5,ISIP_5,84,9999,9999,9999,2270232652
3721,5,ISIP_5,85,9999,9999,9999,2270732344
3721,5,ISIP_5,86,9999,9999,9999,2271232112
3721,5,ISIP_5,87,9999,9999,9999,2271732848
3721,5,ISIP_5,88,9999,9999,9999,2272232540
3721,5,ISIP_5,89,9999,9999,9999,2272732232
3721,5,ISIP_5,90,9999,9999,9999,2273232968
3721,5,ISIP_5,91,9999,9999,9999,2273732656
3721,5,ISIP_5,92,9999,9999,9999,2274232424
3721,5,ISIP_5,93,9999,9999,9999,2274732116
3721,5,ISIP_5,94,9999,9999,9999,2275232828
3721,5,ISIP_5,95,9999,9999,9999,2275732592
3721,5,ISIP_5,96,9999,9999,9999,2276232284
3721,5,ISIP_5,97,9999,9999,9999,2276733020
3721,5,ISIP_5,98,9999,9999,9999,2277232712
3721,5,ISIP_5,99,9999,9999,9999,2277732400
3721,5,ISIP_5,100,9999,9999,9999,2278232168
3721,5,ISIP_5,101,9999,9999,9999,2278732904
3721,5,ISIP_5,102,9999,9999,9999,2279232596
3721,5,ISIP_5,103,9999,9999,9999,2279732280
3721,5,ISIP_5,104,9999,9999,9999,2280233020
3721,5,ISIP_5,105,9999,9999,9999,2280732784
3721,5,ISIP_5,106,9999,9999,9999,2281232472
3721,5,ISIP_5,107,9999,9999,9999,2281732164
3721,5,ISIP_5,108,9999,9999,9999,2282232884
3721,5,ISIP_5,109,9999,9999,9999,2282732652
3721,5,ISIP_5,110,9999,9999,9999,2283232340
3721,5,ISIP_5,111,9999,9999,9999,2283733080
3721,5,ISIP_5,112,9999,9999,9999,2284232772
3721,5,ISIP_5,113,9999,9999,9999,2284732536
3721,5,ISIP_5,114,9999,9999,9999,2285232224
3721,5,ISIP_5,115,9999,9999,9999,2285732964
3721,5,ISIP_5,116,9999,9999,9999,2286232628
3721,5,ISIP_5,117,9999,9999,9999,2286732392
3721,5,ISIP_5,118,9999,9999,9999,2287232084
3721,5,ISIP_5,119,9999,9999,9999,2287732820
3721,5,ISIP_5,120,9999,9999,9999,2288232512
3721,5,ISIP_5,121,9999,9999,9999,2288732276
3721,5,ISIP_5,122,9999,9999,9999,2289233012
3721,5,ISIP_5,123,9999,9999,9999,2289732704
3721,5,ISIP_5,124,9999,9999,9999,2290232396
3721,5,ISIP_5,125,9999,9999,9999,2290732084
3721,5,ISIP_5,126,9999,9999,9999,2291232820
3721,5,ISIP_5,127,9999,9999,9999,2291732588
3721,5,ISIP_5,128,9999,9999,9999,2292232280
3721,5,ISIP_5,129,9999,9999,9999,2292733016
3721,5,ISIP_5,130,9999,9999,9999,2293232708
3721,5,ISIP_5,131,9999,9999,9999,2293732472
3721,5,ISIP_5,132,9999,9999,9999,2294232164
3721,5,ISIP_5,133,9999,9999,9999,2294732900
3721,5,ISIP_5,134,9999,9999,9999,2295232592
3721,5,ISIP_5,135,9999,9999,9999,2295732280
3721,5,ISIP_5,136,9999,9999,9999,2296233020
3721,5,ISIP_5,137,9999,9999,9999,2296732760
3721,5,ISIP_5,138,9999,9999,9999,2297232452
3721,5,ISIP_5,139,9999,9999,9999,2297732216
3721,5,ISIP_5,140,9999,9999,9999,2298232952
3721,5,ISIP_5,141,9999,9999,9999,2298732644
3721,5,ISIP_5,142,9999,9999,9999,2299232332
3721,5,ISIP_5,143,9999,9999,9999,2299733072
3721,5,ISIP_5,144,9999,9999,9999,2300232764
3721,5,ISIP_5,145,9999,9999,9999,2300732528
3721,5,ISIP_5,146,9999,9999,9999,2301232220
3721,5,ISIP_5,147,9999,9999,9999,2301732956
3721,5,ISIP_5,148,9999,9999,9999,2302232644
3721,5,ISIP_5,149,9999,9999,9999,2302732336
3721,5,ISIP_5,150,9999,9999,9999,2303232100
3721,5,ISIP_5,151,9999,9999,9999,2303732840
3721,5,ISIP_5,152,9999,9999,9999,2304232532
3721,5,ISIP_5,153,9999,9999,9999,2304732216
3721,5,ISIP_5,154,9999,9999,9999,2305232952
3721,5,ISIP_5,155,9999,9999,9999,2305732700
3721,5,ISIP_5,156,9999,9999,9999,2306232404
3721,5,ISIP_5,157,9999,9999,9999,2306732084
3721,5,ISIP_5,158,9999,9999,9999,2307232820
3721,5,ISIP_5,159,9999,9999,9999,2307732560
3722,11,Pattern_Practice,0,5,42,127,2424374504
3722,11,Pattern_Practice,1,5,42,127,2424875492
3722,11,Pattern_Practice,2,5,42,127,2425375132
3722,11,Pattern_Practice,3,1,48,43,2425401288
3722,11,Pattern_Practice,4,1,38,51,2425795200
3722,11,Pattern_Practice,5,5,42,127,2425874896
3722,11,Pattern_Practice,6,1,48,30,2425883400
3722,11,Pattern_Practice,7,1,48,24,2426068052
3722,11,Pattern_Practice,8,1,38,52,2426314288
3722,11,Pattern_Practice,9,1,48,44,2426372856
3722,11,Pattern_Practice,10,5,42,127,2426374884
3722,11,Pattern_Practice,11,1,48,29,2426618164
3722,11,Pattern_Practice,12,1,38,49,2426829024
3722,11,Pattern_Practice,13,5,42,127,2426875504
3722,11,Pattern_Practice,14,1,48,44,2426912284
3722,11,Pattern_Practice,15,1,48,25,2427070004
3722,11,Pattern_Practice,16,1,38,47,2427304500
3722,11,Pattern_Practice,17,5,42,127,2427374844
3722,11,Pattern_Practice,18,1,48,45,2427431800
3722,11,Pattern_Practice,19,1,48,32,2427643408
3722,11,Pattern_Practice,20,1,38,54,2427863616
3722,11,Pattern_Practice,21,5,42,127,2427874644
3722,11,Pattern_Practice,22,1,48,43,2427936932
3722,11,Pattern_Practice,23,1,48,31,2428154416
3722,11,Pattern_Practice,24,5,42,127,2428375340
3722,11,Pattern_Practice,25,1,38,59,2428406728
3722,11,Pattern_Practice,26,5,42,127,2428875108
3722,11,Pattern_Practice,27,1,48,45,2428909564
3722,11,Pattern_Practice,28,5,42,127,2429374732
3722,11,Pattern_Practice,29,1,48,43,2429405452
3722,11,Pattern_Practice,30,1,38,68,2429781236
3722,11,Pattern_Practice,31,5,42,127,2429874568
3722,11,Pattern_Practice,32,1,48,45,2429894876
3722,11,Pattern_Practice,33,1,48,35,2430237076
3722,11,Pattern_Practice,34,5,42,127,2430375272
3722,11,Pattern_Practice,35,1,38,70,2430389832
3722,11,Pattern_Practice,36,1,48,36,2430756048
3722,11,Pattern_Practice,37,5,42,127,2430875316
3722,11,Pattern_Practice,38,1,38,71,2430915312
3722,11,Pattern_Practice,39,1,48,32,2431327896
3722,11,Pattern_Practice,40,5,42,127,2431374608
3722,11,Pattern_Practice,41,1,38,75,2431463304
3722,11,Pattern_Practice,42,1,48,37,2431779856
3722,11,Pattern_Practice,43,5,42,127,2431875240
3722,11,Pattern_Practice,44,1,38,77,2431933432
3722,11,Pattern_Practice,45,1,48,44,2432024144
3722,11,Pattern_Practice,46,1,38,86,2432134568
3722,11,Pattern_Practice,47,1,38,52,2432172792
3722,11,Pattern_Practice,48,1,48,43,2432331868
3722,11,Pattern_Practice,49,5,42,127,2432375208
3722,11,Pattern_Practice,50,1,38,70,2432779724
3722,11,Pattern_Practice,51,5,42,127,2432875048
3722,11,Pattern_Practice,52,1,48,46,2432910616
3722,11,Pattern_Practice,53,1,38,51,2433291816
3722,11,Pattern_Practice,54,5,42,127,2433374572
3722,11,Pattern_Practice,55,1,48,43,2433465516
3722,11,Pattern_Practice,56,1,38,51,2433791188
3722,11,Pattern_Practice,57,5,42,127,2433875292
3722,11,Pattern_Practice,58,1,48,45,2434003188
3722,11,Pattern_Practice,59,1,38,61,2434084096
3722,11,Pattern_Practice,60,1,48,30,2434196464
3722,11,Pattern_Practice,61,5,42,127,2434375128
3722,11,Pattern_Practice,62,1,48,23,2434384980
3722,11,Pattern_Practice,63,1,48,37,2434578180
3722,11,Pattern_Practice,64,1,38,67,2434651016
3722,11,Pattern_Practice,65,5,42,127,2434874692
3722,11,Pattern_Practice,66,1,48,38,2434875660
3722,11,Pattern_Practice,67,1,38,53,2435164664
3722,11,Pattern_Practice,68,5,42,127,2435374440
3722,11,Pattern_Practice,69,1,38,50,2435768428
3722,11,Pattern_Practice,70,5,42,127,2435875108
3722,11,Pattern_Practice,71,1,38,52,2436302008
3722,11,Pattern_Practice,72,1,38,43,2436327492
3722,11,Pattern_Practice,73,5,42,127,2436374868
3722,11,Pattern_Practice,74,1,38,54,2436812448
3722,11,Pattern_Practice,75,5,42,127,2436874564
3722,11,Pattern_Practice,76,1,48,54,2436907288
3722,11,Pattern_Practice,77,1,48,40,2437084784
3722,11,Pattern_Practice,78,1,48,32,2437249988
3722,11,Pattern_Practice,79,5,42,127,2437375320
3722,11,Pattern_Practice,80,1,38,64,2437419132
3722,11,Pattern_Practice,81,1,48,48,2437480892
3722,11,Pattern_Practice,82,1,48,34,2437669072
3722,11,Pattern_Practice,83,1,48,21,2437818968
3722,11,Pattern_Practice,84,5,42,127,2437875104
3722,11,Pattern_Practice,85,1,38,62,2437902980
3722,11,Pattern_Practice,86,1,48,40,2437995932
3722,11,Pattern_Practice,87,1,48,31,2438162868
3722,11,Pattern_Practice,88,1,48,29,2438324204
3722,11,Pattern_Practice,89,5,42,127,2438374880
3722,11,Pattern_Practice,90,1,38,68,2438432360
3722,11,Pattern_Practice,91,1,48,27,2438588092
3722,11,Pattern_Practice,92,1,48,28,2438749036
3722,11,Pattern_Practice,93,5,42,127,2438874368
3722,11,Pattern_Practice,94,1,48,38,2438926776
3722,11,Pattern_Practice,95,1,38,48,2438932292
3722,11,Pattern_Practice,96,1,48,40,2439094952
3722,11,Pattern_Practice,97,1,48,25,2439243776
3722,11,Pattern_Practice,98,5,42,127,2439375168
3722,11,Pattern_Practice,99,1,38,46,2439413736
3722,11,Pattern_Practice,100,1,48,45,2439441548
3722,11,Pattern_Practice,101,1,48,37,2439622604
3722,11,Pattern_Practice,102,1,48,32,2439779208
3722,11,Pattern_Practice,103,5,42,127,2439874920
3722,11,Pattern_Practice,104,1,38,49,2439885812
3722,11,Pattern_Practice,105,1,48,46,2439938232
3722,11,Pattern_Practice,106,1,48,37,2440109492
3722,11,Pattern_Practice,107,1,48,26,2440256748
3722,11,Pattern_Practice,108,1,38,43,2440350556
3722,11,Pattern_Practice,109,5,42,127,2440374812
3722,11,Pattern_Practice,110,1,48,39,2440424756
3722,11,Pattern_Practice,111,1,48,32,2440587764
3722,11,Pattern_Practice,112,1,48,29,2440739980
3722,11,Pattern_Practice,113,1,38,42,2440841980
3722,11,Pattern_Practice,114,5,42,127,2440875328
3722,11,Pattern_Practice,115,1,48,39,2440930728
3722,11,Pattern_Practice,116,1,48,27,2441095460
3722,11,Pattern_Practice,117,1,48,27,2441259716
3722,11,Pattern_Practice,118,1,38,45,2441331352
3722,11,Pattern_Practice,119,5,42,127,2441375228
3722,11,Pattern_Practice,120,1,48,38,2441443708
3722,11,Pattern_Practice,121,1,48,21,2441680816
3722,11,Pattern_Practice,122,1,38,55,2441870180
3722,11,Pattern_Practice,123,5,42,127,2441874928
3722,11,Pattern_Practice,124,1,48,46,2441924596
3722,11,Pattern_Practice,125,1,48,31,2442174096
3722,11,Pattern_Practice,126,1,38,58,2442335040
3722,11,Pattern_Practice,127,5,42,127,2442374640
3722,11,Pattern_Practice,128,1,48,47,2442422964
3722,11,Pattern_Practice,129,1,38,45,2442770604
3722,11,Pattern_Practice,130,5,42,127,2442875188
3722,11,Pattern_Practice,131,1,48,40,2442907576
3722,11,Pattern_Practice,132,1,38,53,2443277680
3722,11,Pattern_Practice,133,5,42,127,2443374932
3722,11,Pattern_Practice,134,1,48,42,2443385984
3722,11,Pattern_Practice,135,1,38,60,2443733596
3722,11,Pattern_Practice,136,1,48,43,2443841280
3722,11,Pattern_Practice,137,5,42,127,2443874748
3722,11,Pattern_Practice,138,1,38,53,2444196764
3722,11,Pattern_Practice,139,1,48,49,2444353896
3722,11,Pattern_Practice,140,5,42,127,2444375548
3722,11,Pattern_Practice,141,1,48,45,2444473068
3722,11,Pattern_Practice,142,1,48,40,2444625856
3722,11,Pattern_Practice,143,1,38,58,2444768576
3722,11,Pattern_Practice,144,1,48,52,2444823304
3722,11,Pattern_Practice,145,5,42,127,2444875012
3722,11,Pattern_Practice,146,1,48,44,2445276688
3722,11,Pattern_Practice,147,5,42,127,2445374764
3722,11,Pattern_Practice,148,1,48,48,2445421792
3722,11,Pattern_Practice,149,1,38,52,2445435384
3722,11,Pattern_Practice,150,1,48,39,2445774216
3722,11,Pattern_Practice,151,5,42,127,2445874612
3722,11,Pattern_Practice,152,1,38,55,2445934656
3722,11,Pattern_Practice,153,1,48,39,2446255788
3722,11,Pattern_Practice,154,5,42,127,2446375404
3722,11,Pattern_Practice,155,1,38,62,2446452500
3722,11,Pattern_Practice,156,1,48,41,2446459964
3722,11,Pattern_Practice,157,1,48,41,2446622848
3722,11,Pattern_Practice,158,1,48,31,2446761896
3722,11,Pattern_Practice,159,5,42,127,2446874860
3722,11,Pattern_Practice,160,1,38,54,2446889348
3722,11,Pattern_Practice,161,1,48,49,2446975200
3722,11,Pattern_Practice,162,1,48,34,2447309032
3722,11,Pattern_Practice,163,5,42,127,2447374588
3722,11,Pattern_Practice,164,1,48,44,2447468492
3722,11,Pattern_Practice,165,1,38,48,2447785292
3722,11,Pattern_Practice,166,5,42,127,2447874632
3722,11,Pattern_Practice,167,1,48,40,2447934660
3722,11,Pattern_Practice,168,1,48,39,2448223228
3722,11,Pattern_Practice,169,5,42,127,2448375412
3722,11,Pattern_Practice,170,1,38,53,2448416676
3722,11,Pattern_Practice,171,1,48,46,2448461164
3722,11,Pattern_Practice,172,1,48,38,2448634456
3722,11,Pattern_Practice,173,1,38,46,2448754632
3722,11,Pattern_Practice,174,1,48,47,2448864444
3722,11,Pattern_Practice,175,5,42,127,2448874944
3722,11,Pattern_Practice,176,1,38,50,2449013960
3722,11,Pattern_Practice,177,5,42,127,2449374624
3722,11,Pattern_Practice,178,1,48,43,2449416268
3722,11,Pattern_Practice,179,1,38,65,2449550432
3722,11,Pattern_Practice,180,5,42,127,2449875344
3722,11,Pattern_Practice,181,1,38,52,2449921400
3722,11,Pattern_Practice,182,1,48,50,2450050476
3722,11,Pattern_Practice,183,1,38,52,2450351344
3722,11,Pattern_Practice,184,5,42,127,2450375160
3722,11,Pattern_Practice,185,1,48,46,2450464204
3722,11,Pattern_Practice,186,1,38,48,2450765196
3722,11,Pattern_Practice,187,5,42,127,2450874668
3722,11,Pattern_Practice,188,1,48,46,2450904640
3722,11,Pattern_Practice,189,1,48,35,2451061168
3722,11,Pattern_Practice,190,1,38,49,2451236948
3722,11,Pattern_Practice,191,1,48,47,2451324216
3722,11,Pattern_Practice,192,5,42,127,2451374372
3722,11,Pattern_Practice,193,1,38,48,2451681104
3722,11,Pattern_Practice,194,5,42,127,2451875472
3722,11,Pattern_Practice,195,1,48,42,2451911808
3722,11,Pattern_Practice,196,1,38,54,2452193272
3722,11,Pattern_Practice,197,1,48,36,2452301112
3722,11,Pattern_Practice,198,5,42,127,2452374992
3722,11,Pattern_Practice,199,1,38,53,2452590600
3722,11,Pattern_Practice,200,1,48,48,2452745436
3722,11,Pattern_Practice,201,5,42,127,2452874552
3722,11,Pattern_Practice,202,1,48,40,2452933268
3722,11,Pattern_Practice,203,1,38,58,2453098400
3722,11,Pattern_Practice,204,1,48,54,2453200428
3722,11,Pattern_Practice,205,5,42,127,2453375324
3722,11,Pattern_Practice,206,1,38,59,2453577056
3722,11,Pattern_Practice,207,5,42,127,2453875168
3722,11,Pattern_Practice,208,1,48,42,2453927824
3722,11,Pattern_Practice,209,1,38,57,2454044264
3722,11,Pattern_Practice,210,1,48,38,2454343384
3722,11,Pattern_Practice,211,5,42,127,2454374908
3722,11,Pattern_Practice,212,1,38,55,2454493000
3722,11,Pattern_Practice,213,1,48,46,2454618936
3722,11,Pattern_Practice,214,1,48,31,2454795544
3722,11,Pattern_Practice,215,5,42,127,2454874560
3722,11,Pattern_Practice,216,1,38,57,2454939544
3722,11,Pattern_Practice,217,1,48,48,2455043420
3722,11,Pattern_Practice,218,5,42,127,2455375340
3722,11,Pattern_Practice,219,1,38,56,2455385416
3722,11,Pattern_Practice,220,1,48,46,2455493952
3722,11,Pattern_Practice,221,1,38,60,2455803168
3722,11,Pattern_Practice,222,5,42,127,2455875080
3722,11,Pattern_Practice,223,1,48,47,2455908028
3722,11,Pattern_Practice,224,1,38,53,2456209692
3722,11,Pattern_Practice,225,1,48,52,2456349412
3722,11,Pattern_Practice,226,5,42,127,2456374580
3722,11,Pattern_Practice,227,1,48,41,2456529696
3722,11,Pattern_Practice,228,1,38,55,2456717940
3722,11,Pattern_Practice,229,1,48,56,2456829172
3722,11,Pattern_Practice,230,5,42,127,2456875356
3722,11,Pattern_Practice,231,1,48,45,2457240228
3722,11,Pattern_Practice,232,1,38,72,2457366764
3722,11,Pattern_Practice,233,5,42,127,2457375024
3722,11,Pattern_Practice,234,1,48,44,2457694848
3722,11,Pattern_Practice,235,1,38,68,2457822156
3722,11,Pattern_Practice,236,5,42,127,2457874996
3722,11,Pattern_Practice,237,1,48,44,2458155328
3722,11,Pattern_Practice,238,1,38,62,2458320256
3722,11,Pattern_Practice,239,5,42,127,2458374372
3722,11,Pattern_Practice,240,1,48,46,2458436488
3722,11,Pattern_Practice,241,1,48,33,2458606808
3722,11,Pattern_Practice,242,1,38,61,2458776680
3722,11,Pattern_Practice,243,5,42,127,2458875204
3722,11,Pattern_Practice,244,1,48,51,2458899264
3722,11,Pattern_Practice,245,1,48,21,2459162784
3722,11,Pattern_Practice,246,1,48,48,2459321204
3722,11,Pattern_Practice,247,5,42,127,2459375168
3722,11,Pattern_Practice,248,1,38,62,2459449032
3722,11,Pattern_Practice,249,5,42,127,2459874772
3722,11,Pattern_Practice,250,1,48,65,2459881860
3722,11,Pattern_Practice,251,1,48,61,2460032628
3722,11,Pattern_Practice,252,1,48,57,2460166372
3722,11,Pattern_Practice,253,1,38,59,2460287892
3722,11,Pattern_Practice,254,1,48,54,2460374564
3722,11,Pattern_Practice,255,5,42,127,2460376432
3722,11,Pattern_Practice,256,1,48,45,2460527456
3722,11,Pattern_Practice,257,1,48,43,2460682816
3722,11,Pattern_Practice,258,1,38,49,2460767840
3722,11,Pattern_Practice,259,1,48,48,2460844808
3722,11,Pattern_Practice,260,5,42,127,2460875124
3722,11,Pattern_Practice,261,1,48,43,2461004408
3722,11,Pattern_Practice,262,1,48,38,2461171288
3722,11,Pattern_Practice,263,1,38,59,2461207544
3722,11,Pattern_Practice,264,1,48,52,2461330912
3722,11,Pattern_Practice,265,5,42,127,2461374800
3722,11,Pattern_Practice,266,1,48,42,2461492276
3722,11,Pattern_Practice,267,1,48,40,2461655408
3722,11,Pattern_Practice,268,1,38,62,2461771848
3722,11,Pattern_Practice,269,1,48,50,2461823068
3722,11,Pattern_Practice,270,5,42,127,2461874420
3722,11,Pattern_Practice,271,1,48,41,2461994504
3722,11,Pattern_Practice,272,1,48,37,2462151656
3722,11,Pattern_Practice,273,1,38,59,2462270412
3722,11,Pattern_Practice,274,1,48,50,2462321480
3722,11,Pattern_Practice,275,5,42,127,2462375232
3722,11,Pattern_Practice,276,1,48,46,2462488432
3722,11,Pattern_Practice,277,1,48,40,2462643572
3722,11,Pattern_Practice,278,1,38,68,2462762256
3722,11,Pattern_Practice,279,1,48,48,2462803000
3722,11,Pattern_Practice,280,5,42,127,2462874924
3722,11,Pattern_Practice,281,1,48,46,2462969800
3722,11,Pattern_Practice,282,1,48,38,2463127856
3722,11,Pattern_Practice,283,1,48,40,2463298672
3722,11,Pattern_Practice,284,1,38,72,2463305232
3722,11,Pattern_Practice,285,5,42,127,2463374900
3722,11,Pattern_Practice,286,1,48,46,2463464320
3722,11,Pattern_Practice,287,1,48,39,2463616812
3722,11,Pattern_Practice,288,1,38,58,2463733804
3722,11,Pattern_Practice,289,1,48,46,2463788088
3722,11,Pattern_Practice,290,5,42,127,2463874420
3722,11,Pattern_Practice,291,1,48,43,2463958628
3722,11,Pattern_Practice,292,1,48,42,2464116060
3722,11,Pattern_Practice,293,1,38,61,2464249796
3722,11,Pattern_Practice,294,1,48,48,2464280896
3722,11,Pattern_Practice,0,9999,9999,9999,2424372292
3722,11,Pattern_Practice,1,9999,9999,9999,2424873056
3722,11,Pattern_Practice,2,9999,9999,9999,2425372772
3722,11,Pattern_Practice,3,9999,9999,9999,2425872460
3722,11,Pattern_Practice,4,9999,9999,9999,2426372172
3722,11,Pattern_Practice,5,9999,9999,9999,2426872920
3722,11,Pattern_Practice,6,9999,9999,9999,2427372632
3722,11,Pattern_Practice,7,9999,9999,9999,2427872360
3722,11,Pattern_Practice,8,9999,9999,9999,2428373052
3722,11,Pattern_Practice,9,9999,9999,9999,2428872824
3722,11,Pattern_Practice,10,9999,9999,9999,2429372516
3722,11,Pattern_Practice,11,9999,9999,9999,2429872208
3722,11,Pattern_Practice,12,9999,9999,9999,2430372984
3722,11,Pattern_Practice,13,9999,9999,9999,2430872656
3722,11,Pattern_Practice,14,9999,9999,9999,2431372396
3722,11,Pattern_Practice,15,9999,9999,9999,2431872072
3722,11,Pattern_Practice,16,9999,9999,9999,2432372848
3722,11,Pattern_Practice,17,9999,9999,9999,2432872540
3722,11,Pattern_Practice,18,9999,9999,9999,2433372212
3722,11,Pattern_Practice,19,9999,9999,9999,2433873008
3722,11,Pattern_Practice,20,9999,9999,9999,2434372692
3722,11,Pattern_Practice,21,9999,9999,9999,2434872404
3722,11,Pattern_Practice,22,9999,9999,9999,2435372152
3722,11,Pattern_Practice,23,9999,9999,9999,2435872820
3722,11,Pattern_Practice,24,9999,9999,9999,2436372584
3722,11,Pattern_Practice,25,9999,9999,9999,2436872276
3722,11,Pattern_Practice,26,9999,9999,9999,2437373032
3722,11,Pattern_Practice,27,9999,9999,9999,2437872740
3722,11,Pattern_Practice,28,9999,9999,9999,2438372444
3722,11,Pattern_Practice,29,9999,9999,9999,2438872156
3722,11,Pattern_Practice,30,9999,9999,9999,2439372880
3722,11,Pattern_Practice,31,9999,9999,9999,2439872632
3722,11,Pattern_Practice,32,9999,9999,9999,2440372304
3722,11,Pattern_Practice,33,9999,9999,9999,2440873040
3722,11,Pattern_Practice,34,9999,9999,9999,2441372792
3722,11,Pattern_Practice,35,9999,9999,9999,2441872496
3722,11,Pattern_Practice,36,9999,9999,9999,2442372208
3722,11,Pattern_Practice,37,9999,9999,9999,2442872900
3722,11,Pattern_Practice,38,9999,9999,9999,2443372648
3722,11,Pattern_Practice,39,9999,9999,9999,2443872316
3722,11,Pattern_Practice,40,9999,9999,9999,2444373108
3722,11,Pattern_Practice,41,9999,9999,9999,2444872800
3722,11,Pattern_Practice,42,9999,9999,9999,2445372496
3722,11,Pattern_Practice,43,9999,9999,9999,2445872180
3722,11,Pattern_Practice,44,9999,9999,9999,2446372972
3722,11,Pattern_Practice,45,9999,9999,9999,2446872648
3722,11,Pattern_Practice,46,9999,9999,9999,2447372376
3722,11,Pattern_Practice,47,9999,9999,9999,2447872048
3722,11,Pattern_Practice,48,9999,9999,9999,2448372828
3722,11,Pattern_Practice,49,9999,9999,9999,2448872512
3722,11,Pattern_Practice,50,9999,9999,9999,2449372264
3722,11,Pattern_Practice,51,9999,9999,9999,2449872984
3722,11,Pattern_Practice,52,9999,9999,9999,2450372724
3722,11,Pattern_Practice,53,9999,9999,9999,2450872380
3722,11,Pattern_Practice,54,9999,9999,9999,2451372088
3722,11,Pattern_Practice,55,9999,9999,9999,2451872888
3722,11,Pattern_Practice,56,9999,9999,9999,2452372532
3722,11,Pattern_Practice,57,9999,9999,9999,2452872264
3722,11,Pattern_Practice,58,9999,9999,9999,2453373036
3722,11,Pattern_Practice,59,9999,9999,9999,2453872732
3722,11,Pattern_Practice,60,9999,9999,9999,2454372472
3722,11,Pattern_Practice,61,9999,9999,9999,2454872124
3722,11,Pattern_Practice,62,9999,9999,9999,2455372904
3722,11,Pattern_Practice,63,9999,9999,9999,2455872572
3722,11,Pattern_Practice,64,9999,9999,9999,2456372296
3722,11,Pattern_Practice,65,9999,9999,9999,2456873068
3722,11,Pattern_Practice,66,9999,9999,9999,2457372740
3722,11,Pattern_Practice,67,9999,9999,9999,2457872488
3722,11,Pattern_Practice,68,9999,9999,9999,2458372160
3722,11,Pattern_Practice,69,9999,9999,9999,2458872880
3722,11,Pattern_Practice,70,9999,9999,9999,2459372660
3722,11,Pattern_Practice,71,9999,9999,9999,2459872336
3722,11,Pattern_Practice,72,9999,9999,9999,2460373104
3722,11,Pattern_Practice,73,9999,9999,9999,2460872760
3722,11,Pattern_Practice,74,9999,9999,9999,2461372516
3722,11,Pattern_Practice,75,9999,9999,9999,2461872208
3722,11,Pattern_Practice,76,9999,9999,9999,2462372944
3722,11,Pattern_Practice,77,9999,9999,9999,2462872636
3722,11,Pattern_Practice,78,9999,9999,9999,2463372392
3722,11,Pattern_Practice,79,9999,9999,9999,2463872056
3723,13,Improv_Metronome,0,5,42,127,2490252628
3723,13,Improv_Metronome,1,5,42,127,2490753392
3723,13,Improv_Metronome,2,1,38,21,2490850252
3723,13,Improv_Metronome,3,1,48,32,2490868188
3723,13,Improv_Metronome,4,5,42,127,2491252964
3723,13,Improv_Metronome,5,1,38,54,2491291336
3723,13,Improv_Metronome,6,1,48,45,2491296252
3723,13,Improv_Metronome,7,5,42,127,2491752984
3723,13,Improv_Metronome,8,1,38,54,2491796144
3723,13,Improv_Metronome,9,1,48,46,2491799868
3723,13,Improv_Metronome,10,1,48,43,2492235840
3723,13,Improv_Metronome,11,5,42,127,2492252628
3723,13,Improv_Metronome,12,1,38,65,2492264196
3723,13,Improv_Metronome,13,1,48,50,2492426708
3723,13,Improv_Metronome,14,1,48,40,2492619608
3723,13,Improv_Metronome,15,1,38,49,2492721468
3723,13,Improv_Metronome,16,5,42,127,2492753216
3723,13,Improv_Metronome,17,1,48,55,2492809516
3723,13,Improv_Metronome,18,1,48,35,2493007492
3723,13,Improv_Metronome,19,1,38,47,2493217904
3723,13,Improv_Metronome,20,5,42,127,2493252864
3723,13,Improv_Metronome,21,1,48,52,2493301236
3723,13,Improv_Metronome,22,1,48,33,2493515144
3723,13,Improv_Metronome,23,1,38,46,2493738120
3723,13,Improv_Metronome,24,5,42,127,2493752664
3723,13,Improv_Metronome,25,1,48,47,2493801260
3723,13,Improv_Metronome,26,1,48,42,2494089668
3723,13,Improv_Metronome,27,5,42,127,2494253592
3723,13,Improv_Metronome,28,1,48,49,2494317372
3723,13,Improv_Metronome,29,1,38,48,2494320720
3723,13,Improv_Metronome,30,1,48,45,2494555104
3723,13,Improv_Metronome,31,5,42,127,2494752992
3723,13,Improv_Metronome,32,1,38,52,2494829336
3723,13,Improv_Metronome,33,1,48,54,2494844132
3723,13,Improv_Metronome,34,1,48,43,2495085928
3723,13,Improv_Metronome,35,5,42,127,2495252768
3723,13,Improv_Metronome,36,1,38,47,2495347212
3723,13,Improv_Metronome,37,1,48,50,2495381568
3723,13,Improv_Metronome,38,1,48,39,2495606956
3723,13,Improv_Metronome,39,5,42,127,2495752704
3723,13,Improv_Metronome,40,1,38,43,2495848796
3723,13,Improv_Metronome,41,1,48,47,2495857304
3723,13,Improv_Metronome,42,1,48,39,2496082048
3723,13,Improv_Metronome,43,5,42,127,2496253228
3723,13,Improv_Metronome,44,1,48,43,2496307956
3723,13,Improv_Metronome,45,1,38,45,2496329624
3723,13,Improv_Metronome,46,1,48,39,2496528788
3723,13,Improv_Metronome,47,5,42,127,2496753076
3723,13,Improv_Metronome,48,1,48,43,2496756344
3723,13,Improv_Metronome,49,1,38,45,2496792300
3723,13,Improv_Metronome,50,1,48,39,2497010684
3723,13,Improv_Metronome,51,1,48,39,2497244508
3723,13,Improv_Metronome,52,5,42,127,2497252844
3723,13,Improv_Metronome,53,1,38,43,2497267480
3723,13,Improv_Metronome,54,1,48,42,2497502772
3723,13,Improv_Metronome,55,1,48,41,2497735996
3723,13,Improv_Metronome,56,5,42,127,2497752632
3723,13,Improv_Metronome,57,1,38,43,2497778792
3723,13,Improv_Metronome,58,1,48,46,2497986476
3723,13,Improv_Metronome,59,1,48,58,2498244832
3723,13,Improv_Metronome,60,5,42,127,2498253244
3723,13,Improv_Metronome,61,1,38,50,2498259132
3723,13,Improv_Metronome,62,1,48,43,2498425800
3723,13,Improv_Metronome,63,1,48,26,2498583108
3723,13,Improv_Metronome,64,1,48,47,2498742508
3723,13,Improv_Metronome,65,5,42,127,2498752860
3723,13,Improv_Metronome,66,1,38,44,2498774752
3723,13,Improv_Metronome,67,1,48,43,2498906424
3723,13,Improv_Metronome,68,1,48,37,2499071724
3723,13,Improv_Metronome,69,1,38,44,2499242048
3723,13,Improv_Metronome,70,1,48,42,2499245316
3723,13,Improv_Metronome,71,5,42,127,2499252532
3723,13,Improv_Metronome,72,1,48,40,2499428540
3723,13,Improv_Metronome,73,1,48,32,2499579408
3723,13,Improv_Metronome,74,1,38,47,2499727336
3723,13,Improv_Metronome,75,1,48,46,2499751304
3723,13,Improv_Metronome,76,5,42,127,2499753416
3723,13,Improv_Metronome,77,1,48,38,2499930328
3723,13,Improv_Metronome,78,1,48,33,2500090920
3723,13,Improv_Metronome,79,1,38,43,2500240340
3723,13,Improv_Metronome,80,1,48,45,2500249712
3723,13,Improv_Metronome,81,5,42,127,2500252888
3723,13,Improv_Metronome,82,1,48,43,2500426648
3723,13,Improv_Metronome,83,1,48,30,2500588508
3723,13,Improv_Metronome,84,1,38,42,2500736592
3723,13,Improv_Metronome,85,5,42,127,2500752708
3723,13,Improv_Metronome,86,1,48,44,2500761684
3723,13,Improv_Metronome,87,1,48,41,2500927612
3723,13,Improv_Metronome,88,1,48,34,2501100468
3723,13,Improv_Metronome,89,1,38,38,2501233740
3723,13,Improv_Metronome,90,5,42,127,2501252396
3723,13,Improv_Metronome,91,1,48,48,2501258732
3723,13,Improv_Metronome,92,1,48,45,2501434856
3723,13,Improv_Metronome,93,1,48,38,2501596572
3723,13,Improv_Metronome,94,1,38,39,2501746892
3723,13,Improv_Metronome,95,5,42,127,2501753280
3723,13,Improv_Metronome,96,1,48,47,2501759096
3723,13,Improv_Metronome,97,1,48,41,2501941800
3723,13,Improv_Metronome,98,1,48,38,2502100524
3723,13,Improv_Metronome,99,1,38,38,2502247852
3723,13,Improv_Metronome,100,5,42,127,2502252900
3723,13,Improv_Metronome,101,1,48,47,2502268656
3723,13,Improv_Metronome,102,1,48,43,2502446428
3723,13,Improv_Metronome,103,1,48,44,2502610536
3723,13,Improv_Metronome,104,5,42,127,2502752596
3723,13,Improv_Metronome,105,1,38,43,2502771800
3723,13,Improv_Metronome,106,1,48,54,2502789504
3723,13,Improv_Metronome,107,1,48,46,2502956800
3723,13,Improv_Metronome,108,1,48,44,2503106848
3723,13,Improv_Metronome,109,5,42,127,2503253320
3723,13,Improv_Metronome,110,1,48,54,2503279924
3723,13,Improv_Metronome,111,1,38,53,2503337312
3723,13,Improv_Metronome,112,1,48,51,2503705668
3723,13,Improv_Metronome,113,5,42,127,2503753272
3723,13,Improv_Metronome,114,1,38,51,2503830448
3723,13,Improv_Metronome,115,1,48,50,2504215064
3723,13,Improv_Metronome,116,5,42,127,2504252648
3723,13,Improv_Metronome,117,1,38,54,2504388916
3723,13,Improv_Metronome,118,1,48,47,2504744136
3723,13,Improv_Metronome,119,5,42,127,2504752548
3723,13,Improv_Metronome,120,1,38,50,2504889260
3723,13,Improv_Metronome,121,1,48,53,2505232516
3723,13,Improv_Metronome,122,5,42,127,2505253192
3723,13,Improv_Metronome,123,1,38,52,2505343136
3723,13,Improv_Metronome,124,1,48,49,2505663972
3723,13,Improv_Metronome,125,5,42,127,2505753088
3723,13,Improv_Metronome,126,1,38,52,2505799128
3723,13,Improv_Metronome,127,1,48,54,2505854680
3723,13,Improv_Metronome,128,1,48,39,2506041652
3723,13,Improv_Metronome,129,1,38,50,2506236204
3723,13,Improv_Metronome,130,5,42,127,2506252616
3723,13,Improv_Metronome,131,1,48,64,2506310632
3723,13,Improv_Metronome,132,1,48,48,2506625152
3723,13,Improv_Metronome,133,5,42,127,2506753396
3723,13,Improv_Metronome,134,1,38,58,2506771024
3723,13,Improv_Metronome,135,1,48,49,2507084728
3723,13,Improv_Metronome,136,1,38,59,2507228940
3723,13,Improv_Metronome,137,5,42,127,2507253208
3723,13,Improv_Metronome,138,1,48,52,2507516632
3723,13,Improv_Metronome,139,1,38,59,2507691740
3723,13,Improv_Metronome,140,5,42,127,2507753032
3723,13,Improv_Metronome,141,1,48,57,2507763556
3723,13,Improv_Metronome,142,1,48,42,2507936464
3723,13,Improv_Metronome,143,1,38,62,2508116184
3723,13,Improv_Metronome,144,1,48,63,2508214396
3723,13,Improv_Metronome,145,5,42,127,2508252424
3723,13,Improv_Metronome,146,1,48,43,2508547488
3723,13,Improv_Metronome,147,1,38,52,2508674472
3723,13,Improv_Metronome,148,5,42,127,2508753220
3723,13,Improv_Metronome,149,1,48,40,2509038332
3723,13,Improv_Metronome,150,1,38,66,2509147520
3723,13,Improv_Metronome,151,5,42,127,2509252952
3723,13,Improv_Metronome,152,1,48,45,2509481460
3723,13,Improv_Metronome,153,1,38,65,2509643300
3723,13,Improv_Metronome,154,5,42,127,2509752548
3723,13,Improv_Metronome,155,1,48,57,2509755592
3723,13,Improv_Metronome,156,1,48,42,2509942264
3723,13,Improv_Metronome,157,1,38,62,2510140932
3723,13,Improv_Metronome,158,5,42,127,2510253396
3723,13,Improv_Metronome,159,1,48,57,2510278280
3723,13,Improv_Metronome,160,1,48,47,2510589740
3723,13,Improv_Metronome,161,1,38,60,2510712388
3723,13,Improv_Metronome,162,5,42,127,2510753212
3723,13,Improv_Metronome,163,1,48,47,2511050820
3723,13,Improv_Metronome,164,1,38,64,2511196580
3723,13,Improv_Metronome,165,5,42,127,2511252884
3723,13,Improv_Metronome,166,1,48,52,2511546828
3723,13,Improv_Metronome,167,1,38,56,2511664984
3723,13,Improv_Metronome,168,5,42,127,2511752680
3723,13,Improv_Metronome,169,1,48,58,2511809892
3723,13,Improv_Metronome,170,1,48,44,2511991180
3723,13,Improv_Metronome,171,1,38,53,2512100688
3723,13,Improv_Metronome,172,5,42,127,2512253220
3723,13,Improv_Metronome,173,1,48,44,2512481276
3723,13,Improv_Metronome,174,1,38,61,2512629904
3723,13,Improv_Metronome,175,5,42,127,2512753040
3723,13,Improv_Metronome,176,1,48,46,2513035928
3723,13,Improv_Metronome,177,1,38,76,2513140196
3723,13,Improv_Metronome,178,1,38,51,2513164932
3723,13,Improv_Metronome,179,5,42,127,2513252928
3723,13,Improv_Metronome,180,1,48,51,2513500944
3723,13,Improv_Metronome,181,1,38,61,2513662064
3723,13,Improv_Metronome,182,5,42,127,2513752376
3723,13,Improv_Metronome,183,1,48,51,2513795500
3723,13,Improv_Metronome,184,1,48,38,2513980552
3723,13,Improv_Metronome,185,1,38,59,2514106512
3723,13,Improv_Metronome,186,5,42,127,2514253136
3723,13,Improv_Metronome,187,1,48,39,2514491140
3723,13,Improv_Metronome,188,1,38,72,2514625032
3723,13,Improv_Metronome,189,1,38,50,2514650144
3723,13,Improv_Metronome,190,5,42,127,2514752860
3723,13,Improv_Metronome,191,1,48,42,2514999544
3723,13,Improv_Metronome,192,1,38,84,2515100748
3723,13,Improv_Metronome,193,5,42,127,2515252680
3723,13,Improv_Metronome,194,1,48,52,2515472064
3723,13,Improv_Metronome,195,1,38,78,2515675964
3723,13,Improv_Metronome,196,1,48,55,2515747228
3723,13,Improv_Metronome,197,5,42,127,2515753396
3723,13,Improv_Metronome,198,1,48,46,2515924716
3723,13,Improv_Metronome,199,1,48,40,2516103536
3723,13,Improv_Metronome,200,1,38,67,2516184708
3723,13,Improv_Metronome,201,5,42,127,2516253020
3723,13,Improv_Metronome,202,1,48,45,2516318948
3723,13,Improv_Metronome,203,1,48,36,2516521284
3723,13,Improv_Metronome,204,1,38,64,2516700048
3723,13,Improv_Metronome,205,5,42,127,2516752744
3723,13,Improv_Metronome,206,1,48,57,2516771716
3723,13,Improv_Metronome,207,1,48,40,2516976864
3723,13,Improv_Metronome,208,1,38,62,2517200288
3723,13,Improv_Metronome,209,5,42,127,2517252532
3723,13,Improv_Metronome,210,1,48,53,2517317416
3723,13,Improv_Metronome,211,1,48,41,2517499772
3723,13,Improv_Metronome,212,1,48,38,2517671440
3723,13,Improv_Metronome,213,1,38,70,2517741732
3723,13,Improv_Metronome,214,5,42,127,2517753136
3723,13,Improv_Metronome,215,1,48,48,2517871024
3723,13,Improv_Metronome,216,1,48,35,2518049120
3723,13,Improv_Metronome,217,1,48,42,2518229608
3723,13,Improv_Metronome,218,5,42,127,2518252904
3723,13,Improv_Metronome,219,1,38,61,2518294096
3723,13,Improv_Metronome,220,1,48,44,2518479868
3723,13,Improv_Metronome,221,1,48,31,2518682052
3723,13,Improv_Metronome,222,5,42,127,2518752696
3723,13,Improv_Metronome,223,1,48,54,2518868888
3723,13,Improv_Metronome,224,1,38,61,2518880468
3723,13,Improv_Metronome,225,1,48,40,2519048584
3723,13,Improv_Metronome,226,1,48,38,2519203492
3723,13,Improv_Metronome,227,5,42,127,2519253492
3723,13,Improv_Metronome,228,1,38,58,2519362960
3723,13,Improv_Metronome,229,1,48,48,2519398548
3723,13,Improv_Metronome,230,1,48,39,2519596140
3723,13,Improv_Metronome,231,5,42,127,2519753028
3723,13,Improv_Metronome,232,1,48,33,2519758316
3723,13,Improv_Metronome,233,1,38,55,2519851868
3723,13,Improv_Metronome,234,1,48,40,2519887976
3723,13,Improv_Metronome,235,1,48,40,2520061568
3723,13,Improv_Metronome,236,1,48,35,2520228596
3723,13,Improv_Metronome,237,5,42,127,2520252716
3723,13,Improv_Metronome,238,1,38,50,2520357920
3723,13,Improv_Metronome,239,1,48,48,2520369040
3723,13,Improv_Metronome,240,1,48,43,2520537400
3723,13,Improv_Metronome,241,1,48,38,2520691460
3723,13,Improv_Metronome,242,5,42,127,2520752704
3723,13,Improv_Metronome,243,1,48,49,2520837192
3723,13,Improv_Metronome,244,1,38,46,2520847568
3723,13,Improv_Metronome,245,1,48,46,2521017484
3723,13,Improv_Metronome,246,1,48,41,2521174460
3723,13,Improv_Metronome,247,5,42,127,2521253132
3723,13,Improv_Metronome,248,1,48,50,2521333876
3723,13,Improv_Metronome,249,1,38,48,2521349636
3723,13,Improv_Metronome,250,1,48,42,2521504220
3723,13,Improv_Metronome,251,1,48,40,2521656488
3723,13,Improv_Metronome,252,5,42,127,2521752868
3723,13,Improv_Metronome,253,1,48,51,2521817844
3723,13,Improv_Metronome,254,1,38,47,2521826580
3723,13,Improv_Metronome,255,1,48,43,2521988088
3723,13,Improv_Metronome,256,1,48,41,2522153692
3723,13,Improv_Metronome,257,5,42,127,2522252892
3723,13,Improv_Metronome,258,1,48,53,2522314600
3723,13,Improv_Metronome,259,1,38,47,2522318924
3723,13,Improv_Metronome,260,1,48,46,2522489936
3723,13,Improv_Metronome,261,1,48,43,2522655464
3723,13,Improv_Metronome,262,5,42,127,2522754144
3723,13,Improv_Metronome,263,1,38,45,2522786756
3723,13,Improv_Metronome,264,1,48,54,2522810676
3723,13,Improv_Metronome,265,1,48,48,2522988644
3723,13,Improv_Metronome,266,1,48,48,2523167484
3723,13,Improv_Metronome,267,1,38,43,2523240316
3723,13,Improv_Metronome,268,5,42,127,2523252996
3723,13,Improv_Metronome,269,1,48,48,2523334060
3723,13,Improv_Metronome,270,1,48,42,2523504104
3723,13,Improv_Metronome,271,1,48,47,2523678232
3723,13,Improv_Metronome,272,1,38,51,2523737604
3723,13,Improv_Metronome,273,5,42,127,2523752748
3723,13,Improv_Metronome,274,1,48,45,2523843748
3723,13,Improv_Metronome,275,1,48,48,2524026828
3723,13,Improv_Metronome,276,5,42,127,2524252464
3723,13,Improv_Metronome,277,1,38,57,2524263888
3723,13,Improv_Metronome,278,1,48,48,2524441684
3723,13,Improv_Metronome,279,1,48,48,2524618432
3723,13,Improv_Metronome,280,5,42,127,2524753532
3723,13,Improv_Metronome,281,1,38,49,2524771616
3723,13,Improv_Metronome,282,1,48,52,2525174424
3723,13,Improv_Metronome,283,5,42,127,2525252924
3723,13,Improv_Metronome,284,1,38,57,2525298740
3723,13,Improv_Metronome,285,1,48,47,2525446392
3723,13,Improv_Metronome,286,1,48,37,2525637728
3723,13,Improv_Metronome,287,5,42,127,2525752636
3723,13,Improv_Metronome,288,1,38,65,2525801152
3723,13,Improv_Metronome,289,1,48,52,2526243088
3723,13,Improv_Metronome,290,5,42,127,2526253516
3723,13,Improv_Metronome,291,1,38,56,2526308400
3723,13,Improv_Metronome,292,1,48,54,2526455212
3723,13,Improv_Metronome,293,1,48,35,2526656420
3723,13,Improv_Metronome,294,5,42,127,2526753228
3723,13,Improv_Metronome,295,1,38,47,2526803768
3723,13,Improv_Metronome,296,1,48,55,2527178832
3723,13,Improv_Metronome,297,5,42,127,2527252840
3723,13,Improv_Metronome,298,1,38,67,2527310996
3723,13,Improv_Metronome,299,1,48,54,2527379976
3723,13,Improv_Metronome,300,1,48,41,2527607388
3723,13,Improv_Metronome,301,5,42,127,2527752464
3723,13,Improv_Metronome,302,1,38,63,2527768600
3723,13,Improv_Metronome,303,1,48,68,2527847408
3723,13,Improv_Metronome,304,1,38,54,2528141360
3723,13,Improv_Metronome,305,5,42,127,2528253296
3723,13,Improv_Metronome,306,1,48,65,2528306756
3723,13,Improv_Metronome,307,1,38,57,2528645964
3723,13,Improv_Metronome,308,5,42,127,2528752968
3723,13,Improv_Metronome,309,1,48,61,2528778152
3723,13,Improv_Metronome,310,1,38,59,2528921920
3723,13,Improv_Metronome,311,1,48,52,2529070068
3723,13,Improv_Metronome,312,1,38,55,2529196832
3723,13,Improv_Metronome,313,5,42,127,2529252592
3723,13,Improv_Metronome,314,1,48,60,2529349792
3723,13,Improv_Metronome,315,1,48,48,2529680944
3723,13,Improv_Metronome,316,5,42,127,2529752488
3723,13,Improv_Metronome,317,1,38,62,2529802344
3723,13,Improv_Metronome,318,1,48,52,2530112080
3723,13,Improv_Metronome,319,1,38,67,2530240136
3723,13,Improv_Metronome,320,5,42,127,2530253184
3723,13,Improv_Metronome,321,1,48,55,2530593576
3723,13,Improv_Metronome,322,1,38,66,2530707124
3723,13,Improv_Metronome,323,5,42,127,2530753304
3723,13,Improv_Metronome,324,1,48,63,2530841980
3723,13,Improv_Metronome,325,1,48,49,2531010876
3723,13,Improv_Metronome,326,1,38,65,2531158132
3723,13,Improv_Metronome,327,5,42,127,2531252792
3723,13,Improv_Metronome,328,1,48,51,2531549140
3723,13,Improv_Metronome,329,1,38,67,2531632672
3723,13,Improv_Metronome,330,5,42,127,2531753424
3723,13,Improv_Metronome,331,1,48,30,2532008340
3723,13,Improv_Metronome,332,1,38,76,2532132036
3723,13,Improv_Metronome,333,5,42,127,2532253248
3723,13,Improv_Metronome,334,1,48,48,2532511908
3723,13,Improv_Metronome,335,1,38,74,2532642856
3723,13,Improv_Metronome,336,5,42,127,2532752848
3723,13,Improv_Metronome,337,1,48,58,2532768460
3723,13,Improv_Metronome,338,1,48,48,2532963960
3723,13,Improv_Metronome,339,1,38,66,2533109896
3723,13,Improv_Metronome,340,5,42,127,2533252332
3723,13,Improv_Metronome,341,1,48,51,2533482184
3723,13,Improv_Metronome,342,1,38,57,2533613452
3723,13,Improv_Metronome,343,5,42,127,2533753124
3723,13,Improv_Metronome,344,1,48,34,2533984996
3723,13,Improv_Metronome,345,1,38,81,2534149628
3723,13,Improv_Metronome,346,1,38,52,2534177580
3723,13,Improv_Metronome,347,5,42,127,2534253012
3723,13,Improv_Metronome,348,1,48,50,2534533864
3723,13,Improv_Metronome,349,1,38,74,2534627904
3723,13,Improv_Metronome,350,1,38,50,2534652908
3723,13,Improv_Metronome,351,5,42,127,2534752636
3723,13,Improv_Metronome,352,1,48,54,2534798836
3723,13,Improv_Metronome,353,1,38,56,2534939884
3723,13,Improv_Metronome,354,1,48,56,2535146476
3723,13,Improv_Metronome,355,5,42,127,2535253380
3723,13,Improv_Metronome,356,1,38,66,2535616928
3723,13,Improv_Metronome,357,5,42,127,2535753152
3723,13,Improv_Metronome,358,1,48,58,2535764276
3723,13,Improv_Metronome,359,1,38,63,2536074012
3723,13,Improv_Metronome,360,1,48,54,2536232664
3723,13,Improv_Metronome,361,5,42,127,2536252892
3723,13,Improv_Metronome,362,1,38,57,2536585728
3723,13,Improv_Metronome,363,1,48,54,2536742208
3723,13,Improv_Metronome,364,5,42,127,2536752788
3723,13,Improv_Metronome,365,1,48,44,2536932064
3723,13,Improv_Metronome,366,1,38,65,2537130656
3723,13,Improv_Metronome,367,1,48,62,2537244704
3723,13,Improv_Metronome,368,5,42,127,2537253188
3723,13,Improv_Metronome,369,1,38,62,2537473380
3723,13,Improv_Metronome,370,1,48,57,2537667180
3723,13,Improv_Metronome,371,5,42,127,2537752860
3723,13,Improv_Metronome,372,1,48,52,2537826352
3723,13,Improv_Metronome,373,1,48,53,2537971160
3723,13,Improv_Metronome,374,1,38,64,2538155836
3723,13,Improv_Metronome,375,5,42,127,2538252944
3723,13,Improv_Metronome,376,1,48,60,2538305428
3723,13,Improv_Metronome,377,1,48,40,2538482928
3723,13,Improv_Metronome,378,1,48,41,2538653172
3723,13,Improv_Metronome,379,1,38,55,2538699744
3723,13,Improv_Metronome,380,5,42,127,2538753324
3723,13,Improv_Metronome,381,1,48,44,2538832720
3723,13,Improv_Metronome,382,1,48,39,2538988004
3723,13,Improv_Metronome,383,1,48,41,2539175376
3723,13,Improv_Metronome,384,1,38,55,2539195628
3723,13,Improv_Metronome,385,5,42,127,2539253176
3723,13,Improv_Metronome,386,1,48,44,2539350352
3723,13,Improv_Metronome,387,1,48,38,2539525528
3723,13,Improv_Metronome,388,1,38,61,2539708860
3723,13,Improv_Metronome,389,1,48,48,2539714152
3723,13,Improv_Metronome,390,5,42,127,2539752856
3723,13,Improv_Metronome,391,1,48,46,2539890192
3723,13,Improv_Metronome,392,1,48,42,2540051984
3723,13,Improv_Metronome,393,1,38,56,2540221928
3723,13,Improv_Metronome,394,1,48,51,2540244052
3723,13,Improv_Metronome,395,5,42,127,2540252684
3723,13,Improv_Metronome,396,1,48,46,2540426820
3723,13,Improv_Metronome,397,1,48,46,2540602000
3723,13,Improv_Metronome,398,5,42,127,2540753136
3723,13,Improv_Metronome,399,1,38,51,2540757824
3723,13,Improv_Metronome,400,1,48,48,2540771268
3723,13,Improv_Metronome,401,1,48,47,2540954572
3723,13,Improv_Metronome,402,1,48,49,2541132572
3723,13,Improv_Metronome,403,5,42,127,2541252892
3723,13,Improv_Metronome,404,1,38,60,2541290716
3723,13,Improv_Metronome,405,1,48,59,2541307524
3723,13,Improv_Metronome,406,1,48,52,2541483944
3723,13,Improv_Metronome,407,1,48,42,2541652964
3723,13,Improv_Metronome,408,5,42,127,2541753012
3723,13,Improv_Metronome,409,1,48,51,2541809916
3723,13,Improv_Metronome,410,1,38,58,2541816404
3723,13,Improv_Metronome,411,1,48,52,2542201212
3723,13,Improv_Metronome,412,5,42,127,2542253404
3723,13,Improv_Metronome,413,1,38,60,2542264900
3723,13,Improv_Metronome,414,1,48,57,2542419900
3723,13,Improv_Metronome,415,5,42,127,2542753272
3723,13,Improv_Metronome,416,1,38,72,2542829316
3723,13,Improv_Metronome,417,1,48,61,2542941272
3723,13,Improv_Metronome,418,5,42,127,2543252796
3723,13,Improv_Metronome,419,1,48,54,2543268180
3723,13,Improv_Metronome,420,1,38,63,2543357840
3723,13,Improv_Metronome,421,1,48,53,2543744376
3723,13,Improv_Metronome,422,5,42,127,2543752712
3723,13,Improv_Metronome,423,1,38,68,2543848436
3723,13,Improv_Metronome,424,5,42,127,2544253364
3723,13,Improv_Metronome,425,1,38,63,2544294204
3723,13,Improv_Metronome,426,1,48,49,2544297476
3723,13,Improv_Metronome,427,1,48,46,2544725440
3723,13,Improv_Metronome,428,5,42,127,2544753004
3723,13,Improv_Metronome,429,1,38,71,2544872140
3723,13,Improv_Metronome,430,1,38,58,2545243964
3723,13,Improv_Metronome,431,5,42,127,2545252676
3723,13,Improv_Metronome,432,1,38,62,2545664744
3723,13,Improv_Metronome,433,5,42,127,2545752592
3723,13,Improv_Metronome,434,1,48,66,2545764600
3723,13,Improv_Metronome,435,1,38,58,2546109520
3723,13,Improv_Metronome,436,1,48,61,2546236952
3723,13,Improv_Metronome,437,5,42,127,2546253144
3723,13,Improv_Metronome,438,1,38,55,2546554340
3723,13,Improv_Metronome,439,1,48,59,2546694588
3723,13,Improv_Metronome,440,5,42,127,2546752816
3723,13,Improv_Metronome,441,1,38,54,2547011604
3723,13,Improv_Metronome,442,1,48,60,2547159552
3723,13,Improv_Metronome,443,5,42,127,2547252488
3723,13,Improv_Metronome,444,1,38,56,2547489884
3723,13,Improv_Metronome,445,1,48,65,2547618536
3723,13,Improv_Metronome,446,5,42,127,2547753488
3723,13,Improv_Metronome,447,1,38,52,2547776808
3723,13,Improv_Metronome,448,1,48,56,2547941360
3723,13,Improv_Metronome,449,1,38,54,2548029532
3723,13,Improv_Metronome,450,5,42,127,2548252904
3723,13,Improv_Metronome,451,1,48,51,2548496600
3723,13,Improv_Metronome,452,1,38,64,2548604804
3723,13,Improv_Metronome,453,5,42,127,2548752724
3723,13,Improv_Metronome,454,1,48,43,2549046388
3723,13,Improv_Metronome,455,1,38,59,2549113456
3723,13,Improv_Metronome,456,5,42,127,2549252596
3723,13,Improv_Metronome,457,1,48,38,2549608332
3723,13,Improv_Metronome,458,1,38,57,2549668340
3723,13,Improv_Metronome,459,5,42,127,2549753476
3723,13,Improv_Metronome,460,1,38,59,2550113544
3723,13,Improv_Metronome,461,5,42,127,2550252936
3723,13,Improv_Metronome,462,1,38,62,2550674824
3723,13,Improv_Metronome,463,1,48,52,2550729404
3723,13,Improv_Metronome,464,5,42,127,2550752552
3723,13,Improv_Metronome,465,1,38,70,2551230496
3723,13,Improv_Metronome,466,1,48,57,2551239824
3723,13,Improv_Metronome,467,5,42,127,2551253544
3723,13,Improv_Metronome,468,1,48,42,2551426936
3723,13,Improv_Metronome,469,1,48,38,2551599572
3723,13,Improv_Metronome,470,1,38,58,2551735412
3723,13,Improv_Metronome,471,5,42,127,2551753244
3723,13,Improv_Metronome,472,1,48,48,2551760104
3723,13,Improv_Metronome,473,1,48,40,2551939420
3723,13,Improv_Metronome,474,1,48,35,2552113700
3723,13,Improv_Metronome,475,1,38,58,2552176584
3723,13,Improv_Metronome,476,5,42,127,2552252924
3723,13,Improv_Metronome,477,1,48,51,2552275772
3723,13,Improv_Metronome,478,1,38,62,2552722572
3723,13,Improv_Metronome,479,5,42,127,2552752448
3723,13,Improv_Metronome,480,1,48,51,2552781740
3723,13,Improv_Metronome,481,1,38,49,2553098788
3723,13,Improv_Metronome,482,5,42,127,2553253512
3723,13,Improv_Metronome,483,1,48,59,2553270844
3723,13,Improv_Metronome,484,1,38,63,2553649472
3723,13,Improv_Metronome,485,5,42,127,2553752888
3723,13,Improv_Metronome,486,1,48,51,2553820260
3723,13,Improv_Metronome,487,1,38,64,2554155356
3723,13,Improv_Metronome,488,5,42,127,2554253132
3723,13,Improv_Metronome,489,1,48,50,2554283404
3723,13,Improv_Metronome,490,1,38,58,2554611616
3723,13,Improv_Metronome,491,5,42,127,2554753380
3723,13,Improv_Metronome,492,1,48,56,2554802000
3723,13,Improv_Metronome,493,1,48,46,2554946336
3723,13,Improv_Metronome,494,1,38,60,2555145976
3723,13,Improv_Metronome,495,5,42,127,2555253108
3723,13,Improv_Metronome,496,1,48,54,2555285872
3723,13,Improv_Metronome,497,1,48,38,2555470224
3723,13,Improv_Metronome,498,1,38,53,2555658792
3723,13,Improv_Metronome,499,5,42,127,2555752920
3723,13,Improv_Metronome,500,1,48,47,2555764028
3723,13,Improv_Metronome,501,1,48,32,2555952596
3723,13,Improv_Metronome,502,1,38,50,2556136604
3723,13,Improv_Metronome,503,1,48,46,2556247132
3723,13,Improv_Metronome,504,5,42,127,2556252400
3723,13,Improv_Metronome,505,1,48,33,2556457260
3723,13,Improv_Metronome,506,1,38,50,2556637200
3723,13,Improv_Metronome,507,1,48,46,2556744960
3723,13,Improv_Metronome,508,5,42,127,2556753220
3723,13,Improv_Metronome,509,1,48,31,2556949852
3723,13,Improv_Metronome,510,1,38,52,2557110524
3723,13,Improv_Metronome,511,5,42,127,2557253252
3723,13,Improv_Metronome,512,1,48,46,2557256520
3723,13,Improv_Metronome,513,1,48,32,2557452268
3723,13,Improv_Metronome,514,1,38,49,2557643676
3723,13,Improv_Metronome,515,5,42,127,2557753124
3723,13,Improv_Metronome,516,1,48,48,2557757216
3723,13,Improv_Metronome,517,1,48,31,2557948328
3723,13,Improv_Metronome,518,1,48,29,2558107500
3723,13,Improv_Metronome,519,1,38,55,2558176892
3723,13,Improv_Metronome,520,5,42,127,2558253356
3723,13,Improv_Metronome,521,1,48,42,2558368456
3723,13,Improv_Metronome,522,1,48,29,2558569412
3723,13,Improv_Metronome,523,5,42,127,2558753012
3723,13,Improv_Metronome,524,1,38,54,2558758820
3723,13,Improv_Metronome,525,5,42,127,2559253008
3723,13,Improv_Metronome,526,1,38,57,2559272136
3723,13,Improv_Metronome,527,1,48,54,2559276452
3723,13,Improv_Metronome,528,5,42,127,2559752408
3723,13,Improv_Metronome,529,1,48,47,2559774444
3723,13,Improv_Metronome,530,1,38,52,2559777716
3723,13,Improv_Metronome,0,9999,9999,9999,2490250340
3723,13,Improv_Metronome,1,9999,9999,9999,2490751032
3723,13,Improv_Metronome,2,9999,9999,9999,2491250752
3723,13,Improv_Metronome,3,9999,9999,9999,2491750472
3723,13,Improv_Metronome,4,9999,9999,9999,2492250192
3723,13,Improv_Metronome,5,9999,9999,9999,2492750928
3723,13,Improv_Metronome,6,9999,9999,9999,2493250652
3723,13,Improv_Metronome,7,9999,9999,9999,2493750380
3723,13,Improv_Metronome,8,9999,9999,9999,2494251084
3723,13,Improv_Metronome,9,9999,9999,9999,2494750780
3723,13,Improv_Metronome,10,9999,9999,9999,2495250556
3723,13,Improv_Metronome,11,9999,9999,9999,2495750192
3723,13,Improv_Metronome,12,9999,9999,9999,2496250940
3723,13,Improv_Metronome,13,9999,9999,9999,2496750712
3723,13,Improv_Metronome,14,9999,9999,9999,2497250408
3723,13,Improv_Metronome,15,9999,9999,9999,2497750120
3723,13,Improv_Metronome,16,9999,9999,9999,2498250808
3723,13,Improv_Metronome,17,9999,9999,9999,2498750576
3723,13,Improv_Metronome,18,9999,9999,9999,2499250244
3723,13,Improv_Metronome,19,9999,9999,9999,2499751020
3723,13,Improv_Metronome,20,9999,9999,9999,2500250672
3723,13,Improv_Metronome,21,9999,9999,9999,2500750420
3723,13,Improv_Metronome,22,9999,9999,9999,2501250112
3723,13,Improv_Metronome,23,9999,9999,9999,2501750844
3723,13,Improv_Metronome,24,9999,9999,9999,2502250612
3723,13,Improv_Metronome,25,9999,9999,9999,2502750308
3723,13,Improv_Metronome,26,9999,9999,9999,2503251032
3723,13,Improv_Metronome,27,9999,9999,9999,2503750760
3723,13,Improv_Metronome,28,9999,9999,9999,2504250436
3723,13,Improv_Metronome,29,9999,9999,9999,2504750184
3723,13,Improv_Metronome,30,9999,9999,9999,2505250904
3723,13,Improv_Metronome,31,9999,9999,9999,2505750576
3723,13,Improv_Metronome,32,9999,9999,9999,2506250328
3723,13,Improv_Metronome,33,9999,9999,9999,2506751032
3723,13,Improv_Metronome,34,9999,9999,9999,2507250772
3723,13,Improv_Metronome,35,9999,9999,9999,2507750520
3723,13,Improv_Metronome,36,9999,9999,9999,2508250212
3723,13,Improv_Metronome,37,9999,9999,9999,2508750932
3723,13,Improv_Metronome,38,9999,9999,9999,2509250664
3723,13,Improv_Metronome,39,9999,9999,9999,2509750336
3723,13,Improv_Metronome,40,9999,9999,9999,2510251108
3723,13,Improv_Metronome,41,9999,9999,9999,2510750776
3723,13,Improv_Metronome,42,9999,9999,9999,2511250524
3723,13,Improv_Metronome,43,9999,9999,9999,2511750244
3723,13,Improv_Metronome,44,9999,9999,9999,2512250932
3723,13,Improv_Metronome,45,9999,9999,9999,2512750676
3723,13,Improv_Metronome,46,9999,9999,9999,2513250420
3723,13,Improv_Metronome,47,9999,9999,9999,2513750092
3723,13,Improv_Metronome,48,9999,9999,9999,2514250848
3723,13,Improv_Metronome,49,9999,9999,9999,2514750572
3723,13,Improv_Metronome,50,9999,9999,9999,2515250244
3723,13,Improv_Metronome,51,9999,9999,9999,2515751032
3723,13,Improv_Metronome,52,9999,9999,9999,2516250732
3723,13,Improv_Metronome,53,9999,9999,9999,2516750456
3723,13,Improv_Metronome,54,9999,9999,9999,2517250168
3723,13,Improv_Metronome,55,9999,9999,9999,2517750848
3723,13,Improv_Metronome,56,9999,9999,9999,2518250620
3723,13,Improv_Metronome,57,9999,9999,9999,2518750260
3723,13,Improv_Metronome,58,9999,9999,9999,2519251056
3723,13,Improv_Metronome,59,9999,9999,9999,2519750744
3723,13,Improv_Metronome,60,9999,9999,9999,2520250428
3723,13,Improv_Metronome,61,9999,9999,9999,2520750192
3723,13,Improv_Metronome,62,9999,9999,9999,2521250920
3723,13,Improv_Metronome,63,9999,9999,9999,2521750628
3723,13,Improv_Metronome,64,9999,9999,9999,2522250324
3723,13,Improv_Metronome,65,9999,9999,9999,2522751048
3723,13,Improv_Metronome,66,9999,9999,9999,2523250780
3723,13,Improv_Metronome,67,9999,9999,9999,2523750460
3723,13,Improv_Metronome,68,9999,9999,9999,2524250176
3723,13,Improv_Metronome,69,9999,9999,9999,2524750948
3723,13,Improv_Metronome,70,9999,9999,9999,2525250636
3723,13,Improv_Metronome,71,9999,9999,9999,2525750348
3723,13,Improv_Metronome,72,9999,9999,9999,2526251084
3723,13,Improv_Metronome,73,9999,9999,9999,2526750808
3723,13,Improv_Metronome,74,9999,9999,9999,2527250552
3723,13,Improv_Metronome,75,9999,9999,9999,2527750252
3723,13,Improv_Metronome,76,9999,9999,9999,2528250936
3723,13,Improv_Metronome,77,9999,9999,9999,2528750680
3723,13,Improv_Metronome,78,9999,9999,9999,2529250380
3723,13,Improv_Metronome,79,9999,9999,9999,2529750124
3723,13,Improv_Metronome,80,9999,9999,9999,2530250824
3723,13,Improv_Metronome,81,9999,9999,9999,2530750572
3723,13,Improv_Metronome,82,9999,9999,9999,2531250296
3723,13,Improv_Metronome,83,9999,9999,9999,2531750988
3723,13,Improv_Metronome,84,9999,9999,9999,2532250740
3723,13,Improv_Metronome,85,9999,9999,9999,2532750388
3723,13,Improv_Metronome,86,9999,9999,9999,2533250116
3723,13,Improv_Metronome,87,9999,9999,9999,2533750836
3723,13,Improv_Metronome,88,9999,9999,9999,2534250576
3723,13,Improv_Metronome,89,9999,9999,9999,2534750272
3723,13,Improv_Metronome,90,9999,9999,9999,2535251020
3723,13,Improv_Metronome,91,9999,9999,9999,2535750716
3723,13,Improv_Metronome,92,9999,9999,9999,2536250456
3723,13,Improv_Metronome,93,9999,9999,9999,2536750204
3723,13,Improv_Metronome,94,9999,9999,9999,2537250900
3723,13,Improv_Metronome,95,9999,9999,9999,2537750648
3723,13,Improv_Metronome,96,9999,9999,9999,2538250356
3723,13,Improv_Metronome,97,9999,9999,9999,2538751036
3723,13,Improv_Metronome,98,9999,9999,9999,2539250740
3723,13,Improv_Metronome,99,9999,9999,9999,2539750492
3723,13,Improv_Metronome,100,9999,9999,9999,2540250172
3723,13,Improv_Metronome,101,9999,9999,9999,2540750924
3723,13,Improv_Metronome,102,9999,9999,9999,2541250676
3723,13,Improv_Metronome,103,9999,9999,9999,2541750356
3723,13,Improv_Metronome,104,9999,9999,9999,2542251116
3723,13,Improv_Metronome,105,9999,9999,9999,2542750836
3723,13,Improv_Metronome,106,9999,9999,9999,2543250508
3723,13,Improv_Metronome,107,9999,9999,9999,2543750200
3723,13,Improv_Metronome,108,9999,9999,9999,2544251000
3723,13,Improv_Metronome,109,9999,9999,9999,2544750716
3723,13,Improv_Metronome,110,9999,9999,9999,2545250388
3723,13,Improv_Metronome,111,9999,9999,9999,2545750084
3723,13,Improv_Metronome,112,9999,9999,9999,2546250856
3723,13,Improv_Metronome,113,9999,9999,9999,2546750528
3723,13,Improv_Metronome,114,9999,9999,9999,2547250276
3723,13,Improv_Metronome,115,9999,9999,9999,2547750980
3723,13,Improv_Metronome,116,9999,9999,9999,2548250692
3723,13,Improv_Metronome,117,9999,9999,9999,2548750440
3723,13,Improv_Metronome,118,9999,9999,9999,2549250160
3723,13,Improv_Metronome,119,9999,9999,9999,2549750892
3723,13,Improv_Metronome,120,9999,9999,9999,2550250572
3723,13,Improv_Metronome,121,9999,9999,9999,2550750264
3723,13,Improv_Metronome,122,9999,9999,9999,2551251036
3723,13,Improv_Metronome,123,9999,9999,9999,2551750736
3723,13,Improv_Metronome,124,9999,9999,9999,2552250488
3723,13,Improv_Metronome,125,9999,9999,9999,2552750160
3723,13,Improv_Metronome,126,9999,9999,9999,2553250928
3723,13,Improv_Metronome,127,9999,9999,9999,2553750600
3723,13,Improv_Metronome,128,9999,9999,9999,2554250340
3723,13,Improv_Metronome,129,9999,9999,9999,2554751092
3723,13,Improv_Metronome,130,9999,9999,9999,2555250744
3723,13,Improv_Metronome,131,9999,9999,9999,2555750484
3723,13,Improv_Metronome,132,9999,9999,9999,2556250188
3723,13,Improv_Metronome,133,9999,9999,9999,2556750936
3723,13,Improv_Metronome,134,9999,9999,9999,2557250668
3723,13,Improv_Metronome,135,9999,9999,9999,2557750392
3723,13,Improv_Metronome,136,9999,9999,9999,2558251072
3723,13,Improv_Metronome,137,9999,9999,9999,2558750800
3723,13,Improv_Metronome,138,9999,9999,9999,2559250496
3723,13,Improv_Metronome,139,9999,9999,9999,2559750192
3724,14,Improv_Melody,0,2,48,80,2619573712
3724,14,Improv_Melody,1,2,72,80,2619575724
3724,14,Improv_Melody,2,5,42,127,2619578408
3724,14,Improv_Melody,3,5,42,110,2620072444
3724,14,Improv_Melody,4,5,42,110,2620571944
3724,14,Improv_Melody,5,5,42,110,2621071740
3724,14,Improv_Melody,6,5,42,127,2621571584
3724,14,Improv_Melody,7,5,42,110,2622072280
3724,14,Improv_Melody,8,5,42,110,2622571776
3724,14,Improv_Melody,9,5,42,110,2623071576
3724,14,Improv_Melody,10,2,43,80,2623574768
3724,14,Improv_Melody,11,2,67,80,2623577072
3724,14,Improv_Melody,12,5,42,127,2623579684
3724,14,Improv_Melody,13,5,42,110,2624071928
3724,14,Improv_Melody,14,5,42,110,2624571800
3724,14,Improv_Melody,15,5,42,110,2625071448
3724,14,Improv_Melody,16,5,42,127,2625572364
3724,14,Improv_Melody,17,5,42,110,2626071864
3724,14,Improv_Melody,18,5,42,110,2626571584
3724,14,Improv_Melody,19,5,42,110,2627072356
3724,14,Improv_Melody,20,2,45,80,2627574576
3724,14,Improv_Melody,21,2,69,80,2627576884
3724,14,Improv_Melody,22,5,42,127,2627579492
3724,14,Improv_Melody,23,5,42,110,2628071664
3724,14,Improv_Melody,24,5,42,110,2628571460
3724,14,Improv_Melody,25,5,42,110,2629072376
3724,14,Improv_Melody,26,5,42,127,2629572172
3724,14,Improv_Melody,27,5,42,110,2630071520
3724,14,Improv_Melody,28,5,42,110,2630572364
3724,14,Improv_Melody,29,5,42,110,2631072084
3724,14,Improv_Melody,30,2,41,80,2631574308
3724,14,Improv_Melody,31,2,65,80,2631576388
3724,14,Improv_Melody,32,5,42,127,2631579000
3724,14,Improv_Melody,33,5,42,110,2632071516
3724,14,Improv_Melody,34,5,42,110,2632572260
3724,14,Improv_Melody,35,5,42,110,2633071984
3724,14,Improv_Melody,36,5,42,127,2633571556
3724,14,Improv_Melody,37,5,42,110,2634072324
3724,14,Improv_Melody,38,5,42,110,2634572192
3724,14,Improv_Melody,39,5,42,110,2635072064
3724,14,Improv_Melody,40,2,48,80,2635574064
3724,14,Improv_Melody,41,2,72,80,2635576068
3724,14,Improv_Melody,42,5,42,127,2635578532
3724,14,Improv_Melody,43,1,48,42,2635626004
3724,14,Improv_Melody,44,5,42,110,2636072172
3724,14,Improv_Melody,45,1,48,33,2636076116
3724,14,Improv_Melody,46,1,48,31,2636570128
3724,14,Improv_Melody,47,5,42,110,2636571940
3724,14,Improv_Melody,48,1,48,30,2637026944
3724,14,Improv_Melody,49,5,42,110,2637071788
3724,14,Improv_Melody,50,1,48,34,2637535092
3724,14,Improv_Melody,51,5,42,127,2637571340
3724,14,Improv_Melody,52,1,48,22,2638007348
3724,14,Improv_Melody,53,5,42,110,2638072160
3724,14,Improv_Melody,54,1,48,26,2638567256
3724,14,Improv_Melody,55,5,42,110,2638572008
3724,14,Improv_Melody,56,1,38,31,2638590016
3724,14,Improv_Melody,57,1,38,20,2638652896
3724,14,Improv_Melody,58,1,48,29,2639039384
3724,14,Improv_Melody,59,5,42,110,2639071816
3724,14,Improv_Melody,60,1,38,46,2639501840
3724,14,Improv_Melody,61,1,48,37,2639505036
3724,14,Improv_Melody,62,2,43,80,2639575052
3724,14,Improv_Melody,63,2,67,80,2639577204
3724,14,Improv_Melody,64,5,42,127,2639579808
3724,14,Improv_Melody,65,1,48,27,2640012652
3724,14,Improv_Melody,66,5,42,110,2640072080
3724,14,Improv_Melody,67,1,48,34,2640484276
3724,14,Improv_Melody,68,1,38,45,2640494504
3724,14,Improv_Melody,69,5,42,110,2640571688
3724,14,Improv_Melody,70,1,48,23,2640997620
3724,14,Improv_Melody,71,5,42,110,2641071432
3724,14,Improv_Melody,72,1,48,38,2641503824
3724,14,Improv_Melody,73,1,38,44,2641510308
3724,14,Improv_Melody,74,5,42,127,2641572156
3724,14,Improv_Melody,75,1,48,24,2641989040
3724,14,Improv_Melody,76,5,42,110,2642071832
3724,14,Improv_Melody,77,1,48,39,2642508708
3724,14,Improv_Melody,78,1,38,43,2642524472
3724,14,Improv_Melody,79,5,42,110,2642571808
3724,14,Improv_Melody,80,1,48,29,2642995192
3724,14,Improv_Melody,81,5,42,110,2643072652
3724,14,Improv_Melody,82,1,48,40,2643522948
3724,14,Improv_Melody,83,1,38,47,2643542972
3724,14,Improv_Melody,84,2,45,80,2643574384
3724,14,Improv_Melody,85,2,69,80,2643576764
3724,14,Improv_Melody,86,5,42,127,2643579228
3724,14,Improv_Melody,87,1,48,34,2644040412
3724,14,Improv_Melody,88,5,42,110,2644071720
3724,14,Improv_Melody,89,1,48,41,2644509668
3724,14,Improv_Melody,90,1,38,46,2644546448
3724,14,Improv_Melody,91,5,42,110,2644571476
3724,14,Improv_Melody,92,1,38,28,2644601132
3724,14,Improv_Melody,93,1,48,32,2644841968
3724,14,Improv_Melody,94,1,48,39,2645066140
3724,14,Improv_Melody,95,5,42,110,2645072236
3724,14,Improv_Melody,96,1,48,37,2645544000
3724,14,Improv_Melody,97,5,42,127,2645571936
3724,14,Improv_Melody,98,1,38,45,2645585376
3724,14,Improv_Melody,99,1,48,32,2646028480
3724,14,Improv_Melody,100,5,42,110,2646071752
3724,14,Improv_Melody,101,1,48,41,2646512172
3724,14,Improv_Melody,102,1,38,43,2646518136
3724,14,Improv_Melody,103,5,42,110,2646572476
3724,14,Improv_Melody,104,1,48,33,2646806328
3724,14,Improv_Melody,105,1,48,29,2647035660
3724,14,Improv_Melody,106,5,42,110,2647072128
3724,14,Improv_Melody,107,1,48,41,2647459968
3724,14,Improv_Melody,108,1,38,44,2647492932
3724,14,Improv_Melody,109,2,41,80,2647574372
3724,14,Improv_Melody,110,2,65,80,2647576520
3724,14,Improv_Melody,111,5,42,127,2647579132
3724,14,Improv_Melody,112,1,48,33,2648032648
3724,14,Improv_Melody,113,5,42,110,2648071508
3724,14,Improv_Melody,114,1,48,38,2648529724
3724,14,Improv_Melody,115,1,38,42,2648538312
3724,14,Improv_Melody,116,5,42,110,2648572308
3724,14,Improv_Melody,117,1,48,34,2648828972
3724,14,Improv_Melody,118,1,48,35,2649072188
3724,14,Improv_Melody,119,5,42,110,2649073680
3724,14,Improv_Melody,120,1,48,45,2649526212
3724,14,Improv_Melody,121,1,38,48,2649565988
3724,14,Improv_Melody,122,5,42,127,2649571640
3724,14,Improv_Melody,123,1,48,35,2649954036
3724,14,Improv_Melody,124,5,42,110,2650072344
3724,14,Improv_Melody,125,1,48,43,2650542696
3724,14,Improv_Melody,126,5,42,110,2650572428
3724,14,Improv_Melody,127,1,38,46,2650585720
3724,14,Improv_Melody,128,1,48,34,2650860052
3724,14,Improv_Melody,129,5,42,110,2651071856
3724,14,Improv_Melody,130,1,48,34,2651088880
3724,14,Improv_Melody,131,1,48,43,2651544356
3724,14,Improv_Melody,132,2,48,80,2651574200
3724,14,Improv_Melody,133,2,72,80,2651576356
3724,14,Improv_Melody,134,1,38,48,2651577992
3724,14,Improv_Melody,135,5,42,127,2651581124
3724,14,Improv_Melody,136,1,48,39,2652011024
3724,14,Improv_Melody,137,5,42,110,2652072200
3724,14,Improv_Melody,138,1,38,40,2652534060
3724,14,Improv_Melody,139,1,48,44,2652538380
3724,14,Improv_Melody,140,5,42,110,2652571880
3724,14,Improv_Melody,141,1,48,40,2652827564
3724,14,Improv_Melody,142,1,48,34,2653047828
3724,14,Improv_Melody,143,5,42,110,2653071828
3724,14,Improv_Melody,144,1,48,37,2653536456
3724,14,Improv_Melody,145,1,38,50,2653566132
3724,14,Improv_Melody,146,5,42,127,2653571556
3724,14,Improv_Melody,147,1,48,44,2653990256
3724,14,Improv_Melody,148,5,42,110,2654072424
3724,14,Improv_Melody,149,1,48,47,2654553536
3724,14,Improv_Melody,150,5,42,110,2654571824
3724,14,Improv_Melody,151,1,38,39,2654594468
3724,14,Improv_Melody,152,1,48,41,2654862396
3724,14,Improv_Melody,153,5,42,110,2655071480
3724,14,Improv_Melody,154,1,48,37,2655072444
3724,14,Improv_Melody,155,1,38,44,2655550564
3724,14,Improv_Melody,156,2,43,80,2655575104
3724,14,Improv_Melody,157,2,67,80,2655577252
3724,14,Improv_Melody,158,5,42,127,2655579784
3724,14,Improv_Melody,159,1,48,47,2655617092
3724,14,Improv_Melody,160,1,48,29,2655837640
3724,14,Improv_Melody,161,1,48,36,2656045580
3724,14,Improv_Melody,162,5,42,110,2656072172
3724,14,Improv_Melody,163,1,48,34,2656527180
3724,14,Improv_Melody,164,1,38,48,2656557828
3724,14,Improv_Melody,165,5,42,110,2656571780
3724,14,Improv_Melody,166,1,48,37,2657010684
3724,14,Improv_Melody,167,5,42,110,2657071464
3724,14,Improv_Melody,168,1,48,43,2657518768
3724,14,Improv_Melody,169,1,38,43,2657540884
3724,14,Improv_Melody,170,5,42,127,2657572116
3724,14,Improv_Melody,171,1,48,36,2657999864
3724,14,Improv_Melody,172,5,42,110,2658071864
3724,14,Improv_Melody,173,1,48,44,2658488944
3724,14,Improv_Melody,174,1,38,42,2658512264
3724,14,Improv_Melody,175,5,42,110,2658571544
3724,14,Improv_Melody,176,1,48,37,2658802780
3724,14,Improv_Melody,177,1,48,31,2659022608
3724,14,Improv_Melody,178,5,42,110,2659072392
3724,14,Improv_Melody,179,1,48,44,2659555972
3724,14,Improv_Melody,180,2,45,80,2659574596
3724,14,Improv_Melody,181,2,69,80,2659576820
3724,14,Improv_Melody,182,5,42,127,2659579432
3724,14,Improv_Melody,183,1,38,54,2659584348
3724,14,Improv_Melody,184,1,48,35,2660045028
3724,14,Improv_Melody,185,5,42,110,2660071992
3724,14,Improv_Melody,186,1,48,46,2660539716
3724,14,Improv_Melody,187,1,38,57,2660555180
3724,14,Improv_Melody,188,5,42,110,2660571448
3724,14,Improv_Melody,189,1,48,36,2661007352
3724,14,Improv_Melody,190,5,42,110,2661072316
3724,14,Improv_Melody,191,1,48,39,2661555596
3724,14,Improv_Melody,192,5,42,127,2661572092
3724,14,Improv_Melody,193,1,38,33,2661592712
3724,14,Improv_Melody,194,1,48,31,2661995700
3724,14,Improv_Melody,195,5,42,110,2662071756
3724,14,Improv_Melody,196,1,48,40,2662371608
3724,14,Improv_Melody,197,5,42,110,2662572340
3724,14,Improv_Melody,198,1,48,40,2662597076
3724,14,Improv_Melody,199,1,38,45,2662620764
3724,14,Improv_Melody,200,1,48,30,2662836312
3724,14,Improv_Melody,201,1,48,32,2663053748
3724,14,Improv_Melody,202,5,42,110,2663072112
3724,14,Improv_Melody,203,1,48,38,2663238420
3724,14,Improv_Melody,204,2,41,80,2663574296
3724,14,Improv_Melody,205,2,65,80,2663576608
3724,14,Improv_Melody,206,5,42,127,2663579140
3724,14,Improv_Melody,207,1,48,47,2663582556
3724,14,Improv_Melody,208,1,38,47,2663612156
3724,14,Improv_Melody,209,5,42,110,2664071908
3724,14,Improv_Melody,210,1,48,34,2664073548
3724,14,Improv_Melody,211,1,48,34,2664560316
3724,14,Improv_Melody,212,5,42,110,2664572176
3724,14,Improv_Melody,213,1,38,34,2664590880
3724,14,Improv_Melody,214,1,48,33,2665028568
3724,14,Improv_Melody,215,5,42,110,2665071916
3724,14,Improv_Melody,216,1,48,37,2665520936
3724,14,Improv_Melody,217,1,38,39,2665530264
3724,14,Improv_Melody,218,5,42,127,2665571896
3724,14,Improv_Melody,219,1,48,29,2665962396
3724,14,Improv_Melody,220,5,42,110,2666072376
3724,14,Improv_Melody,221,1,48,38,2666504212
3724,14,Improv_Melody,222,1,38,43,2666528348
3724,14,Improv_Melody,223,5,42,110,2666572072
3724,14,Improv_Melody,224,1,48,32,2667017848
3724,14,Improv_Melody,225,5,42,110,2667071744
3724,14,Improv_Melody,226,1,38,43,2667522856
3724,14,Improv_Melody,227,1,48,41,2667545880
3724,14,Improv_Melody,228,2,48,80,2667574224
3724,14,Improv_Melody,229,2,72,80,2667576456
3724,14,Improv_Melody,230,5,42,127,2667579064
3724,14,Improv_Melody,231,1,48,36,2668018712
3724,14,Improv_Melody,232,5,42,110,2668072228
3724,14,Improv_Melody,233,1,38,43,2668552744
3724,14,Improv_Melody,234,1,48,44,2668566712
3724,14,Improv_Melody,235,5,42,110,2668571984
3724,14,Improv_Melody,236,1,48,30,2668782124
3724,14,Improv_Melody,237,1,48,37,2668986480
3724,14,Improv_Melody,238,5,42,110,2669071712
3724,14,Improv_Melody,239,5,42,127,2669571492
3724,14,Improv_Melody,240,1,48,41,2669601684
3724,14,Improv_Melody,241,1,38,39,2669604960
3724,14,Improv_Melody,242,1,48,33,2670033116
3724,14,Improv_Melody,243,5,42,110,2670072048
3724,14,Improv_Melody,244,1,38,47,2670538572
3724,14,Improv_Melody,245,1,48,46,2670541768
3724,14,Improv_Melody,246,5,42,110,2670571952
3724,14,Improv_Melody,247,1,48,30,2670741028
3724,14,Improv_Melody,248,1,48,17,2670961584
3724,14,Improv_Melody,249,5,42,110,2671071664
3724,14,Improv_Melody,250,1,48,34,2671130204
3724,14,Improv_Melody,251,1,48,46,2671565556
3724,14,Improv_Melody,252,2,43,80,2671574828
3724,14,Improv_Melody,253,2,67,80,2671577136
3724,14,Improv_Melody,254,5,42,127,2671579744
3724,14,Improv_Melody,255,1,38,51,2671594908
3724,14,Improv_Melody,256,1,48,36,2672025440
3724,14,Improv_Melody,257,5,42,110,2672072008
3724,14,Improv_Melody,258,1,48,47,2672506344
3724,14,Improv_Melody,259,1,38,46,2672509688
3724,14,Improv_Melody,260,5,42,110,2672571612
3724,14,Improv_Melody,261,1,48,32,2672717028
3724,14,Improv_Melody,262,1,48,29,2672916892
3724,14,Improv_Melody,263,5,42,110,2673071548
3724,14,Improv_Melody,264,1,48,29,2673086332
3724,14,Improv_Melody,265,5,42,127,2673572368
3724,14,Improv_Melody,266,1,48,41,2673584612
3724,14,Improv_Melody,267,1,38,51,2673605160
3724,14,Improv_Melody,268,1,48,33,2674021536
3724,14,Improv_Melody,269,5,42,110,2674072012
3724,14,Improv_Melody,270,1,48,42,2674532976
3724,14,Improv_Melody,271,1,38,43,2674536172
3724,14,Improv_Melody,272,5,42,110,2674571692
3724,14,Improv_Melody,273,1,48,32,2674749416
3724,14,Improv_Melody,274,1,48,31,2674959456
3724,14,Improv_Melody,275,5,42,110,2675072424
3724,14,Improv_Melody,276,1,48,18,2675083120
3724,14,Improv_Melody,277,1,48,39,2675510892
3724,14,Improv_Melody,278,1,38,54,2675541764
3724,14,Improv_Melody,279,2,45,80,2675574676
3724,14,Improv_Melody,280,2,69,80,2675576980
3724,14,Improv_Melody,281,5,42,127,2675579512
3724,14,Improv_Melody,282,1,48,33,2675968148
3724,14,Improv_Melody,283,5,42,110,2676071916
3724,14,Improv_Melody,284,5,42,110,2676571416
3724,14,Improv_Melody,285,1,38,50,2676594732
3724,14,Improv_Melody,286,1,48,38,2676598000
3724,14,Improv_Melody,287,1,48,33,2677064740
3724,14,Improv_Melody,288,5,42,110,2677072332
3724,14,Improv_Melody,289,5,42,127,2677572036
3724,14,Improv_Melody,290,1,48,42,2677583608
3724,14,Improv_Melody,291,1,38,52,2677596528
3724,14,Improv_Melody,292,1,48,32,2678063416
3724,14,Improv_Melody,293,5,42,110,2678071832
3724,14,Improv_Melody,294,1,48,36,2678548376
3724,14,Improv_Melody,295,1,38,44,2678549032
3724,14,Improv_Melody,296,5,42,110,2678572336
3724,14,Improv_Melody,297,1,48,35,2679050200
3724,14,Improv_Melody,298,5,42,110,2679072308
3724,14,Improv_Melody,299,1,48,46,2679545488
3724,14,Improv_Melody,300,1,38,48,2679549284
3724,14,Improv_Melody,301,2,41,80,2679574416
3724,14,Improv_Melody,302,2,65,80,2679576872
3724,14,Improv_Melody,303,5,42,127,2679579476
3724,14,Improv_Melody,304,1,48,34,2679992944
3724,14,Improv_Melody,305,5,42,110,2680071672
3724,14,Improv_Melody,306,1,38,44,2680568340
3724,14,Improv_Melody,307,5,42,110,2680572196
3724,14,Improv_Melody,308,1,48,47,2680588628
3724,14,Improv_Melody,309,1,48,34,2680805444
3724,14,Improv_Melody,310,1,48,32,2680998348
3724,14,Improv_Melody,311,5,42,110,2681072064
3724,14,Improv_Melody,312,1,48,33,2681139192
3724,14,Improv_Melody,313,1,48,43,2681564820
3724,14,Improv_Melody,314,5,42,127,2681571744
3724,14,Improv_Melody,315,1,38,48,2681590640
3724,14,Improv_Melody,316,1,48,36,2682044888
3724,14,Improv_Melody,317,5,42,110,2682072304
3724,14,Improv_Melody,318,1,48,45,2682536212
3724,14,Improv_Melody,319,1,38,49,2682546440
3724,14,Improv_Melody,320,5,42,110,2682572284
3724,14,Improv_Melody,321,1,48,32,2682736620
3724,14,Improv_Melody,322,1,48,32,2682935812
3724,14,Improv_Melody,323,1,48,24,2683066036
3724,14,Improv_Melody,324,5,42,110,2683072060
3724,14,Improv_Melody,325,1,48,44,2683532904
3724,14,Improv_Melody,326,1,38,51,2683550236
3724,14,Improv_Melody,327,2,48,80,2683574248
3724,14,Improv_Melody,328,2,72,80,2683576552
3724,14,Improv_Melody,329,5,42,127,2683579232
3724,14,Improv_Melody,330,1,48,41,2684017736
3724,14,Improv_Melody,331,5,42,110,2684072252
3724,14,Improv_Melody,332,1,48,46,2684540916
3724,14,Improv_Melody,333,1,38,49,2684541572
3724,14,Improv_Melody,334,5,42,110,2684571932
3724,14,Improv_Melody,335,1,48,35,2684747340
3724,14,Improv_Melody,336,1,48,35,2684946080
3724,14,Improv_Melody,337,5,42,110,2685071940
3724,14,Improv_Melody,338,1,48,46,2685488492
3724,14,Improv_Melody,339,1,38,53,2685495200
3724,14,Improv_Melody,340,5,42,127,2685571388
3724,14,Improv_Melody,341,1,48,40,2686018408
3724,14,Improv_Melody,342,5,42,110,2686072080
3724,14,Improv_Melody,343,1,48,45,2686479368
3724,14,Improv_Melody,344,1,38,40,2686527288
3724,14,Improv_Melody,345,5,42,110,2686572340
3724,14,Improv_Melody,346,1,48,39,2686721032
3724,14,Improv_Melody,347,5,42,110,2687071580
3724,14,Improv_Melody,348,1,48,47,2687275332
3724,14,Improv_Melody,349,1,38,47,2687285632
3724,14,Improv_Melody,350,2,43,80,2687574860
3724,14,Improv_Melody,351,2,67,80,2687577008
3724,14,Improv_Melody,352,5,42,127,2687579396
3724,14,Improv_Melody,353,5,42,110,2688072088
3724,14,Improv_Melody,354,1,38,47,2688536612
3724,14,Improv_Melody,355,5,42,110,2688572024
3724,14,Improv_Melody,356,1,48,43,2689012596
3724,14,Improv_Melody,357,1,38,46,2689022824
3724,14,Improv_Melody,358,5,42,110,2689071408
3724,14,Improv_Melody,359,1,48,45,2689532592
3724,14,Improv_Melody,360,5,42,127,2689572200
3724,14,Improv_Melody,361,1,48,51,2689997964
3724,14,Improv_Melody,362,1,38,51,2690019856
3724,14,Improv_Melody,363,5,42,110,2690072032
3724,14,Improv_Melody,364,1,48,43,2690493724
3724,14,Improv_Melody,365,5,42,110,2690571776
3724,14,Improv_Melody,366,1,48,48,2691033144
3724,14,Improv_Melody,367,1,38,44,2691042548
3724,14,Improv_Melody,368,5,42,110,2691072356
3724,14,Improv_Melody,369,1,48,32,2691240984
3724,14,Improv_Melody,370,1,48,29,2691451812
3724,14,Improv_Melody,371,2,45,80,2691574796
3724,14,Improv_Melody,372,2,69,80,2691576872
3724,14,Improv_Melody,373,5,42,127,2691579704
3724,14,Improv_Melody,374,1,48,44,2692052604
3724,14,Improv_Melody,375,1,38,49,2692062832
3724,14,Improv_Melody,376,5,42,110,2692071772
3724,14,Improv_Melody,377,1,48,38,2692519420
3724,14,Improv_Melody,378,5,42,110,2692571668
3724,14,Improv_Melody,379,1,48,45,2693050688
3724,14,Improv_Melody,380,1,38,47,2693058744
3724,14,Improv_Melody,381,5,42,110,2693072248
3724,14,Improv_Melody,382,1,48,39,2693523112
3724,14,Improv_Melody,383,5,42,127,2693571920
3724,14,Improv_Melody,384,1,38,42,2694040764
3724,14,Improv_Melody,385,1,48,38,2694044108
3724,14,Improv_Melody,386,5,42,110,2694071672
3724,14,Improv_Melody,387,1,48,37,2694519968
3724,14,Improv_Melody,388,5,42,110,2694572688
3724,14,Improv_Melody,389,1,48,42,2695030288
3724,14,Improv_Melody,390,1,38,47,2695034160
3724,14,Improv_Melody,391,5,42,110,2695072072
3724,14,Improv_Melody,392,1,48,40,2695497108
3724,14,Improv_Melody,393,2,41,80,2695574320
3724,14,Improv_Melody,394,2,65,80,2695576548
3724,14,Improv_Melody,395,5,42,127,2695579012
3724,14,Improv_Melody,396,5,42,110,2696071612
3724,14,Improv_Melody,397,1,48,43,2696089168
3724,14,Improv_Melody,398,1,38,49,2696104484
3724,14,Improv_Melody,399,1,48,32,2696518536
3724,14,Improv_Melody,400,5,42,110,2696572504
3724,14,Improv_Melody,401,1,48,41,2697031704
3724,14,Improv_Melody,402,1,38,45,2697051432
3724,14,Improv_Melody,403,5,42,110,2697071964
3724,14,Improv_Melody,404,1,48,35,2697480492
3724,14,Improv_Melody,405,5,42,127,2697571636
3724,14,Improv_Melody,406,1,48,41,2698052896
3724,14,Improv_Melody,407,1,38,48,2698069776
3724,14,Improv_Melody,408,5,42,110,2698072584
3724,14,Improv_Melody,409,1,48,39,2698530256
3724,14,Improv_Melody,410,5,42,110,2698572332
3724,14,Improv_Melody,411,1,38,48,2699028160
3724,14,Improv_Melody,412,1,48,37,2699041308
3724,14,Improv_Melody,413,5,42,110,2699071716
3724,14,Improv_Melody,414,1,48,33,2699490728
3724,14,Improv_Melody,415,2,48,80,2699573976
3724,14,Improv_Melody,416,2,72,80,2699576360
3724,14,Improv_Melody,417,5,42,127,2699578744
3724,14,Improv_Melody,418,5,42,110,2700072388
3724,14,Improv_Melody,419,1,48,41,2700095476
3724,14,Improv_Melody,420,1,38,46,2700098900
3724,14,Improv_Melody,421,1,48,34,2700539308
3724,14,Improv_Melody,0,9999,9999,9999,2619569252
3724,14,Improv_Melody,1,9999,9999,9999,2620070000
3724,14,Improv_Melody,2,9999,9999,9999,2620569648
3724,14,Improv_Melody,3,9999,9999,9999,2621069372
3724,14,Improv_Melody,4,9999,9999,9999,2621569140
3724,14,Improv_Melody,5,9999,9999,9999,2622069836
3724,14,Improv_Melody,6,9999,9999,9999,2622569556
3724,14,Improv_Melody,7,9999,9999,9999,2623069280
3724,14,Improv_Melody,8,9999,9999,9999,2623569976
3724,14,Improv_Melody,9,9999,9999,9999,2624069708
3724,14,Improv_Melody,10,9999,9999,9999,2624569432
3724,14,Improv_Melody,11,9999,9999,9999,2625069152
3724,14,Improv_Melody,12,9999,9999,9999,2625569848
3724,14,Improv_Melody,13,9999,9999,9999,2626069572
3724,14,Improv_Melody,14,9999,9999,9999,2626569292
3724,14,Improv_Melody,15,9999,9999,9999,2627070060
3724,14,Improv_Melody,16,9999,9999,9999,2627569784
3724,14,Improv_Melody,17,9999,9999,9999,2628069444
3724,14,Improv_Melody,18,9999,9999,9999,2628569164
3724,14,Improv_Melody,19,9999,9999,9999,2629069932
3724,14,Improv_Melody,20,9999,9999,9999,2629569652
3724,14,Improv_Melody,21,9999,9999,9999,2630069300
3724,14,Improv_Melody,22,9999,9999,9999,2630570068
3724,14,Improv_Melody,23,9999,9999,9999,2631069792
3724,14,Improv_Melody,24,9999,9999,9999,2631569512
3724,14,Improv_Melody,25,9999,9999,9999,2632069224
3724,14,Improv_Melody,26,9999,9999,9999,2632569968
3724,14,Improv_Melody,27,9999,9999,9999,2633069688
3724,14,Improv_Melody,28,9999,9999,9999,2633569336
3724,14,Improv_Melody,29,9999,9999,9999,2634070104
3724,14,Improv_Melody,30,9999,9999,9999,2634569824
3724,14,Improv_Melody,31,9999,9999,9999,2635069548
3724,14,Improv_Melody,32,9999,9999,9999,2635569268
3724,14,Improv_Melody,33,9999,9999,9999,2636069952
3724,14,Improv_Melody,34,9999,9999,9999,2636569672
3724,14,Improv_Melody,35,9999,9999,9999,2637069420
3724,14,Improv_Melody,36,9999,9999,9999,2637569120
3724,14,Improv_Melody,37,9999,9999,9999,2638069868
3724,14,Improv_Melody,38,9999,9999,9999,2638569568
3724,14,Improv_Melody,39,9999,9999,9999,2639069300
3724,14,Improv_Melody,40,9999,9999,9999,2639570024
3724,14,Improv_Melody,41,9999,9999,9999,2640069712
3724,14,Improv_Melody,42,9999,9999,9999,2640569392
3724,14,Improv_Melody,43,9999,9999,9999,2641069140
3724,14,Improv_Melody,44,9999,9999,9999,2641569864
3724,14,Improv_Melody,45,9999,9999,9999,2642069612
3724,14,Improv_Melody,46,9999,9999,9999,2642569292
3724,14,Improv_Melody,47,9999,9999,9999,2643070060
3724,14,Improv_Melody,48,9999,9999,9999,2643569740
3724,14,Improv_Melody,49,9999,9999,9999,2644069424
3724,14,Improv_Melody,50,9999,9999,9999,2644569180
3724,14,Improv_Melody,51,9999,9999,9999,2645069944
3724,14,Improv_Melody,52,9999,9999,9999,2645569644
3724,14,Improv_Melody,53,9999,9999,9999,2646069308
3724,14,Improv_Melody,54,9999,9999,9999,2646570036
3724,14,Improv_Melody,55,9999,9999,9999,2647069760
3724,14,Improv_Melody,56,9999,9999,9999,2647569500
3724,14,Improv_Melody,57,9999,9999,9999,2648069212
3724,14,Improv_Melody,58,9999,9999,9999,2648569940
3724,14,Improv_Melody,59,9999,9999,9999,2649069672
3724,14,Improv_Melody,60,9999,9999,9999,2649569344
3724,14,Improv_Melody,61,9999,9999,9999,2650070124
3724,14,Improv_Melody,62,9999,9999,9999,2650569836
3724,14,Improv_Melody,63,9999,9999,9999,2651069560
3724,14,Improv_Melody,64,9999,9999,9999,2651569256
3724,14,Improv_Melody,65,9999,9999,9999,2652069980
3724,14,Improv_Melody,66,9999,9999,9999,2652569660
3724,14,Improv_Melody,67,9999,9999,9999,2653069384
3724,14,Improv_Melody,68,9999,9999,9999,2653569112
3724,14,Improv_Melody,69,9999,9999,9999,2654069832
3724,14,Improv_Melody,70,9999,9999,9999,2654569532
3724,14,Improv_Melody,71,9999,9999,9999,2655069256
3724,14,Improv_Melody,72,9999,9999,9999,2655570000
3724,14,Improv_Melody,73,9999,9999,9999,2656069732
3724,14,Improv_Melody,74,9999,9999,9999,2656569412
3724,14,Improv_Melody,75,9999,9999,9999,2657069172
3724,14,Improv_Melody,76,9999,9999,9999,2657569900
3724,14,Improv_Melody,77,9999,9999,9999,2658069572
3724,14,Improv_Melody,78,9999,9999,9999,2658569324
3724,14,Improv_Melody,79,9999,9999,9999,2659070024
3724,14,Improv_Melody,80,9999,9999,9999,2659569724
3724,14,Improv_Melody,81,9999,9999,9999,2660069476
3724,14,Improv_Melody,82,9999,9999,9999,2660569156
3724,14,Improv_Melody,83,9999,9999,9999,2661069876
3724,14,Improv_Melody,84,9999,9999,9999,2661569648
3724,14,Improv_Melody,85,9999,9999,9999,2662069316
3724,14,Improv_Melody,86,9999,9999,9999,2662570044
3724,14,Improv_Melody,87,9999,9999,9999,2663069744
3724,14,Improv_Melody,88,9999,9999,9999,2663569504
3724,14,Improv_Melody,89,9999,9999,9999,2664069168
3724,14,Improv_Melody,90,9999,9999,9999,2664569960
3724,14,Improv_Melody,91,9999,9999,9999,2665069624
3724,14,Improv_Melody,92,9999,9999,9999,2665569376
3724,14,Improv_Melody,93,9999,9999,9999,2666070084
3724,14,Improv_Melody,94,9999,9999,9999,2666569776
3724,14,Improv_Melody,95,9999,9999,9999,2667069524
3724,14,Improv_Melody,96,9999,9999,9999,2667569204
3724,14,Improv_Melody,97,9999,9999,9999,2668069936
3724,14,Improv_Melody,98,9999,9999,9999,2668569692
3724,14,Improv_Melody,99,9999,9999,9999,2669069416
3724,14,Improv_Melody,100,9999,9999,9999,2669569124
3724,14,Improv_Melody,101,9999,9999,9999,2670069828
3724,14,Improv_Melody,102,9999,9999,9999,2670569584
3724,14,Improv_Melody,103,9999,9999,9999,2671069292
3724,14,Improv_Melody,104,9999,9999,9999,2671570036
3724,14,Improv_Melody,105,9999,9999,9999,2672069712
3724,14,Improv_Melody,106,9999,9999,9999,2672569392
3724,14,Improv_Melody,107,9999,9999,9999,2673069104
3724,14,Improv_Melody,108,9999,9999,9999,2673569848
3724,14,Improv_Melody,109,9999,9999,9999,2674069568
3724,14,Improv_Melody,110,9999,9999,9999,2674569324
3724,14,Improv_Melody,111,9999,9999,9999,2675070056
3724,14,Improv_Melody,112,9999,9999,9999,2675569728
3724,14,Improv_Melody,113,9999,9999,9999,2676069476
3724,14,Improv_Melody,114,9999,9999,9999,2676569196
3724,14,Improv_Melody,115,9999,9999,9999,2677069888
3724,14,Improv_Melody,116,9999,9999,9999,2677569596
3724,14,Improv_Melody,117,9999,9999,9999,2678069316
3724,14,Improv_Melody,118,9999,9999,9999,2678570040
3724,14,Improv_Melody,119,9999,9999,9999,2679069792
3724,14,Improv_Melody,120,9999,9999,9999,2679569472
3724,14,Improv_Melody,121,9999,9999,9999,2680069228
3724,14,Improv_Melody,122,9999,9999,9999,2680569976
3724,14,Improv_Melody,123,9999,9999,9999,2681069624
3724,14,Improv_Melody,124,9999,9999,9999,2681569372
3724,14,Improv_Melody,125,9999,9999,9999,2682070088
3724,14,Improv_Melody,126,9999,9999,9999,2682569840
3724,14,Improv_Melody,127,9999,9999,9999,2683069544
3724,14,Improv_Melody,128,9999,9999,9999,2683569224
3724,14,Improv_Melody,129,9999,9999,9999,2684069960
3724,14,Improv_Melody,130,9999,9999,9999,2684569712
3724,14,Improv_Melody,131,9999,9999,9999,2685069424
3724,14,Improv_Melody,132,9999,9999,9999,2685569092
3724,14,Improv_Melody,133,9999,9999,9999,2686069860
3724,14,Improv_Melody,134,9999,9999,9999,2686569540
3724,14,Improv_Melody,135,9999,9999,9999,2687069288
3724,14,Improv_Melody,136,9999,9999,9999,2687569984
3724,14,Improv_Melody,137,9999,9999,9999,2688069720
3724,14,Improv_Melody,138,9999,9999,9999,2688569436
3724,14,Improv_Melody,139,9999,9999,9999,2689069116
3724,14,Improv_Melody,140,9999,9999,9999,2689569908
3724,14,Improv_Melody,141,9999,9999,9999,2690069588
3724,14,Improv_Melody,142,9999,9999,9999,2690569332
3724,14,Improv_Melody,143,9999,9999,9999,2691070060
3724,14,Improv_Melody,144,9999,9999,9999,2691569768
3724,14,Improv_Melody,145,9999,9999,9999,2692069480
3724,14,Improv_Melody,146,9999,9999,9999,2692569152
3724,14,Improv_Melody,147,9999,9999,9999,2693069880
3724,14,Improv_Melody,148,9999,9999,9999,2693569624
3724,14,Improv_Melody,149,9999,9999,9999,2694069304
3724,14,Improv_Melody,150,9999,9999,9999,2694570096
3724,14,Improv_Melody,151,9999,9999,9999,2695069776
3724,14,Improv_Melody,152,9999,9999,9999,2695569524
3724,14,Improv_Melody,153,9999,9999,9999,2696069168
3724,14,Improv_Melody,154,9999,9999,9999,2696569916
3724,14,Improv_Melody,155,9999,9999,9999,2697069668
3724,14,Improv_Melody,156,9999,9999,9999,2697569340
3724,14,Improv_Melody,157,9999,9999,9999,2698070072
3724,14,Improv_Melody,158,9999,9999,9999,2698569816
3724,14,Improv_Melody,159,9999,9999,9999,2699069496
3724,14,Improv_Melody,160,9999,9999,9999,2699569256
3724,14,Improv_Melody,161,9999,9999,9999,2700069948
37