pid,taskRunCount,taskID,taskName,i,channel,pitch,velocity,microseconds
47,1,0,Ticks_Pract_8,0,1,48,32,739456504
47,1,0,Ticks_Pract_8,1,1,48,43,739457172
47,1,0,Ticks_Pract_8,2,1,48,40,739707000
47,1,0,Ticks_Pract_8,3,1,48,31,740012472
47,1,0,Ticks_Pract_8,4,5,42,127,740257256
47,1,0,Ticks_Pract_8,5,1,48,57,740298372
47,1,0,Ticks_Pract_8,6,5,42,127,741056768
47,1,0,Ticks_Pract_8,7,1,48,36,741760068
47,1,0,Ticks_Pract_8,8,5,42,127,741856648
47,1,0,Ticks_Pract_8,9,1,48,68,742553068
47,1,0,Ticks_Pract_8,10,5,42,127,742657580
47,1,0,Ticks_Pract_8,11,1,48,55,743362520
47,1,0,Ticks_Pract_8,12,5,42,127,743457016
47,1,0,Ticks_Pract_8,13,1,48,47,744179460
47,1,0,Ticks_Pract_8,14,5,42,127,744256912
47,1,0,Ticks_Pract_8,15,1,48,51,745015772
47,1,0,Ticks_Pract_8,16,5,42,127,745056496
47,1,0,Ticks_Pract_8,17,1,48,43,745826504
47,1,0,Ticks_Pract_8,18,5,42,127,745857524
47,1,0,Ticks_Pract_8,19,1,48,51,746648996
47,1,0,Ticks_Pract_8,20,5,42,127,746657332
47,1,0,Ticks_Pract_8,21,1,48,51,747449628
47,1,0,Ticks_Pract_8,22,5,42,127,747456768
47,1,0,Ticks_Pract_8,23,1,48,55,748251752
47,1,0,Ticks_Pract_8,24,5,42,127,748256500
47,1,0,Ticks_Pract_8,25,1,48,51,749049836
47,1,0,Ticks_Pract_8,26,5,42,127,749057504
47,1,0,Ticks_Pract_8,27,1,48,54,749826092
47,1,0,Ticks_Pract_8,28,5,42,127,749857240
47,1,0,Ticks_Pract_8,29,1,48,56,750654392
47,1,0,Ticks_Pract_8,30,5,42,127,750656900
47,1,0,Ticks_Pract_8,31,5,42,127,751456492
47,1,0,Ticks_Pract_8,32,1,48,58,751466408
47,1,0,Ticks_Pract_8,33,5,42,127,752257296
47,1,0,Ticks_Pract_8,34,1,48,54,752260784
47,1,0,Ticks_Pract_8,35,1,48,55,753033576
47,1,0,Ticks_Pract_8,36,5,42,127,753057544
47,1,0,Ticks_Pract_8,37,1,48,53,753829048
47,1,0,Ticks_Pract_8,38,5,42,127,753856756
47,1,0,Ticks_Pract_8,39,1,48,54,754607084
47,1,0,Ticks_Pract_8,40,5,42,127,754656488
47,1,0,Ticks_Pract_8,41,1,48,42,755400608
47,1,0,Ticks_Pract_8,42,5,42,127,755457344
47,1,0,Ticks_Pract_8,43,1,48,45,756178656
47,1,0,Ticks_Pract_8,44,5,42,127,756257452
47,1,0,Ticks_Pract_8,45,1,48,49,756970236
47,1,0,Ticks_Pract_8,46,5,42,127,757056960
47,1,0,Ticks_Pract_8,47,1,48,49,757790768
47,1,0,Ticks_Pract_8,48,5,42,127,757856548
47,1,0,Ticks_Pract_8,49,1,48,45,758581524
47,1,0,Ticks_Pract_8,50,5,42,127,758657500
47,1,0,Ticks_Pract_8,51,1,48,54,759395764
47,1,0,Ticks_Pract_8,52,5,42,127,759457308
47,1,0,Ticks_Pract_8,53,1,48,54,760194176
47,1,0,Ticks_Pract_8,54,5,42,127,760256968
47,1,0,Ticks_Pract_8,55,1,48,40,760992192
47,1,0,Ticks_Pract_8,56,5,42,127,761056552
47,1,0,Ticks_Pract_8,57,1,48,43,761755344
47,1,0,Ticks_Pract_8,58,5,42,127,761857316
47,1,0,Ticks_Pract_8,59,1,48,55,762525012
47,1,0,Ticks_Pract_8,60,5,42,127,762657276
47,1,0,Ticks_Pract_8,61,1,48,57,763361844
47,1,0,Ticks_Pract_8,62,5,42,127,763457172
47,1,0,Ticks_Pract_8,63,1,48,58,764239740
47,1,0,Ticks_Pract_8,0,9999,9999,9999,740254816
47,1,0,Ticks_Pract_8,1,9999,9999,9999,741054548
47,1,0,Ticks_Pract_8,2,9999,9999,9999,741854284
47,1,0,Ticks_Pract_8,3,9999,9999,9999,742655064
47,1,0,Ticks_Pract_8,4,9999,9999,9999,743454796
47,1,0,Ticks_Pract_8,5,9999,9999,9999,744254544
47,1,0,Ticks_Pract_8,6,9999,9999,9999,745054280
47,1,0,Ticks_Pract_8,7,9999,9999,9999,745855084
47,1,0,Ticks_Pract_8,8,9999,9999,9999,746654816
47,1,0,Ticks_Pract_8,9,9999,9999,9999,747454552
47,1,0,Ticks_Pract_8,10,9999,9999,9999,748254284
47,1,0,Ticks_Pract_8,11,9999,9999,9999,749055064
47,1,0,Ticks_Pract_8,12,9999,9999,9999,749854800
47,1,0,Ticks_Pract_8,13,9999,9999,9999,750654532
47,1,0,Ticks_Pract_8,14,9999,9999,9999,751454272
47,1,0,Ticks_Pract_8,15,9999,9999,9999,752255076
47,1,0,Ticks_Pract_8,16,9999,9999,9999,753054804
47,1,0,Ticks_Pract_8,17,9999,9999,9999,753854540
47,1,0,Ticks_Pract_8,18,9999,9999,9999,754654272
47,1,0,Ticks_Pract_8,19,9999,9999,9999,755455052
47,1,0,Ticks_Pract_8,20,9999,9999,9999,756254788
47,1,0,Ticks_Pract_8,21,9999,9999,9999,757054520
47,1,0,Ticks_Pract_8,22,9999,9999,9999,757854256
47,1,0,Ticks_Pract_8,23,9999,9999,9999,758655060
47,1,0,Ticks_Pract_8,24,9999,9999,9999,759454792
47,1,0,Ticks_Pract_8,25,9999,9999,9999,760254528
47,1,0,Ticks_Pract_8,26,9999,9999,9999,761054260
47,1,0,Ticks_Pract_8,27,9999,9999,9999,761855072
47,1,0,Ticks_Pract_8,28,9999,9999,9999,762654836
47,1,0,Ticks_Pract_8,29,9999,9999,9999,763454584
47,2,1,Ticks_Pract_5,0,5,42,127,773675348
47,2,1,Ticks_Pract_5,1,5,42,127,774175064
47,2,1,Ticks_Pract_5,2,5,42,127,774674932
47,2,1,Ticks_Pract_5,3,5,42,127,775174720
47,2,1,Ticks_Pract_5,4,1,48,54,775626748
47,2,1,Ticks_Pract_5,5,5,42,127,775675108
47,2,1,Ticks_Pract_5,6,1,48,53,776136244
47,2,1,Ticks_Pract_5,7,5,42,127,776175028
47,2,1,Ticks_Pract_5,8,1,48,51,776651352
47,2,1,Ticks_Pract_5,9,5,42,127,776674796
47,2,1,Ticks_Pract_5,10,1,48,46,777137736
47,2,1,Ticks_Pract_5,11,5,42,127,777175612
47,2,1,Ticks_Pract_5,12,5,42,127,777675088
47,2,1,Ticks_Pract_5,13,1,48,49,777676276
47,2,1,Ticks_Pract_5,14,1,48,38,778161056
47,2,1,Ticks_Pract_5,15,5,42,127,778174776
47,2,1,Ticks_Pract_5,16,1,48,51,778663296
47,2,1,Ticks_Pract_5,17,5,42,127,778674696
47,2,1,Ticks_Pract_5,18,1,48,56,779147656
47,2,1,Ticks_Pract_5,19,5,42,127,779175212
47,2,1,Ticks_Pract_5,20,1,48,57,779639024
47,2,1,Ticks_Pract_5,21,5,42,127,779674980
47,2,1,Ticks_Pract_5,22,1,48,58,780111116
47,2,1,Ticks_Pract_5,23,5,42,127,780174676
47,2,1,Ticks_Pract_5,24,1,48,50,780619708
47,2,1,Ticks_Pract_5,25,5,42,127,780674296
47,2,1,Ticks_Pract_5,26,1,48,45,781143860
47,2,1,Ticks_Pract_5,27,5,42,127,781175012
47,2,1,Ticks_Pract_5,28,1,48,55,781650064
47,2,1,Ticks_Pract_5,29,5,42,127,781674852
47,2,1,Ticks_Pract_5,30,1,48,57,782108100
47,2,1,Ticks_Pract_5,31,5,42,127,782174848
47,2,1,Ticks_Pract_5,32,1,48,55,782660200
47,2,1,Ticks_Pract_5,33,5,42,127,782675416
47,2,1,Ticks_Pract_5,34,1,48,48,783134764
47,2,1,Ticks_Pract_5,35,5,42,127,783175036
47,2,1,Ticks_Pract_5,36,1,48,56,783616360
47,2,1,Ticks_Pract_5,37,5,42,127,783674732
47,2,1,Ticks_Pract_5,38,1,48,56,784111864
47,2,1,Ticks_Pract_5,39,5,42,127,784174424
47,2,1,Ticks_Pract_5,40,1,48,49,784583132
47,2,1,Ticks_Pract_5,41,5,42,127,784676644
47,2,1,Ticks_Pract_5,42,1,48,31,785141616
47,2,1,Ticks_Pract_5,43,5,42,127,785174788
47,2,1,Ticks_Pract_5,44,1,48,53,785629348
47,2,1,Ticks_Pract_5,45,5,42,127,785674556
47,2,1,Ticks_Pract_5,46,1,48,50,786133528
47,2,1,Ticks_Pract_5,47,5,42,127,786175448
47,2,1,Ticks_Pract_5,48,1,48,54,786623576
47,2,1,Ticks_Pract_5,49,5,42,127,786674920
47,2,1,Ticks_Pract_5,50,1,48,39,787140544
47,2,1,Ticks_Pract_5,51,5,42,127,787174688
47,2,1,Ticks_Pract_5,52,1,48,46,787618476
47,2,1,Ticks_Pract_5,53,5,42,127,787674456
47,2,1,Ticks_Pract_5,54,1,48,48,788101936
47,2,1,Ticks_Pract_5,55,5,42,127,788175344
47,2,1,Ticks_Pract_5,56,1,48,51,788622352
47,2,1,Ticks_Pract_5,57,5,42,127,788674816
47,2,1,Ticks_Pract_5,58,1,48,42,789130648
47,2,1,Ticks_Pract_5,59,5,42,127,789174732
47,2,1,Ticks_Pract_5,60,1,48,48,789639544
47,2,1,Ticks_Pract_5,61,5,42,127,789675548
47,2,1,Ticks_Pract_5,62,1,48,48,790136764
47,2,1,Ticks_Pract_5,63,5,42,127,790175024
47,2,1,Ticks_Pract_5,64,1,48,39,790649552
47,2,1,Ticks_Pract_5,65,5,42,127,790674644
47,2,1,Ticks_Pract_5,66,1,48,47,791118776
47,2,1,Ticks_Pract_5,67,5,42,127,791174484
47,2,1,Ticks_Pract_5,68,1,48,49,791636052
47,2,1,Ticks_Pract_5,69,5,42,127,791675524
47,2,1,Ticks_Pract_5,70,1,48,43,792148608
47,2,1,Ticks_Pract_5,71,5,42,127,792174896
47,2,1,Ticks_Pract_5,72,1,48,40,792603728
47,2,1,Ticks_Pract_5,73,5,42,127,792674592
47,2,1,Ticks_Pract_5,74,1,48,45,793098932
47,2,1,Ticks_Pract_5,75,5,42,127,793175480
47,2,1,Ticks_Pract_5,76,1,48,52,793627124
47,2,1,Ticks_Pract_5,0,9999,9999,9999,773673064
47,2,1,Ticks_Pract_5,1,9999,9999,9999,774172780
47,2,1,Ticks_Pract_5,2,9999,9999,9999,774672496
47,2,1,Ticks_Pract_5,3,9999,9999,9999,775172212
47,2,1,Ticks_Pract_5,4,9999,9999,9999,775672896
47,2,1,Ticks_Pract_5,5,9999,9999,9999,776172664
47,2,1,Ticks_Pract_5,6,9999,9999,9999,776672360
47,2,1,Ticks_Pract_5,7,9999,9999,9999,777173104
47,2,1,Ticks_Pract_5,8,9999,9999,9999,777672804
47,2,1,Ticks_Pract_5,9,9999,9999,9999,778172492
47,2,1,Ticks_Pract_5,10,9999,9999,9999,778672188
47,2,1,Ticks_Pract_5,11,9999,9999,9999,779172928
47,2,1,Ticks_Pract_5,12,9999,9999,9999,779672696
47,2,1,Ticks_Pract_5,13,9999,9999,9999,780172388
47,2,1,Ticks_Pract_5,14,9999,9999,9999,780672084
47,2,1,Ticks_Pract_5,15,9999,9999,9999,781172800
47,2,1,Ticks_Pract_5,16,9999,9999,9999,781672568
47,2,1,Ticks_Pract_5,17,9999,9999,9999,782172264
47,2,1,Ticks_Pract_5,18,9999,9999,9999,782672980
47,2,1,Ticks_Pract_5,19,9999,9999,9999,783172676
47,2,1,Ticks_Pract_5,20,9999,9999,9999,783672372
47,2,1,Ticks_Pract_5,21,9999,9999,9999,784172140
47,2,1,Ticks_Pract_5,22,9999,9999,9999,784672880
47,2,1,Ticks_Pract_5,23,9999,9999,9999,785172576
47,2,1,Ticks_Pract_5,24,9999,9999,9999,785672272
47,2,1,Ticks_Pract_5,25,9999,9999,9999,786173012
47,2,1,Ticks_Pract_5,26,9999,9999,9999,786672708
47,2,1,Ticks_Pract_5,27,9999,9999,9999,787172400
47,2,1,Ticks_Pract_5,28,9999,9999,9999,787672168
47,2,1,Ticks_Pract_5,29,9999,9999,9999,788172908
47,2,1,Ticks_Pract_5,30,9999,9999,9999,788672604
47,2,1,Ticks_Pract_5,31,9999,9999,9999,789172300
47,2,1,Ticks_Pract_5,32,9999,9999,9999,789673040
47,2,1,Ticks_Pract_5,33,9999,9999,9999,790172736
47,2,1,Ticks_Pract_5,34,9999,9999,9999,790672432
47,2,1,Ticks_Pract_5,35,9999,9999,9999,791172200
47,2,1,Ticks_Pract_5,36,9999,9999,9999,791672940
47,2,1,Ticks_Pract_5,37,9999,9999,9999,792172612
47,2,1,Ticks_Pract_5,38,9999,9999,9999,792672304
47,2,1,Ticks_Pract_5,39,9999,9999,9999,793173048
47,3,2,T1_SMS_8,0,5,42,127,855525712
47,3,2,T1_SMS_8,1,5,42,127,856325544
47,3,2,T1_SMS_8,2,5,42,127,857126196
47,3,2,T1_SMS_8,3,1,48,51,857133804
47,3,2,T1_SMS_8,4,1,48,53,857904276
47,3,2,T1_SMS_8,5,5,42,127,857926000
47,3,2,T1_SMS_8,6,1,48,57,858690468
47,3,2,T1_SMS_8,7,5,42,127,858725956
47,3,2,T1_SMS_8,8,1,48,54,859503744
47,3,2,T1_SMS_8,9,5,42,127,859525492
47,3,2,T1_SMS_8,10,1,48,53,860310832
47,3,2,T1_SMS_8,11,5,42,127,860326196
47,3,2,T1_SMS_8,12,5,42,127,861126012
47,3,2,T1_SMS_8,13,1,48,47,861131376
47,3,2,T1_SMS_8,14,1,48,48,861917408
47,3,2,T1_SMS_8,15,5,42,127,861925960
47,3,2,T1_SMS_8,16,1,48,48,862694700
47,3,2,T1_SMS_8,17,5,42,127,862725620
47,3,2,T1_SMS_8,18,1,48,51,863492336
47,3,2,T1_SMS_8,19,5,42,127,863526176
47,3,2,T1_SMS_8,20,1,48,53,864285936
47,3,2,T1_SMS_8,21,5,42,127,864325984
47,3,2,T1_SMS_8,22,1,48,49,865080808
47,3,2,T1_SMS_8,23,5,42,127,865125864
47,3,2,T1_SMS_8,24,1,48,54,865873732
47,3,2,T1_SMS_8,25,5,42,127,865925476
47,3,2,T1_SMS_8,26,1,48,54,866673840
47,3,2,T1_SMS_8,27,5,42,127,866726328
47,3,2,T1_SMS_8,28,1,48,48,867482196
47,3,2,T1_SMS_8,29,5,42,127,867525988
47,3,2,T1_SMS_8,30,1,48,43,868281708
47,3,2,T1_SMS_8,31,5,42,127,868325796
47,3,2,T1_SMS_8,32,1,48,50,869093108
47,3,2,T1_SMS_8,33,5,42,127,869125452
47,3,2,T1_SMS_8,34,1,48,52,869891424
47,3,2,T1_SMS_8,35,5,42,127,869926308
47,3,2,T1_SMS_8,36,1,48,43,870658992
47,3,2,T1_SMS_8,37,5,42,127,870726044
47,3,2,T1_SMS_8,38,1,48,55,871470320
47,3,2,T1_SMS_8,39,5,42,127,871525700
47,3,2,T1_SMS_8,40,1,48,47,872282248
47,3,2,T1_SMS_8,41,5,42,127,872325684
47,3,2,T1_SMS_8,42,1,48,50,873092100
47,3,2,T1_SMS_8,43,5,42,127,873126388
47,3,2,T1_SMS_8,44,1,48,47,873914944
47,3,2,T1_SMS_8,45,5,42,127,873925976
47,3,2,T1_SMS_8,46,5,42,127,874725716
47,3,2,T1_SMS_8,47,1,48,47,874740428
47,3,2,T1_SMS_8,48,5,42,127,875525672
47,3,2,T1_SMS_8,49,1,48,50,875545772
47,3,2,T1_SMS_8,50,1,48,51,876314444
47,3,2,T1_SMS_8,51,5,42,127,876326148
47,3,2,T1_SMS_8,52,1,48,43,877070200
47,3,2,T1_SMS_8,53,5,42,127,877126104
47,3,2,T1_SMS_8,54,1,48,44,877870904
47,3,2,T1_SMS_8,55,5,42,127,877925692
47,3,2,T1_SMS_8,56,1,48,52,878688444
47,3,2,T1_SMS_8,57,5,42,127,878725600
47,3,2,T1_SMS_8,58,1,48,47,879472092
47,3,2,T1_SMS_8,59,5,42,127,879526452
47,3,2,T1_SMS_8,60,1,48,50,880249864
47,3,2,T1_SMS_8,61,5,42,127,880326112
47,3,2,T1_SMS_8,62,1,48,38,881071060
47,3,2,T1_SMS_8,63,5,42,127,881125696
47,3,2,T1_SMS_8,64,1,48,43,881838632
47,3,2,T1_SMS_8,65,5,42,127,881925504
47,3,2,T1_SMS_8,66,1,48,46,882662300
47,3,2,T1_SMS_8,67,5,42,127,882726288
47,3,2,T1_SMS_8,68,1,48,48,883486340
47,3,2,T1_SMS_8,69,5,42,127,883525872
47,3,2,T1_SMS_8,70,1,48,44,884285928
47,3,2,T1_SMS_8,71,5,42,127,884325680
47,3,2,T1_SMS_8,72,1,48,35,885086564
47,3,2,T1_SMS_8,73,5,42,127,885125364
47,3,2,T1_SMS_8,74,1,48,26,885884600
47,3,2,T1_SMS_8,75,5,42,127,885926592
47,3,2,T1_SMS_8,76,1,48,43,886720540
47,3,2,T1_SMS_8,77,5,42,127,886725880
47,3,2,T1_SMS_8,78,5,42,127,887525840
47,3,2,T1_SMS_8,79,1,48,30,887542804
47,3,2,T1_SMS_8,80,1,48,44,888304672
47,3,2,T1_SMS_8,81,5,42,127,888325568
47,3,2,T1_SMS_8,82,1,48,40,889091908
47,3,2,T1_SMS_8,83,5,42,127,889126424
47,3,2,T1_SMS_8,84,1,48,43,889897260
47,3,2,T1_SMS_8,85,5,42,127,889926084
47,3,2,T1_SMS_8,86,1,48,31,890653600
47,3,2,T1_SMS_8,87,5,42,127,890725668
47,3,2,T1_SMS_8,88,1,48,50,891476076
47,3,2,T1_SMS_8,89,5,42,127,891525424
47,3,2,T1_SMS_8,90,1,48,41,892280176
47,3,2,T1_SMS_8,91,5,42,127,892326504
47,3,2,T1_SMS_8,92,1,48,54,893111244
47,3,2,T1_SMS_8,93,5,42,127,893126012
47,3,2,T1_SMS_8,94,5,42,127,893925680
47,3,2,T1_SMS_8,95,1,48,54,893973832
47,3,2,T1_SMS_8,96,5,42,127,894725340
47,3,2,T1_SMS_8,97,1,48,48,894730928
47,3,2,T1_SMS_8,98,1,48,48,895489284
47,3,2,T1_SMS_8,99,5,42,127,895526412
47,3,2,T1_SMS_8,100,1,48,49,896314748
47,3,2,T1_SMS_8,101,5,42,127,896325924
47,3,2,T1_SMS_8,102,1,48,51,897108200
47,3,2,T1_SMS_8,103,5,42,127,897125656
47,3,2,T1_SMS_8,104,1,48,47,897890276
47,3,2,T1_SMS_8,105,5,42,127,897925340
47,3,2,T1_SMS_8,106,1,48,33,898658072
47,3,2,T1_SMS_8,107,5,42,127,898726196
47,3,2,T1_SMS_8,108,1,48,47,899403880
47,3,2,T1_SMS_8,109,5,42,127,899526284
47,3,2,T1_SMS_8,110,1,48,51,900262056
47,3,2,T1_SMS_8,111,5,42,127,900325588
47,3,2,T1_SMS_8,112,1,48,46,901034708
47,3,2,T1_SMS_8,113,5,42,127,901125472
47,3,2,T1_SMS_8,114,1,48,46,901889644
47,3,2,T1_SMS_8,115,5,42,127,901926104
47,3,2,T1_SMS_8,116,1,48,43,902652872
47,3,2,T1_SMS_8,117,5,42,127,902726136
47,3,2,T1_SMS_8,118,1,48,43,903477524
47,3,2,T1_SMS_8,119,5,42,127,903525648
47,3,2,T1_SMS_8,120,1,48,49,904251072
47,3,2,T1_SMS_8,121,5,42,127,904325404
47,3,2,T1_SMS_8,122,1,48,47,905077608
47,3,2,T1_SMS_8,123,5,42,127,905126332
47,3,2,T1_SMS_8,124,1,48,48,905902844
47,3,2,T1_SMS_8,125,5,42,127,905925992
47,3,2,T1_SMS_8,126,1,48,49,906722248
47,3,2,T1_SMS_8,127,5,42,127,906725948
47,3,2,T1_SMS_8,128,1,48,33,907512188
47,3,2,T1_SMS_8,129,5,42,127,907525608
47,3,2,T1_SMS_8,130,1,48,34,908293372
47,3,2,T1_SMS_8,131,5,42,127,908326240
47,3,2,T1_SMS_8,132,1,48,26,909068352
47,3,2,T1_SMS_8,133,5,42,127,909125900
47,3,2,T1_SMS_8,134,1,48,40,909852372
47,3,2,T1_SMS_8,135,5,42,127,909925928
47,3,2,T1_SMS_8,136,1,48,44,910695640
47,3,2,T1_SMS_8,137,5,42,127,910725464
47,3,2,T1_SMS_8,138,5,42,127,911526324
47,3,2,T1_SMS_8,139,1,48,49,911528848
47,3,2,T1_SMS_8,140,5,42,127,912325912
47,3,2,T1_SMS_8,141,1,48,45,912348704
47,3,2,T1_SMS_8,142,1,48,46,913086332
47,3,2,T1_SMS_8,143,5,42,127,913125936
47,3,2,T1_SMS_8,144,1,48,46,913844556
47,3,2,T1_SMS_8,145,5,42,127,913925372
47,3,2,T1_SMS_8,146,1,48,44,914635464
47,3,2,T1_SMS_8,147,5,42,127,914726228
47,3,2,T1_SMS_8,148,1,48,36,915499524
47,3,2,T1_SMS_8,149,5,42,127,915526108
47,3,2,T1_SMS_8,150,1,48,37,916296868
47,3,2,T1_SMS_8,151,5,42,127,916325844
47,3,2,T1_SMS_8,152,5,42,127,917125384
47,3,2,T1_SMS_8,153,1,48,35,917132324
47,3,2,T1_SMS_8,154,5,42,127,917926316
47,3,2,T1_SMS_8,155,1,48,43,917951876
47,3,2,T1_SMS_8,156,5,42,127,918726048
47,3,2,T1_SMS_8,157,1,48,32,918732308
47,3,2,T1_SMS_8,158,1,48,48,919502860
47,3,2,T1_SMS_8,159,5,42,127,919525776
47,3,2,T1_SMS_8,160,1,48,48,920278208
47,3,2,T1_SMS_8,161,5,42,127,920325732
47,3,2,T1_SMS_8,162,1,48,46,921056548
47,3,2,T1_SMS_8,163,5,42,127,921126364
47,3,2,T1_SMS_8,164,1,48,48,921856656
47,3,2,T1_SMS_8,165,5,42,127,921925872
47,3,2,T1_SMS_8,166,1,48,45,922649132
47,3,2,T1_SMS_8,167,5,42,127,922725756
47,3,2,T1_SMS_8,168,1,48,49,923438544
47,3,2,T1_SMS_8,169,5,42,127,923525588
47,3,2,T1_SMS_8,170,1,48,48,924255100
47,3,2,T1_SMS_8,171,5,42,127,924326144
47,3,2,T1_SMS_8,172,1,48,50,925069144
47,3,2,T1_SMS_8,173,5,42,127,925125948
47,3,2,T1_SMS_8,174,1,48,40,925843972
47,3,2,T1_SMS_8,175,5,42,127,925925832
47,3,2,T1_SMS_8,176,1,48,49,926654480
47,3,2,T1_SMS_8,177,5,42,127,926725496
47,3,2,T1_SMS_8,178,1,48,45,927443368
47,3,2,T1_SMS_8,179,5,42,127,927526200
47,3,2,T1_SMS_8,180,1,48,52,928238016
47,3,2,T1_SMS_8,181,5,42,127,928325932
47,3,2,T1_SMS_8,182,1,48,45,929053004
47,3,2,T1_SMS_8,183,5,42,127,929125664
47,3,2,T1_SMS_8,184,1,48,47,929918956
47,3,2,T1_SMS_8,185,5,42,127,929925572
47,3,2,T1_SMS_8,186,1,48,44,930710092
47,3,2,T1_SMS_8,187,5,42,127,930726352
47,3,2,T1_SMS_8,188,1,48,44,931515512
47,3,2,T1_SMS_8,189,5,42,127,931525864
47,3,2,T1_SMS_8,190,1,48,33,932262212
47,3,2,T1_SMS_8,191,5,42,127,932325748
47,3,2,T1_SMS_8,192,5,42,127,933125412
47,3,2,T1_SMS_8,193,1,48,49,933126380
47,3,2,T1_SMS_8,194,1,48,46,933886584
47,3,2,T1_SMS_8,195,5,42,127,933926632
47,3,2,T1_SMS_8,196,1,48,57,934684972
47,3,2,T1_SMS_8,197,5,42,127,934725996
47,3,2,T1_SMS_8,198,5,42,127,935525736
47,3,2,T1_SMS_8,199,1,48,48,935526780
47,3,2,T1_SMS_8,200,5,42,127,936325496
47,3,2,T1_SMS_8,201,1,48,49,936355392
47,3,2,T1_SMS_8,202,5,42,127,937126424
47,3,2,T1_SMS_8,203,1,48,52,937129544
47,3,2,T1_SMS_8,204,5,42,127,937925936
47,3,2,T1_SMS_8,205,1,48,33,937929352
47,3,2,T1_SMS_8,206,1,48,50,938692720
47,3,2,T1_SMS_8,207,5,42,127,938725660
47,3,2,T1_SMS_8,208,1,48,47,939507336
47,3,2,T1_SMS_8,209,5,42,127,939525468
47,3,2,T1_SMS_8,210,1,48,47,940285748
47,3,2,T1_SMS_8,211,5,42,127,940326396
47,3,2,T1_SMS_8,212,1,48,48,941094680
47,3,2,T1_SMS_8,213,5,42,127,941125908
47,3,2,T1_SMS_8,214,1,48,45,941872948
47,3,2,T1_SMS_8,215,5,42,127,941925864
47,3,2,T1_SMS_8,216,1,48,50,942695196
47,3,2,T1_SMS_8,217,5,42,127,942725472
47,3,2,T1_SMS_8,218,1,48,51,943525432
47,3,2,T1_SMS_8,219,5,42,127,943527228
47,3,2,T1_SMS_8,220,5,42,127,944325992
47,3,2,T1_SMS_8,221,1,48,52,944330912
47,3,2,T1_SMS_8,222,1,48,51,945117316
47,3,2,T1_SMS_8,223,5,42,127,945125644
47,3,2,T1_SMS_8,224,1,48,46,945917196
47,3,2,T1_SMS_8,225,5,42,127,945925528
47,3,2,T1_SMS_8,226,1,48,45,946719468
47,3,2,T1_SMS_8,227,5,42,127,946726232
47,3,2,T1_SMS_8,228,1,48,40,947477544
47,3,2,T1_SMS_8,229,5,42,127,947526188
47,3,2,T1_SMS_8,230,1,48,50,948262164
47,3,2,T1_SMS_8,231,5,42,127,948325624
47,3,2,T1_SMS_8,232,1,48,48,949046564
47,3,2,T1_SMS_8,233,5,42,127,949125528
47,3,2,T1_SMS_8,234,1,48,48,949834252
47,3,2,T1_SMS_8,235,5,42,127,949926160
47,3,2,T1_SMS_8,236,1,48,43,950702376
47,3,2,T1_SMS_8,237,5,42,127,950726268
47,3,2,T1_SMS_8,238,1,48,51,951435160
47,3,2,T1_SMS_8,0,9999,9999,9999,855523424
47,3,2,T1_SMS_8,1,9999,9999,9999,856323180
47,3,2,T1_SMS_8,2,9999,9999,9999,857123908
47,3,2,T1_SMS_8,3,9999,9999,9999,857923636
47,3,2,T1_SMS_8,4,9999,9999,9999,858723444
47,3,2,T1_SMS_8,5,9999,9999,9999,859523128
47,3,2,T1_SMS_8,6,9999,9999,9999,860323908
47,3,2,T1_SMS_8,7,9999,9999,9999,861123648
47,3,2,T1_SMS_8,8,9999,9999,9999,861923376
47,3,2,T1_SMS_8,9,9999,9999,9999,862723184
47,3,2,T1_SMS_8,10,9999,9999,9999,863523888
47,3,2,T1_SMS_8,11,9999,9999,9999,864323696
47,3,2,T1_SMS_8,12,9999,9999,9999,865123428
47,3,2,T1_SMS_8,13,9999,9999,9999,865923188
47,3,2,T1_SMS_8,14,9999,9999,9999,866723892
47,3,2,T1_SMS_8,15,9999,9999,9999,867523700
47,3,2,T1_SMS_8,16,9999,9999,9999,868323432
47,3,2,T1_SMS_8,17,9999,9999,9999,869123164
47,3,2,T1_SMS_8,18,9999,9999,9999,869923948
47,3,2,T1_SMS_8,19,9999,9999,9999,870723680
47,3,2,T1_SMS_8,20,9999,9999,9999,871523412
47,3,2,T1_SMS_8,21,9999,9999,9999,872323172
47,3,2,T1_SMS_8,22,9999,9999,9999,873123952
47,3,2,T1_SMS_8,23,9999,9999,9999,873923688
47,3,2,T1_SMS_8,24,9999,9999,9999,874723428
47,3,2,T1_SMS_8,25,9999,9999,9999,875523160
47,3,2,T1_SMS_8,26,9999,9999,9999,876323936
47,3,2,T1_SMS_8,27,9999,9999,9999,877123668
47,3,2,T1_SMS_8,28,9999,9999,9999,877923404
47,3,2,T1_SMS_8,29,9999,9999,9999,878723160
47,3,2,T1_SMS_8,30,9999,9999,9999,879523940
47,3,2,T1_SMS_8,31,9999,9999,9999,880323676
47,3,2,T1_SMS_8,32,9999,9999,9999,881123408
47,3,2,T1_SMS_8,33,9999,9999,9999,881923144
47,3,2,T1_SMS_8,34,9999,9999,9999,882723924
47,3,2,T1_SMS_8,35,9999,9999,9999,883523656
47,3,2,T1_SMS_8,36,9999,9999,9999,884323392
47,3,2,T1_SMS_8,37,9999,9999,9999,885123148
47,3,2,T1_SMS_8,38,9999,9999,9999,885923932
47,3,2,T1_SMS_8,39,9999,9999,9999,886723664
47,3,2,T1_SMS_8,40,9999,9999,9999,887523404
47,3,2,T1_SMS_8,41,9999,9999,9999,888323132
47,3,2,T1_SMS_8,42,9999,9999,9999,889123912
47,3,2,T1_SMS_8,43,9999,9999,9999,889923648
47,3,2,T1_SMS_8,44,9999,9999,9999,890723380
47,3,2,T1_SMS_8,45,9999,9999,9999,891523140
47,3,2,T1_SMS_8,46,9999,9999,9999,892323916
47,3,2,T1_SMS_8,47,9999,9999,9999,893123652
47,3,2,T1_SMS_8,48,9999,9999,9999,893923392
47,3,2,T1_SMS_8,49,9999,9999,9999,894723128
47,3,2,T1_SMS_8,50,9999,9999,9999,895523900
47,3,2,T1_SMS_8,51,9999,9999,9999,896323636
47,3,2,T1_SMS_8,52,9999,9999,9999,897123444
47,3,2,T1_SMS_8,53,9999,9999,9999,897923128
47,3,2,T1_SMS_8,54,9999,9999,9999,898723908
47,3,2,T1_SMS_8,55,9999,9999,9999,899523700
47,3,2,T1_SMS_8,56,9999,9999,9999,900323376
47,3,2,T1_SMS_8,57,9999,9999,9999,901123184
47,3,2,T1_SMS_8,58,9999,9999,9999,901923888
47,3,2,T1_SMS_8,59,9999,9999,9999,902723700
47,3,2,T1_SMS_8,60,9999,9999,9999,903523432
47,3,2,T1_SMS_8,61,9999,9999,9999,904323192
47,3,2,T1_SMS_8,62,9999,9999,9999,905123896
47,3,2,T1_SMS_8,63,9999,9999,9999,905923704
47,3,2,T1_SMS_8,64,9999,9999,9999,906723436
47,3,2,T1_SMS_8,65,9999,9999,9999,907523172
47,3,2,T1_SMS_8,66,9999,9999,9999,908323952
47,3,2,T1_SMS_8,67,9999,9999,9999,909123684
47,3,2,T1_SMS_8,68,9999,9999,9999,909923420
47,3,2,T1_SMS_8,69,9999,9999,9999,910723176
47,3,2,T1_SMS_8,70,9999,9999,9999,911523888
47,3,2,T1_SMS_8,71,9999,9999,9999,912323696
47,3,2,T1_SMS_8,72,9999,9999,9999,913123424
47,3,2,T1_SMS_8,73,9999,9999,9999,913923160
47,3,2,T1_SMS_8,74,9999,9999,9999,914723940
47,3,2,T1_SMS_8,75,9999,9999,9999,915523672
47,3,2,T1_SMS_8,76,9999,9999,9999,916323408
47,3,2,T1_SMS_8,77,9999,9999,9999,917123172
47,3,2,T1_SMS_8,78,9999,9999,9999,917923952
47,3,2,T1_SMS_8,79,9999,9999,9999,918723684
47,3,2,T1_SMS_8,80,9999,9999,9999,919523412
47,3,2,T1_SMS_8,81,9999,9999,9999,920323148
47,3,2,T1_SMS_8,82,9999,9999,9999,921123928
47,3,2,T1_SMS_8,83,9999,9999,9999,921923660
47,3,2,T1_SMS_8,84,9999,9999,9999,922723392
47,3,2,T1_SMS_8,85,9999,9999,9999,923523152
47,3,2,T1_SMS_8,86,9999,9999,9999,924323928
47,3,2,T1_SMS_8,87,9999,9999,9999,925123664
47,3,2,T1_SMS_8,88,9999,9999,9999,925923396
47,3,2,T1_SMS_8,89,9999,9999,9999,926723132
47,3,2,T1_SMS_8,90,9999,9999,9999,927523912
47,3,2,T1_SMS_8,91,9999,9999,9999,928323644
47,3,2,T1_SMS_8,92,9999,9999,9999,929123376
47,3,2,T1_SMS_8,93,9999,9999,9999,929923136
47,3,2,T1_SMS_8,94,9999,9999,9999,930723916
47,3,2,T1_SMS_8,95,9999,9999,9999,931523652
47,3,2,T1_SMS_8,96,9999,9999,9999,932323384
47,3,2,T1_SMS_8,97,9999,9999,9999,933123124
47,3,2,T1_SMS_8,98,9999,9999,9999,933923900
47,3,2,T1_SMS_8,99,9999,9999,9999,934723632
47,3,2,T1_SMS_8,100,9999,9999,9999,935523372
47,3,2,T1_SMS_8,101,9999,9999,9999,936323132
47,3,2,T1_SMS_8,102,9999,9999,9999,937123912
47,3,2,T1_SMS_8,103,9999,9999,9999,937923648
47,3,2,T1_SMS_8,104,9999,9999,9999,938723372
47,3,2,T1_SMS_8,105,9999,9999,9999,939523180
47,3,2,T1_SMS_8,106,9999,9999,9999,940323888
47,3,2,T1_SMS_8,107,9999,9999,9999,941123696
47,3,2,T1_SMS_8,108,9999,9999,9999,941923428
47,3,2,T1_SMS_8,109,9999,9999,9999,942723184
47,3,2,T1_SMS_8,110,9999,9999,9999,943523896
47,3,2,T1_SMS_8,111,9999,9999,9999,944323632
47,3,2,T1_SMS_8,112,9999,9999,9999,945123432
47,3,2,T1_SMS_8,113,9999,9999,9999,945923164
47,3,2,T1_SMS_8,114,9999,9999,9999,946723944
47,3,2,T1_SMS_8,115,9999,9999,9999,947523676
47,3,2,T1_SMS_8,116,9999,9999,9999,948323412
47,3,2,T1_SMS_8,117,9999,9999,9999,949123168
47,3,2,T1_SMS_8,118,9999,9999,9999,949923948
47,3,2,T1_SMS_8,119,9999,9999,9999,950723680
47,4,4,T1_SMS_5,0,5,42,127,994223392
47,4,4,T1_SMS_5,1,5,42,127,994724304
47,4,4,T1_SMS_5,2,5,42,127,995224096
47,4,4,T1_SMS_5,3,5,42,127,995723664
47,4,4,T1_SMS_5,4,1,48,50,996112692
47,4,4,T1_SMS_5,5,5,42,127,996224332
47,4,4,T1_SMS_5,6,1,48,50,996668708
47,4,4,T1_SMS_5,7,5,42,127,996724116
47,4,4,T1_SMS_5,8,1,48,48,997186580
47,4,4,T1_SMS_5,9,5,42,127,997223712
47,4,4,T1_SMS_5,10,1,48,54,997661288
47,4,4,T1_SMS_5,11,5,42,127,997723480
47,4,4,T1_SMS_5,12,1,48,54,998165168
47,4,4,T1_SMS_5,13,5,42,127,998224144
47,4,4,T1_SMS_5,14,1,48,56,998665160
47,4,4,T1_SMS_5,15,5,42,127,998724140
47,4,4,T1_SMS_5,16,1,48,56,999170248
47,4,4,T1_SMS_5,17,5,42,127,999223608
47,4,4,T1_SMS_5,18,1,48,57,999684600
47,4,4,T1_SMS_5,19,5,42,127,999724352
47,4,4,T1_SMS_5,20,1,48,57,1000173076
47,4,4,T1_SMS_5,21,5,42,127,1000224048
47,4,4,T1_SMS_5,22,1,48,53,1000656996
47,4,4,T1_SMS_5,23,5,42,127,1000723892
47,4,4,T1_SMS_5,24,1,48,57,1001160128
47,4,4,T1_SMS_5,25,5,42,127,1001223512
47,4,4,T1_SMS_5,26,1,48,57,1001678668
47,4,4,T1_SMS_5,27,5,42,127,1001724328
47,4,4,T1_SMS_5,28,1,48,55,1002162212
47,4,4,T1_SMS_5,29,5,42,127,1002224172
47,4,4,T1_SMS_5,30,1,48,52,1002666240
47,4,4,T1_SMS_5,31,5,42,127,1002723644
47,4,4,T1_SMS_5,32,1,48,56,1003148364
47,4,4,T1_SMS_5,33,5,42,127,1003224388
47,4,4,T1_SMS_5,34,1,48,54,1003655080
47,4,4,T1_SMS_5,35,5,42,127,1003724008
47,4,4,T1_SMS_5,36,1,48,48,1004159048
47,4,4,T1_SMS_5,37,5,42,127,1004224000
47,4,4,T1_SMS_5,38,1,48,54,1004673104
47,4,4,T1_SMS_5,39,5,42,127,1004723620
47,4,4,T1_SMS_5,40,1,48,54,1005192692
47,4,4,T1_SMS_5,41,5,42,127,1005224216
47,4,4,T1_SMS_5,42,1,48,50,1005681612
47,4,4,T1_SMS_5,43,5,42,127,1005724056
47,4,4,T1_SMS_5,44,1,48,54,1006205468
47,4,4,T1_SMS_5,45,5,42,127,1006223828
47,4,4,T1_SMS_5,46,1,48,57,1006682624
47,4,4,T1_SMS_5,47,5,42,127,1006723372
47,4,4,T1_SMS_5,48,1,48,50,1007213380
47,4,4,T1_SMS_5,49,5,42,127,1007224112
47,4,4,T1_SMS_5,50,1,48,49,1007703628
47,4,4,T1_SMS_5,51,5,42,127,1007723808
47,4,4,T1_SMS_5,52,1,48,51,1008192628
47,4,4,T1_SMS_5,53,5,42,127,1008223476
47,4,4,T1_SMS_5,54,1,48,52,1008674896
47,4,4,T1_SMS_5,55,5,42,127,1008724368
47,4,4,T1_SMS_5,56,1,48,56,1009201964
47,4,4,T1_SMS_5,57,5,42,127,1009224136
47,4,4,T1_SMS_5,58,1,48,54,1009681764
47,4,4,T1_SMS_5,59,5,42,127,1009723980
47,4,4,T1_SMS_5,60,1,48,52,1010199564
47,4,4,T1_SMS_5,61,5,42,127,1010223604
47,4,4,T1_SMS_5,62,1,48,52,1010680776
47,4,4,T1_SMS_5,63,5,42,127,1010724196
47,4,4,T1_SMS_5,64,1,48,54,1011183020
47,4,4,T1_SMS_5,65,5,42,127,1011223816
47,4,4,T1_SMS_5,66,1,48,54,1011662968
47,4,4,T1_SMS_5,67,5,42,127,1011723660
47,4,4,T1_SMS_5,68,1,48,54,1012174852
47,4,4,T1_SMS_5,69,5,42,127,1012224328
47,4,4,T1_SMS_5,70,1,48,54,1012684872
47,4,4,T1_SMS_5,71,5,42,127,1012724096
47,4,4,T1_SMS_5,72,1,48,51,1013166836
47,4,4,T1_SMS_5,73,5,42,127,1013223864
47,4,4,T1_SMS_5,74,1,48,42,1013691288
47,4,4,T1_SMS_5,75,5,42,127,1013723636
47,4,4,T1_SMS_5,76,1,48,51,1014178640
47,4,4,T1_SMS_5,77,5,42,127,1014224152
47,4,4,T1_SMS_5,78,1,48,54,1014690156
47,4,4,T1_SMS_5,79,5,42,127,1014723924
47,4,4,T1_SMS_5,80,1,48,55,1015181400
47,4,4,T1_SMS_5,81,5,42,127,1015223916
47,4,4,T1_SMS_5,82,1,48,49,1015691188
47,4,4,T1_SMS_5,83,5,42,127,1015724508
47,4,4,T1_SMS_5,84,1,48,52,1016177272
47,4,4,T1_SMS_5,85,5,42,127,1016223980
47,4,4,T1_SMS_5,86,1,48,53,1016696264
47,4,4,T1_SMS_5,87,5,42,127,1016723824
47,4,4,T1_SMS_5,88,1,48,46,1017188980
47,4,4,T1_SMS_5,89,5,42,127,1017223668
47,4,4,T1_SMS_5,90,1,48,55,1017714352
47,4,4,T1_SMS_5,91,5,42,127,1017724188
47,4,4,T1_SMS_5,92,1,48,56,1018197796
47,4,4,T1_SMS_5,93,5,42,127,1018224104
47,4,4,T1_SMS_5,94,1,48,50,1018673848
47,4,4,T1_SMS_5,95,5,42,127,1018723628
47,4,4,T1_SMS_5,96,1,48,48,1019209076
47,4,4,T1_SMS_5,97,5,42,127,1019224516
47,4,4,T1_SMS_5,98,1,48,57,1019700696
47,4,4,T1_SMS_5,99,5,42,127,1019723992
47,4,4,T1_SMS_5,100,1,48,56,1020173984
47,4,4,T1_SMS_5,101,5,42,127,1020223760
47,4,4,T1_SMS_5,102,1,48,46,1020689836
47,4,4,T1_SMS_5,103,5,42,127,1020723676
47,4,4,T1_SMS_5,104,1,48,51,1021194840
47,4,4,T1_SMS_5,105,5,42,127,1021224272
47,4,4,T1_SMS_5,106,1,48,50,1021690948
47,4,4,T1_SMS_5,107,5,42,127,1021723964
47,4,4,T1_SMS_5,108,1,48,49,1022169844
47,4,4,T1_SMS_5,109,5,42,127,1022223584
47,4,4,T1_SMS_5,110,1,48,52,1022667972
47,4,4,T1_SMS_5,111,5,42,127,1022723728
47,4,4,T1_SMS_5,112,1,48,48,1023169984
47,4,4,T1_SMS_5,113,5,42,127,1023224096
47,4,4,T1_SMS_5,114,1,48,48,1023690024
47,4,4,T1_SMS_5,115,5,42,127,1023723792
47,4,4,T1_SMS_5,116,1,48,39,1024173336
47,4,4,T1_SMS_5,117,5,42,127,1024223780
47,4,4,T1_SMS_5,118,1,48,53,1024677896
47,4,4,T1_SMS_5,119,5,42,127,1024724596
47,4,4,T1_SMS_5,120,1,48,51,1025190380
47,4,4,T1_SMS_5,121,5,42,127,1025223920
47,4,4,T1_SMS_5,122,1,48,53,1025693812
47,4,4,T1_SMS_5,123,5,42,127,1025723616
47,4,4,T1_SMS_5,124,1,48,46,1026181392
47,4,4,T1_SMS_5,125,5,42,127,1026223460
47,4,4,T1_SMS_5,126,1,48,45,1026653756
47,4,4,T1_SMS_5,127,5,42,127,1026724348
47,4,4,T1_SMS_5,128,1,48,45,1027182724
47,4,4,T1_SMS_5,129,5,42,127,1027223820
47,4,4,T1_SMS_5,130,1,48,46,1027651204
47,4,4,T1_SMS_5,131,5,42,127,1027723740
47,4,4,T1_SMS_5,132,1,48,48,1028191812
47,4,4,T1_SMS_5,133,5,42,127,1028224484
47,4,4,T1_SMS_5,134,1,48,49,1028675728
47,4,4,T1_SMS_5,135,5,42,127,1028724028
47,4,4,T1_SMS_5,136,1,48,49,1029177668
47,4,4,T1_SMS_5,137,5,42,127,1029223848
47,4,4,T1_SMS_5,138,1,48,49,1029661552
47,4,4,T1_SMS_5,139,5,42,127,1029723444
47,4,4,T1_SMS_5,140,1,48,45,1030186380
47,4,4,T1_SMS_5,141,5,42,127,1030224260
47,4,4,T1_SMS_5,142,1,48,53,1030691160
47,4,4,T1_SMS_5,143,5,42,127,1030723880
47,4,4,T1_SMS_5,144,1,48,48,1031197816
47,4,4,T1_SMS_5,145,5,42,127,1031223648
47,4,4,T1_SMS_5,146,1,48,53,1031678436
47,4,4,T1_SMS_5,147,5,42,127,1031724468
47,4,4,T1_SMS_5,148,1,48,51,1032213880
47,4,4,T1_SMS_5,149,5,42,127,1032224308
47,4,4,T1_SMS_5,150,5,42,127,1032723864
47,4,4,T1_SMS_5,151,1,48,52,1032724904
47,4,4,T1_SMS_5,152,5,42,127,1033223484
47,4,4,T1_SMS_5,153,1,48,54,1033232960
47,4,4,T1_SMS_5,154,1,48,51,1033705784
47,4,4,T1_SMS_5,155,5,42,127,1033724364
47,4,4,T1_SMS_5,156,1,48,50,1034188648
47,4,4,T1_SMS_5,157,5,42,127,1034223840
47,4,4,T1_SMS_5,158,1,48,44,1034695520
47,4,4,T1_SMS_5,159,5,42,127,1034723608
47,4,4,T1_SMS_5,160,5,42,127,1035224280
47,4,4,T1_SMS_5,161,1,48,57,1035226296
47,4,4,T1_SMS_5,162,1,48,49,1035703592
47,4,4,T1_SMS_5,163,5,42,127,1035724416
47,4,4,T1_SMS_5,164,1,48,52,1036187132
47,4,4,T1_SMS_5,165,5,42,127,1036223740
47,4,4,T1_SMS_5,166,1,48,50,1036718984
47,4,4,T1_SMS_5,167,5,42,127,1036723656
47,4,4,T1_SMS_5,168,1,48,54,1037217412
47,4,4,T1_SMS_5,169,5,42,127,1037224252
47,4,4,T1_SMS_5,170,1,48,54,1037704240
47,4,4,T1_SMS_5,171,5,42,127,1037723944
47,4,4,T1_SMS_5,172,1,48,51,1038215380
47,4,4,T1_SMS_5,173,5,42,127,1038223640
47,4,4,T1_SMS_5,174,1,48,56,1038705872
47,4,4,T1_SMS_5,175,5,42,127,1038723412
47,4,4,T1_SMS_5,176,1,48,51,1039200680
47,4,4,T1_SMS_5,177,5,42,127,1039224448
47,4,4,T1_SMS_5,178,1,48,53,1039704788
47,4,4,T1_SMS_5,179,5,42,127,1039723848
47,4,4,T1_SMS_5,180,1,48,51,1040206724
47,4,4,T1_SMS_5,181,5,42,127,1040223588
47,4,4,T1_SMS_5,182,1,48,57,1040676648
47,4,4,T1_SMS_5,183,5,42,127,1040724256
47,4,4,T1_SMS_5,184,1,48,54,1041186368
47,4,4,T1_SMS_5,185,5,42,127,1041224176
47,4,4,T1_SMS_5,186,1,48,55,1041677016
47,4,4,T1_SMS_5,187,5,42,127,1041723724
47,4,4,T1_SMS_5,188,1,48,57,1042189948
47,4,4,T1_SMS_5,189,5,42,127,1042223420
47,4,4,T1_SMS_5,190,1,48,52,1042652472
47,4,4,T1_SMS_5,191,5,42,127,1042724236
47,4,4,T1_SMS_5,192,1,48,52,1043158896
47,4,4,T1_SMS_5,193,5,42,127,1043223856
47,4,4,T1_SMS_5,194,1,48,58,1043674968
47,4,4,T1_SMS_5,195,5,42,127,1043723552
47,4,4,T1_SMS_5,196,1,48,59,1044194112
47,4,4,T1_SMS_5,197,5,42,127,1044224292
47,4,4,T1_SMS_5,198,1,48,60,1044676980
47,4,4,T1_SMS_5,199,5,42,127,1044724136
47,4,4,T1_SMS_5,200,1,48,52,1045212432
47,4,4,T1_SMS_5,201,5,42,127,1045223984
47,4,4,T1_SMS_5,202,1,48,56,1045719604
47,4,4,T1_SMS_5,203,5,42,127,1045723452
47,4,4,T1_SMS_5,204,5,42,127,1046224276
47,4,4,T1_SMS_5,205,1,48,58,1046228072
47,4,4,T1_SMS_5,206,1,48,54,1046699620
47,4,4,T1_SMS_5,207,5,42,127,1046724188
47,4,4,T1_SMS_5,208,1,48,46,1047209344
47,4,4,T1_SMS_5,209,5,42,127,1047223588
47,4,4,T1_SMS_5,210,1,48,55,1047717044
47,4,4,T1_SMS_5,211,5,42,127,1047724256
47,4,4,T1_SMS_5,212,1,48,58,1048179408
47,4,4,T1_SMS_5,213,5,42,127,1048224024
47,4,4,T1_SMS_5,214,1,48,59,1048671304
47,4,4,T1_SMS_5,215,5,42,127,1048723940
47,4,4,T1_SMS_5,216,1,48,58,1049183036
47,4,4,T1_SMS_5,217,5,42,127,1049223488
47,4,4,T1_SMS_5,218,1,48,54,1049687148
47,4,4,T1_SMS_5,219,5,42,127,1049724300
47,4,4,T1_SMS_5,220,1,48,54,1050200824
47,4,4,T1_SMS_5,221,5,42,127,1050224144
47,4,4,T1_SMS_5,222,1,48,54,1050673368
47,4,4,T1_SMS_5,223,5,42,127,1050723816
47,4,4,T1_SMS_5,224,1,48,59,1051172916
47,4,4,T1_SMS_5,225,5,42,127,1051224408
47,4,4,T1_SMS_5,226,1,48,48,1051713372
47,4,4,T1_SMS_5,227,5,42,127,1051724104
47,4,4,T1_SMS_5,228,1,48,59,1052211120
47,4,4,T1_SMS_5,229,5,42,127,1052223948
47,4,4,T1_SMS_5,230,1,48,57,1052668708
47,4,4,T1_SMS_5,231,5,42,127,1052723492
47,4,4,T1_SMS_5,232,1,48,51,1053203856
47,4,4,T1_SMS_5,233,5,42,127,1053224160
47,4,4,T1_SMS_5,234,1,48,49,1053693008
47,4,4,T1_SMS_5,235,5,42,127,1053724004
47,4,4,T1_SMS_5,236,1,48,53,1054175272
47,4,4,T1_SMS_5,237,5,42,127,1054223848
47,4,4,T1_SMS_5,238,1,48,50,1054657164
47,4,4,T1_SMS_5,239,5,42,127,1054723396
47,4,4,T1_SMS_5,240,5,42,127,1055224216
47,4,4,T1_SMS_5,241,1,48,57,1055226964
47,4,4,T1_SMS_5,242,1,48,51,1055694328
47,4,4,T1_SMS_5,243,5,42,127,1055723908
47,4,4,T1_SMS_5,244,1,48,55,1056213024
47,4,4,T1_SMS_5,245,5,42,127,1056223824
47,4,4,T1_SMS_5,246,1,48,49,1056702768
47,4,4,T1_SMS_5,247,5,42,127,1056724416
47,4,4,T1_SMS_5,248,5,42,127,1057223896
47,4,4,T1_SMS_5,249,1,48,54,1057240256
47,4,4,T1_SMS_5,250,1,48,57,1057696172
47,4,4,T1_SMS_5,251,5,42,127,1057724180
47,4,4,T1_SMS_5,252,1,48,54,1058221464
47,4,4,T1_SMS_5,253,5,42,127,1058223428
47,4,4,T1_SMS_5,254,5,42,127,1058724176
47,4,4,T1_SMS_5,255,1,48,46,1058735820
47,4,4,T1_SMS_5,0,9999,9999,9999,994221108
47,4,4,T1_SMS_5,1,9999,9999,9999,994721868
47,4,4,T1_SMS_5,2,9999,9999,9999,995221584
47,4,4,T1_SMS_5,3,9999,9999,9999,995721304
47,4,4,T1_SMS_5,4,9999,9999,9999,996222044
47,4,4,T1_SMS_5,5,9999,9999,9999,996721752
47,4,4,T1_SMS_5,6,9999,9999,9999,997221424
47,4,4,T1_SMS_5,7,9999,9999,9999,997721192
47,4,4,T1_SMS_5,8,9999,9999,9999,998221936
47,4,4,T1_SMS_5,9,9999,9999,9999,998721628
47,4,4,T1_SMS_5,10,9999,9999,9999,999221324
47,4,4,T1_SMS_5,11,9999,9999,9999,999722068
47,4,4,T1_SMS_5,12,9999,9999,9999,1000221760
47,4,4,T1_SMS_5,13,9999,9999,9999,1000721456
47,4,4,T1_SMS_5,14,9999,9999,9999,1001221228
47,4,4,T1_SMS_5,15,9999,9999,9999,1001721968
47,4,4,T1_SMS_5,16,9999,9999,9999,1002221664
47,4,4,T1_SMS_5,17,9999,9999,9999,1002721356
47,4,4,T1_SMS_5,18,9999,9999,9999,1003222100
47,4,4,T1_SMS_5,19,9999,9999,9999,1003721796
47,4,4,T1_SMS_5,20,9999,9999,9999,1004221488
47,4,4,T1_SMS_5,21,9999,9999,9999,1004721260
47,4,4,T1_SMS_5,22,9999,9999,9999,1005222004
47,4,4,T1_SMS_5,23,9999,9999,9999,1005721696
47,4,4,T1_SMS_5,24,9999,9999,9999,1006221392
47,4,4,T1_SMS_5,25,9999,9999,9999,1006721084
47,4,4,T1_SMS_5,26,9999,9999,9999,1007221828
47,4,4,T1_SMS_5,27,9999,9999,9999,1007721572
47,4,4,T1_SMS_5,28,9999,9999,9999,1008221264
47,4,4,T1_SMS_5,29,9999,9999,9999,1008722008
47,4,4,T1_SMS_5,30,9999,9999,9999,1009221704
47,4,4,T1_SMS_5,31,9999,9999,9999,1009721396
47,4,4,T1_SMS_5,32,9999,9999,9999,1010221168
47,4,4,T1_SMS_5,33,9999,9999,9999,1010721908
47,4,4,T1_SMS_5,34,9999,9999,9999,1011221604
47,4,4,T1_SMS_5,35,9999,9999,9999,1011721300
47,4,4,T1_SMS_5,36,9999,9999,9999,1012222040
47,4,4,T1_SMS_5,37,9999,9999,9999,1012721736
47,4,4,T1_SMS_5,38,9999,9999,9999,1013221432
47,4,4,T1_SMS_5,39,9999,9999,9999,1013721200
47,4,4,T1_SMS_5,40,9999,9999,9999,1014221940
47,4,4,T1_SMS_5,41,9999,9999,9999,1014721636
47,4,4,T1_SMS_5,42,9999,9999,9999,1015221332
47,4,4,T1_SMS_5,43,9999,9999,9999,1015722072
47,4,4,T1_SMS_5,44,9999,9999,9999,1016221768
47,4,4,T1_SMS_5,45,9999,9999,9999,1016721464
47,4,4,T1_SMS_5,46,9999,9999,9999,1017221232
47,4,4,T1_SMS_5,47,9999,9999,9999,1017721976
47,4,4,T1_SMS_5,48,9999,9999,9999,1018221672
47,4,4,T1_SMS_5,49,9999,9999,9999,1018721340
47,4,4,T1_SMS_5,50,9999,9999,9999,1019222080
47,4,4,T1_SMS_5,51,9999,9999,9999,1019721780
47,4,4,T1_SMS_5,52,9999,9999,9999,1020221548
47,4,4,T1_SMS_5,53,9999,9999,9999,1020721244
47,4,4,T1_SMS_5,54,9999,9999,9999,1021221984
47,4,4,T1_SMS_5,55,9999,9999,9999,1021721680
47,4,4,T1_SMS_5,56,9999,9999,9999,1022221372
47,4,4,T1_SMS_5,57,9999,9999,9999,1022721140
47,4,4,T1_SMS_5,58,9999,9999,9999,1023221808
47,4,4,T1_SMS_5,59,9999,9999,9999,1023721580
47,4,4,T1_SMS_5,60,9999,9999,9999,1024221272
47,4,4,T1_SMS_5,61,9999,9999,9999,1024722012
47,4,4,T1_SMS_5,62,9999,9999,9999,1025221708
47,4,4,T1_SMS_5,63,9999,9999,9999,1025721404
47,4,4,T1_SMS_5,64,9999,9999,9999,1026221172
47,4,4,T1_SMS_5,65,9999,9999,9999,1026721912
47,4,4,T1_SMS_5,66,9999,9999,9999,1027221608
47,4,4,T1_SMS_5,67,9999,9999,9999,1027721304
47,4,4,T1_SMS_5,68,9999,9999,9999,1028222048
47,4,4,T1_SMS_5,69,9999,9999,9999,1028721744
47,4,4,T1_SMS_5,70,9999,9999,9999,1029221488
47,4,4,T1_SMS_5,71,9999,9999,9999,1029721156
47,4,4,T1_SMS_5,72,9999,9999,9999,1030221900
47,4,4,T1_SMS_5,73,9999,9999,9999,1030721592
47,4,4,T1_SMS_5,74,9999,9999,9999,1031221364
47,4,4,T1_SMS_5,75,9999,9999,9999,1031722104
47,4,4,T1_SMS_5,76,9999,9999,9999,1032221800
47,4,4,T1_SMS_5,77,9999,9999,9999,1032721500
47,4,4,T1_SMS_5,78,9999,9999,9999,1033221196
47,4,4,T1_SMS_5,79,9999,9999,9999,1033721932
47,4,4,T1_SMS_5,80,9999,9999,9999,1034221628
47,4,4,T1_SMS_5,81,9999,9999,9999,1034721396
47,4,4,T1_SMS_5,82,9999,9999,9999,1035222068
47,4,4,T1_SMS_5,83,9999,9999,9999,1035721832
47,4,4,T1_SMS_5,84,9999,9999,9999,1036221528
47,4,4,T1_SMS_5,85,9999,9999,9999,1036721224
47,4,4,T1_SMS_5,86,9999,9999,9999,1037221964
47,4,4,T1_SMS_5,87,9999,9999,9999,1037721660
47,4,4,T1_SMS_5,88,9999,9999,9999,1038221428
47,4,4,T1_SMS_5,89,9999,9999,9999,1038721124
47,4,4,T1_SMS_5,90,9999,9999,9999,1039221864
47,4,4,T1_SMS_5,91,9999,9999,9999,1039721560
47,4,4,T1_SMS_5,92,9999,9999,9999,1040221304
47,4,4,T1_SMS_5,93,9999,9999,9999,1040721972
47,4,4,T1_SMS_5,94,9999,9999,9999,1041221740
47,4,4,T1_SMS_5,95,9999,9999,9999,1041721436
47,4,4,T1_SMS_5,96,9999,9999,9999,1042221132
47,4,4,T1_SMS_5,97,9999,9999,9999,1042721872
47,4,4,T1_SMS_5,98,9999,9999,9999,1043221568
47,4,4,T1_SMS_5,99,9999,9999,9999,1043721264
47,4,4,T1_SMS_5,100,9999,9999,9999,1044222004
47,4,4,T1_SMS_5,101,9999,9999,9999,1044721772
47,4,4,T1_SMS_5,102,9999,9999,9999,1045221472
47,4,4,T1_SMS_5,103,9999,9999,9999,1045721168
47,4,4,T1_SMS_5,104,9999,9999,9999,1046221916
47,4,4,T1_SMS_5,105,9999,9999,9999,1046721604
47,4,4,T1_SMS_5,106,9999,9999,9999,1047221300
47,4,4,T1_SMS_5,107,9999,9999,9999,1047722040
47,4,4,T1_SMS_5,108,9999,9999,9999,1048221812
47,4,4,T1_SMS_5,109,9999,9999,9999,1048721504
47,4,4,T1_SMS_5,110,9999,9999,9999,1049221200
47,4,4,T1_SMS_5,111,9999,9999,9999,1049721940
47,4,4,T1_SMS_5,112,9999,9999,9999,1050221636
47,4,4,T1_SMS_5,113,9999,9999,9999,1050721380
47,4,4,T1_SMS_5,114,9999,9999,9999,1051222120
47,4,4,T1_SMS_5,115,9999,9999,9999,1051721816
47,4,4,T1_SMS_5,116,9999,9999,9999,1052221512
47,4,4,T1_SMS_5,117,9999,9999,9999,1052721208
47,4,4,T1_SMS_5,118,9999,9999,9999,1053221948
47,4,4,T1_SMS_5,119,9999,9999,9999,1053721716
47,4,4,T1_SMS_5,120,9999,9999,9999,1054221412
47,4,4,T1_SMS_5,121,9999,9999,9999,1054721108
47,4,4,T1_SMS_5,122,9999,9999,9999,1055221856
47,4,4,T1_SMS_5,123,9999,9999,9999,1055721544
47,4,4,T1_SMS_5,124,9999,9999,9999,1056221240
47,4,4,T1_SMS_5,125,9999,9999,9999,1056721984
47,4,4,T1_SMS_5,126,9999,9999,9999,1057221684
47,4,4,T1_SMS_5,127,9999,9999,9999,1057721448
47,4,4,T1_SMS_5,128,9999,9999,9999,1058221180
47,4,4,T1_SMS_5,129,9999,9999,9999,1058721888
47,5,22,Ticks_Phase_8,0,5,42,127,1071533556
47,5,22,Ticks_Phase_8,1,5,42,127,1072343624
47,5,22,Ticks_Phase_8,2,5,42,127,1073143508
47,5,22,Ticks_Phase_8,3,1,48,43,1073172020
47,5,22,Ticks_Phase_8,4,1,48,46,1073943144
47,5,22,Ticks_Phase_8,5,5,42,127,1073944708
47,5,22,Ticks_Phase_8,6,1,48,48,1074722528
47,5,22,Ticks_Phase_8,7,5,42,127,1074742624
47,5,22,Ticks_Phase_8,8,1,48,45,1075537964
47,5,22,Ticks_Phase_8,9,5,42,127,1075543384
47,5,22,Ticks_Phase_8,10,1,48,48,1076329308
47,5,22,Ticks_Phase_8,11,5,42,127,1076343344
47,5,22,Ticks_Phase_8,12,1,48,50,1077126024
47,5,22,Ticks_Phase_8,13,5,42,127,1077142836
47,5,22,Ticks_Phase_8,14,1,48,50,1077892344
47,5,22,Ticks_Phase_8,15,5,42,127,1077942620
47,5,22,Ticks_Phase_8,16,1,48,48,1078701716
47,5,22,Ticks_Phase_8,17,5,42,127,1078743304
47,5,22,Ticks_Phase_8,18,1,48,48,1079509432
47,5,22,Ticks_Phase_8,19,5,42,127,1079543388
47,5,22,Ticks_Phase_8,20,1,48,48,1080319552
47,5,22,Ticks_Phase_8,21,5,42,127,1080342876
47,5,22,Ticks_Phase_8,22,1,48,45,1081119112
47,5,22,Ticks_Phase_8,23,5,42,127,1081142588
47,5,22,Ticks_Phase_8,24,1,48,45,1081920784
47,5,22,Ticks_Phase_8,25,5,42,127,1081943348
47,5,22,Ticks_Phase_8,26,5,42,127,1082743240
47,5,22,Ticks_Phase_8,27,1,48,47,1082755868
47,5,22,Ticks_Phase_8,28,5,42,127,1083542876
47,5,22,Ticks_Phase_8,29,1,48,45,1083576996
47,5,22,Ticks_Phase_8,30,1,48,50,1084320748
47,5,22,Ticks_Phase_8,31,5,42,127,1084342508
47,5,22,Ticks_Phase_8,32,1,48,47,1085112308
47,5,22,Ticks_Phase_8,33,5,42,127,1085143412
47,5,22,Ticks_Phase_8,34,1,48,45,1085893748
47,5,22,Ticks_Phase_8,35,5,42,127,1085943276
47,5,22,Ticks_Phase_8,36,1,48,43,1086657428
47,5,22,Ticks_Phase_8,37,5,42,127,1086742912
47,5,22,Ticks_Phase_8,38,1,48,45,1087489196
47,5,22,Ticks_Phase_8,39,5,42,127,1087542700
47,5,22,Ticks_Phase_8,40,1,48,49,1088311156
47,5,22,Ticks_Phase_8,41,5,42,127,1088343384
47,5,22,Ticks_Phase_8,42,1,48,47,1089113784
47,5,22,Ticks_Phase_8,43,5,42,127,1089143120
47,5,22,Ticks_Phase_8,44,1,48,48,1089913520
47,5,22,Ticks_Phase_8,45,5,42,127,1089942832
47,5,22,Ticks_Phase_8,46,1,48,41,1090721544
47,5,22,Ticks_Phase_8,47,5,42,127,1090742544
47,5,22,Ticks_Phase_8,48,1,48,46,1091511600
47,5,22,Ticks_Phase_8,49,5,42,127,1091543376
47,5,22,Ticks_Phase_8,50,1,48,41,1092283296
47,5,22,Ticks_Phase_8,51,5,42,127,1092343088
47,5,22,Ticks_Phase_8,52,1,48,48,1093113636
47,5,22,Ticks_Phase_8,53,5,42,127,1093143096
47,5,22,Ticks_Phase_8,54,1,48,42,1093909076
47,5,22,Ticks_Phase_8,55,5,42,127,1093942588
47,5,22,Ticks_Phase_8,56,5,42,127,1094743428
47,5,22,Ticks_Phase_8,57,1,48,45,1094776300
47,5,22,Ticks_Phase_8,58,5,42,127,1095522544
47,5,22,Ticks_Phase_8,59,1,48,42,1095567924
47,5,22,Ticks_Phase_8,60,1,48,40,1096314160
47,5,22,Ticks_Phase_8,61,5,42,127,1096322352
47,5,22,Ticks_Phase_8,62,1,48,46,1097108244
47,5,22,Ticks_Phase_8,63,5,42,127,1097123184
47,5,22,Ticks_Phase_8,64,1,48,50,1097874412
47,5,22,Ticks_Phase_8,65,5,42,127,1097922968
47,5,22,Ticks_Phase_8,66,1,48,48,1098601040
47,5,22,Ticks_Phase_8,67,5,42,127,1098722668
47,5,22,Ticks_Phase_8,68,1,48,46,1099497872
47,5,22,Ticks_Phase_8,69,5,42,127,1099522392
47,5,22,Ticks_Phase_8,70,1,48,48,1100258492
47,5,22,Ticks_Phase_8,71,5,42,127,1100323076
47,5,22,Ticks_Phase_8,72,1,48,49,1101116692
47,5,22,Ticks_Phase_8,73,5,42,127,1101122788
47,5,22,Ticks_Phase_8,74,1,48,47,1101922128
47,5,22,Ticks_Phase_8,75,5,42,127,1101923916
47,5,22,Ticks_Phase_8,76,5,42,127,1102722392
47,5,22,Ticks_Phase_8,77,1,48,47,1102743408
47,5,22,Ticks_Phase_8,78,5,42,127,1103523220
47,5,22,Ticks_Phase_8,79,1,48,45,1103526416
47,5,22,Ticks_Phase_8,80,1,48,41,1104303952
47,5,22,Ticks_Phase_8,81,5,42,127,1104323004
47,5,22,Ticks_Phase_8,82,1,48,43,1105063600
47,5,22,Ticks_Phase_8,83,5,42,127,1105122788
47,5,22,Ticks_Phase_8,84,5,42,127,1105922360
47,5,22,Ticks_Phase_8,85,1,48,48,1105933940
47,5,22,Ticks_Phase_8,86,1,48,45,1106689156
47,5,22,Ticks_Phase_8,87,5,42,127,1106723112
47,5,22,Ticks_Phase_8,88,1,48,49,1107496800
47,5,22,Ticks_Phase_8,89,5,42,127,1107522820
47,5,22,Ticks_Phase_8,90,1,48,51,1108275844
47,5,22,Ticks_Phase_8,91,5,42,127,1108322756
47,5,22,Ticks_Phase_8,92,1,48,52,1109081556
47,5,22,Ticks_Phase_8,93,5,42,127,1109122420
47,5,22,Ticks_Phase_8,94,1,48,40,1109904800
47,5,22,Ticks_Phase_8,95,5,42,127,1109942652
47,5,22,Ticks_Phase_8,96,1,48,44,1110697844
47,5,22,Ticks_Phase_8,97,5,42,127,1110743484
47,5,22,Ticks_Phase_8,98,1,48,48,1111543352
47,5,22,Ticks_Phase_8,99,5,42,127,1111544920
47,5,22,Ticks_Phase_8,100,1,48,51,1112311956
47,5,22,Ticks_Phase_8,101,5,42,127,1112342984
47,5,22,Ticks_Phase_8,102,1,48,48,1113111964
47,5,22,Ticks_Phase_8,103,5,42,127,1113142916
47,5,22,Ticks_Phase_8,104,1,48,51,1113894448
47,5,22,Ticks_Phase_8,105,5,42,127,1113943600
47,5,22,Ticks_Phase_8,106,1,48,50,1114664132
47,5,22,Ticks_Phase_8,107,5,42,127,1114743116
47,5,22,Ticks_Phase_8,108,1,48,42,1115454400
47,5,22,Ticks_Phase_8,109,5,42,127,1115542828
47,5,22,Ticks_Phase_8,110,5,42,127,1116342768
47,5,22,Ticks_Phase_8,111,1,48,51,1116358612
47,5,22,Ticks_Phase_8,112,5,42,127,1117143676
47,5,22,Ticks_Phase_8,113,1,48,51,1117149112
47,5,22,Ticks_Phase_8,114,5,42,127,1117943088
47,5,22,Ticks_Phase_8,115,1,48,48,1117944648
47,5,22,Ticks_Phase_8,116,1,48,49,1118723668
47,5,22,Ticks_Phase_8,117,5,42,127,1118742796
47,5,22,Ticks_Phase_8,118,1,48,46,1119528096
47,5,22,Ticks_Phase_8,119,5,42,127,1119542728
47,5,22,Ticks_Phase_8,120,5,42,127,1120343492
47,5,22,Ticks_Phase_8,121,1,48,48,1120389020
47,5,22,Ticks_Phase_8,122,1,48,47,1121094488
47,5,22,Ticks_Phase_8,123,5,42,127,1121143148
47,5,22,Ticks_Phase_8,124,1,48,49,1121867168
47,5,22,Ticks_Phase_8,125,5,42,127,1121942860
47,5,22,Ticks_Phase_8,126,1,48,50,1122672300
47,5,22,Ticks_Phase_8,127,5,42,127,1122782548
47,5,22,Ticks_Phase_8,128,1,48,48,1123529068
47,5,22,Ticks_Phase_8,129,5,42,127,1123583468
47,5,22,Ticks_Phase_8,130,1,48,42,1124345036
47,5,22,Ticks_Phase_8,131,5,42,127,1124382960
47,5,22,Ticks_Phase_8,132,1,48,48,1125141608
47,5,22,Ticks_Phase_8,133,5,42,127,1125182968
47,5,22,Ticks_Phase_8,134,1,48,46,1125923268
47,5,22,Ticks_Phase_8,135,5,42,127,1125982604
47,5,22,Ticks_Phase_8,136,1,48,42,1126721032
47,5,22,Ticks_Phase_8,137,5,42,127,1126783316
47,5,22,Ticks_Phase_8,138,1,48,48,1127537236
47,5,22,Ticks_Phase_8,139,5,42,127,1127583176
47,5,22,Ticks_Phase_8,140,1,48,46,1128308792
47,5,22,Ticks_Phase_8,141,5,42,127,1128382816
47,5,22,Ticks_Phase_8,142,1,48,51,1129147220
47,5,22,Ticks_Phase_8,143,5,42,127,1129182600
47,5,22,Ticks_Phase_8,144,1,48,52,1129964384
47,5,22,Ticks_Phase_8,145,5,42,127,1129983432
47,5,22,Ticks_Phase_8,146,1,48,52,1130777420
47,5,22,Ticks_Phase_8,147,5,42,127,1130783220
47,5,22,Ticks_Phase_8,148,1,48,55,1131583012
47,5,22,Ticks_Phase_8,149,5,42,127,1131584500
47,5,22,Ticks_Phase_8,150,1,48,54,1132363672
47,5,22,Ticks_Phase_8,151,5,42,127,1132382572
47,5,22,Ticks_Phase_8,152,1,48,55,1133151256
47,5,22,Ticks_Phase_8,153,5,42,127,1133183428
47,5,22,Ticks_Phase_8,154,1,48,51,1133938104
47,5,22,Ticks_Phase_8,155,5,42,127,1133983216
47,5,22,Ticks_Phase_8,156,1,48,54,1134716396
47,5,22,Ticks_Phase_8,157,5,42,127,1134782932
47,5,22,Ticks_Phase_8,158,1,48,47,1135531620
47,5,22,Ticks_Phase_8,159,5,42,127,1135582568
47,5,22,Ticks_Phase_8,160,5,42,127,1136343348
47,5,22,Ticks_Phase_8,161,1,48,51,1136358144
47,5,22,Ticks_Phase_8,162,1,48,51,1137120096
47,5,22,Ticks_Phase_8,163,5,42,127,1137143200
47,5,22,Ticks_Phase_8,164,1,48,46,1137872788
47,5,22,Ticks_Phase_8,165,5,42,127,1137942840
47,5,22,Ticks_Phase_8,166,1,48,51,1138680428
47,5,22,Ticks_Phase_8,167,5,42,127,1138742624
47,5,22,Ticks_Phase_8,168,1,48,53,1139474156
47,5,22,Ticks_Phase_8,169,5,42,127,1139543456
47,5,22,Ticks_Phase_8,170,1,48,45,1140330352
47,5,22,Ticks_Phase_8,171,5,42,127,1140343192
47,5,22,Ticks_Phase_8,172,1,48,49,1141079860
47,5,22,Ticks_Phase_8,173,5,42,127,1141142980
47,5,22,Ticks_Phase_8,174,1,48,48,1141911288
47,5,22,Ticks_Phase_8,175,5,42,127,1141942616
47,5,22,Ticks_Phase_8,176,1,48,50,1142687328
47,5,22,Ticks_Phase_8,177,5,42,127,1142743524
47,5,22,Ticks_Phase_8,178,1,48,49,1143529272
47,5,22,Ticks_Phase_8,179,5,42,127,1143543160
47,5,22,Ticks_Phase_8,180,1,48,50,1144301508
47,5,22,Ticks_Phase_8,181,5,42,127,1144343024
47,5,22,Ticks_Phase_8,182,1,48,51,1145126524
47,5,22,Ticks_Phase_8,183,5,42,127,1145142584
47,5,22,Ticks_Phase_8,184,1,48,48,1145919268
47,5,22,Ticks_Phase_8,185,5,42,127,1145943268
47,5,22,Ticks_Phase_8,186,1,48,54,1146687008
47,5,22,Ticks_Phase_8,187,5,42,127,1146743232
47,5,22,Ticks_Phase_8,188,1,48,48,1147482236
47,5,22,Ticks_Phase_8,189,5,42,127,1147542944
47,5,22,Ticks_Phase_8,190,1,48,46,1148288700
47,5,22,Ticks_Phase_8,191,5,42,127,1148342508
47,5,22,Ticks_Phase_8,192,5,42,127,1149062396
47,5,22,Ticks_Phase_8,193,1,48,39,1149149460
47,5,22,Ticks_Phase_8,194,5,42,127,1149863304
47,5,22,Ticks_Phase_8,195,1,48,48,1149907908
47,5,22,Ticks_Phase_8,196,1,48,46,1150629276
47,5,22,Ticks_Phase_8,197,5,42,127,1150663008
47,5,22,Ticks_Phase_8,198,1,48,49,1151434680
47,5,22,Ticks_Phase_8,199,5,42,127,1151462944
47,5,22,Ticks_Phase_8,200,1,48,50,1152242188
47,5,22,Ticks_Phase_8,201,5,42,127,1152262508
47,5,22,Ticks_Phase_8,202,1,48,51,1153035004
47,5,22,Ticks_Phase_8,203,5,42,127,1153063268
47,5,22,Ticks_Phase_8,204,1,48,49,1153815468
47,5,22,Ticks_Phase_8,205,5,42,127,1153862904
47,5,22,Ticks_Phase_8,206,1,48,48,1154612040
47,5,22,Ticks_Phase_8,207,5,42,127,1154662716
47,5,22,Ticks_Phase_8,208,5,42,127,1155462656
47,5,22,Ticks_Phase_8,209,1,48,51,1155479928
47,5,22,Ticks_Phase_8,210,5,42,127,1156263268
47,5,22,Ticks_Phase_8,211,1,48,51,1156281672
47,5,22,Ticks_Phase_8,212,5,42,127,1157062980
47,5,22,Ticks_Phase_8,213,1,48,42,1157093956
47,5,22,Ticks_Phase_8,214,5,42,127,1157862764
47,5,22,Ticks_Phase_8,215,1,48,44,1158189568
47,5,22,Ticks_Phase_8,216,1,48,35,1158543520
47,5,22,Ticks_Phase_8,217,5,42,127,1158662752
47,5,22,Ticks_Phase_8,218,1,48,49,1159382996
47,5,22,Ticks_Phase_8,219,5,42,127,1159463376
47,5,22,Ticks_Phase_8,220,1,48,46,1160246440
47,5,22,Ticks_Phase_8,221,5,42,127,1160263016
47,5,22,Ticks_Phase_8,222,1,48,48,1161036704
47,5,22,Ticks_Phase_8,223,5,42,127,1161062676
47,5,22,Ticks_Phase_8,224,5,42,127,1161862696
47,5,22,Ticks_Phase_8,225,1,48,48,1161865888
47,5,22,Ticks_Phase_8,226,1,48,49,1162634736
47,5,22,Ticks_Phase_8,227,5,42,127,1162743188
47,5,22,Ticks_Phase_8,228,1,48,45,1163505068
47,5,22,Ticks_Phase_8,229,5,42,127,1163542840
47,5,22,Ticks_Phase_8,230,1,48,47,1164339744
47,5,22,Ticks_Phase_8,231,5,42,127,1164342776
47,5,22,Ticks_Phase_8,232,1,48,46,1165113628
47,5,22,Ticks_Phase_8,233,5,42,127,1165143684
47,5,22,Ticks_Phase_8,234,1,48,45,1165901804
47,5,22,Ticks_Phase_8,235,5,42,127,1165943196
47,5,22,Ticks_Phase_8,236,1,48,46,1166714864
47,5,22,Ticks_Phase_8,237,5,42,127,1166742832
47,5,22,Ticks_Phase_8,238,1,48,46,1167469868
47,5,22,Ticks_Phase_8,239,5,42,127,1167542620
47,5,22,Ticks_Phase_8,240,1,48,38,1168297960
47,5,22,Ticks_Phase_8,241,5,42,127,1168343452
47,5,22,Ticks_Phase_8,242,1,48,49,1169093556
47,5,22,Ticks_Phase_8,243,5,42,127,1169143016
47,5,22,Ticks_Phase_8,244,1,48,48,1169889372
47,5,22,Ticks_Phase_8,245,5,42,127,1169942876
47,5,22,Ticks_Phase_8,246,1,48,50,1170705860
47,5,22,Ticks_Phase_8,247,5,42,127,1170742512
47,5,22,Ticks_Phase_8,248,1,48,50,1171498232
47,5,22,Ticks_Phase_8,249,5,42,127,1171543420
47,5,22,Ticks_Phase_8,250,1,48,47,1172291664
47,5,22,Ticks_Phase_8,251,5,42,127,1172343084
47,5,22,Ticks_Phase_8,252,1,48,48,1173099996
47,5,22,Ticks_Phase_8,253,5,42,127,1173142944
47,5,22,Ticks_Phase_8,254,1,48,48,1173881372
47,5,22,Ticks_Phase_8,255,5,42,127,1173942584
47,5,22,Ticks_Phase_8,256,1,48,50,1174692464
47,5,22,Ticks_Phase_8,257,5,42,127,1174743340
47,5,22,Ticks_Phase_8,258,1,48,48,1175463564
47,5,22,Ticks_Phase_8,259,5,42,127,1175543348
47,5,22,Ticks_Phase_8,260,1,48,53,1176324464
47,5,22,Ticks_Phase_8,261,5,42,127,1176502584
47,5,22,Ticks_Phase_8,262,5,42,127,1177303440
47,5,22,Ticks_Phase_8,263,5,42,127,1178103396
47,5,22,Ticks_Phase_8,264,1,48,33,1178709108
47,5,22,Ticks_Phase_8,265,5,42,127,1178902960
47,5,22,Ticks_Phase_8,266,1,48,48,1179602680
47,5,22,Ticks_Phase_8,267,5,42,127,1179702672
47,5,22,Ticks_Phase_8,268,1,48,47,1180420300
47,5,22,Ticks_Phase_8,269,5,42,127,1180503372
47,5,22,Ticks_Phase_8,270,1,48,51,1181212068
47,5,22,Ticks_Phase_8,271,5,42,127,1181303256
47,5,22,Ticks_Phase_8,272,1,48,57,1182049836
47,5,22,Ticks_Phase_8,273,5,42,127,1182103188
47,5,22,Ticks_Phase_8,274,1,48,51,1182812908
47,5,22,Ticks_Phase_8,275,5,42,127,1182902528
47,5,22,Ticks_Phase_8,276,1,48,54,1183620364
47,5,22,Ticks_Phase_8,277,5,42,127,1183703360
47,5,22,Ticks_Phase_8,278,1,48,50,1184409500
47,5,22,Ticks_Phase_8,279,5,42,127,1184503368
47,5,22,Ticks_Phase_8,280,1,48,52,1185189668
47,5,22,Ticks_Phase_8,281,5,42,127,1185302844
47,5,22,Ticks_Phase_8,282,1,48,51,1186074528
47,5,22,Ticks_Phase_8,283,5,42,127,1186102568
47,5,22,Ticks_Phase_8,284,1,48,54,1186840700
47,5,22,Ticks_Phase_8,285,5,42,127,1186903552
47,5,22,Ticks_Phase_8,286,1,48,55,1187593076
47,5,22,Ticks_Phase_8,287,5,42,127,1187703196
47,5,22,Ticks_Phase_8,288,1,48,49,1188489636
47,5,22,Ticks_Phase_8,289,5,42,127,1188503000
47,5,22,Ticks_Phase_8,290,1,48,51,1189237228
47,5,22,Ticks_Phase_8,291,5,42,127,1189302784
47,5,22,Ticks_Phase_8,292,1,48,49,1190072064
47,5,22,Ticks_Phase_8,293,5,42,127,1190103392
47,5,22,Ticks_Phase_8,294,1,48,40,1190857172
47,5,22,Ticks_Phase_8,295,5,42,127,1190903108
47,5,22,Ticks_Phase_8,296,5,42,127,1191543168
47,5,22,Ticks_Phase_8,297,1,48,47,1191647536
47,5,22,Ticks_Phase_8,298,1,48,51,1192062072
47,5,22,Ticks_Phase_8,299,5,42,127,1192342932
47,5,22,Ticks_Phase_8,300,1,48,26,1192892932
47,5,22,Ticks_Phase_8,301,5,42,127,1193142792
47,5,22,Ticks_Phase_8,302,1,48,29,1193364912
47,5,22,Ticks_Phase_8,303,1,48,40,1193774100
47,5,22,Ticks_Phase_8,304,5,42,127,1193943456
47,5,22,Ticks_Phase_8,305,5,42,127,1194743264
47,5,22,Ticks_Phase_8,306,1,48,27,1194868024
47,5,22,Ticks_Phase_8,307,1,48,32,1195400732
47,5,22,Ticks_Phase_8,308,5,42,127,1195542880
47,5,22,Ticks_Phase_8,309,1,48,48,1196259220
47,5,22,Ticks_Phase_8,310,5,42,127,1196342832
47,5,22,Ticks_Phase_8,311,1,48,53,1197038640
47,5,22,Ticks_Phase_8,312,5,42,127,1197143424
47,5,22,Ticks_Phase_8,313,1,48,50,1197894220
47,5,22,Ticks_Phase_8,314,5,42,127,1197943252
47,5,22,Ticks_Phase_8,315,1,48,52,1198655436
47,5,22,Ticks_Phase_8,316,5,42,127,1198742964
47,5,22,Ticks_Phase_8,317,1,48,54,1199532316
47,5,22,Ticks_Phase_8,318,5,42,127,1199542748
47,5,22,Ticks_Phase_8,319,1,48,50,1200291064
47,5,22,Ticks_Phase_8,320,5,42,127,1200343360
47,5,22,Ticks_Phase_8,321,1,48,53,1201067256
47,5,22,Ticks_Phase_8,322,5,42,127,1201143144
47,5,22,Ticks_Phase_8,323,1,48,52,1201830488
47,5,22,Ticks_Phase_8,324,5,42,127,1201942916
47,5,22,Ticks_Phase_8,325,5,42,127,1202742724
47,5,22,Ticks_Phase_8,326,1,48,46,1202746820
47,5,22,Ticks_Phase_8,327,1,48,47,1203497992
47,5,22,Ticks_Phase_8,328,5,42,127,1203543628
47,5,22,Ticks_Phase_8,329,1,48,50,1204246780
47,5,22,Ticks_Phase_8,330,5,42,127,1204343048
47,5,22,Ticks_Phase_8,331,1,48,54,1205123576
47,5,22,Ticks_Phase_8,332,5,42,127,1205143000
47,5,22,Ticks_Phase_8,333,1,48,44,1205907708
47,5,22,Ticks_Phase_8,334,5,42,127,1205942712
47,5,22,Ticks_Phase_8,335,1,48,40,1206692816
47,5,22,Ticks_Phase_8,336,5,42,127,1206743544
47,5,22,Ticks_Phase_8,0,9999,9999,9999,1071531120
47,5,22,Ticks_Phase_8,1,9999,9999,9999,1072341116
47,5,22,Ticks_Phase_8,2,9999,9999,9999,1073140848
47,5,22,Ticks_Phase_8,3,9999,9999,9999,1073940560
47,5,22,Ticks_Phase_8,4,9999,9999,9999,1074740340
47,5,22,Ticks_Phase_8,5,9999,9999,9999,1075541096
47,5,22,Ticks_Phase_8,6,9999,9999,9999,1076340836
47,5,22,Ticks_Phase_8,7,9999,9999,9999,1077140548
47,5,22,Ticks_Phase_8,8,9999,9999,9999,1077940336
47,5,22,Ticks_Phase_8,9,9999,9999,9999,1078741092
47,5,22,Ticks_Phase_8,10,9999,9999,9999,1079540804
47,5,22,Ticks_Phase_8,11,9999,9999,9999,1080340592
47,5,22,Ticks_Phase_8,12,9999,9999,9999,1081140300
47,5,22,Ticks_Phase_8,13,9999,9999,9999,1081941060
47,5,22,Ticks_Phase_8,14,9999,9999,9999,1082740804
47,5,22,Ticks_Phase_8,15,9999,9999,9999,1083540588
47,5,22,Ticks_Phase_8,16,9999,9999,9999,1084340296
47,5,22,Ticks_Phase_8,17,9999,9999,9999,1085141052
47,5,22,Ticks_Phase_8,18,9999,9999,9999,1085940840
47,5,22,Ticks_Phase_8,19,9999,9999,9999,1086740552
47,5,22,Ticks_Phase_8,20,9999,9999,9999,1087540340
47,5,22,Ticks_Phase_8,21,9999,9999,9999,1088341096
47,5,22,Ticks_Phase_8,22,9999,9999,9999,1089140832
47,5,22,Ticks_Phase_8,23,9999,9999,9999,1089940544
47,5,22,Ticks_Phase_8,24,9999,9999,9999,1090740332
47,5,22,Ticks_Phase_8,25,9999,9999,9999,1091541088
47,5,22,Ticks_Phase_8,26,9999,9999,9999,1092340800
47,5,22,Ticks_Phase_8,27,9999,9999,9999,1093140588
47,5,22,Ticks_Phase_8,28,9999,9999,9999,1093940300
47,5,22,Ticks_Phase_8,29,9999,9999,9999,1094741064
47,5,22,Ticks_Phase_8,30,9999,9999,9999,1095520332
47,5,22,Ticks_Phase_8,31,9999,9999,9999,1096320064
47,5,22,Ticks_Phase_8,32,9999,9999,9999,1097120820
47,5,22,Ticks_Phase_8,33,9999,9999,9999,1097920608
47,5,22,Ticks_Phase_8,34,9999,9999,9999,1098720380
47,5,22,Ticks_Phase_8,35,9999,9999,9999,1099520104
47,5,22,Ticks_Phase_8,36,9999,9999,9999,1100320864
47,5,22,Ticks_Phase_8,37,9999,9999,9999,1101120576
47,5,22,Ticks_Phase_8,38,9999,9999,9999,1101920368
47,5,22,Ticks_Phase_8,39,9999,9999,9999,1102720104
47,5,22,Ticks_Phase_8,40,9999,9999,9999,1103520860
47,5,22,Ticks_Phase_8,41,9999,9999,9999,1104320568
47,5,22,Ticks_Phase_8,42,9999,9999,9999,1105120356
47,5,22,Ticks_Phase_8,43,9999,9999,9999,1105920072
47,5,22,Ticks_Phase_8,44,9999,9999,9999,1106720824
47,5,22,Ticks_Phase_8,45,9999,9999,9999,1107520608
47,5,22,Ticks_Phase_8,46,9999,9999,9999,1108320320
47,5,22,Ticks_Phase_8,47,9999,9999,9999,1109120056
47,5,22,Ticks_Phase_8,48,9999,9999,9999,1109940288
47,5,22,Ticks_Phase_8,49,9999,9999,9999,1110741052
47,5,22,Ticks_Phase_8,50,9999,9999,9999,1111540844
47,5,22,Ticks_Phase_8,51,9999,9999,9999,1112340548
47,5,22,Ticks_Phase_8,52,9999,9999,9999,1113140332
47,5,22,Ticks_Phase_8,53,9999,9999,9999,1113941092
47,5,22,Ticks_Phase_8,54,9999,9999,9999,1114740828
47,5,22,Ticks_Phase_8,55,9999,9999,9999,1115540540
47,5,22,Ticks_Phase_8,56,9999,9999,9999,1116340332
47,5,22,Ticks_Phase_8,57,9999,9999,9999,1117141092
47,5,22,Ticks_Phase_8,58,9999,9999,9999,1117940804
47,5,22,Ticks_Phase_8,59,9999,9999,9999,1118740584
47,5,22,Ticks_Phase_8,60,9999,9999,9999,1119540292
47,5,22,Ticks_Phase_8,61,9999,9999,9999,1120341056
47,5,22,Ticks_Phase_8,62,9999,9999,9999,1121140860
47,5,22,Ticks_Phase_8,63,9999,9999,9999,1121940572
47,5,22,Ticks_Phase_8,64,9999,9999,9999,1122780260
47,5,22,Ticks_Phase_8,65,9999,9999,9999,1123581036
47,5,22,Ticks_Phase_8,66,9999,9999,9999,1124380748
47,5,22,Ticks_Phase_8,67,9999,9999,9999,1125180532
47,5,22,Ticks_Phase_8,68,9999,9999,9999,1125980244
47,5,22,Ticks_Phase_8,69,9999,9999,9999,1126781028
47,5,22,Ticks_Phase_8,70,9999,9999,9999,1127580740
47,5,22,Ticks_Phase_8,71,9999,9999,9999,1128380528
47,5,22,Ticks_Phase_8,72,9999,9999,9999,1129180240
47,5,22,Ticks_Phase_8,73,9999,9999,9999,1129981000
47,5,22,Ticks_Phase_8,74,9999,9999,9999,1130780784
47,5,22,Ticks_Phase_8,75,9999,9999,9999,1131580504
47,5,22,Ticks_Phase_8,76,9999,9999,9999,1132380288
47,5,22,Ticks_Phase_8,77,9999,9999,9999,1133180992
47,5,22,Ticks_Phase_8,78,9999,9999,9999,1133980780
47,5,22,Ticks_Phase_8,79,9999,9999,9999,1134780496
47,5,22,Ticks_Phase_8,80,9999,9999,9999,1135580280
47,5,22,Ticks_Phase_8,81,9999,9999,9999,1136341060
47,5,22,Ticks_Phase_8,82,9999,9999,9999,1137140840
47,5,22,Ticks_Phase_8,83,9999,9999,9999,1137940552
47,5,22,Ticks_Phase_8,84,9999,9999,9999,1138740340
47,5,22,Ticks_Phase_8,85,9999,9999,9999,1139541096
47,5,22,Ticks_Phase_8,86,9999,9999,9999,1140340832
47,5,22,Ticks_Phase_8,87,9999,9999,9999,1141140544
47,5,22,Ticks_Phase_8,88,9999,9999,9999,1141940332
47,5,22,Ticks_Phase_8,89,9999,9999,9999,1142741092
47,5,22,Ticks_Phase_8,90,9999,9999,9999,1143540800
47,5,22,Ticks_Phase_8,91,9999,9999,9999,1144340588
47,5,22,Ticks_Phase_8,92,9999,9999,9999,1145140300
47,5,22,Ticks_Phase_8,93,9999,9999,9999,1145941056
47,5,22,Ticks_Phase_8,94,9999,9999,9999,1146740796
47,5,22,Ticks_Phase_8,95,9999,9999,9999,1147540580
47,5,22,Ticks_Phase_8,96,9999,9999,9999,1148340296
47,5,22,Ticks_Phase_8,97,9999,9999,9999,1149060184
47,5,22,Ticks_Phase_8,98,9999,9999,9999,1149860944
47,5,22,Ticks_Phase_8,99,9999,9999,9999,1150660724
47,5,22,Ticks_Phase_8,100,9999,9999,9999,1151460436
47,5,22,Ticks_Phase_8,101,9999,9999,9999,1152260224
47,5,22,Ticks_Phase_8,102,9999,9999,9999,1153060980
47,5,22,Ticks_Phase_8,103,9999,9999,9999,1153860692
47,5,22,Ticks_Phase_8,104,9999,9999,9999,1154660428
47,5,22,Ticks_Phase_8,105,9999,9999,9999,1155460220
47,5,22,Ticks_Phase_8,106,9999,9999,9999,1156260980
47,5,22,Ticks_Phase_8,107,9999,9999,9999,1157060692
47,5,22,Ticks_Phase_8,108,9999,9999,9999,1157860476
47,5,22,Ticks_Phase_8,109,9999,9999,9999,1158660168
47,5,22,Ticks_Phase_8,110,9999,9999,9999,1159460944
47,5,22,Ticks_Phase_8,111,9999,9999,9999,1160260728
47,5,22,Ticks_Phase_8,112,9999,9999,9999,1161060464
47,5,22,Ticks_Phase_8,113,9999,9999,9999,1161860184
47,5,22,Ticks_Phase_8,114,9999,9999,9999,1162740828
47,5,22,Ticks_Phase_8,115,9999,9999,9999,1163540556
47,5,22,Ticks_Phase_8,116,9999,9999,9999,1164340340
47,5,22,Ticks_Phase_8,117,9999,9999,9999,1165141100
47,5,22,Ticks_Phase_8,118,9999,9999,9999,1165940836
47,5,22,Ticks_Phase_8,119,9999,9999,9999,1166740548
47,5,22,Ticks_Phase_8,120,9999,9999,9999,1167540332
47,5,22,Ticks_Phase_8,121,9999,9999,9999,1168341092
47,5,22,Ticks_Phase_8,122,9999,9999,9999,1169140804
47,5,22,Ticks_Phase_8,123,9999,9999,9999,1169940588
47,5,22,Ticks_Phase_8,124,9999,9999,9999,1170740300
47,5,22,Ticks_Phase_8,125,9999,9999,9999,1171541060
47,5,22,Ticks_Phase_8,126,9999,9999,9999,1172340796
47,5,22,Ticks_Phase_8,127,9999,9999,9999,1173140584
47,5,22,Ticks_Phase_8,128,9999,9999,9999,1173940296
47,5,22,Ticks_Phase_8,129,9999,9999,9999,1174741056
47,5,22,Ticks_Phase_8,130,9999,9999,9999,1175540840
47,5,22,Ticks_Phase_8,131,9999,9999,9999,1176500296
47,5,22,Ticks_Phase_8,132,9999,9999,9999,1177301080
47,5,22,Ticks_Phase_8,133,9999,9999,9999,1178100812
47,5,22,Ticks_Phase_8,134,9999,9999,9999,1178900596
47,5,22,Ticks_Phase_8,135,9999,9999,9999,1179700308
47,5,22,Ticks_Phase_8,136,9999,9999,9999,1180501084
47,5,22,Ticks_Phase_8,137,9999,9999,9999,1181300820
47,5,22,Ticks_Phase_8,138,9999,9999,9999,1182100604
47,5,22,Ticks_Phase_8,139,9999,9999,9999,1182900316
47,5,22,Ticks_Phase_8,140,9999,9999,9999,1183701072
47,5,22,Ticks_Phase_8,141,9999,9999,9999,1184500860
47,5,22,Ticks_Phase_8,142,9999,9999,9999,1185300556
47,5,22,Ticks_Phase_8,143,9999,9999,9999,1186100284
47,5,22,Ticks_Phase_8,144,9999,9999,9999,1186901116
47,5,22,Ticks_Phase_8,145,9999,9999,9999,1187700836
47,5,22,Ticks_Phase_8,146,9999,9999,9999,1188500564
47,5,22,Ticks_Phase_8,147,9999,9999,9999,1189300348
47,5,22,Ticks_Phase_8,148,9999,9999,9999,1190101108
47,5,22,Ticks_Phase_8,149,9999,9999,9999,1190900820
47,5,22,Ticks_Phase_8,150,9999,9999,9999,1191540804
47,5,22,Ticks_Phase_8,151,9999,9999,9999,1192340572
47,5,22,Ticks_Phase_8,152,9999,9999,9999,1193140284
47,5,22,Ticks_Phase_8,153,9999,9999,9999,1193941096
47,5,22,Ticks_Phase_8,154,9999,9999,9999,1194740828
47,5,22,Ticks_Phase_8,155,9999,9999,9999,1195540592
47,5,22,Ticks_Phase_8,156,9999,9999,9999,1196340320
47,5,22,Ticks_Phase_8,157,9999,9999,9999,1197141064
47,5,22,Ticks_Phase_8,158,9999,9999,9999,1197940816
47,5,22,Ticks_Phase_8,159,9999,9999,9999,1198740604
47,5,22,Ticks_Phase_8,160,9999,9999,9999,1199540316
47,5,22,Ticks_Phase_8,161,9999,9999,9999,1200341072
47,5,22,Ticks_Phase_8,162,9999,9999,9999,1201140860
47,5,22,Ticks_Phase_8,163,9999,9999,9999,1201940556
47,5,22,Ticks_Phase_8,164,9999,9999,9999,1202740292
47,5,22,Ticks_Phase_8,165,9999,9999,9999,1203541116
47,5,22,Ticks_Phase_8,166,9999,9999,9999,1204340796
47,5,22,Ticks_Phase_8,167,9999,9999,9999,1205140564
47,5,22,Ticks_Phase_8,168,9999,9999,9999,1205940352
47,5,22,Ticks_Phase_8,169,9999,9999,9999,1206741108
47,6,23,Ticks_Phase_5,0,5,42,127,1218918772
47,6,23,Ticks_Phase_5,1,5,42,127,1219418604
47,6,23,Ticks_Phase_5,2,1,48,31,1219851248
47,6,23,Ticks_Phase_5,3,5,42,127,1219919504
47,6,23,Ticks_Phase_5,4,1,48,47,1220355876
47,6,23,Ticks_Phase_5,5,5,42,127,1220418972
47,6,23,Ticks_Phase_5,6,1,48,48,1220892164
47,6,23,Ticks_Phase_5,7,5,42,127,1220918784
47,6,23,Ticks_Phase_5,8,1,48,46,1221366312
47,6,23,Ticks_Phase_5,9,5,42,127,1221419516
47,6,23,Ticks_Phase_5,10,1,48,51,1221881208
47,6,23,Ticks_Phase_5,11,5,42,127,1221919056
47,6,23,Ticks_Phase_5,12,1,48,49,1222408980
47,6,23,Ticks_Phase_5,13,5,42,127,1222418744
47,6,23,Ticks_Phase_5,14,1,48,47,1222913084
47,6,23,Ticks_Phase_5,15,5,42,127,1222918508
47,6,23,Ticks_Phase_5,16,1,48,46,1223412616
47,6,23,Ticks_Phase_5,17,5,42,127,1223419168
47,6,23,Ticks_Phase_5,18,1,48,52,1223917496
47,6,23,Ticks_Phase_5,19,5,42,127,1223919304
47,6,23,Ticks_Phase_5,20,1,48,47,1224399496
47,6,23,Ticks_Phase_5,21,5,42,127,1224418548
47,6,23,Ticks_Phase_5,22,1,48,54,1224900232
47,6,23,Ticks_Phase_5,23,5,42,127,1224919356
47,6,23,Ticks_Phase_5,24,1,48,50,1225399844
47,6,23,Ticks_Phase_5,25,5,42,127,1225419268
47,6,23,Ticks_Phase_5,26,1,48,52,1225902152
47,6,23,Ticks_Phase_5,27,5,42,127,1225918884
47,6,23,Ticks_Phase_5,28,1,48,52,1226395992
47,6,23,Ticks_Phase_5,29,5,42,127,1226418720
47,6,23,Ticks_Phase_5,30,5,42,127,1226919168
47,6,23,Ticks_Phase_5,31,1,48,50,1226920132
47,6,23,Ticks_Phase_5,32,1,48,47,1227398232
47,6,23,Ticks_Phase_5,33,5,42,127,1227419148
47,6,23,Ticks_Phase_5,34,1,48,43,1227902924
47,6,23,Ticks_Phase_5,35,5,42,127,1227918612
47,6,23,Ticks_Phase_5,36,1,48,49,1228392132
47,6,23,Ticks_Phase_5,37,5,42,127,1228418376
47,6,23,Ticks_Phase_5,38,1,48,48,1228880564
47,6,23,Ticks_Phase_5,39,5,42,127,1228919184
47,6,23,Ticks_Phase_5,40,1,48,48,1229367972
47,6,23,Ticks_Phase_5,41,5,42,127,1229418800
47,6,23,Ticks_Phase_5,42,1,48,49,1229886688
47,6,23,Ticks_Phase_5,43,5,42,127,1229918612
47,6,23,Ticks_Phase_5,44,1,48,49,1230401020
47,6,23,Ticks_Phase_5,45,5,42,127,1230419248
47,6,23,Ticks_Phase_5,46,1,48,42,1230897868
47,6,23,Ticks_Phase_5,47,5,42,127,1230919236
47,6,23,Ticks_Phase_5,48,1,48,46,1231400916
47,6,23,Ticks_Phase_5,49,5,42,127,1231418624
47,6,23,Ticks_Phase_5,50,1,48,46,1231901132
47,6,23,Ticks_Phase_5,51,5,42,127,1231918464
47,6,23,Ticks_Phase_5,52,1,48,42,1232384564
47,6,23,Ticks_Phase_5,53,5,42,127,1232419196
47,6,23,Ticks_Phase_5,54,1,48,41,1232887036
47,6,23,Ticks_Phase_5,55,5,42,127,1232919036
47,6,23,Ticks_Phase_5,56,1,48,37,1233375404
47,6,23,Ticks_Phase_5,57,5,42,127,1233418576
47,6,23,Ticks_Phase_5,58,1,48,41,1233907316
47,6,23,Ticks_Phase_5,59,5,42,127,1233909052
47,6,23,Ticks_Phase_5,60,1,48,50,1234381524
47,6,23,Ticks_Phase_5,61,5,42,127,1234409112
47,6,23,Ticks_Phase_5,62,1,48,48,1234897024
47,6,23,Ticks_Phase_5,63,5,42,127,1234908728
47,6,23,Ticks_Phase_5,64,1,48,39,1235400076
47,6,23,Ticks_Phase_5,65,5,42,127,1235409164
47,6,23,Ticks_Phase_5,66,1,48,48,1235888308
47,6,23,Ticks_Phase_5,67,5,42,127,1235909148
47,6,23,Ticks_Phase_5,68,1,48,46,1236401172
47,6,23,Ticks_Phase_5,69,5,42,127,1236408616
47,6,23,Ticks_Phase_5,70,1,48,46,1236876452
47,6,23,Ticks_Phase_5,71,5,42,127,1236909424
47,6,23,Ticks_Phase_5,72,1,48,43,1237362348
47,6,23,Ticks_Phase_5,73,5,42,127,1237419520
47,6,23,Ticks_Phase_5,74,1,48,44,1237887728
47,6,23,Ticks_Phase_5,75,5,42,127,1237919060
47,6,23,Ticks_Phase_5,76,1,48,40,1238411152
47,6,23,Ticks_Phase_5,77,5,42,127,1238419044
47,6,23,Ticks_Phase_5,78,1,48,45,1238904024
47,6,23,Ticks_Phase_5,79,5,42,127,1238918512
47,6,23,Ticks_Phase_5,80,1,48,25,1239404908
47,6,23,Ticks_Phase_5,81,5,42,127,1239419392
47,6,23,Ticks_Phase_5,82,1,48,35,1239896196
47,6,23,Ticks_Phase_5,83,5,42,127,1239918860
47,6,23,Ticks_Phase_5,84,1,48,42,1240381720
47,6,23,Ticks_Phase_5,85,5,42,127,1240418772
47,6,23,Ticks_Phase_5,86,1,48,45,1240887928
47,6,23,Ticks_Phase_5,87,5,42,127,1240919404
47,6,23,Ticks_Phase_5,88,1,48,39,1241375696
47,6,23,Ticks_Phase_5,89,5,42,127,1241419096
47,6,23,Ticks_Phase_5,90,1,48,44,1241879436
47,6,23,Ticks_Phase_5,91,5,42,127,1241919004
47,6,23,Ticks_Phase_5,92,1,48,47,1242410428
47,6,23,Ticks_Phase_5,93,5,42,127,1242418768
47,6,23,Ticks_Phase_5,94,1,48,48,1242903896
47,6,23,Ticks_Phase_5,95,5,42,127,1242928492
47,6,23,Ticks_Phase_5,96,1,48,51,1243417896
47,6,23,Ticks_Phase_5,97,5,42,127,1243429228
47,6,23,Ticks_Phase_5,98,1,48,46,1243919300
47,6,23,Ticks_Phase_5,99,5,42,127,1243928916
47,6,23,Ticks_Phase_5,100,1,48,49,1244403860
47,6,23,Ticks_Phase_5,101,5,42,127,1244428900
47,6,23,Ticks_Phase_5,102,1,48,47,1244924064
47,6,23,Ticks_Phase_5,103,5,42,127,1244929784
47,6,23,Ticks_Phase_5,104,1,48,46,1245409076
47,6,23,Ticks_Phase_5,105,5,42,127,1245429024
47,6,23,Ticks_Phase_5,106,1,48,48,1245896864
47,6,23,Ticks_Phase_5,107,5,42,127,1245928864
47,6,23,Ticks_Phase_5,108,1,48,43,1246410776
47,6,23,Ticks_Phase_5,109,5,42,127,1246428628
47,6,23,Ticks_Phase_5,110,1,48,48,1246895776
47,6,23,Ticks_Phase_5,111,5,42,127,1246929288
47,6,23,Ticks_Phase_5,112,1,48,43,1247374796
47,6,23,Ticks_Phase_5,113,5,42,127,1247428972
47,6,23,Ticks_Phase_5,114,1,48,47,1247878164
47,6,23,Ticks_Phase_5,115,5,42,127,1247928884
47,6,23,Ticks_Phase_5,116,1,48,41,1248353728
47,6,23,Ticks_Phase_5,117,5,42,127,1248429620
47,6,23,Ticks_Phase_5,118,1,48,39,1248892660
47,6,23,Ticks_Phase_5,119,5,42,127,1248939720
47,6,23,Ticks_Phase_5,120,1,48,49,1249384780
47,6,23,Ticks_Phase_5,121,5,42,127,1249439036
47,6,23,Ticks_Phase_5,122,1,48,43,1249922884
47,6,23,Ticks_Phase_5,123,5,42,127,1249938796
47,6,23,Ticks_Phase_5,124,1,48,48,1250397944
47,6,23,Ticks_Phase_5,125,5,42,127,1250438860
47,6,23,Ticks_Phase_5,126,1,48,48,1250919272
47,6,23,Ticks_Phase_5,127,5,42,127,1250958696
47,6,23,Ticks_Phase_5,128,1,48,49,1251417148
47,6,23,Ticks_Phase_5,129,5,42,127,1251458528
47,6,23,Ticks_Phase_5,130,1,48,45,1251949656
47,6,23,Ticks_Phase_5,131,5,42,127,1251959264
47,6,23,Ticks_Phase_5,132,1,48,48,1252442496
47,6,23,Ticks_Phase_5,133,5,42,127,1252458880
47,6,23,Ticks_Phase_5,134,1,48,40,1252910808
47,6,23,Ticks_Phase_5,135,5,42,127,1252958788
47,6,23,Ticks_Phase_5,136,1,48,49,1253446732
47,6,23,Ticks_Phase_5,137,5,42,127,1253459572
47,6,23,Ticks_Phase_5,138,1,48,47,1253957988
47,6,23,Ticks_Phase_5,139,5,42,127,1253959864
47,6,23,Ticks_Phase_5,140,1,48,44,1254437960
47,6,23,Ticks_Phase_5,141,5,42,127,1254458728
47,6,23,Ticks_Phase_5,142,1,48,46,1254911060
47,6,23,Ticks_Phase_5,143,5,42,127,1254958492
47,6,23,Ticks_Phase_5,144,5,42,127,1255459304
47,6,23,Ticks_Phase_5,145,1,48,46,1255461168
47,6,23,Ticks_Phase_5,146,1,48,49,1255937248
47,6,23,Ticks_Phase_5,147,5,42,127,1255958988
47,6,23,Ticks_Phase_5,148,1,48,44,1256417912
47,6,23,Ticks_Phase_5,149,5,42,127,1256458752
47,6,23,Ticks_Phase_5,150,1,48,44,1256915568
47,6,23,Ticks_Phase_5,151,5,42,127,1256959412
47,6,23,Ticks_Phase_5,152,1,48,39,1257386276
47,6,23,Ticks_Phase_5,153,5,42,127,1257459028
47,6,23,Ticks_Phase_5,154,1,48,43,1257876448
47,6,23,Ticks_Phase_5,155,5,42,127,1257958716
47,6,23,Ticks_Phase_5,156,1,48,50,1258392020
47,6,23,Ticks_Phase_5,157,5,42,127,1258458480
47,6,23,Ticks_Phase_5,158,1,48,52,1258919272
47,6,23,Ticks_Phase_5,159,5,42,127,1258959364
47,6,23,Ticks_Phase_5,160,1,48,48,1259424796
47,6,23,Ticks_Phase_5,161,5,42,127,1259438536
47,6,23,Ticks_Phase_5,162,1,48,50,1259911684
47,6,23,Ticks_Phase_5,163,5,42,127,1259939420
47,6,23,Ticks_Phase_5,164,1,48,50,1260402384
47,6,23,Ticks_Phase_5,165,5,42,127,1260438960
47,6,23,Ticks_Phase_5,166,1,48,50,1260889016
47,6,23,Ticks_Phase_5,167,5,42,127,1260938500
47,6,23,Ticks_Phase_5,168,1,48,49,1261359948
47,6,23,Ticks_Phase_5,169,5,42,127,1261439456
47,6,23,Ticks_Phase_5,170,1,48,48,1261875128
47,6,23,Ticks_Phase_5,171,5,42,127,1261939148
47,6,23,Ticks_Phase_5,172,1,48,49,1262402980
47,6,23,Ticks_Phase_5,173,5,42,127,1262438684
47,6,23,Ticks_Phase_5,174,1,48,39,1262912400
47,6,23,Ticks_Phase_5,175,5,42,127,1262938424
47,6,23,Ticks_Phase_5,176,1,48,47,1263385348
47,6,23,Ticks_Phase_5,177,5,42,127,1263439380
47,6,23,Ticks_Phase_5,178,1,48,45,1263868128
47,6,23,Ticks_Phase_5,179,5,42,127,1263938992
47,6,23,Ticks_Phase_5,180,1,48,50,1264414308
47,6,23,Ticks_Phase_5,181,5,42,127,1264438608
47,6,23,Ticks_Phase_5,182,1,48,54,1264932272
47,6,23,Ticks_Phase_5,183,5,42,127,1264939492
47,6,23,Ticks_Phase_5,184,1,48,50,1265401556
47,6,23,Ticks_Phase_5,185,5,42,127,1265439032
47,6,23,Ticks_Phase_5,186,1,48,49,1265877508
47,6,23,Ticks_Phase_5,187,5,42,127,1265938792
47,6,23,Ticks_Phase_5,188,1,48,44,1266400260
47,6,23,Ticks_Phase_5,189,5,42,127,1266438628
47,6,23,Ticks_Phase_5,190,1,48,54,1266901368
47,6,23,Ticks_Phase_5,191,5,42,127,1266939516
47,6,23,Ticks_Phase_5,192,1,48,50,1267374392
47,6,23,Ticks_Phase_5,193,5,42,127,1267388660
47,6,23,Ticks_Phase_5,194,1,48,50,1267836780
47,6,23,Ticks_Phase_5,195,5,42,127,1267888572
47,6,23,Ticks_Phase_5,196,1,48,48,1268259924
47,6,23,Ticks_Phase_5,197,5,42,127,1268389216
47,6,23,Ticks_Phase_5,198,1,48,53,1268790688
47,6,23,Ticks_Phase_5,199,5,42,127,1268888828
47,6,23,Ticks_Phase_5,200,1,48,49,1269293888
47,6,23,Ticks_Phase_5,201,5,42,127,1269388668
47,6,23,Ticks_Phase_5,202,1,48,48,1269861300
47,6,23,Ticks_Phase_5,203,5,42,127,1269889268
47,6,23,Ticks_Phase_5,204,1,48,48,1270371176
47,6,23,Ticks_Phase_5,205,5,42,127,1270389328
47,6,23,Ticks_Phase_5,206,1,48,47,1270873680
47,6,23,Ticks_Phase_5,207,5,42,127,1270889016
47,6,23,Ticks_Phase_5,208,5,42,127,1271388712
47,6,23,Ticks_Phase_5,209,1,48,44,1271390124
47,6,23,Ticks_Phase_5,210,5,42,127,1271889272
47,6,23,Ticks_Phase_5,211,1,48,50,1271892468
47,6,23,Ticks_Phase_5,212,1,48,45,1272375740
47,6,23,Ticks_Phase_5,213,5,42,127,1272389180
47,6,23,Ticks_Phase_5,214,5,42,127,1272888576
47,6,23,Ticks_Phase_5,215,1,48,51,1272890588
47,6,23,Ticks_Phase_5,216,1,48,50,1273364032
47,6,23,Ticks_Phase_5,217,5,42,127,1273389528
47,6,23,Ticks_Phase_5,218,1,48,46,1273869044
47,6,23,Ticks_Phase_5,219,5,42,127,1273899324
47,6,23,Ticks_Phase_5,220,1,48,52,1274386244
47,6,23,Ticks_Phase_5,221,5,42,127,1274399088
47,6,23,Ticks_Phase_5,222,1,48,46,1274882568
47,6,23,Ticks_Phase_5,223,5,42,127,1274898852
47,6,23,Ticks_Phase_5,224,1,48,48,1275342192
47,6,23,Ticks_Phase_5,225,5,42,127,1275398392
47,6,23,Ticks_Phase_5,226,1,48,48,1275835960
47,6,23,Ticks_Phase_5,227,5,42,127,1275949436
47,6,23,Ticks_Phase_5,228,5,42,127,1276459332
47,6,23,Ticks_Phase_5,229,1,48,48,1276477960
47,6,23,Ticks_Phase_5,230,1,48,45,1276932992
47,6,23,Ticks_Phase_5,231,5,42,127,1276959236
47,6,23,Ticks_Phase_5,232,1,48,38,1277328596
47,6,23,Ticks_Phase_5,233,5,42,127,1277458760
47,6,23,Ticks_Phase_5,234,1,48,46,1277941960
47,6,23,Ticks_Phase_5,235,5,42,127,1277958388
47,6,23,Ticks_Phase_5,236,1,48,31,1278431536
47,6,23,Ticks_Phase_5,237,5,42,127,1278459196
47,6,23,Ticks_Phase_5,238,1,48,41,1278934660
47,6,23,Ticks_Phase_5,239,5,42,127,1278958960
47,6,23,Ticks_Phase_5,240,1,48,38,1279425064
47,6,23,Ticks_Phase_5,241,5,42,127,1279458652
47,6,23,Ticks_Phase_5,242,1,48,46,1279926860
47,6,23,Ticks_Phase_5,243,5,42,127,1279959388
47,6,23,Ticks_Phase_5,244,1,48,46,1280430664
47,6,23,Ticks_Phase_5,245,5,42,127,1280459224
47,6,23,Ticks_Phase_5,246,1,48,47,1280917024
47,6,23,Ticks_Phase_5,247,5,42,127,1280958984
47,6,23,Ticks_Phase_5,248,1,48,38,1281424264
47,6,23,Ticks_Phase_5,249,5,42,127,1281458452
47,6,23,Ticks_Phase_5,250,1,48,47,1281903136
47,6,23,Ticks_Phase_5,251,5,42,127,1281959260
47,6,23,Ticks_Phase_5,252,1,48,50,1282427468
47,6,23,Ticks_Phase_5,253,5,42,127,1282458872
47,6,23,Ticks_Phase_5,254,1,48,48,1282920336
47,6,23,Ticks_Phase_5,255,5,42,127,1282958784
47,6,23,Ticks_Phase_5,256,1,48,51,1283389972
47,6,23,Ticks_Phase_5,257,5,42,127,1283458544
47,6,23,Ticks_Phase_5,258,1,48,45,1283940304
47,6,23,Ticks_Phase_5,259,5,42,127,1283959284
47,6,23,Ticks_Phase_5,260,1,48,48,1284427544
47,6,23,Ticks_Phase_5,261,5,42,127,1284559156
47,6,23,Ticks_Phase_5,262,5,42,127,1285059016
47,6,23,Ticks_Phase_5,263,1,48,37,1285143012
47,6,23,Ticks_Phase_5,264,5,42,127,1285558924
47,6,23,Ticks_Phase_5,265,1,48,41,1285583756
47,6,23,Ticks_Phase_5,266,1,48,46,1285944720
47,6,23,Ticks_Phase_5,267,5,42,127,1286059340
47,6,23,Ticks_Phase_5,268,1,48,48,1286496564
47,6,23,Ticks_Phase_5,269,5,42,127,1286559044
47,6,23,Ticks_Phase_5,270,1,48,38,1287027032
47,6,23,Ticks_Phase_5,271,5,42,127,1287059032
47,6,23,Ticks_Phase_5,272,1,48,46,1287521620
47,6,23,Ticks_Phase_5,273,5,42,127,1287558644
47,6,23,Ticks_Phase_5,274,1,48,40,1288008552
47,6,23,Ticks_Phase_5,275,5,42,127,1288059232
47,6,23,Ticks_Phase_5,276,1,48,39,1288531456
47,6,23,Ticks_Phase_5,277,5,42,127,1288558920
47,6,23,Ticks_Phase_5,278,1,48,40,1289034056
47,6,23,Ticks_Phase_5,279,5,42,127,1289058752
47,6,23,Ticks_Phase_5,280,1,48,38,1289531800
47,6,23,Ticks_Phase_5,281,5,42,127,1289559316
47,6,23,Ticks_Phase_5,282,1,48,41,1290037264
47,6,23,Ticks_Phase_5,283,5,42,127,1290059152
47,6,23,Ticks_Phase_5,284,1,48,42,1290516804
47,6,23,Ticks_Phase_5,285,5,42,127,1290558988
47,6,23,Ticks_Phase_5,286,1,48,45,1291031312
47,6,23,Ticks_Phase_5,287,5,42,127,1291058676
47,6,23,Ticks_Phase_5,288,1,48,40,1291522760
47,6,23,Ticks_Phase_5,289,5,42,127,1291559264
47,6,23,Ticks_Phase_5,290,1,48,43,1292015400
47,6,23,Ticks_Phase_5,291,5,42,127,1292058952
47,6,23,Ticks_Phase_5,292,1,48,36,1292525496
47,6,23,Ticks_Phase_5,293,5,42,127,1292558788
47,6,23,Ticks_Phase_5,294,1,48,40,1293042716
47,6,23,Ticks_Phase_5,295,5,42,127,1293058400
47,6,23,Ticks_Phase_5,296,1,48,38,1293539860
47,6,23,Ticks_Phase_5,297,5,42,127,1293559284
47,6,23,Ticks_Phase_5,298,5,42,127,1293958856
47,6,23,Ticks_Phase_5,299,1,48,46,1294037244
47,6,23,Ticks_Phase_5,300,1,48,44,1294439716
47,6,23,Ticks_Phase_5,301,5,42,127,1294459136
47,6,23,Ticks_Phase_5,302,1,48,47,1294856016
47,6,23,Ticks_Phase_5,303,5,42,127,1294958960
47,6,23,Ticks_Phase_5,304,1,48,39,1295395616
47,6,23,Ticks_Phase_5,305,5,42,127,1295458660
47,6,23,Ticks_Phase_5,306,1,48,36,1295942636
47,6,23,Ticks_Phase_5,307,5,42,127,1295959372
47,6,23,Ticks_Phase_5,308,1,48,33,1296412596
47,6,23,Ticks_Phase_5,309,5,42,127,1296459060
47,6,23,Ticks_Phase_5,310,1,48,41,1296936020
47,6,23,Ticks_Phase_5,311,5,42,127,1296958748
47,6,23,Ticks_Phase_5,312,1,48,43,1297423580
47,6,23,Ticks_Phase_5,313,5,42,127,1297458732
47,6,23,Ticks_Phase_5,314,1,48,46,1297939676
47,6,23,Ticks_Phase_5,315,5,42,127,1297959248
47,6,23,Ticks_Phase_5,316,1,48,41,1298432020
47,6,23,Ticks_Phase_5,317,5,42,127,1298458936
47,6,23,Ticks_Phase_5,318,1,48,46,1298914852
47,6,23,Ticks_Phase_5,319,5,42,127,1298958700
47,6,23,Ticks_Phase_5,320,1,48,34,1299447128
47,6,23,Ticks_Phase_5,321,5,42,127,1299458536
47,6,23,Ticks_Phase_5,322,1,48,44,1299911836
47,6,23,Ticks_Phase_5,323,5,42,127,1299959124
47,6,23,Ticks_Phase_5,324,1,48,43,1300396928
47,6,23,Ticks_Phase_5,325,5,42,127,1300458736
47,6,23,Ticks_Phase_5,326,1,48,37,1300874368
47,6,23,Ticks_Phase_5,327,5,42,127,1300958648
47,6,23,Ticks_Phase_5,328,1,48,42,1301399000
47,6,23,Ticks_Phase_5,329,5,42,127,1301459532
47,6,23,Ticks_Phase_5,330,1,48,42,1301879964
47,6,23,Ticks_Phase_5,331,5,42,127,1301959000
47,6,23,Ticks_Phase_5,332,1,48,42,1302392980
47,6,23,Ticks_Phase_5,333,5,42,127,1302458688
47,6,23,Ticks_Phase_5,334,1,48,38,1302895580
47,6,23,Ticks_Phase_5,335,5,42,127,1302958600
47,6,23,Ticks_Phase_5,336,1,48,45,1303413996
47,6,23,Ticks_Phase_5,337,5,42,127,1303459184
47,6,23,Ticks_Phase_5,0,9999,9999,9999,1218916408
47,6,23,Ticks_Phase_5,1,9999,9999,9999,1219416168
47,6,23,Ticks_Phase_5,2,9999,9999,9999,1219916920
47,6,23,Ticks_Phase_5,3,9999,9999,9999,1220416608
47,6,23,Ticks_Phase_5,4,9999,9999,9999,1220916348
47,6,23,Ticks_Phase_5,5,9999,9999,9999,1221417084
47,6,23,Ticks_Phase_5,6,9999,9999,9999,1221916768
47,6,23,Ticks_Phase_5,7,9999,9999,9999,1222416460
47,6,23,Ticks_Phase_5,8,9999,9999,9999,1222916220
47,6,23,Ticks_Phase_5,9,9999,9999,9999,1223416956
47,6,23,Ticks_Phase_5,10,9999,9999,9999,1223916652
47,6,23,Ticks_Phase_5,11,9999,9999,9999,1224416336
47,6,23,Ticks_Phase_5,12,9999,9999,9999,1224917072
47,6,23,Ticks_Phase_5,13,9999,9999,9999,1225416832
47,6,23,Ticks_Phase_5,14,9999,9999,9999,1225916520
47,6,23,Ticks_Phase_5,15,9999,9999,9999,1226416212
47,6,23,Ticks_Phase_5,16,9999,9999,9999,1226916956
47,6,23,Ticks_Phase_5,17,9999,9999,9999,1227416636
47,6,23,Ticks_Phase_5,18,9999,9999,9999,1227916400
47,6,23,Ticks_Phase_5,19,9999,9999,9999,1228416088
47,6,23,Ticks_Phase_5,20,9999,9999,9999,1228916824
47,6,23,Ticks_Phase_5,21,9999,9999,9999,1229416512
47,6,23,Ticks_Phase_5,22,9999,9999,9999,1229916252
47,6,23,Ticks_Phase_5,23,9999,9999,9999,1230416960
47,6,23,Ticks_Phase_5,24,9999,9999,9999,1230916724
47,6,23,Ticks_Phase_5,25,9999,9999,9999,1231416412
47,6,23,Ticks_Phase_5,26,9999,9999,9999,1231916100
47,6,23,Ticks_Phase_5,27,9999,9999,9999,1232416836
47,6,23,Ticks_Phase_5,28,9999,9999,9999,1232916600
47,6,23,Ticks_Phase_5,29,9999,9999,9999,1233416288
47,6,23,Ticks_Phase_5,30,9999,9999,9999,1233906788
47,6,23,Ticks_Phase_5,31,9999,9999,9999,1234406528
47,6,23,Ticks_Phase_5,32,9999,9999,9999,1234906216
47,6,23,Ticks_Phase_5,33,9999,9999,9999,1235406952
47,6,23,Ticks_Phase_5,34,9999,9999,9999,1235906640
47,6,23,Ticks_Phase_5,35,9999,9999,9999,1236406328
47,6,23,Ticks_Phase_5,36,9999,9999,9999,1236907136
47,6,23,Ticks_Phase_5,37,9999,9999,9999,1237417084
47,6,23,Ticks_Phase_5,38,9999,9999,9999,1237916772
47,6,23,Ticks_Phase_5,39,9999,9999,9999,1238416460
47,6,23,Ticks_Phase_5,40,9999,9999,9999,1238916224
47,6,23,Ticks_Phase_5,41,9999,9999,9999,1239416956
47,6,23,Ticks_Phase_5,42,9999,9999,9999,1239916648
47,6,23,Ticks_Phase_5,43,9999,9999,9999,1240416336
47,6,23,Ticks_Phase_5,44,9999,9999,9999,1240917120
47,6,23,Ticks_Phase_5,45,9999,9999,9999,1241416808
47,6,23,Ticks_Phase_5,46,9999,9999,9999,1241916496
47,6,23,Ticks_Phase_5,47,9999,9999,9999,1242416184
47,6,23,Ticks_Phase_5,48,9999,9999,9999,1242926208
47,6,23,Ticks_Phase_5,49,9999,9999,9999,1243426940
47,6,23,Ticks_Phase_5,50,9999,9999,9999,1243926628
47,6,23,Ticks_Phase_5,51,9999,9999,9999,1244426316
47,6,23,Ticks_Phase_5,52,9999,9999,9999,1244927052
47,6,23,Ticks_Phase_5,53,9999,9999,9999,1245426812
47,6,23,Ticks_Phase_5,54,9999,9999,9999,1245926504
47,6,23,Ticks_Phase_5,55,9999,9999,9999,1246426192
47,6,23,Ticks_Phase_5,56,9999,9999,9999,1246926928
47,6,23,Ticks_Phase_5,57,9999,9999,9999,1247426688
47,6,23,Ticks_Phase_5,58,9999,9999,9999,1247926376
47,6,23,Ticks_Phase_5,59,9999,9999,9999,1248427112
47,6,23,Ticks_Phase_5,60,9999,9999,9999,1248937060
47,6,23,Ticks_Phase_5,61,9999,9999,9999,1249436748
47,6,23,Ticks_Phase_5,62,9999,9999,9999,1249936512
47,6,23,Ticks_Phase_5,63,9999,9999,9999,1250436200
47,6,23,Ticks_Phase_5,64,9999,9999,9999,1250956408
47,6,23,Ticks_Phase_5,65,9999,9999,9999,1251456096
47,6,23,Ticks_Phase_5,66,9999,9999,9999,1251956832
47,6,23,Ticks_Phase_5,67,9999,9999,9999,1252456520
47,6,23,Ticks_Phase_5,68,9999,9999,9999,1252956256
47,6,23,Ticks_Phase_5,69,9999,9999,9999,1253456988
47,6,23,Ticks_Phase_5,70,9999,9999,9999,1253956684
47,6,23,Ticks_Phase_5,71,9999,9999,9999,1254456440
47,6,23,Ticks_Phase_5,72,9999,9999,9999,1254956128
47,6,23,Ticks_Phase_5,73,9999,9999,9999,1255456872
47,6,23,Ticks_Phase_5,74,9999,9999,9999,1255956552
47,6,23,Ticks_Phase_5,75,9999,9999,9999,1256456316
47,6,23,Ticks_Phase_5,76,9999,9999,9999,1256957052
47,6,23,Ticks_Phase_5,77,9999,9999,9999,1257456740
47,6,23,Ticks_Phase_5,78,9999,9999,9999,1257956432
47,6,23,Ticks_Phase_5,79,9999,9999,9999,1258456192
47,6,23,Ticks_Phase_5,80,9999,9999,9999,1258956928
47,6,23,Ticks_Phase_5,81,9999,9999,9999,1259436100
47,6,23,Ticks_Phase_5,82,9999,9999,9999,1259936836
47,6,23,Ticks_Phase_5,83,9999,9999,9999,1260436600
47,6,23,Ticks_Phase_5,84,9999,9999,9999,1260936288
47,6,23,Ticks_Phase_5,85,9999,9999,9999,1261437024
47,6,23,Ticks_Phase_5,86,9999,9999,9999,1261936712
47,6,23,Ticks_Phase_5,87,9999,9999,9999,1262436472
47,6,23,Ticks_Phase_5,88,9999,9999,9999,1262936136
47,6,23,Ticks_Phase_5,89,9999,9999,9999,1263436872
47,6,23,Ticks_Phase_5,90,9999,9999,9999,1263936632
47,6,23,Ticks_Phase_5,91,9999,9999,9999,1264436320
47,6,23,Ticks_Phase_5,92,9999,9999,9999,1264937056
47,6,23,Ticks_Phase_5,93,9999,9999,9999,1265436744
47,6,23,Ticks_Phase_5,94,9999,9999,9999,1265936508
47,6,23,Ticks_Phase_5,95,9999,9999,9999,1266436196
47,6,23,Ticks_Phase_5,96,9999,9999,9999,1266936932
47,6,23,Ticks_Phase_5,97,9999,9999,9999,1267386444
47,6,23,Ticks_Phase_5,98,9999,9999,9999,1267886208
47,6,23,Ticks_Phase_5,99,9999,9999,9999,1268386928
47,6,23,Ticks_Phase_5,100,9999,9999,9999,1268886616
47,6,23,Ticks_Phase_5,101,9999,9999,9999,1269386308
47,6,23,Ticks_Phase_5,102,9999,9999,9999,1269887056
47,6,23,Ticks_Phase_5,103,9999,9999,9999,1270386816
47,6,23,Ticks_Phase_5,104,9999,9999,9999,1270886504
47,6,23,Ticks_Phase_5,105,9999,9999,9999,1271386176
47,6,23,Ticks_Phase_5,106,9999,9999,9999,1271886912
47,6,23,Ticks_Phase_5,107,9999,9999,9999,1272386668
47,6,23,Ticks_Phase_5,108,9999,9999,9999,1272886364
47,6,23,Ticks_Phase_5,109,9999,9999,9999,1273387092
47,6,23,Ticks_Phase_5,110,9999,9999,9999,1273897040
47,6,23,Ticks_Phase_5,111,9999,9999,9999,1274396800
47,6,23,Ticks_Phase_5,112,9999,9999,9999,1274896492
47,6,23,Ticks_Phase_5,113,9999,9999,9999,1275396176
47,6,23,Ticks_Phase_5,114,9999,9999,9999,1275947076
47,6,23,Ticks_Phase_5,115,9999,9999,9999,1276457044
47,6,23,Ticks_Phase_5,116,9999,9999,9999,1276956800
47,6,23,Ticks_Phase_5,117,9999,9999,9999,1277456472
47,6,23,Ticks_Phase_5,118,9999,9999,9999,1277956176
47,6,23,Ticks_Phase_5,119,9999,9999,9999,1278456912
47,6,23,Ticks_Phase_5,120,9999,9999,9999,1278956600
47,6,23,Ticks_Phase_5,121,9999,9999,9999,1279456364
47,6,23,Ticks_Phase_5,122,9999,9999,9999,1279957100
47,6,23,Ticks_Phase_5,123,9999,9999,9999,1280456788
47,6,23,Ticks_Phase_5,124,9999,9999,9999,1280956476
47,6,23,Ticks_Phase_5,125,9999,9999,9999,1281456236
47,6,23,Ticks_Phase_5,126,9999,9999,9999,1281956972
47,6,23,Ticks_Phase_5,127,9999,9999,9999,1282456660
47,6,23,Ticks_Phase_5,128,9999,9999,9999,1282956348
47,6,23,Ticks_Phase_5,129,9999,9999,9999,1283456108
47,6,23,Ticks_Phase_5,130,9999,9999,9999,1283956844
47,6,23,Ticks_Phase_5,131,9999,9999,9999,1284556868
47,6,23,Ticks_Phase_5,132,9999,9999,9999,1285056580
47,6,23,Ticks_Phase_5,133,9999,9999,9999,1285556340
47,6,23,Ticks_Phase_5,134,9999,9999,9999,1286057052
47,6,23,Ticks_Phase_5,135,9999,9999,9999,1286556756
47,6,23,Ticks_Phase_5,136,9999,9999,9999,1287056448
47,6,23,Ticks_Phase_5,137,9999,9999,9999,1287556212
47,6,23,Ticks_Phase_5,138,9999,9999,9999,1288056944
47,6,23,Ticks_Phase_5,139,9999,9999,9999,1288556632
47,6,23,Ticks_Phase_5,140,9999,9999,9999,1289056320
47,6,23,Ticks_Phase_5,141,9999,9999,9999,1289557104
47,6,23,Ticks_Phase_5,142,9999,9999,9999,1290056792
47,6,23,Ticks_Phase_5,143,9999,9999,9999,1290556480
47,6,23,Ticks_Phase_5,144,9999,9999,9999,1291056240
47,6,23,Ticks_Phase_5,145,9999,9999,9999,1291556976
47,6,23,Ticks_Phase_5,146,9999,9999,9999,1292056664
47,6,23,Ticks_Phase_5,147,9999,9999,9999,1292556352
47,6,23,Ticks_Phase_5,148,9999,9999,9999,1293056112
47,6,23,Ticks_Phase_5,149,9999,9999,9999,1293556848
47,6,23,Ticks_Phase_5,150,9999,9999,9999,1293956196
47,6,23,Ticks_Phase_5,151,9999,9999,9999,1294456924
47,6,23,Ticks_Phase_5,152,9999,9999,9999,1294956672
47,6,23,Ticks_Phase_5,153,9999,9999,9999,1295456376
47,6,23,Ticks_Phase_5,154,9999,9999,9999,1295957084
47,6,23,Ticks_Phase_5,155,9999,9999,9999,1296456772
47,6,23,Ticks_Phase_5,156,9999,9999,9999,1296956536
47,6,23,Ticks_Phase_5,157,9999,9999,9999,1297456224
47,6,23,Ticks_Phase_5,158,9999,9999,9999,1297956960
47,6,23,Ticks_Phase_5,159,9999,9999,9999,1298456648
47,6,23,Ticks_Phase_5,160,9999,9999,9999,1298956412
47,6,23,Ticks_Phase_5,161,9999,9999,9999,1299456100
47,6,23,Ticks_Phase_5,162,9999,9999,9999,1299956836
47,6,23,Ticks_Phase_5,163,9999,9999,9999,1300456524
47,6,23,Ticks_Phase_5,164,9999,9999,9999,1300956288
47,6,23,Ticks_Phase_5,165,9999,9999,9999,1301457024
47,6,23,Ticks_Phase_5,166,9999,9999,9999,1301956712
47,6,23,Ticks_Phase_5,167,9999,9999,9999,1302456400
47,6,23,Ticks_Phase_5,168,9999,9999,9999,1302956092
47,6,23,Ticks_Phase_5,169,9999,9999,9999,1303456896
47,7,20,Ticks_Linear_8,0,5,42,127,1314957668
47,7,20,Ticks_Linear_8,1,1,48,31,1315345124
47,7,20,Ticks_Linear_8,2,5,42,127,1315778132
47,7,20,Ticks_Linear_8,3,1,48,28,1316049008
47,7,20,Ticks_Linear_8,4,5,42,127,1316598080
47,7,20,Ticks_Linear_8,5,1,48,29,1317281620
47,7,20,Ticks_Linear_8,6,5,42,127,1317418320
47,7,20,Ticks_Linear_8,7,1,48,37,1318204304
47,7,20,Ticks_Linear_8,8,5,42,127,1318237484
47,7,20,Ticks_Linear_8,9,5,42,127,1319047548
47,7,20,Ticks_Linear_8,10,1,48,40,1319061524
47,7,20,Ticks_Linear_8,11,1,48,44,1319852088
47,7,20,Ticks_Linear_8,12,5,42,127,1319857524
47,7,20,Ticks_Linear_8,13,1,48,39,1320634204
47,7,20,Ticks_Linear_8,14,5,42,127,1320667504
47,7,20,Ticks_Linear_8,15,1,48,45,1321450184
47,7,20,Ticks_Linear_8,16,5,42,127,1321477488
47,7,20,Ticks_Linear_8,17,1,48,46,1322249536
47,7,20,Ticks_Linear_8,18,5,42,127,1322287472
47,7,20,Ticks_Linear_8,19,1,48,42,1323064384
47,7,20,Ticks_Linear_8,20,5,42,127,1323088244
47,7,20,Ticks_Linear_8,21,5,42,127,1323888148
47,7,20,Ticks_Linear_8,22,1,48,45,1323894108
47,7,20,Ticks_Linear_8,23,1,48,47,1324675844
47,7,20,Ticks_Linear_8,24,5,42,127,1324687940
47,7,20,Ticks_Linear_8,25,1,48,44,1325440740
47,7,20,Ticks_Linear_8,26,5,42,127,1325487588
47,7,20,Ticks_Linear_8,27,1,48,43,1326240840
47,7,20,Ticks_Linear_8,28,5,42,127,1326288212
47,7,20,Ticks_Linear_8,29,5,42,127,1327077980
47,7,20,Ticks_Linear_8,30,1,48,42,1327087020
47,7,20,Ticks_Linear_8,31,5,42,127,1327868268
47,7,20,Ticks_Linear_8,32,1,48,49,1327892052
47,7,20,Ticks_Linear_8,33,1,48,42,1328637468
47,7,20,Ticks_Linear_8,34,5,42,127,1328657948
47,7,20,Ticks_Linear_8,35,5,42,127,1329448392
47,7,20,Ticks_Linear_8,36,1,48,29,1329475392
47,7,20,Ticks_Linear_8,37,1,48,25,1330230020
47,7,20,Ticks_Linear_8,38,5,42,127,1330238000
47,7,20,Ticks_Linear_8,39,1,48,43,1330985552
47,7,20,Ticks_Linear_8,40,5,42,127,1331018104
47,7,20,Ticks_Linear_8,41,1,48,47,1331778544
47,7,20,Ticks_Linear_8,42,5,42,127,1331798284
47,7,20,Ticks_Linear_8,43,1,48,43,1332568236
47,7,20,Ticks_Linear_8,44,5,42,127,1332577784
47,7,20,Ticks_Linear_8,45,1,48,46,1333349236
47,7,20,Ticks_Linear_8,46,5,42,127,1333357892
47,7,20,Ticks_Linear_8,47,1,48,50,1334100852
47,7,20,Ticks_Linear_8,48,5,42,127,1334138216
47,7,20,Ticks_Linear_8,49,1,48,53,1334877092
47,7,20,Ticks_Linear_8,50,5,42,127,1334908360
47,7,20,Ticks_Linear_8,51,1,48,48,1335623020
47,7,20,Ticks_Linear_8,52,5,42,127,1335678356
47,7,20,Ticks_Linear_8,53,1,48,42,1336397736
47,7,20,Ticks_Linear_8,54,5,42,127,1336448500
47,7,20,Ticks_Linear_8,55,1,48,47,1337176200
47,7,20,Ticks_Linear_8,56,5,42,127,1337218544
47,7,20,Ticks_Linear_8,57,1,48,47,1337949028
47,7,20,Ticks_Linear_8,58,5,42,127,1337997824
47,7,20,Ticks_Linear_8,59,1,48,46,1338712948
47,7,20,Ticks_Linear_8,60,5,42,127,1338757780
47,7,20,Ticks_Linear_8,61,1,48,41,1339480000
47,7,20,Ticks_Linear_8,62,5,42,127,1339518388
47,7,20,Ticks_Linear_8,63,1,48,43,1340259284
47,7,20,Ticks_Linear_8,64,5,42,127,1340278196
47,7,20,Ticks_Linear_8,65,1,48,49,1341035108
47,7,20,Ticks_Linear_8,66,5,42,127,1341037856
47,7,20,Ticks_Linear_8,67,1,48,48,1341781344
47,7,20,Ticks_Linear_8,68,5,42,127,1341797740
47,7,20,Ticks_Linear_8,69,1,48,44,1342516896
47,7,20,Ticks_Linear_8,70,5,42,127,1342548312
47,7,20,Ticks_Linear_8,71,1,48,48,1343254900
47,7,20,Ticks_Linear_8,72,5,42,127,1343298012
47,7,20,Ticks_Linear_8,73,1,48,48,1343998916
47,7,20,Ticks_Linear_8,74,5,42,127,1344047708
47,7,20,Ticks_Linear_8,75,1,48,48,1344746296
47,7,20,Ticks_Linear_8,76,5,42,127,1344797936
47,7,20,Ticks_Linear_8,77,1,48,47,1345524592
47,7,20,Ticks_Linear_8,78,5,42,127,1345547708
47,7,20,Ticks_Linear_8,79,5,42,127,1346287904
47,7,20,Ticks_Linear_8,80,1,48,48,1346317988
47,7,20,Ticks_Linear_8,81,1,48,44,1347021748
47,7,20,Ticks_Linear_8,82,5,42,127,1347028532
47,7,20,Ticks_Linear_8,83,1,48,39,1347753548
47,7,20,Ticks_Linear_8,84,5,42,127,1347767600
47,7,20,Ticks_Linear_8,85,5,42,127,1348508020
47,7,20,Ticks_Linear_8,86,1,48,40,1348553592
47,7,20,Ticks_Linear_8,87,5,42,127,1349248656
47,7,20,Ticks_Linear_8,88,1,48,39,1349300308
47,7,20,Ticks_Linear_8,89,5,42,127,1349977464
47,7,20,Ticks_Linear_8,90,1,48,44,1350032404
47,7,20,Ticks_Linear_8,91,5,42,127,1350707664
47,7,20,Ticks_Linear_8,92,1,48,41,1350709960
47,7,20,Ticks_Linear_8,93,1,48,47,1351410360
47,7,20,Ticks_Linear_8,94,5,42,127,1351437736
47,7,20,Ticks_Linear_8,95,1,48,48,1352134892
47,7,20,Ticks_Linear_8,96,5,42,127,1352167816
47,7,20,Ticks_Linear_8,97,1,48,40,1352869616
47,7,20,Ticks_Linear_8,98,5,42,127,1352897820
47,7,20,Ticks_Linear_8,99,1,48,38,1353616276
47,7,20,Ticks_Linear_8,100,5,42,127,1353617860
47,7,20,Ticks_Linear_8,101,1,48,45,1354337160
47,7,20,Ticks_Linear_8,102,5,42,127,1354338876
47,7,20,Ticks_Linear_8,103,5,42,127,1355057556
47,7,20,Ticks_Linear_8,104,1,48,46,1355092276
47,7,20,Ticks_Linear_8,105,1,48,43,1355746552
47,7,20,Ticks_Linear_8,106,5,42,127,1355778488
47,7,20,Ticks_Linear_8,107,1,48,43,1356409976
47,7,20,Ticks_Linear_8,108,5,42,127,1356507804
47,7,20,Ticks_Linear_8,109,1,48,45,1357201684
47,7,20,Ticks_Linear_8,110,5,42,127,1357218276
47,7,20,Ticks_Linear_8,111,5,42,127,1357927692
47,7,20,Ticks_Linear_8,112,1,48,48,1357962112
47,7,20,Ticks_Linear_8,113,5,42,127,1358637376
47,7,20,Ticks_Linear_8,114,1,48,42,1358672996
47,7,20,Ticks_Linear_8,115,1,48,46,1359329740
47,7,20,Ticks_Linear_8,116,5,42,127,1359348276
47,7,20,Ticks_Linear_8,117,1,48,31,1360039076
47,7,20,Ticks_Linear_8,118,5,42,127,1360057836
47,7,20,Ticks_Linear_8,119,1,48,37,1360710636
47,7,20,Ticks_Linear_8,120,5,42,127,1360758260
47,7,20,Ticks_Linear_8,121,1,48,45,1361412484
47,7,20,Ticks_Linear_8,122,5,42,127,1361457536
47,7,20,Ticks_Linear_8,123,1,48,42,1362150724
47,7,20,Ticks_Linear_8,124,5,42,127,1362157884
47,7,20,Ticks_Linear_8,125,5,42,127,1362858384
47,7,20,Ticks_Linear_8,126,1,48,39,1362868848
47,7,20,Ticks_Linear_8,127,1,48,27,1363525328
47,7,20,Ticks_Linear_8,128,5,42,127,1363557756
47,7,20,Ticks_Linear_8,129,1,48,28,1364221488
47,7,20,Ticks_Linear_8,130,5,42,127,1364248116
47,7,20,Ticks_Linear_8,131,5,42,127,1364938212
47,7,20,Ticks_Linear_8,132,1,48,45,1364956688
47,7,20,Ticks_Linear_8,133,5,42,127,1365628152
47,7,20,Ticks_Linear_8,134,1,48,44,1365637112
47,7,20,Ticks_Linear_8,135,5,42,127,1366317392
47,7,20,Ticks_Linear_8,136,1,48,47,1366354952
47,7,20,Ticks_Linear_8,137,5,42,127,1367007628
47,7,20,Ticks_Linear_8,138,1,48,37,1367019884
47,7,20,Ticks_Linear_8,139,5,42,127,1367687532
47,7,20,Ticks_Linear_8,140,1,48,33,1367713112
47,7,20,Ticks_Linear_8,141,1,48,41,1368356208
47,7,20,Ticks_Linear_8,142,5,42,127,1368367480
47,7,20,Ticks_Linear_8,143,1,48,48,1369026520
47,7,20,Ticks_Linear_8,144,5,42,127,1369048356
47,7,20,Ticks_Linear_8,145,1,48,51,1369730464
47,7,20,Ticks_Linear_8,146,5,42,127,1369737548
47,7,20,Ticks_Linear_8,147,1,48,48,1370366312
47,7,20,Ticks_Linear_8,148,5,42,127,1370417500
47,7,20,Ticks_Linear_8,149,1,48,51,1371066960
47,7,20,Ticks_Linear_8,150,5,42,127,1371088264
47,7,20,Ticks_Linear_8,151,1,48,54,1371754120
47,7,20,Ticks_Linear_8,152,5,42,127,1371757912
47,7,20,Ticks_Linear_8,153,5,42,127,1372427688
47,7,20,Ticks_Linear_8,154,1,48,48,1372451396
47,7,20,Ticks_Linear_8,155,5,42,127,1373098376
47,7,20,Ticks_Linear_8,156,1,48,55,1373149724
47,7,20,Ticks_Linear_8,157,1,48,53,1373765392
47,7,20,Ticks_Linear_8,158,5,42,127,1373768068
47,7,20,Ticks_Linear_8,159,1,48,54,1374366156
47,7,20,Ticks_Linear_8,160,5,42,127,1374427452
47,7,20,Ticks_Linear_8,161,1,48,35,1375023408
47,7,20,Ticks_Linear_8,162,5,42,127,1375088108
47,7,20,Ticks_Linear_8,163,1,48,50,1375694100
47,7,20,Ticks_Linear_8,164,5,42,127,1375747472
47,7,20,Ticks_Linear_8,165,5,42,127,1376407984
47,7,20,Ticks_Linear_8,166,1,48,34,1376425920
47,7,20,Ticks_Linear_8,167,1,48,46,1377014044
47,7,20,Ticks_Linear_8,168,5,42,127,1377068308
47,7,20,Ticks_Linear_8,169,1,48,43,1377652764
47,7,20,Ticks_Linear_8,170,5,42,127,1377717732
47,7,20,Ticks_Linear_8,171,1,48,48,1378315872
47,7,20,Ticks_Linear_8,172,5,42,127,1378367884
47,7,20,Ticks_Linear_8,173,1,48,46,1378949644
47,7,20,Ticks_Linear_8,174,5,42,127,1379018056
47,7,20,Ticks_Linear_8,175,1,48,42,1379613488
47,7,20,Ticks_Linear_8,176,5,42,127,1379668280
47,7,20,Ticks_Linear_8,177,1,48,48,1380262736
47,7,20,Ticks_Linear_8,178,5,42,127,1380317680
47,7,20,Ticks_Linear_8,179,1,48,51,1380915596
47,7,20,Ticks_Linear_8,180,5,42,127,1380957668
47,7,20,Ticks_Linear_8,181,1,48,49,1381562312
47,7,20,Ticks_Linear_8,182,5,42,127,1381597632
47,7,20,Ticks_Linear_8,183,1,48,49,1382193812
47,7,20,Ticks_Linear_8,184,5,42,127,1382237548
47,7,20,Ticks_Linear_8,185,1,48,48,1382832680
47,7,20,Ticks_Linear_8,186,5,42,127,1382877660
47,7,20,Ticks_Linear_8,187,1,48,49,1383476696
47,7,20,Ticks_Linear_8,188,5,42,127,1383517724
47,7,20,Ticks_Linear_8,189,1,48,52,1384130532
47,7,20,Ticks_Linear_8,190,5,42,127,1384148476
47,7,20,Ticks_Linear_8,191,1,48,51,1384774088
47,7,20,Ticks_Linear_8,192,5,42,127,1384778108
47,7,20,Ticks_Linear_8,193,1,48,44,1385367432
47,7,20,Ticks_Linear_8,194,5,42,127,1385407984
47,7,20,Ticks_Linear_8,195,1,48,49,1386025580
47,7,20,Ticks_Linear_8,196,5,42,127,1386037688
47,7,20,Ticks_Linear_8,197,5,42,127,1386668400
47,7,20,Ticks_Linear_8,198,1,48,50,1386672488
47,7,20,Ticks_Linear_8,199,5,42,127,1387288068
47,7,20,Ticks_Linear_8,200,1,48,37,1387320472
47,7,20,Ticks_Linear_8,201,5,42,127,1387907464
47,7,20,Ticks_Linear_8,202,1,48,51,1387922860
47,7,20,Ticks_Linear_8,203,1,48,51,1388480128
47,7,20,Ticks_Linear_8,204,5,42,127,1388527876
47,7,20,Ticks_Linear_8,205,5,42,127,1389147652
47,7,20,Ticks_Linear_8,206,1,48,49,1389188892
47,7,20,Ticks_Linear_8,207,1,48,50,1389684068
47,7,20,Ticks_Linear_8,208,5,42,127,1389767992
47,7,20,Ticks_Linear_8,209,1,48,47,1390263528
47,7,20,Ticks_Linear_8,210,5,42,127,1390378732
47,7,20,Ticks_Linear_8,211,1,48,44,1390950552
47,7,20,Ticks_Linear_8,212,5,42,127,1390987512
47,7,20,Ticks_Linear_8,213,1,48,48,1391569396
47,7,20,Ticks_Linear_8,214,5,42,127,1391597820
47,7,20,Ticks_Linear_8,215,1,48,53,1392164872
47,7,20,Ticks_Linear_8,216,5,42,127,1392208128
47,7,20,Ticks_Linear_8,217,1,48,53,1392724700
47,7,20,Ticks_Linear_8,218,5,42,127,1392817772
47,7,20,Ticks_Linear_8,219,1,48,50,1393396304
47,7,20,Ticks_Linear_8,220,5,42,127,1393417612
47,7,20,Ticks_Linear_8,221,1,48,50,1393992756
47,7,20,Ticks_Linear_8,222,5,42,127,1394017760
47,7,20,Ticks_Linear_8,223,1,48,46,1394586168
47,7,20,Ticks_Linear_8,224,5,42,127,1394617660
47,7,20,Ticks_Linear_8,225,1,48,46,1395168764
47,7,20,Ticks_Linear_8,226,5,42,127,1395217932
47,7,20,Ticks_Linear_8,227,1,48,50,1395778776
47,7,20,Ticks_Linear_8,228,5,42,127,1395817708
47,7,20,Ticks_Linear_8,229,1,48,45,1396381392
47,7,20,Ticks_Linear_8,230,5,42,127,1396407648
47,7,20,Ticks_Linear_8,231,1,48,53,1396957408
47,7,20,Ticks_Linear_8,232,5,42,127,1396997436
47,7,20,Ticks_Linear_8,233,1,48,52,1397553100
47,7,20,Ticks_Linear_8,234,5,42,127,1397588568
47,7,20,Ticks_Linear_8,235,1,48,51,1398145596
47,7,20,Ticks_Linear_8,236,5,42,127,1398178656
47,7,20,Ticks_Linear_8,237,1,48,48,1398741152
47,7,20,Ticks_Linear_8,238,5,42,127,1398767928
47,7,20,Ticks_Linear_8,239,1,48,55,1399330864
47,7,20,Ticks_Linear_8,240,5,42,127,1399347532
47,7,20,Ticks_Linear_8,241,1,48,48,1399863880
47,7,20,Ticks_Linear_8,242,5,42,127,1399928280
47,7,20,Ticks_Linear_8,243,1,48,56,1400482080
47,7,20,Ticks_Linear_8,244,5,42,127,1400507664
47,7,20,Ticks_Linear_8,245,1,48,51,1401072692
47,7,20,Ticks_Linear_8,246,5,42,127,1401088536
47,7,20,Ticks_Linear_8,247,1,48,55,1401616436
47,7,20,Ticks_Linear_8,248,5,42,127,1401667844
47,7,20,Ticks_Linear_8,249,1,48,50,1402219800
47,7,20,Ticks_Linear_8,250,5,42,127,1402238412
47,7,20,Ticks_Linear_8,251,1,48,52,1402765708
47,7,20,Ticks_Linear_8,252,5,42,127,1402807536
47,7,20,Ticks_Linear_8,253,1,48,53,1403366128
47,7,20,Ticks_Linear_8,254,5,42,127,1403378000
47,7,20,Ticks_Linear_8,255,1,48,54,1403918248
47,7,20,Ticks_Linear_8,256,5,42,127,1403948396
47,7,20,Ticks_Linear_8,257,5,42,127,1404517624
47,7,20,Ticks_Linear_8,258,1,48,48,1404521788
47,7,20,Ticks_Linear_8,259,5,42,127,1405077832
47,7,20,Ticks_Linear_8,260,1,48,53,1405104080
47,7,20,Ticks_Linear_8,261,1,48,54,1405617404
47,7,20,Ticks_Linear_8,262,5,42,127,1405638108
47,7,20,Ticks_Linear_8,263,1,48,49,1406126392
47,7,20,Ticks_Linear_8,264,5,42,127,1406198240
47,7,20,Ticks_Linear_8,265,1,48,54,1406705992
47,7,20,Ticks_Linear_8,266,5,42,127,1406758376
47,7,20,Ticks_Linear_8,267,1,48,57,1407296452
47,7,20,Ticks_Linear_8,268,5,42,127,1407318312
47,7,20,Ticks_Linear_8,269,1,48,54,1407851668
47,7,20,Ticks_Linear_8,270,5,42,127,1407868184
47,7,20,Ticks_Linear_8,271,1,48,46,1408400644
47,7,20,Ticks_Linear_8,272,5,42,127,1408418060
47,7,20,Ticks_Linear_8,273,1,48,49,1408923552
47,7,20,Ticks_Linear_8,274,5,42,127,1408968232
47,7,20,Ticks_Linear_8,275,1,48,53,1409491852
47,7,20,Ticks_Linear_8,276,5,42,127,1409517808
47,7,20,Ticks_Linear_8,277,5,42,127,1410067768
47,7,20,Ticks_Linear_8,278,1,48,51,1410077404
47,7,20,Ticks_Linear_8,279,5,42,127,1410607380
47,7,20,Ticks_Linear_8,280,1,48,56,1410621732
47,7,20,Ticks_Linear_8,281,5,42,127,1411148192
47,7,20,Ticks_Linear_8,282,1,48,52,1411152580
47,7,20,Ticks_Linear_8,283,1,48,55,1411683132
47,7,20,Ticks_Linear_8,284,5,42,127,1411687972
47,7,20,Ticks_Linear_8,285,1,48,51,1412217964
47,7,20,Ticks_Linear_8,286,5,42,127,1412227516
47,7,20,Ticks_Linear_8,287,1,48,55,1412747324
47,7,20,Ticks_Linear_8,288,5,42,127,1412768028
47,7,20,Ticks_Linear_8,289,1,48,50,1413244388
47,7,20,Ticks_Linear_8,290,5,42,127,1413297608
47,7,20,Ticks_Linear_8,291,1,48,51,1413783476
47,7,20,Ticks_Linear_8,292,5,42,127,1413827936
47,7,20,Ticks_Linear_8,293,1,48,48,1414333580
47,7,20,Ticks_Linear_8,294,5,42,127,1414358340
47,7,20,Ticks_Linear_8,295,1,48,57,1414853424
47,7,20,Ticks_Linear_8,296,5,42,127,1414888068
47,7,20,Ticks_Linear_8,297,1,48,52,1415340400
47,7,20,Ticks_Linear_8,298,5,42,127,1415418176
47,7,20,Ticks_Linear_8,299,1,48,51,1415927948
47,7,20,Ticks_Linear_8,300,5,42,127,1415938468
47,7,20,Ticks_Linear_8,301,1,48,46,1416467304
47,7,20,Ticks_Linear_8,302,5,42,127,1416469096
47,7,20,Ticks_Linear_8,303,1,48,51,1416967932
47,7,20,Ticks_Linear_8,304,5,42,127,1416987896
47,7,20,Ticks_Linear_8,305,1,48,51,1417464628
47,7,20,Ticks_Linear_8,306,5,42,127,1417508188
47,7,20,Ticks_Linear_8,307,1,48,53,1417987184
47,7,20,Ticks_Linear_8,308,5,42,127,1418028408
47,7,20,Ticks_Linear_8,309,1,48,49,1418537700
47,7,20,Ticks_Linear_8,310,5,42,127,1418539340
47,7,20,Ticks_Linear_8,311,5,42,127,1419048336
47,7,20,Ticks_Linear_8,312,1,48,51,1419053620
47,7,20,Ticks_Linear_8,313,1,48,52,1419540572
47,7,20,Ticks_Linear_8,314,5,42,127,1419558136
47,7,20,Ticks_Linear_8,315,1,48,51,1420026716
47,7,20,Ticks_Linear_8,316,5,42,127,1420068320
47,7,20,Ticks_Linear_8,317,5,42,127,1420578136
47,7,20,Ticks_Linear_8,318,1,48,40,1420585964
47,7,20,Ticks_Linear_8,319,5,42,127,1421077912
47,7,20,Ticks_Linear_8,320,1,48,52,1421109112
47,7,20,Ticks_Linear_8,321,1,48,54,1421546260
47,7,20,Ticks_Linear_8,322,5,42,127,1421577528
47,7,20,Ticks_Linear_8,323,1,48,53,1422071564
47,7,20,Ticks_Linear_8,324,5,42,127,1422078204
47,7,20,Ticks_Linear_8,325,5,42,127,1422577984
47,7,20,Ticks_Linear_8,326,1,48,32,1422601092
47,7,20,Ticks_Linear_8,327,1,48,57,1423061012
47,7,20,Ticks_Linear_8,328,5,42,127,1423078048
47,7,20,Ticks_Linear_8,329,1,48,44,1423519668
47,7,20,Ticks_Linear_8,330,5,42,127,1423568312
47,7,20,Ticks_Linear_8,331,1,48,54,1424027312
47,7,20,Ticks_Linear_8,332,5,42,127,1424057976
47,7,20,Ticks_Linear_8,333,5,42,127,1424548176
47,7,20,Ticks_Linear_8,334,1,48,47,1424579904
47,7,20,Ticks_Linear_8,335,5,42,127,1425038136
47,7,20,Ticks_Linear_8,336,1,48,48,1425065660
47,7,20,Ticks_Linear_8,337,5,42,127,1425528180
47,7,20,Ticks_Linear_8,0,9999,9999,9999,1314955368
47,7,20,Ticks_Linear_8,1,9999,9999,9999,1315775608
47,7,20,Ticks_Linear_8,2,9999,9999,9999,1316595780
47,7,20,Ticks_Linear_8,3,9999,9999,9999,1317416020
47,7,20,Ticks_Linear_8,4,9999,9999,9999,1318235256
47,7,20,Ticks_Linear_8,5,9999,9999,9999,1319045244
47,7,20,Ticks_Linear_8,6,9999,9999,9999,1319855224
47,7,20,Ticks_Linear_8,7,9999,9999,9999,1320665204
47,7,20,Ticks_Linear_8,8,9999,9999,9999,1321475188
47,7,20,Ticks_Linear_8,9,9999,9999,9999,1322285172
47,7,20,Ticks_Linear_8,10,9999,9999,9999,1323085940
47,7,20,Ticks_Linear_8,11,9999,9999,9999,1323885624
47,7,20,Ticks_Linear_8,12,9999,9999,9999,1324685416
47,7,20,Ticks_Linear_8,13,9999,9999,9999,1325485140
47,7,20,Ticks_Linear_8,14,9999,9999,9999,1326285908
47,7,20,Ticks_Linear_8,15,9999,9999,9999,1327075456
47,7,20,Ticks_Linear_8,16,9999,9999,9999,1327865968
47,7,20,Ticks_Linear_8,17,9999,9999,9999,1328655424
47,7,20,Ticks_Linear_8,18,9999,9999,9999,1329445944
47,7,20,Ticks_Linear_8,19,9999,9999,9999,1330235476
47,7,20,Ticks_Linear_8,20,9999,9999,9999,1331015804
47,7,20,Ticks_Linear_8,21,9999,9999,9999,1331796056
47,7,20,Ticks_Linear_8,22,9999,9999,9999,1332575336
47,7,20,Ticks_Linear_8,23,9999,9999,9999,1333355588
47,7,20,Ticks_Linear_8,24,9999,9999,9999,1334135916
47,7,20,Ticks_Linear_8,25,9999,9999,9999,1334905912
47,7,20,Ticks_Linear_8,26,9999,9999,9999,1335675980
47,7,20,Ticks_Linear_8,27,9999,9999,9999,1336446052
47,7,20,Ticks_Linear_8,28,9999,9999,9999,1337216096
47,7,20,Ticks_Linear_8,29,9999,9999,9999,1337995372
47,7,20,Ticks_Linear_8,30,9999,9999,9999,1338755184
47,7,20,Ticks_Linear_8,31,9999,9999,9999,1339516012
47,7,20,Ticks_Linear_8,32,9999,9999,9999,1340275820
47,7,20,Ticks_Linear_8,33,9999,9999,9999,1341035628
47,7,20,Ticks_Linear_8,34,9999,9999,9999,1341795436
47,7,20,Ticks_Linear_8,35,9999,9999,9999,1342546008
47,7,20,Ticks_Linear_8,36,9999,9999,9999,1343295560
47,7,20,Ticks_Linear_8,37,9999,9999,9999,1344045112
47,7,20,Ticks_Linear_8,38,9999,9999,9999,1344795708
47,7,20,Ticks_Linear_8,39,9999,9999,9999,1345545332
47,7,20,Ticks_Linear_8,40,9999,9999,9999,1346285680
47,7,20,Ticks_Linear_8,41,9999,9999,9999,1347026008
47,7,20,Ticks_Linear_8,42,9999,9999,9999,1347765376
47,7,20,Ticks_Linear_8,43,9999,9999,9999,1348505716
47,7,20,Ticks_Linear_8,44,9999,9999,9999,1349246056
47,7,20,Ticks_Linear_8,45,9999,9999,9999,1349975136
47,7,20,Ticks_Linear_8,46,9999,9999,9999,1350705216
47,7,20,Ticks_Linear_8,47,9999,9999,9999,1351435360
47,7,20,Ticks_Linear_8,48,9999,9999,9999,1352165440
47,7,20,Ticks_Linear_8,49,9999,9999,9999,1352895592
47,7,20,Ticks_Linear_8,50,9999,9999,9999,1353615420
47,7,20,Ticks_Linear_8,51,9999,9999,9999,1354335312
47,7,20,Ticks_Linear_8,52,9999,9999,9999,1355055180
47,7,20,Ticks_Linear_8,53,9999,9999,9999,1355776116
47,7,20,Ticks_Linear_8,54,9999,9999,9999,1356505144
47,7,20,Ticks_Linear_8,55,9999,9999,9999,1357215824
47,7,20,Ticks_Linear_8,56,9999,9999,9999,1357925468
47,7,20,Ticks_Linear_8,57,9999,9999,9999,1358635076
47,7,20,Ticks_Linear_8,58,9999,9999,9999,1359345752
47,7,20,Ticks_Linear_8,59,9999,9999,9999,1360055384
47,7,20,Ticks_Linear_8,60,9999,9999,9999,1360755812
47,7,20,Ticks_Linear_8,61,9999,9999,9999,1361455160
47,7,20,Ticks_Linear_8,62,9999,9999,9999,1362155580
47,7,20,Ticks_Linear_8,63,9999,9999,9999,1362856012
47,7,20,Ticks_Linear_8,64,9999,9999,9999,1363555452
47,7,20,Ticks_Linear_8,65,9999,9999,9999,1364245592
47,7,20,Ticks_Linear_8,66,9999,9999,9999,1364935760
47,7,20,Ticks_Linear_8,67,9999,9999,9999,1365625924
47,7,20,Ticks_Linear_8,68,9999,9999,9999,1366315092
47,7,20,Ticks_Linear_8,69,9999,9999,9999,1367005252
47,7,20,Ticks_Linear_8,70,9999,9999,9999,1367685232
47,7,20,Ticks_Linear_8,71,9999,9999,9999,1368365180
47,7,20,Ticks_Linear_8,72,9999,9999,9999,1369046132
47,7,20,Ticks_Linear_8,73,9999,9999,9999,1369735244
47,7,20,Ticks_Linear_8,74,9999,9999,9999,1370415200
47,7,20,Ticks_Linear_8,75,9999,9999,9999,1371085892
47,7,20,Ticks_Linear_8,76,9999,9999,9999,1371755612
47,7,20,Ticks_Linear_8,77,9999,9999,9999,1372425312
47,7,20,Ticks_Linear_8,78,9999,9999,9999,1373096000
47,7,20,Ticks_Linear_8,79,9999,9999,9999,1373765692
47,7,20,Ticks_Linear_8,80,9999,9999,9999,1374425152
47,7,20,Ticks_Linear_8,81,9999,9999,9999,1375085656
47,7,20,Ticks_Linear_8,82,9999,9999,9999,1375745096
47,7,20,Ticks_Linear_8,83,9999,9999,9999,1376405608
47,7,20,Ticks_Linear_8,84,9999,9999,9999,1377066080
47,7,20,Ticks_Linear_8,85,9999,9999,9999,1377715284
47,7,20,Ticks_Linear_8,86,9999,9999,9999,1378365508
47,7,20,Ticks_Linear_8,87,9999,9999,9999,1379015756
47,7,20,Ticks_Linear_8,88,9999,9999,9999,1379665976
47,7,20,Ticks_Linear_8,89,9999,9999,9999,1380315228
47,7,20,Ticks_Linear_8,90,9999,9999,9999,1380955216
47,7,20,Ticks_Linear_8,91,9999,9999,9999,1381595256
47,7,20,Ticks_Linear_8,92,9999,9999,9999,1382235248
47,7,20,Ticks_Linear_8,93,9999,9999,9999,1382875212
47,7,20,Ticks_Linear_8,94,9999,9999,9999,1383515196
47,7,20,Ticks_Linear_8,95,9999,9999,9999,1384146024
47,7,20,Ticks_Linear_8,96,9999,9999,9999,1384775804
47,7,20,Ticks_Linear_8,97,9999,9999,9999,1385405536
47,7,20,Ticks_Linear_8,98,9999,9999,9999,1386035312
47,7,20,Ticks_Linear_8,99,9999,9999,9999,1386666096
47,7,20,Ticks_Linear_8,100,9999,9999,9999,1387285620
47,7,20,Ticks_Linear_8,101,9999,9999,9999,1387905088
47,7,20,Ticks_Linear_8,102,9999,9999,9999,1388525652
47,7,20,Ticks_Linear_8,103,9999,9999,9999,1389145204
47,7,20,Ticks_Linear_8,104,9999,9999,9999,1389765688
47,7,20,Ticks_Linear_8,105,9999,9999,9999,1390376060
47,7,20,Ticks_Linear_8,106,9999,9999,9999,1390985284
47,7,20,Ticks_Linear_8,107,9999,9999,9999,1391595592
47,7,20,Ticks_Linear_8,108,9999,9999,9999,1392205900
47,7,20,Ticks_Linear_8,109,9999,9999,9999,1392815188
47,7,20,Ticks_Linear_8,110,9999,9999,9999,1393415236
47,7,20,Ticks_Linear_8,111,9999,9999,9999,1394015312
47,7,20,Ticks_Linear_8,112,9999,9999,9999,1394615360
47,7,20,Ticks_Linear_8,113,9999,9999,9999,1395215480
47,7,20,Ticks_Linear_8,114,9999,9999,9999,1395815480
47,7,20,Ticks_Linear_8,115,9999,9999,9999,1396405348
47,7,20,Ticks_Linear_8,116,9999,9999,9999,1396995136
47,7,20,Ticks_Linear_8,117,9999,9999,9999,1397586044
47,7,20,Ticks_Linear_8,118,9999,9999,9999,1398175836
47,7,20,Ticks_Linear_8,119,9999,9999,9999,1398765628
47,7,20,Ticks_Linear_8,120,9999,9999,9999,1399345232
47,7,20,Ticks_Linear_8,121,9999,9999,9999,1399925832
47,7,20,Ticks_Linear_8,122,9999,9999,9999,1400505436
47,7,20,Ticks_Linear_8,123,9999,9999,9999,1401086012
47,7,20,Ticks_Linear_8,124,9999,9999,9999,1401665620
47,7,20,Ticks_Linear_8,125,9999,9999,9999,1402235964
47,7,20,Ticks_Linear_8,126,9999,9999,9999,1402805308
47,7,20,Ticks_Linear_8,127,9999,9999,9999,1403375700
47,7,20,Ticks_Linear_8,128,9999,9999,9999,1403946092
47,7,20,Ticks_Linear_8,129,9999,9999,9999,1404515396
47,7,20,Ticks_Linear_8,130,9999,9999,9999,1405075528
47,7,20,Ticks_Linear_8,131,9999,9999,9999,1405635656
47,7,20,Ticks_Linear_8,132,9999,9999,9999,1406195792
47,7,20,Ticks_Linear_8,133,9999,9999,9999,1406755924
47,7,20,Ticks_Linear_8,134,9999,9999,9999,1407316084
47,7,20,Ticks_Linear_8,135,9999,9999,9999,1407865960
47,7,20,Ticks_Linear_8,136,9999,9999,9999,1408415832
47,7,20,Ticks_Linear_8,137,9999,9999,9999,1408965708
47,7,20,Ticks_Linear_8,138,9999,9999,9999,1409515584
47,7,20,Ticks_Linear_8,139,9999,9999,9999,1410065464
47,7,20,Ticks_Linear_8,140,9999,9999,9999,1410605156
47,7,20,Ticks_Linear_8,141,9999,9999,9999,1411145816
47,7,20,Ticks_Linear_8,142,9999,9999,9999,1411685448
47,7,20,Ticks_Linear_8,143,9999,9999,9999,1412225140
47,7,20,Ticks_Linear_8,144,9999,9999,9999,1412765800
47,7,20,Ticks_Linear_8,145,9999,9999,9999,1413295160
47,7,20,Ticks_Linear_8,146,9999,9999,9999,1413825636
47,7,20,Ticks_Linear_8,147,9999,9999,9999,1414356040
47,7,20,Ticks_Linear_8,148,9999,9999,9999,1414885468
47,7,20,Ticks_Linear_8,149,9999,9999,9999,1415415872
47,7,20,Ticks_Linear_8,150,9999,9999,9999,1415936096
47,7,20,Ticks_Linear_8,151,9999,9999,9999,1416465532
47,7,20,Ticks_Linear_8,152,9999,9999,9999,1416985668
47,7,20,Ticks_Linear_8,153,9999,9999,9999,1417505888
47,7,20,Ticks_Linear_8,154,9999,9999,9999,1418026108
47,7,20,Ticks_Linear_8,155,9999,9999,9999,1418536000
47,7,20,Ticks_Linear_8,156,9999,9999,9999,1419045960
47,7,20,Ticks_Linear_8,157,9999,9999,9999,1419555912
47,7,20,Ticks_Linear_8,158,9999,9999,9999,1420065868
47,7,20,Ticks_Linear_8,159,9999,9999,9999,1420575836
47,7,20,Ticks_Linear_8,160,9999,9999,9999,1421075536
47,7,20,Ticks_Linear_8,161,9999,9999,9999,1421575228
47,7,20,Ticks_Linear_8,162,9999,9999,9999,1422075976
47,7,20,Ticks_Linear_8,163,9999,9999,9999,1422575680
47,7,20,Ticks_Linear_8,164,9999,9999,9999,1423075452
47,7,20,Ticks_Linear_8,165,9999,9999,9999,1423565940
47,7,20,Ticks_Linear_8,166,9999,9999,9999,1424055380
47,7,20,Ticks_Linear_8,167,9999,9999,9999,1424545872
47,7,20,Ticks_Linear_8,168,9999,9999,9999,1425035388
47,7,20,Ticks_Linear_8,169,9999,9999,9999,1425525876
47,8,21,Ticks_Linear_5,0,5,42,127,1436433824
47,8,21,Ticks_Linear_5,1,5,42,127,1436914000
47,8,21,Ticks_Linear_5,2,1,48,32,1437351360
47,8,21,Ticks_Linear_5,3,5,42,127,1437394244
47,8,21,Ticks_Linear_5,4,1,48,38,1437837884
47,8,21,Ticks_Linear_5,5,5,42,127,1437873648
47,8,21,Ticks_Linear_5,6,1,48,43,1438342388
47,8,21,Ticks_Linear_5,7,5,42,127,1438353808
47,8,21,Ticks_Linear_5,8,1,48,46,1438832424
47,8,21,Ticks_Linear_5,9,5,42,127,1438844368
47,8,21,Ticks_Linear_5,10,1,48,44,1439310972
47,8,21,Ticks_Linear_5,11,5,42,127,1439333884
47,8,21,Ticks_Linear_5,12,1,48,49,1439817044
47,8,21,Ticks_Linear_5,13,5,42,127,1439824420
47,8,21,Ticks_Linear_5,14,1,48,50,1440294500
47,8,21,Ticks_Linear_5,15,5,42,127,1440313636
47,8,21,Ticks_Linear_5,16,1,48,51,1440787460
47,8,21,Ticks_Linear_5,17,5,42,127,1440804348
47,8,21,Ticks_Linear_5,18,1,48,53,1441265072
47,8,21,Ticks_Linear_5,19,5,42,127,1441303828
47,8,21,Ticks_Linear_5,20,1,48,40,1441772408
47,8,21,Ticks_Linear_5,21,5,42,127,1441803600
47,8,21,Ticks_Linear_5,22,1,48,44,1442281772
47,8,21,Ticks_Linear_5,23,5,42,127,1442304644
47,8,21,Ticks_Linear_5,24,1,48,39,1442782372
47,8,21,Ticks_Linear_5,25,5,42,127,1442804272
47,8,21,Ticks_Linear_5,26,1,48,40,1443232796
47,8,21,Ticks_Linear_5,27,5,42,127,1443303748
47,8,21,Ticks_Linear_5,28,1,48,38,1443796216
47,8,21,Ticks_Linear_5,29,5,42,127,1443813780
47,8,21,Ticks_Linear_5,30,1,48,40,1444261832
47,8,21,Ticks_Linear_5,31,5,42,127,1444323664
47,8,21,Ticks_Linear_5,32,1,48,39,1444823700
47,8,21,Ticks_Linear_5,33,5,42,127,1444833548
47,8,21,Ticks_Linear_5,34,1,48,41,1445315008
47,8,21,Ticks_Linear_5,35,5,42,127,1445343508
47,8,21,Ticks_Linear_5,36,1,48,19,1445748280
47,8,21,Ticks_Linear_5,37,5,42,127,1445853600
47,8,21,Ticks_Linear_5,38,1,48,18,1446357768
47,8,21,Ticks_Linear_5,39,5,42,127,1446373760
47,8,21,Ticks_Linear_5,40,1,48,40,1446863612
47,8,21,Ticks_Linear_5,41,5,42,127,1446894052
47,8,21,Ticks_Linear_5,42,1,48,37,1447399100
47,8,21,Ticks_Linear_5,43,5,42,127,1447414272
47,8,21,Ticks_Linear_5,44,1,48,23,1447923148
47,8,21,Ticks_Linear_5,45,5,42,127,1447934416
47,8,21,Ticks_Linear_5,46,5,42,127,1448453448
47,8,21,Ticks_Linear_5,47,1,48,45,1448457836
47,8,21,Ticks_Linear_5,48,1,48,40,1448970836
47,8,21,Ticks_Linear_5,49,5,42,127,1448983840
47,8,21,Ticks_Linear_5,50,1,48,45,1449490232
47,8,21,Ticks_Linear_5,51,5,42,127,1449514316
47,8,21,Ticks_Linear_5,52,1,48,47,1449999292
47,8,21,Ticks_Linear_5,53,5,42,127,1450043676
47,8,21,Ticks_Linear_5,54,1,48,51,1450566244
47,8,21,Ticks_Linear_5,55,5,42,127,1450574152
47,8,21,Ticks_Linear_5,56,1,48,47,1451058756
47,8,21,Ticks_Linear_5,57,5,42,127,1451103608
47,8,21,Ticks_Linear_5,58,1,48,50,1451609700
47,8,21,Ticks_Linear_5,59,5,42,127,1451644344
47,8,21,Ticks_Linear_5,60,1,48,43,1452121244
47,8,21,Ticks_Linear_5,61,5,42,127,1452184032
47,8,21,Ticks_Linear_5,62,1,48,51,1452670060
47,8,21,Ticks_Linear_5,63,5,42,127,1452723724
47,8,21,Ticks_Linear_5,64,1,48,46,1453221204
47,8,21,Ticks_Linear_5,65,5,42,127,1453264384
47,8,21,Ticks_Linear_5,66,1,48,43,1453735736
47,8,21,Ticks_Linear_5,67,5,42,127,1453804000
47,8,21,Ticks_Linear_5,68,1,48,47,1454336312
47,8,21,Ticks_Linear_5,69,5,42,127,1454353728
47,8,21,Ticks_Linear_5,70,1,48,48,1454883788
47,8,21,Ticks_Linear_5,71,5,42,127,1454903528
47,8,21,Ticks_Linear_5,72,1,48,43,1455395692
47,8,21,Ticks_Linear_5,73,5,42,127,1455453572
47,8,21,Ticks_Linear_5,74,1,48,49,1455971048
47,8,21,Ticks_Linear_5,75,5,42,127,1456003448
47,8,21,Ticks_Linear_5,76,1,48,46,1456490968
47,8,21,Ticks_Linear_5,77,5,42,127,1456554368
47,8,21,Ticks_Linear_5,78,5,42,127,1457113612
47,8,21,Ticks_Linear_5,79,1,48,48,1457115020
47,8,21,Ticks_Linear_5,80,1,48,46,1457617308
47,8,21,Ticks_Linear_5,81,5,42,127,1457673588
47,8,21,Ticks_Linear_5,82,1,48,45,1458134680
47,8,21,Ticks_Linear_5,83,5,42,127,1458233932
47,8,21,Ticks_Linear_5,84,1,48,35,1458712564
47,8,21,Ticks_Linear_5,85,5,42,127,1458793956
47,8,21,Ticks_Linear_5,86,1,48,35,1459336304
47,8,21,Ticks_Linear_5,87,5,42,127,1459354016
47,8,21,Ticks_Linear_5,88,5,42,127,1459924340
47,8,21,Ticks_Linear_5,89,1,48,40,1459982056
47,8,21,Ticks_Linear_5,90,5,42,127,1460493836
47,8,21,Ticks_Linear_5,91,1,48,38,1460527880
47,8,21,Ticks_Linear_5,92,1,48,54,1461032952
47,8,21,Ticks_Linear_5,93,5,42,127,1461063920
47,8,21,Ticks_Linear_5,94,1,48,46,1461559228
47,8,21,Ticks_Linear_5,95,5,42,127,1461634412
47,8,21,Ticks_Linear_5,96,1,48,49,1462137736
47,8,21,Ticks_Linear_5,97,5,42,127,1462214016
47,8,21,Ticks_Linear_5,98,1,48,51,1462777556
47,8,21,Ticks_Linear_5,99,5,42,127,1462793476
47,8,21,Ticks_Linear_5,100,1,48,53,1463322940
47,8,21,Ticks_Linear_5,101,5,42,127,1463374124
47,8,21,Ticks_Linear_5,102,1,48,50,1463892092
47,8,21,Ticks_Linear_5,103,5,42,127,1463953980
47,8,21,Ticks_Linear_5,104,1,48,44,1464483668
47,8,21,Ticks_Linear_5,105,5,42,127,1464534332
47,8,21,Ticks_Linear_5,106,1,48,48,1465090000
47,8,21,Ticks_Linear_5,107,5,42,127,1465113936
47,8,21,Ticks_Linear_5,108,1,48,44,1465661364
47,8,21,Ticks_Linear_5,109,5,42,127,1465703900
47,8,21,Ticks_Linear_5,110,1,48,43,1466216140
47,8,21,Ticks_Linear_5,111,5,42,127,1466293764
47,8,21,Ticks_Linear_5,112,1,48,49,1466848912
47,8,21,Ticks_Linear_5,113,5,42,127,1466883404
47,8,21,Ticks_Linear_5,114,1,48,42,1467454280
47,8,21,Ticks_Linear_5,115,5,42,127,1467474192
47,8,21,Ticks_Linear_5,116,1,48,24,1468036904
47,8,21,Ticks_Linear_5,117,5,42,127,1468064128
47,8,21,Ticks_Linear_5,118,1,48,39,1468641828
47,8,21,Ticks_Linear_5,119,5,42,127,1468664252
47,8,21,Ticks_Linear_5,120,1,48,43,1469254376
47,8,21,Ticks_Linear_5,121,5,42,127,1469264300
47,8,21,Ticks_Linear_5,122,1,48,51,1469831292
47,8,21,Ticks_Linear_5,123,5,42,127,1469864348
47,8,21,Ticks_Linear_5,124,1,48,52,1470431412
47,8,21,Ticks_Linear_5,125,5,42,127,1470464468
47,8,21,Ticks_Linear_5,126,1,48,36,1471042464
47,8,21,Ticks_Linear_5,127,5,42,127,1471064692
47,8,21,Ticks_Linear_5,128,1,48,42,1471671060
47,8,21,Ticks_Linear_5,129,5,42,127,1471683912
47,8,21,Ticks_Linear_5,130,1,48,40,1472236672
47,8,21,Ticks_Linear_5,131,5,42,127,1472294148
47,8,21,Ticks_Linear_5,132,1,48,49,1472814256
47,8,21,Ticks_Linear_5,133,5,42,127,1472903732
47,8,21,Ticks_Linear_5,134,1,48,47,1473506740
47,8,21,Ticks_Linear_5,135,5,42,127,1473513816
47,8,21,Ticks_Linear_5,136,1,48,51,1474103716
47,8,21,Ticks_Linear_5,137,5,42,127,1474124276
47,8,21,Ticks_Linear_5,138,1,48,39,1474701624
47,8,21,Ticks_Linear_5,139,5,42,127,1474743820
47,8,21,Ticks_Linear_5,140,1,48,46,1475290876
47,8,21,Ticks_Linear_5,141,5,42,127,1475364164
47,8,21,Ticks_Linear_5,142,1,48,38,1475943756
47,8,21,Ticks_Linear_5,143,5,42,127,1475983856
47,8,21,Ticks_Linear_5,144,1,48,49,1476526876
47,8,21,Ticks_Linear_5,145,5,42,127,1476604348
47,8,21,Ticks_Linear_5,146,1,48,43,1477175528
47,8,21,Ticks_Linear_5,147,5,42,127,1477223748
47,8,21,Ticks_Linear_5,148,1,48,46,1477772160
47,8,21,Ticks_Linear_5,149,5,42,127,1477853748
47,8,21,Ticks_Linear_5,150,1,48,43,1478361352
47,8,21,Ticks_Linear_5,151,5,42,127,1478484212
47,8,21,Ticks_Linear_5,152,1,48,45,1479026344
47,8,21,Ticks_Linear_5,153,5,42,127,1479114080
47,8,21,Ticks_Linear_5,154,1,48,32,1479670800
47,8,21,Ticks_Linear_5,155,5,42,127,1479744008
47,8,21,Ticks_Linear_5,156,1,48,42,1480288848
47,8,21,Ticks_Linear_5,157,5,42,127,1480373664
47,8,21,Ticks_Linear_5,158,1,48,37,1480929412
47,8,21,Ticks_Linear_5,159,5,42,127,1481013628
47,8,21,Ticks_Linear_5,160,1,48,49,1481615608
47,8,21,Ticks_Linear_5,161,5,42,127,1481653616
47,8,21,Ticks_Linear_5,162,1,48,44,1482289192
47,8,21,Ticks_Linear_5,163,5,42,127,1482293728
47,8,21,Ticks_Linear_5,164,1,48,46,1482881636
47,8,21,Ticks_Linear_5,165,5,42,127,1482933716
47,8,21,Ticks_Linear_5,166,1,48,31,1483516420
47,8,21,Ticks_Linear_5,167,5,42,127,1483573532
47,8,21,Ticks_Linear_5,168,1,48,45,1484123912
47,8,21,Ticks_Linear_5,169,5,42,127,1484223984
47,8,21,Ticks_Linear_5,170,1,48,41,1484773540
47,8,21,Ticks_Linear_5,171,5,42,127,1484874060
47,8,21,Ticks_Linear_5,172,1,48,47,1485503464
47,8,21,Ticks_Linear_5,173,5,42,127,1485524544
47,8,21,Ticks_Linear_5,174,1,48,45,1486127772
47,8,21,Ticks_Linear_5,175,5,42,127,1486173520
47,8,21,Ticks_Linear_5,176,1,48,49,1486721564
47,8,21,Ticks_Linear_5,177,5,42,127,1486823656
47,8,21,Ticks_Linear_5,178,1,48,54,1487427416
47,8,21,Ticks_Linear_5,179,5,42,127,1487484324
47,8,21,Ticks_Linear_5,180,1,48,42,1488047264
47,8,21,Ticks_Linear_5,181,5,42,127,1488143832
47,8,21,Ticks_Linear_5,182,1,48,43,1488704004
47,8,21,Ticks_Linear_5,183,5,42,127,1488804324
47,8,21,Ticks_Linear_5,184,1,48,48,1489388772
47,8,21,Ticks_Linear_5,185,5,42,127,1489463776
47,8,21,Ticks_Linear_5,186,1,48,47,1490099452
47,8,21,Ticks_Linear_5,187,5,42,127,1490124284
47,8,21,Ticks_Linear_5,188,1,48,46,1490733880
47,8,21,Ticks_Linear_5,189,5,42,127,1490793704
47,8,21,Ticks_Linear_5,190,1,48,49,1491392364
47,8,21,Ticks_Linear_5,191,5,42,127,1491463548
47,8,21,Ticks_Linear_5,192,1,48,44,1492000120
47,8,21,Ticks_Linear_5,193,5,42,127,1492134520
47,8,21,Ticks_Linear_5,194,1,48,49,1492772740
47,8,21,Ticks_Linear_5,195,5,42,127,1492804228
47,8,21,Ticks_Linear_5,196,1,48,45,1493402096
47,8,21,Ticks_Linear_5,197,5,42,127,1493473652
47,8,21,Ticks_Linear_5,198,1,48,50,1494026408
47,8,21,Ticks_Linear_5,199,5,42,127,1494153612
47,8,21,Ticks_Linear_5,200,5,42,127,1494833440
47,8,21,Ticks_Linear_5,201,1,48,42,1494834408
47,8,21,Ticks_Linear_5,202,1,48,43,1495465664
47,8,21,Ticks_Linear_5,203,5,42,127,1495513412
47,8,21,Ticks_Linear_5,204,1,48,38,1496055008
47,8,21,Ticks_Linear_5,205,5,42,127,1496194568
47,8,21,Ticks_Linear_5,206,1,48,45,1496834288
47,8,21,Ticks_Linear_5,207,5,42,127,1496883452
47,8,21,Ticks_Linear_5,208,5,42,127,1497573624
47,8,21,Ticks_Linear_5,209,1,48,44,1497615308
47,8,21,Ticks_Linear_5,210,1,48,38,1498260516
47,8,21,Ticks_Linear_5,211,5,42,127,1498264152
47,8,21,Ticks_Linear_5,212,1,48,47,1498889168
47,8,21,Ticks_Linear_5,213,5,42,127,1498954068
47,8,21,Ticks_Linear_5,214,1,48,41,1499579484
47,8,21,Ticks_Linear_5,215,5,42,127,1499644228
47,8,21,Ticks_Linear_5,216,1,48,36,1500261492
47,8,21,Ticks_Linear_5,217,5,42,127,1500333496
47,8,21,Ticks_Linear_5,218,1,48,40,1500996180
47,8,21,Ticks_Linear_5,219,5,42,127,1501033988
47,8,21,Ticks_Linear_5,220,1,48,35,1501702224
47,8,21,Ticks_Linear_5,221,5,42,127,1501734164
47,8,21,Ticks_Linear_5,222,1,48,37,1502371556
47,8,21,Ticks_Linear_5,223,5,42,127,1502434132
47,8,21,Ticks_Linear_5,224,1,48,44,1503090548
47,8,21,Ticks_Linear_5,225,5,42,127,1503134180
47,8,21,Ticks_Linear_5,226,1,48,46,1503774932
47,8,21,Ticks_Linear_5,227,5,42,127,1503833408
47,8,21,Ticks_Linear_5,228,1,48,48,1504509868
47,8,21,Ticks_Linear_5,229,5,42,127,1504544136
47,8,21,Ticks_Linear_5,230,1,48,46,1505184536
47,8,21,Ticks_Linear_5,231,5,42,127,1505253848
47,8,21,Ticks_Linear_5,232,1,48,40,1505849804
47,8,21,Ticks_Linear_5,233,5,42,127,1505964288
47,8,21,Ticks_Linear_5,234,1,48,34,1506643120
47,8,21,Ticks_Linear_5,235,5,42,127,1506674012
47,8,21,Ticks_Linear_5,236,1,48,43,1507341648
47,8,21,Ticks_Linear_5,237,5,42,127,1507383768
47,8,21,Ticks_Linear_5,238,1,48,38,1508050224
47,8,21,Ticks_Linear_5,239,5,42,127,1508103512
47,8,21,Ticks_Linear_5,240,1,48,38,1508772448
47,8,21,Ticks_Linear_5,241,5,42,127,1508824380
47,8,21,Ticks_Linear_5,242,5,42,127,1509553492
47,8,21,Ticks_Linear_5,243,1,48,43,1509555428
47,8,21,Ticks_Linear_5,244,1,48,45,1510239856
47,8,21,Ticks_Linear_5,245,5,42,127,1510274352
47,8,21,Ticks_Linear_5,246,1,48,36,1510946852
47,8,21,Ticks_Linear_5,247,5,42,127,1511003384
47,8,21,Ticks_Linear_5,248,1,48,39,1511650860
47,8,21,Ticks_Linear_5,249,5,42,127,1511733660
47,8,21,Ticks_Linear_5,250,1,48,45,1512413824
47,8,21,Ticks_Linear_5,251,5,42,127,1512463812
47,8,21,Ticks_Linear_5,252,1,48,35,1513183216
47,8,21,Ticks_Linear_5,253,5,42,127,1513194040
47,8,21,Ticks_Linear_5,254,1,48,33,1513915540
47,8,21,Ticks_Linear_5,255,5,42,127,1513924116
47,8,21,Ticks_Linear_5,256,1,48,41,1514652536
47,8,21,Ticks_Linear_5,257,5,42,127,1514654192
47,8,21,Ticks_Linear_5,258,1,48,40,1515365436
47,8,21,Ticks_Linear_5,259,5,42,127,1515394532
47,8,21,Ticks_Linear_5,260,1,48,45,1516104028
47,8,21,Ticks_Linear_5,261,5,42,127,1516143932
47,8,21,Ticks_Linear_5,262,1,48,40,1516840908
47,8,21,Ticks_Linear_5,263,5,42,127,1516884268
47,8,21,Ticks_Linear_5,264,1,48,40,1517541868
47,8,21,Ticks_Linear_5,265,5,42,127,1517623828
47,8,21,Ticks_Linear_5,266,1,48,34,1518335224
47,8,21,Ticks_Linear_5,267,5,42,127,1518364092
47,8,21,Ticks_Linear_5,268,1,48,49,1519105660
47,8,21,Ticks_Linear_5,269,5,42,127,1519113792
47,8,21,Ticks_Linear_5,270,5,42,127,1519864172
47,8,21,Ticks_Linear_5,271,1,48,39,1519868264
47,8,21,Ticks_Linear_5,272,1,48,46,1520592408
47,8,21,Ticks_Linear_5,273,5,42,127,1520613712
47,8,21,Ticks_Linear_5,274,1,48,48,1521355432
47,8,21,Ticks_Linear_5,275,5,42,127,1521364532
47,8,21,Ticks_Linear_5,276,5,42,127,1522113792
47,8,21,Ticks_Linear_5,277,1,48,45,1522124328
47,8,21,Ticks_Linear_5,278,1,48,47,1522861352
47,8,21,Ticks_Linear_5,279,5,42,127,1522873668
47,8,21,Ticks_Linear_5,280,1,48,40,1523581012
47,8,21,Ticks_Linear_5,281,5,42,127,1523633700
47,8,21,Ticks_Linear_5,282,1,48,43,1524336328
47,8,21,Ticks_Linear_5,283,5,42,127,1524394556
47,8,21,Ticks_Linear_5,284,1,48,47,1525098156
47,8,21,Ticks_Linear_5,285,5,42,127,1525154288
47,8,21,Ticks_Linear_5,286,1,48,47,1525853476
47,8,21,Ticks_Linear_5,287,5,42,127,1525913948
47,8,21,Ticks_Linear_5,288,1,48,53,1526659336
47,8,21,Ticks_Linear_5,289,5,42,127,1526684016
47,8,21,Ticks_Linear_5,290,1,48,41,1527379600
47,8,21,Ticks_Linear_5,291,5,42,127,1527454156
47,8,21,Ticks_Linear_5,292,1,48,47,1528083448
47,8,21,Ticks_Linear_5,293,5,42,127,1528224136
47,8,21,Ticks_Linear_5,294,1,48,32,1528903244
47,8,21,Ticks_Linear_5,295,5,42,127,1528994292
47,8,21,Ticks_Linear_5,296,1,48,38,1529682544
47,8,21,Ticks_Linear_5,297,5,42,127,1529764508
47,8,21,Ticks_Linear_5,298,1,48,30,1530499784
47,8,21,Ticks_Linear_5,299,5,42,127,1530543492
47,8,21,Ticks_Linear_5,300,5,42,127,1531323824
47,8,21,Ticks_Linear_5,301,1,48,40,1531957020
47,8,21,Ticks_Linear_5,302,5,42,127,1532104000
47,8,21,Ticks_Linear_5,303,1,48,30,1532764484
47,8,21,Ticks_Linear_5,304,5,42,127,1532884476
47,8,21,Ticks_Linear_5,305,1,48,41,1533486300
47,8,21,Ticks_Linear_5,306,5,42,127,1533663608
47,8,21,Ticks_Linear_5,307,1,48,47,1534344536
47,8,21,Ticks_Linear_5,308,5,42,127,1534454340
47,8,21,Ticks_Linear_5,309,1,48,45,1535156240
47,8,21,Ticks_Linear_5,310,5,42,127,1535243600
47,8,21,Ticks_Linear_5,311,1,48,49,1535913056
47,8,21,Ticks_Linear_5,312,5,42,127,1536034392
47,8,21,Ticks_Linear_5,313,1,48,54,1536772760
47,8,21,Ticks_Linear_5,314,5,42,127,1536823724
47,8,21,Ticks_Linear_5,315,1,48,48,1537566264
47,8,21,Ticks_Linear_5,316,5,42,127,1537614332
47,8,21,Ticks_Linear_5,317,1,48,45,1538384436
47,8,21,Ticks_Linear_5,318,5,42,127,1538413908
47,8,21,Ticks_Linear_5,319,1,48,27,1539202288
47,8,21,Ticks_Linear_5,320,5,42,127,1539213632
47,8,21,Ticks_Linear_5,321,1,48,34,1539985156
47,8,21,Ticks_Linear_5,322,5,42,127,1540013432
47,8,21,Ticks_Linear_5,323,1,48,47,1540690592
47,8,21,Ticks_Linear_5,324,5,42,127,1540814260
47,8,21,Ticks_Linear_5,325,1,48,48,1541570820
47,8,21,Ticks_Linear_5,326,5,42,127,1541613924
47,8,21,Ticks_Linear_5,327,1,48,50,1542375492
47,8,21,Ticks_Linear_5,328,5,42,127,1542424056
47,8,21,Ticks_Linear_5,329,1,48,39,1543225912
47,8,21,Ticks_Linear_5,330,5,42,127,1543234336
47,8,21,Ticks_Linear_5,331,1,48,44,1544000168
47,8,21,Ticks_Linear_5,332,5,42,127,1544043748
47,8,21,Ticks_Linear_5,333,1,48,37,1544805984
47,8,21,Ticks_Linear_5,334,5,42,127,1544854180
47,8,21,Ticks_Linear_5,335,1,48,44,1545612828
47,8,21,Ticks_Linear_5,336,5,42,127,1545664084
47,8,21,Ticks_Linear_5,0,9999,9999,9999,1436431452
47,8,21,Ticks_Linear_5,1,9999,9999,9999,1436911700
47,8,21,Ticks_Linear_5,2,9999,9999,9999,1437391944
47,8,21,Ticks_Linear_5,3,9999,9999,9999,1437871200
47,8,21,Ticks_Linear_5,4,9999,9999,9999,1438351432
47,8,21,Ticks_Linear_5,5,9999,9999,9999,1438841920
47,8,21,Ticks_Linear_5,6,9999,9999,9999,1439331436
47,8,21,Ticks_Linear_5,7,9999,9999,9999,1439821900
47,8,21,Ticks_Linear_5,8,9999,9999,9999,1440311416
47,8,21,Ticks_Linear_5,9,9999,9999,9999,1440801900
47,8,21,Ticks_Linear_5,10,9999,9999,9999,1441301604
47,8,21,Ticks_Linear_5,11,9999,9999,9999,1441801304
47,8,21,Ticks_Linear_5,12,9999,9999,9999,1442302048
47,8,21,Ticks_Linear_5,13,9999,9999,9999,1442801752
47,8,21,Ticks_Linear_5,14,9999,9999,9999,1443301448
47,8,21,Ticks_Linear_5,15,9999,9999,9999,1443811408
47,8,21,Ticks_Linear_5,16,9999,9999,9999,1444321368
47,8,21,Ticks_Linear_5,17,9999,9999,9999,1444831324
47,8,21,Ticks_Linear_5,18,9999,9999,9999,1445341284
47,8,21,Ticks_Linear_5,19,9999,9999,9999,1445851228
47,8,21,Ticks_Linear_5,20,9999,9999,9999,1446371388
47,8,21,Ticks_Linear_5,21,9999,9999,9999,1446891608
47,8,21,Ticks_Linear_5,22,9999,9999,9999,1447411824
47,8,21,Ticks_Linear_5,23,9999,9999,9999,1447931968
47,8,21,Ticks_Linear_5,24,9999,9999,9999,1448451148
47,8,21,Ticks_Linear_5,25,9999,9999,9999,1448981616
47,8,21,Ticks_Linear_5,26,9999,9999,9999,1449512020
47,8,21,Ticks_Linear_5,27,9999,9999,9999,1450041452
47,8,21,Ticks_Linear_5,28,9999,9999,9999,1450571852
47,8,21,Ticks_Linear_5,29,9999,9999,9999,1451101308
47,8,21,Ticks_Linear_5,30,9999,9999,9999,1451641972
47,8,21,Ticks_Linear_5,31,9999,9999,9999,1452181584
47,8,21,Ticks_Linear_5,32,9999,9999,9999,1452721276
47,8,21,Ticks_Linear_5,33,9999,9999,9999,1453261940
47,8,21,Ticks_Linear_5,34,9999,9999,9999,1453801552
47,8,21,Ticks_Linear_5,35,9999,9999,9999,1454351428
47,8,21,Ticks_Linear_5,36,9999,9999,9999,1454901304
47,8,21,Ticks_Linear_5,37,9999,9999,9999,1455451200
47,8,21,Ticks_Linear_5,38,9999,9999,9999,1456001148
47,8,21,Ticks_Linear_5,39,9999,9999,9999,1456551996
47,8,21,Ticks_Linear_5,40,9999,9999,9999,1457111164
47,8,21,Ticks_Linear_5,41,9999,9999,9999,1457671292
47,8,21,Ticks_Linear_5,42,9999,9999,9999,1458231412
47,8,21,Ticks_Linear_5,43,9999,9999,9999,1458791508
47,8,21,Ticks_Linear_5,44,9999,9999,9999,1459351644
47,8,21,Ticks_Linear_5,45,9999,9999,9999,1459922040
47,8,21,Ticks_Linear_5,46,9999,9999,9999,1460491388
47,8,21,Ticks_Linear_5,47,9999,9999,9999,1461061696
47,8,21,Ticks_Linear_5,48,9999,9999,9999,1461632112
47,8,21,Ticks_Linear_5,49,9999,9999,9999,1462211644
47,8,21,Ticks_Linear_5,50,9999,9999,9999,1462791252
47,8,21,Ticks_Linear_5,51,9999,9999,9999,1463371900
47,8,21,Ticks_Linear_5,52,9999,9999,9999,1463951456
47,8,21,Ticks_Linear_5,53,9999,9999,9999,1464532036
47,8,21,Ticks_Linear_5,54,9999,9999,9999,1465111640
47,8,21,Ticks_Linear_5,55,9999,9999,9999,1465701452
47,8,21,Ticks_Linear_5,56,9999,9999,9999,1466291320
47,8,21,Ticks_Linear_5,57,9999,9999,9999,1466881108
47,8,21,Ticks_Linear_5,58,9999,9999,9999,1467471944
47,8,21,Ticks_Linear_5,59,9999,9999,9999,1468061756
47,8,21,Ticks_Linear_5,60,9999,9999,9999,1468661880
47,8,21,Ticks_Linear_5,61,9999,9999,9999,1469261928
47,8,21,Ticks_Linear_5,62,9999,9999,9999,1469861976
47,8,21,Ticks_Linear_5,63,9999,9999,9999,1470462024
47,8,21,Ticks_Linear_5,64,9999,9999,9999,1471062096
47,8,21,Ticks_Linear_5,65,9999,9999,9999,1471681616
47,8,21,Ticks_Linear_5,66,9999,9999,9999,1472291924
47,8,21,Ticks_Linear_5,67,9999,9999,9999,1472901212
47,8,21,Ticks_Linear_5,68,9999,9999,9999,1473511520
47,8,21,Ticks_Linear_5,69,9999,9999,9999,1474121828
47,8,21,Ticks_Linear_5,70,9999,9999,9999,1474741376
47,8,21,Ticks_Linear_5,71,9999,9999,9999,1475361864
47,8,21,Ticks_Linear_5,72,9999,9999,9999,1475981412
47,8,21,Ticks_Linear_5,73,9999,9999,9999,1476601976
47,8,21,Ticks_Linear_5,74,9999,9999,9999,1477221448
47,8,21,Ticks_Linear_5,75,9999,9999,9999,1477851228
47,8,21,Ticks_Linear_5,76,9999,9999,9999,1478481988
47,8,21,Ticks_Linear_5,77,9999,9999,9999,1479111780
47,8,21,Ticks_Linear_5,78,9999,9999,9999,1479741560
47,8,21,Ticks_Linear_5,79,9999,9999,9999,1480371292
47,8,21,Ticks_Linear_5,80,9999,9999,9999,1481011256
47,8,21,Ticks_Linear_5,81,9999,9999,9999,1481651316
47,8,21,Ticks_Linear_5,82,9999,9999,9999,1482291280
47,8,21,Ticks_Linear_5,83,9999,9999,9999,1482931268
47,8,21,Ticks_Linear_5,84,9999,9999,9999,1483571308
47,8,21,Ticks_Linear_5,85,9999,9999,9999,1484221540
47,8,21,Ticks_Linear_5,86,9999,9999,9999,1484871760
47,8,21,Ticks_Linear_5,87,9999,9999,9999,1485522024
47,8,21,Ticks_Linear_5,88,9999,9999,9999,1486171224
47,8,21,Ticks_Linear_5,89,9999,9999,9999,1486821432
47,8,21,Ticks_Linear_5,90,9999,9999,9999,1487481952
47,8,21,Ticks_Linear_5,91,9999,9999,9999,1488141388
47,8,21,Ticks_Linear_5,92,9999,9999,9999,1488801880
47,8,21,Ticks_Linear_5,93,9999,9999,9999,1489461328
47,8,21,Ticks_Linear_5,94,9999,9999,9999,1490121836
47,8,21,Ticks_Linear_5,95,9999,9999,9999,1490791480
47,8,21,Ticks_Linear_5,96,9999,9999,9999,1491461172
47,8,21,Ticks_Linear_5,97,9999,9999,9999,1492131924
47,8,21,Ticks_Linear_5,98,9999,9999,9999,1492801632
47,8,21,Ticks_Linear_5,99,9999,9999,9999,1493471352
47,8,21,Ticks_Linear_5,100,9999,9999,9999,1494151240
47,8,21,Ticks_Linear_5,101,9999,9999,9999,1494831216
47,8,21,Ticks_Linear_5,102,9999,9999,9999,1495511112
47,8,21,Ticks_Linear_5,103,9999,9999,9999,1496192120
47,8,21,Ticks_Linear_5,104,9999,9999,9999,1496881228
47,8,21,Ticks_Linear_5,105,9999,9999,9999,1497571400
47,8,21,Ticks_Linear_5,106,9999,9999,9999,1498261632
47,8,21,Ticks_Linear_5,107,9999,9999,9999,1498951768
47,8,21,Ticks_Linear_5,108,9999,9999,9999,1499641932
47,8,21,Ticks_Linear_5,109,9999,9999,9999,1500331120
47,8,21,Ticks_Linear_5,110,9999,9999,9999,1501031540
47,8,21,Ticks_Linear_5,111,9999,9999,9999,1501731940
47,8,21,Ticks_Linear_5,112,9999,9999,9999,1502431312
47,8,21,Ticks_Linear_5,113,9999,9999,9999,1503131736
47,8,21,Ticks_Linear_5,114,9999,9999,9999,1503831108
47,8,21,Ticks_Linear_5,115,9999,9999,9999,1504541764
47,8,21,Ticks_Linear_5,116,9999,9999,9999,1505251400
47,8,21,Ticks_Linear_5,117,9999,9999,9999,1505962064
47,8,21,Ticks_Linear_5,118,9999,9999,9999,1506671712
47,8,21,Ticks_Linear_5,119,9999,9999,9999,1507381324
47,8,21,Ticks_Linear_5,120,9999,9999,9999,1508101216
47,8,21,Ticks_Linear_5,121,9999,9999,9999,1508822080
47,8,21,Ticks_Linear_5,122,9999,9999,9999,1509551192
47,8,21,Ticks_Linear_5,123,9999,9999,9999,1510272128
47,8,21,Ticks_Linear_5,124,9999,9999,9999,1511001160
47,8,21,Ticks_Linear_5,125,9999,9999,9999,1511731288
47,8,21,Ticks_Linear_5,126,9999,9999,9999,1512461440
47,8,21,Ticks_Linear_5,127,9999,9999,9999,1513191516
47,8,21,Ticks_Linear_5,128,9999,9999,9999,1513921596
47,8,21,Ticks_Linear_5,129,9999,9999,9999,1514651752
47,8,21,Ticks_Linear_5,130,9999,9999,9999,1515392084
47,8,21,Ticks_Linear_5,131,9999,9999,9999,1516141632
47,8,21,Ticks_Linear_5,132,9999,9999,9999,1516882044
47,8,21,Ticks_Linear_5,133,9999,9999,9999,1517621308
47,8,21,Ticks_Linear_5,134,9999,9999,9999,1518361720
47,8,21,Ticks_Linear_5,135,9999,9999,9999,1519111268
47,8,21,Ticks_Linear_5,136,9999,9999,9999,1519861872
47,8,21,Ticks_Linear_5,137,9999,9999,9999,1520611416
47,8,21,Ticks_Linear_5,138,9999,9999,9999,1521362012
47,8,21,Ticks_Linear_5,139,9999,9999,9999,1522111568
47,8,21,Ticks_Linear_5,140,9999,9999,9999,1522871372
47,8,21,Ticks_Linear_5,141,9999,9999,9999,1523631180
47,8,21,Ticks_Linear_5,142,9999,9999,9999,1524392032
47,8,21,Ticks_Linear_5,143,9999,9999,9999,1525151840
47,8,21,Ticks_Linear_5,144,9999,9999,9999,1525911652
47,8,21,Ticks_Linear_5,145,9999,9999,9999,1526681716
47,8,21,Ticks_Linear_5,146,9999,9999,9999,1527451712
47,8,21,Ticks_Linear_5,147,9999,9999,9999,1528221764
47,8,21,Ticks_Linear_5,148,9999,9999,9999,1528991844
47,8,21,Ticks_Linear_5,149,9999,9999,9999,1529761912
47,8,21,Ticks_Linear_5,150,9999,9999,9999,1530541116
47,8,21,Ticks_Linear_5,151,9999,9999,9999,1531321452
47,8,21,Ticks_Linear_5,152,9999,9999,9999,1532101704
47,8,21,Ticks_Linear_5,153,9999,9999,9999,1532882028
47,8,21,Ticks_Linear_5,154,9999,9999,9999,1533661308
47,8,21,Ticks_Linear_5,155,9999,9999,9999,1534451820
47,8,21,Ticks_Linear_5,156,9999,9999,9999,1535241300
47,8,21,Ticks_Linear_5,157,9999,9999,9999,1536031868
47,8,21,Ticks_Linear_5,158,9999,9999,9999,1536821352
47,8,21,Ticks_Linear_5,159,9999,9999,9999,1537611860
47,8,21,Ticks_Linear_5,160,9999,9999,9999,1538411608
47,8,21,Ticks_Linear_5,161,9999,9999,9999,1539211336
47,8,21,Ticks_Linear_5,162,9999,9999,9999,1540011132
47,8,21,Ticks_Linear_5,163,9999,9999,9999,1540811888
47,8,21,Ticks_Linear_5,164,9999,9999,9999,1541611628
47,8,21,Ticks_Linear_5,165,9999,9999,9999,1542421612
47,8,21,Ticks_Linear_5,166,9999,9999,9999,1543231592
47,8,21,Ticks_Linear_5,167,9999,9999,9999,1544041524
47,8,21,Ticks_Linear_5,168,9999,9999,9999,1544851584
47,8,21,Ticks_Linear_5,169,9999,9999,9999,1545661564
47,9,9,Ticks_ISO_T2_8,0,5,42,127,1556455900
47,9,9,Ticks_ISO_T2_8,1,1,48,27,1557107440
47,9,9,Ticks_ISO_T2_8,2,5,42,127,1557255708
47,9,9,Ticks_ISO_T2_8,3,1,48,44,1557956244
47,9,9,Ticks_ISO_T2_8,4,5,42,127,1558056264
47,9,9,Ticks_ISO_T2_8,5,1,48,47,1558801228
47,9,9,Ticks_ISO_T2_8,6,5,42,127,1558856016
47,9,9,Ticks_ISO_T2_8,7,1,48,45,1559642796
47,9,9,Ticks_ISO_T2_8,8,5,42,127,1559655772
47,9,9,Ticks_ISO_T2_8,9,5,42,127,1560455660
47,9,9,Ticks_ISO_T2_8,10,1,48,46,1560478904
47,9,9,Ticks_ISO_T2_8,11,5,42,127,1561256216
47,9,9,Ticks_ISO_T2_8,12,1,48,50,1561263972
47,9,9,Ticks_ISO_T2_8,13,5,42,127,1562056024
47,9,9,Ticks_ISO_T2_8,14,1,48,51,1562062808
47,9,9,Ticks_ISO_T2_8,15,1,48,54,1562825952
47,9,9,Ticks_ISO_T2_8,16,5,42,127,1562855752
47,9,9,Ticks_ISO_T2_8,17,1,48,43,1563622916
47,9,9,Ticks_ISO_T2_8,18,5,42,127,1563655780
47,9,9,Ticks_ISO_T2_8,19,1,48,47,1564421452
47,9,9,Ticks_ISO_T2_8,20,5,42,127,1564456264
47,9,9,Ticks_ISO_T2_8,21,1,48,45,1565231804
47,9,9,Ticks_ISO_T2_8,22,5,42,127,1565256000
47,9,9,Ticks_ISO_T2_8,23,1,48,46,1565990028
47,9,9,Ticks_ISO_T2_8,24,5,42,127,1566055756
47,9,9,Ticks_ISO_T2_8,25,1,48,45,1566803100
47,9,9,Ticks_ISO_T2_8,26,5,42,127,1566855712
47,9,9,Ticks_ISO_T2_8,27,1,48,50,1567623772
47,9,9,Ticks_ISO_T2_8,28,5,42,127,1567656492
47,9,9,Ticks_ISO_T2_8,29,1,48,42,1568440340
47,9,9,Ticks_ISO_T2_8,30,5,42,127,1568456004
47,9,9,Ticks_ISO_T2_8,31,1,48,46,1569191080
47,9,9,Ticks_ISO_T2_8,32,5,42,127,1569255736
47,9,9,Ticks_ISO_T2_8,33,1,48,44,1570004796
47,9,9,Ticks_ISO_T2_8,34,5,42,127,1570055620
47,9,9,Ticks_ISO_T2_8,35,1,48,44,1570823532
47,9,9,Ticks_ISO_T2_8,36,5,42,127,1570856400
47,9,9,Ticks_ISO_T2_8,37,1,48,46,1571625804
47,9,9,Ticks_ISO_T2_8,38,5,42,127,1571656060
47,9,9,Ticks_ISO_T2_8,39,5,42,127,1572455824
47,9,9,Ticks_ISO_T2_8,40,1,48,43,1572478688
47,9,9,Ticks_ISO_T2_8,41,5,42,127,1573255408
47,9,9,Ticks_ISO_T2_8,42,1,48,49,1573282460
47,9,9,Ticks_ISO_T2_8,43,1,48,50,1574024288
47,9,9,Ticks_ISO_T2_8,44,5,42,127,1574056256
47,9,9,Ticks_ISO_T2_8,45,1,48,50,1574818860
47,9,9,Ticks_ISO_T2_8,46,5,42,127,1574855916
47,9,9,Ticks_ISO_T2_8,47,1,48,52,1575635492
47,9,9,Ticks_ISO_T2_8,48,5,42,127,1575655720
47,9,9,Ticks_ISO_T2_8,49,1,48,52,1576419292
47,9,9,Ticks_ISO_T2_8,50,5,42,127,1576455456
47,9,9,Ticks_ISO_T2_8,51,1,48,45,1577200776
47,9,9,Ticks_ISO_T2_8,52,5,42,127,1577256236
47,9,9,Ticks_ISO_T2_8,53,1,48,48,1577971412
47,9,9,Ticks_ISO_T2_8,54,5,42,127,1578056264
47,9,9,Ticks_ISO_T2_8,55,5,42,127,1578855732
47,9,9,Ticks_ISO_T2_8,56,1,48,54,1578915100
47,9,9,Ticks_ISO_T2_8,57,1,48,50,1579621916
47,9,9,Ticks_ISO_T2_8,58,5,42,127,1579655532
47,9,9,Ticks_ISO_T2_8,59,1,48,50,1580412672
47,9,9,Ticks_ISO_T2_8,60,5,42,127,1580456240
47,9,9,Ticks_ISO_T2_8,61,1,48,48,1581244192
47,9,9,Ticks_ISO_T2_8,62,5,42,127,1581256120
47,9,9,Ticks_ISO_T2_8,63,1,48,54,1582015280
47,9,9,Ticks_ISO_T2_8,64,5,42,127,1582055780
47,9,9,Ticks_ISO_T2_8,65,5,42,127,1582855672
47,9,9,Ticks_ISO_T2_8,66,1,48,52,1582878016
47,9,9,Ticks_ISO_T2_8,67,1,48,48,1583608844
47,9,9,Ticks_ISO_T2_8,68,5,42,127,1583656368
47,9,9,Ticks_ISO_T2_8,69,1,48,51,1584418372
47,9,9,Ticks_ISO_T2_8,70,5,42,127,1584456176
47,9,9,Ticks_ISO_T2_8,71,1,48,41,1585239424
47,9,9,Ticks_ISO_T2_8,72,5,42,127,1585255760
47,9,9,Ticks_ISO_T2_8,73,1,48,40,1586026436
47,9,9,Ticks_ISO_T2_8,74,5,42,127,1586055492
47,9,9,Ticks_ISO_T2_8,75,1,48,46,1586797004
47,9,9,Ticks_ISO_T2_8,76,5,42,127,1586856348
47,9,9,Ticks_ISO_T2_8,77,1,48,40,1587655188
47,9,9,Ticks_ISO_T2_8,78,5,42,127,1587656984
47,9,9,Ticks_ISO_T2_8,79,5,42,127,1588455748
47,9,9,Ticks_ISO_T2_8,80,1,48,46,1588469868
47,9,9,Ticks_ISO_T2_8,81,1,48,46,1589248264
47,9,9,Ticks_ISO_T2_8,82,5,42,127,1589255548
47,9,9,Ticks_ISO_T2_8,83,5,42,127,1590056408
47,9,9,Ticks_ISO_T2_8,84,1,48,46,1590059976
47,9,9,Ticks_ISO_T2_8,85,1,48,43,1590852436
47,9,9,Ticks_ISO_T2_8,86,5,42,127,1590856060
47,9,9,Ticks_ISO_T2_8,87,1,48,51,1591629804
47,9,9,Ticks_ISO_T2_8,88,5,42,127,1591655720
47,9,9,Ticks_ISO_T2_8,89,5,42,127,1592455460
47,9,9,Ticks_ISO_T2_8,90,1,48,53,1592485208
47,9,9,Ticks_ISO_T2_8,91,1,48,52,1593227484
47,9,9,Ticks_ISO_T2_8,92,5,42,127,1593256308
47,9,9,Ticks_ISO_T2_8,93,1,48,51,1593926136
47,9,9,Ticks_ISO_T2_8,94,5,42,127,1594056176
47,9,9,Ticks_ISO_T2_8,95,1,48,44,1594738984
47,9,9,Ticks_ISO_T2_8,96,5,42,127,1594855908
47,9,9,Ticks_ISO_T2_8,97,1,48,45,1595568712
47,9,9,Ticks_ISO_T2_8,98,5,42,127,1595655432
47,9,9,Ticks_ISO_T2_8,99,1,48,47,1596455772
47,9,9,Ticks_ISO_T2_8,100,5,42,127,1596457488
47,9,9,Ticks_ISO_T2_8,101,5,42,127,1597256104
47,9,9,Ticks_ISO_T2_8,102,1,48,34,1597989324
47,9,9,Ticks_ISO_T2_8,103,5,42,127,1598055952
47,9,9,Ticks_ISO_T2_8,104,1,48,48,1598826560
47,9,9,Ticks_ISO_T2_8,105,5,42,127,1598855464
47,9,9,Ticks_ISO_T2_8,106,1,48,42,1599598840
47,9,9,Ticks_ISO_T2_8,107,5,42,127,1599656240
47,9,9,Ticks_ISO_T2_8,108,1,48,46,1600368056
47,9,9,Ticks_ISO_T2_8,109,5,42,127,1600455976
47,9,9,Ticks_ISO_T2_8,110,1,48,48,1601214688
47,9,9,Ticks_ISO_T2_8,111,5,42,127,1601255932
47,9,9,Ticks_ISO_T2_8,112,1,48,43,1602055896
47,9,9,Ticks_ISO_T2_8,113,5,42,127,1602057316
47,9,9,Ticks_ISO_T2_8,114,5,42,127,1602856156
47,9,9,Ticks_ISO_T2_8,115,1,48,39,1602869376
47,9,9,Ticks_ISO_T2_8,116,5,42,127,1603655960
47,9,9,Ticks_ISO_T2_8,117,1,48,45,1603685880
47,9,9,Ticks_ISO_T2_8,118,5,42,127,1604455792
47,9,9,Ticks_ISO_T2_8,119,1,48,50,1604494964
47,9,9,Ticks_ISO_T2_8,120,5,42,127,1605255528
47,9,9,Ticks_ISO_T2_8,121,1,48,15,1605272936
47,9,9,Ticks_ISO_T2_8,122,1,48,43,1606039668
47,9,9,Ticks_ISO_T2_8,123,5,42,127,1606056228
47,9,9,Ticks_ISO_T2_8,124,1,48,48,1606798708
47,9,9,Ticks_ISO_T2_8,125,5,42,127,1606856036
47,9,9,Ticks_ISO_T2_8,126,5,42,127,1607655776
47,9,9,Ticks_ISO_T2_8,127,1,48,41,1607696968
47,9,9,Ticks_ISO_T2_8,128,1,48,48,1608403188
47,9,9,Ticks_ISO_T2_8,129,5,42,127,1608455652
47,9,9,Ticks_ISO_T2_8,130,5,42,127,1609256588
47,9,9,Ticks_ISO_T2_8,131,1,48,46,1609269060
47,9,9,Ticks_ISO_T2_8,132,1,48,47,1610040052
47,9,9,Ticks_ISO_T2_8,133,5,42,127,1610055940
47,9,9,Ticks_ISO_T2_8,134,1,48,45,1610844224
47,9,9,Ticks_ISO_T2_8,135,5,42,127,1610855776
47,9,9,Ticks_ISO_T2_8,136,1,48,45,1611630644
47,9,9,Ticks_ISO_T2_8,137,5,42,127,1611655656
47,9,9,Ticks_ISO_T2_8,138,1,48,40,1612407264
47,9,9,Ticks_ISO_T2_8,139,5,42,127,1612456512
47,9,9,Ticks_ISO_T2_8,140,5,42,127,1613256028
47,9,9,Ticks_ISO_T2_8,141,1,48,40,1613279272
47,9,9,Ticks_ISO_T2_8,142,5,42,127,1614055688
47,9,9,Ticks_ISO_T2_8,143,1,48,50,1614108248
47,9,9,Ticks_ISO_T2_8,144,1,48,18,1614812224
47,9,9,Ticks_ISO_T2_8,145,5,42,127,1614855636
47,9,9,Ticks_ISO_T2_8,146,1,48,44,1615634316
47,9,9,Ticks_ISO_T2_8,147,5,42,127,1615656488
47,9,9,Ticks_ISO_T2_8,148,1,48,47,1616406756
47,9,9,Ticks_ISO_T2_8,149,5,42,127,1616456152
47,9,9,Ticks_ISO_T2_8,150,1,48,45,1617244484
47,9,9,Ticks_ISO_T2_8,151,5,42,127,1617255664
47,9,9,Ticks_ISO_T2_8,152,5,42,127,1618055476
47,9,9,Ticks_ISO_T2_8,153,1,48,48,1618064204
47,9,9,Ticks_ISO_T2_8,154,5,42,127,1618856256
47,9,9,Ticks_ISO_T2_8,155,1,48,51,1618900068
47,9,9,Ticks_ISO_T2_8,156,5,42,127,1619656288
47,9,9,Ticks_ISO_T2_8,157,1,48,44,1619677808
47,9,9,Ticks_ISO_T2_8,158,5,42,127,1620455724
47,9,9,Ticks_ISO_T2_8,159,1,48,43,1620489208
47,9,9,Ticks_ISO_T2_8,160,1,48,50,1621250632
47,9,9,Ticks_ISO_T2_8,161,5,42,127,1621255452
47,9,9,Ticks_ISO_T2_8,162,5,42,127,1622056236
47,9,9,Ticks_ISO_T2_8,163,1,48,45,1622101640
47,9,9,Ticks_ISO_T2_8,164,1,48,46,1622851516
47,9,9,Ticks_ISO_T2_8,165,5,42,127,1622856360
47,9,9,Ticks_ISO_T2_8,166,5,42,127,1623655876
47,9,9,Ticks_ISO_T2_8,167,1,48,47,1623686600
47,9,9,Ticks_ISO_T2_8,168,1,48,44,1624415704
47,9,9,Ticks_ISO_T2_8,169,5,42,127,1624455604
47,9,9,Ticks_ISO_T2_8,170,1,48,43,1625243188
47,9,9,Ticks_ISO_T2_8,171,5,42,127,1625256308
47,9,9,Ticks_ISO_T2_8,172,5,42,127,1626056196
47,9,9,Ticks_ISO_T2_8,173,1,48,40,1626074576
47,9,9,Ticks_ISO_T2_8,174,1,48,43,1626850280
47,9,9,Ticks_ISO_T2_8,175,5,42,127,1626855700
47,9,9,Ticks_ISO_T2_8,176,5,42,127,1627655516
47,9,9,Ticks_ISO_T2_8,177,1,48,53,1627694164
47,9,9,Ticks_ISO_T2_8,178,1,48,44,1628418408
47,9,9,Ticks_ISO_T2_8,179,5,42,127,1628456288
47,9,9,Ticks_ISO_T2_8,180,5,42,127,1629256200
47,9,9,Ticks_ISO_T2_8,181,1,48,41,1629265308
47,9,9,Ticks_ISO_T2_8,182,5,42,127,1630055860
47,9,9,Ticks_ISO_T2_8,183,1,48,31,1630058452
47,9,9,Ticks_ISO_T2_8,184,5,42,127,1630855520
47,9,9,Ticks_ISO_T2_8,185,1,48,44,1630865596
47,9,9,Ticks_ISO_T2_8,186,1,48,42,1631633820
47,9,9,Ticks_ISO_T2_8,187,5,42,127,1631656292
47,9,9,Ticks_ISO_T2_8,188,1,48,48,1632451204
47,9,9,Ticks_ISO_T2_8,189,5,42,127,1632455952
47,9,9,Ticks_ISO_T2_8,190,5,42,127,1633255764
47,9,9,Ticks_ISO_T2_8,191,1,48,40,1633256736
47,9,9,Ticks_ISO_T2_8,192,5,42,127,1634055424
47,9,9,Ticks_ISO_T2_8,193,1,48,48,1634067524
47,9,9,Ticks_ISO_T2_8,194,5,42,127,1634856280
47,9,9,Ticks_ISO_T2_8,195,1,48,40,1634902060
47,9,9,Ticks_ISO_T2_8,196,1,48,44,1635618876
47,9,9,Ticks_ISO_T2_8,197,5,42,127,1635655952
47,9,9,Ticks_ISO_T2_8,198,5,42,127,1636455992
47,9,9,Ticks_ISO_T2_8,199,1,48,46,1636532268
47,9,9,Ticks_ISO_T2_8,200,5,42,127,1637255800
47,9,9,Ticks_ISO_T2_8,201,1,48,47,1637291832
47,9,9,Ticks_ISO_T2_8,202,5,42,127,1638056208
47,9,9,Ticks_ISO_T2_8,203,1,48,47,1638085204
47,9,9,Ticks_ISO_T2_8,204,5,42,127,1638856088
47,9,9,Ticks_ISO_T2_8,205,1,48,40,1638888304
47,9,9,Ticks_ISO_T2_8,206,1,48,49,1639646364
47,9,9,Ticks_ISO_T2_8,207,5,42,127,1639655888
47,9,9,Ticks_ISO_T2_8,208,1,48,47,1640425372
47,9,9,Ticks_ISO_T2_8,209,5,42,127,1640455476
47,9,9,Ticks_ISO_T2_8,210,5,42,127,1641256188
47,9,9,Ticks_ISO_T2_8,211,1,48,38,1641310116
47,9,9,Ticks_ISO_T2_8,212,1,48,46,1642029628
47,9,9,Ticks_ISO_T2_8,213,5,42,127,1642056088
47,9,9,Ticks_ISO_T2_8,214,5,42,127,1642855828
47,9,9,Ticks_ISO_T2_8,215,1,48,47,1642955888
47,9,9,Ticks_ISO_T2_8,216,5,42,127,1643655412
47,9,9,Ticks_ISO_T2_8,217,1,48,48,1644427976
47,9,9,Ticks_ISO_T2_8,218,5,42,127,1644456356
47,9,9,Ticks_ISO_T2_8,219,1,48,47,1645244312
47,9,9,Ticks_ISO_T2_8,220,5,42,127,1645256016
47,9,9,Ticks_ISO_T2_8,221,5,42,127,1646055904
47,9,9,Ticks_ISO_T2_8,222,1,48,31,1646061340
47,9,9,Ticks_ISO_T2_8,223,1,48,40,1646827776
47,9,9,Ticks_ISO_T2_8,224,5,42,127,1646855780
47,9,9,Ticks_ISO_T2_8,225,1,48,43,1647637304
47,9,9,Ticks_ISO_T2_8,226,5,42,127,1647656412
47,9,9,Ticks_ISO_T2_8,227,1,48,47,1648452596
47,9,9,Ticks_ISO_T2_8,228,5,42,127,1648456020
47,9,9,Ticks_ISO_T2_8,229,1,48,43,1649252732
47,9,9,Ticks_ISO_T2_8,230,5,42,127,1649255756
47,9,9,Ticks_ISO_T2_8,231,1,48,46,1650002572
47,9,9,Ticks_ISO_T2_8,232,5,42,127,1650055712
47,9,9,Ticks_ISO_T2_8,233,1,48,40,1650822652
47,9,9,Ticks_ISO_T2_8,234,5,42,127,1650856268
47,9,9,Ticks_ISO_T2_8,235,1,48,47,1651656156
47,9,9,Ticks_ISO_T2_8,236,5,42,127,1651657800
47,9,9,Ticks_ISO_T2_8,237,1,48,42,1652398484
47,9,9,Ticks_ISO_T2_8,0,9999,9999,9999,1556453464
47,9,9,Ticks_ISO_T2_8,1,9999,9999,9999,1557253196
47,9,9,Ticks_ISO_T2_8,2,9999,9999,9999,1558053976
47,9,9,Ticks_ISO_T2_8,3,9999,9999,9999,1558853728
47,9,9,Ticks_ISO_T2_8,4,9999,9999,9999,1559653484
47,9,9,Ticks_ISO_T2_8,5,9999,9999,9999,1560453224
47,9,9,Ticks_ISO_T2_8,6,9999,9999,9999,1561254004
47,9,9,Ticks_ISO_T2_8,7,9999,9999,9999,1562053736
47,9,9,Ticks_ISO_T2_8,8,9999,9999,9999,1562853464
47,9,9,Ticks_ISO_T2_8,9,9999,9999,9999,1563653196
47,9,9,Ticks_ISO_T2_8,10,9999,9999,9999,1564453976
47,9,9,Ticks_ISO_T2_8,11,9999,9999,9999,1565253712
47,9,9,Ticks_ISO_T2_8,12,9999,9999,9999,1566053468
47,9,9,Ticks_ISO_T2_8,13,9999,9999,9999,1566853200
47,9,9,Ticks_ISO_T2_8,14,9999,9999,9999,1567653980
47,9,9,Ticks_ISO_T2_8,15,9999,9999,9999,1568453716
47,9,9,Ticks_ISO_T2_8,16,9999,9999,9999,1569253448
47,9,9,Ticks_ISO_T2_8,17,9999,9999,9999,1570053184
47,9,9,Ticks_ISO_T2_8,18,9999,9999,9999,1570853964
47,9,9,Ticks_ISO_T2_8,19,9999,9999,9999,1571653696
47,9,9,Ticks_ISO_T2_8,20,9999,9999,9999,1572453460
47,9,9,Ticks_ISO_T2_8,21,9999,9999,9999,1573253196
47,9,9,Ticks_ISO_T2_8,22,9999,9999,9999,1574053968
47,9,9,Ticks_ISO_T2_8,23,9999,9999,9999,1574853700
47,9,9,Ticks_ISO_T2_8,24,9999,9999,9999,1575653432
47,9,9,Ticks_ISO_T2_8,25,9999,9999,9999,1576453168
47,9,9,Ticks_ISO_T2_8,26,9999,9999,9999,1577253948
47,9,9,Ticks_ISO_T2_8,27,9999,9999,9999,1578053680
47,9,9,Ticks_ISO_T2_8,28,9999,9999,9999,1578853444
47,9,9,Ticks_ISO_T2_8,29,9999,9999,9999,1579653172
47,9,9,Ticks_ISO_T2_8,30,9999,9999,9999,1580453952
47,9,9,Ticks_ISO_T2_8,31,9999,9999,9999,1581253684
47,9,9,Ticks_ISO_T2_8,32,9999,9999,9999,1582053492
47,9,9,Ticks_ISO_T2_8,33,9999,9999,9999,1582853232
47,9,9,Ticks_ISO_T2_8,34,9999,9999,9999,1583654004
47,9,9,Ticks_ISO_T2_8,35,9999,9999,9999,1584453740
47,9,9,Ticks_ISO_T2_8,36,9999,9999,9999,1585253472
47,9,9,Ticks_ISO_T2_8,37,9999,9999,9999,1586053204
47,9,9,Ticks_ISO_T2_8,38,9999,9999,9999,1586853988
47,9,9,Ticks_ISO_T2_8,39,9999,9999,9999,1587653728
47,9,9,Ticks_ISO_T2_8,40,9999,9999,9999,1588453460
47,9,9,Ticks_ISO_T2_8,41,9999,9999,9999,1589253188
47,9,9,Ticks_ISO_T2_8,42,9999,9999,9999,1590053972
47,9,9,Ticks_ISO_T2_8,43,9999,9999,9999,1590853700
47,9,9,Ticks_ISO_T2_8,44,9999,9999,9999,1591653432
47,9,9,Ticks_ISO_T2_8,45,9999,9999,9999,1592453172
47,9,9,Ticks_ISO_T2_8,46,9999,9999,9999,1593253948
47,9,9,Ticks_ISO_T2_8,47,9999,9999,9999,1594053740
47,9,9,Ticks_ISO_T2_8,48,9999,9999,9999,1594853472
47,9,9,Ticks_ISO_T2_8,49,9999,9999,9999,1595653220
47,9,9,Ticks_ISO_T2_8,50,9999,9999,9999,1596453932
47,9,9,Ticks_ISO_T2_8,51,9999,9999,9999,1597253744
47,9,9,Ticks_ISO_T2_8,52,9999,9999,9999,1598053440
47,9,9,Ticks_ISO_T2_8,53,9999,9999,9999,1598853176
47,9,9,Ticks_ISO_T2_8,54,9999,9999,9999,1599653952
47,9,9,Ticks_ISO_T2_8,55,9999,9999,9999,1600453688
47,9,9,Ticks_ISO_T2_8,56,9999,9999,9999,1601253420
47,9,9,Ticks_ISO_T2_8,57,9999,9999,9999,1602053236
47,9,9,Ticks_ISO_T2_8,58,9999,9999,9999,1602853940
47,9,9,Ticks_ISO_T2_8,59,9999,9999,9999,1603653748
47,9,9,Ticks_ISO_T2_8,60,9999,9999,9999,1604453432
47,9,9,Ticks_ISO_T2_8,61,9999,9999,9999,1605253168
47,9,9,Ticks_ISO_T2_8,62,9999,9999,9999,1606053940
47,9,9,Ticks_ISO_T2_8,63,9999,9999,9999,1606853748
47,9,9,Ticks_ISO_T2_8,64,9999,9999,9999,1607653488
47,9,9,Ticks_ISO_T2_8,65,9999,9999,9999,1608453216
47,9,9,Ticks_ISO_T2_8,66,9999,9999,9999,1609254000
47,9,9,Ticks_ISO_T2_8,67,9999,9999,9999,1610053728
47,9,9,Ticks_ISO_T2_8,68,9999,9999,9999,1610853488
47,9,9,Ticks_ISO_T2_8,69,9999,9999,9999,1611653220
47,9,9,Ticks_ISO_T2_8,70,9999,9999,9999,1612454000
47,9,9,Ticks_ISO_T2_8,71,9999,9999,9999,1613253740
47,9,9,Ticks_ISO_T2_8,72,9999,9999,9999,1614053472
47,9,9,Ticks_ISO_T2_8,73,9999,9999,9999,1614853200
47,9,9,Ticks_ISO_T2_8,74,9999,9999,9999,1615653980
47,9,9,Ticks_ISO_T2_8,75,9999,9999,9999,1616453712
47,9,9,Ticks_ISO_T2_8,76,9999,9999,9999,1617253448
47,9,9,Ticks_ISO_T2_8,77,9999,9999,9999,1618053188
47,9,9,Ticks_ISO_T2_8,78,9999,9999,9999,1618853968
47,9,9,Ticks_ISO_T2_8,79,9999,9999,9999,1619653704
47,9,9,Ticks_ISO_T2_8,80,9999,9999,9999,1620453436
47,9,9,Ticks_ISO_T2_8,81,9999,9999,9999,1621253240
47,9,9,Ticks_ISO_T2_8,82,9999,9999,9999,1622053948
47,9,9,Ticks_ISO_T2_8,83,9999,9999,9999,1622853752
47,9,9,Ticks_ISO_T2_8,84,9999,9999,9999,1623653440
47,9,9,Ticks_ISO_T2_8,85,9999,9999,9999,1624453168
47,9,9,Ticks_ISO_T2_8,86,9999,9999,9999,1625253948
47,9,9,Ticks_ISO_T2_8,87,9999,9999,9999,1626053684
47,9,9,Ticks_ISO_T2_8,88,9999,9999,9999,1626853488
47,9,9,Ticks_ISO_T2_8,89,9999,9999,9999,1627653228
47,9,9,Ticks_ISO_T2_8,90,9999,9999,9999,1628454000
47,9,9,Ticks_ISO_T2_8,91,9999,9999,9999,1629253740
47,9,9,Ticks_ISO_T2_8,92,9999,9999,9999,1630053424
47,9,9,Ticks_ISO_T2_8,93,9999,9999,9999,1630853232
47,9,9,Ticks_ISO_T2_8,94,9999,9999,9999,1631654004
47,9,9,Ticks_ISO_T2_8,95,9999,9999,9999,1632453736
47,9,9,Ticks_ISO_T2_8,96,9999,9999,9999,1633253476
47,9,9,Ticks_ISO_T2_8,97,9999,9999,9999,1634053212
47,9,9,Ticks_ISO_T2_8,98,9999,9999,9999,1634853992
47,9,9,Ticks_ISO_T2_8,99,9999,9999,9999,1635653716
47,9,9,Ticks_ISO_T2_8,100,9999,9999,9999,1636453480
47,9,9,Ticks_ISO_T2_8,101,9999,9999,9999,1637253216
47,9,9,Ticks_ISO_T2_8,102,9999,9999,9999,1638053992
47,9,9,Ticks_ISO_T2_8,103,9999,9999,9999,1638853728
47,9,9,Ticks_ISO_T2_8,104,9999,9999,9999,1639653452
47,9,9,Ticks_ISO_T2_8,105,9999,9999,9999,1640453188
47,9,9,Ticks_ISO_T2_8,106,9999,9999,9999,1641253976
47,9,9,Ticks_ISO_T2_8,107,9999,9999,9999,1642053700
47,9,9,Ticks_ISO_T2_8,108,9999,9999,9999,1642853464
47,9,9,Ticks_ISO_T2_8,109,9999,9999,9999,1643653200
47,9,9,Ticks_ISO_T2_8,110,9999,9999,9999,1644453996
47,9,9,Ticks_ISO_T2_8,111,9999,9999,9999,1645253728
47,9,9,Ticks_ISO_T2_8,112,9999,9999,9999,1646053468
47,9,9,Ticks_ISO_T2_8,113,9999,9999,9999,1646853196
47,9,9,Ticks_ISO_T2_8,114,9999,9999,9999,1647653976
47,9,9,Ticks_ISO_T2_8,115,9999,9999,9999,1648453708
47,9,9,Ticks_ISO_T2_8,116,9999,9999,9999,1649253468
47,9,9,Ticks_ISO_T2_8,117,9999,9999,9999,1650053200
47,9,9,Ticks_ISO_T2_8,118,9999,9999,9999,1650853980
47,9,9,Ticks_ISO_T2_8,119,9999,9999,9999,1651653720
47,10,10,Ticks_ISO_T2_5,0,5,42,127,1663245660
47,10,10,Ticks_ISO_T2_5,1,5,42,127,1663746352
47,10,10,Ticks_ISO_T2_5,2,1,48,24,1663889216
47,10,10,Ticks_ISO_T2_5,3,5,42,127,1664246340
47,10,10,Ticks_ISO_T2_5,4,1,48,41,1664296360
47,10,10,Ticks_ISO_T2_5,5,1,48,49,1664744532
47,10,10,Ticks_ISO_T2_5,6,5,42,127,1664746400
47,10,10,Ticks_ISO_T2_5,7,5,42,127,1665245584
47,10,10,Ticks_ISO_T2_5,8,1,48,43,1665264184
47,10,10,Ticks_ISO_T2_5,9,1,48,51,1665733268
47,10,10,Ticks_ISO_T2_5,10,5,42,127,1665746392
47,10,10,Ticks_ISO_T2_5,11,1,48,53,1666241044
47,10,10,Ticks_ISO_T2_5,12,5,42,127,1666245940
47,10,10,Ticks_ISO_T2_5,13,5,42,127,1666745640
47,10,10,Ticks_ISO_T2_5,14,1,48,53,1666757360
47,10,10,Ticks_ISO_T2_5,15,5,42,127,1667245484
47,10,10,Ticks_ISO_T2_5,16,1,48,51,1667246528
47,10,10,Ticks_ISO_T2_5,17,1,48,51,1667710136
47,10,10,Ticks_ISO_T2_5,18,5,42,127,1667746368
47,10,10,Ticks_ISO_T2_5,19,5,42,127,1668245992
47,10,10,Ticks_ISO_T2_5,20,1,48,49,1668268340
47,10,10,Ticks_ISO_T2_5,21,5,42,127,1668745468
47,10,10,Ticks_ISO_T2_5,22,1,48,47,1668755472
47,10,10,Ticks_ISO_T2_5,23,1,48,37,1669238392
47,10,10,Ticks_ISO_T2_5,24,5,42,127,1669246428
47,10,10,Ticks_ISO_T2_5,25,1,48,43,1669715496
47,10,10,Ticks_ISO_T2_5,26,5,42,127,1669745976
47,10,10,Ticks_ISO_T2_5,27,1,48,50,1670212176
47,10,10,Ticks_ISO_T2_5,28,5,42,127,1670245596
47,10,10,Ticks_ISO_T2_5,29,5,42,127,1670745448
47,10,10,Ticks_ISO_T2_5,30,1,48,43,1670761280
47,10,10,Ticks_ISO_T2_5,31,5,42,127,1671246264
47,10,10,Ticks_ISO_T2_5,32,1,48,50,1671256788
47,10,10,Ticks_ISO_T2_5,33,1,48,44,1671728988
47,10,10,Ticks_ISO_T2_5,34,5,42,127,1671746000
47,10,10,Ticks_ISO_T2_5,35,1,48,54,1672219932
47,10,10,Ticks_ISO_T2_5,36,5,42,127,1672245548
47,10,10,Ticks_ISO_T2_5,37,5,42,127,1672746368
47,10,10,Ticks_ISO_T2_5,38,1,48,41,1672791924
47,10,10,Ticks_ISO_T2_5,39,1,48,49,1673211392
47,10,10,Ticks_ISO_T2_5,40,5,42,127,1673246132
47,10,10,Ticks_ISO_T2_5,41,1,48,46,1673685728
47,10,10,Ticks_ISO_T2_5,42,5,42,127,1673746124
47,10,10,Ticks_ISO_T2_5,43,1,48,48,1674175180
47,10,10,Ticks_ISO_T2_5,44,5,42,127,1674245376
47,10,10,Ticks_ISO_T2_5,45,1,48,44,1674707936
47,10,10,Ticks_ISO_T2_5,46,5,42,127,1674746116
47,10,10,Ticks_ISO_T2_5,47,1,48,48,1675218848
47,10,10,Ticks_ISO_T2_5,48,5,42,127,1675246184
47,10,10,Ticks_ISO_T2_5,49,1,48,48,1675718172
47,10,10,Ticks_ISO_T2_5,50,5,42,127,1675745580
47,10,10,Ticks_ISO_T2_5,51,1,48,49,1676230956
47,10,10,Ticks_ISO_T2_5,52,5,42,127,1676246472
47,10,10,Ticks_ISO_T2_5,53,1,48,51,1676715540
47,10,10,Ticks_ISO_T2_5,54,5,42,127,1676746016
47,10,10,Ticks_ISO_T2_5,55,1,48,50,1677197060
47,10,10,Ticks_ISO_T2_5,56,5,42,127,1677245932
47,10,10,Ticks_ISO_T2_5,57,1,48,48,1677712688
47,10,10,Ticks_ISO_T2_5,58,5,42,127,1677745480
47,10,10,Ticks_ISO_T2_5,59,1,48,52,1678210884
47,10,10,Ticks_ISO_T2_5,60,5,42,127,1678246148
47,10,10,Ticks_ISO_T2_5,61,1,48,43,1678718060
47,10,10,Ticks_ISO_T2_5,62,5,42,127,1678746140
47,10,10,Ticks_ISO_T2_5,63,1,48,42,1679217080
47,10,10,Ticks_ISO_T2_5,64,5,42,127,1679245612
47,10,10,Ticks_ISO_T2_5,65,1,48,51,1679695532
47,10,10,Ticks_ISO_T2_5,66,5,42,127,1679746504
47,10,10,Ticks_ISO_T2_5,67,1,48,51,1680202556
47,10,10,Ticks_ISO_T2_5,68,5,42,127,1680246048
47,10,10,Ticks_ISO_T2_5,69,1,48,52,1680706040
47,10,10,Ticks_ISO_T2_5,70,5,42,127,1680745964
47,10,10,Ticks_ISO_T2_5,71,1,48,47,1681201472
47,10,10,Ticks_ISO_T2_5,72,5,42,127,1681245508
47,10,10,Ticks_ISO_T2_5,73,1,48,51,1681712536
47,10,10,Ticks_ISO_T2_5,74,5,42,127,1681746400
47,10,10,Ticks_ISO_T2_5,75,1,48,47,1682236840
47,10,10,Ticks_ISO_T2_5,76,5,42,127,1682246168
47,10,10,Ticks_ISO_T2_5,77,5,42,127,1682745920
47,10,10,Ticks_ISO_T2_5,78,1,48,54,1682756292
47,10,10,Ticks_ISO_T2_5,79,1,48,44,1683237028
47,10,10,Ticks_ISO_T2_5,80,5,42,127,1683245284
47,10,10,Ticks_ISO_T2_5,81,1,48,42,1683722360
47,10,10,Ticks_ISO_T2_5,82,5,42,127,1683746100
47,10,10,Ticks_ISO_T2_5,83,1,48,49,1684175976
47,10,10,Ticks_ISO_T2_5,84,5,42,127,1684245868
47,10,10,Ticks_ISO_T2_5,85,1,48,37,1684715312
47,10,10,Ticks_ISO_T2_5,86,5,42,127,1684745864
47,10,10,Ticks_ISO_T2_5,87,1,48,51,1685237596
47,10,10,Ticks_ISO_T2_5,88,5,42,127,1685246304
47,10,10,Ticks_ISO_T2_5,89,1,48,51,1685717172
47,10,10,Ticks_ISO_T2_5,90,5,42,127,1685746076
47,10,10,Ticks_ISO_T2_5,91,1,48,46,1686231528
47,10,10,Ticks_ISO_T2_5,92,5,42,127,1686245920
47,10,10,Ticks_ISO_T2_5,93,1,48,43,1686729424
47,10,10,Ticks_ISO_T2_5,94,5,42,127,1686745316
47,10,10,Ticks_ISO_T2_5,95,1,48,26,1687244168
47,10,10,Ticks_ISO_T2_5,96,5,42,127,1687246132
47,10,10,Ticks_ISO_T2_5,97,1,48,30,1687728444
47,10,10,Ticks_ISO_T2_5,98,5,42,127,1687745828
47,10,10,Ticks_ISO_T2_5,99,1,48,43,1688220956
47,10,10,Ticks_ISO_T2_5,100,5,42,127,1688245820
47,10,10,Ticks_ISO_T2_5,101,1,48,48,1688709508
47,10,10,Ticks_ISO_T2_5,102,5,42,127,1688746340
47,10,10,Ticks_ISO_T2_5,103,1,48,48,1689215708
47,10,10,Ticks_ISO_T2_5,104,5,42,127,1689245960
47,10,10,Ticks_ISO_T2_5,105,1,48,51,1689702912
47,10,10,Ticks_ISO_T2_5,106,5,42,127,1689745956
47,10,10,Ticks_ISO_T2_5,107,1,48,45,1690212632
47,10,10,Ticks_ISO_T2_5,108,5,42,127,1690245428
47,10,10,Ticks_ISO_T2_5,109,1,48,55,1690733268
47,10,10,Ticks_ISO_T2_5,110,5,42,127,1690746092
47,10,10,Ticks_ISO_T2_5,111,1,48,50,1691211872
47,10,10,Ticks_ISO_T2_5,112,5,42,127,1691245788
47,10,10,Ticks_ISO_T2_5,113,1,48,54,1691726820
47,10,10,Ticks_ISO_T2_5,114,5,42,127,1691745932
47,10,10,Ticks_ISO_T2_5,115,1,48,49,1692234152
47,10,10,Ticks_ISO_T2_5,116,5,42,127,1692246528
47,10,10,Ticks_ISO_T2_5,117,5,42,127,1692746004
47,10,10,Ticks_ISO_T2_5,118,1,48,42,1692746972
47,10,10,Ticks_ISO_T2_5,119,1,48,38,1693221768
47,10,10,Ticks_ISO_T2_5,120,5,42,127,1693245888
47,10,10,Ticks_ISO_T2_5,121,1,48,45,1693731864
47,10,10,Ticks_ISO_T2_5,122,5,42,127,1693745732
47,10,10,Ticks_ISO_T2_5,123,1,48,44,1694245280
47,10,10,Ticks_ISO_T2_5,124,5,42,127,1694247000
47,10,10,Ticks_ISO_T2_5,125,1,48,49,1694738204
47,10,10,Ticks_ISO_T2_5,126,5,42,127,1694745944
47,10,10,Ticks_ISO_T2_5,127,1,48,47,1695213744
47,10,10,Ticks_ISO_T2_5,128,5,42,127,1695245640
47,10,10,Ticks_ISO_T2_5,129,1,48,45,1695709696
47,10,10,Ticks_ISO_T2_5,130,5,42,127,1695746456
47,10,10,Ticks_ISO_T2_5,131,1,48,43,1696189196
47,10,10,Ticks_ISO_T2_5,132,5,42,127,1696246076
47,10,10,Ticks_ISO_T2_5,133,1,48,48,1696695324
47,10,10,Ticks_ISO_T2_5,134,5,42,127,1696745768
47,10,10,Ticks_ISO_T2_5,135,1,48,47,1697177964
47,10,10,Ticks_ISO_T2_5,136,5,42,127,1697245688
47,10,10,Ticks_ISO_T2_5,137,1,48,48,1697698080
47,10,10,Ticks_ISO_T2_5,138,5,42,127,1697746500
47,10,10,Ticks_ISO_T2_5,139,1,48,47,1698183108
47,10,10,Ticks_ISO_T2_5,140,5,42,127,1698246124
47,10,10,Ticks_ISO_T2_5,141,1,48,43,1698675400
47,10,10,Ticks_ISO_T2_5,142,5,42,127,1698745744
47,10,10,Ticks_ISO_T2_5,143,1,48,46,1699143688
47,10,10,Ticks_ISO_T2_5,144,5,42,127,1699245724
47,10,10,Ticks_ISO_T2_5,145,1,48,48,1699671728
47,10,10,Ticks_ISO_T2_5,146,5,42,127,1699746260
47,10,10,Ticks_ISO_T2_5,147,1,48,51,1700196632
47,10,10,Ticks_ISO_T2_5,148,5,42,127,1700245952
47,10,10,Ticks_ISO_T2_5,149,1,48,50,1700697224
47,10,10,Ticks_ISO_T2_5,150,5,42,127,1700745868
47,10,10,Ticks_ISO_T2_5,151,1,48,49,1701207980
47,10,10,Ticks_ISO_T2_5,152,5,42,127,1701246164
47,10,10,Ticks_ISO_T2_5,153,1,48,45,1701701020
47,10,10,Ticks_ISO_T2_5,154,5,42,127,1701746008
47,10,10,Ticks_ISO_T2_5,155,1,48,52,1702210716
47,10,10,Ticks_ISO_T2_5,156,5,42,127,1702245704
47,10,10,Ticks_ISO_T2_5,157,1,48,45,1702676224
47,10,10,Ticks_ISO_T2_5,158,5,42,127,1702745544
47,10,10,Ticks_ISO_T2_5,159,1,48,48,1703177792
47,10,10,Ticks_ISO_T2_5,160,5,42,127,1703246364
47,10,10,Ticks_ISO_T2_5,161,1,48,45,1703667612
47,10,10,Ticks_ISO_T2_5,162,5,42,127,1703745960
47,10,10,Ticks_ISO_T2_5,163,1,48,44,1704107988
47,10,10,Ticks_ISO_T2_5,164,5,42,127,1704245488
47,10,10,Ticks_ISO_T2_5,165,1,48,52,1704741500
47,10,10,Ticks_ISO_T2_5,166,5,42,127,1704746692
47,10,10,Ticks_ISO_T2_5,167,5,42,127,1705246020
47,10,10,Ticks_ISO_T2_5,168,1,48,49,1705253328
47,10,10,Ticks_ISO_T2_5,169,1,48,38,1705742980
47,10,10,Ticks_ISO_T2_5,170,5,42,127,1705745708
47,10,10,Ticks_ISO_T2_5,171,1,48,47,1706203108
47,10,10,Ticks_ISO_T2_5,172,5,42,127,1706245480
47,10,10,Ticks_ISO_T2_5,173,1,48,44,1706703476
47,10,10,Ticks_ISO_T2_5,174,5,42,127,1706746220
47,10,10,Ticks_ISO_T2_5,175,1,48,46,1707196740
47,10,10,Ticks_ISO_T2_5,176,5,42,127,1707245912
47,10,10,Ticks_ISO_T2_5,177,1,48,41,1707698456
47,10,10,Ticks_ISO_T2_5,178,5,42,127,1707745608
47,10,10,Ticks_ISO_T2_5,179,1,48,54,1708207572
47,10,10,Ticks_ISO_T2_5,180,5,42,127,1708246352
47,10,10,Ticks_ISO_T2_5,181,5,42,127,1708746276
47,10,10,Ticks_ISO_T2_5,182,1,48,51,1708756796
47,10,10,Ticks_ISO_T2_5,183,1,48,47,1709243928
47,10,10,Ticks_ISO_T2_5,184,5,42,127,1709245664
47,10,10,Ticks_ISO_T2_5,185,1,48,40,1709729320
47,10,10,Ticks_ISO_T2_5,186,5,42,127,1709745656
47,10,10,Ticks_ISO_T2_5,187,1,48,48,1710243300
47,10,10,Ticks_ISO_T2_5,188,5,42,127,1710246396
47,10,10,Ticks_ISO_T2_5,189,1,48,43,1710727512
47,10,10,Ticks_ISO_T2_5,190,5,42,127,1710746092
47,10,10,Ticks_ISO_T2_5,191,1,48,48,1711212392
47,10,10,Ticks_ISO_T2_5,192,5,42,127,1711245564
47,10,10,Ticks_ISO_T2_5,193,1,48,53,1711710596
47,10,10,Ticks_ISO_T2_5,194,5,42,127,1711746308
47,10,10,Ticks_ISO_T2_5,195,1,48,55,1712237216
47,10,10,Ticks_ISO_T2_5,196,5,42,127,1712246372
47,10,10,Ticks_ISO_T2_5,197,1,48,57,1712742292
47,10,10,Ticks_ISO_T2_5,198,5,42,127,1712745920
47,10,10,Ticks_ISO_T2_5,199,5,42,127,1713245472
47,10,10,Ticks_ISO_T2_5,200,1,48,48,1713259360
47,10,10,Ticks_ISO_T2_5,201,5,42,127,1713746288
47,10,10,Ticks_ISO_T2_5,202,1,48,49,1713773344
47,10,10,Ticks_ISO_T2_5,203,1,48,42,1714238964
47,10,10,Ticks_ISO_T2_5,204,5,42,127,1714246200
47,10,10,Ticks_ISO_T2_5,205,1,48,43,1714736640
47,10,10,Ticks_ISO_T2_5,206,5,42,127,1714745724
47,10,10,Ticks_ISO_T2_5,207,1,48,40,1715217564
47,10,10,Ticks_ISO_T2_5,208,5,42,127,1715245492
47,10,10,Ticks_ISO_T2_5,209,5,42,127,1715746316
47,10,10,Ticks_ISO_T2_5,210,1,48,56,1715750036
47,10,10,Ticks_ISO_T2_5,211,1,48,47,1716240660
47,10,10,Ticks_ISO_T2_5,212,5,42,127,1716246000
47,10,10,Ticks_ISO_T2_5,213,5,42,127,1716745556
47,10,10,Ticks_ISO_T2_5,214,1,48,48,1716762584
47,10,10,Ticks_ISO_T2_5,215,5,42,127,1717246444
47,10,10,Ticks_ISO_T2_5,216,1,48,50,1717248084
47,10,10,Ticks_ISO_T2_5,217,5,42,127,1717745988
47,10,10,Ticks_ISO_T2_5,218,1,48,53,1717746956
47,10,10,Ticks_ISO_T2_5,219,1,48,39,1718227020
47,10,10,Ticks_ISO_T2_5,220,5,42,127,1718245676
47,10,10,Ticks_ISO_T2_5,221,1,48,52,1718724320
47,10,10,Ticks_ISO_T2_5,222,5,42,127,1718745596
47,10,10,Ticks_ISO_T2_5,223,1,48,50,1719214816
47,10,10,Ticks_ISO_T2_5,224,5,42,127,1719246336
47,10,10,Ticks_ISO_T2_5,225,1,48,51,1719716080
47,10,10,Ticks_ISO_T2_5,226,5,42,127,1719745960
47,10,10,Ticks_ISO_T2_5,227,1,48,48,1720221912
47,10,10,Ticks_ISO_T2_5,228,5,42,127,1720245504
47,10,10,Ticks_ISO_T2_5,229,1,48,30,1720742024
47,10,10,Ticks_ISO_T2_5,230,5,42,127,1720746244
47,10,10,Ticks_ISO_T2_5,231,1,48,52,1721220400
47,10,10,Ticks_ISO_T2_5,232,5,42,127,1721246012
47,10,10,Ticks_ISO_T2_5,233,1,48,51,1721712692
47,10,10,Ticks_ISO_T2_5,234,5,42,127,1721745632
47,10,10,Ticks_ISO_T2_5,235,1,48,53,1722199892
47,10,10,Ticks_ISO_T2_5,236,5,42,127,1722245404
47,10,10,Ticks_ISO_T2_5,237,1,48,49,1722704668
47,10,10,Ticks_ISO_T2_5,238,5,42,127,1722746216
47,10,10,Ticks_ISO_T2_5,239,1,48,47,1723216408
47,10,10,Ticks_ISO_T2_5,240,5,42,127,1723246136
47,10,10,Ticks_ISO_T2_5,241,1,48,56,1723708456
47,10,10,Ticks_ISO_T2_5,242,5,42,127,1723745608
47,10,10,Ticks_ISO_T2_5,243,1,48,53,1724230160
47,10,10,Ticks_ISO_T2_5,244,5,42,127,1724246276
47,10,10,Ticks_ISO_T2_5,245,1,48,47,1724735964
47,10,10,Ticks_ISO_T2_5,246,5,42,127,1724745968
47,10,10,Ticks_ISO_T2_5,247,1,48,55,1725223316
47,10,10,Ticks_ISO_T2_5,248,5,42,127,1725245936
47,10,10,Ticks_ISO_T2_5,249,1,48,51,1725738048
47,10,10,Ticks_ISO_T2_5,250,5,42,127,1725745556
47,10,10,Ticks_ISO_T2_5,251,5,42,127,1726246380
47,10,10,Ticks_ISO_T2_5,252,1,48,53,1726247272
47,10,10,Ticks_ISO_T2_5,253,1,48,52,1726739752
47,10,10,Ticks_ISO_T2_5,254,5,42,127,1726746140
47,10,10,Ticks_ISO_T2_5,255,1,48,51,1727220972
47,10,10,Ticks_ISO_T2_5,256,5,42,127,1727245764
47,10,10,Ticks_ISO_T2_5,257,5,42,127,1727746364
47,10,10,Ticks_ISO_T2_5,258,1,48,53,1727749032
47,10,10,Ticks_ISO_T2_5,259,1,48,57,1728211832
47,10,10,Ticks_ISO_T2_5,0,9999,9999,9999,1663243376
47,10,10,Ticks_ISO_T2_5,1,9999,9999,9999,1663744064
47,10,10,Ticks_ISO_T2_5,2,9999,9999,9999,1664243832
47,10,10,Ticks_ISO_T2_5,3,9999,9999,9999,1664743528
47,10,10,Ticks_ISO_T2_5,4,9999,9999,9999,1665243220
47,10,10,Ticks_ISO_T2_5,5,9999,9999,9999,1665743956
47,10,10,Ticks_ISO_T2_5,6,9999,9999,9999,1666243652
47,10,10,Ticks_ISO_T2_5,7,9999,9999,9999,1666743352
47,10,10,Ticks_ISO_T2_5,8,9999,9999,9999,1667243124
47,10,10,Ticks_ISO_T2_5,9,9999,9999,9999,1667743860
47,10,10,Ticks_ISO_T2_5,10,9999,9999,9999,1668243560
47,10,10,Ticks_ISO_T2_5,11,9999,9999,9999,1668743256
47,10,10,Ticks_ISO_T2_5,12,9999,9999,9999,1669243992
47,10,10,Ticks_ISO_T2_5,13,9999,9999,9999,1669743688
47,10,10,Ticks_ISO_T2_5,14,9999,9999,9999,1670243384
47,10,10,Ticks_ISO_T2_5,15,9999,9999,9999,1670743160
47,10,10,Ticks_ISO_T2_5,16,9999,9999,9999,1671243828
47,10,10,Ticks_ISO_T2_5,17,9999,9999,9999,1671743568
47,10,10,Ticks_ISO_T2_5,18,9999,9999,9999,1672243260
47,10,10,Ticks_ISO_T2_5,19,9999,9999,9999,1672744008
47,10,10,Ticks_ISO_T2_5,20,9999,9999,9999,1673243696
47,10,10,Ticks_ISO_T2_5,21,9999,9999,9999,1673743468
47,10,10,Ticks_ISO_T2_5,22,9999,9999,9999,1674243164
47,10,10,Ticks_ISO_T2_5,23,9999,9999,9999,1674743904
47,10,10,Ticks_ISO_T2_5,24,9999,9999,9999,1675243600
47,10,10,Ticks_ISO_T2_5,25,9999,9999,9999,1675743296
47,10,10,Ticks_ISO_T2_5,26,9999,9999,9999,1676244036
47,10,10,Ticks_ISO_T2_5,27,9999,9999,9999,1676743732
47,10,10,Ticks_ISO_T2_5,28,9999,9999,9999,1677243500
47,10,10,Ticks_ISO_T2_5,29,9999,9999,9999,1677743192
47,10,10,Ticks_ISO_T2_5,30,9999,9999,9999,1678243936
47,10,10,Ticks_ISO_T2_5,31,9999,9999,9999,1678743632
47,10,10,Ticks_ISO_T2_5,32,9999,9999,9999,1679243324
47,10,10,Ticks_ISO_T2_5,33,9999,9999,9999,1679744068
47,10,10,Ticks_ISO_T2_5,34,9999,9999,9999,1680243760
47,10,10,Ticks_ISO_T2_5,35,9999,9999,9999,1680743528
47,10,10,Ticks_ISO_T2_5,36,9999,9999,9999,1681243224
47,10,10,Ticks_ISO_T2_5,37,9999,9999,9999,1681743964
47,10,10,Ticks_ISO_T2_5,38,9999,9999,9999,1682243636
47,10,10,Ticks_ISO_T2_5,39,9999,9999,9999,1682743408
47,10,10,Ticks_ISO_T2_5,40,9999,9999,9999,1683243072
47,10,10,Ticks_ISO_T2_5,41,9999,9999,9999,1683743816
47,10,10,Ticks_ISO_T2_5,42,9999,9999,9999,1684243508
47,10,10,Ticks_ISO_T2_5,43,9999,9999,9999,1684743280
47,10,10,Ticks_ISO_T2_5,44,9999,9999,9999,1685244020
47,10,10,Ticks_ISO_T2_5,45,9999,9999,9999,1685743716
47,10,10,Ticks_ISO_T2_5,46,9999,9999,9999,1686243408
47,10,10,Ticks_ISO_T2_5,47,9999,9999,9999,1686743104
47,10,10,Ticks_ISO_T2_5,48,9999,9999,9999,1687243884
47,10,10,Ticks_ISO_T2_5,49,9999,9999,9999,1687743544
47,10,10,Ticks_ISO_T2_5,50,9999,9999,9999,1688243312
47,10,10,Ticks_ISO_T2_5,51,9999,9999,9999,1688744052
47,10,10,Ticks_ISO_T2_5,52,9999,9999,9999,1689243748
47,10,10,Ticks_ISO_T2_5,53,9999,9999,9999,1689743444
47,10,10,Ticks_ISO_T2_5,54,9999,9999,9999,1690243140
47,10,10,Ticks_ISO_T2_5,55,9999,9999,9999,1690743880
47,10,10,Ticks_ISO_T2_5,56,9999,9999,9999,1691243576
47,10,10,Ticks_ISO_T2_5,57,9999,9999,9999,1691743348
47,10,10,Ticks_ISO_T2_5,58,9999,9999,9999,1692244088
47,10,10,Ticks_ISO_T2_5,59,9999,9999,9999,1692743792
47,10,10,Ticks_ISO_T2_5,60,9999,9999,9999,1693243452
47,10,10,Ticks_ISO_T2_5,61,9999,9999,9999,1693743224
47,10,10,Ticks_ISO_T2_5,62,9999,9999,9999,1694243896
47,10,10,Ticks_ISO_T2_5,63,9999,9999,9999,1694743656
47,10,10,Ticks_ISO_T2_5,64,9999,9999,9999,1695243352
47,10,10,Ticks_ISO_T2_5,65,9999,9999,9999,1695744096
47,10,10,Ticks_ISO_T2_5,66,9999,9999,9999,1696243788
47,10,10,Ticks_ISO_T2_5,67,9999,9999,9999,1696743484
47,10,10,Ticks_ISO_T2_5,68,9999,9999,9999,1697243252
47,10,10,Ticks_ISO_T2_5,69,9999,9999,9999,1697743992
47,10,10,Ticks_ISO_T2_5,70,9999,9999,9999,1698243688
47,10,10,Ticks_ISO_T2_5,71,9999,9999,9999,1698743384
47,10,10,Ticks_ISO_T2_5,72,9999,9999,9999,1699243064
47,10,10,Ticks_ISO_T2_5,73,9999,9999,9999,1699743824
47,10,10,Ticks_ISO_T2_5,74,9999,9999,9999,1700243516
47,10,10,Ticks_ISO_T2_5,75,9999,9999,9999,1700743288
47,10,10,Ticks_ISO_T2_5,76,9999,9999,9999,1701243952
47,10,10,Ticks_ISO_T2_5,77,9999,9999,9999,1701743720
47,10,10,Ticks_ISO_T2_5,78,9999,9999,9999,1702243416
47,10,10,Ticks_ISO_T2_5,79,9999,9999,9999,1702743112
47,10,10,Ticks_ISO_T2_5,80,9999,9999,9999,1703243852
47,10,10,Ticks_ISO_T2_5,81,9999,9999,9999,1703743596
47,10,10,Ticks_ISO_T2_5,82,9999,9999,9999,1704243276
47,10,10,Ticks_ISO_T2_5,83,9999,9999,9999,1704744032
47,10,10,Ticks_ISO_T2_5,84,9999,9999,9999,1705243732
47,10,10,Ticks_ISO_T2_5,85,9999,9999,9999,1705743420
47,10,10,Ticks_ISO_T2_5,86,9999,9999,9999,1706243192
47,10,10,Ticks_ISO_T2_5,87,9999,9999,9999,1706743860
47,10,10,Ticks_ISO_T2_5,88,9999,9999,9999,1707243628
47,10,10,Ticks_ISO_T2_5,89,9999,9999,9999,1707743324
47,10,10,Ticks_ISO_T2_5,90,9999,9999,9999,1708244064
47,10,10,Ticks_ISO_T2_5,91,9999,9999,9999,1708743764
47,10,10,Ticks_ISO_T2_5,92,9999,9999,9999,1709243476
47,10,10,Ticks_ISO_T2_5,93,9999,9999,9999,1709743220
47,10,10,Ticks_ISO_T2_5,94,9999,9999,9999,1710243888
47,10,10,Ticks_ISO_T2_5,95,9999,9999,9999,1710743660
47,10,10,Ticks_ISO_T2_5,96,9999,9999,9999,1711243352
47,10,10,Ticks_ISO_T2_5,97,9999,9999,9999,1711744096
47,10,10,Ticks_ISO_T2_5,98,9999,9999,9999,1712243788
47,10,10,Ticks_ISO_T2_5,99,9999,9999,9999,1712743484
47,10,10,Ticks_ISO_T2_5,100,9999,9999,9999,1713243184
47,10,10,Ticks_ISO_T2_5,101,9999,9999,9999,1713743928
47,10,10,Ticks_ISO_T2_5,102,9999,9999,9999,1714243692
47,10,10,Ticks_ISO_T2_5,103,9999,9999,9999,1714743360
47,10,10,Ticks_ISO_T2_5,104,9999,9999,9999,1715243056
47,10,10,Ticks_ISO_T2_5,105,9999,9999,9999,1715743804
47,10,10,Ticks_ISO_T2_5,106,9999,9999,9999,1716243568
47,10,10,Ticks_ISO_T2_5,107,9999,9999,9999,1716743268
47,10,10,Ticks_ISO_T2_5,108,9999,9999,9999,1717244008
47,10,10,Ticks_ISO_T2_5,109,9999,9999,9999,1717743704
47,10,10,Ticks_ISO_T2_5,110,9999,9999,9999,1718243392
47,10,10,Ticks_ISO_T2_5,111,9999,9999,9999,1718743160
47,10,10,Ticks_ISO_T2_5,112,9999,9999,9999,1719243828
47,10,10,Ticks_ISO_T2_5,113,9999,9999,9999,1719743596
47,10,10,Ticks_ISO_T2_5,114,9999,9999,9999,1720243292
47,10,10,Ticks_ISO_T2_5,115,9999,9999,9999,1720744032
47,10,10,Ticks_ISO_T2_5,116,9999,9999,9999,1721243728
47,10,10,Ticks_ISO_T2_5,117,9999,9999,9999,1721743420
47,10,10,Ticks_ISO_T2_5,118,9999,9999,9999,1722243192
47,10,10,Ticks_ISO_T2_5,119,9999,9999,9999,1722743856
47,10,10,Ticks_ISO_T2_5,120,9999,9999,9999,1723243628
47,10,10,Ticks_ISO_T2_5,121,9999,9999,9999,1723743324
47,10,10,Ticks_ISO_T2_5,122,9999,9999,9999,1724244064
47,10,10,Ticks_ISO_T2_5,123,9999,9999,9999,1724743760
47,10,10,Ticks_ISO_T2_5,124,9999,9999,9999,1725243500
47,10,10,Ticks_ISO_T2_5,125,9999,9999,9999,1725743196
47,10,10,Ticks_ISO_T2_5,126,9999,9999,9999,1726243944
47,10,10,Ticks_ISO_T2_5,127,9999,9999,9999,1726743632
47,10,10,Ticks_ISO_T2_5,128,9999,9999,9999,1727243328
47,10,10,Ticks_ISO_T2_5,129,9999,9999,9999,1727744076
47,11,25,Jits_Pract_5,0,5,56,103,1780018576
47,11,25,Jits_Pract_5,1,5,63,98,1780021672
47,11,25,Jits_Pract_5,2,5,80,127,1780024792
47,11,25,Jits_Pract_5,0,5,56,103,1780528712
47,11,25,Jits_Pract_5,1,5,63,98,1780531888
47,11,25,Jits_Pract_5,2,5,80,127,1780535004
47,11,25,Jits_Pract_5,0,5,56,103,1781029352
47,11,25,Jits_Pract_5,1,5,80,127,1781038500
47,11,25,Jits_Pract_5,2,5,63,98,1781058836
47,11,25,Jits_Pract_5,0,5,63,98,1781478752
47,11,25,Jits_Pract_5,1,5,80,127,1781508504
47,11,25,Jits_Pract_5,2,5,56,103,1781518848
47,11,25,Jits_Pract_5,0,5,80,127,1782038864
47,11,25,Jits_Pract_5,1,5,56,103,1782049356
47,11,25,Jits_Pract_5,2,5,63,98,1782078984
47,11,25,Jits_Pract_5,0,5,63,98,1782529620
47,11,25,Jits_Pract_5,1,5,56,103,1782559072
47,11,25,Jits_Pract_5,2,5,80,127,1782569416
47,11,25,Jits_Pract_5,0,5,56,103,1782978784
47,11,25,Jits_Pract_5,1,5,63,98,1783029212
47,11,25,Jits_Pract_5,2,5,80,127,1783048772
47,11,25,Jits_Pract_5,0,5,80,127,1783478676
47,11,25,Jits_Pract_5,1,5,63,98,1783528804
47,11,25,Jits_Pract_5,2,5,56,103,1783568888
47,11,25,Jits_Pract_5,0,5,56,103,1783979468
47,11,25,Jits_Pract_5,1,5,63,98,1784009068
47,11,25,Jits_Pract_5,2,5,80,127,1784078600
47,11,25,Jits_Pract_5,0,5,56,103,1784479212
47,11,25,Jits_Pract_5,1,5,80,127,1784538556
47,11,25,Jits_Pract_5,2,5,63,98,1784569280
47,11,25,Jits_Pract_5,0,5,56,103,1784988996
47,11,25,Jits_Pract_5,1,5,63,98,1784999568
47,11,25,Jits_Pract_5,2,5,80,127,1785039428
47,11,25,Jits_Pract_5,0,5,63,98,1785478548
47,11,25,Jits_Pract_5,1,5,80,127,1785559392
47,11,25,Jits_Pract_5,2,5,56,103,1785568768
47,11,25,Jits_Pract_5,0,5,63,98,1786029448
47,11,25,Jits_Pract_5,1,5,56,103,1786069464
47,11,25,Jits_Pract_5,2,5,80,127,1786072604
47,11,25,Jits_Pract_5,0,5,56,103,1786489388
47,11,25,Jits_Pract_5,1,5,63,98,1786498612
47,11,25,Jits_Pract_5,2,5,80,127,1786539672
47,11,25,Jits_Pract_5,0,5,56,103,1786978788
47,11,25,Jits_Pract_5,1,5,63,98,1786981632
47,11,25,Jits_Pract_5,2,5,80,127,1786999248
47,11,25,Jits_Pract_5,0,9999,9999,9999,1780267132
47,11,25,Jits_Pract_5,1,9999,9999,9999,1780777048
47,11,25,Jits_Pract_5,2,9999,9999,9999,1781276792
47,11,25,Jits_Pract_5,3,9999,9999,9999,1781776460
47,11,25,Jits_Pract_5,4,9999,9999,9999,1782276196
47,11,25,Jits_Pract_5,5,9999,9999,9999,1782776916
47,11,25,Jits_Pract_5,6,9999,9999,9999,1783276644
47,11,25,Jits_Pract_5,7,9999,9999,9999,1783776312
47,11,25,Jits_Pract_5,8,9999,9999,9999,1784277104
47,11,25,Jits_Pract_5,9,9999,9999,9999,1784776776
47,11,25,Jits_Pract_5,10,9999,9999,9999,1785276520
47,11,25,Jits_Pract_5,11,9999,9999,9999,1785776188
47,11,25,Jits_Pract_5,12,9999,9999,9999,1786276960
47,11,25,Jits_Pract_5,13,9999,9999,9999,1786776684
47,11,25,Jits_Pract_5,14,9999,9999,9999,1787276340
47,12,24,Jits_Pract_8,0,5,56,103,1827752440
47,12,24,Jits_Pract_8,1,5,63,98,1827755764
47,12,24,Jits_Pract_8,2,5,80,127,1827758660
47,12,24,Jits_Pract_8,0,5,56,103,1828551920
47,12,24,Jits_Pract_8,1,5,63,98,1828555172
47,12,24,Jits_Pract_8,2,5,80,127,1828558296
47,12,24,Jits_Pract_8,3,1,48,33,1828603900
47,12,24,Jits_Pract_8,0,5,80,127,1829301576
47,12,24,Jits_Pract_8,1,1,48,42,1829318320
47,12,24,Jits_Pract_8,2,5,63,98,1829391628
47,12,24,Jits_Pract_8,3,5,56,103,1829401896
47,12,24,Jits_Pract_8,0,5,56,103,1830132212
47,12,24,Jits_Pract_8,1,1,48,45,1830135776
47,12,24,Jits_Pract_8,2,5,63,98,1830142252
47,12,24,Jits_Pract_8,3,5,80,127,1830232392
47,12,24,Jits_Pract_8,0,5,63,98,1830902384
47,12,24,Jits_Pract_8,1,5,80,127,1830931764
47,12,24,Jits_Pract_8,2,5,56,103,1830961512
47,12,24,Jits_Pract_8,3,1,48,46,1830995368
47,12,24,Jits_Pract_8,0,5,56,103,1831701840
47,12,24,Jits_Pract_8,1,1,48,48,1831731036
47,12,24,Jits_Pract_8,2,5,80,127,1831802480
47,12,24,Jits_Pract_8,3,5,63,98,1831852444
47,12,24,Jits_Pract_8,0,5,56,103,1832501616
47,12,24,Jits_Pract_8,1,5,80,127,1832551768
47,12,24,Jits_Pract_8,2,1,48,49,1832586276
47,12,24,Jits_Pract_8,3,5,63,98,1832591624
47,12,24,Jits_Pract_8,0,5,80,127,1833332052
47,12,24,Jits_Pract_8,1,5,63,98,1833361880
47,12,24,Jits_Pract_8,2,1,48,54,1833384476
47,12,24,Jits_Pract_8,3,5,56,103,1833432372
47,12,24,Jits_Pract_8,0,5,63,98,1834161496
47,12,24,Jits_Pract_8,1,5,56,103,1834192220
47,12,24,Jits_Pract_8,2,1,48,48,1834200964
47,12,24,Jits_Pract_8,3,5,80,127,1834251704
47,12,24,Jits_Pract_8,0,5,56,103,1834901848
47,12,24,Jits_Pract_8,1,5,80,127,1834904912
47,12,24,Jits_Pract_8,2,1,48,47,1835009256
47,12,24,Jits_Pract_8,3,5,63,98,1835021636
47,12,24,Jits_Pract_8,0,1,48,53,1835662316
47,12,24,Jits_Pract_8,1,5,56,103,1835781384
47,12,24,Jits_Pract_8,2,5,80,127,1835821396
47,12,24,Jits_Pract_8,3,5,63,98,1835831516
47,12,24,Jits_Pract_8,0,5,56,103,1836542280
47,12,24,Jits_Pract_8,1,5,80,127,1836561768
47,12,24,Jits_Pract_8,2,1,48,53,1836562884
47,12,24,Jits_Pract_8,3,5,63,98,1836641580
47,12,24,Jits_Pract_8,0,5,80,127,1837331940
47,12,24,Jits_Pract_8,1,1,48,51,1837402516
47,12,24,Jits_Pract_8,2,5,56,103,1837432132
47,12,24,Jits_Pract_8,3,5,63,98,1837442552
47,12,24,Jits_Pract_8,0,5,63,98,1838101820
47,12,24,Jits_Pract_8,1,5,80,127,1838162236
47,12,24,Jits_Pract_8,2,5,56,103,1838171388
47,12,24,Jits_Pract_8,3,1,48,56,1838224096
47,12,24,Jits_Pract_8,0,5,56,103,1838901724
47,12,24,Jits_Pract_8,1,1,48,52,1838937228
47,12,24,Jits_Pract_8,2,5,63,98,1838972244
47,12,24,Jits_Pract_8,3,5,80,127,1838975680
47,12,24,Jits_Pract_8,0,9999,9999,9999,1828149324
47,12,24,Jits_Pract_8,1,9999,9999,9999,1828950084
47,12,24,Jits_Pract_8,2,9999,9999,9999,1829760120
47,12,24,Jits_Pract_8,3,9999,9999,9999,1830570080
47,12,24,Jits_Pract_8,4,9999,9999,9999,1831369844
47,12,24,Jits_Pract_8,5,9999,9999,9999,1832169532
47,12,24,Jits_Pract_8,6,9999,9999,9999,1832969300
47,12,24,Jits_Pract_8,7,9999,9999,9999,1833770048
47,12,24,Jits_Pract_8,8,9999,9999,9999,1834569852
47,12,24,Jits_Pract_8,9,9999,9999,9999,1835369524
47,12,24,Jits_Pract_8,10,9999,9999,9999,1836169304
47,12,24,Jits_Pract_8,11,9999,9999,9999,1836970036
47,12,24,Jits_Pract_8,12,9999,9999,9999,1837769812
47,12,24,Jits_Pract_8,13,9999,9999,9999,1838569580
47,12,24,Jits_Pract_8,14,9999,9999,9999,1839369324
47,13,25,Jits_Pract_5,0,5,56,103,1852153236
47,13,25,Jits_Pract_5,1,5,63,98,1852156256
47,13,25,Jits_Pract_5,2,5,80,127,1852159532
47,13,25,Jits_Pract_5,0,5,56,103,1852652888
47,13,25,Jits_Pract_5,1,5,63,98,1852655984
47,13,25,Jits_Pract_5,2,5,80,127,1852659108
47,13,25,Jits_Pract_5,3,1,48,24,1852792688
47,13,25,Jits_Pract_5,0,1,48,30,1853109320
47,13,25,Jits_Pract_5,1,5,56,103,1853152732
47,13,25,Jits_Pract_5,2,5,80,127,1853162780
47,13,25,Jits_Pract_5,3,5,63,98,1853183312
47,13,25,Jits_Pract_5,0,5,63,98,1853603060
47,13,25,Jits_Pract_5,1,1,48,42,1853604100
47,13,25,Jits_Pract_5,2,5,80,127,1853632952
47,13,25,Jits_Pract_5,3,5,56,103,1853643000
47,13,25,Jits_Pract_5,0,1,48,41,1854118292
47,13,25,Jits_Pract_5,1,5,80,127,1854163428
47,13,25,Jits_Pract_5,2,5,56,103,1854172652
47,13,25,Jits_Pract_5,3,5,63,98,1854203372
47,13,25,Jits_Pract_5,0,5,63,98,1854652864
47,13,25,Jits_Pract_5,1,5,56,103,1854682764
47,13,25,Jits_Pract_5,2,1,48,47,1854686032
47,13,25,Jits_Pract_5,3,5,80,127,1854692880
47,13,25,Jits_Pract_5,0,5,56,103,1855103264
47,13,25,Jits_Pract_5,1,5,63,98,1855152640
47,13,25,Jits_Pract_5,2,1,48,44,1855164828
47,13,25,Jits_Pract_5,3,5,80,127,1855172944
47,13,25,Jits_Pract_5,0,5,80,127,1855603040
47,13,25,Jits_Pract_5,1,1,48,36,1855615152
47,13,25,Jits_Pract_5,2,5,63,98,1855653088
47,13,25,Jits_Pract_5,3,5,56,103,1855693100
47,13,25,Jits_Pract_5,0,5,56,103,1856102896
47,13,25,Jits_Pract_5,1,1,48,37,1856125644
47,13,25,Jits_Pract_5,2,5,63,98,1856132640
47,13,25,Jits_Pract_5,3,5,80,127,1856203068
47,13,25,Jits_Pract_5,0,1,48,38,1856593132
47,13,25,Jits_Pract_5,1,5,56,103,1856602592
47,13,25,Jits_Pract_5,2,5,80,127,1856662836
47,13,25,Jits_Pract_5,3,5,63,98,1856692720
47,13,25,Jits_Pract_5,0,5,56,103,1857112628
47,13,25,Jits_Pract_5,1,5,63,98,1857122900
47,13,25,Jits_Pract_5,2,1,48,43,1857150064
47,13,25,Jits_Pract_5,3,5,80,127,1857162832
47,13,25,Jits_Pract_5,0,1,48,46,1857588216
47,13,25,Jits_Pract_5,1,5,63,98,1857602812
47,13,25,Jits_Pract_5,2,5,80,127,1857682816
47,13,25,Jits_Pract_5,3,5,56,103,1857693160
47,13,25,Jits_Pract_5,0,1,48,40,1858146976
47,13,25,Jits_Pract_5,1,5,63,98,1858152776
47,13,25,Jits_Pract_5,2,5,56,103,1858192788
47,13,25,Jits_Pract_5,3,5,80,127,1858195928
47,13,25,Jits_Pract_5,0,5,56,103,1858612660
47,13,25,Jits_Pract_5,1,5,63,98,1858622804
47,13,25,Jits_Pract_5,2,1,48,39,1858645996
47,13,25,Jits_Pract_5,3,5,80,127,1858662736
47,13,25,Jits_Pract_5,0,1,48,44,1859100552
47,13,25,Jits_Pract_5,1,5,56,103,1859103136
47,13,25,Jits_Pract_5,2,5,63,98,1859106348
47,13,25,Jits_Pract_5,3,5,80,127,1859122620
47,13,25,Jits_Pract_5,0,9999,9999,9999,1852400748
47,13,25,Jits_Pract_5,1,9999,9999,9999,1852900452
47,13,25,Jits_Pract_5,2,9999,9999,9999,1853400160
47,13,25,Jits_Pract_5,3,9999,9999,9999,1853900896
47,13,25,Jits_Pract_5,4,9999,9999,9999,1854400592
47,13,25,Jits_Pract_5,5,9999,9999,9999,1854900288
47,13,25,Jits_Pract_5,6,9999,9999,9999,1855401024
47,13,25,Jits_Pract_5,7,9999,9999,9999,1855900732
47,13,25,Jits_Pract_5,8,9999,9999,9999,1856400436
47,13,25,Jits_Pract_5,9,9999,9999,9999,1856900212
47,13,25,Jits_Pract_5,10,9999,9999,9999,1857400952
47,13,25,Jits_Pract_5,11,9999,9999,9999,1857900656
47,13,25,Jits_Pract_5,12,9999,9999,9999,1858400344
47,13,25,Jits_Pract_5,13,9999,9999,9999,1858901080
47,13,25,Jits_Pract_5,14,9999,9999,9999,1859400768
47,14,15,Jits_Phase_8,0,5,56,103,1886661012
47,14,15,Jits_Phase_8,1,5,63,98,1886664108
47,14,15,Jits_Phase_8,2,5,80,127,1886667232
47,14,15,Jits_Phase_8,0,1,48,30,1887094016
47,14,15,Jits_Phase_8,1,5,56,103,1887460860
47,14,15,Jits_Phase_8,2,5,63,98,1887463808
47,14,15,Jits_Phase_8,3,5,80,127,1887466928
47,14,15,Jits_Phase_8,0,1,48,33,1888054988
47,14,15,Jits_Phase_8,1,5,80,127,1888201052
47,14,15,Jits_Phase_8,2,5,63,98,1888291260
47,14,15,Jits_Phase_8,3,5,56,103,1888301456
47,14,15,Jits_Phase_8,0,5,56,103,1889021284
47,14,15,Jits_Phase_8,1,5,63,98,1889030732
47,14,15,Jits_Phase_8,2,1,48,41,1889080480
47,14,15,Jits_Phase_8,3,5,80,127,1889120880
47,14,15,Jits_Phase_8,0,5,63,98,1889791240
47,14,15,Jits_Phase_8,1,5,80,127,1889821064
47,14,15,Jits_Phase_8,2,5,56,103,1889850836
47,14,15,Jits_Phase_8,3,1,48,45,1889854932
47,14,15,Jits_Phase_8,0,5,56,103,1890590992
47,14,15,Jits_Phase_8,1,1,48,48,1890599964
47,14,15,Jits_Phase_8,2,5,80,127,1890690288
47,14,15,Jits_Phase_8,3,5,63,98,1890740844
47,14,15,Jits_Phase_8,0,5,56,103,1891390940
47,14,15,Jits_Phase_8,1,5,80,127,1891440996
47,14,15,Jits_Phase_8,2,1,48,48,1891474080
47,14,15,Jits_Phase_8,3,5,63,98,1891480852
47,14,15,Jits_Phase_8,0,5,80,127,1892221204
47,14,15,Jits_Phase_8,1,1,48,42,1892231140
47,14,15,Jits_Phase_8,2,5,63,98,1892250948
47,14,15,Jits_Phase_8,3,5,56,103,1892320848
47,14,15,Jits_Phase_8,0,5,63,98,1893050864
47,14,15,Jits_Phase_8,1,1,48,50,1893065820
47,14,15,Jits_Phase_8,2,5,56,103,1893080460
47,14,15,Jits_Phase_8,3,5,80,127,1893140848
47,14,15,Jits_Phase_8,0,5,56,103,1893791064
47,14,15,Jits_Phase_8,1,5,80,127,1893794056
47,14,15,Jits_Phase_8,2,1,48,51,1893865196
47,14,15,Jits_Phase_8,3,5,63,98,1893911000
47,14,15,Jits_Phase_8,0,1,48,49,1894563220
47,14,15,Jits_Phase_8,1,5,56,103,1894670816
47,14,15,Jits_Phase_8,2,5,80,127,1894710756
47,14,15,Jits_Phase_8,3,5,63,98,1894721052
47,14,15,Jits_Phase_8,0,1,48,52,1895416020
47,14,15,Jits_Phase_8,1,5,56,103,1895430808
47,14,15,Jits_Phase_8,2,5,80,127,1895451120
47,14,15,Jits_Phase_8,3,5,63,98,1895530848
47,14,15,Jits_Phase_8,0,5,80,127,1896220988
47,14,15,Jits_Phase_8,1,1,48,53,1896301300
47,14,15,Jits_Phase_8,2,5,56,103,1896321552
47,14,15,Jits_Phase_8,3,5,63,98,1896330704
47,14,15,Jits_Phase_8,0,5,63,98,1896991020
47,14,15,Jits_Phase_8,1,5,80,127,1897050688
47,14,15,Jits_Phase_8,2,5,56,103,1897060812
47,14,15,Jits_Phase_8,3,1,48,48,1897115840
47,14,15,Jits_Phase_8,0,1,48,55,1897767284
47,14,15,Jits_Phase_8,1,5,56,103,1897790720
47,14,15,Jits_Phase_8,2,5,63,98,1897860912
47,14,15,Jits_Phase_8,3,5,80,127,1897864120
47,14,15,Jits_Phase_8,0,1,48,52,1898549660
47,14,15,Jits_Phase_8,1,5,63,98,1898621476
47,14,15,Jits_Phase_8,2,5,56,103,1898670544
47,14,15,Jits_Phase_8,3,5,80,127,1898673760
47,14,15,Jits_Phase_8,0,5,56,103,1899381068
47,14,15,Jits_Phase_8,1,5,80,127,1899384208
47,14,15,Jits_Phase_8,2,5,63,98,1899471348
47,14,15,Jits_Phase_8,3,1,48,45,1899474392
47,14,15,Jits_Phase_8,0,1,48,50,1900220080
47,14,15,Jits_Phase_8,1,5,63,98,1900221876
47,14,15,Jits_Phase_8,2,5,56,103,1900311040
47,14,15,Jits_Phase_8,3,5,80,127,1900340700
47,14,15,Jits_Phase_8,0,5,56,103,1901011308
47,14,15,Jits_Phase_8,1,1,48,48,1901043348
47,14,15,Jits_Phase_8,2,5,63,98,1901110728
47,14,15,Jits_Phase_8,3,5,80,127,1901141532
47,14,15,Jits_Phase_8,0,5,63,98,1901830568
47,14,15,Jits_Phase_8,1,5,56,103,1901840688
47,14,15,Jits_Phase_8,2,1,48,48,1901864556
47,14,15,Jits_Phase_8,3,5,80,127,1901930912
47,14,15,Jits_Phase_8,0,1,48,48,1902627584
47,14,15,Jits_Phase_8,1,5,63,98,1902650796
47,14,15,Jits_Phase_8,2,5,56,103,1902730800
47,14,15,Jits_Phase_8,3,5,80,127,1902733716
47,14,15,Jits_Phase_8,0,5,80,127,1903410600
47,14,15,Jits_Phase_8,1,5,63,98,1903431012
47,14,15,Jits_Phase_8,2,1,48,48,1903442896
47,14,15,Jits_Phase_8,3,5,56,103,1903490496
47,14,15,Jits_Phase_8,0,1,48,50,1904167176
47,14,15,Jits_Phase_8,1,5,56,103,1904251372
47,14,15,Jits_Phase_8,2,5,63,98,1904270768
47,14,15,Jits_Phase_8,3,5,80,127,1904274132
47,14,15,Jits_Phase_8,0,1,48,50,1904967024
47,14,15,Jits_Phase_8,1,5,63,98,1904990588
47,14,15,Jits_Phase_8,2,5,80,127,1905070592
47,14,15,Jits_Phase_8,3,5,56,103,1905080712
47,14,15,Jits_Phase_8,0,5,63,98,1905811020
47,14,15,Jits_Phase_8,1,1,48,54,1905824624
47,14,15,Jits_Phase_8,2,5,56,103,1905831324
47,14,15,Jits_Phase_8,3,5,80,127,1905880700
47,14,15,Jits_Phase_8,0,1,48,55,1906577472
47,14,15,Jits_Phase_8,1,5,80,127,1906610548
47,14,15,Jits_Phase_8,2,5,63,98,1906650488
47,14,15,Jits_Phase_8,3,5,56,103,1906670932
47,14,15,Jits_Phase_8,0,1,48,50,1907393796
47,14,15,Jits_Phase_8,1,5,56,103,1907451436
47,14,15,Jits_Phase_8,2,5,63,98,1907460732
47,14,15,Jits_Phase_8,3,5,80,127,1907481192
47,14,15,Jits_Phase_8,0,1,48,51,1908177140
47,14,15,Jits_Phase_8,1,5,56,103,1908181592
47,14,15,Jits_Phase_8,2,5,63,98,1908270532
47,14,15,Jits_Phase_8,3,5,80,127,1908330856
47,14,15,Jits_Phase_8,0,1,48,49,1908994956
47,14,15,Jits_Phase_8,1,5,80,127,1909010944
47,14,15,Jits_Phase_8,2,5,56,103,1909021216
47,14,15,Jits_Phase_8,3,5,63,98,1909090772
47,14,15,Jits_Phase_8,0,1,48,54,1909807148
47,14,15,Jits_Phase_8,1,5,63,98,1909841368
47,14,15,Jits_Phase_8,2,5,80,127,1909931416
47,14,15,Jits_Phase_8,3,5,56,103,1909940564
47,14,15,Jits_Phase_8,0,5,63,98,1910571512
47,14,15,Jits_Phase_8,1,5,80,127,1910620468
47,14,15,Jits_Phase_8,2,1,48,59,1910668472
47,14,15,Jits_Phase_8,3,5,56,103,1910681076
47,14,15,Jits_Phase_8,0,1,48,49,1911356652
47,14,15,Jits_Phase_8,1,5,56,103,1911390624
47,14,15,Jits_Phase_8,2,5,80,127,1911440752
47,14,15,Jits_Phase_8,3,5,63,98,1911461344
47,14,15,Jits_Phase_8,0,5,56,103,1912160644
47,14,15,Jits_Phase_8,1,1,48,52,1912209772
47,14,15,Jits_Phase_8,2,5,80,127,1912220956
47,14,15,Jits_Phase_8,3,5,63,98,1912290636
47,14,15,Jits_Phase_8,0,1,48,53,1912904560
47,14,15,Jits_Phase_8,1,5,56,103,1912961532
47,14,15,Jits_Phase_8,2,5,80,127,1912991208
47,14,15,Jits_Phase_8,3,5,63,98,1913020644
47,14,15,Jits_Phase_8,0,1,48,57,1913709792
47,14,15,Jits_Phase_8,1,5,56,103,1913801068
47,14,15,Jits_Phase_8,2,5,80,127,1913820468
47,14,15,Jits_Phase_8,3,5,63,98,1913881080
47,14,15,Jits_Phase_8,0,1,48,60,1914562816
47,14,15,Jits_Phase_8,1,5,80,127,1914680780
47,14,15,Jits_Phase_8,2,5,56,103,1914690900
47,14,15,Jits_Phase_8,3,5,63,98,1914701096
47,14,15,Jits_Phase_8,0,5,56,103,1915440384
47,14,15,Jits_Phase_8,1,1,48,59,1915447192
47,14,15,Jits_Phase_8,2,5,80,127,1915480564
47,14,15,Jits_Phase_8,3,5,63,98,1915511212
47,14,15,Jits_Phase_8,0,5,56,103,1916210568
47,14,15,Jits_Phase_8,1,1,48,53,1916237452
47,14,15,Jits_Phase_8,2,5,63,98,1916241236
47,14,15,Jits_Phase_8,3,5,80,127,1916281324
47,14,15,Jits_Phase_8,0,5,80,127,1916961344
47,14,15,Jits_Phase_8,1,5,63,98,1917011420
47,14,15,Jits_Phase_8,2,1,48,54,1917017532
47,14,15,Jits_Phase_8,3,5,56,103,1917030752
47,14,15,Jits_Phase_8,0,1,48,53,1917778548
47,14,15,Jits_Phase_8,1,5,56,103,1917790648
47,14,15,Jits_Phase_8,2,5,80,127,1917861228
47,14,15,Jits_Phase_8,3,5,63,98,1917920480
47,14,15,Jits_Phase_8,0,5,80,127,1918591388
47,14,15,Jits_Phase_8,1,1,48,48,1918609872
47,14,15,Jits_Phase_8,2,5,63,98,1918680544
47,14,15,Jits_Phase_8,3,5,56,103,1918700852
47,14,15,Jits_Phase_8,0,1,48,54,1919374196
47,14,15,Jits_Phase_8,1,5,63,98,1919410492
47,14,15,Jits_Phase_8,2,5,56,103,1919431100
47,14,15,Jits_Phase_8,3,5,80,127,1919471168
47,14,15,Jits_Phase_8,0,1,48,52,1920126600
47,14,15,Jits_Phase_8,1,5,80,127,1920171364
47,14,15,Jits_Phase_8,2,5,63,98,1920190924
47,14,15,Jits_Phase_8,3,5,56,103,1920270628
47,14,15,Jits_Phase_8,0,1,48,51,1920892424
47,14,15,Jits_Phase_8,1,5,63,98,1920960856
47,14,15,Jits_Phase_8,2,5,56,103,1921070296
47,14,15,Jits_Phase_8,3,5,80,127,1921073668
47,14,15,Jits_Phase_8,0,1,48,52,1921776600
47,14,15,Jits_Phase_8,1,5,63,98,1921781352
47,14,15,Jits_Phase_8,2,5,56,103,1921791400
47,14,15,Jits_Phase_8,3,5,80,127,1921794688
47,14,15,Jits_Phase_8,0,1,48,51,1922455196
47,14,15,Jits_Phase_8,1,5,56,103,1922561376
47,14,15,Jits_Phase_8,2,5,80,127,1922681276
47,14,15,Jits_Phase_8,3,5,63,98,1922721364
47,14,15,Jits_Phase_8,0,5,56,103,1923380488
47,14,15,Jits_Phase_8,1,5,80,127,1923460608
47,14,15,Jits_Phase_8,2,5,63,98,1923481068
47,14,15,Jits_Phase_8,3,1,48,61,1923502468
47,14,15,Jits_Phase_8,0,1,48,45,1924088888
47,14,15,Jits_Phase_8,1,5,56,103,1924181252
47,14,15,Jits_Phase_8,2,5,63,98,1924291220
47,14,15,Jits_Phase_8,3,5,80,127,1924294436
47,14,15,Jits_Phase_8,0,1,48,46,1924971092
47,14,15,Jits_Phase_8,1,5,56,103,1925021012
47,14,15,Jits_Phase_8,2,5,80,127,1925050688
47,14,15,Jits_Phase_8,3,5,63,98,1925071132
47,14,15,Jits_Phase_8,0,1,48,45,1925730544
47,14,15,Jits_Phase_8,1,5,63,98,1925810508
47,14,15,Jits_Phase_8,2,5,56,103,1925821076
47,14,15,Jits_Phase_8,3,5,80,127,1925831404
47,14,15,Jits_Phase_8,0,1,48,46,1926532836
47,14,15,Jits_Phase_8,1,5,80,127,1926601044
47,14,15,Jits_Phase_8,2,5,56,103,1926651232
47,14,15,Jits_Phase_8,3,5,63,98,1926691240
47,14,15,Jits_Phase_8,0,1,48,51,1927361288
47,14,15,Jits_Phase_8,1,5,80,127,1927421252
47,14,15,Jits_Phase_8,2,5,63,98,1927440740
47,14,15,Jits_Phase_8,3,5,56,103,1927491096
47,14,15,Jits_Phase_8,0,1,48,51,1928230144
47,14,15,Jits_Phase_8,1,5,80,127,1928231944
47,14,15,Jits_Phase_8,2,5,56,103,1928261124
47,14,15,Jits_Phase_8,3,5,63,98,1928330488
47,14,15,Jits_Phase_8,0,1,48,50,1928969876
47,14,15,Jits_Phase_8,1,5,56,103,1929081092
47,14,15,Jits_Phase_8,2,5,80,127,1929090392
47,14,15,Jits_Phase_8,3,5,63,98,1929131300
47,14,15,Jits_Phase_8,0,5,56,103,1929790972
47,14,15,Jits_Phase_8,1,5,63,98,1929811280
47,14,15,Jits_Phase_8,2,1,48,45,1929848180
47,14,15,Jits_Phase_8,3,5,80,127,1929881176
47,14,15,Jits_Phase_8,0,1,48,47,1930420908
47,14,15,Jits_Phase_8,1,5,63,98,1930611020
47,14,15,Jits_Phase_8,2,5,80,127,1930670364
47,14,15,Jits_Phase_8,3,5,56,103,1930690972
47,14,15,Jits_Phase_8,0,5,80,127,1931400532
47,14,15,Jits_Phase_8,1,1,48,50,1931411068
47,14,15,Jits_Phase_8,2,5,56,103,1931431244
47,14,15,Jits_Phase_8,3,5,63,98,1931461068
47,14,15,Jits_Phase_8,0,1,48,47,1932178148
47,14,15,Jits_Phase_8,1,5,56,103,1932201412
47,14,15,Jits_Phase_8,2,5,63,98,1932260832
47,14,15,Jits_Phase_8,3,5,80,127,1932321204
47,14,15,Jits_Phase_8,0,1,48,52,1932993276
47,14,15,Jits_Phase_8,1,5,80,127,1933020500
47,14,15,Jits_Phase_8,2,5,56,103,1933041036
47,14,15,Jits_Phase_8,3,5,63,98,1933110648
47,14,15,Jits_Phase_8,0,5,80,127,1933821164
47,14,15,Jits_Phase_8,1,5,63,98,1933840876
47,14,15,Jits_Phase_8,2,1,48,51,1933868960
47,14,15,Jits_Phase_8,3,5,56,103,1933870692
47,14,15,Jits_Phase_8,0,1,48,52,1934572584
47,14,15,Jits_Phase_8,1,5,80,127,1934610964
47,14,15,Jits_Phase_8,2,5,63,98,1934631200
47,14,15,Jits_Phase_8,3,5,56,103,1934691072
47,14,15,Jits_Phase_8,0,5,80,127,1935410576
47,14,15,Jits_Phase_8,1,5,56,103,1935510924
47,14,15,Jits_Phase_8,2,1,48,48,1935513148
47,14,15,Jits_Phase_8,3,5,63,98,1935540520
47,14,15,Jits_Phase_8,0,5,63,98,1936201088
47,14,15,Jits_Phase_8,1,1,48,49,1936234024
47,14,15,Jits_Phase_8,2,5,80,127,1936251212
47,14,15,Jits_Phase_8,3,5,56,103,1936270992
47,14,15,Jits_Phase_8,0,1,48,50,1936926380
47,14,15,Jits_Phase_8,1,5,80,127,1937040828
47,14,15,Jits_Phase_8,2,5,56,103,1937070428
47,14,15,Jits_Phase_8,3,5,63,98,1937073420
47,14,15,Jits_Phase_8,0,1,48,51,1937749536
47,14,15,Jits_Phase_8,1,5,63,98,1937890772
47,14,15,Jits_Phase_8,2,5,56,103,1937930712
47,14,15,Jits_Phase_8,3,5,80,127,1937951020
47,14,15,Jits_Phase_8,0,5,80,127,1938650624
47,14,15,Jits_Phase_8,1,1,48,51,1938705512
47,14,15,Jits_Phase_8,2,5,63,98,1938731460
47,14,15,Jits_Phase_8,3,5,56,103,1938771276
47,14,15,Jits_Phase_8,0,5,63,98,1939470704
47,14,15,Jits_Phase_8,1,1,48,54,1939486404
47,14,15,Jits_Phase_8,2,5,80,127,1939550668
47,14,15,Jits_Phase_8,3,5,56,103,1939571128
47,14,15,Jits_Phase_8,0,1,48,48,1940232972
47,14,15,Jits_Phase_8,1,5,56,103,1940311544
47,14,15,Jits_Phase_8,2,5,63,98,1940320916
47,14,15,Jits_Phase_8,3,5,80,127,1940360836
47,14,15,Jits_Phase_8,0,1,48,38,1941025536
47,14,15,Jits_Phase_8,1,5,56,103,1941031412
47,14,15,Jits_Phase_8,2,5,80,127,1941034628
47,14,15,Jits_Phase_8,3,5,63,98,1941170476
47,14,15,Jits_Phase_8,0,5,56,103,1941820704
47,14,15,Jits_Phase_8,1,1,48,40,1941868708
47,14,15,Jits_Phase_8,2,5,63,98,1941910908
47,14,15,Jits_Phase_8,3,5,80,127,1941980648
47,14,15,Jits_Phase_8,0,1,48,43,1942549100
47,14,15,Jits_Phase_8,1,5,63,98,1942701444
47,14,15,Jits_Phase_8,2,5,80,127,1942704956
47,14,15,Jits_Phase_8,3,5,56,103,1942760788
47,14,15,Jits_Phase_8,0,1,48,48,1943455704
47,14,15,Jits_Phase_8,1,5,80,127,1943541000
47,14,15,Jits_Phase_8,2,5,56,103,1943560696
47,14,15,Jits_Phase_8,3,5,63,98,1943570968
47,14,15,Jits_Phase_8,0,1,48,45,1944250720
47,14,15,Jits_Phase_8,1,5,56,103,1944252356
47,14,15,Jits_Phase_8,2,5,63,98,1944261056
47,14,15,Jits_Phase_8,3,5,80,127,1944330736
47,14,15,Jits_Phase_8,0,1,48,48,1945019876
47,14,15,Jits_Phase_8,1,5,80,127,1945050764
47,14,15,Jits_Phase_8,2,5,56,103,1945100744
47,14,15,Jits_Phase_8,3,5,63,98,1945150732
47,14,15,Jits_Phase_8,0,1,48,46,1945824576
47,14,15,Jits_Phase_8,1,5,56,103,1945931080
47,14,15,Jits_Phase_8,2,5,63,98,1945941500
47,14,15,Jits_Phase_8,3,5,80,127,1945981288
47,14,15,Jits_Phase_8,0,1,48,47,1946670076
47,14,15,Jits_Phase_8,1,5,56,103,1946671792
47,14,15,Jits_Phase_8,2,5,63,98,1946711680
47,14,15,Jits_Phase_8,3,5,80,127,1946760536
47,14,15,Jits_Phase_8,0,5,80,127,1947431328
47,14,15,Jits_Phase_8,1,1,48,49,1947437512
47,14,15,Jits_Phase_8,2,5,56,103,1947480652
47,14,15,Jits_Phase_8,3,5,63,98,1947500884
47,14,15,Jits_Phase_8,0,1,48,44,1948221348
47,14,15,Jits_Phase_8,1,5,80,127,1948241156
47,14,15,Jits_Phase_8,2,5,63,98,1948300800
47,14,15,Jits_Phase_8,3,5,56,103,1948380576
47,14,15,Jits_Phase_8,0,5,80,127,1949020692
47,14,15,Jits_Phase_8,1,1,48,49,1949030936
47,14,15,Jits_Phase_8,2,5,56,103,1949060476
47,14,15,Jits_Phase_8,3,5,63,98,1949080936
47,14,15,Jits_Phase_8,0,1,48,48,1949776664
47,14,15,Jits_Phase_8,1,5,56,103,1949870576
47,14,15,Jits_Phase_8,2,5,80,127,1949880832
47,14,15,Jits_Phase_8,3,5,63,98,1949920548
47,14,15,Jits_Phase_8,0,1,48,56,1950652104
47,14,15,Jits_Phase_8,1,5,56,103,1950740836
47,14,15,Jits_Phase_8,2,5,63,98,1950780632
47,14,15,Jits_Phase_8,3,5,80,127,1950784148
47,14,15,Jits_Phase_8,0,5,63,98,1951410468
47,14,15,Jits_Phase_8,1,5,80,127,1951450404
47,14,15,Jits_Phase_8,2,1,48,52,1951480568
47,14,15,Jits_Phase_8,3,5,56,103,1951521124
47,14,15,Jits_Phase_8,0,1,48,47,1952178192
47,14,15,Jits_Phase_8,1,5,63,98,1952180548
47,14,15,Jits_Phase_8,2,5,56,103,1952260644
47,14,15,Jits_Phase_8,3,5,80,127,1952320820
47,14,15,Jits_Phase_8,0,1,48,43,1952980876
47,14,15,Jits_Phase_8,1,5,80,127,1952990572
47,14,15,Jits_Phase_8,2,5,63,98,1953040700
47,14,15,Jits_Phase_8,3,5,56,103,1953070520
47,14,15,Jits_Phase_8,0,5,56,103,1953781036
47,14,15,Jits_Phase_8,1,1,48,52,1953791428
47,14,15,Jits_Phase_8,2,5,63,98,1953831308
47,14,15,Jits_Phase_8,3,5,80,127,1953840532
47,14,15,Jits_Phase_8,0,1,48,42,1954586532
47,14,15,Jits_Phase_8,1,5,56,103,1954591064
47,14,15,Jits_Phase_8,2,5,63,98,1954700536
47,14,15,Jits_Phase_8,3,5,80,127,1954721292
47,14,15,Jits_Phase_8,0,5,63,98,1955390780
47,14,15,Jits_Phase_8,1,1,48,46,1955423640
47,14,15,Jits_Phase_8,2,5,80,127,1955441124
47,14,15,Jits_Phase_8,3,5,56,103,1955531312
47,14,15,Jits_Phase_8,0,5,63,98,1956181692
47,14,15,Jits_Phase_8,1,1,48,49,1956196500
47,14,15,Jits_Phase_8,2,5,80,127,1956210988
47,14,15,Jits_Phase_8,3,5,56,103,1956301032
47,14,15,Jits_Phase_8,0,5,63,98,1956981000
47,14,15,Jits_Phase_8,1,5,56,103,1956991344
47,14,15,Jits_Phase_8,2,1,48,47,1957050804
47,14,15,Jits_Phase_8,3,5,80,127,1957090532
47,14,15,Jits_Phase_8,0,1,48,48,1957698908
47,14,15,Jits_Phase_8,1,5,63,98,1957881348
47,14,15,Jits_Phase_8,2,5,80,127,1957910872
47,14,15,Jits_Phase_8,3,5,56,103,1957940572
47,14,15,Jits_Phase_8,0,1,48,47,1958681180
47,14,15,Jits_Phase_8,1,5,80,127,1958701508
47,14,15,Jits_Phase_8,2,5,63,98,1958710680
47,14,15,Jits_Phase_8,3,5,56,103,1958741548
47,14,15,Jits_Phase_8,0,5,80,127,1959400812
47,14,15,Jits_Phase_8,1,5,63,98,1959421496
47,14,15,Jits_Phase_8,2,5,56,103,1959470648
47,14,15,Jits_Phase_8,3,1,48,48,1959501588
47,14,15,Jits_Phase_8,0,5,63,98,1960231596
47,14,15,Jits_Phase_8,1,1,48,48,1960267328
47,14,15,Jits_Phase_8,2,5,80,127,1960290736
47,14,15,Jits_Phase_8,3,5,56,103,1960311492
47,14,15,Jits_Phase_8,0,5,63,98,1960991128
47,14,15,Jits_Phase_8,1,1,48,47,1961010808
47,14,15,Jits_Phase_8,2,5,56,103,1961041272
47,14,15,Jits_Phase_8,3,5,80,127,1961050420
47,14,15,Jits_Phase_8,0,1,48,50,1961810800
47,14,15,Jits_Phase_8,1,5,56,103,1961820492
47,14,15,Jits_Phase_8,2,5,80,127,1961830912
47,14,15,Jits_Phase_8,3,5,63,98,1961931292
47,14,15,Jits_Phase_8,0,5,80,127,1962581372
47,14,15,Jits_Phase_8,1,5,63,98,1962590448
47,14,15,Jits_Phase_8,2,1,48,46,1962711860
47,14,15,Jits_Phase_8,3,5,56,103,1962741400
47,14,15,Jits_Phase_8,0,5,63,98,1963391484
47,14,15,Jits_Phase_8,1,5,80,127,1963431496
47,14,15,Jits_Phase_8,2,1,48,43,1963442416
47,14,15,Jits_Phase_8,3,5,56,103,1963511208
47,14,15,Jits_Phase_8,0,5,56,103,1964140896
47,14,15,Jits_Phase_8,1,1,48,47,1964200060
47,14,15,Jits_Phase_8,2,5,80,127,1964241288
47,14,15,Jits_Phase_8,3,5,63,98,1964260624
47,14,15,Jits_Phase_8,0,1,48,44,1964858760
47,14,15,Jits_Phase_8,1,5,80,127,1964961328
47,14,15,Jits_Phase_8,2,5,56,103,1964971452
47,14,15,Jits_Phase_8,3,5,63,98,1965060460
47,14,15,Jits_Phase_8,0,1,48,47,1965709912
47,14,15,Jits_Phase_8,1,5,56,103,1965760884
47,14,15,Jits_Phase_8,2,5,63,98,1965781492
47,14,15,Jits_Phase_8,3,5,80,127,1965861268
47,14,15,Jits_Phase_8,0,5,63,98,1966510384
47,14,15,Jits_Phase_8,1,1,48,37,1966511944
47,14,15,Jits_Phase_8,2,5,56,103,1966600508
47,14,15,Jits_Phase_8,3,5,80,127,1966603652
47,14,15,Jits_Phase_8,0,1,48,43,1967311072
47,14,15,Jits_Phase_8,1,5,56,103,1967340988
47,14,15,Jits_Phase_8,2,5,80,127,1967401304
47,14,15,Jits_Phase_8,3,5,63,98,1967410516
47,14,15,Jits_Phase_8,0,1,48,43,1968139152
47,14,15,Jits_Phase_8,1,5,80,127,1968190748
47,14,15,Jits_Phase_8,2,5,56,103,1968201392
47,14,15,Jits_Phase_8,3,5,63,98,1968204232
47,14,15,Jits_Phase_8,0,5,56,103,1968950644
47,14,15,Jits_Phase_8,1,1,48,49,1968958396
47,14,15,Jits_Phase_8,2,5,80,127,1968961056
47,14,15,Jits_Phase_8,3,5,63,98,1968981292
47,14,15,Jits_Phase_8,0,1,48,45,1969706220
47,14,15,Jits_Phase_8,1,5,63,98,1969720736
47,14,15,Jits_Phase_8,2,5,80,127,1969781280
47,14,15,Jits_Phase_8,3,5,56,103,1969831240
47,14,15,Jits_Phase_8,0,1,48,49,1970478196
47,14,15,Jits_Phase_8,1,5,63,98,1970601320
47,14,15,Jits_Phase_8,2,5,56,103,1970610468
47,14,15,Jits_Phase_8,3,5,80,127,1970660596
47,14,15,Jits_Phase_8,0,5,63,98,1971300860
47,14,15,Jits_Phase_8,1,1,48,49,1971313048
47,14,15,Jits_Phase_8,2,5,80,127,1971321388
47,14,15,Jits_Phase_8,3,5,56,103,1971330312
47,14,15,Jits_Phase_8,0,1,48,44,1971997148
47,14,15,Jits_Phase_8,1,5,63,98,1972100356
47,14,15,Jits_Phase_8,2,5,80,127,1972103652
47,14,15,Jits_Phase_8,3,5,56,103,1972141496
47,14,15,Jits_Phase_8,0,1,48,46,1972802092
47,14,15,Jits_Phase_8,1,5,63,98,1972970976
47,14,15,Jits_Phase_8,2,5,80,127,1973000428
47,14,15,Jits_Phase_8,3,5,56,103,1973010772
47,14,15,Jits_Phase_8,0,1,48,46,1973701948
47,14,15,Jits_Phase_8,1,5,56,103,1973720476
47,14,15,Jits_Phase_8,2,5,80,127,1973751200
47,14,15,Jits_Phase_8,3,5,63,98,1973781100
47,14,15,Jits_Phase_8,0,1,48,40,1974460724
47,14,15,Jits_Phase_8,1,5,63,98,1974620492
47,14,15,Jits_Phase_8,2,5,56,103,1974660348
47,14,15,Jits_Phase_8,3,5,80,127,1974663420
47,14,15,Jits_Phase_8,0,1,48,43,1975312772
47,14,15,Jits_Phase_8,1,5,80,127,1975321112
47,14,15,Jits_Phase_8,2,5,56,103,1975401084
47,14,15,Jits_Phase_8,3,5,63,98,1975451120
47,14,15,Jits_Phase_8,0,5,80,127,1976101100
47,14,15,Jits_Phase_8,1,1,48,44,1976109020
47,14,15,Jits_Phase_8,2,5,56,103,1976120680
47,14,15,Jits_Phase_8,3,5,63,98,1976210944
47,14,15,Jits_Phase_8,0,1,48,45,1976919672
47,14,15,Jits_Phase_8,1,5,80,127,1976941192
47,14,15,Jits_Phase_8,2,5,63,98,1976981060
47,14,15,Jits_Phase_8,3,5,56,103,1977021056
47,14,15,Jits_Phase_8,0,1,48,41,1977686972
47,14,15,Jits_Phase_8,1,5,63,98,1977750924
47,14,15,Jits_Phase_8,2,5,80,127,1977811300
47,14,15,Jits_Phase_8,3,5,56,103,1977841048
47,14,15,Jits_Phase_8,0,1,48,49,1978514828
47,14,15,Jits_Phase_8,1,5,56,103,1978590532
47,14,15,Jits_Phase_8,2,5,80,127,1978621388
47,14,15,Jits_Phase_8,3,5,63,98,1978711468
47,14,15,Jits_Phase_8,0,5,56,103,1979400484
47,14,15,Jits_Phase_8,1,1,48,46,1979437980
47,14,15,Jits_Phase_8,2,5,80,127,1979511164
47,14,15,Jits_Phase_8,3,5,63,98,1979541044
47,14,15,Jits_Phase_8,0,1,48,46,1980202172
47,14,15,Jits_Phase_8,1,5,56,103,1980250400
47,14,15,Jits_Phase_8,2,5,63,98,1980310776
47,14,15,Jits_Phase_8,3,5,80,127,1980340596
47,14,15,Jits_Phase_8,0,1,48,46,1980996556
47,14,15,Jits_Phase_8,1,5,56,103,1981020568
47,14,15,Jits_Phase_8,2,5,63,98,1981091072
47,14,15,Jits_Phase_8,3,5,80,127,1981110920
47,14,15,Jits_Phase_8,0,1,48,43,1981790296
47,14,15,Jits_Phase_8,1,5,80,127,1981791932
47,14,15,Jits_Phase_8,2,5,63,98,1981810972
47,14,15,Jits_Phase_8,3,5,56,103,1981861172
47,14,15,Jits_Phase_8,0,1,48,47,1982569336
47,14,15,Jits_Phase_8,1,5,63,98,1982611092
47,14,15,Jits_Phase_8,2,5,80,127,1982620988
47,14,15,Jits_Phase_8,3,5,56,103,1982671100
47,14,15,Jits_Phase_8,0,1,48,41,1983383700
47,14,15,Jits_Phase_8,1,5,63,98,1983410400
47,14,15,Jits_Phase_8,2,5,80,127,1983481260
47,14,15,Jits_Phase_8,3,5,56,103,1983500748
47,14,15,Jits_Phase_8,0,1,48,42,1984224516
47,14,15,Jits_Phase_8,1,5,63,98,1984241024
47,14,15,Jits_Phase_8,2,5,80,127,1984244316
47,14,15,Jits_Phase_8,3,5,56,103,1984310732
47,14,15,Jits_Phase_8,0,5,80,127,1984990512
47,14,15,Jits_Phase_8,1,5,56,103,1985011120
47,14,15,Jits_Phase_8,2,5,63,98,1985021168
47,14,15,Jits_Phase_8,3,1,48,44,1985033352
47,14,15,Jits_Phase_8,0,5,56,103,1985810880
47,14,15,Jits_Phase_8,1,1,48,47,1985815720
47,14,15,Jits_Phase_8,2,5,63,98,1985900880
47,14,15,Jits_Phase_8,3,5,80,127,1985904320
47,14,15,Jits_Phase_8,0,5,80,127,1986580972
47,14,15,Jits_Phase_8,1,5,56,103,1986591020
47,14,15,Jits_Phase_8,2,1,48,45,1986608460
47,14,15,Jits_Phase_8,3,5,63,98,1986610888
47,14,15,Jits_Phase_8,0,1,48,51,1987334392
47,14,15,Jits_Phase_8,1,5,63,98,1987380744
47,14,15,Jits_Phase_8,2,5,80,127,1987440900
47,14,15,Jits_Phase_8,3,5,56,103,1987451244
47,14,15,Jits_Phase_8,0,1,48,50,1988114740
47,14,15,Jits_Phase_8,1,5,63,98,1988251064
47,14,15,Jits_Phase_8,2,5,80,127,1988280888
47,14,15,Jits_Phase_8,3,5,56,103,1988320828
47,14,15,Jits_Phase_8,0,5,56,103,1989040660
47,14,15,Jits_Phase_8,1,5,80,127,1989050780
47,14,15,Jits_Phase_8,2,1,48,50,1989069784
47,14,15,Jits_Phase_8,3,5,63,98,1989090788
47,14,15,Jits_Phase_8,0,5,80,127,1989801396
47,14,15,Jits_Phase_8,1,1,48,54,1989852248
47,14,15,Jits_Phase_8,2,5,56,103,1989881112
47,14,15,Jits_Phase_8,3,5,63,98,1989890636
47,14,15,Jits_Phase_8,0,5,80,127,1990651144
47,14,15,Jits_Phase_8,1,1,48,51,1990655164
47,14,15,Jits_Phase_8,2,5,56,103,1990731032
47,14,15,Jits_Phase_8,3,5,63,98,1990741228
47,14,15,Jits_Phase_8,0,5,80,127,1991490812
47,14,15,Jits_Phase_8,1,1,48,53,1991514080
47,14,15,Jits_Phase_8,2,5,56,103,1991541008
47,14,15,Jits_Phase_8,3,5,63,98,1991591136
47,14,15,Jits_Phase_8,0,1,48,53,1992350784
47,14,15,Jits_Phase_8,1,5,56,103,1992430972
47,14,15,Jits_Phase_8,2,5,63,98,1992433892
47,14,15,Jits_Phase_8,3,5,80,127,1992481156
47,14,15,Jits_Phase_8,0,1,48,50,1993238724
47,14,15,Jits_Phase_8,1,5,56,103,1993251252
47,14,15,Jits_Phase_8,2,5,63,98,1993280808
47,14,15,Jits_Phase_8,3,5,80,127,1993291076
47,14,15,Jits_Phase_8,0,5,63,98,1993960748
47,14,15,Jits_Phase_8,1,5,56,103,1994030652
47,14,15,Jits_Phase_8,2,1,48,49,1994046900
47,14,15,Jits_Phase_8,3,5,80,127,1994080572
47,14,15,Jits_Phase_8,0,1,48,50,1994771788
47,14,15,Jits_Phase_8,1,5,63,98,1994791216
47,14,15,Jits_Phase_8,2,5,56,103,1994800584
47,14,15,Jits_Phase_8,3,5,80,127,1994803676
47,14,15,Jits_Phase_8,0,5,80,127,1995540844
47,14,15,Jits_Phase_8,1,1,48,46,1995541736
47,14,15,Jits_Phase_8,2,5,56,103,1995601400
47,14,15,Jits_Phase_8,3,5,63,98,1995691664
47,14,15,Jits_Phase_8,0,5,80,127,1996340492
47,14,15,Jits_Phase_8,1,1,48,49,1996413508
47,14,15,Jits_Phase_8,2,5,56,103,1996440956
47,14,15,Jits_Phase_8,3,5,63,98,1996480820
47,14,15,Jits_Phase_8,0,5,56,103,1997190684
47,14,15,Jits_Phase_8,1,1,48,54,1997206612
47,14,15,Jits_Phase_8,2,5,63,98,1997210916
47,14,15,Jits_Phase_8,3,5,80,127,1997250780
47,14,15,Jits_Phase_8,0,5,63,98,1997960640
47,14,15,Jits_Phase_8,1,1,48,52,1997971252
47,14,15,Jits_Phase_8,2,5,56,103,1997981020
47,14,15,Jits_Phase_8,3,5,80,127,1998081400
47,14,15,Jits_Phase_8,0,1,48,47,1998733316
47,14,15,Jits_Phase_8,1,5,63,98,1998750952
47,14,15,Jits_Phase_8,2,5,80,127,1998860552
47,14,15,Jits_Phase_8,3,5,56,103,1998891568
47,14,15,Jits_Phase_8,0,5,56,103,1999571468
47,14,15,Jits_Phase_8,1,5,63,98,1999601220
47,14,15,Jits_Phase_8,2,5,80,127,1999651196
47,14,15,Jits_Phase_8,3,1,48,49,1999654540
47,14,15,Jits_Phase_8,0,1,48,46,2000332924
47,14,15,Jits_Phase_8,1,5,63,98,2000341488
47,14,15,Jits_Phase_8,2,5,56,103,2000371164
47,14,15,Jits_Phase_8,3,5,80,127,2000421512
47,14,15,Jits_Phase_8,0,1,48,49,2001079708
47,14,15,Jits_Phase_8,1,5,56,103,2001170760
47,14,15,Jits_Phase_8,2,5,63,98,2001191352
47,14,15,Jits_Phase_8,3,5,80,127,2001271024
47,14,15,Jits_Phase_8,0,1,48,49,2001931608
47,14,15,Jits_Phase_8,1,5,63,98,2001940920
47,14,15,Jits_Phase_8,2,5,56,103,2002001632
47,14,15,Jits_Phase_8,3,5,80,127,2002031072
47,14,15,Jits_Phase_8,0,5,56,103,2002780492
47,14,15,Jits_Phase_8,1,1,48,49,2002784208
47,14,15,Jits_Phase_8,2,5,80,127,2002841176
47,14,15,Jits_Phase_8,3,5,63,98,2002880816
47,14,15,Jits_Phase_8,0,5,63,98,2003560784
47,14,15,Jits_Phase_8,1,5,56,103,2003621472
47,14,15,Jits_Phase_8,2,1,48,48,2003643476
47,14,15,Jits_Phase_8,3,5,80,127,2003690776
47,14,15,Jits_Phase_8,0,1,48,47,2004356532
47,14,15,Jits_Phase_8,1,5,56,103,2004440556
47,14,15,Jits_Phase_8,2,5,63,98,2004450676
47,14,15,Jits_Phase_8,3,5,80,127,2004454188
47,14,15,Jits_Phase_8,0,1,48,46,2005171128
47,14,15,Jits_Phase_8,1,5,63,98,2005180668
47,14,15,Jits_Phase_8,2,5,56,103,2005241280
47,14,15,Jits_Phase_8,3,5,80,127,2005244348
47,14,15,Jits_Phase_8,0,5,63,98,2005961020
47,14,15,Jits_Phase_8,1,1,48,43,2005966160
47,14,15,Jits_Phase_8,2,5,80,127,2005990764
47,14,15,Jits_Phase_8,3,5,56,103,2006011220
47,14,15,Jits_Phase_8,0,5,56,103,2006691468
47,14,15,Jits_Phase_8,1,5,63,98,2006741448
47,14,15,Jits_Phase_8,2,1,48,41,2006785016
47,14,15,Jits_Phase_8,3,5,80,127,2006821308
47,14,15,Jits_Phase_8,0,5,80,127,2007390488
47,14,15,Jits_Phase_8,1,5,63,98,2007430652
47,14,15,Jits_Phase_8,2,5,56,103,2007450964
47,14,15,Jits_Phase_8,3,1,48,44,2007500456
47,14,15,Jits_Phase_8,0,1,48,40,2008141976
47,14,15,Jits_Phase_8,1,5,56,103,2008261112
47,14,15,Jits_Phase_8,2,5,80,127,2008271380
47,14,15,Jits_Phase_8,3,5,63,98,2008290716
47,14,15,Jits_Phase_8,0,1,48,41,2008965256
47,14,15,Jits_Phase_8,1,5,56,103,2009041180
47,14,15,Jits_Phase_8,2,5,63,98,2009090324
47,14,15,Jits_Phase_8,3,5,80,127,2009121192
47,14,15,Jits_Phase_8,0,5,56,103,2009790752
47,14,15,Jits_Phase_8,1,5,63,98,2009801396
47,14,15,Jits_Phase_8,2,1,48,42,2009809616
47,14,15,Jits_Phase_8,3,5,80,127,2009851516
47,14,15,Jits_Phase_8,0,1,48,42,2010525748
47,14,15,Jits_Phase_8,1,5,56,103,2010581440
47,14,15,Jits_Phase_8,2,5,80,127,2010584432
47,14,15,Jits_Phase_8,3,5,63,98,2010741252
47,14,15,Jits_Phase_8,0,5,63,98,2011400452
47,14,15,Jits_Phase_8,1,5,56,103,2011471356
47,14,15,Jits_Phase_8,2,5,80,127,2011511220
47,14,15,Jits_Phase_8,3,1,48,41,2011519144
47,14,15,Jits_Phase_8,0,1,48,38,2012184140
47,14,15,Jits_Phase_8,1,5,63,98,2012241212
47,14,15,Jits_Phase_8,2,5,56,103,2012331404
47,14,15,Jits_Phase_8,3,5,80,127,2012334396
47,14,15,Jits_Phase_8,0,1,48,48,2012977620
47,14,15,Jits_Phase_8,1,5,56,103,2013020512
47,14,15,Jits_Phase_8,2,5,63,98,2013110708
47,14,15,Jits_Phase_8,3,5,80,127,2013120976
47,14,15,Jits_Phase_8,0,5,56,103,2013790540
47,14,15,Jits_Phase_8,1,5,63,98,2013840816
47,14,15,Jits_Phase_8,2,1,48,51,2013844684
47,14,15,Jits_Phase_8,3,5,80,127,2013870408
47,14,15,Jits_Phase_8,0,1,48,47,2014544788
47,14,15,Jits_Phase_8,1,5,63,98,2014671348
47,14,15,Jits_Phase_8,2,5,80,127,2014680424
47,14,15,Jits_Phase_8,3,5,56,103,2014740884
47,14,15,Jits_Phase_8,0,5,63,98,2015391192
47,14,15,Jits_Phase_8,1,1,48,47,2015432596
47,14,15,Jits_Phase_8,2,5,80,127,2015450608
47,14,15,Jits_Phase_8,3,5,56,103,2015490320
47,14,15,Jits_Phase_8,0,1,48,46,2016156896
47,14,15,Jits_Phase_8,1,5,56,103,2016291100
47,14,15,Jits_Phase_8,2,5,80,127,2016310764
47,14,15,Jits_Phase_8,3,5,63,98,2016331072
47,14,15,Jits_Phase_8,0,5,63,98,2017011096
47,14,15,Jits_Phase_8,1,1,48,49,2017012584
47,14,15,Jits_Phase_8,2,5,56,103,2017030500
47,14,15,Jits_Phase_8,3,5,80,127,2017070440
47,14,15,Jits_Phase_8,0,1,48,42,2017706892
47,14,15,Jits_Phase_8,1,5,63,98,2017821020
47,14,15,Jits_Phase_8,2,5,80,127,2017850872
47,14,15,Jits_Phase_8,3,5,56,103,2017871180
47,14,15,Jits_Phase_8,0,1,48,43,2018522988
47,14,15,Jits_Phase_8,1,5,80,127,2018590972
47,14,15,Jits_Phase_8,2,5,56,103,2018641332
47,14,15,Jits_Phase_8,3,5,63,98,2018700600
47,14,15,Jits_Phase_8,0,5,63,98,2019380572
47,14,15,Jits_Phase_8,1,1,48,45,2019414184
47,14,15,Jits_Phase_8,2,5,56,103,2019501416
47,14,15,Jits_Phase_8,3,5,80,127,2019530996
47,14,15,Jits_Phase_8,0,1,48,42,2020211088
47,14,15,Jits_Phase_8,1,5,80,127,2020221300
47,14,15,Jits_Phase_8,2,5,63,98,2020240712
47,14,15,Jits_Phase_8,3,5,56,103,2020311428
47,14,15,Jits_Phase_8,0,1,48,47,2021029428
47,14,15,Jits_Phase_8,1,5,63,98,2021040468
47,14,15,Jits_Phase_8,2,5,56,103,2021050660
47,14,15,Jits_Phase_8,3,5,80,127,2021130664
47,14,15,Jits_Phase_8,0,1,48,46,2021788564
47,14,15,Jits_Phase_8,1,5,56,103,2021900672
47,14,15,Jits_Phase_8,2,5,80,127,2021931248
47,14,15,Jits_Phase_8,3,5,63,98,2021940644
47,14,15,Jits_Phase_8,0,9999,9999,9999,1887059048
47,14,15,Jits_Phase_8,1,9999,9999,9999,1887858744
47,14,15,Jits_Phase_8,2,9999,9999,9999,1888658504
47,14,15,Jits_Phase_8,3,9999,9999,9999,1889458260
47,14,15,Jits_Phase_8,4,9999,9999,9999,1890259000
47,14,15,Jits_Phase_8,5,9999,9999,9999,1891058760
47,14,15,Jits_Phase_8,6,9999,9999,9999,1891858532
47,14,15,Jits_Phase_8,7,9999,9999,9999,1892658304
47,14,15,Jits_Phase_8,8,9999,9999,9999,1893459000
47,14,15,Jits_Phase_8,9,9999,9999,9999,1894258744
47,14,15,Jits_Phase_8,10,9999,9999,9999,1895058520
47,14,15,Jits_Phase_8,11,9999,9999,9999,1895858280
47,14,15,Jits_Phase_8,12,9999,9999,9999,1896659016
47,14,15,Jits_Phase_8,13,9999,9999,9999,1897458784
47,14,15,Jits_Phase_8,14,9999,9999,9999,1898258532
47,14,15,Jits_Phase_8,15,9999,9999,9999,1899058280
47,14,15,Jits_Phase_8,16,9999,9999,9999,1899859012
47,14,15,Jits_Phase_8,17,9999,9999,9999,1900658788
47,14,15,Jits_Phase_8,18,9999,9999,9999,1901458552
47,14,15,Jits_Phase_8,19,9999,9999,9999,1902258252
47,14,15,Jits_Phase_8,20,9999,9999,9999,1903059056
47,14,15,Jits_Phase_8,21,9999,9999,9999,1903858812
47,14,15,Jits_Phase_8,22,9999,9999,9999,1904658504
47,14,15,Jits_Phase_8,23,9999,9999,9999,1905458260
47,14,15,Jits_Phase_8,24,9999,9999,9999,1906259008
47,14,15,Jits_Phase_8,25,9999,9999,9999,1907058764
47,14,15,Jits_Phase_8,26,9999,9999,9999,1907858528
47,14,15,Jits_Phase_8,27,9999,9999,9999,1908658284
47,14,15,Jits_Phase_8,28,9999,9999,9999,1909459012
47,14,15,Jits_Phase_8,29,9999,9999,9999,1910258776
47,14,15,Jits_Phase_8,30,9999,9999,9999,1911039056
47,14,15,Jits_Phase_8,31,9999,9999,9999,1911838816
47,14,15,Jits_Phase_8,32,9999,9999,9999,1912638524
47,14,15,Jits_Phase_8,33,9999,9999,9999,1913438292
47,14,15,Jits_Phase_8,34,9999,9999,9999,1914239096
47,14,15,Jits_Phase_8,35,9999,9999,9999,1915038788
47,14,15,Jits_Phase_8,36,9999,9999,9999,1915838556
47,14,15,Jits_Phase_8,37,9999,9999,9999,1916638328
47,14,15,Jits_Phase_8,38,9999,9999,9999,1917439068
47,14,15,Jits_Phase_8,39,9999,9999,9999,1918238844
47,14,15,Jits_Phase_8,40,9999,9999,9999,1919038556
47,14,15,Jits_Phase_8,41,9999,9999,9999,1919838332
47,14,15,Jits_Phase_8,42,9999,9999,9999,1920639060
47,14,15,Jits_Phase_8,43,9999,9999,9999,1921438808
47,14,15,Jits_Phase_8,44,9999,9999,9999,1922238548
47,14,15,Jits_Phase_8,45,9999,9999,9999,1923038308
47,14,15,Jits_Phase_8,46,9999,9999,9999,1923839040
47,14,15,Jits_Phase_8,47,9999,9999,9999,1924638804
47,14,15,Jits_Phase_8,48,9999,9999,9999,1925459040
47,14,15,Jits_Phase_8,49,9999,9999,9999,1926258796
47,14,15,Jits_Phase_8,50,9999,9999,9999,1927058552
47,14,15,Jits_Phase_8,51,9999,9999,9999,1927858232
47,14,15,Jits_Phase_8,52,9999,9999,9999,1928659040
47,14,15,Jits_Phase_8,53,9999,9999,9999,1929458808
47,14,15,Jits_Phase_8,54,9999,9999,9999,1930258488
47,14,15,Jits_Phase_8,55,9999,9999,9999,1931058256
47,14,15,Jits_Phase_8,56,9999,9999,9999,1931859004
47,14,15,Jits_Phase_8,57,9999,9999,9999,1932658772
47,14,15,Jits_Phase_8,58,9999,9999,9999,1933458532
47,14,15,Jits_Phase_8,59,9999,9999,9999,1934258288
47,14,15,Jits_Phase_8,60,9999,9999,9999,1935059032
47,14,15,Jits_Phase_8,61,9999,9999,9999,1935858796
47,14,15,Jits_Phase_8,62,9999,9999,9999,1936658488
47,14,15,Jits_Phase_8,63,9999,9999,9999,1937458236
47,14,15,Jits_Phase_8,64,9999,9999,9999,1938299000
47,14,15,Jits_Phase_8,65,9999,9999,9999,1939098688
47,14,15,Jits_Phase_8,66,9999,9999,9999,1939898468
47,14,15,Jits_Phase_8,67,9999,9999,9999,1940698232
47,14,15,Jits_Phase_8,68,9999,9999,9999,1941498952
47,14,15,Jits_Phase_8,69,9999,9999,9999,1942298712
47,14,15,Jits_Phase_8,70,9999,9999,9999,1943098432
47,14,15,Jits_Phase_8,71,9999,9999,9999,1943898200
47,14,15,Jits_Phase_8,72,9999,9999,9999,1944699000
47,14,15,Jits_Phase_8,73,9999,9999,9999,1945498688
47,14,15,Jits_Phase_8,74,9999,9999,9999,1946298456
47,14,15,Jits_Phase_8,75,9999,9999,9999,1947098216
47,14,15,Jits_Phase_8,76,9999,9999,9999,1947898944
47,14,15,Jits_Phase_8,77,9999,9999,9999,1948698716
47,14,15,Jits_Phase_8,78,9999,9999,9999,1949498496
47,14,15,Jits_Phase_8,79,9999,9999,9999,1950298196
47,14,15,Jits_Phase_8,80,9999,9999,9999,1951099000
47,14,15,Jits_Phase_8,81,9999,9999,9999,1951858752
47,14,15,Jits_Phase_8,82,9999,9999,9999,1952658512
47,14,15,Jits_Phase_8,83,9999,9999,9999,1953458264
47,14,15,Jits_Phase_8,84,9999,9999,9999,1954259064
47,14,15,Jits_Phase_8,85,9999,9999,9999,1955058764
47,14,15,Jits_Phase_8,86,9999,9999,9999,1955858520
47,14,15,Jits_Phase_8,87,9999,9999,9999,1956658276
47,14,15,Jits_Phase_8,88,9999,9999,9999,1957459024
47,14,15,Jits_Phase_8,89,9999,9999,9999,1958258788
47,14,15,Jits_Phase_8,90,9999,9999,9999,1959058556
47,14,15,Jits_Phase_8,91,9999,9999,9999,1959858236
47,14,15,Jits_Phase_8,92,9999,9999,9999,1960659060
47,14,15,Jits_Phase_8,93,9999,9999,9999,1961458812
47,14,15,Jits_Phase_8,94,9999,9999,9999,1962258500
47,14,15,Jits_Phase_8,95,9999,9999,9999,1963058256
47,14,15,Jits_Phase_8,96,9999,9999,9999,1963859024
47,14,15,Jits_Phase_8,97,9999,9999,9999,1964578900
47,14,15,Jits_Phase_8,98,9999,9999,9999,1965378628
47,14,15,Jits_Phase_8,99,9999,9999,9999,1966178388
47,14,15,Jits_Phase_8,100,9999,9999,9999,1966978140
47,14,15,Jits_Phase_8,101,9999,9999,9999,1967778872
47,14,15,Jits_Phase_8,102,9999,9999,9999,1968578620
47,14,15,Jits_Phase_8,103,9999,9999,9999,1969378376
47,14,15,Jits_Phase_8,104,9999,9999,9999,1970178148
47,14,15,Jits_Phase_8,105,9999,9999,9999,1970978884
47,14,15,Jits_Phase_8,106,9999,9999,9999,1971778660
47,14,15,Jits_Phase_8,107,9999,9999,9999,1972578396
47,14,15,Jits_Phase_8,108,9999,9999,9999,1973378160
47,14,15,Jits_Phase_8,109,9999,9999,9999,1974178880
47,14,15,Jits_Phase_8,110,9999,9999,9999,1974978644
47,14,15,Jits_Phase_8,111,9999,9999,9999,1975778400
47,14,15,Jits_Phase_8,112,9999,9999,9999,1976578156
47,14,15,Jits_Phase_8,113,9999,9999,9999,1977378900
47,14,15,Jits_Phase_8,114,9999,9999,9999,1978258548
47,14,15,Jits_Phase_8,115,9999,9999,9999,1979058304
47,14,15,Jits_Phase_8,116,9999,9999,9999,1979859036
47,14,15,Jits_Phase_8,117,9999,9999,9999,1980658812
47,14,15,Jits_Phase_8,118,9999,9999,9999,1981458504
47,14,15,Jits_Phase_8,119,9999,9999,9999,1982258280
47,14,15,Jits_Phase_8,120,9999,9999,9999,1983059008
47,14,15,Jits_Phase_8,121,9999,9999,9999,1983858768
47,14,15,Jits_Phase_8,122,9999,9999,9999,1984658524
47,14,15,Jits_Phase_8,123,9999,9999,9999,1985458272
47,14,15,Jits_Phase_8,124,9999,9999,9999,1986259008
47,14,15,Jits_Phase_8,125,9999,9999,9999,1987058764
47,14,15,Jits_Phase_8,126,9999,9999,9999,1987858532
47,14,15,Jits_Phase_8,127,9999,9999,9999,1988658248
47,14,15,Jits_Phase_8,128,9999,9999,9999,1989459052
47,14,15,Jits_Phase_8,129,9999,9999,9999,1990258752
47,14,15,Jits_Phase_8,130,9999,9999,9999,1991058532
47,14,15,Jits_Phase_8,131,9999,9999,9999,1992019032
47,14,15,Jits_Phase_8,132,9999,9999,9999,1992818800
47,14,15,Jits_Phase_8,133,9999,9999,9999,1993618492
47,14,15,Jits_Phase_8,134,9999,9999,9999,1994418252
47,14,15,Jits_Phase_8,135,9999,9999,9999,1995219040
47,14,15,Jits_Phase_8,136,9999,9999,9999,1996018796
47,14,15,Jits_Phase_8,137,9999,9999,9999,1996818500
47,14,15,Jits_Phase_8,138,9999,9999,9999,1997618296
47,14,15,Jits_Phase_8,139,9999,9999,9999,1998419040
47,14,15,Jits_Phase_8,140,9999,9999,9999,1999218800
47,14,15,Jits_Phase_8,141,9999,9999,9999,2000018556
47,14,15,Jits_Phase_8,142,9999,9999,9999,2000818248
47,14,15,Jits_Phase_8,143,9999,9999,9999,2001619052
47,14,15,Jits_Phase_8,144,9999,9999,9999,2002418804
47,14,15,Jits_Phase_8,145,9999,9999,9999,2003218492
47,14,15,Jits_Phase_8,146,9999,9999,9999,2004018288
47,14,15,Jits_Phase_8,147,9999,9999,9999,2004819016
47,14,15,Jits_Phase_8,148,9999,9999,9999,2005618764
47,14,15,Jits_Phase_8,149,9999,9999,9999,2006418520
47,14,15,Jits_Phase_8,150,9999,9999,9999,2007058532
47,14,15,Jits_Phase_8,151,9999,9999,9999,2007858252
47,14,15,Jits_Phase_8,152,9999,9999,9999,2008659000
47,14,15,Jits_Phase_8,153,9999,9999,9999,2009458760
47,14,15,Jits_Phase_8,154,9999,9999,9999,2010258512
47,14,15,Jits_Phase_8,155,9999,9999,9999,2011058272
47,14,15,Jits_Phase_8,156,9999,9999,9999,2011859004
47,14,15,Jits_Phase_8,157,9999,9999,9999,2012658760
47,14,15,Jits_Phase_8,158,9999,9999,9999,2013458524
47,14,15,Jits_Phase_8,159,9999,9999,9999,2014258304
47,14,15,Jits_Phase_8,160,9999,9999,9999,2015059052
47,14,15,Jits_Phase_8,161,9999,9999,9999,2015858808
47,14,15,Jits_Phase_8,162,9999,9999,9999,2016658504
47,14,15,Jits_Phase_8,163,9999,9999,9999,2017458260
47,14,15,Jits_Phase_8,164,9999,9999,9999,2018259064
47,14,15,Jits_Phase_8,165,9999,9999,9999,2019058744
47,14,15,Jits_Phase_8,166,9999,9999,9999,2019858504
47,14,15,Jits_Phase_8,167,9999,9999,9999,2020658284
47,14,15,Jits_Phase_8,168,9999,9999,9999,2021459016
47,14,15,Jits_Phase_8,169,9999,9999,9999,2022258784
47,15,17,Jits_Phase_5,0,5,56,103,2031083972
47,15,17,Jits_Phase_5,1,5,63,98,2031086920
47,15,17,Jits_Phase_5,2,5,80,127,2031090040
47,15,17,Jits_Phase_5,0,5,56,103,2031583684
47,15,17,Jits_Phase_5,1,5,63,98,2031586704
47,15,17,Jits_Phase_5,2,5,80,127,2031589824
47,15,17,Jits_Phase_5,3,1,48,35,2031657896
47,15,17,Jits_Phase_5,0,1,48,40,2032057488
47,15,17,Jits_Phase_5,1,5,56,103,2032084188
47,15,17,Jits_Phase_5,2,5,80,127,2032093636
47,15,17,Jits_Phase_5,3,5,63,98,2032113944
47,15,17,Jits_Phase_5,0,5,63,98,2032533976
47,15,17,Jits_Phase_5,1,1,48,48,2032563280
47,15,17,Jits_Phase_5,2,5,80,127,2032564912
47,15,17,Jits_Phase_5,3,5,56,103,2032573988
47,15,17,Jits_Phase_5,0,1,48,47,2033033988
47,15,17,Jits_Phase_5,1,5,80,127,2033094024
47,15,17,Jits_Phase_5,2,5,56,103,2033104444
47,15,17,Jits_Phase_5,3,5,63,98,2033133880
47,15,17,Jits_Phase_5,0,5,63,98,2033583748
47,15,17,Jits_Phase_5,1,1,48,49,2033585240
47,15,17,Jits_Phase_5,2,5,56,103,2033614088
47,15,17,Jits_Phase_5,3,5,80,127,2033624360
47,15,17,Jits_Phase_5,0,5,56,103,2034033980
47,15,17,Jits_Phase_5,1,5,63,98,2034084184
47,15,17,Jits_Phase_5,2,1,48,45,2034091656
47,15,17,Jits_Phase_5,3,5,80,127,2034103736
47,15,17,Jits_Phase_5,0,5,80,127,2034533896
47,15,17,Jits_Phase_5,1,1,48,47,2034543088
47,15,17,Jits_Phase_5,2,5,63,98,2034583864
47,15,17,Jits_Phase_5,3,5,56,103,2034623800
47,15,17,Jits_Phase_5,0,5,56,103,2035033588
47,15,17,Jits_Phase_5,1,5,63,98,2035064308
47,15,17,Jits_Phase_5,2,1,48,45,2035065272
47,15,17,Jits_Phase_5,3,5,80,127,2035133752
47,15,17,Jits_Phase_5,0,5,56,103,2035534324
47,15,17,Jits_Phase_5,1,1,48,46,2035569276
47,15,17,Jits_Phase_5,2,5,80,127,2035593584
47,15,17,Jits_Phase_5,3,5,63,98,2035624308
47,15,17,Jits_Phase_5,0,1,48,45,2036042924
47,15,17,Jits_Phase_5,1,5,56,103,2036044792
47,15,17,Jits_Phase_5,2,5,63,98,2036054540
47,15,17,Jits_Phase_5,3,5,80,127,2036094476
47,15,17,Jits_Phase_5,0,5,63,98,2036533612
47,15,17,Jits_Phase_5,1,1,48,46,2036537776
47,15,17,Jits_Phase_5,2,5,80,127,2036613624
47,15,17,Jits_Phase_5,3,5,56,103,2036623744
47,15,17,Jits_Phase_5,0,5,63,98,2037083632
47,15,17,Jits_Phase_5,1,1,48,38,2037091012
47,15,17,Jits_Phase_5,2,5,56,103,2037123564
47,15,17,Jits_Phase_5,3,5,80,127,2037126776
47,15,17,Jits_Phase_5,0,5,56,103,2037544244
47,15,17,Jits_Phase_5,1,5,63,98,2037553492
47,15,17,Jits_Phase_5,2,1,48,47,2037567624
47,15,17,Jits_Phase_5,3,5,80,127,2037593720
47,15,17,Jits_Phase_5,0,1,48,51,2038033588
47,15,17,Jits_Phase_5,1,5,56,103,2038035324
47,15,17,Jits_Phase_5,2,5,63,98,2038037848
47,15,17,Jits_Phase_5,3,5,80,127,2038054340
47,15,17,Jits_Phase_5,0,1,48,48,2038499648
47,15,17,Jits_Phase_5,1,5,80,127,2038543812
47,15,17,Jits_Phase_5,2,5,56,103,2038553932
47,15,17,Jits_Phase_5,3,5,63,98,2038623768
47,15,17,Jits_Phase_5,0,5,63,98,2039034204
47,15,17,Jits_Phase_5,1,5,56,103,2039053616
47,15,17,Jits_Phase_5,2,1,48,53,2039093696
47,15,17,Jits_Phase_5,3,5,80,127,2039133572
47,15,17,Jits_Phase_5,0,1,48,52,2039516684
47,15,17,Jits_Phase_5,1,5,56,103,2039544132
47,15,17,Jits_Phase_5,2,5,80,127,2039584068
47,15,17,Jits_Phase_5,3,5,63,98,2039594564
47,15,17,Jits_Phase_5,0,1,48,54,2040015684
47,15,17,Jits_Phase_5,1,5,80,127,2040033768
47,15,17,Jits_Phase_5,2,5,63,98,2040064416
47,15,17,Jits_Phase_5,3,5,56,103,2040104428
47,15,17,Jits_Phase_5,0,1,48,59,2040515884
47,15,17,Jits_Phase_5,1,5,56,103,2040553820
47,15,17,Jits_Phase_5,2,5,63,98,2040583492
47,15,17,Jits_Phase_5,3,5,80,127,2040633700
47,15,17,Jits_Phase_5,0,5,80,127,2041063912
47,15,17,Jits_Phase_5,1,1,48,59,2041080432
47,15,17,Jits_Phase_5,2,5,56,103,2041103844
47,15,17,Jits_Phase_5,3,5,63,98,2041113892
47,15,17,Jits_Phase_5,0,5,80,127,2041543976
47,15,17,Jits_Phase_5,1,5,63,98,2041583836
47,15,17,Jits_Phase_5,2,1,48,57,2041605612
47,15,17,Jits_Phase_5,3,5,56,103,2041644364
47,15,17,Jits_Phase_5,0,1,48,57,2042025204
47,15,17,Jits_Phase_5,1,5,56,103,2042043736
47,15,17,Jits_Phase_5,2,5,80,127,2042053856
47,15,17,Jits_Phase_5,3,5,63,98,2042133780
47,15,17,Jits_Phase_5,0,5,80,127,2042543488
47,15,17,Jits_Phase_5,1,1,48,54,2042575676
47,15,17,Jits_Phase_5,2,5,63,98,2042603796
47,15,17,Jits_Phase_5,3,5,56,103,2042633620
47,15,17,Jits_Phase_5,0,1,48,54,2043042716
47,15,17,Jits_Phase_5,1,5,56,103,2043044444
47,15,17,Jits_Phase_5,2,5,80,127,2043103716
47,15,17,Jits_Phase_5,3,5,63,98,2043143560
47,15,17,Jits_Phase_5,0,1,48,53,2043534664
47,15,17,Jits_Phase_5,1,5,56,103,2043594248
47,15,17,Jits_Phase_5,2,5,63,98,2043604516
47,15,17,Jits_Phase_5,3,5,80,127,2043607728
47,15,17,Jits_Phase_5,0,1,48,47,2044029820
47,15,17,Jits_Phase_5,1,5,80,127,2044043568
47,15,17,Jits_Phase_5,2,5,63,98,2044133612
47,15,17,Jits_Phase_5,3,5,56,103,2044143956
47,15,17,Jits_Phase_5,0,5,56,103,2044544360
47,15,17,Jits_Phase_5,1,5,63,98,2044547380
47,15,17,Jits_Phase_5,2,5,80,127,2044550652
47,15,17,Jits_Phase_5,3,1,48,48,2044574912
47,15,17,Jits_Phase_5,0,1,48,54,2045011628
47,15,17,Jits_Phase_5,1,5,80,127,2045063588
47,15,17,Jits_Phase_5,2,5,63,98,2045113772
47,15,17,Jits_Phase_5,3,5,56,103,2045144568
47,15,17,Jits_Phase_5,0,5,56,103,2045543864
47,15,17,Jits_Phase_5,1,5,80,127,2045553988
47,15,17,Jits_Phase_5,2,1,48,50,2045596432
47,15,17,Jits_Phase_5,3,5,63,98,2045623732
47,15,17,Jits_Phase_5,0,5,56,103,2046053816
47,15,17,Jits_Phase_5,1,1,48,48,2046064576
47,15,17,Jits_Phase_5,2,5,63,98,2046074420
47,15,17,Jits_Phase_5,3,5,80,127,2046133608
47,15,17,Jits_Phase_5,0,5,80,127,2046534324
47,15,17,Jits_Phase_5,1,1,48,47,2046585468
47,15,17,Jits_Phase_5,2,5,63,98,2046603628
47,15,17,Jits_Phase_5,3,5,56,103,2046624384
47,15,17,Jits_Phase_5,0,5,80,127,2047054396
47,15,17,Jits_Phase_5,1,5,56,103,2047064444
47,15,17,Jits_Phase_5,2,5,63,98,2047073596
47,15,17,Jits_Phase_5,3,1,48,45,2047101944
47,15,17,Jits_Phase_5,0,5,80,127,2047543676
47,15,17,Jits_Phase_5,1,1,48,41,2047556008
47,15,17,Jits_Phase_5,2,5,56,103,2047564424
47,15,17,Jits_Phase_5,3,5,63,98,2047633728
47,15,17,Jits_Phase_5,0,5,56,103,2048053704
47,15,17,Jits_Phase_5,1,1,48,47,2048064392
47,15,17,Jits_Phase_5,2,5,80,127,2048084420
47,15,17,Jits_Phase_5,3,5,63,98,2048103756
47,15,17,Jits_Phase_5,0,1,48,44,2048504560
47,15,17,Jits_Phase_5,1,5,63,98,2048544072
47,15,17,Jits_Phase_5,2,5,56,103,2048603500
47,15,17,Jits_Phase_5,3,5,80,127,2048634216
47,15,17,Jits_Phase_5,0,5,63,98,2049033560
47,15,17,Jits_Phase_5,1,5,80,127,2049036848
47,15,17,Jits_Phase_5,2,1,48,49,2049055704
47,15,17,Jits_Phase_5,3,5,56,103,2049123632
47,15,17,Jits_Phase_5,0,1,48,46,2049491076
47,15,17,Jits_Phase_5,1,5,56,103,2049553744
47,15,17,Jits_Phase_5,2,5,63,98,2049583520
47,15,17,Jits_Phase_5,3,5,80,127,2049624412
47,15,17,Jits_Phase_5,0,1,48,49,2050029476
47,15,17,Jits_Phase_5,1,5,63,98,2050053416
47,15,17,Jits_Phase_5,2,5,56,103,2050093352
47,15,17,Jits_Phase_5,3,5,80,127,2050113908
47,15,17,Jits_Phase_5,0,1,48,48,2050501352
47,15,17,Jits_Phase_5,1,5,63,98,2050563424
47,15,17,Jits_Phase_5,2,5,56,103,2050604396
47,15,17,Jits_Phase_5,3,5,80,127,2050613496
47,15,17,Jits_Phase_5,0,1,48,47,2051024712
47,15,17,Jits_Phase_5,1,5,80,127,2051043620
47,15,17,Jits_Phase_5,2,5,63,98,2051114496
47,15,17,Jits_Phase_5,3,5,56,103,2051133696
47,15,17,Jits_Phase_5,0,5,56,103,2051534384
47,15,17,Jits_Phase_5,1,5,80,127,2051553648
47,15,17,Jits_Phase_5,2,1,48,52,2051573624
47,15,17,Jits_Phase_5,3,5,63,98,2051593652
47,15,17,Jits_Phase_5,0,1,48,30,2052037856
47,15,17,Jits_Phase_5,1,5,63,98,2052044256
47,15,17,Jits_Phase_5,2,5,80,127,2052063592
47,15,17,Jits_Phase_5,3,5,56,103,2052103676
47,15,17,Jits_Phase_5,0,5,63,98,2052543860
47,15,17,Jits_Phase_5,1,1,48,47,2052550340
47,15,17,Jits_Phase_5,2,5,56,103,2052564460
47,15,17,Jits_Phase_5,3,5,80,127,2052573532
47,15,17,Jits_Phase_5,0,1,48,51,2053043380
47,15,17,Jits_Phase_5,1,5,80,127,2053045240
47,15,17,Jits_Phase_5,2,5,56,103,2053064132
47,15,17,Jits_Phase_5,3,5,63,98,2053093732
47,15,17,Jits_Phase_5,0,1,48,47,2053548484
47,15,17,Jits_Phase_5,1,5,56,103,2053613920
47,15,17,Jits_Phase_5,2,5,80,127,2053617208
47,15,17,Jits_Phase_5,3,5,63,98,2053634452
47,15,17,Jits_Phase_5,0,5,63,98,2054033656
47,15,17,Jits_Phase_5,1,1,48,43,2054048236
47,15,17,Jits_Phase_5,2,5,56,103,2054063552
47,15,17,Jits_Phase_5,3,5,80,127,2054123864
47,15,17,Jits_Phase_5,0,1,48,46,2054544912
47,15,17,Jits_Phase_5,1,5,63,98,2054614312
47,15,17,Jits_Phase_5,2,5,56,103,2054623536
47,15,17,Jits_Phase_5,3,5,80,127,2054633956
47,15,17,Jits_Phase_5,0,1,48,45,2055065272
47,15,17,Jits_Phase_5,1,5,56,103,2055074360
47,15,17,Jits_Phase_5,2,5,80,127,2055103740
47,15,17,Jits_Phase_5,3,5,63,98,2055114380
47,15,17,Jits_Phase_5,0,1,48,44,2055560964
47,15,17,Jits_Phase_5,1,5,63,98,2055613672
47,15,17,Jits_Phase_5,2,5,56,103,2055624164
47,15,17,Jits_Phase_5,3,5,80,127,2055643428
47,15,17,Jits_Phase_5,0,5,56,103,2056043828
47,15,17,Jits_Phase_5,1,1,48,49,2056069940
47,15,17,Jits_Phase_5,2,5,63,98,2056104284
47,15,17,Jits_Phase_5,3,5,80,127,2056107872
47,15,17,Jits_Phase_5,0,1,48,48,2056525044
47,15,17,Jits_Phase_5,1,5,80,127,2056564252
47,15,17,Jits_Phase_5,2,5,56,103,2056574448
47,15,17,Jits_Phase_5,3,5,63,98,2056643884
47,15,17,Jits_Phase_5,0,1,48,45,2057047708
47,15,17,Jits_Phase_5,1,5,80,127,2057053584
47,15,17,Jits_Phase_5,2,5,56,103,2057124164
47,15,17,Jits_Phase_5,3,5,63,98,2057133388
47,15,17,Jits_Phase_5,0,1,48,42,2057559596
47,15,17,Jits_Phase_5,1,5,63,98,2057594316
47,15,17,Jits_Phase_5,2,5,56,103,2057603392
47,15,17,Jits_Phase_5,3,5,80,127,2057624144
47,15,17,Jits_Phase_5,0,1,48,41,2058034036
47,15,17,Jits_Phase_5,1,5,80,127,2058043724
47,15,17,Jits_Phase_5,2,5,63,98,2058104192
47,15,17,Jits_Phase_5,3,5,56,103,2058144188
47,15,17,Jits_Phase_5,0,5,56,103,2058584388
47,15,17,Jits_Phase_5,1,5,63,98,2058593536
47,15,17,Jits_Phase_5,2,1,48,46,2058598072
47,15,17,Jits_Phase_5,3,5,80,127,2058633688
47,15,17,Jits_Phase_5,0,5,56,103,2059044120
47,15,17,Jits_Phase_5,1,5,80,127,2059074116
47,15,17,Jits_Phase_5,2,1,48,46,2059108172
47,15,17,Jits_Phase_5,3,5,63,98,2059124084
47,15,17,Jits_Phase_5,0,1,48,43,2059522500
47,15,17,Jits_Phase_5,1,5,56,103,2059583980
47,15,17,Jits_Phase_5,2,5,63,98,2059623976
47,15,17,Jits_Phase_5,3,5,80,127,2059627412
47,15,17,Jits_Phase_5,0,1,48,47,2060044496
47,15,17,Jits_Phase_5,1,5,56,103,2060083500
47,15,17,Jits_Phase_5,2,5,63,98,2060094068
47,15,17,Jits_Phase_5,3,5,80,127,2060114376
47,15,17,Jits_Phase_5,0,1,48,44,2060533676
47,15,17,Jits_Phase_5,1,5,56,103,2060544340
47,15,17,Jits_Phase_5,2,5,80,127,2060547480
47,15,17,Jits_Phase_5,3,5,63,98,2060584276
47,15,17,Jits_Phase_5,0,1,48,48,2061028300
47,15,17,Jits_Phase_5,1,5,63,98,2061084152
47,15,17,Jits_Phase_5,2,5,56,103,2061113852
47,15,17,Jits_Phase_5,3,5,80,127,2061134144
47,15,17,Jits_Phase_5,0,1,48,47,2061544024
47,15,17,Jits_Phase_5,1,5,80,127,2061553936
47,15,17,Jits_Phase_5,2,5,56,103,2061564132
47,15,17,Jits_Phase_5,3,5,63,98,2061573580
47,15,17,Jits_Phase_5,0,1,48,44,2062036196
47,15,17,Jits_Phase_5,1,5,56,103,2062053680
47,15,17,Jits_Phase_5,2,5,80,127,2062093620
47,15,17,Jits_Phase_5,3,5,63,98,2062124488
47,15,17,Jits_Phase_5,0,1,48,56,2062543892
47,15,17,Jits_Phase_5,1,5,63,98,2062563840
47,15,17,Jits_Phase_5,2,5,80,127,2062574036
47,15,17,Jits_Phase_5,3,5,56,103,2062584156
47,15,17,Jits_Phase_5,0,1,48,47,2063015016
47,15,17,Jits_Phase_5,1,5,56,103,2063054148
47,15,17,Jits_Phase_5,2,5,63,98,2063124036
47,15,17,Jits_Phase_5,3,5,80,127,2063134156
47,15,17,Jits_Phase_5,0,5,80,127,2063564092
47,15,17,Jits_Phase_5,1,1,48,51,2063573084
47,15,17,Jits_Phase_5,2,5,56,103,2063574952
47,15,17,Jits_Phase_5,3,5,63,98,2063623508
47,15,17,Jits_Phase_5,0,1,48,54,2064063076
47,15,17,Jits_Phase_5,1,5,80,127,2064074036
47,15,17,Jits_Phase_5,2,5,56,103,2064133528
47,15,17,Jits_Phase_5,3,5,63,98,2064164084
47,15,17,Jits_Phase_5,0,1,48,49,2064532708
47,15,17,Jits_Phase_5,1,5,56,103,2064574080
47,15,17,Jits_Phase_5,2,5,80,127,2064577220
47,15,17,Jits_Phase_5,3,5,63,98,2064613944
47,15,17,Jits_Phase_5,0,5,56,103,2065104168
47,15,17,Jits_Phase_5,1,1,48,50,2065107212
47,15,17,Jits_Phase_5,2,5,63,98,2065134136
47,15,17,Jits_Phase_5,3,5,80,127,2065144108
47,15,17,Jits_Phase_5,0,1,48,44,2065598576
47,15,17,Jits_Phase_5,1,5,63,98,2065614268
47,15,17,Jits_Phase_5,2,5,80,127,2065624536
47,15,17,Jits_Phase_5,3,5,56,103,2065633684
47,15,17,Jits_Phase_5,0,5,80,127,2066063904
47,15,17,Jits_Phase_5,1,1,48,38,2066079528
47,15,17,Jits_Phase_5,2,5,56,103,2066114096
47,15,17,Jits_Phase_5,3,5,63,98,2066117012
47,15,17,Jits_Phase_5,0,1,48,44,2066582504
47,15,17,Jits_Phase_5,1,5,56,103,2066594140
47,15,17,Jits_Phase_5,2,5,80,127,2066613552
47,15,17,Jits_Phase_5,3,5,63,98,2066623972
47,15,17,Jits_Phase_5,0,1,48,48,2067051224
47,15,17,Jits_Phase_5,1,5,63,98,2067074412
47,15,17,Jits_Phase_5,2,5,56,103,2067104084
47,15,17,Jits_Phase_5,3,5,80,127,2067123496
47,15,17,Jits_Phase_5,0,1,48,39,2067566788
47,15,17,Jits_Phase_5,1,5,56,103,2067584272
47,15,17,Jits_Phase_5,2,5,80,127,2067593716
47,15,17,Jits_Phase_5,3,5,63,98,2067665100
47,15,17,Jits_Phase_5,0,1,48,40,2068041352
47,15,17,Jits_Phase_5,1,5,63,98,2068073980
47,15,17,Jits_Phase_5,2,5,80,127,2068113916
47,15,17,Jits_Phase_5,3,5,56,103,2068153840
47,15,17,Jits_Phase_5,0,1,48,47,2068535644
47,15,17,Jits_Phase_5,1,5,56,103,2068584068
47,15,17,Jits_Phase_5,2,5,63,98,2068593964
47,15,17,Jits_Phase_5,3,5,80,127,2068613600
47,15,17,Jits_Phase_5,0,1,48,42,2069070588
47,15,17,Jits_Phase_5,1,5,63,98,2069123372
47,15,17,Jits_Phase_5,2,5,80,127,2069143904
47,15,17,Jits_Phase_5,3,5,56,103,2069164440
47,15,17,Jits_Phase_5,0,5,56,103,2069564020
47,15,17,Jits_Phase_5,1,1,48,45,2069571324
47,15,17,Jits_Phase_5,2,5,80,127,2069643808
47,15,17,Jits_Phase_5,3,5,63,98,2069653852
47,15,17,Jits_Phase_5,0,5,80,127,2070104392
47,15,17,Jits_Phase_5,1,1,48,40,2070105356
47,15,17,Jits_Phase_5,2,5,63,98,2070113756
47,15,17,Jits_Phase_5,3,5,56,103,2070144328
47,15,17,Jits_Phase_5,0,1,48,47,2070563068
47,15,17,Jits_Phase_5,1,5,63,98,2070564940
47,15,17,Jits_Phase_5,2,5,80,127,2070604156
47,15,17,Jits_Phase_5,3,5,56,103,2070663704
47,15,17,Jits_Phase_5,0,1,48,40,2071050644
47,15,17,Jits_Phase_5,1,5,63,98,2071074128
47,15,17,Jits_Phase_5,2,5,56,103,2071124428
47,15,17,Jits_Phase_5,3,5,80,127,2071154088
47,15,17,Jits_Phase_5,0,1,48,43,2071539380
47,15,17,Jits_Phase_5,1,5,80,127,2071573880
47,15,17,Jits_Phase_5,2,5,63,98,2071584076
47,15,17,Jits_Phase_5,3,5,56,103,2071653688
47,15,17,Jits_Phase_5,0,1,48,46,2072056972
47,15,17,Jits_Phase_5,1,5,80,127,2072134040
47,15,17,Jits_Phase_5,2,5,56,103,2072144232
47,15,17,Jits_Phase_5,3,5,63,98,2072147372
47,15,17,Jits_Phase_5,0,5,56,103,2072574208
47,15,17,Jits_Phase_5,1,1,48,47,2072585792
47,15,17,Jits_Phase_5,2,5,80,127,2072593908
47,15,17,Jits_Phase_5,3,5,63,98,2072603956
47,15,17,Jits_Phase_5,0,1,48,49,2073074768
47,15,17,Jits_Phase_5,1,5,63,98,2073084156
47,15,17,Jits_Phase_5,2,5,56,103,2073124092
47,15,17,Jits_Phase_5,3,5,80,127,2073143752
47,15,17,Jits_Phase_5,0,5,63,98,2073583916
47,15,17,Jits_Phase_5,1,1,48,47,2073588452
47,15,17,Jits_Phase_5,2,5,56,103,2073644372
47,15,17,Jits_Phase_5,3,5,80,127,2073647460
47,15,17,Jits_Phase_5,0,5,56,103,2074043952
47,15,17,Jits_Phase_5,1,5,80,127,2074064264
47,15,17,Jits_Phase_5,2,1,48,39,2074099888
47,15,17,Jits_Phase_5,3,5,63,98,2074104116
47,15,17,Jits_Phase_5,0,1,48,51,2074546972
47,15,17,Jits_Phase_5,1,5,56,103,2074574124
47,15,17,Jits_Phase_5,2,5,63,98,2074593836
47,15,17,Jits_Phase_5,3,5,80,127,2074603956
47,15,17,Jits_Phase_5,0,1,48,44,2075038784
47,15,17,Jits_Phase_5,1,5,80,127,2075044132
47,15,17,Jits_Phase_5,2,5,56,103,2075073808
47,15,17,Jits_Phase_5,3,5,63,98,2075113744
47,15,17,Jits_Phase_5,0,1,48,39,2075506536
47,15,17,Jits_Phase_5,1,5,80,127,2075554216
47,15,17,Jits_Phase_5,2,5,56,103,2075573928
47,15,17,Jits_Phase_5,3,5,63,98,2075634148
47,15,17,Jits_Phase_5,0,5,56,103,2076064088
47,15,17,Jits_Phase_5,1,1,48,46,2076074924
47,15,17,Jits_Phase_5,2,5,80,127,2076083720
47,15,17,Jits_Phase_5,3,5,63,98,2076143956
47,15,17,Jits_Phase_5,0,1,48,40,2076522920
47,15,17,Jits_Phase_5,1,5,80,127,2076544292
47,15,17,Jits_Phase_5,2,5,56,103,2076553816
47,15,17,Jits_Phase_5,3,5,63,98,2076593600
47,15,17,Jits_Phase_5,0,5,63,98,2077044044
47,15,17,Jits_Phase_5,1,1,48,42,2077045528
47,15,17,Jits_Phase_5,2,5,56,103,2077083892
47,15,17,Jits_Phase_5,3,5,80,127,2077087112
47,15,17,Jits_Phase_5,0,1,48,46,2077520736
47,15,17,Jits_Phase_5,1,5,63,98,2077564228
47,15,17,Jits_Phase_5,2,5,80,127,2077604164
47,15,17,Jits_Phase_5,3,5,56,103,2077633900
47,15,17,Jits_Phase_5,0,1,48,43,2078027756
47,15,17,Jits_Phase_5,1,5,56,103,2078053788
47,15,17,Jits_Phase_5,2,5,63,98,2078063984
47,15,17,Jits_Phase_5,3,5,80,127,2078093808
47,15,17,Jits_Phase_5,0,5,80,127,2078544176
47,15,17,Jits_Phase_5,1,1,48,33,2078548712
47,15,17,Jits_Phase_5,2,5,63,98,2078613852
47,15,17,Jits_Phase_5,3,5,56,103,2078624048
47,15,17,Jits_Phase_5,0,1,48,38,2079030036
47,15,17,Jits_Phase_5,1,5,63,98,2079043860
47,15,17,Jits_Phase_5,2,5,56,103,2079113616
47,15,17,Jits_Phase_5,3,5,80,127,2079123736
47,15,17,Jits_Phase_5,0,5,63,98,2079524188
47,15,17,Jits_Phase_5,1,5,56,103,2079543700
47,15,17,Jits_Phase_5,2,1,48,42,2079550180
47,15,17,Jits_Phase_5,3,5,80,127,2079583556
47,15,17,Jits_Phase_5,0,1,48,40,2079975356
47,15,17,Jits_Phase_5,1,5,56,103,2080003628
47,15,17,Jits_Phase_5,2,5,63,98,2080013824
47,15,17,Jits_Phase_5,3,5,80,127,2080093700
47,15,17,Jits_Phase_5,0,1,48,38,2080493268
47,15,17,Jits_Phase_5,1,5,63,98,2080494832
47,15,17,Jits_Phase_5,2,5,56,103,2080523612
47,15,17,Jits_Phase_5,3,5,80,127,2080563720
47,15,17,Jits_Phase_5,0,1,48,46,2080972012
47,15,17,Jits_Phase_5,1,5,56,103,2080993608
47,15,17,Jits_Phase_5,2,5,63,98,2081033692
47,15,17,Jits_Phase_5,3,5,80,127,2081073640
47,15,17,Jits_Phase_5,0,1,48,47,2081459308
47,15,17,Jits_Phase_5,1,5,80,127,2081494476
47,15,17,Jits_Phase_5,2,5,56,103,2081574108
47,15,17,Jits_Phase_5,3,5,63,98,2081583728
47,15,17,Jits_Phase_5,0,1,48,44,2081958984
47,15,17,Jits_Phase_5,1,5,56,103,2082044196
47,15,17,Jits_Phase_5,2,5,63,98,2082047260
47,15,17,Jits_Phase_5,3,5,80,127,2082053568
47,15,17,Jits_Phase_5,0,1,48,49,2082458416
47,15,17,Jits_Phase_5,1,5,56,103,2082563624
47,15,17,Jits_Phase_5,2,5,63,98,2082583936
47,15,17,Jits_Phase_5,3,5,80,127,2082594132
47,15,17,Jits_Phase_5,0,1,48,48,2082980792
47,15,17,Jits_Phase_5,1,5,63,98,2083024136
47,15,17,Jits_Phase_5,2,5,80,127,2083033432
47,15,17,Jits_Phase_5,3,5,56,103,2083054040
47,15,17,Jits_Phase_5,0,1,48,50,2083464520
47,15,17,Jits_Phase_5,1,5,63,98,2083523956
47,15,17,Jits_Phase_5,2,5,56,103,2083603808
47,15,17,Jits_Phase_5,3,5,80,127,2083606872
47,15,17,Jits_Phase_5,0,1,48,51,2083996776
47,15,17,Jits_Phase_5,1,5,63,98,2084023776
47,15,17,Jits_Phase_5,2,5,56,103,2084044084
47,15,17,Jits_Phase_5,3,5,80,127,2084073832
47,15,17,Jits_Phase_5,0,1,48,46,2084484616
47,15,17,Jits_Phase_5,1,5,56,103,2084524572
47,15,17,Jits_Phase_5,2,5,63,98,2084543832
47,15,17,Jits_Phase_5,3,5,80,127,2084554032
47,15,17,Jits_Phase_5,0,1,48,44,2084968172
47,15,17,Jits_Phase_5,1,5,56,103,2085053912
47,15,17,Jits_Phase_5,2,5,63,98,2085083572
47,15,17,Jits_Phase_5,3,5,80,127,2085086860
47,15,17,Jits_Phase_5,0,1,48,51,2085493772
47,15,17,Jits_Phase_5,1,5,56,103,2085504804
47,15,17,Jits_Phase_5,2,5,63,98,2085544516
47,15,17,Jits_Phase_5,3,5,80,127,2085603692
47,15,17,Jits_Phase_5,0,1,48,48,2085951792
47,15,17,Jits_Phase_5,1,5,56,103,2086023732
47,15,17,Jits_Phase_5,2,5,63,98,2086033708
47,15,17,Jits_Phase_5,3,5,80,127,2086094080
47,15,17,Jits_Phase_5,0,1,48,47,2086472444
47,15,17,Jits_Phase_5,1,5,56,103,2086524456
47,15,17,Jits_Phase_5,2,5,80,127,2086543648
47,15,17,Jits_Phase_5,3,5,63,98,2086573604
47,15,17,Jits_Phase_5,0,1,48,46,2087001340
47,15,17,Jits_Phase_5,1,5,80,127,2087024056
47,15,17,Jits_Phase_5,2,5,56,103,2087034476
47,15,17,Jits_Phase_5,3,5,63,98,2087053664
47,15,17,Jits_Phase_5,0,1,48,50,2087469976
47,15,17,Jits_Phase_5,1,5,63,98,2087513616
47,15,17,Jits_Phase_5,2,5,80,127,2087594440
47,15,17,Jits_Phase_5,3,5,56,103,2087603516
47,15,17,Jits_Phase_5,0,1,48,49,2088009140
47,15,17,Jits_Phase_5,1,5,80,127,2088104396
47,15,17,Jits_Phase_5,2,5,56,103,2088123720
47,15,17,Jits_Phase_5,3,5,63,98,2088126784
47,15,17,Jits_Phase_5,0,1,48,46,2088491268
47,15,17,Jits_Phase_5,1,5,63,98,2088593784
47,15,17,Jits_Phase_5,2,5,80,127,2088597220
47,15,17,Jits_Phase_5,3,5,56,103,2088654468
47,15,17,Jits_Phase_5,0,1,48,39,2089042796
47,15,17,Jits_Phase_5,1,5,56,103,2089073988
47,15,17,Jits_Phase_5,2,5,80,127,2089084408
47,15,17,Jits_Phase_5,3,5,63,98,2089124344
47,15,17,Jits_Phase_5,0,1,48,41,2089496592
47,15,17,Jits_Phase_5,1,5,56,103,2089554552
47,15,17,Jits_Phase_5,2,5,63,98,2089613656
47,15,17,Jits_Phase_5,3,5,80,127,2089623852
47,15,17,Jits_Phase_5,0,5,63,98,2090064424
47,15,17,Jits_Phase_5,1,1,48,48,2090088220
47,15,17,Jits_Phase_5,2,5,80,127,2090104284
47,15,17,Jits_Phase_5,3,5,56,103,2090144368
47,15,17,Jits_Phase_5,0,5,56,103,2090563952
47,15,17,Jits_Phase_5,1,1,48,46,2090566616
47,15,17,Jits_Phase_5,2,5,63,98,2090643732
47,15,17,Jits_Phase_5,3,5,80,127,2090647172
47,15,17,Jits_Phase_5,0,1,48,46,2091082708
47,15,17,Jits_Phase_5,1,5,80,127,2091124088
47,15,17,Jits_Phase_5,2,5,56,103,2091153908
47,15,17,Jits_Phase_5,3,5,63,98,2091156972
47,15,17,Jits_Phase_5,0,1,48,46,2091569480
47,15,17,Jits_Phase_5,1,5,56,103,2091583824
47,15,17,Jits_Phase_5,2,5,80,127,2091604432
47,15,17,Jits_Phase_5,3,5,63,98,2091644368
47,15,17,Jits_Phase_5,0,5,80,127,2092064304
47,15,17,Jits_Phase_5,1,5,63,98,2092083516
47,15,17,Jits_Phase_5,2,1,48,48,2092123120
47,15,17,Jits_Phase_5,3,5,56,103,2092144120
47,15,17,Jits_Phase_5,0,5,63,98,2092574032
47,15,17,Jits_Phase_5,1,1,48,52,2092583552
47,15,17,Jits_Phase_5,2,5,56,103,2092585344
47,15,17,Jits_Phase_5,3,5,80,127,2092633400
47,15,17,Jits_Phase_5,0,1,48,45,2093047152
47,15,17,Jits_Phase_5,1,5,56,103,2093063512
47,15,17,Jits_Phase_5,2,5,63,98,2093083900
47,15,17,Jits_Phase_5,3,5,80,127,2093094392
47,15,17,Jits_Phase_5,0,1,48,47,2093550632
47,15,17,Jits_Phase_5,1,5,56,103,2093553964
47,15,17,Jits_Phase_5,2,5,63,98,2093556880
47,15,17,Jits_Phase_5,3,5,80,127,2093573524
47,15,17,Jits_Phase_5,0,1,48,46,2094048796
47,15,17,Jits_Phase_5,1,5,63,98,2094093636
47,15,17,Jits_Phase_5,2,5,56,103,2094124680
47,15,17,Jits_Phase_5,3,5,80,127,2094154264
47,15,17,Jits_Phase_5,0,1,48,51,2094550648
47,15,17,Jits_Phase_5,1,5,80,127,2094553308
47,15,17,Jits_Phase_5,2,5,56,103,2094644512
47,15,17,Jits_Phase_5,3,5,63,98,2094647484
47,15,17,Jits_Phase_5,0,5,56,103,2095054176
47,15,17,Jits_Phase_5,1,5,80,127,2095057316
47,15,17,Jits_Phase_5,2,1,48,49,2095080516
47,15,17,Jits_Phase_5,3,5,63,98,2095134184
47,15,17,Jits_Phase_5,0,5,80,127,2095553856
47,15,17,Jits_Phase_5,1,5,63,98,2095614248
47,15,17,Jits_Phase_5,2,1,48,50,2095623440
47,15,17,Jits_Phase_5,3,5,56,103,2095643988
47,15,17,Jits_Phase_5,0,5,63,98,2096053548
47,15,17,Jits_Phase_5,1,5,80,127,2096063820
47,15,17,Jits_Phase_5,2,1,48,43,2096132820
47,15,17,Jits_Phase_5,3,5,56,103,2096134612
47,15,17,Jits_Phase_5,0,1,48,51,2096583764
47,15,17,Jits_Phase_5,1,5,56,103,2096613752
47,15,17,Jits_Phase_5,2,5,80,127,2096643428
47,15,17,Jits_Phase_5,3,5,63,98,2096693560
47,15,17,Jits_Phase_5,0,1,48,48,2097129340
47,15,17,Jits_Phase_5,1,5,63,98,2097203572
47,15,17,Jits_Phase_5,2,5,56,103,2097234276
47,15,17,Jits_Phase_5,3,5,80,127,2097237492
47,15,17,Jits_Phase_5,0,1,48,46,2097675248
47,15,17,Jits_Phase_5,1,5,63,98,2097704344
47,15,17,Jits_Phase_5,2,5,80,127,2097723632
47,15,17,Jits_Phase_5,3,5,56,103,2097734272
47,15,17,Jits_Phase_5,0,1,48,46,2098206088
47,15,17,Jits_Phase_5,1,5,56,103,2098214352
47,15,17,Jits_Phase_5,2,5,63,98,2098217420
47,15,17,Jits_Phase_5,3,5,80,127,2098233788
47,15,17,Jits_Phase_5,0,5,56,103,2098663756
47,15,17,Jits_Phase_5,1,5,63,98,2098674472
47,15,17,Jits_Phase_5,2,5,80,127,2098703848
47,15,17,Jits_Phase_5,3,1,48,47,2098726000
47,15,17,Jits_Phase_5,0,1,48,48,2099158532
47,15,17,Jits_Phase_5,1,5,63,98,2099184112
47,15,17,Jits_Phase_5,2,5,80,127,2099203376
47,15,17,Jits_Phase_5,3,5,56,103,2099244308
47,15,17,Jits_Phase_5,0,1,48,45,2099659700
47,15,17,Jits_Phase_5,1,5,56,103,2099714356
47,15,17,Jits_Phase_5,2,5,63,98,2099754292
47,15,17,Jits_Phase_5,3,5,80,127,2099758488
47,15,17,Jits_Phase_5,0,5,80,127,2100153572
47,15,17,Jits_Phase_5,1,5,56,103,2100193512
47,15,17,Jits_Phase_5,2,1,48,40,2100205540
47,15,17,Jits_Phase_5,3,5,63,98,2100243780
47,15,17,Jits_Phase_5,0,1,48,46,2100674428
47,15,17,Jits_Phase_5,1,5,56,103,2100713936
47,15,17,Jits_Phase_5,2,5,80,127,2100724132
47,15,17,Jits_Phase_5,3,5,63,98,2100753884
47,15,17,Jits_Phase_5,0,5,56,103,2101164472
47,15,17,Jits_Phase_5,1,1,48,48,2101180920
47,15,17,Jits_Phase_5,2,5,80,127,2101204404
47,15,17,Jits_Phase_5,3,5,63,98,2101253408
47,15,17,Jits_Phase_5,0,5,56,103,2101664088
47,15,17,Jits_Phase_5,1,1,48,48,2101692612
47,15,17,Jits_Phase_5,2,5,80,127,2101704168
47,15,17,Jits_Phase_5,3,5,63,98,2101754216
47,15,17,Jits_Phase_5,0,5,80,127,2102153660
47,15,17,Jits_Phase_5,1,1,48,45,2102224728
47,15,17,Jits_Phase_5,2,5,63,98,2102233448
47,15,17,Jits_Phase_5,3,5,56,103,2102243644
47,15,17,Jits_Phase_5,0,5,80,127,2102703396
47,15,17,Jits_Phase_5,1,5,56,103,2102713668
47,15,17,Jits_Phase_5,2,1,48,45,2102731012
47,15,17,Jits_Phase_5,3,5,63,98,2102734268
47,15,17,Jits_Phase_5,0,5,63,98,2103173344
47,15,17,Jits_Phase_5,1,1,48,47,2103205752
47,15,17,Jits_Phase_5,2,5,56,103,2103244136
47,15,17,Jits_Phase_5,3,5,80,127,2103247128
47,15,17,Jits_Phase_5,0,5,80,127,2103663944
47,15,17,Jits_Phase_5,1,1,48,41,2103666388
47,15,17,Jits_Phase_5,2,5,63,98,2103714136
47,15,17,Jits_Phase_5,3,5,56,103,2103754224
47,15,17,Jits_Phase_5,0,1,48,48,2104165924
47,15,17,Jits_Phase_5,1,5,63,98,2104203564
47,15,17,Jits_Phase_5,2,5,56,103,2104243576
47,15,17,Jits_Phase_5,3,5,80,127,2104253996
47,15,17,Jits_Phase_5,0,1,48,45,2104662836
47,15,17,Jits_Phase_5,1,5,63,98,2104694176
47,15,17,Jits_Phase_5,2,5,56,103,2104713436
47,15,17,Jits_Phase_5,3,5,80,127,2104734268
47,15,17,Jits_Phase_5,0,5,80,127,2105153848
47,15,17,Jits_Phase_5,1,5,56,103,2105164116
47,15,17,Jits_Phase_5,2,1,48,47,2105170820
47,15,17,Jits_Phase_5,3,5,63,98,2105183596
47,15,17,Jits_Phase_5,0,1,48,38,2105657764
47,15,17,Jits_Phase_5,1,5,63,98,2105684388
47,15,17,Jits_Phase_5,2,5,56,103,2105724176
47,15,17,Jits_Phase_5,3,5,80,127,2105754060
47,15,17,Jits_Phase_5,0,5,56,103,2106144116
47,15,17,Jits_Phase_5,1,1,48,45,2106151348
47,15,17,Jits_Phase_5,2,5,63,98,2106173884
47,15,17,Jits_Phase_5,3,5,80,127,2106203480
47,15,17,Jits_Phase_5,0,5,80,127,2106564244
47,15,17,Jits_Phase_5,1,1,48,46,2106601764
47,15,17,Jits_Phase_5,2,5,56,103,2106633464
47,15,17,Jits_Phase_5,3,5,63,98,2106636612
47,15,17,Jits_Phase_5,0,5,56,103,2107074040
47,15,17,Jits_Phase_5,1,1,48,43,2107075080
47,15,17,Jits_Phase_5,2,5,63,98,2107124084
47,15,17,Jits_Phase_5,3,5,80,127,2107154056
47,15,17,Jits_Phase_5,0,5,63,98,2107554248
47,15,17,Jits_Phase_5,1,5,80,127,2107557388
47,15,17,Jits_Phase_5,2,1,48,48,2107573704
47,15,17,Jits_Phase_5,3,5,56,103,2107613580
47,15,17,Jits_Phase_5,0,1,48,49,2108072000
47,15,17,Jits_Phase_5,1,5,56,103,2108083576
47,15,17,Jits_Phase_5,2,5,80,127,2108094140
47,15,17,Jits_Phase_5,3,5,63,98,2108144116
47,15,17,Jits_Phase_5,0,5,63,98,2108553664
47,15,17,Jits_Phase_5,1,5,56,103,2108563784
47,15,17,Jits_Phase_5,2,5,80,127,2108593456
47,15,17,Jits_Phase_5,3,1,48,43,2108600160
47,15,17,Jits_Phase_5,0,1,48,35,2109077568
47,15,17,Jits_Phase_5,1,5,63,98,2109084112
47,15,17,Jits_Phase_5,2,5,80,127,2109087400
47,15,17,Jits_Phase_5,3,5,56,103,2109113636
47,15,17,Jits_Phase_5,0,5,63,98,2109604164
47,15,17,Jits_Phase_5,1,1,48,29,2109615000
47,15,17,Jits_Phase_5,2,5,56,103,2109623644
47,15,17,Jits_Phase_5,3,5,80,127,2109626780
47,15,17,Jits_Phase_5,0,5,63,98,2110064044
47,15,17,Jits_Phase_5,1,1,48,42,2110072944
47,15,17,Jits_Phase_5,2,5,56,103,2110133720
47,15,17,Jits_Phase_5,3,5,80,127,2110154104
47,15,17,Jits_Phase_5,0,5,56,103,2110553384
47,15,17,Jits_Phase_5,1,5,63,98,2110563876
47,15,17,Jits_Phase_5,2,1,48,42,2110569912
47,15,17,Jits_Phase_5,3,5,80,127,2110654072
47,15,17,Jits_Phase_5,0,5,56,103,2111073600
47,15,17,Jits_Phase_5,1,1,48,50,2111077988
47,15,17,Jits_Phase_5,2,5,80,127,2111113456
47,15,17,Jits_Phase_5,3,5,63,98,2111124024
47,15,17,Jits_Phase_5,0,1,48,51,2111589352
47,15,17,Jits_Phase_5,1,5,56,103,2111594108
47,15,17,Jits_Phase_5,2,5,63,98,2111623412
47,15,17,Jits_Phase_5,3,5,80,127,2111654356
47,15,17,Jits_Phase_5,0,1,48,43,2112048280
47,15,17,Jits_Phase_5,1,5,80,127,2112053704
47,15,17,Jits_Phase_5,2,5,63,98,2112093644
47,15,17,Jits_Phase_5,3,5,56,103,2112114028
47,15,17,Jits_Phase_5,0,1,48,51,2112571640
47,15,17,Jits_Phase_5,1,5,56,103,2112594356
47,15,17,Jits_Phase_5,2,5,80,127,2112613844
47,15,17,Jits_Phase_5,3,5,63,98,2112634152
47,15,17,Jits_Phase_5,0,1,48,50,2113058760
47,15,17,Jits_Phase_5,1,5,63,98,2113064264
47,15,17,Jits_Phase_5,2,5,56,103,2113073584
47,15,17,Jits_Phase_5,3,5,80,127,2113133896
47,15,17,Jits_Phase_5,0,1,48,50,2113541664
47,15,17,Jits_Phase_5,1,5,56,103,2113564008
47,15,17,Jits_Phase_5,2,5,63,98,2113633788
47,15,17,Jits_Phase_5,3,5,80,127,2113654008
47,15,17,Jits_Phase_5,0,1,48,49,2114054372
47,15,17,Jits_Phase_5,1,5,56,103,2114063908
47,15,17,Jits_Phase_5,2,5,63,98,2114093384
47,15,17,Jits_Phase_5,3,5,80,127,2114134516
47,15,17,Jits_Phase_5,0,1,48,48,2114530204
47,15,17,Jits_Phase_5,1,5,63,98,2114554216
47,15,17,Jits_Phase_5,2,5,56,103,2114604444
47,15,17,Jits_Phase_5,3,5,80,127,2114613740
47,15,17,Jits_Phase_5,0,1,48,47,2115059020
47,15,17,Jits_Phase_5,1,5,56,103,2115093964
47,15,17,Jits_Phase_5,2,5,63,98,2115144040
47,15,17,Jits_Phase_5,3,5,80,127,2115154388
47,15,17,Jits_Phase_5,0,1,48,52,2115537424
47,15,17,Jits_Phase_5,1,5,56,103,2115563828
47,15,17,Jits_Phase_5,2,5,63,98,2115574096
47,15,17,Jits_Phase_5,3,5,80,127,2115653972
47,15,17,Jits_Phase_5,0,9999,9999,9999,2031331404
47,15,17,Jits_Phase_5,1,9999,9999,9999,2031831168
47,15,17,Jits_Phase_5,2,9999,9999,9999,2032331832
47,15,17,Jits_Phase_5,3,9999,9999,9999,2032831580
47,15,17,Jits_Phase_5,4,9999,9999,9999,2033331260
47,15,17,Jits_Phase_5,5,9999,9999,9999,2033832060
47,15,17,Jits_Phase_5,6,9999,9999,9999,2034331740
47,15,17,Jits_Phase_5,7,9999,9999,9999,2034831428
47,15,17,Jits_Phase_5,8,9999,9999,9999,2035331196
47,15,17,Jits_Phase_5,9,9999,9999,9999,2035831936
47,15,17,Jits_Phase_5,10,9999,9999,9999,2036331620
47,15,17,Jits_Phase_5,11,9999,9999,9999,2036831296
47,15,17,Jits_Phase_5,12,9999,9999,9999,2037332088
47,15,17,Jits_Phase_5,13,9999,9999,9999,2037831760
47,15,17,Jits_Phase_5,14,9999,9999,9999,2038331512
47,15,17,Jits_Phase_5,15,9999,9999,9999,2038831188
47,15,17,Jits_Phase_5,16,9999,9999,9999,2039331956
47,15,17,Jits_Phase_5,17,9999,9999,9999,2039831632
47,15,17,Jits_Phase_5,18,9999,9999,9999,2040331380
47,15,17,Jits_Phase_5,19,9999,9999,9999,2040832104
47,15,17,Jits_Phase_5,20,9999,9999,9999,2041342040
47,15,17,Jits_Phase_5,21,9999,9999,9999,2041841732
47,15,17,Jits_Phase_5,22,9999,9999,9999,2042341496
47,15,17,Jits_Phase_5,23,9999,9999,9999,2042841172
47,15,17,Jits_Phase_5,24,9999,9999,9999,2043341912
47,15,17,Jits_Phase_5,25,9999,9999,9999,2043841660
47,15,17,Jits_Phase_5,26,9999,9999,9999,2044341336
47,15,17,Jits_Phase_5,27,9999,9999,9999,2044842108
47,15,17,Jits_Phase_5,28,9999,9999,9999,2045341800
47,15,17,Jits_Phase_5,29,9999,9999,9999,2045841472
47,15,17,Jits_Phase_5,30,9999,9999,9999,2046332020
47,15,17,Jits_Phase_5,31,9999,9999,9999,2046831712
47,15,17,Jits_Phase_5,32,9999,9999,9999,2047331404
47,15,17,Jits_Phase_5,33,9999,9999,9999,2047831096
47,15,17,Jits_Phase_5,34,9999,9999,9999,2048331836
47,15,17,Jits_Phase_5,35,9999,9999,9999,2048831596
47,15,17,Jits_Phase_5,36,9999,9999,9999,2049331260
47,15,17,Jits_Phase_5,37,9999,9999,9999,2049832028
47,15,17,Jits_Phase_5,38,9999,9999,9999,2050331772
47,15,17,Jits_Phase_5,39,9999,9999,9999,2050831448
47,15,17,Jits_Phase_5,40,9999,9999,9999,2051331200
47,15,17,Jits_Phase_5,41,9999,9999,9999,2051831916
47,15,17,Jits_Phase_5,42,9999,9999,9999,2052331604
47,15,17,Jits_Phase_5,43,9999,9999,9999,2052831348
47,15,17,Jits_Phase_5,44,9999,9999,9999,2053332072
47,15,17,Jits_Phase_5,45,9999,9999,9999,2053831740
47,15,17,Jits_Phase_5,46,9999,9999,9999,2054331488
47,15,17,Jits_Phase_5,47,9999,9999,9999,2054831172
47,15,17,Jits_Phase_5,48,9999,9999,9999,2055341112
47,15,17,Jits_Phase_5,49,9999,9999,9999,2055841916
47,15,17,Jits_Phase_5,50,9999,9999,9999,2056341576
47,15,17,Jits_Phase_5,51,9999,9999,9999,2056841340
47,15,17,Jits_Phase_5,52,9999,9999,9999,2057342060
47,15,17,Jits_Phase_5,53,9999,9999,9999,2057841740
47,15,17,Jits_Phase_5,54,9999,9999,9999,2058341492
47,15,17,Jits_Phase_5,55,9999,9999,9999,2058841168
47,15,17,Jits_Phase_5,56,9999,9999,9999,2059341900
47,15,17,Jits_Phase_5,57,9999,9999,9999,2059841660
47,15,17,Jits_Phase_5,58,9999,9999,9999,2060341332
47,15,17,Jits_Phase_5,59,9999,9999,9999,2060842092
47,15,17,Jits_Phase_5,60,9999,9999,9999,2061341764
47,15,17,Jits_Phase_5,61,9999,9999,9999,2061841508
47,15,17,Jits_Phase_5,62,9999,9999,9999,2062341180
47,15,17,Jits_Phase_5,63,9999,9999,9999,2062841972
47,15,17,Jits_Phase_5,64,9999,9999,9999,2063361128
47,15,17,Jits_Phase_5,65,9999,9999,9999,2063861848
47,15,17,Jits_Phase_5,66,9999,9999,9999,2064361536
47,15,17,Jits_Phase_5,67,9999,9999,9999,2064861272
47,15,17,Jits_Phase_5,68,9999,9999,9999,2065361996
47,15,17,Jits_Phase_5,69,9999,9999,9999,2065861688
47,15,17,Jits_Phase_5,70,9999,9999,9999,2066361428
47,15,17,Jits_Phase_5,71,9999,9999,9999,2066861116
47,15,17,Jits_Phase_5,72,9999,9999,9999,2067361908
47,15,17,Jits_Phase_5,73,9999,9999,9999,2067861584
47,15,17,Jits_Phase_5,74,9999,9999,9999,2068361332
47,15,17,Jits_Phase_5,75,9999,9999,9999,2068862048
47,15,17,Jits_Phase_5,76,9999,9999,9999,2069361728
47,15,17,Jits_Phase_5,77,9999,9999,9999,2069861480
47,15,17,Jits_Phase_5,78,9999,9999,9999,2070361172
47,15,17,Jits_Phase_5,79,9999,9999,9999,2070861908
47,15,17,Jits_Phase_5,80,9999,9999,9999,2071361656
47,15,17,Jits_Phase_5,81,9999,9999,9999,2071841900
47,15,17,Jits_Phase_5,82,9999,9999,9999,2072341572
47,15,17,Jits_Phase_5,83,9999,9999,9999,2072841324
47,15,17,Jits_Phase_5,84,9999,9999,9999,2073342064
47,15,17,Jits_Phase_5,85,9999,9999,9999,2073841736
47,15,17,Jits_Phase_5,86,9999,9999,9999,2074341484
47,15,17,Jits_Phase_5,87,9999,9999,9999,2074841172
47,15,17,Jits_Phase_5,88,9999,9999,9999,2075341896
47,15,17,Jits_Phase_5,89,9999,9999,9999,2075841644
47,15,17,Jits_Phase_5,90,9999,9999,9999,2076341320
47,15,17,Jits_Phase_5,91,9999,9999,9999,2076842052
47,15,17,Jits_Phase_5,92,9999,9999,9999,2077341788
47,15,17,Jits_Phase_5,93,9999,9999,9999,2077841468
47,15,17,Jits_Phase_5,94,9999,9999,9999,2078341212
47,15,17,Jits_Phase_5,95,9999,9999,9999,2078841936
47,15,17,Jits_Phase_5,96,9999,9999,9999,2079341624
47,15,17,Jits_Phase_5,97,9999,9999,9999,2079791184
47,15,17,Jits_Phase_5,98,9999,9999,9999,2080291952
47,15,17,Jits_Phase_5,99,9999,9999,9999,2080791624
47,15,17,Jits_Phase_5,100,9999,9999,9999,2081291372
47,15,17,Jits_Phase_5,101,9999,9999,9999,2081792092
47,15,17,Jits_Phase_5,102,9999,9999,9999,2082302020
47,15,17,Jits_Phase_5,103,9999,9999,9999,2082801772
47,15,17,Jits_Phase_5,104,9999,9999,9999,2083301444
47,15,17,Jits_Phase_5,105,9999,9999,9999,2083801188
47,15,17,Jits_Phase_5,106,9999,9999,9999,2084301908
47,15,17,Jits_Phase_5,107,9999,9999,9999,2084801656
47,15,17,Jits_Phase_5,108,9999,9999,9999,2085301328
47,15,17,Jits_Phase_5,109,9999,9999,9999,2085802044
47,15,17,Jits_Phase_5,110,9999,9999,9999,2086301796
47,15,17,Jits_Phase_5,111,9999,9999,9999,2086801472
47,15,17,Jits_Phase_5,112,9999,9999,9999,2087301216
47,15,17,Jits_Phase_5,113,9999,9999,9999,2087801944
47,15,17,Jits_Phase_5,114,9999,9999,9999,2088351808
47,15,17,Jits_Phase_5,115,9999,9999,9999,2088851552
47,15,17,Jits_Phase_5,116,9999,9999,9999,2089351224
47,15,17,Jits_Phase_5,117,9999,9999,9999,2089852020
47,15,17,Jits_Phase_5,118,9999,9999,9999,2090351696
47,15,17,Jits_Phase_5,119,9999,9999,9999,2090851436
47,15,17,Jits_Phase_5,120,9999,9999,9999,2091351124
47,15,17,Jits_Phase_5,121,9999,9999,9999,2091851848
47,15,17,Jits_Phase_5,122,9999,9999,9999,2092351600
47,15,17,Jits_Phase_5,123,9999,9999,9999,2092851292
47,15,17,Jits_Phase_5,124,9999,9999,9999,2093352060
47,15,17,Jits_Phase_5,125,9999,9999,9999,2093851716
47,15,17,Jits_Phase_5,126,9999,9999,9999,2094351468
47,15,17,Jits_Phase_5,127,9999,9999,9999,2094851140
47,15,17,Jits_Phase_5,128,9999,9999,9999,2095351924
47,15,17,Jits_Phase_5,129,9999,9999,9999,2095851616
47,15,17,Jits_Phase_5,130,9999,9999,9999,2096351304
47,15,17,Jits_Phase_5,131,9999,9999,9999,2096951392
47,15,17,Jits_Phase_5,132,9999,9999,9999,2097451112
47,15,17,Jits_Phase_5,133,9999,9999,9999,2097951840
47,15,17,Jits_Phase_5,134,9999,9999,9999,2098451580
47,15,17,Jits_Phase_5,135,9999,9999,9999,2098951248
47,15,17,Jits_Phase_5,136,9999,9999,9999,2099451984
47,15,17,Jits_Phase_5,137,9999,9999,9999,2099951732
47,15,17,Jits_Phase_5,138,9999,9999,9999,2100451404
47,15,17,Jits_Phase_5,139,9999,9999,9999,2100951100
47,15,17,Jits_Phase_5,140,9999,9999,9999,2101451892
47,15,17,Jits_Phase_5,141,9999,9999,9999,2101951580
47,15,17,Jits_Phase_5,142,9999,9999,9999,2102451272
47,15,17,Jits_Phase_5,143,9999,9999,9999,2102952008
47,15,17,Jits_Phase_5,144,9999,9999,9999,2103451764
47,15,17,Jits_Phase_5,145,9999,9999,9999,2103951440
47,15,17,Jits_Phase_5,146,9999,9999,9999,2104451136
47,15,17,Jits_Phase_5,147,9999,9999,9999,2104951932
47,15,17,Jits_Phase_5,148,9999,9999,9999,2105451600
47,15,17,Jits_Phase_5,149,9999,9999,9999,2105951288
47,15,17,Jits_Phase_5,150,9999,9999,9999,2106351680
47,15,17,Jits_Phase_5,151,9999,9999,9999,2106851436
47,15,17,Jits_Phase_5,152,9999,9999,9999,2107351124
47,15,17,Jits_Phase_5,153,9999,9999,9999,2107851848
47,15,17,Jits_Phase_5,154,9999,9999,9999,2108351596
47,15,17,Jits_Phase_5,155,9999,9999,9999,2108851264
47,15,17,Jits_Phase_5,156,9999,9999,9999,2109352052
47,15,17,Jits_Phase_5,157,9999,9999,9999,2109851716
47,15,17,Jits_Phase_5,158,9999,9999,9999,2110351468
47,15,17,Jits_Phase_5,159,9999,9999,9999,2110851140
47,15,17,Jits_Phase_5,160,9999,9999,9999,2111351880
47,15,17,Jits_Phase_5,161,9999,9999,9999,2111851648
47,15,17,Jits_Phase_5,162,9999,9999,9999,2112351320
47,15,17,Jits_Phase_5,163,9999,9999,9999,2112852040
47,15,17,Jits_Phase_5,164,9999,9999,9999,2113351788
47,15,17,Jits_Phase_5,165,9999,9999,9999,2113851464
47,15,17,Jits_Phase_5,166,9999,9999,9999,2114351212
47,15,17,Jits_Phase_5,167,9999,9999,9999,2114851904
47,15,17,Jits_Phase_5,168,9999,9999,9999,2115351652
47,15,17,Jits_Phase_5,169,9999,9999,9999,2115851328
47,16,18,Jits_Linear_8,0,5,56,103,2125866780
47,16,18,Jits_Linear_8,1,5,63,98,2125869728
47,16,18,Jits_Linear_8,2,5,80,127,2125872996
47,16,18,Jits_Linear_8,0,1,48,29,2126385108
47,16,18,Jits_Linear_8,1,5,56,103,2126685644
47,16,18,Jits_Linear_8,2,5,63,98,2126688744
47,16,18,Jits_Linear_8,3,5,80,127,2126691940
47,16,18,Jits_Linear_8,4,1,48,34,2126894300
47,16,18,Jits_Linear_8,0,1,48,49,2127404968
47,16,18,Jits_Linear_8,1,5,80,127,2127446648
47,16,18,Jits_Linear_8,2,5,63,98,2127535572
47,16,18,Jits_Linear_8,3,5,56,103,2127545696
47,16,18,Jits_Linear_8,0,5,56,103,2128286044
47,16,18,Jits_Linear_8,1,5,63,98,2128296464
47,16,18,Jits_Linear_8,2,1,48,48,2128333288
47,16,18,Jits_Linear_8,3,5,80,127,2128386664
47,16,18,Jits_Linear_8,0,5,63,98,2129075472
47,16,18,Jits_Linear_8,1,5,80,127,2129106492
47,16,18,Jits_Linear_8,2,1,48,48,2129124456
47,16,18,Jits_Linear_8,3,5,56,103,2129135936
47,16,18,Jits_Linear_8,0,1,48,52,2129877876
47,16,18,Jits_Linear_8,1,5,56,103,2129895812
47,16,18,Jits_Linear_8,2,5,80,127,2129996224
47,16,18,Jits_Linear_8,3,5,63,98,2130046428
47,16,18,Jits_Linear_8,0,5,56,103,2130705768
47,16,18,Jits_Linear_8,1,5,80,127,2130756072
47,16,18,Jits_Linear_8,2,1,48,51,2130782488
47,16,18,Jits_Linear_8,3,5,63,98,2130795856
47,16,18,Jits_Linear_8,0,1,48,55,2131529272
47,16,18,Jits_Linear_8,1,5,80,127,2131545488
47,16,18,Jits_Linear_8,2,5,63,98,2131576284
47,16,18,Jits_Linear_8,3,5,56,103,2131645876
47,16,18,Jits_Linear_8,0,1,48,52,2132364552
47,16,18,Jits_Linear_8,1,5,63,98,2132386148
47,16,18,Jits_Linear_8,2,5,56,103,2132415828
47,16,18,Jits_Linear_8,3,5,80,127,2132476500
47,16,18,Jits_Linear_8,0,5,56,103,2133135864
47,16,18,Jits_Linear_8,1,5,80,127,2133138852
47,16,18,Jits_Linear_8,2,1,48,57,2133155468
47,16,18,Jits_Linear_8,3,5,63,98,2133255492
47,16,18,Jits_Linear_8,0,1,48,58,2133965936
47,16,18,Jits_Linear_8,1,5,56,103,2134016528
47,16,18,Jits_Linear_8,2,5,80,127,2134056472
47,16,18,Jits_Linear_8,3,5,63,98,2134065400
47,16,18,Jits_Linear_8,0,5,56,103,2134776280
47,16,18,Jits_Linear_8,1,1,48,55,2134779324
47,16,18,Jits_Linear_8,2,5,80,127,2134795540
47,16,18,Jits_Linear_8,3,5,63,98,2134875568
47,16,18,Jits_Linear_8,0,5,80,127,2135565636
47,16,18,Jits_Linear_8,1,1,48,54,2135629688
47,16,18,Jits_Linear_8,2,5,56,103,2135665984
47,16,18,Jits_Linear_8,3,5,63,98,2135676252
47,16,18,Jits_Linear_8,0,5,63,98,2136335664
47,16,18,Jits_Linear_8,1,5,80,127,2136396232
47,16,18,Jits_Linear_8,2,5,56,103,2136406356
47,16,18,Jits_Linear_8,3,1,48,57,2136436444
47,16,18,Jits_Linear_8,0,1,48,57,2137130528
47,16,18,Jits_Linear_8,1,5,56,103,2137135360
47,16,18,Jits_Linear_8,2,5,63,98,2137206384
47,16,18,Jits_Linear_8,3,5,80,127,2137209672
47,16,18,Jits_Linear_8,0,1,48,57,2137848884
47,16,18,Jits_Linear_8,1,5,63,98,2137965952
47,16,18,Jits_Linear_8,2,5,56,103,2138016152
47,16,18,Jits_Linear_8,3,5,80,127,2138019292
47,16,18,Jits_Linear_8,0,5,56,103,2138715440
47,16,18,Jits_Linear_8,1,5,80,127,2138718656
47,16,18,Jits_Linear_8,2,1,48,55,2138736096
47,16,18,Jits_Linear_8,3,5,63,98,2138805492
47,16,18,Jits_Linear_8,0,1,48,56,2139517484
47,16,18,Jits_Linear_8,1,5,63,98,2139546060
47,16,18,Jits_Linear_8,2,5,56,103,2139636256
47,16,18,Jits_Linear_8,3,5,80,127,2139665860
47,16,18,Jits_Linear_8,0,5,56,103,2140326348
47,16,18,Jits_Linear_8,1,1,48,57,2140338680
47,16,18,Jits_Linear_8,2,5,63,98,2140425544
47,16,18,Jits_Linear_8,3,5,80,127,2140456400
47,16,18,Jits_Linear_8,0,5,63,98,2141136236
47,16,18,Jits_Linear_8,1,5,56,103,2141145536
47,16,18,Jits_Linear_8,2,1,48,56,2141188140
47,16,18,Jits_Linear_8,3,5,80,127,2141235464
47,16,18,Jits_Linear_8,0,1,48,58,2141931456
47,16,18,Jits_Linear_8,1,5,63,98,2141936136
47,16,18,Jits_Linear_8,2,5,56,103,2142015960
47,16,18,Jits_Linear_8,3,5,80,127,2142019100
47,16,18,Jits_Linear_8,0,5,80,127,2142676332
47,16,18,Jits_Linear_8,1,5,63,98,2142695892
47,16,18,Jits_Linear_8,2,1,48,56,2142718640
47,16,18,Jits_Linear_8,3,5,56,103,2142756352
47,16,18,Jits_Linear_8,0,1,48,62,2143477712
47,16,18,Jits_Linear_8,1,5,56,103,2143495424
47,16,18,Jits_Linear_8,2,5,63,98,2143516180
47,16,18,Jits_Linear_8,3,5,80,127,2143519468
47,16,18,Jits_Linear_8,0,5,63,98,2144216580
47,16,18,Jits_Linear_8,1,1,48,56,2144230184
47,16,18,Jits_Linear_8,2,5,80,127,2144296372
47,16,18,Jits_Linear_8,3,5,56,103,2144305400
47,16,18,Jits_Linear_8,0,5,63,98,2145016260
47,16,18,Jits_Linear_8,1,5,56,103,2145035600
47,16,18,Jits_Linear_8,2,1,48,59,2145048156
47,16,18,Jits_Linear_8,3,5,80,127,2145085668
47,16,18,Jits_Linear_8,0,5,80,127,2145795336
47,16,18,Jits_Linear_8,1,5,63,98,2145836496
47,16,18,Jits_Linear_8,2,1,48,56,2145849204
47,16,18,Jits_Linear_8,3,5,56,103,2145855828
47,16,18,Jits_Linear_8,0,1,48,55,2146602132
47,16,18,Jits_Linear_8,1,5,56,103,2146605312
47,16,18,Jits_Linear_8,2,5,63,98,2146615804
47,16,18,Jits_Linear_8,3,5,80,127,2146636264
47,16,18,Jits_Linear_8,0,5,56,103,2147306072
47,16,18,Jits_Linear_8,1,1,48,53,2147369896
47,16,18,Jits_Linear_8,2,5,63,98,2147396076
47,16,18,Jits_Linear_8,3,5,80,127,2147456468
47,16,18,Jits_Linear_8,0,1,48,54,2148102804
47,16,18,Jits_Linear_8,1,5,80,127,2148105536
47,16,18,Jits_Linear_8,2,5,56,103,2148116032
47,16,18,Jits_Linear_8,3,5,63,98,2148185512
47,16,18,Jits_Linear_8,0,1,48,50,2148816032
47,16,18,Jits_Linear_8,1,5,63,98,2148906512
47,16,18,Jits_Linear_8,2,5,80,127,2148995364
47,16,18,Jits_Linear_8,3,5,56,103,2149005560
47,16,18,Jits_Linear_8,0,5,63,98,2149605636
47,16,18,Jits_Linear_8,1,1,48,53,2149618720
47,16,18,Jits_Linear_8,2,5,80,127,2149656056
47,16,18,Jits_Linear_8,3,5,56,103,2149716232
47,16,18,Jits_Linear_8,0,5,56,103,2150396396
47,16,18,Jits_Linear_8,1,1,48,53,2150435036
47,16,18,Jits_Linear_8,2,5,80,127,2150445568
47,16,18,Jits_Linear_8,3,5,63,98,2150466176
47,16,18,Jits_Linear_8,0,5,56,103,2151126412
47,16,18,Jits_Linear_8,1,5,80,127,2151185908
47,16,18,Jits_Linear_8,2,1,48,56,2151189472
47,16,18,Jits_Linear_8,3,5,63,98,2151256356
47,16,18,Jits_Linear_8,0,5,56,103,2151886172
47,16,18,Jits_Linear_8,1,1,48,50,2151889964
47,16,18,Jits_Linear_8,2,5,80,127,2151915840
47,16,18,Jits_Linear_8,3,5,63,98,2151945516
47,16,18,Jits_Linear_8,0,1,48,47,2152618984
47,16,18,Jits_Linear_8,1,5,56,103,2152685852
47,16,18,Jits_Linear_8,2,5,80,127,2152706608
47,16,18,Jits_Linear_8,3,5,63,98,2152765888
47,16,18,Jits_Linear_8,0,1,48,51,2153439124
47,16,18,Jits_Linear_8,1,5,80,127,2153525568
47,16,18,Jits_Linear_8,2,5,56,103,2153536048
47,16,18,Jits_Linear_8,3,5,63,98,2153546096
47,16,18,Jits_Linear_8,0,5,56,103,2154236232
47,16,18,Jits_Linear_8,1,1,48,45,2154240248
47,16,18,Jits_Linear_8,2,5,80,127,2154276312
47,16,18,Jits_Linear_8,3,5,63,98,2154305864
47,16,18,Jits_Linear_8,0,1,48,54,2154951084
47,16,18,Jits_Linear_8,1,5,56,103,2154956208
47,16,18,Jits_Linear_8,2,5,63,98,2154985812
47,16,18,Jits_Linear_8,3,5,80,127,2155025896
47,16,18,Jits_Linear_8,0,5,80,127,2155655652
47,16,18,Jits_Linear_8,1,5,63,98,2155706080
47,16,18,Jits_Linear_8,2,1,48,51,2155726316
47,16,18,Jits_Linear_8,3,5,56,103,2155727956
47,16,18,Jits_Linear_8,0,1,48,48,2156432224
47,16,18,Jits_Linear_8,1,5,56,103,2156436156
47,16,18,Jits_Linear_8,2,5,80,127,2156505540
47,16,18,Jits_Linear_8,3,5,63,98,2156565844
47,16,18,Jits_Linear_8,0,5,80,127,2157176208
47,16,18,Jits_Linear_8,1,1,48,51,2157201652
47,16,18,Jits_Linear_8,2,5,63,98,2157266340
47,16,18,Jits_Linear_8,3,5,56,103,2157285904
47,16,18,Jits_Linear_8,0,1,48,46,2157928676
47,16,18,Jits_Linear_8,1,5,63,98,2157935968
47,16,18,Jits_Linear_8,2,5,56,103,2157955532
47,16,18,Jits_Linear_8,3,5,80,127,2157996440
47,16,18,Jits_Linear_8,0,5,80,127,2158636308
47,16,18,Jits_Linear_8,1,5,63,98,2158656020
47,16,18,Jits_Linear_8,2,1,48,51,2158696900
47,16,18,Jits_Linear_8,3,5,56,103,2158735808
47,16,18,Jits_Linear_8,0,5,63,98,2159365624
47,16,18,Jits_Linear_8,1,1,48,38,2159416048
47,16,18,Jits_Linear_8,2,5,56,103,2159476080
47,16,18,Jits_Linear_8,3,5,80,127,2159479148
47,16,18,Jits_Linear_8,0,1,48,52,2160079248
47,16,18,Jits_Linear_8,1,5,63,98,2160126256
47,16,18,Jits_Linear_8,2,5,56,103,2160135400
47,16,18,Jits_Linear_8,3,5,80,127,2160138768
47,16,18,Jits_Linear_8,0,1,48,21,2160801440
47,16,18,Jits_Linear_8,1,5,56,103,2160846276
47,16,18,Jits_Linear_8,2,5,80,127,2160966092
47,16,18,Jits_Linear_8,3,5,63,98,2161006028
47,16,18,Jits_Linear_8,0,5,56,103,2161595696
47,16,18,Jits_Linear_8,1,1,48,47,2161625268
47,16,18,Jits_Linear_8,2,5,80,127,2161675712
47,16,18,Jits_Linear_8,3,5,63,98,2161696096
47,16,18,Jits_Linear_8,0,5,56,103,2162325940
47,16,18,Jits_Linear_8,1,1,48,37,2162387204
47,16,18,Jits_Linear_8,2,5,63,98,2162435404
47,16,18,Jits_Linear_8,3,5,80,127,2162438840
47,16,18,Jits_Linear_8,0,5,56,103,2163085628
47,16,18,Jits_Linear_8,1,5,80,127,2163116648
47,16,18,Jits_Linear_8,2,5,63,98,2163135840
47,16,18,Jits_Linear_8,3,1,48,42,2163187500
47,16,18,Jits_Linear_8,0,5,63,98,2163796612
47,16,18,Jits_Linear_8,1,5,56,103,2163805688
47,16,18,Jits_Linear_8,2,5,80,127,2163815888
47,16,18,Jits_Linear_8,3,1,48,51,2163871068
47,16,18,Jits_Linear_8,0,5,80,127,2164505912
47,16,18,Jits_Linear_8,1,5,56,103,2164556288
47,16,18,Jits_Linear_8,2,5,63,98,2164595932
47,16,18,Jits_Linear_8,3,1,48,45,2164616956
47,16,18,Jits_Linear_8,0,5,80,127,2165246268
47,16,18,Jits_Linear_8,1,5,63,98,2165265904
47,16,18,Jits_Linear_8,2,5,56,103,2165315908
47,16,18,Jits_Linear_8,3,1,48,57,2165334764
47,16,18,Jits_Linear_8,0,1,48,51,2165968908
47,16,18,Jits_Linear_8,1,5,80,127,2165976648
47,16,18,Jits_Linear_8,2,5,56,103,2166006176
47,16,18,Jits_Linear_8,3,5,63,98,2166075872
47,16,18,Jits_Linear_8,0,5,56,103,2166745628
47,16,18,Jits_Linear_8,1,5,80,127,2166755748
47,16,18,Jits_Linear_8,2,1,48,46,2166771596
47,16,18,Jits_Linear_8,3,5,63,98,2166795828
47,16,18,Jits_Linear_8,0,5,56,103,2167376376
47,16,18,Jits_Linear_8,1,5,63,98,2167395788
47,16,18,Jits_Linear_8,2,5,80,127,2167466292
47,16,18,Jits_Linear_8,3,1,48,51,2167501692
47,16,18,Jits_Linear_8,0,5,63,98,2168115532
47,16,18,Jits_Linear_8,1,1,48,47,2168141048
47,16,18,Jits_Linear_8,2,5,80,127,2168175844
47,16,18,Jits_Linear_8,3,5,56,103,2168195700
47,16,18,Jits_Linear_8,0,5,80,127,2168815992
47,16,18,Jits_Linear_8,1,1,48,54,2168833952
47,16,18,Jits_Linear_8,2,5,56,103,2168845660
47,16,18,Jits_Linear_8,3,5,63,98,2168876484
47,16,18,Jits_Linear_8,0,1,48,55,2169515412
47,16,18,Jits_Linear_8,1,5,56,103,2169525476
47,16,18,Jits_Linear_8,2,5,63,98,2169586020
47,16,18,Jits_Linear_8,3,5,80,127,2169645820
47,16,18,Jits_Linear_8,0,1,48,48,2170193412
47,16,18,Jits_Linear_8,1,5,80,127,2170255712
47,16,18,Jits_Linear_8,2,5,56,103,2170276172
47,16,18,Jits_Linear_8,3,5,63,98,2170345836
47,16,18,Jits_Linear_8,0,5,80,127,2170966616
47,16,18,Jits_Linear_8,1,1,48,50,2170983684
47,16,18,Jits_Linear_8,2,5,63,98,2170985796
47,16,18,Jits_Linear_8,3,5,56,103,2171015472
47,16,18,Jits_Linear_8,0,5,80,127,2171655476
47,16,18,Jits_Linear_8,1,5,63,98,2171676384
47,16,18,Jits_Linear_8,2,1,48,52,2171677348
47,16,18,Jits_Linear_8,3,5,56,103,2171736420
47,16,18,Jits_Linear_8,0,5,80,127,2172355900
47,16,18,Jits_Linear_8,1,1,48,56,2172364716
47,16,18,Jits_Linear_8,2,5,56,103,2172456428
47,16,18,Jits_Linear_8,3,5,63,98,2172486104
47,16,18,Jits_Linear_8,0,5,63,98,2173046336
47,16,18,Jits_Linear_8,1,5,80,127,2173096540
47,16,18,Jits_Linear_8,2,5,56,103,2173115728
47,16,18,Jits_Linear_8,3,1,48,59,2173120488
47,16,18,Jits_Linear_8,0,1,48,55,2173759972
47,16,18,Jits_Linear_8,1,5,80,127,2173785404
47,16,18,Jits_Linear_8,2,5,56,103,2173816424
47,16,18,Jits_Linear_8,3,5,63,98,2173819416
47,16,18,Jits_Linear_8,0,1,48,51,2174455636
47,16,18,Jits_Linear_8,1,5,63,98,2174515628
47,16,18,Jits_Linear_8,2,5,56,103,2174555404
47,16,18,Jits_Linear_8,3,5,80,127,2174575936
47,16,18,Jits_Linear_8,0,5,80,127,2175155492
47,16,18,Jits_Linear_8,1,1,48,55,2175213068
47,16,18,Jits_Linear_8,2,5,63,98,2175235656
47,16,18,Jits_Linear_8,3,5,56,103,2175276296
47,16,18,Jits_Linear_8,0,5,63,98,2175866336
47,16,18,Jits_Linear_8,1,5,80,127,2175946284
47,16,18,Jits_Linear_8,2,5,56,103,2175965544
47,16,18,Jits_Linear_8,3,1,48,51,2175989264
47,16,18,Jits_Linear_8,0,5,56,103,2176596496
47,16,18,Jits_Linear_8,1,5,63,98,2176605500
47,16,18,Jits_Linear_8,2,5,80,127,2176645440
47,16,18,Jits_Linear_8,3,1,48,55,2176670728
47,16,18,Jits_Linear_8,0,5,56,103,2177205720
47,16,18,Jits_Linear_8,1,5,80,127,2177208712
47,16,18,Jits_Linear_8,2,5,63,98,2177345848
47,16,18,Jits_Linear_8,3,1,48,52,2177352256
47,16,18,Jits_Linear_8,0,5,56,103,2177885608
47,16,18,Jits_Linear_8,1,5,63,98,2177975520
47,16,18,Jits_Linear_8,2,1,48,46,2177991896
47,16,18,Jits_Linear_8,3,5,80,127,2178046464
47,16,18,Jits_Linear_8,0,1,48,50,2178609896
47,16,18,Jits_Linear_8,1,5,63,98,2178655628
47,16,18,Jits_Linear_8,2,5,80,127,2178658844
47,16,18,Jits_Linear_8,3,5,56,103,2178716152
47,16,18,Jits_Linear_8,0,1,48,47,2179325644
47,16,18,Jits_Linear_8,1,5,80,127,2179375444
47,16,18,Jits_Linear_8,2,5,56,103,2179396052
47,16,18,Jits_Linear_8,3,5,63,98,2179406324
47,16,18,Jits_Linear_8,0,5,56,103,2179966308
47,16,18,Jits_Linear_8,1,5,63,98,2179975532
47,16,18,Jits_Linear_8,2,1,48,49,2180034320
47,16,18,Jits_Linear_8,3,5,80,127,2180046328
47,16,18,Jits_Linear_8,0,1,48,51,2180636784
47,16,18,Jits_Linear_8,1,5,80,127,2180646248
47,16,18,Jits_Linear_8,2,5,56,103,2180696400
47,16,18,Jits_Linear_8,3,5,63,98,2180745616
47,16,18,Jits_Linear_8,0,1,48,49,2181337424
47,16,18,Jits_Linear_8,1,5,56,103,2181406300
47,16,18,Jits_Linear_8,2,5,63,98,2181416448
47,16,18,Jits_Linear_8,3,5,80,127,2181456296
47,16,18,Jits_Linear_8,0,5,56,103,2182025660
47,16,18,Jits_Linear_8,1,1,48,49,2182045340
47,16,18,Jits_Linear_8,2,5,63,98,2182065520
47,16,18,Jits_Linear_8,3,5,80,127,2182115796
47,16,18,Jits_Linear_8,0,5,80,127,2182656308
47,16,18,Jits_Linear_8,1,1,48,50,2182683244
47,16,18,Jits_Linear_8,2,5,56,103,2182705484
47,16,18,Jits_Linear_8,3,5,63,98,2182726240
47,16,18,Jits_Linear_8,0,5,80,127,2183336424
47,16,18,Jits_Linear_8,1,1,48,44,2183351460
47,16,18,Jits_Linear_8,2,5,63,98,2183395620
47,16,18,Jits_Linear_8,3,5,56,103,2183475496
47,16,18,Jits_Linear_8,0,5,80,127,2183985460
47,16,18,Jits_Linear_8,1,5,56,103,2184025400
47,16,18,Jits_Linear_8,2,1,48,43,2184039680
47,16,18,Jits_Linear_8,3,5,63,98,2184046152
47,16,18,Jits_Linear_8,0,1,48,51,2184611944
47,16,18,Jits_Linear_8,1,5,56,103,2184706452
47,16,18,Jits_Linear_8,2,5,80,127,2184715664
47,16,18,Jits_Linear_8,3,5,63,98,2184755628
47,16,18,Jits_Linear_8,0,1,48,54,2185297824
47,16,18,Jits_Linear_8,1,5,56,103,2185435552
47,16,18,Jits_Linear_8,2,5,63,98,2185475488
47,16,18,Jits_Linear_8,3,5,80,127,2185478924
47,16,18,Jits_Linear_8,0,5,63,98,2185986560
47,16,18,Jits_Linear_8,1,5,80,127,2186026452
47,16,18,Jits_Linear_8,2,1,48,47,2186084572
47,16,18,Jits_Linear_8,3,5,56,103,2186096200
47,16,18,Jits_Linear_8,0,1,48,48,2186607292
47,16,18,Jits_Linear_8,1,5,63,98,2186635568
47,16,18,Jits_Linear_8,2,5,56,103,2186715424
47,16,18,Jits_Linear_8,3,5,80,127,2186776112
47,16,18,Jits_Linear_8,0,1,48,44,2187261812
47,16,18,Jits_Linear_8,1,5,80,127,2187306376
47,16,18,Jits_Linear_8,2,5,63,98,2187355532
47,16,18,Jits_Linear_8,3,5,56,103,2187386240
47,16,18,Jits_Linear_8,0,1,48,46,2187896672
47,16,18,Jits_Linear_8,1,5,56,103,2187955592
47,16,18,Jits_Linear_8,2,5,63,98,2188005632
47,16,18,Jits_Linear_8,3,5,80,127,2188016200
47,16,18,Jits_Linear_8,0,1,48,44,2188569632
47,16,18,Jits_Linear_8,1,5,56,103,2188626328
47,16,18,Jits_Linear_8,2,5,63,98,2188735928
47,16,18,Jits_Linear_8,3,5,80,127,2188756240
47,16,18,Jits_Linear_8,0,1,48,51,2189249968
47,16,18,Jits_Linear_8,1,5,63,98,2189275548
47,16,18,Jits_Linear_8,2,5,80,127,2189325676
47,16,18,Jits_Linear_8,3,5,56,103,2189415744
47,16,18,Jits_Linear_8,0,5,63,98,2189925768
47,16,18,Jits_Linear_8,1,5,80,127,2189955368
47,16,18,Jits_Linear_8,2,5,56,103,2190045500
47,16,18,Jits_Linear_8,0,1,48,50,2190451496
47,16,18,Jits_Linear_8,1,5,63,98,2190576188
47,16,18,Jits_Linear_8,2,5,56,103,2190586308
47,16,18,Jits_Linear_8,3,5,80,127,2190685460
47,16,18,Jits_Linear_8,0,1,48,43,2191145920
47,16,18,Jits_Linear_8,1,5,63,98,2191325524
47,16,18,Jits_Linear_8,2,5,80,127,2191356396
47,16,18,Jits_Linear_8,3,5,56,103,2191386072
47,16,18,Jits_Linear_8,0,1,48,55,2191844680
47,16,18,Jits_Linear_8,1,5,80,127,2191986164
47,16,18,Jits_Linear_8,2,5,63,98,2191996136
47,16,18,Jits_Linear_8,3,5,56,103,2192026108
47,16,18,Jits_Linear_8,0,1,48,51,2192519988
47,16,18,Jits_Linear_8,1,5,80,127,2192525568
47,16,18,Jits_Linear_8,2,5,63,98,2192546028
47,16,18,Jits_Linear_8,3,5,56,103,2192596376
47,16,18,Jits_Linear_8,0,1,48,54,2193115936
47,16,18,Jits_Linear_8,1,5,63,98,2193196380
47,16,18,Jits_Linear_8,2,5,80,127,2193256008
47,16,18,Jits_Linear_8,3,5,56,103,2193276172
47,16,18,Jits_Linear_8,0,1,48,51,2193745108
47,16,18,Jits_Linear_8,1,5,63,98,2193795480
47,16,18,Jits_Linear_8,2,5,56,103,2193845816
47,16,18,Jits_Linear_8,3,5,80,127,2193855936
47,16,18,Jits_Linear_8,0,1,48,52,2194349136
47,16,18,Jits_Linear_8,1,5,56,103,2194466104
47,16,18,Jits_Linear_8,2,5,80,127,2194476472
47,16,18,Jits_Linear_8,3,5,63,98,2194575972
47,16,18,Jits_Linear_8,0,5,80,127,2195066368
47,16,18,Jits_Linear_8,1,5,63,98,2195075368
47,16,18,Jits_Linear_8,2,1,48,48,2195108980
47,16,18,Jits_Linear_8,3,5,56,103,2195226160
47,16,18,Jits_Linear_8,0,5,63,98,2195706308
47,16,18,Jits_Linear_8,1,1,48,56,2195718044
47,16,18,Jits_Linear_8,2,5,80,127,2195746096
47,16,18,Jits_Linear_8,3,5,56,103,2195825972
47,16,18,Jits_Linear_8,0,5,56,103,2196325956
47,16,18,Jits_Linear_8,1,1,48,53,2196355752
47,16,18,Jits_Linear_8,2,5,80,127,2196426048
47,16,18,Jits_Linear_8,3,5,63,98,2196445684
47,16,18,Jits_Linear_8,0,1,48,56,2196970504
47,16,18,Jits_Linear_8,1,5,80,127,2197015792
47,16,18,Jits_Linear_8,2,5,56,103,2197026284
47,16,18,Jits_Linear_8,3,5,63,98,2197116276
47,16,18,Jits_Linear_8,0,5,56,103,2197645712
47,16,18,Jits_Linear_8,1,5,63,98,2197666096
47,16,18,Jits_Linear_8,2,1,48,50,2197683460
47,16,18,Jits_Linear_8,3,5,80,127,2197745960
47,16,18,Jits_Linear_8,0,5,63,98,2198226168
47,16,18,Jits_Linear_8,1,1,48,51,2198281656
47,16,18,Jits_Linear_8,2,5,56,103,2198316620
47,16,18,Jits_Linear_8,3,5,80,127,2198319536
47,16,18,Jits_Linear_8,0,5,56,103,2198875404
47,16,18,Jits_Linear_8,1,1,48,46,2198892300
47,16,18,Jits_Linear_8,2,5,80,127,2198935864
47,16,18,Jits_Linear_8,3,5,63,98,2198946132
47,16,18,Jits_Linear_8,0,1,48,47,2199514196
47,16,18,Jits_Linear_8,1,5,80,127,2199546132
47,16,18,Jits_Linear_8,2,5,56,103,2199555428
47,16,18,Jits_Linear_8,3,5,63,98,2199558568
47,16,18,Jits_Linear_8,0,1,48,52,2200120032
47,16,18,Jits_Linear_8,1,5,56,103,2200125908
47,16,18,Jits_Linear_8,2,5,80,127,2200136104
47,16,18,Jits_Linear_8,3,5,63,98,2200155368
47,16,18,Jits_Linear_8,0,1,48,48,2200704064
47,16,18,Jits_Linear_8,1,5,63,98,2200715712
47,16,18,Jits_Linear_8,2,5,80,127,2200776032
47,16,18,Jits_Linear_8,3,5,56,103,2200826292
47,16,18,Jits_Linear_8,0,1,48,51,2201281056
47,16,18,Jits_Linear_8,1,5,63,98,2201416112
47,16,18,Jits_Linear_8,2,5,56,103,2201426236
47,16,18,Jits_Linear_8,3,5,80,127,2201475612
47,16,18,Jits_Linear_8,0,5,63,98,2201925928
47,16,18,Jits_Linear_8,1,5,80,127,2201945416
47,16,18,Jits_Linear_8,2,5,56,103,2201955684
47,16,18,Jits_Linear_8,3,1,48,52,2201957624
47,16,18,Jits_Linear_8,0,1,48,40,2202480096
47,16,18,Jits_Linear_8,1,5,63,98,2202536244
47,16,18,Jits_Linear_8,2,5,80,127,2202539460
47,16,18,Jits_Linear_8,3,5,56,103,2202576168
47,16,18,Jits_Linear_8,0,1,48,52,2203079388
47,16,18,Jits_Linear_8,1,5,63,98,2203216168
47,16,18,Jits_Linear_8,2,5,80,127,2203245920
47,16,18,Jits_Linear_8,3,5,56,103,2203256188
47,16,18,Jits_Linear_8,0,1,48,47,2203770072
47,16,18,Jits_Linear_8,1,5,56,103,2203776320
47,16,18,Jits_Linear_8,2,5,80,127,2203805920
47,16,18,Jits_Linear_8,3,5,63,98,2203835748
47,16,18,Jits_Linear_8,0,1,48,50,2204344748
47,16,18,Jits_Linear_8,1,5,63,98,2204475672
47,16,18,Jits_Linear_8,2,5,56,103,2204515832
47,16,18,Jits_Linear_8,3,5,80,127,2204518972
47,16,18,Jits_Linear_8,0,5,80,127,2204975736
47,16,18,Jits_Linear_8,1,1,48,46,2205014972
47,16,18,Jits_Linear_8,2,5,56,103,2205056428
47,16,18,Jits_Linear_8,3,5,63,98,2205105580
47,16,18,Jits_Linear_8,0,5,80,127,2205556120
47,16,18,Jits_Linear_8,1,5,56,103,2205575680
47,16,18,Jits_Linear_8,2,1,48,48,2205578124
47,16,18,Jits_Linear_8,3,5,63,98,2205665804
47,16,18,Jits_Linear_8,0,1,48,48,2206139376
47,16,18,Jits_Linear_8,1,5,80,127,2206196052
47,16,18,Jits_Linear_8,2,5,63,98,2206235900
47,16,18,Jits_Linear_8,3,5,56,103,2206276016
47,16,18,Jits_Linear_8,0,1,48,51,2206726112
47,16,18,Jits_Linear_8,1,5,63,98,2206765504
47,16,18,Jits_Linear_8,2,5,80,127,2206825880
47,16,18,Jits_Linear_8,3,5,56,103,2206855632
47,16,18,Jits_Linear_8,0,1,48,46,2207249460
47,16,18,Jits_Linear_8,1,5,56,103,2207365556
47,16,18,Jits_Linear_8,2,5,80,127,2207396204
47,16,18,Jits_Linear_8,3,5,63,98,2207486484
47,16,18,Jits_Linear_8,0,1,48,51,2207938412
47,16,18,Jits_Linear_8,1,5,56,103,2207965492
47,16,18,Jits_Linear_8,2,5,80,127,2208076092
47,16,18,Jits_Linear_8,3,5,63,98,2208105840
47,16,18,Jits_Linear_8,0,1,48,52,2208530620
47,16,18,Jits_Linear_8,1,5,56,103,2208605600
47,16,18,Jits_Linear_8,2,5,63,98,2208665904
47,16,18,Jits_Linear_8,3,5,80,127,2208695652
47,16,18,Jits_Linear_8,0,1,48,48,2209160764
47,16,18,Jits_Linear_8,1,5,56,103,2209165816
47,16,18,Jits_Linear_8,2,5,63,98,2209236544
47,16,18,Jits_Linear_8,3,5,80,127,2209255664
47,16,18,Jits_Linear_8,0,5,80,127,2209725812
47,16,18,Jits_Linear_8,1,1,48,48,2209734184
47,16,18,Jits_Linear_8,2,5,63,98,2209746416
47,16,18,Jits_Linear_8,3,5,56,103,2209795644
47,16,18,Jits_Linear_8,0,1,48,54,2210265996
47,16,18,Jits_Linear_8,1,5,63,98,2210336076
47,16,18,Jits_Linear_8,2,5,80,127,2210346448
47,16,18,Jits_Linear_8,3,5,56,103,2210395660
47,16,18,Jits_Linear_8,0,1,48,57,2210878676
47,16,18,Jits_Linear_8,1,5,63,98,2210915568
47,16,18,Jits_Linear_8,2,5,80,127,2210986208
47,16,18,Jits_Linear_8,3,5,56,103,2211005768
47,16,18,Jits_Linear_8,0,1,48,49,2211471996
47,16,18,Jits_Linear_8,1,5,63,98,2211525896
47,16,18,Jits_Linear_8,2,5,80,127,2211529264
47,16,18,Jits_Linear_8,3,5,56,103,2211595716
47,16,18,Jits_Linear_8,0,5,80,127,2212056664
47,16,18,Jits_Linear_8,1,1,48,54,2212063844
47,16,18,Jits_Linear_8,2,5,56,103,2212075924
47,16,18,Jits_Linear_8,3,5,63,98,2212086120
47,16,18,Jits_Linear_8,0,1,48,48,2212582080
47,16,18,Jits_Linear_8,1,5,56,103,2212655492
47,16,18,Jits_Linear_8,2,5,63,98,2212745612
47,16,18,Jits_Linear_8,3,5,80,127,2212748752
47,16,18,Jits_Linear_8,0,5,80,127,2213206480
47,16,18,Jits_Linear_8,1,5,56,103,2213215704
47,16,18,Jits_Linear_8,2,1,48,46,2213231256
47,16,18,Jits_Linear_8,3,5,63,98,2213236012
47,16,18,Jits_Linear_8,0,1,48,42,2213712040
47,16,18,Jits_Linear_8,1,5,63,98,2213775760
47,16,18,Jits_Linear_8,2,5,80,127,2213836288
47,16,18,Jits_Linear_8,3,5,56,103,2213846408
47,16,18,Jits_Linear_8,0,1,48,45,2214267012
47,16,18,Jits_Linear_8,1,5,63,98,2214415596
47,16,18,Jits_Linear_8,2,5,80,127,2214445596
47,16,18,Jits_Linear_8,3,5,56,103,2214486356
47,16,18,Jits_Linear_8,0,5,56,103,2214975784
47,16,18,Jits_Linear_8,1,1,48,49,2214979124
47,16,18,Jits_Linear_8,2,5,80,127,2214986048
47,16,18,Jits_Linear_8,3,5,63,98,2215026060
47,16,18,Jits_Linear_8,0,5,80,127,2215506636
47,16,18,Jits_Linear_8,1,1,48,50,2215557636
47,16,18,Jits_Linear_8,2,5,56,103,2215586132
47,16,18,Jits_Linear_8,3,5,63,98,2215596552
47,16,18,Jits_Linear_8,0,1,48,47,2216102416
47,16,18,Jits_Linear_8,1,5,80,127,2216115564
47,16,18,Jits_Linear_8,2,5,56,103,2216195512
47,16,18,Jits_Linear_8,3,5,63,98,2216205768
47,16,18,Jits_Linear_8,0,5,80,127,2216635776
47,16,18,Jits_Linear_8,1,1,48,54,2216684164
47,16,18,Jits_Linear_8,2,5,56,103,2216685900
47,16,18,Jits_Linear_8,3,5,63,98,2216736324
47,16,18,Jits_Linear_8,0,1,48,55,2217239496
47,16,18,Jits_Linear_8,1,5,56,103,2217256484
47,16,18,Jits_Linear_8,2,5,63,98,2217259404
47,16,18,Jits_Linear_8,3,5,80,127,2217305564
47,16,18,Jits_Linear_8,0,1,48,58,2217822508
47,16,18,Jits_Linear_8,1,5,56,103,2217835804
47,16,18,Jits_Linear_8,2,5,63,98,2217865556
47,16,18,Jits_Linear_8,3,5,80,127,2217875752
47,16,18,Jits_Linear_8,0,5,63,98,2218306196
47,16,18,Jits_Linear_8,1,1,48,54,2218366112
47,16,18,Jits_Linear_8,2,5,56,103,2218375500
47,16,18,Jits_Linear_8,3,5,80,127,2218425628
47,16,18,Jits_Linear_8,0,5,63,98,2218895784
47,16,18,Jits_Linear_8,1,5,56,103,2218905824
47,16,18,Jits_Linear_8,2,1,48,59,2218907936
47,16,18,Jits_Linear_8,3,5,80,127,2218910456
47,16,18,Jits_Linear_8,0,5,80,127,2219395372
47,16,18,Jits_Linear_8,1,1,48,62,2219427864
47,16,18,Jits_Linear_8,2,5,56,103,2219455832
47,16,18,Jits_Linear_8,3,5,63,98,2219545948
47,16,18,Jits_Linear_8,0,5,80,127,2219946604
47,16,18,Jits_Linear_8,1,1,48,59,2219975208
47,16,18,Jits_Linear_8,2,5,56,103,2220045656
47,16,18,Jits_Linear_8,3,5,63,98,2220085604
47,16,18,Jits_Linear_8,0,5,56,103,2220546400
47,16,18,Jits_Linear_8,1,1,48,53,2220549296
47,16,18,Jits_Linear_8,2,5,63,98,2220565808
47,16,18,Jits_Linear_8,3,5,80,127,2220605696
47,16,18,Jits_Linear_8,0,5,63,98,2221065572
47,16,18,Jits_Linear_8,1,5,56,103,2221086028
47,16,18,Jits_Linear_8,2,1,48,59,2221092512
47,16,18,Jits_Linear_8,3,5,80,127,2221186416
47,16,18,Jits_Linear_8,0,5,63,98,2221596012
47,16,18,Jits_Linear_8,1,1,48,55,2221631292
47,16,18,Jits_Linear_8,2,5,80,127,2221705576
47,16,18,Jits_Linear_8,3,5,56,103,2221736428
47,16,18,Jits_Linear_8,0,5,56,103,2222156328
47,16,18,Jits_Linear_8,1,5,63,98,2222185856
47,16,18,Jits_Linear_8,2,1,48,48,2222188680
47,16,18,Jits_Linear_8,3,5,80,127,2222236128
47,16,18,Jits_Linear_8,0,5,63,98,2222666208
47,16,18,Jits_Linear_8,1,1,48,52,2222679368
47,16,18,Jits_Linear_8,2,5,56,103,2222695732
47,16,18,Jits_Linear_8,3,5,80,127,2222745860
47,16,18,Jits_Linear_8,0,1,48,54,2223193876
47,16,18,Jits_Linear_8,1,5,56,103,2223235332
47,16,18,Jits_Linear_8,2,5,63,98,2223256016
47,16,18,Jits_Linear_8,3,5,80,127,2223335720
47,16,18,Jits_Linear_8,0,1,48,52,2223734756
47,16,18,Jits_Linear_8,1,5,63,98,2223746468
47,16,18,Jits_Linear_8,2,5,56,103,2223805664
47,16,18,Jits_Linear_8,3,5,80,127,2223835548
47,16,18,Jits_Linear_8,0,1,48,52,2224261244
47,16,18,Jits_Linear_8,1,5,56,103,2224326084
47,16,18,Jits_Linear_8,2,5,80,127,2224386460
47,16,18,Jits_Linear_8,3,5,63,98,2224426424
47,16,18,Jits_Linear_8,0,5,63,98,2224836032
47,16,18,Jits_Linear_8,1,1,48,52,2224840124
47,16,18,Jits_Linear_8,2,5,56,103,2224896344
47,16,18,Jits_Linear_8,3,5,80,127,2224966184
47,16,18,Jits_Linear_8,0,1,48,59,2225408728
47,16,18,Jits_Linear_8,1,5,56,103,2225446168
47,16,18,Jits_Linear_8,2,5,63,98,2225455468
47,16,18,Jits_Linear_8,3,5,80,127,2225458828
47,16,18,Jits_Linear_8,0,5,63,98,2225916376
47,16,18,Jits_Linear_8,1,5,56,103,2225975672
47,16,18,Jits_Linear_8,2,5,80,127,2225978664
47,16,18,Jits_Linear_8,3,1,48,45,2225981256
47,16,18,Jits_Linear_8,0,5,63,98,2226426164
47,16,18,Jits_Linear_8,1,5,80,127,2226456064
47,16,18,Jits_Linear_8,2,5,56,103,2226476324
47,16,18,Jits_Linear_8,3,1,48,53,2226494356
47,16,18,Jits_Linear_8,0,5,56,103,2226955732
47,16,18,Jits_Linear_8,1,5,63,98,2227005664
47,16,18,Jits_Linear_8,2,1,48,40,2227006628
47,16,18,Jits_Linear_8,3,5,80,127,2227085824
47,16,18,Jits_Linear_8,0,5,80,127,2227456324
47,16,18,Jits_Linear_8,1,5,63,98,2227496436
47,16,18,Jits_Linear_8,2,1,48,54,2227508624
47,16,18,Jits_Linear_8,3,5,56,103,2227515692
47,16,18,Jits_Linear_8,0,1,48,50,2228027704
47,16,18,Jits_Linear_8,1,5,56,103,2228046160
47,16,18,Jits_Linear_8,2,5,80,127,2228056356
47,16,18,Jits_Linear_8,3,5,63,98,2228076068
47,16,18,Jits_Linear_8,0,1,48,55,2228538548
47,16,18,Jits_Linear_8,1,5,56,103,2228545840
47,16,18,Jits_Linear_8,2,5,63,98,2228596196
47,16,18,Jits_Linear_8,3,5,80,127,2228625648
47,16,18,Jits_Linear_8,0,5,56,103,2229016056
47,16,18,Jits_Linear_8,1,5,63,98,2229026108
47,16,18,Jits_Linear_8,2,5,80,127,2229076308
47,16,18,Jits_Linear_8,3,1,48,50,2229097404
47,16,18,Jits_Linear_8,0,5,56,103,2229525908
47,16,18,Jits_Linear_8,1,5,80,127,2229528900
47,16,18,Jits_Linear_8,2,1,48,51,2229572048
47,16,18,Jits_Linear_8,3,5,63,98,2229685492
47,16,18,Jits_Linear_8,0,5,63,98,2230056260
47,16,18,Jits_Linear_8,1,5,56,103,2230126016
47,16,18,Jits_Linear_8,2,5,80,127,2230165808
47,16,18,Jits_Linear_8,3,1,48,51,2230204444
47,16,18,Jits_Linear_8,0,5,63,98,2230606360
47,16,18,Jits_Linear_8,1,1,48,41,2230613072
47,16,18,Jits_Linear_8,2,5,56,103,2230696340
47,16,18,Jits_Linear_8,3,5,80,127,2230699332
47,16,18,Jits_Linear_8,0,5,56,103,2231095548
47,16,18,Jits_Linear_8,1,1,48,50,2231179284
47,16,18,Jits_Linear_8,2,5,63,98,2231185904
47,16,18,Jits_Linear_8,3,5,80,127,2231195952
47,16,18,Jits_Linear_8,0,5,56,103,2231576188
47,16,18,Jits_Linear_8,1,5,63,98,2231626268
47,16,18,Jits_Linear_8,2,5,80,127,2231656168
47,16,18,Jits_Linear_8,3,1,48,51,2231692620
47,16,18,Jits_Linear_8,0,1,48,50,2232132884
47,16,18,Jits_Linear_8,1,5,63,98,2232165880
47,16,18,Jits_Linear_8,2,5,80,127,2232176080
47,16,18,Jits_Linear_8,3,5,56,103,2232236380
47,16,18,Jits_Linear_8,0,5,63,98,2232585456
47,16,18,Jits_Linear_8,1,5,80,127,2232646096
47,16,18,Jits_Linear_8,2,1,48,50,2232683296
47,16,18,Jits_Linear_8,3,5,56,103,2232685952
47,16,18,Jits_Linear_8,0,1,48,47,2233112960
47,16,18,Jits_Linear_8,1,5,56,103,2233185548
47,16,18,Jits_Linear_8,2,5,80,127,2233206228
47,16,18,Jits_Linear_8,3,5,63,98,2233225552
47,16,18,Jits_Linear_8,0,5,63,98,2233605496
47,16,18,Jits_Linear_8,1,5,56,103,2233625956
47,16,18,Jits_Linear_8,2,5,80,127,2233665992
47,16,18,Jits_Linear_8,3,1,48,55,2233685596
47,16,18,Jits_Linear_8,0,5,63,98,2234115584
47,16,18,Jits_Linear_8,1,1,48,39,2234130308
47,16,18,Jits_Linear_8,2,5,80,127,2234146152
47,16,18,Jits_Linear_8,3,5,56,103,2234165640
47,16,18,Jits_Linear_8,0,5,80,127,2234585492
47,16,18,Jits_Linear_8,1,1,48,54,2234632508
47,16,18,Jits_Linear_8,2,5,56,103,2234635764
47,16,18,Jits_Linear_8,3,5,63,98,2234696028
47,16,18,Jits_Linear_8,0,5,63,98,2235066000
47,16,18,Jits_Linear_8,1,1,48,53,2235128384
47,16,18,Jits_Linear_8,2,5,56,103,2235185380
47,16,18,Jits_Linear_8,3,5,80,127,2235216252
47,16,18,Jits_Linear_8,0,5,80,127,2235596028
47,16,18,Jits_Linear_8,1,5,63,98,2235615664
47,16,18,Jits_Linear_8,2,1,48,52,2235657968
47,16,18,Jits_Linear_8,3,5,56,103,2235686188
47,16,18,Jits_Linear_8,0,5,63,98,2236106064
47,16,18,Jits_Linear_8,1,5,56,103,2236116412
47,16,18,Jits_Linear_8,2,1,48,48,2236150320
47,16,18,Jits_Linear_8,3,5,80,127,2236196372
47,16,18,Jits_Linear_8,0,1,48,57,2236635764
47,16,18,Jits_Linear_8,1,5,56,103,2236656164
47,16,18,Jits_Linear_8,2,5,80,127,2236685544
47,16,18,Jits_Linear_8,3,5,63,98,2236696112
47,16,18,Jits_Linear_8,0,9999,9999,9999,2126273644
47,16,18,Jits_Linear_8,1,9999,9999,9999,2127093832
47,16,18,Jits_Linear_8,2,9999,9999,9999,2127914060
47,16,18,Jits_Linear_8,3,9999,9999,9999,2128733292
47,16,18,Jits_Linear_8,4,9999,9999,9999,2129553508
47,16,18,Jits_Linear_8,5,9999,9999,9999,2130363456
47,16,18,Jits_Linear_8,6,9999,9999,9999,2131173472
47,16,18,Jits_Linear_8,7,9999,9999,9999,2131983432
47,16,18,Jits_Linear_8,8,9999,9999,9999,2132793404
47,16,18,Jits_Linear_8,9,9999,9999,9999,2133603408
47,16,18,Jits_Linear_8,10,9999,9999,9999,2134403176
47,16,18,Jits_Linear_8,11,9999,9999,9999,2135203904
47,16,18,Jits_Linear_8,12,9999,9999,9999,2136003676
47,16,18,Jits_Linear_8,13,9999,9999,9999,2136803444
47,16,18,Jits_Linear_8,14,9999,9999,9999,2137603184
47,16,18,Jits_Linear_8,15,9999,9999,9999,2138393712
47,16,18,Jits_Linear_8,16,9999,9999,9999,2139183208
47,16,18,Jits_Linear_8,17,9999,9999,9999,2139973696
47,16,18,Jits_Linear_8,18,9999,9999,9999,2140763192
47,16,18,Jits_Linear_8,19,9999,9999,9999,2141553748
47,16,18,Jits_Linear_8,20,9999,9999,9999,2142334020
47,16,18,Jits_Linear_8,21,9999,9999,9999,2143113320
47,16,18,Jits_Linear_8,22,9999,9999,9999,2143893600
47,16,18,Jits_Linear_8,23,9999,9999,9999,2144673872
47,16,18,Jits_Linear_8,24,9999,9999,9999,2145453172
47,16,18,Jits_Linear_8,25,9999,9999,9999,2146223180
47,16,18,Jits_Linear_8,26,9999,9999,9999,2146993208
47,16,18,Jits_Linear_8,27,9999,9999,9999,2147763292
47,16,18,Jits_Linear_8,28,9999,9999,9999,2148533316
47,16,18,Jits_Linear_8,29,9999,9999,9999,2149303408
47,16,18,Jits_Linear_8,30,9999,9999,9999,2150063228
47,16,18,Jits_Linear_8,31,9999,9999,9999,2150824016
47,16,18,Jits_Linear_8,32,9999,9999,9999,2151583852
47,16,18,Jits_Linear_8,33,9999,9999,9999,2152343608
47,16,18,Jits_Linear_8,34,9999,9999,9999,2153103440
47,16,18,Jits_Linear_8,35,9999,9999,9999,2153854056
47,16,18,Jits_Linear_8,36,9999,9999,9999,2154603624
47,16,18,Jits_Linear_8,37,9999,9999,9999,2155353200
47,16,18,Jits_Linear_8,38,9999,9999,9999,2156103800
47,16,18,Jits_Linear_8,39,9999,9999,9999,2156853304
47,16,18,Jits_Linear_8,40,9999,9999,9999,2157593700
47,16,18,Jits_Linear_8,41,9999,9999,9999,2158334056
47,16,18,Jits_Linear_8,42,9999,9999,9999,2159073348
47,16,18,Jits_Linear_8,43,9999,9999,9999,2159813696
47,16,18,Jits_Linear_8,44,9999,9999,9999,2160554096
47,16,18,Jits_Linear_8,45,9999,9999,9999,2161283132
47,16,18,Jits_Linear_8,46,9999,9999,9999,2162013284
47,16,18,Jits_Linear_8,47,9999,9999,9999,2162743376
47,16,18,Jits_Linear_8,48,9999,9999,9999,2163473520
47,16,18,Jits_Linear_8,49,9999,9999,9999,2164203608
47,16,18,Jits_Linear_8,50,9999,9999,9999,2164923496
47,16,18,Jits_Linear_8,51,9999,9999,9999,2165643324
47,16,18,Jits_Linear_8,52,9999,9999,9999,2166363232
47,16,18,Jits_Linear_8,53,9999,9999,9999,2167083128
47,16,18,Jits_Linear_8,54,9999,9999,9999,2167803972
47,16,18,Jits_Linear_8,55,9999,9999,9999,2168513616
47,16,18,Jits_Linear_8,56,9999,9999,9999,2169223236
47,16,18,Jits_Linear_8,57,9999,9999,9999,2169933928
47,16,18,Jits_Linear_8,58,9999,9999,9999,2170643532
47,16,18,Jits_Linear_8,59,9999,9999,9999,2171353160
47,16,18,Jits_Linear_8,60,9999,9999,9999,2172053580
47,16,18,Jits_Linear_8,61,9999,9999,9999,2172753988
47,16,18,Jits_Linear_8,62,9999,9999,9999,2173453412
47,16,18,Jits_Linear_8,63,9999,9999,9999,2174153812
47,16,18,Jits_Linear_8,64,9999,9999,9999,2174853188
47,16,18,Jits_Linear_8,65,9999,9999,9999,2175543412
47,16,18,Jits_Linear_8,66,9999,9999,9999,2176233556
47,16,18,Jits_Linear_8,67,9999,9999,9999,2176923712
47,16,18,Jits_Linear_8,68,9999,9999,9999,2177613932
47,16,18,Jits_Linear_8,69,9999,9999,9999,2178304072
47,16,18,Jits_Linear_8,70,9999,9999,9999,2178993256
47,16,18,Jits_Linear_8,71,9999,9999,9999,2179673148
47,16,18,Jits_Linear_8,72,9999,9999,9999,2180353080
47,16,18,Jits_Linear_8,73,9999,9999,9999,2181034096
47,16,18,Jits_Linear_8,74,9999,9999,9999,2181713992
47,16,18,Jits_Linear_8,75,9999,9999,9999,2182383740
47,16,18,Jits_Linear_8,76,9999,9999,9999,2183053368
47,16,18,Jits_Linear_8,77,9999,9999,9999,2183723080
47,16,18,Jits_Linear_8,78,9999,9999,9999,2184393804
47,16,18,Jits_Linear_8,79,9999,9999,9999,2185063512
47,16,18,Jits_Linear_8,80,9999,9999,9999,2185723968
47,16,18,Jits_Linear_8,81,9999,9999,9999,2186383472
47,16,18,Jits_Linear_8,82,9999,9999,9999,2187043924
47,16,18,Jits_Linear_8,83,9999,9999,9999,2187703416
47,16,18,Jits_Linear_8,84,9999,9999,9999,2188363892
47,16,18,Jits_Linear_8,85,9999,9999,9999,2189014084
47,16,18,Jits_Linear_8,86,9999,9999,9999,2189673588
47,16,18,Jits_Linear_8,87,9999,9999,9999,2190323796
47,16,18,Jits_Linear_8,88,9999,9999,9999,2190974016
47,16,18,Jits_Linear_8,89,9999,9999,9999,2191623244
47,16,18,Jits_Linear_8,90,9999,9999,9999,2192263280
47,16,18,Jits_Linear_8,91,9999,9999,9999,2192903276
47,16,18,Jits_Linear_8,92,9999,9999,9999,2193543228
47,16,18,Jits_Linear_8,93,9999,9999,9999,2194183228
47,16,18,Jits_Linear_8,94,9999,9999,9999,2194823256
47,16,18,Jits_Linear_8,95,9999,9999,9999,2195454040
47,16,18,Jits_Linear_8,96,9999,9999,9999,2196083816
47,16,18,Jits_Linear_8,97,9999,9999,9999,2196713552
47,16,18,Jits_Linear_8,98,9999,9999,9999,2197343336
47,16,18,Jits_Linear_8,99,9999,9999,9999,2197974124
47,16,18,Jits_Linear_8,100,9999,9999,9999,2198603892
47,16,18,Jits_Linear_8,101,9999,9999,9999,2199223364
47,16,18,Jits_Linear_8,102,9999,9999,9999,2199843896
47,16,18,Jits_Linear_8,103,9999,9999,9999,2200463464
47,16,18,Jits_Linear_8,104,9999,9999,9999,2201083984
47,16,18,Jits_Linear_8,105,9999,9999,9999,2201693304
47,16,18,Jits_Linear_8,106,9999,9999,9999,2202303556
47,16,18,Jits_Linear_8,107,9999,9999,9999,2202913872
47,16,18,Jits_Linear_8,108,9999,9999,9999,2203523172
47,16,18,Jits_Linear_8,109,9999,9999,9999,2204133504
47,16,18,Jits_Linear_8,110,9999,9999,9999,2204733524
47,16,18,Jits_Linear_8,111,9999,9999,9999,2205333596
47,16,18,Jits_Linear_8,112,9999,9999,9999,2205933676
47,16,18,Jits_Linear_8,113,9999,9999,9999,2206533708
47,16,18,Jits_Linear_8,114,9999,9999,9999,2207133776
47,16,18,Jits_Linear_8,115,9999,9999,9999,2207723584
47,16,18,Jits_Linear_8,116,9999,9999,9999,2208313420
47,16,18,Jits_Linear_8,117,9999,9999,9999,2208903232
47,16,18,Jits_Linear_8,118,9999,9999,9999,2209494088
47,16,18,Jits_Linear_8,119,9999,9999,9999,2210093132
47,16,18,Jits_Linear_8,120,9999,9999,9999,2210673732
47,16,18,Jits_Linear_8,121,9999,9999,9999,2211253352
47,16,18,Jits_Linear_8,122,9999,9999,9999,2211833936
47,16,18,Jits_Linear_8,123,9999,9999,9999,2212413496
47,16,18,Jits_Linear_8,124,9999,9999,9999,2212993120
47,16,18,Jits_Linear_8,125,9999,9999,9999,2213563512
47,16,18,Jits_Linear_8,126,9999,9999,9999,2214133844
47,16,18,Jits_Linear_8,127,9999,9999,9999,2214703224
47,16,18,Jits_Linear_8,128,9999,9999,9999,2215273556
47,16,18,Jits_Linear_8,129,9999,9999,9999,2215843896
47,16,18,Jits_Linear_8,130,9999,9999,9999,2216404056
47,16,18,Jits_Linear_8,131,9999,9999,9999,2216963144
47,16,18,Jits_Linear_8,132,9999,9999,9999,2217523316
47,16,18,Jits_Linear_8,133,9999,9999,9999,2218083388
47,16,18,Jits_Linear_8,134,9999,9999,9999,2218643524
47,16,18,Jits_Linear_8,135,9999,9999,9999,2219193468
47,16,18,Jits_Linear_8,136,9999,9999,9999,2219743340
47,16,18,Jits_Linear_8,137,9999,9999,9999,2220293232
47,16,18,Jits_Linear_8,138,9999,9999,9999,2220843072
47,16,18,Jits_Linear_8,139,9999,9999,9999,2221393984
47,16,18,Jits_Linear_8,140,9999,9999,9999,2221933672
47,16,18,Jits_Linear_8,141,9999,9999,9999,2222473284
47,16,18,Jits_Linear_8,142,9999,9999,9999,2223013952
47,16,18,Jits_Linear_8,143,9999,9999,9999,2223553636
47,16,18,Jits_Linear_8,144,9999,9999,9999,2224093244
47,16,18,Jits_Linear_8,145,9999,9999,9999,2224623716
47,16,18,Jits_Linear_8,146,9999,9999,9999,2225153136
47,16,18,Jits_Linear_8,147,9999,9999,9999,2225683532
47,16,18,Jits_Linear_8,148,9999,9999,9999,2226214016
47,16,18,Jits_Linear_8,149,9999,9999,9999,2226743364
47,16,18,Jits_Linear_8,150,9999,9999,9999,2227263572
47,16,18,Jits_Linear_8,151,9999,9999,9999,2227783788
47,16,18,Jits_Linear_8,152,9999,9999,9999,2228303932
47,16,18,Jits_Linear_8,153,9999,9999,9999,2228823100
47,16,18,Jits_Linear_8,154,9999,9999,9999,2229343348
47,16,18,Jits_Linear_8,155,9999,9999,9999,2229853292
47,16,18,Jits_Linear_8,156,9999,9999,9999,2230363252
47,16,18,Jits_Linear_8,157,9999,9999,9999,2230873192
47,16,18,Jits_Linear_8,158,9999,9999,9999,2231383140
47,16,18,Jits_Linear_8,159,9999,9999,9999,2231894140
47,16,18,Jits_Linear_8,160,9999,9999,9999,2232404028
47,16,18,Jits_Linear_8,161,9999,9999,9999,2232903780
47,16,18,Jits_Linear_8,162,9999,9999,9999,2233403468
47,16,18,Jits_Linear_8,163,9999,9999,9999,2233903216
47,16,18,Jits_Linear_8,164,9999,9999,9999,2234403916
47,16,18,Jits_Linear_8,165,9999,9999,9999,2234893380
47,16,18,Jits_Linear_8,166,9999,9999,9999,2235383936
47,16,18,Jits_Linear_8,167,9999,9999,9999,2235873352
47,16,18,Jits_Linear_8,168,9999,9999,9999,2236363836
47,16,18,Jits_Linear_8,169,9999,9999,9999,2236853336
47,17,19,Jits_Linear_5,0,5,56,103,2245753280
47,17,19,Jits_Linear_5,1,5,63,98,2245756300
47,17,19,Jits_Linear_5,2,5,80,127,2245759572
47,17,19,Jits_Linear_5,0,5,56,103,2246232620
47,17,19,Jits_Linear_5,1,5,63,98,2246235644
47,17,19,Jits_Linear_5,2,5,80,127,2246238836
47,17,19,Jits_Linear_5,3,1,48,45,2246278672
47,17,19,Jits_Linear_5,0,5,56,103,2246712840
47,17,19,Jits_Linear_5,1,5,80,127,2246722964
47,17,19,Jits_Linear_5,2,1,48,48,2246739928
47,17,19,Jits_Linear_5,3,5,63,98,2246743340
47,17,19,Jits_Linear_5,0,5,63,98,2247142764
47,17,19,Jits_Linear_5,1,5,80,127,2247172592
47,17,19,Jits_Linear_5,2,5,56,103,2247182716
47,17,19,Jits_Linear_5,3,1,48,53,2247243924
47,17,19,Jits_Linear_5,0,1,48,51,2247679644
47,17,19,Jits_Linear_5,1,5,80,127,2247682380
47,17,19,Jits_Linear_5,2,5,56,103,2247692728
47,17,19,Jits_Linear_5,3,5,63,98,2247723400
47,17,19,Jits_Linear_5,0,1,48,47,2248159712
47,17,19,Jits_Linear_5,1,5,63,98,2248162748
47,17,19,Jits_Linear_5,2,5,56,103,2248193320
47,17,19,Jits_Linear_5,3,5,80,127,2248202768
47,17,19,Jits_Linear_5,0,5,56,103,2248603104
47,17,19,Jits_Linear_5,1,1,48,51,2248631484
47,17,19,Jits_Linear_5,2,5,63,98,2248653228
47,17,19,Jits_Linear_5,3,5,80,127,2248672568
47,17,19,Jits_Linear_5,0,1,48,52,2249087484
47,17,19,Jits_Linear_5,1,5,80,127,2249092612
47,17,19,Jits_Linear_5,2,5,63,98,2249142816
47,17,19,Jits_Linear_5,3,5,56,103,2249182832
47,17,19,Jits_Linear_5,0,5,56,103,2249582944
47,17,19,Jits_Linear_5,1,1,48,55,2249609804
47,17,19,Jits_Linear_5,2,5,63,98,2249612616
47,17,19,Jits_Linear_5,3,5,80,127,2249683344
47,17,19,Jits_Linear_5,0,1,48,51,2250056388
47,17,19,Jits_Linear_5,1,5,56,103,2250072380
47,17,19,Jits_Linear_5,2,5,80,127,2250132996
47,17,19,Jits_Linear_5,3,5,63,98,2250162808
47,17,19,Jits_Linear_5,0,1,48,49,2250537272
47,17,19,Jits_Linear_5,1,5,56,103,2250573340
47,17,19,Jits_Linear_5,2,5,63,98,2250583836
47,17,19,Jits_Linear_5,3,5,80,127,2250623700
47,17,19,Jits_Linear_5,0,1,48,47,2251053600
47,17,19,Jits_Linear_5,1,5,63,98,2251062764
47,17,19,Jits_Linear_5,2,5,80,127,2251142792
47,17,19,Jits_Linear_5,3,5,56,103,2251152748
47,17,19,Jits_Linear_5,0,1,48,57,2251562212
47,17,19,Jits_Linear_5,1,5,63,98,2251612656
47,17,19,Jits_Linear_5,2,5,56,103,2251652744
47,17,19,Jits_Linear_5,3,5,80,127,2251655664
47,17,19,Jits_Linear_5,0,1,48,52,2252031972
47,17,19,Jits_Linear_5,1,5,56,103,2252073452
47,17,19,Jits_Linear_5,2,5,63,98,2252082680
47,17,19,Jits_Linear_5,3,5,80,127,2252122544
47,17,19,Jits_Linear_5,0,1,48,49,2252511288
47,17,19,Jits_Linear_5,1,5,56,103,2252562776
47,17,19,Jits_Linear_5,2,5,63,98,2252565844
47,17,19,Jits_Linear_5,3,5,80,127,2252583188
47,17,19,Jits_Linear_5,0,1,48,43,2253020700
47,17,19,Jits_Linear_5,1,5,80,127,2253082908
47,17,19,Jits_Linear_5,2,5,56,103,2253093276
47,17,19,Jits_Linear_5,3,5,63,98,2253162872
47,17,19,Jits_Linear_5,0,1,48,46,2253503896
47,17,19,Jits_Linear_5,1,5,63,98,2253582668
47,17,19,Jits_Linear_5,2,5,56,103,2253603228
47,17,19,Jits_Linear_5,3,5,80,127,2253682936
47,17,19,Jits_Linear_5,0,1,48,52,2254057444
47,17,19,Jits_Linear_5,1,5,56,103,2254102812
47,17,19,Jits_Linear_5,2,5,80,127,2254142776
47,17,19,Jits_Linear_5,3,5,63,98,2254153196
47,17,19,Jits_Linear_5,0,1,48,45,2254560744
47,17,19,Jits_Linear_5,1,5,80,127,2254602724
47,17,19,Jits_Linear_5,2,5,63,98,2254633620
47,17,19,Jits_Linear_5,3,5,56,103,2254673248
47,17,19,Jits_Linear_5,0,1,48,54,2255090380
47,17,19,Jits_Linear_5,1,5,56,103,2255132976
47,17,19,Jits_Linear_5,2,5,63,98,2255162680
47,17,19,Jits_Linear_5,3,5,80,127,2255212864
47,17,19,Jits_Linear_5,0,1,48,51,2255612636
47,17,19,Jits_Linear_5,1,5,80,127,2255642856
47,17,19,Jits_Linear_5,2,5,56,103,2255682824
47,17,19,Jits_Linear_5,3,5,63,98,2255693168
47,17,19,Jits_Linear_5,0,1,48,48,2256130312
47,17,19,Jits_Linear_5,1,5,80,127,2256142696
47,17,19,Jits_Linear_5,2,5,63,98,2256182660
47,17,19,Jits_Linear_5,3,5,56,103,2256243036
47,17,19,Jits_Linear_5,0,1,48,52,2256650972
47,17,19,Jits_Linear_5,1,5,56,103,2256662760
47,17,19,Jits_Linear_5,2,5,80,127,2256673328
47,17,19,Jits_Linear_5,3,5,63,98,2256753136
47,17,19,Jits_Linear_5,0,1,48,54,2257159632
47,17,19,Jits_Linear_5,1,5,80,127,2257183044
47,17,19,Jits_Linear_5,2,5,63,98,2257242344
47,17,19,Jits_Linear_5,3,5,56,103,2257273348
47,17,19,Jits_Linear_5,0,1,48,52,2257690332
47,17,19,Jits_Linear_5,1,5,56,103,2257703432
47,17,19,Jits_Linear_5,2,5,80,127,2257762632
47,17,19,Jits_Linear_5,3,5,63,98,2257802632
47,17,19,Jits_Linear_5,0,1,48,52,2258182844
47,17,19,Jits_Linear_5,1,5,56,103,2258282904
47,17,19,Jits_Linear_5,2,5,63,98,2258293172
47,17,19,Jits_Linear_5,3,5,80,127,2258296612
47,17,19,Jits_Linear_5,0,1,48,51,2258737160
47,17,19,Jits_Linear_5,1,5,80,127,2258763488
47,17,19,Jits_Linear_5,2,5,63,98,2258853388
47,17,19,Jits_Linear_5,3,5,56,103,2258862464
47,17,19,Jits_Linear_5,0,1,48,52,2259235428
47,17,19,Jits_Linear_5,1,5,56,103,2259292536
47,17,19,Jits_Linear_5,2,5,63,98,2259295712
47,17,19,Jits_Linear_5,3,5,80,127,2259298828
47,17,19,Jits_Linear_5,0,1,48,53,2259743988
47,17,19,Jits_Linear_5,1,5,80,127,2259842548
47,17,19,Jits_Linear_5,2,5,63,98,2259892528
47,17,19,Jits_Linear_5,3,5,56,103,2259923476
47,17,19,Jits_Linear_5,0,1,48,51,2260332788
47,17,19,Jits_Linear_5,1,5,56,103,2260353564
47,17,19,Jits_Linear_5,2,5,80,127,2260362636
47,17,19,Jits_Linear_5,3,5,63,98,2260433352
47,17,19,Jits_Linear_5,0,1,48,51,2260864612
47,17,19,Jits_Linear_5,1,5,56,103,2260893184
47,17,19,Jits_Linear_5,2,5,63,98,2260912376
47,17,19,Jits_Linear_5,3,5,80,127,2260972976
47,17,19,Jits_Linear_5,0,1,48,53,2261394192
47,17,19,Jits_Linear_5,1,5,80,127,2261422544
47,17,19,Jits_Linear_5,2,5,63,98,2261493260
47,17,19,Jits_Linear_5,3,5,56,103,2261512524
47,17,19,Jits_Linear_5,0,1,48,56,2261952396
47,17,19,Jits_Linear_5,1,5,80,127,2261982544
47,17,19,Jits_Linear_5,2,5,56,103,2261992740
47,17,19,Jits_Linear_5,3,5,63,98,2262003012
47,17,19,Jits_Linear_5,0,1,48,44,2262486540
47,17,19,Jits_Linear_5,1,5,80,127,2262512944
47,17,19,Jits_Linear_5,2,5,56,103,2262532432
47,17,19,Jits_Linear_5,3,5,63,98,2262603396
47,17,19,Jits_Linear_5,0,1,48,46,2263015972
47,17,19,Jits_Linear_5,1,5,56,103,2263062980
47,17,19,Jits_Linear_5,2,5,80,127,2263092680
47,17,19,Jits_Linear_5,3,5,63,98,2263113288
47,17,19,Jits_Linear_5,0,1,48,51,2263588060
47,17,19,Jits_Linear_5,1,5,63,98,2263602480
47,17,19,Jits_Linear_5,2,5,56,103,2263663024
47,17,19,Jits_Linear_5,3,5,80,127,2263692536
47,17,19,Jits_Linear_5,0,1,48,49,2264123868
47,17,19,Jits_Linear_5,1,5,63,98,2264143444
47,17,19,Jits_Linear_5,2,5,80,127,2264146660
47,17,19,Jits_Linear_5,3,5,56,103,2264233268
47,17,19,Jits_Linear_5,0,1,48,47,2264670060
47,17,19,Jits_Linear_5,1,5,56,103,2264712508
47,17,19,Jits_Linear_5,2,5,63,98,2264743456
47,17,19,Jits_Linear_5,3,5,80,127,2264783456
47,17,19,Jits_Linear_5,0,1,48,45,2265217408
47,17,19,Jits_Linear_5,1,5,63,98,2265262400
47,17,19,Jits_Linear_5,2,5,56,103,2265303384
47,17,19,Jits_Linear_5,3,5,80,127,2265322932
47,17,19,Jits_Linear_5,0,1,48,47,2265771032
47,17,19,Jits_Linear_5,1,5,63,98,2265822620
47,17,19,Jits_Linear_5,2,5,56,103,2265862412
47,17,19,Jits_Linear_5,3,5,80,127,2265872816
47,17,19,Jits_Linear_5,0,1,48,55,2266301532
47,17,19,Jits_Linear_5,1,5,80,127,2266353324
47,17,19,Jits_Linear_5,2,5,63,98,2266422644
47,17,19,Jits_Linear_5,3,5,56,103,2266443328
47,17,19,Jits_Linear_5,0,5,56,103,2266902844
47,17,19,Jits_Linear_5,1,1,48,46,2266912336
47,17,19,Jits_Linear_5,2,5,80,127,2266923396
47,17,19,Jits_Linear_5,3,5,63,98,2266963484
47,17,19,Jits_Linear_5,0,1,48,52,2267409612
47,17,19,Jits_Linear_5,1,5,63,98,2267473284
47,17,19,Jits_Linear_5,2,5,80,127,2267492624
47,17,19,Jits_Linear_5,3,5,56,103,2267532620
47,17,19,Jits_Linear_5,0,1,48,46,2267957944
47,17,19,Jits_Linear_5,1,5,63,98,2268033428
47,17,19,Jits_Linear_5,2,5,56,103,2268052916
47,17,19,Jits_Linear_5,3,5,80,127,2268063100
47,17,19,Jits_Linear_5,0,1,48,50,2268503344
47,17,19,Jits_Linear_5,1,5,80,127,2268592380
47,17,19,Jits_Linear_5,2,5,56,103,2268613196
47,17,19,Jits_Linear_5,3,5,63,98,2268642648
47,17,19,Jits_Linear_5,0,1,48,51,2269120664
47,17,19,Jits_Linear_5,1,5,56,103,2269232628
47,17,19,Jits_Linear_5,2,5,80,127,2269235544
47,17,19,Jits_Linear_5,3,5,63,98,2269253088
47,17,19,Jits_Linear_5,0,1,48,48,2269721192
47,17,19,Jits_Linear_5,1,5,63,98,2269723008
47,17,19,Jits_Linear_5,2,5,56,103,2269752564
47,17,19,Jits_Linear_5,3,5,80,127,2269813324
47,17,19,Jits_Linear_5,0,1,48,48,2270269136
47,17,19,Jits_Linear_5,1,5,63,98,2270373156
47,17,19,Jits_Linear_5,2,5,56,103,2270382304
47,17,19,Jits_Linear_5,3,5,80,127,2270392652
47,17,19,Jits_Linear_5,0,1,48,52,2270802780
47,17,19,Jits_Linear_5,1,5,56,103,2270893464
47,17,19,Jits_Linear_5,2,5,80,127,2270923200
47,17,19,Jits_Linear_5,3,5,63,98,2270933472
47,17,19,Jits_Linear_5,0,1,48,54,2271383084
47,17,19,Jits_Linear_5,1,5,63,98,2271502604
47,17,19,Jits_Linear_5,2,5,56,103,2271513020
47,17,19,Jits_Linear_5,3,5,80,127,2271533432
47,17,19,Jits_Linear_5,0,1,48,43,2271975756
47,17,19,Jits_Linear_5,1,5,56,103,2272002308
47,17,19,Jits_Linear_5,2,5,63,98,2272062720
47,17,19,Jits_Linear_5,3,5,80,127,2272066312
47,17,19,Jits_Linear_5,0,1,48,52,2272486140
47,17,19,Jits_Linear_5,1,5,80,127,2272602544
47,17,19,Jits_Linear_5,2,5,56,103,2272613184
47,17,19,Jits_Linear_5,3,5,63,98,2272683392
47,17,19,Jits_Linear_5,0,1,48,54,2273084680
47,17,19,Jits_Linear_5,1,5,80,127,2273172892
47,17,19,Jits_Linear_5,2,5,56,103,2273242488
47,17,19,Jits_Linear_5,3,5,63,98,2273252684
47,17,19,Jits_Linear_5,0,1,48,53,2273711220
47,17,19,Jits_Linear_5,1,5,63,98,2273793436
47,17,19,Jits_Linear_5,2,5,56,103,2273802584
47,17,19,Jits_Linear_5,3,5,80,127,2273822952
47,17,19,Jits_Linear_5,0,1,48,56,2274279368
47,17,19,Jits_Linear_5,1,5,80,127,2274322792
47,17,19,Jits_Linear_5,2,5,63,98,2274383120
47,17,19,Jits_Linear_5,3,5,56,103,2274423132
47,17,19,Jits_Linear_5,0,1,48,60,2274856336
47,17,19,Jits_Linear_5,1,5,56,103,2274952632
47,17,19,Jits_Linear_5,2,5,63,98,2274962976
47,17,19,Jits_Linear_5,3,5,80,127,2275002840
47,17,19,Jits_Linear_5,0,1,48,48,2275467128
47,17,19,Jits_Linear_5,1,5,56,103,2275502380
47,17,19,Jits_Linear_5,2,5,80,127,2275533104
47,17,19,Jits_Linear_5,3,5,63,98,2275583216
47,17,19,Jits_Linear_5,0,1,48,50,2276096732
47,17,19,Jits_Linear_5,1,5,56,103,2276133428
47,17,19,Jits_Linear_5,2,5,63,98,2276173216
47,17,19,Jits_Linear_5,3,5,80,127,2276176652
47,17,19,Jits_Linear_5,0,1,48,50,2276700816
47,17,19,Jits_Linear_5,1,5,56,103,2276723236
47,17,19,Jits_Linear_5,2,5,63,98,2276733284
47,17,19,Jits_Linear_5,3,5,80,127,2276752700
47,17,19,Jits_Linear_5,0,5,56,103,2277273052
47,17,19,Jits_Linear_5,1,5,80,127,2277276044
47,17,19,Jits_Linear_5,2,1,48,58,2277301428
47,17,19,Jits_Linear_5,3,5,63,98,2277313132
47,17,19,Jits_Linear_5,0,1,48,60,2277865012
47,17,19,Jits_Linear_5,1,5,63,98,2277902580
47,17,19,Jits_Linear_5,2,5,56,103,2277933404
47,17,19,Jits_Linear_5,3,5,80,127,2277953188
47,17,19,Jits_Linear_5,0,1,48,54,2278457104
47,17,19,Jits_Linear_5,1,5,80,127,2278473020
47,17,19,Jits_Linear_5,2,5,56,103,2278483292
47,17,19,Jits_Linear_5,3,5,63,98,2278492444
47,17,19,Jits_Linear_5,0,1,48,48,2279035912
47,17,19,Jits_Linear_5,1,5,56,103,2279073100
47,17,19,Jits_Linear_5,2,5,80,127,2279113116
47,17,19,Jits_Linear_5,3,5,63,98,2279142704
47,17,19,Jits_Linear_5,0,1,48,62,2279619872
47,17,19,Jits_Linear_5,1,5,63,98,2279682548
47,17,19,Jits_Linear_5,2,5,80,127,2279692600
47,17,19,Jits_Linear_5,3,5,56,103,2279703020
47,17,19,Jits_Linear_5,0,1,48,65,2280242476
47,17,19,Jits_Linear_5,1,5,56,103,2280263028
47,17,19,Jits_Linear_5,2,5,63,98,2280333968
47,17,19,Jits_Linear_5,3,5,80,127,2280342968
47,17,19,Jits_Linear_5,0,1,48,55,2280812812
47,17,19,Jits_Linear_5,1,5,80,127,2280873372
47,17,19,Jits_Linear_5,2,5,56,103,2280882596
47,17,19,Jits_Linear_5,3,5,63,98,2280932860
47,17,19,Jits_Linear_5,0,1,48,51,2281385236
47,17,19,Jits_Linear_5,1,5,80,127,2281493064
47,17,19,Jits_Linear_5,2,5,56,103,2281553260
47,17,19,Jits_Linear_5,3,5,63,98,2281582936
47,17,19,Jits_Linear_5,0,1,48,56,2282073388
47,17,19,Jits_Linear_5,1,5,56,103,2282103080
47,17,19,Jits_Linear_5,2,5,80,127,2282106068
47,17,19,Jits_Linear_5,3,5,63,98,2282143016
47,17,19,Jits_Linear_5,0,1,48,62,2282709032
47,17,19,Jits_Linear_5,1,5,56,103,2282743156
47,17,19,Jits_Linear_5,2,5,63,98,2282772912
47,17,19,Jits_Linear_5,3,5,80,127,2282783180
47,17,19,Jits_Linear_5,0,1,48,58,2283334596
47,17,19,Jits_Linear_5,1,5,63,98,2283362948
47,17,19,Jits_Linear_5,2,5,80,127,2283373068
47,17,19,Jits_Linear_5,3,5,56,103,2283383040
47,17,19,Jits_Linear_5,0,1,48,56,2283923296
47,17,19,Jits_Linear_5,1,5,80,127,2283932912
47,17,19,Jits_Linear_5,2,5,56,103,2283983188
47,17,19,Jits_Linear_5,3,5,63,98,2283986256
47,17,19,Jits_Linear_5,0,1,48,53,2284539016
47,17,19,Jits_Linear_5,1,5,56,103,2284583204
47,17,19,Jits_Linear_5,2,5,80,127,2284602916
47,17,19,Jits_Linear_5,3,5,63,98,2284612964
47,17,19,Jits_Linear_5,0,1,48,53,2285151872
47,17,19,Jits_Linear_5,1,5,63,98,2285183364
47,17,19,Jits_Linear_5,2,5,56,103,2285213040
47,17,19,Jits_Linear_5,3,5,80,127,2285232528
47,17,19,Jits_Linear_5,0,1,48,60,2285746100
47,17,19,Jits_Linear_5,1,5,56,103,2285813040
47,17,19,Jits_Linear_5,2,5,80,127,2285823312
47,17,19,Jits_Linear_5,3,5,63,98,2285892928
47,17,19,Jits_Linear_5,0,1,48,36,2286274408
47,17,19,Jits_Linear_5,1,5,63,98,2286423400
47,17,19,Jits_Linear_5,2,5,80,127,2286463416
47,17,19,Jits_Linear_5,3,5,56,103,2286503204
47,17,19,Jits_Linear_5,0,1,48,63,2287019044
47,17,19,Jits_Linear_5,1,5,56,103,2287063284
47,17,19,Jits_Linear_5,2,5,63,98,2287072880
47,17,19,Jits_Linear_5,3,5,80,127,2287093116
47,17,19,Jits_Linear_5,0,1,48,60,2287641912
47,17,19,Jits_Linear_5,1,5,63,98,2287733068
47,17,19,Jits_Linear_5,2,5,80,127,2287752840
47,17,19,Jits_Linear_5,3,5,56,103,2287773076
47,17,19,Jits_Linear_5,0,1,48,63,2288248824
47,17,19,Jits_Linear_5,1,5,56,103,2288302360
47,17,19,Jits_Linear_5,2,5,80,127,2288383340
47,17,19,Jits_Linear_5,3,5,63,98,2288392792
47,17,19,Jits_Linear_5,0,1,48,69,2288883016
47,17,19,Jits_Linear_5,1,5,80,127,2288973048
47,17,19,Jits_Linear_5,2,5,63,98,2288983452
47,17,19,Jits_Linear_5,3,5,56,103,2289013056
47,17,19,Jits_Linear_5,0,5,63,98,2289563020
47,17,19,Jits_Linear_5,1,1,48,66,2289589360
47,17,19,Jits_Linear_5,2,5,80,127,2289602956
47,17,19,Jits_Linear_5,3,5,56,103,2289663420
47,17,19,Jits_Linear_5,0,5,63,98,2290202888
47,17,19,Jits_Linear_5,1,1,48,62,2290220872
47,17,19,Jits_Linear_5,2,5,56,103,2290253112
47,17,19,Jits_Linear_5,3,5,80,127,2290282936
47,17,19,Jits_Linear_5,0,1,48,62,2290843872
47,17,19,Jits_Linear_5,1,5,80,127,2290853184
47,17,19,Jits_Linear_5,2,5,63,98,2290862632
47,17,19,Jits_Linear_5,3,5,56,103,2290933064
47,17,19,Jits_Linear_5,0,1,48,52,2291470156
47,17,19,Jits_Linear_5,1,5,80,127,2291562832
47,17,19,Jits_Linear_5,2,5,56,103,2291573084
47,17,19,Jits_Linear_5,3,5,63,98,2291576152
47,17,19,Jits_Linear_5,0,1,48,54,2292090116
47,17,19,Jits_Linear_5,1,5,56,103,2292142676
47,17,19,Jits_Linear_5,2,5,80,127,2292162988
47,17,19,Jits_Linear_5,3,5,63,98,2292173184
47,17,19,Jits_Linear_5,0,1,48,46,2292682120
47,17,19,Jits_Linear_5,1,5,63,98,2292792668
47,17,19,Jits_Linear_5,2,5,56,103,2292832756
47,17,19,Jits_Linear_5,3,5,80,127,2292852992
47,17,19,Jits_Linear_5,0,1,48,56,2293377896
47,17,19,Jits_Linear_5,1,5,63,98,2293442892
47,17,19,Jits_Linear_5,2,5,56,103,2293503640
47,17,19,Jits_Linear_5,3,5,80,127,2293506484
47,17,19,Jits_Linear_5,0,1,48,57,2294025632
47,17,19,Jits_Linear_5,1,5,56,103,2294053184
47,17,19,Jits_Linear_5,2,5,80,127,2294072820
47,17,19,Jits_Linear_5,3,5,63,98,2294112536
47,17,19,Jits_Linear_5,0,1,48,59,2294632104
47,17,19,Jits_Linear_5,1,5,56,103,2294733036
47,17,19,Jits_Linear_5,2,5,63,98,2294752676
47,17,19,Jits_Linear_5,3,5,80,127,2294762796
47,17,19,Jits_Linear_5,0,1,48,70,2295289412
47,17,19,Jits_Linear_5,1,5,80,127,2295352636
47,17,19,Jits_Linear_5,2,5,56,103,2295383584
47,17,19,Jits_Linear_5,3,5,63,98,2295423284
47,17,19,Jits_Linear_5,0,1,48,57,2295939784
47,17,19,Jits_Linear_5,1,5,80,127,2296013100
47,17,19,Jits_Linear_5,2,5,56,103,2296032588
47,17,19,Jits_Linear_5,3,5,63,98,2296093112
47,17,19,Jits_Linear_5,0,1,48,57,2296631764
47,17,19,Jits_Linear_5,1,5,56,103,2296672696
47,17,19,Jits_Linear_5,2,5,80,127,2296693008
47,17,19,Jits_Linear_5,3,5,63,98,2296752488
47,17,19,Jits_Linear_5,0,1,48,57,2297279932
47,17,19,Jits_Linear_5,1,5,80,127,2297312636
47,17,19,Jits_Linear_5,2,5,56,103,2297322980
47,17,19,Jits_Linear_5,3,5,63,98,2297362772
47,17,19,Jits_Linear_5,0,1,48,57,2297895248
47,17,19,Jits_Linear_5,1,5,63,98,2297972976
47,17,19,Jits_Linear_5,2,5,56,103,2298012972
47,17,19,Jits_Linear_5,3,5,80,127,2298015964
47,17,19,Jits_Linear_5,0,1,48,52,2298540028
47,17,19,Jits_Linear_5,1,5,63,98,2298653116
47,17,19,Jits_Linear_5,2,5,80,127,2298692932
47,17,19,Jits_Linear_5,3,5,56,103,2298722536
47,17,19,Jits_Linear_5,0,1,48,63,2299233056
47,17,19,Jits_Linear_5,1,5,56,103,2299303288
47,17,19,Jits_Linear_5,2,5,63,98,2299312436
47,17,19,Jits_Linear_5,3,5,80,127,2299343068
47,17,19,Jits_Linear_5,0,1,48,58,2299799244
47,17,19,Jits_Linear_5,1,5,80,127,2299962780
47,17,19,Jits_Linear_5,2,5,63,98,2300033436
47,17,19,Jits_Linear_5,3,5,56,103,2300042660
47,17,19,Jits_Linear_5,0,1,48,60,2300567640
47,17,19,Jits_Linear_5,1,5,63,98,2300632556
47,17,19,Jits_Linear_5,2,5,56,103,2300703052
47,17,19,Jits_Linear_5,3,5,80,127,2300713496
47,17,19,Jits_Linear_5,0,1,48,60,2301285304
47,17,19,Jits_Linear_5,1,5,63,98,2301303240
47,17,19,Jits_Linear_5,2,5,56,103,2301322580
47,17,19,Jits_Linear_5,3,5,80,127,2301362444
47,17,19,Jits_Linear_5,0,1,48,63,2301878628
47,17,19,Jits_Linear_5,1,5,56,103,2301983168
47,17,19,Jits_Linear_5,2,5,63,98,2301993612
47,17,19,Jits_Linear_5,3,5,80,127,2302073412
47,17,19,Jits_Linear_5,0,1,48,62,2302548264
47,17,19,Jits_Linear_5,1,5,63,98,2302643060
47,17,19,Jits_Linear_5,2,5,56,103,2302673488
47,17,19,Jits_Linear_5,3,5,80,127,2302713352
47,17,19,Jits_Linear_5,0,1,48,57,2303223200
47,17,19,Jits_Linear_5,1,5,56,103,2303314488
47,17,19,Jits_Linear_5,2,5,63,98,2303353532
47,17,19,Jits_Linear_5,3,5,80,127,2303393396
47,17,19,Jits_Linear_5,0,1,48,57,2303873204
47,17,19,Jits_Linear_5,1,5,80,127,2303993388
47,17,19,Jits_Linear_5,2,5,56,103,2304073140
47,17,19,Jits_Linear_5,3,5,63,98,2304083408
47,17,19,Jits_Linear_5,0,1,48,60,2304611772
47,17,19,Jits_Linear_5,1,5,56,103,2304713076
47,17,19,Jits_Linear_5,2,5,63,98,2304716064
47,17,19,Jits_Linear_5,3,5,80,127,2304723492
47,17,19,Jits_Linear_5,0,1,48,61,2305331668
47,17,19,Jits_Linear_5,1,5,56,103,2305412536
47,17,19,Jits_Linear_5,2,5,63,98,2305432908
47,17,19,Jits_Linear_5,3,5,80,127,2305443324
47,17,19,Jits_Linear_5,0,5,63,98,2306052408
47,17,19,Jits_Linear_5,1,5,80,127,2306062604
47,17,19,Jits_Linear_5,2,5,56,103,2306083464
47,17,19,Jits_Linear_5,3,1,48,62,2306085912
47,17,19,Jits_Linear_5,0,1,48,65,2306708208
47,17,19,Jits_Linear_5,1,5,63,98,2306742712
47,17,19,Jits_Linear_5,2,5,56,103,2306822568
47,17,19,Jits_Linear_5,3,5,80,127,2306825412
47,17,19,Jits_Linear_5,0,1,48,64,2307386232
47,17,19,Jits_Linear_5,1,5,63,98,2307432720
47,17,19,Jits_Linear_5,2,5,56,103,2307453552
47,17,19,Jits_Linear_5,3,5,80,127,2307483584
47,17,19,Jits_Linear_5,0,1,48,51,2308086332
47,17,19,Jits_Linear_5,1,5,56,103,2308123224
47,17,19,Jits_Linear_5,2,5,63,98,2308142440
47,17,19,Jits_Linear_5,3,5,80,127,2308152708
47,17,19,Jits_Linear_5,0,1,48,61,2308708680
47,17,19,Jits_Linear_5,1,5,56,103,2308842964
47,17,19,Jits_Linear_5,2,5,63,98,2308872564
47,17,19,Jits_Linear_5,3,5,80,127,2308875928
47,17,19,Jits_Linear_5,0,1,48,52,2309437124
47,17,19,Jits_Linear_5,1,5,56,103,2309482936
47,17,19,Jits_Linear_5,2,5,63,98,2309522804
47,17,19,Jits_Linear_5,3,5,80,127,2309583400
47,17,19,Jits_Linear_5,0,1,48,64,2310101720
47,17,19,Jits_Linear_5,1,5,56,103,2310192504
47,17,19,Jits_Linear_5,2,5,63,98,2310202684
47,17,19,Jits_Linear_5,3,5,80,127,2310263376
47,17,19,Jits_Linear_5,0,1,48,66,2310779280
47,17,19,Jits_Linear_5,1,5,56,103,2310903300
47,17,19,Jits_Linear_5,2,5,80,127,2310922564
47,17,19,Jits_Linear_5,3,5,63,98,2310953240
47,17,19,Jits_Linear_5,0,1,48,46,2311478052
47,17,19,Jits_Linear_5,1,5,80,127,2311602528
47,17,19,Jits_Linear_5,2,5,56,103,2311612724
47,17,19,Jits_Linear_5,3,5,63,98,2311633332
47,17,19,Jits_Linear_5,0,5,63,98,2312292780
47,17,19,Jits_Linear_5,1,1,48,53,2312312840
47,17,19,Jits_Linear_5,2,5,80,127,2312372652
47,17,19,Jits_Linear_5,3,5,56,103,2312382920
47,17,19,Jits_Linear_5,0,1,48,31,2312907432
47,17,19,Jits_Linear_5,1,5,80,127,2313052456
47,17,19,Jits_Linear_5,2,5,56,103,2313073284
47,17,19,Jits_Linear_5,3,5,63,98,2313076352
47,17,19,Jits_Linear_5,0,1,48,61,2313596612
47,17,19,Jits_Linear_5,1,5,63,98,2313732396
47,17,19,Jits_Linear_5,2,5,80,127,2313735684
47,17,19,Jits_Linear_5,3,5,56,103,2313792960
47,17,19,Jits_Linear_5,0,1,48,57,2314315688
47,17,19,Jits_Linear_5,1,5,56,103,2314422700
47,17,19,Jits_Linear_5,2,5,80,127,2314433044
47,17,19,Jits_Linear_5,3,5,63,98,2314472912
47,17,19,Jits_Linear_5,0,1,48,57,2315010480
47,17,19,Jits_Linear_5,1,5,56,103,2315112784
47,17,19,Jits_Linear_5,2,5,63,98,2315173176
47,17,19,Jits_Linear_5,3,5,80,127,2315182328
47,17,19,Jits_Linear_5,0,1,48,67,2315788884
47,17,19,Jits_Linear_5,1,5,63,98,2315832628
47,17,19,Jits_Linear_5,2,5,80,127,2315872496
47,17,19,Jits_Linear_5,3,5,56,103,2315912568
47,17,19,Jits_Linear_5,0,1,48,60,2316417004
47,17,19,Jits_Linear_5,1,5,56,103,2316543276
47,17,19,Jits_Linear_5,2,5,63,98,2316623176
47,17,19,Jits_Linear_5,3,5,80,127,2316626688
47,17,19,Jits_Linear_5,0,1,48,61,2317249968
47,17,19,Jits_Linear_5,1,5,80,127,2317313464
47,17,19,Jits_Linear_5,2,5,56,103,2317343068
47,17,19,Jits_Linear_5,3,5,63,98,2317346788
47,17,19,Jits_Linear_5,0,1,48,66,2317915160
47,17,19,Jits_Linear_5,1,5,56,103,2317993404
47,17,19,Jits_Linear_5,2,5,80,127,2318012728
47,17,19,Jits_Linear_5,3,5,63,98,2318052668
47,17,19,Jits_Linear_5,0,5,80,127,2318693012
47,17,19,Jits_Linear_5,1,1,48,55,2318695464
47,17,19,Jits_Linear_5,2,5,63,98,2318713096
47,17,19,Jits_Linear_5,3,5,56,103,2318772592
47,17,19,Jits_Linear_5,0,1,48,59,2319344772
47,17,19,Jits_Linear_5,1,5,63,98,2319423116
47,17,19,Jits_Linear_5,2,5,56,103,2319433316
47,17,19,Jits_Linear_5,3,5,80,127,2319483280
47,17,19,Jits_Linear_5,0,1,48,60,2320084976
47,17,19,Jits_Linear_5,1,5,56,103,2320132508
47,17,19,Jits_Linear_5,2,5,63,98,2320152968
47,17,19,Jits_Linear_5,3,5,80,127,2320163116
47,17,19,Jits_Linear_5,0,1,48,59,2320782780
47,17,19,Jits_Linear_5,1,5,56,103,2320853456
47,17,19,Jits_Linear_5,2,5,63,98,2320856448
47,17,19,Jits_Linear_5,3,5,80,127,2320872944
47,17,19,Jits_Linear_5,0,1,48,60,2321507004
47,17,19,Jits_Linear_5,1,5,63,98,2321623308
47,17,19,Jits_Linear_5,2,5,56,103,2321653060
47,17,19,Jits_Linear_5,3,5,80,127,2321682960
47,17,19,Jits_Linear_5,0,1,48,62,2322233216
47,17,19,Jits_Linear_5,1,5,80,127,2322312440
47,17,19,Jits_Linear_5,2,5,56,103,2322402636
47,17,19,Jits_Linear_5,3,5,63,98,2322405776
47,17,19,Jits_Linear_5,0,5,56,103,2323042756
47,17,19,Jits_Linear_5,1,5,80,127,2323045672
47,17,19,Jits_Linear_5,2,1,48,59,2323105884
47,17,19,Jits_Linear_5,3,5,63,98,2323122620
47,17,19,Jits_Linear_5,0,1,48,57,2323727232
47,17,19,Jits_Linear_5,1,5,80,127,2323772996
47,17,19,Jits_Linear_5,2,5,63,98,2323833080
47,17,19,Jits_Linear_5,3,5,56,103,2323862904
47,17,19,Jits_Linear_5,0,1,48,64,2324478160
47,17,19,Jits_Linear_5,1,5,63,98,2324502844
47,17,19,Jits_Linear_5,2,5,80,127,2324513144
47,17,19,Jits_Linear_5,3,5,56,103,2324582884
47,17,19,Jits_Linear_5,0,1,48,54,2325142028
47,17,19,Jits_Linear_5,1,5,56,103,2325252404
47,17,19,Jits_Linear_5,2,5,80,127,2325283156
47,17,19,Jits_Linear_5,3,5,63,98,2325333432
47,17,19,Jits_Linear_5,0,1,48,64,2325963304
47,17,19,Jits_Linear_5,1,5,63,98,2326032936
47,17,19,Jits_Linear_5,2,5,56,103,2326062472
47,17,19,Jits_Linear_5,3,5,80,127,2326065760
47,17,19,Jits_Linear_5,0,1,48,60,2326673836
47,17,19,Jits_Linear_5,1,5,63,98,2326773048
47,17,19,Jits_Linear_5,2,5,80,127,2326792536
47,17,19,Jits_Linear_5,3,5,56,103,2326802732
47,17,19,Jits_Linear_5,0,1,48,64,2327416216
47,17,19,Jits_Linear_5,1,5,56,103,2327522920
47,17,19,Jits_Linear_5,2,5,63,98,2327525764
47,17,19,Jits_Linear_5,3,5,80,127,2327543084
47,17,19,Jits_Linear_5,0,1,48,68,2328166084
47,17,19,Jits_Linear_5,1,5,56,103,2328222984
47,17,19,Jits_Linear_5,2,5,63,98,2328233328
47,17,19,Jits_Linear_5,3,5,80,127,2328262988
47,17,19,Jits_Linear_5,0,1,48,63,2328879008
47,17,19,Jits_Linear_5,1,5,63,98,2328992992
47,17,19,Jits_Linear_5,2,5,80,127,2329012780
47,17,19,Jits_Linear_5,3,5,56,103,2329052496
47,17,19,Jits_Linear_5,0,1,48,65,2329615532
47,17,19,Jits_Linear_5,1,5,56,103,2329773364
47,17,19,Jits_Linear_5,2,5,63,98,2329813376
47,17,19,Jits_Linear_5,3,5,80,127,2329816740
47,17,19,Jits_Linear_5,0,5,80,127,2330462564
47,17,19,Jits_Linear_5,1,1,48,71,2330501600
47,17,19,Jits_Linear_5,2,5,56,103,2330503320
47,17,19,Jits_Linear_5,3,5,63,98,2330552624
47,17,19,Jits_Linear_5,0,1,48,63,2331150512
47,17,19,Jits_Linear_5,1,5,56,103,2331272744
47,17,19,Jits_Linear_5,2,5,80,127,2331282792
47,17,19,Jits_Linear_5,3,5,63,98,2331312764
47,17,19,Jits_Linear_5,0,1,48,69,2331927652
47,17,19,Jits_Linear_5,1,5,56,103,2331973108
47,17,19,Jits_Linear_5,2,5,80,127,2332013052
47,17,19,Jits_Linear_5,3,5,63,98,2332063088
47,17,19,Jits_Linear_5,0,1,48,63,2332643440
47,17,19,Jits_Linear_5,1,5,56,103,2332732796
47,17,19,Jits_Linear_5,2,5,80,127,2332772724
47,17,19,Jits_Linear_5,3,5,63,98,2332822856
47,17,19,Jits_Linear_5,0,1,48,50,2333420668
47,17,19,Jits_Linear_5,1,5,80,127,2333483496
47,17,19,Jits_Linear_5,2,5,63,98,2333563132
47,17,19,Jits_Linear_5,3,5,56,103,2333572728
47,17,19,Jits_Linear_5,0,1,48,65,2334232648
47,17,19,Jits_Linear_5,1,5,80,127,2334293236
47,17,19,Jits_Linear_5,2,5,56,103,2334302536
47,17,19,Jits_Linear_5,3,5,63,98,2334323068
47,17,19,Jits_Linear_5,0,1,48,51,2334991288
47,17,19,Jits_Linear_5,1,5,63,98,2335022580
47,17,19,Jits_Linear_5,2,5,56,103,2335093220
47,17,19,Jits_Linear_5,3,5,80,127,2335096360
47,17,19,Jits_Linear_5,0,1,48,63,2335653044
47,17,19,Jits_Linear_5,1,5,80,127,2335783148
47,17,19,Jits_Linear_5,2,5,63,98,2335832604
47,17,19,Jits_Linear_5,3,5,56,103,2335873664
47,17,19,Jits_Linear_5,0,1,48,64,2336491108
47,17,19,Jits_Linear_5,1,5,63,98,2336593336
47,17,19,Jits_Linear_5,2,5,56,103,2336633200
47,17,19,Jits_Linear_5,3,5,80,127,2336642572
47,17,19,Jits_Linear_5,0,1,48,59,2337247340
47,17,19,Jits_Linear_5,1,5,63,98,2337353028
47,17,19,Jits_Linear_5,2,5,56,103,2337372740
47,17,19,Jits_Linear_5,3,5,80,127,2337392900
47,17,19,Jits_Linear_5,0,1,48,60,2338014076
47,17,19,Jits_Linear_5,1,5,80,127,2338083136
47,17,19,Jits_Linear_5,2,5,56,103,2338093780
47,17,19,Jits_Linear_5,3,5,63,98,2338112880
47,17,19,Jits_Linear_5,0,1,48,62,2338786792
47,17,19,Jits_Linear_5,1,5,63,98,2338882816
47,17,19,Jits_Linear_5,2,5,56,103,2338922756
47,17,19,Jits_Linear_5,3,5,80,127,2338952652
47,17,19,Jits_Linear_5,0,1,48,66,2339546704
47,17,19,Jits_Linear_5,1,5,56,103,2339663556
47,17,19,Jits_Linear_5,2,5,63,98,2339692788
47,17,19,Jits_Linear_5,3,5,80,127,2339722688
47,17,19,Jits_Linear_5,0,1,48,63,2340371524
47,17,19,Jits_Linear_5,1,5,80,127,2340412776
47,17,19,Jits_Linear_5,2,5,56,103,2340482596
47,17,19,Jits_Linear_5,3,5,63,98,2340485584
47,17,19,Jits_Linear_5,0,1,48,60,2341198492
47,17,19,Jits_Linear_5,1,5,56,103,2341203468
47,17,19,Jits_Linear_5,2,5,63,98,2341252556
47,17,19,Jits_Linear_5,3,5,80,127,2341283204
47,17,19,Jits_Linear_5,0,1,48,57,2341913812
47,17,19,Jits_Linear_5,1,5,63,98,2341963156
47,17,19,Jits_Linear_5,2,5,80,127,2341966596
47,17,19,Jits_Linear_5,3,5,56,103,2342022560
47,17,19,Jits_Linear_5,0,1,48,58,2342679236
47,17,19,Jits_Linear_5,1,5,56,103,2342773092
47,17,19,Jits_Linear_5,2,5,80,127,2342783588
47,17,19,Jits_Linear_5,3,5,63,98,2342832444
47,17,19,Jits_Linear_5,0,1,48,60,2343486384
47,17,19,Jits_Linear_5,1,5,63,98,2343532872
47,17,19,Jits_Linear_5,2,5,56,103,2343543292
47,17,19,Jits_Linear_5,3,5,80,127,2343572744
47,17,19,Jits_Linear_5,0,1,48,63,2344262188
47,17,19,Jits_Linear_5,1,5,63,98,2344353388
47,17,19,Jits_Linear_5,2,5,80,127,2344357484
47,17,19,Jits_Linear_5,3,5,56,103,2344382900
47,17,19,Jits_Linear_5,0,1,48,58,2345087856
47,17,19,Jits_Linear_5,1,5,63,98,2345163268
47,17,19,Jits_Linear_5,2,5,56,103,2345182528
47,17,19,Jits_Linear_5,3,5,80,127,2345186700
47,17,19,Jits_Linear_5,0,1,48,64,2345859076
47,17,19,Jits_Linear_5,1,5,63,98,2345912608
47,17,19,Jits_Linear_5,2,5,56,103,2345983548
47,17,19,Jits_Linear_5,3,5,80,127,2346002736
47,17,19,Jits_Linear_5,0,1,48,69,2346638244
47,17,19,Jits_Linear_5,1,5,56,103,2346692976
47,17,19,Jits_Linear_5,2,5,63,98,2346703172
47,17,19,Jits_Linear_5,3,5,80,127,2346793316
47,17,19,Jits_Linear_5,0,1,48,60,2347430444
47,17,19,Jits_Linear_5,1,5,56,103,2347502860
47,17,19,Jits_Linear_5,2,5,80,127,2347542936
47,17,19,Jits_Linear_5,3,5,63,98,2347553380
47,17,19,Jits_Linear_5,0,1,48,74,2348193292
47,17,19,Jits_Linear_5,1,5,56,103,2348323172
47,17,19,Jits_Linear_5,2,5,63,98,2348352848
47,17,19,Jits_Linear_5,3,5,80,127,2348382672
47,17,19,Jits_Linear_5,0,1,48,59,2349035392
47,17,19,Jits_Linear_5,1,5,80,127,2349082848
47,17,19,Jits_Linear_5,2,5,63,98,2349122892
47,17,19,Jits_Linear_5,3,5,56,103,2349143408
47,17,19,Jits_Linear_5,0,1,48,69,2349834416
47,17,19,Jits_Linear_5,1,5,56,103,2349922652
47,17,19,Jits_Linear_5,2,5,80,127,2349943248
47,17,19,Jits_Linear_5,3,5,63,98,2349962584
47,17,19,Jits_Linear_5,0,1,48,72,2350617316
47,17,19,Jits_Linear_5,1,5,63,98,2350692676
47,17,19,Jits_Linear_5,2,5,56,103,2350703320
47,17,19,Jits_Linear_5,3,5,80,127,2350763400
47,17,19,Jits_Linear_5,0,1,48,69,2351418456
47,17,19,Jits_Linear_5,1,5,56,103,2351502780
47,17,19,Jits_Linear_5,2,5,63,98,2351573496
47,17,19,Jits_Linear_5,3,5,80,127,2351592684
47,17,19,Jits_Linear_5,0,1,48,70,2352269324
47,17,19,Jits_Linear_5,1,5,56,103,2352312668
47,17,19,Jits_Linear_5,2,5,63,98,2352343316
47,17,19,Jits_Linear_5,3,5,80,127,2352383316
47,17,19,Jits_Linear_5,0,1,48,62,2353049012
47,17,19,Jits_Linear_5,1,5,63,98,2353112584
47,17,19,Jits_Linear_5,2,5,56,103,2353162548
47,17,19,Jits_Linear_5,3,5,80,127,2353172896
47,17,19,Jits_Linear_5,0,1,48,60,2353846316
47,17,19,Jits_Linear_5,1,5,56,103,2353963384
47,17,19,Jits_Linear_5,2,5,63,98,2354012468
47,17,19,Jits_Linear_5,3,5,80,127,2354022812
47,17,19,Jits_Linear_5,0,1,48,75,2354690528
47,17,19,Jits_Linear_5,1,5,56,103,2354742572
47,17,19,Jits_Linear_5,2,5,63,98,2354752844
47,17,19,Jits_Linear_5,3,5,80,127,2354832628
47,17,19,Jits_Linear_5,0,9999,9999,9999,2245990464
47,17,19,Jits_Linear_5,1,9999,9999,9999,2246470756
47,17,19,Jits_Linear_5,2,9999,9999,9999,2246950984
47,17,19,Jits_Linear_5,3,9999,9999,9999,2247430204
47,17,19,Jits_Linear_5,4,9999,9999,9999,2247910492
47,17,19,Jits_Linear_5,5,9999,9999,9999,2248400968
47,17,19,Jits_Linear_5,6,9999,9999,9999,2248890472
47,17,19,Jits_Linear_5,7,9999,9999,9999,2249380960
47,17,19,Jits_Linear_5,8,9999,9999,9999,2249870460
47,17,19,Jits_Linear_5,9,9999,9999,9999,2250360948
47,17,19,Jits_Linear_5,10,9999,9999,9999,2250860640
47,17,19,Jits_Linear_5,11,9999,9999,9999,2251360328
47,17,19,Jits_Linear_5,12,9999,9999,9999,2251861060
47,17,19,Jits_Linear_5,13,9999,9999,9999,2252360820
47,17,19,Jits_Linear_5,14,9999,9999,9999,2252860500
47,17,19,Jits_Linear_5,15,9999,9999,9999,2253370452
47,17,19,Jits_Linear_5,16,9999,9999,9999,2253880404
47,17,19,Jits_Linear_5,17,9999,9999,9999,2254390356
47,17,19,Jits_Linear_5,18,9999,9999,9999,2254900308
47,17,19,Jits_Linear_5,19,9999,9999,9999,2255410260
47,17,19,Jits_Linear_5,20,9999,9999,9999,2255930476
47,17,19,Jits_Linear_5,21,9999,9999,9999,2256450616
47,17,19,Jits_Linear_5,22,9999,9999,9999,2256970828
47,17,19,Jits_Linear_5,23,9999,9999,9999,2257491044
47,17,19,Jits_Linear_5,24,9999,9999,9999,2258010212
47,17,19,Jits_Linear_5,25,9999,9999,9999,2258540608
47,17,19,Jits_Linear_5,26,9999,9999,9999,2259071092
47,17,19,Jits_Linear_5,27,9999,9999,9999,2259600500
47,17,19,Jits_Linear_5,28,9999,9999,9999,2260130904
47,17,19,Jits_Linear_5,29,9999,9999,9999,2260660336
47,17,19,Jits_Linear_5,30,9999,9999,9999,2261201004
47,17,19,Jits_Linear_5,31,9999,9999,9999,2261740628
47,17,19,Jits_Linear_5,32,9999,9999,9999,2262280248
47,17,19,Jits_Linear_5,33,9999,9999,9999,2262820940
47,17,19,Jits_Linear_5,34,9999,9999,9999,2263360640
47,17,19,Jits_Linear_5,35,9999,9999,9999,2263910528
47,17,19,Jits_Linear_5,36,9999,9999,9999,2264460404
47,17,19,Jits_Linear_5,37,9999,9999,9999,2265010292
47,17,19,Jits_Linear_5,38,9999,9999,9999,2265560180
47,17,19,Jits_Linear_5,39,9999,9999,9999,2266111036
47,17,19,Jits_Linear_5,40,9999,9999,9999,2266670164
47,17,19,Jits_Linear_5,41,9999,9999,9999,2267230308
47,17,19,Jits_Linear_5,42,9999,9999,9999,2267790396
47,17,19,Jits_Linear_5,43,9999,9999,9999,2268350540
47,17,19,Jits_Linear_5,44,9999,9999,9999,2268910684
47,17,19,Jits_Linear_5,45,9999,9999,9999,2269481044
47,17,19,Jits_Linear_5,46,9999,9999,9999,2270050412
47,17,19,Jits_Linear_5,47,9999,9999,9999,2270620756
47,17,19,Jits_Linear_5,48,9999,9999,9999,2271190124
47,17,19,Jits_Linear_5,49,9999,9999,9999,2271760468
47,17,19,Jits_Linear_5,50,9999,9999,9999,2272341084
47,17,19,Jits_Linear_5,51,9999,9999,9999,2272920640
47,17,19,Jits_Linear_5,52,9999,9999,9999,2273500272
47,17,19,Jits_Linear_5,53,9999,9999,9999,2274080876
47,17,19,Jits_Linear_5,54,9999,9999,9999,2274660456
47,17,19,Jits_Linear_5,55,9999,9999,9999,2275250276
47,17,19,Jits_Linear_5,56,9999,9999,9999,2275840096
47,17,19,Jits_Linear_5,57,9999,9999,9999,2276430976
47,17,19,Jits_Linear_5,58,9999,9999,9999,2277020792
47,17,19,Jits_Linear_5,59,9999,9999,9999,2277610596
47,17,19,Jits_Linear_5,60,9999,9999,9999,2278210652
47,17,19,Jits_Linear_5,61,9999,9999,9999,2278810732
47,17,19,Jits_Linear_5,62,9999,9999,9999,2279410812
47,17,19,Jits_Linear_5,63,9999,9999,9999,2280010848
47,17,19,Jits_Linear_5,64,9999,9999,9999,2280610928
47,17,19,Jits_Linear_5,65,9999,9999,9999,2281220224
47,17,19,Jits_Linear_5,66,9999,9999,9999,2281830520
47,17,19,Jits_Linear_5,67,9999,9999,9999,2282440780
47,17,19,Jits_Linear_5,68,9999,9999,9999,2283051128
47,17,19,Jits_Linear_5,69,9999,9999,9999,2283670616
47,17,19,Jits_Linear_5,70,9999,9999,9999,2284290168
47,17,19,Jits_Linear_5,71,9999,9999,9999,2284910652
47,17,19,Jits_Linear_5,72,9999,9999,9999,2285530216
47,17,19,Jits_Linear_5,73,9999,9999,9999,2286150780
47,17,19,Jits_Linear_5,74,9999,9999,9999,2286770272
47,17,19,Jits_Linear_5,75,9999,9999,9999,2287401016
47,17,19,Jits_Linear_5,76,9999,9999,9999,2288030848
47,17,19,Jits_Linear_5,77,9999,9999,9999,2288660604
47,17,19,Jits_Linear_5,78,9999,9999,9999,2289290308
47,17,19,Jits_Linear_5,79,9999,9999,9999,2289920056
47,17,19,Jits_Linear_5,80,9999,9999,9999,2290560100
47,17,19,Jits_Linear_5,81,9999,9999,9999,2291200112
47,17,19,Jits_Linear_5,82,9999,9999,9999,2291840076
47,17,19,Jits_Linear_5,83,9999,9999,9999,2292480088
47,17,19,Jits_Linear_5,84,9999,9999,9999,2293120056
47,17,19,Jits_Linear_5,85,9999,9999,9999,2293770336
47,17,19,Jits_Linear_5,86,9999,9999,9999,2294420560
47,17,19,Jits_Linear_5,87,9999,9999,9999,2295070836
47,17,19,Jits_Linear_5,88,9999,9999,9999,2295721060
47,17,19,Jits_Linear_5,89,9999,9999,9999,2296370244
47,17,19,Jits_Linear_5,90,9999,9999,9999,2297030784
47,17,19,Jits_Linear_5,91,9999,9999,9999,2297690224
47,17,19,Jits_Linear_5,92,9999,9999,9999,2298350680
47,17,19,Jits_Linear_5,93,9999,9999,9999,2299010124
47,17,19,Jits_Linear_5,94,9999,9999,9999,2299670588
47,17,19,Jits_Linear_5,95,9999,9999,9999,2300340292
47,17,19,Jits_Linear_5,96,9999,9999,9999,2301011048
47,17,19,Jits_Linear_5,97,9999,9999,9999,2301680728
47,17,19,Jits_Linear_5,98,9999,9999,9999,2302350440
47,17,19,Jits_Linear_5,99,9999,9999,9999,2303020148
47,17,19,Jits_Linear_5,100,9999,9999,9999,2303701064
47,17,19,Jits_Linear_5,101,9999,9999,9999,2304381036
47,17,19,Jits_Linear_5,102,9999,9999,9999,2305060928
47,17,19,Jits_Linear_5,103,9999,9999,9999,2305740880
47,17,19,Jits_Linear_5,104,9999,9999,9999,2306420852
47,17,19,Jits_Linear_5,105,9999,9999,9999,2307111008
47,17,19,Jits_Linear_5,106,9999,9999,9999,2307800172
47,17,19,Jits_Linear_5,107,9999,9999,9999,2308490328
47,17,19,Jits_Linear_5,108,9999,9999,9999,2309180480
47,17,19,Jits_Linear_5,109,9999,9999,9999,2309870692
47,17,19,Jits_Linear_5,110,9999,9999,9999,2310571116
47,17,19,Jits_Linear_5,111,9999,9999,9999,2311280756
47,17,19,Jits_Linear_5,112,9999,9999,9999,2311980132
47,17,19,Jits_Linear_5,113,9999,9999,9999,2312680536
47,17,19,Jits_Linear_5,114,9999,9999,9999,2313380956
47,17,19,Jits_Linear_5,115,9999,9999,9999,2314090588
47,17,19,Jits_Linear_5,116,9999,9999,9999,2314800232
47,17,19,Jits_Linear_5,117,9999,9999,9999,2315510892
47,17,19,Jits_Linear_5,118,9999,9999,9999,2316220532
47,17,19,Jits_Linear_5,119,9999,9999,9999,2316930168
47,17,19,Jits_Linear_5,120,9999,9999,9999,2317651016
47,17,19,Jits_Linear_5,121,9999,9999,9999,2318370924
47,17,19,Jits_Linear_5,122,9999,9999,9999,2319090804
47,17,19,Jits_Linear_5,123,9999,9999,9999,2319810648
47,17,19,Jits_Linear_5,124,9999,9999,9999,2320530552
47,17,19,Jits_Linear_5,125,9999,9999,9999,2321260628
47,17,19,Jits_Linear_5,126,9999,9999,9999,2321990728
47,17,19,Jits_Linear_5,127,9999,9999,9999,2322720888
47,17,19,Jits_Linear_5,128,9999,9999,9999,2323450948
47,17,19,Jits_Linear_5,129,9999,9999,9999,2324181056
47,17,19,Jits_Linear_5,130,9999,9999,9999,2324920440
47,17,19,Jits_Linear_5,131,9999,9999,9999,2325660800
47,17,19,Jits_Linear_5,132,9999,9999,9999,2326400104
47,17,19,Jits_Linear_5,133,9999,9999,9999,2327140464
47,17,19,Jits_Linear_5,134,9999,9999,9999,2327880816
47,17,19,Jits_Linear_5,135,9999,9999,9999,2328630388
47,17,19,Jits_Linear_5,136,9999,9999,9999,2329380936
47,17,19,Jits_Linear_5,137,9999,9999,9999,2330130556
47,17,19,Jits_Linear_5,138,9999,9999,9999,2330880056
47,17,19,Jits_Linear_5,139,9999,9999,9999,2331630696
47,17,19,Jits_Linear_5,140,9999,9999,9999,2332390460
47,17,19,Jits_Linear_5,141,9999,9999,9999,2333150296
47,17,19,Jits_Linear_5,142,9999,9999,9999,2333910136
47,17,19,Jits_Linear_5,143,9999,9999,9999,2334670948
47,17,19,Jits_Linear_5,144,9999,9999,9999,2335430780
47,17,19,Jits_Linear_5,145,9999,9999,9999,2336200812
47,17,19,Jits_Linear_5,146,9999,9999,9999,2336970840
47,17,19,Jits_Linear_5,147,9999,9999,9999,2337740868
47,17,19,Jits_Linear_5,148,9999,9999,9999,2338510964
47,17,19,Jits_Linear_5,149,9999,9999,9999,2339280996
47,17,19,Jits_Linear_5,150,9999,9999,9999,2340060248
47,17,19,Jits_Linear_5,151,9999,9999,9999,2340840528
47,17,19,Jits_Linear_5,152,9999,9999,9999,2341620820
47,17,19,Jits_Linear_5,153,9999,9999,9999,2342400124
47,17,19,Jits_Linear_5,154,9999,9999,9999,2343180416
47,17,19,Jits_Linear_5,155,9999,9999,9999,2343970916
47,17,19,Jits_Linear_5,156,9999,9999,9999,2344760416
47,17,19,Jits_Linear_5,157,9999,9999,9999,2345550960
47,17,19,Jits_Linear_5,158,9999,9999,9999,2346340472
47,17,19,Jits_Linear_5,159,9999,9999,9999,2347130948
47,17,19,Jits_Linear_5,160,9999,9999,9999,2347930720
47,17,19,Jits_Linear_5,161,9999,9999,9999,2348730496
47,17,19,Jits_Linear_5,162,9999,9999,9999,2349530188
47,17,19,Jits_Linear_5,163,9999,9999,9999,2350331008
47,17,19,Jits_Linear_5,164,9999,9999,9999,2351130700
47,17,19,Jits_Linear_5,165,9999,9999,9999,2351940680
47,17,19,Jits_Linear_5,166,9999,9999,9999,2352750716
47,17,19,Jits_Linear_5,167,9999,9999,9999,2353560672
47,17,19,Jits_Linear_5,168,9999,9999,9999,2354370636
47,17,19,Jits_Linear_5,169,9999,9999,9999,2355180672
47,18,7,Jits_ISO_8,0,5,56,103,2366520860
47,18,7,Jits_ISO_8,1,5,63,98,2366524112
47,18,7,Jits_ISO_8,2,5,80,127,2366527156
47,18,7,Jits_ISO_8,0,1,48,46,2367124664
47,18,7,Jits_ISO_8,1,5,56,103,2367320312
47,18,7,Jits_ISO_8,2,5,63,98,2367323412
47,18,7,Jits_ISO_8,3,5,80,127,2367326684
47,18,7,Jits_ISO_8,0,1,48,55,2367945332
47,18,7,Jits_ISO_8,1,5,80,127,2368060984
47,18,7,Jits_ISO_8,2,1,48,14,2368077800
47,18,7,Jits_ISO_8,3,5,63,98,2368150964
47,18,7,Jits_ISO_8,4,5,56,103,2368161232
47,18,7,Jits_ISO_8,0,1,48,56,2368870052
47,18,7,Jits_ISO_8,1,5,56,103,2368880940
47,18,7,Jits_ISO_8,2,5,63,98,2368891284
47,18,7,Jits_ISO_8,3,5,80,127,2368981400
47,18,7,Jits_ISO_8,0,5,63,98,2369650988
47,18,7,Jits_ISO_8,1,5,80,127,2369680884
47,18,7,Jits_ISO_8,2,1,48,56,2369684828
47,18,7,Jits_ISO_8,3,5,56,103,2369710628
47,18,7,Jits_ISO_8,0,1,48,60,2370354148
47,18,7,Jits_ISO_8,1,5,56,103,2370450832
47,18,7,Jits_ISO_8,2,5,80,127,2370551220
47,18,7,Jits_ISO_8,3,5,63,98,2370601296
47,18,7,Jits_ISO_8,0,1,48,65,2371202496
47,18,7,Jits_ISO_8,1,5,56,103,2371250848
47,18,7,Jits_ISO_8,2,5,80,127,2371300888
47,18,7,Jits_ISO_8,3,5,63,98,2371340752
47,18,7,Jits_ISO_8,0,1,48,64,2372003028
47,18,7,Jits_ISO_8,1,5,80,127,2372080972
47,18,7,Jits_ISO_8,2,5,63,98,2372110856
47,18,7,Jits_ISO_8,3,5,56,103,2372181536
47,18,7,Jits_ISO_8,0,1,48,67,2372812028
47,18,7,Jits_ISO_8,1,5,63,98,2372910436
47,18,7,Jits_ISO_8,2,5,56,103,2372941160
47,18,7,Jits_ISO_8,3,5,80,127,2373000728
47,18,7,Jits_ISO_8,0,1,48,60,2373644100
47,18,7,Jits_ISO_8,1,5,56,103,2373650716
47,18,7,Jits_ISO_8,2,5,80,127,2373653716
47,18,7,Jits_ISO_8,3,5,63,98,2373770832
47,18,7,Jits_ISO_8,0,1,48,74,2374430712
47,18,7,Jits_ISO_8,1,5,56,103,2374531348
47,18,7,Jits_ISO_8,2,5,80,127,2374571588
47,18,7,Jits_ISO_8,3,5,63,98,2374580584
47,18,7,Jits_ISO_8,0,1,48,71,2375233652
47,18,7,Jits_ISO_8,1,5,56,103,2375291368
47,18,7,Jits_ISO_8,2,5,80,127,2375310780
47,18,7,Jits_ISO_8,3,5,63,98,2375390560
47,18,7,Jits_ISO_8,0,1,48,62,2376074272
47,18,7,Jits_ISO_8,1,5,80,127,2376080740
47,18,7,Jits_ISO_8,2,5,56,103,2376180976
47,18,7,Jits_ISO_8,3,5,63,98,2376191320
47,18,7,Jits_ISO_8,0,5,63,98,2376850864
47,18,7,Jits_ISO_8,1,1,48,75,2376852804
47,18,7,Jits_ISO_8,2,5,80,127,2376911176
47,18,7,Jits_ISO_8,3,5,56,103,2376920696
47,18,7,Jits_ISO_8,0,1,48,54,2377637120
47,18,7,Jits_ISO_8,1,5,56,103,2377650488
47,18,7,Jits_ISO_8,2,5,63,98,2377721292
47,18,7,Jits_ISO_8,3,5,80,127,2377724732
47,18,7,Jits_ISO_8,0,1,48,65,2378360552
47,18,7,Jits_ISO_8,1,5,63,98,2378480964
47,18,7,Jits_ISO_8,2,5,56,103,2378531116
47,18,7,Jits_ISO_8,3,5,80,127,2378534332
47,18,7,Jits_ISO_8,0,1,48,61,2379182280
47,18,7,Jits_ISO_8,1,5,56,103,2379240816
47,18,7,Jits_ISO_8,2,5,80,127,2379243884
47,18,7,Jits_ISO_8,3,5,63,98,2379330812
47,18,7,Jits_ISO_8,0,1,48,57,2380006236
47,18,7,Jits_ISO_8,1,5,63,98,2380080696
47,18,7,Jits_ISO_8,2,5,56,103,2380170744
47,18,7,Jits_ISO_8,3,5,80,127,2380201760
47,18,7,Jits_ISO_8,0,1,48,59,2380797484
47,18,7,Jits_ISO_8,1,5,56,103,2380871120
47,18,7,Jits_ISO_8,2,5,63,98,2380971508
47,18,7,Jits_ISO_8,3,5,80,127,2381001032
47,18,7,Jits_ISO_8,0,1,48,60,2381606588
47,18,7,Jits_ISO_8,1,5,63,98,2381691436
47,18,7,Jits_ISO_8,2,5,56,103,2381700440
47,18,7,Jits_ISO_8,3,5,80,127,2381790556
47,18,7,Jits_ISO_8,0,1,48,61,2382419424
47,18,7,Jits_ISO_8,1,5,63,98,2382510628
47,18,7,Jits_ISO_8,2,5,56,103,2382591384
47,18,7,Jits_ISO_8,3,5,80,127,2382594452
47,18,7,Jits_ISO_8,0,1,48,59,2383224144
47,18,7,Jits_ISO_8,1,5,80,127,2383271596
47,18,7,Jits_ISO_8,2,5,63,98,2383290712
47,18,7,Jits_ISO_8,3,5,56,103,2383351012
47,18,7,Jits_ISO_8,0,1,48,58,2384064688
47,18,7,Jits_ISO_8,1,5,56,103,2384110868
47,18,7,Jits_ISO_8,2,5,63,98,2384130576
47,18,7,Jits_ISO_8,3,5,80,127,2384133940
47,18,7,Jits_ISO_8,0,1,48,57,2384838920
47,18,7,Jits_ISO_8,1,5,63,98,2384851524
47,18,7,Jits_ISO_8,2,5,80,127,2384931420
47,18,7,Jits_ISO_8,3,5,56,103,2384941676
47,18,7,Jits_ISO_8,0,1,48,58,2385616732
47,18,7,Jits_ISO_8,1,5,63,98,2385670640
47,18,7,Jits_ISO_8,2,5,56,103,2385691264
47,18,7,Jits_ISO_8,3,5,80,127,2385741304
47,18,7,Jits_ISO_8,0,1,48,57,2386402508
47,18,7,Jits_ISO_8,1,5,80,127,2386471484
47,18,7,Jits_ISO_8,2,5,63,98,2386511484
47,18,7,Jits_ISO_8,3,5,56,103,2386530524
47,18,7,Jits_ISO_8,0,1,48,55,2387198676
47,18,7,Jits_ISO_8,1,5,56,103,2387310892
47,18,7,Jits_ISO_8,2,5,63,98,2387321236
47,18,7,Jits_ISO_8,3,5,80,127,2387340796
47,18,7,Jits_ISO_8,0,1,48,61,2388012368
47,18,7,Jits_ISO_8,1,5,56,103,2388041460
47,18,7,Jits_ISO_8,2,5,63,98,2388131284
47,18,7,Jits_ISO_8,3,5,80,127,2388190776
47,18,7,Jits_ISO_8,0,1,48,61,2388834552
47,18,7,Jits_ISO_8,1,5,80,127,2388870620
47,18,7,Jits_ISO_8,2,5,56,103,2388880888
47,18,7,Jits_ISO_8,3,5,63,98,2388951380
47,18,7,Jits_ISO_8,0,1,48,58,2389605560
47,18,7,Jits_ISO_8,1,5,63,98,2389700896
47,18,7,Jits_ISO_8,2,5,80,127,2389791116
47,18,7,Jits_ISO_8,3,5,56,103,2389801460
47,18,7,Jits_ISO_8,0,5,63,98,2390441428
47,18,7,Jits_ISO_8,1,1,48,54,2390468512
47,18,7,Jits_ISO_8,2,5,80,127,2390490428
47,18,7,Jits_ISO_8,3,5,56,103,2390550968
47,18,7,Jits_ISO_8,0,1,48,54,2391149248
47,18,7,Jits_ISO_8,1,5,56,103,2391270636
47,18,7,Jits_ISO_8,2,5,80,127,2391321064
47,18,7,Jits_ISO_8,3,5,63,98,2391341540
47,18,7,Jits_ISO_8,0,1,48,61,2391927360
47,18,7,Jits_ISO_8,1,5,56,103,2392041040
47,18,7,Jits_ISO_8,2,5,80,127,2392101380
47,18,7,Jits_ISO_8,3,5,63,98,2392170912
47,18,7,Jits_ISO_8,0,1,48,63,2392779380
47,18,7,Jits_ISO_8,1,5,56,103,2392840616
47,18,7,Jits_ISO_8,2,5,80,127,2392871720
47,18,7,Jits_ISO_8,3,5,63,98,2392900948
47,18,7,Jits_ISO_8,0,1,48,59,2393620816
47,18,7,Jits_ISO_8,1,5,56,103,2393681324
47,18,7,Jits_ISO_8,2,5,80,127,2393700588
47,18,7,Jits_ISO_8,3,5,63,98,2393761336
47,18,7,Jits_ISO_8,0,1,48,58,2394439956
47,18,7,Jits_ISO_8,1,5,80,127,2394560964
47,18,7,Jits_ISO_8,2,5,56,103,2394571308
47,18,7,Jits_ISO_8,3,5,63,98,2394581504
47,18,7,Jits_ISO_8,0,1,48,64,2395267976
47,18,7,Jits_ISO_8,1,5,56,103,2395320540
47,18,7,Jits_ISO_8,2,5,80,127,2395360480
47,18,7,Jits_ISO_8,3,5,63,98,2395391260
47,18,7,Jits_ISO_8,0,1,48,61,2396066648
47,18,7,Jits_ISO_8,1,5,56,103,2396090736
47,18,7,Jits_ISO_8,2,5,63,98,2396120412
47,18,7,Jits_ISO_8,3,5,80,127,2396161384
47,18,7,Jits_ISO_8,0,1,48,60,2396833624
47,18,7,Jits_ISO_8,1,5,80,127,2396841292
47,18,7,Jits_ISO_8,2,5,63,98,2396890452
47,18,7,Jits_ISO_8,3,5,56,103,2396911132
47,18,7,Jits_ISO_8,0,1,48,60,2397587388
47,18,7,Jits_ISO_8,1,5,56,103,2397670740
47,18,7,Jits_ISO_8,2,5,80,127,2397741408
47,18,7,Jits_ISO_8,3,5,63,98,2397801124
47,18,7,Jits_ISO_8,0,1,48,63,2398458432
47,18,7,Jits_ISO_8,1,5,80,127,2398470608
47,18,7,Jits_ISO_8,2,5,63,98,2398560604
47,18,7,Jits_ISO_8,3,5,56,103,2398581136
47,18,7,Jits_ISO_8,0,1,48,58,2399275632
47,18,7,Jits_ISO_8,1,5,63,98,2399290800
47,18,7,Jits_ISO_8,2,5,56,103,2399311332
47,18,7,Jits_ISO_8,3,5,80,127,2399351272
47,18,7,Jits_ISO_8,0,1,48,65,2400022200
47,18,7,Jits_ISO_8,1,5,80,127,2400050500
47,18,7,Jits_ISO_8,2,5,63,98,2400071180
47,18,7,Jits_ISO_8,3,5,56,103,2400150960
47,18,7,Jits_ISO_8,0,1,48,62,2400826192
47,18,7,Jits_ISO_8,1,5,63,98,2400841060
47,18,7,Jits_ISO_8,2,5,56,103,2400950584
47,18,7,Jits_ISO_8,3,5,80,127,2400953800
47,18,7,Jits_ISO_8,0,5,63,98,2401661220
47,18,7,Jits_ISO_8,1,5,56,103,2401670516
47,18,7,Jits_ISO_8,2,1,48,60,2401673204
47,18,7,Jits_ISO_8,3,5,80,127,2401674920
47,18,7,Jits_ISO_8,0,1,48,59,2402382360
47,18,7,Jits_ISO_8,1,5,56,103,2402440600
47,18,7,Jits_ISO_8,2,5,80,127,2402561292
47,18,7,Jits_ISO_8,3,5,63,98,2402601328
47,18,7,Jits_ISO_8,0,1,48,54,2403233916
47,18,7,Jits_ISO_8,1,5,56,103,2403260916
47,18,7,Jits_ISO_8,2,5,80,127,2403340624
47,18,7,Jits_ISO_8,3,5,63,98,2403361108
47,18,7,Jits_ISO_8,0,1,48,62,2404029208
47,18,7,Jits_ISO_8,1,5,56,103,2404060552
47,18,7,Jits_ISO_8,2,5,63,98,2404171072
47,18,7,Jits_ISO_8,3,5,80,127,2404174588
47,18,7,Jits_ISO_8,0,1,48,64,2404785448
47,18,7,Jits_ISO_8,1,5,56,103,2404890980
47,18,7,Jits_ISO_8,2,5,80,127,2404920808
47,18,7,Jits_ISO_8,3,5,63,98,2404941264
47,18,7,Jits_ISO_8,0,1,48,63,2405614828
47,18,7,Jits_ISO_8,1,5,63,98,2405671148
47,18,7,Jits_ISO_8,2,5,56,103,2405680524
47,18,7,Jits_ISO_8,3,5,80,127,2405691016
47,18,7,Jits_ISO_8,0,1,48,66,2406381868
47,18,7,Jits_ISO_8,1,5,80,127,2406460740
47,18,7,Jits_ISO_8,2,5,56,103,2406510928
47,18,7,Jits_ISO_8,3,5,63,98,2406551012
47,18,7,Jits_ISO_8,0,1,48,59,2407162768
47,18,7,Jits_ISO_8,1,5,80,127,2407281112
47,18,7,Jits_ISO_8,2,5,63,98,2407300452
47,18,7,Jits_ISO_8,3,5,56,103,2407350724
47,18,7,Jits_ISO_8,0,1,48,64,2408064920
47,18,7,Jits_ISO_8,1,5,80,127,2408090876
47,18,7,Jits_ISO_8,2,5,56,103,2408120704
47,18,7,Jits_ISO_8,3,5,63,98,2408191268
47,18,7,Jits_ISO_8,0,1,48,61,2408868152
47,18,7,Jits_ISO_8,1,5,56,103,2408940864
47,18,7,Jits_ISO_8,2,5,80,127,2408951284
47,18,7,Jits_ISO_8,3,5,63,98,2408991084
47,18,7,Jits_ISO_8,0,5,56,103,2409650748
47,18,7,Jits_ISO_8,1,5,63,98,2409670988
47,18,7,Jits_ISO_8,2,1,48,60,2409696728
47,18,7,Jits_ISO_8,3,5,80,127,2409740960
47,18,7,Jits_ISO_8,0,1,48,57,2410355132
47,18,7,Jits_ISO_8,1,5,63,98,2410470684
47,18,7,Jits_ISO_8,2,5,80,127,2410531324
47,18,7,Jits_ISO_8,3,5,56,103,2410550660
47,18,7,Jits_ISO_8,0,1,48,51,2411206912
47,18,7,Jits_ISO_8,1,5,80,127,2411261268
47,18,7,Jits_ISO_8,2,5,56,103,2411291044
47,18,7,Jits_ISO_8,3,5,63,98,2411320852
47,18,7,Jits_ISO_8,0,1,48,49,2411959580
47,18,7,Jits_ISO_8,1,5,56,103,2412060908
47,18,7,Jits_ISO_8,2,5,63,98,2412120328
47,18,7,Jits_ISO_8,3,5,80,127,2412180868
47,18,7,Jits_ISO_8,0,1,48,57,2412796964
47,18,7,Jits_ISO_8,1,5,80,127,2412881312
47,18,7,Jits_ISO_8,2,5,56,103,2412900932
47,18,7,Jits_ISO_8,3,5,63,98,2412971584
47,18,7,Jits_ISO_8,0,1,48,55,2413657756
47,18,7,Jits_ISO_8,1,5,80,127,2413681092
47,18,7,Jits_ISO_8,2,5,63,98,2413700584
47,18,7,Jits_ISO_8,3,5,56,103,2413731156
47,18,7,Jits_ISO_8,0,1,48,52,2414373260
47,18,7,Jits_ISO_8,1,5,80,127,2414470820
47,18,7,Jits_ISO_8,2,5,63,98,2414491056
47,18,7,Jits_ISO_8,3,5,56,103,2414551524
47,18,7,Jits_ISO_8,0,1,48,48,2415155128
47,18,7,Jits_ISO_8,1,1,48,31,2415233632
47,18,7,Jits_ISO_8,2,5,80,127,2415271348
47,18,7,Jits_ISO_8,3,5,56,103,2415370688
47,18,7,Jits_ISO_8,4,5,63,98,2415401284
47,18,7,Jits_ISO_8,0,5,63,98,2416060828
47,18,7,Jits_ISO_8,1,1,48,55,2416069200
47,18,7,Jits_ISO_8,2,5,80,127,2416111024
47,18,7,Jits_ISO_8,3,5,56,103,2416130364
47,18,7,Jits_ISO_8,0,5,80,127,2416900544
47,18,7,Jits_ISO_8,1,5,56,103,2416931292
47,18,7,Jits_ISO_8,2,5,63,98,2416934580
47,18,7,Jits_ISO_8,3,1,48,41,2416993144
47,18,7,Jits_ISO_8,0,1,48,44,2417574576
47,18,7,Jits_ISO_8,1,5,63,98,2417730908
47,18,7,Jits_ISO_8,2,5,56,103,2417770924
47,18,7,Jits_ISO_8,3,5,80,127,2417791232
47,18,7,Jits_ISO_8,0,1,48,52,2418457924
47,18,7,Jits_ISO_8,1,5,80,127,2418471372
47,18,7,Jits_ISO_8,2,5,63,98,2418551316
47,18,7,Jits_ISO_8,3,5,56,103,2418590944
47,18,7,Jits_ISO_8,0,5,63,98,2419290572
47,18,7,Jits_ISO_8,1,1,48,56,2419305748
47,18,7,Jits_ISO_8,2,5,80,127,2419371560
47,18,7,Jits_ISO_8,3,5,56,103,2419390968
47,18,7,Jits_ISO_8,0,1,48,56,2420055628
47,18,7,Jits_ISO_8,1,5,56,103,2420131108
47,18,7,Jits_ISO_8,2,5,63,98,2420141528
47,18,7,Jits_ISO_8,3,5,80,127,2420181376
47,18,7,Jits_ISO_8,0,1,48,57,2420846800
47,18,7,Jits_ISO_8,1,5,56,103,2420851100
47,18,7,Jits_ISO_8,2,5,80,127,2420854168
47,18,7,Jits_ISO_8,3,5,63,98,2420991560
47,18,7,Jits_ISO_8,0,1,48,59,2421599380
47,18,7,Jits_ISO_8,1,5,56,103,2421640532
47,18,7,Jits_ISO_8,2,5,63,98,2421730656
47,18,7,Jits_ISO_8,3,5,80,127,2421801408
47,18,7,Jits_ISO_8,0,1,48,54,2422415712
47,18,7,Jits_ISO_8,1,5,63,98,2422521064
47,18,7,Jits_ISO_8,2,5,80,127,2422524656
47,18,7,Jits_ISO_8,3,5,56,103,2422580588
47,18,7,Jits_ISO_8,0,1,48,51,2423230932
47,18,7,Jits_ISO_8,1,5,80,127,2423360884
47,18,7,Jits_ISO_8,2,5,56,103,2423381344
47,18,7,Jits_ISO_8,3,5,63,98,2423390716
47,18,7,Jits_ISO_8,0,5,56,103,2424070464
47,18,7,Jits_ISO_8,1,1,48,58,2424079528
47,18,7,Jits_ISO_8,2,5,63,98,2424081556
47,18,7,Jits_ISO_8,3,5,80,127,2424151484
47,18,7,Jits_ISO_8,0,5,80,127,2424871412
47,18,7,Jits_ISO_8,1,1,48,54,2424881504
47,18,7,Jits_ISO_8,2,5,56,103,2424920636
47,18,7,Jits_ISO_8,3,5,63,98,2424970688
47,18,7,Jits_ISO_8,0,1,48,48,2425683168
47,18,7,Jits_ISO_8,1,5,56,103,2425750776
47,18,7,Jits_ISO_8,2,5,63,98,2425761272
47,18,7,Jits_ISO_8,3,5,80,127,2425800972
47,18,7,Jits_ISO_8,0,1,48,57,2426472548
47,18,7,Jits_ISO_8,1,5,56,103,2426491300
47,18,7,Jits_ISO_8,2,5,63,98,2426531240
47,18,7,Jits_ISO_8,3,5,80,127,2426581572
47,18,7,Jits_ISO_8,0,1,48,57,2427231424
47,18,7,Jits_ISO_8,1,5,80,127,2427251004
47,18,7,Jits_ISO_8,2,5,56,103,2427301356
47,18,7,Jits_ISO_8,3,5,63,98,2427320620
47,18,7,Jits_ISO_8,0,1,48,60,2428030676
47,18,7,Jits_ISO_8,1,5,80,127,2428060972
47,18,7,Jits_ISO_8,2,5,63,98,2428120540
47,18,7,Jits_ISO_8,3,5,56,103,2428201688
47,18,7,Jits_ISO_8,0,5,80,127,2428841508
47,18,7,Jits_ISO_8,1,1,48,54,2428874520
47,18,7,Jits_ISO_8,2,5,56,103,2428881368
47,18,7,Jits_ISO_8,3,5,63,98,2428900704
47,18,7,Jits_ISO_8,0,1,48,54,2429586792
47,18,7,Jits_ISO_8,1,5,56,103,2429691404
47,18,7,Jits_ISO_8,2,5,80,127,2429700332
47,18,7,Jits_ISO_8,3,5,63,98,2429741640
47,18,7,Jits_ISO_8,0,1,48,56,2430401344
47,18,7,Jits_ISO_8,1,5,56,103,2430560596
47,18,7,Jits_ISO_8,2,5,63,98,2430600536
47,18,7,Jits_ISO_8,3,5,80,127,2430603972
47,18,7,Jits_ISO_8,0,5,63,98,2431250840
47,18,7,Jits_ISO_8,1,1,48,51,2431285896
47,18,7,Jits_ISO_8,2,5,80,127,2431290724
47,18,7,Jits_ISO_8,3,5,56,103,2431361528
47,18,7,Jits_ISO_8,0,1,48,49,2432038920
47,18,7,Jits_ISO_8,1,5,63,98,2432041352
47,18,7,Jits_ISO_8,2,5,56,103,2432121300
47,18,7,Jits_ISO_8,3,5,80,127,2432180700
47,18,7,Jits_ISO_8,0,1,48,52,2432773652
47,18,7,Jits_ISO_8,1,5,80,127,2432851400
47,18,7,Jits_ISO_8,2,5,63,98,2432900392
47,18,7,Jits_ISO_8,3,5,56,103,2432931336
47,18,7,Jits_ISO_8,0,1,48,49,2433614732
47,18,7,Jits_ISO_8,1,5,56,103,2433640688
47,18,7,Jits_ISO_8,2,5,63,98,2433691192
47,18,7,Jits_ISO_8,3,5,80,127,2433701388
47,18,7,Jits_ISO_8,0,1,48,60,2434389720
47,18,7,Jits_ISO_8,1,5,56,103,2434450880
47,18,7,Jits_ISO_8,2,5,63,98,2434561380
47,18,7,Jits_ISO_8,3,5,80,127,2434580716
47,18,7,Jits_ISO_8,0,5,63,98,2435250448
47,18,7,Jits_ISO_8,1,5,80,127,2435300728
47,18,7,Jits_ISO_8,2,1,48,49,2435322056
47,18,7,Jits_ISO_8,3,5,56,103,2435390952
47,18,7,Jits_ISO_8,0,5,63,98,2436041240
47,18,7,Jits_ISO_8,1,5,80,127,2436070768
47,18,7,Jits_ISO_8,2,1,48,52,2436105796
47,18,7,Jits_ISO_8,3,5,56,103,2436160992
47,18,7,Jits_ISO_8,0,5,63,98,2436840724
47,18,7,Jits_ISO_8,1,5,56,103,2436850992
47,18,7,Jits_ISO_8,2,1,48,58,2436867144
47,18,7,Jits_ISO_8,3,5,80,127,2436951408
47,18,7,Jits_ISO_8,0,1,48,55,2437538408
47,18,7,Jits_ISO_8,1,5,63,98,2437740904
47,18,7,Jits_ISO_8,2,5,80,127,2437770580
47,18,7,Jits_ISO_8,3,5,56,103,2437801228
47,18,7,Jits_ISO_8,0,1,48,55,2438512740
47,18,7,Jits_ISO_8,1,5,80,127,2438561460
47,18,7,Jits_ISO_8,2,5,63,98,2438571656
47,18,7,Jits_ISO_8,3,5,56,103,2438601332
47,18,7,Jits_ISO_8,0,5,80,127,2439260492
47,18,7,Jits_ISO_8,1,5,63,98,2439280952
47,18,7,Jits_ISO_8,2,1,48,57,2439316728
47,18,7,Jits_ISO_8,3,5,56,103,2439331144
47,18,7,Jits_ISO_8,0,1,48,57,2439973040
47,18,7,Jits_ISO_8,1,5,63,98,2440091200
47,18,7,Jits_ISO_8,2,5,80,127,2440151296
47,18,7,Jits_ISO_8,3,5,56,103,2440171080
47,18,7,Jits_ISO_8,0,1,48,59,2440822576
47,18,7,Jits_ISO_8,1,5,63,98,2440850776
47,18,7,Jits_ISO_8,2,5,56,103,2440901052
47,18,7,Jits_ISO_8,3,5,80,127,2440911172
47,18,7,Jits_ISO_8,0,1,48,58,2441625492
47,18,7,Jits_ISO_8,1,5,56,103,2441681196
47,18,7,Jits_ISO_8,2,5,80,127,2441690420
47,18,7,Jits_ISO_8,3,5,63,98,2441790900
47,18,7,Jits_ISO_8,0,5,80,127,2442441056
47,18,7,Jits_ISO_8,1,5,63,98,2442451252
47,18,7,Jits_ISO_8,2,1,48,60,2442583552
47,18,7,Jits_ISO_8,3,5,56,103,2442601108
47,18,7,Jits_ISO_8,0,1,48,54,2443228760
47,18,7,Jits_ISO_8,1,5,63,98,2443251180
47,18,7,Jits_ISO_8,2,5,80,127,2443291148
47,18,7,Jits_ISO_8,3,5,56,103,2443371000
47,18,7,Jits_ISO_8,0,1,48,50,2443983800
47,18,7,Jits_ISO_8,1,5,56,103,2444040548
47,18,7,Jits_ISO_8,2,5,80,127,2444141032
47,18,7,Jits_ISO_8,3,5,63,98,2444161272
47,18,7,Jits_ISO_8,0,1,48,59,2444779320
47,18,7,Jits_ISO_8,1,5,80,127,2444900880
47,18,7,Jits_ISO_8,2,5,56,103,2444911076
47,18,7,Jits_ISO_8,3,5,63,98,2445001132
47,18,7,Jits_ISO_8,0,1,48,57,2445676224
47,18,7,Jits_ISO_8,1,5,56,103,2445700608
47,18,7,Jits_ISO_8,2,5,63,98,2445720920
47,18,7,Jits_ISO_8,3,5,80,127,2445801072
47,18,7,Jits_ISO_8,0,1,48,59,2446407380
47,18,7,Jits_ISO_8,1,5,63,98,2446451096
47,18,7,Jits_ISO_8,2,5,56,103,2446541060
47,18,7,Jits_ISO_8,3,5,80,127,2446544208
47,18,7,Jits_ISO_8,0,1,48,57,2447177184
47,18,7,Jits_ISO_8,1,5,56,103,2447280676
47,18,7,Jits_ISO_8,2,5,80,127,2447341068
47,18,7,Jits_ISO_8,3,5,63,98,2447351264
47,18,7,Jits_ISO_8,0,1,48,54,2448024180
47,18,7,Jits_ISO_8,1,5,80,127,2448130288
47,18,7,Jits_ISO_8,2,5,56,103,2448140780
47,18,7,Jits_ISO_8,3,5,63,98,2448143848
47,18,7,Jits_ISO_8,0,1,48,58,2448833776
47,18,7,Jits_ISO_8,1,5,56,103,2448891116
47,18,7,Jits_ISO_8,2,5,80,127,2448900416
47,18,7,Jits_ISO_8,3,5,63,98,2448921048
47,18,7,Jits_ISO_8,0,1,48,55,2449617884
47,18,7,Jits_ISO_8,1,5,63,98,2449661228
47,18,7,Jits_ISO_8,2,5,80,127,2449720808
47,18,7,Jits_ISO_8,3,5,56,103,2449770864
47,18,7,Jits_ISO_8,0,1,48,51,2450429300
47,18,7,Jits_ISO_8,1,5,63,98,2450540968
47,18,7,Jits_ISO_8,2,5,56,103,2450551088
47,18,7,Jits_ISO_8,3,5,80,127,2450601292
47,18,7,Jits_ISO_8,0,1,48,50,2451230240
47,18,7,Jits_ISO_8,1,5,63,98,2451241276
47,18,7,Jits_ISO_8,2,5,80,127,2451260692
47,18,7,Jits_ISO_8,3,5,56,103,2451270960
47,18,7,Jits_ISO_8,0,1,48,54,2451979792
47,18,7,Jits_ISO_8,1,5,63,98,2452041124
47,18,7,Jits_ISO_8,2,5,80,127,2452044412
47,18,7,Jits_ISO_8,3,5,56,103,2452081196
47,18,7,Jits_ISO_8,0,1,48,56,2452727320
47,18,7,Jits_ISO_8,1,5,63,98,2452910556
47,18,7,Jits_ISO_8,2,5,80,127,2452941132
47,18,7,Jits_ISO_8,3,5,56,103,2452951404
47,18,7,Jits_ISO_8,0,5,56,103,2453660988
47,18,7,Jits_ISO_8,1,1,48,54,2453688920
47,18,7,Jits_ISO_8,2,5,80,127,2453690808
47,18,7,Jits_ISO_8,3,5,63,98,2453720556
47,18,7,Jits_ISO_8,0,1,48,56,2454484204
47,18,7,Jits_ISO_8,1,5,63,98,2454561200
47,18,7,Jits_ISO_8,2,5,56,103,2454600968
47,18,7,Jits_ISO_8,3,5,80,127,2454604040
47,18,7,Jits_ISO_8,0,5,80,127,2455260720
47,18,7,Jits_ISO_8,1,1,48,43,2455332272
47,18,7,Jits_ISO_8,2,5,56,103,2455341512
47,18,7,Jits_ISO_8,3,5,63,98,2455390664
47,18,7,Jits_ISO_8,0,5,80,127,2456040892
47,18,7,Jits_ISO_8,1,5,56,103,2456061204
47,18,7,Jits_ISO_8,2,1,48,51,2456108184
47,18,7,Jits_ISO_8,3,5,63,98,2456151280
47,18,7,Jits_ISO_8,0,1,48,54,2456821928
47,18,7,Jits_ISO_8,1,5,80,127,2456880788
47,18,7,Jits_ISO_8,2,5,63,98,2456920508
47,18,7,Jits_ISO_8,3,5,56,103,2456961624
47,18,7,Jits_ISO_8,0,1,48,55,2457575100
47,18,7,Jits_ISO_8,1,5,63,98,2457650680
47,18,7,Jits_ISO_8,2,5,80,127,2457710984
47,18,7,Jits_ISO_8,3,5,56,103,2457740880
47,18,7,Jits_ISO_8,0,1,48,55,2458388612
47,18,7,Jits_ISO_8,1,5,56,103,2458451364
47,18,7,Jits_ISO_8,2,5,80,127,2458480892
47,18,7,Jits_ISO_8,3,5,63,98,2458571008
47,18,7,Jits_ISO_8,0,1,48,51,2459236876
47,18,7,Jits_ISO_8,1,5,56,103,2459261336
47,18,7,Jits_ISO_8,2,5,80,127,2459370864
47,18,7,Jits_ISO_8,3,5,63,98,2459400760
47,18,7,Jits_ISO_8,0,1,48,50,2460049112
47,18,7,Jits_ISO_8,1,5,56,103,2460111320
47,18,7,Jits_ISO_8,2,5,63,98,2460170504
47,18,7,Jits_ISO_8,3,5,80,127,2460201548
47,18,7,Jits_ISO_8,0,5,56,103,2460881376
47,18,7,Jits_ISO_8,1,1,48,50,2460918720
47,18,7,Jits_ISO_8,2,5,63,98,2460950928
47,18,7,Jits_ISO_8,3,5,80,127,2460971536
47,18,7,Jits_ISO_8,0,5,80,127,2461651280
47,18,7,Jits_ISO_8,1,5,63,98,2461670916
47,18,7,Jits_ISO_8,2,1,48,53,2461672928
47,18,7,Jits_ISO_8,3,5,56,103,2461720912
47,18,7,Jits_ISO_8,0,9999,9999,9999,2366918728
47,18,7,Jits_ISO_8,1,9999,9999,9999,2367718480
47,18,7,Jits_ISO_8,2,9999,9999,9999,2368518248
47,18,7,Jits_ISO_8,3,9999,9999,9999,2369318976
47,18,7,Jits_ISO_8,4,9999,9999,9999,2370118756
47,18,7,Jits_ISO_8,5,9999,9999,9999,2370918472
47,18,7,Jits_ISO_8,6,9999,9999,9999,2371718252
47,18,7,Jits_ISO_8,7,9999,9999,9999,2372519012
47,18,7,Jits_ISO_8,8,9999,9999,9999,2373318724
47,18,7,Jits_ISO_8,9,9999,9999,9999,2374118492
47,18,7,Jits_ISO_8,10,9999,9999,9999,2374918208
47,18,7,Jits_ISO_8,11,9999,9999,9999,2375718992
47,18,7,Jits_ISO_8,12,9999,9999,9999,2376518708
47,18,7,Jits_ISO_8,13,9999,9999,9999,2377318488
47,18,7,Jits_ISO_8,14,9999,9999,9999,2378118260
47,18,7,Jits_ISO_8,15,9999,9999,9999,2378919008
47,18,7,Jits_ISO_8,16,9999,9999,9999,2379718776
47,18,7,Jits_ISO_8,17,9999,9999,9999,2380518488
47,18,7,Jits_ISO_8,18,9999,9999,9999,2381318204
47,18,7,Jits_ISO_8,19,9999,9999,9999,2382118988
47,18,7,Jits_ISO_8,20,9999,9999,9999,2382918772
47,18,7,Jits_ISO_8,21,9999,9999,9999,2383718476
47,18,7,Jits_ISO_8,22,9999,9999,9999,2384518252
47,18,7,Jits_ISO_8,23,9999,9999,9999,2385319008
47,18,7,Jits_ISO_8,24,9999,9999,9999,2386118708
47,18,7,Jits_ISO_8,25,9999,9999,9999,2386918488
47,18,7,Jits_ISO_8,26,9999,9999,9999,2387718200
47,18,7,Jits_ISO_8,27,9999,9999,9999,2388518988
47,18,7,Jits_ISO_8,28,9999,9999,9999,2389318768
47,18,7,Jits_ISO_8,29,9999,9999,9999,2390118484
47,18,7,Jits_ISO_8,30,9999,9999,9999,2390918196
47,18,7,Jits_ISO_8,31,9999,9999,9999,2391719016
47,18,7,Jits_ISO_8,32,9999,9999,9999,2392518728
47,18,7,Jits_ISO_8,33,9999,9999,9999,2393318504
47,18,7,Jits_ISO_8,34,9999,9999,9999,2394118216
47,18,7,Jits_ISO_8,35,9999,9999,9999,2394919004
47,18,7,Jits_ISO_8,36,9999,9999,9999,2395718720
47,18,7,Jits_ISO_8,37,9999,9999,9999,2396518508
47,18,7,Jits_ISO_8,38,9999,9999,9999,2397318212
47,18,7,Jits_ISO_8,39,9999,9999,9999,2398118972
47,18,7,Jits_ISO_8,40,9999,9999,9999,2398918760
47,18,7,Jits_ISO_8,41,9999,9999,9999,2399718472
47,18,7,Jits_ISO_8,42,9999,9999,9999,2400518252
47,18,7,Jits_ISO_8,43,9999,9999,9999,2401319020
47,18,7,Jits_ISO_8,44,9999,9999,9999,2402118716
47,18,7,Jits_ISO_8,45,9999,9999,9999,2402918500
47,18,7,Jits_ISO_8,46,9999,9999,9999,2403718212
47,18,7,Jits_ISO_8,47,9999,9999,9999,2404519036
47,18,7,Jits_ISO_8,48,9999,9999,9999,2405318744
47,18,7,Jits_ISO_8,49,9999,9999,9999,2406118520
47,18,7,Jits_ISO_8,50,9999,9999,9999,2406918232
47,18,7,Jits_ISO_8,51,9999,9999,9999,2407719012
47,18,7,Jits_ISO_8,52,9999,9999,9999,2408518728
47,18,7,Jits_ISO_8,53,9999,9999,9999,2409318520
47,18,7,Jits_ISO_8,54,9999,9999,9999,2410118224
47,18,7,Jits_ISO_8,55,9999,9999,9999,2410918996
47,18,7,Jits_ISO_8,56,9999,9999,9999,2411718780
47,18,7,Jits_ISO_8,57,9999,9999,9999,2412518492
47,18,7,Jits_ISO_8,58,9999,9999,9999,2413318200
47,18,7,Jits_ISO_8,59,9999,9999,9999,2414118980
47,18,7,Jits_ISO_8,60,9999,9999,9999,2414918764
47,18,7,Jits_ISO_8,61,9999,9999,9999,2415718456
47,18,7,Jits_ISO_8,62,9999,9999,9999,2416518260
47,18,7,Jits_ISO_8,63,9999,9999,9999,2417319012
47,18,7,Jits_ISO_8,64,9999,9999,9999,2418118740
47,18,7,Jits_ISO_8,65,9999,9999,9999,2418918452
47,18,7,Jits_ISO_8,66,9999,9999,9999,2419718240
47,18,7,Jits_ISO_8,67,9999,9999,9999,2420519024
47,18,7,Jits_ISO_8,68,9999,9999,9999,2421318724
47,18,7,Jits_ISO_8,69,9999,9999,9999,2422118504
47,18,7,Jits_ISO_8,70,9999,9999,9999,2422918212
47,18,7,Jits_ISO_8,71,9999,9999,9999,2423718976
47,18,7,Jits_ISO_8,72,9999,9999,9999,2424518760
47,18,7,Jits_ISO_8,73,9999,9999,9999,2425318484
47,18,7,Jits_ISO_8,74,9999,9999,9999,2426118216
47,18,7,Jits_ISO_8,75,9999,9999,9999,2426919000
47,18,7,Jits_ISO_8,76,9999,9999,9999,2427718780
47,18,7,Jits_ISO_8,77,9999,9999,9999,2428518492
47,18,7,Jits_ISO_8,78,9999,9999,9999,2429318196
47,18,7,Jits_ISO_8,79,9999,9999,9999,2430118968
47,18,7,Jits_ISO_8,80,9999,9999,9999,2430918756
47,18,7,Jits_ISO_8,81,9999,9999,9999,2431718464
47,18,7,Jits_ISO_8,82,9999,9999,9999,2432518252
47,18,7,Jits_ISO_8,83,9999,9999,9999,2433319028
47,18,7,Jits_ISO_8,84,9999,9999,9999,2434118728
47,18,7,Jits_ISO_8,85,9999,9999,9999,2434918516
47,18,7,Jits_ISO_8,86,9999,9999,9999,2435718224
47,18,7,Jits_ISO_8,87,9999,9999,9999,2436518976
47,18,7,Jits_ISO_8,88,9999,9999,9999,2437318756
47,18,7,Jits_ISO_8,89,9999,9999,9999,2438118472
47,18,7,Jits_ISO_8,90,9999,9999,9999,2438918196
47,18,7,Jits_ISO_8,91,9999,9999,9999,2439718968
47,18,7,Jits_ISO_8,92,9999,9999,9999,2440518768
47,18,7,Jits_ISO_8,93,9999,9999,9999,2441318476
47,18,7,Jits_ISO_8,94,9999,9999,9999,2442118260
47,18,7,Jits_ISO_8,95,9999,9999,9999,2442919016
47,18,7,Jits_ISO_8,96,9999,9999,9999,2443718736
47,18,7,Jits_ISO_8,97,9999,9999,9999,2444518520
47,18,7,Jits_ISO_8,98,9999,9999,9999,2445318232
47,18,7,Jits_ISO_8,99,9999,9999,9999,2446119020
47,18,7,Jits_ISO_8,100,9999,9999,9999,2446918720
47,18,7,Jits_ISO_8,101,9999,9999,9999,2447718504
47,18,7,Jits_ISO_8,102,9999,9999,9999,2448518208
47,18,7,Jits_ISO_8,103,9999,9999,9999,2449318964
47,18,7,Jits_ISO_8,104,9999,9999,9999,2450118748
47,18,7,Jits_ISO_8,105,9999,9999,9999,2450918464
47,18,7,Jits_ISO_8,106,9999,9999,9999,2451718240
47,18,7,Jits_ISO_8,107,9999,9999,9999,2452519004
47,18,7,Jits_ISO_8,108,9999,9999,9999,2453318716
47,18,7,Jits_ISO_8,109,9999,9999,9999,2454118496
47,18,7,Jits_ISO_8,110,9999,9999,9999,2454918224
47,18,7,Jits_ISO_8,111,9999,9999,9999,2455718980
47,18,7,Jits_ISO_8,112,9999,9999,9999,2456518780
47,18,7,Jits_ISO_8,113,9999,9999,9999,2457318504
47,18,7,Jits_ISO_8,114,9999,9999,9999,2458118212
47,18,7,Jits_ISO_8,115,9999,9999,9999,2458918996
47,18,7,Jits_ISO_8,116,9999,9999,9999,2459718708
47,18,7,Jits_ISO_8,117,9999,9999,9999,2460518500
47,18,7,Jits_ISO_8,118,9999,9999,9999,2461318212
47,18,7,Jits_ISO_8,119,9999,9999,9999,2462118976
47,19,16,Jits_ISO_5,0,5,56,103,2471061800
47,19,16,Jits_ISO_5,1,5,63,98,2471065272
47,19,16,Jits_ISO_5,2,5,80,127,2471068316
47,19,16,Jits_ISO_5,0,5,56,103,2471561668
47,19,16,Jits_ISO_5,1,5,63,98,2471564916
47,19,16,Jits_ISO_5,2,5,80,127,2471568108
47,19,16,Jits_ISO_5,3,1,48,41,2471718680
47,19,16,Jits_ISO_5,0,5,56,103,2472062220
47,19,16,Jits_ISO_5,1,5,80,127,2472071520
47,19,16,Jits_ISO_5,2,1,48,48,2472090004
47,19,16,Jits_ISO_5,3,5,63,98,2472092120
47,19,16,Jits_ISO_5,0,5,63,98,2472512000
47,19,16,Jits_ISO_5,1,5,80,127,2472541452
47,19,16,Jits_ISO_5,2,5,56,103,2472551648
47,19,16,Jits_ISO_5,3,1,48,58,2472571176
47,19,16,Jits_ISO_5,0,1,48,67,2473055520
47,19,16,Jits_ISO_5,1,5,80,127,2473071884
47,19,16,Jits_ISO_5,2,5,56,103,2473082300
47,19,16,Jits_ISO_5,3,5,63,98,2473111900
47,19,16,Jits_ISO_5,0,5,63,98,2473561516
47,19,16,Jits_ISO_5,1,1,48,67,2473574368
47,19,16,Jits_ISO_5,2,5,56,103,2473592304
47,19,16,Jits_ISO_5,3,5,80,127,2473602500
47,19,16,Jits_ISO_5,0,5,56,103,2474012108
47,19,16,Jits_ISO_5,1,5,63,98,2474062384
47,19,16,Jits_ISO_5,2,5,80,127,2474081720
47,19,16,Jits_ISO_5,3,1,48,59,2474090088
47,19,16,Jits_ISO_5,0,5,80,127,2474511756
47,19,16,Jits_ISO_5,1,5,63,98,2474561832
47,19,16,Jits_ISO_5,2,1,48,58,2474578352
47,19,16,Jits_ISO_5,3,5,56,103,2474601836
47,19,16,Jits_ISO_5,0,5,56,103,2475011432
47,19,16,Jits_ISO_5,1,5,63,98,2475042328
47,19,16,Jits_ISO_5,2,1,48,63,2475065672
47,19,16,Jits_ISO_5,3,5,80,127,2475112072
47,19,16,Jits_ISO_5,0,5,56,103,2475512148
47,19,16,Jits_ISO_5,1,1,48,60,2475557092
47,19,16,Jits_ISO_5,2,5,80,127,2475571436
47,19,16,Jits_ISO_5,3,5,63,98,2475602232
47,19,16,Jits_ISO_5,0,5,56,103,2476022312
47,19,16,Jits_ISO_5,1,5,63,98,2476032436
47,19,16,Jits_ISO_5,2,1,48,60,2476035924
47,19,16,Jits_ISO_5,3,5,80,127,2476072388
47,19,16,Jits_ISO_5,0,5,63,98,2476511648
47,19,16,Jits_ISO_5,1,1,48,38,2476542340
47,19,16,Jits_ISO_5,2,5,80,127,2476591460
47,19,16,Jits_ISO_5,3,5,56,103,2476601732
47,19,16,Jits_ISO_5,0,1,48,63,2477022068
47,19,16,Jits_ISO_5,1,5,63,98,2477061352
47,19,16,Jits_ISO_5,2,5,56,103,2477101388
47,19,16,Jits_ISO_5,3,5,80,127,2477104380
47,19,16,Jits_ISO_5,0,5,56,103,2477522276
47,19,16,Jits_ISO_5,1,5,63,98,2477531500
47,19,16,Jits_ISO_5,2,1,48,59,2477540472
47,19,16,Jits_ISO_5,3,5,80,127,2477571356
47,19,16,Jits_ISO_5,0,5,56,103,2478011904
47,19,16,Jits_ISO_5,1,5,63,98,2478014748
47,19,16,Jits_ISO_5,2,5,80,127,2478032216
47,19,16,Jits_ISO_5,3,1,48,52,2478042752
47,19,16,Jits_ISO_5,0,1,48,56,2478501572
47,19,16,Jits_ISO_5,1,5,80,127,2478521676
47,19,16,Jits_ISO_5,2,5,56,103,2478532244
47,19,16,Jits_ISO_5,3,5,63,98,2478601684
47,19,16,Jits_ISO_5,0,5,63,98,2479012128
47,19,16,Jits_ISO_5,1,1,48,49,2479026256
47,19,16,Jits_ISO_5,2,5,56,103,2479031608
47,19,16,Jits_ISO_5,3,5,80,127,2479111544
47,19,16,Jits_ISO_5,0,5,56,103,2479522124
47,19,16,Jits_ISO_5,1,1,48,59,2479532884
47,19,16,Jits_ISO_5,2,5,80,127,2479562052
47,19,16,Jits_ISO_5,3,5,63,98,2479572248
47,19,16,Jits_ISO_5,0,5,80,127,2480011536
47,19,16,Jits_ISO_5,1,1,48,68,2480020424
47,19,16,Jits_ISO_5,2,5,63,98,2480042324
47,19,16,Jits_ISO_5,3,5,56,103,2480082260
47,19,16,Jits_ISO_5,0,5,56,103,2480532028
47,19,16,Jits_ISO_5,1,1,48,67,2480534552
47,19,16,Jits_ISO_5,2,5,63,98,2480561624
47,19,16,Jits_ISO_5,3,5,80,127,2480611672
47,19,16,Jits_ISO_5,0,5,80,127,2481031408
47,19,16,Jits_ISO_5,1,1,48,70,2481035048
47,19,16,Jits_ISO_5,2,5,56,103,2481071340
47,19,16,Jits_ISO_5,3,5,63,98,2481081608
47,19,16,Jits_ISO_5,0,5,80,127,2481511976
47,19,16,Jits_ISO_5,1,1,48,51,2481537488
47,19,16,Jits_ISO_5,2,5,63,98,2481551904
47,19,16,Jits_ISO_5,3,5,56,103,2481612144
47,19,16,Jits_ISO_5,0,5,56,103,2482011576
47,19,16,Jits_ISO_5,1,5,80,127,2482021992
47,19,16,Jits_ISO_5,2,1,48,72,2482028556
47,19,16,Jits_ISO_5,3,5,63,98,2482101556
47,19,16,Jits_ISO_5,0,5,80,127,2482512368
47,19,16,Jits_ISO_5,1,1,48,70,2482537808
47,19,16,Jits_ISO_5,2,5,63,98,2482571780
47,19,16,Jits_ISO_5,3,5,56,103,2482602352
47,19,16,Jits_ISO_5,0,5,56,103,2483012044
47,19,16,Jits_ISO_5,1,1,48,54,2483056964
47,19,16,Jits_ISO_5,2,5,80,127,2483072280
47,19,16,Jits_ISO_5,3,5,63,98,2483112288
47,19,16,Jits_ISO_5,0,1,48,72,2483525540
47,19,16,Jits_ISO_5,1,5,56,103,2483562056
47,19,16,Jits_ISO_5,2,5,63,98,2483572176
47,19,16,Jits_ISO_5,3,5,80,127,2483575316
47,19,16,Jits_ISO_5,0,5,80,127,2484012416
47,19,16,Jits_ISO_5,1,1,48,63,2484021388
47,19,16,Jits_ISO_5,2,5,63,98,2484101644
47,19,16,Jits_ISO_5,3,5,56,103,2484112796
47,19,16,Jits_ISO_5,0,5,56,103,2484522488
47,19,16,Jits_ISO_5,1,5,63,98,2484525588
47,19,16,Jits_ISO_5,2,5,80,127,2484528708
47,19,16,Jits_ISO_5,3,1,48,67,2484557380
47,19,16,Jits_ISO_5,0,1,48,58,2485014100
47,19,16,Jits_ISO_5,1,5,80,127,2485041552
47,19,16,Jits_ISO_5,2,5,63,98,2485091976
47,19,16,Jits_ISO_5,3,5,56,103,2485122384
47,19,16,Jits_ISO_5,0,5,56,103,2485521716
47,19,16,Jits_ISO_5,1,5,80,127,2485532012
47,19,16,Jits_ISO_5,2,1,48,62,2485557000
47,19,16,Jits_ISO_5,3,5,63,98,2485601608
47,19,16,Jits_ISO_5,0,5,56,103,2486032024
47,19,16,Jits_ISO_5,1,1,48,65,2486045504
47,19,16,Jits_ISO_5,2,5,63,98,2486052200
47,19,16,Jits_ISO_5,3,5,80,127,2486111544
47,19,16,Jits_ISO_5,0,5,80,127,2486522256
47,19,16,Jits_ISO_5,1,1,48,61,2486525376
47,19,16,Jits_ISO_5,2,5,63,98,2486591804
47,19,16,Jits_ISO_5,3,5,56,103,2486612264
47,19,16,Jits_ISO_5,0,5,80,127,2487042312
47,19,16,Jits_ISO_5,1,5,56,103,2487051608
47,19,16,Jits_ISO_5,2,1,48,60,2487061680
47,19,16,Jits_ISO_5,3,5,63,98,2487063316
47,19,16,Jits_ISO_5,0,5,80,127,2487531868
47,19,16,Jits_ISO_5,1,5,56,103,2487552328
47,19,16,Jits_ISO_5,2,1,48,53,2487578384
47,19,16,Jits_ISO_5,3,5,63,98,2487622020
47,19,16,Jits_ISO_5,0,5,56,103,2488041948
47,19,16,Jits_ISO_5,1,1,48,61,2488060284
47,19,16,Jits_ISO_5,2,5,80,127,2488071620
47,19,16,Jits_ISO_5,3,5,63,98,2488091876
47,19,16,Jits_ISO_5,0,1,48,44,2488530876
47,19,16,Jits_ISO_5,1,5,63,98,2488541468
47,19,16,Jits_ISO_5,2,5,56,103,2488602032
47,19,16,Jits_ISO_5,3,5,80,127,2488631840
47,19,16,Jits_ISO_5,0,5,63,98,2489031996
47,19,16,Jits_ISO_5,1,5,80,127,2489035356
47,19,16,Jits_ISO_5,2,1,48,64,2489083360
47,19,16,Jits_ISO_5,3,5,56,103,2489122064
47,19,16,Jits_ISO_5,0,5,56,103,2489552096
47,19,16,Jits_ISO_5,1,5,63,98,2489581920
47,19,16,Jits_ISO_5,2,1,48,63,2489595004
47,19,16,Jits_ISO_5,3,5,80,127,2489621800
47,19,16,Jits_ISO_5,0,5,63,98,2490051844
47,19,16,Jits_ISO_5,1,1,48,58,2490065976
47,19,16,Jits_ISO_5,2,5,56,103,2490091852
47,19,16,Jits_ISO_5,3,5,80,127,2490112384
47,19,16,Jits_ISO_5,0,1,48,55,2490553420
47,19,16,Jits_ISO_5,1,5,63,98,2490561912
47,19,16,Jits_ISO_5,2,5,56,103,2490601852
47,19,16,Jits_ISO_5,3,5,80,127,2490612196
47,19,16,Jits_ISO_5,0,1,48,55,2491040820
47,19,16,Jits_ISO_5,1,5,80,127,2491042616
47,19,16,Jits_ISO_5,2,5,63,98,2491112072
47,19,16,Jits_ISO_5,3,5,56,103,2491132232
47,19,16,Jits_ISO_5,0,5,56,103,2491531648
47,19,16,Jits_ISO_5,1,5,80,127,2491552256
47,19,16,Jits_ISO_5,2,1,48,52,2491573204
47,19,16,Jits_ISO_5,3,5,63,98,2491592184
47,19,16,Jits_ISO_5,0,1,48,56,2492024140
47,19,16,Jits_ISO_5,1,5,63,98,2492041772
47,19,16,Jits_ISO_5,2,5,80,127,2492062008
47,19,16,Jits_ISO_5,3,5,56,103,2492101944
47,19,16,Jits_ISO_5,0,1,48,59,2492502372
47,19,16,Jits_ISO_5,1,5,63,98,2492542256
47,19,16,Jits_ISO_5,2,5,56,103,2492561888
47,19,16,Jits_ISO_5,3,5,80,127,2492572012
47,19,16,Jits_ISO_5,0,1,48,65,2492990116
47,19,16,Jits_ISO_5,1,5,80,127,2493042060
47,19,16,Jits_ISO_5,2,5,56,103,2493061472
47,19,16,Jits_ISO_5,3,5,63,98,2493092324
47,19,16,Jits_ISO_5,0,1,48,59,2493537712
47,19,16,Jits_ISO_5,1,5,56,103,2493612584
47,19,16,Jits_ISO_5,2,5,80,127,2493615652
47,19,16,Jits_ISO_5,3,5,63,98,2493631924
47,19,16,Jits_ISO_5,0,5,63,98,2494032312
47,19,16,Jits_ISO_5,1,1,48,68,2494052596
47,19,16,Jits_ISO_5,2,5,56,103,2494061832
47,19,16,Jits_ISO_5,3,5,80,127,2494122292
47,19,16,Jits_ISO_5,0,1,48,71,2494510964
47,19,16,Jits_ISO_5,1,5,63,98,2494611964
47,19,16,Jits_ISO_5,2,5,56,103,2494622012
47,19,16,Jits_ISO_5,3,5,80,127,2494632428
47,19,16,Jits_ISO_5,0,5,56,103,2495062728
47,19,16,Jits_ISO_5,1,1,48,65,2495066816
47,19,16,Jits_ISO_5,2,5,80,127,2495092024
47,19,16,Jits_ISO_5,3,5,63,98,2495102440
47,19,16,Jits_ISO_5,0,1,48,62,2495546484
47,19,16,Jits_ISO_5,1,5,63,98,2495602180
47,19,16,Jits_ISO_5,2,5,56,103,2495612224
47,19,16,Jits_ISO_5,3,5,80,127,2495631712
47,19,16,Jits_ISO_5,0,1,48,61,2496029900
47,19,16,Jits_ISO_5,1,5,56,103,2496042284
47,19,16,Jits_ISO_5,2,5,63,98,2496101848
47,19,16,Jits_ISO_5,3,5,80,127,2496105208
47,19,16,Jits_ISO_5,0,1,48,61,2496548412
47,19,16,Jits_ISO_5,1,5,80,127,2496561712
47,19,16,Jits_ISO_5,2,5,56,103,2496571980
47,19,16,Jits_ISO_5,3,5,63,98,2496642688
47,19,16,Jits_ISO_5,0,1,48,66,2497011348
47,19,16,Jits_ISO_5,1,5,80,127,2497052004
47,19,16,Jits_ISO_5,2,5,56,103,2497121816
47,19,16,Jits_ISO_5,3,5,63,98,2497131940
47,19,16,Jits_ISO_5,0,1,48,65,2497588420
47,19,16,Jits_ISO_5,1,5,63,98,2497591748
47,19,16,Jits_ISO_5,2,5,56,103,2497601796
47,19,16,Jits_ISO_5,3,5,80,127,2497622476
47,19,16,Jits_ISO_5,0,5,80,127,2498042316
47,19,16,Jits_ISO_5,1,1,48,66,2498074008
47,19,16,Jits_ISO_5,2,5,63,98,2498101532
47,19,16,Jits_ISO_5,3,5,56,103,2498141540
47,19,16,Jits_ISO_5,0,1,48,63,2498570288
47,19,16,Jits_ISO_5,1,5,56,103,2498581868
47,19,16,Jits_ISO_5,2,5,63,98,2498592064
47,19,16,Jits_ISO_5,3,5,80,127,2498632000
47,19,16,Jits_ISO_5,0,5,56,103,2499041728
47,19,16,Jits_ISO_5,1,1,48,59,2499067020
47,19,16,Jits_ISO_5,2,5,80,127,2499072444
47,19,16,Jits_ISO_5,3,5,63,98,2499121548
47,19,16,Jits_ISO_5,0,1,48,69,2499548092
47,19,16,Jits_ISO_5,1,5,56,103,2499582516
47,19,16,Jits_ISO_5,2,5,63,98,2499622400
47,19,16,Jits_ISO_5,3,5,80,127,2499625764
47,19,16,Jits_ISO_5,0,1,48,60,2500043704
47,19,16,Jits_ISO_5,1,5,56,103,2500092208
47,19,16,Jits_ISO_5,2,5,63,98,2500101580
47,19,16,Jits_ISO_5,3,5,80,127,2500121916
47,19,16,Jits_ISO_5,0,5,56,103,2500552016
47,19,16,Jits_ISO_5,1,5,80,127,2500555008
47,19,16,Jits_ISO_5,2,1,48,61,2500572816
47,19,16,Jits_ISO_5,3,5,63,98,2500591872
47,19,16,Jits_ISO_5,0,1,48,58,2501042952
47,19,16,Jits_ISO_5,1,5,63,98,2501091676
47,19,16,Jits_ISO_5,2,5,56,103,2501122548
47,19,16,Jits_ISO_5,3,5,80,127,2501141896
47,19,16,Jits_ISO_5,0,1,48,61,2501550712
47,19,16,Jits_ISO_5,1,5,80,127,2501561748
47,19,16,Jits_ISO_5,2,5,56,103,2501572164
47,19,16,Jits_ISO_5,3,5,63,98,2501582136
47,19,16,Jits_ISO_5,0,1,48,63,2502042420
47,19,16,Jits_ISO_5,1,5,56,103,2502061480
47,19,16,Jits_ISO_5,2,5,80,127,2502102464
47,19,16,Jits_ISO_5,3,5,63,98,2502132284
47,19,16,Jits_ISO_5,0,1,48,64,2502526564
47,19,16,Jits_ISO_5,1,5,63,98,2502572672
47,19,16,Jits_ISO_5,2,5,80,127,2502581520
47,19,16,Jits_ISO_5,3,5,56,103,2502591792
47,19,16,Jits_ISO_5,0,1,48,57,2503038280
47,19,16,Jits_ISO_5,1,5,56,103,2503051580
47,19,16,Jits_ISO_5,2,5,63,98,2503122308
47,19,16,Jits_ISO_5,3,5,80,127,2503131680
47,19,16,Jits_ISO_5,0,1,48,64,2503510388
47,19,16,Jits_ISO_5,1,5,80,127,2503552660
47,19,16,Jits_ISO_5,2,5,56,103,2503561512
47,19,16,Jits_ISO_5,3,5,63,98,2503611620
47,19,16,Jits_ISO_5,0,1,48,60,2504000300
47,19,16,Jits_ISO_5,1,5,80,127,2504062432
47,19,16,Jits_ISO_5,2,5,56,103,2504121612
47,19,16,Jits_ISO_5,3,5,63,98,2504152704
47,19,16,Jits_ISO_5,0,1,48,61,2504499740
47,19,16,Jits_ISO_5,1,5,56,103,2504562016
47,19,16,Jits_ISO_5,2,5,80,127,2504565008
47,19,16,Jits_ISO_5,3,5,63,98,2504602012
47,19,16,Jits_ISO_5,0,1,48,62,2505008880
47,19,16,Jits_ISO_5,1,5,56,103,2505091408
47,19,16,Jits_ISO_5,2,5,63,98,2505122188
47,19,16,Jits_ISO_5,3,5,80,127,2505132608
47,19,16,Jits_ISO_5,0,1,48,63,2505495064
47,19,16,Jits_ISO_5,1,5,63,98,2505602440
47,19,16,Jits_ISO_5,2,5,80,127,2505611516
47,19,16,Jits_ISO_5,3,5,56,103,2505621788
47,19,16,Jits_ISO_5,0,1,48,58,2506025892
47,19,16,Jits_ISO_5,1,5,80,127,2506051848
47,19,16,Jits_ISO_5,2,5,56,103,2506102040
47,19,16,Jits_ISO_5,3,5,63,98,2506105112
47,19,16,Jits_ISO_5,0,1,48,63,2506552596
47,19,16,Jits_ISO_5,1,5,56,103,2506582360
47,19,16,Jits_ISO_5,2,5,80,127,2506601848
47,19,16,Jits_ISO_5,3,5,63,98,2506612192
47,19,16,Jits_ISO_5,0,5,63,98,2507061576
47,19,16,Jits_ISO_5,1,1,48,59,2507064916
47,19,16,Jits_ISO_5,2,5,56,103,2507092440
47,19,16,Jits_ISO_5,3,5,80,127,2507111700
47,19,16,Jits_ISO_5,0,1,48,64,2507566512
47,19,16,Jits_ISO_5,1,5,56,103,2507581900
47,19,16,Jits_ISO_5,2,5,80,127,2507591948
47,19,16,Jits_ISO_5,3,5,63,98,2507661624
47,19,16,Jits_ISO_5,0,1,48,61,2508038868
47,19,16,Jits_ISO_5,1,5,63,98,2508072344
47,19,16,Jits_ISO_5,2,5,80,127,2508112356
47,19,16,Jits_ISO_5,3,5,56,103,2508152352
47,19,16,Jits_ISO_5,0,1,48,62,2508553452
47,19,16,Jits_ISO_5,1,5,56,103,2508582568
47,19,16,Jits_ISO_5,2,5,63,98,2508591344
47,19,16,Jits_ISO_5,3,5,80,127,2508612100
47,19,16,Jits_ISO_5,0,1,48,62,2509050116
47,19,16,Jits_ISO_5,1,5,63,98,2509121864
47,19,16,Jits_ISO_5,2,5,80,127,2509142544
47,19,16,Jits_ISO_5,3,5,56,103,2509161792
47,19,16,Jits_ISO_5,0,5,56,103,2509562468
47,19,16,Jits_ISO_5,1,1,48,46,2509596400
47,19,16,Jits_ISO_5,2,5,80,127,2509642280
47,19,16,Jits_ISO_5,3,5,63,98,2509652328
47,19,16,Jits_ISO_5,0,1,48,63,2510066452
47,19,16,Jits_ISO_5,1,5,80,127,2510101872
47,19,16,Jits_ISO_5,2,5,63,98,2510112068
47,19,16,Jits_ISO_5,3,5,56,103,2510141816
47,19,16,Jits_ISO_5,0,1,48,56,2510556448
47,19,16,Jits_ISO_5,1,5,63,98,2510561648
47,19,16,Jits_ISO_5,2,5,80,127,2510601512
47,19,16,Jits_ISO_5,3,5,56,103,2510661984
47,19,16,Jits_ISO_5,0,1,48,63,2511051168
47,19,16,Jits_ISO_5,1,5,63,98,2511071568
47,19,16,Jits_ISO_5,2,5,56,103,2511121844
47,19,16,Jits_ISO_5,3,5,80,127,2511152276
47,19,16,Jits_ISO_5,0,1,48,58,2511563408
47,19,16,Jits_ISO_5,1,5,80,127,2511591756
47,19,16,Jits_ISO_5,2,5,63,98,2511602324
47,19,16,Jits_ISO_5,3,5,56,103,2511671640
47,19,16,Jits_ISO_5,0,1,48,60,2512076548
47,19,16,Jits_ISO_5,1,5,80,127,2512162236
47,19,16,Jits_ISO_5,2,5,56,103,2512172504
47,19,16,Jits_ISO_5,3,5,63,98,2512176380
47,19,16,Jits_ISO_5,0,1,48,60,2512577104
47,19,16,Jits_ISO_5,1,5,56,103,2512601488
47,19,16,Jits_ISO_5,2,5,80,127,2512621800
47,19,16,Jits_ISO_5,3,5,63,98,2512632440
47,19,16,Jits_ISO_5,0,1,48,58,2513077884
47,19,16,Jits_ISO_5,1,5,63,98,2513112384
47,19,16,Jits_ISO_5,2,5,56,103,2513152248
47,19,16,Jits_ISO_5,3,5,80,127,2513171832
47,19,16,Jits_ISO_5,0,1,48,62,2513581980
47,19,16,Jits_ISO_5,1,5,63,98,2513612420
47,19,16,Jits_ISO_5,2,5,56,103,2513671464
47,19,16,Jits_ISO_5,3,5,80,127,2513674528
47,19,16,Jits_ISO_5,0,5,56,103,2514071780
47,19,16,Jits_ISO_5,1,5,80,127,2514092388
47,19,16,Jits_ISO_5,2,1,48,60,2514119020
47,19,16,Jits_ISO_5,3,5,63,98,2514132316
47,19,16,Jits_ISO_5,0,5,56,103,2514602464
47,19,16,Jits_ISO_5,1,1,48,63,2514604760
47,19,16,Jits_ISO_5,2,5,63,98,2514621800
47,19,16,Jits_ISO_5,3,5,80,127,2514632068
47,19,16,Jits_ISO_5,0,5,80,127,2515072324
47,19,16,Jits_ISO_5,1,5,56,103,2515102148
47,19,16,Jits_ISO_5,2,1,48,62,2515104516
47,19,16,Jits_ISO_5,3,5,63,98,2515141852
47,19,16,Jits_ISO_5,0,5,80,127,2515582260
47,19,16,Jits_ISO_5,1,5,56,103,2515601744
47,19,16,Jits_ISO_5,2,1,48,54,2515619684
47,19,16,Jits_ISO_5,3,5,63,98,2515662200
47,19,16,Jits_ISO_5,0,5,56,103,2516092496
47,19,16,Jits_ISO_5,1,1,48,65,2516094136
47,19,16,Jits_ISO_5,2,5,80,127,2516111604
47,19,16,Jits_ISO_5,3,5,63,98,2516172512
47,19,16,Jits_ISO_5,0,5,80,127,2516571500
47,19,16,Jits_ISO_5,1,5,56,103,2516581916
47,19,16,Jits_ISO_5,2,1,48,56,2516598736
47,19,16,Jits_ISO_5,3,5,63,98,2516621696
47,19,16,Jits_ISO_5,0,5,63,98,2517072364
47,19,16,Jits_ISO_5,1,1,48,70,2517088292
47,19,16,Jits_ISO_5,2,5,56,103,2517112368
47,19,16,Jits_ISO_5,3,5,80,127,2517115360
47,19,16,Jits_ISO_5,0,1,48,62,2517519592
47,19,16,Jits_ISO_5,1,5,63,98,2517592456
47,19,16,Jits_ISO_5,2,5,80,127,2517632304
47,19,16,Jits_ISO_5,3,5,56,103,2517662276
47,19,16,Jits_ISO_5,0,1,48,56,2518075828
47,19,16,Jits_ISO_5,1,5,56,103,2518082004
47,19,16,Jits_ISO_5,2,5,63,98,2518092200
47,19,16,Jits_ISO_5,3,5,80,127,2518121724
47,19,16,Jits_ISO_5,0,1,48,60,2518555108
47,19,16,Jits_ISO_5,1,5,80,127,2518572516
47,19,16,Jits_ISO_5,2,5,63,98,2518642272
47,19,16,Jits_ISO_5,3,5,56,103,2518652228
47,19,16,Jits_ISO_5,0,1,48,59,2519028740
47,19,16,Jits_ISO_5,1,5,63,98,2519082516
47,19,16,Jits_ISO_5,2,5,56,103,2519152104
47,19,16,Jits_ISO_5,3,5,80,127,2519162080
47,19,16,Jits_ISO_5,0,1,48,62,2519535896
47,19,16,Jits_ISO_5,1,5,63,98,2519582248
47,19,16,Jits_ISO_5,2,5,56,103,2519601440
47,19,16,Jits_ISO_5,3,5,80,127,2519641360
47,19,16,Jits_ISO_5,0,1,48,59,2520031064
47,19,16,Jits_ISO_5,1,5,56,103,2520092096
47,19,16,Jits_ISO_5,2,5,63,98,2520102292
47,19,16,Jits_ISO_5,3,5,80,127,2520182364
47,19,16,Jits_ISO_5,0,1,48,52,2520542708
47,19,16,Jits_ISO_5,1,5,63,98,2520581468
47,19,16,Jits_ISO_5,2,5,56,103,2520612212
47,19,16,Jits_ISO_5,3,5,80,127,2520652208
47,19,16,Jits_ISO_5,0,1,48,49,2521045060
47,19,16,Jits_ISO_5,1,5,56,103,2521082244
47,19,16,Jits_ISO_5,2,5,63,98,2521122208
47,19,16,Jits_ISO_5,3,5,80,127,2521162280
47,19,16,Jits_ISO_5,0,1,48,65,2521542172
47,19,16,Jits_ISO_5,1,5,80,127,2521582052
47,19,16,Jits_ISO_5,2,5,56,103,2521662004
47,19,16,Jits_ISO_5,3,5,63,98,2521672200
47,19,16,Jits_ISO_5,0,1,48,63,2522074200
47,19,16,Jits_ISO_5,1,5,56,103,2522121572
47,19,16,Jits_ISO_5,2,5,63,98,2522124636
47,19,16,Jits_ISO_5,3,5,80,127,2522131720
47,19,16,Jits_ISO_5,0,1,48,60,2522581260
47,19,16,Jits_ISO_5,1,5,56,103,2522641968
47,19,16,Jits_ISO_5,2,5,63,98,2522662152
47,19,16,Jits_ISO_5,3,5,80,127,2522671452
47,19,16,Jits_ISO_5,0,1,48,59,2523070064
47,19,16,Jits_ISO_5,1,5,63,98,2523111964
47,19,16,Jits_ISO_5,2,5,80,127,2523122160
47,19,16,Jits_ISO_5,3,5,56,103,2523141420
47,19,16,Jits_ISO_5,0,1,48,55,2523593464
47,19,16,Jits_ISO_5,1,5,63,98,2523611476
47,19,16,Jits_ISO_5,2,5,56,103,2523692400
47,19,16,Jits_ISO_5,3,5,80,127,2523695540
47,19,16,Jits_ISO_5,0,1,48,63,2524093120
47,19,16,Jits_ISO_5,1,5,63,98,2524112100
47,19,16,Jits_ISO_5,2,5,56,103,2524131812
47,19,16,Jits_ISO_5,3,5,80,127,2524162384
47,19,16,Jits_ISO_5,0,1,48,63,2524612140
47,19,16,Jits_ISO_5,1,5,56,103,2524613928
47,19,16,Jits_ISO_5,2,5,63,98,2524632368
47,19,16,Jits_ISO_5,3,5,80,127,2524641740
47,19,16,Jits_ISO_5,0,1,48,55,2525082848
47,19,16,Jits_ISO_5,1,5,56,103,2525142356
47,19,16,Jits_ISO_5,2,5,63,98,2525172104
47,19,16,Jits_ISO_5,3,5,80,127,2525175320
47,19,16,Jits_ISO_5,0,5,56,103,2525592120
47,19,16,Jits_ISO_5,1,1,48,60,2525602064
47,19,16,Jits_ISO_5,2,5,63,98,2525631976
47,19,16,Jits_ISO_5,3,5,80,127,2525692212
47,19,16,Jits_ISO_5,0,5,56,103,2526112248
47,19,16,Jits_ISO_5,1,5,63,98,2526122296
47,19,16,Jits_ISO_5,2,1,48,62,2526126756
47,19,16,Jits_ISO_5,3,5,80,127,2526182000
47,19,16,Jits_ISO_5,0,5,56,103,2526611920
47,19,16,Jits_ISO_5,1,5,80,127,2526632228
47,19,16,Jits_ISO_5,2,1,48,54,2526639008
47,19,16,Jits_ISO_5,3,5,63,98,2526662044
47,19,16,Jits_ISO_5,0,1,48,60,2527080772
47,19,16,Jits_ISO_5,1,5,80,127,2527111512
47,19,16,Jits_ISO_5,2,5,56,103,2527122004
47,19,16,Jits_ISO_5,3,5,63,98,2527142168
47,19,16,Jits_ISO_5,0,5,63,98,2527601960
47,19,16,Jits_ISO_5,1,1,48,68,2527621564
47,19,16,Jits_ISO_5,2,5,80,127,2527681972
47,19,16,Jits_ISO_5,3,5,56,103,2527692168
47,19,16,Jits_ISO_5,0,1,48,55,2528096492
47,19,16,Jits_ISO_5,1,5,80,127,2528162076
47,19,16,Jits_ISO_5,2,5,56,103,2528181636
47,19,16,Jits_ISO_5,3,5,63,98,2528184924
47,19,16,Jits_ISO_5,0,5,63,98,2528632140
47,19,16,Jits_ISO_5,1,5,80,127,2528635504
47,19,16,Jits_ISO_5,2,1,48,71,2528642680
47,19,16,Jits_ISO_5,3,5,56,103,2528691700
47,19,16,Jits_ISO_5,0,5,56,103,2529112468
47,19,16,Jits_ISO_5,1,1,48,51,2529119252
47,19,16,Jits_ISO_5,2,5,80,127,2529121756
47,19,16,Jits_ISO_5,3,5,63,98,2529161692
47,19,16,Jits_ISO_5,0,5,56,103,2529591760
47,19,16,Jits_ISO_5,1,1,48,71,2529627688
47,19,16,Jits_ISO_5,2,5,63,98,2529652068
47,19,16,Jits_ISO_5,3,5,80,127,2529662264
47,19,16,Jits_ISO_5,0,1,48,69,2530066896
47,19,16,Jits_ISO_5,1,5,63,98,2530101544
47,19,16,Jits_ISO_5,2,5,80,127,2530141484
47,19,16,Jits_ISO_5,3,5,56,103,2530181480
47,19,16,Jits_ISO_5,0,1,48,71,2530595856
47,19,16,Jits_ISO_5,1,5,56,103,2530611840
47,19,16,Jits_ISO_5,2,5,63,98,2530691484
47,19,16,Jits_ISO_5,3,5,80,127,2530695808
47,19,16,Jits_ISO_5,0,9999,9999,9999,2471309376
47,19,16,Jits_ISO_5,1,9999,9999,9999,2471809088
47,19,16,Jits_ISO_5,2,9999,9999,9999,2472309852
47,19,16,Jits_ISO_5,3,9999,9999,9999,2472809524
47,19,16,Jits_ISO_5,4,9999,9999,9999,2473309260
47,19,16,Jits_ISO_5,5,9999,9999,9999,2473809972
47,19,16,Jits_ISO_5,6,9999,9999,9999,2474309712
47,19,16,Jits_ISO_5,7,9999,9999,9999,2474809456
47,19,16,Jits_ISO_5,8,9999,9999,9999,2475309132
47,19,16,Jits_ISO_5,9,9999,9999,9999,2475809852
47,19,16,Jits_ISO_5,10,9999,9999,9999,2476309600
47,19,16,Jits_ISO_5,11,9999,9999,9999,2476809328
47,19,16,Jits_ISO_5,12,9999,9999,9999,2477310032
47,19,16,Jits_ISO_5,13,9999,9999,9999,2477809760
47,19,16,Jits_ISO_5,14,9999,9999,9999,2478309496
47,19,16,Jits_ISO_5,15,9999,9999,9999,2478809172
47,19,16,Jits_ISO_5,16,9999,9999,9999,2479309876
47,19,16,Jits_ISO_5,17,9999,9999,9999,2479809612
47,19,16,Jits_ISO_5,18,9999,9999,9999,2480309356
47,19,16,Jits_ISO_5,19,9999,9999,9999,2480810080
47,19,16,Jits_ISO_5,20,9999,9999,9999,2481309756
47,19,16,Jits_ISO_5,21,9999,9999,9999,2481809504
47,19,16,Jits_ISO_5,22,9999,9999,9999,2482309176
47,19,16,Jits_ISO_5,23,9999,9999,9999,2482809972
47,19,16,Jits_ISO_5,24,9999,9999,9999,2483309648
47,19,16,Jits_ISO_5,25,9999,9999,9999,2483809388
47,19,16,Jits_ISO_5,26,9999,9999,9999,2484310096
47,19,16,Jits_ISO_5,27,9999,9999,9999,2484820084
47,19,16,Jits_ISO_5,28,9999,9999,9999,2485319756
47,19,16,Jits_ISO_5,29,9999,9999,9999,2485819488
47,19,16,Jits_ISO_5,30,9999,9999,9999,2486319164
47,19,16,Jits_ISO_5,31,9999,9999,9999,2486819960
47,19,16,Jits_ISO_5,32,9999,9999,9999,2487319632
47,19,16,Jits_ISO_5,33,9999,9999,9999,2487819356
47,19,16,Jits_ISO_5,34,9999,9999,9999,2488320076
47,19,16,Jits_ISO_5,35,9999,9999,9999,2488830012
47,19,16,Jits_ISO_5,36,9999,9999,9999,2489329736
47,19,16,Jits_ISO_5,37,9999,9999,9999,2489829472
47,19,16,Jits_ISO_5,38,9999,9999,9999,2490329144
47,19,16,Jits_ISO_5,39,9999,9999,9999,2490829928
47,19,16,Jits_ISO_5,40,9999,9999,9999,2491329592
47,19,16,Jits_ISO_5,41,9999,9999,9999,2491829372
47,19,16,Jits_ISO_5,42,9999,9999,9999,2492330088
47,19,16,Jits_ISO_5,43,9999,9999,9999,2492829820
47,19,16,Jits_ISO_5,44,9999,9999,9999,2493329480
47,19,16,Jits_ISO_5,45,9999,9999,9999,2493829208
47,19,16,Jits_ISO_5,46,9999,9999,9999,2494329916
47,19,16,Jits_ISO_5,47,9999,9999,9999,2494829656
47,19,16,Jits_ISO_5,48,9999,9999,9999,2495329392
47,19,16,Jits_ISO_5,49,9999,9999,9999,2495830120
47,19,16,Jits_ISO_5,50,9999,9999,9999,2496340028
47,19,16,Jits_ISO_5,51,9999,9999,9999,2496839764
47,19,16,Jits_ISO_5,52,9999,9999,9999,2497339500
47,19,16,Jits_ISO_5,53,9999,9999,9999,2497839164
47,19,16,Jits_ISO_5,54,9999,9999,9999,2498339944
47,19,16,Jits_ISO_5,55,9999,9999,9999,2498839624
47,19,16,Jits_ISO_5,56,9999,9999,9999,2499339328
47,19,16,Jits_ISO_5,57,9999,9999,9999,2499840112
47,19,16,Jits_ISO_5,58,9999,9999,9999,2500350036
47,19,16,Jits_ISO_5,59,9999,9999,9999,2500849752
47,19,16,Jits_ISO_5,60,9999,9999,9999,2501349432
47,19,16,Jits_ISO_5,61,9999,9999,9999,2501849164
47,19,16,Jits_ISO_5,62,9999,9999,9999,2502349944
47,19,16,Jits_ISO_5,63,9999,9999,9999,2502849600
47,19,16,Jits_ISO_5,64,9999,9999,9999,2503349340
47,19,16,Jits_ISO_5,65,9999,9999,9999,2503850044
47,19,16,Jits_ISO_5,66,9999,9999,9999,2504349780
47,19,16,Jits_ISO_5,67,9999,9999,9999,2504849500
47,19,16,Jits_ISO_5,68,9999,9999,9999,2505349236
47,19,16,Jits_ISO_5,69,9999,9999,9999,2505849944
47,19,16,Jits_ISO_5,70,9999,9999,9999,2506349668
47,19,16,Jits_ISO_5,71,9999,9999,9999,2506849400
47,19,16,Jits_ISO_5,72,9999,9999,9999,2507350108
47,19,16,Jits_ISO_5,73,9999,9999,9999,2507860032
47,19,16,Jits_ISO_5,74,9999,9999,9999,2508359768
47,19,16,Jits_ISO_5,75,9999,9999,9999,2508859500
47,19,16,Jits_ISO_5,76,9999,9999,9999,2509359168
47,19,16,Jits_ISO_5,77,9999,9999,9999,2509859948
47,19,16,Jits_ISO_5,78,9999,9999,9999,2510359624
47,19,16,Jits_ISO_5,79,9999,9999,9999,2510859336
47,19,16,Jits_ISO_5,80,9999,9999,9999,2511360112
47,19,16,Jits_ISO_5,81,9999,9999,9999,2511870036
47,19,16,Jits_ISO_5,82,9999,9999,9999,2512369764
47,19,16,Jits_ISO_5,83,9999,9999,9999,2512869428
47,19,16,Jits_ISO_5,84,9999,9999,9999,2513369168
47,19,16,Jits_ISO_5,85,9999,9999,9999,2513869944
47,19,16,Jits_ISO_5,86,9999,9999,9999,2514369604
47,19,16,Jits_ISO_5,87,9999,9999,9999,2514869356
47,19,16,Jits_ISO_5,88,9999,9999,9999,2515370072
47,19,16,Jits_ISO_5,89,9999,9999,9999,2515869748
47,19,16,Jits_ISO_5,90,9999,9999,9999,2516369500
47,19,16,Jits_ISO_5,91,9999,9999,9999,2516869168
47,19,16,Jits_ISO_5,92,9999,9999,9999,2517369956
47,19,16,Jits_ISO_5,93,9999,9999,9999,2517869688
47,19,16,Jits_ISO_5,94,9999,9999,9999,2518369344
47,19,16,Jits_ISO_5,95,9999,9999,9999,2518870128
47,19,16,Jits_ISO_5,96,9999,9999,9999,2519380048
47,19,16,Jits_ISO_5,97,9999,9999,9999,2519879784
47,19,16,Jits_ISO_5,98,9999,9999,9999,2520379444
47,19,16,Jits_ISO_5,99,9999,9999,9999,2520879172
47,19,16,Jits_ISO_5,100,9999,9999,9999,2521379956
47,19,16,Jits_ISO_5,101,9999,9999,9999,2521879616
47,19,16,Jits_ISO_5,102,9999,9999,9999,2522379316
47,19,16,Jits_ISO_5,103,9999,9999,9999,2522880096
47,19,16,Jits_ISO_5,104,9999,9999,9999,2523390016
47,19,16,Jits_ISO_5,105,9999,9999,9999,2523889748
47,19,16,Jits_ISO_5,106,9999,9999,9999,2524389480
47,19,16,Jits_ISO_5,107,9999,9999,9999,2524889140
47,19,16,Jits_ISO_5,108,9999,9999,9999,2525389912
47,19,16,Jits_ISO_5,109,9999,9999,9999,2525889648
47,19,16,Jits_ISO_5,110,9999,9999,9999,2526389324
47,19,16,Jits_ISO_5,111,9999,9999,9999,2526890040
47,19,16,Jits_ISO_5,112,9999,9999,9999,2527389788
47,19,16,Jits_ISO_5,113,9999,9999,9999,2527889528
47,19,16,Jits_ISO_5,114,9999,9999,9999,2528389184
47,19,16,Jits_ISO_5,115,9999,9999,9999,2528889956
47,19,16,Jits_ISO_5,116,9999,9999,9999,2529389688
47,19,16,Jits_ISO_5,117,9999,9999,9999,2529889364
47,19,16,Jits_ISO_5,118,9999,9999,9999,2530390088
47,19,16,Jits_ISO_5,119,9999,9999,9999,2530900080
47,20,3,ISIP_8,0,5,42,127,2587252156
47,20,3,ISIP_8,1,5,42,127,2588051836
47,20,3,ISIP_8,2,1,48,36,2588185800
47,20,3,ISIP_8,3,5,42,127,2588851568
47,20,3,ISIP_8,4,1,48,50,2588864788
47,20,3,ISIP_8,5,1,48,58,2589645724
47,20,3,ISIP_8,6,5,42,127,2589652196
47,20,3,ISIP_8,7,1,48,58,2590441420
47,20,3,ISIP_8,8,5,42,127,2590452228
47,20,3,ISIP_8,9,1,48,63,2591249876
47,20,3,ISIP_8,10,5,42,127,2591251688
47,20,3,ISIP_8,11,1,48,63,2592037396
47,20,3,ISIP_8,12,5,42,127,2592051420
47,20,3,ISIP_8,13,1,48,66,2592825312
47,20,3,ISIP_8,14,5,42,127,2592852348
47,20,3,ISIP_8,15,1,48,65,2593605448
47,20,3,ISIP_8,16,5,42,127,2593652084
47,20,3,ISIP_8,17,1,48,62,2594375412
47,20,3,ISIP_8,18,5,42,127,2594451816
47,20,3,ISIP_8,19,1,48,57,2595176412
47,20,3,ISIP_8,20,5,42,127,2595251552
47,20,3,ISIP_8,21,1,48,60,2596022528
47,20,3,ISIP_8,22,5,42,127,2596052256
47,20,3,ISIP_8,23,1,48,57,2596840664
47,20,3,ISIP_8,24,5,42,127,2596852216
47,20,3,ISIP_8,25,5,42,127,2597651760
47,20,3,ISIP_8,26,1,48,62,2597652648
47,20,3,ISIP_8,27,5,42,127,2598451416
47,20,3,ISIP_8,28,1,48,57,2598480340
47,20,3,ISIP_8,29,1,48,57,2599219164
47,20,3,ISIP_8,30,5,42,127,2599252268
47,20,3,ISIP_8,31,1,48,53,2600018156
47,20,3,ISIP_8,32,5,42,127,2600052072
47,20,3,ISIP_8,33,1,48,60,2600776524
47,20,3,ISIP_8,34,5,42,127,2600851956
47,20,3,ISIP_8,35,1,48,47,2601603488
47,20,3,ISIP_8,36,5,42,127,2601651540
47,20,3,ISIP_8,37,1,48,57,2602421920
47,20,3,ISIP_8,38,5,42,127,2602452472
47,20,3,ISIP_8,39,1,48,52,2603214248
47,20,3,ISIP_8,40,5,42,127,2603252280
47,20,3,ISIP_8,41,1,48,48,2604047664
47,20,3,ISIP_8,42,5,42,127,2604052036
47,20,3,ISIP_8,43,1,48,51,2604822792
47,20,3,ISIP_8,44,5,42,127,2604851548
47,20,3,ISIP_8,45,1,48,45,2605604124
47,20,3,ISIP_8,46,5,42,127,2605652476
47,20,3,ISIP_8,47,1,48,51,2606409464
47,20,3,ISIP_8,48,5,42,127,2606452060
47,20,3,ISIP_8,49,1,48,58,2607229764
47,20,3,ISIP_8,50,5,42,127,2607251944
47,20,3,ISIP_8,51,1,48,48,2608019632
47,20,3,ISIP_8,52,5,42,127,2608051604
47,20,3,ISIP_8,53,1,48,53,2608825120
47,20,3,ISIP_8,54,5,42,127,2608852308
47,20,3,ISIP_8,55,1,48,43,2609581100
47,20,3,ISIP_8,56,5,42,127,2609652040
47,20,3,ISIP_8,57,1,48,51,2610419348
47,20,3,ISIP_8,58,5,42,127,2610451800
47,20,3,ISIP_8,59,1,48,48,2611215372
47,20,3,ISIP_8,60,1,48,60,2612046660
47,20,3,ISIP_8,61,1,48,51,2612831060
47,20,3,ISIP_8,62,1,48,47,2613639468
47,20,3,ISIP_8,63,1,48,54,2614460004
47,20,3,ISIP_8,64,1,48,52,2615271776
47,20,3,ISIP_8,65,1,48,50,2616052504
47,20,3,ISIP_8,66,1,48,49,2616877912
47,20,3,ISIP_8,67,1,48,50,2617687444
47,20,3,ISIP_8,68,1,48,51,2618485300
47,20,3,ISIP_8,69,1,48,53,2619303508
47,20,3,ISIP_8,70,1,48,41,2620124704
47,20,3,ISIP_8,71,1,48,52,2620949136
47,20,3,ISIP_8,72,1,48,51,2621766592
47,20,3,ISIP_8,73,1,48,56,2622598564
47,20,3,ISIP_8,74,1,48,54,2623425596
47,20,3,ISIP_8,75,1,48,44,2624257188
47,20,3,ISIP_8,76,1,48,50,2625056712
47,20,3,ISIP_8,77,1,48,53,2625868484
47,20,3,ISIP_8,78,1,48,51,2626637472
47,20,3,ISIP_8,79,1,48,54,2627466896
47,20,3,ISIP_8,80,1,48,59,2628328484
47,20,3,ISIP_8,81,1,48,54,2629151352
47,20,3,ISIP_8,82,1,48,53,2629976660
47,20,3,ISIP_8,83,1,48,50,2630820668
47,20,3,ISIP_8,84,1,48,55,2631652712
47,20,3,ISIP_8,85,1,48,57,2632521880
47,20,3,ISIP_8,86,1,48,57,2633383316
47,20,3,ISIP_8,87,1,48,58,2634217076
47,20,3,ISIP_8,88,1,48,55,2635048620
47,20,3,ISIP_8,89,1,48,57,2635886948
47,20,3,ISIP_8,90,1,48,48,2636729980
47,20,3,ISIP_8,91,1,48,63,2637575412
47,20,3,ISIP_8,92,1,48,55,2638414584
47,20,3,ISIP_8,93,1,48,37,2639263692
47,20,3,ISIP_8,94,1,48,60,2640115628
47,20,3,ISIP_8,95,1,48,57,2640931920
47,20,3,ISIP_8,96,1,48,53,2641775780
47,20,3,ISIP_8,97,1,48,56,2642602880
47,20,3,ISIP_8,98,1,48,58,2643440084
47,20,3,ISIP_8,99,1,48,68,2644314416
47,20,3,ISIP_8,100,1,48,62,2645138076
47,20,3,ISIP_8,101,1,48,57,2646006468
47,20,3,ISIP_8,102,1,48,67,2646840484
47,20,3,ISIP_8,103,1,48,66,2647678952
47,20,3,ISIP_8,104,1,48,53,2648505612
47,20,3,ISIP_8,105,1,48,64,2649363404
47,20,3,ISIP_8,106,1,48,64,2650172040
47,20,3,ISIP_8,107,1,48,67,2651020312
47,20,3,ISIP_8,108,1,48,63,2651857440
47,20,3,ISIP_8,109,1,48,65,2652717332
47,20,3,ISIP_8,110,1,48,62,2653577272
47,20,3,ISIP_8,111,1,48,59,2654443872
47,20,3,ISIP_8,112,1,48,62,2655318656
47,20,3,ISIP_8,113,1,48,44,2656165656
47,20,3,ISIP_8,114,1,48,51,2657017596
47,20,3,ISIP_8,115,1,48,51,2657861184
47,20,3,ISIP_8,116,1,48,48,2658707808
47,20,3,ISIP_8,117,1,48,54,2659555560
47,20,3,ISIP_8,118,1,48,57,2660424952
47,20,3,ISIP_8,119,1,48,63,2661261408
47,20,3,ISIP_8,120,1,48,62,2662135932
47,20,3,ISIP_8,121,1,48,62,2662976000
47,20,3,ISIP_8,122,1,48,57,2663833924
47,20,3,ISIP_8,123,1,48,64,2664692144
47,20,3,ISIP_8,124,1,48,48,2665522344
47,20,3,ISIP_8,125,1,48,62,2666354532
47,20,3,ISIP_8,126,1,48,57,2667178792
47,20,3,ISIP_8,127,1,48,54,2668043624
47,20,3,ISIP_8,128,1,48,57,2668923400
47,20,3,ISIP_8,129,1,48,65,2669761128
47,20,3,ISIP_8,130,1,48,56,2670584416
47,20,3,ISIP_8,131,1,48,62,2671446776
47,20,3,ISIP_8,132,1,48,54,2672323548
47,20,3,ISIP_8,133,1,48,65,2673194584
47,20,3,ISIP_8,134,1,48,58,2674051388
47,20,3,ISIP_8,135,1,48,68,2674889556
47,20,3,ISIP_8,136,1,48,57,2675741220
47,20,3,ISIP_8,137,1,48,50,2676598248
47,20,3,ISIP_8,138,1,48,63,2677479732
47,20,3,ISIP_8,139,1,48,52,2678326680
47,20,3,ISIP_8,140,1,48,67,2679149748
47,20,3,ISIP_8,141,1,48,48,2680015224
47,20,3,ISIP_8,142,1,48,54,2680861968
47,20,3,ISIP_8,143,1,48,64,2681706196
47,20,3,ISIP_8,144,1,48,61,2682568452
47,20,3,ISIP_8,145,1,48,54,2683404260
47,20,3,ISIP_8,146,1,48,66,2684237952
47,20,3,ISIP_8,147,1,48,57,2685060868
47,20,3,ISIP_8,148,1,48,59,2685904800
47,20,3,ISIP_8,149,1,48,57,2686744124
47,20,3,ISIP_8,150,1,48,59,2687591948
47,20,3,ISIP_8,151,1,48,53,2688422568
47,20,3,ISIP_8,152,1,48,62,2689260968
47,20,3,ISIP_8,153,1,48,49,2690106120
47,20,3,ISIP_8,154,1,48,61,2690930384
47,20,3,ISIP_8,155,1,48,62,2691744476
47,20,3,ISIP_8,156,1,48,66,2692642144
47,20,3,ISIP_8,157,1,48,60,2693485400
47,20,3,ISIP_8,158,1,48,52,2694307948
47,20,3,ISIP_8,159,1,48,54,2695183768
47,20,3,ISIP_8,160,1,48,53,2696037052
47,20,3,ISIP_8,161,1,48,68,2696881748
47,20,3,ISIP_8,162,1,48,65,2697712220
47,20,3,ISIP_8,163,1,48,41,2698564552
47,20,3,ISIP_8,164,1,48,66,2699443720
47,20,3,ISIP_8,165,1,48,58,2700266260
47,20,3,ISIP_8,166,1,48,61,2701096756
47,20,3,ISIP_8,167,1,48,60,2701976744
47,20,3,ISIP_8,168,1,48,58,2702785676
47,20,3,ISIP_8,169,1,48,54,2703637640
47,20,3,ISIP_8,170,1,48,57,2704473792
47,20,3,ISIP_8,171,1,48,60,2705311220
47,20,3,ISIP_8,172,1,48,57,2706143036
47,20,3,ISIP_8,173,1,48,60,2706971436
47,20,3,ISIP_8,0,9999,9999,9999,2587249716
47,20,3,ISIP_8,1,9999,9999,9999,2588049468
47,20,3,ISIP_8,2,9999,9999,9999,2588849204
47,20,3,ISIP_8,3,9999,9999,9999,2589649976
47,20,3,ISIP_8,4,9999,9999,9999,2590449716
47,20,3,ISIP_8,5,9999,9999,9999,2591249504
47,20,3,ISIP_8,6,9999,9999,9999,2592049204
47,20,3,ISIP_8,7,9999,9999,9999,2592849984
47,20,3,ISIP_8,8,9999,9999,9999,2593649720
47,20,3,ISIP_8,9,9999,9999,9999,2594449524
47,20,3,ISIP_8,10,9999,9999,9999,2595249260
47,20,3,ISIP_8,11,9999,9999,9999,2596049968
47,20,3,ISIP_8,12,9999,9999,9999,2596849776
47,20,3,ISIP_8,13,9999,9999,9999,2597649468
47,20,3,ISIP_8,14,9999,9999,9999,2598449200
47,20,3,ISIP_8,15,9999,9999,9999,2599249976
47,20,3,ISIP_8,16,9999,9999,9999,2600049784
47,20,3,ISIP_8,17,9999,9999,9999,2600849516
47,20,3,ISIP_8,18,9999,9999,9999,2601649248
47,20,3,ISIP_8,19,9999,9999,9999,2602450032
47,20,3,ISIP_8,20,9999,9999,9999,2603249764
47,20,3,ISIP_8,21,9999,9999,9999,2604049524
47,20,3,ISIP_8,22,9999,9999,9999,2604849256
47,20,3,ISIP_8,23,9999,9999,9999,2605650036
47,20,3,ISIP_8,24,9999,9999,9999,2606449768
47,20,3,ISIP_8,25,9999,9999,9999,2607249504
47,20,3,ISIP_8,26,9999,9999,9999,2608049236
47,20,3,ISIP_8,27,9999,9999,9999,2608850016
47,20,3,ISIP_8,28,9999,9999,9999,2609649748
47,20,3,ISIP_8,29,9999,9999,9999,2610449508
47,20,3,ISIP_8,30,9999,9999,9999,2611249244
47,20,3,ISIP_8,31,9999,9999,9999,2612050020
47,20,3,ISIP_8,32,9999,9999,9999,2612849748
47,20,3,ISIP_8,33,9999,9999,9999,2613649480
47,20,3,ISIP_8,34,9999,9999,9999,2614449216
47,20,3,ISIP_8,35,9999,9999,9999,2615249992
47,20,3,ISIP_8,36,9999,9999,9999,2616049720
47,20,3,ISIP_8,37,9999,9999,9999,2616849476
47,20,3,ISIP_8,38,9999,9999,9999,2617649204
47,20,3,ISIP_8,39,9999,9999,9999,2618449980
47,20,3,ISIP_8,40,9999,9999,9999,2619249784
47,20,3,ISIP_8,41,9999,9999,9999,2620049512
47,20,3,ISIP_8,42,9999,9999,9999,2620849240
47,20,3,ISIP_8,43,9999,9999,9999,2621650016
47,20,3,ISIP_8,44,9999,9999,9999,2622449748
47,20,3,ISIP_8,45,9999,9999,9999,2623249500
47,20,3,ISIP_8,46,9999,9999,9999,2624049228
47,20,3,ISIP_8,47,9999,9999,9999,2624850004
47,20,3,ISIP_8,48,9999,9999,9999,2625649732
47,20,3,ISIP_8,49,9999,9999,9999,2626449464
47,20,3,ISIP_8,50,9999,9999,9999,2627249268
47,20,3,ISIP_8,51,9999,9999,9999,2628049968
47,20,3,ISIP_8,52,9999,9999,9999,2628849772
47,20,3,ISIP_8,53,9999,9999,9999,2629649528
47,20,3,ISIP_8,54,9999,9999,9999,2630449256
47,20,3,ISIP_8,55,9999,9999,9999,2631250032
47,20,3,ISIP_8,56,9999,9999,9999,2632049760
47,20,3,ISIP_8,57,9999,9999,9999,2632849492
47,20,3,ISIP_8,58,9999,9999,9999,2633649220
47,20,3,ISIP_8,59,9999,9999,9999,2634449996
47,20,3,ISIP_8,60,9999,9999,9999,2635249724
47,20,3,ISIP_8,61,9999,9999,9999,2636049480
47,20,3,ISIP_8,62,9999,9999,9999,2636849208
47,20,3,ISIP_8,63,9999,9999,9999,2637650000
47,20,3,ISIP_8,64,9999,9999,9999,2638449728
47,20,3,ISIP_8,65,9999,9999,9999,2639249464
47,20,3,ISIP_8,66,9999,9999,9999,2640049268
47,20,3,ISIP_8,67,9999,9999,9999,2640849968
47,20,3,ISIP_8,68,9999,9999,9999,2641649772
47,20,3,ISIP_8,69,9999,9999,9999,2642449528
47,20,3,ISIP_8,70,9999,9999,9999,2643249260
47,20,3,ISIP_8,71,9999,9999,9999,2644050032
47,20,3,ISIP_8,72,9999,9999,9999,2644849764
47,20,3,ISIP_8,73,9999,9999,9999,2645649492
47,20,3,ISIP_8,74,9999,9999,9999,2646449220
47,20,3,ISIP_8,75,9999,9999,9999,2647249996
47,20,3,ISIP_8,76,9999,9999,9999,2648049724
47,20,3,ISIP_8,77,9999,9999,9999,2648849480
47,20,3,ISIP_8,78,9999,9999,9999,2649649208
47,20,3,ISIP_8,79,9999,9999,9999,2650449984
47,20,3,ISIP_8,80,9999,9999,9999,2651249716
47,20,3,ISIP_8,81,9999,9999,9999,2652049516
47,20,3,ISIP_8,82,9999,9999,9999,2652849248
47,20,3,ISIP_8,83,9999,9999,9999,2653650036
47,20,3,ISIP_8,84,9999,9999,9999,2654449768
47,20,3,ISIP_8,85,9999,9999,9999,2655249528
47,20,3,ISIP_8,86,9999,9999,9999,2656049256
47,20,3,ISIP_8,87,9999,9999,9999,2656850032
47,20,3,ISIP_8,88,9999,9999,9999,2657649760
47,20,3,ISIP_8,89,9999,9999,9999,2658449488
47,20,3,ISIP_8,90,9999,9999,9999,2659249220
47,20,3,ISIP_8,91,9999,9999,9999,2660049992
47,20,3,ISIP_8,92,9999,9999,9999,2660849724
47,20,3,ISIP_8,93,9999,9999,9999,2661649480
47,20,3,ISIP_8,94,9999,9999,9999,2662449208
47,20,3,ISIP_8,95,9999,9999,9999,2663249984
47,20,3,ISIP_8,96,9999,9999,9999,2664049712
47,20,3,ISIP_8,97,9999,9999,9999,2664849516
47,20,3,ISIP_8,98,9999,9999,9999,2665649248
47,20,3,ISIP_8,99,9999,9999,9999,2666450040
47,20,3,ISIP_8,100,9999,9999,9999,2667249768
47,20,3,ISIP_8,101,9999,9999,9999,2668049520
47,20,3,ISIP_8,102,9999,9999,9999,2668849256
47,20,3,ISIP_8,103,9999,9999,9999,2669650032
47,20,3,ISIP_8,104,9999,9999,9999,2670449764
47,20,3,ISIP_8,105,9999,9999,9999,2671249492
47,20,3,ISIP_8,106,9999,9999,9999,2672049220
47,20,3,ISIP_8,107,9999,9999,9999,2672849996
47,20,3,ISIP_8,108,9999,9999,9999,2673649728
47,20,3,ISIP_8,109,9999,9999,9999,2674449480
47,20,3,ISIP_8,110,9999,9999,9999,2675249208
47,20,3,ISIP_8,111,9999,9999,9999,2676049988
47,20,3,ISIP_8,112,9999,9999,9999,2676849716
47,20,3,ISIP_8,113,9999,9999,9999,2677649520
47,20,3,ISIP_8,114,9999,9999,9999,2678449248
47,20,3,ISIP_8,115,9999,9999,9999,2679250024
47,20,3,ISIP_8,116,9999,9999,9999,2680049768
47,20,3,ISIP_8,117,9999,9999,9999,2680849528
47,20,3,ISIP_8,118,9999,9999,9999,2681649256
47,20,3,ISIP_8,119,9999,9999,9999,2682450032
47,20,3,ISIP_8,120,9999,9999,9999,2683249764
47,20,3,ISIP_8,121,9999,9999,9999,2684049492
47,20,3,ISIP_8,122,9999,9999,9999,2684849224
47,20,3,ISIP_8,123,9999,9999,9999,2685649996
47,20,3,ISIP_8,124,9999,9999,9999,2686449728
47,20,3,ISIP_8,125,9999,9999,9999,2687249484
47,20,3,ISIP_8,126,9999,9999,9999,2688049212
47,20,3,ISIP_8,127,9999,9999,9999,2688849988
47,20,3,ISIP_8,128,9999,9999,9999,2689649716
47,20,3,ISIP_8,129,9999,9999,9999,2690449520
47,20,3,ISIP_8,130,9999,9999,9999,2691249248
47,20,3,ISIP_8,131,9999,9999,9999,2692050024
47,20,3,ISIP_8,132,9999,9999,9999,2692849752
47,20,3,ISIP_8,133,9999,9999,9999,2693649508
47,20,3,ISIP_8,134,9999,9999,9999,2694449236
47,20,3,ISIP_8,135,9999,9999,9999,2695250028
47,20,3,ISIP_8,136,9999,9999,9999,2696049756
47,20,3,ISIP_8,137,9999,9999,9999,2696849492
47,20,3,ISIP_8,138,9999,9999,9999,2697649220
47,20,3,ISIP_8,139,9999,9999,9999,2698449996
47,20,3,ISIP_8,140,9999,9999,9999,2699249724
47,20,3,ISIP_8,141,9999,9999,9999,2700049480
47,20,3,ISIP_8,142,9999,9999,9999,2700849208
47,20,3,ISIP_8,143,9999,9999,9999,2701649984
47,20,3,ISIP_8,144,9999,9999,9999,2702449712
47,20,3,ISIP_8,145,9999,9999,9999,2703249520
47,20,3,ISIP_8,146,9999,9999,9999,2704049248
47,20,3,ISIP_8,147,9999,9999,9999,2704850024
47,20,3,ISIP_8,148,9999,9999,9999,2705649752
47,20,3,ISIP_8,149,9999,9999,9999,2706449508
47,21,5,ISIP_5,0,5,42,127,2732980544
47,21,5,ISIP_5,1,5,42,127,2733481232
47,21,5,ISIP_5,2,1,48,51,2733910820
47,21,5,ISIP_5,3,5,42,127,2733981016
47,21,5,ISIP_5,4,1,48,55,2734446944
47,21,5,ISIP_5,5,5,42,127,2734480712
47,21,5,ISIP_5,6,1,48,68,2734939680
47,21,5,ISIP_5,7,5,42,127,2734980556
47,21,5,ISIP_5,8,1,48,60,2735448800
47,21,5,ISIP_5,9,5,42,127,2735481224
47,21,5,ISIP_5,10,1,48,60,2735947672
47,21,5,ISIP_5,11,5,42,127,2735980920
47,21,5,ISIP_5,12,1,48,52,2736435776
47,21,5,ISIP_5,13,5,42,127,2736480840
47,21,5,ISIP_5,14,1,48,56,2736946616
47,21,5,ISIP_5,15,5,42,127,2736981356
47,21,5,ISIP_5,16,5,42,127,2737481060
47,21,5,ISIP_5,17,1,48,49,2737487392
47,21,5,ISIP_5,18,5,42,127,2737980756
47,21,5,ISIP_5,19,1,48,47,2738002948
47,21,5,ISIP_5,20,5,42,127,2738480448
47,21,5,ISIP_5,21,1,48,54,2738491872
47,21,5,ISIP_5,22,1,48,57,2738945596
47,21,5,ISIP_5,23,5,42,127,2738981332
47,21,5,ISIP_5,24,1,48,63,2739448504
47,21,5,ISIP_5,25,5,42,127,2739480804
47,21,5,ISIP_5,26,1,48,62,2739963608
47,21,5,ISIP_5,27,5,42,127,2739980868
47,21,5,ISIP_5,28,1,48,68,2740438692
47,21,5,ISIP_5,29,5,42,127,2740481364
47,21,5,ISIP_5,30,1,48,56,2740951632
47,21,5,ISIP_5,31,5,42,127,2740981136
47,21,5,ISIP_5,32,1,48,62,2741459028
47,21,5,ISIP_5,33,5,42,127,2741480756
47,21,5,ISIP_5,34,1,48,59,2741948700
47,21,5,ISIP_5,35,5,42,127,2741980600
47,21,5,ISIP_5,36,5,42,127,2742481200
47,21,5,ISIP_5,37,1,48,55,2742878548
47,21,5,ISIP_5,38,5,42,127,2742980892
47,21,5,ISIP_5,39,1,48,56,2743406892
47,21,5,ISIP_5,40,5,42,127,2743480604
47,21,5,ISIP_5,41,1,48,57,2743922368
47,21,5,ISIP_5,42,5,42,127,2743981496
47,21,5,ISIP_5,43,1,48,65,2744426704
47,21,5,ISIP_5,44,5,42,127,2744481116
47,21,5,ISIP_5,45,1,48,68,2744921084
47,21,5,ISIP_5,46,5,42,127,2744980812
47,21,5,ISIP_5,47,1,48,62,2745431924
47,21,5,ISIP_5,48,5,42,127,2745480580
47,21,5,ISIP_5,49,1,48,60,2745921372
47,21,5,ISIP_5,50,5,42,127,2745981472
47,21,5,ISIP_5,51,1,48,53,2746437520
47,21,5,ISIP_5,52,5,42,127,2746481092
47,21,5,ISIP_5,53,1,48,60,2746929136
47,21,5,ISIP_5,54,5,42,127,2746980712
47,21,5,ISIP_5,55,1,48,62,2747460324
47,21,5,ISIP_5,56,5,42,127,2747480780
47,21,5,ISIP_5,57,1,48,57,2747975500
47,21,5,ISIP_5,58,5,42,127,2747981444
47,21,5,ISIP_5,59,1,48,44,2748473928
47,21,5,ISIP_5,60,5,42,127,2748480992
47,21,5,ISIP_5,61,1,48,37,2748977136
47,21,5,ISIP_5,62,5,42,127,2748980688
47,21,5,ISIP_5,63,5,42,127,2749481588
47,21,5,ISIP_5,64,1,48,42,2749531004
47,21,5,ISIP_5,65,5,42,127,2749981132
47,21,5,ISIP_5,66,1,48,43,2750038924
47,21,5,ISIP_5,67,5,42,127,2750480828
47,21,5,ISIP_5,68,1,48,46,2750537576
47,21,5,ISIP_5,69,5,42,127,2750980720
47,21,5,ISIP_5,70,1,48,46,2750985108
47,21,5,ISIP_5,71,5,42,127,2751481216
47,21,5,ISIP_5,72,1,48,57,2751526096
47,21,5,ISIP_5,73,5,42,127,2751980836
47,21,5,ISIP_5,74,1,48,58,2751999804
47,21,5,ISIP_5,75,1,48,58,2752467692
47,21,5,ISIP_5,76,5,42,127,2752480596
47,21,5,ISIP_5,77,1,48,60,2752992088
47,21,5,ISIP_5,78,1,48,56,2753497164
47,21,5,ISIP_5,79,1,48,62,2753979948
47,21,5,ISIP_5,80,1,48,61,2754485628
47,21,5,ISIP_5,81,1,48,51,2754911852
47,21,5,ISIP_5,82,1,48,50,2755470708
47,21,5,ISIP_5,83,1,48,58,2755953416
47,21,5,ISIP_5,84,1,48,58,2756450040
47,21,5,ISIP_5,85,1,48,48,2756977708
47,21,5,ISIP_5,86,1,48,59,2757472232
47,21,5,ISIP_5,87,1,48,57,2757968556
47,21,5,ISIP_5,88,1,48,58,2758482252
47,21,5,ISIP_5,89,1,48,58,2759001468
47,21,5,ISIP_5,90,1,48,68,2759495096
47,21,5,ISIP_5,91,1,48,57,2760019692
47,21,5,ISIP_5,92,1,48,56,2760490588
47,21,5,ISIP_5,93,1,48,66,2761000524
47,21,5,ISIP_5,94,1,48,49,2761502312
47,21,5,ISIP_5,95,1,48,54,2761985444
47,21,5,ISIP_5,96,1,48,57,2762491048
47,21,5,ISIP_5,97,1,48,58,2762982884
47,21,5,ISIP_5,98,1,48,51,2763467520
47,21,5,ISIP_5,99,1,48,50,2763946124
47,21,5,ISIP_5,100,1,48,50,2764436236
47,21,5,ISIP_5,101,1,48,56,2764904136
47,21,5,ISIP_5,102,1,48,50,2765437336
47,21,5,ISIP_5,103,1,48,55,2765938972
47,21,5,ISIP_5,104,1,48,63,2766403808
47,21,5,ISIP_5,105,1,48,40,2766893028
47,21,5,ISIP_5,106,1,48,52,2767396312
47,21,5,ISIP_5,107,1,48,51,2767870544
47,21,5,ISIP_5,108,1,48,56,2768343460
47,21,5,ISIP_5,109,1,48,53,2768852500
47,21,5,ISIP_5,110,1,48,45,2769355180
47,21,5,ISIP_5,111,1,48,54,2769852400
47,21,5,ISIP_5,112,1,48,51,2770345804
47,21,5,ISIP_5,113,1,48,47,2770820144
47,21,5,ISIP_5,114,1,48,51,2771314900
47,21,5,ISIP_5,115,1,48,68,2771779132
47,21,5,ISIP_5,116,1,48,56,2772264992
47,21,5,ISIP_5,117,1,48,62,2772731888
47,21,5,ISIP_5,118,1,48,65,2773222304
47,21,5,ISIP_5,119,1,48,52,2773699708
47,21,5,ISIP_5,120,1,48,58,2774188476
47,21,5,ISIP_5,121,1,48,59,2774651440
47,21,5,ISIP_5,122,1,48,57,2775125924
47,21,5,ISIP_5,123,1,48,59,2775618360
47,21,5,ISIP_5,124,1,48,60,2776100400
47,21,5,ISIP_5,125,1,48,65,2776575308
47,21,5,ISIP_5,126,1,48,60,2777054284
47,21,5,ISIP_5,127,1,48,58,2777547012
47,21,5,ISIP_5,128,1,48,54,2778016708
47,21,5,ISIP_5,129,1,48,47,2778525600
47,21,5,ISIP_5,130,1,48,61,2779024168
47,21,5,ISIP_5,131,1,48,61,2779494768
47,21,5,ISIP_5,132,1,48,54,2780003956
47,21,5,ISIP_5,133,1,48,67,2780483376
47,21,5,ISIP_5,134,1,48,58,2780958368
47,21,5,ISIP_5,135,1,48,63,2781427968
47,21,5,ISIP_5,136,1,48,56,2781905812
47,21,5,ISIP_5,137,1,48,68,2782380228
47,21,5,ISIP_5,138,1,48,58,2782849992
47,21,5,ISIP_5,139,1,48,64,2783310788
47,21,5,ISIP_5,140,1,48,62,2783776744
47,21,5,ISIP_5,141,1,48,47,2784261704
47,21,5,ISIP_5,142,1,48,56,2784739076
47,21,5,ISIP_5,143,1,48,55,2785219700
47,21,5,ISIP_5,144,1,48,56,2785670992
47,21,5,ISIP_5,145,1,48,52,2786126032
47,21,5,ISIP_5,146,1,48,50,2786588468
47,21,5,ISIP_5,147,1,48,52,2787059792
47,21,5,ISIP_5,148,1,48,49,2787601620
47,21,5,ISIP_5,149,1,48,59,2788101608
47,21,5,ISIP_5,150,1,48,56,2788600152
47,21,5,ISIP_5,151,1,48,54,2789096552
47,21,5,ISIP_5,152,1,48,42,2789585916
47,21,5,ISIP_5,153,1,48,58,2790074468
47,21,5,ISIP_5,154,1,48,60,2790571016
47,21,5,ISIP_5,155,1,48,48,2791071376
47,21,5,ISIP_5,156,1,48,62,2791586176
47,21,5,ISIP_5,157,1,48,54,2792055424
47,21,5,ISIP_5,158,1,48,51,2792543376
47,21,5,ISIP_5,159,1,48,57,2793020996
47,21,5,ISIP_5,160,1,48,63,2793502584
47,21,5,ISIP_5,161,1,48,40,2793994276
47,21,5,ISIP_5,162,1,48,60,2794468644
47,21,5,ISIP_5,163,1,48,36,2794936472
47,21,5,ISIP_5,164,1,48,49,2795423520
47,21,5,ISIP_5,165,1,48,53,2795911468
47,21,5,ISIP_5,166,1,48,58,2796399640
47,21,5,ISIP_5,167,1,48,56,2796865444
47,21,5,ISIP_5,168,1,48,67,2797344268
47,21,5,ISIP_5,169,1,48,45,2797806308
47,21,5,ISIP_5,170,1,48,48,2798262472
47,21,5,ISIP_5,171,1,48,46,2798778392
47,21,5,ISIP_5,172,1,48,54,2799260128
47,21,5,ISIP_5,173,1,48,57,2799753836
47,21,5,ISIP_5,174,1,48,58,2800215752
47,21,5,ISIP_5,175,1,48,43,2800709160
47,21,5,ISIP_5,176,1,48,57,2801168012
47,21,5,ISIP_5,177,1,48,55,2801640076
47,21,5,ISIP_5,178,1,48,57,2802091972
47,21,5,ISIP_5,179,1,48,47,2802598468
47,21,5,ISIP_5,180,1,48,51,2803049692
47,21,5,ISIP_5,181,1,48,54,2803551100
47,21,5,ISIP_5,182,1,48,40,2804031944
47,21,5,ISIP_5,183,1,48,54,2804511288
47,21,5,ISIP_5,184,1,48,59,2804997440
47,21,5,ISIP_5,185,1,48,65,2805485888
47,21,5,ISIP_5,186,1,48,57,2805993584
47,21,5,ISIP_5,187,1,48,57,2806496712
47,21,5,ISIP_5,188,1,48,49,2806977984
47,21,5,ISIP_5,189,1,48,49,2807496916
47,21,5,ISIP_5,190,1,48,53,2807958596
47,21,5,ISIP_5,191,1,48,58,2808439804
47,21,5,ISIP_5,192,1,48,58,2808954988
47,21,5,ISIP_5,193,1,48,57,2809406732
47,21,5,ISIP_5,194,1,48,63,2809886000
47,21,5,ISIP_5,195,1,48,44,2810367784
47,21,5,ISIP_5,196,1,48,58,2810862172
47,21,5,ISIP_5,197,1,48,61,2811312496
47,21,5,ISIP_5,198,1,48,60,2811807544
47,21,5,ISIP_5,199,1,48,61,2812279188
47,21,5,ISIP_5,200,1,48,62,2812756736
47,21,5,ISIP_5,0,9999,9999,9999,2732978256
47,21,5,ISIP_5,1,9999,9999,9999,2733479016
47,21,5,ISIP_5,2,9999,9999,9999,2733978728
47,21,5,ISIP_5,3,9999,9999,9999,2734478424
47,21,5,ISIP_5,4,9999,9999,9999,2734978116
47,21,5,ISIP_5,5,9999,9999,9999,2735478860
47,21,5,ISIP_5,6,9999,9999,9999,2735978556
47,21,5,ISIP_5,7,9999,9999,9999,2736478328
47,21,5,ISIP_5,8,9999,9999,9999,2736978992
47,21,5,ISIP_5,9,9999,9999,9999,2737478768
47,21,5,ISIP_5,10,9999,9999,9999,2737978464
47,21,5,ISIP_5,11,9999,9999,9999,2738478160
47,21,5,ISIP_5,12,9999,9999,9999,2738978892
47,21,5,ISIP_5,13,9999,9999,9999,2739478588
47,21,5,ISIP_5,14,9999,9999,9999,2739978360
47,21,5,ISIP_5,15,9999,9999,9999,2740479076
47,21,5,ISIP_5,16,9999,9999,9999,2740978772
47,21,5,ISIP_5,17,9999,9999,9999,2741478468
47,21,5,ISIP_5,18,9999,9999,9999,2741978160
47,21,5,ISIP_5,19,9999,9999,9999,2742478908
47,21,5,ISIP_5,20,9999,9999,9999,2742978676
47,21,5,ISIP_5,21,9999,9999,9999,2743478388
47,21,5,ISIP_5,22,9999,9999,9999,2743979056
47,21,5,ISIP_5,23,9999,9999,9999,2744478828
47,21,5,ISIP_5,24,9999,9999,9999,2744978524
47,21,5,ISIP_5,25,9999,9999,9999,2745478216
47,21,5,ISIP_5,26,9999,9999,9999,2745978960
47,21,5,ISIP_5,27,9999,9999,9999,2746478656
47,21,5,ISIP_5,28,9999,9999,9999,2746978424
47,21,5,ISIP_5,29,9999,9999,9999,2747478116
47,21,5,ISIP_5,30,9999,9999,9999,2747978860
47,21,5,ISIP_5,31,9999,9999,9999,2748478556
47,21,5,ISIP_5,32,9999,9999,9999,2748978252
47,21,5,ISIP_5,33,9999,9999,9999,2749479000
47,21,5,ISIP_5,34,9999,9999,9999,2749978696
47,21,5,ISIP_5,35,9999,9999,9999,2750478388
47,21,5,ISIP_5,36,9999,9999,9999,2750978136
47,21,5,ISIP_5,37,9999,9999,9999,2751478852
47,21,5,ISIP_5,38,9999,9999,9999,2751978544
47,21,5,ISIP_5,39,9999,9999,9999,2752478308
47,21,5,ISIP_5,40,9999,9999,9999,2752979056
47,21,5,ISIP_5,41,9999,9999,9999,2753478744
47,21,5,ISIP_5,42,9999,9999,9999,2753978436
47,21,5,ISIP_5,43,9999,9999,9999,2754478128
47,21,5,ISIP_5,44,9999,9999,9999,2754978932
47,21,5,ISIP_5,45,9999,9999,9999,2755478624
47,21,5,ISIP_5,46,9999,9999,9999,2755978316
47,21,5,ISIP_5,47,9999,9999,9999,2756479052
47,21,5,ISIP_5,48,9999,9999,9999,2756978744
47,21,5,ISIP_5,49,9999,9999,9999,2757478508
47,21,5,ISIP_5,50,9999,9999,9999,2757978200
47,21,5,ISIP_5,51,9999,9999,9999,2758478944
47,21,5,ISIP_5,52,9999,9999,9999,2758978632
47,21,5,ISIP_5,53,9999,9999,9999,2759478324
47,21,5,ISIP_5,54,9999,9999,9999,2759979064
47,21,5,ISIP_5,55,9999,9999,9999,2760478828
47,21,5,ISIP_5,56,9999,9999,9999,2760978516
47,21,5,ISIP_5,57,9999,9999,9999,2761478208
47,21,5,ISIP_5,58,9999,9999,9999,2761978996
47,21,5,ISIP_5,59,9999,9999,9999,2762478688
47,21,5,ISIP_5,60,9999,9999,9999,2762978376
47,21,5,ISIP_5,61,9999,9999,9999,2763478136
47,21,5,ISIP_5,62,9999,9999,9999,2763978872
47,21,5,ISIP_5,63,9999,9999,9999,2764478560
47,21,5,ISIP_5,64,9999,9999,9999,2764978252
47,21,5,ISIP_5,65,9999,9999,9999,2765478992
47,21,5,ISIP_5,66,9999,9999,9999,2765978680
47,21,5,ISIP_5,67,9999,9999,9999,2766478448
47,21,5,ISIP_5,68,9999,9999,9999,2766978140
47,21,5,ISIP_5,69,9999,9999,9999,2767478876
47,21,5,ISIP_5,70,9999,9999,9999,2767978552
47,21,5,ISIP_5,71,9999,9999,9999,2768478316
47,21,5,ISIP_5,72,9999,9999,9999,2768979056
47,21,5,ISIP_5,73,9999,9999,9999,2769478744
47,21,5,ISIP_5,74,9999,9999,9999,2769978436
47,21,5,ISIP_5,75,9999,9999,9999,2770478200
47,21,5,ISIP_5,76,9999,9999,9999,2770978936
47,21,5,ISIP_5,77,9999,9999,9999,2771478628
47,21,5,ISIP_5,78,9999,9999,9999,2771978320
47,21,5,ISIP_5,79,9999,9999,9999,2772479032
47,21,5,ISIP_5,80,9999,9999,9999,2772978796
47,21,5,ISIP_5,81,9999,9999,9999,2773478488
47,21,5,ISIP_5,82,9999,9999,9999,2773978176
47,21,5,ISIP_5,83,9999,9999,9999,2774478916
47,21,5,ISIP_5,84,9999,9999,9999,2774978680
47,21,5,ISIP_5,85,9999,9999,9999,2775478372
47,21,5,ISIP_5,86,9999,9999,9999,2775979112
47,21,5,ISIP_5,87,9999,9999,9999,2776478800
47,21,5,ISIP_5,88,9999,9999,9999,2776978492
47,21,5,ISIP_5,89,9999,9999,9999,2777478256
47,21,5,ISIP_5,90,9999,9999,9999,2777978996
47,21,5,ISIP_5,91,9999,9999,9999,2778478688
47,21,5,ISIP_5,92,9999,9999,9999,2778978376
47,21,5,ISIP_5,93,9999,9999,9999,2779478068
47,21,5,ISIP_5,94,9999,9999,9999,2779978804
47,21,5,ISIP_5,95,9999,9999,9999,2780478572
47,21,5,ISIP_5,96,9999,9999,9999,2780978256
47,21,5,ISIP_5,97,9999,9999,9999,2781478992
47,21,5,ISIP_5,98,9999,9999,9999,2781978684
47,21,5,ISIP_5,99,9999,9999,9999,2782478392
47,21,5,ISIP_5,100,9999,9999,9999,2782978096
47,21,5,ISIP_5,101,9999,9999,9999,2783478836
47,21,5,ISIP_5,102,9999,9999,9999,2783978600
47,21,5,ISIP_5,103,9999,9999,9999,2784478292
47,21,5,ISIP_5,104,9999,9999,9999,2784979028
47,21,5,ISIP_5,105,9999,9999,9999,2785478720
47,21,5,ISIP_5,106,9999,9999,9999,2785978484
47,21,5,ISIP_5,107,9999,9999,9999,2786478176
47,21,5,ISIP_5,108,9999,9999,9999,2786978916
47,21,5,ISIP_5,109,9999,9999,9999,2787478608
47,21,5,ISIP_5,110,9999,9999,9999,2787978296
47,21,5,ISIP_5,111,9999,9999,9999,2788479036
47,21,5,ISIP_5,112,9999,9999,9999,2788978800
47,21,5,ISIP_5,113,9999,9999,9999,2789478492
47,21,5,ISIP_5,114,9999,9999,9999,2789978180
47,21,5,ISIP_5,115,9999,9999,9999,2790478920
47,21,5,ISIP_5,116,9999,9999,9999,2790978608
47,21,5,ISIP_5,117,9999,9999,9999,2791478376
47,21,5,ISIP_5,118,9999,9999,9999,2791979112
47,21,5,ISIP_5,119,9999,9999,9999,2792478804
47,21,5,ISIP_5,120,9999,9999,9999,2792978496
47,21,5,ISIP_5,121,9999,9999,9999,2793478260
47,21,5,ISIP_5,122,9999,9999,9999,2793978972
47,21,5,ISIP_5,123,9999,9999,9999,2794478656
47,21,5,ISIP_5,124,9999,9999,9999,2794978420
47,21,5,ISIP_5,125,9999,9999,9999,2795478112
47,21,5,ISIP_5,126,9999,9999,9999,2795978848
47,21,5,ISIP_5,127,9999,9999,9999,2796478540
47,21,5,ISIP_5,128,9999,9999,9999,2796978288
47,21,5,ISIP_5,129,9999,9999,9999,2797479028
47,21,5,ISIP_5,130,9999,9999,9999,2797978716
47,21,5,ISIP_5,131,9999,9999,9999,2798478408
47,21,5,ISIP_5,132,9999,9999,9999,2798978100
47,21,5,ISIP_5,133,9999,9999,9999,2799478836
47,21,5,ISIP_5,134,9999,9999,9999,2799978600
47,21,5,ISIP_5,135,9999,9999,9999,2800478292
47,21,5,ISIP_5,136,9999,9999,9999,2800979032
47,21,5,ISIP_5,137,9999,9999,9999,2801478720
47,21,5,ISIP_5,138,9999,9999,9999,2801978488
47,21,5,ISIP_5,139,9999,9999,9999,2802478176
47,21,5,ISIP_5,140,9999,9999,9999,2802978912
47,21,5,ISIP_5,141,9999,9999,9999,2803478604
47,21,5,ISIP_5,142,9999,9999,9999,2803978296
47,21,5,ISIP_5,143,9999,9999,9999,2804479080
47,21,5,ISIP_5,144,9999,9999,9999,2804978772
47,21,5,ISIP_5,145,9999,9999,9999,2805478464
47,21,5,ISIP_5,146,9999,9999,9999,2805978228
47,21,5,ISIP_5,147,9999,9999,9999,2806478964
47,21,5,ISIP_5,148,9999,9999,9999,2806978648
47,21,5,ISIP_5,149,9999,9999,9999,2807478348
47,21,5,ISIP_5,150,9999,9999,9999,2807979080
47,21,5,ISIP_5,151,9999,9999,9999,2808478768
47,21,5,ISIP_5,152,9999,9999,9999,2808978536
47,21,5,ISIP_5,153,9999,9999,9999,2809478224
47,21,5,ISIP_5,154,9999,9999,9999,2809978980
47,21,5,ISIP_5,155,9999,9999,9999,2810478640
47,21,5,ISIP_5,156,9999,9999,9999,2810978404
47,21,5,ISIP_5,157,9999,9999,9999,2811478096
47,21,5,ISIP_5,158,9999,9999,9999,2811978832
47,21,5,ISIP_5,159,9999,9999,9999,2812478524
47,22,11,Pattern_Practice,0,5,42,127,2901007904
47,22,11,Pattern_Practice,1,5,42,127,2901507400
47,22,11,Pattern_Practice,2,5,42,127,2902008284
47,22,11,Pattern_Practice,3,5,42,127,2902507780
47,22,11,Pattern_Practice,4,1,38,45,2902938868
47,22,11,Pattern_Practice,5,5,42,127,2903007712
47,22,11,Pattern_Practice,6,5,42,127,2903508240
47,22,11,Pattern_Practice,7,1,48,46,2903556264
47,22,11,Pattern_Practice,8,1,38,51,2903583616
47,22,11,Pattern_Practice,9,5,42,127,2904008108
47,22,11,Pattern_Practice,10,5,42,127,2904508052
47,22,11,Pattern_Practice,11,1,38,49,2904928140
47,22,11,Pattern_Practice,12,5,42,127,2905007612
47,22,11,Pattern_Practice,13,1,38,46,2905189436
47,22,11,Pattern_Practice,14,1,38,55,2905443224
47,22,11,Pattern_Practice,15,1,48,53,2905458464
47,22,11,Pattern_Practice,16,5,42,127,2905508164
47,22,11,Pattern_Practice,17,1,38,42,2905691756
47,22,11,Pattern_Practice,18,1,38,27,2905947416
47,22,11,Pattern_Practice,19,5,42,127,2906007884
47,22,11,Pattern_Practice,20,1,38,23,2906186116
47,22,11,Pattern_Practice,21,1,38,59,2906464444
47,22,11,Pattern_Practice,22,1,48,54,2906488280
47,22,11,Pattern_Practice,23,5,42,127,2906507612
47,22,11,Pattern_Practice,24,1,38,48,2906731216
47,22,11,Pattern_Practice,25,1,38,36,2906982468
47,22,11,Pattern_Practice,26,5,42,127,2907008304
47,22,11,Pattern_Practice,27,1,38,46,2907234104
47,22,11,Pattern_Practice,28,1,38,63,2907503528
47,22,11,Pattern_Practice,29,5,42,127,2907508052
47,22,11,Pattern_Practice,30,1,48,58,2907527180
47,22,11,Pattern_Practice,31,1,38,49,2907763212
47,22,11,Pattern_Practice,32,5,42,127,2908007768
47,22,11,Pattern_Practice,33,1,38,46,2908012160
47,22,11,Pattern_Practice,34,1,38,46,2908255032
47,22,11,Pattern_Practice,35,1,38,71,2908507296
47,22,11,Pattern_Practice,36,5,42,127,2908509828
47,22,11,Pattern_Practice,37,1,48,58,2908537184
47,22,11,Pattern_Practice,38,1,38,49,2908775840
47,22,11,Pattern_Practice,39,5,42,127,2909008204
47,22,11,Pattern_Practice,40,1,38,44,2909018800
47,22,11,Pattern_Practice,41,1,38,60,2909251876
47,22,11,Pattern_Practice,42,1,38,77,2909500128
47,22,11,Pattern_Practice,43,5,42,127,2909507944
47,22,11,Pattern_Practice,44,1,48,56,2909518392
47,22,11,Pattern_Practice,45,1,38,48,2909759668
47,22,11,Pattern_Practice,46,5,42,127,2910007592
47,22,11,Pattern_Practice,47,1,38,45,2910010184
47,22,11,Pattern_Practice,48,1,38,55,2910256424
47,22,11,Pattern_Practice,49,1,38,92,2910501684
47,22,11,Pattern_Practice,50,5,42,127,2910508376
47,22,11,Pattern_Practice,51,1,48,54,2910539920
47,22,11,Pattern_Practice,52,1,38,44,2910777528
47,22,11,Pattern_Practice,53,5,42,127,2911008244
47,22,11,Pattern_Practice,54,1,38,53,2911009656
47,22,11,Pattern_Practice,55,1,38,53,2911249824
47,22,11,Pattern_Practice,56,1,48,67,2911502572
47,22,11,Pattern_Practice,57,5,42,127,2911507912
47,22,11,Pattern_Practice,58,1,38,81,2911519704
47,22,11,Pattern_Practice,59,1,38,57,2911785740
47,22,11,Pattern_Practice,60,5,42,127,2912007632
47,22,11,Pattern_Practice,61,1,38,52,2912029976
47,22,11,Pattern_Practice,62,1,38,55,2912275388
47,22,11,Pattern_Practice,63,5,42,127,2912508576
47,22,11,Pattern_Practice,64,1,38,93,2912519404
47,22,11,Pattern_Practice,65,1,48,58,2912538228
47,22,11,Pattern_Practice,66,1,38,62,2912771500
47,22,11,Pattern_Practice,67,5,42,127,2913008104
47,22,11,Pattern_Practice,68,1,38,56,2913012948
47,22,11,Pattern_Practice,69,1,38,63,2913256336
47,22,11,Pattern_Practice,70,5,42,127,2913507700
47,22,11,Pattern_Practice,71,1,48,64,2913512472
47,22,11,Pattern_Practice,72,1,38,70,2913515664
47,22,11,Pattern_Practice,73,1,48,20,2913782144
47,22,11,Pattern_Practice,74,5,42,127,2914008524
47,22,11,Pattern_Practice,75,1,48,42,2914014564
47,22,11,Pattern_Practice,76,1,48,45,2914247932
47,22,11,Pattern_Practice,77,1,48,73,2914477116
47,22,11,Pattern_Practice,78,1,38,89,2914482556
47,22,11,Pattern_Practice,79,5,42,127,2914508244
47,22,11,Pattern_Practice,80,1,48,51,2914706268
47,22,11,Pattern_Practice,81,1,48,56,2914965744
47,22,11,Pattern_Practice,82,5,42,127,2915007812
47,22,11,Pattern_Practice,83,1,48,59,2915213352
47,22,11,Pattern_Practice,84,1,48,67,2915449936
47,22,11,Pattern_Practice,85,1,38,81,2915467420
47,22,11,Pattern_Practice,86,5,42,127,2915507692
47,22,11,Pattern_Practice,87,1,38,70,2915726440
47,22,11,Pattern_Practice,88,1,38,69,2915973868
47,22,11,Pattern_Practice,89,5,42,127,2916008456
47,22,11,Pattern_Practice,90,1,38,68,2916216088
47,22,11,Pattern_Practice,91,1,38,95,2916449756
47,22,11,Pattern_Practice,92,1,48,65,2916455120
47,22,11,Pattern_Practice,93,5,42,127,2916508112
47,22,11,Pattern_Practice,94,1,38,69,2916687436
47,22,11,Pattern_Practice,95,1,38,61,2916945492
47,22,11,Pattern_Practice,96,5,42,127,2917007684
47,22,11,Pattern_Practice,97,1,38,67,2917187708
47,22,11,Pattern_Practice,98,1,38,97,2917433944
47,22,11,Pattern_Practice,99,1,48,67,2917438860
47,22,11,Pattern_Practice,100,5,42,127,2917507336
47,22,11,Pattern_Practice,101,1,38,68,2917693168
47,22,11,Pattern_Practice,102,1,38,63,2917931848
47,22,11,Pattern_Practice,103,5,42,127,2918008100
47,22,11,Pattern_Practice,104,1,38,63,2918195608
47,22,11,Pattern_Practice,105,1,38,92,2918446332
47,22,11,Pattern_Practice,106,1,48,59,2918449532
47,22,11,Pattern_Practice,107,5,42,127,2918507832
47,22,11,Pattern_Practice,108,1,38,59,2918712884
47,22,11,Pattern_Practice,109,1,38,57,2918955828
47,22,11,Pattern_Practice,110,5,42,127,2919007700
47,22,11,Pattern_Practice,111,1,38,67,2919213680
47,22,11,Pattern_Practice,112,1,48,57,2919455576
47,22,11,Pattern_Practice,113,1,38,89,2919456232
47,22,11,Pattern_Practice,114,5,42,127,2919508324
47,22,11,Pattern_Practice,115,1,38,60,2919721384
47,22,11,Pattern_Practice,116,1,38,60,2919975400
47,22,11,Pattern_Practice,117,5,42,127,2920008044
47,22,11,Pattern_Practice,118,1,38,65,2920225024
47,22,11,Pattern_Practice,119,1,38,77,2920466848
47,22,11,Pattern_Practice,120,1,48,62,2920475656
47,22,11,Pattern_Practice,121,5,42,127,2920507700
47,22,11,Pattern_Practice,122,1,38,63,2920728236
47,22,11,Pattern_Practice,123,1,38,58,2920992204
47,22,11,Pattern_Practice,124,5,42,127,2921007420
47,22,11,Pattern_Practice,125,1,38,64,2921256556
47,22,11,Pattern_Practice,126,1,38,101,2921495016
47,22,11,Pattern_Practice,127,1,48,62,2921497620
47,22,11,Pattern_Practice,128,5,42,127,2921508272
47,22,11,Pattern_Practice,129,1,38,65,2921748108
47,22,11,Pattern_Practice,130,1,38,57,2922007472
47,22,11,Pattern_Practice,131,5,42,127,2922010232
47,22,11,Pattern_Practice,132,1,38,64,2922246656
47,22,11,Pattern_Practice,133,1,48,63,2922474172
47,22,11,Pattern_Practice,134,1,38,86,2922483952
47,22,11,Pattern_Practice,135,5,42,127,2922507792
47,22,11,Pattern_Practice,136,1,38,55,2922772460
47,22,11,Pattern_Practice,137,1,38,62,2922988904
47,22,11,Pattern_Practice,138,5,42,127,2923008484
47,22,11,Pattern_Practice,139,1,38,70,2923241744
47,22,11,Pattern_Practice,140,1,38,85,2923482068
47,22,11,Pattern_Practice,141,1,48,55,2923485344
47,22,11,Pattern_Practice,142,5,42,127,2923508408
47,22,11,Pattern_Practice,143,1,38,50,2923759540
47,22,11,Pattern_Practice,144,5,42,127,2924007988
47,22,11,Pattern_Practice,145,1,38,58,2924017092
47,22,11,Pattern_Practice,146,1,38,69,2924258840
47,22,11,Pattern_Practice,147,1,38,82,2924506836
47,22,11,Pattern_Practice,148,5,42,127,2924509376
47,22,11,Pattern_Practice,149,1,48,64,2924510416
47,22,11,Pattern_Practice,150,1,38,65,2924777552
47,22,11,Pattern_Practice,151,5,42,127,2925008420
47,22,11,Pattern_Practice,152,1,38,59,2925029336
47,22,11,Pattern_Practice,153,1,38,65,2925287392
47,22,11,Pattern_Practice,154,5,42,127,2925508092
47,22,11,Pattern_Practice,155,1,38,81,2925519736
47,22,11,Pattern_Practice,156,1,48,50,2925536772
47,22,11,Pattern_Practice,157,1,38,65,2925779316
47,22,11,Pattern_Practice,158,5,42,127,2926007716
47,22,11,Pattern_Practice,159,1,38,61,2926026920
47,22,11,Pattern_Practice,160,1,38,64,2926277416
47,22,11,Pattern_Practice,161,5,42,127,2926508288
47,22,11,Pattern_Practice,162,1,38,93,2926517688
47,22,11,Pattern_Practice,163,1,48,56,2926526648
47,22,11,Pattern_Practice,164,1,38,68,2926771436
47,22,11,Pattern_Practice,165,5,42,127,2927008284
47,22,11,Pattern_Practice,166,1,38,59,2927009620
47,22,11,Pattern_Practice,167,1,38,66,2927265644
47,22,11,Pattern_Practice,168,5,42,127,2927507956
47,22,11,Pattern_Practice,169,1,48,55,2927514144
47,22,11,Pattern_Practice,170,1,38,76,2927517560
47,22,11,Pattern_Practice,171,1,38,70,2927782324
47,22,11,Pattern_Practice,172,5,42,127,2928007732
47,22,11,Pattern_Practice,173,1,38,63,2928015640
47,22,11,Pattern_Practice,174,1,38,63,2928258660
47,22,11,Pattern_Practice,175,1,38,89,2928500632
47,22,11,Pattern_Practice,176,1,48,65,2928505552
47,22,11,Pattern_Practice,177,5,42,127,2928508276
47,22,11,Pattern_Practice,178,1,38,72,2928740256
47,22,11,Pattern_Practice,179,1,38,57,2928993308
47,22,11,Pattern_Practice,180,5,42,127,2929008072
47,22,11,Pattern_Practice,181,1,38,62,2929248384
47,22,11,Pattern_Practice,182,1,38,84,2929483252
47,22,11,Pattern_Practice,183,1,48,56,2929496472
47,22,11,Pattern_Practice,184,5,42,127,2929507648
47,22,11,Pattern_Practice,185,1,38,73,2929739632
47,22,11,Pattern_Practice,186,1,38,51,2929991552
47,22,11,Pattern_Practice,187,5,42,127,2930008344
47,22,11,Pattern_Practice,188,1,38,57,2930243796
47,22,11,Pattern_Practice,189,1,38,82,2930472156
47,22,11,Pattern_Practice,190,1,48,62,2930498688
47,22,11,Pattern_Practice,191,5,42,127,2930508296
47,22,11,Pattern_Practice,192,1,38,67,2930759348
47,22,11,Pattern_Practice,193,1,38,54,2930998104
47,22,11,Pattern_Practice,194,5,42,127,2931007940
47,22,11,Pattern_Practice,195,1,38,60,2931242048
47,22,11,Pattern_Practice,196,1,38,78,2931477432
47,22,11,Pattern_Practice,197,1,48,48,2931497388
47,22,11,Pattern_Practice,198,5,42,127,2931507444
47,22,11,Pattern_Practice,199,1,38,61,2931746908
47,22,11,Pattern_Practice,200,1,38,63,2931977056
47,22,11,Pattern_Practice,201,5,42,127,2932008284
47,22,11,Pattern_Practice,202,1,38,65,2932223392
47,22,11,Pattern_Practice,203,1,38,84,2932475832
47,22,11,Pattern_Practice,204,1,48,50,2932488608
47,22,11,Pattern_Practice,205,5,42,127,2932507936
47,22,11,Pattern_Practice,206,1,38,61,2932731840
47,22,11,Pattern_Practice,207,1,38,64,2932996256
47,22,11,Pattern_Practice,208,5,42,127,2933007584
47,22,11,Pattern_Practice,209,1,38,73,2933249468
47,22,11,Pattern_Practice,210,1,38,92,2933487224
47,22,11,Pattern_Practice,211,1,48,51,2933491544
47,22,11,Pattern_Practice,212,5,42,127,2933507384
47,22,11,Pattern_Practice,213,1,38,67,2933730744
47,22,11,Pattern_Practice,214,1,38,61,2933983340
47,22,11,Pattern_Practice,215,5,42,127,2934008204
47,22,11,Pattern_Practice,216,1,38,59,2934251860
47,22,11,Pattern_Practice,217,1,38,87,2934502280
47,22,11,Pattern_Practice,218,1,48,55,2934506472
47,22,11,Pattern_Practice,219,5,42,127,2934508656
47,22,11,Pattern_Practice,220,1,38,71,2934776840
47,22,11,Pattern_Practice,221,5,42,127,2935007556
47,22,11,Pattern_Practice,222,1,38,55,2935025412
47,22,11,Pattern_Practice,223,1,38,63,2935303316
47,22,11,Pattern_Practice,224,5,42,127,2935508204
47,22,11,Pattern_Practice,225,1,38,87,2935548744
47,22,11,Pattern_Practice,226,1,48,54,2935560472
47,22,11,Pattern_Practice,227,1,38,61,2935818792
47,22,11,Pattern_Practice,228,5,42,127,2936007976
47,22,11,Pattern_Practice,229,1,38,57,2936081508
47,22,11,Pattern_Practice,230,1,38,61,2936334176
47,22,11,Pattern_Practice,231,5,42,127,2936507948
47,22,11,Pattern_Practice,232,1,48,55,2936596284
47,22,11,Pattern_Practice,233,1,38,74,2936599560
47,22,11,Pattern_Practice,234,1,38,61,2936867984
47,22,11,Pattern_Practice,235,5,42,127,2937007428
47,22,11,Pattern_Practice,236,1,38,54,2937115740
47,22,11,Pattern_Practice,237,1,38,64,2937358980
47,22,11,Pattern_Practice,238,5,42,127,2937508220
47,22,11,Pattern_Practice,239,1,38,79,2937610920
47,22,11,Pattern_Practice,240,1,48,53,2937620324
47,22,11,Pattern_Practice,241,1,38,54,2937879852
47,22,11,Pattern_Practice,242,5,42,127,2938007996
47,22,11,Pattern_Practice,243,1,38,49,2938131044
47,22,11,Pattern_Practice,244,1,38,56,2938396128
47,22,11,Pattern_Practice,245,5,42,127,2938507748
47,22,11,Pattern_Practice,246,1,38,70,2938644404
47,22,11,Pattern_Practice,247,1,48,51,2938667944
47,22,11,Pattern_Practice,248,1,38,58,2938939064
47,22,11,Pattern_Practice,249,5,42,127,2939008212
47,22,11,Pattern_Practice,250,1,38,51,2939195940
47,22,11,Pattern_Practice,251,1,38,49,2939446964
47,22,11,Pattern_Practice,252,5,42,127,2939508184
47,22,11,Pattern_Practice,253,1,38,79,2939697264
47,22,11,Pattern_Practice,254,1,48,44,2939700460
47,22,11,Pattern_Practice,255,1,48,34,2939980324
47,22,11,Pattern_Practice,256,5,42,127,2940007736
47,22,11,Pattern_Practice,257,5,42,127,2940507364
47,22,11,Pattern_Practice,258,1,48,29,2940519080
47,22,11,Pattern_Practice,259,1,48,40,2940764944
47,22,11,Pattern_Practice,0,9999,9999,9999,2901005396
47,22,11,Pattern_Practice,1,9999,9999,9999,2901505112
47,22,11,Pattern_Practice,2,9999,9999,9999,2902005848
47,22,11,Pattern_Practice,3,9999,9999,9999,2902505568
47,22,11,Pattern_Practice,4,9999,9999,9999,2903005276
47,22,11,Pattern_Practice,5,9999,9999,9999,2903506028
47,22,11,Pattern_Practice,6,9999,9999,9999,2904005748
47,22,11,Pattern_Practice,7,9999,9999,9999,2904505464
47,22,11,Pattern_Practice,8,9999,9999,9999,2905005176
47,22,11,Pattern_Practice,9,9999,9999,9999,2905505880
47,22,11,Pattern_Practice,10,9999,9999,9999,2906005596
47,22,11,Pattern_Practice,11,9999,9999,9999,2906505328
47,22,11,Pattern_Practice,12,9999,9999,9999,2907006016
47,22,11,Pattern_Practice,13,9999,9999,9999,2907505764
47,22,11,Pattern_Practice,14,9999,9999,9999,2908005484
47,22,11,Pattern_Practice,15,9999,9999,9999,2908505156
47,22,11,Pattern_Practice,16,9999,9999,9999,2909005916
47,22,11,Pattern_Practice,17,9999,9999,9999,2909505656
47,22,11,Pattern_Practice,18,9999,9999,9999,2910005304
47,22,11,Pattern_Practice,19,9999,9999,9999,2910506092
47,22,11,Pattern_Practice,20,9999,9999,9999,2911005812
47,22,11,Pattern_Practice,21,9999,9999,9999,2911505480
47,22,11,Pattern_Practice,22,9999,9999,9999,2912005196
47,22,11,Pattern_Practice,23,9999,9999,9999,2912505968
47,22,11,Pattern_Practice,24,9999,9999,9999,2913005668
47,22,11,Pattern_Practice,25,9999,9999,9999,2913505340
47,22,11,Pattern_Practice,26,9999,9999,9999,2914006088
47,22,11,Pattern_Practice,27,9999,9999,9999,2914505808
47,22,11,Pattern_Practice,28,9999,9999,9999,2915005528
47,22,11,Pattern_Practice,29,9999,9999,9999,2915505260
47,22,11,Pattern_Practice,30,9999,9999,9999,2916005948
47,22,11,Pattern_Practice,31,9999,9999,9999,2916505676
47,22,11,Pattern_Practice,32,9999,9999,9999,2917005396
47,22,11,Pattern_Practice,33,9999,9999,9999,2917505124
47,22,11,Pattern_Practice,34,9999,9999,9999,2918005816
47,22,11,Pattern_Practice,35,9999,9999,9999,2918505544
47,22,11,Pattern_Practice,36,9999,9999,9999,2919005264
47,22,11,Pattern_Practice,37,9999,9999,9999,2919506040
47,22,11,Pattern_Practice,38,9999,9999,9999,2920005684
47,22,11,Pattern_Practice,39,9999,9999,9999,2920505416
47,22,11,Pattern_Practice,40,9999,9999,9999,2921005136
47,22,11,Pattern_Practice,41,9999,9999,9999,2921505908
47,22,11,Pattern_Practice,42,9999,9999,9999,2922005560
47,22,11,Pattern_Practice,43,9999,9999,9999,2922505284
47,22,11,Pattern_Practice,44,9999,9999,9999,2923006048
47,22,11,Pattern_Practice,45,9999,9999,9999,2923505752
47,22,11,Pattern_Practice,46,9999,9999,9999,2924005476
47,22,11,Pattern_Practice,47,9999,9999,9999,2924505152
47,22,11,Pattern_Practice,48,9999,9999,9999,2925005908
47,22,11,Pattern_Practice,49,9999,9999,9999,2925505656
47,22,11,Pattern_Practice,50,9999,9999,9999,2926005356
47,22,11,Pattern_Practice,51,9999,9999,9999,2926506076
47,22,11,Pattern_Practice,52,9999,9999,9999,2927005776
47,22,11,Pattern_Practice,53,9999,9999,9999,2927505520
47,22,11,Pattern_Practice,54,9999,9999,9999,2928005220
47,22,11,Pattern_Practice,55,9999,9999,9999,2928505916
47,22,11,Pattern_Practice,56,9999,9999,9999,2929005636
47,22,11,Pattern_Practice,57,9999,9999,9999,2929505364
47,22,11,Pattern_Practice,58,9999,9999,9999,2930006132
47,22,11,Pattern_Practice,59,9999,9999,9999,2930505784
47,22,11,Pattern_Practice,60,9999,9999,9999,2931005504
47,22,11,Pattern_Practice,61,9999,9999,9999,2931505232
47,22,11,Pattern_Practice,62,9999,9999,9999,2932005996
47,22,11,Pattern_Practice,63,9999,9999,9999,2932505652
47,22,11,Pattern_Practice,64,9999,9999,9999,2933005372
47,22,11,Pattern_Practice,65,9999,9999,9999,2933505100
47,22,11,Pattern_Practice,66,9999,9999,9999,2934005840
47,22,11,Pattern_Practice,67,9999,9999,9999,2934505564
47,22,11,Pattern_Practice,68,9999,9999,9999,2935005272
47,22,11,Pattern_Practice,69,9999,9999,9999,2935505992
47,22,11,Pattern_Practice,70,9999,9999,9999,2936005688
47,22,11,Pattern_Practice,71,9999,9999,9999,2936505436
47,22,11,Pattern_Practice,72,9999,9999,9999,2937005140
47,22,11,Pattern_Practice,73,9999,9999,9999,2937505860
47,22,11,Pattern_Practice,74,9999,9999,9999,2938005560
47,22,11,Pattern_Practice,75,9999,9999,9999,2938505312
47,22,11,Pattern_Practice,76,9999,9999,9999,2939006000
47,22,11,Pattern_Practice,77,9999,9999,9999,2939505748
47,22,11,Pattern_Practice,78,9999,9999,9999,2940005448
47,22,11,Pattern_Practice,79,9999,9999,9999,2940505148
47,23,13,Improv_Metronome,0,5,42,127,2965312872
47,23,13,Improv_Metronome,1,5,42,127,2965812512
47,23,13,Improv_Metronome,2,5,42,127,2966313348
47,23,13,Improv_Metronome,3,1,38,51,2966758996
47,23,13,Improv_Metronome,4,5,42,127,2966813280
47,23,13,Improv_Metronome,5,1,38,26,2967036540
47,23,13,Improv_Metronome,6,1,38,37,2967261440
47,23,13,Improv_Metronome,7,5,42,127,2967312656
47,23,13,Improv_Metronome,8,1,38,43,2967527736
47,23,13,Improv_Metronome,9,1,48,45,2967775320
47,23,13,Improv_Metronome,10,1,38,48,2967778664
47,23,13,Improv_Metronome,11,5,42,127,2967812312
47,23,13,Improv_Metronome,12,1,38,43,2968017188
47,23,13,Improv_Metronome,13,1,38,42,2968252656
47,23,13,Improv_Metronome,14,5,42,127,2968313224
47,23,13,Improv_Metronome,15,1,38,44,2968509680
47,23,13,Improv_Metronome,16,1,38,54,2968766384
47,23,13,Improv_Metronome,17,1,48,54,2968781772
47,23,13,Improv_Metronome,18,5,42,127,2968813076
47,23,13,Improv_Metronome,19,1,38,46,2969014540
47,23,13,Improv_Metronome,20,1,38,33,2969272520
47,23,13,Improv_Metronome,21,5,42,127,2969312572
47,23,13,Improv_Metronome,22,1,38,39,2969529244
47,23,13,Improv_Metronome,23,1,38,59,2969798148
47,23,13,Improv_Metronome,24,5,42,127,2969813292
47,23,13,Improv_Metronome,25,1,48,55,2969826280
47,23,13,Improv_Metronome,26,1,38,29,2970049604
47,23,13,Improv_Metronome,27,1,38,35,2970301224
47,23,13,Improv_Metronome,28,5,42,127,2970313228
47,23,13,Improv_Metronome,29,1,38,46,2970550024
47,23,13,Improv_Metronome,30,5,42,127,2970812908
47,23,13,Improv_Metronome,31,1,38,49,2970816024
47,23,13,Improv_Metronome,32,1,48,70,2970824836
47,23,13,Improv_Metronome,33,1,38,36,2971069768
47,23,13,Improv_Metronome,34,5,42,127,2971312460
47,23,13,Improv_Metronome,35,1,38,38,2971322832
47,23,13,Improv_Metronome,36,1,38,43,2971593976
47,23,13,Improv_Metronome,37,5,42,127,2971813324
47,23,13,Improv_Metronome,38,1,48,65,2971845536
47,23,13,Improv_Metronome,39,1,38,57,2971849408
47,23,13,Improv_Metronome,40,1,38,30,2972095548
47,23,13,Improv_Metronome,41,5,42,127,2972313024
47,23,13,Improv_Metronome,42,1,38,35,2972350024
47,23,13,Improv_Metronome,43,1,38,54,2972591024
47,23,13,Improv_Metronome,44,5,42,127,2972812624
47,23,13,Improv_Metronome,45,1,38,69,2972842072
47,23,13,Improv_Metronome,46,1,48,57,2972848632
47,23,13,Improv_Metronome,47,1,38,46,2973091028
47,23,13,Improv_Metronome,48,5,42,127,2973313296
47,23,13,Improv_Metronome,49,1,38,43,2973339372
47,23,13,Improv_Metronome,50,1,38,55,2973583216
47,23,13,Improv_Metronome,51,5,42,127,2973813120
47,23,13,Improv_Metronome,52,1,48,62,2973833888
47,23,13,Improv_Metronome,53,1,38,59,2973837084
47,23,13,Improv_Metronome,54,1,38,24,2974103412
47,23,13,Improv_Metronome,55,5,42,127,2974312968
47,23,13,Improv_Metronome,56,1,38,40,2974337032
47,23,13,Improv_Metronome,57,1,38,53,2974586184
47,23,13,Improv_Metronome,58,5,42,127,2974812640
47,23,13,Improv_Metronome,59,1,38,64,2974825932
47,23,13,Improv_Metronome,60,1,48,62,2974829652
47,23,13,Improv_Metronome,61,1,38,49,2975086932
47,23,13,Improv_Metronome,62,5,42,127,2975313164
47,23,13,Improv_Metronome,63,1,38,47,2975327652
47,23,13,Improv_Metronome,64,1,38,51,2975572840
47,23,13,Improv_Metronome,65,5,42,127,2975812912
47,23,13,Improv_Metronome,66,1,38,67,2975824704
47,23,13,Improv_Metronome,67,1,48,65,2975829472
47,23,13,Improv_Metronome,68,1,38,52,2976082712
47,23,13,Improv_Metronome,69,5,42,127,2976312908
47,23,13,Improv_Metronome,70,1,38,51,2976320140
47,23,13,Improv_Metronome,71,1,38,54,2976563536
47,23,13,Improv_Metronome,72,1,38,68,2976800276
47,23,13,Improv_Metronome,73,1,48,66,2976804592
47,23,13,Improv_Metronome,74,5,42,127,2976813456
47,23,13,Improv_Metronome,75,1,38,57,2977062864
47,23,13,Improv_Metronome,76,1,38,52,2977312656
47,23,13,Improv_Metronome,77,5,42,127,2977315268
47,23,13,Improv_Metronome,78,1,38,56,2977552964
47,23,13,Improv_Metronome,79,1,48,59,2977793520
47,23,13,Improv_Metronome,80,1,38,72,2977797984
47,23,13,Improv_Metronome,81,5,42,127,2977813052
47,23,13,Improv_Metronome,82,1,38,50,2978045560
47,23,13,Improv_Metronome,83,1,38,52,2978286984
47,23,13,Improv_Metronome,84,5,42,127,2978312476
47,23,13,Improv_Metronome,85,1,38,54,2978539000
47,23,13,Improv_Metronome,86,1,48,58,2978779552
47,23,13,Improv_Metronome,87,1,38,65,2978782748
47,23,13,Improv_Metronome,88,5,42,127,2978813176
47,23,13,Improv_Metronome,89,1,38,56,2979027480
47,23,13,Improv_Metronome,90,1,38,44,2979289276
47,23,13,Improv_Metronome,91,5,42,127,2979312948
47,23,13,Improv_Metronome,92,1,38,57,2979505984
47,23,13,Improv_Metronome,93,1,38,68,2979761500
47,23,13,Improv_Metronome,94,1,48,59,2979764696
47,23,13,Improv_Metronome,95,5,42,127,2979812824
47,23,13,Improv_Metronome,96,1,38,61,2979995436
47,23,13,Improv_Metronome,97,1,38,50,2980249980
47,23,13,Improv_Metronome,98,5,42,127,2980312320
47,23,13,Improv_Metronome,99,1,38,57,2980510368
47,23,13,Improv_Metronome,100,1,38,75,2980751820
47,23,13,Improv_Metronome,101,1,48,53,2980765484
47,23,13,Improv_Metronome,102,5,42,127,2980813020
47,23,13,Improv_Metronome,103,1,38,61,2981016440
47,23,13,Improv_Metronome,104,1,38,51,2981274492
47,23,13,Improv_Metronome,105,5,42,127,2981312976
47,23,13,Improv_Metronome,106,1,38,55,2981530000
47,23,13,Improv_Metronome,107,1,38,70,2981768240
47,23,13,Improv_Metronome,108,1,48,58,2981774048
47,23,13,Improv_Metronome,109,5,42,127,2981812532
47,23,13,Improv_Metronome,110,1,38,60,2982030000
47,23,13,Improv_Metronome,111,1,38,55,2982289928
47,23,13,Improv_Metronome,112,5,42,127,2982313744
47,23,13,Improv_Metronome,113,1,38,61,2982540448
47,23,13,Improv_Metronome,114,1,38,74,2982786532
47,23,13,Improv_Metronome,115,1,48,57,2982789804
47,23,13,Improv_Metronome,116,5,42,127,2982813028
47,23,13,Improv_Metronome,117,1,38,59,2983039840
47,23,13,Improv_Metronome,118,1,38,59,2983289900
47,23,13,Improv_Metronome,119,5,42,127,2983312748
47,23,13,Improv_Metronome,120,1,38,59,2983532416
47,23,13,Improv_Metronome,121,1,38,68,2983791516
47,23,13,Improv_Metronome,122,1,48,57,2983797860
47,23,13,Improv_Metronome,123,5,42,127,2983812476
47,23,13,Improv_Metronome,124,1,38,59,2984039820
47,23,13,Improv_Metronome,125,1,38,56,2984286728
47,23,13,Improv_Metronome,126,5,42,127,2984313244
47,23,13,Improv_Metronome,127,1,38,65,2984531044
47,23,13,Improv_Metronome,128,1,48,77,2984773388
47,23,13,Improv_Metronome,129,5,42,127,2984812992
47,23,13,Improv_Metronome,130,1,48,55,2985021360
47,23,13,Improv_Metronome,131,1,48,58,2985272312
47,23,13,Improv_Metronome,132,5,42,127,2985312740
47,23,13,Improv_Metronome,133,1,48,62,2985529564
47,23,13,Improv_Metronome,134,1,48,70,2985755760
47,23,13,Improv_Metronome,135,1,38,71,2985765684
47,23,13,Improv_Metronome,136,5,42,127,2985813216
47,23,13,Improv_Metronome,137,1,48,51,2986031736
47,23,13,Improv_Metronome,138,1,38,27,2986035076
47,23,13,Improv_Metronome,139,1,48,55,2986244788
47,23,13,Improv_Metronome,140,5,42,127,2986313040
47,23,13,Improv_Metronome,141,1,48,64,2986472476
47,23,13,Improv_Metronome,142,1,48,69,2986705840
47,23,13,Improv_Metronome,143,1,38,62,2986722580
47,23,13,Improv_Metronome,144,5,42,127,2986812828
47,23,13,Improv_Metronome,145,1,38,51,2986996116
47,23,13,Improv_Metronome,146,5,42,127,2987312656
47,23,13,Improv_Metronome,147,1,48,56,2987502772
47,23,13,Improv_Metronome,148,1,48,59,2987756932
47,23,13,Improv_Metronome,149,5,42,127,2987813164
47,23,13,Improv_Metronome,150,1,48,62,2988010216
47,23,13,Improv_Metronome,151,1,48,74,2988251892
47,23,13,Improv_Metronome,152,1,38,69,2988259656
47,23,13,Improv_Metronome,153,5,42,127,2988312968
47,23,13,Improv_Metronome,154,1,48,48,2988524804
47,23,13,Improv_Metronome,155,1,48,50,2988738652
47,23,13,Improv_Metronome,156,5,42,127,2988812760
47,23,13,Improv_Metronome,157,1,48,62,2989002788
47,23,13,Improv_Metronome,158,1,48,63,2989234956
47,23,13,Improv_Metronome,159,1,38,62,2989238224
47,23,13,Improv_Metronome,160,5,42,127,2989313756
47,23,13,Improv_Metronome,161,1,48,51,2989508692
47,23,13,Improv_Metronome,162,1,48,54,2989749164
47,23,13,Improv_Metronome,163,5,42,127,2989813008
47,23,13,Improv_Metronome,164,1,48,62,2990009612
47,23,13,Improv_Metronome,165,1,48,70,2990239240
47,23,13,Improv_Metronome,166,1,38,67,2990259864
47,23,13,Improv_Metronome,167,5,42,127,2990312784
47,23,13,Improv_Metronome,168,1,38,55,2990522628
47,23,13,Improv_Metronome,169,1,38,53,2990769904
47,23,13,Improv_Metronome,170,5,42,127,2990812652
47,23,13,Improv_Metronome,171,1,38,55,2991027308
47,23,13,Improv_Metronome,172,1,38,66,2991295308
47,23,13,Improv_Metronome,173,5,42,127,2991313296
47,23,13,Improv_Metronome,174,1,38,60,2991538868
47,23,13,Improv_Metronome,175,1,48,63,2991549024
47,23,13,Improv_Metronome,176,1,38,47,2991810488
47,23,13,Improv_Metronome,177,5,42,127,2991813068
47,23,13,Improv_Metronome,178,1,38,57,2992062880
47,23,13,Improv_Metronome,179,5,42,127,2992312824
47,23,13,Improv_Metronome,180,1,38,65,2992316692
47,23,13,Improv_Metronome,181,1,48,60,2992326020
47,23,13,Improv_Metronome,182,1,38,57,2992567064
47,23,13,Improv_Metronome,183,5,42,127,2992813716
47,23,13,Improv_Metronome,184,1,38,60,2992828352
47,23,13,Improv_Metronome,185,1,38,58,2993078632
47,23,13,Improv_Metronome,186,1,48,61,2993309984
47,23,13,Improv_Metronome,187,5,42,127,2993313236
47,23,13,Improv_Metronome,188,1,38,62,2993314648
47,23,13,Improv_Metronome,189,1,38,60,2993568396
47,23,13,Improv_Metronome,190,5,42,127,2993812808
47,23,13,Improv_Metronome,191,1,38,60,2993824976
47,23,13,Improv_Metronome,192,1,38,48,2994058720
47,23,13,Improv_Metronome,193,1,48,57,2994297104
47,23,13,Improv_Metronome,194,1,38,55,2994299624
47,23,13,Improv_Metronome,195,5,42,127,2994312452
47,23,13,Improv_Metronome,196,1,38,66,2994551612
47,23,13,Improv_Metronome,197,1,48,60,2994785060
47,23,13,Improv_Metronome,198,1,38,67,2994805160
47,23,13,Improv_Metronome,199,5,42,127,2994813424
47,23,13,Improv_Metronome,200,1,38,63,2995017352
47,23,13,Improv_Metronome,201,1,38,79,2995277728
47,23,13,Improv_Metronome,202,1,48,53,2995287064
47,23,13,Improv_Metronome,203,5,42,127,2995313124
47,23,13,Improv_Metronome,204,1,38,76,2995527904
47,23,13,Improv_Metronome,205,1,38,59,2995772424
47,23,13,Improv_Metronome,206,5,42,127,2995812768
47,23,13,Improv_Metronome,207,1,38,56,2996017700
47,23,13,Improv_Metronome,208,1,48,63,2996264612
47,23,13,Improv_Metronome,209,1,38,65,2996267880
47,23,13,Improv_Metronome,210,5,42,127,2996312572
47,23,13,Improv_Metronome,211,1,38,58,2996510896
47,23,13,Improv_Metronome,212,1,38,66,2996772836
47,23,13,Improv_Metronome,213,5,42,127,2996813412
47,23,13,Improv_Metronome,214,1,38,59,2997012288
47,23,13,Improv_Metronome,215,1,38,77,2997264208
47,23,13,Improv_Metronome,216,1,48,58,2997278324
47,23,13,Improv_Metronome,217,5,42,127,2997312844
47,23,13,Improv_Metronome,218,1,38,58,2997501888
47,23,13,Improv_Metronome,219,1,38,49,2997770044
47,23,13,Improv_Metronome,220,5,42,127,2997812564
47,23,13,Improv_Metronome,221,1,38,58,2998013756
47,23,13,Improv_Metronome,222,1,38,74,2998268592
47,23,13,Improv_Metronome,223,1,48,55,2998272912
47,23,13,Improv_Metronome,224,5,42,127,2998313340
47,23,13,Improv_Metronome,225,1,38,52,2998519292
47,23,13,Improv_Metronome,226,1,38,76,2998775476
47,23,13,Improv_Metronome,227,1,48,55,2998786972
47,23,13,Improv_Metronome,228,5,42,127,2998812964
47,23,13,Improv_Metronome,229,1,38,57,2999033056
47,23,13,Improv_Metronome,230,1,38,73,2999290660
47,23,13,Improv_Metronome,231,1,48,51,2999298868
47,23,13,Improv_Metronome,232,5,42,127,2999312820
47,23,13,Improv_Metronome,233,1,38,67,2999554600
47,23,13,Improv_Metronome,234,1,38,61,2999803232
47,23,13,Improv_Metronome,235,5,42,127,2999812388
47,23,13,Improv_Metronome,236,1,38,63,3000047288
47,23,13,Improv_Metronome,237,1,38,74,3000299884
47,23,13,Improv_Metronome,238,1,48,62,3000305248
47,23,13,Improv_Metronome,239,5,42,127,3000313388
47,23,13,Improv_Metronome,240,1,38,62,3000549904
47,23,13,Improv_Metronome,241,1,38,56,3000809904
47,23,13,Improv_Metronome,242,5,42,127,3000812856
47,23,13,Improv_Metronome,243,1,38,59,3001056084
47,23,13,Improv_Metronome,244,1,48,65,3001309876
47,23,13,Improv_Metronome,245,1,38,62,3001312516
47,23,13,Improv_Metronome,246,5,42,127,3001315352
47,23,13,Improv_Metronome,247,1,38,65,3001563492
47,23,13,Improv_Metronome,248,1,38,58,3001810328
47,23,13,Improv_Metronome,249,5,42,127,3001813352
47,23,13,Improv_Metronome,250,1,38,56,3002061296
47,23,13,Improv_Metronome,251,1,48,53,3002307228
47,23,13,Improv_Metronome,252,5,42,127,3002313248
47,23,13,Improv_Metronome,253,1,38,71,3002316216
47,23,13,Improv_Metronome,254,1,38,64,3002545072
47,23,13,Improv_Metronome,255,5,42,127,3002812744
47,23,13,Improv_Metronome,256,1,38,61,3002819680
47,23,13,Improv_Metronome,257,1,48,58,3002829380
47,23,13,Improv_Metronome,258,1,38,65,3003062800
47,23,13,Improv_Metronome,259,1,48,50,3003309032
47,23,13,Improv_Metronome,260,1,38,64,3003312352
47,23,13,Improv_Metronome,261,5,42,127,3003315260
47,23,13,Improv_Metronome,262,1,38,58,3003570504
47,23,13,Improv_Metronome,263,5,42,127,3003813412
47,23,13,Improv_Metronome,264,1,38,64,3003818696
47,23,13,Improv_Metronome,265,1,38,68,3004066656
47,23,13,Improv_Metronome,266,5,42,127,3004312864
47,23,13,Improv_Metronome,267,1,38,78,3004316428
47,23,13,Improv_Metronome,268,1,48,51,3004326208
47,23,13,Improv_Metronome,269,1,38,71,3004569420
47,23,13,Improv_Metronome,270,5,42,127,3004812636
47,23,13,Improv_Metronome,271,1,38,59,3004818144
47,23,13,Improv_Metronome,272,1,38,52,3005078972
47,23,13,Improv_Metronome,273,5,42,127,3005313580
47,23,13,Improv_Metronome,274,1,38,77,3005318044
47,23,13,Improv_Metronome,275,1,48,50,3005321320
47,23,13,Improv_Metronome,276,1,38,57,3005549800
47,23,13,Improv_Metronome,277,1,38,55,3005808228
47,23,13,Improv_Metronome,278,5,42,127,3005813200
47,23,13,Improv_Metronome,279,1,38,65,3006052164
47,23,13,Improv_Metronome,280,1,48,62,3006280372
47,23,13,Improv_Metronome,281,1,38,80,3006307056
47,23,13,Improv_Metronome,282,5,42,127,3006312928
47,23,13,Improv_Metronome,283,1,38,22,3006563536
47,23,13,Improv_Metronome,284,1,48,36,3006783440
47,23,13,Improv_Metronome,285,1,38,76,3006799204
47,23,13,Improv_Metronome,286,5,42,127,3006812404
47,23,13,Improv_Metronome,287,1,48,37,3007252796
47,23,13,Improv_Metronome,288,1,38,71,3007292496
47,23,13,Improv_Metronome,289,5,42,127,3007313472
47,23,13,Improv_Metronome,290,1,38,43,3007540592
47,23,13,Improv_Metronome,291,1,38,50,3007802536
47,23,13,Improv_Metronome,292,5,42,127,3007812964
47,23,13,Improv_Metronome,293,1,38,56,3008051032
47,23,13,Improv_Metronome,294,1,38,72,3008281116
47,23,13,Improv_Metronome,295,1,48,35,3008289172
47,23,13,Improv_Metronome,296,5,42,127,3008312544
47,23,13,Improv_Metronome,297,1,38,58,3008543032
47,23,13,Improv_Metronome,298,1,38,48,3008800408
47,23,13,Improv_Metronome,299,5,42,127,3008813384
47,23,13,Improv_Metronome,300,1,38,55,3009035524
47,23,13,Improv_Metronome,301,1,48,53,3009267896
47,23,13,Improv_Metronome,302,1,38,67,3009282872
47,23,13,Improv_Metronome,303,5,42,127,3009313128
47,23,13,Improv_Metronome,304,1,38,53,3009528500
47,23,13,Improv_Metronome,305,1,38,48,3009783640
47,23,13,Improv_Metronome,306,5,42,127,3009812772
47,23,13,Improv_Metronome,307,1,38,53,3010035476
47,23,13,Improv_Metronome,308,1,48,48,3010283288
47,23,13,Improv_Metronome,309,1,38,55,3010286556
47,23,13,Improv_Metronome,310,5,42,127,3010312572
47,23,13,Improv_Metronome,311,1,38,53,3010534280
47,23,13,Improv_Metronome,312,1,38,61,3010788968
47,23,13,Improv_Metronome,313,1,48,33,3010798224
47,23,13,Improv_Metronome,314,5,42,127,3010813320
47,23,13,Improv_Metronome,315,1,38,43,3011052008
47,23,13,Improv_Metronome,316,1,48,38,3011277004
47,23,13,Improv_Metronome,317,1,38,55,3011307724
47,23,13,Improv_Metronome,318,5,42,127,3011313216
47,23,13,Improv_Metronome,319,1,38,57,3011557840
47,23,13,Improv_Metronome,320,1,38,54,3011800708
47,23,13,Improv_Metronome,321,5,42,127,3011812712
47,23,13,Improv_Metronome,322,1,38,55,3012051600
47,23,13,Improv_Metronome,323,1,48,49,3012292304
47,23,13,Improv_Metronome,324,1,38,63,3012301336
47,23,13,Improv_Metronome,325,5,42,127,3012312292
47,23,13,Improv_Metronome,326,1,38,53,3012553692
47,23,13,Improv_Metronome,327,1,38,52,3012803076
47,23,13,Improv_Metronome,328,5,42,127,3012813132
47,23,13,Improv_Metronome,329,1,38,54,3013044620
47,23,13,Improv_Metronome,330,1,48,52,3013283300
47,23,13,Improv_Metronome,331,1,38,63,3013295476
47,23,13,Improv_Metronome,332,5,42,127,3013312936
47,23,13,Improv_Metronome,333,1,38,52,3013535564
47,23,13,Improv_Metronome,334,1,38,52,3013790700
47,23,13,Improv_Metronome,335,5,42,127,3013812656
47,23,13,Improv_Metronome,336,1,38,48,3014042048
47,23,13,Improv_Metronome,337,1,48,52,3014286564
47,23,13,Improv_Metronome,338,1,38,62,3014293948
47,23,13,Improv_Metronome,339,5,42,127,3014313428
47,23,13,Improv_Metronome,340,1,38,33,3014545796
47,23,13,Improv_Metronome,341,1,48,40,3014785080
47,23,13,Improv_Metronome,342,1,38,66,3014797096
47,23,13,Improv_Metronome,343,5,42,127,3014813216
47,23,13,Improv_Metronome,344,1,38,42,3015056116
47,23,13,Improv_Metronome,345,1,48,45,3015300032
47,23,13,Improv_Metronome,346,5,42,127,3015312712
47,23,13,Improv_Metronome,347,1,38,71,3015321140
47,23,13,Improv_Metronome,348,1,38,48,3015586124
47,23,13,Improv_Metronome,349,1,48,32,3015603008
47,23,13,Improv_Metronome,350,5,42,127,3015812384
47,23,13,Improv_Metronome,351,1,38,57,3015854020
47,23,13,Improv_Metronome,352,1,38,53,3016097192
47,23,13,Improv_Metronome,353,5,42,127,3016313104
47,23,13,Improv_Metronome,354,1,48,54,3016332532
47,23,13,Improv_Metronome,355,1,38,67,3016336320
47,23,13,Improv_Metronome,356,1,38,54,3016593004
47,23,13,Improv_Metronome,357,5,42,127,3016812952
47,23,13,Improv_Metronome,358,1,38,55,3016838508
47,23,13,Improv_Metronome,359,1,38,52,3017071508
47,23,13,Improv_Metronome,360,1,48,55,3017299792
47,23,13,Improv_Metronome,361,5,42,127,3017312692
47,23,13,Improv_Metronome,362,1,38,70,3017317080
47,23,13,Improv_Metronome,363,1,38,56,3017562916
47,23,13,Improv_Metronome,364,1,38,51,3017802052
47,23,13,Improv_Metronome,365,5,42,127,3017813380
47,23,13,Improv_Metronome,366,1,38,49,3018046432
47,23,13,Improv_Metronome,367,1,48,53,3018276068
47,23,13,Improv_Metronome,368,1,38,66,3018288612
47,23,13,Improv_Metronome,369,5,42,127,3018313104
47,23,13,Improv_Metronome,370,1,38,43,3018539924
47,23,13,Improv_Metronome,371,1,48,48,3018762752
47,23,13,Improv_Metronome,372,1,38,65,3018791752
47,23,13,Improv_Metronome,373,5,42,127,3018812880
47,23,13,Improv_Metronome,374,1,48,51,3019263964
47,23,13,Improv_Metronome,375,1,38,68,3019284292
47,23,13,Improv_Metronome,376,5,42,127,3019312380
47,23,13,Improv_Metronome,377,1,38,55,3019526408
47,23,13,Improv_Metronome,378,1,38,54,3019768980
47,23,13,Improv_Metronome,379,5,42,127,3019813216
47,23,13,Improv_Metronome,380,1,38,52,3020015132
47,23,13,Improv_Metronome,381,1,48,53,3020268472
47,23,13,Improv_Metronome,382,1,38,58,3020271752
47,23,13,Improv_Metronome,383,5,42,127,3020312872
47,23,13,Improv_Metronome,384,1,38,46,3020532188
47,23,13,Improv_Metronome,385,1,38,49,3020775952
47,23,13,Improv_Metronome,386,5,42,127,3020812516
47,23,13,Improv_Metronome,387,1,38,47,3020995880
47,23,13,Improv_Metronome,388,1,48,51,3021244356
47,23,13,Improv_Metronome,389,1,38,58,3021253540
47,23,13,Improv_Metronome,390,5,42,127,3021313364
47,23,13,Improv_Metronome,391,1,38,33,3021510688
47,23,13,Improv_Metronome,392,1,38,44,3021750940
47,23,13,Improv_Metronome,393,5,42,127,3021813304
47,23,13,Improv_Metronome,394,1,38,50,3021993456
47,23,13,Improv_Metronome,395,1,48,38,3022233108
47,23,13,Improv_Metronome,396,1,38,51,3022237952
47,23,13,Improv_Metronome,397,5,42,127,3022313004
47,23,13,Improv_Metronome,398,1,38,45,3022491432
47,23,13,Improv_Metronome,399,1,38,65,3022744472
47,23,13,Improv_Metronome,400,5,42,127,3022812576
47,23,13,Improv_Metronome,401,1,38,57,3023267132
47,23,13,Improv_Metronome,402,1,48,53,3023278856
47,23,13,Improv_Metronome,403,5,42,127,3023313224
47,23,13,Improv_Metronome,404,1,38,30,3023558440
47,23,13,Improv_Metronome,405,1,38,46,3023798844
47,23,13,Improv_Metronome,406,5,42,127,3023812940
47,23,13,Improv_Metronome,407,1,38,49,3024043676
47,23,13,Improv_Metronome,408,1,38,66,3024294404
47,23,13,Improv_Metronome,409,1,48,44,3024296848
47,23,13,Improv_Metronome,410,5,42,127,3024312892
47,23,13,Improv_Metronome,411,1,38,46,3024531112
47,23,13,Improv_Metronome,412,1,38,51,3024781988
47,23,13,Improv_Metronome,413,5,42,127,3024813360
47,23,13,Improv_Metronome,414,1,38,49,3025020988
47,23,13,Improv_Metronome,415,1,38,65,3025271708
47,23,13,Improv_Metronome,416,1,48,41,3025278944
47,23,13,Improv_Metronome,417,5,42,127,3025313016
47,23,13,Improv_Metronome,418,1,38,47,3025514780
47,23,13,Improv_Metronome,419,1,38,46,3025761468
47,23,13,Improv_Metronome,420,5,42,127,3025812960
47,23,13,Improv_Metronome,421,1,38,49,3025995676
47,23,13,Improv_Metronome,422,1,38,63,3026261808
47,23,13,Improv_Metronome,423,1,48,54,3026267772
47,23,13,Improv_Metronome,424,5,42,127,3026312536
47,23,13,Improv_Metronome,425,1,38,50,3026516320
47,23,13,Improv_Metronome,426,1,48,46,3026759940
47,23,13,Improv_Metronome,427,1,38,58,3026763212
47,23,13,Improv_Metronome,428,5,42,127,3026813360
47,23,13,Improv_Metronome,429,1,38,51,3027008164
47,23,13,Improv_Metronome,430,1,48,46,3027253808
47,23,13,Improv_Metronome,431,1,38,61,3027261940
47,23,13,Improv_Metronome,432,5,42,127,3027312988
47,23,13,Improv_Metronome,433,1,38,46,3027524468
47,23,13,Improv_Metronome,434,1,38,54,3027764876
47,23,13,Improv_Metronome,435,5,42,127,3027812704
47,23,13,Improv_Metronome,436,1,38,51,3028002232
47,23,13,Improv_Metronome,437,1,48,50,3028245396
47,23,13,Improv_Metronome,438,1,38,62,3028248748
47,23,13,Improv_Metronome,439,5,42,127,3028312284
47,23,13,Improv_Metronome,440,1,38,50,3028494380
47,23,13,Improv_Metronome,441,1,38,53,3028747864
47,23,13,Improv_Metronome,442,5,42,127,3028813124
47,23,13,Improv_Metronome,443,1,38,51,3028989260
47,23,13,Improv_Metronome,444,1,48,51,3029241852
47,23,13,Improv_Metronome,445,1,38,59,3029245056
47,23,13,Improv_Metronome,446,5,42,127,3029312928
47,23,13,Improv_Metronome,447,1,38,56,3029485048
47,23,13,Improv_Metronome,448,1,38,50,3029746992
47,23,13,Improv_Metronome,449,5,42,127,3029812724
47,23,13,Improv_Metronome,450,1,38,55,3029979860
47,23,13,Improv_Metronome,451,1,38,70,3030241508
47,23,13,Improv_Metronome,452,1,48,48,3030244628
47,23,13,Improv_Metronome,453,5,42,127,3030313276
47,23,13,Improv_Metronome,454,1,38,51,3030487784
47,23,13,Improv_Metronome,455,1,48,42,3030728336
47,23,13,Improv_Metronome,456,1,38,53,3030742608
47,23,13,Improv_Metronome,457,5,42,127,3030813124
47,23,13,Improv_Metronome,458,1,38,49,3030988680
47,23,13,Improv_Metronome,459,1,48,46,3031207540
47,23,13,Improv_Metronome,460,1,38,66,3031230788
47,23,13,Improv_Metronome,461,5,42,127,3031312660
47,23,13,Improv_Metronome,462,1,38,57,3031488548
47,23,13,Improv_Metronome,463,1,38,60,3031731188
47,23,13,Improv_Metronome,464,5,42,127,3031812632
47,23,13,Improv_Metronome,465,1,38,51,3031983880
47,23,13,Improv_Metronome,466,1,48,51,3032225332
47,23,13,Improv_Metronome,467,1,38,66,3032230844
47,23,13,Improv_Metronome,468,5,42,127,3032313256
47,23,13,Improv_Metronome,469,1,38,61,3032474684
47,23,13,Improv_Metronome,470,1,38,54,3032724060
47,23,13,Improv_Metronome,471,5,42,127,3032812880
47,23,13,Improv_Metronome,472,1,38,51,3032970012
47,23,13,Improv_Metronome,473,1,48,52,3033207276
47,23,13,Improv_Metronome,474,1,38,66,3033218776
47,23,13,Improv_Metronome,475,5,42,127,3033312788
47,23,13,Improv_Metronome,476,1,38,53,3033463360
47,23,13,Improv_Metronome,477,1,38,50,3033710868
47,23,13,Improv_Metronome,478,5,42,127,3033813360
47,23,13,Improv_Metronome,479,1,38,56,3033958316
47,23,13,Improv_Metronome,480,1,48,53,3034187276
47,23,13,Improv_Metronome,481,1,38,70,3034208500
47,23,13,Improv_Metronome,482,5,42,127,3034312984
47,23,13,Improv_Metronome,483,1,38,56,3034458092
47,23,13,Improv_Metronome,484,1,48,42,3034704776
47,23,13,Improv_Metronome,485,1,38,70,3034712392
47,23,13,Improv_Metronome,486,5,42,127,3034812760
47,23,13,Improv_Metronome,487,1,38,53,3034961236
47,23,13,Improv_Metronome,488,1,48,43,3035185856
47,23,13,Improv_Metronome,489,1,38,71,3035217252
47,23,13,Improv_Metronome,0,9999,9999,9999,2965310584
47,23,13,Improv_Metronome,1,9999,9999,9999,2965810224
47,23,13,Improv_Metronome,2,9999,9999,9999,2966310988
47,23,13,Improv_Metronome,3,9999,9999,9999,2966810696
47,23,13,Improv_Metronome,4,9999,9999,9999,2967310444
47,23,13,Improv_Metronome,5,9999,9999,9999,2967810096
47,23,13,Improv_Metronome,6,9999,9999,9999,2968310840
47,23,13,Improv_Metronome,7,9999,9999,9999,2968810564
47,23,13,Improv_Metronome,8,9999,9999,9999,2969310284
47,23,13,Improv_Metronome,9,9999,9999,9999,2969811004
47,23,13,Improv_Metronome,10,9999,9999,9999,2970310716
47,23,13,Improv_Metronome,11,9999,9999,9999,2970810472
47,23,13,Improv_Metronome,12,9999,9999,9999,2971310172
47,23,13,Improv_Metronome,13,9999,9999,9999,2971810888
47,23,13,Improv_Metronome,14,9999,9999,9999,2972310588
47,23,13,Improv_Metronome,15,9999,9999,9999,2972810336
47,23,13,Improv_Metronome,16,9999,9999,9999,2973311080
47,23,13,Improv_Metronome,17,9999,9999,9999,2973810756
47,23,13,Improv_Metronome,18,9999,9999,9999,2974310456
47,23,13,Improv_Metronome,19,9999,9999,9999,2974810204
47,23,13,Improv_Metronome,20,9999,9999,9999,2975310952
47,23,13,Improv_Metronome,21,9999,9999,9999,2975810624
47,23,13,Improv_Metronome,22,9999,9999,9999,2976310324
47,23,13,Improv_Metronome,23,9999,9999,9999,2976811092
47,23,13,Improv_Metronome,24,9999,9999,9999,2977310820
47,23,13,Improv_Metronome,25,9999,9999,9999,2977810544
47,23,13,Improv_Metronome,26,9999,9999,9999,2978310264
47,23,13,Improv_Metronome,27,9999,9999,9999,2978810964
47,23,13,Improv_Metronome,28,9999,9999,9999,2979310660
47,23,13,Improv_Metronome,29,9999,9999,9999,2979810388
47,23,13,Improv_Metronome,30,9999,9999,9999,2980310108
47,23,13,Improv_Metronome,31,9999,9999,9999,2980810808
47,23,13,Improv_Metronome,32,9999,9999,9999,2981310540
47,23,13,Improv_Metronome,33,9999,9999,9999,2981810244
47,23,13,Improv_Metronome,34,9999,9999,9999,2982311012
47,23,13,Improv_Metronome,35,9999,9999,9999,2982810740
47,23,13,Improv_Metronome,36,9999,9999,9999,2983310460
47,23,13,Improv_Metronome,37,9999,9999,9999,2983810116
47,23,13,Improv_Metronome,38,9999,9999,9999,2984310880
47,23,13,Improv_Metronome,39,9999,9999,9999,2984810556
47,23,13,Improv_Metronome,40,9999,9999,9999,2985310304
47,23,13,Improv_Metronome,41,9999,9999,9999,2985811004
47,23,13,Improv_Metronome,42,9999,9999,9999,2986310752
47,23,13,Improv_Metronome,43,9999,9999,9999,2986810464
47,23,13,Improv_Metronome,44,9999,9999,9999,2987310144
47,23,13,Improv_Metronome,45,9999,9999,9999,2987810880
47,23,13,Improv_Metronome,46,9999,9999,9999,2988310608
47,23,13,Improv_Metronome,47,9999,9999,9999,2988810324
47,23,13,Improv_Metronome,48,9999,9999,9999,2989311100
47,23,13,Improv_Metronome,49,9999,9999,9999,2989810792
47,23,13,Improv_Metronome,50,9999,9999,9999,2990310496
47,23,13,Improv_Metronome,51,9999,9999,9999,2990810216
47,23,13,Improv_Metronome,52,9999,9999,9999,2991310936
47,23,13,Improv_Metronome,53,9999,9999,9999,2991810632
47,23,13,Improv_Metronome,54,9999,9999,9999,2992310384
47,23,13,Improv_Metronome,55,9999,9999,9999,2992811060
47,23,13,Improv_Metronome,56,9999,9999,9999,2993310800
47,23,13,Improv_Metronome,57,9999,9999,9999,2993810520
47,23,13,Improv_Metronome,58,9999,9999,9999,2994310240
47,23,13,Improv_Metronome,59,9999,9999,9999,2994810988
47,23,13,Improv_Metronome,60,9999,9999,9999,2995310688
47,23,13,Improv_Metronome,61,9999,9999,9999,2995810408
47,23,13,Improv_Metronome,62,9999,9999,9999,2996310136
47,23,13,Improv_Metronome,63,9999,9999,9999,2996810828
47,23,13,Improv_Metronome,64,9999,9999,9999,2997310556
47,23,13,Improv_Metronome,65,9999,9999,9999,2997810276
47,23,13,Improv_Metronome,66,9999,9999,9999,2998310980
47,23,13,Improv_Metronome,67,9999,9999,9999,2998810680
47,23,13,Improv_Metronome,68,9999,9999,9999,2999310456
47,23,13,Improv_Metronome,69,9999,9999,9999,2999810104
47,23,13,Improv_Metronome,70,9999,9999,9999,3000310876
47,23,13,Improv_Metronome,71,9999,9999,9999,3000810568
47,23,13,Improv_Metronome,72,9999,9999,9999,3001310316
47,23,13,Improv_Metronome,73,9999,9999,9999,3001811064
47,23,13,Improv_Metronome,74,9999,9999,9999,3002310736
47,23,13,Improv_Metronome,75,9999,9999,9999,3002810456
47,23,13,Improv_Metronome,76,9999,9999,9999,3003310152
47,23,13,Improv_Metronome,77,9999,9999,9999,3003810900
47,23,13,Improv_Metronome,78,9999,9999,9999,3004310648
47,23,13,Improv_Metronome,79,9999,9999,9999,3004810348
47,23,13,Improv_Metronome,80,9999,9999,9999,3005311068
47,23,13,Improv_Metronome,81,9999,9999,9999,3005810764
47,23,13,Improv_Metronome,82,9999,9999,9999,3006310492
47,23,13,Improv_Metronome,83,9999,9999,9999,3006810192
47,23,13,Improv_Metronome,84,9999,9999,9999,3007310960
47,23,13,Improv_Metronome,85,9999,9999,9999,3007810680
47,23,13,Improv_Metronome,86,9999,9999,9999,3008310332
47,23,13,Improv_Metronome,87,9999,9999,9999,3008811100
47,23,13,Improv_Metronome,88,9999,9999,9999,3009310840
47,23,13,Improv_Metronome,89,9999,9999,9999,3009810484
47,23,13,Improv_Metronome,90,9999,9999,9999,3010310212
47,23,13,Improv_Metronome,91,9999,9999,9999,3010810956
47,23,13,Improv_Metronome,92,9999,9999,9999,3011310708
47,23,13,Improv_Metronome,93,9999,9999,9999,3011810424
47,23,13,Improv_Metronome,94,9999,9999,9999,3012310080
47,23,13,Improv_Metronome,95,9999,9999,9999,3012810844
47,23,13,Improv_Metronome,96,9999,9999,9999,3013310572
47,23,13,Improv_Metronome,97,9999,9999,9999,3013810292
47,23,13,Improv_Metronome,98,9999,9999,9999,3014310992
47,23,13,Improv_Metronome,99,9999,9999,9999,3014810704
47,23,13,Improv_Metronome,100,9999,9999,9999,3015310424
47,23,13,Improv_Metronome,101,9999,9999,9999,3015810096
47,23,13,Improv_Metronome,102,9999,9999,9999,3016310892
47,23,13,Improv_Metronome,103,9999,9999,9999,3016810592
47,23,13,Improv_Metronome,104,9999,9999,9999,3017310256
47,23,13,Improv_Metronome,105,9999,9999,9999,3017811016
47,23,13,Improv_Metronome,106,9999,9999,9999,3018310744
47,23,13,Improv_Metronome,107,9999,9999,9999,3018810444
47,23,13,Improv_Metronome,108,9999,9999,9999,3019310164
47,23,13,Improv_Metronome,109,9999,9999,9999,3019810932
47,23,13,Improv_Metronome,110,9999,9999,9999,3020310584
47,23,13,Improv_Metronome,111,9999,9999,9999,3020810304
47,23,13,Improv_Metronome,112,9999,9999,9999,3021311076
47,23,13,Improv_Metronome,113,9999,9999,9999,3021810768
47,23,13,Improv_Metronome,114,9999,9999,9999,3022310496
47,23,13,Improv_Metronome,115,9999,9999,9999,3022810216
47,23,13,Improv_Metronome,116,9999,9999,9999,3023310936
47,23,13,Improv_Metronome,117,9999,9999,9999,3023810656
47,23,13,Improv_Metronome,118,9999,9999,9999,3024310384
47,23,13,Improv_Metronome,119,9999,9999,9999,3024811076
47,23,13,Improv_Metronome,120,9999,9999,9999,3025310804
47,23,13,Improv_Metronome,121,9999,9999,9999,3025810524
47,23,13,Improv_Metronome,122,9999,9999,9999,3026310252
47,23,13,Improv_Metronome,123,9999,9999,9999,3026811000
47,23,13,Improv_Metronome,124,9999,9999,9999,3027310700
47,23,13,Improv_Metronome,125,9999,9999,9999,3027810420
47,23,13,Improv_Metronome,126,9999,9999,9999,3028310072
47,23,13,Improv_Metronome,127,9999,9999,9999,3028810836
47,23,13,Improv_Metronome,128,9999,9999,9999,3029310568
47,23,13,Improv_Metronome,129,9999,9999,9999,3029810288
47,23,13,Improv_Metronome,130,9999,9999,9999,3030310988
47,23,13,Improv_Metronome,131,9999,9999,9999,3030810688
47,23,13,Improv_Metronome,132,9999,9999,9999,3031310448
47,23,13,Improv_Metronome,133,9999,9999,9999,3031810120
47,23,13,Improv_Metronome,134,9999,9999,9999,3032310896
47,23,13,Improv_Metronome,135,9999,9999,9999,3032810592
47,23,13,Improv_Metronome,136,9999,9999,9999,3033310304
47,23,13,Improv_Metronome,137,9999,9999,9999,3033811000
47,23,13,Improv_Metronome,138,9999,9999,9999,3034310772
47,23,13,Improv_Metronome,139,9999,9999,9999,3034810472
47,24,14,Improv_Melody,0,2,48,80,3079363988
47,24,14,Improv_Melody,1,2,72,80,3079366220
47,24,14,Improv_Melody,2,5,42,127,3079368836
47,24,14,Improv_Melody,3,5,42,110,3079861528
47,24,14,Improv_Melody,4,5,42,110,3080362444
47,24,14,Improv_Melody,5,5,42,110,3080862240
47,24,14,Improv_Melody,6,5,42,127,3081361888
47,24,14,Improv_Melody,7,5,42,110,3081861608
47,24,14,Improv_Melody,8,5,42,110,3082362376
47,24,14,Improv_Melody,9,5,42,110,3082861804
47,24,14,Improv_Melody,10,1,38,67,3083328788
47,24,14,Improv_Melody,11,1,48,23,3083344700
47,24,14,Improv_Melody,12,2,43,80,3083364300
47,24,14,Improv_Melody,13,2,67,80,3083366300
47,24,14,Improv_Melody,14,5,42,127,3083368836
47,24,14,Improv_Melody,15,1,38,38,3083621544
47,24,14,Improv_Melody,16,1,38,47,3083853564
47,24,14,Improv_Melody,17,5,42,110,3083862508
47,24,14,Improv_Melody,18,1,38,53,3084111572
47,24,14,Improv_Melody,19,1,48,61,3084351000
47,24,14,Improv_Melody,20,1,38,62,3084355992
47,24,14,Improv_Melody,21,5,42,110,3084362168
47,24,14,Improv_Melody,22,1,38,54,3084603344
47,24,14,Improv_Melody,23,1,38,51,3084855044
47,24,14,Improv_Melody,24,5,42,110,3084861968
47,24,14,Improv_Melody,25,1,38,54,3085098164
47,24,14,Improv_Melody,26,1,48,22,3085345148
47,24,14,Improv_Melody,27,5,42,127,3085361496
47,24,14,Improv_Melody,28,1,38,42,3085607640
47,24,14,Improv_Melody,29,1,38,55,3085860336
47,24,14,Improv_Melody,30,5,42,110,3085863416
47,24,14,Improv_Melody,31,1,38,59,3086081368
47,24,14,Improv_Melody,32,1,48,52,3086343240
47,24,14,Improv_Melody,33,5,42,110,3086361900
47,24,14,Improv_Melody,34,1,38,49,3086575556
47,24,14,Improv_Melody,35,1,38,57,3086822992
47,24,14,Improv_Melody,36,5,42,110,3086861580
47,24,14,Improv_Melody,37,1,38,54,3087044648
47,24,14,Improv_Melody,38,1,48,61,3087303296
47,24,14,Improv_Melody,39,1,38,45,3087336564
47,24,14,Improv_Melody,40,2,45,80,3087364784
47,24,14,Improv_Melody,41,2,69,80,3087366936
47,24,14,Improv_Melody,42,5,42,127,3087369476
47,24,14,Improv_Melody,43,1,38,44,3087577124
47,24,14,Improv_Melody,44,1,38,51,3087782444
47,24,14,Improv_Melody,45,5,42,110,3087862244
47,24,14,Improv_Melody,46,1,38,58,3088030728
47,24,14,Improv_Melody,47,1,38,71,3088287356
47,24,14,Improv_Melody,48,1,48,54,3088296688
47,24,14,Improv_Melody,49,5,42,110,3088361728
47,24,14,Improv_Melody,50,1,38,62,3088525496
47,24,14,Improv_Melody,51,1,38,60,3088781076
47,24,14,Improv_Melody,52,5,42,110,3088861604
47,24,14,Improv_Melody,53,1,38,64,3089024500
47,24,14,Improv_Melody,54,1,48,58,3089273280
47,24,14,Improv_Melody,55,1,38,58,3089276548
47,24,14,Improv_Melody,56,5,42,127,3089362160
47,24,14,Improv_Melody,57,1,38,58,3089516420
47,24,14,Improv_Melody,58,1,38,63,3089761320
47,24,14,Improv_Melody,59,5,42,110,3089862168
47,24,14,Improv_Melody,60,1,38,52,3090013112
47,24,14,Improv_Melody,61,1,48,58,3090279092
47,24,14,Improv_Melody,62,5,42,110,3090361712
47,24,14,Improv_Melody,63,1,38,48,3090520200
47,24,14,Improv_Melody,64,1,38,59,3090775184
47,24,14,Improv_Melody,65,5,42,110,3090861392
47,24,14,Improv_Melody,66,1,38,60,3091018672
47,24,14,Improv_Melody,67,1,48,54,3091272172
47,24,14,Improv_Melody,68,2,41,80,3091364616
47,24,14,Improv_Melody,69,2,65,80,3091366844
47,24,14,Improv_Melody,70,5,42,127,3091370340
47,24,14,Improv_Melody,71,1,38,52,3091499816
47,24,14,Improv_Melody,72,1,38,69,3091772308
47,24,14,Improv_Melody,73,5,42,110,3091861732
47,24,14,Improv_Melody,74,1,38,68,3092019840
47,24,14,Improv_Melody,75,1,38,73,3092261292
47,24,14,Improv_Melody,76,1,48,56,3092264564
47,24,14,Improv_Melody,77,5,42,110,3092362324
47,24,14,Improv_Melody,78,1,38,59,3092526652
47,24,14,Improv_Melody,79,1,38,54,3092775432
47,24,14,Improv_Melody,80,5,42,110,3092862464
47,24,14,Improv_Melody,81,1,38,54,3093031344
47,24,14,Improv_Melody,82,1,38,63,3093284988
47,24,14,Improv_Melody,83,1,48,49,3093288180
47,24,14,Improv_Melody,84,5,42,127,3093362196
47,24,14,Improv_Melody,85,1,38,56,3093544880
47,24,14,Improv_Melody,86,1,38,58,3093796728
47,24,14,Improv_Melody,87,5,42,110,3093861696
47,24,14,Improv_Melody,88,1,38,57,3094050768
47,24,14,Improv_Melody,89,1,38,60,3094304864
47,24,14,Improv_Melody,90,1,48,40,3094312696
47,24,14,Improv_Melody,91,5,42,110,3094361432
47,24,14,Improv_Melody,92,1,38,54,3094556384
47,24,14,Improv_Melody,93,1,38,52,3094816384
47,24,14,Improv_Melody,94,5,42,110,3094862128
47,24,14,Improv_Melody,95,1,38,51,3095068780
47,24,14,Improv_Melody,96,1,48,51,3095318452
47,24,14,Improv_Melody,97,1,38,61,3095324272
47,24,14,Improv_Melody,98,2,48,80,3095364440
47,24,14,Improv_Melody,99,2,72,80,3095366744
47,24,14,Improv_Melody,100,5,42,127,3095369348
47,24,14,Improv_Melody,101,1,38,59,3095559068
47,24,14,Improv_Melody,102,1,38,55,3095818920
47,24,14,Improv_Melody,103,5,42,110,3095861672
47,24,14,Improv_Melody,104,1,38,46,3096083812
47,24,14,Improv_Melody,105,1,38,52,3096339096
47,24,14,Improv_Melody,106,5,42,110,3096362548
47,24,14,Improv_Melody,107,1,38,57,3096588048
47,24,14,Improv_Melody,108,1,38,59,3096842816
47,24,14,Improv_Melody,109,5,42,110,3096862152
47,24,14,Improv_Melody,110,1,38,65,3097092816
47,24,14,Improv_Melody,111,1,48,49,3097319804
47,24,14,Improv_Melody,112,1,38,64,3097332316
47,24,14,Improv_Melody,113,5,42,127,3097362196
47,24,14,Improv_Melody,114,1,38,60,3097571864
47,24,14,Improv_Melody,115,1,38,60,3097819152
47,24,14,Improv_Melody,116,5,42,110,3097861400
47,24,14,Improv_Melody,117,1,38,60,3098068028
47,24,14,Improv_Melody,118,1,38,57,3098319868
47,24,14,Improv_Melody,119,5,42,110,3098362272
47,24,14,Improv_Melody,120,1,38,53,3098558056
47,24,14,Improv_Melody,121,1,38,60,3098826356
47,24,14,Improv_Melody,122,5,42,110,3098861928
47,24,14,Improv_Melody,123,1,38,56,3099062068
47,24,14,Improv_Melody,124,1,48,54,3099316984
47,24,14,Improv_Melody,125,2,43,80,3099364104
47,24,14,Improv_Melody,126,2,67,80,3099366332
47,24,14,Improv_Melody,127,5,42,127,3099369020
47,24,14,Improv_Melody,128,1,38,25,3099609032
47,24,14,Improv_Melody,129,5,42,110,3099862352
47,24,14,Improv_Melody,130,1,38,37,3099895936
47,24,14,Improv_Melody,131,1,38,57,3100141628
47,24,14,Improv_Melody,132,5,42,110,3100362104
47,24,14,Improv_Melody,133,1,38,59,3100401000
47,24,14,Improv_Melody,134,1,38,51,3100627992
47,24,14,Improv_Melody,135,5,42,110,3100861932
47,24,14,Improv_Melody,136,1,38,57,3100882476
47,24,14,Improv_Melody,137,1,38,53,3101123104
47,24,14,Improv_Melody,138,1,48,51,3101348840
47,24,14,Improv_Melody,139,5,42,127,3101361452
47,24,14,Improv_Melody,140,1,38,64,3101376384
47,24,14,Improv_Melody,141,1,38,62,3101611676
47,24,14,Improv_Melody,142,1,38,58,3101857312
47,24,14,Improv_Melody,143,5,42,110,3101862216
47,24,14,Improv_Melody,144,1,38,55,3102098936
47,24,14,Improv_Melody,145,1,38,58,3102341436
47,24,14,Improv_Melody,146,5,42,110,3102361892
47,24,14,Improv_Melody,147,1,38,59,3102581788
47,24,14,Improv_Melody,148,1,38,62,3102836024
47,24,14,Improv_Melody,149,5,42,110,3102862016
47,24,14,Improv_Melody,150,1,38,60,3103043240
47,24,14,Improv_Melody,151,1,48,57,3103320296
47,24,14,Improv_Melody,152,2,45,80,3103364952
47,24,14,Improv_Melody,153,2,69,80,3103367404
47,24,14,Improv_Melody,154,5,42,127,3103369936
47,24,14,Improv_Melody,155,1,38,54,3103593944
47,24,14,Improv_Melody,156,1,38,60,3103836064
47,24,14,Improv_Melody,157,5,42,110,3103861988
47,24,14,Improv_Melody,158,1,38,66,3104093696
47,24,14,Improv_Melody,159,1,38,65,3104339036
47,24,14,Improv_Melody,160,5,42,110,3104361964
47,24,14,Improv_Melody,161,1,38,55,3104605040
47,24,14,Improv_Melody,162,5,42,110,3104861652
47,24,14,Improv_Melody,163,1,38,67,3104864624
47,24,14,Improv_Melody,164,1,38,67,3105110560
47,24,14,Improv_Melody,165,1,38,63,3105357540
47,24,14,Improv_Melody,166,5,42,127,3105362220
47,24,14,Improv_Melody,167,1,38,54,3105601860
47,24,14,Improv_Melody,168,1,38,56,3105850788
47,24,14,Improv_Melody,169,5,42,110,3105861976
47,24,14,Improv_Melody,170,1,38,57,3106097648
47,24,14,Improv_Melody,171,1,48,50,3106324212
47,24,14,Improv_Melody,172,1,38,71,3106346480
47,24,14,Improv_Melody,173,5,42,110,3106361856
47,24,14,Improv_Melody,174,1,38,51,3106587404
47,24,14,Improv_Melody,175,1,38,59,3106831024
47,24,14,Improv_Melody,176,5,42,110,3106861360
47,24,14,Improv_Melody,177,1,38,62,3107077056
47,24,14,Improv_Melody,178,1,48,57,3107326884
47,24,14,Improv_Melody,179,2,41,80,3107364736
47,24,14,Improv_Melody,180,2,65,80,3107366812
47,24,14,Improv_Melody,181,5,42,127,3107369648
47,24,14,Improv_Melody,182,1,38,54,3107605024
47,24,14,Improv_Melody,183,1,38,54,3107845804
47,24,14,Improv_Melody,184,5,42,110,3107861852
47,24,14,Improv_Melody,185,1,38,75,3108092664
47,24,14,Improv_Melody,186,1,38,62,3108332516
47,24,14,Improv_Melody,187,5,42,110,3108361680
47,24,14,Improv_Melody,188,1,38,55,3108596676
47,24,14,Improv_Melody,189,1,38,70,3108860820
47,24,14,Improv_Melody,190,5,42,110,3108863600
47,24,14,Improv_Melody,191,1,38,62,3109109224
47,24,14,Improv_Melody,192,1,48,45,3109351628
47,24,14,Improv_Melody,193,5,42,127,3109362012
47,24,14,Improv_Melody,194,1,38,73,3109365804
47,24,14,Improv_Melody,195,1,38,42,3109610792
47,24,14,Improv_Melody,196,1,48,14,3109636612
47,24,14,Improv_Melody,197,5,42,110,3109861900
47,24,14,Improv_Melody,198,1,38,59,3109864348
47,24,14,Improv_Melody,199,1,38,55,3110108860
47,24,14,Improv_Melody,200,1,38,55,3110344032
47,24,14,Improv_Melody,201,5,42,110,3110361648
47,24,14,Improv_Melody,202,1,38,57,3110593060
47,24,14,Improv_Melody,203,1,38,67,3110844756
47,24,14,Improv_Melody,204,5,42,110,3110862148
47,24,14,Improv_Melody,205,1,38,61,3111082268
47,24,14,Improv_Melody,206,1,48,57,3111297312
47,24,14,Improv_Melody,207,2,48,80,3111364556
47,24,14,Improv_Melody,208,2,72,80,3111366708
47,24,14,Improv_Melody,209,5,42,127,3111369020
47,24,14,Improv_Melody,210,1,38,44,3111617480
47,24,14,Improv_Melody,211,1,38,59,3111850704
47,24,14,Improv_Melody,212,5,42,110,3111861744
47,24,14,Improv_Melody,213,1,38,65,3112114696
47,24,14,Improv_Melody,214,1,38,73,3112361872
47,24,14,Improv_Melody,215,5,42,110,3112364340
47,24,14,Improv_Melody,216,1,38,62,3112622676
47,24,14,Improv_Melody,217,5,42,110,3112862004
47,24,14,Improv_Melody,218,1,38,62,3112883524
47,24,14,Improv_Melody,219,1,38,62,3113124076
47,24,14,Improv_Melody,220,5,42,127,3113361680
47,24,14,Improv_Melody,221,1,38,56,3113392096
47,24,14,Improv_Melody,222,1,38,59,3113643348
47,24,14,Improv_Melody,223,5,42,110,3113861728
47,24,14,Improv_Melody,224,1,38,57,3113881152
47,24,14,Improv_Melody,225,1,38,56,3114122828
47,24,14,Improv_Melody,226,5,42,110,3114362156
47,24,14,Improv_Melody,227,1,38,61,3114375892
47,24,14,Improv_Melody,228,1,38,51,3114614576
47,24,14,Improv_Melody,229,1,38,54,3114851916
47,24,14,Improv_Melody,230,5,42,110,3114861976
47,24,14,Improv_Melody,231,1,38,65,3115076408
47,24,14,Improv_Melody,232,1,48,55,3115302600
47,24,14,Improv_Melody,233,1,38,71,3115324796
47,24,14,Improv_Melody,234,2,43,80,3115364372
47,24,14,Improv_Melody,235,2,67,80,3115366520
47,24,14,Improv_Melody,236,5,42,127,3115369052
47,24,14,Improv_Melody,237,1,38,52,3115565732
47,24,14,Improv_Melody,238,1,48,18,3115604236
47,24,14,Improv_Melody,239,1,38,51,3115827776
47,24,14,Improv_Melody,240,5,42,110,3115862672
47,24,14,Improv_Melody,241,1,38,58,3116075460
47,24,14,Improv_Melody,242,1,38,59,3116320424
47,24,14,Improv_Melody,243,5,42,110,3116361980
47,24,14,Improv_Melody,244,1,38,50,3116580820
47,24,14,Improv_Melody,245,1,38,59,3116826012
47,24,14,Improv_Melody,246,5,42,110,3116861736
47,24,14,Improv_Melody,247,1,38,46,3117078328
47,24,14,Improv_Melody,248,5,42,127,3117361568
47,24,14,Improv_Melody,249,1,48,42,3117400440
47,24,14,Improv_Melody,250,1,38,51,3117668064
47,24,14,Improv_Melody,251,5,42,110,3117862368
47,24,14,Improv_Melody,252,1,38,55,3117894956
47,24,14,Improv_Melody,253,1,38,60,3118141496
47,24,14,Improv_Melody,254,1,48,31,3118347416
47,24,14,Improv_Melody,255,5,42,110,3118361964
47,24,14,Improv_Melody,256,1,38,52,3118637580
47,24,14,Improv_Melody,257,5,42,110,3118861796
47,24,14,Improv_Melody,258,1,38,55,3118866712
47,24,14,Improv_Melody,259,1,38,54,3119133292
47,24,14,Improv_Melody,260,1,48,40,3119288404
47,24,14,Improv_Melody,261,2,45,80,3119365020
47,24,14,Improv_Melody,262,2,69,80,3119367324
47,24,14,Improv_Melody,263,5,42,127,3119369708
47,24,14,Improv_Melody,264,1,38,55,3119620196
47,24,14,Improv_Melody,265,1,38,45,3119821376
47,24,14,Improv_Melody,266,5,42,110,3119861980
47,24,14,Improv_Melody,267,1,38,67,3120290780
47,24,14,Improv_Melody,268,1,48,41,3120300188
47,24,14,Improv_Melody,269,5,42,110,3120361712
47,24,14,Improv_Melody,270,1,38,57,3120609324
47,24,14,Improv_Melody,271,1,38,58,3120767892
47,24,14,Improv_Melody,272,5,42,110,3120861512
47,24,14,Improv_Melody,273,1,38,61,3121085516
47,24,14,Improv_Melody,274,1,48,38,3121296144
47,24,14,Improv_Melody,275,1,38,53,3121298672
47,24,14,Improv_Melody,276,5,42,127,3121362436
47,24,14,Improv_Melody,277,1,38,49,3121595916
47,24,14,Improv_Melody,278,1,38,51,3121814852
47,24,14,Improv_Melody,279,5,42,110,3121861940
47,24,14,Improv_Melody,280,1,38,57,3122063056
47,24,14,Improv_Melody,281,1,48,40,3122299420
47,24,14,Improv_Melody,282,1,38,64,3122306508
47,24,14,Improv_Melody,283,5,42,110,3122361820
47,24,14,Improv_Melody,284,1,38,50,3122543612
47,24,14,Improv_Melody,285,1,38,54,3122798752
47,24,14,Improv_Melody,286,5,42,110,3122861324
47,24,14,Improv_Melody,287,1,38,60,3123043444
47,24,14,Improv_Melody,288,1,48,47,3123262004
47,24,14,Improv_Melody,289,2,41,80,3123364916
47,24,14,Improv_Melody,290,2,65,80,3123367140
47,24,14,Improv_Melody,291,5,42,127,3123369744
47,24,14,Improv_Melody,292,1,48,46,3123509328
47,24,14,Improv_Melody,293,5,42,110,3123861820
47,24,14,Improv_Melody,294,5,42,110,3124361544
47,24,14,Improv_Melody,295,5,42,110,3124862312
47,24,14,Improv_Melody,296,1,38,53,3125243728
47,24,14,Improv_Melody,297,5,42,127,3125362456
47,24,14,Improv_Melody,298,1,38,30,3125545788
47,24,14,Improv_Melody,299,1,38,29,3125795468
47,24,14,Improv_Melody,300,5,42,110,3125861856
47,24,14,Improv_Melody,301,1,38,43,3126044496
47,24,14,Improv_Melody,302,1,48,39,3126311008
47,24,14,Improv_Melody,303,1,38,54,3126321236
47,24,14,Improv_Melody,304,5,42,110,3126361440
47,24,14,Improv_Melody,305,1,38,57,3126583172
47,24,14,Improv_Melody,306,1,38,56,3126838536
47,24,14,Improv_Melody,307,5,42,110,3126862508
47,24,14,Improv_Melody,308,1,38,60,3127093844
47,24,14,Improv_Melody,309,1,48,48,3127330136
47,24,14,Improv_Melody,310,1,38,66,3127356292
47,24,14,Improv_Melody,311,2,48,80,3127364524
47,24,14,Improv_Melody,312,2,72,80,3127366752
47,24,14,Improv_Melody,313,5,42,127,3127369360
47,24,14,Improv_Melody,314,1,38,56,3127609868
47,24,14,Improv_Melody,315,5,42,110,3127861688
47,24,14,Improv_Melody,316,1,38,58,3127870868
47,24,14,Improv_Melody,317,1,38,50,3128125332
47,24,14,Improv_Melody,318,5,42,110,3128362416
47,24,14,Improv_Melody,319,1,38,62,3128380268
47,24,14,Improv_Melody,320,1,48,35,3128383464
47,24,14,Improv_Melody,321,1,38,52,3128637752
47,24,14,Improv_Melody,322,5,42,110,3128862048
47,24,14,Improv_Melody,323,1,38,57,3128883416
47,24,14,Improv_Melody,324,1,38,43,3129135932
47,24,14,Improv_Melody,325,5,42,127,3129361800
47,24,14,Improv_Melody,326,1,48,48,3129395512
47,24,14,Improv_Melody,327,1,38,71,3129403720
47,24,14,Improv_Melody,328,1,38,58,3129667352
47,24,14,Improv_Melody,329,5,42,110,3129861432
47,24,14,Improv_Melody,330,1,38,63,3129914140
47,24,14,Improv_Melody,331,1,38,55,3130154764
47,24,14,Improv_Melody,332,5,42,110,3130362304
47,24,14,Improv_Melody,333,1,48,37,3130388308
47,24,14,Improv_Melody,334,1,38,59,3130408632
47,24,14,Improv_Melody,335,1,38,48,3130658212
47,24,14,Improv_Melody,336,1,48,20,3130679436
47,24,14,Improv_Melody,337,5,42,110,3130861792
47,24,14,Improv_Melody,338,1,38,45,3130908740
47,24,14,Improv_Melody,339,1,38,48,3131147644
47,24,14,Improv_Melody,340,2,43,80,3131364172
47,24,14,Improv_Melody,341,2,67,80,3131366320
47,24,14,Improv_Melody,342,5,42,127,3131369080
47,24,14,Improv_Melody,343,1,38,68,3131403120
47,24,14,Improv_Melody,344,1,48,42,3131406312
47,24,14,Improv_Melody,345,1,38,60,3131646320
47,24,14,Improv_Melody,346,5,42,110,3131862360
47,24,14,Improv_Melody,347,1,38,61,3131897964
47,24,14,Improv_Melody,348,1,38,57,3132141112
47,24,14,Improv_Melody,349,5,42,110,3132362112
47,24,14,Improv_Melody,350,1,48,36,3132385576
47,24,14,Improv_Melody,351,1,38,65,3132390496
47,24,14,Improv_Melody,352,1,38,52,3132638192
47,24,14,Improv_Melody,353,5,42,110,3132861816
47,24,14,Improv_Melody,354,1,38,52,3132892908
47,24,14,Improv_Melody,355,1,38,53,3133136600
47,24,14,Improv_Melody,356,5,42,127,3133361644
47,24,14,Improv_Melody,357,1,48,49,3133386524
47,24,14,Improv_Melody,358,1,38,67,3133394140
47,24,14,Improv_Melody,359,1,38,60,3133627180
47,24,14,Improv_Melody,360,5,42,110,3133862244
47,24,14,Improv_Melody,361,1,38,51,3133889972
47,24,14,Improv_Melody,362,1,38,56,3134140320
47,24,14,Improv_Melody,363,5,42,110,3134362148
47,24,14,Improv_Melody,364,1,38,61,3134388456
47,24,14,Improv_Melody,365,1,48,28,3134401000
47,24,14,Improv_Melody,366,1,38,48,3134637116
47,24,14,Improv_Melody,367,5,42,110,3134861556
47,24,14,Improv_Melody,368,1,38,41,3134880156
47,24,14,Improv_Melody,369,1,38,53,3135118536
47,24,14,Improv_Melody,370,1,48,38,3135364404
47,24,14,Improv_Melody,371,2,45,80,3135366424
47,24,14,Improv_Melody,372,2,69,80,3135368352
47,24,14,Improv_Melody,373,5,42,127,3135370960
47,24,14,Improv_Melody,374,1,38,76,3135374980
47,24,14,Improv_Melody,375,1,38,51,3135615208
47,24,14,Improv_Melody,376,5,42,110,3135862160
47,24,14,Improv_Melody,377,1,38,46,3135871636
47,24,14,Improv_Melody,378,1,38,46,3136123784
47,24,14,Improv_Melody,379,5,42,110,3136362064
47,24,14,Improv_Melody,380,1,48,44,3136373788
47,24,14,Improv_Melody,381,1,38,50,3136388500
47,24,14,Improv_Melody,382,1,38,46,3136621392
47,24,14,Improv_Melody,383,5,42,110,3136861548
47,24,14,Improv_Melody,384,1,38,49,3136886580
47,24,14,Improv_Melody,385,1,38,46,3137131396
47,24,14,Improv_Melody,386,1,48,51,3137355196
47,24,14,Improv_Melody,387,1,38,62,3137362252
47,24,14,Improv_Melody,388,5,42,127,3137365240
47,24,14,Improv_Melody,389,1,38,48,3137609864
47,24,14,Improv_Melody,390,5,42,110,3137862132
47,24,14,Improv_Melody,391,1,38,65,3137866000
47,24,14,Improv_Melody,392,1,38,53,3138105276
47,24,14,Improv_Melody,393,5,42,110,3138361808
47,24,14,Improv_Melody,394,1,38,54,3138370308
47,24,14,Improv_Melody,395,1,48,48,3138386744
47,24,14,Improv_Melody,396,1,38,51,3138627648
47,24,14,Improv_Melody,397,5,42,110,3138861440
47,24,14,Improv_Melody,398,1,38,54,3138877720
47,24,14,Improv_Melody,399,1,38,49,3139103916
47,24,14,Improv_Melody,400,1,48,58,3139334064
47,24,14,Improv_Melody,401,1,38,71,3139352148
47,24,14,Improv_Melody,402,2,41,80,3139364488
47,24,14,Improv_Melody,403,2,65,80,3139366864
47,24,14,Improv_Melody,404,5,42,127,3139369476
47,24,14,Improv_Melody,405,1,38,38,3139599064
47,24,14,Improv_Melody,406,1,38,65,3139848068
47,24,14,Improv_Melody,407,5,42,110,3139862096
47,24,14,Improv_Melody,408,1,38,47,3140092464
47,24,14,Improv_Melody,409,1,38,72,3140338700
47,24,14,Improv_Melody,410,1,48,51,3140349976
47,24,14,Improv_Melody,411,5,42,110,3140361460
47,24,14,Improv_Melody,412,1,38,46,3140587804
47,24,14,Improv_Melody,413,1,38,44,3140851420
47,24,14,Improv_Melody,414,5,42,110,3140862304
47,24,14,Improv_Melody,415,1,38,54,3141093168
47,24,14,Improv_Melody,416,1,38,62,3141350924
47,24,14,Improv_Melody,417,1,48,48,3141353444
47,24,14,Improv_Melody,418,5,42,127,3141362040
47,24,14,Improv_Melody,419,1,38,57,3141593176
47,24,14,Improv_Melody,420,1,38,50,3141854744
47,24,14,Improv_Melody,421,5,42,110,3141861888
47,24,14,Improv_Melody,422,1,38,55,3142097040
47,24,14,Improv_Melody,423,1,38,67,3142340812
47,24,14,Improv_Melody,424,1,48,55,3142346176
47,24,14,Improv_Melody,425,5,42,110,3142361548
47,24,14,Improv_Melody,426,1,38,56,3142579544
47,24,14,Improv_Melody,427,1,38,55,3142829892
47,24,14,Improv_Melody,428,5,42,110,3142862172
47,24,14,Improv_Melody,429,1,38,56,3143070316
47,24,14,Improv_Melody,430,1,48,56,3143324408
47,24,14,Improv_Melody,431,1,38,69,3143332616
47,24,14,Improv_Melody,432,2,48,80,3143364404
47,24,14,Improv_Melody,433,2,72,80,3143366712
47,24,14,Improv_Melody,434,5,42,127,3143369320
47,24,14,Improv_Melody,435,1,38,60,3143573104
47,24,14,Improv_Melody,436,1,38,62,3143834824
47,24,14,Improv_Melody,437,5,42,110,3143861788
47,24,14,Improv_Melody,438,1,38,58,3144085272
47,24,14,Improv_Melody,439,1,48,55,3144335700
47,24,14,Improv_Melody,440,1,38,65,3144338968
47,24,14,Improv_Melody,441,5,42,110,3144362348
47,24,14,Improv_Melody,442,1,38,54,3144588804
47,24,14,Improv_Melody,443,1,38,51,3144854640
47,24,14,Improv_Melody,444,5,42,110,3144862084
47,24,14,Improv_Melody,445,1,38,40,3145082572
47,24,14,Improv_Melody,446,1,38,77,3145350280
47,24,14,Improv_Melody,447,1,48,51,3145353548
47,24,14,Improv_Melody,448,5,42,127,3145361888
47,24,14,Improv_Melody,449,1,38,40,3145598356
47,24,14,Improv_Melody,450,1,38,55,3145856120
47,24,14,Improv_Melody,451,5,42,110,3145861468
47,24,14,Improv_Melody,452,1,38,57,3146098788
47,24,14,Improv_Melody,453,1,48,54,3146345624
47,24,14,Improv_Melody,454,1,38,70,3146348892
47,24,14,Improv_Melody,455,5,42,110,3146362096
47,24,14,Improv_Melody,456,1,38,48,3146615468
47,24,14,Improv_Melody,457,5,42,110,3146861828
47,24,14,Improv_Melody,458,1,38,37,3146872652
47,24,14,Improv_Melody,459,1,38,51,3147117316
47,24,14,Improv_Melody,460,2,43,80,3147364312
47,24,14,Improv_Melody,461,2,67,80,3147366540
47,24,14,Improv_Melody,462,5,42,127,3147368924
47,24,14,Improv_Melody,463,1,38,70,3147374812
47,24,14,Improv_Melody,464,1,48,55,3147393864
47,24,14,Improv_Melody,465,1,38,46,3147633344
47,24,14,Improv_Melody,466,5,42,110,3147862648
47,24,14,Improv_Melody,467,1,38,50,3147883944
47,24,14,Improv_Melody,468,1,38,53,3148134892
47,24,14,Improv_Melody,469,5,42,110,3148362028
47,24,14,Improv_Melody,470,1,38,76,3148377560
47,24,14,Improv_Melody,471,1,48,47,3148380760
47,24,14,Improv_Melody,472,1,38,54,3148645140
47,24,14,Improv_Melody,473,5,42,110,3148861736
47,24,14,Improv_Melody,474,1,38,50,3148887516
47,24,14,Improv_Melody,475,1,38,55,3149128888
47,24,14,Improv_Melody,476,5,42,127,3149361636
47,24,14,Improv_Melody,477,1,38,66,3149379936
47,24,14,Improv_Melody,478,1,48,54,3149383208
47,24,14,Improv_Melody,479,1,38,58,3149623956
47,24,14,Improv_Melody,480,5,42,110,3149862240
47,24,14,Improv_Melody,481,1,38,67,3149872984
47,24,14,Improv_Melody,482,1,48,29,3149906104
47,24,14,Improv_Melody,483,1,38,39,3150136900
47,24,14,Improv_Melody,484,5,42,110,3150361944
47,24,14,Improv_Melody,485,1,48,47,3150367452
47,24,14,Improv_Melody,486,1,38,68,3150383740
47,24,14,Improv_Melody,487,1,38,48,3150644684
47,24,14,Improv_Melody,488,5,42,110,3150861796
47,24,14,Improv_Melody,489,1,38,56,3150882640
47,24,14,Improv_Melody,490,1,38,59,3151120272
47,24,14,Improv_Melody,491,1,48,53,3151363312
47,24,14,Improv_Melody,492,2,45,80,3151366604
47,24,14,Improv_Melody,493,2,69,80,3151368680
47,24,14,Improv_Melody,494,5,42,127,3151371140
47,24,14,Improv_Melody,495,1,38,69,3151372032
47,24,14,Improv_Melody,496,1,38,67,3151617256
47,24,14,Improv_Melody,497,5,42,110,3151862044
47,24,14,Improv_Melody,498,1,38,59,3151879820
47,24,14,Improv_Melody,499,1,38,63,3152119324
47,24,14,Improv_Melody,500,5,42,110,3152361696
47,24,14,Improv_Melody,501,1,48,53,3152363708
47,24,14,Improv_Melody,502,1,38,63,3152367272
47,24,14,Improv_Melody,503,1,38,62,3152610240
47,24,14,Improv_Melody,504,5,42,110,3152861612
47,24,14,Improv_Melody,505,1,38,52,3152864284
47,24,14,Improv_Melody,506,1,38,57,3153108868
47,24,14,Improv_Melody,507,1,48,50,3153360892
47,24,14,Improv_Melody,508,5,42,127,3153362700
47,24,14,Improv_Melody,509,1,38,71,3153370388
47,24,14,Improv_Melody,510,1,38,52,3153625044
47,24,14,Improv_Melody,511,1,48,48,3153854756
47,24,14,Improv_Melody,512,1,38,70,3153860216
47,24,14,Improv_Melody,513,5,42,110,3153863520
47,24,14,Improv_Melody,514,1,38,49,3154136348
47,24,14,Improv_Melody,515,1,48,46,3154360628
47,24,14,Improv_Melody,516,5,42,110,3154362504
47,24,14,Improv_Melody,517,1,38,62,3154390304
47,24,14,Improv_Melody,518,1,48,38,3154640548
47,24,14,Improv_Melody,519,1,38,55,3154646512
47,24,14,Improv_Melody,520,5,42,110,3154861576
47,24,14,Improv_Melody,521,1,38,50,3154887060
47,24,14,Improv_Melody,522,1,38,45,3155128736
47,24,14,Improv_Melody,523,2,41,80,3155364732
47,24,14,Improv_Melody,524,2,65,80,3155366808
47,24,14,Improv_Melody,525,5,42,127,3155369492
47,24,14,Improv_Melody,526,1,38,67,3155370464
47,24,14,Improv_Melody,527,1,48,46,3155374628
47,24,14,Improv_Melody,528,1,38,56,3155636696
47,24,14,Improv_Melody,529,5,42,110,3155861736
47,24,14,Improv_Melody,530,1,38,57,3155882060
47,24,14,Improv_Melody,531,1,38,57,3156121336
47,24,14,Improv_Melody,532,5,42,110,3156361564
47,24,14,Improv_Melody,533,1,48,51,3156369916
47,24,14,Improv_Melody,534,1,38,62,3156373260
47,24,14,Improv_Melody,535,1,38,55,3156619916
47,24,14,Improv_Melody,536,5,42,110,3156862536
47,24,14,Improv_Melody,537,1,38,49,3156877700
47,24,14,Improv_Melody,538,1,38,46,3157120420
47,24,14,Improv_Melody,539,1,48,55,3157349224
47,24,14,Improv_Melody,540,5,42,127,3157361984
47,24,14,Improv_Melody,541,1,38,75,3157371164
47,24,14,Improv_Melody,542,1,38,53,3157609064
47,24,14,Improv_Melody,543,5,42,110,3157861636
47,24,14,Improv_Melody,544,1,38,60,3157882852
47,24,14,Improv_Melody,545,1,48,56,3157887620
47,24,14,Improv_Melody,546,1,38,39,3158133836
47,24,14,Improv_Melody,547,5,42,110,3158361640
47,24,14,Improv_Melody,548,1,48,49,3158370140
47,24,14,Improv_Melody,549,1,38,76,3158398544
47,24,14,Improv_Melody,550,1,38,49,3158649096
47,24,14,Improv_Melody,551,5,42,110,3158862464
47,24,14,Improv_Melody,552,1,38,59,3158905080
47,24,14,Improv_Melody,553,1,38,62,3159146448
47,24,14,Improv_Melody,554,1,48,50,3159362708
47,24,14,Improv_Melody,555,2,48,80,3159365932
47,24,14,Improv_Melody,556,2,72,80,3159368080
47,24,14,Improv_Melody,557,5,42,127,3159370768
47,24,14,Improv_Melody,558,1,38,82,3159375984
47,24,14,Improv_Melody,559,1,38,66,3159621588
47,24,14,Improv_Melody,560,1,38,54,3159859144
47,24,14,Improv_Melody,561,5,42,110,3159861808
47,24,14,Improv_Melody,562,1,38,57,3160123440
47,24,14,Improv_Melody,0,9999,9999,9999,3079359604
47,24,14,Improv_Melody,1,9999,9999,9999,3079859308
47,24,14,Improv_Melody,2,9999,9999,9999,3080360000
47,24,14,Improv_Melody,3,9999,9999,9999,3080859724
47,24,14,Improv_Melody,4,9999,9999,9999,3081359444
47,24,14,Improv_Melody,5,9999,9999,9999,3081859168
47,24,14,Improv_Melody,6,9999,9999,9999,3082359860
47,24,14,Improv_Melody,7,9999,9999,9999,3082859584
47,24,14,Improv_Melody,8,9999,9999,9999,3083359352
47,24,14,Improv_Melody,9,9999,9999,9999,3083860064
47,24,14,Improv_Melody,10,9999,9999,9999,3084359800
47,24,14,Improv_Melody,11,9999,9999,9999,3084859448
47,24,14,Improv_Melody,12,9999,9999,9999,3085359200
47,24,14,Improv_Melody,13,9999,9999,9999,3085859960
47,24,14,Improv_Melody,14,9999,9999,9999,3086359608
47,24,14,Improv_Melody,15,9999,9999,9999,3086859360
47,24,14,Improv_Melody,16,9999,9999,9999,3087360064
47,24,14,Improv_Melody,17,9999,9999,9999,3087859800
47,24,14,Improv_Melody,18,9999,9999,9999,3088359508
47,24,14,Improv_Melody,19,9999,9999,9999,3088859236
47,24,14,Improv_Melody,20,9999,9999,9999,3089359940
47,24,14,Improv_Melody,21,9999,9999,9999,3089859652
47,24,14,Improv_Melody,22,9999,9999,9999,3090359420
47,24,14,Improv_Melody,23,9999,9999,9999,3090859096
47,24,14,Improv_Melody,24,9999,9999,9999,3091359824
47,24,14,Improv_Melody,25,9999,9999,9999,3091859512
47,24,14,Improv_Melody,26,9999,9999,9999,3092359232
47,24,14,Improv_Melody,27,9999,9999,9999,3092860020
47,24,14,Improv_Melody,28,9999,9999,9999,3093359680
47,24,14,Improv_Melody,29,9999,9999,9999,3093859404
47,24,14,Improv_Melody,30,9999,9999,9999,3094359136
47,24,14,Improv_Melody,31,9999,9999,9999,3094859836
47,24,14,Improv_Melody,32,9999,9999,9999,3095359568
47,24,14,Improv_Melody,33,9999,9999,9999,3095859304
47,24,14,Improv_Melody,34,9999,9999,9999,3096360032
47,24,14,Improv_Melody,35,9999,9999,9999,3096859712
47,24,14,Improv_Melody,36,9999,9999,9999,3097359456
47,24,14,Improv_Melody,37,9999,9999,9999,3097859180
47,24,14,Improv_Melody,38,9999,9999,9999,3098359904
47,24,14,Improv_Melody,39,9999,9999,9999,3098859632
47,24,14,Improv_Melody,40,9999,9999,9999,3099359312
47,24,14,Improv_Melody,41,9999,9999,9999,3099860056
47,24,14,Improv_Melody,42,9999,9999,9999,3100359736
47,24,14,Improv_Melody,43,9999,9999,9999,3100859488
47,24,14,Improv_Melody,44,9999,9999,9999,3101359160
47,24,14,Improv_Melody,45,9999,9999,9999,3101859924
47,24,14,Improv_Melody,46,9999,9999,9999,3102359672
47,24,14,Improv_Melody,47,9999,9999,9999,3102859352
47,24,14,Improv_Melody,48,9999,9999,9999,3103360080
47,24,14,Improv_Melody,49,9999,9999,9999,3103859768
47,24,14,Improv_Melody,50,9999,9999,9999,3104359520
47,24,14,Improv_Melody,51,9999,9999,9999,3104859208
47,24,14,Improv_Melody,52,9999,9999,9999,3105359928
47,24,14,Improv_Melody,53,9999,9999,9999,3105859680
47,24,14,Improv_Melody,54,9999,9999,9999,3106359412
47,24,14,Improv_Melody,55,9999,9999,9999,3106859064
47,24,14,Improv_Melody,56,9999,9999,9999,3107359864
47,24,14,Improv_Melody,57,9999,9999,9999,3107859556
47,24,14,Improv_Melody,58,9999,9999,9999,3108359236
47,24,14,Improv_Melody,59,9999,9999,9999,3108859968
47,24,14,Improv_Melody,60,9999,9999,9999,3109359716
47,24,14,Improv_Melody,61,9999,9999,9999,3109859384
47,24,14,Improv_Melody,62,9999,9999,9999,3110359132
47,24,14,Improv_Melody,63,9999,9999,9999,3110859856
47,24,14,Improv_Melody,64,9999,9999,9999,3111359608
47,24,14,Improv_Melody,65,9999,9999,9999,3111859300
47,24,14,Improv_Melody,66,9999,9999,9999,3112360032
47,24,14,Improv_Melody,67,9999,9999,9999,3112859712
47,24,14,Improv_Melody,68,9999,9999,9999,3113359460
47,24,14,Improv_Melody,69,9999,9999,9999,3113859136
47,24,14,Improv_Melody,70,9999,9999,9999,3114359860
47,24,14,Improv_Melody,71,9999,9999,9999,3114859608
47,24,14,Improv_Melody,72,9999,9999,9999,3115359344
47,24,14,Improv_Melody,73,9999,9999,9999,3115860080
47,24,14,Improv_Melody,74,9999,9999,9999,3116359760
47,24,14,Improv_Melody,75,9999,9999,9999,3116859516
47,24,14,Improv_Melody,76,9999,9999,9999,3117359200
47,24,14,Improv_Melody,77,9999,9999,9999,3117859924
47,24,14,Improv_Melody,78,9999,9999,9999,3118359668
47,24,14,Improv_Melody,79,9999,9999,9999,3118859356
47,24,14,Improv_Melody,80,9999,9999,9999,3119360076
47,24,14,Improv_Melody,81,9999,9999,9999,3119859764
47,24,14,Improv_Melody,82,9999,9999,9999,3120359492
47,24,14,Improv_Melody,83,9999,9999,9999,3120859216
47,24,14,Improv_Melody,84,9999,9999,9999,3121359996
47,24,14,Improv_Melody,85,9999,9999,9999,3121859648
47,24,14,Improv_Melody,86,9999,9999,9999,3122359380
47,24,14,Improv_Melody,87,9999,9999,9999,3122859104
47,24,14,Improv_Melody,88,9999,9999,9999,3123359888
47,24,14,Improv_Melody,89,9999,9999,9999,3123859528
47,24,14,Improv_Melody,90,9999,9999,9999,3124359252
47,24,14,Improv_Melody,91,9999,9999,9999,3124860020
47,24,14,Improv_Melody,92,9999,9999,9999,3125359716
47,24,14,Improv_Melody,93,9999,9999,9999,3125859412
47,24,14,Improv_Melody,94,9999,9999,9999,3126359148
47,24,14,Improv_Melody,95,9999,9999,9999,3126859844
47,24,14,Improv_Melody,96,9999,9999,9999,3127359576
47,24,14,Improv_Melody,97,9999,9999,9999,3127859320
47,24,14,Improv_Melody,98,9999,9999,9999,3128360048
47,24,14,Improv_Melody,99,9999,9999,9999,3128859752
47,24,14,Improv_Melody,100,9999,9999,9999,3129359432
47,24,14,Improv_Melody,101,9999,9999,9999,3129859136
47,24,14,Improv_Melody,102,9999,9999,9999,3130359860
47,24,14,Improv_Melody,103,9999,9999,9999,3130859572
47,24,14,Improv_Melody,104,9999,9999,9999,3131359300
47,24,14,Improv_Melody,105,9999,9999,9999,3131860064
47,24,14,Improv_Melody,106,9999,9999,9999,3132359744
47,24,14,Improv_Melody,107,9999,9999,9999,3132859448
47,24,14,Improv_Melody,108,9999,9999,9999,3133359200
47,24,14,Improv_Melody,109,9999,9999,9999,3133859952
47,24,14,Improv_Melody,110,9999,9999,9999,3134359632
47,24,14,Improv_Melody,111,9999,9999,9999,3134859336
47,24,14,Improv_Melody,112,9999,9999,9999,3135360060
47,24,14,Improv_Melody,113,9999,9999,9999,3135859792
47,24,14,Improv_Melody,114,9999,9999,9999,3136359548
47,24,14,Improv_Melody,115,9999,9999,9999,3136859252
47,24,14,Improv_Melody,116,9999,9999,9999,3137359972
47,24,14,Improv_Melody,117,9999,9999,9999,3137859688
47,24,14,Improv_Melody,118,9999,9999,9999,3138359364
47,24,14,Improv_Melody,119,9999,9999,9999,3138859072
47,24,14,Improv_Melody,120,9999,9999,9999,3139359844
47,24,14,Improv_Melody,121,9999,9999,9999,3139859508
47,24,14,Improv_Melody,122,9999,9999,9999,3140359240
47,24,14,Improv_Melody,123,9999,9999,9999,3140860012
47,24,14,Improv_Melody,124,9999,9999,9999,3141359672
47,24,14,Improv_Melody,125,9999,9999,9999,3141859448
47,24,14,Improv_Melody,126,9999,9999,9999,3142359108
47,24,14,Improv_Melody,127,9999,9999,9999,3142859876
47,24,14,Improv_Melody,128,9999,9999,9999,3143359608
47,24,14,Improv_Melody,129,9999,9999,9999,3143859272
47,24,14,Improv_Melody,130,9999,9999,9999,3144360052
47,24,14,Improv_Melody,131,9999,9999,9999,3144859716
47,24,14,Improv_Melody,132,9999,9999,9999,3145359448
47,24,14,Improv_Melody,133,9999,9999,9999,3145859176
47,24,14,Improv_Melody,134,9999,9999,9999,3146359880
47,24,14,Improv_Melody,135,9999,9999,9999,3146859608
47,24,14,Improv_Melody,136,9999,9999,9999,3147359288
47,24,14,Improv_Melody,137,9999,9999,9999,3147860056
47,24,14,Improv_Melody,138,9999,9999,9999,3148359736
47,24,14,Improv_Melody,139,9999,9999,9999,3148859516
47,24,14,Improv_Melody,140,9999,9999,9999,3149359192
47,24,14,Improv_Melody,141,9999,9999,9999,3149859944
47,24,14,Improv_Melody,142,9999,9999,9999,3150359648
47,24,14,Improv_Melody,143,9999,9999,9999,3150859352
47,24,14,Improv_Melody,144,9999,9999,9999,3151360080
47,24,14,Improv_Melody,145,9999,9999,9999,3151859824
47,24,14,Improv_Melody,146,9999,9999,9999,3152359476
47,24,14,Improv_Melody,147,9999,9999,9999,3152859244
47,24,14,Improv_Melody,148,9999,9999,9999,3153359968
47,24,14,Improv_Melody,149,9999,9999,9999,3153859680
47,24,14,Improv_Melody,150,9999,9999,9999,3154359392
47,24,14,Improv_Melody,151,9999,9999,9999,3154859060
47,24,14,Improv_Melody,152,9999,9999,9999,3155359860
47,24,14,Improv_Melody,153,9999,9999,9999,3155859516
47,24,14,Improv_Melody,154,9999,9999,9999,3156359268
47,24,14,Improv_Melody,155,9999,9999,9999,3156860020
47,24,14,Improv_Melody,156,9999,9999,9999,3157359692
47,24,14,Improv_Melody,157,9999,9999,9999,3157859416
47,24,14,Improv_Melody,158,9999,9999,9999,3158359120
47,24,14,Improv_Melody,159,9999,9999,9999,3158859872
47,24,14,Improv_Melody,160,9999,9999,9999,3159359552
47,24,14,Improv_Melody,161,9999,9999,9999,3159859292
