taskRunCount,taskID,taskName,i,channel,pitch,velocity,microseconds
1,0,Ticks_Pract_8,0,5,42,127,732391764
1,0,Ticks_Pract_8,1,5,42,127,733191596
1,0,Ticks_Pract_8,2,1,48,48,733265644
1,0,Ticks_Pract_8,3,1,48,24,733965856
1,0,Ticks_Pract_8,4,5,42,127,733992544
1,0,Ticks_Pract_8,5,1,48,21,734006724
1,0,Ticks_Pract_8,6,5,42,127,734792188
1,0,Ticks_Pract_8,7,1,48,48,734798820
1,0,Ticks_Pract_8,8,1,48,41,735573628
1,0,Ticks_Pract_8,9,5,42,127,735591692
1,0,Ticks_Pract_8,10,5,42,127,736391504
1,0,Ticks_Pract_8,11,1,48,44,736405240
1,0,Ticks_Pract_8,12,1,48,42,737183716
1,0,Ticks_Pract_8,13,5,42,127,737192352
1,0,Ticks_Pract_8,14,1,48,38,737973580
1,0,Ticks_Pract_8,15,5,42,127,737992460
1,0,Ticks_Pract_8,16,1,48,47,738780348
1,0,Ticks_Pract_8,17,5,42,127,738791820
1,0,Ticks_Pract_8,18,1,48,38,739537372
1,0,Ticks_Pract_8,19,5,42,127,739591556
1,0,Ticks_Pract_8,20,1,48,45,740355724
1,0,Ticks_Pract_8,21,5,42,127,740392360
1,0,Ticks_Pract_8,22,1,48,48,741171188
1,0,Ticks_Pract_8,23,5,42,127,741192240
1,0,Ticks_Pract_8,24,1,48,49,741952372
1,0,Ticks_Pract_8,25,5,42,127,741991828
1,0,Ticks_Pract_8,26,1,48,49,742757944
1,0,Ticks_Pract_8,27,5,42,127,742791412
1,0,Ticks_Pract_8,28,1,48,42,743567700
1,0,Ticks_Pract_8,29,5,42,127,743592264
1,0,Ticks_Pract_8,30,1,48,47,744349932
1,0,Ticks_Pract_8,31,5,42,127,744392444
1,0,Ticks_Pract_8,32,1,48,43,745142104
1,0,Ticks_Pract_8,33,5,42,127,745191660
1,0,Ticks_Pract_8,34,1,48,48,745914236
1,0,Ticks_Pract_8,35,5,42,127,745991540
1,0,Ticks_Pract_8,36,1,48,48,746766256
1,0,Ticks_Pract_8,37,5,42,127,746792196
1,0,Ticks_Pract_8,38,1,48,53,747569980
1,0,Ticks_Pract_8,39,5,42,127,747592080
1,0,Ticks_Pract_8,40,1,48,46,748341140
1,0,Ticks_Pract_8,41,5,42,127,748391740
1,0,Ticks_Pract_8,42,1,48,45,749131448
1,0,Ticks_Pract_8,43,5,42,127,749191472
1,0,Ticks_Pract_8,44,1,48,43,749932080
1,0,Ticks_Pract_8,45,5,42,127,749992252
1,0,Ticks_Pract_8,46,1,48,51,750732564
1,0,Ticks_Pract_8,47,5,42,127,750791988
1,0,Ticks_Pract_8,48,1,48,42,751566032
1,0,Ticks_Pract_8,49,5,42,127,751592016
1,0,Ticks_Pract_8,50,1,48,38,752368908
1,0,Ticks_Pract_8,51,5,42,127,752391452
1,0,Ticks_Pract_8,52,1,48,50,753172376
1,0,Ticks_Pract_8,53,5,42,127,753192332
1,0,Ticks_Pract_8,54,1,48,54,753962264
1,0,Ticks_Pract_8,55,5,42,127,753991916
1,0,Ticks_Pract_8,56,1,48,48,754748832
1,0,Ticks_Pract_8,57,5,42,127,754792096
1,0,Ticks_Pract_8,58,1,48,51,755505108
1,0,Ticks_Pract_8,59,5,42,127,755591536
1,0,Ticks_Pract_8,60,1,48,46,756374556
1,0,Ticks_Pract_8,0,9999,9999,9999,732389476
1,0,Ticks_Pract_8,1,9999,9999,9999,733189232
1,0,Ticks_Pract_8,2,9999,9999,9999,733989960
1,0,Ticks_Pract_8,3,9999,9999,9999,734789752
1,0,Ticks_Pract_8,4,9999,9999,9999,735589476
1,0,Ticks_Pract_8,5,9999,9999,9999,736389216
1,0,Ticks_Pract_8,6,9999,9999,9999,737189992
1,0,Ticks_Pract_8,7,9999,9999,9999,737989724
1,0,Ticks_Pract_8,8,9999,9999,9999,738789460
1,0,Ticks_Pract_8,9,9999,9999,9999,739589196
1,0,Ticks_Pract_8,10,9999,9999,9999,740389996
1,0,Ticks_Pract_8,11,9999,9999,9999,741189732
1,0,Ticks_Pract_8,12,9999,9999,9999,741989464
1,0,Ticks_Pract_8,13,9999,9999,9999,742789196
1,0,Ticks_Pract_8,14,9999,9999,9999,743589976
1,0,Ticks_Pract_8,15,9999,9999,9999,744389712
1,0,Ticks_Pract_8,16,9999,9999,9999,745189444
1,0,Ticks_Pract_8,17,9999,9999,9999,745989180
1,0,Ticks_Pract_8,18,9999,9999,9999,746789984
1,0,Ticks_Pract_8,19,9999,9999,9999,747589716
1,0,Ticks_Pract_8,20,9999,9999,9999,748389452
1,0,Ticks_Pract_8,21,9999,9999,9999,749189184
1,0,Ticks_Pract_8,22,9999,9999,9999,749989964
1,0,Ticks_Pract_8,23,9999,9999,9999,750789700
1,0,Ticks_Pract_8,24,9999,9999,9999,751589432
1,0,Ticks_Pract_8,25,9999,9999,9999,752389240
1,0,Ticks_Pract_8,26,9999,9999,9999,753189972
1,0,Ticks_Pract_8,27,9999,9999,9999,753989704
1,0,Ticks_Pract_8,28,9999,9999,9999,754789436
1,0,Ticks_Pract_8,29,9999,9999,9999,755589172
2,1,Ticks_Pract_5,0,5,42,127,779492852
2,1,Ticks_Pract_5,1,5,42,127,779992348
2,1,Ticks_Pract_5,2,5,42,127,780493260
2,1,Ticks_Pract_5,3,5,42,127,780992972
2,1,Ticks_Pract_5,4,1,48,51,781490496
2,1,Ticks_Pract_5,5,5,42,127,781492608
2,1,Ticks_Pract_5,6,1,48,57,781970052
2,1,Ticks_Pract_5,7,5,42,127,781993424
2,1,Ticks_Pract_5,8,1,48,46,782456580
2,1,Ticks_Pract_5,9,5,42,127,782493120
2,1,Ticks_Pract_5,10,1,48,60,782938628
2,1,Ticks_Pract_5,11,5,42,127,782992740
2,1,Ticks_Pract_5,12,1,48,56,783475268
2,1,Ticks_Pract_5,13,5,42,127,783492360
2,1,Ticks_Pract_5,14,1,48,55,783955368
2,1,Ticks_Pract_5,15,5,42,127,783993324
2,1,Ticks_Pract_5,16,1,48,51,784445112
2,1,Ticks_Pract_5,17,5,42,127,784492944
2,1,Ticks_Pract_5,18,1,48,57,784948624
2,1,Ticks_Pract_5,19,5,42,127,784992564
2,1,Ticks_Pract_5,20,1,48,59,785447720
2,1,Ticks_Pract_5,21,5,42,127,785493452
2,1,Ticks_Pract_5,22,1,48,58,785990124
2,1,Ticks_Pract_5,23,5,42,127,785993076
2,1,Ticks_Pract_5,24,1,48,55,786491720
2,1,Ticks_Pract_5,25,5,42,127,786493520
2,1,Ticks_Pract_5,26,1,48,51,786974856
2,1,Ticks_Pract_5,27,5,42,127,786992540
2,1,Ticks_Pract_5,28,1,48,54,787479760
2,1,Ticks_Pract_5,29,5,42,127,787493280
2,1,Ticks_Pract_5,30,1,48,54,787978632
2,1,Ticks_Pract_5,31,5,42,127,787992952
2,1,Ticks_Pract_5,32,1,48,54,788477432
2,1,Ticks_Pract_5,33,5,42,127,788492868
2,1,Ticks_Pract_5,34,1,48,54,788975100
2,1,Ticks_Pract_5,35,5,42,127,788993388
2,1,Ticks_Pract_5,36,5,42,127,789493164
2,1,Ticks_Pract_5,37,1,48,52,789505408
2,1,Ticks_Pract_5,38,5,42,127,789993008
2,1,Ticks_Pract_5,39,1,48,53,790006448
2,1,Ticks_Pract_5,40,5,42,127,790492404
2,1,Ticks_Pract_5,41,1,48,50,790501880
2,1,Ticks_Pract_5,42,5,42,127,790993368
2,1,Ticks_Pract_5,43,1,48,44,791020872
2,1,Ticks_Pract_5,44,5,42,127,791492988
2,1,Ticks_Pract_5,45,1,48,57,791531184
2,1,Ticks_Pract_5,46,5,42,127,791992756
2,1,Ticks_Pract_5,47,1,48,54,791995504
2,1,Ticks_Pract_5,48,1,48,54,792491068
2,1,Ticks_Pract_5,49,5,42,127,792493416
2,1,Ticks_Pract_5,50,1,48,50,792980588
2,1,Ticks_Pract_5,51,5,42,127,792993112
2,1,Ticks_Pract_5,52,1,48,43,793453204
2,1,Ticks_Pract_5,53,5,42,127,793492808
2,1,Ticks_Pract_5,54,1,48,46,793941304
2,1,Ticks_Pract_5,55,5,42,127,793992800
2,1,Ticks_Pract_5,56,1,48,58,794447960
2,1,Ticks_Pract_5,57,5,42,127,794493168
2,1,Ticks_Pract_5,58,1,48,55,794947728
2,1,Ticks_Pract_5,59,5,42,127,794992860
2,1,Ticks_Pract_5,60,1,48,59,795465744
2,1,Ticks_Pract_5,61,5,42,127,795492776
2,1,Ticks_Pract_5,62,1,48,54,795985408
2,1,Ticks_Pract_5,63,5,42,127,795992772
2,1,Ticks_Pract_5,64,1,48,54,796490564
2,1,Ticks_Pract_5,65,5,42,127,796493140
2,1,Ticks_Pract_5,66,5,42,127,796992840
2,1,Ticks_Pract_5,67,1,48,44,797008156
2,1,Ticks_Pract_5,68,1,48,54,797490720
2,1,Ticks_Pract_5,69,5,42,127,797492752
2,1,Ticks_Pract_5,70,1,48,56,797984788
2,1,Ticks_Pract_5,71,5,42,127,797993348
2,1,Ticks_Pract_5,72,1,48,51,798483856
2,1,Ticks_Pract_5,73,5,42,127,798493040
2,1,Ticks_Pract_5,74,5,42,127,798992792
2,1,Ticks_Pract_5,75,1,48,50,799002368
2,1,Ticks_Pract_5,76,1,48,46,799475316
2,1,Ticks_Pract_5,0,9999,9999,9999,779490416
2,1,Ticks_Pract_5,1,9999,9999,9999,779990136
2,1,Ticks_Pract_5,2,9999,9999,9999,780490824
2,1,Ticks_Pract_5,3,9999,9999,9999,780990540
2,1,Ticks_Pract_5,4,9999,9999,9999,781490288
2,1,Ticks_Pract_5,5,9999,9999,9999,781990988
2,1,Ticks_Pract_5,6,9999,9999,9999,782490684
2,1,Ticks_Pract_5,7,9999,9999,9999,782990452
2,1,Ticks_Pract_5,8,9999,9999,9999,783490148
2,1,Ticks_Pract_5,9,9999,9999,9999,783990888
2,1,Ticks_Pract_5,10,9999,9999,9999,784490584
2,1,Ticks_Pract_5,11,9999,9999,9999,784990276
2,1,Ticks_Pract_5,12,9999,9999,9999,785491020
2,1,Ticks_Pract_5,13,9999,9999,9999,785990716
2,1,Ticks_Pract_5,14,9999,9999,9999,786490488
2,1,Ticks_Pract_5,15,9999,9999,9999,786990180
2,1,Ticks_Pract_5,16,9999,9999,9999,787490920
2,1,Ticks_Pract_5,17,9999,9999,9999,787990592
2,1,Ticks_Pract_5,18,9999,9999,9999,788490360
2,1,Ticks_Pract_5,19,9999,9999,9999,788991028
2,1,Ticks_Pract_5,20,9999,9999,9999,789490800
2,1,Ticks_Pract_5,21,9999,9999,9999,789990496
2,1,Ticks_Pract_5,22,9999,9999,9999,790490192
2,1,Ticks_Pract_5,23,9999,9999,9999,790990932
2,1,Ticks_Pract_5,24,9999,9999,9999,791490628
2,1,Ticks_Pract_5,25,9999,9999,9999,791990320
2,1,Ticks_Pract_5,26,9999,9999,9999,792491132
2,1,Ticks_Pract_5,27,9999,9999,9999,792990824
2,1,Ticks_Pract_5,28,9999,9999,9999,793490520
2,1,Ticks_Pract_5,29,9999,9999,9999,793990216
2,1,Ticks_Pract_5,30,9999,9999,9999,794490956
2,1,Ticks_Pract_5,31,9999,9999,9999,794990648
2,1,Ticks_Pract_5,32,9999,9999,9999,795490416
2,1,Ticks_Pract_5,33,9999,9999,9999,795990112
2,1,Ticks_Pract_5,34,9999,9999,9999,796490856
2,1,Ticks_Pract_5,35,9999,9999,9999,796990556
2,1,Ticks_Pract_5,36,9999,9999,9999,797490268
2,1,Ticks_Pract_5,37,9999,9999,9999,797990984
2,1,Ticks_Pract_5,38,9999,9999,9999,798490680
2,1,Ticks_Pract_5,39,9999,9999,9999,798990432
3,2,T1_SMS_8,0,5,42,127,875786528
3,2,T1_SMS_8,1,1,48,44,876187772
3,2,T1_SMS_8,2,5,42,127,876587408
3,2,T1_SMS_8,3,1,48,46,876811252
3,2,T1_SMS_8,4,1,48,40,877371768
3,2,T1_SMS_8,5,5,42,127,877387284
3,2,T1_SMS_8,6,1,48,42,878169260
3,2,T1_SMS_8,7,5,42,127,878186720
3,2,T1_SMS_8,8,1,48,43,878948944
3,2,T1_SMS_8,9,5,42,127,878986676
3,2,T1_SMS_8,10,1,48,45,879741568
3,2,T1_SMS_8,11,5,42,127,879787232
3,2,T1_SMS_8,12,1,48,43,880507868
3,2,T1_SMS_8,13,5,42,127,880587264
3,2,T1_SMS_8,14,1,48,41,881337072
3,2,T1_SMS_8,15,5,42,127,881386848
3,2,T1_SMS_8,16,1,48,35,882171116
3,2,T1_SMS_8,17,5,42,127,882186556
3,2,T1_SMS_8,18,5,42,127,882987516
3,2,T1_SMS_8,19,1,48,40,883007544
3,2,T1_SMS_8,20,1,48,33,883784904
3,2,T1_SMS_8,21,5,42,127,883787316
3,2,T1_SMS_8,22,1,48,43,884579312
3,2,T1_SMS_8,23,5,42,127,884586756
3,2,T1_SMS_8,24,5,42,127,885386496
3,2,T1_SMS_8,25,1,48,54,885391632
3,2,T1_SMS_8,26,5,42,127,886187352
3,2,T1_SMS_8,27,1,48,35,886197648
3,2,T1_SMS_8,28,1,48,45,886959220
3,2,T1_SMS_8,29,5,42,127,886987152
3,2,T1_SMS_8,30,1,48,43,887730676
3,2,T1_SMS_8,31,5,42,127,887786812
3,2,T1_SMS_8,32,1,48,44,888546344
3,2,T1_SMS_8,33,5,42,127,888586620
3,2,T1_SMS_8,34,1,48,46,889353780
3,2,T1_SMS_8,35,5,42,127,889387276
3,2,T1_SMS_8,36,1,48,41,890164980
3,2,T1_SMS_8,37,5,42,127,890187232
3,2,T1_SMS_8,38,1,48,41,890920136
3,2,T1_SMS_8,39,5,42,127,890987036
3,2,T1_SMS_8,40,1,48,42,891721964
3,2,T1_SMS_8,41,5,42,127,891786548
3,2,T1_SMS_8,42,5,42,127,892587336
3,2,T1_SMS_8,43,1,48,46,892609228
3,2,T1_SMS_8,44,5,42,127,893387144
3,2,T1_SMS_8,45,1,48,40,893454512
3,2,T1_SMS_8,46,5,42,127,894187100
3,2,T1_SMS_8,47,1,48,45,894280076
3,2,T1_SMS_8,48,5,42,127,894986608
3,2,T1_SMS_8,49,1,48,29,895094092
3,2,T1_SMS_8,50,5,42,127,895787264
3,2,T1_SMS_8,51,1,48,39,895828008
3,2,T1_SMS_8,52,5,42,127,896587220
3,2,T1_SMS_8,53,1,48,30,896673064
3,2,T1_SMS_8,54,5,42,127,897386880
3,2,T1_SMS_8,55,1,48,31,897402708
3,2,T1_SMS_8,56,1,48,41,898159872
3,2,T1_SMS_8,57,5,42,127,898186608
3,2,T1_SMS_8,58,1,48,41,898932300
3,2,T1_SMS_8,59,5,42,127,898987312
3,2,T1_SMS_8,60,1,48,40,899688276
3,2,T1_SMS_8,61,5,42,127,899786972
3,2,T1_SMS_8,62,1,48,43,900522940
3,2,T1_SMS_8,63,5,42,127,900586780
3,2,T1_SMS_8,64,5,42,127,901386816
3,2,T1_SMS_8,65,1,48,30,901440148
3,2,T1_SMS_8,66,5,42,127,902187324
3,2,T1_SMS_8,67,1,48,44,902190296
3,2,T1_SMS_8,68,5,42,127,902987056
3,2,T1_SMS_8,69,1,48,24,903026904
3,2,T1_SMS_8,70,5,42,127,903786792
3,2,T1_SMS_8,71,1,48,42,903808384
3,2,T1_SMS_8,72,5,42,127,904586824
3,2,T1_SMS_8,73,1,48,41,904606924
3,2,T1_SMS_8,74,5,42,127,905387228
3,2,T1_SMS_8,75,1,48,51,905425648
3,2,T1_SMS_8,76,5,42,127,906187184
3,2,T1_SMS_8,77,1,48,35,906215732
3,2,T1_SMS_8,78,5,42,127,906986844
3,2,T1_SMS_8,79,1,48,42,907063884
3,2,T1_SMS_8,80,5,42,127,907786576
3,2,T1_SMS_8,81,1,48,32,907806776
3,2,T1_SMS_8,82,5,42,127,908587384
3,2,T1_SMS_8,83,1,48,35,908628424
3,2,T1_SMS_8,84,5,42,127,909387116
3,2,T1_SMS_8,85,1,48,46,909404520
3,2,T1_SMS_8,86,1,48,45,910168556
3,2,T1_SMS_8,87,5,42,127,910186992
3,2,T1_SMS_8,88,1,48,46,910944124
3,2,T1_SMS_8,89,5,42,127,910986724
3,2,T1_SMS_8,90,1,48,43,911712596
3,2,T1_SMS_8,91,5,42,127,911787504
3,2,T1_SMS_8,92,1,48,49,912527816
3,2,T1_SMS_8,93,5,42,127,912587088
3,2,T1_SMS_8,94,5,42,127,913386752
3,2,T1_SMS_8,95,1,48,29,913404084
3,2,T1_SMS_8,96,5,42,127,914186560
3,2,T1_SMS_8,97,1,48,45,914199424
3,2,T1_SMS_8,98,1,48,47,914970720
3,2,T1_SMS_8,99,5,42,127,914987284
3,2,T1_SMS_8,100,1,48,46,915765740
3,2,T1_SMS_8,101,5,42,127,915787092
3,2,T1_SMS_8,102,1,48,49,916556872
3,2,T1_SMS_8,103,5,42,127,916586752
3,2,T1_SMS_8,104,1,48,47,917317336
3,2,T1_SMS_8,105,5,42,127,917386560
3,2,T1_SMS_8,106,5,42,127,918187420
3,2,T1_SMS_8,107,1,48,46,918202580
3,2,T1_SMS_8,108,5,42,127,918987228
3,2,T1_SMS_8,109,1,48,52,919048164
3,2,T1_SMS_8,110,1,48,46,919785748
3,2,T1_SMS_8,111,5,42,127,919787552
3,2,T1_SMS_8,112,5,42,127,920586544
3,2,T1_SMS_8,113,1,48,38,920629556
3,2,T1_SMS_8,114,5,42,127,921387496
3,2,T1_SMS_8,115,1,48,43,921432948
3,2,T1_SMS_8,116,5,42,127,922187084
3,2,T1_SMS_8,117,1,48,42,922220340
3,2,T1_SMS_8,118,1,48,41,922963064
3,2,T1_SMS_8,119,5,42,127,922986884
3,2,T1_SMS_8,120,1,48,44,923751728
3,2,T1_SMS_8,121,5,42,127,923786616
3,2,T1_SMS_8,122,1,48,39,924554748
3,2,T1_SMS_8,123,5,42,127,924587320
3,2,T1_SMS_8,124,1,48,35,925349544
3,2,T1_SMS_8,125,5,42,127,925387056
3,2,T1_SMS_8,126,1,48,43,926146136
3,2,T1_SMS_8,127,5,42,127,926187012
3,2,T1_SMS_8,128,1,48,45,926953576
3,2,T1_SMS_8,129,5,42,127,926986596
3,2,T1_SMS_8,130,1,48,37,927732588
3,2,T1_SMS_8,131,5,42,127,927787400
3,2,T1_SMS_8,132,1,48,49,928509880
3,2,T1_SMS_8,133,5,42,127,928587136
3,2,T1_SMS_8,134,1,48,29,929371424
3,2,T1_SMS_8,135,5,42,127,929386940
3,2,T1_SMS_8,136,1,48,38,930171676
3,2,T1_SMS_8,137,5,42,127,930186748
3,2,T1_SMS_8,138,1,48,37,930972532
3,2,T1_SMS_8,139,5,42,127,930987308
3,2,T1_SMS_8,140,1,48,31,931743692
3,2,T1_SMS_8,141,5,42,127,931787116
3,2,T1_SMS_8,142,1,48,22,932563920
3,2,T1_SMS_8,143,5,42,127,932586924
3,2,T1_SMS_8,144,1,48,51,933338452
3,2,T1_SMS_8,145,5,42,127,933386504
3,2,T1_SMS_8,146,1,48,25,933403844
3,2,T1_SMS_8,147,1,48,38,934171920
3,2,T1_SMS_8,148,5,42,127,934187512
3,2,T1_SMS_8,149,1,48,40,934917476
3,2,T1_SMS_8,150,5,42,127,934987020
3,2,T1_SMS_8,151,1,48,37,935770340
3,2,T1_SMS_8,152,5,42,127,935786980
3,2,T1_SMS_8,153,1,48,36,936552572
3,2,T1_SMS_8,154,5,42,127,936586712
3,2,T1_SMS_8,155,1,48,45,937311316
3,2,T1_SMS_8,156,5,42,127,937387344
3,2,T1_SMS_8,157,1,48,43,938126460
3,2,T1_SMS_8,158,5,42,127,938187076
3,2,T1_SMS_8,159,1,48,38,938930228
3,2,T1_SMS_8,160,5,42,127,938986884
3,2,T1_SMS_8,161,1,48,38,939754564
3,2,T1_SMS_8,162,5,42,127,939786684
3,2,T1_SMS_8,163,1,48,44,940566888
3,2,T1_SMS_8,164,5,42,127,940587564
3,2,T1_SMS_8,165,1,48,39,941382624
3,2,T1_SMS_8,166,5,42,127,941387076
3,2,T1_SMS_8,167,1,48,41,942137180
3,2,T1_SMS_8,168,5,42,127,942186884
3,2,T1_SMS_8,169,1,48,42,942961372
3,2,T1_SMS_8,170,5,42,127,942986540
3,2,T1_SMS_8,171,1,48,40,943760208
3,2,T1_SMS_8,172,5,42,127,943787472
3,2,T1_SMS_8,173,1,48,40,944549620
3,2,T1_SMS_8,174,5,42,127,944586984
3,2,T1_SMS_8,175,1,48,46,945293408
3,2,T1_SMS_8,176,5,42,127,945386716
3,2,T1_SMS_8,177,1,48,46,946170256
3,2,T1_SMS_8,178,5,42,127,946186748
3,2,T1_SMS_8,179,5,42,127,946987556
3,2,T1_SMS_8,180,1,48,34,946996132
3,2,T1_SMS_8,181,5,42,127,947786992
3,2,T1_SMS_8,182,1,48,45,947806644
3,2,T1_SMS_8,183,1,48,42,948579580
3,2,T1_SMS_8,184,5,42,127,948586720
3,2,T1_SMS_8,185,1,48,51,949329496
3,2,T1_SMS_8,186,5,42,127,949386604
3,2,T1_SMS_8,187,1,48,28,949395688
3,2,T1_SMS_8,188,1,48,44,950163692
3,2,T1_SMS_8,189,5,42,127,950187584
3,2,T1_SMS_8,190,1,48,37,950979660
3,2,T1_SMS_8,191,5,42,127,950987020
3,2,T1_SMS_8,192,1,48,45,951768400
3,2,T1_SMS_8,193,5,42,127,951786904
3,2,T1_SMS_8,194,1,48,35,952575160
3,2,T1_SMS_8,195,5,42,127,952586568
3,2,T1_SMS_8,196,1,48,40,953349464
3,2,T1_SMS_8,197,5,42,127,953387368
3,2,T1_SMS_8,198,1,48,38,954174952
3,2,T1_SMS_8,199,5,42,127,954187104
3,2,T1_SMS_8,200,1,48,47,954944388
3,2,T1_SMS_8,201,5,42,127,954986840
3,2,T1_SMS_8,202,1,48,40,955751008
3,2,T1_SMS_8,203,5,42,127,955786720
3,2,T1_SMS_8,204,1,48,34,956568468
3,2,T1_SMS_8,205,5,42,127,956587276
3,2,T1_SMS_8,206,5,42,127,957387388
3,2,T1_SMS_8,207,1,48,29,958080296
3,2,T1_SMS_8,208,5,42,127,958187048
3,2,T1_SMS_8,209,1,48,43,958957144
3,2,T1_SMS_8,210,5,42,127,958986576
3,2,T1_SMS_8,211,1,48,46,959710580
3,2,T1_SMS_8,212,5,42,127,959787456
3,2,T1_SMS_8,213,1,48,26,960574436
3,2,T1_SMS_8,214,5,42,127,960587336
3,2,T1_SMS_8,215,5,42,127,961386780
3,2,T1_SMS_8,216,1,48,44,961401116
3,2,T1_SMS_8,217,1,48,43,962140544
3,2,T1_SMS_8,218,5,42,127,962186580
3,2,T1_SMS_8,219,1,48,43,962926964
3,2,T1_SMS_8,220,5,42,127,962987284
3,2,T1_SMS_8,221,1,48,49,963689676
3,2,T1_SMS_8,222,5,42,127,963787092
3,2,T1_SMS_8,223,5,42,127,964586836
3,2,T1_SMS_8,224,1,48,31,964597284
3,2,T1_SMS_8,225,5,42,127,965386492
3,2,T1_SMS_8,226,1,48,46,965441316
3,2,T1_SMS_8,227,1,48,37,966133824
3,2,T1_SMS_8,228,5,42,127,966187288
3,2,T1_SMS_8,229,1,48,38,966962900
3,2,T1_SMS_8,230,5,42,127,966987020
3,2,T1_SMS_8,231,1,48,44,967735412
3,2,T1_SMS_8,232,5,42,127,967787056
3,2,T1_SMS_8,233,1,48,45,968560424
3,2,T1_SMS_8,234,5,42,127,968586568
3,2,T1_SMS_8,235,5,42,127,969387356
3,2,T1_SMS_8,236,1,48,51,969396980
3,2,T1_SMS_8,237,1,48,46,970145528
3,2,T1_SMS_8,238,5,42,127,970187008
3,2,T1_SMS_8,239,1,48,41,970932024
3,2,T1_SMS_8,240,5,42,127,970987036
3,2,T1_SMS_8,241,1,48,40,971745372
3,2,T1_SMS_8,0,9999,9999,9999,875784236
3,2,T1_SMS_8,1,9999,9999,9999,876585044
3,2,T1_SMS_8,2,9999,9999,9999,877384768
3,2,T1_SMS_8,3,9999,9999,9999,878184504
3,2,T1_SMS_8,4,9999,9999,9999,878984308
3,2,T1_SMS_8,5,9999,9999,9999,879785016
3,2,T1_SMS_8,6,9999,9999,9999,880584748
3,2,T1_SMS_8,7,9999,9999,9999,881384556
3,2,T1_SMS_8,8,9999,9999,9999,882184264
3,2,T1_SMS_8,9,9999,9999,9999,882985076
3,2,T1_SMS_8,10,9999,9999,9999,883784772
3,2,T1_SMS_8,11,9999,9999,9999,884584536
3,2,T1_SMS_8,12,9999,9999,9999,885384276
3,2,T1_SMS_8,13,9999,9999,9999,886185060
3,2,T1_SMS_8,14,9999,9999,9999,886984784
3,2,T1_SMS_8,15,9999,9999,9999,887784520
3,2,T1_SMS_8,16,9999,9999,9999,888584252
3,2,T1_SMS_8,17,9999,9999,9999,889385056
3,2,T1_SMS_8,18,9999,9999,9999,890184792
3,2,T1_SMS_8,19,9999,9999,9999,890984524
3,2,T1_SMS_8,20,9999,9999,9999,891784256
3,2,T1_SMS_8,21,9999,9999,9999,892585044
3,2,T1_SMS_8,22,9999,9999,9999,893384776
3,2,T1_SMS_8,23,9999,9999,9999,894184508
3,2,T1_SMS_8,24,9999,9999,9999,894984244
3,2,T1_SMS_8,25,9999,9999,9999,895785048
3,2,T1_SMS_8,26,9999,9999,9999,896584780
3,2,T1_SMS_8,27,9999,9999,9999,897384512
3,2,T1_SMS_8,28,9999,9999,9999,898184244
3,2,T1_SMS_8,29,9999,9999,9999,898985020
3,2,T1_SMS_8,30,9999,9999,9999,899784756
3,2,T1_SMS_8,31,9999,9999,9999,900584564
3,2,T1_SMS_8,32,9999,9999,9999,901384304
3,2,T1_SMS_8,33,9999,9999,9999,902185032
3,2,T1_SMS_8,34,9999,9999,9999,902984764
3,2,T1_SMS_8,35,9999,9999,9999,903784500
3,2,T1_SMS_8,36,9999,9999,9999,904584308
3,2,T1_SMS_8,37,9999,9999,9999,905385012
3,2,T1_SMS_8,38,9999,9999,9999,906184820
3,2,T1_SMS_8,39,9999,9999,9999,906984552
3,2,T1_SMS_8,40,9999,9999,9999,907784284
3,2,T1_SMS_8,41,9999,9999,9999,908585016
3,2,T1_SMS_8,42,9999,9999,9999,909384824
3,2,T1_SMS_8,43,9999,9999,9999,910184552
3,2,T1_SMS_8,44,9999,9999,9999,910984284
3,2,T1_SMS_8,45,9999,9999,9999,911785064
3,2,T1_SMS_8,46,9999,9999,9999,912584796
3,2,T1_SMS_8,47,9999,9999,9999,913384536
3,2,T1_SMS_8,48,9999,9999,9999,914184268
3,2,T1_SMS_8,49,9999,9999,9999,914985068
3,2,T1_SMS_8,50,9999,9999,9999,915784800
3,2,T1_SMS_8,51,9999,9999,9999,916584536
3,2,T1_SMS_8,52,9999,9999,9999,917384268
3,2,T1_SMS_8,53,9999,9999,9999,918185052
3,2,T1_SMS_8,54,9999,9999,9999,918984784
3,2,T1_SMS_8,55,9999,9999,9999,919784520
3,2,T1_SMS_8,56,9999,9999,9999,920584252
3,2,T1_SMS_8,57,9999,9999,9999,921385056
3,2,T1_SMS_8,58,9999,9999,9999,922184792
3,2,T1_SMS_8,59,9999,9999,9999,922984516
3,2,T1_SMS_8,60,9999,9999,9999,923784252
3,2,T1_SMS_8,61,9999,9999,9999,924585032
3,2,T1_SMS_8,62,9999,9999,9999,925384764
3,2,T1_SMS_8,63,9999,9999,9999,926184496
3,2,T1_SMS_8,64,9999,9999,9999,926984304
3,2,T1_SMS_8,65,9999,9999,9999,927785036
3,2,T1_SMS_8,66,9999,9999,9999,928584768
3,2,T1_SMS_8,67,9999,9999,9999,929384500
3,2,T1_SMS_8,68,9999,9999,9999,930184308
3,2,T1_SMS_8,69,9999,9999,9999,930985016
3,2,T1_SMS_8,70,9999,9999,9999,931784824
3,2,T1_SMS_8,71,9999,9999,9999,932584556
3,2,T1_SMS_8,72,9999,9999,9999,933384288
3,2,T1_SMS_8,73,9999,9999,9999,934185072
3,2,T1_SMS_8,74,9999,9999,9999,934984804
3,2,T1_SMS_8,75,9999,9999,9999,935784540
3,2,T1_SMS_8,76,9999,9999,9999,936584272
3,2,T1_SMS_8,77,9999,9999,9999,937385052
3,2,T1_SMS_8,78,9999,9999,9999,938184784
3,2,T1_SMS_8,79,9999,9999,9999,938984516
3,2,T1_SMS_8,80,9999,9999,9999,939784244
3,2,T1_SMS_8,81,9999,9999,9999,940585052
3,2,T1_SMS_8,82,9999,9999,9999,941384784
3,2,T1_SMS_8,83,9999,9999,9999,942184516
3,2,T1_SMS_8,84,9999,9999,9999,942984248
3,2,T1_SMS_8,85,9999,9999,9999,943785032
3,2,T1_SMS_8,86,9999,9999,9999,944584764
3,2,T1_SMS_8,87,9999,9999,9999,945384496
3,2,T1_SMS_8,88,9999,9999,9999,946184308
3,2,T1_SMS_8,89,9999,9999,9999,946985040
3,2,T1_SMS_8,90,9999,9999,9999,947784776
3,2,T1_SMS_8,91,9999,9999,9999,948584504
3,2,T1_SMS_8,92,9999,9999,9999,949384312
3,2,T1_SMS_8,93,9999,9999,9999,950185068
3,2,T1_SMS_8,94,9999,9999,9999,950984804
3,2,T1_SMS_8,95,9999,9999,9999,951784540
3,2,T1_SMS_8,96,9999,9999,9999,952584276
3,2,T1_SMS_8,97,9999,9999,9999,953385080
3,2,T1_SMS_8,98,9999,9999,9999,954184812
3,2,T1_SMS_8,99,9999,9999,9999,954984548
3,2,T1_SMS_8,100,9999,9999,9999,955784280
3,2,T1_SMS_8,101,9999,9999,9999,956585060
3,2,T1_SMS_8,102,9999,9999,9999,957384800
3,2,T1_SMS_8,103,9999,9999,9999,958184536
3,2,T1_SMS_8,104,9999,9999,9999,958984284
3,2,T1_SMS_8,105,9999,9999,9999,959785016
3,2,T1_SMS_8,106,9999,9999,9999,960584824
3,2,T1_SMS_8,107,9999,9999,9999,961384564
3,2,T1_SMS_8,108,9999,9999,9999,962184288
3,2,T1_SMS_8,109,9999,9999,9999,962985068
3,2,T1_SMS_8,110,9999,9999,9999,963784800
3,2,T1_SMS_8,111,9999,9999,9999,964584544
3,2,T1_SMS_8,112,9999,9999,9999,965384276
3,2,T1_SMS_8,113,9999,9999,9999,966185072
3,2,T1_SMS_8,114,9999,9999,9999,966984804
3,2,T1_SMS_8,115,9999,9999,9999,967784540
3,2,T1_SMS_8,116,9999,9999,9999,968584276
3,2,T1_SMS_8,117,9999,9999,9999,969385064
3,2,T1_SMS_8,118,9999,9999,9999,970184788
3,2,T1_SMS_8,119,9999,9999,9999,970984520
4,4,T1_SMS_5,0,5,42,127,1016277564
4,4,T1_SMS_5,1,5,42,127,1016777132
4,4,T1_SMS_5,2,5,42,127,1017276924
4,4,T1_SMS_5,3,1,48,47,1017299264
4,4,T1_SMS_5,4,1,48,46,1017739924
4,4,T1_SMS_5,5,5,42,127,1017776684
4,4,T1_SMS_5,6,1,48,43,1018218080
4,4,T1_SMS_5,7,5,42,127,1018277280
4,4,T1_SMS_5,8,1,48,50,1018702068
4,4,T1_SMS_5,9,5,42,127,1018777052
4,4,T1_SMS_5,10,1,48,51,1019209616
4,4,T1_SMS_5,11,5,42,127,1019276672
4,4,T1_SMS_5,12,1,48,47,1019687916
4,4,T1_SMS_5,13,5,42,127,1019777488
4,4,T1_SMS_5,14,1,48,43,1020240716
4,4,T1_SMS_5,15,5,42,127,1020277108
4,4,T1_SMS_5,16,1,48,49,1020734584
4,4,T1_SMS_5,17,5,42,127,1020776804
4,4,T1_SMS_5,18,1,48,45,1021226124
4,4,T1_SMS_5,19,5,42,127,1021276572
4,4,T1_SMS_5,20,1,48,46,1021720280
4,4,T1_SMS_5,21,5,42,127,1021777388
4,4,T1_SMS_5,22,1,48,38,1022259096
4,4,T1_SMS_5,23,5,42,127,1022277156
4,4,T1_SMS_5,24,1,48,43,1022773452
4,4,T1_SMS_5,25,5,42,127,1022776628
4,4,T1_SMS_5,26,1,48,43,1023263492
4,4,T1_SMS_5,27,5,42,127,1023277444
4,4,T1_SMS_5,28,1,48,42,1023769472
4,4,T1_SMS_5,29,5,42,127,1023776988
4,4,T1_SMS_5,30,1,48,46,1024264432
4,4,T1_SMS_5,31,5,42,127,1024276760
4,4,T1_SMS_5,32,1,48,43,1024737352
4,4,T1_SMS_5,33,5,42,127,1024776652
4,4,T1_SMS_5,34,1,48,33,1025230436
4,4,T1_SMS_5,35,5,42,127,1025277444
4,4,T1_SMS_5,36,1,48,32,1025693860
4,4,T1_SMS_5,37,5,42,127,1025777068
4,4,T1_SMS_5,38,1,48,33,1026241872
4,4,T1_SMS_5,39,5,42,127,1026276688
4,4,T1_SMS_5,40,1,48,39,1026730496
4,4,T1_SMS_5,41,5,42,127,1026776532
4,4,T1_SMS_5,42,1,48,32,1027226976
4,4,T1_SMS_5,43,5,42,127,1027277348
4,4,T1_SMS_5,44,1,48,42,1027743124
4,4,T1_SMS_5,45,5,42,127,1027776820
4,4,T1_SMS_5,46,1,48,31,1028238780
4,4,T1_SMS_5,47,5,42,127,1028276664
4,4,T1_SMS_5,48,1,48,38,1028741988
4,4,T1_SMS_5,49,5,42,127,1028777256
4,4,T1_SMS_5,50,1,48,40,1029269812
4,4,T1_SMS_5,51,5,42,127,1029277176
4,4,T1_SMS_5,52,1,48,34,1029773692
4,4,T1_SMS_5,53,5,42,127,1029776724
4,4,T1_SMS_5,54,5,42,127,1030276424
4,4,T1_SMS_5,55,1,48,38,1030296596
4,4,T1_SMS_5,56,5,42,127,1030777460
4,4,T1_SMS_5,57,1,48,40,1030793672
4,4,T1_SMS_5,58,5,42,127,1031277012
4,4,T1_SMS_5,59,1,48,40,1031287460
4,4,T1_SMS_5,60,5,42,127,1031776484
4,4,T1_SMS_5,61,1,48,45,1031777744
4,4,T1_SMS_5,62,1,48,38,1032272920
4,4,T1_SMS_5,63,5,42,127,1032277516
4,4,T1_SMS_5,64,1,48,45,1032756080
4,4,T1_SMS_5,65,5,42,127,1032777284
4,4,T1_SMS_5,66,1,48,37,1033253532
4,4,T1_SMS_5,67,5,42,127,1033276684
4,4,T1_SMS_5,68,1,48,46,1033753524
4,4,T1_SMS_5,69,5,42,127,1033776600
4,4,T1_SMS_5,70,1,48,39,1034232628
4,4,T1_SMS_5,71,5,42,127,1034277268
4,4,T1_SMS_5,72,1,48,37,1034747804
4,4,T1_SMS_5,73,5,42,127,1034777188
4,4,T1_SMS_5,74,1,48,38,1035253860
4,4,T1_SMS_5,75,5,42,127,1035276732
4,4,T1_SMS_5,76,5,42,127,1035777528
4,4,T1_SMS_5,77,1,48,40,1035779972
4,4,T1_SMS_5,78,5,42,127,1036277076
4,4,T1_SMS_5,79,1,48,38,1036309088
4,4,T1_SMS_5,80,1,48,40,1036767004
4,4,T1_SMS_5,81,5,42,127,1036776688
4,4,T1_SMS_5,82,5,42,127,1037276392
4,4,T1_SMS_5,83,1,48,32,1037293268
4,4,T1_SMS_5,84,5,42,127,1037777356
4,4,T1_SMS_5,85,1,48,36,1037807548
4,4,T1_SMS_5,86,5,42,127,1038277124
4,4,T1_SMS_5,87,1,48,37,1038293556
4,4,T1_SMS_5,88,1,48,37,1038742440
4,4,T1_SMS_5,89,5,42,127,1038776664
4,4,T1_SMS_5,90,1,48,35,1039235556
4,4,T1_SMS_5,91,5,42,127,1039277552
4,4,T1_SMS_5,92,1,48,31,1039748716
4,4,T1_SMS_5,93,5,42,127,1039777028
4,4,T1_SMS_5,94,1,48,38,1040234872
4,4,T1_SMS_5,95,5,42,127,1040277020
4,4,T1_SMS_5,96,1,48,32,1040741604
4,4,T1_SMS_5,97,5,42,127,1040776420
4,4,T1_SMS_5,98,1,48,39,1041220500
4,4,T1_SMS_5,99,5,42,127,1041277384
4,4,T1_SMS_5,100,1,48,29,1041766192
4,4,T1_SMS_5,101,5,42,127,1041777228
4,4,T1_SMS_5,102,5,42,127,1042276704
4,4,T1_SMS_5,103,1,48,37,1042306900
4,4,T1_SMS_5,104,5,42,127,1042776476
4,4,T1_SMS_5,105,1,48,35,1042791636
4,4,T1_SMS_5,106,5,42,127,1043277216
4,4,T1_SMS_5,107,1,48,39,1043284744
4,4,T1_SMS_5,108,1,48,40,1043743432
4,4,T1_SMS_5,109,5,42,127,1043776904
4,4,T1_SMS_5,110,5,42,127,1044276828
4,4,T1_SMS_5,111,1,48,31,1044279352
4,4,T1_SMS_5,112,1,48,41,1044755164
4,4,T1_SMS_5,113,5,42,127,1044777268
4,4,T1_SMS_5,114,1,48,44,1045237260
4,4,T1_SMS_5,115,5,42,127,1045277108
4,4,T1_SMS_5,116,1,48,28,1045760512
4,4,T1_SMS_5,117,5,42,127,1045776880
4,4,T1_SMS_5,118,1,48,42,1046253852
4,4,T1_SMS_5,119,5,42,127,1046276404
4,4,T1_SMS_5,120,1,48,40,1046766408
4,4,T1_SMS_5,121,5,42,127,1046777144
4,4,T1_SMS_5,122,5,42,127,1047276920
4,4,T1_SMS_5,123,1,48,35,1047285124
4,4,T1_SMS_5,124,1,48,38,1047764008
4,4,T1_SMS_5,125,5,42,127,1047776980
4,4,T1_SMS_5,126,1,48,30,1048277360
4,4,T1_SMS_5,127,5,42,127,1048278920
4,4,T1_SMS_5,128,5,42,127,1048776980
4,4,T1_SMS_5,129,1,48,44,1048790640
4,4,T1_SMS_5,130,1,48,40,1049258380
4,4,T1_SMS_5,131,5,42,127,1049276888
4,4,T1_SMS_5,132,1,48,31,1049764060
4,4,T1_SMS_5,133,5,42,127,1049776588
4,4,T1_SMS_5,134,5,42,127,1050277260
4,4,T1_SMS_5,135,1,48,42,1050287784
4,4,T1_SMS_5,136,5,42,127,1050776880
4,4,T1_SMS_5,137,1,48,35,1050788076
4,4,T1_SMS_5,138,1,48,37,1051272716
4,4,T1_SMS_5,139,5,42,127,1051276864
4,4,T1_SMS_5,140,1,48,35,1051766572
4,4,T1_SMS_5,141,5,42,127,1051777532
4,4,T1_SMS_5,142,5,42,127,1052277088
4,4,T1_SMS_5,143,1,48,38,1052296212
4,4,T1_SMS_5,144,1,48,36,1052756916
4,4,T1_SMS_5,145,5,42,127,1052776776
4,4,T1_SMS_5,146,1,48,31,1053236644
4,4,T1_SMS_5,147,5,42,127,1053276620
4,4,T1_SMS_5,148,1,48,38,1053776764
4,4,T1_SMS_5,149,5,42,127,1053778556
4,4,T1_SMS_5,150,5,42,127,1054276916
4,4,T1_SMS_5,151,1,48,43,1054282572
4,4,T1_SMS_5,152,1,48,39,1054767444
4,4,T1_SMS_5,153,5,42,127,1054776676
4,4,T1_SMS_5,154,1,48,40,1055260032
4,4,T1_SMS_5,155,5,42,127,1055277568
4,4,T1_SMS_5,156,1,48,40,1055762864
4,4,T1_SMS_5,157,5,42,127,1055777040
4,4,T1_SMS_5,158,5,42,127,1056276740
4,4,T1_SMS_5,159,1,48,38,1056277708
4,4,T1_SMS_5,160,5,42,127,1056776636
4,4,T1_SMS_5,161,1,48,43,1056783792
4,4,T1_SMS_5,162,5,42,127,1057277500
4,4,T1_SMS_5,163,1,48,29,1057288252
4,4,T1_SMS_5,164,1,48,31,1057773312
4,4,T1_SMS_5,165,5,42,127,1057776940
4,4,T1_SMS_5,166,1,48,29,1058271064
4,4,T1_SMS_5,167,5,42,127,1058276636
4,4,T1_SMS_5,168,1,48,38,1058756624
4,4,T1_SMS_5,169,5,42,127,1058776704
4,4,T1_SMS_5,170,1,48,28,1059251456
4,4,T1_SMS_5,171,5,42,127,1059277148
4,4,T1_SMS_5,172,1,48,40,1059755412
4,4,T1_SMS_5,173,5,42,127,1059776840
4,4,T1_SMS_5,174,5,42,127,1060276468
4,4,T1_SMS_5,175,1,48,38,1060282052
4,4,T1_SMS_5,176,5,42,127,1060777508
4,4,T1_SMS_5,177,1,48,32,1060787436
4,4,T1_SMS_5,178,5,42,127,1061277052
4,4,T1_SMS_5,179,1,48,40,1061280320
4,4,T1_SMS_5,180,5,42,127,1061776672
4,4,T1_SMS_5,181,1,48,43,1061779496
4,4,T1_SMS_5,182,5,42,127,1062276520
4,4,T1_SMS_5,183,1,48,41,1062330124
4,4,T1_SMS_5,184,5,42,127,1062777332
4,4,T1_SMS_5,185,1,48,31,1062787336
4,4,T1_SMS_5,186,1,48,32,1063270852
4,4,T1_SMS_5,187,5,42,127,1063276872
4,4,T1_SMS_5,188,1,48,37,1063774904
4,4,T1_SMS_5,189,5,42,127,1063776568
4,4,T1_SMS_5,190,1,48,36,1064249452
4,4,T1_SMS_5,191,5,42,127,1064277460
4,4,T1_SMS_5,192,1,48,39,1064745480
4,4,T1_SMS_5,193,5,42,127,1064777008
4,4,T1_SMS_5,194,1,48,40,1065234852
4,4,T1_SMS_5,195,5,42,127,1065276924
4,4,T1_SMS_5,196,1,48,40,1065724052
4,4,T1_SMS_5,197,5,42,127,1065776396
4,4,T1_SMS_5,198,1,48,29,1066256376
4,4,T1_SMS_5,199,5,42,127,1066277360
4,4,T1_SMS_5,200,1,48,41,1066733988
4,4,T1_SMS_5,201,5,42,127,1066776832
4,4,T1_SMS_5,202,1,48,37,1067251332
4,4,T1_SMS_5,203,5,42,127,1067276752
4,4,T1_SMS_5,204,5,42,127,1067777472
4,4,T1_SMS_5,205,1,48,42,1067802456
4,4,T1_SMS_5,206,5,42,127,1068277168
4,4,T1_SMS_5,207,1,48,38,1068314492
4,4,T1_SMS_5,208,1,48,32,1068762536
4,4,T1_SMS_5,209,5,42,127,1068776712
4,4,T1_SMS_5,210,1,48,44,1069271136
4,4,T1_SMS_5,211,5,42,127,1069276404
4,4,T1_SMS_5,212,5,42,127,1069777152
4,4,T1_SMS_5,213,1,48,39,1069778120
4,4,T1_SMS_5,214,1,48,40,1070245760
4,4,T1_SMS_5,215,5,42,127,1070277140
4,4,T1_SMS_5,216,5,42,127,1070776616
4,4,T1_SMS_5,217,1,48,38,1070786840
4,4,T1_SMS_5,218,1,48,36,1071270880
4,4,T1_SMS_5,219,5,42,127,1071277424
4,4,T1_SMS_5,220,1,48,25,1071774016
4,4,T1_SMS_5,221,5,42,127,1071777416
4,4,T1_SMS_5,222,1,48,39,1072269296
4,4,T1_SMS_5,223,5,42,127,1072277036
4,4,T1_SMS_5,224,1,48,35,1072755228
4,4,T1_SMS_5,225,5,42,127,1072776584
4,4,T1_SMS_5,226,1,48,28,1073263600
4,4,T1_SMS_5,227,5,42,127,1073277252
4,4,T1_SMS_5,228,1,48,36,1073733452
4,4,T1_SMS_5,229,5,42,127,1073777096
4,4,T1_SMS_5,230,1,48,40,1074234720
4,4,T1_SMS_5,231,5,42,127,1074276792
4,4,T1_SMS_5,232,1,48,45,1074741668
4,4,T1_SMS_5,233,5,42,127,1074776412
4,4,T1_SMS_5,234,1,48,35,1075233432
4,4,T1_SMS_5,235,5,42,127,1075277152
4,4,T1_SMS_5,236,1,48,40,1075709396
4,4,T1_SMS_5,237,5,42,127,1075776996
4,4,T1_SMS_5,238,1,48,35,1076218292
4,4,T1_SMS_5,239,5,42,127,1076276544
4,4,T1_SMS_5,240,1,48,31,1076728984
4,4,T1_SMS_5,241,5,42,127,1076777360
4,4,T1_SMS_5,242,1,48,33,1077230168
4,4,T1_SMS_5,243,5,42,127,1077276980
4,4,T1_SMS_5,244,1,48,28,1077732256
4,4,T1_SMS_5,245,5,42,127,1077776972
4,4,T1_SMS_5,246,1,48,36,1078214224
4,4,T1_SMS_5,247,5,42,127,1078276568
4,4,T1_SMS_5,248,1,48,37,1078698216
4,4,T1_SMS_5,249,5,42,127,1078777084
4,4,T1_SMS_5,250,1,48,40,1079216980
4,4,T1_SMS_5,251,5,42,127,1079277004
4,4,T1_SMS_5,252,1,48,37,1079738892
4,4,T1_SMS_5,253,5,42,127,1079776772
4,4,T1_SMS_5,254,1,48,47,1080262896
4,4,T1_SMS_5,255,5,42,127,1080277440
4,4,T1_SMS_5,256,5,42,127,1080776992
4,4,T1_SMS_5,257,1,48,42,1080785492
4,4,T1_SMS_5,0,9999,9999,9999,1016275052
4,4,T1_SMS_5,1,9999,9999,9999,1016774768
4,4,T1_SMS_5,2,9999,9999,9999,1017274484
4,4,T1_SMS_5,3,9999,9999,9999,1017774172
4,4,T1_SMS_5,4,9999,9999,9999,1018274916
4,4,T1_SMS_5,5,9999,9999,9999,1018774612
4,4,T1_SMS_5,6,9999,9999,9999,1019274308
4,4,T1_SMS_5,7,9999,9999,9999,1019775048
4,4,T1_SMS_5,8,9999,9999,9999,1020274744
4,4,T1_SMS_5,9,9999,9999,9999,1020774512
4,4,T1_SMS_5,10,9999,9999,9999,1021274208
4,4,T1_SMS_5,11,9999,9999,9999,1021774948
4,4,T1_SMS_5,12,9999,9999,9999,1022274644
4,4,T1_SMS_5,13,9999,9999,9999,1022774340
4,4,T1_SMS_5,14,9999,9999,9999,1023275080
4,4,T1_SMS_5,15,9999,9999,9999,1023774772
4,4,T1_SMS_5,16,9999,9999,9999,1024274544
4,4,T1_SMS_5,17,9999,9999,9999,1024774216
4,4,T1_SMS_5,18,9999,9999,9999,1025274932
4,4,T1_SMS_5,19,9999,9999,9999,1025774704
4,4,T1_SMS_5,20,9999,9999,9999,1026274396
4,4,T1_SMS_5,21,9999,9999,9999,1026774092
4,4,T1_SMS_5,22,9999,9999,9999,1027274836
4,4,T1_SMS_5,23,9999,9999,9999,1027774528
4,4,T1_SMS_5,24,9999,9999,9999,1028274224
4,4,T1_SMS_5,25,9999,9999,9999,1028774968
4,4,T1_SMS_5,26,9999,9999,9999,1029274736
4,4,T1_SMS_5,27,9999,9999,9999,1029774432
4,4,T1_SMS_5,28,9999,9999,9999,1030274136
4,4,T1_SMS_5,29,9999,9999,9999,1030774876
4,4,T1_SMS_5,30,9999,9999,9999,1031274572
4,4,T1_SMS_5,31,9999,9999,9999,1031774268
4,4,T1_SMS_5,32,9999,9999,9999,1032275004
4,4,T1_SMS_5,33,9999,9999,9999,1032774772
4,4,T1_SMS_5,34,9999,9999,9999,1033274468
4,4,T1_SMS_5,35,9999,9999,9999,1033774164
4,4,T1_SMS_5,36,9999,9999,9999,1034274904
4,4,T1_SMS_5,37,9999,9999,9999,1034774596
4,4,T1_SMS_5,38,9999,9999,9999,1035274292
4,4,T1_SMS_5,39,9999,9999,9999,1035775088
4,4,T1_SMS_5,40,9999,9999,9999,1036274784
4,4,T1_SMS_5,41,9999,9999,9999,1036774472
4,4,T1_SMS_5,42,9999,9999,9999,1037274176
4,4,T1_SMS_5,43,9999,9999,9999,1037774916
4,4,T1_SMS_5,44,9999,9999,9999,1038274612
4,4,T1_SMS_5,45,9999,9999,9999,1038774372
4,4,T1_SMS_5,46,9999,9999,9999,1039275116
4,4,T1_SMS_5,47,9999,9999,9999,1039774812
4,4,T1_SMS_5,48,9999,9999,9999,1040274508
4,4,T1_SMS_5,49,9999,9999,9999,1040774204
4,4,T1_SMS_5,50,9999,9999,9999,1041274944
4,4,T1_SMS_5,51,9999,9999,9999,1041774712
4,4,T1_SMS_5,52,9999,9999,9999,1042274416
4,4,T1_SMS_5,53,9999,9999,9999,1042774112
4,4,T1_SMS_5,54,9999,9999,9999,1043274852
4,4,T1_SMS_5,55,9999,9999,9999,1043774540
4,4,T1_SMS_5,56,9999,9999,9999,1044274240
4,4,T1_SMS_5,57,9999,9999,9999,1044774976
4,4,T1_SMS_5,58,9999,9999,9999,1045274744
4,4,T1_SMS_5,59,9999,9999,9999,1045774440
4,4,T1_SMS_5,60,9999,9999,9999,1046274112
4,4,T1_SMS_5,61,9999,9999,9999,1046774856
4,4,T1_SMS_5,62,9999,9999,9999,1047274556
4,4,T1_SMS_5,63,9999,9999,9999,1047774320
4,4,T1_SMS_5,64,9999,9999,9999,1048274992
4,4,T1_SMS_5,65,9999,9999,9999,1048774764
4,4,T1_SMS_5,66,9999,9999,9999,1049274452
4,4,T1_SMS_5,67,9999,9999,9999,1049774148
4,4,T1_SMS_5,68,9999,9999,9999,1050274896
4,4,T1_SMS_5,69,9999,9999,9999,1050774588
4,4,T1_SMS_5,70,9999,9999,9999,1051274352
4,4,T1_SMS_5,71,9999,9999,9999,1051775092
4,4,T1_SMS_5,72,9999,9999,9999,1052274796
4,4,T1_SMS_5,73,9999,9999,9999,1052774488
4,4,T1_SMS_5,74,9999,9999,9999,1053274180
4,4,T1_SMS_5,75,9999,9999,9999,1053774928
4,4,T1_SMS_5,76,9999,9999,9999,1054274624
4,4,T1_SMS_5,77,9999,9999,9999,1054774388
4,4,T1_SMS_5,78,9999,9999,9999,1055275128
4,4,T1_SMS_5,79,9999,9999,9999,1055774824
4,4,T1_SMS_5,80,9999,9999,9999,1056274524
4,4,T1_SMS_5,81,9999,9999,9999,1056774196
4,4,T1_SMS_5,82,9999,9999,9999,1057274988
4,4,T1_SMS_5,83,9999,9999,9999,1057774652
4,4,T1_SMS_5,84,9999,9999,9999,1058274420
4,4,T1_SMS_5,85,9999,9999,9999,1058774116
4,4,T1_SMS_5,86,9999,9999,9999,1059274856
4,4,T1_SMS_5,87,9999,9999,9999,1059774552
4,4,T1_SMS_5,88,9999,9999,9999,1060274252
4,4,T1_SMS_5,89,9999,9999,9999,1060774996
4,4,T1_SMS_5,90,9999,9999,9999,1061274688
4,4,T1_SMS_5,91,9999,9999,9999,1061774384
4,4,T1_SMS_5,92,9999,9999,9999,1062274152
4,4,T1_SMS_5,93,9999,9999,9999,1062774896
4,4,T1_SMS_5,94,9999,9999,9999,1063274584
4,4,T1_SMS_5,95,9999,9999,9999,1063774300
4,4,T1_SMS_5,96,9999,9999,9999,1064275020
4,4,T1_SMS_5,97,9999,9999,9999,1064774716
4,4,T1_SMS_5,98,9999,9999,9999,1065274484
4,4,T1_SMS_5,99,9999,9999,9999,1065774180
4,4,T1_SMS_5,100,9999,9999,9999,1066274924
4,4,T1_SMS_5,101,9999,9999,9999,1066774616
4,4,T1_SMS_5,102,9999,9999,9999,1067274312
4,4,T1_SMS_5,103,9999,9999,9999,1067775036
4,4,T1_SMS_5,104,9999,9999,9999,1068274804
4,4,T1_SMS_5,105,9999,9999,9999,1068774496
4,4,T1_SMS_5,106,9999,9999,9999,1069274188
4,4,T1_SMS_5,107,9999,9999,9999,1069774936
4,4,T1_SMS_5,108,9999,9999,9999,1070274624
4,4,T1_SMS_5,109,9999,9999,9999,1070774324
4,4,T1_SMS_5,110,9999,9999,9999,1071275060
4,4,T1_SMS_5,111,9999,9999,9999,1071774828
4,4,T1_SMS_5,112,9999,9999,9999,1072274524
4,4,T1_SMS_5,113,9999,9999,9999,1072774220
4,4,T1_SMS_5,114,9999,9999,9999,1073274964
4,4,T1_SMS_5,115,9999,9999,9999,1073774656
4,4,T1_SMS_5,116,9999,9999,9999,1074274352
4,4,T1_SMS_5,117,9999,9999,9999,1074774120
4,4,T1_SMS_5,118,9999,9999,9999,1075274864
4,4,T1_SMS_5,119,9999,9999,9999,1075774556
4,4,T1_SMS_5,120,9999,9999,9999,1076274252
4,4,T1_SMS_5,121,9999,9999,9999,1076774996
4,4,T1_SMS_5,122,9999,9999,9999,1077274688
4,4,T1_SMS_5,123,9999,9999,9999,1077774456
4,4,T1_SMS_5,124,9999,9999,9999,1078274128
4,4,T1_SMS_5,125,9999,9999,9999,1078774868
4,4,T1_SMS_5,126,9999,9999,9999,1079274564
4,4,T1_SMS_5,127,9999,9999,9999,1079774260
4,4,T1_SMS_5,128,9999,9999,9999,1080275000
4,4,T1_SMS_5,129,9999,9999,9999,1080774776
5,20,Ticks_Linear_8,0,5,42,127,1094159632
5,20,Ticks_Linear_8,1,5,42,127,1094979824
5,20,Ticks_Linear_8,2,1,48,29,1095244616
5,20,Ticks_Linear_8,3,1,48,43,1095792304
5,20,Ticks_Linear_8,4,5,42,127,1095800060
5,20,Ticks_Linear_8,5,1,48,50,1096617928
5,20,Ticks_Linear_8,6,5,42,127,1096620672
5,20,Ticks_Linear_8,7,1,48,47,1097431888
5,20,Ticks_Linear_8,8,5,42,127,1097439572
5,20,Ticks_Linear_8,9,5,42,127,1098249512
5,20,Ticks_Linear_8,10,1,48,44,1098288136
5,20,Ticks_Linear_8,11,5,42,127,1099059572
5,20,Ticks_Linear_8,12,1,48,47,1099078344
5,20,Ticks_Linear_8,13,1,48,48,1099868192
5,20,Ticks_Linear_8,14,5,42,127,1099869992
5,20,Ticks_Linear_8,15,1,48,47,1100668556
5,20,Ticks_Linear_8,16,5,42,127,1100679604
5,20,Ticks_Linear_8,17,1,48,48,1101471200
5,20,Ticks_Linear_8,18,5,42,127,1101489588
5,20,Ticks_Linear_8,19,5,42,127,1102290440
5,20,Ticks_Linear_8,20,1,48,45,1102294456
5,20,Ticks_Linear_8,21,1,48,51,1103083072
5,20,Ticks_Linear_8,22,5,42,127,1103090228
5,20,Ticks_Linear_8,23,1,48,45,1103866836
5,20,Ticks_Linear_8,24,5,42,127,1103889680
5,20,Ticks_Linear_8,25,5,42,127,1104689560
5,20,Ticks_Linear_8,26,1,48,50,1104700620
5,20,Ticks_Linear_8,27,5,42,127,1105490332
5,20,Ticks_Linear_8,28,1,48,51,1105537640
5,20,Ticks_Linear_8,29,1,48,47,1106268592
5,20,Ticks_Linear_8,30,5,42,127,1106279792
5,20,Ticks_Linear_8,31,1,48,49,1107056396
5,20,Ticks_Linear_8,32,5,42,127,1107070376
5,20,Ticks_Linear_8,33,1,48,49,1107817872
5,20,Ticks_Linear_8,34,5,42,127,1107859844
5,20,Ticks_Linear_8,35,1,48,49,1108646856
5,20,Ticks_Linear_8,36,5,42,127,1108650352
5,20,Ticks_Linear_8,37,5,42,127,1109440124
5,20,Ticks_Linear_8,38,1,48,44,1109453056
5,20,Ticks_Linear_8,39,5,42,127,1110220152
5,20,Ticks_Linear_8,40,1,48,47,1110227684
5,20,Ticks_Linear_8,41,1,48,46,1111000180
5,20,Ticks_Linear_8,42,5,42,127,1111001964
5,20,Ticks_Linear_8,43,1,48,47,1111774084
5,20,Ticks_Linear_8,44,5,42,127,1111790012
5,20,Ticks_Linear_8,45,1,48,54,1112530828
5,20,Ticks_Linear_8,46,5,42,127,1112570188
5,20,Ticks_Linear_8,47,1,48,47,1113321720
5,20,Ticks_Linear_8,48,5,42,127,1113349568
5,20,Ticks_Linear_8,49,1,48,49,1114082572
5,20,Ticks_Linear_8,50,5,42,127,1114119484
5,20,Ticks_Linear_8,51,1,48,47,1114850920
5,20,Ticks_Linear_8,52,5,42,127,1114889552
5,20,Ticks_Linear_8,53,1,48,49,1115608484
5,20,Ticks_Linear_8,54,5,42,127,1115659696
5,20,Ticks_Linear_8,55,1,48,47,1116369192
5,20,Ticks_Linear_8,56,5,42,127,1116429984
5,20,Ticks_Linear_8,57,1,48,47,1117169888
5,20,Ticks_Linear_8,58,5,42,127,1117199828
5,20,Ticks_Linear_8,59,1,48,49,1117938608
5,20,Ticks_Linear_8,60,5,42,127,1117959416
5,20,Ticks_Linear_8,61,5,42,127,1118720476
5,20,Ticks_Linear_8,62,1,48,42,1118740024
5,20,Ticks_Linear_8,63,5,42,127,1119480284
5,20,Ticks_Linear_8,64,1,48,41,1119499460
5,20,Ticks_Linear_8,65,5,42,127,1120240092
5,20,Ticks_Linear_8,66,1,48,52,1120242536
5,20,Ticks_Linear_8,67,1,48,43,1120988404
5,20,Ticks_Linear_8,68,5,42,127,1120999748
5,20,Ticks_Linear_8,69,1,48,46,1121739596
5,20,Ticks_Linear_8,70,5,42,127,1121750268
5,20,Ticks_Linear_8,71,1,48,51,1122467640
5,20,Ticks_Linear_8,72,5,42,127,1122499892
5,20,Ticks_Linear_8,73,1,48,47,1123195696
5,20,Ticks_Linear_8,74,5,42,127,1123249668
5,20,Ticks_Linear_8,75,1,48,43,1123966368
5,20,Ticks_Linear_8,76,5,42,127,1124000264
5,20,Ticks_Linear_8,77,5,42,127,1124749748
5,20,Ticks_Linear_8,78,1,48,48,1124750788
5,20,Ticks_Linear_8,79,5,42,127,1125490012
5,20,Ticks_Linear_8,80,1,48,50,1125493128
5,20,Ticks_Linear_8,81,5,42,127,1126230496
5,20,Ticks_Linear_8,82,1,48,51,1126244624
5,20,Ticks_Linear_8,83,5,42,127,1126969712
5,20,Ticks_Linear_8,84,1,48,51,1126971500
5,20,Ticks_Linear_8,85,1,48,47,1127710572
5,20,Ticks_Linear_8,86,5,42,127,1127711916
5,20,Ticks_Linear_8,87,5,42,127,1128450664
5,20,Ticks_Linear_8,88,1,48,50,1128484336
5,20,Ticks_Linear_8,89,5,42,127,1129189780
5,20,Ticks_Linear_8,90,1,48,48,1129210796
5,20,Ticks_Linear_8,91,5,42,127,1129919932
5,20,Ticks_Linear_8,92,1,48,45,1129928900
5,20,Ticks_Linear_8,93,1,48,44,1130648496
5,20,Ticks_Linear_8,94,5,42,127,1130650372
5,20,Ticks_Linear_8,95,1,48,45,1131364908
5,20,Ticks_Linear_8,96,5,42,127,1131380304
5,20,Ticks_Linear_8,97,1,48,45,1132108808
5,20,Ticks_Linear_8,98,5,42,127,1132110680
5,20,Ticks_Linear_8,99,5,42,127,1132830208
5,20,Ticks_Linear_8,100,1,48,51,1132839552
5,20,Ticks_Linear_8,101,5,42,127,1133549856
5,20,Ticks_Linear_8,102,1,48,46,1133556484
5,20,Ticks_Linear_8,103,5,42,127,1134269752
5,20,Ticks_Linear_8,104,1,48,47,1134284028
5,20,Ticks_Linear_8,105,1,48,46,1134988668
5,20,Ticks_Linear_8,106,5,42,127,1134990388
5,20,Ticks_Linear_8,107,1,48,42,1135695404
5,20,Ticks_Linear_8,108,5,42,127,1135709680
5,20,Ticks_Linear_8,109,1,48,43,1136414476
5,20,Ticks_Linear_8,110,5,42,127,1136420436
5,20,Ticks_Linear_8,111,1,48,48,1137118776
5,20,Ticks_Linear_8,112,5,42,127,1137130044
5,20,Ticks_Linear_8,113,5,42,127,1137839464
5,20,Ticks_Linear_8,114,1,48,46,1137854188
5,20,Ticks_Linear_8,115,1,48,47,1138541936
5,20,Ticks_Linear_8,116,5,42,127,1138550360
5,20,Ticks_Linear_8,117,5,42,127,1139259780
5,20,Ticks_Linear_8,118,1,48,44,1139279828
5,20,Ticks_Linear_8,119,5,42,127,1139960256
5,20,Ticks_Linear_8,120,1,48,46,1139973360
5,20,Ticks_Linear_8,121,1,48,52,1140658956
5,20,Ticks_Linear_8,122,5,42,127,1140660672
5,20,Ticks_Linear_8,123,5,42,127,1141360200
5,20,Ticks_Linear_8,124,1,48,46,1141374328
5,20,Ticks_Linear_8,125,5,42,127,1142060400
5,20,Ticks_Linear_8,126,1,48,46,1142085604
5,20,Ticks_Linear_8,127,5,42,127,1142759752
5,20,Ticks_Linear_8,128,1,48,48,1142793072
5,20,Ticks_Linear_8,129,5,42,127,1143450064
5,20,Ticks_Linear_8,130,1,48,48,1143480448
5,20,Ticks_Linear_8,131,1,48,48,1144133360
5,20,Ticks_Linear_8,132,5,42,127,1144140148
5,20,Ticks_Linear_8,133,5,42,127,1144830296
5,20,Ticks_Linear_8,134,1,48,37,1144859204
5,20,Ticks_Linear_8,135,5,42,127,1145519336
5,20,Ticks_Linear_8,136,1,48,48,1145552632
5,20,Ticks_Linear_8,137,1,48,51,1146196264
5,20,Ticks_Linear_8,138,5,42,127,1146209568
5,20,Ticks_Linear_8,139,5,42,127,1146889476
5,20,Ticks_Linear_8,140,1,48,47,1146891488
5,20,Ticks_Linear_8,141,5,42,127,1147569432
5,20,Ticks_Linear_8,142,1,48,50,1147574040
5,20,Ticks_Linear_8,143,5,42,127,1148249408
5,20,Ticks_Linear_8,144,1,48,45,1148273120
5,20,Ticks_Linear_8,145,5,42,127,1148930336
5,20,Ticks_Linear_8,146,1,48,45,1148966420
5,20,Ticks_Linear_8,147,5,42,127,1149619676
5,20,Ticks_Linear_8,148,1,48,43,1149645404
5,20,Ticks_Linear_8,149,5,42,127,1150290444
5,20,Ticks_Linear_8,150,1,48,48,1150296852
5,20,Ticks_Linear_8,151,5,42,127,1150960060
5,20,Ticks_Linear_8,152,1,48,40,1150974708
5,20,Ticks_Linear_8,153,5,42,127,1151629780
5,20,Ticks_Linear_8,154,1,48,43,1151671692
5,20,Ticks_Linear_8,155,5,42,127,1152300324
5,20,Ticks_Linear_8,156,1,48,46,1152339020
5,20,Ticks_Linear_8,157,1,48,47,1152945624
5,20,Ticks_Linear_8,158,5,42,127,1152970012
5,20,Ticks_Linear_8,159,5,42,127,1153629552
5,20,Ticks_Linear_8,160,1,48,53,1153637008
5,20,Ticks_Linear_8,161,5,42,127,1154290036
5,20,Ticks_Linear_8,162,1,48,48,1154315188
5,20,Ticks_Linear_8,163,5,42,127,1154949420
5,20,Ticks_Linear_8,164,1,48,42,1154956800
5,20,Ticks_Linear_8,165,5,42,127,1155609928
5,20,Ticks_Linear_8,166,1,48,43,1155615136
5,20,Ticks_Linear_8,167,1,48,40,1156252836
5,20,Ticks_Linear_8,168,5,42,127,1156269356
5,20,Ticks_Linear_8,169,1,48,42,1156911548
5,20,Ticks_Linear_8,170,5,42,127,1156919900
5,20,Ticks_Linear_8,171,1,48,51,1157559828
5,20,Ticks_Linear_8,172,5,42,127,1157569828
5,20,Ticks_Linear_8,173,5,42,127,1158220008
5,20,Ticks_Linear_8,174,1,48,33,1158256972
5,20,Ticks_Linear_8,175,5,42,127,1158870528
5,20,Ticks_Linear_8,176,1,48,54,1158900460
5,20,Ticks_Linear_8,177,1,48,51,1159500212
5,20,Ticks_Linear_8,178,5,42,127,1159519648
5,20,Ticks_Linear_8,179,1,48,48,1160056444
5,20,Ticks_Linear_8,180,5,42,127,1160159672
5,20,Ticks_Linear_8,181,5,42,127,1160799612
5,20,Ticks_Linear_8,182,1,48,54,1160857616
5,20,Ticks_Linear_8,183,5,42,127,1161439796
5,20,Ticks_Linear_8,184,1,48,44,1161488704
5,20,Ticks_Linear_8,185,5,42,127,1162079708
5,20,Ticks_Linear_8,186,1,48,42,1162206160
5,20,Ticks_Linear_8,187,5,42,127,1162719672
5,20,Ticks_Linear_8,188,1,48,34,1162998040
5,20,Ticks_Linear_8,189,5,42,127,1163350452
5,20,Ticks_Linear_8,190,5,42,127,1163980028
5,20,Ticks_Linear_8,191,1,48,42,1164017512
5,20,Ticks_Linear_8,192,5,42,127,1164609908
5,20,Ticks_Linear_8,193,1,48,37,1164756800
5,20,Ticks_Linear_8,194,5,42,127,1165239760
5,20,Ticks_Linear_8,195,1,48,38,1165373808
5,20,Ticks_Linear_8,196,5,42,127,1165869492
5,20,Ticks_Linear_8,197,1,48,35,1165942932
5,20,Ticks_Linear_8,198,5,42,127,1166489912
5,20,Ticks_Linear_8,199,1,48,36,1166621484
5,20,Ticks_Linear_8,200,5,42,127,1167109604
5,20,Ticks_Linear_8,201,1,48,36,1167288344
5,20,Ticks_Linear_8,202,5,42,127,1167730096
5,20,Ticks_Linear_8,203,5,42,127,1168349564
5,20,Ticks_Linear_8,204,1,48,40,1168389484
5,20,Ticks_Linear_8,205,5,42,127,1168970232
5,20,Ticks_Linear_8,206,1,48,37,1169075344
5,20,Ticks_Linear_8,207,5,42,127,1169580612
5,20,Ticks_Linear_8,208,1,48,38,1169710992
5,20,Ticks_Linear_8,209,5,42,127,1170189600
5,20,Ticks_Linear_8,210,1,48,37,1170378896
5,20,Ticks_Linear_8,211,5,42,127,1170799908
5,20,Ticks_Linear_8,212,1,48,30,1170994388
5,20,Ticks_Linear_8,213,5,42,127,1171410364
5,20,Ticks_Linear_8,214,1,48,31,1171916100
5,20,Ticks_Linear_8,215,5,42,127,1172019652
5,20,Ticks_Linear_8,216,1,48,31,1172616300
5,20,Ticks_Linear_8,217,5,42,127,1172619716
5,20,Ticks_Linear_8,218,5,42,127,1173219696
5,20,Ticks_Linear_8,219,1,48,38,1173221488
5,20,Ticks_Linear_8,220,5,42,127,1173819624
5,20,Ticks_Linear_8,221,1,48,40,1173829636
5,20,Ticks_Linear_8,222,5,42,127,1174419744
5,20,Ticks_Linear_8,223,1,48,34,1174466744
5,20,Ticks_Linear_8,224,5,42,127,1175019944
5,20,Ticks_Linear_8,225,1,48,34,1175036460
5,20,Ticks_Linear_8,226,1,48,32,1175598404
5,20,Ticks_Linear_8,227,5,42,127,1175609748
5,20,Ticks_Linear_8,228,1,48,38,1176183764
5,20,Ticks_Linear_8,229,5,42,127,1176199464
5,20,Ticks_Linear_8,230,5,42,127,1176790384
5,20,Ticks_Linear_8,231,1,48,40,1176807348
5,20,Ticks_Linear_8,232,1,48,37,1177344696
5,20,Ticks_Linear_8,233,5,42,127,1177380312
5,20,Ticks_Linear_8,234,1,48,43,1177917488
5,20,Ticks_Linear_8,235,5,42,127,1177970252
5,20,Ticks_Linear_8,236,5,42,127,1178549716
5,20,Ticks_Linear_8,237,1,48,34,1178552392
5,20,Ticks_Linear_8,238,1,48,38,1179055432
5,20,Ticks_Linear_8,239,5,42,127,1179130216
5,20,Ticks_Linear_8,240,1,48,39,1179676096
5,20,Ticks_Linear_8,241,5,42,127,1179709768
5,20,Ticks_Linear_8,242,5,42,127,1180290428
5,20,Ticks_Linear_8,243,1,48,42,1180319536
5,20,Ticks_Linear_8,244,5,42,127,1180880368
5,20,Ticks_Linear_8,245,1,48,38,1180938564
5,20,Ticks_Linear_8,246,1,48,29,1181444744
5,20,Ticks_Linear_8,247,5,42,127,1181449584
5,20,Ticks_Linear_8,248,5,42,127,1182020060
5,20,Ticks_Linear_8,249,1,48,33,1182062120
5,20,Ticks_Linear_8,250,5,42,127,1182590376
5,20,Ticks_Linear_8,251,1,48,32,1182664412
5,20,Ticks_Linear_8,252,5,42,127,1183159648
5,20,Ticks_Linear_8,253,1,48,39,1183206572
5,20,Ticks_Linear_8,254,5,42,127,1183730264
5,20,Ticks_Linear_8,255,1,48,39,1183745908
5,20,Ticks_Linear_8,256,5,42,127,1184290124
5,20,Ticks_Linear_8,257,1,48,43,1184305448
5,20,Ticks_Linear_8,258,1,48,25,1184368268
5,20,Ticks_Linear_8,259,5,42,127,1184850240
5,20,Ticks_Linear_8,260,1,48,38,1184889608
5,20,Ticks_Linear_8,261,5,42,127,1185410524
5,20,Ticks_Linear_8,262,1,48,30,1185519608
5,20,Ticks_Linear_8,263,5,42,127,1185979720
5,20,Ticks_Linear_8,264,1,48,40,1186012196
5,20,Ticks_Linear_8,265,5,42,127,1186540148
5,20,Ticks_Linear_8,266,1,48,44,1186565532
5,20,Ticks_Linear_8,267,5,42,127,1187089900
5,20,Ticks_Linear_8,268,1,48,42,1187162960
5,20,Ticks_Linear_8,269,5,42,127,1187639772
5,20,Ticks_Linear_8,270,1,48,40,1187671132
5,20,Ticks_Linear_8,271,5,42,127,1188189576
5,20,Ticks_Linear_8,272,1,48,32,1188217624
5,20,Ticks_Linear_8,273,5,42,127,1188739304
5,20,Ticks_Linear_8,274,1,48,39,1188768788
5,20,Ticks_Linear_8,275,5,42,127,1189290376
5,20,Ticks_Linear_8,276,1,48,40,1189318584
5,20,Ticks_Linear_8,277,5,42,127,1189829916
5,20,Ticks_Linear_8,278,1,48,32,1189850932
5,20,Ticks_Linear_8,279,5,42,127,1190369532
5,20,Ticks_Linear_8,280,1,48,36,1190372652
5,20,Ticks_Linear_8,281,5,42,127,1190910192
5,20,Ticks_Linear_8,282,1,48,46,1190915404
5,20,Ticks_Linear_8,283,5,42,127,1191449884
5,20,Ticks_Linear_8,284,1,48,45,1191464088
5,20,Ticks_Linear_8,285,1,48,48,1191970504
5,20,Ticks_Linear_8,286,5,42,127,1191989868
5,20,Ticks_Linear_8,287,1,48,44,1192499188
5,20,Ticks_Linear_8,288,5,42,127,1192520120
5,20,Ticks_Linear_8,289,1,48,50,1193010940
5,20,Ticks_Linear_8,290,5,42,127,1193049400
5,20,Ticks_Linear_8,291,1,48,50,1193549288
5,20,Ticks_Linear_8,292,5,42,127,1193579956
5,20,Ticks_Linear_8,293,1,48,47,1194109460
5,20,Ticks_Linear_8,294,5,42,127,1194111180
5,20,Ticks_Linear_8,295,5,42,127,1194639720
5,20,Ticks_Linear_8,296,1,48,47,1194675108
5,20,Ticks_Linear_8,297,5,42,127,1195159864
5,20,Ticks_Linear_8,298,1,48,43,1195190020
5,20,Ticks_Linear_8,299,5,42,127,1195680084
5,20,Ticks_Linear_8,300,1,48,43,1195715024
5,20,Ticks_Linear_8,301,1,48,46,1196174788
5,20,Ticks_Linear_8,302,5,42,127,1196200296
5,20,Ticks_Linear_8,303,1,48,49,1196682284
5,20,Ticks_Linear_8,304,5,42,127,1196719692
5,20,Ticks_Linear_8,305,1,48,54,1197195456
5,20,Ticks_Linear_8,306,5,42,127,1197239760
5,20,Ticks_Linear_8,307,1,48,40,1197667372
5,20,Ticks_Linear_8,308,5,42,127,1197749720
5,20,Ticks_Linear_8,309,1,48,47,1198222116
5,20,Ticks_Linear_8,310,5,42,127,1198259752
5,20,Ticks_Linear_8,311,1,48,54,1198719648
5,20,Ticks_Linear_8,312,5,42,127,1198769564
5,20,Ticks_Linear_8,313,1,48,54,1199245776
5,20,Ticks_Linear_8,314,5,42,127,1199279448
5,20,Ticks_Linear_8,315,5,42,127,1199789640
5,20,Ticks_Linear_8,316,1,48,49,1199813876
5,20,Ticks_Linear_8,317,5,42,127,1200290308
5,20,Ticks_Linear_8,318,1,48,45,1200325624
5,20,Ticks_Linear_8,319,5,42,127,1200790008
5,20,Ticks_Linear_8,320,1,48,46,1200812672
5,20,Ticks_Linear_8,321,5,42,127,1201289560
5,20,Ticks_Linear_8,322,1,48,37,1201317832
5,20,Ticks_Linear_8,323,5,42,127,1201790604
5,20,Ticks_Linear_8,324,1,48,39,1201832888
5,20,Ticks_Linear_8,325,1,48,44,1202283216
5,20,Ticks_Linear_8,326,5,42,127,1202290076
5,20,Ticks_Linear_8,327,5,42,127,1202779672
5,20,Ticks_Linear_8,328,1,48,46,1202781160
5,20,Ticks_Linear_8,329,5,42,127,1203270088
5,20,Ticks_Linear_8,330,1,48,43,1203270976
5,20,Ticks_Linear_8,331,5,42,127,1203759452
5,20,Ticks_Linear_8,332,1,48,42,1203788944
5,20,Ticks_Linear_8,333,1,48,43,1204243000
5,20,Ticks_Linear_8,334,5,42,127,1204249936
5,20,Ticks_Linear_8,335,1,48,40,1204731668
5,20,Ticks_Linear_8,336,5,42,127,1204739528
5,20,Ticks_Linear_8,0,9999,9999,9999,1094157408
5,20,Ticks_Linear_8,1,9999,9999,9999,1094977600
5,20,Ticks_Linear_8,2,9999,9999,9999,1095797836
5,20,Ticks_Linear_8,3,9999,9999,9999,1096618076
5,20,Ticks_Linear_8,4,9999,9999,9999,1097437272
5,20,Ticks_Linear_8,5,9999,9999,9999,1098247288
5,20,Ticks_Linear_8,6,9999,9999,9999,1099057272
5,20,Ticks_Linear_8,7,9999,9999,9999,1099867256
5,20,Ticks_Linear_8,8,9999,9999,9999,1100677232
5,20,Ticks_Linear_8,9,9999,9999,9999,1101487212
5,20,Ticks_Linear_8,10,9999,9999,9999,1102287992
5,20,Ticks_Linear_8,11,9999,9999,9999,1103087708
5,20,Ticks_Linear_8,12,9999,9999,9999,1103887456
5,20,Ticks_Linear_8,13,9999,9999,9999,1104687184
5,20,Ticks_Linear_8,14,9999,9999,9999,1105487956
5,20,Ticks_Linear_8,15,9999,9999,9999,1106277492
5,20,Ticks_Linear_8,16,9999,9999,9999,1107068004
5,20,Ticks_Linear_8,17,9999,9999,9999,1107857472
5,20,Ticks_Linear_8,18,9999,9999,9999,1108648056
5,20,Ticks_Linear_8,19,9999,9999,9999,1109437528
5,20,Ticks_Linear_8,20,9999,9999,9999,1110217852
5,20,Ticks_Linear_8,21,9999,9999,9999,1110998104
5,20,Ticks_Linear_8,22,9999,9999,9999,1111787640
5,20,Ticks_Linear_8,23,9999,9999,9999,1112567888
5,20,Ticks_Linear_8,24,9999,9999,9999,1113347168
5,20,Ticks_Linear_8,25,9999,9999,9999,1114117188
5,20,Ticks_Linear_8,26,9999,9999,9999,1114887256
5,20,Ticks_Linear_8,27,9999,9999,9999,1115657320
5,20,Ticks_Linear_8,28,9999,9999,9999,1116427388
5,20,Ticks_Linear_8,29,9999,9999,9999,1117197380
5,20,Ticks_Linear_8,30,9999,9999,9999,1117957192
5,20,Ticks_Linear_8,31,9999,9999,9999,1118718028
5,20,Ticks_Linear_8,32,9999,9999,9999,1119477836
5,20,Ticks_Linear_8,33,9999,9999,9999,1120237644
5,20,Ticks_Linear_8,34,9999,9999,9999,1120997448
5,20,Ticks_Linear_8,35,9999,9999,9999,1121748044
5,20,Ticks_Linear_8,36,9999,9999,9999,1122497596
5,20,Ticks_Linear_8,37,9999,9999,9999,1123247220
5,20,Ticks_Linear_8,38,9999,9999,9999,1123997820
5,20,Ticks_Linear_8,39,9999,9999,9999,1124747376
5,20,Ticks_Linear_8,40,9999,9999,9999,1125487712
5,20,Ticks_Linear_8,41,9999,9999,9999,1126228048
5,20,Ticks_Linear_8,42,9999,9999,9999,1126967412
5,20,Ticks_Linear_8,43,9999,9999,9999,1127707752
5,20,Ticks_Linear_8,44,9999,9999,9999,1128448064
5,20,Ticks_Linear_8,45,9999,9999,9999,1129187404
5,20,Ticks_Linear_8,46,9999,9999,9999,1129917560
5,20,Ticks_Linear_8,47,9999,9999,9999,1130647636
5,20,Ticks_Linear_8,48,9999,9999,9999,1131377784
5,20,Ticks_Linear_8,49,9999,9999,9999,1132107868
5,20,Ticks_Linear_8,50,9999,9999,9999,1132827764
5,20,Ticks_Linear_8,51,9999,9999,9999,1133547632
5,20,Ticks_Linear_8,52,9999,9999,9999,1134267448
5,20,Ticks_Linear_8,53,9999,9999,9999,1134987344
5,20,Ticks_Linear_8,54,9999,9999,9999,1135707232
5,20,Ticks_Linear_8,55,9999,9999,9999,1136417916
5,20,Ticks_Linear_8,56,9999,9999,9999,1137127524
5,20,Ticks_Linear_8,57,9999,9999,9999,1137837164
5,20,Ticks_Linear_8,58,9999,9999,9999,1138547764
5,20,Ticks_Linear_8,59,9999,9999,9999,1139257408
5,20,Ticks_Linear_8,60,9999,9999,9999,1139957884
5,20,Ticks_Linear_8,61,9999,9999,9999,1140657256
5,20,Ticks_Linear_8,62,9999,9999,9999,1141357680
5,20,Ticks_Linear_8,63,9999,9999,9999,1142058100
5,20,Ticks_Linear_8,64,9999,9999,9999,1142757452
5,20,Ticks_Linear_8,65,9999,9999,9999,1143447616
5,20,Ticks_Linear_8,66,9999,9999,9999,1144137848
5,20,Ticks_Linear_8,67,9999,9999,9999,1144827996
5,20,Ticks_Linear_8,68,9999,9999,9999,1145517112
5,20,Ticks_Linear_8,69,9999,9999,9999,1146207344
5,20,Ticks_Linear_8,70,9999,9999,9999,1146887252
5,20,Ticks_Linear_8,71,9999,9999,9999,1147567208
5,20,Ticks_Linear_8,72,9999,9999,9999,1148247108
5,20,Ticks_Linear_8,73,9999,9999,9999,1148928112
5,20,Ticks_Linear_8,74,9999,9999,9999,1149617224
5,20,Ticks_Linear_8,75,9999,9999,9999,1150287996
5,20,Ticks_Linear_8,76,9999,9999,9999,1150957688
5,20,Ticks_Linear_8,77,9999,9999,9999,1151627332
5,20,Ticks_Linear_8,78,9999,9999,9999,1152298096
5,20,Ticks_Linear_8,79,9999,9999,9999,1152967788
5,20,Ticks_Linear_8,80,9999,9999,9999,1153627252
5,20,Ticks_Linear_8,81,9999,9999,9999,1154287736
5,20,Ticks_Linear_8,82,9999,9999,9999,1154947196
5,20,Ticks_Linear_8,83,9999,9999,9999,1155607628
5,20,Ticks_Linear_8,84,9999,9999,9999,1156267132
5,20,Ticks_Linear_8,85,9999,9999,9999,1156917304
5,20,Ticks_Linear_8,86,9999,9999,9999,1157567604
5,20,Ticks_Linear_8,87,9999,9999,9999,1158217784
5,20,Ticks_Linear_8,88,9999,9999,9999,1158868080
5,20,Ticks_Linear_8,89,9999,9999,9999,1159517276
5,20,Ticks_Linear_8,90,9999,9999,9999,1160157300
5,20,Ticks_Linear_8,91,9999,9999,9999,1160797236
5,20,Ticks_Linear_8,92,9999,9999,9999,1161437276
5,20,Ticks_Linear_8,93,9999,9999,9999,1162077264
5,20,Ticks_Linear_8,94,9999,9999,9999,1162717300
5,20,Ticks_Linear_8,95,9999,9999,9999,1163348076
5,20,Ticks_Linear_8,96,9999,9999,9999,1163977804
5,20,Ticks_Linear_8,97,9999,9999,9999,1164607608
5,20,Ticks_Linear_8,98,9999,9999,9999,1165237312
5,20,Ticks_Linear_8,99,9999,9999,9999,1165867120
5,20,Ticks_Linear_8,100,9999,9999,9999,1166487612
5,20,Ticks_Linear_8,101,9999,9999,9999,1167107156
5,20,Ticks_Linear_8,102,9999,9999,9999,1167727724
5,20,Ticks_Linear_8,103,9999,9999,9999,1168347192
5,20,Ticks_Linear_8,104,9999,9999,9999,1168967784
5,20,Ticks_Linear_8,105,9999,9999,9999,1169578092
5,20,Ticks_Linear_8,106,9999,9999,9999,1170187376
5,20,Ticks_Linear_8,107,9999,9999,9999,1170797684
5,20,Ticks_Linear_8,108,9999,9999,9999,1171407992
5,20,Ticks_Linear_8,109,9999,9999,9999,1172017276
5,20,Ticks_Linear_8,110,9999,9999,9999,1172617344
5,20,Ticks_Linear_8,111,9999,9999,9999,1173217396
5,20,Ticks_Linear_8,112,9999,9999,9999,1173817400
5,20,Ticks_Linear_8,113,9999,9999,9999,1174417520
5,20,Ticks_Linear_8,114,9999,9999,9999,1175017568
5,20,Ticks_Linear_8,115,9999,9999,9999,1175607376
5,20,Ticks_Linear_8,116,9999,9999,9999,1176197240
5,20,Ticks_Linear_8,117,9999,9999,9999,1176788084
5,20,Ticks_Linear_8,118,9999,9999,9999,1177377868
5,20,Ticks_Linear_8,119,9999,9999,9999,1177967732
5,20,Ticks_Linear_8,120,9999,9999,9999,1178547268
5,20,Ticks_Linear_8,121,9999,9999,9999,1179127916
5,20,Ticks_Linear_8,122,9999,9999,9999,1179707472
5,20,Ticks_Linear_8,123,9999,9999,9999,1180288056
5,20,Ticks_Linear_8,124,9999,9999,9999,1180877920
5,20,Ticks_Linear_8,125,9999,9999,9999,1181447288
5,20,Ticks_Linear_8,126,9999,9999,9999,1182017612
5,20,Ticks_Linear_8,127,9999,9999,9999,1182588004
5,20,Ticks_Linear_8,128,9999,9999,9999,1183157352
5,20,Ticks_Linear_8,129,9999,9999,9999,1183727740
5,20,Ticks_Linear_8,130,9999,9999,9999,1184287828
5,20,Ticks_Linear_8,131,9999,9999,9999,1184847940
5,20,Ticks_Linear_8,132,9999,9999,9999,1185408076
5,20,Ticks_Linear_8,133,9999,9999,9999,1185977420
5,20,Ticks_Linear_8,134,9999,9999,9999,1186537552
5,20,Ticks_Linear_8,135,9999,9999,9999,1187087452
5,20,Ticks_Linear_8,136,9999,9999,9999,1187637328
5,20,Ticks_Linear_8,137,9999,9999,9999,1188187204
5,20,Ticks_Linear_8,138,9999,9999,9999,1188737080
5,20,Ticks_Linear_8,139,9999,9999,9999,1189288000
5,20,Ticks_Linear_8,140,9999,9999,9999,1189827692
5,20,Ticks_Linear_8,141,9999,9999,9999,1190367308
5,20,Ticks_Linear_8,142,9999,9999,9999,1190907968
5,20,Ticks_Linear_8,143,9999,9999,9999,1191447660
5,20,Ticks_Linear_8,144,9999,9999,9999,1191987272
5,20,Ticks_Linear_8,145,9999,9999,9999,1192517748
5,20,Ticks_Linear_8,146,9999,9999,9999,1193047104
5,20,Ticks_Linear_8,147,9999,9999,9999,1193577580
5,20,Ticks_Linear_8,148,9999,9999,9999,1194107992
5,20,Ticks_Linear_8,149,9999,9999,9999,1194637420
5,20,Ticks_Linear_8,150,9999,9999,9999,1195157564
5,20,Ticks_Linear_8,151,9999,9999,9999,1195677784
5,20,Ticks_Linear_8,152,9999,9999,9999,1196197996
5,20,Ticks_Linear_8,153,9999,9999,9999,1196717168
5,20,Ticks_Linear_8,154,9999,9999,9999,1197237312
5,20,Ticks_Linear_8,155,9999,9999,9999,1197747272
5,20,Ticks_Linear_8,156,9999,9999,9999,1198257232
5,20,Ticks_Linear_8,157,9999,9999,9999,1198767188
5,20,Ticks_Linear_8,158,9999,9999,9999,1199277152
5,20,Ticks_Linear_8,159,9999,9999,9999,1199787116
5,20,Ticks_Linear_8,160,9999,9999,9999,1200287860
5,20,Ticks_Linear_8,161,9999,9999,9999,1200787560
5,20,Ticks_Linear_8,162,9999,9999,9999,1201287260
5,20,Ticks_Linear_8,163,9999,9999,9999,1201788008
5,20,Ticks_Linear_8,164,9999,9999,9999,1202287700
5,20,Ticks_Linear_8,165,9999,9999,9999,1202777152
5,20,Ticks_Linear_8,166,9999,9999,9999,1203267636
5,20,Ticks_Linear_8,167,9999,9999,9999,1203757152
5,20,Ticks_Linear_8,168,9999,9999,9999,1204247636
5,20,Ticks_Linear_8,169,9999,9999,9999,1204737080
6,21,Ticks_Linear_5,0,5,42,127,1215485384
6,21,Ticks_Linear_5,1,5,42,127,1215964512
6,21,Ticks_Linear_5,2,1,48,45,1215984336
6,21,Ticks_Linear_5,3,1,48,43,1216431360
6,21,Ticks_Linear_5,4,5,42,127,1216444808
6,21,Ticks_Linear_5,5,1,48,45,1216909496
6,21,Ticks_Linear_5,6,5,42,127,1216925484
6,21,Ticks_Linear_5,7,5,42,127,1217405272
6,21,Ticks_Linear_5,8,1,48,45,1217426068
6,21,Ticks_Linear_5,9,1,48,49,1217886728
6,21,Ticks_Linear_5,10,5,42,127,1217894708
6,21,Ticks_Linear_5,11,1,48,48,1218351152
6,21,Ticks_Linear_5,12,5,42,127,1218385416
6,21,Ticks_Linear_5,13,1,48,45,1218829132
6,21,Ticks_Linear_5,14,5,42,127,1218874636
6,21,Ticks_Linear_5,15,1,48,42,1219346060
6,21,Ticks_Linear_5,16,5,42,127,1219365272
6,21,Ticks_Linear_5,17,1,48,50,1219842768
6,21,Ticks_Linear_5,18,5,42,127,1219854860
6,21,Ticks_Linear_5,19,1,48,49,1220311060
6,21,Ticks_Linear_5,20,5,42,127,1220354412
6,21,Ticks_Linear_5,21,1,48,42,1220825736
6,21,Ticks_Linear_5,22,5,42,127,1220855132
6,21,Ticks_Linear_5,23,1,48,45,1221328580
6,21,Ticks_Linear_5,24,5,42,127,1221355204
6,21,Ticks_Linear_5,25,5,42,127,1221854540
6,21,Ticks_Linear_5,26,1,48,29,1221883276
6,21,Ticks_Linear_5,27,5,42,127,1222355360
6,21,Ticks_Linear_5,28,1,48,44,1222362148
6,21,Ticks_Linear_5,29,5,42,127,1222865320
6,21,Ticks_Linear_5,30,1,48,40,1222867992
6,21,Ticks_Linear_5,31,5,42,127,1223375128
6,21,Ticks_Linear_5,32,1,48,43,1223388132
6,21,Ticks_Linear_5,33,5,42,127,1223885312
6,21,Ticks_Linear_5,34,1,48,36,1223950308
6,21,Ticks_Linear_5,35,1,48,36,1224374856
6,21,Ticks_Linear_5,36,5,42,127,1224395112
6,21,Ticks_Linear_5,37,1,48,35,1224889756
6,21,Ticks_Linear_5,38,5,42,127,1224905148
6,21,Ticks_Linear_5,39,5,42,127,1225425228
6,21,Ticks_Linear_5,40,1,48,40,1225431712
6,21,Ticks_Linear_5,41,5,42,127,1225944472
6,21,Ticks_Linear_5,42,1,48,40,1225964672
6,21,Ticks_Linear_5,43,5,42,127,1226464916
6,21,Ticks_Linear_5,44,1,48,33,1226473208
6,21,Ticks_Linear_5,45,1,48,35,1226980888
6,21,Ticks_Linear_5,46,5,42,127,1226985052
6,21,Ticks_Linear_5,47,5,42,127,1227504904
6,21,Ticks_Linear_5,48,1,48,36,1227523408
6,21,Ticks_Linear_5,49,5,42,127,1228034360
6,21,Ticks_Linear_5,50,1,48,35,1228078888
6,21,Ticks_Linear_5,51,1,48,32,1228548612
6,21,Ticks_Linear_5,52,5,42,127,1228564980
6,21,Ticks_Linear_5,53,1,48,37,1229074372
6,21,Ticks_Linear_5,54,5,42,127,1229095308
6,21,Ticks_Linear_5,55,1,48,38,1229615784
6,21,Ticks_Linear_5,56,5,42,127,1229624812
6,21,Ticks_Linear_5,57,5,42,127,1230155072
6,21,Ticks_Linear_5,58,1,48,38,1230166804
6,21,Ticks_Linear_5,59,5,42,127,1230694760
6,21,Ticks_Linear_5,60,1,48,45,1230706720
6,21,Ticks_Linear_5,61,5,42,127,1231234524
6,21,Ticks_Linear_5,62,1,48,43,1231237424
6,21,Ticks_Linear_5,63,1,48,40,1231767276
6,21,Ticks_Linear_5,64,5,42,127,1231775180
6,21,Ticks_Linear_5,65,1,48,48,1232297160
6,21,Ticks_Linear_5,66,5,42,127,1232314648
6,21,Ticks_Linear_5,67,1,48,43,1232786148
6,21,Ticks_Linear_5,68,5,42,127,1232855756
6,21,Ticks_Linear_5,69,5,42,127,1233405192
6,21,Ticks_Linear_5,70,1,48,36,1233413560
6,21,Ticks_Linear_5,71,5,42,127,1233955140
6,21,Ticks_Linear_5,72,1,48,35,1233971588
6,21,Ticks_Linear_5,73,1,48,38,1234475464
6,21,Ticks_Linear_5,74,5,42,127,1234505008
6,21,Ticks_Linear_5,75,1,48,38,1235046532
6,21,Ticks_Linear_5,76,5,42,127,1235054956
6,21,Ticks_Linear_5,77,1,48,31,1235602312
6,21,Ticks_Linear_5,78,5,42,127,1235604908
6,21,Ticks_Linear_5,79,1,48,39,1236156692
6,21,Ticks_Linear_5,80,5,42,127,1236165116
6,21,Ticks_Linear_5,81,1,48,34,1236722280
6,21,Ticks_Linear_5,82,5,42,127,1236725100
6,21,Ticks_Linear_5,83,5,42,127,1237285340
6,21,Ticks_Linear_5,84,1,48,29,1237302080
6,21,Ticks_Linear_5,85,5,42,127,1237845548
6,21,Ticks_Linear_5,86,1,48,38,1237849864
6,21,Ticks_Linear_5,87,1,48,35,1238402520
6,21,Ticks_Linear_5,88,5,42,127,1238404552
6,21,Ticks_Linear_5,89,1,48,39,1238961864
6,21,Ticks_Linear_5,90,5,42,127,1238974796
6,21,Ticks_Linear_5,91,1,48,38,1239499536
6,21,Ticks_Linear_5,92,5,42,127,1239545112
6,21,Ticks_Linear_5,93,1,48,28,1240091296
6,21,Ticks_Linear_5,94,5,42,127,1240114408
6,21,Ticks_Linear_5,95,1,48,35,1240648512
6,21,Ticks_Linear_5,96,5,42,127,1240684800
6,21,Ticks_Linear_5,97,1,48,35,1241218232
6,21,Ticks_Linear_5,98,5,42,127,1241255340
6,21,Ticks_Linear_5,99,1,48,38,1241804880
6,21,Ticks_Linear_5,100,5,42,127,1241834948
6,21,Ticks_Linear_5,101,1,48,31,1242390416
6,21,Ticks_Linear_5,102,5,42,127,1242414576
6,21,Ticks_Linear_5,103,1,48,33,1242988972
6,21,Ticks_Linear_5,104,5,42,127,1242995004
6,21,Ticks_Linear_5,105,1,48,37,1243538920
6,21,Ticks_Linear_5,106,5,42,127,1243574608
6,21,Ticks_Linear_5,107,1,48,40,1244122872
6,21,Ticks_Linear_5,108,5,42,127,1244155480
6,21,Ticks_Linear_5,109,1,48,35,1244665628
6,21,Ticks_Linear_5,110,5,42,127,1244745296
6,21,Ticks_Linear_5,111,5,42,127,1245334872
6,21,Ticks_Linear_5,112,1,48,29,1245385248
6,21,Ticks_Linear_5,113,5,42,127,1245924584
6,21,Ticks_Linear_5,114,1,48,32,1246013328
6,21,Ticks_Linear_5,115,5,42,127,1246514548
6,21,Ticks_Linear_5,116,1,48,29,1246577352
6,21,Ticks_Linear_5,117,5,42,127,1247105308
6,21,Ticks_Linear_5,118,1,48,32,1247130744
6,21,Ticks_Linear_5,119,5,42,127,1247704308
6,21,Ticks_Linear_5,120,1,48,36,1247715892
6,21,Ticks_Linear_5,121,5,42,127,1248304460
6,21,Ticks_Linear_5,122,1,48,35,1248321424
6,21,Ticks_Linear_5,123,5,42,127,1248904432
6,21,Ticks_Linear_5,124,1,48,30,1248918560
6,21,Ticks_Linear_5,125,1,48,34,1249493948
6,21,Ticks_Linear_5,126,5,42,127,1249504624
6,21,Ticks_Linear_5,127,1,48,25,1250099108
6,21,Ticks_Linear_5,128,5,42,127,1250104844
6,21,Ticks_Linear_5,129,1,48,32,1250692504
6,21,Ticks_Linear_5,130,5,42,127,1250715076
6,21,Ticks_Linear_5,131,1,48,38,1251284608
6,21,Ticks_Linear_5,132,5,42,127,1251325188
6,21,Ticks_Linear_5,133,1,48,41,1251880556
6,21,Ticks_Linear_5,134,5,42,127,1251934448
6,21,Ticks_Linear_5,135,1,48,37,1252487204
6,21,Ticks_Linear_5,136,5,42,127,1252544976
6,21,Ticks_Linear_5,137,1,48,40,1253137368
6,21,Ticks_Linear_5,138,5,42,127,1253155160
6,21,Ticks_Linear_5,139,5,42,127,1253774688
6,21,Ticks_Linear_5,140,1,48,42,1253800568
6,21,Ticks_Linear_5,141,5,42,127,1254395252
6,21,Ticks_Linear_5,142,1,48,42,1254396764
6,21,Ticks_Linear_5,143,1,48,39,1254993712
6,21,Ticks_Linear_5,144,5,42,127,1255014644
6,21,Ticks_Linear_5,145,1,48,40,1255624764
6,21,Ticks_Linear_5,146,5,42,127,1255635284
6,21,Ticks_Linear_5,147,5,42,127,1256254984
6,21,Ticks_Linear_5,148,1,48,37,1256276008
6,21,Ticks_Linear_5,149,5,42,127,1256884540
6,21,Ticks_Linear_5,150,1,48,38,1256907428
6,21,Ticks_Linear_5,151,1,48,36,1257496024
6,21,Ticks_Linear_5,152,5,42,127,1257515312
6,21,Ticks_Linear_5,153,1,48,39,1258100036
6,21,Ticks_Linear_5,154,5,42,127,1258145012
6,21,Ticks_Linear_5,155,1,48,36,1258772524
6,21,Ticks_Linear_5,156,5,42,127,1258775040
6,21,Ticks_Linear_5,157,5,42,127,1259404604
6,21,Ticks_Linear_5,158,1,48,45,1259430040
6,21,Ticks_Linear_5,159,5,42,127,1260044740
6,21,Ticks_Linear_5,160,1,48,31,1260051752
6,21,Ticks_Linear_5,161,1,48,34,1260671472
6,21,Ticks_Linear_5,162,5,42,127,1260684624
6,21,Ticks_Linear_5,163,1,48,38,1261303884
6,21,Ticks_Linear_5,164,5,42,127,1261324760
6,21,Ticks_Linear_5,165,1,48,39,1261936300
6,21,Ticks_Linear_5,166,5,42,127,1261964724
6,21,Ticks_Linear_5,167,1,48,37,1262582248
6,21,Ticks_Linear_5,168,5,42,127,1262604784
6,21,Ticks_Linear_5,169,1,48,38,1263242152
6,21,Ticks_Linear_5,170,5,42,127,1263254860
6,21,Ticks_Linear_5,171,1,48,39,1263847832
6,21,Ticks_Linear_5,172,5,42,127,1263905036
6,21,Ticks_Linear_5,173,5,42,127,1264555484
6,21,Ticks_Linear_5,174,1,48,39,1264585120
6,21,Ticks_Linear_5,175,5,42,127,1265204612
6,21,Ticks_Linear_5,176,1,48,37,1265217620
6,21,Ticks_Linear_5,177,5,42,127,1265854984
6,21,Ticks_Linear_5,178,1,48,32,1265864396
6,21,Ticks_Linear_5,179,1,48,34,1266489156
6,21,Ticks_Linear_5,180,5,42,127,1266515412
6,21,Ticks_Linear_5,181,5,42,127,1267174928
6,21,Ticks_Linear_5,182,1,48,36,1267177752
6,21,Ticks_Linear_5,183,5,42,127,1267835136
6,21,Ticks_Linear_5,184,1,48,38,1267859072
6,21,Ticks_Linear_5,185,1,48,35,1268487288
6,21,Ticks_Linear_5,186,5,42,127,1268494812
6,21,Ticks_Linear_5,187,1,48,38,1269133692
6,21,Ticks_Linear_5,188,5,42,127,1269155144
6,21,Ticks_Linear_5,189,1,48,30,1269796144
6,21,Ticks_Linear_5,190,5,42,127,1269824864
6,21,Ticks_Linear_5,191,1,48,45,1270472344
6,21,Ticks_Linear_5,192,5,42,127,1270494560
6,21,Ticks_Linear_5,193,1,48,39,1271135856
6,21,Ticks_Linear_5,194,5,42,127,1271165324
6,21,Ticks_Linear_5,195,1,48,38,1271817632
6,21,Ticks_Linear_5,196,5,42,127,1271834896
6,21,Ticks_Linear_5,197,5,42,127,1272504672
6,21,Ticks_Linear_5,198,1,48,39,1272505636
6,21,Ticks_Linear_5,199,1,48,43,1273164236
6,21,Ticks_Linear_5,200,5,42,127,1273184792
6,21,Ticks_Linear_5,201,1,48,40,1273819324
6,21,Ticks_Linear_5,202,5,42,127,1273864544
6,21,Ticks_Linear_5,203,1,48,38,1274524164
6,21,Ticks_Linear_5,204,5,42,127,1274544572
6,21,Ticks_Linear_5,205,1,48,33,1275207656
6,21,Ticks_Linear_5,206,5,42,127,1275224404
6,21,Ticks_Linear_5,207,1,48,35,1275887388
6,21,Ticks_Linear_5,208,5,42,127,1275905504
6,21,Ticks_Linear_5,209,1,48,38,1276575232
6,21,Ticks_Linear_5,210,5,42,127,1276594668
6,21,Ticks_Linear_5,211,1,48,37,1277254664
6,21,Ticks_Linear_5,212,5,42,127,1277284580
6,21,Ticks_Linear_5,213,1,48,38,1277943304
6,21,Ticks_Linear_5,214,5,42,127,1277974816
6,21,Ticks_Linear_5,215,1,48,37,1278641768
6,21,Ticks_Linear_5,216,5,42,127,1278665032
6,21,Ticks_Linear_5,217,1,48,40,1279325124
6,21,Ticks_Linear_5,218,5,42,127,1279355196
6,21,Ticks_Linear_5,219,1,48,34,1280017232
6,21,Ticks_Linear_5,220,5,42,127,1280054644
6,21,Ticks_Linear_5,221,1,48,37,1280727812
6,21,Ticks_Linear_5,222,5,42,127,1280755188
6,21,Ticks_Linear_5,223,1,48,36,1281428984
6,21,Ticks_Linear_5,224,5,42,127,1281454416
6,21,Ticks_Linear_5,225,1,48,37,1282113164
6,21,Ticks_Linear_5,226,5,42,127,1282154836
6,21,Ticks_Linear_5,227,1,48,30,1282799852
6,21,Ticks_Linear_5,228,5,42,127,1282855260
6,21,Ticks_Linear_5,229,1,48,31,1283491208
6,21,Ticks_Linear_5,230,5,42,127,1283564868
6,21,Ticks_Linear_5,231,1,48,28,1284264800
6,21,Ticks_Linear_5,232,5,42,127,1284274428
6,21,Ticks_Linear_5,233,5,42,127,1284985416
6,21,Ticks_Linear_5,234,1,48,36,1284999768
6,21,Ticks_Linear_5,235,1,48,35,1285683172
6,21,Ticks_Linear_5,236,5,42,127,1285694744
6,21,Ticks_Linear_5,237,5,42,127,1286404460
6,21,Ticks_Linear_5,238,1,48,40,1286412296
6,21,Ticks_Linear_5,239,1,48,39,1287089236
6,21,Ticks_Linear_5,240,5,42,127,1287125296
6,21,Ticks_Linear_5,241,1,48,36,1287783448
6,21,Ticks_Linear_5,242,5,42,127,1287845188
6,21,Ticks_Linear_5,243,1,48,32,1288502356
6,21,Ticks_Linear_5,244,5,42,127,1288565232
6,21,Ticks_Linear_5,245,1,48,40,1289247416
6,21,Ticks_Linear_5,246,5,42,127,1289285272
6,21,Ticks_Linear_5,247,1,48,38,1289942504
6,21,Ticks_Linear_5,248,5,42,127,1290005016
6,21,Ticks_Linear_5,249,1,48,34,1290696988
6,21,Ticks_Linear_5,250,5,42,127,1290734920
6,21,Ticks_Linear_5,251,1,48,38,1291423472
6,21,Ticks_Linear_5,252,5,42,127,1291465072
6,21,Ticks_Linear_5,253,1,48,36,1292137972
6,21,Ticks_Linear_5,254,5,42,127,1292195152
6,21,Ticks_Linear_5,255,1,48,38,1292848804
6,21,Ticks_Linear_5,256,5,42,127,1292925380
6,21,Ticks_Linear_5,257,1,48,36,1293572820
6,21,Ticks_Linear_5,258,5,42,127,1293655384
6,21,Ticks_Linear_5,259,1,48,38,1294310432
6,21,Ticks_Linear_5,260,5,42,127,1294394896
6,21,Ticks_Linear_5,261,1,48,36,1295127256
6,21,Ticks_Linear_5,262,5,42,127,1295135160
6,21,Ticks_Linear_5,263,5,42,127,1295874532
6,21,Ticks_Linear_5,264,1,48,34,1295898244
6,21,Ticks_Linear_5,265,1,48,37,1296602520
6,21,Ticks_Linear_5,266,5,42,127,1296615056
6,21,Ticks_Linear_5,267,1,48,40,1297293580
6,21,Ticks_Linear_5,268,5,42,127,1297355172
6,21,Ticks_Linear_5,269,1,48,38,1298007624
6,21,Ticks_Linear_5,270,5,42,127,1298105224
6,21,Ticks_Linear_5,271,5,42,127,1298855324
6,21,Ticks_Linear_5,272,1,48,43,1298880760
6,21,Ticks_Linear_5,273,5,42,127,1299604724
6,21,Ticks_Linear_5,274,1,48,34,1299630604
6,21,Ticks_Linear_5,275,5,42,127,1300354348
6,21,Ticks_Linear_5,276,1,48,41,1300369596
6,21,Ticks_Linear_5,277,1,48,42,1301101296
6,21,Ticks_Linear_5,278,5,42,127,1301105012
6,21,Ticks_Linear_5,279,1,48,31,1301839992
6,21,Ticks_Linear_5,280,5,42,127,1301864824
6,21,Ticks_Linear_5,281,5,42,127,1302624784
6,21,Ticks_Linear_5,282,1,48,21,1302632708
6,21,Ticks_Linear_5,283,1,48,34,1303370840
6,21,Ticks_Linear_5,284,5,42,127,1303384440
6,21,Ticks_Linear_5,285,1,48,17,1304138440
6,21,Ticks_Linear_5,286,5,42,127,1304145296
6,21,Ticks_Linear_5,287,1,48,40,1304887320
6,21,Ticks_Linear_5,288,5,42,127,1304905104
6,21,Ticks_Linear_5,289,1,48,37,1305662780
6,21,Ticks_Linear_5,290,5,42,127,1305675172
6,21,Ticks_Linear_5,291,1,48,34,1306406556
6,21,Ticks_Linear_5,292,5,42,127,1306445092
6,21,Ticks_Linear_5,293,1,48,44,1307152432
6,21,Ticks_Linear_5,294,5,42,127,1307215160
6,21,Ticks_Linear_5,295,1,48,48,1307919660
6,21,Ticks_Linear_5,296,5,42,127,1307985376
6,21,Ticks_Linear_5,297,5,42,127,1308755448
6,21,Ticks_Linear_5,298,1,48,40,1308785984
6,21,Ticks_Linear_5,299,5,42,127,1309534804
6,21,Ticks_Linear_5,300,1,48,32,1309610636
6,21,Ticks_Linear_5,301,5,42,127,1310314832
6,21,Ticks_Linear_5,302,1,48,33,1310444592
6,21,Ticks_Linear_5,303,5,42,127,1311095084
6,21,Ticks_Linear_5,304,1,48,18,1311134676
6,21,Ticks_Linear_5,305,1,48,35,1311830948
6,21,Ticks_Linear_5,306,5,42,127,1311874360
6,21,Ticks_Linear_5,307,1,48,28,1312603500
6,21,Ticks_Linear_5,308,5,42,127,1312654760
6,21,Ticks_Linear_5,309,1,48,37,1313363756
6,21,Ticks_Linear_5,310,5,42,127,1313445420
6,21,Ticks_Linear_5,311,1,48,42,1314136596
6,21,Ticks_Linear_5,312,5,42,127,1314234872
6,21,Ticks_Linear_5,313,5,42,127,1315025480
6,21,Ticks_Linear_5,314,1,48,36,1315088464
6,21,Ticks_Linear_5,315,1,48,35,1315766892
6,21,Ticks_Linear_5,316,5,42,127,1315814864
6,21,Ticks_Linear_5,317,1,48,43,1316540480
6,21,Ticks_Linear_5,318,5,42,127,1316605548
6,21,Ticks_Linear_5,319,1,48,35,1317394528
6,21,Ticks_Linear_5,320,5,42,127,1317404972
6,21,Ticks_Linear_5,321,1,48,42,1318196348
6,21,Ticks_Linear_5,322,5,42,127,1318204772
6,21,Ticks_Linear_5,323,1,48,41,1318936376
6,21,Ticks_Linear_5,324,5,42,127,1319004492
6,21,Ticks_Linear_5,325,1,48,41,1319746208
6,21,Ticks_Linear_5,326,5,42,127,1319805264
6,21,Ticks_Linear_5,327,1,48,45,1320545860
6,21,Ticks_Linear_5,328,5,42,127,1320605284
6,21,Ticks_Linear_5,329,1,48,42,1321344240
6,21,Ticks_Linear_5,330,5,42,127,1321415120
6,21,Ticks_Linear_5,331,1,48,39,1322153396
6,21,Ticks_Linear_5,332,5,42,127,1322225100
6,21,Ticks_Linear_5,333,1,48,37,1322999244
6,21,Ticks_Linear_5,334,5,42,127,1323035108
6,21,Ticks_Linear_5,335,5,42,127,1323845320
6,21,Ticks_Linear_5,336,1,48,41,1323849116
6,21,Ticks_Linear_5,337,1,48,31,1324619836
6,21,Ticks_Linear_5,338,5,42,127,1324655076
6,21,Ticks_Linear_5,0,9999,9999,9999,1215482936
6,21,Ticks_Linear_5,1,9999,9999,9999,1215962216
6,21,Ticks_Linear_5,2,9999,9999,9999,1216442436
6,21,Ticks_Linear_5,3,9999,9999,9999,1216922740
6,21,Ticks_Linear_5,4,9999,9999,9999,1217402972
6,21,Ticks_Linear_5,5,9999,9999,9999,1217892408
6,21,Ticks_Linear_5,6,9999,9999,9999,1218382972
6,21,Ticks_Linear_5,7,9999,9999,9999,1218872412
6,21,Ticks_Linear_5,8,9999,9999,9999,1219362900
6,21,Ticks_Linear_5,9,9999,9999,9999,1219852416
6,21,Ticks_Linear_5,10,9999,9999,9999,1220352116
6,21,Ticks_Linear_5,11,9999,9999,9999,1220852836
6,21,Ticks_Linear_5,12,9999,9999,9999,1221352532
6,21,Ticks_Linear_5,13,9999,9999,9999,1221852240
6,21,Ticks_Linear_5,14,9999,9999,9999,1222352988
6,21,Ticks_Linear_5,15,9999,9999,9999,1222862944
6,21,Ticks_Linear_5,16,9999,9999,9999,1223372904
6,21,Ticks_Linear_5,17,9999,9999,9999,1223882864
6,21,Ticks_Linear_5,18,9999,9999,9999,1224392816
6,21,Ticks_Linear_5,19,9999,9999,9999,1224902776
6,21,Ticks_Linear_5,20,9999,9999,9999,1225422928
6,21,Ticks_Linear_5,21,9999,9999,9999,1225942100
6,21,Ticks_Linear_5,22,9999,9999,9999,1226462320
6,21,Ticks_Linear_5,23,9999,9999,9999,1226982456
6,21,Ticks_Linear_5,24,9999,9999,9999,1227502680
6,21,Ticks_Linear_5,25,9999,9999,9999,1228032064
6,21,Ticks_Linear_5,26,9999,9999,9999,1228562532
6,21,Ticks_Linear_5,27,9999,9999,9999,1229092936
6,21,Ticks_Linear_5,28,9999,9999,9999,1229622364
6,21,Ticks_Linear_5,29,9999,9999,9999,1230152772
6,21,Ticks_Linear_5,30,9999,9999,9999,1230692464
6,21,Ticks_Linear_5,31,9999,9999,9999,1231232076
6,21,Ticks_Linear_5,32,9999,9999,9999,1231772732
6,21,Ticks_Linear_5,33,9999,9999,9999,1232312424
6,21,Ticks_Linear_5,34,9999,9999,9999,1232853084
6,21,Ticks_Linear_5,35,9999,9999,9999,1233402968
6,21,Ticks_Linear_5,36,9999,9999,9999,1233952844
6,21,Ticks_Linear_5,37,9999,9999,9999,1234502712
6,21,Ticks_Linear_5,38,9999,9999,9999,1235052660
6,21,Ticks_Linear_5,39,9999,9999,9999,1235602532
6,21,Ticks_Linear_5,40,9999,9999,9999,1236162668
6,21,Ticks_Linear_5,41,9999,9999,9999,1236722800
6,21,Ticks_Linear_5,42,9999,9999,9999,1237282892
6,21,Ticks_Linear_5,43,9999,9999,9999,1237843024
6,21,Ticks_Linear_5,44,9999,9999,9999,1238402128
6,21,Ticks_Linear_5,45,9999,9999,9999,1238972496
6,21,Ticks_Linear_5,46,9999,9999,9999,1239542888
6,21,Ticks_Linear_5,47,9999,9999,9999,1240112184
6,21,Ticks_Linear_5,48,9999,9999,9999,1240682576
6,21,Ticks_Linear_5,49,9999,9999,9999,1241252968
6,21,Ticks_Linear_5,50,9999,9999,9999,1241832576
6,21,Ticks_Linear_5,51,9999,9999,9999,1242412128
6,21,Ticks_Linear_5,52,9999,9999,9999,1242992704
6,21,Ticks_Linear_5,53,9999,9999,9999,1243572308
6,21,Ticks_Linear_5,54,9999,9999,9999,1244152884
6,21,Ticks_Linear_5,55,9999,9999,9999,1244742776
6,21,Ticks_Linear_5,56,9999,9999,9999,1245332572
6,21,Ticks_Linear_5,57,9999,9999,9999,1245922360
6,21,Ticks_Linear_5,58,9999,9999,9999,1246512248
6,21,Ticks_Linear_5,59,9999,9999,9999,1247103084
6,21,Ticks_Linear_5,60,9999,9999,9999,1247702084
6,21,Ticks_Linear_5,61,9999,9999,9999,1248302160
6,21,Ticks_Linear_5,62,9999,9999,9999,1248902208
6,21,Ticks_Linear_5,63,9999,9999,9999,1249502324
6,21,Ticks_Linear_5,64,9999,9999,9999,1250102396
6,21,Ticks_Linear_5,65,9999,9999,9999,1250712632
6,21,Ticks_Linear_5,66,9999,9999,9999,1251322940
6,21,Ticks_Linear_5,67,9999,9999,9999,1251932224
6,21,Ticks_Linear_5,68,9999,9999,9999,1252542528
6,21,Ticks_Linear_5,69,9999,9999,9999,1253152860
6,21,Ticks_Linear_5,70,9999,9999,9999,1253772388
6,21,Ticks_Linear_5,71,9999,9999,9999,1254392956
6,21,Ticks_Linear_5,72,9999,9999,9999,1255012420
6,21,Ticks_Linear_5,73,9999,9999,9999,1255632984
6,21,Ticks_Linear_5,74,9999,9999,9999,1256252536
6,21,Ticks_Linear_5,75,9999,9999,9999,1256882244
6,21,Ticks_Linear_5,76,9999,9999,9999,1257513088
6,21,Ticks_Linear_5,77,9999,9999,9999,1258142788
6,21,Ticks_Linear_5,78,9999,9999,9999,1258772592
6,21,Ticks_Linear_5,79,9999,9999,9999,1259402304
6,21,Ticks_Linear_5,80,9999,9999,9999,1260042292
6,21,Ticks_Linear_5,81,9999,9999,9999,1260682324
6,21,Ticks_Linear_5,82,9999,9999,9999,1261322312
6,21,Ticks_Linear_5,83,9999,9999,9999,1261962352
6,21,Ticks_Linear_5,84,9999,9999,9999,1262602336
6,21,Ticks_Linear_5,85,9999,9999,9999,1263252560
6,21,Ticks_Linear_5,86,9999,9999,9999,1263902812
6,21,Ticks_Linear_5,87,9999,9999,9999,1264553036
6,21,Ticks_Linear_5,88,9999,9999,9999,1265202236
6,21,Ticks_Linear_5,89,9999,9999,9999,1265852536
6,21,Ticks_Linear_5,90,9999,9999,9999,1266512964
6,21,Ticks_Linear_5,91,9999,9999,9999,1267172480
6,21,Ticks_Linear_5,92,9999,9999,9999,1267832912
6,21,Ticks_Linear_5,93,9999,9999,9999,1268492364
6,21,Ticks_Linear_5,94,9999,9999,9999,1269152844
6,21,Ticks_Linear_5,95,9999,9999,9999,1269822568
6,21,Ticks_Linear_5,96,9999,9999,9999,1270492260
6,21,Ticks_Linear_5,97,9999,9999,9999,1271162952
6,21,Ticks_Linear_5,98,9999,9999,9999,1271832672
6,21,Ticks_Linear_5,99,9999,9999,9999,1272502372
6,21,Ticks_Linear_5,100,9999,9999,9999,1273182268
6,21,Ticks_Linear_5,101,9999,9999,9999,1273862248
6,21,Ticks_Linear_5,102,9999,9999,9999,1274542200
6,21,Ticks_Linear_5,103,9999,9999,9999,1275222104
6,21,Ticks_Linear_5,104,9999,9999,9999,1275903056
6,21,Ticks_Linear_5,105,9999,9999,9999,1276592220
6,21,Ticks_Linear_5,106,9999,9999,9999,1277282356
6,21,Ticks_Linear_5,107,9999,9999,9999,1277972596
6,21,Ticks_Linear_5,108,9999,9999,9999,1278662732
6,21,Ticks_Linear_5,109,9999,9999,9999,1279352896
6,21,Ticks_Linear_5,110,9999,9999,9999,1280052344
6,21,Ticks_Linear_5,111,9999,9999,9999,1280752740
6,21,Ticks_Linear_5,112,9999,9999,9999,1281452116
6,21,Ticks_Linear_5,113,9999,9999,9999,1282152540
6,21,Ticks_Linear_5,114,9999,9999,9999,1282852960
6,21,Ticks_Linear_5,115,9999,9999,9999,1283562572
6,21,Ticks_Linear_5,116,9999,9999,9999,1284272204
6,21,Ticks_Linear_5,117,9999,9999,9999,1284982892
6,21,Ticks_Linear_5,118,9999,9999,9999,1285692520
6,21,Ticks_Linear_5,119,9999,9999,9999,1286402164
6,21,Ticks_Linear_5,120,9999,9999,9999,1287122996
6,21,Ticks_Linear_5,121,9999,9999,9999,1287842892
6,21,Ticks_Linear_5,122,9999,9999,9999,1288562784
6,21,Ticks_Linear_5,123,9999,9999,9999,1289282676
6,21,Ticks_Linear_5,124,9999,9999,9999,1290002496
6,21,Ticks_Linear_5,125,9999,9999,9999,1290732624
6,21,Ticks_Linear_5,126,9999,9999,9999,1291462776
6,21,Ticks_Linear_5,127,9999,9999,9999,1292192852
6,21,Ticks_Linear_5,128,9999,9999,9999,1292923008
6,21,Ticks_Linear_5,129,9999,9999,9999,1293653084
6,21,Ticks_Linear_5,130,9999,9999,9999,1294392376
6,21,Ticks_Linear_5,131,9999,9999,9999,1295132788
6,21,Ticks_Linear_5,132,9999,9999,9999,1295872084
6,21,Ticks_Linear_5,133,9999,9999,9999,1296612464
6,21,Ticks_Linear_5,134,9999,9999,9999,1297352800
6,21,Ticks_Linear_5,135,9999,9999,9999,1298102348
6,21,Ticks_Linear_5,136,9999,9999,9999,1298852952
6,21,Ticks_Linear_5,137,9999,9999,9999,1299602500
6,21,Ticks_Linear_5,138,9999,9999,9999,1300352124
6,21,Ticks_Linear_5,139,9999,9999,9999,1301102712
6,21,Ticks_Linear_5,140,9999,9999,9999,1301862524
6,21,Ticks_Linear_5,141,9999,9999,9999,1302622264
6,21,Ticks_Linear_5,142,9999,9999,9999,1303382140
6,21,Ticks_Linear_5,143,9999,9999,9999,1304142924
6,21,Ticks_Linear_5,144,9999,9999,9999,1304902732
6,21,Ticks_Linear_5,145,9999,9999,9999,1305672800
6,21,Ticks_Linear_5,146,9999,9999,9999,1306442868
6,21,Ticks_Linear_5,147,9999,9999,9999,1307212860
6,21,Ticks_Linear_5,148,9999,9999,9999,1307982928
6,21,Ticks_Linear_5,149,9999,9999,9999,1308753000
6,21,Ticks_Linear_5,150,9999,9999,9999,1309532284
6,21,Ticks_Linear_5,151,9999,9999,9999,1310312536
6,21,Ticks_Linear_5,152,9999,9999,9999,1311092860
6,21,Ticks_Linear_5,153,9999,9999,9999,1311872060
6,21,Ticks_Linear_5,154,9999,9999,9999,1312652384
6,21,Ticks_Linear_5,155,9999,9999,9999,1313442900
6,21,Ticks_Linear_5,156,9999,9999,9999,1314232424
6,21,Ticks_Linear_5,157,9999,9999,9999,1315022956
6,21,Ticks_Linear_5,158,9999,9999,9999,1315812416
6,21,Ticks_Linear_5,159,9999,9999,9999,1316602952
6,21,Ticks_Linear_5,160,9999,9999,9999,1317402748
6,21,Ticks_Linear_5,161,9999,9999,9999,1318202472
6,21,Ticks_Linear_5,162,9999,9999,9999,1319002196
6,21,Ticks_Linear_5,163,9999,9999,9999,1319802968
6,21,Ticks_Linear_5,164,9999,9999,9999,1320602688
6,21,Ticks_Linear_5,165,9999,9999,9999,1321412672
6,21,Ticks_Linear_5,166,9999,9999,9999,1322222656
6,21,Ticks_Linear_5,167,9999,9999,9999,1323032660
6,21,Ticks_Linear_5,168,9999,9999,9999,1323842652
6,21,Ticks_Linear_5,169,9999,9999,9999,1324652628
7,9,Ticks_ISO_T2_8,0,5,42,127,1337328992
7,9,Ticks_ISO_T2_8,1,1,48,28,1337847320
7,9,Ticks_ISO_T2_8,2,5,42,127,1338128972
7,9,Ticks_ISO_T2_8,3,1,48,31,1338831056
7,9,Ticks_ISO_T2_8,4,5,42,127,1338928632
7,9,Ticks_ISO_T2_8,5,1,48,44,1339662000
7,9,Ticks_ISO_T2_8,6,5,42,127,1339729204
7,9,Ticks_ISO_T2_8,7,1,48,44,1340431744
7,9,Ticks_ISO_T2_8,8,5,42,127,1340529000
7,9,Ticks_ISO_T2_8,9,1,48,43,1341281140
7,9,Ticks_ISO_T2_8,10,5,42,127,1341328896
7,9,Ticks_ISO_T2_8,11,1,48,46,1342088208
7,9,Ticks_ISO_T2_8,12,5,42,127,1342128628
7,9,Ticks_ISO_T2_8,13,1,48,45,1342900728
7,9,Ticks_ISO_T2_8,14,5,42,127,1342929260
7,9,Ticks_ISO_T2_8,15,1,48,44,1343678996
7,9,Ticks_ISO_T2_8,16,5,42,127,1343729068
7,9,Ticks_ISO_T2_8,17,1,48,45,1344468852
7,9,Ticks_ISO_T2_8,18,5,42,127,1344528752
7,9,Ticks_ISO_T2_8,19,1,48,43,1345288960
7,9,Ticks_ISO_T2_8,20,5,42,127,1345328560
7,9,Ticks_ISO_T2_8,21,1,48,45,1346106340
7,9,Ticks_ISO_T2_8,22,5,42,127,1346129712
7,9,Ticks_ISO_T2_8,23,5,42,127,1346929080
7,9,Ticks_ISO_T2_8,24,1,48,40,1346930048
7,9,Ticks_ISO_T2_8,25,5,42,127,1347728812
7,9,Ticks_ISO_T2_8,26,1,48,43,1347748612
7,9,Ticks_ISO_T2_8,27,5,42,127,1348528696
7,9,Ticks_ISO_T2_8,28,1,48,42,1348641268
7,9,Ticks_ISO_T2_8,29,5,42,127,1349329552
7,9,Ticks_ISO_T2_8,30,1,48,35,1349342248
7,9,Ticks_ISO_T2_8,31,5,42,127,1350128984
7,9,Ticks_ISO_T2_8,32,1,48,43,1350140284
7,9,Ticks_ISO_T2_8,33,1,48,43,1350923240
7,9,Ticks_ISO_T2_8,34,5,42,127,1350928736
7,9,Ticks_ISO_T2_8,35,1,48,43,1351692756
7,9,Ticks_ISO_T2_8,36,5,42,127,1351728468
7,9,Ticks_ISO_T2_8,37,1,48,41,1352500868
7,9,Ticks_ISO_T2_8,38,5,42,127,1352529548
7,9,Ticks_ISO_T2_8,39,1,48,42,1353307108
7,9,Ticks_ISO_T2_8,40,5,42,127,1353329060
7,9,Ticks_ISO_T2_8,41,1,48,42,1354099660
7,9,Ticks_ISO_T2_8,42,5,42,127,1354128644
7,9,Ticks_ISO_T2_8,43,1,48,42,1354923852
7,9,Ticks_ISO_T2_8,44,5,42,127,1354928528
7,9,Ticks_ISO_T2_8,45,1,48,42,1355697336
7,9,Ticks_ISO_T2_8,46,5,42,127,1355729380
7,9,Ticks_ISO_T2_8,47,1,48,43,1356476500
7,9,Ticks_ISO_T2_8,48,5,42,127,1356529264
7,9,Ticks_ISO_T2_8,49,1,48,40,1357298824
7,9,Ticks_ISO_T2_8,50,5,42,127,1357328800
7,9,Ticks_ISO_T2_8,51,5,42,127,1358128468
7,9,Ticks_ISO_T2_8,52,1,48,47,1358136900
7,9,Ticks_ISO_T2_8,53,5,42,127,1358929248
7,9,Ticks_ISO_T2_8,54,1,48,52,1358954584
7,9,Ticks_ISO_T2_8,55,5,42,127,1359729428
7,9,Ticks_ISO_T2_8,56,1,48,48,1359750124
7,9,Ticks_ISO_T2_8,57,1,48,40,1360525612
7,9,Ticks_ISO_T2_8,58,5,42,127,1360528712
7,9,Ticks_ISO_T2_8,59,1,48,45,1361313376
7,9,Ticks_ISO_T2_8,60,5,42,127,1361328444
7,9,Ticks_ISO_T2_8,61,1,48,47,1362107348
7,9,Ticks_ISO_T2_8,62,5,42,127,1362129224
7,9,Ticks_ISO_T2_8,63,1,48,50,1362896916
7,9,Ticks_ISO_T2_8,64,5,42,127,1362929108
7,9,Ticks_ISO_T2_8,65,5,42,127,1363728876
7,9,Ticks_ISO_T2_8,66,1,48,47,1363762512
7,9,Ticks_ISO_T2_8,67,1,48,40,1364498576
7,9,Ticks_ISO_T2_8,68,5,42,127,1364528452
7,9,Ticks_ISO_T2_8,69,1,48,45,1365274296
7,9,Ticks_ISO_T2_8,70,5,42,127,1365329236
7,9,Ticks_ISO_T2_8,71,1,48,41,1366088464
7,9,Ticks_ISO_T2_8,72,5,42,127,1366128968
7,9,Ticks_ISO_T2_8,73,1,48,40,1366889624
7,9,Ticks_ISO_T2_8,74,5,42,127,1366929072
7,9,Ticks_ISO_T2_8,75,5,42,127,1367728516
7,9,Ticks_ISO_T2_8,76,1,48,41,1367744872
7,9,Ticks_ISO_T2_8,77,1,48,43,1368519676
7,9,Ticks_ISO_T2_8,78,5,42,127,1368529212
7,9,Ticks_ISO_T2_8,79,1,48,37,1369314852
7,9,Ticks_ISO_T2_8,80,5,42,127,1369328872
7,9,Ticks_ISO_T2_8,81,1,48,32,1370071576
7,9,Ticks_ISO_T2_8,82,5,42,127,1370129004
7,9,Ticks_ISO_T2_8,83,1,48,43,1370911128
7,9,Ticks_ISO_T2_8,84,5,42,127,1370928440
7,9,Ticks_ISO_T2_8,85,1,48,41,1371721476
7,9,Ticks_ISO_T2_8,86,5,42,127,1371729292
7,9,Ticks_ISO_T2_8,87,1,48,44,1372524580
7,9,Ticks_ISO_T2_8,88,5,42,127,1372528876
7,9,Ticks_ISO_T2_8,89,1,48,35,1373300452
7,9,Ticks_ISO_T2_8,90,5,42,127,1373328684
7,9,Ticks_ISO_T2_8,91,1,48,39,1374083132
7,9,Ticks_ISO_T2_8,92,5,42,127,1374128564
7,9,Ticks_ISO_T2_8,93,5,42,127,1374929132
7,9,Ticks_ISO_T2_8,94,1,48,40,1374931796
7,9,Ticks_ISO_T2_8,95,1,48,43,1375711092
7,9,Ticks_ISO_T2_8,96,5,42,127,1375728856
7,9,Ticks_ISO_T2_8,97,5,42,127,1376528620
7,9,Ticks_ISO_T2_8,98,1,48,46,1376532184
7,9,Ticks_ISO_T2_8,99,5,42,127,1377328652
7,9,Ticks_ISO_T2_8,100,1,48,49,1377374780
7,9,Ticks_ISO_T2_8,101,1,48,45,1378059756
7,9,Ticks_ISO_T2_8,102,5,42,127,1378129128
7,9,Ticks_ISO_T2_8,103,1,48,38,1378903400
7,9,Ticks_ISO_T2_8,104,5,42,127,1378929012
7,9,Ticks_ISO_T2_8,105,1,48,44,1379659224
7,9,Ticks_ISO_T2_8,106,5,42,127,1379728672
7,9,Ticks_ISO_T2_8,107,1,48,40,1380523212
7,9,Ticks_ISO_T2_8,108,5,42,127,1380528776
7,9,Ticks_ISO_T2_8,109,1,48,51,1381292948
7,9,Ticks_ISO_T2_8,110,5,42,127,1381329188
7,9,Ticks_ISO_T2_8,111,1,48,45,1382118712
7,9,Ticks_ISO_T2_8,112,5,42,127,1382129068
7,9,Ticks_ISO_T2_8,113,1,48,43,1382913460
7,9,Ticks_ISO_T2_8,114,5,42,127,1382928680
7,9,Ticks_ISO_T2_8,115,1,48,36,1383698908
7,9,Ticks_ISO_T2_8,116,5,42,127,1383728488
7,9,Ticks_ISO_T2_8,117,1,48,42,1384514420
7,9,Ticks_ISO_T2_8,118,5,42,127,1384529340
7,9,Ticks_ISO_T2_8,119,1,48,42,1385297180
7,9,Ticks_ISO_T2_8,120,5,42,127,1385329000
7,9,Ticks_ISO_T2_8,121,1,48,45,1386078808
7,9,Ticks_ISO_T2_8,122,5,42,127,1386128732
7,9,Ticks_ISO_T2_8,123,1,48,46,1386891336
7,9,Ticks_ISO_T2_8,124,5,42,127,1386928616
7,9,Ticks_ISO_T2_8,125,1,48,22,1387694432
7,9,Ticks_ISO_T2_8,126,5,42,127,1387729244
7,9,Ticks_ISO_T2_8,127,1,48,42,1388492592
7,9,Ticks_ISO_T2_8,128,5,42,127,1388528904
7,9,Ticks_ISO_T2_8,129,1,48,47,1389286496
7,9,Ticks_ISO_T2_8,130,5,42,127,1389328740
7,9,Ticks_ISO_T2_8,131,1,48,50,1390117444
7,9,Ticks_ISO_T2_8,132,5,42,127,1390128472
7,9,Ticks_ISO_T2_8,133,1,48,37,1390882096
7,9,Ticks_ISO_T2_8,134,5,42,127,1390929252
7,9,Ticks_ISO_T2_8,135,1,48,42,1391680560
7,9,Ticks_ISO_T2_8,136,5,42,127,1391729136
7,9,Ticks_ISO_T2_8,137,1,48,45,1392463388
7,9,Ticks_ISO_T2_8,138,5,42,127,1392528644
7,9,Ticks_ISO_T2_8,139,5,42,127,1393328460
7,9,Ticks_ISO_T2_8,140,1,48,44,1393349008
7,9,Ticks_ISO_T2_8,141,5,42,127,1394129388
7,9,Ticks_ISO_T2_8,142,1,48,43,1394130652
7,9,Ticks_ISO_T2_8,143,1,48,45,1394884204
7,9,Ticks_ISO_T2_8,144,5,42,127,1394929116
7,9,Ticks_ISO_T2_8,145,5,42,127,1395728732
7,9,Ticks_ISO_T2_8,146,1,48,46,1395741348
7,9,Ticks_ISO_T2_8,147,5,42,127,1396528464
7,9,Ticks_ISO_T2_8,148,1,48,46,1396554468
7,9,Ticks_ISO_T2_8,149,1,48,42,1397313496
7,9,Ticks_ISO_T2_8,150,5,42,127,1397329240
7,9,Ticks_ISO_T2_8,151,1,48,49,1398127236
7,9,Ticks_ISO_T2_8,152,5,42,127,1398128972
7,9,Ticks_ISO_T2_8,153,1,48,42,1398903688
7,9,Ticks_ISO_T2_8,154,5,42,127,1398929004
7,9,Ticks_ISO_T2_8,155,1,48,46,1399725864
7,9,Ticks_ISO_T2_8,156,5,42,127,1399728592
7,9,Ticks_ISO_T2_8,157,5,42,127,1400529452
7,9,Ticks_ISO_T2_8,158,1,48,45,1400538336
7,9,Ticks_ISO_T2_8,159,1,48,48,1401303120
7,9,Ticks_ISO_T2_8,160,5,42,127,1401329032
7,9,Ticks_ISO_T2_8,161,1,48,53,1402109360
7,9,Ticks_ISO_T2_8,162,5,42,127,1402128840
7,9,Ticks_ISO_T2_8,163,1,48,45,1402905952
7,9,Ticks_ISO_T2_8,164,5,42,127,1402928424
7,9,Ticks_ISO_T2_8,165,5,42,127,1403729136
7,9,Ticks_ISO_T2_8,166,1,48,48,1403735248
7,9,Ticks_ISO_T2_8,167,5,42,127,1404529092
7,9,Ticks_ISO_T2_8,168,1,48,46,1404555548
7,9,Ticks_ISO_T2_8,169,5,42,127,1405328828
7,9,Ticks_ISO_T2_8,170,1,48,47,1405343240
7,9,Ticks_ISO_T2_8,171,5,42,127,1406128412
7,9,Ticks_ISO_T2_8,172,1,48,51,1406129376
7,9,Ticks_ISO_T2_8,173,1,48,47,1406905212
7,9,Ticks_ISO_T2_8,174,5,42,127,1406929336
7,9,Ticks_ISO_T2_8,175,1,48,46,1407711228
7,9,Ticks_ISO_T2_8,176,5,42,127,1407729068
7,9,Ticks_ISO_T2_8,177,5,42,127,1408528760
7,9,Ticks_ISO_T2_8,178,1,48,44,1408531428
7,9,Ticks_ISO_T2_8,179,5,42,127,1409328420
7,9,Ticks_ISO_T2_8,180,1,48,45,1409336776
7,9,Ticks_ISO_T2_8,181,1,48,44,1410113448
7,9,Ticks_ISO_T2_8,182,5,42,127,1410129120
7,9,Ticks_ISO_T2_8,183,1,48,46,1410912440
7,9,Ticks_ISO_T2_8,184,5,42,127,1410928928
7,9,Ticks_ISO_T2_8,185,1,48,47,1411720252
7,9,Ticks_ISO_T2_8,186,5,42,127,1411728812
7,9,Ticks_ISO_T2_8,187,5,42,127,1412528624
7,9,Ticks_ISO_T2_8,188,1,48,46,1412533164
7,9,Ticks_ISO_T2_8,189,1,48,48,1413312456
7,9,Ticks_ISO_T2_8,190,5,42,127,1413329324
7,9,Ticks_ISO_T2_8,191,1,48,51,1414085864
7,9,Ticks_ISO_T2_8,192,5,42,127,1414128980
7,9,Ticks_ISO_T2_8,193,5,42,127,1414928748
7,9,Ticks_ISO_T2_8,194,1,48,49,1414937324
7,9,Ticks_ISO_T2_8,195,5,42,127,1415728628
7,9,Ticks_ISO_T2_8,196,1,48,43,1415742292
7,9,Ticks_ISO_T2_8,197,5,42,127,1416529336
7,9,Ticks_ISO_T2_8,198,1,48,45,1416553848
7,9,Ticks_ISO_T2_8,199,5,42,127,1417328996
7,9,Ticks_ISO_T2_8,200,1,48,47,1417344824
7,9,Ticks_ISO_T2_8,201,5,42,127,1418128728
7,9,Ticks_ISO_T2_8,202,1,48,48,1418139704
7,9,Ticks_ISO_T2_8,203,1,48,39,1418889600
7,9,Ticks_ISO_T2_8,204,5,42,127,1418928528
7,9,Ticks_ISO_T2_8,205,1,48,46,1419726060
7,9,Ticks_ISO_T2_8,206,5,42,127,1419729380
7,9,Ticks_ISO_T2_8,207,1,48,46,1420525192
7,9,Ticks_ISO_T2_8,208,5,42,127,1420528892
7,9,Ticks_ISO_T2_8,209,1,48,48,1421302812
7,9,Ticks_ISO_T2_8,210,5,42,127,1421328724
7,9,Ticks_ISO_T2_8,211,1,48,50,1422092596
7,9,Ticks_ISO_T2_8,212,5,42,127,1422128532
7,9,Ticks_ISO_T2_8,213,5,42,127,1422929468
7,9,Ticks_ISO_T2_8,214,1,48,34,1422966468
7,9,Ticks_ISO_T2_8,215,5,42,127,1423728980
7,9,Ticks_ISO_T2_8,216,1,48,45,1423785576
7,9,Ticks_ISO_T2_8,217,5,42,127,1424528712
7,9,Ticks_ISO_T2_8,218,1,48,43,1424535648
7,9,Ticks_ISO_T2_8,219,1,48,50,1425281356
7,9,Ticks_ISO_T2_8,220,5,42,127,1425328440
7,9,Ticks_ISO_T2_8,221,5,42,127,1426129524
7,9,Ticks_ISO_T2_8,222,1,48,47,1426139600
7,9,Ticks_ISO_T2_8,223,1,48,52,1426924352
7,9,Ticks_ISO_T2_8,224,5,42,127,1426929248
7,9,Ticks_ISO_T2_8,225,1,48,54,1427688380
7,9,Ticks_ISO_T2_8,226,5,42,127,1427728684
7,9,Ticks_ISO_T2_8,227,5,42,127,1428528348
7,9,Ticks_ISO_T2_8,228,1,48,48,1428530940
7,9,Ticks_ISO_T2_8,229,5,42,127,1429329204
7,9,Ticks_ISO_T2_8,230,1,48,43,1429332324
7,9,Ticks_ISO_T2_8,231,1,48,48,1430098528
7,9,Ticks_ISO_T2_8,232,5,42,127,1430129080
7,9,Ticks_ISO_T2_8,233,1,48,54,1430883900
7,9,Ticks_ISO_T2_8,234,5,42,127,1430928740
7,9,Ticks_ISO_T2_8,235,1,48,45,1431678028
7,9,Ticks_ISO_T2_8,236,5,42,127,1431728472
7,9,Ticks_ISO_T2_8,237,5,42,127,1432529112
7,9,Ticks_ISO_T2_8,238,1,48,45,1432546964
7,9,Ticks_ISO_T2_8,0,9999,9999,9999,1337326704
7,9,Ticks_ISO_T2_8,1,9999,9999,9999,1338126388
7,9,Ticks_ISO_T2_8,2,9999,9999,9999,1338926196
7,9,Ticks_ISO_T2_8,3,9999,9999,9999,1339726916
7,9,Ticks_ISO_T2_8,4,9999,9999,9999,1340526656
7,9,Ticks_ISO_T2_8,5,9999,9999,9999,1341326384
7,9,Ticks_ISO_T2_8,6,9999,9999,9999,1342126192
7,9,Ticks_ISO_T2_8,7,9999,9999,9999,1342926900
7,9,Ticks_ISO_T2_8,8,9999,9999,9999,1343726704
7,9,Ticks_ISO_T2_8,9,9999,9999,9999,1344526392
7,9,Ticks_ISO_T2_8,10,9999,9999,9999,1345326200
7,9,Ticks_ISO_T2_8,11,9999,9999,9999,1346126904
7,9,Ticks_ISO_T2_8,12,9999,9999,9999,1346926644
7,9,Ticks_ISO_T2_8,13,9999,9999,9999,1347726452
7,9,Ticks_ISO_T2_8,14,9999,9999,9999,1348526184
7,9,Ticks_ISO_T2_8,15,9999,9999,9999,1349326964
7,9,Ticks_ISO_T2_8,16,9999,9999,9999,1350126696
7,9,Ticks_ISO_T2_8,17,9999,9999,9999,1350926448
7,9,Ticks_ISO_T2_8,18,9999,9999,9999,1351726180
7,9,Ticks_ISO_T2_8,19,9999,9999,9999,1352526964
7,9,Ticks_ISO_T2_8,20,9999,9999,9999,1353326700
7,9,Ticks_ISO_T2_8,21,9999,9999,9999,1354126432
7,9,Ticks_ISO_T2_8,22,9999,9999,9999,1354926164
7,9,Ticks_ISO_T2_8,23,9999,9999,9999,1355726944
7,9,Ticks_ISO_T2_8,24,9999,9999,9999,1356526680
7,9,Ticks_ISO_T2_8,25,9999,9999,9999,1357326440
7,9,Ticks_ISO_T2_8,26,9999,9999,9999,1358126180
7,9,Ticks_ISO_T2_8,27,9999,9999,9999,1358926960
7,9,Ticks_ISO_T2_8,28,9999,9999,9999,1359726696
7,9,Ticks_ISO_T2_8,29,9999,9999,9999,1360526424
7,9,Ticks_ISO_T2_8,30,9999,9999,9999,1361326156
7,9,Ticks_ISO_T2_8,31,9999,9999,9999,1362126936
7,9,Ticks_ISO_T2_8,32,9999,9999,9999,1362926672
7,9,Ticks_ISO_T2_8,33,9999,9999,9999,1363726440
7,9,Ticks_ISO_T2_8,34,9999,9999,9999,1364526164
7,9,Ticks_ISO_T2_8,35,9999,9999,9999,1365326948
7,9,Ticks_ISO_T2_8,36,9999,9999,9999,1366126680
7,9,Ticks_ISO_T2_8,37,9999,9999,9999,1366926412
7,9,Ticks_ISO_T2_8,38,9999,9999,9999,1367726152
7,9,Ticks_ISO_T2_8,39,9999,9999,9999,1368526924
7,9,Ticks_ISO_T2_8,40,9999,9999,9999,1369326660
7,9,Ticks_ISO_T2_8,41,9999,9999,9999,1370126416
7,9,Ticks_ISO_T2_8,42,9999,9999,9999,1370926152
7,9,Ticks_ISO_T2_8,43,9999,9999,9999,1371726932
7,9,Ticks_ISO_T2_8,44,9999,9999,9999,1372526664
7,9,Ticks_ISO_T2_8,45,9999,9999,9999,1373326396
7,9,Ticks_ISO_T2_8,46,9999,9999,9999,1374126128
7,9,Ticks_ISO_T2_8,47,9999,9999,9999,1374926916
7,9,Ticks_ISO_T2_8,48,9999,9999,9999,1375726644
7,9,Ticks_ISO_T2_8,49,9999,9999,9999,1376526408
7,9,Ticks_ISO_T2_8,50,9999,9999,9999,1377326140
7,9,Ticks_ISO_T2_8,51,9999,9999,9999,1378126916
7,9,Ticks_ISO_T2_8,52,9999,9999,9999,1378926652
7,9,Ticks_ISO_T2_8,53,9999,9999,9999,1379726460
7,9,Ticks_ISO_T2_8,54,9999,9999,9999,1380526192
7,9,Ticks_ISO_T2_8,55,9999,9999,9999,1381326896
7,9,Ticks_ISO_T2_8,56,9999,9999,9999,1382126704
7,9,Ticks_ISO_T2_8,57,9999,9999,9999,1382926392
7,9,Ticks_ISO_T2_8,58,9999,9999,9999,1383726200
7,9,Ticks_ISO_T2_8,59,9999,9999,9999,1384526904
7,9,Ticks_ISO_T2_8,60,9999,9999,9999,1385326712
7,9,Ticks_ISO_T2_8,61,9999,9999,9999,1386126444
7,9,Ticks_ISO_T2_8,62,9999,9999,9999,1386926180
7,9,Ticks_ISO_T2_8,63,9999,9999,9999,1387726960
7,9,Ticks_ISO_T2_8,64,9999,9999,9999,1388526692
7,9,Ticks_ISO_T2_8,65,9999,9999,9999,1389326452
7,9,Ticks_ISO_T2_8,66,9999,9999,9999,1390126184
7,9,Ticks_ISO_T2_8,67,9999,9999,9999,1390926964
7,9,Ticks_ISO_T2_8,68,9999,9999,9999,1391726700
7,9,Ticks_ISO_T2_8,69,9999,9999,9999,1392526432
7,9,Ticks_ISO_T2_8,70,9999,9999,9999,1393326172
7,9,Ticks_ISO_T2_8,71,9999,9999,9999,1394126952
7,9,Ticks_ISO_T2_8,72,9999,9999,9999,1394926680
7,9,Ticks_ISO_T2_8,73,9999,9999,9999,1395726444
7,9,Ticks_ISO_T2_8,74,9999,9999,9999,1396526176
7,9,Ticks_ISO_T2_8,75,9999,9999,9999,1397326952
7,9,Ticks_ISO_T2_8,76,9999,9999,9999,1398126708
7,9,Ticks_ISO_T2_8,77,9999,9999,9999,1398926420
7,9,Ticks_ISO_T2_8,78,9999,9999,9999,1399726156
7,9,Ticks_ISO_T2_8,79,9999,9999,9999,1400526940
7,9,Ticks_ISO_T2_8,80,9999,9999,9999,1401326668
7,9,Ticks_ISO_T2_8,81,9999,9999,9999,1402126404
7,9,Ticks_ISO_T2_8,82,9999,9999,9999,1402926136
7,9,Ticks_ISO_T2_8,83,9999,9999,9999,1403726920
7,9,Ticks_ISO_T2_8,84,9999,9999,9999,1404526656
7,9,Ticks_ISO_T2_8,85,9999,9999,9999,1405326392
7,9,Ticks_ISO_T2_8,86,9999,9999,9999,1406126200
7,9,Ticks_ISO_T2_8,87,9999,9999,9999,1406926900
7,9,Ticks_ISO_T2_8,88,9999,9999,9999,1407726708
7,9,Ticks_ISO_T2_8,89,9999,9999,9999,1408526396
7,9,Ticks_ISO_T2_8,90,9999,9999,9999,1409326132
7,9,Ticks_ISO_T2_8,91,9999,9999,9999,1410126904
7,9,Ticks_ISO_T2_8,92,9999,9999,9999,1410926712
7,9,Ticks_ISO_T2_8,93,9999,9999,9999,1411726448
7,9,Ticks_ISO_T2_8,94,9999,9999,9999,1412526188
7,9,Ticks_ISO_T2_8,95,9999,9999,9999,1413326960
7,9,Ticks_ISO_T2_8,96,9999,9999,9999,1414126692
7,9,Ticks_ISO_T2_8,97,9999,9999,9999,1414926384
7,9,Ticks_ISO_T2_8,98,9999,9999,9999,1415726192
7,9,Ticks_ISO_T2_8,99,9999,9999,9999,1416526896
7,9,Ticks_ISO_T2_8,100,9999,9999,9999,1417326708
7,9,Ticks_ISO_T2_8,101,9999,9999,9999,1418126440
7,9,Ticks_ISO_T2_8,102,9999,9999,9999,1418926168
7,9,Ticks_ISO_T2_8,103,9999,9999,9999,1419726944
7,9,Ticks_ISO_T2_8,104,9999,9999,9999,1420526680
7,9,Ticks_ISO_T2_8,105,9999,9999,9999,1421326436
7,9,Ticks_ISO_T2_8,106,9999,9999,9999,1422126168
7,9,Ticks_ISO_T2_8,107,9999,9999,9999,1422926956
7,9,Ticks_ISO_T2_8,108,9999,9999,9999,1423726692
7,9,Ticks_ISO_T2_8,109,9999,9999,9999,1424526424
7,9,Ticks_ISO_T2_8,110,9999,9999,9999,1425326152
7,9,Ticks_ISO_T2_8,111,9999,9999,9999,1426126936
7,9,Ticks_ISO_T2_8,112,9999,9999,9999,1426926664
7,9,Ticks_ISO_T2_8,113,9999,9999,9999,1427726396
7,9,Ticks_ISO_T2_8,114,9999,9999,9999,1428526136
7,9,Ticks_ISO_T2_8,115,9999,9999,9999,1429326916
7,9,Ticks_ISO_T2_8,116,9999,9999,9999,1430126644
7,9,Ticks_ISO_T2_8,117,9999,9999,9999,1430926452
7,9,Ticks_ISO_T2_8,118,9999,9999,9999,1431726184
7,9,Ticks_ISO_T2_8,119,9999,9999,9999,1432526900
8,10,Ticks_ISO_T2_5,0,5,42,127,1445581232
8,10,Ticks_ISO_T2_5,1,5,42,127,1446080872
8,10,Ticks_ISO_T2_5,2,1,48,35,1446278196
8,10,Ticks_ISO_T2_5,3,5,42,127,1446580792
8,10,Ticks_ISO_T2_5,4,1,48,26,1446654172
8,10,Ticks_ISO_T2_5,5,1,48,36,1447044320
8,10,Ticks_ISO_T2_5,6,5,42,127,1447081304
8,10,Ticks_ISO_T2_5,7,1,48,41,1447533696
8,10,Ticks_ISO_T2_5,8,5,42,127,1447581148
8,10,Ticks_ISO_T2_5,9,1,48,47,1448056204
8,10,Ticks_ISO_T2_5,10,5,42,127,1448080844
8,10,Ticks_ISO_T2_5,11,1,48,38,1448564876
8,10,Ticks_ISO_T2_5,12,5,42,127,1448580540
8,10,Ticks_ISO_T2_5,13,1,48,42,1449051328
8,10,Ticks_ISO_T2_5,14,5,42,127,1449081132
8,10,Ticks_ISO_T2_5,15,1,48,48,1449576976
8,10,Ticks_ISO_T2_5,16,5,42,127,1449580900
8,10,Ticks_ISO_T2_5,17,5,42,127,1450080600
8,10,Ticks_ISO_T2_5,18,1,48,47,1450083192
8,10,Ticks_ISO_T2_5,19,5,42,127,1450581492
8,10,Ticks_ISO_T2_5,20,1,48,45,1450613484
8,10,Ticks_ISO_T2_5,21,5,42,127,1451081112
8,10,Ticks_ISO_T2_5,22,1,48,42,1451101660
8,10,Ticks_ISO_T2_5,23,5,42,127,1451580732
8,10,Ticks_ISO_T2_5,24,1,48,35,1451614892
8,10,Ticks_ISO_T2_5,25,1,48,40,1452057272
8,10,Ticks_ISO_T2_5,26,5,42,127,1452080420
8,10,Ticks_ISO_T2_5,27,1,48,42,1452547992
8,10,Ticks_ISO_T2_5,28,5,42,127,1452581088
8,10,Ticks_ISO_T2_5,29,1,48,40,1453073264
8,10,Ticks_ISO_T2_5,30,5,42,127,1453080856
8,10,Ticks_ISO_T2_5,31,1,48,40,1453575432
8,10,Ticks_ISO_T2_5,32,5,42,127,1453580700
8,10,Ticks_ISO_T2_5,33,1,48,42,1454069440
8,10,Ticks_ISO_T2_5,34,5,42,127,1454081520
8,10,Ticks_ISO_T2_5,35,1,48,41,1454568740
8,10,Ticks_ISO_T2_5,36,5,42,127,1454581212
8,10,Ticks_ISO_T2_5,37,5,42,127,1455080816
8,10,Ticks_ISO_T2_5,38,1,48,39,1455096152
8,10,Ticks_ISO_T2_5,39,5,42,127,1455580512
8,10,Ticks_ISO_T2_5,40,1,48,42,1455589312
8,10,Ticks_ISO_T2_5,41,1,48,43,1456038352
8,10,Ticks_ISO_T2_5,42,5,42,127,1456081540
8,10,Ticks_ISO_T2_5,43,5,42,127,1456580872
8,10,Ticks_ISO_T2_5,44,1,48,38,1456582208
8,10,Ticks_ISO_T2_5,45,1,48,40,1457068780
8,10,Ticks_ISO_T2_5,46,5,42,127,1457080560
8,10,Ticks_ISO_T2_5,47,5,42,127,1457581384
8,10,Ticks_ISO_T2_5,48,1,48,46,1457614640
8,10,Ticks_ISO_T2_5,49,1,48,38,1458075876
8,10,Ticks_ISO_T2_5,50,5,42,127,1458081216
8,10,Ticks_ISO_T2_5,51,1,48,43,1458568160
8,10,Ticks_ISO_T2_5,52,5,42,127,1458580764
8,10,Ticks_ISO_T2_5,53,5,42,127,1459080540
8,10,Ticks_ISO_T2_5,54,1,48,39,1459101460
8,10,Ticks_ISO_T2_5,55,1,48,35,1459542568
8,10,Ticks_ISO_T2_5,56,5,42,127,1459581572
8,10,Ticks_ISO_T2_5,57,1,48,37,1460049444
8,10,Ticks_ISO_T2_5,58,5,42,127,1460081044
8,10,Ticks_ISO_T2_5,59,1,48,41,1460558192
8,10,Ticks_ISO_T2_5,60,5,42,127,1460580740
8,10,Ticks_ISO_T2_5,61,5,42,127,1461080364
8,10,Ticks_ISO_T2_5,62,1,48,40,1461081332
8,10,Ticks_ISO_T2_5,63,5,42,127,1461581256
8,10,Ticks_ISO_T2_5,64,1,48,42,1461598292
8,10,Ticks_ISO_T2_5,65,1,48,40,1462047028
8,10,Ticks_ISO_T2_5,66,5,42,127,1462081016
8,10,Ticks_ISO_T2_5,67,5,42,127,1462580572
8,10,Ticks_ISO_T2_5,68,1,48,34,1462594984
8,10,Ticks_ISO_T2_5,69,1,48,39,1463072820
8,10,Ticks_ISO_T2_5,70,5,42,127,1463081304
8,10,Ticks_ISO_T2_5,71,1,48,40,1463566300
8,10,Ticks_ISO_T2_5,72,5,42,127,1463581000
8,10,Ticks_ISO_T2_5,73,1,48,45,1464049544
8,10,Ticks_ISO_T2_5,74,5,42,127,1464080772
8,10,Ticks_ISO_T2_5,75,5,42,127,1464580548
8,10,Ticks_ISO_T2_5,76,1,48,41,1464601244
8,10,Ticks_ISO_T2_5,77,5,42,127,1465081288
8,10,Ticks_ISO_T2_5,78,1,48,42,1465092036
8,10,Ticks_ISO_T2_5,79,1,48,42,1465580056
8,10,Ticks_ISO_T2_5,80,5,42,127,1465581848
8,10,Ticks_ISO_T2_5,81,1,48,39,1466063184
8,10,Ticks_ISO_T2_5,82,5,42,127,1466080496
8,10,Ticks_ISO_T2_5,83,5,42,127,1466581392
8,10,Ticks_ISO_T2_5,84,1,48,30,1466611016
8,10,Ticks_ISO_T2_5,85,5,42,127,1467081236
8,10,Ticks_ISO_T2_5,86,1,48,38,1467087424
8,10,Ticks_ISO_T2_5,87,1,48,39,1467580560
8,10,Ticks_ISO_T2_5,88,5,42,127,1467582268
8,10,Ticks_ISO_T2_5,89,1,48,34,1468059868
8,10,Ticks_ISO_T2_5,90,5,42,127,1468080620
8,10,Ticks_ISO_T2_5,91,1,48,38,1468553728
8,10,Ticks_ISO_T2_5,92,5,42,127,1468581212
8,10,Ticks_ISO_T2_5,93,1,48,42,1469068228
8,10,Ticks_ISO_T2_5,94,5,42,127,1469081056
8,10,Ticks_ISO_T2_5,95,1,48,43,1469557232
8,10,Ticks_ISO_T2_5,96,5,42,127,1469580676
8,10,Ticks_ISO_T2_5,97,1,48,43,1470016160
8,10,Ticks_ISO_T2_5,98,5,42,127,1470081344
8,10,Ticks_ISO_T2_5,99,5,42,127,1470581196
8,10,Ticks_ISO_T2_5,100,1,48,42,1470585888
8,10,Ticks_ISO_T2_5,101,5,42,127,1471080964
8,10,Ticks_ISO_T2_5,102,1,48,44,1471128892
8,10,Ticks_ISO_T2_5,103,5,42,127,1471580508
8,10,Ticks_ISO_T2_5,104,1,48,32,1471632096
8,10,Ticks_ISO_T2_5,105,5,42,127,1472081252
8,10,Ticks_ISO_T2_5,106,1,48,36,1472116160
8,10,Ticks_ISO_T2_5,107,5,42,127,1472580872
8,10,Ticks_ISO_T2_5,108,1,48,32,1472596036
8,10,Ticks_ISO_T2_5,109,5,42,127,1473080940
8,10,Ticks_ISO_T2_5,110,1,48,30,1473097076
8,10,Ticks_ISO_T2_5,111,5,42,127,1473581308
8,10,Ticks_ISO_T2_5,112,1,48,43,1473591384
8,10,Ticks_ISO_T2_5,113,5,42,127,1474081152
8,10,Ticks_ISO_T2_5,114,1,48,41,1474095036
8,10,Ticks_ISO_T2_5,115,5,42,127,1474580920
8,10,Ticks_ISO_T2_5,116,1,48,32,1474596156
8,10,Ticks_ISO_T2_5,117,5,42,127,1475080616
8,10,Ticks_ISO_T2_5,118,1,48,38,1475092184
8,10,Ticks_ISO_T2_5,119,1,48,38,1475561244
8,10,Ticks_ISO_T2_5,120,5,42,127,1475581348
8,10,Ticks_ISO_T2_5,121,1,48,37,1476051740
8,10,Ticks_ISO_T2_5,122,5,42,127,1476081120
8,10,Ticks_ISO_T2_5,123,1,48,31,1476544328
8,10,Ticks_ISO_T2_5,124,5,42,127,1476580936
8,10,Ticks_ISO_T2_5,125,1,48,40,1477064968
8,10,Ticks_ISO_T2_5,126,5,42,127,1477080556
8,10,Ticks_ISO_T2_5,127,1,48,34,1477563312
8,10,Ticks_ISO_T2_5,128,5,42,127,1477581224
8,10,Ticks_ISO_T2_5,129,1,48,41,1478075876
8,10,Ticks_ISO_T2_5,130,5,42,127,1478080772
8,10,Ticks_ISO_T2_5,131,1,48,41,1478538472
8,10,Ticks_ISO_T2_5,132,5,42,127,1478580840
8,10,Ticks_ISO_T2_5,133,5,42,127,1479081288
8,10,Ticks_ISO_T2_5,134,1,48,35,1479091812
8,10,Ticks_ISO_T2_5,135,5,42,127,1479581132
8,10,Ticks_ISO_T2_5,136,1,48,39,1479596892
8,10,Ticks_ISO_T2_5,137,1,48,29,1480074128
8,10,Ticks_ISO_T2_5,138,5,42,127,1480080968
8,10,Ticks_ISO_T2_5,139,5,42,127,1480580520
8,10,Ticks_ISO_T2_5,140,1,48,48,1480605404
8,10,Ticks_ISO_T2_5,141,1,48,36,1481064768
8,10,Ticks_ISO_T2_5,142,5,42,127,1481081256
8,10,Ticks_ISO_T2_5,143,5,42,127,1481580884
8,10,Ticks_ISO_T2_5,144,1,48,41,1481602476
8,10,Ticks_ISO_T2_5,145,5,42,127,1482080724
8,10,Ticks_ISO_T2_5,146,1,48,35,1482084372
8,10,Ticks_ISO_T2_5,147,5,42,127,1482581320
8,10,Ticks_ISO_T2_5,148,1,48,31,1482582212
8,10,Ticks_ISO_T2_5,149,1,48,34,1483079040
8,10,Ticks_ISO_T2_5,150,5,42,127,1483081008
8,10,Ticks_ISO_T2_5,151,1,48,34,1483559720
8,10,Ticks_ISO_T2_5,152,5,42,127,1483580776
8,10,Ticks_ISO_T2_5,153,1,48,31,1484068396
8,10,Ticks_ISO_T2_5,154,5,42,127,1484080696
8,10,Ticks_ISO_T2_5,155,1,48,32,1484530092
8,10,Ticks_ISO_T2_5,156,5,42,127,1484581212
8,10,Ticks_ISO_T2_5,157,1,48,32,1485032756
8,10,Ticks_ISO_T2_5,158,5,42,127,1485080908
8,10,Ticks_ISO_T2_5,159,1,48,30,1485545164
8,10,Ticks_ISO_T2_5,160,5,42,127,1485580604
8,10,Ticks_ISO_T2_5,161,1,48,35,1486028856
8,10,Ticks_ISO_T2_5,162,5,42,127,1486081568
8,10,Ticks_ISO_T2_5,163,1,48,42,1486523760
8,10,Ticks_ISO_T2_5,164,5,42,127,1486581040
8,10,Ticks_ISO_T2_5,165,1,48,39,1487039616
8,10,Ticks_ISO_T2_5,166,5,42,127,1487080712
8,10,Ticks_ISO_T2_5,167,1,48,34,1487515072
8,10,Ticks_ISO_T2_5,168,5,42,127,1487580776
8,10,Ticks_ISO_T2_5,169,1,48,33,1488009532
8,10,Ticks_ISO_T2_5,170,5,42,127,1488081220
8,10,Ticks_ISO_T2_5,171,1,48,39,1488500100
8,10,Ticks_ISO_T2_5,172,5,42,127,1488580840
8,10,Ticks_ISO_T2_5,173,1,48,28,1489027472
8,10,Ticks_ISO_T2_5,174,5,42,127,1489080536
8,10,Ticks_ISO_T2_5,175,1,48,25,1489533444
8,10,Ticks_ISO_T2_5,176,5,42,127,1489581648
8,10,Ticks_ISO_T2_5,177,1,48,33,1490081424
8,10,Ticks_ISO_T2_5,178,5,42,127,1490082916
8,10,Ticks_ISO_T2_5,179,1,48,38,1490556396
8,10,Ticks_ISO_T2_5,180,5,42,127,1490580816
8,10,Ticks_ISO_T2_5,181,5,42,127,1491080592
8,10,Ticks_ISO_T2_5,182,1,48,39,1491103308
8,10,Ticks_ISO_T2_5,183,5,42,127,1491581404
8,10,Ticks_ISO_T2_5,184,1,48,39,1491587816
8,10,Ticks_ISO_T2_5,185,5,42,127,1492080952
8,10,Ticks_ISO_T2_5,186,1,48,41,1492097388
8,10,Ticks_ISO_T2_5,187,5,42,127,1492580648
8,10,Ticks_ISO_T2_5,188,1,48,42,1492588252
8,10,Ticks_ISO_T2_5,189,5,42,127,1493080492
8,10,Ticks_ISO_T2_5,190,1,48,42,1493101112
8,10,Ticks_ISO_T2_5,191,5,42,127,1493581308
8,10,Ticks_ISO_T2_5,192,1,48,39,1493583980
8,10,Ticks_ISO_T2_5,193,1,48,34,1494051868
8,10,Ticks_ISO_T2_5,194,5,42,127,1494080848
8,10,Ticks_ISO_T2_5,195,5,42,127,1494580696
8,10,Ticks_ISO_T2_5,196,1,48,44,1494609324
8,10,Ticks_ISO_T2_5,197,1,48,39,1495066584
8,10,Ticks_ISO_T2_5,198,5,42,127,1495081284
8,10,Ticks_ISO_T2_5,199,1,48,40,1495557532
8,10,Ticks_ISO_T2_5,200,5,42,127,1495581052
8,10,Ticks_ISO_T2_5,201,1,48,42,1496050420
8,10,Ticks_ISO_T2_5,202,5,42,127,1496080672
8,10,Ticks_ISO_T2_5,203,5,42,127,1496580452
8,10,Ticks_ISO_T2_5,204,1,48,41,1496582388
8,10,Ticks_ISO_T2_5,205,1,48,40,1497070304
8,10,Ticks_ISO_T2_5,206,5,42,127,1497081332
8,10,Ticks_ISO_T2_5,207,1,48,45,1497552396
8,10,Ticks_ISO_T2_5,208,5,42,127,1497581172
8,10,Ticks_ISO_T2_5,209,1,48,43,1498064724
8,10,Ticks_ISO_T2_5,210,5,42,127,1498080544
8,10,Ticks_ISO_T2_5,211,5,42,127,1498581440
8,10,Ticks_ISO_T2_5,212,1,48,43,1498598772
8,10,Ticks_ISO_T2_5,213,5,42,127,1499081284
8,10,Ticks_ISO_T2_5,214,1,48,42,1499138288
8,10,Ticks_ISO_T2_5,215,5,42,127,1499580756
8,10,Ticks_ISO_T2_5,216,1,48,41,1499599656
8,10,Ticks_ISO_T2_5,217,5,42,127,1500080376
8,10,Ticks_ISO_T2_5,218,1,48,45,1500086256
8,10,Ticks_ISO_T2_5,219,1,48,40,1500570528
8,10,Ticks_ISO_T2_5,220,5,42,127,1500581332
8,10,Ticks_ISO_T2_5,221,1,48,43,1501054292
8,10,Ticks_ISO_T2_5,222,5,42,127,1501081028
8,10,Ticks_ISO_T2_5,223,1,48,43,1501547256
8,10,Ticks_ISO_T2_5,224,5,42,127,1501580576
8,10,Ticks_ISO_T2_5,225,5,42,127,1502081324
8,10,Ticks_ISO_T2_5,226,1,48,44,1502084064
8,10,Ticks_ISO_T2_5,227,1,48,37,1502554868
8,10,Ticks_ISO_T2_5,228,5,42,127,1502581232
8,10,Ticks_ISO_T2_5,229,1,48,40,1503054788
8,10,Ticks_ISO_T2_5,230,5,42,127,1503080928
8,10,Ticks_ISO_T2_5,231,1,48,41,1503575204
8,10,Ticks_ISO_T2_5,232,5,42,127,1503580472
8,10,Ticks_ISO_T2_5,233,1,48,46,1504059568
8,10,Ticks_ISO_T2_5,234,5,42,127,1504081216
8,10,Ticks_ISO_T2_5,235,1,48,49,1504548044
8,10,Ticks_ISO_T2_5,236,5,42,127,1504580984
8,10,Ticks_ISO_T2_5,237,1,48,40,1505038308
8,10,Ticks_ISO_T2_5,238,5,42,127,1505080828
8,10,Ticks_ISO_T2_5,239,1,48,42,1505573308
8,10,Ticks_ISO_T2_5,240,5,42,127,1505581344
8,10,Ticks_ISO_T2_5,241,1,48,42,1506080216
8,10,Ticks_ISO_T2_5,242,5,42,127,1506082160
8,10,Ticks_ISO_T2_5,243,1,48,44,1506566192
8,10,Ticks_ISO_T2_5,244,5,42,127,1506581184
8,10,Ticks_ISO_T2_5,245,1,48,42,1507051652
8,10,Ticks_ISO_T2_5,246,5,42,127,1507080584
8,10,Ticks_ISO_T2_5,247,5,42,127,1507581256
8,10,Ticks_ISO_T2_5,248,1,48,44,1507584452
8,10,Ticks_ISO_T2_5,249,1,48,42,1508072956
8,10,Ticks_ISO_T2_5,250,5,42,127,1508080944
8,10,Ticks_ISO_T2_5,251,1,48,37,1508554028
8,10,Ticks_ISO_T2_5,252,5,42,127,1508580912
8,10,Ticks_ISO_T2_5,253,1,48,35,1509053872
8,10,Ticks_ISO_T2_5,254,5,42,127,1509080384
8,10,Ticks_ISO_T2_5,255,1,48,43,1509552744
8,10,Ticks_ISO_T2_5,256,5,42,127,1509581124
8,10,Ticks_ISO_T2_5,257,1,48,40,1510073456
8,10,Ticks_ISO_T2_5,258,5,42,127,1510081040
8,10,Ticks_ISO_T2_5,259,1,48,43,1510566864
8,10,Ticks_ISO_T2_5,0,9999,9999,9999,1445578872
8,10,Ticks_ISO_T2_5,1,9999,9999,9999,1446078584
8,10,Ticks_ISO_T2_5,2,9999,9999,9999,1446578280
8,10,Ticks_ISO_T2_5,3,9999,9999,9999,1447079016
8,10,Ticks_ISO_T2_5,4,9999,9999,9999,1447578712
8,10,Ticks_ISO_T2_5,5,9999,9999,9999,1448078408
8,10,Ticks_ISO_T2_5,6,9999,9999,9999,1448578104
8,10,Ticks_ISO_T2_5,7,9999,9999,9999,1449078844
8,10,Ticks_ISO_T2_5,8,9999,9999,9999,1449578612
8,10,Ticks_ISO_T2_5,9,9999,9999,9999,1450078316
8,10,Ticks_ISO_T2_5,10,9999,9999,9999,1450579056
8,10,Ticks_ISO_T2_5,11,9999,9999,9999,1451078752
8,10,Ticks_ISO_T2_5,12,9999,9999,9999,1451578444
8,10,Ticks_ISO_T2_5,13,9999,9999,9999,1452078136
8,10,Ticks_ISO_T2_5,14,9999,9999,9999,1452578876
8,10,Ticks_ISO_T2_5,15,9999,9999,9999,1453078644
8,10,Ticks_ISO_T2_5,16,9999,9999,9999,1453578340
8,10,Ticks_ISO_T2_5,17,9999,9999,9999,1454079084
8,10,Ticks_ISO_T2_5,18,9999,9999,9999,1454578780
8,10,Ticks_ISO_T2_5,19,9999,9999,9999,1455078456
8,10,Ticks_ISO_T2_5,20,9999,9999,9999,1455578224
8,10,Ticks_ISO_T2_5,21,9999,9999,9999,1456078960
8,10,Ticks_ISO_T2_5,22,9999,9999,9999,1456578660
8,10,Ticks_ISO_T2_5,23,9999,9999,9999,1457078348
8,10,Ticks_ISO_T2_5,24,9999,9999,9999,1457579096
8,10,Ticks_ISO_T2_5,25,9999,9999,9999,1458078784
8,10,Ticks_ISO_T2_5,26,9999,9999,9999,1458578552
8,10,Ticks_ISO_T2_5,27,9999,9999,9999,1459078252
8,10,Ticks_ISO_T2_5,28,9999,9999,9999,1459578988
8,10,Ticks_ISO_T2_5,29,9999,9999,9999,1460078684
8,10,Ticks_ISO_T2_5,30,9999,9999,9999,1460578380
8,10,Ticks_ISO_T2_5,31,9999,9999,9999,1461078080
8,10,Ticks_ISO_T2_5,32,9999,9999,9999,1461578820
8,10,Ticks_ISO_T2_5,33,9999,9999,9999,1462078580
8,10,Ticks_ISO_T2_5,34,9999,9999,9999,1462578284
8,10,Ticks_ISO_T2_5,35,9999,9999,9999,1463079020
8,10,Ticks_ISO_T2_5,36,9999,9999,9999,1463578712
8,10,Ticks_ISO_T2_5,37,9999,9999,9999,1464078408
8,10,Ticks_ISO_T2_5,38,9999,9999,9999,1464578112
8,10,Ticks_ISO_T2_5,39,9999,9999,9999,1465078852
8,10,Ticks_ISO_T2_5,40,9999,9999,9999,1465578596
8,10,Ticks_ISO_T2_5,41,9999,9999,9999,1466078284
8,10,Ticks_ISO_T2_5,42,9999,9999,9999,1466579032
8,10,Ticks_ISO_T2_5,43,9999,9999,9999,1467078728
8,10,Ticks_ISO_T2_5,44,9999,9999,9999,1467578420
8,10,Ticks_ISO_T2_5,45,9999,9999,9999,1468078184
8,10,Ticks_ISO_T2_5,46,9999,9999,9999,1468578924
8,10,Ticks_ISO_T2_5,47,9999,9999,9999,1469078620
8,10,Ticks_ISO_T2_5,48,9999,9999,9999,1469578316
8,10,Ticks_ISO_T2_5,49,9999,9999,9999,1470079056
8,10,Ticks_ISO_T2_5,50,9999,9999,9999,1470578760
8,10,Ticks_ISO_T2_5,51,9999,9999,9999,1471078456
8,10,Ticks_ISO_T2_5,52,9999,9999,9999,1471578224
8,10,Ticks_ISO_T2_5,53,9999,9999,9999,1472078964
8,10,Ticks_ISO_T2_5,54,9999,9999,9999,1472578660
8,10,Ticks_ISO_T2_5,55,9999,9999,9999,1473078356
8,10,Ticks_ISO_T2_5,56,9999,9999,9999,1473579096
8,10,Ticks_ISO_T2_5,57,9999,9999,9999,1474078788
8,10,Ticks_ISO_T2_5,58,9999,9999,9999,1474578484
8,10,Ticks_ISO_T2_5,59,9999,9999,9999,1475078256
8,10,Ticks_ISO_T2_5,60,9999,9999,9999,1475578988
8,10,Ticks_ISO_T2_5,61,9999,9999,9999,1476078684
8,10,Ticks_ISO_T2_5,62,9999,9999,9999,1476578356
8,10,Ticks_ISO_T2_5,63,9999,9999,9999,1477078124
8,10,Ticks_ISO_T2_5,64,9999,9999,9999,1477578864
8,10,Ticks_ISO_T2_5,65,9999,9999,9999,1478078560
8,10,Ticks_ISO_T2_5,66,9999,9999,9999,1478578256
8,10,Ticks_ISO_T2_5,67,9999,9999,9999,1479079004
8,10,Ticks_ISO_T2_5,68,9999,9999,9999,1479578696
8,10,Ticks_ISO_T2_5,69,9999,9999,9999,1480078384
8,10,Ticks_ISO_T2_5,70,9999,9999,9999,1480578160
8,10,Ticks_ISO_T2_5,71,9999,9999,9999,1481078896
8,10,Ticks_ISO_T2_5,72,9999,9999,9999,1481578596
8,10,Ticks_ISO_T2_5,73,9999,9999,9999,1482078288
8,10,Ticks_ISO_T2_5,74,9999,9999,9999,1482579032
8,10,Ticks_ISO_T2_5,75,9999,9999,9999,1483078760
8,10,Ticks_ISO_T2_5,76,9999,9999,9999,1483578488
8,10,Ticks_ISO_T2_5,77,9999,9999,9999,1484078184
8,10,Ticks_ISO_T2_5,78,9999,9999,9999,1484578928
8,10,Ticks_ISO_T2_5,79,9999,9999,9999,1485078624
8,10,Ticks_ISO_T2_5,80,9999,9999,9999,1485578316
8,10,Ticks_ISO_T2_5,81,9999,9999,9999,1486079056
8,10,Ticks_ISO_T2_5,82,9999,9999,9999,1486578752
8,10,Ticks_ISO_T2_5,83,9999,9999,9999,1487078500
8,10,Ticks_ISO_T2_5,84,9999,9999,9999,1487578192
8,10,Ticks_ISO_T2_5,85,9999,9999,9999,1488078936
8,10,Ticks_ISO_T2_5,86,9999,9999,9999,1488578628
8,10,Ticks_ISO_T2_5,87,9999,9999,9999,1489078324
8,10,Ticks_ISO_T2_5,88,9999,9999,9999,1489579064
8,10,Ticks_ISO_T2_5,89,9999,9999,9999,1490078840
8,10,Ticks_ISO_T2_5,90,9999,9999,9999,1490578528
8,10,Ticks_ISO_T2_5,91,9999,9999,9999,1491078232
8,10,Ticks_ISO_T2_5,92,9999,9999,9999,1491578972
8,10,Ticks_ISO_T2_5,93,9999,9999,9999,1492078668
8,10,Ticks_ISO_T2_5,94,9999,9999,9999,1492578360
8,10,Ticks_ISO_T2_5,95,9999,9999,9999,1493078128
8,10,Ticks_ISO_T2_5,96,9999,9999,9999,1493578872
8,10,Ticks_ISO_T2_5,97,9999,9999,9999,1494078560
8,10,Ticks_ISO_T2_5,98,9999,9999,9999,1494578260
8,10,Ticks_ISO_T2_5,99,9999,9999,9999,1495078996
8,10,Ticks_ISO_T2_5,100,9999,9999,9999,1495578692
8,10,Ticks_ISO_T2_5,101,9999,9999,9999,1496078388
8,10,Ticks_ISO_T2_5,102,9999,9999,9999,1496578164
8,10,Ticks_ISO_T2_5,103,9999,9999,9999,1497078896
8,10,Ticks_ISO_T2_5,104,9999,9999,9999,1497578568
8,10,Ticks_ISO_T2_5,105,9999,9999,9999,1498078260
8,10,Ticks_ISO_T2_5,106,9999,9999,9999,1498579008
8,10,Ticks_ISO_T2_5,107,9999,9999,9999,1499078776
8,10,Ticks_ISO_T2_5,108,9999,9999,9999,1499578468
8,10,Ticks_ISO_T2_5,109,9999,9999,9999,1500078164
8,10,Ticks_ISO_T2_5,110,9999,9999,9999,1500578900
8,10,Ticks_ISO_T2_5,111,9999,9999,9999,1501078592
8,10,Ticks_ISO_T2_5,112,9999,9999,9999,1501578288
8,10,Ticks_ISO_T2_5,113,9999,9999,9999,1502079036
8,10,Ticks_ISO_T2_5,114,9999,9999,9999,1502578800
8,10,Ticks_ISO_T2_5,115,9999,9999,9999,1503078492
8,10,Ticks_ISO_T2_5,116,9999,9999,9999,1503578188
8,10,Ticks_ISO_T2_5,117,9999,9999,9999,1504078928
8,10,Ticks_ISO_T2_5,118,9999,9999,9999,1504578624
8,10,Ticks_ISO_T2_5,119,9999,9999,9999,1505078392
8,10,Ticks_ISO_T2_5,120,9999,9999,9999,1505579060
8,10,Ticks_ISO_T2_5,121,9999,9999,9999,1506078832
8,10,Ticks_ISO_T2_5,122,9999,9999,9999,1506578524
8,10,Ticks_ISO_T2_5,123,9999,9999,9999,1507078220
8,10,Ticks_ISO_T2_5,124,9999,9999,9999,1507578968
8,10,Ticks_ISO_T2_5,125,9999,9999,9999,1508078660
8,10,Ticks_ISO_T2_5,126,9999,9999,9999,1508578404
8,10,Ticks_ISO_T2_5,127,9999,9999,9999,1509078096
8,10,Ticks_ISO_T2_5,128,9999,9999,9999,1509578840
8,10,Ticks_ISO_T2_5,129,9999,9999,9999,1510078532
9,22,Ticks_Phase_8,0,5,42,127,1521842572
9,22,Ticks_Phase_8,1,1,48,39,1522284584
9,22,Ticks_Phase_8,2,5,42,127,1522643180
9,22,Ticks_Phase_8,3,1,48,36,1523420640
9,22,Ticks_Phase_8,4,5,42,127,1523443080
9,22,Ticks_Phase_8,5,1,48,43,1524230264
9,22,Ticks_Phase_8,6,5,42,127,1524242792
9,22,Ticks_Phase_8,7,1,48,40,1525017984
9,22,Ticks_Phase_8,8,5,42,127,1525042576
9,22,Ticks_Phase_8,9,1,48,38,1525838808
9,22,Ticks_Phase_8,10,5,42,127,1525843560
9,22,Ticks_Phase_8,11,1,48,44,1526627288
9,22,Ticks_Phase_8,12,5,42,127,1526643048
9,22,Ticks_Phase_8,13,1,48,44,1527423636
9,22,Ticks_Phase_8,14,5,42,127,1527442836
9,22,Ticks_Phase_8,15,1,48,44,1528226412
9,22,Ticks_Phase_8,16,5,42,127,1528242548
9,22,Ticks_Phase_8,17,1,48,39,1529002464
9,22,Ticks_Phase_8,18,5,42,127,1529043528
9,22,Ticks_Phase_8,19,1,48,43,1529814976
9,22,Ticks_Phase_8,20,5,42,127,1529842964
9,22,Ticks_Phase_8,21,1,48,44,1530625052
9,22,Ticks_Phase_8,22,5,42,127,1530642752
9,22,Ticks_Phase_8,23,1,48,41,1531427980
9,22,Ticks_Phase_8,24,5,42,127,1531442540
9,22,Ticks_Phase_8,25,1,48,40,1532212644
9,22,Ticks_Phase_8,26,5,42,127,1532243448
9,22,Ticks_Phase_8,27,1,48,38,1533035040
9,22,Ticks_Phase_8,28,5,42,127,1533043232
9,22,Ticks_Phase_8,29,5,42,127,1533842728
9,22,Ticks_Phase_8,30,1,48,46,1533882768
9,22,Ticks_Phase_8,31,1,48,39,1534594848
9,22,Ticks_Phase_8,32,5,42,127,1534642508
9,22,Ticks_Phase_8,33,5,42,127,1535443272
9,22,Ticks_Phase_8,34,1,48,40,1535448784
9,22,Ticks_Phase_8,35,1,48,38,1536210968
9,22,Ticks_Phase_8,36,5,42,127,1536243448
9,22,Ticks_Phase_8,37,1,48,39,1537031236
9,22,Ticks_Phase_8,38,5,42,127,1537042788
9,22,Ticks_Phase_8,39,1,48,38,1537815508
9,22,Ticks_Phase_8,40,5,42,127,1537842500
9,22,Ticks_Phase_8,41,1,48,40,1538596724
9,22,Ticks_Phase_8,42,5,42,127,1538643264
9,22,Ticks_Phase_8,43,5,42,127,1539443276
9,22,Ticks_Phase_8,44,1,48,44,1539444244
9,22,Ticks_Phase_8,45,5,42,127,1540242764
9,22,Ticks_Phase_8,46,1,48,40,1540257340
9,22,Ticks_Phase_8,47,1,48,48,1541036152
9,22,Ticks_Phase_8,48,5,42,127,1541042468
9,22,Ticks_Phase_8,49,1,48,44,1541774456
9,22,Ticks_Phase_8,50,5,42,127,1541843228
9,22,Ticks_Phase_8,51,1,48,44,1542642596
9,22,Ticks_Phase_8,52,5,42,127,1542644384
9,22,Ticks_Phase_8,53,5,42,127,1543442832
9,22,Ticks_Phase_8,54,1,48,44,1543466024
9,22,Ticks_Phase_8,55,1,48,48,1544212032
9,22,Ticks_Phase_8,56,5,42,127,1544242540
9,22,Ticks_Phase_8,57,1,48,38,1545027016
9,22,Ticks_Phase_8,58,5,42,127,1545043296
9,22,Ticks_Phase_8,59,1,48,45,1545814820
9,22,Ticks_Phase_8,60,5,42,127,1545822716
9,22,Ticks_Phase_8,61,1,48,36,1546608392
9,22,Ticks_Phase_8,62,5,42,127,1546623476
9,22,Ticks_Phase_8,63,1,48,46,1547387136
9,22,Ticks_Phase_8,64,5,42,127,1547422964
9,22,Ticks_Phase_8,65,5,42,127,1548223056
9,22,Ticks_Phase_8,66,1,48,16,1548260632
9,22,Ticks_Phase_8,67,1,48,44,1549001692
9,22,Ticks_Phase_8,68,5,42,127,1549022536
9,22,Ticks_Phase_8,69,1,48,47,1549806288
9,22,Ticks_Phase_8,70,5,42,127,1549823320
9,22,Ticks_Phase_8,71,1,48,45,1550595148
9,22,Ticks_Phase_8,72,5,42,127,1550623108
9,22,Ticks_Phase_8,73,1,48,42,1551420236
9,22,Ticks_Phase_8,74,5,42,127,1551422968
9,22,Ticks_Phase_8,75,1,48,42,1552206472
9,22,Ticks_Phase_8,76,5,42,127,1552222828
9,22,Ticks_Phase_8,77,1,48,46,1553016292
9,22,Ticks_Phase_8,78,5,42,127,1553023288
9,22,Ticks_Phase_8,79,1,48,45,1553807620
9,22,Ticks_Phase_8,80,5,42,127,1553823076
9,22,Ticks_Phase_8,81,1,48,46,1554584264
9,22,Ticks_Phase_8,82,5,42,127,1554622788
9,22,Ticks_Phase_8,83,1,48,46,1555390576
9,22,Ticks_Phase_8,84,5,42,127,1555422572
9,22,Ticks_Phase_8,85,1,48,39,1556166164
9,22,Ticks_Phase_8,86,5,42,127,1556223728
9,22,Ticks_Phase_8,87,1,48,48,1557004020
9,22,Ticks_Phase_8,88,5,42,127,1557023216
9,22,Ticks_Phase_8,89,1,48,46,1557794224
9,22,Ticks_Phase_8,90,5,42,127,1557822860
9,22,Ticks_Phase_8,91,1,48,42,1558607188
9,22,Ticks_Phase_8,92,5,42,127,1558622792
9,22,Ticks_Phase_8,93,1,48,49,1559384212
9,22,Ticks_Phase_8,94,5,42,127,1559423628
9,22,Ticks_Phase_8,95,1,48,45,1560199792
9,22,Ticks_Phase_8,96,5,42,127,1560242740
9,22,Ticks_Phase_8,97,1,48,43,1561013212
9,22,Ticks_Phase_8,98,5,42,127,1561043572
9,22,Ticks_Phase_8,99,1,48,46,1561836016
9,22,Ticks_Phase_8,100,5,42,127,1561843084
9,22,Ticks_Phase_8,101,1,48,47,1562636852
9,22,Ticks_Phase_8,102,5,42,127,1562642724
9,22,Ticks_Phase_8,103,1,48,39,1563399268
9,22,Ticks_Phase_8,104,5,42,127,1563442660
9,22,Ticks_Phase_8,105,5,42,127,1564243352
9,22,Ticks_Phase_8,106,1,48,46,1564249612
9,22,Ticks_Phase_8,107,5,42,127,1565043136
9,22,Ticks_Phase_8,108,1,48,45,1565046256
9,22,Ticks_Phase_8,109,5,42,127,1565842924
9,22,Ticks_Phase_8,110,1,48,39,1565858248
9,22,Ticks_Phase_8,111,1,48,45,1566604032
9,22,Ticks_Phase_8,112,5,42,127,1566642480
9,22,Ticks_Phase_8,113,1,48,49,1567368092
9,22,Ticks_Phase_8,114,5,42,127,1567443240
9,22,Ticks_Phase_8,115,5,42,127,1568243280
9,22,Ticks_Phase_8,116,1,48,34,1568276808
9,22,Ticks_Phase_8,117,5,42,127,1569042772
9,22,Ticks_Phase_8,118,1,48,43,1569102656
9,22,Ticks_Phase_8,119,1,48,37,1569824248
9,22,Ticks_Phase_8,120,5,42,127,1569842624
9,22,Ticks_Phase_8,121,5,42,127,1570643316
9,22,Ticks_Phase_8,122,1,48,39,1570660524
9,22,Ticks_Phase_8,123,1,48,41,1571404500
9,22,Ticks_Phase_8,124,5,42,127,1571443316
9,22,Ticks_Phase_8,125,1,48,39,1572228696
9,22,Ticks_Phase_8,126,5,42,127,1572242732
9,22,Ticks_Phase_8,127,1,48,42,1573035672
9,22,Ticks_Phase_8,128,5,42,127,1573082512
9,22,Ticks_Phase_8,129,1,48,42,1573875696
9,22,Ticks_Phase_8,130,5,42,127,1573883440
9,22,Ticks_Phase_8,131,1,48,44,1574667992
9,22,Ticks_Phase_8,132,5,42,127,1574683152
9,22,Ticks_Phase_8,133,5,42,127,1575482872
9,22,Ticks_Phase_8,134,1,48,34,1575515572
9,22,Ticks_Phase_8,135,5,42,127,1576282360
9,22,Ticks_Phase_8,136,1,48,38,1576287500
9,22,Ticks_Phase_8,137,5,42,127,1577083192
9,22,Ticks_Phase_8,138,1,48,40,1577084604
9,22,Ticks_Phase_8,139,1,48,43,1577851196
9,22,Ticks_Phase_8,140,5,42,127,1577883120
9,22,Ticks_Phase_8,141,1,48,44,1578656896
9,22,Ticks_Phase_8,142,5,42,127,1578682836
9,22,Ticks_Phase_8,143,1,48,42,1579468580
9,22,Ticks_Phase_8,144,5,42,127,1579482620
9,22,Ticks_Phase_8,145,5,42,127,1580283336
9,22,Ticks_Phase_8,146,1,48,44,1580299704
9,22,Ticks_Phase_8,147,1,48,45,1581069824
9,22,Ticks_Phase_8,148,5,42,127,1581083040
9,22,Ticks_Phase_8,149,5,42,127,1581882684
9,22,Ticks_Phase_8,150,1,48,39,1581892700
9,22,Ticks_Phase_8,151,5,42,127,1582682620
9,22,Ticks_Phase_8,152,1,48,26,1582687240
9,22,Ticks_Phase_8,153,5,42,127,1583483232
9,22,Ticks_Phase_8,154,1,48,46,1583515480
9,22,Ticks_Phase_8,155,1,48,34,1584266952
9,22,Ticks_Phase_8,156,5,42,127,1584283084
9,22,Ticks_Phase_8,157,5,42,127,1585082880
9,22,Ticks_Phase_8,158,1,48,22,1585085776
9,22,Ticks_Phase_8,159,5,42,127,1585882368
9,22,Ticks_Phase_8,160,1,48,51,1585925796
9,22,Ticks_Phase_8,161,5,42,127,1586643436
9,22,Ticks_Phase_8,162,1,48,41,1586684028
9,22,Ticks_Phase_8,163,1,48,42,1587409260
9,22,Ticks_Phase_8,164,5,42,127,1587443016
9,22,Ticks_Phase_8,165,1,48,42,1588234316
9,22,Ticks_Phase_8,166,5,42,127,1588242804
9,22,Ticks_Phase_8,167,1,48,46,1589022716
9,22,Ticks_Phase_8,168,5,42,127,1589042812
9,22,Ticks_Phase_8,169,1,48,42,1589843728
9,22,Ticks_Phase_8,170,5,42,127,1589845068
9,22,Ticks_Phase_8,171,1,48,41,1590622220
9,22,Ticks_Phase_8,172,5,42,127,1590642988
9,22,Ticks_Phase_8,173,5,42,127,1591442780
9,22,Ticks_Phase_8,174,1,48,43,1591455036
9,22,Ticks_Phase_8,175,1,48,41,1592215868
9,22,Ticks_Phase_8,176,5,42,127,1592242708
9,22,Ticks_Phase_8,177,1,48,42,1593024488
9,22,Ticks_Phase_8,178,5,42,127,1593043244
9,22,Ticks_Phase_8,179,1,48,46,1593799712
9,22,Ticks_Phase_8,180,5,42,127,1593843204
9,22,Ticks_Phase_8,181,5,42,127,1594642772
9,22,Ticks_Phase_8,182,1,48,44,1594645520
9,22,Ticks_Phase_8,183,5,42,127,1595442632
9,22,Ticks_Phase_8,184,1,48,43,1595480208
9,22,Ticks_Phase_8,185,5,42,127,1596243464
9,22,Ticks_Phase_8,186,1,48,37,1596255424
9,22,Ticks_Phase_8,187,1,48,38,1597034756
9,22,Ticks_Phase_8,188,5,42,127,1597043020
9,22,Ticks_Phase_8,189,1,48,32,1597819260
9,22,Ticks_Phase_8,190,5,42,127,1597842732
9,22,Ticks_Phase_8,191,1,48,33,1598621596
9,22,Ticks_Phase_8,192,5,42,127,1598642596
9,22,Ticks_Phase_8,193,5,42,127,1599362556
9,22,Ticks_Phase_8,194,1,48,43,1599408732
9,22,Ticks_Phase_8,195,1,48,39,1600136548
9,22,Ticks_Phase_8,196,5,42,127,1600163384
9,22,Ticks_Phase_8,197,1,48,43,1600932444
9,22,Ticks_Phase_8,198,5,42,127,1600962872
9,22,Ticks_Phase_8,199,1,48,32,1601732680
9,22,Ticks_Phase_8,200,5,42,127,1601762660
9,22,Ticks_Phase_8,201,1,48,40,1602520932
9,22,Ticks_Phase_8,202,5,42,127,1602562620
9,22,Ticks_Phase_8,203,1,48,43,1603328152
9,22,Ticks_Phase_8,204,5,42,127,1603363376
9,22,Ticks_Phase_8,205,1,48,40,1604122548
9,22,Ticks_Phase_8,206,5,42,127,1604162940
9,22,Ticks_Phase_8,207,1,48,20,1604921368
9,22,Ticks_Phase_8,208,5,42,127,1604962652
9,22,Ticks_Phase_8,209,1,48,42,1605706768
9,22,Ticks_Phase_8,210,5,42,127,1605762364
9,22,Ticks_Phase_8,211,1,48,40,1606516584
9,22,Ticks_Phase_8,212,5,42,127,1606563344
9,22,Ticks_Phase_8,213,1,48,38,1607362916
9,22,Ticks_Phase_8,214,5,42,127,1607364552
9,22,Ticks_Phase_8,215,1,48,37,1608156528
9,22,Ticks_Phase_8,216,5,42,127,1608162696
9,22,Ticks_Phase_8,217,1,48,36,1608959624
9,22,Ticks_Phase_8,218,5,42,127,1608962284
9,22,Ticks_Phase_8,219,1,48,32,1609759412
9,22,Ticks_Phase_8,220,5,42,127,1609763192
9,22,Ticks_Phase_8,221,1,48,35,1610554112
9,22,Ticks_Phase_8,222,5,42,127,1610562904
9,22,Ticks_Phase_8,223,1,48,39,1611315176
9,22,Ticks_Phase_8,224,5,42,127,1611362616
9,22,Ticks_Phase_8,225,1,48,38,1612107104
9,22,Ticks_Phase_8,226,5,42,127,1612162476
9,22,Ticks_Phase_8,227,1,48,19,1612918568
9,22,Ticks_Phase_8,228,5,42,127,1613043444
9,22,Ticks_Phase_8,229,5,42,127,1613842884
9,22,Ticks_Phase_8,230,1,48,37,1613862480
9,22,Ticks_Phase_8,231,5,42,127,1614642524
9,22,Ticks_Phase_8,232,1,48,33,1614702260
9,22,Ticks_Phase_8,233,5,42,127,1615443208
9,22,Ticks_Phase_8,234,1,48,35,1615510884
9,22,Ticks_Phase_8,235,1,48,31,1616215844
9,22,Ticks_Phase_8,236,5,42,127,1616243136
9,22,Ticks_Phase_8,237,1,48,35,1617036976
9,22,Ticks_Phase_8,238,5,42,127,1617042920
9,22,Ticks_Phase_8,239,5,42,127,1617842416
9,22,Ticks_Phase_8,240,1,48,40,1617877584
9,22,Ticks_Phase_8,241,1,48,33,1618642872
9,22,Ticks_Phase_8,242,5,42,127,1618644440
9,22,Ticks_Phase_8,243,5,42,127,1619442988
9,22,Ticks_Phase_8,244,1,48,36,1619453000
9,22,Ticks_Phase_8,245,1,48,39,1620241408
9,22,Ticks_Phase_8,246,5,42,127,1620243212
9,22,Ticks_Phase_8,247,1,48,39,1621038104
9,22,Ticks_Phase_8,248,5,42,127,1621042404
9,22,Ticks_Phase_8,249,1,48,40,1621823592
9,22,Ticks_Phase_8,250,5,42,127,1621843312
9,22,Ticks_Phase_8,251,1,48,41,1622631312
9,22,Ticks_Phase_8,252,5,42,127,1622643096
9,22,Ticks_Phase_8,253,5,42,127,1623443036
9,22,Ticks_Phase_8,254,1,48,37,1623464136
9,22,Ticks_Phase_8,255,5,42,127,1624242676
9,22,Ticks_Phase_8,256,1,48,34,1624253808
9,22,Ticks_Phase_8,257,5,42,127,1625043208
9,22,Ticks_Phase_8,258,1,48,39,1625061184
9,22,Ticks_Phase_8,259,1,48,40,1625841504
9,22,Ticks_Phase_8,260,5,42,127,1625843236
9,22,Ticks_Phase_8,261,1,48,43,1626618800
9,22,Ticks_Phase_8,262,5,42,127,1626802668
9,22,Ticks_Phase_8,263,5,42,127,1627603300
9,22,Ticks_Phase_8,264,1,48,31,1627689788
9,22,Ticks_Phase_8,265,5,42,127,1628403036
9,22,Ticks_Phase_8,266,1,48,23,1628489056
9,22,Ticks_Phase_8,267,1,48,25,1629201008
9,22,Ticks_Phase_8,268,5,42,127,1629202892
9,22,Ticks_Phase_8,269,1,48,30,1629956596
9,22,Ticks_Phase_8,270,5,42,127,1630002680
9,22,Ticks_Phase_8,271,1,48,30,1630754960
9,22,Ticks_Phase_8,272,5,42,127,1630803584
9,22,Ticks_Phase_8,273,1,48,35,1631539312
9,22,Ticks_Phase_8,274,5,42,127,1631603000
9,22,Ticks_Phase_8,275,1,48,33,1632352288
9,22,Ticks_Phase_8,276,5,42,127,1632402860
9,22,Ticks_Phase_8,277,5,42,127,1633202728
9,22,Ticks_Phase_8,278,1,48,24,1633234980
9,22,Ticks_Phase_8,279,5,42,127,1634003560
9,22,Ticks_Phase_8,280,1,48,32,1634053664
9,22,Ticks_Phase_8,281,1,48,25,1634769160
9,22,Ticks_Phase_8,282,5,42,127,1634802992
9,22,Ticks_Phase_8,283,1,48,28,1635580128
9,22,Ticks_Phase_8,284,5,42,127,1635602704
9,22,Ticks_Phase_8,285,1,48,35,1636376468
9,22,Ticks_Phase_8,286,5,42,127,1636402640
9,22,Ticks_Phase_8,287,1,48,33,1637140232
9,22,Ticks_Phase_8,288,5,42,127,1637203548
9,22,Ticks_Phase_8,289,5,42,127,1638003192
9,22,Ticks_Phase_8,290,1,48,29,1638024884
9,22,Ticks_Phase_8,291,5,42,127,1638802904
9,22,Ticks_Phase_8,292,1,48,29,1638853576
9,22,Ticks_Phase_8,293,5,42,127,1639602616
9,22,Ticks_Phase_8,294,1,48,26,1639625808
9,22,Ticks_Phase_8,295,5,42,127,1640403300
9,22,Ticks_Phase_8,296,1,48,35,1640412712
9,22,Ticks_Phase_8,297,5,42,127,1641203408
9,22,Ticks_Phase_8,298,1,48,31,1641237084
9,22,Ticks_Phase_8,299,5,42,127,1641843212
9,22,Ticks_Phase_8,300,1,48,30,1641988268
9,22,Ticks_Phase_8,301,5,42,127,1642642852
9,22,Ticks_Phase_8,302,1,48,24,1642855904
9,22,Ticks_Phase_8,303,5,42,127,1643442412
9,22,Ticks_Phase_8,304,1,48,18,1643633152
9,22,Ticks_Phase_8,305,5,42,127,1644243324
9,22,Ticks_Phase_8,306,1,48,21,1644376016
9,22,Ticks_Phase_8,307,5,42,127,1645043208
9,22,Ticks_Phase_8,308,1,48,21,1645099792
9,22,Ticks_Phase_8,309,1,48,26,1645837788
9,22,Ticks_Phase_8,310,5,42,127,1645842764
9,22,Ticks_Phase_8,311,1,48,28,1646610088
9,22,Ticks_Phase_8,312,5,42,127,1646642624
9,22,Ticks_Phase_8,313,1,48,27,1647388160
9,22,Ticks_Phase_8,314,5,42,127,1647443308
9,22,Ticks_Phase_8,315,5,42,127,1648243248
9,22,Ticks_Phase_8,316,1,48,24,1648244216
9,22,Ticks_Phase_8,317,5,42,127,1649042884
9,22,Ticks_Phase_8,318,1,48,31,1649051780
9,22,Ticks_Phase_8,319,1,48,30,1649790436
9,22,Ticks_Phase_8,320,5,42,127,1649842592
9,22,Ticks_Phase_8,321,1,48,30,1650625576
9,22,Ticks_Phase_8,322,5,42,127,1650643428
9,22,Ticks_Phase_8,323,1,48,29,1651443248
9,22,Ticks_Phase_8,324,5,42,127,1651444812
9,22,Ticks_Phase_8,325,1,48,33,1652205028
9,22,Ticks_Phase_8,326,5,42,127,1652243100
9,22,Ticks_Phase_8,327,1,48,38,1653036048
9,22,Ticks_Phase_8,328,5,42,127,1653042520
9,22,Ticks_Phase_8,329,1,48,35,1653830584
9,22,Ticks_Phase_8,330,5,42,127,1653843428
9,22,Ticks_Phase_8,331,1,48,34,1654610380
9,22,Ticks_Phase_8,332,5,42,127,1654642988
9,22,Ticks_Phase_8,333,5,42,127,1655443080
9,22,Ticks_Phase_8,334,1,48,33,1655445448
9,22,Ticks_Phase_8,335,1,48,33,1656211980
9,22,Ticks_Phase_8,336,5,42,127,1656242488
9,22,Ticks_Phase_8,337,5,42,127,1657043400
9,22,Ticks_Phase_8,0,9999,9999,9999,1521840208
9,22,Ticks_Phase_8,1,9999,9999,9999,1522640968
9,22,Ticks_Phase_8,2,9999,9999,9999,1523440720
9,22,Ticks_Phase_8,3,9999,9999,9999,1524240504
9,22,Ticks_Phase_8,4,9999,9999,9999,1525040216
9,22,Ticks_Phase_8,5,9999,9999,9999,1525840976
9,22,Ticks_Phase_8,6,9999,9999,9999,1526640760
9,22,Ticks_Phase_8,7,9999,9999,9999,1527440472
9,22,Ticks_Phase_8,8,9999,9999,9999,1528240184
9,22,Ticks_Phase_8,9,9999,9999,9999,1529041016
9,22,Ticks_Phase_8,10,9999,9999,9999,1529840756
9,22,Ticks_Phase_8,11,9999,9999,9999,1530640468
9,22,Ticks_Phase_8,12,9999,9999,9999,1531440252
9,22,Ticks_Phase_8,13,9999,9999,9999,1532241012
9,22,Ticks_Phase_8,14,9999,9999,9999,1533040724
9,22,Ticks_Phase_8,15,9999,9999,9999,1533840440
9,22,Ticks_Phase_8,16,9999,9999,9999,1534640220
9,22,Ticks_Phase_8,17,9999,9999,9999,1535440984
9,22,Ticks_Phase_8,18,9999,9999,9999,1536240716
9,22,Ticks_Phase_8,19,9999,9999,9999,1537040504
9,22,Ticks_Phase_8,20,9999,9999,9999,1537840216
9,22,Ticks_Phase_8,21,9999,9999,9999,1538640976
9,22,Ticks_Phase_8,22,9999,9999,9999,1539440768
9,22,Ticks_Phase_8,23,9999,9999,9999,1540240480
9,22,Ticks_Phase_8,24,9999,9999,9999,1541040184
9,22,Ticks_Phase_8,25,9999,9999,9999,1541841016
9,22,Ticks_Phase_8,26,9999,9999,9999,1542640760
9,22,Ticks_Phase_8,27,9999,9999,9999,1543440472
9,22,Ticks_Phase_8,28,9999,9999,9999,1544240252
9,22,Ticks_Phase_8,29,9999,9999,9999,1545041012
9,22,Ticks_Phase_8,30,9999,9999,9999,1545820280
9,22,Ticks_Phase_8,31,9999,9999,9999,1546621040
9,22,Ticks_Phase_8,32,9999,9999,9999,1547420752
9,22,Ticks_Phase_8,33,9999,9999,9999,1548220472
9,22,Ticks_Phase_8,34,9999,9999,9999,1549020252
9,22,Ticks_Phase_8,35,9999,9999,9999,1549821036
9,22,Ticks_Phase_8,36,9999,9999,9999,1550620748
9,22,Ticks_Phase_8,37,9999,9999,9999,1551420532
9,22,Ticks_Phase_8,38,9999,9999,9999,1552220244
9,22,Ticks_Phase_8,39,9999,9999,9999,1553021004
9,22,Ticks_Phase_8,40,9999,9999,9999,1553820788
9,22,Ticks_Phase_8,41,9999,9999,9999,1554620500
9,22,Ticks_Phase_8,42,9999,9999,9999,1555420288
9,22,Ticks_Phase_8,43,9999,9999,9999,1556220996
9,22,Ticks_Phase_8,44,9999,9999,9999,1557020784
9,22,Ticks_Phase_8,45,9999,9999,9999,1557820496
9,22,Ticks_Phase_8,46,9999,9999,9999,1558620284
9,22,Ticks_Phase_8,47,9999,9999,9999,1559421044
9,22,Ticks_Phase_8,48,9999,9999,9999,1560240228
9,22,Ticks_Phase_8,49,9999,9999,9999,1561040988
9,22,Ticks_Phase_8,50,9999,9999,9999,1561840724
9,22,Ticks_Phase_8,51,9999,9999,9999,1562640436
9,22,Ticks_Phase_8,52,9999,9999,9999,1563440224
9,22,Ticks_Phase_8,53,9999,9999,9999,1564240988
9,22,Ticks_Phase_8,54,9999,9999,9999,1565040700
9,22,Ticks_Phase_8,55,9999,9999,9999,1565840488
9,22,Ticks_Phase_8,56,9999,9999,9999,1566640196
9,22,Ticks_Phase_8,57,9999,9999,9999,1567440952
9,22,Ticks_Phase_8,58,9999,9999,9999,1568240696
9,22,Ticks_Phase_8,59,9999,9999,9999,1569040484
9,22,Ticks_Phase_8,60,9999,9999,9999,1569840188
9,22,Ticks_Phase_8,61,9999,9999,9999,1570640956
9,22,Ticks_Phase_8,62,9999,9999,9999,1571440736
9,22,Ticks_Phase_8,63,9999,9999,9999,1572240448
9,22,Ticks_Phase_8,64,9999,9999,9999,1573080148
9,22,Ticks_Phase_8,65,9999,9999,9999,1573880932
9,22,Ticks_Phase_8,66,9999,9999,9999,1574680644
9,22,Ticks_Phase_8,67,9999,9999,9999,1575480436
9,22,Ticks_Phase_8,68,9999,9999,9999,1576280148
9,22,Ticks_Phase_8,69,9999,9999,9999,1577080908
9,22,Ticks_Phase_8,70,9999,9999,9999,1577880688
9,22,Ticks_Phase_8,71,9999,9999,9999,1578680400
9,22,Ticks_Phase_8,72,9999,9999,9999,1579480184
9,22,Ticks_Phase_8,73,9999,9999,9999,1580280900
9,22,Ticks_Phase_8,74,9999,9999,9999,1581080680
9,22,Ticks_Phase_8,75,9999,9999,9999,1581880400
9,22,Ticks_Phase_8,76,9999,9999,9999,1582680184
9,22,Ticks_Phase_8,77,9999,9999,9999,1583480944
9,22,Ticks_Phase_8,78,9999,9999,9999,1584280648
9,22,Ticks_Phase_8,79,9999,9999,9999,1585080444
9,22,Ticks_Phase_8,80,9999,9999,9999,1585880156
9,22,Ticks_Phase_8,81,9999,9999,9999,1586641000
9,22,Ticks_Phase_8,82,9999,9999,9999,1587440728
9,22,Ticks_Phase_8,83,9999,9999,9999,1588240444
9,22,Ticks_Phase_8,84,9999,9999,9999,1589040228
9,22,Ticks_Phase_8,85,9999,9999,9999,1589840992
9,22,Ticks_Phase_8,86,9999,9999,9999,1590640700
9,22,Ticks_Phase_8,87,9999,9999,9999,1591440492
9,22,Ticks_Phase_8,88,9999,9999,9999,1592240200
9,22,Ticks_Phase_8,89,9999,9999,9999,1593040956
9,22,Ticks_Phase_8,90,9999,9999,9999,1593840768
9,22,Ticks_Phase_8,91,9999,9999,9999,1594640484
9,22,Ticks_Phase_8,92,9999,9999,9999,1595440196
9,22,Ticks_Phase_8,93,9999,9999,9999,1596240956
9,22,Ticks_Phase_8,94,9999,9999,9999,1597040736
9,22,Ticks_Phase_8,95,9999,9999,9999,1597840448
9,22,Ticks_Phase_8,96,9999,9999,9999,1598640232
9,22,Ticks_Phase_8,97,9999,9999,9999,1599360120
9,22,Ticks_Phase_8,98,9999,9999,9999,1600160876
9,22,Ticks_Phase_8,99,9999,9999,9999,1600960588
9,22,Ticks_Phase_8,100,9999,9999,9999,1601760372
9,22,Ticks_Phase_8,101,9999,9999,9999,1602560108
9,22,Ticks_Phase_8,102,9999,9999,9999,1603360868
9,22,Ticks_Phase_8,103,9999,9999,9999,1604160580
9,22,Ticks_Phase_8,104,9999,9999,9999,1604960364
9,22,Ticks_Phase_8,105,9999,9999,9999,1605760080
9,22,Ticks_Phase_8,106,9999,9999,9999,1606560836
9,22,Ticks_Phase_8,107,9999,9999,9999,1607360628
9,22,Ticks_Phase_8,108,9999,9999,9999,1608160336
9,22,Ticks_Phase_8,109,9999,9999,9999,1608960072
9,22,Ticks_Phase_8,110,9999,9999,9999,1609760832
9,22,Ticks_Phase_8,111,9999,9999,9999,1610560616
9,22,Ticks_Phase_8,112,9999,9999,9999,1611360328
9,22,Ticks_Phase_8,113,9999,9999,9999,1612160116
9,22,Ticks_Phase_8,114,9999,9999,9999,1613040712
9,22,Ticks_Phase_8,115,9999,9999,9999,1613840448
9,22,Ticks_Phase_8,116,9999,9999,9999,1614640236
9,22,Ticks_Phase_8,117,9999,9999,9999,1615440992
9,22,Ticks_Phase_8,118,9999,9999,9999,1616240700
9,22,Ticks_Phase_8,119,9999,9999,9999,1617040488
9,22,Ticks_Phase_8,120,9999,9999,9999,1617840204
9,22,Ticks_Phase_8,121,9999,9999,9999,1618640964
9,22,Ticks_Phase_8,122,9999,9999,9999,1619440700
9,22,Ticks_Phase_8,123,9999,9999,9999,1620240484
9,22,Ticks_Phase_8,124,9999,9999,9999,1621040192
9,22,Ticks_Phase_8,125,9999,9999,9999,1621840948
9,22,Ticks_Phase_8,126,9999,9999,9999,1622640736
9,22,Ticks_Phase_8,127,9999,9999,9999,1623440452
9,22,Ticks_Phase_8,128,9999,9999,9999,1624240240
9,22,Ticks_Phase_8,129,9999,9999,9999,1625040996
9,22,Ticks_Phase_8,130,9999,9999,9999,1625840732
9,22,Ticks_Phase_8,131,9999,9999,9999,1626800232
9,22,Ticks_Phase_8,132,9999,9999,9999,1627601016
9,22,Ticks_Phase_8,133,9999,9999,9999,1628400752
9,22,Ticks_Phase_8,134,9999,9999,9999,1629200480
9,22,Ticks_Phase_8,135,9999,9999,9999,1630000244
9,22,Ticks_Phase_8,136,9999,9999,9999,1630801004
9,22,Ticks_Phase_8,137,9999,9999,9999,1631600716
9,22,Ticks_Phase_8,138,9999,9999,9999,1632400500
9,22,Ticks_Phase_8,139,9999,9999,9999,1633200220
9,22,Ticks_Phase_8,140,9999,9999,9999,1634000976
9,22,Ticks_Phase_8,141,9999,9999,9999,1634800708
9,22,Ticks_Phase_8,142,9999,9999,9999,1635600492
9,22,Ticks_Phase_8,143,9999,9999,9999,1636400204
9,22,Ticks_Phase_8,144,9999,9999,9999,1637200964
9,22,Ticks_Phase_8,145,9999,9999,9999,1638000756
9,22,Ticks_Phase_8,146,9999,9999,9999,1638800472
9,22,Ticks_Phase_8,147,9999,9999,9999,1639600184
9,22,Ticks_Phase_8,148,9999,9999,9999,1640401012
9,22,Ticks_Phase_8,149,9999,9999,9999,1641200748
9,22,Ticks_Phase_8,150,9999,9999,9999,1641840700
9,22,Ticks_Phase_8,151,9999,9999,9999,1642640488
9,22,Ticks_Phase_8,152,9999,9999,9999,1643440200
9,22,Ticks_Phase_8,153,9999,9999,9999,1644240960
9,22,Ticks_Phase_8,154,9999,9999,9999,1645040696
9,22,Ticks_Phase_8,155,9999,9999,9999,1645840476
9,22,Ticks_Phase_8,156,9999,9999,9999,1646640188
9,22,Ticks_Phase_8,157,9999,9999,9999,1647441020
9,22,Ticks_Phase_8,158,9999,9999,9999,1648240740
9,22,Ticks_Phase_8,159,9999,9999,9999,1649040452
9,22,Ticks_Phase_8,160,9999,9999,9999,1649840232
9,22,Ticks_Phase_8,161,9999,9999,9999,1650640992
9,22,Ticks_Phase_8,162,9999,9999,9999,1651440736
9,22,Ticks_Phase_8,163,9999,9999,9999,1652240444
9,22,Ticks_Phase_8,164,9999,9999,9999,1653040232
9,22,Ticks_Phase_8,165,9999,9999,9999,1653840992
9,22,Ticks_Phase_8,166,9999,9999,9999,1654640704
9,22,Ticks_Phase_8,167,9999,9999,9999,1655440496
9,22,Ticks_Phase_8,168,9999,9999,9999,1656240200
9,22,Ticks_Phase_8,169,9999,9999,9999,1657040964
10,23,Ticks_Phase_5,0,5,42,127,1668285920
10,23,Ticks_Phase_5,1,5,42,127,1668785480
10,23,Ticks_Phase_5,2,1,48,31,1668917584
10,23,Ticks_Phase_5,3,1,48,24,1669273068
10,23,Ticks_Phase_5,4,5,42,127,1669286208
10,23,Ticks_Phase_5,5,1,48,34,1669713664
10,23,Ticks_Phase_5,6,5,42,127,1669785820
10,23,Ticks_Phase_5,7,1,48,33,1670247364
10,23,Ticks_Phase_5,8,5,42,127,1670285736
10,23,Ticks_Phase_5,9,1,48,37,1670749896
10,23,Ticks_Phase_5,10,5,42,127,1670786620
10,23,Ticks_Phase_5,11,1,48,35,1671262460
10,23,Ticks_Phase_5,12,5,42,127,1671296348
10,23,Ticks_Phase_5,13,1,48,40,1671780948
10,23,Ticks_Phase_5,14,5,42,127,1671796108
10,23,Ticks_Phase_5,15,1,48,38,1672290220
10,23,Ticks_Phase_5,16,5,42,127,1672295720
10,23,Ticks_Phase_5,17,5,42,127,1672795640
10,23,Ticks_Phase_5,18,1,48,37,1672809464
10,23,Ticks_Phase_5,19,5,42,127,1673296520
10,23,Ticks_Phase_5,20,1,48,39,1673336868
10,23,Ticks_Phase_5,21,5,42,127,1673795912
10,23,Ticks_Phase_5,22,1,48,29,1673817160
10,23,Ticks_Phase_5,23,5,42,127,1674295600
10,23,Ticks_Phase_5,24,1,48,34,1674305616
10,23,Ticks_Phase_5,25,5,42,127,1674796560
10,23,Ticks_Phase_5,26,1,48,29,1674829708
10,23,Ticks_Phase_5,27,5,42,127,1675296320
10,23,Ticks_Phase_5,28,1,48,30,1675314124
10,23,Ticks_Phase_5,29,5,42,127,1675795860
10,23,Ticks_Phase_5,30,1,48,24,1675798908
10,23,Ticks_Phase_5,31,5,42,127,1676295696
10,23,Ticks_Phase_5,32,1,48,38,1676316268
10,23,Ticks_Phase_5,33,5,42,127,1676796360
10,23,Ticks_Phase_5,34,1,48,37,1676821192
10,23,Ticks_Phase_5,35,5,42,127,1677295896
10,23,Ticks_Phase_5,36,1,48,34,1677322748
10,23,Ticks_Phase_5,37,1,48,35,1677792748
10,23,Ticks_Phase_5,38,5,42,127,1677795728
10,23,Ticks_Phase_5,39,5,42,127,1678296372
10,23,Ticks_Phase_5,40,1,48,41,1678310596
10,23,Ticks_Phase_5,41,5,42,127,1678806320
10,23,Ticks_Phase_5,42,1,48,35,1678824292
10,23,Ticks_Phase_5,43,1,48,36,1679272560
10,23,Ticks_Phase_5,44,5,42,127,1679306220
10,23,Ticks_Phase_5,45,1,48,34,1679785884
10,23,Ticks_Phase_5,46,5,42,127,1679805760
10,23,Ticks_Phase_5,47,1,48,40,1680283464
10,23,Ticks_Phase_5,48,5,42,127,1680305448
10,23,Ticks_Phase_5,49,5,42,127,1680806336
10,23,Ticks_Phase_5,50,1,48,36,1680810284
10,23,Ticks_Phase_5,51,5,42,127,1681306100
10,23,Ticks_Phase_5,52,1,48,31,1681345696
10,23,Ticks_Phase_5,53,5,42,127,1681805640
10,23,Ticks_Phase_5,54,1,48,30,1681822532
10,23,Ticks_Phase_5,55,5,42,127,1682306304
10,23,Ticks_Phase_5,56,1,48,36,1682310320
10,23,Ticks_Phase_5,57,1,48,41,1682804160
10,23,Ticks_Phase_5,58,5,42,127,1682816316
10,23,Ticks_Phase_5,59,5,42,127,1683306124
10,23,Ticks_Phase_5,60,1,48,35,1683323020
10,23,Ticks_Phase_5,61,5,42,127,1683805516
10,23,Ticks_Phase_5,62,1,48,32,1683832440
10,23,Ticks_Phase_5,63,1,48,32,1684297756
10,23,Ticks_Phase_5,64,5,42,127,1684306240
10,23,Ticks_Phase_5,65,1,48,32,1684793308
10,23,Ticks_Phase_5,66,5,42,127,1684806004
10,23,Ticks_Phase_5,67,1,48,34,1685281764
10,23,Ticks_Phase_5,68,5,42,127,1685305840
10,23,Ticks_Phase_5,69,1,48,31,1685766564
10,23,Ticks_Phase_5,70,5,42,127,1685805456
10,23,Ticks_Phase_5,71,1,48,36,1686302036
10,23,Ticks_Phase_5,72,5,42,127,1686306116
10,23,Ticks_Phase_5,73,5,42,127,1686806032
10,23,Ticks_Phase_5,74,1,48,35,1686830044
10,23,Ticks_Phase_5,75,5,42,127,1687305500
10,23,Ticks_Phase_5,76,1,48,46,1687336700
10,23,Ticks_Phase_5,77,1,48,43,1687796844
10,23,Ticks_Phase_5,78,5,42,127,1687806376
10,23,Ticks_Phase_5,79,1,48,34,1688298848
10,23,Ticks_Phase_5,80,5,42,127,1688305988
10,23,Ticks_Phase_5,81,5,42,127,1688805612
10,23,Ticks_Phase_5,82,1,48,39,1688827748
10,23,Ticks_Phase_5,83,1,48,39,1689297152
10,23,Ticks_Phase_5,84,5,42,127,1689305488
10,23,Ticks_Phase_5,85,5,42,127,1689806156
10,23,Ticks_Phase_5,86,1,48,40,1689832360
10,23,Ticks_Phase_5,87,5,42,127,1690306144
10,23,Ticks_Phase_5,88,1,48,32,1690309940
10,23,Ticks_Phase_5,89,5,42,127,1690805680
10,23,Ticks_Phase_5,90,1,48,28,1690823620
10,23,Ticks_Phase_5,91,5,42,127,1691306344
10,23,Ticks_Phase_5,92,1,48,37,1691309908
10,23,Ticks_Phase_5,93,1,48,35,1691793648
10,23,Ticks_Phase_5,94,5,42,127,1691806024
10,23,Ticks_Phase_5,95,1,48,39,1692295280
10,23,Ticks_Phase_5,96,5,42,127,1692316124
10,23,Ticks_Phase_5,97,1,48,44,1692781932
10,23,Ticks_Phase_5,98,5,42,127,1692815960
10,23,Ticks_Phase_5,99,1,48,35,1693286572
10,23,Ticks_Phase_5,100,5,42,127,1693315428
10,23,Ticks_Phase_5,101,1,48,34,1693790596
10,23,Ticks_Phase_5,102,5,42,127,1693816160
10,23,Ticks_Phase_5,103,1,48,33,1694281444
10,23,Ticks_Phase_5,104,5,42,127,1694316072
10,23,Ticks_Phase_5,105,1,48,43,1694779112
10,23,Ticks_Phase_5,106,5,42,127,1694815612
10,23,Ticks_Phase_5,107,1,48,38,1695256484
10,23,Ticks_Phase_5,108,5,42,127,1695316348
10,23,Ticks_Phase_5,109,1,48,39,1695799232
10,23,Ticks_Phase_5,110,5,42,127,1695815964
10,23,Ticks_Phase_5,111,5,42,127,1696315880
10,23,Ticks_Phase_5,112,1,48,36,1696320724
10,23,Ticks_Phase_5,113,5,42,127,1696815648
10,23,Ticks_Phase_5,114,1,48,36,1696832464
10,23,Ticks_Phase_5,115,5,42,127,1697316084
10,23,Ticks_Phase_5,116,1,48,40,1697327596
10,23,Ticks_Phase_5,117,5,42,127,1697815996
10,23,Ticks_Phase_5,118,1,48,34,1697840236
10,23,Ticks_Phase_5,119,5,42,127,1698315612
10,23,Ticks_Phase_5,120,1,48,19,1698326148
10,23,Ticks_Phase_5,121,5,42,127,1698816348
10,23,Ticks_Phase_5,122,1,48,33,1698849800
10,23,Ticks_Phase_5,123,5,42,127,1699315960
10,23,Ticks_Phase_5,124,1,48,31,1699316928
10,23,Ticks_Phase_5,125,5,42,127,1699815800
10,23,Ticks_Phase_5,126,1,48,37,1699823792
10,23,Ticks_Phase_5,127,1,48,34,1700259332
10,23,Ticks_Phase_5,128,5,42,127,1700336000
10,23,Ticks_Phase_5,129,1,48,34,1700832660
10,23,Ticks_Phase_5,130,5,42,127,1700835764
10,23,Ticks_Phase_5,131,5,42,127,1701336632
10,23,Ticks_Phase_5,132,1,48,30,1701353476
10,23,Ticks_Phase_5,133,1,48,40,1701833056
10,23,Ticks_Phase_5,134,5,42,127,1701846348
10,23,Ticks_Phase_5,135,5,42,127,1702346040
10,23,Ticks_Phase_5,136,1,48,36,1702349608
10,23,Ticks_Phase_5,137,5,42,127,1702845804
10,23,Ticks_Phase_5,138,1,48,33,1702862924
10,23,Ticks_Phase_5,139,1,48,37,1703344124
10,23,Ticks_Phase_5,140,5,42,127,1703345932
10,23,Ticks_Phase_5,141,1,48,36,1703840644
10,23,Ticks_Phase_5,142,5,42,127,1703846444
10,23,Ticks_Phase_5,143,1,48,37,1704328284
10,23,Ticks_Phase_5,144,5,42,127,1704345908
10,23,Ticks_Phase_5,145,1,48,36,1704816816
10,23,Ticks_Phase_5,146,5,42,127,1704845748
10,23,Ticks_Phase_5,147,1,48,42,1705319268
10,23,Ticks_Phase_5,148,5,42,127,1705346560
10,23,Ticks_Phase_5,149,1,48,36,1705819628
10,23,Ticks_Phase_5,150,5,42,127,1705856580
10,23,Ticks_Phase_5,151,1,48,28,1706316624
10,23,Ticks_Phase_5,152,5,42,127,1706356044
10,23,Ticks_Phase_5,153,1,48,38,1706816384
10,23,Ticks_Phase_5,154,5,42,127,1706855732
10,23,Ticks_Phase_5,155,1,48,32,1707333668
10,23,Ticks_Phase_5,156,5,42,127,1707355496
10,23,Ticks_Phase_5,157,1,48,32,1707825872
10,23,Ticks_Phase_5,158,5,42,127,1707856376
10,23,Ticks_Phase_5,159,1,48,33,1708306692
10,23,Ticks_Phase_5,160,5,42,127,1708355844
10,23,Ticks_Phase_5,161,5,42,127,1708836216
10,23,Ticks_Phase_5,162,1,48,32,1708849524
10,23,Ticks_Phase_5,163,1,48,33,1709317896
10,23,Ticks_Phase_5,164,5,42,127,1709336048
10,23,Ticks_Phase_5,165,5,42,127,1709835592
10,23,Ticks_Phase_5,166,1,48,32,1709838640
10,23,Ticks_Phase_5,167,1,48,39,1710323108
10,23,Ticks_Phase_5,168,5,42,127,1710336472
10,23,Ticks_Phase_5,169,5,42,127,1710836016
10,23,Ticks_Phase_5,170,1,48,35,1710836984
10,23,Ticks_Phase_5,171,5,42,127,1711335780
10,23,Ticks_Phase_5,172,1,48,31,1711360092
10,23,Ticks_Phase_5,173,1,48,35,1711832408
10,23,Ticks_Phase_5,174,5,42,127,1711835436
10,23,Ticks_Phase_5,175,1,48,38,1712330672
10,23,Ticks_Phase_5,176,5,42,127,1712336320
10,23,Ticks_Phase_5,177,5,42,127,1712836016
10,23,Ticks_Phase_5,178,1,48,41,1712840628
10,23,Ticks_Phase_5,179,5,42,127,1713335556
10,23,Ticks_Phase_5,180,1,48,28,1713348112
10,23,Ticks_Phase_5,181,1,48,38,1713809144
10,23,Ticks_Phase_5,182,5,42,127,1713836288
10,23,Ticks_Phase_5,183,1,48,33,1714293324
10,23,Ticks_Phase_5,184,5,42,127,1714336268
10,23,Ticks_Phase_5,185,1,48,33,1714795044
10,23,Ticks_Phase_5,186,5,42,127,1714835808
10,23,Ticks_Phase_5,187,1,48,41,1715297576
10,23,Ticks_Phase_5,188,5,42,127,1715335644
10,23,Ticks_Phase_5,189,1,48,38,1715809324
10,23,Ticks_Phase_5,190,5,42,127,1715836232
10,23,Ticks_Phase_5,191,1,48,31,1716300244
10,23,Ticks_Phase_5,192,5,42,127,1716336068
10,23,Ticks_Phase_5,193,5,42,127,1716785668
10,23,Ticks_Phase_5,194,1,48,38,1716826008
10,23,Ticks_Phase_5,195,5,42,127,1717286180
10,23,Ticks_Phase_5,196,1,48,31,1717296192
10,23,Ticks_Phase_5,197,1,48,36,1717774080
10,23,Ticks_Phase_5,198,5,42,127,1717786236
10,23,Ticks_Phase_5,199,1,48,33,1718240136
10,23,Ticks_Phase_5,200,5,42,127,1718285700
10,23,Ticks_Phase_5,201,1,48,30,1718761988
10,23,Ticks_Phase_5,202,5,42,127,1718786512
10,23,Ticks_Phase_5,203,1,48,29,1719235224
10,23,Ticks_Phase_5,204,5,42,127,1719296384
10,23,Ticks_Phase_5,205,1,48,38,1719755728
10,23,Ticks_Phase_5,206,5,42,127,1719796224
10,23,Ticks_Phase_5,207,1,48,34,1720235128
10,23,Ticks_Phase_5,208,5,42,127,1720295760
10,23,Ticks_Phase_5,209,1,48,34,1720744772
10,23,Ticks_Phase_5,210,5,42,127,1720795500
10,23,Ticks_Phase_5,211,1,48,33,1721246256
10,23,Ticks_Phase_5,212,5,42,127,1721296308
10,23,Ticks_Phase_5,213,1,48,28,1721748412
10,23,Ticks_Phase_5,214,5,42,127,1721796068
10,23,Ticks_Phase_5,215,5,42,127,1722295692
10,23,Ticks_Phase_5,216,1,48,29,1722297632
10,23,Ticks_Phase_5,217,5,42,127,1722796280
10,23,Ticks_Phase_5,218,1,48,32,1722823816
10,23,Ticks_Phase_5,219,5,42,127,1723296112
10,23,Ticks_Phase_5,220,1,48,28,1723325748
10,23,Ticks_Phase_5,221,5,42,127,1723796100
10,23,Ticks_Phase_5,222,1,48,26,1723858904
10,23,Ticks_Phase_5,223,5,42,127,1724295416
10,23,Ticks_Phase_5,224,1,48,23,1724299056
10,23,Ticks_Phase_5,225,1,48,33,1724761584
10,23,Ticks_Phase_5,226,5,42,127,1724796216
10,23,Ticks_Phase_5,227,1,48,30,1725279328
10,23,Ticks_Phase_5,228,5,42,127,1725346304
10,23,Ticks_Phase_5,229,5,42,127,1725846072
10,23,Ticks_Phase_5,230,1,48,19,1725895400
10,23,Ticks_Phase_5,231,5,42,127,1726345684
10,23,Ticks_Phase_5,232,1,48,26,1726437800
10,23,Ticks_Phase_5,233,5,42,127,1726846344
10,23,Ticks_Phase_5,234,1,48,20,1726878000
10,23,Ticks_Phase_5,235,5,42,127,1727345960
10,23,Ticks_Phase_5,236,1,48,26,1727395512
10,23,Ticks_Phase_5,237,5,42,127,1727846020
10,23,Ticks_Phase_5,238,1,48,27,1727875208
10,23,Ticks_Phase_5,239,5,42,127,1728345336
10,23,Ticks_Phase_5,240,1,48,26,1728393468
10,23,Ticks_Phase_5,241,5,42,127,1728846072
10,23,Ticks_Phase_5,242,1,48,26,1728895844
10,23,Ticks_Phase_5,243,5,42,127,1729345832
10,23,Ticks_Phase_5,244,1,48,29,1729359212
10,23,Ticks_Phase_5,245,5,42,127,1729845744
10,23,Ticks_Phase_5,246,1,48,31,1729855832
10,23,Ticks_Phase_5,247,5,42,127,1730346484
10,23,Ticks_Phase_5,248,1,48,28,1730373876
10,23,Ticks_Phase_5,249,1,48,28,1730843504
10,23,Ticks_Phase_5,250,5,42,127,1730846164
10,23,Ticks_Phase_5,251,1,48,31,1731324856
10,23,Ticks_Phase_5,252,5,42,127,1731346000
10,23,Ticks_Phase_5,253,1,48,30,1731823040
10,23,Ticks_Phase_5,254,5,42,127,1731845620
10,23,Ticks_Phase_5,255,1,48,25,1732333360
10,23,Ticks_Phase_5,256,5,42,127,1732346352
10,23,Ticks_Phase_5,257,1,48,26,1732814536
10,23,Ticks_Phase_5,258,5,42,127,1732846040
10,23,Ticks_Phase_5,259,1,48,25,1733285316
10,23,Ticks_Phase_5,260,5,42,127,1733345804
10,23,Ticks_Phase_5,261,1,48,29,1733761928
10,23,Ticks_Phase_5,262,5,42,127,1733945676
10,23,Ticks_Phase_5,263,5,42,127,1734445684
10,23,Ticks_Phase_5,264,1,48,25,1734541960
10,23,Ticks_Phase_5,265,5,42,127,1734946048
10,23,Ticks_Phase_5,266,1,48,18,1735029740
10,23,Ticks_Phase_5,267,5,42,127,1735445960
10,23,Ticks_Phase_5,268,1,48,26,1735467800
10,23,Ticks_Phase_5,269,1,48,22,1735936928
10,23,Ticks_Phase_5,270,5,42,127,1735945568
10,23,Ticks_Phase_5,271,1,48,29,1736432788
10,23,Ticks_Phase_5,272,5,42,127,1736446300
10,23,Ticks_Phase_5,273,1,48,26,1736918232
10,23,Ticks_Phase_5,274,5,42,127,1736945988
10,23,Ticks_Phase_5,275,1,48,29,1737423300
10,23,Ticks_Phase_5,276,5,42,127,1737445676
10,23,Ticks_Phase_5,277,1,48,31,1737916480
10,23,Ticks_Phase_5,278,5,42,127,1737945636
10,23,Ticks_Phase_5,279,1,48,30,1738427776
10,23,Ticks_Phase_5,280,5,42,127,1738446148
10,23,Ticks_Phase_5,281,5,42,127,1738945844
10,23,Ticks_Phase_5,282,1,48,29,1738957652
10,23,Ticks_Phase_5,283,1,48,29,1739407004
10,23,Ticks_Phase_5,284,5,42,127,1739445524
10,23,Ticks_Phase_5,285,1,48,29,1739902268
10,23,Ticks_Phase_5,286,5,42,127,1739946556
10,23,Ticks_Phase_5,287,1,48,24,1740372744
10,23,Ticks_Phase_5,288,5,42,127,1740446096
10,23,Ticks_Phase_5,289,1,48,27,1740901868
10,23,Ticks_Phase_5,290,5,42,127,1740945712
10,23,Ticks_Phase_5,291,5,42,127,1741445632
10,23,Ticks_Phase_5,292,1,48,17,1741469268
10,23,Ticks_Phase_5,293,5,42,127,1741946216
10,23,Ticks_Phase_5,294,1,48,29,1741955556
10,23,Ticks_Phase_5,295,1,48,32,1742443464
10,23,Ticks_Phase_5,296,5,42,127,1742445972
10,23,Ticks_Phase_5,297,1,48,33,1742930800
10,23,Ticks_Phase_5,298,5,42,127,1742945736
10,23,Ticks_Phase_5,299,5,42,127,1743345984
10,23,Ticks_Phase_5,300,1,48,28,1743443900
10,23,Ticks_Phase_5,301,5,42,127,1743845672
10,23,Ticks_Phase_5,302,1,48,25,1743912216
10,23,Ticks_Phase_5,303,5,42,127,1744345408
10,23,Ticks_Phase_5,304,1,48,25,1744372512
10,23,Ticks_Phase_5,305,1,48,27,1744844100
10,23,Ticks_Phase_5,306,5,42,127,1744846288
10,23,Ticks_Phase_5,307,1,48,25,1745291196
10,23,Ticks_Phase_5,308,5,42,127,1745345976
10,23,Ticks_Phase_5,309,1,48,26,1745797928
10,23,Ticks_Phase_5,310,5,42,127,1745845588
10,23,Ticks_Phase_5,311,1,48,27,1746268036
10,23,Ticks_Phase_5,312,5,42,127,1746346396
10,23,Ticks_Phase_5,313,1,48,29,1746788844
10,23,Ticks_Phase_5,314,5,42,127,1746846012
10,23,Ticks_Phase_5,315,5,42,127,1747345708
10,23,Ticks_Phase_5,316,1,48,22,1747352564
10,23,Ticks_Phase_5,317,5,42,127,1747845468
10,23,Ticks_Phase_5,318,1,48,34,1747881460
10,23,Ticks_Phase_5,319,5,42,127,1748346352
10,23,Ticks_Phase_5,320,1,48,29,1748366552
10,23,Ticks_Phase_5,321,1,48,29,1748827660
10,23,Ticks_Phase_5,322,5,42,127,1748845884
10,23,Ticks_Phase_5,323,1,48,29,1749319628
10,23,Ticks_Phase_5,324,5,42,127,1749345572
10,23,Ticks_Phase_5,325,1,48,26,1749833852
10,23,Ticks_Phase_5,326,5,42,127,1749846456
10,23,Ticks_Phase_5,327,1,48,27,1750314740
10,23,Ticks_Phase_5,328,5,42,127,1750346368
10,23,Ticks_Phase_5,329,1,48,34,1750807688
10,23,Ticks_Phase_5,330,5,42,127,1750845904
10,23,Ticks_Phase_5,331,1,48,34,1751280336
10,23,Ticks_Phase_5,332,5,42,127,1751345444
10,23,Ticks_Phase_5,333,1,48,28,1751796128
10,23,Ticks_Phase_5,334,5,42,127,1751846328
10,23,Ticks_Phase_5,335,1,48,24,1752308024
10,23,Ticks_Phase_5,336,5,42,127,1752345944
10,23,Ticks_Phase_5,337,1,48,31,1752795260
10,23,Ticks_Phase_5,338,5,42,127,1752845780
10,23,Ticks_Phase_5,0,9999,9999,9999,1668283484
10,23,Ticks_Phase_5,1,9999,9999,9999,1668783192
10,23,Ticks_Phase_5,2,9999,9999,9999,1669283920
10,23,Ticks_Phase_5,3,9999,9999,9999,1669783608
10,23,Ticks_Phase_5,4,9999,9999,9999,1670283372
10,23,Ticks_Phase_5,5,9999,9999,9999,1670784108
10,23,Ticks_Phase_5,6,9999,9999,9999,1671294056
10,23,Ticks_Phase_5,7,9999,9999,9999,1671793744
10,23,Ticks_Phase_5,8,9999,9999,9999,1672293432
10,23,Ticks_Phase_5,9,9999,9999,9999,1672793200
10,23,Ticks_Phase_5,10,9999,9999,9999,1673293936
10,23,Ticks_Phase_5,11,9999,9999,9999,1673793624
10,23,Ticks_Phase_5,12,9999,9999,9999,1674293316
10,23,Ticks_Phase_5,13,9999,9999,9999,1674794048
10,23,Ticks_Phase_5,14,9999,9999,9999,1675293812
10,23,Ticks_Phase_5,15,9999,9999,9999,1675793500
10,23,Ticks_Phase_5,16,9999,9999,9999,1676293188
10,23,Ticks_Phase_5,17,9999,9999,9999,1676793924
10,23,Ticks_Phase_5,18,9999,9999,9999,1677293684
10,23,Ticks_Phase_5,19,9999,9999,9999,1677793368
10,23,Ticks_Phase_5,20,9999,9999,9999,1678294084
10,23,Ticks_Phase_5,21,9999,9999,9999,1678804028
10,23,Ticks_Phase_5,22,9999,9999,9999,1679303784
10,23,Ticks_Phase_5,23,9999,9999,9999,1679803472
10,23,Ticks_Phase_5,24,9999,9999,9999,1680303160
10,23,Ticks_Phase_5,25,9999,9999,9999,1680803904
10,23,Ticks_Phase_5,26,9999,9999,9999,1681303664
10,23,Ticks_Phase_5,27,9999,9999,9999,1681803352
10,23,Ticks_Phase_5,28,9999,9999,9999,1682304088
10,23,Ticks_Phase_5,29,9999,9999,9999,1682814028
10,23,Ticks_Phase_5,30,9999,9999,9999,1683303540
10,23,Ticks_Phase_5,31,9999,9999,9999,1683803228
10,23,Ticks_Phase_5,32,9999,9999,9999,1684303956
10,23,Ticks_Phase_5,33,9999,9999,9999,1684803644
10,23,Ticks_Phase_5,34,9999,9999,9999,1685303404
10,23,Ticks_Phase_5,35,9999,9999,9999,1685803092
10,23,Ticks_Phase_5,36,9999,9999,9999,1686303828
10,23,Ticks_Phase_5,37,9999,9999,9999,1686803524
10,23,Ticks_Phase_5,38,9999,9999,9999,1687303288
10,23,Ticks_Phase_5,39,9999,9999,9999,1687804016
10,23,Ticks_Phase_5,40,9999,9999,9999,1688303704
10,23,Ticks_Phase_5,41,9999,9999,9999,1688803396
10,23,Ticks_Phase_5,42,9999,9999,9999,1689303128
10,23,Ticks_Phase_5,43,9999,9999,9999,1689803868
10,23,Ticks_Phase_5,44,9999,9999,9999,1690303560
10,23,Ticks_Phase_5,45,9999,9999,9999,1690803320
10,23,Ticks_Phase_5,46,9999,9999,9999,1691304056
10,23,Ticks_Phase_5,47,9999,9999,9999,1691803740
10,23,Ticks_Phase_5,48,9999,9999,9999,1692313684
10,23,Ticks_Phase_5,49,9999,9999,9999,1692813376
10,23,Ticks_Phase_5,50,9999,9999,9999,1693313140
10,23,Ticks_Phase_5,51,9999,9999,9999,1693813876
10,23,Ticks_Phase_5,52,9999,9999,9999,1694313564
10,23,Ticks_Phase_5,53,9999,9999,9999,1694813252
10,23,Ticks_Phase_5,54,9999,9999,9999,1695313988
10,23,Ticks_Phase_5,55,9999,9999,9999,1695813752
10,23,Ticks_Phase_5,56,9999,9999,9999,1696313448
10,23,Ticks_Phase_5,57,9999,9999,9999,1696813136
10,23,Ticks_Phase_5,58,9999,9999,9999,1697313872
10,23,Ticks_Phase_5,59,9999,9999,9999,1697813560
10,23,Ticks_Phase_5,60,9999,9999,9999,1698313324
10,23,Ticks_Phase_5,61,9999,9999,9999,1698814060
10,23,Ticks_Phase_5,62,9999,9999,9999,1699313748
10,23,Ticks_Phase_5,63,9999,9999,9999,1699813436
10,23,Ticks_Phase_5,64,9999,9999,9999,1700333636
10,23,Ticks_Phase_5,65,9999,9999,9999,1700833404
10,23,Ticks_Phase_5,66,9999,9999,9999,1701334120
10,23,Ticks_Phase_5,67,9999,9999,9999,1701844060
10,23,Ticks_Phase_5,68,9999,9999,9999,1702343756
10,23,Ticks_Phase_5,69,9999,9999,9999,1702843516
10,23,Ticks_Phase_5,70,9999,9999,9999,1703343204
10,23,Ticks_Phase_5,71,9999,9999,9999,1703843936
10,23,Ticks_Phase_5,72,9999,9999,9999,1704343620
10,23,Ticks_Phase_5,73,9999,9999,9999,1704843384
10,23,Ticks_Phase_5,74,9999,9999,9999,1705344120
10,23,Ticks_Phase_5,75,9999,9999,9999,1705854068
10,23,Ticks_Phase_5,76,9999,9999,9999,1706353756
10,23,Ticks_Phase_5,77,9999,9999,9999,1706853444
10,23,Ticks_Phase_5,78,9999,9999,9999,1707353208
10,23,Ticks_Phase_5,79,9999,9999,9999,1707853944
10,23,Ticks_Phase_5,80,9999,9999,9999,1708353628
10,23,Ticks_Phase_5,81,9999,9999,9999,1708833856
10,23,Ticks_Phase_5,82,9999,9999,9999,1709333612
10,23,Ticks_Phase_5,83,9999,9999,9999,1709833308
10,23,Ticks_Phase_5,84,9999,9999,9999,1710334036
10,23,Ticks_Phase_5,85,9999,9999,9999,1710833728
10,23,Ticks_Phase_5,86,9999,9999,9999,1711333492
10,23,Ticks_Phase_5,87,9999,9999,9999,1711833152
10,23,Ticks_Phase_5,88,9999,9999,9999,1712333884
10,23,Ticks_Phase_5,89,9999,9999,9999,1712833656
10,23,Ticks_Phase_5,90,9999,9999,9999,1713333344
10,23,Ticks_Phase_5,91,9999,9999,9999,1713834072
10,23,Ticks_Phase_5,92,9999,9999,9999,1714333760
10,23,Ticks_Phase_5,93,9999,9999,9999,1714833520
10,23,Ticks_Phase_5,94,9999,9999,9999,1715333212
10,23,Ticks_Phase_5,95,9999,9999,9999,1715833948
10,23,Ticks_Phase_5,96,9999,9999,9999,1716333632
10,23,Ticks_Phase_5,97,9999,9999,9999,1716783232
10,23,Ticks_Phase_5,98,9999,9999,9999,1717283964
10,23,Ticks_Phase_5,99,9999,9999,9999,1717783648
10,23,Ticks_Phase_5,100,9999,9999,9999,1718283340
10,23,Ticks_Phase_5,101,9999,9999,9999,1718784072
10,23,Ticks_Phase_5,102,9999,9999,9999,1719294020
10,23,Ticks_Phase_5,103,9999,9999,9999,1719793788
10,23,Ticks_Phase_5,104,9999,9999,9999,1720293476
10,23,Ticks_Phase_5,105,9999,9999,9999,1720793212
10,23,Ticks_Phase_5,106,9999,9999,9999,1721293944
10,23,Ticks_Phase_5,107,9999,9999,9999,1721793636
10,23,Ticks_Phase_5,108,9999,9999,9999,1722293328
10,23,Ticks_Phase_5,109,9999,9999,9999,1722794064
10,23,Ticks_Phase_5,110,9999,9999,9999,1723293752
10,23,Ticks_Phase_5,111,9999,9999,9999,1723793516
10,23,Ticks_Phase_5,112,9999,9999,9999,1724293200
10,23,Ticks_Phase_5,113,9999,9999,9999,1724793928
10,23,Ticks_Phase_5,114,9999,9999,9999,1725343868
10,23,Ticks_Phase_5,115,9999,9999,9999,1725843560
10,23,Ticks_Phase_5,116,9999,9999,9999,1726343248
10,23,Ticks_Phase_5,117,9999,9999,9999,1726843984
10,23,Ticks_Phase_5,118,9999,9999,9999,1727343672
10,23,Ticks_Phase_5,119,9999,9999,9999,1727843432
10,23,Ticks_Phase_5,120,9999,9999,9999,1728343124
10,23,Ticks_Phase_5,121,9999,9999,9999,1728843860
10,23,Ticks_Phase_5,122,9999,9999,9999,1729343548
10,23,Ticks_Phase_5,123,9999,9999,9999,1729843308
10,23,Ticks_Phase_5,124,9999,9999,9999,1730344044
10,23,Ticks_Phase_5,125,9999,9999,9999,1730843728
10,23,Ticks_Phase_5,126,9999,9999,9999,1731343420
10,23,Ticks_Phase_5,127,9999,9999,9999,1731843184
10,23,Ticks_Phase_5,128,9999,9999,9999,1732343916
10,23,Ticks_Phase_5,129,9999,9999,9999,1732843604
10,23,Ticks_Phase_5,130,9999,9999,9999,1733343292
10,23,Ticks_Phase_5,131,9999,9999,9999,1733943388
10,23,Ticks_Phase_5,132,9999,9999,9999,1734443100
10,23,Ticks_Phase_5,133,9999,9999,9999,1734943836
10,23,Ticks_Phase_5,134,9999,9999,9999,1735443524
10,23,Ticks_Phase_5,135,9999,9999,9999,1735943280
10,23,Ticks_Phase_5,136,9999,9999,9999,1736444016
10,23,Ticks_Phase_5,137,9999,9999,9999,1736943704
10,23,Ticks_Phase_5,138,9999,9999,9999,1737443392
10,23,Ticks_Phase_5,139,9999,9999,9999,1737943128
10,23,Ticks_Phase_5,140,9999,9999,9999,1738443864
10,23,Ticks_Phase_5,141,9999,9999,9999,1738943556
10,23,Ticks_Phase_5,142,9999,9999,9999,1739443312
10,23,Ticks_Phase_5,143,9999,9999,9999,1739944048
10,23,Ticks_Phase_5,144,9999,9999,9999,1740443736
10,23,Ticks_Phase_5,145,9999,9999,9999,1740943424
10,23,Ticks_Phase_5,146,9999,9999,9999,1741443196
10,23,Ticks_Phase_5,147,9999,9999,9999,1741943928
10,23,Ticks_Phase_5,148,9999,9999,9999,1742443612
10,23,Ticks_Phase_5,149,9999,9999,9999,1742943300
10,23,Ticks_Phase_5,150,9999,9999,9999,1743343696
10,23,Ticks_Phase_5,151,9999,9999,9999,1743843384
10,23,Ticks_Phase_5,152,9999,9999,9999,1744343124
10,23,Ticks_Phase_5,153,9999,9999,9999,1744843888
10,23,Ticks_Phase_5,154,9999,9999,9999,1745343612
10,23,Ticks_Phase_5,155,9999,9999,9999,1745843300
10,23,Ticks_Phase_5,156,9999,9999,9999,1746344036
10,23,Ticks_Phase_5,157,9999,9999,9999,1746843724
10,23,Ticks_Phase_5,158,9999,9999,9999,1747343420
10,23,Ticks_Phase_5,159,9999,9999,9999,1747843184
10,23,Ticks_Phase_5,160,9999,9999,9999,1748343916
10,23,Ticks_Phase_5,161,9999,9999,9999,1748843596
10,23,Ticks_Phase_5,162,9999,9999,9999,1749343284
10,23,Ticks_Phase_5,163,9999,9999,9999,1749844092
10,23,Ticks_Phase_5,164,9999,9999,9999,1750343784
10,23,Ticks_Phase_5,165,9999,9999,9999,1750843472
10,23,Ticks_Phase_5,166,9999,9999,9999,1751343160
10,23,Ticks_Phase_5,167,9999,9999,9999,1751843892
10,23,Ticks_Phase_5,168,9999,9999,9999,1752343656
10,23,Ticks_Phase_5,169,9999,9999,9999,1752843344
11,25,Jits_Pract_5,0,5,56,103,1803219364
11,25,Jits_Pract_5,1,5,63,98,1803222384
11,25,Jits_Pract_5,2,5,80,127,1803225828
11,25,Jits_Pract_5,0,5,56,103,1803718936
11,25,Jits_Pract_5,1,5,63,98,1803722032
11,25,Jits_Pract_5,2,5,80,127,1803725084
11,25,Jits_Pract_5,0,5,56,103,1804218680
11,25,Jits_Pract_5,1,5,80,127,1804229100
11,25,Jits_Pract_5,2,5,63,98,1804248288
11,25,Jits_Pract_5,0,5,63,98,1804669420
11,25,Jits_Pract_5,1,5,80,127,1804699024
11,25,Jits_Pract_5,2,5,56,103,1804709220
11,25,Jits_Pract_5,0,5,80,127,1805229384
11,25,Jits_Pract_5,1,5,56,103,1805238612
11,25,Jits_Pract_5,2,5,63,98,1805269332
11,25,Jits_Pract_5,0,5,63,98,1805718872
11,25,Jits_Pract_5,1,5,56,103,1805748768
11,25,Jits_Pract_5,2,5,80,127,1805758964
11,25,Jits_Pract_5,0,5,56,103,1806168480
11,25,Jits_Pract_5,1,5,63,98,1806218684
11,25,Jits_Pract_5,2,5,80,127,1806238992
11,25,Jits_Pract_5,0,5,80,127,1806669272
11,25,Jits_Pract_5,1,5,63,98,1806719324
11,25,Jits_Pract_5,2,5,56,103,1806759264
11,25,Jits_Pract_5,0,5,56,103,1807168868
11,25,Jits_Pract_5,1,5,63,98,1807198764
11,25,Jits_Pract_5,2,5,80,127,1807269192
11,25,Jits_Pract_5,0,5,56,103,1807668680
11,25,Jits_Pract_5,1,5,80,127,1807729148
11,25,Jits_Pract_5,2,5,63,98,1807758676
11,25,Jits_Pract_5,0,5,56,103,1808178764
11,25,Jits_Pract_5,1,5,63,98,1808188960
11,25,Jits_Pract_5,2,5,80,127,1808228824
11,25,Jits_Pract_5,0,5,63,98,1808668992
11,25,Jits_Pract_5,1,5,80,127,1808748860
11,25,Jits_Pract_5,2,5,56,103,1808759132
11,25,Jits_Pract_5,0,5,63,98,1809218920
11,25,Jits_Pract_5,1,5,56,103,1809258856
11,25,Jits_Pract_5,2,5,80,127,1809262068
11,25,Jits_Pract_5,0,5,56,103,1809678780
11,25,Jits_Pract_5,1,5,63,98,1809688976
11,25,Jits_Pract_5,2,5,80,127,1809728840
11,25,Jits_Pract_5,0,5,56,103,1810169152
11,25,Jits_Pract_5,1,5,63,98,1810172516
11,25,Jits_Pract_5,2,5,80,127,1810188640
11,25,Jits_Pract_5,0,9999,9999,9999,1803466872
11,25,Jits_Pract_5,1,9999,9999,9999,1803966524
11,25,Jits_Pract_5,2,9999,9999,9999,1804466268
11,25,Jits_Pract_5,3,9999,9999,9999,1804966980
11,25,Jits_Pract_5,4,9999,9999,9999,1805466716
11,25,Jits_Pract_5,5,9999,9999,9999,1805966460
11,25,Jits_Pract_5,6,9999,9999,9999,1806466116
11,25,Jits_Pract_5,7,9999,9999,9999,1806966836
11,25,Jits_Pract_5,8,9999,9999,9999,1807466576
11,25,Jits_Pract_5,9,9999,9999,9999,1807966320
11,25,Jits_Pract_5,10,9999,9999,9999,1808467032
11,25,Jits_Pract_5,11,9999,9999,9999,1808966776
11,25,Jits_Pract_5,12,9999,9999,9999,1809466428
11,25,Jits_Pract_5,13,9999,9999,9999,1809966152
11,25,Jits_Pract_5,14,9999,9999,9999,1810466924
12,24,Jits_Pract_8,0,5,56,103,1856731416
12,24,Jits_Pract_8,1,5,63,98,1856734588
12,24,Jits_Pract_8,2,5,80,127,1856737788
12,24,Jits_Pract_8,0,1,48,40,1857339276
12,24,Jits_Pract_8,1,5,56,103,1857532380
12,24,Jits_Pract_8,2,5,63,98,1857535480
12,24,Jits_Pract_8,3,5,80,127,1857538676
12,24,Jits_Pract_8,0,1,48,40,1858258292
12,24,Jits_Pract_8,1,5,80,127,1858271612
12,24,Jits_Pract_8,2,5,63,98,1858361656
12,24,Jits_Pract_8,3,5,56,103,1858372076
12,24,Jits_Pract_8,0,5,56,103,1859091756
12,24,Jits_Pract_8,1,5,63,98,1859102248
12,24,Jits_Pract_8,2,1,48,30,1859186572
12,24,Jits_Pract_8,3,5,80,127,1859192296
12,24,Jits_Pract_8,0,5,63,98,1859862152
12,24,Jits_Pract_8,1,1,48,43,1859891004
12,24,Jits_Pract_8,2,5,80,127,1859892720
12,24,Jits_Pract_8,3,5,56,103,1859922248
12,24,Jits_Pract_8,0,1,48,40,1860622164
12,24,Jits_Pract_8,1,5,56,103,1860661600
12,24,Jits_Pract_8,2,5,80,127,1860762208
12,24,Jits_Pract_8,3,5,63,98,1860812332
12,24,Jits_Pract_8,0,5,56,103,1861462340
12,24,Jits_Pract_8,1,5,80,127,1861511496
12,24,Jits_Pract_8,2,5,63,98,1861551360
12,24,Jits_Pract_8,3,1,48,36,1861568704
12,24,Jits_Pract_8,0,5,80,127,1862291776
12,24,Jits_Pract_8,1,5,63,98,1862321452
12,24,Jits_Pract_8,2,1,48,42,1862340012
12,24,Jits_Pract_8,3,5,56,103,1862392120
12,24,Jits_Pract_8,0,5,63,98,1863122416
12,24,Jits_Pract_8,1,1,48,18,1863135072
12,24,Jits_Pract_8,2,5,56,103,1863151960
12,24,Jits_Pract_8,3,5,80,127,1863212348
12,24,Jits_Pract_8,0,5,56,103,1863861636
12,24,Jits_Pract_8,1,5,80,127,1863864704
12,24,Jits_Pract_8,2,1,48,39,1863921944
12,24,Jits_Pract_8,3,5,63,98,1863981376
12,24,Jits_Pract_8,0,1,48,32,1864696816
12,24,Jits_Pract_8,1,5,56,103,1864742256
12,24,Jits_Pract_8,2,5,80,127,1864782192
12,24,Jits_Pract_8,3,5,63,98,1864792448
12,24,Jits_Pract_8,0,5,56,103,1865502012
12,24,Jits_Pract_8,1,1,48,35,1865521500
12,24,Jits_Pract_8,2,5,80,127,1865523216
12,24,Jits_Pract_8,3,5,63,98,1865602408
12,24,Jits_Pract_8,0,5,80,127,1866291452
12,24,Jits_Pract_8,1,1,48,34,1866368284
12,24,Jits_Pract_8,2,5,56,103,1866391840
12,24,Jits_Pract_8,3,5,63,98,1866402112
12,24,Jits_Pract_8,0,5,63,98,1867061628
12,24,Jits_Pract_8,1,5,80,127,1867122168
12,24,Jits_Pract_8,2,5,56,103,1867132216
12,24,Jits_Pract_8,3,1,48,35,1867162980
12,24,Jits_Pract_8,0,5,56,103,1867862280
12,24,Jits_Pract_8,1,1,48,30,1867868612
12,24,Jits_Pract_8,2,5,63,98,1867932024
12,24,Jits_Pract_8,3,5,80,127,1867935240
12,24,Jits_Pract_8,0,9999,9999,9999,1857129572
12,24,Jits_Pract_8,1,9999,9999,9999,1857929340
12,24,Jits_Pract_8,2,9999,9999,9999,1858730068
12,24,Jits_Pract_8,3,9999,9999,9999,1859529820
12,24,Jits_Pract_8,4,9999,9999,9999,1860329540
12,24,Jits_Pract_8,5,9999,9999,9999,1861129300
12,24,Jits_Pract_8,6,9999,9999,9999,1861930100
12,24,Jits_Pract_8,7,9999,9999,9999,1862729796
12,24,Jits_Pract_8,8,9999,9999,9999,1863529572
12,24,Jits_Pract_8,9,9999,9999,9999,1864329312
12,24,Jits_Pract_8,10,9999,9999,9999,1865130064
12,24,Jits_Pract_8,11,9999,9999,9999,1865929820
12,24,Jits_Pract_8,12,9999,9999,9999,1866729548
12,24,Jits_Pract_8,13,9999,9999,9999,1867529312
12,24,Jits_Pract_8,14,9999,9999,9999,1868330104
13,25,Jits_Pract_5,0,5,56,103,1875779884
13,25,Jits_Pract_5,1,5,63,98,1875783132
13,25,Jits_Pract_5,2,5,80,127,1875786248
13,25,Jits_Pract_5,0,5,56,103,1876279756
13,25,Jits_Pract_5,1,5,63,98,1876282776
13,25,Jits_Pract_5,2,5,80,127,1876285900
13,25,Jits_Pract_5,0,1,48,16,1876779716
13,25,Jits_Pract_5,1,5,56,103,1876781588
13,25,Jits_Pract_5,2,5,80,127,1876789540
13,25,Jits_Pract_5,3,5,63,98,1876810148
13,25,Jits_Pract_5,0,5,63,98,1877229820
13,25,Jits_Pract_5,1,5,80,127,1877259720
13,25,Jits_Pract_5,2,5,56,103,1877269840
13,25,Jits_Pract_5,3,1,48,32,1877272432
13,25,Jits_Pract_5,0,1,48,27,1877744376
13,25,Jits_Pract_5,1,5,80,127,1877790112
13,25,Jits_Pract_5,2,5,56,103,1877800456
13,25,Jits_Pract_5,3,5,63,98,1877829908
13,25,Jits_Pract_5,0,5,63,98,1878279552
13,25,Jits_Pract_5,1,5,56,103,1878310128
13,25,Jits_Pract_5,2,5,80,127,1878319572
13,25,Jits_Pract_5,3,1,48,24,1878352956
13,25,Jits_Pract_5,0,5,56,103,1878740484
13,25,Jits_Pract_5,1,5,63,98,1878789864
13,25,Jits_Pract_5,2,1,48,31,1878799436
13,25,Jits_Pract_5,3,5,80,127,1878810092
13,25,Jits_Pract_5,0,5,80,127,1879240092
13,25,Jits_Pract_5,1,1,48,30,1879284440
13,25,Jits_Pract_5,2,5,63,98,1879290240
13,25,Jits_Pract_5,3,5,56,103,1879330176
13,25,Jits_Pract_5,0,5,56,103,1879739800
13,25,Jits_Pract_5,1,5,63,98,1879769648
13,25,Jits_Pract_5,2,1,48,32,1879811356
13,25,Jits_Pract_5,3,5,80,127,1879840592
13,25,Jits_Pract_5,0,5,56,103,1880239580
13,25,Jits_Pract_5,1,1,48,32,1880279144
13,25,Jits_Pract_5,2,5,80,127,1880299916
13,25,Jits_Pract_5,3,5,63,98,1880329516
13,25,Jits_Pract_5,0,5,56,103,1880749628
13,25,Jits_Pract_5,1,5,63,98,1880759676
13,25,Jits_Pract_5,2,5,80,127,1880799564
13,25,Jits_Pract_5,3,1,48,35,1880811072
13,25,Jits_Pract_5,0,5,63,98,1881239960
13,25,Jits_Pract_5,1,1,48,31,1881246444
13,25,Jits_Pract_5,2,5,80,127,1881319704
13,25,Jits_Pract_5,3,5,56,103,1881330048
13,25,Jits_Pract_5,0,5,63,98,1881789784
13,25,Jits_Pract_5,1,1,48,27,1881804360
13,25,Jits_Pract_5,2,5,56,103,1881829656
13,25,Jits_Pract_5,3,5,80,127,1881832804
13,25,Jits_Pract_5,0,5,56,103,1882249684
13,25,Jits_Pract_5,1,5,63,98,1882259808
13,25,Jits_Pract_5,2,5,80,127,1882299668
13,25,Jits_Pract_5,3,1,48,35,1882303160
13,25,Jits_Pract_5,0,5,56,103,1882740096
13,25,Jits_Pract_5,1,5,63,98,1882742936
13,25,Jits_Pract_5,2,5,80,127,1882759508
13,25,Jits_Pract_5,3,1,48,35,1882777768
13,25,Jits_Pract_5,0,9999,9999,9999,1876027468
13,25,Jits_Pract_5,1,9999,9999,9999,1876527192
13,25,Jits_Pract_5,2,9999,9999,9999,1877027892
13,25,Jits_Pract_5,3,9999,9999,9999,1877527652
13,25,Jits_Pract_5,4,9999,9999,9999,1878027348
13,25,Jits_Pract_5,5,9999,9999,9999,1878528092
13,25,Jits_Pract_5,6,9999,9999,9999,1879038028
13,25,Jits_Pract_5,7,9999,9999,9999,1879537732
13,25,Jits_Pract_5,8,9999,9999,9999,1880037440
13,25,Jits_Pract_5,9,9999,9999,9999,1880537148
13,25,Jits_Pract_5,10,9999,9999,9999,1881037872
13,25,Jits_Pract_5,11,9999,9999,9999,1881537656
13,25,Jits_Pract_5,12,9999,9999,9999,1882037344
13,25,Jits_Pract_5,13,9999,9999,9999,1882538080
13,25,Jits_Pract_5,14,9999,9999,9999,1883037772
14,18,Jits_Linear_8,0,5,56,103,1913594236
14,18,Jits_Linear_8,1,5,63,98,1913597256
14,18,Jits_Linear_8,2,5,80,127,1913600604
14,18,Jits_Linear_8,0,1,48,40,1914119820
14,18,Jits_Linear_8,1,5,56,103,1914413704
14,18,Jits_Linear_8,2,5,63,98,1914416728
14,18,Jits_Linear_8,3,5,80,127,1914420072
14,18,Jits_Linear_8,0,1,48,39,1915148480
14,18,Jits_Linear_8,1,5,80,127,1915174208
14,18,Jits_Linear_8,2,5,63,98,1915264480
14,18,Jits_Linear_8,3,5,56,103,1915273704
14,18,Jits_Linear_8,0,5,56,103,1916013976
14,18,Jits_Linear_8,1,5,63,98,1916024172
14,18,Jits_Linear_8,2,1,48,47,1916091336
14,18,Jits_Linear_8,3,5,80,127,1916114548
14,18,Jits_Linear_8,0,5,63,98,1916803556
14,18,Jits_Linear_8,1,5,80,127,1916834056
14,18,Jits_Linear_8,2,5,56,103,1916863728
14,18,Jits_Linear_8,3,1,48,46,1916865668
14,18,Jits_Linear_8,0,5,56,103,1917623608
14,18,Jits_Linear_8,1,1,48,42,1917641252
14,18,Jits_Linear_8,2,5,80,127,1917723876
14,18,Jits_Linear_8,3,5,63,98,1917774140
14,18,Jits_Linear_8,0,5,56,103,1918433520
14,18,Jits_Linear_8,1,5,80,127,1918483724
14,18,Jits_Linear_8,2,5,63,98,1918523664
14,18,Jits_Linear_8,3,1,48,29,1918549400
14,18,Jits_Linear_8,0,5,80,127,1919274492
14,18,Jits_Linear_8,1,5,63,98,1919304096
14,18,Jits_Linear_8,2,1,48,38,1919335684
14,18,Jits_Linear_8,3,5,56,103,1919373768
14,18,Jits_Linear_8,0,5,63,98,1920113900
14,18,Jits_Linear_8,1,5,56,103,1920143876
14,18,Jits_Linear_8,2,1,48,28,1920150284
14,18,Jits_Linear_8,3,5,80,127,1920204408
14,18,Jits_Linear_8,0,5,56,103,1920863608
14,18,Jits_Linear_8,1,5,80,127,1920866596
14,18,Jits_Linear_8,2,1,48,40,1920941112
14,18,Jits_Linear_8,3,5,63,98,1920984324
14,18,Jits_Linear_8,0,1,48,40,1921734960
14,18,Jits_Linear_8,1,5,56,103,1921744496
14,18,Jits_Linear_8,2,5,80,127,1921784456
14,18,Jits_Linear_8,3,5,63,98,1921794504
14,18,Jits_Linear_8,0,5,56,103,1922504024
14,18,Jits_Linear_8,1,5,80,127,1922523464
14,18,Jits_Linear_8,2,1,48,39,1922557368
14,18,Jits_Linear_8,3,5,63,98,1922604372
14,18,Jits_Linear_8,0,5,80,127,1923293480
14,18,Jits_Linear_8,1,1,48,38,1923330680
14,18,Jits_Linear_8,2,5,56,103,1923393872
14,18,Jits_Linear_8,3,5,63,98,1923404368
14,18,Jits_Linear_8,0,5,63,98,1924063584
14,18,Jits_Linear_8,1,5,80,127,1924124124
14,18,Jits_Linear_8,2,5,56,103,1924134248
14,18,Jits_Linear_8,3,1,48,42,1924195504
14,18,Jits_Linear_8,0,5,56,103,1924864308
14,18,Jits_Linear_8,1,5,63,98,1924934212
14,18,Jits_Linear_8,2,5,80,127,1924937500
14,18,Jits_Linear_8,0,1,48,46,1925604128
14,18,Jits_Linear_8,1,5,63,98,1925694060
14,18,Jits_Linear_8,2,5,56,103,1925744248
14,18,Jits_Linear_8,3,5,80,127,1925747240
14,18,Jits_Linear_8,0,5,56,103,1926444432
14,18,Jits_Linear_8,1,5,80,127,1926447428
14,18,Jits_Linear_8,2,1,48,40,1926454072
14,18,Jits_Linear_8,3,5,63,98,1926533440
14,18,Jits_Linear_8,0,5,63,98,1927273712
14,18,Jits_Linear_8,1,1,48,41,1927282600
14,18,Jits_Linear_8,2,5,56,103,1927363916
14,18,Jits_Linear_8,3,5,80,127,1927393676
14,18,Jits_Linear_8,0,5,56,103,1928064252
14,18,Jits_Linear_8,1,1,48,46,1928065216
14,18,Jits_Linear_8,2,5,63,98,1928163756
14,18,Jits_Linear_8,3,5,80,127,1928194480
14,18,Jits_Linear_8,0,5,63,98,1928874440
14,18,Jits_Linear_8,1,5,56,103,1928883440
14,18,Jits_Linear_8,2,1,48,44,1928930176
14,18,Jits_Linear_8,3,5,80,127,1928973664
14,18,Jits_Linear_8,0,5,63,98,1929674344
14,18,Jits_Linear_8,1,1,48,40,1929686560
14,18,Jits_Linear_8,2,5,56,103,1929754164
14,18,Jits_Linear_8,3,5,80,127,1929757228
14,18,Jits_Linear_8,0,5,80,127,1930413340
14,18,Jits_Linear_8,1,5,63,98,1930434024
14,18,Jits_Linear_8,2,5,56,103,1930494436
14,18,Jits_Linear_8,3,1,48,40,1930519728
14,18,Jits_Linear_8,0,5,56,103,1931233588
14,18,Jits_Linear_8,1,1,48,41,1931250040
14,18,Jits_Linear_8,2,5,63,98,1931254340
14,18,Jits_Linear_8,3,5,80,127,1931257552
14,18,Jits_Linear_8,0,5,63,98,1931953532
14,18,Jits_Linear_8,1,1,48,38,1932033040
14,18,Jits_Linear_8,2,5,80,127,1932034768
14,18,Jits_Linear_8,3,5,56,103,1932043692
14,18,Jits_Linear_8,0,5,63,98,1932754212
14,18,Jits_Linear_8,1,5,56,103,1932773772
14,18,Jits_Linear_8,2,1,48,20,1932794952
14,18,Jits_Linear_8,3,5,80,127,1932824192
14,18,Jits_Linear_8,0,5,80,127,1933533584
14,18,Jits_Linear_8,1,1,48,31,1933549432
14,18,Jits_Linear_8,2,5,63,98,1933573592
14,18,Jits_Linear_8,3,5,56,103,1933593904
14,18,Jits_Linear_8,0,1,48,38,1934299376
14,18,Jits_Linear_8,1,5,56,103,1934343464
14,18,Jits_Linear_8,2,5,63,98,1934354032
14,18,Jits_Linear_8,3,5,80,127,1934374196
14,18,Jits_Linear_8,0,5,56,103,1935044224
14,18,Jits_Linear_8,1,1,48,25,1935059576
14,18,Jits_Linear_8,2,5,63,98,1935134156
14,18,Jits_Linear_8,3,5,80,127,1935193336
14,18,Jits_Linear_8,0,5,80,127,1935843796
14,18,Jits_Linear_8,1,5,56,103,1935854068
14,18,Jits_Linear_8,2,1,48,29,1935858088
14,18,Jits_Linear_8,3,5,63,98,1935923816
14,18,Jits_Linear_8,0,1,48,46,1936606372
14,18,Jits_Linear_8,1,5,63,98,1936643412
14,18,Jits_Linear_8,2,5,80,127,1936733460
14,18,Jits_Linear_8,3,5,56,103,1936743732
14,18,Jits_Linear_8,0,5,63,98,1937343884
14,18,Jits_Linear_8,1,5,80,127,1937393964
14,18,Jits_Linear_8,2,1,48,45,1937415440
14,18,Jits_Linear_8,3,5,56,103,1937453376
14,18,Jits_Linear_8,0,1,48,39,1938131560
14,18,Jits_Linear_8,1,5,56,103,1938134296
14,18,Jits_Linear_8,2,5,80,127,1938183528
14,18,Jits_Linear_8,3,5,63,98,1938204132
14,18,Jits_Linear_8,0,5,56,103,1938863380
14,18,Jits_Linear_8,1,5,80,127,1938923872
14,18,Jits_Linear_8,2,1,48,43,1938929084
14,18,Jits_Linear_8,3,5,63,98,1938993396
14,18,Jits_Linear_8,0,5,56,103,1939624260
14,18,Jits_Linear_8,1,5,80,127,1939654012
14,18,Jits_Linear_8,2,1,48,36,1939659300
14,18,Jits_Linear_8,3,5,63,98,1939683856
14,18,Jits_Linear_8,0,1,48,43,1940376940
14,18,Jits_Linear_8,1,5,56,103,1940424020
14,18,Jits_Linear_8,2,5,80,127,1940443608
14,18,Jits_Linear_8,3,5,63,98,1940503984
14,18,Jits_Linear_8,0,5,80,127,1941263968
14,18,Jits_Linear_8,1,1,48,37,1941266340
14,18,Jits_Linear_8,2,5,56,103,1941273936
14,18,Jits_Linear_8,3,5,63,98,1941284280
14,18,Jits_Linear_8,0,5,56,103,1941974368
14,18,Jits_Linear_8,1,5,80,127,1942014308
14,18,Jits_Linear_8,2,5,63,98,1942043980
14,18,Jits_Linear_8,3,1,48,42,1942059904
14,18,Jits_Linear_8,0,5,56,103,1942694252
14,18,Jits_Linear_8,1,5,63,98,1942724004
14,18,Jits_Linear_8,2,5,80,127,1942763820
14,18,Jits_Linear_8,3,1,48,29,1942807840
14,18,Jits_Linear_8,0,5,80,127,1943393780
14,18,Jits_Linear_8,1,5,63,98,1943443836
14,18,Jits_Linear_8,2,5,56,103,1943464220
14,18,Jits_Linear_8,3,1,48,35,1943498572
14,18,Jits_Linear_8,0,5,56,103,1944173916
14,18,Jits_Linear_8,1,1,48,42,1944179056
14,18,Jits_Linear_8,2,5,80,127,1944243596
14,18,Jits_Linear_8,3,5,63,98,1944303848
14,18,Jits_Linear_8,0,5,80,127,1944914428
14,18,Jits_Linear_8,1,1,48,43,1944999280
14,18,Jits_Linear_8,2,5,63,98,1945004332
14,18,Jits_Linear_8,3,5,56,103,1945023820
14,18,Jits_Linear_8,0,5,63,98,1945673972
14,18,Jits_Linear_8,1,5,56,103,1945693756
14,18,Jits_Linear_8,2,5,80,127,1945733696
14,18,Jits_Linear_8,3,1,48,42,1945783112
14,18,Jits_Linear_8,0,5,80,127,1946373776
14,18,Jits_Linear_8,1,5,63,98,1946393940
14,18,Jits_Linear_8,2,1,48,35,1946456096
14,18,Jits_Linear_8,3,5,56,103,1946473800
14,18,Jits_Linear_8,0,5,63,98,1947103720
14,18,Jits_Linear_8,1,1,48,35,1947153672
14,18,Jits_Linear_8,2,5,56,103,1947214152
14,18,Jits_Linear_8,3,5,80,127,1947217144
14,18,Jits_Linear_8,0,5,63,98,1947864584
14,18,Jits_Linear_8,1,5,56,103,1947873804
14,18,Jits_Linear_8,2,1,48,33,1947875312
14,18,Jits_Linear_8,3,5,80,127,1947877984
14,18,Jits_Linear_8,0,5,56,103,1948584504
14,18,Jits_Linear_8,1,1,48,44,1948585840
14,18,Jits_Linear_8,2,5,80,127,1948704240
14,18,Jits_Linear_8,3,5,63,98,1948744028
14,18,Jits_Linear_8,0,5,56,103,1949333784
14,18,Jits_Linear_8,1,5,80,127,1949413760
14,18,Jits_Linear_8,2,5,63,98,1949434144
14,18,Jits_Linear_8,3,1,48,36,1949454572
14,18,Jits_Linear_8,0,5,56,103,1950063956
14,18,Jits_Linear_8,1,1,48,40,1950163080
14,18,Jits_Linear_8,2,5,63,98,1950173740
14,18,Jits_Linear_8,3,5,80,127,1950177028
14,18,Jits_Linear_8,0,5,56,103,1950823792
14,18,Jits_Linear_8,1,5,80,127,1950853468
14,18,Jits_Linear_8,2,5,63,98,1950874076
14,18,Jits_Linear_8,3,1,48,15,1950908804
14,18,Jits_Linear_8,0,5,63,98,1951533432
14,18,Jits_Linear_8,1,5,56,103,1951543700
14,18,Jits_Linear_8,2,5,80,127,1951554120
14,18,Jits_Linear_8,3,1,48,46,1951589676
14,18,Jits_Linear_8,0,5,80,127,1952244020
14,18,Jits_Linear_8,1,1,48,37,1952288944
14,18,Jits_Linear_8,2,5,56,103,1952294364
14,18,Jits_Linear_8,3,5,63,98,1952334156
14,18,Jits_Linear_8,0,5,80,127,1952984448
14,18,Jits_Linear_8,1,5,63,98,1953004012
14,18,Jits_Linear_8,2,1,48,30,1953023468
14,18,Jits_Linear_8,3,5,56,103,1953054208
14,18,Jits_Linear_8,0,1,48,30,1953712716
14,18,Jits_Linear_8,1,5,80,127,1953714512
14,18,Jits_Linear_8,2,5,56,103,1953744284
14,18,Jits_Linear_8,3,5,63,98,1953813804
14,18,Jits_Linear_8,0,1,48,37,1954464876
14,18,Jits_Linear_8,1,5,56,103,1954483704
14,18,Jits_Linear_8,2,5,80,127,1954493824
14,18,Jits_Linear_8,3,5,63,98,1954533788
14,18,Jits_Linear_8,0,5,56,103,1955114520
14,18,Jits_Linear_8,1,5,63,98,1955133712
14,18,Jits_Linear_8,2,5,80,127,1955203616
14,18,Jits_Linear_8,3,1,48,42,1955223144
14,18,Jits_Linear_8,0,1,48,43,1955852164
14,18,Jits_Linear_8,1,5,63,98,1955853824
14,18,Jits_Linear_8,2,5,80,127,1955913992
14,18,Jits_Linear_8,3,5,56,103,1955933480
14,18,Jits_Linear_8,0,5,80,127,1956564500
14,18,Jits_Linear_8,1,1,48,45,1956593348
14,18,Jits_Linear_8,2,5,56,103,1956595068
14,18,Jits_Linear_8,3,5,63,98,1956623772
14,18,Jits_Linear_8,0,5,56,103,1957273964
14,18,Jits_Linear_8,1,1,48,43,1957284504
14,18,Jits_Linear_8,2,5,63,98,1957334380
14,18,Jits_Linear_8,3,5,80,127,1957393708
14,18,Jits_Linear_8,0,5,80,127,1958004060
14,18,Jits_Linear_8,1,1,48,43,1958008004
14,18,Jits_Linear_8,2,5,56,103,1958023544
14,18,Jits_Linear_8,3,5,63,98,1958094568
14,18,Jits_Linear_8,0,5,80,127,1958713704
14,18,Jits_Linear_8,1,1,48,36,1958726788
14,18,Jits_Linear_8,2,5,63,98,1958734456
14,18,Jits_Linear_8,3,5,56,103,1958763760
14,18,Jits_Linear_8,0,5,80,127,1959403788
14,18,Jits_Linear_8,1,1,48,44,1959415672
14,18,Jits_Linear_8,2,5,63,98,1959424540
14,18,Jits_Linear_8,3,5,56,103,1959483736
14,18,Jits_Linear_8,0,5,80,127,1960104340
14,18,Jits_Linear_8,1,1,48,39,1960133688
14,18,Jits_Linear_8,2,5,56,103,1960203636
14,18,Jits_Linear_8,3,5,63,98,1960234344
14,18,Jits_Linear_8,0,5,63,98,1960793608
14,18,Jits_Linear_8,1,5,80,127,1960843588
14,18,Jits_Linear_8,2,5,56,103,1960864196
14,18,Jits_Linear_8,3,1,48,42,1960909784
14,18,Jits_Linear_8,0,5,80,127,1961533800
14,18,Jits_Linear_8,1,1,48,42,1961548604
14,18,Jits_Linear_8,2,5,56,103,1961563392
14,18,Jits_Linear_8,3,5,63,98,1961566684
14,18,Jits_Linear_8,0,1,48,44,1962261444
14,18,Jits_Linear_8,1,5,63,98,1962263960
14,18,Jits_Linear_8,2,5,56,103,1962303824
14,18,Jits_Linear_8,3,5,80,127,1962324208
14,18,Jits_Linear_8,0,5,80,127,1962904340
14,18,Jits_Linear_8,1,1,48,42,1962950384
14,18,Jits_Linear_8,2,5,63,98,1962984008
14,18,Jits_Linear_8,3,5,56,103,1963023872
14,18,Jits_Linear_8,0,5,63,98,1963613544
14,18,Jits_Linear_8,1,1,48,40,1963661772
14,18,Jits_Linear_8,2,5,80,127,1963693484
14,18,Jits_Linear_8,3,5,56,103,1963713796
14,18,Jits_Linear_8,0,5,56,103,1964343632
14,18,Jits_Linear_8,1,5,63,98,1964354052
14,18,Jits_Linear_8,2,1,48,40,1964376128
14,18,Jits_Linear_8,3,5,80,127,1964393836
14,18,Jits_Linear_8,0,5,56,103,1964953904
14,18,Jits_Linear_8,1,5,80,127,1964956968
14,18,Jits_Linear_8,2,1,48,46,1965041172
14,18,Jits_Linear_8,3,5,63,98,1965094324
14,18,Jits_Linear_8,0,5,56,103,1965644428
14,18,Jits_Linear_8,1,1,48,42,1965731452
14,18,Jits_Linear_8,2,5,63,98,1965734336
14,18,Jits_Linear_8,3,5,80,127,1965804040
14,18,Jits_Linear_8,0,5,63,98,1966404052
14,18,Jits_Linear_8,1,5,80,127,1966407412
14,18,Jits_Linear_8,2,1,48,38,1966408760
14,18,Jits_Linear_8,3,5,56,103,1966464360
14,18,Jits_Linear_8,0,1,48,44,1967106520
14,18,Jits_Linear_8,1,5,80,127,1967123932
14,18,Jits_Linear_8,2,5,56,103,1967144244
14,18,Jits_Linear_8,3,5,63,98,1967153392
14,18,Jits_Linear_8,0,5,56,103,1967713520
14,18,Jits_Linear_8,1,5,63,98,1967724016
14,18,Jits_Linear_8,2,5,80,127,1967793400
14,18,Jits_Linear_8,3,1,48,43,1967813524
14,18,Jits_Linear_8,0,5,80,127,1968393568
14,18,Jits_Linear_8,1,1,48,40,1968415792
14,18,Jits_Linear_8,2,5,56,103,1968443688
14,18,Jits_Linear_8,3,5,63,98,1968494188
14,18,Jits_Linear_8,0,1,48,38,1969079916
14,18,Jits_Linear_8,1,5,56,103,1969154524
14,18,Jits_Linear_8,2,5,63,98,1969163600
14,18,Jits_Linear_8,3,5,80,127,1969203524
14,18,Jits_Linear_8,0,5,56,103,1969774160
14,18,Jits_Linear_8,1,1,48,37,1969776604
14,18,Jits_Linear_8,2,5,63,98,1969814092
14,18,Jits_Linear_8,3,5,80,127,1969864148
14,18,Jits_Linear_8,0,5,80,127,1970403640
14,18,Jits_Linear_8,1,1,48,40,1970438376
14,18,Jits_Linear_8,2,5,56,103,1970454060
14,18,Jits_Linear_8,3,5,63,98,1970474372
14,18,Jits_Linear_8,0,5,80,127,1971083516
14,18,Jits_Linear_8,1,1,48,38,1971113012
14,18,Jits_Linear_8,2,5,63,98,1971143976
14,18,Jits_Linear_8,3,5,56,103,1971224076
14,18,Jits_Linear_8,0,5,80,127,1971734044
14,18,Jits_Linear_8,1,5,56,103,1971773908
14,18,Jits_Linear_8,2,5,63,98,1971794144
14,18,Jits_Linear_8,3,1,48,41,1971819808
14,18,Jits_Linear_8,0,5,56,103,1972453720
14,18,Jits_Linear_8,1,5,80,127,1972463916
14,18,Jits_Linear_8,2,1,48,41,1972473260
14,18,Jits_Linear_8,3,5,63,98,1972503996
14,18,Jits_Linear_8,0,1,48,43,1973164880
14,18,Jits_Linear_8,1,5,56,103,1973183788
14,18,Jits_Linear_8,2,5,63,98,1973223976
14,18,Jits_Linear_8,3,5,80,127,1973227336
14,18,Jits_Linear_8,0,5,63,98,1973733688
14,18,Jits_Linear_8,1,5,80,127,1973773628
14,18,Jits_Linear_8,2,5,56,103,1973844204
14,18,Jits_Linear_8,3,1,48,23,1973879456
14,18,Jits_Linear_8,0,5,63,98,1974383948
14,18,Jits_Linear_8,1,5,56,103,1974464044
14,18,Jits_Linear_8,2,5,80,127,1974524236
14,18,Jits_Linear_8,3,1,48,29,1974546908
14,18,Jits_Linear_8,0,5,80,127,1975053792
14,18,Jits_Linear_8,1,5,63,98,1975104072
14,18,Jits_Linear_8,2,5,56,103,1975133896
14,18,Jits_Linear_8,3,1,48,36,1975138812
14,18,Jits_Linear_8,0,5,56,103,1975703992
14,18,Jits_Linear_8,1,5,63,98,1975754272
14,18,Jits_Linear_8,2,5,80,127,1975764272
14,18,Jits_Linear_8,3,1,48,34,1975808960
14,18,Jits_Linear_8,0,5,56,103,1976373628
14,18,Jits_Linear_8,1,1,48,32,1976451304
14,18,Jits_Linear_8,2,5,63,98,1976484064
14,18,Jits_Linear_8,3,5,80,127,1976503772
14,18,Jits_Linear_8,0,5,63,98,1977024060
14,18,Jits_Linear_8,1,5,80,127,1977074064
14,18,Jits_Linear_8,2,1,48,38,1977119060
14,18,Jits_Linear_8,3,5,56,103,1977164116
14,18,Jits_Linear_8,0,5,63,98,1977664012
14,18,Jits_Linear_8,1,5,80,127,1977693836
14,18,Jits_Linear_8,2,1,48,37,1977710884
14,18,Jits_Linear_8,3,5,56,103,1977783664
14,18,Jits_Linear_8,0,5,63,98,1978314048
14,18,Jits_Linear_8,1,1,48,43,1978320932
14,18,Jits_Linear_8,2,5,56,103,1978324336
14,18,Jits_Linear_8,3,5,80,127,1978423744
14,18,Jits_Linear_8,0,1,48,44,1978980320
14,18,Jits_Linear_8,1,5,63,98,1979063824
14,18,Jits_Linear_8,2,5,80,127,1979094408
14,18,Jits_Linear_8,3,5,56,103,1979123936
14,18,Jits_Linear_8,0,1,48,42,1979722728
14,18,Jits_Linear_8,1,5,80,127,1979724460
14,18,Jits_Linear_8,2,5,63,98,1979734436
14,18,Jits_Linear_8,3,5,56,103,1979764112
14,18,Jits_Linear_8,0,5,80,127,1980263784
14,18,Jits_Linear_8,1,5,63,98,1980284244
14,18,Jits_Linear_8,2,5,56,103,1980333548
14,18,Jits_Linear_8,3,1,48,27,1980480968
14,18,Jits_Linear_8,0,5,63,98,1980933492
14,18,Jits_Linear_8,1,5,80,127,1980993884
14,18,Jits_Linear_8,2,5,56,103,1981014272
14,18,Jits_Linear_8,3,1,48,29,1981051688
14,18,Jits_Linear_8,0,5,63,98,1981533488
14,18,Jits_Linear_8,1,5,56,103,1981583768
14,18,Jits_Linear_8,2,5,80,127,1981593888
14,18,Jits_Linear_8,3,1,48,40,1981617760
14,18,Jits_Linear_8,0,1,48,42,1982177892
14,18,Jits_Linear_8,1,5,56,103,1982204148
14,18,Jits_Linear_8,2,5,80,127,1982213668
14,18,Jits_Linear_8,3,5,63,98,1982313828
14,18,Jits_Linear_8,0,5,80,127,1982804296
14,18,Jits_Linear_8,1,5,63,98,1982813668
14,18,Jits_Linear_8,2,1,48,35,1982961864
14,18,Jits_Linear_8,3,5,56,103,1982963980
14,18,Jits_Linear_8,0,5,63,98,1983444632
14,18,Jits_Linear_8,1,5,80,127,1983484348
14,18,Jits_Linear_8,2,1,48,29,1983558260
14,18,Jits_Linear_8,3,5,56,103,1983564212
14,18,Jits_Linear_8,0,5,56,103,1984063880
14,18,Jits_Linear_8,1,1,48,35,1984138252
14,18,Jits_Linear_8,2,5,80,127,1984164124
14,18,Jits_Linear_8,3,5,63,98,1984183760
14,18,Jits_Linear_8,0,1,48,27,1984750928
14,18,Jits_Linear_8,1,5,80,127,1984754108
14,18,Jits_Linear_8,2,5,56,103,1984764304
14,18,Jits_Linear_8,3,5,63,98,1984854348
14,18,Jits_Linear_8,0,5,56,103,1985383932
14,18,Jits_Linear_8,1,5,63,98,1985404168
14,18,Jits_Linear_8,2,1,48,36,1985433664
14,18,Jits_Linear_8,3,5,80,127,1985484180
14,18,Jits_Linear_8,0,5,63,98,1985954116
14,18,Jits_Linear_8,1,5,56,103,1986044276
14,18,Jits_Linear_8,2,5,80,127,1986047640
14,18,Jits_Linear_8,3,1,48,29,1986050092
14,18,Jits_Linear_8,0,5,56,103,1986604624
14,18,Jits_Linear_8,1,1,48,28,1986642144
14,18,Jits_Linear_8,2,5,80,127,1986663664
14,18,Jits_Linear_8,3,5,63,98,1986674088
14,18,Jits_Linear_8,0,1,48,27,1987249996
14,18,Jits_Linear_8,1,5,80,127,1987274084
14,18,Jits_Linear_8,2,5,56,103,1987284680
14,18,Jits_Linear_8,3,5,63,98,1987287592
14,18,Jits_Linear_8,0,5,56,103,1987853724
14,18,Jits_Linear_8,1,1,48,32,1987858564
14,18,Jits_Linear_8,2,5,80,127,1987863988
14,18,Jits_Linear_8,3,5,63,98,1987884816
14,18,Jits_Linear_8,0,1,48,38,1988442184
14,18,Jits_Linear_8,1,5,63,98,1988443828
14,18,Jits_Linear_8,2,5,80,127,1988503848
14,18,Jits_Linear_8,3,5,56,103,1988554036
14,18,Jits_Linear_8,0,5,63,98,1989143948
14,18,Jits_Linear_8,1,1,48,34,1989153544
14,18,Jits_Linear_8,2,5,56,103,1989155336
14,18,Jits_Linear_8,3,5,80,127,1989204416
14,18,Jits_Linear_8,0,5,63,98,1989653820
14,18,Jits_Linear_8,1,5,80,127,1989674576
14,18,Jits_Linear_8,2,5,56,103,1989683724
14,18,Jits_Linear_8,3,1,48,30,1989743636
14,18,Jits_Linear_8,0,5,63,98,1990264216
14,18,Jits_Linear_8,1,5,80,127,1990267652
14,18,Jits_Linear_8,2,5,56,103,1990304228
14,18,Jits_Linear_8,3,1,48,28,1990310560
14,18,Jits_Linear_8,0,1,48,39,1990880436
14,18,Jits_Linear_8,1,5,63,98,1990944156
14,18,Jits_Linear_8,2,5,80,127,1990973760
14,18,Jits_Linear_8,3,5,56,103,1990984016
14,18,Jits_Linear_8,0,1,48,38,1991496100
14,18,Jits_Linear_8,1,5,56,103,1991504440
14,18,Jits_Linear_8,2,5,80,127,1991533896
14,18,Jits_Linear_8,3,5,63,98,1991563720
14,18,Jits_Linear_8,0,1,48,32,1992086052
14,18,Jits_Linear_8,1,5,63,98,1992203648
14,18,Jits_Linear_8,2,5,56,103,1992243512
14,18,Jits_Linear_8,3,5,80,127,1992246728
14,18,Jits_Linear_8,0,5,80,127,1992704464
14,18,Jits_Linear_8,1,5,56,103,1992784336
14,18,Jits_Linear_8,2,1,48,21,1992795552
14,18,Jits_Linear_8,3,5,63,98,1992834532
14,18,Jits_Linear_8,0,5,80,127,1993284092
14,18,Jits_Linear_8,1,5,56,103,1993304404
14,18,Jits_Linear_8,2,5,63,98,1993393640
14,18,Jits_Linear_8,3,1,48,39,1993416460
14,18,Jits_Linear_8,0,5,80,127,1993923808
14,18,Jits_Linear_8,1,5,63,98,1993963772
14,18,Jits_Linear_8,2,1,48,32,1993998800
14,18,Jits_Linear_8,3,5,56,103,1994003852
14,18,Jits_Linear_8,0,5,63,98,1994494768
14,18,Jits_Linear_8,1,5,80,127,1994553668
14,18,Jits_Linear_8,2,5,56,103,1994584464
14,18,Jits_Linear_8,3,1,48,37,1994619492
14,18,Jits_Linear_8,0,5,56,103,1995094540
14,18,Jits_Linear_8,1,5,80,127,1995124140
14,18,Jits_Linear_8,2,1,48,34,1995160820
14,18,Jits_Linear_8,3,5,63,98,1995214216
14,18,Jits_Linear_8,0,5,56,103,1995693500
14,18,Jits_Linear_8,1,1,48,33,1995783560
14,18,Jits_Linear_8,2,5,80,127,1995803960
14,18,Jits_Linear_8,3,5,63,98,1995833712
14,18,Jits_Linear_8,0,5,56,103,1996333328
14,18,Jits_Linear_8,1,1,48,37,1996388812
14,18,Jits_Linear_8,2,5,63,98,1996393792
14,18,Jits_Linear_8,3,5,80,127,1996423540
14,18,Jits_Linear_8,0,5,56,103,1996893564
14,18,Jits_Linear_8,1,5,63,98,1996964368
14,18,Jits_Linear_8,2,1,48,18,1996972516
14,18,Jits_Linear_8,3,5,80,127,1996983624
14,18,Jits_Linear_8,0,5,80,127,1997453568
14,18,Jits_Linear_8,1,5,63,98,1997474252
14,18,Jits_Linear_8,2,5,56,103,1997524476
14,18,Jits_Linear_8,3,1,48,26,1997557556
14,18,Jits_Linear_8,0,5,63,98,1998053744
14,18,Jits_Linear_8,1,5,80,127,1998064016
14,18,Jits_Linear_8,2,1,48,36,1998085196
14,18,Jits_Linear_8,3,5,56,103,1998114212
14,18,Jits_Linear_8,0,1,48,38,1998627856
14,18,Jits_Linear_8,1,5,63,98,1998634552
14,18,Jits_Linear_8,2,5,80,127,1998703940
14,18,Jits_Linear_8,3,5,56,103,1998723572
14,18,Jits_Linear_8,0,1,48,38,1999224188
14,18,Jits_Linear_8,1,5,63,98,1999243536
14,18,Jits_Linear_8,2,5,80,127,1999247052
14,18,Jits_Linear_8,3,5,56,103,1999314292
14,18,Jits_Linear_8,0,5,80,127,1999774156
14,18,Jits_Linear_8,1,5,56,103,1999793492
14,18,Jits_Linear_8,2,5,63,98,1999803616
14,18,Jits_Linear_8,3,1,48,38,1999806732
14,18,Jits_Linear_8,0,5,56,103,2000374184
14,18,Jits_Linear_8,1,1,48,35,2000410036
14,18,Jits_Linear_8,2,5,63,98,2000464460
14,18,Jits_Linear_8,3,5,80,127,2000467748
14,18,Jits_Linear_8,0,5,80,127,2000923988
14,18,Jits_Linear_8,1,5,56,103,2000934408
14,18,Jits_Linear_8,2,5,63,98,2000953672
14,18,Jits_Linear_8,3,1,48,41,2001048480
14,18,Jits_Linear_8,0,5,63,98,2001494320
14,18,Jits_Linear_8,1,5,80,127,2001553668
14,18,Jits_Linear_8,2,5,56,103,2001564236
14,18,Jits_Linear_8,3,1,48,29,2001698400
14,18,Jits_Linear_8,0,5,63,98,2002134424
14,18,Jits_Linear_8,1,5,80,127,2002164176
14,18,Jits_Linear_8,2,5,56,103,2002203964
14,18,Jits_Linear_8,3,1,48,26,2002242448
14,18,Jits_Linear_8,0,5,56,103,2002693516
14,18,Jits_Linear_8,1,5,80,127,2002703640
14,18,Jits_Linear_8,2,5,63,98,2002743728
14,18,Jits_Linear_8,3,1,48,30,2002826404
14,18,Jits_Linear_8,0,5,80,127,2003223852
14,18,Jits_Linear_8,1,5,56,103,2003303724
14,18,Jits_Linear_8,2,5,63,98,2003314292
14,18,Jits_Linear_8,3,1,48,32,2003410696
14,18,Jits_Linear_8,0,5,80,127,2003834204
14,18,Jits_Linear_8,1,5,56,103,2003914300
14,18,Jits_Linear_8,2,5,63,98,2003924372
14,18,Jits_Linear_8,3,1,48,26,2003988992
14,18,Jits_Linear_8,0,5,80,127,2004354432
14,18,Jits_Linear_8,1,5,56,103,2004403660
14,18,Jits_Linear_8,2,5,63,98,2004453740
14,18,Jits_Linear_8,3,1,48,35,2004547128
14,18,Jits_Linear_8,0,5,56,103,2004973868
14,18,Jits_Linear_8,1,5,63,98,2004977156
14,18,Jits_Linear_8,2,5,80,127,2005024216
14,18,Jits_Linear_8,3,1,48,27,2005041656
14,18,Jits_Linear_8,0,5,56,103,2005553500
14,18,Jits_Linear_8,1,5,63,98,2005584300
14,18,Jits_Linear_8,2,1,48,29,2005592692
14,18,Jits_Linear_8,3,5,80,127,2005594340
14,18,Jits_Linear_8,4,1,48,19,2005653712
14,18,Jits_Linear_8,0,5,63,98,2006023576
14,18,Jits_Linear_8,1,5,56,103,2006094232
14,18,Jits_Linear_8,2,5,80,127,2006144436
14,18,Jits_Linear_8,3,1,48,31,2006145400
14,18,Jits_Linear_8,0,5,63,98,2006614508
14,18,Jits_Linear_8,1,1,48,26,2006620020
14,18,Jits_Linear_8,2,5,56,103,2006623724
14,18,Jits_Linear_8,3,5,80,127,2006626792
14,18,Jits_Linear_8,0,5,80,127,2007114324
14,18,Jits_Linear_8,1,1,48,35,2007165248
14,18,Jits_Linear_8,2,5,56,103,2007173516
14,18,Jits_Linear_8,3,5,63,98,2007264780
14,18,Jits_Linear_8,0,5,80,127,2007674328
14,18,Jits_Linear_8,1,1,48,27,2007755516
14,18,Jits_Linear_8,2,5,56,103,2007773552
14,18,Jits_Linear_8,3,5,63,98,2007813412
14,18,Jits_Linear_8,0,5,56,103,2008274292
14,18,Jits_Linear_8,1,1,48,34,2008284904
14,18,Jits_Linear_8,2,5,63,98,2008294072
14,18,Jits_Linear_8,3,5,80,127,2008334008
14,18,Jits_Linear_8,0,5,63,98,2008803876
14,18,Jits_Linear_8,1,1,48,33,2008808412
14,18,Jits_Linear_8,2,5,56,103,2008824028
14,18,Jits_Linear_8,3,5,80,127,2008923364
14,18,Jits_Linear_8,0,1,48,34,2009326140
14,18,Jits_Linear_8,1,5,63,98,2009334260
14,18,Jits_Linear_8,2,5,80,127,2009443636
14,18,Jits_Linear_8,3,5,56,103,2009474360
14,18,Jits_Linear_8,0,5,56,103,2009894332
14,18,Jits_Linear_8,1,5,63,98,2009924308
14,18,Jits_Linear_8,2,1,48,26,2009940904
14,18,Jits_Linear_8,3,5,80,127,2009974204
14,18,Jits_Linear_8,0,5,63,98,2010404140
14,18,Jits_Linear_8,1,5,56,103,2010433892
14,18,Jits_Linear_8,2,5,80,127,2010484092
14,18,Jits_Linear_8,3,1,48,27,2010503920
14,18,Jits_Linear_8,0,1,48,33,2010979744
14,18,Jits_Linear_8,1,5,56,103,2010983896
14,18,Jits_Linear_8,2,5,63,98,2011004208
14,18,Jits_Linear_8,3,5,80,127,2011084284
14,18,Jits_Linear_8,0,5,63,98,2011494040
14,18,Jits_Linear_8,1,1,48,32,2011518884
14,18,Jits_Linear_8,2,5,56,103,2011554204
14,18,Jits_Linear_8,3,5,80,127,2011583956
14,18,Jits_Linear_8,0,1,48,27,2012036080
14,18,Jits_Linear_8,1,5,56,103,2012074324
14,18,Jits_Linear_8,2,5,80,127,2012133920
14,18,Jits_Linear_8,3,5,63,98,2012173692
14,18,Jits_Linear_8,0,5,63,98,2012584204
14,18,Jits_Linear_8,1,5,56,103,2012643572
14,18,Jits_Linear_8,2,1,48,27,2012656732
14,18,Jits_Linear_8,3,5,80,127,2012714368
14,18,Jits_Linear_8,0,5,56,103,2013193520
14,18,Jits_Linear_8,1,1,48,29,2013202720
14,18,Jits_Linear_8,2,5,63,98,2013204544
14,18,Jits_Linear_8,3,5,80,127,2013207672
14,18,Jits_Linear_8,0,5,63,98,2013663540
14,18,Jits_Linear_8,1,5,56,103,2013724076
14,18,Jits_Linear_8,2,5,80,127,2013727144
14,18,Jits_Linear_8,3,1,48,36,2013737012
14,18,Jits_Linear_8,0,5,63,98,2014173696
14,18,Jits_Linear_8,1,5,80,127,2014204272
14,18,Jits_Linear_8,2,5,56,103,2014223904
14,18,Jits_Linear_8,3,1,48,34,2014254068
14,18,Jits_Linear_8,0,5,56,103,2014704236
14,18,Jits_Linear_8,1,1,48,34,2014725268
14,18,Jits_Linear_8,2,5,63,98,2014754136
14,18,Jits_Linear_8,3,5,80,127,2014834064
14,18,Jits_Linear_8,0,5,80,127,2015203636
14,18,Jits_Linear_8,1,1,48,33,2015234180
14,18,Jits_Linear_8,2,5,63,98,2015243716
14,18,Jits_Linear_8,3,5,56,103,2015264100
14,18,Jits_Linear_8,0,1,48,33,2015750632
14,18,Jits_Linear_8,1,5,56,103,2015793376
14,18,Jits_Linear_8,2,5,80,127,2015803944
14,18,Jits_Linear_8,3,5,63,98,2015824328
14,18,Jits_Linear_8,0,5,56,103,2016294256
14,18,Jits_Linear_8,1,1,48,28,2016344008
14,18,Jits_Linear_8,2,5,63,98,2016345800
14,18,Jits_Linear_8,3,5,80,127,2016373980
14,18,Jits_Linear_8,0,5,56,103,2016764356
14,18,Jits_Linear_8,1,5,63,98,2016773508
14,18,Jits_Linear_8,2,5,80,127,2016823932
14,18,Jits_Linear_8,3,1,48,32,2016887428
14,18,Jits_Linear_8,0,5,56,103,2017274304
14,18,Jits_Linear_8,1,5,80,127,2017277444
14,18,Jits_Linear_8,2,1,48,30,2017395420
14,18,Jits_Linear_8,3,5,63,98,2017433956
14,18,Jits_Linear_8,0,5,63,98,2017803884
14,18,Jits_Linear_8,1,5,56,103,2017874168
14,18,Jits_Linear_8,2,5,80,127,2017914180
14,18,Jits_Linear_8,3,1,48,27,2017960072
14,18,Jits_Linear_8,0,5,63,98,2018353464
14,18,Jits_Linear_8,1,5,56,103,2018443896
14,18,Jits_Linear_8,2,5,80,127,2018446888
14,18,Jits_Linear_8,3,1,48,22,2018461316
14,18,Jits_Linear_8,0,5,56,103,2018843920
14,18,Jits_Linear_8,1,5,63,98,2018934208
14,18,Jits_Linear_8,2,1,48,23,2018937028
14,18,Jits_Linear_8,3,5,80,127,2018944248
14,18,Jits_Linear_8,0,5,56,103,2019324360
14,18,Jits_Linear_8,1,5,63,98,2019373368
14,18,Jits_Linear_8,2,5,80,127,2019404236
14,18,Jits_Linear_8,3,1,48,32,2019463772
14,18,Jits_Linear_8,0,5,63,98,2019903772
14,18,Jits_Linear_8,1,5,80,127,2019914044
14,18,Jits_Linear_8,2,1,48,27,2019948624
14,18,Jits_Linear_8,3,5,56,103,2019973600
14,18,Jits_Linear_8,0,5,63,98,2020323960
14,18,Jits_Linear_8,1,5,80,127,2020384128
14,18,Jits_Linear_8,2,5,56,103,2020423992
14,18,Jits_Linear_8,3,1,48,19,2020442548
14,18,Jits_Linear_8,0,1,48,21,2020915684
14,18,Jits_Linear_8,1,5,56,103,2020924100
14,18,Jits_Linear_8,2,5,80,127,2020944188
14,18,Jits_Linear_8,3,5,63,98,2020964048
14,18,Jits_Linear_8,0,5,63,98,2021343552
14,18,Jits_Linear_8,1,5,56,103,2021363936
14,18,Jits_Linear_8,2,5,80,127,2021403948
14,18,Jits_Linear_8,0,1,48,27,2021780404
14,18,Jits_Linear_8,1,5,63,98,2021853816
14,18,Jits_Linear_8,2,5,80,127,2021884300
14,18,Jits_Linear_8,3,5,56,103,2021903860
14,18,Jits_Linear_8,0,1,48,29,2022284592
14,18,Jits_Linear_8,1,5,80,127,2022323724
14,18,Jits_Linear_8,2,5,56,103,2022373728
14,18,Jits_Linear_8,3,5,63,98,2022434104
14,18,Jits_Linear_8,0,1,48,30,2022772884
14,18,Jits_Linear_8,1,5,63,98,2022803848
14,18,Jits_Linear_8,2,1,48,20,2022838264
14,18,Jits_Linear_8,3,5,56,103,2022923732
14,18,Jits_Linear_8,4,5,80,127,2022954440
14,18,Jits_Linear_8,0,1,48,21,2023281284
14,18,Jits_Linear_8,1,5,80,127,2023334368
14,18,Jits_Linear_8,2,5,63,98,2023353708
14,18,Jits_Linear_8,3,5,56,103,2023424296
14,18,Jits_Linear_8,0,1,48,32,2023807940
14,18,Jits_Linear_8,1,5,63,98,2023844164
14,18,Jits_Linear_8,2,5,56,103,2023853612
14,18,Jits_Linear_8,3,5,80,127,2023934316
14,18,Jits_Linear_8,0,1,48,27,2024309276
14,18,Jits_Linear_8,1,5,56,103,2024394120
14,18,Jits_Linear_8,2,5,80,127,2024423732
14,18,Jits_Linear_8,3,5,63,98,2024433928
14,18,Jits_Linear_8,0,9999,9999,9999,1914001468
14,18,Jits_Linear_8,1,9999,9999,9999,1914821684
14,18,Jits_Linear_8,2,9999,9999,9999,1915641916
14,18,Jits_Linear_8,3,9999,9999,9999,1916461148
14,18,Jits_Linear_8,4,9999,9999,9999,1917281368
14,18,Jits_Linear_8,5,9999,9999,9999,1918091388
14,18,Jits_Linear_8,6,9999,9999,9999,1918901344
14,18,Jits_Linear_8,7,9999,9999,9999,1919711332
14,18,Jits_Linear_8,8,9999,9999,9999,1920521292
14,18,Jits_Linear_8,9,9999,9999,9999,1921331300
14,18,Jits_Linear_8,10,9999,9999,9999,1922132044
14,18,Jits_Linear_8,11,9999,9999,9999,1922931796
14,18,Jits_Linear_8,12,9999,9999,9999,1923731568
14,18,Jits_Linear_8,13,9999,9999,9999,1924531260
14,18,Jits_Linear_8,14,9999,9999,9999,1925332024
14,18,Jits_Linear_8,15,9999,9999,9999,1926121528
14,18,Jits_Linear_8,16,9999,9999,9999,1926912124
14,18,Jits_Linear_8,17,9999,9999,9999,1927711824
14,18,Jits_Linear_8,18,9999,9999,9999,1928501316
14,18,Jits_Linear_8,19,9999,9999,9999,1929291872
14,18,Jits_Linear_8,20,9999,9999,9999,1930071100
14,18,Jits_Linear_8,21,9999,9999,9999,1930851448
14,18,Jits_Linear_8,22,9999,9999,9999,1931631728
14,18,Jits_Linear_8,23,9999,9999,9999,1932412020
14,18,Jits_Linear_8,24,9999,9999,9999,1933191244
14,18,Jits_Linear_8,25,9999,9999,9999,1933961328
14,18,Jits_Linear_8,26,9999,9999,9999,1934731360
14,18,Jits_Linear_8,27,9999,9999,9999,1935501368
14,18,Jits_Linear_8,28,9999,9999,9999,1936271468
14,18,Jits_Linear_8,29,9999,9999,9999,1937041504
14,18,Jits_Linear_8,30,9999,9999,9999,1937801324
14,18,Jits_Linear_8,31,9999,9999,9999,1938561148
14,18,Jits_Linear_8,32,9999,9999,9999,1939321940
14,18,Jits_Linear_8,33,9999,9999,9999,1940081772
14,18,Jits_Linear_8,34,9999,9999,9999,1940841536
14,18,Jits_Linear_8,35,9999,9999,9999,1941591108
14,18,Jits_Linear_8,36,9999,9999,9999,1942341732
14,18,Jits_Linear_8,37,9999,9999,9999,1943091312
14,18,Jits_Linear_8,38,9999,9999,9999,1943841852
14,18,Jits_Linear_8,39,9999,9999,9999,1944591432
14,18,Jits_Linear_8,40,9999,9999,9999,1945331792
14,18,Jits_Linear_8,41,9999,9999,9999,1946071100
14,18,Jits_Linear_8,42,9999,9999,9999,1946811488
14,18,Jits_Linear_8,43,9999,9999,9999,1947551836
14,18,Jits_Linear_8,44,9999,9999,9999,1948291192
14,18,Jits_Linear_8,45,9999,9999,9999,1949021276
14,18,Jits_Linear_8,46,9999,9999,9999,1949751372
14,18,Jits_Linear_8,47,9999,9999,9999,1950481536
14,18,Jits_Linear_8,48,9999,9999,9999,1951211632
14,18,Jits_Linear_8,49,9999,9999,9999,1951941692
14,18,Jits_Linear_8,50,9999,9999,9999,1952661580
14,18,Jits_Linear_8,51,9999,9999,9999,1953381484
14,18,Jits_Linear_8,52,9999,9999,9999,1954101312
14,18,Jits_Linear_8,53,9999,9999,9999,1954821208
14,18,Jits_Linear_8,54,9999,9999,9999,1955542140
14,18,Jits_Linear_8,55,9999,9999,9999,1956261948
14,18,Jits_Linear_8,56,9999,9999,9999,1956971648
14,18,Jits_Linear_8,57,9999,9999,9999,1957681216
14,18,Jits_Linear_8,58,9999,9999,9999,1958391904
14,18,Jits_Linear_8,59,9999,9999,9999,1959101520
14,18,Jits_Linear_8,60,9999,9999,9999,1959801944
14,18,Jits_Linear_8,61,9999,9999,9999,1960501328
14,18,Jits_Linear_8,62,9999,9999,9999,1961201752
14,18,Jits_Linear_8,63,9999,9999,9999,1961901156
14,18,Jits_Linear_8,64,9999,9999,9999,1962601592
14,18,Jits_Linear_8,65,9999,9999,9999,1963291740
14,18,Jits_Linear_8,66,9999,9999,9999,1963981884
14,18,Jits_Linear_8,67,9999,9999,9999,1964672116
14,18,Jits_Linear_8,68,9999,9999,9999,1965371484
14,18,Jits_Linear_8,69,9999,9999,9999,1966061644
14,18,Jits_Linear_8,70,9999,9999,9999,1966741592
14,18,Jits_Linear_8,71,9999,9999,9999,1967421556
14,18,Jits_Linear_8,72,9999,9999,9999,1968101436
14,18,Jits_Linear_8,73,9999,9999,9999,1968781384
14,18,Jits_Linear_8,74,9999,9999,9999,1969461368
14,18,Jits_Linear_8,75,9999,9999,9999,1970132040
14,18,Jits_Linear_8,76,9999,9999,9999,1970801720
14,18,Jits_Linear_8,77,9999,9999,9999,1971471432
14,18,Jits_Linear_8,78,9999,9999,9999,1972141116
14,18,Jits_Linear_8,79,9999,9999,9999,1972811868
14,18,Jits_Linear_8,80,9999,9999,9999,1973471316
14,18,Jits_Linear_8,81,9999,9999,9999,1974131768
14,18,Jits_Linear_8,82,9999,9999,9999,1974791272
14,18,Jits_Linear_8,83,9999,9999,9999,1975451724
14,18,Jits_Linear_8,84,9999,9999,9999,1976111164
14,18,Jits_Linear_8,85,9999,9999,9999,1976761452
14,18,Jits_Linear_8,86,9999,9999,9999,1977411684
14,18,Jits_Linear_8,87,9999,9999,9999,1978061892
14,18,Jits_Linear_8,88,9999,9999,9999,1978711104
14,18,Jits_Linear_8,89,9999,9999,9999,1979361400
14,18,Jits_Linear_8,90,9999,9999,9999,1980001340
14,18,Jits_Linear_8,91,9999,9999,9999,1980641364
14,18,Jits_Linear_8,92,9999,9999,9999,1981281384
14,18,Jits_Linear_8,93,9999,9999,9999,1981921404
14,18,Jits_Linear_8,94,9999,9999,9999,1982561404
14,18,Jits_Linear_8,95,9999,9999,9999,1983191096
14,18,Jits_Linear_8,96,9999,9999,9999,1983821892
14,18,Jits_Linear_8,97,9999,9999,9999,1984451704
14,18,Jits_Linear_8,98,9999,9999,9999,1985081404
14,18,Jits_Linear_8,99,9999,9999,9999,1985711212
14,18,Jits_Linear_8,100,9999,9999,9999,1986331768
14,18,Jits_Linear_8,101,9999,9999,9999,1986951244
14,18,Jits_Linear_8,102,9999,9999,9999,1987571796
14,18,Jits_Linear_8,103,9999,9999,9999,1988191344
14,18,Jits_Linear_8,104,9999,9999,9999,1988811880
14,18,Jits_Linear_8,105,9999,9999,9999,1989421120
14,18,Jits_Linear_8,106,9999,9999,9999,1990031440
14,18,Jits_Linear_8,107,9999,9999,9999,1990641784
14,18,Jits_Linear_8,108,9999,9999,9999,1991252044
14,18,Jits_Linear_8,109,9999,9999,9999,1991861328
14,18,Jits_Linear_8,110,9999,9999,9999,1992461424
14,18,Jits_Linear_8,111,9999,9999,9999,1993061496
14,18,Jits_Linear_8,112,9999,9999,9999,1993661500
14,18,Jits_Linear_8,113,9999,9999,9999,1994261608
14,18,Jits_Linear_8,114,9999,9999,9999,1994861688
14,18,Jits_Linear_8,115,9999,9999,9999,1995451496
14,18,Jits_Linear_8,116,9999,9999,9999,1996041272
14,18,Jits_Linear_8,117,9999,9999,9999,1996631104
14,18,Jits_Linear_8,118,9999,9999,9999,1997221976
14,18,Jits_Linear_8,119,9999,9999,9999,1997811816
14,18,Jits_Linear_8,120,9999,9999,9999,1998391372
14,18,Jits_Linear_8,121,9999,9999,9999,1998971964
14,18,Jits_Linear_8,122,9999,9999,9999,1999551572
14,18,Jits_Linear_8,123,9999,9999,9999,2000131132
14,18,Jits_Linear_8,124,9999,9999,9999,2000711804
14,18,Jits_Linear_8,125,9999,9999,9999,2001281088
14,18,Jits_Linear_8,126,9999,9999,9999,2001851500
14,18,Jits_Linear_8,127,9999,9999,9999,2002421856
14,18,Jits_Linear_8,128,9999,9999,9999,2002991212
14,18,Jits_Linear_8,129,9999,9999,9999,2003561552
14,18,Jits_Linear_8,130,9999,9999,9999,2004121716
14,18,Jits_Linear_8,131,9999,9999,9999,2004681796
14,18,Jits_Linear_8,132,9999,9999,9999,2005241964
14,18,Jits_Linear_8,133,9999,9999,9999,2005802104
14,18,Jits_Linear_8,134,9999,9999,9999,2006361208
14,18,Jits_Linear_8,135,9999,9999,9999,2006912120
14,18,Jits_Linear_8,136,9999,9999,9999,2007471208
14,18,Jits_Linear_8,137,9999,9999,9999,2008022096
14,18,Jits_Linear_8,138,9999,9999,9999,2008581204
14,18,Jits_Linear_8,139,9999,9999,9999,2009131088
14,18,Jits_Linear_8,140,9999,9999,9999,2009671748
14,18,Jits_Linear_8,141,9999,9999,9999,2010211436
14,18,Jits_Linear_8,142,9999,9999,9999,2010752100
14,18,Jits_Linear_8,143,9999,9999,9999,2011301952
14,18,Jits_Linear_8,144,9999,9999,9999,2011841632
14,18,Jits_Linear_8,145,9999,9999,9999,2012372052
14,18,Jits_Linear_8,146,9999,9999,9999,2012901480
14,18,Jits_Linear_8,147,9999,9999,9999,2013431868
14,18,Jits_Linear_8,148,9999,9999,9999,2013961296
14,18,Jits_Linear_8,149,9999,9999,9999,2014491764
14,18,Jits_Linear_8,150,9999,9999,9999,2015011900
14,18,Jits_Linear_8,151,9999,9999,9999,2015531068
14,18,Jits_Linear_8,152,9999,9999,9999,2016051296
14,18,Jits_Linear_8,153,9999,9999,9999,2016571504
14,18,Jits_Linear_8,154,9999,9999,9999,2017091644
14,18,Jits_Linear_8,155,9999,9999,9999,2017601664
14,18,Jits_Linear_8,156,9999,9999,9999,2018111548
14,18,Jits_Linear_8,157,9999,9999,9999,2018621560
14,18,Jits_Linear_8,158,9999,9999,9999,2019131508
14,18,Jits_Linear_8,159,9999,9999,9999,2019641460
14,18,Jits_Linear_8,160,9999,9999,9999,2020141164
14,18,Jits_Linear_8,161,9999,9999,9999,2020641884
14,18,Jits_Linear_8,162,9999,9999,9999,2021141572
14,18,Jits_Linear_8,163,9999,9999,9999,2021641340
14,18,Jits_Linear_8,164,9999,9999,9999,2022142076
14,18,Jits_Linear_8,165,9999,9999,9999,2022631496
14,18,Jits_Linear_8,166,9999,9999,9999,2023122012
14,18,Jits_Linear_8,167,9999,9999,9999,2023611472
14,18,Jits_Linear_8,168,9999,9999,9999,2024102012
14,18,Jits_Linear_8,169,9999,9999,9999,2024591440
15,19,Jits_Linear_5,0,5,56,103,2033841468
15,19,Jits_Linear_5,1,5,63,98,2033844572
15,19,Jits_Linear_5,2,5,80,127,2033847768
15,19,Jits_Linear_5,0,1,48,32,2034266324
15,19,Jits_Linear_5,1,5,56,103,2034321856
15,19,Jits_Linear_5,2,5,63,98,2034325252
15,19,Jits_Linear_5,3,5,80,127,2034328372
15,19,Jits_Linear_5,0,1,48,35,2034740972
15,19,Jits_Linear_5,1,5,56,103,2034812396
15,19,Jits_Linear_5,2,5,80,127,2034821548
15,19,Jits_Linear_5,3,5,63,98,2034841916
15,19,Jits_Linear_5,0,5,63,98,2035242340
15,19,Jits_Linear_5,1,1,48,43,2035262476
15,19,Jits_Linear_5,2,5,80,127,2035272012
15,19,Jits_Linear_5,3,5,56,103,2035282656
15,19,Jits_Linear_5,0,1,48,51,2035733452
15,19,Jits_Linear_5,1,5,80,127,2035781956
15,19,Jits_Linear_5,2,5,56,103,2035792376
15,19,Jits_Linear_5,3,5,63,98,2035821828
15,19,Jits_Linear_5,0,1,48,51,2036245508
15,19,Jits_Linear_5,1,5,63,98,2036262540
15,19,Jits_Linear_5,2,5,56,103,2036291848
15,19,Jits_Linear_5,3,5,80,127,2036302488
15,19,Jits_Linear_5,0,5,56,103,2036701480
15,19,Jits_Linear_5,1,1,48,46,2036718376
15,19,Jits_Linear_5,2,5,63,98,2036751604
15,19,Jits_Linear_5,3,5,80,127,2036772284
15,19,Jits_Linear_5,0,5,80,127,2037192164
15,19,Jits_Linear_5,1,1,48,46,2037193724
15,19,Jits_Linear_5,2,5,63,98,2037242536
15,19,Jits_Linear_5,3,5,56,103,2037282252
15,19,Jits_Linear_5,0,5,56,103,2037681456
15,19,Jits_Linear_5,1,1,48,41,2037690052
15,19,Jits_Linear_5,2,5,63,98,2037712420
15,19,Jits_Linear_5,3,5,80,127,2037781864
15,19,Jits_Linear_5,0,1,48,51,2038155424
15,19,Jits_Linear_5,1,5,56,103,2038172012
15,19,Jits_Linear_5,2,5,80,127,2038232504
15,19,Jits_Linear_5,3,5,63,98,2038262240
15,19,Jits_Linear_5,0,5,56,103,2038671860
15,19,Jits_Linear_5,1,5,63,98,2038682132
15,19,Jits_Linear_5,2,1,48,44,2038688320
15,19,Jits_Linear_5,3,5,80,127,2038722212
15,19,Jits_Linear_5,0,5,63,98,2039162200
15,19,Jits_Linear_5,1,1,48,43,2039184948
15,19,Jits_Linear_5,2,5,80,127,2039242216
15,19,Jits_Linear_5,3,5,56,103,2039252412
15,19,Jits_Linear_5,0,1,48,46,2039669684
15,19,Jits_Linear_5,1,5,63,98,2039712356
15,19,Jits_Linear_5,2,5,56,103,2039752224
15,19,Jits_Linear_5,3,5,80,127,2039755464
15,19,Jits_Linear_5,0,5,56,103,2040171816
15,19,Jits_Linear_5,1,5,63,98,2040182384
15,19,Jits_Linear_5,2,1,48,36,2040209568
15,19,Jits_Linear_5,3,5,80,127,2040222244
15,19,Jits_Linear_5,0,5,56,103,2040662448
15,19,Jits_Linear_5,1,5,63,98,2040665368
15,19,Jits_Linear_5,2,5,80,127,2040681788
15,19,Jits_Linear_5,3,1,48,38,2040703560
15,19,Jits_Linear_5,0,1,48,40,2041163156
15,19,Jits_Linear_5,1,5,80,127,2041181540
15,19,Jits_Linear_5,2,5,56,103,2041191664
15,19,Jits_Linear_5,3,5,63,98,2041261476
15,19,Jits_Linear_5,0,5,63,98,2041691500
15,19,Jits_Linear_5,1,5,56,103,2041712108
15,19,Jits_Linear_5,2,1,48,42,2041725268
15,19,Jits_Linear_5,3,5,80,127,2041791748
15,19,Jits_Linear_5,0,5,56,103,2042211716
15,19,Jits_Linear_5,1,1,48,38,2042234168
15,19,Jits_Linear_5,2,5,80,127,2042251504
15,19,Jits_Linear_5,3,5,63,98,2042262220
15,19,Jits_Linear_5,0,1,48,33,2042705992
15,19,Jits_Linear_5,1,5,80,127,2042712388
15,19,Jits_Linear_5,2,5,63,98,2042742212
15,19,Jits_Linear_5,3,5,56,103,2042782224
15,19,Jits_Linear_5,0,1,48,33,2043206496
15,19,Jits_Linear_5,1,5,56,103,2043241820
15,19,Jits_Linear_5,2,5,63,98,2043271644
15,19,Jits_Linear_5,3,5,80,127,2043321684
15,19,Jits_Linear_5,0,1,48,26,2043679980
15,19,Jits_Linear_5,1,5,80,127,2043762264
15,19,Jits_Linear_5,2,5,56,103,2043802264
15,19,Jits_Linear_5,3,5,63,98,2043812312
15,19,Jits_Linear_5,0,1,48,32,2044232036
15,19,Jits_Linear_5,1,5,80,127,2044261880
15,19,Jits_Linear_5,2,5,63,98,2044301820
15,19,Jits_Linear_5,3,5,56,103,2044362344
15,19,Jits_Linear_5,0,5,56,103,2044782300
15,19,Jits_Linear_5,1,5,80,127,2044792272
15,19,Jits_Linear_5,2,1,48,37,2044795168
15,19,Jits_Linear_5,3,5,63,98,2044872212
15,19,Jits_Linear_5,0,5,80,127,2045302056
15,19,Jits_Linear_5,1,5,63,98,2045361404
15,19,Jits_Linear_5,2,1,48,33,2045382132
15,19,Jits_Linear_5,3,5,56,103,2045392292
15,19,Jits_Linear_5,0,5,56,103,2045822288
15,19,Jits_Linear_5,1,5,80,127,2045881636
15,19,Jits_Linear_5,2,5,63,98,2045921524
15,19,Jits_Linear_5,3,1,48,40,2045936176
15,19,Jits_Linear_5,0,5,56,103,2046402012
15,19,Jits_Linear_5,1,5,63,98,2046412160
15,19,Jits_Linear_5,2,5,80,127,2046415520
15,19,Jits_Linear_5,3,1,48,48,2046424344
15,19,Jits_Linear_5,0,5,80,127,2046882144
15,19,Jits_Linear_5,1,5,63,98,2046972232
15,19,Jits_Linear_5,2,5,56,103,2046981456
15,19,Jits_Linear_5,3,1,48,43,2046986216
15,19,Jits_Linear_5,0,5,56,103,2047411652
15,19,Jits_Linear_5,1,5,63,98,2047414828
15,19,Jits_Linear_5,2,5,80,127,2047418096
15,19,Jits_Linear_5,3,1,48,47,2047505976
15,19,Jits_Linear_5,0,5,80,127,2047971688
15,19,Jits_Linear_5,1,5,63,98,2048022116
15,19,Jits_Linear_5,2,5,56,103,2048051568
15,19,Jits_Linear_5,3,1,48,19,2048078500
15,19,Jits_Linear_5,0,5,56,103,2048481508
15,19,Jits_Linear_5,1,5,80,127,2048492224
15,19,Jits_Linear_5,2,5,63,98,2048561388
15,19,Jits_Linear_5,3,1,48,37,2048562356
15,19,Jits_Linear_5,0,5,56,103,2049022336
15,19,Jits_Linear_5,1,5,63,98,2049041900
15,19,Jits_Linear_5,2,1,48,41,2049084276
15,19,Jits_Linear_5,3,5,80,127,2049102136
15,19,Jits_Linear_5,0,5,80,127,2049551856
15,19,Jits_Linear_5,1,1,48,42,2049586220
15,19,Jits_Linear_5,2,5,63,98,2049622508
15,19,Jits_Linear_5,3,5,56,103,2049641920
15,19,Jits_Linear_5,0,5,80,127,2050112096
15,19,Jits_Linear_5,1,5,56,103,2050122068
15,19,Jits_Linear_5,2,5,63,98,2050132192
15,19,Jits_Linear_5,3,1,48,39,2050159572
15,19,Jits_Linear_5,0,5,80,127,2050642356
15,19,Jits_Linear_5,1,5,56,103,2050661696
15,19,Jits_Linear_5,2,1,48,43,2050666088
15,19,Jits_Linear_5,3,5,63,98,2050732272
15,19,Jits_Linear_5,0,1,48,39,2051172376
15,19,Jits_Linear_5,1,5,56,103,2051192176
15,19,Jits_Linear_5,2,5,80,127,2051221928
15,19,Jits_Linear_5,3,5,63,98,2051242312
15,19,Jits_Linear_5,0,5,63,98,2051732028
15,19,Jits_Linear_5,1,1,48,30,2051742796
15,19,Jits_Linear_5,2,5,56,103,2051792292
15,19,Jits_Linear_5,3,5,80,127,2051821892
15,19,Jits_Linear_5,0,5,63,98,2052271416
15,19,Jits_Linear_5,1,1,48,33,2052273528
15,19,Jits_Linear_5,2,5,80,127,2052276116
15,19,Jits_Linear_5,3,5,56,103,2052361568
15,19,Jits_Linear_5,0,1,48,39,2052832968
15,19,Jits_Linear_5,1,5,56,103,2052841988
15,19,Jits_Linear_5,2,5,63,98,2052871440
15,19,Jits_Linear_5,3,5,80,127,2052911604
15,19,Jits_Linear_5,0,5,63,98,2053391804
15,19,Jits_Linear_5,1,1,48,37,2053396944
15,19,Jits_Linear_5,2,5,56,103,2053431740
15,19,Jits_Linear_5,3,5,80,127,2053452052
15,19,Jits_Linear_5,0,1,48,41,2053936780
15,19,Jits_Linear_5,1,5,63,98,2053952020
15,19,Jits_Linear_5,2,5,56,103,2053991888
15,19,Jits_Linear_5,3,5,80,127,2054002232
15,19,Jits_Linear_5,0,5,80,127,2054482288
15,19,Jits_Linear_5,1,1,48,34,2054515372
15,19,Jits_Linear_5,2,5,63,98,2054552040
15,19,Jits_Linear_5,3,5,56,103,2054572352
15,19,Jits_Linear_5,0,5,56,103,2055032188
15,19,Jits_Linear_5,1,5,80,127,2055051748
15,19,Jits_Linear_5,2,1,48,44,2055065056
15,19,Jits_Linear_5,3,5,63,98,2055091832
15,19,Jits_Linear_5,0,1,48,40,2055595528
15,19,Jits_Linear_5,1,5,63,98,2055601480
15,19,Jits_Linear_5,2,5,80,127,2055621940
15,19,Jits_Linear_5,3,5,56,103,2055661904
15,19,Jits_Linear_5,0,5,63,98,2056161656
15,19,Jits_Linear_5,1,1,48,44,2056170028
15,19,Jits_Linear_5,2,5,56,103,2056182108
15,19,Jits_Linear_5,3,5,80,127,2056192528
15,19,Jits_Linear_5,0,5,80,127,2056721948
15,19,Jits_Linear_5,1,1,48,45,2056729948
15,19,Jits_Linear_5,2,5,56,103,2056742400
15,19,Jits_Linear_5,3,5,63,98,2056772152
15,19,Jits_Linear_5,0,1,48,44,2057287016
15,19,Jits_Linear_5,1,5,56,103,2057361968
15,19,Jits_Linear_5,2,5,80,127,2057365112
15,19,Jits_Linear_5,3,5,63,98,2057382208
15,19,Jits_Linear_5,0,5,63,98,2057852292
15,19,Jits_Linear_5,1,5,56,103,2057881896
15,19,Jits_Linear_5,2,1,48,23,2057913784
15,19,Jits_Linear_5,3,5,80,127,2057942376
15,19,Jits_Linear_5,0,1,48,43,2058426180
15,19,Jits_Linear_5,1,5,63,98,2058501464
15,19,Jits_Linear_5,2,5,56,103,2058511808
15,19,Jits_Linear_5,3,5,80,127,2058521840
15,19,Jits_Linear_5,0,5,56,103,2059021836
15,19,Jits_Linear_5,1,5,80,127,2059052484
15,19,Jits_Linear_5,2,1,48,40,2059058892
15,19,Jits_Linear_5,3,5,63,98,2059061704
15,19,Jits_Linear_5,0,5,63,98,2059631976
15,19,Jits_Linear_5,1,5,56,103,2059642248
15,19,Jits_Linear_5,2,5,80,127,2059661660
15,19,Jits_Linear_5,3,1,48,36,2059667772
15,19,Jits_Linear_5,0,5,56,103,2060131888
15,19,Jits_Linear_5,1,5,63,98,2060192132
15,19,Jits_Linear_5,2,5,80,127,2060195276
15,19,Jits_Linear_5,3,1,48,32,2060238200
15,19,Jits_Linear_5,0,5,80,127,2060731828
15,19,Jits_Linear_5,1,5,56,103,2060741948
15,19,Jits_Linear_5,2,1,48,39,2060795732
15,19,Jits_Linear_5,3,5,63,98,2060811796
15,19,Jits_Linear_5,0,5,80,127,2061302276
15,19,Jits_Linear_5,1,1,48,41,2061368848
15,19,Jits_Linear_5,2,5,56,103,2061371808
15,19,Jits_Linear_5,3,5,63,98,2061381928
15,19,Jits_Linear_5,4,1,48,29,2061430440
15,19,Jits_Linear_5,0,5,63,98,2061921680
15,19,Jits_Linear_5,1,5,56,103,2061931880
15,19,Jits_Linear_5,2,1,48,29,2061934628
15,19,Jits_Linear_5,3,5,80,127,2061952332
15,19,Jits_Linear_5,0,5,80,127,2062452012
15,19,Jits_Linear_5,1,1,48,41,2062507200
15,19,Jits_Linear_5,2,5,63,98,2062511576
15,19,Jits_Linear_5,3,5,56,103,2062552584
15,19,Jits_Linear_5,0,5,56,103,2063081800
15,19,Jits_Linear_5,1,1,48,33,2063087532
15,19,Jits_Linear_5,2,5,63,98,2063092212
15,19,Jits_Linear_5,3,5,80,127,2063131928
15,19,Jits_Linear_5,0,5,56,103,2063631848
15,19,Jits_Linear_5,1,1,48,36,2063653548
15,19,Jits_Linear_5,2,5,80,127,2063661664
15,19,Jits_Linear_5,3,5,63,98,2063711792
15,19,Jits_Linear_5,0,1,48,33,2064254012
15,19,Jits_Linear_5,1,5,56,103,2064261680
15,19,Jits_Linear_5,2,5,63,98,2064301692
15,19,Jits_Linear_5,3,5,80,127,2064304912
15,19,Jits_Linear_5,0,5,56,103,2064852496
15,19,Jits_Linear_5,1,1,48,29,2064853688
15,19,Jits_Linear_5,2,5,63,98,2064861716
15,19,Jits_Linear_5,3,5,80,127,2064882028
15,19,Jits_Linear_5,0,5,56,103,2065402092
15,19,Jits_Linear_5,1,5,80,127,2065405164
15,19,Jits_Linear_5,2,1,48,37,2065430244
15,19,Jits_Linear_5,3,5,63,98,2065442104
15,19,Jits_Linear_5,4,1,48,20,2065507460
15,19,Jits_Linear_5,0,1,48,36,2065984284
15,19,Jits_Linear_5,1,5,63,98,2066031968
15,19,Jits_Linear_5,2,5,56,103,2066061644
15,19,Jits_Linear_5,3,5,80,127,2066082104
15,19,Jits_Linear_5,0,5,80,127,2066602532
15,19,Jits_Linear_5,1,5,56,103,2066611536
15,19,Jits_Linear_5,2,1,48,37,2066616148
15,19,Jits_Linear_5,3,5,63,98,2066621948
15,19,Jits_Linear_5,0,5,56,103,2067202648
15,19,Jits_Linear_5,1,1,48,46,2067206964
15,19,Jits_Linear_5,2,5,80,127,2067242584
15,19,Jits_Linear_5,3,5,63,98,2067272036
15,19,Jits_Linear_5,0,5,63,98,2067811664
15,19,Jits_Linear_5,1,1,48,41,2067812556
15,19,Jits_Linear_5,2,5,80,127,2067821928
15,19,Jits_Linear_5,3,5,56,103,2067832196
15,19,Jits_Linear_5,0,5,56,103,2068392260
15,19,Jits_Linear_5,1,5,63,98,2068461896
15,19,Jits_Linear_5,2,1,48,34,2068466360
15,19,Jits_Linear_5,3,5,80,127,2068472160
15,19,Jits_Linear_5,0,5,80,127,2069001672
15,19,Jits_Linear_5,1,5,56,103,2069011796
15,19,Jits_Linear_5,2,5,63,98,2069061996
15,19,Jits_Linear_5,3,1,48,19,2069086688
15,19,Jits_Linear_5,0,5,80,127,2069621992
15,19,Jits_Linear_5,1,1,48,33,2069669756
15,19,Jits_Linear_5,2,5,56,103,2069681632
15,19,Jits_Linear_5,3,5,63,98,2069712456
15,19,Jits_Linear_5,0,5,56,103,2070232380
15,19,Jits_Linear_5,1,5,80,127,2070235444
15,19,Jits_Linear_5,2,1,48,35,2070258720
15,19,Jits_Linear_5,3,5,63,98,2070272460
15,19,Jits_Linear_5,0,5,56,103,2070872472
15,19,Jits_Linear_5,1,1,48,20,2070877908
15,19,Jits_Linear_5,2,5,63,98,2070901996
15,19,Jits_Linear_5,3,5,80,127,2070912488
15,19,Jits_Linear_5,0,1,48,33,2071482508
15,19,Jits_Linear_5,1,5,63,98,2071492048
15,19,Jits_Linear_5,2,5,80,127,2071502344
15,19,Jits_Linear_5,3,5,56,103,2071512392
15,19,Jits_Linear_5,0,5,80,127,2072052228
15,19,Jits_Linear_5,1,1,48,30,2072092288
15,19,Jits_Linear_5,2,5,56,103,2072102200
15,19,Jits_Linear_5,3,5,63,98,2072105268
15,19,Jits_Linear_5,0,1,48,35,2072686964
15,19,Jits_Linear_5,1,5,56,103,2072702428
15,19,Jits_Linear_5,2,5,80,127,2072721768
15,19,Jits_Linear_5,3,5,63,98,2072731888
15,19,Jits_Linear_5,0,1,48,34,2073281348
15,19,Jits_Linear_5,1,5,63,98,2073302300
15,19,Jits_Linear_5,2,5,56,103,2073332052
15,19,Jits_Linear_5,3,5,80,127,2073351392
15,19,Jits_Linear_5,0,1,48,31,2073927444
15,19,Jits_Linear_5,1,5,56,103,2073932272
15,19,Jits_Linear_5,2,5,80,127,2073942472
15,19,Jits_Linear_5,3,5,63,98,2074012004
15,19,Jits_Linear_5,0,5,63,98,2074541356
15,19,Jits_Linear_5,1,1,48,40,2074552568
15,19,Jits_Linear_5,2,5,80,127,2074582436
15,19,Jits_Linear_5,3,5,56,103,2074622372
15,19,Jits_Linear_5,0,1,48,41,2075173344
15,19,Jits_Linear_5,1,5,56,103,2075181388
15,19,Jits_Linear_5,2,5,63,98,2075191808
15,19,Jits_Linear_5,3,5,80,127,2075212268
15,19,Jits_Linear_5,0,1,48,40,2075786532
15,19,Jits_Linear_5,1,5,63,98,2075852220
15,19,Jits_Linear_5,2,5,80,127,2075871632
15,19,Jits_Linear_5,3,5,56,103,2075892224
15,19,Jits_Linear_5,0,5,56,103,2076431780
15,19,Jits_Linear_5,1,1,48,35,2076446136
15,19,Jits_Linear_5,2,5,80,127,2076511572
15,19,Jits_Linear_5,3,5,63,98,2076521844
15,19,Jits_Linear_5,0,1,48,22,2077060016
15,19,Jits_Linear_5,1,5,80,127,2077111592
15,19,Jits_Linear_5,2,5,63,98,2077121860
15,19,Jits_Linear_5,3,5,56,103,2077151560
15,19,Jits_Linear_5,0,1,48,30,2077671208
15,19,Jits_Linear_5,1,5,63,98,2077711692
15,19,Jits_Linear_5,2,5,80,127,2077751632
15,19,Jits_Linear_5,3,5,56,103,2077812156
15,19,Jits_Linear_5,0,1,48,25,2078346204
15,19,Jits_Linear_5,1,5,63,98,2078372308
15,19,Jits_Linear_5,2,5,56,103,2078422316
15,19,Jits_Linear_5,3,5,80,127,2078452052
15,19,Jits_Linear_5,0,1,48,36,2078972020
15,19,Jits_Linear_5,1,5,80,127,2079021568
15,19,Jits_Linear_5,2,5,63,98,2079031840
15,19,Jits_Linear_5,3,5,56,103,2079102256
15,19,Jits_Linear_5,0,1,48,41,2079626112
15,19,Jits_Linear_5,1,5,80,127,2079732176
15,19,Jits_Linear_5,2,5,56,103,2079742296
15,19,Jits_Linear_5,3,5,63,98,2079745512
15,19,Jits_Linear_5,0,5,56,103,2080311596
15,19,Jits_Linear_5,1,5,80,127,2080332280
15,19,Jits_Linear_5,2,5,63,98,2080342552
15,19,Jits_Linear_5,3,1,48,29,2080350252
15,19,Jits_Linear_5,0,5,63,98,2080962040
15,19,Jits_Linear_5,1,1,48,31,2080989320
15,19,Jits_Linear_5,2,5,56,103,2081001776
15,19,Jits_Linear_5,3,5,80,127,2081022308
15,19,Jits_Linear_5,0,5,63,98,2081602008
15,19,Jits_Linear_5,1,1,48,32,2081611952
15,19,Jits_Linear_5,2,5,56,103,2081662168
15,19,Jits_Linear_5,3,5,80,127,2081665312
15,19,Jits_Linear_5,0,5,56,103,2082221412
15,19,Jits_Linear_5,1,1,48,29,2082235620
15,19,Jits_Linear_5,2,5,80,127,2082242012
15,19,Jits_Linear_5,3,5,63,98,2082281976
15,19,Jits_Linear_5,0,1,48,36,2082851316
15,19,Jits_Linear_5,1,5,56,103,2082902288
15,19,Jits_Linear_5,2,1,48,25,2082904656
15,19,Jits_Linear_5,3,5,63,98,2082921976
15,19,Jits_Linear_5,4,5,80,127,2082932172
15,19,Jits_Linear_5,0,1,48,44,2083506652
15,19,Jits_Linear_5,1,5,80,127,2083522040
15,19,Jits_Linear_5,2,5,56,103,2083551592
15,19,Jits_Linear_5,3,5,63,98,2083591536
15,19,Jits_Linear_5,0,1,48,32,2084140928
15,19,Jits_Linear_5,1,5,80,127,2084182384
15,19,Jits_Linear_5,2,5,56,103,2084202096
15,19,Jits_Linear_5,3,5,63,98,2084262248
15,19,Jits_Linear_5,0,1,48,18,2084837528
15,19,Jits_Linear_5,1,5,56,103,2084842276
15,19,Jits_Linear_5,2,5,80,127,2084862292
15,19,Jits_Linear_5,3,5,63,98,2084921932
15,19,Jits_Linear_5,0,5,80,127,2085482072
15,19,Jits_Linear_5,1,5,56,103,2085492268
15,19,Jits_Linear_5,2,1,48,45,2085499056
15,19,Jits_Linear_5,3,5,63,98,2085532204
15,19,Jits_Linear_5,4,1,48,23,2085569460
15,19,Jits_Linear_5,0,5,63,98,2086142328
15,19,Jits_Linear_5,1,1,48,34,2086146196
15,19,Jits_Linear_5,2,5,56,103,2086182332
15,19,Jits_Linear_5,3,5,80,127,2086185252
15,19,Jits_Linear_5,0,1,48,37,2086781324
15,19,Jits_Linear_5,1,5,63,98,2086822180
15,19,Jits_Linear_5,2,5,80,127,2086862224
15,19,Jits_Linear_5,3,5,56,103,2086892032
15,19,Jits_Linear_5,0,1,48,39,2087435068
15,19,Jits_Linear_5,1,5,56,103,2087471364
15,19,Jits_Linear_5,2,5,63,98,2087481708
15,19,Jits_Linear_5,3,1,48,25,2087496272
15,19,Jits_Linear_5,4,5,80,127,2087512412
15,19,Jits_Linear_5,0,1,48,38,2088104352
15,19,Jits_Linear_5,1,5,80,127,2088131952
15,19,Jits_Linear_5,2,5,63,98,2088202768
15,19,Jits_Linear_5,3,5,56,103,2088211916
15,19,Jits_Linear_5,0,5,63,98,2088801668
15,19,Jits_Linear_5,1,1,48,30,2088803680
15,19,Jits_Linear_5,2,5,56,103,2088872168
15,19,Jits_Linear_5,3,5,80,127,2088881392
15,19,Jits_Linear_5,0,5,63,98,2089472396
15,19,Jits_Linear_5,1,5,56,103,2089491960
15,19,Jits_Linear_5,2,5,80,127,2089531896
15,19,Jits_Linear_5,3,1,48,35,2089534344
15,19,Jits_Linear_5,0,5,56,103,2090152268
15,19,Jits_Linear_5,1,5,63,98,2090161492
15,19,Jits_Linear_5,2,5,80,127,2090242360
15,19,Jits_Linear_5,3,1,48,38,2090255816
15,19,Jits_Linear_5,0,5,63,98,2090811948
15,19,Jits_Linear_5,1,5,56,103,2090841400
15,19,Jits_Linear_5,2,1,48,36,2090844300
15,19,Jits_Linear_5,3,5,80,127,2090882604
15,19,Jits_Linear_5,4,1,48,23,2090907208
15,19,Jits_Linear_5,0,5,56,103,2091481332
15,19,Jits_Linear_5,1,5,63,98,2091522320
15,19,Jits_Linear_5,2,1,48,39,2091537044
15,19,Jits_Linear_5,3,5,80,127,2091562400
15,19,Jits_Linear_5,0,5,80,127,2092162488
15,19,Jits_Linear_5,1,1,48,43,2092204196
15,19,Jits_Linear_5,2,5,56,103,2092242228
15,19,Jits_Linear_5,3,5,63,98,2092251676
15,19,Jits_Linear_5,0,1,48,43,2092880124
15,19,Jits_Linear_5,1,5,56,103,2092882172
15,19,Jits_Linear_5,2,5,63,98,2092885392
15,19,Jits_Linear_5,3,5,80,127,2092891400
15,19,Jits_Linear_5,4,1,48,28,2092935104
15,19,Jits_Linear_5,0,1,48,42,2093559080
15,19,Jits_Linear_5,1,5,56,103,2093581740
15,19,Jits_Linear_5,2,5,63,98,2093602052
15,19,Jits_Linear_5,3,1,48,29,2093603976
15,19,Jits_Linear_5,4,5,80,127,2093612376
15,19,Jits_Linear_5,0,1,48,44,2094231328
15,19,Jits_Linear_5,1,5,63,98,2094232968
15,19,Jits_Linear_5,2,5,80,127,2094242116
15,19,Jits_Linear_5,3,5,56,103,2094261828
15,19,Jits_Linear_5,0,5,63,98,2094922236
15,19,Jits_Linear_5,1,1,48,31,2094956444
15,19,Jits_Linear_5,2,5,56,103,2095001876
15,19,Jits_Linear_5,3,5,80,127,2095005020
15,19,Jits_Linear_5,0,1,48,22,2095603724
15,19,Jits_Linear_5,1,5,63,98,2095612140
15,19,Jits_Linear_5,2,5,56,103,2095631924
15,19,Jits_Linear_5,3,5,80,127,2095661304
15,19,Jits_Linear_5,0,1,48,36,2096231524
15,19,Jits_Linear_5,1,1,48,24,2096286036
15,19,Jits_Linear_5,2,5,56,103,2096301428
15,19,Jits_Linear_5,3,5,63,98,2096322036
15,19,Jits_Linear_5,4,5,80,127,2096332108
15,19,Jits_Linear_5,0,1,48,39,2096898860
15,19,Jits_Linear_5,1,5,56,103,2097022212
15,19,Jits_Linear_5,2,5,63,98,2097052108
15,19,Jits_Linear_5,3,5,80,127,2097055324
15,19,Jits_Linear_5,0,5,56,103,2097662188
15,19,Jits_Linear_5,1,5,63,98,2097702204
15,19,Jits_Linear_5,2,1,48,33,2097719328
15,19,Jits_Linear_5,3,5,80,127,2097761912
15,19,Jits_Linear_5,0,5,56,103,2098371820
15,19,Jits_Linear_5,1,5,63,98,2098382264
15,19,Jits_Linear_5,2,5,80,127,2098441908
15,19,Jits_Linear_5,3,1,48,43,2098500544
15,19,Jits_Linear_5,0,1,48,38,2099063912
15,19,Jits_Linear_5,1,5,56,103,2099072328
15,19,Jits_Linear_5,2,5,80,127,2099091816
15,19,Jits_Linear_5,3,5,63,98,2099121788
15,19,Jits_Linear_5,0,1,48,34,2099757956
15,19,Jits_Linear_5,1,5,80,127,2099771704
15,19,Jits_Linear_5,2,5,56,103,2099782124
15,19,Jits_Linear_5,3,5,63,98,2099801388
15,19,Jits_Linear_5,0,1,48,38,2100457180
15,19,Jits_Linear_5,1,5,63,98,2100461936
15,19,Jits_Linear_5,2,5,80,127,2100541812
15,19,Jits_Linear_5,3,5,56,103,2100552064
15,19,Jits_Linear_5,0,1,48,39,2101152120
15,19,Jits_Linear_5,1,1,48,24,2101211244
15,19,Jits_Linear_5,2,5,80,127,2101221680
15,19,Jits_Linear_5,3,5,56,103,2101242360
15,19,Jits_Linear_5,4,5,63,98,2101245276
15,19,Jits_Linear_5,0,1,48,35,2101870648
15,19,Jits_Linear_5,1,5,63,98,2101901832
15,19,Jits_Linear_5,2,5,80,127,2101905048
15,19,Jits_Linear_5,3,5,56,103,2101963132
15,19,Jits_Linear_5,0,5,56,103,2102591920
15,19,Jits_Linear_5,1,5,80,127,2102602040
15,19,Jits_Linear_5,2,1,48,36,2102613184
15,19,Jits_Linear_5,3,5,63,98,2102642124
15,19,Jits_Linear_5,0,5,56,103,2103282092
15,19,Jits_Linear_5,1,1,48,32,2103328512
15,19,Jits_Linear_5,2,5,63,98,2103341508
15,19,Jits_Linear_5,3,5,80,127,2103351632
15,19,Jits_Linear_5,0,5,63,98,2104001912
15,19,Jits_Linear_5,1,1,48,35,2104021916
15,19,Jits_Linear_5,2,5,80,127,2104041724
15,19,Jits_Linear_5,3,5,56,103,2104081736
15,19,Jits_Linear_5,0,1,48,43,2104666708
15,19,Jits_Linear_5,1,1,48,31,2104719828
15,19,Jits_Linear_5,2,5,56,103,2104721860
15,19,Jits_Linear_5,3,5,63,98,2104801684
15,19,Jits_Linear_5,4,5,80,127,2104805048
15,19,Jits_Linear_5,0,1,48,40,2105402620
15,19,Jits_Linear_5,1,5,80,127,2105491804
15,19,Jits_Linear_5,2,5,56,103,2105521540
15,19,Jits_Linear_5,3,5,63,98,2105524460
15,19,Jits_Linear_5,0,1,48,40,2106146488
15,19,Jits_Linear_5,1,5,56,103,2106171620
15,19,Jits_Linear_5,2,5,80,127,2106192380
15,19,Jits_Linear_5,3,5,63,98,2106232316
15,19,Jits_Linear_5,0,5,80,127,2106872048
15,19,Jits_Linear_5,1,5,63,98,2106891684
15,19,Jits_Linear_5,2,1,48,40,2106905292
15,19,Jits_Linear_5,3,5,56,103,2106952072
15,19,Jits_Linear_5,0,1,48,35,2107598520
15,19,Jits_Linear_5,1,5,63,98,2107602376
15,19,Jits_Linear_5,2,5,56,103,2107611600
15,19,Jits_Linear_5,3,5,80,127,2107661652
15,19,Jits_Linear_5,0,1,48,28,2108312560
15,19,Jits_Linear_5,1,5,56,103,2108322028
15,19,Jits_Linear_5,2,5,63,98,2108341592
15,19,Jits_Linear_5,3,5,80,127,2108351788
15,19,Jits_Linear_5,0,1,48,40,2109035080
15,19,Jits_Linear_5,1,5,56,103,2109042000
15,19,Jits_Linear_5,2,5,63,98,2109044996
15,19,Jits_Linear_5,3,5,80,127,2109061416
15,19,Jits_Linear_5,0,1,48,38,2109726492
15,19,Jits_Linear_5,1,5,63,98,2109812164
15,19,Jits_Linear_5,2,5,56,103,2109841756
15,19,Jits_Linear_5,3,5,80,127,2109871504
15,19,Jits_Linear_5,0,5,80,127,2110502480
15,19,Jits_Linear_5,1,1,48,40,2110527176
15,19,Jits_Linear_5,2,5,56,103,2110592316
15,19,Jits_Linear_5,3,5,63,98,2110595532
15,19,Jits_Linear_5,0,5,56,103,2111232428
15,19,Jits_Linear_5,1,5,80,127,2111235492
15,19,Jits_Linear_5,2,1,48,28,2111312372
15,19,Jits_Linear_5,3,5,63,98,2111314012
15,19,Jits_Linear_5,0,5,80,127,2111961400
15,19,Jits_Linear_5,1,5,63,98,2112021868
15,19,Jits_Linear_5,2,5,56,103,2112051548
15,19,Jits_Linear_5,3,1,48,32,2112071376
15,19,Jits_Linear_5,0,5,63,98,2112691564
15,19,Jits_Linear_5,1,5,80,127,2112701760
15,19,Jits_Linear_5,2,5,56,103,2112771316
15,19,Jits_Linear_5,3,1,48,39,2112773984
15,19,Jits_Linear_5,0,5,56,103,2113452516
15,19,Jits_Linear_5,1,5,80,127,2113482144
15,19,Jits_Linear_5,2,1,48,37,2113494628
15,19,Jits_Linear_5,3,5,63,98,2113532416
15,19,Jits_Linear_5,0,1,48,35,2114219984
15,19,Jits_Linear_5,1,5,63,98,2114231772
15,19,Jits_Linear_5,2,5,56,103,2114262516
15,19,Jits_Linear_5,3,5,80,127,2114265512
15,19,Jits_Linear_5,0,1,48,35,2114965272
15,19,Jits_Linear_5,1,5,63,98,2114972344
15,19,Jits_Linear_5,2,5,80,127,2114991460
15,19,Jits_Linear_5,3,5,56,103,2115001656
15,19,Jits_Linear_5,0,1,48,38,2115662776
15,19,Jits_Linear_5,1,1,48,23,2115721680
15,19,Jits_Linear_5,2,5,56,103,2115723492
15,19,Jits_Linear_5,3,5,63,98,2115726304
15,19,Jits_Linear_5,4,5,80,127,2115742280
15,19,Jits_Linear_5,0,1,48,38,2116400632
15,19,Jits_Linear_5,1,5,56,103,2116422080
15,19,Jits_Linear_5,2,5,63,98,2116432204
15,19,Jits_Linear_5,3,5,80,127,2116462104
15,19,Jits_Linear_5,0,1,48,34,2117112736
15,19,Jits_Linear_5,1,5,63,98,2117192332
15,19,Jits_Linear_5,2,5,80,127,2117211508
15,19,Jits_Linear_5,3,5,56,103,2117251444
15,19,Jits_Linear_5,0,1,48,35,2117873620
15,19,Jits_Linear_5,1,5,56,103,2117972312
15,19,Jits_Linear_5,2,5,63,98,2118012172
15,19,Jits_Linear_5,3,5,80,127,2118015468
15,19,Jits_Linear_5,0,5,80,127,2118661368
15,19,Jits_Linear_5,1,1,48,23,2118664032
15,19,Jits_Linear_5,2,5,56,103,2118701300
15,19,Jits_Linear_5,3,5,63,98,2118751576
15,19,Jits_Linear_5,0,1,48,32,2119418620
15,19,Jits_Linear_5,1,5,56,103,2119471408
15,19,Jits_Linear_5,2,5,80,127,2119481604
15,19,Jits_Linear_5,3,5,63,98,2119512384
15,19,Jits_Linear_5,0,5,56,103,2120172064
15,19,Jits_Linear_5,1,1,48,26,2120194220
15,19,Jits_Linear_5,2,5,80,127,2120211924
15,19,Jits_Linear_5,3,5,63,98,2120262424
15,19,Jits_Linear_5,0,5,56,103,2120931764
15,19,Jits_Linear_5,1,1,48,38,2120934440
15,19,Jits_Linear_5,2,5,80,127,2120971624
15,19,Jits_Linear_5,3,5,63,98,2121021976
15,19,Jits_Linear_5,0,5,80,127,2121682252
15,19,Jits_Linear_5,1,1,48,34,2121683812
15,19,Jits_Linear_5,2,5,63,98,2121762120
15,19,Jits_Linear_5,3,5,56,103,2121772316
15,19,Jits_Linear_5,0,1,48,35,2122471220
15,19,Jits_Linear_5,1,5,80,127,2122492220
15,19,Jits_Linear_5,2,5,56,103,2122501448
15,19,Jits_Linear_5,3,5,63,98,2122522128
15,19,Jits_Linear_5,4,1,48,20,2122536616
15,19,Jits_Linear_5,0,5,63,98,2123222296
15,19,Jits_Linear_5,1,1,48,33,2123275012
15,19,Jits_Linear_5,2,5,56,103,2123292048
15,19,Jits_Linear_5,3,5,80,127,2123295040
15,19,Jits_Linear_5,0,5,80,127,2123982200
15,19,Jits_Linear_5,1,1,48,30,2124008092
15,19,Jits_Linear_5,2,5,63,98,2124032324
15,19,Jits_Linear_5,3,5,56,103,2124072264
15,19,Jits_Linear_5,0,1,48,30,2124773792
15,19,Jits_Linear_5,1,5,63,98,2124792172
15,19,Jits_Linear_5,2,5,56,103,2124832188
15,19,Jits_Linear_5,3,5,80,127,2124842384
15,19,Jits_Linear_5,0,5,63,98,2125551948
15,19,Jits_Linear_5,1,1,48,33,2125553064
15,19,Jits_Linear_5,2,5,56,103,2125571428
15,19,Jits_Linear_5,3,5,80,127,2125592112
15,19,Jits_Linear_5,0,5,80,127,2126282040
15,19,Jits_Linear_5,1,5,56,103,2126292240
15,19,Jits_Linear_5,2,5,63,98,2126312024
15,19,Jits_Linear_5,3,1,48,29,2126312988
15,19,Jits_Linear_5,0,1,48,32,2127027732
15,19,Jits_Linear_5,1,5,63,98,2127081964
15,19,Jits_Linear_5,2,5,56,103,2127121980
15,19,Jits_Linear_5,3,5,80,127,2127151416
15,19,Jits_Linear_5,0,5,56,103,2127862116
15,19,Jits_Linear_5,1,1,48,18,2127867104
15,19,Jits_Linear_5,2,5,63,98,2127892084
15,19,Jits_Linear_5,3,5,80,127,2127921388
15,19,Jits_Linear_5,0,5,80,127,2128611708
15,19,Jits_Linear_5,1,1,48,25,2128620376
15,19,Jits_Linear_5,2,5,56,103,2128682200
15,19,Jits_Linear_5,3,5,63,98,2128685276
15,19,Jits_Linear_5,0,1,48,37,2129390852
15,19,Jits_Linear_5,1,5,56,103,2129402332
15,19,Jits_Linear_5,2,5,63,98,2129452612
15,19,Jits_Linear_5,3,5,80,127,2129482064
15,19,Jits_Linear_5,0,5,63,98,2130161948
15,19,Jits_Linear_5,1,5,80,127,2130165468
15,19,Jits_Linear_5,2,1,48,36,2130195864
15,19,Jits_Linear_5,3,5,56,103,2130221440
15,19,Jits_Linear_5,0,1,48,27,2130965344
15,19,Jits_Linear_5,1,5,56,103,2130972116
15,19,Jits_Linear_5,2,5,80,127,2130982388
15,19,Jits_Linear_5,3,5,63,98,2131032368
15,19,Jits_Linear_5,0,5,63,98,2131731812
15,19,Jits_Linear_5,1,5,56,103,2131742008
15,19,Jits_Linear_5,2,5,80,127,2131771760
15,19,Jits_Linear_5,3,1,48,29,2131777648
15,19,Jits_Linear_5,0,1,48,18,2132502248
15,19,Jits_Linear_5,1,5,63,98,2132552024
15,19,Jits_Linear_5,2,5,80,127,2132555312
15,19,Jits_Linear_5,3,5,56,103,2132581920
15,19,Jits_Linear_5,0,1,48,38,2133304700
15,19,Jits_Linear_5,1,5,63,98,2133361972
15,19,Jits_Linear_5,2,5,56,103,2133381608
15,19,Jits_Linear_5,3,5,80,127,2133384676
15,19,Jits_Linear_5,0,1,48,35,2134103788
15,19,Jits_Linear_5,1,5,63,98,2134111832
15,19,Jits_Linear_5,2,5,56,103,2134182192
15,19,Jits_Linear_5,3,5,80,127,2134201976
15,19,Jits_Linear_5,0,1,48,34,2134886624
15,19,Jits_Linear_5,1,5,56,103,2134891824
15,19,Jits_Linear_5,2,5,63,98,2134902096
15,19,Jits_Linear_5,3,5,80,127,2134992168
15,19,Jits_Linear_5,0,5,56,103,2135702012
15,19,Jits_Linear_5,1,1,48,35,2135722816
15,19,Jits_Linear_5,2,5,80,127,2135741800
15,19,Jits_Linear_5,3,5,63,98,2135752168
15,19,Jits_Linear_5,0,5,56,103,2136521976
15,19,Jits_Linear_5,1,1,48,32,2136536260
15,19,Jits_Linear_5,2,5,63,98,2136551724
15,19,Jits_Linear_5,3,5,80,127,2136581624
15,19,Jits_Linear_5,0,5,80,127,2137281876
15,19,Jits_Linear_5,1,5,63,98,2137321768
15,19,Jits_Linear_5,2,1,48,31,2137334180
15,19,Jits_Linear_5,3,5,56,103,2137342372
15,19,Jits_Linear_5,0,1,48,41,2138107788
15,19,Jits_Linear_5,1,5,56,103,2138121688
15,19,Jits_Linear_5,2,5,80,127,2138142072
15,19,Jits_Linear_5,3,5,63,98,2138161712
15,19,Jits_Linear_5,0,1,48,40,2138876692
15,19,Jits_Linear_5,1,5,63,98,2138891788
15,19,Jits_Linear_5,2,5,56,103,2138901836
15,19,Jits_Linear_5,3,5,80,127,2138962300
15,19,Jits_Linear_5,0,1,48,20,2139689860
15,19,Jits_Linear_5,1,5,56,103,2139701664
15,19,Jits_Linear_5,2,5,63,98,2139772396
15,19,Jits_Linear_5,3,5,80,127,2139791720
15,19,Jits_Linear_5,0,5,56,103,2140511704
15,19,Jits_Linear_5,1,5,63,98,2140542580
15,19,Jits_Linear_5,2,1,48,20,2140544444
15,19,Jits_Linear_5,3,5,80,127,2140582216
15,19,Jits_Linear_5,0,1,48,43,2141305012
15,19,Jits_Linear_5,1,5,63,98,2141312456
15,19,Jits_Linear_5,2,5,56,103,2141361688
15,19,Jits_Linear_5,3,5,80,127,2141371736
15,19,Jits_Linear_5,0,1,48,27,2142112576
15,19,Jits_Linear_5,1,5,56,103,2142162228
15,19,Jits_Linear_5,2,5,63,98,2142211668
15,19,Jits_Linear_5,3,5,80,127,2142221716
15,19,Jits_Linear_5,0,5,56,103,2142941628
15,19,Jits_Linear_5,1,5,63,98,2142951748
15,19,Jits_Linear_5,2,1,48,37,2142987004
15,19,Jits_Linear_5,3,5,80,127,2143031612
15,19,Jits_Linear_5,0,9999,9999,9999,2034079856
15,19,Jits_Linear_5,1,9999,9999,9999,2034560072
15,19,Jits_Linear_5,2,9999,9999,9999,2035049576
15,19,Jits_Linear_5,3,9999,9999,9999,2035529852
15,19,Jits_Linear_5,4,9999,9999,9999,2036010068
15,19,Jits_Linear_5,5,9999,9999,9999,2036499568
15,19,Jits_Linear_5,6,9999,9999,9999,2036990040
15,19,Jits_Linear_5,7,9999,9999,9999,2037479484
15,19,Jits_Linear_5,8,9999,9999,9999,2037970040
15,19,Jits_Linear_5,9,9999,9999,9999,2038459460
15,19,Jits_Linear_5,10,9999,9999,9999,2038959228
15,19,Jits_Linear_5,11,9999,9999,9999,2039459952
15,19,Jits_Linear_5,12,9999,9999,9999,2039959640
15,19,Jits_Linear_5,13,9999,9999,9999,2040459328
15,19,Jits_Linear_5,14,9999,9999,9999,2040960064
15,19,Jits_Linear_5,15,9999,9999,9999,2041479248
15,19,Jits_Linear_5,16,9999,9999,9999,2041989200
15,19,Jits_Linear_5,17,9999,9999,9999,2042499156
15,19,Jits_Linear_5,18,9999,9999,9999,2043009124
15,19,Jits_Linear_5,19,9999,9999,9999,2043520124
15,19,Jits_Linear_5,20,9999,9999,9999,2044049484
15,19,Jits_Linear_5,21,9999,9999,9999,2044569680
15,19,Jits_Linear_5,22,9999,9999,9999,2045089868
15,19,Jits_Linear_5,23,9999,9999,9999,2045610100
15,19,Jits_Linear_5,24,9999,9999,9999,2046129212
15,19,Jits_Linear_5,25,9999,9999,9999,2046659696
15,19,Jits_Linear_5,26,9999,9999,9999,2047190140
15,19,Jits_Linear_5,27,9999,9999,9999,2047729752
15,19,Jits_Linear_5,28,9999,9999,9999,2048259128
15,19,Jits_Linear_5,29,9999,9999,9999,2048789624
15,19,Jits_Linear_5,30,9999,9999,9999,2049329260
15,19,Jits_Linear_5,31,9999,9999,9999,2049869940
15,19,Jits_Linear_5,32,9999,9999,9999,2050409568
15,19,Jits_Linear_5,33,9999,9999,9999,2050949204
15,19,Jits_Linear_5,34,9999,9999,9999,2051489884
15,19,Jits_Linear_5,35,9999,9999,9999,2052039772
15,19,Jits_Linear_5,36,9999,9999,9999,2052589664
15,19,Jits_Linear_5,37,9999,9999,9999,2053139548
15,19,Jits_Linear_5,38,9999,9999,9999,2053689436
15,19,Jits_Linear_5,39,9999,9999,9999,2054239320
15,19,Jits_Linear_5,40,9999,9999,9999,2054799472
15,19,Jits_Linear_5,41,9999,9999,9999,2055359556
15,19,Jits_Linear_5,42,9999,9999,9999,2055919736
15,19,Jits_Linear_5,43,9999,9999,9999,2056479804
15,19,Jits_Linear_5,44,9999,9999,9999,2057039948
15,19,Jits_Linear_5,45,9999,9999,9999,2057609328
15,19,Jits_Linear_5,46,9999,9999,9999,2058179664
15,19,Jits_Linear_5,47,9999,9999,9999,2058750024
15,19,Jits_Linear_5,48,9999,9999,9999,2059319388
15,19,Jits_Linear_5,49,9999,9999,9999,2059889744
15,19,Jits_Linear_5,50,9999,9999,9999,2060469364
15,19,Jits_Linear_5,51,9999,9999,9999,2061049928
15,19,Jits_Linear_5,52,9999,9999,9999,2061629552
15,19,Jits_Linear_5,53,9999,9999,9999,2062209120
15,19,Jits_Linear_5,54,9999,9999,9999,2062789720
15,19,Jits_Linear_5,55,9999,9999,9999,2063379576
15,19,Jits_Linear_5,56,9999,9999,9999,2063969404
15,19,Jits_Linear_5,57,9999,9999,9999,2064559232
15,19,Jits_Linear_5,58,9999,9999,9999,2065150052
15,19,Jits_Linear_5,59,9999,9999,9999,2065739844
15,19,Jits_Linear_5,60,9999,9999,9999,2066339940
15,19,Jits_Linear_5,61,9999,9999,9999,2066939964
15,19,Jits_Linear_5,62,9999,9999,9999,2067540056
15,19,Jits_Linear_5,63,9999,9999,9999,2068139104
15,19,Jits_Linear_5,64,9999,9999,9999,2068739136
15,19,Jits_Linear_5,65,9999,9999,9999,2069349492
15,19,Jits_Linear_5,66,9999,9999,9999,2069959776
15,19,Jits_Linear_5,67,9999,9999,9999,2070570072
15,19,Jits_Linear_5,68,9999,9999,9999,2071179392
15,19,Jits_Linear_5,69,9999,9999,9999,2071789632
15,19,Jits_Linear_5,70,9999,9999,9999,2072409180
15,19,Jits_Linear_5,71,9999,9999,9999,2073029728
15,19,Jits_Linear_5,72,9999,9999,9999,2073649232
15,19,Jits_Linear_5,73,9999,9999,9999,2074269764
15,19,Jits_Linear_5,74,9999,9999,9999,2074889272
15,19,Jits_Linear_5,75,9999,9999,9999,2075520072
15,19,Jits_Linear_5,76,9999,9999,9999,2076160116
15,19,Jits_Linear_5,77,9999,9999,9999,2076800056
15,19,Jits_Linear_5,78,9999,9999,9999,2077440108
15,19,Jits_Linear_5,79,9999,9999,9999,2078080120
15,19,Jits_Linear_5,80,9999,9999,9999,2078720088
15,19,Jits_Linear_5,81,9999,9999,9999,2079360104
15,19,Jits_Linear_5,82,9999,9999,9999,2080000068
15,19,Jits_Linear_5,83,9999,9999,9999,2080640084
15,19,Jits_Linear_5,84,9999,9999,9999,2081280068
15,19,Jits_Linear_5,85,9999,9999,9999,2081939556
15,19,Jits_Linear_5,86,9999,9999,9999,2082589780
15,19,Jits_Linear_5,87,9999,9999,9999,2083240052
15,19,Jits_Linear_5,88,9999,9999,9999,2083889224
15,19,Jits_Linear_5,89,9999,9999,9999,2084539504
15,19,Jits_Linear_5,90,9999,9999,9999,2085199996
15,19,Jits_Linear_5,91,9999,9999,9999,2085859412
15,19,Jits_Linear_5,92,9999,9999,9999,2086519876
15,19,Jits_Linear_5,93,9999,9999,9999,2087179324
15,19,Jits_Linear_5,94,9999,9999,9999,2087839844
15,19,Jits_Linear_5,95,9999,9999,9999,2088509548
15,19,Jits_Linear_5,96,9999,9999,9999,2089179232
15,19,Jits_Linear_5,97,9999,9999,9999,2089849960
15,19,Jits_Linear_5,98,9999,9999,9999,2090519664
15,19,Jits_Linear_5,99,9999,9999,9999,2091189340
15,19,Jits_Linear_5,100,9999,9999,9999,2091869304
15,19,Jits_Linear_5,101,9999,9999,9999,2092549216
15,19,Jits_Linear_5,102,9999,9999,9999,2093229144
15,19,Jits_Linear_5,103,9999,9999,9999,2093910140
15,19,Jits_Linear_5,104,9999,9999,9999,2094599248
15,19,Jits_Linear_5,105,9999,9999,9999,2095289432
15,19,Jits_Linear_5,106,9999,9999,9999,2095979592
15,19,Jits_Linear_5,107,9999,9999,9999,2096669804
15,19,Jits_Linear_5,108,9999,9999,9999,2097359952
15,19,Jits_Linear_5,109,9999,9999,9999,2098049116
15,19,Jits_Linear_5,110,9999,9999,9999,2098749556
15,19,Jits_Linear_5,111,9999,9999,9999,2099449916
15,19,Jits_Linear_5,112,9999,9999,9999,2100149344
15,19,Jits_Linear_5,113,9999,9999,9999,2100849768
15,19,Jits_Linear_5,114,9999,9999,9999,2101549116
15,19,Jits_Linear_5,115,9999,9999,9999,2102259792
15,19,Jits_Linear_5,116,9999,9999,9999,2102969408
15,19,Jits_Linear_5,117,9999,9999,9999,2103680108
15,19,Jits_Linear_5,118,9999,9999,9999,2104399952
15,19,Jits_Linear_5,119,9999,9999,9999,2105109564
15,19,Jits_Linear_5,120,9999,9999,9999,2105829460
15,19,Jits_Linear_5,121,9999,9999,9999,2106549336
15,19,Jits_Linear_5,122,9999,9999,9999,2107269240
15,19,Jits_Linear_5,123,9999,9999,9999,2107990128
15,19,Jits_Linear_5,124,9999,9999,9999,2108719176
15,19,Jits_Linear_5,125,9999,9999,9999,2109449324
15,19,Jits_Linear_5,126,9999,9999,9999,2110179424
15,19,Jits_Linear_5,127,9999,9999,9999,2110909556
15,19,Jits_Linear_5,128,9999,9999,9999,2111639648
15,19,Jits_Linear_5,129,9999,9999,9999,2112369756
15,19,Jits_Linear_5,130,9999,9999,9999,2113110124
15,19,Jits_Linear_5,131,9999,9999,9999,2113859696
15,19,Jits_Linear_5,132,9999,9999,9999,2114600064
15,19,Jits_Linear_5,133,9999,9999,9999,2115339376
15,19,Jits_Linear_5,134,9999,9999,9999,2116079704
15,19,Jits_Linear_5,135,9999,9999,9999,2116829268
15,19,Jits_Linear_5,136,9999,9999,9999,2117579888
15,19,Jits_Linear_5,137,9999,9999,9999,2118329436
15,19,Jits_Linear_5,138,9999,9999,9999,2119080056
15,19,Jits_Linear_5,139,9999,9999,9999,2119829568
15,19,Jits_Linear_5,140,9999,9999,9999,2120589408
15,19,Jits_Linear_5,141,9999,9999,9999,2121349184
15,19,Jits_Linear_5,142,9999,9999,9999,2122110008
15,19,Jits_Linear_5,143,9999,9999,9999,2122869840
15,19,Jits_Linear_5,144,9999,9999,9999,2123629668
15,19,Jits_Linear_5,145,9999,9999,9999,2124399696
15,19,Jits_Linear_5,146,9999,9999,9999,2125169740
15,19,Jits_Linear_5,147,9999,9999,9999,2125939772
15,19,Jits_Linear_5,148,9999,9999,9999,2126709868
15,19,Jits_Linear_5,149,9999,9999,9999,2127479908
15,19,Jits_Linear_5,150,9999,9999,9999,2128259156
15,19,Jits_Linear_5,151,9999,9999,9999,2129039452
15,19,Jits_Linear_5,152,9999,9999,9999,2129819756
15,19,Jits_Linear_5,153,9999,9999,9999,2130600036
15,19,Jits_Linear_5,154,9999,9999,9999,2131379276
15,19,Jits_Linear_5,155,9999,9999,9999,2132169852
15,19,Jits_Linear_5,156,9999,9999,9999,2132959344
15,19,Jits_Linear_5,157,9999,9999,9999,2133749816
15,19,Jits_Linear_5,158,9999,9999,9999,2134539324
15,19,Jits_Linear_5,159,9999,9999,9999,2135329876
15,19,Jits_Linear_5,160,9999,9999,9999,2136129644
15,19,Jits_Linear_5,161,9999,9999,9999,2136929356
15,19,Jits_Linear_5,162,9999,9999,9999,2137729136
15,19,Jits_Linear_5,163,9999,9999,9999,2138529892
15,19,Jits_Linear_5,164,9999,9999,9999,2139329660
15,19,Jits_Linear_5,165,9999,9999,9999,2140139644
15,19,Jits_Linear_5,166,9999,9999,9999,2140949600
15,19,Jits_Linear_5,167,9999,9999,9999,2141759576
15,19,Jits_Linear_5,168,9999,9999,9999,2142569536
15,19,Jits_Linear_5,169,9999,9999,9999,2143379572
16,7,Jits_ISO_8,0,5,56,103,2155190572
16,7,Jits_ISO_8,1,5,63,98,2155193596
16,7,Jits_ISO_8,2,5,80,127,2155196716
16,7,Jits_ISO_8,0,1,48,31,2155831420
16,7,Jits_ISO_8,1,5,56,103,2155991324
16,7,Jits_ISO_8,2,5,63,98,2155994420
16,7,Jits_ISO_8,3,5,80,127,2155997540
16,7,Jits_ISO_8,0,1,48,43,2156640172
16,7,Jits_ISO_8,1,5,80,127,2156730632
16,7,Jits_ISO_8,2,5,63,98,2156821076
16,7,Jits_ISO_8,3,5,56,103,2156831344
16,7,Jits_ISO_8,0,1,48,41,2157521200
16,7,Jits_ISO_8,1,5,56,103,2157551116
16,7,Jits_ISO_8,2,5,63,98,2157561312
16,7,Jits_ISO_8,3,5,80,127,2157651208
16,7,Jits_ISO_8,0,1,48,39,2158246624
16,7,Jits_ISO_8,1,5,63,98,2158321080
16,7,Jits_ISO_8,2,5,80,127,2158350596
16,7,Jits_ISO_8,3,5,56,103,2158381316
16,7,Jits_ISO_8,0,1,48,39,2159049356
16,7,Jits_ISO_8,1,5,56,103,2159120860
16,7,Jits_ISO_8,2,5,80,127,2159221020
16,7,Jits_ISO_8,3,5,63,98,2159271220
16,7,Jits_ISO_8,0,5,56,103,2159920428
16,7,Jits_ISO_8,1,5,80,127,2159970780
16,7,Jits_ISO_8,2,1,48,40,2159993080
16,7,Jits_ISO_8,3,5,63,98,2160010564
16,7,Jits_ISO_8,0,1,48,42,2160739300
16,7,Jits_ISO_8,1,5,80,127,2160750936
16,7,Jits_ISO_8,2,5,63,98,2160780760
16,7,Jits_ISO_8,3,5,56,103,2160851276
16,7,Jits_ISO_8,0,1,48,30,2161565596
16,7,Jits_ISO_8,1,5,63,98,2161581292
16,7,Jits_ISO_8,2,5,56,103,2161611216
16,7,Jits_ISO_8,3,5,80,127,2161670468
16,7,Jits_ISO_8,0,5,56,103,2162320844
16,7,Jits_ISO_8,1,5,80,127,2162323836
16,7,Jits_ISO_8,2,1,48,46,2162370940
16,7,Jits_ISO_8,3,5,63,98,2162440488
16,7,Jits_ISO_8,0,1,48,42,2163099828
16,7,Jits_ISO_8,1,5,56,103,2163201452
16,7,Jits_ISO_8,2,5,80,127,2163241392
16,7,Jits_ISO_8,3,5,63,98,2163250688
16,7,Jits_ISO_8,0,1,48,32,2163901708
16,7,Jits_ISO_8,1,5,56,103,2163961096
16,7,Jits_ISO_8,2,5,80,127,2163980732
16,7,Jits_ISO_8,3,5,63,98,2164060440
16,7,Jits_ISO_8,0,5,80,127,2164750924
16,7,Jits_ISO_8,1,1,48,38,2164830472
16,7,Jits_ISO_8,2,5,56,103,2164851020
16,7,Jits_ISO_8,3,5,63,98,2164861440
16,7,Jits_ISO_8,0,5,63,98,2165520880
16,7,Jits_ISO_8,1,5,80,127,2165581128
16,7,Jits_ISO_8,2,5,56,103,2165591396
16,7,Jits_ISO_8,3,1,48,33,2165673328
16,7,Jits_ISO_8,0,5,56,103,2166320436
16,7,Jits_ISO_8,1,1,48,40,2166345804
16,7,Jits_ISO_8,2,5,63,98,2166391004
16,7,Jits_ISO_8,3,5,80,127,2166394672
16,7,Jits_ISO_8,0,1,48,40,2167098988
16,7,Jits_ISO_8,1,5,63,98,2167151080
16,7,Jits_ISO_8,2,5,56,103,2167201120
16,7,Jits_ISO_8,3,5,80,127,2167204260
16,7,Jits_ISO_8,0,1,48,39,2167903700
16,7,Jits_ISO_8,1,5,56,103,2167910916
16,7,Jits_ISO_8,2,5,80,127,2167913908
16,7,Jits_ISO_8,3,5,63,98,2168000888
16,7,Jits_ISO_8,0,1,48,44,2168740940
16,7,Jits_ISO_8,1,5,63,98,2168750404
16,7,Jits_ISO_8,2,5,56,103,2168840772
16,7,Jits_ISO_8,3,5,80,127,2168871344
16,7,Jits_ISO_8,0,5,56,103,2169540856
16,7,Jits_ISO_8,1,1,48,40,2169605484
16,7,Jits_ISO_8,2,5,63,98,2169641252
16,7,Jits_ISO_8,3,5,80,127,2169671000
16,7,Jits_ISO_8,0,5,63,98,2170361188
16,7,Jits_ISO_8,1,5,56,103,2170370636
16,7,Jits_ISO_8,2,1,48,43,2170371600
16,7,Jits_ISO_8,3,5,80,127,2170460688
16,7,Jits_ISO_8,0,1,48,33,2171154272
16,7,Jits_ISO_8,1,5,63,98,2171181648
16,7,Jits_ISO_8,2,5,56,103,2171261428
16,7,Jits_ISO_8,3,5,80,127,2171264568
16,7,Jits_ISO_8,0,5,80,127,2171941276
16,7,Jits_ISO_8,1,5,63,98,2171960984
16,7,Jits_ISO_8,2,1,48,39,2172005084
16,7,Jits_ISO_8,3,5,56,103,2172021072
16,7,Jits_ISO_8,0,1,48,24,2172768844
16,7,Jits_ISO_8,1,5,56,103,2172780780
16,7,Jits_ISO_8,2,5,63,98,2172801460
16,7,Jits_ISO_8,3,5,80,127,2172804900
16,7,Jits_ISO_8,0,5,63,98,2173521220
16,7,Jits_ISO_8,1,1,48,45,2173537968
16,7,Jits_ISO_8,2,5,80,127,2173601236
16,7,Jits_ISO_8,3,5,56,103,2173611804
16,7,Jits_ISO_8,0,1,48,45,2174314972
16,7,Jits_ISO_8,1,5,63,98,2174340552
16,7,Jits_ISO_8,2,5,56,103,2174360864
16,7,Jits_ISO_8,3,5,80,127,2174411016
16,7,Jits_ISO_8,0,1,48,41,2175103516
16,7,Jits_ISO_8,1,5,80,127,2175141160
16,7,Jits_ISO_8,2,5,63,98,2175181124
16,7,Jits_ISO_8,3,5,56,103,2175200608
16,7,Jits_ISO_8,0,1,48,43,2175950756
16,7,Jits_ISO_8,1,5,56,103,2175980976
16,7,Jits_ISO_8,2,5,63,98,2175991172
16,7,Jits_ISO_8,3,5,80,127,2176010732
16,7,Jits_ISO_8,0,5,56,103,2176710940
16,7,Jits_ISO_8,1,1,48,31,2176744028
16,7,Jits_ISO_8,2,5,63,98,2176801072
16,7,Jits_ISO_8,3,5,80,127,2176860472
16,7,Jits_ISO_8,0,1,48,46,2177518952
16,7,Jits_ISO_8,1,5,80,127,2177540552
16,7,Jits_ISO_8,2,5,56,103,2177550596
16,7,Jits_ISO_8,3,5,63,98,2177621384
16,7,Jits_ISO_8,0,1,48,42,2178369932
16,7,Jits_ISO_8,1,5,63,98,2178371800
16,7,Jits_ISO_8,2,5,80,127,2178461392
16,7,Jits_ISO_8,3,5,56,103,2178471216
16,7,Jits_ISO_8,0,5,63,98,2179111432
16,7,Jits_ISO_8,1,5,80,127,2179160664
16,7,Jits_ISO_8,2,1,48,22,2179195996
16,7,Jits_ISO_8,3,5,56,103,2179220824
16,7,Jits_ISO_8,0,5,56,103,2179940808
16,7,Jits_ISO_8,1,1,48,38,2179944900
16,7,Jits_ISO_8,2,5,80,127,2179990780
16,7,Jits_ISO_8,3,5,63,98,2180011612
16,7,Jits_ISO_8,0,5,56,103,2180710708
16,7,Jits_ISO_8,1,1,48,44,2180758716
16,7,Jits_ISO_8,2,5,80,127,2180771168
16,7,Jits_ISO_8,3,5,63,98,2180840876
16,7,Jits_ISO_8,0,5,56,103,2181510576
16,7,Jits_ISO_8,1,5,80,127,2181541448
16,7,Jits_ISO_8,2,5,63,98,2181571000
16,7,Jits_ISO_8,3,1,48,27,2181613680
16,7,Jits_ISO_8,0,1,48,39,2182303736
16,7,Jits_ISO_8,1,5,56,103,2182351292
16,7,Jits_ISO_8,2,5,80,127,2182370632
16,7,Jits_ISO_8,3,5,63,98,2182431156
16,7,Jits_ISO_8,0,1,48,40,2183203792
16,7,Jits_ISO_8,1,5,80,127,2183230800
16,7,Jits_ISO_8,2,5,56,103,2183241068
16,7,Jits_ISO_8,3,5,63,98,2183251340
16,7,Jits_ISO_8,0,5,56,103,2183990512
16,7,Jits_ISO_8,1,5,80,127,2184030452
16,7,Jits_ISO_8,2,1,48,50,2184051552
16,7,Jits_ISO_8,3,5,63,98,2184061392
16,7,Jits_ISO_8,0,5,56,103,2184760792
16,7,Jits_ISO_8,1,5,63,98,2184791368
16,7,Jits_ISO_8,2,5,80,127,2184831380
16,7,Jits_ISO_8,3,1,48,31,2184836668
16,7,Jits_ISO_8,0,5,80,127,2185511440
16,7,Jits_ISO_8,1,5,63,98,2185560372
16,7,Jits_ISO_8,2,5,56,103,2185581056
16,7,Jits_ISO_8,3,1,48,40,2185583572
16,7,Jits_ISO_8,0,1,48,38,2186314796
16,7,Jits_ISO_8,1,5,56,103,2186340600
16,7,Jits_ISO_8,2,5,80,127,2186411316
16,7,Jits_ISO_8,3,5,63,98,2186470756
16,7,Jits_ISO_8,0,5,80,127,2187140392
16,7,Jits_ISO_8,1,5,63,98,2187230480
16,7,Jits_ISO_8,2,1,48,39,2187235620
16,7,Jits_ISO_8,3,5,56,103,2187251228
16,7,Jits_ISO_8,0,5,63,98,2187960648
16,7,Jits_ISO_8,1,5,56,103,2187981356
16,7,Jits_ISO_8,2,5,80,127,2188021296
16,7,Jits_ISO_8,3,1,48,48,2188023740
16,7,Jits_ISO_8,0,5,80,127,2188720424
16,7,Jits_ISO_8,1,5,63,98,2188741060
16,7,Jits_ISO_8,2,1,48,43,2188762164
16,7,Jits_ISO_8,3,5,56,103,2188820844
16,7,Jits_ISO_8,0,1,48,39,2189402256
16,7,Jits_ISO_8,1,5,63,98,2189511080
16,7,Jits_ISO_8,2,5,56,103,2189620548
16,7,Jits_ISO_8,3,5,80,127,2189623688
16,7,Jits_ISO_8,0,5,63,98,2190331404
16,7,Jits_ISO_8,1,1,48,33,2190332968
16,7,Jits_ISO_8,2,5,56,103,2190340468
16,7,Jits_ISO_8,3,5,80,127,2190343684
16,7,Jits_ISO_8,0,5,56,103,2191110420
16,7,Jits_ISO_8,1,1,48,39,2191135864
16,7,Jits_ISO_8,2,5,80,127,2191231476
16,7,Jits_ISO_8,3,5,63,98,2191271268
16,7,Jits_ISO_8,0,5,56,103,2191930828
16,7,Jits_ISO_8,1,5,80,127,2192010476
16,7,Jits_ISO_8,2,5,63,98,2192031156
16,7,Jits_ISO_8,3,1,48,34,2192034276
16,7,Jits_ISO_8,0,5,56,103,2192730476
16,7,Jits_ISO_8,1,1,48,38,2192840020
16,7,Jits_ISO_8,2,5,63,98,2192841840
16,7,Jits_ISO_8,3,5,80,127,2192845044
16,7,Jits_ISO_8,0,5,56,103,2193561132
16,7,Jits_ISO_8,1,5,80,127,2193590512
16,7,Jits_ISO_8,2,5,63,98,2193611144
16,7,Jits_ISO_8,3,1,48,46,2193626992
16,7,Jits_ISO_8,0,5,63,98,2194341152
16,7,Jits_ISO_8,1,5,56,103,2194350452
16,7,Jits_ISO_8,2,5,80,127,2194360720
16,7,Jits_ISO_8,3,1,48,47,2194363316
16,7,Jits_ISO_8,0,5,80,127,2195130668
16,7,Jits_ISO_8,1,1,48,39,2195148632
16,7,Jits_ISO_8,2,5,56,103,2195180888
16,7,Jits_ISO_8,3,5,63,98,2195220752
16,7,Jits_ISO_8,0,1,48,43,2195949200
16,7,Jits_ISO_8,1,5,80,127,2195950864
16,7,Jits_ISO_8,2,5,63,98,2195970352
16,7,Jits_ISO_8,3,5,56,103,2196020480
16,7,Jits_ISO_8,0,1,48,44,2196742976
16,7,Jits_ISO_8,1,5,80,127,2196761060
16,7,Jits_ISO_8,2,5,56,103,2196790588
16,7,Jits_ISO_8,3,5,63,98,2196861300
16,7,Jits_ISO_8,0,1,48,44,2197593784
16,7,Jits_ISO_8,1,5,56,103,2197611196
16,7,Jits_ISO_8,2,5,80,127,2197621168
16,7,Jits_ISO_8,3,5,63,98,2197660960
16,7,Jits_ISO_8,0,5,56,103,2198320560
16,7,Jits_ISO_8,1,5,63,98,2198340944
16,7,Jits_ISO_8,2,5,80,127,2198410552
16,7,Jits_ISO_8,3,1,48,41,2198442436
16,7,Jits_ISO_8,0,5,63,98,2199140660
16,7,Jits_ISO_8,1,1,48,40,2199154192
16,7,Jits_ISO_8,2,5,80,127,2199201120
16,7,Jits_ISO_8,3,5,56,103,2199220532
16,7,Jits_ISO_8,0,5,80,127,2199931228
16,7,Jits_ISO_8,1,5,56,103,2199960976
16,7,Jits_ISO_8,2,1,48,43,2199963568
16,7,Jits_ISO_8,3,5,63,98,2199990648
16,7,Jits_ISO_8,0,1,48,44,2200716000
16,7,Jits_ISO_8,1,5,56,103,2200731164
16,7,Jits_ISO_8,2,5,63,98,2200791360
16,7,Jits_ISO_8,3,5,80,127,2200850988
16,7,Jits_ISO_8,0,1,48,35,2201532124
16,7,Jits_ISO_8,1,5,80,127,2201551132
16,7,Jits_ISO_8,2,5,56,103,2201570768
16,7,Jits_ISO_8,3,5,63,98,2201641404
16,7,Jits_ISO_8,0,5,80,127,2202351148
16,7,Jits_ISO_8,1,1,48,45,2202359296
16,7,Jits_ISO_8,2,5,63,98,2202370480
16,7,Jits_ISO_8,3,5,56,103,2202401352
16,7,Jits_ISO_8,0,1,48,46,2203131808
16,7,Jits_ISO_8,1,5,80,127,2203140380
16,7,Jits_ISO_8,2,5,63,98,2203160836
16,7,Jits_ISO_8,3,5,56,103,2203221300
16,7,Jits_ISO_8,0,1,48,46,2203911960
16,7,Jits_ISO_8,1,5,80,127,2203941208
16,7,Jits_ISO_8,2,5,56,103,2204040472
16,7,Jits_ISO_8,3,5,63,98,2204071416
16,7,Jits_ISO_8,0,5,63,98,2204730812
16,7,Jits_ISO_8,1,5,80,127,2204781016
16,7,Jits_ISO_8,2,5,56,103,2204801328
16,7,Jits_ISO_8,3,1,48,35,2204850148
16,7,Jits_ISO_8,0,5,80,127,2205570456
16,7,Jits_ISO_8,1,1,48,40,2205579724
16,7,Jits_ISO_8,2,5,56,103,2205601172
16,7,Jits_ISO_8,3,5,63,98,2205604236
16,7,Jits_ISO_8,0,1,48,47,2206379212
16,7,Jits_ISO_8,1,5,63,98,2206400980
16,7,Jits_ISO_8,2,5,56,103,2206440920
16,7,Jits_ISO_8,3,5,80,127,2206461380
16,7,Jits_ISO_8,0,5,80,127,2207141192
16,7,Jits_ISO_8,1,1,48,25,2207172808
16,7,Jits_ISO_8,2,5,63,98,2207221156
16,7,Jits_ISO_8,3,5,56,103,2207261020
16,7,Jits_ISO_8,0,5,63,98,2207960572
16,7,Jits_ISO_8,1,1,48,30,2207995084
16,7,Jits_ISO_8,2,5,80,127,2208041336
16,7,Jits_ISO_8,3,5,56,103,2208060676
16,7,Jits_ISO_8,0,1,48,40,2208796136
16,7,Jits_ISO_8,1,5,56,103,2208801112
16,7,Jits_ISO_8,2,5,63,98,2208811308
16,7,Jits_ISO_8,3,5,80,127,2208851172
16,7,Jits_ISO_8,0,5,56,103,2209521036
16,7,Jits_ISO_8,1,5,80,127,2209523952
16,7,Jits_ISO_8,2,1,48,38,2209580796
16,7,Jits_ISO_8,3,5,63,98,2209661208
16,7,Jits_ISO_8,0,5,56,103,2210310632
16,7,Jits_ISO_8,1,5,63,98,2210400772
16,7,Jits_ISO_8,2,1,48,28,2210403668
16,7,Jits_ISO_8,3,5,80,127,2210471416
16,7,Jits_ISO_8,0,1,48,35,2211186068
16,7,Jits_ISO_8,1,5,63,98,2211191264
16,7,Jits_ISO_8,2,5,80,127,2211194704
16,7,Jits_ISO_8,3,5,56,103,2211250532
16,7,Jits_ISO_8,0,1,48,47,2211996632
16,7,Jits_ISO_8,1,5,80,127,2212030832
16,7,Jits_ISO_8,2,5,56,103,2212051392
16,7,Jits_ISO_8,3,5,63,98,2212060764
16,7,Jits_ISO_8,0,5,56,103,2212740648
16,7,Jits_ISO_8,1,5,63,98,2212750844
16,7,Jits_ISO_8,2,1,48,46,2212803736
16,7,Jits_ISO_8,3,5,80,127,2212821588
16,7,Jits_ISO_8,0,1,48,40,2213531944
16,7,Jits_ISO_8,1,5,80,127,2213541184
16,7,Jits_ISO_8,2,5,56,103,2213591340
16,7,Jits_ISO_8,3,5,63,98,2213640848
16,7,Jits_ISO_8,0,1,48,36,2214371688
16,7,Jits_ISO_8,1,5,56,103,2214420712
16,7,Jits_ISO_8,2,5,63,98,2214430984
16,7,Jits_ISO_8,3,5,80,127,2214470980
16,7,Jits_ISO_8,0,5,56,103,2215161320
16,7,Jits_ISO_8,1,1,48,39,2215199904
16,7,Jits_ISO_8,2,5,63,98,2215201772
16,7,Jits_ISO_8,3,5,80,127,2215251452
16,7,Jits_ISO_8,0,5,80,127,2215920960
16,7,Jits_ISO_8,1,5,56,103,2215971312
16,7,Jits_ISO_8,2,5,63,98,2215990580
16,7,Jits_ISO_8,3,1,48,43,2215993476
16,7,Jits_ISO_8,0,5,80,127,2216730872
16,7,Jits_ISO_8,1,1,48,35,2216732812
16,7,Jits_ISO_8,2,5,63,98,2216791556
16,7,Jits_ISO_8,3,5,56,103,2216871556
16,7,Jits_ISO_8,0,5,80,127,2217511636
16,7,Jits_ISO_8,1,5,56,103,2217551204
16,7,Jits_ISO_8,2,5,63,98,2217570616
16,7,Jits_ISO_8,3,1,48,38,2217572928
16,7,Jits_ISO_8,0,1,48,43,2218309456
16,7,Jits_ISO_8,1,5,56,103,2218361176
16,7,Jits_ISO_8,2,5,80,127,2218370624
16,7,Jits_ISO_8,3,5,63,98,2218411448
16,7,Jits_ISO_8,0,1,48,40,2219108248
16,7,Jits_ISO_8,1,5,56,103,2219230500
16,7,Jits_ISO_8,2,5,63,98,2219270588
16,7,Jits_ISO_8,3,5,80,127,2219273952
16,7,Jits_ISO_8,0,5,63,98,2219920816
16,7,Jits_ISO_8,1,5,80,127,2219960756
16,7,Jits_ISO_8,2,5,56,103,2220031732
16,7,Jits_ISO_8,3,1,48,33,2220046688
16,7,Jits_ISO_8,0,5,63,98,2220711456
16,7,Jits_ISO_8,1,1,48,41,2220738644
16,7,Jits_ISO_8,2,5,56,103,2220791348
16,7,Jits_ISO_8,3,5,80,127,2220850528
16,7,Jits_ISO_8,0,1,48,43,2221466248
16,7,Jits_ISO_8,1,5,80,127,2221521224
16,7,Jits_ISO_8,2,5,63,98,2221570516
16,7,Jits_ISO_8,3,5,56,103,2221601092
16,7,Jits_ISO_8,0,5,56,103,2222310676
16,7,Jits_ISO_8,1,1,48,38,2222322260
16,7,Jits_ISO_8,2,5,63,98,2222360796
16,7,Jits_ISO_8,3,5,80,127,2222371364
16,7,Jits_ISO_8,0,1,48,39,2223068632
16,7,Jits_ISO_8,1,5,56,103,2223120800
16,7,Jits_ISO_8,2,5,63,98,2223231520
16,7,Jits_ISO_8,3,5,80,127,2223250860
16,7,Jits_ISO_8,0,5,63,98,2223920368
16,7,Jits_ISO_8,1,5,80,127,2223970644
16,7,Jits_ISO_8,2,1,48,38,2223988512
16,7,Jits_ISO_8,3,5,56,103,2224060844
16,7,Jits_ISO_8,0,5,63,98,2224711084
16,7,Jits_ISO_8,1,5,80,127,2224740612
16,7,Jits_ISO_8,2,1,48,40,2224762832
16,7,Jits_ISO_8,3,5,56,103,2224830888
16,7,Jits_ISO_8,0,5,63,98,2225510764
16,7,Jits_ISO_8,1,5,56,103,2225521036
16,7,Jits_ISO_8,2,1,48,39,2225555316
16,7,Jits_ISO_8,3,5,80,127,2225621448
16,7,Jits_ISO_8,0,1,48,41,2226322420
16,7,Jits_ISO_8,1,5,63,98,2226410812
16,7,Jits_ISO_8,2,5,80,127,2226440624
16,7,Jits_ISO_8,3,5,56,103,2226471272
16,7,Jits_ISO_8,0,5,80,127,2227231288
16,7,Jits_ISO_8,1,5,63,98,2227241336
16,7,Jits_ISO_8,2,1,48,42,2227254644
16,7,Jits_ISO_8,3,5,56,103,2227271304
16,7,Jits_ISO_8,0,5,80,127,2227930476
16,7,Jits_ISO_8,1,5,63,98,2227951232
16,7,Jits_ISO_8,2,5,56,103,2228001356
16,7,Jits_ISO_8,3,1,48,41,2228087028
16,7,Jits_ISO_8,0,1,48,40,2228720272
16,7,Jits_ISO_8,1,5,63,98,2228761128
16,7,Jits_ISO_8,2,5,80,127,2228821356
16,7,Jits_ISO_8,3,5,56,103,2228840768
16,7,Jits_ISO_8,0,5,63,98,2229520764
16,7,Jits_ISO_8,1,1,48,43,2229564188
16,7,Jits_ISO_8,2,5,56,103,2229571108
16,7,Jits_ISO_8,3,5,80,127,2229581380
16,7,Jits_ISO_8,0,1,48,42,2230343884
16,7,Jits_ISO_8,1,5,56,103,2230351180
16,7,Jits_ISO_8,2,5,80,127,2230360480
16,7,Jits_ISO_8,3,5,63,98,2230460932
16,7,Jits_ISO_8,0,5,80,127,2231111260
16,7,Jits_ISO_8,1,5,63,98,2231121232
16,7,Jits_ISO_8,2,1,48,43,2231180992
16,7,Jits_ISO_8,3,5,56,103,2231270716
16,7,Jits_ISO_8,0,5,63,98,2231920944
16,7,Jits_ISO_8,1,5,80,127,2231961032
16,7,Jits_ISO_8,2,1,48,40,2231984004
16,7,Jits_ISO_8,3,5,56,103,2232040696
16,7,Jits_ISO_8,0,5,56,103,2232710540
16,7,Jits_ISO_8,1,1,48,44,2232721604
16,7,Jits_ISO_8,2,5,80,127,2232810956
16,7,Jits_ISO_8,3,5,63,98,2232831324
16,7,Jits_ISO_8,0,1,48,43,2233558808
16,7,Jits_ISO_8,1,5,80,127,2233570668
16,7,Jits_ISO_8,2,5,56,103,2233581088
16,7,Jits_ISO_8,3,5,63,98,2233671204
16,7,Jits_ISO_8,0,5,56,103,2234370464
16,7,Jits_ISO_8,1,5,63,98,2234390996
16,7,Jits_ISO_8,2,1,48,38,2234409556
16,7,Jits_ISO_8,3,5,80,127,2234470784
16,7,Jits_ISO_8,0,5,63,98,2235121112
16,7,Jits_ISO_8,1,1,48,38,2235160348
16,7,Jits_ISO_8,2,5,56,103,2235211168
16,7,Jits_ISO_8,3,5,80,127,2235214232
16,7,Jits_ISO_8,0,1,48,42,2235890816
16,7,Jits_ISO_8,1,5,56,103,2235950404
16,7,Jits_ISO_8,2,5,80,127,2236011004
16,7,Jits_ISO_8,3,5,63,98,2236021272
16,7,Jits_ISO_8,0,1,48,36,2236727000
16,7,Jits_ISO_8,1,5,80,127,2236801360
16,7,Jits_ISO_8,2,5,56,103,2236810656
16,7,Jits_ISO_8,3,5,63,98,2236813572
16,7,Jits_ISO_8,0,1,48,42,2237533528
16,7,Jits_ISO_8,1,5,56,103,2237561200
16,7,Jits_ISO_8,2,5,80,127,2237570576
16,7,Jits_ISO_8,3,5,63,98,2237590960
16,7,Jits_ISO_8,0,1,48,37,2238274572
16,7,Jits_ISO_8,1,5,63,98,2238331240
16,7,Jits_ISO_8,2,5,80,127,2238390720
16,7,Jits_ISO_8,3,5,56,103,2238441020
16,7,Jits_ISO_8,0,1,48,35,2239139996
16,7,Jits_ISO_8,1,5,63,98,2239210996
16,7,Jits_ISO_8,2,5,56,103,2239221192
16,7,Jits_ISO_8,3,5,80,127,2239271228
16,7,Jits_ISO_8,0,5,63,98,2239911340
16,7,Jits_ISO_8,1,5,80,127,2239930976
16,7,Jits_ISO_8,2,5,56,103,2239941052
16,7,Jits_ISO_8,3,1,48,40,2239993164
16,7,Jits_ISO_8,0,5,63,98,2240710996
16,7,Jits_ISO_8,1,5,80,127,2240714212
16,7,Jits_ISO_8,2,1,48,40,2240717104
16,7,Jits_ISO_8,3,5,56,103,2240750852
16,7,Jits_ISO_8,0,1,48,36,2241497008
16,7,Jits_ISO_8,1,5,63,98,2241581336
16,7,Jits_ISO_8,2,5,80,127,2241611144
16,7,Jits_ISO_8,3,5,56,103,2241621488
16,7,Jits_ISO_8,0,5,56,103,2242330852
16,7,Jits_ISO_8,1,1,48,34,2242347672
16,7,Jits_ISO_8,2,5,80,127,2242360968
16,7,Jits_ISO_8,3,5,63,98,2242391320
16,7,Jits_ISO_8,0,1,48,48,2243140580
16,7,Jits_ISO_8,1,5,63,98,2243231112
16,7,Jits_ISO_8,2,5,56,103,2243271136
16,7,Jits_ISO_8,3,5,80,127,2243274128
16,7,Jits_ISO_8,0,5,80,127,2243930432
16,7,Jits_ISO_8,1,1,48,35,2244008236
16,7,Jits_ISO_8,2,5,56,103,2244011344
16,7,Jits_ISO_8,3,5,63,98,2244060820
16,7,Jits_ISO_8,0,5,80,127,2244710972
16,7,Jits_ISO_8,1,5,56,103,2244731360
16,7,Jits_ISO_8,2,5,63,98,2244821368
16,7,Jits_ISO_8,3,1,48,43,2244834528
16,7,Jits_ISO_8,0,5,80,127,2245550328
16,7,Jits_ISO_8,1,1,48,38,2245583736
16,7,Jits_ISO_8,2,5,63,98,2245591260
16,7,Jits_ISO_8,3,5,56,103,2245631348
16,7,Jits_ISO_8,0,5,63,98,2246320604
16,7,Jits_ISO_8,1,1,48,34,2246335356
16,7,Jits_ISO_8,2,5,80,127,2246380940
16,7,Jits_ISO_8,3,5,56,103,2246410692
16,7,Jits_ISO_8,0,1,48,47,2247065804
16,7,Jits_ISO_8,1,5,56,103,2247121376
16,7,Jits_ISO_8,2,5,80,127,2247150904
16,7,Jits_ISO_8,3,5,63,98,2247241024
16,7,Jits_ISO_8,0,5,56,103,2247931204
16,7,Jits_ISO_8,1,1,48,45,2247960852
16,7,Jits_ISO_8,2,5,80,127,2248040888
16,7,Jits_ISO_8,3,5,63,98,2248070844
16,7,Jits_ISO_8,0,5,56,103,2248781128
16,7,Jits_ISO_8,1,1,48,43,2248801636
16,7,Jits_ISO_8,2,5,63,98,2248840616
16,7,Jits_ISO_8,3,5,80,127,2248871340
16,7,Jits_ISO_8,0,5,56,103,2249551340
16,7,Jits_ISO_8,1,5,63,98,2249620876
16,7,Jits_ISO_8,2,5,80,127,2249641260
16,7,Jits_ISO_8,3,1,48,45,2249721120
16,7,Jits_ISO_8,0,5,80,127,2250321320
16,7,Jits_ISO_8,1,5,63,98,2250340808
16,7,Jits_ISO_8,2,1,48,35,2250383784
16,7,Jits_ISO_8,3,5,56,103,2250390780
16,7,Jits_ISO_8,0,9999,9999,9999,2155588684
16,7,Jits_ISO_8,1,9999,9999,9999,2156388440
16,7,Jits_ISO_8,2,9999,9999,9999,2157188152
16,7,Jits_ISO_8,3,9999,9999,9999,2157988980
16,7,Jits_ISO_8,4,9999,9999,9999,2158788708
16,7,Jits_ISO_8,5,9999,9999,9999,2159588420
16,7,Jits_ISO_8,6,9999,9999,9999,2160388200
16,7,Jits_ISO_8,7,9999,9999,9999,2161188976
16,7,Jits_ISO_8,8,9999,9999,9999,2161988684
16,7,Jits_ISO_8,9,9999,9999,9999,2162788436
16,7,Jits_ISO_8,10,9999,9999,9999,2163588164
16,7,Jits_ISO_8,11,9999,9999,9999,2164388920
16,7,Jits_ISO_8,12,9999,9999,9999,2165188708
16,7,Jits_ISO_8,13,9999,9999,9999,2165988428
16,7,Jits_ISO_8,14,9999,9999,9999,2166788200
16,7,Jits_ISO_8,15,9999,9999,9999,2167588960
16,7,Jits_ISO_8,16,9999,9999,9999,2168388724
16,7,Jits_ISO_8,17,9999,9999,9999,2169188444
16,7,Jits_ISO_8,18,9999,9999,9999,2169988156
16,7,Jits_ISO_8,19,9999,9999,9999,2170788932
16,7,Jits_ISO_8,20,9999,9999,9999,2171588664
16,7,Jits_ISO_8,21,9999,9999,9999,2172388448
16,7,Jits_ISO_8,22,9999,9999,9999,2173188164
16,7,Jits_ISO_8,23,9999,9999,9999,2173988920
16,7,Jits_ISO_8,24,9999,9999,9999,2174788700
16,7,Jits_ISO_8,25,9999,9999,9999,2175588408
16,7,Jits_ISO_8,26,9999,9999,9999,2176388196
16,7,Jits_ISO_8,27,9999,9999,9999,2177188952
16,7,Jits_ISO_8,28,9999,9999,9999,2177988700
16,7,Jits_ISO_8,29,9999,9999,9999,2178788416
16,7,Jits_ISO_8,30,9999,9999,9999,2179588196
16,7,Jits_ISO_8,31,9999,9999,9999,2180388952
16,7,Jits_ISO_8,32,9999,9999,9999,2181188672
16,7,Jits_ISO_8,33,9999,9999,9999,2181988460
16,7,Jits_ISO_8,34,9999,9999,9999,2182788184
16,7,Jits_ISO_8,35,9999,9999,9999,2183588948
16,7,Jits_ISO_8,36,9999,9999,9999,2184388688
16,7,Jits_ISO_8,37,9999,9999,9999,2185188412
16,7,Jits_ISO_8,38,9999,9999,9999,2185988204
16,7,Jits_ISO_8,39,9999,9999,9999,2186788976
16,7,Jits_ISO_8,40,9999,9999,9999,2187588688
16,7,Jits_ISO_8,41,9999,9999,9999,2188388416
16,7,Jits_ISO_8,42,9999,9999,9999,2189188196
16,7,Jits_ISO_8,43,9999,9999,9999,2189988956
16,7,Jits_ISO_8,44,9999,9999,9999,2190788672
16,7,Jits_ISO_8,45,9999,9999,9999,2191588464
16,7,Jits_ISO_8,46,9999,9999,9999,2192388188
16,7,Jits_ISO_8,47,9999,9999,9999,2193188952
16,7,Jits_ISO_8,48,9999,9999,9999,2193988676
16,7,Jits_ISO_8,49,9999,9999,9999,2194788468
16,7,Jits_ISO_8,50,9999,9999,9999,2195588176
16,7,Jits_ISO_8,51,9999,9999,9999,2196388948
16,7,Jits_ISO_8,52,9999,9999,9999,2197188684
16,7,Jits_ISO_8,53,9999,9999,9999,2197988476
16,7,Jits_ISO_8,54,9999,9999,9999,2198788180
16,7,Jits_ISO_8,55,9999,9999,9999,2199588952
16,7,Jits_ISO_8,56,9999,9999,9999,2200388660
16,7,Jits_ISO_8,57,9999,9999,9999,2201188460
16,7,Jits_ISO_8,58,9999,9999,9999,2201988168
16,7,Jits_ISO_8,59,9999,9999,9999,2202788928
16,7,Jits_ISO_8,60,9999,9999,9999,2203588676
16,7,Jits_ISO_8,61,9999,9999,9999,2204388464
16,7,Jits_ISO_8,62,9999,9999,9999,2205188172
16,7,Jits_ISO_8,63,9999,9999,9999,2205988920
16,7,Jits_ISO_8,64,9999,9999,9999,2206788724
16,7,Jits_ISO_8,65,9999,9999,9999,2207588440
16,7,Jits_ISO_8,66,9999,9999,9999,2208388168
16,7,Jits_ISO_8,67,9999,9999,9999,2209188928
16,7,Jits_ISO_8,68,9999,9999,9999,2209988724
16,7,Jits_ISO_8,69,9999,9999,9999,2210788448
16,7,Jits_ISO_8,70,9999,9999,9999,2211588168
16,7,Jits_ISO_8,71,9999,9999,9999,2212388932
16,7,Jits_ISO_8,72,9999,9999,9999,2213188712
16,7,Jits_ISO_8,73,9999,9999,9999,2213988436
16,7,Jits_ISO_8,74,9999,9999,9999,2214788152
16,7,Jits_ISO_8,75,9999,9999,9999,2215588988
16,7,Jits_ISO_8,76,9999,9999,9999,2216388660
16,7,Jits_ISO_8,77,9999,9999,9999,2217188456
16,7,Jits_ISO_8,78,9999,9999,9999,2217988176
16,7,Jits_ISO_8,79,9999,9999,9999,2218788948
16,7,Jits_ISO_8,80,9999,9999,9999,2219588656
16,7,Jits_ISO_8,81,9999,9999,9999,2220388440
16,7,Jits_ISO_8,82,9999,9999,9999,2221188152
16,7,Jits_ISO_8,83,9999,9999,9999,2221988976
16,7,Jits_ISO_8,84,9999,9999,9999,2222788704
16,7,Jits_ISO_8,85,9999,9999,9999,2223588432
16,7,Jits_ISO_8,86,9999,9999,9999,2224388216
16,7,Jits_ISO_8,87,9999,9999,9999,2225188944
16,7,Jits_ISO_8,88,9999,9999,9999,2225988724
16,7,Jits_ISO_8,89,9999,9999,9999,2226788444
16,7,Jits_ISO_8,90,9999,9999,9999,2227588164
16,7,Jits_ISO_8,91,9999,9999,9999,2228388928
16,7,Jits_ISO_8,92,9999,9999,9999,2229188680
16,7,Jits_ISO_8,93,9999,9999,9999,2229988460
16,7,Jits_ISO_8,94,9999,9999,9999,2230788168
16,7,Jits_ISO_8,95,9999,9999,9999,2231588920
16,7,Jits_ISO_8,96,9999,9999,9999,2232388716
16,7,Jits_ISO_8,97,9999,9999,9999,2233188428
16,7,Jits_ISO_8,98,9999,9999,9999,2233988156
16,7,Jits_ISO_8,99,9999,9999,9999,2234788916
16,7,Jits_ISO_8,100,9999,9999,9999,2235588728
16,7,Jits_ISO_8,101,9999,9999,9999,2236388440
16,7,Jits_ISO_8,102,9999,9999,9999,2237188216
16,7,Jits_ISO_8,103,9999,9999,9999,2237988972
16,7,Jits_ISO_8,104,9999,9999,9999,2238788684
16,7,Jits_ISO_8,105,9999,9999,9999,2239588476
16,7,Jits_ISO_8,106,9999,9999,9999,2240388176
16,7,Jits_ISO_8,107,9999,9999,9999,2241188916
16,7,Jits_ISO_8,108,9999,9999,9999,2241988728
16,7,Jits_ISO_8,109,9999,9999,9999,2242788432
16,7,Jits_ISO_8,110,9999,9999,9999,2243588156
16,7,Jits_ISO_8,111,9999,9999,9999,2244388916
16,7,Jits_ISO_8,112,9999,9999,9999,2245188708
16,7,Jits_ISO_8,113,9999,9999,9999,2245988432
16,7,Jits_ISO_8,114,9999,9999,9999,2246788152
16,7,Jits_ISO_8,115,9999,9999,9999,2247588980
16,7,Jits_ISO_8,116,9999,9999,9999,2248388716
16,7,Jits_ISO_8,117,9999,9999,9999,2249188448
16,7,Jits_ISO_8,118,9999,9999,9999,2249988176
16,7,Jits_ISO_8,119,9999,9999,9999,2250788940
17,16,Jits_ISO_5,0,5,56,103,2260015400
17,16,Jits_ISO_5,1,5,63,98,2260018500
17,16,Jits_ISO_5,2,5,80,127,2260021700
17,16,Jits_ISO_5,0,5,56,103,2260516468
17,16,Jits_ISO_5,1,5,63,98,2260519496
17,16,Jits_ISO_5,2,5,80,127,2260522612
17,16,Jits_ISO_5,3,1,48,38,2260646800
17,16,Jits_ISO_5,0,5,56,103,2261015916
17,16,Jits_ISO_5,1,5,80,127,2261026260
17,16,Jits_ISO_5,2,5,63,98,2261045820
17,16,Jits_ISO_5,3,1,48,33,2261163412
17,16,Jits_ISO_5,0,5,63,98,2261465320
17,16,Jits_ISO_5,1,5,80,127,2261496564
17,16,Jits_ISO_5,2,5,56,103,2261506388
17,16,Jits_ISO_5,3,1,48,37,2261629808
17,16,Jits_ISO_5,0,5,80,127,2262025512
17,16,Jits_ISO_5,1,5,56,103,2262036004
17,16,Jits_ISO_5,2,1,48,34,2262040244
17,16,Jits_ISO_5,3,5,63,98,2262065448
17,16,Jits_ISO_5,0,5,63,98,2262516272
17,16,Jits_ISO_5,1,1,48,38,2262519016
17,16,Jits_ISO_5,2,5,56,103,2262545640
17,16,Jits_ISO_5,3,5,80,127,2262556208
17,16,Jits_ISO_5,0,5,56,103,2262965712
17,16,Jits_ISO_5,1,1,48,43,2263013668
17,16,Jits_ISO_5,2,5,63,98,2263016008
17,16,Jits_ISO_5,3,5,80,127,2263036464
17,16,Jits_ISO_5,0,5,80,127,2263466432
17,16,Jits_ISO_5,1,1,48,41,2263474284
17,16,Jits_ISO_5,2,5,63,98,2263515456
17,16,Jits_ISO_5,3,5,56,103,2263555392
17,16,Jits_ISO_5,0,5,56,103,2263966328
17,16,Jits_ISO_5,1,5,63,98,2263995632
17,16,Jits_ISO_5,2,1,48,43,2264009336
17,16,Jits_ISO_5,3,5,80,127,2264066300
17,16,Jits_ISO_5,0,5,56,103,2264465704
17,16,Jits_ISO_5,1,1,48,39,2264515448
17,16,Jits_ISO_5,2,5,80,127,2264526188
17,16,Jits_ISO_5,3,5,63,98,2264555860
17,16,Jits_ISO_5,0,5,56,103,2264975716
17,16,Jits_ISO_5,1,5,63,98,2264986432
17,16,Jits_ISO_5,2,1,48,42,2265009632
17,16,Jits_ISO_5,3,5,80,127,2265025940
17,16,Jits_ISO_5,0,5,63,98,2265466172
17,16,Jits_ISO_5,1,1,48,40,2265498132
17,16,Jits_ISO_5,2,5,80,127,2265546280
17,16,Jits_ISO_5,3,5,56,103,2265556328
17,16,Jits_ISO_5,0,1,48,43,2266008424
17,16,Jits_ISO_5,1,5,63,98,2266016244
17,16,Jits_ISO_5,2,5,56,103,2266056132
17,16,Jits_ISO_5,3,5,80,127,2266059120
17,16,Jits_ISO_5,0,5,56,103,2266475748
17,16,Jits_ISO_5,1,5,63,98,2266486392
17,16,Jits_ISO_5,2,1,48,40,2266503680
17,16,Jits_ISO_5,3,5,80,127,2266526320
17,16,Jits_ISO_5,0,5,56,103,2266966352
17,16,Jits_ISO_5,1,5,63,98,2266969344
17,16,Jits_ISO_5,2,5,80,127,2266985764
17,16,Jits_ISO_5,3,1,48,41,2267022736
17,16,Jits_ISO_5,0,1,48,45,2267481332
17,16,Jits_ISO_5,1,5,80,127,2267485560
17,16,Jits_ISO_5,2,5,56,103,2267495904
17,16,Jits_ISO_5,3,5,63,98,2267565356
17,16,Jits_ISO_5,0,5,63,98,2267976156
17,16,Jits_ISO_5,1,5,56,103,2267995420
17,16,Jits_ISO_5,2,1,48,40,2268029176
17,16,Jits_ISO_5,3,5,80,127,2268076324
17,16,Jits_ISO_5,0,5,56,103,2268486076
17,16,Jits_ISO_5,1,1,48,39,2268521560
17,16,Jits_ISO_5,2,5,80,127,2268526084
17,16,Jits_ISO_5,3,5,63,98,2268536132
17,16,Jits_ISO_5,0,5,80,127,2268975416
17,16,Jits_ISO_5,1,5,63,98,2269006284
17,16,Jits_ISO_5,2,1,48,44,2269012100
17,16,Jits_ISO_5,3,5,56,103,2269046288
17,16,Jits_ISO_5,0,5,56,103,2269495688
17,16,Jits_ISO_5,1,1,48,42,2269518212
17,16,Jits_ISO_5,2,5,63,98,2269526404
17,16,Jits_ISO_5,3,5,80,127,2269575632
17,16,Jits_ISO_5,0,5,80,127,2269996260
17,16,Jits_ISO_5,1,5,56,103,2270036272
17,16,Jits_ISO_5,2,1,48,39,2270041412
17,16,Jits_ISO_5,3,5,63,98,2270045564
17,16,Jits_ISO_5,0,5,80,127,2270475560
17,16,Jits_ISO_5,1,5,63,98,2270515500
17,16,Jits_ISO_5,2,1,48,42,2270540336
17,16,Jits_ISO_5,3,5,56,103,2270576176
17,16,Jits_ISO_5,0,5,56,103,2270976356
17,16,Jits_ISO_5,1,5,80,127,2270985504
17,16,Jits_ISO_5,2,1,48,42,2271015072
17,16,Jits_ISO_5,3,5,63,98,2271065360
17,16,Jits_ISO_5,0,5,80,127,2271476024
17,16,Jits_ISO_5,1,1,48,40,2271497280
17,16,Jits_ISO_5,2,5,63,98,2271535508
17,16,Jits_ISO_5,3,5,56,103,2271566156
17,16,Jits_ISO_5,0,5,56,103,2271975996
17,16,Jits_ISO_5,1,1,48,45,2271989600
17,16,Jits_ISO_5,2,5,80,127,2272036232
17,16,Jits_ISO_5,3,5,63,98,2272076240
17,16,Jits_ISO_5,0,1,48,43,2272489872
17,16,Jits_ISO_5,1,5,56,103,2272525788
17,16,Jits_ISO_5,2,5,63,98,2272536360
17,16,Jits_ISO_5,3,5,80,127,2272539568
17,16,Jits_ISO_5,0,5,80,127,2272976372
17,16,Jits_ISO_5,1,1,48,39,2272992748
17,16,Jits_ISO_5,2,5,63,98,2273066424
17,16,Jits_ISO_5,3,5,56,103,2273075572
17,16,Jits_ISO_5,0,5,56,103,2273476108
17,16,Jits_ISO_5,1,5,63,98,2273479280
17,16,Jits_ISO_5,2,5,80,127,2273482400
17,16,Jits_ISO_5,3,1,48,45,2273504040
17,16,Jits_ISO_5,0,1,48,38,2273956460
17,16,Jits_ISO_5,1,5,80,127,2273996068
17,16,Jits_ISO_5,2,5,63,98,2274046268
17,16,Jits_ISO_5,3,5,56,103,2274076152
17,16,Jits_ISO_5,0,5,56,103,2274476456
17,16,Jits_ISO_5,1,5,80,127,2274485528
17,16,Jits_ISO_5,2,1,48,32,2274527176
17,16,Jits_ISO_5,3,5,63,98,2274556344
17,16,Jits_ISO_5,0,5,56,103,2274995532
17,16,Jits_ISO_5,1,5,63,98,2275016164
17,16,Jits_ISO_5,2,1,48,42,2275058988
17,16,Jits_ISO_5,3,5,80,127,2275075500
17,16,Jits_ISO_5,0,5,80,127,2275486136
17,16,Jits_ISO_5,1,1,48,41,2275511800
17,16,Jits_ISO_5,2,5,63,98,2275555760
17,16,Jits_ISO_5,3,5,56,103,2275576068
17,16,Jits_ISO_5,0,5,80,127,2276006188
17,16,Jits_ISO_5,1,1,48,42,2276015116
17,16,Jits_ISO_5,2,5,56,103,2276016900
17,16,Jits_ISO_5,3,5,63,98,2276025900
17,16,Jits_ISO_5,0,5,80,127,2276495664
17,16,Jits_ISO_5,1,1,48,41,2276514000
17,16,Jits_ISO_5,2,5,56,103,2276516116
17,16,Jits_ISO_5,3,5,63,98,2276586116
17,16,Jits_ISO_5,0,5,56,103,2277005824
17,16,Jits_ISO_5,1,1,48,38,2277027004
17,16,Jits_ISO_5,2,5,80,127,2277036464
17,16,Jits_ISO_5,3,5,63,98,2277055976
17,16,Jits_ISO_5,0,5,63,98,2277496136
17,16,Jits_ISO_5,1,1,48,44,2277500004
17,16,Jits_ISO_5,2,5,56,103,2277555544
17,16,Jits_ISO_5,3,5,80,127,2277586144
17,16,Jits_ISO_5,0,5,63,98,2277985604
17,16,Jits_ISO_5,1,5,80,127,2277988892
17,16,Jits_ISO_5,2,1,48,43,2277992836
17,16,Jits_ISO_5,3,5,56,103,2278076040
17,16,Jits_ISO_5,0,1,48,35,2278502884
17,16,Jits_ISO_5,1,5,56,103,2278505992
17,16,Jits_ISO_5,2,5,63,98,2278535444
17,16,Jits_ISO_5,3,5,80,127,2278575452
17,16,Jits_ISO_5,0,1,48,43,2279015992
17,16,Jits_ISO_5,1,5,63,98,2279017328
17,16,Jits_ISO_5,2,5,56,103,2279056000
17,16,Jits_ISO_5,3,5,80,127,2279076160
17,16,Jits_ISO_5,0,1,48,38,2279475840
17,16,Jits_ISO_5,1,5,63,98,2279525760
17,16,Jits_ISO_5,2,5,56,103,2279565772
17,16,Jits_ISO_5,3,5,80,127,2279575880
17,16,Jits_ISO_5,0,1,48,44,2279988680
17,16,Jits_ISO_5,1,5,80,127,2280006016
17,16,Jits_ISO_5,2,5,63,98,2280075916
17,16,Jits_ISO_5,3,5,56,103,2280095988
17,16,Jits_ISO_5,0,5,56,103,2280495344
17,16,Jits_ISO_5,1,5,80,127,2280515952
17,16,Jits_ISO_5,2,5,63,98,2280555888
17,16,Jits_ISO_5,3,1,48,40,2280575568
17,16,Jits_ISO_5,0,5,63,98,2281005876
17,16,Jits_ISO_5,1,5,80,127,2281026040
17,16,Jits_ISO_5,2,5,56,103,2281065976
17,16,Jits_ISO_5,3,1,48,38,2281067988
17,16,Jits_ISO_5,0,5,63,98,2281506136
17,16,Jits_ISO_5,1,5,56,103,2281525696
17,16,Jits_ISO_5,2,5,80,127,2281535892
17,16,Jits_ISO_5,3,1,48,45,2281557664
17,16,Jits_ISO_5,0,1,48,36,2281987476
17,16,Jits_ISO_5,1,5,80,127,2282006008
17,16,Jits_ISO_5,2,5,56,103,2282026392
17,16,Jits_ISO_5,3,5,63,98,2282056064
17,16,Jits_ISO_5,0,1,48,40,2282509828
17,16,Jits_ISO_5,1,5,56,103,2282576308
17,16,Jits_ISO_5,2,5,80,127,2282579524
17,16,Jits_ISO_5,3,5,63,98,2282595868
17,16,Jits_ISO_5,0,5,63,98,2282995960
17,16,Jits_ISO_5,1,5,56,103,2283025708
17,16,Jits_ISO_5,2,1,48,41,2283045240
17,16,Jits_ISO_5,3,5,80,127,2283086236
17,16,Jits_ISO_5,0,1,48,37,2283541876
17,16,Jits_ISO_5,1,5,63,98,2283575920
17,16,Jits_ISO_5,2,5,56,103,2283585896
17,16,Jits_ISO_5,3,5,80,127,2283596016
17,16,Jits_ISO_5,0,5,56,103,2284026224
17,16,Jits_ISO_5,1,1,48,38,2284033620
17,16,Jits_ISO_5,2,5,80,127,2284055892
17,16,Jits_ISO_5,3,5,63,98,2284066088
17,16,Jits_ISO_5,0,1,48,38,2284512672
17,16,Jits_ISO_5,1,5,63,98,2284565824
17,16,Jits_ISO_5,2,5,56,103,2284576096
17,16,Jits_ISO_5,3,5,80,127,2284595656
17,16,Jits_ISO_5,0,1,48,33,2284996416
17,16,Jits_ISO_5,1,5,56,103,2284997760
17,16,Jits_ISO_5,2,5,63,98,2285056352
17,16,Jits_ISO_5,3,5,80,127,2285059712
17,16,Jits_ISO_5,0,5,80,127,2285515996
17,16,Jits_ISO_5,1,5,56,103,2285526268
17,16,Jits_ISO_5,2,1,48,41,2285549984
17,16,Jits_ISO_5,3,5,63,98,2285596012
17,16,Jits_ISO_5,0,5,80,127,2286005828
17,16,Jits_ISO_5,1,1,48,38,2286026060
17,16,Jits_ISO_5,2,5,56,103,2286076280
17,16,Jits_ISO_5,3,5,63,98,2286085728
17,16,Jits_ISO_5,0,1,48,40,2286526852
17,16,Jits_ISO_5,1,5,63,98,2286555648
17,16,Jits_ISO_5,2,5,56,103,2286565844
17,16,Jits_ISO_5,3,5,80,127,2286586152
17,16,Jits_ISO_5,0,5,80,127,2287005992
17,16,Jits_ISO_5,1,1,48,38,2287029860
17,16,Jits_ISO_5,2,5,63,98,2287065648
17,16,Jits_ISO_5,3,5,56,103,2287106632
17,16,Jits_ISO_5,0,5,56,103,2287545676
17,16,Jits_ISO_5,1,1,48,45,2287550912
17,16,Jits_ISO_5,2,5,63,98,2287555816
17,16,Jits_ISO_5,3,5,80,127,2287595824
17,16,Jits_ISO_5,0,5,56,103,2288005492
17,16,Jits_ISO_5,1,5,80,127,2288036140
17,16,Jits_ISO_5,2,1,48,40,2288038960
17,16,Jits_ISO_5,3,5,63,98,2288086804
17,16,Jits_ISO_5,0,5,56,103,2288546068
17,16,Jits_ISO_5,1,1,48,45,2288570308
17,16,Jits_ISO_5,2,5,63,98,2288585944
17,16,Jits_ISO_5,3,5,80,127,2288589236
17,16,Jits_ISO_5,0,5,56,103,2289045880
17,16,Jits_ISO_5,1,5,63,98,2289056224
17,16,Jits_ISO_5,2,5,80,127,2289075564
17,16,Jits_ISO_5,3,1,48,40,2289097436
17,16,Jits_ISO_5,0,5,56,103,2289505772
17,16,Jits_ISO_5,1,5,80,127,2289508688
17,16,Jits_ISO_5,2,5,63,98,2289545708
17,16,Jits_ISO_5,3,1,48,45,2289579988
17,16,Jits_ISO_5,0,1,48,36,2290046560
17,16,Jits_ISO_5,1,5,63,98,2290048128
17,16,Jits_ISO_5,2,5,56,103,2290075932
17,16,Jits_ISO_5,3,5,80,127,2290095864
17,16,Jits_ISO_5,0,5,80,127,2290525696
17,16,Jits_ISO_5,1,5,56,103,2290535744
17,16,Jits_ISO_5,2,5,63,98,2290545940
17,16,Jits_ISO_5,3,1,48,41,2290557524
17,16,Jits_ISO_5,0,5,56,103,2291026412
17,16,Jits_ISO_5,1,1,48,40,2291036508
17,16,Jits_ISO_5,2,5,80,127,2291066124
17,16,Jits_ISO_5,3,5,63,98,2291095800
17,16,Jits_ISO_5,0,5,63,98,2291536204
17,16,Jits_ISO_5,1,5,80,127,2291545428
17,16,Jits_ISO_5,2,5,56,103,2291555548
17,16,Jits_ISO_5,3,1,48,27,2291563844
17,16,Jits_ISO_5,0,1,48,42,2291991540
17,16,Jits_ISO_5,1,5,56,103,2292015628
17,16,Jits_ISO_5,2,5,63,98,2292086056
17,16,Jits_ISO_5,3,5,80,127,2292096536
17,16,Jits_ISO_5,0,5,80,127,2292516192
17,16,Jits_ISO_5,1,1,48,27,2292518132
17,16,Jits_ISO_5,2,5,56,103,2292525560
17,16,Jits_ISO_5,3,5,63,98,2292575460
17,16,Jits_ISO_5,0,5,80,127,2293026276
17,16,Jits_ISO_5,1,1,48,36,2293027240
17,16,Jits_ISO_5,2,5,56,103,2293085464
17,16,Jits_ISO_5,3,5,63,98,2293116556
17,16,Jits_ISO_5,0,5,56,103,2293525952
17,16,Jits_ISO_5,1,5,80,127,2293528868
17,16,Jits_ISO_5,2,1,48,39,2293561200
17,16,Jits_ISO_5,3,5,63,98,2293565956
17,16,Jits_ISO_5,0,1,48,44,2294031944
17,16,Jits_ISO_5,1,5,56,103,2294056548
17,16,Jits_ISO_5,2,5,63,98,2294085852
17,16,Jits_ISO_5,3,5,80,127,2294096492
17,16,Jits_ISO_5,0,1,48,41,2294533420
17,16,Jits_ISO_5,1,5,63,98,2294566472
17,16,Jits_ISO_5,2,5,80,127,2294575696
17,16,Jits_ISO_5,3,5,56,103,2294585744
17,16,Jits_ISO_5,0,1,48,41,2295006776
17,16,Jits_ISO_5,1,5,80,127,2295015716
17,16,Jits_ISO_5,2,5,56,103,2295065916
17,16,Jits_ISO_5,3,5,63,98,2295069056
17,16,Jits_ISO_5,0,1,48,37,2295501616
17,16,Jits_ISO_5,1,5,56,103,2295546376
17,16,Jits_ISO_5,2,5,80,127,2295565640
17,16,Jits_ISO_5,3,5,63,98,2295575908
17,16,Jits_ISO_5,0,1,48,24,2296024160
17,16,Jits_ISO_5,1,5,63,98,2296025880
17,16,Jits_ISO_5,2,5,56,103,2296056228
17,16,Jits_ISO_5,3,5,80,127,2296075492
17,16,Jits_ISO_5,0,1,48,42,2296524392
17,16,Jits_ISO_5,1,5,56,103,2296536624
17,16,Jits_ISO_5,2,5,80,127,2296545624
17,16,Jits_ISO_5,3,5,63,98,2296616572
17,16,Jits_ISO_5,0,1,48,43,2297019552
17,16,Jits_ISO_5,1,5,63,98,2297025872
17,16,Jits_ISO_5,2,5,80,127,2297065812
17,16,Jits_ISO_5,3,5,56,103,2297105748
17,16,Jits_ISO_5,0,1,48,41,2297523468
17,16,Jits_ISO_5,1,5,56,103,2297535796
17,16,Jits_ISO_5,2,5,63,98,2297546440
17,16,Jits_ISO_5,3,5,80,127,2297565476
17,16,Jits_ISO_5,0,1,48,41,2298021384
17,16,Jits_ISO_5,1,5,63,98,2298085796
17,16,Jits_ISO_5,2,5,80,127,2298106480
17,16,Jits_ISO_5,3,5,56,103,2298125580
17,16,Jits_ISO_5,0,5,56,103,2298526252
17,16,Jits_ISO_5,1,1,48,40,2298556368
17,16,Jits_ISO_5,2,5,80,127,2298605916
17,16,Jits_ISO_5,3,5,63,98,2298616260
17,16,Jits_ISO_5,0,1,48,44,2299045676
17,16,Jits_ISO_5,1,5,80,127,2299065704
17,16,Jits_ISO_5,2,5,63,98,2299075852
17,16,Jits_ISO_5,3,5,56,103,2299105672
17,16,Jits_ISO_5,0,5,63,98,2299525440
17,16,Jits_ISO_5,1,1,48,35,2299557548
17,16,Jits_ISO_5,2,5,80,127,2299565444
17,16,Jits_ISO_5,3,5,56,103,2299625932
17,16,Jits_ISO_5,0,5,63,98,2300035436
17,16,Jits_ISO_5,1,1,48,45,2300066500
17,16,Jits_ISO_5,2,5,56,103,2300085556
17,16,Jits_ISO_5,3,5,80,127,2300116228
17,16,Jits_ISO_5,0,5,80,127,2300546408
17,16,Jits_ISO_5,1,5,63,98,2300555780
17,16,Jits_ISO_5,2,1,48,37,2300557864
17,16,Jits_ISO_5,3,5,56,103,2300626448
17,16,Jits_ISO_5,0,1,48,21,2301057956
17,16,Jits_ISO_5,1,5,80,127,2301115776
17,16,Jits_ISO_5,2,5,56,103,2301126272
17,16,Jits_ISO_5,3,5,63,98,2301129184
17,16,Jits_ISO_5,0,5,56,103,2301556372
17,16,Jits_ISO_5,1,5,80,127,2301575560
17,16,Jits_ISO_5,2,5,63,98,2301585760
17,16,Jits_ISO_5,3,1,48,34,2301607160
17,16,Jits_ISO_5,0,5,63,98,2302076276
17,16,Jits_ISO_5,1,1,48,45,2302086220
17,16,Jits_ISO_5,2,5,56,103,2302116284
17,16,Jits_ISO_5,3,5,80,127,2302135768
17,16,Jits_ISO_5,0,5,63,98,2302576236
17,16,Jits_ISO_5,1,1,48,41,2302582572
17,16,Jits_ISO_5,2,5,56,103,2302636396
17,16,Jits_ISO_5,3,5,80,127,2302639612
17,16,Jits_ISO_5,0,5,56,103,2303035740
17,16,Jits_ISO_5,1,5,80,127,2303056196
17,16,Jits_ISO_5,2,5,63,98,2303096284
17,16,Jits_ISO_5,3,1,48,40,2303107496
17,16,Jits_ISO_5,0,5,56,103,2303566128
17,16,Jits_ISO_5,1,5,63,98,2303585764
17,16,Jits_ISO_5,2,1,48,39,2303589856
17,16,Jits_ISO_5,3,5,80,127,2303595880
17,16,Jits_ISO_5,0,5,80,127,2304036136
17,16,Jits_ISO_5,1,1,48,37,2304061872
17,16,Jits_ISO_5,2,5,56,103,2304066176
17,16,Jits_ISO_5,3,5,63,98,2304105816
17,16,Jits_ISO_5,0,5,80,127,2304546144
17,16,Jits_ISO_5,1,5,56,103,2304565484
17,16,Jits_ISO_5,2,1,48,42,2304573852
17,16,Jits_ISO_5,3,5,63,98,2304626160
17,16,Jits_ISO_5,0,5,56,103,2305056376
17,16,Jits_ISO_5,1,1,48,23,2305073820
17,16,Jits_ISO_5,2,5,80,127,2305075484
17,16,Jits_ISO_5,3,5,63,98,2305136244
17,16,Jits_ISO_5,0,5,80,127,2305536272
17,16,Jits_ISO_5,1,5,56,103,2305545496
17,16,Jits_ISO_5,2,5,63,98,2305585580
17,16,Jits_ISO_5,3,1,48,14,2305596868
17,16,Jits_ISO_5,0,1,48,26,2306031032
17,16,Jits_ISO_5,1,5,63,98,2306036308
17,16,Jits_ISO_5,2,5,56,103,2306076168
17,16,Jits_ISO_5,3,5,80,127,2306079236
17,16,Jits_ISO_5,0,1,48,39,2306477392
17,16,Jits_ISO_5,1,1,48,26,2306526768
17,16,Jits_ISO_5,2,5,63,98,2306556236
17,16,Jits_ISO_5,3,5,80,127,2306596252
17,16,Jits_ISO_5,4,5,56,103,2306626132
17,16,Jits_ISO_5,0,1,48,42,2307036212
17,16,Jits_ISO_5,1,5,56,103,2307045896
17,16,Jits_ISO_5,2,5,63,98,2307056240
17,16,Jits_ISO_5,3,5,80,127,2307085768
17,16,Jits_ISO_5,0,5,80,127,2307536192
17,16,Jits_ISO_5,1,1,48,19,2307568080
17,16,Jits_ISO_5,2,5,63,98,2307606088
17,16,Jits_ISO_5,3,5,56,103,2307616208
17,16,Jits_ISO_5,0,5,63,98,2308036088
17,16,Jits_ISO_5,1,1,48,44,2308090300
17,16,Jits_ISO_5,2,5,56,103,2308105612
17,16,Jits_ISO_5,3,5,80,127,2308116032
17,16,Jits_ISO_5,0,5,63,98,2308536092
17,16,Jits_ISO_5,1,1,48,46,2308540880
17,16,Jits_ISO_5,2,5,56,103,2308556340
17,16,Jits_ISO_5,3,5,80,127,2308596056
17,16,Jits_ISO_5,0,1,48,49,2309027616
17,16,Jits_ISO_5,1,5,56,103,2309045628
17,16,Jits_ISO_5,2,5,63,98,2309055996
17,16,Jits_ISO_5,3,5,80,127,2309135996
17,16,Jits_ISO_5,0,1,48,48,2309506600
17,16,Jits_ISO_5,1,5,63,98,2309546480
17,16,Jits_ISO_5,2,5,56,103,2309576032
17,16,Jits_ISO_5,3,5,80,127,2309616104
17,16,Jits_ISO_5,0,1,48,46,2310023868
17,16,Jits_ISO_5,1,5,56,103,2310046212
17,16,Jits_ISO_5,2,5,63,98,2310086100
17,16,Jits_ISO_5,3,5,80,127,2310126172
17,16,Jits_ISO_5,0,1,48,45,2310532648
17,16,Jits_ISO_5,1,5,80,127,2310545796
17,16,Jits_ISO_5,2,5,56,103,2310625616
17,16,Jits_ISO_5,3,5,63,98,2310636096
17,16,Jits_ISO_5,0,1,48,36,2311048120
17,16,Jits_ISO_5,1,5,56,103,2311085536
17,16,Jits_ISO_5,2,5,63,98,2311088452
17,16,Jits_ISO_5,3,5,80,127,2311095956
17,16,Jits_ISO_5,0,1,48,39,2311543316
17,16,Jits_ISO_5,1,5,56,103,2311605616
17,16,Jits_ISO_5,2,5,63,98,2311626172
17,16,Jits_ISO_5,3,5,80,127,2311636368
17,16,Jits_ISO_5,0,5,63,98,2312066400
17,16,Jits_ISO_5,1,5,80,127,2312075772
17,16,Jits_ISO_5,2,1,48,37,2312079416
17,16,Jits_ISO_5,3,5,56,103,2312096076
17,16,Jits_ISO_5,0,5,63,98,2312566204
17,16,Jits_ISO_5,1,1,48,42,2312578988
17,16,Jits_ISO_5,2,5,56,103,2312646164
17,16,Jits_ISO_5,3,5,80,127,2312649232
17,16,Jits_ISO_5,0,1,48,41,2313057884
17,16,Jits_ISO_5,1,5,63,98,2313066000
17,16,Jits_ISO_5,2,5,56,103,2313086384
17,16,Jits_ISO_5,3,5,80,127,2313116132
17,16,Jits_ISO_5,0,5,56,103,2313576004
17,16,Jits_ISO_5,1,1,48,51,2313592904
17,16,Jits_ISO_5,2,5,63,98,2313596160
17,16,Jits_ISO_5,3,5,80,127,2313605532
17,16,Jits_ISO_5,0,1,48,38,2314072116
17,16,Jits_ISO_5,1,5,56,103,2314106236
17,16,Jits_ISO_5,2,5,63,98,2314135984
17,16,Jits_ISO_5,3,5,80,127,2314139196
17,16,Jits_ISO_5,0,5,56,103,2314555972
17,16,Jits_ISO_5,1,1,48,41,2314591456
17,16,Jits_ISO_5,2,5,63,98,2314595832
17,16,Jits_ISO_5,3,5,80,127,2314656068
17,16,Jits_ISO_5,0,1,48,37,2315053672
17,16,Jits_ISO_5,1,5,56,103,2315076092
17,16,Jits_ISO_5,2,5,63,98,2315086140
17,16,Jits_ISO_5,3,5,80,127,2315145556
17,16,Jits_ISO_5,0,1,48,41,2315552044
17,16,Jits_ISO_5,1,5,56,103,2315575752
17,16,Jits_ISO_5,2,5,80,127,2315596064
17,16,Jits_ISO_5,3,5,63,98,2315625960
17,16,Jits_ISO_5,0,1,48,46,2316042780
17,16,Jits_ISO_5,1,5,80,127,2316076528
17,16,Jits_ISO_5,2,5,56,103,2316085904
17,16,Jits_ISO_5,3,5,63,98,2316106136
17,16,Jits_ISO_5,0,1,48,41,2316544700
17,16,Jits_ISO_5,1,5,63,98,2316565852
17,16,Jits_ISO_5,2,5,80,127,2316645852
17,16,Jits_ISO_5,3,5,56,103,2316656124
17,16,Jits_ISO_5,0,1,48,49,2317041128
17,16,Jits_ISO_5,1,5,80,127,2317125900
17,16,Jits_ISO_5,2,5,56,103,2317145664
17,16,Jits_ISO_5,3,5,63,98,2317148880
17,16,Jits_ISO_5,0,5,63,98,2317595964
17,16,Jits_ISO_5,1,5,80,127,2317599252
17,16,Jits_ISO_5,2,1,48,37,2317607028
17,16,Jits_ISO_5,3,5,56,103,2317656716
17,16,Jits_ISO_5,0,5,56,103,2318076212
17,16,Jits_ISO_5,1,5,80,127,2318085436
17,16,Jits_ISO_5,2,1,48,43,2318114780
17,16,Jits_ISO_5,3,5,63,98,2318125516
17,16,Jits_ISO_5,0,5,56,103,2318555436
17,16,Jits_ISO_5,1,5,63,98,2318615972
17,16,Jits_ISO_5,2,1,48,38,2318621560
17,16,Jits_ISO_5,3,5,80,127,2318626164
17,16,Jits_ISO_5,0,5,63,98,2319065448
17,16,Jits_ISO_5,1,5,80,127,2319106432
17,16,Jits_ISO_5,2,1,48,29,2319116972
17,16,Jits_ISO_5,3,5,56,103,2319146360
17,16,Jits_ISO_5,0,5,56,103,2319566076
17,16,Jits_ISO_5,1,1,48,30,2319605240
17,16,Jits_ISO_5,2,5,63,98,2319646164
17,16,Jits_ISO_5,3,5,80,127,2319649452
17,16,Jits_ISO_5,0,9999,9999,9999,2260264028
17,16,Jits_ISO_5,1,9999,9999,9999,2260763728
17,16,Jits_ISO_5,2,9999,9999,9999,2261263476
17,16,Jits_ISO_5,3,9999,9999,9999,2261763148
17,16,Jits_ISO_5,4,9999,9999,9999,2262263932
17,16,Jits_ISO_5,5,9999,9999,9999,2262763608
17,16,Jits_ISO_5,6,9999,9999,9999,2263263340
17,16,Jits_ISO_5,7,9999,9999,9999,2263764064
17,16,Jits_ISO_5,8,9999,9999,9999,2264263736
17,16,Jits_ISO_5,9,9999,9999,9999,2264763460
17,16,Jits_ISO_5,10,9999,9999,9999,2265263204
17,16,Jits_ISO_5,11,9999,9999,9999,2265763928
17,16,Jits_ISO_5,12,9999,9999,9999,2266263656
17,16,Jits_ISO_5,13,9999,9999,9999,2266763388
17,16,Jits_ISO_5,14,9999,9999,9999,2267264092
17,16,Jits_ISO_5,15,9999,9999,9999,2267774028
17,16,Jits_ISO_5,16,9999,9999,9999,2268273760
17,16,Jits_ISO_5,17,9999,9999,9999,2268773496
17,16,Jits_ISO_5,18,9999,9999,9999,2269273168
17,16,Jits_ISO_5,19,9999,9999,9999,2269773888
17,16,Jits_ISO_5,20,9999,9999,9999,2270273640
17,16,Jits_ISO_5,21,9999,9999,9999,2270773312
17,16,Jits_ISO_5,22,9999,9999,9999,2271274104
17,16,Jits_ISO_5,23,9999,9999,9999,2271773780
17,16,Jits_ISO_5,24,9999,9999,9999,2272273528
17,16,Jits_ISO_5,25,9999,9999,9999,2272773200
17,16,Jits_ISO_5,26,9999,9999,9999,2273273980
17,16,Jits_ISO_5,27,9999,9999,9999,2273773628
17,16,Jits_ISO_5,28,9999,9999,9999,2274273380
17,16,Jits_ISO_5,29,9999,9999,9999,2274774080
17,16,Jits_ISO_5,30,9999,9999,9999,2275284020
17,16,Jits_ISO_5,31,9999,9999,9999,2275783768
17,16,Jits_ISO_5,32,9999,9999,9999,2276283504
17,16,Jits_ISO_5,33,9999,9999,9999,2276783228
17,16,Jits_ISO_5,34,9999,9999,9999,2277283952
17,16,Jits_ISO_5,35,9999,9999,9999,2277783628
17,16,Jits_ISO_5,36,9999,9999,9999,2278283344
17,16,Jits_ISO_5,37,9999,9999,9999,2278784120
17,16,Jits_ISO_5,38,9999,9999,9999,2279294044
17,16,Jits_ISO_5,39,9999,9999,9999,2279793780
17,16,Jits_ISO_5,40,9999,9999,9999,2280293440
17,16,Jits_ISO_5,41,9999,9999,9999,2280793172
17,16,Jits_ISO_5,42,9999,9999,9999,2281293892
17,16,Jits_ISO_5,43,9999,9999,9999,2281793620
17,16,Jits_ISO_5,44,9999,9999,9999,2282293352
17,16,Jits_ISO_5,45,9999,9999,9999,2282794052
17,16,Jits_ISO_5,46,9999,9999,9999,2283293784
17,16,Jits_ISO_5,47,9999,9999,9999,2283793528
17,16,Jits_ISO_5,48,9999,9999,9999,2284293188
17,16,Jits_ISO_5,49,9999,9999,9999,2284793916
17,16,Jits_ISO_5,50,9999,9999,9999,2285293640
17,16,Jits_ISO_5,51,9999,9999,9999,2285793372
17,16,Jits_ISO_5,52,9999,9999,9999,2286294100
17,16,Jits_ISO_5,53,9999,9999,9999,2286804036
17,16,Jits_ISO_5,54,9999,9999,9999,2287303772
17,16,Jits_ISO_5,55,9999,9999,9999,2287803448
17,16,Jits_ISO_5,56,9999,9999,9999,2288303168
17,16,Jits_ISO_5,57,9999,9999,9999,2288803956
17,16,Jits_ISO_5,58,9999,9999,9999,2289303628
17,16,Jits_ISO_5,59,9999,9999,9999,2289803364
17,16,Jits_ISO_5,60,9999,9999,9999,2290304088
17,16,Jits_ISO_5,61,9999,9999,9999,2290814004
17,16,Jits_ISO_5,62,9999,9999,9999,2291313756
17,16,Jits_ISO_5,63,9999,9999,9999,2291813432
17,16,Jits_ISO_5,64,9999,9999,9999,2292313164
17,16,Jits_ISO_5,65,9999,9999,9999,2292813944
17,16,Jits_ISO_5,66,9999,9999,9999,2293313620
17,16,Jits_ISO_5,67,9999,9999,9999,2293813356
17,16,Jits_ISO_5,68,9999,9999,9999,2294314080
17,16,Jits_ISO_5,69,9999,9999,9999,2294813816
17,16,Jits_ISO_5,70,9999,9999,9999,2295313464
17,16,Jits_ISO_5,71,9999,9999,9999,2295813200
17,16,Jits_ISO_5,72,9999,9999,9999,2296313976
17,16,Jits_ISO_5,73,9999,9999,9999,2296813636
17,16,Jits_ISO_5,74,9999,9999,9999,2297313372
17,16,Jits_ISO_5,75,9999,9999,9999,2297814072
17,16,Jits_ISO_5,76,9999,9999,9999,2298324076
17,16,Jits_ISO_5,77,9999,9999,9999,2298823736
17,16,Jits_ISO_5,78,9999,9999,9999,2299323484
17,16,Jits_ISO_5,79,9999,9999,9999,2299823196
17,16,Jits_ISO_5,80,9999,9999,9999,2300323900
17,16,Jits_ISO_5,81,9999,9999,9999,2300823632
17,16,Jits_ISO_5,82,9999,9999,9999,2301323380
17,16,Jits_ISO_5,83,9999,9999,9999,2301824084
17,16,Jits_ISO_5,84,9999,9999,9999,2302334028
17,16,Jits_ISO_5,85,9999,9999,9999,2302833756
17,16,Jits_ISO_5,86,9999,9999,9999,2303333488
17,16,Jits_ISO_5,87,9999,9999,9999,2303833168
17,16,Jits_ISO_5,88,9999,9999,9999,2304333888
17,16,Jits_ISO_5,89,9999,9999,9999,2304833632
17,16,Jits_ISO_5,90,9999,9999,9999,2305333308
17,16,Jits_ISO_5,91,9999,9999,9999,2305834096
17,16,Jits_ISO_5,92,9999,9999,9999,2306333756
17,16,Jits_ISO_5,93,9999,9999,9999,2306833472
17,16,Jits_ISO_5,94,9999,9999,9999,2307333240
17,16,Jits_ISO_5,95,9999,9999,9999,2307833948
17,16,Jits_ISO_5,96,9999,9999,9999,2308333692
17,16,Jits_ISO_5,97,9999,9999,9999,2308833344
17,16,Jits_ISO_5,98,9999,9999,9999,2309334120
17,16,Jits_ISO_5,99,9999,9999,9999,2309844044
17,16,Jits_ISO_5,100,9999,9999,9999,2310343772
17,16,Jits_ISO_5,101,9999,9999,9999,2310843508
17,16,Jits_ISO_5,102,9999,9999,9999,2311343180
17,16,Jits_ISO_5,103,9999,9999,9999,2311843892
17,16,Jits_ISO_5,104,9999,9999,9999,2312343624
17,16,Jits_ISO_5,105,9999,9999,9999,2312843352
17,16,Jits_ISO_5,106,9999,9999,9999,2313344056
17,16,Jits_ISO_5,107,9999,9999,9999,2313854052
17,16,Jits_ISO_5,108,9999,9999,9999,2314353768
17,16,Jits_ISO_5,109,9999,9999,9999,2314853428
17,16,Jits_ISO_5,110,9999,9999,9999,2315353176
17,16,Jits_ISO_5,111,9999,9999,9999,2315853884
17,16,Jits_ISO_5,112,9999,9999,9999,2316353612
17,16,Jits_ISO_5,113,9999,9999,9999,2316853352
17,16,Jits_ISO_5,114,9999,9999,9999,2317354052
17,16,Jits_ISO_5,115,9999,9999,9999,2317853780
17,16,Jits_ISO_5,116,9999,9999,9999,2318353516
17,16,Jits_ISO_5,117,9999,9999,9999,2318853188
17,16,Jits_ISO_5,118,9999,9999,9999,2319353908
17,16,Jits_ISO_5,119,9999,9999,9999,2319853636
18,15,Jits_Phase_8,0,5,56,103,2330229220
18,15,Jits_Phase_8,1,5,63,98,2330232468
18,15,Jits_Phase_8,2,5,80,127,2330235512
18,15,Jits_Phase_8,0,1,48,33,2330710920
18,15,Jits_Phase_8,1,5,56,103,2331028764
18,15,Jits_Phase_8,2,5,63,98,2331032012
18,15,Jits_Phase_8,3,5,80,127,2331035060
18,15,Jits_Phase_8,0,1,48,30,2331763468
18,15,Jits_Phase_8,1,5,80,127,2331769492
18,15,Jits_Phase_8,2,5,63,98,2331859416
18,15,Jits_Phase_8,3,5,56,103,2331868488
18,15,Jits_Phase_8,0,5,56,103,2332589564
18,15,Jits_Phase_8,1,5,63,98,2332598568
18,15,Jits_Phase_8,2,1,48,43,2332641788
18,15,Jits_Phase_8,3,5,80,127,2332688788
18,15,Jits_Phase_8,0,5,63,98,2333358400
18,15,Jits_Phase_8,1,5,80,127,2333389220
18,15,Jits_Phase_8,2,1,48,48,2333392564
18,15,Jits_Phase_8,3,5,56,103,2333418816
18,15,Jits_Phase_8,0,1,48,48,2334144948
18,15,Jits_Phase_8,1,5,56,103,2334159216
18,15,Jits_Phase_8,2,5,80,127,2334258476
18,15,Jits_Phase_8,3,5,63,98,2334308676
18,15,Jits_Phase_8,0,5,56,103,2334958912
18,15,Jits_Phase_8,1,5,80,127,2335009264
18,15,Jits_Phase_8,2,1,48,44,2335025712
18,15,Jits_Phase_8,3,5,63,98,2335049196
18,15,Jits_Phase_8,0,5,80,127,2335789400
18,15,Jits_Phase_8,1,1,48,42,2335808408
18,15,Jits_Phase_8,2,5,63,98,2335819296
18,15,Jits_Phase_8,3,5,56,103,2335888748
18,15,Jits_Phase_8,0,5,63,98,2336618848
18,15,Jits_Phase_8,1,1,48,43,2336623088
18,15,Jits_Phase_8,2,5,56,103,2336648668
18,15,Jits_Phase_8,3,5,80,127,2336708856
18,15,Jits_Phase_8,0,5,56,103,2337359420
18,15,Jits_Phase_8,1,5,80,127,2337362412
18,15,Jits_Phase_8,2,1,48,49,2337434528
18,15,Jits_Phase_8,3,5,63,98,2337479160
18,15,Jits_Phase_8,0,1,48,43,2338194132
18,15,Jits_Phase_8,1,5,56,103,2338238768
18,15,Jits_Phase_8,2,5,80,127,2338278784
18,15,Jits_Phase_8,3,5,63,98,2338289276
18,15,Jits_Phase_8,0,5,56,103,2338998580
18,15,Jits_Phase_8,1,1,48,42,2339002244
18,15,Jits_Phase_8,2,5,80,127,2339019356
18,15,Jits_Phase_8,3,5,63,98,2339098988
18,15,Jits_Phase_8,0,5,80,127,2339789164
18,15,Jits_Phase_8,1,5,56,103,2339888440
18,15,Jits_Phase_8,2,1,48,43,2339896516
18,15,Jits_Phase_8,3,5,63,98,2339898704
18,15,Jits_Phase_8,0,5,63,98,2340559344
18,15,Jits_Phase_8,1,5,80,127,2340618544
18,15,Jits_Phase_8,2,5,56,103,2340628740
18,15,Jits_Phase_8,3,1,48,43,2340700256
18,15,Jits_Phase_8,0,5,56,103,2341359104
18,15,Jits_Phase_8,1,1,48,38,2341398116
18,15,Jits_Phase_8,2,5,63,98,2341428552
18,15,Jits_Phase_8,3,5,80,127,2341432140
18,15,Jits_Phase_8,0,1,48,42,2342152536
18,15,Jits_Phase_8,1,5,63,98,2342189352
18,15,Jits_Phase_8,2,5,56,103,2342238424
18,15,Jits_Phase_8,3,5,80,127,2342241720
18,15,Jits_Phase_8,0,5,56,103,2342949244
18,15,Jits_Phase_8,1,5,80,127,2342952236
18,15,Jits_Phase_8,2,1,48,42,2342969296
18,15,Jits_Phase_8,3,5,63,98,2343039368
18,15,Jits_Phase_8,0,1,48,37,2343761256
18,15,Jits_Phase_8,1,5,63,98,2343789004
18,15,Jits_Phase_8,2,5,56,103,2343879148
18,15,Jits_Phase_8,3,5,80,127,2343908600
18,15,Jits_Phase_8,0,5,56,103,2344578440
18,15,Jits_Phase_8,1,1,48,47,2344624484
18,15,Jits_Phase_8,2,5,63,98,2344679004
18,15,Jits_Phase_8,3,5,80,127,2344708456
18,15,Jits_Phase_8,0,5,63,98,2345398520
18,15,Jits_Phase_8,1,5,56,103,2345408816
18,15,Jits_Phase_8,2,1,48,42,2345444668
18,15,Jits_Phase_8,3,5,80,127,2345499012
18,15,Jits_Phase_8,0,5,63,98,2346219128
18,15,Jits_Phase_8,1,1,48,41,2346226908
18,15,Jits_Phase_8,2,5,56,103,2346298844
18,15,Jits_Phase_8,3,5,80,127,2346302132
18,15,Jits_Phase_8,0,5,80,127,2346978728
18,15,Jits_Phase_8,1,5,63,98,2346999040
18,15,Jits_Phase_8,2,1,48,21,2347009576
18,15,Jits_Phase_8,3,5,56,103,2347058448
18,15,Jits_Phase_8,0,1,48,35,2347769032
18,15,Jits_Phase_8,1,5,56,103,2347819252
18,15,Jits_Phase_8,2,5,63,98,2347839108
18,15,Jits_Phase_8,3,5,80,127,2347842324
18,15,Jits_Phase_8,0,5,63,98,2348558696
18,15,Jits_Phase_8,1,5,80,127,2348638572
18,15,Jits_Phase_8,2,5,56,103,2348648764
18,15,Jits_Phase_8,0,1,48,44,2349352464
18,15,Jits_Phase_8,1,5,63,98,2349379088
18,15,Jits_Phase_8,2,5,56,103,2349399400
18,15,Jits_Phase_8,3,5,80,127,2349448464
18,15,Jits_Phase_8,0,1,48,46,2350151396
18,15,Jits_Phase_8,1,5,80,127,2350178772
18,15,Jits_Phase_8,2,5,63,98,2350218564
18,15,Jits_Phase_8,3,5,56,103,2350239244
18,15,Jits_Phase_8,0,1,48,49,2350975348
18,15,Jits_Phase_8,1,5,56,103,2351019360
18,15,Jits_Phase_8,2,5,63,98,2351028512
18,15,Jits_Phase_8,3,5,80,127,2351049144
18,15,Jits_Phase_8,0,1,48,43,2351713604
18,15,Jits_Phase_8,1,5,56,103,2351748400
18,15,Jits_Phase_8,2,5,63,98,2351838544
18,15,Jits_Phase_8,3,5,80,127,2351899080
18,15,Jits_Phase_8,0,1,48,37,2352571376
18,15,Jits_Phase_8,1,5,80,127,2352578900
18,15,Jits_Phase_8,2,5,56,103,2352589096
18,15,Jits_Phase_8,3,5,63,98,2352658924
18,15,Jits_Phase_8,0,1,48,39,2353377960
18,15,Jits_Phase_8,1,5,63,98,2353409376
18,15,Jits_Phase_8,2,5,80,127,2353498448
18,15,Jits_Phase_8,3,5,56,103,2353509012
18,15,Jits_Phase_8,0,5,63,98,2354138424
18,15,Jits_Phase_8,1,5,80,127,2354188772
18,15,Jits_Phase_8,2,1,48,41,2354241936
18,15,Jits_Phase_8,3,5,56,103,2354249004
18,15,Jits_Phase_8,0,1,48,46,2354944052
18,15,Jits_Phase_8,1,5,56,103,2354958840
18,15,Jits_Phase_8,2,5,80,127,2355008968
18,15,Jits_Phase_8,3,5,63,98,2355029352
18,15,Jits_Phase_8,0,5,56,103,2355728864
18,15,Jits_Phase_8,1,1,48,42,2355745016
18,15,Jits_Phase_8,2,5,80,127,2355789096
18,15,Jits_Phase_8,3,5,63,98,2355858760
18,15,Jits_Phase_8,0,5,56,103,2356528632
18,15,Jits_Phase_8,1,5,80,127,2356559204
18,15,Jits_Phase_8,2,5,63,98,2356588956
18,15,Jits_Phase_8,3,1,48,44,2356600612
18,15,Jits_Phase_8,0,1,48,46,2357344468
18,15,Jits_Phase_8,1,5,56,103,2357369148
18,15,Jits_Phase_8,2,5,80,127,2357388636
18,15,Jits_Phase_8,3,5,63,98,2357449036
18,15,Jits_Phase_8,0,1,48,38,2358212808
18,15,Jits_Phase_8,1,5,80,127,2358248876
18,15,Jits_Phase_8,2,5,56,103,2358259072
18,15,Jits_Phase_8,3,5,63,98,2358269344
18,15,Jits_Phase_8,0,5,56,103,2359008716
18,15,Jits_Phase_8,1,1,48,47,2359048504
18,15,Jits_Phase_8,2,5,80,127,2359049992
18,15,Jits_Phase_8,3,5,63,98,2359079220
18,15,Jits_Phase_8,0,5,56,103,2359778828
18,15,Jits_Phase_8,1,1,48,44,2359802996
18,15,Jits_Phase_8,2,5,63,98,2359809468
18,15,Jits_Phase_8,3,5,80,127,2359849332
18,15,Jits_Phase_8,0,5,80,127,2360529152
18,15,Jits_Phase_8,1,1,48,48,2360576260
18,15,Jits_Phase_8,2,5,63,98,2360578524
18,15,Jits_Phase_8,3,5,56,103,2360598836
18,15,Jits_Phase_8,0,5,56,103,2361358804
18,15,Jits_Phase_8,1,1,48,46,2361361624
18,15,Jits_Phase_8,2,5,80,127,2361429380
18,15,Jits_Phase_8,3,5,63,98,2361488780
18,15,Jits_Phase_8,0,5,80,127,2362158504
18,15,Jits_Phase_8,1,1,48,48,2362227036
18,15,Jits_Phase_8,2,5,63,98,2362248780
18,15,Jits_Phase_8,3,5,56,103,2362268940
18,15,Jits_Phase_8,0,5,63,98,2362978660
18,15,Jits_Phase_8,1,5,56,103,2362999192
18,15,Jits_Phase_8,2,1,48,46,2363019168
18,15,Jits_Phase_8,3,5,80,127,2363039124
18,15,Jits_Phase_8,0,5,80,127,2363738556
18,15,Jits_Phase_8,1,5,63,98,2363758868
18,15,Jits_Phase_8,2,1,48,44,2363800492
18,15,Jits_Phase_8,3,5,56,103,2363838828
18,15,Jits_Phase_8,0,5,63,98,2364528884
18,15,Jits_Phase_8,1,1,48,38,2364567444
18,15,Jits_Phase_8,2,5,56,103,2364638516
18,15,Jits_Phase_8,3,5,80,127,2364641656
18,15,Jits_Phase_8,0,1,48,35,2365339988
18,15,Jits_Phase_8,1,5,63,98,2365349152
18,15,Jits_Phase_8,2,5,56,103,2365358672
18,15,Jits_Phase_8,3,5,80,127,2365361664
18,15,Jits_Phase_8,0,1,48,46,2366079640
18,15,Jits_Phase_8,1,5,56,103,2366128444
18,15,Jits_Phase_8,2,5,80,127,2366249452
18,15,Jits_Phase_8,3,5,63,98,2366289388
18,15,Jits_Phase_8,0,5,56,103,2366948612
18,15,Jits_Phase_8,1,1,48,43,2366994584
18,15,Jits_Phase_8,2,5,80,127,2367028628
18,15,Jits_Phase_8,3,5,63,98,2367049012
18,15,Jits_Phase_8,0,5,56,103,2367748532
18,15,Jits_Phase_8,1,1,48,35,2367801244
18,15,Jits_Phase_8,2,5,63,98,2367859256
18,15,Jits_Phase_8,3,5,80,127,2367862620
18,15,Jits_Phase_8,0,5,56,103,2368589128
18,15,Jits_Phase_8,1,5,80,127,2368618732
18,15,Jits_Phase_8,2,5,63,98,2368639564
18,15,Jits_Phase_8,3,1,48,47,2368641500
18,15,Jits_Phase_8,0,5,63,98,2369378564
18,15,Jits_Phase_8,1,5,56,103,2369388908
18,15,Jits_Phase_8,2,5,80,127,2369399104
18,15,Jits_Phase_8,3,1,48,46,2369444840
18,15,Jits_Phase_8,0,5,80,127,2370169392
18,15,Jits_Phase_8,1,1,48,40,2370204804
18,15,Jits_Phase_8,2,5,56,103,2370219664
18,15,Jits_Phase_8,3,5,63,98,2370259552
18,15,Jits_Phase_8,0,1,48,46,2370978280
18,15,Jits_Phase_8,1,5,80,127,2370989388
18,15,Jits_Phase_8,2,5,63,98,2371008828
18,15,Jits_Phase_8,3,5,56,103,2371059028
18,15,Jits_Phase_8,0,5,80,127,2371799516
18,15,Jits_Phase_8,1,1,48,42,2371810360
18,15,Jits_Phase_8,2,5,56,103,2371829260
18,15,Jits_Phase_8,3,5,63,98,2371898716
18,15,Jits_Phase_8,0,5,56,103,2372649268
18,15,Jits_Phase_8,1,1,48,47,2372654928
18,15,Jits_Phase_8,2,5,80,127,2372658636
18,15,Jits_Phase_8,3,5,63,98,2372698424
18,15,Jits_Phase_8,0,5,56,103,2373358916
18,15,Jits_Phase_8,1,5,63,98,2373378400
18,15,Jits_Phase_8,2,5,80,127,2373449052
18,15,Jits_Phase_8,3,1,48,46,2373478844
18,15,Jits_Phase_8,0,5,63,98,2374179284
18,15,Jits_Phase_8,1,1,48,42,2374225404
18,15,Jits_Phase_8,2,5,80,127,2374238552
18,15,Jits_Phase_8,3,5,56,103,2374259084
18,15,Jits_Phase_8,0,5,80,127,2374968708
18,15,Jits_Phase_8,1,5,56,103,2374999428
18,15,Jits_Phase_8,2,1,48,45,2375020452
18,15,Jits_Phase_8,3,5,63,98,2375029320
18,15,Jits_Phase_8,0,5,56,103,2375768552
18,15,Jits_Phase_8,1,1,48,30,2375774740
18,15,Jits_Phase_8,2,5,63,98,2375828788
18,15,Jits_Phase_8,3,5,80,127,2375889408
18,15,Jits_Phase_8,0,1,48,43,2376573452
18,15,Jits_Phase_8,1,5,80,127,2376588768
18,15,Jits_Phase_8,2,5,56,103,2376609376
18,15,Jits_Phase_8,3,5,63,98,2376678768
18,15,Jits_Phase_8,0,5,80,127,2377389432
18,15,Jits_Phase_8,1,5,63,98,2377408796
18,15,Jits_Phase_8,2,1,48,34,2377412288
18,15,Jits_Phase_8,3,5,56,103,2377438612
18,15,Jits_Phase_8,0,1,48,47,2378169496
18,15,Jits_Phase_8,1,5,80,127,2378178884
18,15,Jits_Phase_8,2,5,63,98,2378199344
18,15,Jits_Phase_8,3,5,56,103,2378258688
18,15,Jits_Phase_8,0,1,48,46,2378973368
18,15,Jits_Phase_8,1,5,80,127,2378978640
18,15,Jits_Phase_8,2,5,56,103,2379079172
18,15,Jits_Phase_8,3,5,63,98,2379108624
18,15,Jits_Phase_8,0,5,63,98,2379769344
18,15,Jits_Phase_8,1,5,80,127,2379819324
18,15,Jits_Phase_8,2,5,56,103,2379838808
18,15,Jits_Phase_8,3,1,48,43,2379853012
18,15,Jits_Phase_8,0,5,80,127,2380608812
18,15,Jits_Phase_8,1,5,56,103,2380638636
18,15,Jits_Phase_8,2,1,48,16,2380641332
18,15,Jits_Phase_8,3,5,63,98,2380643264
18,15,Jits_Phase_8,0,1,48,48,2381424652
18,15,Jits_Phase_8,1,5,63,98,2381458772
18,15,Jits_Phase_8,2,5,56,103,2381498808
18,15,Jits_Phase_8,3,5,80,127,2381519180
18,15,Jits_Phase_8,0,5,80,127,2382229092
18,15,Jits_Phase_8,1,1,48,46,2382239036
18,15,Jits_Phase_8,2,5,63,98,2382308832
18,15,Jits_Phase_8,3,5,56,103,2382348680
18,15,Jits_Phase_8,0,5,63,98,2383049052
18,15,Jits_Phase_8,1,1,48,39,2383090156
18,15,Jits_Phase_8,2,5,80,127,2383129212
18,15,Jits_Phase_8,3,5,56,103,2383149376
18,15,Jits_Phase_8,0,5,56,103,2383888900
18,15,Jits_Phase_8,1,5,63,98,2383899172
18,15,Jits_Phase_8,2,1,48,43,2383900136
18,15,Jits_Phase_8,3,5,80,127,2383939028
18,15,Jits_Phase_8,0,5,56,103,2384608732
18,15,Jits_Phase_8,1,5,80,127,2384611800
18,15,Jits_Phase_8,2,1,48,44,2384715380
18,15,Jits_Phase_8,3,5,63,98,2384749272
18,15,Jits_Phase_8,0,5,56,103,2385399132
18,15,Jits_Phase_8,1,5,63,98,2385489192
18,15,Jits_Phase_8,2,1,48,41,2385508424
18,15,Jits_Phase_8,3,5,80,127,2385559012
18,15,Jits_Phase_8,0,1,48,45,2386258068
18,15,Jits_Phase_8,1,5,63,98,2386278692
18,15,Jits_Phase_8,2,5,80,127,2386282276
18,15,Jits_Phase_8,3,5,56,103,2386339156
18,15,Jits_Phase_8,0,1,48,44,2387038784
18,15,Jits_Phase_8,1,5,80,127,2387118380
18,15,Jits_Phase_8,2,5,56,103,2387138924
18,15,Jits_Phase_8,3,5,63,98,2387149120
18,15,Jits_Phase_8,0,5,56,103,2387829068
18,15,Jits_Phase_8,1,5,63,98,2387839340
18,15,Jits_Phase_8,2,1,48,46,2387894024
18,15,Jits_Phase_8,3,5,80,127,2387909112
18,15,Jits_Phase_8,0,5,80,127,2388628840
18,15,Jits_Phase_8,1,1,48,44,2388677864
18,15,Jits_Phase_8,2,5,56,103,2388679580
18,15,Jits_Phase_8,3,5,63,98,2388729336
18,15,Jits_Phase_8,0,1,48,36,2389490716
18,15,Jits_Phase_8,1,5,56,103,2389508424
18,15,Jits_Phase_8,2,5,63,98,2389518992
18,15,Jits_Phase_8,3,5,80,127,2389558780
18,15,Jits_Phase_8,0,5,56,103,2390248860
18,15,Jits_Phase_8,1,1,48,31,2390280676
18,15,Jits_Phase_8,2,5,63,98,2390288792
18,15,Jits_Phase_8,3,5,80,127,2390338844
18,15,Jits_Phase_8,0,1,48,25,2390988220
18,15,Jits_Phase_8,1,5,80,127,2391008844
18,15,Jits_Phase_8,2,5,56,103,2391058972
18,15,Jits_Phase_8,3,5,63,98,2391079208
18,15,Jits_Phase_8,0,5,80,127,2391818652
18,15,Jits_Phase_8,1,1,48,47,2391823940
18,15,Jits_Phase_8,2,5,63,98,2391879036
18,15,Jits_Phase_8,3,5,56,103,2391959036
18,15,Jits_Phase_8,0,5,80,127,2392598948
18,15,Jits_Phase_8,1,1,48,44,2392614648
18,15,Jits_Phase_8,2,5,56,103,2392639028
18,15,Jits_Phase_8,3,5,63,98,2392659188
18,15,Jits_Phase_8,0,1,48,36,2393430076
18,15,Jits_Phase_8,1,5,56,103,2393448828
18,15,Jits_Phase_8,2,5,80,127,2393459176
18,15,Jits_Phase_8,3,5,63,98,2393498964
18,15,Jits_Phase_8,0,1,48,47,2394213720
18,15,Jits_Phase_8,1,5,56,103,2394319252
18,15,Jits_Phase_8,2,5,63,98,2394359188
18,15,Jits_Phase_8,3,5,80,127,2394362700
18,15,Jits_Phase_8,0,5,63,98,2394988796
18,15,Jits_Phase_8,1,5,80,127,2395028732
18,15,Jits_Phase_8,2,5,56,103,2395098436
18,15,Jits_Phase_8,3,1,48,48,2395152568
18,15,Jits_Phase_8,0,5,63,98,2395758960
18,15,Jits_Phase_8,1,5,56,103,2395838932
18,15,Jits_Phase_8,2,1,48,47,2395871792
18,15,Jits_Phase_8,3,5,80,127,2395899164
18,15,Jits_Phase_8,0,5,80,127,2396568908
18,15,Jits_Phase_8,1,1,48,40,2396599628
18,15,Jits_Phase_8,2,5,63,98,2396619056
18,15,Jits_Phase_8,3,5,56,103,2396648804
18,15,Jits_Phase_8,0,5,56,103,2397358864
18,15,Jits_Phase_8,1,1,48,46,2397388088
18,15,Jits_Phase_8,2,5,63,98,2397408784
18,15,Jits_Phase_8,3,5,80,127,2397418908
18,15,Jits_Phase_8,0,1,48,41,2398148288
18,15,Jits_Phase_8,1,5,56,103,2398168392
18,15,Jits_Phase_8,2,5,63,98,2398278888
18,15,Jits_Phase_8,3,5,80,127,2398298748
18,15,Jits_Phase_8,0,5,63,98,2398969052
18,15,Jits_Phase_8,1,1,48,34,2399006476
18,15,Jits_Phase_8,2,5,80,127,2399019472
18,15,Jits_Phase_8,3,5,56,103,2399108540
18,15,Jits_Phase_8,0,5,63,98,2399758696
18,15,Jits_Phase_8,1,1,48,28,2399773572
18,15,Jits_Phase_8,2,5,80,127,2399789560
18,15,Jits_Phase_8,3,5,56,103,2399878704
18,15,Jits_Phase_8,0,1,48,40,2400548680
18,15,Jits_Phase_8,1,5,63,98,2400558596
18,15,Jits_Phase_8,2,5,56,103,2400568940
18,15,Jits_Phase_8,3,5,80,127,2400669020
18,15,Jits_Phase_8,0,1,48,42,2401375916
18,15,Jits_Phase_8,1,5,63,98,2401458816
18,15,Jits_Phase_8,2,5,80,127,2401489324
18,15,Jits_Phase_8,3,5,56,103,2401518852
18,15,Jits_Phase_8,0,1,48,33,2402229212
18,15,Jits_Phase_8,1,5,80,127,2402278764
18,15,Jits_Phase_8,2,5,63,98,2402289108
18,15,Jits_Phase_8,3,5,56,103,2402318636
18,15,Jits_Phase_8,0,5,80,127,2402979164
18,15,Jits_Phase_8,1,5,63,98,2402998752
18,15,Jits_Phase_8,2,1,48,38,2403023592
18,15,Jits_Phase_8,3,5,56,103,2403048796
18,15,Jits_Phase_8,0,1,48,40,2403766032
18,15,Jits_Phase_8,1,5,63,98,2403808624
18,15,Jits_Phase_8,2,5,80,127,2403869076
18,15,Jits_Phase_8,3,5,56,103,2403888412
18,15,Jits_Phase_8,0,5,63,98,2404568684
18,15,Jits_Phase_8,1,5,56,103,2404618592
18,15,Jits_Phase_8,2,5,80,127,2404628784
18,15,Jits_Phase_8,3,1,48,39,2404633396
18,15,Jits_Phase_8,0,1,48,38,2405391920
18,15,Jits_Phase_8,1,5,56,103,2405398844
18,15,Jits_Phase_8,2,5,80,127,2405409116
18,15,Jits_Phase_8,3,5,63,98,2405508668
18,15,Jits_Phase_8,0,5,80,127,2406158752
18,15,Jits_Phase_8,1,5,63,98,2406168872
18,15,Jits_Phase_8,2,1,48,45,2406203604
18,15,Jits_Phase_8,3,5,56,103,2406318540
18,15,Jits_Phase_8,0,5,63,98,2406968636
18,15,Jits_Phase_8,1,1,48,37,2406990040
18,15,Jits_Phase_8,2,5,80,127,2407008568
18,15,Jits_Phase_8,3,5,56,103,2407088572
18,15,Jits_Phase_8,0,5,56,103,2407719540
18,15,Jits_Phase_8,1,1,48,41,2407738924
18,15,Jits_Phase_8,2,5,80,127,2407818512
18,15,Jits_Phase_8,3,5,63,98,2407838956
18,15,Jits_Phase_8,0,5,80,127,2408538356
18,15,Jits_Phase_8,1,5,56,103,2408548700
18,15,Jits_Phase_8,2,1,48,41,2408578940
18,15,Jits_Phase_8,3,5,63,98,2408638700
18,15,Jits_Phase_8,0,5,56,103,2409339400
18,15,Jits_Phase_8,1,1,48,40,2409352708
18,15,Jits_Phase_8,2,5,63,98,2409358656
18,15,Jits_Phase_8,3,5,80,127,2409438548
18,15,Jits_Phase_8,0,5,63,98,2410088828
18,15,Jits_Phase_8,1,1,48,40,2410092096
18,15,Jits_Phase_8,2,5,56,103,2410178904
18,15,Jits_Phase_8,3,5,80,127,2410182044
18,15,Jits_Phase_8,0,1,48,42,2410854072
18,15,Jits_Phase_8,1,5,56,103,2410919432
18,15,Jits_Phase_8,2,5,80,127,2410978640
18,15,Jits_Phase_8,3,5,63,98,2410988836
18,15,Jits_Phase_8,0,1,48,35,2411679536
18,15,Jits_Phase_8,1,5,80,127,2411769344
18,15,Jits_Phase_8,2,5,56,103,2411778404
18,15,Jits_Phase_8,3,5,63,98,2411781544
18,15,Jits_Phase_8,0,1,48,41,2412496312
18,15,Jits_Phase_8,1,5,56,103,2412528940
18,15,Jits_Phase_8,2,5,80,127,2412539436
18,15,Jits_Phase_8,3,5,63,98,2412558696
18,15,Jits_Phase_8,0,1,48,41,2413268732
18,15,Jits_Phase_8,1,5,63,98,2413299248
18,15,Jits_Phase_8,2,5,80,127,2413358300
18,15,Jits_Phase_8,3,5,56,103,2413408708
18,15,Jits_Phase_8,0,1,48,46,2414051408
18,15,Jits_Phase_8,1,5,63,98,2414178788
18,15,Jits_Phase_8,2,5,56,103,2414189208
18,15,Jits_Phase_8,3,5,80,127,2414239556
18,15,Jits_Phase_8,0,5,63,98,2414879300
18,15,Jits_Phase_8,1,5,80,127,2414898492
18,15,Jits_Phase_8,2,5,56,103,2414908908
18,15,Jits_Phase_8,3,1,48,39,2414924684
18,15,Jits_Phase_8,0,1,48,40,2415678524
18,15,Jits_Phase_8,1,5,63,98,2415680260
18,15,Jits_Phase_8,2,5,80,127,2415683452
18,15,Jits_Phase_8,3,5,56,103,2415718684
18,15,Jits_Phase_8,0,1,48,33,2416452008
18,15,Jits_Phase_8,1,5,63,98,2416549196
18,15,Jits_Phase_8,2,5,80,127,2416578900
18,15,Jits_Phase_8,3,5,56,103,2416589316
18,15,Jits_Phase_8,0,1,48,37,2417258668
18,15,Jits_Phase_8,1,5,56,103,2417298776
18,15,Jits_Phase_8,2,5,80,127,2417328452
18,15,Jits_Phase_8,3,5,63,98,2417359404
18,15,Jits_Phase_8,0,1,48,26,2418089884
18,15,Jits_Phase_8,1,5,63,98,2418198860
18,15,Jits_Phase_8,2,5,56,103,2418239092
18,15,Jits_Phase_8,3,5,80,127,2418242160
18,15,Jits_Phase_8,0,5,80,127,2418899512
18,15,Jits_Phase_8,1,1,48,34,2418974180
18,15,Jits_Phase_8,2,5,56,103,2418979080
18,15,Jits_Phase_8,3,5,63,98,2419029352
18,15,Jits_Phase_8,0,5,80,127,2419678536
18,15,Jits_Phase_8,1,5,56,103,2419699144
18,15,Jits_Phase_8,2,1,48,37,2419774104
18,15,Jits_Phase_8,3,5,63,98,2419789268
18,15,Jits_Phase_8,0,5,80,127,2420519212
18,15,Jits_Phase_8,1,1,48,31,2420541208
18,15,Jits_Phase_8,2,5,63,98,2420559068
18,15,Jits_Phase_8,3,5,56,103,2420599084
18,15,Jits_Phase_8,0,1,48,36,2421305536
18,15,Jits_Phase_8,1,5,63,98,2421329244
18,15,Jits_Phase_8,2,5,80,127,2421388736
18,15,Jits_Phase_8,3,5,56,103,2421419372
18,15,Jits_Phase_8,0,1,48,42,2422104012
18,15,Jits_Phase_8,1,5,56,103,2422169080
18,15,Jits_Phase_8,2,5,80,127,2422198544
18,15,Jits_Phase_8,3,5,63,98,2422288748
18,15,Jits_Phase_8,0,5,56,103,2422979204
18,15,Jits_Phase_8,1,1,48,33,2423030952
18,15,Jits_Phase_8,2,5,80,127,2423088592
18,15,Jits_Phase_8,3,5,63,98,2423119164
18,15,Jits_Phase_8,0,1,48,41,2423820312
18,15,Jits_Phase_8,1,5,56,103,2423829028
18,15,Jits_Phase_8,2,5,63,98,2423889196
18,15,Jits_Phase_8,3,5,80,127,2423919300
18,15,Jits_Phase_8,0,5,56,103,2424599048
18,15,Jits_Phase_8,1,1,48,33,2424643444
18,15,Jits_Phase_8,2,5,63,98,2424668576
18,15,Jits_Phase_8,3,5,80,127,2424689032
18,15,Jits_Phase_8,0,5,80,127,2425368932
18,15,Jits_Phase_8,1,5,63,98,2425389464
18,15,Jits_Phase_8,2,1,48,31,2425411164
18,15,Jits_Phase_8,3,5,56,103,2425438536
18,15,Jits_Phase_8,0,1,48,39,2426187108
18,15,Jits_Phase_8,1,5,63,98,2426189072
18,15,Jits_Phase_8,2,5,80,127,2426199340
18,15,Jits_Phase_8,3,5,56,103,2426248568
18,15,Jits_Phase_8,0,5,63,98,2426988984
18,15,Jits_Phase_8,1,1,48,39,2427008364
18,15,Jits_Phase_8,2,5,80,127,2427058512
18,15,Jits_Phase_8,3,5,56,103,2427079044
18,15,Jits_Phase_8,0,1,48,38,2427802692
18,15,Jits_Phase_8,1,5,63,98,2427819352
18,15,Jits_Phase_8,2,5,80,127,2427822716
18,15,Jits_Phase_8,3,5,56,103,2427889128
18,15,Jits_Phase_8,0,5,80,127,2428568912
18,15,Jits_Phase_8,1,5,56,103,2428589448
18,15,Jits_Phase_8,2,5,63,98,2428598696
18,15,Jits_Phase_8,3,1,48,32,2428608564
18,15,Jits_Phase_8,0,1,48,32,2429380504
18,15,Jits_Phase_8,1,5,56,103,2429389076
18,15,Jits_Phase_8,2,5,63,98,2429479340
18,15,Jits_Phase_8,3,5,80,127,2429482852
18,15,Jits_Phase_8,0,5,80,127,2430159240
18,15,Jits_Phase_8,1,5,56,103,2430168464
18,15,Jits_Phase_8,2,1,48,34,2430175252
18,15,Jits_Phase_8,3,5,63,98,2430189140
18,15,Jits_Phase_8,0,1,48,40,2430916864
18,15,Jits_Phase_8,1,5,63,98,2430959064
18,15,Jits_Phase_8,2,5,80,127,2431019368
18,15,Jits_Phase_8,3,5,56,103,2431028664
18,15,Jits_Phase_8,0,1,48,36,2431689940
18,15,Jits_Phase_8,1,5,63,98,2431829304
18,15,Jits_Phase_8,2,5,80,127,2431858980
18,15,Jits_Phase_8,3,5,56,103,2431898920
18,15,Jits_Phase_8,0,1,48,34,2432582904
18,15,Jits_Phase_8,1,5,56,103,2432618748
18,15,Jits_Phase_8,2,5,80,127,2432629020
18,15,Jits_Phase_8,3,5,63,98,2432668956
18,15,Jits_Phase_8,0,5,80,127,2433378952
18,15,Jits_Phase_8,1,1,48,40,2433392332
18,15,Jits_Phase_8,2,5,56,103,2433458692
18,15,Jits_Phase_8,3,5,63,98,2433468664
18,15,Jits_Phase_8,0,5,80,127,2434228796
18,15,Jits_Phase_8,1,1,48,40,2434238140
18,15,Jits_Phase_8,2,5,56,103,2434308440
18,15,Jits_Phase_8,3,5,63,98,2434318784
18,15,Jits_Phase_8,0,1,48,31,2435038368
18,15,Jits_Phase_8,1,5,80,127,2435069256
18,15,Jits_Phase_8,2,5,56,103,2435118340
18,15,Jits_Phase_8,3,5,63,98,2435168672
18,15,Jits_Phase_8,0,1,48,32,2435898052
18,15,Jits_Phase_8,1,5,56,103,2436009240
18,15,Jits_Phase_8,2,5,63,98,2436012532
18,15,Jits_Phase_8,3,5,80,127,2436058572
18,15,Jits_Phase_8,0,1,48,41,2436805036
18,15,Jits_Phase_8,1,5,56,103,2436828816
18,15,Jits_Phase_8,2,5,63,98,2436859172
18,15,Jits_Phase_8,3,5,80,127,2436868692
18,15,Jits_Phase_8,0,5,63,98,2437539036
18,15,Jits_Phase_8,1,5,56,103,2437608744
18,15,Jits_Phase_8,2,1,48,42,2437624972
18,15,Jits_Phase_8,3,5,80,127,2437658940
18,15,Jits_Phase_8,0,1,48,41,2438343648
18,15,Jits_Phase_8,1,5,63,98,2438368560
18,15,Jits_Phase_8,2,5,56,103,2438379052
18,15,Jits_Phase_8,3,5,80,127,2438381896
18,15,Jits_Phase_8,0,5,80,127,2439119168
18,15,Jits_Phase_8,1,1,48,40,2439136980
18,15,Jits_Phase_8,2,5,56,103,2439178656
18,15,Jits_Phase_8,3,5,63,98,2439268768
18,15,Jits_Phase_8,0,5,80,127,2439918860
18,15,Jits_Phase_8,1,1,48,40,2439962432
18,15,Jits_Phase_8,2,5,56,103,2440019324
18,15,Jits_Phase_8,3,5,63,98,2440059320
18,15,Jits_Phase_8,0,1,48,35,2440758688
18,15,Jits_Phase_8,1,5,56,103,2440768900
18,15,Jits_Phase_8,2,5,63,98,2440789656
18,15,Jits_Phase_8,3,5,80,127,2440829372
18,15,Jits_Phase_8,0,1,48,41,2441514828
18,15,Jits_Phase_8,1,5,63,98,2441538840
18,15,Jits_Phase_8,2,5,56,103,2441559524
18,15,Jits_Phase_8,3,5,80,127,2441658656
18,15,Jits_Phase_8,0,1,48,40,2442309576
18,15,Jits_Phase_8,1,5,63,98,2442328560
18,15,Jits_Phase_8,2,5,80,127,2442439004
18,15,Jits_Phase_8,3,5,56,103,2442468680
18,15,Jits_Phase_8,0,1,48,40,2443080640
18,15,Jits_Phase_8,1,5,56,103,2443148624
18,15,Jits_Phase_8,2,5,63,98,2443179332
18,15,Jits_Phase_8,3,5,80,127,2443228436
18,15,Jits_Phase_8,0,1,48,42,2443911564
18,15,Jits_Phase_8,1,5,63,98,2443918560
18,15,Jits_Phase_8,2,5,56,103,2443949580
18,15,Jits_Phase_8,3,5,80,127,2443998536
18,15,Jits_Phase_8,0,1,48,42,2444711392
18,15,Jits_Phase_8,1,5,56,103,2444749356
18,15,Jits_Phase_8,2,5,63,98,2444768620
18,15,Jits_Phase_8,3,5,80,127,2444848472
18,15,Jits_Phase_8,0,1,48,37,2445484620
18,15,Jits_Phase_8,1,5,63,98,2445519440
18,15,Jits_Phase_8,2,5,56,103,2445579216
18,15,Jits_Phase_8,3,5,80,127,2445609416
18,15,Jits_Phase_8,0,1,48,43,2446237552
18,15,Jits_Phase_8,1,5,56,103,2446359036
18,15,Jits_Phase_8,2,5,80,127,2446419500
18,15,Jits_Phase_8,3,5,63,98,2446459436
18,15,Jits_Phase_8,0,5,63,98,2447139340
18,15,Jits_Phase_8,1,1,48,40,2447146496
18,15,Jits_Phase_8,2,5,56,103,2447198528
18,15,Jits_Phase_8,3,5,80,127,2447269312
18,15,Jits_Phase_8,0,1,48,34,2447981468
18,15,Jits_Phase_8,1,5,56,103,2448018884
18,15,Jits_Phase_8,2,5,63,98,2448029080
18,15,Jits_Phase_8,3,5,80,127,2448032592
18,15,Jits_Phase_8,0,5,63,98,2448759232
18,15,Jits_Phase_8,1,1,48,41,2448798020
18,15,Jits_Phase_8,2,5,56,103,2448818440
18,15,Jits_Phase_8,3,5,80,127,2448821584
18,15,Jits_Phase_8,0,5,63,98,2449538308
18,15,Jits_Phase_8,1,1,48,42,2449542916
18,15,Jits_Phase_8,2,5,80,127,2449569320
18,15,Jits_Phase_8,3,5,56,103,2449588460
18,15,Jits_Phase_8,0,5,56,103,2450268456
18,15,Jits_Phase_8,1,1,48,43,2450305952
18,15,Jits_Phase_8,2,5,63,98,2450318728
18,15,Jits_Phase_8,3,5,80,127,2450399800
18,15,Jits_Phase_8,0,5,80,127,2450968972
18,15,Jits_Phase_8,1,5,63,98,2451008912
18,15,Jits_Phase_8,2,5,56,103,2451029444
18,15,Jits_Phase_8,3,1,48,36,2451036768
18,15,Jits_Phase_8,0,1,48,35,2451709816
18,15,Jits_Phase_8,1,5,56,103,2451839520
18,15,Jits_Phase_8,2,5,80,127,2451848596
18,15,Jits_Phase_8,3,5,63,98,2451869132
18,15,Jits_Phase_8,0,1,48,27,2452555880
18,15,Jits_Phase_8,1,5,56,103,2452618476
18,15,Jits_Phase_8,2,5,63,98,2452668688
18,15,Jits_Phase_8,3,5,80,127,2452698436
18,15,Jits_Phase_8,0,5,56,103,2453369464
18,15,Jits_Phase_8,1,5,63,98,2453378316
18,15,Jits_Phase_8,2,1,48,34,2453397552
18,15,Jits_Phase_8,3,5,80,127,2453428536
18,15,Jits_Phase_8,0,5,56,103,2454158592
18,15,Jits_Phase_8,1,5,80,127,2454161588
18,15,Jits_Phase_8,2,1,48,30,2454196192
18,15,Jits_Phase_8,3,5,63,98,2454318328
18,15,Jits_Phase_8,0,5,63,98,2454978912
18,15,Jits_Phase_8,1,5,56,103,2455048520
18,15,Jits_Phase_8,2,1,48,28,2455065416
18,15,Jits_Phase_8,3,5,80,127,2455088604
18,15,Jits_Phase_8,0,1,48,24,2455815868
18,15,Jits_Phase_8,1,5,63,98,2455818676
18,15,Jits_Phase_8,2,5,56,103,2455908808
18,15,Jits_Phase_8,3,5,80,127,2455912684
18,15,Jits_Phase_8,0,5,56,103,2456598880
18,15,Jits_Phase_8,1,1,48,33,2456666364
18,15,Jits_Phase_8,2,5,63,98,2456689084
18,15,Jits_Phase_8,3,5,80,127,2456699128
18,15,Jits_Phase_8,0,5,56,103,2457369136
18,15,Jits_Phase_8,1,5,63,98,2457419340
18,15,Jits_Phase_8,2,1,48,34,2457435192
18,15,Jits_Phase_8,3,5,80,127,2457449008
18,15,Jits_Phase_8,0,1,48,36,2458168508
18,15,Jits_Phase_8,1,5,63,98,2458248620
18,15,Jits_Phase_8,2,5,80,127,2458258968
18,15,Jits_Phase_8,3,5,56,103,2458319292
18,15,Jits_Phase_8,0,5,63,98,2458968448
18,15,Jits_Phase_8,1,1,48,27,2459021236
18,15,Jits_Phase_8,2,5,80,127,2459028760
18,15,Jits_Phase_8,3,5,56,103,2459068796
18,15,Jits_Phase_8,0,1,48,32,2459741648
18,15,Jits_Phase_8,1,5,56,103,2459868380
18,15,Jits_Phase_8,2,5,80,127,2459888988
18,15,Jits_Phase_8,3,5,63,98,2459908472
18,15,Jits_Phase_8,0,5,63,98,2460589544
18,15,Jits_Phase_8,1,5,56,103,2460609128
18,15,Jits_Phase_8,2,1,48,33,2460610096
18,15,Jits_Phase_8,3,5,80,127,2460648988
18,15,Jits_Phase_8,0,1,48,33,2461397320
18,15,Jits_Phase_8,1,5,63,98,2461399360
18,15,Jits_Phase_8,2,5,80,127,2461429036
18,15,Jits_Phase_8,3,5,56,103,2461448444
18,15,Jits_Phase_8,0,5,80,127,2462168404
18,15,Jits_Phase_8,1,1,48,32,2462207492
18,15,Jits_Phase_8,2,5,56,103,2462218600
18,15,Jits_Phase_8,3,5,63,98,2462278916
18,15,Jits_Phase_8,0,5,63,98,2462959028
18,15,Jits_Phase_8,1,1,48,34,2463006192
18,15,Jits_Phase_8,2,5,56,103,2463078976
18,15,Jits_Phase_8,3,5,80,127,2463108412
18,15,Jits_Phase_8,0,5,80,127,2463798724
18,15,Jits_Phase_8,1,1,48,39,2463816668
18,15,Jits_Phase_8,2,5,63,98,2463819176
18,15,Jits_Phase_8,3,5,56,103,2463888784
18,15,Jits_Phase_8,0,5,63,98,2464618956
18,15,Jits_Phase_8,1,1,48,37,2464624696
18,15,Jits_Phase_8,2,5,56,103,2464628996
18,15,Jits_Phase_8,3,5,80,127,2464709112
18,15,Jits_Phase_8,0,1,48,38,2465439512
18,15,Jits_Phase_8,1,5,56,103,2465478972
18,15,Jits_Phase_8,2,5,80,127,2465508648
18,15,Jits_Phase_8,3,5,63,98,2465518920
18,15,Jits_Phase_8,0,9999,9999,9999,2330626132
18,15,Jits_Phase_8,1,9999,9999,9999,2331426872
18,15,Jits_Phase_8,2,9999,9999,9999,2332226632
18,15,Jits_Phase_8,3,9999,9999,9999,2333026392
18,15,Jits_Phase_8,4,9999,9999,9999,2333826160
18,15,Jits_Phase_8,5,9999,9999,9999,2334626892
18,15,Jits_Phase_8,6,9999,9999,9999,2335426676
18,15,Jits_Phase_8,7,9999,9999,9999,2336226380
18,15,Jits_Phase_8,8,9999,9999,9999,2337026160
18,15,Jits_Phase_8,9,9999,9999,9999,2337826876
18,15,Jits_Phase_8,10,9999,9999,9999,2338626656
18,15,Jits_Phase_8,11,9999,9999,9999,2339426416
18,15,Jits_Phase_8,12,9999,9999,9999,2340226120
18,15,Jits_Phase_8,13,9999,9999,9999,2341026936
18,15,Jits_Phase_8,14,9999,9999,9999,2341826632
18,15,Jits_Phase_8,15,9999,9999,9999,2342626400
18,15,Jits_Phase_8,16,9999,9999,9999,2343426140
18,15,Jits_Phase_8,17,9999,9999,9999,2344226892
18,15,Jits_Phase_8,18,9999,9999,9999,2345026656
18,15,Jits_Phase_8,19,9999,9999,9999,2345826428
18,15,Jits_Phase_8,20,9999,9999,9999,2346626112
18,15,Jits_Phase_8,21,9999,9999,9999,2347426912
18,15,Jits_Phase_8,22,9999,9999,9999,2348226632
18,15,Jits_Phase_8,23,9999,9999,9999,2349026412
18,15,Jits_Phase_8,24,9999,9999,9999,2349826108
18,15,Jits_Phase_8,25,9999,9999,9999,2350626916
18,15,Jits_Phase_8,26,9999,9999,9999,2351426676
18,15,Jits_Phase_8,27,9999,9999,9999,2352226364
18,15,Jits_Phase_8,28,9999,9999,9999,2353026120
18,15,Jits_Phase_8,29,9999,9999,9999,2353826932
18,15,Jits_Phase_8,30,9999,9999,9999,2354606160
18,15,Jits_Phase_8,31,9999,9999,9999,2355406912
18,15,Jits_Phase_8,32,9999,9999,9999,2356206668
18,15,Jits_Phase_8,33,9999,9999,9999,2357006432
18,15,Jits_Phase_8,34,9999,9999,9999,2357806208
18,15,Jits_Phase_8,35,9999,9999,9999,2358606948
18,15,Jits_Phase_8,36,9999,9999,9999,2359406712
18,15,Jits_Phase_8,37,9999,9999,9999,2360206412
18,15,Jits_Phase_8,38,9999,9999,9999,2361006180
18,15,Jits_Phase_8,39,9999,9999,9999,2361806944
18,15,Jits_Phase_8,40,9999,9999,9999,2362606644
18,15,Jits_Phase_8,41,9999,9999,9999,2363406416
18,15,Jits_Phase_8,42,9999,9999,9999,2364206172
18,15,Jits_Phase_8,43,9999,9999,9999,2365006904
18,15,Jits_Phase_8,44,9999,9999,9999,2365806648
18,15,Jits_Phase_8,45,9999,9999,9999,2366606408
18,15,Jits_Phase_8,46,9999,9999,9999,2367406168
18,15,Jits_Phase_8,47,9999,9999,9999,2368206924
18,15,Jits_Phase_8,48,9999,9999,9999,2369026104
18,15,Jits_Phase_8,49,9999,9999,9999,2369826916
18,15,Jits_Phase_8,50,9999,9999,9999,2370626672
18,15,Jits_Phase_8,51,9999,9999,9999,2371426372
18,15,Jits_Phase_8,52,9999,9999,9999,2372226132
18,15,Jits_Phase_8,53,9999,9999,9999,2373026884
18,15,Jits_Phase_8,54,9999,9999,9999,2373826676
18,15,Jits_Phase_8,55,9999,9999,9999,2374626380
18,15,Jits_Phase_8,56,9999,9999,9999,2375426132
18,15,Jits_Phase_8,57,9999,9999,9999,2376226880
18,15,Jits_Phase_8,58,9999,9999,9999,2377026648
18,15,Jits_Phase_8,59,9999,9999,9999,2377826408
18,15,Jits_Phase_8,60,9999,9999,9999,2378626104
18,15,Jits_Phase_8,61,9999,9999,9999,2379426916
18,15,Jits_Phase_8,62,9999,9999,9999,2380226620
18,15,Jits_Phase_8,63,9999,9999,9999,2381026376
18,15,Jits_Phase_8,64,9999,9999,9999,2381867132
18,15,Jits_Phase_8,65,9999,9999,9999,2382677084
18,15,Jits_Phase_8,66,9999,9999,9999,2383476792
18,15,Jits_Phase_8,67,9999,9999,9999,2384276556
18,15,Jits_Phase_8,68,9999,9999,9999,2385076316
18,15,Jits_Phase_8,69,9999,9999,9999,2385877088
18,15,Jits_Phase_8,70,9999,9999,9999,2386676860
18,15,Jits_Phase_8,71,9999,9999,9999,2387476548
18,15,Jits_Phase_8,72,9999,9999,9999,2388276308
18,15,Jits_Phase_8,73,9999,9999,9999,2389077052
18,15,Jits_Phase_8,74,9999,9999,9999,2389876832
18,15,Jits_Phase_8,75,9999,9999,9999,2390676596
18,15,Jits_Phase_8,76,9999,9999,9999,2391476320
18,15,Jits_Phase_8,77,9999,9999,9999,2392277056
18,15,Jits_Phase_8,78,9999,9999,9999,2393076820
18,15,Jits_Phase_8,79,9999,9999,9999,2393876592
18,15,Jits_Phase_8,80,9999,9999,9999,2394676284
18,15,Jits_Phase_8,81,9999,9999,9999,2395436108
18,15,Jits_Phase_8,82,9999,9999,9999,2396236916
18,15,Jits_Phase_8,83,9999,9999,9999,2397036596
18,15,Jits_Phase_8,84,9999,9999,9999,2397836364
18,15,Jits_Phase_8,85,9999,9999,9999,2398636144
18,15,Jits_Phase_8,86,9999,9999,9999,2399436892
18,15,Jits_Phase_8,87,9999,9999,9999,2400236648
18,15,Jits_Phase_8,88,9999,9999,9999,2401036404
18,15,Jits_Phase_8,89,9999,9999,9999,2401836096
18,15,Jits_Phase_8,90,9999,9999,9999,2402636912
18,15,Jits_Phase_8,91,9999,9999,9999,2403436664
18,15,Jits_Phase_8,92,9999,9999,9999,2404236368
18,15,Jits_Phase_8,93,9999,9999,9999,2405036124
18,15,Jits_Phase_8,94,9999,9999,9999,2405836876
18,15,Jits_Phase_8,95,9999,9999,9999,2406636632
18,15,Jits_Phase_8,96,9999,9999,9999,2407436400
18,15,Jits_Phase_8,97,9999,9999,9999,2408156224
18,15,Jits_Phase_8,98,9999,9999,9999,2408957048
18,15,Jits_Phase_8,99,9999,9999,9999,2409756748
18,15,Jits_Phase_8,100,9999,9999,9999,2410556512
18,15,Jits_Phase_8,101,9999,9999,9999,2411356272
18,15,Jits_Phase_8,102,9999,9999,9999,2412156996
18,15,Jits_Phase_8,103,9999,9999,9999,2412956752
18,15,Jits_Phase_8,104,9999,9999,9999,2413756536
18,15,Jits_Phase_8,105,9999,9999,9999,2414556228
18,15,Jits_Phase_8,106,9999,9999,9999,2415357024
18,15,Jits_Phase_8,107,9999,9999,9999,2416156768
18,15,Jits_Phase_8,108,9999,9999,9999,2416956528
18,15,Jits_Phase_8,109,9999,9999,9999,2417756280
18,15,Jits_Phase_8,110,9999,9999,9999,2418557012
18,15,Jits_Phase_8,111,9999,9999,9999,2419356768
18,15,Jits_Phase_8,112,9999,9999,9999,2420156488
18,15,Jits_Phase_8,113,9999,9999,9999,2420956264
18,15,Jits_Phase_8,114,9999,9999,9999,2421836868
18,15,Jits_Phase_8,115,9999,9999,9999,2422636628
18,15,Jits_Phase_8,116,9999,9999,9999,2423436392
18,15,Jits_Phase_8,117,9999,9999,9999,2424236096
18,15,Jits_Phase_8,118,9999,9999,9999,2425036924
18,15,Jits_Phase_8,119,9999,9999,9999,2425836620
18,15,Jits_Phase_8,120,9999,9999,9999,2426636388
18,15,Jits_Phase_8,121,9999,9999,9999,2427436124
18,15,Jits_Phase_8,122,9999,9999,9999,2428236920
18,15,Jits_Phase_8,123,9999,9999,9999,2429036596
18,15,Jits_Phase_8,124,9999,9999,9999,2429836364
18,15,Jits_Phase_8,125,9999,9999,9999,2430636116
18,15,Jits_Phase_8,126,9999,9999,9999,2431436876
18,15,Jits_Phase_8,127,9999,9999,9999,2432236636
18,15,Jits_Phase_8,128,9999,9999,9999,2433036400
18,15,Jits_Phase_8,129,9999,9999,9999,2433836156
18,15,Jits_Phase_8,130,9999,9999,9999,2434636912
18,15,Jits_Phase_8,131,9999,9999,9999,2435596360
18,15,Jits_Phase_8,132,9999,9999,9999,2436396116
18,15,Jits_Phase_8,133,9999,9999,9999,2437196856
18,15,Jits_Phase_8,134,9999,9999,9999,2437996616
18,15,Jits_Phase_8,135,9999,9999,9999,2438796364
18,15,Jits_Phase_8,136,9999,9999,9999,2439596124
18,15,Jits_Phase_8,137,9999,9999,9999,2440396892
18,15,Jits_Phase_8,138,9999,9999,9999,2441196664
18,15,Jits_Phase_8,139,9999,9999,9999,2441996348
18,15,Jits_Phase_8,140,9999,9999,9999,2442796112
18,15,Jits_Phase_8,141,9999,9999,9999,2443596916
18,15,Jits_Phase_8,142,9999,9999,9999,2444396668
18,15,Jits_Phase_8,143,9999,9999,9999,2445196352
18,15,Jits_Phase_8,144,9999,9999,9999,2445996104
18,15,Jits_Phase_8,145,9999,9999,9999,2446796860
18,15,Jits_Phase_8,146,9999,9999,9999,2447596620
18,15,Jits_Phase_8,147,9999,9999,9999,2448396376
18,15,Jits_Phase_8,148,9999,9999,9999,2449196124
18,15,Jits_Phase_8,149,9999,9999,9999,2449996924
18,15,Jits_Phase_8,150,9999,9999,9999,2450636892
18,15,Jits_Phase_8,151,9999,9999,9999,2451436660
18,15,Jits_Phase_8,152,9999,9999,9999,2452236364
18,15,Jits_Phase_8,153,9999,9999,9999,2453036128
18,15,Jits_Phase_8,154,9999,9999,9999,2453836852
18,15,Jits_Phase_8,155,9999,9999,9999,2454636616
18,15,Jits_Phase_8,156,9999,9999,9999,2455436392
18,15,Jits_Phase_8,157,9999,9999,9999,2456236152
18,15,Jits_Phase_8,158,9999,9999,9999,2457036904
18,15,Jits_Phase_8,159,9999,9999,9999,2457836604
18,15,Jits_Phase_8,160,9999,9999,9999,2458636384
18,15,Jits_Phase_8,161,9999,9999,9999,2459436140
18,15,Jits_Phase_8,162,9999,9999,9999,2460236876
18,15,Jits_Phase_8,163,9999,9999,9999,2461036632
18,15,Jits_Phase_8,164,9999,9999,9999,2461836388
18,15,Jits_Phase_8,165,9999,9999,9999,2462636148
18,15,Jits_Phase_8,166,9999,9999,9999,2463436912
18,15,Jits_Phase_8,167,9999,9999,9999,2464236600
18,15,Jits_Phase_8,168,9999,9999,9999,2465036380
18,15,Jits_Phase_8,169,9999,9999,9999,2465836148
19,17,Jits_Phase_5,0,5,56,103,2474641868
19,17,Jits_Phase_5,1,5,63,98,2474645048
19,17,Jits_Phase_5,2,5,80,127,2474648016
19,17,Jits_Phase_5,0,5,56,103,2475141652
19,17,Jits_Phase_5,1,5,63,98,2475144828
19,17,Jits_Phase_5,2,5,80,127,2475147800
19,17,Jits_Phase_5,3,1,48,41,2475308184
19,17,Jits_Phase_5,0,5,56,103,2475642236
19,17,Jits_Phase_5,1,5,80,127,2475651532
19,17,Jits_Phase_5,2,5,63,98,2475671916
19,17,Jits_Phase_5,3,1,48,34,2475676232
19,17,Jits_Phase_5,0,5,63,98,2476091808
19,17,Jits_Phase_5,1,5,80,127,2476121632
19,17,Jits_Phase_5,2,5,56,103,2476131828
19,17,Jits_Phase_5,3,1,48,39,2476138540
19,17,Jits_Phase_5,0,1,48,44,2476592424
19,17,Jits_Phase_5,1,5,80,127,2476651932
19,17,Jits_Phase_5,2,5,56,103,2476662052
19,17,Jits_Phase_5,3,5,63,98,2476691788
19,17,Jits_Phase_5,0,5,63,98,2477142552
19,17,Jits_Phase_5,1,1,48,42,2477170872
19,17,Jits_Phase_5,2,5,56,103,2477172664
19,17,Jits_Phase_5,3,5,80,127,2477182192
19,17,Jits_Phase_5,0,5,56,103,2477591888
19,17,Jits_Phase_5,1,5,63,98,2477642012
19,17,Jits_Phase_5,2,5,80,127,2477661796
19,17,Jits_Phase_5,3,1,48,42,2477675852
19,17,Jits_Phase_5,0,5,80,127,2478091500
19,17,Jits_Phase_5,1,5,63,98,2478141852
19,17,Jits_Phase_5,2,1,48,41,2478168636
19,17,Jits_Phase_5,3,5,56,103,2478181632
19,17,Jits_Phase_5,0,5,56,103,2478592308
19,17,Jits_Phase_5,1,5,63,98,2478622060
19,17,Jits_Phase_5,2,1,48,43,2478666008
19,17,Jits_Phase_5,3,5,80,127,2478691656
19,17,Jits_Phase_5,0,5,56,103,2479091996
19,17,Jits_Phase_5,1,5,80,127,2479151416
19,17,Jits_Phase_5,2,1,48,39,2479152900
19,17,Jits_Phase_5,3,5,63,98,2479182204
19,17,Jits_Phase_5,0,5,56,103,2479602100
19,17,Jits_Phase_5,1,5,63,98,2479612448
19,17,Jits_Phase_5,2,5,80,127,2479652308
19,17,Jits_Phase_5,3,1,48,43,2479660232
19,17,Jits_Phase_5,0,5,63,98,2480091604
19,17,Jits_Phase_5,1,1,48,42,2480133384
19,17,Jits_Phase_5,2,5,80,127,2480172360
19,17,Jits_Phase_5,3,5,56,103,2480181660
19,17,Jits_Phase_5,0,5,63,98,2480642596
19,17,Jits_Phase_5,1,1,48,49,2480654560
19,17,Jits_Phase_5,2,5,56,103,2480682524
19,17,Jits_Phase_5,3,5,80,127,2480685668
19,17,Jits_Phase_5,0,5,56,103,2481102328
19,17,Jits_Phase_5,1,5,63,98,2481112528
19,17,Jits_Phase_5,2,1,48,45,2481135800
19,17,Jits_Phase_5,3,5,80,127,2481152456
19,17,Jits_Phase_5,0,5,56,103,2481591524
19,17,Jits_Phase_5,1,5,63,98,2481594600
19,17,Jits_Phase_5,2,5,80,127,2481612436
19,17,Jits_Phase_5,3,1,48,42,2481635932
19,17,Jits_Phase_5,0,5,80,127,2482101544
19,17,Jits_Phase_5,1,5,56,103,2482111964
19,17,Jits_Phase_5,2,1,48,42,2482115084
19,17,Jits_Phase_5,3,5,63,98,2482181488
19,17,Jits_Phase_5,0,5,63,98,2482602408
19,17,Jits_Phase_5,1,1,48,37,2482621696
19,17,Jits_Phase_5,2,5,56,103,2482623332
19,17,Jits_Phase_5,3,5,80,127,2482701628
19,17,Jits_Phase_5,0,1,48,38,2483076868
19,17,Jits_Phase_5,1,5,56,103,2483112560
19,17,Jits_Phase_5,2,5,80,127,2483152448
19,17,Jits_Phase_5,3,5,63,98,2483161376
19,17,Jits_Phase_5,0,5,80,127,2483601904
19,17,Jits_Phase_5,1,5,63,98,2483631756
19,17,Jits_Phase_5,2,1,48,46,2483643720
19,17,Jits_Phase_5,3,5,56,103,2483672508
19,17,Jits_Phase_5,0,5,56,103,2484121896
19,17,Jits_Phase_5,1,5,63,98,2484151672
19,17,Jits_Phase_5,2,1,48,25,2484196140
19,17,Jits_Phase_5,3,5,80,127,2484201936
19,17,Jits_Phase_5,0,5,80,127,2484621664
19,17,Jits_Phase_5,1,5,56,103,2484661552
19,17,Jits_Phase_5,2,5,63,98,2484671896
19,17,Jits_Phase_5,3,1,48,39,2484688788
19,17,Jits_Phase_5,0,5,80,127,2485101872
19,17,Jits_Phase_5,1,5,63,98,2485141740
19,17,Jits_Phase_5,2,5,56,103,2485202372
19,17,Jits_Phase_5,0,1,48,48,2485523052
19,17,Jits_Phase_5,1,5,56,103,2485601748
19,17,Jits_Phase_5,2,5,80,127,2485611792
19,17,Jits_Phase_5,3,5,63,98,2485691744
19,17,Jits_Phase_5,0,1,48,42,2486091432
19,17,Jits_Phase_5,1,5,80,127,2486102320
19,17,Jits_Phase_5,2,5,63,98,2486161740
19,17,Jits_Phase_5,3,5,56,103,2486191496
19,17,Jits_Phase_5,0,1,48,41,2486601300
19,17,Jits_Phase_5,1,5,56,103,2486612556
19,17,Jits_Phase_5,2,5,80,127,2486671676
19,17,Jits_Phase_5,3,5,63,98,2486711548
19,17,Jits_Phase_5,0,1,48,39,2487156860
19,17,Jits_Phase_5,1,5,56,103,2487162356
19,17,Jits_Phase_5,2,5,63,98,2487171428
19,17,Jits_Phase_5,3,5,80,127,2487174792
19,17,Jits_Phase_5,0,5,80,127,2487611760
19,17,Jits_Phase_5,1,1,48,32,2487665972
19,17,Jits_Phase_5,2,5,63,98,2487701736
19,17,Jits_Phase_5,3,5,56,103,2487712304
19,17,Jits_Phase_5,0,5,56,103,2488111432
19,17,Jits_Phase_5,1,5,63,98,2488114612
19,17,Jits_Phase_5,2,5,80,127,2488117732
19,17,Jits_Phase_5,3,1,48,27,2488195248
19,17,Jits_Phase_5,0,5,80,127,2488631572
19,17,Jits_Phase_5,1,1,48,33,2488663316
19,17,Jits_Phase_5,2,5,63,98,2488681692
19,17,Jits_Phase_5,3,5,56,103,2488711516
19,17,Jits_Phase_5,0,5,56,103,2489111936
19,17,Jits_Phase_5,1,1,48,37,2489117148
19,17,Jits_Phase_5,2,5,80,127,2489122420
19,17,Jits_Phase_5,3,5,63,98,2489191876
19,17,Jits_Phase_5,0,5,56,103,2489621960
19,17,Jits_Phase_5,1,5,63,98,2489642348
19,17,Jits_Phase_5,2,1,48,36,2489660080
19,17,Jits_Phase_5,3,5,80,127,2489701680
19,17,Jits_Phase_5,0,5,80,127,2490102396
19,17,Jits_Phase_5,1,1,48,27,2490144028
19,17,Jits_Phase_5,2,5,63,98,2490171700
19,17,Jits_Phase_5,3,5,56,103,2490192380
19,17,Jits_Phase_5,0,1,48,36,2490617864
19,17,Jits_Phase_5,1,5,80,127,2490622236
19,17,Jits_Phase_5,2,5,56,103,2490631460
19,17,Jits_Phase_5,3,5,63,98,2490641880
19,17,Jits_Phase_5,0,5,80,127,2491111652
19,17,Jits_Phase_5,1,5,56,103,2491132260
19,17,Jits_Phase_5,2,1,48,40,2491141308
19,17,Jits_Phase_5,3,5,63,98,2491201780
19,17,Jits_Phase_5,0,5,56,103,2491621756
19,17,Jits_Phase_5,1,1,48,38,2491637752
19,17,Jits_Phase_5,2,5,80,127,2491651348
19,17,Jits_Phase_5,3,5,63,98,2491671880
19,17,Jits_Phase_5,0,5,63,98,2492112304
19,17,Jits_Phase_5,1,1,48,41,2492116100
19,17,Jits_Phase_5,2,5,56,103,2492171568
19,17,Jits_Phase_5,3,5,80,127,2492202212
19,17,Jits_Phase_5,0,5,63,98,2492601716
19,17,Jits_Phase_5,1,5,80,127,2492605084
19,17,Jits_Phase_5,2,1,48,42,2492615472
19,17,Jits_Phase_5,3,5,56,103,2492691840
19,17,Jits_Phase_5,0,1,48,43,2493109600
19,17,Jits_Phase_5,1,5,56,103,2493122052
19,17,Jits_Phase_5,2,5,63,98,2493151728
19,17,Jits_Phase_5,3,5,80,127,2493191588
19,17,Jits_Phase_5,0,1,48,32,2493597252
19,17,Jits_Phase_5,1,5,63,98,2493621656
19,17,Jits_Phase_5,2,5,56,103,2493661520
19,17,Jits_Phase_5,3,5,80,127,2493682128
19,17,Jits_Phase_5,0,1,48,44,2494127148
19,17,Jits_Phase_5,1,5,63,98,2494131448
19,17,Jits_Phase_5,2,5,56,103,2494171388
19,17,Jits_Phase_5,3,5,80,127,2494181732
19,17,Jits_Phase_5,0,5,80,127,2494611704
19,17,Jits_Phase_5,1,1,48,43,2494627476
19,17,Jits_Phase_5,2,5,63,98,2494681400
19,17,Jits_Phase_5,3,5,56,103,2494702080
19,17,Jits_Phase_5,0,5,56,103,2495102328
19,17,Jits_Phase_5,1,5,80,127,2495121740
19,17,Jits_Phase_5,2,1,48,35,2495129736
19,17,Jits_Phase_5,3,5,63,98,2495161620
19,17,Jits_Phase_5,0,1,48,43,2495583920
19,17,Jits_Phase_5,1,5,63,98,2495612264
19,17,Jits_Phase_5,2,5,80,127,2495631676
19,17,Jits_Phase_5,3,5,56,103,2495671712
19,17,Jits_Phase_5,0,1,48,44,2496085988
19,17,Jits_Phase_5,1,5,63,98,2496112240
19,17,Jits_Phase_5,2,5,56,103,2496131580
19,17,Jits_Phase_5,3,5,80,127,2496141772
19,17,Jits_Phase_5,0,1,48,43,2496602452
19,17,Jits_Phase_5,1,5,80,127,2496611616
19,17,Jits_Phase_5,2,5,56,103,2496632224
19,17,Jits_Phase_5,3,5,63,98,2496662044
19,17,Jits_Phase_5,0,1,48,30,2497107580
19,17,Jits_Phase_5,1,5,56,103,2497182156
19,17,Jits_Phase_5,2,5,80,127,2497185076
19,17,Jits_Phase_5,3,5,63,98,2497202772
19,17,Jits_Phase_5,0,1,48,34,2497590256
19,17,Jits_Phase_5,1,5,63,98,2497602188
19,17,Jits_Phase_5,2,5,56,103,2497631568
19,17,Jits_Phase_5,3,5,80,127,2497692236
19,17,Jits_Phase_5,0,1,48,38,2498128876
19,17,Jits_Phase_5,1,5,63,98,2498181508
19,17,Jits_Phase_5,2,5,56,103,2498191852
19,17,Jits_Phase_5,3,5,80,127,2498202124
19,17,Jits_Phase_5,0,5,56,103,2498642236
19,17,Jits_Phase_5,1,1,48,36,2498665432
19,17,Jits_Phase_5,2,5,80,127,2498672128
19,17,Jits_Phase_5,3,5,63,98,2498682100
19,17,Jits_Phase_5,0,5,63,98,2499182156
19,17,Jits_Phase_5,1,5,56,103,2499192128
19,17,Jits_Phase_5,2,1,48,40,2499196744
19,17,Jits_Phase_5,3,5,80,127,2499211756
19,17,Jits_Phase_5,0,5,56,103,2499612088
19,17,Jits_Phase_5,1,5,63,98,2499672320
19,17,Jits_Phase_5,2,5,80,127,2499675768
19,17,Jits_Phase_5,3,1,48,40,2499699876
19,17,Jits_Phase_5,0,1,48,40,2500124024
19,17,Jits_Phase_5,1,5,80,127,2500132288
19,17,Jits_Phase_5,2,5,56,103,2500141288
19,17,Jits_Phase_5,3,5,63,98,2500212160
19,17,Jits_Phase_5,0,5,80,127,2500621784
19,17,Jits_Phase_5,1,1,48,43,2500644160
19,17,Jits_Phase_5,2,5,56,103,2500692280
19,17,Jits_Phase_5,3,5,63,98,2500701500
19,17,Jits_Phase_5,0,5,63,98,2501162304
19,17,Jits_Phase_5,1,1,48,43,2501166468
19,17,Jits_Phase_5,2,5,56,103,2501171520
19,17,Jits_Phase_5,3,5,80,127,2501191976
19,17,Jits_Phase_5,0,5,80,127,2501611860
19,17,Jits_Phase_5,1,5,63,98,2501672248
19,17,Jits_Phase_5,2,1,48,21,2501674036
19,17,Jits_Phase_5,3,5,56,103,2501712176
19,17,Jits_Phase_5,0,5,56,103,2502151484
19,17,Jits_Phase_5,1,5,63,98,2502161752
19,17,Jits_Phase_5,2,1,48,31,2502176332
19,17,Jits_Phase_5,3,5,80,127,2502201684
19,17,Jits_Phase_5,0,5,56,103,2502612292
19,17,Jits_Phase_5,1,5,80,127,2502642116
19,17,Jits_Phase_5,2,1,48,41,2502673780
19,17,Jits_Phase_5,3,5,63,98,2502692160
19,17,Jits_Phase_5,0,5,56,103,2503151916
19,17,Jits_Phase_5,1,1,48,32,2503170920
19,17,Jits_Phase_5,2,5,63,98,2503191920
19,17,Jits_Phase_5,3,5,80,127,2503195284
19,17,Jits_Phase_5,0,5,56,103,2503651896
19,17,Jits_Phase_5,1,5,63,98,2503662092
19,17,Jits_Phase_5,2,5,80,127,2503682552
19,17,Jits_Phase_5,3,1,48,37,2503698776
19,17,Jits_Phase_5,0,5,56,103,2504111352
19,17,Jits_Phase_5,1,5,80,127,2504114500
19,17,Jits_Phase_5,2,5,63,98,2504152416
19,17,Jits_Phase_5,3,1,48,32,2504209384
19,17,Jits_Phase_5,0,5,63,98,2504652168
19,17,Jits_Phase_5,1,1,48,39,2504664132
19,17,Jits_Phase_5,2,5,56,103,2504681908
19,17,Jits_Phase_5,3,5,80,127,2504702220
19,17,Jits_Phase_5,0,5,80,127,2505122228
19,17,Jits_Phase_5,1,5,56,103,2505132572
19,17,Jits_Phase_5,2,5,63,98,2505141524
19,17,Jits_Phase_5,3,1,48,45,2505143008
19,17,Jits_Phase_5,0,5,56,103,2505621768
19,17,Jits_Phase_5,1,1,48,44,2505637836
19,17,Jits_Phase_5,2,5,80,127,2505661944
19,17,Jits_Phase_5,3,5,63,98,2505691396
19,17,Jits_Phase_5,0,5,63,98,2506132092
19,17,Jits_Phase_5,1,5,80,127,2506141916
19,17,Jits_Phase_5,2,1,48,45,2506151884
19,17,Jits_Phase_5,3,5,56,103,2506153820
19,17,Jits_Phase_5,0,1,48,48,2506615692
19,17,Jits_Phase_5,1,5,56,103,2506622536
19,17,Jits_Phase_5,2,5,63,98,2506692092
19,17,Jits_Phase_5,3,5,80,127,2506702288
19,17,Jits_Phase_5,0,1,48,45,2507122792
19,17,Jits_Phase_5,1,5,80,127,2507132332
19,17,Jits_Phase_5,2,5,56,103,2507141928
19,17,Jits_Phase_5,3,5,63,98,2507191776
19,17,Jits_Phase_5,0,1,48,28,2507628892
19,17,Jits_Phase_5,1,5,80,127,2507642260
19,17,Jits_Phase_5,2,5,56,103,2507701552
19,17,Jits_Phase_5,3,5,63,98,2507732480
19,17,Jits_Phase_5,0,5,56,103,2508142016
19,17,Jits_Phase_5,1,5,80,127,2508145160
19,17,Jits_Phase_5,2,1,48,47,2508166932
19,17,Jits_Phase_5,3,5,63,98,2508181796
19,17,Jits_Phase_5,0,1,48,43,2508624360
19,17,Jits_Phase_5,1,5,56,103,2508672408
19,17,Jits_Phase_5,2,5,63,98,2508702008
19,17,Jits_Phase_5,3,5,80,127,2508712352
19,17,Jits_Phase_5,0,1,48,46,2509149256
19,17,Jits_Phase_5,1,5,63,98,2509182324
19,17,Jits_Phase_5,2,5,80,127,2509191624
19,17,Jits_Phase_5,3,5,56,103,2509201896
19,17,Jits_Phase_5,0,5,80,127,2509631888
19,17,Jits_Phase_5,1,1,48,43,2509679352
19,17,Jits_Phase_5,2,5,56,103,2509682008
19,17,Jits_Phase_5,3,5,63,98,2509685076
19,17,Jits_Phase_5,0,5,56,103,2510162212
19,17,Jits_Phase_5,1,1,48,47,2510175816
19,17,Jits_Phase_5,2,5,80,127,2510181688
19,17,Jits_Phase_5,3,5,63,98,2510192108
19,17,Jits_Phase_5,0,5,63,98,2510641596
19,17,Jits_Phase_5,1,1,48,43,2510667864
19,17,Jits_Phase_5,2,5,56,103,2510672164
19,17,Jits_Phase_5,3,5,80,127,2510691800
19,17,Jits_Phase_5,0,5,56,103,2511151688
19,17,Jits_Phase_5,1,5,80,127,2511161884
19,17,Jits_Phase_5,2,1,48,44,2511180368
19,17,Jits_Phase_5,3,5,63,98,2511232524
19,17,Jits_Phase_5,0,1,48,28,2511636588
19,17,Jits_Phase_5,1,5,63,98,2511641936
19,17,Jits_Phase_5,2,5,80,127,2511682020
19,17,Jits_Phase_5,3,5,56,103,2511721880
19,17,Jits_Phase_5,0,5,56,103,2512151880
19,17,Jits_Phase_5,1,5,63,98,2512162152
19,17,Jits_Phase_5,2,1,48,41,2512165496
19,17,Jits_Phase_5,3,5,80,127,2512181852
19,17,Jits_Phase_5,0,1,48,43,2512652588
19,17,Jits_Phase_5,1,5,63,98,2512691648
19,17,Jits_Phase_5,2,5,80,127,2512712032
19,17,Jits_Phase_5,3,5,56,103,2512731812
19,17,Jits_Phase_5,0,5,56,103,2513131996
19,17,Jits_Phase_5,1,1,48,45,2513181796
19,17,Jits_Phase_5,2,5,80,127,2513211708
19,17,Jits_Phase_5,3,5,63,98,2513221976
19,17,Jits_Phase_5,0,5,80,127,2513671696
19,17,Jits_Phase_5,1,5,63,98,2513681744
19,17,Jits_Phase_5,2,1,48,43,2513688828
19,17,Jits_Phase_5,3,5,56,103,2513711632
19,17,Jits_Phase_5,0,5,63,98,2514132204
19,17,Jits_Phase_5,1,5,80,127,2514172216
19,17,Jits_Phase_5,2,1,48,46,2514202604
19,17,Jits_Phase_5,3,5,56,103,2514231700
19,17,Jits_Phase_5,0,5,63,98,2514642292
19,17,Jits_Phase_5,1,1,48,35,2514685420
19,17,Jits_Phase_5,2,5,56,103,2514691368
19,17,Jits_Phase_5,3,5,80,127,2514722088
19,17,Jits_Phase_5,0,5,80,127,2515141900
19,17,Jits_Phase_5,1,5,63,98,2515152096
19,17,Jits_Phase_5,2,1,48,34,2515177232
19,17,Jits_Phase_5,3,5,56,103,2515221912
19,17,Jits_Phase_5,0,1,48,39,2515658556
19,17,Jits_Phase_5,1,5,80,127,2515702272
19,17,Jits_Phase_5,2,5,56,103,2515712692
19,17,Jits_Phase_5,3,5,63,98,2515715680
19,17,Jits_Phase_5,0,5,56,103,2516141644
19,17,Jits_Phase_5,1,1,48,27,2516145136
19,17,Jits_Phase_5,2,5,80,127,2516161796
19,17,Jits_Phase_5,3,5,63,98,2516172292
19,17,Jits_Phase_5,0,1,48,31,2516629972
19,17,Jits_Phase_5,1,5,63,98,2516652836
19,17,Jits_Phase_5,2,5,56,103,2516692624
19,17,Jits_Phase_5,3,5,80,127,2516711740
19,17,Jits_Phase_5,0,5,63,98,2517151976
19,17,Jits_Phase_5,1,1,48,35,2517153016
19,17,Jits_Phase_5,2,5,56,103,2517211704
19,17,Jits_Phase_5,3,5,80,127,2517214848
19,17,Jits_Phase_5,0,5,56,103,2517611864
19,17,Jits_Phase_5,1,5,80,127,2517632620
19,17,Jits_Phase_5,2,5,63,98,2517672556
19,17,Jits_Phase_5,3,1,48,37,2517675828
19,17,Jits_Phase_5,0,5,56,103,2518142416
19,17,Jits_Phase_5,1,5,63,98,2518161756
19,17,Jits_Phase_5,2,5,80,127,2518172024
19,17,Jits_Phase_5,3,1,48,35,2518180920
19,17,Jits_Phase_5,0,5,80,127,2518612508
19,17,Jits_Phase_5,1,5,56,103,2518641960
19,17,Jits_Phase_5,2,1,48,36,2518649196
19,17,Jits_Phase_5,3,5,63,98,2518681968
19,17,Jits_Phase_5,0,1,48,36,2519093588
19,17,Jits_Phase_5,1,5,80,127,2519122380
19,17,Jits_Phase_5,2,5,56,103,2519141868
19,17,Jits_Phase_5,3,5,63,98,2519202016
19,17,Jits_Phase_5,0,5,56,103,2519632100
19,17,Jits_Phase_5,1,1,48,24,2519647428
19,17,Jits_Phase_5,2,5,80,127,2519651728
19,17,Jits_Phase_5,3,5,63,98,2519712188
19,17,Jits_Phase_5,0,5,80,127,2520111560
19,17,Jits_Phase_5,1,5,56,103,2520121608
19,17,Jits_Phase_5,2,1,48,42,2520141064
19,17,Jits_Phase_5,3,5,63,98,2520161612
19,17,Jits_Phase_5,0,1,48,38,2520576888
19,17,Jits_Phase_5,1,5,63,98,2520612136
19,17,Jits_Phase_5,2,5,56,103,2520652072
19,17,Jits_Phase_5,3,5,80,127,2520655292
19,17,Jits_Phase_5,0,1,48,43,2521080536
19,17,Jits_Phase_5,1,5,63,98,2521132624
19,17,Jits_Phase_5,2,5,80,127,2521172412
19,17,Jits_Phase_5,3,5,56,103,2521201920
19,17,Jits_Phase_5,0,1,48,35,2521606428
19,17,Jits_Phase_5,1,5,56,103,2521621812
19,17,Jits_Phase_5,2,5,63,98,2521632232
19,17,Jits_Phase_5,3,5,80,127,2521661760
19,17,Jits_Phase_5,0,5,80,127,2522112500
19,17,Jits_Phase_5,1,1,48,44,2522133532
19,17,Jits_Phase_5,2,5,63,98,2522181876
19,17,Jits_Phase_5,3,5,56,103,2522192444
19,17,Jits_Phase_5,0,5,63,98,2522612188
19,17,Jits_Phase_5,1,1,48,45,2522629476
19,17,Jits_Phase_5,2,5,56,103,2522681788
19,17,Jits_Phase_5,3,5,80,127,2522691908
19,17,Jits_Phase_5,0,5,63,98,2523092532
19,17,Jits_Phase_5,1,5,56,103,2523111724
19,17,Jits_Phase_5,2,1,48,49,2523143388
19,17,Jits_Phase_5,3,5,80,127,2523151728
19,17,Jits_Phase_5,0,5,56,103,2523571608
19,17,Jits_Phase_5,1,5,63,98,2523581808
19,17,Jits_Phase_5,2,1,48,47,2523621188
19,17,Jits_Phase_5,3,5,80,127,2523661592
19,17,Jits_Phase_5,0,5,63,98,2524062208
19,17,Jits_Phase_5,1,5,56,103,2524091684
19,17,Jits_Phase_5,2,1,48,48,2524118100
19,17,Jits_Phase_5,3,5,80,127,2524131836
19,17,Jits_Phase_5,0,1,48,46,2524552488
19,17,Jits_Phase_5,1,5,56,103,2524561876
19,17,Jits_Phase_5,2,5,63,98,2524601688
19,17,Jits_Phase_5,3,5,80,127,2524641628
19,17,Jits_Phase_5,0,5,80,127,2525061556
19,17,Jits_Phase_5,1,1,48,50,2525070224
19,17,Jits_Phase_5,2,5,56,103,2525142488
19,17,Jits_Phase_5,3,5,63,98,2525151564
19,17,Jits_Phase_5,0,5,56,103,2525602300
19,17,Jits_Phase_5,1,1,48,40,2525604924
19,17,Jits_Phase_5,2,5,63,98,2525606632
19,17,Jits_Phase_5,3,5,80,127,2525612812
19,17,Jits_Phase_5,0,5,56,103,2526122576
19,17,Jits_Phase_5,1,5,63,98,2526141844
19,17,Jits_Phase_5,2,1,48,25,2526147656
19,17,Jits_Phase_5,3,5,80,127,2526152032
19,17,Jits_Phase_5,0,5,63,98,2526582240
19,17,Jits_Phase_5,1,5,80,127,2526592364
19,17,Jits_Phase_5,2,5,56,103,2526611700
19,17,Jits_Phase_5,3,1,48,46,2526647500
19,17,Jits_Phase_5,0,5,63,98,2527081768
19,17,Jits_Phase_5,1,1,48,36,2527123920
19,17,Jits_Phase_5,2,5,56,103,2527161652
19,17,Jits_Phase_5,3,5,80,127,2527164720
19,17,Jits_Phase_5,0,5,63,98,2527591920
19,17,Jits_Phase_5,1,1,48,44,2527594596
19,17,Jits_Phase_5,2,5,56,103,2527612224
19,17,Jits_Phase_5,3,5,80,127,2527641896
19,17,Jits_Phase_5,0,5,56,103,2528091448
19,17,Jits_Phase_5,1,5,63,98,2528112204
19,17,Jits_Phase_5,2,5,80,127,2528122328
19,17,Jits_Phase_5,0,1,48,38,2528445864
19,17,Jits_Phase_5,1,5,56,103,2528622020
19,17,Jits_Phase_5,2,5,63,98,2528651620
19,17,Jits_Phase_5,3,5,80,127,2528655132
19,17,Jits_Phase_5,0,5,56,103,2529071364
19,17,Jits_Phase_5,1,1,48,36,2529094560
19,17,Jits_Phase_5,2,5,63,98,2529112416
19,17,Jits_Phase_5,3,5,80,127,2529171828
19,17,Jits_Phase_5,0,5,56,103,2529591580
19,17,Jits_Phase_5,1,1,48,27,2529601400
19,17,Jits_Phase_5,2,5,63,98,2529603264
19,17,Jits_Phase_5,3,5,80,127,2529662304
19,17,Jits_Phase_5,0,1,48,40,2530060972
19,17,Jits_Phase_5,1,5,56,103,2530092384
19,17,Jits_Phase_5,2,5,80,127,2530111796
19,17,Jits_Phase_5,3,5,63,98,2530141548
19,17,Jits_Phase_5,0,1,48,47,2530576820
19,17,Jits_Phase_5,1,5,80,127,2530592356
19,17,Jits_Phase_5,2,5,56,103,2530602328
19,17,Jits_Phase_5,3,5,63,98,2530621740
19,17,Jits_Phase_5,0,1,48,46,2531074248
19,17,Jits_Phase_5,1,5,63,98,2531081544
19,17,Jits_Phase_5,2,5,80,127,2531161412
19,17,Jits_Phase_5,3,5,56,103,2531171668
19,17,Jits_Phase_5,0,1,48,38,2531566500
19,17,Jits_Phase_5,1,5,80,127,2531672380
19,17,Jits_Phase_5,2,5,56,103,2531692088
19,17,Jits_Phase_5,3,5,63,98,2531695084
19,17,Jits_Phase_5,0,5,63,98,2532161880
19,17,Jits_Phase_5,1,5,80,127,2532165320
19,17,Jits_Phase_5,2,1,48,29,2532194520
19,17,Jits_Phase_5,3,5,56,103,2532222336
19,17,Jits_Phase_5,0,5,56,103,2532642148
19,17,Jits_Phase_5,1,5,80,127,2532652492
19,17,Jits_Phase_5,2,5,63,98,2532692500
19,17,Jits_Phase_5,3,1,48,33,2532697196
19,17,Jits_Phase_5,0,5,56,103,2533122428
19,17,Jits_Phase_5,1,5,63,98,2533181920
19,17,Jits_Phase_5,2,1,48,42,2533187060
19,17,Jits_Phase_5,3,5,80,127,2533192184
19,17,Jits_Phase_5,0,5,63,98,2533632308
19,17,Jits_Phase_5,1,5,80,127,2533672244
19,17,Jits_Phase_5,2,1,48,45,2533693648
19,17,Jits_Phase_5,3,5,56,103,2533712324
19,17,Jits_Phase_5,0,5,56,103,2534132056
19,17,Jits_Phase_5,1,1,48,42,2534188884
19,17,Jits_Phase_5,2,5,63,98,2534212216
19,17,Jits_Phase_5,3,5,80,127,2534215356
19,17,Jits_Phase_5,0,5,80,127,2534692200
19,17,Jits_Phase_5,1,1,48,38,2534720656
19,17,Jits_Phase_5,2,5,56,103,2534722316
19,17,Jits_Phase_5,3,5,63,98,2534725456
19,17,Jits_Phase_5,0,5,56,103,2535152104
19,17,Jits_Phase_5,1,5,80,127,2535171440
19,17,Jits_Phase_5,2,5,63,98,2535212348
19,17,Jits_Phase_5,3,1,48,34,2535254720
19,17,Jits_Phase_5,0,5,80,127,2535632388
19,17,Jits_Phase_5,1,5,63,98,2535651652
19,17,Jits_Phase_5,2,5,56,103,2535712184
19,17,Jits_Phase_5,3,1,48,44,2535732836
19,17,Jits_Phase_5,0,5,63,98,2536142192
19,17,Jits_Phase_5,1,5,56,103,2536152388
19,17,Jits_Phase_5,2,1,48,41,2536187192
19,17,Jits_Phase_5,3,5,80,127,2536201532
19,17,Jits_Phase_5,0,5,56,103,2536631828
19,17,Jits_Phase_5,1,5,63,98,2536652136
19,17,Jits_Phase_5,2,5,80,127,2536662256
19,17,Jits_Phase_5,3,1,48,43,2536674892
19,17,Jits_Phase_5,0,1,48,38,2537094152
19,17,Jits_Phase_5,1,5,56,103,2537122188
19,17,Jits_Phase_5,2,5,63,98,2537125184
19,17,Jits_Phase_5,3,5,80,127,2537141700
19,17,Jits_Phase_5,0,1,48,38,2537599640
19,17,Jits_Phase_5,1,5,63,98,2537661884
19,17,Jits_Phase_5,2,5,56,103,2537692064
19,17,Jits_Phase_5,3,5,80,127,2537722188
19,17,Jits_Phase_5,0,5,80,127,2538121540
19,17,Jits_Phase_5,1,5,56,103,2538211620
19,17,Jits_Phase_5,2,5,63,98,2538214540
19,17,Jits_Phase_5,3,1,48,32,2538215504
19,17,Jits_Phase_5,0,5,56,103,2538622268
19,17,Jits_Phase_5,1,5,80,127,2538625336
19,17,Jits_Phase_5,2,5,63,98,2538702160
19,17,Jits_Phase_5,3,1,48,32,2538720188
19,17,Jits_Phase_5,0,5,80,127,2539121944
19,17,Jits_Phase_5,1,5,63,98,2539181536
19,17,Jits_Phase_5,2,5,56,103,2539212108
19,17,Jits_Phase_5,3,1,48,43,2539225116
19,17,Jits_Phase_5,0,5,63,98,2539622008
19,17,Jits_Phase_5,1,5,80,127,2539632204
19,17,Jits_Phase_5,2,1,48,34,2539661624
19,17,Jits_Phase_5,3,5,56,103,2539701748
19,17,Jits_Phase_5,0,1,48,43,2540151396
19,17,Jits_Phase_5,1,5,56,103,2540181984
19,17,Jits_Phase_5,2,5,80,127,2540211460
19,17,Jits_Phase_5,3,5,63,98,2540262016
19,17,Jits_Phase_5,0,1,48,35,2540699300
19,17,Jits_Phase_5,1,5,63,98,2540771880
19,17,Jits_Phase_5,2,5,56,103,2540802364
19,17,Jits_Phase_5,3,5,80,127,2540805356
19,17,Jits_Phase_5,0,5,63,98,2541272456
19,17,Jits_Phase_5,1,5,80,127,2541292092
19,17,Jits_Phase_5,2,5,56,103,2541301992
19,17,Jits_Phase_5,3,1,48,35,2541349076
19,17,Jits_Phase_5,0,5,56,103,2541782396
19,17,Jits_Phase_5,1,5,63,98,2541785316
19,17,Jits_Phase_5,2,5,80,127,2541801808
19,17,Jits_Phase_5,3,1,48,35,2541853392
19,17,Jits_Phase_5,0,5,56,103,2542232012
19,17,Jits_Phase_5,1,5,63,98,2542242208
19,17,Jits_Phase_5,2,5,80,127,2542271904
19,17,Jits_Phase_5,3,1,48,37,2542348360
19,17,Jits_Phase_5,0,5,63,98,2542752224
19,17,Jits_Phase_5,1,5,80,127,2542771512
19,17,Jits_Phase_5,2,5,56,103,2542811376
19,17,Jits_Phase_5,3,1,48,27,2542865880
19,17,Jits_Phase_5,0,5,56,103,2543281376
19,17,Jits_Phase_5,1,1,48,32,2543297748
19,17,Jits_Phase_5,2,5,63,98,2543321452
19,17,Jits_Phase_5,3,5,80,127,2543324892
19,17,Jits_Phase_5,0,5,80,127,2543722068
19,17,Jits_Phase_5,1,5,56,103,2543761932
19,17,Jits_Phase_5,2,1,48,40,2543790332
19,17,Jits_Phase_5,3,5,63,98,2543811928
19,17,Jits_Phase_5,0,5,56,103,2544281848
19,17,Jits_Phase_5,1,5,80,127,2544292344
19,17,Jits_Phase_5,2,1,48,29,2544296436
19,17,Jits_Phase_5,3,5,63,98,2544321960
19,17,Jits_Phase_5,0,5,56,103,2544731644
19,17,Jits_Phase_5,1,5,80,127,2544771432
19,17,Jits_Phase_5,2,1,48,38,2544788632
19,17,Jits_Phase_5,3,5,63,98,2544821648
19,17,Jits_Phase_5,0,5,56,103,2545232232
19,17,Jits_Phase_5,1,5,80,127,2545272096
19,17,Jits_Phase_5,2,1,48,19,2545314544
19,17,Jits_Phase_5,3,5,63,98,2545322364
19,17,Jits_Phase_5,0,5,80,127,2545721660
19,17,Jits_Phase_5,1,1,48,38,2545793260
19,17,Jits_Phase_5,2,5,63,98,2545801748
19,17,Jits_Phase_5,3,5,56,103,2545811796
19,17,Jits_Phase_5,0,1,48,38,2546237724
19,17,Jits_Phase_5,1,5,80,127,2546271844
19,17,Jits_Phase_5,2,5,56,103,2546282112
19,17,Jits_Phase_5,3,5,63,98,2546302272
19,17,Jits_Phase_5,0,1,48,36,2546715376
19,17,Jits_Phase_5,1,5,63,98,2546741628
19,17,Jits_Phase_5,2,5,56,103,2546812188
19,17,Jits_Phase_5,3,5,80,127,2546815256
19,17,Jits_Phase_5,0,5,80,127,2547232012
19,17,Jits_Phase_5,1,5,63,98,2547282288
19,17,Jits_Phase_5,2,1,48,43,2547288328
19,17,Jits_Phase_5,3,5,56,103,2547322216
19,17,Jits_Phase_5,0,5,63,98,2547771784
19,17,Jits_Phase_5,1,1,48,45,2547784944
19,17,Jits_Phase_5,2,5,56,103,2547811940
19,17,Jits_Phase_5,3,5,80,127,2547822136
19,17,Jits_Phase_5,0,1,48,37,2548248652
19,17,Jits_Phase_5,1,5,63,98,2548262168
19,17,Jits_Phase_5,2,5,56,103,2548281728
19,17,Jits_Phase_5,3,5,80,127,2548302188
19,17,Jits_Phase_5,0,5,80,127,2548722068
19,17,Jits_Phase_5,1,5,56,103,2548732412
19,17,Jits_Phase_5,2,5,63,98,2548751972
19,17,Jits_Phase_5,3,1,48,36,2548773148
19,17,Jits_Phase_5,0,1,48,37,2549226960
19,17,Jits_Phase_5,1,5,63,98,2549251568
19,17,Jits_Phase_5,2,5,56,103,2549292400
19,17,Jits_Phase_5,3,5,80,127,2549322076
19,17,Jits_Phase_5,0,5,56,103,2549712144
19,17,Jits_Phase_5,1,1,48,35,2549724184
19,17,Jits_Phase_5,2,5,63,98,2549741888
19,17,Jits_Phase_5,3,5,80,127,2549771860
19,17,Jits_Phase_5,0,5,80,127,2550132184
19,17,Jits_Phase_5,1,5,56,103,2550201664
19,17,Jits_Phase_5,2,5,63,98,2550204656
19,17,Jits_Phase_5,3,1,48,30,2550253100
19,17,Jits_Phase_5,0,5,56,103,2550641980
19,17,Jits_Phase_5,1,5,63,98,2550692104
19,17,Jits_Phase_5,2,5,80,127,2550721952
19,17,Jits_Phase_5,3,1,48,19,2550732044
19,17,Jits_Phase_5,0,5,63,98,2551122716
19,17,Jits_Phase_5,1,5,80,127,2551125856
19,17,Jits_Phase_5,2,1,48,28,2551181680
19,17,Jits_Phase_5,3,5,56,103,2551183240
19,17,Jits_Phase_5,0,1,48,32,2551652044
19,17,Jits_Phase_5,1,5,56,103,2551653540
19,17,Jits_Phase_5,2,5,80,127,2551661864
19,17,Jits_Phase_5,3,5,63,98,2551712136
19,17,Jits_Phase_5,0,5,63,98,2552121608
19,17,Jits_Phase_5,1,5,56,103,2552131804
19,17,Jits_Phase_5,2,1,48,27,2552159580
19,17,Jits_Phase_5,3,5,80,127,2552161548
19,17,Jits_Phase_5,0,5,63,98,2552652068
19,17,Jits_Phase_5,1,5,80,127,2552655656
19,17,Jits_Phase_5,2,1,48,41,2552665896
19,17,Jits_Phase_5,3,5,56,103,2552681808
19,17,Jits_Phase_5,0,1,48,34,2553119868
19,17,Jits_Phase_5,1,5,63,98,2553172328
19,17,Jits_Phase_5,2,5,56,103,2553191740
19,17,Jits_Phase_5,3,5,80,127,2553194956
19,17,Jits_Phase_5,0,5,63,98,2553632000
19,17,Jits_Phase_5,1,1,48,32,2553652652
19,17,Jits_Phase_5,2,5,56,103,2553701824
19,17,Jits_Phase_5,3,5,80,127,2553722132
19,17,Jits_Phase_5,0,5,56,103,2554121712
19,17,Jits_Phase_5,1,5,63,98,2554131760
19,17,Jits_Phase_5,2,1,48,29,2554161776
19,17,Jits_Phase_5,3,5,80,127,2554221804
19,17,Jits_Phase_5,0,5,56,103,2554641856
19,17,Jits_Phase_5,1,1,48,35,2554644376
19,17,Jits_Phase_5,2,5,80,127,2554681636
19,17,Jits_Phase_5,3,5,63,98,2554692132
19,17,Jits_Phase_5,0,1,48,22,2555111248
19,17,Jits_Phase_5,1,5,56,103,2555161916
19,17,Jits_Phase_5,2,5,63,98,2555191668
19,17,Jits_Phase_5,3,5,80,127,2555222744
19,17,Jits_Phase_5,0,1,48,28,2555603580
19,17,Jits_Phase_5,1,5,80,127,2555621740
19,17,Jits_Phase_5,2,5,63,98,2555661828
19,17,Jits_Phase_5,3,5,56,103,2555682060
19,17,Jits_Phase_5,0,1,48,36,2556130608
19,17,Jits_Phase_5,1,5,56,103,2556162616
19,17,Jits_Phase_5,2,5,80,127,2556181732
19,17,Jits_Phase_5,3,5,63,98,2556202560
19,17,Jits_Phase_5,0,5,63,98,2556632632
19,17,Jits_Phase_5,1,1,48,42,2556637328
19,17,Jits_Phase_5,2,5,56,103,2556641704
19,17,Jits_Phase_5,3,5,80,127,2556702088
19,17,Jits_Phase_5,0,5,56,103,2557132088
19,17,Jits_Phase_5,1,1,48,46,2557165700
19,17,Jits_Phase_5,2,5,63,98,2557201760
19,17,Jits_Phase_5,3,5,80,127,2557222368
19,17,Jits_Phase_5,0,1,48,36,2557632228
19,17,Jits_Phase_5,1,5,56,103,2557633492
19,17,Jits_Phase_5,2,5,63,98,2557661672
19,17,Jits_Phase_5,3,5,80,127,2557701460
19,17,Jits_Phase_5,0,5,63,98,2558122836
19,17,Jits_Phase_5,1,5,56,103,2558171468
19,17,Jits_Phase_5,2,1,48,35,2558180460
19,17,Jits_Phase_5,3,5,80,127,2558182180
19,17,Jits_Phase_5,0,1,48,38,2558650436
19,17,Jits_Phase_5,1,5,56,103,2558661992
19,17,Jits_Phase_5,2,5,63,98,2558712340
19,17,Jits_Phase_5,3,5,80,127,2558722608
19,17,Jits_Phase_5,0,5,56,103,2559131912
19,17,Jits_Phase_5,1,5,63,98,2559142328
19,17,Jits_Phase_5,2,1,48,42,2559151920
19,17,Jits_Phase_5,3,5,80,127,2559221988
19,17,Jits_Phase_5,0,9999,9999,9999,2474889300
19,17,Jits_Phase_5,1,9999,9999,9999,2475390048
19,17,Jits_Phase_5,2,9999,9999,9999,2475889724
19,17,Jits_Phase_5,3,9999,9999,9999,2476389484
19,17,Jits_Phase_5,4,9999,9999,9999,2476889164
19,17,Jits_Phase_5,5,9999,9999,9999,2477389892
19,17,Jits_Phase_5,6,9999,9999,9999,2477889640
19,17,Jits_Phase_5,7,9999,9999,9999,2478389332
19,17,Jits_Phase_5,8,9999,9999,9999,2478890064
19,17,Jits_Phase_5,9,9999,9999,9999,2479389756
19,17,Jits_Phase_5,10,9999,9999,9999,2479889520
19,17,Jits_Phase_5,11,9999,9999,9999,2480389208
19,17,Jits_Phase_5,12,9999,9999,9999,2480889928
19,17,Jits_Phase_5,13,9999,9999,9999,2481389672
19,17,Jits_Phase_5,14,9999,9999,9999,2481889348
19,17,Jits_Phase_5,15,9999,9999,9999,2482390084
19,17,Jits_Phase_5,16,9999,9999,9999,2482900040
19,17,Jits_Phase_5,17,9999,9999,9999,2483399788
19,17,Jits_Phase_5,18,9999,9999,9999,2483899464
19,17,Jits_Phase_5,19,9999,9999,9999,2484399228
19,17,Jits_Phase_5,20,9999,9999,9999,2484899940
19,17,Jits_Phase_5,21,9999,9999,9999,2485399652
19,17,Jits_Phase_5,22,9999,9999,9999,2485899360
19,17,Jits_Phase_5,23,9999,9999,9999,2486400084
19,17,Jits_Phase_5,24,9999,9999,9999,2486910024
19,17,Jits_Phase_5,25,9999,9999,9999,2487409764
19,17,Jits_Phase_5,26,9999,9999,9999,2487909444
19,17,Jits_Phase_5,27,9999,9999,9999,2488409184
19,17,Jits_Phase_5,28,9999,9999,9999,2488909924
19,17,Jits_Phase_5,29,9999,9999,9999,2489409612
19,17,Jits_Phase_5,30,9999,9999,9999,2489899116
19,17,Jits_Phase_5,31,9999,9999,9999,2490399856
19,17,Jits_Phase_5,32,9999,9999,9999,2490899544
19,17,Jits_Phase_5,33,9999,9999,9999,2491399296
19,17,Jits_Phase_5,34,9999,9999,9999,2491899960
19,17,Jits_Phase_5,35,9999,9999,9999,2492399724
19,17,Jits_Phase_5,36,9999,9999,9999,2492899388
19,17,Jits_Phase_5,37,9999,9999,9999,2493399144
19,17,Jits_Phase_5,38,9999,9999,9999,2493899864
19,17,Jits_Phase_5,39,9999,9999,9999,2494399544
19,17,Jits_Phase_5,40,9999,9999,9999,2494899296
19,17,Jits_Phase_5,41,9999,9999,9999,2495400004
19,17,Jits_Phase_5,42,9999,9999,9999,2495899764
19,17,Jits_Phase_5,43,9999,9999,9999,2496399440
19,17,Jits_Phase_5,44,9999,9999,9999,2496899188
19,17,Jits_Phase_5,45,9999,9999,9999,2497399904
19,17,Jits_Phase_5,46,9999,9999,9999,2497899580
19,17,Jits_Phase_5,47,9999,9999,9999,2498399336
19,17,Jits_Phase_5,48,9999,9999,9999,2498909276
19,17,Jits_Phase_5,49,9999,9999,9999,2499410020
19,17,Jits_Phase_5,50,9999,9999,9999,2499909688
19,17,Jits_Phase_5,51,9999,9999,9999,2500409452
19,17,Jits_Phase_5,52,9999,9999,9999,2500909128
19,17,Jits_Phase_5,53,9999,9999,9999,2501409864
19,17,Jits_Phase_5,54,9999,9999,9999,2501909616
19,17,Jits_Phase_5,55,9999,9999,9999,2502409308
19,17,Jits_Phase_5,56,9999,9999,9999,2502910048
19,17,Jits_Phase_5,57,9999,9999,9999,2503409732
19,17,Jits_Phase_5,58,9999,9999,9999,2503909500
19,17,Jits_Phase_5,59,9999,9999,9999,2504409176
19,17,Jits_Phase_5,60,9999,9999,9999,2504909920
19,17,Jits_Phase_5,61,9999,9999,9999,2505409596
19,17,Jits_Phase_5,62,9999,9999,9999,2505909356
19,17,Jits_Phase_5,63,9999,9999,9999,2506410068
19,17,Jits_Phase_5,64,9999,9999,9999,2506929244
19,17,Jits_Phase_5,65,9999,9999,9999,2507430016
19,17,Jits_Phase_5,66,9999,9999,9999,2507929688
19,17,Jits_Phase_5,67,9999,9999,9999,2508429424
19,17,Jits_Phase_5,68,9999,9999,9999,2508929096
19,17,Jits_Phase_5,69,9999,9999,9999,2509429824
19,17,Jits_Phase_5,70,9999,9999,9999,2509929560
19,17,Jits_Phase_5,71,9999,9999,9999,2510429252
19,17,Jits_Phase_5,72,9999,9999,9999,2510929988
19,17,Jits_Phase_5,73,9999,9999,9999,2511429740
19,17,Jits_Phase_5,74,9999,9999,9999,2511929436
19,17,Jits_Phase_5,75,9999,9999,9999,2512429184
19,17,Jits_Phase_5,76,9999,9999,9999,2512929852
19,17,Jits_Phase_5,77,9999,9999,9999,2513429604
19,17,Jits_Phase_5,78,9999,9999,9999,2513929296
19,17,Jits_Phase_5,79,9999,9999,9999,2514430036
19,17,Jits_Phase_5,80,9999,9999,9999,2514929788
19,17,Jits_Phase_5,81,9999,9999,9999,2515409988
19,17,Jits_Phase_5,82,9999,9999,9999,2515909756
19,17,Jits_Phase_5,83,9999,9999,9999,2516409432
19,17,Jits_Phase_5,84,9999,9999,9999,2516909176
19,17,Jits_Phase_5,85,9999,9999,9999,2517409872
19,17,Jits_Phase_5,86,9999,9999,9999,2517909616
19,17,Jits_Phase_5,87,9999,9999,9999,2518409308
19,17,Jits_Phase_5,88,9999,9999,9999,2518910040
19,17,Jits_Phase_5,89,9999,9999,9999,2519409728
19,17,Jits_Phase_5,90,9999,9999,9999,2519909480
19,17,Jits_Phase_5,91,9999,9999,9999,2520409164
19,17,Jits_Phase_5,92,9999,9999,9999,2520909888
19,17,Jits_Phase_5,93,9999,9999,9999,2521409636
19,17,Jits_Phase_5,94,9999,9999,9999,2521909312
19,17,Jits_Phase_5,95,9999,9999,9999,2522410108
19,17,Jits_Phase_5,96,9999,9999,9999,2522909796
19,17,Jits_Phase_5,97,9999,9999,9999,2523359352
19,17,Jits_Phase_5,98,9999,9999,9999,2523860076
19,17,Jits_Phase_5,99,9999,9999,9999,2524359764
19,17,Jits_Phase_5,100,9999,9999,9999,2524859516
19,17,Jits_Phase_5,101,9999,9999,9999,2525359192
19,17,Jits_Phase_5,102,9999,9999,9999,2525859892
19,17,Jits_Phase_5,103,9999,9999,9999,2526359632
19,17,Jits_Phase_5,104,9999,9999,9999,2526859320
19,17,Jits_Phase_5,105,9999,9999,9999,2527360112
19,17,Jits_Phase_5,106,9999,9999,9999,2527870048
19,17,Jits_Phase_5,107,9999,9999,9999,2528369744
19,17,Jits_Phase_5,108,9999,9999,9999,2528869444
19,17,Jits_Phase_5,109,9999,9999,9999,2529369196
19,17,Jits_Phase_5,110,9999,9999,9999,2529869932
19,17,Jits_Phase_5,111,9999,9999,9999,2530369620
19,17,Jits_Phase_5,112,9999,9999,9999,2530869368
19,17,Jits_Phase_5,113,9999,9999,9999,2531370092
19,17,Jits_Phase_5,114,9999,9999,9999,2531919956
19,17,Jits_Phase_5,115,9999,9999,9999,2532419700
19,17,Jits_Phase_5,116,9999,9999,9999,2532919376
19,17,Jits_Phase_5,117,9999,9999,9999,2533419064
19,17,Jits_Phase_5,118,9999,9999,9999,2533919800
19,17,Jits_Phase_5,119,9999,9999,9999,2534419544
19,17,Jits_Phase_5,120,9999,9999,9999,2534919228
19,17,Jits_Phase_5,121,9999,9999,9999,2535419968
19,17,Jits_Phase_5,122,9999,9999,9999,2535919732
19,17,Jits_Phase_5,123,9999,9999,9999,2536419420
19,17,Jits_Phase_5,124,9999,9999,9999,2536919092
19,17,Jits_Phase_5,125,9999,9999,9999,2537419888
19,17,Jits_Phase_5,126,9999,9999,9999,2537919568
19,17,Jits_Phase_5,127,9999,9999,9999,2538419312
19,17,Jits_Phase_5,128,9999,9999,9999,2538920016
19,17,Jits_Phase_5,129,9999,9999,9999,2539419776
19,17,Jits_Phase_5,130,9999,9999,9999,2539919464
19,17,Jits_Phase_5,131,9999,9999,9999,2540519548
19,17,Jits_Phase_5,132,9999,9999,9999,2541019220
19,17,Jits_Phase_5,133,9999,9999,9999,2541519948
19,17,Jits_Phase_5,134,9999,9999,9999,2542019688
19,17,Jits_Phase_5,135,9999,9999,9999,2542519376
19,17,Jits_Phase_5,136,9999,9999,9999,2543019068
19,17,Jits_Phase_5,137,9999,9999,9999,2543519836
19,17,Jits_Phase_5,138,9999,9999,9999,2544019532
19,17,Jits_Phase_5,139,9999,9999,9999,2544519224
19,17,Jits_Phase_5,140,9999,9999,9999,2545019960
19,17,Jits_Phase_5,141,9999,9999,9999,2545519728
19,17,Jits_Phase_5,142,9999,9999,9999,2546019420
19,17,Jits_Phase_5,143,9999,9999,9999,2546519112
19,17,Jits_Phase_5,144,9999,9999,9999,2547019904
19,17,Jits_Phase_5,145,9999,9999,9999,2547519580
19,17,Jits_Phase_5,146,9999,9999,9999,2548019276
19,17,Jits_Phase_5,147,9999,9999,9999,2548520000
19,17,Jits_Phase_5,148,9999,9999,9999,2549019744
19,17,Jits_Phase_5,149,9999,9999,9999,2549519440
19,17,Jits_Phase_5,150,9999,9999,9999,2549919832
19,17,Jits_Phase_5,151,9999,9999,9999,2550419516
19,17,Jits_Phase_5,152,9999,9999,9999,2550919284
19,17,Jits_Phase_5,153,9999,9999,9999,2551420012
19,17,Jits_Phase_5,154,9999,9999,9999,2551919688
19,17,Jits_Phase_5,155,9999,9999,9999,2552419436
19,17,Jits_Phase_5,156,9999,9999,9999,2552919100
19,17,Jits_Phase_5,157,9999,9999,9999,2553419892
19,17,Jits_Phase_5,158,9999,9999,9999,2553919572
19,17,Jits_Phase_5,159,9999,9999,9999,2554419320
19,17,Jits_Phase_5,160,9999,9999,9999,2554920056
19,17,Jits_Phase_5,161,9999,9999,9999,2555419752
19,17,Jits_Phase_5,162,9999,9999,9999,2555919428
19,17,Jits_Phase_5,163,9999,9999,9999,2556419180
19,17,Jits_Phase_5,164,9999,9999,9999,2556919904
19,17,Jits_Phase_5,165,9999,9999,9999,2557419584
19,17,Jits_Phase_5,166,9999,9999,9999,2557919348
19,17,Jits_Phase_5,167,9999,9999,9999,2558420068
19,17,Jits_Phase_5,168,9999,9999,9999,2558919752
19,17,Jits_Phase_5,169,9999,9999,9999,2559419500
20,3,ISIP_8,0,5,42,127,2639497524
20,3,ISIP_8,1,1,48,31,2640189080
20,3,ISIP_8,2,5,42,127,2640298328
20,3,ISIP_8,3,1,48,36,2641025012
20,3,ISIP_8,4,5,42,127,2641098228
20,3,ISIP_8,5,1,48,38,2641842204
20,3,ISIP_8,6,5,42,127,2641898108
20,3,ISIP_8,7,1,48,35,2642641632
20,3,ISIP_8,8,5,42,127,2642697616
20,3,ISIP_8,9,1,48,38,2643468448
20,3,ISIP_8,10,5,42,127,2643498472
20,3,ISIP_8,11,1,48,37,2644258008
20,3,ISIP_8,12,5,42,127,2644298056
20,3,ISIP_8,13,1,48,37,2645059612
20,3,ISIP_8,14,5,42,127,2645098016
20,3,ISIP_8,15,1,48,37,2645897156
20,3,ISIP_8,16,5,42,127,2645898944
20,3,ISIP_8,17,1,48,37,2646643368
20,3,ISIP_8,18,5,42,127,2646698328
20,3,ISIP_8,19,1,48,36,2647458888
20,3,ISIP_8,20,5,42,127,2647497988
20,3,ISIP_8,21,1,48,34,2648275400
20,3,ISIP_8,22,5,42,127,2648297948
20,3,ISIP_8,23,1,48,37,2649065932
20,3,ISIP_8,24,5,42,127,2649097460
20,3,ISIP_8,25,1,48,37,2649873524
20,3,ISIP_8,26,5,42,127,2649898312
20,3,ISIP_8,27,1,48,38,2650663308
20,3,ISIP_8,28,5,42,127,2650698048
20,3,ISIP_8,29,1,48,39,2651437088
20,3,ISIP_8,30,5,42,127,2651497780
20,3,ISIP_8,31,1,48,33,2652246840
20,3,ISIP_8,32,5,42,127,2652297812
20,3,ISIP_8,33,1,48,32,2653025488
20,3,ISIP_8,34,5,42,127,2653098248
20,3,ISIP_8,35,1,48,33,2653879920
20,3,ISIP_8,36,5,42,127,2653898128
20,3,ISIP_8,37,5,42,127,2654697872
20,3,ISIP_8,38,1,48,37,2654704208
20,3,ISIP_8,39,5,42,127,2655497900
20,3,ISIP_8,40,1,48,32,2655502216
20,3,ISIP_8,41,1,48,37,2656294156
20,3,ISIP_8,42,5,42,127,2656298452
20,3,ISIP_8,43,1,48,35,2657042052
20,3,ISIP_8,44,5,42,127,2657097964
20,3,ISIP_8,45,1,48,38,2657850468
20,3,ISIP_8,46,5,42,127,2657897844
20,3,ISIP_8,47,1,48,35,2658643836
20,3,ISIP_8,48,5,42,127,2658697652
20,3,ISIP_8,49,1,48,39,2659443196
20,3,ISIP_8,50,5,42,127,2659498604
20,3,ISIP_8,51,1,48,35,2660234480
20,3,ISIP_8,52,5,42,127,2660298040
20,3,ISIP_8,53,1,48,29,2661050544
20,3,ISIP_8,54,5,42,127,2661097924
20,3,ISIP_8,55,1,48,36,2661870248
20,3,ISIP_8,56,5,42,127,2661897508
20,3,ISIP_8,57,1,48,42,2662669608
20,3,ISIP_8,58,5,42,127,2662698436
20,3,ISIP_8,59,1,48,48,2663445180
20,3,ISIP_8,60,1,48,35,2664281412
20,3,ISIP_8,61,1,48,32,2665070968
20,3,ISIP_8,62,1,48,34,2665826344
20,3,ISIP_8,63,1,48,32,2666643120
20,3,ISIP_8,64,1,48,32,2667382340
20,3,ISIP_8,65,1,48,40,2668181620
20,3,ISIP_8,66,1,48,44,2668940056
20,3,ISIP_8,67,1,48,42,2669704412
20,3,ISIP_8,68,1,48,36,2670474816
20,3,ISIP_8,69,1,48,32,2671234084
20,3,ISIP_8,70,1,48,39,2671986388
20,3,ISIP_8,71,1,48,42,2672727328
20,3,ISIP_8,72,1,48,41,2673473576
20,3,ISIP_8,73,1,48,42,2674233136
20,3,ISIP_8,74,1,48,40,2674977144
20,3,ISIP_8,75,1,48,38,2675721448
20,3,ISIP_8,76,1,48,40,2676460668
20,3,ISIP_8,77,1,48,38,2677213352
20,3,ISIP_8,78,1,48,39,2677937604
20,3,ISIP_8,79,1,48,39,2678697616
20,3,ISIP_8,80,1,48,29,2679417496
20,3,ISIP_8,81,1,48,40,2680161504
20,3,ISIP_8,82,1,48,37,2680864740
20,3,ISIP_8,83,1,48,36,2681704188
20,3,ISIP_8,84,1,48,43,2682456044
20,3,ISIP_8,85,1,48,41,2683224808
20,3,ISIP_8,86,1,48,34,2683948840
20,3,ISIP_8,87,1,48,41,2684728452
20,3,ISIP_8,88,1,48,32,2685470136
20,3,ISIP_8,89,1,48,38,2686277196
20,3,ISIP_8,90,1,48,41,2687038176
20,3,ISIP_8,91,1,48,42,2687816820
20,3,ISIP_8,92,1,48,38,2688554908
20,3,ISIP_8,93,1,48,42,2689379320
20,3,ISIP_8,94,1,48,36,2690107996
20,3,ISIP_8,95,1,48,43,2690917672
20,3,ISIP_8,96,1,48,39,2691672372
20,3,ISIP_8,97,1,48,38,2692447116
20,3,ISIP_8,98,1,48,36,2693184168
20,3,ISIP_8,99,1,48,40,2693980384
20,3,ISIP_8,100,1,48,37,2694738300
20,3,ISIP_8,101,1,48,33,2695481540
20,3,ISIP_8,102,1,48,28,2696180368
20,3,ISIP_8,103,1,48,35,2697013980
20,3,ISIP_8,104,1,48,40,2697780424
20,3,ISIP_8,105,1,48,35,2698505204
20,3,ISIP_8,106,1,48,39,2699268584
20,3,ISIP_8,107,1,48,36,2700013332
20,3,ISIP_8,108,1,48,38,2700803492
20,3,ISIP_8,109,1,48,36,2701561704
20,3,ISIP_8,110,1,48,37,2702298008
20,3,ISIP_8,111,1,48,35,2703084496
20,3,ISIP_8,112,1,48,35,2703864932
20,3,ISIP_8,113,1,48,36,2704619708
20,3,ISIP_8,114,1,48,37,2705365804
20,3,ISIP_8,115,1,48,38,2706104800
20,3,ISIP_8,116,1,48,37,2706884636
20,3,ISIP_8,117,1,48,37,2707647336
20,3,ISIP_8,118,1,48,41,2708389692
20,3,ISIP_8,119,1,48,29,2709127544
20,3,ISIP_8,120,1,48,36,2709865400
20,3,ISIP_8,121,1,48,32,2710635508
20,3,ISIP_8,122,1,48,34,2711330740
20,3,ISIP_8,123,1,48,35,2712073628
20,3,ISIP_8,124,1,48,34,2712788980
20,3,ISIP_8,125,1,48,38,2713502820
20,3,ISIP_8,126,1,48,40,2714237624
20,3,ISIP_8,127,1,48,39,2714952680
20,3,ISIP_8,128,1,48,37,2715685392
20,3,ISIP_8,129,1,48,38,2716397908
20,3,ISIP_8,130,1,48,36,2717109072
20,3,ISIP_8,131,1,48,38,2717792680
20,3,ISIP_8,132,1,48,38,2718491956
20,3,ISIP_8,133,1,48,40,2719203352
20,3,ISIP_8,134,1,48,38,2719934188
20,3,ISIP_8,135,1,48,40,2720669796
20,3,ISIP_8,136,1,48,39,2721383656
20,3,ISIP_8,137,1,48,40,2722114192
20,3,ISIP_8,138,1,48,30,2722804944
20,3,ISIP_8,139,1,48,39,2723551192
20,3,ISIP_8,140,1,48,43,2724278128
20,3,ISIP_8,141,1,48,39,2725006028
20,3,ISIP_8,142,1,48,41,2725773144
20,3,ISIP_8,143,1,48,38,2726522236
20,3,ISIP_8,144,1,48,40,2727247764
20,3,ISIP_8,145,1,48,42,2727959228
20,3,ISIP_8,146,1,48,35,2728661276
20,3,ISIP_8,147,1,48,37,2729396004
20,3,ISIP_8,148,1,48,40,2730114704
20,3,ISIP_8,149,1,48,41,2730862824
20,3,ISIP_8,150,1,48,42,2731596956
20,3,ISIP_8,151,1,48,43,2732351352
20,3,ISIP_8,152,1,48,40,2733080012
20,3,ISIP_8,153,1,48,42,2733840848
20,3,ISIP_8,154,1,48,42,2734568548
20,3,ISIP_8,155,1,48,47,2735338428
20,3,ISIP_8,156,1,48,45,2736066804
20,3,ISIP_8,157,1,48,42,2736794780
20,3,ISIP_8,158,1,48,37,2737521056
20,3,ISIP_8,159,1,48,40,2738288468
20,3,ISIP_8,160,1,48,44,2739017140
20,3,ISIP_8,161,1,48,45,2739768624
20,3,ISIP_8,162,1,48,39,2740464912
20,3,ISIP_8,163,1,48,43,2741299116
20,3,ISIP_8,164,1,48,43,2742042524
20,3,ISIP_8,165,1,48,39,2742769624
20,3,ISIP_8,166,1,48,38,2743491176
20,3,ISIP_8,167,1,48,37,2744203216
20,3,ISIP_8,168,1,48,37,2744937052
20,3,ISIP_8,169,1,48,37,2745645232
20,3,ISIP_8,170,1,48,41,2746343536
20,3,ISIP_8,171,1,48,34,2747054848
20,3,ISIP_8,172,1,48,35,2747789632
20,3,ISIP_8,173,1,48,43,2748518900
20,3,ISIP_8,174,1,48,26,2749226924
20,3,ISIP_8,175,1,48,38,2749972124
20,3,ISIP_8,176,1,48,37,2750657180
20,3,ISIP_8,177,1,48,40,2751373932
20,3,ISIP_8,178,1,48,38,2752066252
20,3,ISIP_8,179,1,48,38,2752795000
20,3,ISIP_8,180,1,48,40,2753527332
20,3,ISIP_8,181,1,48,37,2754214944
20,3,ISIP_8,182,1,48,40,2754889284
20,3,ISIP_8,183,1,48,36,2755647948
20,3,ISIP_8,184,1,48,38,2756351192
20,3,ISIP_8,185,1,48,40,2757075360
20,3,ISIP_8,186,1,48,34,2757771240
20,3,ISIP_8,187,1,48,39,2758494152
20,3,ISIP_8,188,1,48,40,2759192684
20,3,ISIP_8,0,9999,9999,9999,2639495236
20,3,ISIP_8,1,9999,9999,9999,2640296040
20,3,ISIP_8,2,9999,9999,9999,2641095788
20,3,ISIP_8,3,9999,9999,9999,2641895524
20,3,ISIP_8,4,9999,9999,9999,2642695256
20,3,ISIP_8,5,9999,9999,9999,2643496036
20,3,ISIP_8,6,9999,9999,9999,2644295768
20,3,ISIP_8,7,9999,9999,9999,2645095504
20,3,ISIP_8,8,9999,9999,9999,2645895244
20,3,ISIP_8,9,9999,9999,9999,2646696044
20,3,ISIP_8,10,9999,9999,9999,2647495776
20,3,ISIP_8,11,9999,9999,9999,2648295508
20,3,ISIP_8,12,9999,9999,9999,2649095244
20,3,ISIP_8,13,9999,9999,9999,2649896024
20,3,ISIP_8,14,9999,9999,9999,2650695760
20,3,ISIP_8,15,9999,9999,9999,2651495492
20,3,ISIP_8,16,9999,9999,9999,2652295228
20,3,ISIP_8,17,9999,9999,9999,2653096032
20,3,ISIP_8,18,9999,9999,9999,2653895764
20,3,ISIP_8,19,9999,9999,9999,2654695508
20,3,ISIP_8,20,9999,9999,9999,2655495240
20,3,ISIP_8,21,9999,9999,9999,2656296016
20,3,ISIP_8,22,9999,9999,9999,2657095748
20,3,ISIP_8,23,9999,9999,9999,2657895484
20,3,ISIP_8,24,9999,9999,9999,2658695216
20,3,ISIP_8,25,9999,9999,9999,2659496020
20,3,ISIP_8,26,9999,9999,9999,2660295752
20,3,ISIP_8,27,9999,9999,9999,2661095488
20,3,ISIP_8,28,9999,9999,9999,2661895220
20,3,ISIP_8,29,9999,9999,9999,2662696000
20,3,ISIP_8,30,9999,9999,9999,2663495732
20,3,ISIP_8,31,9999,9999,9999,2664295536
20,3,ISIP_8,32,9999,9999,9999,2665095268
20,3,ISIP_8,33,9999,9999,9999,2665895992
20,3,ISIP_8,34,9999,9999,9999,2666695796
20,3,ISIP_8,35,9999,9999,9999,2667495508
20,3,ISIP_8,36,9999,9999,9999,2668295236
20,3,ISIP_8,37,9999,9999,9999,2669096012
20,3,ISIP_8,38,9999,9999,9999,2669895740
20,3,ISIP_8,39,9999,9999,9999,2670695544
20,3,ISIP_8,40,9999,9999,9999,2671495272
20,3,ISIP_8,41,9999,9999,9999,2672296000
20,3,ISIP_8,42,9999,9999,9999,2673095728
20,3,ISIP_8,43,9999,9999,9999,2673895532
20,3,ISIP_8,44,9999,9999,9999,2674695264
20,3,ISIP_8,45,9999,9999,9999,2675496040
20,3,ISIP_8,46,9999,9999,9999,2676295768
20,3,ISIP_8,47,9999,9999,9999,2677095500
20,3,ISIP_8,48,9999,9999,9999,2677895228
20,3,ISIP_8,49,9999,9999,9999,2678696028
20,3,ISIP_8,50,9999,9999,9999,2679495752
20,3,ISIP_8,51,9999,9999,9999,2680295540
20,3,ISIP_8,52,9999,9999,9999,2681095268
20,3,ISIP_8,53,9999,9999,9999,2681896044
20,3,ISIP_8,54,9999,9999,9999,2682695772
20,3,ISIP_8,55,9999,9999,9999,2683495500
20,3,ISIP_8,56,9999,9999,9999,2684295232
20,3,ISIP_8,57,9999,9999,9999,2685096032
20,3,ISIP_8,58,9999,9999,9999,2685895760
20,3,ISIP_8,59,9999,9999,9999,2686695488
20,3,ISIP_8,60,9999,9999,9999,2687495216
20,3,ISIP_8,61,9999,9999,9999,2688295992
20,3,ISIP_8,62,9999,9999,9999,2689095796
20,3,ISIP_8,63,9999,9999,9999,2689895528
20,3,ISIP_8,64,9999,9999,9999,2690695256
20,3,ISIP_8,65,9999,9999,9999,2691495980
20,3,ISIP_8,66,9999,9999,9999,2692295784
20,3,ISIP_8,67,9999,9999,9999,2693095516
20,3,ISIP_8,68,9999,9999,9999,2693895244
20,3,ISIP_8,69,9999,9999,9999,2694696020
20,3,ISIP_8,70,9999,9999,9999,2695495740
20,3,ISIP_8,71,9999,9999,9999,2696295528
20,3,ISIP_8,72,9999,9999,9999,2697095276
20,3,ISIP_8,73,9999,9999,9999,2697895984
20,3,ISIP_8,74,9999,9999,9999,2698695792
20,3,ISIP_8,75,9999,9999,9999,2699495520
20,3,ISIP_8,76,9999,9999,9999,2700295248
20,3,ISIP_8,77,9999,9999,9999,2701096024
20,3,ISIP_8,78,9999,9999,9999,2701895756
20,3,ISIP_8,79,9999,9999,9999,2702695484
20,3,ISIP_8,80,9999,9999,9999,2703495288
20,3,ISIP_8,81,9999,9999,9999,2704296016
20,3,ISIP_8,82,9999,9999,9999,2705095744
20,3,ISIP_8,83,9999,9999,9999,2705895472
20,3,ISIP_8,84,9999,9999,9999,2706695276
20,3,ISIP_8,85,9999,9999,9999,2707496052
20,3,ISIP_8,86,9999,9999,9999,2708295784
20,3,ISIP_8,87,9999,9999,9999,2709095512
20,3,ISIP_8,88,9999,9999,9999,2709895236
20,3,ISIP_8,89,9999,9999,9999,2710696036
20,3,ISIP_8,90,9999,9999,9999,2711495748
20,3,ISIP_8,91,9999,9999,9999,2712295476
20,3,ISIP_8,92,9999,9999,9999,2713095280
20,3,ISIP_8,93,9999,9999,9999,2713895980
20,3,ISIP_8,94,9999,9999,9999,2714695784
20,3,ISIP_8,95,9999,9999,9999,2715495512
20,3,ISIP_8,96,9999,9999,9999,2716295244
20,3,ISIP_8,97,9999,9999,9999,2717096044
20,3,ISIP_8,98,9999,9999,9999,2717895748
20,3,ISIP_8,99,9999,9999,9999,2718695480
20,3,ISIP_8,100,9999,9999,9999,2719495284
20,3,ISIP_8,101,9999,9999,9999,2720295984
20,3,ISIP_8,102,9999,9999,9999,2721095788
20,3,ISIP_8,103,9999,9999,9999,2721895516
20,3,ISIP_8,104,9999,9999,9999,2722695248
20,3,ISIP_8,105,9999,9999,9999,2723496048
20,3,ISIP_8,106,9999,9999,9999,2724295772
20,3,ISIP_8,107,9999,9999,9999,2725095500
20,3,ISIP_8,108,9999,9999,9999,2725895216
20,3,ISIP_8,109,9999,9999,9999,2726695988
20,3,ISIP_8,110,9999,9999,9999,2727495792
20,3,ISIP_8,111,9999,9999,9999,2728295520
20,3,ISIP_8,112,9999,9999,9999,2729095252
20,3,ISIP_8,113,9999,9999,9999,2729896052
20,3,ISIP_8,114,9999,9999,9999,2730695780
20,3,ISIP_8,115,9999,9999,9999,2731495508
20,3,ISIP_8,116,9999,9999,9999,2732295240
20,3,ISIP_8,117,9999,9999,9999,2733096008
20,3,ISIP_8,118,9999,9999,9999,2733895736
20,3,ISIP_8,119,9999,9999,9999,2734695528
20,3,ISIP_8,120,9999,9999,9999,2735495256
20,3,ISIP_8,121,9999,9999,9999,2736295984
20,3,ISIP_8,122,9999,9999,9999,2737095788
20,3,ISIP_8,123,9999,9999,9999,2737895516
20,3,ISIP_8,124,9999,9999,9999,2738695244
20,3,ISIP_8,125,9999,9999,9999,2739496020
20,3,ISIP_8,126,9999,9999,9999,2740295748
20,3,ISIP_8,127,9999,9999,9999,2741095480
20,3,ISIP_8,128,9999,9999,9999,2741895280
20,3,ISIP_8,129,9999,9999,9999,2742696008
20,3,ISIP_8,130,9999,9999,9999,2743495732
20,3,ISIP_8,131,9999,9999,9999,2744295520
20,3,ISIP_8,132,9999,9999,9999,2745095248
20,3,ISIP_8,133,9999,9999,9999,2745896024
20,3,ISIP_8,134,9999,9999,9999,2746695752
20,3,ISIP_8,135,9999,9999,9999,2747495484
20,3,ISIP_8,136,9999,9999,9999,2748295288
20,3,ISIP_8,137,9999,9999,9999,2749096012
20,3,ISIP_8,138,9999,9999,9999,2749895740
20,3,ISIP_8,139,9999,9999,9999,2750695540
20,3,ISIP_8,140,9999,9999,9999,2751495252
20,3,ISIP_8,141,9999,9999,9999,2752296028
20,3,ISIP_8,142,9999,9999,9999,2753095760
20,3,ISIP_8,143,9999,9999,9999,2753895488
20,3,ISIP_8,144,9999,9999,9999,2754695216
20,3,ISIP_8,145,9999,9999,9999,2755496016
20,3,ISIP_8,146,9999,9999,9999,2756295748
20,3,ISIP_8,147,9999,9999,9999,2757095472
20,3,ISIP_8,148,9999,9999,9999,2757895260
20,3,ISIP_8,149,9999,9999,9999,2758696032
21,5,ISIP_5,0,5,42,127,2784821484
21,5,ISIP_5,1,5,42,127,2785322472
21,5,ISIP_5,2,1,48,37,2785441928
21,5,ISIP_5,3,5,42,127,2785822016
21,5,ISIP_5,4,1,48,44,2785878988
21,5,ISIP_5,5,5,42,127,2786321864
21,5,ISIP_5,6,1,48,43,2786331264
21,5,ISIP_5,7,5,42,127,2786821484
21,5,ISIP_5,8,1,48,46,2786827448
21,5,ISIP_5,9,1,48,42,2787281644
21,5,ISIP_5,10,5,42,127,2787322144
21,5,ISIP_5,11,1,48,39,2787758072
21,5,ISIP_5,12,5,42,127,2787822136
21,5,ISIP_5,13,1,48,41,2788278568
21,5,ISIP_5,14,5,42,127,2788321836
21,5,ISIP_5,15,5,42,127,2788822432
21,5,ISIP_5,16,1,48,35,2788835876
21,5,ISIP_5,17,1,48,39,2789298900
21,5,ISIP_5,18,5,42,127,2789321972
21,5,ISIP_5,19,1,48,36,2789810712
21,5,ISIP_5,20,5,42,127,2789821816
21,5,ISIP_5,21,1,48,39,2790277248
21,5,ISIP_5,22,5,42,127,2790321584
21,5,ISIP_5,23,1,48,42,2790779036
21,5,ISIP_5,24,5,42,127,2790822252
21,5,ISIP_5,25,1,48,34,2791269532
21,5,ISIP_5,26,5,42,127,2791321848
21,5,ISIP_5,27,1,48,30,2791790540
21,5,ISIP_5,28,5,42,127,2791821692
21,5,ISIP_5,29,1,48,42,2792299064
21,5,ISIP_5,30,5,42,127,2792322284
21,5,ISIP_5,31,5,42,127,2792822060
21,5,ISIP_5,32,1,48,34,2792827200
21,5,ISIP_5,33,1,48,29,2793317076
21,5,ISIP_5,34,5,42,127,2793321900
21,5,ISIP_5,35,1,48,38,2793780792
21,5,ISIP_5,36,5,42,127,2793821816
21,5,ISIP_5,37,1,48,35,2794309812
21,5,ISIP_5,38,5,42,127,2794322260
21,5,ISIP_5,39,1,48,32,2794818636
21,5,ISIP_5,40,5,42,127,2794822032
21,5,ISIP_5,41,1,48,33,2795297384
21,5,ISIP_5,42,5,42,127,2795321876
21,5,ISIP_5,43,1,48,21,2795820828
21,5,ISIP_5,44,5,42,127,2795822616
21,5,ISIP_5,45,5,42,127,2796322096
21,5,ISIP_5,46,1,48,31,2796328580
21,5,ISIP_5,47,5,42,127,2796821792
21,5,ISIP_5,48,1,48,37,2796831564
21,5,ISIP_5,49,5,42,127,2797321856
21,5,ISIP_5,50,1,48,27,2797348612
21,5,ISIP_5,51,5,42,127,2797822300
21,5,ISIP_5,52,1,48,26,2797857884
21,5,ISIP_5,53,5,42,127,2798321996
21,5,ISIP_5,54,1,48,27,2798328480
21,5,ISIP_5,55,5,42,127,2798821840
21,5,ISIP_5,56,1,48,42,2798854508
21,5,ISIP_5,57,1,48,33,2799312812
21,5,ISIP_5,58,5,42,127,2799321380
21,5,ISIP_5,59,5,42,127,2799822276
21,5,ISIP_5,60,1,48,40,2799847088
21,5,ISIP_5,61,5,42,127,2800321824
21,5,ISIP_5,62,1,48,19,2800334068
21,5,ISIP_5,63,5,42,127,2800821740
21,5,ISIP_5,64,1,48,13,2800842960
21,5,ISIP_5,65,5,42,127,2801322408
21,5,ISIP_5,66,1,48,38,2801326352
21,5,ISIP_5,67,5,42,127,2801822176
21,5,ISIP_5,68,1,48,21,2801866580
21,5,ISIP_5,69,5,42,127,2802321696
21,5,ISIP_5,70,1,48,20,2802330724
21,5,ISIP_5,71,5,42,127,2802821516
21,5,ISIP_5,72,1,48,21,2802852936
21,5,ISIP_5,73,5,42,127,2803322404
21,5,ISIP_5,74,1,48,26,2803327468
21,5,ISIP_5,75,5,42,127,2803821800
21,5,ISIP_5,76,1,48,14,2803823140
21,5,ISIP_5,77,1,48,30,2804279420
21,5,ISIP_5,78,5,42,127,2804321564
21,5,ISIP_5,79,1,48,39,2804779040
21,5,ISIP_5,80,1,48,17,2805295116
21,5,ISIP_5,81,1,48,21,2805789560
21,5,ISIP_5,82,1,48,25,2806295764
21,5,ISIP_5,83,1,48,23,2806793660
21,5,ISIP_5,84,1,48,28,2807300232
21,5,ISIP_5,85,1,48,33,2807797228
21,5,ISIP_5,86,1,48,31,2808300588
21,5,ISIP_5,87,1,48,24,2808806484
21,5,ISIP_5,88,1,48,20,2809265856
21,5,ISIP_5,89,1,48,35,2809768240
21,5,ISIP_5,90,1,48,22,2810277876
21,5,ISIP_5,91,1,48,24,2810804872
21,5,ISIP_5,92,1,48,23,2811268708
21,5,ISIP_5,93,1,48,21,2811762940
21,5,ISIP_5,94,1,48,35,2812250584
21,5,ISIP_5,95,1,48,34,2812757532
21,5,ISIP_5,96,1,48,36,2813238972
21,5,ISIP_5,97,1,48,34,2813755340
21,5,ISIP_5,98,1,48,33,2814256528
21,5,ISIP_5,99,1,48,27,2814763404
21,5,ISIP_5,100,1,48,24,2815241328
21,5,ISIP_5,101,1,48,14,2815729272
21,5,ISIP_5,102,1,48,33,2816236516
21,5,ISIP_5,103,1,48,36,2816709504
21,5,ISIP_5,104,1,48,36,2817224232
21,5,ISIP_5,105,1,48,26,2817741644
21,5,ISIP_5,106,1,48,26,2818235132
21,5,ISIP_5,107,1,48,32,2818723528
21,5,ISIP_5,108,1,48,35,2819190208
21,5,ISIP_5,109,1,48,28,2819709792
21,5,ISIP_5,110,1,48,31,2820238056
21,5,ISIP_5,111,1,48,31,2820733036
21,5,ISIP_5,112,1,48,27,2821214172
21,5,ISIP_5,113,1,48,25,2821725756
21,5,ISIP_5,114,1,48,31,2822223952
21,5,ISIP_5,115,1,48,32,2822731048
21,5,ISIP_5,116,1,48,32,2823233204
21,5,ISIP_5,117,1,48,26,2823775152
21,5,ISIP_5,118,1,48,27,2824259960
21,5,ISIP_5,119,1,48,19,2824785900
21,5,ISIP_5,120,1,48,31,2825249020
21,5,ISIP_5,121,1,48,33,2825740336
21,5,ISIP_5,122,1,48,37,2826217664
21,5,ISIP_5,123,1,48,34,2826732456
21,5,ISIP_5,124,1,48,26,2827243596
21,5,ISIP_5,125,1,48,37,2827740744
21,5,ISIP_5,126,1,48,37,2828245816
21,5,ISIP_5,127,1,48,29,2828741468
21,5,ISIP_5,128,1,48,38,2829243484
21,5,ISIP_5,129,1,48,36,2829719588
21,5,ISIP_5,130,1,48,23,2830253632
21,5,ISIP_5,131,1,48,21,2830727644
21,5,ISIP_5,132,1,48,32,2831225088
21,5,ISIP_5,133,1,48,23,2831737196
21,5,ISIP_5,134,1,48,26,2832240252
21,5,ISIP_5,135,1,48,32,2832730668
21,5,ISIP_5,136,1,48,35,2833215700
21,5,ISIP_5,137,1,48,21,2833776196
21,5,ISIP_5,138,1,48,24,2834288524
21,5,ISIP_5,139,1,48,13,2834786424
21,5,ISIP_5,140,1,48,39,2835271600
21,5,ISIP_5,141,1,48,37,2835777728
21,5,ISIP_5,142,1,48,40,2836272848
21,5,ISIP_5,143,1,48,33,2836773440
21,5,ISIP_5,144,1,48,36,2837266324
21,5,ISIP_5,145,1,48,38,2837738040
21,5,ISIP_5,146,1,48,25,2838252988
21,5,ISIP_5,147,1,48,33,2838755600
21,5,ISIP_5,148,1,48,25,2839237412
21,5,ISIP_5,149,1,48,29,2839740320
21,5,ISIP_5,150,1,48,32,2840248464
21,5,ISIP_5,151,1,48,35,2840708036
21,5,ISIP_5,152,1,48,37,2841208028
21,5,ISIP_5,153,1,48,34,2841723052
21,5,ISIP_5,154,1,48,32,2842217804
21,5,ISIP_5,155,1,48,33,2842744052
21,5,ISIP_5,156,1,48,34,2843249196
21,5,ISIP_5,157,1,48,34,2843729736
21,5,ISIP_5,158,1,48,39,2844252616
21,5,ISIP_5,159,1,48,30,2844732112
21,5,ISIP_5,160,1,48,40,2845262468
21,5,ISIP_5,161,1,48,22,2845770988
21,5,ISIP_5,162,1,48,29,2846269104
21,5,ISIP_5,163,1,48,30,2846779240
21,5,ISIP_5,164,1,48,24,2847250888
21,5,ISIP_5,165,1,48,34,2847771748
21,5,ISIP_5,166,1,48,30,2848296568
21,5,ISIP_5,167,1,48,35,2848819388
21,5,ISIP_5,168,1,48,37,2849293104
21,5,ISIP_5,169,1,48,32,2849823180
21,5,ISIP_5,170,1,48,18,2850315076
21,5,ISIP_5,171,1,48,35,2850859140
21,5,ISIP_5,172,1,48,27,2851346488
21,5,ISIP_5,173,1,48,30,2851868840
21,5,ISIP_5,174,1,48,35,2852370480
21,5,ISIP_5,175,1,48,37,2852889616
21,5,ISIP_5,176,1,48,33,2853372328
21,5,ISIP_5,177,1,48,38,2853888920
21,5,ISIP_5,178,1,48,21,2854394820
21,5,ISIP_5,179,1,48,33,2854873348
21,5,ISIP_5,180,1,48,32,2855342664
21,5,ISIP_5,181,1,48,34,2855906312
21,5,ISIP_5,182,1,48,32,2856423128
21,5,ISIP_5,183,1,48,39,2856942644
21,5,ISIP_5,184,1,48,17,2857454600
21,5,ISIP_5,185,1,48,40,2858032076
21,5,ISIP_5,186,1,48,28,2858537896
21,5,ISIP_5,187,1,48,30,2859058240
21,5,ISIP_5,188,1,48,35,2859552244
21,5,ISIP_5,189,1,48,38,2860055520
21,5,ISIP_5,190,1,48,37,2860544592
21,5,ISIP_5,191,1,48,28,2861068216
21,5,ISIP_5,192,1,48,30,2861563792
21,5,ISIP_5,193,1,48,35,2862061768
21,5,ISIP_5,194,1,48,24,2862541936
21,5,ISIP_5,195,1,48,37,2863036840
21,5,ISIP_5,196,1,48,39,2863517980
21,5,ISIP_5,197,1,48,39,2864037860
21,5,ISIP_5,198,1,48,19,2864546604
21,5,ISIP_5,0,9999,9999,9999,2784819272
21,5,ISIP_5,1,9999,9999,9999,2785320036
21,5,ISIP_5,2,9999,9999,9999,2785819732
21,5,ISIP_5,3,9999,9999,9999,2786319428
21,5,ISIP_5,4,9999,9999,9999,2786819124
21,5,ISIP_5,5,9999,9999,9999,2787319856
21,5,ISIP_5,6,9999,9999,9999,2787819628
21,5,ISIP_5,7,9999,9999,9999,2788319324
21,5,ISIP_5,8,9999,9999,9999,2788820072
21,5,ISIP_5,9,9999,9999,9999,2789319760
21,5,ISIP_5,10,9999,9999,9999,2789819456
21,5,ISIP_5,11,9999,9999,9999,2790319224
21,5,ISIP_5,12,9999,9999,9999,2790819892
21,5,ISIP_5,13,9999,9999,9999,2791319636
21,5,ISIP_5,14,9999,9999,9999,2791819332
21,5,ISIP_5,15,9999,9999,9999,2792320072
21,5,ISIP_5,16,9999,9999,9999,2792819772
21,5,ISIP_5,17,9999,9999,9999,2793319536
21,5,ISIP_5,18,9999,9999,9999,2793819232
21,5,ISIP_5,19,9999,9999,9999,2794319976
21,5,ISIP_5,20,9999,9999,9999,2794819672
21,5,ISIP_5,21,9999,9999,9999,2795319364
21,5,ISIP_5,22,9999,9999,9999,2795819068
21,5,ISIP_5,23,9999,9999,9999,2796319808
21,5,ISIP_5,24,9999,9999,9999,2796819580
21,5,ISIP_5,25,9999,9999,9999,2797319272
21,5,ISIP_5,26,9999,9999,9999,2797820012
21,5,ISIP_5,27,9999,9999,9999,2798319708
21,5,ISIP_5,28,9999,9999,9999,2798819404
21,5,ISIP_5,29,9999,9999,9999,2799319092
21,5,ISIP_5,30,9999,9999,9999,2799819840
21,5,ISIP_5,31,9999,9999,9999,2800319608
21,5,ISIP_5,32,9999,9999,9999,2800819304
21,5,ISIP_5,33,9999,9999,9999,2801320044
21,5,ISIP_5,34,9999,9999,9999,2801819740
21,5,ISIP_5,35,9999,9999,9999,2802319408
21,5,ISIP_5,36,9999,9999,9999,2802819156
21,5,ISIP_5,37,9999,9999,9999,2803319896
21,5,ISIP_5,38,9999,9999,9999,2803819588
21,5,ISIP_5,39,9999,9999,9999,2804319352
21,5,ISIP_5,40,9999,9999,9999,2804820020
21,5,ISIP_5,41,9999,9999,9999,2805319784
21,5,ISIP_5,42,9999,9999,9999,2805819476
21,5,ISIP_5,43,9999,9999,9999,2806319164
21,5,ISIP_5,44,9999,9999,9999,2806819904
21,5,ISIP_5,45,9999,9999,9999,2807319668
21,5,ISIP_5,46,9999,9999,9999,2807819360
21,5,ISIP_5,47,9999,9999,9999,2808320096
21,5,ISIP_5,48,9999,9999,9999,2808819788
21,5,ISIP_5,49,9999,9999,9999,2809319480
21,5,ISIP_5,50,9999,9999,9999,2809819244
21,5,ISIP_5,51,9999,9999,9999,2810319980
21,5,ISIP_5,52,9999,9999,9999,2810819672
21,5,ISIP_5,53,9999,9999,9999,2811319360
21,5,ISIP_5,54,9999,9999,9999,2811819128
21,5,ISIP_5,55,9999,9999,9999,2812319864
21,5,ISIP_5,56,9999,9999,9999,2812819532
21,5,ISIP_5,57,9999,9999,9999,2813319224
21,5,ISIP_5,58,9999,9999,9999,2813819960
21,5,ISIP_5,59,9999,9999,9999,2814319724
21,5,ISIP_5,60,9999,9999,9999,2814819416
21,5,ISIP_5,61,9999,9999,9999,2815319108
21,5,ISIP_5,62,9999,9999,9999,2815819844
21,5,ISIP_5,63,9999,9999,9999,2816319612
21,5,ISIP_5,64,9999,9999,9999,2816819284
21,5,ISIP_5,65,9999,9999,9999,2817320024
21,5,ISIP_5,66,9999,9999,9999,2817819728
21,5,ISIP_5,67,9999,9999,9999,2818319420
21,5,ISIP_5,68,9999,9999,9999,2818819172
21,5,ISIP_5,69,9999,9999,9999,2819319908
21,5,ISIP_5,70,9999,9999,9999,2819819596
21,5,ISIP_5,71,9999,9999,9999,2820319304
21,5,ISIP_5,72,9999,9999,9999,2820820040
21,5,ISIP_5,73,9999,9999,9999,2821319788
21,5,ISIP_5,74,9999,9999,9999,2821819496
21,5,ISIP_5,75,9999,9999,9999,2822319168
21,5,ISIP_5,76,9999,9999,9999,2822819924
21,5,ISIP_5,77,9999,9999,9999,2823319660
21,5,ISIP_5,78,9999,9999,9999,2823819352
21,5,ISIP_5,79,9999,9999,9999,2824320088
21,5,ISIP_5,80,9999,9999,9999,2824819780
21,5,ISIP_5,81,9999,9999,9999,2825319544
21,5,ISIP_5,82,9999,9999,9999,2825819236
21,5,ISIP_5,83,9999,9999,9999,2826319960
21,5,ISIP_5,84,9999,9999,9999,2826819668
21,5,ISIP_5,85,9999,9999,9999,2827319356
21,5,ISIP_5,86,9999,9999,9999,2827819124
21,5,ISIP_5,87,9999,9999,9999,2828319860
21,5,ISIP_5,88,9999,9999,9999,2828819552
21,5,ISIP_5,89,9999,9999,9999,2829319244
21,5,ISIP_5,90,9999,9999,9999,2829819964
21,5,ISIP_5,91,9999,9999,9999,2830319668
21,5,ISIP_5,92,9999,9999,9999,2830819436
21,5,ISIP_5,93,9999,9999,9999,2831319108
21,5,ISIP_5,94,9999,9999,9999,2831819864
21,5,ISIP_5,95,9999,9999,9999,2832319556
21,5,ISIP_5,96,9999,9999,9999,2832819316
21,5,ISIP_5,97,9999,9999,9999,2833320040
21,5,ISIP_5,98,9999,9999,9999,2833819744
21,5,ISIP_5,99,9999,9999,9999,2834319412
21,5,ISIP_5,100,9999,9999,9999,2834819176
21,5,ISIP_5,101,9999,9999,9999,2835319912
21,5,ISIP_5,102,9999,9999,9999,2835819604
21,5,ISIP_5,103,9999,9999,9999,2836319292
21,5,ISIP_5,104,9999,9999,9999,2836820032
21,5,ISIP_5,105,9999,9999,9999,2837319796
21,5,ISIP_5,106,9999,9999,9999,2837819488
21,5,ISIP_5,107,9999,9999,9999,2838319180
21,5,ISIP_5,108,9999,9999,9999,2838819916
21,5,ISIP_5,109,9999,9999,9999,2839319608
21,5,ISIP_5,110,9999,9999,9999,2839819372
21,5,ISIP_5,111,9999,9999,9999,2840320112
21,5,ISIP_5,112,9999,9999,9999,2840819784
21,5,ISIP_5,113,9999,9999,9999,2841319476
21,5,ISIP_5,114,9999,9999,9999,2841819208
21,5,ISIP_5,115,9999,9999,9999,2842319976
21,5,ISIP_5,116,9999,9999,9999,2842819684
21,5,ISIP_5,117,9999,9999,9999,2843319372
21,5,ISIP_5,118,9999,9999,9999,2843819064
21,5,ISIP_5,119,9999,9999,9999,2844319804
21,5,ISIP_5,120,9999,9999,9999,2844819544
21,5,ISIP_5,121,9999,9999,9999,2845319236
21,5,ISIP_5,122,9999,9999,9999,2845819972
21,5,ISIP_5,123,9999,9999,9999,2846319736
21,5,ISIP_5,124,9999,9999,9999,2846819404
21,5,ISIP_5,125,9999,9999,9999,2847319096
21,5,ISIP_5,126,9999,9999,9999,2847819832
21,5,ISIP_5,127,9999,9999,9999,2848319600
21,5,ISIP_5,128,9999,9999,9999,2848819252
21,5,ISIP_5,129,9999,9999,9999,2849320024
21,5,ISIP_5,130,9999,9999,9999,2849819720
21,5,ISIP_5,131,9999,9999,9999,2850319480
21,5,ISIP_5,132,9999,9999,9999,2850819180
21,5,ISIP_5,133,9999,9999,9999,2851319916
21,5,ISIP_5,134,9999,9999,9999,2851819608
21,5,ISIP_5,135,9999,9999,9999,2852319296
21,5,ISIP_5,136,9999,9999,9999,2852820036
21,5,ISIP_5,137,9999,9999,9999,2853319728
21,5,ISIP_5,138,9999,9999,9999,2853819492
21,5,ISIP_5,139,9999,9999,9999,2854319184
21,5,ISIP_5,140,9999,9999,9999,2854819924
21,5,ISIP_5,141,9999,9999,9999,2855319612
21,5,ISIP_5,142,9999,9999,9999,2855819352
21,5,ISIP_5,143,9999,9999,9999,2856320092
21,5,ISIP_5,144,9999,9999,9999,2856819780
21,5,ISIP_5,145,9999,9999,9999,2857319548
21,5,ISIP_5,146,9999,9999,9999,2857819236
21,5,ISIP_5,147,9999,9999,9999,2858319976
21,5,ISIP_5,148,9999,9999,9999,2858819664
21,5,ISIP_5,149,9999,9999,9999,2859319356
21,5,ISIP_5,150,9999,9999,9999,2859819120
21,5,ISIP_5,151,9999,9999,9999,2860319860
21,5,ISIP_5,152,9999,9999,9999,2860819548
21,5,ISIP_5,153,9999,9999,9999,2861319240
21,5,ISIP_5,154,9999,9999,9999,2861819976
21,5,ISIP_5,155,9999,9999,9999,2862319668
21,5,ISIP_5,156,9999,9999,9999,2862819436
21,5,ISIP_5,157,9999,9999,9999,2863319124
21,5,ISIP_5,158,9999,9999,9999,2863819864
21,5,ISIP_5,159,9999,9999,9999,2864319556
22,11,Pattern_Practice,0,5,42,127,2968903944
22,11,Pattern_Practice,1,5,42,127,2969403736
22,11,Pattern_Practice,2,5,42,127,2969903452
22,11,Pattern_Practice,3,5,42,127,2970404064
22,11,Pattern_Practice,4,5,42,127,2970903932
22,11,Pattern_Practice,5,1,48,33,2970932028
22,11,Pattern_Practice,6,1,48,32,2971187220
22,11,Pattern_Practice,7,5,42,127,2971403652
22,11,Pattern_Practice,8,1,38,43,2971470052
22,11,Pattern_Practice,9,5,42,127,2971904396
22,11,Pattern_Practice,10,1,38,40,2971983060
22,11,Pattern_Practice,11,1,48,41,2971988352
22,11,Pattern_Practice,12,5,42,127,2972404192
22,11,Pattern_Practice,13,1,48,44,2972452040
22,11,Pattern_Practice,14,1,48,31,2972679204
22,11,Pattern_Practice,15,5,42,127,2972903644
22,11,Pattern_Practice,16,1,38,48,2972936680
22,11,Pattern_Practice,17,1,48,47,2972991484
22,11,Pattern_Practice,18,5,42,127,2973403604
22,11,Pattern_Practice,19,1,48,43,2973476580
22,11,Pattern_Practice,20,1,48,34,2973704200
22,11,Pattern_Practice,21,5,42,127,2973904324
22,11,Pattern_Practice,22,1,38,40,2973958004
22,11,Pattern_Practice,23,5,42,127,2974403944
22,11,Pattern_Practice,24,1,48,47,2974459948
22,11,Pattern_Practice,25,1,48,33,2974708572
22,11,Pattern_Practice,26,5,42,127,2974903768
22,11,Pattern_Practice,27,1,38,18,2974972108
22,11,Pattern_Practice,28,5,42,127,2975404432
22,11,Pattern_Practice,29,1,48,40,2975465072
22,11,Pattern_Practice,30,1,38,36,2975486072
22,11,Pattern_Practice,31,1,48,30,2975692636
22,11,Pattern_Practice,32,1,38,31,2975715280
22,11,Pattern_Practice,33,5,42,127,2975904384
22,11,Pattern_Practice,34,1,48,40,2975980060
22,11,Pattern_Practice,35,5,42,127,2976403860
22,11,Pattern_Practice,36,1,48,47,2976530992
22,11,Pattern_Practice,37,1,48,37,2976749780
22,11,Pattern_Practice,38,5,42,127,2976903656
22,11,Pattern_Practice,39,1,38,41,2977005156
22,11,Pattern_Practice,40,5,42,127,2977404396
22,11,Pattern_Practice,41,1,38,20,2977502608
22,11,Pattern_Practice,42,1,48,43,2977530636
22,11,Pattern_Practice,43,1,48,34,2977743484
22,11,Pattern_Practice,44,5,42,127,2977903948
22,11,Pattern_Practice,45,1,48,22,2978114584
22,11,Pattern_Practice,46,5,42,127,2978403644
22,11,Pattern_Practice,47,1,48,45,2978599536
22,11,Pattern_Practice,48,1,48,43,2978798276
22,11,Pattern_Practice,49,5,42,127,2978904364
22,11,Pattern_Practice,50,1,38,40,2979076620
22,11,Pattern_Practice,51,5,42,127,2979404352
22,11,Pattern_Practice,52,1,48,47,2979541684
22,11,Pattern_Practice,53,1,48,30,2979752688
22,11,Pattern_Practice,54,5,42,127,2979903876
22,11,Pattern_Practice,55,1,38,40,2980046896
22,11,Pattern_Practice,56,1,38,35,2980082024
22,11,Pattern_Practice,57,5,42,127,2980403552
22,11,Pattern_Practice,58,1,48,46,2980535648
22,11,Pattern_Practice,59,1,48,46,2980744908
22,11,Pattern_Practice,60,5,42,127,2980904196
22,11,Pattern_Practice,61,1,38,33,2981003880
22,11,Pattern_Practice,62,5,42,127,2981404116
22,11,Pattern_Practice,63,1,48,45,2981470140
22,11,Pattern_Practice,64,1,48,39,2981689748
22,11,Pattern_Practice,65,5,42,127,2981903792
22,11,Pattern_Practice,66,1,38,51,2981942440
22,11,Pattern_Practice,67,5,42,127,2982403336
22,11,Pattern_Practice,68,1,48,47,2982449316
22,11,Pattern_Practice,69,1,48,39,2982645060
22,11,Pattern_Practice,70,5,42,127,2982904352
22,11,Pattern_Practice,71,1,48,24,2982927592
22,11,Pattern_Practice,72,1,48,39,2982931984
22,11,Pattern_Practice,73,1,38,45,2983403496
22,11,Pattern_Practice,74,5,42,127,2983405592
22,11,Pattern_Practice,75,1,48,48,2983874136
22,11,Pattern_Practice,76,5,42,127,2983903640
22,11,Pattern_Practice,77,1,48,21,2984224208
22,11,Pattern_Practice,78,1,48,47,2984278860
22,11,Pattern_Practice,79,5,42,127,2984404268
22,11,Pattern_Practice,80,1,48,29,2984414568
22,11,Pattern_Practice,81,1,48,48,2984694760
22,11,Pattern_Practice,82,5,42,127,2984904092
22,11,Pattern_Practice,83,1,38,46,2985002648
22,11,Pattern_Practice,84,5,42,127,2985403636
22,11,Pattern_Practice,85,1,48,50,2985518128
22,11,Pattern_Practice,86,5,42,127,2985903332
22,11,Pattern_Practice,87,1,48,38,2985937340
22,11,Pattern_Practice,88,1,48,50,2986078536
22,11,Pattern_Practice,89,1,48,16,2986210332
22,11,Pattern_Practice,90,5,42,127,2986404176
22,11,Pattern_Practice,91,1,48,42,2986430180
22,11,Pattern_Practice,92,1,38,56,2986754064
22,11,Pattern_Practice,93,5,42,127,2986904072
22,11,Pattern_Practice,94,1,48,49,2987265200
22,11,Pattern_Practice,95,5,42,127,2987403592
22,11,Pattern_Practice,96,1,48,26,2987672292
22,11,Pattern_Practice,97,1,48,49,2987744452
22,11,Pattern_Practice,98,5,42,127,2987904312
22,11,Pattern_Practice,99,1,48,29,2987974472
22,11,Pattern_Practice,100,1,48,43,2988263724
22,11,Pattern_Practice,101,5,42,127,2988403988
22,11,Pattern_Practice,102,1,48,41,2988568620
22,11,Pattern_Practice,103,1,38,44,2988857788
22,11,Pattern_Practice,104,5,42,127,2988903972
22,11,Pattern_Practice,105,5,42,127,2989403376
22,11,Pattern_Practice,106,1,48,47,2989411128
22,11,Pattern_Practice,107,1,48,24,2989774900
22,11,Pattern_Practice,108,1,48,44,2989887972
22,11,Pattern_Practice,109,5,42,127,2989904164
22,11,Pattern_Practice,110,1,48,21,2990040580
22,11,Pattern_Practice,111,1,48,48,2990297144
22,11,Pattern_Practice,112,5,42,127,2990404044
22,11,Pattern_Practice,113,1,38,51,2990617672
22,11,Pattern_Practice,114,5,42,127,2990903740
22,11,Pattern_Practice,115,1,48,52,2990937076
22,11,Pattern_Practice,116,5,42,127,2991404260
22,11,Pattern_Practice,117,1,48,48,2991579812
22,11,Pattern_Practice,118,5,42,127,2991904104
22,11,Pattern_Practice,119,1,48,43,2992001468
22,11,Pattern_Practice,120,1,48,40,2992169388
22,11,Pattern_Practice,121,5,42,127,2992403852
22,11,Pattern_Practice,122,1,38,29,2992436664
22,11,Pattern_Practice,123,1,48,44,2992829080
22,11,Pattern_Practice,124,5,42,127,2992903464
22,11,Pattern_Practice,125,1,48,37,2993018536
22,11,Pattern_Practice,126,1,38,25,2993369064
22,11,Pattern_Practice,127,1,48,16,2993387372
22,11,Pattern_Practice,128,5,42,127,2993404164
22,11,Pattern_Practice,129,1,48,45,2993825036
22,11,Pattern_Practice,130,5,42,127,2993903980
22,11,Pattern_Practice,131,1,48,32,2994020552
22,11,Pattern_Practice,132,1,48,25,2994291544
22,11,Pattern_Practice,133,5,42,127,2994403712
22,11,Pattern_Practice,134,1,48,42,2994571460
22,11,Pattern_Practice,135,1,48,43,2994702732
22,11,Pattern_Practice,136,1,48,27,2994882848
22,11,Pattern_Practice,137,5,42,127,2994904424
22,11,Pattern_Practice,138,1,48,43,2994982396
22,11,Pattern_Practice,139,1,48,45,2995253016
22,11,Pattern_Practice,140,5,42,127,2995404080
22,11,Pattern_Practice,141,1,38,55,2995529792
22,11,Pattern_Practice,142,1,48,51,2995821880
22,11,Pattern_Practice,143,5,42,127,2995903768
22,11,Pattern_Practice,144,1,48,25,2996112960
22,11,Pattern_Practice,145,5,42,127,2996403820
22,11,Pattern_Practice,146,1,38,52,2996480764
22,11,Pattern_Practice,147,1,48,50,2996788488
22,11,Pattern_Practice,148,5,42,127,2996904168
22,11,Pattern_Practice,149,1,48,32,2997075432
22,11,Pattern_Practice,150,5,42,127,2997403936
22,11,Pattern_Practice,151,1,48,51,2997407352
22,11,Pattern_Practice,152,1,38,49,2997679092
22,11,Pattern_Practice,153,5,42,127,2997903836
22,11,Pattern_Practice,154,1,48,57,2998008084
22,11,Pattern_Practice,155,1,48,33,2998282444
22,11,Pattern_Practice,156,5,42,127,2998403632
22,11,Pattern_Practice,157,1,48,33,2998619048
22,11,Pattern_Practice,158,1,48,39,2998843372
22,11,Pattern_Practice,159,5,42,127,2998904220
22,11,Pattern_Practice,160,1,38,48,2999126652
22,11,Pattern_Practice,161,5,42,127,2999403748
22,11,Pattern_Practice,162,1,48,26,2999761904
22,11,Pattern_Practice,163,1,48,45,2999818732
22,11,Pattern_Practice,164,5,42,127,2999903812
22,11,Pattern_Practice,165,1,48,32,3000364056
22,11,Pattern_Practice,166,5,42,127,3000404476
22,11,Pattern_Practice,167,1,48,40,3000831136
22,11,Pattern_Practice,168,5,42,127,3000904172
22,11,Pattern_Practice,169,1,48,38,3001307116
22,11,Pattern_Practice,170,5,42,127,3001403704
22,11,Pattern_Practice,171,1,38,14,3001408988
22,11,Pattern_Practice,172,1,48,41,3001820480
22,11,Pattern_Practice,173,1,38,26,3001823752
22,11,Pattern_Practice,174,5,42,127,3001903520
22,11,Pattern_Practice,175,1,48,49,3002312048
22,11,Pattern_Practice,176,5,42,127,3002404144
22,11,Pattern_Practice,177,1,48,32,3002529204
22,11,Pattern_Practice,178,1,38,27,3002859288
22,11,Pattern_Practice,179,5,42,127,3002903832
22,11,Pattern_Practice,180,1,48,48,3003351432
22,11,Pattern_Practice,181,5,42,127,3003403600
22,11,Pattern_Practice,182,1,48,31,3003822108
22,11,Pattern_Practice,183,5,42,127,3003904492
22,11,Pattern_Practice,184,1,48,50,3004337584
22,11,Pattern_Practice,185,5,42,127,3004404036
22,11,Pattern_Practice,186,1,38,49,3004828900
22,11,Pattern_Practice,187,5,42,127,3004903732
22,11,Pattern_Practice,188,1,48,53,3005305232
22,11,Pattern_Practice,189,5,42,127,3005403488
22,11,Pattern_Practice,190,1,48,31,3005782784
22,11,Pattern_Practice,191,5,42,127,3005904304
22,11,Pattern_Practice,192,1,48,29,3006020744
22,11,Pattern_Practice,193,1,48,45,3006307140
22,11,Pattern_Practice,194,5,42,127,3006403828
22,11,Pattern_Practice,195,1,38,59,3006803024
22,11,Pattern_Practice,196,5,42,127,3006903668
22,11,Pattern_Practice,197,1,48,45,3007317452
22,11,Pattern_Practice,198,5,42,127,3007404424
22,11,Pattern_Practice,199,1,48,35,3007785580
22,11,Pattern_Practice,200,5,42,127,3007904032
22,11,Pattern_Practice,201,1,48,25,3008010592
22,11,Pattern_Practice,202,1,48,36,3008320480
22,11,Pattern_Practice,203,5,42,127,3008403792
22,11,Pattern_Practice,204,1,38,37,3008809704
22,11,Pattern_Practice,0,9999,9999,9999,2968901728
22,11,Pattern_Practice,1,9999,9999,9999,2969401444
22,11,Pattern_Practice,2,9999,9999,9999,2969901164
22,11,Pattern_Practice,3,9999,9999,9999,2970401852
22,11,Pattern_Practice,4,9999,9999,9999,2970901568
22,11,Pattern_Practice,5,9999,9999,9999,2971401288
22,11,Pattern_Practice,6,9999,9999,9999,2971902032
22,11,Pattern_Practice,7,9999,9999,9999,2972401756
22,11,Pattern_Practice,8,9999,9999,9999,2972901428
22,11,Pattern_Practice,9,9999,9999,9999,2973401164
22,11,Pattern_Practice,10,9999,9999,9999,2973901888
22,11,Pattern_Practice,11,9999,9999,9999,2974401656
22,11,Pattern_Practice,12,9999,9999,9999,2974901328
22,11,Pattern_Practice,13,9999,9999,9999,2975402068
22,11,Pattern_Practice,14,9999,9999,9999,2975901796
22,11,Pattern_Practice,15,9999,9999,9999,2976401496
22,11,Pattern_Practice,16,9999,9999,9999,2976901216
22,11,Pattern_Practice,17,9999,9999,9999,2977401960
22,11,Pattern_Practice,18,9999,9999,9999,2977901660
22,11,Pattern_Practice,19,9999,9999,9999,2978401352
22,11,Pattern_Practice,20,9999,9999,9999,2978902072
22,11,Pattern_Practice,21,9999,9999,9999,2979401840
22,11,Pattern_Practice,22,9999,9999,9999,2979901516
22,11,Pattern_Practice,23,9999,9999,9999,2980401264
22,11,Pattern_Practice,24,9999,9999,9999,2980901984
22,11,Pattern_Practice,25,9999,9999,9999,2981401680
22,11,Pattern_Practice,26,9999,9999,9999,2981901428
22,11,Pattern_Practice,27,9999,9999,9999,2982401120
22,11,Pattern_Practice,28,9999,9999,9999,2982901840
22,11,Pattern_Practice,29,9999,9999,9999,2983401588
22,11,Pattern_Practice,30,9999,9999,9999,2983901276
22,11,Pattern_Practice,31,9999,9999,9999,2984401980
22,11,Pattern_Practice,32,9999,9999,9999,2984901728
22,11,Pattern_Practice,33,9999,9999,9999,2985401420
22,11,Pattern_Practice,34,9999,9999,9999,2985901116
22,11,Pattern_Practice,35,9999,9999,9999,2986401888
22,11,Pattern_Practice,36,9999,9999,9999,2986901560
22,11,Pattern_Practice,37,9999,9999,9999,2987401304
22,11,Pattern_Practice,38,9999,9999,9999,2987902024
22,11,Pattern_Practice,39,9999,9999,9999,2988401772
22,11,Pattern_Practice,40,9999,9999,9999,2988901460
22,11,Pattern_Practice,41,9999,9999,9999,2989401160
22,11,Pattern_Practice,42,9999,9999,9999,2989901876
22,11,Pattern_Practice,43,9999,9999,9999,2990401608
22,11,Pattern_Practice,44,9999,9999,9999,2990901304
22,11,Pattern_Practice,45,9999,9999,9999,2991402044
22,11,Pattern_Practice,46,9999,9999,9999,2991901816
22,11,Pattern_Practice,47,9999,9999,9999,2992401488
22,11,Pattern_Practice,48,9999,9999,9999,2992901176
22,11,Pattern_Practice,49,9999,9999,9999,2993401952
22,11,Pattern_Practice,50,9999,9999,9999,2993901616
22,11,Pattern_Practice,51,9999,9999,9999,2994401348
22,11,Pattern_Practice,52,9999,9999,9999,2994902136
22,11,Pattern_Practice,53,9999,9999,9999,2995401792
22,11,Pattern_Practice,54,9999,9999,9999,2995901552
22,11,Pattern_Practice,55,9999,9999,9999,2996401236
22,11,Pattern_Practice,56,9999,9999,9999,2996901952
22,11,Pattern_Practice,57,9999,9999,9999,2997401648
22,11,Pattern_Practice,58,9999,9999,9999,2997901372
22,11,Pattern_Practice,59,9999,9999,9999,2998401120
22,11,Pattern_Practice,60,9999,9999,9999,2998901856
22,11,Pattern_Practice,61,9999,9999,9999,2999401536
22,11,Pattern_Practice,62,9999,9999,9999,2999901300
22,11,Pattern_Practice,63,9999,9999,9999,3000402040
22,11,Pattern_Practice,64,9999,9999,9999,3000901736
22,11,Pattern_Practice,65,9999,9999,9999,3001401412
22,11,Pattern_Practice,66,9999,9999,9999,3001901156
22,11,Pattern_Practice,67,9999,9999,9999,3002401888
22,11,Pattern_Practice,68,9999,9999,9999,3002901616
22,11,Pattern_Practice,69,9999,9999,9999,3003401312
22,11,Pattern_Practice,70,9999,9999,9999,3003902052
22,11,Pattern_Practice,71,9999,9999,9999,3004401748
22,11,Pattern_Practice,72,9999,9999,9999,3004901444
22,11,Pattern_Practice,73,9999,9999,9999,3005401196
22,11,Pattern_Practice,74,9999,9999,9999,3005901940
22,11,Pattern_Practice,75,9999,9999,9999,3006401612
22,11,Pattern_Practice,76,9999,9999,9999,3006901320
22,11,Pattern_Practice,77,9999,9999,9999,3007402064
22,11,Pattern_Practice,78,9999,9999,9999,3007901816
22,11,Pattern_Practice,79,9999,9999,9999,3008401504
23,13,Improv_Metronome,0,5,42,127,3042017648
23,13,Improv_Metronome,1,5,42,127,3042518556
23,13,Improv_Metronome,2,5,42,127,3043018200
23,13,Improv_Metronome,3,5,42,127,3043517768
23,13,Improv_Metronome,4,1,48,43,3044014380
23,13,Improv_Metronome,5,5,42,127,3044017628
23,13,Improv_Metronome,6,1,48,37,3044053492
23,13,Improv_Metronome,7,1,48,45,3044494456
23,13,Improv_Metronome,8,5,42,127,3044518272
23,13,Improv_Metronome,9,1,48,37,3044726544
23,13,Improv_Metronome,10,1,38,51,3044998736
23,13,Improv_Metronome,11,5,42,127,3045018016
23,13,Improv_Metronome,12,1,48,43,3045498652
23,13,Improv_Metronome,13,5,42,127,3045517564
23,13,Improv_Metronome,14,1,48,47,3045990720
23,13,Improv_Metronome,15,5,42,127,3046018428
23,13,Improv_Metronome,16,1,48,41,3046509112
23,13,Improv_Metronome,17,5,42,127,3046518196
23,13,Improv_Metronome,18,5,42,127,3047017752
23,13,Improv_Metronome,19,1,38,51,3047023112
23,13,Improv_Metronome,20,5,42,127,3047517444
23,13,Improv_Metronome,21,1,48,44,3047867896
23,13,Improv_Metronome,22,1,48,40,3047921732
23,13,Improv_Metronome,23,5,42,127,3048018164
23,13,Improv_Metronome,24,1,48,45,3048444240
23,13,Improv_Metronome,25,5,42,127,3048518248
23,13,Improv_Metronome,26,1,48,37,3048690568
23,13,Improv_Metronome,27,1,38,42,3048998364
23,13,Improv_Metronome,28,5,42,127,3049017696
23,13,Improv_Metronome,29,1,48,42,3049486396
23,13,Improv_Metronome,30,5,42,127,3049517392
23,13,Improv_Metronome,31,1,48,40,3049968208
23,13,Improv_Metronome,32,5,42,127,3050018136
23,13,Improv_Metronome,33,1,48,39,3050343264
23,13,Improv_Metronome,34,1,48,47,3050471396
23,13,Improv_Metronome,35,5,42,127,3050517956
23,13,Improv_Metronome,36,1,48,36,3050594136
23,13,Improv_Metronome,37,1,48,36,3050702520
23,13,Improv_Metronome,38,1,48,39,3050872364
23,13,Improv_Metronome,39,5,42,127,3051017516
23,13,Improv_Metronome,40,1,38,58,3051438432
23,13,Improv_Metronome,41,5,42,127,3051518272
23,13,Improv_Metronome,42,1,48,40,3051909000
23,13,Improv_Metronome,43,5,42,127,3052018176
23,13,Improv_Metronome,44,1,48,33,3052402340
23,13,Improv_Metronome,45,5,42,127,3052517796
23,13,Improv_Metronome,46,1,48,42,3052987252
23,13,Improv_Metronome,47,5,42,127,3053017504
23,13,Improv_Metronome,48,5,42,127,3053518180
23,13,Improv_Metronome,49,1,38,58,3053530724
23,13,Improv_Metronome,50,5,42,127,3054017948
23,13,Improv_Metronome,51,1,48,42,3054037524
23,13,Improv_Metronome,52,1,48,36,3054509972
23,13,Improv_Metronome,53,5,42,127,3054517712
23,13,Improv_Metronome,54,1,48,14,3054696068
23,13,Improv_Metronome,55,1,48,32,3054819036
23,13,Improv_Metronome,56,1,48,42,3055003192
23,13,Improv_Metronome,57,5,42,127,3055018484
23,13,Improv_Metronome,58,5,42,127,3055518036
23,13,Improv_Metronome,59,1,38,61,3055552796
23,13,Improv_Metronome,60,5,42,127,3056017952
23,13,Improv_Metronome,61,1,48,37,3056049424
23,13,Improv_Metronome,62,1,48,41,3056490956
23,13,Improv_Metronome,63,5,42,127,3056517392
23,13,Improv_Metronome,64,1,48,38,3056690084
23,13,Improv_Metronome,65,1,48,35,3056809468
23,13,Improv_Metronome,66,1,48,36,3057011396
23,13,Improv_Metronome,67,5,42,127,3057018312
23,13,Improv_Metronome,68,5,42,127,3057518016
23,13,Improv_Metronome,69,1,38,53,3057530188
23,13,Improv_Metronome,70,1,48,38,3057992840
23,13,Improv_Metronome,71,5,42,127,3058017628
23,13,Improv_Metronome,72,1,48,36,3058257788
23,13,Improv_Metronome,73,5,42,127,3058518428
23,13,Improv_Metronome,74,1,38,58,3058555060
23,13,Improv_Metronome,75,5,42,127,3059018200
23,13,Improv_Metronome,76,1,48,42,3059050716
23,13,Improv_Metronome,77,1,48,38,3059508128
23,13,Improv_Metronome,78,5,42,127,3059518036
23,13,Improv_Metronome,79,5,42,127,3060017440
23,13,Improv_Metronome,80,1,48,36,3060027140
23,13,Improv_Metronome,81,1,48,34,3060268664
23,13,Improv_Metronome,82,5,42,127,3060518160
23,13,Improv_Metronome,83,1,38,36,3060548956
23,13,Improv_Metronome,84,5,42,127,3061017852
23,13,Improv_Metronome,85,1,48,41,3061044908
23,13,Improv_Metronome,86,1,48,32,3061438148
23,13,Improv_Metronome,87,5,42,127,3061517768
23,13,Improv_Metronome,88,1,48,40,3061563204
23,13,Improv_Metronome,89,1,48,35,3061738760
23,13,Improv_Metronome,90,1,48,38,3061866340
23,13,Improv_Metronome,91,5,42,127,3062018524
23,13,Improv_Metronome,92,1,48,39,3062078644
23,13,Improv_Metronome,93,5,42,127,3062518068
23,13,Improv_Metronome,94,1,38,53,3062562104
23,13,Improv_Metronome,95,1,48,39,3063017692
23,13,Improv_Metronome,96,5,42,127,3063019324
23,13,Improv_Metronome,97,1,48,33,3063264356
23,13,Improv_Metronome,98,5,42,127,3063517660
23,13,Improv_Metronome,99,1,38,27,3063556608
23,13,Improv_Metronome,100,5,42,127,3064018252
23,13,Improv_Metronome,101,1,48,41,3064061316
23,13,Improv_Metronome,102,5,42,127,3064517948
23,13,Improv_Metronome,103,1,38,56,3064527796
23,13,Improv_Metronome,104,1,48,38,3064983416
23,13,Improv_Metronome,105,5,42,127,3065017784
23,13,Improv_Metronome,106,1,38,36,3065218876
23,13,Improv_Metronome,107,1,38,38,3065487280
23,13,Improv_Metronome,108,5,42,127,3065517384
23,13,Improv_Metronome,109,1,38,43,3065704792
23,13,Improv_Metronome,110,1,48,38,3065976532
23,13,Improv_Metronome,111,5,42,127,3066018252
23,13,Improv_Metronome,112,1,48,42,3066415344
23,13,Improv_Metronome,113,5,42,127,3066517856
23,13,Improv_Metronome,114,1,48,34,3066519648
23,13,Improv_Metronome,115,1,48,38,3066648408
23,13,Improv_Metronome,116,1,48,35,3066832344
23,13,Improv_Metronome,117,1,48,41,3066885132
23,13,Improv_Metronome,118,5,42,127,3067018008
23,13,Improv_Metronome,119,1,48,40,3067059652
23,13,Improv_Metronome,120,5,42,127,3067518432
23,13,Improv_Metronome,121,1,38,45,3067577452
23,13,Improv_Metronome,122,5,42,127,3068017900
23,13,Improv_Metronome,123,1,48,38,3068059716
23,13,Improv_Metronome,124,5,42,127,3068517672
23,13,Improv_Metronome,125,1,48,47,3068522960
23,13,Improv_Metronome,126,1,48,38,3068798588
23,13,Improv_Metronome,127,5,42,127,3069017788
23,13,Improv_Metronome,128,1,48,39,3069073216
23,13,Improv_Metronome,129,5,42,127,3069518236
23,13,Improv_Metronome,130,1,38,54,3069554564
23,13,Improv_Metronome,131,1,38,45,3069791676
23,13,Improv_Metronome,132,1,38,46,3070005076
23,13,Improv_Metronome,133,5,42,127,3070017828
23,13,Improv_Metronome,134,5,42,127,3070517752
23,13,Improv_Metronome,135,1,48,41,3070533064
23,13,Improv_Metronome,136,1,48,40,3070990032
23,13,Improv_Metronome,137,5,42,127,3071018560
23,13,Improv_Metronome,138,1,48,39,3071510444
23,13,Improv_Metronome,139,5,42,127,3071518032
23,13,Improv_Metronome,140,1,38,59,3072006772
23,13,Improv_Metronome,141,5,42,127,3072017652
23,13,Improv_Metronome,142,1,48,37,3072479616
23,13,Improv_Metronome,143,5,42,127,3072517644
23,13,Improv_Metronome,144,1,48,41,3072885864
23,13,Improv_Metronome,145,1,48,37,3072981976
23,13,Improv_Metronome,146,5,42,127,3073018436
23,13,Improv_Metronome,147,1,48,39,3073139500
23,13,Improv_Metronome,148,1,48,36,3073322384
23,13,Improv_Metronome,149,5,42,127,3073517872
23,13,Improv_Metronome,150,1,38,49,3073911608
23,13,Improv_Metronome,151,5,42,127,3074017568
23,13,Improv_Metronome,152,1,48,41,3074463312
23,13,Improv_Metronome,153,5,42,127,3074518548
23,13,Improv_Metronome,154,1,48,36,3075003852
23,13,Improv_Metronome,155,5,42,127,3075017944
23,13,Improv_Metronome,156,1,38,55,3075493000
23,13,Improv_Metronome,157,5,42,127,3075517788
23,13,Improv_Metronome,158,1,48,46,3075947936
23,13,Improv_Metronome,159,5,42,127,3076017408
23,13,Improv_Metronome,160,1,48,40,3076187240
23,13,Improv_Metronome,161,5,42,127,3076518284
23,13,Improv_Metronome,162,1,38,44,3076522452
23,13,Improv_Metronome,163,1,48,42,3077017756
23,13,Improv_Metronome,164,5,42,127,3077019464
23,13,Improv_Metronome,165,1,48,43,3077511400
23,13,Improv_Metronome,166,5,42,127,3077517664
23,13,Improv_Metronome,167,1,48,50,3077965540
23,13,Improv_Metronome,168,5,42,127,3078018532
23,13,Improv_Metronome,169,1,48,49,3078057788
23,13,Improv_Metronome,170,1,48,46,3078260096
23,13,Improv_Metronome,171,5,42,127,3078518412
23,13,Improv_Metronome,172,1,48,44,3078533652
23,13,Improv_Metronome,173,5,42,127,3079017808
23,13,Improv_Metronome,174,1,38,46,3079073532
23,13,Improv_Metronome,175,5,42,127,3079517504
23,13,Improv_Metronome,176,1,48,43,3079533560
23,13,Improv_Metronome,177,1,48,41,3079968840
23,13,Improv_Metronome,178,5,42,127,3080018236
23,13,Improv_Metronome,179,1,48,42,3080060016
23,13,Improv_Metronome,180,1,38,55,3080397304
23,13,Improv_Metronome,181,5,42,127,3080517972
23,13,Improv_Metronome,182,1,48,41,3080669884
23,13,Improv_Metronome,183,1,48,40,3080926968
23,13,Improv_Metronome,184,5,42,127,3081017656
23,13,Improv_Metronome,185,1,48,45,3081231864
23,13,Improv_Metronome,186,5,42,127,3081517412
23,13,Improv_Metronome,187,1,38,44,3081763496
23,13,Improv_Metronome,188,5,42,127,3082018376
23,13,Improv_Metronome,189,1,48,22,3082339412
23,13,Improv_Metronome,190,5,42,127,3082517996
23,13,Improv_Metronome,191,1,48,34,3082943628
23,13,Improv_Metronome,192,5,42,127,3083017484
23,13,Improv_Metronome,193,1,38,43,3083461868
23,13,Improv_Metronome,194,5,42,127,3083518376
23,13,Improv_Metronome,195,1,38,45,3083728996
23,13,Improv_Metronome,196,1,48,42,3084005000
23,13,Improv_Metronome,197,5,42,127,3084017972
23,13,Improv_Metronome,198,5,42,127,3084517600
23,13,Improv_Metronome,199,1,48,48,3084535600
23,13,Improv_Metronome,200,1,48,45,3084813176
23,13,Improv_Metronome,201,5,42,127,3085017420
23,13,Improv_Metronome,202,1,48,37,3085062204
23,13,Improv_Metronome,203,1,48,43,3085356388
23,13,Improv_Metronome,204,5,42,127,3085518288
23,13,Improv_Metronome,205,1,38,48,3085616628
23,13,Improv_Metronome,206,5,42,127,3086017984
23,13,Improv_Metronome,207,1,48,38,3086127540
23,13,Improv_Metronome,208,5,42,127,3086517604
23,13,Improv_Metronome,209,1,48,54,3086605544
23,13,Improv_Metronome,210,5,42,127,3087018344
23,13,Improv_Metronome,211,1,48,43,3087104640
23,13,Improv_Metronome,212,1,48,49,3087370096
23,13,Improv_Metronome,213,5,42,127,3087518020
23,13,Improv_Metronome,214,1,48,37,3087631312
23,13,Improv_Metronome,215,5,42,127,3088018084
23,13,Improv_Metronome,216,1,38,45,3088162196
23,13,Improv_Metronome,217,5,42,127,3088517456
23,13,Improv_Metronome,218,1,48,41,3088622924
23,13,Improv_Metronome,219,1,48,35,3088980160
23,13,Improv_Metronome,220,5,42,127,3089018264
23,13,Improv_Metronome,221,1,48,41,3089091704
23,13,Improv_Metronome,222,1,48,37,3089284364
23,13,Improv_Metronome,223,1,48,26,3089491776
23,13,Improv_Metronome,224,5,42,127,3089517988
23,13,Improv_Metronome,225,1,38,38,3089853920
23,13,Improv_Metronome,226,5,42,127,3090017744
23,13,Improv_Metronome,227,1,38,29,3090101968
23,13,Improv_Metronome,228,5,42,127,3090518260
23,13,Improv_Metronome,229,1,48,40,3090584160
23,13,Improv_Metronome,230,1,48,53,3090998544
23,13,Improv_Metronome,231,5,42,127,3091018172
23,13,Improv_Metronome,232,1,48,47,3091467868
23,13,Improv_Metronome,233,5,42,127,3091518240
23,13,Improv_Metronome,234,1,48,38,3091680988
23,13,Improv_Metronome,235,1,48,29,3091832732
23,13,Improv_Metronome,236,5,42,127,3092017452
23,13,Improv_Metronome,237,1,48,40,3092058640
23,13,Improv_Metronome,238,5,42,127,3092518120
23,13,Improv_Metronome,239,1,48,40,3092572020
23,13,Improv_Metronome,240,5,42,127,3093018112
23,13,Improv_Metronome,241,1,48,48,3093122656
23,13,Improv_Metronome,242,5,42,127,3093517804
23,13,Improv_Metronome,243,1,38,43,3093607544
23,13,Improv_Metronome,244,5,42,127,3094018472
23,13,Improv_Metronome,245,1,48,39,3094080380
23,13,Improv_Metronome,246,1,48,54,3094331704
23,13,Improv_Metronome,247,5,42,127,3094518216
23,13,Improv_Metronome,248,1,38,22,3094923876
23,13,Improv_Metronome,249,5,42,127,3095017764
23,13,Improv_Metronome,250,1,38,48,3095461860
23,13,Improv_Metronome,251,5,42,127,3095517476
23,13,Improv_Metronome,252,1,48,50,3095962380
23,13,Improv_Metronome,253,5,42,127,3096018288
23,13,Improv_Metronome,254,1,48,42,3096417696
23,13,Improv_Metronome,255,5,42,127,3096518044
23,13,Improv_Metronome,256,1,48,45,3096556916
23,13,Improv_Metronome,257,1,48,38,3096725436
23,13,Improv_Metronome,258,1,48,38,3096944948
23,13,Improv_Metronome,259,5,42,127,3097017636
23,13,Improv_Metronome,260,1,38,48,3097492540
23,13,Improv_Metronome,261,5,42,127,3097517404
23,13,Improv_Metronome,262,1,48,42,3097978220
23,13,Improv_Metronome,263,5,42,127,3098018072
23,13,Improv_Metronome,264,1,48,34,3098241752
23,13,Improv_Metronome,265,5,42,127,3098517900
23,13,Improv_Metronome,266,1,38,52,3098563276
23,13,Improv_Metronome,267,5,42,127,3099017816
23,13,Improv_Metronome,268,1,48,47,3099041504
23,13,Improv_Metronome,269,1,48,36,3099380192
23,13,Improv_Metronome,270,5,42,127,3099518216
23,13,Improv_Metronome,271,1,38,52,3099748596
23,13,Improv_Metronome,272,5,42,127,3100017984
23,13,Improv_Metronome,273,1,48,40,3100378760
23,13,Improv_Metronome,274,5,42,127,3100517900
23,13,Improv_Metronome,275,1,48,42,3100951756
23,13,Improv_Metronome,276,5,42,127,3101017536
23,13,Improv_Metronome,277,1,48,46,3101463488
23,13,Improv_Metronome,278,5,42,127,3101518128
23,13,Improv_Metronome,279,1,48,34,3101742512
23,13,Improv_Metronome,280,1,48,22,3101806068
23,13,Improv_Metronome,281,1,48,35,3102014536
23,13,Improv_Metronome,282,5,42,127,3102018004
23,13,Improv_Metronome,283,5,42,127,3102517780
23,13,Improv_Metronome,284,1,38,47,3102575804
23,13,Improv_Metronome,285,5,42,127,3103018296
23,13,Improv_Metronome,286,1,48,43,3103062480
23,13,Improv_Metronome,287,1,48,45,3103498200
23,13,Improv_Metronome,288,5,42,127,3103517912
23,13,Improv_Metronome,289,1,48,43,3103624184
23,13,Improv_Metronome,290,1,48,42,3103828436
23,13,Improv_Metronome,291,5,42,127,3104017868
23,13,Improv_Metronome,292,1,48,42,3104127124
23,13,Improv_Metronome,293,5,42,127,3104517560
23,13,Improv_Metronome,294,1,38,50,3104661924
23,13,Improv_Metronome,295,5,42,127,3105018300
23,13,Improv_Metronome,296,1,48,40,3105184808
23,13,Improv_Metronome,297,5,42,127,3105518072
23,13,Improv_Metronome,298,1,48,41,3105600400
23,13,Improv_Metronome,299,1,48,29,3105725544
23,13,Improv_Metronome,300,1,48,32,3106005884
23,13,Improv_Metronome,301,5,42,127,3106017664
23,13,Improv_Metronome,302,1,38,53,3106334416
23,13,Improv_Metronome,303,5,42,127,3106518388
23,13,Improv_Metronome,304,1,48,50,3106871440
23,13,Improv_Metronome,305,5,42,127,3107018008
23,13,Improv_Metronome,306,1,48,49,3107361480
23,13,Improv_Metronome,307,5,42,127,3107517852
23,13,Improv_Metronome,308,1,48,45,3107949812
23,13,Improv_Metronome,309,5,42,127,3108017488
23,13,Improv_Metronome,310,1,38,45,3108464992
23,13,Improv_Metronome,311,5,42,127,3108518452
23,13,Improv_Metronome,312,1,48,40,3108975600
23,13,Improv_Metronome,313,5,42,127,3109017848
23,13,Improv_Metronome,314,1,48,35,3109197028
23,13,Improv_Metronome,315,1,38,42,3109486344
23,13,Improv_Metronome,316,5,42,127,3109517668
23,13,Improv_Metronome,317,1,48,39,3109985888
23,13,Improv_Metronome,318,5,42,127,3110018532
23,13,Improv_Metronome,319,1,48,46,3110249500
23,13,Improv_Metronome,320,1,48,39,3110504184
23,13,Improv_Metronome,321,5,42,127,3110518132
23,13,Improv_Metronome,322,5,42,127,3111017684
23,13,Improv_Metronome,323,1,38,49,3111050072
23,13,Improv_Metronome,324,1,48,44,3111488164
23,13,Improv_Metronome,325,5,42,127,3111517520
23,13,Improv_Metronome,0,9999,9999,9999,3042015284
23,13,Improv_Metronome,1,9999,9999,9999,3042516048
23,13,Improv_Metronome,2,9999,9999,9999,3043015764
23,13,Improv_Metronome,3,9999,9999,9999,3043515480
23,13,Improv_Metronome,4,9999,9999,9999,3044015192
23,13,Improv_Metronome,5,9999,9999,9999,3044515912
23,13,Improv_Metronome,6,9999,9999,9999,3045015656
23,13,Improv_Metronome,7,9999,9999,9999,3045515352
23,13,Improv_Metronome,8,9999,9999,9999,3046016068
23,13,Improv_Metronome,9,9999,9999,9999,3046515764
23,13,Improv_Metronome,10,9999,9999,9999,3047015540
23,13,Improv_Metronome,11,9999,9999,9999,3047515232
23,13,Improv_Metronome,12,9999,9999,9999,3048015952
23,13,Improv_Metronome,13,9999,9999,9999,3048515660
23,13,Improv_Metronome,14,9999,9999,9999,3049015408
23,13,Improv_Metronome,15,9999,9999,9999,3049515108
23,13,Improv_Metronome,16,9999,9999,9999,3050015848
23,13,Improv_Metronome,17,9999,9999,9999,3050515520
23,13,Improv_Metronome,18,9999,9999,9999,3051015232
23,13,Improv_Metronome,19,9999,9999,9999,3051515988
23,13,Improv_Metronome,20,9999,9999,9999,3052015664
23,13,Improv_Metronome,21,9999,9999,9999,3052515436
23,13,Improv_Metronome,22,9999,9999,9999,3053015144
23,13,Improv_Metronome,23,9999,9999,9999,3053515892
23,13,Improv_Metronome,24,9999,9999,9999,3054015588
23,13,Improv_Metronome,25,9999,9999,9999,3054515276
23,13,Improv_Metronome,26,9999,9999,9999,3055016048
23,13,Improv_Metronome,27,9999,9999,9999,3055515748
23,13,Improv_Metronome,28,9999,9999,9999,3056015444
23,13,Improv_Metronome,29,9999,9999,9999,3056515184
23,13,Improv_Metronome,30,9999,9999,9999,3057015880
23,13,Improv_Metronome,31,9999,9999,9999,3057515580
23,13,Improv_Metronome,32,9999,9999,9999,3058015344
23,13,Improv_Metronome,33,9999,9999,9999,3058516068
23,13,Improv_Metronome,34,9999,9999,9999,3059015764
23,13,Improv_Metronome,35,9999,9999,9999,3059515452
23,13,Improv_Metronome,36,9999,9999,9999,3060015152
23,13,Improv_Metronome,37,9999,9999,9999,3060515948
23,13,Improv_Metronome,38,9999,9999,9999,3061015640
23,13,Improv_Metronome,39,9999,9999,9999,3061515332
23,13,Improv_Metronome,40,9999,9999,9999,3062016092
23,13,Improv_Metronome,41,9999,9999,9999,3062515784
23,13,Improv_Metronome,42,9999,9999,9999,3063015480
23,13,Improv_Metronome,43,9999,9999,9999,3063515224
23,13,Improv_Metronome,44,9999,9999,9999,3064015968
23,13,Improv_Metronome,45,9999,9999,9999,3064515660
23,13,Improv_Metronome,46,9999,9999,9999,3065015352
23,13,Improv_Metronome,47,9999,9999,9999,3065515096
23,13,Improv_Metronome,48,9999,9999,9999,3066015816
23,13,Improv_Metronome,49,9999,9999,9999,3066515572
23,13,Improv_Metronome,50,9999,9999,9999,3067015252
23,13,Improv_Metronome,51,9999,9999,9999,3067515996
23,13,Improv_Metronome,52,9999,9999,9999,3068015688
23,13,Improv_Metronome,53,9999,9999,9999,3068515384
23,13,Improv_Metronome,54,9999,9999,9999,3069015132
23,13,Improv_Metronome,55,9999,9999,9999,3069515872
23,13,Improv_Metronome,56,9999,9999,9999,3070015540
23,13,Improv_Metronome,57,9999,9999,9999,3070515316
23,13,Improv_Metronome,58,9999,9999,9999,3071016052
23,13,Improv_Metronome,59,9999,9999,9999,3071515748
23,13,Improv_Metronome,60,9999,9999,9999,3072015440
23,13,Improv_Metronome,61,9999,9999,9999,3072515136
23,13,Improv_Metronome,62,9999,9999,9999,3073015928
23,13,Improv_Metronome,63,9999,9999,9999,3073515588
23,13,Improv_Metronome,64,9999,9999,9999,3074015280
23,13,Improv_Metronome,65,9999,9999,9999,3074516036
23,13,Improv_Metronome,66,9999,9999,9999,3075015736
23,13,Improv_Metronome,67,9999,9999,9999,3075515504
23,13,Improv_Metronome,68,9999,9999,9999,3076015196
23,13,Improv_Metronome,69,9999,9999,9999,3076515924
23,13,Improv_Metronome,70,9999,9999,9999,3077015616
23,13,Improv_Metronome,71,9999,9999,9999,3077515380
23,13,Improv_Metronome,72,9999,9999,9999,3078016096
23,13,Improv_Metronome,73,9999,9999,9999,3078515828
23,13,Improv_Metronome,74,9999,9999,9999,3079015524
23,13,Improv_Metronome,75,9999,9999,9999,3079515220
23,13,Improv_Metronome,76,9999,9999,9999,3080015952
23,13,Improv_Metronome,77,9999,9999,9999,3080515684
23,13,Improv_Metronome,78,9999,9999,9999,3081015372
23,13,Improv_Metronome,79,9999,9999,9999,3081515124
23,13,Improv_Metronome,80,9999,9999,9999,3082015792
23,13,Improv_Metronome,81,9999,9999,9999,3082515560
23,13,Improv_Metronome,82,9999,9999,9999,3083015272
23,13,Improv_Metronome,83,9999,9999,9999,3083516016
23,13,Improv_Metronome,84,9999,9999,9999,3084015688
23,13,Improv_Metronome,85,9999,9999,9999,3084515388
23,13,Improv_Metronome,86,9999,9999,9999,3085015132
23,13,Improv_Metronome,87,9999,9999,9999,3085515852
23,13,Improv_Metronome,88,9999,9999,9999,3086015548
23,13,Improv_Metronome,89,9999,9999,9999,3086515316
23,13,Improv_Metronome,90,9999,9999,9999,3087015984
23,13,Improv_Metronome,91,9999,9999,9999,3087515732
23,13,Improv_Metronome,92,9999,9999,9999,3088015424
23,13,Improv_Metronome,93,9999,9999,9999,3088515168
23,13,Improv_Metronome,94,9999,9999,9999,3089015904
23,13,Improv_Metronome,95,9999,9999,9999,3089515628
23,13,Improv_Metronome,96,9999,9999,9999,3090015308
23,13,Improv_Metronome,97,9999,9999,9999,3090516048
23,13,Improv_Metronome,98,9999,9999,9999,3091015740
23,13,Improv_Metronome,99,9999,9999,9999,3091515508
23,13,Improv_Metronome,100,9999,9999,9999,3092015164
23,13,Improv_Metronome,101,9999,9999,9999,3092515908
23,13,Improv_Metronome,102,9999,9999,9999,3093015600
23,13,Improv_Metronome,103,9999,9999,9999,3093515372
23,13,Improv_Metronome,104,9999,9999,9999,3094016112
23,13,Improv_Metronome,105,9999,9999,9999,3094515784
23,13,Improv_Metronome,106,9999,9999,9999,3095015512
23,13,Improv_Metronome,107,9999,9999,9999,3095515188
23,13,Improv_Metronome,108,9999,9999,9999,3096015928
23,13,Improv_Metronome,109,9999,9999,9999,3096515684
23,13,Improv_Metronome,110,9999,9999,9999,3097015348
23,13,Improv_Metronome,111,9999,9999,9999,3097515116
23,13,Improv_Metronome,112,9999,9999,9999,3098015860
23,13,Improv_Metronome,113,9999,9999,9999,3098515536
23,13,Improv_Metronome,114,9999,9999,9999,3099015232
23,13,Improv_Metronome,115,9999,9999,9999,3099516004
23,13,Improv_Metronome,116,9999,9999,9999,3100015696
23,13,Improv_Metronome,117,9999,9999,9999,3100515392
23,13,Improv_Metronome,118,9999,9999,9999,3101015100
23,13,Improv_Metronome,119,9999,9999,9999,3101515844
23,13,Improv_Metronome,120,9999,9999,9999,3102015568
23,13,Improv_Metronome,121,9999,9999,9999,3102515268
23,13,Improv_Metronome,122,9999,9999,9999,3103016012
23,13,Improv_Metronome,123,9999,9999,9999,3103515700
23,13,Improv_Metronome,124,9999,9999,9999,3104015432
23,13,Improv_Metronome,125,9999,9999,9999,3104515124
23,13,Improv_Metronome,126,9999,9999,9999,3105015864
23,13,Improv_Metronome,127,9999,9999,9999,3105515636
23,13,Improv_Metronome,128,9999,9999,9999,3106015304
23,13,Improv_Metronome,129,9999,9999,9999,3106516028
23,13,Improv_Metronome,130,9999,9999,9999,3107015796
23,13,Improv_Metronome,131,9999,9999,9999,3107515492
23,13,Improv_Metronome,132,9999,9999,9999,3108015200
23,13,Improv_Metronome,133,9999,9999,9999,3108515940
23,13,Improv_Metronome,134,9999,9999,9999,3109015636
23,13,Improv_Metronome,135,9999,9999,9999,3109515380
23,13,Improv_Metronome,136,9999,9999,9999,3110016100
23,13,Improv_Metronome,137,9999,9999,9999,3110515772
23,13,Improv_Metronome,138,9999,9999,9999,3111015472
23,13,Improv_Metronome,139,9999,9999,9999,3111515236
24,14,Improv_Melody,0,2,48,80,3166354792
24,14,Improv_Melody,1,2,72,80,3166357540
24,14,Improv_Melody,2,5,42,127,3166358948
24,14,Improv_Melody,3,5,42,110,3166851492
24,14,Improv_Melody,4,5,42,110,3167352088
24,14,Improv_Melody,5,5,42,110,3167851884
24,14,Improv_Melody,6,5,42,127,3168351604
24,14,Improv_Melody,7,5,42,110,3168852224
24,14,Improv_Melody,8,5,42,110,3169352020
24,14,Improv_Melody,9,5,42,110,3169851892
24,14,Improv_Melody,10,2,43,80,3170353968
24,14,Improv_Melody,11,2,67,80,3170356348
24,14,Improv_Melody,12,5,42,127,3170358808
24,14,Improv_Melody,13,5,42,110,3170852172
24,14,Improv_Melody,14,5,42,110,3171351820
24,14,Improv_Melody,15,5,42,110,3171851688
24,14,Improv_Melody,16,5,42,127,3172352608
24,14,Improv_Melody,17,5,42,110,3172852108
24,14,Improv_Melody,18,5,42,110,3173351756
24,14,Improv_Melody,19,5,42,110,3173851624
24,14,Improv_Melody,20,2,45,80,3174354672
24,14,Improv_Melody,21,2,69,80,3174356752
24,14,Improv_Melody,22,5,42,127,3174359440
24,14,Improv_Melody,23,5,42,110,3174851904
24,14,Improv_Melody,24,5,42,110,3175351628
24,14,Improv_Melody,25,5,42,110,3175852544
24,14,Improv_Melody,26,5,42,127,3176351968
24,14,Improv_Melody,27,5,42,110,3176851840
24,14,Improv_Melody,28,5,42,110,3177351412
24,14,Improv_Melody,29,5,42,110,3177852452
24,14,Improv_Melody,30,2,41,80,3178354452
24,14,Improv_Melody,31,2,65,80,3178356456
24,14,Improv_Melody,32,5,42,127,3178359220
24,14,Improv_Melody,33,5,42,110,3178851760
24,14,Improv_Melody,34,5,42,110,3179352380
24,14,Improv_Melody,35,5,42,110,3179852248
24,14,Improv_Melody,36,5,42,127,3180351748
24,14,Improv_Melody,37,5,42,110,3180851468
24,14,Improv_Melody,38,5,42,110,3181352236
24,14,Improv_Melody,39,5,42,110,3181852256
24,14,Improv_Melody,40,1,48,47,3182317832
24,14,Improv_Melody,41,2,48,80,3182354256
24,14,Improv_Melody,42,2,72,80,3182356332
24,14,Improv_Melody,43,5,42,127,3182358796
24,14,Improv_Melody,44,1,48,40,3182802136
24,14,Improv_Melody,45,5,42,110,3182851392
24,14,Improv_Melody,46,1,48,43,3183036432
24,14,Improv_Melody,47,1,38,28,3183334652
24,14,Improv_Melody,48,5,42,110,3183352264
24,14,Improv_Melody,49,1,48,46,3183836744
24,14,Improv_Melody,50,5,42,110,3183851816
24,14,Improv_Melody,51,1,48,43,3184239476
24,14,Improv_Melody,52,5,42,127,3184351652
24,14,Improv_Melody,53,1,48,41,3184413112
24,14,Improv_Melody,54,1,48,37,3184549100
24,14,Improv_Melody,55,1,48,16,3184636068
24,14,Improv_Melody,56,1,48,37,3184759988
24,14,Improv_Melody,57,5,42,110,3184852348
24,14,Improv_Melody,58,1,38,52,3185313940
24,14,Improv_Melody,59,5,42,110,3185352048
24,14,Improv_Melody,60,1,38,44,3185772396
24,14,Improv_Melody,61,5,42,110,3185851672
24,14,Improv_Melody,62,1,48,50,3186303584
24,14,Improv_Melody,63,2,43,80,3186353948
24,14,Improv_Melody,64,2,67,80,3186356100
24,14,Improv_Melody,65,5,42,127,3186358936
24,14,Improv_Melody,66,1,48,45,3186850320
24,14,Improv_Melody,67,5,42,110,3186852132
24,14,Improv_Melody,68,1,48,42,3187340124
24,14,Improv_Melody,69,5,42,110,3187351908
24,14,Improv_Melody,70,1,38,46,3187828428
24,14,Improv_Melody,71,5,42,110,3187851608
24,14,Improv_Melody,72,1,48,38,3188303000
24,14,Improv_Melody,73,5,42,127,3188352328
24,14,Improv_Melody,74,1,48,40,3188545596
24,14,Improv_Melody,75,1,48,39,3188848004
24,14,Improv_Melody,76,5,42,110,3188852228
24,14,Improv_Melody,77,1,38,46,3189315768
24,14,Improv_Melody,78,5,42,110,3189352076
24,14,Improv_Melody,79,1,48,35,3189785468
24,14,Improv_Melody,80,5,42,110,3189851628
24,14,Improv_Melody,81,1,48,32,3190007720
24,14,Improv_Melody,82,1,38,48,3190320900
24,14,Improv_Melody,83,2,45,80,3190354484
24,14,Improv_Melody,84,2,69,80,3190357016
24,14,Improv_Melody,85,5,42,127,3190359476
24,14,Improv_Melody,86,5,42,110,3190852000
24,14,Improv_Melody,87,1,48,43,3190862748
24,14,Improv_Melody,88,1,48,43,3191274988
24,14,Improv_Melody,89,5,42,110,3191351544
24,14,Improv_Melody,90,1,38,47,3191836616
24,14,Improv_Melody,91,1,48,15,3191847372
24,14,Improv_Melody,92,5,42,110,3191852348
24,14,Improv_Melody,93,1,48,41,3192334420
24,14,Improv_Melody,94,5,42,127,3192352180
24,14,Improv_Melody,95,1,48,42,3192817432
24,14,Improv_Melody,96,5,42,110,3192852104
24,14,Improv_Melody,97,1,48,24,3193057184
24,14,Improv_Melody,98,1,48,37,3193350360
24,14,Improv_Melody,99,5,42,110,3193352080
24,14,Improv_Melody,100,1,38,46,3193839324
24,14,Improv_Melody,101,5,42,110,3193852232
24,14,Improv_Melody,102,1,48,42,3194329000
24,14,Improv_Melody,103,2,41,80,3194354512
24,14,Improv_Melody,104,2,65,80,3194356736
24,14,Improv_Melody,105,5,42,127,3194359276
24,14,Improv_Melody,106,5,42,110,3194851800
24,14,Improv_Melody,107,1,48,45,3194862324
24,14,Improv_Melody,108,1,48,39,3195107816
24,14,Improv_Melody,109,5,42,110,3195352376
24,14,Improv_Melody,110,1,38,38,3195377936
24,14,Improv_Melody,111,1,48,46,3195843956
24,14,Improv_Melody,112,5,42,110,3195852072
24,14,Improv_Melody,113,1,48,43,3196264044
24,14,Improv_Melody,114,5,42,127,3196351844
24,14,Improv_Melody,115,1,48,44,3196732924
24,14,Improv_Melody,116,1,48,43,3196830840
24,14,Improv_Melody,117,5,42,110,3196851596
24,14,Improv_Melody,118,1,48,16,3196930696
24,14,Improv_Melody,119,1,48,42,3197129812
24,14,Improv_Melody,120,5,42,110,3197352232
24,14,Improv_Melody,121,1,38,43,3197452812
24,14,Improv_Melody,122,5,42,110,3197851932
24,14,Improv_Melody,123,1,38,34,3197943460
24,14,Improv_Melody,124,2,48,80,3198354212
24,14,Improv_Melody,125,2,72,80,3198356516
24,14,Improv_Melody,126,5,42,127,3198359052
24,14,Improv_Melody,127,1,48,43,3198473324
24,14,Improv_Melody,128,5,42,110,3198851720
24,14,Improv_Melody,129,1,48,29,3198967936
24,14,Improv_Melody,130,1,48,17,3199223664
24,14,Improv_Melody,131,5,42,110,3199352048
24,14,Improv_Melody,132,1,48,42,3199511744
24,14,Improv_Melody,133,5,42,110,3199851824
24,14,Improv_Melody,134,1,38,50,3199987884
24,14,Improv_Melody,135,5,42,127,3200351820
24,14,Improv_Melody,136,1,48,43,3200518324
24,14,Improv_Melody,137,5,42,110,3200852192
24,14,Improv_Melody,138,1,48,38,3201040392
24,14,Improv_Melody,139,5,42,110,3201351968
24,14,Improv_Melody,140,1,48,44,3201531484
24,14,Improv_Melody,141,5,42,110,3201851816
24,14,Improv_Melody,142,1,38,51,3202031036
24,14,Improv_Melody,143,2,43,80,3202354172
24,14,Improv_Melody,144,2,67,80,3202356328
24,14,Improv_Melody,145,5,42,127,3202358788
24,14,Improv_Melody,146,1,48,44,3202553112
24,14,Improv_Melody,147,5,42,110,3202852280
24,14,Improv_Melody,148,1,48,46,3203008760
24,14,Improv_Melody,149,1,48,40,3203131628
24,14,Improv_Melody,150,5,42,110,3203351808
24,14,Improv_Melody,151,1,48,36,3203387612
24,14,Improv_Melody,152,1,48,40,3203688752
24,14,Improv_Melody,153,5,42,110,3203851708
24,14,Improv_Melody,154,1,38,45,3204175212
24,14,Improv_Melody,155,5,42,127,3204352604
24,14,Improv_Melody,156,1,48,43,3204684780
24,14,Improv_Melody,157,5,42,110,3204852080
24,14,Improv_Melody,158,1,48,47,3205173788
24,14,Improv_Melody,159,5,42,110,3205351780
24,14,Improv_Melody,160,1,48,47,3205696604
24,14,Improv_Melody,161,5,42,110,3205851556
24,14,Improv_Melody,162,1,38,56,3206174384
24,14,Improv_Melody,163,2,45,80,3206354728
24,14,Improv_Melody,164,2,69,80,3206356732
24,14,Improv_Melody,165,5,42,127,3206359424
24,14,Improv_Melody,166,1,48,45,3206707388
24,14,Improv_Melody,167,5,42,110,3206851944
24,14,Improv_Melody,168,1,48,50,3207144556
24,14,Improv_Melody,169,1,48,44,3207260616
24,14,Improv_Melody,170,5,42,110,3207351708
24,14,Improv_Melody,171,1,48,41,3207481448
24,14,Improv_Melody,172,1,48,43,3207786176
24,14,Improv_Melody,173,5,42,110,3207852436
24,14,Improv_Melody,174,1,38,49,3208245636
24,14,Improv_Melody,175,5,42,127,3208352048
24,14,Improv_Melody,176,1,48,41,3208737628
24,14,Improv_Melody,177,5,42,110,3208851896
24,14,Improv_Melody,178,1,48,40,3209244436
24,14,Improv_Melody,179,5,42,110,3209351672
24,14,Improv_Melody,180,1,48,44,3209730748
24,14,Improv_Melody,181,5,42,110,3209852392
24,14,Improv_Melody,182,1,38,53,3210234044
24,14,Improv_Melody,183,2,41,80,3210354528
24,14,Improv_Melody,184,2,65,80,3210356756
24,14,Improv_Melody,185,5,42,127,3210359436
24,14,Improv_Melody,186,1,48,48,3210716996
24,14,Improv_Melody,187,5,42,110,3210851660
24,14,Improv_Melody,188,1,48,44,3211096104
24,14,Improv_Melody,189,1,48,43,3211218472
24,14,Improv_Melody,190,5,42,110,3211352384
24,14,Improv_Melody,191,1,48,41,3211369336
24,14,Improv_Melody,192,1,48,42,3211554540
24,14,Improv_Melody,193,5,42,110,3211852432
24,14,Improv_Melody,194,1,38,43,3212076828
24,14,Improv_Melody,195,1,48,14,3212086980
24,14,Improv_Melody,196,5,42,127,3212351712
24,14,Improv_Melody,197,1,48,48,3212565336
24,14,Improv_Melody,198,5,42,110,3212851560
24,14,Improv_Melody,199,1,48,46,3213078124
24,14,Improv_Melody,200,5,42,110,3213352160
24,14,Improv_Melody,201,1,48,52,3213559424
24,14,Improv_Melody,202,5,42,110,3213852156
24,14,Improv_Melody,203,1,38,58,3214065632
24,14,Improv_Melody,204,2,48,80,3214354516
24,14,Improv_Melody,205,2,72,80,3214356436
24,14,Improv_Melody,206,5,42,127,3214359272
24,14,Improv_Melody,207,1,48,52,3214574396
24,14,Improv_Melody,208,1,48,42,3214805152
24,14,Improv_Melody,209,5,42,110,3214851416
24,14,Improv_Melody,210,1,38,55,3215060312
24,14,Improv_Melody,211,5,42,110,3215352444
24,14,Improv_Melody,212,1,48,46,3215506832
24,14,Improv_Melody,213,5,42,110,3215851772
24,14,Improv_Melody,214,1,48,57,3215955420
24,14,Improv_Melody,215,5,42,127,3216351472
24,14,Improv_Melody,216,1,38,56,3216442476
24,14,Improv_Melody,217,5,42,110,3216852440
24,14,Improv_Melody,218,1,48,46,3216898940
24,14,Improv_Melody,219,5,42,110,3217351992
24,14,Improv_Melody,220,1,48,57,3217356532
24,14,Improv_Melody,221,1,38,54,3217807064
24,14,Improv_Melody,222,5,42,110,3217852280
24,14,Improv_Melody,223,1,48,54,3218333172
24,14,Improv_Melody,224,2,43,80,3218354116
24,14,Improv_Melody,225,2,67,80,3218356192
24,14,Improv_Melody,226,5,42,127,3218358804
24,14,Improv_Melody,227,1,48,52,3218817924
24,14,Improv_Melody,228,5,42,110,3218852220
24,14,Improv_Melody,229,1,48,32,3219036932
24,14,Improv_Melody,230,1,48,56,3219318396
24,14,Improv_Melody,231,5,42,110,3219352044
24,14,Improv_Melody,232,1,38,68,3219832532
24,14,Improv_Melody,233,5,42,110,3219851524
24,14,Improv_Melody,234,1,48,51,3220323936
24,14,Improv_Melody,235,5,42,127,3220352344
24,14,Improv_Melody,236,1,48,51,3220834704
24,14,Improv_Melody,237,5,42,110,3220851944
24,14,Improv_Melody,238,1,48,52,3221314208
24,14,Improv_Melody,239,5,42,110,3221351944
24,14,Improv_Melody,240,1,38,59,3221782116
24,14,Improv_Melody,241,5,42,110,3221851496
24,14,Improv_Melody,242,1,48,51,3222305604
24,14,Improv_Melody,243,2,45,80,3222354596
24,14,Improv_Melody,244,2,69,80,3222356896
24,14,Improv_Melody,245,5,42,127,3222359364
24,14,Improv_Melody,246,1,48,50,3222729172
24,14,Improv_Melody,247,5,42,110,3222852164
24,14,Improv_Melody,248,1,48,27,3222856856
24,14,Improv_Melody,249,1,48,34,3223112292
24,14,Improv_Melody,250,5,42,110,3223351840
24,14,Improv_Melody,251,1,48,52,3223443996
24,14,Improv_Melody,252,5,42,110,3223852292
24,14,Improv_Melody,253,1,38,57,3223926020
24,14,Improv_Melody,254,5,42,127,3224352064
24,14,Improv_Melody,255,1,48,56,3224409192
24,14,Improv_Melody,256,5,42,110,3224851836
24,14,Improv_Melody,257,1,48,43,3224888540
24,14,Improv_Melody,258,5,42,110,3225351464
24,14,Improv_Melody,259,1,48,53,3225407016
24,14,Improv_Melody,260,5,42,110,3225852284
24,14,Improv_Melody,261,1,38,73,3225908664
24,14,Improv_Melody,262,2,41,80,3226354416
24,14,Improv_Melody,263,2,65,80,3226356796
24,14,Improv_Melody,264,5,42,127,3226359180
24,14,Improv_Melody,265,1,48,54,3226405912
24,14,Improv_Melody,266,1,48,52,3226816500
24,14,Improv_Melody,267,5,42,110,3226851620
24,14,Improv_Melody,268,1,48,48,3226956744
24,14,Improv_Melody,269,1,38,55,3227306008
24,14,Improv_Melody,270,5,42,110,3227352344
24,14,Improv_Melody,271,1,48,48,3227615324
24,14,Improv_Melody,272,5,42,110,3227852252
24,14,Improv_Melody,273,1,48,54,3228126088
24,14,Improv_Melody,274,5,42,127,3228351804
24,14,Improv_Melody,275,1,38,34,3228648080
24,14,Improv_Melody,276,5,42,110,3228851800
24,14,Improv_Melody,277,1,48,59,3229202980
24,14,Improv_Melody,278,5,42,110,3229352248
24,14,Improv_Melody,279,1,48,42,3229671640
24,14,Improv_Melody,280,5,42,110,3229852172
24,14,Improv_Melody,281,1,48,58,3229962408
24,14,Improv_Melody,282,1,48,60,3230291812
24,14,Improv_Melody,283,2,48,80,3230354300
24,14,Improv_Melody,284,2,72,80,3230356528
24,14,Improv_Melody,285,5,42,127,3230358984
24,14,Improv_Melody,286,5,42,110,3230851660
24,14,Improv_Melody,287,5,42,110,3231352108
24,14,Improv_Melody,288,1,48,44,3231403424
24,14,Improv_Melody,289,5,42,110,3231851880
24,14,Improv_Melody,290,1,48,48,3231878364
24,14,Improv_Melody,291,1,38,52,3232335604
24,14,Improv_Melody,292,5,42,127,3232351800
24,14,Improv_Melody,293,1,48,54,3232772696
24,14,Improv_Melody,294,5,42,110,3232852320
24,14,Improv_Melody,295,1,48,54,3232961664
24,14,Improv_Melody,296,1,48,40,3233126648
24,14,Improv_Melody,297,5,42,110,3233352056
24,14,Improv_Melody,298,1,38,43,3233497320
24,14,Improv_Melody,299,5,42,110,3233851756
24,14,Improv_Melody,300,1,48,51,3234001504
24,14,Improv_Melody,301,1,48,41,3234257688
24,14,Improv_Melody,302,2,43,80,3234355152
24,14,Improv_Melody,303,2,67,80,3234357304
24,14,Improv_Melody,304,5,42,127,3234359764
24,14,Improv_Melody,305,1,48,46,3234482956
24,14,Improv_Melody,306,5,42,110,3234852132
24,14,Improv_Melody,307,1,48,54,3234956332
24,14,Improv_Melody,308,5,42,110,3235351908
24,14,Improv_Melody,309,1,48,49,3235415244
24,14,Improv_Melody,310,1,48,30,3235587576
24,14,Improv_Melody,311,5,42,110,3235851660
24,14,Improv_Melody,312,1,38,52,3235881036
24,14,Improv_Melody,313,1,48,45,3236308160
24,14,Improv_Melody,314,5,42,127,3236352476
24,14,Improv_Melody,315,1,48,32,3236536764
24,14,Improv_Melody,316,1,38,56,3236819576
24,14,Improv_Melody,317,5,42,110,3236852004
24,14,Improv_Melody,318,1,48,46,3237302220
24,14,Improv_Melody,319,5,42,110,3237351780
24,14,Improv_Melody,320,1,48,51,3237841712
24,14,Improv_Melody,321,5,42,110,3237851480
24,14,Improv_Melody,322,2,45,80,3238354736
24,14,Improv_Melody,323,2,69,80,3238356964
24,14,Improv_Melody,324,5,42,127,3238359428
24,14,Improv_Melody,325,1,48,50,3238368532
24,14,Improv_Melody,326,1,38,64,3238846364
24,14,Improv_Melody,327,5,42,110,3238852012
24,14,Improv_Melody,328,1,48,47,3239334248
24,14,Improv_Melody,329,5,42,110,3239351640
24,14,Improv_Melody,330,1,48,39,3239549368
24,14,Improv_Melody,331,5,42,110,3239852520
24,14,Improv_Melody,332,1,38,55,3239860432
24,14,Improv_Melody,333,1,48,15,3239871252
24,14,Improv_Melody,334,1,48,50,3240329764
24,14,Improv_Melody,335,5,42,127,3240352316
24,14,Improv_Melody,336,1,48,58,3240786876
24,14,Improv_Melody,337,5,42,110,3240851716
24,14,Improv_Melody,338,1,48,52,3241315000
24,14,Improv_Melody,339,5,42,110,3241351492
24,14,Improv_Melody,340,1,38,48,3241795104
24,14,Improv_Melody,341,5,42,110,3241852436
24,14,Improv_Melody,342,1,48,46,3242313856
24,14,Improv_Melody,343,2,41,80,3242354464
24,14,Improv_Melody,344,2,65,80,3242356848
24,14,Improv_Melody,345,5,42,127,3242359452
24,14,Improv_Melody,346,1,48,51,3242767040
24,14,Improv_Melody,347,5,42,110,3242851676
24,14,Improv_Melody,348,1,48,33,3242940820
24,14,Improv_Melody,349,1,48,36,3243169932
24,14,Improv_Melody,350,5,42,110,3243352460
24,14,Improv_Melody,351,1,38,56,3243514252
24,14,Improv_Melody,352,5,42,110,3243852384
24,14,Improv_Melody,353,1,48,53,3243969368
24,14,Improv_Melody,354,5,42,127,3244351860
24,14,Improv_Melody,355,1,48,51,3244437584
24,14,Improv_Melody,356,5,42,110,3244851560
24,14,Improv_Melody,357,1,48,50,3244883624
24,14,Improv_Melody,358,5,42,110,3245352380
24,14,Improv_Melody,359,1,48,56,3245403224
24,14,Improv_Melody,360,5,42,110,3245852156
24,14,Improv_Melody,361,1,38,58,3245903816
24,14,Improv_Melody,362,2,48,80,3246354208
24,14,Improv_Melody,363,2,72,80,3246356288
24,14,Improv_Melody,364,5,42,127,3246359048
24,14,Improv_Melody,365,1,48,50,3246428136
24,14,Improv_Melody,366,5,42,110,3246851420
24,14,Improv_Melody,367,1,48,35,3246887596
24,14,Improv_Melody,368,1,48,13,3247132560
24,14,Improv_Melody,0,9999,9999,9999,3166349364
24,14,Improv_Melody,1,9999,9999,9999,3166849100
24,14,Improv_Melody,2,9999,9999,9999,3167349868
24,14,Improv_Melody,3,9999,9999,9999,3167849592
24,14,Improv_Melody,4,9999,9999,9999,3168349240
24,14,Improv_Melody,5,9999,9999,9999,3168850004
24,14,Improv_Melody,6,9999,9999,9999,3169349728
24,14,Improv_Melody,7,9999,9999,9999,3169849452
24,14,Improv_Melody,8,9999,9999,9999,3170349172
24,14,Improv_Melody,9,9999,9999,9999,3170849880
24,14,Improv_Melody,10,9999,9999,9999,3171349600
24,14,Improv_Melody,11,9999,9999,9999,3171849324
24,14,Improv_Melody,12,9999,9999,9999,3172350016
24,14,Improv_Melody,13,9999,9999,9999,3172849740
24,14,Improv_Melody,14,9999,9999,9999,3173349464
24,14,Improv_Melody,15,9999,9999,9999,3173849184
24,14,Improv_Melody,16,9999,9999,9999,3174349880
24,14,Improv_Melody,17,9999,9999,9999,3174849612
24,14,Improv_Melody,18,9999,9999,9999,3175349336
24,14,Improv_Melody,19,9999,9999,9999,3175850104
24,14,Improv_Melody,20,9999,9999,9999,3176349752
24,14,Improv_Melody,21,9999,9999,9999,3176849472
24,14,Improv_Melody,22,9999,9999,9999,3177349196
24,14,Improv_Melody,23,9999,9999,9999,3177849936
24,14,Improv_Melody,24,9999,9999,9999,3178349660
24,14,Improv_Melody,25,9999,9999,9999,3178849396
24,14,Improv_Melody,26,9999,9999,9999,3179350088
24,14,Improv_Melody,27,9999,9999,9999,3179849808
24,14,Improv_Melody,28,9999,9999,9999,3180349532
24,14,Improv_Melody,29,9999,9999,9999,3180849252
24,14,Improv_Melody,30,9999,9999,9999,3181349948
24,14,Improv_Melody,31,9999,9999,9999,3181849668
24,14,Improv_Melody,32,9999,9999,9999,3182349384
24,14,Improv_Melody,33,9999,9999,9999,3182849100
24,14,Improv_Melody,34,9999,9999,9999,3183349824
24,14,Improv_Melody,35,9999,9999,9999,3183849524
24,14,Improv_Melody,36,9999,9999,9999,3184349284
24,14,Improv_Melody,37,9999,9999,9999,3184849980
24,14,Improv_Melody,38,9999,9999,9999,3185349680
24,14,Improv_Melody,39,9999,9999,9999,3185849456
24,14,Improv_Melody,40,9999,9999,9999,3186349156
24,14,Improv_Melody,41,9999,9999,9999,3186849864
24,14,Improv_Melody,42,9999,9999,9999,3187349616
24,14,Improv_Melody,43,9999,9999,9999,3187849316
24,14,Improv_Melody,44,9999,9999,9999,3188350036
24,14,Improv_Melody,45,9999,9999,9999,3188849716
24,14,Improv_Melody,46,9999,9999,9999,3189349488
24,14,Improv_Melody,47,9999,9999,9999,3189849188
24,14,Improv_Melody,48,9999,9999,9999,3190349916
24,14,Improv_Melody,49,9999,9999,9999,3190849636
24,14,Improv_Melody,50,9999,9999,9999,3191349328
24,14,Improv_Melody,51,9999,9999,9999,3191850056
24,14,Improv_Melody,52,9999,9999,9999,3192349816
24,14,Improv_Melody,53,9999,9999,9999,3192849516
24,14,Improv_Melody,54,9999,9999,9999,3193349200
24,14,Improv_Melody,55,9999,9999,9999,3193849940
24,14,Improv_Melody,56,9999,9999,9999,3194349640
24,14,Improv_Melody,57,9999,9999,9999,3194849360
24,14,Improv_Melody,58,9999,9999,9999,3195350084
24,14,Improv_Melody,59,9999,9999,9999,3195849780
24,14,Improv_Melody,60,9999,9999,9999,3196349556
24,14,Improv_Melody,61,9999,9999,9999,3196849232
24,14,Improv_Melody,62,9999,9999,9999,3197349940
24,14,Improv_Melody,63,9999,9999,9999,3197849716
24,14,Improv_Melody,64,9999,9999,9999,3198349416
24,14,Improv_Melody,65,9999,9999,9999,3198849128
24,14,Improv_Melody,66,9999,9999,9999,3199349832
24,14,Improv_Melody,67,9999,9999,9999,3199849532
24,14,Improv_Melody,68,9999,9999,9999,3200349304
24,14,Improv_Melody,69,9999,9999,9999,3200849976
24,14,Improv_Melody,70,9999,9999,9999,3201349752
24,14,Improv_Melody,71,9999,9999,9999,3201849452
24,14,Improv_Melody,72,9999,9999,9999,3202349152
24,14,Improv_Melody,73,9999,9999,9999,3202849912
24,14,Improv_Melody,74,9999,9999,9999,3203349588
24,14,Improv_Melody,75,9999,9999,9999,3203849268
24,14,Improv_Melody,76,9999,9999,9999,3204350012
24,14,Improv_Melody,77,9999,9999,9999,3204849712
24,14,Improv_Melody,78,9999,9999,9999,3205349488
24,14,Improv_Melody,79,9999,9999,9999,3205849188
24,14,Improv_Melody,80,9999,9999,9999,3206349936
24,14,Improv_Melody,81,9999,9999,9999,3206849652
24,14,Improv_Melody,82,9999,9999,9999,3207349344
24,14,Improv_Melody,83,9999,9999,9999,3207850068
24,14,Improv_Melody,84,9999,9999,9999,3208349756
24,14,Improv_Melody,85,9999,9999,9999,3208849528
24,14,Improv_Melody,86,9999,9999,9999,3209349232
24,14,Improv_Melody,87,9999,9999,9999,3209849952
24,14,Improv_Melody,88,9999,9999,9999,3210349652
24,14,Improv_Melody,89,9999,9999,9999,3210849368
24,14,Improv_Melody,90,9999,9999,9999,3211350092
24,14,Improv_Melody,91,9999,9999,9999,3211849844
24,14,Improv_Melody,92,9999,9999,9999,3212349496
24,14,Improv_Melody,93,9999,9999,9999,3212849268
24,14,Improv_Melody,94,9999,9999,9999,3213349940
24,14,Improv_Melody,95,9999,9999,9999,3213849716
24,14,Improv_Melody,96,9999,9999,9999,3214349416
24,14,Improv_Melody,97,9999,9999,9999,3214849124
24,14,Improv_Melody,98,9999,9999,9999,3215349852
24,14,Improv_Melody,99,9999,9999,9999,3215849552
24,14,Improv_Melody,100,9999,9999,9999,3216349252
24,14,Improv_Melody,101,9999,9999,9999,3216850000
24,14,Improv_Melody,102,9999,9999,9999,3217349700
24,14,Improv_Melody,103,9999,9999,9999,3217849396
24,14,Improv_Melody,104,9999,9999,9999,3218349168
24,14,Improv_Melody,105,9999,9999,9999,3218849856
24,14,Improv_Melody,106,9999,9999,9999,3219349604
24,14,Improv_Melody,107,9999,9999,9999,3219849308
24,14,Improv_Melody,108,9999,9999,9999,3220350028
24,14,Improv_Melody,109,9999,9999,9999,3220849728
24,14,Improv_Melody,110,9999,9999,9999,3221349428
24,14,Improv_Melody,111,9999,9999,9999,3221849204
24,14,Improv_Melody,112,9999,9999,9999,3222349876
24,14,Improv_Melody,113,9999,9999,9999,3222849648
24,14,Improv_Melody,114,9999,9999,9999,3223349324
24,14,Improv_Melody,115,9999,9999,9999,3223850072
24,14,Improv_Melody,116,9999,9999,9999,3224349772
24,14,Improv_Melody,117,9999,9999,9999,3224849472
24,14,Improv_Melody,118,9999,9999,9999,3225349172
24,14,Improv_Melody,119,9999,9999,9999,3225849920
24,14,Improv_Melody,120,9999,9999,9999,3226349620
24,14,Improv_Melody,121,9999,9999,9999,3226849328
24,14,Improv_Melody,122,9999,9999,9999,3227350128
24,14,Improv_Melody,123,9999,9999,9999,3227849812
24,14,Improv_Melody,124,9999,9999,9999,3228349512
24,14,Improv_Melody,125,9999,9999,9999,3228849212
24,14,Improv_Melody,126,9999,9999,9999,3229349956
24,14,Improv_Melody,127,9999,9999,9999,3229849656
24,14,Improv_Melody,128,9999,9999,9999,3230349428
24,14,Improv_Melody,129,9999,9999,9999,3230849144
24,14,Improv_Melody,130,9999,9999,9999,3231349816
24,14,Improv_Melody,131,9999,9999,9999,3231849588
24,14,Improv_Melody,132,9999,9999,9999,3232349284
24,14,Improv_Melody,133,9999,9999,9999,3232850028
24,14,Improv_Melody,134,9999,9999,9999,3233349692
24,14,Improv_Melody,135,9999,9999,9999,3233849468
24,14,Improv_Melody,136,9999,9999,9999,3234349160
24,14,Improv_Melody,137,9999,9999,9999,3234849844
24,14,Improv_Melody,138,9999,9999,9999,3235349616
24,14,Improv_Melody,139,9999,9999,9999,3235849296
24,14,Improv_Melody,140,9999,9999,9999,3236350036
24,14,Improv_Melody,141,9999,9999,9999,3236849712
24,14,Improv_Melody,142,9999,9999,9999,3237349488
24,14,Improv_Melody,143,9999,9999,9999,3237849188
24,14,Improv_Melody,144,9999,9999,9999,3238349940
24,14,Improv_Melody,145,9999,9999,9999,3238849648
24,14,Improv_Melody,146,9999,9999,9999,3239349348
24,14,Improv_Melody,147,9999,9999,9999,3239850080
24,14,Improv_Melody,148,9999,9999,9999,3240349800
24,14,Improv_Melody,149,9999,9999,9999,3240849500
24,14,Improv_Melody,150,9999,9999,9999,3241349200
24,14,Improv_Melody,151,9999,9999,9999,3241849920
24,14,Improv_Melody,152,9999,9999,9999,3242349672
24,14,Improv_Melody,153,9999,9999,9999,3242849384
24,14,Improv_Melody,154,9999,9999,9999,3243350092
24,14,Improv_Melody,155,9999,9999,9999,3243849796
24,14,Improv_Melody,156,9999,9999,9999,3244349496
24,14,Improv_Melody,157,9999,9999,9999,3244849268
24,14,Improv_Melody,158,9999,9999,9999,3245349940
24,14,Improv_Melody,159,9999,9999,9999,3245849716
24,14,Improv_Melody,160,9999,9999,9999,3246349416
24,14,Improv_Melody,161,9999,9999,9999,3246849128
