pid,taskRunCount,taskID,taskName,i,channel,pitch,velocity,microseconds
49,1,1,Ticks_Pract_5,0,5,42,127,71813752
49,1,1,Ticks_Pract_5,1,5,42,127,72314364
49,1,1,Ticks_Pract_5,2,1,48,35,72389092
49,1,1,Ticks_Pract_5,3,1,48,37,72770116
49,1,1,Ticks_Pract_5,4,5,42,127,72813980
49,1,1,Ticks_Pract_5,5,1,48,46,73205556
49,1,1,Ticks_Pract_5,6,5,42,127,73313656
49,1,1,Ticks_Pract_5,7,1,48,40,73770404
49,1,1,Ticks_Pract_5,8,5,42,127,73814564
49,1,1,Ticks_Pract_5,9,1,48,39,74265904
49,1,1,Ticks_Pract_5,10,5,42,127,74313960
49,1,1,Ticks_Pract_5,11,1,48,43,74770912
49,1,1,Ticks_Pract_5,12,5,42,127,74813656
49,1,1,Ticks_Pract_5,13,1,48,44,75308900
49,1,1,Ticks_Pract_5,14,5,42,127,75313720
49,1,1,Ticks_Pract_5,15,1,48,44,75765888
49,1,1,Ticks_Pract_5,16,5,42,127,75814312
49,1,1,Ticks_Pract_5,17,1,48,46,76287276
49,1,1,Ticks_Pract_5,18,5,42,127,76314084
49,1,1,Ticks_Pract_5,19,5,42,127,76813560
49,1,1,Ticks_Pract_5,20,1,48,48,76816532
49,1,1,Ticks_Pract_5,21,1,48,44,77284264
49,1,1,Ticks_Pract_5,22,5,42,127,77314592
49,1,1,Ticks_Pract_5,23,5,42,127,77814220
49,1,1,Ticks_Pract_5,24,1,48,36,77820556
49,1,1,Ticks_Pract_5,25,5,42,127,78313692
49,1,1,Ticks_Pract_5,26,1,48,50,78340596
49,1,1,Ticks_Pract_5,27,1,48,57,78753808
49,1,1,Ticks_Pract_5,28,5,42,127,78813528
49,1,1,Ticks_Pract_5,29,5,42,127,79314276
49,1,1,Ticks_Pract_5,30,1,48,48,79333704
49,1,1,Ticks_Pract_5,31,1,48,50,79765208
49,1,1,Ticks_Pract_5,32,5,42,127,79814112
49,1,1,Ticks_Pract_5,33,1,48,44,80244412
49,1,1,Ticks_Pract_5,34,5,42,127,80313808
49,1,1,Ticks_Pract_5,35,1,48,48,80724656
49,1,1,Ticks_Pract_5,36,5,42,127,80813428
49,1,1,Ticks_Pract_5,37,1,48,44,81240212
49,1,1,Ticks_Pract_5,38,5,42,127,81314244
49,1,1,Ticks_Pract_5,39,1,48,53,81690612
49,1,1,Ticks_Pract_5,40,5,42,127,81813824
49,1,1,Ticks_Pract_5,41,1,48,42,82234184
49,1,1,Ticks_Pract_5,42,5,42,127,82313508
49,1,1,Ticks_Pract_5,43,1,48,36,82708532
49,1,1,Ticks_Pract_5,44,5,42,127,82814384
49,1,1,Ticks_Pract_5,45,1,48,46,83208820
49,1,1,Ticks_Pract_5,46,5,42,127,83314300
49,1,1,Ticks_Pract_5,47,1,48,51,83721828
49,1,1,Ticks_Pract_5,48,5,42,127,83813640
49,1,1,Ticks_Pract_5,49,1,48,43,84191976
49,1,1,Ticks_Pract_5,50,5,42,127,84313396
49,1,1,Ticks_Pract_5,51,1,48,48,84668188
49,1,1,Ticks_Pract_5,52,5,42,127,84814284
49,1,1,Ticks_Pract_5,53,1,48,45,85174836
49,1,1,Ticks_Pract_5,54,5,42,127,85313832
49,1,1,Ticks_Pract_5,55,1,48,39,85661216
49,1,1,Ticks_Pract_5,56,5,42,127,85813600
49,1,1,Ticks_Pract_5,57,1,48,46,86141220
49,1,1,Ticks_Pract_5,58,5,42,127,86314340
49,1,1,Ticks_Pract_5,59,1,48,38,86631936
49,1,1,Ticks_Pract_5,60,5,42,127,86814260
49,1,1,Ticks_Pract_5,61,1,48,40,87082488
49,1,1,Ticks_Pract_5,62,5,42,127,87313804
49,1,1,Ticks_Pract_5,63,1,48,37,87595720
49,1,1,Ticks_Pract_5,64,5,42,127,87813352
49,1,1,Ticks_Pract_5,65,1,48,48,88112172
49,1,1,Ticks_Pract_5,66,5,42,127,88314392
49,1,1,Ticks_Pract_5,67,1,48,38,88617028
49,1,1,Ticks_Pract_5,68,5,42,127,88813788
49,1,1,Ticks_Pract_5,69,1,48,48,89120388
49,1,1,Ticks_Pract_5,70,5,42,127,89313556
49,1,1,Ticks_Pract_5,71,1,48,40,89633616
49,1,1,Ticks_Pract_5,72,5,42,127,89814372
49,1,1,Ticks_Pract_5,73,1,48,27,90154108
49,1,1,Ticks_Pract_5,74,5,42,127,90314216
49,1,1,Ticks_Pract_5,75,1,48,19,90716028
49,1,1,Ticks_Pract_5,76,5,42,127,90813760
49,1,1,Ticks_Pract_5,77,1,48,34,91182516
49,1,1,Ticks_Pract_5,78,5,42,127,91313456
49,1,1,Ticks_Pract_5,79,1,48,48,91640924
49,1,1,Ticks_Pract_5,0,9999,9999,9999,71811168
49,1,1,Ticks_Pract_5,1,9999,9999,9999,72311928
49,1,1,Ticks_Pract_5,2,9999,9999,9999,72811620
49,1,1,Ticks_Pract_5,3,9999,9999,9999,73311296
49,1,1,Ticks_Pract_5,4,9999,9999,9999,73812056
49,1,1,Ticks_Pract_5,5,9999,9999,9999,74311748
49,1,1,Ticks_Pract_5,6,9999,9999,9999,74811444
49,1,1,Ticks_Pract_5,7,9999,9999,9999,75311212
49,1,1,Ticks_Pract_5,8,9999,9999,9999,75811952
49,1,1,Ticks_Pract_5,9,9999,9999,9999,76311648
49,1,1,Ticks_Pract_5,10,9999,9999,9999,76811348
49,1,1,Ticks_Pract_5,11,9999,9999,9999,77312084
49,1,1,Ticks_Pract_5,12,9999,9999,9999,77811784
49,1,1,Ticks_Pract_5,13,9999,9999,9999,78311480
49,1,1,Ticks_Pract_5,14,9999,9999,9999,78811240
49,1,1,Ticks_Pract_5,15,9999,9999,9999,79311988
49,1,1,Ticks_Pract_5,16,9999,9999,9999,79811680
49,1,1,Ticks_Pract_5,17,9999,9999,9999,80311372
49,1,1,Ticks_Pract_5,18,9999,9999,9999,80811068
49,1,1,Ticks_Pract_5,19,9999,9999,9999,81311808
49,1,1,Ticks_Pract_5,20,9999,9999,9999,81811536
49,1,1,Ticks_Pract_5,21,9999,9999,9999,82311220
49,1,1,Ticks_Pract_5,22,9999,9999,9999,82812024
49,1,1,Ticks_Pract_5,23,9999,9999,9999,83311716
49,1,1,Ticks_Pract_5,24,9999,9999,9999,83811428
49,1,1,Ticks_Pract_5,25,9999,9999,9999,84311108
49,1,1,Ticks_Pract_5,26,9999,9999,9999,84811848
49,1,1,Ticks_Pract_5,27,9999,9999,9999,85311544
49,1,1,Ticks_Pract_5,28,9999,9999,9999,85811312
49,1,1,Ticks_Pract_5,29,9999,9999,9999,86312056
49,1,1,Ticks_Pract_5,30,9999,9999,9999,86811748
49,1,1,Ticks_Pract_5,31,9999,9999,9999,87311444
49,1,1,Ticks_Pract_5,32,9999,9999,9999,87811140
49,1,1,Ticks_Pract_5,33,9999,9999,9999,88311884
49,1,1,Ticks_Pract_5,34,9999,9999,9999,88811576
49,1,1,Ticks_Pract_5,35,9999,9999,9999,89311344
49,1,1,Ticks_Pract_5,36,9999,9999,9999,89812088
49,1,1,Ticks_Pract_5,37,9999,9999,9999,90311780
49,1,1,Ticks_Pract_5,38,9999,9999,9999,90811476
49,1,1,Ticks_Pract_5,39,9999,9999,9999,91311168
49,2,0,Ticks_Pract_8,0,5,42,127,107478336
49,2,0,Ticks_Pract_8,1,1,48,46,107885084
49,2,0,Ticks_Pract_8,2,5,42,127,108278068
49,2,0,Ticks_Pract_8,3,1,48,62,108540012
49,2,0,Ticks_Pract_8,4,5,42,127,109077800
49,2,0,Ticks_Pract_8,5,1,48,31,109177856
49,2,0,Ticks_Pract_8,6,1,48,43,109865004
49,2,0,Ticks_Pract_8,7,5,42,127,109877752
49,2,0,Ticks_Pract_8,8,1,48,37,110661820
49,2,0,Ticks_Pract_8,9,5,42,127,110678756
49,2,0,Ticks_Pract_8,10,5,42,127,111478048
49,2,0,Ticks_Pract_8,11,1,48,52,111489840
49,2,0,Ticks_Pract_8,12,1,48,33,111589324
49,2,0,Ticks_Pract_8,13,5,42,127,112277784
49,2,0,Ticks_Pract_8,14,1,48,38,112359288
49,2,0,Ticks_Pract_8,15,5,42,127,113077744
49,2,0,Ticks_Pract_8,16,1,48,59,113121328
49,2,0,Ticks_Pract_8,17,5,42,127,113878600
49,2,0,Ticks_Pract_8,18,1,48,56,113922184
49,2,0,Ticks_Pract_8,19,5,42,127,114678032
49,2,0,Ticks_Pract_8,20,1,48,46,114737328
49,2,0,Ticks_Pract_8,21,5,42,127,115477768
49,2,0,Ticks_Pract_8,22,1,48,57,115498760
49,2,0,Ticks_Pract_8,23,5,42,127,116277872
49,2,0,Ticks_Pract_8,24,1,48,63,116310832
49,2,0,Ticks_Pract_8,25,5,42,127,117078428
49,2,0,Ticks_Pract_8,26,1,48,70,117168192
49,2,0,Ticks_Pract_8,27,5,42,127,117878088
49,2,0,Ticks_Pract_8,28,1,48,61,117879204
49,2,0,Ticks_Pract_8,29,1,48,68,118624748
49,2,0,Ticks_Pract_8,30,5,42,127,118677988
49,2,0,Ticks_Pract_8,31,1,48,66,119414308
49,2,0,Ticks_Pract_8,32,5,42,127,119477500
49,2,0,Ticks_Pract_8,33,1,48,79,120244584
49,2,0,Ticks_Pract_8,34,5,42,127,120278500
49,2,0,Ticks_Pract_8,35,1,48,78,121052016
49,2,0,Ticks_Pract_8,36,5,42,127,121078012
49,2,0,Ticks_Pract_8,37,1,48,81,121843376
49,2,0,Ticks_Pract_8,38,5,42,127,121877820
49,2,0,Ticks_Pract_8,39,1,48,59,122651860
49,2,0,Ticks_Pract_8,40,5,42,127,122677552
49,2,0,Ticks_Pract_8,41,1,48,60,123457352
49,2,0,Ticks_Pract_8,42,5,42,127,123478408
49,2,0,Ticks_Pract_8,43,1,48,58,124260828
49,2,0,Ticks_Pract_8,44,5,42,127,124278512
49,2,0,Ticks_Pract_8,45,1,48,62,125074996
49,2,0,Ticks_Pract_8,46,5,42,127,125077752
49,2,0,Ticks_Pract_8,47,1,48,62,125863312
49,2,0,Ticks_Pract_8,48,5,42,127,125877560
49,2,0,Ticks_Pract_8,49,5,42,127,126678420
49,2,0,Ticks_Pract_8,50,1,48,62,126773392
49,2,0,Ticks_Pract_8,51,5,42,127,127478228
49,2,0,Ticks_Pract_8,52,1,48,63,127530488
49,2,0,Ticks_Pract_8,53,1,48,50,128275448
49,2,0,Ticks_Pract_8,54,5,42,127,128277804
49,2,0,Ticks_Pract_8,55,1,48,62,129055360
49,2,0,Ticks_Pract_8,56,5,42,127,129077540
49,2,0,Ticks_Pract_8,57,5,42,127,129878476
49,2,0,Ticks_Pract_8,58,1,48,57,129988732
49,2,0,Ticks_Pract_8,59,5,42,127,130678208
49,2,0,Ticks_Pract_8,60,1,48,57,130680800
49,2,0,Ticks_Pract_8,61,1,48,73,131418960
49,2,0,Ticks_Pract_8,0,9999,9999,9999,107476044
49,2,0,Ticks_Pract_8,1,9999,9999,9999,108275776
49,2,0,Ticks_Pract_8,2,9999,9999,9999,109075508
49,2,0,Ticks_Pract_8,3,9999,9999,9999,109875312
49,2,0,Ticks_Pract_8,4,9999,9999,9999,110676016
49,2,0,Ticks_Pract_8,5,9999,9999,9999,111475756
49,2,0,Ticks_Pract_8,6,9999,9999,9999,112275540
49,2,0,Ticks_Pract_8,7,9999,9999,9999,113075300
49,2,0,Ticks_Pract_8,8,9999,9999,9999,113876084
49,2,0,Ticks_Pract_8,9,9999,9999,9999,114675816
49,2,0,Ticks_Pract_8,10,9999,9999,9999,115475548
49,2,0,Ticks_Pract_8,11,9999,9999,9999,116275280
49,2,0,Ticks_Pract_8,12,9999,9999,9999,117076064
49,2,0,Ticks_Pract_8,13,9999,9999,9999,117875796
49,2,0,Ticks_Pract_8,14,9999,9999,9999,118675548
49,2,0,Ticks_Pract_8,15,9999,9999,9999,119475280
49,2,0,Ticks_Pract_8,16,9999,9999,9999,120276060
49,2,0,Ticks_Pract_8,17,9999,9999,9999,121075792
49,2,0,Ticks_Pract_8,18,9999,9999,9999,121875528
49,2,0,Ticks_Pract_8,19,9999,9999,9999,122675260
49,2,0,Ticks_Pract_8,20,9999,9999,9999,123476040
49,2,0,Ticks_Pract_8,21,9999,9999,9999,124275772
49,2,0,Ticks_Pract_8,22,9999,9999,9999,125075532
49,2,0,Ticks_Pract_8,23,9999,9999,9999,125875268
49,2,0,Ticks_Pract_8,24,9999,9999,9999,126676052
49,2,0,Ticks_Pract_8,25,9999,9999,9999,127475788
49,2,0,Ticks_Pract_8,26,9999,9999,9999,128275512
49,2,0,Ticks_Pract_8,27,9999,9999,9999,129075248
49,2,0,Ticks_Pract_8,28,9999,9999,9999,129876036
49,2,0,Ticks_Pract_8,29,9999,9999,9999,130675768
49,3,4,T1_SMS_5,0,5,42,127,223130060
49,3,4,T1_SMS_5,1,5,42,127,223629604
49,3,4,T1_SMS_5,2,1,48,84,223638108
49,3,4,T1_SMS_5,3,1,48,66,224112252
49,3,4,T1_SMS_5,4,5,42,127,224130312
49,3,4,T1_SMS_5,5,1,48,56,224620924
49,3,4,T1_SMS_5,6,5,42,127,224630084
49,3,4,T1_SMS_5,7,1,48,36,225082172
49,3,4,T1_SMS_5,8,5,42,127,225129780
49,3,4,T1_SMS_5,9,1,48,17,225568552
49,3,4,T1_SMS_5,10,5,42,127,225629400
49,3,4,T1_SMS_5,11,1,48,22,226103252
49,3,4,T1_SMS_5,12,5,42,127,226130144
49,3,4,T1_SMS_5,13,1,48,21,226607884
49,3,4,T1_SMS_5,14,5,42,127,226629984
49,3,4,T1_SMS_5,15,1,48,23,227117232
49,3,4,T1_SMS_5,16,5,42,127,227129904
49,3,4,T1_SMS_5,17,1,48,21,227608248
49,3,4,T1_SMS_5,18,5,42,127,227629300
49,3,4,T1_SMS_5,19,1,48,14,228113848
49,3,4,T1_SMS_5,20,1,48,24,228118240
49,3,4,T1_SMS_5,21,5,42,127,228130168
49,3,4,T1_SMS_5,22,1,48,24,228621900
49,3,4,T1_SMS_5,23,5,42,127,228630012
49,3,4,T1_SMS_5,24,1,38,13,228630980
49,3,4,T1_SMS_5,25,5,42,127,229129680
49,3,4,T1_SMS_5,26,1,48,18,229134292
49,3,4,T1_SMS_5,27,1,48,14,229616096
49,3,4,T1_SMS_5,28,5,42,127,229630196
49,3,4,T1_SMS_5,29,1,48,13,230109136
49,3,4,T1_SMS_5,30,5,42,127,230129964
49,3,4,T1_SMS_5,31,1,48,51,230593724
49,3,4,T1_SMS_5,32,5,42,127,230629956
49,3,4,T1_SMS_5,33,1,48,49,231099176
49,3,4,T1_SMS_5,34,5,42,127,231129356
49,3,4,T1_SMS_5,35,1,48,68,231610916
49,3,4,T1_SMS_5,36,5,42,127,231630096
49,3,4,T1_SMS_5,37,1,48,48,232100732
49,3,4,T1_SMS_5,38,5,42,127,232130016
49,3,4,T1_SMS_5,39,1,48,45,232580732
49,3,4,T1_SMS_5,40,5,42,127,232629636
49,3,4,T1_SMS_5,41,1,48,44,233073244
49,3,4,T1_SMS_5,42,5,42,127,233130452
49,3,4,T1_SMS_5,43,1,48,55,233544744
49,3,4,T1_SMS_5,44,5,42,127,233629996
49,3,4,T1_SMS_5,45,1,48,23,234053940
49,3,4,T1_SMS_5,46,5,42,127,234129768
49,3,4,T1_SMS_5,47,1,48,54,234569792
49,3,4,T1_SMS_5,48,5,42,127,234629588
49,3,4,T1_SMS_5,49,1,48,56,235076968
49,3,4,T1_SMS_5,50,5,42,127,235130180
49,3,4,T1_SMS_5,51,1,48,46,235589824
49,3,4,T1_SMS_5,52,5,42,127,235630024
49,3,4,T1_SMS_5,53,1,48,32,236077624
49,3,4,T1_SMS_5,54,5,42,127,236129716
49,3,4,T1_SMS_5,55,1,48,52,236595420
49,3,4,T1_SMS_5,56,5,42,127,236630384
49,3,4,T1_SMS_5,57,1,48,41,237080684
49,3,4,T1_SMS_5,58,5,42,127,237130156
49,3,4,T1_SMS_5,59,1,48,51,237613660
49,3,4,T1_SMS_5,60,5,42,127,237629776
49,3,4,T1_SMS_5,61,5,42,127,238129700
49,3,4,T1_SMS_5,62,1,48,58,238510968
49,3,4,T1_SMS_5,63,5,42,127,238630368
49,3,4,T1_SMS_5,64,1,48,58,239064296
49,3,4,T1_SMS_5,65,5,42,127,239129928
49,3,4,T1_SMS_5,66,1,48,52,239557260
49,3,4,T1_SMS_5,67,5,42,127,239629624
49,3,4,T1_SMS_5,68,1,48,53,240066604
49,3,4,T1_SMS_5,69,5,42,127,240130664
49,3,4,T1_SMS_5,70,1,48,52,240584924
49,3,4,T1_SMS_5,71,5,42,127,240630060
49,3,4,T1_SMS_5,72,1,48,49,241054024
49,3,4,T1_SMS_5,73,5,42,127,241129980
49,3,4,T1_SMS_5,74,1,48,55,241529088
49,3,4,T1_SMS_5,75,5,42,127,241630332
49,3,4,T1_SMS_5,76,1,48,67,242061420
49,3,4,T1_SMS_5,77,5,42,127,242130488
49,3,4,T1_SMS_5,78,1,48,38,242585644
49,3,4,T1_SMS_5,79,5,42,127,242629960
49,3,4,T1_SMS_5,80,1,48,24,243079632
49,3,4,T1_SMS_5,81,1,38,16,243088776
49,3,4,T1_SMS_5,82,5,42,127,243129572
49,3,4,T1_SMS_5,83,1,48,19,243582280
49,3,4,T1_SMS_5,84,1,38,13,243591240
49,3,4,T1_SMS_5,85,5,42,127,243629516
49,3,4,T1_SMS_5,86,1,48,24,244109332
49,3,4,T1_SMS_5,87,5,42,127,244130084
49,3,4,T1_SMS_5,88,1,48,18,244604284
49,3,4,T1_SMS_5,89,1,48,41,244608676
49,3,4,T1_SMS_5,90,5,42,127,244629976
49,3,4,T1_SMS_5,91,5,42,127,245129804
49,3,4,T1_SMS_5,92,1,48,21,245152396
49,3,4,T1_SMS_5,93,1,48,22,245627812
49,3,4,T1_SMS_5,94,5,42,127,245630464
49,3,4,T1_SMS_5,95,1,48,57,246129112
49,3,4,T1_SMS_5,96,5,42,127,246130984
49,3,4,T1_SMS_5,97,5,42,127,246629712
49,3,4,T1_SMS_5,98,1,48,16,246646068
49,3,4,T1_SMS_5,99,1,48,20,247119044
49,3,4,T1_SMS_5,100,5,42,127,247129400
49,3,4,T1_SMS_5,101,1,48,49,247596076
49,3,4,T1_SMS_5,102,5,42,127,247630292
49,3,4,T1_SMS_5,103,1,48,64,248089716
49,3,4,T1_SMS_5,104,5,42,127,248129764
49,3,4,T1_SMS_5,105,1,48,17,248603020
49,3,4,T1_SMS_5,106,1,48,27,248607560
49,3,4,T1_SMS_5,107,5,42,127,248629660
49,3,4,T1_SMS_5,108,1,48,22,249059160
49,3,4,T1_SMS_5,109,1,38,15,249068044
49,3,4,T1_SMS_5,110,5,42,127,249130460
49,3,4,T1_SMS_5,111,1,48,68,249569132
49,3,4,T1_SMS_5,112,5,42,127,249630348
49,3,4,T1_SMS_5,113,1,48,50,250075408
49,3,4,T1_SMS_5,114,5,42,127,250129748
49,3,4,T1_SMS_5,115,1,48,52,250549376
49,3,4,T1_SMS_5,116,5,42,127,250629516
49,3,4,T1_SMS_5,117,1,48,78,251118780
49,3,4,T1_SMS_5,118,5,42,127,251130332
49,3,4,T1_SMS_5,119,1,48,45,251599772
49,3,4,T1_SMS_5,120,5,42,127,251630028
49,3,4,T1_SMS_5,121,1,48,69,252034592
49,3,4,T1_SMS_5,122,5,42,127,252129496
49,3,4,T1_SMS_5,123,1,48,38,252564532
49,3,4,T1_SMS_5,124,5,42,127,252630388
49,3,4,T1_SMS_5,125,1,48,43,253029868
49,3,4,T1_SMS_5,126,5,42,127,253130364
49,3,4,T1_SMS_5,127,1,48,67,253537344
49,3,4,T1_SMS_5,128,5,42,127,253629776
49,3,4,T1_SMS_5,129,1,48,69,254031576
49,3,4,T1_SMS_5,130,5,42,127,254129532
49,3,4,T1_SMS_5,131,1,48,59,254539128
49,3,4,T1_SMS_5,132,5,42,127,254630436
49,3,4,T1_SMS_5,133,1,48,62,255024980
49,3,4,T1_SMS_5,134,5,42,127,255130116
49,3,4,T1_SMS_5,135,1,48,73,255520488
49,3,4,T1_SMS_5,136,5,42,127,255629588
49,3,4,T1_SMS_5,137,1,48,75,256034920
49,3,4,T1_SMS_5,138,5,42,127,256130392
49,3,4,T1_SMS_5,139,1,48,58,256525184
49,3,4,T1_SMS_5,140,5,42,127,256630072
49,3,4,T1_SMS_5,141,1,48,54,257058540
49,3,4,T1_SMS_5,142,5,42,127,257130228
49,3,4,T1_SMS_5,143,1,48,54,257538040
49,3,4,T1_SMS_5,144,5,42,127,257629404
49,3,4,T1_SMS_5,145,1,48,59,258016268
49,3,4,T1_SMS_5,146,5,42,127,258130356
49,3,4,T1_SMS_5,147,1,48,65,258503468
49,3,4,T1_SMS_5,148,5,42,127,258630124
49,3,4,T1_SMS_5,149,1,48,58,258998756
49,3,4,T1_SMS_5,150,5,42,127,259129668
49,3,4,T1_SMS_5,151,1,48,64,259473988
49,3,4,T1_SMS_5,152,5,42,127,259629516
49,3,4,T1_SMS_5,153,1,48,61,259962812
49,3,4,T1_SMS_5,154,5,42,127,260130256
49,3,4,T1_SMS_5,155,1,48,74,260441640
49,3,4,T1_SMS_5,156,5,42,127,260629952
49,3,4,T1_SMS_5,157,1,48,58,260955472
49,3,4,T1_SMS_5,158,5,42,127,261129648
49,3,4,T1_SMS_5,159,1,48,67,261449184
49,3,4,T1_SMS_5,160,5,42,127,261630312
49,3,4,T1_SMS_5,161,1,48,52,261989868
49,3,4,T1_SMS_5,162,5,42,127,262130080
49,3,4,T1_SMS_5,163,1,48,62,262389704
49,3,4,T1_SMS_5,164,5,42,127,262629628
49,3,4,T1_SMS_5,165,1,48,45,262996508
49,3,4,T1_SMS_5,166,5,42,127,263129396
49,3,4,T1_SMS_5,167,1,48,65,263485284
49,3,4,T1_SMS_5,168,5,42,127,263630212
49,3,4,T1_SMS_5,169,1,48,47,263954612
49,3,4,T1_SMS_5,170,5,42,127,264130056
49,3,4,T1_SMS_5,171,1,48,46,264453932
49,3,4,T1_SMS_5,172,5,42,127,264629604
49,3,4,T1_SMS_5,173,1,48,59,264963576
49,3,4,T1_SMS_5,174,5,42,127,265130344
49,3,4,T1_SMS_5,175,1,48,76,265436420
49,3,4,T1_SMS_5,176,5,42,127,265630188
49,3,4,T1_SMS_5,177,1,48,47,265960872
49,3,4,T1_SMS_5,178,5,42,127,266129956
49,3,4,T1_SMS_5,179,1,48,57,266483904
49,3,4,T1_SMS_5,180,5,42,127,266629552
49,3,4,T1_SMS_5,181,1,48,42,266965124
49,3,4,T1_SMS_5,182,5,42,127,267130148
49,3,4,T1_SMS_5,183,1,48,48,267471324
49,3,4,T1_SMS_5,184,5,42,127,267630140
49,3,4,T1_SMS_5,185,1,48,40,267960700
49,3,4,T1_SMS_5,186,5,42,127,268129836
49,3,4,T1_SMS_5,187,1,48,46,268505200
49,3,4,T1_SMS_5,188,5,42,127,268630356
49,3,4,T1_SMS_5,189,1,48,46,269003320
49,3,4,T1_SMS_5,190,5,42,127,269130124
49,3,4,T1_SMS_5,191,1,48,54,269482224
49,3,4,T1_SMS_5,192,5,42,127,269629892
49,3,4,T1_SMS_5,193,1,48,47,269968980
49,3,4,T1_SMS_5,194,5,42,127,270129364
49,3,4,T1_SMS_5,195,1,48,52,270467972
49,3,4,T1_SMS_5,196,5,42,127,270630104
49,3,4,T1_SMS_5,197,1,48,48,270973652
49,3,4,T1_SMS_5,198,5,42,127,271130096
49,3,4,T1_SMS_5,199,1,48,48,271491672
49,3,4,T1_SMS_5,200,5,42,127,271629940
49,3,4,T1_SMS_5,201,1,48,42,271956952
49,3,4,T1_SMS_5,202,5,42,127,272130460
49,3,4,T1_SMS_5,203,1,48,53,272467056
49,3,4,T1_SMS_5,204,5,42,127,272630080
49,3,4,T1_SMS_5,205,1,48,48,272955972
49,3,4,T1_SMS_5,206,5,42,127,273129996
49,3,4,T1_SMS_5,207,1,48,51,273486484
49,3,4,T1_SMS_5,208,5,42,127,273629764
49,3,4,T1_SMS_5,209,1,48,46,274014152
49,3,4,T1_SMS_5,210,5,42,127,274130284
49,3,4,T1_SMS_5,211,1,48,56,274489688
49,3,4,T1_SMS_5,212,5,42,127,274629976
49,3,4,T1_SMS_5,213,1,48,44,274999408
49,3,4,T1_SMS_5,214,5,42,127,275129968
49,3,4,T1_SMS_5,215,1,48,61,275509048
49,3,4,T1_SMS_5,216,5,42,127,275629292
49,3,4,T1_SMS_5,217,1,48,36,275994756
49,3,4,T1_SMS_5,218,5,42,127,276130108
49,3,4,T1_SMS_5,219,1,48,39,276450768
49,3,4,T1_SMS_5,220,5,42,127,276629876
49,3,4,T1_SMS_5,221,1,48,48,276998408
49,3,4,T1_SMS_5,222,5,42,127,277129696
49,3,4,T1_SMS_5,223,1,48,49,277431832
49,3,4,T1_SMS_5,224,5,42,127,277630440
49,3,4,T1_SMS_5,225,1,48,51,277975804
49,3,4,T1_SMS_5,226,5,42,127,278130060
49,3,4,T1_SMS_5,227,1,48,44,278448800
49,3,4,T1_SMS_5,228,5,42,127,278629904
49,3,4,T1_SMS_5,229,1,48,52,278921320
49,3,4,T1_SMS_5,230,5,42,127,279129448
49,3,4,T1_SMS_5,231,1,48,54,279448264
49,3,4,T1_SMS_5,232,5,42,127,279630192
49,3,4,T1_SMS_5,233,1,48,58,279987900
49,3,4,T1_SMS_5,234,5,42,127,280129884
49,3,4,T1_SMS_5,235,1,48,45,280517816
49,3,4,T1_SMS_5,236,5,42,127,280629732
49,3,4,T1_SMS_5,237,1,48,44,280980784
49,3,4,T1_SMS_5,238,5,42,127,281130324
49,3,4,T1_SMS_5,239,1,48,52,281413136
49,3,4,T1_SMS_5,240,5,42,127,281630168
49,3,4,T1_SMS_5,241,1,48,42,281948808
49,3,4,T1_SMS_5,242,5,42,127,282129860
49,3,4,T1_SMS_5,243,1,48,58,282446860
49,3,4,T1_SMS_5,244,5,42,127,282629632
49,3,4,T1_SMS_5,245,1,48,54,282956796
49,3,4,T1_SMS_5,246,5,42,127,283130076
49,3,4,T1_SMS_5,247,1,48,57,283451256
49,3,4,T1_SMS_5,248,5,42,127,283629992
49,3,4,T1_SMS_5,249,1,48,48,283916844
49,3,4,T1_SMS_5,250,5,42,127,284129612
49,3,4,T1_SMS_5,251,1,48,53,284468000
49,3,4,T1_SMS_5,252,5,42,127,284630280
49,3,4,T1_SMS_5,253,1,48,44,284967248
49,3,4,T1_SMS_5,254,5,42,127,285129976
49,3,4,T1_SMS_5,255,1,48,54,285478908
49,3,4,T1_SMS_5,256,5,42,127,285629820
49,3,4,T1_SMS_5,257,1,48,57,286004708
49,3,4,T1_SMS_5,258,5,42,127,286129664
49,3,4,T1_SMS_5,259,1,48,47,286499540
49,3,4,T1_SMS_5,260,5,42,127,286630108
49,3,4,T1_SMS_5,261,1,48,51,287015092
49,3,4,T1_SMS_5,262,5,42,127,287129876
49,3,4,T1_SMS_5,263,1,48,47,287534532
49,3,4,T1_SMS_5,264,5,42,127,287629736
49,3,4,T1_SMS_5,265,1,48,51,288012160
49,3,4,T1_SMS_5,0,9999,9999,9999,223127624
49,3,4,T1_SMS_5,1,9999,9999,9999,223627320
49,3,4,T1_SMS_5,2,9999,9999,9999,224128100
49,3,4,T1_SMS_5,3,9999,9999,9999,224627796
49,3,4,T1_SMS_5,4,9999,9999,9999,225127492
49,3,4,T1_SMS_5,5,9999,9999,9999,225627188
49,3,4,T1_SMS_5,6,9999,9999,9999,226127932
49,3,4,T1_SMS_5,7,9999,9999,9999,226627700
49,3,4,T1_SMS_5,8,9999,9999,9999,227127396
49,3,4,T1_SMS_5,9,9999,9999,9999,227627088
49,3,4,T1_SMS_5,10,9999,9999,9999,228127808
49,3,4,T1_SMS_5,11,9999,9999,9999,228627504
49,3,4,T1_SMS_5,12,9999,9999,9999,229127244
49,3,4,T1_SMS_5,13,9999,9999,9999,229627984
49,3,4,T1_SMS_5,14,9999,9999,9999,230127680
49,3,4,T1_SMS_5,15,9999,9999,9999,230627448
49,3,4,T1_SMS_5,16,9999,9999,9999,231127144
49,3,4,T1_SMS_5,17,9999,9999,9999,231627884
49,3,4,T1_SMS_5,18,9999,9999,9999,232127580
49,3,4,T1_SMS_5,19,9999,9999,9999,232627276
49,3,4,T1_SMS_5,20,9999,9999,9999,233128016
49,3,4,T1_SMS_5,21,9999,9999,9999,233627712
49,3,4,T1_SMS_5,22,9999,9999,9999,234127480
49,3,4,T1_SMS_5,23,9999,9999,9999,234627152
49,3,4,T1_SMS_5,24,9999,9999,9999,235127892
49,3,4,T1_SMS_5,25,9999,9999,9999,235627588
49,3,4,T1_SMS_5,26,9999,9999,9999,236127284
49,3,4,T1_SMS_5,27,9999,9999,9999,236628024
49,3,4,T1_SMS_5,28,9999,9999,9999,237127796
49,3,4,T1_SMS_5,29,9999,9999,9999,237627492
49,3,4,T1_SMS_5,30,9999,9999,9999,238127192
49,3,4,T1_SMS_5,31,9999,9999,9999,238627932
49,3,4,T1_SMS_5,32,9999,9999,9999,239127644
49,3,4,T1_SMS_5,33,9999,9999,9999,239627340
49,3,4,T1_SMS_5,34,9999,9999,9999,240128080
49,3,4,T1_SMS_5,35,9999,9999,9999,240627776
49,3,4,T1_SMS_5,36,9999,9999,9999,241127544
49,3,4,T1_SMS_5,37,9999,9999,9999,241627236
49,3,4,T1_SMS_5,38,9999,9999,9999,242127980
49,3,4,T1_SMS_5,39,9999,9999,9999,242627672
49,3,4,T1_SMS_5,40,9999,9999,9999,243127360
49,3,4,T1_SMS_5,41,9999,9999,9999,243627084
49,3,4,T1_SMS_5,42,9999,9999,9999,244127796
49,3,4,T1_SMS_5,43,9999,9999,9999,244627544
49,3,4,T1_SMS_5,44,9999,9999,9999,245127220
49,3,4,T1_SMS_5,45,9999,9999,9999,245627952
49,3,4,T1_SMS_5,46,9999,9999,9999,246127728
49,3,4,T1_SMS_5,47,9999,9999,9999,246627424
49,3,4,T1_SMS_5,48,9999,9999,9999,247127116
49,3,4,T1_SMS_5,49,9999,9999,9999,247627856
49,3,4,T1_SMS_5,50,9999,9999,9999,248127552
49,3,4,T1_SMS_5,51,9999,9999,9999,248627300
49,3,4,T1_SMS_5,52,9999,9999,9999,249128024
49,3,4,T1_SMS_5,53,9999,9999,9999,249627764
49,3,4,T1_SMS_5,54,9999,9999,9999,250127460
49,3,4,T1_SMS_5,55,9999,9999,9999,250627156
49,3,4,T1_SMS_5,56,9999,9999,9999,251127896
49,3,4,T1_SMS_5,57,9999,9999,9999,251627592
49,3,4,T1_SMS_5,58,9999,9999,9999,252127284
49,3,4,T1_SMS_5,59,9999,9999,9999,252628028
49,3,4,T1_SMS_5,60,9999,9999,9999,253127780
49,3,4,T1_SMS_5,61,9999,9999,9999,253627488
49,3,4,T1_SMS_5,62,9999,9999,9999,254127172
49,3,4,T1_SMS_5,63,9999,9999,9999,254627928
49,3,4,T1_SMS_5,64,9999,9999,9999,255127608
49,3,4,T1_SMS_5,65,9999,9999,9999,255627356
49,3,4,T1_SMS_5,66,9999,9999,9999,256128108
49,3,4,T1_SMS_5,67,9999,9999,9999,256627788
49,3,4,T1_SMS_5,68,9999,9999,9999,257127496
49,3,4,T1_SMS_5,69,9999,9999,9999,257627192
49,3,4,T1_SMS_5,70,9999,9999,9999,258127992
49,3,4,T1_SMS_5,71,9999,9999,9999,258627688
49,3,4,T1_SMS_5,72,9999,9999,9999,259127384
49,3,4,T1_SMS_5,73,9999,9999,9999,259627080
49,3,4,T1_SMS_5,74,9999,9999,9999,260127820
49,3,4,T1_SMS_5,75,9999,9999,9999,260627516
49,3,4,T1_SMS_5,76,9999,9999,9999,261127288
49,3,4,T1_SMS_5,77,9999,9999,9999,261627952
49,3,4,T1_SMS_5,78,9999,9999,9999,262127720
49,3,4,T1_SMS_5,79,9999,9999,9999,262627416
49,3,4,T1_SMS_5,80,9999,9999,9999,263127108
49,3,4,T1_SMS_5,81,9999,9999,9999,263627852
49,3,4,T1_SMS_5,82,9999,9999,9999,264127548
49,3,4,T1_SMS_5,83,9999,9999,9999,264627316
49,3,4,T1_SMS_5,84,9999,9999,9999,265128056
49,3,4,T1_SMS_5,85,9999,9999,9999,265627752
49,3,4,T1_SMS_5,86,9999,9999,9999,266127448
49,3,4,T1_SMS_5,87,9999,9999,9999,266627192
49,3,4,T1_SMS_5,88,9999,9999,9999,267127860
49,3,4,T1_SMS_5,89,9999,9999,9999,267627628
49,3,4,T1_SMS_5,90,9999,9999,9999,268127324
49,3,4,T1_SMS_5,91,9999,9999,9999,268628068
49,3,4,T1_SMS_5,92,9999,9999,9999,269127764
49,3,4,T1_SMS_5,93,9999,9999,9999,269627456
49,3,4,T1_SMS_5,94,9999,9999,9999,270127152
49,3,4,T1_SMS_5,95,9999,9999,9999,270627892
49,3,4,T1_SMS_5,96,9999,9999,9999,271127664
49,3,4,T1_SMS_5,97,9999,9999,9999,271627356
49,3,4,T1_SMS_5,98,9999,9999,9999,272128096
49,3,4,T1_SMS_5,99,9999,9999,9999,272627792
49,3,4,T1_SMS_5,100,9999,9999,9999,273127488
49,3,4,T1_SMS_5,101,9999,9999,9999,273627256
49,3,4,T1_SMS_5,102,9999,9999,9999,274127924
49,3,4,T1_SMS_5,103,9999,9999,9999,274627692
49,3,4,T1_SMS_5,104,9999,9999,9999,275127384
49,3,4,T1_SMS_5,105,9999,9999,9999,275627080
49,3,4,T1_SMS_5,106,9999,9999,9999,276127820
49,3,4,T1_SMS_5,107,9999,9999,9999,276627516
49,3,4,T1_SMS_5,108,9999,9999,9999,277127260
49,3,4,T1_SMS_5,109,9999,9999,9999,277628000
49,3,4,T1_SMS_5,110,9999,9999,9999,278127700
49,3,4,T1_SMS_5,111,9999,9999,9999,278627392
49,3,4,T1_SMS_5,112,9999,9999,9999,279127088
49,3,4,T1_SMS_5,113,9999,9999,9999,279627828
49,3,4,T1_SMS_5,114,9999,9999,9999,280127600
49,3,4,T1_SMS_5,115,9999,9999,9999,280627296
49,3,4,T1_SMS_5,116,9999,9999,9999,281128036
49,3,4,T1_SMS_5,117,9999,9999,9999,281627732
49,3,4,T1_SMS_5,118,9999,9999,9999,282127428
49,3,4,T1_SMS_5,119,9999,9999,9999,282627120
49,3,4,T1_SMS_5,120,9999,9999,9999,283127864
49,3,4,T1_SMS_5,121,9999,9999,9999,283627632
49,3,4,T1_SMS_5,122,9999,9999,9999,284127328
49,3,4,T1_SMS_5,123,9999,9999,9999,284628068
49,3,4,T1_SMS_5,124,9999,9999,9999,285127764
49,3,4,T1_SMS_5,125,9999,9999,9999,285627460
49,3,4,T1_SMS_5,126,9999,9999,9999,286127156
49,3,4,T1_SMS_5,127,9999,9999,9999,286627896
49,3,4,T1_SMS_5,128,9999,9999,9999,287127664
49,3,4,T1_SMS_5,129,9999,9999,9999,287627376
49,4,2,T1_SMS_8,0,5,42,127,330754576
49,4,2,T1_SMS_8,1,1,48,39,331273172
49,4,2,T1_SMS_8,2,1,38,14,331281984
49,4,2,T1_SMS_8,3,5,42,127,331555308
49,4,2,T1_SMS_8,4,1,48,56,331927156
49,4,2,T1_SMS_8,5,5,42,127,332354892
49,4,2,T1_SMS_8,6,1,48,64,332780596
49,4,2,T1_SMS_8,7,5,42,127,333154700
49,4,2,T1_SMS_8,8,1,48,21,333603364
49,4,2,T1_SMS_8,9,5,42,127,333954508
49,4,2,T1_SMS_8,10,1,48,52,334370112
49,4,2,T1_SMS_8,11,5,42,127,334755384
49,4,2,T1_SMS_8,12,1,48,53,335179568
49,4,2,T1_SMS_8,13,5,42,127,335554896
49,4,2,T1_SMS_8,14,1,48,54,336142536
49,4,2,T1_SMS_8,15,5,42,127,336354776
49,4,2,T1_SMS_8,16,1,48,56,336665040
49,4,2,T1_SMS_8,17,5,42,127,337154364
49,4,2,T1_SMS_8,18,1,48,54,337335072
49,4,2,T1_SMS_8,19,5,42,127,337955364
49,4,2,T1_SMS_8,20,1,48,37,338042556
49,4,2,T1_SMS_8,21,1,48,54,338723344
49,4,2,T1_SMS_8,22,5,42,127,338754796
49,4,2,T1_SMS_8,23,1,48,58,339476556
49,4,2,T1_SMS_8,24,5,42,127,339554752
49,4,2,T1_SMS_8,25,5,42,127,340354268
49,4,2,T1_SMS_8,26,1,48,60,340369460
49,4,2,T1_SMS_8,27,1,48,53,341109532
49,4,2,T1_SMS_8,28,5,42,127,341155292
49,4,2,T1_SMS_8,29,1,48,57,341867228
49,4,2,T1_SMS_8,30,5,42,127,341954800
49,4,2,T1_SMS_8,31,1,48,43,342666084
49,4,2,T1_SMS_8,32,5,42,127,342754608
49,4,2,T1_SMS_8,33,1,48,47,343454300
49,4,2,T1_SMS_8,34,5,42,127,343554920
49,4,2,T1_SMS_8,35,1,48,57,344270416
49,4,2,T1_SMS_8,36,5,42,127,344355564
49,4,2,T1_SMS_8,37,5,42,127,345154936
49,4,2,T1_SMS_8,38,1,48,53,345234000
49,4,2,T1_SMS_8,39,1,48,43,345893592
49,4,2,T1_SMS_8,40,5,42,127,345954664
49,4,2,T1_SMS_8,41,1,48,48,346660872
49,4,2,T1_SMS_8,42,5,42,127,346754456
49,4,2,T1_SMS_8,43,1,48,53,347472196
49,4,2,T1_SMS_8,44,5,42,127,347555276
49,4,2,T1_SMS_8,45,1,48,49,348260412
49,4,2,T1_SMS_8,46,5,42,127,348355512
49,4,2,T1_SMS_8,47,1,48,48,349090836
49,4,2,T1_SMS_8,48,5,42,127,349154668
49,4,2,T1_SMS_8,49,1,48,52,349894908
49,4,2,T1_SMS_8,50,5,42,127,349954404
49,4,2,T1_SMS_8,51,1,48,38,350693668
49,4,2,T1_SMS_8,52,5,42,127,350755188
49,4,2,T1_SMS_8,53,1,48,48,351495424
49,4,2,T1_SMS_8,54,5,42,127,351554996
49,4,2,T1_SMS_8,55,1,48,47,352262020
49,4,2,T1_SMS_8,56,5,42,127,352354640
49,4,2,T1_SMS_8,57,1,48,34,353066020
49,4,2,T1_SMS_8,58,5,42,127,353154312
49,4,2,T1_SMS_8,59,1,48,47,353860588
49,4,2,T1_SMS_8,60,5,42,127,353955116
49,4,2,T1_SMS_8,61,1,48,66,354693080
49,4,2,T1_SMS_8,62,5,42,127,354755072
49,4,2,T1_SMS_8,63,1,48,46,355539292
49,4,2,T1_SMS_8,64,5,42,127,355554656
49,4,2,T1_SMS_8,65,1,48,47,356350248
49,4,2,T1_SMS_8,66,5,42,127,356354464
49,4,2,T1_SMS_8,67,1,48,41,357067700
49,4,2,T1_SMS_8,68,5,42,127,357155172
49,4,2,T1_SMS_8,69,1,48,33,357952788
49,4,2,T1_SMS_8,70,5,42,127,357955052
49,4,2,T1_SMS_8,71,1,48,45,358705760
49,4,2,T1_SMS_8,72,5,42,127,358754788
49,4,2,T1_SMS_8,73,1,48,22,359494276
49,4,2,T1_SMS_8,74,5,42,127,359554372
49,4,2,T1_SMS_8,75,1,48,41,360250928
49,4,2,T1_SMS_8,76,5,42,127,360355312
49,4,2,T1_SMS_8,77,1,48,39,361033008
49,4,2,T1_SMS_8,78,5,42,127,361154972
49,4,2,T1_SMS_8,79,1,48,45,361852636
49,4,2,T1_SMS_8,80,5,42,127,361954852
49,4,2,T1_SMS_8,81,1,48,36,362660928
49,4,2,T1_SMS_8,82,5,42,127,362754380
49,4,2,T1_SMS_8,83,1,48,56,363542860
49,4,2,T1_SMS_8,84,5,42,127,363555304
49,4,2,T1_SMS_8,85,5,42,127,364354824
49,4,2,T1_SMS_8,86,1,48,52,364358992
49,4,2,T1_SMS_8,87,1,48,51,365141280
49,4,2,T1_SMS_8,88,5,42,127,365154848
49,4,2,T1_SMS_8,89,1,48,66,365827020
49,4,2,T1_SMS_8,90,5,42,127,365954344
49,4,2,T1_SMS_8,91,1,48,63,366604236
49,4,2,T1_SMS_8,92,5,42,127,366755148
49,4,2,T1_SMS_8,93,1,48,57,367453636
49,4,2,T1_SMS_8,94,5,42,127,367554804
49,4,2,T1_SMS_8,95,1,48,60,368236616
49,4,2,T1_SMS_8,96,5,42,127,368354836
49,4,2,T1_SMS_8,97,1,48,34,369114536
49,4,2,T1_SMS_8,98,5,42,127,369154512
49,4,2,T1_SMS_8,99,1,48,38,369949200
49,4,2,T1_SMS_8,100,5,42,127,369955068
49,4,2,T1_SMS_8,101,1,48,36,370680496
49,4,2,T1_SMS_8,102,5,42,127,370754952
49,4,2,T1_SMS_8,103,1,48,33,371381644
49,4,2,T1_SMS_8,104,5,42,127,371554744
49,4,2,T1_SMS_8,105,1,48,39,372198584
49,4,2,T1_SMS_8,106,5,42,127,372354776
49,4,2,T1_SMS_8,107,1,48,34,373091364
49,4,2,T1_SMS_8,108,5,42,127,373155224
49,4,2,T1_SMS_8,109,1,48,27,373786832
49,4,2,T1_SMS_8,110,5,42,127,373954868
49,4,2,T1_SMS_8,111,1,48,46,374580804
49,4,2,T1_SMS_8,112,5,42,127,374754604
49,4,2,T1_SMS_8,113,1,48,38,375420108
49,4,2,T1_SMS_8,114,5,42,127,375554708
49,4,2,T1_SMS_8,115,1,48,58,376280748
49,4,2,T1_SMS_8,116,5,42,127,376355128
49,4,2,T1_SMS_8,117,5,42,127,377154944
49,4,2,T1_SMS_8,118,1,48,37,377171980
49,4,2,T1_SMS_8,119,1,48,52,377923748
49,4,2,T1_SMS_8,120,5,42,127,377954672
49,4,2,T1_SMS_8,121,1,48,21,378010380
49,4,2,T1_SMS_8,122,1,48,39,378718972
49,4,2,T1_SMS_8,123,5,42,127,378754680
49,4,2,T1_SMS_8,124,1,48,42,379473080
49,4,2,T1_SMS_8,125,5,42,127,379555260
49,4,2,T1_SMS_8,126,1,48,47,380302080
49,4,2,T1_SMS_8,127,5,42,127,380354996
49,4,2,T1_SMS_8,128,1,48,57,381126420
49,4,2,T1_SMS_8,129,5,42,127,381154580
49,4,2,T1_SMS_8,130,1,48,37,381906260
49,4,2,T1_SMS_8,131,5,42,127,381954536
49,4,2,T1_SMS_8,132,1,48,55,382641068
49,4,2,T1_SMS_8,133,5,42,127,382755300
49,4,2,T1_SMS_8,134,1,48,48,383456288
49,4,2,T1_SMS_8,135,5,42,127,383554884
49,4,2,T1_SMS_8,136,1,48,73,384331564
49,4,2,T1_SMS_8,137,5,42,127,384354636
49,4,2,T1_SMS_8,138,5,42,127,385154304
49,4,2,T1_SMS_8,139,1,48,98,385201924
49,4,2,T1_SMS_8,140,5,42,127,385955304
49,4,2,T1_SMS_8,141,1,48,70,385993880
49,4,2,T1_SMS_8,142,5,42,127,386754892
49,4,2,T1_SMS_8,143,1,48,67,386766536
49,4,2,T1_SMS_8,144,1,48,91,387514792
49,4,2,T1_SMS_8,145,5,42,127,387554616
49,4,2,T1_SMS_8,146,1,48,81,388267480
49,4,2,T1_SMS_8,147,5,42,127,388354276
49,4,2,T1_SMS_8,148,1,48,89,389135948
49,4,2,T1_SMS_8,149,5,42,127,389155280
49,4,2,T1_SMS_8,150,1,48,78,389875772
49,4,2,T1_SMS_8,151,5,42,127,389954864
49,4,2,T1_SMS_8,152,1,48,93,390688520
49,4,2,T1_SMS_8,153,5,42,127,390754672
49,4,2,T1_SMS_8,154,1,48,82,391528412
49,4,2,T1_SMS_8,155,5,42,127,391554476
49,4,2,T1_SMS_8,156,5,42,127,392355288
49,4,2,T1_SMS_8,157,1,48,65,392425728
49,4,2,T1_SMS_8,158,1,48,57,393122444
49,4,2,T1_SMS_8,159,5,42,127,393154864
49,4,2,T1_SMS_8,160,1,48,59,393874304
49,4,2,T1_SMS_8,161,5,42,127,393954672
49,4,2,T1_SMS_8,162,1,48,86,394673444
49,4,2,T1_SMS_8,163,5,42,127,394754408
49,4,2,T1_SMS_8,164,1,48,69,395458440
49,4,2,T1_SMS_8,165,5,42,127,395555244
49,4,2,T1_SMS_8,166,1,48,72,396287272
49,4,2,T1_SMS_8,167,5,42,127,396354920
49,4,2,T1_SMS_8,168,1,48,75,397099348
49,4,2,T1_SMS_8,169,5,42,127,397154652
49,4,2,T1_SMS_8,170,1,48,65,397883448
49,4,2,T1_SMS_8,171,5,42,127,397954388
49,4,2,T1_SMS_8,172,1,48,77,398695072
49,4,2,T1_SMS_8,173,5,42,127,398755044
49,4,2,T1_SMS_8,174,1,48,83,399489944
49,4,2,T1_SMS_8,175,5,42,127,399554924
49,4,2,T1_SMS_8,176,1,48,92,400329492
49,4,2,T1_SMS_8,177,5,42,127,400354732
49,4,2,T1_SMS_8,178,1,48,82,401076424
49,4,2,T1_SMS_8,179,5,42,127,401154392
49,4,2,T1_SMS_8,180,1,48,80,401854836
49,4,2,T1_SMS_8,181,5,42,127,401955080
49,4,2,T1_SMS_8,182,1,48,92,402662428
49,4,2,T1_SMS_8,183,5,42,127,402755560
49,4,2,T1_SMS_8,184,1,48,90,403480408
49,4,2,T1_SMS_8,185,5,42,127,403554640
49,4,2,T1_SMS_8,186,1,48,85,404227264
49,4,2,T1_SMS_8,187,5,42,127,404354356
49,4,2,T1_SMS_8,188,1,48,81,405043372
49,4,2,T1_SMS_8,189,5,42,127,405155088
49,4,2,T1_SMS_8,190,1,48,87,405871680
49,4,2,T1_SMS_8,191,5,42,127,405954984
49,4,2,T1_SMS_8,192,1,48,100,406683704
49,4,2,T1_SMS_8,193,5,42,127,406754716
49,4,2,T1_SMS_8,194,1,48,92,407444088
49,4,2,T1_SMS_8,195,5,42,127,407554288
49,4,2,T1_SMS_8,196,1,48,87,408288336
49,4,2,T1_SMS_8,197,5,42,127,408355304
49,4,2,T1_SMS_8,198,1,48,71,409092328
49,4,2,T1_SMS_8,199,5,42,127,409154964
49,4,2,T1_SMS_8,200,1,48,86,409845756
49,4,2,T1_SMS_8,201,5,42,127,409954608
49,4,2,T1_SMS_8,202,1,48,81,410616692
49,4,2,T1_SMS_8,203,5,42,127,410754268
49,4,2,T1_SMS_8,204,1,48,85,411438124
49,4,2,T1_SMS_8,205,5,42,127,411555072
49,4,2,T1_SMS_8,206,1,48,72,412242340
49,4,2,T1_SMS_8,207,1,38,18,412252344
49,4,2,T1_SMS_8,208,5,42,127,412354904
49,4,2,T1_SMS_8,209,1,48,81,413112436
49,4,2,T1_SMS_8,210,5,42,127,413154876
49,4,2,T1_SMS_8,211,1,48,97,413901692
49,4,2,T1_SMS_8,212,5,42,127,413954536
49,4,2,T1_SMS_8,213,1,48,97,414712052
49,4,2,T1_SMS_8,214,5,42,127,414755092
49,4,2,T1_SMS_8,215,1,48,87,415504900
49,4,2,T1_SMS_8,216,5,42,127,415554900
49,4,2,T1_SMS_8,217,1,48,66,416300892
49,4,2,T1_SMS_8,218,5,42,127,416354708
49,4,2,T1_SMS_8,219,1,48,73,417144308
49,4,2,T1_SMS_8,220,5,42,127,417154440
49,4,2,T1_SMS_8,221,5,42,127,417955228
49,4,2,T1_SMS_8,222,1,48,43,417958424
49,4,2,T1_SMS_8,223,1,48,53,418698224
49,4,2,T1_SMS_8,224,5,42,127,418754804
49,4,2,T1_SMS_8,225,1,48,37,419444376
49,4,2,T1_SMS_8,226,5,42,127,419554672
49,4,2,T1_SMS_8,227,1,48,48,420184348
49,4,2,T1_SMS_8,228,5,42,127,420354628
49,4,2,T1_SMS_8,229,1,48,48,420967924
49,4,2,T1_SMS_8,230,5,42,127,421155036
49,4,2,T1_SMS_8,231,1,48,38,421864768
49,4,2,T1_SMS_8,232,5,42,127,421954784
49,4,2,T1_SMS_8,233,1,48,46,422592552
49,4,2,T1_SMS_8,234,1,48,27,422648180
49,4,2,T1_SMS_8,235,5,42,127,422754780
49,4,2,T1_SMS_8,236,1,48,46,423332572
49,4,2,T1_SMS_8,237,1,48,31,423398524
49,4,2,T1_SMS_8,238,5,42,127,423554664
49,4,2,T1_SMS_8,239,1,48,52,424163996
49,4,2,T1_SMS_8,240,5,42,127,424355372
49,4,2,T1_SMS_8,241,1,48,44,424946152
49,4,2,T1_SMS_8,242,5,42,127,425154956
49,4,2,T1_SMS_8,243,1,48,26,425766752
49,4,2,T1_SMS_8,244,5,42,127,425954540
49,4,2,T1_SMS_8,245,1,48,16,426432976
49,4,2,T1_SMS_8,0,9999,9999,9999,330752064
49,4,2,T1_SMS_8,1,9999,9999,9999,331552868
49,4,2,T1_SMS_8,2,9999,9999,9999,332352604
49,4,2,T1_SMS_8,3,9999,9999,9999,333152336
49,4,2,T1_SMS_8,4,9999,9999,9999,333952068
49,4,2,T1_SMS_8,5,9999,9999,9999,334752876
49,4,2,T1_SMS_8,6,9999,9999,9999,335552608
49,4,2,T1_SMS_8,7,9999,9999,9999,336352340
49,4,2,T1_SMS_8,8,9999,9999,9999,337152076
49,4,2,T1_SMS_8,9,9999,9999,9999,337952852
49,4,2,T1_SMS_8,10,9999,9999,9999,338752580
49,4,2,T1_SMS_8,11,9999,9999,9999,339552316
49,4,2,T1_SMS_8,12,9999,9999,9999,340352056
49,4,2,T1_SMS_8,13,9999,9999,9999,341152852
49,4,2,T1_SMS_8,14,9999,9999,9999,341952584
49,4,2,T1_SMS_8,15,9999,9999,9999,342752320
49,4,2,T1_SMS_8,16,9999,9999,9999,343552052
49,4,2,T1_SMS_8,17,9999,9999,9999,344352832
49,4,2,T1_SMS_8,18,9999,9999,9999,345152572
49,4,2,T1_SMS_8,19,9999,9999,9999,345952372
49,4,2,T1_SMS_8,20,9999,9999,9999,346752096
49,4,2,T1_SMS_8,21,9999,9999,9999,347552840
49,4,2,T1_SMS_8,22,9999,9999,9999,348352572
49,4,2,T1_SMS_8,23,9999,9999,9999,349152308
49,4,2,T1_SMS_8,24,9999,9999,9999,349952116
49,4,2,T1_SMS_8,25,9999,9999,9999,350752824
49,4,2,T1_SMS_8,26,9999,9999,9999,351552556
49,4,2,T1_SMS_8,27,9999,9999,9999,352352364
49,4,2,T1_SMS_8,28,9999,9999,9999,353152100
49,4,2,T1_SMS_8,29,9999,9999,9999,353952828
49,4,2,T1_SMS_8,30,9999,9999,9999,354752564
49,4,2,T1_SMS_8,31,9999,9999,9999,355552372
49,4,2,T1_SMS_8,32,9999,9999,9999,356352104
49,4,2,T1_SMS_8,33,9999,9999,9999,357152884
49,4,2,T1_SMS_8,34,9999,9999,9999,357952580
49,4,2,T1_SMS_8,35,9999,9999,9999,358752352
49,4,2,T1_SMS_8,36,9999,9999,9999,359552084
49,4,2,T1_SMS_8,37,9999,9999,9999,360352872
49,4,2,T1_SMS_8,38,9999,9999,9999,361152608
49,4,2,T1_SMS_8,39,9999,9999,9999,361952340
49,4,2,T1_SMS_8,40,9999,9999,9999,362752092
49,4,2,T1_SMS_8,41,9999,9999,9999,363552868
49,4,2,T1_SMS_8,42,9999,9999,9999,364352612
49,4,2,T1_SMS_8,43,9999,9999,9999,365152336
49,4,2,T1_SMS_8,44,9999,9999,9999,365952056
49,4,2,T1_SMS_8,45,9999,9999,9999,366752860
49,4,2,T1_SMS_8,46,9999,9999,9999,367552592
49,4,2,T1_SMS_8,47,9999,9999,9999,368352324
49,4,2,T1_SMS_8,48,9999,9999,9999,369152072
49,4,2,T1_SMS_8,49,9999,9999,9999,369952852
49,4,2,T1_SMS_8,50,9999,9999,9999,370752588
49,4,2,T1_SMS_8,51,9999,9999,9999,371552308
49,4,2,T1_SMS_8,52,9999,9999,9999,372352116
49,4,2,T1_SMS_8,53,9999,9999,9999,373152860
49,4,2,T1_SMS_8,54,9999,9999,9999,373952580
49,4,2,T1_SMS_8,55,9999,9999,9999,374752316
49,4,2,T1_SMS_8,56,9999,9999,9999,375552048
49,4,2,T1_SMS_8,57,9999,9999,9999,376352840
49,4,2,T1_SMS_8,58,9999,9999,9999,377152580
49,4,2,T1_SMS_8,59,9999,9999,9999,377952308
49,4,2,T1_SMS_8,60,9999,9999,9999,378752096
49,4,2,T1_SMS_8,61,9999,9999,9999,379552824
49,4,2,T1_SMS_8,62,9999,9999,9999,380352560
49,4,2,T1_SMS_8,63,9999,9999,9999,381152368
49,4,2,T1_SMS_8,64,9999,9999,9999,381952100
49,4,2,T1_SMS_8,65,9999,9999,9999,382752864
49,4,2,T1_SMS_8,66,9999,9999,9999,383552596
49,4,2,T1_SMS_8,67,9999,9999,9999,384352348
49,4,2,T1_SMS_8,68,9999,9999,9999,385152088
49,4,2,T1_SMS_8,69,9999,9999,9999,385952868
49,4,2,T1_SMS_8,70,9999,9999,9999,386752604
49,4,2,T1_SMS_8,71,9999,9999,9999,387552328
49,4,2,T1_SMS_8,72,9999,9999,9999,388352064
49,4,2,T1_SMS_8,73,9999,9999,9999,389152844
49,4,2,T1_SMS_8,74,9999,9999,9999,389952576
49,4,2,T1_SMS_8,75,9999,9999,9999,390752312
49,4,2,T1_SMS_8,76,9999,9999,9999,391552116
49,4,2,T1_SMS_8,77,9999,9999,9999,392352852
49,4,2,T1_SMS_8,78,9999,9999,9999,393152580
49,4,2,T1_SMS_8,79,9999,9999,9999,393952312
49,4,2,T1_SMS_8,80,9999,9999,9999,394752120
49,4,2,T1_SMS_8,81,9999,9999,9999,395552884
49,4,2,T1_SMS_8,82,9999,9999,9999,396352556
49,4,2,T1_SMS_8,83,9999,9999,9999,397152364
49,4,2,T1_SMS_8,84,9999,9999,9999,397952100
49,4,2,T1_SMS_8,85,9999,9999,9999,398752832
49,4,2,T1_SMS_8,86,9999,9999,9999,399552564
49,4,2,T1_SMS_8,87,9999,9999,9999,400352372
49,4,2,T1_SMS_8,88,9999,9999,9999,401152104
49,4,2,T1_SMS_8,89,9999,9999,9999,401952868
49,4,2,T1_SMS_8,90,9999,9999,9999,402752616
49,4,2,T1_SMS_8,91,9999,9999,9999,403552352
49,4,2,T1_SMS_8,92,9999,9999,9999,404352068
49,4,2,T1_SMS_8,93,9999,9999,9999,405152872
49,4,2,T1_SMS_8,94,9999,9999,9999,405952620
49,4,2,T1_SMS_8,95,9999,9999,9999,406752356
49,4,2,T1_SMS_8,96,9999,9999,9999,407552072
49,4,2,T1_SMS_8,97,9999,9999,9999,408352868
49,4,2,T1_SMS_8,98,9999,9999,9999,409152604
49,4,2,T1_SMS_8,99,9999,9999,9999,409952320
49,4,2,T1_SMS_8,100,9999,9999,9999,410752052
49,4,2,T1_SMS_8,101,9999,9999,9999,411552856
49,4,2,T1_SMS_8,102,9999,9999,9999,412352616
49,4,2,T1_SMS_8,103,9999,9999,9999,413152364
49,4,2,T1_SMS_8,104,9999,9999,9999,413952100
49,4,2,T1_SMS_8,105,9999,9999,9999,414752880
49,4,2,T1_SMS_8,106,9999,9999,9999,415552612
49,4,2,T1_SMS_8,107,9999,9999,9999,416352344
49,4,2,T1_SMS_8,108,9999,9999,9999,417152076
49,4,2,T1_SMS_8,109,9999,9999,9999,417952864
49,4,2,T1_SMS_8,110,9999,9999,9999,418752592
49,4,2,T1_SMS_8,111,9999,9999,9999,419552308
49,4,2,T1_SMS_8,112,9999,9999,9999,420352116
49,4,2,T1_SMS_8,113,9999,9999,9999,421152824
49,4,2,T1_SMS_8,114,9999,9999,9999,421952572
49,4,2,T1_SMS_8,115,9999,9999,9999,422752344
49,4,2,T1_SMS_8,116,9999,9999,9999,423552056
49,4,2,T1_SMS_8,117,9999,9999,9999,424352860
49,4,2,T1_SMS_8,118,9999,9999,9999,425152596
49,4,2,T1_SMS_8,119,9999,9999,9999,425952328
49,5,23,Ticks_Phase_5,0,5,42,127,437264808
49,5,23,Ticks_Phase_5,1,1,48,53,437670420
49,5,23,Ticks_Phase_5,2,5,42,127,437764572
49,5,23,Ticks_Phase_5,3,1,48,33,438094600
49,5,23,Ticks_Phase_5,4,5,42,127,438265304
49,5,23,Ticks_Phase_5,5,1,48,47,438581552
49,5,23,Ticks_Phase_5,6,5,42,127,438765144
49,5,23,Ticks_Phase_5,7,1,48,53,439068064
49,5,23,Ticks_Phase_5,8,5,42,127,439264908
49,5,23,Ticks_Phase_5,9,1,48,56,439585128
49,5,23,Ticks_Phase_5,10,5,42,127,439765272
49,5,23,Ticks_Phase_5,11,1,48,46,440110868
49,5,23,Ticks_Phase_5,12,5,42,127,440265032
49,5,23,Ticks_Phase_5,13,1,48,39,440611380
49,5,23,Ticks_Phase_5,14,5,42,127,440764868
49,5,23,Ticks_Phase_5,15,1,48,57,441128744
49,5,23,Ticks_Phase_5,16,5,42,127,441264484
49,5,23,Ticks_Phase_5,17,1,48,47,441643268
49,5,23,Ticks_Phase_5,18,5,42,127,441765216
49,5,23,Ticks_Phase_5,19,1,48,38,442160916
49,5,23,Ticks_Phase_5,20,5,42,127,442265200
49,5,23,Ticks_Phase_5,21,1,48,42,442634628
49,5,23,Ticks_Phase_5,22,5,42,127,442764744
49,5,23,Ticks_Phase_5,23,1,48,30,443130940
49,5,23,Ticks_Phase_5,24,5,42,127,443265552
49,5,23,Ticks_Phase_5,25,1,48,51,443663136
49,5,23,Ticks_Phase_5,26,5,42,127,443765068
49,5,23,Ticks_Phase_5,27,1,48,51,444106424
49,5,23,Ticks_Phase_5,28,5,42,127,444264904
49,5,23,Ticks_Phase_5,29,1,48,35,444666176
49,5,23,Ticks_Phase_5,30,5,42,127,444764964
49,5,23,Ticks_Phase_5,31,1,48,45,445151256
49,5,23,Ticks_Phase_5,32,5,42,127,445265252
49,5,23,Ticks_Phase_5,33,1,48,18,445658960
49,5,23,Ticks_Phase_5,34,5,42,127,445765092
49,5,23,Ticks_Phase_5,35,1,48,26,446157080
49,5,23,Ticks_Phase_5,36,5,42,127,446264852
49,5,23,Ticks_Phase_5,37,1,48,35,446622532
49,5,23,Ticks_Phase_5,38,5,42,127,446765292
49,5,23,Ticks_Phase_5,39,1,48,31,447168584
49,5,23,Ticks_Phase_5,40,5,42,127,447275240
49,5,23,Ticks_Phase_5,41,1,48,29,447634424
49,5,23,Ticks_Phase_5,42,5,42,127,447775000
49,5,23,Ticks_Phase_5,43,1,48,40,448090272
49,5,23,Ticks_Phase_5,44,5,42,127,448275060
49,5,23,Ticks_Phase_5,45,1,48,21,448632568
49,5,23,Ticks_Phase_5,46,5,42,127,448774452
49,5,23,Ticks_Phase_5,47,1,48,14,449141916
49,5,23,Ticks_Phase_5,48,5,42,127,449275184
49,5,23,Ticks_Phase_5,49,1,48,30,449656964
49,5,23,Ticks_Phase_5,50,5,42,127,449774948
49,5,23,Ticks_Phase_5,51,1,48,36,450195016
49,5,23,Ticks_Phase_5,52,5,42,127,450274800
49,5,23,Ticks_Phase_5,53,1,48,43,450653868
49,5,23,Ticks_Phase_5,54,5,42,127,450775372
49,5,23,Ticks_Phase_5,55,1,48,47,451147116
49,5,23,Ticks_Phase_5,56,5,42,127,451275060
49,5,23,Ticks_Phase_5,57,1,48,45,451709256
49,5,23,Ticks_Phase_5,58,5,42,127,451774984
49,5,23,Ticks_Phase_5,59,5,42,127,452265320
49,5,23,Ticks_Phase_5,60,1,48,46,452687460
49,5,23,Ticks_Phase_5,61,5,42,127,452765024
49,5,23,Ticks_Phase_5,62,1,48,38,453191560
49,5,23,Ticks_Phase_5,63,5,42,127,453265008
49,5,23,Ticks_Phase_5,64,1,48,52,453628348
49,5,23,Ticks_Phase_5,65,5,42,127,453764608
49,5,23,Ticks_Phase_5,66,1,48,38,454141660
49,5,23,Ticks_Phase_5,67,5,42,127,454265096
49,5,23,Ticks_Phase_5,68,1,48,39,454608328
49,5,23,Ticks_Phase_5,69,5,42,127,454764856
49,5,23,Ticks_Phase_5,70,1,48,45,455141488
49,5,23,Ticks_Phase_5,71,5,42,127,455264620
49,5,23,Ticks_Phase_5,72,1,48,61,455623432
49,5,23,Ticks_Phase_5,73,5,42,127,455765504
49,5,23,Ticks_Phase_5,74,1,48,52,456123576
49,5,23,Ticks_Phase_5,75,5,42,127,456265120
49,5,23,Ticks_Phase_5,76,1,48,38,456616740
49,5,23,Ticks_Phase_5,77,5,42,127,456764808
49,5,23,Ticks_Phase_5,78,1,48,18,457190568
49,5,23,Ticks_Phase_5,79,5,42,127,457264660
49,5,23,Ticks_Phase_5,80,1,48,42,457666216
49,5,23,Ticks_Phase_5,81,5,42,127,457765172
49,5,23,Ticks_Phase_5,82,1,48,41,458172264
49,5,23,Ticks_Phase_5,83,5,42,127,458265008
49,5,23,Ticks_Phase_5,84,1,48,48,458636160
49,5,23,Ticks_Phase_5,85,5,42,127,458764684
49,5,23,Ticks_Phase_5,86,1,48,45,459134704
49,5,23,Ticks_Phase_5,87,5,42,127,459265344
49,5,23,Ticks_Phase_5,88,1,48,44,459625632
49,5,23,Ticks_Phase_5,89,5,42,127,459764960
49,5,23,Ticks_Phase_5,90,1,48,56,460101268
49,5,23,Ticks_Phase_5,91,5,42,127,460264792
49,5,23,Ticks_Phase_5,92,1,48,44,460642068
49,5,23,Ticks_Phase_5,93,5,42,127,460764484
49,5,23,Ticks_Phase_5,94,1,48,64,461120116
49,5,23,Ticks_Phase_5,95,5,42,127,461274580
49,5,23,Ticks_Phase_5,96,1,48,56,461654560
49,5,23,Ticks_Phase_5,97,5,42,127,461775164
49,5,23,Ticks_Phase_5,98,1,48,61,462187492
49,5,23,Ticks_Phase_5,99,5,42,127,462274792
49,5,23,Ticks_Phase_5,100,1,48,59,462664344
49,5,23,Ticks_Phase_5,101,5,42,127,462774692
49,5,23,Ticks_Phase_5,102,1,48,45,463167700
49,5,23,Ticks_Phase_5,103,5,42,127,463275352
49,5,23,Ticks_Phase_5,104,1,48,50,463638032
49,5,23,Ticks_Phase_5,105,5,42,127,463775040
49,5,23,Ticks_Phase_5,106,1,48,38,464156288
49,5,23,Ticks_Phase_5,107,5,42,127,464274876
49,5,23,Ticks_Phase_5,108,1,48,51,464630512
49,5,23,Ticks_Phase_5,109,5,42,127,464774416
49,5,23,Ticks_Phase_5,110,1,48,53,465224488
49,5,23,Ticks_Phase_5,111,5,42,127,465275216
49,5,23,Ticks_Phase_5,112,1,48,56,465734512
49,5,23,Ticks_Phase_5,113,5,42,127,465774904
49,5,23,Ticks_Phase_5,114,1,48,48,466210452
49,5,23,Ticks_Phase_5,115,5,42,127,466274668
49,5,23,Ticks_Phase_5,116,1,48,46,466717484
49,5,23,Ticks_Phase_5,117,5,42,127,466775552
49,5,23,Ticks_Phase_5,118,1,48,54,467215428
49,5,23,Ticks_Phase_5,119,5,42,127,467274988
49,5,23,Ticks_Phase_5,120,1,48,54,467713840
49,5,23,Ticks_Phase_5,121,5,42,127,467774976
49,5,23,Ticks_Phase_5,122,1,48,44,468253072
49,5,23,Ticks_Phase_5,123,5,42,127,468274516
49,5,23,Ticks_Phase_5,124,5,42,127,468775404
49,5,23,Ticks_Phase_5,125,1,48,16,468786016
49,5,23,Ticks_Phase_5,126,1,48,52,469253648
49,5,23,Ticks_Phase_5,127,5,42,127,469294412
49,5,23,Ticks_Phase_5,128,1,48,66,469741644
49,5,23,Ticks_Phase_5,129,5,42,127,469795444
49,5,23,Ticks_Phase_5,130,1,48,22,470262000
49,5,23,Ticks_Phase_5,131,5,42,127,470294912
49,5,23,Ticks_Phase_5,132,1,48,59,470750308
49,5,23,Ticks_Phase_5,133,5,42,127,470794600
49,5,23,Ticks_Phase_5,134,1,48,55,471272696
49,5,23,Ticks_Phase_5,135,5,42,127,471295556
49,5,23,Ticks_Phase_5,136,1,48,50,471729912
49,5,23,Ticks_Phase_5,137,5,42,127,471795244
49,5,23,Ticks_Phase_5,138,1,48,60,472210128
49,5,23,Ticks_Phase_5,139,5,42,127,472294784
49,5,23,Ticks_Phase_5,140,1,48,42,472668384
49,5,23,Ticks_Phase_5,141,5,42,127,472794532
49,5,23,Ticks_Phase_5,142,1,48,48,473182532
49,5,23,Ticks_Phase_5,143,5,42,127,473295416
49,5,23,Ticks_Phase_5,144,1,48,50,473680112
49,5,23,Ticks_Phase_5,145,5,42,127,473795104
49,5,23,Ticks_Phase_5,146,1,48,51,474139508
49,5,23,Ticks_Phase_5,147,5,42,127,474294568
49,5,23,Ticks_Phase_5,148,1,48,43,474685032
49,5,23,Ticks_Phase_5,149,5,42,127,474795380
49,5,23,Ticks_Phase_5,150,1,48,37,475180820
49,5,23,Ticks_Phase_5,151,5,42,127,475295064
49,5,23,Ticks_Phase_5,152,1,48,46,475580380
49,5,23,Ticks_Phase_5,153,5,42,127,475794756
49,5,23,Ticks_Phase_5,154,1,48,47,476117072
49,5,23,Ticks_Phase_5,155,5,42,127,476294516
49,5,23,Ticks_Phase_5,156,1,48,41,476572804
49,5,23,Ticks_Phase_5,157,5,42,127,476795228
49,5,23,Ticks_Phase_5,158,1,48,41,477117416
49,5,23,Ticks_Phase_5,159,5,42,127,477295140
49,5,23,Ticks_Phase_5,160,1,48,49,477587976
49,5,23,Ticks_Phase_5,161,5,42,127,477775208
49,5,23,Ticks_Phase_5,162,1,48,51,478096580
49,5,23,Ticks_Phase_5,163,5,42,127,478274900
49,5,23,Ticks_Phase_5,164,1,48,27,478635952
49,5,23,Ticks_Phase_5,165,5,42,127,478774736
49,5,23,Ticks_Phase_5,166,1,48,29,479151592
49,5,23,Ticks_Phase_5,167,5,42,127,479275324
49,5,23,Ticks_Phase_5,168,1,48,54,479608344
49,5,23,Ticks_Phase_5,169,5,42,127,479775084
49,5,23,Ticks_Phase_5,170,1,48,46,480130148
49,5,23,Ticks_Phase_5,171,5,42,127,480274772
49,5,23,Ticks_Phase_5,172,1,48,51,480618276
49,5,23,Ticks_Phase_5,173,5,42,127,480774460
49,5,23,Ticks_Phase_5,174,1,48,29,481178728
49,5,23,Ticks_Phase_5,175,5,42,127,481275136
49,5,23,Ticks_Phase_5,176,1,48,59,481684184
49,5,23,Ticks_Phase_5,177,5,42,127,481775196
49,5,23,Ticks_Phase_5,178,1,48,35,482159500
49,5,23,Ticks_Phase_5,179,5,42,127,482274648
49,5,23,Ticks_Phase_5,180,1,48,41,482662944
49,5,23,Ticks_Phase_5,181,5,42,127,482775460
49,5,23,Ticks_Phase_5,182,1,48,40,483157312
49,5,23,Ticks_Phase_5,183,5,42,127,483275072
49,5,23,Ticks_Phase_5,184,1,48,47,483672432
49,5,23,Ticks_Phase_5,185,5,42,127,483774908
49,5,23,Ticks_Phase_5,186,1,48,54,484135048
49,5,23,Ticks_Phase_5,187,5,42,127,484274448
49,5,23,Ticks_Phase_5,188,1,48,42,484678692
49,5,23,Ticks_Phase_5,189,5,42,127,484776228
49,5,23,Ticks_Phase_5,190,1,48,42,485210352
49,5,23,Ticks_Phase_5,191,5,42,127,485275260
49,5,23,Ticks_Phase_5,192,1,48,54,485706520
49,5,23,Ticks_Phase_5,193,5,42,127,485724524
49,5,23,Ticks_Phase_5,194,1,48,56,486189732
49,5,23,Ticks_Phase_5,195,5,42,127,486225260
49,5,23,Ticks_Phase_5,196,5,42,127,486724956
49,5,23,Ticks_Phase_5,197,1,48,48,486731068
49,5,23,Ticks_Phase_5,198,1,48,54,487179672
49,5,23,Ticks_Phase_5,199,5,42,127,487224860
49,5,23,Ticks_Phase_5,200,1,48,38,487696516
49,5,23,Ticks_Phase_5,201,5,42,127,487725296
49,5,23,Ticks_Phase_5,202,1,48,54,488177552
49,5,23,Ticks_Phase_5,203,5,42,127,488235320
49,5,23,Ticks_Phase_5,204,1,48,60,488643396
49,5,23,Ticks_Phase_5,205,5,42,127,488735072
49,5,23,Ticks_Phase_5,206,1,48,41,489136792
49,5,23,Ticks_Phase_5,207,5,42,127,489235956
49,5,23,Ticks_Phase_5,208,1,48,36,489650928
49,5,23,Ticks_Phase_5,209,5,42,127,489734388
49,5,23,Ticks_Phase_5,210,1,48,40,490110924
49,5,23,Ticks_Phase_5,211,5,42,127,490235184
49,5,23,Ticks_Phase_5,212,1,48,56,490620396
49,5,23,Ticks_Phase_5,213,5,42,127,490735020
49,5,23,Ticks_Phase_5,214,1,48,67,491160100
49,5,23,Ticks_Phase_5,215,5,42,127,491234944
49,5,23,Ticks_Phase_5,216,1,48,49,491583836
49,5,23,Ticks_Phase_5,217,5,42,127,491735440
49,5,23,Ticks_Phase_5,218,1,48,51,492126200
49,5,23,Ticks_Phase_5,219,5,42,127,492234980
49,5,23,Ticks_Phase_5,220,1,48,58,492540812
49,5,23,Ticks_Phase_5,221,5,42,127,492734892
49,5,23,Ticks_Phase_5,222,1,48,51,493080340
49,5,23,Ticks_Phase_5,223,5,42,127,493234656
49,5,23,Ticks_Phase_5,224,1,48,23,493536000
49,5,23,Ticks_Phase_5,225,5,42,127,493735244
49,5,23,Ticks_Phase_5,226,1,48,35,494080320
49,5,23,Ticks_Phase_5,227,5,42,127,494285108
49,5,23,Ticks_Phase_5,228,1,48,59,494574544
49,5,23,Ticks_Phase_5,229,5,42,127,494784944
49,5,23,Ticks_Phase_5,230,1,48,42,495124488
49,5,23,Ticks_Phase_5,231,5,42,127,495284928
49,5,23,Ticks_Phase_5,232,1,48,58,495596912
49,5,23,Ticks_Phase_5,233,5,42,127,495785292
49,5,23,Ticks_Phase_5,234,1,48,53,496103792
49,5,23,Ticks_Phase_5,235,5,42,127,496284980
49,5,23,Ticks_Phase_5,236,1,48,63,496608940
49,5,23,Ticks_Phase_5,237,5,42,127,496784744
49,5,23,Ticks_Phase_5,238,1,48,49,497145772
49,5,23,Ticks_Phase_5,239,5,42,127,497284580
49,5,23,Ticks_Phase_5,240,1,48,54,497630556
49,5,23,Ticks_Phase_5,241,5,42,127,497785140
49,5,23,Ticks_Phase_5,242,1,48,65,498151884
49,5,23,Ticks_Phase_5,243,5,42,127,498285052
49,5,23,Ticks_Phase_5,244,1,48,59,498701376
49,5,23,Ticks_Phase_5,245,5,42,127,498784832
49,5,23,Ticks_Phase_5,246,1,48,48,499188556
49,5,23,Ticks_Phase_5,247,5,42,127,499285340
49,5,23,Ticks_Phase_5,248,1,48,53,499761852
49,5,23,Ticks_Phase_5,249,5,42,127,499785032
49,5,23,Ticks_Phase_5,250,1,48,42,500264248
49,5,23,Ticks_Phase_5,251,5,42,127,500284716
49,5,23,Ticks_Phase_5,252,1,48,48,500773076
49,5,23,Ticks_Phase_5,253,5,42,127,500784628
49,5,23,Ticks_Phase_5,254,1,48,50,501236212
49,5,23,Ticks_Phase_5,255,5,42,127,501285216
49,5,23,Ticks_Phase_5,256,1,48,50,501753572
49,5,23,Ticks_Phase_5,257,5,42,127,501784904
49,5,23,Ticks_Phase_5,258,1,48,54,502239924
49,5,23,Ticks_Phase_5,259,5,42,127,502284816
49,5,23,Ticks_Phase_5,260,1,48,48,502732272
49,5,23,Ticks_Phase_5,261,5,42,127,502884692
49,5,23,Ticks_Phase_5,262,1,48,48,503253168
49,5,23,Ticks_Phase_5,263,5,42,127,503384528
49,5,23,Ticks_Phase_5,264,1,48,28,503819868
49,5,23,Ticks_Phase_5,265,5,42,127,503885052
49,5,23,Ticks_Phase_5,266,1,48,42,504286156
49,5,23,Ticks_Phase_5,267,5,42,127,504384876
49,5,23,Ticks_Phase_5,268,1,48,17,504822684
49,5,23,Ticks_Phase_5,269,5,42,127,504884504
49,5,23,Ticks_Phase_5,270,1,48,34,505339304
49,5,23,Ticks_Phase_5,271,5,42,127,505385464
49,5,23,Ticks_Phase_5,272,5,42,127,505885156
49,5,23,Ticks_Phase_5,273,1,48,20,505946544
49,5,23,Ticks_Phase_5,274,5,42,127,506384844
49,5,23,Ticks_Phase_5,275,1,48,21,506386032
49,5,23,Ticks_Phase_5,276,1,48,50,506872580
49,5,23,Ticks_Phase_5,277,5,42,127,506884452
49,5,23,Ticks_Phase_5,278,1,48,56,507378192
49,5,23,Ticks_Phase_5,279,5,42,127,507385484
49,5,23,Ticks_Phase_5,280,1,48,54,507859904
49,5,23,Ticks_Phase_5,281,5,42,127,507884800
49,5,23,Ticks_Phase_5,282,1,48,48,508303512
49,5,23,Ticks_Phase_5,283,5,42,127,508384488
49,5,23,Ticks_Phase_5,284,1,48,53,508837564
49,5,23,Ticks_Phase_5,285,5,42,127,508885372
49,5,23,Ticks_Phase_5,286,1,48,52,509326244
49,5,23,Ticks_Phase_5,287,5,42,127,509385208
49,5,23,Ticks_Phase_5,288,1,48,44,509801864
49,5,23,Ticks_Phase_5,289,5,42,127,509884748
49,5,23,Ticks_Phase_5,290,1,48,55,510269508
49,5,23,Ticks_Phase_5,291,5,42,127,510384572
49,5,23,Ticks_Phase_5,292,1,48,55,510744032
49,5,23,Ticks_Phase_5,293,1,48,35,510801888
49,5,23,Ticks_Phase_5,294,5,42,127,510885672
49,5,23,Ticks_Phase_5,295,1,48,60,511244220
49,5,23,Ticks_Phase_5,296,1,48,41,511298568
49,5,23,Ticks_Phase_5,297,5,42,127,511384892
49,5,23,Ticks_Phase_5,298,1,48,55,511766352
49,5,23,Ticks_Phase_5,299,5,42,127,511884788
49,5,23,Ticks_Phase_5,300,1,48,54,512221628
49,5,23,Ticks_Phase_5,301,5,42,127,512285020
49,5,23,Ticks_Phase_5,302,1,48,64,512700348
49,5,23,Ticks_Phase_5,303,5,42,127,512784708
49,5,23,Ticks_Phase_5,304,1,48,60,513173312
49,5,23,Ticks_Phase_5,305,5,42,127,513284456
49,5,23,Ticks_Phase_5,306,1,48,70,513669696
49,5,23,Ticks_Phase_5,307,5,42,127,513785188
49,5,23,Ticks_Phase_5,308,1,48,53,514170632
49,5,23,Ticks_Phase_5,309,5,42,127,514284804
49,5,23,Ticks_Phase_5,310,1,48,58,514634604
49,5,23,Ticks_Phase_5,311,5,42,127,514784644
49,5,23,Ticks_Phase_5,312,1,48,87,515123060
49,5,23,Ticks_Phase_5,313,5,42,127,515285448
49,5,23,Ticks_Phase_5,314,1,48,110,515740788
49,5,23,Ticks_Phase_5,315,5,42,127,515785228
49,5,23,Ticks_Phase_5,316,5,42,127,516284848
49,5,23,Ticks_Phase_5,317,1,48,72,516402704
49,5,23,Ticks_Phase_5,318,5,42,127,516784612
49,5,23,Ticks_Phase_5,319,1,48,70,516810796
49,5,23,Ticks_Phase_5,320,1,48,51,517280216
49,5,23,Ticks_Phase_5,321,5,42,127,517285412
49,5,23,Ticks_Phase_5,322,1,48,51,517724616
49,5,23,Ticks_Phase_5,323,5,42,127,517784952
49,5,23,Ticks_Phase_5,324,1,48,49,518198540
49,5,23,Ticks_Phase_5,325,5,42,127,518284640
49,5,23,Ticks_Phase_5,326,1,48,46,518679952
49,5,23,Ticks_Phase_5,327,5,42,127,518785360
49,5,23,Ticks_Phase_5,328,1,48,51,519163692
49,5,23,Ticks_Phase_5,329,5,42,127,519285244
49,5,23,Ticks_Phase_5,330,5,42,127,519784956
49,5,23,Ticks_Phase_5,331,1,48,78,519989244
49,5,23,Ticks_Phase_5,332,5,42,127,520284496
49,5,23,Ticks_Phase_5,333,1,48,67,520335496
49,5,23,Ticks_Phase_5,334,1,48,54,520743488
49,5,23,Ticks_Phase_5,335,5,42,127,520785448
49,5,23,Ticks_Phase_5,336,1,48,55,521185364
49,5,23,Ticks_Phase_5,337,5,42,127,521285196
49,5,23,Ticks_Phase_5,338,1,48,47,521637196
49,5,23,Ticks_Phase_5,339,5,42,127,521784660
49,5,23,Ticks_Phase_5,0,9999,9999,9999,437262448
49,5,23,Ticks_Phase_5,1,9999,9999,9999,437762136
49,5,23,Ticks_Phase_5,2,9999,9999,9999,438262872
49,5,23,Ticks_Phase_5,3,9999,9999,9999,438762560
49,5,23,Ticks_Phase_5,4,9999,9999,9999,439262324
49,5,23,Ticks_Phase_5,5,9999,9999,9999,439763056
49,5,23,Ticks_Phase_5,6,9999,9999,9999,440262744
49,5,23,Ticks_Phase_5,7,9999,9999,9999,440762432
49,5,23,Ticks_Phase_5,8,9999,9999,9999,441262196
49,5,23,Ticks_Phase_5,9,9999,9999,9999,441762928
49,5,23,Ticks_Phase_5,10,9999,9999,9999,442262616
49,5,23,Ticks_Phase_5,11,9999,9999,9999,442762308
49,5,23,Ticks_Phase_5,12,9999,9999,9999,443263092
49,5,23,Ticks_Phase_5,13,9999,9999,9999,443762780
49,5,23,Ticks_Phase_5,14,9999,9999,9999,444262468
49,5,23,Ticks_Phase_5,15,9999,9999,9999,444762232
49,5,23,Ticks_Phase_5,16,9999,9999,9999,445262964
49,5,23,Ticks_Phase_5,17,9999,9999,9999,445762656
49,5,23,Ticks_Phase_5,18,9999,9999,9999,446262344
49,5,23,Ticks_Phase_5,19,9999,9999,9999,446763080
49,5,23,Ticks_Phase_5,20,9999,9999,9999,447273024
49,5,23,Ticks_Phase_5,21,9999,9999,9999,447772788
49,5,23,Ticks_Phase_5,22,9999,9999,9999,448272476
49,5,23,Ticks_Phase_5,23,9999,9999,9999,448772164
49,5,23,Ticks_Phase_5,24,9999,9999,9999,449272900
49,5,23,Ticks_Phase_5,25,9999,9999,9999,449772660
49,5,23,Ticks_Phase_5,26,9999,9999,9999,450272364
49,5,23,Ticks_Phase_5,27,9999,9999,9999,450773084
49,5,23,Ticks_Phase_5,28,9999,9999,9999,451272772
49,5,23,Ticks_Phase_5,29,9999,9999,9999,451772476
49,5,23,Ticks_Phase_5,30,9999,9999,9999,452263032
49,5,23,Ticks_Phase_5,31,9999,9999,9999,452762736
49,5,23,Ticks_Phase_5,32,9999,9999,9999,453262424
49,5,23,Ticks_Phase_5,33,9999,9999,9999,453762172
49,5,23,Ticks_Phase_5,34,9999,9999,9999,454262880
49,5,23,Ticks_Phase_5,35,9999,9999,9999,454762572
49,5,23,Ticks_Phase_5,36,9999,9999,9999,455262332
49,5,23,Ticks_Phase_5,37,9999,9999,9999,455763068
49,5,23,Ticks_Phase_5,38,9999,9999,9999,456262756
49,5,23,Ticks_Phase_5,39,9999,9999,9999,456762448
49,5,23,Ticks_Phase_5,40,9999,9999,9999,457262152
49,5,23,Ticks_Phase_5,41,9999,9999,9999,457762884
49,5,23,Ticks_Phase_5,42,9999,9999,9999,458262648
49,5,23,Ticks_Phase_5,43,9999,9999,9999,458762324
49,5,23,Ticks_Phase_5,44,9999,9999,9999,459263056
49,5,23,Ticks_Phase_5,45,9999,9999,9999,459762744
49,5,23,Ticks_Phase_5,46,9999,9999,9999,460262508
49,5,23,Ticks_Phase_5,47,9999,9999,9999,460762196
49,5,23,Ticks_Phase_5,48,9999,9999,9999,461272144
49,5,23,Ticks_Phase_5,49,9999,9999,9999,461772880
49,5,23,Ticks_Phase_5,50,9999,9999,9999,462272580
49,5,23,Ticks_Phase_5,51,9999,9999,9999,462772328
49,5,23,Ticks_Phase_5,52,9999,9999,9999,463273064
49,5,23,Ticks_Phase_5,53,9999,9999,9999,463772752
49,5,23,Ticks_Phase_5,54,9999,9999,9999,464272440
49,5,23,Ticks_Phase_5,55,9999,9999,9999,464772204
49,5,23,Ticks_Phase_5,56,9999,9999,9999,465272928
49,5,23,Ticks_Phase_5,57,9999,9999,9999,465772616
49,5,23,Ticks_Phase_5,58,9999,9999,9999,466272380
49,5,23,Ticks_Phase_5,59,9999,9999,9999,466773116
49,5,23,Ticks_Phase_5,60,9999,9999,9999,467272776
49,5,23,Ticks_Phase_5,61,9999,9999,9999,467772540
49,5,23,Ticks_Phase_5,62,9999,9999,9999,468272228
49,5,23,Ticks_Phase_5,63,9999,9999,9999,468772968
49,5,23,Ticks_Phase_5,64,9999,9999,9999,469292124
49,5,23,Ticks_Phase_5,65,9999,9999,9999,469792860
49,5,23,Ticks_Phase_5,66,9999,9999,9999,470292548
49,5,23,Ticks_Phase_5,67,9999,9999,9999,470792312
49,5,23,Ticks_Phase_5,68,9999,9999,9999,471293048
49,5,23,Ticks_Phase_5,69,9999,9999,9999,471792736
49,5,23,Ticks_Phase_5,70,9999,9999,9999,472292424
49,5,23,Ticks_Phase_5,71,9999,9999,9999,472792172
49,5,23,Ticks_Phase_5,72,9999,9999,9999,473292904
49,5,23,Ticks_Phase_5,73,9999,9999,9999,473792592
49,5,23,Ticks_Phase_5,74,9999,9999,9999,474292284
49,5,23,Ticks_Phase_5,75,9999,9999,9999,474793016
49,5,23,Ticks_Phase_5,76,9999,9999,9999,475292780
49,5,23,Ticks_Phase_5,77,9999,9999,9999,475792468
49,5,23,Ticks_Phase_5,78,9999,9999,9999,476292156
49,5,23,Ticks_Phase_5,79,9999,9999,9999,476792940
49,5,23,Ticks_Phase_5,80,9999,9999,9999,477292628
49,5,23,Ticks_Phase_5,81,9999,9999,9999,477772920
49,5,23,Ticks_Phase_5,82,9999,9999,9999,478272612
49,5,23,Ticks_Phase_5,83,9999,9999,9999,478772300
49,5,23,Ticks_Phase_5,84,9999,9999,9999,479273036
49,5,23,Ticks_Phase_5,85,9999,9999,9999,479772796
49,5,23,Ticks_Phase_5,86,9999,9999,9999,480272484
49,5,23,Ticks_Phase_5,87,9999,9999,9999,480772172
49,5,23,Ticks_Phase_5,88,9999,9999,9999,481272924
49,5,23,Ticks_Phase_5,89,9999,9999,9999,481772612
49,5,23,Ticks_Phase_5,90,9999,9999,9999,482272360
49,5,23,Ticks_Phase_5,91,9999,9999,9999,482773096
49,5,23,Ticks_Phase_5,92,9999,9999,9999,483272784
49,5,23,Ticks_Phase_5,93,9999,9999,9999,483772472
49,5,23,Ticks_Phase_5,94,9999,9999,9999,484272236
49,5,23,Ticks_Phase_5,95,9999,9999,9999,484772988
49,5,23,Ticks_Phase_5,96,9999,9999,9999,485272676
49,5,23,Ticks_Phase_5,97,9999,9999,9999,485722236
49,5,23,Ticks_Phase_5,98,9999,9999,9999,486222976
49,5,23,Ticks_Phase_5,99,9999,9999,9999,486722668
49,5,23,Ticks_Phase_5,100,9999,9999,9999,487222352
49,5,23,Ticks_Phase_5,101,9999,9999,9999,487723084
49,5,23,Ticks_Phase_5,102,9999,9999,9999,488233032
49,5,23,Ticks_Phase_5,103,9999,9999,9999,488732800
49,5,23,Ticks_Phase_5,104,9999,9999,9999,489232488
49,5,23,Ticks_Phase_5,105,9999,9999,9999,489732176
49,5,23,Ticks_Phase_5,106,9999,9999,9999,490232896
49,5,23,Ticks_Phase_5,107,9999,9999,9999,490732656
49,5,23,Ticks_Phase_5,108,9999,9999,9999,491232360
49,5,23,Ticks_Phase_5,109,9999,9999,9999,491733080
49,5,23,Ticks_Phase_5,110,9999,9999,9999,492232768
49,5,23,Ticks_Phase_5,111,9999,9999,9999,492732532
49,5,23,Ticks_Phase_5,112,9999,9999,9999,493232220
49,5,23,Ticks_Phase_5,113,9999,9999,9999,493732956
49,5,23,Ticks_Phase_5,114,9999,9999,9999,494282820
49,5,23,Ticks_Phase_5,115,9999,9999,9999,494782584
49,5,23,Ticks_Phase_5,116,9999,9999,9999,495282268
49,5,23,Ticks_Phase_5,117,9999,9999,9999,495783004
49,5,23,Ticks_Phase_5,118,9999,9999,9999,496282692
49,5,23,Ticks_Phase_5,119,9999,9999,9999,496782456
49,5,23,Ticks_Phase_5,120,9999,9999,9999,497282144
49,5,23,Ticks_Phase_5,121,9999,9999,9999,497782852
49,5,23,Ticks_Phase_5,122,9999,9999,9999,498282616
49,5,23,Ticks_Phase_5,123,9999,9999,9999,498782320
49,5,23,Ticks_Phase_5,124,9999,9999,9999,499283056
49,5,23,Ticks_Phase_5,125,9999,9999,9999,499782744
49,5,23,Ticks_Phase_5,126,9999,9999,9999,500282432
49,5,23,Ticks_Phase_5,127,9999,9999,9999,500782192
49,5,23,Ticks_Phase_5,128,9999,9999,9999,501282928
49,5,23,Ticks_Phase_5,129,9999,9999,9999,501782616
49,5,23,Ticks_Phase_5,130,9999,9999,9999,502282304
49,5,23,Ticks_Phase_5,131,9999,9999,9999,502882404
49,5,23,Ticks_Phase_5,132,9999,9999,9999,503382092
49,5,23,Ticks_Phase_5,133,9999,9999,9999,503882840
49,5,23,Ticks_Phase_5,134,9999,9999,9999,504382588
49,5,23,Ticks_Phase_5,135,9999,9999,9999,504882292
49,5,23,Ticks_Phase_5,136,9999,9999,9999,505383028
49,5,23,Ticks_Phase_5,137,9999,9999,9999,505882720
49,5,23,Ticks_Phase_5,138,9999,9999,9999,506382408
49,5,23,Ticks_Phase_5,139,9999,9999,9999,506882168
49,5,23,Ticks_Phase_5,140,9999,9999,9999,507382900
49,5,23,Ticks_Phase_5,141,9999,9999,9999,507882588
49,5,23,Ticks_Phase_5,142,9999,9999,9999,508382276
49,5,23,Ticks_Phase_5,143,9999,9999,9999,508883012
49,5,23,Ticks_Phase_5,144,9999,9999,9999,509382772
49,5,23,Ticks_Phase_5,145,9999,9999,9999,509882464
49,5,23,Ticks_Phase_5,146,9999,9999,9999,510382136
49,5,23,Ticks_Phase_5,147,9999,9999,9999,510882936
49,5,23,Ticks_Phase_5,148,9999,9999,9999,511382604
49,5,23,Ticks_Phase_5,149,9999,9999,9999,511882352
49,5,23,Ticks_Phase_5,150,9999,9999,9999,512282732
49,5,23,Ticks_Phase_5,151,9999,9999,9999,512782420
49,5,23,Ticks_Phase_5,152,9999,9999,9999,513282168
49,5,23,Ticks_Phase_5,153,9999,9999,9999,513782904
49,5,23,Ticks_Phase_5,154,9999,9999,9999,514282592
49,5,23,Ticks_Phase_5,155,9999,9999,9999,514782280
49,5,23,Ticks_Phase_5,156,9999,9999,9999,515283016
49,5,23,Ticks_Phase_5,157,9999,9999,9999,515782720
49,5,23,Ticks_Phase_5,158,9999,9999,9999,516282488
49,5,23,Ticks_Phase_5,159,9999,9999,9999,516782176
49,5,23,Ticks_Phase_5,160,9999,9999,9999,517282904
49,5,23,Ticks_Phase_5,161,9999,9999,9999,517782592
49,5,23,Ticks_Phase_5,162,9999,9999,9999,518282352
49,5,23,Ticks_Phase_5,163,9999,9999,9999,518783072
49,5,23,Ticks_Phase_5,164,9999,9999,9999,519282808
49,5,23,Ticks_Phase_5,165,9999,9999,9999,519782520
49,5,23,Ticks_Phase_5,166,9999,9999,9999,520282208
49,5,23,Ticks_Phase_5,167,9999,9999,9999,520782936
49,5,23,Ticks_Phase_5,168,9999,9999,9999,521282684
49,5,23,Ticks_Phase_5,169,9999,9999,9999,521782372
49,6,22,Ticks_Phase_8,0,5,42,127,533570888
49,6,22,Ticks_Phase_8,1,1,48,43,533947892
49,6,22,Ticks_Phase_8,2,5,42,127,534370824
49,6,22,Ticks_Phase_8,3,1,48,47,534573692
49,6,22,Ticks_Phase_8,4,5,42,127,535170488
49,6,22,Ticks_Phase_8,5,1,48,39,535212844
49,6,22,Ticks_Phase_8,6,1,48,44,535904156
49,6,22,Ticks_Phase_8,7,5,42,127,535971088
49,6,22,Ticks_Phase_8,8,1,48,41,536674288
49,6,22,Ticks_Phase_8,9,5,42,127,536770860
49,6,22,Ticks_Phase_8,10,1,48,35,537481668
49,6,22,Ticks_Phase_8,11,5,42,127,537570736
49,6,22,Ticks_Phase_8,12,1,48,46,538151720
49,6,22,Ticks_Phase_8,13,5,42,127,538370356
49,6,22,Ticks_Phase_8,14,1,48,49,539009052
49,6,22,Ticks_Phase_8,15,5,42,127,539171116
49,6,22,Ticks_Phase_8,16,1,48,49,539844848
49,6,22,Ticks_Phase_8,17,5,42,127,539970900
49,6,22,Ticks_Phase_8,18,1,48,50,540621572
49,6,22,Ticks_Phase_8,19,5,42,127,540770760
49,6,22,Ticks_Phase_8,20,1,48,50,541373952
49,6,22,Ticks_Phase_8,21,5,42,127,541570648
49,6,22,Ticks_Phase_8,22,1,48,48,542253716
49,6,22,Ticks_Phase_8,23,5,42,127,542371256
49,6,22,Ticks_Phase_8,24,1,48,55,543064884
49,6,22,Ticks_Phase_8,25,5,42,127,543170896
49,6,22,Ticks_Phase_8,26,1,48,64,543812032
49,6,22,Ticks_Phase_8,27,5,42,127,543970680
49,6,22,Ticks_Phase_8,28,1,48,62,544572348
49,6,22,Ticks_Phase_8,29,5,42,127,544770688
49,6,22,Ticks_Phase_8,30,1,48,51,545350800
49,6,22,Ticks_Phase_8,31,5,42,127,545571076
49,6,22,Ticks_Phase_8,32,1,48,58,546094484
49,6,22,Ticks_Phase_8,33,5,42,127,546371012
49,6,22,Ticks_Phase_8,34,1,48,76,546906776
49,6,22,Ticks_Phase_8,35,5,42,127,547170648
49,6,22,Ticks_Phase_8,36,1,48,83,547771968
49,6,22,Ticks_Phase_8,37,5,42,127,547970460
49,6,22,Ticks_Phase_8,38,1,48,69,548512368
49,6,22,Ticks_Phase_8,39,5,42,127,548771292
49,6,22,Ticks_Phase_8,40,1,48,51,549304888
49,6,22,Ticks_Phase_8,41,5,42,127,549570856
49,6,22,Ticks_Phase_8,42,1,48,72,550015852
49,6,22,Ticks_Phase_8,43,5,42,127,550370640
49,6,22,Ticks_Phase_8,44,1,48,57,550797520
49,6,22,Ticks_Phase_8,45,5,42,127,551170500
49,6,22,Ticks_Phase_8,46,1,48,49,551554544
49,6,22,Ticks_Phase_8,47,5,42,127,551971112
49,6,22,Ticks_Phase_8,48,1,48,64,552280772
49,6,22,Ticks_Phase_8,49,5,42,127,552770972
49,6,22,Ticks_Phase_8,50,1,48,48,553082424
49,6,22,Ticks_Phase_8,51,5,42,127,553570656
49,6,22,Ticks_Phase_8,52,1,48,63,553869412
49,6,22,Ticks_Phase_8,53,5,42,127,554370392
49,6,22,Ticks_Phase_8,54,1,48,52,554707676
49,6,22,Ticks_Phase_8,55,5,42,127,555171376
49,6,22,Ticks_Phase_8,56,1,48,45,555447252
49,6,22,Ticks_Phase_8,57,5,42,127,555970864
49,6,22,Ticks_Phase_8,58,1,48,64,556192228
49,6,22,Ticks_Phase_8,59,5,42,127,556770800
49,6,22,Ticks_Phase_8,60,1,48,51,557066528
49,6,22,Ticks_Phase_8,61,5,42,127,557551040
49,6,22,Ticks_Phase_8,62,1,48,67,557624332
49,6,22,Ticks_Phase_8,63,1,48,60,558238080
49,6,22,Ticks_Phase_8,64,5,42,127,558350656
49,6,22,Ticks_Phase_8,65,1,48,57,559054868
49,6,22,Ticks_Phase_8,66,5,42,127,559150368
49,6,22,Ticks_Phase_8,67,1,48,49,559876744
49,6,22,Ticks_Phase_8,68,5,42,127,559951364
49,6,22,Ticks_Phase_8,69,1,48,46,560658796
49,6,22,Ticks_Phase_8,70,5,42,127,560750856
49,6,22,Ticks_Phase_8,71,1,48,67,561399868
49,6,22,Ticks_Phase_8,72,5,42,127,561550800
49,6,22,Ticks_Phase_8,73,1,48,60,562258652
49,6,22,Ticks_Phase_8,74,5,42,127,562350380
49,6,22,Ticks_Phase_8,75,1,48,65,563058440
49,6,22,Ticks_Phase_8,76,5,42,127,563151360
49,6,22,Ticks_Phase_8,77,1,48,70,563864024
49,6,22,Ticks_Phase_8,78,5,42,127,563951148
49,6,22,Ticks_Phase_8,79,1,48,65,564582760
49,6,22,Ticks_Phase_8,80,5,42,127,564750620
49,6,22,Ticks_Phase_8,81,1,48,63,565430576
49,6,22,Ticks_Phase_8,82,5,42,127,565550404
49,6,22,Ticks_Phase_8,83,1,48,57,566190376
49,6,22,Ticks_Phase_8,84,5,42,127,566351168
49,6,22,Ticks_Phase_8,85,1,48,58,566904908
49,6,22,Ticks_Phase_8,86,5,42,127,567151176
49,6,22,Ticks_Phase_8,87,1,48,64,567686068
49,6,22,Ticks_Phase_8,88,5,42,127,567950616
49,6,22,Ticks_Phase_8,89,1,48,54,568508092
49,6,22,Ticks_Phase_8,90,5,42,127,568750328
49,6,22,Ticks_Phase_8,91,1,48,40,569367868
49,6,22,Ticks_Phase_8,92,5,42,127,569551236
49,6,22,Ticks_Phase_8,93,1,48,54,570137100
49,6,22,Ticks_Phase_8,94,5,42,127,570351292
49,6,22,Ticks_Phase_8,95,1,48,57,570966740
49,6,22,Ticks_Phase_8,96,5,42,127,571150636
49,6,22,Ticks_Phase_8,97,1,48,56,571796204
49,6,22,Ticks_Phase_8,98,5,42,127,571971160
49,6,22,Ticks_Phase_8,99,1,48,60,572602812
49,6,22,Ticks_Phase_8,100,5,42,127,572770800
49,6,22,Ticks_Phase_8,101,1,48,51,573452404
49,6,22,Ticks_Phase_8,102,5,42,127,573570460
49,6,22,Ticks_Phase_8,103,1,48,51,574289556
49,6,22,Ticks_Phase_8,104,5,42,127,574371308
49,6,22,Ticks_Phase_8,105,1,48,65,574933124
49,6,22,Ticks_Phase_8,106,5,42,127,575170856
49,6,22,Ticks_Phase_8,107,1,48,56,575722052
49,6,22,Ticks_Phase_8,108,5,42,127,575970864
49,6,22,Ticks_Phase_8,109,1,48,52,576508052
49,6,22,Ticks_Phase_8,110,5,42,127,576770356
49,6,22,Ticks_Phase_8,111,1,48,49,577271748
49,6,22,Ticks_Phase_8,112,5,42,127,577571188
49,6,22,Ticks_Phase_8,113,1,48,62,578011328
49,6,22,Ticks_Phase_8,114,5,42,127,578370900
49,6,22,Ticks_Phase_8,115,1,48,65,578732852
49,6,22,Ticks_Phase_8,116,5,42,127,579170984
49,6,22,Ticks_Phase_8,117,1,48,55,579555628
49,6,22,Ticks_Phase_8,118,5,42,127,579970348
49,6,22,Ticks_Phase_8,119,1,48,59,580366796
49,6,22,Ticks_Phase_8,120,5,42,127,580771252
49,6,22,Ticks_Phase_8,121,1,48,56,581154452
49,6,22,Ticks_Phase_8,122,5,42,127,581570892
49,6,22,Ticks_Phase_8,123,1,48,77,581925328
49,6,22,Ticks_Phase_8,124,5,42,127,582370976
49,6,22,Ticks_Phase_8,125,1,48,65,582708112
49,6,22,Ticks_Phase_8,126,5,42,127,583170392
49,6,22,Ticks_Phase_8,127,1,48,58,583490836
49,6,22,Ticks_Phase_8,128,5,42,127,583971076
49,6,22,Ticks_Phase_8,129,1,48,57,584235644
49,6,22,Ticks_Phase_8,130,5,42,127,584810924
49,6,22,Ticks_Phase_8,131,1,48,63,584920936
49,6,22,Ticks_Phase_8,132,5,42,127,585610664
49,6,22,Ticks_Phase_8,133,1,48,47,585808112
49,6,22,Ticks_Phase_8,134,5,42,127,586411348
49,6,22,Ticks_Phase_8,135,1,48,57,586481720
49,6,22,Ticks_Phase_8,136,1,48,48,587110128
49,6,22,Ticks_Phase_8,137,5,42,127,587211188
49,6,22,Ticks_Phase_8,138,1,48,59,587960260
49,6,22,Ticks_Phase_8,139,5,42,127,588010840
49,6,22,Ticks_Phase_8,140,1,48,56,588738788
49,6,22,Ticks_Phase_8,141,5,42,127,588810700
49,6,22,Ticks_Phase_8,142,1,48,52,589442188
49,6,22,Ticks_Phase_8,143,5,42,127,589611516
49,6,22,Ticks_Phase_8,144,1,48,53,590142196
49,6,22,Ticks_Phase_8,145,5,42,127,590411228
49,6,22,Ticks_Phase_8,146,1,48,43,590959060
49,6,22,Ticks_Phase_8,147,5,42,127,591210792
49,6,22,Ticks_Phase_8,148,1,48,38,591683056
49,6,22,Ticks_Phase_8,149,5,42,127,592010676
49,6,22,Ticks_Phase_8,150,1,48,24,592400544
49,6,22,Ticks_Phase_8,151,5,42,127,592811584
49,6,22,Ticks_Phase_8,152,1,48,42,593191196
49,6,22,Ticks_Phase_8,153,5,42,127,593611072
49,6,22,Ticks_Phase_8,154,1,48,44,593931368
49,6,22,Ticks_Phase_8,155,5,42,127,594410932
49,6,22,Ticks_Phase_8,156,1,48,49,594725156
49,6,22,Ticks_Phase_8,157,5,42,127,595210568
49,6,22,Ticks_Phase_8,158,1,48,39,595543440
49,6,22,Ticks_Phase_8,159,5,42,127,596011700
49,6,22,Ticks_Phase_8,160,1,48,25,596555256
49,6,22,Ticks_Phase_8,161,5,42,127,596811116
49,6,22,Ticks_Phase_8,162,1,48,40,597113984
49,6,22,Ticks_Phase_8,163,1,48,29,597557764
49,6,22,Ticks_Phase_8,164,5,42,127,597610748
49,6,22,Ticks_Phase_8,165,1,48,36,597976576
49,6,22,Ticks_Phase_8,166,5,42,127,598370604
49,6,22,Ticks_Phase_8,167,1,48,20,598517672
49,6,22,Ticks_Phase_8,168,1,48,43,599128944
49,6,22,Ticks_Phase_8,169,5,42,127,599170484
49,6,22,Ticks_Phase_8,170,1,48,48,599845372
49,6,22,Ticks_Phase_8,171,5,42,127,599971300
49,6,22,Ticks_Phase_8,172,1,48,47,600473292
49,6,22,Ticks_Phase_8,173,5,42,127,600770788
49,6,22,Ticks_Phase_8,174,1,48,42,601419340
49,6,22,Ticks_Phase_8,175,5,42,127,601570648
49,6,22,Ticks_Phase_8,176,1,48,46,602187292
49,6,22,Ticks_Phase_8,177,5,42,127,602370436
49,6,22,Ticks_Phase_8,178,1,48,46,603001040
49,6,22,Ticks_Phase_8,179,5,42,127,603171268
49,6,22,Ticks_Phase_8,180,1,48,42,603737660
49,6,22,Ticks_Phase_8,181,5,42,127,603970980
49,6,22,Ticks_Phase_8,182,1,48,48,604451556
49,6,22,Ticks_Phase_8,183,5,42,127,604770616
49,6,22,Ticks_Phase_8,184,1,48,47,605200272
49,6,22,Ticks_Phase_8,185,5,42,127,605570428
49,6,22,Ticks_Phase_8,186,1,48,41,606010240
49,6,22,Ticks_Phase_8,187,5,42,127,606371336
49,6,22,Ticks_Phase_8,188,1,48,45,606973380
49,6,22,Ticks_Phase_8,189,5,42,127,607171124
49,6,22,Ticks_Phase_8,190,1,48,51,607879244
49,6,22,Ticks_Phase_8,191,5,42,127,607970628
49,6,22,Ticks_Phase_8,192,1,48,48,608759080
49,6,22,Ticks_Phase_8,193,5,42,127,608770412
49,6,22,Ticks_Phase_8,194,1,48,37,609502248
49,6,22,Ticks_Phase_8,195,5,42,127,609571244
49,6,22,Ticks_Phase_8,196,1,48,42,610283084
49,6,22,Ticks_Phase_8,197,5,42,127,610371032
49,6,22,Ticks_Phase_8,198,1,48,28,611005284
49,6,22,Ticks_Phase_8,199,5,42,127,611091064
49,6,22,Ticks_Phase_8,200,1,48,15,611748604
49,6,22,Ticks_Phase_8,201,5,42,127,611890536
49,6,22,Ticks_Phase_8,202,1,48,42,612500772
49,6,22,Ticks_Phase_8,203,5,42,127,612691220
49,6,22,Ticks_Phase_8,204,1,48,49,613306088
49,6,22,Ticks_Phase_8,205,5,42,127,613491004
49,6,22,Ticks_Phase_8,206,1,48,40,614042976
49,6,22,Ticks_Phase_8,207,5,42,127,614291040
49,6,22,Ticks_Phase_8,208,1,48,47,614743956
49,6,22,Ticks_Phase_8,209,5,42,127,615090752
49,6,22,Ticks_Phase_8,210,1,48,51,615505544
49,6,22,Ticks_Phase_8,211,5,42,127,615891284
49,6,22,Ticks_Phase_8,212,1,48,56,616265492
49,6,22,Ticks_Phase_8,213,5,42,127,616691072
49,6,22,Ticks_Phase_8,214,1,48,50,617278280
49,6,22,Ticks_Phase_8,215,5,42,127,617490856
49,6,22,Ticks_Phase_8,216,1,48,50,618138988
49,6,22,Ticks_Phase_8,217,5,42,127,618290420
49,6,22,Ticks_Phase_8,218,1,48,55,618842588
49,6,22,Ticks_Phase_8,219,5,42,127,619091176
49,6,22,Ticks_Phase_8,220,1,48,67,619623800
49,6,22,Ticks_Phase_8,221,5,42,127,619890964
49,6,22,Ticks_Phase_8,222,1,48,54,620375804
49,6,22,Ticks_Phase_8,223,5,42,127,620690852
49,6,22,Ticks_Phase_8,224,1,48,52,621018784
49,6,22,Ticks_Phase_8,225,5,42,127,621490488
49,6,22,Ticks_Phase_8,226,1,48,56,621815788
49,6,22,Ticks_Phase_8,227,5,42,127,622291244
49,6,22,Ticks_Phase_8,228,1,48,59,622644184
49,6,22,Ticks_Phase_8,229,5,42,127,623091028
49,6,22,Ticks_Phase_8,230,1,48,44,623410504
49,6,22,Ticks_Phase_8,231,5,42,127,623890740
49,6,22,Ticks_Phase_8,232,1,48,51,624029064
49,6,22,Ticks_Phase_8,233,5,42,127,624770308
49,6,22,Ticks_Phase_8,234,1,48,24,624800388
49,6,22,Ticks_Phase_8,235,1,48,55,625384832
49,6,22,Ticks_Phase_8,236,5,42,127,625571120
49,6,22,Ticks_Phase_8,237,1,48,48,626179608
49,6,22,Ticks_Phase_8,238,5,42,127,626370832
49,6,22,Ticks_Phase_8,239,1,48,49,626883308
49,6,22,Ticks_Phase_8,240,1,48,28,626973376
49,6,22,Ticks_Phase_8,241,5,42,127,627170820
49,6,22,Ticks_Phase_8,242,1,48,50,627663452
49,6,22,Ticks_Phase_8,243,5,42,127,627970604
49,6,22,Ticks_Phase_8,244,1,48,48,628391720
49,6,22,Ticks_Phase_8,245,5,42,127,628771140
49,6,22,Ticks_Phase_8,246,1,48,61,629087536
49,6,22,Ticks_Phase_8,247,5,42,127,629570924
49,6,22,Ticks_Phase_8,248,1,48,47,629961564
49,6,22,Ticks_Phase_8,249,5,42,127,630370784
49,6,22,Ticks_Phase_8,250,1,48,52,630816916
49,6,22,Ticks_Phase_8,251,5,42,127,631170524
49,6,22,Ticks_Phase_8,252,1,48,45,631504664
49,6,22,Ticks_Phase_8,253,5,42,127,631971208
49,6,22,Ticks_Phase_8,254,1,48,43,632264016
49,6,22,Ticks_Phase_8,255,1,48,25,632370344
49,6,22,Ticks_Phase_8,256,5,42,127,632770976
49,6,22,Ticks_Phase_8,257,1,48,53,633052024
49,6,22,Ticks_Phase_8,258,5,42,127,633570612
49,6,22,Ticks_Phase_8,259,1,48,46,633677896
49,6,22,Ticks_Phase_8,260,1,48,62,634277048
49,6,22,Ticks_Phase_8,261,5,42,127,634370688
49,6,22,Ticks_Phase_8,262,1,48,45,634881732
49,6,22,Ticks_Phase_8,263,5,42,127,635171060
49,6,22,Ticks_Phase_8,264,1,48,49,635607372
49,6,22,Ticks_Phase_8,265,5,42,127,635970920
49,6,22,Ticks_Phase_8,266,1,48,48,636258252
49,6,22,Ticks_Phase_8,267,5,42,127,636770632
49,6,22,Ticks_Phase_8,268,1,48,50,636773748
49,6,22,Ticks_Phase_8,269,1,48,43,637477292
49,6,22,Ticks_Phase_8,270,5,42,127,637570660
49,6,22,Ticks_Phase_8,271,1,48,47,638304564
49,6,22,Ticks_Phase_8,272,5,42,127,638530916
49,6,22,Ticks_Phase_8,273,1,48,56,639041448
49,6,22,Ticks_Phase_8,274,5,42,127,639330700
49,6,22,Ticks_Phase_8,275,1,48,47,639780056
49,6,22,Ticks_Phase_8,276,5,42,127,640130512
49,6,22,Ticks_Phase_8,277,1,48,54,640482032
49,6,22,Ticks_Phase_8,278,5,42,127,640931268
49,6,22,Ticks_Phase_8,279,1,48,53,641207076
49,6,22,Ticks_Phase_8,280,5,42,127,641730908
49,6,22,Ticks_Phase_8,281,1,48,54,642117096
49,6,22,Ticks_Phase_8,282,5,42,127,642530692
49,6,22,Ticks_Phase_8,283,1,48,44,643091776
49,6,22,Ticks_Phase_8,284,5,42,127,643330404
49,6,22,Ticks_Phase_8,285,1,48,52,644013872
49,6,22,Ticks_Phase_8,286,5,42,127,644131312
49,6,22,Ticks_Phase_8,287,1,48,56,644833508
49,6,22,Ticks_Phase_8,288,5,42,127,644931024
49,6,22,Ticks_Phase_8,289,1,48,58,645562972
49,6,22,Ticks_Phase_8,290,5,42,127,645730660
49,6,22,Ticks_Phase_8,291,1,48,62,646445356
49,6,22,Ticks_Phase_8,292,5,42,127,646530488
49,6,22,Ticks_Phase_8,293,1,48,23,647109980
49,6,22,Ticks_Phase_8,294,5,42,127,647331156
49,6,22,Ticks_Phase_8,295,1,48,62,647887440
49,6,22,Ticks_Phase_8,296,5,42,127,648131164
49,6,22,Ticks_Phase_8,297,1,48,46,648593768
49,6,22,Ticks_Phase_8,298,5,42,127,648930728
49,6,22,Ticks_Phase_8,299,1,48,59,649468808
49,6,22,Ticks_Phase_8,300,5,42,127,649730292
49,6,22,Ticks_Phase_8,301,1,48,72,650232960
49,6,22,Ticks_Phase_8,302,5,42,127,650531272
49,6,22,Ticks_Phase_8,303,1,48,59,650982648
49,6,22,Ticks_Phase_8,304,5,42,127,651331060
49,6,22,Ticks_Phase_8,305,1,48,67,651710392
49,6,22,Ticks_Phase_8,306,5,42,127,652130548
49,6,22,Ticks_Phase_8,307,1,48,55,652423080
49,6,22,Ticks_Phase_8,308,5,42,127,652930436
49,6,22,Ticks_Phase_8,309,1,48,38,653263160
49,6,22,Ticks_Phase_8,310,5,42,127,653570464
49,6,22,Ticks_Phase_8,311,1,48,41,653987824
49,6,22,Ticks_Phase_8,312,5,42,127,654371148
49,6,22,Ticks_Phase_8,313,1,48,64,654702076
49,6,22,Ticks_Phase_8,314,5,42,127,655171008
49,6,22,Ticks_Phase_8,315,1,48,55,655463064
49,6,22,Ticks_Phase_8,316,5,42,127,655970568
49,6,22,Ticks_Phase_8,317,1,48,56,656252996
49,6,22,Ticks_Phase_8,318,5,42,127,656770456
49,6,22,Ticks_Phase_8,319,1,48,33,657039528
49,6,22,Ticks_Phase_8,320,5,42,127,657571212
49,6,22,Ticks_Phase_8,321,1,48,62,657763048
49,6,22,Ticks_Phase_8,322,5,42,127,658370924
49,6,22,Ticks_Phase_8,323,1,48,24,658468020
49,6,22,Ticks_Phase_8,324,1,48,42,659114056
49,6,22,Ticks_Phase_8,325,5,42,127,659170852
49,6,22,Ticks_Phase_8,326,1,48,66,659786884
49,6,22,Ticks_Phase_8,327,5,42,127,659970324
49,6,22,Ticks_Phase_8,328,1,48,80,660536940
49,6,22,Ticks_Phase_8,329,5,42,127,660771304
49,6,22,Ticks_Phase_8,330,1,48,73,661464808
49,6,22,Ticks_Phase_8,331,5,42,127,661570792
49,6,22,Ticks_Phase_8,332,1,48,81,662205208
49,6,22,Ticks_Phase_8,333,5,42,127,662370876
49,6,22,Ticks_Phase_8,334,1,48,70,663111488
49,6,22,Ticks_Phase_8,335,5,42,127,663170480
49,6,22,Ticks_Phase_8,336,1,48,17,663919440
49,6,22,Ticks_Phase_8,337,5,42,127,663971160
49,6,22,Ticks_Phase_8,338,1,48,74,664690540
49,6,22,Ticks_Phase_8,339,5,42,127,664771024
49,6,22,Ticks_Phase_8,340,1,48,65,665477912
49,6,22,Ticks_Phase_8,341,5,42,127,665570808
49,6,22,Ticks_Phase_8,342,1,48,59,666206684
49,6,22,Ticks_Phase_8,343,5,42,127,666370356
49,6,22,Ticks_Phase_8,344,1,48,67,666943864
49,6,22,Ticks_Phase_8,345,5,42,127,667171260
49,6,22,Ticks_Phase_8,346,1,48,56,667685164
49,6,22,Ticks_Phase_8,347,5,42,127,667971048
49,6,22,Ticks_Phase_8,348,1,48,58,668452228
49,6,22,Ticks_Phase_8,349,5,42,127,668770908
49,6,22,Ticks_Phase_8,0,9999,9999,9999,533568604
49,6,22,Ticks_Phase_8,1,9999,9999,9999,534368316
49,6,22,Ticks_Phase_8,2,9999,9999,9999,535168124
49,6,22,Ticks_Phase_8,3,9999,9999,9999,535968876
49,6,22,Ticks_Phase_8,4,9999,9999,9999,536768588
49,6,22,Ticks_Phase_8,5,9999,9999,9999,537568376
49,6,22,Ticks_Phase_8,6,9999,9999,9999,538368072
49,6,22,Ticks_Phase_8,7,9999,9999,9999,539168828
49,6,22,Ticks_Phase_8,8,9999,9999,9999,539968612
49,6,22,Ticks_Phase_8,9,9999,9999,9999,540768324
49,6,22,Ticks_Phase_8,10,9999,9999,9999,541568064
49,6,22,Ticks_Phase_8,11,9999,9999,9999,542368896
49,6,22,Ticks_Phase_8,12,9999,9999,9999,543168608
49,6,22,Ticks_Phase_8,13,9999,9999,9999,543968320
49,6,22,Ticks_Phase_8,14,9999,9999,9999,544768104
49,6,22,Ticks_Phase_8,15,9999,9999,9999,545568864
49,6,22,Ticks_Phase_8,16,9999,9999,9999,546368576
49,6,22,Ticks_Phase_8,17,9999,9999,9999,547168360
49,6,22,Ticks_Phase_8,18,9999,9999,9999,547968096
49,6,22,Ticks_Phase_8,19,9999,9999,9999,548768856
49,6,22,Ticks_Phase_8,20,9999,9999,9999,549568568
49,6,22,Ticks_Phase_8,21,9999,9999,9999,550368356
49,6,22,Ticks_Phase_8,22,9999,9999,9999,551168068
49,6,22,Ticks_Phase_8,23,9999,9999,9999,551968824
49,6,22,Ticks_Phase_8,24,9999,9999,9999,552768608
49,6,22,Ticks_Phase_8,25,9999,9999,9999,553568368
49,6,22,Ticks_Phase_8,26,9999,9999,9999,554368104
49,6,22,Ticks_Phase_8,27,9999,9999,9999,555168864
49,6,22,Ticks_Phase_8,28,9999,9999,9999,555968576
49,6,22,Ticks_Phase_8,29,9999,9999,9999,556768364
49,6,22,Ticks_Phase_8,30,9999,9999,9999,557548604
49,6,22,Ticks_Phase_8,31,9999,9999,9999,558348368
49,6,22,Ticks_Phase_8,32,9999,9999,9999,559148096
49,6,22,Ticks_Phase_8,33,9999,9999,9999,559948856
49,6,22,Ticks_Phase_8,34,9999,9999,9999,560748644
49,6,22,Ticks_Phase_8,35,9999,9999,9999,561548364
49,6,22,Ticks_Phase_8,36,9999,9999,9999,562348092
49,6,22,Ticks_Phase_8,37,9999,9999,9999,563148924
49,6,22,Ticks_Phase_8,38,9999,9999,9999,563948636
49,6,22,Ticks_Phase_8,39,9999,9999,9999,564748408
49,6,22,Ticks_Phase_8,40,9999,9999,9999,565548120
49,6,22,Ticks_Phase_8,41,9999,9999,9999,566348880
49,6,22,Ticks_Phase_8,42,9999,9999,9999,567148668
49,6,22,Ticks_Phase_8,43,9999,9999,9999,567948404
49,6,22,Ticks_Phase_8,44,9999,9999,9999,568748116
49,6,22,Ticks_Phase_8,45,9999,9999,9999,569548876
49,6,22,Ticks_Phase_8,46,9999,9999,9999,570348636
49,6,22,Ticks_Phase_8,47,9999,9999,9999,571148348
49,6,22,Ticks_Phase_8,48,9999,9999,9999,571968576
49,6,22,Ticks_Phase_8,49,9999,9999,9999,572768364
49,6,22,Ticks_Phase_8,50,9999,9999,9999,573568100
49,6,22,Ticks_Phase_8,51,9999,9999,9999,574368872
49,6,22,Ticks_Phase_8,52,9999,9999,9999,575168572
49,6,22,Ticks_Phase_8,53,9999,9999,9999,575968356
49,6,22,Ticks_Phase_8,54,9999,9999,9999,576768068
49,6,22,Ticks_Phase_8,55,9999,9999,9999,577568824
49,6,22,Ticks_Phase_8,56,9999,9999,9999,578368612
49,6,22,Ticks_Phase_8,57,9999,9999,9999,579168324
49,6,22,Ticks_Phase_8,58,9999,9999,9999,579968060
49,6,22,Ticks_Phase_8,59,9999,9999,9999,580768892
49,6,22,Ticks_Phase_8,60,9999,9999,9999,581568604
49,6,22,Ticks_Phase_8,61,9999,9999,9999,582368316
49,6,22,Ticks_Phase_8,62,9999,9999,9999,583168104
49,6,22,Ticks_Phase_8,63,9999,9999,9999,583968860
49,6,22,Ticks_Phase_8,64,9999,9999,9999,584808564
49,6,22,Ticks_Phase_8,65,9999,9999,9999,585608300
49,6,22,Ticks_Phase_8,66,9999,9999,9999,586409060
49,6,22,Ticks_Phase_8,67,9999,9999,9999,587208824
49,6,22,Ticks_Phase_8,68,9999,9999,9999,588008552
49,6,22,Ticks_Phase_8,69,9999,9999,9999,588808264
49,6,22,Ticks_Phase_8,70,9999,9999,9999,589609080
49,6,22,Ticks_Phase_8,71,9999,9999,9999,590408792
49,6,22,Ticks_Phase_8,72,9999,9999,9999,591208504
49,6,22,Ticks_Phase_8,73,9999,9999,9999,592008316
49,6,22,Ticks_Phase_8,74,9999,9999,9999,592809076
49,6,22,Ticks_Phase_8,75,9999,9999,9999,593608784
49,6,22,Ticks_Phase_8,76,9999,9999,9999,594408572
49,6,22,Ticks_Phase_8,77,9999,9999,9999,595208284
49,6,22,Ticks_Phase_8,78,9999,9999,9999,596009040
49,6,22,Ticks_Phase_8,79,9999,9999,9999,596808828
49,6,22,Ticks_Phase_8,80,9999,9999,9999,597608532
49,6,22,Ticks_Phase_8,81,9999,9999,9999,598368316
49,6,22,Ticks_Phase_8,82,9999,9999,9999,599168124
49,6,22,Ticks_Phase_8,83,9999,9999,9999,599968864
49,6,22,Ticks_Phase_8,84,9999,9999,9999,600768576
49,6,22,Ticks_Phase_8,85,9999,9999,9999,601568360
49,6,22,Ticks_Phase_8,86,9999,9999,9999,602368076
49,6,22,Ticks_Phase_8,87,9999,9999,9999,603168832
49,6,22,Ticks_Phase_8,88,9999,9999,9999,603968616
49,6,22,Ticks_Phase_8,89,9999,9999,9999,604768328
49,6,22,Ticks_Phase_8,90,9999,9999,9999,605568068
49,6,22,Ticks_Phase_8,91,9999,9999,9999,606368824
49,6,22,Ticks_Phase_8,92,9999,9999,9999,607168612
49,6,22,Ticks_Phase_8,93,9999,9999,9999,607968340
49,6,22,Ticks_Phase_8,94,9999,9999,9999,608768128
49,6,22,Ticks_Phase_8,95,9999,9999,9999,609568884
49,6,22,Ticks_Phase_8,96,9999,9999,9999,610368596
49,6,22,Ticks_Phase_8,97,9999,9999,9999,611088480
49,6,22,Ticks_Phase_8,98,9999,9999,9999,611888248
49,6,22,Ticks_Phase_8,99,9999,9999,9999,612689008
49,6,22,Ticks_Phase_8,100,9999,9999,9999,613488720
49,6,22,Ticks_Phase_8,101,9999,9999,9999,614288456
49,6,22,Ticks_Phase_8,102,9999,9999,9999,615088240
49,6,22,Ticks_Phase_8,103,9999,9999,9999,615889000
49,6,22,Ticks_Phase_8,104,9999,9999,9999,616688712
49,6,22,Ticks_Phase_8,105,9999,9999,9999,617488496
49,6,22,Ticks_Phase_8,106,9999,9999,9999,618288208
49,6,22,Ticks_Phase_8,107,9999,9999,9999,619088964
49,6,22,Ticks_Phase_8,108,9999,9999,9999,619888752
49,6,22,Ticks_Phase_8,109,9999,9999,9999,620688488
49,6,22,Ticks_Phase_8,110,9999,9999,9999,621488200
49,6,22,Ticks_Phase_8,111,9999,9999,9999,622288956
49,6,22,Ticks_Phase_8,112,9999,9999,9999,623088744
49,6,22,Ticks_Phase_8,113,9999,9999,9999,623888452
49,6,22,Ticks_Phase_8,114,9999,9999,9999,624768096
49,6,22,Ticks_Phase_8,115,9999,9999,9999,625568832
49,6,22,Ticks_Phase_8,116,9999,9999,9999,626368620
49,6,22,Ticks_Phase_8,117,9999,9999,9999,627168308
49,6,22,Ticks_Phase_8,118,9999,9999,9999,627968096
49,6,22,Ticks_Phase_8,119,9999,9999,9999,628768852
49,6,22,Ticks_Phase_8,120,9999,9999,9999,629568640
49,6,22,Ticks_Phase_8,121,9999,9999,9999,630368352
49,6,22,Ticks_Phase_8,122,9999,9999,9999,631168088
49,6,22,Ticks_Phase_8,123,9999,9999,9999,631968844
49,6,22,Ticks_Phase_8,124,9999,9999,9999,632768612
49,6,22,Ticks_Phase_8,125,9999,9999,9999,633568324
49,6,22,Ticks_Phase_8,126,9999,9999,9999,634368104
49,6,22,Ticks_Phase_8,127,9999,9999,9999,635168848
49,6,22,Ticks_Phase_8,128,9999,9999,9999,635968632
49,6,22,Ticks_Phase_8,129,9999,9999,9999,636768344
49,6,22,Ticks_Phase_8,130,9999,9999,9999,637568076
49,6,22,Ticks_Phase_8,131,9999,9999,9999,638528628
49,6,22,Ticks_Phase_8,132,9999,9999,9999,639328340
49,6,22,Ticks_Phase_8,133,9999,9999,9999,640128076
49,6,22,Ticks_Phase_8,134,9999,9999,9999,640928836
49,6,22,Ticks_Phase_8,135,9999,9999,9999,641728620
49,6,22,Ticks_Phase_8,136,9999,9999,9999,642528332
49,6,22,Ticks_Phase_8,137,9999,9999,9999,643328116
49,6,22,Ticks_Phase_8,138,9999,9999,9999,644128876
49,6,22,Ticks_Phase_8,139,9999,9999,9999,644928588
49,6,22,Ticks_Phase_8,140,9999,9999,9999,645728376
49,6,22,Ticks_Phase_8,141,9999,9999,9999,646528124
49,6,22,Ticks_Phase_8,142,9999,9999,9999,647328868
49,6,22,Ticks_Phase_8,143,9999,9999,9999,648128580
49,6,22,Ticks_Phase_8,144,9999,9999,9999,648928368
49,6,22,Ticks_Phase_8,145,9999,9999,9999,649728080
49,6,22,Ticks_Phase_8,146,9999,9999,9999,650528836
49,6,22,Ticks_Phase_8,147,9999,9999,9999,651328624
49,6,22,Ticks_Phase_8,148,9999,9999,9999,652128336
49,6,22,Ticks_Phase_8,149,9999,9999,9999,652928072
49,6,22,Ticks_Phase_8,150,9999,9999,9999,653568100
49,6,22,Ticks_Phase_8,151,9999,9999,9999,654368860
49,6,22,Ticks_Phase_8,152,9999,9999,9999,655168572
49,6,22,Ticks_Phase_8,153,9999,9999,9999,655968356
49,6,22,Ticks_Phase_8,154,9999,9999,9999,656768092
49,6,22,Ticks_Phase_8,155,9999,9999,9999,657568852
49,6,22,Ticks_Phase_8,156,9999,9999,9999,658368636
49,6,22,Ticks_Phase_8,157,9999,9999,9999,659168340
49,6,22,Ticks_Phase_8,158,9999,9999,9999,659968112
49,6,22,Ticks_Phase_8,159,9999,9999,9999,660768868
49,6,22,Ticks_Phase_8,160,9999,9999,9999,661568580
49,6,22,Ticks_Phase_8,161,9999,9999,9999,662368368
49,6,22,Ticks_Phase_8,162,9999,9999,9999,663168116
49,6,22,Ticks_Phase_8,163,9999,9999,9999,663968876
49,6,22,Ticks_Phase_8,164,9999,9999,9999,664768588
49,6,22,Ticks_Phase_8,165,9999,9999,9999,665568372
49,6,22,Ticks_Phase_8,166,9999,9999,9999,666368068
49,6,22,Ticks_Phase_8,167,9999,9999,9999,667168828
49,6,22,Ticks_Phase_8,168,9999,9999,9999,667968612
49,6,22,Ticks_Phase_8,169,9999,9999,9999,668768324
49,7,10,Ticks_ISO_T2_5,0,5,42,127,679562624
49,7,10,Ticks_ISO_T2_5,1,1,48,42,680037964
49,7,10,Ticks_ISO_T2_5,2,5,42,127,680063452
49,7,10,Ticks_ISO_T2_5,3,1,48,26,680116144
49,7,10,Ticks_ISO_T2_5,4,1,48,57,680525444
49,7,10,Ticks_ISO_T2_5,5,5,42,127,680563344
49,7,10,Ticks_ISO_T2_5,6,1,48,62,681005312
49,7,10,Ticks_ISO_T2_5,7,5,42,127,681062788
49,7,10,Ticks_ISO_T2_5,8,1,48,47,681534924
49,7,10,Ticks_ISO_T2_5,9,5,42,127,681562408
49,7,10,Ticks_ISO_T2_5,10,1,48,42,682010532
49,7,10,Ticks_ISO_T2_5,11,5,42,127,682063300
49,7,10,Ticks_ISO_T2_5,12,1,48,28,682540672
49,7,10,Ticks_ISO_T2_5,13,5,42,127,682562920
49,7,10,Ticks_ISO_T2_5,14,1,48,51,683033260
49,7,10,Ticks_ISO_T2_5,15,5,42,127,683062616
49,7,10,Ticks_ISO_T2_5,16,5,42,127,683563440
49,7,10,Ticks_ISO_T2_5,17,1,48,44,683565452
49,7,10,Ticks_ISO_T2_5,18,5,42,127,684063208
49,7,10,Ticks_ISO_T2_5,19,1,48,55,684490180
49,7,10,Ticks_ISO_T2_5,20,5,42,127,684562840
49,7,10,Ticks_ISO_T2_5,21,1,48,63,684959580
49,7,10,Ticks_ISO_T2_5,22,5,42,127,685062596
49,7,10,Ticks_ISO_T2_5,23,1,48,61,685428984
49,7,10,Ticks_ISO_T2_5,24,5,42,127,685563336
49,7,10,Ticks_ISO_T2_5,25,1,48,19,685979916
49,7,10,Ticks_ISO_T2_5,26,5,42,127,686062900
49,7,10,Ticks_ISO_T2_5,27,1,48,44,686459116
49,7,10,Ticks_ISO_T2_5,28,5,42,127,686562728
49,7,10,Ticks_ISO_T2_5,29,1,48,57,686938060
49,7,10,Ticks_ISO_T2_5,30,5,42,127,687063392
49,7,10,Ticks_ISO_T2_5,31,1,48,53,687445312
49,7,10,Ticks_ISO_T2_5,32,5,42,127,687563312
49,7,10,Ticks_ISO_T2_5,33,1,48,17,687980312
49,7,10,Ticks_ISO_T2_5,34,5,42,127,688062724
49,7,10,Ticks_ISO_T2_5,35,1,48,48,688423236
49,7,10,Ticks_ISO_T2_5,36,5,42,127,688562476
49,7,10,Ticks_ISO_T2_5,37,1,48,46,688924048
49,7,10,Ticks_ISO_T2_5,38,5,42,127,689063440
49,7,10,Ticks_ISO_T2_5,39,1,48,33,689457776
49,7,10,Ticks_ISO_T2_5,40,5,42,127,689563060
49,7,10,Ticks_ISO_T2_5,41,1,48,43,689921196
49,7,10,Ticks_ISO_T2_5,42,5,42,127,690062680
49,7,10,Ticks_ISO_T2_5,43,1,48,19,690484540
49,7,10,Ticks_ISO_T2_5,44,5,42,127,690562388
49,7,10,Ticks_ISO_T2_5,45,1,48,54,690928284
49,7,10,Ticks_ISO_T2_5,46,5,42,127,691063188
49,7,10,Ticks_ISO_T2_5,47,1,48,51,691415860
49,7,10,Ticks_ISO_T2_5,48,5,42,127,691562860
49,7,10,Ticks_ISO_T2_5,49,1,48,40,691910544
49,7,10,Ticks_ISO_T2_5,50,5,42,127,692062704
49,7,10,Ticks_ISO_T2_5,51,1,48,46,692421088
49,7,10,Ticks_ISO_T2_5,52,5,42,127,692563520
49,7,10,Ticks_ISO_T2_5,53,1,48,55,692923100
49,7,10,Ticks_ISO_T2_5,54,5,42,127,693063064
49,7,10,Ticks_ISO_T2_5,55,5,42,127,693562856
49,7,10,Ticks_ISO_T2_5,56,1,48,60,693794132
49,7,10,Ticks_ISO_T2_5,57,5,42,127,694062400
49,7,10,Ticks_ISO_T2_5,58,1,48,48,694093196
49,7,10,Ticks_ISO_T2_5,59,1,48,53,694495632
49,7,10,Ticks_ISO_T2_5,60,5,42,127,694563208
49,7,10,Ticks_ISO_T2_5,61,1,48,48,694973864
49,7,10,Ticks_ISO_T2_5,62,5,42,127,695062832
49,7,10,Ticks_ISO_T2_5,63,1,48,44,695449248
49,7,10,Ticks_ISO_T2_5,64,5,42,127,695562588
49,7,10,Ticks_ISO_T2_5,65,1,48,45,695935408
49,7,10,Ticks_ISO_T2_5,66,5,42,127,696063328
49,7,10,Ticks_ISO_T2_5,67,1,48,40,696472276
49,7,10,Ticks_ISO_T2_5,68,5,42,127,696563040
49,7,10,Ticks_ISO_T2_5,69,1,48,54,696921608
49,7,10,Ticks_ISO_T2_5,70,5,42,127,697062940
49,7,10,Ticks_ISO_T2_5,71,1,48,51,697453016
49,7,10,Ticks_ISO_T2_5,72,5,42,127,697562412
49,7,10,Ticks_ISO_T2_5,73,1,48,54,697924660
49,7,10,Ticks_ISO_T2_5,74,5,42,127,698063152
49,7,10,Ticks_ISO_T2_5,75,1,48,50,698406104
49,7,10,Ticks_ISO_T2_5,76,5,42,127,698563144
49,7,10,Ticks_ISO_T2_5,77,1,48,51,698872660
49,7,10,Ticks_ISO_T2_5,78,5,42,127,699062544
49,7,10,Ticks_ISO_T2_5,79,1,48,54,699357996
49,7,10,Ticks_ISO_T2_5,80,5,42,127,699563284
49,7,10,Ticks_ISO_T2_5,81,1,48,49,699833084
49,7,10,Ticks_ISO_T2_5,82,5,42,127,700062980
49,7,10,Ticks_ISO_T2_5,83,1,48,55,700314600
49,7,10,Ticks_ISO_T2_5,84,5,42,127,700562900
49,7,10,Ticks_ISO_T2_5,85,1,48,55,700823420
49,7,10,Ticks_ISO_T2_5,86,5,42,127,701062372
49,7,10,Ticks_ISO_T2_5,87,1,48,62,701332992
49,7,10,Ticks_ISO_T2_5,88,5,42,127,701563188
49,7,10,Ticks_ISO_T2_5,89,1,48,63,701856468
49,7,10,Ticks_ISO_T2_5,90,5,42,127,702063156
49,7,10,Ticks_ISO_T2_5,91,1,48,52,702349660
49,7,10,Ticks_ISO_T2_5,92,5,42,127,702562776
49,7,10,Ticks_ISO_T2_5,93,1,48,49,702848084
49,7,10,Ticks_ISO_T2_5,94,5,42,127,703063444
49,7,10,Ticks_ISO_T2_5,95,1,48,46,703345504
49,7,10,Ticks_ISO_T2_5,96,5,42,127,703563188
49,7,10,Ticks_ISO_T2_5,97,1,48,48,703837848
49,7,10,Ticks_ISO_T2_5,98,5,42,127,704062880
49,7,10,Ticks_ISO_T2_5,99,1,48,43,704355040
49,7,10,Ticks_ISO_T2_5,100,5,42,127,704562576
49,7,10,Ticks_ISO_T2_5,101,1,48,50,704799016
49,7,10,Ticks_ISO_T2_5,102,5,42,127,705063244
49,7,10,Ticks_ISO_T2_5,103,1,48,68,705326608
49,7,10,Ticks_ISO_T2_5,104,5,42,127,705562936
49,7,10,Ticks_ISO_T2_5,105,1,48,43,705830268
49,7,10,Ticks_ISO_T2_5,106,5,42,127,706062928
49,7,10,Ticks_ISO_T2_5,107,1,48,51,706313284
49,7,10,Ticks_ISO_T2_5,108,5,42,127,706562328
49,7,10,Ticks_ISO_T2_5,109,1,48,44,706806540
49,7,10,Ticks_ISO_T2_5,110,5,42,127,707063144
49,7,10,Ticks_ISO_T2_5,111,1,48,67,707331296
49,7,10,Ticks_ISO_T2_5,112,5,42,127,707562988
49,7,10,Ticks_ISO_T2_5,113,1,48,68,707797484
49,7,10,Ticks_ISO_T2_5,114,5,42,127,708062608
49,7,10,Ticks_ISO_T2_5,115,1,48,67,708280648
49,7,10,Ticks_ISO_T2_5,116,5,42,127,708563276
49,7,10,Ticks_ISO_T2_5,117,1,48,48,708810860
49,7,10,Ticks_ISO_T2_5,118,5,42,127,709062896
49,7,10,Ticks_ISO_T2_5,119,1,48,50,709282800
49,7,10,Ticks_ISO_T2_5,120,5,42,127,709562960
49,7,10,Ticks_ISO_T2_5,121,1,48,63,709769632
49,7,10,Ticks_ISO_T2_5,122,5,42,127,710062432
49,7,10,Ticks_ISO_T2_5,123,1,48,53,710263192
49,7,10,Ticks_ISO_T2_5,124,5,42,127,710563248
49,7,10,Ticks_ISO_T2_5,125,1,48,50,710758296
49,7,10,Ticks_ISO_T2_5,126,5,42,127,711062868
49,7,10,Ticks_ISO_T2_5,127,1,48,53,711184240
49,7,10,Ticks_ISO_T2_5,128,5,42,127,711562712
49,7,10,Ticks_ISO_T2_5,129,1,48,28,711760680
49,7,10,Ticks_ISO_T2_5,130,5,42,127,712063304
49,7,10,Ticks_ISO_T2_5,131,1,48,46,712252448
49,7,10,Ticks_ISO_T2_5,132,5,42,127,712563148
49,7,10,Ticks_ISO_T2_5,133,1,48,51,712744136
49,7,10,Ticks_ISO_T2_5,134,5,42,127,713063040
49,7,10,Ticks_ISO_T2_5,135,1,48,46,713156240
49,7,10,Ticks_ISO_T2_5,136,5,42,127,713562436
49,7,10,Ticks_ISO_T2_5,137,1,48,50,713594824
49,7,10,Ticks_ISO_T2_5,138,5,42,127,714063180
49,7,10,Ticks_ISO_T2_5,139,1,48,48,714070264
49,7,10,Ticks_ISO_T2_5,140,1,48,37,714495736
49,7,10,Ticks_ISO_T2_5,141,5,42,127,714563016
49,7,10,Ticks_ISO_T2_5,142,1,48,20,714952876
49,7,10,Ticks_ISO_T2_5,143,5,42,127,715062768
49,7,10,Ticks_ISO_T2_5,144,1,48,26,715437088
49,7,10,Ticks_ISO_T2_5,145,5,42,127,715563512
49,7,10,Ticks_ISO_T2_5,146,1,48,46,715869136
49,7,10,Ticks_ISO_T2_5,147,5,42,127,716063056
49,7,10,Ticks_ISO_T2_5,148,1,48,58,716247808
49,7,10,Ticks_ISO_T2_5,149,5,42,127,716562900
49,7,10,Ticks_ISO_T2_5,150,1,48,45,716720280
49,7,10,Ticks_ISO_T2_5,151,5,42,127,717062592
49,7,10,Ticks_ISO_T2_5,152,1,48,50,717142160
49,7,10,Ticks_ISO_T2_5,153,1,48,27,717561980
49,7,10,Ticks_ISO_T2_5,154,5,42,127,717563772
49,7,10,Ticks_ISO_T2_5,155,1,48,37,718018716
49,7,10,Ticks_ISO_T2_5,156,5,42,127,718062952
49,7,10,Ticks_ISO_T2_5,157,1,48,56,718486464
49,7,10,Ticks_ISO_T2_5,158,5,42,127,718562644
49,7,10,Ticks_ISO_T2_5,159,1,48,39,719044728
49,7,10,Ticks_ISO_T2_5,160,5,42,127,719063536
49,7,10,Ticks_ISO_T2_5,161,1,48,26,719508672
49,7,10,Ticks_ISO_T2_5,162,5,42,127,719563156
49,7,10,Ticks_ISO_T2_5,163,5,42,127,720062708
49,7,10,Ticks_ISO_T2_5,164,1,48,60,720384340
49,7,10,Ticks_ISO_T2_5,165,5,42,127,720562700
49,7,10,Ticks_ISO_T2_5,166,1,48,39,720797120
49,7,10,Ticks_ISO_T2_5,167,5,42,127,721063588
49,7,10,Ticks_ISO_T2_5,168,1,48,51,721310952
49,7,10,Ticks_ISO_T2_5,169,5,42,127,721562840
49,7,10,Ticks_ISO_T2_5,170,1,48,32,721788800
49,7,10,Ticks_ISO_T2_5,171,5,42,127,722062608
49,7,10,Ticks_ISO_T2_5,172,1,48,34,722267980
49,7,10,Ticks_ISO_T2_5,173,5,42,127,722562600
49,7,10,Ticks_ISO_T2_5,174,1,48,24,722766328
49,7,10,Ticks_ISO_T2_5,175,5,42,127,723063120
49,7,10,Ticks_ISO_T2_5,176,1,48,43,723277688
49,7,10,Ticks_ISO_T2_5,177,5,42,127,723562716
49,7,10,Ticks_ISO_T2_5,178,1,48,46,723780524
49,7,10,Ticks_ISO_T2_5,179,5,42,127,724062852
49,7,10,Ticks_ISO_T2_5,180,1,48,47,724249704
49,7,10,Ticks_ISO_T2_5,181,5,42,127,724563816
49,7,10,Ticks_ISO_T2_5,182,1,48,36,724717456
49,7,10,Ticks_ISO_T2_5,183,5,42,127,725062992
49,7,10,Ticks_ISO_T2_5,184,1,48,37,725226052
49,7,10,Ticks_ISO_T2_5,185,5,42,127,725562684
49,7,10,Ticks_ISO_T2_5,186,1,48,61,725653192
49,7,10,Ticks_ISO_T2_5,187,5,42,127,726062380
49,7,10,Ticks_ISO_T2_5,188,1,48,19,726161492
49,7,10,Ticks_ISO_T2_5,189,5,42,127,726563344
49,7,10,Ticks_ISO_T2_5,190,1,48,45,726588376
49,7,10,Ticks_ISO_T2_5,191,1,48,46,727003608
49,7,10,Ticks_ISO_T2_5,192,5,42,127,727062884
49,7,10,Ticks_ISO_T2_5,193,1,48,47,727453336
49,7,10,Ticks_ISO_T2_5,194,5,42,127,727562564
49,7,10,Ticks_ISO_T2_5,195,1,48,65,727918300
49,7,10,Ticks_ISO_T2_5,196,5,42,127,728063376
49,7,10,Ticks_ISO_T2_5,197,1,48,38,728386884
49,7,10,Ticks_ISO_T2_5,198,5,42,127,728563072
49,7,10,Ticks_ISO_T2_5,199,1,48,57,728852388
49,7,10,Ticks_ISO_T2_5,200,5,42,127,729062764
49,7,10,Ticks_ISO_T2_5,201,1,48,40,729259936
49,7,10,Ticks_ISO_T2_5,202,5,42,127,729562464
49,7,10,Ticks_ISO_T2_5,203,1,48,37,729724920
49,7,10,Ticks_ISO_T2_5,204,5,42,127,730063204
49,7,10,Ticks_ISO_T2_5,205,1,48,36,730124292
49,7,10,Ticks_ISO_T2_5,206,1,48,46,730556428
49,7,10,Ticks_ISO_T2_5,207,5,42,127,730563040
49,7,10,Ticks_ISO_T2_5,208,1,48,59,731018276
49,7,10,Ticks_ISO_T2_5,209,5,42,127,731062588
49,7,10,Ticks_ISO_T2_5,210,1,48,53,731464760
49,7,10,Ticks_ISO_T2_5,211,5,42,127,731563312
49,7,10,Ticks_ISO_T2_5,212,1,48,48,731939172
49,7,10,Ticks_ISO_T2_5,213,5,42,127,732063304
49,7,10,Ticks_ISO_T2_5,214,1,48,69,732361976
49,7,10,Ticks_ISO_T2_5,215,5,42,127,732562700
49,7,10,Ticks_ISO_T2_5,216,1,48,62,732875056
49,7,10,Ticks_ISO_T2_5,217,5,42,127,733062544
49,7,10,Ticks_ISO_T2_5,218,1,48,62,733392480
49,7,10,Ticks_ISO_T2_5,219,5,42,127,733563360
49,7,10,Ticks_ISO_T2_5,220,1,48,62,733889856
49,7,10,Ticks_ISO_T2_5,221,5,42,127,734063032
49,7,10,Ticks_ISO_T2_5,222,1,48,51,734368308
49,7,10,Ticks_ISO_T2_5,223,5,42,127,734562652
49,7,10,Ticks_ISO_T2_5,224,1,48,78,734865384
49,7,10,Ticks_ISO_T2_5,225,5,42,127,735063396
49,7,10,Ticks_ISO_T2_5,226,1,48,68,735336932
49,7,10,Ticks_ISO_T2_5,227,5,42,127,735563460
49,7,10,Ticks_ISO_T2_5,228,1,48,62,735742384
49,7,10,Ticks_ISO_T2_5,229,5,42,127,736062784
49,7,10,Ticks_ISO_T2_5,230,1,48,66,736300644
49,7,10,Ticks_ISO_T2_5,231,5,42,127,736562404
49,7,10,Ticks_ISO_T2_5,232,1,48,66,736798392
49,7,10,Ticks_ISO_T2_5,233,5,42,127,737063440
49,7,10,Ticks_ISO_T2_5,234,1,48,50,737277968
49,7,10,Ticks_ISO_T2_5,235,5,42,127,737563136
49,7,10,Ticks_ISO_T2_5,236,1,48,68,737751556
49,7,10,Ticks_ISO_T2_5,237,5,42,127,738062684
49,7,10,Ticks_ISO_T2_5,238,1,48,54,738228212
49,7,10,Ticks_ISO_T2_5,239,5,42,127,738562376
49,7,10,Ticks_ISO_T2_5,240,1,48,48,738672180
49,7,10,Ticks_ISO_T2_5,241,5,42,127,739063120
49,7,10,Ticks_ISO_T2_5,242,1,48,65,739153376
49,7,10,Ticks_ISO_T2_5,243,5,42,127,739562812
49,7,10,Ticks_ISO_T2_5,244,1,48,65,739623976
49,7,10,Ticks_ISO_T2_5,245,5,42,127,740062656
49,7,10,Ticks_ISO_T2_5,246,1,48,49,740124116
49,7,10,Ticks_ISO_T2_5,247,5,42,127,740563248
49,7,10,Ticks_ISO_T2_5,248,1,48,73,740595164
49,7,10,Ticks_ISO_T2_5,249,5,42,127,741063016
49,7,10,Ticks_ISO_T2_5,250,1,48,54,741074588
49,7,10,Ticks_ISO_T2_5,251,5,42,127,741563160
49,7,10,Ticks_ISO_T2_5,252,1,48,54,741574884
49,7,10,Ticks_ISO_T2_5,253,5,42,127,742062332
49,7,10,Ticks_ISO_T2_5,254,1,48,51,742083928
49,7,10,Ticks_ISO_T2_5,255,1,48,61,742543440
49,7,10,Ticks_ISO_T2_5,256,5,42,127,742563144
49,7,10,Ticks_ISO_T2_5,257,1,48,52,742991868
49,7,10,Ticks_ISO_T2_5,258,5,42,127,743063060
49,7,10,Ticks_ISO_T2_5,259,1,48,63,743468156
49,7,10,Ticks_ISO_T2_5,260,5,42,127,743562460
49,7,10,Ticks_ISO_T2_5,261,1,48,42,743990960
49,7,10,Ticks_ISO_T2_5,262,5,42,127,744063348
49,7,10,Ticks_ISO_T2_5,263,1,48,57,744470536
49,7,10,Ticks_ISO_T2_5,0,9999,9999,9999,679560260
49,7,10,Ticks_ISO_T2_5,1,9999,9999,9999,680061016
49,7,10,Ticks_ISO_T2_5,2,9999,9999,9999,680560740
49,7,10,Ticks_ISO_T2_5,3,9999,9999,9999,681060428
49,7,10,Ticks_ISO_T2_5,4,9999,9999,9999,681560124
49,7,10,Ticks_ISO_T2_5,5,9999,9999,9999,682060864
49,7,10,Ticks_ISO_T2_5,6,9999,9999,9999,682560632
49,7,10,Ticks_ISO_T2_5,7,9999,9999,9999,683060328
49,7,10,Ticks_ISO_T2_5,8,9999,9999,9999,683561076
49,7,10,Ticks_ISO_T2_5,9,9999,9999,9999,684060772
49,7,10,Ticks_ISO_T2_5,10,9999,9999,9999,684560480
49,7,10,Ticks_ISO_T2_5,11,9999,9999,9999,685060160
49,7,10,Ticks_ISO_T2_5,12,9999,9999,9999,685560900
49,7,10,Ticks_ISO_T2_5,13,9999,9999,9999,686060612
49,7,10,Ticks_ISO_T2_5,14,9999,9999,9999,686560364
49,7,10,Ticks_ISO_T2_5,15,9999,9999,9999,687061108
49,7,10,Ticks_ISO_T2_5,16,9999,9999,9999,687560804
49,7,10,Ticks_ISO_T2_5,17,9999,9999,9999,688060512
49,7,10,Ticks_ISO_T2_5,18,9999,9999,9999,688560192
49,7,10,Ticks_ISO_T2_5,19,9999,9999,9999,689060928
49,7,10,Ticks_ISO_T2_5,20,9999,9999,9999,689560624
49,7,10,Ticks_ISO_T2_5,21,9999,9999,9999,690060392
49,7,10,Ticks_ISO_T2_5,22,9999,9999,9999,690560104
49,7,10,Ticks_ISO_T2_5,23,9999,9999,9999,691060828
49,7,10,Ticks_ISO_T2_5,24,9999,9999,9999,691560500
49,7,10,Ticks_ISO_T2_5,25,9999,9999,9999,692060268
49,7,10,Ticks_ISO_T2_5,26,9999,9999,9999,692561008
49,7,10,Ticks_ISO_T2_5,27,9999,9999,9999,693060704
49,7,10,Ticks_ISO_T2_5,28,9999,9999,9999,693560420
49,7,10,Ticks_ISO_T2_5,29,9999,9999,9999,694060116
49,7,10,Ticks_ISO_T2_5,30,9999,9999,9999,694560848
49,7,10,Ticks_ISO_T2_5,31,9999,9999,9999,695060548
49,7,10,Ticks_ISO_T2_5,32,9999,9999,9999,695560300
49,7,10,Ticks_ISO_T2_5,33,9999,9999,9999,696061044
49,7,10,Ticks_ISO_T2_5,34,9999,9999,9999,696560752
49,7,10,Ticks_ISO_T2_5,35,9999,9999,9999,697060432
49,7,10,Ticks_ISO_T2_5,36,9999,9999,9999,697560128
49,7,10,Ticks_ISO_T2_5,37,9999,9999,9999,698060868
49,7,10,Ticks_ISO_T2_5,38,9999,9999,9999,698560560
49,7,10,Ticks_ISO_T2_5,39,9999,9999,9999,699060332
49,7,10,Ticks_ISO_T2_5,40,9999,9999,9999,699561072
49,7,10,Ticks_ISO_T2_5,41,9999,9999,9999,700060768
49,7,10,Ticks_ISO_T2_5,42,9999,9999,9999,700560464
49,7,10,Ticks_ISO_T2_5,43,9999,9999,9999,701060160
49,7,10,Ticks_ISO_T2_5,44,9999,9999,9999,701560900
49,7,10,Ticks_ISO_T2_5,45,9999,9999,9999,702060648
49,7,10,Ticks_ISO_T2_5,46,9999,9999,9999,702560340
49,7,10,Ticks_ISO_T2_5,47,9999,9999,9999,703061084
49,7,10,Ticks_ISO_T2_5,48,9999,9999,9999,703560752
49,7,10,Ticks_ISO_T2_5,49,9999,9999,9999,704060520
49,7,10,Ticks_ISO_T2_5,50,9999,9999,9999,704560216
49,7,10,Ticks_ISO_T2_5,51,9999,9999,9999,705060956
49,7,10,Ticks_ISO_T2_5,52,9999,9999,9999,705560652
49,7,10,Ticks_ISO_T2_5,53,9999,9999,9999,706060344
49,7,10,Ticks_ISO_T2_5,54,9999,9999,9999,706560112
49,7,10,Ticks_ISO_T2_5,55,9999,9999,9999,707060856
49,7,10,Ticks_ISO_T2_5,56,9999,9999,9999,707560552
49,7,10,Ticks_ISO_T2_5,57,9999,9999,9999,708060248
49,7,10,Ticks_ISO_T2_5,58,9999,9999,9999,708560988
49,7,10,Ticks_ISO_T2_5,59,9999,9999,9999,709060680
49,7,10,Ticks_ISO_T2_5,60,9999,9999,9999,709560376
49,7,10,Ticks_ISO_T2_5,61,9999,9999,9999,710060148
49,7,10,Ticks_ISO_T2_5,62,9999,9999,9999,710560888
49,7,10,Ticks_ISO_T2_5,63,9999,9999,9999,711060580
49,7,10,Ticks_ISO_T2_5,64,9999,9999,9999,711560276
49,7,10,Ticks_ISO_T2_5,65,9999,9999,9999,712061016
49,7,10,Ticks_ISO_T2_5,66,9999,9999,9999,712560712
49,7,10,Ticks_ISO_T2_5,67,9999,9999,9999,713060456
49,7,10,Ticks_ISO_T2_5,68,9999,9999,9999,713560152
49,7,10,Ticks_ISO_T2_5,69,9999,9999,9999,714060892
49,7,10,Ticks_ISO_T2_5,70,9999,9999,9999,714560580
49,7,10,Ticks_ISO_T2_5,71,9999,9999,9999,715060332
49,7,10,Ticks_ISO_T2_5,72,9999,9999,9999,715561076
49,7,10,Ticks_ISO_T2_5,73,9999,9999,9999,716060768
49,7,10,Ticks_ISO_T2_5,74,9999,9999,9999,716560464
49,7,10,Ticks_ISO_T2_5,75,9999,9999,9999,717060160
49,7,10,Ticks_ISO_T2_5,76,9999,9999,9999,717560900
49,7,10,Ticks_ISO_T2_5,77,9999,9999,9999,718060664
49,7,10,Ticks_ISO_T2_5,78,9999,9999,9999,718560360
49,7,10,Ticks_ISO_T2_5,79,9999,9999,9999,719061100
49,7,10,Ticks_ISO_T2_5,80,9999,9999,9999,719560796
49,7,10,Ticks_ISO_T2_5,81,9999,9999,9999,720060496
49,7,10,Ticks_ISO_T2_5,82,9999,9999,9999,720560188
49,7,10,Ticks_ISO_T2_5,83,9999,9999,9999,721060932
49,7,10,Ticks_ISO_T2_5,84,9999,9999,9999,721560628
49,7,10,Ticks_ISO_T2_5,85,9999,9999,9999,722060396
49,7,10,Ticks_ISO_T2_5,86,9999,9999,9999,722560092
49,7,10,Ticks_ISO_T2_5,87,9999,9999,9999,723060832
49,7,10,Ticks_ISO_T2_5,88,9999,9999,9999,723560500
49,7,10,Ticks_ISO_T2_5,89,9999,9999,9999,724060268
49,7,10,Ticks_ISO_T2_5,90,9999,9999,9999,724561012
49,7,10,Ticks_ISO_T2_5,91,9999,9999,9999,725060704
49,7,10,Ticks_ISO_T2_5,92,9999,9999,9999,725560400
49,7,10,Ticks_ISO_T2_5,93,9999,9999,9999,726060092
49,7,10,Ticks_ISO_T2_5,94,9999,9999,9999,726560836
49,7,10,Ticks_ISO_T2_5,95,9999,9999,9999,727060596
49,7,10,Ticks_ISO_T2_5,96,9999,9999,9999,727560276
49,7,10,Ticks_ISO_T2_5,97,9999,9999,9999,728061016
49,7,10,Ticks_ISO_T2_5,98,9999,9999,9999,728560712
49,7,10,Ticks_ISO_T2_5,99,9999,9999,9999,729060404
49,7,10,Ticks_ISO_T2_5,100,9999,9999,9999,729560176
49,7,10,Ticks_ISO_T2_5,101,9999,9999,9999,730060916
49,7,10,Ticks_ISO_T2_5,102,9999,9999,9999,730560604
49,7,10,Ticks_ISO_T2_5,103,9999,9999,9999,731060300
49,7,10,Ticks_ISO_T2_5,104,9999,9999,9999,731561024
49,7,10,Ticks_ISO_T2_5,105,9999,9999,9999,732060792
49,7,10,Ticks_ISO_T2_5,106,9999,9999,9999,732560488
49,7,10,Ticks_ISO_T2_5,107,9999,9999,9999,733060184
49,7,10,Ticks_ISO_T2_5,108,9999,9999,9999,733560924
49,7,10,Ticks_ISO_T2_5,109,9999,9999,9999,734060596
49,7,10,Ticks_ISO_T2_5,110,9999,9999,9999,734560368
49,7,10,Ticks_ISO_T2_5,111,9999,9999,9999,735061108
49,7,10,Ticks_ISO_T2_5,112,9999,9999,9999,735560804
49,7,10,Ticks_ISO_T2_5,113,9999,9999,9999,736060496
49,7,10,Ticks_ISO_T2_5,114,9999,9999,9999,736560192
49,7,10,Ticks_ISO_T2_5,115,9999,9999,9999,737060932
49,7,10,Ticks_ISO_T2_5,116,9999,9999,9999,737560628
49,7,10,Ticks_ISO_T2_5,117,9999,9999,9999,738060396
49,7,10,Ticks_ISO_T2_5,118,9999,9999,9999,738560092
49,7,10,Ticks_ISO_T2_5,119,9999,9999,9999,739060832
49,7,10,Ticks_ISO_T2_5,120,9999,9999,9999,739560528
49,7,10,Ticks_ISO_T2_5,121,9999,9999,9999,740060220
49,7,10,Ticks_ISO_T2_5,122,9999,9999,9999,740560960
49,7,10,Ticks_ISO_T2_5,123,9999,9999,9999,741060656
49,7,10,Ticks_ISO_T2_5,124,9999,9999,9999,741560428
49,7,10,Ticks_ISO_T2_5,125,9999,9999,9999,742060120
49,7,10,Ticks_ISO_T2_5,126,9999,9999,9999,742560856
49,7,10,Ticks_ISO_T2_5,127,9999,9999,9999,743060552
49,7,10,Ticks_ISO_T2_5,128,9999,9999,9999,743560248
49,7,10,Ticks_ISO_T2_5,129,9999,9999,9999,744060988
49,8,9,Ticks_ISO_T2_8,0,5,42,127,755096876
49,8,9,Ticks_ISO_T2_8,1,1,48,26,755469520
49,8,9,Ticks_ISO_T2_8,2,5,42,127,755896904
49,8,9,Ticks_ISO_T2_8,3,1,48,47,756091900
49,8,9,Ticks_ISO_T2_8,4,5,42,127,756696564
49,8,9,Ticks_ISO_T2_8,5,1,48,44,756748748
49,8,9,Ticks_ISO_T2_8,6,5,42,127,757497192
49,8,9,Ticks_ISO_T2_8,7,1,48,48,757511904
49,8,9,Ticks_ISO_T2_8,8,1,48,47,758260012
49,8,9,Ticks_ISO_T2_8,9,5,42,127,758296844
49,8,9,Ticks_ISO_T2_8,10,1,48,52,759083304
49,8,9,Ticks_ISO_T2_8,11,5,42,127,759096580
49,8,9,Ticks_ISO_T2_8,12,5,42,127,759896468
49,8,9,Ticks_ISO_T2_8,13,1,48,56,759907440
49,8,9,Ticks_ISO_T2_8,14,1,48,83,760680456
49,8,9,Ticks_ISO_T2_8,15,5,42,127,760697340
49,8,9,Ticks_ISO_T2_8,16,5,42,127,761496932
49,8,9,Ticks_ISO_T2_8,17,1,48,103,761538344
49,8,9,Ticks_ISO_T2_8,18,5,42,127,762296740
49,8,9,Ticks_ISO_T2_8,19,1,48,92,762319604
49,8,9,Ticks_ISO_T2_8,20,5,42,127,763096620
49,8,9,Ticks_ISO_T2_8,21,1,48,105,763135120
49,8,9,Ticks_ISO_T2_8,22,1,48,100,763896196
49,8,9,Ticks_ISO_T2_8,23,5,42,127,763897992
49,8,9,Ticks_ISO_T2_8,24,5,42,127,764696908
49,8,9,Ticks_ISO_T2_8,25,1,48,116,764774900
49,8,9,Ticks_ISO_T2_8,26,5,42,127,765496720
49,8,9,Ticks_ISO_T2_8,27,1,48,87,765504700
49,8,9,Ticks_ISO_T2_8,28,1,48,66,766222064
49,8,9,Ticks_ISO_T2_8,29,5,42,127,766296672
49,8,9,Ticks_ISO_T2_8,30,1,48,83,766980808
49,8,9,Ticks_ISO_T2_8,31,5,42,127,767097384
49,8,9,Ticks_ISO_T2_8,32,1,48,87,767722800
49,8,9,Ticks_ISO_T2_8,33,5,42,127,767897120
49,8,9,Ticks_ISO_T2_8,34,1,48,98,768454016
49,8,9,Ticks_ISO_T2_8,35,5,42,127,768696704
49,8,9,Ticks_ISO_T2_8,36,1,48,77,769188228
49,8,9,Ticks_ISO_T2_8,37,5,42,127,769496436
49,8,9,Ticks_ISO_T2_8,38,1,48,81,769913236
49,8,9,Ticks_ISO_T2_8,39,5,42,127,770297072
49,8,9,Ticks_ISO_T2_8,40,1,48,78,770674448
49,8,9,Ticks_ISO_T2_8,41,5,42,127,771096804
49,8,9,Ticks_ISO_T2_8,42,1,48,97,771489520
49,8,9,Ticks_ISO_T2_8,43,5,42,127,771896612
49,8,9,Ticks_ISO_T2_8,44,1,48,100,772296132
49,8,9,Ticks_ISO_T2_8,45,1,38,21,772305988
49,8,9,Ticks_ISO_T2_8,46,5,42,127,772696524
49,8,9,Ticks_ISO_T2_8,47,1,48,71,773091484
49,8,9,Ticks_ISO_T2_8,48,5,42,127,773497400
49,8,9,Ticks_ISO_T2_8,49,1,48,56,773921812
49,8,9,Ticks_ISO_T2_8,50,5,42,127,774296912
49,8,9,Ticks_ISO_T2_8,51,1,48,72,774709648
49,8,9,Ticks_ISO_T2_8,52,5,42,127,775096720
49,8,9,Ticks_ISO_T2_8,53,1,48,85,775501452
49,8,9,Ticks_ISO_T2_8,54,5,42,127,775896376
49,8,9,Ticks_ISO_T2_8,55,1,48,73,776256376
49,8,9,Ticks_ISO_T2_8,56,5,42,127,776697308
49,8,9,Ticks_ISO_T2_8,57,1,48,94,777054992
49,8,9,Ticks_ISO_T2_8,58,1,38,20,777064552
49,8,9,Ticks_ISO_T2_8,59,5,42,127,777496920
49,8,9,Ticks_ISO_T2_8,60,1,48,68,777836348
49,8,9,Ticks_ISO_T2_8,61,5,42,127,778296580
49,8,9,Ticks_ISO_T2_8,62,1,48,60,778589268
49,8,9,Ticks_ISO_T2_8,63,5,42,127,779096388
49,8,9,Ticks_ISO_T2_8,64,1,48,62,779387452
49,8,9,Ticks_ISO_T2_8,65,5,42,127,779897416
49,8,9,Ticks_ISO_T2_8,66,1,48,85,780236028
49,8,9,Ticks_ISO_T2_8,67,5,42,127,780697148
49,8,9,Ticks_ISO_T2_8,68,1,48,57,781022892
49,8,9,Ticks_ISO_T2_8,69,5,42,127,781496732
49,8,9,Ticks_ISO_T2_8,70,1,48,35,781823080
49,8,9,Ticks_ISO_T2_8,71,5,42,127,782296316
49,8,9,Ticks_ISO_T2_8,72,1,48,68,782605904
49,8,9,Ticks_ISO_T2_8,73,5,42,127,783097324
49,8,9,Ticks_ISO_T2_8,74,1,48,47,783438176
49,8,9,Ticks_ISO_T2_8,75,5,42,127,783897056
49,8,9,Ticks_ISO_T2_8,76,1,48,57,784225716
49,8,9,Ticks_ISO_T2_8,77,5,42,127,784696640
49,8,9,Ticks_ISO_T2_8,78,1,48,67,784991492
49,8,9,Ticks_ISO_T2_8,79,5,42,127,785496520
49,8,9,Ticks_ISO_T2_8,80,1,48,79,785809128
49,8,9,Ticks_ISO_T2_8,81,5,42,127,786297328
49,8,9,Ticks_ISO_T2_8,82,1,48,58,786635340
49,8,9,Ticks_ISO_T2_8,83,5,42,127,787096912
49,8,9,Ticks_ISO_T2_8,84,1,48,68,787417424
49,8,9,Ticks_ISO_T2_8,85,1,38,17,787427272
49,8,9,Ticks_ISO_T2_8,86,5,42,127,787896672
49,8,9,Ticks_ISO_T2_8,87,1,48,54,788221076
49,8,9,Ticks_ISO_T2_8,88,5,42,127,788696484
49,8,9,Ticks_ISO_T2_8,89,1,48,72,789035764
49,8,9,Ticks_ISO_T2_8,90,5,42,127,789497112
49,8,9,Ticks_ISO_T2_8,91,1,48,66,789808500
49,8,9,Ticks_ISO_T2_8,92,5,42,127,790297144
49,8,9,Ticks_ISO_T2_8,93,1,48,51,790630220
49,8,9,Ticks_ISO_T2_8,94,5,42,127,791096728
49,8,9,Ticks_ISO_T2_8,95,1,48,54,791379388
49,8,9,Ticks_ISO_T2_8,96,5,42,127,791896308
49,8,9,Ticks_ISO_T2_8,97,1,48,73,792197020
49,8,9,Ticks_ISO_T2_8,98,5,42,127,792697188
49,8,9,Ticks_ISO_T2_8,99,1,48,64,793021436
49,8,9,Ticks_ISO_T2_8,100,5,42,127,793497072
49,8,9,Ticks_ISO_T2_8,101,1,48,58,793822964
49,8,9,Ticks_ISO_T2_8,102,5,42,127,794296804
49,8,9,Ticks_ISO_T2_8,103,1,48,76,794585972
49,8,9,Ticks_ISO_T2_8,104,5,42,127,795096316
49,8,9,Ticks_ISO_T2_8,105,1,48,73,795323552
49,8,9,Ticks_ISO_T2_8,106,5,42,127,795897096
49,8,9,Ticks_ISO_T2_8,107,1,48,78,796087980
49,8,9,Ticks_ISO_T2_8,108,5,42,127,796696900
49,8,9,Ticks_ISO_T2_8,109,1,48,68,796888908
49,8,9,Ticks_ISO_T2_8,110,5,42,127,797496708
49,8,9,Ticks_ISO_T2_8,111,1,48,48,797665976
49,8,9,Ticks_ISO_T2_8,112,5,42,127,798296368
49,8,9,Ticks_ISO_T2_8,113,1,48,56,798374380
49,8,9,Ticks_ISO_T2_8,114,1,48,65,799051928
49,8,9,Ticks_ISO_T2_8,115,5,42,127,799097092
49,8,9,Ticks_ISO_T2_8,116,1,48,60,799841936
49,8,9,Ticks_ISO_T2_8,117,5,42,127,799896824
49,8,9,Ticks_ISO_T2_8,118,1,48,63,800626964
49,8,9,Ticks_ISO_T2_8,119,5,42,127,800696856
49,8,9,Ticks_ISO_T2_8,120,1,48,62,801412408
49,8,9,Ticks_ISO_T2_8,121,5,42,127,801496288
49,8,9,Ticks_ISO_T2_8,122,1,48,44,802209000
49,8,9,Ticks_ISO_T2_8,123,5,42,127,802297068
49,8,9,Ticks_ISO_T2_8,124,1,48,60,802928924
49,8,9,Ticks_ISO_T2_8,125,5,42,127,803096864
49,8,9,Ticks_ISO_T2_8,126,1,48,83,803778320
49,8,9,Ticks_ISO_T2_8,127,5,42,127,803896820
49,8,9,Ticks_ISO_T2_8,128,1,48,66,804507148
49,8,9,Ticks_ISO_T2_8,129,5,42,127,804696408
49,8,9,Ticks_ISO_T2_8,130,1,48,71,805349596
49,8,9,Ticks_ISO_T2_8,131,5,42,127,805497284
49,8,9,Ticks_ISO_T2_8,132,1,48,57,806172812
49,8,9,Ticks_ISO_T2_8,133,5,42,127,806296868
49,8,9,Ticks_ISO_T2_8,134,1,48,82,806857056
49,8,9,Ticks_ISO_T2_8,135,5,42,127,807096828
49,8,9,Ticks_ISO_T2_8,136,1,48,63,807702716
49,8,9,Ticks_ISO_T2_8,137,5,42,127,807896560
49,8,9,Ticks_ISO_T2_8,138,1,48,63,808494068
49,8,9,Ticks_ISO_T2_8,139,5,42,127,808697116
49,8,9,Ticks_ISO_T2_8,140,1,48,78,809227908
49,8,9,Ticks_ISO_T2_8,141,5,42,127,809496924
49,8,9,Ticks_ISO_T2_8,142,1,48,77,810030632
49,8,9,Ticks_ISO_T2_8,143,1,38,18,810040488
49,8,9,Ticks_ISO_T2_8,144,5,42,127,810296608
49,8,9,Ticks_ISO_T2_8,145,1,48,101,810794340
49,8,9,Ticks_ISO_T2_8,146,5,42,127,811096564
49,8,9,Ticks_ISO_T2_8,147,1,48,108,811608880
49,8,9,Ticks_ISO_T2_8,148,5,42,127,811897072
49,8,9,Ticks_ISO_T2_8,149,1,48,127,812413204
49,8,9,Ticks_ISO_T2_8,150,5,42,127,812696880
49,8,9,Ticks_ISO_T2_8,151,1,48,99,813223184
49,8,9,Ticks_ISO_T2_8,152,5,42,127,813496536
49,8,9,Ticks_ISO_T2_8,153,1,48,108,813999504
49,8,9,Ticks_ISO_T2_8,154,5,42,127,814296568
49,8,9,Ticks_ISO_T2_8,155,1,48,100,814939632
49,8,9,Ticks_ISO_T2_8,156,5,42,127,815097496
49,8,9,Ticks_ISO_T2_8,157,1,48,84,815673016
49,8,9,Ticks_ISO_T2_8,158,1,38,19,815683392
49,8,9,Ticks_ISO_T2_8,159,5,42,127,815896960
49,8,9,Ticks_ISO_T2_8,160,1,48,76,816446604
49,8,9,Ticks_ISO_T2_8,161,5,42,127,816696620
49,8,9,Ticks_ISO_T2_8,162,1,48,107,817193376
49,8,9,Ticks_ISO_T2_8,163,5,42,127,817496424
49,8,9,Ticks_ISO_T2_8,164,1,48,127,817970744
49,8,9,Ticks_ISO_T2_8,165,5,42,127,818297228
49,8,9,Ticks_ISO_T2_8,166,1,48,80,818780724
49,8,9,Ticks_ISO_T2_8,167,5,42,127,819096888
49,8,9,Ticks_ISO_T2_8,168,1,48,48,819571132
49,8,9,Ticks_ISO_T2_8,169,5,42,127,819896696
49,8,9,Ticks_ISO_T2_8,170,1,48,94,820323116
49,8,9,Ticks_ISO_T2_8,171,5,42,127,820696428
49,8,9,Ticks_ISO_T2_8,172,1,48,63,821005492
49,8,9,Ticks_ISO_T2_8,173,5,42,127,821497356
49,8,9,Ticks_ISO_T2_8,174,1,48,73,821810244
49,8,9,Ticks_ISO_T2_8,175,5,42,127,822296868
49,8,9,Ticks_ISO_T2_8,176,1,48,43,822600024
49,8,9,Ticks_ISO_T2_8,177,5,42,127,823096604
49,8,9,Ticks_ISO_T2_8,178,1,48,40,823459768
49,8,9,Ticks_ISO_T2_8,179,5,42,127,823896412
49,8,9,Ticks_ISO_T2_8,180,1,48,66,824237368
49,8,9,Ticks_ISO_T2_8,181,5,42,127,824697144
49,8,9,Ticks_ISO_T2_8,182,1,48,41,824910968
49,8,9,Ticks_ISO_T2_8,183,5,42,127,825496800
49,8,9,Ticks_ISO_T2_8,184,1,48,57,825615252
49,8,9,Ticks_ISO_T2_8,185,5,42,127,826296676
49,8,9,Ticks_ISO_T2_8,186,1,48,43,826355820
49,8,9,Ticks_ISO_T2_8,187,1,48,57,827033312
49,8,9,Ticks_ISO_T2_8,188,5,42,127,827096480
49,8,9,Ticks_ISO_T2_8,189,1,48,51,827877852
49,8,9,Ticks_ISO_T2_8,190,5,42,127,827897408
49,8,9,Ticks_ISO_T2_8,191,1,48,62,828587308
49,8,9,Ticks_ISO_T2_8,192,5,42,127,828697052
49,8,9,Ticks_ISO_T2_8,193,1,48,74,829328476
49,8,9,Ticks_ISO_T2_8,194,5,42,127,829496636
49,8,9,Ticks_ISO_T2_8,195,1,48,54,830078168
49,8,9,Ticks_ISO_T2_8,196,5,42,127,830296444
49,8,9,Ticks_ISO_T2_8,197,1,48,49,830859124
49,8,9,Ticks_ISO_T2_8,198,5,42,127,831097176
49,8,9,Ticks_ISO_T2_8,199,1,48,70,831586952
49,8,9,Ticks_ISO_T2_8,200,5,42,127,831897060
49,8,9,Ticks_ISO_T2_8,201,1,48,55,832285112
49,8,9,Ticks_ISO_T2_8,202,5,42,127,832696568
49,8,9,Ticks_ISO_T2_8,203,1,48,62,833079536
49,8,9,Ticks_ISO_T2_8,204,5,42,127,833496300
49,8,9,Ticks_ISO_T2_8,205,1,48,52,833828328
49,8,9,Ticks_ISO_T2_8,206,5,42,127,834297228
49,8,9,Ticks_ISO_T2_8,207,1,48,47,834668028
49,8,9,Ticks_ISO_T2_8,208,5,42,127,835096888
49,8,9,Ticks_ISO_T2_8,209,1,48,53,835331004
49,8,9,Ticks_ISO_T2_8,210,1,48,24,835437144
49,8,9,Ticks_ISO_T2_8,211,5,42,127,835896824
49,8,9,Ticks_ISO_T2_8,212,1,48,35,836229100
49,8,9,Ticks_ISO_T2_8,213,5,42,127,836696408
49,8,9,Ticks_ISO_T2_8,214,1,48,60,837014468
49,8,9,Ticks_ISO_T2_8,215,5,42,127,837497060
49,8,9,Ticks_ISO_T2_8,216,1,48,46,837699964
49,8,9,Ticks_ISO_T2_8,217,5,42,127,838297092
49,8,9,Ticks_ISO_T2_8,218,1,48,29,838470524
49,8,9,Ticks_ISO_T2_8,219,5,42,127,839096680
49,8,9,Ticks_ISO_T2_8,220,1,48,53,839181100
49,8,9,Ticks_ISO_T2_8,221,1,48,48,839830996
49,8,9,Ticks_ISO_T2_8,222,5,42,127,839896552
49,8,9,Ticks_ISO_T2_8,223,1,48,55,840500856
49,8,9,Ticks_ISO_T2_8,224,5,42,127,840697168
49,8,9,Ticks_ISO_T2_8,225,1,48,55,841394412
49,8,9,Ticks_ISO_T2_8,226,5,42,127,841496976
49,8,9,Ticks_ISO_T2_8,227,1,48,43,842259668
49,8,9,Ticks_ISO_T2_8,228,5,42,127,842296800
49,8,9,Ticks_ISO_T2_8,229,1,48,51,843063368
49,8,9,Ticks_ISO_T2_8,230,5,42,127,843096536
49,8,9,Ticks_ISO_T2_8,231,1,48,49,843790244
49,8,9,Ticks_ISO_T2_8,232,5,42,127,843897100
49,8,9,Ticks_ISO_T2_8,233,1,48,48,844611972
49,8,9,Ticks_ISO_T2_8,234,5,42,127,844697072
49,8,9,Ticks_ISO_T2_8,235,1,48,50,845473508
49,8,9,Ticks_ISO_T2_8,236,5,42,127,845496808
49,8,9,Ticks_ISO_T2_8,237,1,48,45,846259108
49,8,9,Ticks_ISO_T2_8,238,5,42,127,846296392
49,8,9,Ticks_ISO_T2_8,239,1,48,49,847041336
49,8,9,Ticks_ISO_T2_8,240,5,42,127,847097172
49,8,9,Ticks_ISO_T2_8,241,1,48,41,847873532
49,8,9,Ticks_ISO_T2_8,242,5,42,127,847896832
49,8,9,Ticks_ISO_T2_8,243,1,48,54,848652920
49,8,9,Ticks_ISO_T2_8,244,5,42,127,848696788
49,8,9,Ticks_ISO_T2_8,245,1,48,20,849446892
49,8,9,Ticks_ISO_T2_8,246,5,42,127,849496372
49,8,9,Ticks_ISO_T2_8,247,1,48,54,850247980
49,8,9,Ticks_ISO_T2_8,248,5,42,127,850297328
49,8,9,Ticks_ISO_T2_8,249,1,48,45,851069204
49,8,9,Ticks_ISO_T2_8,0,9999,9999,9999,755094584
49,8,9,Ticks_ISO_T2_8,1,9999,9999,9999,755894388
49,8,9,Ticks_ISO_T2_8,2,9999,9999,9999,756694124
49,8,9,Ticks_ISO_T2_8,3,9999,9999,9999,757494904
49,8,9,Ticks_ISO_T2_8,4,9999,9999,9999,758294628
49,8,9,Ticks_ISO_T2_8,5,9999,9999,9999,759094364
49,8,9,Ticks_ISO_T2_8,6,9999,9999,9999,759894100
49,8,9,Ticks_ISO_T2_8,7,9999,9999,9999,760694900
49,8,9,Ticks_ISO_T2_8,8,9999,9999,9999,761494640
49,8,9,Ticks_ISO_T2_8,9,9999,9999,9999,762294372
49,8,9,Ticks_ISO_T2_8,10,9999,9999,9999,763094108
49,8,9,Ticks_ISO_T2_8,11,9999,9999,9999,763894884
49,8,9,Ticks_ISO_T2_8,12,9999,9999,9999,764694620
49,8,9,Ticks_ISO_T2_8,13,9999,9999,9999,765494352
49,8,9,Ticks_ISO_T2_8,14,9999,9999,9999,766294084
49,8,9,Ticks_ISO_T2_8,15,9999,9999,9999,767094872
49,8,9,Ticks_ISO_T2_8,16,9999,9999,9999,767894608
49,8,9,Ticks_ISO_T2_8,17,9999,9999,9999,768694340
49,8,9,Ticks_ISO_T2_8,18,9999,9999,9999,769494072
49,8,9,Ticks_ISO_T2_8,19,9999,9999,9999,770294852
49,8,9,Ticks_ISO_T2_8,20,9999,9999,9999,771094588
49,8,9,Ticks_ISO_T2_8,21,9999,9999,9999,771894320
49,8,9,Ticks_ISO_T2_8,22,9999,9999,9999,772694084
49,8,9,Ticks_ISO_T2_8,23,9999,9999,9999,773494888
49,8,9,Ticks_ISO_T2_8,24,9999,9999,9999,774294620
49,8,9,Ticks_ISO_T2_8,25,9999,9999,9999,775094356
49,8,9,Ticks_ISO_T2_8,26,9999,9999,9999,775894088
49,8,9,Ticks_ISO_T2_8,27,9999,9999,9999,776694868
49,8,9,Ticks_ISO_T2_8,28,9999,9999,9999,777494628
49,8,9,Ticks_ISO_T2_8,29,9999,9999,9999,778294364
49,8,9,Ticks_ISO_T2_8,30,9999,9999,9999,779094100
49,8,9,Ticks_ISO_T2_8,31,9999,9999,9999,779894900
49,8,9,Ticks_ISO_T2_8,32,9999,9999,9999,780694636
49,8,9,Ticks_ISO_T2_8,33,9999,9999,9999,781494368
49,8,9,Ticks_ISO_T2_8,34,9999,9999,9999,782294100
49,8,9,Ticks_ISO_T2_8,35,9999,9999,9999,783094880
49,8,9,Ticks_ISO_T2_8,36,9999,9999,9999,783894616
49,8,9,Ticks_ISO_T2_8,37,9999,9999,9999,784694348
49,8,9,Ticks_ISO_T2_8,38,9999,9999,9999,785494080
49,8,9,Ticks_ISO_T2_8,39,9999,9999,9999,786294888
49,8,9,Ticks_ISO_T2_8,40,9999,9999,9999,787094624
49,8,9,Ticks_ISO_T2_8,41,9999,9999,9999,787894380
49,8,9,Ticks_ISO_T2_8,42,9999,9999,9999,788694116
49,8,9,Ticks_ISO_T2_8,43,9999,9999,9999,789494896
49,8,9,Ticks_ISO_T2_8,44,9999,9999,9999,790294628
49,8,9,Ticks_ISO_T2_8,45,9999,9999,9999,791094360
49,8,9,Ticks_ISO_T2_8,46,9999,9999,9999,791894092
49,8,9,Ticks_ISO_T2_8,47,9999,9999,9999,792694900
49,8,9,Ticks_ISO_T2_8,48,9999,9999,9999,793494632
49,8,9,Ticks_ISO_T2_8,49,9999,9999,9999,794294364
49,8,9,Ticks_ISO_T2_8,50,9999,9999,9999,795094100
49,8,9,Ticks_ISO_T2_8,51,9999,9999,9999,795894876
49,8,9,Ticks_ISO_T2_8,52,9999,9999,9999,796694612
49,8,9,Ticks_ISO_T2_8,53,9999,9999,9999,797494344
49,8,9,Ticks_ISO_T2_8,54,9999,9999,9999,798294076
49,8,9,Ticks_ISO_T2_8,55,9999,9999,9999,799094876
49,8,9,Ticks_ISO_T2_8,56,9999,9999,9999,799894608
49,8,9,Ticks_ISO_T2_8,57,9999,9999,9999,800694340
49,8,9,Ticks_ISO_T2_8,58,9999,9999,9999,801494072
49,8,9,Ticks_ISO_T2_8,59,9999,9999,9999,802294852
49,8,9,Ticks_ISO_T2_8,60,9999,9999,9999,803094572
49,8,9,Ticks_ISO_T2_8,61,9999,9999,9999,803894380
49,8,9,Ticks_ISO_T2_8,62,9999,9999,9999,804694116
49,8,9,Ticks_ISO_T2_8,63,9999,9999,9999,805494844
49,8,9,Ticks_ISO_T2_8,64,9999,9999,9999,806294580
49,8,9,Ticks_ISO_T2_8,65,9999,9999,9999,807094388
49,8,9,Ticks_ISO_T2_8,66,9999,9999,9999,807894120
49,8,9,Ticks_ISO_T2_8,67,9999,9999,9999,808694900
49,8,9,Ticks_ISO_T2_8,68,9999,9999,9999,809494632
49,8,9,Ticks_ISO_T2_8,69,9999,9999,9999,810294320
49,8,9,Ticks_ISO_T2_8,70,9999,9999,9999,811094128
49,8,9,Ticks_ISO_T2_8,71,9999,9999,9999,811894856
49,8,9,Ticks_ISO_T2_8,72,9999,9999,9999,812694588
49,8,9,Ticks_ISO_T2_8,73,9999,9999,9999,813494320
49,8,9,Ticks_ISO_T2_8,74,9999,9999,9999,814294128
49,8,9,Ticks_ISO_T2_8,75,9999,9999,9999,815094832
49,8,9,Ticks_ISO_T2_8,76,9999,9999,9999,815894592
49,8,9,Ticks_ISO_T2_8,77,9999,9999,9999,816694328
49,8,9,Ticks_ISO_T2_8,78,9999,9999,9999,817494136
49,8,9,Ticks_ISO_T2_8,79,9999,9999,9999,818294864
49,8,9,Ticks_ISO_T2_8,80,9999,9999,9999,819094596
49,8,9,Ticks_ISO_T2_8,81,9999,9999,9999,819894332
49,8,9,Ticks_ISO_T2_8,82,9999,9999,9999,820694064
49,8,9,Ticks_ISO_T2_8,83,9999,9999,9999,821494844
49,8,9,Ticks_ISO_T2_8,84,9999,9999,9999,822294576
49,8,9,Ticks_ISO_T2_8,85,9999,9999,9999,823094384
49,8,9,Ticks_ISO_T2_8,86,9999,9999,9999,823894120
49,8,9,Ticks_ISO_T2_8,87,9999,9999,9999,824694852
49,8,9,Ticks_ISO_T2_8,88,9999,9999,9999,825494584
49,8,9,Ticks_ISO_T2_8,89,9999,9999,9999,826294384
49,8,9,Ticks_ISO_T2_8,90,9999,9999,9999,827094116
49,8,9,Ticks_ISO_T2_8,91,9999,9999,9999,827894892
49,8,9,Ticks_ISO_T2_8,92,9999,9999,9999,828694612
49,8,9,Ticks_ISO_T2_8,93,9999,9999,9999,829494348
49,8,9,Ticks_ISO_T2_8,94,9999,9999,9999,830294080
49,8,9,Ticks_ISO_T2_8,95,9999,9999,9999,831094884
49,8,9,Ticks_ISO_T2_8,96,9999,9999,9999,831894620
49,8,9,Ticks_ISO_T2_8,97,9999,9999,9999,832694352
49,8,9,Ticks_ISO_T2_8,98,9999,9999,9999,833494084
49,8,9,Ticks_ISO_T2_8,99,9999,9999,9999,834294864
49,8,9,Ticks_ISO_T2_8,100,9999,9999,9999,835094596
49,8,9,Ticks_ISO_T2_8,101,9999,9999,9999,835894380
49,8,9,Ticks_ISO_T2_8,102,9999,9999,9999,836694116
49,8,9,Ticks_ISO_T2_8,103,9999,9999,9999,837494844
49,8,9,Ticks_ISO_T2_8,104,9999,9999,9999,838294580
49,8,9,Ticks_ISO_T2_8,105,9999,9999,9999,839094388
49,8,9,Ticks_ISO_T2_8,106,9999,9999,9999,839894116
49,8,9,Ticks_ISO_T2_8,107,9999,9999,9999,840694880
49,8,9,Ticks_ISO_T2_8,108,9999,9999,9999,841494612
49,8,9,Ticks_ISO_T2_8,109,9999,9999,9999,842294360
49,8,9,Ticks_ISO_T2_8,110,9999,9999,9999,843094096
49,8,9,Ticks_ISO_T2_8,111,9999,9999,9999,843894884
49,8,9,Ticks_ISO_T2_8,112,9999,9999,9999,844694636
49,8,9,Ticks_ISO_T2_8,113,9999,9999,9999,845494368
49,8,9,Ticks_ISO_T2_8,114,9999,9999,9999,846294104
49,8,9,Ticks_ISO_T2_8,115,9999,9999,9999,847094884
49,8,9,Ticks_ISO_T2_8,116,9999,9999,9999,847894616
49,8,9,Ticks_ISO_T2_8,117,9999,9999,9999,848694348
49,8,9,Ticks_ISO_T2_8,118,9999,9999,9999,849494084
49,8,9,Ticks_ISO_T2_8,119,9999,9999,9999,850294888
49,9,21,Ticks_Linear_5,0,5,42,127,861679920
49,9,21,Ticks_Linear_5,1,1,48,50,862115184
49,9,21,Ticks_Linear_5,2,5,42,127,862160532
49,9,21,Ticks_Linear_5,3,1,48,54,862576840
49,9,21,Ticks_Linear_5,4,5,42,127,862639416
49,9,21,Ticks_Linear_5,5,1,48,60,863053816
49,9,21,Ticks_Linear_5,6,5,42,127,863119792
49,9,21,Ticks_Linear_5,7,1,48,53,863544756
49,9,21,Ticks_Linear_5,8,5,42,127,863600168
49,9,21,Ticks_Linear_5,9,1,48,52,864036292
49,9,21,Ticks_Linear_5,10,5,42,127,864089660
49,9,21,Ticks_Linear_5,11,1,48,52,864507012
49,9,21,Ticks_Linear_5,12,5,42,127,864579848
49,9,21,Ticks_Linear_5,13,1,48,54,864988072
49,9,21,Ticks_Linear_5,14,5,42,127,865069364
49,9,21,Ticks_Linear_5,15,1,48,62,865467928
49,9,21,Ticks_Linear_5,16,5,42,127,865559852
49,9,21,Ticks_Linear_5,17,1,48,74,865916316
49,9,21,Ticks_Linear_5,18,5,42,127,866050324
49,9,21,Ticks_Linear_5,19,1,48,61,866408692
49,9,21,Ticks_Linear_5,20,5,42,127,866560360
49,9,21,Ticks_Linear_5,21,1,48,65,866886632
49,9,21,Ticks_Linear_5,22,5,42,127,867060204
49,9,21,Ticks_Linear_5,23,1,48,56,867384616
49,9,21,Ticks_Linear_5,24,5,42,127,867559904
49,9,21,Ticks_Linear_5,25,1,48,36,867829648
49,9,21,Ticks_Linear_5,26,5,42,127,868059528
49,9,21,Ticks_Linear_5,27,1,48,42,868312648
49,9,21,Ticks_Linear_5,28,5,42,127,868560348
49,9,21,Ticks_Linear_5,29,1,48,51,868737768
49,9,21,Ticks_Linear_5,30,5,42,127,869070388
49,9,21,Ticks_Linear_5,31,1,48,42,869225024
49,9,21,Ticks_Linear_5,32,5,42,127,869580124
49,9,21,Ticks_Linear_5,33,1,48,42,869635956
49,9,21,Ticks_Linear_5,34,1,48,31,870071764
49,9,21,Ticks_Linear_5,35,5,42,127,870090300
49,9,21,Ticks_Linear_5,36,1,48,52,870530872
49,9,21,Ticks_Linear_5,37,5,42,127,870600184
49,9,21,Ticks_Linear_5,38,1,48,22,871076248
49,9,21,Ticks_Linear_5,39,5,42,127,871109996
49,9,21,Ticks_Linear_5,40,1,48,28,871539864
49,9,21,Ticks_Linear_5,41,1,38,14,871551444
49,9,21,Ticks_Linear_5,42,5,42,127,871630192
49,9,21,Ticks_Linear_5,43,1,48,22,872015216
49,9,21,Ticks_Linear_5,44,1,38,15,872026728
49,9,21,Ticks_Linear_5,45,5,42,127,872150248
49,9,21,Ticks_Linear_5,46,1,48,27,872489636
49,9,21,Ticks_Linear_5,47,1,38,16,872501748
49,9,21,Ticks_Linear_5,48,5,42,127,872669444
49,9,21,Ticks_Linear_5,49,1,48,49,872918064
49,9,21,Ticks_Linear_5,50,5,42,127,873189812
49,9,21,Ticks_Linear_5,51,1,48,31,873428556
49,9,21,Ticks_Linear_5,52,5,42,127,873710032
49,9,21,Ticks_Linear_5,53,1,48,29,873869992
49,9,21,Ticks_Linear_5,54,5,42,127,874240284
49,9,21,Ticks_Linear_5,55,1,48,39,874360180
49,9,21,Ticks_Linear_5,56,5,42,127,874770084
49,9,21,Ticks_Linear_5,57,1,48,45,874806976
49,9,21,Ticks_Linear_5,58,1,48,43,875227660
49,9,21,Ticks_Linear_5,59,5,42,127,875300184
49,9,21,Ticks_Linear_5,60,1,48,45,875729004
49,9,21,Ticks_Linear_5,61,5,42,127,875829600
49,9,21,Ticks_Linear_5,62,1,48,40,876211100
49,9,21,Ticks_Linear_5,63,5,42,127,876360228
49,9,21,Ticks_Linear_5,64,1,48,50,876659884
49,9,21,Ticks_Linear_5,65,5,42,127,876899768
49,9,21,Ticks_Linear_5,66,1,48,57,877195068
49,9,21,Ticks_Linear_5,67,5,42,127,877440232
49,9,21,Ticks_Linear_5,68,1,48,52,877689384
49,9,21,Ticks_Linear_5,69,5,42,127,877979996
49,9,21,Ticks_Linear_5,70,1,48,63,878175424
49,9,21,Ticks_Linear_5,71,5,42,127,878519536
49,9,21,Ticks_Linear_5,72,1,48,58,878730940
49,9,21,Ticks_Linear_5,73,5,42,127,879060272
49,9,21,Ticks_Linear_5,74,1,48,31,879169664
49,9,21,Ticks_Linear_5,75,5,42,127,879610144
49,9,21,Ticks_Linear_5,76,1,48,46,879706868
49,9,21,Ticks_Linear_5,77,5,42,127,880160092
49,9,21,Ticks_Linear_5,78,1,48,42,880161504
49,9,21,Ticks_Linear_5,79,1,48,57,880635696
49,9,21,Ticks_Linear_5,80,5,42,127,880710184
49,9,21,Ticks_Linear_5,81,1,48,49,881150160
49,9,21,Ticks_Linear_5,82,5,42,127,881259920
49,9,21,Ticks_Linear_5,83,1,48,49,881611964
49,9,21,Ticks_Linear_5,84,5,42,127,881809868
49,9,21,Ticks_Linear_5,85,1,48,48,882145584
49,9,21,Ticks_Linear_5,86,5,42,127,882370152
49,9,21,Ticks_Linear_5,87,1,48,47,882652552
49,9,21,Ticks_Linear_5,88,5,42,127,882929984
49,9,21,Ticks_Linear_5,89,1,48,46,883192612
49,9,21,Ticks_Linear_5,90,5,42,127,883490044
49,9,21,Ticks_Linear_5,91,1,48,47,883768176
49,9,21,Ticks_Linear_5,92,5,42,127,884050252
49,9,21,Ticks_Linear_5,93,1,48,34,884315200
49,9,21,Ticks_Linear_5,94,5,42,127,884610484
49,9,21,Ticks_Linear_5,95,1,48,43,884869672
49,9,21,Ticks_Linear_5,96,5,42,127,885190236
49,9,21,Ticks_Linear_5,97,1,48,32,885484016
49,9,21,Ticks_Linear_5,98,5,42,127,885760480
49,9,21,Ticks_Linear_5,99,1,48,45,885902692
49,9,21,Ticks_Linear_5,100,5,42,127,886329824
49,9,21,Ticks_Linear_5,101,1,48,35,886435112
49,9,21,Ticks_Linear_5,102,5,42,127,886899944
49,9,21,Ticks_Linear_5,103,1,48,39,886972780
49,9,21,Ticks_Linear_5,104,1,48,37,887465936
49,9,21,Ticks_Linear_5,105,5,42,127,887469508
49,9,21,Ticks_Linear_5,106,1,48,46,887995220
49,9,21,Ticks_Linear_5,107,5,42,127,888049936
49,9,21,Ticks_Linear_5,108,1,48,45,888545396
49,9,21,Ticks_Linear_5,109,5,42,127,888629912
49,9,21,Ticks_Linear_5,110,1,48,47,889076392
49,9,21,Ticks_Linear_5,111,5,42,127,889210276
49,9,21,Ticks_Linear_5,112,1,48,53,889677564
49,9,21,Ticks_Linear_5,113,5,42,127,889789952
49,9,21,Ticks_Linear_5,114,1,48,52,890248520
49,9,21,Ticks_Linear_5,115,5,42,127,890370532
49,9,21,Ticks_Linear_5,116,1,48,45,890794268
49,9,21,Ticks_Linear_5,117,5,42,127,890969608
49,9,21,Ticks_Linear_5,118,1,48,41,891350884
49,9,21,Ticks_Linear_5,119,5,42,127,891560172
49,9,21,Ticks_Linear_5,120,1,48,40,891885548
49,9,21,Ticks_Linear_5,121,5,42,127,892150184
49,9,21,Ticks_Linear_5,122,1,48,38,892446208
49,9,21,Ticks_Linear_5,123,5,42,127,892739900
49,9,21,Ticks_Linear_5,124,1,48,25,893041492
49,9,21,Ticks_Linear_5,125,5,42,127,893329864
49,9,21,Ticks_Linear_5,126,1,48,41,893620056
49,9,21,Ticks_Linear_5,127,5,42,127,893929840
49,9,21,Ticks_Linear_5,128,1,48,42,894131436
49,9,21,Ticks_Linear_5,129,5,42,127,894529888
49,9,21,Ticks_Linear_5,130,1,48,37,894803228
49,9,21,Ticks_Linear_5,131,5,42,127,895129964
49,9,21,Ticks_Linear_5,132,1,48,37,895404196
49,9,21,Ticks_Linear_5,133,5,42,127,895730008
49,9,21,Ticks_Linear_5,134,1,48,62,896313408
49,9,21,Ticks_Linear_5,135,5,42,127,896330072
49,9,21,Ticks_Linear_5,136,1,48,56,896818728
49,9,21,Ticks_Linear_5,137,5,42,127,896940612
49,9,21,Ticks_Linear_5,138,1,48,48,897399552
49,9,21,Ticks_Linear_5,139,5,42,127,897549576
49,9,21,Ticks_Linear_5,140,1,48,31,897945748
49,9,21,Ticks_Linear_5,141,5,42,127,898160132
49,9,21,Ticks_Linear_5,142,1,48,37,898598380
49,9,21,Ticks_Linear_5,143,5,42,127,898770288
49,9,21,Ticks_Linear_5,144,1,48,44,899211552
49,9,21,Ticks_Linear_5,145,5,42,127,899379700
49,9,21,Ticks_Linear_5,146,1,48,20,899863648
49,9,21,Ticks_Linear_5,147,5,42,127,900000144
49,9,21,Ticks_Linear_5,148,1,48,38,900468592
49,9,21,Ticks_Linear_5,149,5,42,127,900619812
49,9,21,Ticks_Linear_5,150,1,48,38,901123976
49,9,21,Ticks_Linear_5,151,5,42,127,901240180
49,9,21,Ticks_Linear_5,152,1,48,33,901714144
49,9,21,Ticks_Linear_5,153,5,42,127,901859776
49,9,21,Ticks_Linear_5,154,1,48,39,902351288
49,9,21,Ticks_Linear_5,155,5,42,127,902480196
49,9,21,Ticks_Linear_5,156,1,48,42,902941076
49,9,21,Ticks_Linear_5,157,5,42,127,903110000
49,9,21,Ticks_Linear_5,158,1,48,48,903573948
49,9,21,Ticks_Linear_5,159,5,42,127,903739776
49,9,21,Ticks_Linear_5,160,1,48,40,904199540
49,9,21,Ticks_Linear_5,161,5,42,127,904369580
49,9,21,Ticks_Linear_5,162,1,48,46,904813012
49,9,21,Ticks_Linear_5,163,5,42,127,905000480
49,9,21,Ticks_Linear_5,164,1,48,46,905401976
49,9,21,Ticks_Linear_5,165,5,42,127,905629988
49,9,21,Ticks_Linear_5,166,1,48,34,906119628
49,9,21,Ticks_Linear_5,167,5,42,127,906270100
49,9,21,Ticks_Linear_5,168,1,48,45,906778764
49,9,21,Ticks_Linear_5,169,5,42,127,906910160
49,9,21,Ticks_Linear_5,170,1,48,48,907442932
49,9,21,Ticks_Linear_5,171,5,42,127,907550276
49,9,21,Ticks_Linear_5,172,1,48,46,908081552
49,9,21,Ticks_Linear_5,173,5,42,127,908190116
49,9,21,Ticks_Linear_5,174,1,48,18,908665968
49,9,21,Ticks_Linear_5,175,5,42,127,908829928
49,9,21,Ticks_Linear_5,176,1,48,49,909276724
49,9,21,Ticks_Linear_5,177,5,42,127,909480472
49,9,21,Ticks_Linear_5,178,1,48,29,909862400
49,9,21,Ticks_Linear_5,179,5,42,127,910129576
49,9,21,Ticks_Linear_5,180,1,48,24,910524780
49,9,21,Ticks_Linear_5,181,5,42,127,910779824
49,9,21,Ticks_Linear_5,182,1,48,38,911160332
49,9,21,Ticks_Linear_5,183,5,42,127,911430268
49,9,21,Ticks_Linear_5,184,1,48,54,911821136
49,9,21,Ticks_Linear_5,185,5,42,127,912080368
49,9,21,Ticks_Linear_5,186,1,48,30,912544020
49,9,21,Ticks_Linear_5,187,5,42,127,912739804
49,9,21,Ticks_Linear_5,188,1,48,37,913091776
49,9,21,Ticks_Linear_5,189,5,42,127,913400284
49,9,21,Ticks_Linear_5,190,1,48,51,913808224
49,9,21,Ticks_Linear_5,191,5,42,127,914059596
49,9,21,Ticks_Linear_5,192,1,48,53,914449088
49,9,21,Ticks_Linear_5,193,5,42,127,914720224
49,9,21,Ticks_Linear_5,194,1,48,51,915069528
49,9,21,Ticks_Linear_5,195,5,42,127,915379536
49,9,21,Ticks_Linear_5,196,1,48,44,915812304
49,9,21,Ticks_Linear_5,197,5,42,127,916050276
49,9,21,Ticks_Linear_5,198,1,48,64,916392312
49,9,21,Ticks_Linear_5,199,5,42,127,916720144
49,9,21,Ticks_Linear_5,200,1,48,40,916969748
49,9,21,Ticks_Linear_5,201,5,42,127,917389788
49,9,21,Ticks_Linear_5,202,1,48,45,917608468
49,9,21,Ticks_Linear_5,203,5,42,127,918060532
49,9,21,Ticks_Linear_5,204,1,48,30,918256276
49,9,21,Ticks_Linear_5,205,5,42,127,918730248
49,9,21,Ticks_Linear_5,206,1,48,43,918962172
49,9,21,Ticks_Linear_5,207,5,42,127,919410152
49,9,21,Ticks_Linear_5,208,1,48,48,919689108
49,9,21,Ticks_Linear_5,209,5,42,127,920090032
49,9,21,Ticks_Linear_5,210,1,48,57,920316780
49,9,21,Ticks_Linear_5,211,5,42,127,920769936
49,9,21,Ticks_Linear_5,212,1,48,40,921017128
49,9,21,Ticks_Linear_5,213,5,42,127,921450060
49,9,21,Ticks_Linear_5,214,1,48,39,921702204
49,9,21,Ticks_Linear_5,215,5,42,127,922129644
49,9,21,Ticks_Linear_5,216,1,48,41,922385300
49,9,21,Ticks_Linear_5,217,5,42,127,922820252
49,9,21,Ticks_Linear_5,218,1,48,38,923043264
49,9,21,Ticks_Linear_5,219,5,42,127,923510192
49,9,21,Ticks_Linear_5,220,1,48,43,923761068
49,9,21,Ticks_Linear_5,221,5,42,127,924200256
49,9,21,Ticks_Linear_5,222,1,48,40,924423568
49,9,21,Ticks_Linear_5,223,5,42,127,924889372
49,9,21,Ticks_Linear_5,224,1,48,63,925148860
49,9,21,Ticks_Linear_5,225,5,42,127,925579984
49,9,21,Ticks_Linear_5,226,1,48,49,925900356
49,9,21,Ticks_Linear_5,227,5,42,127,926280156
49,9,21,Ticks_Linear_5,228,1,48,35,926571648
49,9,21,Ticks_Linear_5,229,5,42,127,926979460
49,9,21,Ticks_Linear_5,230,1,48,38,927236988
49,9,21,Ticks_Linear_5,231,5,42,127,927679880
49,9,21,Ticks_Linear_5,232,1,48,47,927950080
49,9,21,Ticks_Linear_5,233,5,42,127,928380228
49,9,21,Ticks_Linear_5,234,1,48,45,928678660
49,9,21,Ticks_Linear_5,235,5,42,127,929079656
49,9,21,Ticks_Linear_5,236,1,48,48,929386860
49,9,21,Ticks_Linear_5,237,5,42,127,929790188
49,9,21,Ticks_Linear_5,238,1,48,47,930025776
49,9,21,Ticks_Linear_5,239,5,42,127,930499896
49,9,21,Ticks_Linear_5,240,1,48,48,930677220
49,9,21,Ticks_Linear_5,241,5,42,127,931209456
49,9,21,Ticks_Linear_5,242,5,42,127,931920208
49,9,21,Ticks_Linear_5,243,1,48,50,931955472
49,9,21,Ticks_Linear_5,244,1,48,36,932485024
49,9,21,Ticks_Linear_5,245,5,42,127,932629892
49,9,21,Ticks_Linear_5,246,1,48,41,933220328
49,9,21,Ticks_Linear_5,247,5,42,127,933349688
49,9,21,Ticks_Linear_5,248,1,48,51,933931064
49,9,21,Ticks_Linear_5,249,5,42,127,934069804
49,9,21,Ticks_Linear_5,250,1,48,61,934650956
49,9,21,Ticks_Linear_5,251,5,42,127,934789768
49,9,21,Ticks_Linear_5,252,1,48,52,935353916
49,9,21,Ticks_Linear_5,253,5,42,127,935510460
49,9,21,Ticks_Linear_5,254,1,48,48,936026308
49,9,21,Ticks_Linear_5,255,5,42,127,936230208
49,9,21,Ticks_Linear_5,256,1,48,52,936760808
49,9,21,Ticks_Linear_5,257,5,42,127,936960508
49,9,21,Ticks_Linear_5,258,1,48,52,937433744
49,9,21,Ticks_Linear_5,259,5,42,127,937689688
49,9,21,Ticks_Linear_5,260,1,48,51,938172960
49,9,21,Ticks_Linear_5,261,5,42,127,938419692
49,9,21,Ticks_Linear_5,262,1,48,47,938876668
49,9,21,Ticks_Linear_5,263,5,42,127,939149920
49,9,21,Ticks_Linear_5,264,1,48,60,939539564
49,9,21,Ticks_Linear_5,265,5,42,127,939879700
49,9,21,Ticks_Linear_5,266,1,48,46,940273228
49,9,21,Ticks_Linear_5,267,5,42,127,940620160
49,9,21,Ticks_Linear_5,268,1,48,45,940957776
49,9,21,Ticks_Linear_5,269,5,42,127,941359672
49,9,21,Ticks_Linear_5,270,5,42,127,942099736
49,9,21,Ticks_Linear_5,271,1,48,52,942261788
49,9,21,Ticks_Linear_5,272,1,48,44,942763116
49,9,21,Ticks_Linear_5,273,5,42,127,942840140
49,9,21,Ticks_Linear_5,274,1,48,42,943430412
49,9,21,Ticks_Linear_5,275,5,42,127,943579788
49,9,21,Ticks_Linear_5,276,1,48,47,944109420
49,9,21,Ticks_Linear_5,277,5,42,127,944330160
49,9,21,Ticks_Linear_5,278,1,48,49,944749260
49,9,21,Ticks_Linear_5,279,5,42,127,945079860
49,9,21,Ticks_Linear_5,280,1,48,42,945436464
49,9,21,Ticks_Linear_5,281,5,42,127,945830528
49,9,21,Ticks_Linear_5,282,1,48,29,946130232
49,9,21,Ticks_Linear_5,283,5,42,127,946579932
49,9,21,Ticks_Linear_5,284,1,48,35,946796576
49,9,21,Ticks_Linear_5,285,5,42,127,947330380
49,9,21,Ticks_Linear_5,286,1,48,44,947574208
49,9,21,Ticks_Linear_5,287,5,42,127,948099552
49,9,21,Ticks_Linear_5,288,1,48,52,948318276
49,9,21,Ticks_Linear_5,289,5,42,127,948860332
49,9,21,Ticks_Linear_5,290,1,48,53,949082720
49,9,21,Ticks_Linear_5,291,5,42,127,949619992
49,9,21,Ticks_Linear_5,292,1,48,43,949847184
49,9,21,Ticks_Linear_5,293,5,42,127,950379872
49,9,21,Ticks_Linear_5,294,1,48,46,950611920
49,9,21,Ticks_Linear_5,295,5,42,127,951139832
49,9,21,Ticks_Linear_5,296,1,48,38,951347552
49,9,21,Ticks_Linear_5,297,5,42,127,951909676
49,9,21,Ticks_Linear_5,298,1,48,36,951997408
49,9,21,Ticks_Linear_5,299,5,42,127,952679668
49,9,21,Ticks_Linear_5,300,1,48,38,952722480
49,9,21,Ticks_Linear_5,301,1,48,54,953373348
49,9,21,Ticks_Linear_5,302,5,42,127,953449876
49,9,21,Ticks_Linear_5,303,1,48,43,954021128
49,9,21,Ticks_Linear_5,304,5,42,127,954220004
49,9,21,Ticks_Linear_5,305,1,48,36,954888256
49,9,21,Ticks_Linear_5,306,5,42,127,954989920
49,9,21,Ticks_Linear_5,307,1,48,35,955616676
49,9,21,Ticks_Linear_5,308,5,42,127,955770248
49,9,21,Ticks_Linear_5,309,1,48,32,956462532
49,9,21,Ticks_Linear_5,310,5,42,127,956549468
49,9,21,Ticks_Linear_5,311,1,48,38,957225700
49,9,21,Ticks_Linear_5,312,5,42,127,957329704
49,9,21,Ticks_Linear_5,313,1,48,44,958057276
49,9,21,Ticks_Linear_5,314,5,42,127,958110344
49,9,21,Ticks_Linear_5,315,5,42,127,958890304
49,9,21,Ticks_Linear_5,316,1,48,27,958892320
49,9,21,Ticks_Linear_5,317,1,48,37,959635304
49,9,21,Ticks_Linear_5,318,5,42,127,959679912
49,9,21,Ticks_Linear_5,319,1,48,34,960436076
49,9,21,Ticks_Linear_5,320,5,42,127,960470276
49,9,21,Ticks_Linear_5,321,1,48,25,961257368
49,9,21,Ticks_Linear_5,322,5,42,127,961260112
49,9,21,Ticks_Linear_5,323,1,48,30,961984532
49,9,21,Ticks_Linear_5,324,5,42,127,962050328
49,9,21,Ticks_Linear_5,325,5,42,127,962850284
49,9,21,Ticks_Linear_5,326,1,48,48,962858128
49,9,21,Ticks_Linear_5,327,1,48,40,963627128
49,9,21,Ticks_Linear_5,328,5,42,127,963649852
49,9,21,Ticks_Linear_5,329,1,48,35,964389848
49,9,21,Ticks_Linear_5,330,5,42,127,964449648
49,9,21,Ticks_Linear_5,331,1,48,33,965133780
49,9,21,Ticks_Linear_5,332,5,42,127,965250432
49,9,21,Ticks_Linear_5,333,1,48,29,965908268
49,9,21,Ticks_Linear_5,334,5,42,127,966060340
49,9,21,Ticks_Linear_5,335,1,48,38,966592136
49,9,21,Ticks_Linear_5,336,5,42,127,966860136
49,9,21,Ticks_Linear_5,337,1,48,52,967341316
49,9,21,Ticks_Linear_5,338,5,42,127,967670340
49,9,21,Ticks_Linear_5,339,1,48,40,968109512
49,9,21,Ticks_Linear_5,340,5,42,127,968480248
49,9,21,Ticks_Linear_5,341,1,48,26,968913868
49,9,21,Ticks_Linear_5,342,5,42,127,969290160
49,9,21,Ticks_Linear_5,343,1,48,44,969683192
49,9,21,Ticks_Linear_5,344,5,42,127,970100092
49,9,21,Ticks_Linear_5,345,1,48,35,970549348
49,9,21,Ticks_Linear_5,346,5,42,127,970910224
49,9,21,Ticks_Linear_5,0,9999,9999,9999,861677696
49,9,21,Ticks_Linear_5,1,9999,9999,9999,862157936
49,9,21,Ticks_Linear_5,2,9999,9999,9999,862637120
49,9,21,Ticks_Linear_5,3,9999,9999,9999,863117420
49,9,21,Ticks_Linear_5,4,9999,9999,9999,863597648
49,9,21,Ticks_Linear_5,5,9999,9999,9999,864087140
49,9,21,Ticks_Linear_5,6,9999,9999,9999,864577628
49,9,21,Ticks_Linear_5,7,9999,9999,9999,865067068
49,9,21,Ticks_Linear_5,8,9999,9999,9999,865557628
49,9,21,Ticks_Linear_5,9,9999,9999,9999,866048100
49,9,21,Ticks_Linear_5,10,9999,9999,9999,866558060
49,9,21,Ticks_Linear_5,11,9999,9999,9999,867057756
49,9,21,Ticks_Linear_5,12,9999,9999,9999,867557456
49,9,21,Ticks_Linear_5,13,9999,9999,9999,868057156
49,9,21,Ticks_Linear_5,14,9999,9999,9999,868557904
49,9,21,Ticks_Linear_5,15,9999,9999,9999,869067864
49,9,21,Ticks_Linear_5,16,9999,9999,9999,869577824
49,9,21,Ticks_Linear_5,17,9999,9999,9999,870087776
49,9,21,Ticks_Linear_5,18,9999,9999,9999,870597736
49,9,21,Ticks_Linear_5,19,9999,9999,9999,871107696
49,9,21,Ticks_Linear_5,20,9999,9999,9999,871627896
49,9,21,Ticks_Linear_5,21,9999,9999,9999,872148024
49,9,21,Ticks_Linear_5,22,9999,9999,9999,872667220
49,9,21,Ticks_Linear_5,23,9999,9999,9999,873187440
49,9,21,Ticks_Linear_5,24,9999,9999,9999,873707584
49,9,21,Ticks_Linear_5,25,9999,9999,9999,874238060
49,9,21,Ticks_Linear_5,26,9999,9999,9999,874767416
49,9,21,Ticks_Linear_5,27,9999,9999,9999,875297888
49,9,21,Ticks_Linear_5,28,9999,9999,9999,875827300
49,9,21,Ticks_Linear_5,29,9999,9999,9999,876357704
49,9,21,Ticks_Linear_5,30,9999,9999,9999,876897396
49,9,21,Ticks_Linear_5,31,9999,9999,9999,877438008
49,9,21,Ticks_Linear_5,32,9999,9999,9999,877977696
49,9,21,Ticks_Linear_5,33,9999,9999,9999,878517312
49,9,21,Ticks_Linear_5,34,9999,9999,9999,879058048
49,9,21,Ticks_Linear_5,35,9999,9999,9999,879607920
49,9,21,Ticks_Linear_5,36,9999,9999,9999,880157796
49,9,21,Ticks_Linear_5,37,9999,9999,9999,880707664
49,9,21,Ticks_Linear_5,38,9999,9999,9999,881257544
49,9,21,Ticks_Linear_5,39,9999,9999,9999,881807420
49,9,21,Ticks_Linear_5,40,9999,9999,9999,882367556
49,9,21,Ticks_Linear_5,41,9999,9999,9999,882927688
49,9,21,Ticks_Linear_5,42,9999,9999,9999,883487820
49,9,21,Ticks_Linear_5,43,9999,9999,9999,884047952
49,9,21,Ticks_Linear_5,44,9999,9999,9999,884608112
49,9,21,Ticks_Linear_5,45,9999,9999,9999,885187640
49,9,21,Ticks_Linear_5,46,9999,9999,9999,885758032
49,9,21,Ticks_Linear_5,47,9999,9999,9999,886327380
49,9,21,Ticks_Linear_5,48,9999,9999,9999,886897720
49,9,21,Ticks_Linear_5,49,9999,9999,9999,887467132
49,9,21,Ticks_Linear_5,50,9999,9999,9999,888047712
49,9,21,Ticks_Linear_5,51,9999,9999,9999,888627316
49,9,21,Ticks_Linear_5,52,9999,9999,9999,889207900
49,9,21,Ticks_Linear_5,53,9999,9999,9999,889787508
49,9,21,Ticks_Linear_5,54,9999,9999,9999,890368084
49,9,21,Ticks_Linear_5,55,9999,9999,9999,890967160
49,9,21,Ticks_Linear_5,56,9999,9999,9999,891557948
49,9,21,Ticks_Linear_5,57,9999,9999,9999,892147812
49,9,21,Ticks_Linear_5,58,9999,9999,9999,892737600
49,9,21,Ticks_Linear_5,59,9999,9999,9999,893327416
49,9,21,Ticks_Linear_5,60,9999,9999,9999,893927540
49,9,21,Ticks_Linear_5,61,9999,9999,9999,894527588
49,9,21,Ticks_Linear_5,62,9999,9999,9999,895127664
49,9,21,Ticks_Linear_5,63,9999,9999,9999,895727712
49,9,21,Ticks_Linear_5,64,9999,9999,9999,896327776
49,9,21,Ticks_Linear_5,65,9999,9999,9999,896938092
49,9,21,Ticks_Linear_5,66,9999,9999,9999,897547352
49,9,21,Ticks_Linear_5,67,9999,9999,9999,898157684
49,9,21,Ticks_Linear_5,68,9999,9999,9999,898767992
49,9,21,Ticks_Linear_5,69,9999,9999,9999,899377252
49,9,21,Ticks_Linear_5,70,9999,9999,9999,899997772
49,9,21,Ticks_Linear_5,71,9999,9999,9999,900617292
49,9,21,Ticks_Linear_5,72,9999,9999,9999,901237884
49,9,21,Ticks_Linear_5,73,9999,9999,9999,901857404
49,9,21,Ticks_Linear_5,74,9999,9999,9999,902477892
49,9,21,Ticks_Linear_5,75,9999,9999,9999,903107700
49,9,21,Ticks_Linear_5,76,9999,9999,9999,903737404
49,9,21,Ticks_Linear_5,77,9999,9999,9999,904367208
49,9,21,Ticks_Linear_5,78,9999,9999,9999,904997956
49,9,21,Ticks_Linear_5,79,9999,9999,9999,905627764
49,9,21,Ticks_Linear_5,80,9999,9999,9999,906267724
49,9,21,Ticks_Linear_5,81,9999,9999,9999,906907712
49,9,21,Ticks_Linear_5,82,9999,9999,9999,907547752
49,9,21,Ticks_Linear_5,83,9999,9999,9999,908187740
49,9,21,Ticks_Linear_5,84,9999,9999,9999,908827704
49,9,21,Ticks_Linear_5,85,9999,9999,9999,909477952
49,9,21,Ticks_Linear_5,86,9999,9999,9999,910127204
49,9,21,Ticks_Linear_5,87,9999,9999,9999,910777452
49,9,21,Ticks_Linear_5,88,9999,9999,9999,911427672
49,9,21,Ticks_Linear_5,89,9999,9999,9999,912077920
49,9,21,Ticks_Linear_5,90,9999,9999,9999,912737356
49,9,21,Ticks_Linear_5,91,9999,9999,9999,913397836
49,9,21,Ticks_Linear_5,92,9999,9999,9999,914057296
49,9,21,Ticks_Linear_5,93,9999,9999,9999,914717780
49,9,21,Ticks_Linear_5,94,9999,9999,9999,915377236
49,9,21,Ticks_Linear_5,95,9999,9999,9999,916047980
49,9,21,Ticks_Linear_5,96,9999,9999,9999,916717624
49,9,21,Ticks_Linear_5,97,9999,9999,9999,917387340
49,9,21,Ticks_Linear_5,98,9999,9999,9999,918058080
49,9,21,Ticks_Linear_5,99,9999,9999,9999,918727800
49,9,21,Ticks_Linear_5,100,9999,9999,9999,919407704
49,9,21,Ticks_Linear_5,101,9999,9999,9999,920087660
49,9,21,Ticks_Linear_5,102,9999,9999,9999,920767560
49,9,21,Ticks_Linear_5,103,9999,9999,9999,921447540
49,9,21,Ticks_Linear_5,104,9999,9999,9999,922127420
49,9,21,Ticks_Linear_5,105,9999,9999,9999,922817656
49,9,21,Ticks_Linear_5,106,9999,9999,9999,923507816
49,9,21,Ticks_Linear_5,107,9999,9999,9999,924197960
49,9,21,Ticks_Linear_5,108,9999,9999,9999,924887148
49,9,21,Ticks_Linear_5,109,9999,9999,9999,925577312
49,9,21,Ticks_Linear_5,110,9999,9999,9999,926277708
49,9,21,Ticks_Linear_5,111,9999,9999,9999,926977084
49,9,21,Ticks_Linear_5,112,9999,9999,9999,927677508
49,9,21,Ticks_Linear_5,113,9999,9999,9999,928377928
49,9,21,Ticks_Linear_5,114,9999,9999,9999,929077356
49,9,21,Ticks_Linear_5,115,9999,9999,9999,929787964
49,9,21,Ticks_Linear_5,116,9999,9999,9999,930497596
49,9,21,Ticks_Linear_5,117,9999,9999,9999,931207232
49,9,21,Ticks_Linear_5,118,9999,9999,9999,931917908
49,9,21,Ticks_Linear_5,119,9999,9999,9999,932627520
49,9,21,Ticks_Linear_5,120,9999,9999,9999,933347388
49,9,21,Ticks_Linear_5,121,9999,9999,9999,934067280
49,9,21,Ticks_Linear_5,122,9999,9999,9999,934787172
49,9,21,Ticks_Linear_5,123,9999,9999,9999,935508088
49,9,21,Ticks_Linear_5,124,9999,9999,9999,936227908
49,9,21,Ticks_Linear_5,125,9999,9999,9999,936958060
49,9,21,Ticks_Linear_5,126,9999,9999,9999,937687168
49,9,21,Ticks_Linear_5,127,9999,9999,9999,938417244
49,9,21,Ticks_Linear_5,128,9999,9999,9999,939147324
49,9,21,Ticks_Linear_5,129,9999,9999,9999,939877476
49,9,21,Ticks_Linear_5,130,9999,9999,9999,940617788
49,9,21,Ticks_Linear_5,131,9999,9999,9999,941357152
49,9,21,Ticks_Linear_5,132,9999,9999,9999,942097512
49,9,21,Ticks_Linear_5,133,9999,9999,9999,942837844
49,9,21,Ticks_Linear_5,134,9999,9999,9999,943577192
49,9,21,Ticks_Linear_5,135,9999,9999,9999,944327788
49,9,21,Ticks_Linear_5,136,9999,9999,9999,945077340
49,9,21,Ticks_Linear_5,137,9999,9999,9999,945827932
49,9,21,Ticks_Linear_5,138,9999,9999,9999,946577484
49,9,21,Ticks_Linear_5,139,9999,9999,9999,947328080
49,9,21,Ticks_Linear_5,140,9999,9999,9999,948097100
49,9,21,Ticks_Linear_5,141,9999,9999,9999,948857956
49,9,21,Ticks_Linear_5,142,9999,9999,9999,949617768
49,9,21,Ticks_Linear_5,143,9999,9999,9999,950377576
49,9,21,Ticks_Linear_5,144,9999,9999,9999,951137360
49,9,21,Ticks_Linear_5,145,9999,9999,9999,951907452
49,9,21,Ticks_Linear_5,146,9999,9999,9999,952677444
49,9,21,Ticks_Linear_5,147,9999,9999,9999,953447504
49,9,21,Ticks_Linear_5,148,9999,9999,9999,954217556
49,9,21,Ticks_Linear_5,149,9999,9999,9999,954987624
49,9,21,Ticks_Linear_5,150,9999,9999,9999,955767876
49,9,21,Ticks_Linear_5,151,9999,9999,9999,956547168
49,9,21,Ticks_Linear_5,152,9999,9999,9999,957327480
49,9,21,Ticks_Linear_5,153,9999,9999,9999,958107748
49,9,21,Ticks_Linear_5,154,9999,9999,9999,958888008
49,9,21,Ticks_Linear_5,155,9999,9999,9999,959677540
49,9,21,Ticks_Linear_5,156,9999,9999,9999,960468052
49,9,21,Ticks_Linear_5,157,9999,9999,9999,961257592
49,9,21,Ticks_Linear_5,158,9999,9999,9999,962048104
49,9,21,Ticks_Linear_5,159,9999,9999,9999,962847836
49,9,21,Ticks_Linear_5,160,9999,9999,9999,963647552
49,9,21,Ticks_Linear_5,161,9999,9999,9999,964447352
49,9,21,Ticks_Linear_5,162,9999,9999,9999,965248056
49,9,21,Ticks_Linear_5,163,9999,9999,9999,966058040
49,9,21,Ticks_Linear_5,164,9999,9999,9999,966857836
49,9,21,Ticks_Linear_5,165,9999,9999,9999,967667820
49,9,21,Ticks_Linear_5,166,9999,9999,9999,968477800
49,9,21,Ticks_Linear_5,167,9999,9999,9999,969287784
49,9,21,Ticks_Linear_5,168,9999,9999,9999,970097720
49,9,21,Ticks_Linear_5,169,9999,9999,9999,970907776
49,10,20,Ticks_Linear_8,0,5,42,127,981197100
49,10,20,Ticks_Linear_8,1,1,48,57,981614928
49,10,20,Ticks_Linear_8,2,5,42,127,982017344
49,10,20,Ticks_Linear_8,3,1,48,41,982318320
49,10,20,Ticks_Linear_8,4,5,42,127,982836540
49,10,20,Ticks_Linear_8,5,1,48,41,983107184
49,10,20,Ticks_Linear_8,6,5,42,127,983656804
49,10,20,Ticks_Linear_8,7,1,48,35,983846616
49,10,20,Ticks_Linear_8,8,5,42,127,984477196
49,10,20,Ticks_Linear_8,9,1,48,36,984606732
49,10,20,Ticks_Linear_8,10,5,42,127,985287032
49,10,20,Ticks_Linear_8,11,1,48,50,985298388
49,10,20,Ticks_Linear_8,12,5,42,127,986097012
49,10,20,Ticks_Linear_8,13,1,48,27,986154788
49,10,20,Ticks_Linear_8,14,1,48,36,986886284
49,10,20,Ticks_Linear_8,15,5,42,127,986906988
49,10,20,Ticks_Linear_8,16,1,48,67,987595464
49,10,20,Ticks_Linear_8,17,5,42,127,987717032
49,10,20,Ticks_Linear_8,18,1,48,64,988402072
49,10,20,Ticks_Linear_8,19,5,42,127,988527112
49,10,20,Ticks_Linear_8,20,1,48,51,989231752
49,10,20,Ticks_Linear_8,21,5,42,127,989326704
49,10,20,Ticks_Linear_8,22,1,48,26,990068800
49,10,20,Ticks_Linear_8,23,5,42,127,990126576
49,10,20,Ticks_Linear_8,24,1,48,45,990856768
49,10,20,Ticks_Linear_8,25,5,42,127,990927124
49,10,20,Ticks_Linear_8,26,1,48,33,991605716
49,10,20,Ticks_Linear_8,27,5,42,127,991726984
49,10,20,Ticks_Linear_8,28,1,48,31,992443248
49,10,20,Ticks_Linear_8,29,5,42,127,992526576
49,10,20,Ticks_Linear_8,30,1,48,35,993197156
49,10,20,Ticks_Linear_8,31,1,48,20,993276960
49,10,20,Ticks_Linear_8,32,5,42,127,993317436
49,10,20,Ticks_Linear_8,33,1,48,36,994049572
49,10,20,Ticks_Linear_8,34,5,42,127,994106608
49,10,20,Ticks_Linear_8,35,1,48,43,994837388
49,10,20,Ticks_Linear_8,36,5,42,127,994897488
49,10,20,Ticks_Linear_8,37,1,48,33,995650816
49,10,20,Ticks_Linear_8,38,5,42,127,995686828
49,10,20,Ticks_Linear_8,39,5,42,127,996477276
49,10,20,Ticks_Linear_8,40,1,48,41,996484520
49,10,20,Ticks_Linear_8,41,1,48,34,997191776
49,10,20,Ticks_Linear_8,42,5,42,127,997256472
49,10,20,Ticks_Linear_8,43,5,42,127,998036732
49,10,20,Ticks_Linear_8,44,1,48,50,998408096
49,10,20,Ticks_Linear_8,45,5,42,127,998817356
49,10,20,Ticks_Linear_8,46,1,48,46,998857172
49,10,20,Ticks_Linear_8,47,1,48,35,999512980
49,10,20,Ticks_Linear_8,48,5,42,127,999597376
49,10,20,Ticks_Linear_8,49,1,48,35,1000246740
49,10,20,Ticks_Linear_8,50,5,42,127,1000386900
49,10,20,Ticks_Linear_8,51,1,48,39,1000863880
49,10,20,Ticks_Linear_8,52,5,42,127,1001157196
49,10,20,Ticks_Linear_8,53,1,48,40,1001307916
49,10,20,Ticks_Linear_8,54,5,42,127,1001927036
49,10,20,Ticks_Linear_8,55,1,48,38,1001949404
49,10,20,Ticks_Linear_8,56,1,48,33,1002694056
49,10,20,Ticks_Linear_8,57,5,42,127,1002697324
49,10,20,Ticks_Linear_8,58,5,42,127,1003467252
49,10,20,Ticks_Linear_8,59,1,48,35,1003477860
49,10,20,Ticks_Linear_8,60,1,48,36,1004159316
49,10,20,Ticks_Linear_8,61,5,42,127,1004237388
49,10,20,Ticks_Linear_8,62,1,48,34,1004872816
49,10,20,Ticks_Linear_8,63,5,42,127,1004996884
49,10,20,Ticks_Linear_8,64,1,48,37,1005565900
49,10,20,Ticks_Linear_8,65,5,42,127,1005756768
49,10,20,Ticks_Linear_8,66,1,48,26,1006373704
49,10,20,Ticks_Linear_8,67,5,42,127,1006516572
49,10,20,Ticks_Linear_8,68,1,48,29,1007069716
49,10,20,Ticks_Linear_8,69,5,42,127,1007277356
49,10,20,Ticks_Linear_8,70,1,48,28,1007763764
49,10,20,Ticks_Linear_8,71,5,42,127,1008046452
49,10,20,Ticks_Linear_8,72,1,48,29,1008649692
49,10,20,Ticks_Linear_8,73,5,42,127,1008797196
49,10,20,Ticks_Linear_8,74,1,48,33,1009415568
49,10,20,Ticks_Linear_8,75,5,42,127,1009546596
49,10,20,Ticks_Linear_8,76,1,48,39,1010189828
49,10,20,Ticks_Linear_8,77,5,42,127,1010297268
49,10,20,Ticks_Linear_8,78,1,48,25,1010876024
49,10,20,Ticks_Linear_8,79,5,42,127,1011046816
49,10,20,Ticks_Linear_8,80,1,48,13,1011664652
49,10,20,Ticks_Linear_8,81,5,42,127,1011797316
49,10,20,Ticks_Linear_8,82,1,48,19,1012431732
49,10,20,Ticks_Linear_8,83,5,42,127,1012536608
49,10,20,Ticks_Linear_8,84,1,48,30,1013157848
49,10,20,Ticks_Linear_8,85,5,42,127,1013276944
49,10,20,Ticks_Linear_8,86,1,48,26,1013956148
49,10,20,Ticks_Linear_8,87,5,42,127,1014017296
49,10,20,Ticks_Linear_8,88,1,48,24,1014703444
49,10,20,Ticks_Linear_8,89,5,42,127,1014756884
49,10,20,Ticks_Linear_8,90,1,48,24,1015416084
49,10,20,Ticks_Linear_8,91,5,42,127,1015497224
49,10,20,Ticks_Linear_8,92,1,48,22,1016019276
49,10,20,Ticks_Linear_8,93,5,42,127,1016227064
49,10,20,Ticks_Linear_8,94,5,42,127,1016957164
49,10,20,Ticks_Linear_8,95,1,48,50,1017226984
49,10,20,Ticks_Linear_8,96,5,42,127,1017687292
49,10,20,Ticks_Linear_8,97,1,48,43,1017818940
49,10,20,Ticks_Linear_8,98,5,42,127,1018416472
49,10,20,Ticks_Linear_8,99,1,48,32,1018420936
49,10,20,Ticks_Linear_8,100,1,48,32,1019099176
49,10,20,Ticks_Linear_8,101,5,42,127,1019146620
49,10,20,Ticks_Linear_8,102,1,48,33,1019730004
49,10,20,Ticks_Linear_8,103,5,42,127,1019866424
49,10,20,Ticks_Linear_8,104,5,42,127,1020587312
49,10,20,Ticks_Linear_8,105,1,48,36,1020596724
49,10,20,Ticks_Linear_8,106,1,48,36,1021237340
49,10,20,Ticks_Linear_8,107,5,42,127,1021307200
49,10,20,Ticks_Linear_8,108,1,48,35,1021978496
49,10,20,Ticks_Linear_8,109,5,42,127,1022026992
49,10,20,Ticks_Linear_8,110,1,48,29,1022744592
49,10,20,Ticks_Linear_8,111,5,42,127,1022747108
49,10,20,Ticks_Linear_8,112,1,48,32,1023439928
49,10,20,Ticks_Linear_8,113,5,42,127,1023456892
49,10,20,Ticks_Linear_8,114,5,42,127,1024167284
49,10,20,Ticks_Linear_8,115,1,48,22,1024170848
49,10,20,Ticks_Linear_8,116,1,48,29,1024875024
49,10,20,Ticks_Linear_8,117,5,42,127,1024876840
49,10,20,Ticks_Linear_8,118,1,48,21,1025530240
49,10,20,Ticks_Linear_8,119,5,42,127,1025586748
49,10,20,Ticks_Linear_8,120,1,48,14,1026269752
49,10,20,Ticks_Linear_8,121,5,42,127,1026297204
49,10,20,Ticks_Linear_8,122,1,48,31,1026946440
49,10,20,Ticks_Linear_8,123,5,42,127,1026996580
49,10,20,Ticks_Linear_8,124,1,48,28,1027614696
49,10,20,Ticks_Linear_8,125,5,42,127,1027696928
49,10,20,Ticks_Linear_8,126,1,48,23,1028294524
49,10,20,Ticks_Linear_8,127,5,42,127,1028397532
49,10,20,Ticks_Linear_8,128,1,48,19,1029039440
49,10,20,Ticks_Linear_8,129,5,42,127,1029107032
49,10,20,Ticks_Linear_8,130,5,42,127,1029806416
49,10,20,Ticks_Linear_8,131,1,48,26,1030427180
49,10,20,Ticks_Linear_8,132,5,42,127,1030496592
49,10,20,Ticks_Linear_8,133,1,48,27,1031087392
49,10,20,Ticks_Linear_8,134,5,42,127,1031186792
49,10,20,Ticks_Linear_8,135,1,48,29,1031782188
49,10,20,Ticks_Linear_8,136,5,42,127,1031876892
49,10,20,Ticks_Linear_8,137,1,48,27,1032474120
49,10,20,Ticks_Linear_8,138,5,42,127,1032567204
49,10,20,Ticks_Linear_8,139,1,48,23,1033191548
49,10,20,Ticks_Linear_8,140,5,42,127,1033257344
49,10,20,Ticks_Linear_8,141,1,48,28,1033864644
49,10,20,Ticks_Linear_8,142,5,42,127,1033937248
49,10,20,Ticks_Linear_8,143,1,48,24,1034456680
49,10,20,Ticks_Linear_8,144,5,42,127,1034617288
49,10,20,Ticks_Linear_8,145,1,48,19,1035205552
49,10,20,Ticks_Linear_8,146,5,42,127,1035297032
49,10,20,Ticks_Linear_8,147,5,42,127,1035977016
49,10,20,Ticks_Linear_8,148,1,48,26,1036586476
49,10,20,Ticks_Linear_8,149,5,42,127,1036657084
49,10,20,Ticks_Linear_8,150,1,48,27,1037273636
49,10,20,Ticks_Linear_8,151,5,42,127,1037326780
49,10,20,Ticks_Linear_8,152,1,48,29,1037966808
49,10,20,Ticks_Linear_8,153,5,42,127,1037997696
49,10,20,Ticks_Linear_8,154,1,48,30,1038647732
49,10,20,Ticks_Linear_8,155,5,42,127,1038677576
49,10,20,Ticks_Linear_8,156,1,48,27,1039346856
49,10,20,Ticks_Linear_8,157,5,42,127,1039348564
49,10,20,Ticks_Linear_8,158,5,42,127,1040016800
49,10,20,Ticks_Linear_8,159,1,48,21,1040055644
49,10,20,Ticks_Linear_8,160,5,42,127,1040677208
49,10,20,Ticks_Linear_8,161,1,48,29,1040693428
49,10,20,Ticks_Linear_8,162,5,42,127,1041336668
49,10,20,Ticks_Linear_8,163,1,48,39,1041397672
49,10,20,Ticks_Linear_8,164,5,42,127,1041997224
49,10,20,Ticks_Linear_8,165,1,48,37,1042056388
49,10,20,Ticks_Linear_8,166,5,42,127,1042656608
49,10,20,Ticks_Linear_8,167,1,48,27,1042695604
49,10,20,Ticks_Linear_8,168,5,42,127,1043317268
49,10,20,Ticks_Linear_8,169,1,48,35,1043326604
49,10,20,Ticks_Linear_8,170,5,42,127,1043967340
49,10,20,Ticks_Linear_8,171,1,48,31,1044005808
49,10,20,Ticks_Linear_8,172,5,42,127,1044616468
49,10,20,Ticks_Linear_8,173,1,48,36,1044641972
49,10,20,Ticks_Linear_8,174,5,42,127,1045266764
49,10,20,Ticks_Linear_8,175,1,48,39,1045287336
49,10,20,Ticks_Linear_8,176,5,42,127,1045917232
49,10,20,Ticks_Linear_8,177,1,48,36,1045945372
49,10,20,Ticks_Linear_8,178,5,42,127,1046567456
49,10,20,Ticks_Linear_8,179,1,48,25,1046592816
49,10,20,Ticks_Linear_8,180,5,42,127,1047207444
49,10,20,Ticks_Linear_8,181,1,48,29,1047225244
49,10,20,Ticks_Linear_8,182,1,48,25,1047830588
49,10,20,Ticks_Linear_8,183,5,42,127,1047847400
49,10,20,Ticks_Linear_8,184,1,48,24,1048444432
49,10,20,Ticks_Linear_8,185,5,42,127,1048487388
49,10,20,Ticks_Linear_8,186,1,48,27,1049076020
49,10,20,Ticks_Linear_8,187,5,42,127,1049127428
49,10,20,Ticks_Linear_8,188,1,48,23,1049708744
49,10,20,Ticks_Linear_8,189,5,42,127,1049767416
49,10,20,Ticks_Linear_8,190,1,48,36,1050330728
49,10,20,Ticks_Linear_8,191,5,42,127,1050397344
49,10,20,Ticks_Linear_8,192,1,48,25,1050974840
49,10,20,Ticks_Linear_8,193,5,42,127,1051026776
49,10,20,Ticks_Linear_8,194,1,48,31,1051597580
49,10,20,Ticks_Linear_8,195,5,42,127,1051656632
49,10,20,Ticks_Linear_8,196,1,48,52,1052162872
49,10,20,Ticks_Linear_8,197,5,42,127,1052287392
49,10,20,Ticks_Linear_8,198,5,42,127,1052917268
49,10,20,Ticks_Linear_8,199,1,48,26,1052919864
49,10,20,Ticks_Linear_8,200,1,48,22,1053524448
49,10,20,Ticks_Linear_8,201,5,42,127,1053536508
49,10,20,Ticks_Linear_8,202,5,42,127,1054157380
49,10,20,Ticks_Linear_8,203,1,48,43,1054604860
49,10,20,Ticks_Linear_8,204,5,42,127,1054776676
49,10,20,Ticks_Linear_8,205,1,48,43,1055021180
49,10,20,Ticks_Linear_8,206,5,42,127,1055397416
49,10,20,Ticks_Linear_8,207,1,48,37,1055462388
49,10,20,Ticks_Linear_8,208,1,48,43,1055965596
49,10,20,Ticks_Linear_8,209,5,42,127,1056016856
49,10,20,Ticks_Linear_8,210,1,48,46,1056533208
49,10,20,Ticks_Linear_8,211,5,42,127,1056627248
49,10,20,Ticks_Linear_8,212,1,48,46,1057091396
49,10,20,Ticks_Linear_8,213,5,42,127,1057237332
49,10,20,Ticks_Linear_8,214,1,48,39,1057692440
49,10,20,Ticks_Linear_8,215,5,42,127,1057846668
49,10,20,Ticks_Linear_8,216,1,48,67,1058333228
49,10,20,Ticks_Linear_8,217,5,42,127,1058457148
49,10,20,Ticks_Linear_8,218,1,48,106,1058949104
49,10,20,Ticks_Linear_8,219,1,38,22,1058958972
49,10,20,Ticks_Linear_8,220,5,42,127,1059067188
49,10,20,Ticks_Linear_8,221,1,48,90,1059654932
49,10,20,Ticks_Linear_8,222,1,38,20,1059664780
49,10,20,Ticks_Linear_8,223,5,42,127,1059667232
49,10,20,Ticks_Linear_8,224,5,42,127,1060267284
49,10,20,Ticks_Linear_8,225,1,48,92,1060312856
49,10,20,Ticks_Linear_8,226,1,38,20,1060322796
49,10,20,Ticks_Linear_8,227,5,42,127,1060866384
49,10,20,Ticks_Linear_8,228,1,48,88,1060906276
49,10,20,Ticks_Linear_8,229,1,38,19,1060916816
49,10,20,Ticks_Linear_8,230,5,42,127,1061466608
49,10,20,Ticks_Linear_8,231,1,48,96,1061539696
49,10,20,Ticks_Linear_8,232,1,38,21,1061549640
49,10,20,Ticks_Linear_8,233,5,42,127,1062066416
49,10,20,Ticks_Linear_8,234,1,48,66,1062076428
49,10,20,Ticks_Linear_8,235,1,48,84,1062617220
49,10,20,Ticks_Linear_8,236,5,42,127,1062657396
49,10,20,Ticks_Linear_8,237,1,48,73,1063171352
49,10,20,Ticks_Linear_8,238,5,42,127,1063247260
49,10,20,Ticks_Linear_8,239,1,48,78,1063749312
49,10,20,Ticks_Linear_8,240,5,42,127,1063837148
49,10,20,Ticks_Linear_8,241,1,48,76,1064318984
49,10,20,Ticks_Linear_8,242,5,42,127,1064426996
49,10,20,Ticks_Linear_8,243,1,48,84,1064887132
49,10,20,Ticks_Linear_8,244,1,38,19,1064897072
49,10,20,Ticks_Linear_8,245,5,42,127,1065016888
49,10,20,Ticks_Linear_8,246,1,48,77,1065424292
49,10,20,Ticks_Linear_8,247,5,42,127,1065597196
49,10,20,Ticks_Linear_8,248,1,48,66,1066047940
49,10,20,Ticks_Linear_8,249,5,42,127,1066176948
49,10,20,Ticks_Linear_8,250,1,48,84,1066627944
49,10,20,Ticks_Linear_8,251,1,38,19,1066637888
49,10,20,Ticks_Linear_8,252,5,42,127,1066756356
49,10,20,Ticks_Linear_8,253,1,48,80,1067245024
49,10,20,Ticks_Linear_8,254,1,38,19,1067254964
49,10,20,Ticks_Linear_8,255,5,42,127,1067337076
49,10,20,Ticks_Linear_8,256,1,48,73,1067866888
49,10,20,Ticks_Linear_8,257,5,42,127,1067916828
49,10,20,Ticks_Linear_8,258,1,48,90,1068475428
49,10,20,Ticks_Linear_8,259,1,38,19,1068485924
49,10,20,Ticks_Linear_8,260,5,42,127,1068488320
49,10,20,Ticks_Linear_8,261,5,42,127,1069057348
49,10,20,Ticks_Linear_8,262,1,48,91,1069088256
49,10,20,Ticks_Linear_8,263,5,42,127,1069626772
49,10,20,Ticks_Linear_8,264,1,48,82,1069640296
49,10,20,Ticks_Linear_8,265,1,48,83,1070150832
49,10,20,Ticks_Linear_8,266,5,42,127,1070197180
49,10,20,Ticks_Linear_8,267,1,48,91,1070696088
49,10,20,Ticks_Linear_8,268,1,38,20,1070705956
49,10,20,Ticks_Linear_8,269,5,42,127,1070766508
49,10,20,Ticks_Linear_8,270,1,48,87,1071277076
49,10,20,Ticks_Linear_8,271,1,38,19,1071287088
49,10,20,Ticks_Linear_8,272,5,42,127,1071326668
49,10,20,Ticks_Linear_8,273,1,48,78,1071780164
49,10,20,Ticks_Linear_8,274,5,42,127,1071886756
49,10,20,Ticks_Linear_8,275,1,48,85,1072217612
49,10,20,Ticks_Linear_8,276,5,42,127,1072447040
49,10,20,Ticks_Linear_8,277,1,48,72,1072792140
49,10,20,Ticks_Linear_8,278,5,42,127,1073006976
49,10,20,Ticks_Linear_8,279,1,48,60,1073370024
49,10,20,Ticks_Linear_8,280,5,42,127,1073567036
49,10,20,Ticks_Linear_8,281,1,48,65,1073909712
49,10,20,Ticks_Linear_8,282,5,42,127,1074116984
49,10,20,Ticks_Linear_8,283,1,48,71,1074455100
49,10,20,Ticks_Linear_8,284,5,42,127,1074666784
49,10,20,Ticks_Linear_8,285,1,48,92,1074978388
49,10,20,Ticks_Linear_8,286,1,38,22,1074988476
49,10,20,Ticks_Linear_8,287,5,42,127,1075216908
49,10,20,Ticks_Linear_8,288,1,48,90,1075517808
49,10,20,Ticks_Linear_8,289,1,38,21,1075527748
49,10,20,Ticks_Linear_8,290,5,42,127,1075766736
49,10,20,Ticks_Linear_8,291,1,48,78,1076029740
49,10,20,Ticks_Linear_8,292,1,38,19,1076039600
49,10,20,Ticks_Linear_8,293,5,42,127,1076316660
49,10,20,Ticks_Linear_8,294,1,48,72,1076558972
49,10,20,Ticks_Linear_8,295,5,42,127,1076857172
49,10,20,Ticks_Linear_8,296,1,48,73,1077112912
49,10,20,Ticks_Linear_8,297,5,42,127,1077396788
49,10,20,Ticks_Linear_8,298,1,48,81,1077637704
49,10,20,Ticks_Linear_8,299,5,42,127,1077936480
49,10,20,Ticks_Linear_8,300,1,48,73,1078147588
49,10,20,Ticks_Linear_8,301,5,42,127,1078477288
49,10,20,Ticks_Linear_8,302,1,48,77,1078679860
49,10,20,Ticks_Linear_8,303,5,42,127,1079016756
49,10,20,Ticks_Linear_8,304,1,48,59,1079236476
49,10,20,Ticks_Linear_8,305,5,42,127,1079547380
49,10,20,Ticks_Linear_8,306,1,48,50,1079784708
49,10,20,Ticks_Linear_8,307,5,42,127,1080076664
49,10,20,Ticks_Linear_8,308,1,48,69,1080319148
49,10,20,Ticks_Linear_8,309,5,42,127,1080606992
49,10,20,Ticks_Linear_8,310,1,48,86,1080836748
49,10,20,Ticks_Linear_8,311,1,38,19,1080846840
49,10,20,Ticks_Linear_8,312,5,42,127,1081136524
49,10,20,Ticks_Linear_8,313,1,48,68,1081371668
49,10,20,Ticks_Linear_8,314,5,42,127,1081666852
49,10,20,Ticks_Linear_8,315,1,48,92,1081885672
49,10,20,Ticks_Linear_8,316,1,38,20,1081895540
49,10,20,Ticks_Linear_8,317,5,42,127,1082187172
49,10,20,Ticks_Linear_8,318,1,48,69,1082447704
49,10,20,Ticks_Linear_8,319,5,42,127,1082707316
49,10,20,Ticks_Linear_8,320,1,48,68,1082979780
49,10,20,Ticks_Linear_8,321,5,42,127,1083226488
49,10,20,Ticks_Linear_8,322,1,48,68,1083505468
49,10,20,Ticks_Linear_8,323,5,42,127,1083746584
49,10,20,Ticks_Linear_8,324,1,48,73,1084065752
49,10,20,Ticks_Linear_8,325,5,42,127,1084266876
49,10,20,Ticks_Linear_8,326,1,48,74,1084616672
49,10,20,Ticks_Linear_8,327,5,42,127,1084776760
49,10,20,Ticks_Linear_8,328,1,48,59,1085140336
49,10,20,Ticks_Linear_8,329,5,42,127,1085286648
49,10,20,Ticks_Linear_8,330,1,48,75,1085653732
49,10,20,Ticks_Linear_8,331,5,42,127,1085796828
49,10,20,Ticks_Linear_8,332,1,48,67,1086189236
49,10,20,Ticks_Linear_8,333,5,42,127,1086306640
49,10,20,Ticks_Linear_8,334,1,48,79,1086747424
49,10,20,Ticks_Linear_8,335,5,42,127,1086816540
49,10,20,Ticks_Linear_8,336,1,48,69,1087295804
49,10,20,Ticks_Linear_8,337,5,42,127,1087317556
49,10,20,Ticks_Linear_8,338,5,42,127,1087817040
49,10,20,Ticks_Linear_8,339,1,48,76,1087867368
49,10,20,Ticks_Linear_8,340,5,42,127,1088316740
49,10,20,Ticks_Linear_8,341,1,48,101,1088408400
49,10,20,Ticks_Linear_8,342,5,42,127,1088816592
49,10,20,Ticks_Linear_8,343,1,48,48,1088929220
49,10,20,Ticks_Linear_8,344,5,42,127,1089317188
49,10,20,Ticks_Linear_8,345,1,48,103,1089433180
49,10,20,Ticks_Linear_8,346,5,42,127,1089806704
49,10,20,Ticks_Linear_8,347,1,48,68,1089935440
49,10,20,Ticks_Linear_8,348,5,42,127,1090297344
49,10,20,Ticks_Linear_8,349,1,48,85,1090468312
49,10,20,Ticks_Linear_8,350,5,42,127,1090786708
49,10,20,Ticks_Linear_8,351,1,48,79,1090967336
49,10,20,Ticks_Linear_8,352,5,42,127,1091277120
49,10,20,Ticks_Linear_8,353,1,48,87,1091454072
49,10,20,Ticks_Linear_8,354,5,42,127,1091766636
49,10,20,Ticks_Linear_8,0,9999,9999,9999,981194876
49,10,20,Ticks_Linear_8,1,9999,9999,9999,982015040
49,10,20,Ticks_Linear_8,2,9999,9999,9999,982834236
49,10,20,Ticks_Linear_8,3,9999,9999,9999,983654504
49,10,20,Ticks_Linear_8,4,9999,9999,9999,984474744
49,10,20,Ticks_Linear_8,5,9999,9999,9999,985284728
49,10,20,Ticks_Linear_8,6,9999,9999,9999,986094712
49,10,20,Ticks_Linear_8,7,9999,9999,9999,986904688
49,10,20,Ticks_Linear_8,8,9999,9999,9999,987714656
49,10,20,Ticks_Linear_8,9,9999,9999,9999,988524664
49,10,20,Ticks_Linear_8,10,9999,9999,9999,989324404
49,10,20,Ticks_Linear_8,11,9999,9999,9999,990124128
49,10,20,Ticks_Linear_8,12,9999,9999,9999,990924900
49,10,20,Ticks_Linear_8,13,9999,9999,9999,991724608
49,10,20,Ticks_Linear_8,14,9999,9999,9999,992524348
49,10,20,Ticks_Linear_8,15,9999,9999,9999,993314912
49,10,20,Ticks_Linear_8,16,9999,9999,9999,994104380
49,10,20,Ticks_Linear_8,17,9999,9999,9999,994894964
49,10,20,Ticks_Linear_8,18,9999,9999,9999,995684456
49,10,20,Ticks_Linear_8,19,9999,9999,9999,996474972
49,10,20,Ticks_Linear_8,20,9999,9999,9999,997254248
49,10,20,Ticks_Linear_8,21,9999,9999,9999,998034504
49,10,20,Ticks_Linear_8,22,9999,9999,9999,998814832
49,10,20,Ticks_Linear_8,23,9999,9999,9999,999595076
49,10,20,Ticks_Linear_8,24,9999,9999,9999,1000384600
49,10,20,Ticks_Linear_8,25,9999,9999,9999,1001154668
49,10,20,Ticks_Linear_8,26,9999,9999,9999,1001924660
49,10,20,Ticks_Linear_8,27,9999,9999,9999,1002694728
49,10,20,Ticks_Linear_8,28,9999,9999,9999,1003464800
49,10,20,Ticks_Linear_8,29,9999,9999,9999,1004234864
49,10,20,Ticks_Linear_8,30,9999,9999,9999,1004994656
49,10,20,Ticks_Linear_8,31,9999,9999,9999,1005754464
49,10,20,Ticks_Linear_8,32,9999,9999,9999,1006514272
49,10,20,Ticks_Linear_8,33,9999,9999,9999,1007275128
49,10,20,Ticks_Linear_8,34,9999,9999,9999,1008044148
49,10,20,Ticks_Linear_8,35,9999,9999,9999,1008794744
49,10,20,Ticks_Linear_8,36,9999,9999,9999,1009544296
49,10,20,Ticks_Linear_8,37,9999,9999,9999,1010294892
49,10,20,Ticks_Linear_8,38,9999,9999,9999,1011044444
49,10,20,Ticks_Linear_8,39,9999,9999,9999,1011795016
49,10,20,Ticks_Linear_8,40,9999,9999,9999,1012534380
49,10,20,Ticks_Linear_8,41,9999,9999,9999,1013274720
49,10,20,Ticks_Linear_8,42,9999,9999,9999,1014015072
49,10,20,Ticks_Linear_8,43,9999,9999,9999,1014754360
49,10,20,Ticks_Linear_8,44,9999,9999,9999,1015494772
49,10,20,Ticks_Linear_8,45,9999,9999,9999,1016224836
49,10,20,Ticks_Linear_8,46,9999,9999,9999,1016954936
49,10,20,Ticks_Linear_8,47,9999,9999,9999,1017685064
49,10,20,Ticks_Linear_8,48,9999,9999,9999,1018414172
49,10,20,Ticks_Linear_8,49,9999,9999,9999,1019144244
49,10,20,Ticks_Linear_8,50,9999,9999,9999,1019864124
49,10,20,Ticks_Linear_8,51,9999,9999,9999,1020585084
49,10,20,Ticks_Linear_8,52,9999,9999,9999,1021304896
49,10,20,Ticks_Linear_8,53,9999,9999,9999,1022024764
49,10,20,Ticks_Linear_8,54,9999,9999,9999,1022744660
49,10,20,Ticks_Linear_8,55,9999,9999,9999,1023454296
49,10,20,Ticks_Linear_8,56,9999,9999,9999,1024164984
49,10,20,Ticks_Linear_8,57,9999,9999,9999,1024874560
49,10,20,Ticks_Linear_8,58,9999,9999,9999,1025584224
49,10,20,Ticks_Linear_8,59,9999,9999,9999,1026294904
49,10,20,Ticks_Linear_8,60,9999,9999,9999,1026994276
49,10,20,Ticks_Linear_8,61,9999,9999,9999,1027694700
49,10,20,Ticks_Linear_8,62,9999,9999,9999,1028395080
49,10,20,Ticks_Linear_8,63,9999,9999,9999,1029104732
49,10,20,Ticks_Linear_8,64,9999,9999,9999,1029804112
49,10,20,Ticks_Linear_8,65,9999,9999,9999,1030494268
49,10,20,Ticks_Linear_8,66,9999,9999,9999,1031184492
49,10,20,Ticks_Linear_8,67,9999,9999,9999,1031874668
49,10,20,Ticks_Linear_8,68,9999,9999,9999,1032564832
49,10,20,Ticks_Linear_8,69,9999,9999,9999,1033254968
49,10,20,Ticks_Linear_8,70,9999,9999,9999,1033934948
49,10,20,Ticks_Linear_8,71,9999,9999,9999,1034614912
49,10,20,Ticks_Linear_8,72,9999,9999,9999,1035294804
49,10,20,Ticks_Linear_8,73,9999,9999,9999,1035974716
49,10,20,Ticks_Linear_8,74,9999,9999,9999,1036654708
49,10,20,Ticks_Linear_8,75,9999,9999,9999,1037324404
49,10,20,Ticks_Linear_8,76,9999,9999,9999,1037995096
49,10,20,Ticks_Linear_8,77,9999,9999,9999,1038675052
49,10,20,Ticks_Linear_8,78,9999,9999,9999,1039344704
49,10,20,Ticks_Linear_8,79,9999,9999,9999,1040014424
49,10,20,Ticks_Linear_8,80,9999,9999,9999,1040674908
49,10,20,Ticks_Linear_8,81,9999,9999,9999,1041334364
49,10,20,Ticks_Linear_8,82,9999,9999,9999,1041994848
49,10,20,Ticks_Linear_8,83,9999,9999,9999,1042654308
49,10,20,Ticks_Linear_8,84,9999,9999,9999,1043314816
49,10,20,Ticks_Linear_8,85,9999,9999,9999,1043965040
49,10,20,Ticks_Linear_8,86,9999,9999,9999,1044614240
49,10,20,Ticks_Linear_8,87,9999,9999,9999,1045264464
49,10,20,Ticks_Linear_8,88,9999,9999,9999,1045914708
49,10,20,Ticks_Linear_8,89,9999,9999,9999,1046564932
49,10,20,Ticks_Linear_8,90,9999,9999,9999,1047204920
49,10,20,Ticks_Linear_8,91,9999,9999,9999,1047844952
49,10,20,Ticks_Linear_8,92,9999,9999,9999,1048484940
49,10,20,Ticks_Linear_8,93,9999,9999,9999,1049124980
49,10,20,Ticks_Linear_8,94,9999,9999,9999,1049764968
49,10,20,Ticks_Linear_8,95,9999,9999,9999,1050394748
49,10,20,Ticks_Linear_8,96,9999,9999,9999,1051024476
49,10,20,Ticks_Linear_8,97,9999,9999,9999,1051654256
49,10,20,Ticks_Linear_8,98,9999,9999,9999,1052285016
49,10,20,Ticks_Linear_8,99,9999,9999,9999,1052914744
49,10,20,Ticks_Linear_8,100,9999,9999,9999,1053534280
49,10,20,Ticks_Linear_8,101,9999,9999,9999,1054154856
49,10,20,Ticks_Linear_8,102,9999,9999,9999,1054774376
49,10,20,Ticks_Linear_8,103,9999,9999,9999,1055394892
49,10,20,Ticks_Linear_8,104,9999,9999,9999,1056014408
49,10,20,Ticks_Linear_8,105,9999,9999,9999,1056624740
49,10,20,Ticks_Linear_8,106,9999,9999,9999,1057235032
49,10,20,Ticks_Linear_8,107,9999,9999,9999,1057844292
49,10,20,Ticks_Linear_8,108,9999,9999,9999,1058454624
49,10,20,Ticks_Linear_8,109,9999,9999,9999,1059064960
49,10,20,Ticks_Linear_8,110,9999,9999,9999,1059665004
49,10,20,Ticks_Linear_8,111,9999,9999,9999,1060265056
49,10,20,Ticks_Linear_8,112,9999,9999,9999,1060864084
49,10,20,Ticks_Linear_8,113,9999,9999,9999,1061464160
49,10,20,Ticks_Linear_8,114,9999,9999,9999,1062064188
49,10,20,Ticks_Linear_8,115,9999,9999,9999,1062655092
49,10,20,Ticks_Linear_8,116,9999,9999,9999,1063244884
49,10,20,Ticks_Linear_8,117,9999,9999,9999,1063834696
49,10,20,Ticks_Linear_8,118,9999,9999,9999,1064424544
49,10,20,Ticks_Linear_8,119,9999,9999,9999,1065014364
49,10,20,Ticks_Linear_8,120,9999,9999,9999,1065594968
49,10,20,Ticks_Linear_8,121,9999,9999,9999,1066174572
49,10,20,Ticks_Linear_8,122,9999,9999,9999,1066754128
49,10,20,Ticks_Linear_8,123,9999,9999,9999,1067334776
49,10,20,Ticks_Linear_8,124,9999,9999,9999,1067914304
49,10,20,Ticks_Linear_8,125,9999,9999,9999,1068484696
49,10,20,Ticks_Linear_8,126,9999,9999,9999,1069055048
49,10,20,Ticks_Linear_8,127,9999,9999,9999,1069624396
49,10,20,Ticks_Linear_8,128,9999,9999,9999,1070194804
49,10,20,Ticks_Linear_8,129,9999,9999,9999,1070764132
49,10,20,Ticks_Linear_8,130,9999,9999,9999,1071324220
49,10,20,Ticks_Linear_8,131,9999,9999,9999,1071884380
49,10,20,Ticks_Linear_8,132,9999,9999,9999,1072444512
49,10,20,Ticks_Linear_8,133,9999,9999,9999,1073004600
49,10,20,Ticks_Linear_8,134,9999,9999,9999,1073564732
49,10,20,Ticks_Linear_8,135,9999,9999,9999,1074114680
49,10,20,Ticks_Linear_8,136,9999,9999,9999,1074664556
49,10,20,Ticks_Linear_8,137,9999,9999,9999,1075214456
49,10,20,Ticks_Linear_8,138,9999,9999,9999,1075764284
49,10,20,Ticks_Linear_8,139,9999,9999,9999,1076314184
49,10,20,Ticks_Linear_8,140,9999,9999,9999,1076854872
49,10,20,Ticks_Linear_8,141,9999,9999,9999,1077394488
49,10,20,Ticks_Linear_8,142,9999,9999,9999,1077934176
49,10,20,Ticks_Linear_8,143,9999,9999,9999,1078474840
49,10,20,Ticks_Linear_8,144,9999,9999,9999,1079014452
49,10,20,Ticks_Linear_8,145,9999,9999,9999,1079544932
49,10,20,Ticks_Linear_8,146,9999,9999,9999,1080074364
49,10,20,Ticks_Linear_8,147,9999,9999,9999,1080604764
49,10,20,Ticks_Linear_8,148,9999,9999,9999,1081134148
49,10,20,Ticks_Linear_8,149,9999,9999,9999,1081664624
49,10,20,Ticks_Linear_8,150,9999,9999,9999,1082184796
49,10,20,Ticks_Linear_8,151,9999,9999,9999,1082705016
49,10,20,Ticks_Linear_8,152,9999,9999,9999,1083224188
49,10,20,Ticks_Linear_8,153,9999,9999,9999,1083744356
49,10,20,Ticks_Linear_8,154,9999,9999,9999,1084264572
49,10,20,Ticks_Linear_8,155,9999,9999,9999,1084774460
49,10,20,Ticks_Linear_8,156,9999,9999,9999,1085284420
49,10,20,Ticks_Linear_8,157,9999,9999,9999,1085794380
49,10,20,Ticks_Linear_8,158,9999,9999,9999,1086304340
49,10,20,Ticks_Linear_8,159,9999,9999,9999,1086814312
49,10,20,Ticks_Linear_8,160,9999,9999,9999,1087315032
49,10,20,Ticks_Linear_8,161,9999,9999,9999,1087814740
49,10,20,Ticks_Linear_8,162,9999,9999,9999,1088314440
49,10,20,Ticks_Linear_8,163,9999,9999,9999,1088814140
49,10,20,Ticks_Linear_8,164,9999,9999,9999,1089314888
49,10,20,Ticks_Linear_8,165,9999,9999,9999,1089804404
49,10,20,Ticks_Linear_8,166,9999,9999,9999,1090294892
49,10,20,Ticks_Linear_8,167,9999,9999,9999,1090784332
49,10,20,Ticks_Linear_8,168,9999,9999,9999,1091274820
49,10,20,Ticks_Linear_8,169,9999,9999,9999,1091764336
49,11,25,Jits_Pract_5,0,5,56,103,1156744588
49,11,25,Jits_Pract_5,1,5,63,98,1156747984
49,11,25,Jits_Pract_5,2,5,80,127,1156750880
49,11,25,Jits_Pract_5,0,5,56,103,1157245284
49,11,25,Jits_Pract_5,1,5,63,98,1157248532
49,11,25,Jits_Pract_5,2,5,80,127,1157251728
49,11,25,Jits_Pract_5,0,5,56,103,1157744952
49,11,25,Jits_Pract_5,1,5,80,127,1157755220
49,11,25,Jits_Pract_5,2,5,63,98,1157774856
49,11,25,Jits_Pract_5,3,1,48,40,1157783828
49,11,25,Jits_Pract_5,0,5,63,98,1158194584
49,11,25,Jits_Pract_5,1,5,80,127,1158225156
49,11,25,Jits_Pract_5,2,5,56,103,1158234408
49,11,25,Jits_Pract_5,3,1,48,32,1158318132
49,11,25,Jits_Pract_5,0,1,48,42,1158691908
49,11,25,Jits_Pract_5,1,5,80,127,1158754828
49,11,25,Jits_Pract_5,2,5,56,103,1158764876
49,11,25,Jits_Pract_5,3,5,63,98,1158794536
49,11,25,Jits_Pract_5,0,5,63,98,1159245060
49,11,25,Jits_Pract_5,1,5,56,103,1159274836
49,11,25,Jits_Pract_5,2,5,80,127,1159285028
49,11,25,Jits_Pract_5,3,1,48,29,1159368904
49,11,25,Jits_Pract_5,0,5,56,103,1159694852
49,11,25,Jits_Pract_5,1,5,63,98,1159744832
49,11,25,Jits_Pract_5,2,5,80,127,1159765288
49,11,25,Jits_Pract_5,0,1,48,42,1160039664
49,11,25,Jits_Pract_5,1,5,80,127,1160194548
49,11,25,Jits_Pract_5,2,5,63,98,1160244752
49,11,25,Jits_Pract_5,3,5,56,103,1160284712
49,11,25,Jits_Pract_5,4,1,48,46,1160307836
49,11,25,Jits_Pract_5,0,1,48,38,1160641800
49,11,25,Jits_Pract_5,1,5,56,103,1160695108
49,11,25,Jits_Pract_5,2,5,63,98,1160724784
49,11,25,Jits_Pract_5,3,5,80,127,1160794696
49,11,25,Jits_Pract_5,0,1,48,50,1161080136
49,11,25,Jits_Pract_5,1,5,56,103,1161194856
49,11,25,Jits_Pract_5,2,5,80,127,1161255248
49,11,25,Jits_Pract_5,3,5,63,98,1161284996
49,11,25,Jits_Pract_5,0,1,48,45,1161590460
49,11,25,Jits_Pract_5,1,5,56,103,1161704960
49,11,25,Jits_Pract_5,2,5,63,98,1161715156
49,11,25,Jits_Pract_5,3,5,80,127,1161754948
49,11,25,Jits_Pract_5,0,1,48,39,1162063688
49,11,25,Jits_Pract_5,1,5,63,98,1162195360
49,11,25,Jits_Pract_5,2,5,80,127,1162275156
49,11,25,Jits_Pract_5,3,5,56,103,1162285352
49,11,25,Jits_Pract_5,0,1,48,37,1162579628
49,11,25,Jits_Pract_5,1,5,63,98,1162745324
49,11,25,Jits_Pract_5,2,5,56,103,1162785260
49,11,25,Jits_Pract_5,3,5,80,127,1162788256
49,11,25,Jits_Pract_5,0,1,48,34,1163105424
49,11,25,Jits_Pract_5,1,5,56,103,1163205004
49,11,25,Jits_Pract_5,2,5,63,98,1163215424
49,11,25,Jits_Pract_5,3,5,80,127,1163255288
49,11,25,Jits_Pract_5,0,1,48,21,1163593252
49,11,25,Jits_Pract_5,1,5,56,103,1163694880
49,11,25,Jits_Pract_5,2,5,63,98,1163697720
49,11,25,Jits_Pract_5,3,5,80,127,1163714888
49,11,25,Jits_Pract_5,0,9999,9999,9999,1156992096
49,11,25,Jits_Pract_5,1,9999,9999,9999,1157492792
49,11,25,Jits_Pract_5,2,9999,9999,9999,1157992516
49,11,25,Jits_Pract_5,3,9999,9999,9999,1158492220
49,11,25,Jits_Pract_5,4,9999,9999,9999,1158993012
49,11,25,Jits_Pract_5,5,9999,9999,9999,1159492700
49,11,25,Jits_Pract_5,6,9999,9999,9999,1159992388
49,11,25,Jits_Pract_5,7,9999,9999,9999,1160492084
49,11,25,Jits_Pract_5,8,9999,9999,9999,1160992876
49,11,25,Jits_Pract_5,9,9999,9999,9999,1161492568
49,11,25,Jits_Pract_5,10,9999,9999,9999,1161992256
49,11,25,Jits_Pract_5,11,9999,9999,9999,1162492996
49,11,25,Jits_Pract_5,12,9999,9999,9999,1162992756
49,11,25,Jits_Pract_5,13,9999,9999,9999,1163492448
49,11,25,Jits_Pract_5,14,9999,9999,9999,1163992124
49,12,25,Jits_Pract_5,0,5,56,103,1211021772
49,12,25,Jits_Pract_5,1,5,63,98,1211024792
49,12,25,Jits_Pract_5,2,5,80,127,1211027992
49,12,25,Jits_Pract_5,0,1,48,25,1211335944
49,12,25,Jits_Pract_5,1,5,56,103,1211522596
49,12,25,Jits_Pract_5,2,5,63,98,1211525696
49,12,25,Jits_Pract_5,3,5,80,127,1211528816
49,12,25,Jits_Pract_5,4,1,48,35,1211724620
49,12,25,Jits_Pract_5,0,5,56,103,1212022192
49,12,25,Jits_Pract_5,1,5,80,127,1212032388
49,12,25,Jits_Pract_5,2,5,63,98,1212051800
49,12,25,Jits_Pract_5,3,1,48,32,1212103536
49,12,25,Jits_Pract_5,0,5,63,98,1212471752
49,12,25,Jits_Pract_5,1,5,80,127,1212502352
49,12,25,Jits_Pract_5,2,5,56,103,1212511724
49,12,25,Jits_Pract_5,3,1,48,44,1212527952
49,12,25,Jits_Pract_5,0,1,48,40,1212967356
49,12,25,Jits_Pract_5,1,5,80,127,1213031772
49,12,25,Jits_Pract_5,2,5,56,103,1213041972
49,12,25,Jits_Pract_5,3,5,63,98,1213071780
49,12,25,Jits_Pract_5,0,1,48,25,1213483096
49,12,25,Jits_Pract_5,1,5,63,98,1213531620
49,12,25,Jits_Pract_5,2,5,56,103,1213562420
49,12,25,Jits_Pract_5,3,5,80,127,1213571568
49,12,25,Jits_Pract_5,0,5,56,103,1213982072
49,12,25,Jits_Pract_5,1,5,63,98,1214032648
49,12,25,Jits_Pract_5,2,5,80,127,1214051564
49,12,25,Jits_Pract_5,3,1,48,37,1214057676
49,12,25,Jits_Pract_5,0,5,80,127,1214481780
49,12,25,Jits_Pract_5,1,5,63,98,1214531908
49,12,25,Jits_Pract_5,2,5,56,103,1214571948
49,12,25,Jits_Pract_5,0,1,48,44,1214792288
49,12,25,Jits_Pract_5,1,5,56,103,1214981352
49,12,25,Jits_Pract_5,2,5,63,98,1215012372
49,12,25,Jits_Pract_5,3,5,80,127,1215081932
49,12,25,Jits_Pract_5,4,1,48,47,1215130380
49,12,25,Jits_Pract_5,0,5,56,103,1215482292
49,12,25,Jits_Pract_5,1,1,48,31,1215534340
49,12,25,Jits_Pract_5,2,5,80,127,1215541704
49,12,25,Jits_Pract_5,3,5,63,98,1215572452
49,12,25,Jits_Pract_5,0,1,48,46,1215968996
49,12,25,Jits_Pract_5,1,5,56,103,1215992332
49,12,25,Jits_Pract_5,2,5,63,98,1216002380
49,12,25,Jits_Pract_5,3,5,80,127,1216042392
49,12,25,Jits_Pract_5,0,5,63,98,1216481544
49,12,25,Jits_Pract_5,1,1,48,62,1216495076
49,12,25,Jits_Pract_5,2,5,80,127,1216561484
49,12,25,Jits_Pract_5,3,5,56,103,1216571900
49,12,25,Jits_Pract_5,0,5,63,98,1217031580
49,12,25,Jits_Pract_5,1,5,56,103,1217071444
49,12,25,Jits_Pract_5,2,5,80,127,1217074512
49,12,25,Jits_Pract_5,3,1,48,48,1217084152
49,12,25,Jits_Pract_5,0,5,56,103,1217501520
49,12,25,Jits_Pract_5,1,5,63,98,1217511716
49,12,25,Jits_Pract_5,2,1,48,22,1217523376
49,12,25,Jits_Pract_5,3,1,38,16,1217534964
49,12,25,Jits_Pract_5,4,5,80,127,1217551704
49,12,25,Jits_Pract_5,0,1,48,23,1217978784
49,12,25,Jits_Pract_5,1,1,38,17,1217991076
49,12,25,Jits_Pract_5,2,5,56,103,1217993720
49,12,25,Jits_Pract_5,3,5,63,98,1217996616
49,12,25,Jits_Pract_5,4,5,80,127,1218011468
49,12,25,Jits_Pract_5,0,9999,9999,9999,1211269212
49,12,25,Jits_Pract_5,1,9999,9999,9999,1211769952
49,12,25,Jits_Pract_5,2,9999,9999,9999,1212269688
49,12,25,Jits_Pract_5,3,9999,9999,9999,1212769392
49,12,25,Jits_Pract_5,4,9999,9999,9999,1213270136
49,12,25,Jits_Pract_5,5,9999,9999,9999,1213780020
49,12,25,Jits_Pract_5,6,9999,9999,9999,1214279764
49,12,25,Jits_Pract_5,7,9999,9999,9999,1214779492
49,12,25,Jits_Pract_5,8,9999,9999,9999,1215279192
49,12,25,Jits_Pract_5,9,9999,9999,9999,1215779908
49,12,25,Jits_Pract_5,10,9999,9999,9999,1216279616
49,12,25,Jits_Pract_5,11,9999,9999,9999,1216779384
49,12,25,Jits_Pract_5,12,9999,9999,9999,1217280112
49,12,25,Jits_Pract_5,13,9999,9999,9999,1217790016
49,12,25,Jits_Pract_5,14,9999,9999,9999,1218289788
49,13,24,Jits_Pract_8,0,5,56,103,1225346472
49,13,24,Jits_Pract_8,1,5,63,98,1225349648
49,13,24,Jits_Pract_8,2,5,80,127,1225352916
49,13,24,Jits_Pract_8,0,1,48,43,1225878148
49,13,24,Jits_Pract_8,1,5,56,103,1226146168
49,13,24,Jits_Pract_8,2,5,63,98,1226149264
49,13,24,Jits_Pract_8,3,5,80,127,1226152312
49,13,24,Jits_Pract_8,4,1,48,44,1226365896
49,13,24,Jits_Pract_8,0,5,80,127,1226885440
49,13,24,Jits_Pract_8,1,1,48,40,1226939948
49,13,24,Jits_Pract_8,2,5,63,98,1226975492
49,13,24,Jits_Pract_8,3,5,56,103,1226985984
49,13,24,Jits_Pract_8,0,5,56,103,1227705656
49,13,24,Jits_Pract_8,1,5,63,98,1227716224
49,13,24,Jits_Pract_8,2,1,48,59,1227774636
49,13,24,Jits_Pract_8,3,5,80,127,1227805976
49,13,24,Jits_Pract_8,0,1,48,48,1228397056
49,13,24,Jits_Pract_8,1,5,63,98,1228475900
49,13,24,Jits_Pract_8,2,5,80,127,1228505412
49,13,24,Jits_Pract_8,3,5,56,103,1228536132
49,13,24,Jits_Pract_8,0,1,48,57,1229024840
49,13,24,Jits_Pract_8,1,5,56,103,1229275564
49,13,24,Jits_Pract_8,2,5,80,127,1229376108
49,13,24,Jits_Pract_8,3,5,63,98,1229425960
49,13,24,Jits_Pract_8,4,1,48,57,1229742076
49,13,24,Jits_Pract_8,0,5,56,103,1230076196
49,13,24,Jits_Pract_8,1,5,80,127,1230125348
49,13,24,Jits_Pract_8,2,5,63,98,1230166360
49,13,24,Jits_Pract_8,3,1,48,31,1230436940
49,13,24,Jits_Pract_8,0,5,80,127,1230906004
49,13,24,Jits_Pract_8,1,5,63,98,1230936308
49,13,24,Jits_Pract_8,2,5,56,103,1231006060
49,13,24,Jits_Pract_8,3,1,48,29,1231157360
49,13,24,Jits_Pract_8,0,5,63,98,1231736144
49,13,24,Jits_Pract_8,1,5,56,103,1231765896
49,13,24,Jits_Pract_8,2,5,80,127,1231826360
49,13,24,Jits_Pract_8,0,1,48,37,1232256356
49,13,24,Jits_Pract_8,1,5,56,103,1232475608
49,13,24,Jits_Pract_8,2,5,80,127,1232478524
49,13,24,Jits_Pract_8,3,5,63,98,1232596304
49,13,24,Jits_Pract_8,4,1,48,44,1232620392
49,13,24,Jits_Pract_8,0,1,48,47,1233063600
49,13,24,Jits_Pract_8,1,5,56,103,1233356072
49,13,24,Jits_Pract_8,2,5,80,127,1233396012
49,13,24,Jits_Pract_8,3,5,63,98,1233406280
49,13,24,Jits_Pract_8,4,1,48,25,1233717088
49,13,24,Jits_Pract_8,0,5,56,103,1234115872
49,13,24,Jits_Pract_8,1,5,80,127,1234136336
49,13,24,Jits_Pract_8,2,5,63,98,1234216276
49,13,24,Jits_Pract_8,3,1,48,24,1234442500
49,13,24,Jits_Pract_8,0,5,80,127,1234905532
49,13,24,Jits_Pract_8,1,5,56,103,1235006000
49,13,24,Jits_Pract_8,2,5,63,98,1235015972
49,13,24,Jits_Pract_8,3,1,48,21,1235097708
49,13,24,Jits_Pract_8,4,1,38,15,1235109296
49,13,24,Jits_Pract_8,0,5,63,98,1235675716
49,13,24,Jits_Pract_8,1,1,48,31,1235714880
49,13,24,Jits_Pract_8,2,5,80,127,1235735880
49,13,24,Jits_Pract_8,3,5,56,103,1235746372
49,13,24,Jits_Pract_8,0,1,48,18,1236282852
49,13,24,Jits_Pract_8,1,5,56,103,1236476200
49,13,24,Jits_Pract_8,2,5,63,98,1236545880
49,13,24,Jits_Pract_8,3,5,80,127,1236549244
49,13,24,Jits_Pract_8,0,9999,9999,9999,1225743432
49,13,24,Jits_Pract_8,1,9999,9999,9999,1226543180
49,13,24,Jits_Pract_8,2,9999,9999,9999,1227343960
49,13,24,Jits_Pract_8,3,9999,9999,9999,1228143676
49,13,24,Jits_Pract_8,4,9999,9999,9999,1228943440
49,13,24,Jits_Pract_8,5,9999,9999,9999,1229743196
49,13,24,Jits_Pract_8,6,9999,9999,9999,1230543956
49,13,24,Jits_Pract_8,7,9999,9999,9999,1231343728
49,13,24,Jits_Pract_8,8,9999,9999,9999,1232143448
49,13,24,Jits_Pract_8,9,9999,9999,9999,1232943188
49,13,24,Jits_Pract_8,10,9999,9999,9999,1233743964
49,13,24,Jits_Pract_8,11,9999,9999,9999,1234543704
49,13,24,Jits_Pract_8,12,9999,9999,9999,1235343432
49,13,24,Jits_Pract_8,13,9999,9999,9999,1236143180
49,13,24,Jits_Pract_8,14,9999,9999,9999,1236943972
49,14,17,Jits_Phase_5,0,5,56,103,1263320396
49,14,17,Jits_Phase_5,1,5,63,98,1263323572
49,14,17,Jits_Phase_5,2,5,80,127,1263326624
49,14,17,Jits_Phase_5,0,5,56,103,1263820188
49,14,17,Jits_Phase_5,1,5,63,98,1263823360
49,14,17,Jits_Phase_5,2,5,80,127,1263826484
49,14,17,Jits_Phase_5,3,1,48,34,1263850740
49,14,17,Jits_Phase_5,0,1,48,41,1264254584
49,14,17,Jits_Phase_5,1,5,56,103,1264320096
49,14,17,Jits_Phase_5,2,5,80,127,1264330288
49,14,17,Jits_Phase_5,3,5,63,98,1264349480
49,14,17,Jits_Phase_5,0,1,48,45,1264717896
49,14,17,Jits_Phase_5,1,5,63,98,1264770324
49,14,17,Jits_Phase_5,2,5,80,127,1264800148
49,14,17,Jits_Phase_5,3,5,56,103,1264810492
49,14,17,Jits_Phase_5,0,1,48,57,1265234004
49,14,17,Jits_Phase_5,1,5,80,127,1265329392
49,14,17,Jits_Phase_5,2,5,56,103,1265339736
49,14,17,Jits_Phase_5,3,5,63,98,1265369412
49,14,17,Jits_Phase_5,0,1,48,33,1265788904
49,14,17,Jits_Phase_5,1,5,63,98,1265820388
49,14,17,Jits_Phase_5,2,5,56,103,1265849768
49,14,17,Jits_Phase_5,3,5,80,127,1265860336
49,14,17,Jits_Phase_5,0,1,48,33,1266255208
49,14,17,Jits_Phase_5,1,5,56,103,1266269572
49,14,17,Jits_Phase_5,2,5,63,98,1266319776
49,14,17,Jits_Phase_5,3,5,80,127,1266340160
49,14,17,Jits_Phase_5,0,1,48,24,1266716516
49,14,17,Jits_Phase_5,1,5,80,127,1266770296
49,14,17,Jits_Phase_5,2,5,63,98,1266819584
49,14,17,Jits_Phase_5,3,5,56,103,1266860340
49,14,17,Jits_Phase_5,0,1,48,21,1267261604
49,14,17,Jits_Phase_5,1,5,56,103,1267270092
49,14,17,Jits_Phase_5,2,5,63,98,1267299644
49,14,17,Jits_Phase_5,3,5,80,127,1267370352
49,14,17,Jits_Phase_5,0,1,48,24,1267678568
49,14,17,Jits_Phase_5,1,5,56,103,1267769616
49,14,17,Jits_Phase_5,2,5,80,127,1267830088
49,14,17,Jits_Phase_5,3,5,63,98,1267859764
49,14,17,Jits_Phase_5,0,1,48,20,1268166768
49,14,17,Jits_Phase_5,1,5,56,103,1268279540
49,14,17,Jits_Phase_5,2,5,63,98,1268290032
49,14,17,Jits_Phase_5,3,5,80,127,1268329996
49,14,17,Jits_Phase_5,0,1,48,26,1268664264
49,14,17,Jits_Phase_5,1,5,63,98,1268770144
49,14,17,Jits_Phase_5,2,5,80,127,1268850036
49,14,17,Jits_Phase_5,3,5,56,103,1268860232
49,14,17,Jits_Phase_5,0,1,48,20,1269143480
49,14,17,Jits_Phase_5,1,5,63,98,1269320232
49,14,17,Jits_Phase_5,2,5,56,103,1269360268
49,14,17,Jits_Phase_5,3,5,80,127,1269363336
49,14,17,Jits_Phase_5,0,1,48,21,1269659120
49,14,17,Jits_Phase_5,1,5,56,103,1269779824
49,14,17,Jits_Phase_5,2,5,63,98,1269790020
49,14,17,Jits_Phase_5,3,5,80,127,1269829956
49,14,17,Jits_Phase_5,0,1,48,23,1270164028
49,14,17,Jits_Phase_5,1,5,56,103,1270270276
49,14,17,Jits_Phase_5,2,5,63,98,1270273344
49,14,17,Jits_Phase_5,3,5,80,127,1270290060
49,14,17,Jits_Phase_5,0,1,48,14,1270639420
49,14,17,Jits_Phase_5,1,5,80,127,1270780276
49,14,17,Jits_Phase_5,2,5,56,103,1270789428
49,14,17,Jits_Phase_5,3,5,63,98,1270860076
49,14,17,Jits_Phase_5,0,1,48,17,1271115164
49,14,17,Jits_Phase_5,1,5,63,98,1271269912
49,14,17,Jits_Phase_5,2,5,56,103,1271290220
49,14,17,Jits_Phase_5,3,5,80,127,1271370012
49,14,17,Jits_Phase_5,0,1,48,19,1271613936
49,14,17,Jits_Phase_5,1,5,56,103,1271780144
49,14,17,Jits_Phase_5,2,5,80,127,1271819488
49,14,17,Jits_Phase_5,3,5,63,98,1271830128
49,14,17,Jits_Phase_5,0,1,48,18,1272127856
49,14,17,Jits_Phase_5,1,5,80,127,1272270084
49,14,17,Jits_Phase_5,2,5,63,98,1272299832
49,14,17,Jits_Phase_5,3,5,56,103,1272339916
49,14,17,Jits_Phase_5,0,1,48,16,1272667784
49,14,17,Jits_Phase_5,1,5,56,103,1272790432
49,14,17,Jits_Phase_5,2,5,63,98,1272820184
49,14,17,Jits_Phase_5,3,5,80,127,1272870232
49,14,17,Jits_Phase_5,0,1,48,17,1273120604
49,14,17,Jits_Phase_5,1,5,80,127,1273290032
49,14,17,Jits_Phase_5,2,5,56,103,1273329972
49,14,17,Jits_Phase_5,3,5,63,98,1273340168
49,14,17,Jits_Phase_5,0,1,48,21,1273583264
49,14,17,Jits_Phase_5,1,5,80,127,1273770304
49,14,17,Jits_Phase_5,2,5,63,98,1273810316
49,14,17,Jits_Phase_5,3,5,56,103,1273869804
49,14,17,Jits_Phase_5,0,5,56,103,1274270076
49,14,17,Jits_Phase_5,1,5,80,127,1274280420
49,14,17,Jits_Phase_5,2,5,63,98,1274360140
49,14,17,Jits_Phase_5,0,5,80,127,1274769876
49,14,17,Jits_Phase_5,1,5,63,98,1274830268
49,14,17,Jits_Phase_5,2,5,56,103,1274859792
49,14,17,Jits_Phase_5,0,1,48,18,1275141288
49,14,17,Jits_Phase_5,1,5,56,103,1275269360
49,14,17,Jits_Phase_5,2,5,80,127,1275330124
49,14,17,Jits_Phase_5,3,5,63,98,1275369984
49,14,17,Jits_Phase_5,0,5,56,103,1275820448
49,14,17,Jits_Phase_5,1,5,63,98,1275829744
49,14,17,Jits_Phase_5,2,5,80,127,1275833108
49,14,17,Jits_Phase_5,0,1,48,27,1276158072
49,14,17,Jits_Phase_5,1,5,80,127,1276270028
49,14,17,Jits_Phase_5,2,5,63,98,1276360160
49,14,17,Jits_Phase_5,3,5,56,103,1276370428
49,14,17,Jits_Phase_5,0,1,48,37,1276649580
49,14,17,Jits_Phase_5,1,5,56,103,1276769844
49,14,17,Jits_Phase_5,2,5,63,98,1276773016
49,14,17,Jits_Phase_5,3,5,80,127,1276776064
49,14,17,Jits_Phase_5,0,1,48,40,1277134016
49,14,17,Jits_Phase_5,1,5,80,127,1277289888
49,14,17,Jits_Phase_5,2,5,63,98,1277340088
49,14,17,Jits_Phase_5,3,5,56,103,1277369836
49,14,17,Jits_Phase_5,0,1,48,33,1277696396
49,14,17,Jits_Phase_5,1,5,56,103,1277780288
49,14,17,Jits_Phase_5,2,5,80,127,1277789812
49,14,17,Jits_Phase_5,3,5,63,98,1277860296
49,14,17,Jits_Phase_5,0,1,48,19,1278214580
49,14,17,Jits_Phase_5,1,5,56,103,1278290228
49,14,17,Jits_Phase_5,2,5,63,98,1278309788
49,14,17,Jits_Phase_5,3,5,80,127,1278370084
49,14,17,Jits_Phase_5,0,1,48,26,1278649680
49,14,17,Jits_Phase_5,1,5,80,127,1278769708
49,14,17,Jits_Phase_5,2,5,63,98,1278840236
49,14,17,Jits_Phase_5,3,5,56,103,1278859720
49,14,17,Jits_Phase_5,0,1,48,18,1279188836
49,14,17,Jits_Phase_5,1,5,80,127,1279289760
49,14,17,Jits_Phase_5,2,5,56,103,1279300032
49,14,17,Jits_Phase_5,3,5,63,98,1279310300
49,14,17,Jits_Phase_5,0,1,48,23,1279657844
49,14,17,Jits_Phase_5,1,5,80,127,1279780284
49,14,17,Jits_Phase_5,2,5,56,103,1279799772
49,14,17,Jits_Phase_5,3,5,63,98,1279870224
49,14,17,Jits_Phase_5,0,1,48,27,1280121344
49,14,17,Jits_Phase_5,1,5,56,103,1280290076
49,14,17,Jits_Phase_5,2,5,80,127,1280319900
49,14,17,Jits_Phase_5,3,5,63,98,1280340236
49,14,17,Jits_Phase_5,0,1,48,27,1280663264
49,14,17,Jits_Phase_5,1,5,63,98,1280779708
49,14,17,Jits_Phase_5,2,5,56,103,1280840024
49,14,17,Jits_Phase_5,3,5,80,127,1280869872
49,14,17,Jits_Phase_5,0,1,48,25,1281134392
49,14,17,Jits_Phase_5,1,5,63,98,1281270008
49,14,17,Jits_Phase_5,2,5,80,127,1281273528
49,14,17,Jits_Phase_5,3,5,56,103,1281360464
49,14,17,Jits_Phase_5,0,1,48,36,1281651144
49,14,17,Jits_Phase_5,1,5,56,103,1281790280
49,14,17,Jits_Phase_5,2,5,63,98,1281820104
49,14,17,Jits_Phase_5,3,5,80,127,1281860044
49,14,17,Jits_Phase_5,0,1,48,38,1282116468
49,14,17,Jits_Phase_5,1,5,63,98,1282290032
49,14,17,Jits_Phase_5,2,5,56,103,1282330044
49,14,17,Jits_Phase_5,3,5,80,127,1282349308
49,14,17,Jits_Phase_5,0,1,48,24,1282610316
49,14,17,Jits_Phase_5,1,5,63,98,1282799968
49,14,17,Jits_Phase_5,2,5,56,103,1282839980
49,14,17,Jits_Phase_5,3,5,80,127,1282850104
49,14,17,Jits_Phase_5,0,1,48,42,1283123020
49,14,17,Jits_Phase_5,1,5,80,127,1283280316
49,14,17,Jits_Phase_5,2,5,63,98,1283349920
49,14,17,Jits_Phase_5,3,5,56,103,1283370304
49,14,17,Jits_Phase_5,0,1,48,40,1283612580
49,14,17,Jits_Phase_5,1,5,56,103,1283769952
49,14,17,Jits_Phase_5,2,5,80,127,1283790264
49,14,17,Jits_Phase_5,3,5,63,98,1283830200
49,14,17,Jits_Phase_5,0,1,48,30,1284141624
49,14,17,Jits_Phase_5,1,5,63,98,1284279740
49,14,17,Jits_Phase_5,2,5,80,127,1284300048
49,14,17,Jits_Phase_5,3,5,56,103,1284340060
49,14,17,Jits_Phase_5,0,1,48,25,1284630736
49,14,17,Jits_Phase_5,1,5,63,98,1284780384
49,14,17,Jits_Phase_5,2,5,56,103,1284799872
49,14,17,Jits_Phase_5,3,5,80,127,1284810064
49,14,17,Jits_Phase_5,0,1,48,36,1285147940
49,14,17,Jits_Phase_5,1,5,80,127,1285280128
49,14,17,Jits_Phase_5,2,5,56,103,1285299764
49,14,17,Jits_Phase_5,3,5,63,98,1285330408
49,14,17,Jits_Phase_5,0,1,48,39,1285641156
49,14,17,Jits_Phase_5,1,5,56,103,1285849620
49,14,17,Jits_Phase_5,2,5,80,127,1285852684
49,14,17,Jits_Phase_5,3,5,63,98,1285869928
49,14,17,Jits_Phase_5,0,1,48,33,1286119480
49,14,17,Jits_Phase_5,1,5,63,98,1286270252
49,14,17,Jits_Phase_5,2,5,56,103,1286300000
49,14,17,Jits_Phase_5,3,5,80,127,1286360536
49,14,17,Jits_Phase_5,0,1,48,43,1286578332
49,14,17,Jits_Phase_5,1,5,63,98,1286849848
49,14,17,Jits_Phase_5,2,5,56,103,1286860116
49,14,17,Jits_Phase_5,3,5,80,127,1286870236
49,14,17,Jits_Phase_5,0,1,48,40,1287099488
49,14,17,Jits_Phase_5,1,5,56,103,1287309816
49,14,17,Jits_Phase_5,2,5,80,127,1287340612
49,14,17,Jits_Phase_5,3,5,63,98,1287349688
49,14,17,Jits_Phase_5,4,1,48,35,1287567756
49,14,17,Jits_Phase_5,0,5,63,98,1287850452
49,14,17,Jits_Phase_5,1,5,56,103,1287859752
49,14,17,Jits_Phase_5,2,5,80,127,1287879912
49,14,17,Jits_Phase_5,3,1,48,31,1288073172
49,14,17,Jits_Phase_5,0,5,56,103,1288280532
49,14,17,Jits_Phase_5,1,5,63,98,1288339800
49,14,17,Jits_Phase_5,2,5,80,127,1288343236
49,14,17,Jits_Phase_5,3,1,48,33,1288515056
49,14,17,Jits_Phase_5,0,5,80,127,1288799764
49,14,17,Jits_Phase_5,1,5,56,103,1288809960
49,14,17,Jits_Phase_5,2,5,63,98,1288879712
49,14,17,Jits_Phase_5,3,1,48,31,1288951828
49,14,17,Jits_Phase_5,0,5,80,127,1289289992
49,14,17,Jits_Phase_5,1,5,56,103,1289359696
49,14,17,Jits_Phase_5,2,5,63,98,1289369964
49,14,17,Jits_Phase_5,3,1,48,45,1289385292
49,14,17,Jits_Phase_5,0,1,48,40,1289823608
49,14,17,Jits_Phase_5,1,5,63,98,1289829708
49,14,17,Jits_Phase_5,2,5,56,103,1289839976
49,14,17,Jits_Phase_5,3,5,80,127,1289859612
49,14,17,Jits_Phase_5,0,5,80,127,1290280588
49,14,17,Jits_Phase_5,1,1,48,40,1290319928
49,14,17,Jits_Phase_5,2,5,63,98,1290339652
49,14,17,Jits_Phase_5,3,5,56,103,1290379740
49,14,17,Jits_Phase_5,0,1,48,36,1290791260
49,14,17,Jits_Phase_5,1,5,56,103,1290819904
49,14,17,Jits_Phase_5,2,5,63,98,1290830324
49,14,17,Jits_Phase_5,3,5,80,127,1290870212
49,14,17,Jits_Phase_5,0,5,56,103,1291279724
49,14,17,Jits_Phase_5,1,1,48,53,1291282316
49,14,17,Jits_Phase_5,2,5,80,127,1291309692
49,14,17,Jits_Phase_5,3,5,63,98,1291359692
49,14,17,Jits_Phase_5,0,1,48,50,1291779308
49,14,17,Jits_Phase_5,1,5,56,103,1291820604
49,14,17,Jits_Phase_5,2,5,63,98,1291860492
49,14,17,Jits_Phase_5,3,5,80,127,1291863784
49,14,17,Jits_Phase_5,0,1,48,35,1292297556
49,14,17,Jits_Phase_5,1,5,56,103,1292320272
49,14,17,Jits_Phase_5,2,5,63,98,1292330320
49,14,17,Jits_Phase_5,3,5,80,127,1292349732
49,14,17,Jits_Phase_5,0,5,56,103,1292779948
49,14,17,Jits_Phase_5,1,5,80,127,1292782864
49,14,17,Jits_Phase_5,2,1,48,37,1292786504
49,14,17,Jits_Phase_5,3,5,63,98,1292819800
49,14,17,Jits_Phase_5,0,1,48,32,1293288588
49,14,17,Jits_Phase_5,1,5,63,98,1293319624
49,14,17,Jits_Phase_5,2,5,56,103,1293350272
49,14,17,Jits_Phase_5,3,5,80,127,1293369684
49,14,17,Jits_Phase_5,0,1,48,39,1293778596
49,14,17,Jits_Phase_5,1,5,80,127,1293789484
49,14,17,Jits_Phase_5,2,5,56,103,1293799756
49,14,17,Jits_Phase_5,3,5,63,98,1293810172
49,14,17,Jits_Phase_5,0,1,48,25,1294282904
49,14,17,Jits_Phase_5,1,5,56,103,1294290496
49,14,17,Jits_Phase_5,2,5,80,127,1294330512
49,14,17,Jits_Phase_5,3,5,63,98,1294359960
49,14,17,Jits_Phase_5,0,1,48,36,1294765868
49,14,17,Jits_Phase_5,1,5,63,98,1294800436
49,14,17,Jits_Phase_5,2,5,80,127,1294809584
49,14,17,Jits_Phase_5,3,5,56,103,1294819708
49,14,17,Jits_Phase_5,0,1,48,27,1295237064
49,14,17,Jits_Phase_5,1,5,56,103,1295289772
49,14,17,Jits_Phase_5,2,5,63,98,1295360556
49,14,17,Jits_Phase_5,3,5,80,127,1295369632
49,14,17,Jits_Phase_5,0,1,48,27,1295761024
49,14,17,Jits_Phase_5,1,5,80,127,1295799636
49,14,17,Jits_Phase_5,2,5,56,103,1295809756
49,14,17,Jits_Phase_5,3,5,63,98,1295860016
49,14,17,Jits_Phase_5,0,1,48,43,1296207640
49,14,17,Jits_Phase_5,1,5,80,127,1296309552
49,14,17,Jits_Phase_5,2,5,56,103,1296369944
49,14,17,Jits_Phase_5,3,5,63,98,1296399840
49,14,17,Jits_Phase_5,0,1,48,33,1296708280
49,14,17,Jits_Phase_5,1,5,56,103,1296819568
49,14,17,Jits_Phase_5,2,5,80,127,1296822556
49,14,17,Jits_Phase_5,3,5,63,98,1296859428
49,14,17,Jits_Phase_5,0,1,48,34,1297196464
49,14,17,Jits_Phase_5,1,5,56,103,1297349944
49,14,17,Jits_Phase_5,2,5,63,98,1297379692
49,14,17,Jits_Phase_5,3,5,80,127,1297389888
49,14,17,Jits_Phase_5,0,1,48,28,1297699376
49,14,17,Jits_Phase_5,1,5,63,98,1297859884
49,14,17,Jits_Phase_5,2,5,80,127,1297870304
49,14,17,Jits_Phase_5,3,5,56,103,1297880428
49,14,17,Jits_Phase_5,0,1,48,29,1298216124
49,14,17,Jits_Phase_5,1,5,80,127,1298309592
49,14,17,Jits_Phase_5,2,5,56,103,1298359788
49,14,17,Jits_Phase_5,3,5,63,98,1298362780
49,14,17,Jits_Phase_5,0,1,48,31,1298709128
49,14,17,Jits_Phase_5,1,5,56,103,1298839896
49,14,17,Jits_Phase_5,2,5,80,127,1298860428
49,14,17,Jits_Phase_5,3,5,63,98,1298869652
49,14,17,Jits_Phase_5,0,1,48,31,1299197324
49,14,17,Jits_Phase_5,1,5,63,98,1299320684
49,14,17,Jits_Phase_5,2,5,56,103,1299349840
49,14,17,Jits_Phase_5,3,5,80,127,1299370596
49,14,17,Jits_Phase_5,0,1,48,20,1299768788
49,14,17,Jits_Phase_5,1,5,56,103,1299830120
49,14,17,Jits_Phase_5,2,5,80,127,1299840316
49,14,17,Jits_Phase_5,3,5,63,98,1299909904
49,14,17,Jits_Phase_5,0,1,48,21,1300232572
49,14,17,Jits_Phase_5,1,5,63,98,1300319684
49,14,17,Jits_Phase_5,2,5,80,127,1300359680
49,14,17,Jits_Phase_5,3,5,56,103,1300399616
49,14,17,Jits_Phase_5,0,1,48,22,1300703408
49,14,17,Jits_Phase_5,1,5,56,103,1300839648
49,14,17,Jits_Phase_5,2,5,63,98,1300850216
49,14,17,Jits_Phase_5,3,5,80,127,1300869480
49,14,17,Jits_Phase_5,0,1,48,32,1301182396
49,14,17,Jits_Phase_5,1,5,63,98,1301379328
49,14,17,Jits_Phase_5,2,5,80,127,1301400008
49,14,17,Jits_Phase_5,3,5,56,103,1301420392
49,14,17,Jits_Phase_5,0,1,48,33,1301667164
49,14,17,Jits_Phase_5,1,5,56,103,1301819720
49,14,17,Jits_Phase_5,2,5,80,127,1301899540
49,14,17,Jits_Phase_5,3,5,63,98,1301909808
49,14,17,Jits_Phase_5,0,1,48,22,1302166460
49,14,17,Jits_Phase_5,1,5,80,127,1302360400
49,14,17,Jits_Phase_5,2,5,63,98,1302369624
49,14,17,Jits_Phase_5,3,5,56,103,1302400344
49,14,17,Jits_Phase_5,0,1,48,25,1302685992
49,14,17,Jits_Phase_5,1,5,63,98,1302820416
49,14,17,Jits_Phase_5,2,5,80,127,1302860352
49,14,17,Jits_Phase_5,3,5,56,103,1302919496
49,14,17,Jits_Phase_5,0,1,48,39,1303179984
49,14,17,Jits_Phase_5,1,5,63,98,1303330356
49,14,17,Jits_Phase_5,2,5,56,103,1303380284
49,14,17,Jits_Phase_5,3,5,80,127,1303410476
49,14,17,Jits_Phase_5,0,1,48,35,1303671636
49,14,17,Jits_Phase_5,1,5,80,127,1303829956
49,14,17,Jits_Phase_5,2,5,63,98,1303840600
49,14,17,Jits_Phase_5,3,5,56,103,1303909856
49,14,17,Jits_Phase_5,0,5,80,127,1304390192
49,14,17,Jits_Phase_5,1,5,56,103,1304400492
49,14,17,Jits_Phase_5,2,5,63,98,1304403628
49,14,17,Jits_Phase_5,3,1,48,36,1304494016
49,14,17,Jits_Phase_5,0,5,56,103,1304830248
49,14,17,Jits_Phase_5,1,5,80,127,1304849808
49,14,17,Jits_Phase_5,2,1,48,34,1304851296
49,14,17,Jits_Phase_5,3,5,63,98,1304860220
49,14,17,Jits_Phase_5,0,1,48,40,1305275956
49,14,17,Jits_Phase_5,1,5,63,98,1305340416
49,14,17,Jits_Phase_5,2,5,56,103,1305380340
49,14,17,Jits_Phase_5,3,5,80,127,1305399604
49,14,17,Jits_Phase_5,0,1,48,30,1305759612
49,14,17,Jits_Phase_5,1,5,63,98,1305839952
49,14,17,Jits_Phase_5,2,5,56,103,1305900324
49,14,17,Jits_Phase_5,3,5,80,127,1305903392
49,14,17,Jits_Phase_5,0,1,48,33,1306211180
49,14,17,Jits_Phase_5,1,5,56,103,1306299616
49,14,17,Jits_Phase_5,2,5,80,127,1306320356
49,14,17,Jits_Phase_5,3,5,63,98,1306360516
49,14,17,Jits_Phase_5,0,1,48,31,1306714596
49,14,17,Jits_Phase_5,1,5,56,103,1306830212
49,14,17,Jits_Phase_5,2,5,63,98,1306849624
49,14,17,Jits_Phase_5,3,5,80,127,1306859820
49,14,17,Jits_Phase_5,0,1,48,45,1307201888
49,14,17,Jits_Phase_5,1,5,80,127,1307300292
49,14,17,Jits_Phase_5,2,5,56,103,1307329896
49,14,17,Jits_Phase_5,3,5,63,98,1307369756
49,14,17,Jits_Phase_5,0,1,48,39,1307688824
49,14,17,Jits_Phase_5,1,5,80,127,1307810304
49,14,17,Jits_Phase_5,2,5,56,103,1307829564
49,14,17,Jits_Phase_5,3,5,63,98,1307890324
49,14,17,Jits_Phase_5,0,1,48,34,1308199512
49,14,17,Jits_Phase_5,1,5,56,103,1308320312
49,14,17,Jits_Phase_5,2,5,80,127,1308339504
49,14,17,Jits_Phase_5,3,5,63,98,1308400112
49,14,17,Jits_Phase_5,0,1,48,32,1308700088
49,14,17,Jits_Phase_5,1,5,80,127,1308800436
49,14,17,Jits_Phase_5,2,5,56,103,1308809436
49,14,17,Jits_Phase_5,3,5,63,98,1308849448
49,14,17,Jits_Phase_5,0,1,48,24,1309175028
49,14,17,Jits_Phase_5,1,5,63,98,1309300032
49,14,17,Jits_Phase_5,2,5,56,103,1309340044
49,14,17,Jits_Phase_5,3,5,80,127,1309343108
49,14,17,Jits_Phase_5,0,1,48,27,1309657692
49,14,17,Jits_Phase_5,1,5,63,98,1309820224
49,14,17,Jits_Phase_5,2,5,80,127,1309860088
49,14,17,Jits_Phase_5,3,5,56,103,1309889984
49,14,17,Jits_Phase_5,0,1,48,21,1310188456
49,14,17,Jits_Phase_5,1,5,56,103,1310309712
49,14,17,Jits_Phase_5,2,5,63,98,1310320204
49,14,17,Jits_Phase_5,3,5,80,127,1310349656
49,14,17,Jits_Phase_5,0,1,48,18,1310646316
49,14,17,Jits_Phase_5,1,5,80,127,1310800096
49,14,17,Jits_Phase_5,2,5,63,98,1310869996
49,14,17,Jits_Phase_5,3,5,56,103,1310880120
49,14,17,Jits_Phase_5,0,1,48,25,1311132656
49,14,17,Jits_Phase_5,1,5,63,98,1311300196
49,14,17,Jits_Phase_5,2,5,56,103,1311369528
49,14,17,Jits_Phase_5,3,5,80,127,1311379796
49,14,17,Jits_Phase_5,0,1,48,30,1311626708
49,14,17,Jits_Phase_5,1,5,63,98,1311780164
49,14,17,Jits_Phase_5,2,5,56,103,1311799576
49,14,17,Jits_Phase_5,3,5,80,127,1311839536
49,14,17,Jits_Phase_5,0,1,48,32,1312106532
49,14,17,Jits_Phase_5,1,5,56,103,1312259388
49,14,17,Jits_Phase_5,2,5,63,98,1312269732
49,14,17,Jits_Phase_5,3,5,80,127,1312349472
49,14,17,Jits_Phase_5,0,1,48,32,1312558248
49,14,17,Jits_Phase_5,1,5,63,98,1312750048
49,14,17,Jits_Phase_5,2,5,56,103,1312779576
49,14,17,Jits_Phase_5,3,5,80,127,1312819508
49,14,17,Jits_Phase_5,4,1,48,28,1313040568
49,14,17,Jits_Phase_5,0,5,56,103,1313250068
49,14,17,Jits_Phase_5,1,5,63,98,1313289708
49,14,17,Jits_Phase_5,2,5,80,127,1313329644
49,14,17,Jits_Phase_5,0,1,48,29,1313554056
49,14,17,Jits_Phase_5,1,5,80,127,1313750360
49,14,17,Jits_Phase_5,2,5,56,103,1313830156
49,14,17,Jits_Phase_5,3,5,63,98,1313839528
49,14,17,Jits_Phase_5,4,1,48,26,1314029724
49,14,17,Jits_Phase_5,0,5,56,103,1314300284
49,14,17,Jits_Phase_5,1,5,63,98,1314303272
49,14,17,Jits_Phase_5,2,5,80,127,1314309432
49,14,17,Jits_Phase_5,3,1,48,26,1314510112
49,14,17,Jits_Phase_5,0,5,56,103,1314819368
49,14,17,Jits_Phase_5,1,5,63,98,1314840200
49,14,17,Jits_Phase_5,2,5,80,127,1314850096
49,14,17,Jits_Phase_5,3,1,48,26,1315028532
49,14,17,Jits_Phase_5,0,5,63,98,1315280096
49,14,17,Jits_Phase_5,1,5,80,127,1315289472
49,14,17,Jits_Phase_5,2,5,56,103,1315310000
49,14,17,Jits_Phase_5,3,1,48,26,1315548964
49,14,17,Jits_Phase_5,0,5,63,98,1315780136
49,14,17,Jits_Phase_5,1,5,56,103,1315859928
49,14,17,Jits_Phase_5,2,5,80,127,1315862996
49,14,17,Jits_Phase_5,3,1,48,36,1316002776
49,14,17,Jits_Phase_5,0,5,63,98,1316279880
49,14,17,Jits_Phase_5,1,5,56,103,1316300044
49,14,17,Jits_Phase_5,2,5,80,127,1316330160
49,14,17,Jits_Phase_5,0,1,48,26,1316564608
49,14,17,Jits_Phase_5,1,5,56,103,1316780468
49,14,17,Jits_Phase_5,2,5,63,98,1316800032
49,14,17,Jits_Phase_5,3,5,80,127,1316810080
49,14,17,Jits_Phase_5,4,1,48,32,1317044160
49,14,17,Jits_Phase_5,0,5,56,103,1317310236
49,14,17,Jits_Phase_5,1,5,63,98,1317339540
49,14,17,Jits_Phase_5,2,5,80,127,1317342976
49,14,17,Jits_Phase_5,3,1,48,34,1317516540
49,14,17,Jits_Phase_5,0,5,56,103,1317760324
49,14,17,Jits_Phase_5,1,5,63,98,1317800340
49,14,17,Jits_Phase_5,2,5,80,127,1317859676
49,14,17,Jits_Phase_5,3,1,48,37,1318002152
49,14,17,Jits_Phase_5,0,5,56,103,1318279568
49,14,17,Jits_Phase_5,1,5,63,98,1318290060
49,14,17,Jits_Phase_5,2,5,80,127,1318350076
49,14,17,Jits_Phase_5,3,1,48,18,1318506552
49,14,17,Jits_Phase_5,0,5,56,103,1318780300
49,14,17,Jits_Phase_5,1,5,80,127,1318799712
49,14,17,Jits_Phase_5,2,5,63,98,1318829388
49,14,17,Jits_Phase_5,3,1,48,28,1318934524
49,14,17,Jits_Phase_5,0,5,80,127,1319279916
49,14,17,Jits_Phase_5,1,5,56,103,1319290184
49,14,17,Jits_Phase_5,2,5,63,98,1319309820
49,14,17,Jits_Phase_5,3,1,48,38,1319339092
49,14,17,Jits_Phase_5,0,1,48,37,1319744028
49,14,17,Jits_Phase_5,1,5,63,98,1319769556
49,14,17,Jits_Phase_5,2,5,80,127,1319850236
49,14,17,Jits_Phase_5,3,5,56,103,1319859532
49,14,17,Jits_Phase_5,0,1,48,32,1320279176
49,14,17,Jits_Phase_5,1,5,80,127,1320360260
49,14,17,Jits_Phase_5,2,5,56,103,1320379804
49,14,17,Jits_Phase_5,3,5,63,98,1320382872
49,14,17,Jits_Phase_5,0,1,48,38,1320743000
49,14,17,Jits_Phase_5,1,5,63,98,1320850020
49,14,17,Jits_Phase_5,2,5,80,127,1320853236
49,14,17,Jits_Phase_5,3,5,56,103,1320910260
49,14,17,Jits_Phase_5,0,1,48,29,1321243940
49,14,17,Jits_Phase_5,1,5,56,103,1321330000
49,14,17,Jits_Phase_5,2,5,80,127,1321340256
49,14,17,Jits_Phase_5,3,5,63,98,1321380264
49,14,17,Jits_Phase_5,0,1,48,44,1321732224
49,14,17,Jits_Phase_5,1,5,56,103,1321810264
49,14,17,Jits_Phase_5,2,5,63,98,1321869816
49,14,17,Jits_Phase_5,3,5,80,127,1321880012
49,14,17,Jits_Phase_5,0,1,48,28,1322220956
49,14,17,Jits_Phase_5,1,5,63,98,1322320336
49,14,17,Jits_Phase_5,2,5,80,127,1322360124
49,14,17,Jits_Phase_5,3,5,56,103,1322400060
49,14,17,Jits_Phase_5,0,1,48,41,1322695080
49,14,17,Jits_Phase_5,1,5,56,103,1322819912
49,14,17,Jits_Phase_5,2,5,63,98,1322899876
49,14,17,Jits_Phase_5,3,5,80,127,1322903164
49,14,17,Jits_Phase_5,0,1,48,37,1323178940
49,14,17,Jits_Phase_5,1,5,80,127,1323380212
49,14,17,Jits_Phase_5,2,5,56,103,1323409884
49,14,17,Jits_Phase_5,3,5,63,98,1323412948
49,14,17,Jits_Phase_5,0,1,48,35,1323665868
49,14,17,Jits_Phase_5,1,5,56,103,1323839924
49,14,17,Jits_Phase_5,2,5,80,127,1323860332
49,14,17,Jits_Phase_5,3,5,63,98,1323900124
49,14,17,Jits_Phase_5,0,1,48,31,1324128988
49,14,17,Jits_Phase_5,1,5,80,127,1324319968
49,14,17,Jits_Phase_5,2,5,63,98,1324339680
49,14,17,Jits_Phase_5,3,5,56,103,1324400016
49,14,17,Jits_Phase_5,0,1,48,35,1324640644
49,14,17,Jits_Phase_5,1,5,63,98,1324830052
49,14,17,Jits_Phase_5,2,5,56,103,1324840176
49,14,17,Jits_Phase_5,3,5,80,127,1324889428
49,14,17,Jits_Phase_5,4,1,48,21,1325102144
49,14,17,Jits_Phase_5,0,5,56,103,1325319588
49,14,17,Jits_Phase_5,1,5,63,98,1325339976
49,14,17,Jits_Phase_5,2,5,80,127,1325350244
49,14,17,Jits_Phase_5,3,1,48,27,1325585460
49,14,17,Jits_Phase_5,0,5,56,103,1325810132
49,14,17,Jits_Phase_5,1,5,63,98,1325813052
49,14,17,Jits_Phase_5,2,5,80,127,1325829696
49,14,17,Jits_Phase_5,3,1,48,24,1326092996
49,14,17,Jits_Phase_5,0,5,63,98,1326349668
49,14,17,Jits_Phase_5,1,5,56,103,1326380540
49,14,17,Jits_Phase_5,2,5,80,127,1326410212
49,14,17,Jits_Phase_5,3,1,48,25,1326562128
49,14,17,Jits_Phase_5,0,5,80,127,1326809636
49,14,17,Jits_Phase_5,1,5,56,103,1326899692
49,14,17,Jits_Phase_5,2,5,63,98,1326902684
49,14,17,Jits_Phase_5,0,1,48,28,1327115612
49,14,17,Jits_Phase_5,1,5,56,103,1327310452
49,14,17,Jits_Phase_5,2,5,80,127,1327313812
49,14,17,Jits_Phase_5,3,5,63,98,1327389944
49,14,17,Jits_Phase_5,4,1,48,26,1327520212
49,14,17,Jits_Phase_5,0,5,80,127,1327809776
49,14,17,Jits_Phase_5,1,5,63,98,1327870312
49,14,17,Jits_Phase_5,2,5,56,103,1327899988
49,14,17,Jits_Phase_5,3,1,48,26,1327935460
49,14,17,Jits_Phase_5,0,5,63,98,1328309836
49,14,17,Jits_Phase_5,1,5,80,127,1328319808
49,14,17,Jits_Phase_5,2,1,48,22,1328348408
49,14,17,Jits_Phase_5,3,5,56,103,1328389776
49,14,17,Jits_Phase_5,0,1,48,26,1328795836
49,14,17,Jits_Phase_5,1,5,56,103,1328869664
49,14,17,Jits_Phase_5,2,5,80,127,1328899548
49,14,17,Jits_Phase_5,3,5,63,98,1328949896
49,14,17,Jits_Phase_5,0,1,48,28,1329276916
49,14,17,Jits_Phase_5,1,5,63,98,1329459672
49,14,17,Jits_Phase_5,2,5,56,103,1329490268
49,14,17,Jits_Phase_5,3,5,80,127,1329493408
49,14,17,Jits_Phase_5,0,1,48,23,1329794800
49,14,17,Jits_Phase_5,1,5,63,98,1329960240
49,14,17,Jits_Phase_5,2,5,80,127,1329979948
49,14,17,Jits_Phase_5,3,5,56,103,1329990216
49,14,17,Jits_Phase_5,0,1,48,32,1330277012
49,14,17,Jits_Phase_5,1,5,56,103,1330470476
49,14,17,Jits_Phase_5,2,5,63,98,1330473392
49,14,17,Jits_Phase_5,3,5,80,127,1330489664
49,14,17,Jits_Phase_5,0,1,48,29,1330756428
49,14,17,Jits_Phase_5,1,5,56,103,1330919728
49,14,17,Jits_Phase_5,2,5,63,98,1330930072
49,14,17,Jits_Phase_5,3,5,80,127,1330959748
49,14,17,Jits_Phase_5,0,1,48,31,1331227108
49,14,17,Jits_Phase_5,1,5,63,98,1331439928
49,14,17,Jits_Phase_5,2,5,80,127,1331459712
49,14,17,Jits_Phase_5,3,5,56,103,1331500544
49,14,17,Jits_Phase_5,0,1,48,31,1331732104
49,14,17,Jits_Phase_5,1,5,56,103,1331970688
49,14,17,Jits_Phase_5,2,5,63,98,1332010548
49,14,17,Jits_Phase_5,3,5,80,127,1332013912
49,14,17,Jits_Phase_5,0,1,48,35,1332218008
49,14,17,Jits_Phase_5,1,5,80,127,1332409732
49,14,17,Jits_Phase_5,2,5,56,103,1332449816
49,14,17,Jits_Phase_5,3,5,63,98,1332499792
49,14,17,Jits_Phase_5,4,1,48,38,1332673204
49,14,17,Jits_Phase_5,0,5,56,103,1332969916
49,14,17,Jits_Phase_5,1,5,80,127,1332980188
49,14,17,Jits_Phase_5,2,5,63,98,1333009712
49,14,17,Jits_Phase_5,3,1,48,29,1333195628
49,14,17,Jits_Phase_5,0,5,56,103,1333420532
49,14,17,Jits_Phase_5,1,5,80,127,1333460324
49,14,17,Jits_Phase_5,2,5,63,98,1333509476
49,14,17,Jits_Phase_5,3,1,48,31,1333680272
49,14,17,Jits_Phase_5,0,5,56,103,1333920004
49,14,17,Jits_Phase_5,1,5,80,127,1333960016
49,14,17,Jits_Phase_5,2,5,63,98,1334010212
49,14,17,Jits_Phase_5,3,1,48,32,1334086892
49,14,17,Jits_Phase_5,0,5,80,127,1334409500
49,14,17,Jits_Phase_5,1,1,48,32,1334483264
49,14,17,Jits_Phase_5,2,5,63,98,1334489588
49,14,17,Jits_Phase_5,3,5,56,103,1334499560
49,14,17,Jits_Phase_5,0,1,48,30,1334919944
49,14,17,Jits_Phase_5,1,5,80,127,1334959752
49,14,17,Jits_Phase_5,2,5,56,103,1334969648
49,14,17,Jits_Phase_5,3,5,63,98,1334990256
49,14,17,Jits_Phase_5,0,1,48,38,1335371496
49,14,17,Jits_Phase_5,1,5,63,98,1335429536
49,14,17,Jits_Phase_5,2,5,56,103,1335500172
49,14,17,Jits_Phase_5,3,5,80,127,1335503164
49,14,17,Jits_Phase_5,0,1,48,31,1335850488
49,14,17,Jits_Phase_5,1,5,80,127,1335919916
49,14,17,Jits_Phase_5,2,5,63,98,1335970024
49,14,17,Jits_Phase_5,3,5,56,103,1336010036
49,14,17,Jits_Phase_5,0,5,63,98,1336459604
49,14,17,Jits_Phase_5,1,5,56,103,1336499692
49,14,17,Jits_Phase_5,2,5,80,127,1336509736
49,14,17,Jits_Phase_5,0,1,48,27,1336861792
49,14,17,Jits_Phase_5,1,5,63,98,1336950172
49,14,17,Jits_Phase_5,2,5,56,103,1336969568
49,14,17,Jits_Phase_5,3,5,80,127,1336990024
49,14,17,Jits_Phase_5,0,1,48,43,1337305864
49,14,17,Jits_Phase_5,1,5,80,127,1337409872
49,14,17,Jits_Phase_5,2,5,56,103,1337419996
49,14,17,Jits_Phase_5,3,5,63,98,1337439728
49,14,17,Jits_Phase_5,0,1,48,36,1337862024
49,14,17,Jits_Phase_5,1,5,63,98,1337940592
49,14,17,Jits_Phase_5,2,5,56,103,1337980516
49,14,17,Jits_Phase_5,3,5,80,127,1338009968
49,14,17,Jits_Phase_5,0,1,48,24,1338359608
49,14,17,Jits_Phase_5,1,5,56,103,1338400088
49,14,17,Jits_Phase_5,2,5,63,98,1338429840
49,14,17,Jits_Phase_5,3,5,80,127,1338459672
49,14,17,Jits_Phase_5,0,5,80,127,1338820068
49,14,17,Jits_Phase_5,1,1,48,24,1338834348
49,14,17,Jits_Phase_5,2,5,56,103,1338889664
49,14,17,Jits_Phase_5,3,5,63,98,1338892508
49,14,17,Jits_Phase_5,0,1,48,24,1339312968
49,14,17,Jits_Phase_5,1,5,56,103,1339329784
49,14,17,Jits_Phase_5,2,5,63,98,1339380056
49,14,17,Jits_Phase_5,3,5,80,127,1339410308
49,14,17,Jits_Phase_5,0,1,48,35,1339730760
49,14,17,Jits_Phase_5,1,5,63,98,1339810124
49,14,17,Jits_Phase_5,2,5,80,127,1339813560
49,14,17,Jits_Phase_5,3,5,56,103,1339869520
49,14,17,Jits_Phase_5,0,1,48,17,1340229872
49,14,17,Jits_Phase_5,1,5,56,103,1340339664
49,14,17,Jits_Phase_5,2,5,80,127,1340349784
49,14,17,Jits_Phase_5,3,5,63,98,1340399836
49,14,17,Jits_Phase_5,0,1,48,19,1340698380
49,14,17,Jits_Phase_5,1,5,63,98,1340809448
49,14,17,Jits_Phase_5,2,5,56,103,1340819792
49,14,17,Jits_Phase_5,3,5,80,127,1340849464
49,14,17,Jits_Phase_5,0,1,48,20,1341212728
49,14,17,Jits_Phase_5,1,5,63,98,1341340052
49,14,17,Jits_Phase_5,2,5,80,127,1341343564
49,14,17,Jits_Phase_5,3,5,56,103,1341369576
49,14,17,Jits_Phase_5,0,1,48,16,1341674780
49,14,17,Jits_Phase_5,1,5,63,98,1341860172
49,14,17,Jits_Phase_5,2,5,56,103,1341879656
49,14,17,Jits_Phase_5,3,5,80,127,1341882720
49,14,17,Jits_Phase_5,0,1,48,33,1342118052
49,14,17,Jits_Phase_5,1,5,63,98,1342319892
49,14,17,Jits_Phase_5,2,5,56,103,1342389572
49,14,17,Jits_Phase_5,3,5,80,127,1342410028
49,14,17,Jits_Phase_5,0,1,48,24,1342623532
49,14,17,Jits_Phase_5,1,5,56,103,1342809604
49,14,17,Jits_Phase_5,2,5,63,98,1342819800
49,14,17,Jits_Phase_5,3,5,80,127,1342909776
49,14,17,Jits_Phase_5,0,1,48,31,1343125156
49,14,17,Jits_Phase_5,1,5,56,103,1343329580
49,14,17,Jits_Phase_5,2,5,80,127,1343369516
49,14,17,Jits_Phase_5,3,5,63,98,1343379936
49,14,17,Jits_Phase_5,4,1,48,30,1343587124
49,14,17,Jits_Phase_5,0,5,56,103,1343849908
49,14,17,Jits_Phase_5,1,5,63,98,1343879432
49,14,17,Jits_Phase_5,2,5,80,127,1343910452
49,14,17,Jits_Phase_5,0,1,48,28,1344114332
49,14,17,Jits_Phase_5,1,5,80,127,1344309564
49,14,17,Jits_Phase_5,2,5,63,98,1344349604
49,14,17,Jits_Phase_5,3,5,56,103,1344370136
49,14,17,Jits_Phase_5,0,5,56,103,1344850484
49,14,17,Jits_Phase_5,1,5,80,127,1344869600
49,14,17,Jits_Phase_5,2,5,63,98,1344890504
49,14,17,Jits_Phase_5,3,1,48,23,1345064416
49,14,17,Jits_Phase_5,0,5,63,98,1345320404
49,14,17,Jits_Phase_5,1,5,56,103,1345329476
49,14,17,Jits_Phase_5,2,5,80,127,1345389964
49,14,17,Jits_Phase_5,3,1,48,17,1345535852
49,14,17,Jits_Phase_5,0,5,56,103,1345819992
49,14,17,Jits_Phase_5,1,5,63,98,1345889624
49,14,17,Jits_Phase_5,2,5,80,127,1345910080
49,14,17,Jits_Phase_5,3,1,48,31,1346021820
49,14,17,Jits_Phase_5,0,5,56,103,1346319744
49,14,17,Jits_Phase_5,1,5,63,98,1346349568
49,14,17,Jits_Phase_5,2,5,80,127,1346390500
49,14,17,Jits_Phase_5,3,1,48,31,1346441416
49,14,17,Jits_Phase_5,0,5,63,98,1346810288
49,14,17,Jits_Phase_5,1,5,56,103,1346860340
49,14,17,Jits_Phase_5,2,1,48,35,1346863008
49,14,17,Jits_Phase_5,3,5,80,127,1346869708
49,14,17,Jits_Phase_5,0,1,48,21,1347276204
49,14,17,Jits_Phase_5,1,5,56,103,1347349812
49,14,17,Jits_Phase_5,2,5,63,98,1347400444
49,14,17,Jits_Phase_5,3,5,80,127,1347410664
49,14,17,Jits_Phase_5,0,1,48,22,1347797308
49,14,17,Jits_Phase_5,1,5,56,103,1347819820
49,14,17,Jits_Phase_5,2,5,63,98,1347830088
49,14,17,Jits_Phase_5,3,5,80,127,1347910088
49,14,17,Jits_Phase_5,0,9999,9999,9999,1263567984
49,14,17,Jits_Phase_5,1,9999,9999,9999,1264067672
49,14,17,Jits_Phase_5,2,9999,9999,9999,1264567368
49,14,17,Jits_Phase_5,3,9999,9999,9999,1265067112
49,14,17,Jits_Phase_5,4,9999,9999,9999,1265567840
49,14,17,Jits_Phase_5,5,9999,9999,9999,1266067516
49,14,17,Jits_Phase_5,6,9999,9999,9999,1266567264
49,14,17,Jits_Phase_5,7,9999,9999,9999,1267067984
49,14,17,Jits_Phase_5,8,9999,9999,9999,1267567732
49,14,17,Jits_Phase_5,9,9999,9999,9999,1268067404
49,14,17,Jits_Phase_5,10,9999,9999,9999,1268567152
49,14,17,Jits_Phase_5,11,9999,9999,9999,1269067848
49,14,17,Jits_Phase_5,12,9999,9999,9999,1269567588
49,14,17,Jits_Phase_5,13,9999,9999,9999,1270067264
49,14,17,Jits_Phase_5,14,9999,9999,9999,1270568044
49,14,17,Jits_Phase_5,15,9999,9999,9999,1271067716
49,14,17,Jits_Phase_5,16,9999,9999,9999,1271567464
49,14,17,Jits_Phase_5,17,9999,9999,9999,1272067140
49,14,17,Jits_Phase_5,18,9999,9999,9999,1272567932
49,14,17,Jits_Phase_5,19,9999,9999,9999,1273067612
49,14,17,Jits_Phase_5,20,9999,9999,9999,1273567288
49,14,17,Jits_Phase_5,21,9999,9999,9999,1274068084
49,14,17,Jits_Phase_5,22,9999,9999,9999,1274567780
49,14,17,Jits_Phase_5,23,9999,9999,9999,1275067508
49,14,17,Jits_Phase_5,24,9999,9999,9999,1275567216
49,14,17,Jits_Phase_5,25,9999,9999,9999,1276067952
49,14,17,Jits_Phase_5,26,9999,9999,9999,1276567660
49,14,17,Jits_Phase_5,27,9999,9999,9999,1277067388
49,14,17,Jits_Phase_5,28,9999,9999,9999,1277568116
49,14,17,Jits_Phase_5,29,9999,9999,9999,1278078052
49,14,17,Jits_Phase_5,30,9999,9999,9999,1278567540
49,14,17,Jits_Phase_5,31,9999,9999,9999,1279067216
49,14,17,Jits_Phase_5,32,9999,9999,9999,1279567928
49,14,17,Jits_Phase_5,33,9999,9999,9999,1280067656
49,14,17,Jits_Phase_5,34,9999,9999,9999,1280567404
49,14,17,Jits_Phase_5,35,9999,9999,9999,1281067076
49,14,17,Jits_Phase_5,36,9999,9999,9999,1281567860
49,14,17,Jits_Phase_5,37,9999,9999,9999,1282067536
49,14,17,Jits_Phase_5,38,9999,9999,9999,1282567288
49,14,17,Jits_Phase_5,39,9999,9999,9999,1283068008
49,14,17,Jits_Phase_5,40,9999,9999,9999,1283567684
49,14,17,Jits_Phase_5,41,9999,9999,9999,1284067432
49,14,17,Jits_Phase_5,42,9999,9999,9999,1284567104
49,14,17,Jits_Phase_5,43,9999,9999,9999,1285067896
49,14,17,Jits_Phase_5,44,9999,9999,9999,1285567568
49,14,17,Jits_Phase_5,45,9999,9999,9999,1286067308
49,14,17,Jits_Phase_5,46,9999,9999,9999,1286568028
49,14,17,Jits_Phase_5,47,9999,9999,9999,1287067764
49,14,17,Jits_Phase_5,48,9999,9999,9999,1287577700
49,14,17,Jits_Phase_5,49,9999,9999,9999,1288077436
49,14,17,Jits_Phase_5,50,9999,9999,9999,1288577100
49,14,17,Jits_Phase_5,51,9999,9999,9999,1289077820
49,14,17,Jits_Phase_5,52,9999,9999,9999,1289577588
49,14,17,Jits_Phase_5,53,9999,9999,9999,1290077276
49,14,17,Jits_Phase_5,54,9999,9999,9999,1290578000
49,14,17,Jits_Phase_5,55,9999,9999,9999,1291077736
49,14,17,Jits_Phase_5,56,9999,9999,9999,1291577404
49,14,17,Jits_Phase_5,57,9999,9999,9999,1292077164
49,14,17,Jits_Phase_5,58,9999,9999,9999,1292577884
49,14,17,Jits_Phase_5,59,9999,9999,9999,1293077616
49,14,17,Jits_Phase_5,60,9999,9999,9999,1293577312
49,14,17,Jits_Phase_5,61,9999,9999,9999,1294078028
49,14,17,Jits_Phase_5,62,9999,9999,9999,1294577776
49,14,17,Jits_Phase_5,63,9999,9999,9999,1295077448
49,14,17,Jits_Phase_5,64,9999,9999,9999,1295597648
49,14,17,Jits_Phase_5,65,9999,9999,9999,1296097396
49,14,17,Jits_Phase_5,66,9999,9999,9999,1296598120
49,14,17,Jits_Phase_5,67,9999,9999,9999,1297108044
49,14,17,Jits_Phase_5,68,9999,9999,9999,1297607792
49,14,17,Jits_Phase_5,69,9999,9999,9999,1298107472
49,14,17,Jits_Phase_5,70,9999,9999,9999,1298607208
49,14,17,Jits_Phase_5,71,9999,9999,9999,1299107932
49,14,17,Jits_Phase_5,72,9999,9999,9999,1299607680
49,14,17,Jits_Phase_5,73,9999,9999,9999,1300107360
49,14,17,Jits_Phase_5,74,9999,9999,9999,1300608080
49,14,17,Jits_Phase_5,75,9999,9999,9999,1301118020
49,14,17,Jits_Phase_5,76,9999,9999,9999,1301617772
49,14,17,Jits_Phase_5,77,9999,9999,9999,1302117448
49,14,17,Jits_Phase_5,78,9999,9999,9999,1302617200
49,14,17,Jits_Phase_5,79,9999,9999,9999,1303117900
49,14,17,Jits_Phase_5,80,9999,9999,9999,1303617648
49,14,17,Jits_Phase_5,81,9999,9999,9999,1304097848
49,14,17,Jits_Phase_5,82,9999,9999,9999,1304597596
49,14,17,Jits_Phase_5,83,9999,9999,9999,1305097288
49,14,17,Jits_Phase_5,84,9999,9999,9999,1305598032
49,14,17,Jits_Phase_5,85,9999,9999,9999,1306097776
49,14,17,Jits_Phase_5,86,9999,9999,9999,1306597452
49,14,17,Jits_Phase_5,87,9999,9999,9999,1307097204
49,14,17,Jits_Phase_5,88,9999,9999,9999,1307597920
49,14,17,Jits_Phase_5,89,9999,9999,9999,1308097596
49,14,17,Jits_Phase_5,90,9999,9999,9999,1308597344
49,14,17,Jits_Phase_5,91,9999,9999,9999,1309098064
49,14,17,Jits_Phase_5,92,9999,9999,9999,1309597800
49,14,17,Jits_Phase_5,93,9999,9999,9999,1310097476
49,14,17,Jits_Phase_5,94,9999,9999,9999,1310597224
49,14,17,Jits_Phase_5,95,9999,9999,9999,1311097948
49,14,17,Jits_Phase_5,96,9999,9999,9999,1311597624
49,14,17,Jits_Phase_5,97,9999,9999,9999,1312047228
49,14,17,Jits_Phase_5,98,9999,9999,9999,1312547948
49,14,17,Jits_Phase_5,99,9999,9999,9999,1313047668
49,14,17,Jits_Phase_5,100,9999,9999,9999,1313547324
49,14,17,Jits_Phase_5,101,9999,9999,9999,1314048060
49,14,17,Jits_Phase_5,102,9999,9999,9999,1314558036
49,14,17,Jits_Phase_5,103,9999,9999,9999,1315057728
49,14,17,Jits_Phase_5,104,9999,9999,9999,1315557488
49,14,17,Jits_Phase_5,105,9999,9999,9999,1316057156
49,14,17,Jits_Phase_5,106,9999,9999,9999,1316557880
49,14,17,Jits_Phase_5,107,9999,9999,9999,1317057640
49,14,17,Jits_Phase_5,108,9999,9999,9999,1317557360
49,14,17,Jits_Phase_5,109,9999,9999,9999,1318058096
49,14,17,Jits_Phase_5,110,9999,9999,9999,1318557784
49,14,17,Jits_Phase_5,111,9999,9999,9999,1319057528
49,14,17,Jits_Phase_5,112,9999,9999,9999,1319557216
49,14,17,Jits_Phase_5,113,9999,9999,9999,1320057960
49,14,17,Jits_Phase_5,114,9999,9999,9999,1320607820
49,14,17,Jits_Phase_5,115,9999,9999,9999,1321107564
49,14,17,Jits_Phase_5,116,9999,9999,9999,1321607236
49,14,17,Jits_Phase_5,117,9999,9999,9999,1322108028
49,14,17,Jits_Phase_5,118,9999,9999,9999,1322607704
49,14,17,Jits_Phase_5,119,9999,9999,9999,1323107444
49,14,17,Jits_Phase_5,120,9999,9999,9999,1323607116
49,14,17,Jits_Phase_5,121,9999,9999,9999,1324107888
49,14,17,Jits_Phase_5,122,9999,9999,9999,1324607556
49,14,17,Jits_Phase_5,123,9999,9999,9999,1325107300
49,14,17,Jits_Phase_5,124,9999,9999,9999,1325607996
49,14,17,Jits_Phase_5,125,9999,9999,9999,1326107744
49,14,17,Jits_Phase_5,126,9999,9999,9999,1326607440
49,14,17,Jits_Phase_5,127,9999,9999,9999,1327107188
49,14,17,Jits_Phase_5,128,9999,9999,9999,1327607916
49,14,17,Jits_Phase_5,129,9999,9999,9999,1328107608
49,14,17,Jits_Phase_5,130,9999,9999,9999,1328607292
49,14,17,Jits_Phase_5,131,9999,9999,9999,1329207352
49,14,17,Jits_Phase_5,132,9999,9999,9999,1329707100
49,14,17,Jits_Phase_5,133,9999,9999,9999,1330207824
49,14,17,Jits_Phase_5,134,9999,9999,9999,1330707568
49,14,17,Jits_Phase_5,135,9999,9999,9999,1331207240
49,14,17,Jits_Phase_5,136,9999,9999,9999,1331707964
49,14,17,Jits_Phase_5,137,9999,9999,9999,1332207708
49,14,17,Jits_Phase_5,138,9999,9999,9999,1332707432
49,14,17,Jits_Phase_5,139,9999,9999,9999,1333207160
49,14,17,Jits_Phase_5,140,9999,9999,9999,1333707896
49,14,17,Jits_Phase_5,141,9999,9999,9999,1334207572
49,14,17,Jits_Phase_5,142,9999,9999,9999,1334707260
49,14,17,Jits_Phase_5,143,9999,9999,9999,1335207996
49,14,17,Jits_Phase_5,144,9999,9999,9999,1335707740
49,14,17,Jits_Phase_5,145,9999,9999,9999,1336207416
49,14,17,Jits_Phase_5,146,9999,9999,9999,1336707192
49,14,17,Jits_Phase_5,147,9999,9999,9999,1337207928
49,14,17,Jits_Phase_5,148,9999,9999,9999,1337707596
49,14,17,Jits_Phase_5,149,9999,9999,9999,1338207348
49,14,17,Jits_Phase_5,150,9999,9999,9999,1338607736
49,14,17,Jits_Phase_5,151,9999,9999,9999,1339107404
49,14,17,Jits_Phase_5,152,9999,9999,9999,1339607096
49,14,17,Jits_Phase_5,153,9999,9999,9999,1340107876
49,14,17,Jits_Phase_5,154,9999,9999,9999,1340607552
49,14,17,Jits_Phase_5,155,9999,9999,9999,1341107292
49,14,17,Jits_Phase_5,156,9999,9999,9999,1341608004
49,14,17,Jits_Phase_5,157,9999,9999,9999,1342107748
49,14,17,Jits_Phase_5,158,9999,9999,9999,1342607484
49,14,17,Jits_Phase_5,159,9999,9999,9999,1343107156
49,14,17,Jits_Phase_5,160,9999,9999,9999,1343607872
49,14,17,Jits_Phase_5,161,9999,9999,9999,1344107608
49,14,17,Jits_Phase_5,162,9999,9999,9999,1344607292
49,14,17,Jits_Phase_5,163,9999,9999,9999,1345108028
49,14,17,Jits_Phase_5,164,9999,9999,9999,1345607760
49,14,17,Jits_Phase_5,165,9999,9999,9999,1346107508
49,14,17,Jits_Phase_5,166,9999,9999,9999,1346607164
49,14,17,Jits_Phase_5,167,9999,9999,9999,1347107896
49,14,17,Jits_Phase_5,168,9999,9999,9999,1347607644
49,14,17,Jits_Phase_5,169,9999,9999,9999,1348107320
49,15,15,Jits_Phase_8,0,5,56,103,1357508164
49,15,15,Jits_Phase_8,1,5,63,98,1357511264
49,15,15,Jits_Phase_8,2,5,80,127,1357514236
49,15,15,Jits_Phase_8,3,1,48,26,1357867904
49,15,15,Jits_Phase_8,0,5,56,103,1358307620
49,15,15,Jits_Phase_8,1,5,63,98,1358310788
49,15,15,Jits_Phase_8,2,5,80,127,1358314060
49,15,15,Jits_Phase_8,0,5,80,127,1359048232
49,15,15,Jits_Phase_8,1,1,48,17,1359125144
49,15,15,Jits_Phase_8,2,5,63,98,1359138288
49,15,15,Jits_Phase_8,3,5,56,103,1359148264
49,15,15,Jits_Phase_8,0,5,56,103,1359868164
49,15,15,Jits_Phase_8,1,5,63,98,1359877540
49,15,15,Jits_Phase_8,2,1,48,21,1359907936
49,15,15,Jits_Phase_8,3,5,80,127,1359967540
49,15,15,Jits_Phase_8,0,1,48,35,1360566320
49,15,15,Jits_Phase_8,1,5,63,98,1360638336
49,15,15,Jits_Phase_8,2,5,80,127,1360668148
49,15,15,Jits_Phase_8,3,5,56,103,1360697972
49,15,15,Jits_Phase_8,0,1,48,27,1361324768
49,15,15,Jits_Phase_8,1,5,56,103,1361437996
49,15,15,Jits_Phase_8,2,5,80,127,1361538496
49,15,15,Jits_Phase_8,3,5,63,98,1361587504
49,15,15,Jits_Phase_8,0,1,48,29,1362116228
49,15,15,Jits_Phase_8,1,5,56,103,1362237980
49,15,15,Jits_Phase_8,2,5,80,127,1362288132
49,15,15,Jits_Phase_8,3,5,63,98,1362327996
49,15,15,Jits_Phase_8,0,1,48,30,1362833628
49,15,15,Jits_Phase_8,1,5,80,127,1363068404
49,15,15,Jits_Phase_8,2,5,63,98,1363097932
49,15,15,Jits_Phase_8,3,5,56,103,1363167684
49,15,15,Jits_Phase_8,0,1,48,21,1363531796
49,15,15,Jits_Phase_8,1,5,63,98,1363897908
49,15,15,Jits_Phase_8,2,5,56,103,1363928332
49,15,15,Jits_Phase_8,3,5,80,127,1363987896
49,15,15,Jits_Phase_8,4,1,48,45,1364287624
49,15,15,Jits_Phase_8,0,5,56,103,1364638004
49,15,15,Jits_Phase_8,1,5,80,127,1364640996
49,15,15,Jits_Phase_8,2,5,63,98,1364758028
49,15,15,Jits_Phase_8,3,1,48,32,1364946212
49,15,15,Jits_Phase_8,0,5,56,103,1365517632
49,15,15,Jits_Phase_8,1,5,80,127,1365557796
49,15,15,Jits_Phase_8,2,5,63,98,1365567920
49,15,15,Jits_Phase_8,3,1,48,27,1365650544
49,15,15,Jits_Phase_8,0,1,48,43,1366257744
49,15,15,Jits_Phase_8,1,5,56,103,1366277468
49,15,15,Jits_Phase_8,2,5,80,127,1366298080
49,15,15,Jits_Phase_8,3,5,63,98,1366378104
49,15,15,Jits_Phase_8,0,1,48,30,1366982564
49,15,15,Jits_Phase_8,1,5,80,127,1367068012
49,15,15,Jits_Phase_8,2,1,48,14,1367108732
49,15,15,Jits_Phase_8,3,5,56,103,1367168488
49,15,15,Jits_Phase_8,4,5,63,98,1367177636
49,15,15,Jits_Phase_8,0,1,48,54,1367771944
49,15,15,Jits_Phase_8,1,5,63,98,1367838136
49,15,15,Jits_Phase_8,2,5,80,127,1367897416
49,15,15,Jits_Phase_8,3,5,56,103,1367908056
49,15,15,Jits_Phase_8,0,1,48,50,1368468388
49,15,15,Jits_Phase_8,1,5,56,103,1368637872
49,15,15,Jits_Phase_8,2,5,63,98,1368707432
49,15,15,Jits_Phase_8,3,5,80,127,1368710868
49,15,15,Jits_Phase_8,0,1,48,47,1369192300
49,15,15,Jits_Phase_8,1,5,63,98,1369468136
49,15,15,Jits_Phase_8,2,5,56,103,1369517516
49,15,15,Jits_Phase_8,3,5,80,127,1369520504
49,15,15,Jits_Phase_8,4,1,48,48,1369879332
49,15,15,Jits_Phase_8,0,5,56,103,1370228148
49,15,15,Jits_Phase_8,1,5,80,127,1370231288
49,15,15,Jits_Phase_8,2,5,63,98,1370318204
49,15,15,Jits_Phase_8,3,1,48,31,1370656732
49,15,15,Jits_Phase_8,0,5,63,98,1371067988
49,15,15,Jits_Phase_8,1,5,56,103,1371157752
49,15,15,Jits_Phase_8,2,5,80,127,1371187500
49,15,15,Jits_Phase_8,3,1,48,41,1371501996
49,15,15,Jits_Phase_8,0,5,56,103,1371858308
49,15,15,Jits_Phase_8,1,5,63,98,1371957884
49,15,15,Jits_Phase_8,2,5,80,127,1371988260
49,15,15,Jits_Phase_8,0,5,63,98,1372677456
49,15,15,Jits_Phase_8,1,5,56,103,1372687876
49,15,15,Jits_Phase_8,2,5,80,127,1372777736
49,15,15,Jits_Phase_8,3,1,48,53,1373053772
49,15,15,Jits_Phase_8,0,5,63,98,1373497744
49,15,15,Jits_Phase_8,1,5,56,103,1373577860
49,15,15,Jits_Phase_8,2,5,80,127,1373580776
49,15,15,Jits_Phase_8,3,1,48,32,1373844836
49,15,15,Jits_Phase_8,0,5,80,127,1374257712
49,15,15,Jits_Phase_8,1,5,63,98,1374277948
49,15,15,Jits_Phase_8,2,5,56,103,1374338360
49,15,15,Jits_Phase_8,3,1,48,40,1374514668
49,15,15,Jits_Phase_8,0,1,48,47,1375094176
49,15,15,Jits_Phase_8,1,5,56,103,1375098260
49,15,15,Jits_Phase_8,2,5,63,98,1375117892
49,15,15,Jits_Phase_8,3,5,80,127,1375121256
49,15,15,Jits_Phase_8,0,1,48,46,1375767144
49,15,15,Jits_Phase_8,1,5,63,98,1375837916
49,15,15,Jits_Phase_8,2,5,80,127,1375917624
49,15,15,Jits_Phase_8,3,5,56,103,1375927672
49,15,15,Jits_Phase_8,0,1,48,66,1376514516
49,15,15,Jits_Phase_8,1,5,63,98,1376657816
49,15,15,Jits_Phase_8,2,5,56,103,1376678200
49,15,15,Jits_Phase_8,3,5,80,127,1376728400
49,15,15,Jits_Phase_8,0,1,48,60,1377269100
49,15,15,Jits_Phase_8,1,5,80,127,1377457564
49,15,15,Jits_Phase_8,2,5,63,98,1377497580
49,15,15,Jits_Phase_8,3,5,56,103,1377517816
49,15,15,Jits_Phase_8,0,1,48,68,1377976780
49,15,15,Jits_Phase_8,1,5,56,103,1378298228
49,15,15,Jits_Phase_8,2,5,63,98,1378307824
49,15,15,Jits_Phase_8,3,5,80,127,1378327912
49,15,15,Jits_Phase_8,0,1,48,16,1378887568
49,15,15,Jits_Phase_8,1,5,56,103,1379028308
49,15,15,Jits_Phase_8,2,5,63,98,1379117396
49,15,15,Jits_Phase_8,3,5,80,127,1379177884
49,15,15,Jits_Phase_8,0,1,48,57,1379515544
49,15,15,Jits_Phase_8,1,5,80,127,1379857716
49,15,15,Jits_Phase_8,2,5,56,103,1379867988
49,15,15,Jits_Phase_8,3,5,63,98,1379937692
49,15,15,Jits_Phase_8,4,1,48,41,1380229548
49,15,15,Jits_Phase_8,0,5,63,98,1380688192
49,15,15,Jits_Phase_8,1,5,80,127,1380778476
49,15,15,Jits_Phase_8,2,5,56,103,1380787772
49,15,15,Jits_Phase_8,3,1,48,20,1380889328
49,15,15,Jits_Phase_8,0,5,63,98,1381418400
49,15,15,Jits_Phase_8,1,5,80,127,1381467732
49,15,15,Jits_Phase_8,2,5,56,103,1381527972
49,15,15,Jits_Phase_8,3,1,48,28,1381554532
49,15,15,Jits_Phase_8,0,1,48,19,1382164548
49,15,15,Jits_Phase_8,1,5,56,103,1382237432
49,15,15,Jits_Phase_8,2,5,80,127,1382287620
49,15,15,Jits_Phase_8,3,5,63,98,1382308156
49,15,15,Jits_Phase_8,0,1,48,16,1382891632
49,15,15,Jits_Phase_8,1,5,56,103,1383007580
49,15,15,Jits_Phase_8,2,5,80,127,1383067972
49,15,15,Jits_Phase_8,3,5,63,98,1383137576
49,15,15,Jits_Phase_8,0,1,48,18,1383667268
49,15,15,Jits_Phase_8,1,5,56,103,1383808528
49,15,15,Jits_Phase_8,2,5,80,127,1383838056
49,15,15,Jits_Phase_8,3,5,63,98,1383867656
49,15,15,Jits_Phase_8,0,1,48,32,1384351404
49,15,15,Jits_Phase_8,1,5,56,103,1384647988
49,15,15,Jits_Phase_8,2,5,80,127,1384667624
49,15,15,Jits_Phase_8,3,5,63,98,1384727868
49,15,15,Jits_Phase_8,0,1,48,31,1385118500
49,15,15,Jits_Phase_8,1,5,80,127,1385527612
49,15,15,Jits_Phase_8,2,5,56,103,1385537884
49,15,15,Jits_Phase_8,3,5,63,98,1385548104
49,15,15,Jits_Phase_8,0,1,48,34,1385896104
49,15,15,Jits_Phase_8,1,5,56,103,1386287428
49,15,15,Jits_Phase_8,2,5,80,127,1386328588
49,15,15,Jits_Phase_8,3,5,63,98,1386358188
49,15,15,Jits_Phase_8,4,1,48,16,1386631240
49,15,15,Jits_Phase_8,0,5,56,103,1387057572
49,15,15,Jits_Phase_8,1,5,63,98,1387088320
49,15,15,Jits_Phase_8,2,5,80,127,1387128036
49,15,15,Jits_Phase_8,3,1,48,15,1387338388
49,15,15,Jits_Phase_8,0,5,80,127,1387807972
49,15,15,Jits_Phase_8,1,5,63,98,1387858496
49,15,15,Jits_Phase_8,2,5,56,103,1387877612
49,15,15,Jits_Phase_8,0,5,56,103,1388637548
49,15,15,Jits_Phase_8,1,5,80,127,1388708276
49,15,15,Jits_Phase_8,2,5,63,98,1388767692
49,15,15,Jits_Phase_8,3,1,48,13,1388866180
49,15,15,Jits_Phase_8,0,5,80,127,1389438516
49,15,15,Jits_Phase_8,1,1,48,14,1389466896
49,15,15,Jits_Phase_8,2,5,63,98,1389528496
49,15,15,Jits_Phase_8,3,5,56,103,1389547984
49,15,15,Jits_Phase_8,0,1,48,28,1390143376
49,15,15,Jits_Phase_8,1,5,63,98,1390257604
49,15,15,Jits_Phase_8,2,5,56,103,1390278212
49,15,15,Jits_Phase_8,3,5,80,127,1390318076
49,15,15,Jits_Phase_8,0,1,48,31,1390794636
49,15,15,Jits_Phase_8,1,5,80,127,1391018548
49,15,15,Jits_Phase_8,2,5,63,98,1391037740
49,15,15,Jits_Phase_8,3,5,56,103,1391117684
49,15,15,Jits_Phase_8,4,1,48,30,1391471960
49,15,15,Jits_Phase_8,0,5,63,98,1391807720
49,15,15,Jits_Phase_8,1,5,56,103,1391917556
49,15,15,Jits_Phase_8,2,5,80,127,1391920624
49,15,15,Jits_Phase_8,3,1,48,32,1392084376
49,15,15,Jits_Phase_8,0,5,63,98,1392628296
49,15,15,Jits_Phase_8,1,5,56,103,1392638492
49,15,15,Jits_Phase_8,2,5,80,127,1392641484
49,15,15,Jits_Phase_8,3,1,48,47,1392798576
49,15,15,Jits_Phase_8,0,5,56,103,1393408336
49,15,15,Jits_Phase_8,1,1,48,69,1393409300
49,15,15,Jits_Phase_8,2,5,80,127,1393528436
49,15,15,Jits_Phase_8,3,5,63,98,1393568452
49,15,15,Jits_Phase_8,0,1,48,53,1394067000
49,15,15,Jits_Phase_8,1,5,56,103,1394227564
49,15,15,Jits_Phase_8,2,5,80,127,1394307464
49,15,15,Jits_Phase_8,3,5,63,98,1394327848
49,15,15,Jits_Phase_8,0,1,48,57,1394719652
49,15,15,Jits_Phase_8,1,5,56,103,1395028396
49,15,15,Jits_Phase_8,2,5,63,98,1395137936
49,15,15,Jits_Phase_8,3,5,80,127,1395141448
49,15,15,Jits_Phase_8,4,1,48,67,1395307540
49,15,15,Jits_Phase_8,0,1,48,63,1395845708
49,15,15,Jits_Phase_8,1,5,56,103,1395868052
49,15,15,Jits_Phase_8,2,5,80,127,1395897728
49,15,15,Jits_Phase_8,3,5,63,98,1395918264
49,15,15,Jits_Phase_8,0,1,48,39,1396361844
49,15,15,Jits_Phase_8,1,1,38,15,1396370744
49,15,15,Jits_Phase_8,2,5,63,98,1396657484
49,15,15,Jits_Phase_8,3,5,56,103,1396667904
49,15,15,Jits_Phase_8,4,5,80,127,1396678396
49,15,15,Jits_Phase_8,5,1,48,56,1396948532
49,15,15,Jits_Phase_8,0,5,80,127,1397448056
49,15,15,Jits_Phase_8,1,5,56,103,1397498260
49,15,15,Jits_Phase_8,2,5,63,98,1397538272
49,15,15,Jits_Phase_8,3,1,48,65,1397614296
49,15,15,Jits_Phase_8,0,1,48,91,1398146728
49,15,15,Jits_Phase_8,1,5,80,127,1398268256
49,15,15,Jits_Phase_8,2,5,63,98,1398287744
49,15,15,Jits_Phase_8,3,5,56,103,1398337868
49,15,15,Jits_Phase_8,0,1,48,80,1398854664
49,15,15,Jits_Phase_8,1,5,80,127,1399078200
49,15,15,Jits_Phase_8,2,5,56,103,1399108028
49,15,15,Jits_Phase_8,3,5,63,98,1399177508
49,15,15,Jits_Phase_8,4,1,48,66,1399477228
49,15,15,Jits_Phase_8,0,5,56,103,1399928088
49,15,15,Jits_Phase_8,1,5,80,127,1399938356
49,15,15,Jits_Phase_8,2,5,63,98,1399978292
49,15,15,Jits_Phase_8,3,1,48,44,1400001040
49,15,15,Jits_Phase_8,0,1,48,59,1400544388
49,15,15,Jits_Phase_8,1,5,56,103,1400637924
49,15,15,Jits_Phase_8,2,5,63,98,1400658396
49,15,15,Jits_Phase_8,3,5,80,127,1400727852
49,15,15,Jits_Phase_8,4,1,48,59,1401092660
49,15,15,Jits_Phase_8,0,5,63,98,1401458192
49,15,15,Jits_Phase_8,1,5,80,127,1401517464
49,15,15,Jits_Phase_8,2,5,56,103,1401538000
49,15,15,Jits_Phase_8,3,1,48,58,1401644196
49,15,15,Jits_Phase_8,0,1,48,54,1402227356
49,15,15,Jits_Phase_8,1,5,80,127,1402247460
49,15,15,Jits_Phase_8,2,5,56,103,1402278184
49,15,15,Jits_Phase_8,3,5,63,98,1402308084
49,15,15,Jits_Phase_8,0,1,48,55,1402821116
49,15,15,Jits_Phase_8,1,5,56,103,1403048248
49,15,15,Jits_Phase_8,2,5,63,98,1403107816
49,15,15,Jits_Phase_8,3,5,80,127,1403168056
49,15,15,Jits_Phase_8,4,1,48,67,1403455796
49,15,15,Jits_Phase_8,0,5,80,127,1403867540
49,15,15,Jits_Phase_8,1,5,56,103,1403888148
49,15,15,Jits_Phase_8,2,5,63,98,1403957604
49,15,15,Jits_Phase_8,3,1,48,46,1404124120
49,15,15,Jits_Phase_8,0,5,80,127,1404668208
49,15,15,Jits_Phase_8,1,5,63,98,1404687848
49,15,15,Jits_Phase_8,2,1,48,65,1404690008
49,15,15,Jits_Phase_8,3,5,56,103,1404717368
49,15,15,Jits_Phase_8,0,1,48,61,1405282360
49,15,15,Jits_Phase_8,1,5,80,127,1405457844
49,15,15,Jits_Phase_8,2,5,63,98,1405478152
49,15,15,Jits_Phase_8,3,5,56,103,1405537672
49,15,15,Jits_Phase_8,0,1,48,52,1405945496
49,15,15,Jits_Phase_8,1,5,80,127,1406257452
49,15,15,Jits_Phase_8,2,5,56,103,1406357872
49,15,15,Jits_Phase_8,3,5,63,98,1406387548
49,15,15,Jits_Phase_8,4,1,48,71,1406599248
49,15,15,Jits_Phase_8,0,5,63,98,1407048272
49,15,15,Jits_Phase_8,1,5,80,127,1407098352
49,15,15,Jits_Phase_8,2,5,56,103,1407117540
49,15,15,Jits_Phase_8,3,1,48,46,1407202684
49,15,15,Jits_Phase_8,0,1,48,57,1407769252
49,15,15,Jits_Phase_8,1,5,80,127,1407887668
49,15,15,Jits_Phase_8,2,5,56,103,1407917416
49,15,15,Jits_Phase_8,3,5,63,98,1407920484
49,15,15,Jits_Phase_8,0,1,48,46,1408363636
49,15,15,Jits_Phase_8,1,5,63,98,1408737768
49,15,15,Jits_Phase_8,2,5,56,103,1408777708
49,15,15,Jits_Phase_8,3,5,80,127,1408798016
49,15,15,Jits_Phase_8,4,1,48,36,1408908364
49,15,15,Jits_Phase_8,0,1,48,61,1409461276
49,15,15,Jits_Phase_8,1,5,80,127,1409497344
49,15,15,Jits_Phase_8,2,5,63,98,1409578320
49,15,15,Jits_Phase_8,3,5,56,103,1409618284
49,15,15,Jits_Phase_8,0,1,48,40,1410012708
49,15,15,Jits_Phase_8,1,5,63,98,1410317616
49,15,15,Jits_Phase_8,2,5,80,127,1410397512
49,15,15,Jits_Phase_8,3,5,56,103,1410418116
49,15,15,Jits_Phase_8,4,1,48,50,1410540796
49,15,15,Jits_Phase_8,0,1,48,46,1411071908
49,15,15,Jits_Phase_8,1,5,56,103,1411158352
49,15,15,Jits_Phase_8,2,5,63,98,1411168232
49,15,15,Jits_Phase_8,3,5,80,127,1411207500
49,15,15,Jits_Phase_8,0,1,48,48,1411576916
49,15,15,Jits_Phase_8,1,5,56,103,1411878204
49,15,15,Jits_Phase_8,2,5,80,127,1411881272
49,15,15,Jits_Phase_8,3,5,63,98,1412017432
49,15,15,Jits_Phase_8,4,1,48,45,1412155924
49,15,15,Jits_Phase_8,0,5,56,103,1412667892
49,15,15,Jits_Phase_8,1,1,48,43,1412719812
49,15,15,Jits_Phase_8,2,5,63,98,1412757972
49,15,15,Jits_Phase_8,3,5,80,127,1412827412
49,15,15,Jits_Phase_8,0,1,48,46,1413486392
49,15,15,Jits_Phase_8,1,5,63,98,1413548448
49,15,15,Jits_Phase_8,2,5,80,127,1413551884
49,15,15,Jits_Phase_8,3,5,56,103,1413607924
49,15,15,Jits_Phase_8,0,1,48,62,1414239764
49,15,15,Jits_Phase_8,1,5,80,127,1414388048
49,15,15,Jits_Phase_8,2,5,56,103,1414407460
49,15,15,Jits_Phase_8,3,5,63,98,1414417732
49,15,15,Jits_Phase_8,0,1,48,81,1415077148
49,15,15,Jits_Phase_8,1,5,56,103,1415097700
49,15,15,Jits_Phase_8,2,5,63,98,1415107824
49,15,15,Jits_Phase_8,3,5,80,127,1415177708
49,15,15,Jits_Phase_8,0,1,48,65,1415785800
49,15,15,Jits_Phase_8,1,5,80,127,1415897736
49,15,15,Jits_Phase_8,2,5,56,103,1415948016
49,15,15,Jits_Phase_8,3,5,63,98,1415997768
49,15,15,Jits_Phase_8,0,1,48,65,1416555888
49,15,15,Jits_Phase_8,1,5,56,103,1416777988
49,15,15,Jits_Phase_8,2,5,63,98,1416788408
49,15,15,Jits_Phase_8,3,5,80,127,1416828344
49,15,15,Jits_Phase_8,0,1,48,84,1417316840
49,15,15,Jits_Phase_8,1,5,56,103,1417517344
49,15,15,Jits_Phase_8,2,5,63,98,1417558356
49,15,15,Jits_Phase_8,3,5,80,127,1417607660
49,15,15,Jits_Phase_8,0,1,48,68,1418137732
49,15,15,Jits_Phase_8,1,5,80,127,1418278292
49,15,15,Jits_Phase_8,2,5,56,103,1418328444
49,15,15,Jits_Phase_8,3,5,63,98,1418347932
49,15,15,Jits_Phase_8,0,5,80,127,1419088204
49,15,15,Jits_Phase_8,1,5,63,98,1419147776
49,15,15,Jits_Phase_8,2,5,56,103,1419227716
49,15,15,Jits_Phase_8,3,1,48,40,1419516800
49,15,15,Jits_Phase_8,0,5,80,127,1419867600
49,15,15,Jits_Phase_8,1,5,56,103,1419907540
49,15,15,Jits_Phase_8,2,5,63,98,1419927776
49,15,15,Jits_Phase_8,3,1,48,82,1420094944
49,15,15,Jits_Phase_8,0,1,48,66,1420689584
49,15,15,Jits_Phase_8,1,5,56,103,1420717408
49,15,15,Jits_Phase_8,2,5,80,127,1420727604
49,15,15,Jits_Phase_8,3,5,63,98,1420767692
49,15,15,Jits_Phase_8,0,1,48,52,1421205744
49,15,15,Jits_Phase_8,1,5,56,103,1421587952
49,15,15,Jits_Phase_8,2,5,63,98,1421627964
49,15,15,Jits_Phase_8,3,5,80,127,1421631176
49,15,15,Jits_Phase_8,4,1,48,31,1421794108
49,15,15,Jits_Phase_8,0,5,63,98,1422257772
49,15,15,Jits_Phase_8,1,5,80,127,1422297488
49,15,15,Jits_Phase_8,2,1,48,48,1422367916
49,15,15,Jits_Phase_8,3,5,56,103,1422369552
49,15,15,Jits_Phase_8,0,1,48,62,1422923828
49,15,15,Jits_Phase_8,1,5,63,98,1423027688
49,15,15,Jits_Phase_8,2,5,56,103,1423107712
49,15,15,Jits_Phase_8,3,5,80,127,1423167876
49,15,15,Jits_Phase_8,0,1,48,62,1423611704
49,15,15,Jits_Phase_8,1,5,80,127,1423837788
49,15,15,Jits_Phase_8,2,5,63,98,1423887692
49,15,15,Jits_Phase_8,3,5,56,103,1423917516
49,15,15,Jits_Phase_8,0,1,48,59,1424594516
49,15,15,Jits_Phase_8,1,5,56,103,1424627968
49,15,15,Jits_Phase_8,2,5,63,98,1424678396
49,15,15,Jits_Phase_8,3,5,80,127,1424688204
49,15,15,Jits_Phase_8,0,1,48,83,1425286768
49,15,15,Jits_Phase_8,1,1,38,20,1425297012
49,15,15,Jits_Phase_8,2,5,56,103,1425437920
49,15,15,Jits_Phase_8,3,5,63,98,1425547488
49,15,15,Jits_Phase_8,4,5,80,127,1425568168
49,15,15,Jits_Phase_8,0,1,48,50,1426115360
49,15,15,Jits_Phase_8,1,5,63,98,1426237732
49,15,15,Jits_Phase_8,2,5,80,127,1426288036
49,15,15,Jits_Phase_8,3,5,56,103,1426378092
49,15,15,Jits_Phase_8,0,1,48,57,1426943144
49,15,15,Jits_Phase_8,1,5,63,98,1427028608
49,15,15,Jits_Phase_8,2,5,80,127,1427057972
49,15,15,Jits_Phase_8,3,5,56,103,1427148032
49,15,15,Jits_Phase_8,0,1,48,39,1427683708
49,15,15,Jits_Phase_8,1,5,63,98,1427828200
49,15,15,Jits_Phase_8,2,5,56,103,1427838396
49,15,15,Jits_Phase_8,3,5,80,127,1427937744
49,15,15,Jits_Phase_8,0,1,48,65,1428428400
49,15,15,Jits_Phase_8,1,5,63,98,1428728128
49,15,15,Jits_Phase_8,2,5,80,127,1428757876
49,15,15,Jits_Phase_8,3,5,56,103,1428787552
49,15,15,Jits_Phase_8,0,1,48,54,1429161108
49,15,15,Jits_Phase_8,1,5,80,127,1429548644
49,15,15,Jits_Phase_8,2,5,63,98,1429557792
49,15,15,Jits_Phase_8,3,5,56,103,1429588616
49,15,15,Jits_Phase_8,0,1,48,54,1429918608
49,15,15,Jits_Phase_8,1,5,80,127,1430247716
49,15,15,Jits_Phase_8,2,5,63,98,1430268548
49,15,15,Jits_Phase_8,3,5,56,103,1430317480
49,15,15,Jits_Phase_8,4,1,48,48,1430639848
49,15,15,Jits_Phase_8,0,5,63,98,1431078388
49,15,15,Jits_Phase_8,1,5,80,127,1431137536
49,15,15,Jits_Phase_8,2,5,56,103,1431158368
49,15,15,Jits_Phase_8,3,1,48,46,1431369616
49,15,15,Jits_Phase_8,0,5,63,98,1431838144
49,15,15,Jits_Phase_8,1,5,56,103,1431888448
49,15,15,Jits_Phase_8,2,5,80,127,1431897448
49,15,15,Jits_Phase_8,3,1,48,43,1432036392
49,15,15,Jits_Phase_8,0,1,48,43,1432616816
49,15,15,Jits_Phase_8,1,5,56,103,1432667588
49,15,15,Jits_Phase_8,2,5,80,127,1432677932
49,15,15,Jits_Phase_8,3,5,63,98,1432778312
49,15,15,Jits_Phase_8,0,5,80,127,1433428616
49,15,15,Jits_Phase_8,1,5,63,98,1433437544
49,15,15,Jits_Phase_8,2,1,48,49,1433539400
49,15,15,Jits_Phase_8,3,5,56,103,1433588048
49,15,15,Jits_Phase_8,0,1,48,46,1434213520
49,15,15,Jits_Phase_8,1,5,63,98,1434238424
49,15,15,Jits_Phase_8,2,5,80,127,1434278436
49,15,15,Jits_Phase_8,3,5,56,103,1434358364
49,15,15,Jits_Phase_8,0,5,56,103,1434987764
49,15,15,Jits_Phase_8,1,1,48,47,1435027900
49,15,15,Jits_Phase_8,2,5,80,127,1435088380
49,15,15,Jits_Phase_8,3,5,63,98,1435107796
49,15,15,Jits_Phase_8,0,1,48,51,1435754688
49,15,15,Jits_Phase_8,1,5,80,127,1435808216
49,15,15,Jits_Phase_8,2,5,56,103,1435818484
49,15,15,Jits_Phase_8,3,5,63,98,1435907484
49,15,15,Jits_Phase_8,0,1,48,57,1436515796
49,15,15,Jits_Phase_8,1,5,56,103,1436607824
49,15,15,Jits_Phase_8,2,5,63,98,1436628268
49,15,15,Jits_Phase_8,3,5,80,127,1436708136
49,15,15,Jits_Phase_8,0,1,48,63,1437297128
49,15,15,Jits_Phase_8,1,5,63,98,1437357388
49,15,15,Jits_Phase_8,2,5,56,103,1437447656
49,15,15,Jits_Phase_8,3,5,80,127,1437450868
49,15,15,Jits_Phase_8,0,1,48,65,1438074984
49,15,15,Jits_Phase_8,1,5,56,103,1438187764
49,15,15,Jits_Phase_8,2,5,80,127,1438248156
49,15,15,Jits_Phase_8,3,5,63,98,1438257452
49,15,15,Jits_Phase_8,0,1,48,49,1438865004
49,15,15,Jits_Phase_8,1,5,80,127,1439037796
49,15,15,Jits_Phase_8,2,5,56,103,1439048236
49,15,15,Jits_Phase_8,3,5,63,98,1439051452
49,15,15,Jits_Phase_8,0,1,48,65,1439678100
49,15,15,Jits_Phase_8,1,5,56,103,1439797612
49,15,15,Jits_Phase_8,2,5,80,127,1439807956
49,15,15,Jits_Phase_8,3,5,63,98,1439828216
49,15,15,Jits_Phase_8,0,1,48,36,1440474776
49,15,15,Jits_Phase_8,1,5,63,98,1440567568
49,15,15,Jits_Phase_8,2,5,80,127,1440628264
49,15,15,Jits_Phase_8,3,5,56,103,1440678388
49,15,15,Jits_Phase_8,0,1,48,52,1441265860
49,15,15,Jits_Phase_8,1,5,63,98,1441448172
49,15,15,Jits_Phase_8,2,5,56,103,1441457472
49,15,15,Jits_Phase_8,3,5,80,127,1441507596
49,15,15,Jits_Phase_8,0,1,48,50,1442088396
49,15,15,Jits_Phase_8,1,5,63,98,1442147632
49,15,15,Jits_Phase_8,2,5,80,127,1442168464
49,15,15,Jits_Phase_8,3,5,56,103,1442178360
49,15,15,Jits_Phase_8,0,5,63,98,1442947376
49,15,15,Jits_Phase_8,1,5,80,127,1442950740
49,15,15,Jits_Phase_8,2,1,48,41,1442964948
49,15,15,Jits_Phase_8,3,5,56,103,1442988352
49,15,15,Jits_Phase_8,0,1,48,44,1443760112
49,15,15,Jits_Phase_8,1,5,63,98,1443818280
49,15,15,Jits_Phase_8,2,5,80,127,1443847660
49,15,15,Jits_Phase_8,3,5,56,103,1443857780
49,15,15,Jits_Phase_8,0,1,48,61,1444532448
49,15,15,Jits_Phase_8,1,5,56,103,1444568292
49,15,15,Jits_Phase_8,2,5,80,127,1444598120
49,15,15,Jits_Phase_8,3,5,63,98,1444627940
49,15,15,Jits_Phase_8,0,1,48,56,1445342836
49,15,15,Jits_Phase_8,1,5,63,98,1445467556
49,15,15,Jits_Phase_8,2,5,56,103,1445507416
49,15,15,Jits_Phase_8,3,5,80,127,1445510632
49,15,15,Jits_Phase_8,0,1,48,51,1446168184
49,15,15,Jits_Phase_8,1,5,80,127,1446169596
49,15,15,Jits_Phase_8,2,5,56,103,1446248000
49,15,15,Jits_Phase_8,3,5,63,98,1446298260
49,15,15,Jits_Phase_8,0,1,48,47,1446940412
49,15,15,Jits_Phase_8,1,5,80,127,1446948232
49,15,15,Jits_Phase_8,2,5,56,103,1446967572
49,15,15,Jits_Phase_8,3,5,63,98,1447057860
49,15,15,Jits_Phase_8,0,1,48,51,1447694980
49,15,15,Jits_Phase_8,1,5,80,127,1447789124
49,15,15,Jits_Phase_8,2,5,63,98,1447828240
49,15,15,Jits_Phase_8,3,5,56,103,1447868176
49,15,15,Jits_Phase_8,0,1,48,43,1448415560
49,15,15,Jits_Phase_8,1,5,63,98,1448597876
49,15,15,Jits_Phase_8,2,5,80,127,1448658268
49,15,15,Jits_Phase_8,3,5,56,103,1448688168
49,15,15,Jits_Phase_8,0,1,48,50,1449222864
49,15,15,Jits_Phase_8,1,5,56,103,1449437484
49,15,15,Jits_Phase_8,2,5,80,127,1449468208
49,15,15,Jits_Phase_8,3,5,63,98,1449558368
49,15,15,Jits_Phase_8,0,1,48,45,1450000524
49,15,15,Jits_Phase_8,1,5,56,103,1450247580
49,15,15,Jits_Phase_8,2,5,80,127,1450358116
49,15,15,Jits_Phase_8,3,5,63,98,1450388088
49,15,15,Jits_Phase_8,0,5,56,103,1451097360
49,15,15,Jits_Phase_8,1,5,63,98,1451157976
49,15,15,Jits_Phase_8,2,5,80,127,1451187576
49,15,15,Jits_Phase_8,3,1,48,35,1451193760
49,15,15,Jits_Phase_8,0,1,48,45,1451844028
49,15,15,Jits_Phase_8,1,5,56,103,1451867388
49,15,15,Jits_Phase_8,2,5,63,98,1451938252
49,15,15,Jits_Phase_8,3,5,80,127,1451957588
49,15,15,Jits_Phase_8,0,1,48,62,1452468924
49,15,15,Jits_Phase_8,1,5,80,127,1452637536
49,15,15,Jits_Phase_8,2,5,63,98,1452657924
49,15,15,Jits_Phase_8,3,5,56,103,1452708124
49,15,15,Jits_Phase_8,0,1,48,48,1453260884
49,15,15,Jits_Phase_8,1,5,63,98,1453457892
49,15,15,Jits_Phase_8,2,5,80,127,1453468012
49,15,15,Jits_Phase_8,3,5,56,103,1453518212
49,15,15,Jits_Phase_8,0,1,48,46,1454028196
49,15,15,Jits_Phase_8,1,5,63,98,1454257716
49,15,15,Jits_Phase_8,2,5,80,127,1454328148
49,15,15,Jits_Phase_8,3,5,56,103,1454347488
49,15,15,Jits_Phase_8,0,1,48,30,1454847364
49,15,15,Jits_Phase_8,1,5,63,98,1455087968
49,15,15,Jits_Phase_8,2,5,80,127,1455091256
49,15,15,Jits_Phase_8,3,5,56,103,1455157948
49,15,15,Jits_Phase_8,0,1,48,33,1455592784
49,15,15,Jits_Phase_8,1,5,80,127,1455837596
49,15,15,Jits_Phase_8,2,5,56,103,1455857908
49,15,15,Jits_Phase_8,3,5,63,98,1455868252
49,15,15,Jits_Phase_8,0,1,48,30,1456315540
49,15,15,Jits_Phase_8,1,5,56,103,1456658008
49,15,15,Jits_Phase_8,2,5,63,98,1456747868
49,15,15,Jits_Phase_8,3,5,80,127,1456751232
49,15,15,Jits_Phase_8,4,1,48,44,1457086024
49,15,15,Jits_Phase_8,0,5,80,127,1457427844
49,15,15,Jits_Phase_8,1,5,56,103,1457438040
49,15,15,Jits_Phase_8,2,5,63,98,1457457600
49,15,15,Jits_Phase_8,3,1,48,43,1457838924
49,15,15,Jits_Phase_8,0,5,63,98,1458227756
49,15,15,Jits_Phase_8,1,5,80,127,1458287948
49,15,15,Jits_Phase_8,2,5,56,103,1458298148
49,15,15,Jits_Phase_8,3,1,48,46,1458573888
49,15,15,Jits_Phase_8,0,5,63,98,1459097888
49,15,15,Jits_Phase_8,1,5,80,127,1459127712
49,15,15,Jits_Phase_8,2,5,56,103,1459167800
49,15,15,Jits_Phase_8,3,1,48,35,1459401144
49,15,15,Jits_Phase_8,0,5,56,103,1459887532
49,15,15,Jits_Phase_8,1,5,80,127,1459897728
49,15,15,Jits_Phase_8,2,5,63,98,1459937668
49,15,15,Jits_Phase_8,3,1,48,47,1460184492
49,15,15,Jits_Phase_8,0,5,80,127,1460648268
49,15,15,Jits_Phase_8,1,5,56,103,1460728068
49,15,15,Jits_Phase_8,2,5,63,98,1460738560
49,15,15,Jits_Phase_8,3,1,48,40,1461015964
49,15,15,Jits_Phase_8,0,5,80,127,1461498152
49,15,15,Jits_Phase_8,1,5,56,103,1461578200
49,15,15,Jits_Phase_8,2,5,63,98,1461588544
49,15,15,Jits_Phase_8,3,1,48,44,1461867516
49,15,15,Jits_Phase_8,0,5,80,127,1462337868
49,15,15,Jits_Phase_8,1,5,56,103,1462388024
49,15,15,Jits_Phase_8,2,5,63,98,1462438220
49,15,15,Jits_Phase_8,3,1,48,44,1462714936
49,15,15,Jits_Phase_8,0,5,56,103,1463277908
49,15,15,Jits_Phase_8,1,5,63,98,1463280976
49,15,15,Jits_Phase_8,2,5,80,127,1463328184
49,15,15,Jits_Phase_8,3,1,48,46,1463571044
49,15,15,Jits_Phase_8,0,5,56,103,1464098208
49,15,15,Jits_Phase_8,1,5,63,98,1464127808
49,15,15,Jits_Phase_8,2,5,80,127,1464138028
49,15,15,Jits_Phase_8,3,1,48,28,1464376076
49,15,15,Jits_Phase_8,0,5,63,98,1464807764
49,15,15,Jits_Phase_8,1,5,56,103,1464877668
49,15,15,Jits_Phase_8,2,5,80,127,1464927820
49,15,15,Jits_Phase_8,3,1,48,50,1465163556
49,15,15,Jits_Phase_8,0,5,63,98,1465638388
49,15,15,Jits_Phase_8,1,5,56,103,1465647612
49,15,15,Jits_Phase_8,2,5,80,127,1465650676
49,15,15,Jits_Phase_8,3,1,48,22,1465912264
49,15,15,Jits_Phase_8,0,5,80,127,1466387788
49,15,15,Jits_Phase_8,1,5,56,103,1466448276
49,15,15,Jits_Phase_8,2,5,63,98,1466538704
49,15,15,Jits_Phase_8,3,1,48,37,1466710404
49,15,15,Jits_Phase_8,0,5,80,127,1467187560
49,15,15,Jits_Phase_8,1,5,56,103,1467287908
49,15,15,Jits_Phase_8,2,5,63,98,1467327844
49,15,15,Jits_Phase_8,3,1,48,43,1467396892
49,15,15,Jits_Phase_8,0,5,56,103,1468037776
49,15,15,Jits_Phase_8,1,5,63,98,1468057940
49,15,15,Jits_Phase_8,2,5,80,127,1468097804
49,15,15,Jits_Phase_8,3,1,48,45,1468148712
49,15,15,Jits_Phase_8,0,5,63,98,1468807656
49,15,15,Jits_Phase_8,1,5,56,103,1468827892
49,15,15,Jits_Phase_8,2,1,48,49,1468829828
49,15,15,Jits_Phase_8,3,5,80,127,1468928412
49,15,15,Jits_Phase_8,0,1,48,46,1469561520
49,15,15,Jits_Phase_8,1,5,63,98,1469598184
49,15,15,Jits_Phase_8,2,5,80,127,1469707712
49,15,15,Jits_Phase_8,3,5,56,103,1469738580
49,15,15,Jits_Phase_8,0,1,48,45,1470361428
49,15,15,Jits_Phase_8,1,5,56,103,1470418252
49,15,15,Jits_Phase_8,2,5,63,98,1470448004
49,15,15,Jits_Phase_8,3,5,80,127,1470498116
49,15,15,Jits_Phase_8,0,1,48,39,1471156104
49,15,15,Jits_Phase_8,1,5,63,98,1471188416
49,15,15,Jits_Phase_8,2,5,56,103,1471217944
49,15,15,Jits_Phase_8,3,5,80,127,1471268204
49,15,15,Jits_Phase_8,0,1,48,26,1471956160
49,15,15,Jits_Phase_8,1,5,56,103,1472017840
49,15,15,Jits_Phase_8,2,5,63,98,1472038372
49,15,15,Jits_Phase_8,3,5,80,127,1472118104
49,15,15,Jits_Phase_8,0,1,48,33,1472644568
49,15,15,Jits_Phase_8,1,1,48,17,1472737612
49,15,15,Jits_Phase_8,2,5,63,98,1472787760
49,15,15,Jits_Phase_8,3,5,56,103,1472848680
49,15,15,Jits_Phase_8,4,5,80,127,1472877908
49,15,15,Jits_Phase_8,0,1,48,46,1473530368
49,15,15,Jits_Phase_8,1,5,56,103,1473627580
49,15,15,Jits_Phase_8,2,5,80,127,1473687900
49,15,15,Jits_Phase_8,3,5,63,98,1473727908
49,15,15,Jits_Phase_8,0,1,48,56,1474404400
49,15,15,Jits_Phase_8,1,5,63,98,1474407732
49,15,15,Jits_Phase_8,2,5,56,103,1474468420
49,15,15,Jits_Phase_8,3,5,80,127,1474537788
49,15,15,Jits_Phase_8,0,1,48,38,1475227616
49,15,15,Jits_Phase_8,1,5,56,103,1475288552
49,15,15,Jits_Phase_8,2,5,63,98,1475297628
49,15,15,Jits_Phase_8,3,5,80,127,1475300988
49,15,15,Jits_Phase_8,0,5,63,98,1476027700
49,15,15,Jits_Phase_8,1,5,56,103,1476088312
49,15,15,Jits_Phase_8,2,5,80,127,1476091528
49,15,15,Jits_Phase_8,3,1,48,48,1476097804
49,15,15,Jits_Phase_8,0,5,63,98,1476808040
49,15,15,Jits_Phase_8,1,5,80,127,1476837792
49,15,15,Jits_Phase_8,2,5,56,103,1476858248
49,15,15,Jits_Phase_8,3,1,48,46,1476859216
49,15,15,Jits_Phase_8,0,5,56,103,1477538336
49,15,15,Jits_Phase_8,1,5,63,98,1477588540
49,15,15,Jits_Phase_8,2,1,48,48,1477646280
49,15,15,Jits_Phase_8,3,5,80,127,1477668324
49,15,15,Jits_Phase_8,0,5,80,127,1478237504
49,15,15,Jits_Phase_8,1,5,63,98,1478277516
49,15,15,Jits_Phase_8,2,5,56,103,1478297828
49,15,15,Jits_Phase_8,3,1,48,29,1478373608
49,15,15,Jits_Phase_8,0,1,48,39,1479023292
49,15,15,Jits_Phase_8,1,5,56,103,1479108068
49,15,15,Jits_Phase_8,2,5,80,127,1479118472
49,15,15,Jits_Phase_8,3,5,63,98,1479137588
49,15,15,Jits_Phase_8,0,1,48,50,1479750312
49,15,15,Jits_Phase_8,1,5,56,103,1479888332
49,15,15,Jits_Phase_8,2,5,63,98,1479938536
49,15,15,Jits_Phase_8,3,5,80,127,1479968360
49,15,15,Jits_Phase_8,0,1,48,41,1480519808
49,15,15,Jits_Phase_8,1,5,56,103,1480637820
49,15,15,Jits_Phase_8,2,5,63,98,1480648240
49,15,15,Jits_Phase_8,3,5,80,127,1480698444
49,15,15,Jits_Phase_8,0,1,48,45,1481351096
49,15,15,Jits_Phase_8,1,5,56,103,1481428444
49,15,15,Jits_Phase_8,2,5,80,127,1481431436
49,15,15,Jits_Phase_8,3,5,63,98,1481588108
49,15,15,Jits_Phase_8,0,1,48,27,1482127320
49,15,15,Jits_Phase_8,1,5,63,98,1482247432
49,15,15,Jits_Phase_8,2,5,56,103,1482318412
49,15,15,Jits_Phase_8,3,5,80,127,1482358424
49,15,15,Jits_Phase_8,0,1,48,44,1482908052
49,15,15,Jits_Phase_8,1,5,63,98,1483088272
49,15,15,Jits_Phase_8,2,5,56,103,1483178332
49,15,15,Jits_Phase_8,3,5,80,127,1483181324
49,15,15,Jits_Phase_8,0,1,48,61,1483628160
49,15,15,Jits_Phase_8,1,5,56,103,1483867500
49,15,15,Jits_Phase_8,2,5,63,98,1483957560
49,15,15,Jits_Phase_8,3,5,80,127,1483967832
49,15,15,Jits_Phase_8,0,1,48,50,1484418028
49,15,15,Jits_Phase_8,1,5,56,103,1484637664
49,15,15,Jits_Phase_8,2,5,63,98,1484687868
49,15,15,Jits_Phase_8,3,5,80,127,1484717396
49,15,15,Jits_Phase_8,0,1,48,39,1485150652
49,15,15,Jits_Phase_8,1,5,63,98,1485518408
49,15,15,Jits_Phase_8,2,5,80,127,1485528384
49,15,15,Jits_Phase_8,3,5,56,103,1485587876
49,15,15,Jits_Phase_8,4,1,48,34,1485902668
49,15,15,Jits_Phase_8,0,5,63,98,1486238208
49,15,15,Jits_Phase_8,1,5,80,127,1486297556
49,15,15,Jits_Phase_8,2,5,56,103,1486338464
49,15,15,Jits_Phase_8,3,1,48,41,1486644324
49,15,15,Jits_Phase_8,0,5,56,103,1487138064
49,15,15,Jits_Phase_8,1,5,80,127,1487157624
49,15,15,Jits_Phase_8,2,5,63,98,1487178184
49,15,15,Jits_Phase_8,3,1,48,44,1487468016
49,15,15,Jits_Phase_8,0,5,63,98,1487858124
49,15,15,Jits_Phase_8,1,5,56,103,1487877536
49,15,15,Jits_Phase_8,2,5,80,127,1487917476
49,15,15,Jits_Phase_8,3,1,48,41,1488247116
49,15,15,Jits_Phase_8,0,5,63,98,1488668368
49,15,15,Jits_Phase_8,1,5,80,127,1488697672
49,15,15,Jits_Phase_8,2,5,56,103,1488718156
49,15,15,Jits_Phase_8,3,1,48,40,1488996228
49,15,15,Jits_Phase_8,0,5,80,127,1489438080
49,15,15,Jits_Phase_8,1,5,56,103,1489488308
49,15,15,Jits_Phase_8,2,5,63,98,1489547576
49,15,15,Jits_Phase_8,3,1,48,29,1489832308
49,15,15,Jits_Phase_8,0,5,63,98,1490227588
49,15,15,Jits_Phase_8,1,5,56,103,1490348388
49,15,15,Jits_Phase_8,2,5,80,127,1490378064
49,15,15,Jits_Phase_8,3,1,48,27,1490624360
49,15,15,Jits_Phase_8,0,5,80,127,1491068132
49,15,15,Jits_Phase_8,1,5,63,98,1491087916
49,15,15,Jits_Phase_8,2,5,56,103,1491158344
49,15,15,Jits_Phase_8,3,1,48,34,1491395656
49,15,15,Jits_Phase_8,0,5,63,98,1491887532
49,15,15,Jits_Phase_8,1,5,56,103,1491897656
49,15,15,Jits_Phase_8,2,5,80,127,1491977520
49,15,15,Jits_Phase_8,3,1,48,41,1492201504
49,15,15,Jits_Phase_8,0,5,56,103,1492747752
49,15,15,Jits_Phase_8,1,5,80,127,1492778328
49,15,15,Jits_Phase_8,2,5,63,98,1492787476
49,15,15,Jits_Phase_8,3,1,48,44,1493008468
49,15,15,Jits_Phase_8,0,9999,9999,9999,1357906044
49,15,15,Jits_Phase_8,1,9999,9999,9999,1358705728
49,15,15,Jits_Phase_8,2,9999,9999,9999,1359505520
49,15,15,Jits_Phase_8,3,9999,9999,9999,1360305216
49,15,15,Jits_Phase_8,4,9999,9999,9999,1361106032
49,15,15,Jits_Phase_8,5,9999,9999,9999,1361905792
49,15,15,Jits_Phase_8,6,9999,9999,9999,1362705472
49,15,15,Jits_Phase_8,7,9999,9999,9999,1363505228
49,15,15,Jits_Phase_8,8,9999,9999,9999,1364305980
49,15,15,Jits_Phase_8,9,9999,9999,9999,1365105760
49,15,15,Jits_Phase_8,10,9999,9999,9999,1365905464
49,15,15,Jits_Phase_8,11,9999,9999,9999,1366705240
49,15,15,Jits_Phase_8,12,9999,9999,9999,1367506024
49,15,15,Jits_Phase_8,13,9999,9999,9999,1368305756
49,15,15,Jits_Phase_8,14,9999,9999,9999,1369105504
49,15,15,Jits_Phase_8,15,9999,9999,9999,1369905244
49,15,15,Jits_Phase_8,16,9999,9999,9999,1370706032
49,15,15,Jits_Phase_8,17,9999,9999,9999,1371505736
49,15,15,Jits_Phase_8,18,9999,9999,9999,1372305504
49,15,15,Jits_Phase_8,19,9999,9999,9999,1373105236
49,15,15,Jits_Phase_8,20,9999,9999,9999,1373906032
49,15,15,Jits_Phase_8,21,9999,9999,9999,1374705772
49,15,15,Jits_Phase_8,22,9999,9999,9999,1375505464
49,15,15,Jits_Phase_8,23,9999,9999,9999,1376305220
49,15,15,Jits_Phase_8,24,9999,9999,9999,1377106048
49,15,15,Jits_Phase_8,25,9999,9999,9999,1377905724
49,15,15,Jits_Phase_8,26,9999,9999,9999,1378705484
49,15,15,Jits_Phase_8,27,9999,9999,9999,1379505240
49,15,15,Jits_Phase_8,28,9999,9999,9999,1380306016
49,15,15,Jits_Phase_8,29,9999,9999,9999,1381105744
49,15,15,Jits_Phase_8,30,9999,9999,9999,1381886016
49,15,15,Jits_Phase_8,31,9999,9999,9999,1382685776
49,15,15,Jits_Phase_8,32,9999,9999,9999,1383485532
49,15,15,Jits_Phase_8,33,9999,9999,9999,1384285304
49,15,15,Jits_Phase_8,34,9999,9999,9999,1385086036
49,15,15,Jits_Phase_8,35,9999,9999,9999,1385885800
49,15,15,Jits_Phase_8,36,9999,9999,9999,1386685540
49,15,15,Jits_Phase_8,37,9999,9999,9999,1387485260
49,15,15,Jits_Phase_8,38,9999,9999,9999,1388286020
49,15,15,Jits_Phase_8,39,9999,9999,9999,1389085812
49,15,15,Jits_Phase_8,40,9999,9999,9999,1389885512
49,15,15,Jits_Phase_8,41,9999,9999,9999,1390685240
49,15,15,Jits_Phase_8,42,9999,9999,9999,1391486032
49,15,15,Jits_Phase_8,43,9999,9999,9999,1392285816
49,15,15,Jits_Phase_8,44,9999,9999,9999,1393085560
49,15,15,Jits_Phase_8,45,9999,9999,9999,1393885248
49,15,15,Jits_Phase_8,46,9999,9999,9999,1394686064
49,15,15,Jits_Phase_8,47,9999,9999,9999,1395485792
49,15,15,Jits_Phase_8,48,9999,9999,9999,1396306008
49,15,15,Jits_Phase_8,49,9999,9999,9999,1397105768
49,15,15,Jits_Phase_8,50,9999,9999,9999,1397905484
49,15,15,Jits_Phase_8,51,9999,9999,9999,1398705252
49,15,15,Jits_Phase_8,52,9999,9999,9999,1399505976
49,15,15,Jits_Phase_8,53,9999,9999,9999,1400305776
49,15,15,Jits_Phase_8,54,9999,9999,9999,1401105468
49,15,15,Jits_Phase_8,55,9999,9999,9999,1401905260
49,15,15,Jits_Phase_8,56,9999,9999,9999,1402706016
49,15,15,Jits_Phase_8,57,9999,9999,9999,1403505768
49,15,15,Jits_Phase_8,58,9999,9999,9999,1404305488
49,15,15,Jits_Phase_8,59,9999,9999,9999,1405105260
49,15,15,Jits_Phase_8,60,9999,9999,9999,1405906000
49,15,15,Jits_Phase_8,61,9999,9999,9999,1406705744
49,15,15,Jits_Phase_8,62,9999,9999,9999,1407505476
49,15,15,Jits_Phase_8,63,9999,9999,9999,1408305224
49,15,15,Jits_Phase_8,64,9999,9999,9999,1409145976
49,15,15,Jits_Phase_8,65,9999,9999,9999,1409945712
49,15,15,Jits_Phase_8,66,9999,9999,9999,1410745452
49,15,15,Jits_Phase_8,67,9999,9999,9999,1411545192
49,15,15,Jits_Phase_8,68,9999,9999,9999,1412345964
49,15,15,Jits_Phase_8,69,9999,9999,9999,1413145700
49,15,15,Jits_Phase_8,70,9999,9999,9999,1413945468
49,15,15,Jits_Phase_8,71,9999,9999,9999,1414745188
49,15,15,Jits_Phase_8,72,9999,9999,9999,1415545916
49,15,15,Jits_Phase_8,73,9999,9999,9999,1416345676
49,15,15,Jits_Phase_8,74,9999,9999,9999,1417145440
49,15,15,Jits_Phase_8,75,9999,9999,9999,1417945204
49,15,15,Jits_Phase_8,76,9999,9999,9999,1418745928
49,15,15,Jits_Phase_8,77,9999,9999,9999,1419545700
49,15,15,Jits_Phase_8,78,9999,9999,9999,1420345448
49,15,15,Jits_Phase_8,79,9999,9999,9999,1421145172
49,15,15,Jits_Phase_8,80,9999,9999,9999,1421945956
49,15,15,Jits_Phase_8,81,9999,9999,9999,1422705760
49,15,15,Jits_Phase_8,82,9999,9999,9999,1423505520
49,15,15,Jits_Phase_8,83,9999,9999,9999,1424305276
49,15,15,Jits_Phase_8,84,9999,9999,9999,1425106000
49,15,15,Jits_Phase_8,85,9999,9999,9999,1425905788
49,15,15,Jits_Phase_8,86,9999,9999,9999,1426705524
49,15,15,Jits_Phase_8,87,9999,9999,9999,1427505276
49,15,15,Jits_Phase_8,88,9999,9999,9999,1428306024
49,15,15,Jits_Phase_8,89,9999,9999,9999,1429105716
49,15,15,Jits_Phase_8,90,9999,9999,9999,1429905484
49,15,15,Jits_Phase_8,91,9999,9999,9999,1430705232
49,15,15,Jits_Phase_8,92,9999,9999,9999,1431506004
49,15,15,Jits_Phase_8,93,9999,9999,9999,1432305760
49,15,15,Jits_Phase_8,94,9999,9999,9999,1433105520
49,15,15,Jits_Phase_8,95,9999,9999,9999,1433905276
49,15,15,Jits_Phase_8,96,9999,9999,9999,1434705972
49,15,15,Jits_Phase_8,97,9999,9999,9999,1435425844
49,15,15,Jits_Phase_8,98,9999,9999,9999,1436225624
49,15,15,Jits_Phase_8,99,9999,9999,9999,1437025404
49,15,15,Jits_Phase_8,100,9999,9999,9999,1437825080
49,15,15,Jits_Phase_8,101,9999,9999,9999,1438625884
49,15,15,Jits_Phase_8,102,9999,9999,9999,1439425636
49,15,15,Jits_Phase_8,103,9999,9999,9999,1440225392
49,15,15,Jits_Phase_8,104,9999,9999,9999,1441025152
49,15,15,Jits_Phase_8,105,9999,9999,9999,1441825888
49,15,15,Jits_Phase_8,106,9999,9999,9999,1442625636
49,15,15,Jits_Phase_8,107,9999,9999,9999,1443425392
49,15,15,Jits_Phase_8,108,9999,9999,9999,1444225148
49,15,15,Jits_Phase_8,109,9999,9999,9999,1445025872
49,15,15,Jits_Phase_8,110,9999,9999,9999,1445825632
49,15,15,Jits_Phase_8,111,9999,9999,9999,1446625396
49,15,15,Jits_Phase_8,112,9999,9999,9999,1447425148
49,15,15,Jits_Phase_8,113,9999,9999,9999,1448225876
49,15,15,Jits_Phase_8,114,9999,9999,9999,1449105520
49,15,15,Jits_Phase_8,115,9999,9999,9999,1449905276
49,15,15,Jits_Phase_8,116,9999,9999,9999,1450706008
49,15,15,Jits_Phase_8,117,9999,9999,9999,1451505768
49,15,15,Jits_Phase_8,118,9999,9999,9999,1452305472
49,15,15,Jits_Phase_8,119,9999,9999,9999,1453105224
49,15,15,Jits_Phase_8,120,9999,9999,9999,1453906048
49,15,15,Jits_Phase_8,121,9999,9999,9999,1454705728
49,15,15,Jits_Phase_8,122,9999,9999,9999,1455505480
49,15,15,Jits_Phase_8,123,9999,9999,9999,1456305232
49,15,15,Jits_Phase_8,124,9999,9999,9999,1457106008
49,15,15,Jits_Phase_8,125,9999,9999,9999,1457905736
49,15,15,Jits_Phase_8,126,9999,9999,9999,1458705488
49,15,15,Jits_Phase_8,127,9999,9999,9999,1459505248
49,15,15,Jits_Phase_8,128,9999,9999,9999,1460306000
49,15,15,Jits_Phase_8,129,9999,9999,9999,1461105788
49,15,15,Jits_Phase_8,130,9999,9999,9999,1461905484
49,15,15,Jits_Phase_8,131,9999,9999,9999,1462866036
49,15,15,Jits_Phase_8,132,9999,9999,9999,1463665732
49,15,15,Jits_Phase_8,133,9999,9999,9999,1464465528
49,15,15,Jits_Phase_8,134,9999,9999,9999,1465265268
49,15,15,Jits_Phase_8,135,9999,9999,9999,1466065988
49,15,15,Jits_Phase_8,136,9999,9999,9999,1466865744
49,15,15,Jits_Phase_8,137,9999,9999,9999,1467665516
49,15,15,Jits_Phase_8,138,9999,9999,9999,1468465212
49,15,15,Jits_Phase_8,139,9999,9999,9999,1469265980
49,15,15,Jits_Phase_8,140,9999,9999,9999,1470065740
49,15,15,Jits_Phase_8,141,9999,9999,9999,1470865500
49,15,15,Jits_Phase_8,142,9999,9999,9999,1471665252
49,15,15,Jits_Phase_8,143,9999,9999,9999,1472465984
49,15,15,Jits_Phase_8,144,9999,9999,9999,1473265716
49,15,15,Jits_Phase_8,145,9999,9999,9999,1474065528
49,15,15,Jits_Phase_8,146,9999,9999,9999,1474865216
49,15,15,Jits_Phase_8,147,9999,9999,9999,1475666044
49,15,15,Jits_Phase_8,148,9999,9999,9999,1476465788
49,15,15,Jits_Phase_8,149,9999,9999,9999,1477265464
49,15,15,Jits_Phase_8,150,9999,9999,9999,1477905476
49,15,15,Jits_Phase_8,151,9999,9999,9999,1478705244
49,15,15,Jits_Phase_8,152,9999,9999,9999,1479506016
49,15,15,Jits_Phase_8,153,9999,9999,9999,1480305780
49,15,15,Jits_Phase_8,154,9999,9999,9999,1481105532
49,15,15,Jits_Phase_8,155,9999,9999,9999,1481905276
49,15,15,Jits_Phase_8,156,9999,9999,9999,1482706008
49,15,15,Jits_Phase_8,157,9999,9999,9999,1483505760
49,15,15,Jits_Phase_8,158,9999,9999,9999,1484305524
49,15,15,Jits_Phase_8,159,9999,9999,9999,1485105280
49,15,15,Jits_Phase_8,160,9999,9999,9999,1485906032
49,15,15,Jits_Phase_8,161,9999,9999,9999,1486705768
49,15,15,Jits_Phase_8,162,9999,9999,9999,1487505532
49,15,15,Jits_Phase_8,163,9999,9999,9999,1488305228
49,15,15,Jits_Phase_8,164,9999,9999,9999,1489106016
49,15,15,Jits_Phase_8,165,9999,9999,9999,1489905788
49,15,15,Jits_Phase_8,166,9999,9999,9999,1490705488
49,15,15,Jits_Phase_8,167,9999,9999,9999,1491505228
49,15,15,Jits_Phase_8,168,9999,9999,9999,1492306004
49,15,15,Jits_Phase_8,169,9999,9999,9999,1493105788
49,16,16,Jits_ISO_5,0,5,56,103,1501603240
49,16,16,Jits_ISO_5,1,5,63,98,1501606568
49,16,16,Jits_ISO_5,2,5,80,127,1501609684
49,16,16,Jits_ISO_5,0,1,48,58,1502060228
49,16,16,Jits_ISO_5,1,5,56,103,1502103028
49,16,16,Jits_ISO_5,2,5,63,98,1502105976
49,16,16,Jits_ISO_5,3,5,80,127,1502109172
49,16,16,Jits_ISO_5,0,1,48,29,1502555080
49,16,16,Jits_ISO_5,1,5,56,103,1502602684
49,16,16,Jits_ISO_5,2,5,80,127,1502612880
49,16,16,Jits_ISO_5,3,5,63,98,1502633188
49,16,16,Jits_ISO_5,0,1,48,48,1503006768
49,16,16,Jits_ISO_5,1,5,63,98,1503053044
49,16,16,Jits_ISO_5,2,5,80,127,1503082872
49,16,16,Jits_ISO_5,3,5,56,103,1503093064
49,16,16,Jits_ISO_5,0,1,48,48,1503472336
49,16,16,Jits_ISO_5,1,5,80,127,1503613148
49,16,16,Jits_ISO_5,2,5,56,103,1503622444
49,16,16,Jits_ISO_5,3,5,63,98,1503653240
49,16,16,Jits_ISO_5,0,1,48,38,1504055008
49,16,16,Jits_ISO_5,1,5,63,98,1504102860
49,16,16,Jits_ISO_5,2,5,56,103,1504132612
49,16,16,Jits_ISO_5,3,5,80,127,1504142808
49,16,16,Jits_ISO_5,0,1,48,43,1504533548
49,16,16,Jits_ISO_5,1,5,56,103,1504553276
49,16,16,Jits_ISO_5,2,5,63,98,1504602676
49,16,16,Jits_ISO_5,3,5,80,127,1504623060
49,16,16,Jits_ISO_5,0,1,48,45,1504989664
49,16,16,Jits_ISO_5,1,5,80,127,1505053008
49,16,16,Jits_ISO_5,2,5,63,98,1505103144
49,16,16,Jits_ISO_5,3,5,56,103,1505143080
49,16,16,Jits_ISO_5,0,1,48,33,1505506416
49,16,16,Jits_ISO_5,1,5,56,103,1505552740
49,16,16,Jits_ISO_5,2,5,63,98,1505582640
49,16,16,Jits_ISO_5,3,5,80,127,1505653076
49,16,16,Jits_ISO_5,0,1,48,31,1505940124
49,16,16,Jits_ISO_5,1,5,56,103,1506052528
49,16,16,Jits_ISO_5,2,5,80,127,1506112844
49,16,16,Jits_ISO_5,3,5,63,98,1506142668
49,16,16,Jits_ISO_5,0,1,48,37,1506400672
49,16,16,Jits_ISO_5,1,5,56,103,1506562652
49,16,16,Jits_ISO_5,2,5,63,98,1506572772
49,16,16,Jits_ISO_5,3,5,80,127,1506612784
49,16,16,Jits_ISO_5,0,1,48,28,1506898288
49,16,16,Jits_ISO_5,1,5,63,98,1507053012
49,16,16,Jits_ISO_5,2,5,80,127,1507132660
49,16,16,Jits_ISO_5,3,5,56,103,1507142880
49,16,16,Jits_ISO_5,0,1,48,41,1507454964
49,16,16,Jits_ISO_5,1,5,63,98,1507602652
49,16,16,Jits_ISO_5,2,5,56,103,1507642660
49,16,16,Jits_ISO_5,3,5,80,127,1507645728
49,16,16,Jits_ISO_5,0,1,48,41,1507915816
49,16,16,Jits_ISO_5,1,5,56,103,1508062744
49,16,16,Jits_ISO_5,2,5,63,98,1508072864
49,16,16,Jits_ISO_5,3,5,80,127,1508112876
49,16,16,Jits_ISO_5,0,1,48,38,1508366144
49,16,16,Jits_ISO_5,1,5,56,103,1508553032
49,16,16,Jits_ISO_5,2,5,63,98,1508556172
49,16,16,Jits_ISO_5,3,5,80,127,1508572668
49,16,16,Jits_ISO_5,0,1,48,40,1508877700
49,16,16,Jits_ISO_5,1,5,80,127,1509063016
49,16,16,Jits_ISO_5,2,5,56,103,1509073212
49,16,16,Jits_ISO_5,3,5,63,98,1509143036
49,16,16,Jits_ISO_5,4,1,48,39,1509330004
49,16,16,Jits_ISO_5,0,5,63,98,1509552596
49,16,16,Jits_ISO_5,1,5,56,103,1509572980
49,16,16,Jits_ISO_5,2,5,80,127,1509652844
49,16,16,Jits_ISO_5,3,1,48,40,1509799284
49,16,16,Jits_ISO_5,0,5,56,103,1510062664
49,16,16,Jits_ISO_5,1,5,80,127,1510103648
49,16,16,Jits_ISO_5,2,5,63,98,1510112652
49,16,16,Jits_ISO_5,3,1,48,41,1510234156
49,16,16,Jits_ISO_5,0,5,80,127,1510553048
49,16,16,Jits_ISO_5,1,5,63,98,1510582500
49,16,16,Jits_ISO_5,2,5,56,103,1510622732
49,16,16,Jits_ISO_5,3,1,48,31,1510714400
49,16,16,Jits_ISO_5,0,5,56,103,1511073244
49,16,16,Jits_ISO_5,1,5,63,98,1511102772
49,16,16,Jits_ISO_5,2,5,80,127,1511153120
49,16,16,Jits_ISO_5,3,1,48,31,1511203064
49,16,16,Jits_ISO_5,0,5,80,127,1511572772
49,16,16,Jits_ISO_5,1,5,56,103,1511612712
49,16,16,Jits_ISO_5,2,5,63,98,1511622908
49,16,16,Jits_ISO_5,3,1,48,35,1511640716
49,16,16,Jits_ISO_5,0,1,48,43,1512058028
49,16,16,Jits_ISO_5,1,5,80,127,1512063600
49,16,16,Jits_ISO_5,2,5,63,98,1512103164
49,16,16,Jits_ISO_5,3,5,56,103,1512162788
49,16,16,Jits_ISO_5,0,5,56,103,1512562964
49,16,16,Jits_ISO_5,1,1,48,34,1512568700
49,16,16,Jits_ISO_5,2,5,80,127,1512573452
49,16,16,Jits_ISO_5,3,5,63,98,1512653168
49,16,16,Jits_ISO_5,0,1,48,35,1513042452
49,16,16,Jits_ISO_5,1,5,80,127,1513062632
49,16,16,Jits_ISO_5,2,5,63,98,1513123392
49,16,16,Jits_ISO_5,3,5,56,103,1513152828
49,16,16,Jits_ISO_5,0,1,48,32,1513474580
49,16,16,Jits_ISO_5,1,5,56,103,1513562812
49,16,16,Jits_ISO_5,2,5,80,127,1513622888
49,16,16,Jits_ISO_5,3,5,63,98,1513662972
49,16,16,Jits_ISO_5,0,1,48,28,1513961656
49,16,16,Jits_ISO_5,1,5,56,103,1514113472
49,16,16,Jits_ISO_5,2,5,63,98,1514122696
49,16,16,Jits_ISO_5,3,5,80,127,1514125984
49,16,16,Jits_ISO_5,0,1,48,29,1514488636
49,16,16,Jits_ISO_5,1,5,80,127,1514562944
49,16,16,Jits_ISO_5,2,5,63,98,1514653060
49,16,16,Jits_ISO_5,3,5,56,103,1514663404
49,16,16,Jits_ISO_5,0,1,48,33,1515024568
49,16,16,Jits_ISO_5,1,5,56,103,1515062708
49,16,16,Jits_ISO_5,2,5,63,98,1515065660
49,16,16,Jits_ISO_5,3,5,80,127,1515069004
49,16,16,Jits_ISO_5,0,1,48,30,1515464336
49,16,16,Jits_ISO_5,1,5,80,127,1515582948
49,16,16,Jits_ISO_5,2,5,63,98,1515633024
49,16,16,Jits_ISO_5,3,5,56,103,1515662700
49,16,16,Jits_ISO_5,0,1,48,32,1515990532
49,16,16,Jits_ISO_5,1,5,56,103,1516063220
49,16,16,Jits_ISO_5,2,5,80,127,1516073416
49,16,16,Jits_ISO_5,3,5,63,98,1516142956
49,16,16,Jits_ISO_5,0,1,48,37,1516442908
49,16,16,Jits_ISO_5,1,5,56,103,1516572904
49,16,16,Jits_ISO_5,2,5,63,98,1516592612
49,16,16,Jits_ISO_5,3,5,80,127,1516652872
49,16,16,Jits_ISO_5,0,1,48,34,1516947196
49,16,16,Jits_ISO_5,1,5,80,127,1517062364
49,16,16,Jits_ISO_5,2,5,63,98,1517133416
49,16,16,Jits_ISO_5,3,5,56,103,1517152752
49,16,16,Jits_ISO_5,0,1,48,32,1517465436
49,16,16,Jits_ISO_5,1,5,80,127,1517582628
49,16,16,Jits_ISO_5,2,5,56,103,1517592900
49,16,16,Jits_ISO_5,3,5,63,98,1517603316
49,16,16,Jits_ISO_5,0,1,48,32,1517960684
49,16,16,Jits_ISO_5,1,5,80,127,1518073368
49,16,16,Jits_ISO_5,2,5,56,103,1518092852
49,16,16,Jits_ISO_5,3,5,63,98,1518163376
49,16,16,Jits_ISO_5,0,1,48,36,1518440168
49,16,16,Jits_ISO_5,1,5,56,103,1518583288
49,16,16,Jits_ISO_5,2,5,80,127,1518612964
49,16,16,Jits_ISO_5,3,5,63,98,1518633496
49,16,16,Jits_ISO_5,0,1,48,34,1518957140
49,16,16,Jits_ISO_5,1,5,63,98,1519072612
49,16,16,Jits_ISO_5,2,5,56,103,1519133224
49,16,16,Jits_ISO_5,3,5,80,127,1519162752
49,16,16,Jits_ISO_5,0,1,48,40,1519467968
49,16,16,Jits_ISO_5,1,5,63,98,1519563368
49,16,16,Jits_ISO_5,2,5,80,127,1519567392
49,16,16,Jits_ISO_5,3,5,56,103,1519653480
49,16,16,Jits_ISO_5,0,1,48,42,1519929300
49,16,16,Jits_ISO_5,1,5,56,103,1520083308
49,16,16,Jits_ISO_5,2,5,63,98,1520112908
49,16,16,Jits_ISO_5,3,5,80,127,1520152916
49,16,16,Jits_ISO_5,0,1,48,36,1520427764
49,16,16,Jits_ISO_5,1,5,63,98,1520582892
49,16,16,Jits_ISO_5,2,5,56,103,1520622904
49,16,16,Jits_ISO_5,3,5,80,127,1520642464
49,16,16,Jits_ISO_5,0,1,48,31,1520920004
49,16,16,Jits_ISO_5,1,5,63,98,1521092892
49,16,16,Jits_ISO_5,2,5,56,103,1521132980
49,16,16,Jits_ISO_5,3,5,80,127,1521143400
49,16,16,Jits_ISO_5,0,1,48,42,1521388800
49,16,16,Jits_ISO_5,1,5,80,127,1521573444
49,16,16,Jits_ISO_5,2,5,63,98,1521643048
49,16,16,Jits_ISO_5,3,5,56,103,1521663284
49,16,16,Jits_ISO_5,0,1,48,40,1521936336
49,16,16,Jits_ISO_5,1,5,56,103,1522062692
49,16,16,Jits_ISO_5,2,5,80,127,1522083448
49,16,16,Jits_ISO_5,3,5,63,98,1522123308
49,16,16,Jits_ISO_5,0,1,48,38,1522407448
49,16,16,Jits_ISO_5,1,5,63,98,1522572760
49,16,16,Jits_ISO_5,2,5,80,127,1522593216
49,16,16,Jits_ISO_5,3,5,56,103,1522633080
49,16,16,Jits_ISO_5,0,1,48,41,1522876304
49,16,16,Jits_ISO_5,1,5,63,98,1523073384
49,16,16,Jits_ISO_5,2,5,56,103,1523092796
49,16,16,Jits_ISO_5,3,5,80,127,1523103368
49,16,16,Jits_ISO_5,0,1,48,39,1523396720
49,16,16,Jits_ISO_5,1,5,80,127,1523573192
49,16,16,Jits_ISO_5,2,5,56,103,1523592532
49,16,16,Jits_ISO_5,3,5,63,98,1523623248
49,16,16,Jits_ISO_5,0,1,48,40,1523875396
49,16,16,Jits_ISO_5,1,5,56,103,1524142448
49,16,16,Jits_ISO_5,2,5,80,127,1524145444
49,16,16,Jits_ISO_5,3,5,63,98,1524162908
49,16,16,Jits_ISO_5,0,1,48,43,1524390476
49,16,16,Jits_ISO_5,1,5,63,98,1524563288
49,16,16,Jits_ISO_5,2,5,56,103,1524593408
49,16,16,Jits_ISO_5,3,5,80,127,1524653276
49,16,16,Jits_ISO_5,0,1,48,45,1524889984
49,16,16,Jits_ISO_5,1,5,63,98,1525142888
49,16,16,Jits_ISO_5,2,5,56,103,1525153156
49,16,16,Jits_ISO_5,3,5,80,127,1525163352
49,16,16,Jits_ISO_5,0,1,48,34,1525381200
49,16,16,Jits_ISO_5,1,5,56,103,1525592428
49,16,16,Jits_ISO_5,2,5,80,127,1525623376
49,16,16,Jits_ISO_5,3,5,63,98,1525633420
49,16,16,Jits_ISO_5,0,1,48,35,1525886020
49,16,16,Jits_ISO_5,1,5,63,98,1526133216
49,16,16,Jits_ISO_5,2,5,56,103,1526143340
49,16,16,Jits_ISO_5,3,5,80,127,1526162676
49,16,16,Jits_ISO_5,4,1,48,42,1526351004
49,16,16,Jits_ISO_5,0,5,56,103,1526563364
49,16,16,Jits_ISO_5,1,5,63,98,1526622428
49,16,16,Jits_ISO_5,2,5,80,127,1526625724
49,16,16,Jits_ISO_5,3,1,48,36,1526833948
49,16,16,Jits_ISO_5,0,5,80,127,1527083256
49,16,16,Jits_ISO_5,1,5,56,103,1527092556
49,16,16,Jits_ISO_5,2,5,63,98,1527163228
49,16,16,Jits_ISO_5,3,1,48,36,1527260520
49,16,16,Jits_ISO_5,0,5,80,127,1527572740
49,16,16,Jits_ISO_5,1,5,56,103,1527642596
49,16,16,Jits_ISO_5,2,5,63,98,1527652940
49,16,16,Jits_ISO_5,3,1,48,32,1527763408
49,16,16,Jits_ISO_5,0,5,63,98,1528112428
49,16,16,Jits_ISO_5,1,5,56,103,1528122696
49,16,16,Jits_ISO_5,2,5,80,127,1528143328
49,16,16,Jits_ISO_5,3,1,48,43,1528203008
49,16,16,Jits_ISO_5,0,5,80,127,1528563012
49,16,16,Jits_ISO_5,1,5,63,98,1528622432
49,16,16,Jits_ISO_5,2,5,56,103,1528663288
49,16,16,Jits_ISO_5,3,1,48,39,1528670536
49,16,16,Jits_ISO_5,0,5,56,103,1529102844
49,16,16,Jits_ISO_5,1,5,63,98,1529113336
49,16,16,Jits_ISO_5,2,1,48,39,1529143584
49,16,16,Jits_ISO_5,3,5,80,127,1529152896
49,16,16,Jits_ISO_5,0,5,56,103,1529562516
49,16,16,Jits_ISO_5,1,1,48,43,1529587356
49,16,16,Jits_ISO_5,2,5,80,127,1529593228
49,16,16,Jits_ISO_5,3,5,63,98,1529643352
49,16,16,Jits_ISO_5,0,1,48,35,1530062160
49,16,16,Jits_ISO_5,1,5,56,103,1530103088
49,16,16,Jits_ISO_5,2,5,63,98,1530143024
49,16,16,Jits_ISO_5,3,5,80,127,1530146316
49,16,16,Jits_ISO_5,0,1,48,45,1530569820
49,16,16,Jits_ISO_5,1,5,56,103,1530603040
49,16,16,Jits_ISO_5,2,5,63,98,1530613236
49,16,16,Jits_ISO_5,3,5,80,127,1530632500
49,16,16,Jits_ISO_5,0,1,48,50,1531055400
49,16,16,Jits_ISO_5,1,5,56,103,1531062620
49,16,16,Jits_ISO_5,2,5,80,127,1531065760
49,16,16,Jits_ISO_5,3,5,63,98,1531102632
49,16,16,Jits_ISO_5,0,1,48,40,1531513092
49,16,16,Jits_ISO_5,1,5,63,98,1531603244
49,16,16,Jits_ISO_5,2,5,56,103,1531633204
49,16,16,Jits_ISO_5,3,5,80,127,1531652316
49,16,16,Jits_ISO_5,0,1,48,42,1532041828
49,16,16,Jits_ISO_5,1,5,80,127,1532073316
49,16,16,Jits_ISO_5,2,5,56,103,1532082464
49,16,16,Jits_ISO_5,3,5,63,98,1532092660
49,16,16,Jits_ISO_5,0,1,48,50,1532536752
49,16,16,Jits_ISO_5,1,5,56,103,1532573268
49,16,16,Jits_ISO_5,2,5,80,127,1532613056
49,16,16,Jits_ISO_5,3,5,63,98,1532642564
49,16,16,Jits_ISO_5,0,1,48,43,1532981104
49,16,16,Jits_ISO_5,1,5,63,98,1533082952
49,16,16,Jits_ISO_5,2,5,80,127,1533093148
49,16,16,Jits_ISO_5,3,5,56,103,1533102372
49,16,16,Jits_ISO_5,0,1,48,42,1533459916
49,16,16,Jits_ISO_5,1,5,56,103,1533563204
49,16,16,Jits_ISO_5,2,5,63,98,1533632812
49,16,16,Jits_ISO_5,3,5,80,127,1533643080
49,16,16,Jits_ISO_5,0,1,48,35,1533992184
49,16,16,Jits_ISO_5,1,5,80,127,1534063104
49,16,16,Jits_ISO_5,2,5,56,103,1534073152
49,16,16,Jits_ISO_5,3,5,63,98,1534123336
49,16,16,Jits_ISO_5,0,1,48,40,1534496852
49,16,16,Jits_ISO_5,1,5,80,127,1534573024
49,16,16,Jits_ISO_5,2,5,56,103,1534633324
49,16,16,Jits_ISO_5,3,5,63,98,1534662996
49,16,16,Jits_ISO_5,0,1,48,46,1534965344
49,16,16,Jits_ISO_5,1,5,56,103,1535072668
49,16,16,Jits_ISO_5,2,5,80,127,1535075660
49,16,16,Jits_ISO_5,3,5,63,98,1535112604
49,16,16,Jits_ISO_5,0,1,48,44,1535455024
49,16,16,Jits_ISO_5,1,5,56,103,1535603108
49,16,16,Jits_ISO_5,2,5,63,98,1535632928
49,16,16,Jits_ISO_5,3,5,80,127,1535642976
49,16,16,Jits_ISO_5,0,1,48,38,1535961368
49,16,16,Jits_ISO_5,1,5,63,98,1536113108
49,16,16,Jits_ISO_5,2,5,80,127,1536123304
49,16,16,Jits_ISO_5,3,5,56,103,1536132604
49,16,16,Jits_ISO_5,0,1,48,44,1536494812
49,16,16,Jits_ISO_5,1,5,80,127,1536562492
49,16,16,Jits_ISO_5,2,5,56,103,1536613004
49,16,16,Jits_ISO_5,3,5,63,98,1536616064
49,16,16,Jits_ISO_5,0,1,48,31,1536987264
49,16,16,Jits_ISO_5,1,5,56,103,1537092936
49,16,16,Jits_ISO_5,2,5,80,127,1537112348
49,16,16,Jits_ISO_5,3,5,63,98,1537122768
49,16,16,Jits_ISO_5,0,1,48,44,1537508264
49,16,16,Jits_ISO_5,1,5,63,98,1537573180
49,16,16,Jits_ISO_5,2,5,56,103,1537603028
49,16,16,Jits_ISO_5,3,5,80,127,1537623396
49,16,16,Jits_ISO_5,0,1,48,29,1538008372
49,16,16,Jits_ISO_5,1,5,56,103,1538083100
49,16,16,Jits_ISO_5,2,5,80,127,1538093296
49,16,16,Jits_ISO_5,3,5,63,98,1538162980
49,16,16,Jits_ISO_5,0,1,48,33,1538540084
49,16,16,Jits_ISO_5,1,5,63,98,1538572936
49,16,16,Jits_ISO_5,2,5,80,127,1538612724
49,16,16,Jits_ISO_5,3,5,56,103,1538652596
49,16,16,Jits_ISO_5,0,1,48,46,1539013832
49,16,16,Jits_ISO_5,1,5,56,103,1539082556
49,16,16,Jits_ISO_5,2,5,63,98,1539093052
49,16,16,Jits_ISO_5,3,5,80,127,1539113272
49,16,16,Jits_ISO_5,0,1,48,43,1539496028
49,16,16,Jits_ISO_5,1,5,63,98,1539623180
49,16,16,Jits_ISO_5,2,5,80,127,1539642816
49,16,16,Jits_ISO_5,3,5,56,103,1539663148
49,16,16,Jits_ISO_5,0,1,48,44,1540007976
49,16,16,Jits_ISO_5,1,5,56,103,1540062548
49,16,16,Jits_ISO_5,2,5,80,127,1540142552
49,16,16,Jits_ISO_5,3,5,63,98,1540152896
49,16,16,Jits_ISO_5,0,1,48,44,1540504940
49,16,16,Jits_ISO_5,1,5,80,127,1540603544
49,16,16,Jits_ISO_5,2,5,63,98,1540612620
49,16,16,Jits_ISO_5,3,5,56,103,1540643116
49,16,16,Jits_ISO_5,0,1,48,40,1541020176
49,16,16,Jits_ISO_5,1,5,63,98,1541063140
49,16,16,Jits_ISO_5,2,5,80,127,1541102852
49,16,16,Jits_ISO_5,3,5,56,103,1541163376
49,16,16,Jits_ISO_5,0,1,48,44,1541483880
49,16,16,Jits_ISO_5,1,5,63,98,1541572912
49,16,16,Jits_ISO_5,2,5,56,103,1541623100
49,16,16,Jits_ISO_5,3,5,80,127,1541652920
49,16,16,Jits_ISO_5,0,1,48,43,1541960848
49,16,16,Jits_ISO_5,1,5,80,127,1542082968
49,16,16,Jits_ISO_5,2,5,63,98,1542093312
49,16,16,Jits_ISO_5,3,5,56,103,1542162840
49,16,16,Jits_ISO_5,0,1,48,38,1542452156
49,16,16,Jits_ISO_5,1,5,80,127,1542653348
49,16,16,Jits_ISO_5,2,5,56,103,1542662496
49,16,16,Jits_ISO_5,3,5,63,98,1542665712
49,16,16,Jits_ISO_5,0,1,48,39,1542995804
49,16,16,Jits_ISO_5,1,5,56,103,1543092692
49,16,16,Jits_ISO_5,2,5,80,127,1543112928
49,16,16,Jits_ISO_5,3,5,63,98,1543123272
49,16,16,Jits_ISO_5,0,1,48,48,1543452892
49,16,16,Jits_ISO_5,1,5,63,98,1543602764
49,16,16,Jits_ISO_5,2,5,56,103,1543642628
49,16,16,Jits_ISO_5,3,5,80,127,1543662936
49,16,16,Jits_ISO_5,0,1,48,42,1543938904
49,16,16,Jits_ISO_5,1,5,63,98,1544103248
49,16,16,Jits_ISO_5,2,5,56,103,1544162888
49,16,16,Jits_ISO_5,3,5,80,127,1544165804
49,16,16,Jits_ISO_5,0,1,48,33,1544473476
49,16,16,Jits_ISO_5,1,5,56,103,1544562984
49,16,16,Jits_ISO_5,2,5,80,127,1544582456
49,16,16,Jits_ISO_5,3,5,63,98,1544622392
49,16,16,Jits_ISO_5,0,1,48,34,1544956348
49,16,16,Jits_ISO_5,1,5,56,103,1545092740
49,16,16,Jits_ISO_5,2,5,63,98,1545112900
49,16,16,Jits_ISO_5,3,5,80,127,1545123168
49,16,16,Jits_ISO_5,0,1,48,20,1545430540
49,16,16,Jits_ISO_5,1,5,80,127,1545562580
49,16,16,Jits_ISO_5,2,5,56,103,1545593080
49,16,16,Jits_ISO_5,3,5,63,98,1545633088
49,16,16,Jits_ISO_5,0,1,48,30,1545934832
49,16,16,Jits_ISO_5,1,5,80,127,1546072428
49,16,16,Jits_ISO_5,2,5,56,103,1546092960
49,16,16,Jits_ISO_5,3,5,63,98,1546153272
49,16,16,Jits_ISO_5,0,1,48,38,1546434796
49,16,16,Jits_ISO_5,1,5,56,103,1546583400
49,16,16,Jits_ISO_5,2,5,80,127,1546602812
49,16,16,Jits_ISO_5,3,5,63,98,1546663272
49,16,16,Jits_ISO_5,0,1,48,45,1546948232
49,16,16,Jits_ISO_5,1,5,80,127,1547062876
49,16,16,Jits_ISO_5,2,5,56,103,1547073024
49,16,16,Jits_ISO_5,3,5,63,98,1547112812
49,16,16,Jits_ISO_5,0,1,48,34,1547426988
49,16,16,Jits_ISO_5,1,5,63,98,1547563580
49,16,16,Jits_ISO_5,2,5,56,103,1547603392
49,16,16,Jits_ISO_5,3,5,80,127,1547606460
49,16,16,Jits_ISO_5,0,1,48,46,1547933756
49,16,16,Jits_ISO_5,1,5,63,98,1548082632
49,16,16,Jits_ISO_5,2,5,80,127,1548122520
49,16,16,Jits_ISO_5,3,5,56,103,1548153092
49,16,16,Jits_ISO_5,0,1,48,33,1548424428
49,16,16,Jits_ISO_5,1,5,56,103,1548573004
49,16,16,Jits_ISO_5,2,5,63,98,1548583496
49,16,16,Jits_ISO_5,3,5,80,127,1548612896
49,16,16,Jits_ISO_5,0,1,48,32,1548936808
49,16,16,Jits_ISO_5,1,5,80,127,1549062612
49,16,16,Jits_ISO_5,2,5,63,98,1549133216
49,16,16,Jits_ISO_5,3,5,56,103,1549143560
49,16,16,Jits_ISO_5,0,1,48,36,1549476844
49,16,16,Jits_ISO_5,1,5,63,98,1549563188
49,16,16,Jits_ISO_5,2,5,56,103,1549632804
49,16,16,Jits_ISO_5,3,5,80,127,1549642996
49,16,16,Jits_ISO_5,0,1,48,20,1549979048
49,16,16,Jits_ISO_5,1,5,63,98,1550062992
49,16,16,Jits_ISO_5,2,5,56,103,1550082388
49,16,16,Jits_ISO_5,3,5,80,127,1550123596
49,16,16,Jits_ISO_5,0,1,48,43,1550488668
49,16,16,Jits_ISO_5,1,5,56,103,1550572912
49,16,16,Jits_ISO_5,2,5,63,98,1550583104
49,16,16,Jits_ISO_5,3,5,80,127,1550662904
49,16,16,Jits_ISO_5,0,1,48,37,1550991328
49,16,16,Jits_ISO_5,1,5,63,98,1551063500
49,16,16,Jits_ISO_5,2,5,56,103,1551093012
49,16,16,Jits_ISO_5,3,5,80,127,1551133020
49,16,16,Jits_ISO_5,0,1,48,45,1551476520
49,16,16,Jits_ISO_5,1,5,56,103,1551563084
49,16,16,Jits_ISO_5,2,5,63,98,1551603080
49,16,16,Jits_ISO_5,3,5,80,127,1551642868
49,16,16,Jits_ISO_5,0,1,48,44,1551955652
49,16,16,Jits_ISO_5,1,5,80,127,1552062728
49,16,16,Jits_ISO_5,2,5,56,103,1552142672
49,16,16,Jits_ISO_5,3,5,63,98,1552153016
49,16,16,Jits_ISO_5,0,1,48,36,1552485436
49,16,16,Jits_ISO_5,1,5,56,103,1552602544
49,16,16,Jits_ISO_5,2,5,63,98,1552605612
49,16,16,Jits_ISO_5,3,5,80,127,1552612664
49,16,16,Jits_ISO_5,0,1,48,41,1553001872
49,16,16,Jits_ISO_5,1,5,56,103,1553122648
49,16,16,Jits_ISO_5,2,5,63,98,1553143256
49,16,16,Jits_ISO_5,3,5,80,127,1553153600
49,16,16,Jits_ISO_5,0,1,48,37,1553477700
49,16,16,Jits_ISO_5,1,5,63,98,1553582604
49,16,16,Jits_ISO_5,2,5,80,127,1553592724
49,16,16,Jits_ISO_5,3,5,56,103,1553613256
49,16,16,Jits_ISO_5,0,1,48,22,1554011000
49,16,16,Jits_ISO_5,1,5,63,98,1554083172
49,16,16,Jits_ISO_5,2,5,56,103,1554163172
49,16,16,Jits_ISO_5,3,5,80,127,1554166092
49,16,16,Jits_ISO_5,0,1,48,35,1554518212
49,16,16,Jits_ISO_5,1,5,63,98,1554582900
49,16,16,Jits_ISO_5,2,5,56,103,1554603584
49,16,16,Jits_ISO_5,3,5,80,127,1554633316
49,16,16,Jits_ISO_5,0,1,48,33,1555023948
49,16,16,Jits_ISO_5,1,5,56,103,1555082636
49,16,16,Jits_ISO_5,2,5,63,98,1555103020
49,16,16,Jits_ISO_5,3,5,80,127,1555113364
49,16,16,Jits_ISO_5,0,1,48,27,1555484168
49,16,16,Jits_ISO_5,1,5,56,103,1555612920
49,16,16,Jits_ISO_5,2,5,63,98,1555642744
49,16,16,Jits_ISO_5,3,5,80,127,1555646332
49,16,16,Jits_ISO_5,0,1,48,30,1556034648
49,16,16,Jits_ISO_5,1,5,56,103,1556062472
49,16,16,Jits_ISO_5,2,5,63,98,1556102708
49,16,16,Jits_ISO_5,3,5,80,127,1556162856
49,16,16,Jits_ISO_5,0,1,48,43,1556503412
49,16,16,Jits_ISO_5,1,5,56,103,1556582804
49,16,16,Jits_ISO_5,2,5,63,98,1556593000
49,16,16,Jits_ISO_5,3,5,80,127,1556653820
49,16,16,Jits_ISO_5,0,1,48,24,1556954300
49,16,16,Jits_ISO_5,1,5,56,103,1557082748
49,16,16,Jits_ISO_5,2,5,80,127,1557102832
49,16,16,Jits_ISO_5,3,5,63,98,1557132656
49,16,16,Jits_ISO_5,0,1,48,38,1557473808
49,16,16,Jits_ISO_5,1,5,80,127,1557583452
49,16,16,Jits_ISO_5,2,5,56,103,1557592452
49,16,16,Jits_ISO_5,3,5,63,98,1557612836
49,16,16,Jits_ISO_5,0,1,48,26,1557973392
49,16,16,Jits_ISO_5,1,5,63,98,1558072596
49,16,16,Jits_ISO_5,2,5,80,127,1558152564
49,16,16,Jits_ISO_5,3,5,56,103,1558162832
49,16,16,Jits_ISO_5,0,1,48,27,1558468924
49,16,16,Jits_ISO_5,1,5,80,127,1558632744
49,16,16,Jits_ISO_5,2,5,56,103,1558653276
49,16,16,Jits_ISO_5,3,5,63,98,1558656344
49,16,16,Jits_ISO_5,0,1,48,23,1558991068
49,16,16,Jits_ISO_5,1,5,63,98,1559102776
49,16,16,Jits_ISO_5,2,5,80,127,1559106388
49,16,16,Jits_ISO_5,3,5,56,103,1559163560
49,16,16,Jits_ISO_5,0,1,48,24,1559499540
49,16,16,Jits_ISO_5,1,5,56,103,1559583040
49,16,16,Jits_ISO_5,2,5,80,127,1559593532
49,16,16,Jits_ISO_5,3,5,63,98,1559633328
49,16,16,Jits_ISO_5,0,1,48,22,1559992548
49,16,16,Jits_ISO_5,1,5,56,103,1560063516
49,16,16,Jits_ISO_5,2,5,63,98,1560122696
49,16,16,Jits_ISO_5,3,5,80,127,1560133064
49,16,16,Jits_ISO_5,0,1,48,21,1560446644
49,16,16,Jits_ISO_5,1,5,63,98,1560573276
49,16,16,Jits_ISO_5,2,5,80,127,1560613212
49,16,16,Jits_ISO_5,3,5,56,103,1560653324
49,16,16,Jits_ISO_5,0,1,48,16,1560948624
49,16,16,Jits_ISO_5,1,5,56,103,1561072864
49,16,16,Jits_ISO_5,2,5,63,98,1561152900
49,16,16,Jits_ISO_5,3,5,80,127,1561156268
49,16,16,Jits_ISO_5,0,9999,9999,9999,1501850744
49,16,16,Jits_ISO_5,1,9999,9999,9999,1502350440
49,16,16,Jits_ISO_5,2,9999,9999,9999,1502850100
49,16,16,Jits_ISO_5,3,9999,9999,9999,1503350876
49,16,16,Jits_ISO_5,4,9999,9999,9999,1503850616
49,16,16,Jits_ISO_5,5,9999,9999,9999,1504350280
49,16,16,Jits_ISO_5,6,9999,9999,9999,1504851060
49,16,16,Jits_ISO_5,7,9999,9999,9999,1505350720
49,16,16,Jits_ISO_5,8,9999,9999,9999,1505850428
49,16,16,Jits_ISO_5,9,9999,9999,9999,1506350132
49,16,16,Jits_ISO_5,10,9999,9999,9999,1506850908
49,16,16,Jits_ISO_5,11,9999,9999,9999,1507350644
49,16,16,Jits_ISO_5,12,9999,9999,9999,1507850300
49,16,16,Jits_ISO_5,13,9999,9999,9999,1508351076
49,16,16,Jits_ISO_5,14,9999,9999,9999,1508850796
49,16,16,Jits_ISO_5,15,9999,9999,9999,1509350520
49,16,16,Jits_ISO_5,16,9999,9999,9999,1509850212
49,16,16,Jits_ISO_5,17,9999,9999,9999,1510350904
49,16,16,Jits_ISO_5,18,9999,9999,9999,1510850648
49,16,16,Jits_ISO_5,19,9999,9999,9999,1511350324
49,16,16,Jits_ISO_5,20,9999,9999,9999,1511851120
49,16,16,Jits_ISO_5,21,9999,9999,9999,1512361060
49,16,16,Jits_ISO_5,22,9999,9999,9999,1512860792
49,16,16,Jits_ISO_5,23,9999,9999,9999,1513360464
49,16,16,Jits_ISO_5,24,9999,9999,9999,1513860200
49,16,16,Jits_ISO_5,25,9999,9999,9999,1514360896
49,16,16,Jits_ISO_5,26,9999,9999,9999,1514860628
49,16,16,Jits_ISO_5,27,9999,9999,9999,1515360336
49,16,16,Jits_ISO_5,28,9999,9999,9999,1515861048
49,16,16,Jits_ISO_5,29,9999,9999,9999,1516360780
49,16,16,Jits_ISO_5,30,9999,9999,9999,1516860488
49,16,16,Jits_ISO_5,31,9999,9999,9999,1517360216
49,16,16,Jits_ISO_5,32,9999,9999,9999,1517860920
49,16,16,Jits_ISO_5,33,9999,9999,9999,1518360656
49,16,16,Jits_ISO_5,34,9999,9999,9999,1518860388
49,16,16,Jits_ISO_5,35,9999,9999,9999,1519360052
49,16,16,Jits_ISO_5,36,9999,9999,9999,1519860820
49,16,16,Jits_ISO_5,37,9999,9999,9999,1520360556
49,16,16,Jits_ISO_5,38,9999,9999,9999,1520860216
49,16,16,Jits_ISO_5,39,9999,9999,9999,1521361000
49,16,16,Jits_ISO_5,40,9999,9999,9999,1521860660
49,16,16,Jits_ISO_5,41,9999,9999,9999,1522360388
49,16,16,Jits_ISO_5,42,9999,9999,9999,1522860120
49,16,16,Jits_ISO_5,43,9999,9999,9999,1523360820
49,16,16,Jits_ISO_5,44,9999,9999,9999,1523860552
49,16,16,Jits_ISO_5,45,9999,9999,9999,1524360284
49,16,16,Jits_ISO_5,46,9999,9999,9999,1524860988
49,16,16,Jits_ISO_5,47,9999,9999,9999,1525360728
49,16,16,Jits_ISO_5,48,9999,9999,9999,1525860460
49,16,16,Jits_ISO_5,49,9999,9999,9999,1526360120
49,16,16,Jits_ISO_5,50,9999,9999,9999,1526860924
49,16,16,Jits_ISO_5,51,9999,9999,9999,1527360632
49,16,16,Jits_ISO_5,52,9999,9999,9999,1527860308
49,16,16,Jits_ISO_5,53,9999,9999,9999,1528361032
49,16,16,Jits_ISO_5,54,9999,9999,9999,1528860768
49,16,16,Jits_ISO_5,55,9999,9999,9999,1529360440
49,16,16,Jits_ISO_5,56,9999,9999,9999,1529860192
49,16,16,Jits_ISO_5,57,9999,9999,9999,1530360908
49,16,16,Jits_ISO_5,58,9999,9999,9999,1530860644
49,16,16,Jits_ISO_5,59,9999,9999,9999,1531360368
49,16,16,Jits_ISO_5,60,9999,9999,9999,1531861076
49,16,16,Jits_ISO_5,61,9999,9999,9999,1532360808
49,16,16,Jits_ISO_5,62,9999,9999,9999,1532860464
49,16,16,Jits_ISO_5,63,9999,9999,9999,1533360196
49,16,16,Jits_ISO_5,64,9999,9999,9999,1533860980
49,16,16,Jits_ISO_5,65,9999,9999,9999,1534360640
49,16,16,Jits_ISO_5,66,9999,9999,9999,1534860372
49,16,16,Jits_ISO_5,67,9999,9999,9999,1535360092
49,16,16,Jits_ISO_5,68,9999,9999,9999,1535860800
49,16,16,Jits_ISO_5,69,9999,9999,9999,1536360540
49,16,16,Jits_ISO_5,70,9999,9999,9999,1536860264
49,16,16,Jits_ISO_5,71,9999,9999,9999,1537360968
49,16,16,Jits_ISO_5,72,9999,9999,9999,1537860700
49,16,16,Jits_ISO_5,73,9999,9999,9999,1538360408
49,16,16,Jits_ISO_5,74,9999,9999,9999,1538860132
49,16,16,Jits_ISO_5,75,9999,9999,9999,1539360836
49,16,16,Jits_ISO_5,76,9999,9999,9999,1539860572
49,16,16,Jits_ISO_5,77,9999,9999,9999,1540360308
49,16,16,Jits_ISO_5,78,9999,9999,9999,1540861016
49,16,16,Jits_ISO_5,79,9999,9999,9999,1541360748
49,16,16,Jits_ISO_5,80,9999,9999,9999,1541860408
49,16,16,Jits_ISO_5,81,9999,9999,9999,1542360144
49,16,16,Jits_ISO_5,82,9999,9999,9999,1542860916
49,16,16,Jits_ISO_5,83,9999,9999,9999,1543360576
49,16,16,Jits_ISO_5,84,9999,9999,9999,1543860312
49,16,16,Jits_ISO_5,85,9999,9999,9999,1544361012
49,16,16,Jits_ISO_5,86,9999,9999,9999,1544860740
49,16,16,Jits_ISO_5,87,9999,9999,9999,1545360472
49,16,16,Jits_ISO_5,88,9999,9999,9999,1545860204
49,16,16,Jits_ISO_5,89,9999,9999,9999,1546360912
49,16,16,Jits_ISO_5,90,9999,9999,9999,1546860644
49,16,16,Jits_ISO_5,91,9999,9999,9999,1547360376
49,16,16,Jits_ISO_5,92,9999,9999,9999,1547861068
49,16,16,Jits_ISO_5,93,9999,9999,9999,1548360804
49,16,16,Jits_ISO_5,94,9999,9999,9999,1548860512
49,16,16,Jits_ISO_5,95,9999,9999,9999,1549360240
49,16,16,Jits_ISO_5,96,9999,9999,9999,1549860944
49,16,16,Jits_ISO_5,97,9999,9999,9999,1550360672
49,16,16,Jits_ISO_5,98,9999,9999,9999,1550860404
49,16,16,Jits_ISO_5,99,9999,9999,9999,1551360060
49,16,16,Jits_ISO_5,100,9999,9999,9999,1551860840
49,16,16,Jits_ISO_5,101,9999,9999,9999,1552360504
49,16,16,Jits_ISO_5,102,9999,9999,9999,1552860232
49,16,16,Jits_ISO_5,103,9999,9999,9999,1553361016
49,16,16,Jits_ISO_5,104,9999,9999,9999,1553860672
49,16,16,Jits_ISO_5,105,9999,9999,9999,1554360400
49,16,16,Jits_ISO_5,106,9999,9999,9999,1554860132
49,16,16,Jits_ISO_5,107,9999,9999,9999,1555360840
49,16,16,Jits_ISO_5,108,9999,9999,9999,1555860568
49,16,16,Jits_ISO_5,109,9999,9999,9999,1556360304
49,16,16,Jits_ISO_5,110,9999,9999,9999,1556861012
49,16,16,Jits_ISO_5,111,9999,9999,9999,1557360744
49,16,16,Jits_ISO_5,112,9999,9999,9999,1557860476
49,16,16,Jits_ISO_5,113,9999,9999,9999,1558360136
49,16,16,Jits_ISO_5,114,9999,9999,9999,1558860912
49,16,16,Jits_ISO_5,115,9999,9999,9999,1559360560
49,16,16,Jits_ISO_5,116,9999,9999,9999,1559860344
49,16,16,Jits_ISO_5,117,9999,9999,9999,1560361052
49,16,16,Jits_ISO_5,118,9999,9999,9999,1560860788
49,16,16,Jits_ISO_5,119,9999,9999,9999,1561360440
49,17,7,Jits_ISO_8,0,5,56,103,1572012324
49,17,7,Jits_ISO_8,1,5,63,98,1572015496
49,17,7,Jits_ISO_8,2,5,80,127,1572018620
49,17,7,Jits_ISO_8,3,1,48,37,1572338732
49,17,7,Jits_ISO_8,0,1,48,40,1572798520
49,17,7,Jits_ISO_8,1,5,56,103,1572812168
49,17,7,Jits_ISO_8,2,5,63,98,1572815496
49,17,7,Jits_ISO_8,3,5,80,127,1572818392
49,17,7,Jits_ISO_8,0,5,80,127,1573551424
49,17,7,Jits_ISO_8,1,1,48,41,1573561592
49,17,7,Jits_ISO_8,2,5,63,98,1573641556
49,17,7,Jits_ISO_8,3,5,56,103,1573651900
49,17,7,Jits_ISO_8,0,5,56,103,1574371676
49,17,7,Jits_ISO_8,1,5,63,98,1574382168
49,17,7,Jits_ISO_8,2,1,48,38,1574413464
49,17,7,Jits_ISO_8,3,5,80,127,1574472172
49,17,7,Jits_ISO_8,0,1,48,38,1575104908
49,17,7,Jits_ISO_8,1,5,63,98,1575141800
49,17,7,Jits_ISO_8,2,5,80,127,1575171400
49,17,7,Jits_ISO_8,3,5,56,103,1575202108
49,17,7,Jits_ISO_8,0,1,48,27,1575866620
49,17,7,Jits_ISO_8,1,5,56,103,1575941352
49,17,7,Jits_ISO_8,2,5,80,127,1576042136
49,17,7,Jits_ISO_8,3,5,63,98,1576091964
49,17,7,Jits_ISO_8,0,1,48,36,1576733096
49,17,7,Jits_ISO_8,1,5,56,103,1576742112
49,17,7,Jits_ISO_8,2,5,80,127,1576792340
49,17,7,Jits_ISO_8,3,5,63,98,1576833236
49,17,7,Jits_ISO_8,0,1,48,34,1577499992
49,17,7,Jits_ISO_8,1,5,80,127,1577571964
49,17,7,Jits_ISO_8,2,5,63,98,1577602448
49,17,7,Jits_ISO_8,3,5,56,103,1577672128
49,17,7,Jits_ISO_8,0,1,48,38,1578358528
49,17,7,Jits_ISO_8,1,5,63,98,1578402092
49,17,7,Jits_ISO_8,2,5,56,103,1578431920
49,17,7,Jits_ISO_8,3,5,80,127,1578492144
49,17,7,Jits_ISO_8,0,1,48,25,1579132844
49,17,7,Jits_ISO_8,1,5,56,103,1579141332
49,17,7,Jits_ISO_8,2,5,80,127,1579144628
49,17,7,Jits_ISO_8,3,5,63,98,1579262316
49,17,7,Jits_ISO_8,0,1,48,44,1579863380
49,17,7,Jits_ISO_8,1,5,56,103,1580022084
49,17,7,Jits_ISO_8,2,5,80,127,1580061948
49,17,7,Jits_ISO_8,3,5,63,98,1580072444
49,17,7,Jits_ISO_8,0,1,48,37,1580715172
49,17,7,Jits_ISO_8,1,5,56,103,1580781952
49,17,7,Jits_ISO_8,2,5,80,127,1580802636
49,17,7,Jits_ISO_8,3,5,63,98,1580882216
49,17,7,Jits_ISO_8,0,1,48,33,1581553616
49,17,7,Jits_ISO_8,1,5,80,127,1581571332
49,17,7,Jits_ISO_8,2,5,56,103,1581672036
49,17,7,Jits_ISO_8,3,5,63,98,1581682232
49,17,7,Jits_ISO_8,0,5,63,98,1582341380
49,17,7,Jits_ISO_8,1,5,80,127,1582402020
49,17,7,Jits_ISO_8,2,5,56,103,1582412144
49,17,7,Jits_ISO_8,3,1,48,21,1582449416
49,17,7,Jits_ISO_8,0,1,48,29,1583042976
49,17,7,Jits_ISO_8,1,5,56,103,1583142336
49,17,7,Jits_ISO_8,2,5,63,98,1583211896
49,17,7,Jits_ISO_8,3,5,80,127,1583215188
49,17,7,Jits_ISO_8,0,1,48,32,1583837724
49,17,7,Jits_ISO_8,1,5,63,98,1583971808
49,17,7,Jits_ISO_8,2,5,56,103,1584021780
49,17,7,Jits_ISO_8,3,5,80,127,1584024928
49,17,7,Jits_ISO_8,0,1,48,20,1584621476
49,17,7,Jits_ISO_8,1,5,56,103,1584731720
49,17,7,Jits_ISO_8,2,5,80,127,1584734640
49,17,7,Jits_ISO_8,3,5,63,98,1584821852
49,17,7,Jits_ISO_8,0,1,48,34,1585375604
49,17,7,Jits_ISO_8,1,5,63,98,1585572316
49,17,7,Jits_ISO_8,2,5,56,103,1585662228
49,17,7,Jits_ISO_8,3,5,80,127,1585692128
49,17,7,Jits_ISO_8,0,1,48,30,1586284956
49,17,7,Jits_ISO_8,1,5,56,103,1586361856
49,17,7,Jits_ISO_8,2,5,63,98,1586461944
49,17,7,Jits_ISO_8,3,5,80,127,1586491768
49,17,7,Jits_ISO_8,0,1,48,35,1587097252
49,17,7,Jits_ISO_8,1,5,63,98,1587182024
49,17,7,Jits_ISO_8,2,5,56,103,1587192220
49,17,7,Jits_ISO_8,3,5,80,127,1587282216
49,17,7,Jits_ISO_8,0,1,48,38,1587873740
49,17,7,Jits_ISO_8,1,5,63,98,1588002104
49,17,7,Jits_ISO_8,2,5,56,103,1588082000
49,17,7,Jits_ISO_8,3,5,80,127,1588085140
49,17,7,Jits_ISO_8,0,1,48,37,1588674576
49,17,7,Jits_ISO_8,1,5,80,127,1588761968
49,17,7,Jits_ISO_8,2,5,63,98,1588781588
49,17,7,Jits_ISO_8,3,5,56,103,1588841704
49,17,7,Jits_ISO_8,0,1,48,31,1589438984
49,17,7,Jits_ISO_8,1,5,56,103,1589601916
49,17,7,Jits_ISO_8,2,5,63,98,1589622076
49,17,7,Jits_ISO_8,3,5,80,127,1589625664
49,17,7,Jits_ISO_8,0,5,63,98,1590342000
49,17,7,Jits_ISO_8,1,1,48,24,1590363476
49,17,7,Jits_ISO_8,2,5,80,127,1590421864
49,17,7,Jits_ISO_8,3,5,56,103,1590432064
49,17,7,Jits_ISO_8,0,1,48,29,1591113132
49,17,7,Jits_ISO_8,1,5,63,98,1591162156
49,17,7,Jits_ISO_8,2,5,56,103,1591181644
49,17,7,Jits_ISO_8,3,5,80,127,1591231980
49,17,7,Jits_ISO_8,0,1,48,35,1591882336
49,17,7,Jits_ISO_8,1,5,80,127,1591961932
49,17,7,Jits_ISO_8,2,5,63,98,1592001856
49,17,7,Jits_ISO_8,3,5,56,103,1592022540
49,17,7,Jits_ISO_8,0,1,48,30,1592758388
49,17,7,Jits_ISO_8,1,5,56,103,1592801580
49,17,7,Jits_ISO_8,2,5,63,98,1592811776
49,17,7,Jits_ISO_8,3,5,80,127,1592832532
49,17,7,Jits_ISO_8,0,5,56,103,1593531840
49,17,7,Jits_ISO_8,1,1,48,32,1593581716
49,17,7,Jits_ISO_8,2,5,63,98,1593621748
49,17,7,Jits_ISO_8,3,5,80,127,1593682368
49,17,7,Jits_ISO_8,0,1,48,37,1594357976
49,17,7,Jits_ISO_8,1,5,80,127,1594362424
49,17,7,Jits_ISO_8,2,5,56,103,1594371576
49,17,7,Jits_ISO_8,3,5,63,98,1594442028
49,17,7,Jits_ISO_8,0,1,48,37,1595183760
49,17,7,Jits_ISO_8,1,5,63,98,1595191656
49,17,7,Jits_ISO_8,2,5,80,127,1595281744
49,17,7,Jits_ISO_8,3,5,56,103,1595291996
49,17,7,Jits_ISO_8,0,5,63,98,1595931964
49,17,7,Jits_ISO_8,1,5,80,127,1595982488
49,17,7,Jits_ISO_8,2,1,48,34,1596014756
49,17,7,Jits_ISO_8,3,5,56,103,1596041528
49,17,7,Jits_ISO_8,0,1,48,43,1596700776
49,17,7,Jits_ISO_8,1,5,56,103,1596761584
49,17,7,Jits_ISO_8,2,5,80,127,1596811624
49,17,7,Jits_ISO_8,3,5,63,98,1596832080
49,17,7,Jits_ISO_8,0,1,48,38,1597486092
49,17,7,Jits_ISO_8,1,5,56,103,1597531476
49,17,7,Jits_ISO_8,2,5,80,127,1597591852
49,17,7,Jits_ISO_8,3,5,63,98,1597661532
49,17,7,Jits_ISO_8,0,1,48,41,1598295552
49,17,7,Jits_ISO_8,1,5,56,103,1598332368
49,17,7,Jits_ISO_8,2,5,80,127,1598361820
49,17,7,Jits_ISO_8,3,5,63,98,1598391704
49,17,7,Jits_ISO_8,0,1,48,43,1599053372
49,17,7,Jits_ISO_8,1,5,56,103,1599172068
49,17,7,Jits_ISO_8,2,5,80,127,1599192380
49,17,7,Jits_ISO_8,3,5,63,98,1599251944
49,17,7,Jits_ISO_8,0,1,48,40,1599887316
49,17,7,Jits_ISO_8,1,5,80,127,1600051500
49,17,7,Jits_ISO_8,2,5,56,103,1600061868
49,17,7,Jits_ISO_8,3,5,63,98,1600071992
49,17,7,Jits_ISO_8,0,1,48,27,1600694760
49,17,7,Jits_ISO_8,1,5,56,103,1600812328
49,17,7,Jits_ISO_8,2,5,80,127,1600852444
49,17,7,Jits_ISO_8,3,5,63,98,1600882120
49,17,7,Jits_ISO_8,0,1,48,27,1601483236
49,17,7,Jits_ISO_8,1,5,56,103,1601581400
49,17,7,Jits_ISO_8,2,5,63,98,1601612300
49,17,7,Jits_ISO_8,3,5,80,127,1601652236
49,17,7,Jits_ISO_8,0,1,48,35,1602226820
49,17,7,Jits_ISO_8,1,5,80,127,1602331956
49,17,7,Jits_ISO_8,2,5,63,98,1602382408
49,17,7,Jits_ISO_8,3,5,56,103,1602401600
49,17,7,Jits_ISO_8,0,1,48,35,1603014164
49,17,7,Jits_ISO_8,1,5,56,103,1603161356
49,17,7,Jits_ISO_8,2,5,80,127,1603232312
49,17,7,Jits_ISO_8,3,5,63,98,1603291432
49,17,7,Jits_ISO_8,0,1,48,32,1603921276
49,17,7,Jits_ISO_8,1,5,80,127,1603962352
49,17,7,Jits_ISO_8,2,5,63,98,1604052400
49,17,7,Jits_ISO_8,3,5,56,103,1604071664
49,17,7,Jits_ISO_8,0,1,48,24,1604728984
49,17,7,Jits_ISO_8,1,5,63,98,1604781316
49,17,7,Jits_ISO_8,2,5,56,103,1604801852
49,17,7,Jits_ISO_8,3,5,80,127,1604841772
49,17,7,Jits_ISO_8,0,1,48,31,1605467852
49,17,7,Jits_ISO_8,1,5,80,127,1605542212
49,17,7,Jits_ISO_8,2,5,63,98,1605561700
49,17,7,Jits_ISO_8,3,5,56,103,1605641556
49,17,7,Jits_ISO_8,0,1,48,25,1606287716
49,17,7,Jits_ISO_8,1,5,63,98,1606331804
49,17,7,Jits_ISO_8,2,5,56,103,1606442304
49,17,7,Jits_ISO_8,3,5,80,127,1606445520
49,17,7,Jits_ISO_8,0,1,48,27,1607067184
49,17,7,Jits_ISO_8,1,5,63,98,1607152104
49,17,7,Jits_ISO_8,2,5,56,103,1607162208
49,17,7,Jits_ISO_8,3,5,80,127,1607165280
49,17,7,Jits_ISO_8,0,1,48,28,1607850108
49,17,7,Jits_ISO_8,1,5,56,103,1607932316
49,17,7,Jits_ISO_8,2,5,80,127,1608052204
49,17,7,Jits_ISO_8,3,5,63,98,1608092144
49,17,7,Jits_ISO_8,0,5,56,103,1608751440
49,17,7,Jits_ISO_8,1,1,48,28,1608788664
49,17,7,Jits_ISO_8,2,5,80,127,1608832380
49,17,7,Jits_ISO_8,3,5,63,98,1608851940
49,17,7,Jits_ISO_8,0,1,48,42,1609430728
49,17,7,Jits_ISO_8,1,5,56,103,1609552216
49,17,7,Jits_ISO_8,2,5,63,98,1609661832
49,17,7,Jits_ISO_8,3,5,80,127,1609665344
49,17,7,Jits_ISO_8,0,1,48,32,1610266536
49,17,7,Jits_ISO_8,1,5,56,103,1610381664
49,17,7,Jits_ISO_8,2,5,80,127,1610412388
49,17,7,Jits_ISO_8,3,5,63,98,1610432096
49,17,7,Jits_ISO_8,0,1,48,36,1610991996
49,17,7,Jits_ISO_8,1,5,63,98,1611162108
49,17,7,Jits_ISO_8,2,5,56,103,1611172156
49,17,7,Jits_ISO_8,3,5,80,127,1611181380
49,17,7,Jits_ISO_8,0,1,48,23,1611744192
49,17,7,Jits_ISO_8,1,5,80,127,1611951400
49,17,7,Jits_ISO_8,2,5,56,103,1612001604
49,17,7,Jits_ISO_8,3,5,63,98,1612041544
49,17,7,Jits_ISO_8,0,1,48,35,1612493476
49,17,7,Jits_ISO_8,1,5,80,127,1612771640
49,17,7,Jits_ISO_8,2,5,63,98,1612792172
49,17,7,Jits_ISO_8,3,5,56,103,1612842448
49,17,7,Jits_ISO_8,0,5,80,127,1613581784
49,17,7,Jits_ISO_8,1,5,56,103,1613612284
49,17,7,Jits_ISO_8,2,5,63,98,1613682064
49,17,7,Jits_ISO_8,0,1,48,27,1614146352
49,17,7,Jits_ISO_8,1,5,56,103,1614431560
49,17,7,Jits_ISO_8,2,5,80,127,1614441828
49,17,7,Jits_ISO_8,3,5,63,98,1614481768
49,17,7,Jits_ISO_8,0,1,48,36,1614912356
49,17,7,Jits_ISO_8,1,5,56,103,1615142164
49,17,7,Jits_ISO_8,2,5,63,98,1615161948
49,17,7,Jits_ISO_8,3,5,80,127,1615232256
49,17,7,Jits_ISO_8,0,1,48,23,1615652768
49,17,7,Jits_ISO_8,1,5,63,98,1615961372
49,17,7,Jits_ISO_8,2,5,80,127,1616021988
49,17,7,Jits_ISO_8,3,5,56,103,1616042296
49,17,7,Jits_ISO_8,0,1,48,31,1616549516
49,17,7,Jits_ISO_8,1,5,80,127,1616752160
49,17,7,Jits_ISO_8,2,5,56,103,1616781688
49,17,7,Jits_ISO_8,3,5,63,98,1616812336
49,17,7,Jits_ISO_8,0,1,48,41,1617298944
49,17,7,Jits_ISO_8,1,5,56,103,1617551860
49,17,7,Jits_ISO_8,2,5,63,98,1617612104
49,17,7,Jits_ISO_8,3,5,80,127,1617671448
49,17,7,Jits_ISO_8,0,1,48,22,1618137988
49,17,7,Jits_ISO_8,1,5,80,127,1618372024
49,17,7,Jits_ISO_8,2,5,56,103,1618392332
49,17,7,Jits_ISO_8,3,5,63,98,1618462016
49,17,7,Jits_ISO_8,0,1,48,34,1618868544
49,17,7,Jits_ISO_8,1,5,80,127,1619171808
49,17,7,Jits_ISO_8,2,5,63,98,1619192192
49,17,7,Jits_ISO_8,3,5,56,103,1619222016
49,17,7,Jits_ISO_8,0,1,48,36,1619626520
49,17,7,Jits_ISO_8,1,5,80,127,1619962148
49,17,7,Jits_ISO_8,2,5,63,98,1619981708
49,17,7,Jits_ISO_8,3,5,56,103,1620042048
49,17,7,Jits_ISO_8,4,1,48,25,1620398256
49,17,7,Jits_ISO_8,0,5,80,127,1620761948
49,17,7,Jits_ISO_8,1,5,56,103,1620862444
49,17,7,Jits_ISO_8,2,5,63,98,1620892048
49,17,7,Jits_ISO_8,3,1,48,35,1621183536
49,17,7,Jits_ISO_8,0,5,63,98,1621551408
49,17,7,Jits_ISO_8,1,5,80,127,1621601788
49,17,7,Jits_ISO_8,2,5,56,103,1621622100
49,17,7,Jits_ISO_8,3,1,48,37,1621991944
49,17,7,Jits_ISO_8,0,5,80,127,1622392272
49,17,7,Jits_ISO_8,1,5,56,103,1622422020
49,17,7,Jits_ISO_8,2,5,63,98,1622425088
49,17,7,Jits_ISO_8,0,1,48,31,1622815632
49,17,7,Jits_ISO_8,1,5,63,98,1623221616
49,17,7,Jits_ISO_8,2,5,56,103,1623261480
49,17,7,Jits_ISO_8,3,5,80,127,1623282092
49,17,7,Jits_ISO_8,0,1,48,35,1623640828
49,17,7,Jits_ISO_8,1,5,80,127,1623961912
49,17,7,Jits_ISO_8,2,5,63,98,1624041932
49,17,7,Jits_ISO_8,3,5,56,103,1624081872
49,17,7,Jits_ISO_8,0,1,48,39,1624442260
49,17,7,Jits_ISO_8,1,5,63,98,1624782080
49,17,7,Jits_ISO_8,2,5,80,127,1624862028
49,17,7,Jits_ISO_8,3,5,56,103,1624881736
49,17,7,Jits_ISO_8,0,1,48,39,1625238820
49,17,7,Jits_ISO_8,1,5,56,103,1625621880
49,17,7,Jits_ISO_8,2,5,63,98,1625632076
49,17,7,Jits_ISO_8,3,5,80,127,1625672040
49,17,7,Jits_ISO_8,4,1,48,38,1625980236
49,17,7,Jits_ISO_8,0,5,56,103,1626341668
49,17,7,Jits_ISO_8,1,5,80,127,1626344664
49,17,7,Jits_ISO_8,2,5,63,98,1626482020
49,17,7,Jits_ISO_8,3,1,48,47,1626694396
49,17,7,Jits_ISO_8,0,5,56,103,1627132168
49,17,7,Jits_ISO_8,1,5,63,98,1627222328
49,17,7,Jits_ISO_8,2,5,80,127,1627292156
49,17,7,Jits_ISO_8,3,1,48,38,1627429288
49,17,7,Jits_ISO_8,0,1,48,42,1627939264
49,17,7,Jits_ISO_8,1,5,63,98,1628011924
49,17,7,Jits_ISO_8,2,5,80,127,1628015212
49,17,7,Jits_ISO_8,3,5,56,103,1628072300
49,17,7,Jits_ISO_8,0,1,48,29,1628821872
49,17,7,Jits_ISO_8,1,5,80,127,1628851716
49,17,7,Jits_ISO_8,2,5,56,103,1628872024
49,17,7,Jits_ISO_8,3,5,63,98,1628882220
49,17,7,Jits_ISO_8,0,5,56,103,1629562280
49,17,7,Jits_ISO_8,1,5,63,98,1629571504
49,17,7,Jits_ISO_8,2,1,48,36,1629608104
49,17,7,Jits_ISO_8,3,5,80,127,1629642148
49,17,7,Jits_ISO_8,0,1,48,38,1630281196
49,17,7,Jits_ISO_8,1,5,80,127,1630362060
49,17,7,Jits_ISO_8,2,5,56,103,1630412176
49,17,7,Jits_ISO_8,3,5,63,98,1630462600
49,17,7,Jits_ISO_8,0,1,48,33,1631120992
49,17,7,Jits_ISO_8,1,5,56,103,1631241704
49,17,7,Jits_ISO_8,2,5,63,98,1631251752
49,17,7,Jits_ISO_8,3,5,80,127,1631291936
49,17,7,Jits_ISO_8,0,5,56,103,1631981804
49,17,7,Jits_ISO_8,1,5,63,98,1632021816
49,17,7,Jits_ISO_8,2,5,80,127,1632071968
49,17,7,Jits_ISO_8,0,5,80,127,1632741740
49,17,7,Jits_ISO_8,1,1,48,28,1632749888
49,17,7,Jits_ISO_8,2,5,56,103,1632791864
49,17,7,Jits_ISO_8,3,5,63,98,1632812396
49,17,7,Jits_ISO_8,0,1,48,35,1633490928
49,17,7,Jits_ISO_8,1,5,80,127,1633551644
49,17,7,Jits_ISO_8,2,5,63,98,1633612272
49,17,7,Jits_ISO_8,3,5,56,103,1633691916
49,17,7,Jits_ISO_8,0,1,48,26,1634312888
49,17,7,Jits_ISO_8,1,5,80,127,1634332024
49,17,7,Jits_ISO_8,2,5,56,103,1634372060
49,17,7,Jits_ISO_8,3,5,63,98,1634392520
49,17,7,Jits_ISO_8,0,1,48,34,1634980880
49,17,7,Jits_ISO_8,1,5,56,103,1635181932
49,17,7,Jits_ISO_8,2,5,80,127,1635192056
49,17,7,Jits_ISO_8,3,5,63,98,1635231992
49,17,7,Jits_ISO_8,0,1,48,25,1635817360
49,17,7,Jits_ISO_8,1,5,56,103,1636052592
49,17,7,Jits_ISO_8,2,5,63,98,1636092528
49,17,7,Jits_ISO_8,3,5,80,127,1636095892
49,17,7,Jits_ISO_8,0,1,48,27,1636625988
49,17,7,Jits_ISO_8,1,5,63,98,1636741560
49,17,7,Jits_ISO_8,2,5,80,127,1636781576
49,17,7,Jits_ISO_8,3,5,56,103,1636852156
49,17,7,Jits_ISO_8,0,1,48,18,1637398940
49,17,7,Jits_ISO_8,1,5,63,98,1637531900
49,17,7,Jits_ISO_8,2,5,56,103,1637612000
49,17,7,Jits_ISO_8,3,5,80,127,1637672460
49,17,7,Jits_ISO_8,0,1,48,29,1638111748
49,17,7,Jits_ISO_8,1,5,80,127,1638341876
49,17,7,Jits_ISO_8,2,5,63,98,1638392304
49,17,7,Jits_ISO_8,3,5,56,103,1638421828
49,17,7,Jits_ISO_8,0,1,48,31,1638879468
49,17,7,Jits_ISO_8,1,5,56,103,1639131468
49,17,7,Jits_ISO_8,2,5,63,98,1639181672
49,17,7,Jits_ISO_8,3,5,80,127,1639191868
49,17,7,Jits_ISO_8,0,1,48,29,1639618700
49,17,7,Jits_ISO_8,1,5,56,103,1639941492
49,17,7,Jits_ISO_8,2,5,63,98,1640052032
49,17,7,Jits_ISO_8,3,5,80,127,1640071520
49,17,7,Jits_ISO_8,0,1,48,19,1640445208
49,17,7,Jits_ISO_8,1,5,63,98,1640742396
49,17,7,Jits_ISO_8,2,5,80,127,1640792552
49,17,7,Jits_ISO_8,3,5,56,103,1640881416
49,17,7,Jits_ISO_8,0,1,48,29,1641281136
49,17,7,Jits_ISO_8,1,5,63,98,1641531716
49,17,7,Jits_ISO_8,2,5,80,127,1641561320
49,17,7,Jits_ISO_8,3,5,56,103,1641651600
49,17,7,Jits_ISO_8,0,1,48,30,1642064348
49,17,7,Jits_ISO_8,1,5,63,98,1642331568
49,17,7,Jits_ISO_8,2,5,56,103,1642341692
49,17,7,Jits_ISO_8,3,5,80,127,1642442308
49,17,7,Jits_ISO_8,4,1,48,32,1642805864
49,17,7,Jits_ISO_8,0,5,63,98,1643231540
49,17,7,Jits_ISO_8,1,5,80,127,1643262412
49,17,7,Jits_ISO_8,2,5,56,103,1643292384
49,17,7,Jits_ISO_8,0,1,48,29,1643853792
49,17,7,Jits_ISO_8,1,5,80,127,1644051908
49,17,7,Jits_ISO_8,2,5,63,98,1644062552
49,17,7,Jits_ISO_8,3,5,56,103,1644091808
49,17,7,Jits_ISO_8,0,1,48,39,1644691880
49,17,7,Jits_ISO_8,1,5,80,127,1644752292
49,17,7,Jits_ISO_8,2,5,63,98,1644771632
49,17,7,Jits_ISO_8,3,5,56,103,1644822040
49,17,7,Jits_ISO_8,0,1,48,22,1645433808
49,17,7,Jits_ISO_8,1,5,63,98,1645581656
49,17,7,Jits_ISO_8,2,5,80,127,1645642220
49,17,7,Jits_ISO_8,3,5,56,103,1645661636
49,17,7,Jits_ISO_8,0,1,48,24,1646197480
49,17,7,Jits_ISO_8,1,5,63,98,1646341432
49,17,7,Jits_ISO_8,2,5,56,103,1646391560
49,17,7,Jits_ISO_8,3,5,80,127,1646402080
49,17,7,Jits_ISO_8,0,1,48,31,1646923092
49,17,7,Jits_ISO_8,1,5,56,103,1647171952
49,17,7,Jits_ISO_8,2,5,80,127,1647182448
49,17,7,Jits_ISO_8,3,5,63,98,1647281572
49,17,7,Jits_ISO_8,0,1,48,15,1647689844
49,17,7,Jits_ISO_8,1,5,80,127,1647931652
49,17,7,Jits_ISO_8,2,5,63,98,1647942220
49,17,7,Jits_ISO_8,3,5,56,103,1648091468
49,17,7,Jits_ISO_8,0,1,48,25,1648418936
49,17,7,Jits_ISO_8,1,5,63,98,1648741604
49,17,7,Jits_ISO_8,2,5,80,127,1648781620
49,17,7,Jits_ISO_8,3,5,56,103,1648861488
49,17,7,Jits_ISO_8,0,1,48,28,1649249128
49,17,7,Jits_ISO_8,1,5,56,103,1649532240
49,17,7,Jits_ISO_8,2,5,80,127,1649631596
49,17,7,Jits_ISO_8,3,5,63,98,1649652356
49,17,7,Jits_ISO_8,4,1,48,29,1650004172
49,17,7,Jits_ISO_8,0,5,80,127,1650392360
49,17,7,Jits_ISO_8,1,5,56,103,1650401512
49,17,7,Jits_ISO_8,2,5,63,98,1650491816
49,17,7,Jits_ISO_8,3,1,48,29,1650789828
49,17,7,Jits_ISO_8,0,5,56,103,1651192164
49,17,7,Jits_ISO_8,1,5,63,98,1651211576
49,17,7,Jits_ISO_8,2,5,80,127,1651291544
49,17,7,Jits_ISO_8,0,1,48,37,1651628880
49,17,7,Jits_ISO_8,1,5,63,98,1651941664
49,17,7,Jits_ISO_8,2,5,56,103,1652031972
49,17,7,Jits_ISO_8,3,5,80,127,1652034964
49,17,7,Jits_ISO_8,4,1,48,51,1652181628
49,17,7,Jits_ISO_8,0,1,48,46,1652611056
49,17,7,Jits_ISO_8,1,5,56,103,1652772152
49,17,7,Jits_ISO_8,2,5,80,127,1652831672
49,17,7,Jits_ISO_8,3,5,63,98,1652842092
49,17,7,Jits_ISO_8,4,1,48,46,1653134556
49,17,7,Jits_ISO_8,0,5,80,127,1653622108
49,17,7,Jits_ISO_8,1,1,48,51,1653627544
49,17,7,Jits_ISO_8,2,5,56,103,1653632444
49,17,7,Jits_ISO_8,3,5,63,98,1653635364
49,17,7,Jits_ISO_8,0,1,48,48,1654380912
49,17,7,Jits_ISO_8,1,5,56,103,1654382780
49,17,7,Jits_ISO_8,2,5,80,127,1654392152
49,17,7,Jits_ISO_8,3,5,63,98,1654411492
49,17,7,Jits_ISO_8,0,1,48,41,1654992500
49,17,7,Jits_ISO_8,1,5,63,98,1655152128
49,17,7,Jits_ISO_8,2,5,80,127,1655212444
49,17,7,Jits_ISO_8,3,5,56,103,1655261600
49,17,7,Jits_ISO_8,0,1,48,85,1655865784
49,17,7,Jits_ISO_8,1,5,63,98,1656031532
49,17,7,Jits_ISO_8,2,5,56,103,1656041948
49,17,7,Jits_ISO_8,3,5,80,127,1656091928
49,17,7,Jits_ISO_8,0,1,48,78,1656631016
49,17,7,Jits_ISO_8,1,5,63,98,1656732044
49,17,7,Jits_ISO_8,2,5,80,127,1656751384
49,17,7,Jits_ISO_8,3,5,56,103,1656761580
49,17,7,Jits_ISO_8,0,1,48,58,1657369804
49,17,7,Jits_ISO_8,1,5,63,98,1657531964
49,17,7,Jits_ISO_8,2,5,80,127,1657535256
49,17,7,Jits_ISO_8,3,5,56,103,1657571680
49,17,7,Jits_ISO_8,0,1,48,51,1658186964
49,17,7,Jits_ISO_8,1,5,63,98,1658402236
49,17,7,Jits_ISO_8,2,5,80,127,1658432160
49,17,7,Jits_ISO_8,3,5,56,103,1658442132
49,17,7,Jits_ISO_8,0,1,48,42,1658890152
49,17,7,Jits_ISO_8,1,1,48,27,1658969280
49,17,7,Jits_ISO_8,2,5,56,103,1659151948
49,17,7,Jits_ISO_8,3,5,80,127,1659181400
49,17,7,Jits_ISO_8,4,5,63,98,1659212072
49,17,7,Jits_ISO_8,0,1,48,61,1659770348
49,17,7,Jits_ISO_8,1,5,63,98,1660052092
49,17,7,Jits_ISO_8,2,5,56,103,1660091956
49,17,7,Jits_ISO_8,3,5,80,127,1660095024
49,17,7,Jits_ISO_8,0,1,48,48,1660612532
49,17,7,Jits_ISO_8,1,5,80,127,1660752304
49,17,7,Jits_ISO_8,2,5,56,103,1660832028
49,17,7,Jits_ISO_8,3,5,63,98,1660882156
49,17,7,Jits_ISO_8,0,1,48,51,1661393808
49,17,7,Jits_ISO_8,1,5,80,127,1661531412
49,17,7,Jits_ISO_8,2,5,56,103,1661551948
49,17,7,Jits_ISO_8,3,5,63,98,1661642152
49,17,7,Jits_ISO_8,4,1,48,14,1661806136
49,17,7,Jits_ISO_8,0,5,80,127,1662372192
49,17,7,Jits_ISO_8,1,5,63,98,1662412060
49,17,7,Jits_ISO_8,2,5,56,103,1662451996
49,17,7,Jits_ISO_8,3,1,48,27,1662523012
49,17,7,Jits_ISO_8,0,1,48,64,1663130456
49,17,7,Jits_ISO_8,1,5,63,98,1663142392
49,17,7,Jits_ISO_8,2,5,80,127,1663201884
49,17,7,Jits_ISO_8,3,5,56,103,1663232520
49,17,7,Jits_ISO_8,0,1,48,64,1663781940
49,17,7,Jits_ISO_8,1,5,56,103,1663941936
49,17,7,Jits_ISO_8,2,5,80,127,1663971684
49,17,7,Jits_ISO_8,3,5,63,98,1664061844
49,17,7,Jits_ISO_8,0,5,56,103,1664752076
49,17,7,Jits_ISO_8,1,1,48,59,1664803972
49,17,7,Jits_ISO_8,2,5,80,127,1664861712
49,17,7,Jits_ISO_8,3,5,63,98,1664892136
49,17,7,Jits_ISO_8,0,1,48,52,1665541056
49,17,7,Jits_ISO_8,1,5,56,103,1665601872
49,17,7,Jits_ISO_8,2,5,63,98,1665662248
49,17,7,Jits_ISO_8,3,5,80,127,1665692148
49,17,7,Jits_ISO_8,0,5,56,103,1666371924
49,17,7,Jits_ISO_8,1,5,63,98,1666441680
49,17,7,Jits_ISO_8,2,1,48,65,1666446748
49,17,7,Jits_ISO_8,3,5,80,127,1666462060
49,17,7,Jits_ISO_8,0,5,80,127,1667141980
49,17,7,Jits_ISO_8,1,1,48,53,1667160024
49,17,7,Jits_ISO_8,2,5,63,98,1667161904
49,17,7,Jits_ISO_8,3,5,56,103,1667211660
49,17,7,Jits_ISO_8,0,9999,9999,9999,1572409436
49,17,7,Jits_ISO_8,1,9999,9999,9999,1573209148
49,17,7,Jits_ISO_8,2,9999,9999,9999,1574009908
49,17,7,Jits_ISO_8,3,9999,9999,9999,1574809708
49,17,7,Jits_ISO_8,4,9999,9999,9999,1575609428
49,17,7,Jits_ISO_8,5,9999,9999,9999,1576409212
49,17,7,Jits_ISO_8,6,9999,9999,9999,1577209968
49,17,7,Jits_ISO_8,7,9999,9999,9999,1578009680
49,17,7,Jits_ISO_8,8,9999,9999,9999,1578809468
49,17,7,Jits_ISO_8,9,9999,9999,9999,1579609180
49,17,7,Jits_ISO_8,10,9999,9999,9999,1580409944
49,17,7,Jits_ISO_8,11,9999,9999,9999,1581209656
49,17,7,Jits_ISO_8,12,9999,9999,9999,1582009448
49,17,7,Jits_ISO_8,13,9999,9999,9999,1582809152
49,17,7,Jits_ISO_8,14,9999,9999,9999,1583609976
49,17,7,Jits_ISO_8,15,9999,9999,9999,1584409676
49,17,7,Jits_ISO_8,16,9999,9999,9999,1585209444
49,17,7,Jits_ISO_8,17,9999,9999,9999,1586009176
49,17,7,Jits_ISO_8,18,9999,9999,9999,1586809940
49,17,7,Jits_ISO_8,19,9999,9999,9999,1587609652
49,17,7,Jits_ISO_8,20,9999,9999,9999,1588409436
49,17,7,Jits_ISO_8,21,9999,9999,9999,1589209144
49,17,7,Jits_ISO_8,22,9999,9999,9999,1590009964
49,17,7,Jits_ISO_8,23,9999,9999,9999,1590809676
49,17,7,Jits_ISO_8,24,9999,9999,9999,1591609456
49,17,7,Jits_ISO_8,25,9999,9999,9999,1592409184
49,17,7,Jits_ISO_8,26,9999,9999,9999,1593209944
49,17,7,Jits_ISO_8,27,9999,9999,9999,1594009656
49,17,7,Jits_ISO_8,28,9999,9999,9999,1594809452
49,17,7,Jits_ISO_8,29,9999,9999,9999,1595609172
49,17,7,Jits_ISO_8,30,9999,9999,9999,1596409924
49,17,7,Jits_ISO_8,31,9999,9999,9999,1597209708
49,17,7,Jits_ISO_8,32,9999,9999,9999,1598009416
49,17,7,Jits_ISO_8,33,9999,9999,9999,1598809136
49,17,7,Jits_ISO_8,34,9999,9999,9999,1599609968
49,17,7,Jits_ISO_8,35,9999,9999,9999,1600409688
49,17,7,Jits_ISO_8,36,9999,9999,9999,1601209408
49,17,7,Jits_ISO_8,37,9999,9999,9999,1602009188
49,17,7,Jits_ISO_8,38,9999,9999,9999,1602809940
49,17,7,Jits_ISO_8,39,9999,9999,9999,1603609652
49,17,7,Jits_ISO_8,40,9999,9999,9999,1604409436
49,17,7,Jits_ISO_8,41,9999,9999,9999,1605209164
49,17,7,Jits_ISO_8,42,9999,9999,9999,1606009916
49,17,7,Jits_ISO_8,43,9999,9999,9999,1606809692
49,17,7,Jits_ISO_8,44,9999,9999,9999,1607609460
49,17,7,Jits_ISO_8,45,9999,9999,9999,1608409168
49,17,7,Jits_ISO_8,46,9999,9999,9999,1609209924
49,17,7,Jits_ISO_8,47,9999,9999,9999,1610009716
49,17,7,Jits_ISO_8,48,9999,9999,9999,1610809428
49,17,7,Jits_ISO_8,49,9999,9999,9999,1611609148
49,17,7,Jits_ISO_8,50,9999,9999,9999,1612409980
49,17,7,Jits_ISO_8,51,9999,9999,9999,1613209688
49,17,7,Jits_ISO_8,52,9999,9999,9999,1614009424
49,17,7,Jits_ISO_8,53,9999,9999,9999,1614809204
49,17,7,Jits_ISO_8,54,9999,9999,9999,1615609956
49,17,7,Jits_ISO_8,55,9999,9999,9999,1616409660
49,17,7,Jits_ISO_8,56,9999,9999,9999,1617209440
49,17,7,Jits_ISO_8,57,9999,9999,9999,1618009168
49,17,7,Jits_ISO_8,58,9999,9999,9999,1618809924
49,17,7,Jits_ISO_8,59,9999,9999,9999,1619609708
49,17,7,Jits_ISO_8,60,9999,9999,9999,1620409408
49,17,7,Jits_ISO_8,61,9999,9999,9999,1621209140
49,17,7,Jits_ISO_8,62,9999,9999,9999,1622009904
49,17,7,Jits_ISO_8,63,9999,9999,9999,1622809688
49,17,7,Jits_ISO_8,64,9999,9999,9999,1623609452
49,17,7,Jits_ISO_8,65,9999,9999,9999,1624409184
49,17,7,Jits_ISO_8,66,9999,9999,9999,1625209948
49,17,7,Jits_ISO_8,67,9999,9999,9999,1626009656
49,17,7,Jits_ISO_8,68,9999,9999,9999,1626809436
49,17,7,Jits_ISO_8,69,9999,9999,9999,1627609160
49,17,7,Jits_ISO_8,70,9999,9999,9999,1628409924
49,17,7,Jits_ISO_8,71,9999,9999,9999,1629209716
49,17,7,Jits_ISO_8,72,9999,9999,9999,1630009424
49,17,7,Jits_ISO_8,73,9999,9999,9999,1630809168
49,17,7,Jits_ISO_8,74,9999,9999,9999,1631609932
49,17,7,Jits_ISO_8,75,9999,9999,9999,1632409668
49,17,7,Jits_ISO_8,76,9999,9999,9999,1633209436
49,17,7,Jits_ISO_8,77,9999,9999,9999,1634009164
49,17,7,Jits_ISO_8,78,9999,9999,9999,1634809912
49,17,7,Jits_ISO_8,79,9999,9999,9999,1635609696
49,17,7,Jits_ISO_8,80,9999,9999,9999,1636409408
49,17,7,Jits_ISO_8,81,9999,9999,9999,1637209208
49,17,7,Jits_ISO_8,82,9999,9999,9999,1638009960
49,17,7,Jits_ISO_8,83,9999,9999,9999,1638809668
49,17,7,Jits_ISO_8,84,9999,9999,9999,1639609452
49,17,7,Jits_ISO_8,85,9999,9999,9999,1640409140
49,17,7,Jits_ISO_8,86,9999,9999,9999,1641209972
49,17,7,Jits_ISO_8,87,9999,9999,9999,1642009676
49,17,7,Jits_ISO_8,88,9999,9999,9999,1642809444
49,17,7,Jits_ISO_8,89,9999,9999,9999,1643609136
49,17,7,Jits_ISO_8,90,9999,9999,9999,1644409952
49,17,7,Jits_ISO_8,91,9999,9999,9999,1645209656
49,17,7,Jits_ISO_8,92,9999,9999,9999,1646009444
49,17,7,Jits_ISO_8,93,9999,9999,9999,1646809148
49,17,7,Jits_ISO_8,94,9999,9999,9999,1647609908
49,17,7,Jits_ISO_8,95,9999,9999,9999,1648409684
49,17,7,Jits_ISO_8,96,9999,9999,9999,1649209448
49,17,7,Jits_ISO_8,97,9999,9999,9999,1650009176
49,17,7,Jits_ISO_8,98,9999,9999,9999,1650809956
49,17,7,Jits_ISO_8,99,9999,9999,9999,1651609688
49,17,7,Jits_ISO_8,100,9999,9999,9999,1652409432
49,17,7,Jits_ISO_8,101,9999,9999,9999,1653209152
49,17,7,Jits_ISO_8,102,9999,9999,9999,1654009980
49,17,7,Jits_ISO_8,103,9999,9999,9999,1654809700
49,17,7,Jits_ISO_8,104,9999,9999,9999,1655609412
49,17,7,Jits_ISO_8,105,9999,9999,9999,1656409200
49,17,7,Jits_ISO_8,106,9999,9999,9999,1657209948
49,17,7,Jits_ISO_8,107,9999,9999,9999,1658009712
49,17,7,Jits_ISO_8,108,9999,9999,9999,1658809424
49,17,7,Jits_ISO_8,109,9999,9999,9999,1659609180
49,17,7,Jits_ISO_8,110,9999,9999,9999,1660409952
49,17,7,Jits_ISO_8,111,9999,9999,9999,1661209664
49,17,7,Jits_ISO_8,112,9999,9999,9999,1662009444
49,17,7,Jits_ISO_8,113,9999,9999,9999,1662809176
49,17,7,Jits_ISO_8,114,9999,9999,9999,1663609948
49,17,7,Jits_ISO_8,115,9999,9999,9999,1664409652
49,17,7,Jits_ISO_8,116,9999,9999,9999,1665209444
49,17,7,Jits_ISO_8,117,9999,9999,9999,1666009172
49,17,7,Jits_ISO_8,118,9999,9999,9999,1666809932
49,17,7,Jits_ISO_8,119,9999,9999,9999,1667609724
49,18,19,Jits_Linear_5,0,5,56,103,1676476816
49,18,19,Jits_Linear_5,1,5,63,98,1676479764
49,18,19,Jits_Linear_5,2,5,80,127,1676482960
49,18,19,Jits_Linear_5,0,5,56,103,1676967464
49,18,19,Jits_Linear_5,1,5,63,98,1676970640
49,18,19,Jits_Linear_5,2,5,80,127,1676973760
49,18,19,Jits_Linear_5,3,1,48,45,1677119928
49,18,19,Jits_Linear_5,0,5,56,103,1677446400
49,18,19,Jits_Linear_5,1,5,80,127,1677456744
49,18,19,Jits_Linear_5,2,5,63,98,1677477500
49,18,19,Jits_Linear_5,3,1,48,62,1677532156
49,18,19,Jits_Linear_5,0,5,63,98,1677876596
49,18,19,Jits_Linear_5,1,5,80,127,1677907420
49,18,19,Jits_Linear_5,2,5,56,103,1677916568
49,18,19,Jits_Linear_5,3,1,48,96,1677928532
49,18,19,Jits_Linear_5,0,1,48,97,1678379020
49,18,19,Jits_Linear_5,1,5,80,127,1678417428
49,18,19,Jits_Linear_5,2,5,56,103,1678426428
49,18,19,Jits_Linear_5,3,5,63,98,1678457376
49,18,19,Jits_Linear_5,0,1,48,127,1678841236
49,18,19,Jits_Linear_5,1,5,63,98,1678896560
49,18,19,Jits_Linear_5,2,5,56,103,1678927384
49,18,19,Jits_Linear_5,3,5,80,127,1678936608
49,18,19,Jits_Linear_5,0,5,56,103,1679336868
49,18,19,Jits_Linear_5,1,1,48,107,1679365472
49,18,19,Jits_Linear_5,2,5,63,98,1679386920
49,18,19,Jits_Linear_5,3,5,80,127,1679406480
49,18,19,Jits_Linear_5,0,5,80,127,1679827364
49,18,19,Jits_Linear_5,1,5,63,98,1679876672
49,18,19,Jits_Linear_5,2,1,48,81,1679889980
49,18,19,Jits_Linear_5,3,5,56,103,1679917428
49,18,19,Jits_Linear_5,0,5,56,103,1680316656
49,18,19,Jits_Linear_5,1,1,48,104,1680338356
49,18,19,Jits_Linear_5,2,5,63,98,1680346548
49,18,19,Jits_Linear_5,3,5,80,127,1680417128
49,18,19,Jits_Linear_5,0,5,56,103,1680807448
49,18,19,Jits_Linear_5,1,1,48,80,1680827508
49,18,19,Jits_Linear_5,2,5,80,127,1680866788
49,18,19,Jits_Linear_5,3,5,63,98,1680897512
49,18,19,Jits_Linear_5,0,5,56,103,1681306852
49,18,19,Jits_Linear_5,1,5,63,98,1681317496
49,18,19,Jits_Linear_5,2,1,48,106,1681323756
49,18,19,Jits_Linear_5,3,1,38,21,1681334072
49,18,19,Jits_Linear_5,4,5,80,127,1681357260
49,18,19,Jits_Linear_5,0,1,48,78,1681793800
49,18,19,Jits_Linear_5,1,5,63,98,1681796612
49,18,19,Jits_Linear_5,2,1,38,19,1681803992
49,18,19,Jits_Linear_5,3,5,80,127,1681877452
49,18,19,Jits_Linear_5,4,5,56,103,1681886524
49,18,19,Jits_Linear_5,0,1,48,78,1682291732
49,18,19,Jits_Linear_5,1,5,63,98,1682347284
49,18,19,Jits_Linear_5,2,5,56,103,1682387356
49,18,19,Jits_Linear_5,3,5,80,127,1682390348
49,18,19,Jits_Linear_5,0,1,48,68,1682776880
49,18,19,Jits_Linear_5,1,5,56,103,1682807324
49,18,19,Jits_Linear_5,2,5,63,98,1682817444
49,18,19,Jits_Linear_5,3,5,80,127,1682857460
49,18,19,Jits_Linear_5,0,1,48,92,1683271164
49,18,19,Jits_Linear_5,1,5,56,103,1683296744
49,18,19,Jits_Linear_5,2,5,63,98,1683299736
49,18,19,Jits_Linear_5,3,5,80,127,1683317204
49,18,19,Jits_Linear_5,0,1,48,70,1683774820
49,18,19,Jits_Linear_5,1,5,80,127,1683816948
49,18,19,Jits_Linear_5,2,5,56,103,1683827292
49,18,19,Jits_Linear_5,3,5,63,98,1683896816
49,18,19,Jits_Linear_5,0,1,48,62,1684290380
49,18,19,Jits_Linear_5,1,5,63,98,1684316412
49,18,19,Jits_Linear_5,2,5,56,103,1684337168
49,18,19,Jits_Linear_5,3,5,80,127,1684417100
49,18,19,Jits_Linear_5,0,1,48,70,1684802052
49,18,19,Jits_Linear_5,1,5,56,103,1684836700
49,18,19,Jits_Linear_5,2,5,80,127,1684876716
49,18,19,Jits_Linear_5,3,5,63,98,1684886836
49,18,19,Jits_Linear_5,0,1,48,77,1685256836
49,18,19,Jits_Linear_5,1,5,80,127,1685336456
49,18,19,Jits_Linear_5,2,5,63,98,1685367388
49,18,19,Jits_Linear_5,3,5,56,103,1685407256
49,18,19,Jits_Linear_5,0,1,48,43,1685763404
49,18,19,Jits_Linear_5,1,5,56,103,1685867068
49,18,19,Jits_Linear_5,2,5,63,98,1685896524
49,18,19,Jits_Linear_5,3,5,80,127,1685946800
49,18,19,Jits_Linear_5,0,5,80,127,1686376820
49,18,19,Jits_Linear_5,1,5,56,103,1686416760
49,18,19,Jits_Linear_5,2,5,63,98,1686427104
49,18,19,Jits_Linear_5,3,1,48,15,1686441160
49,18,19,Jits_Linear_5,0,5,80,127,1686876444
49,18,19,Jits_Linear_5,1,5,63,98,1686916460
49,18,19,Jits_Linear_5,2,1,48,67,1686971944
49,18,19,Jits_Linear_5,3,5,56,103,1686976920
49,18,19,Jits_Linear_5,0,5,56,103,1687396676
49,18,19,Jits_Linear_5,1,5,80,127,1687407168
49,18,19,Jits_Linear_5,2,1,48,68,1687460484
49,18,19,Jits_Linear_5,3,5,63,98,1687487032
49,18,19,Jits_Linear_5,0,5,80,127,1687917200
49,18,19,Jits_Linear_5,1,1,48,58,1687920392
49,18,19,Jits_Linear_5,2,5,63,98,1687977288
49,18,19,Jits_Linear_5,3,5,56,103,1688007188
49,18,19,Jits_Linear_5,0,1,48,52,1688402176
49,18,19,Jits_Linear_5,1,5,56,103,1688437196
49,18,19,Jits_Linear_5,2,5,80,127,1688496468
49,18,19,Jits_Linear_5,3,5,63,98,1688536468
49,18,19,Jits_Linear_5,0,1,48,73,1688966828
49,18,19,Jits_Linear_5,1,5,56,103,1689016752
49,18,19,Jits_Linear_5,2,5,63,98,1689026876
49,18,19,Jits_Linear_5,3,5,80,127,1689030388
49,18,19,Jits_Linear_5,0,1,48,79,1689459008
49,18,19,Jits_Linear_5,1,5,80,127,1689497172
49,18,19,Jits_Linear_5,2,5,63,98,1689587148
49,18,19,Jits_Linear_5,3,5,56,103,1689597344
49,18,19,Jits_Linear_5,0,1,48,74,1690005612
49,18,19,Jits_Linear_5,1,5,56,103,1690027416
49,18,19,Jits_Linear_5,2,5,63,98,1690030512
49,18,19,Jits_Linear_5,3,5,80,127,1690033708
49,18,19,Jits_Linear_5,0,1,48,59,1690568804
49,18,19,Jits_Linear_5,1,5,80,127,1690577144
49,18,19,Jits_Linear_5,2,5,63,98,1690626376
49,18,19,Jits_Linear_5,3,5,56,103,1690657324
49,18,19,Jits_Linear_5,0,1,48,90,1691035824
49,18,19,Jits_Linear_5,1,5,56,103,1691087244
49,18,19,Jits_Linear_5,2,5,80,127,1691096472
49,18,19,Jits_Linear_5,3,5,63,98,1691167036
49,18,19,Jits_Linear_5,0,1,48,56,1691521336
49,18,19,Jits_Linear_5,1,5,56,103,1691627072
49,18,19,Jits_Linear_5,2,5,63,98,1691647236
49,18,19,Jits_Linear_5,3,5,80,127,1691706680
49,18,19,Jits_Linear_5,0,1,48,70,1692047700
49,18,19,Jits_Linear_5,1,5,80,127,1692157176
49,18,19,Jits_Linear_5,2,5,63,98,1692227036
49,18,19,Jits_Linear_5,3,5,56,103,1692247344
49,18,19,Jits_Linear_5,0,1,48,78,1692586644
49,18,19,Jits_Linear_5,1,5,80,127,1692717476
49,18,19,Jits_Linear_5,2,5,56,103,1692726628
49,18,19,Jits_Linear_5,3,5,63,98,1692737072
49,18,19,Jits_Linear_5,0,1,48,66,1693102876
49,18,19,Jits_Linear_5,1,5,80,127,1693247076
49,18,19,Jits_Linear_5,2,5,56,103,1693267312
49,18,19,Jits_Linear_5,3,5,63,98,1693337144
49,18,19,Jits_Linear_5,0,1,48,52,1693603756
49,18,19,Jits_Linear_5,1,5,56,103,1693796664
49,18,19,Jits_Linear_5,2,5,80,127,1693826564
49,18,19,Jits_Linear_5,3,5,63,98,1693847324
49,18,19,Jits_Linear_5,0,1,48,68,1694149456
49,18,19,Jits_Linear_5,1,5,63,98,1694337336
49,18,19,Jits_Linear_5,2,5,56,103,1694396908
49,18,19,Jits_Linear_5,3,5,80,127,1694426436
49,18,19,Jits_Linear_5,0,1,48,57,1694703012
49,18,19,Jits_Linear_5,1,5,63,98,1694877032
49,18,19,Jits_Linear_5,2,5,80,127,1694880320
49,18,19,Jits_Linear_5,3,5,56,103,1694967236
49,18,19,Jits_Linear_5,0,1,48,53,1695270420
49,18,19,Jits_Linear_5,1,5,56,103,1695447360
49,18,19,Jits_Linear_5,2,5,63,98,1695477260
49,18,19,Jits_Linear_5,3,5,80,127,1695517124
49,18,19,Jits_Linear_5,0,1,48,57,1695764796
49,18,19,Jits_Linear_5,1,5,63,98,1695997172
49,18,19,Jits_Linear_5,2,5,56,103,1696037188
49,18,19,Jits_Linear_5,3,5,80,127,1696056924
49,18,19,Jits_Linear_5,0,1,48,62,1696345048
49,18,19,Jits_Linear_5,1,5,63,98,1696557468
49,18,19,Jits_Linear_5,2,5,56,103,1696597212
49,18,19,Jits_Linear_5,3,5,80,127,1696606436
49,18,19,Jits_Linear_5,0,1,48,57,1696904752
49,18,19,Jits_Linear_5,1,5,80,127,1697086928
49,18,19,Jits_Linear_5,2,5,63,98,1697156388
49,18,19,Jits_Linear_5,3,5,56,103,1697176924
49,18,19,Jits_Linear_5,0,1,48,56,1697435452
49,18,19,Jits_Linear_5,1,5,56,103,1697636884
49,18,19,Jits_Linear_5,2,5,80,127,1697657124
49,18,19,Jits_Linear_5,3,5,63,98,1697697064
49,18,19,Jits_Linear_5,0,1,48,61,1698027212
49,18,19,Jits_Linear_5,1,5,63,98,1698207068
49,18,19,Jits_Linear_5,2,5,80,127,1698226484
49,18,19,Jits_Linear_5,3,5,56,103,1698266648
49,18,19,Jits_Linear_5,0,1,48,53,1698620124
49,18,19,Jits_Linear_5,1,5,63,98,1698767140
49,18,19,Jits_Linear_5,2,5,56,103,1698786852
49,18,19,Jits_Linear_5,3,5,80,127,1698796900
49,18,19,Jits_Linear_5,0,1,48,74,1699239384
49,18,19,Jits_Linear_5,1,5,80,127,1699327376
49,18,19,Jits_Linear_5,2,5,56,103,1699346924
49,18,19,Jits_Linear_5,3,5,63,98,1699376676
49,18,19,Jits_Linear_5,0,1,48,62,1699797440
49,18,19,Jits_Linear_5,1,5,56,103,1699967328
49,18,19,Jits_Linear_5,2,5,80,127,1699970468
49,18,19,Jits_Linear_5,3,5,63,98,1699986892
49,18,19,Jits_Linear_5,0,1,48,70,1700384468
49,18,19,Jits_Linear_5,1,5,63,98,1700456984
49,18,19,Jits_Linear_5,2,5,56,103,1700486500
49,18,19,Jits_Linear_5,3,5,80,127,1700546892
49,18,19,Jits_Linear_5,0,1,48,50,1701019052
49,18,19,Jits_Linear_5,1,5,63,98,1701107044
49,18,19,Jits_Linear_5,2,5,56,103,1701117228
49,18,19,Jits_Linear_5,3,5,80,127,1701126376
49,18,19,Jits_Linear_5,0,5,56,103,1701627196
49,18,19,Jits_Linear_5,1,1,48,59,1701629788
49,18,19,Jits_Linear_5,2,5,80,127,1701657088
49,18,19,Jits_Linear_5,3,5,63,98,1701667284
49,18,19,Jits_Linear_5,0,1,48,54,1702210200
49,18,19,Jits_Linear_5,1,5,63,98,1702236676
49,18,19,Jits_Linear_5,2,5,56,103,1702246948
49,18,19,Jits_Linear_5,3,5,80,127,1702267260
49,18,19,Jits_Linear_5,0,5,56,103,1702737204
49,18,19,Jits_Linear_5,1,1,48,64,1702767220
49,18,19,Jits_Linear_5,2,5,63,98,1702796764
49,18,19,Jits_Linear_5,3,5,80,127,1702800128
49,18,19,Jits_Linear_5,0,1,48,66,1703278816
49,18,19,Jits_Linear_5,1,5,80,127,1703337280
49,18,19,Jits_Linear_5,2,5,56,103,1703346804
49,18,19,Jits_Linear_5,3,5,63,98,1703417072
49,18,19,Jits_Linear_5,0,1,48,65,1703870580
49,18,19,Jits_Linear_5,1,5,80,127,1703906944
49,18,19,Jits_Linear_5,2,5,56,103,1703977216
49,18,19,Jits_Linear_5,3,5,63,98,1703986512
49,18,19,Jits_Linear_5,0,1,48,56,1704452676
49,18,19,Jits_Linear_5,1,5,63,98,1704536728
49,18,19,Jits_Linear_5,2,5,56,103,1704546832
49,18,19,Jits_Linear_5,3,5,80,127,1704567072
49,18,19,Jits_Linear_5,0,1,48,55,1705009980
49,18,19,Jits_Linear_5,1,5,80,127,1705066908
49,18,19,Jits_Linear_5,2,5,63,98,1705127212
49,18,19,Jits_Linear_5,3,5,56,103,1705167148
49,18,19,Jits_Linear_5,0,1,48,60,1705559888
49,18,19,Jits_Linear_5,1,5,56,103,1705696720
49,18,19,Jits_Linear_5,2,5,63,98,1705706988
49,18,19,Jits_Linear_5,3,5,80,127,1705746928
49,18,19,Jits_Linear_5,0,1,48,67,1706088720
49,18,19,Jits_Linear_5,1,5,56,103,1706246380
49,18,19,Jits_Linear_5,2,5,80,127,1706277324
49,18,19,Jits_Linear_5,3,5,63,98,1706327700
49,18,19,Jits_Linear_5,0,1,48,66,1706629004
49,18,19,Jits_Linear_5,1,5,56,103,1706877272
49,18,19,Jits_Linear_5,2,5,63,98,1706917212
49,18,19,Jits_Linear_5,3,5,80,127,1706920796
49,18,19,Jits_Linear_5,4,1,48,54,1707161056
49,18,19,Jits_Linear_5,0,5,56,103,1707467076
49,18,19,Jits_Linear_5,1,5,63,98,1707477424
49,18,19,Jits_Linear_5,2,5,80,127,1707496760
49,18,19,Jits_Linear_5,0,1,48,59,1707771792
49,18,19,Jits_Linear_5,1,5,56,103,1708017040
49,18,19,Jits_Linear_5,2,5,80,127,1708019960
49,18,19,Jits_Linear_5,3,5,63,98,1708056904
49,18,19,Jits_Linear_5,0,1,48,58,1708373656
49,18,19,Jits_Linear_5,1,5,63,98,1708646732
49,18,19,Jits_Linear_5,2,5,56,103,1708676632
49,18,19,Jits_Linear_5,3,5,80,127,1708697092
49,18,19,Jits_Linear_5,4,1,48,67,1708916224
49,18,19,Jits_Linear_5,0,5,80,127,1709217140
49,18,19,Jits_Linear_5,1,5,56,103,1709227484
49,18,19,Jits_Linear_5,2,5,63,98,1709236560
49,18,19,Jits_Linear_5,3,1,48,67,1709481748
49,18,19,Jits_Linear_5,0,5,56,103,1709817304
49,18,19,Jits_Linear_5,1,5,80,127,1709857244
49,18,19,Jits_Linear_5,2,5,63,98,1709886872
49,18,19,Jits_Linear_5,3,1,48,53,1710029480
49,18,19,Jits_Linear_5,0,5,63,98,1710426644
49,18,19,Jits_Linear_5,1,5,80,127,1710436692
49,18,19,Jits_Linear_5,2,5,56,103,1710446964
49,18,19,Jits_Linear_5,3,1,48,36,1710616324
49,18,19,Jits_Linear_5,0,5,56,103,1711007164
49,18,19,Jits_Linear_5,1,5,63,98,1711076776
49,18,19,Jits_Linear_5,2,5,80,127,1711086972
49,18,19,Jits_Linear_5,3,1,48,56,1711123420
49,18,19,Jits_Linear_5,0,5,80,127,1711617596
49,18,19,Jits_Linear_5,1,5,56,103,1711626524
49,18,19,Jits_Linear_5,2,1,48,62,1711658708
49,18,19,Jits_Linear_5,3,5,63,98,1711676668
49,18,19,Jits_Linear_5,0,1,48,58,1712231464
49,18,19,Jits_Linear_5,1,5,80,127,1712236888
49,18,19,Jits_Linear_5,2,5,56,103,1712297504
49,18,19,Jits_Linear_5,3,5,63,98,1712326960
49,18,19,Jits_Linear_5,0,5,56,103,1712847164
49,18,19,Jits_Linear_5,1,5,80,127,1712850380
49,18,19,Jits_Linear_5,2,1,48,62,1712872080
49,18,19,Jits_Linear_5,3,5,63,98,1712887096
49,18,19,Jits_Linear_5,0,1,48,32,1713436732
49,18,19,Jits_Linear_5,1,5,56,103,1713487124
49,18,19,Jits_Linear_5,2,5,63,98,1713516952
49,18,19,Jits_Linear_5,3,5,80,127,1713527148
49,18,19,Jits_Linear_5,0,1,48,57,1714049200
49,18,19,Jits_Linear_5,1,5,63,98,1714106696
49,18,19,Jits_Linear_5,2,5,80,127,1714116892
49,18,19,Jits_Linear_5,3,5,56,103,1714127088
49,18,19,Jits_Linear_5,0,5,80,127,1714666772
49,18,19,Jits_Linear_5,1,1,48,54,1714682100
49,18,19,Jits_Linear_5,2,5,56,103,1714717044
49,18,19,Jits_Linear_5,3,5,63,98,1714720036
49,18,19,Jits_Linear_5,0,1,48,49,1715278088
49,18,19,Jits_Linear_5,1,5,56,103,1715317072
49,18,19,Jits_Linear_5,2,5,80,127,1715336636
49,18,19,Jits_Linear_5,3,5,63,98,1715346832
49,18,19,Jits_Linear_5,0,1,48,59,1715866856
49,18,19,Jits_Linear_5,1,5,63,98,1715917300
49,18,19,Jits_Linear_5,2,5,56,103,1715946904
49,18,19,Jits_Linear_5,3,5,80,127,1715967424
49,18,19,Jits_Linear_5,0,1,48,53,1716446176
49,18,19,Jits_Linear_5,1,5,56,103,1716546908
49,18,19,Jits_Linear_5,2,5,80,127,1716557328
49,18,19,Jits_Linear_5,3,5,63,98,1716626936
49,18,19,Jits_Linear_5,0,1,48,50,1717149372
49,18,19,Jits_Linear_5,1,5,63,98,1717157344
49,18,19,Jits_Linear_5,2,5,80,127,1717197284
49,18,19,Jits_Linear_5,3,5,56,103,1717237000
49,18,19,Jits_Linear_5,0,1,48,54,1717766544
49,18,19,Jits_Linear_5,1,5,56,103,1717797356
49,18,19,Jits_Linear_5,2,5,63,98,1717806580
49,18,19,Jits_Linear_5,3,5,80,127,1717827140
49,18,19,Jits_Linear_5,0,1,48,46,1718340188
49,18,19,Jits_Linear_5,1,5,63,98,1718466976
49,18,19,Jits_Linear_5,2,5,80,127,1718487436
49,18,19,Jits_Linear_5,3,5,56,103,1718506852
49,18,19,Jits_Linear_5,0,1,48,63,1718974352
49,18,19,Jits_Linear_5,1,5,56,103,1719037480
49,18,19,Jits_Linear_5,2,5,80,127,1719117216
49,18,19,Jits_Linear_5,3,5,63,98,1719127560
49,18,19,Jits_Linear_5,0,1,48,69,1719539456
49,18,19,Jits_Linear_5,1,5,80,127,1719707104
49,18,19,Jits_Linear_5,2,5,63,98,1719717228
49,18,19,Jits_Linear_5,3,5,56,103,1719747124
49,18,19,Jits_Linear_5,0,1,48,69,1720167520
49,18,19,Jits_Linear_5,1,5,63,98,1720296772
49,18,19,Jits_Linear_5,2,5,80,127,1720336716
49,18,19,Jits_Linear_5,3,5,56,103,1720397428
49,18,19,Jits_Linear_5,0,1,48,58,1720780032
49,18,19,Jits_Linear_5,1,5,63,98,1720936740
49,18,19,Jits_Linear_5,2,5,56,103,1720986944
49,18,19,Jits_Linear_5,3,5,80,127,1721016696
49,18,19,Jits_Linear_5,0,1,48,61,1721386036
49,18,19,Jits_Linear_5,1,5,80,127,1721586944
49,18,19,Jits_Linear_5,2,5,63,98,1721597440
49,18,19,Jits_Linear_5,3,5,56,103,1721666924
49,18,19,Jits_Linear_5,0,1,48,68,1721997292
49,18,19,Jits_Linear_5,1,5,80,127,1722296588
49,18,19,Jits_Linear_5,2,5,56,103,1722306856
49,18,19,Jits_Linear_5,3,5,63,98,1722309996
49,18,19,Jits_Linear_5,0,1,48,66,1722628240
49,18,19,Jits_Linear_5,1,5,56,103,1722877324
49,18,19,Jits_Linear_5,2,5,80,127,1722896740
49,18,19,Jits_Linear_5,3,5,63,98,1722906860
49,18,19,Jits_Linear_5,0,1,48,60,1723261224
49,18,19,Jits_Linear_5,1,5,63,98,1723526504
49,18,19,Jits_Linear_5,2,5,56,103,1723566444
49,18,19,Jits_Linear_5,3,5,80,127,1723586832
49,18,19,Jits_Linear_5,0,1,48,49,1723925756
49,18,19,Jits_Linear_5,1,5,63,98,1724176712
49,18,19,Jits_Linear_5,2,5,56,103,1724237504
49,18,19,Jits_Linear_5,3,5,80,127,1724240420
49,18,19,Jits_Linear_5,0,1,48,60,1724562324
49,18,19,Jits_Linear_5,1,5,56,103,1724787148
49,18,19,Jits_Linear_5,2,5,80,127,1724806484
49,18,19,Jits_Linear_5,3,5,63,98,1724846424
49,18,19,Jits_Linear_5,4,1,48,51,1725147432
49,18,19,Jits_Linear_5,0,5,56,103,1725467160
49,18,19,Jits_Linear_5,1,5,63,98,1725486424
49,18,19,Jits_Linear_5,2,5,80,127,1725496572
49,18,19,Jits_Linear_5,3,1,48,58,1725782512
49,18,19,Jits_Linear_5,0,5,80,127,1726086384
49,18,19,Jits_Linear_5,1,5,56,103,1726117480
49,18,19,Jits_Linear_5,2,5,63,98,1726157420
49,18,19,Jits_Linear_5,3,1,48,57,1726432580
49,18,19,Jits_Linear_5,0,5,80,127,1726747236
49,18,19,Jits_Linear_5,1,5,56,103,1726766428
49,18,19,Jits_Linear_5,2,5,63,98,1726826768
49,18,19,Jits_Linear_5,3,1,48,46,1727068296
49,18,19,Jits_Linear_5,0,5,56,103,1727406324
49,18,19,Jits_Linear_5,1,5,80,127,1727426784
49,18,19,Jits_Linear_5,2,5,63,98,1727487396
49,18,19,Jits_Linear_5,3,1,48,55,1727715144
49,18,19,Jits_Linear_5,0,5,80,127,1728046352
49,18,19,Jits_Linear_5,1,5,56,103,1728056644
49,18,19,Jits_Linear_5,2,5,63,98,1728096512
49,18,19,Jits_Linear_5,3,1,48,54,1728318184
49,18,19,Jits_Linear_5,0,5,63,98,1728707076
49,18,19,Jits_Linear_5,1,5,56,103,1728747012
49,18,19,Jits_Linear_5,2,5,80,127,1728750156
49,18,19,Jits_Linear_5,3,1,48,55,1728978648
49,18,19,Jits_Linear_5,0,5,63,98,1729387084
49,18,19,Jits_Linear_5,1,5,80,127,1729426948
49,18,19,Jits_Linear_5,2,5,56,103,1729456624
49,18,19,Jits_Linear_5,3,1,48,64,1729644128
49,18,19,Jits_Linear_5,0,5,56,103,1730037136
49,18,19,Jits_Linear_5,1,5,63,98,1730047260
49,18,19,Jits_Linear_5,2,5,80,127,1730077160
49,18,19,Jits_Linear_5,3,1,48,60,1730168780
49,18,19,Jits_Linear_5,0,5,80,127,1730696524
49,18,19,Jits_Linear_5,1,1,48,59,1730701588
49,18,19,Jits_Linear_5,2,5,63,98,1730767100
49,18,19,Jits_Linear_5,3,5,56,103,1730776396
49,18,19,Jits_Linear_5,0,5,63,98,1731367264
49,18,19,Jits_Linear_5,1,1,48,61,1731433112
49,18,19,Jits_Linear_5,2,5,56,103,1731437268
49,18,19,Jits_Linear_5,3,5,80,127,1731447316
49,18,19,Jits_Linear_5,0,5,63,98,1732037196
49,18,19,Jits_Linear_5,1,5,56,103,1732056388
49,18,19,Jits_Linear_5,2,1,48,48,1732081680
49,18,19,Jits_Linear_5,3,5,80,127,1732097440
49,18,19,Jits_Linear_5,0,1,48,64,1732663700
49,18,19,Jits_Linear_5,1,5,56,103,1732717084
49,18,19,Jits_Linear_5,2,5,63,98,1732727132
49,18,19,Jits_Linear_5,3,5,80,127,1732807060
49,18,19,Jits_Linear_5,0,1,48,66,1733307020
49,18,19,Jits_Linear_5,1,5,63,98,1733377472
49,18,19,Jits_Linear_5,2,5,56,103,1733408184
49,18,19,Jits_Linear_5,3,5,80,127,1733447172
49,18,19,Jits_Linear_5,0,1,48,61,1733911132
49,18,19,Jits_Linear_5,1,5,56,103,1734047088
49,18,19,Jits_Linear_5,2,5,63,98,1734087032
49,18,19,Jits_Linear_5,3,5,80,127,1734126896
49,18,19,Jits_Linear_5,0,1,48,48,1734650000
49,18,19,Jits_Linear_5,1,5,80,127,1734727000
49,18,19,Jits_Linear_5,2,5,56,103,1734807008
49,18,19,Jits_Linear_5,3,5,63,98,1734817132
49,18,19,Jits_Linear_5,0,1,48,38,1735367212
49,18,19,Jits_Linear_5,1,5,56,103,1735447032
49,18,19,Jits_Linear_5,2,5,63,98,1735450024
49,18,19,Jits_Linear_5,3,5,80,127,1735457004
49,18,19,Jits_Linear_5,0,1,48,42,1736083128
49,18,19,Jits_Linear_5,1,5,56,103,1736147300
49,18,19,Jits_Linear_5,2,5,63,98,1736167012
49,18,19,Jits_Linear_5,3,5,80,127,1736177192
49,18,19,Jits_Linear_5,0,5,63,98,1736787344
49,18,19,Jits_Linear_5,1,1,48,60,1736796720
49,18,19,Jits_Linear_5,2,5,80,127,1736798284
49,18,19,Jits_Linear_5,3,5,56,103,1736817172
49,18,19,Jits_Linear_5,0,1,48,48,1737450392
49,18,19,Jits_Linear_5,1,5,63,98,1737476352
49,18,19,Jits_Linear_5,2,5,56,103,1737557276
49,18,19,Jits_Linear_5,3,5,80,127,1737560572
49,18,19,Jits_Linear_5,0,1,48,49,1738116212
49,18,19,Jits_Linear_5,1,5,63,98,1738166580
49,18,19,Jits_Linear_5,2,5,56,103,1738187264
49,18,19,Jits_Linear_5,3,5,80,127,1738216924
49,18,19,Jits_Linear_5,0,1,48,48,1738810180
49,18,19,Jits_Linear_5,1,5,56,103,1738856888
49,18,19,Jits_Linear_5,2,5,63,98,1738877200
49,18,19,Jits_Linear_5,3,5,80,127,1738886724
49,18,19,Jits_Linear_5,0,1,48,56,1739448696
49,18,19,Jits_Linear_5,1,5,56,103,1739576780
49,18,19,Jits_Linear_5,2,5,63,98,1739607428
49,18,19,Jits_Linear_5,3,5,80,127,1739610792
49,18,19,Jits_Linear_5,0,1,48,58,1740133072
49,18,19,Jits_Linear_5,1,5,56,103,1740216872
49,18,19,Jits_Linear_5,2,5,63,98,1740257024
49,18,19,Jits_Linear_5,3,5,80,127,1740316968
49,18,19,Jits_Linear_5,0,1,48,53,1740812944
49,18,19,Jits_Linear_5,1,5,56,103,1740927400
49,18,19,Jits_Linear_5,2,5,63,98,1740936848
49,18,19,Jits_Linear_5,3,5,80,127,1740997012
49,18,19,Jits_Linear_5,0,1,48,44,1741519660
49,18,19,Jits_Linear_5,1,5,56,103,1741626920
49,18,19,Jits_Linear_5,2,5,80,127,1741647156
49,18,19,Jits_Linear_5,3,5,63,98,1741676908
49,18,19,Jits_Linear_5,0,1,48,45,1742152348
49,18,19,Jits_Linear_5,1,5,80,127,1742327020
49,18,19,Jits_Linear_5,2,5,56,103,1742337588
49,18,19,Jits_Linear_5,3,5,63,98,1742356928
49,18,19,Jits_Linear_5,0,1,48,41,1742891556
49,18,19,Jits_Linear_5,1,5,63,98,1743017248
49,18,19,Jits_Linear_5,2,5,80,127,1743097124
49,18,19,Jits_Linear_5,3,5,56,103,1743106496
49,18,19,Jits_Linear_5,0,1,48,39,1743601416
49,18,19,Jits_Linear_5,1,5,80,127,1743777084
49,18,19,Jits_Linear_5,2,5,56,103,1743796868
49,18,19,Jits_Linear_5,3,5,63,98,1743799936
49,18,19,Jits_Linear_5,0,1,48,41,1744350912
49,18,19,Jits_Linear_5,1,5,63,98,1744457048
49,18,19,Jits_Linear_5,2,5,80,127,1744460412
49,18,19,Jits_Linear_5,3,5,56,103,1744516468
49,18,19,Jits_Linear_5,0,1,48,43,1745068048
49,18,19,Jits_Linear_5,1,5,56,103,1745147192
49,18,19,Jits_Linear_5,2,5,80,127,1745156344
49,18,19,Jits_Linear_5,3,5,63,98,1745197464
49,18,19,Jits_Linear_5,0,1,48,43,1745801284
49,18,19,Jits_Linear_5,1,5,56,103,1745837720
49,18,19,Jits_Linear_5,2,5,63,98,1745896756
49,18,19,Jits_Linear_5,3,5,80,127,1745906952
49,18,19,Jits_Linear_5,0,1,48,34,1746544624
49,18,19,Jits_Linear_5,1,5,63,98,1746557180
49,18,19,Jits_Linear_5,2,5,80,127,1746597268
49,18,19,Jits_Linear_5,3,5,56,103,1746637416
49,18,19,Jits_Linear_5,0,1,48,37,1747246544
49,18,19,Jits_Linear_5,1,5,56,103,1747266968
49,18,19,Jits_Linear_5,2,5,63,98,1747346900
49,18,19,Jits_Linear_5,3,5,80,127,1747350192
49,18,19,Jits_Linear_5,0,1,48,41,1747989736
49,18,19,Jits_Linear_5,1,5,80,127,1748036992
49,18,19,Jits_Linear_5,2,5,56,103,1748066744
49,18,19,Jits_Linear_5,3,5,63,98,1748069736
49,18,19,Jits_Linear_5,0,5,56,103,1748716864
49,18,19,Jits_Linear_5,1,5,80,127,1748737324
49,18,19,Jits_Linear_5,2,1,48,44,1748739992
49,18,19,Jits_Linear_5,3,5,63,98,1748777260
49,18,19,Jits_Linear_5,0,1,48,53,1749390140
49,18,19,Jits_Linear_5,1,5,80,127,1749417220
49,18,19,Jits_Linear_5,2,5,63,98,1749436784
49,18,19,Jits_Linear_5,3,5,56,103,1749497236
49,18,19,Jits_Linear_5,0,1,48,40,1750101280
49,18,19,Jits_Linear_5,1,5,63,98,1750146344
49,18,19,Jits_Linear_5,2,5,56,103,1750156540
49,18,19,Jits_Linear_5,3,5,80,127,1750206876
49,18,19,Jits_Linear_5,0,1,48,50,1750765652
49,18,19,Jits_Linear_5,1,5,56,103,1750857028
49,18,19,Jits_Linear_5,2,5,63,98,1750876724
49,18,19,Jits_Linear_5,3,5,80,127,1750886624
49,18,19,Jits_Linear_5,0,1,48,53,1751455652
49,18,19,Jits_Linear_5,1,5,56,103,1751577036
49,18,19,Jits_Linear_5,2,5,63,98,1751579956
49,18,19,Jits_Linear_5,3,5,80,127,1751597572
49,18,19,Jits_Linear_5,0,1,48,44,1752184292
49,18,19,Jits_Linear_5,1,5,63,98,1752346904
49,18,19,Jits_Linear_5,2,5,56,103,1752376680
49,18,19,Jits_Linear_5,3,5,80,127,1752407700
49,18,19,Jits_Linear_5,0,1,48,49,1752932000
49,18,19,Jits_Linear_5,1,5,80,127,1753037068
49,18,19,Jits_Linear_5,2,5,56,103,1753127352
49,18,19,Jits_Linear_5,3,5,63,98,1753130644
49,18,19,Jits_Linear_5,0,1,48,45,1753638468
49,18,19,Jits_Linear_5,1,5,56,103,1753767300
49,18,19,Jits_Linear_5,2,5,80,127,1753770516
49,18,19,Jits_Linear_5,3,5,63,98,1753847172
49,18,19,Jits_Linear_5,0,1,48,37,1754371840
49,18,19,Jits_Linear_5,1,5,80,127,1754497384
49,18,19,Jits_Linear_5,2,5,63,98,1754556728
49,18,19,Jits_Linear_5,3,5,56,103,1754586556
49,18,19,Jits_Linear_5,0,1,48,33,1755099092
49,18,19,Jits_Linear_5,1,5,63,98,1755226432
49,18,19,Jits_Linear_5,2,5,80,127,1755236628
49,18,19,Jits_Linear_5,3,5,56,103,1755307504
49,18,19,Jits_Linear_5,0,1,48,40,1755829928
49,18,19,Jits_Linear_5,1,5,56,103,1755977048
49,18,19,Jits_Linear_5,2,5,80,127,1756006876
49,18,19,Jits_Linear_5,3,5,63,98,1756056928
49,18,19,Jits_Linear_5,0,1,48,38,1756590296
49,18,19,Jits_Linear_5,1,5,63,98,1756757640
49,18,19,Jits_Linear_5,2,5,56,103,1756787092
49,18,19,Jits_Linear_5,3,5,80,127,1756790304
49,18,19,Jits_Linear_5,0,5,63,98,1757496668
49,18,19,Jits_Linear_5,1,5,80,127,1757517276
49,18,19,Jits_Linear_5,2,5,56,103,1757527548
49,18,19,Jits_Linear_5,0,1,48,43,1757904740
49,18,19,Jits_Linear_5,1,5,56,103,1758247496
49,18,19,Jits_Linear_5,2,5,63,98,1758250416
49,18,19,Jits_Linear_5,3,5,80,127,1758266860
49,18,19,Jits_Linear_5,4,1,48,53,1758570484
49,18,19,Jits_Linear_5,0,5,56,103,1758946568
49,18,19,Jits_Linear_5,1,5,63,98,1758956836
49,18,19,Jits_Linear_5,2,5,80,127,1758986588
49,18,19,Jits_Linear_5,3,1,48,44,1759275836
49,18,19,Jits_Linear_5,0,5,63,98,1759716828
49,18,19,Jits_Linear_5,1,5,80,127,1759737140
49,18,19,Jits_Linear_5,2,5,56,103,1759777228
49,18,19,Jits_Linear_5,3,1,48,42,1759959272
49,18,19,Jits_Linear_5,0,5,56,103,1760496972
49,18,19,Jits_Linear_5,1,5,63,98,1760536832
49,18,19,Jits_Linear_5,2,5,80,127,1760540276
49,18,19,Jits_Linear_5,3,1,48,43,1760762696
49,18,19,Jits_Linear_5,0,5,80,127,1761187344
49,18,19,Jits_Linear_5,1,5,56,103,1761227360
49,18,19,Jits_Linear_5,2,5,63,98,1761277416
49,18,19,Jits_Linear_5,3,1,48,45,1761491292
49,18,19,Jits_Linear_5,0,5,56,103,1761997100
49,18,19,Jits_Linear_5,1,5,80,127,1762007372
49,18,19,Jits_Linear_5,2,5,63,98,1762037124
49,18,19,Jits_Linear_5,3,1,48,49,1762146876
49,18,19,Jits_Linear_5,0,5,56,103,1762696496
49,18,19,Jits_Linear_5,1,5,80,127,1762736436
49,18,19,Jits_Linear_5,2,5,63,98,1762786788
49,18,19,Jits_Linear_5,3,1,48,36,1762885680
49,18,19,Jits_Linear_5,0,5,56,103,1763466752
49,18,19,Jits_Linear_5,1,5,80,127,1763506616
49,18,19,Jits_Linear_5,2,5,63,98,1763556672
49,18,19,Jits_Linear_5,3,1,48,43,1763605048
49,18,19,Jits_Linear_5,0,5,80,127,1764217304
49,18,19,Jits_Linear_5,1,5,63,98,1764297104
49,18,19,Jits_Linear_5,2,5,56,103,1764307300
49,18,19,Jits_Linear_5,3,1,48,43,1764310644
49,18,19,Jits_Linear_5,0,5,80,127,1765027356
49,18,19,Jits_Linear_5,1,5,56,103,1765037480
49,18,19,Jits_Linear_5,2,1,48,51,1765038444
49,18,19,Jits_Linear_5,3,5,63,98,1765056960
49,18,19,Jits_Linear_5,0,1,48,52,1765725596
49,18,19,Jits_Linear_5,1,5,63,98,1765757236
49,18,19,Jits_Linear_5,2,5,56,103,1765827052
49,18,19,Jits_Linear_5,3,5,80,127,1765830192
49,18,19,Jits_Linear_5,0,1,48,45,1766507604
49,18,19,Jits_Linear_5,1,5,80,127,1766517216
49,18,19,Jits_Linear_5,2,5,63,98,1766567272
49,18,19,Jits_Linear_5,3,5,56,103,1766607344
49,18,19,Jits_Linear_5,0,1,48,42,1767229368
49,18,19,Jits_Linear_5,1,5,63,98,1767327236
49,18,19,Jits_Linear_5,2,5,56,103,1767367104
49,18,19,Jits_Linear_5,3,5,80,127,1767377152
49,18,19,Jits_Linear_5,0,1,48,51,1767994376
49,18,19,Jits_Linear_5,1,5,63,98,1768087168
49,18,19,Jits_Linear_5,2,5,56,103,1768107316
49,18,19,Jits_Linear_5,3,5,80,127,1768126952
49,18,19,Jits_Linear_5,0,1,48,51,1768742432
49,18,19,Jits_Linear_5,1,5,80,127,1768817188
49,18,19,Jits_Linear_5,2,5,56,103,1768827236
49,18,19,Jits_Linear_5,3,5,63,98,1768846636
49,18,19,Jits_Linear_5,0,1,48,52,1769526572
49,18,19,Jits_Linear_5,1,5,63,98,1769617912
49,18,19,Jits_Linear_5,2,5,56,103,1769656804
49,18,19,Jits_Linear_5,3,5,80,127,1769687380
49,18,19,Jits_Linear_5,0,1,48,45,1770300936
49,18,19,Jits_Linear_5,1,5,56,103,1770397244
49,18,19,Jits_Linear_5,2,5,63,98,1770426760
49,18,19,Jits_Linear_5,3,5,80,127,1770456288
49,18,19,Jits_Linear_5,0,5,80,127,1771156788
49,18,19,Jits_Linear_5,1,1,48,45,1771167104
49,18,19,Jits_Linear_5,2,5,56,103,1771226464
49,18,19,Jits_Linear_5,3,5,63,98,1771229384
49,18,19,Jits_Linear_5,0,1,48,51,1771898236
49,18,19,Jits_Linear_5,1,5,56,103,1771947264
49,18,19,Jits_Linear_5,2,5,63,98,1771996556
49,18,19,Jits_Linear_5,3,5,80,127,1772027128
49,18,19,Jits_Linear_5,0,1,48,45,1772693056
49,18,19,Jits_Linear_5,1,5,63,98,1772707248
49,18,19,Jits_Linear_5,2,5,80,127,1772710540
49,18,19,Jits_Linear_5,3,5,56,103,1772766520
49,18,19,Jits_Linear_5,0,1,48,45,1773455888
49,18,19,Jits_Linear_5,1,5,56,103,1773517196
49,18,19,Jits_Linear_5,2,5,80,127,1773527468
49,18,19,Jits_Linear_5,3,5,63,98,1773576684
49,18,19,Jits_Linear_5,0,1,48,54,1774184012
49,18,19,Jits_Linear_5,1,5,63,98,1774278064
49,18,19,Jits_Linear_5,2,5,56,103,1774287140
49,18,19,Jits_Linear_5,3,5,80,127,1774317112
49,18,19,Jits_Linear_5,0,1,48,39,1774930808
49,18,19,Jits_Linear_5,1,5,63,98,1775097160
49,18,19,Jits_Linear_5,2,5,80,127,1775100672
49,18,19,Jits_Linear_5,3,5,56,103,1775127132
49,18,19,Jits_Linear_5,0,1,48,38,1775712360
49,18,19,Jits_Linear_5,1,5,63,98,1775907184
49,18,19,Jits_Linear_5,2,5,56,103,1775926620
49,18,19,Jits_Linear_5,3,5,80,127,1775929688
49,18,19,Jits_Linear_5,0,1,48,38,1776509876
49,18,19,Jits_Linear_5,1,5,63,98,1776657048
49,18,19,Jits_Linear_5,2,5,56,103,1776727508
49,18,19,Jits_Linear_5,3,5,80,127,1776746920
49,18,19,Jits_Linear_5,0,1,48,43,1777266728
49,18,19,Jits_Linear_5,1,5,56,103,1777436964
49,18,19,Jits_Linear_5,2,5,63,98,1777447388
49,18,19,Jits_Linear_5,3,5,80,127,1777537248
49,18,19,Jits_Linear_5,0,1,48,40,1778007600
49,18,19,Jits_Linear_5,1,5,56,103,1778246952
49,18,19,Jits_Linear_5,2,5,80,127,1778286892
49,18,19,Jits_Linear_5,3,5,63,98,1778297164
49,18,19,Jits_Linear_5,0,1,48,47,1778777552
49,18,19,Jits_Linear_5,1,5,56,103,1779067176
49,18,19,Jits_Linear_5,2,5,63,98,1779096928
49,18,19,Jits_Linear_5,3,5,80,127,1779126604
49,18,19,Jits_Linear_5,0,1,48,39,1779586992
49,18,19,Jits_Linear_5,1,5,80,127,1779827088
49,18,19,Jits_Linear_5,2,5,63,98,1779866956
49,18,19,Jits_Linear_5,3,5,56,103,1779886444
49,18,19,Jits_Linear_5,0,1,48,42,1780285036
49,18,19,Jits_Linear_5,1,5,56,103,1780666928
49,18,19,Jits_Linear_5,2,5,80,127,1780687168
49,18,19,Jits_Linear_5,3,5,63,98,1780707028
49,18,19,Jits_Linear_5,0,1,48,36,1781085684
49,18,19,Jits_Linear_5,1,5,63,98,1781436716
49,18,19,Jits_Linear_5,2,5,56,103,1781446988
49,18,19,Jits_Linear_5,3,5,80,127,1781506480
49,18,19,Jits_Linear_5,4,1,48,50,1781804200
49,18,19,Jits_Linear_5,0,5,56,103,1782246744
49,18,19,Jits_Linear_5,1,5,63,98,1782317476
49,18,19,Jits_Linear_5,2,5,80,127,1782336988
49,18,19,Jits_Linear_5,3,1,48,38,1782607356
49,18,19,Jits_Linear_5,0,5,56,103,1783056792
49,18,19,Jits_Linear_5,1,5,63,98,1783086620
49,18,19,Jits_Linear_5,2,5,80,127,1783127484
49,18,19,Jits_Linear_5,3,1,48,35,1783411628
49,18,19,Jits_Linear_5,0,5,63,98,1783856648
49,18,19,Jits_Linear_5,1,5,56,103,1783906880
49,18,19,Jits_Linear_5,2,5,80,127,1783916924
49,18,19,Jits_Linear_5,3,1,48,27,1784163984
49,18,19,Jits_Linear_5,0,5,56,103,1784706416
49,18,19,Jits_Linear_5,1,5,63,98,1784756624
49,18,19,Jits_Linear_5,2,5,80,127,1784766744
49,18,19,Jits_Linear_5,3,1,48,44,1785037780
49,18,19,Jits_Linear_5,0,5,56,103,1785486944
49,18,19,Jits_Linear_5,1,5,63,98,1785497068
49,18,19,Jits_Linear_5,2,5,80,127,1785576864
49,18,19,Jits_Linear_5,3,1,48,46,1785850748
49,18,19,Jits_Linear_5,0,9999,9999,9999,1676715124
49,18,19,Jits_Linear_5,1,9999,9999,9999,1677204572
49,18,19,Jits_Linear_5,2,9999,9999,9999,1677684816
49,18,19,Jits_Linear_5,3,9999,9999,9999,1678165104
49,18,19,Jits_Linear_5,4,9999,9999,9999,1678644320
49,18,19,Jits_Linear_5,5,9999,9999,9999,1679134788
49,18,19,Jits_Linear_5,6,9999,9999,9999,1679624312
49,18,19,Jits_Linear_5,7,9999,9999,9999,1680114808
49,18,19,Jits_Linear_5,8,9999,9999,9999,1680604244
49,18,19,Jits_Linear_5,9,9999,9999,9999,1681094740
49,18,19,Jits_Linear_5,10,9999,9999,9999,1681594468
49,18,19,Jits_Linear_5,11,9999,9999,9999,1682094140
49,18,19,Jits_Linear_5,12,9999,9999,9999,1682594936
49,18,19,Jits_Linear_5,13,9999,9999,9999,1683094620
49,18,19,Jits_Linear_5,14,9999,9999,9999,1683594368
49,18,19,Jits_Linear_5,15,9999,9999,9999,1684104248
49,18,19,Jits_Linear_5,16,9999,9999,9999,1684614272
49,18,19,Jits_Linear_5,17,9999,9999,9999,1685124220
49,18,19,Jits_Linear_5,18,9999,9999,9999,1685634168
49,18,19,Jits_Linear_5,19,9999,9999,9999,1686144120
49,18,19,Jits_Linear_5,20,9999,9999,9999,1686664260
49,18,19,Jits_Linear_5,21,9999,9999,9999,1687184488
49,18,19,Jits_Linear_5,22,9999,9999,9999,1687704640
49,18,19,Jits_Linear_5,23,9999,9999,9999,1688224868
49,18,19,Jits_Linear_5,24,9999,9999,9999,1688745024
49,18,19,Jits_Linear_5,25,9999,9999,9999,1689274444
49,18,19,Jits_Linear_5,26,9999,9999,9999,1689804928
49,18,19,Jits_Linear_5,27,9999,9999,9999,1690334336
49,18,19,Jits_Linear_5,28,9999,9999,9999,1690864740
49,18,19,Jits_Linear_5,29,9999,9999,9999,1691394168
49,18,19,Jits_Linear_5,30,9999,9999,9999,1691934836
49,18,19,Jits_Linear_5,31,9999,9999,9999,1692474480
49,18,19,Jits_Linear_5,32,9999,9999,9999,1693014100
49,18,19,Jits_Linear_5,33,9999,9999,9999,1693554764
49,18,19,Jits_Linear_5,34,9999,9999,9999,1694094464
49,18,19,Jits_Linear_5,35,9999,9999,9999,1694644280
49,18,19,Jits_Linear_5,36,9999,9999,9999,1695194228
49,18,19,Jits_Linear_5,37,9999,9999,9999,1695744112
49,18,19,Jits_Linear_5,38,9999,9999,9999,1696294972
49,18,19,Jits_Linear_5,39,9999,9999,9999,1696844880
49,18,19,Jits_Linear_5,40,9999,9999,9999,1697405028
49,18,19,Jits_Linear_5,41,9999,9999,9999,1697964128
49,18,19,Jits_Linear_5,42,9999,9999,9999,1698524272
49,18,19,Jits_Linear_5,43,9999,9999,9999,1699084416
49,18,19,Jits_Linear_5,44,9999,9999,9999,1699644512
49,18,19,Jits_Linear_5,45,9999,9999,9999,1700214848
49,18,19,Jits_Linear_5,46,9999,9999,9999,1700784216
49,18,19,Jits_Linear_5,47,9999,9999,9999,1701354556
49,18,19,Jits_Linear_5,48,9999,9999,9999,1701924968
49,18,19,Jits_Linear_5,49,9999,9999,9999,1702494308
49,18,19,Jits_Linear_5,50,9999,9999,9999,1703074900
49,18,19,Jits_Linear_5,51,9999,9999,9999,1703654468
49,18,19,Jits_Linear_5,52,9999,9999,9999,1704235072
49,18,19,Jits_Linear_5,53,9999,9999,9999,1704824920
49,18,19,Jits_Linear_5,54,9999,9999,9999,1705404472
49,18,19,Jits_Linear_5,55,9999,9999,9999,1705994364
49,18,19,Jits_Linear_5,56,9999,9999,9999,1706584132
49,18,19,Jits_Linear_5,57,9999,9999,9999,1707174980
49,18,19,Jits_Linear_5,58,9999,9999,9999,1707764800
49,18,19,Jits_Linear_5,59,9999,9999,9999,1708354636
49,18,19,Jits_Linear_5,60,9999,9999,9999,1708954712
49,18,19,Jits_Linear_5,61,9999,9999,9999,1709554784
49,18,19,Jits_Linear_5,62,9999,9999,9999,1710154816
49,18,19,Jits_Linear_5,63,9999,9999,9999,1710754908
49,18,19,Jits_Linear_5,64,9999,9999,9999,1711354984
49,18,19,Jits_Linear_5,65,9999,9999,9999,1711964244
49,18,19,Jits_Linear_5,66,9999,9999,9999,1712574528
49,18,19,Jits_Linear_5,67,9999,9999,9999,1713184860
49,18,19,Jits_Linear_5,68,9999,9999,9999,1713794128
49,18,19,Jits_Linear_5,69,9999,9999,9999,1714404472
49,18,19,Jits_Linear_5,70,9999,9999,9999,1715025020
49,18,19,Jits_Linear_5,71,9999,9999,9999,1715644524
49,18,19,Jits_Linear_5,72,9999,9999,9999,1716265052
49,18,19,Jits_Linear_5,73,9999,9999,9999,1716884564
49,18,19,Jits_Linear_5,74,9999,9999,9999,1717504124
49,18,19,Jits_Linear_5,75,9999,9999,9999,1718134872
49,18,19,Jits_Linear_5,76,9999,9999,9999,1718764624
49,18,19,Jits_Linear_5,77,9999,9999,9999,1719394404
49,18,19,Jits_Linear_5,78,9999,9999,9999,1720024156
49,18,19,Jits_Linear_5,79,9999,9999,9999,1720654908
49,18,19,Jits_Linear_5,80,9999,9999,9999,1721294920
49,18,19,Jits_Linear_5,81,9999,9999,9999,1721934960
49,18,19,Jits_Linear_5,82,9999,9999,9999,1722574968
49,18,19,Jits_Linear_5,83,9999,9999,9999,1723214928
49,18,19,Jits_Linear_5,84,9999,9999,9999,1723854940
49,18,19,Jits_Linear_5,85,9999,9999,9999,1724504192
49,18,19,Jits_Linear_5,86,9999,9999,9999,1725154384
49,18,19,Jits_Linear_5,87,9999,9999,9999,1725804604
49,18,19,Jits_Linear_5,88,9999,9999,9999,1726454896
49,18,19,Jits_Linear_5,89,9999,9999,9999,1727104092
49,18,19,Jits_Linear_5,90,9999,9999,9999,1727764572
49,18,19,Jits_Linear_5,91,9999,9999,9999,1728425056
49,18,19,Jits_Linear_5,92,9999,9999,9999,1729084480
49,18,19,Jits_Linear_5,93,9999,9999,9999,1729745020
49,18,19,Jits_Linear_5,94,9999,9999,9999,1730404460
49,18,19,Jits_Linear_5,95,9999,9999,9999,1731074160
49,18,19,Jits_Linear_5,96,9999,9999,9999,1731744856
49,18,19,Jits_Linear_5,97,9999,9999,9999,1732414556
49,18,19,Jits_Linear_5,98,9999,9999,9999,1733084240
49,18,19,Jits_Linear_5,99,9999,9999,9999,1733754992
49,18,19,Jits_Linear_5,100,9999,9999,9999,1734434936
49,18,19,Jits_Linear_5,101,9999,9999,9999,1735114836
49,18,19,Jits_Linear_5,102,9999,9999,9999,1735794796
49,18,19,Jits_Linear_5,103,9999,9999,9999,1736474748
49,18,19,Jits_Linear_5,104,9999,9999,9999,1737154640
49,18,19,Jits_Linear_5,105,9999,9999,9999,1737844796
49,18,19,Jits_Linear_5,106,9999,9999,9999,1738535004
49,18,19,Jits_Linear_5,107,9999,9999,9999,1739224120
49,18,19,Jits_Linear_5,108,9999,9999,9999,1739914348
49,18,19,Jits_Linear_5,109,9999,9999,9999,1740604508
49,18,19,Jits_Linear_5,110,9999,9999,9999,1741304908
49,18,19,Jits_Linear_5,111,9999,9999,9999,1742004352
49,18,19,Jits_Linear_5,112,9999,9999,9999,1742704700
49,18,19,Jits_Linear_5,113,9999,9999,9999,1743404128
49,18,19,Jits_Linear_5,114,9999,9999,9999,1744104540
49,18,19,Jits_Linear_5,115,9999,9999,9999,1744814172
49,18,19,Jits_Linear_5,116,9999,9999,9999,1745524860
49,18,19,Jits_Linear_5,117,9999,9999,9999,1746234424
49,18,19,Jits_Linear_5,118,9999,9999,9999,1746944112
49,18,19,Jits_Linear_5,119,9999,9999,9999,1747654720
49,18,19,Jits_Linear_5,120,9999,9999,9999,1748374620
49,18,19,Jits_Linear_5,121,9999,9999,9999,1749094524
49,18,19,Jits_Linear_5,122,9999,9999,9999,1749814368
49,18,19,Jits_Linear_5,123,9999,9999,9999,1750534248
49,18,19,Jits_Linear_5,124,9999,9999,9999,1751254076
49,18,19,Jits_Linear_5,125,9999,9999,9999,1751984228
49,18,19,Jits_Linear_5,126,9999,9999,9999,1752714324
49,18,19,Jits_Linear_5,127,9999,9999,9999,1753444412
49,18,19,Jits_Linear_5,128,9999,9999,9999,1754174568
49,18,19,Jits_Linear_5,129,9999,9999,9999,1754904636
49,18,19,Jits_Linear_5,130,9999,9999,9999,1755644992
49,18,19,Jits_Linear_5,131,9999,9999,9999,1756384372
49,18,19,Jits_Linear_5,132,9999,9999,9999,1757124724
49,18,19,Jits_Linear_5,133,9999,9999,9999,1757865032
49,18,19,Jits_Linear_5,134,9999,9999,9999,1758604416
49,18,19,Jits_Linear_5,135,9999,9999,9999,1759354952
49,18,19,Jits_Linear_5,136,9999,9999,9999,1760104528
49,18,19,Jits_Linear_5,137,9999,9999,9999,1760854116
49,18,19,Jits_Linear_5,138,9999,9999,9999,1761604716
49,18,19,Jits_Linear_5,139,9999,9999,9999,1762354288
49,18,19,Jits_Linear_5,140,9999,9999,9999,1763115108
49,18,19,Jits_Linear_5,141,9999,9999,9999,1763884096
49,18,19,Jits_Linear_5,142,9999,9999,9999,1764644988
49,18,19,Jits_Linear_5,143,9999,9999,9999,1765404764
49,18,19,Jits_Linear_5,144,9999,9999,9999,1766164536
49,18,19,Jits_Linear_5,145,9999,9999,9999,1766934640
49,18,19,Jits_Linear_5,146,9999,9999,9999,1767704672
49,18,19,Jits_Linear_5,147,9999,9999,9999,1768474700
49,18,19,Jits_Linear_5,148,9999,9999,9999,1769244796
49,18,19,Jits_Linear_5,149,9999,9999,9999,1770014824
49,18,19,Jits_Linear_5,150,9999,9999,9999,1770795116
49,18,19,Jits_Linear_5,151,9999,9999,9999,1771584632
49,18,19,Jits_Linear_5,152,9999,9999,9999,1772364864
49,18,19,Jits_Linear_5,153,9999,9999,9999,1773144168
49,18,19,Jits_Linear_5,154,9999,9999,9999,1773924456
49,18,19,Jits_Linear_5,155,9999,9999,9999,1774715004
49,18,19,Jits_Linear_5,156,9999,9999,9999,1775504496
49,18,19,Jits_Linear_5,157,9999,9999,9999,1776294968
49,18,19,Jits_Linear_5,158,9999,9999,9999,1777084480
49,18,19,Jits_Linear_5,159,9999,9999,9999,1777875032
49,18,19,Jits_Linear_5,160,9999,9999,9999,1778674800
49,18,19,Jits_Linear_5,161,9999,9999,9999,1779474500
49,18,19,Jits_Linear_5,162,9999,9999,9999,1780274296
49,18,19,Jits_Linear_5,163,9999,9999,9999,1781075028
49,18,19,Jits_Linear_5,164,9999,9999,9999,1781874772
49,18,19,Jits_Linear_5,165,9999,9999,9999,1782684728
49,18,19,Jits_Linear_5,166,9999,9999,9999,1783494776
49,18,19,Jits_Linear_5,167,9999,9999,9999,1784304728
49,18,19,Jits_Linear_5,168,9999,9999,9999,1785114708
49,18,19,Jits_Linear_5,169,9999,9999,9999,1785924704
49,19,18,Jits_Linear_8,0,5,56,103,1795958216
49,19,18,Jits_Linear_8,1,5,63,98,1795961320
49,19,18,Jits_Linear_8,2,5,80,127,1795964512
49,19,18,Jits_Linear_8,0,1,48,56,1796742320
49,19,18,Jits_Linear_8,1,5,56,103,1796778596
49,19,18,Jits_Linear_8,2,5,63,98,1796781772
49,19,18,Jits_Linear_8,3,5,80,127,1796784816
49,19,18,Jits_Linear_8,0,1,48,53,1797334704
49,19,18,Jits_Linear_8,1,5,80,127,1797538320
49,19,18,Jits_Linear_8,2,5,63,98,1797628532
49,19,18,Jits_Linear_8,3,5,56,103,1797637460
49,19,18,Jits_Linear_8,0,1,48,53,1798133788
49,19,18,Jits_Linear_8,1,5,56,103,1798377784
49,19,18,Jits_Linear_8,2,5,63,98,1798388280
49,19,18,Jits_Linear_8,3,5,80,127,1798478360
49,19,18,Jits_Linear_8,0,1,48,45,1798846492
49,19,18,Jits_Linear_8,1,5,63,98,1799168248
49,19,18,Jits_Linear_8,2,5,80,127,1799197924
49,19,18,Jits_Linear_8,3,5,56,103,1799227696
49,19,18,Jits_Linear_8,4,1,48,48,1799525708
49,19,18,Jits_Linear_8,0,5,56,103,1799987492
49,19,18,Jits_Linear_8,1,5,80,127,1800087820
49,19,18,Jits_Linear_8,2,5,63,98,1800138168
49,19,18,Jits_Linear_8,3,1,48,38,1800338716
49,19,18,Jits_Linear_8,0,5,56,103,1800797604
49,19,18,Jits_Linear_8,1,5,80,127,1800847656
49,19,18,Jits_Linear_8,2,5,63,98,1800887520
49,19,18,Jits_Linear_8,3,1,48,49,1800926752
49,19,18,Jits_Linear_8,0,5,80,127,1801638352
49,19,18,Jits_Linear_8,1,1,48,22,1801646352
49,19,18,Jits_Linear_8,2,5,63,98,1801668096
49,19,18,Jits_Linear_8,3,5,56,103,1801738512
49,19,18,Jits_Linear_8,0,1,48,38,1802364356
49,19,18,Jits_Linear_8,1,5,63,98,1802477960
49,19,18,Jits_Linear_8,2,5,56,103,1802507640
49,19,18,Jits_Linear_8,3,5,80,127,1802568128
49,19,18,Jits_Linear_8,0,1,48,48,1803022328
49,19,18,Jits_Linear_8,1,5,56,103,1803227444
49,19,18,Jits_Linear_8,2,5,80,127,1803230660
49,19,18,Jits_Linear_8,3,5,63,98,1803348316
49,19,18,Jits_Linear_8,0,1,48,43,1803768804
49,19,18,Jits_Linear_8,1,5,56,103,1804108276
49,19,18,Jits_Linear_8,2,5,80,127,1804148288
49,19,18,Jits_Linear_8,3,5,63,98,1804158264
49,19,18,Jits_Linear_8,0,1,48,21,1804520612
49,19,18,Jits_Linear_8,1,5,56,103,1804868100
49,19,18,Jits_Linear_8,2,5,80,127,1804888412
49,19,18,Jits_Linear_8,3,5,63,98,1804968280
49,19,18,Jits_Linear_8,4,1,48,39,1805187404
49,19,18,Jits_Linear_8,0,5,80,127,1805657584
49,19,18,Jits_Linear_8,1,5,56,103,1805757688
49,19,18,Jits_Linear_8,2,5,63,98,1805768180
49,19,18,Jits_Linear_8,3,1,48,31,1805827640
49,19,18,Jits_Linear_8,0,5,63,98,1806427688
49,19,18,Jits_Linear_8,1,5,80,127,1806488152
49,19,18,Jits_Linear_8,2,5,56,103,1806498276
49,19,18,Jits_Linear_8,3,1,48,37,1806506644
49,19,18,Jits_Linear_8,0,1,48,33,1807091012
49,19,18,Jits_Linear_8,1,5,56,103,1807228384
49,19,18,Jits_Linear_8,2,5,63,98,1807297920
49,19,18,Jits_Linear_8,3,5,80,127,1807301212
49,19,18,Jits_Linear_8,0,1,48,37,1807706544
49,19,18,Jits_Linear_8,1,5,63,98,1808057652
49,19,18,Jits_Linear_8,2,5,56,103,1808108152
49,19,18,Jits_Linear_8,3,5,80,127,1808111072
49,19,18,Jits_Linear_8,4,1,48,26,1808296640
49,19,18,Jits_Linear_8,0,1,48,44,1808778616
49,19,18,Jits_Linear_8,1,5,56,103,1808808232
49,19,18,Jits_Linear_8,2,5,80,127,1808811448
49,19,18,Jits_Linear_8,3,5,63,98,1808898424
49,19,18,Jits_Linear_8,0,1,48,38,1809586148
49,19,18,Jits_Linear_8,1,5,63,98,1809638016
49,19,18,Jits_Linear_8,2,5,56,103,1809727792
49,19,18,Jits_Linear_8,3,5,80,127,1809757544
49,19,18,Jits_Linear_8,0,1,48,42,1810270224
49,19,18,Jits_Linear_8,1,5,56,103,1810418056
49,19,18,Jits_Linear_8,2,5,63,98,1810518408
49,19,18,Jits_Linear_8,3,5,80,127,1810548160
49,19,18,Jits_Linear_8,0,1,48,46,1811152244
49,19,18,Jits_Linear_8,1,5,63,98,1811228248
49,19,18,Jits_Linear_8,2,5,56,103,1811238368
49,19,18,Jits_Linear_8,3,5,80,127,1811328336
49,19,18,Jits_Linear_8,0,5,63,98,1812027712
49,19,18,Jits_Linear_8,1,5,56,103,1812107732
49,19,18,Jits_Linear_8,2,5,80,127,1812110872
49,19,18,Jits_Linear_8,3,1,48,58,1812113472
49,19,18,Jits_Linear_8,0,1,48,48,1812703700
49,19,18,Jits_Linear_8,1,5,80,127,1812768240
49,19,18,Jits_Linear_8,2,5,63,98,1812787528
49,19,18,Jits_Linear_8,3,5,56,103,1812848200
49,19,18,Jits_Linear_8,0,1,48,43,1813460896
49,19,18,Jits_Linear_8,1,5,56,103,1813597452
49,19,18,Jits_Linear_8,2,5,63,98,1813618056
49,19,18,Jits_Linear_8,3,5,80,127,1813621348
49,19,18,Jits_Linear_8,0,1,48,37,1814148116
49,19,18,Jits_Linear_8,1,5,63,98,1814317376
49,19,18,Jits_Linear_8,2,5,80,127,1814398396
49,19,18,Jits_Linear_8,3,5,56,103,1814407472
49,19,18,Jits_Linear_8,0,1,48,38,1814792292
49,19,18,Jits_Linear_8,1,5,63,98,1815118204
49,19,18,Jits_Linear_8,2,5,56,103,1815137540
49,19,18,Jits_Linear_8,3,5,80,127,1815188116
49,19,18,Jits_Linear_8,0,1,48,38,1815605420
49,19,18,Jits_Linear_8,1,5,80,127,1815897428
49,19,18,Jits_Linear_8,2,5,63,98,1815938712
49,19,18,Jits_Linear_8,3,5,56,103,1815958048
49,19,18,Jits_Linear_8,0,1,48,34,1816479036
49,19,18,Jits_Linear_8,1,5,56,103,1816707520
49,19,18,Jits_Linear_8,2,5,63,98,1816717864
49,19,18,Jits_Linear_8,3,5,80,127,1816738100
49,19,18,Jits_Linear_8,0,1,48,24,1817243876
49,19,18,Jits_Linear_8,1,5,56,103,1817407852
49,19,18,Jits_Linear_8,2,5,63,98,1817498136
49,19,18,Jits_Linear_8,3,5,80,127,1817558452
49,19,18,Jits_Linear_8,0,1,48,39,1818052924
49,19,18,Jits_Linear_8,1,5,80,127,1818207832
49,19,18,Jits_Linear_8,2,5,56,103,1818218028
49,19,18,Jits_Linear_8,3,5,63,98,1818287412
49,19,18,Jits_Linear_8,0,1,48,41,1818833268
49,19,18,Jits_Linear_8,1,5,63,98,1819008336
49,19,18,Jits_Linear_8,2,5,80,127,1819097428
49,19,18,Jits_Linear_8,3,5,56,103,1819108068
49,19,18,Jits_Linear_8,0,1,48,42,1819543196
49,19,18,Jits_Linear_8,1,5,63,98,1819708072
49,19,18,Jits_Linear_8,2,5,80,127,1819758052
49,19,18,Jits_Linear_8,3,5,56,103,1819818368
49,19,18,Jits_Linear_8,0,1,48,29,1820286468
49,19,18,Jits_Linear_8,1,5,56,103,1820498384
49,19,18,Jits_Linear_8,2,5,80,127,1820547392
49,19,18,Jits_Linear_8,3,5,63,98,1820567928
49,19,18,Jits_Linear_8,0,1,48,38,1821002896
49,19,18,Jits_Linear_8,1,5,56,103,1821228360
49,19,18,Jits_Linear_8,2,5,80,127,1821288028
49,19,18,Jits_Linear_8,3,5,63,98,1821357856
49,19,18,Jits_Linear_8,0,1,48,36,1821725372
49,19,18,Jits_Linear_8,1,5,56,103,1821988176
49,19,18,Jits_Linear_8,2,5,80,127,1822018028
49,19,18,Jits_Linear_8,3,5,63,98,1822047780
49,19,18,Jits_Linear_8,0,1,48,41,1822486932
49,19,18,Jits_Linear_8,1,5,56,103,1822787956
49,19,18,Jits_Linear_8,2,5,80,127,1822808416
49,19,18,Jits_Linear_8,3,5,63,98,1822867908
49,19,18,Jits_Linear_8,0,5,80,127,1823627748
49,19,18,Jits_Linear_8,1,5,56,103,1823638016
49,19,18,Jits_Linear_8,2,1,48,30,1823639584
49,19,18,Jits_Linear_8,3,5,63,98,1823648060
49,19,18,Jits_Linear_8,0,1,48,46,1824248032
49,19,18,Jits_Linear_8,1,5,56,103,1824338212
49,19,18,Jits_Linear_8,2,5,80,127,1824378208
49,19,18,Jits_Linear_8,3,5,63,98,1824407884
49,19,18,Jits_Linear_8,0,1,48,36,1824988972
49,19,18,Jits_Linear_8,1,5,56,103,1825058300
49,19,18,Jits_Linear_8,2,5,63,98,1825087856
49,19,18,Jits_Linear_8,3,5,80,127,1825127852
49,19,18,Jits_Linear_8,0,1,48,42,1825699196
49,19,18,Jits_Linear_8,1,5,80,127,1825757812
49,19,18,Jits_Linear_8,2,5,63,98,1825807700
49,19,18,Jits_Linear_8,3,5,56,103,1825828088
49,19,18,Jits_Linear_8,0,1,48,36,1826417808
49,19,18,Jits_Linear_8,1,5,56,103,1826537920
49,19,18,Jits_Linear_8,2,5,80,127,1826608000
49,19,18,Jits_Linear_8,3,5,63,98,1826667944
49,19,18,Jits_Linear_8,0,5,80,127,1827278140
49,19,18,Jits_Linear_8,1,1,48,33,1827280884
49,19,18,Jits_Linear_8,2,5,63,98,1827368716
49,19,18,Jits_Linear_8,3,5,56,103,1827387692
49,19,18,Jits_Linear_8,0,1,48,35,1828021908
49,19,18,Jits_Linear_8,1,5,63,98,1828037900
49,19,18,Jits_Linear_8,2,5,56,103,1828057536
49,19,18,Jits_Linear_8,3,5,80,127,1828098672
49,19,18,Jits_Linear_8,0,1,48,46,1828734156
49,19,18,Jits_Linear_8,1,5,80,127,1828738680
49,19,18,Jits_Linear_8,2,5,63,98,1828757944
49,19,18,Jits_Linear_8,3,5,56,103,1828837724
49,19,18,Jits_Linear_8,0,1,48,37,1829408316
49,19,18,Jits_Linear_8,1,5,63,98,1829467632
49,19,18,Jits_Linear_8,2,5,56,103,1829578056
49,19,18,Jits_Linear_8,3,5,80,127,1829581348
49,19,18,Jits_Linear_8,0,1,48,36,1830106548
49,19,18,Jits_Linear_8,1,5,63,98,1830228552
49,19,18,Jits_Linear_8,2,5,56,103,1830237548
49,19,18,Jits_Linear_8,3,5,80,127,1830240768
49,19,18,Jits_Linear_8,0,1,48,37,1830850836
49,19,18,Jits_Linear_8,1,5,56,103,1830948176
49,19,18,Jits_Linear_8,2,5,80,127,1831068008
49,19,18,Jits_Linear_8,3,5,63,98,1831108020
49,19,18,Jits_Linear_8,0,1,48,28,1831464600
49,19,18,Jits_Linear_8,1,5,56,103,1831708004
49,19,18,Jits_Linear_8,2,5,80,127,1831787900
49,19,18,Jits_Linear_8,3,5,63,98,1831808656
49,19,18,Jits_Linear_8,0,1,48,37,1832215360
49,19,18,Jits_Linear_8,1,5,56,103,1832438232
49,19,18,Jits_Linear_8,2,5,63,98,1832547796
49,19,18,Jits_Linear_8,3,5,80,127,1832550864
49,19,18,Jits_Linear_8,0,1,48,30,1833003948
49,19,18,Jits_Linear_8,1,5,56,103,1833197976
49,19,18,Jits_Linear_8,2,5,80,127,1833227580
49,19,18,Jits_Linear_8,3,5,63,98,1833247964
49,19,18,Jits_Linear_8,0,1,48,49,1833777380
49,19,18,Jits_Linear_8,1,5,63,98,1833907604
49,19,18,Jits_Linear_8,2,5,56,103,1833917800
49,19,18,Jits_Linear_8,3,5,80,127,1833927920
49,19,18,Jits_Linear_8,0,1,48,38,1834468164
49,19,18,Jits_Linear_8,1,5,80,127,1834618424
49,19,18,Jits_Linear_8,2,5,56,103,1834668552
49,19,18,Jits_Linear_8,3,5,63,98,1834708488
49,19,18,Jits_Linear_8,0,1,48,23,1835332448
49,19,18,Jits_Linear_8,1,5,80,127,1835357584
49,19,18,Jits_Linear_8,2,5,63,98,1835377896
49,19,18,Jits_Linear_8,3,5,56,103,1835428392
49,19,18,Jits_Linear_8,0,1,48,27,1836054860
49,19,18,Jits_Linear_8,1,5,80,127,1836087660
49,19,18,Jits_Linear_8,2,5,56,103,1836118460
49,19,18,Jits_Linear_8,3,5,63,98,1836188200
49,19,18,Jits_Linear_8,0,1,48,29,1836796416
49,19,18,Jits_Linear_8,1,5,56,103,1836857752
49,19,18,Jits_Linear_8,2,5,80,127,1836867872
49,19,18,Jits_Linear_8,3,5,63,98,1836907872
49,19,18,Jits_Linear_8,0,5,56,103,1837487496
49,19,18,Jits_Linear_8,1,1,48,39,1837508180
49,19,18,Jits_Linear_8,2,5,63,98,1837509672
49,19,18,Jits_Linear_8,3,5,80,127,1837577556
49,19,18,Jits_Linear_8,0,1,48,26,1838174088
49,19,18,Jits_Linear_8,1,5,63,98,1838227772
49,19,18,Jits_Linear_8,2,5,80,127,1838288372
49,19,18,Jits_Linear_8,3,5,56,103,1838307560
49,19,18,Jits_Linear_8,0,1,48,32,1838816048
49,19,18,Jits_Linear_8,1,5,80,127,1838928240
49,19,18,Jits_Linear_8,2,5,56,103,1838957988
49,19,18,Jits_Linear_8,3,5,63,98,1838987592
49,19,18,Jits_Linear_8,0,5,56,103,1839637784
49,19,18,Jits_Linear_8,1,1,48,37,1839650344
49,19,18,Jits_Linear_8,2,5,63,98,1839698492
49,19,18,Jits_Linear_8,3,5,80,127,1839757744
49,19,18,Jits_Linear_8,0,1,48,34,1840345136
49,19,18,Jits_Linear_8,1,5,80,127,1840367944
49,19,18,Jits_Linear_8,2,5,56,103,1840387508
49,19,18,Jits_Linear_8,3,5,63,98,1840458172
49,19,18,Jits_Linear_8,0,1,48,33,1841058812
49,19,18,Jits_Linear_8,1,5,80,127,1841077648
49,19,18,Jits_Linear_8,2,5,63,98,1841098036
49,19,18,Jits_Linear_8,3,5,56,103,1841127712
49,19,18,Jits_Linear_8,0,1,48,28,1841714344
49,19,18,Jits_Linear_8,1,5,80,127,1841767720
49,19,18,Jits_Linear_8,2,5,63,98,1841788332
49,19,18,Jits_Linear_8,3,5,56,103,1841847584
49,19,18,Jits_Linear_8,0,5,80,127,1842468188
49,19,18,Jits_Linear_8,1,5,56,103,1842567492
49,19,18,Jits_Linear_8,2,5,63,98,1842598436
49,19,18,Jits_Linear_8,3,1,48,56,1842851268
49,19,18,Jits_Linear_8,0,5,63,98,1843158576
49,19,18,Jits_Linear_8,1,5,80,127,1843207588
49,19,18,Jits_Linear_8,2,5,56,103,1843228268
49,19,18,Jits_Linear_8,3,1,48,53,1843382136
49,19,18,Jits_Linear_8,0,5,80,127,1843897652
49,19,18,Jits_Linear_8,1,5,56,103,1843928448
49,19,18,Jits_Linear_8,2,5,63,98,1843931592
49,19,18,Jits_Linear_8,3,1,48,45,1843986264
49,19,18,Jits_Linear_8,0,1,48,51,1844612484
49,19,18,Jits_Linear_8,1,5,63,98,1844628024
49,19,18,Jits_Linear_8,2,5,56,103,1844667888
49,19,18,Jits_Linear_8,3,5,80,127,1844688200
49,19,18,Jits_Linear_8,0,5,80,127,1845267884
49,19,18,Jits_Linear_8,1,1,48,47,1845305184
49,19,18,Jits_Linear_8,2,5,63,98,1845347628
49,19,18,Jits_Linear_8,3,5,56,103,1845387568
49,19,18,Jits_Linear_8,0,5,63,98,1845977380
49,19,18,Jits_Linear_8,1,1,48,54,1846012636
49,19,18,Jits_Linear_8,2,5,80,127,1846058444
49,19,18,Jits_Linear_8,3,5,56,103,1846077880
49,19,18,Jits_Linear_8,0,1,48,56,1846636336
49,19,18,Jits_Linear_8,1,5,56,103,1846707536
49,19,18,Jits_Linear_8,2,5,63,98,1846717660
49,19,18,Jits_Linear_8,3,5,80,127,1846757808
49,19,18,Jits_Linear_8,0,5,56,103,1847318252
49,19,18,Jits_Linear_8,1,5,80,127,1847321092
49,19,18,Jits_Linear_8,2,1,48,61,1847388144
49,19,18,Jits_Linear_8,3,5,63,98,1847458148
49,19,18,Jits_Linear_8,0,5,56,103,1847997764
49,19,18,Jits_Linear_8,1,5,63,98,1848087976
49,19,18,Jits_Linear_8,2,5,80,127,1848157532
49,19,18,Jits_Linear_8,3,1,48,89,1848165440
49,19,18,Jits_Linear_8,0,5,63,98,1848757608
49,19,18,Jits_Linear_8,1,5,80,127,1848761044
49,19,18,Jits_Linear_8,2,1,48,86,1848793080
49,19,18,Jits_Linear_8,3,5,56,103,1848818212
49,19,18,Jits_Linear_8,0,1,48,63,1849452656
49,19,18,Jits_Linear_8,1,5,80,127,1849477636
49,19,18,Jits_Linear_8,2,5,56,103,1849498172
49,19,18,Jits_Linear_8,3,5,63,98,1849508144
49,19,18,Jits_Linear_8,0,5,56,103,1850068276
49,19,18,Jits_Linear_8,1,5,63,98,1850077500
49,19,18,Jits_Linear_8,2,1,48,67,1850145336
49,19,18,Jits_Linear_8,3,5,80,127,1850148144
49,19,18,Jits_Linear_8,0,1,48,70,1850709996
49,19,18,Jits_Linear_8,1,5,80,127,1850748312
49,19,18,Jits_Linear_8,2,5,56,103,1850797396
49,19,18,Jits_Linear_8,3,5,63,98,1850847580
49,19,18,Jits_Linear_8,0,1,48,59,1851364300
49,19,18,Jits_Linear_8,1,5,56,103,1851518316
49,19,18,Jits_Linear_8,2,5,63,98,1851527392
49,19,18,Jits_Linear_8,3,5,80,127,1851567404
49,19,18,Jits_Linear_8,0,1,48,80,1852119284
49,19,18,Jits_Linear_8,1,5,56,103,1852137960
49,19,18,Jits_Linear_8,2,5,63,98,1852177976
49,19,18,Jits_Linear_8,3,5,80,127,1852228040
49,19,18,Jits_Linear_8,0,5,80,127,1852767804
49,19,18,Jits_Linear_8,1,1,48,65,1852773992
49,19,18,Jits_Linear_8,2,5,56,103,1852817852
49,19,18,Jits_Linear_8,3,5,63,98,1852838236
49,19,18,Jits_Linear_8,0,1,48,75,1853447072
49,19,18,Jits_Linear_8,1,5,80,127,1853448864
49,19,18,Jits_Linear_8,2,5,63,98,1853508088
49,19,18,Jits_Linear_8,3,5,56,103,1853588092
49,19,18,Jits_Linear_8,0,5,80,127,1854097888
49,19,18,Jits_Linear_8,1,1,48,84,1854133892
49,19,18,Jits_Linear_8,2,5,56,103,1854138120
49,19,18,Jits_Linear_8,3,1,38,19,1854144232
49,19,18,Jits_Linear_8,4,5,63,98,1854158052
49,19,18,Jits_Linear_8,0,1,48,81,1854800932
49,19,18,Jits_Linear_8,1,5,56,103,1854817592
49,19,18,Jits_Linear_8,2,5,80,127,1854828160
49,19,18,Jits_Linear_8,3,5,63,98,1854868024
49,19,18,Jits_Linear_8,0,1,48,88,1855437632
49,19,18,Jits_Linear_8,1,5,56,103,1855547880
49,19,18,Jits_Linear_8,2,5,63,98,1855587820
49,19,18,Jits_Linear_8,3,5,80,127,1855591036
49,19,18,Jits_Linear_8,0,5,63,98,1856097920
49,19,18,Jits_Linear_8,1,1,48,106,1856102684
49,19,18,Jits_Linear_8,2,1,38,21,1856112628
49,19,18,Jits_Linear_8,3,5,80,127,1856137536
49,19,18,Jits_Linear_8,4,5,56,103,1856208368
49,19,18,Jits_Linear_8,0,1,48,98,1856718216
49,19,18,Jits_Linear_8,1,5,63,98,1856748056
49,19,18,Jits_Linear_8,2,5,56,103,1856827716
49,19,18,Jits_Linear_8,3,5,80,127,1856888252
49,19,18,Jits_Linear_8,0,1,48,105,1857330808
49,19,18,Jits_Linear_8,1,1,38,21,1857340756
49,19,18,Jits_Linear_8,2,5,80,127,1857417728
49,19,18,Jits_Linear_8,3,5,63,98,1857467816
49,19,18,Jits_Linear_8,4,5,56,103,1857497340
49,19,18,Jits_Linear_8,0,1,48,127,1857943872
49,19,18,Jits_Linear_8,1,5,56,103,1858067968
49,19,18,Jits_Linear_8,2,5,63,98,1858118048
49,19,18,Jits_Linear_8,3,5,80,127,1858128244
49,19,18,Jits_Linear_8,0,1,48,109,1858543960
49,19,18,Jits_Linear_8,1,5,56,103,1858737608
49,19,18,Jits_Linear_8,2,5,63,98,1858848048
49,19,18,Jits_Linear_8,3,5,80,127,1858867856
49,19,18,Jits_Linear_8,0,1,48,92,1859171280
49,19,18,Jits_Linear_8,1,5,63,98,1859387632
49,19,18,Jits_Linear_8,2,5,80,127,1859437908
49,19,18,Jits_Linear_8,3,5,56,103,1859528040
49,19,18,Jits_Linear_8,0,1,48,82,1859844172
49,19,18,Jits_Linear_8,1,5,63,98,1860027632
49,19,18,Jits_Linear_8,2,5,80,127,1860057608
49,19,18,Jits_Linear_8,3,5,56,103,1860147840
49,19,18,Jits_Linear_8,0,1,48,82,1860555144
49,19,18,Jits_Linear_8,1,5,63,98,1860677992
49,19,18,Jits_Linear_8,2,5,56,103,1860688188
49,19,18,Jits_Linear_8,3,5,80,127,1860787760
49,19,18,Jits_Linear_8,0,1,48,102,1861115124
49,19,18,Jits_Linear_8,1,5,63,98,1861427852
49,19,18,Jits_Linear_8,2,5,80,127,1861458500
49,19,18,Jits_Linear_8,3,5,56,103,1861488024
49,19,18,Jits_Linear_8,0,1,48,103,1861790480
49,19,18,Jits_Linear_8,1,5,80,127,1862088120
49,19,18,Jits_Linear_8,2,5,63,98,1862098316
49,19,18,Jits_Linear_8,3,5,56,103,1862127916
49,19,18,Jits_Linear_8,4,1,48,64,1862340744
49,19,18,Jits_Linear_8,0,5,80,127,1862627600
49,19,18,Jits_Linear_8,1,5,63,98,1862648136
49,19,18,Jits_Linear_8,2,5,56,103,1862698560
49,19,18,Jits_Linear_8,3,1,48,78,1862833696
49,19,18,Jits_Linear_8,0,1,48,79,1863271872
49,19,18,Jits_Linear_8,1,5,63,98,1863298496
49,19,18,Jits_Linear_8,2,5,80,127,1863357916
49,19,18,Jits_Linear_8,3,5,56,103,1863378436
49,19,18,Jits_Linear_8,0,1,48,72,1863789676
49,19,18,Jits_Linear_8,1,5,63,98,1863897504
49,19,18,Jits_Linear_8,2,5,56,103,1863947856
49,19,18,Jits_Linear_8,3,5,80,127,1863957980
49,19,18,Jits_Linear_8,0,5,56,103,1864568116
49,19,18,Jits_Linear_8,1,5,80,127,1864578612
49,19,18,Jits_Linear_8,2,1,48,97,1864609156
49,19,18,Jits_Linear_8,3,5,63,98,1864677876
49,19,18,Jits_Linear_8,0,1,48,101,1865067320
49,19,18,Jits_Linear_8,1,1,38,22,1865077192
49,19,18,Jits_Linear_8,2,5,80,127,1865168156
49,19,18,Jits_Linear_8,3,5,63,98,1865178264
49,19,18,Jits_Linear_8,4,5,56,103,1865327980
49,19,18,Jits_Linear_8,0,1,48,121,1865570500
49,19,18,Jits_Linear_8,1,5,63,98,1865808096
49,19,18,Jits_Linear_8,2,5,80,127,1865848184
49,19,18,Jits_Linear_8,3,5,56,103,1865927980
49,19,18,Jits_Linear_8,4,1,48,59,1866015984
49,19,18,Jits_Linear_8,0,5,56,103,1866427812
49,19,18,Jits_Linear_8,1,1,48,71,1866526784
49,19,18,Jits_Linear_8,2,5,80,127,1866528652
49,19,18,Jits_Linear_8,3,5,63,98,1866547568
49,19,18,Jits_Linear_8,0,1,48,39,1867028384
49,19,18,Jits_Linear_8,1,5,80,127,1867117824
49,19,18,Jits_Linear_8,2,5,56,103,1867128152
49,19,18,Jits_Linear_8,3,5,63,98,1867218508
49,19,18,Jits_Linear_8,0,1,48,67,1867581424
49,19,18,Jits_Linear_8,1,5,56,103,1867747624
49,19,18,Jits_Linear_8,2,5,63,98,1867768160
49,19,18,Jits_Linear_8,3,5,80,127,1867847976
49,19,18,Jits_Linear_8,0,1,48,68,1868157524
49,19,18,Jits_Linear_8,1,5,63,98,1868318024
49,19,18,Jits_Linear_8,2,5,56,103,1868408108
49,19,18,Jits_Linear_8,3,5,80,127,1868411248
49,19,18,Jits_Linear_8,0,1,48,46,1868721540
49,19,18,Jits_Linear_8,1,5,56,103,1868968304
49,19,18,Jits_Linear_8,2,5,80,127,1869027724
49,19,18,Jits_Linear_8,3,5,63,98,1869037920
49,19,18,Jits_Linear_8,0,1,48,70,1869346716
49,19,18,Jits_Linear_8,1,5,80,127,1869637856
49,19,18,Jits_Linear_8,2,5,56,103,1869648424
49,19,18,Jits_Linear_8,3,5,63,98,1869651340
49,19,18,Jits_Linear_8,0,1,48,64,1869946364
49,19,18,Jits_Linear_8,1,5,56,103,1870217596
49,19,18,Jits_Linear_8,2,5,80,127,1870227792
49,19,18,Jits_Linear_8,3,5,63,98,1870248324
49,19,18,Jits_Linear_8,0,1,48,72,1870569920
49,19,18,Jits_Linear_8,1,5,63,98,1870808520
49,19,18,Jits_Linear_8,2,5,80,127,1870867788
49,19,18,Jits_Linear_8,3,5,56,103,1870918016
49,19,18,Jits_Linear_8,4,1,48,54,1871137712
49,19,18,Jits_Linear_8,0,5,63,98,1871507808
49,19,18,Jits_Linear_8,1,5,56,103,1871518004
49,19,18,Jits_Linear_8,2,5,80,127,1871568280
49,19,18,Jits_Linear_8,0,1,48,76,1871803880
49,19,18,Jits_Linear_8,1,5,63,98,1872017836
49,19,18,Jits_Linear_8,2,5,80,127,1872038372
49,19,18,Jits_Linear_8,3,5,56,103,1872047444
49,19,18,Jits_Linear_8,0,1,48,92,1872434764
49,19,18,Jits_Linear_8,1,5,63,98,1872628084
49,19,18,Jits_Linear_8,2,5,80,127,1872631452
49,19,18,Jits_Linear_8,3,5,56,103,1872668024
49,19,18,Jits_Linear_8,4,1,48,80,1872974808
49,19,18,Jits_Linear_8,0,5,63,98,1873307956
49,19,18,Jits_Linear_8,1,5,80,127,1873337632
49,19,18,Jits_Linear_8,2,5,56,103,1873348124
49,19,18,Jits_Linear_8,0,1,48,75,1873631824
49,19,18,Jits_Linear_8,1,5,56,103,1873868400
49,19,18,Jits_Linear_8,2,5,80,127,1873897704
49,19,18,Jits_Linear_8,3,5,63,98,1873927528
49,19,18,Jits_Linear_8,0,1,48,59,1874237772
49,19,18,Jits_Linear_8,1,5,63,98,1874567400
49,19,18,Jits_Linear_8,2,5,56,103,1874607412
49,19,18,Jits_Linear_8,3,5,80,127,1874610552
49,19,18,Jits_Linear_8,0,1,48,77,1874835980
49,19,18,Jits_Linear_8,1,5,80,127,1875068472
49,19,18,Jits_Linear_8,2,5,56,103,1875148420
49,19,18,Jits_Linear_8,3,5,63,98,1875198396
49,19,18,Jits_Linear_8,4,1,48,62,1875422460
49,19,18,Jits_Linear_8,0,5,80,127,1875647860
49,19,18,Jits_Linear_8,1,5,56,103,1875668320
49,19,18,Jits_Linear_8,2,5,63,98,1875757432
49,19,18,Jits_Linear_8,3,1,48,71,1875960196
49,19,18,Jits_Linear_8,0,5,80,127,1876287900
49,19,18,Jits_Linear_8,1,5,63,98,1876327844
49,19,18,Jits_Linear_8,2,5,56,103,1876367780
49,19,18,Jits_Linear_8,3,1,48,52,1876428288
49,19,18,Jits_Linear_8,0,5,63,98,1876858316
49,19,18,Jits_Linear_8,1,5,80,127,1876917664
49,19,18,Jits_Linear_8,2,5,56,103,1876948536
49,19,18,Jits_Linear_8,3,1,48,51,1876994352
49,19,18,Jits_Linear_8,0,1,48,46,1877449660
49,19,18,Jits_Linear_8,1,5,56,103,1877458380
49,19,18,Jits_Linear_8,2,5,80,127,1877487980
49,19,18,Jits_Linear_8,3,5,63,98,1877578348
49,19,18,Jits_Linear_8,0,1,48,60,1877987624
49,19,18,Jits_Linear_8,1,5,56,103,1878058300
49,19,18,Jits_Linear_8,2,5,80,127,1878167904
49,19,18,Jits_Linear_8,3,5,63,98,1878197652
49,19,18,Jits_Linear_8,0,1,48,63,1878504344
49,19,18,Jits_Linear_8,1,5,56,103,1878698368
49,19,18,Jits_Linear_8,2,5,63,98,1878757716
49,19,18,Jits_Linear_8,3,5,80,127,1878787464
49,19,18,Jits_Linear_8,4,1,48,61,1878958864
49,19,18,Jits_Linear_8,0,5,56,103,1879257460
49,19,18,Jits_Linear_8,1,5,63,98,1879328264
49,19,18,Jits_Linear_8,2,5,80,127,1879347704
49,19,18,Jits_Linear_8,3,1,48,67,1879460048
49,19,18,Jits_Linear_8,0,5,80,127,1879817532
49,19,18,Jits_Linear_8,1,5,63,98,1879838364
49,19,18,Jits_Linear_8,2,5,56,103,1879888444
49,19,18,Jits_Linear_8,3,1,48,64,1879923324
49,19,18,Jits_Linear_8,0,1,48,74,1880358392
49,19,18,Jits_Linear_8,1,5,63,98,1880417636
49,19,18,Jits_Linear_8,2,5,80,127,1880427832
49,19,18,Jits_Linear_8,3,5,56,103,1880478240
49,19,18,Jits_Linear_8,0,1,48,76,1880806368
49,19,18,Jits_Linear_8,1,1,38,18,1880815796
49,19,18,Jits_Linear_8,2,5,63,98,1880998160
49,19,18,Jits_Linear_8,3,5,80,127,1881067844
49,19,18,Jits_Linear_8,4,5,56,103,1881088304
49,19,18,Jits_Linear_8,0,5,63,98,1881607540
49,19,18,Jits_Linear_8,1,5,80,127,1881610832
49,19,18,Jits_Linear_8,2,1,48,77,1881630740
49,19,18,Jits_Linear_8,3,5,56,103,1881678284
49,19,18,Jits_Linear_8,0,1,48,72,1882045272
49,19,18,Jits_Linear_8,1,5,80,127,1882138140
49,19,18,Jits_Linear_8,2,5,56,103,1882157340
49,19,18,Jits_Linear_8,3,5,63,98,1882167684
49,19,18,Jits_Linear_8,4,1,48,91,1882473024
49,19,18,Jits_Linear_8,0,5,56,103,1882748252
49,19,18,Jits_Linear_8,1,5,63,98,1882838312
49,19,18,Jits_Linear_8,2,5,80,127,1882841452
49,19,18,Jits_Linear_8,3,1,48,78,1882910952
49,19,18,Jits_Linear_8,0,5,80,127,1883298280
49,19,18,Jits_Linear_8,1,5,56,103,1883308404
49,19,18,Jits_Linear_8,2,5,63,98,1883327964
49,19,18,Jits_Linear_8,3,1,48,85,1883384784
49,19,18,Jits_Linear_8,4,1,38,19,1883394732
49,19,18,Jits_Linear_8,0,1,48,85,1883802964
49,19,18,Jits_Linear_8,1,1,38,19,1883813356
49,19,18,Jits_Linear_8,2,5,63,98,1883867412
49,19,18,Jits_Linear_8,3,5,80,127,1883928432
49,19,18,Jits_Linear_8,4,5,56,103,1883938332
49,19,18,Jits_Linear_8,0,1,48,66,1884243504
49,19,18,Jits_Linear_8,1,5,63,98,1884507468
49,19,18,Jits_Linear_8,2,5,80,127,1884538340
49,19,18,Jits_Linear_8,3,5,56,103,1884578280
49,19,18,Jits_Linear_8,4,1,48,67,1884715576
49,19,18,Jits_Linear_8,0,5,56,103,1885067564
49,19,18,Jits_Linear_8,1,5,80,127,1885077984
49,19,18,Jits_Linear_8,2,1,48,67,1885117248
49,19,18,Jits_Linear_8,3,5,63,98,1885119184
49,19,18,Jits_Linear_8,0,1,48,64,1885514088
49,19,18,Jits_Linear_8,1,5,80,127,1885598040
49,19,18,Jits_Linear_8,2,5,56,103,1885678044
49,19,18,Jits_Linear_8,3,5,63,98,1885688240
49,19,18,Jits_Linear_8,0,1,48,70,1885964208
49,19,18,Jits_Linear_8,1,5,80,127,1886208360
49,19,18,Jits_Linear_8,2,5,56,103,1886288184
49,19,18,Jits_Linear_8,3,5,63,98,1886297408
49,19,18,Jits_Linear_8,4,1,48,68,1886397620
49,19,18,Jits_Linear_8,0,5,80,127,1886727588
49,19,18,Jits_Linear_8,1,5,56,103,1886777740
49,19,18,Jits_Linear_8,2,1,48,81,1886805872
49,19,18,Jits_Linear_8,3,5,63,98,1886828160
49,19,18,Jits_Linear_8,0,1,48,79,1887230464
49,19,18,Jits_Linear_8,1,5,56,103,1887348204
49,19,18,Jits_Linear_8,2,5,63,98,1887351196
49,19,18,Jits_Linear_8,3,5,80,127,1887398184
49,19,18,Jits_Linear_8,0,1,48,66,1887678516
49,19,18,Jits_Linear_8,1,5,56,103,1887937864
49,19,18,Jits_Linear_8,2,5,63,98,1887967616
49,19,18,Jits_Linear_8,3,5,80,127,1887978032
49,19,18,Jits_Linear_8,4,1,48,45,1888089804
49,19,18,Jits_Linear_8,5,1,38,15,1888104836
49,19,18,Jits_Linear_8,0,5,63,98,1888407856
49,19,18,Jits_Linear_8,1,5,56,103,1888477464
49,19,18,Jits_Linear_8,2,5,80,127,1888527668
49,19,18,Jits_Linear_8,3,1,48,53,1888534000
49,19,18,Jits_Linear_8,0,1,48,56,1888938444
49,19,18,Jits_Linear_8,1,1,38,16,1888953476
49,19,18,Jits_Linear_8,2,5,63,98,1888998012
49,19,18,Jits_Linear_8,3,5,56,103,1889008204
49,19,18,Jits_Linear_8,4,5,80,127,1889011124
49,19,18,Jits_Linear_8,0,1,48,80,1889442240
49,19,18,Jits_Linear_8,1,5,80,127,1889497640
49,19,18,Jits_Linear_8,2,5,56,103,1889558092
49,19,18,Jits_Linear_8,3,5,63,98,1889648100
49,19,18,Jits_Linear_8,0,1,48,81,1890021332
49,19,18,Jits_Linear_8,1,5,80,127,1890048336
49,19,18,Jits_Linear_8,2,5,56,103,1890147700
49,19,18,Jits_Linear_8,3,5,63,98,1890187860
49,19,18,Jits_Linear_8,0,1,48,99,1890609900
49,19,18,Jits_Linear_8,1,1,38,22,1890619316
49,19,18,Jits_Linear_8,2,5,56,103,1890648416
49,19,18,Jits_Linear_8,3,5,63,98,1890667828
49,19,18,Jits_Linear_8,4,5,80,127,1890707752
49,19,18,Jits_Linear_8,0,1,48,90,1891092724
49,19,18,Jits_Linear_8,1,1,38,19,1891102592
49,19,18,Jits_Linear_8,2,5,63,98,1891167460
49,19,18,Jits_Linear_8,3,5,56,103,1891188056
49,19,18,Jits_Linear_8,4,5,80,127,1891288436
49,19,18,Jits_Linear_8,0,1,48,91,1891558196
49,19,18,Jits_Linear_8,1,1,38,22,1891567696
49,19,18,Jits_Linear_8,2,5,63,98,1891697916
49,19,18,Jits_Linear_8,3,5,80,127,1891807460
49,19,18,Jits_Linear_8,4,5,56,103,1891838256
49,19,18,Jits_Linear_8,5,1,48,93,1892016260
49,19,18,Jits_Linear_8,6,1,38,21,1892026124
49,19,18,Jits_Linear_8,0,5,56,103,1892258292
49,19,18,Jits_Linear_8,1,5,63,98,1892287820
49,19,18,Jits_Linear_8,2,5,80,127,1892338096
49,19,18,Jits_Linear_8,3,1,48,109,1892483196
49,19,18,Jits_Linear_8,0,5,63,98,1892768088
49,19,18,Jits_Linear_8,1,5,56,103,1892798064
49,19,18,Jits_Linear_8,2,5,80,127,1892848040
49,19,18,Jits_Linear_8,3,1,48,108,1892899932
49,19,18,Jits_Linear_8,0,1,48,95,1893314708
49,19,18,Jits_Linear_8,1,5,56,103,1893337444
49,19,18,Jits_Linear_8,2,5,63,98,1893357976
49,19,18,Jits_Linear_8,3,5,80,127,1893438004
49,19,18,Jits_Linear_8,0,1,48,106,1893696616
49,19,18,Jits_Linear_8,1,5,63,98,1893848416
49,19,18,Jits_Linear_8,2,5,56,103,1893907908
49,19,18,Jits_Linear_8,3,5,80,127,1893937536
49,19,18,Jits_Linear_8,4,1,48,60,1894114820
49,19,18,Jits_Linear_8,0,5,56,103,1894427976
49,19,18,Jits_Linear_8,1,5,80,127,1894488396
49,19,18,Jits_Linear_8,2,1,48,62,1894515108
49,19,18,Jits_Linear_8,3,5,63,98,1894528324
49,19,18,Jits_Linear_8,0,5,63,98,1894938008
49,19,18,Jits_Linear_8,1,1,48,67,1894962948
49,19,18,Jits_Linear_8,2,5,56,103,1894998420
49,19,18,Jits_Linear_8,3,5,80,127,1895068160
49,19,18,Jits_Linear_8,0,1,48,76,1895389700
49,19,18,Jits_Linear_8,1,5,56,103,1895548348
49,19,18,Jits_Linear_8,2,5,63,98,1895557496
49,19,18,Jits_Linear_8,3,5,80,127,1895561008
49,19,18,Jits_Linear_8,0,1,48,68,1895859772
49,19,18,Jits_Linear_8,1,5,63,98,1896018276
49,19,18,Jits_Linear_8,2,5,56,103,1896077620
49,19,18,Jits_Linear_8,3,5,80,127,1896080836
49,19,18,Jits_Linear_8,4,1,48,64,1896285196
49,19,18,Jits_Linear_8,0,5,63,98,1896528200
49,19,18,Jits_Linear_8,1,5,80,127,1896557952
49,19,18,Jits_Linear_8,2,5,56,103,1896578412
49,19,18,Jits_Linear_8,3,1,48,58,1896693296
49,19,18,Jits_Linear_8,0,5,56,103,1897057692
49,19,18,Jits_Linear_8,1,1,48,90,1897087936
49,19,18,Jits_Linear_8,2,5,63,98,1897107968
49,19,18,Jits_Linear_8,3,5,80,127,1897188716
49,19,18,Jits_Linear_8,0,1,48,69,1897488476
49,19,18,Jits_Linear_8,1,5,80,127,1897558352
49,19,18,Jits_Linear_8,2,5,63,98,1897598280
49,19,18,Jits_Linear_8,3,5,56,103,1897617912
49,19,18,Jits_Linear_8,4,1,48,73,1897867604
49,19,18,Jits_Linear_8,0,5,56,103,1898148064
49,19,18,Jits_Linear_8,1,5,80,127,1898157508
49,19,18,Jits_Linear_8,2,5,63,98,1898177820
49,19,18,Jits_Linear_8,3,1,48,53,1898268816
49,19,18,Jits_Linear_8,0,5,56,103,1898647904
49,19,18,Jits_Linear_8,1,1,48,76,1898649620
49,19,18,Jits_Linear_8,2,5,63,98,1898697952
49,19,18,Jits_Linear_8,3,5,80,127,1898727776
49,19,18,Jits_Linear_8,0,1,48,84,1899023608
49,19,18,Jits_Linear_8,1,5,56,103,1899117848
49,19,18,Jits_Linear_8,2,5,63,98,1899128032
49,19,18,Jits_Linear_8,3,5,80,127,1899178232
49,19,18,Jits_Linear_8,0,5,56,103,1899627864
49,19,18,Jits_Linear_8,1,5,80,127,1899630928
49,19,18,Jits_Linear_8,2,5,63,98,1899787592
49,19,18,Jits_Linear_8,3,1,48,51,1899794752
49,19,18,Jits_Linear_8,0,5,63,98,1900158412
49,19,18,Jits_Linear_8,1,1,48,81,1900217128
49,19,18,Jits_Linear_8,2,5,56,103,1900227940
49,19,18,Jits_Linear_8,3,5,80,127,1900267804
49,19,18,Jits_Linear_8,0,1,48,76,1900581908
49,19,18,Jits_Linear_8,1,5,63,98,1900708268
49,19,18,Jits_Linear_8,2,5,56,103,1900798256
49,19,18,Jits_Linear_8,3,5,80,127,1900801544
49,19,18,Jits_Linear_8,4,1,48,75,1900939988
49,19,18,Jits_Linear_8,0,5,56,103,1901197748
49,19,18,Jits_Linear_8,1,5,63,98,1901287736
49,19,18,Jits_Linear_8,2,5,80,127,1901298004
49,19,18,Jits_Linear_8,3,1,48,94,1901318656
49,19,18,Jits_Linear_8,0,1,48,58,1901665180
49,19,18,Jits_Linear_8,1,5,56,103,1901678032
49,19,18,Jits_Linear_8,2,5,63,98,1901728236
49,19,18,Jits_Linear_8,3,5,80,127,1901758792
49,19,18,Jits_Linear_8,0,1,48,58,1902027960
49,19,18,Jits_Linear_8,1,5,63,98,1902257712
49,19,18,Jits_Linear_8,2,5,80,127,1902267832
49,19,18,Jits_Linear_8,3,5,56,103,1902328148
49,19,18,Jits_Linear_8,4,1,48,66,1902390100
49,19,18,Jits_Linear_8,0,5,63,98,1902678640
49,19,18,Jits_Linear_8,1,1,48,59,1902719896
49,19,18,Jits_Linear_8,2,5,80,127,1902737684
49,19,18,Jits_Linear_8,3,5,56,103,1902777696
49,19,18,Jits_Linear_8,0,1,48,56,1903067528
49,19,18,Jits_Linear_8,1,5,56,103,1903277572
49,19,18,Jits_Linear_8,2,5,80,127,1903297812
49,19,18,Jits_Linear_8,3,5,63,98,1903318640
49,19,18,Jits_Linear_8,4,1,48,45,1903419704
49,19,18,Jits_Linear_8,0,5,63,98,1903698432
49,19,18,Jits_Linear_8,1,5,56,103,1903717772
49,19,18,Jits_Linear_8,2,5,80,127,1903757708
49,19,18,Jits_Linear_8,3,1,48,64,1903782176
49,19,18,Jits_Linear_8,0,1,48,67,1904104540
49,19,18,Jits_Linear_8,1,5,63,98,1904208276
49,19,18,Jits_Linear_8,2,5,80,127,1904237876
49,19,18,Jits_Linear_8,3,5,56,103,1904258708
49,19,18,Jits_Linear_8,4,1,48,76,1904408364
49,19,18,Jits_Linear_8,0,5,80,127,1904678456
49,19,18,Jits_Linear_8,1,5,56,103,1904728540
49,19,18,Jits_Linear_8,2,5,63,98,1904787808
49,19,18,Jits_Linear_8,0,1,48,61,1905038720
49,19,18,Jits_Linear_8,1,5,63,98,1905157560
49,19,18,Jits_Linear_8,2,5,56,103,1905278436
49,19,18,Jits_Linear_8,3,5,80,127,1905307964
49,19,18,Jits_Linear_8,4,1,48,56,1905390116
49,19,18,Jits_Linear_8,0,5,80,127,1905687864
49,19,18,Jits_Linear_8,1,5,63,98,1905708496
49,19,18,Jits_Linear_8,2,1,48,88,1905731168
49,19,18,Jits_Linear_8,3,5,56,103,1905778096
49,19,18,Jits_Linear_8,0,1,48,75,1906074228
49,19,18,Jits_Linear_8,1,5,63,98,1906197872
49,19,18,Jits_Linear_8,2,5,56,103,1906208068
49,19,18,Jits_Linear_8,3,5,80,127,1906287964
49,19,18,Jits_Linear_8,4,1,48,57,1906421280
49,19,18,Jits_Linear_8,0,5,56,103,1906747848
49,19,18,Jits_Linear_8,1,1,48,73,1906775008
49,19,18,Jits_Linear_8,2,5,80,127,1906777520
49,19,18,Jits_Linear_8,3,5,63,98,1906787640
49,19,18,Jits_Linear_8,0,9999,9999,9999,1796365380
49,19,18,Jits_Linear_8,1,9999,9999,9999,1797185616
49,19,18,Jits_Linear_8,2,9999,9999,9999,1798005824
49,19,18,Jits_Linear_8,3,9999,9999,9999,1798826104
49,19,18,Jits_Linear_8,4,9999,9999,9999,1799645308
49,19,18,Jits_Linear_8,5,9999,9999,9999,1800455248
49,19,18,Jits_Linear_8,6,9999,9999,9999,1801265228
49,19,18,Jits_Linear_8,7,9999,9999,9999,1802075192
49,19,18,Jits_Linear_8,8,9999,9999,9999,1802885228
49,19,18,Jits_Linear_8,9,9999,9999,9999,1803695156
49,19,18,Jits_Linear_8,10,9999,9999,9999,1804495964
49,19,18,Jits_Linear_8,11,9999,9999,9999,1805295696
49,19,18,Jits_Linear_8,12,9999,9999,9999,1806095448
49,19,18,Jits_Linear_8,13,9999,9999,9999,1806895212
49,19,18,Jits_Linear_8,14,9999,9999,9999,1807695972
49,19,18,Jits_Linear_8,15,9999,9999,9999,1808485488
49,19,18,Jits_Linear_8,16,9999,9999,9999,1809276004
49,19,18,Jits_Linear_8,17,9999,9999,9999,1810065504
49,19,18,Jits_Linear_8,18,9999,9999,9999,1810856044
49,19,18,Jits_Linear_8,19,9999,9999,9999,1811645512
49,19,18,Jits_Linear_8,20,9999,9999,9999,1812425784
49,19,18,Jits_Linear_8,21,9999,9999,9999,1813206132
49,19,18,Jits_Linear_8,22,9999,9999,9999,1813995612
49,19,18,Jits_Linear_8,23,9999,9999,9999,1814775888
49,19,18,Jits_Linear_8,24,9999,9999,9999,1815555184
49,19,18,Jits_Linear_8,25,9999,9999,9999,1816325196
49,19,18,Jits_Linear_8,26,9999,9999,9999,1817095280
49,19,18,Jits_Linear_8,27,9999,9999,9999,1817865292
49,19,18,Jits_Linear_8,28,9999,9999,9999,1818635376
49,19,18,Jits_Linear_8,29,9999,9999,9999,1819405392
49,19,18,Jits_Linear_8,30,9999,9999,9999,1820165212
49,19,18,Jits_Linear_8,31,9999,9999,9999,1820926004
49,19,18,Jits_Linear_8,32,9999,9999,9999,1821685824
49,19,18,Jits_Linear_8,33,9999,9999,9999,1822445640
49,19,18,Jits_Linear_8,34,9999,9999,9999,1823205464
49,19,18,Jits_Linear_8,35,9999,9999,9999,1823956080
49,19,18,Jits_Linear_8,36,9999,9999,9999,1824705660
49,19,18,Jits_Linear_8,37,9999,9999,9999,1825455216
49,19,18,Jits_Linear_8,38,9999,9999,9999,1826205816
49,19,18,Jits_Linear_8,39,9999,9999,9999,1826955380
49,19,18,Jits_Linear_8,40,9999,9999,9999,1827695728
49,19,18,Jits_Linear_8,41,9999,9999,9999,1828436084
49,19,18,Jits_Linear_8,42,9999,9999,9999,1829175376
49,19,18,Jits_Linear_8,43,9999,9999,9999,1829915756
49,19,18,Jits_Linear_8,44,9999,9999,9999,1830656084
49,19,18,Jits_Linear_8,45,9999,9999,9999,1831395384
49,19,18,Jits_Linear_8,46,9999,9999,9999,1832125536
49,19,18,Jits_Linear_8,47,9999,9999,9999,1832855608
49,19,18,Jits_Linear_8,48,9999,9999,9999,1833585768
49,19,18,Jits_Linear_8,49,9999,9999,9999,1834315840
49,19,18,Jits_Linear_8,50,9999,9999,9999,1835035704
49,19,18,Jits_Linear_8,51,9999,9999,9999,1835755596
49,19,18,Jits_Linear_8,52,9999,9999,9999,1836475484
49,19,18,Jits_Linear_8,53,9999,9999,9999,1837195380
49,19,18,Jits_Linear_8,54,9999,9999,9999,1837915192
49,19,18,Jits_Linear_8,55,9999,9999,9999,1838625860
49,19,18,Jits_Linear_8,56,9999,9999,9999,1839335480
49,19,18,Jits_Linear_8,57,9999,9999,9999,1840045180
49,19,18,Jits_Linear_8,58,9999,9999,9999,1840755796
49,19,18,Jits_Linear_8,59,9999,9999,9999,1841465420
49,19,18,Jits_Linear_8,60,9999,9999,9999,1842165884
49,19,18,Jits_Linear_8,61,9999,9999,9999,1842865268
49,19,18,Jits_Linear_8,62,9999,9999,9999,1843565676
49,19,18,Jits_Linear_8,63,9999,9999,9999,1844266056
49,19,18,Jits_Linear_8,64,9999,9999,9999,1844965432
49,19,18,Jits_Linear_8,65,9999,9999,9999,1845655660
49,19,18,Jits_Linear_8,66,9999,9999,9999,1846345824
49,19,18,Jits_Linear_8,67,9999,9999,9999,1847036028
49,19,18,Jits_Linear_8,68,9999,9999,9999,1847725116
49,19,18,Jits_Linear_8,69,9999,9999,9999,1848415352
49,19,18,Jits_Linear_8,70,9999,9999,9999,1849095224
49,19,18,Jits_Linear_8,71,9999,9999,9999,1849775192
49,19,18,Jits_Linear_8,72,9999,9999,9999,1850455144
49,19,18,Jits_Linear_8,73,9999,9999,9999,1851136064
49,19,18,Jits_Linear_8,74,9999,9999,9999,1851825248
49,19,18,Jits_Linear_8,75,9999,9999,9999,1852495996
49,19,18,Jits_Linear_8,76,9999,9999,9999,1853165660
49,19,18,Jits_Linear_8,77,9999,9999,9999,1853835372
49,19,18,Jits_Linear_8,78,9999,9999,9999,1854506048
49,19,18,Jits_Linear_8,79,9999,9999,9999,1855175748
49,19,18,Jits_Linear_8,80,9999,9999,9999,1855835252
49,19,18,Jits_Linear_8,81,9999,9999,9999,1856495732
49,19,18,Jits_Linear_8,82,9999,9999,9999,1857155164
49,19,18,Jits_Linear_8,83,9999,9999,9999,1857815640
49,19,18,Jits_Linear_8,84,9999,9999,9999,1858475084
49,19,18,Jits_Linear_8,85,9999,9999,9999,1859125332
49,19,18,Jits_Linear_8,86,9999,9999,9999,1859775548
49,19,18,Jits_Linear_8,87,9999,9999,9999,1860425836
49,19,18,Jits_Linear_8,88,9999,9999,9999,1861076096
49,19,18,Jits_Linear_8,89,9999,9999,9999,1861725272
49,19,18,Jits_Linear_8,90,9999,9999,9999,1862365304
49,19,18,Jits_Linear_8,91,9999,9999,9999,1863005252
49,19,18,Jits_Linear_8,92,9999,9999,9999,1863645272
49,19,18,Jits_Linear_8,93,9999,9999,9999,1864285296
49,19,18,Jits_Linear_8,94,9999,9999,9999,1864925296
49,19,18,Jits_Linear_8,95,9999,9999,9999,1865556084
49,19,18,Jits_Linear_8,96,9999,9999,9999,1866185800
49,19,18,Jits_Linear_8,97,9999,9999,9999,1866815584
49,19,18,Jits_Linear_8,98,9999,9999,9999,1867445340
49,19,18,Jits_Linear_8,99,9999,9999,9999,1868075084
49,19,18,Jits_Linear_8,100,9999,9999,9999,1868695620
49,19,18,Jits_Linear_8,101,9999,9999,9999,1869315168
49,19,18,Jits_Linear_8,102,9999,9999,9999,1869935712
49,19,18,Jits_Linear_8,103,9999,9999,9999,1870555240
49,19,18,Jits_Linear_8,104,9999,9999,9999,1871175780
49,19,18,Jits_Linear_8,105,9999,9999,9999,1871786044
49,19,18,Jits_Linear_8,106,9999,9999,9999,1872395336
49,19,18,Jits_Linear_8,107,9999,9999,9999,1873005672
49,19,18,Jits_Linear_8,108,9999,9999,9999,1873615936
49,19,18,Jits_Linear_8,109,9999,9999,9999,1874225252
49,19,18,Jits_Linear_8,110,9999,9999,9999,1874825324
49,19,18,Jits_Linear_8,111,9999,9999,9999,1875425372
49,19,18,Jits_Linear_8,112,9999,9999,9999,1876025460
49,19,18,Jits_Linear_8,113,9999,9999,9999,1876625528
49,19,18,Jits_Linear_8,114,9999,9999,9999,1877225540
49,19,18,Jits_Linear_8,115,9999,9999,9999,1877815372
49,19,18,Jits_Linear_8,116,9999,9999,9999,1878405232
49,19,18,Jits_Linear_8,117,9999,9999,9999,1878996084
49,19,18,Jits_Linear_8,118,9999,9999,9999,1879585872
49,19,18,Jits_Linear_8,119,9999,9999,9999,1880175712
49,19,18,Jits_Linear_8,120,9999,9999,9999,1880755268
49,19,18,Jits_Linear_8,121,9999,9999,9999,1881335884
49,19,18,Jits_Linear_8,122,9999,9999,9999,1881915516
49,19,18,Jits_Linear_8,123,9999,9999,9999,1882496092
49,19,18,Jits_Linear_8,124,9999,9999,9999,1883085944
49,19,18,Jits_Linear_8,125,9999,9999,9999,1883655260
49,19,18,Jits_Linear_8,126,9999,9999,9999,1884225644
49,19,18,Jits_Linear_8,127,9999,9999,9999,1884796012
49,19,18,Jits_Linear_8,128,9999,9999,9999,1885365332
49,19,18,Jits_Linear_8,129,9999,9999,9999,1885935672
49,19,18,Jits_Linear_8,130,9999,9999,9999,1886495796
49,19,18,Jits_Linear_8,131,9999,9999,9999,1887055948
49,19,18,Jits_Linear_8,132,9999,9999,9999,1887616096
49,19,18,Jits_Linear_8,133,9999,9999,9999,1888185436
49,19,18,Jits_Linear_8,134,9999,9999,9999,1888745564
49,19,18,Jits_Linear_8,135,9999,9999,9999,1889295452
49,19,18,Jits_Linear_8,136,9999,9999,9999,1889845344
49,19,18,Jits_Linear_8,137,9999,9999,9999,1890395216
49,19,18,Jits_Linear_8,138,9999,9999,9999,1890945132
49,19,18,Jits_Linear_8,139,9999,9999,9999,1891496012
49,19,18,Jits_Linear_8,140,9999,9999,9999,1892035696
49,19,18,Jits_Linear_8,141,9999,9999,9999,1892575332
49,19,18,Jits_Linear_8,142,9999,9999,9999,1893115980
49,19,18,Jits_Linear_8,143,9999,9999,9999,1893655672
49,19,18,Jits_Linear_8,144,9999,9999,9999,1894195300
49,19,18,Jits_Linear_8,145,9999,9999,9999,1894725700
49,19,18,Jits_Linear_8,146,9999,9999,9999,1895255140
49,19,18,Jits_Linear_8,147,9999,9999,9999,1895785600
49,19,18,Jits_Linear_8,148,9999,9999,9999,1896315980
49,19,18,Jits_Linear_8,149,9999,9999,9999,1896845376
49,19,18,Jits_Linear_8,150,9999,9999,9999,1897365584
49,19,18,Jits_Linear_8,151,9999,9999,9999,1897885788
49,19,18,Jits_Linear_8,152,9999,9999,9999,1898405976
49,19,18,Jits_Linear_8,153,9999,9999,9999,1898925152
49,19,18,Jits_Linear_8,154,9999,9999,9999,1899445364
49,19,18,Jits_Linear_8,155,9999,9999,9999,1899955296
49,19,18,Jits_Linear_8,156,9999,9999,9999,1900465252
49,19,18,Jits_Linear_8,157,9999,9999,9999,1900975188
49,19,18,Jits_Linear_8,158,9999,9999,9999,1901485112
49,19,18,Jits_Linear_8,159,9999,9999,9999,1901995064
49,19,18,Jits_Linear_8,160,9999,9999,9999,1902495848
49,19,18,Jits_Linear_8,161,9999,9999,9999,1902995520
49,19,18,Jits_Linear_8,162,9999,9999,9999,1903495276
49,19,18,Jits_Linear_8,163,9999,9999,9999,1903995980
49,19,18,Jits_Linear_8,164,9999,9999,9999,1904495724
49,19,18,Jits_Linear_8,165,9999,9999,9999,1904985200
49,19,18,Jits_Linear_8,166,9999,9999,9999,1905475680
49,19,18,Jits_Linear_8,167,9999,9999,9999,1905965132
49,19,18,Jits_Linear_8,168,9999,9999,9999,1906455656
49,19,18,Jits_Linear_8,169,9999,9999,9999,1906945136
49,20,5,ISIP_5,0,5,42,127,1987789292
49,20,5,ISIP_5,1,5,42,127,1988288788
49,20,5,ISIP_5,2,1,48,36,1988310456
49,20,5,ISIP_5,3,1,48,56,1988771460
49,20,5,ISIP_5,4,5,42,127,1988788624
49,20,5,ISIP_5,5,1,48,58,1989232112
49,20,5,ISIP_5,6,5,42,127,1989289292
49,20,5,ISIP_5,7,1,48,42,1989738236
49,20,5,ISIP_5,8,5,42,127,1989789208
49,20,5,ISIP_5,9,1,48,38,1990229556
49,20,5,ISIP_5,10,5,42,127,1990288680
49,20,5,ISIP_5,11,1,48,30,1990728128
49,20,5,ISIP_5,12,5,42,127,1990788448
49,20,5,ISIP_5,13,1,48,29,1991211144
49,20,5,ISIP_5,14,5,42,127,1991289340
49,20,5,ISIP_5,15,1,48,39,1991740460
49,20,5,ISIP_5,16,5,42,127,1991789184
49,20,5,ISIP_5,17,1,48,37,1992231552
49,20,5,ISIP_5,18,5,42,127,1992288508
49,20,5,ISIP_5,19,1,48,22,1992729124
49,20,5,ISIP_5,20,5,42,127,1992789248
49,20,5,ISIP_5,21,1,48,34,1993243856
49,20,5,ISIP_5,22,5,42,127,1993289092
49,20,5,ISIP_5,23,1,48,30,1993738836
49,20,5,ISIP_5,24,5,42,127,1993789008
49,20,5,ISIP_5,25,1,48,27,1994235992
49,20,5,ISIP_5,26,5,42,127,1994288556
49,20,5,ISIP_5,27,1,48,31,1994739124
49,20,5,ISIP_5,28,5,42,127,1994789372
49,20,5,ISIP_5,29,1,48,21,1995275992
49,20,5,ISIP_5,30,5,42,127,1995289116
49,20,5,ISIP_5,31,1,48,19,1995750104
49,20,5,ISIP_5,32,5,42,127,1995788512
49,20,5,ISIP_5,33,1,48,35,1996211952
49,20,5,ISIP_5,34,5,42,127,1996289328
49,20,5,ISIP_5,35,1,48,27,1996734616
49,20,5,ISIP_5,36,5,42,127,1996789024
49,20,5,ISIP_5,37,1,48,21,1997258316
49,20,5,ISIP_5,38,5,42,127,1997288792
49,20,5,ISIP_5,39,1,48,29,1997737740
49,20,5,ISIP_5,40,5,42,127,1997788860
49,20,5,ISIP_5,41,1,48,40,1998222776
49,20,5,ISIP_5,42,5,42,127,1998289304
49,20,5,ISIP_5,43,5,42,127,1998788932
49,20,5,ISIP_5,44,1,48,53,1999096280
49,20,5,ISIP_5,45,5,42,127,1999288776
49,20,5,ISIP_5,46,1,48,46,1999465976
49,20,5,ISIP_5,47,5,42,127,1999789296
49,20,5,ISIP_5,48,1,48,51,1999881720
49,20,5,ISIP_5,49,5,42,127,2000288992
49,20,5,ISIP_5,50,1,48,50,2000302656
49,20,5,ISIP_5,51,1,48,52,2000760520
49,20,5,ISIP_5,52,5,42,127,2000788900
49,20,5,ISIP_5,53,1,48,43,2001261788
49,20,5,ISIP_5,54,5,42,127,2001288820
49,20,5,ISIP_5,55,5,42,127,2001789348
49,20,5,ISIP_5,56,5,42,127,2002288912
49,20,5,ISIP_5,57,1,48,45,2002303700
49,20,5,ISIP_5,58,1,48,48,2002769640
49,20,5,ISIP_5,59,5,42,127,2002788824
49,20,5,ISIP_5,60,5,42,127,2003288376
49,20,5,ISIP_5,61,1,48,42,2003306904
49,20,5,ISIP_5,62,1,48,40,2003785636
49,20,5,ISIP_5,63,5,42,127,2003789260
49,20,5,ISIP_5,64,5,42,127,2004288812
49,20,5,ISIP_5,65,1,48,48,2004320584
49,20,5,ISIP_5,66,5,42,127,2004788808
49,20,5,ISIP_5,67,1,48,45,2004795596
49,20,5,ISIP_5,68,1,48,43,2005243184
49,20,5,ISIP_5,69,5,42,127,2005289244
49,20,5,ISIP_5,70,1,48,53,2005745200
49,20,5,ISIP_5,71,5,42,127,2005788916
49,20,5,ISIP_5,72,1,48,50,2006253720
49,20,5,ISIP_5,73,5,42,127,2006288832
49,20,5,ISIP_5,74,1,48,49,2006779444
49,20,5,ISIP_5,75,5,42,127,2006788676
49,20,5,ISIP_5,76,1,48,53,2007268372
49,20,5,ISIP_5,77,5,42,127,2007289120
49,20,5,ISIP_5,78,1,48,43,2007778536
49,20,5,ISIP_5,79,1,48,47,2008884492
49,20,5,ISIP_5,80,1,48,45,2009295144
49,20,5,ISIP_5,81,1,48,49,2009704092
49,20,5,ISIP_5,82,1,48,47,2010135392
49,20,5,ISIP_5,83,1,48,50,2010553780
49,20,5,ISIP_5,84,1,48,51,2010977772
49,20,5,ISIP_5,85,1,48,44,2011426576
49,20,5,ISIP_5,86,1,48,46,2011838300
49,20,5,ISIP_5,87,1,48,48,2012271636
49,20,5,ISIP_5,88,1,48,49,2012699492
49,20,5,ISIP_5,89,1,48,46,2013097236
49,20,5,ISIP_5,90,1,48,43,2013529236
49,20,5,ISIP_5,91,1,48,35,2013953132
49,20,5,ISIP_5,92,1,48,42,2014359848
49,20,5,ISIP_5,93,1,48,48,2014768116
49,20,5,ISIP_5,94,1,48,46,2015201368
49,20,5,ISIP_5,95,1,48,42,2015638972
49,20,5,ISIP_5,96,1,48,45,2016061624
49,20,5,ISIP_5,97,1,48,47,2016443556
49,20,5,ISIP_5,98,1,48,49,2016858724
49,20,5,ISIP_5,99,1,48,43,2017270864
49,20,5,ISIP_5,100,1,48,40,2017688200
49,20,5,ISIP_5,101,1,48,43,2018078064
49,20,5,ISIP_5,102,1,48,46,2018469444
49,20,5,ISIP_5,103,1,48,47,2019265588
49,20,5,ISIP_5,104,1,48,52,2019641108
49,20,5,ISIP_5,105,1,48,59,2020053040
49,20,5,ISIP_5,106,1,48,42,2020460880
49,20,5,ISIP_5,107,1,48,49,2020857024
49,20,5,ISIP_5,108,1,48,48,2021203068
49,20,5,ISIP_5,109,1,48,38,2021607960
49,20,5,ISIP_5,110,1,48,53,2021977428
49,20,5,ISIP_5,111,1,48,57,2022385696
49,20,5,ISIP_5,112,1,48,48,2022765168
49,20,5,ISIP_5,113,1,48,58,2023155628
49,20,5,ISIP_5,114,1,48,64,2023528088
49,20,5,ISIP_5,115,1,48,65,2023885264
49,20,5,ISIP_5,116,1,48,57,2024248512
49,20,5,ISIP_5,117,1,48,58,2024605088
49,20,5,ISIP_5,118,1,48,44,2024897264
49,20,5,ISIP_5,119,1,48,43,2025252732
49,20,5,ISIP_5,120,1,48,32,2025619860
49,20,5,ISIP_5,121,1,48,36,2025938440
49,20,5,ISIP_5,122,1,48,57,2026302524
49,20,5,ISIP_5,123,1,48,52,2026653548
49,20,5,ISIP_5,124,1,48,54,2027020452
49,20,5,ISIP_5,125,1,48,55,2027420884
49,20,5,ISIP_5,126,1,48,51,2027827900
49,20,5,ISIP_5,127,1,48,47,2028262252
49,20,5,ISIP_5,128,1,48,51,2028615560
49,20,5,ISIP_5,129,1,48,74,2029013728
49,20,5,ISIP_5,130,1,48,73,2029373320
49,20,5,ISIP_5,131,1,48,77,2029726448
49,20,5,ISIP_5,132,1,48,68,2030086840
49,20,5,ISIP_5,133,1,48,58,2030447480
49,20,5,ISIP_5,134,1,48,27,2030822684
49,20,5,ISIP_5,135,1,48,59,2031172692
49,20,5,ISIP_5,136,1,48,74,2031515132
49,20,5,ISIP_5,137,1,48,61,2031865876
49,20,5,ISIP_5,138,1,48,60,2032184092
49,20,5,ISIP_5,139,1,48,56,2032531020
49,20,5,ISIP_5,140,1,48,64,2032856780
49,20,5,ISIP_5,141,1,48,57,2033182080
49,20,5,ISIP_5,142,1,48,55,2033494776
49,20,5,ISIP_5,143,1,48,64,2033790320
49,20,5,ISIP_5,144,1,48,52,2034108960
49,20,5,ISIP_5,145,1,48,74,2034396576
49,20,5,ISIP_5,146,1,48,54,2034691052
49,20,5,ISIP_5,147,1,48,52,2034998592
49,20,5,ISIP_5,148,1,48,64,2035303636
49,20,5,ISIP_5,149,1,48,64,2035598112
49,20,5,ISIP_5,150,1,48,65,2035893436
49,20,5,ISIP_5,151,1,48,56,2036175720
49,20,5,ISIP_5,152,1,48,61,2036474628
49,20,5,ISIP_5,153,1,48,45,2036724760
49,20,5,ISIP_5,154,1,48,52,2037059440
49,20,5,ISIP_5,155,1,48,55,2037348928
49,20,5,ISIP_5,156,1,48,67,2037642812
49,20,5,ISIP_5,157,1,48,64,2037999240
49,20,5,ISIP_5,158,1,48,63,2038382920
49,20,5,ISIP_5,159,1,48,75,2038742848
49,20,5,ISIP_5,160,1,48,68,2039145752
49,20,5,ISIP_5,161,1,48,57,2039509656
49,20,5,ISIP_5,162,1,48,69,2039909120
49,20,5,ISIP_5,163,1,48,77,2040258128
49,20,5,ISIP_5,164,1,48,58,2040629988
49,20,5,ISIP_5,165,1,48,46,2041032196
49,20,5,ISIP_5,166,1,48,58,2041403008
49,20,5,ISIP_5,167,1,48,80,2041773932
49,20,5,ISIP_5,168,1,48,72,2042141732
49,20,5,ISIP_5,169,1,48,75,2042489280
49,20,5,ISIP_5,170,1,48,85,2042858424
49,20,5,ISIP_5,171,1,48,75,2043236180
49,20,5,ISIP_5,172,1,48,60,2043622456
49,20,5,ISIP_5,173,1,48,92,2043975164
49,20,5,ISIP_5,174,1,48,103,2044611812
49,20,5,ISIP_5,175,1,38,21,2044621812
49,20,5,ISIP_5,176,1,48,91,2044980784
49,20,5,ISIP_5,177,1,48,97,2045321428
49,20,5,ISIP_5,178,1,38,20,2045331804
49,20,5,ISIP_5,179,1,48,80,2045660592
49,20,5,ISIP_5,180,1,38,19,2045670524
49,20,5,ISIP_5,181,1,48,79,2045979572
49,20,5,ISIP_5,182,1,48,73,2046300424
49,20,5,ISIP_5,183,1,48,73,2046587352
49,20,5,ISIP_5,184,1,48,55,2046872268
49,20,5,ISIP_5,185,1,48,54,2047150820
49,20,5,ISIP_5,186,1,48,69,2047423028
49,20,5,ISIP_5,187,1,48,74,2047699332
49,20,5,ISIP_5,188,1,48,80,2047973560
49,20,5,ISIP_5,189,1,48,76,2048301808
49,20,5,ISIP_5,190,1,48,68,2048649920
49,20,5,ISIP_5,191,1,48,74,2049060752
49,20,5,ISIP_5,192,1,48,68,2049409628
49,20,5,ISIP_5,193,1,48,81,2049763576
49,20,5,ISIP_5,194,1,48,81,2050116812
49,20,5,ISIP_5,195,1,48,64,2050468748
49,20,5,ISIP_5,196,1,48,72,2050816500
49,20,5,ISIP_5,197,1,48,84,2051147656
49,20,5,ISIP_5,198,1,48,75,2051492564
49,20,5,ISIP_5,199,1,48,89,2051827828
49,20,5,ISIP_5,200,1,48,78,2052180896
49,20,5,ISIP_5,201,1,48,55,2052549068
49,20,5,ISIP_5,202,1,48,79,2052897344
49,20,5,ISIP_5,203,1,48,66,2053238952
49,20,5,ISIP_5,204,1,48,62,2053604348
49,20,5,ISIP_5,205,1,48,59,2053933728
49,20,5,ISIP_5,206,1,48,52,2054190588
49,20,5,ISIP_5,207,1,48,46,2054503032
49,20,5,ISIP_5,208,1,48,59,2054876140
49,20,5,ISIP_5,209,1,48,43,2055204160
49,20,5,ISIP_5,210,1,48,57,2055515484
49,20,5,ISIP_5,211,1,48,68,2055885004
49,20,5,ISIP_5,212,1,48,55,2056217328
49,20,5,ISIP_5,213,1,48,57,2056528824
49,20,5,ISIP_5,214,1,48,39,2056908296
49,20,5,ISIP_5,215,1,48,66,2057268920
49,20,5,ISIP_5,216,1,48,60,2057594088
49,20,5,ISIP_5,217,1,48,78,2057934284
49,20,5,ISIP_5,218,1,48,84,2058287068
49,20,5,ISIP_5,219,1,48,61,2058604364
49,20,5,ISIP_5,220,1,48,74,2058931996
49,20,5,ISIP_5,221,1,48,60,2059257300
49,20,5,ISIP_5,222,1,48,78,2059564004
49,20,5,ISIP_5,223,1,48,97,2059878100
49,20,5,ISIP_5,224,1,48,72,2060186872
49,20,5,ISIP_5,225,1,48,85,2060520784
49,20,5,ISIP_5,226,1,48,98,2060840436
49,20,5,ISIP_5,227,1,48,93,2061171268
49,20,5,ISIP_5,228,1,48,101,2061483564
49,20,5,ISIP_5,229,1,48,92,2061812772
49,20,5,ISIP_5,230,1,48,91,2062127172
49,20,5,ISIP_5,231,1,48,105,2062451960
49,20,5,ISIP_5,232,1,48,117,2062796568
49,20,5,ISIP_5,233,1,48,106,2063102344
49,20,5,ISIP_5,234,1,48,94,2063449068
49,20,5,ISIP_5,235,1,48,96,2063817468
49,20,5,ISIP_5,236,1,48,94,2064187072
49,20,5,ISIP_5,237,1,48,95,2064565788
49,20,5,ISIP_5,238,1,48,83,2064952160
49,20,5,ISIP_5,239,1,48,76,2065306048
49,20,5,ISIP_5,240,1,48,90,2065677196
49,20,5,ISIP_5,241,1,48,88,2066070372
49,20,5,ISIP_5,242,1,48,87,2066433536
49,20,5,ISIP_5,243,1,48,70,2066817068
49,20,5,ISIP_5,244,1,48,71,2067211552
49,20,5,ISIP_5,245,1,48,103,2067587376
49,20,5,ISIP_5,0,9999,9999,9999,1987786856
49,20,5,ISIP_5,1,9999,9999,9999,1988286576
49,20,5,ISIP_5,2,9999,9999,9999,1988786264
49,20,5,ISIP_5,3,9999,9999,9999,1989287004
49,20,5,ISIP_5,4,9999,9999,9999,1989786700
49,20,5,ISIP_5,5,9999,9999,9999,1990286392
49,20,5,ISIP_5,6,9999,9999,9999,1990786164
49,20,5,ISIP_5,7,9999,9999,9999,1991286904
49,20,5,ISIP_5,8,9999,9999,9999,1991786600
49,20,5,ISIP_5,9,9999,9999,9999,1992286296
49,20,5,ISIP_5,10,9999,9999,9999,1992787036
49,20,5,ISIP_5,11,9999,9999,9999,1993286732
49,20,5,ISIP_5,12,9999,9999,9999,1993786424
49,20,5,ISIP_5,13,9999,9999,9999,1994286192
49,20,5,ISIP_5,14,9999,9999,9999,1994786912
49,20,5,ISIP_5,15,9999,9999,9999,1995286604
49,20,5,ISIP_5,16,9999,9999,9999,1995786300
49,20,5,ISIP_5,17,9999,9999,9999,1996287040
49,20,5,ISIP_5,18,9999,9999,9999,1996786740
49,20,5,ISIP_5,19,9999,9999,9999,1997286508
49,20,5,ISIP_5,20,9999,9999,9999,1997786204
49,20,5,ISIP_5,21,9999,9999,9999,1998286944
49,20,5,ISIP_5,22,9999,9999,9999,1998786644
49,20,5,ISIP_5,23,9999,9999,9999,1999286344
49,20,5,ISIP_5,24,9999,9999,9999,1999787084
49,20,5,ISIP_5,25,9999,9999,9999,2000286776
49,20,5,ISIP_5,26,9999,9999,9999,2000786540
49,20,5,ISIP_5,27,9999,9999,9999,2001286236
49,20,5,ISIP_5,28,9999,9999,9999,2001786984
49,20,5,ISIP_5,29,9999,9999,9999,2002286700
49,20,5,ISIP_5,30,9999,9999,9999,2002786388
49,20,5,ISIP_5,31,9999,9999,9999,2003286092
49,20,5,ISIP_5,32,9999,9999,9999,2003786824
49,20,5,ISIP_5,33,9999,9999,9999,2004286528
49,20,5,ISIP_5,34,9999,9999,9999,2004786224
49,20,5,ISIP_5,35,9999,9999,9999,2005287032
49,20,5,ISIP_5,36,9999,9999,9999,2005786704
49,20,5,ISIP_5,37,9999,9999,9999,2006286396
49,20,5,ISIP_5,38,9999,9999,9999,2006786168
49,20,5,ISIP_5,39,9999,9999,9999,2007286836
49,20,5,ISIP_5,40,9999,9999,9999,2007786604
49,20,5,ISIP_5,41,9999,9999,9999,2008286300
49,20,5,ISIP_5,42,9999,9999,9999,2008787060
49,20,5,ISIP_5,43,9999,9999,9999,2009286752
49,20,5,ISIP_5,44,9999,9999,9999,2009786436
49,20,5,ISIP_5,45,9999,9999,9999,2010286184
49,20,5,ISIP_5,46,9999,9999,9999,2010786924
49,20,5,ISIP_5,47,9999,9999,9999,2011286616
49,20,5,ISIP_5,48,9999,9999,9999,2011786304
49,20,5,ISIP_5,49,9999,9999,9999,2012287036
49,20,5,ISIP_5,50,9999,9999,9999,2012786800
49,20,5,ISIP_5,51,9999,9999,9999,2013286476
49,20,5,ISIP_5,52,9999,9999,9999,2013786164
49,20,5,ISIP_5,53,9999,9999,9999,2014286900
49,20,5,ISIP_5,54,9999,9999,9999,2014786660
49,20,5,ISIP_5,55,9999,9999,9999,2015286352
49,20,5,ISIP_5,56,9999,9999,9999,2015787072
49,20,5,ISIP_5,57,9999,9999,9999,2016286812
49,20,5,ISIP_5,58,9999,9999,9999,2016786504
49,20,5,ISIP_5,59,9999,9999,9999,2017286264
49,20,5,ISIP_5,60,9999,9999,9999,2017786984
49,20,5,ISIP_5,61,9999,9999,9999,2018286672
49,20,5,ISIP_5,62,9999,9999,9999,2018786364
49,20,5,ISIP_5,63,9999,9999,9999,2019286072
49,20,5,ISIP_5,64,9999,9999,9999,2019786868
49,20,5,ISIP_5,65,9999,9999,9999,2020286556
49,20,5,ISIP_5,66,9999,9999,9999,2020786248
49,20,5,ISIP_5,67,9999,9999,9999,2021286980
49,20,5,ISIP_5,68,9999,9999,9999,2021786728
49,20,5,ISIP_5,69,9999,9999,9999,2022286420
49,20,5,ISIP_5,70,9999,9999,9999,2022786104
49,20,5,ISIP_5,71,9999,9999,9999,2023286900
49,20,5,ISIP_5,72,9999,9999,9999,2023786588
49,20,5,ISIP_5,73,9999,9999,9999,2024286276
49,20,5,ISIP_5,74,9999,9999,9999,2024787000
49,20,5,ISIP_5,75,9999,9999,9999,2025286760
49,20,5,ISIP_5,76,9999,9999,9999,2025786432
49,20,5,ISIP_5,77,9999,9999,9999,2026286200
49,20,5,ISIP_5,78,9999,9999,9999,2026786916
49,20,5,ISIP_5,79,9999,9999,9999,2027286580
49,20,5,ISIP_5,80,9999,9999,9999,2027786344
49,20,5,ISIP_5,81,9999,9999,9999,2028287076
49,20,5,ISIP_5,82,9999,9999,9999,2028786752
49,20,5,ISIP_5,83,9999,9999,9999,2029286516
49,20,5,ISIP_5,84,9999,9999,9999,2029786204
49,20,5,ISIP_5,85,9999,9999,9999,2030286924
49,20,5,ISIP_5,86,9999,9999,9999,2030786616
49,20,5,ISIP_5,87,9999,9999,9999,2031286360
49,20,5,ISIP_5,88,9999,9999,9999,2031787096
49,20,5,ISIP_5,89,9999,9999,9999,2032286840
49,20,5,ISIP_5,90,9999,9999,9999,2032786532
49,20,5,ISIP_5,91,9999,9999,9999,2033286200
49,20,5,ISIP_5,92,9999,9999,9999,2033786936
49,20,5,ISIP_5,93,9999,9999,9999,2034286680
49,20,5,ISIP_5,94,9999,9999,9999,2034786364
49,20,5,ISIP_5,95,9999,9999,9999,2035286116
49,20,5,ISIP_5,96,9999,9999,9999,2035786832
49,20,5,ISIP_5,97,9999,9999,9999,2036286572
49,20,5,ISIP_5,98,9999,9999,9999,2036786256
49,20,5,ISIP_5,99,9999,9999,9999,2037286980
49,20,5,ISIP_5,100,9999,9999,9999,2037786700
49,20,5,ISIP_5,101,9999,9999,9999,2038286388
49,20,5,ISIP_5,102,9999,9999,9999,2038786148
49,20,5,ISIP_5,103,9999,9999,9999,2039286868
49,20,5,ISIP_5,104,9999,9999,9999,2039786560
49,20,5,ISIP_5,105,9999,9999,9999,2040286320
49,20,5,ISIP_5,106,9999,9999,9999,2040787040
49,20,5,ISIP_5,107,9999,9999,9999,2041286732
49,20,5,ISIP_5,108,9999,9999,9999,2041786416
49,20,5,ISIP_5,109,9999,9999,9999,2042286164
49,20,5,ISIP_5,110,9999,9999,9999,2042786904
49,20,5,ISIP_5,111,9999,9999,9999,2043286588
49,20,5,ISIP_5,112,9999,9999,9999,2043786336
49,20,5,ISIP_5,113,9999,9999,9999,2044287072
49,20,5,ISIP_5,114,9999,9999,9999,2044786792
49,20,5,ISIP_5,115,9999,9999,9999,2045286480
49,20,5,ISIP_5,116,9999,9999,9999,2045786208
49,20,5,ISIP_5,117,9999,9999,9999,2046286944
49,20,5,ISIP_5,118,9999,9999,9999,2046786612
49,20,5,ISIP_5,119,9999,9999,9999,2047286356
49,20,5,ISIP_5,120,9999,9999,9999,2047787084
49,20,5,ISIP_5,121,9999,9999,9999,2048286812
49,20,5,ISIP_5,122,9999,9999,9999,2048786480
49,20,5,ISIP_5,123,9999,9999,9999,2049286244
49,20,5,ISIP_5,124,9999,9999,9999,2049786976
49,20,5,ISIP_5,125,9999,9999,9999,2050286652
49,20,5,ISIP_5,126,9999,9999,9999,2050786416
49,20,5,ISIP_5,127,9999,9999,9999,2051286084
49,20,5,ISIP_5,128,9999,9999,9999,2051786820
49,20,5,ISIP_5,129,9999,9999,9999,2052286564
49,20,5,ISIP_5,130,9999,9999,9999,2052786256
49,20,5,ISIP_5,131,9999,9999,9999,2053286960
49,20,5,ISIP_5,132,9999,9999,9999,2053786708
49,20,5,ISIP_5,133,9999,9999,9999,2054286452
49,20,5,ISIP_5,134,9999,9999,9999,2054786144
49,20,5,ISIP_5,135,9999,9999,9999,2055286876
49,20,5,ISIP_5,136,9999,9999,9999,2055786552
49,20,5,ISIP_5,137,9999,9999,9999,2056286308
49,20,5,ISIP_5,138,9999,9999,9999,2056787032
49,20,5,ISIP_5,139,9999,9999,9999,2057286716
49,20,5,ISIP_5,140,9999,9999,9999,2057786468
49,20,5,ISIP_5,141,9999,9999,9999,2058286160
49,20,5,ISIP_5,142,9999,9999,9999,2058786876
49,20,5,ISIP_5,143,9999,9999,9999,2059286608
49,20,5,ISIP_5,144,9999,9999,9999,2059786360
49,20,5,ISIP_5,145,9999,9999,9999,2060287072
49,20,5,ISIP_5,146,9999,9999,9999,2060786764
49,20,5,ISIP_5,147,9999,9999,9999,2061286508
49,20,5,ISIP_5,148,9999,9999,9999,2061786200
49,20,5,ISIP_5,149,9999,9999,9999,2062286912
49,20,5,ISIP_5,150,9999,9999,9999,2062786680
49,20,5,ISIP_5,151,9999,9999,9999,2063286348
49,20,5,ISIP_5,152,9999,9999,9999,2063787084
49,20,5,ISIP_5,153,9999,9999,9999,2064286828
49,20,5,ISIP_5,154,9999,9999,9999,2064786520
49,20,5,ISIP_5,155,9999,9999,9999,2065286208
49,20,5,ISIP_5,156,9999,9999,9999,2065787000
49,20,5,ISIP_5,157,9999,9999,9999,2066286692
49,20,5,ISIP_5,158,9999,9999,9999,2066786380
49,20,5,ISIP_5,159,9999,9999,9999,2067286064
49,21,3,ISIP_8,0,5,42,127,2090541464
49,21,3,ISIP_8,1,1,48,77,2091113988
49,21,3,ISIP_8,2,5,42,127,2091342316
49,21,3,ISIP_8,3,1,48,87,2091643084
49,21,3,ISIP_8,4,5,42,127,2092141828
49,21,3,ISIP_8,5,1,48,72,2092156016
49,21,3,ISIP_8,6,5,42,127,2092941636
49,21,3,ISIP_8,7,1,48,70,2093198716
49,21,3,ISIP_8,8,5,42,127,2093741292
49,21,3,ISIP_8,9,1,48,56,2093758624
49,21,3,ISIP_8,10,1,48,43,2094519068
49,21,3,ISIP_8,11,5,42,127,2094542068
49,21,3,ISIP_8,12,1,48,19,2095291952
49,21,3,ISIP_8,13,5,42,127,2095342172
49,21,3,ISIP_8,14,1,48,40,2096067224
49,21,3,ISIP_8,15,5,42,127,2096141536
49,21,3,ISIP_8,16,1,48,52,2096846240
49,21,3,ISIP_8,17,5,42,127,2096941276
49,21,3,ISIP_8,18,5,42,127,2097742228
49,21,3,ISIP_8,19,5,42,127,2098542132
49,21,3,ISIP_8,20,1,48,69,2099089376
49,21,3,ISIP_8,21,5,42,127,2099341792
49,21,3,ISIP_8,22,1,48,64,2099947156
49,21,3,ISIP_8,23,5,42,127,2100141452
49,21,3,ISIP_8,24,1,48,70,2100767040
49,21,3,ISIP_8,25,5,42,127,2100942308
49,21,3,ISIP_8,26,5,42,127,2101742060
49,21,3,ISIP_8,27,1,48,59,2101987248
49,21,3,ISIP_8,28,5,42,127,2102541644
49,21,3,ISIP_8,29,1,48,74,2102548424
49,21,3,ISIP_8,30,1,48,61,2103288908
49,21,3,ISIP_8,31,5,42,127,2103341544
49,21,3,ISIP_8,32,1,48,61,2104012416
49,21,3,ISIP_8,33,5,42,127,2104142160
49,21,3,ISIP_8,34,5,42,127,2104941916
49,21,3,ISIP_8,35,1,48,73,2105078696
49,21,3,ISIP_8,36,1,48,63,2105707876
49,21,3,ISIP_8,37,5,42,127,2105741864
49,21,3,ISIP_8,38,1,48,50,2106398404
49,21,3,ISIP_8,39,5,42,127,2106541360
49,21,3,ISIP_8,40,1,48,67,2107178464
49,21,3,ISIP_8,41,5,42,127,2107342068
49,21,3,ISIP_8,42,1,48,39,2107986128
49,21,3,ISIP_8,43,5,42,127,2108141948
49,21,3,ISIP_8,44,1,48,39,2108686128
49,21,3,ISIP_8,45,5,42,127,2108941756
49,21,3,ISIP_8,46,1,48,59,2109582076
49,21,3,ISIP_8,47,5,42,127,2109741292
49,21,3,ISIP_8,48,1,48,50,2110375828
49,21,3,ISIP_8,49,5,42,127,2110542224
49,21,3,ISIP_8,50,1,48,53,2111143620
49,21,3,ISIP_8,51,5,42,127,2111341884
49,21,3,ISIP_8,52,1,48,42,2111988912
49,21,3,ISIP_8,53,5,42,127,2112141688
49,21,3,ISIP_8,54,1,48,54,2112710476
49,21,3,ISIP_8,55,5,42,127,2112941644
49,21,3,ISIP_8,56,1,48,43,2113545592
49,21,3,ISIP_8,57,5,42,127,2113742128
49,21,3,ISIP_8,58,1,48,53,2114404064
49,21,3,ISIP_8,59,1,48,19,2115216060
49,21,3,ISIP_8,60,1,48,51,2115884668
49,21,3,ISIP_8,61,1,48,48,2116628576
49,21,3,ISIP_8,62,1,48,45,2117483152
49,21,3,ISIP_8,63,1,48,44,2118249000
49,21,3,ISIP_8,64,1,48,51,2118916984
49,21,3,ISIP_8,65,1,48,53,2119772688
49,21,3,ISIP_8,66,1,48,40,2120549532
49,21,3,ISIP_8,67,1,48,43,2121262864
49,21,3,ISIP_8,68,1,48,51,2121933616
49,21,3,ISIP_8,69,1,48,50,2122637532
49,21,3,ISIP_8,70,1,48,14,2123400984
49,21,3,ISIP_8,71,1,48,53,2123947560
49,21,3,ISIP_8,72,1,48,48,2124723356
49,21,3,ISIP_8,73,1,48,48,2125372064
49,21,3,ISIP_8,74,1,48,51,2126077820
49,21,3,ISIP_8,75,1,48,47,2126792736
49,21,3,ISIP_8,76,1,48,54,2127447280
49,21,3,ISIP_8,77,1,48,42,2128168692
49,21,3,ISIP_8,78,1,48,43,2128852152
49,21,3,ISIP_8,79,1,48,44,2129548880
49,21,3,ISIP_8,80,1,48,43,2130215996
49,21,3,ISIP_8,81,1,48,42,2130869992
49,21,3,ISIP_8,82,1,48,43,2131516384
49,21,3,ISIP_8,83,1,48,51,2132277892
49,21,3,ISIP_8,84,1,48,26,2133157804
49,21,3,ISIP_8,85,1,48,49,2133840108
49,21,3,ISIP_8,86,1,48,39,2134553192
49,21,3,ISIP_8,87,1,48,54,2135172644
49,21,3,ISIP_8,88,1,48,36,2135997584
49,21,3,ISIP_8,89,1,48,38,2136679504
49,21,3,ISIP_8,90,1,48,44,2137377060
49,21,3,ISIP_8,91,1,48,40,2138125752
49,21,3,ISIP_8,92,1,48,40,2138796604
49,21,3,ISIP_8,93,1,48,39,2139484364
49,21,3,ISIP_8,94,1,48,51,2140186452
49,21,3,ISIP_8,95,1,48,43,2140878756
49,21,3,ISIP_8,96,1,48,42,2141572428
49,21,3,ISIP_8,97,1,48,38,2142271628
49,21,3,ISIP_8,98,1,48,44,2142928392
49,21,3,ISIP_8,99,1,48,48,2143869588
49,21,3,ISIP_8,100,1,48,43,2144519324
49,21,3,ISIP_8,101,1,48,51,2145176040
49,21,3,ISIP_8,102,1,48,44,2145944804
49,21,3,ISIP_8,103,1,48,40,2146591796
49,21,3,ISIP_8,104,1,48,40,2147243980
49,21,3,ISIP_8,105,1,48,42,2147899052
49,21,3,ISIP_8,106,1,48,44,2148582448
49,21,3,ISIP_8,107,1,48,43,2149324132
49,21,3,ISIP_8,108,1,48,46,2150040160
49,21,3,ISIP_8,109,1,48,35,2150725520
49,21,3,ISIP_8,110,1,48,47,2151412656
49,21,3,ISIP_8,111,1,48,55,2152071752
49,21,3,ISIP_8,112,1,48,50,2152746048
49,21,3,ISIP_8,113,1,48,43,2153438716
49,21,3,ISIP_8,114,1,48,37,2154137464
49,21,3,ISIP_8,115,1,48,21,2154946776
49,21,3,ISIP_8,116,1,48,21,2155630864
49,21,3,ISIP_8,117,1,48,37,2156281496
49,21,3,ISIP_8,118,1,48,35,2156934980
49,21,3,ISIP_8,119,1,48,27,2157559884
49,21,3,ISIP_8,120,1,48,27,2158122800
49,21,3,ISIP_8,121,1,48,48,2158658544
49,21,3,ISIP_8,122,1,48,44,2159199440
49,21,3,ISIP_8,123,1,48,35,2159694784
49,21,3,ISIP_8,124,1,48,46,2160238160
49,21,3,ISIP_8,125,1,48,29,2160742476
49,21,3,ISIP_8,126,1,48,50,2161739848
49,21,3,ISIP_8,127,1,48,50,2162332656
49,21,3,ISIP_8,128,1,48,55,2162893012
49,21,3,ISIP_8,129,1,48,46,2163448428
49,21,3,ISIP_8,130,1,48,59,2163911228
49,21,3,ISIP_8,131,1,48,68,2164392968
49,21,3,ISIP_8,132,1,48,50,2164882472
49,21,3,ISIP_8,133,1,48,53,2165501092
49,21,3,ISIP_8,134,1,48,73,2166226320
49,21,3,ISIP_8,135,1,48,127,2167066536
49,21,3,ISIP_8,136,1,48,48,2167897164
49,21,3,ISIP_8,137,1,48,71,2168672128
49,21,3,ISIP_8,138,1,48,54,2169378964
49,21,3,ISIP_8,139,1,48,51,2170037300
49,21,3,ISIP_8,140,1,48,58,2170579920
49,21,3,ISIP_8,141,1,48,55,2171349804
49,21,3,ISIP_8,142,1,48,49,2172107484
49,21,3,ISIP_8,143,1,48,53,2172837132
49,21,3,ISIP_8,144,1,48,53,2173465396
49,21,3,ISIP_8,145,1,48,54,2173980196
49,21,3,ISIP_8,146,1,48,49,2174630680
49,21,3,ISIP_8,147,1,48,17,2174732156
49,21,3,ISIP_8,148,1,48,45,2175338000
49,21,3,ISIP_8,149,1,48,41,2176010772
49,21,3,ISIP_8,150,1,48,37,2176637196
49,21,3,ISIP_8,151,1,48,52,2177230676
49,21,3,ISIP_8,152,1,48,40,2177789460
49,21,3,ISIP_8,153,1,48,46,2178354760
49,21,3,ISIP_8,154,1,48,38,2178964400
49,21,3,ISIP_8,155,1,48,48,2179555500
49,21,3,ISIP_8,156,1,48,37,2180277884
49,21,3,ISIP_8,157,1,48,39,2180927932
49,21,3,ISIP_8,158,1,48,49,2181534352
49,21,3,ISIP_8,159,1,48,46,2182157308
49,21,3,ISIP_8,160,1,48,35,2182811860
49,21,3,ISIP_8,161,1,48,32,2183499092
49,21,3,ISIP_8,162,1,48,40,2184156236
49,21,3,ISIP_8,163,1,48,43,2184797076
49,21,3,ISIP_8,164,1,48,16,2185511092
49,21,3,ISIP_8,165,1,48,49,2186168752
49,21,3,ISIP_8,166,1,48,27,2186837140
49,21,3,ISIP_8,167,1,48,40,2187495552
49,21,3,ISIP_8,168,1,48,34,2188156600
49,21,3,ISIP_8,169,1,48,48,2188850028
49,21,3,ISIP_8,170,1,48,41,2189523100
49,21,3,ISIP_8,171,1,48,48,2190172108
49,21,3,ISIP_8,172,1,48,48,2190861936
49,21,3,ISIP_8,173,1,48,47,2191492548
49,21,3,ISIP_8,174,1,48,43,2192166396
49,21,3,ISIP_8,175,1,48,40,2192831528
49,21,3,ISIP_8,176,1,48,40,2193493548
49,21,3,ISIP_8,177,1,48,44,2194151212
49,21,3,ISIP_8,178,1,48,53,2194780480
49,21,3,ISIP_8,179,1,48,38,2195383764
49,21,3,ISIP_8,180,1,48,44,2196089232
49,21,3,ISIP_8,181,1,48,48,2196726852
49,21,3,ISIP_8,182,1,48,48,2197382520
49,21,3,ISIP_8,183,1,48,39,2198008540
49,21,3,ISIP_8,184,1,48,25,2198657404
49,21,3,ISIP_8,185,1,48,40,2199328916
49,21,3,ISIP_8,186,1,48,38,2199986952
49,21,3,ISIP_8,187,1,48,36,2200640152
49,21,3,ISIP_8,188,1,48,43,2201224516
49,21,3,ISIP_8,189,1,48,40,2201909728
49,21,3,ISIP_8,190,1,48,24,2202581752
49,21,3,ISIP_8,191,1,48,51,2203267772
49,21,3,ISIP_8,192,1,48,30,2203999212
49,21,3,ISIP_8,193,1,48,23,2204059400
49,21,3,ISIP_8,194,1,48,47,2204925924
49,21,3,ISIP_8,195,1,48,40,2205553544
49,21,3,ISIP_8,196,1,48,49,2206161468
49,21,3,ISIP_8,197,1,48,40,2206802252
49,21,3,ISIP_8,198,1,48,38,2207527260
49,21,3,ISIP_8,199,1,48,43,2208190156
49,21,3,ISIP_8,200,1,48,57,2208853368
49,21,3,ISIP_8,201,1,48,59,2209463608
49,21,3,ISIP_8,202,1,48,43,2210091528
49,21,3,ISIP_8,0,9999,9999,9999,2090539100
49,21,3,ISIP_8,1,9999,9999,9999,2091339880
49,21,3,ISIP_8,2,9999,9999,9999,2092139612
49,21,3,ISIP_8,3,9999,9999,9999,2092939344
49,21,3,ISIP_8,4,9999,9999,9999,2093739080
49,21,3,ISIP_8,5,9999,9999,9999,2094539852
49,21,3,ISIP_8,6,9999,9999,9999,2095339588
49,21,3,ISIP_8,7,9999,9999,9999,2096139320
49,21,3,ISIP_8,8,9999,9999,9999,2096939064
49,21,3,ISIP_8,9,9999,9999,9999,2097739864
49,21,3,ISIP_8,10,9999,9999,9999,2098539620
49,21,3,ISIP_8,11,9999,9999,9999,2099339356
49,21,3,ISIP_8,12,9999,9999,9999,2100139088
49,21,3,ISIP_8,13,9999,9999,9999,2100939868
49,21,3,ISIP_8,14,9999,9999,9999,2101739624
49,21,3,ISIP_8,15,9999,9999,9999,2102539356
49,21,3,ISIP_8,16,9999,9999,9999,2103339108
49,21,3,ISIP_8,17,9999,9999,9999,2104139872
49,21,3,ISIP_8,18,9999,9999,9999,2104939628
49,21,3,ISIP_8,19,9999,9999,9999,2105739356
49,21,3,ISIP_8,20,9999,9999,9999,2106539072
49,21,3,ISIP_8,21,9999,9999,9999,2107339852
49,21,3,ISIP_8,22,9999,9999,9999,2108139584
49,21,3,ISIP_8,23,9999,9999,9999,2108939320
49,21,3,ISIP_8,24,9999,9999,9999,2109739076
49,21,3,ISIP_8,25,9999,9999,9999,2110539860
49,21,3,ISIP_8,26,9999,9999,9999,2111339592
49,21,3,ISIP_8,27,9999,9999,9999,2112139324
49,21,3,ISIP_8,28,9999,9999,9999,2112939060
49,21,3,ISIP_8,29,9999,9999,9999,2113739836
49,21,3,ISIP_8,30,9999,9999,9999,2114539572
49,21,3,ISIP_8,31,9999,9999,9999,2115339376
49,21,3,ISIP_8,32,9999,9999,9999,2116139056
49,21,3,ISIP_8,33,9999,9999,9999,2116939832
49,21,3,ISIP_8,34,9999,9999,9999,2117739636
49,21,3,ISIP_8,35,9999,9999,9999,2118539364
49,21,3,ISIP_8,36,9999,9999,9999,2119339092
49,21,3,ISIP_8,37,9999,9999,9999,2120139868
49,21,3,ISIP_8,38,9999,9999,9999,2120939600
49,21,3,ISIP_8,39,9999,9999,9999,2121739328
49,21,3,ISIP_8,40,9999,9999,9999,2122539080
49,21,3,ISIP_8,41,9999,9999,9999,2123339856
49,21,3,ISIP_8,42,9999,9999,9999,2124139640
49,21,3,ISIP_8,43,9999,9999,9999,2124939368
49,21,3,ISIP_8,44,9999,9999,9999,2125739096
49,21,3,ISIP_8,45,9999,9999,9999,2126539872
49,21,3,ISIP_8,46,9999,9999,9999,2127339604
49,21,3,ISIP_8,47,9999,9999,9999,2128139332
49,21,3,ISIP_8,48,9999,9999,9999,2128939080
49,21,3,ISIP_8,49,9999,9999,9999,2129739840
49,21,3,ISIP_8,50,9999,9999,9999,2130539568
49,21,3,ISIP_8,51,9999,9999,9999,2131339372
49,21,3,ISIP_8,52,9999,9999,9999,2132139100
49,21,3,ISIP_8,53,9999,9999,9999,2132939880
49,21,3,ISIP_8,54,9999,9999,9999,2133739608
49,21,3,ISIP_8,55,9999,9999,9999,2134539336
49,21,3,ISIP_8,56,9999,9999,9999,2135339068
49,21,3,ISIP_8,57,9999,9999,9999,2136139844
49,21,3,ISIP_8,58,9999,9999,9999,2136939576
49,21,3,ISIP_8,59,9999,9999,9999,2137739380
49,21,3,ISIP_8,60,9999,9999,9999,2138539108
49,21,3,ISIP_8,61,9999,9999,9999,2139339884
49,21,3,ISIP_8,62,9999,9999,9999,2140139612
49,21,3,ISIP_8,63,9999,9999,9999,2140939336
49,21,3,ISIP_8,64,9999,9999,9999,2141739072
49,21,3,ISIP_8,65,9999,9999,9999,2142539848
49,21,3,ISIP_8,66,9999,9999,9999,2143339580
49,21,3,ISIP_8,67,9999,9999,9999,2144139384
49,21,3,ISIP_8,68,9999,9999,9999,2144939112
49,21,3,ISIP_8,69,9999,9999,9999,2145739888
49,21,3,ISIP_8,70,9999,9999,9999,2146539616
49,21,3,ISIP_8,71,9999,9999,9999,2147339324
49,21,3,ISIP_8,72,9999,9999,9999,2148139080
49,21,3,ISIP_8,73,9999,9999,9999,2148939856
49,21,3,ISIP_8,74,9999,9999,9999,2149739584
49,21,3,ISIP_8,75,9999,9999,9999,2150539312
49,21,3,ISIP_8,76,9999,9999,9999,2151339116
49,21,3,ISIP_8,77,9999,9999,9999,2152139884
49,21,3,ISIP_8,78,9999,9999,9999,2152939600
49,21,3,ISIP_8,79,9999,9999,9999,2153739328
49,21,3,ISIP_8,80,9999,9999,9999,2154539084
49,21,3,ISIP_8,81,9999,9999,9999,2155339856
49,21,3,ISIP_8,82,9999,9999,9999,2156139588
49,21,3,ISIP_8,83,9999,9999,9999,2156939384
49,21,3,ISIP_8,84,9999,9999,9999,2157739096
49,21,3,ISIP_8,85,9999,9999,9999,2158539872
49,21,3,ISIP_8,86,9999,9999,9999,2159339580
49,21,3,ISIP_8,87,9999,9999,9999,2160139384
49,21,3,ISIP_8,88,9999,9999,9999,2160939120
49,21,3,ISIP_8,89,9999,9999,9999,2161739912
49,21,3,ISIP_8,90,9999,9999,9999,2162539624
49,21,3,ISIP_8,91,9999,9999,9999,2163339356
49,21,3,ISIP_8,92,9999,9999,9999,2164139060
49,21,3,ISIP_8,93,9999,9999,9999,2164939832
49,21,3,ISIP_8,94,9999,9999,9999,2165739620
49,21,3,ISIP_8,95,9999,9999,9999,2166539348
49,21,3,ISIP_8,96,9999,9999,9999,2167339104
49,21,3,ISIP_8,97,9999,9999,9999,2168139876
49,21,3,ISIP_8,98,9999,9999,9999,2168939608
49,21,3,ISIP_8,99,9999,9999,9999,2169739336
49,21,3,ISIP_8,100,9999,9999,9999,2170539068
49,21,3,ISIP_8,101,9999,9999,9999,2171339840
49,21,3,ISIP_8,102,9999,9999,9999,2172139640
49,21,3,ISIP_8,103,9999,9999,9999,2172939352
49,21,3,ISIP_8,104,9999,9999,9999,2173739080
49,21,3,ISIP_8,105,9999,9999,9999,2174539860
49,21,3,ISIP_8,106,9999,9999,9999,2175339632
49,21,3,ISIP_8,107,9999,9999,9999,2176139348
49,21,3,ISIP_8,108,9999,9999,9999,2176939076
49,21,3,ISIP_8,109,9999,9999,9999,2177739852
49,21,3,ISIP_8,110,9999,9999,9999,2178539636
49,21,3,ISIP_8,111,9999,9999,9999,2179339364
49,21,3,ISIP_8,112,9999,9999,9999,2180139116
49,21,3,ISIP_8,113,9999,9999,9999,2180939888
49,21,3,ISIP_8,114,9999,9999,9999,2181739600
49,21,3,ISIP_8,115,9999,9999,9999,2182539328
49,21,3,ISIP_8,116,9999,9999,9999,2183339060
49,21,3,ISIP_8,117,9999,9999,9999,2184139832
49,21,3,ISIP_8,118,9999,9999,9999,2184939616
49,21,3,ISIP_8,119,9999,9999,9999,2185739344
49,21,3,ISIP_8,120,9999,9999,9999,2186539100
49,21,3,ISIP_8,121,9999,9999,9999,2187339876
49,21,3,ISIP_8,122,9999,9999,9999,2188139604
49,21,3,ISIP_8,123,9999,9999,9999,2188939328
49,21,3,ISIP_8,124,9999,9999,9999,2189739116
49,21,3,ISIP_8,125,9999,9999,9999,2190539892
49,21,3,ISIP_8,126,9999,9999,9999,2191339620
49,21,3,ISIP_8,127,9999,9999,9999,2192139348
49,21,3,ISIP_8,128,9999,9999,9999,2192939084
49,21,3,ISIP_8,129,9999,9999,9999,2193739856
49,21,3,ISIP_8,130,9999,9999,9999,2194539588
49,21,3,ISIP_8,131,9999,9999,9999,2195339316
49,21,3,ISIP_8,132,9999,9999,9999,2196139112
49,21,3,ISIP_8,133,9999,9999,9999,2196939872
49,21,3,ISIP_8,134,9999,9999,9999,2197739600
49,21,3,ISIP_8,135,9999,9999,9999,2198539332
49,21,3,ISIP_8,136,9999,9999,9999,2199339080
49,21,3,ISIP_8,137,9999,9999,9999,2200139836
49,21,3,ISIP_8,138,9999,9999,9999,2200939568
49,21,3,ISIP_8,139,9999,9999,9999,2201739372
49,21,3,ISIP_8,140,9999,9999,9999,2202539100
49,21,3,ISIP_8,141,9999,9999,9999,2203339868
49,21,3,ISIP_8,142,9999,9999,9999,2204139576
49,21,3,ISIP_8,143,9999,9999,9999,2204939380
49,21,3,ISIP_8,144,9999,9999,9999,2205739120
49,21,3,ISIP_8,145,9999,9999,9999,2206539892
49,21,3,ISIP_8,146,9999,9999,9999,2207339624
49,21,3,ISIP_8,147,9999,9999,9999,2208139352
49,21,3,ISIP_8,148,9999,9999,9999,2208939076
49,21,3,ISIP_8,149,9999,9999,9999,2209739836
49,22,11,Pattern_Practice,0,1,38,16,2317320780
49,22,11,Pattern_Practice,1,5,42,127,2317822464
49,22,11,Pattern_Practice,2,5,42,127,2318321956
49,22,11,Pattern_Practice,3,1,38,56,2318421588
49,22,11,Pattern_Practice,4,1,48,75,2318435256
49,22,11,Pattern_Practice,5,5,42,127,2318821752
49,22,11,Pattern_Practice,6,1,38,55,2318928712
49,22,11,Pattern_Practice,7,1,48,69,2318960788
49,22,11,Pattern_Practice,8,5,42,127,2319321324
49,22,11,Pattern_Practice,9,1,48,70,2319451328
49,22,11,Pattern_Practice,10,1,38,58,2319453848
49,22,11,Pattern_Practice,11,5,42,127,2319822244
49,22,11,Pattern_Practice,12,1,48,74,2319960844
49,22,11,Pattern_Practice,13,1,38,87,2319982368
49,22,11,Pattern_Practice,14,5,42,127,2320321892
49,22,11,Pattern_Practice,15,1,38,79,2320491984
49,22,11,Pattern_Practice,16,1,48,68,2320531452
49,22,11,Pattern_Practice,17,5,42,127,2320821540
49,22,11,Pattern_Practice,18,1,38,77,2321003372
49,22,11,Pattern_Practice,19,1,48,59,2321029460
49,22,11,Pattern_Practice,20,5,42,127,2321322308
49,22,11,Pattern_Practice,21,1,38,61,2321494492
49,22,11,Pattern_Practice,22,1,48,62,2321511900
49,22,11,Pattern_Practice,23,5,42,127,2321821956
49,22,11,Pattern_Practice,24,1,38,66,2321966616
49,22,11,Pattern_Practice,25,1,48,62,2322021576
49,22,11,Pattern_Practice,26,5,42,127,2322321676
49,22,11,Pattern_Practice,27,1,48,61,2322499996
49,22,11,Pattern_Practice,28,1,38,66,2322503340
49,22,11,Pattern_Practice,29,5,42,127,2322821696
49,22,11,Pattern_Practice,30,1,48,62,2322943740
49,22,11,Pattern_Practice,31,5,42,127,2323322212
49,22,11,Pattern_Practice,32,1,38,57,2323350092
49,22,11,Pattern_Practice,33,1,48,78,2323484880
49,22,11,Pattern_Practice,34,1,38,63,2323818556
49,22,11,Pattern_Practice,35,5,42,127,2323821804
49,22,11,Pattern_Practice,36,1,48,72,2323957000
49,22,11,Pattern_Practice,37,1,38,63,2324294064
49,22,11,Pattern_Practice,38,5,42,127,2324321552
49,22,11,Pattern_Practice,39,1,48,60,2324430044
49,22,11,Pattern_Practice,40,1,38,64,2324817976
49,22,11,Pattern_Practice,41,5,42,127,2324822716
49,22,11,Pattern_Practice,42,1,48,70,2324911988
49,22,11,Pattern_Practice,43,1,48,40,2325301492
49,22,11,Pattern_Practice,44,5,42,127,2325321944
49,22,11,Pattern_Practice,45,1,48,56,2325418320
49,22,11,Pattern_Practice,46,1,38,62,2325618708
49,22,11,Pattern_Practice,47,5,42,127,2325821676
49,22,11,Pattern_Practice,48,1,48,75,2325854640
49,22,11,Pattern_Practice,49,1,48,58,2326170512
49,22,11,Pattern_Practice,50,5,42,127,2326321720
49,22,11,Pattern_Practice,51,1,48,40,2326325064
49,22,11,Pattern_Practice,52,1,38,74,2326408596
49,22,11,Pattern_Practice,53,1,48,61,2326694296
49,22,11,Pattern_Practice,54,5,42,127,2326822244
49,22,11,Pattern_Practice,55,1,48,48,2326969272
49,22,11,Pattern_Practice,56,1,48,56,2327208256
49,22,11,Pattern_Practice,57,5,42,127,2327321916
49,22,11,Pattern_Practice,58,1,38,53,2327331468
49,22,11,Pattern_Practice,59,1,48,68,2327541476
49,22,11,Pattern_Practice,60,1,48,35,2327794972
49,22,11,Pattern_Practice,61,5,42,127,2327821632
49,22,11,Pattern_Practice,62,1,48,43,2328028132
49,22,11,Pattern_Practice,63,1,38,49,2328279008
49,22,11,Pattern_Practice,64,5,42,127,2328322652
49,22,11,Pattern_Practice,65,1,38,67,2328740484
49,22,11,Pattern_Practice,66,5,42,127,2328822268
49,22,11,Pattern_Practice,67,1,38,69,2328959068
49,22,11,Pattern_Practice,68,1,48,67,2329185560
49,22,11,Pattern_Practice,69,5,42,127,2329321780
49,22,11,Pattern_Practice,70,1,38,85,2329371000
49,22,11,Pattern_Practice,71,1,38,56,2329666828
49,22,11,Pattern_Practice,72,5,42,127,2329821604
49,22,11,Pattern_Practice,73,1,38,62,2329878604
49,22,11,Pattern_Practice,74,1,48,56,2330129776
49,22,11,Pattern_Practice,75,1,38,76,2330292664
49,22,11,Pattern_Practice,76,5,42,127,2330322240
49,22,11,Pattern_Practice,77,1,38,47,2330337836
49,22,11,Pattern_Practice,78,1,38,59,2330587516
49,22,11,Pattern_Practice,79,5,42,127,2330821900
49,22,11,Pattern_Practice,80,1,38,54,2330951224
49,22,11,Pattern_Practice,81,1,48,58,2331228052
49,22,11,Pattern_Practice,82,5,42,127,2331321660
49,22,11,Pattern_Practice,83,1,38,69,2331374356
49,22,11,Pattern_Practice,84,1,48,68,2331658216
49,22,11,Pattern_Practice,85,1,38,58,2331766828
49,22,11,Pattern_Practice,86,5,42,127,2331821388
49,22,11,Pattern_Practice,87,1,38,22,2331848572
49,22,11,Pattern_Practice,88,1,48,68,2332067212
49,22,11,Pattern_Practice,89,1,38,76,2332197588
49,22,11,Pattern_Practice,90,5,42,127,2332322144
49,22,11,Pattern_Practice,91,1,48,71,2332496800
49,22,11,Pattern_Practice,92,1,38,59,2332642412
49,22,11,Pattern_Practice,93,5,42,127,2332821896
49,22,11,Pattern_Practice,94,1,48,46,2332938704
49,22,11,Pattern_Practice,95,1,38,18,2332947852
49,22,11,Pattern_Practice,96,1,38,89,2333017836
49,22,11,Pattern_Practice,97,5,42,127,2333321608
49,22,11,Pattern_Practice,98,1,48,78,2333340736
49,22,11,Pattern_Practice,99,1,38,66,2333415960
49,22,11,Pattern_Practice,100,1,48,88,2333679308
49,22,11,Pattern_Practice,101,1,38,20,2333689088
49,22,11,Pattern_Practice,102,1,38,89,2333779048
49,22,11,Pattern_Practice,103,5,42,127,2333822312
49,22,11,Pattern_Practice,104,1,48,81,2334061204
49,22,11,Pattern_Practice,105,1,38,75,2334131940
49,22,11,Pattern_Practice,106,5,42,127,2334322032
49,22,11,Pattern_Practice,107,1,48,76,2334407880
49,22,11,Pattern_Practice,108,1,38,97,2334518128
49,22,11,Pattern_Practice,109,1,48,78,2334690596
49,22,11,Pattern_Practice,110,1,38,65,2334781792
49,22,11,Pattern_Practice,111,5,42,127,2334821676
49,22,11,Pattern_Practice,112,1,48,79,2334998036
49,22,11,Pattern_Practice,113,1,38,77,2335097716
49,22,11,Pattern_Practice,114,1,48,70,2335263172
49,22,11,Pattern_Practice,115,5,42,127,2335321400
49,22,11,Pattern_Practice,116,1,38,54,2335391448
49,22,11,Pattern_Practice,117,1,48,65,2335517632
49,22,11,Pattern_Practice,118,1,38,63,2335645440
49,22,11,Pattern_Practice,119,1,48,65,2335768788
49,22,11,Pattern_Practice,120,5,42,127,2335822372
49,22,11,Pattern_Practice,121,1,38,66,2335926832
49,22,11,Pattern_Practice,122,1,48,73,2336059148
49,22,11,Pattern_Practice,123,1,38,55,2336212240
49,22,11,Pattern_Practice,124,5,42,127,2336321788
49,22,11,Pattern_Practice,125,1,48,71,2336400152
49,22,11,Pattern_Practice,126,1,38,66,2336646392
49,22,11,Pattern_Practice,127,5,42,127,2336821608
49,22,11,Pattern_Practice,128,1,48,72,2336829436
49,22,11,Pattern_Practice,129,1,38,46,2337004596
49,22,11,Pattern_Practice,130,1,48,61,2337243800
49,22,11,Pattern_Practice,131,5,42,127,2337322396
49,22,11,Pattern_Practice,132,1,38,67,2337390496
49,22,11,Pattern_Practice,133,1,48,63,2337663216
49,22,11,Pattern_Practice,134,5,42,127,2337822276
49,22,11,Pattern_Practice,135,1,38,28,2337843352
49,22,11,Pattern_Practice,136,1,48,16,2337851412
49,22,11,Pattern_Practice,137,1,48,61,2338062136
49,22,11,Pattern_Practice,138,1,38,21,2338119000
49,22,11,Pattern_Practice,139,5,42,127,2338321720
49,22,11,Pattern_Practice,140,1,38,55,2338352364
49,22,11,Pattern_Practice,141,1,48,52,2338498420
49,22,11,Pattern_Practice,142,5,42,127,2338821444
49,22,11,Pattern_Practice,143,1,48,67,2338836780
49,22,11,Pattern_Practice,144,1,48,67,2339201048
49,22,11,Pattern_Practice,145,1,38,71,2339210376
49,22,11,Pattern_Practice,146,5,42,127,2339322336
49,22,11,Pattern_Practice,147,1,38,63,2339627392
49,22,11,Pattern_Practice,148,5,42,127,2339821956
49,22,11,Pattern_Practice,149,1,38,62,2340013068
49,22,11,Pattern_Practice,150,1,48,68,2340072884
49,22,11,Pattern_Practice,151,5,42,127,2340321604
49,22,11,Pattern_Practice,152,1,38,62,2340426028
49,22,11,Pattern_Practice,153,1,38,18,2340532136
49,22,11,Pattern_Practice,154,1,48,56,2340562860
49,22,11,Pattern_Practice,155,5,42,127,2340822488
49,22,11,Pattern_Practice,156,1,38,58,2340851936
49,22,11,Pattern_Practice,157,1,48,55,2340984628
49,22,11,Pattern_Practice,158,1,38,53,2341251660
49,22,11,Pattern_Practice,159,5,42,127,2341322080
49,22,11,Pattern_Practice,160,1,48,58,2341405464
49,22,11,Pattern_Practice,161,1,38,37,2341627816
49,22,11,Pattern_Practice,162,1,48,48,2341811376
49,22,11,Pattern_Practice,163,5,42,127,2341821732
49,22,11,Pattern_Practice,164,1,38,66,2342067504
49,22,11,Pattern_Practice,165,1,48,59,2342218824
49,22,11,Pattern_Practice,166,5,42,127,2342321460
49,22,11,Pattern_Practice,167,1,38,34,2342491480
49,22,11,Pattern_Practice,168,1,48,58,2342645464
49,22,11,Pattern_Practice,169,5,42,127,2342822180
49,22,11,Pattern_Practice,170,1,38,77,2342889928
49,22,11,Pattern_Practice,171,1,48,64,2343085152
49,22,11,Pattern_Practice,172,1,38,50,2343288528
49,22,11,Pattern_Practice,173,5,42,127,2343321924
49,22,11,Pattern_Practice,174,1,48,67,2343500156
49,22,11,Pattern_Practice,175,1,38,78,2343765760
49,22,11,Pattern_Practice,176,5,42,127,2343821596
49,22,11,Pattern_Practice,177,1,48,70,2343923432
49,22,11,Pattern_Practice,178,1,38,76,2344123744
49,22,11,Pattern_Practice,179,1,38,44,2344174432
49,22,11,Pattern_Practice,180,5,42,127,2344322280
49,22,11,Pattern_Practice,181,1,48,58,2344340884
49,22,11,Pattern_Practice,182,1,38,23,2344349684
49,22,11,Pattern_Practice,183,1,38,97,2344562988
49,22,11,Pattern_Practice,184,5,42,127,2344821980
49,22,11,Pattern_Practice,185,1,38,57,2344897732
49,22,11,Pattern_Practice,186,1,38,16,2345036860
49,22,11,Pattern_Practice,187,1,38,43,2345201912
49,22,11,Pattern_Practice,188,1,38,30,2345273348
49,22,11,Pattern_Practice,189,5,42,127,2345321996
49,22,11,Pattern_Practice,190,1,38,29,2345448216
49,22,11,Pattern_Practice,191,1,38,41,2345494596
49,22,11,Pattern_Practice,192,1,38,27,2345671616
49,22,11,Pattern_Practice,193,1,38,48,2345750836
49,22,11,Pattern_Practice,194,5,42,127,2345821480
49,22,11,Pattern_Practice,195,1,38,42,2345885244
49,22,11,Pattern_Practice,196,1,38,51,2346021228
49,22,11,Pattern_Practice,197,1,38,57,2346172448
49,22,11,Pattern_Practice,198,5,42,127,2346322236
49,22,11,Pattern_Practice,199,1,38,35,2346354752
49,22,11,Pattern_Practice,200,1,38,27,2346637112
49,22,11,Pattern_Practice,201,1,38,20,2346771904
49,22,11,Pattern_Practice,202,1,48,14,2346784520
49,22,11,Pattern_Practice,203,5,42,127,2346821956
49,22,11,Pattern_Practice,204,1,38,54,2347065304
49,22,11,Pattern_Practice,205,1,38,64,2347208748
49,22,11,Pattern_Practice,206,5,42,127,2347321660
49,22,11,Pattern_Practice,207,1,38,45,2347344976
49,22,11,Pattern_Practice,208,1,38,59,2347455056
49,22,11,Pattern_Practice,209,1,38,51,2347634048
49,22,11,Pattern_Practice,210,1,38,35,2347716004
49,22,11,Pattern_Practice,211,1,48,13,2347726756
49,22,11,Pattern_Practice,212,5,42,127,2347821392
49,22,11,Pattern_Practice,213,1,48,13,2347975004
49,22,11,Pattern_Practice,214,1,48,19,2348163044
49,22,11,Pattern_Practice,215,1,48,59,2348311224
49,22,11,Pattern_Practice,216,5,42,127,2348322328
49,22,11,Pattern_Practice,217,1,48,39,2348501132
49,22,11,Pattern_Practice,218,1,48,35,2348665464
49,22,11,Pattern_Practice,219,1,38,15,2348674196
49,22,11,Pattern_Practice,220,1,48,55,2348785292
49,22,11,Pattern_Practice,221,5,42,127,2348822004
49,22,11,Pattern_Practice,222,1,48,69,2349013448
49,22,11,Pattern_Practice,223,1,38,42,2349150332
49,22,11,Pattern_Practice,224,5,42,127,2349321784
49,22,11,Pattern_Practice,225,1,48,72,2349373924
49,22,11,Pattern_Practice,226,1,48,38,2349530304
49,22,11,Pattern_Practice,227,1,48,75,2349737420
49,22,11,Pattern_Practice,228,5,42,127,2349822424
49,22,11,Pattern_Practice,229,1,38,40,2349906784
49,22,11,Pattern_Practice,230,1,48,81,2350130732
49,22,11,Pattern_Practice,231,1,48,55,2350316660
49,22,11,Pattern_Practice,232,5,42,127,2350322076
49,22,11,Pattern_Practice,233,1,48,78,2350520948
49,22,11,Pattern_Practice,234,1,38,36,2350653044
49,22,11,Pattern_Practice,235,5,42,127,2350821880
49,22,11,Pattern_Practice,236,1,48,66,2350900352
49,22,11,Pattern_Practice,237,1,38,18,2350911848
49,22,11,Pattern_Practice,238,1,48,56,2351047328
49,22,11,Pattern_Practice,239,1,48,63,2351252200
49,22,11,Pattern_Practice,240,1,38,17,2351263328
49,22,11,Pattern_Practice,241,5,42,127,2351321556
49,22,11,Pattern_Practice,242,1,38,18,2351511500
49,22,11,Pattern_Practice,243,1,38,48,2351515968
49,22,11,Pattern_Practice,244,1,48,80,2351608692
49,22,11,Pattern_Practice,245,5,42,127,2351822136
49,22,11,Pattern_Practice,246,1,48,74,2351976820
49,22,11,Pattern_Practice,247,1,38,48,2352055036
49,22,11,Pattern_Practice,248,1,48,54,2352315920
49,22,11,Pattern_Practice,249,5,42,127,2352321864
49,22,11,Pattern_Practice,250,1,48,60,2352457236
49,22,11,Pattern_Practice,251,1,48,32,2352510020
49,22,11,Pattern_Practice,252,1,48,71,2352654904
49,22,11,Pattern_Practice,253,5,42,127,2352821724
49,22,11,Pattern_Practice,254,1,38,31,2352837708
49,22,11,Pattern_Practice,255,1,48,79,2353035024
49,22,11,Pattern_Practice,256,1,48,60,2353202876
49,22,11,Pattern_Practice,257,5,42,127,2353322344
49,22,11,Pattern_Practice,258,1,48,75,2353381640
49,22,11,Pattern_Practice,259,1,38,18,2353391720
49,22,11,Pattern_Practice,260,1,38,51,2353540836
49,22,11,Pattern_Practice,261,1,48,81,2353718560
49,22,11,Pattern_Practice,262,5,42,127,2353822024
49,22,11,Pattern_Practice,263,1,38,57,2353860444
49,22,11,Pattern_Practice,264,1,48,81,2354070784
49,22,11,Pattern_Practice,265,1,38,36,2354186400
49,22,11,Pattern_Practice,266,1,48,14,2354199056
49,22,11,Pattern_Practice,267,5,42,127,2354321788
49,22,11,Pattern_Practice,268,1,48,70,2354372928
49,22,11,Pattern_Practice,269,1,38,25,2354618340
49,22,11,Pattern_Practice,270,1,48,48,2354712232
49,22,11,Pattern_Practice,271,1,38,16,2354721780
49,22,11,Pattern_Practice,272,5,42,127,2354821704
49,22,11,Pattern_Practice,273,1,48,66,2355033608
49,22,11,Pattern_Practice,274,1,38,18,2355044660
49,22,11,Pattern_Practice,275,1,48,68,2355291088
49,22,11,Pattern_Practice,276,5,42,127,2355322240
49,22,11,Pattern_Practice,277,1,48,45,2355450112
49,22,11,Pattern_Practice,278,1,48,77,2355654308
49,22,11,Pattern_Practice,279,5,42,127,2355821972
49,22,11,Pattern_Practice,280,1,48,70,2355827792
49,22,11,Pattern_Practice,281,1,38,47,2355972204
49,22,11,Pattern_Practice,282,1,48,46,2356169072
49,22,11,Pattern_Practice,283,1,38,17,2356180940
49,22,11,Pattern_Practice,284,5,42,127,2356321876
49,22,11,Pattern_Practice,285,1,48,68,2356323668
49,22,11,Pattern_Practice,286,1,48,72,2356513636
49,22,11,Pattern_Practice,287,1,38,16,2356525140
49,22,11,Pattern_Practice,288,1,38,62,2356688816
49,22,11,Pattern_Practice,289,5,42,127,2356822676
49,22,11,Pattern_Practice,290,1,48,53,2356861848
49,22,11,Pattern_Practice,291,1,38,20,2356873868
49,22,11,Pattern_Practice,292,1,48,65,2357031596
49,22,11,Pattern_Practice,293,1,48,81,2357194628
49,22,11,Pattern_Practice,294,5,42,127,2357322204
49,22,11,Pattern_Practice,295,1,38,57,2357356512
49,22,11,Pattern_Practice,296,1,48,88,2357539848
49,22,11,Pattern_Practice,297,1,48,63,2357644240
49,22,11,Pattern_Practice,0,9999,9999,9999,2317819956
49,22,11,Pattern_Practice,1,9999,9999,9999,2318319672
49,22,11,Pattern_Practice,2,9999,9999,9999,2318819392
49,22,11,Pattern_Practice,3,9999,9999,9999,2319319112
49,22,11,Pattern_Practice,4,9999,9999,9999,2319819880
49,22,11,Pattern_Practice,5,9999,9999,9999,2320319604
49,22,11,Pattern_Practice,6,9999,9999,9999,2320819252
49,22,11,Pattern_Practice,7,9999,9999,9999,2321320020
49,22,11,Pattern_Practice,8,9999,9999,9999,2321819744
49,22,11,Pattern_Practice,9,9999,9999,9999,2322319464
49,22,11,Pattern_Practice,10,9999,9999,9999,2322819184
49,22,11,Pattern_Practice,11,9999,9999,9999,2323319924
49,22,11,Pattern_Practice,12,9999,9999,9999,2323819592
49,22,11,Pattern_Practice,13,9999,9999,9999,2324319340
49,22,11,Pattern_Practice,14,9999,9999,9999,2324820060
49,22,11,Pattern_Practice,15,9999,9999,9999,2325319732
49,22,11,Pattern_Practice,16,9999,9999,9999,2325819464
49,22,11,Pattern_Practice,17,9999,9999,9999,2326319212
49,22,11,Pattern_Practice,18,9999,9999,9999,2326819956
49,22,11,Pattern_Practice,19,9999,9999,9999,2327319632
49,22,11,Pattern_Practice,20,9999,9999,9999,2327819348
49,22,11,Pattern_Practice,21,9999,9999,9999,2328320068
49,22,11,Pattern_Practice,22,9999,9999,9999,2328819836
49,22,11,Pattern_Practice,23,9999,9999,9999,2329319496
49,22,11,Pattern_Practice,24,9999,9999,9999,2329819244
49,22,11,Pattern_Practice,25,9999,9999,9999,2330319956
49,22,11,Pattern_Practice,26,9999,9999,9999,2330819688
49,22,11,Pattern_Practice,27,9999,9999,9999,2331319376
49,22,11,Pattern_Practice,28,9999,9999,9999,2331819100
49,22,11,Pattern_Practice,29,9999,9999,9999,2332319860
49,22,11,Pattern_Practice,30,9999,9999,9999,2332819532
49,22,11,Pattern_Practice,31,9999,9999,9999,2333319244
49,22,11,Pattern_Practice,32,9999,9999,9999,2333820028
49,22,11,Pattern_Practice,33,9999,9999,9999,2334319672
49,22,11,Pattern_Practice,34,9999,9999,9999,2334819388
49,22,11,Pattern_Practice,35,9999,9999,9999,2335319116
49,22,11,Pattern_Practice,36,9999,9999,9999,2335819864
49,22,11,Pattern_Practice,37,9999,9999,9999,2336319576
49,22,11,Pattern_Practice,38,9999,9999,9999,2336819320
49,22,11,Pattern_Practice,39,9999,9999,9999,2337320036
49,22,11,Pattern_Practice,40,9999,9999,9999,2337819768
49,22,11,Pattern_Practice,41,9999,9999,9999,2338319432
49,22,11,Pattern_Practice,42,9999,9999,9999,2338819156
49,22,11,Pattern_Practice,43,9999,9999,9999,2339319900
49,22,11,Pattern_Practice,44,9999,9999,9999,2339819596
49,22,11,Pattern_Practice,45,9999,9999,9999,2340319316
49,22,11,Pattern_Practice,46,9999,9999,9999,2340820052
49,22,11,Pattern_Practice,47,9999,9999,9999,2341319792
49,22,11,Pattern_Practice,48,9999,9999,9999,2341819444
49,22,11,Pattern_Practice,49,9999,9999,9999,2342319176
49,22,11,Pattern_Practice,50,9999,9999,9999,2342819896
49,22,11,Pattern_Practice,51,9999,9999,9999,2343319636
49,22,11,Pattern_Practice,52,9999,9999,9999,2343819384
49,22,11,Pattern_Practice,53,9999,9999,9999,2344320068
49,22,11,Pattern_Practice,54,9999,9999,9999,2344819768
49,22,11,Pattern_Practice,55,9999,9999,9999,2345319488
49,22,11,Pattern_Practice,56,9999,9999,9999,2345819192
49,22,11,Pattern_Practice,57,9999,9999,9999,2346319948
49,22,11,Pattern_Practice,58,9999,9999,9999,2346819668
49,22,11,Pattern_Practice,59,9999,9999,9999,2347319372
49,22,11,Pattern_Practice,60,9999,9999,9999,2347819104
49,22,11,Pattern_Practice,61,9999,9999,9999,2348319816
49,22,11,Pattern_Practice,62,9999,9999,9999,2348819568
49,22,11,Pattern_Practice,63,9999,9999,9999,2349319276
49,22,11,Pattern_Practice,64,9999,9999,9999,2349819988
49,22,11,Pattern_Practice,65,9999,9999,9999,2350319716
49,22,11,Pattern_Practice,66,9999,9999,9999,2350819448
49,22,11,Pattern_Practice,67,9999,9999,9999,2351319120
49,22,11,Pattern_Practice,68,9999,9999,9999,2351819848
49,22,11,Pattern_Practice,69,9999,9999,9999,2352319576
49,22,11,Pattern_Practice,70,9999,9999,9999,2352819288
49,22,11,Pattern_Practice,71,9999,9999,9999,2353319984
49,22,11,Pattern_Practice,72,9999,9999,9999,2353819736
49,22,11,Pattern_Practice,73,9999,9999,9999,2354319428
49,22,11,Pattern_Practice,74,9999,9999,9999,2354819196
49,22,11,Pattern_Practice,75,9999,9999,9999,2355319880
49,22,11,Pattern_Practice,76,9999,9999,9999,2355819612
49,22,11,Pattern_Practice,77,9999,9999,9999,2356319292
49,22,11,Pattern_Practice,78,9999,9999,9999,2356820092
49,22,11,Pattern_Practice,79,9999,9999,9999,2357319768
49,23,13,Improv_Metronome,0,5,42,127,2417523960
49,23,13,Improv_Metronome,1,5,42,127,2418023972
49,23,13,Improv_Metronome,2,1,48,19,2418508688
49,23,13,Improv_Metronome,3,5,42,127,2418523684
49,23,13,Improv_Metronome,4,1,38,44,2418586868
49,23,13,Improv_Metronome,5,1,48,38,2418904580
49,23,13,Improv_Metronome,6,5,42,127,2419024372
49,23,13,Improv_Metronome,7,1,38,54,2419070872
49,23,13,Improv_Metronome,8,1,48,64,2419444120
49,23,13,Improv_Metronome,9,5,42,127,2419523912
49,23,13,Improv_Metronome,10,1,38,48,2419589020
49,23,13,Improv_Metronome,11,1,48,52,2419988392
49,23,13,Improv_Metronome,12,5,42,127,2420023808
49,23,13,Improv_Metronome,13,1,38,44,2420065072
49,23,13,Improv_Metronome,14,5,42,127,2420524372
49,23,13,Improv_Metronome,15,1,48,13,2420527492
49,23,13,Improv_Metronome,16,1,48,22,2420531880
49,23,13,Improv_Metronome,17,1,38,52,2420558416
49,23,13,Improv_Metronome,18,1,48,18,2420986384
49,23,13,Improv_Metronome,19,1,48,32,2420990848
49,23,13,Improv_Metronome,20,1,38,16,2420998684
49,23,13,Improv_Metronome,21,5,42,127,2421024100
49,23,13,Improv_Metronome,22,1,38,55,2421091052
49,23,13,Improv_Metronome,23,1,48,25,2421477836
49,23,13,Improv_Metronome,24,1,38,19,2421490008
49,23,13,Improv_Metronome,25,5,42,127,2421523872
49,23,13,Improv_Metronome,26,1,48,25,2421952196
49,23,13,Improv_Metronome,27,1,38,13,2421964296
49,23,13,Improv_Metronome,28,5,42,127,2422023720
49,23,13,Improv_Metronome,29,1,48,46,2422450476
49,23,13,Improv_Metronome,30,5,42,127,2422524260
49,23,13,Improv_Metronome,31,1,48,53,2422546088
49,23,13,Improv_Metronome,32,1,48,54,2422847004
49,23,13,Improv_Metronome,33,1,48,46,2423010188
49,23,13,Improv_Metronome,34,5,42,127,2423024060
49,23,13,Improv_Metronome,35,1,48,20,2423401728
49,23,13,Improv_Metronome,36,5,42,127,2423523740
49,23,13,Improv_Metronome,37,1,48,20,2423845620
49,23,13,Improv_Metronome,38,5,42,127,2424024780
49,23,13,Improv_Metronome,39,1,48,24,2424333272
49,23,13,Improv_Metronome,40,1,48,51,2424443652
49,23,13,Improv_Metronome,41,5,42,127,2424524020
49,23,13,Improv_Metronome,42,1,48,22,2424736884
49,23,13,Improv_Metronome,43,1,48,58,2424862468
49,23,13,Improv_Metronome,44,5,42,127,2425023752
49,23,13,Improv_Metronome,45,1,48,48,2425287720
49,23,13,Improv_Metronome,46,1,48,49,2425375604
49,23,13,Improv_Metronome,47,5,42,127,2425523724
49,23,13,Improv_Metronome,48,1,48,20,2425719996
49,23,13,Improv_Metronome,49,1,48,47,2425869672
49,23,13,Improv_Metronome,50,5,42,127,2426024516
49,23,13,Improv_Metronome,51,1,48,19,2426229916
49,23,13,Improv_Metronome,52,1,48,48,2426353384
49,23,13,Improv_Metronome,53,5,42,127,2426524040
49,23,13,Improv_Metronome,54,1,48,31,2426680220
49,23,13,Improv_Metronome,55,1,48,47,2426800848
49,23,13,Improv_Metronome,56,5,42,127,2427023788
49,23,13,Improv_Metronome,57,1,48,40,2427168672
49,23,13,Improv_Metronome,58,1,48,47,2427281144
49,23,13,Improv_Metronome,59,5,42,127,2427523536
49,23,13,Improv_Metronome,60,1,48,19,2427600184
49,23,13,Improv_Metronome,61,1,48,47,2427724420
49,23,13,Improv_Metronome,62,5,42,127,2428024404
49,23,13,Improv_Metronome,63,1,48,44,2428085940
49,23,13,Improv_Metronome,64,1,48,50,2428144632
49,23,13,Improv_Metronome,65,1,48,43,2428491572
49,23,13,Improv_Metronome,66,1,38,14,2428503596
49,23,13,Improv_Metronome,67,5,42,127,2428523900
49,23,13,Improv_Metronome,68,1,48,40,2428551984
49,23,13,Improv_Metronome,69,1,48,62,2428896104
49,23,13,Improv_Metronome,70,1,48,45,2428969264
49,23,13,Improv_Metronome,71,5,42,127,2429023672
49,23,13,Improv_Metronome,72,1,48,65,2429261516
49,23,13,Improv_Metronome,73,1,48,54,2429440636
49,23,13,Improv_Metronome,74,5,42,127,2429524468
49,23,13,Improv_Metronome,75,1,48,54,2429664000
49,23,13,Improv_Metronome,76,1,48,37,2429823028
49,23,13,Improv_Metronome,77,5,42,127,2430023976
49,23,13,Improv_Metronome,78,1,48,49,2430046092
49,23,13,Improv_Metronome,79,1,48,45,2430196340
49,23,13,Improv_Metronome,80,1,48,48,2430406152
49,23,13,Improv_Metronome,81,5,42,127,2430523700
49,23,13,Improv_Metronome,82,1,48,51,2430699452
49,23,13,Improv_Metronome,83,1,48,40,2430847332
49,23,13,Improv_Metronome,84,1,48,52,2431015852
49,23,13,Improv_Metronome,85,5,42,127,2431023592
49,23,13,Improv_Metronome,86,1,48,40,2431123708
49,23,13,Improv_Metronome,87,1,48,48,2431316688
49,23,13,Improv_Metronome,88,1,48,43,2431433724
49,23,13,Improv_Metronome,89,5,42,127,2431524288
49,23,13,Improv_Metronome,90,1,48,48,2431587536
49,23,13,Improv_Metronome,91,1,48,37,2431701428
49,23,13,Improv_Metronome,92,1,48,47,2431836812
49,23,13,Improv_Metronome,93,1,48,40,2431927144
49,23,13,Improv_Metronome,94,5,42,127,2432024348
49,23,13,Improv_Metronome,95,1,48,49,2432094936
49,23,13,Improv_Metronome,96,1,48,40,2432174652
49,23,13,Improv_Metronome,97,1,48,51,2432351404
49,23,13,Improv_Metronome,98,1,48,41,2432451308
49,23,13,Improv_Metronome,99,5,42,127,2432523624
49,23,13,Improv_Metronome,100,1,48,49,2432611172
49,23,13,Improv_Metronome,101,1,48,42,2432687148
49,23,13,Improv_Metronome,102,1,48,54,2432860380
49,23,13,Improv_Metronome,103,1,48,41,2432918552
49,23,13,Improv_Metronome,104,5,42,127,2433024332
49,23,13,Improv_Metronome,105,1,48,52,2433125160
49,23,13,Improv_Metronome,106,1,48,42,2433208236
49,23,13,Improv_Metronome,107,1,48,53,2433375940
49,23,13,Improv_Metronome,108,5,42,127,2433523984
49,23,13,Improv_Metronome,109,1,48,33,2433605364
49,23,13,Improv_Metronome,110,1,48,54,2433632940
49,23,13,Improv_Metronome,111,1,48,32,2433836696
49,23,13,Improv_Metronome,112,1,48,48,2433913492
49,23,13,Improv_Metronome,113,5,42,127,2434023764
49,23,13,Improv_Metronome,114,1,48,41,2434033764
49,23,13,Improv_Metronome,115,1,48,56,2434167132
49,23,13,Improv_Metronome,116,1,48,42,2434259408
49,23,13,Improv_Metronome,117,1,48,50,2434421496
49,23,13,Improv_Metronome,118,5,42,127,2434523464
49,23,13,Improv_Metronome,119,1,48,41,2434767236
49,23,13,Improv_Metronome,120,1,48,60,2434795036
49,23,13,Improv_Metronome,121,5,42,127,2435024332
49,23,13,Improv_Metronome,122,1,48,46,2435243344
49,23,13,Improv_Metronome,123,5,42,127,2435523804
49,23,13,Improv_Metronome,124,1,48,55,2435753732
49,23,13,Improv_Metronome,125,5,42,127,2436023648
49,23,13,Improv_Metronome,126,1,38,55,2436200552
49,23,13,Improv_Metronome,127,5,42,127,2436524392
49,23,13,Improv_Metronome,128,1,48,55,2436658804
49,23,13,Improv_Metronome,129,5,42,127,2437024384
49,23,13,Improv_Metronome,130,1,38,53,2437104772
49,23,13,Improv_Metronome,131,5,42,127,2437523704
49,23,13,Improv_Metronome,132,1,48,61,2437542676
49,23,13,Improv_Metronome,133,1,38,63,2437949832
49,23,13,Improv_Metronome,134,5,42,127,2438023392
49,23,13,Improv_Metronome,135,1,48,65,2438419156
49,23,13,Improv_Metronome,136,1,38,63,2438453168
49,23,13,Improv_Metronome,137,5,42,127,2438524544
49,23,13,Improv_Metronome,138,1,38,66,2438864412
49,23,13,Improv_Metronome,139,1,48,73,2438885788
49,23,13,Improv_Metronome,140,5,42,127,2439024100
49,23,13,Improv_Metronome,141,1,38,74,2439340428
49,23,13,Improv_Metronome,142,1,48,75,2439346912
49,23,13,Improv_Metronome,143,5,42,127,2439523600
49,23,13,Improv_Metronome,144,1,38,80,2439802900
49,23,13,Improv_Metronome,145,5,42,127,2440024492
49,23,13,Improv_Metronome,146,1,38,30,2440257484
49,23,13,Improv_Metronome,147,1,38,68,2440327024
49,23,13,Improv_Metronome,148,5,42,127,2440524236
49,23,13,Improv_Metronome,149,1,38,30,2440732780
49,23,13,Improv_Metronome,150,1,38,51,2440840764
49,23,13,Improv_Metronome,151,5,42,127,2441024060
49,23,13,Improv_Metronome,152,1,38,30,2441200336
49,23,13,Improv_Metronome,153,1,38,67,2441299076
49,23,13,Improv_Metronome,154,5,42,127,2441523508
49,23,13,Improv_Metronome,155,1,38,48,2441695968
49,23,13,Improv_Metronome,156,1,38,71,2441768452
49,23,13,Improv_Metronome,157,5,42,127,2442024304
49,23,13,Improv_Metronome,158,1,38,34,2442189580
49,23,13,Improv_Metronome,159,1,38,64,2442301408
49,23,13,Improv_Metronome,160,5,42,127,2442524124
49,23,13,Improv_Metronome,161,1,38,36,2442692324
49,23,13,Improv_Metronome,162,1,38,70,2442836612
49,23,13,Improv_Metronome,163,5,42,127,2443023652
49,23,13,Improv_Metronome,164,1,38,46,2443238148
49,23,13,Improv_Metronome,165,1,38,72,2443326260
49,23,13,Improv_Metronome,166,5,42,127,2443523300
49,23,13,Improv_Metronome,167,1,38,24,2443733260
49,23,13,Improv_Metronome,168,1,38,73,2443817260
49,23,13,Improv_Metronome,169,5,42,127,2444024240
49,23,13,Improv_Metronome,170,1,38,36,2444233904
49,23,13,Improv_Metronome,171,1,38,64,2444295220
49,23,13,Improv_Metronome,172,1,38,20,2444405320
49,23,13,Improv_Metronome,173,5,42,127,2444524116
49,23,13,Improv_Metronome,174,1,38,33,2444757116
49,23,13,Improv_Metronome,175,1,48,13,2444764652
49,23,13,Improv_Metronome,176,1,38,73,2444823516
49,23,13,Improv_Metronome,177,5,42,127,2445023520
49,23,13,Improv_Metronome,178,1,38,38,2445249036
49,23,13,Improv_Metronome,179,1,38,54,2445329820
49,23,13,Improv_Metronome,180,5,42,127,2445524312
49,23,13,Improv_Metronome,181,1,38,54,2445793136
49,23,13,Improv_Metronome,182,1,38,68,2445870484
49,23,13,Improv_Metronome,183,5,42,127,2446024060
49,23,13,Improv_Metronome,184,1,38,50,2446252720
49,23,13,Improv_Metronome,185,1,38,72,2446389380
49,23,13,Improv_Metronome,186,5,42,127,2446523956
49,23,13,Improv_Metronome,187,1,38,34,2446730332
49,23,13,Improv_Metronome,188,1,38,70,2446840484
49,23,13,Improv_Metronome,189,5,42,127,2447023408
49,23,13,Improv_Metronome,190,1,48,72,2447192748
49,23,13,Improv_Metronome,191,1,38,78,2447305596
49,23,13,Improv_Metronome,192,5,42,127,2447524124
49,23,13,Improv_Metronome,193,1,38,54,2447570032
49,23,13,Improv_Metronome,194,1,38,66,2447778192
49,23,13,Improv_Metronome,195,5,42,127,2448024096
49,23,13,Improv_Metronome,196,1,38,35,2448061848
49,23,13,Improv_Metronome,197,1,38,59,2448207936
49,23,13,Improv_Metronome,198,1,38,32,2448471076
49,23,13,Improv_Metronome,199,5,42,127,2448523764
49,23,13,Improv_Metronome,200,1,38,66,2448643328
49,23,13,Improv_Metronome,201,1,38,33,2448929008
49,23,13,Improv_Metronome,202,5,42,127,2449024320
49,23,13,Improv_Metronome,203,1,38,79,2449106352
49,23,13,Improv_Metronome,204,1,48,80,2449415344
49,23,13,Improv_Metronome,205,5,42,127,2449523992
49,23,13,Improv_Metronome,206,1,38,29,2449886840
49,23,13,Improv_Metronome,207,5,42,127,2450023908
49,23,13,Improv_Metronome,208,1,48,55,2450333728
49,23,13,Improv_Metronome,209,5,42,127,2450523456
49,23,13,Improv_Metronome,210,1,38,48,2450765880
49,23,13,Improv_Metronome,211,5,42,127,2451024196
49,23,13,Improv_Metronome,212,1,48,53,2451201892
49,23,13,Improv_Metronome,213,5,42,127,2451524040
49,23,13,Improv_Metronome,214,1,38,52,2451586024
49,23,13,Improv_Metronome,215,1,48,59,2451976120
49,23,13,Improv_Metronome,216,5,42,127,2452023800
49,23,13,Improv_Metronome,217,1,38,36,2452218316
49,23,13,Improv_Metronome,218,1,48,54,2452403220
49,23,13,Improv_Metronome,219,5,42,127,2452524508
49,23,13,Improv_Metronome,220,1,38,54,2452681260
49,23,13,Improv_Metronome,221,1,48,64,2452879248
49,23,13,Improv_Metronome,222,5,42,127,2453024180
49,23,13,Improv_Metronome,223,1,48,69,2453301156
49,23,13,Improv_Metronome,224,5,42,127,2453523948
49,23,13,Improv_Metronome,225,1,48,45,2453754004
49,23,13,Improv_Metronome,226,5,42,127,2454023468
49,23,13,Improv_Metronome,227,1,38,48,2454175060
49,23,13,Improv_Metronome,228,5,42,127,2454524256
49,23,13,Improv_Metronome,229,1,48,31,2454587840
49,23,13,Improv_Metronome,230,1,38,54,2454991228
49,23,13,Improv_Metronome,231,5,42,127,2455024096
49,23,13,Improv_Metronome,232,1,48,44,2455449936
49,23,13,Improv_Metronome,233,5,42,127,2455523864
49,23,13,Improv_Metronome,234,1,38,50,2455857848
49,23,13,Improv_Metronome,235,5,42,127,2456024444
49,23,13,Improv_Metronome,236,1,48,39,2456329944
49,23,13,Improv_Metronome,237,5,42,127,2456523988
49,23,13,Improv_Metronome,238,1,48,55,2456778080
49,23,13,Improv_Metronome,239,1,38,64,2456781348
49,23,13,Improv_Metronome,240,5,42,127,2457023784
49,23,13,Improv_Metronome,241,1,38,63,2457196648
49,23,13,Improv_Metronome,242,1,48,56,2457223924
49,23,13,Improv_Metronome,243,5,42,127,2457523728
49,23,13,Improv_Metronome,244,1,48,35,2457602396
49,23,13,Improv_Metronome,245,1,38,57,2457640188
49,23,13,Improv_Metronome,246,1,48,45,2457977496
49,23,13,Improv_Metronome,247,5,42,127,2458024204
49,23,13,Improv_Metronome,248,1,38,46,2458405912
49,23,13,Improv_Metronome,249,5,42,127,2458523884
49,23,13,Improv_Metronome,250,1,38,55,2458569868
49,23,13,Improv_Metronome,251,1,38,46,2458808548
49,23,13,Improv_Metronome,252,1,38,51,2458994872
49,23,13,Improv_Metronome,253,5,42,127,2459023776
49,23,13,Improv_Metronome,254,1,38,62,2459399720
49,23,13,Improv_Metronome,255,5,42,127,2459523528
49,23,13,Improv_Metronome,256,1,38,58,2459883536
49,23,13,Improv_Metronome,257,5,42,127,2460024120
49,23,13,Improv_Metronome,258,1,38,54,2460314940
49,23,13,Improv_Metronome,259,1,38,43,2460434316
49,23,13,Improv_Metronome,260,5,42,127,2460523812
49,23,13,Improv_Metronome,261,1,38,52,2460736824
49,23,13,Improv_Metronome,262,1,38,59,2460879288
49,23,13,Improv_Metronome,263,5,42,127,2461023616
49,23,13,Improv_Metronome,264,1,38,53,2461125392
49,23,13,Improv_Metronome,265,1,38,63,2461374172
49,23,13,Improv_Metronome,266,5,42,127,2461524408
49,23,13,Improv_Metronome,267,1,38,37,2461847464
49,23,13,Improv_Metronome,268,5,42,127,2462023956
49,23,13,Improv_Metronome,269,1,38,46,2462295176
49,23,13,Improv_Metronome,270,5,42,127,2462523800
49,23,13,Improv_Metronome,271,1,38,55,2462713688
49,23,13,Improv_Metronome,272,1,38,35,2462781012
49,23,13,Improv_Metronome,273,5,42,127,2463023624
49,23,13,Improv_Metronome,274,1,38,51,2463092040
49,23,13,Improv_Metronome,275,1,38,30,2463217980
49,23,13,Improv_Metronome,276,5,42,127,2463524268
49,23,13,Improv_Metronome,277,1,38,50,2463674664
49,23,13,Improv_Metronome,278,5,42,127,2464023888
49,23,13,Improv_Metronome,279,1,38,49,2464128208
49,23,13,Improv_Metronome,280,5,42,127,2464523732
49,23,13,Improv_Metronome,281,1,38,42,2464584824
49,23,13,Improv_Metronome,282,5,42,127,2465024448
49,23,13,Improv_Metronome,283,1,38,48,2465089376
49,23,13,Improv_Metronome,284,5,42,127,2465524068
49,23,13,Improv_Metronome,285,1,38,40,2465551296
49,23,13,Improv_Metronome,286,1,38,43,2465913844
49,23,13,Improv_Metronome,287,1,38,45,2466004328
49,23,13,Improv_Metronome,288,5,42,127,2466023736
49,23,13,Improv_Metronome,289,1,38,56,2466257688
49,23,13,Improv_Metronome,290,1,38,38,2466438404
49,23,13,Improv_Metronome,291,1,48,14,2466445940
49,23,13,Improv_Metronome,292,5,42,127,2466523460
49,23,13,Improv_Metronome,293,1,38,39,2466908804
49,23,13,Improv_Metronome,294,5,42,127,2467024460
49,23,13,Improv_Metronome,295,1,38,34,2467373348
49,23,13,Improv_Metronome,296,5,42,127,2467523932
49,23,13,Improv_Metronome,297,1,38,44,2467835764
49,23,13,Improv_Metronome,298,1,48,17,2467843524
49,23,13,Improv_Metronome,299,1,38,53,2467941736
49,23,13,Improv_Metronome,300,5,42,127,2468023584
49,23,13,Improv_Metronome,301,1,38,50,2468286336
49,23,13,Improv_Metronome,302,1,38,64,2468373404
49,23,13,Improv_Metronome,303,5,42,127,2468524440
49,23,13,Improv_Metronome,304,1,38,37,2468744500
49,23,13,Improv_Metronome,305,1,38,30,2468819348
49,23,13,Improv_Metronome,306,5,42,127,2469024040
49,23,13,Improv_Metronome,307,1,38,43,2469228460
49,23,13,Improv_Metronome,308,5,42,127,2469523808
49,23,13,Improv_Metronome,309,1,38,39,2469579356
49,23,13,Improv_Metronome,310,1,38,39,2469726416
49,23,13,Improv_Metronome,311,1,48,15,2469733428
49,23,13,Improv_Metronome,312,1,38,56,2469992800
49,23,13,Improv_Metronome,313,5,42,127,2470023428
49,23,13,Improv_Metronome,314,1,38,35,2470180860
49,23,13,Improv_Metronome,315,1,38,45,2470400224
49,23,13,Improv_Metronome,316,5,42,127,2470524500
49,23,13,Improv_Metronome,317,1,38,43,2470646552
49,23,13,Improv_Metronome,318,5,42,127,2471023900
49,23,13,Improv_Metronome,319,1,38,33,2471083340
49,23,13,Improv_Metronome,320,1,48,13,2471091328
49,23,13,Improv_Metronome,321,5,42,127,2471523620
49,23,13,Improv_Metronome,322,1,38,34,2471542444
49,23,13,Improv_Metronome,323,1,38,49,2471907540
49,23,13,Improv_Metronome,324,5,42,127,2472024416
49,23,13,Improv_Metronome,325,1,38,37,2472031196
49,23,13,Improv_Metronome,326,1,38,68,2472326804
49,23,13,Improv_Metronome,327,1,38,41,2472479996
49,23,13,Improv_Metronome,328,5,42,127,2472524156
49,23,13,Improv_Metronome,329,1,38,48,2472935980
49,23,13,Improv_Metronome,330,5,42,127,2473023704
49,23,13,Improv_Metronome,331,1,38,33,2473391324
49,23,13,Improv_Metronome,332,5,42,127,2473523604
49,23,13,Improv_Metronome,333,1,38,55,2473810012
49,23,13,Improv_Metronome,334,1,38,37,2473880224
49,23,13,Improv_Metronome,335,5,42,127,2474024400
49,23,13,Improv_Metronome,336,1,38,54,2474203068
49,23,13,Improv_Metronome,337,1,38,58,2474357604
49,23,13,Improv_Metronome,338,5,42,127,2474524148
49,23,13,Improv_Metronome,339,1,38,47,2474693920
49,23,13,Improv_Metronome,340,1,38,37,2474842248
49,23,13,Improv_Metronome,341,5,42,127,2475023744
49,23,13,Improv_Metronome,342,1,38,34,2475259040
49,23,13,Improv_Metronome,343,1,48,13,2475266572
49,23,13,Improv_Metronome,344,5,42,127,2475523292
49,23,13,Improv_Metronome,345,1,48,56,2475758384
49,23,13,Improv_Metronome,346,5,42,127,2476024256
49,23,13,Improv_Metronome,347,1,48,43,2476194648
49,23,13,Improv_Metronome,348,1,48,46,2476274816
49,23,13,Improv_Metronome,349,5,42,127,2476523784
49,23,13,Improv_Metronome,350,1,48,62,2476751172
49,23,13,Improv_Metronome,351,5,42,127,2477023552
49,23,13,Improv_Metronome,352,1,48,25,2477103588
49,23,13,Improv_Metronome,353,1,48,57,2477242316
49,23,13,Improv_Metronome,354,5,42,127,2477524272
49,23,13,Improv_Metronome,355,1,48,33,2477614108
49,23,13,Improv_Metronome,356,1,48,52,2478010392
49,23,13,Improv_Metronome,357,5,42,127,2478024332
49,23,13,Improv_Metronome,358,1,48,37,2478397516
49,23,13,Improv_Metronome,359,1,38,13,2478462564
49,23,13,Improv_Metronome,360,5,42,127,2478523620
49,23,13,Improv_Metronome,361,1,38,15,2478911456
49,23,13,Improv_Metronome,362,1,48,61,2478956240
49,23,13,Improv_Metronome,363,5,42,127,2479023504
49,23,13,Improv_Metronome,364,1,48,52,2479421212
49,23,13,Improv_Metronome,365,1,38,56,2479426660
49,23,13,Improv_Metronome,366,5,42,127,2479524184
49,23,13,Improv_Metronome,367,1,38,32,2479889524
49,23,13,Improv_Metronome,368,1,48,66,2479927724
49,23,13,Improv_Metronome,369,5,42,127,2480024052
49,23,13,Improv_Metronome,370,1,48,56,2480383012
49,23,13,Improv_Metronome,371,1,38,55,2480408984
49,23,13,Improv_Metronome,372,5,42,127,2480523640
49,23,13,Improv_Metronome,373,1,48,55,2480856344
49,23,13,Improv_Metronome,374,1,38,56,2480856992
49,23,13,Improv_Metronome,375,5,42,127,2481024412
49,23,13,Improv_Metronome,376,1,38,63,2481355992
49,23,13,Improv_Metronome,377,1,48,42,2481369808
49,23,13,Improv_Metronome,378,5,42,127,2481524204
49,23,13,Improv_Metronome,379,1,38,44,2481877924
49,23,13,Improv_Metronome,380,1,48,53,2481922712
49,23,13,Improv_Metronome,381,5,42,127,2482024000
49,23,13,Improv_Metronome,382,1,38,77,2482376152
49,23,13,Improv_Metronome,383,1,48,76,2482468396
49,23,13,Improv_Metronome,384,5,42,127,2482523612
49,23,13,Improv_Metronome,385,1,48,46,2482880236
49,23,13,Improv_Metronome,386,1,48,65,2483022072
49,23,13,Improv_Metronome,387,5,42,127,2483024184
49,23,13,Improv_Metronome,388,1,48,53,2483373028
49,23,13,Improv_Metronome,389,1,48,72,2483476556
49,23,13,Improv_Metronome,390,5,42,127,2483524080
49,23,13,Improv_Metronome,391,1,48,50,2483817876
49,23,13,Improv_Metronome,392,1,48,73,2483953012
49,23,13,Improv_Metronome,393,5,42,127,2484023756
49,23,13,Improv_Metronome,394,1,38,28,2484390700
49,23,13,Improv_Metronome,395,5,42,127,2484524336
49,23,13,Improv_Metronome,396,1,48,63,2484864368
49,23,13,Improv_Metronome,397,1,48,49,2484988880
49,23,13,Improv_Metronome,398,5,42,127,2485024244
49,23,13,Improv_Metronome,399,1,48,25,2485341000
49,23,13,Improv_Metronome,400,1,38,14,2485353096
49,23,13,Improv_Metronome,401,1,48,62,2485420692
49,23,13,Improv_Metronome,402,5,42,127,2485523944
49,23,13,Improv_Metronome,403,1,48,65,2485774968
49,23,13,Improv_Metronome,404,1,48,64,2485909428
49,23,13,Improv_Metronome,405,5,42,127,2486023540
49,23,13,Improv_Metronome,406,1,38,37,2486335752
49,23,13,Improv_Metronome,407,1,48,13,2486342764
49,23,13,Improv_Metronome,408,5,42,127,2486524212
49,23,13,Improv_Metronome,409,1,48,57,2486840412
49,23,13,Improv_Metronome,410,1,48,43,2486897836
49,23,13,Improv_Metronome,411,5,42,127,2487023960
49,23,13,Improv_Metronome,412,1,48,41,2487307324
49,23,13,Improv_Metronome,413,1,48,48,2487394068
49,23,13,Improv_Metronome,0,9999,9999,9999,2417521748
49,23,13,Improv_Metronome,1,9999,9999,9999,2418021464
49,23,13,Improv_Metronome,2,9999,9999,9999,2418521172
49,23,13,Improv_Metronome,3,9999,9999,9999,2419021940
49,23,13,Improv_Metronome,4,9999,9999,9999,2419521628
49,23,13,Improv_Metronome,5,9999,9999,9999,2420021300
49,23,13,Improv_Metronome,6,9999,9999,9999,2420522084
49,23,13,Improv_Metronome,7,9999,9999,9999,2421021812
49,23,13,Improv_Metronome,8,9999,9999,9999,2421521512
49,23,13,Improv_Metronome,9,9999,9999,9999,2422021208
49,23,13,Improv_Metronome,10,9999,9999,9999,2422521972
49,23,13,Improv_Metronome,11,9999,9999,9999,2423021624
49,23,13,Improv_Metronome,12,9999,9999,9999,2423521380
49,23,13,Improv_Metronome,13,9999,9999,9999,2424022120
49,23,13,Improv_Metronome,14,9999,9999,9999,2424521808
49,23,13,Improv_Metronome,15,9999,9999,9999,2425021540
49,23,13,Improv_Metronome,16,9999,9999,9999,2425521212
49,23,13,Improv_Metronome,17,9999,9999,9999,2426022008
49,23,13,Improv_Metronome,18,9999,9999,9999,2426521680
49,23,13,Improv_Metronome,19,9999,9999,9999,2427021428
49,23,13,Improv_Metronome,20,9999,9999,9999,2427521100
49,23,13,Improv_Metronome,21,9999,9999,9999,2428021820
49,23,13,Improv_Metronome,22,9999,9999,9999,2428521540
49,23,13,Improv_Metronome,23,9999,9999,9999,2429021240
49,23,13,Improv_Metronome,24,9999,9999,9999,2429522032
49,23,13,Improv_Metronome,25,9999,9999,9999,2430021688
49,23,13,Improv_Metronome,26,9999,9999,9999,2430521416
49,23,13,Improv_Metronome,27,9999,9999,9999,2431021156
49,23,13,Improv_Metronome,28,9999,9999,9999,2431521856
49,23,13,Improv_Metronome,29,9999,9999,9999,2432021556
49,23,13,Improv_Metronome,30,9999,9999,9999,2432521336
49,23,13,Improv_Metronome,31,9999,9999,9999,2433022044
49,23,13,Improv_Metronome,32,9999,9999,9999,2433521772
49,23,13,Improv_Metronome,33,9999,9999,9999,2434021476
49,23,13,Improv_Metronome,34,9999,9999,9999,2434521176
49,23,13,Improv_Metronome,35,9999,9999,9999,2435021896
49,23,13,Improv_Metronome,36,9999,9999,9999,2435521592
49,23,13,Improv_Metronome,37,9999,9999,9999,2436021360
49,23,13,Improv_Metronome,38,9999,9999,9999,2436522104
49,23,13,Improv_Metronome,39,9999,9999,9999,2437021800
49,23,13,Improv_Metronome,40,9999,9999,9999,2437521492
49,23,13,Improv_Metronome,41,9999,9999,9999,2438021180
49,23,13,Improv_Metronome,42,9999,9999,9999,2438521960
49,23,13,Improv_Metronome,43,9999,9999,9999,2439021668
49,23,13,Improv_Metronome,44,9999,9999,9999,2439521388
49,23,13,Improv_Metronome,45,9999,9999,9999,2440022128
49,23,13,Improv_Metronome,46,9999,9999,9999,2440521800
49,23,13,Improv_Metronome,47,9999,9999,9999,2441021552
49,23,13,Improv_Metronome,48,9999,9999,9999,2441521224
49,23,13,Improv_Metronome,49,9999,9999,9999,2442021944
49,23,13,Improv_Metronome,50,9999,9999,9999,2442521688
49,23,13,Improv_Metronome,51,9999,9999,9999,2443021364
49,23,13,Improv_Metronome,52,9999,9999,9999,2443521088
49,23,13,Improv_Metronome,53,9999,9999,9999,2444021880
49,23,13,Improv_Metronome,54,9999,9999,9999,2444521532
49,23,13,Improv_Metronome,55,9999,9999,9999,2445021232
49,23,13,Improv_Metronome,56,9999,9999,9999,2445522024
49,23,13,Improv_Metronome,57,9999,9999,9999,2446021700
49,23,13,Improv_Metronome,58,9999,9999,9999,2446521448
49,23,13,Improv_Metronome,59,9999,9999,9999,2447021120
49,23,13,Improv_Metronome,60,9999,9999,9999,2447521912
49,23,13,Improv_Metronome,61,9999,9999,9999,2448021588
49,23,13,Improv_Metronome,62,9999,9999,9999,2448521328
49,23,13,Improv_Metronome,63,9999,9999,9999,2449022032
49,23,13,Improv_Metronome,64,9999,9999,9999,2449521780
49,23,13,Improv_Metronome,65,9999,9999,9999,2450021476
49,23,13,Improv_Metronome,66,9999,9999,9999,2450521168
49,23,13,Improv_Metronome,67,9999,9999,9999,2451021912
49,23,13,Improv_Metronome,68,9999,9999,9999,2451521604
49,23,13,Improv_Metronome,69,9999,9999,9999,2452021368
49,23,13,Improv_Metronome,70,9999,9999,9999,2452522072
49,23,13,Improv_Metronome,71,9999,9999,9999,2453021744
49,23,13,Improv_Metronome,72,9999,9999,9999,2453521512
49,23,13,Improv_Metronome,73,9999,9999,9999,2454021180
49,23,13,Improv_Metronome,74,9999,9999,9999,2454521972
49,23,13,Improv_Metronome,75,9999,9999,9999,2455021660
49,23,13,Improv_Metronome,76,9999,9999,9999,2455521356
49,23,13,Improv_Metronome,77,9999,9999,9999,2456022080
49,23,13,Improv_Metronome,78,9999,9999,9999,2456521776
49,23,13,Improv_Metronome,79,9999,9999,9999,2457021500
49,23,13,Improv_Metronome,80,9999,9999,9999,2457521220
49,23,13,Improv_Metronome,81,9999,9999,9999,2458021992
49,23,13,Improv_Metronome,82,9999,9999,9999,2458521672
49,23,13,Improv_Metronome,83,9999,9999,9999,2459021412
49,23,13,Improv_Metronome,84,9999,9999,9999,2459521096
49,23,13,Improv_Metronome,85,9999,9999,9999,2460021832
49,23,13,Improv_Metronome,86,9999,9999,9999,2460521524
49,23,13,Improv_Metronome,87,9999,9999,9999,2461021256
49,23,13,Improv_Metronome,88,9999,9999,9999,2461521976
49,23,13,Improv_Metronome,89,9999,9999,9999,2462021744
49,23,13,Improv_Metronome,90,9999,9999,9999,2462521440
49,23,13,Improv_Metronome,91,9999,9999,9999,2463021112
49,23,13,Improv_Metronome,92,9999,9999,9999,2463521908
49,23,13,Improv_Metronome,93,9999,9999,9999,2464021600
49,23,13,Improv_Metronome,94,9999,9999,9999,2464521296
49,23,13,Improv_Metronome,95,9999,9999,9999,2465022012
49,23,13,Improv_Metronome,96,9999,9999,9999,2465521780
49,23,13,Improv_Metronome,97,9999,9999,9999,2466021448
49,23,13,Improv_Metronome,98,9999,9999,9999,2466521176
49,23,13,Improv_Metronome,99,9999,9999,9999,2467021876
49,23,13,Improv_Metronome,100,9999,9999,9999,2467521644
49,23,13,Improv_Metronome,101,9999,9999,9999,2468021296
49,23,13,Improv_Metronome,102,9999,9999,9999,2468522080
49,23,13,Improv_Metronome,103,9999,9999,9999,2469021752
49,23,13,Improv_Metronome,104,9999,9999,9999,2469521520
49,23,13,Improv_Metronome,105,9999,9999,9999,2470021216
49,23,13,Improv_Metronome,106,9999,9999,9999,2470521916
49,23,13,Improv_Metronome,107,9999,9999,9999,2471021688
49,23,13,Improv_Metronome,108,9999,9999,9999,2471521336
49,23,13,Improv_Metronome,109,9999,9999,9999,2472022128
49,23,13,Improv_Metronome,110,9999,9999,9999,2472521796
49,23,13,Improv_Metronome,111,9999,9999,9999,2473021492
49,23,13,Improv_Metronome,112,9999,9999,9999,2473521244
49,23,13,Improv_Metronome,113,9999,9999,9999,2474021964
49,23,13,Improv_Metronome,114,9999,9999,9999,2474521712
49,23,13,Improv_Metronome,115,9999,9999,9999,2475021384
49,23,13,Improv_Metronome,116,9999,9999,9999,2475521080
49,23,13,Improv_Metronome,117,9999,9999,9999,2476021824
49,23,13,Improv_Metronome,118,9999,9999,9999,2476521572
49,23,13,Improv_Metronome,119,9999,9999,9999,2477021268
49,23,13,Improv_Metronome,120,9999,9999,9999,2477521984
49,23,13,Improv_Metronome,121,9999,9999,9999,2478021748
49,23,13,Improv_Metronome,122,9999,9999,9999,2478521408
49,23,13,Improv_Metronome,123,9999,9999,9999,2479021140
49,23,13,Improv_Metronome,124,9999,9999,9999,2479521896
49,23,13,Improv_Metronome,125,9999,9999,9999,2480021616
49,23,13,Improv_Metronome,126,9999,9999,9999,2480521280
49,23,13,Improv_Metronome,127,9999,9999,9999,2481022048
49,23,13,Improv_Metronome,128,9999,9999,9999,2481521768
49,23,13,Improv_Metronome,129,9999,9999,9999,2482021492
49,23,13,Improv_Metronome,130,9999,9999,9999,2482521176
49,23,13,Improv_Metronome,131,9999,9999,9999,2483021936
49,23,13,Improv_Metronome,132,9999,9999,9999,2483521648
49,23,13,Improv_Metronome,133,9999,9999,9999,2484021320
49,23,13,Improv_Metronome,134,9999,9999,9999,2484522048
49,23,13,Improv_Metronome,135,9999,9999,9999,2485021812
49,23,13,Improv_Metronome,136,9999,9999,9999,2485521508
49,23,13,Improv_Metronome,137,9999,9999,9999,2486021180
49,23,13,Improv_Metronome,138,9999,9999,9999,2486521924
49,23,13,Improv_Metronome,139,9999,9999,9999,2487021672
49,24,14,Improv_Melody,0,2,48,80,2543560360
49,24,14,Improv_Melody,1,2,72,80,2543562364
49,24,14,Improv_Melody,2,5,42,127,2543564976
49,24,14,Improv_Melody,3,5,42,110,2544057592
49,24,14,Improv_Melody,4,5,42,110,2544557388
49,24,14,Improv_Melody,5,5,42,110,2545058084
49,24,14,Improv_Melody,6,1,48,18,2545545640
49,24,14,Improv_Melody,7,5,42,127,2545557724
49,24,14,Improv_Melody,8,1,38,24,2545904772
49,24,14,Improv_Melody,9,5,42,110,2546057556
49,24,14,Improv_Melody,10,1,48,41,2546080420
49,24,14,Improv_Melody,11,1,48,40,2546555268
49,24,14,Improv_Melody,12,5,42,110,2546558444
49,24,14,Improv_Melody,13,5,42,110,2547058152
49,24,14,Improv_Melody,14,1,48,38,2547081092
49,24,14,Improv_Melody,15,1,38,50,2547517644
49,24,14,Improv_Melody,16,2,43,80,2547560424
49,24,14,Improv_Melody,17,2,67,80,2547562580
49,24,14,Improv_Melody,18,5,42,127,2547565112
49,24,14,Improv_Melody,19,1,48,18,2547656480
49,24,14,Improv_Melody,20,1,38,48,2547985168
49,24,14,Improv_Melody,21,5,42,110,2548057540
49,24,14,Improv_Melody,22,1,48,38,2548164612
49,24,14,Improv_Melody,23,5,42,110,2548558272
49,24,14,Improv_Melody,24,1,48,21,2548623024
49,24,14,Improv_Melody,25,5,42,110,2549058196
49,24,14,Improv_Melody,26,5,42,127,2549557468
49,24,14,Improv_Melody,27,5,42,110,2550058236
49,24,14,Improv_Melody,28,5,42,110,2550558036
49,24,14,Improv_Melody,29,5,42,110,2551057904
49,24,14,Improv_Melody,30,2,45,80,2551560060
49,24,14,Improv_Melody,31,2,69,80,2551561908
49,24,14,Improv_Melody,32,5,42,127,2551564452
49,24,14,Improv_Melody,33,5,42,110,2552058160
49,24,14,Improv_Melody,34,5,42,110,2552558180
49,24,14,Improv_Melody,35,5,42,110,2553057680
49,24,14,Improv_Melody,36,5,42,127,2553558376
49,24,14,Improv_Melody,37,5,42,110,2554058020
49,24,14,Improv_Melody,38,5,42,110,2554557744
49,24,14,Improv_Melody,39,5,42,110,2555057388
49,24,14,Improv_Melody,40,2,41,80,2555560732
49,24,14,Improv_Melody,41,2,65,80,2555562736
49,24,14,Improv_Melody,42,5,42,127,2555565356
49,24,14,Improv_Melody,43,5,42,110,2556058040
49,24,14,Improv_Melody,44,5,42,110,2556557764
49,24,14,Improv_Melody,45,5,42,110,2557058312
49,24,14,Improv_Melody,46,5,42,127,2557558180
49,24,14,Improv_Melody,47,5,42,110,2558057904
49,24,14,Improv_Melody,48,5,42,110,2558557848
49,24,14,Improv_Melody,49,5,42,110,2559058468
49,24,14,Improv_Melody,50,2,48,80,2559560776
49,24,14,Improv_Melody,51,2,72,80,2559562620
49,24,14,Improv_Melody,52,5,42,127,2559565160
49,24,14,Improv_Melody,53,5,42,110,2560057848
49,24,14,Improv_Melody,54,5,42,110,2560557572
49,24,14,Improv_Melody,55,1,48,27,2561001652
49,24,14,Improv_Melody,56,1,38,13,2561013148
49,24,14,Improv_Melody,57,5,42,110,2561058092
49,24,14,Improv_Melody,58,1,48,19,2561476992
49,24,14,Improv_Melody,59,1,38,16,2561489164
49,24,14,Improv_Melody,60,5,42,127,2561557964
49,24,14,Improv_Melody,61,1,38,16,2561588420
49,24,14,Improv_Melody,62,1,48,21,2561967200
49,24,14,Improv_Melody,63,1,38,14,2561978772
49,24,14,Improv_Melody,64,5,42,110,2562057672
49,24,14,Improv_Melody,65,1,48,19,2562463344
49,24,14,Improv_Melody,66,1,38,13,2562475444
49,24,14,Improv_Melody,67,5,42,110,2562558208
49,24,14,Improv_Melody,68,1,38,46,2562890808
49,24,14,Improv_Melody,69,1,48,17,2562986600
49,24,14,Improv_Melody,70,5,42,110,2563057920
49,24,14,Improv_Melody,71,1,48,18,2563457132
49,24,14,Improv_Melody,72,1,38,13,2563469148
49,24,14,Improv_Melody,73,2,43,80,2563560164
49,24,14,Improv_Melody,74,2,67,80,2563563664
49,24,14,Improv_Melody,75,5,42,127,2563565904
49,24,14,Improv_Melody,76,1,48,24,2563928548
49,24,14,Improv_Melody,77,1,38,19,2563940872
49,24,14,Improv_Melody,78,5,42,110,2564057476
49,24,14,Improv_Melody,79,1,48,21,2564499636
49,24,14,Improv_Melody,80,1,38,17,2564512180
49,24,14,Improv_Melody,81,5,42,110,2564558216
49,24,14,Improv_Melody,82,1,38,22,2564666332
49,24,14,Improv_Melody,83,1,48,24,2565013848
49,24,14,Improv_Melody,84,1,38,19,2565026024
49,24,14,Improv_Melody,85,5,42,110,2565057848
49,24,14,Improv_Melody,86,1,48,19,2565495336
49,24,14,Improv_Melody,87,1,48,30,2565499724
49,24,14,Improv_Melody,88,5,42,127,2565557512
49,24,14,Improv_Melody,89,1,48,44,2565960608
49,24,14,Improv_Melody,90,5,42,110,2566059068
49,24,14,Improv_Melody,91,1,48,51,2566411088
49,24,14,Improv_Melody,92,1,48,25,2566531124
49,24,14,Improv_Melody,93,5,42,110,2566558088
49,24,14,Improv_Melody,94,1,48,24,2566950784
49,24,14,Improv_Melody,95,5,42,110,2567057772
49,24,14,Improv_Melody,96,1,48,26,2567448992
49,24,14,Improv_Melody,97,2,45,80,2567559900
49,24,14,Improv_Melody,98,2,69,80,2567562356
49,24,14,Improv_Melody,99,5,42,127,2567564892
49,24,14,Improv_Melody,100,1,48,21,2567838056
49,24,14,Improv_Melody,101,1,48,29,2567923152
49,24,14,Improv_Melody,102,5,42,110,2568058508
49,24,14,Improv_Melody,103,1,48,16,2568375280
49,24,14,Improv_Melody,104,5,42,110,2568558060
49,24,14,Improv_Melody,105,1,48,17,2568835716
49,24,14,Improv_Melody,106,1,48,27,2568840176
49,24,14,Improv_Melody,107,5,42,110,2569057592
49,24,14,Improv_Melody,108,1,48,40,2569208064
49,24,14,Improv_Melody,109,1,48,16,2569329912
49,24,14,Improv_Melody,110,1,48,29,2569334376
49,24,14,Improv_Melody,111,5,42,127,2569558444
49,24,14,Improv_Melody,112,1,48,21,2569768552
49,24,14,Improv_Melody,113,5,42,110,2570057996
49,24,14,Improv_Melody,114,5,42,110,2570557792
49,24,14,Improv_Melody,115,1,48,47,2570621272
49,24,14,Improv_Melody,116,5,42,110,2571057640
49,24,14,Improv_Melody,117,1,48,30,2571092844
49,24,14,Improv_Melody,118,2,41,80,2571560820
49,24,14,Improv_Melody,119,1,48,39,2571563804
49,24,14,Improv_Melody,120,2,65,80,2571565076
49,24,14,Improv_Melody,121,5,42,127,2571567312
49,24,14,Improv_Melody,122,5,42,110,2572058040
49,24,14,Improv_Melody,123,1,48,46,2572068340
49,24,14,Improv_Melody,124,1,48,46,2572542784
49,24,14,Improv_Melody,125,5,42,110,2572557660
49,24,14,Improv_Melody,126,1,48,50,2573010104
49,24,14,Improv_Melody,127,5,42,110,2573058336
49,24,14,Improv_Melody,128,1,48,41,2573498352
49,24,14,Improv_Melody,129,5,42,127,2573558232
49,24,14,Improv_Melody,130,1,48,49,2573993568
49,24,14,Improv_Melody,131,5,42,110,2574057708
49,24,14,Improv_Melody,132,1,48,35,2574479580
49,24,14,Improv_Melody,133,5,42,110,2574557484
49,24,14,Improv_Melody,134,1,48,46,2574986232
49,24,14,Improv_Melody,135,5,42,110,2575058452
49,24,14,Improv_Melody,136,1,48,58,2575474488
49,24,14,Improv_Melody,137,2,48,80,2575560660
49,24,14,Improv_Melody,138,2,72,80,2575562816
49,24,14,Improv_Melody,139,5,42,127,2575565424
49,24,14,Improv_Melody,140,1,48,54,2575683744
49,24,14,Improv_Melody,141,1,48,70,2575931480
49,24,14,Improv_Melody,142,5,42,110,2576057756
49,24,14,Improv_Melody,143,1,48,43,2576395352
49,24,14,Improv_Melody,144,5,42,110,2576557384
49,24,14,Improv_Melody,145,1,48,16,2576884776
49,24,14,Improv_Melody,146,5,42,110,2577058204
49,24,14,Improv_Melody,147,1,48,54,2577311692
49,24,14,Improv_Melody,148,1,48,46,2577541180
49,24,14,Improv_Melody,149,5,42,127,2577558196
49,24,14,Improv_Melody,150,1,48,51,2577703664
49,24,14,Improv_Melody,151,5,42,110,2578057508
49,24,14,Improv_Melody,152,1,48,58,2578118144
49,24,14,Improv_Melody,153,1,48,52,2578540032
49,24,14,Improv_Melody,154,5,42,110,2578558248
49,24,14,Improv_Melody,155,1,48,49,2578959024
49,24,14,Improv_Melody,156,5,42,110,2579058232
49,24,14,Improv_Melody,157,1,48,44,2579318084
49,24,14,Improv_Melody,158,2,43,80,2579560364
49,24,14,Improv_Melody,159,2,67,80,2579562440
49,24,14,Improv_Melody,160,5,42,127,2579565200
49,24,14,Improv_Melody,161,1,38,20,2579864320
49,24,14,Improv_Melody,162,5,42,110,2580057424
49,24,14,Improv_Melody,163,1,38,17,2580351308
49,24,14,Improv_Melody,164,5,42,110,2580558096
49,24,14,Improv_Melody,165,1,38,16,2580756912
49,24,14,Improv_Melody,166,5,42,110,2581058096
49,24,14,Improv_Melody,167,1,38,14,2581184328
49,24,14,Improv_Melody,168,1,38,19,2581547872
49,24,14,Improv_Melody,169,5,42,127,2581557488
49,24,14,Improv_Melody,170,1,48,34,2581920096
49,24,14,Improv_Melody,171,5,42,110,2582058368
49,24,14,Improv_Melody,172,1,38,19,2582296080
49,24,14,Improv_Melody,173,5,42,110,2582558216
49,24,14,Improv_Melody,174,1,38,14,2582657228
49,24,14,Improv_Melody,175,5,42,110,2583057992
49,24,14,Improv_Melody,176,1,48,35,2583108684
49,24,14,Improv_Melody,177,1,48,28,2583339736
49,24,14,Improv_Melody,178,2,45,80,2583560028
49,24,14,Improv_Melody,179,2,69,80,2583562028
49,24,14,Improv_Melody,180,5,42,127,2583564716
49,24,14,Improv_Melody,181,1,48,28,2583815216
49,24,14,Improv_Melody,182,5,42,110,2584058180
49,24,14,Improv_Melody,183,1,48,20,2584074640
49,24,14,Improv_Melody,184,1,48,20,2584347056
49,24,14,Improv_Melody,185,5,42,110,2584557936
49,24,14,Improv_Melody,186,1,48,21,2584587780
49,24,14,Improv_Melody,187,1,48,18,2584889520
49,24,14,Improv_Melody,188,5,42,110,2585057764
49,24,14,Improv_Melody,189,1,48,21,2585185596
49,24,14,Improv_Melody,190,1,48,19,2585446040
49,24,14,Improv_Melody,191,5,42,127,2585558412
49,24,14,Improv_Melody,192,1,48,19,2585684004
49,24,14,Improv_Melody,193,1,48,25,2585999124
49,24,14,Improv_Melody,194,5,42,110,2586057956
49,24,14,Improv_Melody,195,1,48,18,2586315620
49,24,14,Improv_Melody,196,5,42,110,2586557940
49,24,14,Improv_Melody,197,1,48,22,2586582376
49,24,14,Improv_Melody,198,1,48,27,2586824420
49,24,14,Improv_Melody,199,5,42,110,2587057392
49,24,14,Improv_Melody,200,1,48,27,2587177964
49,24,14,Improv_Melody,201,1,48,25,2587419868
49,24,14,Improv_Melody,202,2,41,80,2587560920
49,24,14,Improv_Melody,203,2,65,80,2587562920
49,24,14,Improv_Melody,204,5,42,127,2587565684
49,24,14,Improv_Melody,205,1,48,28,2587705108
49,24,14,Improv_Melody,206,1,48,34,2587843764
49,24,14,Improv_Melody,207,5,42,110,2588057956
49,24,14,Improv_Melody,208,1,38,44,2588068036
49,24,14,Improv_Melody,209,1,48,14,2588149692
49,24,14,Improv_Melody,210,1,48,27,2588154384
49,24,14,Improv_Melody,211,5,42,110,2588557888
49,24,14,Improv_Melody,212,1,48,35,2588812272
49,24,14,Improv_Melody,213,5,42,110,2589058932
49,24,14,Improv_Melody,214,1,48,22,2589085240
49,24,14,Improv_Melody,215,1,48,30,2589336188
49,24,14,Improv_Melody,216,5,42,127,2589558012
49,24,14,Improv_Melody,217,1,48,19,2589587464
49,24,14,Improv_Melody,218,1,48,27,2589842296
49,24,14,Improv_Melody,219,5,42,110,2590057692
49,24,14,Improv_Melody,220,1,48,35,2590066048
49,24,14,Improv_Melody,221,1,48,36,2590338460
49,24,14,Improv_Melody,222,1,48,36,2590520748
49,24,14,Improv_Melody,223,5,42,110,2590557436
49,24,14,Improv_Melody,224,5,42,110,2591058340
49,24,14,Improv_Melody,225,2,48,80,2591560416
49,24,14,Improv_Melody,226,2,72,80,2591562568
49,24,14,Improv_Melody,227,5,42,127,2591565108
49,24,14,Improv_Melody,228,1,38,127,2591870212
49,24,14,Improv_Melody,229,5,42,110,2592057852
49,24,14,Improv_Melody,230,5,42,110,2592557276
49,24,14,Improv_Melody,231,1,48,25,2592801192
49,24,14,Improv_Melody,232,5,42,110,2593058172
49,24,14,Improv_Melody,233,1,48,20,2593112900
49,24,14,Improv_Melody,234,1,48,22,2593380680
49,24,14,Improv_Melody,235,5,42,127,2593557776
49,24,14,Improv_Melody,236,1,48,28,2593938648
49,24,14,Improv_Melody,237,5,42,110,2594057700
49,24,14,Improv_Melody,238,1,48,28,2594205928
49,24,14,Improv_Melody,239,1,48,29,2594475424
49,24,14,Improv_Melody,240,5,42,110,2594558416
49,24,14,Improv_Melody,241,1,48,21,2594724724
49,24,14,Improv_Melody,242,1,48,24,2595014344
49,24,14,Improv_Melody,243,5,42,110,2595057920
49,24,14,Improv_Melody,244,1,38,42,2595386520
49,24,14,Improv_Melody,245,2,43,80,2595560032
49,24,14,Improv_Melody,246,2,67,80,2595562256
49,24,14,Improv_Melody,247,5,42,127,2595564872
49,24,14,Improv_Melody,248,1,38,35,2595744608
49,24,14,Improv_Melody,249,1,38,21,2595998700
49,24,14,Improv_Melody,250,5,42,110,2596057532
49,24,14,Improv_Melody,251,1,38,36,2596269848
49,24,14,Improv_Melody,252,1,38,27,2596532464
49,24,14,Improv_Melody,253,5,42,110,2596558308
49,24,14,Improv_Melody,254,1,38,31,2596742224
49,24,14,Improv_Melody,255,1,38,39,2597008056
49,24,14,Improv_Melody,256,5,42,110,2597058060
49,24,14,Improv_Melody,257,1,48,32,2597307052
49,24,14,Improv_Melody,258,5,42,127,2597557524
49,24,14,Improv_Melody,259,1,38,33,2597584648
49,24,14,Improv_Melody,260,1,38,41,2597861852
49,24,14,Improv_Melody,261,5,42,110,2598058396
49,24,14,Improv_Melody,262,1,38,44,2598135636
49,24,14,Improv_Melody,263,1,48,41,2598411968
49,24,14,Improv_Melody,264,5,42,110,2598558224
49,24,14,Improv_Melody,265,1,38,38,2598655760
49,24,14,Improv_Melody,266,1,38,35,2598942768
49,24,14,Improv_Melody,267,5,42,110,2599057904
49,24,14,Improv_Melody,268,1,38,23,2599529608
49,24,14,Improv_Melody,269,2,45,80,2599560048
49,24,14,Improv_Melody,270,2,69,80,2599562352
49,24,14,Improv_Melody,271,5,42,127,2599564812
49,24,14,Improv_Melody,272,5,42,110,2600058084
49,24,14,Improv_Melody,273,1,38,26,2600063300
49,24,14,Improv_Melody,274,1,38,33,2600557556
49,24,14,Improv_Melody,275,5,42,110,2600559724
49,24,14,Improv_Melody,276,1,38,43,2600573596
49,24,14,Improv_Melody,277,5,42,110,2601057612
49,24,14,Improv_Melody,278,1,38,43,2601087360
49,24,14,Improv_Melody,279,5,42,127,2601558580
49,24,14,Improv_Melody,280,1,38,48,2601593264
49,24,14,Improv_Melody,281,1,48,44,2601605216
49,24,14,Improv_Melody,282,5,42,110,2602058160
49,24,14,Improv_Melody,283,1,48,45,2602117972
49,24,14,Improv_Melody,284,1,38,42,2602137552
49,24,14,Improv_Melody,285,5,42,110,2602557664
49,24,14,Improv_Melody,286,1,48,47,2602964860
49,24,14,Improv_Melody,287,5,42,110,2603057600
49,24,14,Improv_Melody,288,1,48,45,2603432400
49,24,14,Improv_Melody,289,2,41,80,2603560840
49,24,14,Improv_Melody,290,2,65,80,2603563068
49,24,14,Improv_Melody,291,5,42,127,2603565528
49,24,14,Improv_Melody,292,1,38,36,2603611580
49,24,14,Improv_Melody,293,1,48,44,2603861040
49,24,14,Improv_Melody,294,5,42,110,2604057876
49,24,14,Improv_Melody,295,1,48,48,2604391628
49,24,14,Improv_Melody,296,5,42,110,2604557728
49,24,14,Improv_Melody,297,1,38,30,2604684412
49,24,14,Improv_Melody,298,1,48,48,2604749916
49,24,14,Improv_Melody,299,5,42,110,2605058588
49,24,14,Improv_Melody,300,1,48,42,2605504084
49,24,14,Improv_Melody,301,5,42,127,2605558276
49,24,14,Improv_Melody,302,1,38,39,2605694248
49,24,14,Improv_Melody,303,1,48,41,2605837040
49,24,14,Improv_Melody,304,5,42,110,2606057792
49,24,14,Improv_Melody,305,1,48,43,2606253164
49,24,14,Improv_Melody,306,5,42,110,2606557568
49,24,14,Improv_Melody,307,1,38,41,2606612468
49,24,14,Improv_Melody,308,1,48,40,2606753892
49,24,14,Improv_Melody,309,5,42,110,2607058292
49,24,14,Improv_Melody,310,1,48,35,2607094616
49,24,14,Improv_Melody,311,2,48,80,2607560876
49,24,14,Improv_Melody,312,2,72,80,2607562948
49,24,14,Improv_Melody,313,5,42,127,2607565632
49,24,14,Improv_Melody,314,1,38,86,2607699976
49,24,14,Improv_Melody,315,1,48,78,2607703096
49,24,14,Improv_Melody,316,5,42,110,2608057656
49,24,14,Improv_Melody,317,5,42,110,2608557380
49,24,14,Improv_Melody,318,5,42,110,2609058372
49,24,14,Improv_Melody,319,5,42,127,2609557796
49,24,14,Improv_Melody,320,5,42,110,2610057520
49,24,14,Improv_Melody,321,5,42,110,2610558288
49,24,14,Improv_Melody,322,5,42,110,2611058232
49,24,14,Improv_Melody,323,2,43,80,2611560384
49,24,14,Improv_Melody,324,2,67,80,2611562688
49,24,14,Improv_Melody,325,5,42,127,2611565224
49,24,14,Improv_Melody,326,1,38,111,2611841456
49,24,14,Improv_Melody,327,5,42,110,2612057368
49,24,14,Improv_Melody,328,5,42,110,2612558140
49,24,14,Improv_Melody,329,5,42,110,2613057860
49,24,14,Improv_Melody,330,1,48,59,2613103912
49,24,14,Improv_Melody,331,5,42,127,2613557636
49,24,14,Improv_Melody,332,1,48,57,2613590672
49,24,14,Improv_Melody,333,5,42,110,2614058232
49,24,14,Improv_Melody,334,1,48,47,2614126348
49,24,14,Improv_Melody,335,5,42,110,2614558232
49,24,14,Improv_Melody,336,1,48,46,2614598524
49,24,14,Improv_Melody,337,5,42,110,2615057632
49,24,14,Improv_Melody,338,1,48,44,2615105780
49,24,14,Improv_Melody,339,2,45,80,2615559984
49,24,14,Improv_Melody,340,2,69,80,2615561988
49,24,14,Improv_Melody,341,5,42,127,2615564528
49,24,14,Improv_Melody,342,1,48,27,2615609304
49,24,14,Improv_Melody,343,5,42,110,2616058216
49,24,14,Improv_Melody,344,1,38,52,2616061880
49,24,14,Improv_Melody,345,1,38,51,2616541192
49,24,14,Improv_Melody,346,5,42,110,2616558132
49,24,14,Improv_Melody,347,1,48,51,2616728660
49,24,14,Improv_Melody,348,5,42,110,2617057668
49,24,14,Improv_Melody,349,1,48,43,2617117360
49,24,14,Improv_Melody,350,5,42,127,2617558264
49,24,14,Improv_Melody,351,1,38,41,2617571104
49,24,14,Improv_Melody,352,1,48,55,2617712856
49,24,14,Improv_Melody,353,5,42,110,2618058168
49,24,14,Improv_Melody,354,1,48,65,2618172688
49,24,14,Improv_Melody,355,5,42,110,2618558092
49,24,14,Improv_Melody,356,1,38,50,2618596216
49,24,14,Improv_Melody,357,1,48,53,2618659736
49,24,14,Improv_Melody,358,5,42,110,2619057532
49,24,14,Improv_Melody,359,1,38,40,2619119068
49,24,14,Improv_Melody,360,1,48,53,2619199264
49,24,14,Improv_Melody,361,2,41,80,2619561052
49,24,14,Improv_Melody,362,2,65,80,2619563052
49,24,14,Improv_Melody,363,5,42,127,2619565512
49,24,14,Improv_Melody,364,1,38,48,2619586284
49,24,14,Improv_Melody,365,1,48,55,2619679052
49,24,14,Improv_Melody,366,1,38,48,2620042764
49,24,14,Improv_Melody,367,5,42,110,2620057840
49,24,14,Improv_Melody,368,1,48,65,2620159996
49,24,14,Improv_Melody,369,1,48,45,2620545588
49,24,14,Improv_Melody,370,5,42,110,2620557964
49,24,14,Improv_Melody,371,1,48,42,2620649032
49,24,14,Improv_Melody,372,1,48,25,2620948100
49,24,14,Improv_Melody,373,5,42,110,2621058452
49,24,14,Improv_Melody,374,1,48,47,2621070848
49,24,14,Improv_Melody,375,1,48,50,2621268392
49,24,14,Improv_Melody,376,1,48,46,2621460024
49,24,14,Improv_Melody,377,5,42,127,2621558272
49,24,14,Improv_Melody,378,1,48,30,2621608796
49,24,14,Improv_Melody,379,1,48,45,2621810232
49,24,14,Improv_Melody,380,1,48,38,2622010244
49,24,14,Improv_Melody,381,5,42,110,2622057928
49,24,14,Improv_Melody,382,1,48,43,2622150720
49,24,14,Improv_Melody,383,1,48,24,2622302180
49,24,14,Improv_Melody,384,1,48,52,2622413532
49,24,14,Improv_Melody,385,5,42,110,2622557496
49,24,14,Improv_Melody,386,5,42,110,2623058488
49,24,14,Improv_Melody,387,1,48,14,2623263360
49,24,14,Improv_Melody,388,1,48,28,2623333424
49,24,14,Improv_Melody,389,1,48,20,2623533364
49,24,14,Improv_Melody,390,2,48,80,2623560436
49,24,14,Improv_Melody,391,2,72,80,2623562740
49,24,14,Improv_Melody,392,5,42,127,2623565276
49,24,14,Improv_Melody,393,1,48,35,2623632932
49,24,14,Improv_Melody,394,5,42,110,2624057708
49,24,14,Improv_Melody,395,1,48,20,2624271636
49,24,14,Improv_Melody,396,1,48,46,2624386128
49,24,14,Improv_Melody,397,1,48,27,2624545900
49,24,14,Improv_Melody,0,9999,9999,9999,2543555672
49,24,14,Improv_Melody,1,9999,9999,9999,2544055376
49,24,14,Improv_Melody,2,9999,9999,9999,2544555096
49,24,14,Improv_Melody,3,9999,9999,9999,2545055864
49,24,14,Improv_Melody,4,9999,9999,9999,2545555504
49,24,14,Improv_Melody,5,9999,9999,9999,2546055264
49,24,14,Improv_Melody,6,9999,9999,9999,2546556004
49,24,14,Improv_Melody,7,9999,9999,9999,2547055712
49,24,14,Improv_Melody,8,9999,9999,9999,2547555404
49,24,14,Improv_Melody,9,9999,9999,9999,2548055096
49,24,14,Improv_Melody,10,9999,9999,9999,2548555828
49,24,14,Improv_Melody,11,9999,9999,9999,2549055604
49,24,14,Improv_Melody,12,9999,9999,9999,2549555252
49,24,14,Improv_Melody,13,9999,9999,9999,2550056020
49,24,14,Improv_Melody,14,9999,9999,9999,2550555744
49,24,14,Improv_Melody,15,9999,9999,9999,2551055464
49,24,14,Improv_Melody,16,9999,9999,9999,2551555188
49,24,14,Improv_Melody,17,9999,9999,9999,2552055868
49,24,14,Improv_Melody,18,9999,9999,9999,2552555592
49,24,14,Improv_Melody,19,9999,9999,9999,2553055316
49,24,14,Improv_Melody,20,9999,9999,9999,2553556084
49,24,14,Improv_Melody,21,9999,9999,9999,2554055728
49,24,14,Improv_Melody,22,9999,9999,9999,2554555452
49,24,14,Improv_Melody,23,9999,9999,9999,2555055172
49,24,14,Improv_Melody,24,9999,9999,9999,2555555940
49,24,14,Improv_Melody,25,9999,9999,9999,2556055600
49,24,14,Improv_Melody,26,9999,9999,9999,2556555324
49,24,14,Improv_Melody,27,9999,9999,9999,2557056092
49,24,14,Improv_Melody,28,9999,9999,9999,2557555816
49,24,14,Improv_Melody,29,9999,9999,9999,2558055536
49,24,14,Improv_Melody,30,9999,9999,9999,2558555260
49,24,14,Improv_Melody,31,9999,9999,9999,2559055952
49,24,14,Improv_Melody,32,9999,9999,9999,2559555672
49,24,14,Improv_Melody,33,9999,9999,9999,2560055408
49,24,14,Improv_Melody,34,9999,9999,9999,2560555132
49,24,14,Improv_Melody,35,9999,9999,9999,2561055800
49,24,14,Improv_Melody,36,9999,9999,9999,2561555524
49,24,14,Improv_Melody,37,9999,9999,9999,2562055232
49,24,14,Improv_Melody,38,9999,9999,9999,2562555992
49,24,14,Improv_Melody,39,9999,9999,9999,2563055704
49,24,14,Improv_Melody,40,9999,9999,9999,2563555444
49,24,14,Improv_Melody,41,9999,9999,9999,2564055108
49,24,14,Improv_Melody,42,9999,9999,9999,2564555852
49,24,14,Improv_Melody,43,9999,9999,9999,2565055560
49,24,14,Improv_Melody,44,9999,9999,9999,2565555296
49,24,14,Improv_Melody,45,9999,9999,9999,2566056044
49,24,14,Improv_Melody,46,9999,9999,9999,2566555720
49,24,14,Improv_Melody,47,9999,9999,9999,2567055480
49,24,14,Improv_Melody,48,9999,9999,9999,2567555184
49,24,14,Improv_Melody,49,9999,9999,9999,2568055920
49,24,14,Improv_Melody,50,9999,9999,9999,2568555620
49,24,14,Improv_Melody,51,9999,9999,9999,2569055300
49,24,14,Improv_Melody,52,9999,9999,9999,2569556076
49,24,14,Improv_Melody,53,9999,9999,9999,2570055780
49,24,14,Improv_Melody,54,9999,9999,9999,2570555500
49,24,14,Improv_Melody,55,9999,9999,9999,2571055200
49,24,14,Improv_Melody,56,9999,9999,9999,2571555948
49,24,14,Improv_Melody,57,9999,9999,9999,2572055672
49,24,14,Improv_Melody,58,9999,9999,9999,2572555372
49,24,14,Improv_Melody,59,9999,9999,9999,2573056116
49,24,14,Improv_Melody,60,9999,9999,9999,2573555792
49,24,14,Improv_Melody,61,9999,9999,9999,2574055492
49,24,14,Improv_Melody,62,9999,9999,9999,2574555192
49,24,14,Improv_Melody,63,9999,9999,9999,2575055940
49,24,14,Improv_Melody,64,9999,9999,9999,2575555640
49,24,14,Improv_Melody,65,9999,9999,9999,2576055392
49,24,14,Improv_Melody,66,9999,9999,9999,2576555092
49,24,14,Improv_Melody,67,9999,9999,9999,2577055840
49,24,14,Improv_Melody,68,9999,9999,9999,2577555532
49,24,14,Improv_Melody,69,9999,9999,9999,2578055216
49,24,14,Improv_Melody,70,9999,9999,9999,2578555956
49,24,14,Improv_Melody,71,9999,9999,9999,2579055732
49,24,14,Improv_Melody,72,9999,9999,9999,2579555420
49,24,14,Improv_Melody,73,9999,9999,9999,2580055132
49,24,14,Improv_Melody,74,9999,9999,9999,2580555880
49,24,14,Improv_Melody,75,9999,9999,9999,2581055580
49,24,14,Improv_Melody,76,9999,9999,9999,2581555272
49,24,14,Improv_Melody,77,9999,9999,9999,2582056004
49,24,14,Improv_Melody,78,9999,9999,9999,2582555704
49,24,14,Improv_Melody,79,9999,9999,9999,2583055476
49,24,14,Improv_Melody,80,9999,9999,9999,2583555156
49,24,14,Improv_Melody,81,9999,9999,9999,2584055888
49,24,14,Improv_Melody,82,9999,9999,9999,2584555644
49,24,14,Improv_Melody,83,9999,9999,9999,2585055320
49,24,14,Improv_Melody,84,9999,9999,9999,2585556048
49,24,14,Improv_Melody,85,9999,9999,9999,2586055740
49,24,14,Improv_Melody,86,9999,9999,9999,2586555500
49,24,14,Improv_Melody,87,9999,9999,9999,2587055176
49,24,14,Improv_Melody,88,9999,9999,9999,2587555900
49,24,14,Improv_Melody,89,9999,9999,9999,2588055668
49,24,14,Improv_Melody,90,9999,9999,9999,2588555372
49,24,14,Improv_Melody,91,9999,9999,9999,2589056120
49,24,14,Improv_Melody,92,9999,9999,9999,2589555796
49,24,14,Improv_Melody,93,9999,9999,9999,2590055476
49,24,14,Improv_Melody,94,9999,9999,9999,2590555220
49,24,14,Improv_Melody,95,9999,9999,9999,2591055972
49,24,14,Improv_Melody,96,9999,9999,9999,2591555696
49,24,14,Improv_Melody,97,9999,9999,9999,2592055412
49,24,14,Improv_Melody,98,9999,9999,9999,2592555060
49,24,14,Improv_Melody,99,9999,9999,9999,2593055808
49,24,14,Improv_Melody,100,9999,9999,9999,2593555560
49,24,14,Improv_Melody,101,9999,9999,9999,2594055260
49,24,14,Improv_Melody,102,9999,9999,9999,2594555976
49,24,14,Improv_Melody,103,9999,9999,9999,2595055700
49,24,14,Improv_Melody,104,9999,9999,9999,2595555388
49,24,14,Improv_Melody,105,9999,9999,9999,2596055092
49,24,14,Improv_Melody,106,9999,9999,9999,2596555868
49,24,14,Improv_Melody,107,9999,9999,9999,2597055548
49,24,14,Improv_Melody,108,9999,9999,9999,2597555304
49,24,14,Improv_Melody,109,9999,9999,9999,2598056028
49,24,14,Improv_Melody,110,9999,9999,9999,2598555708
49,24,14,Improv_Melody,111,9999,9999,9999,2599055464
49,24,14,Improv_Melody,112,9999,9999,9999,2599555180
49,24,14,Improv_Melody,113,9999,9999,9999,2600055868
49,24,14,Improv_Melody,114,9999,9999,9999,2600555644
49,24,14,Improv_Melody,115,9999,9999,9999,2601055320
49,24,14,Improv_Melody,116,9999,9999,9999,2601556068
49,24,14,Improv_Melody,117,9999,9999,9999,2602055792
49,24,14,Improv_Melody,118,9999,9999,9999,2602555448
49,24,14,Improv_Melody,119,9999,9999,9999,2603055160
49,24,14,Improv_Melody,120,9999,9999,9999,2603555892
49,24,14,Improv_Melody,121,9999,9999,9999,2604055660
49,24,14,Improv_Melody,122,9999,9999,9999,2604555360
49,24,14,Improv_Melody,123,9999,9999,9999,2605056072
49,24,14,Improv_Melody,124,9999,9999,9999,2605555764
49,24,14,Improv_Melody,125,9999,9999,9999,2606055500
49,24,14,Improv_Melody,126,9999,9999,9999,2606555200
49,24,14,Improv_Melody,127,9999,9999,9999,2607055924
49,24,14,Improv_Melody,128,9999,9999,9999,2607555700
49,24,14,Improv_Melody,129,9999,9999,9999,2608055364
49,24,14,Improv_Melody,130,9999,9999,9999,2608555088
49,24,14,Improv_Melody,131,9999,9999,9999,2609055856
49,24,14,Improv_Melody,132,9999,9999,9999,2609555580
49,24,14,Improv_Melody,133,9999,9999,9999,2610055228
49,24,14,Improv_Melody,134,9999,9999,9999,2610555996
49,24,14,Improv_Melody,135,9999,9999,9999,2611055716
49,24,14,Improv_Melody,136,9999,9999,9999,2611555440
49,24,14,Improv_Melody,137,9999,9999,9999,2612055152
49,24,14,Improv_Melody,138,9999,9999,9999,2612555848
49,24,14,Improv_Melody,139,9999,9999,9999,2613055568
49,24,14,Improv_Melody,140,9999,9999,9999,2613555268
49,24,14,Improv_Melody,141,9999,9999,9999,2614056016
49,24,14,Improv_Melody,142,9999,9999,9999,2614555716
49,24,14,Improv_Melody,143,9999,9999,9999,2615055416
49,24,14,Improv_Melody,144,9999,9999,9999,2615555188
49,24,14,Improv_Melody,145,9999,9999,9999,2616055924
49,24,14,Improv_Melody,146,9999,9999,9999,2616555620
49,24,14,Improv_Melody,147,9999,9999,9999,2617055304
49,24,14,Improv_Melody,148,9999,9999,9999,2617556048
49,24,14,Improv_Melody,149,9999,9999,9999,2618055800
49,24,14,Improv_Melody,150,9999,9999,9999,2618555500
49,24,14,Improv_Melody,151,9999,9999,9999,2619055164
49,24,14,Improv_Melody,152,9999,9999,9999,2619555952
49,24,14,Improv_Melody,153,9999,9999,9999,2620055624
49,24,14,Improv_Melody,154,9999,9999,9999,2620555376
49,24,14,Improv_Melody,155,9999,9999,9999,2621056088
49,24,14,Improv_Melody,156,9999,9999,9999,2621555832
49,24,14,Improv_Melody,157,9999,9999,9999,2622055488
49,24,14,Improv_Melody,158,9999,9999,9999,2622555204
49,24,14,Improv_Melody,159,9999,9999,9999,2623055972
49,24,14,Improv_Melody,160,9999,9999,9999,2623555644
49,24,14,Improv_Melody,161,9999,9999,9999,2624055416
