pid,taskRunCount,taskID,taskName,i,channel,pitch,velocity,microseconds
1,1,Ticks_Pract_5,0,5,42,127,1375438432
431,1,Ticks_Pract_5,1,5,42,127,1375937776
431,1,Ticks_Pract_5,2,5,42,127,1376437568
431,1,Ticks_Pract_5,3,5,42,127,1376938404
431,1,Ticks_Pract_5,4,1,48,53,1377401132
431,1,Ticks_Pract_5,5,5,42,127,1377438188
431,1,Ticks_Pract_5,6,1,48,55,1377899252
431,1,Ticks_Pract_5,7,5,42,127,1377937808
431,1,Ticks_Pract_5,8,1,48,48,1378383536
431,1,Ticks_Pract_5,9,5,42,127,1378437428
431,1,Ticks_Pract_5,10,1,48,51,1378892284
431,1,Ticks_Pract_5,11,5,42,127,1378938392
431,1,Ticks_Pract_5,12,1,48,53,1379396388
431,1,Ticks_Pract_5,13,5,42,127,1379437864
431,1,Ticks_Pract_5,14,1,48,58,1379904764
431,1,Ticks_Pract_5,15,5,42,127,1379937632
431,1,Ticks_Pract_5,16,1,48,55,1380401688
431,1,Ticks_Pract_5,17,5,42,127,1380438448
431,1,Ticks_Pract_5,18,1,48,54,1380920904
431,1,Ticks_Pract_5,19,5,42,127,1380938216
431,1,Ticks_Pract_5,20,1,48,24,1381006020
431,1,Ticks_Pract_5,21,5,42,127,1381437824
431,1,Ticks_Pract_5,22,1,48,55,1381446852
431,1,Ticks_Pract_5,23,1,48,24,1381523120
431,1,Ticks_Pract_5,24,1,48,58,1381929896
431,1,Ticks_Pract_5,25,5,42,127,1381937488
431,1,Ticks_Pract_5,26,1,48,57,1382409772
431,1,Ticks_Pract_5,27,5,42,127,1382438304
431,1,Ticks_Pract_5,28,1,48,55,1382897200
431,1,Ticks_Pract_5,29,5,42,127,1382938148
431,1,Ticks_Pract_5,30,1,48,52,1383391336
431,1,Ticks_Pract_5,31,5,42,127,1383437620
431,1,Ticks_Pract_5,32,1,48,51,1383878608
431,1,Ticks_Pract_5,33,5,42,127,1383938432
431,1,Ticks_Pract_5,34,1,48,57,1384335144
431,1,Ticks_Pract_5,35,5,42,127,1384438188
431,1,Ticks_Pract_5,36,1,48,52,1384879496
431,1,Ticks_Pract_5,37,5,42,127,1384937944
431,1,Ticks_Pract_5,38,1,48,50,1385404140
431,1,Ticks_Pract_5,39,5,42,127,1385437464
431,1,Ticks_Pract_5,40,1,48,51,1385896208
431,1,Ticks_Pract_5,41,5,42,127,1385938208
431,1,Ticks_Pract_5,42,1,48,51,1386377432
431,1,Ticks_Pract_5,43,5,42,127,1386438196
431,1,Ticks_Pract_5,44,1,48,50,1386881164
431,1,Ticks_Pract_5,45,5,42,127,1386937672
431,1,Ticks_Pract_5,46,1,48,51,1387388560
431,1,Ticks_Pract_5,47,5,42,127,1387437292
431,1,Ticks_Pract_5,48,1,48,49,1387915332
431,1,Ticks_Pract_5,49,5,42,127,1387938328
431,1,Ticks_Pract_5,50,1,48,52,1388410312
431,1,Ticks_Pract_5,51,5,42,127,1388438024
431,1,Ticks_Pract_5,52,1,48,51,1388931996
431,1,Ticks_Pract_5,53,5,42,127,1388937568
431,1,Ticks_Pract_5,54,5,42,127,1389438240
431,1,Ticks_Pract_5,55,1,48,48,1389439804
431,1,Ticks_Pract_5,56,1,48,49,1389912540
431,1,Ticks_Pract_5,57,5,42,127,1389938228
431,1,Ticks_Pract_5,58,1,48,52,1390405496
431,1,Ticks_Pract_5,59,5,42,127,1390437924
431,1,Ticks_Pract_5,60,5,42,127,1390937552
431,1,Ticks_Pract_5,61,1,48,50,1390947552
431,1,Ticks_Pract_5,62,5,42,127,1391438144
431,1,Ticks_Pract_5,63,1,48,53,1391461756
431,1,Ticks_Pract_5,64,5,42,127,1391937984
431,1,Ticks_Pract_5,65,1,48,51,1391948436
431,1,Ticks_Pract_5,66,5,42,127,1392437608
431,1,Ticks_Pract_5,67,1,48,51,1392461664
431,1,Ticks_Pract_5,68,1,48,52,1392923044
431,1,Ticks_Pract_5,69,5,42,127,1392938416
431,1,Ticks_Pract_5,70,1,48,43,1393405092
431,1,Ticks_Pract_5,71,5,42,127,1393438112
431,1,Ticks_Pract_5,72,1,48,43,1393888456
431,1,Ticks_Pract_5,73,5,42,127,1393938028
431,1,Ticks_Pract_5,74,1,48,47,1394385824
431,1,Ticks_Pract_5,75,5,42,127,1394437572
431,1,Ticks_Pract_5,76,1,48,47,1394872208
431,1,Ticks_Pract_5,77,5,42,127,1394938316
431,1,Ticks_Pract_5,78,1,48,44,1395352980
431,1,Ticks_Pract_5,0,9999,9999,9999,1375435848
431,1,Ticks_Pract_5,1,9999,9999,9999,1375935560
431,1,Ticks_Pract_5,2,9999,9999,9999,1376435280
431,1,Ticks_Pract_5,3,9999,9999,9999,1376936040
431,1,Ticks_Pract_5,4,9999,9999,9999,1377435752
431,1,Ticks_Pract_5,5,9999,9999,9999,1377935444
431,1,Ticks_Pract_5,6,9999,9999,9999,1378435140
431,1,Ticks_Pract_5,7,9999,9999,9999,1378935880
431,1,Ticks_Pract_5,8,9999,9999,9999,1379435576
431,1,Ticks_Pract_5,9,9999,9999,9999,1379935344
431,1,Ticks_Pract_5,10,9999,9999,9999,1380436084
431,1,Ticks_Pract_5,11,9999,9999,9999,1380935780
431,1,Ticks_Pract_5,12,9999,9999,9999,1381435460
431,1,Ticks_Pract_5,13,9999,9999,9999,1381935200
431,1,Ticks_Pract_5,14,9999,9999,9999,1382435940
431,1,Ticks_Pract_5,15,9999,9999,9999,1382935632
431,1,Ticks_Pract_5,16,9999,9999,9999,1383435328
431,1,Ticks_Pract_5,17,9999,9999,9999,1383936072
431,1,Ticks_Pract_5,18,9999,9999,9999,1384435820
431,1,Ticks_Pract_5,19,9999,9999,9999,1384935508
431,1,Ticks_Pract_5,20,9999,9999,9999,1385435248
431,1,Ticks_Pract_5,21,9999,9999,9999,1385935992
431,1,Ticks_Pract_5,22,9999,9999,9999,1386435684
431,1,Ticks_Pract_5,23,9999,9999,9999,1386935380
431,1,Ticks_Pract_5,24,9999,9999,9999,1387435076
431,1,Ticks_Pract_5,25,9999,9999,9999,1387935816
431,1,Ticks_Pract_5,26,9999,9999,9999,1388435508
431,1,Ticks_Pract_5,27,9999,9999,9999,1388935280
431,1,Ticks_Pract_5,28,9999,9999,9999,1389435952
431,1,Ticks_Pract_5,29,9999,9999,9999,1389935716
431,1,Ticks_Pract_5,30,9999,9999,9999,1390435408
431,1,Ticks_Pract_5,31,9999,9999,9999,1390935112
431,1,Ticks_Pract_5,32,9999,9999,9999,1391435852
431,1,Ticks_Pract_5,33,9999,9999,9999,1391935548
431,1,Ticks_Pract_5,34,9999,9999,9999,1392435316
431,1,Ticks_Pract_5,35,9999,9999,9999,1392936052
431,1,Ticks_Pract_5,36,9999,9999,9999,1393435744
431,1,Ticks_Pract_5,37,9999,9999,9999,1393935440
431,1,Ticks_Pract_5,38,9999,9999,9999,1394435136
431,1,Ticks_Pract_5,39,9999,9999,9999,1394935876
432,0,Ticks_Pract_8,0,5,42,127,1407728956
432,0,Ticks_Pract_8,1,5,42,127,1408528860
432,0,Ticks_Pract_8,2,5,42,127,1409328616
432,0,Ticks_Pract_8,3,5,42,127,1410129192
432,0,Ticks_Pract_8,4,1,48,51,1410885896
432,0,Ticks_Pract_8,5,5,42,127,1410928940
432,0,Ticks_Pract_8,6,1,48,48,1411595276
432,0,Ticks_Pract_8,7,5,42,127,1411728956
432,0,Ticks_Pract_8,8,1,48,46,1412403608
432,0,Ticks_Pract_8,9,5,42,127,1412528616
432,0,Ticks_Pract_8,10,1,48,45,1413253756
432,0,Ticks_Pract_8,11,5,42,127,1413329188
432,0,Ticks_Pract_8,12,1,48,44,1414076584
432,0,Ticks_Pract_8,13,5,42,127,1414129144
432,0,Ticks_Pract_8,14,1,48,44,1414873096
432,0,Ticks_Pract_8,15,5,42,127,1414928728
432,0,Ticks_Pract_8,16,1,48,40,1415646652
432,0,Ticks_Pract_8,17,5,42,127,1415728612
432,0,Ticks_Pract_8,18,1,48,40,1416426432
432,0,Ticks_Pract_8,19,5,42,127,1416529152
432,0,Ticks_Pract_8,20,1,48,43,1417199316
432,0,Ticks_Pract_8,21,5,42,127,1417328960
432,0,Ticks_Pract_8,22,1,48,45,1418023960
432,0,Ticks_Pract_8,23,5,42,127,1418128620
432,0,Ticks_Pract_8,24,1,48,44,1418873504
432,0,Ticks_Pract_8,25,5,42,127,1418928740
432,0,Ticks_Pract_8,26,1,48,45,1419674508
432,0,Ticks_Pract_8,27,5,42,127,1419729520
432,0,Ticks_Pract_8,28,1,48,46,1420447320
432,0,Ticks_Pract_8,29,5,42,127,1420529056
432,0,Ticks_Pract_8,30,1,48,45,1421219300
432,0,Ticks_Pract_8,31,5,42,127,1421328700
432,0,Ticks_Pract_8,32,1,48,49,1421996520
432,0,Ticks_Pract_8,33,5,42,127,1422128656
432,0,Ticks_Pract_8,34,1,48,48,1422827844
432,0,Ticks_Pract_8,35,5,42,127,1422929360
432,0,Ticks_Pract_8,36,1,48,40,1423720776
432,0,Ticks_Pract_8,37,5,42,127,1423729112
432,0,Ticks_Pract_8,38,1,48,44,1424487528
432,0,Ticks_Pract_8,39,5,42,127,1424528620
432,0,Ticks_Pract_8,40,1,48,43,1425283664
432,0,Ticks_Pract_8,41,5,42,127,1425328576
432,0,Ticks_Pract_8,42,1,48,40,1426124912
432,0,Ticks_Pract_8,43,5,42,127,1426129208
432,0,Ticks_Pract_8,44,1,48,42,1426899732
432,0,Ticks_Pract_8,45,5,42,127,1426928964
432,0,Ticks_Pract_8,46,1,48,41,1427690292
432,0,Ticks_Pract_8,47,5,42,127,1427728700
432,0,Ticks_Pract_8,48,1,48,44,1428477164
432,0,Ticks_Pract_8,49,5,42,127,1428528432
432,0,Ticks_Pract_8,50,1,48,43,1429220400
432,0,Ticks_Pract_8,51,5,42,127,1429329344
432,0,Ticks_Pract_8,52,1,48,43,1430006540
432,0,Ticks_Pract_8,53,5,42,127,1430129080
432,0,Ticks_Pract_8,54,1,48,41,1430877268
432,0,Ticks_Pract_8,55,5,42,127,1430928756
432,0,Ticks_Pract_8,56,1,48,44,1431662860
432,0,Ticks_Pract_8,0,9999,9999,9999,1407726664
432,0,Ticks_Pract_8,1,9999,9999,9999,1408526424
432,0,Ticks_Pract_8,2,9999,9999,9999,1409326176
432,0,Ticks_Pract_8,3,9999,9999,9999,1410126904
432,0,Ticks_Pract_8,4,9999,9999,9999,1410926652
432,0,Ticks_Pract_8,5,9999,9999,9999,1411726444
432,0,Ticks_Pract_8,6,9999,9999,9999,1412526180
432,0,Ticks_Pract_8,7,9999,9999,9999,1413326900
432,0,Ticks_Pract_8,8,9999,9999,9999,1414126708
432,0,Ticks_Pract_8,9,9999,9999,9999,1414926440
432,0,Ticks_Pract_8,10,9999,9999,9999,1415726176
432,0,Ticks_Pract_8,11,9999,9999,9999,1416526940
432,0,Ticks_Pract_8,12,9999,9999,9999,1417326672
432,0,Ticks_Pract_8,13,9999,9999,9999,1418126404
432,0,Ticks_Pract_8,14,9999,9999,9999,1418926156
432,0,Ticks_Pract_8,15,9999,9999,9999,1419726936
432,0,Ticks_Pract_8,16,9999,9999,9999,1420526692
432,0,Ticks_Pract_8,17,9999,9999,9999,1421326412
432,0,Ticks_Pract_8,18,9999,9999,9999,1422126144
432,0,Ticks_Pract_8,19,9999,9999,9999,1422926924
432,0,Ticks_Pract_8,20,9999,9999,9999,1423726672
432,0,Ticks_Pract_8,21,9999,9999,9999,1424526408
432,0,Ticks_Pract_8,22,9999,9999,9999,1425326140
432,0,Ticks_Pract_8,23,9999,9999,9999,1426126920
432,0,Ticks_Pract_8,24,9999,9999,9999,1426926676
432,0,Ticks_Pract_8,25,9999,9999,9999,1427726412
432,0,Ticks_Pract_8,26,9999,9999,9999,1428526144
432,0,Ticks_Pract_8,27,9999,9999,9999,1429326908
432,0,Ticks_Pract_8,28,9999,9999,9999,1430126644
432,0,Ticks_Pract_8,29,9999,9999,9999,1430926396
433,4,T1_SMS_5,0,5,42,127,1502555488
433,4,T1_SMS_5,1,5,42,127,1503056104
433,4,T1_SMS_5,2,5,42,127,1503556040
433,4,T1_SMS_5,3,5,42,127,1504055760
433,4,T1_SMS_5,4,1,48,55,1504548780
433,4,T1_SMS_5,5,5,42,127,1504556372
433,4,T1_SMS_5,6,1,48,35,1504595004
433,4,T1_SMS_5,7,1,48,52,1504996916
433,4,T1_SMS_5,8,5,42,127,1505056040
433,4,T1_SMS_5,9,1,48,51,1505546800
433,4,T1_SMS_5,10,5,42,127,1505556032
433,4,T1_SMS_5,11,1,48,46,1506034448
433,4,T1_SMS_5,12,5,42,127,1506055504
433,4,T1_SMS_5,13,1,48,29,1506501288
433,4,T1_SMS_5,14,5,42,127,1506556172
433,4,T1_SMS_5,15,1,48,42,1507015792
433,4,T1_SMS_5,16,5,42,127,1507055940
433,4,T1_SMS_5,17,1,48,42,1507509356
433,4,T1_SMS_5,18,5,42,127,1507556080
433,4,T1_SMS_5,19,1,48,44,1508008004
433,4,T1_SMS_5,20,5,42,127,1508056432
433,4,T1_SMS_5,21,1,48,43,1508476952
433,4,T1_SMS_5,22,5,42,127,1508556120
433,4,T1_SMS_5,23,1,48,46,1508991828
433,4,T1_SMS_5,24,5,42,127,1509055816
433,4,T1_SMS_5,25,1,48,40,1509491376
433,4,T1_SMS_5,26,5,42,127,1509555884
433,4,T1_SMS_5,27,1,48,41,1509953072
433,4,T1_SMS_5,28,5,42,127,1510056236
433,4,T1_SMS_5,29,1,48,39,1510509016
433,4,T1_SMS_5,30,5,42,127,1510556024
433,4,T1_SMS_5,31,1,48,38,1511005420
433,4,T1_SMS_5,32,5,42,127,1511055868
433,4,T1_SMS_5,33,1,48,42,1511543936
433,4,T1_SMS_5,34,5,42,127,1511555488
433,4,T1_SMS_5,35,1,48,39,1512031588
433,4,T1_SMS_5,36,5,42,127,1512056080
433,4,T1_SMS_5,37,1,48,41,1512522604
433,4,T1_SMS_5,38,5,42,127,1512555848
433,4,T1_SMS_5,39,5,42,127,1513055772
433,4,T1_SMS_5,40,1,48,40,1513067872
433,4,T1_SMS_5,41,1,48,40,1513548696
433,4,T1_SMS_5,42,5,42,127,1513556284
433,4,T1_SMS_5,43,1,48,44,1514034256
433,4,T1_SMS_5,44,5,42,127,1514055904
433,4,T1_SMS_5,45,5,42,127,1514555976
433,4,T1_SMS_5,46,1,48,40,1514580788
433,4,T1_SMS_5,47,5,42,127,1515055676
433,4,T1_SMS_5,48,1,48,38,1515115488
433,4,T1_SMS_5,49,5,42,127,1515556268
433,4,T1_SMS_5,50,1,48,43,1515569564
433,4,T1_SMS_5,51,1,48,39,1516048220
433,4,T1_SMS_5,52,5,42,127,1516055884
433,4,T1_SMS_5,53,5,42,127,1516555808
433,4,T1_SMS_5,54,1,48,41,1516625496
433,4,T1_SMS_5,55,5,42,127,1517056328
433,4,T1_SMS_5,56,1,48,40,1517081284
433,4,T1_SMS_5,57,5,42,127,1517556020
433,4,T1_SMS_5,58,1,48,40,1517575596
433,4,T1_SMS_5,59,5,42,127,1518055792
433,4,T1_SMS_5,60,1,48,39,1518058912
433,4,T1_SMS_5,61,1,48,38,1518534476
433,4,T1_SMS_5,62,5,42,127,1518555604
433,4,T1_SMS_5,63,5,42,127,1519056204
433,4,T1_SMS_5,64,1,48,37,1519076024
433,4,T1_SMS_5,65,1,48,38,1519543140
433,4,T1_SMS_5,66,5,42,127,1519555964
433,4,T1_SMS_5,67,1,48,45,1520011196
433,4,T1_SMS_5,68,5,42,127,1520055660
433,4,T1_SMS_5,69,1,48,45,1520516876
433,4,T1_SMS_5,70,5,42,127,1520556480
433,4,T1_SMS_5,71,1,48,42,1521031976
433,4,T1_SMS_5,72,5,42,127,1521056020
433,4,T1_SMS_5,73,1,48,45,1521542744
433,4,T1_SMS_5,74,5,42,127,1521555940
433,4,T1_SMS_5,75,1,48,40,1522007584
433,4,T1_SMS_5,76,5,42,127,1522055488
433,4,T1_SMS_5,77,1,48,38,1522531212
433,4,T1_SMS_5,78,5,42,127,1522556600
433,4,T1_SMS_5,79,1,48,39,1523030088
433,4,T1_SMS_5,80,5,42,127,1523055924
433,4,T1_SMS_5,81,1,48,39,1523532692
433,4,T1_SMS_5,82,5,42,127,1523555544
433,4,T1_SMS_5,83,1,48,39,1524002396
433,4,T1_SMS_5,84,5,42,127,1524056364
433,4,T1_SMS_5,85,1,48,28,1524529020
433,4,T1_SMS_5,86,5,42,127,1524556128
433,4,T1_SMS_5,87,1,48,33,1524921056
433,4,T1_SMS_5,88,5,42,127,1525055884
433,4,T1_SMS_5,89,5,42,127,1525555604
433,4,T1_SMS_5,90,1,48,36,1525585952
433,4,T1_SMS_5,91,5,42,127,1526056492
433,4,T1_SMS_5,92,1,48,37,1526074120
433,4,T1_SMS_5,93,5,42,127,1526556112
433,4,T1_SMS_5,94,1,48,41,1526604188
433,4,T1_SMS_5,95,1,48,39,1527048368
433,4,T1_SMS_5,96,5,42,127,1527055652
433,4,T1_SMS_5,97,5,42,127,1527555724
433,4,T1_SMS_5,98,1,48,40,1527573880
433,4,T1_SMS_5,99,1,48,39,1528056320
433,4,T1_SMS_5,100,5,42,127,1528057808
433,4,T1_SMS_5,101,1,48,42,1528526476
433,4,T1_SMS_5,102,5,42,127,1528555932
433,4,T1_SMS_5,103,1,48,49,1529016528
433,4,T1_SMS_5,104,5,42,127,1529055604
433,4,T1_SMS_5,105,1,48,46,1529550552
433,4,T1_SMS_5,106,5,42,127,1529556496
433,4,T1_SMS_5,107,1,48,48,1530038436
433,4,T1_SMS_5,108,5,42,127,1530055892
433,4,T1_SMS_5,109,5,42,127,1530555744
433,4,T1_SMS_5,110,1,48,42,1530561332
433,4,T1_SMS_5,111,1,48,46,1531055960
433,4,T1_SMS_5,112,5,42,127,1531057232
433,4,T1_SMS_5,113,1,48,43,1531528616
433,4,T1_SMS_5,114,5,42,127,1531556324
433,4,T1_SMS_5,115,1,48,39,1532044164
433,4,T1_SMS_5,116,5,42,127,1532055944
433,4,T1_SMS_5,117,1,48,45,1532533464
433,4,T1_SMS_5,118,5,42,127,1532555716
433,4,T1_SMS_5,119,1,48,45,1533031668
433,4,T1_SMS_5,120,5,42,127,1533056536
433,4,T1_SMS_5,121,1,48,46,1533534356
433,4,T1_SMS_5,122,5,42,127,1533556004
433,4,T1_SMS_5,123,1,48,44,1534011464
433,4,T1_SMS_5,124,5,42,127,1534055772
433,4,T1_SMS_5,125,1,48,44,1534505244
433,4,T1_SMS_5,126,5,42,127,1534555468
433,4,T1_SMS_5,127,1,48,43,1535035756
433,4,T1_SMS_5,128,5,42,127,1535056356
433,4,T1_SMS_5,129,1,48,47,1535523932
433,4,T1_SMS_5,130,5,42,127,1535555828
433,4,T1_SMS_5,131,1,48,43,1536040456
433,4,T1_SMS_5,132,5,42,127,1536055672
433,4,T1_SMS_5,133,1,48,41,1536528712
433,4,T1_SMS_5,134,5,42,127,1536556272
433,4,T1_SMS_5,135,1,48,43,1537030044
433,4,T1_SMS_5,136,5,42,127,1537056036
433,4,T1_SMS_5,137,1,48,42,1537533408
433,4,T1_SMS_5,138,5,42,127,1537555808
433,4,T1_SMS_5,139,1,48,43,1538017672
433,4,T1_SMS_5,140,5,42,127,1538055476
433,4,T1_SMS_5,141,1,48,40,1538535768
433,4,T1_SMS_5,142,5,42,127,1538556292
433,4,T1_SMS_5,143,1,48,45,1539041644
433,4,T1_SMS_5,144,5,42,127,1539056260
433,4,T1_SMS_5,145,1,48,42,1539527404
433,4,T1_SMS_5,146,5,42,127,1539555660
433,4,T1_SMS_5,147,1,48,44,1540049240
433,4,T1_SMS_5,148,5,42,127,1540056380
433,4,T1_SMS_5,149,5,42,127,1540556300
433,4,T1_SMS_5,150,1,48,47,1540566080
433,4,T1_SMS_5,151,1,48,45,1541043688
433,4,T1_SMS_5,152,5,42,127,1541055840
433,4,T1_SMS_5,153,1,48,46,1541539948
433,4,T1_SMS_5,154,5,42,127,1541555684
433,4,T1_SMS_5,155,1,48,45,1542016976
433,4,T1_SMS_5,156,5,42,127,1542056424
433,4,T1_SMS_5,157,1,48,51,1542519216
433,4,T1_SMS_5,158,5,42,127,1542556048
433,4,T1_SMS_5,159,1,48,49,1543023624
433,4,T1_SMS_5,160,5,42,127,1543055668
433,4,T1_SMS_5,161,1,48,46,1543497064
433,4,T1_SMS_5,162,5,42,127,1543555364
433,4,T1_SMS_5,163,1,48,45,1544003716
433,4,T1_SMS_5,164,5,42,127,1544056328
433,4,T1_SMS_5,165,1,48,45,1544545372
433,4,T1_SMS_5,166,5,42,127,1544556024
433,4,T1_SMS_5,167,1,48,45,1545039904
433,4,T1_SMS_5,168,5,42,127,1545055568
433,4,T1_SMS_5,169,1,48,50,1545539900
433,4,T1_SMS_5,170,5,42,127,1545556308
433,4,T1_SMS_5,171,1,48,48,1546026720
433,4,T1_SMS_5,172,5,42,127,1546056152
433,4,T1_SMS_5,173,5,42,127,1546555632
433,4,T1_SMS_5,174,1,48,48,1546556600
433,4,T1_SMS_5,175,5,42,127,1547055400
433,4,T1_SMS_5,176,1,48,46,1547057272
433,4,T1_SMS_5,177,1,48,45,1547554328
433,4,T1_SMS_5,178,5,42,127,1547556136
433,4,T1_SMS_5,179,1,48,47,1548046752
433,4,T1_SMS_5,180,5,42,127,1548056056
433,4,T1_SMS_5,181,1,48,49,1548538144
433,4,T1_SMS_5,182,5,42,127,1548555676
433,4,T1_SMS_5,183,1,48,44,1549041948
433,4,T1_SMS_5,184,5,42,127,1549056420
433,4,T1_SMS_5,185,1,48,47,1549543664
433,4,T1_SMS_5,186,5,42,127,1549556036
433,4,T1_SMS_5,187,1,48,49,1550032484
433,4,T1_SMS_5,188,5,42,127,1550055732
433,4,T1_SMS_5,189,5,42,127,1550555484
433,4,T1_SMS_5,190,1,48,42,1550586452
433,4,T1_SMS_5,191,5,42,127,1551056224
433,4,T1_SMS_5,192,1,48,41,1551076424
433,4,T1_SMS_5,193,5,42,127,1551556144
433,4,T1_SMS_5,194,1,48,48,1551566368
433,4,T1_SMS_5,195,5,42,127,1552055540
433,4,T1_SMS_5,196,1,48,48,1552058512
433,4,T1_SMS_5,197,1,48,47,1552554308
433,4,T1_SMS_5,198,5,42,127,1552556352
433,4,T1_SMS_5,199,1,48,45,1553038436
433,4,T1_SMS_5,200,5,42,127,1553056116
433,4,T1_SMS_5,201,1,48,35,1553544560
433,4,T1_SMS_5,202,5,42,127,1553555960
433,4,T1_SMS_5,203,1,48,38,1554049268
433,4,T1_SMS_5,204,5,42,127,1554055656
433,4,T1_SMS_5,205,1,48,43,1554537364
433,4,T1_SMS_5,206,5,42,127,1554556172
433,4,T1_SMS_5,207,5,42,127,1555056172
433,4,T1_SMS_5,208,1,48,46,1555059368
433,4,T1_SMS_5,209,1,48,48,1555524188
433,4,T1_SMS_5,210,5,42,127,1555555788
433,4,T1_SMS_5,211,1,48,46,1556026052
433,4,T1_SMS_5,212,5,42,127,1556056456
433,4,T1_SMS_5,213,1,48,40,1556485952
433,4,T1_SMS_5,214,5,42,127,1556556076
433,4,T1_SMS_5,215,1,48,44,1556990884
433,4,T1_SMS_5,216,5,42,127,1557055992
433,4,T1_SMS_5,217,1,48,38,1557511304
433,4,T1_SMS_5,218,5,42,127,1557555540
433,4,T1_SMS_5,219,5,42,127,1558056284
433,4,T1_SMS_5,220,1,48,42,1558059336
433,4,T1_SMS_5,221,1,48,44,1558517124
433,4,T1_SMS_5,222,5,42,127,1558556048
433,4,T1_SMS_5,223,1,48,46,1559019508
433,4,T1_SMS_5,224,5,42,127,1559055820
433,4,T1_SMS_5,225,1,48,45,1559502052
433,4,T1_SMS_5,226,5,42,127,1559555440
433,4,T1_SMS_5,227,1,48,40,1560012220
433,4,T1_SMS_5,228,5,42,127,1560056032
433,4,T1_SMS_5,229,1,48,37,1560506000
433,4,T1_SMS_5,230,5,42,127,1560555800
433,4,T1_SMS_5,231,1,48,43,1561012728
433,4,T1_SMS_5,232,5,42,127,1561055472
433,4,T1_SMS_5,233,1,48,44,1561492680
433,4,T1_SMS_5,234,5,42,127,1561556360
433,4,T1_SMS_5,235,1,48,47,1561974044
433,4,T1_SMS_5,236,5,42,127,1562056128
433,4,T1_SMS_5,237,1,48,46,1562472844
433,4,T1_SMS_5,238,5,42,127,1562555900
433,4,T1_SMS_5,239,1,48,51,1563010684
433,4,T1_SMS_5,240,5,42,127,1563055520
433,4,T1_SMS_5,241,1,48,51,1563490180
433,4,T1_SMS_5,242,5,42,127,1563556336
433,4,T1_SMS_5,243,1,48,45,1563976716
433,4,T1_SMS_5,244,5,42,127,1564056032
433,4,T1_SMS_5,245,1,48,48,1564505504
433,4,T1_SMS_5,246,5,42,127,1564555800
433,4,T1_SMS_5,247,1,48,48,1565042972
433,4,T1_SMS_5,248,5,42,127,1565056324
433,4,T1_SMS_5,249,1,48,46,1565520904
433,4,T1_SMS_5,250,5,42,127,1565556012
433,4,T1_SMS_5,251,1,48,48,1566030692
433,4,T1_SMS_5,252,5,42,127,1566055932
433,4,T1_SMS_5,253,1,48,49,1566549164
433,4,T1_SMS_5,254,5,42,127,1566555704
433,4,T1_SMS_5,255,1,48,41,1567048336
433,4,T1_SMS_5,256,5,42,127,1567056296
433,4,T1_SMS_5,257,1,48,50,1567541376
433,4,T1_SMS_5,0,9999,9999,9999,1502553200
433,4,T1_SMS_5,1,9999,9999,9999,1503053892
433,4,T1_SMS_5,2,9999,9999,9999,1503553608
433,4,T1_SMS_5,3,9999,9999,9999,1504053324
433,4,T1_SMS_5,4,9999,9999,9999,1504554080
433,4,T1_SMS_5,5,9999,9999,9999,1505053752
433,4,T1_SMS_5,6,9999,9999,9999,1505553524
433,4,T1_SMS_5,7,9999,9999,9999,1506053216
433,4,T1_SMS_5,8,9999,9999,9999,1506553960
433,4,T1_SMS_5,9,9999,9999,9999,1507053656
433,4,T1_SMS_5,10,9999,9999,9999,1507553396
433,4,T1_SMS_5,11,9999,9999,9999,1508054064
433,4,T1_SMS_5,12,9999,9999,9999,1508553836
433,4,T1_SMS_5,13,9999,9999,9999,1509053532
433,4,T1_SMS_5,14,9999,9999,9999,1509553224
433,4,T1_SMS_5,15,9999,9999,9999,1510053952
433,4,T1_SMS_5,16,9999,9999,9999,1510553660
433,4,T1_SMS_5,17,9999,9999,9999,1511053432
433,4,T1_SMS_5,18,9999,9999,9999,1511553128
433,4,T1_SMS_5,19,9999,9999,9999,1512053868
433,4,T1_SMS_5,20,9999,9999,9999,1512553564
433,4,T1_SMS_5,21,9999,9999,9999,1513053264
433,4,T1_SMS_5,22,9999,9999,9999,1513554000
433,4,T1_SMS_5,23,9999,9999,9999,1514053692
433,4,T1_SMS_5,24,9999,9999,9999,1514553392
433,4,T1_SMS_5,25,9999,9999,9999,1515053164
433,4,T1_SMS_5,26,9999,9999,9999,1515553908
433,4,T1_SMS_5,27,9999,9999,9999,1516053596
433,4,T1_SMS_5,28,9999,9999,9999,1516553296
433,4,T1_SMS_5,29,9999,9999,9999,1517054040
433,4,T1_SMS_5,30,9999,9999,9999,1517553736
433,4,T1_SMS_5,31,9999,9999,9999,1518053428
433,4,T1_SMS_5,32,9999,9999,9999,1518553168
433,4,T1_SMS_5,33,9999,9999,9999,1519053916
433,4,T1_SMS_5,34,9999,9999,9999,1519553604
433,4,T1_SMS_5,35,9999,9999,9999,1520053300
433,4,T1_SMS_5,36,9999,9999,9999,1520554040
433,4,T1_SMS_5,37,9999,9999,9999,1521053808
433,4,T1_SMS_5,38,9999,9999,9999,1521553508
433,4,T1_SMS_5,39,9999,9999,9999,1522053200
433,4,T1_SMS_5,40,9999,9999,9999,1522553944
433,4,T1_SMS_5,41,9999,9999,9999,1523053636
433,4,T1_SMS_5,42,9999,9999,9999,1523553332
433,4,T1_SMS_5,43,9999,9999,9999,1524054072
433,4,T1_SMS_5,44,9999,9999,9999,1524553844
433,4,T1_SMS_5,45,9999,9999,9999,1525053520
433,4,T1_SMS_5,46,9999,9999,9999,1525553240
433,4,T1_SMS_5,47,9999,9999,9999,1526053980
433,4,T1_SMS_5,48,9999,9999,9999,1526553676
433,4,T1_SMS_5,49,9999,9999,9999,1527053364
433,4,T1_SMS_5,50,9999,9999,9999,1527553140
433,4,T1_SMS_5,51,9999,9999,9999,1528053808
433,4,T1_SMS_5,52,9999,9999,9999,1528553572
433,4,T1_SMS_5,53,9999,9999,9999,1529053240
433,4,T1_SMS_5,54,9999,9999,9999,1529553984
433,4,T1_SMS_5,55,9999,9999,9999,1530053680
433,4,T1_SMS_5,56,9999,9999,9999,1530553456
433,4,T1_SMS_5,57,9999,9999,9999,1531053152
433,4,T1_SMS_5,58,9999,9999,9999,1531553888
433,4,T1_SMS_5,59,9999,9999,9999,1532053584
433,4,T1_SMS_5,60,9999,9999,9999,1532553280
433,4,T1_SMS_5,61,9999,9999,9999,1533054020
433,4,T1_SMS_5,62,9999,9999,9999,1533553716
433,4,T1_SMS_5,63,9999,9999,9999,1534053484
433,4,T1_SMS_5,64,9999,9999,9999,1534553180
433,4,T1_SMS_5,65,9999,9999,9999,1535053924
433,4,T1_SMS_5,66,9999,9999,9999,1535553616
433,4,T1_SMS_5,67,9999,9999,9999,1536053312
433,4,T1_SMS_5,68,9999,9999,9999,1536554056
433,4,T1_SMS_5,69,9999,9999,9999,1537053748
433,4,T1_SMS_5,70,9999,9999,9999,1537553520
433,4,T1_SMS_5,71,9999,9999,9999,1538053192
433,4,T1_SMS_5,72,9999,9999,9999,1538553932
433,4,T1_SMS_5,73,9999,9999,9999,1539053676
433,4,T1_SMS_5,74,9999,9999,9999,1539553352
433,4,T1_SMS_5,75,9999,9999,9999,1540054088
433,4,T1_SMS_5,76,9999,9999,9999,1540553792
433,4,T1_SMS_5,77,9999,9999,9999,1541053552
433,4,T1_SMS_5,78,9999,9999,9999,1541553248
433,4,T1_SMS_5,79,9999,9999,9999,1542053992
433,4,T1_SMS_5,80,9999,9999,9999,1542553684
433,4,T1_SMS_5,81,9999,9999,9999,1543053380
433,4,T1_SMS_5,82,9999,9999,9999,1543553076
433,4,T1_SMS_5,83,9999,9999,9999,1544053820
433,4,T1_SMS_5,84,9999,9999,9999,1544553588
433,4,T1_SMS_5,85,9999,9999,9999,1545053280
433,4,T1_SMS_5,86,9999,9999,9999,1545554024
433,4,T1_SMS_5,87,9999,9999,9999,1546053716
433,4,T1_SMS_5,88,9999,9999,9999,1546553420
433,4,T1_SMS_5,89,9999,9999,9999,1547053116
433,4,T1_SMS_5,90,9999,9999,9999,1547553876
433,4,T1_SMS_5,91,9999,9999,9999,1548053620
433,4,T1_SMS_5,92,9999,9999,9999,1548553316
433,4,T1_SMS_5,93,9999,9999,9999,1549054056
433,4,T1_SMS_5,94,9999,9999,9999,1549553752
433,4,T1_SMS_5,95,9999,9999,9999,1550053444
433,4,T1_SMS_5,96,9999,9999,9999,1550553196
433,4,T1_SMS_5,97,9999,9999,9999,1551053940
433,4,T1_SMS_5,98,9999,9999,9999,1551553632
433,4,T1_SMS_5,99,9999,9999,9999,1552053328
433,4,T1_SMS_5,100,9999,9999,9999,1552554100
433,4,T1_SMS_5,101,9999,9999,9999,1553053756
433,4,T1_SMS_5,102,9999,9999,9999,1553553528
433,4,T1_SMS_5,103,9999,9999,9999,1554053220
433,4,T1_SMS_5,104,9999,9999,9999,1554553960
433,4,T1_SMS_5,105,9999,9999,9999,1555053664
433,4,T1_SMS_5,106,9999,9999,9999,1555553352
433,4,T1_SMS_5,107,9999,9999,9999,1556054092
433,4,T1_SMS_5,108,9999,9999,9999,1556553788
433,4,T1_SMS_5,109,9999,9999,9999,1557053556
433,4,T1_SMS_5,110,9999,9999,9999,1557553252
433,4,T1_SMS_5,111,9999,9999,9999,1558054000
433,4,T1_SMS_5,112,9999,9999,9999,1558553688
433,4,T1_SMS_5,113,9999,9999,9999,1559053384
433,4,T1_SMS_5,114,9999,9999,9999,1559553080
433,4,T1_SMS_5,115,9999,9999,9999,1560053820
433,4,T1_SMS_5,116,9999,9999,9999,1560553588
433,4,T1_SMS_5,117,9999,9999,9999,1561053260
433,4,T1_SMS_5,118,9999,9999,9999,1561554000
433,4,T1_SMS_5,119,9999,9999,9999,1562053696
433,4,T1_SMS_5,120,9999,9999,9999,1562553464
433,4,T1_SMS_5,121,9999,9999,9999,1563053160
433,4,T1_SMS_5,122,9999,9999,9999,1563553900
433,4,T1_SMS_5,123,9999,9999,9999,1564053596
433,4,T1_SMS_5,124,9999,9999,9999,1564553292
433,4,T1_SMS_5,125,9999,9999,9999,1565054032
433,4,T1_SMS_5,126,9999,9999,9999,1565553728
433,4,T1_SMS_5,127,9999,9999,9999,1566053496
433,4,T1_SMS_5,128,9999,9999,9999,1566553192
433,4,T1_SMS_5,129,9999,9999,9999,1567053936
434,2,T1_SMS_8,0,5,42,127,1623615816
434,2,T1_SMS_8,1,1,48,43,1624214000
434,2,T1_SMS_8,2,5,42,127,1624415552
434,2,T1_SMS_8,3,1,48,40,1625177644
434,2,T1_SMS_8,4,5,42,127,1625216572
434,2,T1_SMS_8,5,5,42,127,1626016008
434,2,T1_SMS_8,6,1,48,36,1626044488
434,2,T1_SMS_8,7,5,42,127,1626815744
434,2,T1_SMS_8,8,1,48,36,1626827240
434,2,T1_SMS_8,9,1,48,39,1627599884
434,2,T1_SMS_8,10,5,42,127,1627615792
434,2,T1_SMS_8,11,1,48,32,1628402328
434,2,T1_SMS_8,12,5,42,127,1628416648
434,2,T1_SMS_8,13,1,48,40,1629170200
434,2,T1_SMS_8,14,5,42,127,1629216084
434,2,T1_SMS_8,15,1,48,40,1629986536
434,2,T1_SMS_8,16,5,42,127,1630015816
434,2,T1_SMS_8,17,5,42,127,1630815704
434,2,T1_SMS_8,18,1,48,38,1630832068
434,2,T1_SMS_8,19,1,48,23,1631612112
434,2,T1_SMS_8,20,5,42,127,1631616408
434,2,T1_SMS_8,21,1,48,32,1632371672
434,2,T1_SMS_8,22,5,42,127,1632416212
434,2,T1_SMS_8,23,1,48,29,1633160344
434,2,T1_SMS_8,24,5,42,127,1633215796
434,2,T1_SMS_8,25,1,48,31,1633971592
434,2,T1_SMS_8,26,5,42,127,1634015556
434,2,T1_SMS_8,27,1,48,35,1634753220
434,2,T1_SMS_8,28,5,42,127,1634816488
434,2,T1_SMS_8,29,1,48,39,1635551708
434,2,T1_SMS_8,30,5,42,127,1635616068
434,2,T1_SMS_8,31,1,48,40,1636358552
434,2,T1_SMS_8,32,5,42,127,1636415876
434,2,T1_SMS_8,33,1,48,32,1637101212
434,2,T1_SMS_8,34,5,42,127,1637215520
434,2,T1_SMS_8,35,1,48,44,1637895560
434,2,T1_SMS_8,36,5,42,127,1638016380
434,2,T1_SMS_8,37,1,48,32,1638781608
434,2,T1_SMS_8,38,5,42,127,1638816272
434,2,T1_SMS_8,39,1,48,32,1639568484
434,2,T1_SMS_8,40,5,42,127,1639615784
434,2,T1_SMS_8,41,1,48,36,1640371432
434,2,T1_SMS_8,42,5,42,127,1640415468
434,2,T1_SMS_8,43,1,48,35,1641166076
434,2,T1_SMS_8,44,5,42,127,1641216324
434,2,T1_SMS_8,45,1,48,33,1641894004
434,2,T1_SMS_8,46,5,42,127,1642016260
434,2,T1_SMS_8,47,1,48,35,1642707872
434,2,T1_SMS_8,48,5,42,127,1642815848
434,2,T1_SMS_8,49,1,48,30,1643573600
434,2,T1_SMS_8,50,5,42,127,1643615668
434,2,T1_SMS_8,51,1,48,26,1644377972
434,2,T1_SMS_8,52,5,42,127,1644416304
434,2,T1_SMS_8,53,1,48,36,1645127968
434,2,T1_SMS_8,54,5,42,127,1645216184
434,2,T1_SMS_8,55,1,48,38,1645881324
434,2,T1_SMS_8,56,5,42,127,1646015752
434,2,T1_SMS_8,57,1,48,35,1646690032
434,2,T1_SMS_8,58,5,42,127,1646815588
434,2,T1_SMS_8,59,1,48,36,1647511832
434,2,T1_SMS_8,60,5,42,127,1647616296
434,2,T1_SMS_8,61,1,48,41,1648335572
434,2,T1_SMS_8,62,5,42,127,1648416188
434,2,T1_SMS_8,63,1,48,45,1649134060
434,2,T1_SMS_8,64,5,42,127,1649215772
434,2,T1_SMS_8,65,1,48,41,1649881856
434,2,T1_SMS_8,66,5,42,127,1650015640
434,2,T1_SMS_8,67,1,48,42,1650641204
434,2,T1_SMS_8,68,5,42,127,1650816424
434,2,T1_SMS_8,69,1,48,48,1651442756
434,2,T1_SMS_8,70,5,42,127,1651616076
434,2,T1_SMS_8,71,1,48,45,1652232244
434,2,T1_SMS_8,72,5,42,127,1652415960
434,2,T1_SMS_8,73,1,48,42,1653125916
434,2,T1_SMS_8,74,5,42,127,1653215508
434,2,T1_SMS_8,75,1,48,38,1653998832
434,2,T1_SMS_8,76,5,42,127,1654016292
434,2,T1_SMS_8,77,5,42,127,1654816104
434,2,T1_SMS_8,78,1,48,33,1654842784
434,2,T1_SMS_8,79,1,48,31,1655533892
434,2,T1_SMS_8,80,5,42,127,1655615832
434,2,T1_SMS_8,81,1,48,27,1656291288
434,2,T1_SMS_8,82,5,42,127,1656415548
434,2,T1_SMS_8,83,1,48,33,1657135900
434,2,T1_SMS_8,84,5,42,127,1657216348
434,2,T1_SMS_8,85,1,48,37,1657911176
434,2,T1_SMS_8,86,5,42,127,1658016208
434,2,T1_SMS_8,87,1,48,39,1658633644
434,2,T1_SMS_8,88,5,42,127,1658815796
434,2,T1_SMS_8,89,1,48,34,1659491496
434,2,T1_SMS_8,90,5,42,127,1659615628
434,2,T1_SMS_8,91,1,48,40,1660240516
434,2,T1_SMS_8,92,5,42,127,1660416412
434,2,T1_SMS_8,93,1,48,35,1660951692
434,2,T1_SMS_8,94,5,42,127,1661215992
434,2,T1_SMS_8,95,1,48,32,1661729060
434,2,T1_SMS_8,96,5,42,127,1662015872
434,2,T1_SMS_8,97,1,48,29,1662681456
434,2,T1_SMS_8,98,5,42,127,1662815612
434,2,T1_SMS_8,99,1,48,26,1663563268
434,2,T1_SMS_8,100,5,42,127,1663616336
434,2,T1_SMS_8,101,1,48,34,1664320520
434,2,T1_SMS_8,102,5,42,127,1664415988
434,2,T1_SMS_8,103,1,48,40,1665130272
434,2,T1_SMS_8,104,5,42,127,1665215948
434,2,T1_SMS_8,105,1,48,35,1666003156
434,2,T1_SMS_8,106,5,42,127,1666015628
434,2,T1_SMS_8,107,1,48,38,1666698172
434,2,T1_SMS_8,108,5,42,127,1666816324
434,2,T1_SMS_8,109,1,48,35,1667458340
434,2,T1_SMS_8,110,5,42,127,1667615980
434,2,T1_SMS_8,111,1,48,40,1668189556
434,2,T1_SMS_8,112,5,42,127,1668416008
434,2,T1_SMS_8,113,1,48,39,1668901252
434,2,T1_SMS_8,114,5,42,127,1669215668
434,2,T1_SMS_8,115,1,48,35,1669610632
434,2,T1_SMS_8,116,5,42,127,1670016228
434,2,T1_SMS_8,117,5,42,127,1670816056
434,2,T1_SMS_8,118,1,48,38,1671028788
434,2,T1_SMS_8,119,1,48,35,1671471240
434,2,T1_SMS_8,120,5,42,127,1671615916
434,2,T1_SMS_8,121,1,48,35,1672299468
434,2,T1_SMS_8,122,5,42,127,1672415672
434,2,T1_SMS_8,123,1,48,36,1673170560
434,2,T1_SMS_8,124,5,42,127,1673216400
434,2,T1_SMS_8,125,1,48,39,1673933268
434,2,T1_SMS_8,126,5,42,127,1674015980
434,2,T1_SMS_8,127,1,48,37,1674734072
434,2,T1_SMS_8,128,5,42,127,1674815860
434,2,T1_SMS_8,129,1,48,32,1675479404
434,2,T1_SMS_8,130,5,42,127,1675615800
434,2,T1_SMS_8,131,1,48,30,1676327632
434,2,T1_SMS_8,132,5,42,127,1676416528
434,2,T1_SMS_8,133,1,48,30,1677124676
434,2,T1_SMS_8,134,5,42,127,1677216540
434,2,T1_SMS_8,135,1,48,35,1677916332
434,2,T1_SMS_8,136,5,42,127,1678015828
434,2,T1_SMS_8,137,1,48,37,1678644928
434,2,T1_SMS_8,138,5,42,127,1678815736
434,2,T1_SMS_8,139,1,48,36,1679482288
434,2,T1_SMS_8,140,5,42,127,1679616444
434,2,T1_SMS_8,141,1,48,32,1680218148
434,2,T1_SMS_8,142,5,42,127,1680416100
434,2,T1_SMS_8,143,1,48,39,1680974492
434,2,T1_SMS_8,144,5,42,127,1681215908
434,2,T1_SMS_8,145,1,48,30,1681892956
434,2,T1_SMS_8,146,5,42,127,1682015716
434,2,T1_SMS_8,147,1,48,25,1682765992
434,2,T1_SMS_8,148,5,42,127,1682816368
434,2,T1_SMS_8,149,1,48,27,1683567972
434,2,T1_SMS_8,150,5,42,127,1683616024
434,2,T1_SMS_8,151,1,48,30,1684398068
434,2,T1_SMS_8,152,5,42,127,1684415828
434,2,T1_SMS_8,153,1,48,32,1685199976
434,2,T1_SMS_8,154,5,42,127,1685215588
434,2,T1_SMS_8,155,1,48,31,1685975100
434,2,T1_SMS_8,156,5,42,127,1686016372
434,2,T1_SMS_8,157,1,48,29,1686709612
434,2,T1_SMS_8,158,5,42,127,1686816236
434,2,T1_SMS_8,159,1,48,34,1687498196
434,2,T1_SMS_8,160,5,42,127,1687615896
434,2,T1_SMS_8,161,1,48,32,1688257768
434,2,T1_SMS_8,162,5,42,127,1688415480
434,2,T1_SMS_8,163,1,48,33,1689139652
434,2,T1_SMS_8,164,5,42,127,1689216352
434,2,T1_SMS_8,165,1,48,33,1689985904
434,2,T1_SMS_8,166,5,42,127,1690016232
434,2,T1_SMS_8,167,1,48,28,1690786536
434,2,T1_SMS_8,168,5,42,127,1690815964
434,2,T1_SMS_8,169,1,48,27,1691575872
434,2,T1_SMS_8,170,5,42,127,1691615724
434,2,T1_SMS_8,171,1,48,27,1692381840
434,2,T1_SMS_8,172,5,42,127,1692416504
434,2,T1_SMS_8,173,1,48,33,1693117368
434,2,T1_SMS_8,174,5,42,127,1693216072
434,2,T1_SMS_8,175,1,48,33,1693961488
434,2,T1_SMS_8,176,5,42,127,1694015820
434,2,T1_SMS_8,177,1,48,38,1694794880
434,2,T1_SMS_8,178,5,42,127,1694815552
434,2,T1_SMS_8,179,1,48,37,1695542924
434,2,T1_SMS_8,180,5,42,127,1695616488
434,2,T1_SMS_8,181,1,48,40,1696310572
434,2,T1_SMS_8,182,5,42,127,1696416200
434,2,T1_SMS_8,183,1,48,39,1697037676
434,2,T1_SMS_8,184,5,42,127,1697215936
434,2,T1_SMS_8,185,1,48,33,1697850348
434,2,T1_SMS_8,186,5,42,127,1698015692
434,2,T1_SMS_8,187,1,48,38,1698781000
434,2,T1_SMS_8,188,5,42,127,1698816268
434,2,T1_SMS_8,189,5,42,127,1699616228
434,2,T1_SMS_8,190,1,48,29,1699639696
434,2,T1_SMS_8,191,1,48,38,1700383764
434,2,T1_SMS_8,192,5,42,127,1700415808
434,2,T1_SMS_8,193,1,48,32,1701164792
434,2,T1_SMS_8,194,5,42,127,1701215540
434,2,T1_SMS_8,195,1,48,31,1701890556
434,2,T1_SMS_8,196,5,42,127,1702016312
434,2,T1_SMS_8,197,1,48,32,1702676148
434,2,T1_SMS_8,198,5,42,127,1702816336
434,2,T1_SMS_8,199,1,48,31,1703453748
434,2,T1_SMS_8,200,5,42,127,1703615924
434,2,T1_SMS_8,201,1,48,33,1704235672
434,2,T1_SMS_8,202,5,42,127,1704415456
434,2,T1_SMS_8,203,1,48,30,1705048796
434,2,T1_SMS_8,204,5,42,127,1705216244
434,2,T1_SMS_8,205,1,48,33,1705920788
434,2,T1_SMS_8,206,5,42,127,1706016284
434,2,T1_SMS_8,207,1,48,37,1706727432
434,2,T1_SMS_8,208,5,42,127,1706815944
434,2,T1_SMS_8,209,1,48,34,1707544212
434,2,T1_SMS_8,210,5,42,127,1707615528
434,2,T1_SMS_8,211,1,48,36,1708295996
434,2,T1_SMS_8,212,5,42,127,1708416296
434,2,T1_SMS_8,213,1,48,34,1709050480
434,2,T1_SMS_8,214,5,42,127,1709216324
434,2,T1_SMS_8,215,1,48,28,1709857396
434,2,T1_SMS_8,216,5,42,127,1710015980
434,2,T1_SMS_8,217,1,48,29,1710651448
434,2,T1_SMS_8,218,5,42,127,1710815520
434,2,T1_SMS_8,219,1,48,35,1711397844
434,2,T1_SMS_8,220,5,42,127,1711616376
434,2,T1_SMS_8,221,1,48,36,1712261608
434,2,T1_SMS_8,222,5,42,127,1712416032
434,2,T1_SMS_8,223,1,48,37,1713180972
434,2,T1_SMS_8,224,5,42,127,1713216080
434,2,T1_SMS_8,225,5,42,127,1714015672
434,2,T1_SMS_8,226,1,48,37,1714038916
434,2,T1_SMS_8,227,1,48,43,1714800256
434,2,T1_SMS_8,228,5,42,127,1714816300
434,2,T1_SMS_8,229,1,48,37,1715539032
434,2,T1_SMS_8,230,5,42,127,1715616032
434,2,T1_SMS_8,231,1,48,36,1716360236
434,2,T1_SMS_8,232,5,42,127,1716415984
434,2,T1_SMS_8,233,1,48,29,1717181056
434,2,T1_SMS_8,234,5,42,127,1717215668
434,2,T1_SMS_8,235,1,48,33,1717979692
434,2,T1_SMS_8,236,5,42,127,1718016376
434,2,T1_SMS_8,237,1,48,32,1718807704
434,2,T1_SMS_8,238,5,42,127,1718816184
434,2,T1_SMS_8,239,1,48,27,1719545348
434,2,T1_SMS_8,0,9999,9999,9999,1623613528
434,2,T1_SMS_8,1,9999,9999,9999,1624413260
434,2,T1_SMS_8,2,9999,9999,9999,1625214056
434,2,T1_SMS_8,3,9999,9999,9999,1626013796
434,2,T1_SMS_8,4,9999,9999,9999,1626813528
434,2,T1_SMS_8,5,9999,9999,9999,1627613280
434,2,T1_SMS_8,6,9999,9999,9999,1628414060
434,2,T1_SMS_8,7,9999,9999,9999,1629213796
434,2,T1_SMS_8,8,9999,9999,9999,1630013528
434,2,T1_SMS_8,9,9999,9999,9999,1630813268
434,2,T1_SMS_8,10,9999,9999,9999,1631614044
434,2,T1_SMS_8,11,9999,9999,9999,1632413776
434,2,T1_SMS_8,12,9999,9999,9999,1633213508
434,2,T1_SMS_8,13,9999,9999,9999,1634013268
434,2,T1_SMS_8,14,9999,9999,9999,1634814048
434,2,T1_SMS_8,15,9999,9999,9999,1635613780
434,2,T1_SMS_8,16,9999,9999,9999,1636413512
434,2,T1_SMS_8,17,9999,9999,9999,1637213232
434,2,T1_SMS_8,18,9999,9999,9999,1638014012
434,2,T1_SMS_8,19,9999,9999,9999,1638813760
434,2,T1_SMS_8,20,9999,9999,9999,1639613496
434,2,T1_SMS_8,21,9999,9999,9999,1640413252
434,2,T1_SMS_8,22,9999,9999,9999,1641214032
434,2,T1_SMS_8,23,9999,9999,9999,1642013752
434,2,T1_SMS_8,24,9999,9999,9999,1642813560
434,2,T1_SMS_8,25,9999,9999,9999,1643613232
434,2,T1_SMS_8,26,9999,9999,9999,1644414012
434,2,T1_SMS_8,27,9999,9999,9999,1645213748
434,2,T1_SMS_8,28,9999,9999,9999,1646013540
434,2,T1_SMS_8,29,9999,9999,9999,1646813300
434,2,T1_SMS_8,30,9999,9999,9999,1647614004
434,2,T1_SMS_8,31,9999,9999,9999,1648413752
434,2,T1_SMS_8,32,9999,9999,9999,1649213484
434,2,T1_SMS_8,33,9999,9999,9999,1650013276
434,2,T1_SMS_8,34,9999,9999,9999,1650814056
434,2,T1_SMS_8,35,9999,9999,9999,1651613788
434,2,T1_SMS_8,36,9999,9999,9999,1652413520
434,2,T1_SMS_8,37,9999,9999,9999,1653213296
434,2,T1_SMS_8,38,9999,9999,9999,1654014000
434,2,T1_SMS_8,39,9999,9999,9999,1654813816
434,2,T1_SMS_8,40,9999,9999,9999,1655613544
434,2,T1_SMS_8,41,9999,9999,9999,1656413260
434,2,T1_SMS_8,42,9999,9999,9999,1657214056
434,2,T1_SMS_8,43,9999,9999,9999,1658013772
434,2,T1_SMS_8,44,9999,9999,9999,1658813508
434,2,T1_SMS_8,45,9999,9999,9999,1659613264
434,2,T1_SMS_8,46,9999,9999,9999,1660414044
434,2,T1_SMS_8,47,9999,9999,9999,1661213780
434,2,T1_SMS_8,48,9999,9999,9999,1662013512
434,2,T1_SMS_8,49,9999,9999,9999,1662813248
434,2,T1_SMS_8,50,9999,9999,9999,1663614044
434,2,T1_SMS_8,51,9999,9999,9999,1664413776
434,2,T1_SMS_8,52,9999,9999,9999,1665213512
434,2,T1_SMS_8,53,9999,9999,9999,1666013268
434,2,T1_SMS_8,54,9999,9999,9999,1666814032
434,2,T1_SMS_8,55,9999,9999,9999,1667613764
434,2,T1_SMS_8,56,9999,9999,9999,1668413496
434,2,T1_SMS_8,57,9999,9999,9999,1669213232
434,2,T1_SMS_8,58,9999,9999,9999,1670014012
434,2,T1_SMS_8,59,9999,9999,9999,1670813768
434,2,T1_SMS_8,60,9999,9999,9999,1671613552
434,2,T1_SMS_8,61,9999,9999,9999,1672413236
434,2,T1_SMS_8,62,9999,9999,9999,1673214032
434,2,T1_SMS_8,63,9999,9999,9999,1674013764
434,2,T1_SMS_8,64,9999,9999,9999,1674813500
434,2,T1_SMS_8,65,9999,9999,9999,1675613292
434,2,T1_SMS_8,66,9999,9999,9999,1676414012
434,2,T1_SMS_8,67,9999,9999,9999,1677213748
434,2,T1_SMS_8,68,9999,9999,9999,1678013540
434,2,T1_SMS_8,69,9999,9999,9999,1678813296
434,2,T1_SMS_8,70,9999,9999,9999,1679614004
434,2,T1_SMS_8,71,9999,9999,9999,1680413812
434,2,T1_SMS_8,72,9999,9999,9999,1681213548
434,2,T1_SMS_8,73,9999,9999,9999,1682013280
434,2,T1_SMS_8,74,9999,9999,9999,1682814000
434,2,T1_SMS_8,75,9999,9999,9999,1683613808
434,2,T1_SMS_8,76,9999,9999,9999,1684413540
434,2,T1_SMS_8,77,9999,9999,9999,1685213300
434,2,T1_SMS_8,78,9999,9999,9999,1686014008
434,2,T1_SMS_8,79,9999,9999,9999,1686813800
434,2,T1_SMS_8,80,9999,9999,9999,1687613536
434,2,T1_SMS_8,81,9999,9999,9999,1688413268
434,2,T1_SMS_8,82,9999,9999,9999,1689214060
434,2,T1_SMS_8,83,9999,9999,9999,1690013796
434,2,T1_SMS_8,84,9999,9999,9999,1690813528
434,2,T1_SMS_8,85,9999,9999,9999,1691613288
434,2,T1_SMS_8,86,9999,9999,9999,1692414064
434,2,T1_SMS_8,87,9999,9999,9999,1693213784
434,2,T1_SMS_8,88,9999,9999,9999,1694013532
434,2,T1_SMS_8,89,9999,9999,9999,1694813268
434,2,T1_SMS_8,90,9999,9999,9999,1695614048
434,2,T1_SMS_8,91,9999,9999,9999,1696413764
434,2,T1_SMS_8,92,9999,9999,9999,1697213500
434,2,T1_SMS_8,93,9999,9999,9999,1698013256
434,2,T1_SMS_8,94,9999,9999,9999,1698814052
434,2,T1_SMS_8,95,9999,9999,9999,1699613792
434,2,T1_SMS_8,96,9999,9999,9999,1700413520
434,2,T1_SMS_8,97,9999,9999,9999,1701213252
434,2,T1_SMS_8,98,9999,9999,9999,1702014020
434,2,T1_SMS_8,99,9999,9999,9999,1702813752
434,2,T1_SMS_8,100,9999,9999,9999,1703613488
434,2,T1_SMS_8,101,9999,9999,9999,1704413244
434,2,T1_SMS_8,102,9999,9999,9999,1705214024
434,2,T1_SMS_8,103,9999,9999,9999,1706013772
434,2,T1_SMS_8,104,9999,9999,9999,1706813508
434,2,T1_SMS_8,105,9999,9999,9999,1707613240
434,2,T1_SMS_8,106,9999,9999,9999,1708414004
434,2,T1_SMS_8,107,9999,9999,9999,1709213812
434,2,T1_SMS_8,108,9999,9999,9999,1710013544
434,2,T1_SMS_8,109,9999,9999,9999,1710813232
434,2,T1_SMS_8,110,9999,9999,9999,1711614012
434,2,T1_SMS_8,111,9999,9999,9999,1712413744
434,2,T1_SMS_8,112,9999,9999,9999,1713213496
434,2,T1_SMS_8,113,9999,9999,9999,1714013236
434,2,T1_SMS_8,114,9999,9999,9999,1714814008
434,2,T1_SMS_8,115,9999,9999,9999,1715613744
434,2,T1_SMS_8,116,9999,9999,9999,1716413548
434,2,T1_SMS_8,117,9999,9999,9999,1717213232
434,2,T1_SMS_8,118,9999,9999,9999,1718014012
434,2,T1_SMS_8,119,9999,9999,9999,1718813744
435,23,Ticks_Phase_5,0,5,42,127,1731795628
435,23,Ticks_Phase_5,1,5,42,127,1732295044
435,23,Ticks_Phase_5,2,5,42,127,1732794604
435,23,Ticks_Phase_5,3,5,42,127,1733294688
435,23,Ticks_Phase_5,4,1,48,33,1733301168
435,23,Ticks_Phase_5,5,5,42,127,1733795272
435,23,Ticks_Phase_5,6,1,48,30,1733809400
435,23,Ticks_Phase_5,7,5,42,127,1734294884
435,23,Ticks_Phase_5,8,1,48,38,1734328856
435,23,Ticks_Phase_5,9,5,42,127,1734794572
435,23,Ticks_Phase_5,10,1,48,34,1734826896
435,23,Ticks_Phase_5,11,5,42,127,1735295604
435,23,Ticks_Phase_5,12,1,48,34,1735310560
435,23,Ticks_Phase_5,13,5,42,127,1735794996
435,23,Ticks_Phase_5,14,1,48,37,1735799388
435,23,Ticks_Phase_5,15,5,42,127,1736294732
435,23,Ticks_Phase_5,16,1,48,42,1736325412
435,23,Ticks_Phase_5,17,1,48,43,1736786816
435,23,Ticks_Phase_5,18,5,42,127,1736794636
435,23,Ticks_Phase_5,19,1,48,35,1737273636
435,23,Ticks_Phase_5,20,5,42,127,1737295152
435,23,Ticks_Phase_5,21,1,48,38,1737768004
435,23,Ticks_Phase_5,22,5,42,127,1737794840
435,23,Ticks_Phase_5,23,1,48,40,1738238408
435,23,Ticks_Phase_5,24,5,42,127,1738294680
435,23,Ticks_Phase_5,25,1,48,37,1738725520
435,23,Ticks_Phase_5,26,5,42,127,1738795560
435,23,Ticks_Phase_5,27,1,48,43,1739237260
435,23,Ticks_Phase_5,28,5,42,127,1739295100
435,23,Ticks_Phase_5,29,1,48,41,1739738224
435,23,Ticks_Phase_5,30,5,42,127,1739794792
435,23,Ticks_Phase_5,31,1,48,37,1740216768
435,23,Ticks_Phase_5,32,5,42,127,1740294552
435,23,Ticks_Phase_5,33,1,48,39,1740724544
435,23,Ticks_Phase_5,34,5,42,127,1740795436
435,23,Ticks_Phase_5,35,1,48,41,1741228424
435,23,Ticks_Phase_5,36,5,42,127,1741295048
435,23,Ticks_Phase_5,37,1,48,36,1741749824
435,23,Ticks_Phase_5,38,5,42,127,1741794588
435,23,Ticks_Phase_5,39,1,48,44,1742258048
435,23,Ticks_Phase_5,40,5,42,127,1742295324
435,23,Ticks_Phase_5,41,1,48,38,1742750692
435,23,Ticks_Phase_5,42,5,42,127,1742795060
435,23,Ticks_Phase_5,43,1,48,37,1743264392
435,23,Ticks_Phase_5,44,5,42,127,1743294824
435,23,Ticks_Phase_5,45,1,48,34,1743766176
435,23,Ticks_Phase_5,46,5,42,127,1743794512
435,23,Ticks_Phase_5,47,1,48,32,1744267436
435,23,Ticks_Phase_5,48,5,42,127,1744295320
435,23,Ticks_Phase_5,49,5,42,127,1744794868
435,23,Ticks_Phase_5,50,1,48,32,1744814912
435,23,Ticks_Phase_5,51,1,48,29,1745275496
435,23,Ticks_Phase_5,52,5,42,127,1745294696
435,23,Ticks_Phase_5,53,1,48,37,1745784396
435,23,Ticks_Phase_5,54,5,42,127,1745794384
435,23,Ticks_Phase_5,55,1,48,40,1746255776
435,23,Ticks_Phase_5,56,5,42,127,1746295420
435,23,Ticks_Phase_5,57,1,48,39,1746743936
435,23,Ticks_Phase_5,58,5,42,127,1746784552
435,23,Ticks_Phase_5,59,1,48,41,1747220324
435,23,Ticks_Phase_5,60,5,42,127,1747285360
435,23,Ticks_Phase_5,61,1,48,35,1747727280
435,23,Ticks_Phase_5,62,5,42,127,1747785200
435,23,Ticks_Phase_5,63,1,48,40,1748245992
435,23,Ticks_Phase_5,64,5,42,127,1748284884
435,23,Ticks_Phase_5,65,1,48,40,1748735792
435,23,Ticks_Phase_5,66,5,42,127,1748784428
435,23,Ticks_Phase_5,67,1,48,37,1749237208
435,23,Ticks_Phase_5,68,5,42,127,1749285164
435,23,Ticks_Phase_5,69,1,48,37,1749749920
435,23,Ticks_Phase_5,70,5,42,127,1749785444
435,23,Ticks_Phase_5,71,1,48,45,1750236584
435,23,Ticks_Phase_5,72,5,42,127,1750284612
435,23,Ticks_Phase_5,73,5,42,127,1750785428
435,23,Ticks_Phase_5,74,1,48,41,1750793796
435,23,Ticks_Phase_5,75,1,48,40,1751263744
435,23,Ticks_Phase_5,76,5,42,127,1751285260
435,23,Ticks_Phase_5,77,1,48,41,1751766724
435,23,Ticks_Phase_5,78,5,42,127,1751784876
435,23,Ticks_Phase_5,79,1,48,39,1752254856
435,23,Ticks_Phase_5,80,5,42,127,1752284488
435,23,Ticks_Phase_5,81,1,48,38,1752735224
435,23,Ticks_Phase_5,82,5,42,127,1752785124
435,23,Ticks_Phase_5,83,1,48,40,1753205404
435,23,Ticks_Phase_5,84,5,42,127,1753285260
435,23,Ticks_Phase_5,85,1,48,43,1753687272
435,23,Ticks_Phase_5,86,5,42,127,1753785228
435,23,Ticks_Phase_5,87,1,48,43,1754202540
435,23,Ticks_Phase_5,88,5,42,127,1754285384
435,23,Ticks_Phase_5,89,1,48,40,1754697352
435,23,Ticks_Phase_5,90,5,42,127,1754795260
435,23,Ticks_Phase_5,91,1,48,44,1755221300
435,23,Ticks_Phase_5,92,5,42,127,1755295168
435,23,Ticks_Phase_5,93,1,48,36,1755754768
435,23,Ticks_Phase_5,94,5,42,127,1755805192
435,23,Ticks_Phase_5,95,1,48,43,1756287852
435,23,Ticks_Phase_5,96,5,42,127,1756304732
435,23,Ticks_Phase_5,97,1,48,40,1756799596
435,23,Ticks_Phase_5,98,5,42,127,1756804496
435,23,Ticks_Phase_5,99,1,48,37,1757291120
435,23,Ticks_Phase_5,100,5,42,127,1757305156
435,23,Ticks_Phase_5,101,5,42,127,1757805000
435,23,Ticks_Phase_5,102,1,48,40,1757811708
435,23,Ticks_Phase_5,103,1,48,37,1758298288
435,23,Ticks_Phase_5,104,5,42,127,1758304536
435,23,Ticks_Phase_5,105,1,48,48,1758778052
435,23,Ticks_Phase_5,106,5,42,127,1758805416
435,23,Ticks_Phase_5,107,1,48,37,1759212060
435,23,Ticks_Phase_5,108,5,42,127,1759305180
435,23,Ticks_Phase_5,109,1,48,30,1759726736
435,23,Ticks_Phase_5,110,5,42,127,1759804944
435,23,Ticks_Phase_5,111,1,48,35,1760243496
435,23,Ticks_Phase_5,112,5,42,127,1760304408
435,23,Ticks_Phase_5,113,1,48,40,1760797252
435,23,Ticks_Phase_5,114,5,42,127,1760805216
435,23,Ticks_Phase_5,115,1,48,33,1761267656
435,23,Ticks_Phase_5,116,5,42,127,1761305056
435,23,Ticks_Phase_5,117,5,42,127,1761804600
435,23,Ticks_Phase_5,118,1,48,36,1761839324
435,23,Ticks_Phase_5,119,5,42,127,1762305336
435,23,Ticks_Phase_5,120,1,48,35,1762385292
435,23,Ticks_Phase_5,121,5,42,127,1762805100
435,23,Ticks_Phase_5,122,1,48,38,1762850452
435,23,Ticks_Phase_5,123,1,48,25,1763295916
435,23,Ticks_Phase_5,124,5,42,127,1763305080
435,23,Ticks_Phase_5,125,1,48,35,1763768396
435,23,Ticks_Phase_5,126,5,42,127,1763824988
435,23,Ticks_Phase_5,127,1,48,33,1764289496
435,23,Ticks_Phase_5,128,5,42,127,1764325048
435,23,Ticks_Phase_5,129,1,48,27,1764813832
435,23,Ticks_Phase_5,130,5,42,127,1764824364
435,23,Ticks_Phase_5,131,1,48,32,1765312920
435,23,Ticks_Phase_5,132,5,42,127,1765325224
435,23,Ticks_Phase_5,133,5,42,127,1765825068
435,23,Ticks_Phase_5,134,1,48,37,1765853232
435,23,Ticks_Phase_5,135,1,48,38,1766323168
435,23,Ticks_Phase_5,136,5,42,127,1766324896
435,23,Ticks_Phase_5,137,5,42,127,1766825192
435,23,Ticks_Phase_5,138,1,48,37,1766860732
435,23,Ticks_Phase_5,139,1,48,45,1767287852
435,23,Ticks_Phase_5,140,5,42,127,1767325020
435,23,Ticks_Phase_5,141,1,48,49,1767778624
435,23,Ticks_Phase_5,142,5,42,127,1767824712
435,23,Ticks_Phase_5,143,1,48,46,1768294720
435,23,Ticks_Phase_5,144,5,42,127,1768324400
435,23,Ticks_Phase_5,145,5,42,127,1768825068
435,23,Ticks_Phase_5,146,1,48,44,1768827812
435,23,Ticks_Phase_5,147,1,48,48,1769304352
435,23,Ticks_Phase_5,148,5,42,127,1769325120
435,23,Ticks_Phase_5,149,5,42,127,1769824740
435,23,Ticks_Phase_5,150,1,48,37,1769835876
435,23,Ticks_Phase_5,151,1,48,36,1770311280
435,23,Ticks_Phase_5,152,5,42,127,1770325320
435,23,Ticks_Phase_5,153,1,48,47,1770774584
435,23,Ticks_Phase_5,154,5,42,127,1770825084
435,23,Ticks_Phase_5,155,1,48,43,1771296812
435,23,Ticks_Phase_5,156,5,42,127,1771324920
435,23,Ticks_Phase_5,157,1,48,46,1771752380
435,23,Ticks_Phase_5,158,5,42,127,1771824388
435,23,Ticks_Phase_5,159,1,48,43,1772280156
435,23,Ticks_Phase_5,160,5,42,127,1772304900
435,23,Ticks_Phase_5,161,1,48,50,1772795200
435,23,Ticks_Phase_5,162,5,42,127,1772804440
435,23,Ticks_Phase_5,163,1,48,48,1773266404
435,23,Ticks_Phase_5,164,5,42,127,1773305324
435,23,Ticks_Phase_5,165,5,42,127,1773804796
435,23,Ticks_Phase_5,166,1,48,43,1773823644
435,23,Ticks_Phase_5,167,5,42,127,1774304784
435,23,Ticks_Phase_5,168,1,48,39,1774327828
435,23,Ticks_Phase_5,169,5,42,127,1774805440
435,23,Ticks_Phase_5,170,1,48,38,1774848184
435,23,Ticks_Phase_5,171,5,42,127,1775305032
435,23,Ticks_Phase_5,172,1,48,45,1775342708
435,23,Ticks_Phase_5,173,5,42,127,1775804720
435,23,Ticks_Phase_5,174,1,48,53,1775819444
435,23,Ticks_Phase_5,175,5,42,127,1776304780
435,23,Ticks_Phase_5,176,1,48,44,1776317788
435,23,Ticks_Phase_5,177,5,42,127,1776805216
435,23,Ticks_Phase_5,178,1,48,43,1776821212
435,23,Ticks_Phase_5,179,1,48,41,1777292672
435,23,Ticks_Phase_5,180,5,42,127,1777304824
435,23,Ticks_Phase_5,181,1,48,45,1777782924
435,23,Ticks_Phase_5,182,5,42,127,1777804812
435,23,Ticks_Phase_5,183,1,48,41,1778250472
435,23,Ticks_Phase_5,184,5,42,127,1778305248
435,23,Ticks_Phase_5,185,1,48,35,1778782524
435,23,Ticks_Phase_5,186,5,42,127,1778805232
435,23,Ticks_Phase_5,187,5,42,127,1779304704
435,23,Ticks_Phase_5,188,1,48,39,1779314044
435,23,Ticks_Phase_5,189,5,42,127,1779804616
435,23,Ticks_Phase_5,190,1,48,45,1779808784
435,23,Ticks_Phase_5,191,5,42,127,1780255032
435,23,Ticks_Phase_5,192,1,48,42,1780321200
435,23,Ticks_Phase_5,193,5,42,127,1780754796
435,23,Ticks_Phase_5,194,1,48,39,1780800972
435,23,Ticks_Phase_5,195,5,42,127,1781255004
435,23,Ticks_Phase_5,196,1,48,34,1781296844
435,23,Ticks_Phase_5,197,1,48,40,1781745824
435,23,Ticks_Phase_5,198,5,42,127,1781755136
435,23,Ticks_Phase_5,199,1,48,38,1782232100
435,23,Ticks_Phase_5,200,5,42,127,1782254824
435,23,Ticks_Phase_5,201,1,48,35,1782706384
435,23,Ticks_Phase_5,202,5,42,127,1782754736
435,23,Ticks_Phase_5,203,1,48,40,1783171688
435,23,Ticks_Phase_5,204,5,42,127,1783255768
435,23,Ticks_Phase_5,205,1,48,35,1783683520
435,23,Ticks_Phase_5,206,5,42,127,1783754984
435,23,Ticks_Phase_5,207,1,48,41,1784237496
435,23,Ticks_Phase_5,208,5,42,127,1784254820
435,23,Ticks_Phase_5,209,1,48,47,1784752076
435,23,Ticks_Phase_5,210,5,42,127,1784754660
435,23,Ticks_Phase_5,211,1,48,48,1785218744
435,23,Ticks_Phase_5,212,5,42,127,1785255544
435,23,Ticks_Phase_5,213,1,48,37,1785683912
435,23,Ticks_Phase_5,214,5,42,127,1785755008
435,23,Ticks_Phase_5,215,1,48,34,1786212884
435,23,Ticks_Phase_5,216,5,42,127,1786254696
435,23,Ticks_Phase_5,217,1,48,41,1786751724
435,23,Ticks_Phase_5,218,5,42,127,1786754532
435,23,Ticks_Phase_5,219,1,48,35,1787216520
435,23,Ticks_Phase_5,220,5,42,127,1787255120
435,23,Ticks_Phase_5,221,1,48,42,1787720548
435,23,Ticks_Phase_5,222,5,42,127,1787754880
435,23,Ticks_Phase_5,223,1,48,38,1788219864
435,23,Ticks_Phase_5,224,5,42,127,1788254792
435,23,Ticks_Phase_5,225,1,48,45,1788715440
435,23,Ticks_Phase_5,226,5,42,127,1788804584
435,23,Ticks_Phase_5,227,1,48,47,1789234228
435,23,Ticks_Phase_5,228,5,42,127,1789305392
435,23,Ticks_Phase_5,229,1,48,38,1789738400
435,23,Ticks_Phase_5,230,5,42,127,1789804856
435,23,Ticks_Phase_5,231,1,48,43,1790262956
435,23,Ticks_Phase_5,232,5,42,127,1790304844
435,23,Ticks_Phase_5,233,1,48,40,1790779040
435,23,Ticks_Phase_5,234,5,42,127,1790805580
435,23,Ticks_Phase_5,235,1,48,47,1791272284
435,23,Ticks_Phase_5,236,5,42,127,1791305044
435,23,Ticks_Phase_5,237,1,48,48,1791799156
435,23,Ticks_Phase_5,238,5,42,127,1791804732
435,23,Ticks_Phase_5,239,1,48,44,1792291280
435,23,Ticks_Phase_5,240,5,42,127,1792304568
435,23,Ticks_Phase_5,241,5,42,127,1792805460
435,23,Ticks_Phase_5,242,1,48,40,1792815696
435,23,Ticks_Phase_5,243,1,48,46,1793266172
435,23,Ticks_Phase_5,244,5,42,127,1793305140
435,23,Ticks_Phase_5,245,1,48,40,1793775148
435,23,Ticks_Phase_5,246,5,42,127,1793804532
435,23,Ticks_Phase_5,247,1,48,45,1794218196
435,23,Ticks_Phase_5,248,5,42,127,1794305488
435,23,Ticks_Phase_5,249,1,48,43,1794764916
435,23,Ticks_Phase_5,250,5,42,127,1794805028
435,23,Ticks_Phase_5,251,1,48,43,1795244828
435,23,Ticks_Phase_5,252,5,42,127,1795304720
435,23,Ticks_Phase_5,253,1,48,42,1795781880
435,23,Ticks_Phase_5,254,5,42,127,1795804408
435,23,Ticks_Phase_5,255,1,48,40,1796283972
435,23,Ticks_Phase_5,256,5,42,127,1796305340
435,23,Ticks_Phase_5,257,1,48,44,1796769500
435,23,Ticks_Phase_5,258,5,42,127,1796805252
435,23,Ticks_Phase_5,259,1,48,43,1797258032
435,23,Ticks_Phase_5,260,5,42,127,1797405152
435,23,Ticks_Phase_5,261,5,42,127,1797904712
435,23,Ticks_Phase_5,262,1,48,43,1798400784
435,23,Ticks_Phase_5,263,5,42,127,1798404564
435,23,Ticks_Phase_5,264,1,48,38,1798879952
435,23,Ticks_Phase_5,265,5,42,127,1798905148
435,23,Ticks_Phase_5,266,1,48,43,1799376176
435,23,Ticks_Phase_5,267,5,42,127,1799404912
435,23,Ticks_Phase_5,268,5,42,127,1799904604
435,23,Ticks_Phase_5,269,1,48,41,1799914844
435,23,Ticks_Phase_5,270,1,48,39,1800383496
435,23,Ticks_Phase_5,271,5,42,127,1800405408
435,23,Ticks_Phase_5,272,5,42,127,1800905372
435,23,Ticks_Phase_5,273,1,48,40,1800912308
435,23,Ticks_Phase_5,274,5,42,127,1801404988
435,23,Ticks_Phase_5,275,1,48,39,1801422256
435,23,Ticks_Phase_5,276,5,42,127,1801904376
435,23,Ticks_Phase_5,277,1,48,36,1801906392
435,23,Ticks_Phase_5,278,1,48,38,1802399160
435,23,Ticks_Phase_5,279,5,42,127,1802405104
435,23,Ticks_Phase_5,280,5,42,127,1802904876
435,23,Ticks_Phase_5,281,1,48,31,1802917060
435,23,Ticks_Phase_5,282,1,48,36,1803355328
435,23,Ticks_Phase_5,283,5,42,127,1803404704
435,23,Ticks_Phase_5,284,1,48,35,1803840256
435,23,Ticks_Phase_5,285,5,42,127,1803905512
435,23,Ticks_Phase_5,286,1,48,32,1804360684
435,23,Ticks_Phase_5,287,5,42,127,1804405352
435,23,Ticks_Phase_5,288,1,48,41,1804880520
435,23,Ticks_Phase_5,289,5,42,127,1804904744
435,23,Ticks_Phase_5,290,1,48,35,1805395788
435,23,Ticks_Phase_5,291,5,42,127,1805404504
435,23,Ticks_Phase_5,292,1,48,45,1805891572
435,23,Ticks_Phase_5,293,5,42,127,1805905312
435,23,Ticks_Phase_5,294,1,48,40,1806404408
435,23,Ticks_Phase_5,295,5,42,127,1806406196
435,23,Ticks_Phase_5,296,5,42,127,1806805396
435,23,Ticks_Phase_5,297,1,48,42,1806910812
435,23,Ticks_Phase_5,298,5,42,127,1807305360
435,23,Ticks_Phase_5,299,1,48,41,1807632336
435,23,Ticks_Phase_5,300,5,42,127,1807804972
435,23,Ticks_Phase_5,301,1,48,33,1808199648
435,23,Ticks_Phase_5,302,5,42,127,1808304584
435,23,Ticks_Phase_5,303,1,48,38,1808768612
435,23,Ticks_Phase_5,304,5,42,127,1808805188
435,23,Ticks_Phase_5,305,1,48,35,1809271968
435,23,Ticks_Phase_5,306,5,42,127,1809305024
435,23,Ticks_Phase_5,307,5,42,127,1809804572
435,23,Ticks_Phase_5,308,1,48,40,1809805536
435,23,Ticks_Phase_5,309,1,48,40,1810298380
435,23,Ticks_Phase_5,310,5,42,127,1810305448
435,23,Ticks_Phase_5,311,5,42,127,1810805068
435,23,Ticks_Phase_5,312,1,48,39,1810811108
435,23,Ticks_Phase_5,313,1,48,43,1811281576
435,23,Ticks_Phase_5,314,5,42,127,1811305048
435,23,Ticks_Phase_5,315,1,48,39,1811774232
435,23,Ticks_Phase_5,316,5,42,127,1811804440
435,23,Ticks_Phase_5,317,1,48,42,1812267776
435,23,Ticks_Phase_5,318,5,42,127,1812305248
435,23,Ticks_Phase_5,319,1,48,42,1812761768
435,23,Ticks_Phase_5,320,5,42,127,1812804940
435,23,Ticks_Phase_5,321,1,48,39,1813262668
435,23,Ticks_Phase_5,322,5,42,127,1813304848
435,23,Ticks_Phase_5,323,1,48,39,1813743928
435,23,Ticks_Phase_5,324,5,42,127,1813805288
435,23,Ticks_Phase_5,325,1,48,40,1814243016
435,23,Ticks_Phase_5,326,5,42,127,1814315384
435,23,Ticks_Phase_5,327,1,48,31,1814740748
435,23,Ticks_Phase_5,328,5,42,127,1814815072
435,23,Ticks_Phase_5,329,1,48,35,1815255644
435,23,Ticks_Phase_5,330,5,42,127,1815314908
435,23,Ticks_Phase_5,331,1,48,36,1815733964
435,23,Ticks_Phase_5,332,5,42,127,1815814448
435,23,Ticks_Phase_5,333,1,48,37,1816233432
435,23,Ticks_Phase_5,334,5,42,127,1816315256
435,23,Ticks_Phase_5,0,9999,9999,9999,1731792968
435,23,Ticks_Phase_5,1,9999,9999,9999,1732292680
435,23,Ticks_Phase_5,2,9999,9999,9999,1732792392
435,23,Ticks_Phase_5,3,9999,9999,9999,1733292100
435,23,Ticks_Phase_5,4,9999,9999,9999,1733792836
435,23,Ticks_Phase_5,5,9999,9999,9999,1734292600
435,23,Ticks_Phase_5,6,9999,9999,9999,1734792284
435,23,Ticks_Phase_5,7,9999,9999,9999,1735293020
435,23,Ticks_Phase_5,8,9999,9999,9999,1735792708
435,23,Ticks_Phase_5,9,9999,9999,9999,1736292444
435,23,Ticks_Phase_5,10,9999,9999,9999,1736792128
435,23,Ticks_Phase_5,11,9999,9999,9999,1737292864
435,23,Ticks_Phase_5,12,9999,9999,9999,1737792628
435,23,Ticks_Phase_5,13,9999,9999,9999,1738292316
435,23,Ticks_Phase_5,14,9999,9999,9999,1738793052
435,23,Ticks_Phase_5,15,9999,9999,9999,1739292740
435,23,Ticks_Phase_5,16,9999,9999,9999,1739792504
435,23,Ticks_Phase_5,17,9999,9999,9999,1740292192
435,23,Ticks_Phase_5,18,9999,9999,9999,1740792924
435,23,Ticks_Phase_5,19,9999,9999,9999,1741292616
435,23,Ticks_Phase_5,20,9999,9999,9999,1741792376
435,23,Ticks_Phase_5,21,9999,9999,9999,1742293088
435,23,Ticks_Phase_5,22,9999,9999,9999,1742792772
435,23,Ticks_Phase_5,23,9999,9999,9999,1743292540
435,23,Ticks_Phase_5,24,9999,9999,9999,1743792228
435,23,Ticks_Phase_5,25,9999,9999,9999,1744292960
435,23,Ticks_Phase_5,26,9999,9999,9999,1744792656
435,23,Ticks_Phase_5,27,9999,9999,9999,1745292412
435,23,Ticks_Phase_5,28,9999,9999,9999,1745792100
435,23,Ticks_Phase_5,29,9999,9999,9999,1746292836
435,23,Ticks_Phase_5,30,9999,9999,9999,1746782264
435,23,Ticks_Phase_5,31,9999,9999,9999,1747283000
435,23,Ticks_Phase_5,32,9999,9999,9999,1747782764
435,23,Ticks_Phase_5,33,9999,9999,9999,1748282452
435,23,Ticks_Phase_5,34,9999,9999,9999,1748782140
435,23,Ticks_Phase_5,35,9999,9999,9999,1749282876
435,23,Ticks_Phase_5,36,9999,9999,9999,1749782636
435,23,Ticks_Phase_5,37,9999,9999,9999,1750282328
435,23,Ticks_Phase_5,38,9999,9999,9999,1750783068
435,23,Ticks_Phase_5,39,9999,9999,9999,1751282748
435,23,Ticks_Phase_5,40,9999,9999,9999,1751782512
435,23,Ticks_Phase_5,41,9999,9999,9999,1752282200
435,23,Ticks_Phase_5,42,9999,9999,9999,1752782912
435,23,Ticks_Phase_5,43,9999,9999,9999,1753282676
435,23,Ticks_Phase_5,44,9999,9999,9999,1753782364
435,23,Ticks_Phase_5,45,9999,9999,9999,1754283100
435,23,Ticks_Phase_5,46,9999,9999,9999,1754793044
435,23,Ticks_Phase_5,47,9999,9999,9999,1755292732
435,23,Ticks_Phase_5,48,9999,9999,9999,1755802684
435,23,Ticks_Phase_5,49,9999,9999,9999,1756302444
435,23,Ticks_Phase_5,50,9999,9999,9999,1756802136
435,23,Ticks_Phase_5,51,9999,9999,9999,1757302872
435,23,Ticks_Phase_5,52,9999,9999,9999,1757802564
435,23,Ticks_Phase_5,53,9999,9999,9999,1758302320
435,23,Ticks_Phase_5,54,9999,9999,9999,1758803056
435,23,Ticks_Phase_5,55,9999,9999,9999,1759302744
435,23,Ticks_Phase_5,56,9999,9999,9999,1759802432
435,23,Ticks_Phase_5,57,9999,9999,9999,1760302196
435,23,Ticks_Phase_5,58,9999,9999,9999,1760802932
435,23,Ticks_Phase_5,59,9999,9999,9999,1761302620
435,23,Ticks_Phase_5,60,9999,9999,9999,1761802316
435,23,Ticks_Phase_5,61,9999,9999,9999,1762303048
435,23,Ticks_Phase_5,62,9999,9999,9999,1762802812
435,23,Ticks_Phase_5,63,9999,9999,9999,1763302496
435,23,Ticks_Phase_5,64,9999,9999,9999,1763822704
435,23,Ticks_Phase_5,65,9999,9999,9999,1764322388
435,23,Ticks_Phase_5,66,9999,9999,9999,1764822076
435,23,Ticks_Phase_5,67,9999,9999,9999,1765322864
435,23,Ticks_Phase_5,68,9999,9999,9999,1765822556
435,23,Ticks_Phase_5,69,9999,9999,9999,1766322244
435,23,Ticks_Phase_5,70,9999,9999,9999,1766822980
435,23,Ticks_Phase_5,71,9999,9999,9999,1767322736
435,23,Ticks_Phase_5,72,9999,9999,9999,1767822424
435,23,Ticks_Phase_5,73,9999,9999,9999,1768322112
435,23,Ticks_Phase_5,74,9999,9999,9999,1768822856
435,23,Ticks_Phase_5,75,9999,9999,9999,1769322612
435,23,Ticks_Phase_5,76,9999,9999,9999,1769822304
435,23,Ticks_Phase_5,77,9999,9999,9999,1770323032
435,23,Ticks_Phase_5,78,9999,9999,9999,1770822724
435,23,Ticks_Phase_5,79,9999,9999,9999,1771322484
435,23,Ticks_Phase_5,80,9999,9999,9999,1771822172
435,23,Ticks_Phase_5,81,9999,9999,9999,1772302388
435,23,Ticks_Phase_5,82,9999,9999,9999,1772802152
435,23,Ticks_Phase_5,83,9999,9999,9999,1773302888
435,23,Ticks_Phase_5,84,9999,9999,9999,1773802580
435,23,Ticks_Phase_5,85,9999,9999,9999,1774302272
435,23,Ticks_Phase_5,86,9999,9999,9999,1774803056
435,23,Ticks_Phase_5,87,9999,9999,9999,1775302744
435,23,Ticks_Phase_5,88,9999,9999,9999,1775802432
435,23,Ticks_Phase_5,89,9999,9999,9999,1776302196
435,23,Ticks_Phase_5,90,9999,9999,9999,1776802932
435,23,Ticks_Phase_5,91,9999,9999,9999,1777302612
435,23,Ticks_Phase_5,92,9999,9999,9999,1777802300
435,23,Ticks_Phase_5,93,9999,9999,9999,1778303036
435,23,Ticks_Phase_5,94,9999,9999,9999,1778802800
435,23,Ticks_Phase_5,95,9999,9999,9999,1779302492
435,23,Ticks_Phase_5,96,9999,9999,9999,1779802180
435,23,Ticks_Phase_5,97,9999,9999,9999,1780252744
435,23,Ticks_Phase_5,98,9999,9999,9999,1780752508
435,23,Ticks_Phase_5,99,9999,9999,9999,1781252196
435,23,Ticks_Phase_5,100,9999,9999,9999,1781752924
435,23,Ticks_Phase_5,101,9999,9999,9999,1782252612
435,23,Ticks_Phase_5,102,9999,9999,9999,1782752376
435,23,Ticks_Phase_5,103,9999,9999,9999,1783253108
435,23,Ticks_Phase_5,104,9999,9999,9999,1783752772
435,23,Ticks_Phase_5,105,9999,9999,9999,1784252536
435,23,Ticks_Phase_5,106,9999,9999,9999,1784752224
435,23,Ticks_Phase_5,107,9999,9999,9999,1785252960
435,23,Ticks_Phase_5,108,9999,9999,9999,1785752644
435,23,Ticks_Phase_5,109,9999,9999,9999,1786252408
435,23,Ticks_Phase_5,110,9999,9999,9999,1786752096
435,23,Ticks_Phase_5,111,9999,9999,9999,1787252832
435,23,Ticks_Phase_5,112,9999,9999,9999,1787752520
435,23,Ticks_Phase_5,113,9999,9999,9999,1788252284
435,23,Ticks_Phase_5,114,9999,9999,9999,1788802148
435,23,Ticks_Phase_5,115,9999,9999,9999,1789302880
435,23,Ticks_Phase_5,116,9999,9999,9999,1789802572
435,23,Ticks_Phase_5,117,9999,9999,9999,1790302332
435,23,Ticks_Phase_5,118,9999,9999,9999,1790803068
435,23,Ticks_Phase_5,119,9999,9999,9999,1791302756
435,23,Ticks_Phase_5,120,9999,9999,9999,1791802444
435,23,Ticks_Phase_5,121,9999,9999,9999,1792302132
435,23,Ticks_Phase_5,122,9999,9999,9999,1792802876
435,23,Ticks_Phase_5,123,9999,9999,9999,1793302632
435,23,Ticks_Phase_5,124,9999,9999,9999,1793802320
435,23,Ticks_Phase_5,125,9999,9999,9999,1794303052
435,23,Ticks_Phase_5,126,9999,9999,9999,1794802744
435,23,Ticks_Phase_5,127,9999,9999,9999,1795302504
435,23,Ticks_Phase_5,128,9999,9999,9999,1795802196
435,23,Ticks_Phase_5,129,9999,9999,9999,1796302904
435,23,Ticks_Phase_5,130,9999,9999,9999,1796802668
435,23,Ticks_Phase_5,131,9999,9999,9999,1797402712
435,23,Ticks_Phase_5,132,9999,9999,9999,1797902424
435,23,Ticks_Phase_5,133,9999,9999,9999,1798402128
435,23,Ticks_Phase_5,134,9999,9999,9999,1798902864
435,23,Ticks_Phase_5,135,9999,9999,9999,1799402548
435,23,Ticks_Phase_5,136,9999,9999,9999,1799902320
435,23,Ticks_Phase_5,137,9999,9999,9999,1800403028
435,23,Ticks_Phase_5,138,9999,9999,9999,1800902716
435,23,Ticks_Phase_5,139,9999,9999,9999,1801402476
435,23,Ticks_Phase_5,140,9999,9999,9999,1801902164
435,23,Ticks_Phase_5,141,9999,9999,9999,1802402892
435,23,Ticks_Phase_5,142,9999,9999,9999,1802902588
435,23,Ticks_Phase_5,143,9999,9999,9999,1803402344
435,23,Ticks_Phase_5,144,9999,9999,9999,1803903080
435,23,Ticks_Phase_5,145,9999,9999,9999,1804402768
435,23,Ticks_Phase_5,146,9999,9999,9999,1804902456
435,23,Ticks_Phase_5,147,9999,9999,9999,1805402220
435,23,Ticks_Phase_5,148,9999,9999,9999,1805902952
435,23,Ticks_Phase_5,149,9999,9999,9999,1806402648
435,23,Ticks_Phase_5,150,9999,9999,9999,1806803032
435,23,Ticks_Phase_5,151,9999,9999,9999,1807302776
435,23,Ticks_Phase_5,152,9999,9999,9999,1807802464
435,23,Ticks_Phase_5,153,9999,9999,9999,1808302152
435,23,Ticks_Phase_5,154,9999,9999,9999,1808802900
435,23,Ticks_Phase_5,155,9999,9999,9999,1809302592
435,23,Ticks_Phase_5,156,9999,9999,9999,1809802360
435,23,Ticks_Phase_5,157,9999,9999,9999,1810303088
435,23,Ticks_Phase_5,158,9999,9999,9999,1810802784
435,23,Ticks_Phase_5,159,9999,9999,9999,1811302464
435,23,Ticks_Phase_5,160,9999,9999,9999,1811802228
435,23,Ticks_Phase_5,161,9999,9999,9999,1812302964
435,23,Ticks_Phase_5,162,9999,9999,9999,1812802652
435,23,Ticks_Phase_5,163,9999,9999,9999,1813302340
435,23,Ticks_Phase_5,164,9999,9999,9999,1813803076
435,23,Ticks_Phase_5,165,9999,9999,9999,1814313020
435,23,Ticks_Phase_5,166,9999,9999,9999,1814812784
435,23,Ticks_Phase_5,167,9999,9999,9999,1815312472
435,23,Ticks_Phase_5,168,9999,9999,9999,1815812160
435,23,Ticks_Phase_5,169,9999,9999,9999,1816312896
436,22,Ticks_Phase_8,0,5,42,127,1830996416
436,22,Ticks_Phase_8,1,1,48,28,1831540720
436,22,Ticks_Phase_8,2,5,42,127,1831796132
436,22,Ticks_Phase_8,3,1,48,33,1832569996
436,22,Ticks_Phase_8,4,5,42,127,1832595712
436,22,Ticks_Phase_8,5,1,48,38,1833383476
436,22,Ticks_Phase_8,6,5,42,127,1833395496
436,22,Ticks_Phase_8,7,1,48,40,1834180724
436,22,Ticks_Phase_8,8,5,42,127,1834196428
436,22,Ticks_Phase_8,9,1,48,37,1834932428
436,22,Ticks_Phase_8,10,5,42,127,1834996212
436,22,Ticks_Phase_8,11,1,48,31,1835725856
436,22,Ticks_Phase_8,12,5,42,127,1835795776
436,22,Ticks_Phase_8,13,1,48,35,1836496432
436,22,Ticks_Phase_8,14,5,42,127,1836595552
436,22,Ticks_Phase_8,15,1,48,31,1837330468
436,22,Ticks_Phase_8,16,5,42,127,1837396544
436,22,Ticks_Phase_8,17,1,48,32,1838111676
436,22,Ticks_Phase_8,18,5,42,127,1838196184
436,22,Ticks_Phase_8,19,1,48,36,1838875976
436,22,Ticks_Phase_8,20,5,42,127,1838995808
436,22,Ticks_Phase_8,21,1,48,38,1839684680
436,22,Ticks_Phase_8,22,5,42,127,1839795520
436,22,Ticks_Phase_8,23,1,48,40,1840489628
436,22,Ticks_Phase_8,24,5,42,127,1840596528
436,22,Ticks_Phase_8,25,1,48,37,1841260656
436,22,Ticks_Phase_8,26,5,42,127,1841395944
436,22,Ticks_Phase_8,27,1,48,34,1842098932
436,22,Ticks_Phase_8,28,5,42,127,1842195804
436,22,Ticks_Phase_8,29,1,48,32,1842931540
436,22,Ticks_Phase_8,30,5,42,127,1842995676
436,22,Ticks_Phase_8,31,1,48,27,1843719048
436,22,Ticks_Phase_8,32,5,42,127,1843796360
436,22,Ticks_Phase_8,33,1,48,27,1844520480
436,22,Ticks_Phase_8,34,5,42,127,1844596296
436,22,Ticks_Phase_8,35,1,48,29,1845304772
436,22,Ticks_Phase_8,36,5,42,127,1845395788
436,22,Ticks_Phase_8,37,1,48,31,1846131284
436,22,Ticks_Phase_8,38,5,42,127,1846195572
436,22,Ticks_Phase_8,39,1,48,30,1846926364
436,22,Ticks_Phase_8,40,5,42,127,1846996208
436,22,Ticks_Phase_8,41,1,48,35,1847776044
436,22,Ticks_Phase_8,42,5,42,127,1847796292
436,22,Ticks_Phase_8,43,1,48,29,1848556360
436,22,Ticks_Phase_8,44,5,42,127,1848595856
436,22,Ticks_Phase_8,45,1,48,32,1849316232
436,22,Ticks_Phase_8,46,5,42,127,1849395492
436,22,Ticks_Phase_8,47,1,48,31,1850103968
436,22,Ticks_Phase_8,48,5,42,127,1850196252
436,22,Ticks_Phase_8,49,1,48,35,1850913176
436,22,Ticks_Phase_8,50,5,42,127,1850996260
436,22,Ticks_Phase_8,51,1,48,30,1851692964
436,22,Ticks_Phase_8,52,5,42,127,1851795956
436,22,Ticks_Phase_8,53,1,48,30,1852530200
436,22,Ticks_Phase_8,54,5,42,127,1852595536
436,22,Ticks_Phase_8,55,1,48,34,1853331108
436,22,Ticks_Phase_8,56,5,42,127,1853396316
436,22,Ticks_Phase_8,57,1,48,31,1854086196
436,22,Ticks_Phase_8,58,5,42,127,1854196016
436,22,Ticks_Phase_8,59,1,48,30,1854880208
436,22,Ticks_Phase_8,60,5,42,127,1854976496
436,22,Ticks_Phase_8,61,1,48,29,1855666300
436,22,Ticks_Phase_8,62,5,42,127,1855775968
436,22,Ticks_Phase_8,63,1,48,29,1856492156
436,22,Ticks_Phase_8,64,5,42,127,1856576140
436,22,Ticks_Phase_8,65,1,48,35,1857257428
436,22,Ticks_Phase_8,66,5,42,127,1857375464
436,22,Ticks_Phase_8,67,1,48,31,1858127384
436,22,Ticks_Phase_8,68,5,42,127,1858176388
436,22,Ticks_Phase_8,69,1,48,35,1858969400
436,22,Ticks_Phase_8,70,5,42,127,1858976248
436,22,Ticks_Phase_8,71,5,42,127,1859776116
436,22,Ticks_Phase_8,72,1,48,31,1859782376
436,22,Ticks_Phase_8,73,1,48,30,1860568484
436,22,Ticks_Phase_8,74,5,42,127,1860575476
436,22,Ticks_Phase_8,75,1,48,27,1861302412
436,22,Ticks_Phase_8,76,5,42,127,1861376384
436,22,Ticks_Phase_8,77,1,48,27,1862078912
436,22,Ticks_Phase_8,78,5,42,127,1862176004
436,22,Ticks_Phase_8,79,1,48,27,1862865916
436,22,Ticks_Phase_8,80,5,42,127,1862976088
436,22,Ticks_Phase_8,81,1,48,25,1863739616
436,22,Ticks_Phase_8,82,5,42,127,1863775516
436,22,Ticks_Phase_8,83,1,48,26,1864555056
436,22,Ticks_Phase_8,84,5,42,127,1864576500
436,22,Ticks_Phase_8,85,1,48,28,1865287292
436,22,Ticks_Phase_8,86,5,42,127,1865375988
436,22,Ticks_Phase_8,87,1,48,29,1866042888
436,22,Ticks_Phase_8,88,5,42,127,1866175908
436,22,Ticks_Phase_8,89,1,48,26,1866913216
436,22,Ticks_Phase_8,90,5,42,127,1866975808
436,22,Ticks_Phase_8,91,1,48,35,1867683124
436,22,Ticks_Phase_8,92,5,42,127,1867777080
436,22,Ticks_Phase_8,93,1,48,29,1868506756
436,22,Ticks_Phase_8,94,5,42,127,1868576132
436,22,Ticks_Phase_8,95,1,48,35,1869308044
436,22,Ticks_Phase_8,96,5,42,127,1869396360
436,22,Ticks_Phase_8,97,1,48,32,1870097196
436,22,Ticks_Phase_8,98,5,42,127,1870196056
436,22,Ticks_Phase_8,99,1,48,27,1870929476
436,22,Ticks_Phase_8,100,5,42,127,1870995856
436,22,Ticks_Phase_8,101,1,48,30,1871751952
436,22,Ticks_Phase_8,102,5,42,127,1871795792
436,22,Ticks_Phase_8,103,1,48,31,1872509652
436,22,Ticks_Phase_8,104,5,42,127,1872596504
436,22,Ticks_Phase_8,105,1,48,24,1873292284
436,22,Ticks_Phase_8,106,5,42,127,1873396048
436,22,Ticks_Phase_8,107,1,48,29,1874114628
436,22,Ticks_Phase_8,108,5,42,127,1874195776
436,22,Ticks_Phase_8,109,1,48,27,1874839892
436,22,Ticks_Phase_8,110,5,42,127,1874995696
436,22,Ticks_Phase_8,111,1,48,27,1875711736
436,22,Ticks_Phase_8,112,5,42,127,1875796320
436,22,Ticks_Phase_8,113,1,48,29,1876585820
436,22,Ticks_Phase_8,114,5,42,127,1876596108
436,22,Ticks_Phase_8,115,1,48,30,1877340372
436,22,Ticks_Phase_8,116,5,42,127,1877395892
436,22,Ticks_Phase_8,117,1,48,29,1878079424
436,22,Ticks_Phase_8,118,5,42,127,1878195592
436,22,Ticks_Phase_8,119,1,48,32,1878890968
436,22,Ticks_Phase_8,120,5,42,127,1878996524
436,22,Ticks_Phase_8,121,1,48,32,1879653844
436,22,Ticks_Phase_8,122,5,42,127,1879796012
436,22,Ticks_Phase_8,123,1,48,32,1880526412
436,22,Ticks_Phase_8,124,5,42,127,1880595736
436,22,Ticks_Phase_8,125,1,48,33,1881329364
436,22,Ticks_Phase_8,126,5,42,127,1881395448
436,22,Ticks_Phase_8,127,1,48,31,1882184952
436,22,Ticks_Phase_8,128,5,42,127,1882236200
436,22,Ticks_Phase_8,129,1,48,20,1882967732
436,22,Ticks_Phase_8,130,5,42,127,1883035984
436,22,Ticks_Phase_8,131,1,48,27,1883786844
436,22,Ticks_Phase_8,132,5,42,127,1883835696
436,22,Ticks_Phase_8,133,1,48,24,1884545072
436,22,Ticks_Phase_8,134,5,42,127,1884635508
436,22,Ticks_Phase_8,135,1,48,27,1885375932
436,22,Ticks_Phase_8,136,5,42,127,1885436488
436,22,Ticks_Phase_8,137,1,48,25,1886168024
436,22,Ticks_Phase_8,138,5,42,127,1886236200
436,22,Ticks_Phase_8,139,1,48,27,1886947372
436,22,Ticks_Phase_8,140,5,42,127,1887035688
436,22,Ticks_Phase_8,141,1,48,29,1887818972
436,22,Ticks_Phase_8,142,5,42,127,1887835552
436,22,Ticks_Phase_8,143,5,42,127,1888636540
436,22,Ticks_Phase_8,144,1,48,27,1888665200
436,22,Ticks_Phase_8,145,1,48,35,1889407088
436,22,Ticks_Phase_8,146,5,42,127,1889435872
436,22,Ticks_Phase_8,147,1,48,34,1890189120
436,22,Ticks_Phase_8,148,5,42,127,1890235880
436,22,Ticks_Phase_8,149,1,48,37,1890957008
436,22,Ticks_Phase_8,150,5,42,127,1891035392
436,22,Ticks_Phase_8,151,1,48,36,1891727588
436,22,Ticks_Phase_8,152,5,42,127,1891836360
436,22,Ticks_Phase_8,153,1,48,39,1892573756
436,22,Ticks_Phase_8,154,5,42,127,1892636236
436,22,Ticks_Phase_8,155,1,48,29,1893418840
436,22,Ticks_Phase_8,156,5,42,127,1893435648
436,22,Ticks_Phase_8,157,1,48,36,1894180732
436,22,Ticks_Phase_8,158,5,42,127,1894235360
436,22,Ticks_Phase_8,159,1,48,29,1894961276
436,22,Ticks_Phase_8,160,5,42,127,1895036268
436,22,Ticks_Phase_8,161,1,48,30,1895737704
436,22,Ticks_Phase_8,162,5,42,127,1895796368
436,22,Ticks_Phase_8,163,1,48,43,1896572752
436,22,Ticks_Phase_8,164,5,42,127,1896595708
436,22,Ticks_Phase_8,165,1,48,41,1897374052
436,22,Ticks_Phase_8,166,5,42,127,1897395492
436,22,Ticks_Phase_8,167,1,48,37,1898166644
436,22,Ticks_Phase_8,168,5,42,127,1898196348
436,22,Ticks_Phase_8,169,1,48,35,1898930100
436,22,Ticks_Phase_8,170,5,42,127,1898996284
436,22,Ticks_Phase_8,171,1,48,37,1899734268
436,22,Ticks_Phase_8,172,5,42,127,1899795920
436,22,Ticks_Phase_8,173,1,48,39,1900522584
436,22,Ticks_Phase_8,174,5,42,127,1900595632
436,22,Ticks_Phase_8,175,1,48,40,1901286660
436,22,Ticks_Phase_8,176,5,42,127,1901396300
436,22,Ticks_Phase_8,177,1,48,39,1902091528
436,22,Ticks_Phase_8,178,5,42,127,1902196164
436,22,Ticks_Phase_8,179,1,48,42,1902941112
436,22,Ticks_Phase_8,180,5,42,127,1902995964
436,22,Ticks_Phase_8,181,1,48,38,1903728396
436,22,Ticks_Phase_8,182,5,42,127,1903795600
436,22,Ticks_Phase_8,183,1,48,42,1904493968
436,22,Ticks_Phase_8,184,5,42,127,1904596296
436,22,Ticks_Phase_8,185,1,48,38,1905323408
436,22,Ticks_Phase_8,186,5,42,127,1905396096
436,22,Ticks_Phase_8,187,1,48,38,1906088736
436,22,Ticks_Phase_8,188,5,42,127,1906196088
436,22,Ticks_Phase_8,189,1,48,43,1906914988
436,22,Ticks_Phase_8,190,5,42,127,1906995516
436,22,Ticks_Phase_8,191,1,48,33,1907700312
436,22,Ticks_Phase_8,192,5,42,127,1907796260
436,22,Ticks_Phase_8,193,5,42,127,1908516092
436,22,Ticks_Phase_8,194,1,48,36,1908519064
436,22,Ticks_Phase_8,195,1,48,34,1909287908
436,22,Ticks_Phase_8,196,5,42,127,1909316092
436,22,Ticks_Phase_8,197,1,48,39,1910054228
436,22,Ticks_Phase_8,198,5,42,127,1910115880
436,22,Ticks_Phase_8,199,1,48,34,1910803612
436,22,Ticks_Phase_8,200,5,42,127,1910915352
436,22,Ticks_Phase_8,201,1,48,30,1911621664
436,22,Ticks_Phase_8,202,5,42,127,1911716260
436,22,Ticks_Phase_8,203,1,48,34,1912408124
436,22,Ticks_Phase_8,204,5,42,127,1912516124
436,22,Ticks_Phase_8,205,1,48,35,1913196604
436,22,Ticks_Phase_8,206,5,42,127,1913315860
436,22,Ticks_Phase_8,207,1,48,40,1913996836
436,22,Ticks_Phase_8,208,5,42,127,1914115868
436,22,Ticks_Phase_8,209,1,48,44,1914782532
436,22,Ticks_Phase_8,210,5,42,127,1914916180
436,22,Ticks_Phase_8,211,1,48,39,1915615680
436,22,Ticks_Phase_8,212,5,42,127,1915715892
436,22,Ticks_Phase_8,213,1,48,42,1916459200
436,22,Ticks_Phase_8,214,5,42,127,1916515840
436,22,Ticks_Phase_8,215,1,48,35,1917260776
436,22,Ticks_Phase_8,216,5,42,127,1917315332
436,22,Ticks_Phase_8,217,1,48,40,1918091792
436,22,Ticks_Phase_8,218,5,42,127,1918116164
436,22,Ticks_Phase_8,219,1,48,37,1918868592
436,22,Ticks_Phase_8,220,5,42,127,1918915948
436,22,Ticks_Phase_8,221,1,48,37,1919618132
436,22,Ticks_Phase_8,222,5,42,127,1919715820
436,22,Ticks_Phase_8,223,1,48,41,1920434620
436,22,Ticks_Phase_8,224,5,42,127,1920515396
436,22,Ticks_Phase_8,225,1,48,40,1921215756
436,22,Ticks_Phase_8,226,5,42,127,1921316292
436,22,Ticks_Phase_8,227,1,48,37,1921998044
436,22,Ticks_Phase_8,228,5,42,127,1922195908
436,22,Ticks_Phase_8,229,1,48,39,1922936668
436,22,Ticks_Phase_8,230,5,42,127,1922995560
436,22,Ticks_Phase_8,231,1,48,41,1923771948
436,22,Ticks_Phase_8,232,5,42,127,1923796272
436,22,Ticks_Phase_8,233,1,48,48,1924592280
436,22,Ticks_Phase_8,234,5,42,127,1924596056
436,22,Ticks_Phase_8,235,5,42,127,1925395848
436,22,Ticks_Phase_8,236,1,48,46,1925398600
436,22,Ticks_Phase_8,237,5,42,127,1926195560
436,22,Ticks_Phase_8,238,1,48,29,1926240764
436,22,Ticks_Phase_8,239,5,42,127,1926996468
436,22,Ticks_Phase_8,240,1,48,39,1927043928
436,22,Ticks_Phase_8,241,5,42,127,1927796032
436,22,Ticks_Phase_8,242,1,48,39,1927797000
436,22,Ticks_Phase_8,243,5,42,127,1928595820
436,22,Ticks_Phase_8,244,1,48,44,1928619308
436,22,Ticks_Phase_8,245,1,48,36,1929300236
436,22,Ticks_Phase_8,246,5,42,127,1929395508
436,22,Ticks_Phase_8,247,1,48,29,1930101144
436,22,Ticks_Phase_8,248,5,42,127,1930196440
436,22,Ticks_Phase_8,249,1,48,37,1930899432
436,22,Ticks_Phase_8,250,5,42,127,1930996376
436,22,Ticks_Phase_8,251,1,48,34,1931724712
436,22,Ticks_Phase_8,252,5,42,127,1931795880
436,22,Ticks_Phase_8,253,1,48,36,1932513492
436,22,Ticks_Phase_8,254,5,42,127,1932595592
436,22,Ticks_Phase_8,255,1,48,40,1933273664
436,22,Ticks_Phase_8,256,5,42,127,1933396560
436,22,Ticks_Phase_8,257,1,48,36,1934114336
436,22,Ticks_Phase_8,258,5,42,127,1934196212
436,22,Ticks_Phase_8,259,1,48,40,1934880116
436,22,Ticks_Phase_8,260,5,42,127,1934995684
436,22,Ticks_Phase_8,261,1,48,35,1935716076
436,22,Ticks_Phase_8,262,5,42,127,1935956576
436,22,Ticks_Phase_8,263,5,42,127,1936756236
436,22,Ticks_Phase_8,264,1,48,27,1936860700
436,22,Ticks_Phase_8,265,5,42,127,1937555800
436,22,Ticks_Phase_8,266,1,48,33,1937556840
436,22,Ticks_Phase_8,267,1,48,35,1938280284
436,22,Ticks_Phase_8,268,5,42,127,1938355580
436,22,Ticks_Phase_8,269,1,48,31,1939057608
436,22,Ticks_Phase_8,270,5,42,127,1939156496
436,22,Ticks_Phase_8,271,1,48,28,1939770000
436,22,Ticks_Phase_8,272,5,42,127,1939956284
436,22,Ticks_Phase_8,273,1,48,29,1940670960
436,22,Ticks_Phase_8,274,5,42,127,1940755788
436,22,Ticks_Phase_8,275,1,48,29,1941455276
436,22,Ticks_Phase_8,276,5,42,127,1941555560
436,22,Ticks_Phase_8,277,1,48,28,1942236188
436,22,Ticks_Phase_8,278,5,42,127,1942356316
436,22,Ticks_Phase_8,279,1,48,30,1943132720
436,22,Ticks_Phase_8,280,5,42,127,1943156340
436,22,Ticks_Phase_8,281,1,48,29,1943890792
436,22,Ticks_Phase_8,282,5,42,127,1943955756
436,22,Ticks_Phase_8,283,1,48,25,1944681444
436,22,Ticks_Phase_8,284,5,42,127,1944755692
436,22,Ticks_Phase_8,285,1,48,31,1945508196
436,22,Ticks_Phase_8,286,5,42,127,1945556252
436,22,Ticks_Phase_8,287,1,48,27,1946304312
436,22,Ticks_Phase_8,288,5,42,127,1946356336
436,22,Ticks_Phase_8,289,1,48,41,1947028912
436,22,Ticks_Phase_8,290,5,42,127,1947155808
436,22,Ticks_Phase_8,291,1,48,32,1947906160
436,22,Ticks_Phase_8,292,5,42,127,1947955536
436,22,Ticks_Phase_8,293,1,48,28,1948665652
436,22,Ticks_Phase_8,294,5,42,127,1948756292
436,22,Ticks_Phase_8,295,1,48,28,1949393016
436,22,Ticks_Phase_8,296,5,42,127,1949556360
436,22,Ticks_Phase_8,297,1,48,31,1950212128
436,22,Ticks_Phase_8,298,5,42,127,1950355852
436,22,Ticks_Phase_8,299,5,42,127,1950995776
436,22,Ticks_Phase_8,300,1,48,29,1951033260
436,22,Ticks_Phase_8,301,1,48,34,1951624392
436,22,Ticks_Phase_8,302,5,42,127,1951795544
436,22,Ticks_Phase_8,303,1,48,33,1952542064
436,22,Ticks_Phase_8,304,5,42,127,1952596316
436,22,Ticks_Phase_8,305,1,48,36,1953366348
436,22,Ticks_Phase_8,306,5,42,127,1953395952
436,22,Ticks_Phase_8,307,1,48,31,1954082768
436,22,Ticks_Phase_8,308,5,42,127,1954196020
436,22,Ticks_Phase_8,309,1,48,32,1954823636
436,22,Ticks_Phase_8,310,5,42,127,1954995436
436,22,Ticks_Phase_8,311,1,48,26,1955676216
436,22,Ticks_Phase_8,312,5,42,127,1955796216
436,22,Ticks_Phase_8,313,1,48,28,1956575476
436,22,Ticks_Phase_8,314,5,42,127,1956596020
436,22,Ticks_Phase_8,315,1,48,28,1957318320
436,22,Ticks_Phase_8,316,5,42,127,1957396028
436,22,Ticks_Phase_8,317,1,48,29,1958124948
436,22,Ticks_Phase_8,318,5,42,127,1958195592
436,22,Ticks_Phase_8,319,1,48,29,1958941952
436,22,Ticks_Phase_8,320,5,42,127,1958996276
436,22,Ticks_Phase_8,321,1,48,34,1959680480
436,22,Ticks_Phase_8,322,5,42,127,1959796124
436,22,Ticks_Phase_8,323,1,48,28,1960441028
436,22,Ticks_Phase_8,324,5,42,127,1960595908
436,22,Ticks_Phase_8,325,1,48,33,1961255196
436,22,Ticks_Phase_8,326,5,42,127,1961395548
436,22,Ticks_Phase_8,327,1,48,28,1962091368
436,22,Ticks_Phase_8,328,5,42,127,1962196332
436,22,Ticks_Phase_8,329,1,48,28,1962866828
436,22,Ticks_Phase_8,330,5,42,127,1962996044
436,22,Ticks_Phase_8,331,1,48,34,1963729536
436,22,Ticks_Phase_8,332,5,42,127,1963795916
436,22,Ticks_Phase_8,333,1,48,32,1964513532
436,22,Ticks_Phase_8,334,5,42,127,1964595780
436,22,Ticks_Phase_8,335,1,48,29,1965307320
436,22,Ticks_Phase_8,336,5,42,127,1965396464
436,22,Ticks_Phase_8,337,1,48,34,1966083376
436,22,Ticks_Phase_8,338,5,42,127,1966196160
436,22,Ticks_Phase_8,0,9999,9999,9999,1830993980
436,22,Ticks_Phase_8,1,9999,9999,9999,1831793768
436,22,Ticks_Phase_8,2,9999,9999,9999,1832593500
436,22,Ticks_Phase_8,3,9999,9999,9999,1833393208
436,22,Ticks_Phase_8,4,9999,9999,9999,1834193992
436,22,Ticks_Phase_8,5,9999,9999,9999,1834993776
436,22,Ticks_Phase_8,6,9999,9999,9999,1835793488
436,22,Ticks_Phase_8,7,9999,9999,9999,1836593264
436,22,Ticks_Phase_8,8,9999,9999,9999,1837394036
436,22,Ticks_Phase_8,9,9999,9999,9999,1838193748
436,22,Ticks_Phase_8,10,9999,9999,9999,1838993520
436,22,Ticks_Phase_8,11,9999,9999,9999,1839793232
436,22,Ticks_Phase_8,12,9999,9999,9999,1840594016
436,22,Ticks_Phase_8,13,9999,9999,9999,1841393728
436,22,Ticks_Phase_8,14,9999,9999,9999,1842193516
436,22,Ticks_Phase_8,15,9999,9999,9999,1842993244
436,22,Ticks_Phase_8,16,9999,9999,9999,1843794000
436,22,Ticks_Phase_8,17,9999,9999,9999,1844593788
436,22,Ticks_Phase_8,18,9999,9999,9999,1845393500
436,22,Ticks_Phase_8,19,9999,9999,9999,1846193212
436,22,Ticks_Phase_8,20,9999,9999,9999,1846993996
436,22,Ticks_Phase_8,21,9999,9999,9999,1847793780
436,22,Ticks_Phase_8,22,9999,9999,9999,1848593492
436,22,Ticks_Phase_8,23,9999,9999,9999,1849393204
436,22,Ticks_Phase_8,24,9999,9999,9999,1850194040
436,22,Ticks_Phase_8,25,9999,9999,9999,1850993752
436,22,Ticks_Phase_8,26,9999,9999,9999,1851793520
436,22,Ticks_Phase_8,27,9999,9999,9999,1852593252
436,22,Ticks_Phase_8,28,9999,9999,9999,1853394032
436,22,Ticks_Phase_8,29,9999,9999,9999,1854193728
436,22,Ticks_Phase_8,30,9999,9999,9999,1854974056
436,22,Ticks_Phase_8,31,9999,9999,9999,1855773756
436,22,Ticks_Phase_8,32,9999,9999,9999,1856573556
436,22,Ticks_Phase_8,33,9999,9999,9999,1857373252
436,22,Ticks_Phase_8,34,9999,9999,9999,1858174028
436,22,Ticks_Phase_8,35,9999,9999,9999,1858973812
436,22,Ticks_Phase_8,36,9999,9999,9999,1859773532
436,22,Ticks_Phase_8,37,9999,9999,9999,1860573264
436,22,Ticks_Phase_8,38,9999,9999,9999,1861374020
436,22,Ticks_Phase_8,39,9999,9999,9999,1862173792
436,22,Ticks_Phase_8,40,9999,9999,9999,1862973504
436,22,Ticks_Phase_8,41,9999,9999,9999,1863773304
436,22,Ticks_Phase_8,42,9999,9999,9999,1864574064
436,22,Ticks_Phase_8,43,9999,9999,9999,1865373776
436,22,Ticks_Phase_8,44,9999,9999,9999,1866173548
436,22,Ticks_Phase_8,45,9999,9999,9999,1866973296
436,22,Ticks_Phase_8,46,9999,9999,9999,1867774056
436,22,Ticks_Phase_8,47,9999,9999,9999,1868573768
436,22,Ticks_Phase_8,48,9999,9999,9999,1869394000
436,22,Ticks_Phase_8,49,9999,9999,9999,1870193772
436,22,Ticks_Phase_8,50,9999,9999,9999,1870993496
436,22,Ticks_Phase_8,51,9999,9999,9999,1871793212
436,22,Ticks_Phase_8,52,9999,9999,9999,1872593992
436,22,Ticks_Phase_8,53,9999,9999,9999,1873393764
436,22,Ticks_Phase_8,54,9999,9999,9999,1874193488
436,22,Ticks_Phase_8,55,9999,9999,9999,1874993260
436,22,Ticks_Phase_8,56,9999,9999,9999,1875794032
436,22,Ticks_Phase_8,57,9999,9999,9999,1876593744
436,22,Ticks_Phase_8,58,9999,9999,9999,1877393532
436,22,Ticks_Phase_8,59,9999,9999,9999,1878193228
436,22,Ticks_Phase_8,60,9999,9999,9999,1878994012
436,22,Ticks_Phase_8,61,9999,9999,9999,1879793724
436,22,Ticks_Phase_8,62,9999,9999,9999,1880593524
436,22,Ticks_Phase_8,63,9999,9999,9999,1881393236
436,22,Ticks_Phase_8,64,9999,9999,9999,1882233912
436,22,Ticks_Phase_8,65,9999,9999,9999,1883033696
436,22,Ticks_Phase_8,66,9999,9999,9999,1883833412
436,22,Ticks_Phase_8,67,9999,9999,9999,1884633148
436,22,Ticks_Phase_8,68,9999,9999,9999,1885433980
436,22,Ticks_Phase_8,69,9999,9999,9999,1886233692
436,22,Ticks_Phase_8,70,9999,9999,9999,1887033404
436,22,Ticks_Phase_8,71,9999,9999,9999,1887833188
436,22,Ticks_Phase_8,72,9999,9999,9999,1888633956
436,22,Ticks_Phase_8,73,9999,9999,9999,1889433660
436,22,Ticks_Phase_8,74,9999,9999,9999,1890233444
436,22,Ticks_Phase_8,75,9999,9999,9999,1891033180
436,22,Ticks_Phase_8,76,9999,9999,9999,1891833924
436,22,Ticks_Phase_8,77,9999,9999,9999,1892633724
436,22,Ticks_Phase_8,78,9999,9999,9999,1893433436
436,22,Ticks_Phase_8,79,9999,9999,9999,1894233148
436,22,Ticks_Phase_8,80,9999,9999,9999,1895033980
436,22,Ticks_Phase_8,81,9999,9999,9999,1895793780
436,22,Ticks_Phase_8,82,9999,9999,9999,1896593496
436,22,Ticks_Phase_8,83,9999,9999,9999,1897393204
436,22,Ticks_Phase_8,84,9999,9999,9999,1898193988
436,22,Ticks_Phase_8,85,9999,9999,9999,1898993772
436,22,Ticks_Phase_8,86,9999,9999,9999,1899793484
436,22,Ticks_Phase_8,87,9999,9999,9999,1900593272
436,22,Ticks_Phase_8,88,9999,9999,9999,1901394016
436,22,Ticks_Phase_8,89,9999,9999,9999,1902193728
436,22,Ticks_Phase_8,90,9999,9999,9999,1902993528
436,22,Ticks_Phase_8,91,9999,9999,9999,1903793240
436,22,Ticks_Phase_8,92,9999,9999,9999,1904594008
436,22,Ticks_Phase_8,93,9999,9999,9999,1905393736
436,22,Ticks_Phase_8,94,9999,9999,9999,1906193504
436,22,Ticks_Phase_8,95,9999,9999,9999,1906993232
436,22,Ticks_Phase_8,96,9999,9999,9999,1907794028
436,22,Ticks_Phase_8,97,9999,9999,9999,1908513876
436,22,Ticks_Phase_8,98,9999,9999,9999,1909313660
436,22,Ticks_Phase_8,99,9999,9999,9999,1910113372
436,22,Ticks_Phase_8,100,9999,9999,9999,1910913140
436,22,Ticks_Phase_8,101,9999,9999,9999,1911713900
436,22,Ticks_Phase_8,102,9999,9999,9999,1912513612
436,22,Ticks_Phase_8,103,9999,9999,9999,1913313348
436,22,Ticks_Phase_8,104,9999,9999,9999,1914113136
436,22,Ticks_Phase_8,105,9999,9999,9999,1914913892
436,22,Ticks_Phase_8,106,9999,9999,9999,1915713604
436,22,Ticks_Phase_8,107,9999,9999,9999,1916513404
436,22,Ticks_Phase_8,108,9999,9999,9999,1917313120
436,22,Ticks_Phase_8,109,9999,9999,9999,1918113876
436,22,Ticks_Phase_8,110,9999,9999,9999,1918913664
436,22,Ticks_Phase_8,111,9999,9999,9999,1919713384
436,22,Ticks_Phase_8,112,9999,9999,9999,1920513112
436,22,Ticks_Phase_8,113,9999,9999,9999,1921313928
436,22,Ticks_Phase_8,114,9999,9999,9999,1922193472
436,22,Ticks_Phase_8,115,9999,9999,9999,1922993276
436,22,Ticks_Phase_8,116,9999,9999,9999,1923793984
436,22,Ticks_Phase_8,117,9999,9999,9999,1924593772
436,22,Ticks_Phase_8,118,9999,9999,9999,1925393488
436,22,Ticks_Phase_8,119,9999,9999,9999,1926193276
436,22,Ticks_Phase_8,120,9999,9999,9999,1926994032
436,22,Ticks_Phase_8,121,9999,9999,9999,1927793744
436,22,Ticks_Phase_8,122,9999,9999,9999,1928593532
436,22,Ticks_Phase_8,123,9999,9999,9999,1929393220
436,22,Ticks_Phase_8,124,9999,9999,9999,1930194004
436,22,Ticks_Phase_8,125,9999,9999,9999,1930993732
436,22,Ticks_Phase_8,126,9999,9999,9999,1931793520
436,22,Ticks_Phase_8,127,9999,9999,9999,1932593232
436,22,Ticks_Phase_8,128,9999,9999,9999,1933393972
436,22,Ticks_Phase_8,129,9999,9999,9999,1934193776
436,22,Ticks_Phase_8,130,9999,9999,9999,1934993472
436,22,Ticks_Phase_8,131,9999,9999,9999,1935953992
436,22,Ticks_Phase_8,132,9999,9999,9999,1936753724
436,22,Ticks_Phase_8,133,9999,9999,9999,1937553512
436,22,Ticks_Phase_8,134,9999,9999,9999,1938353216
436,22,Ticks_Phase_8,135,9999,9999,9999,1939153988
436,22,Ticks_Phase_8,136,9999,9999,9999,1939953772
436,22,Ticks_Phase_8,137,9999,9999,9999,1940753504
436,22,Ticks_Phase_8,138,9999,9999,9999,1941553272
436,22,Ticks_Phase_8,139,9999,9999,9999,1942354032
436,22,Ticks_Phase_8,140,9999,9999,9999,1943153760
436,22,Ticks_Phase_8,141,9999,9999,9999,1943953468
436,22,Ticks_Phase_8,142,9999,9999,9999,1944753256
436,22,Ticks_Phase_8,143,9999,9999,9999,1945554040
436,22,Ticks_Phase_8,144,9999,9999,9999,1946353752
436,22,Ticks_Phase_8,145,9999,9999,9999,1947153520
436,22,Ticks_Phase_8,146,9999,9999,9999,1947953248
436,22,Ticks_Phase_8,147,9999,9999,9999,1948754008
436,22,Ticks_Phase_8,148,9999,9999,9999,1949553780
436,22,Ticks_Phase_8,149,9999,9999,9999,1950353492
436,22,Ticks_Phase_8,150,9999,9999,9999,1950993488
436,22,Ticks_Phase_8,151,9999,9999,9999,1951793256
436,22,Ticks_Phase_8,152,9999,9999,9999,1952594028
436,22,Ticks_Phase_8,153,9999,9999,9999,1953393740
436,22,Ticks_Phase_8,154,9999,9999,9999,1954193512
436,22,Ticks_Phase_8,155,9999,9999,9999,1954993224
436,22,Ticks_Phase_8,156,9999,9999,9999,1955794004
436,22,Ticks_Phase_8,157,9999,9999,9999,1956593732
436,22,Ticks_Phase_8,158,9999,9999,9999,1957393520
436,22,Ticks_Phase_8,159,9999,9999,9999,1958193232
436,22,Ticks_Phase_8,160,9999,9999,9999,1958993988
436,22,Ticks_Phase_8,161,9999,9999,9999,1959793760
436,22,Ticks_Phase_8,162,9999,9999,9999,1960593472
436,22,Ticks_Phase_8,163,9999,9999,9999,1961393260
436,22,Ticks_Phase_8,164,9999,9999,9999,1962194044
436,22,Ticks_Phase_8,165,9999,9999,9999,1962993756
436,22,Ticks_Phase_8,166,9999,9999,9999,1963793484
436,22,Ticks_Phase_8,167,9999,9999,9999,1964593268
436,22,Ticks_Phase_8,168,9999,9999,9999,1965394028
436,22,Ticks_Phase_8,169,9999,9999,9999,1966193724
437,21,Ticks_Linear_5,0,5,42,127,1979924824
437,21,Ticks_Linear_5,1,5,42,127,1980405224
437,21,Ticks_Linear_5,2,5,42,127,1980885472
437,21,Ticks_Linear_5,3,1,48,19,1981279608
437,21,Ticks_Linear_5,4,5,42,127,1981364572
437,21,Ticks_Linear_5,5,1,48,24,1981833152
437,21,Ticks_Linear_5,6,5,42,127,1981844872
437,21,Ticks_Linear_5,7,5,42,127,1982335368
437,21,Ticks_Linear_5,8,1,48,34,1982362836
437,21,Ticks_Linear_5,9,1,48,42,1982788892
437,21,Ticks_Linear_5,10,5,42,127,1982824728
437,21,Ticks_Linear_5,11,1,48,43,1983306488
437,21,Ticks_Linear_5,12,5,42,127,1983315288
437,21,Ticks_Linear_5,13,5,42,127,1983804812
437,21,Ticks_Linear_5,14,1,48,45,1983844328
437,21,Ticks_Linear_5,15,1,48,49,1984281916
437,21,Ticks_Linear_5,16,5,42,127,1984295440
437,21,Ticks_Linear_5,17,1,48,48,1984748820
437,21,Ticks_Linear_5,18,5,42,127,1984794992
437,21,Ticks_Linear_5,19,1,48,47,1985168592
437,21,Ticks_Linear_5,20,5,42,127,1985294824
437,21,Ticks_Linear_5,21,1,48,46,1985752196
437,21,Ticks_Linear_5,22,5,42,127,1985794316
437,21,Ticks_Linear_5,23,1,48,32,1986282208
437,21,Ticks_Linear_5,24,5,42,127,1986295360
437,21,Ticks_Linear_5,25,1,48,38,1986775700
437,21,Ticks_Linear_5,26,5,42,127,1986794984
437,21,Ticks_Linear_5,27,1,48,40,1987257924
437,21,Ticks_Linear_5,28,5,42,127,1987304944
437,21,Ticks_Linear_5,29,5,42,127,1987814836
437,21,Ticks_Linear_5,30,1,48,43,1987820724
437,21,Ticks_Linear_5,31,1,48,32,1988283612
437,21,Ticks_Linear_5,32,5,42,127,1988324636
437,21,Ticks_Linear_5,33,1,48,43,1988820996
437,21,Ticks_Linear_5,34,5,42,127,1988834744
437,21,Ticks_Linear_5,35,1,48,44,1989328560
437,21,Ticks_Linear_5,36,5,42,127,1989344776
437,21,Ticks_Linear_5,37,1,48,42,1989776260
437,21,Ticks_Linear_5,38,5,42,127,1989865216
437,21,Ticks_Linear_5,39,1,48,43,1990288316
437,21,Ticks_Linear_5,40,5,42,127,1990385284
437,21,Ticks_Linear_5,41,1,48,43,1990797380
437,21,Ticks_Linear_5,42,5,42,127,1990905264
437,21,Ticks_Linear_5,43,1,48,40,1991338264
437,21,Ticks_Linear_5,44,5,42,127,1991425348
437,21,Ticks_Linear_5,45,5,42,127,1991944528
437,21,Ticks_Linear_5,46,1,48,40,1991955516
437,21,Ticks_Linear_5,47,5,42,127,1992475080
437,21,Ticks_Linear_5,48,1,48,37,1992489876
437,21,Ticks_Linear_5,49,1,48,33,1992979596
437,21,Ticks_Linear_5,50,5,42,127,1993005324
437,21,Ticks_Linear_5,51,1,48,38,1993520408
437,21,Ticks_Linear_5,52,5,42,127,1993545240
437,21,Ticks_Linear_5,53,1,48,40,1994024460
437,21,Ticks_Linear_5,54,5,42,127,1994074524
437,21,Ticks_Linear_5,55,1,48,41,1994513452
437,21,Ticks_Linear_5,56,5,42,127,1994605000
437,21,Ticks_Linear_5,57,1,48,45,1995044600
437,21,Ticks_Linear_5,58,5,42,127,1995144676
437,21,Ticks_Linear_5,59,1,48,39,1995599784
437,21,Ticks_Linear_5,60,5,42,127,1995685128
437,21,Ticks_Linear_5,61,1,48,42,1996110492
437,21,Ticks_Linear_5,62,5,42,127,1996225024
437,21,Ticks_Linear_5,63,1,48,45,1996671228
437,21,Ticks_Linear_5,64,5,42,127,1996764532
437,21,Ticks_Linear_5,65,1,48,42,1997258800
437,21,Ticks_Linear_5,66,5,42,127,1997305196
437,21,Ticks_Linear_5,67,1,48,43,1997810768
437,21,Ticks_Linear_5,68,5,42,127,1997854996
437,21,Ticks_Linear_5,69,1,48,43,1998378168
437,21,Ticks_Linear_5,70,5,42,127,1998405016
437,21,Ticks_Linear_5,71,1,48,40,1998897340
437,21,Ticks_Linear_5,72,5,42,127,1998955192
437,21,Ticks_Linear_5,73,1,48,38,1999466232
437,21,Ticks_Linear_5,74,5,42,127,1999504616
437,21,Ticks_Linear_5,75,1,48,43,1999987728
437,21,Ticks_Linear_5,76,5,42,127,2000054716
437,21,Ticks_Linear_5,77,1,48,45,2000570844
437,21,Ticks_Linear_5,78,5,42,127,2000614948
437,21,Ticks_Linear_5,79,1,48,46,2001097680
437,21,Ticks_Linear_5,80,5,42,127,2001175080
437,21,Ticks_Linear_5,81,1,48,44,2001670768
437,21,Ticks_Linear_5,82,5,42,127,2001735212
437,21,Ticks_Linear_5,83,1,48,35,2002219892
437,21,Ticks_Linear_5,84,5,42,127,2002295272
437,21,Ticks_Linear_5,85,1,48,31,2002796056
437,21,Ticks_Linear_5,86,5,42,127,2002855256
437,21,Ticks_Linear_5,87,1,48,43,2003380524
437,21,Ticks_Linear_5,88,5,42,127,2003424848
437,21,Ticks_Linear_5,89,1,48,40,2003957680
437,21,Ticks_Linear_5,90,5,42,127,2003995016
437,21,Ticks_Linear_5,91,1,48,34,2004514600
437,21,Ticks_Linear_5,92,5,42,127,2004565264
437,21,Ticks_Linear_5,93,1,48,44,2004988236
437,21,Ticks_Linear_5,94,5,42,127,2005134740
437,21,Ticks_Linear_5,95,1,48,41,2005638980
437,21,Ticks_Linear_5,96,5,42,127,2005705028
437,21,Ticks_Linear_5,97,1,48,44,2006214324
437,21,Ticks_Linear_5,98,5,42,127,2006284780
437,21,Ticks_Linear_5,99,1,48,38,2006804356
437,21,Ticks_Linear_5,100,5,42,127,2006865208
437,21,Ticks_Linear_5,101,1,48,30,2007346372
437,21,Ticks_Linear_5,102,5,42,127,2007445020
437,21,Ticks_Linear_5,103,1,48,28,2007933540
437,21,Ticks_Linear_5,104,5,42,127,2008024364
437,21,Ticks_Linear_5,105,1,48,32,2008531060
437,21,Ticks_Linear_5,106,5,42,127,2008605016
437,21,Ticks_Linear_5,107,1,48,42,2009125124
437,21,Ticks_Linear_5,108,5,42,127,2009194732
437,21,Ticks_Linear_5,109,1,48,43,2009733336
437,21,Ticks_Linear_5,110,5,42,127,2009784744
437,21,Ticks_Linear_5,111,1,48,36,2010370764
437,21,Ticks_Linear_5,112,5,42,127,2010374632
437,21,Ticks_Linear_5,113,1,48,42,2010912548
437,21,Ticks_Linear_5,114,5,42,127,2010965244
437,21,Ticks_Linear_5,115,1,48,35,2011514552
437,21,Ticks_Linear_5,116,5,42,127,2011555184
437,21,Ticks_Linear_5,117,1,48,38,2012095280
437,21,Ticks_Linear_5,118,5,42,127,2012155480
437,21,Ticks_Linear_5,119,1,48,31,2012623992
437,21,Ticks_Linear_5,120,5,42,127,2012755288
437,21,Ticks_Linear_5,121,1,48,35,2013269860
437,21,Ticks_Linear_5,122,5,42,127,2013355352
437,21,Ticks_Linear_5,123,1,48,40,2013930364
437,21,Ticks_Linear_5,124,5,42,127,2013954304
437,21,Ticks_Linear_5,125,1,48,32,2014471924
437,21,Ticks_Linear_5,126,5,42,127,2014554504
437,21,Ticks_Linear_5,127,1,48,37,2015080520
437,21,Ticks_Linear_5,128,5,42,127,2015164736
437,21,Ticks_Linear_5,129,1,48,29,2015684844
437,21,Ticks_Linear_5,130,5,42,127,2015775216
437,21,Ticks_Linear_5,131,1,48,31,2016310888
437,21,Ticks_Linear_5,132,5,42,127,2016385672
437,21,Ticks_Linear_5,133,1,48,29,2016882180
437,21,Ticks_Linear_5,134,5,42,127,2016994568
437,21,Ticks_Linear_5,135,1,48,33,2017495144
437,21,Ticks_Linear_5,136,5,42,127,2017605028
437,21,Ticks_Linear_5,137,1,48,29,2018122664
437,21,Ticks_Linear_5,138,5,42,127,2018224772
437,21,Ticks_Linear_5,139,1,48,32,2018726836
437,21,Ticks_Linear_5,140,5,42,127,2018844988
437,21,Ticks_Linear_5,141,1,48,29,2019342648
437,21,Ticks_Linear_5,142,5,42,127,2019464808
437,21,Ticks_Linear_5,143,1,48,34,2019963964
437,21,Ticks_Linear_5,144,5,42,127,2020085100
437,21,Ticks_Linear_5,145,1,48,36,2020651272
437,21,Ticks_Linear_5,146,5,42,127,2020704636
437,21,Ticks_Linear_5,147,1,48,38,2021249896
437,21,Ticks_Linear_5,148,5,42,127,2021335488
437,21,Ticks_Linear_5,149,1,48,33,2021896856
437,21,Ticks_Linear_5,150,5,42,127,2021965116
437,21,Ticks_Linear_5,151,1,48,29,2022535020
437,21,Ticks_Linear_5,152,5,42,127,2022594972
437,21,Ticks_Linear_5,153,1,48,29,2023152236
437,21,Ticks_Linear_5,154,5,42,127,2023224552
437,21,Ticks_Linear_5,155,1,48,29,2023776856
437,21,Ticks_Linear_5,156,5,42,127,2023854628
437,21,Ticks_Linear_5,157,1,48,32,2024395648
437,21,Ticks_Linear_5,158,5,42,127,2024494604
437,21,Ticks_Linear_5,159,1,48,27,2025067744
437,21,Ticks_Linear_5,160,5,42,127,2025134580
437,21,Ticks_Linear_5,161,1,48,27,2025655132
437,21,Ticks_Linear_5,162,5,42,127,2025774628
437,21,Ticks_Linear_5,163,1,48,30,2026268012
437,21,Ticks_Linear_5,164,5,42,127,2026414592
437,21,Ticks_Linear_5,165,1,48,32,2026993152
437,21,Ticks_Linear_5,166,5,42,127,2027054372
437,21,Ticks_Linear_5,167,1,48,32,2027645024
437,21,Ticks_Linear_5,168,5,42,127,2027704672
437,21,Ticks_Linear_5,169,1,48,27,2028260288
437,21,Ticks_Linear_5,170,5,42,127,2028354844
437,21,Ticks_Linear_5,171,1,48,29,2028854128
437,21,Ticks_Linear_5,172,5,42,127,2029005520
437,21,Ticks_Linear_5,173,1,48,31,2029570424
437,21,Ticks_Linear_5,174,5,42,127,2029655536
437,21,Ticks_Linear_5,175,1,48,32,2030186504
437,21,Ticks_Linear_5,176,5,42,127,2030304572
437,21,Ticks_Linear_5,177,1,48,32,2030830756
437,21,Ticks_Linear_5,178,5,42,127,2030965204
437,21,Ticks_Linear_5,179,1,48,32,2031517224
437,21,Ticks_Linear_5,180,5,42,127,2031624440
437,21,Ticks_Linear_5,181,1,48,29,2032202812
437,21,Ticks_Linear_5,182,5,42,127,2032285012
437,21,Ticks_Linear_5,183,1,48,32,2032835144
437,21,Ticks_Linear_5,184,5,42,127,2032944380
437,21,Ticks_Linear_5,185,1,48,32,2033492052
437,21,Ticks_Linear_5,186,5,42,127,2033604864
437,21,Ticks_Linear_5,187,1,48,36,2034196440
437,21,Ticks_Linear_5,188,5,42,127,2034274664
437,21,Ticks_Linear_5,189,1,48,33,2034818208
437,21,Ticks_Linear_5,190,5,42,127,2034945416
437,21,Ticks_Linear_5,191,1,48,33,2035472264
437,21,Ticks_Linear_5,192,5,42,127,2035615256
437,21,Ticks_Linear_5,193,1,48,28,2036132000
437,21,Ticks_Linear_5,194,5,42,127,2036284824
437,21,Ticks_Linear_5,195,1,48,34,2036835048
437,21,Ticks_Linear_5,196,5,42,127,2036954472
437,21,Ticks_Linear_5,197,1,48,29,2037540408
437,21,Ticks_Linear_5,198,5,42,127,2037634364
437,21,Ticks_Linear_5,199,1,48,34,2038199996
437,21,Ticks_Linear_5,200,5,42,127,2038315376
437,21,Ticks_Linear_5,201,1,48,27,2038937720
437,21,Ticks_Linear_5,202,5,42,127,2038995296
437,21,Ticks_Linear_5,203,1,48,38,2039600392
437,21,Ticks_Linear_5,204,5,42,127,2039675396
437,21,Ticks_Linear_5,205,1,48,31,2040308528
437,21,Ticks_Linear_5,206,5,42,127,2040355376
437,21,Ticks_Linear_5,207,1,48,29,2040981668
437,21,Ticks_Linear_5,208,5,42,127,2041045316
437,21,Ticks_Linear_5,209,1,48,30,2041673560
437,21,Ticks_Linear_5,210,5,42,127,2041734484
437,21,Ticks_Linear_5,211,1,48,33,2042330396
437,21,Ticks_Linear_5,212,5,42,127,2042424560
437,21,Ticks_Linear_5,213,1,48,31,2043024280
437,21,Ticks_Linear_5,214,5,42,127,2043115036
437,21,Ticks_Linear_5,215,1,48,31,2043708300
437,21,Ticks_Linear_5,216,5,42,127,2043805232
437,21,Ticks_Linear_5,217,1,48,32,2044405060
437,21,Ticks_Linear_5,218,5,42,127,2044504384
437,21,Ticks_Linear_5,219,1,48,21,2045126444
437,21,Ticks_Linear_5,220,5,42,127,2045204820
437,21,Ticks_Linear_5,221,1,48,42,2045808948
437,21,Ticks_Linear_5,222,5,42,127,2045905316
437,21,Ticks_Linear_5,223,1,48,32,2046461288
437,21,Ticks_Linear_5,224,5,42,127,2046604652
437,21,Ticks_Linear_5,225,1,48,28,2047166032
437,21,Ticks_Linear_5,226,5,42,127,2047305224
437,21,Ticks_Linear_5,227,1,48,31,2047809092
437,21,Ticks_Linear_5,228,5,42,127,2048014708
437,21,Ticks_Linear_5,229,1,48,26,2048491612
437,21,Ticks_Linear_5,230,5,42,127,2048725316
437,21,Ticks_Linear_5,231,1,48,23,2049303776
437,21,Ticks_Linear_5,232,5,42,127,2049435148
437,21,Ticks_Linear_5,233,5,42,127,2050144580
437,21,Ticks_Linear_5,234,1,48,25,2050158408
437,21,Ticks_Linear_5,235,5,42,127,2050855188
437,21,Ticks_Linear_5,236,1,48,22,2050911252
437,21,Ticks_Linear_5,237,5,42,127,2051575228
437,21,Ticks_Linear_5,238,1,48,18,2051592736
437,21,Ticks_Linear_5,239,1,48,26,2052247420
437,21,Ticks_Linear_5,240,5,42,127,2052294968
437,21,Ticks_Linear_5,241,1,48,27,2052913328
437,21,Ticks_Linear_5,242,5,42,127,2053014820
437,21,Ticks_Linear_5,243,1,48,23,2053599212
437,21,Ticks_Linear_5,244,5,42,127,2053734860
437,21,Ticks_Linear_5,245,1,48,21,2054436380
437,21,Ticks_Linear_5,246,5,42,127,2054454916
437,21,Ticks_Linear_5,247,1,48,20,2055116064
437,21,Ticks_Linear_5,248,5,42,127,2055184920
437,21,Ticks_Linear_5,249,1,48,20,2055773024
437,21,Ticks_Linear_5,250,5,42,127,2055914760
437,21,Ticks_Linear_5,251,1,48,40,2056477340
437,21,Ticks_Linear_5,252,5,42,127,2056644964
437,21,Ticks_Linear_5,253,1,48,39,2057198404
437,21,Ticks_Linear_5,254,5,42,127,2057375092
437,21,Ticks_Linear_5,255,1,48,38,2057846156
437,21,Ticks_Linear_5,256,5,42,127,2058105096
437,21,Ticks_Linear_5,257,1,48,38,2058599296
437,21,Ticks_Linear_5,258,5,42,127,2058844684
437,21,Ticks_Linear_5,259,1,48,31,2059345408
437,21,Ticks_Linear_5,260,5,42,127,2059584872
437,21,Ticks_Linear_5,261,1,48,40,2060325376
437,21,Ticks_Linear_5,262,5,42,127,2060326944
437,21,Ticks_Linear_5,263,1,48,39,2061040276
437,21,Ticks_Linear_5,264,5,42,127,2061064588
437,21,Ticks_Linear_5,265,1,48,33,2061792684
437,21,Ticks_Linear_5,266,5,42,127,2061804852
437,21,Ticks_Linear_5,267,1,48,39,2062500336
437,21,Ticks_Linear_5,268,5,42,127,2062554624
437,21,Ticks_Linear_5,269,1,48,41,2063248988
437,21,Ticks_Linear_5,270,5,42,127,2063304996
437,21,Ticks_Linear_5,271,1,48,37,2063966936
437,21,Ticks_Linear_5,272,5,42,127,2064054596
437,21,Ticks_Linear_5,273,1,48,38,2064688700
437,21,Ticks_Linear_5,274,5,42,127,2064805328
437,21,Ticks_Linear_5,275,1,48,28,2065441092
437,21,Ticks_Linear_5,276,5,42,127,2065554804
437,21,Ticks_Linear_5,277,1,48,35,2066257892
437,21,Ticks_Linear_5,278,5,42,127,2066314700
437,21,Ticks_Linear_5,279,1,48,28,2066980480
437,21,Ticks_Linear_5,280,5,42,127,2067074660
437,21,Ticks_Linear_5,281,1,48,38,2067705248
437,21,Ticks_Linear_5,282,5,42,127,2067835200
437,21,Ticks_Linear_5,283,1,48,38,2068386320
437,21,Ticks_Linear_5,284,5,42,127,2068595084
437,21,Ticks_Linear_5,285,1,48,43,2069261628
437,21,Ticks_Linear_5,286,5,42,127,2069354832
437,21,Ticks_Linear_5,287,1,48,47,2069934324
437,21,Ticks_Linear_5,288,5,42,127,2070124960
437,21,Ticks_Linear_5,289,1,48,34,2070799520
437,21,Ticks_Linear_5,290,5,42,127,2070894952
437,21,Ticks_Linear_5,291,1,48,41,2071488232
437,21,Ticks_Linear_5,292,1,48,21,2071576004
437,21,Ticks_Linear_5,293,5,42,127,2071664940
437,21,Ticks_Linear_5,294,1,48,37,2072370852
437,21,Ticks_Linear_5,295,5,42,127,2072434932
437,21,Ticks_Linear_5,296,1,48,29,2073179640
437,21,Ticks_Linear_5,297,5,42,127,2073204996
437,21,Ticks_Linear_5,298,1,48,36,2073901628
437,21,Ticks_Linear_5,299,5,42,127,2073985472
437,21,Ticks_Linear_5,300,1,48,35,2074710712
437,21,Ticks_Linear_5,301,5,42,127,2074764532
437,21,Ticks_Linear_5,302,1,48,20,2075533884
437,21,Ticks_Linear_5,303,5,42,127,2075544932
437,21,Ticks_Linear_5,304,5,42,127,2076325416
437,21,Ticks_Linear_5,305,1,48,18,2076331156
437,21,Ticks_Linear_5,306,1,48,25,2077101792
437,21,Ticks_Linear_5,307,5,42,127,2077104464
437,21,Ticks_Linear_5,308,1,48,36,2077797884
437,21,Ticks_Linear_5,309,5,42,127,2077894912
437,21,Ticks_Linear_5,310,1,48,39,2078545708
437,21,Ticks_Linear_5,311,5,42,127,2078684452
437,21,Ticks_Linear_5,312,1,48,37,2079235352
437,21,Ticks_Linear_5,313,5,42,127,2079475336
437,21,Ticks_Linear_5,314,1,48,38,2080193688
437,21,Ticks_Linear_5,315,5,42,127,2080264516
437,21,Ticks_Linear_5,316,1,48,41,2081004964
437,21,Ticks_Linear_5,317,5,42,127,2081055328
437,21,Ticks_Linear_5,318,1,48,32,2081742820
437,21,Ticks_Linear_5,319,5,42,127,2081854888
437,21,Ticks_Linear_5,320,1,48,47,2082475580
437,21,Ticks_Linear_5,321,5,42,127,2082654536
437,21,Ticks_Linear_5,322,1,48,42,2083339284
437,21,Ticks_Linear_5,323,5,42,127,2083455308
437,21,Ticks_Linear_5,324,5,42,127,2084255348
437,21,Ticks_Linear_5,325,1,48,47,2084259592
437,21,Ticks_Linear_5,326,1,48,44,2085044992
437,21,Ticks_Linear_5,327,5,42,127,2085054696
437,21,Ticks_Linear_5,328,1,48,37,2085845860
437,21,Ticks_Linear_5,329,5,42,127,2085864776
437,21,Ticks_Linear_5,330,1,48,32,2086593368
437,21,Ticks_Linear_5,331,5,42,127,2086674832
437,21,Ticks_Linear_5,332,1,48,27,2087437596
437,21,Ticks_Linear_5,333,5,42,127,2087484816
437,21,Ticks_Linear_5,334,1,48,33,2088284872
437,21,Ticks_Linear_5,335,5,42,127,2088294648
437,21,Ticks_Linear_5,336,5,42,127,2089104640
437,21,Ticks_Linear_5,0,9999,9999,9999,1979922524
437,21,Ticks_Linear_5,1,9999,9999,9999,1980402776
437,21,Ticks_Linear_5,2,9999,9999,9999,1980883028
437,21,Ticks_Linear_5,3,9999,9999,9999,1981362272
437,21,Ticks_Linear_5,4,9999,9999,9999,1981842500
437,21,Ticks_Linear_5,5,9999,9999,9999,1982332996
437,21,Ticks_Linear_5,6,9999,9999,9999,1982822504
437,21,Ticks_Linear_5,7,9999,9999,9999,1983312992
437,21,Ticks_Linear_5,8,9999,9999,9999,1983802440
437,21,Ticks_Linear_5,9,9999,9999,9999,1984292920
437,21,Ticks_Linear_5,10,9999,9999,9999,1984792692
437,21,Ticks_Linear_5,11,9999,9999,9999,1985292380
437,21,Ticks_Linear_5,12,9999,9999,9999,1985792092
437,21,Ticks_Linear_5,13,9999,9999,9999,1986292840
437,21,Ticks_Linear_5,14,9999,9999,9999,1986792536
437,21,Ticks_Linear_5,15,9999,9999,9999,1987302496
437,21,Ticks_Linear_5,16,9999,9999,9999,1987812460
437,21,Ticks_Linear_5,17,9999,9999,9999,1988322412
437,21,Ticks_Linear_5,18,9999,9999,9999,1988832372
437,21,Ticks_Linear_5,19,9999,9999,9999,1989342332
437,21,Ticks_Linear_5,20,9999,9999,9999,1989862472
437,21,Ticks_Linear_5,21,9999,9999,9999,1990382692
437,21,Ticks_Linear_5,22,9999,9999,9999,1990902892
437,21,Ticks_Linear_5,23,9999,9999,9999,1991423048
437,21,Ticks_Linear_5,24,9999,9999,9999,1991942228
437,21,Ticks_Linear_5,25,9999,9999,9999,1992472632
437,21,Ticks_Linear_5,26,9999,9999,9999,1993003100
437,21,Ticks_Linear_5,27,9999,9999,9999,1993542720
437,21,Ticks_Linear_5,28,9999,9999,9999,1994072152
437,21,Ticks_Linear_5,29,9999,9999,9999,1994602552
437,21,Ticks_Linear_5,30,9999,9999,9999,1995142228
437,21,Ticks_Linear_5,31,9999,9999,9999,1995682904
437,21,Ticks_Linear_5,32,9999,9999,9999,1996222580
437,21,Ticks_Linear_5,33,9999,9999,9999,1996762232
437,21,Ticks_Linear_5,34,9999,9999,9999,1997302896
437,21,Ticks_Linear_5,35,9999,9999,9999,1997852772
437,21,Ticks_Linear_5,36,9999,9999,9999,1998402644
437,21,Ticks_Linear_5,37,9999,9999,9999,1998952520
437,21,Ticks_Linear_5,38,9999,9999,9999,1999502392
437,21,Ticks_Linear_5,39,9999,9999,9999,2000052340
437,21,Ticks_Linear_5,40,9999,9999,9999,2000612428
437,21,Ticks_Linear_5,41,9999,9999,9999,2001172560
437,21,Ticks_Linear_5,42,9999,9999,9999,2001732692
437,21,Ticks_Linear_5,43,9999,9999,9999,2002292824
437,21,Ticks_Linear_5,44,9999,9999,9999,2002852960
437,21,Ticks_Linear_5,45,9999,9999,9999,2003422328
437,21,Ticks_Linear_5,46,9999,9999,9999,2003992644
437,21,Ticks_Linear_5,47,9999,9999,9999,2004563040
437,21,Ticks_Linear_5,48,9999,9999,9999,2005132368
437,21,Ticks_Linear_5,49,9999,9999,9999,2005702776
437,21,Ticks_Linear_5,50,9999,9999,9999,2006282332
437,21,Ticks_Linear_5,51,9999,9999,9999,2006862908
437,21,Ticks_Linear_5,52,9999,9999,9999,2007442512
437,21,Ticks_Linear_5,53,9999,9999,9999,2008022140
437,21,Ticks_Linear_5,54,9999,9999,9999,2008602720
437,21,Ticks_Linear_5,55,9999,9999,9999,2009192508
437,21,Ticks_Linear_5,56,9999,9999,9999,2009782372
437,21,Ticks_Linear_5,57,9999,9999,9999,2010372184
437,21,Ticks_Linear_5,58,9999,9999,9999,2010963020
437,21,Ticks_Linear_5,59,9999,9999,9999,2011552884
437,21,Ticks_Linear_5,60,9999,9999,9999,2012152956
437,21,Ticks_Linear_5,61,9999,9999,9999,2012752992
437,21,Ticks_Linear_5,62,9999,9999,9999,2013353056
437,21,Ticks_Linear_5,63,9999,9999,9999,2013952080
437,21,Ticks_Linear_5,64,9999,9999,9999,2014552128
437,21,Ticks_Linear_5,65,9999,9999,9999,2015162436
437,21,Ticks_Linear_5,66,9999,9999,9999,2015772768
437,21,Ticks_Linear_5,67,9999,9999,9999,2016383076
437,21,Ticks_Linear_5,68,9999,9999,9999,2016992344
437,21,Ticks_Linear_5,69,9999,9999,9999,2017602652
437,21,Ticks_Linear_5,70,9999,9999,9999,2018222176
437,21,Ticks_Linear_5,71,9999,9999,9999,2018842692
437,21,Ticks_Linear_5,72,9999,9999,9999,2019462212
437,21,Ticks_Linear_5,73,9999,9999,9999,2020082804
437,21,Ticks_Linear_5,74,9999,9999,9999,2020702264
437,21,Ticks_Linear_5,75,9999,9999,9999,2021333116
437,21,Ticks_Linear_5,76,9999,9999,9999,2021962820
437,21,Ticks_Linear_5,77,9999,9999,9999,2022592600
437,21,Ticks_Linear_5,78,9999,9999,9999,2023222328
437,21,Ticks_Linear_5,79,9999,9999,9999,2023852108
437,21,Ticks_Linear_5,80,9999,9999,9999,2024492156
437,21,Ticks_Linear_5,81,9999,9999,9999,2025132132
437,21,Ticks_Linear_5,82,9999,9999,9999,2025772108
437,21,Ticks_Linear_5,83,9999,9999,9999,2026412144
437,21,Ticks_Linear_5,84,9999,9999,9999,2027052148
437,21,Ticks_Linear_5,85,9999,9999,9999,2027702372
437,21,Ticks_Linear_5,86,9999,9999,9999,2028352620
437,21,Ticks_Linear_5,87,9999,9999,9999,2029002852
437,21,Ticks_Linear_5,88,9999,9999,9999,2029653088
437,21,Ticks_Linear_5,89,9999,9999,9999,2030302276
437,21,Ticks_Linear_5,90,9999,9999,9999,2030962756
437,21,Ticks_Linear_5,91,9999,9999,9999,2031622216
437,21,Ticks_Linear_5,92,9999,9999,9999,2032282712
437,21,Ticks_Linear_5,93,9999,9999,9999,2032942156
437,21,Ticks_Linear_5,94,9999,9999,9999,2033602640
437,21,Ticks_Linear_5,95,9999,9999,9999,2034272368
437,21,Ticks_Linear_5,96,9999,9999,9999,2034943040
437,21,Ticks_Linear_5,97,9999,9999,9999,2035612736
437,21,Ticks_Linear_5,98,9999,9999,9999,2036282452
437,21,Ticks_Linear_5,99,9999,9999,9999,2036952172
437,21,Ticks_Linear_5,100,9999,9999,9999,2037632068
437,21,Ticks_Linear_5,101,9999,9999,9999,2038313076
437,21,Ticks_Linear_5,102,9999,9999,9999,2038992996
437,21,Ticks_Linear_5,103,9999,9999,9999,2039672952
437,21,Ticks_Linear_5,104,9999,9999,9999,2040352856
437,21,Ticks_Linear_5,105,9999,9999,9999,2041043020
437,21,Ticks_Linear_5,106,9999,9999,9999,2041732188
437,21,Ticks_Linear_5,107,9999,9999,9999,2042422336
437,21,Ticks_Linear_5,108,9999,9999,9999,2043112512
437,21,Ticks_Linear_5,109,9999,9999,9999,2043802724
437,21,Ticks_Linear_5,110,9999,9999,9999,2044502084
437,21,Ticks_Linear_5,111,9999,9999,9999,2045202524
437,21,Ticks_Linear_5,112,9999,9999,9999,2045902944
437,21,Ticks_Linear_5,113,9999,9999,9999,2046602352
437,21,Ticks_Linear_5,114,9999,9999,9999,2047302776
437,21,Ticks_Linear_5,115,9999,9999,9999,2048012412
437,21,Ticks_Linear_5,116,9999,9999,9999,2048723016
437,21,Ticks_Linear_5,117,9999,9999,9999,2049432700
437,21,Ticks_Linear_5,118,9999,9999,9999,2050142284
437,21,Ticks_Linear_5,119,9999,9999,9999,2050852964
437,21,Ticks_Linear_5,120,9999,9999,9999,2051572856
437,21,Ticks_Linear_5,121,9999,9999,9999,2052292720
437,21,Ticks_Linear_5,122,9999,9999,9999,2053012596
437,21,Ticks_Linear_5,123,9999,9999,9999,2053732412
437,21,Ticks_Linear_5,124,9999,9999,9999,2054452320
437,21,Ticks_Linear_5,125,9999,9999,9999,2055182400
437,21,Ticks_Linear_5,126,9999,9999,9999,2055912536
437,21,Ticks_Linear_5,127,9999,9999,9999,2056642664
437,21,Ticks_Linear_5,128,9999,9999,9999,2057372792
437,21,Ticks_Linear_5,129,9999,9999,9999,2058102872
437,21,Ticks_Linear_5,130,9999,9999,9999,2058842236
437,21,Ticks_Linear_5,131,9999,9999,9999,2059582572
437,21,Ticks_Linear_5,132,9999,9999,9999,2060322932
437,21,Ticks_Linear_5,133,9999,9999,9999,2061062216
437,21,Ticks_Linear_5,134,9999,9999,9999,2061802552
437,21,Ticks_Linear_5,135,9999,9999,9999,2062552176
437,21,Ticks_Linear_5,136,9999,9999,9999,2063302772
437,21,Ticks_Linear_5,137,9999,9999,9999,2064052296
437,21,Ticks_Linear_5,138,9999,9999,9999,2064802880
437,21,Ticks_Linear_5,139,9999,9999,9999,2065552504
437,21,Ticks_Linear_5,140,9999,9999,9999,2066312256
437,21,Ticks_Linear_5,141,9999,9999,9999,2067072064
437,21,Ticks_Linear_5,142,9999,9999,9999,2067832900
437,21,Ticks_Linear_5,143,9999,9999,9999,2068592712
437,21,Ticks_Linear_5,144,9999,9999,9999,2069352532
437,21,Ticks_Linear_5,145,9999,9999,9999,2070122588
437,21,Ticks_Linear_5,146,9999,9999,9999,2070892668
437,21,Ticks_Linear_5,147,9999,9999,9999,2071662716
437,21,Ticks_Linear_5,148,9999,9999,9999,2072432708
437,21,Ticks_Linear_5,149,9999,9999,9999,2073202772
437,21,Ticks_Linear_5,150,9999,9999,9999,2073983100
437,21,Ticks_Linear_5,151,9999,9999,9999,2074762308
437,21,Ticks_Linear_5,152,9999,9999,9999,2075542632
437,21,Ticks_Linear_5,153,9999,9999,9999,2076322892
437,21,Ticks_Linear_5,154,9999,9999,9999,2077102164
437,21,Ticks_Linear_5,155,9999,9999,9999,2077892688
437,21,Ticks_Linear_5,156,9999,9999,9999,2078682228
437,21,Ticks_Linear_5,157,9999,9999,9999,2079472740
437,21,Ticks_Linear_5,158,9999,9999,9999,2080262220
437,21,Ticks_Linear_5,159,9999,9999,9999,2081052732
437,21,Ticks_Linear_5,160,9999,9999,9999,2081852512
437,21,Ticks_Linear_5,161,9999,9999,9999,2082652236
437,21,Ticks_Linear_5,162,9999,9999,9999,2083453008
437,21,Ticks_Linear_5,163,9999,9999,9999,2084252752
437,21,Ticks_Linear_5,164,9999,9999,9999,2085052468
437,21,Ticks_Linear_5,165,9999,9999,9999,2085862476
437,21,Ticks_Linear_5,166,9999,9999,9999,2086672460
437,21,Ticks_Linear_5,167,9999,9999,9999,2087482444
437,21,Ticks_Linear_5,168,9999,9999,9999,2088292424
437,21,Ticks_Linear_5,169,9999,9999,9999,2089102416
438,20,Ticks_Linear_8,0,5,42,127,2102307056
438,20,Ticks_Linear_8,1,5,42,127,2103127320
438,20,Ticks_Linear_8,2,5,42,127,2103946756
438,20,Ticks_Linear_8,3,1,48,45,2103981252
438,20,Ticks_Linear_8,4,1,48,46,2104749052
438,20,Ticks_Linear_8,5,5,42,127,2104766696
438,20,Ticks_Linear_8,6,1,48,43,2105534388
438,20,Ticks_Linear_8,7,5,42,127,2105587188
438,20,Ticks_Linear_8,8,1,48,38,2106288368
438,20,Ticks_Linear_8,9,5,42,127,2106397080
438,20,Ticks_Linear_8,10,1,48,38,2107110728
438,20,Ticks_Linear_8,11,5,42,127,2107206988
438,20,Ticks_Linear_8,12,1,48,33,2107917944
438,20,Ticks_Linear_8,13,5,42,127,2108016896
438,20,Ticks_Linear_8,14,1,48,33,2108707704
438,20,Ticks_Linear_8,15,5,42,127,2108826876
438,20,Ticks_Linear_8,16,1,48,30,2109520908
438,20,Ticks_Linear_8,17,5,42,127,2109637112
438,20,Ticks_Linear_8,18,1,48,29,2110356656
438,20,Ticks_Linear_8,19,5,42,127,2110436700
438,20,Ticks_Linear_8,20,1,48,30,2111136680
438,20,Ticks_Linear_8,21,5,42,127,2111236632
438,20,Ticks_Linear_8,22,1,48,34,2111919404
438,20,Ticks_Linear_8,23,5,42,127,2112037252
438,20,Ticks_Linear_8,24,1,48,40,2112742884
438,20,Ticks_Linear_8,25,5,42,127,2112837648
438,20,Ticks_Linear_8,26,1,48,43,2113558568
438,20,Ticks_Linear_8,27,5,42,127,2113636716
438,20,Ticks_Linear_8,28,1,48,41,2114339564
438,20,Ticks_Linear_8,29,5,42,127,2114427376
438,20,Ticks_Linear_8,30,1,48,42,2115170444
438,20,Ticks_Linear_8,31,5,42,127,2115216768
438,20,Ticks_Linear_8,32,1,48,36,2115939764
438,20,Ticks_Linear_8,33,5,42,127,2116007428
438,20,Ticks_Linear_8,34,1,48,37,2116740360
438,20,Ticks_Linear_8,35,5,42,127,2116796796
438,20,Ticks_Linear_8,36,1,48,35,2117487892
438,20,Ticks_Linear_8,37,5,42,127,2117587764
438,20,Ticks_Linear_8,38,1,48,40,2118266792
438,20,Ticks_Linear_8,39,5,42,127,2118366520
438,20,Ticks_Linear_8,40,1,48,44,2119104644
438,20,Ticks_Linear_8,41,5,42,127,2119146864
438,20,Ticks_Linear_8,42,1,48,45,2119903776
438,20,Ticks_Linear_8,43,5,42,127,2119927340
438,20,Ticks_Linear_8,44,1,48,43,2120643740
438,20,Ticks_Linear_8,45,5,42,127,2120706544
438,20,Ticks_Linear_8,46,5,42,127,2121486656
438,20,Ticks_Linear_8,47,1,48,35,2121514700
438,20,Ticks_Linear_8,48,1,48,37,2122148216
438,20,Ticks_Linear_8,49,5,42,127,2122256628
438,20,Ticks_Linear_8,50,5,42,127,2123026792
438,20,Ticks_Linear_8,51,1,48,42,2123046388
438,20,Ticks_Linear_8,52,5,42,127,2123796860
438,20,Ticks_Linear_8,53,1,48,37,2123816232
438,20,Ticks_Linear_8,54,5,42,127,2124566852
438,20,Ticks_Linear_8,55,1,48,39,2124602396
438,20,Ticks_Linear_8,56,1,48,41,2125307968
438,20,Ticks_Linear_8,57,5,42,127,2125337136
438,20,Ticks_Linear_8,58,1,48,30,2126033544
438,20,Ticks_Linear_8,59,5,42,127,2126096800
438,20,Ticks_Linear_8,60,1,48,27,2126817024
438,20,Ticks_Linear_8,61,5,42,127,2126856532
438,20,Ticks_Linear_8,62,1,48,38,2127565228
438,20,Ticks_Linear_8,63,5,42,127,2127617388
438,20,Ticks_Linear_8,64,1,48,41,2128323604
438,20,Ticks_Linear_8,65,5,42,127,2128377344
438,20,Ticks_Linear_8,66,1,48,36,2129101536
438,20,Ticks_Linear_8,67,5,42,127,2129137156
438,20,Ticks_Linear_8,68,1,48,50,2129822676
438,20,Ticks_Linear_8,69,5,42,127,2129886556
438,20,Ticks_Linear_8,70,1,48,40,2130569160
438,20,Ticks_Linear_8,71,5,42,127,2130637300
438,20,Ticks_Linear_8,72,1,48,35,2131377648
438,20,Ticks_Linear_8,73,5,42,127,2131386676
438,20,Ticks_Linear_8,74,1,48,37,2132104120
438,20,Ticks_Linear_8,75,5,42,127,2132137348
438,20,Ticks_Linear_8,76,1,48,27,2132791216
438,20,Ticks_Linear_8,77,5,42,127,2132887048
438,20,Ticks_Linear_8,78,1,48,29,2133597164
438,20,Ticks_Linear_8,79,5,42,127,2133627236
438,20,Ticks_Linear_8,80,1,48,39,2134331132
438,20,Ticks_Linear_8,81,5,42,127,2134366676
438,20,Ticks_Linear_8,82,5,42,127,2135106948
438,20,Ticks_Linear_8,83,1,48,32,2135118752
438,20,Ticks_Linear_8,84,5,42,127,2135847356
438,20,Ticks_Linear_8,85,1,48,35,2135866880
438,20,Ticks_Linear_8,86,5,42,127,2136586648
438,20,Ticks_Linear_8,87,1,48,28,2136609840
438,20,Ticks_Linear_8,88,5,42,127,2137316728
438,20,Ticks_Linear_8,89,1,48,43,2137381696
438,20,Ticks_Linear_8,90,5,42,127,2138046856
438,20,Ticks_Linear_8,91,1,48,38,2138077412
438,20,Ticks_Linear_8,92,5,42,127,2138777080
438,20,Ticks_Linear_8,93,1,48,30,2138853008
438,20,Ticks_Linear_8,94,5,42,127,2139507008
438,20,Ticks_Linear_8,95,1,48,29,2139605788
438,20,Ticks_Linear_8,96,5,42,127,2140237164
438,20,Ticks_Linear_8,97,1,48,32,2140263716
438,20,Ticks_Linear_8,98,1,48,32,2140903304
438,20,Ticks_Linear_8,99,5,42,127,2140957048
438,20,Ticks_Linear_8,100,1,48,39,2141634280
438,20,Ticks_Linear_8,101,5,42,127,2141677020
438,20,Ticks_Linear_8,102,1,48,29,2142312068
438,20,Ticks_Linear_8,103,5,42,127,2142396736
438,20,Ticks_Linear_8,104,1,48,35,2143101308
438,20,Ticks_Linear_8,105,5,42,127,2143116704
438,20,Ticks_Linear_8,106,5,42,127,2143836980
438,20,Ticks_Linear_8,107,1,48,35,2143940096
438,20,Ticks_Linear_8,108,1,48,30,2144531512
438,20,Ticks_Linear_8,109,5,42,127,2144547056
438,20,Ticks_Linear_8,110,1,48,35,2145153944
438,20,Ticks_Linear_8,111,5,42,127,2145256752
438,20,Ticks_Linear_8,112,1,48,29,2145832652
438,20,Ticks_Linear_8,113,5,42,127,2145966584
438,20,Ticks_Linear_8,114,5,42,127,2146676988
438,20,Ticks_Linear_8,115,1,48,33,2146686252
438,20,Ticks_Linear_8,116,5,42,127,2147386772
438,20,Ticks_Linear_8,117,1,48,33,2147468748
438,20,Ticks_Linear_8,118,5,42,127,2148087120
438,20,Ticks_Linear_8,119,1,48,26,2148157568
438,20,Ticks_Linear_8,120,1,48,20,2148746584
438,20,Ticks_Linear_8,121,5,42,127,2148786688
438,20,Ticks_Linear_8,122,1,48,32,2149411352
438,20,Ticks_Linear_8,123,5,42,127,2149486960
438,20,Ticks_Linear_8,124,1,48,32,2150169220
438,20,Ticks_Linear_8,125,5,42,127,2150187532
438,20,Ticks_Linear_8,126,5,42,127,2150886692
438,20,Ticks_Linear_8,127,1,48,17,2151037416
438,20,Ticks_Linear_8,128,5,42,127,2151576828
438,20,Ticks_Linear_8,129,1,48,32,2151670360
438,20,Ticks_Linear_8,130,5,42,127,2152267068
438,20,Ticks_Linear_8,131,1,48,40,2152401632
438,20,Ticks_Linear_8,132,5,42,127,2152957452
438,20,Ticks_Linear_8,133,1,48,43,2153028796
438,20,Ticks_Linear_8,134,5,42,127,2153646692
438,20,Ticks_Linear_8,135,1,48,42,2153707356
438,20,Ticks_Linear_8,136,1,48,36,2154317492
438,20,Ticks_Linear_8,137,5,42,127,2154336704
438,20,Ticks_Linear_8,138,5,42,127,2155016540
438,20,Ticks_Linear_8,139,1,48,28,2155028796
438,20,Ticks_Linear_8,140,5,42,127,2155696496
438,20,Ticks_Linear_8,141,1,48,37,2155717536
438,20,Ticks_Linear_8,142,5,42,127,2156376472
438,20,Ticks_Linear_8,143,1,48,40,2156409468
438,20,Ticks_Linear_8,144,5,42,127,2157057496
438,20,Ticks_Linear_8,145,1,48,38,2157072744
438,20,Ticks_Linear_8,146,5,42,127,2157737452
438,20,Ticks_Linear_8,147,1,48,29,2157766960
438,20,Ticks_Linear_8,148,5,42,127,2158407020
438,20,Ticks_Linear_8,149,1,48,48,2158443536
438,20,Ticks_Linear_8,150,5,42,127,2159076668
438,20,Ticks_Linear_8,151,1,48,47,2159110036
438,20,Ticks_Linear_8,152,1,48,50,2159745980
438,20,Ticks_Linear_8,153,5,42,127,2159747700
438,20,Ticks_Linear_8,154,5,42,127,2160417128
438,20,Ticks_Linear_8,155,1,48,38,2160440012
438,20,Ticks_Linear_8,156,5,42,127,2161086748
438,20,Ticks_Linear_8,157,1,48,34,2161158464
438,20,Ticks_Linear_8,158,1,48,44,2161733844
438,20,Ticks_Linear_8,159,5,42,127,2161747296
438,20,Ticks_Linear_8,160,1,48,41,2162402960
438,20,Ticks_Linear_8,161,5,42,127,2162406680
438,20,Ticks_Linear_8,162,1,48,44,2163054848
438,20,Ticks_Linear_8,163,5,42,127,2163067388
438,20,Ticks_Linear_8,164,5,42,127,2163726708
438,20,Ticks_Linear_8,165,1,48,31,2163766672
438,20,Ticks_Linear_8,166,5,42,127,2164387408
438,20,Ticks_Linear_8,167,1,48,35,2164445824
438,20,Ticks_Linear_8,168,5,42,127,2165037584
438,20,Ticks_Linear_8,169,1,48,41,2165129968
438,20,Ticks_Linear_8,170,5,42,127,2165696972
438,20,Ticks_Linear_8,171,1,48,44,2165700536
438,20,Ticks_Linear_8,172,1,48,47,2166326780
438,20,Ticks_Linear_8,173,5,42,127,2166347336
438,20,Ticks_Linear_8,174,1,48,34,2166957828
438,20,Ticks_Linear_8,175,5,42,127,2166997360
438,20,Ticks_Linear_8,176,1,48,43,2167610096
438,20,Ticks_Linear_8,177,5,42,127,2167646540
438,20,Ticks_Linear_8,178,5,42,127,2168286536
438,20,Ticks_Linear_8,179,1,48,43,2168287724
438,20,Ticks_Linear_8,180,5,42,127,2168926572
438,20,Ticks_Linear_8,181,1,48,49,2168931488
438,20,Ticks_Linear_8,182,5,42,127,2169566488
438,20,Ticks_Linear_8,183,1,48,45,2169578144
438,20,Ticks_Linear_8,184,1,48,45,2170182208
438,20,Ticks_Linear_8,185,5,42,127,2170206444
438,20,Ticks_Linear_8,186,1,48,38,2170790420
438,20,Ticks_Linear_8,187,5,42,127,2170846508
438,20,Ticks_Linear_8,188,1,48,47,2171409744
438,20,Ticks_Linear_8,189,5,42,127,2171477260
438,20,Ticks_Linear_8,190,1,48,47,2172051728
438,20,Ticks_Linear_8,191,5,42,127,2172107212
438,20,Ticks_Linear_8,192,1,48,51,2172663552
438,20,Ticks_Linear_8,193,5,42,127,2172737068
438,20,Ticks_Linear_8,194,1,48,51,2173325992
438,20,Ticks_Linear_8,195,5,42,127,2173366772
438,20,Ticks_Linear_8,196,1,48,44,2173979232
438,20,Ticks_Linear_8,197,5,42,127,2173997324
438,20,Ticks_Linear_8,198,1,48,53,2174581152
438,20,Ticks_Linear_8,199,5,42,127,2174627104
438,20,Ticks_Linear_8,200,1,48,50,2175198532
438,20,Ticks_Linear_8,201,5,42,127,2175246796
438,20,Ticks_Linear_8,202,1,48,50,2175833096
438,20,Ticks_Linear_8,203,5,42,127,2175867140
438,20,Ticks_Linear_8,204,5,42,127,2176486916
438,20,Ticks_Linear_8,205,1,48,48,2176525308
438,20,Ticks_Linear_8,206,5,42,127,2177107260
438,20,Ticks_Linear_8,207,1,48,52,2177152460
438,20,Ticks_Linear_8,208,5,42,127,2177716596
438,20,Ticks_Linear_8,209,1,48,41,2177746328
438,20,Ticks_Linear_8,210,5,42,127,2178327076
438,20,Ticks_Linear_8,211,1,48,43,2178388312
438,20,Ticks_Linear_8,212,5,42,127,2178937164
438,20,Ticks_Linear_8,213,1,48,41,2178940652
438,20,Ticks_Linear_8,214,1,48,44,2179511548
438,20,Ticks_Linear_8,215,5,42,127,2179546512
438,20,Ticks_Linear_8,216,1,48,47,2180116044
438,20,Ticks_Linear_8,217,5,42,127,2180157044
438,20,Ticks_Linear_8,218,1,48,47,2180724392
438,20,Ticks_Linear_8,219,5,42,127,2180756872
438,20,Ticks_Linear_8,220,1,48,38,2181322524
438,20,Ticks_Linear_8,221,5,42,127,2181356872
438,20,Ticks_Linear_8,222,1,48,43,2181941744
438,20,Ticks_Linear_8,223,5,42,127,2181957068
438,20,Ticks_Linear_8,224,1,48,46,2182544800
438,20,Ticks_Linear_8,225,5,42,127,2182557116
438,20,Ticks_Linear_8,226,1,48,44,2183123740
438,20,Ticks_Linear_8,227,5,42,127,2183156968
438,20,Ticks_Linear_8,228,5,42,127,2183746912
438,20,Ticks_Linear_8,229,1,48,43,2183751152
438,20,Ticks_Linear_8,230,1,48,46,2184316508
438,20,Ticks_Linear_8,231,5,42,127,2184336920
438,20,Ticks_Linear_8,232,1,48,43,2184897788
438,20,Ticks_Linear_8,233,5,42,127,2184926808
438,20,Ticks_Linear_8,234,1,48,47,2185483452
438,20,Ticks_Linear_8,235,5,42,127,2185517348
438,20,Ticks_Linear_8,236,1,48,47,2186107024
438,20,Ticks_Linear_8,237,5,42,127,2186116352
438,20,Ticks_Linear_8,238,1,48,47,2186683024
438,20,Ticks_Linear_8,239,5,42,127,2186697100
438,20,Ticks_Linear_8,240,1,48,43,2187238920
438,20,Ticks_Linear_8,241,5,42,127,2187276852
438,20,Ticks_Linear_8,242,1,48,51,2187807592
438,20,Ticks_Linear_8,243,5,42,127,2187857280
438,20,Ticks_Linear_8,244,1,48,48,2188374392
438,20,Ticks_Linear_8,245,5,42,127,2188436960
438,20,Ticks_Linear_8,246,1,48,53,2188937376
438,20,Ticks_Linear_8,247,5,42,127,2189016444
438,20,Ticks_Linear_8,248,1,48,49,2189499748
438,20,Ticks_Linear_8,249,5,42,127,2189586984
438,20,Ticks_Linear_8,250,1,48,50,2190084328
438,20,Ticks_Linear_8,251,5,42,127,2190157156
438,20,Ticks_Linear_8,252,1,48,51,2190686844
438,20,Ticks_Linear_8,253,5,42,127,2190726500
438,20,Ticks_Linear_8,254,1,48,47,2191277828
438,20,Ticks_Linear_8,255,5,42,127,2191296768
438,20,Ticks_Linear_8,256,1,48,47,2191844424
438,20,Ticks_Linear_8,257,5,42,127,2191867384
438,20,Ticks_Linear_8,258,1,48,51,2192398572
438,20,Ticks_Linear_8,259,5,42,127,2192427296
438,20,Ticks_Linear_8,260,1,48,48,2192955864
438,20,Ticks_Linear_8,261,5,42,127,2192986384
438,20,Ticks_Linear_8,262,1,48,46,2193492624
438,20,Ticks_Linear_8,263,5,42,127,2193546740
438,20,Ticks_Linear_8,264,1,48,51,2194056216
438,20,Ticks_Linear_8,265,5,42,127,2194106876
438,20,Ticks_Linear_8,266,1,48,47,2194633064
438,20,Ticks_Linear_8,267,5,42,127,2194667032
438,20,Ticks_Linear_8,268,1,48,43,2195202708
438,20,Ticks_Linear_8,269,5,42,127,2195216760
438,20,Ticks_Linear_8,270,5,42,127,2195766716
438,20,Ticks_Linear_8,271,1,48,45,2195783760
438,20,Ticks_Linear_8,272,5,42,127,2196316816
438,20,Ticks_Linear_8,273,1,48,53,2196318232
438,20,Ticks_Linear_8,274,1,48,55,2196859524
438,20,Ticks_Linear_8,275,5,42,127,2196866608
438,20,Ticks_Linear_8,276,5,42,127,2197417240
438,20,Ticks_Linear_8,277,1,48,46,2197425680
438,20,Ticks_Linear_8,278,1,48,48,2197951512
438,20,Ticks_Linear_8,279,5,42,127,2197956872
438,20,Ticks_Linear_8,280,5,42,127,2198496716
438,20,Ticks_Linear_8,281,1,48,50,2198509648
438,20,Ticks_Linear_8,282,5,42,127,2199037452
438,20,Ticks_Linear_8,283,1,48,49,2199042888
438,20,Ticks_Linear_8,284,5,42,127,2199576844
438,20,Ticks_Linear_8,285,1,48,51,2199578184
438,20,Ticks_Linear_8,286,1,48,53,2200112884
438,20,Ticks_Linear_8,287,5,42,127,2200116604
438,20,Ticks_Linear_8,288,1,48,48,2200635808
438,20,Ticks_Linear_8,289,5,42,127,2200647008
438,20,Ticks_Linear_8,290,5,42,127,2201176592
438,20,Ticks_Linear_8,291,1,48,47,2201177632
438,20,Ticks_Linear_8,292,5,42,127,2201706844
438,20,Ticks_Linear_8,293,1,48,42,2201753620
438,20,Ticks_Linear_8,294,5,42,127,2202237324
438,20,Ticks_Linear_8,295,1,48,45,2202245240
438,20,Ticks_Linear_8,296,5,42,127,2202766752
438,20,Ticks_Linear_8,297,1,48,46,2202793084
438,20,Ticks_Linear_8,298,5,42,127,2203287048
438,20,Ticks_Linear_8,299,1,48,46,2203330476
438,20,Ticks_Linear_8,300,5,42,127,2203807044
438,20,Ticks_Linear_8,301,1,48,43,2203820792
438,20,Ticks_Linear_8,302,5,42,127,2204327332
438,20,Ticks_Linear_8,303,1,48,50,2204350172
438,20,Ticks_Linear_8,304,1,48,52,2204799500
438,20,Ticks_Linear_8,305,5,42,127,2204846576
438,20,Ticks_Linear_8,306,1,48,47,2205304584
438,20,Ticks_Linear_8,307,5,42,127,2205366644
438,20,Ticks_Linear_8,308,1,48,46,2205793280
438,20,Ticks_Linear_8,309,5,42,127,2205876532
438,20,Ticks_Linear_8,310,1,48,46,2206270972
438,20,Ticks_Linear_8,311,5,42,127,2206386552
438,20,Ticks_Linear_8,312,1,48,48,2206787604
438,20,Ticks_Linear_8,313,5,42,127,2206896364
438,20,Ticks_Linear_8,314,1,48,51,2207333120
438,20,Ticks_Linear_8,315,5,42,127,2207406484
438,20,Ticks_Linear_8,316,1,48,53,2207862476
438,20,Ticks_Linear_8,317,5,42,127,2207917568
438,20,Ticks_Linear_8,318,1,48,50,2208382472
438,20,Ticks_Linear_8,319,5,42,127,2208427304
438,20,Ticks_Linear_8,320,1,48,48,2208904184
438,20,Ticks_Linear_8,321,5,42,127,2208927004
438,20,Ticks_Linear_8,322,5,42,127,2209426784
438,20,Ticks_Linear_8,323,1,48,46,2209428124
438,20,Ticks_Linear_8,324,5,42,127,2209926408
438,20,Ticks_Linear_8,325,1,48,47,2209927376
438,20,Ticks_Linear_8,326,5,42,127,2210427456
438,20,Ticks_Linear_8,327,1,48,45,2210443224
438,20,Ticks_Linear_8,328,5,42,127,2210916748
438,20,Ticks_Linear_8,329,1,48,42,2210933264
438,20,Ticks_Linear_8,330,1,48,48,2211404632
438,20,Ticks_Linear_8,331,5,42,127,2211407304
438,20,Ticks_Linear_8,332,5,42,127,2211896604
438,20,Ticks_Linear_8,333,1,48,51,2211912668
438,20,Ticks_Linear_8,334,1,48,48,2212376636
438,20,Ticks_Linear_8,335,5,42,127,2212387308
438,20,Ticks_Linear_8,336,1,48,50,2212846008
438,20,Ticks_Linear_8,337,5,42,127,2212876752
438,20,Ticks_Linear_8,0,9999,9999,9999,2102304828
438,20,Ticks_Linear_8,1,9999,9999,9999,2103125092
438,20,Ticks_Linear_8,2,9999,9999,9999,2103944308
438,20,Ticks_Linear_8,3,9999,9999,9999,2104764468
438,20,Ticks_Linear_8,4,9999,9999,9999,2105584736
438,20,Ticks_Linear_8,5,9999,9999,9999,2106394704
438,20,Ticks_Linear_8,6,9999,9999,9999,2107204684
438,20,Ticks_Linear_8,7,9999,9999,9999,2108014684
438,20,Ticks_Linear_8,8,9999,9999,9999,2108824652
438,20,Ticks_Linear_8,9,9999,9999,9999,2109634660
438,20,Ticks_Linear_8,10,9999,9999,9999,2110434396
438,20,Ticks_Linear_8,11,9999,9999,9999,2111234104
438,20,Ticks_Linear_8,12,9999,9999,9999,2112034876
438,20,Ticks_Linear_8,13,9999,9999,9999,2112834616
438,20,Ticks_Linear_8,14,9999,9999,9999,2113634412
438,20,Ticks_Linear_8,15,9999,9999,9999,2114424924
438,20,Ticks_Linear_8,16,9999,9999,9999,2115214392
438,20,Ticks_Linear_8,17,9999,9999,9999,2116004976
438,20,Ticks_Linear_8,18,9999,9999,9999,2116794492
438,20,Ticks_Linear_8,19,9999,9999,9999,2117584956
438,20,Ticks_Linear_8,20,9999,9999,9999,2118364220
438,20,Ticks_Linear_8,21,9999,9999,9999,2119144564
438,20,Ticks_Linear_8,22,9999,9999,9999,2119924816
438,20,Ticks_Linear_8,23,9999,9999,9999,2120704096
438,20,Ticks_Linear_8,24,9999,9999,9999,2121484352
438,20,Ticks_Linear_8,25,9999,9999,9999,2122254400
438,20,Ticks_Linear_8,26,9999,9999,9999,2123024492
438,20,Ticks_Linear_8,27,9999,9999,9999,2123794560
438,20,Ticks_Linear_8,28,9999,9999,9999,2124564552
438,20,Ticks_Linear_8,29,9999,9999,9999,2125334612
438,20,Ticks_Linear_8,30,9999,9999,9999,2126094424
438,20,Ticks_Linear_8,31,9999,9999,9999,2126854232
438,20,Ticks_Linear_8,32,9999,9999,9999,2127615088
438,20,Ticks_Linear_8,33,9999,9999,9999,2128374896
438,20,Ticks_Linear_8,34,9999,9999,9999,2129134704
438,20,Ticks_Linear_8,35,9999,9999,9999,2129884252
438,20,Ticks_Linear_8,36,9999,9999,9999,2130634852
438,20,Ticks_Linear_8,37,9999,9999,9999,2131384376
438,20,Ticks_Linear_8,38,9999,9999,9999,2132134972
438,20,Ticks_Linear_8,39,9999,9999,9999,2132884596
438,20,Ticks_Linear_8,40,9999,9999,9999,2133624936
438,20,Ticks_Linear_8,41,9999,9999,9999,2134364224
438,20,Ticks_Linear_8,42,9999,9999,9999,2135104572
438,20,Ticks_Linear_8,43,9999,9999,9999,2135844984
438,20,Ticks_Linear_8,44,9999,9999,9999,2136584272
438,20,Ticks_Linear_8,45,9999,9999,9999,2137314428
438,20,Ticks_Linear_8,46,9999,9999,9999,2138044480
438,20,Ticks_Linear_8,47,9999,9999,9999,2138774632
438,20,Ticks_Linear_8,48,9999,9999,9999,2139504708
438,20,Ticks_Linear_8,49,9999,9999,9999,2140234860
438,20,Ticks_Linear_8,50,9999,9999,9999,2140954748
438,20,Ticks_Linear_8,51,9999,9999,9999,2141674568
438,20,Ticks_Linear_8,52,9999,9999,9999,2142394436
438,20,Ticks_Linear_8,53,9999,9999,9999,2143114332
438,20,Ticks_Linear_8,54,9999,9999,9999,2143834228
438,20,Ticks_Linear_8,55,9999,9999,9999,2144544832
438,20,Ticks_Linear_8,56,9999,9999,9999,2145254524
438,20,Ticks_Linear_8,57,9999,9999,9999,2145964132
438,20,Ticks_Linear_8,58,9999,9999,9999,2146674764
438,20,Ticks_Linear_8,59,9999,9999,9999,2147384396
438,20,Ticks_Linear_8,60,9999,9999,9999,2148084820
438,20,Ticks_Linear_8,61,9999,9999,9999,2148784236
438,20,Ticks_Linear_8,62,9999,9999,9999,2149484660
438,20,Ticks_Linear_8,63,9999,9999,9999,2150185084
438,20,Ticks_Linear_8,64,9999,9999,9999,2150884464
438,20,Ticks_Linear_8,65,9999,9999,9999,2151574604
438,20,Ticks_Linear_8,66,9999,9999,9999,2152264764
438,20,Ticks_Linear_8,67,9999,9999,9999,2152955004
438,20,Ticks_Linear_8,68,9999,9999,9999,2153644096
438,20,Ticks_Linear_8,69,9999,9999,9999,2154334328
438,20,Ticks_Linear_8,70,9999,9999,9999,2155014240
438,20,Ticks_Linear_8,71,9999,9999,9999,2155694192
438,20,Ticks_Linear_8,72,9999,9999,9999,2156374096
438,20,Ticks_Linear_8,73,9999,9999,9999,2157055048
438,20,Ticks_Linear_8,74,9999,9999,9999,2157735000
438,20,Ticks_Linear_8,75,9999,9999,9999,2158404720
438,20,Ticks_Linear_8,76,9999,9999,9999,2159074364
438,20,Ticks_Linear_8,77,9999,9999,9999,2159744060
438,20,Ticks_Linear_8,78,9999,9999,9999,2160414824
438,20,Ticks_Linear_8,79,9999,9999,9999,2161084520
438,20,Ticks_Linear_8,80,9999,9999,9999,2161744996
438,20,Ticks_Linear_8,81,9999,9999,9999,2162404456
438,20,Ticks_Linear_8,82,9999,9999,9999,2163064936
438,20,Ticks_Linear_8,83,9999,9999,9999,2163724404
438,20,Ticks_Linear_8,84,9999,9999,9999,2164384884
438,20,Ticks_Linear_8,85,9999,9999,9999,2165035132
438,20,Ticks_Linear_8,86,9999,9999,9999,2165694520
438,20,Ticks_Linear_8,87,9999,9999,9999,2166344812
438,20,Ticks_Linear_8,88,9999,9999,9999,2166995060
438,20,Ticks_Linear_8,89,9999,9999,9999,2167644236
438,20,Ticks_Linear_8,90,9999,9999,9999,2168284232
438,20,Ticks_Linear_8,91,9999,9999,9999,2168924272
438,20,Ticks_Linear_8,92,9999,9999,9999,2169564260
438,20,Ticks_Linear_8,93,9999,9999,9999,2170204220
438,20,Ticks_Linear_8,94,9999,9999,9999,2170844280
438,20,Ticks_Linear_8,95,9999,9999,9999,2171475032
438,20,Ticks_Linear_8,96,9999,9999,9999,2172104764
438,20,Ticks_Linear_8,97,9999,9999,9999,2172734544
438,20,Ticks_Linear_8,98,9999,9999,9999,2173364320
438,20,Ticks_Linear_8,99,9999,9999,9999,2173995096
438,20,Ticks_Linear_8,100,9999,9999,9999,2174624876
438,20,Ticks_Linear_8,101,9999,9999,9999,2175244348
438,20,Ticks_Linear_8,102,9999,9999,9999,2175864916
438,20,Ticks_Linear_8,103,9999,9999,9999,2176484464
438,20,Ticks_Linear_8,104,9999,9999,9999,2177104960
438,20,Ticks_Linear_8,105,9999,9999,9999,2177714296
438,20,Ticks_Linear_8,106,9999,9999,9999,2178324552
438,20,Ticks_Linear_8,107,9999,9999,9999,2178934860
438,20,Ticks_Linear_8,108,9999,9999,9999,2179544136
438,20,Ticks_Linear_8,109,9999,9999,9999,2180154448
438,20,Ticks_Linear_8,110,9999,9999,9999,2180754496
438,20,Ticks_Linear_8,111,9999,9999,9999,2181354568
438,20,Ticks_Linear_8,112,9999,9999,9999,2181954616
438,20,Ticks_Linear_8,113,9999,9999,9999,2182554744
438,20,Ticks_Linear_8,114,9999,9999,9999,2183154740
438,20,Ticks_Linear_8,115,9999,9999,9999,2183744612
438,20,Ticks_Linear_8,116,9999,9999,9999,2184334396
438,20,Ticks_Linear_8,117,9999,9999,9999,2184924284
438,20,Ticks_Linear_8,118,9999,9999,9999,2185515120
438,20,Ticks_Linear_8,119,9999,9999,9999,2186114124
438,20,Ticks_Linear_8,120,9999,9999,9999,2186694724
438,20,Ticks_Linear_8,121,9999,9999,9999,2187274328
438,20,Ticks_Linear_8,122,9999,9999,9999,2187854908
438,20,Ticks_Linear_8,123,9999,9999,9999,2188434512
438,20,Ticks_Linear_8,124,9999,9999,9999,2189014140
438,20,Ticks_Linear_8,125,9999,9999,9999,2189584460
438,20,Ticks_Linear_8,126,9999,9999,9999,2190154852
438,20,Ticks_Linear_8,127,9999,9999,9999,2190724200
438,20,Ticks_Linear_8,128,9999,9999,9999,2191294540
438,20,Ticks_Linear_8,129,9999,9999,9999,2191864936
438,20,Ticks_Linear_8,130,9999,9999,9999,2192425068
438,20,Ticks_Linear_8,131,9999,9999,9999,2192984156
438,20,Ticks_Linear_8,132,9999,9999,9999,2193544292
438,20,Ticks_Linear_8,133,9999,9999,9999,2194104428
438,20,Ticks_Linear_8,134,9999,9999,9999,2194664508
438,20,Ticks_Linear_8,135,9999,9999,9999,2195214460
438,20,Ticks_Linear_8,136,9999,9999,9999,2195764340
438,20,Ticks_Linear_8,137,9999,9999,9999,2196314216
438,20,Ticks_Linear_8,138,9999,9999,9999,2196864084
438,20,Ticks_Linear_8,139,9999,9999,9999,2197415012
438,20,Ticks_Linear_8,140,9999,9999,9999,2197954644
438,20,Ticks_Linear_8,141,9999,9999,9999,2198494268
438,20,Ticks_Linear_8,142,9999,9999,9999,2199035004
438,20,Ticks_Linear_8,143,9999,9999,9999,2199574620
438,20,Ticks_Linear_8,144,9999,9999,9999,2200114300
438,20,Ticks_Linear_8,145,9999,9999,9999,2200644704
438,20,Ticks_Linear_8,146,9999,9999,9999,2201174140
438,20,Ticks_Linear_8,147,9999,9999,9999,2201704544
438,20,Ticks_Linear_8,148,9999,9999,9999,2202234948
438,20,Ticks_Linear_8,149,9999,9999,9999,2202764376
438,20,Ticks_Linear_8,150,9999,9999,9999,2203284596
438,20,Ticks_Linear_8,151,9999,9999,9999,2203804740
438,20,Ticks_Linear_8,152,9999,9999,9999,2204324956
438,20,Ticks_Linear_8,153,9999,9999,9999,2204844124
438,20,Ticks_Linear_8,154,9999,9999,9999,2205364344
438,20,Ticks_Linear_8,155,9999,9999,9999,2205874232
438,20,Ticks_Linear_8,156,9999,9999,9999,2206384252
438,20,Ticks_Linear_8,157,9999,9999,9999,2206894136
438,20,Ticks_Linear_8,158,9999,9999,9999,2207404108
438,20,Ticks_Linear_8,159,9999,9999,9999,2207915116
438,20,Ticks_Linear_8,160,9999,9999,9999,2208425076
438,20,Ticks_Linear_8,161,9999,9999,9999,2208924776
438,20,Ticks_Linear_8,162,9999,9999,9999,2209424484
438,20,Ticks_Linear_8,163,9999,9999,9999,2209924184
438,20,Ticks_Linear_8,164,9999,9999,9999,2210424928
438,20,Ticks_Linear_8,165,9999,9999,9999,2210914372
438,20,Ticks_Linear_8,166,9999,9999,9999,2211404852
438,20,Ticks_Linear_8,167,9999,9999,9999,2211894376
438,20,Ticks_Linear_8,168,9999,9999,9999,2212384856
438,20,Ticks_Linear_8,169,9999,9999,9999,2212874300
439,10,Ticks_ISO_T2_5,0,5,42,127,2224059096
439,10,Ticks_ISO_T2_5,1,5,42,127,2224558416
439,10,Ticks_ISO_T2_5,2,1,48,24,2224743840
439,10,Ticks_ISO_T2_5,3,5,42,127,2225059156
439,10,Ticks_ISO_T2_5,4,1,48,17,2225161408
439,10,Ticks_ISO_T2_5,5,5,42,127,2225559152
439,10,Ticks_ISO_T2_5,6,1,48,38,2226052468
439,10,Ticks_ISO_T2_5,7,5,42,127,2226058564
439,10,Ticks_ISO_T2_5,8,1,48,43,2226546856
439,10,Ticks_ISO_T2_5,9,5,42,127,2226559232
439,10,Ticks_ISO_T2_5,10,1,48,43,2226980800
439,10,Ticks_ISO_T2_5,11,5,42,127,2227059000
439,10,Ticks_ISO_T2_5,12,1,48,50,2227511236
439,10,Ticks_ISO_T2_5,13,5,42,127,2227558992
439,10,Ticks_ISO_T2_5,14,1,48,49,2228000236
439,10,Ticks_ISO_T2_5,15,5,42,127,2228058464
439,10,Ticks_ISO_T2_5,16,1,48,47,2228469712
439,10,Ticks_ISO_T2_5,17,5,42,127,2228559132
439,10,Ticks_ISO_T2_5,18,1,48,45,2228977188
439,10,Ticks_ISO_T2_5,19,5,42,127,2229059048
439,10,Ticks_ISO_T2_5,20,1,48,44,2229474788
439,10,Ticks_ISO_T2_5,21,5,42,127,2229558744
439,10,Ticks_ISO_T2_5,22,1,48,37,2229980316
439,10,Ticks_ISO_T2_5,23,5,42,127,2230059412
439,10,Ticks_ISO_T2_5,24,1,48,39,2230496016
439,10,Ticks_ISO_T2_5,25,5,42,127,2230559032
439,10,Ticks_ISO_T2_5,26,1,48,45,2231025332
439,10,Ticks_ISO_T2_5,27,5,42,127,2231058876
439,10,Ticks_ISO_T2_5,28,1,48,42,2231549856
439,10,Ticks_ISO_T2_5,29,5,42,127,2231558420
439,10,Ticks_ISO_T2_5,30,1,48,44,2232031528
439,10,Ticks_ISO_T2_5,31,5,42,127,2232059236
439,10,Ticks_ISO_T2_5,32,1,48,42,2232509756
439,10,Ticks_ISO_T2_5,33,5,42,127,2232558932
439,10,Ticks_ISO_T2_5,34,1,48,39,2233002392
439,10,Ticks_ISO_T2_5,35,5,42,127,2233058772
439,10,Ticks_ISO_T2_5,36,1,48,44,2233486228
439,10,Ticks_ISO_T2_5,37,5,42,127,2233559368
439,10,Ticks_ISO_T2_5,38,1,48,40,2233991908
439,10,Ticks_ISO_T2_5,39,5,42,127,2234059064
439,10,Ticks_ISO_T2_5,40,1,48,40,2234489804
439,10,Ticks_ISO_T2_5,41,5,42,127,2234558680
439,10,Ticks_ISO_T2_5,42,1,48,43,2235000348
439,10,Ticks_ISO_T2_5,43,5,42,127,2235058796
439,10,Ticks_ISO_T2_5,44,1,48,47,2235510068
439,10,Ticks_ISO_T2_5,45,5,42,127,2235559240
439,10,Ticks_ISO_T2_5,46,1,48,43,2236022252
439,10,Ticks_ISO_T2_5,47,5,42,127,2236058936
439,10,Ticks_ISO_T2_5,48,1,48,45,2236538400
439,10,Ticks_ISO_T2_5,49,5,42,127,2236558632
439,10,Ticks_ISO_T2_5,50,1,48,42,2237037124
439,10,Ticks_ISO_T2_5,51,5,42,127,2237058548
439,10,Ticks_ISO_T2_5,52,1,48,42,2237540560
439,10,Ticks_ISO_T2_5,53,5,42,127,2237559068
439,10,Ticks_ISO_T2_5,54,1,48,48,2238031424
439,10,Ticks_ISO_T2_5,55,5,42,127,2238058912
439,10,Ticks_ISO_T2_5,56,1,48,41,2238542340
439,10,Ticks_ISO_T2_5,57,5,42,127,2238558756
439,10,Ticks_ISO_T2_5,58,1,48,39,2239037100
439,10,Ticks_ISO_T2_5,59,5,42,127,2239059272
439,10,Ticks_ISO_T2_5,60,1,48,42,2239542700
439,10,Ticks_ISO_T2_5,61,5,42,127,2239559040
439,10,Ticks_ISO_T2_5,62,1,48,38,2240036116
439,10,Ticks_ISO_T2_5,63,5,42,127,2240058812
439,10,Ticks_ISO_T2_5,64,1,48,45,2240524136
439,10,Ticks_ISO_T2_5,65,5,42,127,2240558580
439,10,Ticks_ISO_T2_5,66,1,48,45,2241022712
439,10,Ticks_ISO_T2_5,67,5,42,127,2241059100
439,10,Ticks_ISO_T2_5,68,1,48,41,2241491664
439,10,Ticks_ISO_T2_5,69,5,42,127,2241559020
439,10,Ticks_ISO_T2_5,70,1,48,40,2241991736
439,10,Ticks_ISO_T2_5,71,5,42,127,2242058712
439,10,Ticks_ISO_T2_5,72,1,48,40,2242522172
439,10,Ticks_ISO_T2_5,73,5,42,127,2242559452
439,10,Ticks_ISO_T2_5,74,1,48,40,2243016480
439,10,Ticks_ISO_T2_5,75,5,42,127,2243058928
439,10,Ticks_ISO_T2_5,76,1,48,32,2243494604
439,10,Ticks_ISO_T2_5,77,5,42,127,2243558696
439,10,Ticks_ISO_T2_5,78,1,48,41,2243968056
439,10,Ticks_ISO_T2_5,79,5,42,127,2244058616
439,10,Ticks_ISO_T2_5,80,1,48,39,2244491756
439,10,Ticks_ISO_T2_5,81,5,42,127,2244559132
439,10,Ticks_ISO_T2_5,82,1,48,38,2245018152
439,10,Ticks_ISO_T2_5,83,5,42,127,2245059048
439,10,Ticks_ISO_T2_5,84,1,48,32,2245527048
439,10,Ticks_ISO_T2_5,85,5,42,127,2245558496
439,10,Ticks_ISO_T2_5,86,1,48,35,2245995172
439,10,Ticks_ISO_T2_5,87,5,42,127,2246059464
439,10,Ticks_ISO_T2_5,88,1,48,35,2246471532
439,10,Ticks_ISO_T2_5,89,5,42,127,2246559080
439,10,Ticks_ISO_T2_5,90,1,48,29,2246961728
439,10,Ticks_ISO_T2_5,91,5,42,127,2247058688
439,10,Ticks_ISO_T2_5,92,1,48,40,2247457312
439,10,Ticks_ISO_T2_5,93,5,42,127,2247558380
439,10,Ticks_ISO_T2_5,94,1,48,41,2248021404
439,10,Ticks_ISO_T2_5,95,5,42,127,2248059508
439,10,Ticks_ISO_T2_5,96,1,48,42,2248509508
439,10,Ticks_ISO_T2_5,97,5,42,127,2248558980
439,10,Ticks_ISO_T2_5,98,1,48,46,2248987432
439,10,Ticks_ISO_T2_5,99,5,42,127,2249058528
439,10,Ticks_ISO_T2_5,100,1,48,41,2249487352
439,10,Ticks_ISO_T2_5,101,5,42,127,2249559492
439,10,Ticks_ISO_T2_5,102,1,48,35,2250044264
439,10,Ticks_ISO_T2_5,103,5,42,127,2250059560
439,10,Ticks_ISO_T2_5,104,5,42,127,2250558812
439,10,Ticks_ISO_T2_5,105,1,48,36,2250560824
439,10,Ticks_ISO_T2_5,106,1,48,43,2251045080
439,10,Ticks_ISO_T2_5,107,5,42,127,2251058428
439,10,Ticks_ISO_T2_5,108,1,48,44,2251530268
439,10,Ticks_ISO_T2_5,109,5,42,127,2251559468
439,10,Ticks_ISO_T2_5,110,1,48,38,2252012680
439,10,Ticks_ISO_T2_5,111,5,42,127,2252058864
439,10,Ticks_ISO_T2_5,112,1,48,45,2252525312
439,10,Ticks_ISO_T2_5,113,5,42,127,2252558636
439,10,Ticks_ISO_T2_5,114,1,48,44,2253003916
439,10,Ticks_ISO_T2_5,115,5,42,127,2253058404
439,10,Ticks_ISO_T2_5,116,1,48,33,2253522012
439,10,Ticks_ISO_T2_5,117,5,42,127,2253559296
439,10,Ticks_ISO_T2_5,118,1,48,40,2254022904
439,10,Ticks_ISO_T2_5,119,5,42,127,2254058768
439,10,Ticks_ISO_T2_5,120,1,48,49,2254537860
439,10,Ticks_ISO_T2_5,121,5,42,127,2254558608
439,10,Ticks_ISO_T2_5,122,5,42,127,2255059432
439,10,Ticks_ISO_T2_5,123,1,48,47,2255061368
439,10,Ticks_ISO_T2_5,124,1,48,46,2255549960
439,10,Ticks_ISO_T2_5,125,5,42,127,2255559116
439,10,Ticks_ISO_T2_5,126,1,48,45,2256034812
439,10,Ticks_ISO_T2_5,127,5,42,127,2256058736
439,10,Ticks_ISO_T2_5,128,1,48,44,2256508112
439,10,Ticks_ISO_T2_5,129,5,42,127,2256558332
439,10,Ticks_ISO_T2_5,130,1,48,40,2256999124
439,10,Ticks_ISO_T2_5,131,5,42,127,2257059296
439,10,Ticks_ISO_T2_5,132,1,48,47,2257480420
439,10,Ticks_ISO_T2_5,133,5,42,127,2257558768
439,10,Ticks_ISO_T2_5,134,1,48,48,2257992756
439,10,Ticks_ISO_T2_5,135,5,42,127,2258058540
439,10,Ticks_ISO_T2_5,136,1,48,46,2258487592
439,10,Ticks_ISO_T2_5,137,5,42,127,2258559280
439,10,Ticks_ISO_T2_5,138,1,48,48,2258980252
439,10,Ticks_ISO_T2_5,139,5,42,127,2259059048
439,10,Ticks_ISO_T2_5,140,1,48,44,2259463112
439,10,Ticks_ISO_T2_5,141,5,42,127,2259558668
439,10,Ticks_ISO_T2_5,142,1,48,45,2259966548
439,10,Ticks_ISO_T2_5,143,5,42,127,2260058364
439,10,Ticks_ISO_T2_5,144,1,48,44,2260468564
439,10,Ticks_ISO_T2_5,145,5,42,127,2260559328
439,10,Ticks_ISO_T2_5,146,1,48,43,2260972368
439,10,Ticks_ISO_T2_5,147,5,42,127,2261059168
439,10,Ticks_ISO_T2_5,148,1,48,43,2261473184
439,10,Ticks_ISO_T2_5,149,5,42,127,2261558568
439,10,Ticks_ISO_T2_5,150,1,48,36,2262002276
439,10,Ticks_ISO_T2_5,151,5,42,127,2262059308
439,10,Ticks_ISO_T2_5,152,1,48,44,2262490304
439,10,Ticks_ISO_T2_5,153,5,42,127,2262559376
439,10,Ticks_ISO_T2_5,154,1,48,35,2262986408
439,10,Ticks_ISO_T2_5,155,5,42,127,2263058696
439,10,Ticks_ISO_T2_5,156,1,48,42,2263460420
439,10,Ticks_ISO_T2_5,157,5,42,127,2263559648
439,10,Ticks_ISO_T2_5,158,1,48,49,2263938500
439,10,Ticks_ISO_T2_5,159,5,42,127,2264059192
439,10,Ticks_ISO_T2_5,160,1,48,36,2264470132
439,10,Ticks_ISO_T2_5,161,5,42,127,2264558904
439,10,Ticks_ISO_T2_5,162,1,48,38,2264981268
439,10,Ticks_ISO_T2_5,163,5,42,127,2265058672
439,10,Ticks_ISO_T2_5,164,1,48,35,2265500044
439,10,Ticks_ISO_T2_5,165,5,42,127,2265559488
439,10,Ticks_ISO_T2_5,166,1,48,35,2265970336
439,10,Ticks_ISO_T2_5,167,5,42,127,2266059184
439,10,Ticks_ISO_T2_5,168,1,48,44,2266499284
439,10,Ticks_ISO_T2_5,169,5,42,127,2266558880
439,10,Ticks_ISO_T2_5,170,1,48,50,2266991796
439,10,Ticks_ISO_T2_5,171,5,42,127,2267058400
439,10,Ticks_ISO_T2_5,172,1,48,55,2267487824
439,10,Ticks_ISO_T2_5,173,5,42,127,2267559292
439,10,Ticks_ISO_T2_5,174,1,48,48,2268020576
439,10,Ticks_ISO_T2_5,175,5,42,127,2268059060
439,10,Ticks_ISO_T2_5,176,1,48,47,2268484592
439,10,Ticks_ISO_T2_5,177,5,42,127,2268558980
439,10,Ticks_ISO_T2_5,178,1,48,53,2268995060
439,10,Ticks_ISO_T2_5,179,5,42,127,2269058300
439,10,Ticks_ISO_T2_5,180,1,48,51,2269532752
439,10,Ticks_ISO_T2_5,181,5,42,127,2269559192
439,10,Ticks_ISO_T2_5,182,1,48,48,2270054284
439,10,Ticks_ISO_T2_5,183,5,42,127,2270059036
439,10,Ticks_ISO_T2_5,184,5,42,127,2270558512
439,10,Ticks_ISO_T2_5,185,1,48,45,2270596412
439,10,Ticks_ISO_T2_5,186,1,48,51,2271053080
439,10,Ticks_ISO_T2_5,187,5,42,127,2271059172
439,10,Ticks_ISO_T2_5,188,1,48,55,2271555840
439,10,Ticks_ISO_T2_5,189,5,42,127,2271559164
439,10,Ticks_ISO_T2_5,190,1,48,52,2272056824
439,10,Ticks_ISO_T2_5,191,5,42,127,2272058860
439,10,Ticks_ISO_T2_5,192,5,42,127,2272558488
439,10,Ticks_ISO_T2_5,193,1,48,48,2272574244
439,10,Ticks_ISO_T2_5,194,1,48,44,2273036900
439,10,Ticks_ISO_T2_5,195,5,42,127,2273059372
439,10,Ticks_ISO_T2_5,196,1,48,45,2273525744
439,10,Ticks_ISO_T2_5,197,5,42,127,2273558992
439,10,Ticks_ISO_T2_5,198,1,48,51,2274026264
439,10,Ticks_ISO_T2_5,199,5,42,127,2274058540
439,10,Ticks_ISO_T2_5,200,1,48,50,2274513912
439,10,Ticks_ISO_T2_5,201,5,42,127,2274559280
439,10,Ticks_ISO_T2_5,202,1,48,41,2274982024
439,10,Ticks_ISO_T2_5,203,5,42,127,2275058976
439,10,Ticks_ISO_T2_5,204,1,48,46,2275461820
439,10,Ticks_ISO_T2_5,205,5,42,127,2275558952
439,10,Ticks_ISO_T2_5,206,1,48,52,2275976552
439,10,Ticks_ISO_T2_5,207,5,42,127,2276058660
439,10,Ticks_ISO_T2_5,208,1,48,49,2276452756
439,10,Ticks_ISO_T2_5,209,5,42,127,2276559164
439,10,Ticks_ISO_T2_5,210,1,48,48,2276981848
439,10,Ticks_ISO_T2_5,211,5,42,127,2277059020
439,10,Ticks_ISO_T2_5,212,1,48,50,2277480268
439,10,Ticks_ISO_T2_5,213,5,42,127,2277558840
439,10,Ticks_ISO_T2_5,214,1,48,48,2277989088
439,10,Ticks_ISO_T2_5,215,5,42,127,2278059284
439,10,Ticks_ISO_T2_5,216,1,48,43,2278498204
439,10,Ticks_ISO_T2_5,217,5,42,127,2278559128
439,10,Ticks_ISO_T2_5,218,1,48,32,2279007404
439,10,Ticks_ISO_T2_5,219,5,42,127,2279058820
439,10,Ticks_ISO_T2_5,220,1,48,40,2279494448
439,10,Ticks_ISO_T2_5,221,5,42,127,2279558664
439,10,Ticks_ISO_T2_5,222,1,48,41,2280035208
439,10,Ticks_ISO_T2_5,223,5,42,127,2280059108
439,10,Ticks_ISO_T2_5,224,1,48,49,2280549116
439,10,Ticks_ISO_T2_5,225,5,42,127,2280558952
439,10,Ticks_ISO_T2_5,226,1,48,39,2281048812
439,10,Ticks_ISO_T2_5,227,5,42,127,2281058796
439,10,Ticks_ISO_T2_5,228,5,42,127,2281559468
439,10,Ticks_ISO_T2_5,229,1,48,43,2281563108
439,10,Ticks_ISO_T2_5,230,5,42,127,2282059312
439,10,Ticks_ISO_T2_5,231,1,48,37,2282069020
439,10,Ticks_ISO_T2_5,232,1,48,40,2282558332
439,10,Ticks_ISO_T2_5,233,5,42,127,2282559972
439,10,Ticks_ISO_T2_5,234,1,48,43,2283054024
439,10,Ticks_ISO_T2_5,235,5,42,127,2283058772
439,10,Ticks_ISO_T2_5,236,5,42,127,2283559596
439,10,Ticks_ISO_T2_5,237,1,48,39,2283560488
439,10,Ticks_ISO_T2_5,238,1,48,44,2284019604
439,10,Ticks_ISO_T2_5,239,5,42,127,2284059060
439,10,Ticks_ISO_T2_5,240,1,48,39,2284489384
439,10,Ticks_ISO_T2_5,241,5,42,127,2284558756
439,10,Ticks_ISO_T2_5,242,1,48,41,2284963848
439,10,Ticks_ISO_T2_5,243,5,42,127,2285058508
439,10,Ticks_ISO_T2_5,244,1,48,43,2285464284
439,10,Ticks_ISO_T2_5,245,5,42,127,2285559100
439,10,Ticks_ISO_T2_5,246,1,48,35,2285985148
439,10,Ticks_ISO_T2_5,247,5,42,127,2286058884
439,10,Ticks_ISO_T2_5,248,1,48,43,2286532364
439,10,Ticks_ISO_T2_5,249,5,42,127,2286558728
439,10,Ticks_ISO_T2_5,250,5,42,127,2287059252
439,10,Ticks_ISO_T2_5,251,1,48,36,2287072916
439,10,Ticks_ISO_T2_5,252,5,42,127,2287558944
439,10,Ticks_ISO_T2_5,253,1,48,36,2287581288
439,10,Ticks_ISO_T2_5,254,1,48,40,2288058788
439,10,Ticks_ISO_T2_5,255,5,42,127,2288060504
439,10,Ticks_ISO_T2_5,256,1,48,42,2288552580
439,10,Ticks_ISO_T2_5,257,5,42,127,2288558528
439,10,Ticks_ISO_T2_5,258,1,48,40,2289048460
439,10,Ticks_ISO_T2_5,0,9999,9999,9999,2224056436
439,10,Ticks_ISO_T2_5,1,9999,9999,9999,2224556128
439,10,Ticks_ISO_T2_5,2,9999,9999,9999,2225056872
439,10,Ticks_ISO_T2_5,3,9999,9999,9999,2225556568
439,10,Ticks_ISO_T2_5,4,9999,9999,9999,2226056276
439,10,Ticks_ISO_T2_5,5,9999,9999,9999,2226557020
439,10,Ticks_ISO_T2_5,6,9999,9999,9999,2227056712
439,10,Ticks_ISO_T2_5,7,9999,9999,9999,2227556408
439,10,Ticks_ISO_T2_5,8,9999,9999,9999,2228056180
439,10,Ticks_ISO_T2_5,9,9999,9999,9999,2228556920
439,10,Ticks_ISO_T2_5,10,9999,9999,9999,2229056612
439,10,Ticks_ISO_T2_5,11,9999,9999,9999,2229556308
439,10,Ticks_ISO_T2_5,12,9999,9999,9999,2230057052
439,10,Ticks_ISO_T2_5,13,9999,9999,9999,2230556744
439,10,Ticks_ISO_T2_5,14,9999,9999,9999,2231056440
439,10,Ticks_ISO_T2_5,15,9999,9999,9999,2231556208
439,10,Ticks_ISO_T2_5,16,9999,9999,9999,2232056952
439,10,Ticks_ISO_T2_5,17,9999,9999,9999,2232556644
439,10,Ticks_ISO_T2_5,18,9999,9999,9999,2233056340
439,10,Ticks_ISO_T2_5,19,9999,9999,9999,2233557080
439,10,Ticks_ISO_T2_5,20,9999,9999,9999,2234056776
439,10,Ticks_ISO_T2_5,21,9999,9999,9999,2234556472
439,10,Ticks_ISO_T2_5,22,9999,9999,9999,2235056216
439,10,Ticks_ISO_T2_5,23,9999,9999,9999,2235556956
439,10,Ticks_ISO_T2_5,24,9999,9999,9999,2236056652
439,10,Ticks_ISO_T2_5,25,9999,9999,9999,2236556344
439,10,Ticks_ISO_T2_5,26,9999,9999,9999,2237056112
439,10,Ticks_ISO_T2_5,27,9999,9999,9999,2237556856
439,10,Ticks_ISO_T2_5,28,9999,9999,9999,2238056552
439,10,Ticks_ISO_T2_5,29,9999,9999,9999,2238556244
439,10,Ticks_ISO_T2_5,30,9999,9999,9999,2239056988
439,10,Ticks_ISO_T2_5,31,9999,9999,9999,2239556680
439,10,Ticks_ISO_T2_5,32,9999,9999,9999,2240056376
439,10,Ticks_ISO_T2_5,33,9999,9999,9999,2240556148
439,10,Ticks_ISO_T2_5,34,9999,9999,9999,2241056888
439,10,Ticks_ISO_T2_5,35,9999,9999,9999,2241556584
439,10,Ticks_ISO_T2_5,36,9999,9999,9999,2242056280
439,10,Ticks_ISO_T2_5,37,9999,9999,9999,2242557020
439,10,Ticks_ISO_T2_5,38,9999,9999,9999,2243056716
439,10,Ticks_ISO_T2_5,39,9999,9999,9999,2243556408
439,10,Ticks_ISO_T2_5,40,9999,9999,9999,2244056180
439,10,Ticks_ISO_T2_5,41,9999,9999,9999,2244556920
439,10,Ticks_ISO_T2_5,42,9999,9999,9999,2245056616
439,10,Ticks_ISO_T2_5,43,9999,9999,9999,2245556284
439,10,Ticks_ISO_T2_5,44,9999,9999,9999,2246057028
439,10,Ticks_ISO_T2_5,45,9999,9999,9999,2246556796
439,10,Ticks_ISO_T2_5,46,9999,9999,9999,2247056476
439,10,Ticks_ISO_T2_5,47,9999,9999,9999,2247556168
439,10,Ticks_ISO_T2_5,48,9999,9999,9999,2248056924
439,10,Ticks_ISO_T2_5,49,9999,9999,9999,2248556620
439,10,Ticks_ISO_T2_5,50,9999,9999,9999,2249056316
439,10,Ticks_ISO_T2_5,51,9999,9999,9999,2249557056
439,10,Ticks_ISO_T2_5,52,9999,9999,9999,2250056828
439,10,Ticks_ISO_T2_5,53,9999,9999,9999,2250556528
439,10,Ticks_ISO_T2_5,54,9999,9999,9999,2251056216
439,10,Ticks_ISO_T2_5,55,9999,9999,9999,2251556960
439,10,Ticks_ISO_T2_5,56,9999,9999,9999,2252056652
439,10,Ticks_ISO_T2_5,57,9999,9999,9999,2252556352
439,10,Ticks_ISO_T2_5,58,9999,9999,9999,2253056116
439,10,Ticks_ISO_T2_5,59,9999,9999,9999,2253556860
439,10,Ticks_ISO_T2_5,60,9999,9999,9999,2254056556
439,10,Ticks_ISO_T2_5,61,9999,9999,9999,2254556248
439,10,Ticks_ISO_T2_5,62,9999,9999,9999,2255056996
439,10,Ticks_ISO_T2_5,63,9999,9999,9999,2255556684
439,10,Ticks_ISO_T2_5,64,9999,9999,9999,2256056428
439,10,Ticks_ISO_T2_5,65,9999,9999,9999,2256556120
439,10,Ticks_ISO_T2_5,66,9999,9999,9999,2257056864
439,10,Ticks_ISO_T2_5,67,9999,9999,9999,2257556556
439,10,Ticks_ISO_T2_5,68,9999,9999,9999,2258056252
439,10,Ticks_ISO_T2_5,69,9999,9999,9999,2258556992
439,10,Ticks_ISO_T2_5,70,9999,9999,9999,2259056764
439,10,Ticks_ISO_T2_5,71,9999,9999,9999,2259556456
439,10,Ticks_ISO_T2_5,72,9999,9999,9999,2260056152
439,10,Ticks_ISO_T2_5,73,9999,9999,9999,2260556892
439,10,Ticks_ISO_T2_5,74,9999,9999,9999,2261056588
439,10,Ticks_ISO_T2_5,75,9999,9999,9999,2261556280
439,10,Ticks_ISO_T2_5,76,9999,9999,9999,2262057024
439,10,Ticks_ISO_T2_5,77,9999,9999,9999,2262556792
439,10,Ticks_ISO_T2_5,78,9999,9999,9999,2263056488
439,10,Ticks_ISO_T2_5,79,9999,9999,9999,2263556180
439,10,Ticks_ISO_T2_5,80,9999,9999,9999,2264056904
439,10,Ticks_ISO_T2_5,81,9999,9999,9999,2264556616
439,10,Ticks_ISO_T2_5,82,9999,9999,9999,2265056312
439,10,Ticks_ISO_T2_5,83,9999,9999,9999,2265557056
439,10,Ticks_ISO_T2_5,84,9999,9999,9999,2266056824
439,10,Ticks_ISO_T2_5,85,9999,9999,9999,2266556520
439,10,Ticks_ISO_T2_5,86,9999,9999,9999,2267056188
439,10,Ticks_ISO_T2_5,87,9999,9999,9999,2267556928
439,10,Ticks_ISO_T2_5,88,9999,9999,9999,2268056700
439,10,Ticks_ISO_T2_5,89,9999,9999,9999,2268556396
439,10,Ticks_ISO_T2_5,90,9999,9999,9999,2269056088
439,10,Ticks_ISO_T2_5,91,9999,9999,9999,2269556832
439,10,Ticks_ISO_T2_5,92,9999,9999,9999,2270056524
439,10,Ticks_ISO_T2_5,93,9999,9999,9999,2270556224
439,10,Ticks_ISO_T2_5,94,9999,9999,9999,2271056960
439,10,Ticks_ISO_T2_5,95,9999,9999,9999,2271556728
439,10,Ticks_ISO_T2_5,96,9999,9999,9999,2272056376
439,10,Ticks_ISO_T2_5,97,9999,9999,9999,2272556128
439,10,Ticks_ISO_T2_5,98,9999,9999,9999,2273056864
439,10,Ticks_ISO_T2_5,99,9999,9999,9999,2273556560
439,10,Ticks_ISO_T2_5,100,9999,9999,9999,2274056252
439,10,Ticks_ISO_T2_5,101,9999,9999,9999,2274556992
439,10,Ticks_ISO_T2_5,102,9999,9999,9999,2275056764
439,10,Ticks_ISO_T2_5,103,9999,9999,9999,2275556440
439,10,Ticks_ISO_T2_5,104,9999,9999,9999,2276056152
439,10,Ticks_ISO_T2_5,105,9999,9999,9999,2276556876
439,10,Ticks_ISO_T2_5,106,9999,9999,9999,2277056584
439,10,Ticks_ISO_T2_5,107,9999,9999,9999,2277556332
439,10,Ticks_ISO_T2_5,108,9999,9999,9999,2278057072
439,10,Ticks_ISO_T2_5,109,9999,9999,9999,2278556764
439,10,Ticks_ISO_T2_5,110,9999,9999,9999,2279056460
439,10,Ticks_ISO_T2_5,111,9999,9999,9999,2279556156
439,10,Ticks_ISO_T2_5,112,9999,9999,9999,2280056896
439,10,Ticks_ISO_T2_5,113,9999,9999,9999,2280556664
439,10,Ticks_ISO_T2_5,114,9999,9999,9999,2281056360
439,10,Ticks_ISO_T2_5,115,9999,9999,9999,2281557108
439,10,Ticks_ISO_T2_5,116,9999,9999,9999,2282056804
439,10,Ticks_ISO_T2_5,117,9999,9999,9999,2282556500
439,10,Ticks_ISO_T2_5,118,9999,9999,9999,2283056188
439,10,Ticks_ISO_T2_5,119,9999,9999,9999,2283556936
439,10,Ticks_ISO_T2_5,120,9999,9999,9999,2284056700
439,10,Ticks_ISO_T2_5,121,9999,9999,9999,2284556396
439,10,Ticks_ISO_T2_5,122,9999,9999,9999,2285056072
439,10,Ticks_ISO_T2_5,123,9999,9999,9999,2285556788
439,10,Ticks_ISO_T2_5,124,9999,9999,9999,2286056524
439,10,Ticks_ISO_T2_5,125,9999,9999,9999,2286556220
439,10,Ticks_ISO_T2_5,126,9999,9999,9999,2287056964
439,10,Ticks_ISO_T2_5,127,9999,9999,9999,2287556660
439,10,Ticks_ISO_T2_5,128,9999,9999,9999,2288056428
439,10,Ticks_ISO_T2_5,129,9999,9999,9999,2288556092
4310,9,Ticks_ISO_T2_8,0,5,42,127,2301055316
4310,9,Ticks_ISO_T2_8,1,1,48,25,2301668260
4310,9,Ticks_ISO_T2_8,2,5,42,127,2301855272
4310,9,Ticks_ISO_T2_8,3,5,42,127,2302654756
4310,9,Ticks_ISO_T2_8,4,5,42,127,2303454512
4310,9,Ticks_ISO_T2_8,5,1,48,40,2303475356
4310,9,Ticks_ISO_T2_8,6,1,48,29,2304251212
4310,9,Ticks_ISO_T2_8,7,5,42,127,2304255360
4310,9,Ticks_ISO_T2_8,8,1,48,35,2305030380
4310,9,Ticks_ISO_T2_8,9,5,42,127,2305055240
4310,9,Ticks_ISO_T2_8,10,1,48,35,2305781416
4310,9,Ticks_ISO_T2_8,11,5,42,127,2305854828
4310,9,Ticks_ISO_T2_8,12,1,48,36,2306545396
4310,9,Ticks_ISO_T2_8,13,5,42,127,2306654548
4310,9,Ticks_ISO_T2_8,14,1,48,43,2307329796
4310,9,Ticks_ISO_T2_8,15,5,42,127,2307455324
4310,9,Ticks_ISO_T2_8,16,1,48,36,2308149728
4310,9,Ticks_ISO_T2_8,17,5,42,127,2308255284
4310,9,Ticks_ISO_T2_8,18,1,48,26,2309050536
4310,9,Ticks_ISO_T2_8,19,5,42,127,2309054908
4310,9,Ticks_ISO_T2_8,20,1,48,27,2309820504
4310,9,Ticks_ISO_T2_8,21,5,42,127,2309854564
4310,9,Ticks_ISO_T2_8,22,1,48,33,2310645512
4310,9,Ticks_ISO_T2_8,23,5,42,127,2310655196
4310,9,Ticks_ISO_T2_8,24,1,48,34,2311393488
4310,9,Ticks_ISO_T2_8,25,5,42,127,2311455080
4310,9,Ticks_ISO_T2_8,26,1,48,33,2312206692
4310,9,Ticks_ISO_T2_8,27,5,42,127,2312255112
4310,9,Ticks_ISO_T2_8,28,1,48,28,2313011880
4310,9,Ticks_ISO_T2_8,29,5,42,127,2313054548
4310,9,Ticks_ISO_T2_8,30,1,48,24,2313813780
4310,9,Ticks_ISO_T2_8,31,5,42,127,2313855332
4310,9,Ticks_ISO_T2_8,32,1,48,24,2314540492
4310,9,Ticks_ISO_T2_8,33,5,42,127,2314655100
4310,9,Ticks_ISO_T2_8,34,1,48,25,2315370968
4310,9,Ticks_ISO_T2_8,35,5,42,127,2315455096
4310,9,Ticks_ISO_T2_8,36,1,48,19,2316210196
4310,9,Ticks_ISO_T2_8,37,5,42,127,2316254680
4310,9,Ticks_ISO_T2_8,38,1,48,21,2316994536
4310,9,Ticks_ISO_T2_8,39,5,42,127,2317055236
4310,9,Ticks_ISO_T2_8,40,1,48,18,2317755828
4310,9,Ticks_ISO_T2_8,41,5,42,127,2317855032
4310,9,Ticks_ISO_T2_8,42,1,48,17,2318604104
4310,9,Ticks_ISO_T2_8,43,5,42,127,2318655004
4310,9,Ticks_ISO_T2_8,44,5,42,127,2319454520
4310,9,Ticks_ISO_T2_8,45,1,48,24,2319455408
4310,9,Ticks_ISO_T2_8,46,5,42,127,2320255524
4310,9,Ticks_ISO_T2_8,47,1,48,24,2320270308
4310,9,Ticks_ISO_T2_8,48,1,48,22,2321049908
4310,9,Ticks_ISO_T2_8,49,5,42,127,2321055248
4310,9,Ticks_ISO_T2_8,50,5,42,127,2321854864
4310,9,Ticks_ISO_T2_8,51,1,48,35,2322647772
4310,9,Ticks_ISO_T2_8,52,5,42,127,2322654764
4310,9,Ticks_ISO_T2_8,53,5,42,127,2323455324
4310,9,Ticks_ISO_T2_8,54,1,48,32,2323512220
4310,9,Ticks_ISO_T2_8,55,1,48,41,2324222036
4310,9,Ticks_ISO_T2_8,56,5,42,127,2324255128
4310,9,Ticks_ISO_T2_8,57,1,48,38,2325046604
4310,9,Ticks_ISO_T2_8,58,5,42,127,2325054936
4310,9,Ticks_ISO_T2_8,59,1,48,43,2325804372
4310,9,Ticks_ISO_T2_8,60,5,42,127,2325854816
4310,9,Ticks_ISO_T2_8,61,1,48,40,2326628264
4310,9,Ticks_ISO_T2_8,62,5,42,127,2326655448
4310,9,Ticks_ISO_T2_8,63,1,48,38,2327407352
4310,9,Ticks_ISO_T2_8,64,5,42,127,2327455180
4310,9,Ticks_ISO_T2_8,65,1,48,40,2328211196
4310,9,Ticks_ISO_T2_8,66,5,42,127,2328254788
4310,9,Ticks_ISO_T2_8,67,1,48,35,2328981236
4310,9,Ticks_ISO_T2_8,68,5,42,127,2329054744
4310,9,Ticks_ISO_T2_8,69,1,48,37,2329732052
4310,9,Ticks_ISO_T2_8,70,5,42,127,2329855436
4310,9,Ticks_ISO_T2_8,71,1,48,41,2330594492
4310,9,Ticks_ISO_T2_8,72,5,42,127,2330655184
4310,9,Ticks_ISO_T2_8,73,5,42,127,2331454700
4310,9,Ticks_ISO_T2_8,74,1,48,30,2331477864
4310,9,Ticks_ISO_T2_8,75,1,48,36,2332215352
4310,9,Ticks_ISO_T2_8,76,5,42,127,2332254504
4310,9,Ticks_ISO_T2_8,77,1,48,37,2332977608
4310,9,Ticks_ISO_T2_8,78,5,42,127,2333055432
4310,9,Ticks_ISO_T2_8,79,1,48,36,2333778540
4310,9,Ticks_ISO_T2_8,80,5,42,127,2333855088
4310,9,Ticks_ISO_T2_8,81,1,48,28,2334629584
4310,9,Ticks_ISO_T2_8,82,5,42,127,2334654776
4310,9,Ticks_ISO_T2_8,83,1,48,46,2335421188
4310,9,Ticks_ISO_T2_8,84,5,42,127,2335454656
4310,9,Ticks_ISO_T2_8,85,1,48,45,2336219724
4310,9,Ticks_ISO_T2_8,86,5,42,127,2336255360
4310,9,Ticks_ISO_T2_8,87,1,48,48,2337017964
4310,9,Ticks_ISO_T2_8,88,5,42,127,2337055092
4310,9,Ticks_ISO_T2_8,89,1,48,43,2337821284
4310,9,Ticks_ISO_T2_8,90,5,42,127,2337854828
4310,9,Ticks_ISO_T2_8,91,1,48,35,2338624612
4310,9,Ticks_ISO_T2_8,92,5,42,127,2338654560
4310,9,Ticks_ISO_T2_8,93,5,42,127,2339455424
4310,9,Ticks_ISO_T2_8,94,1,48,34,2339463404
4310,9,Ticks_ISO_T2_8,95,1,48,43,2340231852
4310,9,Ticks_ISO_T2_8,96,5,42,127,2340255076
4310,9,Ticks_ISO_T2_8,97,1,48,35,2341048816
4310,9,Ticks_ISO_T2_8,98,5,42,127,2341054684
4310,9,Ticks_ISO_T2_8,99,1,48,36,2341831720
4310,9,Ticks_ISO_T2_8,100,5,42,127,2341854640
4310,9,Ticks_ISO_T2_8,101,1,48,44,2342625696
4310,9,Ticks_ISO_T2_8,102,5,42,127,2342655496
4310,9,Ticks_ISO_T2_8,103,1,48,38,2343437096
4310,9,Ticks_ISO_T2_8,104,5,42,127,2343455228
4310,9,Ticks_ISO_T2_8,105,1,48,43,2344249920
4310,9,Ticks_ISO_T2_8,106,5,42,127,2344254740
4310,9,Ticks_ISO_T2_8,107,1,48,43,2345033944
4310,9,Ticks_ISO_T2_8,108,5,42,127,2345054548
4310,9,Ticks_ISO_T2_8,109,1,48,36,2345820816
4310,9,Ticks_ISO_T2_8,110,5,42,127,2345855328
4310,9,Ticks_ISO_T2_8,111,1,48,37,2346636032
4310,9,Ticks_ISO_T2_8,112,5,42,127,2346655140
4310,9,Ticks_ISO_T2_8,113,1,48,31,2347440184
4310,9,Ticks_ISO_T2_8,114,5,42,127,2347454972
4310,9,Ticks_ISO_T2_8,115,1,48,33,2348240088
4310,9,Ticks_ISO_T2_8,116,5,42,127,2348254556
4310,9,Ticks_ISO_T2_8,117,1,48,30,2349050292
4310,9,Ticks_ISO_T2_8,118,5,42,127,2349055336
4310,9,Ticks_ISO_T2_8,119,1,48,32,2349811732
4310,9,Ticks_ISO_T2_8,120,5,42,127,2349855292
4310,9,Ticks_ISO_T2_8,121,1,48,33,2350627920
4310,9,Ticks_ISO_T2_8,122,5,42,127,2350655028
4310,9,Ticks_ISO_T2_8,123,1,48,39,2351447696
4310,9,Ticks_ISO_T2_8,124,5,42,127,2351454536
4310,9,Ticks_ISO_T2_8,125,1,48,35,2352253276
4310,9,Ticks_ISO_T2_8,126,5,42,127,2352255244
4310,9,Ticks_ISO_T2_8,127,5,42,127,2353055204
4310,9,Ticks_ISO_T2_8,128,1,48,32,2353076752
4310,9,Ticks_ISO_T2_8,129,1,48,36,2353855036
4310,9,Ticks_ISO_T2_8,130,5,42,127,2353856604
4310,9,Ticks_ISO_T2_8,131,1,48,31,2354647848
4310,9,Ticks_ISO_T2_8,132,5,42,127,2354654468
4310,9,Ticks_ISO_T2_8,133,5,42,127,2355455404
4310,9,Ticks_ISO_T2_8,134,1,48,26,2355474004
4310,9,Ticks_ISO_T2_8,135,1,48,36,2356218296
4310,9,Ticks_ISO_T2_8,136,5,42,127,2356255204
4310,9,Ticks_ISO_T2_8,137,1,48,41,2357018032
4310,9,Ticks_ISO_T2_8,138,5,42,127,2357054936
4310,9,Ticks_ISO_T2_8,139,1,48,32,2357834892
4310,9,Ticks_ISO_T2_8,140,5,42,127,2357854524
4310,9,Ticks_ISO_T2_8,141,1,48,37,2358576584
4310,9,Ticks_ISO_T2_8,142,5,42,127,2358655376
4310,9,Ticks_ISO_T2_8,143,1,48,38,2359369656
4310,9,Ticks_ISO_T2_8,144,5,42,127,2359455036
4310,9,Ticks_ISO_T2_8,145,1,48,36,2360184952
4310,9,Ticks_ISO_T2_8,146,5,42,127,2360255016
4310,9,Ticks_ISO_T2_8,147,1,48,34,2360986104
4310,9,Ticks_ISO_T2_8,148,5,42,127,2361054452
4310,9,Ticks_ISO_T2_8,149,1,48,42,2361774692
4310,9,Ticks_ISO_T2_8,150,5,42,127,2361855304
4310,9,Ticks_ISO_T2_8,151,1,48,40,2362610128
4310,9,Ticks_ISO_T2_8,152,5,42,127,2362655040
4310,9,Ticks_ISO_T2_8,153,5,42,127,2363455004
4310,9,Ticks_ISO_T2_8,154,1,48,35,2363479220
4310,9,Ticks_ISO_T2_8,155,1,48,43,2364211540
4310,9,Ticks_ISO_T2_8,156,5,42,127,2364254656
4310,9,Ticks_ISO_T2_8,157,1,48,38,2364986740
4310,9,Ticks_ISO_T2_8,158,5,42,127,2365055212
4310,9,Ticks_ISO_T2_8,159,1,48,34,2365781312
4310,9,Ticks_ISO_T2_8,160,5,42,127,2365855020
4310,9,Ticks_ISO_T2_8,161,1,48,37,2366572512
4310,9,Ticks_ISO_T2_8,162,5,42,127,2366654924
4310,9,Ticks_ISO_T2_8,163,1,48,32,2367431888
4310,9,Ticks_ISO_T2_8,164,5,42,127,2367454508
4310,9,Ticks_ISO_T2_8,165,5,42,127,2368255296
4310,9,Ticks_ISO_T2_8,166,1,48,25,2368283396
4310,9,Ticks_ISO_T2_8,167,1,48,32,2369028060
4310,9,Ticks_ISO_T2_8,168,5,42,127,2369054948
4310,9,Ticks_ISO_T2_8,169,1,48,31,2369833480
4310,9,Ticks_ISO_T2_8,170,5,42,127,2369854756
4310,9,Ticks_ISO_T2_8,171,1,48,25,2370630596
4310,9,Ticks_ISO_T2_8,172,5,42,127,2370654940
4310,9,Ticks_ISO_T2_8,173,1,48,29,2371409316
4310,9,Ticks_ISO_T2_8,174,5,42,127,2371455200
4310,9,Ticks_ISO_T2_8,175,1,48,37,2372195488
4310,9,Ticks_ISO_T2_8,176,5,42,127,2372255060
4310,9,Ticks_ISO_T2_8,177,1,48,37,2372977796
4310,9,Ticks_ISO_T2_8,178,5,42,127,2373054744
4310,9,Ticks_ISO_T2_8,179,1,48,30,2373813976
4310,9,Ticks_ISO_T2_8,180,5,42,127,2373854700
4310,9,Ticks_ISO_T2_8,181,1,48,35,2374618872
4310,9,Ticks_ISO_T2_8,182,5,42,127,2374655628
4310,9,Ticks_ISO_T2_8,183,1,48,30,2375397812
4310,9,Ticks_ISO_T2_8,184,5,42,127,2375455216
4310,9,Ticks_ISO_T2_8,185,1,48,29,2376218412
4310,9,Ticks_ISO_T2_8,186,5,42,127,2376254800
4310,9,Ticks_ISO_T2_8,187,1,48,28,2377006556
4310,9,Ticks_ISO_T2_8,188,5,42,127,2377054680
4310,9,Ticks_ISO_T2_8,189,1,48,32,2377803740
4310,9,Ticks_ISO_T2_8,190,5,42,127,2377855460
4310,9,Ticks_ISO_T2_8,191,1,48,39,2378579020
4310,9,Ticks_ISO_T2_8,192,5,42,127,2378655048
4310,9,Ticks_ISO_T2_8,193,1,48,29,2379366788
4310,9,Ticks_ISO_T2_8,194,5,42,127,2379454804
4310,9,Ticks_ISO_T2_8,195,1,48,31,2380217180
4310,9,Ticks_ISO_T2_8,196,5,42,127,2380254464
4310,9,Ticks_ISO_T2_8,197,1,48,30,2381016244
4310,9,Ticks_ISO_T2_8,198,5,42,127,2381055316
4310,9,Ticks_ISO_T2_8,199,1,48,37,2381817320
4310,9,Ticks_ISO_T2_8,200,5,42,127,2381855124
4310,9,Ticks_ISO_T2_8,201,1,48,38,2382620492
4310,9,Ticks_ISO_T2_8,202,5,42,127,2382654712
4310,9,Ticks_ISO_T2_8,203,1,48,32,2383445584
4310,9,Ticks_ISO_T2_8,204,5,42,127,2383454520
4310,9,Ticks_ISO_T2_8,205,1,48,33,2384253184
4310,9,Ticks_ISO_T2_8,206,5,42,127,2384255300
4310,9,Ticks_ISO_T2_8,207,1,48,33,2385040864
4310,9,Ticks_ISO_T2_8,208,5,42,127,2385054960
4310,9,Ticks_ISO_T2_8,209,5,42,127,2385854724
4310,9,Ticks_ISO_T2_8,210,1,48,29,2385859340
4310,9,Ticks_ISO_T2_8,211,1,48,30,2386644244
4310,9,Ticks_ISO_T2_8,212,5,42,127,2386654452
4310,9,Ticks_ISO_T2_8,213,1,48,32,2387433584
4310,9,Ticks_ISO_T2_8,214,5,42,127,2387455380
4310,9,Ticks_ISO_T2_8,215,1,48,27,2388242812
4310,9,Ticks_ISO_T2_8,216,5,42,127,2388255188
4310,9,Ticks_ISO_T2_8,217,1,48,32,2389008140
4310,9,Ticks_ISO_T2_8,218,5,42,127,2389054696
4310,9,Ticks_ISO_T2_8,219,1,48,35,2389792688
4310,9,Ticks_ISO_T2_8,220,5,42,127,2389854508
4310,9,Ticks_ISO_T2_8,221,1,48,41,2390601620
4310,9,Ticks_ISO_T2_8,222,5,42,127,2390655436
4310,9,Ticks_ISO_T2_8,223,1,48,32,2391339720
4310,9,Ticks_ISO_T2_8,224,5,42,127,2391455228
4310,9,Ticks_ISO_T2_8,225,1,48,40,2392179176
4310,9,Ticks_ISO_T2_8,226,5,42,127,2392254704
4310,9,Ticks_ISO_T2_8,227,1,48,35,2393014760
4310,9,Ticks_ISO_T2_8,228,5,42,127,2393054584
4310,9,Ticks_ISO_T2_8,229,1,48,43,2393843364
4310,9,Ticks_ISO_T2_8,230,5,42,127,2393855292
4310,9,Ticks_ISO_T2_8,231,1,48,38,2394630608
4310,9,Ticks_ISO_T2_8,232,5,42,127,2394655100
4310,9,Ticks_ISO_T2_8,233,1,48,36,2395416656
4310,9,Ticks_ISO_T2_8,234,5,42,127,2395454684
4310,9,Ticks_ISO_T2_8,235,1,48,34,2396243536
4310,9,Ticks_ISO_T2_8,236,5,42,127,2396254568
4310,9,Ticks_ISO_T2_8,0,9999,9999,9999,2301053024
4310,9,Ticks_ISO_T2_8,1,9999,9999,9999,2301852760
4310,9,Ticks_ISO_T2_8,2,9999,9999,9999,2302652468
4310,9,Ticks_ISO_T2_8,3,9999,9999,9999,2303452220
4310,9,Ticks_ISO_T2_8,4,9999,9999,9999,2304252996
4310,9,Ticks_ISO_T2_8,5,9999,9999,9999,2305052728
4310,9,Ticks_ISO_T2_8,6,9999,9999,9999,2305852464
4310,9,Ticks_ISO_T2_8,7,9999,9999,9999,2306652256
4310,9,Ticks_ISO_T2_8,8,9999,9999,9999,2307453036
4310,9,Ticks_ISO_T2_8,9,9999,9999,9999,2308252768
4310,9,Ticks_ISO_T2_8,10,9999,9999,9999,2309052468
4310,9,Ticks_ISO_T2_8,11,9999,9999,9999,2309852276
4310,9,Ticks_ISO_T2_8,12,9999,9999,9999,2310652984
4310,9,Ticks_ISO_T2_8,13,9999,9999,9999,2311452792
4310,9,Ticks_ISO_T2_8,14,9999,9999,9999,2312252528
4310,9,Ticks_ISO_T2_8,15,9999,9999,9999,2313052260
4310,9,Ticks_ISO_T2_8,16,9999,9999,9999,2313853040
4310,9,Ticks_ISO_T2_8,17,9999,9999,9999,2314652736
4310,9,Ticks_ISO_T2_8,18,9999,9999,9999,2315452508
4310,9,Ticks_ISO_T2_8,19,9999,9999,9999,2316252244
4310,9,Ticks_ISO_T2_8,20,9999,9999,9999,2317053020
4310,9,Ticks_ISO_T2_8,21,9999,9999,9999,2317852740
4310,9,Ticks_ISO_T2_8,22,9999,9999,9999,2318652492
4310,9,Ticks_ISO_T2_8,23,9999,9999,9999,2319452228
4310,9,Ticks_ISO_T2_8,24,9999,9999,9999,2320253012
4310,9,Ticks_ISO_T2_8,25,9999,9999,9999,2321052736
4310,9,Ticks_ISO_T2_8,26,9999,9999,9999,2321852500
4310,9,Ticks_ISO_T2_8,27,9999,9999,9999,2322652252
4310,9,Ticks_ISO_T2_8,28,9999,9999,9999,2323453036
4310,9,Ticks_ISO_T2_8,29,9999,9999,9999,2324252764
4310,9,Ticks_ISO_T2_8,30,9999,9999,9999,2325052496
4310,9,Ticks_ISO_T2_8,31,9999,9999,9999,2325852232
4310,9,Ticks_ISO_T2_8,32,9999,9999,9999,2326653012
4310,9,Ticks_ISO_T2_8,33,9999,9999,9999,2327452744
4310,9,Ticks_ISO_T2_8,34,9999,9999,9999,2328252500
4310,9,Ticks_ISO_T2_8,35,9999,9999,9999,2329052232
4310,9,Ticks_ISO_T2_8,36,9999,9999,9999,2329853000
4310,9,Ticks_ISO_T2_8,37,9999,9999,9999,2330652748
4310,9,Ticks_ISO_T2_8,38,9999,9999,9999,2331452488
4310,9,Ticks_ISO_T2_8,39,9999,9999,9999,2332252212
4310,9,Ticks_ISO_T2_8,40,9999,9999,9999,2333052992
4310,9,Ticks_ISO_T2_8,41,9999,9999,9999,2333852728
4310,9,Ticks_ISO_T2_8,42,9999,9999,9999,2334652484
4310,9,Ticks_ISO_T2_8,43,9999,9999,9999,2335452216
4310,9,Ticks_ISO_T2_8,44,9999,9999,9999,2336252996
4310,9,Ticks_ISO_T2_8,45,9999,9999,9999,2337052732
4310,9,Ticks_ISO_T2_8,46,9999,9999,9999,2337852464
4310,9,Ticks_ISO_T2_8,47,9999,9999,9999,2338652272
4310,9,Ticks_ISO_T2_8,48,9999,9999,9999,2339452984
4310,9,Ticks_ISO_T2_8,49,9999,9999,9999,2340252784
4310,9,Ticks_ISO_T2_8,50,9999,9999,9999,2341052468
4310,9,Ticks_ISO_T2_8,51,9999,9999,9999,2341852276
4310,9,Ticks_ISO_T2_8,52,9999,9999,9999,2342652984
4310,9,Ticks_ISO_T2_8,53,9999,9999,9999,2343452792
4310,9,Ticks_ISO_T2_8,54,9999,9999,9999,2344252528
4310,9,Ticks_ISO_T2_8,55,9999,9999,9999,2345052260
4310,9,Ticks_ISO_T2_8,56,9999,9999,9999,2345853040
4310,9,Ticks_ISO_T2_8,57,9999,9999,9999,2346652776
4310,9,Ticks_ISO_T2_8,58,9999,9999,9999,2347452532
4310,9,Ticks_ISO_T2_8,59,9999,9999,9999,2348252268
4310,9,Ticks_ISO_T2_8,60,9999,9999,9999,2349053044
4310,9,Ticks_ISO_T2_8,61,9999,9999,9999,2349852780
4310,9,Ticks_ISO_T2_8,62,9999,9999,9999,2350652516
4310,9,Ticks_ISO_T2_8,63,9999,9999,9999,2351452248
4310,9,Ticks_ISO_T2_8,64,9999,9999,9999,2352252992
4310,9,Ticks_ISO_T2_8,65,9999,9999,9999,2353052768
4310,9,Ticks_ISO_T2_8,66,9999,9999,9999,2353852524
4310,9,Ticks_ISO_T2_8,67,9999,9999,9999,2354652252
4310,9,Ticks_ISO_T2_8,68,9999,9999,9999,2355453040
4310,9,Ticks_ISO_T2_8,69,9999,9999,9999,2356252768
4310,9,Ticks_ISO_T2_8,70,9999,9999,9999,2357052500
4310,9,Ticks_ISO_T2_8,71,9999,9999,9999,2357852232
4310,9,Ticks_ISO_T2_8,72,9999,9999,9999,2358653012
4310,9,Ticks_ISO_T2_8,73,9999,9999,9999,2359452748
4310,9,Ticks_ISO_T2_8,74,9999,9999,9999,2360252504
4310,9,Ticks_ISO_T2_8,75,9999,9999,9999,2361052236
4310,9,Ticks_ISO_T2_8,76,9999,9999,9999,2361853016
4310,9,Ticks_ISO_T2_8,77,9999,9999,9999,2362652752
4310,9,Ticks_ISO_T2_8,78,9999,9999,9999,2363452492
4310,9,Ticks_ISO_T2_8,79,9999,9999,9999,2364252216
4310,9,Ticks_ISO_T2_8,80,9999,9999,9999,2365052996
4310,9,Ticks_ISO_T2_8,81,9999,9999,9999,2365852728
4310,9,Ticks_ISO_T2_8,82,9999,9999,9999,2366652488
4310,9,Ticks_ISO_T2_8,83,9999,9999,9999,2367452220
4310,9,Ticks_ISO_T2_8,84,9999,9999,9999,2368253008
4310,9,Ticks_ISO_T2_8,85,9999,9999,9999,2369052732
4310,9,Ticks_ISO_T2_8,86,9999,9999,9999,2369852468
4310,9,Ticks_ISO_T2_8,87,9999,9999,9999,2370652276
4310,9,Ticks_ISO_T2_8,88,9999,9999,9999,2371452984
4310,9,Ticks_ISO_T2_8,89,9999,9999,9999,2372252768
4310,9,Ticks_ISO_T2_8,90,9999,9999,9999,2373052528
4310,9,Ticks_ISO_T2_8,91,9999,9999,9999,2373852264
4310,9,Ticks_ISO_T2_8,92,9999,9999,9999,2374653044
4310,9,Ticks_ISO_T2_8,93,9999,9999,9999,2375452776
4310,9,Ticks_ISO_T2_8,94,9999,9999,9999,2376252512
4310,9,Ticks_ISO_T2_8,95,9999,9999,9999,2377052244
4310,9,Ticks_ISO_T2_8,96,9999,9999,9999,2377853024
4310,9,Ticks_ISO_T2_8,97,9999,9999,9999,2378652756
4310,9,Ticks_ISO_T2_8,98,9999,9999,9999,2379452516
4310,9,Ticks_ISO_T2_8,99,9999,9999,9999,2380252248
4310,9,Ticks_ISO_T2_8,100,9999,9999,9999,2381053028
4310,9,Ticks_ISO_T2_8,101,9999,9999,9999,2381852764
4310,9,Ticks_ISO_T2_8,102,9999,9999,9999,2382652496
4310,9,Ticks_ISO_T2_8,103,9999,9999,9999,2383452228
4310,9,Ticks_ISO_T2_8,104,9999,9999,9999,2384252972
4310,9,Ticks_ISO_T2_8,105,9999,9999,9999,2385052744
4310,9,Ticks_ISO_T2_8,106,9999,9999,9999,2385852508
4310,9,Ticks_ISO_T2_8,107,9999,9999,9999,2386652236
4310,9,Ticks_ISO_T2_8,108,9999,9999,9999,2387453016
4310,9,Ticks_ISO_T2_8,109,9999,9999,9999,2388252748
4310,9,Ticks_ISO_T2_8,110,9999,9999,9999,2389052484
4310,9,Ticks_ISO_T2_8,111,9999,9999,9999,2389852216
4310,9,Ticks_ISO_T2_8,112,9999,9999,9999,2390652996
4310,9,Ticks_ISO_T2_8,113,9999,9999,9999,2391452788
4310,9,Ticks_ISO_T2_8,114,9999,9999,9999,2392252488
4310,9,Ticks_ISO_T2_8,115,9999,9999,9999,2393052224
4310,9,Ticks_ISO_T2_8,116,9999,9999,9999,2393853004
4310,9,Ticks_ISO_T2_8,117,9999,9999,9999,2394652736
4310,9,Ticks_ISO_T2_8,118,9999,9999,9999,2395452472
4310,9,Ticks_ISO_T2_8,119,9999,9999,9999,2396252280
4311,25,Jits_Pract_5,0,5,56,103,2453686804
4311,25,Jits_Pract_5,1,5,63,98,2453689980
4311,25,Jits_Pract_5,2,5,80,127,2453693024
4311,25,Jits_Pract_5,0,5,56,103,2454187248
4311,25,Jits_Pract_5,1,5,63,98,2454190676
4311,25,Jits_Pract_5,2,5,80,127,2454193796
4311,25,Jits_Pract_5,0,5,56,103,2454687224
4311,25,Jits_Pract_5,1,5,80,127,2454697272
4311,25,Jits_Pract_5,2,5,63,98,2454716928
4311,25,Jits_Pract_5,0,5,63,98,2455136696
4311,25,Jits_Pract_5,1,5,80,127,2455167344
4311,25,Jits_Pract_5,2,5,56,103,2455176644
4311,25,Jits_Pract_5,0,5,80,127,2455696740
4311,25,Jits_Pract_5,1,5,56,103,2455706932
4311,25,Jits_Pract_5,2,5,63,98,2455736632
4311,25,Jits_Pract_5,0,5,63,98,2456187196
4311,25,Jits_Pract_5,1,5,56,103,2456216944
4311,25,Jits_Pract_5,2,5,80,127,2456227216
4311,25,Jits_Pract_5,0,5,56,103,2456636808
4311,25,Jits_Pract_5,1,5,63,98,2456686936
4311,25,Jits_Pract_5,2,5,80,127,2456706348
4311,25,Jits_Pract_5,0,5,80,127,2457136628
4311,25,Jits_Pract_5,1,5,63,98,2457186904
4311,25,Jits_Pract_5,2,5,56,103,2457226768
4311,25,Jits_Pract_5,0,5,56,103,2457637196
4311,25,Jits_Pract_5,1,5,63,98,2457666872
4311,25,Jits_Pract_5,2,5,80,127,2457736700
4311,25,Jits_Pract_5,0,5,56,103,2458136864
4311,25,Jits_Pract_5,1,5,80,127,2458197480
4311,25,Jits_Pract_5,2,5,63,98,2458227004
4311,25,Jits_Pract_5,0,5,56,103,2458647020
4311,25,Jits_Pract_5,1,5,63,98,2458657144
4311,25,Jits_Pract_5,2,5,80,127,2458697004
4311,25,Jits_Pract_5,0,5,63,98,2459137468
4311,25,Jits_Pract_5,1,5,80,127,2459217340
4311,25,Jits_Pract_5,2,5,56,103,2459226564
4311,25,Jits_Pract_5,0,5,63,98,2459696688
4311,25,Jits_Pract_5,1,5,56,103,2459736628
4311,25,Jits_Pract_5,2,5,80,127,2459739692
4311,25,Jits_Pract_5,0,5,56,103,2460157228
4311,25,Jits_Pract_5,1,5,63,98,2460166600
4311,25,Jits_Pract_5,2,5,80,127,2460206464
4311,25,Jits_Pract_5,0,5,56,103,2460646704
4311,25,Jits_Pract_5,1,5,63,98,2460649772
4311,25,Jits_Pract_5,2,5,80,127,2460667388
4311,25,Jits_Pract_5,0,9999,9999,9999,2453934168
4311,25,Jits_Pract_5,1,9999,9999,9999,2454434912
4311,25,Jits_Pract_5,2,9999,9999,9999,2454934588
4311,25,Jits_Pract_5,3,9999,9999,9999,2455434328
4311,25,Jits_Pract_5,4,9999,9999,9999,2455935036
4311,25,Jits_Pract_5,5,9999,9999,9999,2456434784
4311,25,Jits_Pract_5,6,9999,9999,9999,2456934512
4311,25,Jits_Pract_5,7,9999,9999,9999,2457434188
4311,25,Jits_Pract_5,8,9999,9999,9999,2457934908
4311,25,Jits_Pract_5,9,9999,9999,9999,2458434648
4311,25,Jits_Pract_5,10,9999,9999,9999,2458934388
4311,25,Jits_Pract_5,11,9999,9999,9999,2459435104
4311,25,Jits_Pract_5,12,9999,9999,9999,2459945020
4311,25,Jits_Pract_5,13,9999,9999,9999,2460444744
4311,25,Jits_Pract_5,14,9999,9999,9999,2460944476
4312,25,Jits_Pract_5,0,5,56,103,2509148492
4312,25,Jits_Pract_5,1,5,63,98,2509151664
4312,25,Jits_Pract_5,2,5,80,127,2509154712
4312,25,Jits_Pract_5,0,5,56,103,2509649412
4312,25,Jits_Pract_5,1,5,63,98,2509652588
4312,25,Jits_Pract_5,2,5,80,127,2509655632
4312,25,Jits_Pract_5,3,1,48,31,2509752804
4312,25,Jits_Pract_5,0,5,56,103,2510149124
4312,25,Jits_Pract_5,1,5,80,127,2510159320
4312,25,Jits_Pract_5,2,5,63,98,2510178660
4312,25,Jits_Pract_5,3,1,48,24,2510210844
4312,25,Jits_Pract_5,0,5,63,98,2510598560
4312,25,Jits_Pract_5,1,5,80,127,2510629432
4312,25,Jits_Pract_5,2,5,56,103,2510638432
4312,25,Jits_Pract_5,3,1,48,32,2510708904
4312,25,Jits_Pract_5,0,1,48,25,2511137408
4312,25,Jits_Pract_5,1,5,80,127,2511158632
4312,25,Jits_Pract_5,2,5,56,103,2511168976
4312,25,Jits_Pract_5,3,5,63,98,2511198576
4312,25,Jits_Pract_5,0,5,63,98,2511649192
4312,25,Jits_Pract_5,1,5,56,103,2511678720
4312,25,Jits_Pract_5,2,1,48,29,2511681764
4312,25,Jits_Pract_5,3,5,80,127,2511689208
4312,25,Jits_Pract_5,0,5,56,103,2512098616
4312,25,Jits_Pract_5,1,5,63,98,2512148744
4312,25,Jits_Pract_5,2,1,48,22,2512165564
4312,25,Jits_Pract_5,3,5,80,127,2512169420
4312,25,Jits_Pract_5,0,5,80,127,2512599368
4312,25,Jits_Pract_5,1,1,48,27,2512621668
4312,25,Jits_Pract_5,2,5,63,98,2512648516
4312,25,Jits_Pract_5,3,5,56,103,2512688456
4312,25,Jits_Pract_5,0,1,48,27,2513085552
4312,25,Jits_Pract_5,1,5,56,103,2513099368
4312,25,Jits_Pract_5,2,5,63,98,2513128748
4312,25,Jits_Pract_5,3,5,80,127,2513198336
4312,25,Jits_Pract_5,0,1,48,21,2513575180
4312,25,Jits_Pract_5,1,5,56,103,2513598688
4312,25,Jits_Pract_5,2,5,80,127,2513659376
4312,25,Jits_Pract_5,3,5,63,98,2513689036
4312,25,Jits_Pract_5,0,1,48,27,2514049852
4312,25,Jits_Pract_5,1,5,56,103,2514108796
4312,25,Jits_Pract_5,2,5,63,98,2514119288
4312,25,Jits_Pract_5,3,5,80,127,2514159064
4312,25,Jits_Pract_5,0,1,48,24,2514543388
4312,25,Jits_Pract_5,1,5,63,98,2514599244
4312,25,Jits_Pract_5,2,5,80,127,2514679272
4312,25,Jits_Pract_5,3,5,56,103,2514689396
4312,25,Jits_Pract_5,0,1,48,29,2515067600
4312,25,Jits_Pract_5,1,5,63,98,2515149160
4312,25,Jits_Pract_5,2,5,56,103,2515189084
4312,25,Jits_Pract_5,3,5,80,127,2515192224
4312,25,Jits_Pract_5,0,1,48,32,2515590656
4312,25,Jits_Pract_5,1,5,56,103,2515609188
4312,25,Jits_Pract_5,2,5,63,98,2515619384
4312,25,Jits_Pract_5,3,5,80,127,2515659348
4312,25,Jits_Pract_5,0,1,48,33,2516052360
4312,25,Jits_Pract_5,1,5,56,103,2516098392
4312,25,Jits_Pract_5,2,5,63,98,2516101456
4312,25,Jits_Pract_5,3,5,80,127,2516119000
4312,25,Jits_Pract_5,0,9999,9999,9999,2509397052
4312,25,Jits_Pract_5,1,9999,9999,9999,2509896760
4312,25,Jits_Pract_5,2,9999,9999,9999,2510396468
4312,25,Jits_Pract_5,3,9999,9999,9999,2510896248
4312,25,Jits_Pract_5,4,9999,9999,9999,2511396916
4312,25,Jits_Pract_5,5,9999,9999,9999,2511896688
4312,25,Jits_Pract_5,6,9999,9999,9999,2512396380
4312,25,Jits_Pract_5,7,9999,9999,9999,2512896084
4312,25,Jits_Pract_5,8,9999,9999,9999,2513396840
4312,25,Jits_Pract_5,9,9999,9999,9999,2513896536
4312,25,Jits_Pract_5,10,9999,9999,9999,2514396224
4312,25,Jits_Pract_5,11,9999,9999,9999,2514896964
4312,25,Jits_Pract_5,12,9999,9999,9999,2515396728
4312,25,Jits_Pract_5,13,9999,9999,9999,2515896420
4312,25,Jits_Pract_5,14,9999,9999,9999,2516396100
4313,24,Jits_Pract_8,0,5,56,103,2523253172
4313,24,Jits_Pract_8,1,5,63,98,2523256196
4313,24,Jits_Pract_8,2,5,80,127,2523259468
4313,24,Jits_Pract_8,0,5,56,103,2524053040
4313,24,Jits_Pract_8,1,5,63,98,2524056288
4313,24,Jits_Pract_8,2,5,80,127,2524059260
4313,24,Jits_Pract_8,3,1,48,19,2524082796
4313,24,Jits_Pract_8,0,1,48,13,2524516944
4313,24,Jits_Pract_8,1,5,80,127,2524793076
4313,24,Jits_Pract_8,2,5,63,98,2524883308
4313,24,Jits_Pract_8,3,5,56,103,2524892532
4313,24,Jits_Pract_8,4,1,48,13,2524937896
4313,24,Jits_Pract_8,0,5,56,103,2525613512
4313,24,Jits_Pract_8,1,5,63,98,2525622808
4313,24,Jits_Pract_8,2,1,48,44,2525675000
4313,24,Jits_Pract_8,3,5,80,127,2525712856
4313,24,Jits_Pract_8,0,1,48,45,2526328932
4313,24,Jits_Pract_8,1,5,63,98,2526382484
4313,24,Jits_Pract_8,2,5,80,127,2526413132
4313,24,Jits_Pract_8,3,5,56,103,2526442868
4313,24,Jits_Pract_8,0,1,48,43,2527042456
4313,24,Jits_Pract_8,1,5,56,103,2527183268
4313,24,Jits_Pract_8,2,5,80,127,2527282472
4313,24,Jits_Pract_8,3,5,63,98,2527332820
4313,24,Jits_Pract_8,0,1,48,47,2527868572
4313,24,Jits_Pract_8,1,5,56,103,2527982948
4313,24,Jits_Pract_8,2,5,80,127,2528033076
4313,24,Jits_Pract_8,3,5,63,98,2528073016
4313,24,Jits_Pract_8,0,1,48,46,2528731528
4313,24,Jits_Pract_8,1,5,80,127,2528813288
4313,24,Jits_Pract_8,2,5,63,98,2528843100
4313,24,Jits_Pract_8,3,5,56,103,2528912776
4313,24,Jits_Pract_8,0,1,48,43,2529544988
4313,24,Jits_Pract_8,1,5,63,98,2529642940
4313,24,Jits_Pract_8,2,5,56,103,2529672748
4313,24,Jits_Pract_8,3,5,80,127,2529732940
4313,24,Jits_Pract_8,0,5,56,103,2530383140
4313,24,Jits_Pract_8,1,1,48,34,2530385176
4313,24,Jits_Pract_8,2,5,80,127,2530387844
4313,24,Jits_Pract_8,3,5,63,98,2530503016
4313,24,Jits_Pract_8,0,1,48,43,2531165108
4313,24,Jits_Pract_8,1,5,56,103,2531262848
4313,24,Jits_Pract_8,2,5,80,127,2531302860
4313,24,Jits_Pract_8,3,5,63,98,2531313204
4313,24,Jits_Pract_8,0,1,48,42,2531908448
4313,24,Jits_Pract_8,1,5,56,103,2532022748
4313,24,Jits_Pract_8,2,5,80,127,2532042988
4313,24,Jits_Pract_8,3,5,63,98,2532122852
4313,24,Jits_Pract_8,0,1,48,36,2532770540
4313,24,Jits_Pract_8,1,5,80,127,2532813308
4313,24,Jits_Pract_8,2,5,56,103,2532912792
4313,24,Jits_Pract_8,3,5,63,98,2532922984
4313,24,Jits_Pract_8,0,1,48,40,2533544988
4313,24,Jits_Pract_8,1,5,63,98,2533583224
4313,24,Jits_Pract_8,2,5,80,127,2533642792
4313,24,Jits_Pract_8,3,5,56,103,2533652972
4313,24,Jits_Pract_8,0,1,48,44,2534345860
4313,24,Jits_Pract_8,1,5,56,103,2534383048
4313,24,Jits_Pract_8,2,5,63,98,2534452940
4313,24,Jits_Pract_8,3,5,80,127,2534456152
4313,24,Jits_Pract_8,0,9999,9999,9999,2523650160
4313,24,Jits_Pract_8,1,9999,9999,9999,2524450900
4313,24,Jits_Pract_8,2,9999,9999,9999,2525250648
4313,24,Jits_Pract_8,3,9999,9999,9999,2526050384
4313,24,Jits_Pract_8,4,9999,9999,9999,2526850152
4313,24,Jits_Pract_8,5,9999,9999,9999,2527650884
4313,24,Jits_Pract_8,6,9999,9999,9999,2528450660
4313,24,Jits_Pract_8,7,9999,9999,9999,2529250420
4313,24,Jits_Pract_8,8,9999,9999,9999,2530050104
4313,24,Jits_Pract_8,9,9999,9999,9999,2530850892
4313,24,Jits_Pract_8,10,9999,9999,9999,2531650672
4313,24,Jits_Pract_8,11,9999,9999,9999,2532450356
4313,24,Jits_Pract_8,12,9999,9999,9999,2533250116
4313,24,Jits_Pract_8,13,9999,9999,9999,2534050892
4313,24,Jits_Pract_8,14,9999,9999,9999,2534850656
4314,17,Jits_Phase_5,0,5,56,103,2566728056
4314,17,Jits_Phase_5,1,5,63,98,2566731232
4314,17,Jits_Phase_5,2,5,80,127,2566734128
4314,17,Jits_Phase_5,0,5,56,103,2567227688
4314,17,Jits_Phase_5,1,5,63,98,2567230784
4314,17,Jits_Phase_5,2,5,80,127,2567233908
4314,17,Jits_Phase_5,0,5,56,103,2567727564
4314,17,Jits_Phase_5,1,5,80,127,2567737908
4314,17,Jits_Phase_5,2,5,63,98,2567758068
4314,17,Jits_Phase_5,0,5,63,98,2568177992
4314,17,Jits_Phase_5,1,5,80,127,2568207964
4314,17,Jits_Phase_5,2,5,56,103,2568217936
4314,17,Jits_Phase_5,0,1,48,46,2568675184
4314,17,Jits_Phase_5,1,5,80,127,2568738228
4314,17,Jits_Phase_5,2,5,56,103,2568748424
4314,17,Jits_Phase_5,3,5,63,98,2568778008
4314,17,Jits_Phase_5,0,1,48,46,2569134412
4314,17,Jits_Phase_5,1,5,63,98,2569227796
4314,17,Jits_Phase_5,2,5,56,103,2569258204
4314,17,Jits_Phase_5,3,5,80,127,2569267724
4314,17,Jits_Phase_5,0,1,48,46,2569664496
4314,17,Jits_Phase_5,1,5,56,103,2569678172
4314,17,Jits_Phase_5,2,5,63,98,2569728224
4314,17,Jits_Phase_5,3,5,80,127,2569747784
4314,17,Jits_Phase_5,0,1,48,50,2570121448
4314,17,Jits_Phase_5,1,5,80,127,2570177844
4314,17,Jits_Phase_5,2,5,63,98,2570228028
4314,17,Jits_Phase_5,3,5,56,103,2570267888
4314,17,Jits_Phase_5,0,1,48,43,2570619772
4314,17,Jits_Phase_5,1,5,56,103,2570677740
4314,17,Jits_Phase_5,2,5,63,98,2570708312
4314,17,Jits_Phase_5,3,5,80,127,2570777976
4314,17,Jits_Phase_5,0,1,48,45,2571125904
4314,17,Jits_Phase_5,1,5,56,103,2571178684
4314,17,Jits_Phase_5,2,5,80,127,2571237716
4314,17,Jits_Phase_5,3,5,63,98,2571267536
4314,17,Jits_Phase_5,0,1,48,48,2571640400
4314,17,Jits_Phase_5,1,5,56,103,2571688248
4314,17,Jits_Phase_5,2,5,63,98,2571697696
4314,17,Jits_Phase_5,3,5,80,127,2571738588
4314,17,Jits_Phase_5,0,1,48,48,2572173552
4314,17,Jits_Phase_5,1,5,63,98,2572177928
4314,17,Jits_Phase_5,2,5,80,127,2572257748
4314,17,Jits_Phase_5,3,5,56,103,2572267872
4314,17,Jits_Phase_5,0,1,48,47,2572669636
4314,17,Jits_Phase_5,1,5,63,98,2572727900
4314,17,Jits_Phase_5,2,5,56,103,2572767748
4314,17,Jits_Phase_5,3,5,80,127,2572770816
4314,17,Jits_Phase_5,0,1,48,48,2573176136
4314,17,Jits_Phase_5,1,5,56,103,2573187396
4314,17,Jits_Phase_5,2,5,63,98,2573197812
4314,17,Jits_Phase_5,3,5,80,127,2573237624
4314,17,Jits_Phase_5,0,5,56,103,2573677840
4314,17,Jits_Phase_5,1,1,48,44,2573679880
4314,17,Jits_Phase_5,2,5,63,98,2573682400
4314,17,Jits_Phase_5,3,5,80,127,2573698668
4314,17,Jits_Phase_5,0,1,48,46,2574133948
4314,17,Jits_Phase_5,1,5,80,127,2574187780
4314,17,Jits_Phase_5,2,5,56,103,2574198124
4314,17,Jits_Phase_5,3,5,63,98,2574267884
4314,17,Jits_Phase_5,0,1,48,52,2574663368
4314,17,Jits_Phase_5,1,5,63,98,2574678384
4314,17,Jits_Phase_5,2,5,56,103,2574697872
4314,17,Jits_Phase_5,3,5,80,127,2574777820
4314,17,Jits_Phase_5,0,1,48,48,2575164464
4314,17,Jits_Phase_5,1,5,56,103,2575197760
4314,17,Jits_Phase_5,2,5,80,127,2575237696
4314,17,Jits_Phase_5,3,5,63,98,2575247820
4314,17,Jits_Phase_5,0,1,48,50,2575642936
4314,17,Jits_Phase_5,1,5,80,127,2575687920
4314,17,Jits_Phase_5,2,5,63,98,2575717816
4314,17,Jits_Phase_5,3,5,56,103,2575757812
4314,17,Jits_Phase_5,0,1,48,51,2576157224
4314,17,Jits_Phase_5,1,5,56,103,2576208192
4314,17,Jits_Phase_5,2,5,63,98,2576237940
4314,17,Jits_Phase_5,3,5,80,127,2576288052
4314,17,Jits_Phase_5,0,1,48,51,2576655704
4314,17,Jits_Phase_5,1,5,80,127,2576708092
4314,17,Jits_Phase_5,2,5,56,103,2576748028
4314,17,Jits_Phase_5,3,5,63,98,2576758060
4314,17,Jits_Phase_5,0,1,48,54,2577142108
4314,17,Jits_Phase_5,1,5,80,127,2577188064
4314,17,Jits_Phase_5,2,5,63,98,2577228076
4314,17,Jits_Phase_5,3,5,56,103,2577287472
4314,17,Jits_Phase_5,0,1,48,44,2577645368
4314,17,Jits_Phase_5,1,5,56,103,2577687884
4314,17,Jits_Phase_5,2,5,80,127,2577698304
4314,17,Jits_Phase_5,3,5,63,98,2577778008
4314,17,Jits_Phase_5,0,1,48,48,2578168504
4314,17,Jits_Phase_5,1,5,80,127,2578187632
4314,17,Jits_Phase_5,2,5,63,98,2578248024
4314,17,Jits_Phase_5,3,5,56,103,2578277608
4314,17,Jits_Phase_5,0,5,56,103,2578688512
4314,17,Jits_Phase_5,1,1,48,56,2578696884
4314,17,Jits_Phase_5,2,5,80,127,2578747624
4314,17,Jits_Phase_5,3,5,63,98,2578787560
4314,17,Jits_Phase_5,0,1,48,49,2579224272
4314,17,Jits_Phase_5,1,5,56,103,2579238316
4314,17,Jits_Phase_5,2,5,63,98,2579247760
4314,17,Jits_Phase_5,3,5,80,127,2579251048
4314,17,Jits_Phase_5,0,5,80,127,2579687644
4314,17,Jits_Phase_5,1,1,48,44,2579718412
4314,17,Jits_Phase_5,2,5,63,98,2579777996
4314,17,Jits_Phase_5,3,5,56,103,2579788636
4314,17,Jits_Phase_5,0,5,56,103,2580187692
4314,17,Jits_Phase_5,1,5,63,98,2580190720
4314,17,Jits_Phase_5,2,1,48,47,2580192808
4314,17,Jits_Phase_5,3,5,80,127,2580195404
4314,17,Jits_Phase_5,0,1,48,51,2580662540
4314,17,Jits_Phase_5,1,5,80,127,2580707596
4314,17,Jits_Phase_5,2,5,63,98,2580758524
4314,17,Jits_Phase_5,3,5,56,103,2580787528
4314,17,Jits_Phase_5,0,1,48,49,2581126760
4314,17,Jits_Phase_5,1,5,56,103,2581188016
4314,17,Jits_Phase_5,2,5,80,127,2581198360
4314,17,Jits_Phase_5,3,5,63,98,2581267872
4314,17,Jits_Phase_5,0,1,48,51,2581631516
4314,17,Jits_Phase_5,1,5,56,103,2581697872
4314,17,Jits_Phase_5,2,5,63,98,2581718332
4314,17,Jits_Phase_5,3,5,80,127,2581777804
4314,17,Jits_Phase_5,0,1,48,52,2582128728
4314,17,Jits_Phase_5,1,5,80,127,2582178048
4314,17,Jits_Phase_5,2,5,63,98,2582247664
4314,17,Jits_Phase_5,3,5,56,103,2582268564
4314,17,Jits_Phase_5,0,1,48,54,2582639856
4314,17,Jits_Phase_5,1,5,80,127,2582698496
4314,17,Jits_Phase_5,2,5,56,103,2582707644
4314,17,Jits_Phase_5,3,5,63,98,2582717764
4314,17,Jits_Phase_5,0,1,48,48,2583149644
4314,17,Jits_Phase_5,1,5,80,127,2583187728
4314,17,Jits_Phase_5,2,5,56,103,2583208584
4314,17,Jits_Phase_5,3,5,63,98,2583277872
4314,17,Jits_Phase_5,0,1,48,47,2583647144
4314,17,Jits_Phase_5,1,5,56,103,2583697888
4314,17,Jits_Phase_5,2,5,80,127,2583727588
4314,17,Jits_Phase_5,3,5,63,98,2583747956
4314,17,Jits_Phase_5,0,1,48,46,2584144112
4314,17,Jits_Phase_5,1,5,63,98,2584188496
4314,17,Jits_Phase_5,2,5,56,103,2584247624
4314,17,Jits_Phase_5,3,5,80,127,2584278496
4314,17,Jits_Phase_5,0,1,48,43,2584634568
4314,17,Jits_Phase_5,1,5,63,98,2584677600
4314,17,Jits_Phase_5,2,5,80,127,2584681044
4314,17,Jits_Phase_5,3,5,56,103,2584767892
4314,17,Jits_Phase_5,0,1,48,45,2585134456
4314,17,Jits_Phase_5,1,5,56,103,2585197800
4314,17,Jits_Phase_5,2,5,63,98,2585228504
4314,17,Jits_Phase_5,3,5,80,127,2585267640
4314,17,Jits_Phase_5,0,1,48,49,2585632936
4314,17,Jits_Phase_5,1,5,63,98,2585697624
4314,17,Jits_Phase_5,2,5,56,103,2585737544
4314,17,Jits_Phase_5,3,5,80,127,2585758004
4314,17,Jits_Phase_5,0,1,48,48,2586154632
4314,17,Jits_Phase_5,1,5,63,98,2586207636
4314,17,Jits_Phase_5,2,5,56,103,2586247648
4314,17,Jits_Phase_5,3,5,80,127,2586257756
4314,17,Jits_Phase_5,0,1,48,47,2586668404
4314,17,Jits_Phase_5,1,5,80,127,2586687908
4314,17,Jits_Phase_5,2,5,63,98,2586757440
4314,17,Jits_Phase_5,3,5,56,103,2586778180
4314,17,Jits_Phase_5,0,5,56,103,2587178300
4314,17,Jits_Phase_5,1,1,48,50,2587184856
4314,17,Jits_Phase_5,2,5,80,127,2587197852
4314,17,Jits_Phase_5,3,5,63,98,2587237788
4314,17,Jits_Phase_5,0,1,48,49,2587674496
4314,17,Jits_Phase_5,1,5,63,98,2587688392
4314,17,Jits_Phase_5,2,5,80,127,2587707732
4314,17,Jits_Phase_5,3,5,56,103,2587747740
4314,17,Jits_Phase_5,0,1,48,45,2588170660
4314,17,Jits_Phase_5,1,5,63,98,2588188364
4314,17,Jits_Phase_5,2,5,56,103,2588207328
4314,17,Jits_Phase_5,3,5,80,127,2588217824
4314,17,Jits_Phase_5,0,1,48,48,2588641412
4314,17,Jits_Phase_5,1,5,80,127,2588687736
4314,17,Jits_Phase_5,2,5,56,103,2588708272
4314,17,Jits_Phase_5,3,5,63,98,2588738004
4314,17,Jits_Phase_5,0,1,48,45,2589141084
4314,17,Jits_Phase_5,1,5,56,103,2589258192
4314,17,Jits_Phase_5,2,5,80,127,2589261332
4314,17,Jits_Phase_5,3,5,63,98,2589277528
4314,17,Jits_Phase_5,0,1,48,40,2589662924
4314,17,Jits_Phase_5,1,5,63,98,2589678092
4314,17,Jits_Phase_5,2,5,56,103,2589707616
4314,17,Jits_Phase_5,3,5,80,127,2589768212
4314,17,Jits_Phase_5,0,1,48,44,2590175260
4314,17,Jits_Phase_5,1,5,63,98,2590257556
4314,17,Jits_Phase_5,2,5,56,103,2590267824
4314,17,Jits_Phase_5,3,5,80,127,2590278004
4314,17,Jits_Phase_5,0,1,48,51,2590660560
4314,17,Jits_Phase_5,1,5,56,103,2590718428
4314,17,Jits_Phase_5,2,5,80,127,2590748028
4314,17,Jits_Phase_5,3,5,63,98,2590758444
4314,17,Jits_Phase_5,0,1,48,50,2591169376
4314,17,Jits_Phase_5,1,5,63,98,2591257888
4314,17,Jits_Phase_5,2,5,56,103,2591268292
4314,17,Jits_Phase_5,3,5,80,127,2591287628
4314,17,Jits_Phase_5,0,1,48,50,2591672352
4314,17,Jits_Phase_5,1,5,56,103,2591688336
4314,17,Jits_Phase_5,2,5,63,98,2591747528
4314,17,Jits_Phase_5,3,5,80,127,2591750744
4314,17,Jits_Phase_5,0,1,48,51,2592156868
4314,17,Jits_Phase_5,1,5,80,127,2592208228
4314,17,Jits_Phase_5,2,5,56,103,2592217452
4314,17,Jits_Phase_5,3,5,63,98,2592288388
4314,17,Jits_Phase_5,0,1,48,43,2592693340
4314,17,Jits_Phase_5,1,5,80,127,2592697640
4314,17,Jits_Phase_5,2,5,56,103,2592768368
4314,17,Jits_Phase_5,3,5,63,98,2592777444
4314,17,Jits_Phase_5,0,1,48,40,2593163548
4314,17,Jits_Phase_5,1,5,63,98,2593238448
4314,17,Jits_Phase_5,2,5,56,103,2593247520
4314,17,Jits_Phase_5,3,5,80,127,2593268260
4314,17,Jits_Phase_5,0,1,48,45,2593639104
4314,17,Jits_Phase_5,1,5,80,127,2593687828
4314,17,Jits_Phase_5,2,5,63,98,2593748376
4314,17,Jits_Phase_5,3,5,56,103,2593788236
4314,17,Jits_Phase_5,0,1,48,46,2594125136
4314,17,Jits_Phase_5,1,5,56,103,2594227520
4314,17,Jits_Phase_5,2,5,63,98,2594237864
4314,17,Jits_Phase_5,3,5,80,127,2594277728
4314,17,Jits_Phase_5,0,1,48,46,2594661004
4314,17,Jits_Phase_5,1,5,56,103,2594688376
4314,17,Jits_Phase_5,2,5,80,127,2594718276
4314,17,Jits_Phase_5,3,5,63,98,2594768336
4314,17,Jits_Phase_5,0,1,48,47,2595155128
4314,17,Jits_Phase_5,1,5,56,103,2595228284
4314,17,Jits_Phase_5,2,5,63,98,2595268080
4314,17,Jits_Phase_5,3,5,80,127,2595271444
4314,17,Jits_Phase_5,0,1,48,51,2595638324
4314,17,Jits_Phase_5,1,5,56,103,2595727800
4314,17,Jits_Phase_5,2,5,63,98,2595738204
4314,17,Jits_Phase_5,3,5,80,127,2595757340
4314,17,Jits_Phase_5,0,1,48,47,2596158224
4314,17,Jits_Phase_5,1,5,56,103,2596187464
4314,17,Jits_Phase_5,2,5,80,127,2596190532
4314,17,Jits_Phase_5,3,5,63,98,2596227400
4314,17,Jits_Phase_5,0,1,48,53,2596686060
4314,17,Jits_Phase_5,1,5,63,98,2596728332
4314,17,Jits_Phase_5,2,5,56,103,2596757856
4314,17,Jits_Phase_5,3,5,80,127,2596778560
4314,17,Jits_Phase_5,0,1,48,50,2597182428
4314,17,Jits_Phase_5,1,5,80,127,2597198044
4314,17,Jits_Phase_5,2,5,56,103,2597208540
4314,17,Jits_Phase_5,3,5,63,98,2597217540
4314,17,Jits_Phase_5,0,1,48,50,2597688848
4314,17,Jits_Phase_5,1,5,56,103,2597698160
4314,17,Jits_Phase_5,2,5,80,127,2597737728
4314,17,Jits_Phase_5,3,5,63,98,2597767476
4314,17,Jits_Phase_5,0,1,48,54,2598185588
4314,17,Jits_Phase_5,1,5,63,98,2598207804
4314,17,Jits_Phase_5,2,5,80,127,2598218076
4314,17,Jits_Phase_5,3,5,56,103,2598228420
4314,17,Jits_Phase_5,0,1,48,57,2598639652
4314,17,Jits_Phase_5,1,5,56,103,2598707556
4314,17,Jits_Phase_5,2,5,63,98,2598778268
4314,17,Jits_Phase_5,3,5,80,127,2598787492
4314,17,Jits_Phase_5,0,1,48,48,2599149140
4314,17,Jits_Phase_5,1,5,80,127,2599217420
4314,17,Jits_Phase_5,2,5,56,103,2599227692
4314,17,Jits_Phase_5,3,5,63,98,2599278172
4314,17,Jits_Phase_5,0,1,48,52,2599711968
4314,17,Jits_Phase_5,1,5,80,127,2599727504
4314,17,Jits_Phase_5,2,5,56,103,2599787820
4314,17,Jits_Phase_5,3,5,63,98,2599817480
4314,17,Jits_Phase_5,0,5,56,103,2600228160
4314,17,Jits_Phase_5,1,5,80,127,2600231376
4314,17,Jits_Phase_5,2,1,48,53,2600250384
4314,17,Jits_Phase_5,3,5,63,98,2600268240
4314,17,Jits_Phase_5,0,5,56,103,2600757584
4314,17,Jits_Phase_5,1,1,48,55,2600761748
4314,17,Jits_Phase_5,2,5,63,98,2600788300
4314,17,Jits_Phase_5,3,5,80,127,2600797672
4314,17,Jits_Phase_5,0,1,48,58,2601258444
4314,17,Jits_Phase_5,1,5,63,98,2601267608
4314,17,Jits_Phase_5,2,5,80,127,2601277956
4314,17,Jits_Phase_5,3,5,56,103,2601288148
4314,17,Jits_Phase_5,0,5,80,127,2601717996
4314,17,Jits_Phase_5,1,1,48,57,2601765528
4314,17,Jits_Phase_5,2,5,56,103,2601768180
4314,17,Jits_Phase_5,3,5,63,98,2601771328
4314,17,Jits_Phase_5,0,1,48,59,2602236080
4314,17,Jits_Phase_5,1,5,56,103,2602247560
4314,17,Jits_Phase_5,2,5,80,127,2602268092
4314,17,Jits_Phase_5,3,5,63,98,2602278364
4314,17,Jits_Phase_5,0,1,48,57,2602723676
4314,17,Jits_Phase_5,1,5,63,98,2602728052
4314,17,Jits_Phase_5,2,5,56,103,2602757504
4314,17,Jits_Phase_5,3,5,80,127,2602778184
4314,17,Jits_Phase_5,0,1,48,53,2603198932
4314,17,Jits_Phase_5,1,5,56,103,2603237840
4314,17,Jits_Phase_5,2,5,80,127,2603248036
4314,17,Jits_Phase_5,3,5,63,98,2603317624
4314,17,Jits_Phase_5,0,1,48,59,2603703400
4314,17,Jits_Phase_5,1,5,63,98,2603728300
4314,17,Jits_Phase_5,2,5,80,127,2603768092
4314,17,Jits_Phase_5,3,5,56,103,2603808236
4314,17,Jits_Phase_5,0,1,48,51,2604213108
4314,17,Jits_Phase_5,1,5,56,103,2604238240
4314,17,Jits_Phase_5,2,5,63,98,2604248360
4314,17,Jits_Phase_5,3,5,80,127,2604268072
4314,17,Jits_Phase_5,0,1,48,60,2604688644
4314,17,Jits_Phase_5,1,5,63,98,2604777848
4314,17,Jits_Phase_5,2,5,80,127,2604798440
4314,17,Jits_Phase_5,3,5,56,103,2604817848
4314,17,Jits_Phase_5,0,1,48,54,2605177832
4314,17,Jits_Phase_5,1,5,56,103,2605218164
4314,17,Jits_Phase_5,2,5,80,127,2605298116
4314,17,Jits_Phase_5,3,5,63,98,2605308384
4314,17,Jits_Phase_5,0,1,48,54,2605713760
4314,17,Jits_Phase_5,1,5,80,127,2605757944
4314,17,Jits_Phase_5,2,5,63,98,2605768064
4314,17,Jits_Phase_5,3,5,56,103,2605797888
4314,17,Jits_Phase_5,0,5,63,98,2606217520
4314,17,Jits_Phase_5,1,1,48,37,2606232624
4314,17,Jits_Phase_5,2,5,80,127,2606257476
4314,17,Jits_Phase_5,3,5,56,103,2606318084
4314,17,Jits_Phase_5,0,1,48,25,2606727832
4314,17,Jits_Phase_5,1,5,63,98,2606729248
4314,17,Jits_Phase_5,2,5,56,103,2606777976
4314,17,Jits_Phase_5,3,5,80,127,2606808400
4314,17,Jits_Phase_5,0,5,80,127,2607228332
4314,17,Jits_Phase_5,1,5,63,98,2607237480
4314,17,Jits_Phase_5,2,1,48,37,2607241720
4314,17,Jits_Phase_5,3,5,56,103,2607308072
4314,17,Jits_Phase_5,0,1,48,35,2607713376
4314,17,Jits_Phase_5,1,5,80,127,2607788276
4314,17,Jits_Phase_5,2,5,56,103,2607797572
4314,17,Jits_Phase_5,3,5,63,98,2607801012
4314,17,Jits_Phase_5,0,1,48,27,2608197100
4314,17,Jits_Phase_5,1,5,56,103,2608227912
4314,17,Jits_Phase_5,2,5,80,127,2608248224
4314,17,Jits_Phase_5,3,5,63,98,2608258344
4314,17,Jits_Phase_5,0,1,48,48,2608719768
4314,17,Jits_Phase_5,1,5,63,98,2608738000
4314,17,Jits_Phase_5,2,5,56,103,2608777716
4314,17,Jits_Phase_5,3,5,80,127,2608798104
4314,17,Jits_Phase_5,0,1,48,55,2609214652
4314,17,Jits_Phase_5,1,5,63,98,2609238584
4314,17,Jits_Phase_5,2,1,48,37,2609260944
4314,17,Jits_Phase_5,3,5,56,103,2609297976
4314,17,Jits_Phase_5,4,5,80,127,2609300968
4314,17,Jits_Phase_5,0,5,56,103,2609698208
4314,17,Jits_Phase_5,1,1,48,54,2609712412
4314,17,Jits_Phase_5,2,5,80,127,2609717912
4314,17,Jits_Phase_5,3,1,48,38,2609750236
4314,17,Jits_Phase_5,4,5,63,98,2609757676
4314,17,Jits_Phase_5,0,1,48,48,2610209724
4314,17,Jits_Phase_5,1,5,56,103,2610227660
4314,17,Jits_Phase_5,2,5,63,98,2610248048
4314,17,Jits_Phase_5,3,5,80,127,2610258168
4314,17,Jits_Phase_5,0,5,80,127,2610697680
4314,17,Jits_Phase_5,1,1,48,50,2610718184
4314,17,Jits_Phase_5,2,5,56,103,2610728172
4314,17,Jits_Phase_5,3,5,63,98,2610768108
4314,17,Jits_Phase_5,0,1,48,48,2611193132
4314,17,Jits_Phase_5,1,5,80,127,2611207476
4314,17,Jits_Phase_5,2,5,56,103,2611228084
4314,17,Jits_Phase_5,3,5,63,98,2611288532
4314,17,Jits_Phase_5,0,1,48,56,2611688848
4314,17,Jits_Phase_5,1,5,56,103,2611717420
4314,17,Jits_Phase_5,2,5,80,127,2611738028
4314,17,Jits_Phase_5,3,5,63,98,2611798396
4314,17,Jits_Phase_5,0,1,48,52,2612186948
4314,17,Jits_Phase_5,1,5,80,127,2612197984
4314,17,Jits_Phase_5,2,5,56,103,2612208180
4314,17,Jits_Phase_5,3,5,63,98,2612247968
4314,17,Jits_Phase_5,0,1,48,53,2612684888
4314,17,Jits_Phase_5,1,5,63,98,2612697584
4314,17,Jits_Phase_5,2,5,56,103,2612738416
4314,17,Jits_Phase_5,3,5,80,127,2612741484
4314,17,Jits_Phase_5,0,1,48,52,2613189348
4314,17,Jits_Phase_5,1,5,63,98,2613217772
4314,17,Jits_Phase_5,2,5,80,127,2613257708
4314,17,Jits_Phase_5,3,5,56,103,2613288280
4314,17,Jits_Phase_5,0,1,48,53,2613681908
4314,17,Jits_Phase_5,1,5,56,103,2613708160
4314,17,Jits_Phase_5,2,5,63,98,2613718356
4314,17,Jits_Phase_5,3,5,80,127,2613748028
4314,17,Jits_Phase_5,0,1,48,48,2614167632
4314,17,Jits_Phase_5,1,5,80,127,2614197716
4314,17,Jits_Phase_5,2,5,63,98,2614268356
4314,17,Jits_Phase_5,3,5,56,103,2614277576
4314,17,Jits_Phase_5,0,5,63,98,2614698224
4314,17,Jits_Phase_5,1,1,48,51,2614699636
4314,17,Jits_Phase_5,2,5,56,103,2614768196
4314,17,Jits_Phase_5,3,5,80,127,2614778320
4314,17,Jits_Phase_5,0,5,63,98,2615177724
4314,17,Jits_Phase_5,1,1,48,53,2615180548
4314,17,Jits_Phase_5,2,5,56,103,2615198104
4314,17,Jits_Phase_5,3,1,48,37,2615215848
4314,17,Jits_Phase_5,4,5,80,127,2615238044
4314,17,Jits_Phase_5,0,5,56,103,2615657808
4314,17,Jits_Phase_5,1,1,48,52,2615664436
4314,17,Jits_Phase_5,2,5,63,98,2615668220
4314,17,Jits_Phase_5,3,5,80,127,2615747812
4314,17,Jits_Phase_5,0,1,48,49,2616119924
4314,17,Jits_Phase_5,1,5,63,98,2616148276
4314,17,Jits_Phase_5,2,5,56,103,2616178024
4314,17,Jits_Phase_5,3,5,80,127,2616217872
4314,17,Jits_Phase_5,0,1,48,51,2616599600
4314,17,Jits_Phase_5,1,5,56,103,2616648096
4314,17,Jits_Phase_5,2,5,63,98,2616687964
4314,17,Jits_Phase_5,3,5,80,127,2616727884
4314,17,Jits_Phase_5,0,1,48,47,2617061136
4314,17,Jits_Phase_5,1,1,48,34,2617100224
4314,17,Jits_Phase_5,2,5,80,127,2617147752
4314,17,Jits_Phase_5,3,5,56,103,2617227904
4314,17,Jits_Phase_5,4,5,63,98,2617237952
4314,17,Jits_Phase_5,0,1,48,46,2617552300
4314,17,Jits_Phase_5,1,5,56,103,2617688444
4314,17,Jits_Phase_5,2,5,63,98,2617691736
4314,17,Jits_Phase_5,3,5,80,127,2617697816
4314,17,Jits_Phase_5,0,1,48,48,2618121644
4314,17,Jits_Phase_5,1,5,56,103,2618207832
4314,17,Jits_Phase_5,2,5,63,98,2618228200
4314,17,Jits_Phase_5,3,5,80,127,2618238248
4314,17,Jits_Phase_5,0,1,48,46,2618633460
4314,17,Jits_Phase_5,1,5,63,98,2618668480
4314,17,Jits_Phase_5,2,1,48,32,2618676636
4314,17,Jits_Phase_5,3,5,80,127,2618677980
4314,17,Jits_Phase_5,4,5,56,103,2618698064
4314,17,Jits_Phase_5,0,1,48,47,2619142976
4314,17,Jits_Phase_5,1,5,63,98,2619168036
4314,17,Jits_Phase_5,2,5,56,103,2619248036
4314,17,Jits_Phase_5,3,5,80,127,2619250956
4314,17,Jits_Phase_5,0,1,48,46,2619612460
4314,17,Jits_Phase_5,1,5,63,98,2619667932
4314,17,Jits_Phase_5,2,5,56,103,2619688316
4314,17,Jits_Phase_5,3,5,80,127,2619718196
4314,17,Jits_Phase_5,0,1,48,45,2620133784
4314,17,Jits_Phase_5,1,5,56,103,2620167756
4314,17,Jits_Phase_5,2,5,63,98,2620188140
4314,17,Jits_Phase_5,3,5,80,127,2620198188
4314,17,Jits_Phase_5,0,1,48,47,2620614428
4314,17,Jits_Phase_5,1,5,56,103,2620697928
4314,17,Jits_Phase_5,2,5,63,98,2620727884
4314,17,Jits_Phase_5,3,5,80,127,2620731028
4314,17,Jits_Phase_5,0,1,48,47,2621095976
4314,17,Jits_Phase_5,1,5,56,103,2621147628
4314,17,Jits_Phase_5,2,5,63,98,2621187700
4314,17,Jits_Phase_5,3,5,80,127,2621247864
4314,17,Jits_Phase_5,0,1,48,47,2621601928
4314,17,Jits_Phase_5,1,5,56,103,2621667832
4314,17,Jits_Phase_5,2,5,63,98,2621677880
4314,17,Jits_Phase_5,3,5,80,127,2621738548
4314,17,Jits_Phase_5,0,1,48,51,2622102192
4314,17,Jits_Phase_5,1,5,56,103,2622168700
4314,17,Jits_Phase_5,2,5,80,127,2622187888
4314,17,Jits_Phase_5,3,5,63,98,2622217772
4314,17,Jits_Phase_5,0,1,48,53,2622607420
4314,17,Jits_Phase_5,1,1,48,36,2622645780
4314,17,Jits_Phase_5,2,5,80,127,2622668052
4314,17,Jits_Phase_5,3,5,56,103,2622678620
4314,17,Jits_Phase_5,4,5,63,98,2622697960
4314,17,Jits_Phase_5,0,1,48,55,2623126148
4314,17,Jits_Phase_5,1,5,63,98,2623157736
4314,17,Jits_Phase_5,2,5,80,127,2623237664
4314,17,Jits_Phase_5,3,5,56,103,2623247932
4314,17,Jits_Phase_5,0,1,48,57,2623633904
4314,17,Jits_Phase_5,1,1,48,40,2623681336
4314,17,Jits_Phase_5,2,5,80,127,2623747520
4314,17,Jits_Phase_5,3,5,56,103,2623767904
4314,17,Jits_Phase_5,4,5,63,98,2623770972
4314,17,Jits_Phase_5,0,1,48,59,2624137584
4314,17,Jits_Phase_5,1,1,48,44,2624182752
4314,17,Jits_Phase_5,2,5,63,98,2624248188
4314,17,Jits_Phase_5,3,5,80,127,2624251624
4314,17,Jits_Phase_5,4,5,56,103,2624307512
4314,17,Jits_Phase_5,0,5,56,103,2624728508
4314,17,Jits_Phase_5,1,5,80,127,2624737656
4314,17,Jits_Phase_5,2,1,48,61,2624749620
4314,17,Jits_Phase_5,3,5,63,98,2624777660
4314,17,Jits_Phase_5,4,1,48,42,2624789452
4314,17,Jits_Phase_5,0,5,56,103,2625207624
4314,17,Jits_Phase_5,1,1,48,54,2625245120
4314,17,Jits_Phase_5,2,5,63,98,2625268008
4314,17,Jits_Phase_5,3,5,80,127,2625278572
4314,17,Jits_Phase_5,0,1,48,58,2625709672
4314,17,Jits_Phase_5,1,5,63,98,2625717792
4314,17,Jits_Phase_5,2,1,48,43,2625738280
4314,17,Jits_Phase_5,3,5,80,127,2625757780
4314,17,Jits_Phase_5,4,5,56,103,2625797496
4314,17,Jits_Phase_5,0,1,48,58,2626187928
4314,17,Jits_Phase_5,1,5,56,103,2626227760
4314,17,Jits_Phase_5,2,5,63,98,2626307916
4314,17,Jits_Phase_5,3,5,80,127,2626310976
4314,17,Jits_Phase_5,0,1,48,56,2626703020
4314,17,Jits_Phase_5,1,5,80,127,2626787664
4314,17,Jits_Phase_5,2,5,56,103,2626818668
4314,17,Jits_Phase_5,3,5,63,98,2626821808
4314,17,Jits_Phase_5,0,1,48,60,2627231608
4314,17,Jits_Phase_5,1,5,56,103,2627247696
4314,17,Jits_Phase_5,2,1,48,46,2627258972
4314,17,Jits_Phase_5,3,5,80,127,2627267912
4314,17,Jits_Phase_5,4,5,63,98,2627307848
4314,17,Jits_Phase_5,0,1,48,55,2627717012
4314,17,Jits_Phase_5,1,5,80,127,2627727676
4314,17,Jits_Phase_5,2,5,63,98,2627748236
4314,17,Jits_Phase_5,3,5,56,103,2627807576
4314,17,Jits_Phase_5,0,1,48,56,2628234584
4314,17,Jits_Phase_5,1,5,63,98,2628237688
4314,17,Jits_Phase_5,2,5,56,103,2628247884
4314,17,Jits_Phase_5,3,1,48,41,2628271984
4314,17,Jits_Phase_5,4,5,80,127,2628298012
4314,17,Jits_Phase_5,0,5,56,103,2628728552
4314,17,Jits_Phase_5,1,1,48,61,2628738572
4314,17,Jits_Phase_5,2,5,63,98,2628747512
4314,17,Jits_Phase_5,3,5,80,127,2628757780
4314,17,Jits_Phase_5,4,1,48,44,2628776128
4314,17,Jits_Phase_5,0,1,48,57,2629202604
4314,17,Jits_Phase_5,1,5,56,103,2629217620
4314,17,Jits_Phase_5,2,5,63,98,2629220688
4314,17,Jits_Phase_5,3,1,48,41,2629236776
4314,17,Jits_Phase_5,4,5,80,127,2629238132
4314,17,Jits_Phase_5,0,1,48,59,2629684388
4314,17,Jits_Phase_5,1,1,48,41,2629718908
4314,17,Jits_Phase_5,2,5,63,98,2629758340
4314,17,Jits_Phase_5,3,5,56,103,2629787940
4314,17,Jits_Phase_5,4,5,80,127,2629817624
4314,17,Jits_Phase_5,0,1,48,60,2630174952
4314,17,Jits_Phase_5,1,1,48,43,2630213212
4314,17,Jits_Phase_5,2,5,80,127,2630228528
4314,17,Jits_Phase_5,3,5,56,103,2630317472
4314,17,Jits_Phase_5,4,5,63,98,2630320464
4314,17,Jits_Phase_5,0,5,56,103,2630728104
4314,17,Jits_Phase_5,1,5,80,127,2630731024
4314,17,Jits_Phase_5,2,1,48,63,2630732432
4314,17,Jits_Phase_5,3,1,48,40,2630772852
4314,17,Jits_Phase_5,4,5,63,98,2630807792
4314,17,Jits_Phase_5,0,5,80,127,2631227884
4314,17,Jits_Phase_5,1,1,48,65,2631244260
4314,17,Jits_Phase_5,2,1,48,46,2631283720
4314,17,Jits_Phase_5,3,5,63,98,2631288320
4314,17,Jits_Phase_5,4,5,56,103,2631317992
4314,17,Jits_Phase_5,0,5,63,98,2631727532
4314,17,Jits_Phase_5,1,1,48,65,2631733344
4314,17,Jits_Phase_5,2,5,80,127,2631737648
4314,17,Jits_Phase_5,3,1,48,47,2631769592
4314,17,Jits_Phase_5,4,5,56,103,2631808496
4314,17,Jits_Phase_5,0,1,48,66,2632217092
4314,17,Jits_Phase_5,1,1,48,46,2632261264
4314,17,Jits_Phase_5,2,5,56,103,2632287668
4314,17,Jits_Phase_5,3,5,80,127,2632318312
4314,17,Jits_Phase_5,4,5,63,98,2632367552
4314,17,Jits_Phase_5,0,1,48,71,2632734380
4314,17,Jits_Phase_5,1,1,48,50,2632780740
4314,17,Jits_Phase_5,2,5,63,98,2632877280
4314,17,Jits_Phase_5,3,5,56,103,2632908076
4314,17,Jits_Phase_5,4,5,80,127,2632911068
4314,17,Jits_Phase_5,0,1,48,64,2633321820
4314,17,Jits_Phase_5,1,1,48,47,2633370948
4314,17,Jits_Phase_5,2,5,63,98,2633378316
4314,17,Jits_Phase_5,3,5,80,127,2633397528
4314,17,Jits_Phase_5,4,5,56,103,2633407800
4314,17,Jits_Phase_5,0,1,48,65,2633852308
4314,17,Jits_Phase_5,1,5,56,103,2633888224
4314,17,Jits_Phase_5,2,1,48,48,2633890844
4314,17,Jits_Phase_5,3,5,63,98,2633893364
4314,17,Jits_Phase_5,4,5,80,127,2633907616
4314,17,Jits_Phase_5,0,5,56,103,2634337636
4314,17,Jits_Phase_5,1,1,48,62,2634344496
4314,17,Jits_Phase_5,2,5,63,98,2634347752
4314,17,Jits_Phase_5,3,1,48,45,2634376044
4314,17,Jits_Phase_5,4,5,80,127,2634377480
4314,17,Jits_Phase_5,0,1,48,63,2634854916
4314,17,Jits_Phase_5,1,5,63,98,2634857800
4314,17,Jits_Phase_5,2,5,80,127,2634878256
4314,17,Jits_Phase_5,3,1,48,48,2634890280
4314,17,Jits_Phase_5,4,5,56,103,2634918348
4314,17,Jits_Phase_5,0,1,48,58,2635334092
4314,17,Jits_Phase_5,1,1,48,44,2635364336
4314,17,Jits_Phase_5,2,5,56,103,2635388196
4314,17,Jits_Phase_5,3,5,63,98,2635428232
4314,17,Jits_Phase_5,4,5,80,127,2635431376
4314,17,Jits_Phase_5,0,1,48,58,2635817624
4314,17,Jits_Phase_5,1,5,80,127,2635827536
4314,17,Jits_Phase_5,2,1,48,44,2635848396
4314,17,Jits_Phase_5,3,5,56,103,2635867452
4314,17,Jits_Phase_5,4,5,63,98,2635917724
4314,17,Jits_Phase_5,0,1,48,55,2636289668
4314,17,Jits_Phase_5,1,5,56,103,2636387828
4314,17,Jits_Phase_5,2,5,80,127,2636398024
4314,17,Jits_Phase_5,3,5,63,98,2636427620
4314,17,Jits_Phase_5,0,1,48,59,2636818796
4314,17,Jits_Phase_5,1,5,56,103,2636838444
4314,17,Jits_Phase_5,2,1,48,47,2636853908
4314,17,Jits_Phase_5,3,5,80,127,2636878436
4314,17,Jits_Phase_5,4,5,63,98,2636928488
4314,17,Jits_Phase_5,0,1,48,58,2637324932
4314,17,Jits_Phase_5,1,5,56,103,2637338076
4314,17,Jits_Phase_5,2,1,48,45,2637357372
4314,17,Jits_Phase_5,3,5,80,127,2637377992
4314,17,Jits_Phase_5,4,5,63,98,2637428044
4314,17,Jits_Phase_5,0,5,80,127,2637827376
4314,17,Jits_Phase_5,1,1,48,56,2637836944
4314,17,Jits_Phase_5,2,1,48,44,2637869432
4314,17,Jits_Phase_5,3,5,63,98,2637908264
4314,17,Jits_Phase_5,4,5,56,103,2637917412
4314,17,Jits_Phase_5,0,1,48,62,2638367368
4314,17,Jits_Phase_5,1,5,80,127,2638378404
4314,17,Jits_Phase_5,2,5,56,103,2638387480
4314,17,Jits_Phase_5,3,5,63,98,2638408236
4314,17,Jits_Phase_5,4,1,48,47,2638412756
4314,17,Jits_Phase_5,0,1,48,59,2638846408
4314,17,Jits_Phase_5,1,5,63,98,2638848296
4314,17,Jits_Phase_5,2,1,48,46,2638879124
4314,17,Jits_Phase_5,3,5,56,103,2638918176
4314,17,Jits_Phase_5,4,5,80,127,2638921168
4314,17,Jits_Phase_5,0,5,80,127,2639337812
4314,17,Jits_Phase_5,1,1,48,64,2639356892
4314,17,Jits_Phase_5,2,5,63,98,2639388228
4314,17,Jits_Phase_5,3,1,48,46,2639393428
4314,17,Jits_Phase_5,4,5,56,103,2639428144
4314,17,Jits_Phase_5,0,1,48,62,2639867028
4314,17,Jits_Phase_5,1,5,63,98,2639877612
4314,17,Jits_Phase_5,2,1,48,42,2639908732
4314,17,Jits_Phase_5,3,5,56,103,2639917380
4314,17,Jits_Phase_5,4,5,80,127,2639927872
4314,17,Jits_Phase_5,0,1,48,59,2640352116
4314,17,Jits_Phase_5,1,5,63,98,2640368252
4314,17,Jits_Phase_5,2,5,56,103,2640387296
4314,17,Jits_Phase_5,3,1,48,44,2640392716
4314,17,Jits_Phase_5,4,5,80,127,2640408100
4314,17,Jits_Phase_5,0,5,80,127,2640827736
4314,17,Jits_Phase_5,1,5,56,103,2640837932
4314,17,Jits_Phase_5,2,1,48,63,2640842024
4314,17,Jits_Phase_5,3,5,63,98,2640857484
4314,17,Jits_Phase_5,4,1,48,48,2640879316
4314,17,Jits_Phase_5,0,1,48,64,2641316040
4314,17,Jits_Phase_5,1,1,48,49,2641351664
4314,17,Jits_Phase_5,2,5,63,98,2641358064
4314,17,Jits_Phase_5,3,5,56,103,2641398152
4314,17,Jits_Phase_5,4,5,80,127,2641427828
4314,17,Jits_Phase_5,0,5,56,103,2641818140
4314,17,Jits_Phase_5,1,1,48,61,2641825524
4314,17,Jits_Phase_5,2,5,63,98,2641847612
4314,17,Jits_Phase_5,3,1,48,43,2641865932
4314,17,Jits_Phase_5,4,5,80,127,2641878312
4314,17,Jits_Phase_5,0,5,80,127,2642238084
4314,17,Jits_Phase_5,1,1,48,59,2642279864
4314,17,Jits_Phase_5,2,5,56,103,2642307304
4314,17,Jits_Phase_5,3,5,63,98,2642310376
4314,17,Jits_Phase_5,4,1,48,48,2642314452
4314,17,Jits_Phase_5,0,5,56,103,2642747688
4314,17,Jits_Phase_5,1,1,48,61,2642751780
4314,17,Jits_Phase_5,2,1,48,43,2642792660
4314,17,Jits_Phase_5,3,5,63,98,2642798232
4314,17,Jits_Phase_5,4,5,80,127,2642827608
4314,17,Jits_Phase_5,0,5,63,98,2643228296
4314,17,Jits_Phase_5,1,5,80,127,2643231584
4314,17,Jits_Phase_5,2,1,48,58,2643256292
4314,17,Jits_Phase_5,3,5,56,103,2643288452
4314,17,Jits_Phase_5,4,1,48,43,2643299872
4314,17,Jits_Phase_5,0,1,48,60,2643721208
4314,17,Jits_Phase_5,1,1,48,45,2643756208
4314,17,Jits_Phase_5,2,5,56,103,2643757480
4314,17,Jits_Phase_5,3,5,80,127,2643767528
4314,17,Jits_Phase_5,4,5,63,98,2643818100
4314,17,Jits_Phase_5,0,1,48,56,2644187436
4314,17,Jits_Phase_5,1,1,48,40,2644223216
4314,17,Jits_Phase_5,2,5,63,98,2644227444
4314,17,Jits_Phase_5,3,5,56,103,2644237640
4314,17,Jits_Phase_5,4,5,80,127,2644268360
4314,17,Jits_Phase_5,0,1,48,54,2644667056
4314,17,Jits_Phase_5,1,1,48,39,2644702464
4314,17,Jits_Phase_5,2,5,63,98,2644758308
4314,17,Jits_Phase_5,3,5,80,127,2644761444
4314,17,Jits_Phase_5,4,5,56,103,2644787604
4314,17,Jits_Phase_5,0,1,48,54,2645199484
4314,17,Jits_Phase_5,1,1,48,36,2645236180
4314,17,Jits_Phase_5,2,5,63,98,2645278156
4314,17,Jits_Phase_5,3,5,56,103,2645297412
4314,17,Jits_Phase_5,4,5,80,127,2645300560
4314,17,Jits_Phase_5,0,1,48,56,2645702848
4314,17,Jits_Phase_5,1,1,48,38,2645739196
4314,17,Jits_Phase_5,2,5,63,98,2645740236
4314,17,Jits_Phase_5,3,5,56,103,2645807376
4314,17,Jits_Phase_5,4,5,80,127,2645828056
4314,17,Jits_Phase_5,0,1,48,55,2646213340
4314,17,Jits_Phase_5,1,5,56,103,2646228284
4314,17,Jits_Phase_5,2,5,63,98,2646237432
4314,17,Jits_Phase_5,3,5,80,127,2646327768
4314,17,Jits_Phase_5,0,1,48,58,2646727556
4314,17,Jits_Phase_5,1,5,56,103,2646747584
4314,17,Jits_Phase_5,2,1,48,40,2646766500
4314,17,Jits_Phase_5,3,5,80,127,2646787428
4314,17,Jits_Phase_5,4,5,63,98,2646797624
4314,17,Jits_Phase_5,0,1,48,57,2647238800
4314,17,Jits_Phase_5,1,5,56,103,2647267968
4314,17,Jits_Phase_5,2,5,63,98,2647298464
4314,17,Jits_Phase_5,3,5,80,127,2647328064
4314,17,Jits_Phase_5,0,5,80,127,2647727572
4314,17,Jits_Phase_5,1,1,48,57,2647761776
4314,17,Jits_Phase_5,2,5,63,98,2647768328
4314,17,Jits_Phase_5,3,5,56,103,2647787960
4314,17,Jits_Phase_5,4,1,48,40,2647805888
4314,17,Jits_Phase_5,0,1,48,62,2648238792
4314,17,Jits_Phase_5,1,5,56,103,2648268188
4314,17,Jits_Phase_5,2,1,48,45,2648276320
4314,17,Jits_Phase_5,3,5,80,127,2648287504
4314,17,Jits_Phase_5,4,5,63,98,2648308184
4314,17,Jits_Phase_5,0,1,48,61,2648734420
4314,17,Jits_Phase_5,1,5,63,98,2648738128
4314,17,Jits_Phase_5,2,5,56,103,2648748396
4314,17,Jits_Phase_5,3,1,48,43,2648773296
4314,17,Jits_Phase_5,4,5,80,127,2648808236
4314,17,Jits_Phase_5,0,1,48,60,2649232004
4314,17,Jits_Phase_5,1,5,56,103,2649238028
4314,17,Jits_Phase_5,2,1,48,41,2649271576
4314,17,Jits_Phase_5,3,5,63,98,2649307712
4314,17,Jits_Phase_5,4,5,80,127,2649327948
4314,17,Jits_Phase_5,0,5,56,103,2649737592
4314,17,Jits_Phase_5,1,1,48,57,2649753588
4314,17,Jits_Phase_5,2,5,63,98,2649768408
4314,17,Jits_Phase_5,3,1,48,38,2649791516
4314,17,Jits_Phase_5,4,5,80,127,2649808172
4314,17,Jits_Phase_5,0,5,63,98,2650228020
4314,17,Jits_Phase_5,1,1,48,57,2650250016
4314,17,Jits_Phase_5,2,5,56,103,2650278240
4314,17,Jits_Phase_5,3,5,80,127,2650287464
4314,17,Jits_Phase_5,4,1,48,37,2650295276
4314,17,Jits_Phase_5,0,1,48,60,2650754872
4314,17,Jits_Phase_5,1,5,56,103,2650767944
4314,17,Jits_Phase_5,2,1,48,42,2650798048
4314,17,Jits_Phase_5,3,5,63,98,2650818000
4314,17,Jits_Phase_5,4,5,80,127,2650828120
4314,17,Jits_Phase_5,0,5,56,103,2651237844
4314,17,Jits_Phase_5,1,5,63,98,2651247888
4314,17,Jits_Phase_5,2,1,48,61,2651269960
4314,17,Jits_Phase_5,3,1,48,43,2651308548
4314,17,Jits_Phase_5,4,5,80,127,2651328048
4314,17,Jits_Phase_5,0,9999,9999,9999,2566975560
4314,17,Jits_Phase_5,1,9999,9999,9999,2567475272
4314,17,Jits_Phase_5,2,9999,9999,9999,2567976044
4314,17,Jits_Phase_5,3,9999,9999,9999,2568475768
4314,17,Jits_Phase_5,4,9999,9999,9999,2568975460
4314,17,Jits_Phase_5,5,9999,9999,9999,2569475140
4314,17,Jits_Phase_5,6,9999,9999,9999,2569975932
4314,17,Jits_Phase_5,7,9999,9999,9999,2570475604
4314,17,Jits_Phase_5,8,9999,9999,9999,2570975356
4314,17,Jits_Phase_5,9,9999,9999,9999,2571476076
4314,17,Jits_Phase_5,10,9999,9999,9999,2571975744
4314,17,Jits_Phase_5,11,9999,9999,9999,2572475496
4314,17,Jits_Phase_5,12,9999,9999,9999,2572975168
4314,17,Jits_Phase_5,13,9999,9999,9999,2573475936
4314,17,Jits_Phase_5,14,9999,9999,9999,2573975664
4314,17,Jits_Phase_5,15,9999,9999,9999,2574475352
4314,17,Jits_Phase_5,16,9999,9999,9999,2574976072
4314,17,Jits_Phase_5,17,9999,9999,9999,2575486008
4314,17,Jits_Phase_5,18,9999,9999,9999,2575985756
4314,17,Jits_Phase_5,19,9999,9999,9999,2576485428
4314,17,Jits_Phase_5,20,9999,9999,9999,2576985180
4314,17,Jits_Phase_5,21,9999,9999,9999,2577485900
4314,17,Jits_Phase_5,22,9999,9999,9999,2577985648
4314,17,Jits_Phase_5,23,9999,9999,9999,2578485324
4314,17,Jits_Phase_5,24,9999,9999,9999,2578986048
4314,17,Jits_Phase_5,25,9999,9999,9999,2579485800
4314,17,Jits_Phase_5,26,9999,9999,9999,2579985480
4314,17,Jits_Phase_5,27,9999,9999,9999,2580485216
4314,17,Jits_Phase_5,28,9999,9999,9999,2580985956
4314,17,Jits_Phase_5,29,9999,9999,9999,2581485624
4314,17,Jits_Phase_5,30,9999,9999,9999,2581975112
4314,17,Jits_Phase_5,31,9999,9999,9999,2582475836
4314,17,Jits_Phase_5,32,9999,9999,9999,2582975580
4314,17,Jits_Phase_5,33,9999,9999,9999,2583475252
4314,17,Jits_Phase_5,34,9999,9999,9999,2583976048
4314,17,Jits_Phase_5,35,9999,9999,9999,2584475700
4314,17,Jits_Phase_5,36,9999,9999,9999,2584975432
4314,17,Jits_Phase_5,37,9999,9999,9999,2585475184
4314,17,Jits_Phase_5,38,9999,9999,9999,2585975908
4314,17,Jits_Phase_5,39,9999,9999,9999,2586475584
4314,17,Jits_Phase_5,40,9999,9999,9999,2586975336
4314,17,Jits_Phase_5,41,9999,9999,9999,2587476052
4314,17,Jits_Phase_5,42,9999,9999,9999,2587975740
4314,17,Jits_Phase_5,43,9999,9999,9999,2588475488
4314,17,Jits_Phase_5,44,9999,9999,9999,2588975160
4314,17,Jits_Phase_5,45,9999,9999,9999,2589475956
4314,17,Jits_Phase_5,46,9999,9999,9999,2589975628
4314,17,Jits_Phase_5,47,9999,9999,9999,2590475384
4314,17,Jits_Phase_5,48,9999,9999,9999,2590985324
4314,17,Jits_Phase_5,49,9999,9999,9999,2591486056
4314,17,Jits_Phase_5,50,9999,9999,9999,2591985792
4314,17,Jits_Phase_5,51,9999,9999,9999,2592485468
4314,17,Jits_Phase_5,52,9999,9999,9999,2592985144
4314,17,Jits_Phase_5,53,9999,9999,9999,2593485940
4314,17,Jits_Phase_5,54,9999,9999,9999,2593985616
4314,17,Jits_Phase_5,55,9999,9999,9999,2594485368
4314,17,Jits_Phase_5,56,9999,9999,9999,2594986088
4314,17,Jits_Phase_5,57,9999,9999,9999,2595485808
4314,17,Jits_Phase_5,58,9999,9999,9999,2595985480
4314,17,Jits_Phase_5,59,9999,9999,9999,2596485216
4314,17,Jits_Phase_5,60,9999,9999,9999,2596985940
4314,17,Jits_Phase_5,61,9999,9999,9999,2597485688
4314,17,Jits_Phase_5,62,9999,9999,9999,2597985364
4314,17,Jits_Phase_5,63,9999,9999,9999,2598486084
4314,17,Jits_Phase_5,64,9999,9999,9999,2599015504
4314,17,Jits_Phase_5,65,9999,9999,9999,2599515252
4314,17,Jits_Phase_5,66,9999,9999,9999,2600015980
4314,17,Jits_Phase_5,67,9999,9999,9999,2600515644
4314,17,Jits_Phase_5,68,9999,9999,9999,2601015408
4314,17,Jits_Phase_5,69,9999,9999,9999,2601515104
4314,17,Jits_Phase_5,70,9999,9999,9999,2602015816
4314,17,Jits_Phase_5,71,9999,9999,9999,2602515580
4314,17,Jits_Phase_5,72,9999,9999,9999,2603015252
4314,17,Jits_Phase_5,73,9999,9999,9999,2603515976
4314,17,Jits_Phase_5,74,9999,9999,9999,2604015728
4314,17,Jits_Phase_5,75,9999,9999,9999,2604515400
4314,17,Jits_Phase_5,76,9999,9999,9999,2605015152
4314,17,Jits_Phase_5,77,9999,9999,9999,2605515876
4314,17,Jits_Phase_5,78,9999,9999,9999,2606015552
4314,17,Jits_Phase_5,79,9999,9999,9999,2606515300
4314,17,Jits_Phase_5,80,9999,9999,9999,2607016024
4314,17,Jits_Phase_5,81,9999,9999,9999,2607495224
4314,17,Jits_Phase_5,82,9999,9999,9999,2607995960
4314,17,Jits_Phase_5,83,9999,9999,9999,2608495708
4314,17,Jits_Phase_5,84,9999,9999,9999,2608995392
4314,17,Jits_Phase_5,85,9999,9999,9999,2609495116
4314,17,Jits_Phase_5,86,9999,9999,9999,2609995864
4314,17,Jits_Phase_5,87,9999,9999,9999,2610495608
4314,17,Jits_Phase_5,88,9999,9999,9999,2610995284
4314,17,Jits_Phase_5,89,9999,9999,9999,2611496024
4314,17,Jits_Phase_5,90,9999,9999,9999,2611995700
4314,17,Jits_Phase_5,91,9999,9999,9999,2612495448
4314,17,Jits_Phase_5,92,9999,9999,9999,2612995184
4314,17,Jits_Phase_5,93,9999,9999,9999,2613495908
4314,17,Jits_Phase_5,94,9999,9999,9999,2613995584
4314,17,Jits_Phase_5,95,9999,9999,9999,2614495332
4314,17,Jits_Phase_5,96,9999,9999,9999,2614996056
4314,17,Jits_Phase_5,97,9999,9999,9999,2615445568
4314,17,Jits_Phase_5,98,9999,9999,9999,2615945300
4314,17,Jits_Phase_5,99,9999,9999,9999,2616446036
4314,17,Jits_Phase_5,100,9999,9999,9999,2616945784
4314,17,Jits_Phase_5,101,9999,9999,9999,2617445444
4314,17,Jits_Phase_5,102,9999,9999,9999,2617945160
4314,17,Jits_Phase_5,103,9999,9999,9999,2618445888
4314,17,Jits_Phase_5,104,9999,9999,9999,2618945616
4314,17,Jits_Phase_5,105,9999,9999,9999,2619445340
4314,17,Jits_Phase_5,106,9999,9999,9999,2619946064
4314,17,Jits_Phase_5,107,9999,9999,9999,2620445816
4314,17,Jits_Phase_5,108,9999,9999,9999,2620945492
4314,17,Jits_Phase_5,109,9999,9999,9999,2621445244
4314,17,Jits_Phase_5,110,9999,9999,9999,2621945968
4314,17,Jits_Phase_5,111,9999,9999,9999,2622445636
4314,17,Jits_Phase_5,112,9999,9999,9999,2622945360
4314,17,Jits_Phase_5,113,9999,9999,9999,2623446136
4314,17,Jits_Phase_5,114,9999,9999,9999,2624005192
4314,17,Jits_Phase_5,115,9999,9999,9999,2624505936
4314,17,Jits_Phase_5,116,9999,9999,9999,2625005640
4314,17,Jits_Phase_5,117,9999,9999,9999,2625505380
4314,17,Jits_Phase_5,118,9999,9999,9999,2626006092
4314,17,Jits_Phase_5,119,9999,9999,9999,2626516076
4314,17,Jits_Phase_5,120,9999,9999,9999,2627015748
4314,17,Jits_Phase_5,121,9999,9999,9999,2627515476
4314,17,Jits_Phase_5,122,9999,9999,9999,2628015200
4314,17,Jits_Phase_5,123,9999,9999,9999,2628515900
4314,17,Jits_Phase_5,124,9999,9999,9999,2629015648
4314,17,Jits_Phase_5,125,9999,9999,9999,2629515348
4314,17,Jits_Phase_5,126,9999,9999,9999,2630016100
4314,17,Jits_Phase_5,127,9999,9999,9999,2630526060
4314,17,Jits_Phase_5,128,9999,9999,9999,2631025752
4314,17,Jits_Phase_5,129,9999,9999,9999,2631525472
4314,17,Jits_Phase_5,130,9999,9999,9999,2632025188
4314,17,Jits_Phase_5,131,9999,9999,9999,2632625232
4314,17,Jits_Phase_5,132,9999,9999,9999,2633125980
4314,17,Jits_Phase_5,133,9999,9999,9999,2633625664
4314,17,Jits_Phase_5,134,9999,9999,9999,2634125404
4314,17,Jits_Phase_5,135,9999,9999,9999,2634625104
4314,17,Jits_Phase_5,136,9999,9999,9999,2635125872
4314,17,Jits_Phase_5,137,9999,9999,9999,2635625576
4314,17,Jits_Phase_5,138,9999,9999,9999,2636125272
4314,17,Jits_Phase_5,139,9999,9999,9999,2636625976
4314,17,Jits_Phase_5,140,9999,9999,9999,2637125704
4314,17,Jits_Phase_5,141,9999,9999,9999,2637625408
4314,17,Jits_Phase_5,142,9999,9999,9999,2638125112
4314,17,Jits_Phase_5,143,9999,9999,9999,2638625880
4314,17,Jits_Phase_5,144,9999,9999,9999,2639125580
4314,17,Jits_Phase_5,145,9999,9999,9999,2639625288
4314,17,Jits_Phase_5,146,9999,9999,9999,2640126060
4314,17,Jits_Phase_5,147,9999,9999,9999,2640625768
4314,17,Jits_Phase_5,148,9999,9999,9999,2641125468
4314,17,Jits_Phase_5,149,9999,9999,9999,2641625192
4314,17,Jits_Phase_5,150,9999,9999,9999,2642025536
4314,17,Jits_Phase_5,151,9999,9999,9999,2642525248
4314,17,Jits_Phase_5,152,9999,9999,9999,2643026016
4314,17,Jits_Phase_5,153,9999,9999,9999,2643525720
4314,17,Jits_Phase_5,154,9999,9999,9999,2644025428
4314,17,Jits_Phase_5,155,9999,9999,9999,2644525128
4314,17,Jits_Phase_5,156,9999,9999,9999,2645025868
4314,17,Jits_Phase_5,157,9999,9999,9999,2645525568
4314,17,Jits_Phase_5,158,9999,9999,9999,2646025272
4314,17,Jits_Phase_5,159,9999,9999,9999,2646526044
4314,17,Jits_Phase_5,160,9999,9999,9999,2647025772
4314,17,Jits_Phase_5,161,9999,9999,9999,2647525428
4314,17,Jits_Phase_5,162,9999,9999,9999,2648025156
4314,17,Jits_Phase_5,163,9999,9999,9999,2648525924
4314,17,Jits_Phase_5,164,9999,9999,9999,2649025600
4314,17,Jits_Phase_5,165,9999,9999,9999,2649525312
4314,17,Jits_Phase_5,166,9999,9999,9999,2650026060
4314,17,Jits_Phase_5,167,9999,9999,9999,2650525756
4314,17,Jits_Phase_5,168,9999,9999,9999,2651025532
4314,17,Jits_Phase_5,169,9999,9999,9999,2651525240
4315,15,Jits_Phase_8,0,5,56,103,2661807740
4315,15,Jits_Phase_8,1,5,63,98,2661810840
4315,15,Jits_Phase_8,2,5,80,127,2661813960
4315,15,Jits_Phase_8,0,1,48,14,2662499752
4315,15,Jits_Phase_8,1,5,56,103,2662608180
4315,15,Jits_Phase_8,2,5,63,98,2662611284
4315,15,Jits_Phase_8,3,5,80,127,2662614408
4315,15,Jits_Phase_8,0,5,80,127,2663347724
4315,15,Jits_Phase_8,1,1,48,43,2663408684
4315,15,Jits_Phase_8,2,5,63,98,2663437704
4315,15,Jits_Phase_8,3,5,56,103,2663447896
4315,15,Jits_Phase_8,0,1,48,40,2664166056
4315,15,Jits_Phase_8,1,5,56,103,2664167720
4315,15,Jits_Phase_8,2,5,63,98,2664178064
4315,15,Jits_Phase_8,3,5,80,127,2664268108
4315,15,Jits_Phase_8,0,1,48,44,2664935836
4315,15,Jits_Phase_8,1,5,63,98,2664937800
4315,15,Jits_Phase_8,2,5,80,127,2664967772
4315,15,Jits_Phase_8,3,5,56,103,2664998348
4315,15,Jits_Phase_8,0,1,48,48,2665668076
4315,15,Jits_Phase_8,1,5,56,103,2665737628
4315,15,Jits_Phase_8,2,5,80,127,2665837788
4315,15,Jits_Phase_8,3,5,63,98,2665887988
4315,15,Jits_Phase_8,0,5,56,103,2666538440
4315,15,Jits_Phase_8,1,5,80,127,2666587524
4315,15,Jits_Phase_8,2,1,48,41,2666612816
4315,15,Jits_Phase_8,3,5,63,98,2666627528
4315,15,Jits_Phase_8,0,1,48,46,2667259284
4315,15,Jits_Phase_8,1,5,80,127,2667367708
4315,15,Jits_Phase_8,2,5,63,98,2667397680
4315,15,Jits_Phase_8,3,5,56,103,2667468136
4315,15,Jits_Phase_8,0,1,48,48,2668040532
4315,15,Jits_Phase_8,1,5,63,98,2668198208
4315,15,Jits_Phase_8,2,5,56,103,2668227884
4315,15,Jits_Phase_8,3,5,80,127,2668288424
4315,15,Jits_Phase_8,0,5,56,103,2668937724
4315,15,Jits_Phase_8,1,5,80,127,2668940792
4315,15,Jits_Phase_8,2,1,48,32,2668953952
4315,15,Jits_Phase_8,3,5,63,98,2669058500
4315,15,Jits_Phase_8,0,1,48,38,2669649948
4315,15,Jits_Phase_8,1,5,56,103,2669818404
4315,15,Jits_Phase_8,2,5,80,127,2669858344
4315,15,Jits_Phase_8,3,5,63,98,2669868692
4315,15,Jits_Phase_8,0,5,56,103,2670578108
4315,15,Jits_Phase_8,1,1,48,49,2670597148
4315,15,Jits_Phase_8,2,5,80,127,2670598784
4315,15,Jits_Phase_8,3,5,63,98,2670678652
4315,15,Jits_Phase_8,0,5,80,127,2671367464
4315,15,Jits_Phase_8,1,1,48,57,2671396212
4315,15,Jits_Phase_8,2,5,56,103,2671467932
4315,15,Jits_Phase_8,3,5,63,98,2671478128
4315,15,Jits_Phase_8,0,1,48,54,2672122928
4315,15,Jits_Phase_8,1,5,63,98,2672137792
4315,15,Jits_Phase_8,2,5,80,127,2672198036
4315,15,Jits_Phase_8,3,5,56,103,2672208452
4315,15,Jits_Phase_8,0,1,48,42,2672822132
4315,15,Jits_Phase_8,1,5,56,103,2672938580
4315,15,Jits_Phase_8,2,5,63,98,2673007880
4315,15,Jits_Phase_8,3,5,80,127,2673011548
4315,15,Jits_Phase_8,0,1,48,44,2673571988
4315,15,Jits_Phase_8,1,5,63,98,2673767772
4315,15,Jits_Phase_8,2,5,56,103,2673817900
4315,15,Jits_Phase_8,3,5,80,127,2673821040
4315,15,Jits_Phase_8,0,1,48,42,2674495124
4315,15,Jits_Phase_8,1,5,56,103,2674527528
4315,15,Jits_Phase_8,2,5,80,127,2674530668
4315,15,Jits_Phase_8,3,5,63,98,2674617668
4315,15,Jits_Phase_8,0,1,48,44,2675263628
4315,15,Jits_Phase_8,1,5,63,98,2675368560
4315,15,Jits_Phase_8,2,5,56,103,2675458472
4315,15,Jits_Phase_8,3,5,80,127,2675488368
4315,15,Jits_Phase_8,0,1,48,43,2676056660
4315,15,Jits_Phase_8,1,5,56,103,2676157836
4315,15,Jits_Phase_8,2,5,63,98,2676258308
4315,15,Jits_Phase_8,3,5,80,127,2676287908
4315,15,Jits_Phase_8,0,1,48,46,2676855356
4315,15,Jits_Phase_8,1,5,63,98,2676978124
4315,15,Jits_Phase_8,2,5,56,103,2676988544
4315,15,Jits_Phase_8,3,5,80,127,2677078304
4315,15,Jits_Phase_8,0,1,48,37,2677707516
4315,15,Jits_Phase_8,1,5,63,98,2677798348
4315,15,Jits_Phase_8,2,5,56,103,2677878200
4315,15,Jits_Phase_8,3,5,80,127,2677881120
4315,15,Jits_Phase_8,0,1,48,61,2678521428
4315,15,Jits_Phase_8,1,1,48,42,2678553540
4315,15,Jits_Phase_8,2,5,80,127,2678558000
4315,15,Jits_Phase_8,3,5,63,98,2678577412
4315,15,Jits_Phase_8,4,5,56,103,2678637876
4315,15,Jits_Phase_8,0,1,48,55,2679214372
4315,15,Jits_Phase_8,1,1,48,41,2679246356
4315,15,Jits_Phase_8,2,5,56,103,2679397632
4315,15,Jits_Phase_8,3,5,63,98,2679418312
4315,15,Jits_Phase_8,4,5,80,127,2679421600
4315,15,Jits_Phase_8,0,1,48,51,2680031984
4315,15,Jits_Phase_8,1,5,63,98,2680138388
4315,15,Jits_Phase_8,2,5,80,127,2680217964
4315,15,Jits_Phase_8,3,5,56,103,2680228184
4315,15,Jits_Phase_8,0,1,48,59,2680884412
4315,15,Jits_Phase_8,1,1,48,45,2680916396
4315,15,Jits_Phase_8,2,5,63,98,2680958444
4315,15,Jits_Phase_8,3,5,56,103,2680977632
4315,15,Jits_Phase_8,4,5,80,127,2681028140
4315,15,Jits_Phase_8,0,1,48,22,2681696796
4315,15,Jits_Phase_8,1,5,80,127,2681758324
4315,15,Jits_Phase_8,2,5,63,98,2681798100
4315,15,Jits_Phase_8,3,5,56,103,2681817440
4315,15,Jits_Phase_8,0,1,48,54,2682498100
4315,15,Jits_Phase_8,1,5,56,103,2682597852
4315,15,Jits_Phase_8,2,5,63,98,2682608124
4315,15,Jits_Phase_8,3,5,80,127,2682627384
4315,15,Jits_Phase_8,0,1,48,48,2683257844
4315,15,Jits_Phase_8,1,5,56,103,2683328168
4315,15,Jits_Phase_8,2,5,63,98,2683418068
4315,15,Jits_Phase_8,3,5,80,127,2683478456
4315,15,Jits_Phase_8,0,1,48,43,2684099656
4315,15,Jits_Phase_8,1,5,80,127,2684158272
4315,15,Jits_Phase_8,2,5,56,103,2684167492
4315,15,Jits_Phase_8,3,5,63,98,2684238352
4315,15,Jits_Phase_8,0,1,48,46,2684851680
4315,15,Jits_Phase_8,1,5,63,98,2684987904
4315,15,Jits_Phase_8,2,5,80,127,2685077968
4315,15,Jits_Phase_8,3,5,56,103,2685088088
4315,15,Jits_Phase_8,0,1,48,51,2685671420
4315,15,Jits_Phase_8,1,5,63,98,2685717832
4315,15,Jits_Phase_8,2,5,80,127,2685768256
4315,15,Jits_Phase_8,3,5,56,103,2685827436
4315,15,Jits_Phase_8,0,1,48,50,2686442108
4315,15,Jits_Phase_8,1,5,56,103,2686538040
4315,15,Jits_Phase_8,2,5,80,127,2686588152
4315,15,Jits_Phase_8,3,5,63,98,2686607716
4315,15,Jits_Phase_8,0,1,48,47,2687252656
4315,15,Jits_Phase_8,1,5,56,103,2687308200
4315,15,Jits_Phase_8,2,5,80,127,2687367456
4315,15,Jits_Phase_8,3,5,63,98,2687438280
4315,15,Jits_Phase_8,0,1,48,53,2688101932
4315,15,Jits_Phase_8,1,5,56,103,2688107880
4315,15,Jits_Phase_8,2,5,80,127,2688137560
4315,15,Jits_Phase_8,3,5,63,98,2688168304
4315,15,Jits_Phase_8,0,1,48,44,2688833648
4315,15,Jits_Phase_8,1,5,56,103,2688947500
4315,15,Jits_Phase_8,2,5,80,127,2688968180
4315,15,Jits_Phase_8,3,5,63,98,2689027376
4315,15,Jits_Phase_8,0,1,48,38,2689645012
4315,15,Jits_Phase_8,1,5,80,127,2689828092
4315,15,Jits_Phase_8,2,5,56,103,2689837316
4315,15,Jits_Phase_8,3,5,63,98,2689847884
4315,15,Jits_Phase_8,0,1,48,35,2690549696
4315,15,Jits_Phase_8,1,5,56,103,2690588232
4315,15,Jits_Phase_8,2,5,80,127,2690627952
4315,15,Jits_Phase_8,3,5,63,98,2690657760
4315,15,Jits_Phase_8,0,1,48,43,2691317548
4315,15,Jits_Phase_8,1,5,56,103,2691358032
4315,15,Jits_Phase_8,2,5,63,98,2691387708
4315,15,Jits_Phase_8,3,5,80,127,2691427852
4315,15,Jits_Phase_8,0,1,48,47,2692081560
4315,15,Jits_Phase_8,1,5,80,127,2692107592
4315,15,Jits_Phase_8,2,5,63,98,2692158092
4315,15,Jits_Phase_8,3,5,56,103,2692178316
4315,15,Jits_Phase_8,0,1,48,52,2692779276
4315,15,Jits_Phase_8,1,5,56,103,2692938120
4315,15,Jits_Phase_8,2,5,80,127,2693007652
4315,15,Jits_Phase_8,3,5,63,98,2693068072
4315,15,Jits_Phase_8,0,1,48,46,2693639872
4315,15,Jits_Phase_8,1,5,80,127,2693738108
4315,15,Jits_Phase_8,2,5,63,98,2693827896
4315,15,Jits_Phase_8,3,5,56,103,2693848428
4315,15,Jits_Phase_8,0,1,48,53,2694505328
4315,15,Jits_Phase_8,1,5,63,98,2694558040
4315,15,Jits_Phase_8,2,5,56,103,2694577624
4315,15,Jits_Phase_8,3,5,80,127,2694617548
4315,15,Jits_Phase_8,0,1,48,51,2695278952
4315,15,Jits_Phase_8,1,5,80,127,2695318084
4315,15,Jits_Phase_8,2,5,63,98,2695338272
4315,15,Jits_Phase_8,3,5,56,103,2695418124
4315,15,Jits_Phase_8,0,1,48,56,2696005192
4315,15,Jits_Phase_8,1,1,48,40,2696037700
4315,15,Jits_Phase_8,2,5,63,98,2696108328
4315,15,Jits_Phase_8,3,5,56,103,2696218072
4315,15,Jits_Phase_8,4,5,80,127,2696221140
4315,15,Jits_Phase_8,0,1,48,48,2696836752
4315,15,Jits_Phase_8,1,5,63,98,2696927680
4315,15,Jits_Phase_8,2,5,56,103,2696937932
4315,15,Jits_Phase_8,3,5,80,127,2696941076
4315,15,Jits_Phase_8,0,1,48,54,2697617616
4315,15,Jits_Phase_8,1,5,56,103,2697707792
4315,15,Jits_Phase_8,2,5,80,127,2697827952
4315,15,Jits_Phase_8,3,5,63,98,2697867816
4315,15,Jits_Phase_8,0,1,48,55,2698490664
4315,15,Jits_Phase_8,1,5,56,103,2698528004
4315,15,Jits_Phase_8,2,5,80,127,2698607936
4315,15,Jits_Phase_8,3,5,63,98,2698627424
4315,15,Jits_Phase_8,0,1,48,54,2699292292
4315,15,Jits_Phase_8,1,5,56,103,2699327988
4315,15,Jits_Phase_8,2,5,63,98,2699437460
4315,15,Jits_Phase_8,3,5,80,127,2699440972
4315,15,Jits_Phase_8,0,1,48,54,2700093844
4315,15,Jits_Phase_8,1,1,48,37,2700132860
4315,15,Jits_Phase_8,2,5,56,103,2700167504
4315,15,Jits_Phase_8,3,5,80,127,2700198252
4315,15,Jits_Phase_8,4,5,63,98,2700217740
4315,15,Jits_Phase_8,0,5,63,98,2700957952
4315,15,Jits_Phase_8,1,1,48,40,2700961996
4315,15,Jits_Phase_8,2,5,56,103,2700968240
4315,15,Jits_Phase_8,3,5,80,127,2700977688
4315,15,Jits_Phase_8,0,1,48,53,2701735212
4315,15,Jits_Phase_8,1,5,80,127,2701747684
4315,15,Jits_Phase_8,2,5,56,103,2701797660
4315,15,Jits_Phase_8,3,5,63,98,2701837808
4315,15,Jits_Phase_8,0,1,48,47,2702500208
4315,15,Jits_Phase_8,1,5,80,127,2702567892
4315,15,Jits_Phase_8,2,5,63,98,2702588128
4315,15,Jits_Phase_8,3,5,56,103,2702637564
4315,15,Jits_Phase_8,0,1,48,42,2703301012
4315,15,Jits_Phase_8,1,5,80,127,2703377688
4315,15,Jits_Phase_8,2,5,56,103,2703407792
4315,15,Jits_Phase_8,3,5,63,98,2703478148
4315,15,Jits_Phase_8,0,1,48,49,2704091708
4315,15,Jits_Phase_8,1,5,56,103,2704227632
4315,15,Jits_Phase_8,2,5,80,127,2704237976
4315,15,Jits_Phase_8,3,5,63,98,2704277916
4315,15,Jits_Phase_8,0,5,56,103,2704938332
4315,15,Jits_Phase_8,1,1,48,45,2704947304
4315,15,Jits_Phase_8,2,5,63,98,2704957812
4315,15,Jits_Phase_8,3,5,80,127,2705027712
4315,15,Jits_Phase_8,0,1,48,42,2705654368
4315,15,Jits_Phase_8,1,5,63,98,2705757708
4315,15,Jits_Phase_8,2,5,80,127,2705817948
4315,15,Jits_Phase_8,3,5,56,103,2705837536
4315,15,Jits_Phase_8,0,1,48,38,2706433152
4315,15,Jits_Phase_8,1,5,80,127,2706548096
4315,15,Jits_Phase_8,2,5,56,103,2706577924
4315,15,Jits_Phase_8,3,5,63,98,2706607696
4315,15,Jits_Phase_8,0,1,48,31,2707290520
4315,15,Jits_Phase_8,1,5,56,103,2707347716
4315,15,Jits_Phase_8,2,5,63,98,2707408192
4315,15,Jits_Phase_8,3,5,80,127,2707467756
4315,15,Jits_Phase_8,0,1,48,40,2708051912
4315,15,Jits_Phase_8,1,5,80,127,2708168160
4315,15,Jits_Phase_8,2,5,56,103,2708187720
4315,15,Jits_Phase_8,3,5,63,98,2708258372
4315,15,Jits_Phase_8,0,1,48,41,2708801396
4315,15,Jits_Phase_8,1,5,80,127,2708967768
4315,15,Jits_Phase_8,2,5,63,98,2708988300
4315,15,Jits_Phase_8,3,5,56,103,2709017976
4315,15,Jits_Phase_8,0,1,48,42,2709643704
4315,15,Jits_Phase_8,1,5,80,127,2709758304
4315,15,Jits_Phase_8,2,5,63,98,2709777716
4315,15,Jits_Phase_8,3,5,56,103,2709838252
4315,15,Jits_Phase_8,0,1,48,52,2710439892
4315,15,Jits_Phase_8,1,1,48,36,2710478756
4315,15,Jits_Phase_8,2,5,80,127,2710558128
4315,15,Jits_Phase_8,3,5,56,103,2710658584
4315,15,Jits_Phase_8,4,5,63,98,2710688060
4315,15,Jits_Phase_8,0,5,63,98,2711347760
4315,15,Jits_Phase_8,1,1,48,50,2711356804
4315,15,Jits_Phase_8,2,1,48,35,2711398836
4315,15,Jits_Phase_8,3,5,80,127,2711400028
4315,15,Jits_Phase_8,4,5,56,103,2711418168
4315,15,Jits_Phase_8,0,1,48,56,2712065556
4315,15,Jits_Phase_8,1,1,48,41,2712098120
4315,15,Jits_Phase_8,2,5,80,127,2712188272
4315,15,Jits_Phase_8,3,5,56,103,2712217932
4315,15,Jits_Phase_8,4,5,63,98,2712221000
4315,15,Jits_Phase_8,0,1,48,48,2712854304
4315,15,Jits_Phase_8,1,5,63,98,2713038508
4315,15,Jits_Phase_8,2,5,56,103,2713078076
4315,15,Jits_Phase_8,3,5,80,127,2713097488
4315,15,Jits_Phase_8,0,1,48,54,2713674596
4315,15,Jits_Phase_8,1,1,48,35,2713720360
4315,15,Jits_Phase_8,2,5,80,127,2713797960
4315,15,Jits_Phase_8,3,5,63,98,2713877964
4315,15,Jits_Phase_8,4,5,56,103,2713917752
4315,15,Jits_Phase_8,0,1,48,59,2714590252
4315,15,Jits_Phase_8,1,5,63,98,2714618444
4315,15,Jits_Phase_8,2,1,48,41,2714628672
4315,15,Jits_Phase_8,3,5,80,127,2714698220
4315,15,Jits_Phase_8,4,5,56,103,2714717408
4315,15,Jits_Phase_8,0,1,48,53,2715411092
4315,15,Jits_Phase_8,1,5,56,103,2715457948
4315,15,Jits_Phase_8,2,5,63,98,2715468072
4315,15,Jits_Phase_8,3,5,80,127,2715508140
4315,15,Jits_Phase_8,0,5,56,103,2716177852
4315,15,Jits_Phase_8,1,5,80,127,2716180992
4315,15,Jits_Phase_8,2,1,48,51,2716204636
4315,15,Jits_Phase_8,3,5,63,98,2716318152
4315,15,Jits_Phase_8,0,1,48,51,2716931772
4315,15,Jits_Phase_8,1,5,56,103,2716968436
4315,15,Jits_Phase_8,2,5,63,98,2717058336
4315,15,Jits_Phase_8,3,5,80,127,2717128116
4315,15,Jits_Phase_8,0,1,48,50,2717712048
4315,15,Jits_Phase_8,1,5,63,98,2717847972
4315,15,Jits_Phase_8,2,5,80,127,2717851560
4315,15,Jits_Phase_8,3,5,56,103,2717908312
4315,15,Jits_Phase_8,0,1,48,51,2718537432
4315,15,Jits_Phase_8,1,5,80,127,2718687612
4315,15,Jits_Phase_8,2,5,56,103,2718708072
4315,15,Jits_Phase_8,3,5,63,98,2718718488
4315,15,Jits_Phase_8,0,1,48,57,2719388592
4315,15,Jits_Phase_8,1,5,56,103,2719398380
4315,15,Jits_Phase_8,2,5,63,98,2719407532
4315,15,Jits_Phase_8,3,1,48,41,2719420220
4315,15,Jits_Phase_8,4,5,80,127,2719478160
4315,15,Jits_Phase_8,0,1,48,52,2720157292
4315,15,Jits_Phase_8,1,5,80,127,2720198096
4315,15,Jits_Phase_8,2,5,56,103,2720248444
4315,15,Jits_Phase_8,3,5,63,98,2720298484
4315,15,Jits_Phase_8,0,1,48,52,2720918456
4315,15,Jits_Phase_8,1,1,48,37,2720964152
4315,15,Jits_Phase_8,2,5,56,103,2721077684
4315,15,Jits_Phase_8,3,5,63,98,2721087804
4315,15,Jits_Phase_8,4,5,80,127,2721127816
4315,15,Jits_Phase_8,0,1,48,57,2721785472
4315,15,Jits_Phase_8,1,5,56,103,2721817876
4315,15,Jits_Phase_8,2,5,63,98,2721858040
4315,15,Jits_Phase_8,3,5,80,127,2721908520
4315,15,Jits_Phase_8,0,5,80,127,2722577708
4315,15,Jits_Phase_8,1,1,48,52,2722617620
4315,15,Jits_Phase_8,2,5,56,103,2722627980
4315,15,Jits_Phase_8,3,5,63,98,2722648364
4315,15,Jits_Phase_8,4,1,48,38,2722650808
4315,15,Jits_Phase_8,0,1,48,56,2723370876
4315,15,Jits_Phase_8,1,5,80,127,2723387840
4315,15,Jits_Phase_8,2,5,63,98,2723448380
4315,15,Jits_Phase_8,3,5,56,103,2723528112
4315,15,Jits_Phase_8,0,5,80,127,2724168204
4315,15,Jits_Phase_8,1,1,48,48,2724169168
4315,15,Jits_Phase_8,2,5,56,103,2724207912
4315,15,Jits_Phase_8,3,5,63,98,2724227472
4315,15,Jits_Phase_8,0,1,48,48,2724932412
4315,15,Jits_Phase_8,1,5,56,103,2725018304
4315,15,Jits_Phase_8,2,5,80,127,2725028512
4315,15,Jits_Phase_8,3,5,63,98,2725068376
4315,15,Jits_Phase_8,0,1,48,44,2725813112
4315,15,Jits_Phase_8,1,5,56,103,2725888368
4315,15,Jits_Phase_8,2,5,63,98,2725928292
4315,15,Jits_Phase_8,3,5,80,127,2725931656
4315,15,Jits_Phase_8,0,5,63,98,2726558296
4315,15,Jits_Phase_8,1,5,80,127,2726598160
4315,15,Jits_Phase_8,2,1,48,41,2726600832
4315,15,Jits_Phase_8,3,5,56,103,2726667760
4315,15,Jits_Phase_8,0,1,48,43,2727323676
4315,15,Jits_Phase_8,1,5,63,98,2727328228
4315,15,Jits_Phase_8,2,5,56,103,2727408096
4315,15,Jits_Phase_8,3,5,80,127,2727468472
4315,15,Jits_Phase_8,0,1,48,49,2728021164
4315,15,Jits_Phase_8,1,5,80,127,2728138304
4315,15,Jits_Phase_8,2,5,63,98,2728188208
4315,15,Jits_Phase_8,3,5,56,103,2728218328
4315,15,Jits_Phase_8,0,5,56,103,2728927592
4315,15,Jits_Phase_8,1,1,48,50,2728974152
4315,15,Jits_Phase_8,2,5,63,98,2728977936
4315,15,Jits_Phase_8,3,5,80,127,2728988132
4315,15,Jits_Phase_8,0,1,48,35,2729728820
4315,15,Jits_Phase_8,1,5,56,103,2729737612
4315,15,Jits_Phase_8,2,5,63,98,2729848184
4315,15,Jits_Phase_8,3,5,80,127,2729867524
4315,15,Jits_Phase_8,0,1,48,43,2730514180
4315,15,Jits_Phase_8,1,5,63,98,2730538344
4315,15,Jits_Phase_8,2,5,80,127,2730587648
4315,15,Jits_Phase_8,3,5,56,103,2730677716
4315,15,Jits_Phase_8,0,1,48,42,2731303376
4315,15,Jits_Phase_8,1,5,63,98,2731328132
4315,15,Jits_Phase_8,2,5,80,127,2731357660
4315,15,Jits_Phase_8,3,5,56,103,2731447872
4315,15,Jits_Phase_8,0,5,63,98,2732127596
4315,15,Jits_Phase_8,1,1,48,44,2732136048
4315,15,Jits_Phase_8,2,5,56,103,2732137860
4315,15,Jits_Phase_8,3,5,80,127,2732238188
4315,15,Jits_Phase_8,0,1,48,32,2732908664
4315,15,Jits_Phase_8,1,5,63,98,2733027676
4315,15,Jits_Phase_8,2,5,80,127,2733058400
4315,15,Jits_Phase_8,3,5,56,103,2733088148
4315,15,Jits_Phase_8,0,5,80,127,2733848212
4315,15,Jits_Phase_8,1,5,63,98,2733858112
4315,15,Jits_Phase_8,2,1,48,41,2733881832
4315,15,Jits_Phase_8,3,5,56,103,2733888004
4315,15,Jits_Phase_8,0,5,80,127,2734548272
4315,15,Jits_Phase_8,1,5,63,98,2734567912
4315,15,Jits_Phase_8,2,5,56,103,2734617960
4315,15,Jits_Phase_8,3,1,48,38,2734709032
4315,15,Jits_Phase_8,0,1,48,45,2735350932
4315,15,Jits_Phase_8,1,5,63,98,2735378004
4315,15,Jits_Phase_8,2,5,80,127,2735438320
4315,15,Jits_Phase_8,3,5,56,103,2735457868
4315,15,Jits_Phase_8,0,5,63,98,2736137468
4315,15,Jits_Phase_8,1,1,48,46,2736140440
4315,15,Jits_Phase_8,2,5,56,103,2736187888
4315,15,Jits_Phase_8,3,5,80,127,2736197936
4315,15,Jits_Phase_8,0,1,48,48,2736902936
4315,15,Jits_Phase_8,1,5,56,103,2736968080
4315,15,Jits_Phase_8,2,5,80,127,2736978276
4315,15,Jits_Phase_8,3,5,63,98,2737077780
4315,15,Jits_Phase_8,0,5,80,127,2737727836
4315,15,Jits_Phase_8,1,5,63,98,2737737956
4315,15,Jits_Phase_8,2,1,48,50,2737744144
4315,15,Jits_Phase_8,3,5,56,103,2737887796
4315,15,Jits_Phase_8,0,1,48,54,2738474072
4315,15,Jits_Phase_8,1,5,63,98,2738538160
4315,15,Jits_Phase_8,2,5,80,127,2738578084
4315,15,Jits_Phase_8,3,5,56,103,2738657532
4315,15,Jits_Phase_8,0,1,48,51,2739265752
4315,15,Jits_Phase_8,1,5,56,103,2739288320
4315,15,Jits_Phase_8,2,5,80,127,2739387952
4315,15,Jits_Phase_8,3,5,63,98,2739408188
4315,15,Jits_Phase_8,0,5,80,127,2740107844
4315,15,Jits_Phase_8,1,1,48,58,2740113656
4315,15,Jits_Phase_8,2,5,56,103,2740118108
4315,15,Jits_Phase_8,3,5,63,98,2740208112
4315,15,Jits_Phase_8,0,1,48,59,2740904676
4315,15,Jits_Phase_8,1,5,56,103,2740908384
4315,15,Jits_Phase_8,2,5,63,98,2740927872
4315,15,Jits_Phase_8,3,5,80,127,2741007720
4315,15,Jits_Phase_8,0,5,63,98,2741657928
4315,15,Jits_Phase_8,1,1,48,55,2741672532
4315,15,Jits_Phase_8,2,5,56,103,2741748080
4315,15,Jits_Phase_8,3,5,80,127,2741750996
4315,15,Jits_Phase_8,0,1,48,62,2742366692
4315,15,Jits_Phase_8,1,5,56,103,2742488764
4315,15,Jits_Phase_8,2,5,80,127,2742547812
4315,15,Jits_Phase_8,3,5,63,98,2742558084
4315,15,Jits_Phase_8,0,1,48,60,2743191692
4315,15,Jits_Phase_8,1,5,80,127,2743338348
4315,15,Jits_Phase_8,2,5,56,103,2743347572
4315,15,Jits_Phase_8,3,5,63,98,2743350788
4315,15,Jits_Phase_8,0,5,56,103,2744098044
4315,15,Jits_Phase_8,1,5,80,127,2744108536
4315,15,Jits_Phase_8,2,1,48,53,2744115252
4315,15,Jits_Phase_8,3,5,63,98,2744127868
4315,15,Jits_Phase_8,0,5,63,98,2744868144
4315,15,Jits_Phase_8,1,5,80,127,2744927712
4315,15,Jits_Phase_8,2,1,48,53,2744950460
4315,15,Jits_Phase_8,3,5,56,103,2744977756
4315,15,Jits_Phase_8,0,1,48,57,2745662244
4315,15,Jits_Phase_8,1,5,63,98,2745747836
4315,15,Jits_Phase_8,2,5,56,103,2745758060
4315,15,Jits_Phase_8,3,5,80,127,2745808168
4315,15,Jits_Phase_8,0,5,63,98,2746448184
4315,15,Jits_Phase_8,1,1,48,57,2746453992
4315,15,Jits_Phase_8,2,5,80,127,2746467816
4315,15,Jits_Phase_8,3,5,56,103,2746478012
4315,15,Jits_Phase_8,4,1,48,40,2746485600
4315,15,Jits_Phase_8,0,1,48,58,2747205216
4315,15,Jits_Phase_8,1,5,63,98,2747247956
4315,15,Jits_Phase_8,2,5,80,127,2747251248
4315,15,Jits_Phase_8,3,5,56,103,2747287820
4315,15,Jits_Phase_8,0,1,48,54,2747978220
4315,15,Jits_Phase_8,1,5,63,98,2748118360
4315,15,Jits_Phase_8,2,5,80,127,2748148108
4315,15,Jits_Phase_8,3,5,56,103,2748158304
4315,15,Jits_Phase_8,0,1,48,56,2748785780
4315,15,Jits_Phase_8,1,5,56,103,2748868012
4315,15,Jits_Phase_8,2,5,80,127,2748897820
4315,15,Jits_Phase_8,3,5,63,98,2748928320
4315,15,Jits_Phase_8,0,1,48,54,2749556456
4315,15,Jits_Phase_8,1,5,63,98,2749768148
4315,15,Jits_Phase_8,2,5,56,103,2749807936
4315,15,Jits_Phase_8,3,5,80,127,2749811148
4315,15,Jits_Phase_8,0,1,48,56,2750447048
4315,15,Jits_Phase_8,1,5,80,127,2750467672
4315,15,Jits_Phase_8,2,5,56,103,2750548428
4315,15,Jits_Phase_8,3,5,63,98,2750597508
4315,15,Jits_Phase_8,0,5,80,127,2751247588
4315,15,Jits_Phase_8,1,5,56,103,2751268272
4315,15,Jits_Phase_8,2,1,48,51,2751319936
4315,15,Jits_Phase_8,3,5,63,98,2751358468
4315,15,Jits_Phase_8,0,5,80,127,2752088564
4315,15,Jits_Phase_8,1,1,48,57,2752116044
4315,15,Jits_Phase_8,2,5,63,98,2752128420
4315,15,Jits_Phase_8,3,1,48,42,2752149808
4315,15,Jits_Phase_8,4,5,56,103,2752168508
4315,15,Jits_Phase_8,0,1,48,57,2752872220
4315,15,Jits_Phase_8,1,5,63,98,2752898624
4315,15,Jits_Phase_8,2,1,48,41,2752911240
4315,15,Jits_Phase_8,3,5,80,127,2752957820
4315,15,Jits_Phase_8,4,5,56,103,2752987644
4315,15,Jits_Phase_8,0,1,48,60,2753619408
4315,15,Jits_Phase_8,1,1,48,44,2753660888
4315,15,Jits_Phase_8,2,5,56,103,2753738040
4315,15,Jits_Phase_8,3,5,80,127,2753767924
4315,15,Jits_Phase_8,4,5,63,98,2753857832
4315,15,Jits_Phase_8,0,1,48,58,2754503572
4315,15,Jits_Phase_8,1,5,56,103,2754548112
4315,15,Jits_Phase_8,2,1,48,43,2754555776
4315,15,Jits_Phase_8,3,5,80,127,2754657620
4315,15,Jits_Phase_8,4,5,63,98,2754688640
4315,15,Jits_Phase_8,0,5,56,103,2755398040
4315,15,Jits_Phase_8,1,1,48,57,2755421832
4315,15,Jits_Phase_8,2,5,63,98,2755458500
4315,15,Jits_Phase_8,3,5,80,127,2755488200
4315,15,Jits_Phase_8,0,5,56,103,2756168000
4315,15,Jits_Phase_8,1,1,48,52,2756223704
4315,15,Jits_Phase_8,2,5,63,98,2756237676
4315,15,Jits_Phase_8,3,5,80,127,2756258160
4315,15,Jits_Phase_8,0,5,80,127,2756938400
4315,15,Jits_Phase_8,1,5,63,98,2756957440
4315,15,Jits_Phase_8,2,1,48,52,2756976372
4315,15,Jits_Phase_8,3,1,48,41,2757008888
4315,15,Jits_Phase_8,4,5,56,103,2757010004
4315,15,Jits_Phase_8,0,1,48,58,2757753368
4315,15,Jits_Phase_8,1,5,63,98,2757758420
4315,15,Jits_Phase_8,2,5,80,127,2757767644
4315,15,Jits_Phase_8,3,1,48,42,2757790324
4315,15,Jits_Phase_8,4,5,56,103,2757817772
4315,15,Jits_Phase_8,0,1,48,58,2758524680
4315,15,Jits_Phase_8,1,1,48,43,2758557844
4315,15,Jits_Phase_8,2,5,63,98,2758559480
4315,15,Jits_Phase_8,3,5,80,127,2758627596
4315,15,Jits_Phase_8,4,5,56,103,2758648276
4315,15,Jits_Phase_8,0,1,48,56,2759300052
4315,15,Jits_Phase_8,1,5,63,98,2759387468
4315,15,Jits_Phase_8,2,5,80,127,2759390756
4315,15,Jits_Phase_8,3,5,56,103,2759458328
4315,15,Jits_Phase_8,0,5,80,127,2760138296
4315,15,Jits_Phase_8,1,5,56,103,2760157636
4315,15,Jits_Phase_8,2,5,63,98,2760167832
4315,15,Jits_Phase_8,3,1,48,43,2760181064
4315,15,Jits_Phase_8,0,1,48,59,2760934124
4315,15,Jits_Phase_8,1,5,56,103,2760958432
4315,15,Jits_Phase_8,2,1,48,45,2760963556
4315,15,Jits_Phase_8,3,5,63,98,2761048472
4315,15,Jits_Phase_8,4,5,80,127,2761051688
4315,15,Jits_Phase_8,0,1,48,58,2761683264
4315,15,Jits_Phase_8,1,5,80,127,2761728472
4315,15,Jits_Phase_8,2,5,56,103,2761737472
4315,15,Jits_Phase_8,3,5,63,98,2761758156
4315,15,Jits_Phase_8,0,1,48,55,2762378776
4315,15,Jits_Phase_8,1,1,48,42,2762411296
4315,15,Jits_Phase_8,2,5,63,98,2762528188
4315,15,Jits_Phase_8,3,5,80,127,2762587460
4315,15,Jits_Phase_8,4,5,56,103,2762597804
4315,15,Jits_Phase_8,0,1,48,48,2763223684
4315,15,Jits_Phase_8,1,5,63,98,2763397524
4315,15,Jits_Phase_8,2,5,80,127,2763428344
4315,15,Jits_Phase_8,3,5,56,103,2763468284
4315,15,Jits_Phase_8,0,5,56,103,2764188188
4315,15,Jits_Phase_8,1,5,80,127,2764198460
4315,15,Jits_Phase_8,2,1,48,48,2764200984
4315,15,Jits_Phase_8,3,5,63,98,2764238392
4315,15,Jits_Phase_8,0,1,48,54,2764939656
4315,15,Jits_Phase_8,1,5,80,127,2764947996
4315,15,Jits_Phase_8,2,1,48,39,2764977052
4315,15,Jits_Phase_8,3,5,56,103,2765027648
4315,15,Jits_Phase_8,4,5,63,98,2765038140
4315,15,Jits_Phase_8,0,1,48,44,2765762768
4315,15,Jits_Phase_8,1,5,80,127,2765797636
4315,15,Jits_Phase_8,2,5,56,103,2765877640
4315,15,Jits_Phase_8,3,5,63,98,2765887988
4315,15,Jits_Phase_8,0,1,48,51,2766632208
4315,15,Jits_Phase_8,1,5,80,127,2766637484
4315,15,Jits_Phase_8,2,5,56,103,2766687540
4315,15,Jits_Phase_8,3,5,63,98,2766737800
4315,15,Jits_Phase_8,0,1,48,58,2767511604
4315,15,Jits_Phase_8,1,5,56,103,2767577512
4315,15,Jits_Phase_8,2,5,63,98,2767580652
4315,15,Jits_Phase_8,3,5,80,127,2767627548
4315,15,Jits_Phase_8,0,1,48,50,2768341200
4315,15,Jits_Phase_8,1,5,56,103,2768397644
4315,15,Jits_Phase_8,2,5,63,98,2768428444
4315,15,Jits_Phase_8,3,5,80,127,2768437664
4315,15,Jits_Phase_8,0,5,63,98,2769108480
4315,15,Jits_Phase_8,1,5,56,103,2769178164
4315,15,Jits_Phase_8,2,1,48,48,2769222932
4315,15,Jits_Phase_8,3,5,80,127,2769228280
4315,15,Jits_Phase_8,0,5,63,98,2769937832
4315,15,Jits_Phase_8,1,5,56,103,2769948028
4315,15,Jits_Phase_8,2,5,80,127,2769951168
4315,15,Jits_Phase_8,3,1,48,58,2770012944
4315,15,Jits_Phase_8,0,5,80,127,2770688352
4315,15,Jits_Phase_8,1,5,56,103,2770747696
4315,15,Jits_Phase_8,2,1,48,58,2770763172
4315,15,Jits_Phase_8,3,5,63,98,2770838116
4315,15,Jits_Phase_8,0,5,80,127,2771488268
4315,15,Jits_Phase_8,1,1,48,48,2771549232
4315,15,Jits_Phase_8,2,5,56,103,2771587316
4315,15,Jits_Phase_8,3,5,63,98,2771628328
4315,15,Jits_Phase_8,0,1,48,54,2772337868
4315,15,Jits_Phase_8,1,5,56,103,2772339576
4315,15,Jits_Phase_8,2,5,63,98,2772357496
4315,15,Jits_Phase_8,3,5,80,127,2772397460
4315,15,Jits_Phase_8,0,1,48,52,2773098784
4315,15,Jits_Phase_8,1,5,63,98,2773108024
4315,15,Jits_Phase_8,2,5,56,103,2773127512
4315,15,Jits_Phase_8,3,5,80,127,2773227840
4315,15,Jits_Phase_8,0,1,48,49,2773837480
4315,15,Jits_Phase_8,1,5,63,98,2773897592
4315,15,Jits_Phase_8,2,5,80,127,2774008116
4315,15,Jits_Phase_8,3,5,56,103,2774038012
4315,15,Jits_Phase_8,0,1,48,49,2774690156
4315,15,Jits_Phase_8,1,5,56,103,2774717904
4315,15,Jits_Phase_8,2,5,63,98,2774747508
4315,15,Jits_Phase_8,3,5,80,127,2774797916
4315,15,Jits_Phase_8,0,1,48,49,2775446440
4315,15,Jits_Phase_8,1,5,63,98,2775488068
4315,15,Jits_Phase_8,2,5,56,103,2775517520
4315,15,Jits_Phase_8,3,5,80,127,2775567932
4315,15,Jits_Phase_8,0,1,48,50,2776302700
4315,15,Jits_Phase_8,1,5,56,103,2776318388
4315,15,Jits_Phase_8,2,5,63,98,2776337952
4315,15,Jits_Phase_8,3,5,80,127,2776417880
4315,15,Jits_Phase_8,0,5,63,98,2777088412
4315,15,Jits_Phase_8,1,1,48,48,2777125536
4315,15,Jits_Phase_8,2,5,56,103,2777148044
4315,15,Jits_Phase_8,3,5,80,127,2777177496
4315,15,Jits_Phase_8,0,5,56,103,2777928020
4315,15,Jits_Phase_8,1,1,48,55,2777938336
4315,15,Jits_Phase_8,2,5,80,127,2777987584
4315,15,Jits_Phase_8,3,5,63,98,2778028368
4315,15,Jits_Phase_8,0,1,48,53,2778704980
4315,15,Jits_Phase_8,1,5,63,98,2778708236
4315,15,Jits_Phase_8,2,5,56,103,2778767804
4315,15,Jits_Phase_8,3,5,80,127,2778838464
4315,15,Jits_Phase_8,0,1,48,50,2779578948
4315,15,Jits_Phase_8,1,5,56,103,2779588036
4315,15,Jits_Phase_8,2,5,63,98,2779598156
4315,15,Jits_Phase_8,3,5,80,127,2779601520
4315,15,Jits_Phase_8,0,5,63,98,2780328156
4315,15,Jits_Phase_8,1,5,56,103,2780387724
4315,15,Jits_Phase_8,2,5,80,127,2780390788
4315,15,Jits_Phase_8,3,1,48,54,2780398636
4315,15,Jits_Phase_8,0,5,63,98,2781107452
4315,15,Jits_Phase_8,1,1,48,50,2781111992
4315,15,Jits_Phase_8,2,5,80,127,2781138464
4315,15,Jits_Phase_8,3,5,56,103,2781158100
4315,15,Jits_Phase_8,0,5,56,103,2781837872
4315,15,Jits_Phase_8,1,1,48,40,2781883340
4315,15,Jits_Phase_8,2,5,63,98,2781888020
4315,15,Jits_Phase_8,3,5,80,127,2781967740
4315,15,Jits_Phase_8,0,5,80,127,2782538088
4315,15,Jits_Phase_8,1,5,63,98,2782578032
4315,15,Jits_Phase_8,2,5,56,103,2782597516
4315,15,Jits_Phase_8,3,1,48,38,2782630696
4315,15,Jits_Phase_8,0,1,48,51,2783379180
4315,15,Jits_Phase_8,1,5,56,103,2783407328
4315,15,Jits_Phase_8,2,5,80,127,2783417972
4315,15,Jits_Phase_8,3,5,63,98,2783438132
4315,15,Jits_Phase_8,0,1,48,37,2784113524
4315,15,Jits_Phase_8,1,5,56,103,2784187836
4315,15,Jits_Phase_8,2,5,63,98,2784238024
4315,15,Jits_Phase_8,3,5,80,127,2784267700
4315,15,Jits_Phase_8,0,5,56,103,2784938452
4315,15,Jits_Phase_8,1,5,63,98,2784947752
4315,15,Jits_Phase_8,2,1,48,34,2784984356
4315,15,Jits_Phase_8,3,5,80,127,2784998020
4315,15,Jits_Phase_8,0,1,48,37,2785710392
4315,15,Jits_Phase_8,1,5,56,103,2785727872
4315,15,Jits_Phase_8,2,5,80,127,2785731164
4315,15,Jits_Phase_8,3,5,63,98,2785887808
4315,15,Jits_Phase_8,0,5,63,98,2786548228
4315,15,Jits_Phase_8,1,5,56,103,2786617912
4315,15,Jits_Phase_8,2,5,80,127,2786657776
4315,15,Jits_Phase_8,3,1,48,28,2786869552
4315,15,Jits_Phase_8,0,5,63,98,2787387776
4315,15,Jits_Phase_8,1,1,48,39,2787389636
4315,15,Jits_Phase_8,2,5,56,103,2787478048
4315,15,Jits_Phase_8,3,5,80,127,2787480968
4315,15,Jits_Phase_8,0,5,56,103,2788167976
4315,15,Jits_Phase_8,1,1,48,35,2788208708
4315,15,Jits_Phase_8,2,5,63,98,2788258128
4315,15,Jits_Phase_8,3,5,80,127,2788268696
4315,15,Jits_Phase_8,0,5,56,103,2788938224
4315,15,Jits_Phase_8,1,5,63,98,2788988204
4315,15,Jits_Phase_8,2,1,48,40,2788995232
4315,15,Jits_Phase_8,3,5,80,127,2789018416
4315,15,Jits_Phase_8,0,1,48,39,2789618612
4315,15,Jits_Phase_8,1,5,63,98,2789817568
4315,15,Jits_Phase_8,2,5,80,127,2789828064
4315,15,Jits_Phase_8,3,5,56,103,2789888304
4315,15,Jits_Phase_8,0,5,63,98,2790537760
4315,15,Jits_Phase_8,1,1,48,48,2790574688
4315,15,Jits_Phase_8,2,5,80,127,2790597948
4315,15,Jits_Phase_8,3,5,56,103,2790637884
4315,15,Jits_Phase_8,0,1,48,48,2791371592
4315,15,Jits_Phase_8,1,5,56,103,2791437628
4315,15,Jits_Phase_8,2,5,80,127,2791458164
4315,15,Jits_Phase_8,3,5,63,98,2791477560
4315,15,Jits_Phase_8,0,5,63,98,2792157612
4315,15,Jits_Phase_8,1,5,56,103,2792177996
4315,15,Jits_Phase_8,2,1,48,47,2792197232
4315,15,Jits_Phase_8,3,5,80,127,2792217852
4315,15,Jits_Phase_8,0,1,48,40,2792912672
4315,15,Jits_Phase_8,1,5,63,98,2792967476
4315,15,Jits_Phase_8,2,5,80,127,2792998124
4315,15,Jits_Phase_8,3,5,56,103,2793017668
4315,15,Jits_Phase_8,0,1,48,41,2793666064
4315,15,Jits_Phase_8,1,5,80,127,2793737712
4315,15,Jits_Phase_8,2,5,56,103,2793787896
4315,15,Jits_Phase_8,3,5,63,98,2793848136
4315,15,Jits_Phase_8,0,5,63,98,2794528104
4315,15,Jits_Phase_8,1,1,48,40,2794545076
4315,15,Jits_Phase_8,2,5,56,103,2794647888
4315,15,Jits_Phase_8,3,5,80,127,2794677580
4315,15,Jits_Phase_8,0,1,48,43,2795310740
4315,15,Jits_Phase_8,1,5,80,127,2795367784
4315,15,Jits_Phase_8,2,5,63,98,2795388244
4315,15,Jits_Phase_8,3,5,56,103,2795457860
4315,15,Jits_Phase_8,0,1,48,47,2796088172
4315,15,Jits_Phase_8,1,5,63,98,2796187932
4315,15,Jits_Phase_8,2,5,56,103,2796198128
4315,15,Jits_Phase_8,3,5,80,127,2796277996
4315,15,Jits_Phase_8,0,1,48,50,2796909432
4315,15,Jits_Phase_8,1,5,56,103,2797048304
4315,15,Jits_Phase_8,2,5,80,127,2797077832
4315,15,Jits_Phase_8,3,5,63,98,2797088176
4315,15,Jits_Phase_8,0,9999,9999,9999,2662205528
4315,15,Jits_Phase_8,1,9999,9999,9999,2663005296
4315,15,Jits_Phase_8,2,9999,9999,9999,2663806028
4315,15,Jits_Phase_8,3,9999,9999,9999,2664605800
4315,15,Jits_Phase_8,4,9999,9999,9999,2665405496
4315,15,Jits_Phase_8,5,9999,9999,9999,2666205256
4315,15,Jits_Phase_8,6,9999,9999,9999,2667006056
4315,15,Jits_Phase_8,7,9999,9999,9999,2667805752
4315,15,Jits_Phase_8,8,9999,9999,9999,2668605516
4315,15,Jits_Phase_8,9,9999,9999,9999,2669405260
4315,15,Jits_Phase_8,10,9999,9999,9999,2670206012
4315,15,Jits_Phase_8,11,9999,9999,9999,2671005768
4315,15,Jits_Phase_8,12,9999,9999,9999,2671805496
4315,15,Jits_Phase_8,13,9999,9999,9999,2672605264
4315,15,Jits_Phase_8,14,9999,9999,9999,2673406060
4315,15,Jits_Phase_8,15,9999,9999,9999,2674205808
4315,15,Jits_Phase_8,16,9999,9999,9999,2675005552
4315,15,Jits_Phase_8,17,9999,9999,9999,2675805240
4315,15,Jits_Phase_8,18,9999,9999,9999,2676606052
4315,15,Jits_Phase_8,19,9999,9999,9999,2677405808
4315,15,Jits_Phase_8,20,9999,9999,9999,2678205508
4315,15,Jits_Phase_8,21,9999,9999,9999,2679005244
4315,15,Jits_Phase_8,22,9999,9999,9999,2679806072
4315,15,Jits_Phase_8,23,9999,9999,9999,2680605808
4315,15,Jits_Phase_8,24,9999,9999,9999,2681405540
4315,15,Jits_Phase_8,25,9999,9999,9999,2682205248
4315,15,Jits_Phase_8,26,9999,9999,9999,2683006052
4315,15,Jits_Phase_8,27,9999,9999,9999,2683805816
4315,15,Jits_Phase_8,28,9999,9999,9999,2684605516
4315,15,Jits_Phase_8,29,9999,9999,9999,2685405256
4315,15,Jits_Phase_8,30,9999,9999,9999,2686185528
4315,15,Jits_Phase_8,31,9999,9999,9999,2686985284
4315,15,Jits_Phase_8,32,9999,9999,9999,2687786088
4315,15,Jits_Phase_8,33,9999,9999,9999,2688585840
4315,15,Jits_Phase_8,34,9999,9999,9999,2689385592
4315,15,Jits_Phase_8,35,9999,9999,9999,2690185280
4315,15,Jits_Phase_8,36,9999,9999,9999,2690986040
4315,15,Jits_Phase_8,37,9999,9999,9999,2691785800
4315,15,Jits_Phase_8,38,9999,9999,9999,2692585552
4315,15,Jits_Phase_8,39,9999,9999,9999,2693385312
4315,15,Jits_Phase_8,40,9999,9999,9999,2694186048
4315,15,Jits_Phase_8,41,9999,9999,9999,2694985804
4315,15,Jits_Phase_8,42,9999,9999,9999,2695785556
4315,15,Jits_Phase_8,43,9999,9999,9999,2696585284
4315,15,Jits_Phase_8,44,9999,9999,9999,2697386072
4315,15,Jits_Phase_8,45,9999,9999,9999,2698185836
4315,15,Jits_Phase_8,46,9999,9999,9999,2698985592
4315,15,Jits_Phase_8,47,9999,9999,9999,2699785272
4315,15,Jits_Phase_8,48,9999,9999,9999,2700605532
4315,15,Jits_Phase_8,49,9999,9999,9999,2701405260
4315,15,Jits_Phase_8,50,9999,9999,9999,2702206064
4315,15,Jits_Phase_8,51,9999,9999,9999,2703005820
4315,15,Jits_Phase_8,52,9999,9999,9999,2703805528
4315,15,Jits_Phase_8,53,9999,9999,9999,2704605296
4315,15,Jits_Phase_8,54,9999,9999,9999,2705406020
4315,15,Jits_Phase_8,55,9999,9999,9999,2706205792
4315,15,Jits_Phase_8,56,9999,9999,9999,2707005544
4315,15,Jits_Phase_8,57,9999,9999,9999,2707805300
4315,15,Jits_Phase_8,58,9999,9999,9999,2708606032
4315,15,Jits_Phase_8,59,9999,9999,9999,2709405784
4315,15,Jits_Phase_8,60,9999,9999,9999,2710205564
4315,15,Jits_Phase_8,61,9999,9999,9999,2711005304
4315,15,Jits_Phase_8,62,9999,9999,9999,2711806064
4315,15,Jits_Phase_8,63,9999,9999,9999,2712605768
4315,15,Jits_Phase_8,64,9999,9999,9999,2713445444
4315,15,Jits_Phase_8,65,9999,9999,9999,2714245184
4315,15,Jits_Phase_8,66,9999,9999,9999,2715045972
4315,15,Jits_Phase_8,67,9999,9999,9999,2715845712
4315,15,Jits_Phase_8,68,9999,9999,9999,2716645436
4315,15,Jits_Phase_8,69,9999,9999,9999,2717445208
4315,15,Jits_Phase_8,70,9999,9999,9999,2718246008
4315,15,Jits_Phase_8,71,9999,9999,9999,2719045696
4315,15,Jits_Phase_8,72,9999,9999,9999,2719845432
4315,15,Jits_Phase_8,73,9999,9999,9999,2720645244
4315,15,Jits_Phase_8,74,9999,9999,9999,2721445980
4315,15,Jits_Phase_8,75,9999,9999,9999,2722245720
4315,15,Jits_Phase_8,76,9999,9999,9999,2723045452
4315,15,Jits_Phase_8,77,9999,9999,9999,2723845208
4315,15,Jits_Phase_8,78,9999,9999,9999,2724646004
4315,15,Jits_Phase_8,79,9999,9999,9999,2725445700
4315,15,Jits_Phase_8,80,9999,9999,9999,2726245460
4315,15,Jits_Phase_8,81,9999,9999,9999,2727005288
4315,15,Jits_Phase_8,82,9999,9999,9999,2727806016
4315,15,Jits_Phase_8,83,9999,9999,9999,2728605796
4315,15,Jits_Phase_8,84,9999,9999,9999,2729405540
4315,15,Jits_Phase_8,85,9999,9999,9999,2730205244
4315,15,Jits_Phase_8,86,9999,9999,9999,2731006044
4315,15,Jits_Phase_8,87,9999,9999,9999,2731805796
4315,15,Jits_Phase_8,88,9999,9999,9999,2732605548
4315,15,Jits_Phase_8,89,9999,9999,9999,2733405244
4315,15,Jits_Phase_8,90,9999,9999,9999,2734206056
4315,15,Jits_Phase_8,91,9999,9999,9999,2735005776
4315,15,Jits_Phase_8,92,9999,9999,9999,2735805552
4315,15,Jits_Phase_8,93,9999,9999,9999,2736605308
4315,15,Jits_Phase_8,94,9999,9999,9999,2737406036
4315,15,Jits_Phase_8,95,9999,9999,9999,2738205788
4315,15,Jits_Phase_8,96,9999,9999,9999,2739005560
4315,15,Jits_Phase_8,97,9999,9999,9999,2739725432
4315,15,Jits_Phase_8,98,9999,9999,9999,2740525116
4315,15,Jits_Phase_8,99,9999,9999,9999,2741325940
4315,15,Jits_Phase_8,100,9999,9999,9999,2742125688
4315,15,Jits_Phase_8,101,9999,9999,9999,2742925368
4315,15,Jits_Phase_8,102,9999,9999,9999,2743725144
4315,15,Jits_Phase_8,103,9999,9999,9999,2744525948
4315,15,Jits_Phase_8,104,9999,9999,9999,2745325648
4315,15,Jits_Phase_8,105,9999,9999,9999,2746125416
4315,15,Jits_Phase_8,106,9999,9999,9999,2746925140
4315,15,Jits_Phase_8,107,9999,9999,9999,2747725904
4315,15,Jits_Phase_8,108,9999,9999,9999,2748525664
4315,15,Jits_Phase_8,109,9999,9999,9999,2749325420
4315,15,Jits_Phase_8,110,9999,9999,9999,2750125128
4315,15,Jits_Phase_8,111,9999,9999,9999,2750925936
4315,15,Jits_Phase_8,112,9999,9999,9999,2751725692
4315,15,Jits_Phase_8,113,9999,9999,9999,2752525368
4315,15,Jits_Phase_8,114,9999,9999,9999,2753406076
4315,15,Jits_Phase_8,115,9999,9999,9999,2754205816
4315,15,Jits_Phase_8,116,9999,9999,9999,2755005536
4315,15,Jits_Phase_8,117,9999,9999,9999,2755805280
4315,15,Jits_Phase_8,118,9999,9999,9999,2756606028
4315,15,Jits_Phase_8,119,9999,9999,9999,2757405768
4315,15,Jits_Phase_8,120,9999,9999,9999,2758205492
4315,15,Jits_Phase_8,121,9999,9999,9999,2759005284
4315,15,Jits_Phase_8,122,9999,9999,9999,2759806060
4315,15,Jits_Phase_8,123,9999,9999,9999,2760605760
4315,15,Jits_Phase_8,124,9999,9999,9999,2761405504
4315,15,Jits_Phase_8,125,9999,9999,9999,2762205308
4315,15,Jits_Phase_8,126,9999,9999,9999,2763006012
4315,15,Jits_Phase_8,127,9999,9999,9999,2763805752
4315,15,Jits_Phase_8,128,9999,9999,9999,2764605512
4315,15,Jits_Phase_8,129,9999,9999,9999,2765405264
4315,15,Jits_Phase_8,130,9999,9999,9999,2766206052
4315,15,Jits_Phase_8,131,9999,9999,9999,2767165564
4315,15,Jits_Phase_8,132,9999,9999,9999,2767965240
4315,15,Jits_Phase_8,133,9999,9999,9999,2768766052
4315,15,Jits_Phase_8,134,9999,9999,9999,2769565760
4315,15,Jits_Phase_8,135,9999,9999,9999,2770365504
4315,15,Jits_Phase_8,136,9999,9999,9999,2771165260
4315,15,Jits_Phase_8,137,9999,9999,9999,2771966076
4315,15,Jits_Phase_8,138,9999,9999,9999,2772765776
4315,15,Jits_Phase_8,139,9999,9999,9999,2773565532
4315,15,Jits_Phase_8,140,9999,9999,9999,2774365292
4315,15,Jits_Phase_8,141,9999,9999,9999,2775166024
4315,15,Jits_Phase_8,142,9999,9999,9999,2775965804
4315,15,Jits_Phase_8,143,9999,9999,9999,2776765560
4315,15,Jits_Phase_8,144,9999,9999,9999,2777565240
4315,15,Jits_Phase_8,145,9999,9999,9999,2778366048
4315,15,Jits_Phase_8,146,9999,9999,9999,2779165820
4315,15,Jits_Phase_8,147,9999,9999,9999,2779965500
4315,15,Jits_Phase_8,148,9999,9999,9999,2780765248
4315,15,Jits_Phase_8,149,9999,9999,9999,2781566048
4315,15,Jits_Phase_8,150,9999,9999,9999,2782206008
4315,15,Jits_Phase_8,151,9999,9999,9999,2783005780
4315,15,Jits_Phase_8,152,9999,9999,9999,2783805552
4315,15,Jits_Phase_8,153,9999,9999,9999,2784605244
4315,15,Jits_Phase_8,154,9999,9999,9999,2785406040
4315,15,Jits_Phase_8,155,9999,9999,9999,2786205752
4315,15,Jits_Phase_8,156,9999,9999,9999,2787005512
4315,15,Jits_Phase_8,157,9999,9999,9999,2787805268
4315,15,Jits_Phase_8,158,9999,9999,9999,2788606076
4315,15,Jits_Phase_8,159,9999,9999,9999,2789405768
4315,15,Jits_Phase_8,160,9999,9999,9999,2790205548
4315,15,Jits_Phase_8,161,9999,9999,9999,2791005304
4315,15,Jits_Phase_8,162,9999,9999,9999,2791806040
4315,15,Jits_Phase_8,163,9999,9999,9999,2792605824
4315,15,Jits_Phase_8,164,9999,9999,9999,2793405504
4315,15,Jits_Phase_8,165,9999,9999,9999,2794205260
4315,15,Jits_Phase_8,166,9999,9999,9999,2795006056
4315,15,Jits_Phase_8,167,9999,9999,9999,2795805816
4315,15,Jits_Phase_8,168,9999,9999,9999,2796605504
4315,15,Jits_Phase_8,169,9999,9999,9999,2797405268
4316,19,Jits_Linear_5,0,5,56,103,2808453428
4316,19,Jits_Linear_5,1,5,63,98,2808456448
4316,19,Jits_Linear_5,2,5,80,127,2808459644
4316,19,Jits_Linear_5,0,5,56,103,2808933812
4316,19,Jits_Linear_5,1,5,63,98,2808936832
4316,19,Jits_Linear_5,2,5,80,127,2808939880
4316,19,Jits_Linear_5,0,5,56,103,2809414068
4316,19,Jits_Linear_5,1,5,80,127,2809424112
4316,19,Jits_Linear_5,2,5,63,98,2809443824
4316,19,Jits_Linear_5,0,5,63,98,2809844276
4316,19,Jits_Linear_5,1,5,80,127,2809873656
4316,19,Jits_Linear_5,2,5,56,103,2809884224
4316,19,Jits_Linear_5,0,1,48,38,2810367784
4316,19,Jits_Linear_5,1,5,80,127,2810383628
4316,19,Jits_Linear_5,2,5,56,103,2810394196
4316,19,Jits_Linear_5,3,5,63,98,2810423572
4316,19,Jits_Linear_5,0,5,63,98,2810864072
4316,19,Jits_Linear_5,1,1,48,43,2810887644
4316,19,Jits_Linear_5,2,5,56,103,2810893596
4316,19,Jits_Linear_5,3,5,80,127,2810904012
4316,19,Jits_Linear_5,0,5,56,103,2811304276
4316,19,Jits_Linear_5,1,5,63,98,2811353584
4316,19,Jits_Linear_5,2,5,80,127,2811374116
4316,19,Jits_Linear_5,3,1,48,48,2811390488
4316,19,Jits_Linear_5,0,5,80,127,2811793764
4316,19,Jits_Linear_5,1,1,48,49,2811834072
4316,19,Jits_Linear_5,2,5,63,98,2811844136
4316,19,Jits_Linear_5,3,5,56,103,2811883928
4316,19,Jits_Linear_5,0,5,56,103,2812284404
4316,19,Jits_Linear_5,1,5,63,98,2812314180
4316,19,Jits_Linear_5,2,1,48,40,2812362184
4316,19,Jits_Linear_5,3,5,80,127,2812383556
4316,19,Jits_Linear_5,0,5,56,103,2812773840
4316,19,Jits_Linear_5,1,1,48,44,2812827404
4316,19,Jits_Linear_5,2,5,80,127,2812834028
4316,19,Jits_Linear_5,3,5,63,98,2812863928
4316,19,Jits_Linear_5,0,1,48,46,2813262136
4316,19,Jits_Linear_5,1,5,56,103,2813273468
4316,19,Jits_Linear_5,2,5,63,98,2813283812
4316,19,Jits_Linear_5,3,5,80,127,2813323752
4316,19,Jits_Linear_5,0,1,48,40,2813743460
4316,19,Jits_Linear_5,1,5,63,98,2813764160
4316,19,Jits_Linear_5,2,5,80,127,2813844092
4316,19,Jits_Linear_5,3,5,56,103,2813854168
4316,19,Jits_Linear_5,0,5,63,98,2814313908
4316,19,Jits_Linear_5,1,1,48,39,2814327964
4316,19,Jits_Linear_5,2,5,56,103,2814353912
4316,19,Jits_Linear_5,3,5,80,127,2814356980
4316,19,Jits_Linear_5,0,5,56,103,2814773732
4316,19,Jits_Linear_5,1,5,63,98,2814784228
4316,19,Jits_Linear_5,2,5,80,127,2814823720
4316,19,Jits_Linear_5,3,1,48,29,2814925156
4316,19,Jits_Linear_5,0,5,56,103,2815274328
4316,19,Jits_Linear_5,1,5,63,98,2815277544
4316,19,Jits_Linear_5,2,5,80,127,2815293964
4316,19,Jits_Linear_5,3,1,48,43,2815336336
4316,19,Jits_Linear_5,0,1,48,45,2815771500
4316,19,Jits_Linear_5,1,5,80,127,2815793496
4316,19,Jits_Linear_5,2,5,56,103,2815803988
4316,19,Jits_Linear_5,3,5,63,98,2815874556
4316,19,Jits_Linear_5,0,5,63,98,2816294236
4316,19,Jits_Linear_5,1,5,56,103,2816313800
4316,19,Jits_Linear_5,2,1,48,42,2816335796
4316,19,Jits_Linear_5,3,5,80,127,2816393512
4316,19,Jits_Linear_5,0,1,48,37,2816793968
4316,19,Jits_Linear_5,1,5,56,103,2816813472
4316,19,Jits_Linear_5,2,5,80,127,2816854312
4316,19,Jits_Linear_5,3,5,63,98,2816863536
4316,19,Jits_Linear_5,0,5,80,127,2817314140
4316,19,Jits_Linear_5,1,1,48,46,2817336140
4316,19,Jits_Linear_5,2,5,63,98,2817344036
4316,19,Jits_Linear_5,3,5,56,103,2817384048
4316,19,Jits_Linear_5,0,1,48,46,2817841996
4316,19,Jits_Linear_5,1,5,56,103,2817843728
4316,19,Jits_Linear_5,2,5,63,98,2817874232
4316,19,Jits_Linear_5,3,5,80,127,2817923388
4316,19,Jits_Linear_5,0,1,48,43,2818334860
4316,19,Jits_Linear_5,1,5,80,127,2818353388
4316,19,Jits_Linear_5,2,5,56,103,2818393480
4316,19,Jits_Linear_5,3,5,63,98,2818403972
4316,19,Jits_Linear_5,0,1,48,43,2818833572
4316,19,Jits_Linear_5,1,5,80,127,2818854196
4316,19,Jits_Linear_5,2,5,63,98,2818894136
4316,19,Jits_Linear_5,3,5,56,103,2818953544
4316,19,Jits_Linear_5,0,1,48,43,2819351448
4316,19,Jits_Linear_5,1,5,56,103,2819373368
4316,19,Jits_Linear_5,2,5,80,127,2819383788
4316,19,Jits_Linear_5,3,5,63,98,2819463496
4316,19,Jits_Linear_5,0,1,48,43,2819863140
4316,19,Jits_Linear_5,1,5,80,127,2819893508
4316,19,Jits_Linear_5,2,5,63,98,2819954052
4316,19,Jits_Linear_5,3,5,56,103,2819983936
4316,19,Jits_Linear_5,0,1,48,40,2820397884
4316,19,Jits_Linear_5,1,5,56,103,2820413876
4316,19,Jits_Linear_5,2,5,80,127,2820474340
4316,19,Jits_Linear_5,3,5,63,98,2820514140
4316,19,Jits_Linear_5,0,1,48,42,2820935864
4316,19,Jits_Linear_5,1,5,56,103,2820994780
4316,19,Jits_Linear_5,2,5,63,98,2821003776
4316,19,Jits_Linear_5,3,5,80,127,2821007140
4316,19,Jits_Linear_5,0,5,80,127,2821473936
4316,19,Jits_Linear_5,1,1,48,42,2821511752
4316,19,Jits_Linear_5,2,5,63,98,2821563868
4316,19,Jits_Linear_5,3,5,56,103,2821574064
4316,19,Jits_Linear_5,0,1,48,46,2822001388
4316,19,Jits_Linear_5,1,5,56,103,2822004024
4316,19,Jits_Linear_5,2,5,63,98,2822007200
4316,19,Jits_Linear_5,3,5,80,127,2822010324
4316,19,Jits_Linear_5,0,5,80,127,2822553864
4316,19,Jits_Linear_5,1,1,48,49,2822556604
4316,19,Jits_Linear_5,2,5,63,98,2822604212
4316,19,Jits_Linear_5,3,5,56,103,2822633740
4316,19,Jits_Linear_5,0,5,56,103,2823063880
4316,19,Jits_Linear_5,1,5,80,127,2823074152
4316,19,Jits_Linear_5,2,1,48,40,2823078764
4316,19,Jits_Linear_5,3,5,63,98,2823143828
4316,19,Jits_Linear_5,0,5,56,103,2823603816
4316,19,Jits_Linear_5,1,5,63,98,2823623976
4316,19,Jits_Linear_5,2,1,48,42,2823625392
4316,19,Jits_Linear_5,3,5,80,127,2823683540
4316,19,Jits_Linear_5,0,5,80,127,2824134084
4316,19,Jits_Linear_5,1,1,48,44,2824137724
4316,19,Jits_Linear_5,2,5,63,98,2824203840
4316,19,Jits_Linear_5,3,5,56,103,2824224224
4316,19,Jits_Linear_5,0,1,48,51,2824668884
4316,19,Jits_Linear_5,1,5,80,127,2824694020
4316,19,Jits_Linear_5,2,5,56,103,2824704516
4316,19,Jits_Linear_5,3,5,63,98,2824713664
4316,19,Jits_Linear_5,0,1,48,43,2825172700
4316,19,Jits_Linear_5,1,5,80,127,2825223744
4316,19,Jits_Linear_5,2,5,56,103,2825243980
4316,19,Jits_Linear_5,3,5,63,98,2825313724
4316,19,Jits_Linear_5,0,1,48,41,2825697476
4316,19,Jits_Linear_5,1,5,56,103,2825773556
4316,19,Jits_Linear_5,2,5,80,127,2825804116
4316,19,Jits_Linear_5,3,5,63,98,2825823752
4316,19,Jits_Linear_5,0,1,48,42,2826276360
4316,19,Jits_Linear_5,1,5,63,98,2826314076
4316,19,Jits_Linear_5,2,5,56,103,2826373628
4316,19,Jits_Linear_5,3,5,80,127,2826404152
4316,19,Jits_Linear_5,0,1,48,48,2826804892
4316,19,Jits_Linear_5,1,5,63,98,2826853840
4316,19,Jits_Linear_5,2,5,80,127,2826857056
4316,19,Jits_Linear_5,3,5,56,103,2826943912
4316,19,Jits_Linear_5,0,1,48,40,2827327260
4316,19,Jits_Linear_5,1,5,56,103,2827424176
4316,19,Jits_Linear_5,2,5,63,98,2827453860
4316,19,Jits_Linear_5,3,5,80,127,2827493872
4316,19,Jits_Linear_5,0,1,48,40,2827926152
4316,19,Jits_Linear_5,1,5,63,98,2827974008
4316,19,Jits_Linear_5,2,5,56,103,2828013948
4316,19,Jits_Linear_5,3,5,80,127,2828034544
4316,19,Jits_Linear_5,0,1,48,42,2828496072
4316,19,Jits_Linear_5,1,5,63,98,2828534012
4316,19,Jits_Linear_5,2,5,56,103,2828573952
4316,19,Jits_Linear_5,3,5,80,127,2828584296
4316,19,Jits_Linear_5,0,5,80,127,2829063752
4316,19,Jits_Linear_5,1,1,48,37,2829071528
4316,19,Jits_Linear_5,2,5,63,98,2829134104
4316,19,Jits_Linear_5,3,5,56,103,2829153664
4316,19,Jits_Linear_5,0,5,56,103,2829613352
4316,19,Jits_Linear_5,1,1,48,44,2829633888
4316,19,Jits_Linear_5,2,5,80,127,2829635752
4316,19,Jits_Linear_5,3,5,63,98,2829673820
4316,19,Jits_Linear_5,0,1,48,46,2830144036
4316,19,Jits_Linear_5,1,5,63,98,2830183696
4316,19,Jits_Linear_5,2,5,80,127,2830204456
4316,19,Jits_Linear_5,3,5,56,103,2830244328
4316,19,Jits_Linear_5,0,1,48,40,2830731688
4316,19,Jits_Linear_5,1,5,63,98,2830743940
4316,19,Jits_Linear_5,2,5,56,103,2830764700
4316,19,Jits_Linear_5,3,5,80,127,2830773700
4316,19,Jits_Linear_5,0,1,48,42,2831287800
4316,19,Jits_Linear_5,1,5,80,127,2831314276
4316,19,Jits_Linear_5,2,5,56,103,2831333692
4316,19,Jits_Linear_5,3,5,63,98,2831363516
4316,19,Jits_Linear_5,0,1,48,48,2831821868
4316,19,Jits_Linear_5,1,5,56,103,2831954576
4316,19,Jits_Linear_5,2,5,80,127,2831957492
4316,19,Jits_Linear_5,3,5,63,98,2831973692
4316,19,Jits_Linear_5,0,5,63,98,2832443720
4316,19,Jits_Linear_5,1,5,56,103,2832473620
4316,19,Jits_Linear_5,2,1,48,45,2832479432
4316,19,Jits_Linear_5,3,5,80,127,2832533852
4316,19,Jits_Linear_5,0,1,48,42,2832987272
4316,19,Jits_Linear_5,1,5,63,98,2833093856
4316,19,Jits_Linear_5,2,5,56,103,2833104348
4316,19,Jits_Linear_5,3,5,80,127,2833113720
4316,19,Jits_Linear_5,0,1,48,37,2833591740
4316,19,Jits_Linear_5,1,5,56,103,2833614308
4316,19,Jits_Linear_5,2,5,80,127,2833643840
4316,19,Jits_Linear_5,3,5,63,98,2833654108
4316,19,Jits_Linear_5,0,1,48,43,2834156524
4316,19,Jits_Linear_5,1,5,63,98,2834223612
4316,19,Jits_Linear_5,2,5,56,103,2834233660
4316,19,Jits_Linear_5,3,5,80,127,2834254120
4316,19,Jits_Linear_5,0,5,56,103,2834724136
4316,19,Jits_Linear_5,1,1,48,30,2834756548
4316,19,Jits_Linear_5,2,5,63,98,2834783624
4316,19,Jits_Linear_5,3,5,80,127,2834786988
4316,19,Jits_Linear_5,0,1,48,25,2835303588
4316,19,Jits_Linear_5,1,5,80,127,2835324212
4316,19,Jits_Linear_5,2,5,56,103,2835333736
4316,19,Jits_Linear_5,3,5,63,98,2835404100
4316,19,Jits_Linear_5,0,1,48,43,2835887580
4316,19,Jits_Linear_5,1,5,80,127,2835893604
4316,19,Jits_Linear_5,2,5,56,103,2835964332
4316,19,Jits_Linear_5,3,5,63,98,2835973632
4316,19,Jits_Linear_5,0,1,48,46,2836449672
4316,19,Jits_Linear_5,1,5,63,98,2836514140
4316,19,Jits_Linear_5,2,5,56,103,2836524488
4316,19,Jits_Linear_5,3,5,80,127,2836543812
4316,19,Jits_Linear_5,0,1,48,46,2837043280
4316,19,Jits_Linear_5,1,5,80,127,2837044916
4316,19,Jits_Linear_5,2,1,48,32,2837091644
4316,19,Jits_Linear_5,3,5,63,98,2837104020
4316,19,Jits_Linear_5,4,5,56,103,2837143984
4316,19,Jits_Linear_5,0,1,48,48,2837605544
4316,19,Jits_Linear_5,1,1,48,33,2837659856
4316,19,Jits_Linear_5,2,5,56,103,2837674720
4316,19,Jits_Linear_5,3,5,63,98,2837683648
4316,19,Jits_Linear_5,4,5,80,127,2837723512
4316,19,Jits_Linear_5,0,1,48,50,2838209964
4316,19,Jits_Linear_5,1,5,56,103,2838224752
4316,19,Jits_Linear_5,2,1,48,36,2838248984
4316,19,Jits_Linear_5,3,5,80,127,2838253888
4316,19,Jits_Linear_5,4,5,63,98,2838304388
4316,19,Jits_Linear_5,0,1,48,40,2838775708
4316,19,Jits_Linear_5,1,5,56,103,2838854328
4316,19,Jits_Linear_5,2,5,63,98,2838894032
4316,19,Jits_Linear_5,3,5,80,127,2838897468
4316,19,Jits_Linear_5,0,1,48,40,2839439012
4316,19,Jits_Linear_5,1,5,56,103,2839443916
4316,19,Jits_Linear_5,2,5,63,98,2839454140
4316,19,Jits_Linear_5,3,5,80,127,2839473628
4316,19,Jits_Linear_5,0,5,56,103,2839993832
4316,19,Jits_Linear_5,1,5,80,127,2839996824
4316,19,Jits_Linear_5,2,1,48,44,2840013216
4316,19,Jits_Linear_5,3,5,63,98,2840033764
4316,19,Jits_Linear_5,0,1,48,51,2840565268
4316,19,Jits_Linear_5,1,5,63,98,2840623512
4316,19,Jits_Linear_5,2,5,56,103,2840654308
4316,19,Jits_Linear_5,3,5,80,127,2840673632
4316,19,Jits_Linear_5,0,1,48,49,2841161824
4316,19,Jits_Linear_5,1,5,80,127,2841193852
4316,19,Jits_Linear_5,2,5,56,103,2841204048
4316,19,Jits_Linear_5,3,5,63,98,2841214392
4316,19,Jits_Linear_5,0,1,48,50,2841714932
4316,19,Jits_Linear_5,1,5,56,103,2841793800
4316,19,Jits_Linear_5,2,5,80,127,2841833804
4316,19,Jits_Linear_5,3,5,63,98,2841863404
4316,19,Jits_Linear_5,0,1,48,42,2842323284
4316,19,Jits_Linear_5,1,5,63,98,2842404372
4316,19,Jits_Linear_5,2,5,80,127,2842413300
4316,19,Jits_Linear_5,3,5,56,103,2842423552
4316,19,Jits_Linear_5,0,1,48,43,2842944332
4316,19,Jits_Linear_5,1,5,56,103,2842983844
4316,19,Jits_Linear_5,2,5,63,98,2843053540
4316,19,Jits_Linear_5,3,5,80,127,2843063812
4316,19,Jits_Linear_5,0,1,48,46,2843535800
4316,19,Jits_Linear_5,1,5,80,127,2843594440
4316,19,Jits_Linear_5,2,5,56,103,2843604636
4316,19,Jits_Linear_5,3,5,63,98,2843653480
4316,19,Jits_Linear_5,0,1,48,45,2844210520
4316,19,Jits_Linear_5,1,5,80,127,2844213700
4316,19,Jits_Linear_5,2,5,56,103,2844274320
4316,19,Jits_Linear_5,3,5,63,98,2844303624
4316,19,Jits_Linear_5,0,1,48,67,2844785364
4316,19,Jits_Linear_5,1,1,48,49,2844815236
4316,19,Jits_Linear_5,2,5,56,103,2844823904
4316,19,Jits_Linear_5,3,5,80,127,2844826968
4316,19,Jits_Linear_5,4,5,63,98,2844863992
4316,19,Jits_Linear_5,0,1,48,66,2845384308
4316,19,Jits_Linear_5,1,1,48,51,2845419044
4316,19,Jits_Linear_5,2,5,56,103,2845463808
4316,19,Jits_Linear_5,3,5,63,98,2845493636
4316,19,Jits_Linear_5,4,5,80,127,2845503832
4316,19,Jits_Linear_5,0,1,48,60,2846015384
4316,19,Jits_Linear_5,1,1,48,46,2846045264
4316,19,Jits_Linear_5,2,5,63,98,2846083428
4316,19,Jits_Linear_5,3,5,80,127,2846093548
4316,19,Jits_Linear_5,4,5,56,103,2846103916
4316,19,Jits_Linear_5,0,5,80,127,2846643600
4316,19,Jits_Linear_5,1,1,48,61,2846680652
4316,19,Jits_Linear_5,2,5,56,103,2846693872
4316,19,Jits_Linear_5,3,5,63,98,2846697012
4316,19,Jits_Linear_5,4,1,48,46,2846707312
4316,19,Jits_Linear_5,0,1,48,59,2847284536
4316,19,Jits_Linear_5,1,5,56,103,2847293776
4316,19,Jits_Linear_5,2,5,80,127,2847314308
4316,19,Jits_Linear_5,3,5,63,98,2847323460
4316,19,Jits_Linear_5,0,1,48,53,2847873156
4316,19,Jits_Linear_5,1,5,63,98,2847893852
4316,19,Jits_Linear_5,2,5,56,103,2847923480
4316,19,Jits_Linear_5,3,5,80,127,2847944236
4316,19,Jits_Linear_5,0,1,48,54,2848476472
4316,19,Jits_Linear_5,1,5,56,103,2848523628
4316,19,Jits_Linear_5,2,5,80,127,2848533824
4316,19,Jits_Linear_5,3,5,63,98,2848603568
4316,19,Jits_Linear_5,0,1,48,56,2849105252
4316,19,Jits_Linear_5,1,5,63,98,2849133972
4316,19,Jits_Linear_5,2,5,80,127,2849173840
4316,19,Jits_Linear_5,3,5,56,103,2849213792
4316,19,Jits_Linear_5,0,1,48,54,2849702220
4316,19,Jits_Linear_5,1,5,56,103,2849773868
4316,19,Jits_Linear_5,2,5,63,98,2849784288
4316,19,Jits_Linear_5,3,5,80,127,2849803684
4316,19,Jits_Linear_5,0,1,48,56,2850330756
4316,19,Jits_Linear_5,1,1,48,43,2850359200
4316,19,Jits_Linear_5,2,5,63,98,2850443752
4316,19,Jits_Linear_5,3,5,80,127,2850464148
4316,19,Jits_Linear_5,4,5,56,103,2850483712
4316,19,Jits_Linear_5,0,1,48,46,2850968228
4316,19,Jits_Linear_5,1,5,56,103,2851014112
4316,19,Jits_Linear_5,2,5,80,127,2851094048
4316,19,Jits_Linear_5,3,5,63,98,2851104096
4316,19,Jits_Linear_5,0,5,80,127,2851683736
4316,19,Jits_Linear_5,1,5,63,98,2851694228
4316,19,Jits_Linear_5,2,5,56,103,2851723608
4316,19,Jits_Linear_5,3,1,48,36,2851753576
4316,19,Jits_Linear_5,0,5,63,98,2852273520
4316,19,Jits_Linear_5,1,1,48,51,2852286532
4316,19,Jits_Linear_5,2,5,80,127,2852313452
4316,19,Jits_Linear_5,3,5,56,103,2852373992
4316,19,Jits_Linear_5,0,5,63,98,2852913384
4316,19,Jits_Linear_5,1,1,48,49,2852923852
4316,19,Jits_Linear_5,2,5,56,103,2852963584
4316,19,Jits_Linear_5,3,5,80,127,2852994380
4316,19,Jits_Linear_5,0,5,80,127,2853563616
4316,19,Jits_Linear_5,1,5,63,98,2853574260
4316,19,Jits_Linear_5,2,1,48,53,2853585844
4316,19,Jits_Linear_5,3,5,56,103,2853643560
4316,19,Jits_Linear_5,0,1,48,53,2854228924
4316,19,Jits_Linear_5,1,5,80,127,2854274368
4316,19,Jits_Linear_5,2,5,56,103,2854283588
4316,19,Jits_Linear_5,3,5,63,98,2854286876
4316,19,Jits_Linear_5,0,5,56,103,2854854020
4316,19,Jits_Linear_5,1,5,80,127,2854873508
4316,19,Jits_Linear_5,2,1,48,53,2854879244
4316,19,Jits_Linear_5,3,5,63,98,2854883548
4316,19,Jits_Linear_5,4,1,48,39,2854911364
4316,19,Jits_Linear_5,0,1,48,53,2855477124
4316,19,Jits_Linear_5,1,5,63,98,2855504276
4316,19,Jits_Linear_5,2,5,56,103,2855544292
4316,19,Jits_Linear_5,3,5,80,127,2855563556
4316,19,Jits_Linear_5,0,1,48,47,2856130800
4316,19,Jits_Linear_5,1,5,63,98,2856153316
4316,19,Jits_Linear_5,2,5,56,103,2856214232
4316,19,Jits_Linear_5,3,5,80,127,2856217144
4316,19,Jits_Linear_5,0,1,48,52,2856757628
4316,19,Jits_Linear_5,1,5,56,103,2856763948
4316,19,Jits_Linear_5,2,5,80,127,2856784188
4316,19,Jits_Linear_5,3,5,63,98,2856824128
4316,19,Jits_Linear_5,0,1,48,61,2857322652
4316,19,Jits_Linear_5,1,1,48,44,2857353116
4316,19,Jits_Linear_5,2,5,56,103,2857443972
4316,19,Jits_Linear_5,3,5,63,98,2857464120
4316,19,Jits_Linear_5,4,5,80,127,2857474320
4316,19,Jits_Linear_5,0,1,48,59,2858001004
4316,19,Jits_Linear_5,1,5,80,127,2858064132
4316,19,Jits_Linear_5,2,5,56,103,2858094104
4316,19,Jits_Linear_5,3,5,63,98,2858134280
4316,19,Jits_Linear_5,0,1,48,51,2858659252
4316,19,Jits_Linear_5,1,5,80,127,2858724096
4316,19,Jits_Linear_5,2,5,56,103,2858744108
4316,19,Jits_Linear_5,3,5,63,98,2858803660
4316,19,Jits_Linear_5,0,1,48,49,2859309976
4316,19,Jits_Linear_5,1,5,56,103,2859384264
4316,19,Jits_Linear_5,2,5,80,127,2859403516
4316,19,Jits_Linear_5,3,5,63,98,2859464156
4316,19,Jits_Linear_5,0,1,48,51,2860013044
4316,19,Jits_Linear_5,1,5,80,127,2860024156
4316,19,Jits_Linear_5,2,5,56,103,2860034280
4316,19,Jits_Linear_5,3,5,63,98,2860074216
4316,19,Jits_Linear_5,0,5,63,98,2860684024
4316,19,Jits_Linear_5,1,1,48,56,2860686772
4316,19,Jits_Linear_5,2,5,56,103,2860723756
4316,19,Jits_Linear_5,3,5,80,127,2860726972
4316,19,Jits_Linear_5,0,1,48,53,2861307828
4316,19,Jits_Linear_5,1,5,63,98,2861363532
4316,19,Jits_Linear_5,2,5,80,127,2861403472
4316,19,Jits_Linear_5,3,5,56,103,2861434176
4316,19,Jits_Linear_5,0,1,48,53,2861949412
4316,19,Jits_Linear_5,1,5,56,103,2862013760
4316,19,Jits_Linear_5,2,5,63,98,2862024028
4316,19,Jits_Linear_5,3,5,80,127,2862053916
4316,19,Jits_Linear_5,0,1,48,54,2862572380
4316,19,Jits_Linear_5,1,5,80,127,2862674288
4316,19,Jits_Linear_5,2,5,63,98,2862743848
4316,19,Jits_Linear_5,3,5,56,103,2862754044
4316,19,Jits_Linear_5,0,1,48,53,2863273332
4316,19,Jits_Linear_5,1,5,63,98,2863343936
4316,19,Jits_Linear_5,2,5,56,103,2863413828
4316,19,Jits_Linear_5,3,5,80,127,2863424024
4316,19,Jits_Linear_5,0,1,48,54,2863960536
4316,19,Jits_Linear_5,1,5,63,98,2864013696
4316,19,Jits_Linear_5,2,5,56,103,2864034104
4316,19,Jits_Linear_5,3,5,80,127,2864074108
4316,19,Jits_Linear_5,0,1,48,49,2864634080
4316,19,Jits_Linear_5,1,5,56,103,2864693816
4316,19,Jits_Linear_5,2,5,63,98,2864703940
4316,19,Jits_Linear_5,3,5,80,127,2864783868
4316,19,Jits_Linear_5,0,5,63,98,2865354016
4316,19,Jits_Linear_5,1,1,48,48,2865360796
4316,19,Jits_Linear_5,2,5,56,103,2865383912
4316,19,Jits_Linear_5,3,5,80,127,2865423924
4316,19,Jits_Linear_5,0,5,56,103,2866023924
4316,19,Jits_Linear_5,1,1,48,51,2866035064
4316,19,Jits_Linear_5,2,5,63,98,2866063712
4316,19,Jits_Linear_5,3,5,80,127,2866103748
4316,19,Jits_Linear_5,0,5,80,127,2866703688
4316,19,Jits_Linear_5,1,1,48,51,2866706280
4316,19,Jits_Linear_5,2,5,56,103,2866783776
4316,19,Jits_Linear_5,3,5,63,98,2866793900
4316,19,Jits_Linear_5,0,1,48,53,2867384008
4316,19,Jits_Linear_5,1,5,56,103,2867423744
4316,19,Jits_Linear_5,2,5,63,98,2867426808
4316,19,Jits_Linear_5,3,5,80,127,2867433864
4316,19,Jits_Linear_5,0,1,48,47,2868047156
4316,19,Jits_Linear_5,1,5,56,103,2868124156
4316,19,Jits_Linear_5,2,5,63,98,2868143704
4316,19,Jits_Linear_5,3,5,80,127,2868153904
4316,19,Jits_Linear_5,0,1,48,49,2868737840
4316,19,Jits_Linear_5,1,5,63,98,2868763948
4316,19,Jits_Linear_5,2,5,80,127,2868774144
4316,19,Jits_Linear_5,3,5,56,103,2868793856
4316,19,Jits_Linear_5,0,1,48,49,2869408816
4316,19,Jits_Linear_5,1,5,63,98,2869454172
4316,19,Jits_Linear_5,2,5,56,103,2869533952
4316,19,Jits_Linear_5,3,5,80,127,2869537172
4316,19,Jits_Linear_5,0,1,48,42,2870102404
4316,19,Jits_Linear_5,1,5,63,98,2870144604
4316,19,Jits_Linear_5,2,5,56,103,2870163720
4316,19,Jits_Linear_5,3,5,80,127,2870193644
4316,19,Jits_Linear_5,0,1,48,46,2870776596
4316,19,Jits_Linear_5,1,5,56,103,2870833492
4316,19,Jits_Linear_5,2,5,63,98,2870854104
4316,19,Jits_Linear_5,3,5,80,127,2870864224
4316,19,Jits_Linear_5,0,1,48,48,2871472608
4316,19,Jits_Linear_5,1,5,56,103,2871554520
4316,19,Jits_Linear_5,2,5,63,98,2871584180
4316,19,Jits_Linear_5,3,5,80,127,2871587692
4316,19,Jits_Linear_5,0,1,48,42,2872177040
4316,19,Jits_Linear_5,1,5,56,103,2872194376
4316,19,Jits_Linear_5,2,5,63,98,2872234492
4316,19,Jits_Linear_5,3,5,80,127,2872293672
4316,19,Jits_Linear_5,0,1,48,43,2872873576
4316,19,Jits_Linear_5,1,5,56,103,2872904096
4316,19,Jits_Linear_5,2,5,63,98,2872914216
4316,19,Jits_Linear_5,3,5,80,127,2872973696
4316,19,Jits_Linear_5,0,1,48,42,2873550312
4316,19,Jits_Linear_5,1,5,56,103,2873603844
4316,19,Jits_Linear_5,2,5,80,127,2873623784
4316,19,Jits_Linear_5,3,5,63,98,2873653596
4316,19,Jits_Linear_5,0,1,48,44,2874246900
4316,19,Jits_Linear_5,1,5,80,127,2874303972
4316,19,Jits_Linear_5,2,5,56,103,2874314092
4316,19,Jits_Linear_5,3,5,63,98,2874333656
4316,19,Jits_Linear_5,0,1,48,42,2874938324
4316,19,Jits_Linear_5,1,5,63,98,2874994176
4316,19,Jits_Linear_5,2,5,80,127,2875073840
4316,19,Jits_Linear_5,3,5,56,103,2875084108
4316,19,Jits_Linear_5,0,1,48,50,2875626920
4316,19,Jits_Linear_5,1,5,80,127,2875753784
4316,19,Jits_Linear_5,2,5,56,103,2875774392
4316,19,Jits_Linear_5,3,5,63,98,2875777532
4316,19,Jits_Linear_5,0,1,48,53,2876388632
4316,19,Jits_Linear_5,1,5,63,98,2876433688
4316,19,Jits_Linear_5,2,5,80,127,2876436980
4316,19,Jits_Linear_5,3,5,56,103,2876494220
4316,19,Jits_Linear_5,0,1,48,51,2877068048
4316,19,Jits_Linear_5,1,5,56,103,2877123924
4316,19,Jits_Linear_5,2,5,80,127,2877134272
4316,19,Jits_Linear_5,3,5,63,98,2877174120
4316,19,Jits_Linear_5,0,1,48,50,2877751700
4316,19,Jits_Linear_5,1,5,56,103,2877814132
4316,19,Jits_Linear_5,2,5,63,98,2877873564
4316,19,Jits_Linear_5,3,5,80,127,2877883688
4316,19,Jits_Linear_5,0,1,48,49,2878478260
4316,19,Jits_Linear_5,1,5,63,98,2878534036
4316,19,Jits_Linear_5,2,5,80,127,2878574716
4316,19,Jits_Linear_5,3,5,56,103,2878613852
4316,19,Jits_Linear_5,0,1,48,44,2879205892
4316,19,Jits_Linear_5,1,5,56,103,2879243604
4316,19,Jits_Linear_5,2,5,63,98,2879323384
4316,19,Jits_Linear_5,3,5,80,127,2879326976
4316,19,Jits_Linear_5,0,1,48,49,2879930724
4316,19,Jits_Linear_5,1,5,80,127,2880013624
4316,19,Jits_Linear_5,2,5,56,103,2880044556
4316,19,Jits_Linear_5,3,5,63,98,2880047620
4316,19,Jits_Linear_5,0,5,56,103,2880693752
4316,19,Jits_Linear_5,1,5,80,127,2880714060
4316,19,Jits_Linear_5,2,1,48,51,2880718672
4316,19,Jits_Linear_5,3,5,63,98,2880753920
4316,19,Jits_Linear_5,0,5,80,127,2881394164
4316,19,Jits_Linear_5,1,5,63,98,2881413428
4316,19,Jits_Linear_5,2,5,56,103,2881473844
4316,19,Jits_Linear_5,3,1,48,41,2881490068
4316,19,Jits_Linear_5,0,1,48,49,2882114804
4316,19,Jits_Linear_5,1,5,63,98,2882134532
4316,19,Jits_Linear_5,2,5,56,103,2882143680
4316,19,Jits_Linear_5,3,5,80,127,2882193660
4316,19,Jits_Linear_5,0,1,48,51,2882838364
4316,19,Jits_Linear_5,1,5,56,103,2882843944
4316,19,Jits_Linear_5,2,5,63,98,2882863432
4316,19,Jits_Linear_5,3,5,80,127,2882873628
4316,19,Jits_Linear_5,0,1,48,57,2883520352
4316,19,Jits_Linear_5,1,5,56,103,2883563768
4316,19,Jits_Linear_5,2,5,63,98,2883566912
4316,19,Jits_Linear_5,3,5,80,127,2883584232
4316,19,Jits_Linear_5,0,1,48,49,2884210544
4316,19,Jits_Linear_5,1,5,63,98,2884333996
4316,19,Jits_Linear_5,2,5,56,103,2884363672
4316,19,Jits_Linear_5,3,5,80,127,2884394472
4316,19,Jits_Linear_5,0,1,48,56,2884907904
4316,19,Jits_Linear_5,1,1,48,42,2884938004
4316,19,Jits_Linear_5,2,5,80,127,2885024372
4316,19,Jits_Linear_5,3,5,56,103,2885114272
4316,19,Jits_Linear_5,4,5,63,98,2885117412
4316,19,Jits_Linear_5,0,5,56,103,2885754356
4316,19,Jits_Linear_5,1,5,80,127,2885757424
4316,19,Jits_Linear_5,2,1,48,53,2885792800
4316,19,Jits_Linear_5,3,5,63,98,2885834100
4316,19,Jits_Linear_5,0,1,48,48,2886465548
4316,19,Jits_Linear_5,1,5,80,127,2886484300
4316,19,Jits_Linear_5,2,5,63,98,2886543796
4316,19,Jits_Linear_5,3,5,56,103,2886573408
4316,19,Jits_Linear_5,0,1,48,47,2887179144
4316,19,Jits_Linear_5,1,5,63,98,2887213496
4316,19,Jits_Linear_5,2,5,80,127,2887223544
4316,19,Jits_Linear_5,3,5,56,103,2887294404
4316,19,Jits_Linear_5,0,1,48,54,2887925128
4316,19,Jits_Linear_5,1,5,56,103,2887964112
4316,19,Jits_Linear_5,2,5,80,127,2887993640
4316,19,Jits_Linear_5,3,5,63,98,2888043904
4316,19,Jits_Linear_5,0,1,48,44,2888595928
4316,19,Jits_Linear_5,1,5,63,98,2888744288
4316,19,Jits_Linear_5,2,5,56,103,2888774188
4316,19,Jits_Linear_5,3,5,80,127,2888777256
4316,19,Jits_Linear_5,0,1,48,56,2889382436
4316,19,Jits_Linear_5,1,5,63,98,2889483592
4316,19,Jits_Linear_5,2,5,80,127,2889504200
4316,19,Jits_Linear_5,3,5,56,103,2889514472
4316,19,Jits_Linear_5,0,1,48,50,2890175688
4316,19,Jits_Linear_5,1,5,56,103,2890234228
4316,19,Jits_Linear_5,2,5,63,98,2890237144
4316,19,Jits_Linear_5,3,5,80,127,2890253564
4316,19,Jits_Linear_5,0,1,48,50,2890899144
4316,19,Jits_Linear_5,1,5,56,103,2890933672
4316,19,Jits_Linear_5,2,5,63,98,2890943940
4316,19,Jits_Linear_5,3,5,80,127,2890973616
4316,19,Jits_Linear_5,0,1,48,49,2891634264
4316,19,Jits_Linear_5,1,5,63,98,2891703624
4316,19,Jits_Linear_5,2,5,80,127,2891724156
4316,19,Jits_Linear_5,3,5,56,103,2891764156
4316,19,Jits_Linear_5,0,1,48,48,2892312964
4316,19,Jits_Linear_5,1,5,56,103,2892484052
4316,19,Jits_Linear_5,2,5,63,98,2892524368
4316,19,Jits_Linear_5,3,5,80,127,2892527504
4316,19,Jits_Linear_5,0,5,80,127,2893174276
4316,19,Jits_Linear_5,1,1,48,49,2893189532
4316,19,Jits_Linear_5,2,5,56,103,2893214312
4316,19,Jits_Linear_5,3,5,63,98,2893264216
4316,19,Jits_Linear_5,0,1,48,51,2893906520
4316,19,Jits_Linear_5,1,5,56,103,2893984048
4316,19,Jits_Linear_5,2,5,80,127,2893994244
4316,19,Jits_Linear_5,3,5,63,98,2894023980
4316,19,Jits_Linear_5,0,5,56,103,2894683632
4316,19,Jits_Linear_5,1,5,80,127,2894723572
4316,19,Jits_Linear_5,2,5,63,98,2894773652
4316,19,Jits_Linear_5,3,1,48,37,2894793408
4316,19,Jits_Linear_5,0,5,56,103,2895444380
4316,19,Jits_Linear_5,1,5,80,127,2895484252
4316,19,Jits_Linear_5,2,5,63,98,2895533356
4316,19,Jits_Linear_5,3,1,48,51,2895544348
4316,19,Jits_Linear_5,0,5,80,127,2896194044
4316,19,Jits_Linear_5,1,1,48,57,2896251548
4316,19,Jits_Linear_5,2,5,63,98,2896273916
4316,19,Jits_Linear_5,3,5,56,103,2896283980
4316,19,Jits_Linear_5,0,1,48,53,2896978280
4316,19,Jits_Linear_5,1,5,80,127,2897004156
4316,19,Jits_Linear_5,2,5,56,103,2897014204
4316,19,Jits_Linear_5,3,5,63,98,2897033544
4316,19,Jits_Linear_5,0,1,48,51,2897733660
4316,19,Jits_Linear_5,1,5,63,98,2897735296
4316,19,Jits_Linear_5,2,5,56,103,2897803560
4316,19,Jits_Linear_5,3,5,80,127,2897806700
4316,19,Jits_Linear_5,0,1,48,54,2898461004
4316,19,Jits_Linear_5,1,5,80,127,2898494004
4316,19,Jits_Linear_5,2,5,63,98,2898544136
4316,19,Jits_Linear_5,3,5,56,103,2898584160
4316,19,Jits_Linear_5,0,5,63,98,2899303904
4316,19,Jits_Linear_5,1,5,56,103,2899343768
4316,19,Jits_Linear_5,2,5,80,127,2899353916
4316,19,Jits_Linear_5,3,1,48,47,2899370440
4316,19,Jits_Linear_5,0,1,48,58,2900041992
4316,19,Jits_Linear_5,1,5,63,98,2900063740
4316,19,Jits_Linear_5,2,1,48,43,2900070356
4316,19,Jits_Linear_5,3,5,56,103,2900084032
4316,19,Jits_Linear_5,4,5,80,127,2900103444
4316,19,Jits_Linear_5,0,1,48,48,2900737580
4316,19,Jits_Linear_5,1,5,80,127,2900794028
4316,19,Jits_Linear_5,2,5,56,103,2900803928
4316,19,Jits_Linear_5,3,5,63,98,2900824388
4316,19,Jits_Linear_5,0,5,63,98,2901593656
4316,19,Jits_Linear_5,1,5,56,103,2901634420
4316,19,Jits_Linear_5,2,1,48,42,2901656444
4316,19,Jits_Linear_5,3,5,80,127,2901664040
4316,19,Jits_Linear_5,0,1,48,52,2902331672
4316,19,Jits_Linear_5,1,5,56,103,2902374020
4316,19,Jits_Linear_5,2,5,63,98,2902403400
4316,19,Jits_Linear_5,3,5,80,127,2902434280
4316,19,Jits_Linear_5,0,1,48,50,2903067000
4316,19,Jits_Linear_5,1,5,80,127,2903124344
4316,19,Jits_Linear_5,2,5,56,103,2903193884
4316,19,Jits_Linear_5,3,5,63,98,2903196956
4316,19,Jits_Linear_5,0,1,48,57,2903794988
4316,19,Jits_Linear_5,1,5,56,103,2903924168
4316,19,Jits_Linear_5,2,5,63,98,2903974396
4316,19,Jits_Linear_5,3,5,80,127,2904003852
4316,19,Jits_Linear_5,0,1,48,49,2904587268
4316,19,Jits_Linear_5,1,5,63,98,2904683856
4316,19,Jits_Linear_5,2,5,80,127,2904687072
4316,19,Jits_Linear_5,3,5,56,103,2904744348
4316,19,Jits_Linear_5,0,1,48,47,2905342300
4316,19,Jits_Linear_5,1,5,56,103,2905493980
4316,19,Jits_Linear_5,2,5,80,127,2905504028
4316,19,Jits_Linear_5,3,5,63,98,2905554228
4316,19,Jits_Linear_5,0,1,48,44,2906115324
4316,19,Jits_Linear_5,1,5,63,98,2906253644
4316,19,Jits_Linear_5,2,5,56,103,2906263792
4316,19,Jits_Linear_5,3,5,80,127,2906293616
4316,19,Jits_Linear_5,0,1,48,45,2906825176
4316,19,Jits_Linear_5,1,5,63,98,2907073960
4316,19,Jits_Linear_5,2,5,80,127,2907077252
4316,19,Jits_Linear_5,3,5,56,103,2907103788
4316,19,Jits_Linear_5,0,5,63,98,2907883864
4316,19,Jits_Linear_5,1,5,56,103,2907904244
4316,19,Jits_Linear_5,2,5,80,127,2907907312
4316,19,Jits_Linear_5,3,1,48,46,2908169136
4316,19,Jits_Linear_5,0,5,63,98,2908633652
4316,19,Jits_Linear_5,1,1,48,56,2908651692
4316,19,Jits_Linear_5,2,5,56,103,2908704080
4316,19,Jits_Linear_5,3,5,80,127,2908723640
4316,19,Jits_Linear_5,0,1,48,53,2909355916
4316,19,Jits_Linear_5,1,5,56,103,2909413788
4316,19,Jits_Linear_5,2,5,63,98,2909423984
4316,19,Jits_Linear_5,3,5,80,127,2909514028
4316,19,Jits_Linear_5,0,1,48,46,2910106164
4316,19,Jits_Linear_5,1,5,56,103,2910223812
4316,19,Jits_Linear_5,2,5,80,127,2910263828
4316,19,Jits_Linear_5,3,5,63,98,2910273872
4316,19,Jits_Linear_5,0,1,48,48,2910918364
4316,19,Jits_Linear_5,1,5,56,103,2911043884
4316,19,Jits_Linear_5,2,5,63,98,2911073564
4316,19,Jits_Linear_5,3,5,80,127,2911104508
4316,19,Jits_Linear_5,0,5,80,127,2911803748
4316,19,Jits_Linear_5,1,1,48,44,2911836460
4316,19,Jits_Linear_5,2,5,63,98,2911843680
4316,19,Jits_Linear_5,3,5,56,103,2911864064
4316,19,Jits_Linear_5,0,1,48,51,2912552328
4316,19,Jits_Linear_5,1,5,56,103,2912643532
4316,19,Jits_Linear_5,2,5,80,127,2912663780
4316,19,Jits_Linear_5,3,5,63,98,2912684536
4316,19,Jits_Linear_5,0,1,48,50,2913372028
4316,19,Jits_Linear_5,1,5,63,98,2913413780
4316,19,Jits_Linear_5,2,5,56,103,2913423832
4316,19,Jits_Linear_5,3,5,80,127,2913484156
4316,19,Jits_Linear_5,0,1,48,52,2914125340
4316,19,Jits_Linear_5,1,5,56,103,2914223604
4316,19,Jits_Linear_5,2,5,63,98,2914294336
4316,19,Jits_Linear_5,3,5,80,127,2914313748
4316,19,Jits_Linear_5,0,1,48,52,2914908624
4316,19,Jits_Linear_5,1,5,56,103,2915033416
4316,19,Jits_Linear_5,2,5,63,98,2915064216
4316,19,Jits_Linear_5,3,5,80,127,2915104156
4316,19,Jits_Linear_5,0,1,48,53,2915756740
4316,19,Jits_Linear_5,1,1,48,38,2915788780
4316,19,Jits_Linear_5,2,5,63,98,2915834220
4316,19,Jits_Linear_5,3,5,56,103,2915884500
4316,19,Jits_Linear_5,4,5,80,127,2915893708
4316,19,Jits_Linear_5,0,1,48,49,2916565700
4316,19,Jits_Linear_5,1,1,48,37,2916598416
4316,19,Jits_Linear_5,2,5,56,103,2916684236
4316,19,Jits_Linear_5,3,5,63,98,2916734428
4316,19,Jits_Linear_5,4,5,80,127,2916743504
4316,19,Jits_Linear_5,0,1,48,50,2917363204
4316,19,Jits_Linear_5,1,5,56,103,2917464508
4316,19,Jits_Linear_5,2,5,63,98,2917473656
4316,19,Jits_Linear_5,3,5,80,127,2917553404
4316,19,Jits_Linear_5,0,9999,9999,9999,2808691808
4316,19,Jits_Linear_5,1,9999,9999,9999,2809172048
4316,19,Jits_Linear_5,2,9999,9999,9999,2809651260
4316,19,Jits_Linear_5,3,9999,9999,9999,2810131512
4316,19,Jits_Linear_5,4,9999,9999,9999,2810611812
4316,19,Jits_Linear_5,5,9999,9999,9999,2811101244
4316,19,Jits_Linear_5,6,9999,9999,9999,2811591792
4316,19,Jits_Linear_5,7,9999,9999,9999,2812081232
4316,19,Jits_Linear_5,8,9999,9999,9999,2812571720
4316,19,Jits_Linear_5,9,9999,9999,9999,2813061208
4316,19,Jits_Linear_5,10,9999,9999,9999,2813561960
4316,19,Jits_Linear_5,11,9999,9999,9999,2814061648
4316,19,Jits_Linear_5,12,9999,9999,9999,2814561408
4316,19,Jits_Linear_5,13,9999,9999,9999,2815062144
4316,19,Jits_Linear_5,14,9999,9999,9999,2815572096
4316,19,Jits_Linear_5,15,9999,9999,9999,2816081988
4316,19,Jits_Linear_5,16,9999,9999,9999,2816591940
4316,19,Jits_Linear_5,17,9999,9999,9999,2817101892
4316,19,Jits_Linear_5,18,9999,9999,9999,2817611844
4316,19,Jits_Linear_5,19,9999,9999,9999,2818121812
4316,19,Jits_Linear_5,20,9999,9999,9999,2818642032
4316,19,Jits_Linear_5,21,9999,9999,9999,2819161200
4316,19,Jits_Linear_5,22,9999,9999,9999,2819681340
4316,19,Jits_Linear_5,23,9999,9999,9999,2820201560
4316,19,Jits_Linear_5,24,9999,9999,9999,2820721772
4316,19,Jits_Linear_5,25,9999,9999,9999,2821251128
4316,19,Jits_Linear_5,26,9999,9999,9999,2821781604
4316,19,Jits_Linear_5,27,9999,9999,9999,2822312020
4316,19,Jits_Linear_5,28,9999,9999,9999,2822841456
4316,19,Jits_Linear_5,29,9999,9999,9999,2823371844
4316,19,Jits_Linear_5,30,9999,9999,9999,2823911484
4316,19,Jits_Linear_5,31,9999,9999,9999,2824451196
4316,19,Jits_Linear_5,32,9999,9999,9999,2824991800
4316,19,Jits_Linear_5,33,9999,9999,9999,2825531492
4316,19,Jits_Linear_5,34,9999,9999,9999,2826071116
4316,19,Jits_Linear_5,35,9999,9999,9999,2826622048
4316,19,Jits_Linear_5,36,9999,9999,9999,2827171944
4316,19,Jits_Linear_5,37,9999,9999,9999,2827721832
4316,19,Jits_Linear_5,38,9999,9999,9999,2828271716
4316,19,Jits_Linear_5,39,9999,9999,9999,2828821604
4316,19,Jits_Linear_5,40,9999,9999,9999,2829381756
4316,19,Jits_Linear_5,41,9999,9999,9999,2829941844
4316,19,Jits_Linear_5,42,9999,9999,9999,2830501956
4316,19,Jits_Linear_5,43,9999,9999,9999,2831062100
4316,19,Jits_Linear_5,44,9999,9999,9999,2831631464
4316,19,Jits_Linear_5,45,9999,9999,9999,2832201800
4316,19,Jits_Linear_5,46,9999,9999,9999,2832771160
4316,19,Jits_Linear_5,47,9999,9999,9999,2833341528
4316,19,Jits_Linear_5,48,9999,9999,9999,2833911868
4316,19,Jits_Linear_5,49,9999,9999,9999,2834481240
4316,19,Jits_Linear_5,50,9999,9999,9999,2835061832
4316,19,Jits_Linear_5,51,9999,9999,9999,2835641428
4316,19,Jits_Linear_5,52,9999,9999,9999,2836222028
4316,19,Jits_Linear_5,53,9999,9999,9999,2836801660
4316,19,Jits_Linear_5,54,9999,9999,9999,2837381192
4316,19,Jits_Linear_5,55,9999,9999,9999,2837972056
4316,19,Jits_Linear_5,56,9999,9999,9999,2838561848
4316,19,Jits_Linear_5,57,9999,9999,9999,2839151732
4316,19,Jits_Linear_5,58,9999,9999,9999,2839741500
4316,19,Jits_Linear_5,59,9999,9999,9999,2840331380
4316,19,Jits_Linear_5,60,9999,9999,9999,2840931404
4316,19,Jits_Linear_5,61,9999,9999,9999,2841531508
4316,19,Jits_Linear_5,62,9999,9999,9999,2842131516
4316,19,Jits_Linear_5,63,9999,9999,9999,2842731596
4316,19,Jits_Linear_5,64,9999,9999,9999,2843331700
4316,19,Jits_Linear_5,65,9999,9999,9999,2843941968
4316,19,Jits_Linear_5,66,9999,9999,9999,2844551268
4316,19,Jits_Linear_5,67,9999,9999,9999,2845161532
4316,19,Jits_Linear_5,68,9999,9999,9999,2845771856
4316,19,Jits_Linear_5,69,9999,9999,9999,2846381156
4316,19,Jits_Linear_5,70,9999,9999,9999,2847001728
4316,19,Jits_Linear_5,71,9999,9999,9999,2847621224
4316,19,Jits_Linear_5,72,9999,9999,9999,2848241776
4316,19,Jits_Linear_5,73,9999,9999,9999,2848861264
4316,19,Jits_Linear_5,74,9999,9999,9999,2849481828
4316,19,Jits_Linear_5,75,9999,9999,9999,2850111576
4316,19,Jits_Linear_5,76,9999,9999,9999,2850741340
4316,19,Jits_Linear_5,77,9999,9999,9999,2851371084
4316,19,Jits_Linear_5,78,9999,9999,9999,2852001908
4316,19,Jits_Linear_5,79,9999,9999,9999,2852631676
4316,19,Jits_Linear_5,80,9999,9999,9999,2853271644
4316,19,Jits_Linear_5,81,9999,9999,9999,2853911656
4316,19,Jits_Linear_5,82,9999,9999,9999,2854551632
4316,19,Jits_Linear_5,83,9999,9999,9999,2855191624
4316,19,Jits_Linear_5,84,9999,9999,9999,2855831676
4316,19,Jits_Linear_5,85,9999,9999,9999,2856481880
4316,19,Jits_Linear_5,86,9999,9999,9999,2857131132
4316,19,Jits_Linear_5,87,9999,9999,9999,2857781312
4316,19,Jits_Linear_5,88,9999,9999,9999,2858431608
4316,19,Jits_Linear_5,89,9999,9999,9999,2859081812
4316,19,Jits_Linear_5,90,9999,9999,9999,2859741260
4316,19,Jits_Linear_5,91,9999,9999,9999,2860401724
4316,19,Jits_Linear_5,92,9999,9999,9999,2861061228
4316,19,Jits_Linear_5,93,9999,9999,9999,2861721720
4316,19,Jits_Linear_5,94,9999,9999,9999,2862381136
4316,19,Jits_Linear_5,95,9999,9999,9999,2863051896
4316,19,Jits_Linear_5,96,9999,9999,9999,2863721580
4316,19,Jits_Linear_5,97,9999,9999,9999,2864391288
4316,19,Jits_Linear_5,98,9999,9999,9999,2865061972
4316,19,Jits_Linear_5,99,9999,9999,9999,2865731652
4316,19,Jits_Linear_5,100,9999,9999,9999,2866411624
4316,19,Jits_Linear_5,101,9999,9999,9999,2867091512
4316,19,Jits_Linear_5,102,9999,9999,9999,2867771484
4316,19,Jits_Linear_5,103,9999,9999,9999,2868451384
4316,19,Jits_Linear_5,104,9999,9999,9999,2869131328
4316,19,Jits_Linear_5,105,9999,9999,9999,2869821548
4316,19,Jits_Linear_5,106,9999,9999,9999,2870511708
4316,19,Jits_Linear_5,107,9999,9999,9999,2871201868
4316,19,Jits_Linear_5,108,9999,9999,9999,2871892072
4316,19,Jits_Linear_5,109,9999,9999,9999,2872581188
4316,19,Jits_Linear_5,110,9999,9999,9999,2873281612
4316,19,Jits_Linear_5,111,9999,9999,9999,2873982012
4316,19,Jits_Linear_5,112,9999,9999,9999,2874681464
4316,19,Jits_Linear_5,113,9999,9999,9999,2875381888
4316,19,Jits_Linear_5,114,9999,9999,9999,2876081264
4316,19,Jits_Linear_5,115,9999,9999,9999,2876791924
4316,19,Jits_Linear_5,116,9999,9999,9999,2877501564
4316,19,Jits_Linear_5,117,9999,9999,9999,2878211132
4316,19,Jits_Linear_5,118,9999,9999,9999,2878921820
4316,19,Jits_Linear_5,119,9999,9999,9999,2879631432
4316,19,Jits_Linear_5,120,9999,9999,9999,2880351328
4316,19,Jits_Linear_5,121,9999,9999,9999,2881071164
4316,19,Jits_Linear_5,122,9999,9999,9999,2881792128
4316,19,Jits_Linear_5,123,9999,9999,9999,2882521188
4316,19,Jits_Linear_5,124,9999,9999,9999,2883242060
4316,19,Jits_Linear_5,125,9999,9999,9999,2883971144
4316,19,Jits_Linear_5,126,9999,9999,9999,2884701244
4316,19,Jits_Linear_5,127,9999,9999,9999,2885431380
4316,19,Jits_Linear_5,128,9999,9999,9999,2886161532
4316,19,Jits_Linear_5,129,9999,9999,9999,2886891640
4316,19,Jits_Linear_5,130,9999,9999,9999,2887631992
4316,19,Jits_Linear_5,131,9999,9999,9999,2888371300
4316,19,Jits_Linear_5,132,9999,9999,9999,2889111624
4316,19,Jits_Linear_5,133,9999,9999,9999,2889852032
4316,19,Jits_Linear_5,134,9999,9999,9999,2890591332
4316,19,Jits_Linear_5,135,9999,9999,9999,2891341948
4316,19,Jits_Linear_5,136,9999,9999,9999,2892091456
4316,19,Jits_Linear_5,137,9999,9999,9999,2892842072
4316,19,Jits_Linear_5,138,9999,9999,9999,2893591644
4316,19,Jits_Linear_5,139,9999,9999,9999,2894341236
4316,19,Jits_Linear_5,140,9999,9999,9999,2895102048
4316,19,Jits_Linear_5,141,9999,9999,9999,2895861828
4316,19,Jits_Linear_5,142,9999,9999,9999,2896621672
4316,19,Jits_Linear_5,143,9999,9999,9999,2897381452
4316,19,Jits_Linear_5,144,9999,9999,9999,2898141280
4316,19,Jits_Linear_5,145,9999,9999,9999,2898911312
4316,19,Jits_Linear_5,146,9999,9999,9999,2899681340
4316,19,Jits_Linear_5,147,9999,9999,9999,2900451424
4316,19,Jits_Linear_5,148,9999,9999,9999,2901221440
4316,19,Jits_Linear_5,149,9999,9999,9999,2901991544
4316,19,Jits_Linear_5,150,9999,9999,9999,2902771768
4316,19,Jits_Linear_5,151,9999,9999,9999,2903552124
4316,19,Jits_Linear_5,152,9999,9999,9999,2904341560
4316,19,Jits_Linear_5,153,9999,9999,9999,2905121912
4316,19,Jits_Linear_5,154,9999,9999,9999,2905901156
4316,19,Jits_Linear_5,155,9999,9999,9999,2906691708
4316,19,Jits_Linear_5,156,9999,9999,9999,2907481204
4316,19,Jits_Linear_5,157,9999,9999,9999,2908271676
4316,19,Jits_Linear_5,158,9999,9999,9999,2909061188
4316,19,Jits_Linear_5,159,9999,9999,9999,2909851764
4316,19,Jits_Linear_5,160,9999,9999,9999,2910651460
4316,19,Jits_Linear_5,161,9999,9999,9999,2911451232
4316,19,Jits_Linear_5,162,9999,9999,9999,2912251976
4316,19,Jits_Linear_5,163,9999,9999,9999,2913051764
4316,19,Jits_Linear_5,164,9999,9999,9999,2913851460
4316,19,Jits_Linear_5,165,9999,9999,9999,2914661500
4316,19,Jits_Linear_5,166,9999,9999,9999,2915471456
4316,19,Jits_Linear_5,167,9999,9999,9999,2916281412
4316,19,Jits_Linear_5,168,9999,9999,9999,2917091424
4316,19,Jits_Linear_5,169,9999,9999,9999,2917901376
4317,18,Jits_Linear_8,0,5,56,103,2929430012
4317,18,Jits_Linear_8,1,5,63,98,2929433188
4317,18,Jits_Linear_8,2,5,80,127,2929436308
4317,18,Jits_Linear_8,0,1,48,36,2930054204
4317,18,Jits_Linear_8,1,5,56,103,2930250080
4317,18,Jits_Linear_8,2,5,63,98,2930253176
4317,18,Jits_Linear_8,3,5,80,127,2930256300
4317,18,Jits_Linear_8,0,5,80,127,2931010140
4317,18,Jits_Linear_8,1,1,48,41,2931091056
4317,18,Jits_Linear_8,2,5,63,98,2931100148
4317,18,Jits_Linear_8,3,5,56,103,2931110344
4317,18,Jits_Linear_8,0,5,56,103,2931849624
4317,18,Jits_Linear_8,1,5,63,98,2931860068
4317,18,Jits_Linear_8,2,1,48,42,2931892560
4317,18,Jits_Linear_8,3,5,80,127,2931950196
4317,18,Jits_Linear_8,0,1,48,36,2932495460
4317,18,Jits_Linear_8,1,5,63,98,2932640104
4317,18,Jits_Linear_8,2,5,80,127,2932669932
4317,18,Jits_Linear_8,3,5,56,103,2932699456
4317,18,Jits_Linear_8,4,1,48,30,2932889584
4317,18,Jits_Linear_8,0,1,48,48,2933348236
4317,18,Jits_Linear_8,1,5,56,103,2933460356
4317,18,Jits_Linear_8,2,5,80,127,2933559860
4317,18,Jits_Linear_8,3,5,63,98,2933609912
4317,18,Jits_Linear_8,0,5,56,103,2934270252
4317,18,Jits_Linear_8,1,5,80,127,2934319484
4317,18,Jits_Linear_8,2,5,63,98,2934360544
4317,18,Jits_Linear_8,3,1,48,48,2934415272
4317,18,Jits_Linear_8,0,5,80,127,2935109956
4317,18,Jits_Linear_8,1,5,63,98,2935139704
4317,18,Jits_Linear_8,2,1,48,32,2935198896
4317,18,Jits_Linear_8,3,5,56,103,2935210304
4317,18,Jits_Linear_8,0,5,63,98,2935949588
4317,18,Jits_Linear_8,1,5,56,103,2935980336
4317,18,Jits_Linear_8,2,1,48,40,2935992968
4317,18,Jits_Linear_8,3,5,80,127,2936040040
4317,18,Jits_Linear_8,0,5,56,103,2936700416
4317,18,Jits_Linear_8,1,5,80,127,2936703632
4317,18,Jits_Linear_8,2,1,48,34,2936809952
4317,18,Jits_Linear_8,3,5,63,98,2936820088
4317,18,Jits_Linear_8,0,1,48,30,2937482684
4317,18,Jits_Linear_8,1,5,56,103,2937580048
4317,18,Jits_Linear_8,2,5,80,127,2937620060
4317,18,Jits_Linear_8,3,5,63,98,2937630108
4317,18,Jits_Linear_8,0,1,48,37,2938302700
4317,18,Jits_Linear_8,1,5,56,103,2938339816
4317,18,Jits_Linear_8,2,5,80,127,2938360128
4317,18,Jits_Linear_8,3,5,63,98,2938439980
4317,18,Jits_Linear_8,0,5,80,127,2939130212
4317,18,Jits_Linear_8,1,1,48,41,2939152964
4317,18,Jits_Linear_8,2,5,56,103,2939229412
4317,18,Jits_Linear_8,3,5,63,98,2939239980
4317,18,Jits_Linear_8,0,5,63,98,2939900320
4317,18,Jits_Linear_8,1,5,80,127,2939959740
4317,18,Jits_Linear_8,2,5,56,103,2939970008
4317,18,Jits_Linear_8,3,1,48,35,2940058112
4317,18,Jits_Linear_8,0,5,56,103,2940699996
4317,18,Jits_Linear_8,1,1,48,52,2940769376
4317,18,Jits_Linear_8,2,5,63,98,2940771188
4317,18,Jits_Linear_8,3,5,80,127,2940774156
4317,18,Jits_Linear_8,0,1,48,49,2941520252
4317,18,Jits_Linear_8,1,5,63,98,2941529420
4317,18,Jits_Linear_8,2,5,56,103,2941579620
4317,18,Jits_Linear_8,3,5,80,127,2941582836
4317,18,Jits_Linear_8,0,5,56,103,2942280144
4317,18,Jits_Linear_8,1,5,80,127,2942283136
4317,18,Jits_Linear_8,2,1,48,47,2942305288
4317,18,Jits_Linear_8,3,5,63,98,2942370144
4317,18,Jits_Linear_8,0,1,48,44,2943060388
4317,18,Jits_Linear_8,1,5,63,98,2943109564
4317,18,Jits_Linear_8,2,5,56,103,2943199860
4317,18,Jits_Linear_8,3,5,80,127,2943230284
4317,18,Jits_Linear_8,0,5,56,103,2943889948
4317,18,Jits_Linear_8,1,1,48,46,2943966340
4317,18,Jits_Linear_8,2,5,63,98,2943990120
4317,18,Jits_Linear_8,3,5,80,127,2944019944
4317,18,Jits_Linear_8,0,1,48,43,2944653552
4317,18,Jits_Linear_8,1,5,63,98,2944699908
4317,18,Jits_Linear_8,2,5,56,103,2944709956
4317,18,Jits_Linear_8,3,5,80,127,2944800072
4317,18,Jits_Linear_8,0,1,48,35,2945431836
4317,18,Jits_Linear_8,1,5,63,98,2945499740
4317,18,Jits_Linear_8,2,5,56,103,2945580348
4317,18,Jits_Linear_8,3,5,80,127,2945583488
4317,18,Jits_Linear_8,0,1,48,32,2946204764
4317,18,Jits_Linear_8,1,5,80,127,2946239932
4317,18,Jits_Linear_8,2,5,63,98,2946260392
4317,18,Jits_Linear_8,3,5,56,103,2946319796
4317,18,Jits_Linear_8,0,1,48,39,2947021156
4317,18,Jits_Linear_8,1,5,56,103,2947060216
4317,18,Jits_Linear_8,2,5,63,98,2947079628
4317,18,Jits_Linear_8,3,5,80,127,2947082916
4317,18,Jits_Linear_8,0,1,48,35,2947768160
4317,18,Jits_Linear_8,1,5,63,98,2947780092
4317,18,Jits_Linear_8,2,5,80,127,2947859744
4317,18,Jits_Linear_8,3,5,56,103,2947869924
4317,18,Jits_Linear_8,0,5,63,98,2948579852
4317,18,Jits_Linear_8,1,5,56,103,2948600236
4317,18,Jits_Linear_8,2,1,48,35,2948607912
4317,18,Jits_Linear_8,3,5,80,127,2948650280
4317,18,Jits_Linear_8,0,1,48,40,2949358612
4317,18,Jits_Linear_8,1,5,80,127,2949360560
4317,18,Jits_Linear_8,2,5,63,98,2949399832
4317,18,Jits_Linear_8,3,5,56,103,2949420440
4317,18,Jits_Linear_8,0,5,56,103,2950170064
4317,18,Jits_Linear_8,1,5,63,98,2950180336
4317,18,Jits_Linear_8,2,5,80,127,2950199824
4317,18,Jits_Linear_8,3,1,48,26,2950220328
4317,18,Jits_Linear_8,0,5,56,103,2950870712
4317,18,Jits_Linear_8,1,1,48,38,2950959280
4317,18,Jits_Linear_8,2,5,63,98,2950960916
4317,18,Jits_Linear_8,3,5,80,127,2951020036
4317,18,Jits_Linear_8,0,1,48,32,2951650528
4317,18,Jits_Linear_8,1,5,80,127,2951670104
4317,18,Jits_Linear_8,2,5,56,103,2951680528
4317,18,Jits_Linear_8,3,5,63,98,2951750044
4317,18,Jits_Linear_8,0,1,48,40,2952364116
4317,18,Jits_Linear_8,1,5,63,98,2952469920
4317,18,Jits_Linear_8,2,5,80,127,2952560060
4317,18,Jits_Linear_8,3,5,56,103,2952570404
4317,18,Jits_Linear_8,0,5,63,98,2953170504
4317,18,Jits_Linear_8,1,1,48,42,2953182916
4317,18,Jits_Linear_8,2,5,80,127,2953219580
4317,18,Jits_Linear_8,3,5,56,103,2953279884
4317,18,Jits_Linear_8,0,1,48,40,2953888340
4317,18,Jits_Linear_8,1,5,56,103,2953959988
4317,18,Jits_Linear_8,2,5,80,127,2954010104
4317,18,Jits_Linear_8,3,5,63,98,2954029588
4317,18,Jits_Linear_8,0,5,56,103,2954689996
4317,18,Jits_Linear_8,1,1,48,40,2954706296
4317,18,Jits_Linear_8,2,5,80,127,2954750532
4317,18,Jits_Linear_8,3,5,63,98,2954819900
4317,18,Jits_Linear_8,0,1,48,35,2955383008
4317,18,Jits_Linear_8,1,5,56,103,2955449668
4317,18,Jits_Linear_8,2,5,80,127,2955480616
4317,18,Jits_Linear_8,3,5,63,98,2955510200
4317,18,Jits_Linear_8,0,1,48,41,2956146484
4317,18,Jits_Linear_8,1,5,56,103,2956249552
4317,18,Jits_Linear_8,2,5,80,127,2956269788
4317,18,Jits_Linear_8,3,5,63,98,2956330624
4317,18,Jits_Linear_8,0,1,48,39,2956923620
4317,18,Jits_Linear_8,1,5,80,127,2957090144
4317,18,Jits_Linear_8,2,5,56,103,2957100488
4317,18,Jits_Linear_8,3,5,63,98,2957109564
4317,18,Jits_Linear_8,0,5,56,103,2957799648
4317,18,Jits_Linear_8,1,5,80,127,2957839736
4317,18,Jits_Linear_8,2,1,48,41,2957841748
4317,18,Jits_Linear_8,3,5,63,98,2957869332
4317,18,Jits_Linear_8,0,5,56,103,2958519632
4317,18,Jits_Linear_8,1,5,63,98,2958550432
4317,18,Jits_Linear_8,2,1,48,43,2958563960
4317,18,Jits_Linear_8,3,5,80,127,2958590360
4317,18,Jits_Linear_8,0,5,80,127,2959219960
4317,18,Jits_Linear_8,1,1,48,35,2959227192
4317,18,Jits_Linear_8,2,5,63,98,2959270480
4317,18,Jits_Linear_8,3,5,56,103,2959289744
4317,18,Jits_Linear_8,0,1,48,37,2959917580
4317,18,Jits_Linear_8,1,5,56,103,2960000536
4317,18,Jits_Linear_8,2,5,80,127,2960069932
4317,18,Jits_Linear_8,3,5,63,98,2960130324
4317,18,Jits_Linear_8,0,1,48,38,2960733664
4317,18,Jits_Linear_8,1,5,80,127,2960739612
4317,18,Jits_Linear_8,2,5,63,98,2960829760
4317,18,Jits_Linear_8,3,5,56,103,2960850444
4317,18,Jits_Linear_8,0,5,63,98,2961499596
4317,18,Jits_Linear_8,1,5,56,103,2961520056
4317,18,Jits_Linear_8,2,5,80,127,2961559944
4317,18,Jits_Linear_8,3,1,48,41,2961566808
4317,18,Jits_Linear_8,0,5,80,127,2962199932
4317,18,Jits_Linear_8,1,5,63,98,2962220392
4317,18,Jits_Linear_8,2,1,48,38,2962295352
4317,18,Jits_Linear_8,3,5,56,103,2962300552
4317,18,Jits_Linear_8,0,5,63,98,2962930320
4317,18,Jits_Linear_8,1,1,48,41,2962933588
4317,18,Jits_Linear_8,2,5,56,103,2963039616
4317,18,Jits_Linear_8,3,5,80,127,2963042680
4317,18,Jits_Linear_8,0,1,48,42,2963665300
4317,18,Jits_Linear_8,1,5,63,98,2963689756
4317,18,Jits_Linear_8,2,5,56,103,2963700024
4317,18,Jits_Linear_8,3,5,80,127,2963703240
4317,18,Jits_Linear_8,0,1,48,38,2964392740
4317,18,Jits_Linear_8,1,5,56,103,2964409628
4317,18,Jits_Linear_8,2,5,80,127,2964529492
4317,18,Jits_Linear_8,3,5,63,98,2964569360
4317,18,Jits_Linear_8,0,5,56,103,2965160244
4317,18,Jits_Linear_8,1,1,48,40,2965234764
4317,18,Jits_Linear_8,2,5,80,127,2965240260
4317,18,Jits_Linear_8,3,5,63,98,2965259600
4317,18,Jits_Linear_8,0,5,56,103,2965890392
4317,18,Jits_Linear_8,1,1,48,43,2965933764
4317,18,Jits_Linear_8,2,5,63,98,2966000172
4317,18,Jits_Linear_8,3,5,80,127,2966003460
4317,18,Jits_Linear_8,0,1,48,36,2966589276
4317,18,Jits_Linear_8,1,5,56,103,2966650436
4317,18,Jits_Linear_8,2,5,80,127,2966680216
4317,18,Jits_Linear_8,3,5,63,98,2966700440
4317,18,Jits_Linear_8,0,1,48,30,2967303248
4317,18,Jits_Linear_8,1,5,63,98,2967359844
4317,18,Jits_Linear_8,2,5,56,103,2967370188
4317,18,Jits_Linear_8,3,5,80,127,2967380384
4317,18,Jits_Linear_8,0,1,48,33,2968025896
4317,18,Jits_Linear_8,1,5,80,127,2968069464
4317,18,Jits_Linear_8,2,5,56,103,2968119744
4317,18,Jits_Linear_8,3,5,63,98,2968159668
4317,18,Jits_Linear_8,0,1,48,33,2968662376
4317,18,Jits_Linear_8,1,5,80,127,2968809792
4317,18,Jits_Linear_8,2,5,63,98,2968830252
4317,18,Jits_Linear_8,3,5,56,103,2968879404
4317,18,Jits_Linear_8,0,1,48,42,2969437256
4317,18,Jits_Linear_8,1,5,80,127,2969540240
4317,18,Jits_Linear_8,2,5,56,103,2969569696
4317,18,Jits_Linear_8,3,5,63,98,2969640276
4317,18,Jits_Linear_8,0,1,48,36,2970245636
4317,18,Jits_Linear_8,1,5,56,103,2970310124
4317,18,Jits_Linear_8,2,5,80,127,2970320320
4317,18,Jits_Linear_8,3,5,63,98,2970360244
4317,18,Jits_Linear_8,0,5,56,103,2970939644
4317,18,Jits_Linear_8,1,5,63,98,2970960104
4317,18,Jits_Linear_8,2,1,48,36,2971016560
4317,18,Jits_Linear_8,3,5,80,127,2971029952
4317,18,Jits_Linear_8,0,5,63,98,2971680224
4317,18,Jits_Linear_8,1,1,48,32,2971733616
4317,18,Jits_Linear_8,2,5,80,127,2971739488
4317,18,Jits_Linear_8,3,5,56,103,2971760172
4317,18,Jits_Linear_8,0,5,80,127,2972379440
4317,18,Jits_Linear_8,1,5,56,103,2972410384
4317,18,Jits_Linear_8,2,5,63,98,2972440136
4317,18,Jits_Linear_8,3,1,48,35,2972463260
4317,18,Jits_Linear_8,0,5,56,103,2973090052
4317,18,Jits_Linear_8,1,1,48,35,2973107564
4317,18,Jits_Linear_8,2,5,63,98,2973149540
4317,18,Jits_Linear_8,3,5,80,127,2973210064
4317,18,Jits_Linear_8,0,1,48,45,2973749060
4317,18,Jits_Linear_8,1,5,80,127,2973820264
4317,18,Jits_Linear_8,2,5,56,103,2973839776
4317,18,Jits_Linear_8,3,5,63,98,2973910344
4317,18,Jits_Linear_8,0,1,48,38,2974512484
4317,18,Jits_Linear_8,1,5,80,127,2974530112
4317,18,Jits_Linear_8,2,5,63,98,2974550280
4317,18,Jits_Linear_8,3,5,56,103,2974580176
4317,18,Jits_Linear_8,0,1,48,42,2975170864
4317,18,Jits_Linear_8,1,5,80,127,2975230300
4317,18,Jits_Linear_8,2,5,63,98,2975249864
4317,18,Jits_Linear_8,3,5,56,103,2975310164
4317,18,Jits_Linear_8,0,1,48,30,2975845908
4317,18,Jits_Linear_8,1,5,80,127,2975929880
4317,18,Jits_Linear_8,2,5,56,103,2976029968
4317,18,Jits_Linear_8,3,5,63,98,2976059644
4317,18,Jits_Linear_8,0,5,63,98,2976619868
4317,18,Jits_Linear_8,1,5,80,127,2976670020
4317,18,Jits_Linear_8,2,5,56,103,2976689656
4317,18,Jits_Linear_8,3,1,48,35,2976699896
4317,18,Jits_Linear_8,0,1,48,29,2977277672
4317,18,Jits_Linear_8,1,5,80,127,2977360204
4317,18,Jits_Linear_8,2,5,56,103,2977390160
4317,18,Jits_Linear_8,3,5,63,98,2977393228
4317,18,Jits_Linear_8,0,1,48,28,2977950748
4317,18,Jits_Linear_8,1,5,63,98,2978090412
4317,18,Jits_Linear_8,2,5,56,103,2978130428
4317,18,Jits_Linear_8,3,5,80,127,2978149840
4317,18,Jits_Linear_8,0,1,48,35,2978713492
4317,18,Jits_Linear_8,1,5,80,127,2978730308
4317,18,Jits_Linear_8,2,5,63,98,2978810240
4317,18,Jits_Linear_8,3,5,56,103,2978850104
4317,18,Jits_Linear_8,0,1,48,37,2979403100
4317,18,Jits_Linear_8,1,5,63,98,2979439916
4317,18,Jits_Linear_8,2,5,80,127,2979520024
4317,18,Jits_Linear_8,3,5,56,103,2979540332
4317,18,Jits_Linear_8,0,1,48,26,2980149752
4317,18,Jits_Linear_8,1,5,56,103,2980170156
4317,18,Jits_Linear_8,2,5,63,98,2980180500
4317,18,Jits_Linear_8,3,5,80,127,2980220216
4317,18,Jits_Linear_8,0,5,56,103,2980780444
4317,18,Jits_Linear_8,1,5,80,127,2980783364
4317,18,Jits_Linear_8,2,1,48,37,2980913096
4317,18,Jits_Linear_8,3,5,63,98,2980919792
4317,18,Jits_Linear_8,0,1,48,41,2981455624
4317,18,Jits_Linear_8,1,5,56,103,2981460452
4317,18,Jits_Linear_8,2,5,63,98,2981549568
4317,18,Jits_Linear_8,3,5,80,127,2981620136
4317,18,Jits_Linear_8,0,1,48,40,2982194708
4317,18,Jits_Linear_8,1,5,63,98,2982220136
4317,18,Jits_Linear_8,2,5,80,127,2982223500
4317,18,Jits_Linear_8,3,5,56,103,2982279480
4317,18,Jits_Linear_8,0,5,80,127,2982939960
4317,18,Jits_Linear_8,1,1,48,36,2982943300
4317,18,Jits_Linear_8,2,5,56,103,2982959512
4317,18,Jits_Linear_8,3,5,63,98,2982969860
4317,18,Jits_Linear_8,0,5,56,103,2983529932
4317,18,Jits_Linear_8,1,5,63,98,2983539980
4317,18,Jits_Linear_8,2,5,80,127,2983609908
4317,18,Jits_Linear_8,3,1,48,27,2983692660
4317,18,Jits_Linear_8,0,5,80,127,2984209752
4317,18,Jits_Linear_8,1,1,48,40,2984219244
4317,18,Jits_Linear_8,2,5,56,103,2984259948
4317,18,Jits_Linear_8,3,5,63,98,2984310076
4317,18,Jits_Linear_8,0,1,48,30,2984923256
4317,18,Jits_Linear_8,1,5,56,103,2984969808
4317,18,Jits_Linear_8,2,5,63,98,2984979932
4317,18,Jits_Linear_8,3,5,80,127,2985019704
4317,18,Jits_Linear_8,0,5,56,103,2985590120
4317,18,Jits_Linear_8,1,5,63,98,2985630084
4317,18,Jits_Linear_8,2,5,80,127,2985680212
4317,18,Jits_Linear_8,3,1,48,37,2985687536
4317,18,Jits_Linear_8,0,5,80,127,2986219824
4317,18,Jits_Linear_8,1,5,56,103,2986270104
4317,18,Jits_Linear_8,2,5,63,98,2986289664
4317,18,Jits_Linear_8,3,1,48,37,2986346192
4317,18,Jits_Linear_8,0,5,80,127,2986899796
4317,18,Jits_Linear_8,1,1,48,30,2986941204
4317,18,Jits_Linear_8,2,5,63,98,2986960108
4317,18,Jits_Linear_8,3,5,56,103,2987040036
4317,18,Jits_Linear_8,0,1,48,35,2987520824
4317,18,Jits_Linear_8,1,5,80,127,2987550144
4317,18,Jits_Linear_8,2,5,56,103,2987589936
4317,18,Jits_Linear_8,3,5,63,98,2987609424
4317,18,Jits_Linear_8,0,1,48,24,2988239664
4317,18,Jits_Linear_8,1,5,56,103,2988270032
4317,18,Jits_Linear_8,2,5,80,127,2988280156
4317,18,Jits_Linear_8,3,5,63,98,2988320092
4317,18,Jits_Linear_8,0,5,56,103,2988999972
4317,18,Jits_Linear_8,1,5,63,98,2989039912
4317,18,Jits_Linear_8,2,5,80,127,2989043200
4317,18,Jits_Linear_8,0,1,48,35,2989481080
4317,18,Jits_Linear_8,1,5,63,98,2989549884
4317,18,Jits_Linear_8,2,5,80,127,2989589884
4317,18,Jits_Linear_8,3,5,56,103,2989659860
4317,18,Jits_Linear_8,0,1,48,34,2990179520
4317,18,Jits_Linear_8,1,5,63,98,2990200296
4317,18,Jits_Linear_8,2,5,56,103,2990280780
4317,18,Jits_Linear_8,3,5,80,127,2990339744
4317,18,Jits_Linear_8,0,5,80,127,2990869848
4317,18,Jits_Linear_8,1,1,48,24,2990897696
4317,18,Jits_Linear_8,2,5,63,98,2990920120
4317,18,Jits_Linear_8,3,5,56,103,2990949796
4317,18,Jits_Linear_8,0,5,56,103,2991520148
4317,18,Jits_Linear_8,1,5,63,98,2991570204
4317,18,Jits_Linear_8,2,5,80,127,2991579724
4317,18,Jits_Linear_8,3,1,48,32,2991582324
4317,18,Jits_Linear_8,0,5,56,103,2992189752
4317,18,Jits_Linear_8,1,1,48,30,2992223812
4317,18,Jits_Linear_8,2,5,63,98,2992300584
4317,18,Jits_Linear_8,3,5,80,127,2992319832
4317,18,Jits_Linear_8,0,5,63,98,2992839984
4317,18,Jits_Linear_8,1,5,80,127,2992890632
4317,18,Jits_Linear_8,2,1,48,35,2992956904
4317,18,Jits_Linear_8,3,5,56,103,2992980608
4317,18,Jits_Linear_8,0,5,63,98,2993479912
4317,18,Jits_Linear_8,1,5,80,127,2993509736
4317,18,Jits_Linear_8,2,1,48,44,2993587116
4317,18,Jits_Linear_8,3,5,56,103,2993599740
4317,18,Jits_Linear_8,0,5,63,98,2994130424
4317,18,Jits_Linear_8,1,5,56,103,2994139500
4317,18,Jits_Linear_8,2,1,48,35,2994239524
4317,18,Jits_Linear_8,3,5,80,127,2994241236
4317,18,Jits_Linear_8,0,1,48,37,2994777292
4317,18,Jits_Linear_8,1,5,63,98,2994890080
4317,18,Jits_Linear_8,2,5,80,127,2994919908
4317,18,Jits_Linear_8,3,5,56,103,2994949580
4317,18,Jits_Linear_8,0,1,48,36,2995503628
4317,18,Jits_Linear_8,1,5,80,127,2995549440
4317,18,Jits_Linear_8,2,5,63,98,2995559860
4317,18,Jits_Linear_8,3,5,56,103,2995589608
4317,18,Jits_Linear_8,0,5,80,127,2996090404
4317,18,Jits_Linear_8,1,5,63,98,2996109916
4317,18,Jits_Linear_8,2,5,56,103,2996159820
4317,18,Jits_Linear_8,3,1,48,35,2996192904
4317,18,Jits_Linear_8,0,1,48,35,2996734824
4317,18,Jits_Linear_8,1,5,63,98,2996759960
4317,18,Jits_Linear_8,2,5,80,127,2996820500
4317,18,Jits_Linear_8,3,5,56,103,2996839748
4317,18,Jits_Linear_8,0,5,63,98,2997359960
4317,18,Jits_Linear_8,1,5,56,103,2997410044
4317,18,Jits_Linear_8,2,1,48,31,2997415700
4317,18,Jits_Linear_8,3,5,80,127,2997420528
4317,18,Jits_Linear_8,0,1,48,31,2997996124
4317,18,Jits_Linear_8,1,5,56,103,2998029652
4317,18,Jits_Linear_8,2,5,80,127,2998039996
4317,18,Jits_Linear_8,3,5,63,98,2998140304
4317,18,Jits_Linear_8,0,1,48,31,2998622948
4317,18,Jits_Linear_8,1,5,80,127,2998629796
4317,18,Jits_Linear_8,2,5,63,98,2998639992
4317,18,Jits_Linear_8,3,5,56,103,2998789472
4317,18,Jits_Linear_8,0,5,63,98,2999269680
4317,18,Jits_Linear_8,1,5,80,127,2999309544
4317,18,Jits_Linear_8,2,1,48,38,2999331096
4317,18,Jits_Linear_8,3,5,56,103,2999389704
4317,18,Jits_Linear_8,0,5,56,103,2999890720
4317,18,Jits_Linear_8,1,1,48,35,2999949692
4317,18,Jits_Linear_8,2,5,80,127,2999989572
4317,18,Jits_Linear_8,3,5,63,98,3000010104
4317,18,Jits_Linear_8,0,5,80,127,3000579396
4317,18,Jits_Linear_8,1,5,56,103,3000589668
4317,18,Jits_Linear_8,2,1,48,36,3000613312
4317,18,Jits_Linear_8,3,5,63,98,3000679644
4317,18,Jits_Linear_8,0,5,56,103,3001219416
4317,18,Jits_Linear_8,1,5,63,98,3001239900
4317,18,Jits_Linear_8,2,5,80,127,3001319920
4317,18,Jits_Linear_8,3,1,48,30,3001354276
4317,18,Jits_Linear_8,0,5,63,98,3001810456
4317,18,Jits_Linear_8,1,1,48,34,3001876208
4317,18,Jits_Linear_8,2,5,56,103,3001900284
4317,18,Jits_Linear_8,3,5,80,127,3001903356
4317,18,Jits_Linear_8,0,1,48,32,3002456852
4317,18,Jits_Linear_8,1,5,56,103,3002459436
4317,18,Jits_Linear_8,2,5,80,127,3002520004
4317,18,Jits_Linear_8,3,5,63,98,3002530272
4317,18,Jits_Linear_8,0,1,48,29,3003111732
4317,18,Jits_Linear_8,1,5,80,127,3003130188
4317,18,Jits_Linear_8,2,5,56,103,3003139484
4317,18,Jits_Linear_8,3,5,63,98,3003142552
4317,18,Jits_Linear_8,0,5,56,103,3003709728
4317,18,Jits_Linear_8,1,5,80,127,3003720000
4317,18,Jits_Linear_8,2,5,63,98,3003739484
4317,18,Jits_Linear_8,3,1,48,30,3003778124
4317,18,Jits_Linear_8,0,5,63,98,3004299692
4317,18,Jits_Linear_8,1,1,48,30,3004339176
4317,18,Jits_Linear_8,2,5,80,127,3004360180
4317,18,Jits_Linear_8,3,5,56,103,3004410156
4317,18,Jits_Linear_8,0,1,48,31,3004895028
4317,18,Jits_Linear_8,1,5,63,98,3005000164
4317,18,Jits_Linear_8,2,5,56,103,3005010284
4317,18,Jits_Linear_8,3,5,80,127,3005059368
4317,18,Jits_Linear_8,0,5,63,98,3005510276
4317,18,Jits_Linear_8,1,1,48,33,3005526060
4317,18,Jits_Linear_8,2,5,80,127,3005529388
4317,18,Jits_Linear_8,3,5,56,103,3005539656
4317,18,Jits_Linear_8,0,1,48,30,3006074192
4317,18,Jits_Linear_8,1,5,63,98,3006120396
4317,18,Jits_Linear_8,2,5,80,127,3006123612
4317,18,Jits_Linear_8,3,5,56,103,3006160336
4317,18,Jits_Linear_8,0,1,48,28,3006630740
4317,18,Jits_Linear_8,1,5,63,98,3006800456
4317,18,Jits_Linear_8,2,5,80,127,3006829908
4317,18,Jits_Linear_8,3,5,56,103,3006840476
4317,18,Jits_Linear_8,0,1,48,31,3007313152
4317,18,Jits_Linear_8,1,5,56,103,3007360456
4317,18,Jits_Linear_8,2,5,80,127,3007390304
4317,18,Jits_Linear_8,3,5,63,98,3007419740
4317,18,Jits_Linear_8,0,1,48,33,3007949588
4317,18,Jits_Linear_8,1,5,63,98,3008059736
4317,18,Jits_Linear_8,2,5,56,103,3008099672
4317,18,Jits_Linear_8,3,5,80,127,3008102816
4317,18,Jits_Linear_8,0,5,80,127,3008559436
4317,18,Jits_Linear_8,1,1,48,42,3008624736
4317,18,Jits_Linear_8,2,5,56,103,3008640572
4317,18,Jits_Linear_8,3,5,63,98,3008689376
4317,18,Jits_Linear_8,0,5,80,127,3009140188
4317,18,Jits_Linear_8,1,5,56,103,3009159452
4317,18,Jits_Linear_8,2,1,48,42,3009205968
4317,18,Jits_Linear_8,3,5,63,98,3009249604
4317,18,Jits_Linear_8,0,1,48,35,3009710520
4317,18,Jits_Linear_8,1,5,80,127,3009780072
4317,18,Jits_Linear_8,2,5,63,98,3009820148
4317,18,Jits_Linear_8,3,5,56,103,3009860084
4317,18,Jits_Linear_8,0,5,63,98,3010349360
4317,18,Jits_Linear_8,1,1,48,35,3010372780
4317,18,Jits_Linear_8,2,5,80,127,3010409968
4317,18,Jits_Linear_8,3,5,56,103,3010439492
4317,18,Jits_Linear_8,0,5,56,103,3010949576
4317,18,Jits_Linear_8,1,1,48,32,3010957056
4317,18,Jits_Linear_8,2,5,80,127,3010980096
4317,18,Jits_Linear_8,3,5,63,98,3011070360
4317,18,Jits_Linear_8,0,5,56,103,3011549612
4317,18,Jits_Linear_8,1,1,48,35,3011595128
4317,18,Jits_Linear_8,2,5,80,127,3011660120
4317,18,Jits_Linear_8,3,5,63,98,3011689928
4317,18,Jits_Linear_8,0,1,48,35,3012124560
4317,18,Jits_Linear_8,1,5,56,103,3012189404
4317,18,Jits_Linear_8,2,5,63,98,3012249956
4317,18,Jits_Linear_8,3,5,80,127,3012279632
4317,18,Jits_Linear_8,0,5,56,103,3012749648
4317,18,Jits_Linear_8,1,1,48,35,3012753288
4317,18,Jits_Linear_8,2,5,63,98,3012820300
4317,18,Jits_Linear_8,3,5,80,127,3012839784
4317,18,Jits_Linear_8,0,1,48,38,3013302504
4317,18,Jits_Linear_8,1,5,80,127,3013309948
4317,18,Jits_Linear_8,2,5,63,98,3013330404
4317,18,Jits_Linear_8,3,5,56,103,3013379560
4317,18,Jits_Linear_8,0,1,48,27,3013882116
4317,18,Jits_Linear_8,1,5,63,98,3013920052
4317,18,Jits_Linear_8,2,5,80,127,3013930472
4317,18,Jits_Linear_8,3,5,56,103,3013979480
4317,18,Jits_Linear_8,0,1,48,32,3014494768
4317,18,Jits_Linear_8,1,5,63,98,3014499668
4317,18,Jits_Linear_8,2,5,80,127,3014570204
4317,18,Jits_Linear_8,3,5,56,103,3014589988
4317,18,Jits_Linear_8,0,1,48,33,3015108284
4317,18,Jits_Linear_8,1,5,63,98,3015109952
4317,18,Jits_Linear_8,2,5,80,127,3015113248
4317,18,Jits_Linear_8,3,5,56,103,3015179488
4317,18,Jits_Linear_8,0,5,80,127,3015640352
4317,18,Jits_Linear_8,1,5,56,103,3015660060
4317,18,Jits_Linear_8,2,5,63,98,3015670108
4317,18,Jits_Linear_8,3,1,48,36,3015726032
4317,18,Jits_Linear_8,0,5,56,103,3016239528
4317,18,Jits_Linear_8,1,1,48,37,3016254332
4317,18,Jits_Linear_8,2,5,63,98,3016329660
4317,18,Jits_Linear_8,3,5,80,127,3016333096
4317,18,Jits_Linear_8,0,5,80,127,3016790360
4317,18,Jits_Linear_8,1,5,56,103,3016799580
4317,18,Jits_Linear_8,2,5,63,98,3016820040
4317,18,Jits_Linear_8,3,1,48,40,3016827496
4317,18,Jits_Linear_8,0,5,63,98,3017359968
4317,18,Jits_Linear_8,1,1,48,35,3017371332
4317,18,Jits_Linear_8,2,5,80,127,3017420132
4317,18,Jits_Linear_8,3,5,56,103,3017430252
4317,18,Jits_Linear_8,0,1,48,39,3017880212
4317,18,Jits_Linear_8,1,5,63,98,3017999876
4317,18,Jits_Linear_8,2,5,80,127,3018029476
4317,18,Jits_Linear_8,3,5,56,103,3018070316
4317,18,Jits_Linear_8,0,5,56,103,3018560040
4317,18,Jits_Linear_8,1,5,80,127,3018570164
4317,18,Jits_Linear_8,2,1,48,29,3018585416
4317,18,Jits_Linear_8,3,5,63,98,3018609944
4317,18,Jits_Linear_8,0,5,80,127,3019090224
4317,18,Jits_Linear_8,1,5,56,103,3019170124
4317,18,Jits_Linear_8,2,5,63,98,3019180320
4317,18,Jits_Linear_8,3,1,48,20,3019182332
4317,18,Jits_Linear_8,0,5,80,127,3019699708
4317,18,Jits_Linear_8,1,1,48,24,3019767028
4317,18,Jits_Linear_8,2,5,56,103,3019779424
4317,18,Jits_Linear_8,3,5,63,98,3019789692
4317,18,Jits_Linear_8,0,5,80,127,3020219932
4317,18,Jits_Linear_8,1,5,56,103,3020269988
4317,18,Jits_Linear_8,2,5,63,98,3020320040
4317,18,Jits_Linear_8,3,1,48,27,3020494804
4317,18,Jits_Linear_8,0,5,56,103,3020840252
4317,18,Jits_Linear_8,1,5,63,98,3020843096
4317,18,Jits_Linear_8,2,5,80,127,3020889480
4317,18,Jits_Linear_8,3,1,48,28,3021005440
4317,18,Jits_Linear_8,0,5,56,103,3021419880
4317,18,Jits_Linear_8,1,1,48,29,3021428624
4317,18,Jits_Linear_8,2,5,63,98,3021449700
4317,18,Jits_Linear_8,3,5,80,127,3021459820
4317,18,Jits_Linear_8,0,5,63,98,3021889960
4317,18,Jits_Linear_8,1,5,56,103,3021959792
4317,18,Jits_Linear_8,2,5,80,127,3022009796
4317,18,Jits_Linear_8,3,1,48,25,3022015684
4317,18,Jits_Linear_8,0,5,63,98,3022479792
4317,18,Jits_Linear_8,1,5,56,103,3022489988
4317,18,Jits_Linear_8,2,1,48,34,3022490972
4317,18,Jits_Linear_8,3,5,80,127,3022494168
4317,18,Jits_Linear_8,0,5,80,127,3022979656
4317,18,Jits_Linear_8,1,5,56,103,3023039852
4317,18,Jits_Linear_8,2,1,48,22,3023054652
4317,18,Jits_Linear_8,3,5,63,98,3023129980
4317,18,Jits_Linear_8,0,5,80,127,3023530396
4317,18,Jits_Linear_8,1,1,48,19,3023624324
4317,18,Jits_Linear_8,2,5,56,103,3023629744
4317,18,Jits_Linear_8,3,5,63,98,3023669756
4317,18,Jits_Linear_8,0,5,56,103,3024130412
4317,18,Jits_Linear_8,1,5,63,98,3024149976
4317,18,Jits_Linear_8,2,5,80,127,3024189764
4317,18,Jits_Linear_8,3,1,48,28,3024201648
4317,18,Jits_Linear_8,0,5,63,98,3024649808
4317,18,Jits_Linear_8,1,5,56,103,3024670044
4317,18,Jits_Linear_8,2,1,48,29,3024702756
4317,18,Jits_Linear_8,3,5,80,127,3024770284
4317,18,Jits_Linear_8,0,5,63,98,3025179976
4317,18,Jits_Linear_8,1,1,48,34,3025188348
4317,18,Jits_Linear_8,2,5,80,127,3025289720
4317,18,Jits_Linear_8,3,5,56,103,3025320296
4317,18,Jits_Linear_8,0,5,56,103,3025740092
4317,18,Jits_Linear_8,1,1,48,29,3025741136
4317,18,Jits_Linear_8,2,5,63,98,3025769912
4317,18,Jits_Linear_8,3,5,80,127,3025819988
4317,18,Jits_Linear_8,0,5,63,98,3026250044
4317,18,Jits_Linear_8,1,5,56,103,3026279944
4317,18,Jits_Linear_8,2,5,80,127,3026329944
4317,18,Jits_Linear_8,3,1,48,20,3026352092
4317,18,Jits_Linear_8,0,5,56,103,3026819540
4317,18,Jits_Linear_8,1,5,63,98,3026839880
4317,18,Jits_Linear_8,2,1,48,25,3026849296
4317,18,Jits_Linear_8,3,5,80,127,3026919740
4317,18,Jits_Linear_8,0,5,63,98,3027330544
4317,18,Jits_Linear_8,1,1,48,27,3027363284
4317,18,Jits_Linear_8,2,5,56,103,3027389760
4317,18,Jits_Linear_8,3,5,80,127,3027419436
4317,18,Jits_Linear_8,0,1,48,24,3027888360
4317,18,Jits_Linear_8,1,5,56,103,3027909884
4317,18,Jits_Linear_8,2,5,80,127,3027970576
4317,18,Jits_Linear_8,3,5,63,98,3028010348
4317,18,Jits_Linear_8,0,1,48,19,3028400772
4317,18,Jits_Linear_8,1,5,63,98,3028419904
4317,18,Jits_Linear_8,2,5,56,103,3028480224
4317,18,Jits_Linear_8,3,5,80,127,3028549960
4317,18,Jits_Linear_8,0,1,48,28,3028991112
4317,18,Jits_Linear_8,1,5,56,103,3029030168
4317,18,Jits_Linear_8,2,5,63,98,3029039612
4317,18,Jits_Linear_8,3,5,80,127,3029042828
4317,18,Jits_Linear_8,0,5,63,98,3029500328
4317,18,Jits_Linear_8,1,5,56,103,3029559676
4317,18,Jits_Linear_8,2,5,80,127,3029562888
4317,18,Jits_Linear_8,0,5,63,98,3030010296
4317,18,Jits_Linear_8,1,1,48,31,3030029904
4317,18,Jits_Linear_8,2,5,80,127,3030039892
4317,18,Jits_Linear_8,3,5,56,103,3030060576
4317,18,Jits_Linear_8,0,5,56,103,3030539644
4317,18,Jits_Linear_8,1,5,63,98,3030589700
4317,18,Jits_Linear_8,2,5,80,127,3030669744
4317,18,Jits_Linear_8,0,1,48,32,3031037380
4317,18,Jits_Linear_8,1,5,80,127,3031040488
4317,18,Jits_Linear_8,2,5,63,98,3031080352
4317,18,Jits_Linear_8,3,5,56,103,3031099840
4317,18,Jits_Linear_8,0,1,48,27,3031591168
4317,18,Jits_Linear_8,1,5,56,103,3031630076
4317,18,Jits_Linear_8,2,5,80,127,3031640648
4317,18,Jits_Linear_8,3,5,63,98,3031659836
4317,18,Jits_Linear_8,0,5,56,103,3032129988
4317,18,Jits_Linear_8,1,5,63,98,3032179968
4317,18,Jits_Linear_8,2,5,80,127,3032209816
4317,18,Jits_Linear_8,0,1,48,31,3032595960
4317,18,Jits_Linear_8,1,5,56,103,3032599888
4317,18,Jits_Linear_8,2,5,63,98,3032610236
4317,18,Jits_Linear_8,3,5,80,127,3032660436
4317,18,Jits_Linear_8,0,1,48,33,3033100588
4317,18,Jits_Linear_8,1,5,56,103,3033109976
4317,18,Jits_Linear_8,2,5,80,127,3033112892
4317,18,Jits_Linear_8,3,5,63,98,3033269792
4317,18,Jits_Linear_8,0,5,63,98,3033640592
4317,18,Jits_Linear_8,1,1,48,26,3033674276
4317,18,Jits_Linear_8,2,5,56,103,3033710044
4317,18,Jits_Linear_8,3,5,80,127,3033749932
4317,18,Jits_Linear_8,0,5,63,98,3034190100
4317,18,Jits_Linear_8,1,1,48,20,3034212096
4317,18,Jits_Linear_8,2,5,56,103,3034280548
4317,18,Jits_Linear_8,3,5,80,127,3034283616
4317,18,Jits_Linear_8,0,5,56,103,3034679584
4317,18,Jits_Linear_8,1,5,63,98,3034769748
4317,18,Jits_Linear_8,2,5,80,127,3034780016
4317,18,Jits_Linear_8,3,1,48,29,3034783508
4317,18,Jits_Linear_8,0,5,56,103,3035159876
4317,18,Jits_Linear_8,1,5,63,98,3035210004
4317,18,Jits_Linear_8,2,5,80,127,3035239756
4317,18,Jits_Linear_8,3,1,48,32,3035248128
4317,18,Jits_Linear_8,0,1,48,32,3035673920
4317,18,Jits_Linear_8,1,5,63,98,3035749700
4317,18,Jits_Linear_8,2,5,80,127,3035759896
4317,18,Jits_Linear_8,3,5,56,103,3035820444
4317,18,Jits_Linear_8,0,5,63,98,3036169592
4317,18,Jits_Linear_8,1,5,80,127,3036230060
4317,18,Jits_Linear_8,2,1,48,28,3036244044
4317,18,Jits_Linear_8,3,5,56,103,3036269844
4317,18,Jits_Linear_8,0,1,48,29,3036674552
4317,18,Jits_Linear_8,1,5,56,103,3036769516
4317,18,Jits_Linear_8,2,5,80,127,3036790108
4317,18,Jits_Linear_8,3,5,63,98,3036809444
4317,18,Jits_Linear_8,0,5,63,98,3037189564
4317,18,Jits_Linear_8,1,1,48,27,3037207900
4317,18,Jits_Linear_8,2,5,56,103,3037209868
4317,18,Jits_Linear_8,3,5,80,127,3037249804
4317,18,Jits_Linear_8,0,1,48,28,3037673544
4317,18,Jits_Linear_8,1,5,63,98,3037699644
4317,18,Jits_Linear_8,2,5,80,127,3037730144
4317,18,Jits_Linear_8,3,5,56,103,3037749704
4317,18,Jits_Linear_8,0,5,80,127,3038169436
4317,18,Jits_Linear_8,1,5,56,103,3038219564
4317,18,Jits_Linear_8,2,1,48,27,3038243064
4317,18,Jits_Linear_8,3,5,63,98,3038279948
4317,18,Jits_Linear_8,0,5,63,98,3038649576
4317,18,Jits_Linear_8,1,1,48,29,3038732260
4317,18,Jits_Linear_8,2,5,56,103,3038769600
4317,18,Jits_Linear_8,3,5,80,127,3038800400
4317,18,Jits_Linear_8,0,5,80,127,3039180204
4317,18,Jits_Linear_8,1,5,63,98,3039199692
4317,18,Jits_Linear_8,2,1,48,25,3039218400
4317,18,Jits_Linear_8,3,5,56,103,3039270340
4317,18,Jits_Linear_8,0,5,63,98,3039690540
4317,18,Jits_Linear_8,1,5,56,103,3039700660
4317,18,Jits_Linear_8,2,1,48,29,3039730604
4317,18,Jits_Linear_8,3,5,80,127,3039780376
4317,18,Jits_Linear_8,0,1,48,30,3040148840
4317,18,Jits_Linear_8,1,5,56,103,3040240700
4317,18,Jits_Linear_8,2,5,80,127,3040269780
4317,18,Jits_Linear_8,3,5,63,98,3040279900
4317,18,Jits_Linear_8,0,9999,9999,9999,2929837124
4317,18,Jits_Linear_8,1,9999,9999,9999,2930657340
4317,18,Jits_Linear_8,2,9999,9999,9999,2931477624
4317,18,Jits_Linear_8,3,9999,9999,9999,2932297848
4317,18,Jits_Linear_8,4,9999,9999,9999,2933118044
4317,18,Jits_Linear_8,5,9999,9999,9999,2933928012
4317,18,Jits_Linear_8,6,9999,9999,9999,2934738028
4317,18,Jits_Linear_8,7,9999,9999,9999,2935547988
4317,18,Jits_Linear_8,8,9999,9999,9999,2936357956
4317,18,Jits_Linear_8,9,9999,9999,9999,2937167964
4317,18,Jits_Linear_8,10,9999,9999,9999,2937967736
4317,18,Jits_Linear_8,11,9999,9999,9999,2938767420
4317,18,Jits_Linear_8,12,9999,9999,9999,2939567208
4317,18,Jits_Linear_8,13,9999,9999,9999,2940367948
4317,18,Jits_Linear_8,14,9999,9999,9999,2941167688
4317,18,Jits_Linear_8,15,9999,9999,9999,2941957236
4317,18,Jits_Linear_8,16,9999,9999,9999,2942747760
4317,18,Jits_Linear_8,17,9999,9999,9999,2943537272
4317,18,Jits_Linear_8,18,9999,9999,9999,2944327744
4317,18,Jits_Linear_8,19,9999,9999,9999,2945117252
4317,18,Jits_Linear_8,20,9999,9999,9999,2945897596
4317,18,Jits_Linear_8,21,9999,9999,9999,2946677876
4317,18,Jits_Linear_8,22,9999,9999,9999,2947457092
4317,18,Jits_Linear_8,23,9999,9999,9999,2948237368
4317,18,Jits_Linear_8,24,9999,9999,9999,2949017656
4317,18,Jits_Linear_8,25,9999,9999,9999,2949787744
4317,18,Jits_Linear_8,26,9999,9999,9999,2950557760
4317,18,Jits_Linear_8,27,9999,9999,9999,2951327860
4317,18,Jits_Linear_8,28,9999,9999,9999,2952097884
4317,18,Jits_Linear_8,29,9999,9999,9999,2952867904
4317,18,Jits_Linear_8,30,9999,9999,9999,2953627724
4317,18,Jits_Linear_8,31,9999,9999,9999,2954387544
4317,18,Jits_Linear_8,32,9999,9999,9999,2955147340
4317,18,Jits_Linear_8,33,9999,9999,9999,2955907160
4317,18,Jits_Linear_8,34,9999,9999,9999,2956668028
4317,18,Jits_Linear_8,35,9999,9999,9999,2957417596
4317,18,Jits_Linear_8,36,9999,9999,9999,2958167164
4317,18,Jits_Linear_8,37,9999,9999,9999,2958917712
4317,18,Jits_Linear_8,38,9999,9999,9999,2959667284
4317,18,Jits_Linear_8,39,9999,9999,9999,2960417908
4317,18,Jits_Linear_8,40,9999,9999,9999,2961157212
4317,18,Jits_Linear_8,41,9999,9999,9999,2961897552
4317,18,Jits_Linear_8,42,9999,9999,9999,2962637892
4317,18,Jits_Linear_8,43,9999,9999,9999,2963377268
4317,18,Jits_Linear_8,44,9999,9999,9999,2964117596
4317,18,Jits_Linear_8,45,9999,9999,9999,2964847728
4317,18,Jits_Linear_8,46,9999,9999,9999,2965577808
4317,18,Jits_Linear_8,47,9999,9999,9999,2966307896
4317,18,Jits_Linear_8,48,9999,9999,9999,2967038064
4317,18,Jits_Linear_8,49,9999,9999,9999,2967767168
4317,18,Jits_Linear_8,50,9999,9999,9999,2968488028
4317,18,Jits_Linear_8,51,9999,9999,9999,2969207892
4317,18,Jits_Linear_8,52,9999,9999,9999,2969927784
4317,18,Jits_Linear_8,53,9999,9999,9999,2970647608
4317,18,Jits_Linear_8,54,9999,9999,9999,2971367492
4317,18,Jits_Linear_8,55,9999,9999,9999,2972077136
4317,18,Jits_Linear_8,56,9999,9999,9999,2972787780
4317,18,Jits_Linear_8,57,9999,9999,9999,2973497424
4317,18,Jits_Linear_8,58,9999,9999,9999,2974208116
4317,18,Jits_Linear_8,59,9999,9999,9999,2974927928
4317,18,Jits_Linear_8,60,9999,9999,9999,2975627340
4317,18,Jits_Linear_8,61,9999,9999,9999,2976327752
4317,18,Jits_Linear_8,62,9999,9999,9999,2977027188
4317,18,Jits_Linear_8,63,9999,9999,9999,2977727588
4317,18,Jits_Linear_8,64,9999,9999,9999,2978427984
4317,18,Jits_Linear_8,65,9999,9999,9999,2979117164
4317,18,Jits_Linear_8,66,9999,9999,9999,2979807320
4317,18,Jits_Linear_8,67,9999,9999,9999,2980497472
4317,18,Jits_Linear_8,68,9999,9999,9999,2981187664
4317,18,Jits_Linear_8,69,9999,9999,9999,2981877828
4317,18,Jits_Linear_8,70,9999,9999,9999,2982557784
4317,18,Jits_Linear_8,71,9999,9999,9999,2983237728
4317,18,Jits_Linear_8,72,9999,9999,9999,2983917624
4317,18,Jits_Linear_8,73,9999,9999,9999,2984597596
4317,18,Jits_Linear_8,74,9999,9999,9999,2985277552
4317,18,Jits_Linear_8,75,9999,9999,9999,2985947252
4317,18,Jits_Linear_8,76,9999,9999,9999,2986617980
4317,18,Jits_Linear_8,77,9999,9999,9999,2987287620
4317,18,Jits_Linear_8,78,9999,9999,9999,2987957324
4317,18,Jits_Linear_8,79,9999,9999,9999,2988628040
4317,18,Jits_Linear_8,80,9999,9999,9999,2989287496
4317,18,Jits_Linear_8,81,9999,9999,9999,2989947972
4317,18,Jits_Linear_8,82,9999,9999,9999,2990607480
4317,18,Jits_Linear_8,83,9999,9999,9999,2991267952
4317,18,Jits_Linear_8,84,9999,9999,9999,2991927368
4317,18,Jits_Linear_8,85,9999,9999,9999,2992577600
4317,18,Jits_Linear_8,86,9999,9999,9999,2993227880
4317,18,Jits_Linear_8,87,9999,9999,9999,2993878096
4317,18,Jits_Linear_8,88,9999,9999,9999,2994537572
4317,18,Jits_Linear_8,89,9999,9999,9999,2995187800
4317,18,Jits_Linear_8,90,9999,9999,9999,2995827812
4317,18,Jits_Linear_8,91,9999,9999,9999,2996467836
4317,18,Jits_Linear_8,92,9999,9999,9999,2997107784
4317,18,Jits_Linear_8,93,9999,9999,9999,2997747804
4317,18,Jits_Linear_8,94,9999,9999,9999,2998387812
4317,18,Jits_Linear_8,95,9999,9999,9999,2999017576
4317,18,Jits_Linear_8,96,9999,9999,9999,2999647312
4317,18,Jits_Linear_8,97,9999,9999,9999,3000278124
4317,18,Jits_Linear_8,98,9999,9999,9999,3000918144
4317,18,Jits_Linear_8,99,9999,9999,9999,3001558116
4317,18,Jits_Linear_8,100,9999,9999,9999,3002187860
4317,18,Jits_Linear_8,101,9999,9999,9999,3002807364
4317,18,Jits_Linear_8,102,9999,9999,9999,3003427952
4317,18,Jits_Linear_8,103,9999,9999,9999,3004047448
4317,18,Jits_Linear_8,104,9999,9999,9999,3004667984
4317,18,Jits_Linear_8,105,9999,9999,9999,3005277280
4317,18,Jits_Linear_8,106,9999,9999,9999,3005887560
4317,18,Jits_Linear_8,107,9999,9999,9999,3006497872
4317,18,Jits_Linear_8,108,9999,9999,9999,3007107168
4317,18,Jits_Linear_8,109,9999,9999,9999,3007717440
4317,18,Jits_Linear_8,110,9999,9999,9999,3008317516
4317,18,Jits_Linear_8,111,9999,9999,9999,3008917612
4317,18,Jits_Linear_8,112,9999,9999,9999,3009517696
4317,18,Jits_Linear_8,113,9999,9999,9999,3010117708
4317,18,Jits_Linear_8,114,9999,9999,9999,3010717800
4317,18,Jits_Linear_8,115,9999,9999,9999,3011307604
4317,18,Jits_Linear_8,116,9999,9999,9999,3011897432
4317,18,Jits_Linear_8,117,9999,9999,9999,3012487260
4317,18,Jits_Linear_8,118,9999,9999,9999,3013078136
4317,18,Jits_Linear_8,119,9999,9999,9999,3013677168
4317,18,Jits_Linear_8,120,9999,9999,9999,3014257760
4317,18,Jits_Linear_8,121,9999,9999,9999,3014837332
4317,18,Jits_Linear_8,122,9999,9999,9999,3015417912
4317,18,Jits_Linear_8,123,9999,9999,9999,3015997524
4317,18,Jits_Linear_8,124,9999,9999,9999,3016577124
4317,18,Jits_Linear_8,125,9999,9999,9999,3017147484
4317,18,Jits_Linear_8,126,9999,9999,9999,3017717824
4317,18,Jits_Linear_8,127,9999,9999,9999,3018287180
4317,18,Jits_Linear_8,128,9999,9999,9999,3018857584
4317,18,Jits_Linear_8,129,9999,9999,9999,3019427952
4317,18,Jits_Linear_8,130,9999,9999,9999,3019988040
4317,18,Jits_Linear_8,131,9999,9999,9999,3020547164
4317,18,Jits_Linear_8,132,9999,9999,9999,3021107300
4317,18,Jits_Linear_8,133,9999,9999,9999,3021667436
4317,18,Jits_Linear_8,134,9999,9999,9999,3022227540
4317,18,Jits_Linear_8,135,9999,9999,9999,3022777404
4317,18,Jits_Linear_8,136,9999,9999,9999,3023327356
4317,18,Jits_Linear_8,137,9999,9999,9999,3023877244
4317,18,Jits_Linear_8,138,9999,9999,9999,3024427136
4317,18,Jits_Linear_8,139,9999,9999,9999,3024977996
4317,18,Jits_Linear_8,140,9999,9999,9999,3025517660
4317,18,Jits_Linear_8,141,9999,9999,9999,3026057272
4317,18,Jits_Linear_8,142,9999,9999,9999,3026597956
4317,18,Jits_Linear_8,143,9999,9999,9999,3027137644
4317,18,Jits_Linear_8,144,9999,9999,9999,3027677264
4317,18,Jits_Linear_8,145,9999,9999,9999,3028207740
4317,18,Jits_Linear_8,146,9999,9999,9999,3028737088
4317,18,Jits_Linear_8,147,9999,9999,9999,3029267556
4317,18,Jits_Linear_8,148,9999,9999,9999,3029797964
4317,18,Jits_Linear_8,149,9999,9999,9999,3030327396
4317,18,Jits_Linear_8,150,9999,9999,9999,3030847556
4317,18,Jits_Linear_8,151,9999,9999,9999,3031367784
4317,18,Jits_Linear_8,152,9999,9999,9999,3031887996
4317,18,Jits_Linear_8,153,9999,9999,9999,3032407108
4317,18,Jits_Linear_8,154,9999,9999,9999,3032927332
4317,18,Jits_Linear_8,155,9999,9999,9999,3033437264
4317,18,Jits_Linear_8,156,9999,9999,9999,3033947208
4317,18,Jits_Linear_8,157,9999,9999,9999,3034457148
4317,18,Jits_Linear_8,158,9999,9999,9999,3034967096
4317,18,Jits_Linear_8,159,9999,9999,9999,3035478100
4317,18,Jits_Linear_8,160,9999,9999,9999,3035988064
4317,18,Jits_Linear_8,161,9999,9999,9999,3036487744
4317,18,Jits_Linear_8,162,9999,9999,9999,3036987504
4317,18,Jits_Linear_8,163,9999,9999,9999,3037487184
4317,18,Jits_Linear_8,164,9999,9999,9999,3037987908
4317,18,Jits_Linear_8,165,9999,9999,9999,3038477396
4317,18,Jits_Linear_8,166,9999,9999,9999,3038967884
4317,18,Jits_Linear_8,167,9999,9999,9999,3039457376
4317,18,Jits_Linear_8,168,9999,9999,9999,3039947860
4317,18,Jits_Linear_8,169,9999,9999,9999,3040437364
4318,16,Jits_ISO_5,0,5,56,103,3049471280
4318,16,Jits_ISO_5,1,5,63,98,3049474300
4318,16,Jits_ISO_5,2,5,80,127,3049477352
4318,16,Jits_ISO_5,0,5,56,103,3049971152
4318,16,Jits_ISO_5,1,5,63,98,3049974252
4318,16,Jits_ISO_5,2,5,80,127,3049977296
4318,16,Jits_ISO_5,3,1,48,17,3050128088
4318,16,Jits_ISO_5,0,1,48,27,3050454364
4318,16,Jits_ISO_5,1,5,56,103,3050470724
4318,16,Jits_ISO_5,2,5,80,127,3050481220
4318,16,Jits_ISO_5,3,5,63,98,3050500556
4318,16,Jits_ISO_5,0,5,63,98,3050921324
4318,16,Jits_ISO_5,1,5,80,127,3050950996
4318,16,Jits_ISO_5,2,5,56,103,3050961192
4318,16,Jits_ISO_5,3,1,48,40,3051047008
4318,16,Jits_ISO_5,0,5,80,127,3051480316
4318,16,Jits_ISO_5,1,5,56,103,3051490588
4318,16,Jits_ISO_5,2,1,48,29,3051498192
4318,16,Jits_ISO_5,3,5,63,98,3051521524
4318,16,Jits_ISO_5,0,5,63,98,3051970928
4318,16,Jits_ISO_5,1,1,48,34,3052000228
4318,16,Jits_ISO_5,2,5,56,103,3052002016
4318,16,Jits_ISO_5,3,5,80,127,3052010940
4318,16,Jits_ISO_5,0,5,56,103,3052420448
4318,16,Jits_ISO_5,1,1,48,32,3052453776
4318,16,Jits_ISO_5,2,5,63,98,3052470592
4318,16,Jits_ISO_5,3,5,80,127,3052491048
4318,16,Jits_ISO_5,0,1,48,24,3052903076
4318,16,Jits_ISO_5,1,5,80,127,3052921236
4318,16,Jits_ISO_5,2,5,63,98,3052971312
4318,16,Jits_ISO_5,3,5,56,103,3053011232
4318,16,Jits_ISO_5,0,1,48,32,3053388120
4318,16,Jits_ISO_5,1,5,56,103,3053420968
4318,16,Jits_ISO_5,2,5,63,98,3053450592
4318,16,Jits_ISO_5,3,5,80,127,3053521228
4318,16,Jits_ISO_5,0,1,48,29,3053886508
4318,16,Jits_ISO_5,1,5,56,103,3053920704
4318,16,Jits_ISO_5,2,5,80,127,3053981176
4318,16,Jits_ISO_5,3,5,63,98,3054010852
4318,16,Jits_ISO_5,0,1,48,32,3054412544
4318,16,Jits_ISO_5,1,5,56,103,3054430552
4318,16,Jits_ISO_5,2,5,63,98,3054441048
4318,16,Jits_ISO_5,3,5,80,127,3054480932
4318,16,Jits_ISO_5,0,1,48,28,3054917888
4318,16,Jits_ISO_5,1,5,63,98,3054921068
4318,16,Jits_ISO_5,2,5,80,127,3055000960
4318,16,Jits_ISO_5,3,5,56,103,3055011084
4318,16,Jits_ISO_5,0,1,48,32,3055439288
4318,16,Jits_ISO_5,1,5,63,98,3055470928
4318,16,Jits_ISO_5,2,5,56,103,3055511108
4318,16,Jits_ISO_5,3,5,80,127,3055514100
4318,16,Jits_ISO_5,0,5,56,103,3055931028
4318,16,Jits_ISO_5,1,5,63,98,3055941000
4318,16,Jits_ISO_5,2,1,48,29,3055961132
4318,16,Jits_ISO_5,3,5,80,127,3055981004
4318,16,Jits_ISO_5,0,5,56,103,3056421184
4318,16,Jits_ISO_5,1,5,63,98,3056424252
4318,16,Jits_ISO_5,2,1,48,30,3056433744
4318,16,Jits_ISO_5,3,5,80,127,3056440740
4318,16,Jits_ISO_5,0,1,48,32,3056897136
4318,16,Jits_ISO_5,1,5,80,127,3056931252
4318,16,Jits_ISO_5,2,5,56,103,3056941524
4318,16,Jits_ISO_5,3,5,63,98,3057011184
4318,16,Jits_ISO_5,0,5,63,98,3057420876
4318,16,Jits_ISO_5,1,1,48,35,3057421844
4318,16,Jits_ISO_5,2,5,56,103,3057441108
4318,16,Jits_ISO_5,3,5,80,127,3057520956
4318,16,Jits_ISO_5,0,1,48,34,3057919980
4318,16,Jits_ISO_5,1,5,56,103,3057930716
4318,16,Jits_ISO_5,2,5,80,127,3057970508
4318,16,Jits_ISO_5,3,5,63,98,3057980776
4318,16,Jits_ISO_5,0,1,48,33,3058396032
4318,16,Jits_ISO_5,1,5,80,127,3058431204
4318,16,Jits_ISO_5,2,5,63,98,3058461024
4318,16,Jits_ISO_5,3,5,56,103,3058500948
4318,16,Jits_ISO_5,0,1,48,32,3058904008
4318,16,Jits_ISO_5,1,5,56,103,3058950416
4318,16,Jits_ISO_5,2,5,63,98,3058981212
4318,16,Jits_ISO_5,3,5,80,127,3059031544
4318,16,Jits_ISO_5,0,1,48,33,3059418888
4318,16,Jits_ISO_5,1,5,80,127,3059451124
4318,16,Jits_ISO_5,2,5,56,103,3059491212
4318,16,Jits_ISO_5,3,5,63,98,3059501556
4318,16,Jits_ISO_5,0,1,48,31,3059921540
4318,16,Jits_ISO_5,1,5,80,127,3059930556
4318,16,Jits_ISO_5,2,5,63,98,3059970492
4318,16,Jits_ISO_5,3,5,56,103,3060031012
4318,16,Jits_ISO_5,0,5,56,103,3060431196
4318,16,Jits_ISO_5,1,1,48,29,3060439288
4318,16,Jits_ISO_5,2,5,80,127,3060441080
4318,16,Jits_ISO_5,3,5,63,98,3060521396
4318,16,Jits_ISO_5,0,5,80,127,3060931016
4318,16,Jits_ISO_5,1,1,48,24,3060961412
4318,16,Jits_ISO_5,2,5,63,98,3060991328
4318,16,Jits_ISO_5,3,5,56,103,3061021000
4318,16,Jits_ISO_5,0,5,56,103,3061430768
4318,16,Jits_ISO_5,1,1,48,27,3061476208
4318,16,Jits_ISO_5,2,5,80,127,3061491004
4318,16,Jits_ISO_5,3,5,63,98,3061530940
4318,16,Jits_ISO_5,0,1,48,31,3061945840
4318,16,Jits_ISO_5,1,5,56,103,3061980564
4318,16,Jits_ISO_5,2,5,63,98,3061990756
4318,16,Jits_ISO_5,3,5,80,127,3061994048
4318,16,Jits_ISO_5,0,5,80,127,3062431148
4318,16,Jits_ISO_5,1,1,48,28,3062438084
4318,16,Jits_ISO_5,2,5,63,98,3062521196
4318,16,Jits_ISO_5,3,5,56,103,3062530480
4318,16,Jits_ISO_5,0,5,56,103,3062930880
4318,16,Jits_ISO_5,1,1,48,30,3062933904
4318,16,Jits_ISO_5,2,5,63,98,3062935696
4318,16,Jits_ISO_5,3,5,80,127,3062938364
4318,16,Jits_ISO_5,0,1,48,31,3063438836
4318,16,Jits_ISO_5,1,5,80,127,3063451140
4318,16,Jits_ISO_5,2,5,63,98,3063501344
4318,16,Jits_ISO_5,3,5,56,103,3063531900
4318,16,Jits_ISO_5,0,5,56,103,3063931232
4318,16,Jits_ISO_5,1,5,80,127,3063940604
4318,16,Jits_ISO_5,2,5,63,98,3064011056
4318,16,Jits_ISO_5,0,5,56,103,3064441232
4318,16,Jits_ISO_5,1,5,63,98,3064460744
4318,16,Jits_ISO_5,2,5,80,127,3064521204
4318,16,Jits_ISO_5,3,1,48,34,3064649432
4318,16,Jits_ISO_5,0,5,80,127,3064930792
4318,16,Jits_ISO_5,1,1,48,34,3065001320
4318,16,Jits_ISO_5,2,5,63,98,3065002956
4318,16,Jits_ISO_5,3,5,56,103,3065020948
4318,16,Jits_ISO_5,0,5,80,127,3065450848
4318,16,Jits_ISO_5,1,5,56,103,3065461192
4318,16,Jits_ISO_5,2,5,63,98,3065471312
4318,16,Jits_ISO_5,3,1,48,34,3065528388
4318,16,Jits_ISO_5,0,5,80,127,3065941372
4318,16,Jits_ISO_5,1,5,56,103,3065960860
4318,16,Jits_ISO_5,2,1,48,37,3065998848
4318,16,Jits_ISO_5,3,5,63,98,3066030480
4318,16,Jits_ISO_5,0,5,56,103,3066451240
4318,16,Jits_ISO_5,1,5,80,127,3066480916
4318,16,Jits_ISO_5,2,1,48,35,3066494516
4318,16,Jits_ISO_5,3,5,63,98,3066500392
4318,16,Jits_ISO_5,0,1,48,35,3066930360
4318,16,Jits_ISO_5,1,5,63,98,3066940868
4318,16,Jits_ISO_5,2,5,56,103,3067001108
4318,16,Jits_ISO_5,3,5,80,127,3067030792
4318,16,Jits_ISO_5,0,5,63,98,3067431316
4318,16,Jits_ISO_5,1,5,80,127,3067434832
4318,16,Jits_ISO_5,2,1,48,33,3067477360
4318,16,Jits_ISO_5,3,5,56,103,3067521516
4318,16,Jits_ISO_5,0,5,56,103,3067950600
4318,16,Jits_ISO_5,1,1,48,27,3067980796
4318,16,Jits_ISO_5,2,5,63,98,3067982584
4318,16,Jits_ISO_5,3,5,80,127,3068021248
4318,16,Jits_ISO_5,0,5,63,98,3068451172
4318,16,Jits_ISO_5,1,5,56,103,3068491184
4318,16,Jits_ISO_5,2,1,48,28,3068504420
4318,16,Jits_ISO_5,3,5,80,127,3068510740
4318,16,Jits_ISO_5,0,5,63,98,3068961024
4318,16,Jits_ISO_5,1,1,48,30,3068966684
4318,16,Jits_ISO_5,2,5,56,103,3069001032
4318,16,Jits_ISO_5,3,5,80,127,3069011596
4318,16,Jits_ISO_5,0,5,80,127,3069441284
4318,16,Jits_ISO_5,1,1,48,36,3069491976
4318,16,Jits_ISO_5,2,5,63,98,3069510956
4318,16,Jits_ISO_5,3,5,56,103,3069530588
4318,16,Jits_ISO_5,0,5,56,103,3069930844
4318,16,Jits_ISO_5,1,5,80,127,3069951452
4318,16,Jits_ISO_5,2,1,48,28,3069980948
4318,16,Jits_ISO_5,3,5,63,98,3069991156
4318,16,Jits_ISO_5,0,1,48,35,3070394744
4318,16,Jits_ISO_5,1,5,63,98,3070440772
4318,16,Jits_ISO_5,2,5,80,127,3070461528
4318,16,Jits_ISO_5,3,5,56,103,3070501300
4318,16,Jits_ISO_5,0,5,63,98,3070940812
4318,16,Jits_ISO_5,1,5,56,103,3070961124
4318,16,Jits_ISO_5,2,1,48,32,3070962164
4318,16,Jits_ISO_5,3,5,80,127,3070971236
4318,16,Jits_ISO_5,0,1,48,37,3071431152
4318,16,Jits_ISO_5,1,5,80,127,3071441140
4318,16,Jits_ISO_5,2,5,56,103,3071460776
4318,16,Jits_ISO_5,3,5,63,98,3071490596
4318,16,Jits_ISO_5,0,1,48,33,3071900844
4318,16,Jits_ISO_5,1,5,56,103,3072010680
4318,16,Jits_ISO_5,2,5,80,127,3072013820
4318,16,Jits_ISO_5,3,5,63,98,3072031140
4318,16,Jits_ISO_5,0,5,63,98,3072430648
4318,16,Jits_ISO_5,1,5,56,103,3072461148
4318,16,Jits_ISO_5,2,1,48,36,3072465088
4318,16,Jits_ISO_5,3,5,80,127,3072520852
4318,16,Jits_ISO_5,0,1,48,39,3072917604
4318,16,Jits_ISO_5,1,5,63,98,3073011060
4318,16,Jits_ISO_5,2,5,56,103,3073021536
4318,16,Jits_ISO_5,3,5,80,127,3073030464
4318,16,Jits_ISO_5,0,1,48,33,3073435248
4318,16,Jits_ISO_5,1,5,56,103,3073460752
4318,16,Jits_ISO_5,2,5,80,127,3073491252
4318,16,Jits_ISO_5,3,5,63,98,3073500696
4318,16,Jits_ISO_5,0,1,48,31,3073967792
4318,16,Jits_ISO_5,1,5,63,98,3074001540
4318,16,Jits_ISO_5,2,5,56,103,3074010540
4318,16,Jits_ISO_5,3,5,80,127,3074030852
4318,16,Jits_ISO_5,0,5,56,103,3074431364
4318,16,Jits_ISO_5,1,1,48,27,3074479616
4318,16,Jits_ISO_5,2,5,63,98,3074490872
4318,16,Jits_ISO_5,3,5,80,127,3074494084
4318,16,Jits_ISO_5,0,5,80,127,3074950508
4318,16,Jits_ISO_5,1,5,56,103,3074960728
4318,16,Jits_ISO_5,2,1,48,24,3074964144
4318,16,Jits_ISO_5,3,5,63,98,3075031520
4318,16,Jits_ISO_5,0,5,80,127,3075441036
4318,16,Jits_ISO_5,1,1,48,29,3075476840
4318,16,Jits_ISO_5,2,5,56,103,3075510588
4318,16,Jits_ISO_5,3,5,63,98,3075521004
4318,16,Jits_ISO_5,0,5,63,98,3075980596
4318,16,Jits_ISO_5,1,5,56,103,3075990864
4318,16,Jits_ISO_5,2,5,80,127,3076011548
4318,16,Jits_ISO_5,0,1,48,38,3076424512
4318,16,Jits_ISO_5,1,5,80,127,3076431508
4318,16,Jits_ISO_5,2,5,63,98,3076490504
4318,16,Jits_ISO_5,3,5,56,103,3076530500
4318,16,Jits_ISO_5,0,5,56,103,3076970808
4318,16,Jits_ISO_5,1,5,63,98,3076981228
4318,16,Jits_ISO_5,2,5,80,127,3077020964
4318,16,Jits_ISO_5,0,1,48,23,3077263136
4318,16,Jits_ISO_5,1,5,56,103,3077430520
4318,16,Jits_ISO_5,2,5,80,127,3077461692
4318,16,Jits_ISO_5,3,5,63,98,3077510544
4318,16,Jits_ISO_5,4,1,48,36,3077588508
4318,16,Jits_ISO_5,0,5,56,103,3077971340
4318,16,Jits_ISO_5,1,5,63,98,3078011424
4318,16,Jits_ISO_5,2,5,80,127,3078014788
4318,16,Jits_ISO_5,3,1,48,35,3078029412
4318,16,Jits_ISO_5,0,5,56,103,3078470936
4318,16,Jits_ISO_5,1,5,63,98,3078481504
4318,16,Jits_ISO_5,2,5,80,127,3078500692
4318,16,Jits_ISO_5,3,1,48,22,3078510784
4318,16,Jits_ISO_5,0,5,56,103,3078930824
4318,16,Jits_ISO_5,1,5,80,127,3078933816
4318,16,Jits_ISO_5,2,5,63,98,3078970688
4318,16,Jits_ISO_5,3,1,48,26,3079023920
4318,16,Jits_ISO_5,0,1,48,29,3079446704
4318,16,Jits_ISO_5,1,5,63,98,3079470488
4318,16,Jits_ISO_5,2,5,56,103,3079501208
4318,16,Jits_ISO_5,3,5,80,127,3079520620
4318,16,Jits_ISO_5,0,5,80,127,3079940416
4318,16,Jits_ISO_5,1,5,56,103,3079950688
4318,16,Jits_ISO_5,2,5,63,98,3079960880
4318,16,Jits_ISO_5,3,1,48,36,3079966464
4318,16,Jits_ISO_5,0,1,48,37,3080439316
4318,16,Jits_ISO_5,1,5,56,103,3080441128
4318,16,Jits_ISO_5,2,5,80,127,3080481212
4318,16,Jits_ISO_5,3,5,63,98,3080510888
4318,16,Jits_ISO_5,0,1,48,35,3080938352
4318,16,Jits_ISO_5,1,5,63,98,3080951200
4318,16,Jits_ISO_5,2,5,80,127,3080961320
4318,16,Jits_ISO_5,3,5,56,103,3080970544
4318,16,Jits_ISO_5,0,1,48,36,3081412244
4318,16,Jits_ISO_5,1,5,56,103,3081431300
4318,16,Jits_ISO_5,2,5,63,98,3081501128
4318,16,Jits_ISO_5,3,5,80,127,3081511756
4318,16,Jits_ISO_5,0,5,80,127,3081931340
4318,16,Jits_ISO_5,1,5,56,103,3081941460
4318,16,Jits_ISO_5,2,1,48,36,3081973720
4318,16,Jits_ISO_5,3,5,63,98,3081990532
4318,16,Jits_ISO_5,0,5,80,127,3082441348
4318,16,Jits_ISO_5,1,1,48,38,3082456528
4318,16,Jits_ISO_5,2,5,56,103,3082500460
4318,16,Jits_ISO_5,3,5,63,98,3082531328
4318,16,Jits_ISO_5,0,5,56,103,3082940724
4318,16,Jits_ISO_5,1,5,80,127,3082943792
4318,16,Jits_ISO_5,2,1,48,38,3082973808
4318,16,Jits_ISO_5,3,5,63,98,3082980804
4318,16,Jits_ISO_5,0,5,56,103,3083471328
4318,16,Jits_ISO_5,1,1,48,38,3083473772
4318,16,Jits_ISO_5,2,5,63,98,3083500848
4318,16,Jits_ISO_5,3,5,80,127,3083511192
4318,16,Jits_ISO_5,0,1,48,37,3083966244
4318,16,Jits_ISO_5,1,5,63,98,3083981408
4318,16,Jits_ISO_5,2,5,80,127,3083991308
4318,16,Jits_ISO_5,3,5,56,103,3084000680
4318,16,Jits_ISO_5,0,5,80,127,3084430732
4318,16,Jits_ISO_5,1,5,56,103,3084480856
4318,16,Jits_ISO_5,2,5,63,98,3084483996
4318,16,Jits_ISO_5,3,1,48,29,3084493488
4318,16,Jits_ISO_5,0,5,56,103,3084961260
4318,16,Jits_ISO_5,1,1,48,33,3084962224
4318,16,Jits_ISO_5,2,5,80,127,3084980664
4318,16,Jits_ISO_5,3,5,63,98,3084990784
4318,16,Jits_ISO_5,0,5,63,98,3085441352
4318,16,Jits_ISO_5,1,5,56,103,3085471052
4318,16,Jits_ISO_5,2,5,80,127,3085490612
4318,16,Jits_ISO_5,3,1,48,28,3085543168
4318,16,Jits_ISO_5,0,1,48,37,3085930864
4318,16,Jits_ISO_5,1,5,56,103,3085951488
4318,16,Jits_ISO_5,2,5,80,127,3085960440
4318,16,Jits_ISO_5,3,5,63,98,3086031520
4318,16,Jits_ISO_5,0,1,48,32,3086403920
4318,16,Jits_ISO_5,1,5,63,98,3086440736
4318,16,Jits_ISO_5,2,5,80,127,3086480924
4318,16,Jits_ISO_5,3,5,56,103,3086520544
4318,16,Jits_ISO_5,0,5,56,103,3086950740
4318,16,Jits_ISO_5,1,5,63,98,3086961012
4318,16,Jits_ISO_5,2,5,80,127,3086980572
4318,16,Jits_ISO_5,3,1,48,29,3087179160
4318,16,Jits_ISO_5,0,5,63,98,3087490492
4318,16,Jits_ISO_5,1,1,48,44,3087494056
4318,16,Jits_ISO_5,2,5,80,127,3087510896
4318,16,Jits_ISO_5,3,5,56,103,3087531428
4318,16,Jits_ISO_5,0,5,56,103,3087930744
4318,16,Jits_ISO_5,1,5,80,127,3088010564
4318,16,Jits_ISO_5,2,1,48,44,3088012500
4318,16,Jits_ISO_5,3,5,63,98,3088020828
4318,16,Jits_ISO_5,0,1,48,44,3088462904
4318,16,Jits_ISO_5,1,5,80,127,3088471468
4318,16,Jits_ISO_5,2,5,63,98,3088480544
4318,16,Jits_ISO_5,3,5,56,103,3088511340
4318,16,Jits_ISO_5,0,1,48,38,3088913860
4318,16,Jits_ISO_5,1,5,63,98,3088931048
4318,16,Jits_ISO_5,2,5,80,127,3088971060
4318,16,Jits_ISO_5,3,5,56,103,3089030532
4318,16,Jits_ISO_5,0,5,63,98,3089441272
4318,16,Jits_ISO_5,1,5,56,103,3089491252
4318,16,Jits_ISO_5,2,1,48,25,3089492144
4318,16,Jits_ISO_5,3,5,80,127,3089520992
4318,16,Jits_ISO_5,0,5,80,127,3089951124
4318,16,Jits_ISO_5,1,5,63,98,3089961320
4318,16,Jits_ISO_5,2,1,48,35,3089986984
4318,16,Jits_ISO_5,3,5,56,103,3090031212
4318,16,Jits_ISO_5,0,1,48,40,3090460580
4318,16,Jits_ISO_5,1,5,80,127,3090520396
4318,16,Jits_ISO_5,2,5,56,103,3090530664
4318,16,Jits_ISO_5,3,5,63,98,3090533804
4318,16,Jits_ISO_5,0,1,48,40,3090912664
4318,16,Jits_ISO_5,1,5,56,103,3090960716
4318,16,Jits_ISO_5,2,5,80,127,3090981320
4318,16,Jits_ISO_5,3,5,63,98,3090990396
4318,16,Jits_ISO_5,0,1,48,38,3091423180
4318,16,Jits_ISO_5,1,5,63,98,3091470712
4318,16,Jits_ISO_5,2,5,56,103,3091510652
4318,16,Jits_ISO_5,3,5,80,127,3091531096
4318,16,Jits_ISO_5,0,1,48,43,3091891760
4318,16,Jits_ISO_5,1,5,63,98,3091970528
4318,16,Jits_ISO_5,2,5,56,103,3092030976
4318,16,Jits_ISO_5,3,5,80,127,3092034116
4318,16,Jits_ISO_5,0,5,56,103,3092431156
4318,16,Jits_ISO_5,1,1,48,47,3092441768
4318,16,Jits_ISO_5,2,5,80,127,3092450712
4318,16,Jits_ISO_5,3,5,63,98,3092490648
4318,16,Jits_ISO_5,0,5,56,103,3092960500
4318,16,Jits_ISO_5,1,1,48,43,3092963544
4318,16,Jits_ISO_5,2,5,63,98,3092981024
4318,16,Jits_ISO_5,3,5,80,127,3092991220
4318,16,Jits_ISO_5,0,5,80,127,3093430580
4318,16,Jits_ISO_5,1,1,48,46,3093459860
4318,16,Jits_ISO_5,2,5,56,103,3093461592
4318,16,Jits_ISO_5,3,5,63,98,3093501304
4318,16,Jits_ISO_5,0,5,80,127,3093940512
4318,16,Jits_ISO_5,1,1,48,46,3093942376
4318,16,Jits_ISO_5,2,5,56,103,3093961040
4318,16,Jits_ISO_5,3,5,63,98,3094020452
4318,16,Jits_ISO_5,0,1,48,27,3094410636
4318,16,Jits_ISO_5,1,5,56,103,3094450668
4318,16,Jits_ISO_5,2,5,80,127,3094471200
4318,16,Jits_ISO_5,3,5,63,98,3094530376
4318,16,Jits_ISO_5,0,1,48,46,3094895804
4318,16,Jits_ISO_5,1,5,80,127,3094930996
4318,16,Jits_ISO_5,2,5,56,103,3094940968
4318,16,Jits_ISO_5,3,5,63,98,3094980904
4318,16,Jits_ISO_5,0,1,48,49,3095377844
4318,16,Jits_ISO_5,1,5,63,98,3095430480
4318,16,Jits_ISO_5,2,5,56,103,3095470360
4318,16,Jits_ISO_5,3,5,80,127,3095474392
4318,16,Jits_ISO_5,0,1,48,35,3095898492
4318,16,Jits_ISO_5,1,5,63,98,3095951124
4318,16,Jits_ISO_5,2,5,80,127,3095990912
4318,16,Jits_ISO_5,3,5,56,103,3096021320
4318,16,Jits_ISO_5,0,1,48,40,3096432156
4318,16,Jits_ISO_5,1,5,56,103,3096441172
4318,16,Jits_ISO_5,2,5,63,98,3096450324
4318,16,Jits_ISO_5,3,5,80,127,3096480992
4318,16,Jits_ISO_5,0,5,80,127,3096930648
4318,16,Jits_ISO_5,1,1,48,46,3096940512
4318,16,Jits_ISO_5,2,5,63,98,3097001392
4318,16,Jits_ISO_5,3,5,56,103,3097010540
4318,16,Jits_ISO_5,0,5,63,98,3097431372
4318,16,Jits_ISO_5,1,1,48,43,3097471428
4318,16,Jits_ISO_5,2,5,56,103,3097501068
4318,16,Jits_ISO_5,3,5,80,127,3097511412
4318,16,Jits_ISO_5,0,5,63,98,3097931100
4318,16,Jits_ISO_5,1,5,56,103,3097950512
4318,16,Jits_ISO_5,2,5,80,127,3097990520
4318,16,Jits_ISO_5,3,1,48,43,3098003924
4318,16,Jits_ISO_5,0,5,56,103,3098441016
4318,16,Jits_ISO_5,1,1,48,34,3098441984
4318,16,Jits_ISO_5,2,5,63,98,3098451356
4318,16,Jits_ISO_5,3,5,80,127,3098531096
4318,16,Jits_ISO_5,0,5,63,98,3098930428
4318,16,Jits_ISO_5,1,5,56,103,3098961148
4318,16,Jits_ISO_5,2,1,48,39,3098968396
4318,16,Jits_ISO_5,3,5,80,127,3099001152
4318,16,Jits_ISO_5,0,1,48,27,3099427944
4318,16,Jits_ISO_5,1,5,56,103,3099431272
4318,16,Jits_ISO_5,2,5,63,98,3099471212
4318,16,Jits_ISO_5,3,5,80,127,3099511148
4318,16,Jits_ISO_5,0,1,48,41,3099914868
4318,16,Jits_ISO_5,1,5,80,127,3099931080
4318,16,Jits_ISO_5,2,5,56,103,3100010948
4318,16,Jits_ISO_5,3,5,63,98,3100021276
4318,16,Jits_ISO_5,0,1,48,25,3100447264
4318,16,Jits_ISO_5,1,5,56,103,3100470896
4318,16,Jits_ISO_5,2,5,63,98,3100473960
4318,16,Jits_ISO_5,3,5,80,127,3100480868
4318,16,Jits_ISO_5,0,1,48,35,3100965572
4318,16,Jits_ISO_5,1,5,56,103,3100991000
4318,16,Jits_ISO_5,2,5,63,98,3101011164
4318,16,Jits_ISO_5,3,5,80,127,3101020384
4318,16,Jits_ISO_5,0,5,63,98,3101450668
4318,16,Jits_ISO_5,1,5,80,127,3101460716
4318,16,Jits_ISO_5,2,5,56,103,3101481320
4318,16,Jits_ISO_5,3,1,48,24,3101495376
4318,16,Jits_ISO_5,0,1,48,43,3101928796
4318,16,Jits_ISO_5,1,5,63,98,3101951292
4318,16,Jits_ISO_5,2,5,56,103,3102031292
4318,16,Jits_ISO_5,3,5,80,127,3102034208
4318,16,Jits_ISO_5,0,1,48,48,3102402896
4318,16,Jits_ISO_5,1,5,63,98,3102450944
4318,16,Jits_ISO_5,2,5,56,103,3102470656
4318,16,Jits_ISO_5,3,5,80,127,3102501288
4318,16,Jits_ISO_5,0,1,48,49,3102915508
4318,16,Jits_ISO_5,1,5,56,103,3102950904
4318,16,Jits_ISO_5,2,5,63,98,3102971212
4318,16,Jits_ISO_5,3,5,80,127,3102980364
4318,16,Jits_ISO_5,0,1,48,48,3103424760
4318,16,Jits_ISO_5,1,5,56,103,3103481056
4318,16,Jits_ISO_5,2,5,63,98,3103510876
4318,16,Jits_ISO_5,3,5,80,127,3103514016
4318,16,Jits_ISO_5,0,1,48,35,3103927484
4318,16,Jits_ISO_5,1,5,56,103,3103930960
4318,16,Jits_ISO_5,2,5,63,98,3103970748
4318,16,Jits_ISO_5,3,5,80,127,3104030972
4318,16,Jits_ISO_5,0,1,48,30,3104438308
4318,16,Jits_ISO_5,1,5,56,103,3104451076
4318,16,Jits_ISO_5,2,5,63,98,3104461268
4318,16,Jits_ISO_5,3,5,80,127,3104520756
4318,16,Jits_ISO_5,0,1,48,31,3104920516
4318,16,Jits_ISO_5,1,5,56,103,3104950588
4318,16,Jits_ISO_5,2,5,80,127,3104971120
4318,16,Jits_ISO_5,3,5,63,98,3105000792
4318,16,Jits_ISO_5,0,5,80,127,3105451448
4318,16,Jits_ISO_5,1,5,56,103,3105460820
4318,16,Jits_ISO_5,2,5,63,98,3105480980
4318,16,Jits_ISO_5,3,1,48,31,3105483804
4318,16,Jits_ISO_5,0,5,63,98,3105940860
4318,16,Jits_ISO_5,1,1,48,31,3105955964
4318,16,Jits_ISO_5,2,5,80,127,3106020796
4318,16,Jits_ISO_5,3,5,56,103,3106030916
4318,16,Jits_ISO_5,0,1,48,37,3106432300
4318,16,Jits_ISO_5,1,5,80,127,3106501048
4318,16,Jits_ISO_5,2,5,56,103,3106520532
4318,16,Jits_ISO_5,3,5,63,98,3106523376
4318,16,Jits_ISO_5,0,1,48,35,3106923480
4318,16,Jits_ISO_5,1,5,63,98,3106971104
4318,16,Jits_ISO_5,2,5,80,127,3106974244
4318,16,Jits_ISO_5,3,5,56,103,3107031404
4318,16,Jits_ISO_5,0,1,48,37,3107411448
4318,16,Jits_ISO_5,1,5,56,103,3107451180
4318,16,Jits_ISO_5,2,5,80,127,3107460552
4318,16,Jits_ISO_5,3,5,63,98,3107501856
4318,16,Jits_ISO_5,0,5,56,103,3107930764
4318,16,Jits_ISO_5,1,1,48,46,3107939208
4318,16,Jits_ISO_5,2,5,63,98,3107990872
4318,16,Jits_ISO_5,3,5,80,127,3108001068
4318,16,Jits_ISO_5,0,1,48,44,3108436608
4318,16,Jits_ISO_5,1,5,63,98,3108440392
4318,16,Jits_ISO_5,2,5,80,127,3108481376
4318,16,Jits_ISO_5,3,5,56,103,3108521336
4318,16,Jits_ISO_5,0,1,48,42,3108920244
4318,16,Jits_ISO_5,1,5,56,103,3108941096
4318,16,Jits_ISO_5,2,5,63,98,3109021120
4318,16,Jits_ISO_5,3,5,80,127,3109024412
4318,16,Jits_ISO_5,0,9999,9999,9999,3049718856
4318,16,Jits_ISO_5,1,9999,9999,9999,3050218572
4318,16,Jits_ISO_5,2,9999,9999,9999,3050718296
4318,16,Jits_ISO_5,3,9999,9999,9999,3051218996
4318,16,Jits_ISO_5,4,9999,9999,9999,3051718736
4318,16,Jits_ISO_5,5,9999,9999,9999,3052218492
4318,16,Jits_ISO_5,6,9999,9999,9999,3052718152
4318,16,Jits_ISO_5,7,9999,9999,9999,3053218872
4318,16,Jits_ISO_5,8,9999,9999,9999,3053718604
4318,16,Jits_ISO_5,9,9999,9999,9999,3054218340
4318,16,Jits_ISO_5,10,9999,9999,9999,3054719096
4318,16,Jits_ISO_5,11,9999,9999,9999,3055218756
4318,16,Jits_ISO_5,12,9999,9999,9999,3055718484
4318,16,Jits_ISO_5,13,9999,9999,9999,3056218220
4318,16,Jits_ISO_5,14,9999,9999,9999,3056718928
4318,16,Jits_ISO_5,15,9999,9999,9999,3057218676
4318,16,Jits_ISO_5,16,9999,9999,9999,3057718332
4318,16,Jits_ISO_5,17,9999,9999,9999,3058219112
4318,16,Jits_ISO_5,18,9999,9999,9999,3058729036
4318,16,Jits_ISO_5,19,9999,9999,9999,3059228772
4318,16,Jits_ISO_5,20,9999,9999,9999,3059728436
4318,16,Jits_ISO_5,21,9999,9999,9999,3060228168
4318,16,Jits_ISO_5,22,9999,9999,9999,3060728948
4318,16,Jits_ISO_5,23,9999,9999,9999,3061228624
4318,16,Jits_ISO_5,24,9999,9999,9999,3061728376
4318,16,Jits_ISO_5,25,9999,9999,9999,3062229092
4318,16,Jits_ISO_5,26,9999,9999,9999,3062728756
4318,16,Jits_ISO_5,27,9999,9999,9999,3063228476
4318,16,Jits_ISO_5,28,9999,9999,9999,3063728228
4318,16,Jits_ISO_5,29,9999,9999,9999,3064228956
4318,16,Jits_ISO_5,30,9999,9999,9999,3064728688
4318,16,Jits_ISO_5,31,9999,9999,9999,3065228348
4318,16,Jits_ISO_5,32,9999,9999,9999,3065728072
4318,16,Jits_ISO_5,33,9999,9999,9999,3066228792
4318,16,Jits_ISO_5,34,9999,9999,9999,3066728540
4318,16,Jits_ISO_5,35,9999,9999,9999,3067228216
4318,16,Jits_ISO_5,36,9999,9999,9999,3067728988
4318,16,Jits_ISO_5,37,9999,9999,9999,3068228724
4318,16,Jits_ISO_5,38,9999,9999,9999,3068728400
4318,16,Jits_ISO_5,39,9999,9999,9999,3069228140
4318,16,Jits_ISO_5,40,9999,9999,9999,3069728852
4318,16,Jits_ISO_5,41,9999,9999,9999,3070228596
4318,16,Jits_ISO_5,42,9999,9999,9999,3070728272
4318,16,Jits_ISO_5,43,9999,9999,9999,3071229048
4318,16,Jits_ISO_5,44,9999,9999,9999,3071728708
4318,16,Jits_ISO_5,45,9999,9999,9999,3072228440
4318,16,Jits_ISO_5,46,9999,9999,9999,3072728176
4318,16,Jits_ISO_5,47,9999,9999,9999,3073228888
4318,16,Jits_ISO_5,48,9999,9999,9999,3073728620
4318,16,Jits_ISO_5,49,9999,9999,9999,3074228288
4318,16,Jits_ISO_5,50,9999,9999,9999,3074729056
4318,16,Jits_ISO_5,51,9999,9999,9999,3075228732
4318,16,Jits_ISO_5,52,9999,9999,9999,3075728480
4318,16,Jits_ISO_5,53,9999,9999,9999,3076228152
4318,16,Jits_ISO_5,54,9999,9999,9999,3076728900
4318,16,Jits_ISO_5,55,9999,9999,9999,3077228656
4318,16,Jits_ISO_5,56,9999,9999,9999,3077728344
4318,16,Jits_ISO_5,57,9999,9999,9999,3078229080
4318,16,Jits_ISO_5,58,9999,9999,9999,3078728756
4318,16,Jits_ISO_5,59,9999,9999,9999,3079228492
4318,16,Jits_ISO_5,60,9999,9999,9999,3079728244
4318,16,Jits_ISO_5,61,9999,9999,9999,3080228948
4318,16,Jits_ISO_5,62,9999,9999,9999,3080728624
4318,16,Jits_ISO_5,63,9999,9999,9999,3081228356
4318,16,Jits_ISO_5,64,9999,9999,9999,3081728092
4318,16,Jits_ISO_5,65,9999,9999,9999,3082228792
4318,16,Jits_ISO_5,66,9999,9999,9999,3082728544
4318,16,Jits_ISO_5,67,9999,9999,9999,3083228280
4318,16,Jits_ISO_5,68,9999,9999,9999,3083729004
4318,16,Jits_ISO_5,69,9999,9999,9999,3084228676
4318,16,Jits_ISO_5,70,9999,9999,9999,3084728400
4318,16,Jits_ISO_5,71,9999,9999,9999,3085228148
4318,16,Jits_ISO_5,72,9999,9999,9999,3085728868
4318,16,Jits_ISO_5,73,9999,9999,9999,3086228600
4318,16,Jits_ISO_5,74,9999,9999,9999,3086728260
4318,16,Jits_ISO_5,75,9999,9999,9999,3087229028
4318,16,Jits_ISO_5,76,9999,9999,9999,3087728692
4318,16,Jits_ISO_5,77,9999,9999,9999,3088228424
4318,16,Jits_ISO_5,78,9999,9999,9999,3088728176
4318,16,Jits_ISO_5,79,9999,9999,9999,3089228880
4318,16,Jits_ISO_5,80,9999,9999,9999,3089728616
4318,16,Jits_ISO_5,81,9999,9999,9999,3090228280
4318,16,Jits_ISO_5,82,9999,9999,9999,3090729072
4318,16,Jits_ISO_5,83,9999,9999,9999,3091228732
4318,16,Jits_ISO_5,84,9999,9999,9999,3091728472
4318,16,Jits_ISO_5,85,9999,9999,9999,3092228204
4318,16,Jits_ISO_5,86,9999,9999,9999,3092728908
4318,16,Jits_ISO_5,87,9999,9999,9999,3093228660
4318,16,Jits_ISO_5,88,9999,9999,9999,3093728328
4318,16,Jits_ISO_5,89,9999,9999,9999,3094229048
4318,16,Jits_ISO_5,90,9999,9999,9999,3094728800
4318,16,Jits_ISO_5,91,9999,9999,9999,3095228528
4318,16,Jits_ISO_5,92,9999,9999,9999,3095728180
4318,16,Jits_ISO_5,93,9999,9999,9999,3096228956
4318,16,Jits_ISO_5,94,9999,9999,9999,3096728692
4318,16,Jits_ISO_5,95,9999,9999,9999,3097228352
4318,16,Jits_ISO_5,96,9999,9999,9999,3097728076
4318,16,Jits_ISO_5,97,9999,9999,9999,3098228848
4318,16,Jits_ISO_5,98,9999,9999,9999,3098728508
4318,16,Jits_ISO_5,99,9999,9999,9999,3099228252
4318,16,Jits_ISO_5,100,9999,9999,9999,3099728960
4318,16,Jits_ISO_5,101,9999,9999,9999,3100228692
4318,16,Jits_ISO_5,102,9999,9999,9999,3100728416
4318,16,Jits_ISO_5,103,9999,9999,9999,3101228084
4318,16,Jits_ISO_5,104,9999,9999,9999,3101728864
4318,16,Jits_ISO_5,105,9999,9999,9999,3102228592
4318,16,Jits_ISO_5,106,9999,9999,9999,3102728256
4318,16,Jits_ISO_5,107,9999,9999,9999,3103229032
4318,16,Jits_ISO_5,108,9999,9999,9999,3103728764
4318,16,Jits_ISO_5,109,9999,9999,9999,3104228424
4318,16,Jits_ISO_5,110,9999,9999,9999,3104728160
4318,16,Jits_ISO_5,111,9999,9999,9999,3105228868
4318,16,Jits_ISO_5,112,9999,9999,9999,3105728600
4318,16,Jits_ISO_5,113,9999,9999,9999,3106228280
4318,16,Jits_ISO_5,114,9999,9999,9999,3106729056
4318,16,Jits_ISO_5,115,9999,9999,9999,3107228780
4318,16,Jits_ISO_5,116,9999,9999,9999,3107728436
4318,16,Jits_ISO_5,117,9999,9999,9999,3108228220
4318,16,Jits_ISO_5,118,9999,9999,9999,3108728932
4318,16,Jits_ISO_5,119,9999,9999,9999,3109228664
4319,7,Jits_ISO_8,0,5,56,103,3121580544
4319,7,Jits_ISO_8,1,5,63,98,3121583492
4319,7,Jits_ISO_8,2,5,80,127,3121586616
4319,7,Jits_ISO_8,0,1,48,33,3122122536
4319,7,Jits_ISO_8,1,5,56,103,3122380224
4319,7,Jits_ISO_8,2,5,63,98,3122383324
4319,7,Jits_ISO_8,3,5,80,127,3122386368
4319,7,Jits_ISO_8,0,5,80,127,3123119348
4319,7,Jits_ISO_8,1,1,48,40,3123132952
4319,7,Jits_ISO_8,2,5,63,98,3123209700
4319,7,Jits_ISO_8,3,5,56,103,3123219744
4319,7,Jits_ISO_8,0,5,56,103,3123939752
4319,7,Jits_ISO_8,1,5,63,98,3123950096
4319,7,Jits_ISO_8,2,1,48,40,3123971200
4319,7,Jits_ISO_8,3,5,80,127,3124040296
4319,7,Jits_ISO_8,0,1,48,39,3124690816
4319,7,Jits_ISO_8,1,5,63,98,3124709796
4319,7,Jits_ISO_8,2,5,80,127,3124739400
4319,7,Jits_ISO_8,3,5,56,103,3124770272
4319,7,Jits_ISO_8,0,1,48,50,3125451260
4319,7,Jits_ISO_8,1,5,56,103,3125509576
4319,7,Jits_ISO_8,2,5,80,127,3125609740
4319,7,Jits_ISO_8,3,5,63,98,3125660188
4319,7,Jits_ISO_8,0,5,56,103,3126310120
4319,7,Jits_ISO_8,1,1,48,46,3126353912
4319,7,Jits_ISO_8,2,5,80,127,3126360316
4319,7,Jits_ISO_8,3,5,63,98,3126400256
4319,7,Jits_ISO_8,0,1,48,41,3127045664
4319,7,Jits_ISO_8,1,5,80,127,3127139656
4319,7,Jits_ISO_8,2,5,63,98,3127170364
4319,7,Jits_ISO_8,3,5,56,103,3127240292
4319,7,Jits_ISO_8,0,1,48,37,3127881344
4319,7,Jits_ISO_8,1,5,63,98,3127970108
4319,7,Jits_ISO_8,2,5,56,103,3127999844
4319,7,Jits_ISO_8,3,5,80,127,3128060308
4319,7,Jits_ISO_8,0,1,48,39,3128681956
4319,7,Jits_ISO_8,1,5,56,103,3128709876
4319,7,Jits_ISO_8,2,5,80,127,3128712640
4319,7,Jits_ISO_8,3,5,63,98,3128830332
4319,7,Jits_ISO_8,0,1,48,41,3129470932
4319,7,Jits_ISO_8,1,5,56,103,3129590028
4319,7,Jits_ISO_8,2,5,80,127,3129629968
4319,7,Jits_ISO_8,3,5,63,98,3129640236
4319,7,Jits_ISO_8,0,1,48,38,3130318860
4319,7,Jits_ISO_8,1,5,56,103,3130350344
4319,7,Jits_ISO_8,2,5,80,127,3130370284
4319,7,Jits_ISO_8,3,5,63,98,3130450212
4319,7,Jits_ISO_8,0,1,48,42,3131131152
4319,7,Jits_ISO_8,1,5,80,127,3131139420
4319,7,Jits_ISO_8,2,5,56,103,3131240028
4319,7,Jits_ISO_8,3,5,63,98,3131250148
4319,7,Jits_ISO_8,0,1,48,43,3131874068
4319,7,Jits_ISO_8,1,5,63,98,3131909464
4319,7,Jits_ISO_8,2,5,80,127,3131970156
4319,7,Jits_ISO_8,3,5,56,103,3131980188
4319,7,Jits_ISO_8,0,1,48,44,3132600056
4319,7,Jits_ISO_8,1,5,56,103,3132710204
4319,7,Jits_ISO_8,2,5,63,98,3132779960
4319,7,Jits_ISO_8,3,5,80,127,3132783248
4319,7,Jits_ISO_8,0,1,48,44,3133381700
4319,7,Jits_ISO_8,1,5,63,98,3133539576
4319,7,Jits_ISO_8,2,5,56,103,3133589952
4319,7,Jits_ISO_8,3,5,80,127,3133593164
4319,7,Jits_ISO_8,0,1,48,37,3134289968
4319,7,Jits_ISO_8,1,5,56,103,3134299428
4319,7,Jits_ISO_8,2,5,80,127,3134302496
4319,7,Jits_ISO_8,3,5,63,98,3134389648
4319,7,Jits_ISO_8,0,1,48,41,3135083136
4319,7,Jits_ISO_8,1,5,63,98,3135140208
4319,7,Jits_ISO_8,2,5,56,103,3135230256
4319,7,Jits_ISO_8,3,5,80,127,3135260004
4319,7,Jits_ISO_8,0,1,48,42,3135894864
4319,7,Jits_ISO_8,1,5,56,103,3135929660
4319,7,Jits_ISO_8,2,5,63,98,3136030044
4319,7,Jits_ISO_8,3,5,80,127,3136059944
4319,7,Jits_ISO_8,0,5,63,98,3136750060
4319,7,Jits_ISO_8,1,5,56,103,3136760184
4319,7,Jits_ISO_8,2,1,48,38,3136778144
4319,7,Jits_ISO_8,3,5,80,127,3136850384
4319,7,Jits_ISO_8,0,1,48,37,3137549596
4319,7,Jits_ISO_8,1,5,63,98,3137570296
4319,7,Jits_ISO_8,2,5,56,103,3137649924
4319,7,Jits_ISO_8,3,5,80,127,3137653144
4319,7,Jits_ISO_8,0,1,48,33,3138317836
4319,7,Jits_ISO_8,1,5,80,127,3138329996
4319,7,Jits_ISO_8,2,5,63,98,3138349484
4319,7,Jits_ISO_8,3,5,56,103,3138409800
4319,7,Jits_ISO_8,0,1,48,31,3139046804
4319,7,Jits_ISO_8,1,5,56,103,3139169852
4319,7,Jits_ISO_8,2,5,63,98,3139190008
4319,7,Jits_ISO_8,3,5,80,127,3139193376
4319,7,Jits_ISO_8,0,1,48,28,3139903828
4319,7,Jits_ISO_8,1,5,63,98,3139910004
4319,7,Jits_ISO_8,2,5,80,127,3139989900
4319,7,Jits_ISO_8,3,5,56,103,3140000304
4319,7,Jits_ISO_8,0,1,48,30,3140709692
4319,7,Jits_ISO_8,1,5,63,98,3140730096
4319,7,Jits_ISO_8,2,5,56,103,3140749904
4319,7,Jits_ISO_8,3,5,80,127,3140799956
4319,7,Jits_ISO_8,0,1,48,33,3141503624
4319,7,Jits_ISO_8,1,5,80,127,3141529904
4319,7,Jits_ISO_8,2,5,63,98,3141569844
4319,7,Jits_ISO_8,3,5,56,103,3141590528
4319,7,Jits_ISO_8,0,1,48,46,3142273664
4319,7,Jits_ISO_8,1,5,56,103,3142369908
4319,7,Jits_ISO_8,2,5,63,98,3142380032
4319,7,Jits_ISO_8,3,5,80,127,3142400268
4319,7,Jits_ISO_8,0,1,48,44,3143073624
4319,7,Jits_ISO_8,1,5,56,103,3143099660
4319,7,Jits_ISO_8,2,5,63,98,3143189852
4319,7,Jits_ISO_8,3,5,80,127,3143250168
4319,7,Jits_ISO_8,0,1,48,43,3143911176
4319,7,Jits_ISO_8,1,5,80,127,3143930236
4319,7,Jits_ISO_8,2,5,56,103,3143939312
4319,7,Jits_ISO_8,3,5,63,98,3144010096
4319,7,Jits_ISO_8,0,1,48,49,3144731868
4319,7,Jits_ISO_8,1,5,63,98,3144759764
4319,7,Jits_ISO_8,2,5,80,127,3144849988
4319,7,Jits_ISO_8,3,5,56,103,3144860108
4319,7,Jits_ISO_8,0,5,63,98,3145500000
4319,7,Jits_ISO_8,1,1,48,53,3145515776
4319,7,Jits_ISO_8,2,5,80,127,3145550124
4319,7,Jits_ISO_8,3,5,56,103,3145609644
4319,7,Jits_ISO_8,0,1,48,51,3146292032
4319,7,Jits_ISO_8,1,1,48,36,3146328304
4319,7,Jits_ISO_8,2,5,56,103,3146329728
4319,7,Jits_ISO_8,3,5,80,127,3146379808
4319,7,Jits_ISO_8,4,5,63,98,3146400268
4319,7,Jits_ISO_8,0,5,56,103,3147099720
4319,7,Jits_ISO_8,1,1,48,44,3147100760
4319,7,Jits_ISO_8,2,5,80,127,3147160056
4319,7,Jits_ISO_8,3,5,63,98,3147229720
4319,7,Jits_ISO_8,0,1,48,44,3147848768
4319,7,Jits_ISO_8,1,5,56,103,3147900480
4319,7,Jits_ISO_8,2,5,80,127,3147929960
4319,7,Jits_ISO_8,3,5,63,98,3147959768
4319,7,Jits_ISO_8,0,1,48,40,3148592196
4319,7,Jits_ISO_8,1,5,56,103,3148739832
4319,7,Jits_ISO_8,2,5,80,127,3148760664
4319,7,Jits_ISO_8,3,5,63,98,3148819932
4319,7,Jits_ISO_8,0,1,48,46,3149497036
4319,7,Jits_ISO_8,1,5,80,127,3149619636
4319,7,Jits_ISO_8,2,5,56,103,3149629756
4319,7,Jits_ISO_8,3,5,63,98,3149640028
4319,7,Jits_ISO_8,0,1,48,51,3150380188
4319,7,Jits_ISO_8,1,5,56,103,3150381748
4319,7,Jits_ISO_8,2,1,48,38,3150413772
4319,7,Jits_ISO_8,3,5,80,127,3150420396
4319,7,Jits_ISO_8,4,5,63,98,3150450000
4319,7,Jits_ISO_8,0,1,48,49,3151146520
4319,7,Jits_ISO_8,1,5,56,103,3151149628
4319,7,Jits_ISO_8,2,5,63,98,3151180052
4319,7,Jits_ISO_8,3,5,80,127,3151220064
4319,7,Jits_ISO_8,0,5,80,127,3151900044
4319,7,Jits_ISO_8,1,1,48,44,3151912752
4319,7,Jits_ISO_8,2,5,63,98,3151950092
4319,7,Jits_ISO_8,3,5,56,103,3151969580
4319,7,Jits_ISO_8,0,1,48,49,3152686008
4319,7,Jits_ISO_8,1,5,56,103,3152729652
4319,7,Jits_ISO_8,2,5,80,127,3152800168
4319,7,Jits_ISO_8,3,5,63,98,3152859436
4319,7,Jits_ISO_8,0,1,48,47,3153514572
4319,7,Jits_ISO_8,1,5,80,127,3153530336
4319,7,Jits_ISO_8,2,5,63,98,3153620408
4319,7,Jits_ISO_8,3,5,56,103,3153639896
4319,7,Jits_ISO_8,0,5,63,98,3154349488
4319,7,Jits_ISO_8,1,5,56,103,3154369800
4319,7,Jits_ISO_8,2,5,80,127,3154409884
4319,7,Jits_ISO_8,3,1,48,47,3154414052
4319,7,Jits_ISO_8,0,5,80,127,3155110308
4319,7,Jits_ISO_8,1,5,63,98,3155129724
4319,7,Jits_ISO_8,2,1,48,40,3155188732
4319,7,Jits_ISO_8,3,5,56,103,3155209660
4319,7,Jits_ISO_8,0,5,63,98,3155899768
4319,7,Jits_ISO_8,1,1,48,47,3155934196
4319,7,Jits_ISO_8,2,5,56,103,3156010568
4319,7,Jits_ISO_8,3,5,80,127,3156013412
4319,7,Jits_ISO_8,0,5,63,98,3156719848
4319,7,Jits_ISO_8,1,5,56,103,3156730188
4319,7,Jits_ISO_8,2,5,80,127,3156733404
4319,7,Jits_ISO_8,3,1,48,44,3156742748
4319,7,Jits_ISO_8,0,5,56,103,3157500504
4319,7,Jits_ISO_8,1,1,48,41,3157518240
4319,7,Jits_ISO_8,2,5,80,127,3157620216
4319,7,Jits_ISO_8,3,5,63,98,3157659956
4319,7,Jits_ISO_8,0,1,48,43,3158291212
4319,7,Jits_ISO_8,1,5,56,103,3158319636
4319,7,Jits_ISO_8,2,5,80,127,3158400316
4319,7,Jits_ISO_8,3,5,63,98,3158419752
4319,7,Jits_ISO_8,0,5,56,103,3159120400
4319,7,Jits_ISO_8,1,5,63,98,3159229816
4319,7,Jits_ISO_8,2,5,80,127,3159233328
4319,7,Jits_ISO_8,3,1,48,49,3159241028
4319,7,Jits_ISO_8,4,1,48,37,3159276500
4319,7,Jits_ISO_8,0,5,56,103,3159949660
4319,7,Jits_ISO_8,1,1,48,44,3159959604
4319,7,Jits_ISO_8,2,5,80,127,3159980376
4319,7,Jits_ISO_8,3,5,63,98,3159999716
4319,7,Jits_ISO_8,0,5,63,98,3160729832
4319,7,Jits_ISO_8,1,5,56,103,3160740400
4319,7,Jits_ISO_8,2,5,80,127,3160749400
4319,7,Jits_ISO_8,3,1,48,37,3160769756
4319,7,Jits_ISO_8,0,5,80,127,3161519568
4319,7,Jits_ISO_8,1,1,48,37,3161526800
4319,7,Jits_ISO_8,2,5,56,103,3161569544
4319,7,Jits_ISO_8,3,5,63,98,3161609484
4319,7,Jits_ISO_8,0,1,48,40,3162183688
4319,7,Jits_ISO_8,1,5,80,127,3162339648
4319,7,Jits_ISO_8,2,5,63,98,3162360256
4319,7,Jits_ISO_8,3,5,56,103,3162410308
4319,7,Jits_ISO_8,0,5,80,127,3163149568
4319,7,Jits_ISO_8,1,1,48,35,3163173436
4319,7,Jits_ISO_8,2,5,56,103,3163180360
4319,7,Jits_ISO_8,3,5,63,98,3163250260
4319,7,Jits_ISO_8,0,5,56,103,3163999492
4319,7,Jits_ISO_8,1,5,80,127,3164009984
4319,7,Jits_ISO_8,2,5,63,98,3164049724
4319,7,Jits_ISO_8,0,5,56,103,3164710208
4319,7,Jits_ISO_8,1,5,63,98,3164729772
4319,7,Jits_ISO_8,2,5,80,127,3164800424
4319,7,Jits_ISO_8,3,1,48,50,3164802064
4319,7,Jits_ISO_8,0,1,48,46,3165464408
4319,7,Jits_ISO_8,1,5,63,98,3165529556
4319,7,Jits_ISO_8,2,5,80,127,3165589884
4319,7,Jits_ISO_8,3,5,56,103,3165610416
4319,7,Jits_ISO_8,0,5,80,127,3166320204
4319,7,Jits_ISO_8,1,1,48,46,3166330592
4319,7,Jits_ISO_8,2,5,56,103,3166349676
4319,7,Jits_ISO_8,3,5,63,98,3166380396
4319,7,Jits_ISO_8,0,1,48,45,3167089548
4319,7,Jits_ISO_8,1,5,56,103,3167119868
4319,7,Jits_ISO_8,2,5,63,98,3167180112
4319,7,Jits_ISO_8,3,5,80,127,3167239512
4319,7,Jits_ISO_8,0,1,48,41,3167920976
4319,7,Jits_ISO_8,1,5,80,127,3167940108
4319,7,Jits_ISO_8,2,5,56,103,3167960420
4319,7,Jits_ISO_8,3,5,63,98,3168030156
4319,7,Jits_ISO_8,0,5,80,127,3168739596
4319,7,Jits_ISO_8,1,1,48,37,3168742264
4319,7,Jits_ISO_8,2,5,63,98,3168760124
4319,7,Jits_ISO_8,3,5,56,103,3168789948
4319,7,Jits_ISO_8,0,5,80,127,3169530176
4319,7,Jits_ISO_8,1,1,48,43,3169537872
4319,7,Jits_ISO_8,2,5,63,98,3169549656
4319,7,Jits_ISO_8,3,5,56,103,3169610048
4319,7,Jits_ISO_8,0,1,48,37,3170316968
4319,7,Jits_ISO_8,1,5,80,127,3170330116
4319,7,Jits_ISO_8,2,5,56,103,3170430204
4319,7,Jits_ISO_8,3,5,63,98,3170460200
4319,7,Jits_ISO_8,0,5,63,98,3171119352
4319,7,Jits_ISO_8,1,1,48,31,3171154680
4319,7,Jits_ISO_8,2,5,80,127,3171169848
4319,7,Jits_ISO_8,3,5,56,103,3171190008
4319,7,Jits_ISO_8,0,1,48,30,3171947040
4319,7,Jits_ISO_8,1,5,80,127,3171960112
4319,7,Jits_ISO_8,2,5,56,103,3171990036
4319,7,Jits_ISO_8,3,5,63,98,3171993100
4319,7,Jits_ISO_8,0,1,48,32,3172774864
4319,7,Jits_ISO_8,1,5,63,98,3172789808
4319,7,Jits_ISO_8,2,5,56,103,3172829676
4319,7,Jits_ISO_8,3,5,80,127,3172849908
4319,7,Jits_ISO_8,0,5,80,127,3173530040
4319,7,Jits_ISO_8,1,1,48,24,3173570028
4319,7,Jits_ISO_8,2,5,63,98,3173610132
4319,7,Jits_ISO_8,3,5,56,103,3173650068
4319,7,Jits_ISO_8,0,5,63,98,3174350296
4319,7,Jits_ISO_8,1,1,48,31,3174386224
4319,7,Jits_ISO_8,2,5,80,127,3174429940
4319,7,Jits_ISO_8,3,5,56,103,3174449428
4319,7,Jits_ISO_8,0,1,48,31,3175078728
4319,7,Jits_ISO_8,1,5,56,103,3175190072
4319,7,Jits_ISO_8,2,5,63,98,3175200192
4319,7,Jits_ISO_8,3,5,80,127,3175240132
4319,7,Jits_ISO_8,0,5,56,103,3175909788
4319,7,Jits_ISO_8,1,5,80,127,3175912928
4319,7,Jits_ISO_8,2,1,48,32,3175964748
4319,7,Jits_ISO_8,3,5,63,98,3176049956
4319,7,Jits_ISO_8,0,5,56,103,3176700212
4319,7,Jits_ISO_8,1,5,63,98,3176790348
4319,7,Jits_ISO_8,2,1,48,34,3176796080
4319,7,Jits_ISO_8,3,5,80,127,3176860044
4319,7,Jits_ISO_8,0,1,48,40,3177502596
4319,7,Jits_ISO_8,1,5,63,98,3177579948
4319,7,Jits_ISO_8,2,5,80,127,3177583236
4319,7,Jits_ISO_8,3,5,56,103,3177640396
4319,7,Jits_ISO_8,0,1,48,52,3178363636
4319,7,Jits_ISO_8,1,5,80,127,3178419512
4319,7,Jits_ISO_8,2,5,56,103,3178440120
4319,7,Jits_ISO_8,3,5,63,98,3178450392
4319,7,Jits_ISO_8,0,5,56,103,3179130128
4319,7,Jits_ISO_8,1,5,63,98,3179139380
4319,7,Jits_ISO_8,2,5,80,127,3179210180
4319,7,Jits_ISO_8,3,1,48,41,3179227692
4319,7,Jits_ISO_8,0,1,48,37,3179913056
4319,7,Jits_ISO_8,1,5,80,127,3179929948
4319,7,Jits_ISO_8,2,5,56,103,3179980076
4319,7,Jits_ISO_8,3,5,63,98,3180030264
4319,7,Jits_ISO_8,0,1,48,45,3180677272
4319,7,Jits_ISO_8,1,5,56,103,3180809812
4319,7,Jits_ISO_8,2,5,63,98,3180819932
4319,7,Jits_ISO_8,3,5,80,127,3180860168
4319,7,Jits_ISO_8,0,1,48,34,3181545292
4319,7,Jits_ISO_8,1,5,56,103,3181550048
4319,7,Jits_ISO_8,2,5,63,98,3181589916
4319,7,Jits_ISO_8,3,5,80,127,3181639968
4319,7,Jits_ISO_8,0,5,80,127,3182309836
4319,7,Jits_ISO_8,1,5,56,103,3182359816
4319,7,Jits_ISO_8,2,1,48,37,3182367124
4319,7,Jits_ISO_8,3,5,63,98,3182380344
4319,7,Jits_ISO_8,0,5,80,127,3183119900
4319,7,Jits_ISO_8,1,1,48,32,3183171868
4319,7,Jits_ISO_8,2,5,63,98,3183180284
4319,7,Jits_ISO_8,3,5,56,103,3183260104
4319,7,Jits_ISO_8,0,5,80,127,3183899996
4319,7,Jits_ISO_8,1,5,56,103,3183939936
4319,7,Jits_ISO_8,2,5,63,98,3183960544
4319,7,Jits_ISO_8,0,1,48,55,3184673672
4319,7,Jits_ISO_8,1,1,48,40,3184704672
4319,7,Jits_ISO_8,2,5,56,103,3184749808
4319,7,Jits_ISO_8,3,5,80,127,3184760152
4319,7,Jits_ISO_8,4,5,63,98,3184800024
4319,7,Jits_ISO_8,0,1,48,46,3185541740
4319,7,Jits_ISO_8,1,5,56,103,3185620436
4319,7,Jits_ISO_8,2,5,63,98,3185660360
4319,7,Jits_ISO_8,3,5,80,127,3185663800
4319,7,Jits_ISO_8,0,5,63,98,3186309496
4319,7,Jits_ISO_8,1,5,80,127,3186349360
4319,7,Jits_ISO_8,2,1,48,28,3186403720
4319,7,Jits_ISO_8,3,5,56,103,3186419932
4319,7,Jits_ISO_8,0,5,63,98,3187099988
4319,7,Jits_ISO_8,1,1,48,36,3187122216
4319,7,Jits_ISO_8,2,5,56,103,3187179852
4319,7,Jits_ISO_8,3,5,80,127,3187240376
4319,7,Jits_ISO_8,0,1,48,37,3187893060
4319,7,Jits_ISO_8,1,5,80,127,3187909948
4319,7,Jits_ISO_8,2,5,63,98,3187960228
4319,7,Jits_ISO_8,3,5,56,103,3187989812
4319,7,Jits_ISO_8,0,5,56,103,3188699696
4319,7,Jits_ISO_8,1,5,63,98,3188749828
4319,7,Jits_ISO_8,2,5,80,127,3188759872
4319,7,Jits_ISO_8,3,1,48,38,3188846512
4319,7,Jits_ISO_8,0,1,48,45,3189505740
4319,7,Jits_ISO_8,1,5,56,103,3189509596
4319,7,Jits_ISO_8,2,5,63,98,3189620024
4319,7,Jits_ISO_8,3,5,80,127,3189639684
4319,7,Jits_ISO_8,0,1,48,42,3190294140
4319,7,Jits_ISO_8,1,5,63,98,3190310132
4319,7,Jits_ISO_8,2,5,80,127,3190360560
4319,7,Jits_ISO_8,3,5,56,103,3190449580
4319,7,Jits_ISO_8,0,5,63,98,3191099660
4319,7,Jits_ISO_8,1,1,48,40,3191115064
4319,7,Jits_ISO_8,2,5,80,127,3191129556
4319,7,Jits_ISO_8,3,5,56,103,3191219620
4319,7,Jits_ISO_8,0,5,63,98,3191899664
4319,7,Jits_ISO_8,1,5,56,103,3191909860
4319,7,Jits_ISO_8,2,1,48,42,3191956676
4319,7,Jits_ISO_8,3,5,80,127,3192010200
4319,7,Jits_ISO_8,0,1,48,44,3192652508
4319,7,Jits_ISO_8,1,5,63,98,3192799700
4319,7,Jits_ISO_8,2,5,80,127,3192830420
4319,7,Jits_ISO_8,3,5,56,103,3192859948
4319,7,Jits_ISO_8,0,1,48,37,3193596400
4319,7,Jits_ISO_8,1,5,80,127,3193619888
4319,7,Jits_ISO_8,2,5,63,98,3193630156
4319,7,Jits_ISO_8,3,5,56,103,3193659760
4319,7,Jits_ISO_8,0,5,80,127,3194320332
4319,7,Jits_ISO_8,1,5,63,98,3194339672
4319,7,Jits_ISO_8,2,5,56,103,3194389872
4319,7,Jits_ISO_8,3,1,48,32,3194396428
4319,7,Jits_ISO_8,0,1,48,40,3195070796
4319,7,Jits_ISO_8,1,5,63,98,3195149792
4319,7,Jits_ISO_8,2,5,80,127,3195210020
4319,7,Jits_ISO_8,3,5,56,103,3195229432
4319,7,Jits_ISO_8,0,1,48,43,3195885336
4319,7,Jits_ISO_8,1,5,63,98,3195909420
4319,7,Jits_ISO_8,2,5,56,103,3195959552
4319,7,Jits_ISO_8,3,5,80,127,3195970044
4319,7,Jits_ISO_8,0,1,48,45,3196655824
4319,7,Jits_ISO_8,1,5,56,103,3196739924
4319,7,Jits_ISO_8,2,5,80,127,3196750416
4319,7,Jits_ISO_8,3,5,63,98,3196849476
4319,7,Jits_ISO_8,0,5,80,127,3197499704
4319,7,Jits_ISO_8,1,1,48,45,3197507236
4319,7,Jits_ISO_8,2,5,63,98,3197509896
4319,7,Jits_ISO_8,3,5,56,103,3197659448
4319,7,Jits_ISO_8,0,1,48,38,3198246860
4319,7,Jits_ISO_8,1,5,63,98,3198309836
4319,7,Jits_ISO_8,2,5,80,127,3198349636
4319,7,Jits_ISO_8,3,5,56,103,3198429656
4319,7,Jits_ISO_8,0,1,48,44,3199010172
4319,7,Jits_ISO_8,1,5,56,103,3199100400
4319,7,Jits_ISO_8,2,5,80,127,3199199540
4319,7,Jits_ISO_8,3,5,63,98,3199220372
4319,7,Jits_ISO_8,0,1,48,41,3199909480
4319,7,Jits_ISO_8,1,5,80,127,3199960376
4319,7,Jits_ISO_8,2,5,56,103,3199969600
4319,7,Jits_ISO_8,3,5,63,98,3200059716
4319,7,Jits_ISO_8,0,1,48,40,3200669552
4319,7,Jits_ISO_8,1,5,56,103,3200760308
4319,7,Jits_ISO_8,2,5,63,98,3200779556
4319,7,Jits_ISO_8,3,5,80,127,3200859428
4319,7,Jits_ISO_8,0,1,48,40,3201497368
4319,7,Jits_ISO_8,1,5,63,98,3201509596
4319,7,Jits_ISO_8,2,5,56,103,3201599868
4319,7,Jits_ISO_8,3,5,80,127,3201602856
4319,7,Jits_ISO_8,0,1,48,30,3202316148
4319,7,Jits_ISO_8,1,5,56,103,3202340236
4319,7,Jits_ISO_8,2,5,80,127,3202399656
4319,7,Jits_ISO_8,3,5,63,98,3202409836
4319,7,Jits_ISO_8,0,5,80,127,3203190300
4319,7,Jits_ISO_8,1,5,56,103,3203200268
4319,7,Jits_ISO_8,2,5,63,98,3203203436
4319,7,Jits_ISO_8,3,1,48,32,3203317200
4319,7,Jits_ISO_8,0,5,56,103,3203950304
4319,7,Jits_ISO_8,1,5,80,127,3203960280
4319,7,Jits_ISO_8,2,5,63,98,3203979644
4319,7,Jits_ISO_8,3,1,48,39,3203995340
4319,7,Jits_ISO_8,0,5,63,98,3204720060
4319,7,Jits_ISO_8,1,5,80,127,3204780480
4319,7,Jits_ISO_8,2,1,48,43,3204781372
4319,7,Jits_ISO_8,3,5,56,103,3204829404
4319,7,Jits_ISO_8,0,1,48,49,3205533544
4319,7,Jits_ISO_8,1,5,63,98,3205599660
4319,7,Jits_ISO_8,2,5,56,103,3205609784
4319,7,Jits_ISO_8,3,5,80,127,3205660044
4319,7,Jits_ISO_8,0,5,63,98,3206300104
4319,7,Jits_ISO_8,1,5,80,127,3206319520
4319,7,Jits_ISO_8,2,5,56,103,3206329788
4319,7,Jits_ISO_8,3,1,48,52,3206336048
4319,7,Jits_ISO_8,0,1,48,50,3207088684
4319,7,Jits_ISO_8,1,5,63,98,3207099716
4319,7,Jits_ISO_8,2,5,80,127,3207103228
4319,7,Jits_ISO_8,3,5,56,103,3207139656
4319,7,Jits_ISO_8,0,1,48,45,3207881248
4319,7,Jits_ISO_8,1,5,63,98,3207970284
4319,7,Jits_ISO_8,2,5,80,127,3207999796
4319,7,Jits_ISO_8,3,5,56,103,3208010216
4319,7,Jits_ISO_8,0,5,56,103,3208719580
4319,7,Jits_ISO_8,1,1,48,42,3208726360
4319,7,Jits_ISO_8,2,5,80,127,3208749400
4319,7,Jits_ISO_8,3,5,63,98,3208780048
4319,7,Jits_ISO_8,0,1,48,37,3209457364
4319,7,Jits_ISO_8,1,5,63,98,3209619776
4319,7,Jits_ISO_8,2,5,56,103,3209659716
4319,7,Jits_ISO_8,3,5,80,127,3209662932
4319,7,Jits_ISO_8,0,5,80,127,3210320208
4319,7,Jits_ISO_8,1,1,48,46,3210327904
4319,7,Jits_ISO_8,2,5,56,103,3210400172
4319,7,Jits_ISO_8,3,5,63,98,3210450360
4319,7,Jits_ISO_8,0,5,80,127,3211099404
4319,7,Jits_ISO_8,1,5,56,103,3211120088
4319,7,Jits_ISO_8,2,1,48,47,3211189468
4319,7,Jits_ISO_8,3,5,63,98,3211210088
4319,7,Jits_ISO_8,0,1,48,43,3211910052
4319,7,Jits_ISO_8,1,5,80,127,3211940200
4319,7,Jits_ISO_8,2,5,63,98,3211980140
4319,7,Jits_ISO_8,3,5,56,103,3212020136
4319,7,Jits_ISO_8,0,1,48,35,3212672896
4319,7,Jits_ISO_8,1,5,63,98,3212710240
4319,7,Jits_ISO_8,2,5,80,127,3212770540
4319,7,Jits_ISO_8,3,5,56,103,3212800292
4319,7,Jits_ISO_8,0,5,56,103,3213509944
4319,7,Jits_ISO_8,1,5,80,127,3213539920
4319,7,Jits_ISO_8,2,1,48,39,3213547152
4319,7,Jits_ISO_8,3,5,63,98,3213629896
4319,7,Jits_ISO_8,0,1,48,44,3214286028
4319,7,Jits_ISO_8,1,5,56,103,3214320072
4319,7,Jits_ISO_8,2,5,80,127,3214429528
4319,7,Jits_ISO_8,3,5,63,98,3214460248
4319,7,Jits_ISO_8,0,1,48,35,3215137280
4319,7,Jits_ISO_8,1,5,56,103,3215169912
4319,7,Jits_ISO_8,2,5,63,98,3215230376
4319,7,Jits_ISO_8,3,5,80,127,3215259988
4319,7,Jits_ISO_8,0,5,56,103,3215940036
4319,7,Jits_ISO_8,1,1,48,38,3215967888
4319,7,Jits_ISO_8,2,5,63,98,3216009664
4319,7,Jits_ISO_8,3,5,80,127,3216029976
4319,7,Jits_ISO_8,0,5,80,127,3216709944
4319,7,Jits_ISO_8,1,5,63,98,3216729508
4319,7,Jits_ISO_8,2,1,48,30,3216743408
4319,7,Jits_ISO_8,3,5,56,103,3216779724
4319,7,Jits_ISO_8,0,9999,9999,9999,3121977440
4319,7,Jits_ISO_8,1,9999,9999,9999,3122777196
4319,7,Jits_ISO_8,2,9999,9999,9999,3123577956
4319,7,Jits_ISO_8,3,9999,9999,9999,3124377708
4319,7,Jits_ISO_8,4,9999,9999,9999,3125177428
4319,7,Jits_ISO_8,5,9999,9999,9999,3125977212
4319,7,Jits_ISO_8,6,9999,9999,9999,3126777968
4319,7,Jits_ISO_8,7,9999,9999,9999,3127577692
4319,7,Jits_ISO_8,8,9999,9999,9999,3128377408
4319,7,Jits_ISO_8,9,9999,9999,9999,3129177172
4319,7,Jits_ISO_8,10,9999,9999,9999,3129977936
4319,7,Jits_ISO_8,11,9999,9999,9999,3130777672
4319,7,Jits_ISO_8,12,9999,9999,9999,3131577464
4319,7,Jits_ISO_8,13,9999,9999,9999,3132377172
4319,7,Jits_ISO_8,14,9999,9999,9999,3133177916
4319,7,Jits_ISO_8,15,9999,9999,9999,3133977692
4319,7,Jits_ISO_8,16,9999,9999,9999,3134777464
4319,7,Jits_ISO_8,17,9999,9999,9999,3135577180
4319,7,Jits_ISO_8,18,9999,9999,9999,3136377940
4319,7,Jits_ISO_8,19,9999,9999,9999,3137177680
4319,7,Jits_ISO_8,20,9999,9999,9999,3137977464
4319,7,Jits_ISO_8,21,9999,9999,9999,3138777176
4319,7,Jits_ISO_8,22,9999,9999,9999,3139577928
4319,7,Jits_ISO_8,23,9999,9999,9999,3140377712
4319,7,Jits_ISO_8,24,9999,9999,9999,3141177424
4319,7,Jits_ISO_8,25,9999,9999,9999,3141977208
4319,7,Jits_ISO_8,26,9999,9999,9999,3142777968
4319,7,Jits_ISO_8,27,9999,9999,9999,3143577704
4319,7,Jits_ISO_8,28,9999,9999,9999,3144377412
4319,7,Jits_ISO_8,29,9999,9999,9999,3145177208
4319,7,Jits_ISO_8,30,9999,9999,9999,3145977964
4319,7,Jits_ISO_8,31,9999,9999,9999,3146777660
4319,7,Jits_ISO_8,32,9999,9999,9999,3147577460
4319,7,Jits_ISO_8,33,9999,9999,9999,3148377176
4319,7,Jits_ISO_8,34,9999,9999,9999,3149177936
4319,7,Jits_ISO_8,35,9999,9999,9999,3149977676
4319,7,Jits_ISO_8,36,9999,9999,9999,3150777448
4319,7,Jits_ISO_8,37,9999,9999,9999,3151577180
4319,7,Jits_ISO_8,38,9999,9999,9999,3152377928
4319,7,Jits_ISO_8,39,9999,9999,9999,3153177656
4319,7,Jits_ISO_8,40,9999,9999,9999,3153977444
4319,7,Jits_ISO_8,41,9999,9999,9999,3154777156
4319,7,Jits_ISO_8,42,9999,9999,9999,3155577908
4319,7,Jits_ISO_8,43,9999,9999,9999,3156377724
4319,7,Jits_ISO_8,44,9999,9999,9999,3157177416
4319,7,Jits_ISO_8,45,9999,9999,9999,3157977204
4319,7,Jits_ISO_8,46,9999,9999,9999,3158777976
4319,7,Jits_ISO_8,47,9999,9999,9999,3159577660
4319,7,Jits_ISO_8,48,9999,9999,9999,3160377404
4319,7,Jits_ISO_8,49,9999,9999,9999,3161177200
4319,7,Jits_ISO_8,50,9999,9999,9999,3161977952
4319,7,Jits_ISO_8,51,9999,9999,9999,3162777700
4319,7,Jits_ISO_8,52,9999,9999,9999,3163577412
4319,7,Jits_ISO_8,53,9999,9999,9999,3164377164
4319,7,Jits_ISO_8,54,9999,9999,9999,3165177980
4319,7,Jits_ISO_8,55,9999,9999,9999,3165977708
4319,7,Jits_ISO_8,56,9999,9999,9999,3166777412
4319,7,Jits_ISO_8,57,9999,9999,9999,3167577140
4319,7,Jits_ISO_8,58,9999,9999,9999,3168377972
4319,7,Jits_ISO_8,59,9999,9999,9999,3169177700
4319,7,Jits_ISO_8,60,9999,9999,9999,3169977424
4319,7,Jits_ISO_8,61,9999,9999,9999,3170777152
4319,7,Jits_ISO_8,62,9999,9999,9999,3171577908
4319,7,Jits_ISO_8,63,9999,9999,9999,3172377688
4319,7,Jits_ISO_8,64,9999,9999,9999,3173177408
4319,7,Jits_ISO_8,65,9999,9999,9999,3173977192
4319,7,Jits_ISO_8,66,9999,9999,9999,3174777968
4319,7,Jits_ISO_8,67,9999,9999,9999,3175577708
4319,7,Jits_ISO_8,68,9999,9999,9999,3176377404
4319,7,Jits_ISO_8,69,9999,9999,9999,3177177204
4319,7,Jits_ISO_8,70,9999,9999,9999,3177977944
4319,7,Jits_ISO_8,71,9999,9999,9999,3178777668
4319,7,Jits_ISO_8,72,9999,9999,9999,3179577452
4319,7,Jits_ISO_8,73,9999,9999,9999,3180377180
4319,7,Jits_ISO_8,74,9999,9999,9999,3181177944
4319,7,Jits_ISO_8,75,9999,9999,9999,3181977680
4319,7,Jits_ISO_8,76,9999,9999,9999,3182777460
4319,7,Jits_ISO_8,77,9999,9999,9999,3183577188
4319,7,Jits_ISO_8,78,9999,9999,9999,3184377976
4319,7,Jits_ISO_8,79,9999,9999,9999,3185177656
4319,7,Jits_ISO_8,80,9999,9999,9999,3185977460
4319,7,Jits_ISO_8,81,9999,9999,9999,3186777172
4319,7,Jits_ISO_8,82,9999,9999,9999,3187577928
4319,7,Jits_ISO_8,83,9999,9999,9999,3188377656
4319,7,Jits_ISO_8,84,9999,9999,9999,3189177432
4319,7,Jits_ISO_8,85,9999,9999,9999,3189977160
4319,7,Jits_ISO_8,86,9999,9999,9999,3190777916
4319,7,Jits_ISO_8,87,9999,9999,9999,3191577696
4319,7,Jits_ISO_8,88,9999,9999,9999,3192377404
4319,7,Jits_ISO_8,89,9999,9999,9999,3193177196
4319,7,Jits_ISO_8,90,9999,9999,9999,3193977964
4319,7,Jits_ISO_8,91,9999,9999,9999,3194777692
4319,7,Jits_ISO_8,92,9999,9999,9999,3195577420
4319,7,Jits_ISO_8,93,9999,9999,9999,3196377200
4319,7,Jits_ISO_8,94,9999,9999,9999,3197177960
4319,7,Jits_ISO_8,95,9999,9999,9999,3197977668
4319,7,Jits_ISO_8,96,9999,9999,9999,3198777468
4319,7,Jits_ISO_8,97,9999,9999,9999,3199577180
4319,7,Jits_ISO_8,98,9999,9999,9999,3200377936
4319,7,Jits_ISO_8,99,9999,9999,9999,3201177672
4319,7,Jits_ISO_8,100,9999,9999,9999,3201977444
4319,7,Jits_ISO_8,101,9999,9999,9999,3202777156
4319,7,Jits_ISO_8,102,9999,9999,9999,3203577976
4319,7,Jits_ISO_8,103,9999,9999,9999,3204377700
4319,7,Jits_ISO_8,104,9999,9999,9999,3205177428
4319,7,Jits_ISO_8,105,9999,9999,9999,3205977140
4319,7,Jits_ISO_8,106,9999,9999,9999,3206777964
4319,7,Jits_ISO_8,107,9999,9999,9999,3207577672
4319,7,Jits_ISO_8,108,9999,9999,9999,3208377456
4319,7,Jits_ISO_8,109,9999,9999,9999,3209177164
4319,7,Jits_ISO_8,110,9999,9999,9999,3209977936
4319,7,Jits_ISO_8,111,9999,9999,9999,3210777720
4319,7,Jits_ISO_8,112,9999,9999,9999,3211577440
4319,7,Jits_ISO_8,113,9999,9999,9999,3212377164
4319,7,Jits_ISO_8,114,9999,9999,9999,3213177920
4319,7,Jits_ISO_8,115,9999,9999,9999,3213977720
4319,7,Jits_ISO_8,116,9999,9999,9999,3214777448
4319,7,Jits_ISO_8,117,9999,9999,9999,3215577164
4319,7,Jits_ISO_8,118,9999,9999,9999,3216377924
4319,7,Jits_ISO_8,119,9999,9999,9999,3217177716
4320,5,ISIP_5,0,5,42,127,3282030220
4320,5,ISIP_5,1,5,42,127,3282529636
4320,5,ISIP_5,2,5,42,127,3283030324
4320,5,ISIP_5,3,5,42,127,3283530044
4320,5,ISIP_5,4,5,42,127,3284029760
4320,5,ISIP_5,5,1,48,49,3284051872
4320,5,ISIP_5,6,5,42,127,3284529452
4320,5,ISIP_5,7,1,48,48,3284564060
4320,5,ISIP_5,8,5,42,127,3285030192
4320,5,ISIP_5,9,1,48,43,3285056052
4320,5,ISIP_5,10,5,42,127,3285530184
4320,5,ISIP_5,11,1,48,40,3285544896
4320,5,ISIP_5,12,5,42,127,3286029656
4320,5,ISIP_5,13,1,48,43,3286050504
4320,5,ISIP_5,14,5,42,127,3286530400
4320,5,ISIP_5,15,1,48,39,3286542716
4320,5,ISIP_5,16,5,42,127,3287030092
4320,5,ISIP_5,17,1,48,40,3287036428
4320,5,ISIP_5,18,1,48,40,3287524960
4320,5,ISIP_5,19,5,42,127,3287529780
4320,5,ISIP_5,20,1,48,36,3288021584
4320,5,ISIP_5,21,5,42,127,3288029400
4320,5,ISIP_5,22,1,48,35,3288521728
4320,5,ISIP_5,23,5,42,127,3288530144
4320,5,ISIP_5,24,1,48,40,3289009160
4320,5,ISIP_5,25,5,42,127,3289030060
4320,5,ISIP_5,26,1,48,41,3289502420
4320,5,ISIP_5,27,5,42,127,3289529832
4320,5,ISIP_5,28,1,48,38,3290011016
4320,5,ISIP_5,29,5,42,127,3290029524
4320,5,ISIP_5,30,1,48,42,3290510488
4320,5,ISIP_5,31,5,42,127,3290530116
4320,5,ISIP_5,32,1,48,47,3291008684
4320,5,ISIP_5,33,5,42,127,3291029888
4320,5,ISIP_5,34,5,42,127,3291529664
4320,5,ISIP_5,35,1,48,45,3291531076
4320,5,ISIP_5,36,1,48,47,3292030180
4320,5,ISIP_5,37,5,42,127,3292031816
4320,5,ISIP_5,38,5,42,127,3292530000
4320,5,ISIP_5,39,1,48,46,3292539956
4320,5,ISIP_5,40,5,42,127,3293029992
4320,5,ISIP_5,41,1,48,46,3293042460
4320,5,ISIP_5,42,5,42,127,3293529392
4320,5,ISIP_5,43,1,48,40,3293541712
4320,5,ISIP_5,44,5,42,127,3294030208
4320,5,ISIP_5,45,1,48,43,3294042156
4320,5,ISIP_5,46,5,42,127,3294529828
4320,5,ISIP_5,47,1,48,39,3294533316
4320,5,ISIP_5,48,5,42,127,3295029672
4320,5,ISIP_5,49,1,48,41,3295062784
4320,5,ISIP_5,50,5,42,127,3295530340
4320,5,ISIP_5,51,1,48,45,3295578488
4320,5,ISIP_5,52,5,42,127,3296030032
4320,5,ISIP_5,53,1,48,45,3296036220
4320,5,ISIP_5,54,5,42,127,3296529876
4320,5,ISIP_5,55,1,48,48,3296537860
4320,5,ISIP_5,56,1,48,44,3297021976
4320,5,ISIP_5,57,5,42,127,3297029416
4320,5,ISIP_5,58,5,42,127,3297530088
4320,5,ISIP_5,59,1,48,39,3297532028
4320,5,ISIP_5,60,5,42,127,3298029860
4320,5,ISIP_5,61,1,48,40,3298033204
4320,5,ISIP_5,62,1,48,33,3298522336
4320,5,ISIP_5,63,5,42,127,3298529772
4320,5,ISIP_5,64,5,42,127,3299030520
4320,5,ISIP_5,65,1,48,38,3299031488
4320,5,ISIP_5,66,1,48,46,3299498540
4320,5,ISIP_5,67,5,42,127,3299530136
4320,5,ISIP_5,68,1,48,44,3300012220
4320,5,ISIP_5,69,5,42,127,3300029908
4320,5,ISIP_5,70,5,42,127,3300529608
4320,5,ISIP_5,71,1,48,45,3300534220
4320,5,ISIP_5,72,5,42,127,3301030276
4320,5,ISIP_5,73,1,48,42,3301040276
4320,5,ISIP_5,74,1,48,43,3301527924
4320,5,ISIP_5,75,5,42,127,3301529888
4320,5,ISIP_5,76,1,48,35,3302023416
4320,5,ISIP_5,77,1,48,34,3302780004
4320,5,ISIP_5,78,1,48,35,3303342448
4320,5,ISIP_5,79,1,48,38,3303827396
4320,5,ISIP_5,80,1,48,36,3304323800
4320,5,ISIP_5,81,1,48,38,3304816136
4320,5,ISIP_5,82,1,48,41,3305314252
4320,5,ISIP_5,83,1,48,42,3305816412
4320,5,ISIP_5,84,1,48,36,3306316700
4320,5,ISIP_5,85,1,48,40,3306816916
4320,5,ISIP_5,86,1,48,41,3307298804
4320,5,ISIP_5,87,1,48,42,3307797900
4320,5,ISIP_5,88,1,48,40,3308266172
4320,5,ISIP_5,89,1,48,45,3308761376
4320,5,ISIP_5,90,1,48,42,3309244464
4320,5,ISIP_5,91,1,48,48,3309717752
4320,5,ISIP_5,92,1,48,48,3310210708
4320,5,ISIP_5,93,1,48,48,3310701548
4320,5,ISIP_5,94,1,48,45,3311198096
4320,5,ISIP_5,95,1,48,49,3311694644
4320,5,ISIP_5,96,1,48,50,3312168904
4320,5,ISIP_5,97,1,48,48,3312666728
4320,5,ISIP_5,98,1,48,49,3313155348
4320,5,ISIP_5,99,1,48,49,3313658328
4320,5,ISIP_5,100,1,48,48,3314148000
4320,5,ISIP_5,101,1,48,51,3314642824
4320,5,ISIP_5,102,1,48,48,3315149548
4320,5,ISIP_5,103,1,48,51,3315640788
4320,5,ISIP_5,104,1,48,48,3316133296
4320,5,ISIP_5,105,1,48,50,3316628128
4320,5,ISIP_5,106,1,48,46,3317130288
4320,5,ISIP_5,107,1,48,47,3317631396
4320,5,ISIP_5,108,1,48,44,3318113108
4320,5,ISIP_5,109,1,48,43,3318630304
4320,5,ISIP_5,110,1,48,51,3319112344
4320,5,ISIP_5,111,1,48,46,3319607400
4320,5,ISIP_5,112,1,48,49,3320080308
4320,5,ISIP_5,113,1,48,51,3320587928
4320,5,ISIP_5,114,1,48,52,3321084552
4320,5,ISIP_5,115,1,48,48,3321567344
4320,5,ISIP_5,116,1,48,48,3322059180
4320,5,ISIP_5,117,1,48,48,3322547948
4320,5,ISIP_5,118,1,48,50,3323029764
4320,5,ISIP_5,119,1,48,50,3323553608
4320,5,ISIP_5,120,1,48,47,3324067808
4320,5,ISIP_5,121,1,48,45,3324559652
4320,5,ISIP_5,122,1,48,49,3325011652
4320,5,ISIP_5,123,1,48,44,3325515756
4320,5,ISIP_5,124,1,48,50,3325980896
4320,5,ISIP_5,125,1,48,47,3326474072
4320,5,ISIP_5,126,1,48,46,3326974736
4320,5,ISIP_5,127,1,48,46,3327444436
4320,5,ISIP_5,128,1,48,48,3327947120
4320,5,ISIP_5,129,1,48,48,3328463788
4320,5,ISIP_5,130,1,48,57,3328991004
4320,5,ISIP_5,131,1,48,49,3329510364
4320,5,ISIP_5,132,1,48,54,3330015444
4320,5,ISIP_5,133,1,48,51,3330498228
4320,5,ISIP_5,134,1,48,48,3331031444
4320,5,ISIP_5,135,1,48,48,3331556116
4320,5,ISIP_5,136,1,48,51,3332067172
4320,5,ISIP_5,137,1,48,57,3332594388
4320,5,ISIP_5,138,1,48,58,3333137016
4320,5,ISIP_5,139,1,48,49,3333658848
4320,5,ISIP_5,140,1,48,53,3334178284
4320,5,ISIP_5,141,1,48,55,3334674008
4320,5,ISIP_5,142,1,48,42,3334702412
4320,5,ISIP_5,143,1,48,53,3335188492
4320,5,ISIP_5,144,1,48,53,3335671876
4320,5,ISIP_5,145,1,48,52,3336169620
4320,5,ISIP_5,146,1,48,51,3336645300
4320,5,ISIP_5,147,1,48,51,3337125616
4320,5,ISIP_5,148,1,48,48,3337579584
4320,5,ISIP_5,149,1,48,52,3338057280
4320,5,ISIP_5,150,1,48,53,3338523000
4320,5,ISIP_5,151,1,48,49,3339021472
4320,5,ISIP_5,152,1,48,53,3339498876
4320,5,ISIP_5,153,1,48,52,3339971260
4320,5,ISIP_5,154,1,48,50,3340436624
4320,5,ISIP_5,155,1,48,50,3340911452
4320,5,ISIP_5,156,1,48,50,3341391696
4320,5,ISIP_5,157,1,48,55,3341850100
4320,5,ISIP_5,158,1,48,43,3341880524
4320,5,ISIP_5,159,1,48,54,3342342808
4320,5,ISIP_5,160,1,48,56,3342838316
4320,5,ISIP_5,161,1,48,48,3343323640
4320,5,ISIP_5,162,1,48,47,3343800292
4320,5,ISIP_5,163,1,48,48,3344275376
4320,5,ISIP_5,164,1,48,53,3344755072
4320,5,ISIP_5,165,1,48,49,3345254464
4320,5,ISIP_5,166,1,48,48,3345715560
4320,5,ISIP_5,167,1,48,52,3346195876
4320,5,ISIP_5,168,1,48,47,3346661608
4320,5,ISIP_5,169,1,48,55,3347184632
4320,5,ISIP_5,170,1,48,59,3347667568
4320,5,ISIP_5,171,1,48,57,3348160156
4320,5,ISIP_5,172,1,48,40,3348192220
4320,5,ISIP_5,173,1,48,49,3348642544
4320,5,ISIP_5,174,1,48,53,3349109376
4320,5,ISIP_5,175,1,48,56,3349607944
4320,5,ISIP_5,176,1,48,43,3349635696
4320,5,ISIP_5,177,1,48,55,3350086292
4320,5,ISIP_5,178,1,48,52,3350554868
4320,5,ISIP_5,179,1,48,53,3351023128
4320,5,ISIP_5,180,1,48,52,3351476672
4320,5,ISIP_5,181,1,48,54,3351939036
4320,5,ISIP_5,182,1,48,51,3352401824
4320,5,ISIP_5,183,1,48,51,3352867932
4320,5,ISIP_5,184,1,48,55,3353318256
4320,5,ISIP_5,185,1,48,54,3353779052
4320,5,ISIP_5,186,1,48,51,3354251064
4320,5,ISIP_5,187,1,48,54,3354703832
4320,5,ISIP_5,188,1,48,53,3355161788
4320,5,ISIP_5,189,1,48,53,3355617872
4320,5,ISIP_5,190,1,48,51,3356094220
4320,5,ISIP_5,191,1,48,53,3356557568
4320,5,ISIP_5,192,1,48,53,3357028204
4320,5,ISIP_5,193,1,48,54,3357486224
4320,5,ISIP_5,194,1,48,54,3357937744
4320,5,ISIP_5,195,1,48,54,3358398988
4320,5,ISIP_5,196,1,48,51,3358875412
4320,5,ISIP_5,197,1,48,51,3359296844
4320,5,ISIP_5,198,1,48,51,3359766688
4320,5,ISIP_5,199,1,48,55,3360205992
4320,5,ISIP_5,200,1,48,56,3360664168
4320,5,ISIP_5,201,1,48,57,3361104220
4320,5,ISIP_5,202,1,48,46,3361129032
4320,5,ISIP_5,203,1,48,51,3361603512
4320,5,ISIP_5,0,9999,9999,9999,3282027636
4320,5,ISIP_5,1,9999,9999,9999,3282527348
4320,5,ISIP_5,2,9999,9999,9999,3283028040
4320,5,ISIP_5,3,9999,9999,9999,3283527756
4320,5,ISIP_5,4,9999,9999,9999,3284027472
4320,5,ISIP_5,5,9999,9999,9999,3284527168
4320,5,ISIP_5,6,9999,9999,9999,3285027908
4320,5,ISIP_5,7,9999,9999,9999,3285527676
4320,5,ISIP_5,8,9999,9999,9999,3286027372
4320,5,ISIP_5,9,9999,9999,9999,3286528112
4320,5,ISIP_5,10,9999,9999,9999,3287027808
4320,5,ISIP_5,11,9999,9999,9999,3287527496
4320,5,ISIP_5,12,9999,9999,9999,3288027188
4320,5,ISIP_5,13,9999,9999,9999,3288527932
4320,5,ISIP_5,14,9999,9999,9999,3289027700
4320,5,ISIP_5,15,9999,9999,9999,3289527396
4320,5,ISIP_5,16,9999,9999,9999,3290027092
4320,5,ISIP_5,17,9999,9999,9999,3290527832
4320,5,ISIP_5,18,9999,9999,9999,3291027528
4320,5,ISIP_5,19,9999,9999,9999,3291527228
4320,5,ISIP_5,20,9999,9999,9999,3292027968
4320,5,ISIP_5,21,9999,9999,9999,3292527712
4320,5,ISIP_5,22,9999,9999,9999,3293027408
4320,5,ISIP_5,23,9999,9999,9999,3293527104
4320,5,ISIP_5,24,9999,9999,9999,3294027848
4320,5,ISIP_5,25,9999,9999,9999,3294527540
4320,5,ISIP_5,26,9999,9999,9999,3295027312
4320,5,ISIP_5,27,9999,9999,9999,3295528052
4320,5,ISIP_5,28,9999,9999,9999,3296027748
4320,5,ISIP_5,29,9999,9999,9999,3296527440
4320,5,ISIP_5,30,9999,9999,9999,3297027128
4320,5,ISIP_5,31,9999,9999,9999,3297527876
4320,5,ISIP_5,32,9999,9999,9999,3298027576
4320,5,ISIP_5,33,9999,9999,9999,3298527336
4320,5,ISIP_5,34,9999,9999,9999,3299028088
4320,5,ISIP_5,35,9999,9999,9999,3299527776
4320,5,ISIP_5,36,9999,9999,9999,3300027472
4320,5,ISIP_5,37,9999,9999,9999,3300527172
4320,5,ISIP_5,38,9999,9999,9999,3301027912
4320,5,ISIP_5,39,9999,9999,9999,3301527640
4320,5,ISIP_5,40,9999,9999,9999,3302027372
4320,5,ISIP_5,41,9999,9999,9999,3302528116
4320,5,ISIP_5,42,9999,9999,9999,3303027780
4320,5,ISIP_5,43,9999,9999,9999,3303527548
4320,5,ISIP_5,44,9999,9999,9999,3304027236
4320,5,ISIP_5,45,9999,9999,9999,3304527976
4320,5,ISIP_5,46,9999,9999,9999,3305027664
4320,5,ISIP_5,47,9999,9999,9999,3305527356
4320,5,ISIP_5,48,9999,9999,9999,3306027120
4320,5,ISIP_5,49,9999,9999,9999,3306527856
4320,5,ISIP_5,50,9999,9999,9999,3307027548
4320,5,ISIP_5,51,9999,9999,9999,3307527240
4320,5,ISIP_5,52,9999,9999,9999,3308027976
4320,5,ISIP_5,53,9999,9999,9999,3308527668
4320,5,ISIP_5,54,9999,9999,9999,3309027432
4320,5,ISIP_5,55,9999,9999,9999,3309527124
4320,5,ISIP_5,56,9999,9999,9999,3310027864
4320,5,ISIP_5,57,9999,9999,9999,3310527556
4320,5,ISIP_5,58,9999,9999,9999,3311027320
4320,5,ISIP_5,59,9999,9999,9999,3311528056
4320,5,ISIP_5,60,9999,9999,9999,3312027748
4320,5,ISIP_5,61,9999,9999,9999,3312527436
4320,5,ISIP_5,62,9999,9999,9999,3313027128
4320,5,ISIP_5,63,9999,9999,9999,3313527916
4320,5,ISIP_5,64,9999,9999,9999,3314027608
4320,5,ISIP_5,65,9999,9999,9999,3314527300
4320,5,ISIP_5,66,9999,9999,9999,3315028036
4320,5,ISIP_5,67,9999,9999,9999,3315527804
4320,5,ISIP_5,68,9999,9999,9999,3316027492
4320,5,ISIP_5,69,9999,9999,9999,3316527184
4320,5,ISIP_5,70,9999,9999,9999,3317027920
4320,5,ISIP_5,71,9999,9999,9999,3317527612
4320,5,ISIP_5,72,9999,9999,9999,3318027380
4320,5,ISIP_5,73,9999,9999,9999,3318528116
4320,5,ISIP_5,74,9999,9999,9999,3319027808
4320,5,ISIP_5,75,9999,9999,9999,3319527500
4320,5,ISIP_5,76,9999,9999,9999,3320027188
4320,5,ISIP_5,77,9999,9999,9999,3320527924
4320,5,ISIP_5,78,9999,9999,9999,3321027692
4320,5,ISIP_5,79,9999,9999,9999,3321527384
4320,5,ISIP_5,80,9999,9999,9999,3322027076
4320,5,ISIP_5,81,9999,9999,9999,3322527812
4320,5,ISIP_5,82,9999,9999,9999,3323027576
4320,5,ISIP_5,83,9999,9999,9999,3323527268
4320,5,ISIP_5,84,9999,9999,9999,3324028004
4320,5,ISIP_5,85,9999,9999,9999,3324527672
4320,5,ISIP_5,86,9999,9999,9999,3325027432
4320,5,ISIP_5,87,9999,9999,9999,3325527120
4320,5,ISIP_5,88,9999,9999,9999,3326027860
4320,5,ISIP_5,89,9999,9999,9999,3326527548
4320,5,ISIP_5,90,9999,9999,9999,3327027316
4320,5,ISIP_5,91,9999,9999,9999,3327528052
4320,5,ISIP_5,92,9999,9999,9999,3328027744
4320,5,ISIP_5,93,9999,9999,9999,3328527436
4320,5,ISIP_5,94,9999,9999,9999,3329027124
4320,5,ISIP_5,95,9999,9999,9999,3329527864
4320,5,ISIP_5,96,9999,9999,9999,3330027628
4320,5,ISIP_5,97,9999,9999,9999,3330527320
4320,5,ISIP_5,98,9999,9999,9999,3331028064
4320,5,ISIP_5,99,9999,9999,9999,3331527752
4320,5,ISIP_5,100,9999,9999,9999,3332027444
4320,5,ISIP_5,101,9999,9999,9999,3332527208
4320,5,ISIP_5,102,9999,9999,9999,3333027944
4320,5,ISIP_5,103,9999,9999,9999,3333527636
4320,5,ISIP_5,104,9999,9999,9999,3334027328
4320,5,ISIP_5,105,9999,9999,9999,3334528064
4320,5,ISIP_5,106,9999,9999,9999,3335027784
4320,5,ISIP_5,107,9999,9999,9999,3335527548
4320,5,ISIP_5,108,9999,9999,9999,3336027240
4320,5,ISIP_5,109,9999,9999,9999,3336527976
4320,5,ISIP_5,110,9999,9999,9999,3337027668
4320,5,ISIP_5,111,9999,9999,9999,3337527360
4320,5,ISIP_5,112,9999,9999,9999,3338027124
4320,5,ISIP_5,113,9999,9999,9999,3338527856
4320,5,ISIP_5,114,9999,9999,9999,3339027520
4320,5,ISIP_5,115,9999,9999,9999,3339527288
4320,5,ISIP_5,116,9999,9999,9999,3340028024
4320,5,ISIP_5,117,9999,9999,9999,3340527716
4320,5,ISIP_5,118,9999,9999,9999,3341027392
4320,5,ISIP_5,119,9999,9999,9999,3341527160
4320,5,ISIP_5,120,9999,9999,9999,3342027872
4320,5,ISIP_5,121,9999,9999,9999,3342527564
4320,5,ISIP_5,122,9999,9999,9999,3343027256
4320,5,ISIP_5,123,9999,9999,9999,3343527992
4320,5,ISIP_5,124,9999,9999,9999,3344027756
4320,5,ISIP_5,125,9999,9999,9999,3344527448
4320,5,ISIP_5,126,9999,9999,9999,3345027140
4320,5,ISIP_5,127,9999,9999,9999,3345527876
4320,5,ISIP_5,128,9999,9999,9999,3346027616
4320,5,ISIP_5,129,9999,9999,9999,3346527304
4320,5,ISIP_5,130,9999,9999,9999,3347028044
4320,5,ISIP_5,131,9999,9999,9999,3347527736
4320,5,ISIP_5,132,9999,9999,9999,3348027500
4320,5,ISIP_5,133,9999,9999,9999,3348527168
4320,5,ISIP_5,134,9999,9999,9999,3349027904
4320,5,ISIP_5,135,9999,9999,9999,3349527668
4320,5,ISIP_5,136,9999,9999,9999,3350027340
4320,5,ISIP_5,137,9999,9999,9999,3350528076
4320,5,ISIP_5,138,9999,9999,9999,3351027836
4320,5,ISIP_5,139,9999,9999,9999,3351527524
4320,5,ISIP_5,140,9999,9999,9999,3352027216
4320,5,ISIP_5,141,9999,9999,9999,3352527936
4320,5,ISIP_5,142,9999,9999,9999,3353027700
4320,5,ISIP_5,143,9999,9999,9999,3353527392
4320,5,ISIP_5,144,9999,9999,9999,3354027084
4320,5,ISIP_5,145,9999,9999,9999,3354527820
4320,5,ISIP_5,146,9999,9999,9999,3355027512
4320,5,ISIP_5,147,9999,9999,9999,3355527276
4320,5,ISIP_5,148,9999,9999,9999,3356028012
4320,5,ISIP_5,149,9999,9999,9999,3356527680
4320,5,ISIP_5,150,9999,9999,9999,3357027444
4320,5,ISIP_5,151,9999,9999,9999,3357527128
4320,5,ISIP_5,152,9999,9999,9999,3358027868
4320,5,ISIP_5,153,9999,9999,9999,3358527540
4320,5,ISIP_5,154,9999,9999,9999,3359027308
4320,5,ISIP_5,155,9999,9999,9999,3359528044
4320,5,ISIP_5,156,9999,9999,9999,3360027708
4320,5,ISIP_5,157,9999,9999,9999,3360527472
4320,5,ISIP_5,158,9999,9999,9999,3361027164
4320,5,ISIP_5,159,9999,9999,9999,3361527880
4321,3,ISIP_8,0,5,42,127,3388673508
4321,3,ISIP_8,1,1,48,27,3389416900
4321,3,ISIP_8,2,5,42,127,3389473252
4321,3,ISIP_8,3,5,42,127,3390272920
4321,3,ISIP_8,4,1,48,48,3390284788
4321,3,ISIP_8,5,5,42,127,3391072580
4321,3,ISIP_8,6,1,48,43,3391076820
4321,3,ISIP_8,7,5,42,127,3391873532
4321,3,ISIP_8,8,1,48,45,3391879720
4321,3,ISIP_8,9,1,48,42,3392668512
4321,3,ISIP_8,10,5,42,127,3392673408
4321,3,ISIP_8,11,1,48,35,3393420456
4321,3,ISIP_8,12,5,42,127,3393472844
4321,3,ISIP_8,13,1,48,42,3394213604
4321,3,ISIP_8,14,5,42,127,3394272580
4321,3,ISIP_8,15,1,48,46,3395001744
4321,3,ISIP_8,16,5,42,127,3395073360
4321,3,ISIP_8,17,1,48,49,3395817640
4321,3,ISIP_8,18,5,42,127,3395873316
4321,3,ISIP_8,19,1,48,52,3396633448
4321,3,ISIP_8,20,5,42,127,3396672756
4321,3,ISIP_8,21,1,48,44,3397466992
4321,3,ISIP_8,22,5,42,127,3397472488
4321,3,ISIP_8,23,1,48,35,3398240172
4321,3,ISIP_8,24,5,42,127,3398273368
4321,3,ISIP_8,25,1,48,29,3398998024
4321,3,ISIP_8,26,5,42,127,3399073328
4321,3,ISIP_8,27,1,48,40,3399813712
4321,3,ISIP_8,28,5,42,127,3399872836
4321,3,ISIP_8,29,1,48,31,3400625112
4321,3,ISIP_8,30,5,42,127,3400672572
4321,3,ISIP_8,31,1,48,36,3401415424
4321,3,ISIP_8,32,5,42,127,3401473352
4321,3,ISIP_8,33,1,48,35,3402246572
4321,3,ISIP_8,34,5,42,127,3402273084
4321,3,ISIP_8,35,1,48,40,3403047356
4321,3,ISIP_8,36,5,42,127,3403073116
4321,3,ISIP_8,37,1,48,40,3403785380
4321,3,ISIP_8,38,5,42,127,3403872476
4321,3,ISIP_8,39,1,48,38,3404618620
4321,3,ISIP_8,40,5,42,127,3404673356
4321,3,ISIP_8,41,1,48,40,3405400552
4321,3,ISIP_8,42,5,42,127,3405473164
4321,3,ISIP_8,43,1,48,35,3406180088
4321,3,ISIP_8,44,5,42,127,3406273120
4321,3,ISIP_8,45,1,48,44,3407013876
4321,3,ISIP_8,46,5,42,127,3407072484
4321,3,ISIP_8,47,1,48,38,3407822068
4321,3,ISIP_8,48,5,42,127,3407873264
4321,3,ISIP_8,49,1,48,44,3408593896
4321,3,ISIP_8,50,5,42,127,3408673072
4321,3,ISIP_8,51,1,48,38,3409394008
4321,3,ISIP_8,52,5,42,127,3409473024
4321,3,ISIP_8,53,1,48,44,3410213412
4321,3,ISIP_8,54,5,42,127,3410272760
4321,3,ISIP_8,55,1,48,38,3411028704
4321,3,ISIP_8,56,5,42,127,3411073340
4321,3,ISIP_8,57,1,48,43,3411786100
4321,3,ISIP_8,58,5,42,127,3411873076
4321,3,ISIP_8,59,1,48,48,3412636496
4321,3,ISIP_8,60,1,48,47,3413564140
4321,3,ISIP_8,61,1,48,46,3414365888
4321,3,ISIP_8,62,1,48,43,3415152904
4321,3,ISIP_8,63,1,48,38,3415883296
4321,3,ISIP_8,64,1,48,41,3416671732
4321,3,ISIP_8,65,1,48,43,3417426192
4321,3,ISIP_8,66,1,48,45,3418186204
4321,3,ISIP_8,67,1,48,44,3418962892
4321,3,ISIP_8,68,1,48,49,3419694708
4321,3,ISIP_8,69,1,48,47,3420432428
4321,3,ISIP_8,70,1,48,46,3421194908
4321,3,ISIP_8,71,1,48,46,3421941452
4321,3,ISIP_8,72,1,48,45,3422668332
4321,3,ISIP_8,73,1,48,46,3423425728
4321,3,ISIP_8,74,1,48,48,3424194716
4321,3,ISIP_8,75,1,48,45,3424943800
4321,3,ISIP_8,76,1,48,46,3425661480
4321,3,ISIP_8,77,1,48,46,3426395956
4321,3,ISIP_8,78,1,48,45,3427133380
4321,3,ISIP_8,79,1,48,43,3427855680
4321,3,ISIP_8,80,1,48,50,3428599840
4321,3,ISIP_8,81,1,48,43,3429347128
4321,3,ISIP_8,82,1,48,42,3430048128
4321,3,ISIP_8,83,1,48,36,3430763308
4321,3,ISIP_8,84,1,48,44,3431512700
4321,3,ISIP_8,85,1,48,49,3432220056
4321,3,ISIP_8,86,1,48,52,3432963684
4321,3,ISIP_8,87,1,48,48,3433665204
4321,3,ISIP_8,88,1,48,46,3434393276
4321,3,ISIP_8,89,1,48,46,3435122224
4321,3,ISIP_8,90,1,48,53,3435853768
4321,3,ISIP_8,91,1,48,53,3436551256
4321,3,ISIP_8,92,1,48,48,3437257408
4321,3,ISIP_8,93,1,48,47,3437996924
4321,3,ISIP_8,94,1,48,51,3438686232
4321,3,ISIP_8,95,1,48,48,3439419012
4321,3,ISIP_8,96,1,48,48,3440167060
4321,3,ISIP_8,97,1,48,53,3440923104
4321,3,ISIP_8,98,1,48,46,3441639132
4321,3,ISIP_8,99,1,48,44,3442362792
4321,3,ISIP_8,100,1,48,48,3443080544
4321,3,ISIP_8,101,1,48,47,3443859388
4321,3,ISIP_8,102,1,48,45,3444575696
4321,3,ISIP_8,103,1,48,42,3445299728
4321,3,ISIP_8,104,1,48,44,3446031916
4321,3,ISIP_8,105,1,48,46,3446777864
4321,3,ISIP_8,106,1,48,43,3447501076
4321,3,ISIP_8,107,1,48,39,3448222564
4321,3,ISIP_8,108,1,48,40,3448963052
4321,3,ISIP_8,109,1,48,40,3449709952
4321,3,ISIP_8,110,1,48,39,3450415288
4321,3,ISIP_8,111,1,48,43,3451135948
4321,3,ISIP_8,112,1,48,41,3451905464
4321,3,ISIP_8,113,1,48,43,3452628884
4321,3,ISIP_8,114,1,48,47,3453326740
4321,3,ISIP_8,115,1,48,39,3453998096
4321,3,ISIP_8,116,1,48,38,3454700136
4321,3,ISIP_8,117,1,48,42,3455486920
4321,3,ISIP_8,118,1,48,40,3456160020
4321,3,ISIP_8,119,1,48,41,3456873256
4321,3,ISIP_8,120,1,48,43,3457620256
4321,3,ISIP_8,121,1,48,42,3458351320
4321,3,ISIP_8,122,1,48,49,3459071004
4321,3,ISIP_8,123,1,48,48,3459800496
4321,3,ISIP_8,124,1,48,47,3460499696
4321,3,ISIP_8,125,1,48,46,3461230812
4321,3,ISIP_8,126,1,48,43,3461957532
4321,3,ISIP_8,127,1,48,43,3462646792
4321,3,ISIP_8,128,1,48,44,3463338732
4321,3,ISIP_8,129,1,48,43,3464066360
4321,3,ISIP_8,130,1,48,42,3464760072
4321,3,ISIP_8,131,1,48,50,3465485828
4321,3,ISIP_8,132,1,48,41,3466202592
4321,3,ISIP_8,133,1,48,43,3466916080
4321,3,ISIP_8,134,1,48,42,3467620116
4321,3,ISIP_8,135,1,48,38,3468354320
4321,3,ISIP_8,136,1,48,43,3469068412
4321,3,ISIP_8,137,1,48,43,3469782344
4321,3,ISIP_8,138,1,48,46,3470518868
4321,3,ISIP_8,139,1,48,44,3471225324
4321,3,ISIP_8,140,1,48,41,3471977452
4321,3,ISIP_8,141,1,48,43,3472637376
4321,3,ISIP_8,142,1,48,44,3473361112
4321,3,ISIP_8,143,1,48,47,3474038924
4321,3,ISIP_8,144,1,48,44,3474729196
4321,3,ISIP_8,145,1,48,50,3475419272
4321,3,ISIP_8,146,1,48,49,3476103588
4321,3,ISIP_8,147,1,48,52,3476764316
4321,3,ISIP_8,148,1,48,50,3477446300
4321,3,ISIP_8,149,1,48,45,3478152384
4321,3,ISIP_8,150,1,48,46,3478810724
4321,3,ISIP_8,151,1,48,48,3479467512
4321,3,ISIP_8,152,1,48,45,3480177632
4321,3,ISIP_8,153,1,48,46,3480839108
4321,3,ISIP_8,154,1,48,51,3481546768
4321,3,ISIP_8,155,1,48,50,3482235108
4321,3,ISIP_8,156,1,48,48,3482909228
4321,3,ISIP_8,157,1,48,50,3483666020
4321,3,ISIP_8,158,1,48,45,3484388108
4321,3,ISIP_8,159,1,48,49,3485097036
4321,3,ISIP_8,160,1,48,55,3485775860
4321,3,ISIP_8,161,1,48,54,3486523084
4321,3,ISIP_8,162,1,48,47,3487198876
4321,3,ISIP_8,163,1,48,44,3487826232
4321,3,ISIP_8,164,1,48,48,3488471132
4321,3,ISIP_8,165,1,48,46,3489210724
4321,3,ISIP_8,166,1,48,32,3489861204
4321,3,ISIP_8,167,1,48,48,3490539616
4321,3,ISIP_8,168,1,48,53,3491182240
4321,3,ISIP_8,169,1,48,53,3491834824
4321,3,ISIP_8,170,1,48,48,3492536048
4321,3,ISIP_8,171,1,48,54,3493190796
4321,3,ISIP_8,172,1,48,51,3493812728
4321,3,ISIP_8,173,1,48,48,3494495972
4321,3,ISIP_8,174,1,48,46,3495109532
4321,3,ISIP_8,175,1,48,43,3495746460
4321,3,ISIP_8,176,1,48,42,3496387700
4321,3,ISIP_8,177,1,48,43,3497024040
4321,3,ISIP_8,178,1,48,47,3497666320
4321,3,ISIP_8,179,1,48,45,3498267420
4321,3,ISIP_8,180,1,48,42,3498894744
4321,3,ISIP_8,181,1,48,47,3499570660
4321,3,ISIP_8,182,1,48,42,3500264700
4321,3,ISIP_8,183,1,48,44,3500892064
4321,3,ISIP_8,184,1,48,41,3501496048
4321,3,ISIP_8,185,1,48,42,3502150860
4321,3,ISIP_8,186,1,48,40,3502769728
4321,3,ISIP_8,187,1,48,41,3503388492
4321,3,ISIP_8,188,1,48,40,3503997636
4321,3,ISIP_8,189,1,48,35,3504649004
4321,3,ISIP_8,190,1,48,43,3505266004
4321,3,ISIP_8,191,1,48,43,3505929504
4321,3,ISIP_8,192,1,48,45,3506540940
4321,3,ISIP_8,193,1,48,48,3507162204
4321,3,ISIP_8,194,1,48,39,3507820676
4321,3,ISIP_8,195,1,48,44,3508438348
4321,3,ISIP_8,0,9999,9999,9999,3388671068
4321,3,ISIP_8,1,9999,9999,9999,3389470816
4321,3,ISIP_8,2,9999,9999,9999,3390270556
4321,3,ISIP_8,3,9999,9999,9999,3391070292
4321,3,ISIP_8,4,9999,9999,9999,3391871096
4321,3,ISIP_8,5,9999,9999,9999,3392670824
4321,3,ISIP_8,6,9999,9999,9999,3393470556
4321,3,ISIP_8,7,9999,9999,9999,3394270292
4321,3,ISIP_8,8,9999,9999,9999,3395071072
4321,3,ISIP_8,9,9999,9999,9999,3395870808
4321,3,ISIP_8,10,9999,9999,9999,3396670540
4321,3,ISIP_8,11,9999,9999,9999,3397470276
4321,3,ISIP_8,12,9999,9999,9999,3398271080
4321,3,ISIP_8,13,9999,9999,9999,3399070816
4321,3,ISIP_8,14,9999,9999,9999,3399870548
4321,3,ISIP_8,15,9999,9999,9999,3400670284
4321,3,ISIP_8,16,9999,9999,9999,3401471064
4321,3,ISIP_8,17,9999,9999,9999,3402270796
4321,3,ISIP_8,18,9999,9999,9999,3403070532
4321,3,ISIP_8,19,9999,9999,9999,3403870264
4321,3,ISIP_8,20,9999,9999,9999,3404671068
4321,3,ISIP_8,21,9999,9999,9999,3405470800
4321,3,ISIP_8,22,9999,9999,9999,3406270536
4321,3,ISIP_8,23,9999,9999,9999,3407070268
4321,3,ISIP_8,24,9999,9999,9999,3407871048
4321,3,ISIP_8,25,9999,9999,9999,3408670780
4321,3,ISIP_8,26,9999,9999,9999,3409470516
4321,3,ISIP_8,27,9999,9999,9999,3410270324
4321,3,ISIP_8,28,9999,9999,9999,3411071052
4321,3,ISIP_8,29,9999,9999,9999,3411870788
4321,3,ISIP_8,30,9999,9999,9999,3412670520
4321,3,ISIP_8,31,9999,9999,9999,3413470256
4321,3,ISIP_8,32,9999,9999,9999,3414271032
4321,3,ISIP_8,33,9999,9999,9999,3415070832
4321,3,ISIP_8,34,9999,9999,9999,3415870560
4321,3,ISIP_8,35,9999,9999,9999,3416670292
4321,3,ISIP_8,36,9999,9999,9999,3417471084
4321,3,ISIP_8,37,9999,9999,9999,3418270812
4321,3,ISIP_8,38,9999,9999,9999,3419070528
4321,3,ISIP_8,39,9999,9999,9999,3419870256
4321,3,ISIP_8,40,9999,9999,9999,3420671032
4321,3,ISIP_8,41,9999,9999,9999,3421470836
4321,3,ISIP_8,42,9999,9999,9999,3422270564
4321,3,ISIP_8,43,9999,9999,9999,3423070292
4321,3,ISIP_8,44,9999,9999,9999,3423871096
4321,3,ISIP_8,45,9999,9999,9999,3424670824
4321,3,ISIP_8,46,9999,9999,9999,3425470552
4321,3,ISIP_8,47,9999,9999,9999,3426270284
4321,3,ISIP_8,48,9999,9999,9999,3427071056
4321,3,ISIP_8,49,9999,9999,9999,3427870780
4321,3,ISIP_8,50,9999,9999,9999,3428670584
4321,3,ISIP_8,51,9999,9999,9999,3429470296
4321,3,ISIP_8,52,9999,9999,9999,3430271024
4321,3,ISIP_8,53,9999,9999,9999,3431070828
4321,3,ISIP_8,54,9999,9999,9999,3431870556
4321,3,ISIP_8,55,9999,9999,9999,3432670284
4321,3,ISIP_8,56,9999,9999,9999,3433471060
4321,3,ISIP_8,57,9999,9999,9999,3434270792
4321,3,ISIP_8,58,9999,9999,9999,3435070520
4321,3,ISIP_8,59,9999,9999,9999,3435870292
4321,3,ISIP_8,60,9999,9999,9999,3436671076
4321,3,ISIP_8,61,9999,9999,9999,3437470808
4321,3,ISIP_8,62,9999,9999,9999,3438270536
4321,3,ISIP_8,63,9999,9999,9999,3439070264
4321,3,ISIP_8,64,9999,9999,9999,3439871040
4321,3,ISIP_8,65,9999,9999,9999,3440670768
4321,3,ISIP_8,66,9999,9999,9999,3441470572
4321,3,ISIP_8,67,9999,9999,9999,3442270300
4321,3,ISIP_8,68,9999,9999,9999,3443071028
4321,3,ISIP_8,69,9999,9999,9999,3443870824
4321,3,ISIP_8,70,9999,9999,9999,3444670536
4321,3,ISIP_8,71,9999,9999,9999,3445470264
4321,3,ISIP_8,72,9999,9999,9999,3446271040
4321,3,ISIP_8,73,9999,9999,9999,3447070772
4321,3,ISIP_8,74,9999,9999,9999,3447870572
4321,3,ISIP_8,75,9999,9999,9999,3448670304
4321,3,ISIP_8,76,9999,9999,9999,3449471032
4321,3,ISIP_8,77,9999,9999,9999,3450270832
4321,3,ISIP_8,78,9999,9999,9999,3451070564
4321,3,ISIP_8,79,9999,9999,9999,3451870292
4321,3,ISIP_8,80,9999,9999,9999,3452671060
4321,3,ISIP_8,81,9999,9999,9999,3453470772
4321,3,ISIP_8,82,9999,9999,9999,3454270576
4321,3,ISIP_8,83,9999,9999,9999,3455070308
4321,3,ISIP_8,84,9999,9999,9999,3455871032
4321,3,ISIP_8,85,9999,9999,9999,3456670836
4321,3,ISIP_8,86,9999,9999,9999,3457470564
4321,3,ISIP_8,87,9999,9999,9999,3458270292
4321,3,ISIP_8,88,9999,9999,9999,3459071064
4321,3,ISIP_8,89,9999,9999,9999,3459870792
4321,3,ISIP_8,90,9999,9999,9999,3460670580
4321,3,ISIP_8,91,9999,9999,9999,3461470312
4321,3,ISIP_8,92,9999,9999,9999,3462271036
4321,3,ISIP_8,93,9999,9999,9999,3463070764
4321,3,ISIP_8,94,9999,9999,9999,3463870568
4321,3,ISIP_8,95,9999,9999,9999,3464670300
4321,3,ISIP_8,96,9999,9999,9999,3465471072
4321,3,ISIP_8,97,9999,9999,9999,3466270796
4321,3,ISIP_8,98,9999,9999,9999,3467070512
4321,3,ISIP_8,99,9999,9999,9999,3467870316
4321,3,ISIP_8,100,9999,9999,9999,3468671040
4321,3,ISIP_8,101,9999,9999,9999,3469470768
4321,3,ISIP_8,102,9999,9999,9999,3470270572
4321,3,ISIP_8,103,9999,9999,9999,3471070304
4321,3,ISIP_8,104,9999,9999,9999,3471871076
4321,3,ISIP_8,105,9999,9999,9999,3472670800
4321,3,ISIP_8,106,9999,9999,9999,3473470516
4321,3,ISIP_8,107,9999,9999,9999,3474270320
4321,3,ISIP_8,108,9999,9999,9999,3475071044
4321,3,ISIP_8,109,9999,9999,9999,3475870772
4321,3,ISIP_8,110,9999,9999,9999,3476670580
4321,3,ISIP_8,111,9999,9999,9999,3477470300
4321,3,ISIP_8,112,9999,9999,9999,3478271060
4321,3,ISIP_8,113,9999,9999,9999,3479070792
4321,3,ISIP_8,114,9999,9999,9999,3479870520
4321,3,ISIP_8,115,9999,9999,9999,3480670324
4321,3,ISIP_8,116,9999,9999,9999,3481471052
4321,3,ISIP_8,117,9999,9999,9999,3482270776
4321,3,ISIP_8,118,9999,9999,9999,3483070564
4321,3,ISIP_8,119,9999,9999,9999,3483870292
4321,3,ISIP_8,120,9999,9999,9999,3484671068
4321,3,ISIP_8,121,9999,9999,9999,3485470796
4321,3,ISIP_8,122,9999,9999,9999,3486270524
4321,3,ISIP_8,123,9999,9999,9999,3487070256
4321,3,ISIP_8,124,9999,9999,9999,3487871048
4321,3,ISIP_8,125,9999,9999,9999,3488670840
4321,3,ISIP_8,126,9999,9999,9999,3489470568
4321,3,ISIP_8,127,9999,9999,9999,3490270296
4321,3,ISIP_8,128,9999,9999,9999,3491071072
4321,3,ISIP_8,129,9999,9999,9999,3491870796
4321,3,ISIP_8,130,9999,9999,9999,3492670508
4321,3,ISIP_8,131,9999,9999,9999,3493470312
4321,3,ISIP_8,132,9999,9999,9999,3494271040
4321,3,ISIP_8,133,9999,9999,9999,3495070772
4321,3,ISIP_8,134,9999,9999,9999,3495870552
4321,3,ISIP_8,135,9999,9999,9999,3496670280
4321,3,ISIP_8,136,9999,9999,9999,3497471056
4321,3,ISIP_8,137,9999,9999,9999,3498270780
4321,3,ISIP_8,138,9999,9999,9999,3499070568
4321,3,ISIP_8,139,9999,9999,9999,3499870296
4321,3,ISIP_8,140,9999,9999,9999,3500671024
4321,3,ISIP_8,141,9999,9999,9999,3501470824
4321,3,ISIP_8,142,9999,9999,9999,3502270532
4321,3,ISIP_8,143,9999,9999,9999,3503070264
4321,3,ISIP_8,144,9999,9999,9999,3503871036
4321,3,ISIP_8,145,9999,9999,9999,3504670836
4321,3,ISIP_8,146,9999,9999,9999,3505470548
4321,3,ISIP_8,147,9999,9999,9999,3506270280
4321,3,ISIP_8,148,9999,9999,9999,3507071080
4321,3,ISIP_8,149,9999,9999,9999,3507870800
4322,11,Pattern_Practice,0,1,38,15,3623493424
4322,11,Pattern_Practice,1,1,38,23,3623621408
4322,11,Pattern_Practice,2,1,38,32,3623693116
4322,11,Pattern_Practice,3,1,38,22,3623809584
4322,11,Pattern_Practice,4,1,38,40,3623848160
4322,11,Pattern_Practice,5,1,38,35,3623908796
4322,11,Pattern_Practice,6,5,42,127,3623993724
4322,11,Pattern_Practice,7,5,42,127,3624493424
4322,11,Pattern_Practice,8,5,42,127,3624994188
4322,11,Pattern_Practice,9,5,42,127,3625494056
4322,11,Pattern_Practice,10,5,42,127,3625993548
4322,11,Pattern_Practice,11,1,38,51,3626002052
4322,11,Pattern_Practice,12,1,38,43,3626480260
4322,11,Pattern_Practice,13,5,42,127,3626494208
4322,11,Pattern_Practice,14,1,38,46,3626642820
4322,11,Pattern_Practice,15,1,38,44,3626866540
4322,11,Pattern_Practice,16,1,38,23,3626990084
4322,11,Pattern_Practice,17,5,42,127,3626994156
4322,11,Pattern_Practice,18,1,48,30,3627323628
4322,11,Pattern_Practice,19,5,42,127,3627493836
4322,11,Pattern_Practice,20,1,38,19,3627527176
4322,11,Pattern_Practice,21,1,38,39,3627908796
4322,11,Pattern_Practice,22,5,42,127,3627993500
4322,11,Pattern_Practice,23,1,48,42,3628486424
4322,11,Pattern_Practice,24,5,42,127,3628494240
4322,11,Pattern_Practice,25,1,38,38,3628661928
4322,11,Pattern_Practice,26,1,48,35,3628830948
4322,11,Pattern_Practice,27,1,38,48,3628979720
4322,11,Pattern_Practice,28,5,42,127,3628993964
4322,11,Pattern_Practice,29,1,38,50,3629267488
4322,11,Pattern_Practice,30,1,38,54,3629403448
4322,11,Pattern_Practice,31,5,42,127,3629493712
4322,11,Pattern_Practice,32,1,38,46,3629538556
4322,11,Pattern_Practice,33,1,38,55,3629744180
4322,11,Pattern_Practice,34,1,38,48,3629921272
4322,11,Pattern_Practice,35,5,42,127,3629994260
4322,11,Pattern_Practice,36,1,38,45,3630147788
4322,11,Pattern_Practice,37,1,48,44,3630358120
4322,11,Pattern_Practice,38,5,42,127,3630494068
4322,11,Pattern_Practice,39,1,48,45,3630732748
4322,11,Pattern_Practice,40,5,42,127,3630993836
4322,11,Pattern_Practice,41,1,38,53,3631005036
4322,11,Pattern_Practice,42,1,48,49,3631214320
4322,11,Pattern_Practice,43,1,38,39,3631397776
4322,11,Pattern_Practice,44,5,42,127,3631493412
4322,11,Pattern_Practice,45,1,38,49,3631782208
4322,11,Pattern_Practice,46,5,42,127,3631994228
4322,11,Pattern_Practice,47,1,38,44,3632155996
4322,11,Pattern_Practice,48,1,48,46,3632454892
4322,11,Pattern_Practice,49,5,42,127,3632493840
4322,11,Pattern_Practice,50,1,48,35,3632909032
4322,11,Pattern_Practice,51,5,42,127,3632993884
4322,11,Pattern_Practice,52,1,48,57,3633131348
4322,11,Pattern_Practice,53,1,48,43,3633281992
4322,11,Pattern_Practice,54,5,42,127,3633494292
4322,11,Pattern_Practice,55,1,48,53,3633512920
4322,11,Pattern_Practice,56,1,48,43,3633601832
4322,11,Pattern_Practice,57,1,48,52,3633778356
4322,11,Pattern_Practice,58,1,48,41,3633896360
4322,11,Pattern_Practice,59,5,42,127,3633994144
4322,11,Pattern_Practice,60,1,48,53,3634029152
4322,11,Pattern_Practice,61,1,48,63,3634211336
4322,11,Pattern_Practice,62,1,48,36,3634307680
4322,11,Pattern_Practice,63,1,48,58,3634448432
4322,11,Pattern_Practice,64,5,42,127,3634493788
4322,11,Pattern_Practice,65,1,48,45,3634546208
4322,11,Pattern_Practice,66,1,48,61,3634671548
4322,11,Pattern_Practice,67,1,48,51,3634761656
4322,11,Pattern_Practice,68,1,48,62,3634889796
4322,11,Pattern_Practice,69,1,48,46,3634993852
4322,11,Pattern_Practice,70,5,42,127,3634995344
4322,11,Pattern_Practice,71,1,48,66,3635100948
4322,11,Pattern_Practice,72,1,48,62,3635163456
4322,11,Pattern_Practice,73,5,42,127,3635494180
4322,11,Pattern_Practice,74,1,38,59,3635587976
4322,11,Pattern_Practice,75,5,42,127,3635993948
4322,11,Pattern_Practice,76,1,38,34,3636062964
4322,11,Pattern_Practice,77,1,48,68,3636410504
4322,11,Pattern_Practice,78,5,42,127,3636493860
4322,11,Pattern_Practice,79,1,38,36,3636845872
4322,11,Pattern_Practice,80,5,42,127,3636994436
4322,11,Pattern_Practice,81,1,48,67,3636999504
4322,11,Pattern_Practice,82,1,38,45,3637171160
4322,11,Pattern_Practice,83,1,48,60,3637360708
4322,11,Pattern_Practice,84,5,42,127,3637494088
4322,11,Pattern_Practice,85,1,38,34,3637565944
4322,11,Pattern_Practice,86,1,48,68,3637963000
4322,11,Pattern_Practice,87,5,42,127,3637993776
4322,11,Pattern_Practice,88,1,48,71,3638420132
4322,11,Pattern_Practice,89,5,42,127,3638493692
4322,11,Pattern_Practice,90,1,38,58,3638698700
4322,11,Pattern_Practice,91,1,48,68,3638904924
4322,11,Pattern_Practice,92,5,42,127,3638994340
4322,11,Pattern_Practice,93,1,38,40,3639167484
4322,11,Pattern_Practice,94,1,48,51,3639361936
4322,11,Pattern_Practice,95,5,42,127,3639493996
4322,11,Pattern_Practice,96,1,48,41,3639575732
4322,11,Pattern_Practice,97,1,38,45,3639762648
4322,11,Pattern_Practice,98,1,48,57,3639990564
4322,11,Pattern_Practice,99,5,42,127,3639993888
4322,11,Pattern_Practice,100,1,48,19,3640225900
4322,11,Pattern_Practice,101,5,42,127,3640493416
4322,11,Pattern_Practice,102,1,38,48,3640526980
4322,11,Pattern_Practice,103,1,48,47,3640753176
4322,11,Pattern_Practice,104,5,42,127,3640994136
4322,11,Pattern_Practice,105,1,48,42,3641147452
4322,11,Pattern_Practice,106,1,38,45,3641413132
4322,11,Pattern_Practice,107,5,42,127,3641493824
4322,11,Pattern_Practice,108,1,48,43,3641628948
4322,11,Pattern_Practice,109,1,48,31,3641848480
4322,11,Pattern_Practice,110,5,42,127,3641993632
4322,11,Pattern_Practice,111,1,38,44,3642116576
4322,11,Pattern_Practice,112,1,38,49,3642352940
4322,11,Pattern_Practice,113,5,42,127,3642494276
4322,11,Pattern_Practice,114,1,48,22,3642746720
4322,11,Pattern_Practice,115,5,42,127,3642993896
4322,11,Pattern_Practice,116,1,48,20,3643089020
4322,11,Pattern_Practice,117,1,48,43,3643347892
4322,11,Pattern_Practice,118,1,48,37,3643493012
4322,11,Pattern_Practice,119,5,42,127,3643494832
4322,11,Pattern_Practice,120,1,48,47,3643624720
4322,11,Pattern_Practice,121,1,48,26,3643746544
4322,11,Pattern_Practice,122,1,48,46,3643839144
4322,11,Pattern_Practice,123,1,48,31,3643966952
4322,11,Pattern_Practice,124,5,42,127,3643993616
4322,11,Pattern_Practice,125,1,48,50,3644079548
4322,11,Pattern_Practice,126,1,48,35,3644189552
4322,11,Pattern_Practice,127,1,48,53,3644317836
4322,11,Pattern_Practice,128,1,48,45,3644456260
4322,11,Pattern_Practice,129,5,42,127,3644494216
4322,11,Pattern_Practice,130,1,48,60,3644602136
4322,11,Pattern_Practice,131,1,38,40,3644912104
4322,11,Pattern_Practice,132,5,42,127,3644993816
4322,11,Pattern_Practice,133,1,48,51,3645185656
4322,11,Pattern_Practice,134,1,38,38,3645461744
4322,11,Pattern_Practice,135,5,42,127,3645493564
4322,11,Pattern_Practice,136,1,48,49,3645665060
4322,11,Pattern_Practice,137,1,48,48,3645942488
4322,11,Pattern_Practice,138,5,42,127,3645994580
4322,11,Pattern_Practice,139,1,38,32,3646254864
4322,11,Pattern_Practice,140,5,42,127,3646494036
4322,11,Pattern_Practice,141,1,48,47,3646524980
4322,11,Pattern_Practice,142,1,38,40,3646805696
4322,11,Pattern_Practice,143,5,42,127,3646993708
4322,11,Pattern_Practice,144,1,48,46,3647105536
4322,11,Pattern_Practice,145,1,48,35,3647395904
4322,11,Pattern_Practice,146,5,42,127,3647493604
4322,11,Pattern_Practice,147,1,38,41,3647636172
4322,11,Pattern_Practice,148,1,48,41,3647842668
4322,11,Pattern_Practice,149,5,42,127,3647994472
4322,11,Pattern_Practice,150,1,38,22,3648041872
4322,11,Pattern_Practice,151,1,48,47,3648276520
4322,11,Pattern_Practice,152,5,42,127,3648493848
4322,11,Pattern_Practice,153,1,38,45,3648514472
4322,11,Pattern_Practice,154,1,48,50,3648813292
4322,11,Pattern_Practice,155,5,42,127,3648993520
4322,11,Pattern_Practice,156,1,48,49,3649082356
4322,11,Pattern_Practice,157,1,38,51,3649273836
4322,11,Pattern_Practice,158,5,42,127,3649494612
4322,11,Pattern_Practice,159,1,48,51,3649609108
4322,11,Pattern_Practice,160,1,48,63,3649885416
4322,11,Pattern_Practice,161,1,48,38,3649932692
4322,11,Pattern_Practice,162,5,42,127,3649993984
4322,11,Pattern_Practice,163,1,38,57,3650162488
4322,11,Pattern_Practice,164,1,38,33,3650218416
4322,11,Pattern_Practice,165,5,42,127,3650493792
4322,11,Pattern_Practice,166,1,48,56,3650504312
4322,11,Pattern_Practice,167,1,48,62,3650828264
4322,11,Pattern_Practice,168,1,48,44,3650882248
4322,11,Pattern_Practice,169,5,42,127,3650993440
4322,11,Pattern_Practice,170,1,38,62,3651159696
4322,11,Pattern_Practice,171,5,42,127,3651494332
4322,11,Pattern_Practice,172,1,48,70,3651728604
4322,11,Pattern_Practice,173,5,42,127,3651993956
4322,11,Pattern_Practice,174,1,48,73,3652247596
4322,11,Pattern_Practice,175,1,48,53,3652271584
4322,11,Pattern_Practice,176,5,42,127,3652493700
4322,11,Pattern_Practice,177,1,38,39,3652633472
4322,11,Pattern_Practice,178,1,48,68,3652711436
4322,11,Pattern_Practice,179,1,38,52,3652831584
4322,11,Pattern_Practice,180,1,48,68,3652936428
4322,11,Pattern_Practice,181,5,42,127,3652994380
4322,11,Pattern_Practice,182,1,38,59,3653010592
4322,11,Pattern_Practice,183,1,48,62,3653134776
4322,11,Pattern_Practice,184,1,38,61,3653201624
4322,11,Pattern_Practice,185,5,42,127,3653494052
4322,11,Pattern_Practice,186,1,48,46,3653654020
4322,11,Pattern_Practice,187,1,48,53,3653729772
4322,11,Pattern_Practice,188,1,48,48,3653844140
4322,11,Pattern_Practice,189,1,48,45,3653983540
4322,11,Pattern_Practice,190,5,42,127,3653993992
4322,11,Pattern_Practice,191,1,48,45,3654022232
4322,11,Pattern_Practice,192,1,48,51,3654138372
4322,11,Pattern_Practice,193,1,48,43,3654205364
4322,11,Pattern_Practice,194,1,48,51,3654300964
4322,11,Pattern_Practice,195,1,48,41,3654357488
4322,11,Pattern_Practice,196,1,48,55,3654451488
4322,11,Pattern_Practice,197,5,42,127,3654493484
4322,11,Pattern_Practice,198,5,42,127,3654994308
4322,11,Pattern_Practice,199,1,38,43,3655009844
4322,11,Pattern_Practice,200,5,42,127,3655493928
4322,11,Pattern_Practice,201,1,48,40,3655876844
4322,11,Pattern_Practice,202,5,42,127,3655993696
4322,11,Pattern_Practice,203,1,38,29,3656005644
4322,11,Pattern_Practice,204,1,48,49,3656336576
4322,11,Pattern_Practice,205,5,42,127,3656493296
4322,11,Pattern_Practice,206,1,38,27,3656568544
4322,11,Pattern_Practice,207,1,48,41,3656783192
4322,11,Pattern_Practice,208,5,42,127,3656994160
4322,11,Pattern_Practice,209,1,38,32,3657065672
4322,11,Pattern_Practice,210,1,48,51,3657433680
4322,11,Pattern_Practice,211,5,42,127,3657493852
4322,11,Pattern_Practice,212,1,48,56,3657761168
4322,11,Pattern_Practice,213,5,42,127,3657993532
4322,11,Pattern_Practice,214,1,38,51,3658079676
4322,11,Pattern_Practice,215,5,42,127,3658494420
4322,11,Pattern_Practice,216,1,48,55,3658721132
4322,11,Pattern_Practice,217,5,42,127,3658994188
4322,11,Pattern_Practice,218,1,48,64,3659109608
4322,11,Pattern_Practice,219,1,38,61,3659451060
4322,11,Pattern_Practice,220,5,42,127,3659493656
4322,11,Pattern_Practice,221,1,48,20,3659830460
4322,11,Pattern_Practice,222,5,42,127,3659993632
4322,11,Pattern_Practice,223,1,48,70,3660203444
4322,11,Pattern_Practice,224,5,42,127,3660494224
4322,11,Pattern_Practice,225,1,48,52,3660603928
4322,11,Pattern_Practice,226,1,48,16,3660704016
4322,11,Pattern_Practice,227,1,38,68,3660932968
4322,11,Pattern_Practice,228,5,42,127,3660994112
4322,11,Pattern_Practice,229,1,38,30,3661011580
4322,11,Pattern_Practice,230,5,42,127,3661493720
4322,11,Pattern_Practice,231,1,48,54,3661737784
4322,11,Pattern_Practice,232,1,48,16,3661877112
4322,11,Pattern_Practice,233,5,42,127,3661994288
4322,11,Pattern_Practice,234,5,42,127,3662494004
4322,11,Pattern_Practice,235,1,38,58,3662533548
4322,11,Pattern_Practice,236,5,42,127,3662993776
4322,11,Pattern_Practice,237,1,48,68,3663286012
4322,11,Pattern_Practice,238,5,42,127,3663493396
4322,11,Pattern_Practice,239,1,48,64,3663674304
4322,11,Pattern_Practice,240,1,48,23,3663763920
4322,11,Pattern_Practice,0,9999,9999,9999,3623991364
4322,11,Pattern_Practice,1,9999,9999,9999,3624491064
4322,11,Pattern_Practice,2,9999,9999,9999,3624991828
4322,11,Pattern_Practice,3,9999,9999,9999,3625491544
4322,11,Pattern_Practice,4,9999,9999,9999,3625991260
4322,11,Pattern_Practice,5,9999,9999,9999,3626491996
4322,11,Pattern_Practice,6,9999,9999,9999,3626991720
4322,11,Pattern_Practice,7,9999,9999,9999,3627491400
4322,11,Pattern_Practice,8,9999,9999,9999,3627991136
4322,11,Pattern_Practice,9,9999,9999,9999,3628491876
4322,11,Pattern_Practice,10,9999,9999,9999,3628991604
4322,11,Pattern_Practice,11,9999,9999,9999,3629491276
4322,11,Pattern_Practice,12,9999,9999,9999,3629992048
4322,11,Pattern_Practice,13,9999,9999,9999,3630491708
4322,11,Pattern_Practice,14,9999,9999,9999,3630991476
4322,11,Pattern_Practice,15,9999,9999,9999,3631491124
4322,11,Pattern_Practice,16,9999,9999,9999,3631991868
4322,11,Pattern_Practice,17,9999,9999,9999,3632491632
4322,11,Pattern_Practice,18,9999,9999,9999,3632991300
4322,11,Pattern_Practice,19,9999,9999,9999,3633492080
4322,11,Pattern_Practice,20,9999,9999,9999,3633991780
4322,11,Pattern_Practice,21,9999,9999,9999,3634491504
4322,11,Pattern_Practice,22,9999,9999,9999,3634991192
4322,11,Pattern_Practice,23,9999,9999,9999,3635491892
4322,11,Pattern_Practice,24,9999,9999,9999,3635991660
4322,11,Pattern_Practice,25,9999,9999,9999,3636491348
4322,11,Pattern_Practice,26,9999,9999,9999,3636992076
4322,11,Pattern_Practice,27,9999,9999,9999,3637491800
4322,11,Pattern_Practice,28,9999,9999,9999,3637991488
4322,11,Pattern_Practice,29,9999,9999,9999,3638491184
4322,11,Pattern_Practice,30,9999,9999,9999,3638991976
4322,11,Pattern_Practice,31,9999,9999,9999,3639491636
4322,11,Pattern_Practice,32,9999,9999,9999,3639991376
4322,11,Pattern_Practice,33,9999,9999,9999,3640491056
4322,11,Pattern_Practice,34,9999,9999,9999,3640991852
4322,11,Pattern_Practice,35,9999,9999,9999,3641491540
4322,11,Pattern_Practice,36,9999,9999,9999,3641991272
4322,11,Pattern_Practice,37,9999,9999,9999,3642491988
4322,11,Pattern_Practice,38,9999,9999,9999,3642991684
4322,11,Pattern_Practice,39,9999,9999,9999,3643491408
4322,11,Pattern_Practice,40,9999,9999,9999,3643991104
4322,11,Pattern_Practice,41,9999,9999,9999,3644491856
4322,11,Pattern_Practice,42,9999,9999,9999,3644991604
4322,11,Pattern_Practice,43,9999,9999,9999,3645491280
4322,11,Pattern_Practice,44,9999,9999,9999,3645991996
4322,11,Pattern_Practice,45,9999,9999,9999,3646491752
4322,11,Pattern_Practice,46,9999,9999,9999,3646991420
4322,11,Pattern_Practice,47,9999,9999,9999,3647491168
4322,11,Pattern_Practice,48,9999,9999,9999,3647991888
4322,11,Pattern_Practice,49,9999,9999,9999,3648491636
4322,11,Pattern_Practice,50,9999,9999,9999,3648991308
4322,11,Pattern_Practice,51,9999,9999,9999,3649492028
4322,11,Pattern_Practice,52,9999,9999,9999,3649991772
4322,11,Pattern_Practice,53,9999,9999,9999,3650491504
4322,11,Pattern_Practice,54,9999,9999,9999,3650991152
4322,11,Pattern_Practice,55,9999,9999,9999,3651491896
4322,11,Pattern_Practice,56,9999,9999,9999,3651991668
4322,11,Pattern_Practice,57,9999,9999,9999,3652491340
4322,11,Pattern_Practice,58,9999,9999,9999,3652992092
4322,11,Pattern_Practice,59,9999,9999,9999,3653491764
4322,11,Pattern_Practice,60,9999,9999,9999,3653991484
4322,11,Pattern_Practice,61,9999,9999,9999,3654491196
4322,11,Pattern_Practice,62,9999,9999,9999,3654991944
4322,11,Pattern_Practice,63,9999,9999,9999,3655491640
4322,11,Pattern_Practice,64,9999,9999,9999,3655991412
4322,11,Pattern_Practice,65,9999,9999,9999,3656491084
4322,11,Pattern_Practice,66,9999,9999,9999,3656991800
4322,11,Pattern_Practice,67,9999,9999,9999,3657491564
4322,11,Pattern_Practice,68,9999,9999,9999,3657991244
4322,11,Pattern_Practice,69,9999,9999,9999,3658491984
4322,11,Pattern_Practice,70,9999,9999,9999,3658991680
4322,11,Pattern_Practice,71,9999,9999,9999,3659491444
4322,11,Pattern_Practice,72,9999,9999,9999,3659991124
4322,11,Pattern_Practice,73,9999,9999,9999,3660491864
4322,11,Pattern_Practice,74,9999,9999,9999,3660991604
4322,11,Pattern_Practice,75,9999,9999,9999,3661491284
4322,11,Pattern_Practice,76,9999,9999,9999,3661992004
4322,11,Pattern_Practice,77,9999,9999,9999,3662491720
4322,11,Pattern_Practice,78,9999,9999,9999,3662991412
4322,11,Pattern_Practice,79,9999,9999,9999,3663491184
4323,13,Improv_Metronome,0,5,42,127,3693767972
4323,13,Improv_Metronome,1,5,42,127,3694267612
4323,13,Improv_Metronome,2,5,42,127,3694767404
4323,13,Improv_Metronome,3,5,42,127,3695268240
4323,13,Improv_Metronome,4,5,42,127,3695768180
4323,13,Improv_Metronome,5,1,48,66,3695839292
4323,13,Improv_Metronome,6,1,48,31,3695902100
4323,13,Improv_Metronome,7,1,38,46,3696255024
4323,13,Improv_Metronome,8,5,42,127,3696267548
4323,13,Improv_Metronome,9,1,38,30,3696365268
4323,13,Improv_Metronome,10,1,38,17,3696447604
4323,13,Improv_Metronome,11,5,42,127,3696768400
4323,13,Improv_Metronome,12,1,48,89,3696845640
4323,13,Improv_Metronome,13,1,48,40,3696935228
4323,13,Improv_Metronome,14,5,42,127,3697268148
4323,13,Improv_Metronome,15,1,38,53,3697269112
4323,13,Improv_Metronome,16,5,42,127,3697767916
4323,13,Improv_Metronome,17,1,38,59,3697832516
4323,13,Improv_Metronome,18,1,48,58,3697863612
4323,13,Improv_Metronome,19,1,48,23,3697936792
4323,13,Improv_Metronome,20,5,42,127,3698267440
4323,13,Improv_Metronome,21,1,38,53,3698346504
4323,13,Improv_Metronome,22,1,48,57,3698392264
4323,13,Improv_Metronome,23,5,42,127,3698768208
4323,13,Improv_Metronome,24,1,48,74,3698833436
4323,13,Improv_Metronome,25,1,48,65,3699145716
4323,13,Improv_Metronome,26,5,42,127,3699268108
4323,13,Improv_Metronome,27,1,38,68,3699449120
4323,13,Improv_Metronome,28,1,38,28,3699529204
4323,13,Improv_Metronome,29,5,42,127,3699767704
4323,13,Improv_Metronome,30,1,48,63,3700029800
4323,13,Improv_Metronome,31,5,42,127,3700268296
4323,13,Improv_Metronome,32,1,48,58,3700340624
4323,13,Improv_Metronome,33,1,48,32,3700386676
4323,13,Improv_Metronome,34,1,38,46,3700670692
4323,13,Improv_Metronome,35,5,42,127,3700768096
4323,13,Improv_Metronome,36,5,42,127,3701267888
4323,13,Improv_Metronome,37,1,38,63,3701315508
4323,13,Improv_Metronome,38,1,38,36,3701360768
4323,13,Improv_Metronome,39,5,42,127,3701767636
4323,13,Improv_Metronome,40,1,48,65,3701898084
4323,13,Improv_Metronome,41,1,48,40,3701951548
4323,13,Improv_Metronome,42,5,42,127,3702268284
4323,13,Improv_Metronome,43,1,48,75,3702531648
4323,13,Improv_Metronome,44,5,42,127,3702768052
4323,13,Improv_Metronome,45,1,48,66,3702865192
4323,13,Improv_Metronome,46,1,38,64,3703180116
4323,13,Improv_Metronome,47,1,38,49,3703225424
4323,13,Improv_Metronome,48,5,42,127,3703267644
4323,13,Improv_Metronome,49,5,42,127,3703768464
4323,13,Improv_Metronome,50,1,48,71,3703833140
4323,13,Improv_Metronome,51,1,48,42,3703899396
4323,13,Improv_Metronome,52,5,42,127,3704268068
4323,13,Improv_Metronome,53,1,38,69,3704437036
4323,13,Improv_Metronome,54,1,38,51,3704485408
4323,13,Improv_Metronome,55,5,42,127,3704767816
4323,13,Improv_Metronome,56,1,48,65,3705074484
4323,13,Improv_Metronome,57,5,42,127,3705267436
4323,13,Improv_Metronome,58,1,48,63,3705422096
4323,13,Improv_Metronome,59,1,48,35,3705502956
4323,13,Improv_Metronome,60,1,38,58,3705756748
4323,13,Improv_Metronome,61,5,42,127,3705768224
4323,13,Improv_Metronome,62,1,38,46,3705790628
4323,13,Improv_Metronome,63,5,42,127,3706268200
4323,13,Improv_Metronome,64,1,48,76,3706436924
4323,13,Improv_Metronome,65,1,48,40,3706489136
4323,13,Improv_Metronome,66,5,42,127,3706767724
4323,13,Improv_Metronome,67,1,38,74,3707033480
4323,13,Improv_Metronome,68,1,38,55,3707079612
4323,13,Improv_Metronome,69,5,42,127,3707267700
4323,13,Improv_Metronome,70,1,48,76,3707629272
4323,13,Improv_Metronome,71,5,42,127,3707768140
4323,13,Improv_Metronome,72,1,48,71,3707947632
4323,13,Improv_Metronome,73,1,48,45,3707992416
4323,13,Improv_Metronome,74,5,42,127,3708267816
4323,13,Improv_Metronome,75,1,38,63,3708272128
4323,13,Improv_Metronome,76,1,38,52,3708305472
4323,13,Improv_Metronome,77,5,42,127,3708767764
4323,13,Improv_Metronome,78,1,48,66,3708920700
4323,13,Improv_Metronome,79,1,48,42,3708958600
4323,13,Improv_Metronome,80,5,42,127,3709268308
4323,13,Improv_Metronome,81,1,38,68,3709504444
4323,13,Improv_Metronome,82,1,38,51,3709540128
4323,13,Improv_Metronome,83,5,42,127,3709767908
4323,13,Improv_Metronome,84,1,48,77,3710098988
4323,13,Improv_Metronome,85,1,48,43,3710142196
4323,13,Improv_Metronome,86,5,42,127,3710267876
4323,13,Improv_Metronome,87,1,48,79,3710414480
4323,13,Improv_Metronome,88,1,48,52,3710440040
4323,13,Improv_Metronome,89,1,38,76,3710718144
4323,13,Improv_Metronome,90,1,38,55,3710744600
4323,13,Improv_Metronome,91,5,42,127,3710767668
4323,13,Improv_Metronome,92,5,42,127,3711268268
4323,13,Improv_Metronome,93,1,48,77,3711395724
4323,13,Improv_Metronome,94,1,48,52,3711420236
4323,13,Improv_Metronome,95,5,42,127,3711767792
4323,13,Improv_Metronome,96,1,38,68,3711971620
4323,13,Improv_Metronome,97,1,38,53,3712005100
4323,13,Improv_Metronome,98,5,42,127,3712267764
4323,13,Improv_Metronome,99,1,48,78,3712570020
4323,13,Improv_Metronome,100,5,42,127,3712768432
4323,13,Improv_Metronome,101,1,48,73,3712894540
4323,13,Improv_Metronome,102,1,48,50,3712921144
4323,13,Improv_Metronome,103,1,38,65,3713183092
4323,13,Improv_Metronome,104,1,38,49,3713208504
4323,13,Improv_Metronome,105,5,42,127,3713268000
4323,13,Improv_Metronome,106,5,42,127,3713767924
4323,13,Improv_Metronome,107,1,48,80,3713804176
4323,13,Improv_Metronome,108,1,48,55,3713834520
4323,13,Improv_Metronome,109,5,42,127,3714267596
4323,13,Improv_Metronome,110,1,38,77,3714434620
4323,13,Improv_Metronome,111,1,38,58,3714464968
4323,13,Improv_Metronome,112,5,42,127,3714768092
4323,13,Improv_Metronome,113,1,48,81,3715052320
4323,13,Improv_Metronome,114,1,48,57,3715079532
4323,13,Improv_Metronome,115,5,42,127,3715267916
4323,13,Improv_Metronome,116,1,48,77,3715373132
4323,13,Improv_Metronome,117,1,48,56,3715395772
4323,13,Improv_Metronome,118,1,38,71,3715658388
4323,13,Improv_Metronome,119,1,38,50,3715682480
4323,13,Improv_Metronome,120,5,42,127,3715767632
4323,13,Improv_Metronome,121,5,42,127,3716268532
4323,13,Improv_Metronome,122,1,48,81,3716315104
4323,13,Improv_Metronome,123,1,48,51,3716346720
4323,13,Improv_Metronome,124,5,42,127,3716768128
4323,13,Improv_Metronome,125,1,38,80,3716933784
4323,13,Improv_Metronome,126,1,38,56,3716964224
4323,13,Improv_Metronome,127,5,42,127,3717267728
4323,13,Improv_Metronome,128,1,48,79,3717525404
4323,13,Improv_Metronome,129,1,48,47,3717565024
4323,13,Improv_Metronome,130,5,42,127,3717767624
4323,13,Improv_Metronome,131,1,48,77,3717851152
4323,13,Improv_Metronome,132,1,48,48,3717888672
4323,13,Improv_Metronome,133,1,38,72,3718162808
4323,13,Improv_Metronome,134,1,38,49,3718195096
4323,13,Improv_Metronome,135,5,42,127,3718268236
4323,13,Improv_Metronome,136,5,42,127,3718767864
4323,13,Improv_Metronome,137,1,48,86,3718849368
4323,13,Improv_Metronome,138,1,48,55,3718914572
4323,13,Improv_Metronome,139,5,42,127,3719267688
4323,13,Improv_Metronome,140,1,38,75,3719450020
4323,13,Improv_Metronome,141,1,38,55,3719482156
4323,13,Improv_Metronome,142,5,42,127,3719768452
4323,13,Improv_Metronome,143,1,48,85,3720064976
4323,13,Improv_Metronome,144,1,48,50,3720105124
4323,13,Improv_Metronome,145,5,42,127,3720268200
4323,13,Improv_Metronome,146,1,38,70,3720356312
4323,13,Improv_Metronome,147,1,38,52,3720384484
4323,13,Improv_Metronome,148,1,48,76,3720711212
4323,13,Improv_Metronome,149,1,48,47,3720745596
4323,13,Improv_Metronome,150,5,42,127,3720767920
4323,13,Improv_Metronome,151,1,48,85,3721071532
4323,13,Improv_Metronome,152,1,48,50,3721100464
4323,13,Improv_Metronome,153,5,42,127,3721267652
4323,13,Improv_Metronome,154,1,38,83,3721388160
4323,13,Improv_Metronome,155,1,38,56,3721422916
4323,13,Improv_Metronome,156,5,42,127,3721768452
4323,13,Improv_Metronome,157,1,48,85,3722036604
4323,13,Improv_Metronome,158,1,48,46,3722073076
4323,13,Improv_Metronome,159,5,42,127,3722267972
4323,13,Improv_Metronome,160,1,38,77,3722689936
4323,13,Improv_Metronome,161,1,38,57,3722724396
4323,13,Improv_Metronome,162,5,42,127,3722767660
4323,13,Improv_Metronome,163,5,42,127,3723267588
4323,13,Improv_Metronome,164,1,48,86,3723329344
4323,13,Improv_Metronome,165,1,48,38,3723381704
4323,13,Improv_Metronome,166,1,48,86,3723667284
4323,13,Improv_Metronome,167,1,48,55,3723699208
4323,13,Improv_Metronome,168,5,42,127,3723768276
4323,13,Improv_Metronome,169,1,38,70,3724012176
4323,13,Improv_Metronome,170,1,38,50,3724046036
4323,13,Improv_Metronome,171,5,42,127,3724267932
4323,13,Improv_Metronome,172,1,48,88,3724682712
4323,13,Improv_Metronome,173,1,48,52,3724724200
4323,13,Improv_Metronome,174,5,42,127,3724767696
4323,13,Improv_Metronome,175,5,42,127,3725268516
4323,13,Improv_Metronome,176,1,38,76,3725328636
4323,13,Improv_Metronome,177,1,38,54,3725359504
4323,13,Improv_Metronome,178,5,42,127,3725768044
4323,13,Improv_Metronome,179,1,48,94,3725967380
4323,13,Improv_Metronome,180,1,48,55,3726016048
4323,13,Improv_Metronome,181,1,38,61,3726178664
4323,13,Improv_Metronome,182,5,42,127,3726267632
4323,13,Improv_Metronome,183,1,48,88,3726351744
4323,13,Improv_Metronome,184,1,48,49,3726387848
4323,13,Improv_Metronome,185,1,38,68,3726557420
4323,13,Improv_Metronome,186,1,38,50,3726584768
4323,13,Improv_Metronome,187,5,42,127,3726767472
4323,13,Improv_Metronome,188,1,48,94,3726828480
4323,13,Improv_Metronome,189,1,38,20,3726839012
4323,13,Improv_Metronome,190,1,48,52,3726865544
4323,13,Improv_Metronome,191,5,42,127,3727268308
4323,13,Improv_Metronome,192,1,48,101,3727483572
4323,13,Improv_Metronome,193,1,48,55,3727525292
4323,13,Improv_Metronome,194,5,42,127,3727767980
4323,13,Improv_Metronome,195,1,38,74,3728114292
4323,13,Improv_Metronome,196,1,38,55,3728144788
4323,13,Improv_Metronome,197,5,42,127,3728267576
4323,13,Improv_Metronome,198,1,48,81,3728753264
4323,13,Improv_Metronome,199,5,42,127,3728768484
4323,13,Improv_Metronome,200,1,48,38,3728803300
4323,13,Improv_Metronome,201,1,48,76,3729073620
4323,13,Improv_Metronome,202,1,48,48,3729109504
4323,13,Improv_Metronome,203,5,42,127,3729268340
4323,13,Improv_Metronome,204,1,38,60,3729392556
4323,13,Improv_Metronome,205,1,38,43,3729423876
4323,13,Improv_Metronome,206,5,42,127,3729767716
4323,13,Improv_Metronome,207,1,48,76,3730013700
4323,13,Improv_Metronome,208,1,48,55,3730041528
4323,13,Improv_Metronome,209,5,42,127,3730267364
4323,13,Improv_Metronome,210,1,38,77,3730581092
4323,13,Improv_Metronome,211,1,38,55,3730612032
4323,13,Improv_Metronome,212,5,42,127,3730768156
4323,13,Improv_Metronome,213,1,48,68,3731148752
4323,13,Improv_Metronome,214,5,42,127,3731268224
4323,13,Improv_Metronome,215,1,38,63,3731415652
4323,13,Improv_Metronome,216,1,48,65,3731697416
4323,13,Improv_Metronome,217,5,42,127,3731767540
4323,13,Improv_Metronome,218,1,48,67,3732002240
4323,13,Improv_Metronome,219,5,42,127,3732268340
4323,13,Improv_Metronome,220,1,38,77,3732338428
4323,13,Improv_Metronome,221,1,38,58,3732366680
4323,13,Improv_Metronome,222,5,42,127,3732768388
4323,13,Improv_Metronome,223,1,48,76,3732914016
4323,13,Improv_Metronome,224,1,48,52,3732938380
4323,13,Improv_Metronome,225,5,42,127,3733267836
4323,13,Improv_Metronome,226,1,38,78,3733554688
4323,13,Improv_Metronome,227,1,38,54,3733591168
4323,13,Improv_Metronome,228,5,42,127,3733767584
4323,13,Improv_Metronome,229,1,48,78,3734144216
4323,13,Improv_Metronome,230,1,48,48,3734173584
4323,13,Improv_Metronome,231,5,42,127,3734268304
4323,13,Improv_Metronome,232,1,48,74,3734449540
4323,13,Improv_Metronome,233,1,38,78,3734743200
4323,13,Improv_Metronome,234,5,42,127,3734768140
4323,13,Improv_Metronome,235,1,38,56,3734773264
4323,13,Improv_Metronome,236,5,42,127,3735267672
4323,13,Improv_Metronome,237,1,48,92,3735389272
4323,13,Improv_Metronome,238,1,48,60,3735416644
4323,13,Improv_Metronome,239,5,42,127,3735768540
4323,13,Improv_Metronome,240,1,38,77,3736023528
4323,13,Improv_Metronome,241,1,38,57,3736057832
4323,13,Improv_Metronome,242,5,42,127,3736268212
4323,13,Improv_Metronome,243,1,48,89,3736605252
4323,13,Improv_Metronome,244,1,48,37,3736653176
4323,13,Improv_Metronome,245,5,42,127,3736768036
4323,13,Improv_Metronome,246,1,38,64,3736772952
4323,13,Improv_Metronome,247,1,48,78,3736947604
4323,13,Improv_Metronome,248,1,38,83,3737239096
4323,13,Improv_Metronome,249,5,42,127,3737267552
4323,13,Improv_Metronome,250,5,42,127,3737768228
4323,13,Improv_Metronome,251,1,48,92,3737855788
4323,13,Improv_Metronome,252,1,48,61,3737883072
4323,13,Improv_Metronome,253,5,42,127,3738267976
4323,13,Improv_Metronome,254,1,38,78,3738532832
4323,13,Improv_Metronome,255,1,38,58,3738572752
4323,13,Improv_Metronome,256,5,42,127,3738767724
4323,13,Improv_Metronome,257,1,48,82,3739106108
4323,13,Improv_Metronome,258,5,42,127,3739267420
4323,13,Improv_Metronome,259,1,48,86,3739438680
4323,13,Improv_Metronome,260,1,48,56,3739464236
4323,13,Improv_Metronome,261,5,42,127,3739768064
4323,13,Improv_Metronome,262,1,38,83,3739769028
4323,13,Improv_Metronome,263,1,38,59,3739801372
4323,13,Improv_Metronome,264,5,42,127,3740267960
4323,13,Improv_Metronome,265,1,48,88,3740393068
4323,13,Improv_Metronome,266,1,48,55,3740424464
4323,13,Improv_Metronome,267,5,42,127,3740767456
4323,13,Improv_Metronome,268,1,38,83,3741044504
4323,13,Improv_Metronome,269,1,38,63,3741078820
4323,13,Improv_Metronome,270,5,42,127,3741268300
4323,13,Improv_Metronome,271,1,48,91,3741591828
4323,13,Improv_Metronome,272,1,48,59,3741615292
4323,13,Improv_Metronome,273,1,38,70,3741746012
4323,13,Improv_Metronome,274,5,42,127,3741767968
4323,13,Improv_Metronome,275,1,38,53,3741773088
4323,13,Improv_Metronome,276,1,48,75,3741930768
4323,13,Improv_Metronome,277,1,38,87,3742219036
4323,13,Improv_Metronome,278,1,38,66,3742244372
4323,13,Improv_Metronome,279,5,42,127,3742267968
4323,13,Improv_Metronome,280,5,42,127,3742767448
4323,13,Improv_Metronome,281,1,48,84,3742894380
4323,13,Improv_Metronome,282,1,48,53,3742923832
4323,13,Improv_Metronome,283,5,42,127,3743268168
4323,13,Improv_Metronome,284,1,38,76,3743534972
4323,13,Improv_Metronome,285,1,38,55,3743568164
4323,13,Improv_Metronome,286,5,42,127,3743768064
4323,13,Improv_Metronome,287,1,48,87,3744123456
4323,13,Improv_Metronome,288,1,48,61,3744150360
4323,13,Improv_Metronome,289,5,42,127,3744267664
4323,13,Improv_Metronome,290,1,48,76,3744444260
4323,13,Improv_Metronome,291,5,42,127,3744768484
4323,13,Improv_Metronome,292,1,38,76,3744775268
4323,13,Improv_Metronome,293,1,38,52,3744804412
4323,13,Improv_Metronome,294,5,42,127,3745268156
4323,13,Improv_Metronome,295,1,48,79,3745400696
4323,13,Improv_Metronome,296,1,48,50,3745430220
4323,13,Improv_Metronome,297,5,42,127,3745767976
4323,13,Improv_Metronome,298,1,38,81,3746024612
4323,13,Improv_Metronome,299,1,38,59,3746056232
4323,13,Improv_Metronome,300,5,42,127,3746267428
4323,13,Improv_Metronome,301,1,48,75,3746602896
4323,13,Improv_Metronome,302,1,48,53,3746630028
4323,13,Improv_Metronome,303,5,42,127,3746768296
4323,13,Improv_Metronome,304,1,38,67,3746780392
4323,13,Improv_Metronome,305,1,38,49,3746805952
4323,13,Improv_Metronome,306,1,48,85,3746977612
4323,13,Improv_Metronome,307,1,38,94,3747257364
4323,13,Improv_Metronome,308,1,48,20,3747267328
4323,13,Improv_Metronome,309,5,42,127,3747269268
4323,13,Improv_Metronome,310,1,38,69,3747282840
4323,13,Improv_Metronome,311,5,42,127,3747767796
4323,13,Improv_Metronome,312,1,48,84,3747845036
4323,13,Improv_Metronome,313,1,48,58,3747865888
4323,13,Improv_Metronome,314,5,42,127,3748268368
4323,13,Improv_Metronome,315,1,38,82,3748456488
4323,13,Improv_Metronome,316,1,38,59,3748491840
4323,13,Improv_Metronome,317,5,42,127,3748768188
4323,13,Improv_Metronome,318,1,48,88,3749035072
4323,13,Improv_Metronome,319,1,48,51,3749066460
4323,13,Improv_Metronome,320,5,42,127,3749267788
4323,13,Improv_Metronome,321,1,48,84,3749352136
4323,13,Improv_Metronome,322,1,38,78,3749675712
4323,13,Improv_Metronome,323,1,38,60,3749703664
4323,13,Improv_Metronome,324,5,42,127,3749767456
4323,13,Improv_Metronome,325,5,42,127,3750268352
4323,13,Improv_Metronome,326,1,48,88,3750285608
4323,13,Improv_Metronome,327,1,48,58,3750315432
4323,13,Improv_Metronome,328,5,42,127,3750767952
4323,13,Improv_Metronome,329,1,38,90,3750884540
4323,13,Improv_Metronome,330,1,48,21,3750894388
4323,13,Improv_Metronome,331,1,38,66,3750913148
4323,13,Improv_Metronome,332,5,42,127,3751267656
4323,13,Improv_Metronome,333,1,48,75,3751407424
4323,13,Improv_Metronome,334,1,48,53,3751432240
4323,13,Improv_Metronome,335,1,38,69,3751567024
4323,13,Improv_Metronome,336,1,38,49,3751594824
4323,13,Improv_Metronome,337,1,48,73,3751744628
4323,13,Improv_Metronome,338,5,42,127,3751768744
4323,13,Improv_Metronome,339,1,38,93,3752041624
4323,13,Improv_Metronome,340,1,38,71,3752066728
4323,13,Improv_Metronome,341,5,42,127,3752268104
4323,13,Improv_Metronome,342,1,48,91,3752665680
4323,13,Improv_Metronome,343,1,48,56,3752692212
4323,13,Improv_Metronome,344,5,42,127,3752767944
4323,13,Improv_Metronome,345,5,42,127,3753267720
4323,13,Improv_Metronome,346,1,38,91,3753316564
4323,13,Improv_Metronome,347,1,38,65,3753348028
4323,13,Improv_Metronome,348,5,42,127,3753768216
4323,13,Improv_Metronome,349,1,48,95,3753929704
4323,13,Improv_Metronome,350,1,48,51,3753965508
4323,13,Improv_Metronome,351,1,48,91,3754250192
4323,13,Improv_Metronome,352,5,42,127,3754267880
4323,13,Improv_Metronome,353,1,48,58,3754278168
4323,13,Improv_Metronome,354,1,38,100,3754578776
4323,13,Improv_Metronome,355,1,48,21,3754588264
4323,13,Improv_Metronome,356,1,38,69,3754606812
4323,13,Improv_Metronome,357,5,42,127,3754767696
4323,13,Improv_Metronome,358,1,48,87,3755235880
4323,13,Improv_Metronome,359,5,42,127,3755267552
4323,13,Improv_Metronome,360,1,48,57,3755269700
4323,13,Improv_Metronome,361,5,42,127,3755768132
4323,13,Improv_Metronome,362,1,38,94,3755890876
4323,13,Improv_Metronome,363,1,38,67,3755923988
4323,13,Improv_Metronome,364,5,42,127,3756267880
4323,13,Improv_Metronome,365,1,48,86,3756489884
4323,13,Improv_Metronome,366,1,48,43,3756543932
4323,13,Improv_Metronome,367,1,38,62,3756687556
4323,13,Improv_Metronome,368,1,38,47,3756714828
4323,13,Improv_Metronome,369,5,42,127,3756767748
4323,13,Improv_Metronome,370,1,48,82,3756874444
4323,13,Improv_Metronome,371,1,48,53,3756908404
4323,13,Improv_Metronome,372,1,38,91,3757162492
4323,13,Improv_Metronome,373,1,38,66,3757187460
4323,13,Improv_Metronome,374,5,42,127,3757268276
4323,13,Improv_Metronome,375,5,42,127,3757767976
4323,13,Improv_Metronome,376,1,48,97,3757820536
4323,13,Improv_Metronome,377,1,48,47,3757857840
4323,13,Improv_Metronome,378,1,48,43,3757881452
4323,13,Improv_Metronome,379,5,42,127,3758267628
4323,13,Improv_Metronome,380,1,38,94,3758452672
4323,13,Improv_Metronome,381,1,48,20,3758462532
4323,13,Improv_Metronome,382,1,38,62,3758483228
4323,13,Improv_Metronome,383,5,42,127,3758767552
4323,13,Improv_Metronome,384,1,48,81,3759079684
4323,13,Improv_Metronome,385,1,48,31,3759163060
4323,13,Improv_Metronome,386,5,42,127,3759268420
4323,13,Improv_Metronome,387,1,48,76,3759410444
4323,13,Improv_Metronome,388,1,48,49,3759445052
4323,13,Improv_Metronome,389,1,38,86,3759719960
4323,13,Improv_Metronome,390,1,48,20,3759729588
4323,13,Improv_Metronome,391,1,38,61,3759747224
4323,13,Improv_Metronome,392,5,42,127,3759767972
4323,13,Improv_Metronome,393,5,42,127,3760267572
4323,13,Improv_Metronome,394,1,48,96,3760337556
4323,13,Improv_Metronome,395,1,48,54,3760370444
4323,13,Improv_Metronome,396,5,42,127,3760768440
4323,13,Improv_Metronome,397,1,38,97,3760968204
4323,13,Improv_Metronome,398,1,38,63,3761006052
4323,13,Improv_Metronome,399,1,38,53,3761030340
4323,13,Improv_Metronome,400,5,42,127,3761268168
4323,13,Improv_Metronome,401,1,48,91,3761571852
4323,13,Improv_Metronome,402,1,48,53,3761610716
4323,13,Improv_Metronome,403,1,38,76,3761740692
4323,13,Improv_Metronome,404,5,42,127,3761767832
4323,13,Improv_Metronome,405,1,38,53,3761777440
4323,13,Improv_Metronome,406,1,48,68,3761913476
4323,13,Improv_Metronome,407,1,48,54,3761937840
4323,13,Improv_Metronome,408,1,38,97,3762208984
4323,13,Improv_Metronome,409,1,38,62,3762246508
4323,13,Improv_Metronome,410,5,42,127,3762267564
4323,13,Improv_Metronome,411,1,38,55,3762270384
4323,13,Improv_Metronome,412,5,42,127,3762768264
4323,13,Improv_Metronome,413,1,48,95,3762839848
4323,13,Improv_Metronome,414,1,48,56,3762876100
4323,13,Improv_Metronome,415,5,42,127,3763267864
4323,13,Improv_Metronome,416,1,38,92,3763522472
4323,13,Improv_Metronome,417,1,38,64,3763565640
4323,13,Improv_Metronome,418,1,38,52,3763592616
4323,13,Improv_Metronome,0,9999,9999,9999,3693765684
4323,13,Improv_Metronome,1,9999,9999,9999,3694265396
4323,13,Improv_Metronome,2,9999,9999,9999,3694765116
4323,13,Improv_Metronome,3,9999,9999,9999,3695265876
4323,13,Improv_Metronome,4,9999,9999,9999,3695765592
4323,13,Improv_Metronome,5,9999,9999,9999,3696265336
4323,13,Improv_Metronome,6,9999,9999,9999,3696766040
4323,13,Improv_Metronome,7,9999,9999,9999,3697265784
4323,13,Improv_Metronome,8,9999,9999,9999,3697765480
4323,13,Improv_Metronome,9,9999,9999,9999,3698265152
4323,13,Improv_Metronome,10,9999,9999,9999,3698765920
4323,13,Improv_Metronome,11,9999,9999,9999,3699265596
4323,13,Improv_Metronome,12,9999,9999,9999,3699765340
4323,13,Improv_Metronome,13,9999,9999,9999,3700266084
4323,13,Improv_Metronome,14,9999,9999,9999,3700765808
4323,13,Improv_Metronome,15,9999,9999,9999,3701265524
4323,13,Improv_Metronome,16,9999,9999,9999,3701765196
4323,13,Improv_Metronome,17,9999,9999,9999,3702265920
4323,13,Improv_Metronome,18,9999,9999,9999,3702765688
4323,13,Improv_Metronome,19,9999,9999,9999,3703265356
4323,13,Improv_Metronome,20,9999,9999,9999,3703766104
4323,13,Improv_Metronome,21,9999,9999,9999,3704265776
4323,13,Improv_Metronome,22,9999,9999,9999,3704765528
4323,13,Improv_Metronome,23,9999,9999,9999,3705265224
4323,13,Improv_Metronome,24,9999,9999,9999,3705766008
4323,13,Improv_Metronome,25,9999,9999,9999,3706265688
4323,13,Improv_Metronome,26,9999,9999,9999,3706765364
4323,13,Improv_Metronome,27,9999,9999,9999,3707265112
4323,13,Improv_Metronome,28,9999,9999,9999,3707765852
4323,13,Improv_Metronome,29,9999,9999,9999,3708265528
4323,13,Improv_Metronome,30,9999,9999,9999,3708765252
4323,13,Improv_Metronome,31,9999,9999,9999,3709266020
4323,13,Improv_Metronome,32,9999,9999,9999,3709765692
4323,13,Improv_Metronome,33,9999,9999,9999,3710265440
4323,13,Improv_Metronome,34,9999,9999,9999,3710765156
4323,13,Improv_Metronome,35,9999,9999,9999,3711265904
4323,13,Improv_Metronome,36,9999,9999,9999,3711765580
4323,13,Improv_Metronome,37,9999,9999,9999,3712265324
4323,13,Improv_Metronome,38,9999,9999,9999,3712766068
4323,13,Improv_Metronome,39,9999,9999,9999,3713265784
4323,13,Improv_Metronome,40,9999,9999,9999,3713765484
4323,13,Improv_Metronome,41,9999,9999,9999,3714265156
4323,13,Improv_Metronome,42,9999,9999,9999,3714765880
4323,13,Improv_Metronome,43,9999,9999,9999,3715265624
4323,13,Improv_Metronome,44,9999,9999,9999,3715765344
4323,13,Improv_Metronome,45,9999,9999,9999,3716266092
4323,13,Improv_Metronome,46,9999,9999,9999,3716765768
4323,13,Improv_Metronome,47,9999,9999,9999,3717265512
4323,13,Improv_Metronome,48,9999,9999,9999,3717765184
4323,13,Improv_Metronome,49,9999,9999,9999,3718265948
4323,13,Improv_Metronome,50,9999,9999,9999,3718765652
4323,13,Improv_Metronome,51,9999,9999,9999,3719265396
4323,13,Improv_Metronome,52,9999,9999,9999,3719766092
4323,13,Improv_Metronome,53,9999,9999,9999,3720265836
4323,13,Improv_Metronome,54,9999,9999,9999,3720765560
4323,13,Improv_Metronome,55,9999,9999,9999,3721265216
4323,13,Improv_Metronome,56,9999,9999,9999,3721765940
4323,13,Improv_Metronome,57,9999,9999,9999,3722265684
4323,13,Improv_Metronome,58,9999,9999,9999,3722765372
4323,13,Improv_Metronome,59,9999,9999,9999,3723265076
4323,13,Improv_Metronome,60,9999,9999,9999,3723765840
4323,13,Improv_Metronome,61,9999,9999,9999,3724265568
4323,13,Improv_Metronome,62,9999,9999,9999,3724765260
4323,13,Improv_Metronome,63,9999,9999,9999,3725266004
4323,13,Improv_Metronome,64,9999,9999,9999,3725765752
4323,13,Improv_Metronome,65,9999,9999,9999,3726265420
4323,13,Improv_Metronome,66,9999,9999,9999,3726765108
4323,13,Improv_Metronome,67,9999,9999,9999,3727265868
4323,13,Improv_Metronome,68,9999,9999,9999,3727765616
4323,13,Improv_Metronome,69,9999,9999,9999,3728265288
4323,13,Improv_Metronome,70,9999,9999,9999,3728766044
4323,13,Improv_Metronome,71,9999,9999,9999,3729265756
4323,13,Improv_Metronome,72,9999,9999,9999,3729765428
4323,13,Improv_Metronome,73,9999,9999,9999,3730265148
4323,13,Improv_Metronome,74,9999,9999,9999,3730765944
4323,13,Improv_Metronome,75,9999,9999,9999,3731265640
4323,13,Improv_Metronome,76,9999,9999,9999,3731765324
4323,13,Improv_Metronome,77,9999,9999,9999,3732266052
4323,13,Improv_Metronome,78,9999,9999,9999,3732765800
4323,13,Improv_Metronome,79,9999,9999,9999,3733265472
4323,13,Improv_Metronome,80,9999,9999,9999,3733765220
4323,13,Improv_Metronome,81,9999,9999,9999,3734265956
4323,13,Improv_Metronome,82,9999,9999,9999,3734765628
4323,13,Improv_Metronome,83,9999,9999,9999,3735265384
4323,13,Improv_Metronome,84,9999,9999,9999,3735766100
4323,13,Improv_Metronome,85,9999,9999,9999,3736265848
4323,13,Improv_Metronome,86,9999,9999,9999,3736765524
4323,13,Improv_Metronome,87,9999,9999,9999,3737265264
4323,13,Improv_Metronome,88,9999,9999,9999,3737765940
4323,13,Improv_Metronome,89,9999,9999,9999,3738265684
4323,13,Improv_Metronome,90,9999,9999,9999,3738765432
4323,13,Improv_Metronome,91,9999,9999,9999,3739265128
4323,13,Improv_Metronome,92,9999,9999,9999,3739765848
4323,13,Improv_Metronome,93,9999,9999,9999,3740265520
4323,13,Improv_Metronome,94,9999,9999,9999,3740765244
4323,13,Improv_Metronome,95,9999,9999,9999,3741266012
4323,13,Improv_Metronome,96,9999,9999,9999,3741765752
4323,13,Improv_Metronome,97,9999,9999,9999,3742265456
4323,13,Improv_Metronome,98,9999,9999,9999,3742765160
4323,13,Improv_Metronome,99,9999,9999,9999,3743265880
4323,13,Improv_Metronome,100,9999,9999,9999,3743765552
4323,13,Improv_Metronome,101,9999,9999,9999,3744265300
4323,13,Improv_Metronome,102,9999,9999,9999,3744766044
4323,13,Improv_Metronome,103,9999,9999,9999,3745265716
4323,13,Improv_Metronome,104,9999,9999,9999,3745765464
4323,13,Improv_Metronome,105,9999,9999,9999,3746265140
4323,13,Improv_Metronome,106,9999,9999,9999,3746765936
4323,13,Improv_Metronome,107,9999,9999,9999,3747265652
4323,13,Improv_Metronome,108,9999,9999,9999,3747765360
4323,13,Improv_Metronome,109,9999,9999,9999,3748266080
4323,13,Improv_Metronome,110,9999,9999,9999,3748765752
4323,13,Improv_Metronome,111,9999,9999,9999,3749265500
4323,13,Improv_Metronome,112,9999,9999,9999,3749765168
4323,13,Improv_Metronome,113,9999,9999,9999,3750265916
4323,13,Improv_Metronome,114,9999,9999,9999,3750765664
4323,13,Improv_Metronome,115,9999,9999,9999,3751265364
4323,13,Improv_Metronome,116,9999,9999,9999,3751766084
4323,13,Improv_Metronome,117,9999,9999,9999,3752265816
4323,13,Improv_Metronome,118,9999,9999,9999,3752765504
4323,13,Improv_Metronome,119,9999,9999,9999,3753265208
4323,13,Improv_Metronome,120,9999,9999,9999,3753766000
4323,13,Improv_Metronome,121,9999,9999,9999,3754265668
4323,13,Improv_Metronome,122,9999,9999,9999,3754765404
4323,13,Improv_Metronome,123,9999,9999,9999,3755265116
4323,13,Improv_Metronome,124,9999,9999,9999,3755765840
4323,13,Improv_Metronome,125,9999,9999,9999,3756265592
4323,13,Improv_Metronome,126,9999,9999,9999,3756765236
4323,13,Improv_Metronome,127,9999,9999,9999,3757265988
4323,13,Improv_Metronome,128,9999,9999,9999,3757765688
4323,13,Improv_Metronome,129,9999,9999,9999,3758265412
4323,13,Improv_Metronome,130,9999,9999,9999,3758765112
4323,13,Improv_Metronome,131,9999,9999,9999,3759265908
4323,13,Improv_Metronome,132,9999,9999,9999,3759765608
4323,13,Improv_Metronome,133,9999,9999,9999,3760265284
4323,13,Improv_Metronome,134,9999,9999,9999,3760766004
4323,13,Improv_Metronome,135,9999,9999,9999,3761265728
4323,13,Improv_Metronome,136,9999,9999,9999,3761765468
4323,13,Improv_Metronome,137,9999,9999,9999,3762265200
4323,13,Improv_Metronome,138,9999,9999,9999,3762765900
4323,13,Improv_Metronome,139,9999,9999,9999,3763265652
4324,14,Improv_Melody,0,2,48,80,3824598536
4324,14,Improv_Melody,1,2,72,80,3824600688
4324,14,Improv_Melody,2,5,42,127,3824603152
4324,14,Improv_Melody,3,5,42,110,3825095920
4324,14,Improv_Melody,4,5,42,110,3825595788
4324,14,Improv_Melody,5,5,42,110,3826095584
4324,14,Improv_Melody,6,5,42,127,3826596204
4324,14,Improv_Melody,7,5,42,110,3827095780
4324,14,Improv_Melody,8,5,42,110,3827595720
4324,14,Improv_Melody,9,5,42,110,3828096564
4324,14,Improv_Melody,10,2,43,80,3828598716
4324,14,Improv_Melody,11,2,67,80,3828600716
4324,14,Improv_Melody,12,5,42,127,3828603108
4324,14,Improv_Melody,13,5,42,110,3829095724
4324,14,Improv_Melody,14,5,42,110,3829595596
4324,14,Improv_Melody,15,5,42,110,3830096336
4324,14,Improv_Melody,16,5,42,127,3830595912
4324,14,Improv_Melody,17,5,42,110,3831095632
4324,14,Improv_Melody,18,5,42,110,3831596400
4324,14,Improv_Melody,19,5,42,110,3832095972
4324,14,Improv_Melody,20,2,45,80,3832598424
4324,14,Improv_Melody,21,2,69,80,3832600424
4324,14,Improv_Melody,22,5,42,127,3832603112
4324,14,Improv_Melody,23,5,42,110,3833095432
4324,14,Improv_Melody,24,5,42,110,3833596276
4324,14,Improv_Melody,25,5,42,110,3834095996
4324,14,Improv_Melody,26,5,42,127,3834595644
4324,14,Improv_Melody,27,5,42,110,3835096412
4324,14,Improv_Melody,28,5,42,110,3835596356
4324,14,Improv_Melody,29,5,42,110,3836095928
4324,14,Improv_Melody,30,2,41,80,3836598156
4324,14,Improv_Melody,31,2,65,80,3836600232
4324,14,Improv_Melody,32,5,42,127,3836602768
4324,14,Improv_Melody,33,5,42,110,3837096284
4324,14,Improv_Melody,34,5,42,110,3837596228
4324,14,Improv_Melody,35,5,42,110,3838095724
4324,14,Improv_Melody,36,5,42,127,3838595372
4324,14,Improv_Melody,37,5,42,110,3839096364
4324,14,Improv_Melody,38,5,42,110,3839595788
4324,14,Improv_Melody,39,5,42,110,3840095584
4324,14,Improv_Melody,40,2,48,80,3840598984
4324,14,Improv_Melody,41,2,72,80,3840601768
4324,14,Improv_Melody,42,5,42,127,3840603856
4324,14,Improv_Melody,43,5,42,110,3841096148
4324,14,Improv_Melody,44,5,42,110,3841595648
4324,14,Improv_Melody,45,1,48,21,3841694160
4324,14,Improv_Melody,46,1,38,20,3842067628
4324,14,Improv_Melody,47,5,42,110,3842095492
4324,14,Improv_Melody,48,1,38,17,3842120064
4324,14,Improv_Melody,49,1,48,57,3842575608
4324,14,Improv_Melody,50,5,42,127,3842596292
4324,14,Improv_Melody,51,1,38,43,3842873924
4324,14,Improv_Melody,52,5,42,110,3843095900
4324,14,Improv_Melody,53,1,48,48,3843102836
4324,14,Improv_Melody,54,5,42,110,3843595600
4324,14,Improv_Melody,55,1,48,51,3843678852
4324,14,Improv_Melody,56,5,42,110,3844096348
4324,14,Improv_Melody,57,1,48,54,3844117044
4324,14,Improv_Melody,58,1,38,46,3844591964
4324,14,Improv_Melody,59,2,43,80,3844598772
4324,14,Improv_Melody,60,2,67,80,3844600924
4324,14,Improv_Melody,61,5,42,127,3844603460
4324,14,Improv_Melody,62,1,48,44,3845091080
4324,14,Improv_Melody,63,5,42,110,3845096276
4324,14,Improv_Melody,64,1,38,56,3845536624
4324,14,Improv_Melody,65,5,42,110,3845595604
4324,14,Improv_Melody,66,1,48,41,3846030716
4324,14,Improv_Melody,67,5,42,110,3846096204
4324,14,Improv_Melody,68,1,48,44,3846548744
4324,14,Improv_Melody,69,5,42,127,3846596200
4324,14,Improv_Melody,70,1,38,50,3847001244
4324,14,Improv_Melody,71,5,42,110,3847096412
4324,14,Improv_Melody,72,1,48,43,3847507648
4324,14,Improv_Melody,73,5,42,110,3847596496
4324,14,Improv_Melody,74,1,48,40,3848011464
4324,14,Improv_Melody,75,5,42,110,3848096124
4324,14,Improv_Melody,76,1,38,51,3848474064
4324,14,Improv_Melody,77,2,45,80,3848598388
4324,14,Improv_Melody,78,2,69,80,3848600536
4324,14,Improv_Melody,79,5,42,127,3848603076
4324,14,Improv_Melody,80,1,48,43,3849060116
4324,14,Improv_Melody,81,5,42,110,3849095460
4324,14,Improv_Melody,82,1,38,54,3849559420
4324,14,Improv_Melody,83,5,42,110,3849596280
4324,14,Improv_Melody,84,1,48,41,3850063908
4324,14,Improv_Melody,85,5,42,110,3850095980
4324,14,Improv_Melody,86,1,48,45,3850576996
4324,14,Improv_Melody,87,5,42,127,3850595832
4324,14,Improv_Melody,88,1,38,57,3850999880
4324,14,Improv_Melody,89,5,42,110,3851096388
4324,14,Improv_Melody,90,1,48,35,3851557892
4324,14,Improv_Melody,91,5,42,110,3851596076
4324,14,Improv_Melody,92,1,48,40,3852056392
4324,14,Improv_Melody,93,5,42,110,3852095928
4324,14,Improv_Melody,94,1,38,54,3852553252
4324,14,Improv_Melody,95,2,41,80,3852598360
4324,14,Improv_Melody,96,2,65,80,3852600584
4324,14,Improv_Melody,97,5,42,127,3852603116
4324,14,Improv_Melody,98,1,48,34,3853041368
4324,14,Improv_Melody,99,5,42,110,3853096236
4324,14,Improv_Melody,100,1,48,43,3853575404
4324,14,Improv_Melody,101,5,42,110,3853596160
4324,14,Improv_Melody,102,1,38,55,3854036876
4324,14,Improv_Melody,103,5,42,110,3854095860
4324,14,Improv_Melody,104,1,48,39,3854551616
4324,14,Improv_Melody,105,5,42,127,3854595412
4324,14,Improv_Melody,106,1,48,45,3855046752
4324,14,Improv_Melody,107,5,42,110,3855096160
4324,14,Improv_Melody,108,1,38,51,3855544808
4324,14,Improv_Melody,109,1,38,39,3855575676
4324,14,Improv_Melody,110,5,42,110,3855595988
4324,14,Improv_Melody,111,1,48,43,3856034240
4324,14,Improv_Melody,112,5,42,110,3856095760
4324,14,Improv_Melody,113,1,48,41,3856575076
4324,14,Improv_Melody,114,2,48,80,3856598940
4324,14,Improv_Melody,115,2,72,80,3856600940
4324,14,Improv_Melody,116,5,42,127,3856603552
4324,14,Improv_Melody,117,1,38,55,3857059164
4324,14,Improv_Melody,118,1,38,46,3857088612
4324,14,Improv_Melody,119,5,42,110,3857096052
4324,14,Improv_Melody,120,1,48,48,3857561156
4324,14,Improv_Melody,121,5,42,110,3857595900
4324,14,Improv_Melody,122,1,48,47,3858053528
4324,14,Improv_Melody,123,5,42,110,3858095600
4324,14,Improv_Melody,124,1,38,55,3858549116
4324,14,Improv_Melody,125,1,38,47,3858577136
4324,14,Improv_Melody,126,5,42,127,3858596176
4324,14,Improv_Melody,127,1,48,40,3859030960
4324,14,Improv_Melody,128,5,42,110,3859095876
4324,14,Improv_Melody,129,1,48,41,3859542556
4324,14,Improv_Melody,130,5,42,110,3859595872
4324,14,Improv_Melody,131,1,38,53,3860051084
4324,14,Improv_Melody,132,1,38,48,3860078532
4324,14,Improv_Melody,133,5,42,110,3860096300
4324,14,Improv_Melody,134,1,48,45,3860552548
4324,14,Improv_Melody,135,2,43,80,3860598728
4324,14,Improv_Melody,136,2,67,80,3860600728
4324,14,Improv_Melody,137,5,42,127,3860603564
4324,14,Improv_Melody,138,1,48,47,3861087748
4324,14,Improv_Melody,139,5,42,110,3861096012
4324,14,Improv_Melody,140,1,38,58,3861560120
4324,14,Improv_Melody,141,1,38,43,3861588744
4324,14,Improv_Melody,142,5,42,110,3861595616
4324,14,Improv_Melody,143,1,48,49,3862014544
4324,14,Improv_Melody,144,5,42,110,3862096112
4324,14,Improv_Melody,145,1,48,49,3862546484
4324,14,Improv_Melody,146,5,42,127,3862595888
4324,14,Improv_Melody,147,1,38,62,3862998388
4324,14,Improv_Melody,148,1,38,46,3863024996
4324,14,Improv_Melody,149,5,42,110,3863095572
4324,14,Improv_Melody,150,1,48,51,3863530608
4324,14,Improv_Melody,151,5,42,110,3863596464
4324,14,Improv_Melody,152,1,48,51,3864064040
4324,14,Improv_Melody,153,5,42,110,3864096016
4324,14,Improv_Melody,154,1,38,60,3864541672
4324,14,Improv_Melody,155,2,45,80,3864598220
4324,14,Improv_Melody,156,2,69,80,3864600444
4324,14,Improv_Melody,157,5,42,127,3864602836
4324,14,Improv_Melody,158,1,48,47,3865064652
4324,14,Improv_Melody,159,5,42,110,3865095652
4324,14,Improv_Melody,160,1,48,52,3865568320
4324,14,Improv_Melody,161,5,42,110,3865596476
4324,14,Improv_Melody,162,1,38,58,3866002864
4324,14,Improv_Melody,163,5,42,110,3866096028
4324,14,Improv_Melody,164,1,48,49,3866551256
4324,14,Improv_Melody,165,5,42,127,3866595656
4324,14,Improv_Melody,166,1,48,54,3867057168
4324,14,Improv_Melody,167,5,42,110,3867096476
4324,14,Improv_Melody,168,1,38,58,3867520296
4324,14,Improv_Melody,169,1,38,47,3867545176
4324,14,Improv_Melody,170,5,42,110,3867596004
4324,14,Improv_Melody,171,1,48,51,3868020716
4324,14,Improv_Melody,172,5,42,110,3868095780
4324,14,Improv_Melody,173,1,38,57,3868558640
4324,14,Improv_Melody,174,1,38,47,3868585840
4324,14,Improv_Melody,175,2,41,80,3868598036
4324,14,Improv_Melody,176,2,65,80,3868600188
4324,14,Improv_Melody,177,5,42,127,3868602800
4324,14,Improv_Melody,178,1,48,57,3869059084
4324,14,Improv_Melody,179,5,42,110,3869096588
4324,14,Improv_Melody,180,1,48,59,3869547936
4324,14,Improv_Melody,181,5,42,110,3869596140
4324,14,Improv_Melody,182,1,38,59,3870054212
4324,14,Improv_Melody,183,1,38,48,3870087332
4324,14,Improv_Melody,184,5,42,110,3870095820
4324,14,Improv_Melody,185,1,48,64,3870557484
4324,14,Improv_Melody,186,5,42,127,3870595520
4324,14,Improv_Melody,187,1,38,65,3871060520
4324,14,Improv_Melody,188,1,38,50,3871087304
4324,14,Improv_Melody,189,5,42,110,3871096244
4324,14,Improv_Melody,190,1,48,59,3871593908
4324,14,Improv_Melody,191,5,42,110,3871595796
4324,14,Improv_Melody,192,1,48,62,3872059228
4324,14,Improv_Melody,193,5,42,110,3872095568
4324,14,Improv_Melody,194,1,38,72,3872575008
4324,14,Improv_Melody,195,2,48,80,3872598644
4324,14,Improv_Melody,196,2,72,80,3872601436
4324,14,Improv_Melody,197,1,38,54,3872603356
4324,14,Improv_Melody,198,5,42,127,3872607012
4324,14,Improv_Melody,199,5,42,110,3873096000
4324,14,Improv_Melody,200,1,48,59,3873096968
4324,14,Improv_Melody,201,1,48,59,3873583388
4324,14,Improv_Melody,202,5,42,110,3873595696
4324,14,Improv_Melody,203,1,38,67,3874049800
4324,14,Improv_Melody,204,1,38,52,3874077908
4324,14,Improv_Melody,205,5,42,110,3874095520
4324,14,Improv_Melody,206,1,48,61,3874560624
4324,14,Improv_Melody,207,5,42,127,3874596268
4324,14,Improv_Melody,208,5,42,110,3875096124
4324,14,Improv_Melody,209,1,38,64,3875099696
4324,14,Improv_Melody,210,1,38,48,3875125176
4324,14,Improv_Melody,211,1,48,54,3875590224
4324,14,Improv_Melody,212,5,42,110,3875595572
4324,14,Improv_Melody,213,1,48,64,3876076980
4324,14,Improv_Melody,214,5,42,110,3876096320
4324,14,Improv_Melody,215,1,38,64,3876557908
4324,14,Improv_Melody,216,2,43,80,3876598444
4324,14,Improv_Melody,217,2,67,80,3876600748
4324,14,Improv_Melody,218,5,42,127,3876603284
4324,14,Improv_Melody,219,1,48,61,3877078192
4324,14,Improv_Melody,220,5,42,110,3877095732
4324,14,Improv_Melody,221,1,38,67,3877554628
4324,14,Improv_Melody,222,1,38,48,3877586172
4324,14,Improv_Melody,223,5,42,110,3877595560
4324,14,Improv_Melody,224,1,48,61,3878039872
4324,14,Improv_Melody,225,5,42,110,3878096232
4324,14,Improv_Melody,226,1,48,55,3878562836
4324,14,Improv_Melody,227,5,42,127,3878596156
4324,14,Improv_Melody,228,1,38,65,3879022888
4324,14,Improv_Melody,229,1,38,48,3879049720
4324,14,Improv_Melody,230,5,42,110,3879095688
4324,14,Improv_Melody,231,1,48,58,3879525412
4324,14,Improv_Melody,232,5,42,110,3879596284
4324,14,Improv_Melody,233,1,48,60,3880033112
4324,14,Improv_Melody,234,5,42,110,3880096132
4324,14,Improv_Melody,235,1,38,76,3880512440
4324,14,Improv_Melody,236,1,38,59,3880531792
4324,14,Improv_Melody,237,2,45,80,3880598240
4324,14,Improv_Melody,238,2,69,80,3880600696
4324,14,Improv_Melody,239,5,42,127,3880603304
4324,14,Improv_Melody,240,1,48,63,3881055844
4324,14,Improv_Melody,241,5,42,110,3881095528
4324,14,Improv_Melody,242,1,48,59,3881548564
4324,14,Improv_Melody,243,5,42,110,3881596200
4324,14,Improv_Melody,244,1,38,62,3882005104
4324,14,Improv_Melody,245,5,42,110,3882096120
4324,14,Improv_Melody,246,1,48,58,3882537932
4324,14,Improv_Melody,247,5,42,127,3882595672
4324,14,Improv_Melody,248,1,38,71,3883044368
4324,14,Improv_Melody,249,1,38,53,3883067380
4324,14,Improv_Melody,250,5,42,110,3883096320
4324,14,Improv_Melody,251,1,48,56,3883550624
4324,14,Improv_Melody,252,5,42,110,3883596068
4324,14,Improv_Melody,253,1,48,60,3884041948
4324,14,Improv_Melody,254,5,42,110,3884095992
4324,14,Improv_Melody,255,1,48,69,3884540304
4324,14,Improv_Melody,256,1,48,50,3884565336
4324,14,Improv_Melody,257,2,41,80,3884598176
4324,14,Improv_Melody,258,2,65,80,3884600552
4324,14,Improv_Melody,259,5,42,127,3884602936
4324,14,Improv_Melody,260,1,48,70,3885015832
4324,14,Improv_Melody,261,5,42,110,3885096356
4324,14,Improv_Melody,262,5,42,110,3885596064
4324,14,Improv_Melody,263,1,38,86,3885600452
4324,14,Improv_Melody,264,1,38,62,3885630052
4324,14,Improv_Melody,265,1,48,71,3886064500
4324,14,Improv_Melody,266,5,42,110,3886095956
4324,14,Improv_Melody,267,1,38,84,3886574676
4324,14,Improv_Melody,268,1,38,59,3886596316
4324,14,Improv_Melody,269,5,42,127,3886598628
4324,14,Improv_Melody,270,1,48,72,3887096016
4324,14,Improv_Melody,271,5,42,110,3887097724
4324,14,Improv_Melody,272,1,48,71,3887567544
4324,14,Improv_Melody,273,5,42,110,3887595784
4324,14,Improv_Melody,274,1,48,66,3888042488
4324,14,Improv_Melody,275,5,42,110,3888095632
4324,14,Improv_Melody,276,1,48,66,3888541216
4324,14,Improv_Melody,277,2,48,80,3888598884
4324,14,Improv_Melody,278,2,72,80,3888601116
4324,14,Improv_Melody,279,5,42,127,3888603796
4324,14,Improv_Melody,280,1,48,62,3889038836
4324,14,Improv_Melody,281,5,42,110,3889096020
4324,14,Improv_Melody,282,1,48,69,3889563816
4324,14,Improv_Melody,283,5,42,110,3889595868
4324,14,Improv_Melody,284,1,38,86,3890011080
4324,14,Improv_Melody,285,1,38,54,3890037608
4324,14,Improv_Melody,286,5,42,110,3890095320
4324,14,Improv_Melody,287,1,48,61,3890513648
4324,14,Improv_Melody,288,5,42,127,3890596144
4324,14,Improv_Melody,289,1,38,64,3891043444
4324,14,Improv_Melody,290,1,38,43,3891076784
4324,14,Improv_Melody,291,5,42,110,3891095972
4324,14,Improv_Melody,292,1,48,62,3891537188
4324,14,Improv_Melody,293,5,42,110,3891595744
4324,14,Improv_Melody,294,1,48,68,3892049752
4324,14,Improv_Melody,295,5,42,110,3892096268
4324,14,Improv_Melody,296,1,38,66,3892582012
4324,14,Improv_Melody,297,2,43,80,3892598544
4324,14,Improv_Melody,298,2,67,80,3892600620
4324,14,Improv_Melody,299,5,42,127,3892603084
4324,14,Improv_Melody,300,1,38,46,3892612472
4324,14,Improv_Melody,301,1,48,72,3893051088
4324,14,Improv_Melody,302,5,42,110,3893095732
4324,14,Improv_Melody,303,1,48,70,3893575848
4324,14,Improv_Melody,304,5,42,110,3893595580
4324,14,Improv_Melody,305,1,38,73,3894011740
4324,14,Improv_Melody,306,1,38,52,3894044032
4324,14,Improv_Melody,307,5,42,110,3894096204
4324,14,Improv_Melody,308,1,48,60,3894529376
4324,14,Improv_Melody,309,5,42,127,3894595908
4324,14,Improv_Melody,310,1,48,68,3895063928
4324,14,Improv_Melody,311,5,42,110,3895095608
4324,14,Improv_Melody,312,1,38,83,3895562132
4324,14,Improv_Melody,313,1,38,59,3895589636
4324,14,Improv_Melody,314,5,42,110,3895596484
4324,14,Improv_Melody,315,1,48,74,3896055380
4324,14,Improv_Melody,316,1,48,51,3896080268
4324,14,Improv_Melody,317,5,42,110,3896096088
4324,14,Improv_Melody,318,1,48,80,3896569716
4324,14,Improv_Melody,319,1,48,54,3896594436
4324,14,Improv_Melody,320,2,45,80,3896598268
4324,14,Improv_Melody,321,2,69,80,3896600420
4324,14,Improv_Melody,322,5,42,127,3896602960
4324,14,Improv_Melody,323,1,48,77,3897078388
4324,14,Improv_Melody,324,5,42,110,3897095632
4324,14,Improv_Melody,325,1,48,55,3897100456
4324,14,Improv_Melody,326,1,38,79,3897574396
4324,14,Improv_Melody,327,5,42,110,3897596356
4324,14,Improv_Melody,328,1,38,56,3897598280
4324,14,Improv_Melody,329,1,48,67,3898023068
4324,14,Improv_Melody,330,5,42,110,3898096032
4324,14,Improv_Melody,331,1,38,83,3898544904
4324,14,Improv_Melody,332,1,38,54,3898571140
4324,14,Improv_Melody,333,5,42,127,3898595636
4324,14,Improv_Melody,334,1,48,70,3899052292
4324,14,Improv_Melody,335,1,48,49,3899077176
4324,14,Improv_Melody,336,5,42,110,3899096364
4324,14,Improv_Melody,337,1,48,69,3899535364
4324,14,Improv_Melody,338,5,42,110,3899596284
4324,14,Improv_Melody,339,1,48,61,3900007912
4324,14,Improv_Melody,340,5,42,110,3900095764
4324,14,Improv_Melody,341,1,38,78,3900502896
4324,14,Improv_Melody,342,1,38,56,3900530252
4324,14,Improv_Melody,343,2,41,80,3900597944
4324,14,Improv_Melody,344,2,65,80,3900600172
4324,14,Improv_Melody,345,5,42,127,3900602860
4324,14,Improv_Melody,346,1,48,66,3901037372
4324,14,Improv_Melody,347,5,42,110,3901096500
4324,14,Improv_Melody,348,1,48,66,3901556592
4324,14,Improv_Melody,349,1,48,48,3901580808
4324,14,Improv_Melody,350,5,42,110,3901595880
4324,14,Improv_Melody,351,1,38,79,3902038844
4324,14,Improv_Melody,352,1,38,58,3902063732
4324,14,Improv_Melody,353,5,42,110,3902095632
4324,14,Improv_Melody,354,1,48,67,3902550268
4324,14,Improv_Melody,355,5,42,127,3902595408
4324,14,Improv_Melody,356,1,38,86,3903066568
4324,14,Improv_Melody,357,1,38,56,3903090408
4324,14,Improv_Melody,358,5,42,110,3903096356
4324,14,Improv_Melody,359,1,48,68,3903590184
4324,14,Improv_Melody,360,5,42,110,3903595760
4324,14,Improv_Melody,361,1,48,73,3904088244
4324,14,Improv_Melody,362,5,42,110,3904095460
4324,14,Improv_Melody,363,2,48,80,3904598880
4324,14,Improv_Melody,364,2,72,80,3904601108
4324,14,Improv_Melody,365,5,42,127,3904603568
4324,14,Improv_Melody,366,1,38,81,3904606164
4324,14,Improv_Melody,367,1,38,54,3904632848
4324,14,Improv_Melody,368,5,42,110,3905096192
4324,14,Improv_Melody,369,1,48,78,3905101628
4324,14,Improv_Melody,370,1,48,54,3905126164
4324,14,Improv_Melody,0,9999,9999,9999,3824593996
4324,14,Improv_Melody,1,9999,9999,9999,3825093700
4324,14,Improv_Melody,2,9999,9999,9999,3825593420
4324,14,Improv_Melody,3,9999,9999,9999,3826093144
4324,14,Improv_Melody,4,9999,9999,9999,3826593912
4324,14,Improv_Melody,5,9999,9999,9999,3827093560
4324,14,Improv_Melody,6,9999,9999,9999,3827593280
4324,14,Improv_Melody,7,9999,9999,9999,3828094048
4324,14,Improv_Melody,8,9999,9999,9999,3828593768
4324,14,Improv_Melody,9,9999,9999,9999,3829093432
4324,14,Improv_Melody,10,9999,9999,9999,3829593204
4324,14,Improv_Melody,11,9999,9999,9999,3830093896
4324,14,Improv_Melody,12,9999,9999,9999,3830593616
4324,14,Improv_Melody,13,9999,9999,9999,3831093340
4324,14,Improv_Melody,14,9999,9999,9999,3831594032
4324,14,Improv_Melody,15,9999,9999,9999,3832093756
4324,14,Improv_Melody,16,9999,9999,9999,3832593476
4324,14,Improv_Melody,17,9999,9999,9999,3833093212
4324,14,Improv_Melody,18,9999,9999,9999,3833593908
4324,14,Improv_Melody,19,9999,9999,9999,3834093628
4324,14,Improv_Melody,20,9999,9999,9999,3834593352
4324,14,Improv_Melody,21,9999,9999,9999,3835094120
4324,14,Improv_Melody,22,9999,9999,9999,3835593840
4324,14,Improv_Melody,23,9999,9999,9999,3836093488
4324,14,Improv_Melody,24,9999,9999,9999,3836593208
4324,14,Improv_Melody,25,9999,9999,9999,3837093992
4324,14,Improv_Melody,26,9999,9999,9999,3837593712
4324,14,Improv_Melody,27,9999,9999,9999,3838093432
4324,14,Improv_Melody,28,9999,9999,9999,3838593080
4324,14,Improv_Melody,29,9999,9999,9999,3839093848
4324,14,Improv_Melody,30,9999,9999,9999,3839593568
4324,14,Improv_Melody,31,9999,9999,9999,3840093292
4324,14,Improv_Melody,32,9999,9999,9999,3840594036
4324,14,Improv_Melody,33,9999,9999,9999,3841093708
4324,14,Improv_Melody,34,9999,9999,9999,3841593428
4324,14,Improv_Melody,35,9999,9999,9999,3842093124
4324,14,Improv_Melody,36,9999,9999,9999,3842593848
4324,14,Improv_Melody,37,9999,9999,9999,3843093608
4324,14,Improv_Melody,38,9999,9999,9999,3843593308
4324,14,Improv_Melody,39,9999,9999,9999,3844094056
4324,14,Improv_Melody,40,9999,9999,9999,3844593748
4324,14,Improv_Melody,41,9999,9999,9999,3845093464
4324,14,Improv_Melody,42,9999,9999,9999,3845593164
4324,14,Improv_Melody,43,9999,9999,9999,3846093912
4324,14,Improv_Melody,44,9999,9999,9999,3846593612
4324,14,Improv_Melody,45,9999,9999,9999,3847093312
4324,14,Improv_Melody,46,9999,9999,9999,3847594056
4324,14,Improv_Melody,47,9999,9999,9999,3848093756
4324,14,Improv_Melody,48,9999,9999,9999,3848593516
4324,14,Improv_Melody,49,9999,9999,9999,3849093168
4324,14,Improv_Melody,50,9999,9999,9999,3849593916
4324,14,Improv_Melody,51,9999,9999,9999,3850093688
4324,14,Improv_Melody,52,9999,9999,9999,3850593388
4324,14,Improv_Melody,53,9999,9999,9999,3851094076
4324,14,Improv_Melody,54,9999,9999,9999,3851593784
4324,14,Improv_Melody,55,9999,9999,9999,3852093560
4324,14,Improv_Melody,56,9999,9999,9999,3852593260
4324,14,Improv_Melody,57,9999,9999,9999,3853093944
4324,14,Improv_Melody,58,9999,9999,9999,3853593720
4324,14,Improv_Melody,59,9999,9999,9999,3854093420
4324,14,Improv_Melody,60,9999,9999,9999,3854593120
4324,14,Improv_Melody,61,9999,9999,9999,3855093864
4324,14,Improv_Melody,62,9999,9999,9999,3855593544
4324,14,Improv_Melody,63,9999,9999,9999,3856093244
4324,14,Improv_Melody,64,9999,9999,9999,3856593992
4324,14,Improv_Melody,65,9999,9999,9999,3857093688
4324,14,Improv_Melody,66,9999,9999,9999,3857593460
4324,14,Improv_Melody,67,9999,9999,9999,3858093160
4324,14,Improv_Melody,68,9999,9999,9999,3858593884
4324,14,Improv_Melody,69,9999,9999,9999,3859093584
4324,14,Improv_Melody,70,9999,9999,9999,3859593284
4324,14,Improv_Melody,71,9999,9999,9999,3860094008
4324,14,Improv_Melody,72,9999,9999,9999,3860593780
4324,14,Improv_Melody,73,9999,9999,9999,3861093496
4324,14,Improv_Melody,74,9999,9999,9999,3861593172
4324,14,Improv_Melody,75,9999,9999,9999,3862093896
4324,14,Improv_Melody,76,9999,9999,9999,3862593596
4324,14,Improv_Melody,77,9999,9999,9999,3863093352
4324,14,Improv_Melody,78,9999,9999,9999,3863594096
4324,14,Improv_Melody,79,9999,9999,9999,3864093800
4324,14,Improv_Melody,80,9999,9999,9999,3864593496
4324,14,Improv_Melody,81,9999,9999,9999,3865093212
4324,14,Improv_Melody,82,9999,9999,9999,3865593960
4324,14,Improv_Melody,83,9999,9999,9999,3866093660
4324,14,Improv_Melody,84,9999,9999,9999,3866593360
4324,14,Improv_Melody,85,9999,9999,9999,3867094112
4324,14,Improv_Melody,86,9999,9999,9999,3867593788
4324,14,Improv_Melody,87,9999,9999,9999,3868093488
4324,14,Improv_Melody,88,9999,9999,9999,3868593240
4324,14,Improv_Melody,89,9999,9999,9999,3869094000
4324,14,Improv_Melody,90,9999,9999,9999,3869593700
4324,14,Improv_Melody,91,9999,9999,9999,3870093376
4324,14,Improv_Melody,92,9999,9999,9999,3870593076
4324,14,Improv_Melody,93,9999,9999,9999,3871093876
4324,14,Improv_Melody,94,9999,9999,9999,3871593528
4324,14,Improv_Melody,95,9999,9999,9999,3872093276
4324,14,Improv_Melody,96,9999,9999,9999,3872593996
4324,14,Improv_Melody,97,9999,9999,9999,3873093708
4324,14,Improv_Melody,98,9999,9999,9999,3873593400
4324,14,Improv_Melody,99,9999,9999,9999,3874093156
4324,14,Improv_Melody,100,9999,9999,9999,3874593900
4324,14,Improv_Melody,101,9999,9999,9999,3875093608
4324,14,Improv_Melody,102,9999,9999,9999,3875593280
4324,14,Improv_Melody,103,9999,9999,9999,3876094024
4324,14,Improv_Melody,104,9999,9999,9999,3876593724
4324,14,Improv_Melody,105,9999,9999,9999,3877093440
4324,14,Improv_Melody,106,9999,9999,9999,3877593192
4324,14,Improv_Melody,107,9999,9999,9999,3878093936
4324,14,Improv_Melody,108,9999,9999,9999,3878593640
4324,14,Improv_Melody,109,9999,9999,9999,3879093316
4324,14,Improv_Melody,110,9999,9999,9999,3879594064
4324,14,Improv_Melody,111,9999,9999,9999,3880093768
4324,14,Improv_Melody,112,9999,9999,9999,3880593516
4324,14,Improv_Melody,113,9999,9999,9999,3881093236
4324,14,Improv_Melody,114,9999,9999,9999,3881593904
4324,14,Improv_Melody,115,9999,9999,9999,3882093680
4324,14,Improv_Melody,116,9999,9999,9999,3882593380
4324,14,Improv_Melody,117,9999,9999,9999,3883094104
4324,14,Improv_Melody,118,9999,9999,9999,3883593776
4324,14,Improv_Melody,119,9999,9999,9999,3884093552
4324,14,Improv_Melody,120,9999,9999,9999,3884593228
4324,14,Improv_Melody,121,9999,9999,9999,3885093988
4324,14,Improv_Melody,122,9999,9999,9999,3885593696
4324,14,Improv_Melody,123,9999,9999,9999,3886093368
4324,14,Improv_Melody,124,9999,9999,9999,3886593140
4324,14,Improv_Melody,125,9999,9999,9999,3887093872
4324,14,Improv_Melody,126,9999,9999,9999,3887593568
4324,14,Improv_Melody,127,9999,9999,9999,3888093268
4324,14,Improv_Melody,128,9999,9999,9999,3888594012
4324,14,Improv_Melody,129,9999,9999,9999,3889093724
4324,14,Improv_Melody,130,9999,9999,9999,3889593424
4324,14,Improv_Melody,131,9999,9999,9999,3890093104
4324,14,Improv_Melody,132,9999,9999,9999,3890593852
4324,14,Improv_Melody,133,9999,9999,9999,3891093604
4324,14,Improv_Melody,134,9999,9999,9999,3891593304
4324,14,Improv_Melody,135,9999,9999,9999,3892094048
4324,14,Improv_Melody,136,9999,9999,9999,3892593748
4324,14,Improv_Melody,137,9999,9999,9999,3893093440
4324,14,Improv_Melody,138,9999,9999,9999,3893593140
4324,14,Improv_Melody,139,9999,9999,9999,3894093912
4324,14,Improv_Melody,140,9999,9999,9999,3894593616
4324,14,Improv_Melody,141,9999,9999,9999,3895093316
4324,14,Improv_Melody,142,9999,9999,9999,3895594040
4324,14,Improv_Melody,143,9999,9999,9999,3896093796
4324,14,Improv_Melody,144,9999,9999,9999,3896593556
4324,14,Improv_Melody,145,9999,9999,9999,3897093188
4324,14,Improv_Melody,146,9999,9999,9999,3897593912
4324,14,Improv_Melody,147,9999,9999,9999,3898093664
4324,14,Improv_Melody,148,9999,9999,9999,3898593344
4324,14,Improv_Melody,149,9999,9999,9999,3899094072
4324,14,Improv_Melody,150,9999,9999,9999,3899593844
4324,14,Improv_Melody,151,9999,9999,9999,3900093544
4324,14,Improv_Melody,152,9999,9999,9999,3900593224
4324,14,Improv_Melody,153,9999,9999,9999,3901093984
4324,14,Improv_Melody,154,9999,9999,9999,3901593664
4324,14,Improv_Melody,155,9999,9999,9999,3902093416
4324,14,Improv_Melody,156,9999,9999,9999,3902593116
4324,14,Improv_Melody,157,9999,9999,9999,3903093840
4324,14,Improv_Melody,158,9999,9999,9999,3903593540
4324,14,Improv_Melody,159,9999,9999,9999,3904093240
4324,14,Improv_Melody,160,9999,9999,9999,3904593968
4324,14,Improv_Melody,161,9999,9999,9999,3905093748
43