pid,taskRunCount,taskID,taskName,i,channel,pitch,velocity,microseconds
1,1,Ticks_Pract_5,0,5,42,127,334296464
451,1,Ticks_Pract_5,1,5,42,127,334796400
451,1,Ticks_Pract_5,2,5,42,127,335295868
451,1,Ticks_Pract_5,3,1,38,13,335755828
451,1,Ticks_Pract_5,4,5,42,127,335795432
451,1,Ticks_Pract_5,5,5,42,127,336296400
451,1,Ticks_Pract_5,6,1,48,49,336337844
451,1,Ticks_Pract_5,7,1,48,46,336794892
451,1,Ticks_Pract_5,8,5,42,127,336796692
451,1,Ticks_Pract_5,9,5,42,127,337295716
451,1,Ticks_Pract_5,10,1,48,59,337309984
451,1,Ticks_Pract_5,11,5,42,127,337795560
451,1,Ticks_Pract_5,12,1,48,62,337800628
451,1,Ticks_Pract_5,13,5,42,127,338296228
451,1,Ticks_Pract_5,14,1,48,56,338313184
451,1,Ticks_Pract_5,15,5,42,127,338796072
451,1,Ticks_Pract_5,16,1,48,63,338802784
451,1,Ticks_Pract_5,17,1,48,65,339295692
451,1,Ticks_Pract_5,18,5,42,127,339297256
451,1,Ticks_Pract_5,19,5,42,127,339796284
451,1,Ticks_Pract_5,20,1,48,52,339848920
451,1,Ticks_Pract_5,21,5,42,127,340296128
451,1,Ticks_Pract_5,22,1,48,53,340408080
451,1,Ticks_Pract_5,23,5,42,127,340795748
451,1,Ticks_Pract_5,24,1,48,57,340925872
451,1,Ticks_Pract_5,25,5,42,127,341295516
451,1,Ticks_Pract_5,26,1,48,62,341316744
451,1,Ticks_Pract_5,27,1,48,47,341796036
451,1,Ticks_Pract_5,28,5,42,127,341797672
451,1,Ticks_Pract_5,29,1,48,68,342265616
451,1,Ticks_Pract_5,30,5,42,127,342296168
451,1,Ticks_Pract_5,31,1,48,58,342789996
451,1,Ticks_Pract_5,32,5,42,127,342795492
451,1,Ticks_Pract_5,33,5,42,127,343296392
451,1,Ticks_Pract_5,34,1,48,57,343303472
451,1,Ticks_Pract_5,35,1,48,65,343776300
451,1,Ticks_Pract_5,36,5,42,127,343796004
451,1,Ticks_Pract_5,37,5,42,127,344295928
451,1,Ticks_Pract_5,38,1,48,68,344306080
451,1,Ticks_Pract_5,39,1,48,65,344788404
451,1,Ticks_Pract_5,40,5,42,127,344795540
451,1,Ticks_Pract_5,41,1,48,65,345288072
451,1,Ticks_Pract_5,42,5,42,127,345296208
451,1,Ticks_Pract_5,43,1,48,65,345776920
451,1,Ticks_Pract_5,44,5,42,127,345796100
451,1,Ticks_Pract_5,45,5,42,127,346295800
451,1,Ticks_Pract_5,46,1,48,62,346298924
451,1,Ticks_Pract_5,47,5,42,127,346796324
451,1,Ticks_Pract_5,48,1,48,67,346806476
451,1,Ticks_Pract_5,49,1,48,64,347293060
451,1,Ticks_Pract_5,50,5,42,127,347296084
451,1,Ticks_Pract_5,51,1,48,65,347788344
451,1,Ticks_Pract_5,52,5,42,127,347795924
451,1,Ticks_Pract_5,53,1,48,68,348281676
451,1,Ticks_Pract_5,54,5,42,127,348295620
451,1,Ticks_Pract_5,55,1,48,54,348796368
451,1,Ticks_Pract_5,56,5,42,127,348798012
451,1,Ticks_Pract_5,57,5,42,127,349295916
451,1,Ticks_Pract_5,58,1,48,70,349311972
451,1,Ticks_Pract_5,59,5,42,127,349795832
451,1,Ticks_Pract_5,60,1,48,71,349809056
451,1,Ticks_Pract_5,61,5,42,127,350296356
451,1,Ticks_Pract_5,62,1,48,67,350313084
451,1,Ticks_Pract_5,63,5,42,127,350796196
451,1,Ticks_Pract_5,64,1,48,64,350804104
451,1,Ticks_Pract_5,65,5,42,127,351295816
451,1,Ticks_Pract_5,66,1,48,63,351314196
451,1,Ticks_Pract_5,67,5,42,127,351795512
451,1,Ticks_Pract_5,68,1,48,72,351801172
451,1,Ticks_Pract_5,69,5,42,127,352296328
451,1,Ticks_Pract_5,70,1,48,65,352309096
451,1,Ticks_Pract_5,71,5,42,127,352795948
451,1,Ticks_Pract_5,72,1,48,71,352800040
451,1,Ticks_Pract_5,73,5,42,127,353295940
451,1,Ticks_Pract_5,74,1,48,72,353298388
451,1,Ticks_Pract_5,75,5,42,127,353795564
451,1,Ticks_Pract_5,76,1,48,64,353809228
451,1,Ticks_Pract_5,0,9999,9999,9999,334294100
451,1,Ticks_Pract_5,1,9999,9999,9999,334793792
451,1,Ticks_Pract_5,2,9999,9999,9999,335293508
451,1,Ticks_Pract_5,3,9999,9999,9999,335793220
451,1,Ticks_Pract_5,4,9999,9999,9999,336293964
451,1,Ticks_Pract_5,5,9999,9999,9999,336793660
451,1,Ticks_Pract_5,6,9999,9999,9999,337293432
451,1,Ticks_Pract_5,7,9999,9999,9999,337793124
451,1,Ticks_Pract_5,8,9999,9999,9999,338293864
451,1,Ticks_Pract_5,9,9999,9999,9999,338793560
451,1,Ticks_Pract_5,10,9999,9999,9999,339293256
451,1,Ticks_Pract_5,11,9999,9999,9999,339793996
451,1,Ticks_Pract_5,12,9999,9999,9999,340293692
451,1,Ticks_Pract_5,13,9999,9999,9999,340793460
451,1,Ticks_Pract_5,14,9999,9999,9999,341293156
451,1,Ticks_Pract_5,15,9999,9999,9999,341793896
451,1,Ticks_Pract_5,16,9999,9999,9999,342293584
451,1,Ticks_Pract_5,17,9999,9999,9999,342793280
451,1,Ticks_Pract_5,18,9999,9999,9999,343294028
451,1,Ticks_Pract_5,19,9999,9999,9999,343793716
451,1,Ticks_Pract_5,20,9999,9999,9999,344293492
451,1,Ticks_Pract_5,21,9999,9999,9999,344793180
451,1,Ticks_Pract_5,22,9999,9999,9999,345293920
451,1,Ticks_Pract_5,23,9999,9999,9999,345793592
451,1,Ticks_Pract_5,24,9999,9999,9999,346293368
451,1,Ticks_Pract_5,25,9999,9999,9999,346794032
451,1,Ticks_Pract_5,26,9999,9999,9999,347293796
451,1,Ticks_Pract_5,27,9999,9999,9999,347793492
451,1,Ticks_Pract_5,28,9999,9999,9999,348293188
451,1,Ticks_Pract_5,29,9999,9999,9999,348793936
451,1,Ticks_Pract_5,30,9999,9999,9999,349293628
451,1,Ticks_Pract_5,31,9999,9999,9999,349793396
451,1,Ticks_Pract_5,32,9999,9999,9999,350294064
451,1,Ticks_Pract_5,33,9999,9999,9999,350793836
451,1,Ticks_Pract_5,34,9999,9999,9999,351293528
451,1,Ticks_Pract_5,35,9999,9999,9999,351793224
451,1,Ticks_Pract_5,36,9999,9999,9999,352293968
451,1,Ticks_Pract_5,37,9999,9999,9999,352793660
451,1,Ticks_Pract_5,38,9999,9999,9999,353293432
451,1,Ticks_Pract_5,39,9999,9999,9999,353793128
452,0,Ticks_Pract_8,0,5,42,127,379859244
452,0,Ticks_Pract_8,1,1,48,18,380436860
452,0,Ticks_Pract_8,2,1,48,33,380441320
452,0,Ticks_Pract_8,3,5,42,127,380659104
452,0,Ticks_Pract_8,4,1,48,69,381435256
452,0,Ticks_Pract_8,5,5,42,127,381458776
452,0,Ticks_Pract_8,6,1,48,68,382236112
452,0,Ticks_Pract_8,7,5,42,127,382258436
452,0,Ticks_Pract_8,8,5,42,127,383059300
452,0,Ticks_Pract_8,9,1,48,78,383109016
452,0,Ticks_Pract_8,10,5,42,127,383859108
452,0,Ticks_Pract_8,11,1,48,87,383898732
452,0,Ticks_Pract_8,12,5,42,127,384659064
452,0,Ticks_Pract_8,13,1,48,76,384690384
452,0,Ticks_Pract_8,14,5,42,127,385458652
452,0,Ticks_Pract_8,15,1,48,85,385460664
452,0,Ticks_Pract_8,16,5,42,127,386259304
452,0,Ticks_Pract_8,17,1,48,80,386281344
452,0,Ticks_Pract_8,18,1,48,80,387038952
452,0,Ticks_Pract_8,19,5,42,127,387059108
452,0,Ticks_Pract_8,20,1,48,76,387849532
452,0,Ticks_Pract_8,21,5,42,127,387858916
452,0,Ticks_Pract_8,22,1,48,62,388637596
452,0,Ticks_Pract_8,23,5,42,127,388658648
452,0,Ticks_Pract_8,24,1,48,67,389440396
452,0,Ticks_Pract_8,25,5,42,127,389459356
452,0,Ticks_Pract_8,26,5,42,127,390259020
452,0,Ticks_Pract_8,27,1,48,72,390273804
452,0,Ticks_Pract_8,28,5,42,127,391058900
452,0,Ticks_Pract_8,29,1,48,65,391070776
452,0,Ticks_Pract_8,30,1,48,76,391832488
452,0,Ticks_Pract_8,31,5,42,127,391858556
452,0,Ticks_Pract_8,32,1,48,63,392615616
452,0,Ticks_Pract_8,33,5,42,127,392659212
452,0,Ticks_Pract_8,34,1,48,76,393453372
452,0,Ticks_Pract_8,35,5,42,127,393459020
452,0,Ticks_Pract_8,36,1,48,72,394250564
452,0,Ticks_Pract_8,37,5,42,127,394258900
452,0,Ticks_Pract_8,38,1,48,67,395042740
452,0,Ticks_Pract_8,39,5,42,127,395058712
452,0,Ticks_Pract_8,40,1,48,75,395837768
452,0,Ticks_Pract_8,41,5,42,127,395859492
452,0,Ticks_Pract_8,42,1,48,73,396655300
452,0,Ticks_Pract_8,43,5,42,127,396659004
452,0,Ticks_Pract_8,44,1,48,79,397456924
452,0,Ticks_Pract_8,45,5,42,127,397458736
452,0,Ticks_Pract_8,46,1,48,76,398239436
452,0,Ticks_Pract_8,47,5,42,127,398258616
452,0,Ticks_Pract_8,48,1,48,67,399040364
452,0,Ticks_Pract_8,49,5,42,127,399059496
452,0,Ticks_Pract_8,50,1,48,67,399806964
452,0,Ticks_Pract_8,51,5,42,127,399859008
452,0,Ticks_Pract_8,52,1,48,69,400645988
452,0,Ticks_Pract_8,53,5,42,127,400658740
452,0,Ticks_Pract_8,54,5,42,127,401458628
452,0,Ticks_Pract_8,55,1,48,64,401459820
452,0,Ticks_Pract_8,56,1,48,62,402257140
452,0,Ticks_Pract_8,57,5,42,127,402259252
452,0,Ticks_Pract_8,58,1,48,59,403056184
452,0,Ticks_Pract_8,59,5,42,127,403058912
452,0,Ticks_Pract_8,0,9999,9999,9999,379856956
452,0,Ticks_Pract_8,1,9999,9999,9999,380656740
452,0,Ticks_Pract_8,2,9999,9999,9999,381456488
452,0,Ticks_Pract_8,3,9999,9999,9999,382256224
452,0,Ticks_Pract_8,4,9999,9999,9999,383057012
452,0,Ticks_Pract_8,5,9999,9999,9999,383856748
452,0,Ticks_Pract_8,6,9999,9999,9999,384656480
452,0,Ticks_Pract_8,7,9999,9999,9999,385456212
452,0,Ticks_Pract_8,8,9999,9999,9999,386257016
452,0,Ticks_Pract_8,9,9999,9999,9999,387056744
452,0,Ticks_Pract_8,10,9999,9999,9999,387856480
452,0,Ticks_Pract_8,11,9999,9999,9999,388656212
452,0,Ticks_Pract_8,12,9999,9999,9999,389456992
452,0,Ticks_Pract_8,13,9999,9999,9999,390256732
452,0,Ticks_Pract_8,14,9999,9999,9999,391056464
452,0,Ticks_Pract_8,15,9999,9999,9999,391856192
452,0,Ticks_Pract_8,16,9999,9999,9999,392656996
452,0,Ticks_Pract_8,17,9999,9999,9999,393456732
452,0,Ticks_Pract_8,18,9999,9999,9999,394256464
452,0,Ticks_Pract_8,19,9999,9999,9999,395056200
452,0,Ticks_Pract_8,20,9999,9999,9999,395856980
452,0,Ticks_Pract_8,21,9999,9999,9999,396656716
452,0,Ticks_Pract_8,22,9999,9999,9999,397456472
452,0,Ticks_Pract_8,23,9999,9999,9999,398256180
452,0,Ticks_Pract_8,24,9999,9999,9999,399056988
452,0,Ticks_Pract_8,25,9999,9999,9999,399856720
452,0,Ticks_Pract_8,26,9999,9999,9999,400656452
452,0,Ticks_Pract_8,27,9999,9999,9999,401456192
452,0,Ticks_Pract_8,28,9999,9999,9999,402257004
452,0,Ticks_Pract_8,29,9999,9999,9999,403056700
453,4,T1_SMS_5,0,5,42,127,478712304
453,4,T1_SMS_5,1,5,42,127,479212020
453,4,T1_SMS_5,2,1,48,27,479426292
453,4,T1_SMS_5,3,5,42,127,479711616
453,4,T1_SMS_5,4,1,48,49,479717952
453,4,T1_SMS_5,5,5,42,127,480212356
453,4,T1_SMS_5,6,1,48,63,480215024
453,4,T1_SMS_5,7,5,42,127,480712128
453,4,T1_SMS_5,8,1,48,62,480732152
453,4,T1_SMS_5,9,1,48,66,481197772
453,4,T1_SMS_5,10,5,42,127,481211716
453,4,T1_SMS_5,11,1,48,74,481702476
453,4,T1_SMS_5,12,5,42,127,481711416
453,4,T1_SMS_5,13,1,48,76,482202772
453,4,T1_SMS_5,14,5,42,127,482212156
453,4,T1_SMS_5,15,1,48,88,482697152
453,4,T1_SMS_5,16,5,42,127,482712000
453,4,T1_SMS_5,17,1,48,71,483197976
453,4,T1_SMS_5,18,5,42,127,483211696
453,4,T1_SMS_5,19,1,48,76,483706860
453,4,T1_SMS_5,20,5,42,127,483712288
453,4,T1_SMS_5,21,1,48,79,484191308
453,4,T1_SMS_5,22,5,42,127,484211984
453,4,T1_SMS_5,23,1,48,81,484702816
453,4,T1_SMS_5,24,5,42,127,484711976
453,4,T1_SMS_5,25,1,48,77,485189948
453,4,T1_SMS_5,26,5,42,127,485211520
453,4,T1_SMS_5,27,1,48,71,485702356
453,4,T1_SMS_5,28,5,42,127,485712264
453,4,T1_SMS_5,29,5,42,127,486212112
453,4,T1_SMS_5,30,1,48,69,486235800
453,4,T1_SMS_5,31,1,48,84,486701816
453,4,T1_SMS_5,32,5,42,127,486711728
453,4,T1_SMS_5,33,5,42,127,487212252
453,4,T1_SMS_5,34,1,48,75,487220684
453,4,T1_SMS_5,35,1,48,79,487703828
453,4,T1_SMS_5,36,5,42,127,487712164
453,4,T1_SMS_5,37,1,48,77,488199336
453,4,T1_SMS_5,38,5,42,127,488212080
453,4,T1_SMS_5,39,1,48,67,488676964
453,4,T1_SMS_5,40,5,42,127,488711404
453,4,T1_SMS_5,41,5,42,127,489212224
453,4,T1_SMS_5,42,1,48,73,489253044
453,4,T1_SMS_5,43,1,48,81,489697144
453,4,T1_SMS_5,44,5,42,127,489711916
453,4,T1_SMS_5,45,1,48,66,490195936
453,4,T1_SMS_5,46,5,42,127,490211760
453,4,T1_SMS_5,47,5,42,127,490712284
453,4,T1_SMS_5,48,1,48,68,490713772
453,4,T1_SMS_5,49,1,48,69,491211300
453,4,T1_SMS_5,50,5,42,127,491212944
453,4,T1_SMS_5,51,5,42,127,491711872
453,4,T1_SMS_5,52,1,48,58,491713208
453,4,T1_SMS_5,53,1,48,78,492179740
453,4,T1_SMS_5,54,5,42,127,492211708
453,4,T1_SMS_5,55,5,42,127,492712308
453,4,T1_SMS_5,56,1,48,83,492757716
453,4,T1_SMS_5,57,5,42,127,493212008
453,4,T1_SMS_5,58,1,48,78,493216544
453,4,T1_SMS_5,59,1,48,88,493710192
453,4,T1_SMS_5,60,5,42,127,493711996
453,4,T1_SMS_5,61,1,48,77,494201556
453,4,T1_SMS_5,62,5,42,127,494211468
453,4,T1_SMS_5,63,5,42,127,494712216
453,4,T1_SMS_5,64,1,48,86,494736732
453,4,T1_SMS_5,65,1,48,77,495196008
453,4,T1_SMS_5,66,5,42,127,495211904
453,4,T1_SMS_5,67,1,48,73,495700420
453,4,T1_SMS_5,68,5,42,127,495711748
453,4,T1_SMS_5,69,1,48,80,496191740
453,4,T1_SMS_5,70,5,42,127,496212268
453,4,T1_SMS_5,71,1,48,77,496695620
453,4,T1_SMS_5,72,5,42,127,496712036
453,4,T1_SMS_5,73,1,48,73,497189112
453,4,T1_SMS_5,74,5,42,127,497211880
453,4,T1_SMS_5,75,5,42,127,497711656
453,4,T1_SMS_5,76,1,48,81,497722256
453,4,T1_SMS_5,77,1,48,76,498200840
453,4,T1_SMS_5,78,5,42,127,498212092
453,4,T1_SMS_5,79,1,48,71,498688644
453,4,T1_SMS_5,80,5,42,127,498711864
453,4,T1_SMS_5,81,5,42,127,499211712
453,4,T1_SMS_5,82,1,48,76,499237496
453,4,T1_SMS_5,83,1,48,74,499686008
453,4,T1_SMS_5,84,5,42,127,499712448
453,4,T1_SMS_5,85,5,42,127,500211928
453,4,T1_SMS_5,86,1,48,74,500240704
453,4,T1_SMS_5,87,1,48,73,500685624
453,4,T1_SMS_5,88,5,42,127,500711764
453,4,T1_SMS_5,89,5,42,127,501211540
453,4,T1_SMS_5,90,1,48,75,501221088
453,4,T1_SMS_5,91,1,48,76,501687160
453,4,T1_SMS_5,92,5,42,127,501712276
453,4,T1_SMS_5,93,5,42,127,502211976
453,4,T1_SMS_5,94,1,48,71,502219356
453,4,T1_SMS_5,95,1,48,70,502704048
453,4,T1_SMS_5,96,5,42,127,502711640
453,4,T1_SMS_5,97,5,42,127,503212536
453,4,T1_SMS_5,98,1,48,82,503215208
453,4,T1_SMS_5,99,5,42,127,503712008
453,4,T1_SMS_5,100,1,48,77,503717148
453,4,T1_SMS_5,101,5,42,127,504211776
453,4,T1_SMS_5,102,1,48,64,504215044
453,4,T1_SMS_5,103,5,42,127,504711768
453,4,T1_SMS_5,104,1,48,75,504721772
453,4,T1_SMS_5,105,1,48,69,505200204
453,4,T1_SMS_5,106,5,42,127,505212352
453,4,T1_SMS_5,107,5,42,127,505711980
453,4,T1_SMS_5,108,1,48,31,505715544
453,4,T1_SMS_5,109,5,42,127,506211672
453,4,T1_SMS_5,110,1,48,68,506213612
453,4,T1_SMS_5,111,1,48,65,506708040
453,4,T1_SMS_5,112,5,42,127,506712336
453,4,T1_SMS_5,113,1,48,59,507204816
453,4,T1_SMS_5,114,5,42,127,507212400
453,4,T1_SMS_5,115,5,42,127,507711728
453,4,T1_SMS_5,116,1,48,75,507718364
453,4,T1_SMS_5,117,5,42,127,508211500
453,4,T1_SMS_5,118,1,48,50,508218512
453,4,T1_SMS_5,119,1,48,75,508698512
453,4,T1_SMS_5,120,5,42,127,508712384
453,4,T1_SMS_5,121,1,48,69,509209428
453,4,T1_SMS_5,122,5,42,127,509212228
453,4,T1_SMS_5,123,1,48,69,509700448
453,4,T1_SMS_5,124,5,42,127,509711628
453,4,T1_SMS_5,125,5,42,127,510211476
453,4,T1_SMS_5,126,1,48,71,510213920
453,4,T1_SMS_5,127,1,48,76,510699164
453,4,T1_SMS_5,128,5,42,127,510712360
453,4,T1_SMS_5,129,5,42,127,511211764
453,4,T1_SMS_5,130,1,48,76,511226472
453,4,T1_SMS_5,131,1,48,80,511701692
453,4,T1_SMS_5,132,5,42,127,511711600
453,4,T1_SMS_5,133,5,42,127,512212348
453,4,T1_SMS_5,134,1,48,83,512224964
453,4,T1_SMS_5,135,5,42,127,512712192
453,4,T1_SMS_5,136,1,48,76,512716808
453,4,T1_SMS_5,137,5,42,127,513211640
453,4,T1_SMS_5,138,1,48,76,513231684
453,4,T1_SMS_5,139,1,48,58,513703140
453,4,T1_SMS_5,140,5,42,127,513711400
453,4,T1_SMS_5,141,5,42,127,514212148
453,4,T1_SMS_5,142,1,48,82,514223124
453,4,T1_SMS_5,143,5,42,127,514711844
453,4,T1_SMS_5,144,1,48,80,514723116
453,4,T1_SMS_5,145,5,42,127,515211540
453,4,T1_SMS_5,146,1,48,80,515228796
453,4,T1_SMS_5,147,5,42,127,515712352
453,4,T1_SMS_5,148,1,48,73,515743372
453,4,T1_SMS_5,149,1,48,74,516206924
453,4,T1_SMS_5,150,5,42,127,516212044
453,4,T1_SMS_5,151,5,42,127,516711744
453,4,T1_SMS_5,152,1,48,74,516719572
453,4,T1_SMS_5,153,1,48,70,517199432
453,4,T1_SMS_5,154,5,42,127,517211584
453,4,T1_SMS_5,155,1,48,81,517683192
453,4,T1_SMS_5,156,5,42,127,517712252
453,4,T1_SMS_5,157,1,48,78,518209596
453,4,T1_SMS_5,158,5,42,127,518212168
453,4,T1_SMS_5,159,1,48,76,518707868
453,4,T1_SMS_5,160,5,42,127,518711640
453,4,T1_SMS_5,161,1,48,74,519209804
453,4,T1_SMS_5,162,5,42,127,519212460
453,4,T1_SMS_5,163,5,42,127,519712160
453,4,T1_SMS_5,164,1,48,78,519720292
453,4,T1_SMS_5,165,1,48,67,520197004
453,4,T1_SMS_5,166,5,42,127,520211924
453,4,T1_SMS_5,167,5,42,127,520711628
453,4,T1_SMS_5,168,1,48,87,520724316
453,4,T1_SMS_5,169,5,42,127,521212220
453,4,T1_SMS_5,170,1,48,74,521219528
453,4,T1_SMS_5,171,5,42,127,521712140
453,4,T1_SMS_5,172,1,48,74,521715628
453,4,T1_SMS_5,173,5,42,127,522211908
453,4,T1_SMS_5,174,1,48,79,522221384
453,4,T1_SMS_5,175,5,42,127,522712352
453,4,T1_SMS_5,176,1,48,73,522715468
453,4,T1_SMS_5,177,5,42,127,523212120
453,4,T1_SMS_5,178,1,48,66,523234464
453,4,T1_SMS_5,179,5,42,127,523712112
453,4,T1_SMS_5,180,1,48,80,523716732
453,4,T1_SMS_5,181,5,42,127,524211484
453,4,T1_SMS_5,182,1,48,73,524215500
453,4,T1_SMS_5,183,1,48,73,524705904
453,4,T1_SMS_5,184,5,42,127,524712444
453,4,T1_SMS_5,185,1,48,75,525201636
453,4,T1_SMS_5,186,5,42,127,525212064
453,4,T1_SMS_5,187,1,48,74,525699756
453,4,T1_SMS_5,188,5,42,127,525711908
453,4,T1_SMS_5,189,5,42,127,526211312
453,4,T1_SMS_5,190,1,48,80,526214952
453,4,T1_SMS_5,191,1,48,76,526688752
453,4,T1_SMS_5,192,5,42,127,526712048
453,4,T1_SMS_5,193,5,42,127,527211824
453,4,T1_SMS_5,194,1,48,74,527217112
453,4,T1_SMS_5,195,1,48,70,527706912
453,4,T1_SMS_5,196,5,42,127,527711808
453,4,T1_SMS_5,197,1,48,75,528206908
453,4,T1_SMS_5,198,5,42,127,528212476
453,4,T1_SMS_5,199,5,42,127,528712104
453,4,T1_SMS_5,200,1,48,68,528717920
453,4,T1_SMS_5,201,5,42,127,529212020
453,4,T1_SMS_5,202,1,48,60,529220976
453,4,T1_SMS_5,203,1,48,72,529688264
453,4,T1_SMS_5,204,5,42,127,529711636
453,4,T1_SMS_5,205,5,42,127,530212084
453,4,T1_SMS_5,206,1,48,77,530219396
453,4,T1_SMS_5,207,5,42,127,530711856
453,4,T1_SMS_5,208,1,48,70,530720136
453,4,T1_SMS_5,209,5,42,127,531211772
453,4,T1_SMS_5,210,1,48,66,531212740
453,4,T1_SMS_5,211,1,48,67,531706340
453,4,T1_SMS_5,212,5,42,127,531712508
453,4,T1_SMS_5,213,1,48,62,532203868
453,4,T1_SMS_5,214,5,42,127,532212204
453,4,T1_SMS_5,215,1,48,64,532710628
453,4,T1_SMS_5,216,5,42,127,532712348
453,4,T1_SMS_5,217,5,42,127,533211600
453,4,T1_SMS_5,218,1,48,67,533225716
453,4,T1_SMS_5,219,5,42,127,533712268
453,4,T1_SMS_5,220,1,48,65,533728104
453,4,T1_SMS_5,221,5,42,127,534211964
453,4,T1_SMS_5,222,1,48,65,534213376
453,4,T1_SMS_5,223,5,42,127,534711712
453,4,T1_SMS_5,224,1,48,61,534720088
453,4,T1_SMS_5,225,5,42,127,535212528
453,4,T1_SMS_5,226,1,48,60,535230304
453,4,T1_SMS_5,227,5,42,127,535712220
453,4,T1_SMS_5,228,1,48,63,535714232
453,4,T1_SMS_5,229,5,42,127,536211768
453,4,T1_SMS_5,230,1,48,57,536238304
453,4,T1_SMS_5,231,1,48,68,536684268
453,4,T1_SMS_5,232,5,42,127,536711460
453,4,T1_SMS_5,233,5,42,127,537212204
453,4,T1_SMS_5,234,1,48,63,537224896
453,4,T1_SMS_5,235,5,42,127,537711976
453,4,T1_SMS_5,236,1,48,65,537713384
453,4,T1_SMS_5,237,5,42,127,538211668
453,4,T1_SMS_5,238,1,48,69,538225332
453,4,T1_SMS_5,239,5,42,127,538712484
453,4,T1_SMS_5,240,1,48,62,538728392
453,4,T1_SMS_5,241,5,42,127,539212180
453,4,T1_SMS_5,242,1,48,65,539230560
453,4,T1_SMS_5,243,5,42,127,539711800
453,4,T1_SMS_5,244,1,48,71,539726064
453,4,T1_SMS_5,245,5,42,127,540211496
453,4,T1_SMS_5,246,1,48,70,540213360
453,4,T1_SMS_5,247,5,42,127,540712608
453,4,T1_SMS_5,248,1,48,68,540737652
453,4,T1_SMS_5,249,5,42,127,541212008
453,4,T1_SMS_5,250,1,48,69,541228368
453,4,T1_SMS_5,251,5,42,127,541711776
453,4,T1_SMS_5,252,1,48,61,541737632
453,4,T1_SMS_5,253,5,42,127,542211396
453,4,T1_SMS_5,254,1,48,57,542221768
453,4,T1_SMS_5,255,5,42,127,542712284
453,4,T1_SMS_5,256,1,48,61,542716524
453,4,T1_SMS_5,257,5,42,127,543211832
453,4,T1_SMS_5,258,1,48,60,543241432
453,4,T1_SMS_5,259,1,48,63,543708568
453,4,T1_SMS_5,0,9999,9999,9999,478709868
453,4,T1_SMS_5,1,9999,9999,9999,479209584
453,4,T1_SMS_5,2,9999,9999,9999,479709256
453,4,T1_SMS_5,3,9999,9999,9999,480209996
453,4,T1_SMS_5,4,9999,9999,9999,480709692
453,4,T1_SMS_5,5,9999,9999,9999,481209432
453,4,T1_SMS_5,6,9999,9999,9999,481709128
453,4,T1_SMS_5,7,9999,9999,9999,482209868
453,4,T1_SMS_5,8,9999,9999,9999,482709564
453,4,T1_SMS_5,9,9999,9999,9999,483209332
453,4,T1_SMS_5,10,9999,9999,9999,483710000
453,4,T1_SMS_5,11,9999,9999,9999,484209772
453,4,T1_SMS_5,12,9999,9999,9999,484709464
453,4,T1_SMS_5,13,9999,9999,9999,485209160
453,4,T1_SMS_5,14,9999,9999,9999,485709904
453,4,T1_SMS_5,15,9999,9999,9999,486209604
453,4,T1_SMS_5,16,9999,9999,9999,486709364
453,4,T1_SMS_5,17,9999,9999,9999,487210040
453,4,T1_SMS_5,18,9999,9999,9999,487709804
453,4,T1_SMS_5,19,9999,9999,9999,488209496
453,4,T1_SMS_5,20,9999,9999,9999,488709192
453,4,T1_SMS_5,21,9999,9999,9999,489209940
453,4,T1_SMS_5,22,9999,9999,9999,489709628
453,4,T1_SMS_5,23,9999,9999,9999,490209400
453,4,T1_SMS_5,24,9999,9999,9999,490710072
453,4,T1_SMS_5,25,9999,9999,9999,491209840
453,4,T1_SMS_5,26,9999,9999,9999,491709512
453,4,T1_SMS_5,27,9999,9999,9999,492209200
453,4,T1_SMS_5,28,9999,9999,9999,492709948
453,4,T1_SMS_5,29,9999,9999,9999,493209720
453,4,T1_SMS_5,30,9999,9999,9999,493709416
453,4,T1_SMS_5,31,9999,9999,9999,494209108
453,4,T1_SMS_5,32,9999,9999,9999,494709856
453,4,T1_SMS_5,33,9999,9999,9999,495209544
453,4,T1_SMS_5,34,9999,9999,9999,495709240
453,4,T1_SMS_5,35,9999,9999,9999,496209980
453,4,T1_SMS_5,36,9999,9999,9999,496709748
453,4,T1_SMS_5,37,9999,9999,9999,497209444
453,4,T1_SMS_5,38,9999,9999,9999,497709148
453,4,T1_SMS_5,39,9999,9999,9999,498209880
453,4,T1_SMS_5,40,9999,9999,9999,498709576
453,4,T1_SMS_5,41,9999,9999,9999,499209280
453,4,T1_SMS_5,42,9999,9999,9999,499710012
453,4,T1_SMS_5,43,9999,9999,9999,500209716
453,4,T1_SMS_5,44,9999,9999,9999,500709480
453,4,T1_SMS_5,45,9999,9999,9999,501209180
453,4,T1_SMS_5,46,9999,9999,9999,501709912
453,4,T1_SMS_5,47,9999,9999,9999,502209612
453,4,T1_SMS_5,48,9999,9999,9999,502709352
453,4,T1_SMS_5,49,9999,9999,9999,503210100
453,4,T1_SMS_5,50,9999,9999,9999,503709796
453,4,T1_SMS_5,51,9999,9999,9999,504209488
453,4,T1_SMS_5,52,9999,9999,9999,504709184
453,4,T1_SMS_5,53,9999,9999,9999,505209920
453,4,T1_SMS_5,54,9999,9999,9999,505709620
453,4,T1_SMS_5,55,9999,9999,9999,506209388
453,4,T1_SMS_5,56,9999,9999,9999,506710124
453,4,T1_SMS_5,57,9999,9999,9999,507209816
453,4,T1_SMS_5,58,9999,9999,9999,507709516
453,4,T1_SMS_5,59,9999,9999,9999,508209212
453,4,T1_SMS_5,60,9999,9999,9999,508709952
453,4,T1_SMS_5,61,9999,9999,9999,509209720
453,4,T1_SMS_5,62,9999,9999,9999,509709416
453,4,T1_SMS_5,63,9999,9999,9999,510209116
453,4,T1_SMS_5,64,9999,9999,9999,510709852
453,4,T1_SMS_5,65,9999,9999,9999,511209552
453,4,T1_SMS_5,66,9999,9999,9999,511709240
453,4,T1_SMS_5,67,9999,9999,9999,512209988
453,4,T1_SMS_5,68,9999,9999,9999,512709684
453,4,T1_SMS_5,69,9999,9999,9999,513209428
453,4,T1_SMS_5,70,9999,9999,9999,513709116
453,4,T1_SMS_5,71,9999,9999,9999,514209860
453,4,T1_SMS_5,72,9999,9999,9999,514709556
453,4,T1_SMS_5,73,9999,9999,9999,515209324
453,4,T1_SMS_5,74,9999,9999,9999,515710068
453,4,T1_SMS_5,75,9999,9999,9999,516209756
453,4,T1_SMS_5,76,9999,9999,9999,516709460
453,4,T1_SMS_5,77,9999,9999,9999,517209148
453,4,T1_SMS_5,78,9999,9999,9999,517709888
453,4,T1_SMS_5,79,9999,9999,9999,518209660
453,4,T1_SMS_5,80,9999,9999,9999,518709356
453,4,T1_SMS_5,81,9999,9999,9999,519210096
453,4,T1_SMS_5,82,9999,9999,9999,519709796
453,4,T1_SMS_5,83,9999,9999,9999,520209488
453,4,T1_SMS_5,84,9999,9999,9999,520709192
453,4,T1_SMS_5,85,9999,9999,9999,521209932
453,4,T1_SMS_5,86,9999,9999,9999,521709628
453,4,T1_SMS_5,87,9999,9999,9999,522209396
453,4,T1_SMS_5,88,9999,9999,9999,522710064
453,4,T1_SMS_5,89,9999,9999,9999,523209836
453,4,T1_SMS_5,90,9999,9999,9999,523709504
453,4,T1_SMS_5,91,9999,9999,9999,524209272
453,4,T1_SMS_5,92,9999,9999,9999,524710008
453,4,T1_SMS_5,93,9999,9999,9999,525209704
453,4,T1_SMS_5,94,9999,9999,9999,525709400
453,4,T1_SMS_5,95,9999,9999,9999,526209100
453,4,T1_SMS_5,96,9999,9999,9999,526709836
453,4,T1_SMS_5,97,9999,9999,9999,527209536
453,4,T1_SMS_5,98,9999,9999,9999,527709300
453,4,T1_SMS_5,99,9999,9999,9999,528210040
453,4,T1_SMS_5,100,9999,9999,9999,528709740
453,4,T1_SMS_5,101,9999,9999,9999,529209436
453,4,T1_SMS_5,102,9999,9999,9999,529709124
453,4,T1_SMS_5,103,9999,9999,9999,530209872
453,4,T1_SMS_5,104,9999,9999,9999,530709568
453,4,T1_SMS_5,105,9999,9999,9999,531209264
453,4,T1_SMS_5,106,9999,9999,9999,531710072
453,4,T1_SMS_5,107,9999,9999,9999,532209768
453,4,T1_SMS_5,108,9999,9999,9999,532709472
453,4,T1_SMS_5,109,9999,9999,9999,533209168
453,4,T1_SMS_5,110,9999,9999,9999,533709908
453,4,T1_SMS_5,111,9999,9999,9999,534209604
453,4,T1_SMS_5,112,9999,9999,9999,534709348
453,4,T1_SMS_5,113,9999,9999,9999,535210092
453,4,T1_SMS_5,114,9999,9999,9999,535709784
453,4,T1_SMS_5,115,9999,9999,9999,536209484
453,4,T1_SMS_5,116,9999,9999,9999,536709172
453,4,T1_SMS_5,117,9999,9999,9999,537209920
453,4,T1_SMS_5,118,9999,9999,9999,537709688
453,4,T1_SMS_5,119,9999,9999,9999,538209380
453,4,T1_SMS_5,120,9999,9999,9999,538710124
453,4,T1_SMS_5,121,9999,9999,9999,539209820
453,4,T1_SMS_5,122,9999,9999,9999,539709516
453,4,T1_SMS_5,123,9999,9999,9999,540209212
453,4,T1_SMS_5,124,9999,9999,9999,540709952
453,4,T1_SMS_5,125,9999,9999,9999,541209720
453,4,T1_SMS_5,126,9999,9999,9999,541709416
453,4,T1_SMS_5,127,9999,9999,9999,542209108
453,4,T1_SMS_5,128,9999,9999,9999,542709852
453,4,T1_SMS_5,129,9999,9999,9999,543209544
454,2,T1_SMS_8,0,5,42,127,596910620
454,2,T1_SMS_8,1,1,38,52,597449892
454,2,T1_SMS_8,2,5,42,127,597711200
454,2,T1_SMS_8,3,5,42,127,598510880
454,2,T1_SMS_8,4,1,38,75,598645116
454,2,T1_SMS_8,5,5,42,127,599310836
454,2,T1_SMS_8,6,1,38,52,599434152
454,2,T1_SMS_8,7,5,42,127,600110496
454,2,T1_SMS_8,8,1,38,49,600289116
454,2,T1_SMS_8,9,5,42,127,600911200
454,2,T1_SMS_8,10,1,38,63,601048088
454,2,T1_SMS_8,11,1,38,50,601694736
454,2,T1_SMS_8,12,5,42,127,601710928
454,2,T1_SMS_8,13,1,38,68,602434036
454,2,T1_SMS_8,14,5,42,127,602510736
454,2,T1_SMS_8,15,1,38,65,603229656
454,2,T1_SMS_8,16,5,42,127,603310544
454,2,T1_SMS_8,17,1,38,66,604059456
454,2,T1_SMS_8,18,5,42,127,604111200
454,2,T1_SMS_8,19,1,38,72,604858448
454,2,T1_SMS_8,20,5,42,127,604910912
454,2,T1_SMS_8,21,1,38,65,605669400
454,2,T1_SMS_8,22,5,42,127,605710644
454,2,T1_SMS_8,23,1,38,67,606484164
454,2,T1_SMS_8,24,5,42,127,606510600
454,2,T1_SMS_8,25,1,38,67,607268416
454,2,T1_SMS_8,26,5,42,127,607311380
454,2,T1_SMS_8,27,1,38,67,608050044
454,2,T1_SMS_8,28,5,42,127,608110892
454,2,T1_SMS_8,29,1,38,72,608879476
454,2,T1_SMS_8,30,5,42,127,608910552
454,2,T1_SMS_8,31,1,38,72,609664100
454,2,T1_SMS_8,32,5,42,127,609710656
454,2,T1_SMS_8,33,1,38,67,610447228
454,2,T1_SMS_8,34,5,42,127,610511312
454,2,T1_SMS_8,35,1,38,70,611249284
454,2,T1_SMS_8,36,5,42,127,611310900
454,2,T1_SMS_8,37,1,38,70,612030716
454,2,T1_SMS_8,38,5,42,127,612110928
454,2,T1_SMS_8,39,1,38,57,612836056
454,2,T1_SMS_8,40,5,42,127,612910440
454,2,T1_SMS_8,41,1,38,57,613639152
454,2,T1_SMS_8,42,5,42,127,613711220
454,2,T1_SMS_8,43,1,38,72,614468736
454,2,T1_SMS_8,44,5,42,127,614510804
454,2,T1_SMS_8,45,1,38,76,615273176
454,2,T1_SMS_8,46,5,42,127,615310764
454,2,T1_SMS_8,47,1,38,75,616082712
454,2,T1_SMS_8,48,5,42,127,616110496
454,2,T1_SMS_8,49,1,38,89,616866212
454,2,T1_SMS_8,50,5,42,127,616911228
454,2,T1_SMS_8,51,1,38,73,617642016
454,2,T1_SMS_8,52,5,42,127,617710888
454,2,T1_SMS_8,53,1,38,69,618479168
454,2,T1_SMS_8,54,5,42,127,618510692
454,2,T1_SMS_8,55,1,38,74,619276280
454,2,T1_SMS_8,56,5,42,127,619310428
454,2,T1_SMS_8,57,1,38,67,620081928
454,2,T1_SMS_8,58,5,42,127,620111132
454,2,T1_SMS_8,59,1,38,66,620866628
454,2,T1_SMS_8,60,5,42,127,620911088
454,2,T1_SMS_8,61,1,38,68,621692908
454,2,T1_SMS_8,62,5,42,127,621710676
454,2,T1_SMS_8,63,1,38,51,622480976
454,2,T1_SMS_8,64,5,42,127,622510408
454,2,T1_SMS_8,65,1,38,73,623241668
454,2,T1_SMS_8,66,5,42,127,623311360
454,2,T1_SMS_8,67,1,38,72,624079868
454,2,T1_SMS_8,68,5,42,127,624111168
454,2,T1_SMS_8,69,1,38,74,624888284
454,2,T1_SMS_8,70,5,42,127,624910604
454,2,T1_SMS_8,71,1,38,79,625682252
454,2,T1_SMS_8,72,5,42,127,625710488
454,2,T1_SMS_8,73,1,38,73,626497700
454,2,T1_SMS_8,74,5,42,127,626511344
454,2,T1_SMS_8,75,1,38,65,627267816
454,2,T1_SMS_8,76,5,42,127,627310856
454,2,T1_SMS_8,77,1,38,70,628085716
454,2,T1_SMS_8,78,5,42,127,628110660
454,2,T1_SMS_8,79,1,38,65,628898920
454,2,T1_SMS_8,80,5,42,127,628910320
454,2,T1_SMS_8,81,1,38,78,629677708
454,2,T1_SMS_8,82,5,42,127,629711348
454,2,T1_SMS_8,83,1,38,75,630484420
454,2,T1_SMS_8,84,5,42,127,630510932
454,2,T1_SMS_8,85,1,38,59,631296944
454,2,T1_SMS_8,86,5,42,127,631310668
454,2,T1_SMS_8,87,1,38,28,632081720
454,2,T1_SMS_8,88,5,42,127,632110400
454,2,T1_SMS_8,89,1,38,72,632908992
454,2,T1_SMS_8,90,5,42,127,632911476
454,2,T1_SMS_8,91,1,38,69,633706540
454,2,T1_SMS_8,92,5,42,127,633711064
454,2,T1_SMS_8,93,1,38,64,634461696
454,2,T1_SMS_8,94,5,42,127,634510648
454,2,T1_SMS_8,95,1,38,67,635268464
454,2,T1_SMS_8,96,5,42,127,635310308
454,2,T1_SMS_8,97,1,38,72,636097544
454,2,T1_SMS_8,98,5,42,127,636111112
454,2,T1_SMS_8,99,1,38,73,636874456
454,2,T1_SMS_8,100,5,42,127,636910992
454,2,T1_SMS_8,101,1,38,84,637659532
454,2,T1_SMS_8,102,5,42,127,637710580
454,2,T1_SMS_8,103,1,38,80,638493072
454,2,T1_SMS_8,104,5,42,127,638510684
454,2,T1_SMS_8,105,1,38,69,639271268
454,2,T1_SMS_8,106,5,42,127,639311168
454,2,T1_SMS_8,107,1,38,73,640070700
454,2,T1_SMS_8,108,5,42,127,640110972
454,2,T1_SMS_8,109,1,38,81,640892348
454,2,T1_SMS_8,110,5,42,127,640910632
454,2,T1_SMS_8,111,5,42,127,641710596
454,2,T1_SMS_8,112,1,38,64,641726836
454,2,T1_SMS_8,113,1,38,67,642494084
454,2,T1_SMS_8,114,5,42,127,642511396
454,2,T1_SMS_8,115,1,38,65,643295316
454,2,T1_SMS_8,116,5,42,127,643310980
454,2,T1_SMS_8,117,5,42,127,644110648
454,2,T1_SMS_8,118,1,38,74,644111540
454,2,T1_SMS_8,119,1,38,63,644895904
454,2,T1_SMS_8,120,5,42,127,644910524
454,2,T1_SMS_8,121,1,38,65,645685616
454,2,T1_SMS_8,122,5,42,127,645711156
454,2,T1_SMS_8,123,1,38,68,646459620
454,2,T1_SMS_8,124,5,42,127,646510888
454,2,T1_SMS_8,125,1,38,74,647279924
454,2,T1_SMS_8,126,5,42,127,647310772
454,2,T1_SMS_8,127,1,38,74,648076960
454,2,T1_SMS_8,128,5,42,127,648110428
454,2,T1_SMS_8,129,1,38,65,648884844
454,2,T1_SMS_8,130,5,42,127,648911160
454,2,T1_SMS_8,131,1,38,74,649692312
454,2,T1_SMS_8,132,5,42,127,649710896
454,2,T1_SMS_8,133,1,38,74,650488908
454,2,T1_SMS_8,134,5,42,127,650510552
454,2,T1_SMS_8,135,1,38,64,651261784
454,2,T1_SMS_8,136,5,42,127,651310436
454,2,T1_SMS_8,137,5,42,127,652111372
454,2,T1_SMS_8,138,1,38,60,652130872
454,2,T1_SMS_8,139,1,38,70,652907556
454,2,T1_SMS_8,140,5,42,127,652910948
454,2,T1_SMS_8,141,5,42,127,653710688
454,2,T1_SMS_8,142,1,38,75,653714404
454,2,T1_SMS_8,143,5,42,127,654510420
454,2,T1_SMS_8,144,1,38,72,654522164
454,2,T1_SMS_8,145,5,42,127,655311376
454,2,T1_SMS_8,146,1,38,69,655340152
454,2,T1_SMS_8,147,1,38,65,656037444
454,2,T1_SMS_8,148,5,42,127,656111028
454,2,T1_SMS_8,149,1,38,61,656856652
454,2,T1_SMS_8,150,5,42,127,656910612
454,2,T1_SMS_8,151,5,42,127,657710428
454,2,T1_SMS_8,152,1,38,78,657723720
454,2,T1_SMS_8,153,5,42,127,658511132
454,2,T1_SMS_8,154,1,38,71,658516420
454,2,T1_SMS_8,155,5,42,127,659311020
454,2,T1_SMS_8,156,1,38,59,659311984
454,2,T1_SMS_8,157,5,42,127,660110676
454,2,T1_SMS_8,158,1,38,65,660115140
454,2,T1_SMS_8,159,1,38,73,660883140
454,2,T1_SMS_8,160,5,42,127,660910476
454,2,T1_SMS_8,161,1,38,71,661697788
454,2,T1_SMS_8,162,5,42,127,661711208
454,2,T1_SMS_8,163,1,38,80,662454784
454,2,T1_SMS_8,164,5,42,127,662511140
454,2,T1_SMS_8,165,1,38,68,663280324
454,2,T1_SMS_8,166,5,42,127,663310652
454,2,T1_SMS_8,167,1,38,43,664060532
454,2,T1_SMS_8,168,5,42,127,664110384
454,2,T1_SMS_8,169,1,38,78,664906340
454,2,T1_SMS_8,170,5,42,127,664911088
454,2,T1_SMS_8,171,5,42,127,665710980
454,2,T1_SMS_8,172,1,38,84,665714996
454,2,T1_SMS_8,173,1,38,64,666497140
454,2,T1_SMS_8,174,5,42,127,666510780
454,2,T1_SMS_8,175,5,42,127,667310372
454,2,T1_SMS_8,176,1,38,63,667330492
454,2,T1_SMS_8,177,1,38,69,668089896
454,2,T1_SMS_8,178,5,42,127,668111096
454,2,T1_SMS_8,179,1,38,67,668877436
454,2,T1_SMS_8,180,5,42,127,668911052
454,2,T1_SMS_8,181,1,38,81,669671184
454,2,T1_SMS_8,182,5,42,127,669710716
454,2,T1_SMS_8,183,5,42,127,670510380
454,2,T1_SMS_8,184,1,38,73,670529732
454,2,T1_SMS_8,185,1,38,82,671277240
454,2,T1_SMS_8,186,5,42,127,671311304
454,2,T1_SMS_8,187,1,38,70,672076976
454,2,T1_SMS_8,188,5,42,127,672110812
454,2,T1_SMS_8,189,1,38,65,672851424
454,2,T1_SMS_8,190,5,42,127,672910844
454,2,T1_SMS_8,191,5,42,127,673710584
454,2,T1_SMS_8,192,1,38,71,673711552
454,2,T1_SMS_8,193,1,38,61,674489208
454,2,T1_SMS_8,194,5,42,127,674511232
454,2,T1_SMS_8,195,5,42,127,675310824
454,2,T1_SMS_8,196,1,38,65,675351116
454,2,T1_SMS_8,197,1,38,70,676075360
454,2,T1_SMS_8,198,5,42,127,676110924
454,2,T1_SMS_8,199,1,38,74,676866648
454,2,T1_SMS_8,200,5,42,127,676910660
454,2,T1_SMS_8,201,1,38,71,677694948
454,2,T1_SMS_8,202,5,42,127,677711144
454,2,T1_SMS_8,203,1,38,64,678470676
454,2,T1_SMS_8,204,5,42,127,678511024
454,2,T1_SMS_8,205,1,38,83,679302120
454,2,T1_SMS_8,206,5,42,127,679310756
454,2,T1_SMS_8,207,5,42,127,680110644
454,2,T1_SMS_8,208,1,38,72,680113316
454,2,T1_SMS_8,209,5,42,127,680911304
454,2,T1_SMS_8,210,1,38,64,680932072
454,2,T1_SMS_8,211,1,38,74,681707632
454,2,T1_SMS_8,212,5,42,127,681710880
454,2,T1_SMS_8,213,5,42,127,682510620
454,2,T1_SMS_8,214,1,38,80,682554800
454,2,T1_SMS_8,215,1,38,66,683235588
454,2,T1_SMS_8,216,5,42,127,683310568
454,2,T1_SMS_8,217,1,38,72,684080500
454,2,T1_SMS_8,218,5,42,127,684111496
454,2,T1_SMS_8,219,1,38,75,684898488
454,2,T1_SMS_8,220,5,42,127,684911084
454,2,T1_SMS_8,221,1,38,74,685674428
454,2,T1_SMS_8,222,5,42,127,685710820
454,2,T1_SMS_8,223,1,38,72,686444696
454,2,T1_SMS_8,224,5,42,127,686510476
454,2,T1_SMS_8,225,1,38,68,687288812
454,2,T1_SMS_8,226,5,42,127,687311284
454,2,T1_SMS_8,227,1,38,67,688071716
454,2,T1_SMS_8,228,5,42,127,688111164
454,2,T1_SMS_8,229,1,38,76,688897256
454,2,T1_SMS_8,230,5,42,127,688910676
454,2,T1_SMS_8,231,1,38,73,689677320
454,2,T1_SMS_8,232,5,42,127,689710336
454,2,T1_SMS_8,233,1,38,66,690500688
454,2,T1_SMS_8,234,5,42,127,690511188
454,2,T1_SMS_8,235,1,38,65,691249332
454,2,T1_SMS_8,236,5,42,127,691311144
454,2,T1_SMS_8,237,5,42,127,692110588
454,2,T1_SMS_8,238,1,38,73,692127992
454,2,T1_SMS_8,239,1,38,59,692895096
454,2,T1_SMS_8,0,9999,9999,9999,596908108
454,2,T1_SMS_8,1,9999,9999,9999,597708912
454,2,T1_SMS_8,2,9999,9999,9999,598508592
454,2,T1_SMS_8,3,9999,9999,9999,599308400
454,2,T1_SMS_8,4,9999,9999,9999,600108132
454,2,T1_SMS_8,5,9999,9999,9999,600908912
454,2,T1_SMS_8,6,9999,9999,9999,601708640
454,2,T1_SMS_8,7,9999,9999,9999,602508376
454,2,T1_SMS_8,8,9999,9999,9999,603308108
454,2,T1_SMS_8,9,9999,9999,9999,604108912
454,2,T1_SMS_8,10,9999,9999,9999,604908624
454,2,T1_SMS_8,11,9999,9999,9999,605708356
454,2,T1_SMS_8,12,9999,9999,9999,606508092
454,2,T1_SMS_8,13,9999,9999,9999,607308872
454,2,T1_SMS_8,14,9999,9999,9999,608108604
454,2,T1_SMS_8,15,9999,9999,9999,608908336
454,2,T1_SMS_8,16,9999,9999,9999,609708144
454,2,T1_SMS_8,17,9999,9999,9999,610508876
454,2,T1_SMS_8,18,9999,9999,9999,611308612
454,2,T1_SMS_8,19,9999,9999,9999,612108344
454,2,T1_SMS_8,20,9999,9999,9999,612908076
454,2,T1_SMS_8,21,9999,9999,9999,613708856
454,2,T1_SMS_8,22,9999,9999,9999,614508592
454,2,T1_SMS_8,23,9999,9999,9999,615308400
454,2,T1_SMS_8,24,9999,9999,9999,616108136
454,2,T1_SMS_8,25,9999,9999,9999,616908864
454,2,T1_SMS_8,26,9999,9999,9999,617708596
454,2,T1_SMS_8,27,9999,9999,9999,618508404
454,2,T1_SMS_8,28,9999,9999,9999,619308140
454,2,T1_SMS_8,29,9999,9999,9999,620108844
454,2,T1_SMS_8,30,9999,9999,9999,620908652
454,2,T1_SMS_8,31,9999,9999,9999,621708388
454,2,T1_SMS_8,32,9999,9999,9999,622508120
454,2,T1_SMS_8,33,9999,9999,9999,623308852
454,2,T1_SMS_8,34,9999,9999,9999,624108660
454,2,T1_SMS_8,35,9999,9999,9999,624908392
454,2,T1_SMS_8,36,9999,9999,9999,625708124
454,2,T1_SMS_8,37,9999,9999,9999,626508908
454,2,T1_SMS_8,38,9999,9999,9999,627308640
454,2,T1_SMS_8,39,9999,9999,9999,628108372
454,2,T1_SMS_8,40,9999,9999,9999,628908108
454,2,T1_SMS_8,41,9999,9999,9999,629708912
454,2,T1_SMS_8,42,9999,9999,9999,630508644
454,2,T1_SMS_8,43,9999,9999,9999,631308380
454,2,T1_SMS_8,44,9999,9999,9999,632108112
454,2,T1_SMS_8,45,9999,9999,9999,632908860
454,2,T1_SMS_8,46,9999,9999,9999,633708624
454,2,T1_SMS_8,47,9999,9999,9999,634508360
454,2,T1_SMS_8,48,9999,9999,9999,635308092
454,2,T1_SMS_8,49,9999,9999,9999,636108896
454,2,T1_SMS_8,50,9999,9999,9999,636908632
454,2,T1_SMS_8,51,9999,9999,9999,637708364
454,2,T1_SMS_8,52,9999,9999,9999,638508096
454,2,T1_SMS_8,53,9999,9999,9999,639308880
454,2,T1_SMS_8,54,9999,9999,9999,640108612
454,2,T1_SMS_8,55,9999,9999,9999,640908344
454,2,T1_SMS_8,56,9999,9999,9999,641708084
454,2,T1_SMS_8,57,9999,9999,9999,642508888
454,2,T1_SMS_8,58,9999,9999,9999,643308620
454,2,T1_SMS_8,59,9999,9999,9999,644108360
454,2,T1_SMS_8,60,9999,9999,9999,644908088
454,2,T1_SMS_8,61,9999,9999,9999,645708868
454,2,T1_SMS_8,62,9999,9999,9999,646508600
454,2,T1_SMS_8,63,9999,9999,9999,647308336
454,2,T1_SMS_8,64,9999,9999,9999,648108140
454,2,T1_SMS_8,65,9999,9999,9999,648908872
454,2,T1_SMS_8,66,9999,9999,9999,649708604
454,2,T1_SMS_8,67,9999,9999,9999,650508340
454,2,T1_SMS_8,68,9999,9999,9999,651308148
454,2,T1_SMS_8,69,9999,9999,9999,652108860
454,2,T1_SMS_8,70,9999,9999,9999,652908660
454,2,T1_SMS_8,71,9999,9999,9999,653708400
454,2,T1_SMS_8,72,9999,9999,9999,654508132
454,2,T1_SMS_8,73,9999,9999,9999,655308864
454,2,T1_SMS_8,74,9999,9999,9999,656108592
454,2,T1_SMS_8,75,9999,9999,9999,656908400
454,2,T1_SMS_8,76,9999,9999,9999,657708140
454,2,T1_SMS_8,77,9999,9999,9999,658508844
454,2,T1_SMS_8,78,9999,9999,9999,659308656
454,2,T1_SMS_8,79,9999,9999,9999,660108388
454,2,T1_SMS_8,80,9999,9999,9999,660908116
454,2,T1_SMS_8,81,9999,9999,9999,661708920
454,2,T1_SMS_8,82,9999,9999,9999,662508628
454,2,T1_SMS_8,83,9999,9999,9999,663308364
454,2,T1_SMS_8,84,9999,9999,9999,664108096
454,2,T1_SMS_8,85,9999,9999,9999,664908876
454,2,T1_SMS_8,86,9999,9999,9999,665708616
454,2,T1_SMS_8,87,9999,9999,9999,666508344
454,2,T1_SMS_8,88,9999,9999,9999,667308084
454,2,T1_SMS_8,89,9999,9999,9999,668108884
454,2,T1_SMS_8,90,9999,9999,9999,668908616
454,2,T1_SMS_8,91,9999,9999,9999,669708352
454,2,T1_SMS_8,92,9999,9999,9999,670508092
454,2,T1_SMS_8,93,9999,9999,9999,671308868
454,2,T1_SMS_8,94,9999,9999,9999,672108600
454,2,T1_SMS_8,95,9999,9999,9999,672908336
454,2,T1_SMS_8,96,9999,9999,9999,673708148
454,2,T1_SMS_8,97,9999,9999,9999,674508872
454,2,T1_SMS_8,98,9999,9999,9999,675308612
454,2,T1_SMS_8,99,9999,9999,9999,676108340
454,2,T1_SMS_8,100,9999,9999,9999,676908148
454,2,T1_SMS_8,101,9999,9999,9999,677708852
454,2,T1_SMS_8,102,9999,9999,9999,678508660
454,2,T1_SMS_8,103,9999,9999,9999,679308396
454,2,T1_SMS_8,104,9999,9999,9999,680108132
454,2,T1_SMS_8,105,9999,9999,9999,680908864
454,2,T1_SMS_8,106,9999,9999,9999,681708592
454,2,T1_SMS_8,107,9999,9999,9999,682508404
454,2,T1_SMS_8,108,9999,9999,9999,683308132
454,2,T1_SMS_8,109,9999,9999,9999,684108912
454,2,T1_SMS_8,110,9999,9999,9999,684908648
454,2,T1_SMS_8,111,9999,9999,9999,685708380
454,2,T1_SMS_8,112,9999,9999,9999,686508116
454,2,T1_SMS_8,113,9999,9999,9999,687308848
454,2,T1_SMS_8,114,9999,9999,9999,688108652
454,2,T1_SMS_8,115,9999,9999,9999,688908388
454,2,T1_SMS_8,116,9999,9999,9999,689708120
454,2,T1_SMS_8,117,9999,9999,9999,690508900
454,2,T1_SMS_8,118,9999,9999,9999,691308636
454,2,T1_SMS_8,119,9999,9999,9999,692108372
455,21,Ticks_Linear_5,0,5,42,127,704871872
455,21,Ticks_Linear_5,1,5,42,127,705352124
455,21,Ticks_Linear_5,2,1,48,52,705800128
455,21,Ticks_Linear_5,3,5,42,127,705832292
455,21,Ticks_Linear_5,4,1,48,71,706264624
455,21,Ticks_Linear_5,5,5,42,127,706311772
455,21,Ticks_Linear_5,6,1,48,73,706748448
455,21,Ticks_Linear_5,7,5,42,127,706791780
455,21,Ticks_Linear_5,8,1,48,80,707238160
455,21,Ticks_Linear_5,9,5,42,127,707282188
455,21,Ticks_Linear_5,10,1,48,83,707748044
455,21,Ticks_Linear_5,11,5,42,127,707771852
455,21,Ticks_Linear_5,12,1,48,85,708242880
455,21,Ticks_Linear_5,13,5,42,127,708262168
455,21,Ticks_Linear_5,14,5,42,127,708751912
455,21,Ticks_Linear_5,15,1,48,86,708756448
455,21,Ticks_Linear_5,16,1,48,86,709208200
455,21,Ticks_Linear_5,17,5,42,127,709242168
455,21,Ticks_Linear_5,18,1,48,88,709725724
455,21,Ticks_Linear_5,19,5,42,127,709742092
455,21,Ticks_Linear_5,20,1,48,88,710218528
455,21,Ticks_Linear_5,21,5,42,127,710241792
455,21,Ticks_Linear_5,22,1,48,89,710727744
455,21,Ticks_Linear_5,23,5,42,127,710742908
455,21,Ticks_Linear_5,24,1,48,70,711206692
455,21,Ticks_Linear_5,25,5,42,127,711242236
455,21,Ticks_Linear_5,26,1,48,80,711739192
455,21,Ticks_Linear_5,27,5,42,127,711741864
455,21,Ticks_Linear_5,28,1,48,86,712217784
455,21,Ticks_Linear_5,29,5,42,127,712251824
455,21,Ticks_Linear_5,30,1,48,81,712742644
455,21,Ticks_Linear_5,31,5,42,127,712761784
455,21,Ticks_Linear_5,32,1,48,87,713226088
455,21,Ticks_Linear_5,33,5,42,127,713271592
455,21,Ticks_Linear_5,34,1,48,79,713734260
455,21,Ticks_Linear_5,35,5,42,127,713781700
455,21,Ticks_Linear_5,36,1,48,84,714249616
455,21,Ticks_Linear_5,37,5,42,127,714291588
455,21,Ticks_Linear_5,38,1,48,83,714745112
455,21,Ticks_Linear_5,39,5,42,127,714811880
455,21,Ticks_Linear_5,40,1,48,72,715262932
455,21,Ticks_Linear_5,41,5,42,127,715332024
455,21,Ticks_Linear_5,42,1,48,74,715811316
455,21,Ticks_Linear_5,43,5,42,127,715852016
455,21,Ticks_Linear_5,44,1,48,75,716328752
455,21,Ticks_Linear_5,45,5,42,127,716372312
455,21,Ticks_Linear_5,46,1,48,89,716874732
455,21,Ticks_Linear_5,47,5,42,127,716891556
455,21,Ticks_Linear_5,48,1,48,89,717366500
455,21,Ticks_Linear_5,49,5,42,127,717421812
455,21,Ticks_Linear_5,50,1,48,71,717896524
455,21,Ticks_Linear_5,51,5,42,127,717952364
455,21,Ticks_Linear_5,52,1,48,86,718398548
455,21,Ticks_Linear_5,53,5,42,127,718481644
455,21,Ticks_Linear_5,54,1,48,68,718958904
455,21,Ticks_Linear_5,55,5,42,127,719012564
455,21,Ticks_Linear_5,56,1,48,85,719445424
455,21,Ticks_Linear_5,57,5,42,127,719542232
455,21,Ticks_Linear_5,58,1,48,81,719994328
455,21,Ticks_Linear_5,59,5,42,127,720082384
455,21,Ticks_Linear_5,60,1,48,84,720604660
455,21,Ticks_Linear_5,61,5,42,127,720622000
455,21,Ticks_Linear_5,62,1,48,84,721104880
455,21,Ticks_Linear_5,63,5,42,127,721161616
455,21,Ticks_Linear_5,64,1,48,75,721662028
455,21,Ticks_Linear_5,65,5,42,127,721702352
455,21,Ticks_Linear_5,66,1,48,81,722178344
455,21,Ticks_Linear_5,67,5,42,127,722241968
455,21,Ticks_Linear_5,68,1,48,66,722706728
455,21,Ticks_Linear_5,69,5,42,127,722791844
455,21,Ticks_Linear_5,70,1,48,70,723239296
455,21,Ticks_Linear_5,71,5,42,127,723341628
455,21,Ticks_Linear_5,72,1,48,75,723790008
455,21,Ticks_Linear_5,73,5,42,127,723891524
455,21,Ticks_Linear_5,74,1,48,70,724352012
455,21,Ticks_Linear_5,75,5,42,127,724441564
455,21,Ticks_Linear_5,76,1,48,59,724885324
455,21,Ticks_Linear_5,77,5,42,127,724992320
455,21,Ticks_Linear_5,78,1,48,81,725474396
455,21,Ticks_Linear_5,79,5,42,127,725551420
455,21,Ticks_Linear_5,80,1,48,90,726044936
455,21,Ticks_Linear_5,81,5,42,127,726111552
455,21,Ticks_Linear_5,82,1,48,85,726606784
455,21,Ticks_Linear_5,83,5,42,127,726671688
455,21,Ticks_Linear_5,84,1,48,75,727211388
455,21,Ticks_Linear_5,85,5,42,127,727231744
455,21,Ticks_Linear_5,86,1,48,74,727743380
455,21,Ticks_Linear_5,87,5,42,127,727792176
455,21,Ticks_Linear_5,88,1,48,69,728275580
455,21,Ticks_Linear_5,89,5,42,127,728362268
455,21,Ticks_Linear_5,90,1,48,62,728867836
455,21,Ticks_Linear_5,91,5,42,127,728931688
455,21,Ticks_Linear_5,92,1,48,63,729408200
455,21,Ticks_Linear_5,93,5,42,127,729502156
455,21,Ticks_Linear_5,94,1,48,67,730016340
455,21,Ticks_Linear_5,95,5,42,127,730072348
455,21,Ticks_Linear_5,96,1,48,67,730567364
455,21,Ticks_Linear_5,97,5,42,127,730652180
455,21,Ticks_Linear_5,98,1,48,78,731128996
455,21,Ticks_Linear_5,99,5,42,127,731231548
455,21,Ticks_Linear_5,100,1,48,62,731751292
455,21,Ticks_Linear_5,101,5,42,127,731812140
455,21,Ticks_Linear_5,102,1,48,66,732380724
455,21,Ticks_Linear_5,103,5,42,127,732391916
455,21,Ticks_Linear_5,104,1,48,69,732884756
455,21,Ticks_Linear_5,105,5,42,127,732972420
455,21,Ticks_Linear_5,106,1,48,59,733520536
455,21,Ticks_Linear_5,107,5,42,127,733551952
455,21,Ticks_Linear_5,108,1,48,62,734064116
455,21,Ticks_Linear_5,109,5,42,127,734142212
455,21,Ticks_Linear_5,110,1,48,65,734701560
455,21,Ticks_Linear_5,111,5,42,127,734731928
455,21,Ticks_Linear_5,112,1,48,63,735278760
455,21,Ticks_Linear_5,113,5,42,127,735321420
455,21,Ticks_Linear_5,114,1,48,60,735883008
455,21,Ticks_Linear_5,115,5,42,127,735912180
455,21,Ticks_Linear_5,116,1,48,61,736457392
455,21,Ticks_Linear_5,117,5,42,127,736501996
455,21,Ticks_Linear_5,118,1,48,71,737049888
455,21,Ticks_Linear_5,119,5,42,127,737102120
455,21,Ticks_Linear_5,120,1,48,53,737665576
455,21,Ticks_Linear_5,121,5,42,127,737702240
455,21,Ticks_Linear_5,122,1,48,68,738270452
455,21,Ticks_Linear_5,123,5,42,127,738302240
455,21,Ticks_Linear_5,124,1,48,68,738830364
455,21,Ticks_Linear_5,125,5,42,127,738902288
455,21,Ticks_Linear_5,126,5,42,127,739501372
455,21,Ticks_Linear_5,127,1,48,64,739512608
455,21,Ticks_Linear_5,128,1,48,73,740096600
455,21,Ticks_Linear_5,129,5,42,127,740112068
455,21,Ticks_Linear_5,130,1,48,73,740684292
455,21,Ticks_Linear_5,131,5,42,127,740721932
455,21,Ticks_Linear_5,132,1,48,62,741302568
455,21,Ticks_Linear_5,133,5,42,127,741332264
455,21,Ticks_Linear_5,134,1,48,63,741920144
455,21,Ticks_Linear_5,135,5,42,127,741941820
455,21,Ticks_Linear_5,136,1,48,64,742512620
455,21,Ticks_Linear_5,137,5,42,127,742551904
455,21,Ticks_Linear_5,138,1,48,72,743147064
455,21,Ticks_Linear_5,139,5,42,127,743171448
455,21,Ticks_Linear_5,140,1,48,64,743787252
455,21,Ticks_Linear_5,141,5,42,127,743792016
455,21,Ticks_Linear_5,142,1,48,70,744387776
455,21,Ticks_Linear_5,143,5,42,127,744411636
455,21,Ticks_Linear_5,144,1,48,65,744997112
455,21,Ticks_Linear_5,145,5,42,127,745031976
455,21,Ticks_Linear_5,146,1,48,67,745617972
455,21,Ticks_Linear_5,147,5,42,127,745651520
455,21,Ticks_Linear_5,148,1,48,67,746237148
455,21,Ticks_Linear_5,149,5,42,127,746282496
455,21,Ticks_Linear_5,150,1,48,65,746854796
455,21,Ticks_Linear_5,151,5,42,127,746912128
455,21,Ticks_Linear_5,152,1,48,61,747509996
455,21,Ticks_Linear_5,153,5,42,127,747541856
455,21,Ticks_Linear_5,154,1,48,62,748160216
455,21,Ticks_Linear_5,155,5,42,127,748171784
455,21,Ticks_Linear_5,156,1,48,44,748799296
455,21,Ticks_Linear_5,157,5,42,127,748802484
455,21,Ticks_Linear_5,158,5,42,127,749442528
455,21,Ticks_Linear_5,159,1,48,48,749454112
455,21,Ticks_Linear_5,160,1,48,75,750024060
455,21,Ticks_Linear_5,161,5,42,127,750082364
455,21,Ticks_Linear_5,162,1,48,63,750698092
455,21,Ticks_Linear_5,163,5,42,127,750722552
455,21,Ticks_Linear_5,164,1,48,54,751353664
455,21,Ticks_Linear_5,165,5,42,127,751362392
455,21,Ticks_Linear_5,166,1,48,59,751995568
455,21,Ticks_Linear_5,167,5,42,127,752002356
455,21,Ticks_Linear_5,168,1,48,72,752625900
455,21,Ticks_Linear_5,169,5,42,127,752661740
455,21,Ticks_Linear_5,170,1,48,62,753266088
455,21,Ticks_Linear_5,171,5,42,127,753312112
455,21,Ticks_Linear_5,172,1,48,61,753948760
455,21,Ticks_Linear_5,173,5,42,127,753962432
455,21,Ticks_Linear_5,174,1,48,58,754556520
455,21,Ticks_Linear_5,175,5,42,127,754611636
455,21,Ticks_Linear_5,176,1,48,64,755195092
455,21,Ticks_Linear_5,177,5,42,127,755261784
455,21,Ticks_Linear_5,178,1,48,57,755850184
455,21,Ticks_Linear_5,179,5,42,127,755922436
455,21,Ticks_Linear_5,180,1,48,53,756480588
455,21,Ticks_Linear_5,181,5,42,127,756581708
455,21,Ticks_Linear_5,182,5,42,127,757242388
455,21,Ticks_Linear_5,183,1,48,57,757268572
455,21,Ticks_Linear_5,184,1,48,61,757857884
455,21,Ticks_Linear_5,185,5,42,127,757901740
455,21,Ticks_Linear_5,186,1,48,50,758487464
455,21,Ticks_Linear_5,187,5,42,127,758562172
455,21,Ticks_Linear_5,188,1,48,54,759142260
455,21,Ticks_Linear_5,189,5,42,127,759231740
455,21,Ticks_Linear_5,190,1,48,49,759828672
455,21,Ticks_Linear_5,191,5,42,127,759901508
455,21,Ticks_Linear_5,192,1,48,48,760527372
455,21,Ticks_Linear_5,193,5,42,127,760572348
455,21,Ticks_Linear_5,194,1,48,48,761201792
455,21,Ticks_Linear_5,195,5,42,127,761242116
455,21,Ticks_Linear_5,196,1,48,51,761844468
455,21,Ticks_Linear_5,197,5,42,127,761911540
455,21,Ticks_Linear_5,198,1,48,57,762540004
455,21,Ticks_Linear_5,199,5,42,127,762591516
455,21,Ticks_Linear_5,200,1,48,56,763193544
455,21,Ticks_Linear_5,201,5,42,127,763271616
455,21,Ticks_Linear_5,202,1,48,58,763916952
455,21,Ticks_Linear_5,203,5,42,127,763951520
455,21,Ticks_Linear_5,204,1,48,59,764579824
455,21,Ticks_Linear_5,205,5,42,127,764632396
455,21,Ticks_Linear_5,206,1,48,55,765215780
455,21,Ticks_Linear_5,207,5,42,127,765321548
455,21,Ticks_Linear_5,208,1,48,62,765947504
455,21,Ticks_Linear_5,209,5,42,127,766011948
455,21,Ticks_Linear_5,210,1,48,51,766679688
455,21,Ticks_Linear_5,211,5,42,127,766702112
455,21,Ticks_Linear_5,212,1,48,53,767363084
455,21,Ticks_Linear_5,213,5,42,127,767392028
455,21,Ticks_Linear_5,214,1,48,52,768067844
455,21,Ticks_Linear_5,215,5,42,127,768082188
455,21,Ticks_Linear_5,216,1,48,67,768758228
455,21,Ticks_Linear_5,217,5,42,127,768771456
455,21,Ticks_Linear_5,218,1,48,75,769458352
455,21,Ticks_Linear_5,219,5,42,127,769472100
455,21,Ticks_Linear_5,220,5,42,127,770172280
455,21,Ticks_Linear_5,221,1,48,51,770196516
455,21,Ticks_Linear_5,222,1,48,65,770825772
455,21,Ticks_Linear_5,223,5,42,127,770871872
455,21,Ticks_Linear_5,224,1,48,62,771481168
455,21,Ticks_Linear_5,225,5,42,127,771572220
455,21,Ticks_Linear_5,226,1,48,67,772188696
455,21,Ticks_Linear_5,227,5,42,127,772271420
455,21,Ticks_Linear_5,228,1,48,60,772915084
455,21,Ticks_Linear_5,229,5,42,127,772982076
455,21,Ticks_Linear_5,230,1,48,60,773645232
455,21,Ticks_Linear_5,231,5,42,127,773691860
455,21,Ticks_Linear_5,232,1,48,76,774354572
455,21,Ticks_Linear_5,233,5,42,127,774402392
455,21,Ticks_Linear_5,234,1,48,55,775050484
455,21,Ticks_Linear_5,235,5,42,127,775122360
455,21,Ticks_Linear_5,236,1,48,67,775813284
455,21,Ticks_Linear_5,237,5,42,127,775831820
455,21,Ticks_Linear_5,238,1,48,61,776483004
455,21,Ticks_Linear_5,239,5,42,127,776551716
455,21,Ticks_Linear_5,240,1,48,60,777251500
455,21,Ticks_Linear_5,241,5,42,127,777271760
455,21,Ticks_Linear_5,242,1,48,81,777897968
455,21,Ticks_Linear_5,243,5,42,127,777991784
455,21,Ticks_Linear_5,244,1,48,74,778659572
455,21,Ticks_Linear_5,245,5,42,127,778712592
455,21,Ticks_Linear_5,246,1,48,68,779412580
455,21,Ticks_Linear_5,247,5,42,127,779441548
455,21,Ticks_Linear_5,248,1,48,67,780082744
455,21,Ticks_Linear_5,249,5,42,127,780171824
455,21,Ticks_Linear_5,250,1,48,64,780858424
455,21,Ticks_Linear_5,251,5,42,127,780901752
455,21,Ticks_Linear_5,252,1,48,78,781612916
455,21,Ticks_Linear_5,253,5,42,127,781631904
455,21,Ticks_Linear_5,254,1,48,78,782334380
455,21,Ticks_Linear_5,255,5,42,127,782361908
455,21,Ticks_Linear_5,256,1,48,94,783053228
455,21,Ticks_Linear_5,257,5,42,127,783091988
455,21,Ticks_Linear_5,258,1,48,65,783779456
455,21,Ticks_Linear_5,259,5,42,127,783832696
455,21,Ticks_Linear_5,260,1,48,55,784519044
455,21,Ticks_Linear_5,261,5,42,127,784581872
455,21,Ticks_Linear_5,262,1,48,68,785223820
455,21,Ticks_Linear_5,263,5,42,127,785322764
455,21,Ticks_Linear_5,264,1,48,75,785995452
455,21,Ticks_Linear_5,265,5,42,127,786061624
455,21,Ticks_Linear_5,266,1,48,65,786697820
455,21,Ticks_Linear_5,267,5,42,127,786802244
455,21,Ticks_Linear_5,268,1,48,62,787488788
455,21,Ticks_Linear_5,269,5,42,127,787551588
455,21,Ticks_Linear_5,270,1,48,58,788172736
455,21,Ticks_Linear_5,271,5,42,127,788302316
455,21,Ticks_Linear_5,272,1,48,55,788912848
455,21,Ticks_Linear_5,273,5,42,127,789051716
455,21,Ticks_Linear_5,274,1,48,63,789719088
455,21,Ticks_Linear_5,275,5,42,127,789802480
455,21,Ticks_Linear_5,276,1,48,75,790537152
455,21,Ticks_Linear_5,277,5,42,127,790551952
455,21,Ticks_Linear_5,278,1,48,68,791289396
455,21,Ticks_Linear_5,279,5,42,127,791311616
455,21,Ticks_Linear_5,280,1,48,65,791995740
455,21,Ticks_Linear_5,281,5,42,127,792071424
455,21,Ticks_Linear_5,282,1,48,66,792801388
455,21,Ticks_Linear_5,283,5,42,127,792832276
455,21,Ticks_Linear_5,284,1,48,50,793497432
455,21,Ticks_Linear_5,285,5,42,127,793592532
455,21,Ticks_Linear_5,286,1,48,70,794280912
455,21,Ticks_Linear_5,287,5,42,127,794352116
455,21,Ticks_Linear_5,288,1,48,61,794997952
455,21,Ticks_Linear_5,289,5,42,127,795122392
455,21,Ticks_Linear_5,290,1,48,76,795859852
455,21,Ticks_Linear_5,291,5,42,127,795892104
455,21,Ticks_Linear_5,292,1,48,65,796607380
455,21,Ticks_Linear_5,293,5,42,127,796662320
455,21,Ticks_Linear_5,294,1,48,62,797355632
455,21,Ticks_Linear_5,295,5,42,127,797432164
455,21,Ticks_Linear_5,296,1,48,69,798111856
455,21,Ticks_Linear_5,297,5,42,127,798202228
455,21,Ticks_Linear_5,298,1,48,64,798976076
455,21,Ticks_Linear_5,299,5,42,127,798981436
455,21,Ticks_Linear_5,300,1,48,69,799721432
455,21,Ticks_Linear_5,301,5,42,127,799761912
455,21,Ticks_Linear_5,302,1,48,67,800416356
455,21,Ticks_Linear_5,303,5,42,127,800542148
455,21,Ticks_Linear_5,304,1,48,79,801288144
455,21,Ticks_Linear_5,305,5,42,127,801322268
455,21,Ticks_Linear_5,306,1,48,72,802083308
455,21,Ticks_Linear_5,307,5,42,127,802101696
455,21,Ticks_Linear_5,308,1,48,66,802832860
455,21,Ticks_Linear_5,309,5,42,127,802892060
455,21,Ticks_Linear_5,310,1,48,62,803610564
455,21,Ticks_Linear_5,311,5,42,127,803681896
455,21,Ticks_Linear_5,312,5,42,127,804472044
455,21,Ticks_Linear_5,313,1,48,74,804483404
455,21,Ticks_Linear_5,314,5,42,127,805262028
455,21,Ticks_Linear_5,315,1,48,79,805272940
455,21,Ticks_Linear_5,316,1,48,74,805986668
455,21,Ticks_Linear_5,317,5,42,127,806052160
455,21,Ticks_Linear_5,318,1,48,87,806827724
455,21,Ticks_Linear_5,319,5,42,127,806852056
455,21,Ticks_Linear_5,320,1,48,67,807519156
455,21,Ticks_Linear_5,321,5,42,127,807651840
455,21,Ticks_Linear_5,322,1,48,73,808395664
455,21,Ticks_Linear_5,323,5,42,127,808451356
455,21,Ticks_Linear_5,324,1,48,76,809202884
455,21,Ticks_Linear_5,325,5,42,127,809252124
455,21,Ticks_Linear_5,326,1,48,61,810015860
455,21,Ticks_Linear_5,327,5,42,127,810051848
455,21,Ticks_Linear_5,328,1,48,69,810851304
455,21,Ticks_Linear_5,329,5,42,127,810861904
455,21,Ticks_Linear_5,330,1,48,62,811660468
455,21,Ticks_Linear_5,331,5,42,127,811671960
455,21,Ticks_Linear_5,332,5,42,127,812481900
455,21,Ticks_Linear_5,333,1,48,53,812512284
455,21,Ticks_Linear_5,334,1,48,74,813271248
455,21,Ticks_Linear_5,335,5,42,127,813291804
455,21,Ticks_Linear_5,336,1,48,63,814055232
455,21,Ticks_Linear_5,337,5,42,127,814101784
455,21,Ticks_Linear_5,0,9999,9999,9999,704869500
455,21,Ticks_Linear_5,1,9999,9999,9999,705349752
455,21,Ticks_Linear_5,2,9999,9999,9999,705829996
455,21,Ticks_Linear_5,3,9999,9999,9999,706309176
455,21,Ticks_Linear_5,4,9999,9999,9999,706789480
455,21,Ticks_Linear_5,5,9999,9999,9999,707279964
455,21,Ticks_Linear_5,6,9999,9999,9999,707769408
455,21,Ticks_Linear_5,7,9999,9999,9999,708259944
455,21,Ticks_Linear_5,8,9999,9999,9999,708749388
455,21,Ticks_Linear_5,9,9999,9999,9999,709239868
455,21,Ticks_Linear_5,10,9999,9999,9999,709739644
455,21,Ticks_Linear_5,11,9999,9999,9999,710239344
455,21,Ticks_Linear_5,12,9999,9999,9999,710740092
455,21,Ticks_Linear_5,13,9999,9999,9999,711239792
455,21,Ticks_Linear_5,14,9999,9999,9999,711739492
455,21,Ticks_Linear_5,15,9999,9999,9999,712249452
455,21,Ticks_Linear_5,16,9999,9999,9999,712759412
455,21,Ticks_Linear_5,17,9999,9999,9999,713269368
455,21,Ticks_Linear_5,18,9999,9999,9999,713779256
455,21,Ticks_Linear_5,19,9999,9999,9999,714289212
455,21,Ticks_Linear_5,20,9999,9999,9999,714809432
455,21,Ticks_Linear_5,21,9999,9999,9999,715329652
455,21,Ticks_Linear_5,22,9999,9999,9999,715849792
455,21,Ticks_Linear_5,23,9999,9999,9999,716370012
455,21,Ticks_Linear_5,24,9999,9999,9999,716889184
455,21,Ticks_Linear_5,25,9999,9999,9999,717419588
455,21,Ticks_Linear_5,26,9999,9999,9999,717950064
455,21,Ticks_Linear_5,27,9999,9999,9999,718479420
455,21,Ticks_Linear_5,28,9999,9999,9999,719009896
455,21,Ticks_Linear_5,29,9999,9999,9999,719539276
455,21,Ticks_Linear_5,30,9999,9999,9999,720079936
455,21,Ticks_Linear_5,31,9999,9999,9999,720619628
455,21,Ticks_Linear_5,32,9999,9999,9999,721159244
455,21,Ticks_Linear_5,33,9999,9999,9999,721699904
455,21,Ticks_Linear_5,34,9999,9999,9999,722239596
455,21,Ticks_Linear_5,35,9999,9999,9999,722789468
455,21,Ticks_Linear_5,36,9999,9999,9999,723339328
455,21,Ticks_Linear_5,37,9999,9999,9999,723889276
455,21,Ticks_Linear_5,38,9999,9999,9999,724439116
455,21,Ticks_Linear_5,39,9999,9999,9999,724990020
455,21,Ticks_Linear_5,40,9999,9999,9999,725549124
455,21,Ticks_Linear_5,41,9999,9999,9999,726109256
455,21,Ticks_Linear_5,42,9999,9999,9999,726669388
455,21,Ticks_Linear_5,43,9999,9999,9999,727229520
455,21,Ticks_Linear_5,44,9999,9999,9999,727789652
455,21,Ticks_Linear_5,45,9999,9999,9999,728360048
455,21,Ticks_Linear_5,46,9999,9999,9999,728929392
455,21,Ticks_Linear_5,47,9999,9999,9999,729499708
455,21,Ticks_Linear_5,48,9999,9999,9999,730070124
455,21,Ticks_Linear_5,49,9999,9999,9999,730649660
455,21,Ticks_Linear_5,50,9999,9999,9999,731229248
455,21,Ticks_Linear_5,51,9999,9999,9999,731809916
455,21,Ticks_Linear_5,52,9999,9999,9999,732389472
455,21,Ticks_Linear_5,53,9999,9999,9999,732970048
455,21,Ticks_Linear_5,54,9999,9999,9999,733549652
455,21,Ticks_Linear_5,55,9999,9999,9999,734139468
455,21,Ticks_Linear_5,56,9999,9999,9999,734729332
455,21,Ticks_Linear_5,57,9999,9999,9999,735319124
455,21,Ticks_Linear_5,58,9999,9999,9999,735909956
455,21,Ticks_Linear_5,59,9999,9999,9999,736499772
455,21,Ticks_Linear_5,60,9999,9999,9999,737099892
455,21,Ticks_Linear_5,61,9999,9999,9999,737699940
455,21,Ticks_Linear_5,62,9999,9999,9999,738300016
455,21,Ticks_Linear_5,63,9999,9999,9999,738900064
455,21,Ticks_Linear_5,64,9999,9999,9999,739499072
455,21,Ticks_Linear_5,65,9999,9999,9999,740109400
455,21,Ticks_Linear_5,66,9999,9999,9999,740719708
455,21,Ticks_Linear_5,67,9999,9999,9999,741330040
455,21,Ticks_Linear_5,68,9999,9999,9999,741939300
455,21,Ticks_Linear_5,69,9999,9999,9999,742549608
455,21,Ticks_Linear_5,70,9999,9999,9999,743169152
455,21,Ticks_Linear_5,71,9999,9999,9999,743789644
455,21,Ticks_Linear_5,72,9999,9999,9999,744409188
455,21,Ticks_Linear_5,73,9999,9999,9999,745029752
455,21,Ticks_Linear_5,74,9999,9999,9999,745649220
455,21,Ticks_Linear_5,75,9999,9999,9999,746280048
455,21,Ticks_Linear_5,76,9999,9999,9999,746909756
455,21,Ticks_Linear_5,77,9999,9999,9999,747539556
455,21,Ticks_Linear_5,78,9999,9999,9999,748169336
455,21,Ticks_Linear_5,79,9999,9999,9999,748800112
455,21,Ticks_Linear_5,80,9999,9999,9999,749440084
455,21,Ticks_Linear_5,81,9999,9999,9999,750080064
455,21,Ticks_Linear_5,82,9999,9999,9999,750720104
455,21,Ticks_Linear_5,83,9999,9999,9999,751360096
455,21,Ticks_Linear_5,84,9999,9999,9999,752000056
455,21,Ticks_Linear_5,85,9999,9999,9999,752659516
455,21,Ticks_Linear_5,86,9999,9999,9999,753309812
455,21,Ticks_Linear_5,87,9999,9999,9999,753960060
455,21,Ticks_Linear_5,88,9999,9999,9999,754609264
455,21,Ticks_Linear_5,89,9999,9999,9999,755259484
455,21,Ticks_Linear_5,90,9999,9999,9999,755919992
455,21,Ticks_Linear_5,91,9999,9999,9999,756579412
455,21,Ticks_Linear_5,92,9999,9999,9999,757239864
455,21,Ticks_Linear_5,93,9999,9999,9999,757899368
455,21,Ticks_Linear_5,94,9999,9999,9999,758559800
455,21,Ticks_Linear_5,95,9999,9999,9999,759229516
455,21,Ticks_Linear_5,96,9999,9999,9999,759899212
455,21,Ticks_Linear_5,97,9999,9999,9999,760569976
455,21,Ticks_Linear_5,98,9999,9999,9999,761239672
455,21,Ticks_Linear_5,99,9999,9999,9999,761909316
455,21,Ticks_Linear_5,100,9999,9999,9999,762589292
455,21,Ticks_Linear_5,101,9999,9999,9999,763269244
455,21,Ticks_Linear_5,102,9999,9999,9999,763949148
455,21,Ticks_Linear_5,103,9999,9999,9999,764630100
455,21,Ticks_Linear_5,104,9999,9999,9999,765319248
455,21,Ticks_Linear_5,105,9999,9999,9999,766009428
455,21,Ticks_Linear_5,106,9999,9999,9999,766699592
455,21,Ticks_Linear_5,107,9999,9999,9999,767389804
455,21,Ticks_Linear_5,108,9999,9999,9999,768079964
455,21,Ticks_Linear_5,109,9999,9999,9999,768769084
455,21,Ticks_Linear_5,110,9999,9999,9999,769469504
455,21,Ticks_Linear_5,111,9999,9999,9999,770169980
455,21,Ticks_Linear_5,112,9999,9999,9999,770869352
455,21,Ticks_Linear_5,113,9999,9999,9999,771569772
455,21,Ticks_Linear_5,114,9999,9999,9999,772269124
455,21,Ticks_Linear_5,115,9999,9999,9999,772979780
455,21,Ticks_Linear_5,116,9999,9999,9999,773689412
455,21,Ticks_Linear_5,117,9999,9999,9999,774400092
455,21,Ticks_Linear_5,118,9999,9999,9999,775119988
455,21,Ticks_Linear_5,119,9999,9999,9999,775829596
455,21,Ticks_Linear_5,120,9999,9999,9999,776549492
455,21,Ticks_Linear_5,121,9999,9999,9999,777269312
455,21,Ticks_Linear_5,122,9999,9999,9999,777989236
455,21,Ticks_Linear_5,123,9999,9999,9999,778710072
455,21,Ticks_Linear_5,124,9999,9999,9999,779439176
455,21,Ticks_Linear_5,125,9999,9999,9999,780169304
455,21,Ticks_Linear_5,126,9999,9999,9999,780899456
455,21,Ticks_Linear_5,127,9999,9999,9999,781629532
455,21,Ticks_Linear_5,128,9999,9999,9999,782359608
455,21,Ticks_Linear_5,129,9999,9999,9999,783089764
455,21,Ticks_Linear_5,130,9999,9999,9999,783830100
455,21,Ticks_Linear_5,131,9999,9999,9999,784579648
455,21,Ticks_Linear_5,132,9999,9999,9999,785320020
455,21,Ticks_Linear_5,133,9999,9999,9999,786059328
455,21,Ticks_Linear_5,134,9999,9999,9999,786799724
455,21,Ticks_Linear_5,135,9999,9999,9999,787549288
455,21,Ticks_Linear_5,136,9999,9999,9999,788299868
455,21,Ticks_Linear_5,137,9999,9999,9999,789049420
455,21,Ticks_Linear_5,138,9999,9999,9999,789800032
455,21,Ticks_Linear_5,139,9999,9999,9999,790549580
455,21,Ticks_Linear_5,140,9999,9999,9999,791309392
455,21,Ticks_Linear_5,141,9999,9999,9999,792069200
455,21,Ticks_Linear_5,142,9999,9999,9999,792830052
455,21,Ticks_Linear_5,143,9999,9999,9999,793589860
455,21,Ticks_Linear_5,144,9999,9999,9999,794349672
455,21,Ticks_Linear_5,145,9999,9999,9999,795119720
455,21,Ticks_Linear_5,146,9999,9999,9999,795889732
455,21,Ticks_Linear_5,147,9999,9999,9999,796659796
455,21,Ticks_Linear_5,148,9999,9999,9999,797429864
455,21,Ticks_Linear_5,149,9999,9999,9999,798199932
455,21,Ticks_Linear_5,150,9999,9999,9999,798979140
455,21,Ticks_Linear_5,151,9999,9999,9999,799759464
455,21,Ticks_Linear_5,152,9999,9999,9999,800539776
455,21,Ticks_Linear_5,153,9999,9999,9999,801320044
455,21,Ticks_Linear_5,154,9999,9999,9999,802099324
455,21,Ticks_Linear_5,155,9999,9999,9999,802889836
455,21,Ticks_Linear_5,156,9999,9999,9999,803679300
455,21,Ticks_Linear_5,157,9999,9999,9999,804469820
455,21,Ticks_Linear_5,158,9999,9999,9999,805259360
455,21,Ticks_Linear_5,159,9999,9999,9999,806049860
455,21,Ticks_Linear_5,160,9999,9999,9999,806849612
455,21,Ticks_Linear_5,161,9999,9999,9999,807649392
455,21,Ticks_Linear_5,162,9999,9999,9999,808449132
455,21,Ticks_Linear_5,163,9999,9999,9999,809249900
455,21,Ticks_Linear_5,164,9999,9999,9999,810049624
455,21,Ticks_Linear_5,165,9999,9999,9999,810859608
455,21,Ticks_Linear_5,166,9999,9999,9999,811669588
455,21,Ticks_Linear_5,167,9999,9999,9999,812479604
455,21,Ticks_Linear_5,168,9999,9999,9999,813289580
455,21,Ticks_Linear_5,169,9999,9999,9999,814099560
456,20,Ticks_Linear_8,0,5,42,127,826157536
456,20,Ticks_Linear_8,1,1,38,57,826816524
456,20,Ticks_Linear_8,2,5,42,127,826977628
456,20,Ticks_Linear_8,3,1,38,73,827786540
456,20,Ticks_Linear_8,4,5,42,127,827797812
456,20,Ticks_Linear_8,5,5,42,127,828618156
456,20,Ticks_Linear_8,6,1,38,72,828620676
456,20,Ticks_Linear_8,7,1,38,73,829436128
456,20,Ticks_Linear_8,8,5,42,127,829438764
456,20,Ticks_Linear_8,9,5,42,127,830248236
456,20,Ticks_Linear_8,10,1,38,69,830266184
456,20,Ticks_Linear_8,11,1,38,60,831047764
456,20,Ticks_Linear_8,12,5,42,127,831058284
456,20,Ticks_Linear_8,13,5,42,127,831868200
456,20,Ticks_Linear_8,14,1,38,66,831870792
456,20,Ticks_Linear_8,15,1,38,60,832662180
456,20,Ticks_Linear_8,16,5,42,127,832678176
456,20,Ticks_Linear_8,17,1,38,59,833447088
456,20,Ticks_Linear_8,18,5,42,127,833488336
456,20,Ticks_Linear_8,19,1,38,60,834253564
456,20,Ticks_Linear_8,20,5,42,127,834287984
456,20,Ticks_Linear_8,21,1,38,72,835077636
456,20,Ticks_Linear_8,22,5,42,127,835087784
456,20,Ticks_Linear_8,23,1,38,62,835864096
456,20,Ticks_Linear_8,24,5,42,127,835887584
456,20,Ticks_Linear_8,25,5,42,127,836688360
456,20,Ticks_Linear_8,26,1,38,61,836691032
456,20,Ticks_Linear_8,27,1,38,59,837472384
456,20,Ticks_Linear_8,28,5,42,127,837487856
456,20,Ticks_Linear_8,29,1,38,57,838273824
456,20,Ticks_Linear_8,30,5,42,127,838277616
456,20,Ticks_Linear_8,31,5,42,127,839067988
456,20,Ticks_Linear_8,32,1,38,67,839076056
456,20,Ticks_Linear_8,33,5,42,127,839857776
456,20,Ticks_Linear_8,34,1,38,65,839864412
456,20,Ticks_Linear_8,35,1,38,62,840619088
456,20,Ticks_Linear_8,36,5,42,127,840647956
456,20,Ticks_Linear_8,37,1,38,60,841431536
456,20,Ticks_Linear_8,38,5,42,127,841437792
456,20,Ticks_Linear_8,39,5,42,127,842217756
456,20,Ticks_Linear_8,40,1,38,75,842235764
456,20,Ticks_Linear_8,41,1,38,55,842995552
456,20,Ticks_Linear_8,42,5,42,127,842998300
456,20,Ticks_Linear_8,43,5,42,127,843778336
456,20,Ticks_Linear_8,44,1,38,67,843781380
456,20,Ticks_Linear_8,45,1,38,68,844553816
456,20,Ticks_Linear_8,46,5,42,127,844567868
456,20,Ticks_Linear_8,47,5,42,127,845348204
456,20,Ticks_Linear_8,48,1,38,61,845355448
456,20,Ticks_Linear_8,49,1,38,59,846100552
456,20,Ticks_Linear_8,50,5,42,127,846118192
456,20,Ticks_Linear_8,51,1,38,67,846883716
456,20,Ticks_Linear_8,52,5,42,127,846888336
456,20,Ticks_Linear_8,53,1,38,66,847636344
456,20,Ticks_Linear_8,54,5,42,127,847658476
456,20,Ticks_Linear_8,55,1,38,61,848404688
456,20,Ticks_Linear_8,56,5,42,127,848428696
456,20,Ticks_Linear_8,57,1,38,60,849178660
456,20,Ticks_Linear_8,58,5,42,127,849197568
456,20,Ticks_Linear_8,59,1,38,60,849944000
456,20,Ticks_Linear_8,60,5,42,127,849958200
456,20,Ticks_Linear_8,61,1,38,54,850677232
456,20,Ticks_Linear_8,62,5,42,127,850718012
456,20,Ticks_Linear_8,63,5,42,127,851477824
456,20,Ticks_Linear_8,64,1,38,62,851487312
456,20,Ticks_Linear_8,65,5,42,127,852237636
456,20,Ticks_Linear_8,66,1,38,62,852259400
456,20,Ticks_Linear_8,67,1,38,57,852986388
456,20,Ticks_Linear_8,68,5,42,127,852997660
456,20,Ticks_Linear_8,69,5,42,127,853747964
456,20,Ticks_Linear_8,70,1,38,62,853782908
456,20,Ticks_Linear_8,71,1,38,71,854452752
456,20,Ticks_Linear_8,72,5,42,127,854497656
456,20,Ticks_Linear_8,73,1,38,64,855216392
456,20,Ticks_Linear_8,74,5,42,127,855248328
456,20,Ticks_Linear_8,75,1,38,58,855988700
456,20,Ticks_Linear_8,76,5,42,127,855997876
456,20,Ticks_Linear_8,77,1,38,69,856733644
456,20,Ticks_Linear_8,78,5,42,127,856748400
456,20,Ticks_Linear_8,79,1,38,58,857463648
456,20,Ticks_Linear_8,80,5,42,127,857487740
456,20,Ticks_Linear_8,81,5,42,127,858228084
456,20,Ticks_Linear_8,82,1,38,71,858235832
456,20,Ticks_Linear_8,83,5,42,127,858968492
456,20,Ticks_Linear_8,84,1,38,55,858982692
456,20,Ticks_Linear_8,85,1,38,65,859716836
456,20,Ticks_Linear_8,86,5,42,127,859719676
456,20,Ticks_Linear_8,87,1,38,54,860418496
456,20,Ticks_Linear_8,88,5,42,127,860458448
456,20,Ticks_Linear_8,89,5,42,127,861187412
456,20,Ticks_Linear_8,90,1,38,58,861197500
456,20,Ticks_Linear_8,91,1,38,55,861911076
456,20,Ticks_Linear_8,92,5,42,127,861917632
456,20,Ticks_Linear_8,93,5,42,127,862647568
456,20,Ticks_Linear_8,94,1,38,58,862664012
456,20,Ticks_Linear_8,95,1,38,66,863369936
456,20,Ticks_Linear_8,96,5,42,127,863377692
456,20,Ticks_Linear_8,97,1,38,65,864101732
456,20,Ticks_Linear_8,98,5,42,127,864107920
456,20,Ticks_Linear_8,99,5,42,127,864827820
456,20,Ticks_Linear_8,100,1,38,54,864835812
456,20,Ticks_Linear_8,101,5,42,127,865547564
456,20,Ticks_Linear_8,102,1,38,72,865581980
456,20,Ticks_Linear_8,103,5,42,127,866267460
456,20,Ticks_Linear_8,104,1,38,68,866276800
456,20,Ticks_Linear_8,105,5,42,127,866988400
456,20,Ticks_Linear_8,106,1,38,67,867001852
456,20,Ticks_Linear_8,107,5,42,127,867708196
456,20,Ticks_Linear_8,108,1,38,69,867715364
456,20,Ticks_Linear_8,109,1,38,63,868416928
456,20,Ticks_Linear_8,110,5,42,127,868419916
456,20,Ticks_Linear_8,111,5,42,127,869127688
456,20,Ticks_Linear_8,112,1,38,72,869179412
456,20,Ticks_Linear_8,113,1,38,64,869775548
456,20,Ticks_Linear_8,114,1,48,16,869787284
456,20,Ticks_Linear_8,115,5,42,127,869838196
456,20,Ticks_Linear_8,116,1,38,73,870511712
456,20,Ticks_Linear_8,117,5,42,127,870548000
456,20,Ticks_Linear_8,118,5,42,127,871257492
456,20,Ticks_Linear_8,119,1,38,71,871272964
456,20,Ticks_Linear_8,120,5,42,127,871957988
456,20,Ticks_Linear_8,121,1,38,76,871976612
456,20,Ticks_Linear_8,122,1,38,80,872623008
456,20,Ticks_Linear_8,123,5,42,127,872658180
456,20,Ticks_Linear_8,124,1,38,74,873329108
456,20,Ticks_Linear_8,125,5,42,127,873357904
456,20,Ticks_Linear_8,126,1,38,75,874011708
456,20,Ticks_Linear_8,127,5,42,127,874058252
456,20,Ticks_Linear_8,128,1,38,71,874739764
456,20,Ticks_Linear_8,129,5,42,127,874757404
456,20,Ticks_Linear_8,130,5,42,127,875447872
456,20,Ticks_Linear_8,131,1,38,53,875478628
456,20,Ticks_Linear_8,132,1,38,46,876076264
456,20,Ticks_Linear_8,133,1,48,14,876083720
456,20,Ticks_Linear_8,134,5,42,127,876138060
456,20,Ticks_Linear_8,135,1,38,62,876782244
456,20,Ticks_Linear_8,136,5,42,127,876827972
456,20,Ticks_Linear_8,137,5,42,127,877518068
456,20,Ticks_Linear_8,138,1,38,63,877537964
456,20,Ticks_Linear_8,139,5,42,127,878208356
456,20,Ticks_Linear_8,140,1,38,68,878231320
456,20,Ticks_Linear_8,141,1,38,77,878874804
456,20,Ticks_Linear_8,142,5,42,127,878888180
456,20,Ticks_Linear_8,143,1,38,75,879465036
456,20,Ticks_Linear_8,144,5,42,127,879568216
456,20,Ticks_Linear_8,145,1,38,67,880236464
456,20,Ticks_Linear_8,146,5,42,127,880248112
456,20,Ticks_Linear_8,147,5,42,127,880928024
456,20,Ticks_Linear_8,148,1,38,67,880929960
456,20,Ticks_Linear_8,149,1,38,76,881598068
456,20,Ticks_Linear_8,150,5,42,127,881607920
456,20,Ticks_Linear_8,151,5,42,127,882277696
456,20,Ticks_Linear_8,152,1,38,71,882303944
456,20,Ticks_Linear_8,153,1,38,65,882881540
456,20,Ticks_Linear_8,154,5,42,127,882947484
456,20,Ticks_Linear_8,155,5,42,127,883618156
456,20,Ticks_Linear_8,156,1,38,60,883667436
456,20,Ticks_Linear_8,157,1,38,74,884280344
456,20,Ticks_Linear_8,158,5,42,127,884287872
456,20,Ticks_Linear_8,159,5,42,127,884957748
456,20,Ticks_Linear_8,160,1,38,68,884969484
456,20,Ticks_Linear_8,161,5,42,127,885617932
456,20,Ticks_Linear_8,162,1,38,62,885631752
456,20,Ticks_Linear_8,163,5,42,127,886277688
456,20,Ticks_Linear_8,164,1,38,63,886311732
456,20,Ticks_Linear_8,165,1,38,77,886926820
456,20,Ticks_Linear_8,166,5,42,127,886937940
456,20,Ticks_Linear_8,167,5,42,127,887597408
456,20,Ticks_Linear_8,168,1,38,59,887600000
456,20,Ticks_Linear_8,169,1,38,61,888242216
456,20,Ticks_Linear_8,170,5,42,127,888257984
456,20,Ticks_Linear_8,171,5,42,127,888908140
456,20,Ticks_Linear_8,172,1,38,67,888945324
456,20,Ticks_Linear_8,173,1,38,69,889541112
456,20,Ticks_Linear_8,174,5,42,127,889558600
456,20,Ticks_Linear_8,175,5,42,127,890207636
456,20,Ticks_Linear_8,176,1,38,74,890239512
456,20,Ticks_Linear_8,177,1,38,75,890854908
456,20,Ticks_Linear_8,178,5,42,127,890857728
456,20,Ticks_Linear_8,179,5,42,127,891507960
456,20,Ticks_Linear_8,180,1,38,61,891543420
456,20,Ticks_Linear_8,181,5,42,127,892147948
456,20,Ticks_Linear_8,182,1,38,59,892219064
456,20,Ticks_Linear_8,183,1,38,64,892760748
456,20,Ticks_Linear_8,184,5,42,127,892787976
456,20,Ticks_Linear_8,185,5,42,127,893428120
456,20,Ticks_Linear_8,186,1,38,62,893429756
456,20,Ticks_Linear_8,187,5,42,127,894068236
456,20,Ticks_Linear_8,188,1,38,62,894096672
456,20,Ticks_Linear_8,189,5,42,127,894708148
456,20,Ticks_Linear_8,190,1,38,68,894718684
456,20,Ticks_Linear_8,191,5,42,127,895337856
456,20,Ticks_Linear_8,192,1,38,67,895382832
456,20,Ticks_Linear_8,193,1,38,67,895965688
456,20,Ticks_Linear_8,194,5,42,127,895968472
456,20,Ticks_Linear_8,195,5,42,127,896598336
456,20,Ticks_Linear_8,196,1,38,64,896666836
456,20,Ticks_Linear_8,197,5,42,127,897228288
456,20,Ticks_Linear_8,198,1,38,58,897329288
456,20,Ticks_Linear_8,199,1,38,70,897824312
456,20,Ticks_Linear_8,200,5,42,127,897857840
456,20,Ticks_Linear_8,201,5,42,127,898477392
456,20,Ticks_Linear_8,202,1,38,61,898498408
456,20,Ticks_Linear_8,203,5,42,127,899098104
456,20,Ticks_Linear_8,204,1,38,60,899166004
456,20,Ticks_Linear_8,205,5,42,127,899717404
456,20,Ticks_Linear_8,206,1,38,51,899796708
456,20,Ticks_Linear_8,207,5,42,127,900338216
456,20,Ticks_Linear_8,208,5,42,127,900957536
456,20,Ticks_Linear_8,209,1,38,81,901004756
456,20,Ticks_Linear_8,210,5,42,127,901567868
456,20,Ticks_Linear_8,211,1,38,61,901636372
456,20,Ticks_Linear_8,212,1,38,57,902171532
456,20,Ticks_Linear_8,213,5,42,127,902178392
456,20,Ticks_Linear_8,214,5,42,127,902787440
456,20,Ticks_Linear_8,215,1,38,59,902802012
456,20,Ticks_Linear_8,216,5,42,127,903397620
456,20,Ticks_Linear_8,217,1,38,70,903412492
456,20,Ticks_Linear_8,218,5,42,127,904008228
456,20,Ticks_Linear_8,219,1,38,62,904057704
456,20,Ticks_Linear_8,220,1,38,62,904594364
456,20,Ticks_Linear_8,221,5,42,127,904608120
456,20,Ticks_Linear_8,222,1,38,64,905198120
456,20,Ticks_Linear_8,223,5,42,127,905208196
456,20,Ticks_Linear_8,224,1,38,44,905782292
456,20,Ticks_Linear_8,225,5,42,127,905808244
456,20,Ticks_Linear_8,226,1,38,76,906404720
456,20,Ticks_Linear_8,227,5,42,127,906408316
456,20,Ticks_Linear_8,228,5,42,127,907008524
456,20,Ticks_Linear_8,229,1,38,73,907041520
456,20,Ticks_Linear_8,230,1,38,81,907586284
456,20,Ticks_Linear_8,231,5,42,127,907598156
456,20,Ticks_Linear_8,232,5,42,127,908187952
456,20,Ticks_Linear_8,233,1,38,68,908218132
456,20,Ticks_Linear_8,234,1,38,69,908758696
456,20,Ticks_Linear_8,235,5,42,127,908778060
456,20,Ticks_Linear_8,236,5,42,127,909367928
456,20,Ticks_Linear_8,237,1,38,74,909389024
456,20,Ticks_Linear_8,238,5,42,127,909957420
456,20,Ticks_Linear_8,239,1,38,75,909979712
456,20,Ticks_Linear_8,240,1,38,70,910520072
456,20,Ticks_Linear_8,241,5,42,127,910538016
456,20,Ticks_Linear_8,242,1,38,67,911086880
456,20,Ticks_Linear_8,243,5,42,127,911117692
456,20,Ticks_Linear_8,244,5,42,127,911698204
456,20,Ticks_Linear_8,245,1,38,54,911718324
456,20,Ticks_Linear_8,246,1,38,41,912230732
456,20,Ticks_Linear_8,247,5,42,127,912277804
456,20,Ticks_Linear_8,248,1,38,62,912822340
456,20,Ticks_Linear_8,249,5,42,127,912857880
456,20,Ticks_Linear_8,250,5,42,127,913427832
456,20,Ticks_Linear_8,251,1,38,70,913476036
456,20,Ticks_Linear_8,252,5,42,127,913998300
456,20,Ticks_Linear_8,253,1,38,71,914020816
456,20,Ticks_Linear_8,254,5,42,127,914567720
456,20,Ticks_Linear_8,255,1,38,63,914585896
456,20,Ticks_Linear_8,256,5,42,127,915137912
456,20,Ticks_Linear_8,257,1,38,66,915182740
456,20,Ticks_Linear_8,258,5,42,127,915708156
456,20,Ticks_Linear_8,259,1,38,64,915716072
456,20,Ticks_Linear_8,260,5,42,127,916268368
456,20,Ticks_Linear_8,261,1,38,52,916306908
456,20,Ticks_Linear_8,262,5,42,127,916827600
456,20,Ticks_Linear_8,263,1,38,74,916848848
456,20,Ticks_Linear_8,264,5,42,127,917387736
456,20,Ticks_Linear_8,265,1,38,67,917424120
456,20,Ticks_Linear_8,266,5,42,127,917947744
456,20,Ticks_Linear_8,267,1,38,72,918014732
456,20,Ticks_Linear_8,268,5,42,127,918507876
456,20,Ticks_Linear_8,269,1,38,68,918527476
456,20,Ticks_Linear_8,270,5,42,127,919057752
456,20,Ticks_Linear_8,271,1,38,66,919073668
456,20,Ticks_Linear_8,272,5,42,127,919607628
456,20,Ticks_Linear_8,273,1,38,64,919641820
456,20,Ticks_Linear_8,274,1,38,63,920140748
456,20,Ticks_Linear_8,275,5,42,127,920157568
456,20,Ticks_Linear_8,276,1,38,69,920681260
456,20,Ticks_Linear_8,277,5,42,127,920707664
456,20,Ticks_Linear_8,278,1,38,66,921207552
456,20,Ticks_Linear_8,279,5,42,127,921258392
456,20,Ticks_Linear_8,280,1,38,67,921774520
456,20,Ticks_Linear_8,281,5,42,127,921798080
456,20,Ticks_Linear_8,282,5,42,127,922337628
456,20,Ticks_Linear_8,283,1,38,65,922344408
456,20,Ticks_Linear_8,284,5,42,127,922878440
456,20,Ticks_Linear_8,285,1,38,62,922880452
456,20,Ticks_Linear_8,286,1,38,66,923410448
456,20,Ticks_Linear_8,287,5,42,127,923418048
456,20,Ticks_Linear_8,288,1,38,62,923951556
456,20,Ticks_Linear_8,289,5,42,127,923957516
456,20,Ticks_Linear_8,290,1,38,57,924481060
456,20,Ticks_Linear_8,291,5,42,127,924488144
456,20,Ticks_Linear_8,292,5,42,127,925017580
456,20,Ticks_Linear_8,293,1,38,63,925025576
456,20,Ticks_Linear_8,294,1,38,64,925537604
456,20,Ticks_Linear_8,295,5,42,127,925547828
456,20,Ticks_Linear_8,296,1,38,61,926057528
456,20,Ticks_Linear_8,297,5,42,127,926078308
456,20,Ticks_Linear_8,298,1,38,66,926587256
456,20,Ticks_Linear_8,299,5,42,127,926607812
456,20,Ticks_Linear_8,300,5,42,127,927128036
456,20,Ticks_Linear_8,301,1,38,75,927133320
456,20,Ticks_Linear_8,302,5,42,127,927648252
456,20,Ticks_Linear_8,303,1,38,73,927665172
456,20,Ticks_Linear_8,304,1,38,72,928167676
456,20,Ticks_Linear_8,305,5,42,127,928170288
456,20,Ticks_Linear_8,306,1,38,60,928669620
456,20,Ticks_Linear_8,307,5,42,127,928687364
456,20,Ticks_Linear_8,308,1,38,66,929134720
456,20,Ticks_Linear_8,309,5,42,127,929207732
456,20,Ticks_Linear_8,310,1,38,75,929655384
456,20,Ticks_Linear_8,311,5,42,127,929717620
456,20,Ticks_Linear_8,312,1,38,72,930226756
456,20,Ticks_Linear_8,313,5,42,127,930229376
456,20,Ticks_Linear_8,314,5,42,127,930737548
456,20,Ticks_Linear_8,315,1,38,72,930742908
456,20,Ticks_Linear_8,316,1,38,67,931229908
456,20,Ticks_Linear_8,317,5,42,127,931247500
456,20,Ticks_Linear_8,318,1,38,77,931742556
456,20,Ticks_Linear_8,319,5,42,127,931757532
456,20,Ticks_Linear_8,320,1,38,69,932189468
456,20,Ticks_Linear_8,321,5,42,127,932258108
456,20,Ticks_Linear_8,322,5,42,127,932757960
456,20,Ticks_Linear_8,323,1,38,67,932780204
456,20,Ticks_Linear_8,324,5,42,127,933257660
456,20,Ticks_Linear_8,325,1,38,84,933261976
456,20,Ticks_Linear_8,326,1,38,67,933747880
456,20,Ticks_Linear_8,327,5,42,127,933758328
456,20,Ticks_Linear_8,328,1,38,69,934229228
456,20,Ticks_Linear_8,329,5,42,127,934258100
456,20,Ticks_Linear_8,330,1,38,65,934740760
456,20,Ticks_Linear_8,331,5,42,127,934747544
456,20,Ticks_Linear_8,332,5,42,127,935238036
456,20,Ticks_Linear_8,333,1,38,58,935246328
456,20,Ticks_Linear_8,334,1,38,56,935712896
456,20,Ticks_Linear_8,335,5,42,127,935727544
456,20,Ticks_Linear_8,336,1,38,61,936159284
456,20,Ticks_Linear_8,337,5,42,127,936218256
456,20,Ticks_Linear_8,338,5,42,127,936707408
456,20,Ticks_Linear_8,0,9999,9999,9999,826155084
456,20,Ticks_Linear_8,1,9999,9999,9999,826975328
456,20,Ticks_Linear_8,2,9999,9999,9999,827795508
456,20,Ticks_Linear_8,3,9999,9999,9999,828615780
456,20,Ticks_Linear_8,4,9999,9999,9999,829435988
456,20,Ticks_Linear_8,5,9999,9999,9999,830246008
456,20,Ticks_Linear_8,6,9999,9999,9999,831055984
456,20,Ticks_Linear_8,7,9999,9999,9999,831865972
456,20,Ticks_Linear_8,8,9999,9999,9999,832675952
456,20,Ticks_Linear_8,9,9999,9999,9999,833485884
456,20,Ticks_Linear_8,10,9999,9999,9999,834285684
456,20,Ticks_Linear_8,11,9999,9999,9999,835085408
456,20,Ticks_Linear_8,12,9999,9999,9999,835885132
456,20,Ticks_Linear_8,13,9999,9999,9999,836685908
456,20,Ticks_Linear_8,14,9999,9999,9999,837485628
456,20,Ticks_Linear_8,15,9999,9999,9999,838275168
456,20,Ticks_Linear_8,16,9999,9999,9999,839065688
456,20,Ticks_Linear_8,17,9999,9999,9999,839855176
456,20,Ticks_Linear_8,18,9999,9999,9999,840645728
456,20,Ticks_Linear_8,19,9999,9999,9999,841435196
456,20,Ticks_Linear_8,20,9999,9999,9999,842215528
456,20,Ticks_Linear_8,21,9999,9999,9999,842995776
456,20,Ticks_Linear_8,22,9999,9999,9999,843776112
456,20,Ticks_Linear_8,23,9999,9999,9999,844565568
456,20,Ticks_Linear_8,24,9999,9999,9999,845345900
456,20,Ticks_Linear_8,25,9999,9999,9999,846115964
456,20,Ticks_Linear_8,26,9999,9999,9999,846885960
456,20,Ticks_Linear_8,27,9999,9999,9999,847656028
456,20,Ticks_Linear_8,28,9999,9999,9999,848426096
456,20,Ticks_Linear_8,29,9999,9999,9999,849195120
456,20,Ticks_Linear_8,30,9999,9999,9999,849955900
456,20,Ticks_Linear_8,31,9999,9999,9999,850715708
456,20,Ticks_Linear_8,32,9999,9999,9999,851475524
456,20,Ticks_Linear_8,33,9999,9999,9999,852235332
456,20,Ticks_Linear_8,34,9999,9999,9999,852995136
456,20,Ticks_Linear_8,35,9999,9999,9999,853745740
456,20,Ticks_Linear_8,36,9999,9999,9999,854495356
456,20,Ticks_Linear_8,37,9999,9999,9999,855245952
456,20,Ticks_Linear_8,38,9999,9999,9999,855995500
456,20,Ticks_Linear_8,39,9999,9999,9999,856746096
456,20,Ticks_Linear_8,40,9999,9999,9999,857485436
456,20,Ticks_Linear_8,41,9999,9999,9999,858225780
456,20,Ticks_Linear_8,42,9999,9999,9999,858966120
456,20,Ticks_Linear_8,43,9999,9999,9999,859715668
456,20,Ticks_Linear_8,44,9999,9999,9999,860455996
456,20,Ticks_Linear_8,45,9999,9999,9999,861185112
456,20,Ticks_Linear_8,46,9999,9999,9999,861915260
456,20,Ticks_Linear_8,47,9999,9999,9999,862645344
456,20,Ticks_Linear_8,48,9999,9999,9999,863375464
456,20,Ticks_Linear_8,49,9999,9999,9999,864105544
456,20,Ticks_Linear_8,50,9999,9999,9999,864825444
456,20,Ticks_Linear_8,51,9999,9999,9999,865545336
456,20,Ticks_Linear_8,52,9999,9999,9999,866265160
456,20,Ticks_Linear_8,53,9999,9999,9999,866986096
456,20,Ticks_Linear_8,54,9999,9999,9999,867705968
456,20,Ticks_Linear_8,55,9999,9999,9999,868415604
456,20,Ticks_Linear_8,56,9999,9999,9999,869125236
456,20,Ticks_Linear_8,57,9999,9999,9999,869835892
456,20,Ticks_Linear_8,58,9999,9999,9999,870545476
456,20,Ticks_Linear_8,59,9999,9999,9999,871255116
456,20,Ticks_Linear_8,60,9999,9999,9999,871955540
456,20,Ticks_Linear_8,61,9999,9999,9999,872655952
456,20,Ticks_Linear_8,62,9999,9999,9999,873355380
456,20,Ticks_Linear_8,63,9999,9999,9999,874055804
456,20,Ticks_Linear_8,64,9999,9999,9999,874755180
456,20,Ticks_Linear_8,65,9999,9999,9999,875445348
456,20,Ticks_Linear_8,66,9999,9999,9999,876135536
456,20,Ticks_Linear_8,67,9999,9999,9999,876825672
456,20,Ticks_Linear_8,68,9999,9999,9999,877515840
456,20,Ticks_Linear_8,69,9999,9999,9999,878206052
456,20,Ticks_Linear_8,70,9999,9999,9999,878885952
456,20,Ticks_Linear_8,71,9999,9999,9999,879565916
456,20,Ticks_Linear_8,72,9999,9999,9999,880245884
456,20,Ticks_Linear_8,73,9999,9999,9999,880925796
456,20,Ticks_Linear_8,74,9999,9999,9999,881605692
456,20,Ticks_Linear_8,75,9999,9999,9999,882275396
456,20,Ticks_Linear_8,76,9999,9999,9999,882945108
456,20,Ticks_Linear_8,77,9999,9999,9999,883615856
456,20,Ticks_Linear_8,78,9999,9999,9999,884285496
456,20,Ticks_Linear_8,79,9999,9999,9999,884955220
456,20,Ticks_Linear_8,80,9999,9999,9999,885615704
456,20,Ticks_Linear_8,81,9999,9999,9999,886275164
456,20,Ticks_Linear_8,82,9999,9999,9999,886935640
456,20,Ticks_Linear_8,83,9999,9999,9999,887595104
456,20,Ticks_Linear_8,84,9999,9999,9999,888255608
456,20,Ticks_Linear_8,85,9999,9999,9999,888905836
456,20,Ticks_Linear_8,86,9999,9999,9999,889556076
456,20,Ticks_Linear_8,87,9999,9999,9999,890205260
456,20,Ticks_Linear_8,88,9999,9999,9999,890855504
456,20,Ticks_Linear_8,89,9999,9999,9999,891505732
456,20,Ticks_Linear_8,90,9999,9999,9999,892145720
456,20,Ticks_Linear_8,91,9999,9999,9999,892785752
456,20,Ticks_Linear_8,92,9999,9999,9999,893425744
456,20,Ticks_Linear_8,93,9999,9999,9999,894065784
456,20,Ticks_Linear_8,94,9999,9999,9999,894705772
456,20,Ticks_Linear_8,95,9999,9999,9999,895335480
456,20,Ticks_Linear_8,96,9999,9999,9999,895965300
456,20,Ticks_Linear_8,97,9999,9999,9999,896596032
456,20,Ticks_Linear_8,98,9999,9999,9999,897225836
456,20,Ticks_Linear_8,99,9999,9999,9999,897855612
456,20,Ticks_Linear_8,100,9999,9999,9999,898475088
456,20,Ticks_Linear_8,101,9999,9999,9999,899095656
456,20,Ticks_Linear_8,102,9999,9999,9999,899715176
456,20,Ticks_Linear_8,103,9999,9999,9999,900335692
456,20,Ticks_Linear_8,104,9999,9999,9999,900955236
456,20,Ticks_Linear_8,105,9999,9999,9999,901565568
456,20,Ticks_Linear_8,106,9999,9999,9999,902175868
456,20,Ticks_Linear_8,107,9999,9999,9999,902785136
456,20,Ticks_Linear_8,108,9999,9999,9999,903395396
456,20,Ticks_Linear_8,109,9999,9999,9999,904005704
456,20,Ticks_Linear_8,110,9999,9999,9999,904605820
456,20,Ticks_Linear_8,111,9999,9999,9999,905205820
456,20,Ticks_Linear_8,112,9999,9999,9999,905805944
456,20,Ticks_Linear_8,113,9999,9999,9999,906405992
456,20,Ticks_Linear_8,114,9999,9999,9999,907006072
456,20,Ticks_Linear_8,115,9999,9999,9999,907595856
456,20,Ticks_Linear_8,116,9999,9999,9999,908185724
456,20,Ticks_Linear_8,117,9999,9999,9999,908775536
456,20,Ticks_Linear_8,118,9999,9999,9999,909365332
456,20,Ticks_Linear_8,119,9999,9999,9999,909955192
456,20,Ticks_Linear_8,120,9999,9999,9999,910535788
456,20,Ticks_Linear_8,121,9999,9999,9999,911115320
456,20,Ticks_Linear_8,122,9999,9999,9999,911695976
456,20,Ticks_Linear_8,123,9999,9999,9999,912275576
456,20,Ticks_Linear_8,124,9999,9999,9999,912855132
456,20,Ticks_Linear_8,125,9999,9999,9999,913425532
456,20,Ticks_Linear_8,126,9999,9999,9999,913995848
456,20,Ticks_Linear_8,127,9999,9999,9999,914565196
456,20,Ticks_Linear_8,128,9999,9999,9999,915135612
456,20,Ticks_Linear_8,129,9999,9999,9999,915705928
456,20,Ticks_Linear_8,130,9999,9999,9999,916266064
456,20,Ticks_Linear_8,131,9999,9999,9999,916825148
456,20,Ticks_Linear_8,132,9999,9999,9999,917385284
456,20,Ticks_Linear_8,133,9999,9999,9999,917945444
456,20,Ticks_Linear_8,134,9999,9999,9999,918505576
456,20,Ticks_Linear_8,135,9999,9999,9999,919055452
456,20,Ticks_Linear_8,136,9999,9999,9999,919605324
456,20,Ticks_Linear_8,137,9999,9999,9999,920155192
456,20,Ticks_Linear_8,138,9999,9999,9999,920705140
456,20,Ticks_Linear_8,139,9999,9999,9999,921256016
456,20,Ticks_Linear_8,140,9999,9999,9999,921795704
456,20,Ticks_Linear_8,141,9999,9999,9999,922335328
456,20,Ticks_Linear_8,142,9999,9999,9999,922875988
456,20,Ticks_Linear_8,143,9999,9999,9999,923415676
456,20,Ticks_Linear_8,144,9999,9999,9999,923955288
456,20,Ticks_Linear_8,145,9999,9999,9999,924485692
456,20,Ticks_Linear_8,146,9999,9999,9999,925015132
456,20,Ticks_Linear_8,147,9999,9999,9999,925545528
456,20,Ticks_Linear_8,148,9999,9999,9999,926076004
456,20,Ticks_Linear_8,149,9999,9999,9999,926605436
456,20,Ticks_Linear_8,150,9999,9999,9999,927125584
456,20,Ticks_Linear_8,151,9999,9999,9999,927645804
456,20,Ticks_Linear_8,152,9999,9999,9999,928165972
456,20,Ticks_Linear_8,153,9999,9999,9999,928685140
456,20,Ticks_Linear_8,154,9999,9999,9999,929205356
456,20,Ticks_Linear_8,155,9999,9999,9999,929715316
456,20,Ticks_Linear_8,156,9999,9999,9999,930225208
456,20,Ticks_Linear_8,157,9999,9999,9999,930735172
456,20,Ticks_Linear_8,158,9999,9999,9999,931245124
456,20,Ticks_Linear_8,159,9999,9999,9999,931755084
456,20,Ticks_Linear_8,160,9999,9999,9999,932255804
456,20,Ticks_Linear_8,161,9999,9999,9999,932755512
456,20,Ticks_Linear_8,162,9999,9999,9999,933255284
456,20,Ticks_Linear_8,163,9999,9999,9999,933756024
456,20,Ticks_Linear_8,164,9999,9999,9999,934255724
456,20,Ticks_Linear_8,165,9999,9999,9999,934745168
456,20,Ticks_Linear_8,166,9999,9999,9999,935235660
456,20,Ticks_Linear_8,167,9999,9999,9999,935725172
456,20,Ticks_Linear_8,168,9999,9999,9999,936215660
456,20,Ticks_Linear_8,169,9999,9999,9999,936705104
457,23,Ticks_Phase_5,0,5,42,127,947744212
457,23,Ticks_Phase_5,1,5,42,127,948243696
457,23,Ticks_Phase_5,2,1,38,55,948305080
457,23,Ticks_Phase_5,3,5,42,127,948743680
457,23,Ticks_Phase_5,4,1,38,49,948762836
457,23,Ticks_Phase_5,5,1,38,68,949223572
457,23,Ticks_Phase_5,6,5,42,127,949244188
457,23,Ticks_Phase_5,7,1,38,60,949739728
457,23,Ticks_Phase_5,8,5,42,127,949743880
457,23,Ticks_Phase_5,9,1,38,66,950231488
457,23,Ticks_Phase_5,10,5,42,127,950243792
457,23,Ticks_Phase_5,11,1,38,69,950725776
457,23,Ticks_Phase_5,12,5,42,127,950744376
457,23,Ticks_Phase_5,13,1,38,67,951204792
457,23,Ticks_Phase_5,14,5,42,127,951254324
457,23,Ticks_Phase_5,15,1,38,78,951737056
457,23,Ticks_Phase_5,16,5,42,127,951754088
457,23,Ticks_Phase_5,17,1,38,78,952205940
457,23,Ticks_Phase_5,18,5,42,127,952253848
457,23,Ticks_Phase_5,19,1,38,74,952738500
457,23,Ticks_Phase_5,20,5,42,127,952753760
457,23,Ticks_Phase_5,21,1,38,72,953236772
457,23,Ticks_Phase_5,22,5,42,127,953254272
457,23,Ticks_Phase_5,23,1,38,74,953727320
457,23,Ticks_Phase_5,24,5,42,127,953753860
457,23,Ticks_Phase_5,25,1,38,65,954237192
457,23,Ticks_Phase_5,26,5,42,127,954253696
457,23,Ticks_Phase_5,27,1,38,81,954740692
457,23,Ticks_Phase_5,28,5,42,127,954754580
457,23,Ticks_Phase_5,29,1,38,84,955233724
457,23,Ticks_Phase_5,30,5,42,127,955264528
457,23,Ticks_Phase_5,31,1,38,74,955745396
457,23,Ticks_Phase_5,32,5,42,127,955764068
457,23,Ticks_Phase_5,33,1,38,69,956254444
457,23,Ticks_Phase_5,34,5,42,127,956263760
457,23,Ticks_Phase_5,35,1,38,73,956763600
457,23,Ticks_Phase_5,36,5,42,127,956765764
457,23,Ticks_Phase_5,37,1,38,81,957260856
457,23,Ticks_Phase_5,38,5,42,127,957264480
457,23,Ticks_Phase_5,39,1,38,41,957299936
457,23,Ticks_Phase_5,40,5,42,127,957763928
457,23,Ticks_Phase_5,41,1,38,66,957786148
457,23,Ticks_Phase_5,42,1,38,78,958244336
457,23,Ticks_Phase_5,43,5,42,127,958263608
457,23,Ticks_Phase_5,44,1,38,73,958755776
457,23,Ticks_Phase_5,45,5,42,127,958764492
457,23,Ticks_Phase_5,46,5,42,127,959263964
457,23,Ticks_Phase_5,47,1,38,69,959267012
457,23,Ticks_Phase_5,48,1,38,77,959761832
457,23,Ticks_Phase_5,49,5,42,127,959764092
457,23,Ticks_Phase_5,50,5,42,127,960263492
457,23,Ticks_Phase_5,51,1,38,70,960268852
457,23,Ticks_Phase_5,52,1,38,71,960746892
457,23,Ticks_Phase_5,53,5,42,127,960764440
457,23,Ticks_Phase_5,54,5,42,127,961264060
457,23,Ticks_Phase_5,55,1,38,67,961266148
457,23,Ticks_Phase_5,56,1,38,63,961726416
457,23,Ticks_Phase_5,57,5,42,127,961763596
457,23,Ticks_Phase_5,58,1,38,62,962260772
457,23,Ticks_Phase_5,59,5,42,127,962264552
457,23,Ticks_Phase_5,60,1,38,64,962728044
457,23,Ticks_Phase_5,61,5,42,127,962764244
457,23,Ticks_Phase_5,62,1,38,68,963192436
457,23,Ticks_Phase_5,63,5,42,127,963263708
457,23,Ticks_Phase_5,64,5,42,127,963763700
457,23,Ticks_Phase_5,65,1,38,59,963772068
457,23,Ticks_Phase_5,66,5,42,127,964264360
457,23,Ticks_Phase_5,67,1,38,69,964274896
457,23,Ticks_Phase_5,68,1,38,74,964760164
457,23,Ticks_Phase_5,69,5,42,127,964763944
457,23,Ticks_Phase_5,70,1,38,64,965240532
457,23,Ticks_Phase_5,71,5,42,127,965263932
457,23,Ticks_Phase_5,72,1,38,67,965750484
457,23,Ticks_Phase_5,73,5,42,127,965763476
457,23,Ticks_Phase_5,74,1,38,62,966220292
457,23,Ticks_Phase_5,75,5,42,127,966264132
457,23,Ticks_Phase_5,76,1,38,78,966705160
457,23,Ticks_Phase_5,77,5,42,127,966763972
457,23,Ticks_Phase_5,78,1,38,78,967196908
457,23,Ticks_Phase_5,79,5,42,127,967263584
457,23,Ticks_Phase_5,80,1,38,76,967744600
457,23,Ticks_Phase_5,81,5,42,127,967764248
457,23,Ticks_Phase_5,82,1,38,68,968249676
457,23,Ticks_Phase_5,83,5,42,127,968264008
457,23,Ticks_Phase_5,84,1,38,57,968736408
457,23,Ticks_Phase_5,85,5,42,127,968763848
457,23,Ticks_Phase_5,86,1,38,69,969228080
457,23,Ticks_Phase_5,87,5,42,127,969263388
457,23,Ticks_Phase_5,88,5,42,127,969764128
457,23,Ticks_Phase_5,89,1,38,66,969765168
457,23,Ticks_Phase_5,90,1,38,69,970245876
457,23,Ticks_Phase_5,91,5,42,127,970264180
457,23,Ticks_Phase_5,92,1,38,65,970740616
457,23,Ticks_Phase_5,93,5,42,127,970763572
457,23,Ticks_Phase_5,94,1,38,69,971166824
457,23,Ticks_Phase_5,95,5,42,127,971265336
457,23,Ticks_Phase_5,96,5,42,127,971774408
457,23,Ticks_Phase_5,97,1,38,72,971854220
457,23,Ticks_Phase_5,98,1,38,69,972233104
457,23,Ticks_Phase_5,99,5,42,127,972274096
457,23,Ticks_Phase_5,100,1,38,66,972684012
457,23,Ticks_Phase_5,101,5,42,127,972773928
457,23,Ticks_Phase_5,102,5,42,127,973273404
457,23,Ticks_Phase_5,103,5,42,127,973774160
457,23,Ticks_Phase_5,104,1,38,70,973793384
457,23,Ticks_Phase_5,105,5,42,127,974274144
457,23,Ticks_Phase_5,106,1,38,62,974285880
457,23,Ticks_Phase_5,107,1,38,57,974771564
457,23,Ticks_Phase_5,108,5,42,127,974774352
457,23,Ticks_Phase_5,109,1,38,67,975241252
457,23,Ticks_Phase_5,110,5,42,127,975274412
457,23,Ticks_Phase_5,111,1,38,73,975756896
457,23,Ticks_Phase_5,112,5,42,127,975774148
457,23,Ticks_Phase_5,113,1,38,64,976260176
457,23,Ticks_Phase_5,114,5,42,127,976273912
457,23,Ticks_Phase_5,115,1,38,68,976744592
457,23,Ticks_Phase_5,116,5,42,127,976773600
457,23,Ticks_Phase_5,117,1,38,58,977239184
457,23,Ticks_Phase_5,118,5,42,127,977274260
457,23,Ticks_Phase_5,119,1,38,73,977748384
457,23,Ticks_Phase_5,120,5,42,127,977774024
457,23,Ticks_Phase_5,121,1,38,69,978264104
457,23,Ticks_Phase_5,122,5,42,127,978273640
457,23,Ticks_Phase_5,123,5,42,127,978774308
457,23,Ticks_Phase_5,124,1,38,58,978782228
457,23,Ticks_Phase_5,125,5,42,127,979273996
457,23,Ticks_Phase_5,126,1,38,62,979279804
457,23,Ticks_Phase_5,127,1,38,62,979760164
457,23,Ticks_Phase_5,128,1,48,15,979775800
457,23,Ticks_Phase_5,129,5,42,127,979794252
457,23,Ticks_Phase_5,130,1,38,63,980277180
457,23,Ticks_Phase_5,131,5,42,127,980294136
457,23,Ticks_Phase_5,132,1,38,68,980745644
457,23,Ticks_Phase_5,133,5,42,127,980793824
457,23,Ticks_Phase_5,134,1,38,65,981259252
457,23,Ticks_Phase_5,135,5,42,127,981293512
457,23,Ticks_Phase_5,136,1,38,65,981776624
457,23,Ticks_Phase_5,137,5,42,127,981794024
457,23,Ticks_Phase_5,138,1,38,68,982291748
457,23,Ticks_Phase_5,139,5,42,127,982294760
457,23,Ticks_Phase_5,140,5,42,127,982793780
457,23,Ticks_Phase_5,141,1,38,57,982819808
457,23,Ticks_Phase_5,142,1,38,64,983289236
457,23,Ticks_Phase_5,143,5,42,127,983294432
457,23,Ticks_Phase_5,144,5,42,127,983794056
457,23,Ticks_Phase_5,145,1,38,56,983799492
457,23,Ticks_Phase_5,146,5,42,127,984293596
457,23,Ticks_Phase_5,147,1,38,63,984306148
457,23,Ticks_Phase_5,148,5,42,127,984793580
457,23,Ticks_Phase_5,149,1,38,52,984832500
457,23,Ticks_Phase_5,150,1,38,62,985248948
457,23,Ticks_Phase_5,151,1,48,15,985264620
457,23,Ticks_Phase_5,152,5,42,127,985294152
457,23,Ticks_Phase_5,153,5,42,127,985793968
457,23,Ticks_Phase_5,154,1,38,64,985801888
457,23,Ticks_Phase_5,155,1,48,15,985817588
457,23,Ticks_Phase_5,156,5,42,127,986293832
457,23,Ticks_Phase_5,157,1,38,61,986326756
457,23,Ticks_Phase_5,158,1,38,60,986781860
457,23,Ticks_Phase_5,159,5,42,127,986794336
457,23,Ticks_Phase_5,160,1,38,60,987288652
457,23,Ticks_Phase_5,161,5,42,127,987294000
457,23,Ticks_Phase_5,162,5,42,127,987793844
457,23,Ticks_Phase_5,163,1,38,65,987828292
457,23,Ticks_Phase_5,164,1,48,15,987843852
457,23,Ticks_Phase_5,165,5,42,127,988274016
457,23,Ticks_Phase_5,166,1,38,63,988284032
457,23,Ticks_Phase_5,167,1,38,67,988748800
457,23,Ticks_Phase_5,168,1,48,15,988764136
457,23,Ticks_Phase_5,169,5,42,127,988773752
457,23,Ticks_Phase_5,170,5,42,127,989273644
457,23,Ticks_Phase_5,171,1,38,70,989278412
457,23,Ticks_Phase_5,172,1,48,15,989293748
457,23,Ticks_Phase_5,173,1,38,69,989769572
457,23,Ticks_Phase_5,174,5,42,127,989774400
457,23,Ticks_Phase_5,175,1,38,68,990268740
457,23,Ticks_Phase_5,176,5,42,127,990273864
457,23,Ticks_Phase_5,177,1,38,63,990770820
457,23,Ticks_Phase_5,178,5,42,127,990773628
457,23,Ticks_Phase_5,179,1,48,16,990786404
457,23,Ticks_Phase_5,180,1,38,58,991265088
457,23,Ticks_Phase_5,181,5,42,127,991274400
457,23,Ticks_Phase_5,182,1,38,60,991768368
457,23,Ticks_Phase_5,183,5,42,127,991774164
457,23,Ticks_Phase_5,184,5,42,127,992273860
457,23,Ticks_Phase_5,185,1,38,57,992571544
457,23,Ticks_Phase_5,186,5,42,127,992773476
457,23,Ticks_Phase_5,187,1,38,64,993274380
457,23,Ticks_Phase_5,188,5,42,127,993276840
457,23,Ticks_Phase_5,189,5,42,127,993774068
457,23,Ticks_Phase_5,190,1,38,69,993791116
457,23,Ticks_Phase_5,191,5,42,127,994273680
457,23,Ticks_Phase_5,192,1,38,62,994294400
457,23,Ticks_Phase_5,193,5,42,127,994774344
457,23,Ticks_Phase_5,194,1,38,54,994782860
457,23,Ticks_Phase_5,195,5,42,127,995274404
457,23,Ticks_Phase_5,196,1,38,64,995278720
457,23,Ticks_Phase_5,197,5,42,127,995773796
457,23,Ticks_Phase_5,198,1,38,59,995776840
457,23,Ticks_Phase_5,199,5,42,127,996224480
457,23,Ticks_Phase_5,200,1,38,59,996260424
457,23,Ticks_Phase_5,201,1,38,65,996677324
457,23,Ticks_Phase_5,202,5,42,127,996723940
457,23,Ticks_Phase_5,203,1,38,70,997191688
457,23,Ticks_Phase_5,204,5,42,127,997223776
457,23,Ticks_Phase_5,205,1,38,59,997709648
457,23,Ticks_Phase_5,206,5,42,127,997723612
457,23,Ticks_Phase_5,207,1,38,73,998203580
457,23,Ticks_Phase_5,208,5,42,127,998224196
457,23,Ticks_Phase_5,209,1,38,68,998687532
457,23,Ticks_Phase_5,210,5,42,127,998724108
457,23,Ticks_Phase_5,211,5,42,127,999223656
457,23,Ticks_Phase_5,212,1,38,69,999243180
457,23,Ticks_Phase_5,213,1,38,73,999701352
457,23,Ticks_Phase_5,214,5,42,127,999724456
457,23,Ticks_Phase_5,215,1,38,84,1000191608
457,23,Ticks_Phase_5,216,5,42,127,1000224296
457,23,Ticks_Phase_5,217,1,38,69,1000666144
457,23,Ticks_Phase_5,218,5,42,127,1000723760
457,23,Ticks_Phase_5,219,1,38,76,1001182460
457,23,Ticks_Phase_5,220,5,42,127,1001223448
457,23,Ticks_Phase_5,221,1,38,72,1001681160
457,23,Ticks_Phase_5,222,5,42,127,1001724184
457,23,Ticks_Phase_5,223,5,42,127,1002224100
457,23,Ticks_Phase_5,224,1,38,62,1002258524
457,23,Ticks_Phase_5,225,1,48,15,1002274084
457,23,Ticks_Phase_5,226,1,38,64,1002680188
457,23,Ticks_Phase_5,227,5,42,127,1002723660
457,23,Ticks_Phase_5,228,5,42,127,1003224404
457,23,Ticks_Phase_5,229,1,38,74,1003252316
457,23,Ticks_Phase_5,230,1,38,79,1003724652
457,23,Ticks_Phase_5,231,5,42,127,1003734492
457,23,Ticks_Phase_5,232,5,42,127,1004234188
457,23,Ticks_Phase_5,233,1,38,65,1004241048
457,23,Ticks_Phase_5,234,1,38,69,1004680712
457,23,Ticks_Phase_5,235,5,42,127,1004784028
457,23,Ticks_Phase_5,236,1,38,68,1005270592
457,23,Ticks_Phase_5,237,5,42,127,1005283656
457,23,Ticks_Phase_5,238,1,38,55,1005765868
457,23,Ticks_Phase_5,239,5,42,127,1005784468
457,23,Ticks_Phase_5,240,1,38,76,1006227860
457,23,Ticks_Phase_5,241,5,42,127,1006294412
457,23,Ticks_Phase_5,242,1,38,54,1006749860
457,23,Ticks_Phase_5,243,5,42,127,1006794100
457,23,Ticks_Phase_5,244,1,38,65,1007289108
457,23,Ticks_Phase_5,245,5,42,127,1007293936
457,23,Ticks_Phase_5,246,5,42,127,1007793556
457,23,Ticks_Phase_5,247,1,38,74,1007795120
457,23,Ticks_Phase_5,248,5,42,127,1008294148
457,23,Ticks_Phase_5,249,1,38,62,1008297268
457,23,Ticks_Phase_5,250,5,42,127,1008794180
457,23,Ticks_Phase_5,251,1,38,60,1008816500
457,23,Ticks_Phase_5,252,1,38,73,1009281708
457,23,Ticks_Phase_5,253,5,42,127,1009293788
457,23,Ticks_Phase_5,254,1,38,62,1009766792
457,23,Ticks_Phase_5,255,5,42,127,1009794452
457,23,Ticks_Phase_5,256,1,38,72,1010303124
457,23,Ticks_Phase_5,257,5,42,127,1010305592
457,23,Ticks_Phase_5,258,1,38,70,1010774928
457,23,Ticks_Phase_5,259,5,42,127,1010804088
457,23,Ticks_Phase_5,260,1,38,78,1011297456
457,23,Ticks_Phase_5,261,5,42,127,1011304148
457,23,Ticks_Phase_5,262,5,42,127,1011803620
457,23,Ticks_Phase_5,263,1,38,71,1011813108
457,23,Ticks_Phase_5,264,5,42,127,1012304356
457,23,Ticks_Phase_5,265,1,38,69,1012305840
457,23,Ticks_Phase_5,266,5,42,127,1012804044
457,23,Ticks_Phase_5,267,1,38,72,1012811056
457,23,Ticks_Phase_5,268,1,38,85,1013273820
457,23,Ticks_Phase_5,269,1,48,18,1013284284
457,23,Ticks_Phase_5,270,5,42,127,1013404012
457,23,Ticks_Phase_5,271,1,38,59,1013875600
457,23,Ticks_Phase_5,272,5,42,127,1013903940
457,23,Ticks_Phase_5,273,1,38,69,1014365556
457,23,Ticks_Phase_5,274,5,42,127,1014403552
457,23,Ticks_Phase_5,275,1,38,74,1014877972
457,23,Ticks_Phase_5,276,5,42,127,1014904064
457,23,Ticks_Phase_5,277,1,38,70,1015368900
457,23,Ticks_Phase_5,278,5,42,127,1015403976
457,23,Ticks_Phase_5,279,5,42,127,1015903744
457,23,Ticks_Phase_5,280,1,38,75,1015917652
457,23,Ticks_Phase_5,281,1,38,77,1016400324
457,23,Ticks_Phase_5,282,5,42,127,1016404400
457,23,Ticks_Phase_5,283,5,42,127,1016903944
457,23,Ticks_Phase_5,284,1,38,51,1016923544
457,23,Ticks_Phase_5,285,1,38,92,1017347136
457,23,Ticks_Phase_5,286,5,42,127,1017403704
457,23,Ticks_Phase_5,287,5,42,127,1017903400
457,23,Ticks_Phase_5,288,1,38,75,1017919320
457,23,Ticks_Phase_5,289,5,42,127,1018404208
457,23,Ticks_Phase_5,290,1,38,69,1018436084
457,23,Ticks_Phase_5,291,1,38,63,1018895844
457,23,Ticks_Phase_5,292,5,42,127,1018903888
457,23,Ticks_Phase_5,293,1,38,69,1019351580
457,23,Ticks_Phase_5,294,5,42,127,1019403800
457,23,Ticks_Phase_5,295,1,38,63,1019878144
457,23,Ticks_Phase_5,296,5,42,127,1019904388
457,23,Ticks_Phase_5,297,1,38,62,1020370864
457,23,Ticks_Phase_5,298,5,42,127,1020404224
457,23,Ticks_Phase_5,299,1,38,68,1020883888
457,23,Ticks_Phase_5,300,5,42,127,1020903912
457,23,Ticks_Phase_5,301,1,38,46,1021382832
457,23,Ticks_Phase_5,302,5,42,127,1021403748
457,23,Ticks_Phase_5,303,5,42,127,1021904120
457,23,Ticks_Phase_5,304,1,38,64,1021910828
457,23,Ticks_Phase_5,305,1,38,62,1022401144
457,23,Ticks_Phase_5,306,5,42,127,1022403876
457,23,Ticks_Phase_5,307,5,42,127,1022804320
457,23,Ticks_Phase_5,308,1,38,73,1022913284
457,23,Ticks_Phase_5,309,5,42,127,1023303932
457,23,Ticks_Phase_5,310,5,42,127,1023803720
457,23,Ticks_Phase_5,311,1,38,79,1023827136
457,23,Ticks_Phase_5,312,5,42,127,1024303628
457,23,Ticks_Phase_5,313,1,38,73,1024324804
457,23,Ticks_Phase_5,314,5,42,127,1024804068
457,23,Ticks_Phase_5,315,1,38,62,1024810252
457,23,Ticks_Phase_5,316,5,42,127,1025303980
457,23,Ticks_Phase_5,317,1,38,60,1025316912
457,23,Ticks_Phase_5,318,5,42,127,1025803592
457,23,Ticks_Phase_5,319,1,38,57,1025820260
457,23,Ticks_Phase_5,320,5,42,127,1026304476
457,23,Ticks_Phase_5,321,1,38,54,1026318976
457,23,Ticks_Phase_5,322,1,48,13,1026334092
457,23,Ticks_Phase_5,323,5,42,127,1026804044
457,23,Ticks_Phase_5,324,1,38,66,1026805680
457,23,Ticks_Phase_5,325,5,42,127,1027303656
457,23,Ticks_Phase_5,326,1,38,61,1027323256
457,23,Ticks_Phase_5,327,5,42,127,1027803420
457,23,Ticks_Phase_5,328,1,38,56,1027812984
457,23,Ticks_Phase_5,329,1,48,15,1027828236
457,23,Ticks_Phase_5,330,5,42,127,1028304336
457,23,Ticks_Phase_5,331,1,38,57,1028325276
457,23,Ticks_Phase_5,332,1,38,54,1028799940
457,23,Ticks_Phase_5,333,5,42,127,1028804016
457,23,Ticks_Phase_5,334,5,42,127,1029303716
457,23,Ticks_Phase_5,335,1,38,56,1029311548
457,23,Ticks_Phase_5,336,1,48,13,1029326656
457,23,Ticks_Phase_5,337,1,38,58,1029804552
457,23,Ticks_Phase_5,338,5,42,127,1029807240
457,23,Ticks_Phase_5,339,1,38,49,1030286732
457,23,Ticks_Phase_5,340,1,48,13,1030302000
457,23,Ticks_Phase_5,341,5,42,127,1030304064
457,23,Ticks_Phase_5,342,5,42,127,1030803784
457,23,Ticks_Phase_5,343,1,38,57,1030815612
457,23,Ticks_Phase_5,344,1,38,64,1031295792
457,23,Ticks_Phase_5,345,5,42,127,1031303464
457,23,Ticks_Phase_5,346,5,42,127,1031804280
457,23,Ticks_Phase_5,347,1,38,48,1031845248
457,23,Ticks_Phase_5,348,1,38,54,1032242384
457,23,Ticks_Phase_5,349,5,42,127,1032303888
457,23,Ticks_Phase_5,0,9999,9999,9999,947741776
457,23,Ticks_Phase_5,1,9999,9999,9999,948241484
457,23,Ticks_Phase_5,2,9999,9999,9999,948741248
457,23,Ticks_Phase_5,3,9999,9999,9999,949241976
457,23,Ticks_Phase_5,4,9999,9999,9999,949741668
457,23,Ticks_Phase_5,5,9999,9999,9999,950241356
457,23,Ticks_Phase_5,6,9999,9999,9999,950742092
457,23,Ticks_Phase_5,7,9999,9999,9999,951252036
457,23,Ticks_Phase_5,8,9999,9999,9999,951751800
457,23,Ticks_Phase_5,9,9999,9999,9999,952251488
457,23,Ticks_Phase_5,10,9999,9999,9999,952751176
457,23,Ticks_Phase_5,11,9999,9999,9999,953251912
457,23,Ticks_Phase_5,12,9999,9999,9999,953751648
457,23,Ticks_Phase_5,13,9999,9999,9999,954251336
457,23,Ticks_Phase_5,14,9999,9999,9999,954752072
457,23,Ticks_Phase_5,15,9999,9999,9999,955262020
457,23,Ticks_Phase_5,16,9999,9999,9999,955761780
457,23,Ticks_Phase_5,17,9999,9999,9999,956261472
457,23,Ticks_Phase_5,18,9999,9999,9999,956761168
457,23,Ticks_Phase_5,19,9999,9999,9999,957261896
457,23,Ticks_Phase_5,20,9999,9999,9999,957761644
457,23,Ticks_Phase_5,21,9999,9999,9999,958261324
457,23,Ticks_Phase_5,22,9999,9999,9999,958762056
457,23,Ticks_Phase_5,23,9999,9999,9999,959261752
457,23,Ticks_Phase_5,24,9999,9999,9999,959761548
457,23,Ticks_Phase_5,25,9999,9999,9999,960261204
457,23,Ticks_Phase_5,26,9999,9999,9999,960761932
457,23,Ticks_Phase_5,27,9999,9999,9999,961261624
457,23,Ticks_Phase_5,28,9999,9999,9999,961761384
457,23,Ticks_Phase_5,29,9999,9999,9999,962262116
457,23,Ticks_Phase_5,30,9999,9999,9999,962761808
457,23,Ticks_Phase_5,31,9999,9999,9999,963261496
457,23,Ticks_Phase_5,32,9999,9999,9999,963761264
457,23,Ticks_Phase_5,33,9999,9999,9999,964262000
457,23,Ticks_Phase_5,34,9999,9999,9999,964761656
457,23,Ticks_Phase_5,35,9999,9999,9999,965261424
457,23,Ticks_Phase_5,36,9999,9999,9999,965761112
457,23,Ticks_Phase_5,37,9999,9999,9999,966261848
457,23,Ticks_Phase_5,38,9999,9999,9999,966761536
457,23,Ticks_Phase_5,39,9999,9999,9999,967261300
457,23,Ticks_Phase_5,40,9999,9999,9999,967762032
457,23,Ticks_Phase_5,41,9999,9999,9999,968261724
457,23,Ticks_Phase_5,42,9999,9999,9999,968761412
457,23,Ticks_Phase_5,43,9999,9999,9999,969261172
457,23,Ticks_Phase_5,44,9999,9999,9999,969761916
457,23,Ticks_Phase_5,45,9999,9999,9999,970261596
457,23,Ticks_Phase_5,46,9999,9999,9999,970761284
457,23,Ticks_Phase_5,47,9999,9999,9999,971262020
457,23,Ticks_Phase_5,48,9999,9999,9999,971771972
457,23,Ticks_Phase_5,49,9999,9999,9999,972271732
457,23,Ticks_Phase_5,50,9999,9999,9999,972771420
457,23,Ticks_Phase_5,51,9999,9999,9999,973271116
457,23,Ticks_Phase_5,52,9999,9999,9999,973771872
457,23,Ticks_Phase_5,53,9999,9999,9999,974271560
457,23,Ticks_Phase_5,54,9999,9999,9999,974771280
457,23,Ticks_Phase_5,55,9999,9999,9999,975272048
457,23,Ticks_Phase_5,56,9999,9999,9999,975771716
457,23,Ticks_Phase_5,57,9999,9999,9999,976271476
457,23,Ticks_Phase_5,58,9999,9999,9999,976771164
457,23,Ticks_Phase_5,59,9999,9999,9999,977271900
457,23,Ticks_Phase_5,60,9999,9999,9999,977771592
457,23,Ticks_Phase_5,61,9999,9999,9999,978271352
457,23,Ticks_Phase_5,62,9999,9999,9999,978772092
457,23,Ticks_Phase_5,63,9999,9999,9999,979271780
457,23,Ticks_Phase_5,64,9999,9999,9999,979791964
457,23,Ticks_Phase_5,65,9999,9999,9999,980291700
457,23,Ticks_Phase_5,66,9999,9999,9999,980791388
457,23,Ticks_Phase_5,67,9999,9999,9999,981291080
457,23,Ticks_Phase_5,68,9999,9999,9999,981791812
457,23,Ticks_Phase_5,69,9999,9999,9999,982291540
457,23,Ticks_Phase_5,70,9999,9999,9999,982791272
457,23,Ticks_Phase_5,71,9999,9999,9999,983292000
457,23,Ticks_Phase_5,72,9999,9999,9999,983791692
457,23,Ticks_Phase_5,73,9999,9999,9999,984291384
457,23,Ticks_Phase_5,74,9999,9999,9999,984791144
457,23,Ticks_Phase_5,75,9999,9999,9999,985291864
457,23,Ticks_Phase_5,76,9999,9999,9999,985791608
457,23,Ticks_Phase_5,77,9999,9999,9999,986291320
457,23,Ticks_Phase_5,78,9999,9999,9999,986792052
457,23,Ticks_Phase_5,79,9999,9999,9999,987291712
457,23,Ticks_Phase_5,80,9999,9999,9999,987791484
457,23,Ticks_Phase_5,81,9999,9999,9999,988271728
457,23,Ticks_Phase_5,82,9999,9999,9999,988771392
457,23,Ticks_Phase_5,83,9999,9999,9999,989271132
457,23,Ticks_Phase_5,84,9999,9999,9999,989771888
457,23,Ticks_Phase_5,85,9999,9999,9999,990271576
457,23,Ticks_Phase_5,86,9999,9999,9999,990771268
457,23,Ticks_Phase_5,87,9999,9999,9999,991272040
457,23,Ticks_Phase_5,88,9999,9999,9999,991771728
457,23,Ticks_Phase_5,89,9999,9999,9999,992271424
457,23,Ticks_Phase_5,90,9999,9999,9999,992771188
457,23,Ticks_Phase_5,91,9999,9999,9999,993271872
457,23,Ticks_Phase_5,92,9999,9999,9999,993771632
457,23,Ticks_Phase_5,93,9999,9999,9999,994271320
457,23,Ticks_Phase_5,94,9999,9999,9999,994772056
457,23,Ticks_Phase_5,95,9999,9999,9999,995271744
457,23,Ticks_Phase_5,96,9999,9999,9999,995771508
457,23,Ticks_Phase_5,97,9999,9999,9999,996222044
457,23,Ticks_Phase_5,98,9999,9999,9999,996721724
457,23,Ticks_Phase_5,99,9999,9999,9999,997221488
457,23,Ticks_Phase_5,100,9999,9999,9999,997721176
457,23,Ticks_Phase_5,101,9999,9999,9999,998221912
457,23,Ticks_Phase_5,102,9999,9999,9999,998721600
457,23,Ticks_Phase_5,103,9999,9999,9999,999221368
457,23,Ticks_Phase_5,104,9999,9999,9999,999722096
457,23,Ticks_Phase_5,105,9999,9999,9999,1000221784
457,23,Ticks_Phase_5,106,9999,9999,9999,1000721472
457,23,Ticks_Phase_5,107,9999,9999,9999,1001221236
457,23,Ticks_Phase_5,108,9999,9999,9999,1001721972
457,23,Ticks_Phase_5,109,9999,9999,9999,1002221664
457,23,Ticks_Phase_5,110,9999,9999,9999,1002721376
457,23,Ticks_Phase_5,111,9999,9999,9999,1003222116
457,23,Ticks_Phase_5,112,9999,9999,9999,1003732056
457,23,Ticks_Phase_5,113,9999,9999,9999,1004231752
457,23,Ticks_Phase_5,114,9999,9999,9999,1004781664
457,23,Ticks_Phase_5,115,9999,9999,9999,1005281372
457,23,Ticks_Phase_5,116,9999,9999,9999,1005782104
457,23,Ticks_Phase_5,117,9999,9999,9999,1006292052
457,23,Ticks_Phase_5,118,9999,9999,9999,1006791740
457,23,Ticks_Phase_5,119,9999,9999,9999,1007291500
457,23,Ticks_Phase_5,120,9999,9999,9999,1007791196
457,23,Ticks_Phase_5,121,9999,9999,9999,1008291932
457,23,Ticks_Phase_5,122,9999,9999,9999,1008791672
457,23,Ticks_Phase_5,123,9999,9999,9999,1009291352
457,23,Ticks_Phase_5,124,9999,9999,9999,1009792092
457,23,Ticks_Phase_5,125,9999,9999,9999,1010302044
457,23,Ticks_Phase_5,126,9999,9999,9999,1010801728
457,23,Ticks_Phase_5,127,9999,9999,9999,1011301488
457,23,Ticks_Phase_5,128,9999,9999,9999,1011801184
457,23,Ticks_Phase_5,129,9999,9999,9999,1012301920
457,23,Ticks_Phase_5,130,9999,9999,9999,1012801608
457,23,Ticks_Phase_5,131,9999,9999,9999,1013401724
457,23,Ticks_Phase_5,132,9999,9999,9999,1013901428
457,23,Ticks_Phase_5,133,9999,9999,9999,1014401116
457,23,Ticks_Phase_5,134,9999,9999,9999,1014901852
457,23,Ticks_Phase_5,135,9999,9999,9999,1015401540
457,23,Ticks_Phase_5,136,9999,9999,9999,1015901308
457,23,Ticks_Phase_5,137,9999,9999,9999,1016402040
457,23,Ticks_Phase_5,138,9999,9999,9999,1016901732
457,23,Ticks_Phase_5,139,9999,9999,9999,1017401416
457,23,Ticks_Phase_5,140,9999,9999,9999,1017901112
457,23,Ticks_Phase_5,141,9999,9999,9999,1018401844
457,23,Ticks_Phase_5,142,9999,9999,9999,1018901604
457,23,Ticks_Phase_5,143,9999,9999,9999,1019401292
457,23,Ticks_Phase_5,144,9999,9999,9999,1019902024
457,23,Ticks_Phase_5,145,9999,9999,9999,1020401788
457,23,Ticks_Phase_5,146,9999,9999,9999,1020901476
457,23,Ticks_Phase_5,147,9999,9999,9999,1021401164
457,23,Ticks_Phase_5,148,9999,9999,9999,1021901904
457,23,Ticks_Phase_5,149,9999,9999,9999,1022401664
457,23,Ticks_Phase_5,150,9999,9999,9999,1022802032
457,23,Ticks_Phase_5,151,9999,9999,9999,1023301720
457,23,Ticks_Phase_5,152,9999,9999,9999,1023801432
457,23,Ticks_Phase_5,153,9999,9999,9999,1024301120
457,23,Ticks_Phase_5,154,9999,9999,9999,1024801856
457,23,Ticks_Phase_5,155,9999,9999,9999,1025301620
457,23,Ticks_Phase_5,156,9999,9999,9999,1025801308
457,23,Ticks_Phase_5,157,9999,9999,9999,1026302040
457,23,Ticks_Phase_5,158,9999,9999,9999,1026801756
457,23,Ticks_Phase_5,159,9999,9999,9999,1027301444
457,23,Ticks_Phase_5,160,9999,9999,9999,1027801208
457,23,Ticks_Phase_5,161,9999,9999,9999,1028301900
457,23,Ticks_Phase_5,162,9999,9999,9999,1028801656
457,23,Ticks_Phase_5,163,9999,9999,9999,1029301352
457,23,Ticks_Phase_5,164,9999,9999,9999,1029802040
457,23,Ticks_Phase_5,165,9999,9999,9999,1030301792
457,23,Ticks_Phase_5,166,9999,9999,9999,1030801496
457,23,Ticks_Phase_5,167,9999,9999,9999,1031301180
457,23,Ticks_Phase_5,168,9999,9999,9999,1031801920
457,23,Ticks_Phase_5,169,9999,9999,9999,1032301676
458,22,Ticks_Phase_8,0,5,42,127,1044604312
458,22,Ticks_Phase_8,1,1,38,59,1045144352
458,22,Ticks_Phase_8,2,5,42,127,1045404096
458,22,Ticks_Phase_8,3,5,42,127,1046203856
458,22,Ticks_Phase_8,4,1,38,76,1046252812
458,22,Ticks_Phase_8,5,5,42,127,1047003568
458,22,Ticks_Phase_8,6,1,38,77,1047036416
458,22,Ticks_Phase_8,7,5,42,127,1047804176
458,22,Ticks_Phase_8,8,1,38,71,1047818380
458,22,Ticks_Phase_8,9,5,42,127,1048604112
458,22,Ticks_Phase_8,10,1,38,69,1048644904
458,22,Ticks_Phase_8,11,1,38,78,1049391216
458,22,Ticks_Phase_8,12,5,42,127,1049403816
458,22,Ticks_Phase_8,13,1,38,76,1050192344
458,22,Ticks_Phase_8,14,5,42,127,1050203452
458,22,Ticks_Phase_8,15,1,38,72,1050994824
458,22,Ticks_Phase_8,16,5,42,127,1051004136
458,22,Ticks_Phase_8,17,1,38,74,1051796252
458,22,Ticks_Phase_8,18,5,42,127,1051803924
458,22,Ticks_Phase_8,19,5,42,127,1052603716
458,22,Ticks_Phase_8,20,1,38,77,1052613280
458,22,Ticks_Phase_8,21,5,42,127,1053403428
458,22,Ticks_Phase_8,22,1,38,70,1053437920
458,22,Ticks_Phase_8,23,1,38,85,1054185128
458,22,Ticks_Phase_8,24,5,42,127,1054204252
458,22,Ticks_Phase_8,25,5,42,127,1055003972
458,22,Ticks_Phase_8,26,1,38,67,1055012784
458,22,Ticks_Phase_8,27,5,42,127,1055803832
458,22,Ticks_Phase_8,28,1,38,65,1055828072
458,22,Ticks_Phase_8,29,5,42,127,1056603620
458,22,Ticks_Phase_8,30,1,38,64,1056610252
458,22,Ticks_Phase_8,31,1,38,67,1057390408
458,22,Ticks_Phase_8,32,5,42,127,1057404220
458,22,Ticks_Phase_8,33,1,38,70,1058192824
458,22,Ticks_Phase_8,34,5,42,127,1058203932
458,22,Ticks_Phase_8,35,1,38,67,1058989856
458,22,Ticks_Phase_8,36,5,42,127,1059003744
458,22,Ticks_Phase_8,37,5,42,127,1059803540
458,22,Ticks_Phase_8,38,1,38,67,1059807408
458,22,Ticks_Phase_8,39,1,38,65,1060591296
458,22,Ticks_Phase_8,40,5,42,127,1060604216
458,22,Ticks_Phase_8,41,1,38,67,1061356872
458,22,Ticks_Phase_8,42,5,42,127,1061404224
458,22,Ticks_Phase_8,43,1,38,62,1062159344
458,22,Ticks_Phase_8,44,5,42,127,1062203712
458,22,Ticks_Phase_8,45,5,42,127,1063003356
458,22,Ticks_Phase_8,46,1,38,62,1063009092
458,22,Ticks_Phase_8,47,5,42,127,1063804564
458,22,Ticks_Phase_8,48,1,38,64,1063812632
458,22,Ticks_Phase_8,49,5,42,127,1064604124
458,22,Ticks_Phase_8,50,1,38,65,1064617308
458,22,Ticks_Phase_8,51,5,42,127,1065403712
458,22,Ticks_Phase_8,52,1,38,63,1065411708
458,22,Ticks_Phase_8,53,5,42,127,1066203500
458,22,Ticks_Phase_8,54,1,38,71,1066207140
458,22,Ticks_Phase_8,55,5,42,127,1067004556
458,22,Ticks_Phase_8,56,1,38,69,1067034716
458,22,Ticks_Phase_8,57,5,42,127,1067804120
458,22,Ticks_Phase_8,58,1,38,61,1067805984
458,22,Ticks_Phase_8,59,5,42,127,1068584508
458,22,Ticks_Phase_8,60,1,38,61,1068594448
458,22,Ticks_Phase_8,61,5,42,127,1069384000
458,22,Ticks_Phase_8,62,1,38,50,1069384964
458,22,Ticks_Phase_8,63,1,38,78,1070177608
458,22,Ticks_Phase_8,64,5,42,127,1070183704
458,22,Ticks_Phase_8,65,5,42,127,1070983496
458,22,Ticks_Phase_8,66,1,38,62,1071019960
458,22,Ticks_Phase_8,67,1,38,61,1071761536
458,22,Ticks_Phase_8,68,5,42,127,1071784272
458,22,Ticks_Phase_8,69,1,38,62,1072542544
458,22,Ticks_Phase_8,70,5,42,127,1072584060
458,22,Ticks_Phase_8,71,1,38,60,1073375652
458,22,Ticks_Phase_8,72,5,42,127,1073383844
458,22,Ticks_Phase_8,73,1,38,63,1074167648
458,22,Ticks_Phase_8,74,5,42,127,1074183632
458,22,Ticks_Phase_8,75,1,38,59,1074977472
458,22,Ticks_Phase_8,76,5,42,127,1074984240
458,22,Ticks_Phase_8,77,5,42,127,1075784256
458,22,Ticks_Phase_8,78,1,38,55,1075792848
458,22,Ticks_Phase_8,79,1,38,69,1076578988
458,22,Ticks_Phase_8,80,5,42,127,1076583964
458,22,Ticks_Phase_8,81,5,42,127,1077383608
458,22,Ticks_Phase_8,82,1,38,61,1077398408
458,22,Ticks_Phase_8,83,5,42,127,1078184168
458,22,Ticks_Phase_8,84,1,38,70,1078198520
458,22,Ticks_Phase_8,85,1,38,66,1078982064
458,22,Ticks_Phase_8,86,5,42,127,1078985068
458,22,Ticks_Phase_8,87,5,42,127,1079783888
458,22,Ticks_Phase_8,88,1,38,71,1079815616
458,22,Ticks_Phase_8,89,5,42,127,1080583600
458,22,Ticks_Phase_8,90,1,38,69,1080584716
458,22,Ticks_Phase_8,91,5,42,127,1081384284
458,22,Ticks_Phase_8,92,1,38,69,1081403808
458,22,Ticks_Phase_8,93,1,38,81,1082181952
458,22,Ticks_Phase_8,94,5,42,127,1082184512
458,22,Ticks_Phase_8,95,1,38,65,1082983300
458,22,Ticks_Phase_8,96,5,42,127,1083004148
458,22,Ticks_Phase_8,97,1,38,59,1083796792
458,22,Ticks_Phase_8,98,5,42,127,1083804256
458,22,Ticks_Phase_8,99,5,42,127,1084603976
458,22,Ticks_Phase_8,100,1,38,59,1084644092
458,22,Ticks_Phase_8,101,5,42,127,1085403612
458,22,Ticks_Phase_8,102,1,38,84,1085413776
458,22,Ticks_Phase_8,103,5,42,127,1086204224
458,22,Ticks_Phase_8,104,1,38,62,1086215508
458,22,Ticks_Phase_8,105,5,42,127,1087004084
458,22,Ticks_Phase_8,106,1,38,82,1087063596
458,22,Ticks_Phase_8,107,1,38,83,1087802968
458,22,Ticks_Phase_8,108,5,42,127,1087805584
458,22,Ticks_Phase_8,109,1,38,65,1088598524
458,22,Ticks_Phase_8,110,5,42,127,1088603648
458,22,Ticks_Phase_8,111,1,38,73,1089348508
458,22,Ticks_Phase_8,112,5,42,127,1089404184
458,22,Ticks_Phase_8,113,1,38,79,1090152948
458,22,Ticks_Phase_8,114,5,42,127,1090203992
458,22,Ticks_Phase_8,115,5,42,127,1091003640
458,22,Ticks_Phase_8,116,1,38,70,1091009224
458,22,Ticks_Phase_8,117,5,42,127,1091803500
458,22,Ticks_Phase_8,118,1,38,67,1091816052
458,22,Ticks_Phase_8,119,5,42,127,1092604184
458,22,Ticks_Phase_8,120,1,38,71,1092623632
458,22,Ticks_Phase_8,121,1,38,66,1093375624
458,22,Ticks_Phase_8,122,5,42,127,1093403964
458,22,Ticks_Phase_8,123,1,38,62,1094188960
458,22,Ticks_Phase_8,124,5,42,127,1094203748
458,22,Ticks_Phase_8,125,1,38,59,1094995044
458,22,Ticks_Phase_8,126,5,42,127,1095003684
458,22,Ticks_Phase_8,127,1,38,62,1095774836
458,22,Ticks_Phase_8,128,5,42,127,1095844160
458,22,Ticks_Phase_8,129,5,42,127,1096643952
458,22,Ticks_Phase_8,130,1,38,63,1096650288
458,22,Ticks_Phase_8,131,1,38,62,1097444112
458,22,Ticks_Phase_8,132,5,42,127,1097446428
458,22,Ticks_Phase_8,133,5,42,127,1098243528
458,22,Ticks_Phase_8,134,1,38,59,1098252420
458,22,Ticks_Phase_8,135,1,38,67,1099017368
458,22,Ticks_Phase_8,136,5,42,127,1099044352
458,22,Ticks_Phase_8,137,1,38,63,1099840960
458,22,Ticks_Phase_8,138,5,42,127,1099843988
458,22,Ticks_Phase_8,139,5,42,127,1100643632
458,22,Ticks_Phase_8,140,1,38,60,1100648396
458,22,Ticks_Phase_8,141,1,38,74,1101429828
458,22,Ticks_Phase_8,142,5,42,127,1101443564
458,22,Ticks_Phase_8,143,5,42,127,1102244428
458,22,Ticks_Phase_8,144,1,38,67,1102245540
458,22,Ticks_Phase_8,145,5,42,127,1103043992
458,22,Ticks_Phase_8,146,1,38,62,1103065756
458,22,Ticks_Phase_8,147,1,38,57,1103842572
458,22,Ticks_Phase_8,148,5,42,127,1103845340
458,22,Ticks_Phase_8,149,5,42,127,1104643416
458,22,Ticks_Phase_8,150,1,38,70,1104646236
458,22,Ticks_Phase_8,151,1,38,65,1105401296
458,22,Ticks_Phase_8,152,5,42,127,1105444316
458,22,Ticks_Phase_8,153,5,42,127,1106243960
458,22,Ticks_Phase_8,154,1,38,78,1106304820
458,22,Ticks_Phase_8,155,1,38,64,1106998176
458,22,Ticks_Phase_8,156,5,42,127,1107043668
458,22,Ticks_Phase_8,157,5,42,127,1107843312
458,22,Ticks_Phase_8,158,1,38,75,1107855420
458,22,Ticks_Phase_8,159,5,42,127,1108644244
458,22,Ticks_Phase_8,160,1,38,65,1108645208
458,22,Ticks_Phase_8,161,5,42,127,1109404040
458,22,Ticks_Phase_8,162,1,38,66,1109465944
458,22,Ticks_Phase_8,163,1,38,74,1110164448
458,22,Ticks_Phase_8,164,5,42,127,1110204116
458,22,Ticks_Phase_8,165,1,38,75,1110989944
458,22,Ticks_Phase_8,166,5,42,127,1111003532
458,22,Ticks_Phase_8,167,1,38,70,1111786212
458,22,Ticks_Phase_8,168,5,42,127,1111804216
458,22,Ticks_Phase_8,169,5,42,127,1112604008
458,22,Ticks_Phase_8,170,1,38,69,1112615736
458,22,Ticks_Phase_8,171,1,38,67,1113343552
458,22,Ticks_Phase_8,172,5,42,127,1113403712
458,22,Ticks_Phase_8,173,1,38,67,1114190732
458,22,Ticks_Phase_8,174,5,42,127,1114203424
458,22,Ticks_Phase_8,175,1,38,69,1114978468
458,22,Ticks_Phase_8,176,5,42,127,1115004260
458,22,Ticks_Phase_8,177,1,38,72,1115785816
458,22,Ticks_Phase_8,178,5,42,127,1115803996
458,22,Ticks_Phase_8,179,1,38,69,1116548532
458,22,Ticks_Phase_8,180,5,42,127,1116604152
458,22,Ticks_Phase_8,181,5,42,127,1117403500
458,22,Ticks_Phase_8,182,1,38,73,1117458212
458,22,Ticks_Phase_8,183,1,38,74,1118137576
458,22,Ticks_Phase_8,184,5,42,127,1118204252
458,22,Ticks_Phase_8,185,5,42,127,1119003896
458,22,Ticks_Phase_8,186,1,38,62,1119080700
458,22,Ticks_Phase_8,187,1,38,82,1119702180
458,22,Ticks_Phase_8,188,5,42,127,1119803884
458,22,Ticks_Phase_8,189,1,38,82,1120598932
458,22,Ticks_Phase_8,190,5,42,127,1120603760
458,22,Ticks_Phase_8,191,1,38,71,1121396548
458,22,Ticks_Phase_8,192,5,42,127,1121404296
458,22,Ticks_Phase_8,193,5,42,127,1122124036
458,22,Ticks_Phase_8,194,1,38,74,1122182576
458,22,Ticks_Phase_8,195,1,38,78,1122905812
458,22,Ticks_Phase_8,196,5,42,127,1122923888
458,22,Ticks_Phase_8,197,1,38,78,1123654004
458,22,Ticks_Phase_8,198,5,42,127,1123723752
458,22,Ticks_Phase_8,199,1,38,68,1124489880
458,22,Ticks_Phase_8,200,5,42,127,1124524608
458,22,Ticks_Phase_8,201,5,42,127,1125324028
458,22,Ticks_Phase_8,202,1,38,80,1125339356
458,22,Ticks_Phase_8,203,5,42,127,1126123816
458,22,Ticks_Phase_8,204,1,38,76,1126125228
458,22,Ticks_Phase_8,205,1,38,76,1126917048
458,22,Ticks_Phase_8,206,5,42,127,1126923744
458,22,Ticks_Phase_8,207,1,38,65,1127699608
458,22,Ticks_Phase_8,208,5,42,127,1127724724
458,22,Ticks_Phase_8,209,1,38,69,1128502324
458,22,Ticks_Phase_8,210,5,42,127,1128524140
458,22,Ticks_Phase_8,211,1,38,70,1129302632
458,22,Ticks_Phase_8,212,5,42,127,1129323852
458,22,Ticks_Phase_8,213,5,42,127,1130123720
458,22,Ticks_Phase_8,214,1,38,66,1130154872
458,22,Ticks_Phase_8,215,1,38,68,1130902884
458,22,Ticks_Phase_8,216,5,42,127,1130924796
458,22,Ticks_Phase_8,217,5,42,127,1131724216
458,22,Ticks_Phase_8,218,1,38,65,1131729652
458,22,Ticks_Phase_8,219,1,38,70,1132465028
458,22,Ticks_Phase_8,220,5,42,127,1132523920
458,22,Ticks_Phase_8,221,1,38,71,1133308028
458,22,Ticks_Phase_8,222,5,42,127,1133323484
458,22,Ticks_Phase_8,223,1,38,62,1134020116
458,22,Ticks_Phase_8,224,5,42,127,1134124376
458,22,Ticks_Phase_8,225,1,38,78,1134919500
458,22,Ticks_Phase_8,226,5,42,127,1134924400
458,22,Ticks_Phase_8,227,1,38,60,1135651976
458,22,Ticks_Phase_8,228,5,42,127,1135803808
458,22,Ticks_Phase_8,229,5,42,127,1136603616
458,22,Ticks_Phase_8,230,1,38,55,1136753144
458,22,Ticks_Phase_8,231,5,42,127,1137404372
458,22,Ticks_Phase_8,232,1,38,53,1137566804
458,22,Ticks_Phase_8,233,5,42,127,1138204232
458,22,Ticks_Phase_8,234,1,38,45,1138368540
458,22,Ticks_Phase_8,235,5,42,127,1139003872
458,22,Ticks_Phase_8,236,1,38,96,1139097032
458,22,Ticks_Phase_8,237,1,48,20,1139107496
458,22,Ticks_Phase_8,238,5,42,127,1139803688
458,22,Ticks_Phase_8,239,1,38,63,1139847324
458,22,Ticks_Phase_8,240,5,42,127,1140604368
458,22,Ticks_Phase_8,241,1,38,51,1140629728
458,22,Ticks_Phase_8,242,1,38,59,1141402288
458,22,Ticks_Phase_8,243,5,42,127,1141405292
458,22,Ticks_Phase_8,244,5,42,127,1142203892
458,22,Ticks_Phase_8,245,1,38,51,1142207084
458,22,Ticks_Phase_8,246,1,38,49,1142989188
458,22,Ticks_Phase_8,247,5,42,127,1143003448
458,22,Ticks_Phase_8,248,1,38,64,1143799008
458,22,Ticks_Phase_8,249,5,42,127,1143804428
458,22,Ticks_Phase_8,250,1,38,65,1144574012
458,22,Ticks_Phase_8,251,5,42,127,1144604140
458,22,Ticks_Phase_8,252,1,38,64,1145370044
458,22,Ticks_Phase_8,253,5,42,127,1145403852
458,22,Ticks_Phase_8,254,1,38,66,1146156880
458,22,Ticks_Phase_8,255,5,42,127,1146203564
458,22,Ticks_Phase_8,256,1,38,64,1146982956
458,22,Ticks_Phase_8,257,5,42,127,1147004176
458,22,Ticks_Phase_8,258,1,38,61,1147799284
458,22,Ticks_Phase_8,259,5,42,127,1147804184
458,22,Ticks_Phase_8,260,5,42,127,1148603904
458,22,Ticks_Phase_8,261,1,38,61,1148645592
458,22,Ticks_Phase_8,262,1,38,62,1149386208
458,22,Ticks_Phase_8,263,5,42,127,1149564156
458,22,Ticks_Phase_8,264,5,42,127,1150364136
458,22,Ticks_Phase_8,265,1,38,41,1150368828
458,22,Ticks_Phase_8,266,5,42,127,1151163772
458,22,Ticks_Phase_8,267,1,38,52,1151166440
458,22,Ticks_Phase_8,268,5,42,127,1151963488
458,22,Ticks_Phase_8,269,1,38,52,1151971164
458,22,Ticks_Phase_8,270,5,42,127,1152764248
458,22,Ticks_Phase_8,271,1,38,51,1152769388
458,22,Ticks_Phase_8,272,5,42,127,1153564032
458,22,Ticks_Phase_8,273,1,38,46,1153567828
458,22,Ticks_Phase_8,274,5,42,127,1154363892
458,22,Ticks_Phase_8,275,1,38,50,1154379364
458,22,Ticks_Phase_8,276,5,42,127,1155163456
458,22,Ticks_Phase_8,277,1,38,50,1155193388
458,22,Ticks_Phase_8,278,1,38,51,1155908456
458,22,Ticks_Phase_8,279,5,42,127,1155964204
458,22,Ticks_Phase_8,280,5,42,127,1156763948
458,22,Ticks_Phase_8,281,1,38,55,1156799192
458,22,Ticks_Phase_8,282,1,38,54,1157556284
458,22,Ticks_Phase_8,283,5,42,127,1157563728
458,22,Ticks_Phase_8,284,5,42,127,1158363672
458,22,Ticks_Phase_8,285,1,38,57,1158397644
458,22,Ticks_Phase_8,286,1,38,53,1159163908
458,22,Ticks_Phase_8,287,5,42,127,1159166664
458,22,Ticks_Phase_8,288,5,42,127,1159963992
458,22,Ticks_Phase_8,289,1,38,48,1159969956
458,22,Ticks_Phase_8,290,1,38,51,1160757380
458,22,Ticks_Phase_8,291,5,42,127,1160763920
458,22,Ticks_Phase_8,292,1,38,55,1161514256
458,22,Ticks_Phase_8,293,5,42,127,1161563632
458,22,Ticks_Phase_8,294,5,42,127,1162364400
458,22,Ticks_Phase_8,295,1,38,48,1162397728
458,22,Ticks_Phase_8,296,1,38,51,1163140332
458,22,Ticks_Phase_8,297,5,42,127,1163163980
458,22,Ticks_Phase_8,298,5,42,127,1163963700
458,22,Ticks_Phase_8,299,1,38,47,1163987856
458,22,Ticks_Phase_8,300,5,42,127,1164603876
458,22,Ticks_Phase_8,301,1,38,52,1164750348
458,22,Ticks_Phase_8,302,5,42,127,1165403588
458,22,Ticks_Phase_8,303,1,38,35,1165578596
458,22,Ticks_Phase_8,304,5,42,127,1166204420
458,22,Ticks_Phase_8,305,1,38,45,1166362584
458,22,Ticks_Phase_8,306,5,42,127,1167004008
458,22,Ticks_Phase_8,307,1,38,37,1167044348
458,22,Ticks_Phase_8,308,1,38,46,1167779940
458,22,Ticks_Phase_8,309,5,42,127,1167803712
458,22,Ticks_Phase_8,310,5,42,127,1168603580
458,22,Ticks_Phase_8,311,1,38,46,1168610368
458,22,Ticks_Phase_8,312,5,42,127,1169404560
458,22,Ticks_Phase_8,313,1,38,51,1169447152
458,22,Ticks_Phase_8,314,5,42,127,1170204196
458,22,Ticks_Phase_8,315,1,38,51,1170224844
458,22,Ticks_Phase_8,316,5,42,127,1171003612
458,22,Ticks_Phase_8,317,1,38,54,1171021104
458,22,Ticks_Phase_8,318,5,42,127,1171803472
458,22,Ticks_Phase_8,319,1,38,53,1171827788
458,22,Ticks_Phase_8,320,1,38,54,1172597676
458,22,Ticks_Phase_8,321,5,42,127,1172604448
458,22,Ticks_Phase_8,322,1,38,56,1173401604
458,22,Ticks_Phase_8,323,5,42,127,1173404408
458,22,Ticks_Phase_8,324,1,38,59,1174175704
458,22,Ticks_Phase_8,325,5,42,127,1174203748
458,22,Ticks_Phase_8,326,1,38,55,1174946736
458,22,Ticks_Phase_8,327,5,42,127,1175003460
458,22,Ticks_Phase_8,328,1,38,56,1175799020
458,22,Ticks_Phase_8,329,5,42,127,1175804368
458,22,Ticks_Phase_8,330,5,42,127,1176604308
458,22,Ticks_Phase_8,331,1,38,51,1176612304
458,22,Ticks_Phase_8,332,1,38,53,1177403272
458,22,Ticks_Phase_8,333,5,42,127,1177405884
458,22,Ticks_Phase_8,334,1,38,52,1178164536
458,22,Ticks_Phase_8,335,5,42,127,1178203504
458,22,Ticks_Phase_8,336,5,42,127,1179004268
458,22,Ticks_Phase_8,337,1,38,52,1179013236
458,22,Ticks_Phase_8,338,1,38,50,1179797056
458,22,Ticks_Phase_8,339,5,42,127,1179804296
458,22,Ticks_Phase_8,0,9999,9999,9999,1044601952
458,22,Ticks_Phase_8,1,9999,9999,9999,1045401664
458,22,Ticks_Phase_8,2,9999,9999,9999,1046201420
458,22,Ticks_Phase_8,3,9999,9999,9999,1047001208
458,22,Ticks_Phase_8,4,9999,9999,9999,1047801964
458,22,Ticks_Phase_8,5,9999,9999,9999,1048601676
458,22,Ticks_Phase_8,6,9999,9999,9999,1049401456
458,22,Ticks_Phase_8,7,9999,9999,9999,1050201164
458,22,Ticks_Phase_8,8,9999,9999,9999,1051001924
458,22,Ticks_Phase_8,9,9999,9999,9999,1051801712
458,22,Ticks_Phase_8,10,9999,9999,9999,1052601428
458,22,Ticks_Phase_8,11,9999,9999,9999,1053401140
458,22,Ticks_Phase_8,12,9999,9999,9999,1054201968
458,22,Ticks_Phase_8,13,9999,9999,9999,1055001684
458,22,Ticks_Phase_8,14,9999,9999,9999,1055801396
458,22,Ticks_Phase_8,15,9999,9999,9999,1056601184
458,22,Ticks_Phase_8,16,9999,9999,9999,1057401936
458,22,Ticks_Phase_8,17,9999,9999,9999,1058201720
458,22,Ticks_Phase_8,18,9999,9999,9999,1059001460
458,22,Ticks_Phase_8,19,9999,9999,9999,1059801176
458,22,Ticks_Phase_8,20,9999,9999,9999,1060601928
458,22,Ticks_Phase_8,21,9999,9999,9999,1061401716
458,22,Ticks_Phase_8,22,9999,9999,9999,1062201428
458,22,Ticks_Phase_8,23,9999,9999,9999,1063001144
458,22,Ticks_Phase_8,24,9999,9999,9999,1063801980
458,22,Ticks_Phase_8,25,9999,9999,9999,1064601688
458,22,Ticks_Phase_8,26,9999,9999,9999,1065401428
458,22,Ticks_Phase_8,27,9999,9999,9999,1066201212
458,22,Ticks_Phase_8,28,9999,9999,9999,1067001972
458,22,Ticks_Phase_8,29,9999,9999,9999,1067801684
458,22,Ticks_Phase_8,30,9999,9999,9999,1068581996
458,22,Ticks_Phase_8,31,9999,9999,9999,1069381712
458,22,Ticks_Phase_8,32,9999,9999,9999,1070181492
458,22,Ticks_Phase_8,33,9999,9999,9999,1070981212
458,22,Ticks_Phase_8,34,9999,9999,9999,1071781988
458,22,Ticks_Phase_8,35,9999,9999,9999,1072581700
458,22,Ticks_Phase_8,36,9999,9999,9999,1073381484
458,22,Ticks_Phase_8,37,9999,9999,9999,1074181196
458,22,Ticks_Phase_8,38,9999,9999,9999,1074981956
458,22,Ticks_Phase_8,39,9999,9999,9999,1075781748
458,22,Ticks_Phase_8,40,9999,9999,9999,1076581452
458,22,Ticks_Phase_8,41,9999,9999,9999,1077381172
458,22,Ticks_Phase_8,42,9999,9999,9999,1078181956
458,22,Ticks_Phase_8,43,9999,9999,9999,1078981684
458,22,Ticks_Phase_8,44,9999,9999,9999,1079781456
458,22,Ticks_Phase_8,45,9999,9999,9999,1080581240
458,22,Ticks_Phase_8,46,9999,9999,9999,1081381996
458,22,Ticks_Phase_8,47,9999,9999,9999,1082181740
458,22,Ticks_Phase_8,48,9999,9999,9999,1083001936
458,22,Ticks_Phase_8,49,9999,9999,9999,1083801724
458,22,Ticks_Phase_8,50,9999,9999,9999,1084601464
458,22,Ticks_Phase_8,51,9999,9999,9999,1085401180
458,22,Ticks_Phase_8,52,9999,9999,9999,1086201936
458,22,Ticks_Phase_8,53,9999,9999,9999,1087001720
458,22,Ticks_Phase_8,54,9999,9999,9999,1087801432
458,22,Ticks_Phase_8,55,9999,9999,9999,1088601212
458,22,Ticks_Phase_8,56,9999,9999,9999,1089401972
458,22,Ticks_Phase_8,57,9999,9999,9999,1090201684
458,22,Ticks_Phase_8,58,9999,9999,9999,1091001428
458,22,Ticks_Phase_8,59,9999,9999,9999,1091801212
458,22,Ticks_Phase_8,60,9999,9999,9999,1092601972
458,22,Ticks_Phase_8,61,9999,9999,9999,1093401676
458,22,Ticks_Phase_8,62,9999,9999,9999,1094201460
458,22,Ticks_Phase_8,63,9999,9999,9999,1095001172
458,22,Ticks_Phase_8,64,9999,9999,9999,1095841872
458,22,Ticks_Phase_8,65,9999,9999,9999,1096641592
458,22,Ticks_Phase_8,66,9999,9999,9999,1097441380
458,22,Ticks_Phase_8,67,9999,9999,9999,1098241092
458,22,Ticks_Phase_8,68,9999,9999,9999,1099041916
458,22,Ticks_Phase_8,69,9999,9999,9999,1099841628
458,22,Ticks_Phase_8,70,9999,9999,9999,1100641348
458,22,Ticks_Phase_8,71,9999,9999,9999,1101441128
458,22,Ticks_Phase_8,72,9999,9999,9999,1102241916
458,22,Ticks_Phase_8,73,9999,9999,9999,1103041632
458,22,Ticks_Phase_8,74,9999,9999,9999,1103841344
458,22,Ticks_Phase_8,75,9999,9999,9999,1104641128
458,22,Ticks_Phase_8,76,9999,9999,9999,1105441884
458,22,Ticks_Phase_8,77,9999,9999,9999,1106241600
458,22,Ticks_Phase_8,78,9999,9999,9999,1107041380
458,22,Ticks_Phase_8,79,9999,9999,9999,1107841100
458,22,Ticks_Phase_8,80,9999,9999,9999,1108641880
458,22,Ticks_Phase_8,81,9999,9999,9999,1109401660
458,22,Ticks_Phase_8,82,9999,9999,9999,1110201456
458,22,Ticks_Phase_8,83,9999,9999,9999,1111001172
458,22,Ticks_Phase_8,84,9999,9999,9999,1111801928
458,22,Ticks_Phase_8,85,9999,9999,9999,1112601720
458,22,Ticks_Phase_8,86,9999,9999,9999,1113401428
458,22,Ticks_Phase_8,87,9999,9999,9999,1114201212
458,22,Ticks_Phase_8,88,9999,9999,9999,1115001972
458,22,Ticks_Phase_8,89,9999,9999,9999,1115801708
458,22,Ticks_Phase_8,90,9999,9999,9999,1116601420
458,22,Ticks_Phase_8,91,9999,9999,9999,1117401212
458,22,Ticks_Phase_8,92,9999,9999,9999,1118201964
458,22,Ticks_Phase_8,93,9999,9999,9999,1119001684
458,22,Ticks_Phase_8,94,9999,9999,9999,1119801448
458,22,Ticks_Phase_8,95,9999,9999,9999,1120601176
458,22,Ticks_Phase_8,96,9999,9999,9999,1121401936
458,22,Ticks_Phase_8,97,9999,9999,9999,1122121824
458,22,Ticks_Phase_8,98,9999,9999,9999,1122921528
458,22,Ticks_Phase_8,99,9999,9999,9999,1123721316
458,22,Ticks_Phase_8,100,9999,9999,9999,1124522100
458,22,Ticks_Phase_8,101,9999,9999,9999,1125321816
458,22,Ticks_Phase_8,102,9999,9999,9999,1126121528
458,22,Ticks_Phase_8,103,9999,9999,9999,1126921308
458,22,Ticks_Phase_8,104,9999,9999,9999,1127722068
458,22,Ticks_Phase_8,105,9999,9999,9999,1128521852
458,22,Ticks_Phase_8,106,9999,9999,9999,1129321564
458,22,Ticks_Phase_8,107,9999,9999,9999,1130121284
458,22,Ticks_Phase_8,108,9999,9999,9999,1130922064
458,22,Ticks_Phase_8,109,9999,9999,9999,1131721856
458,22,Ticks_Phase_8,110,9999,9999,9999,1132521560
458,22,Ticks_Phase_8,111,9999,9999,9999,1133321272
458,22,Ticks_Phase_8,112,9999,9999,9999,1134122088
458,22,Ticks_Phase_8,113,9999,9999,9999,1134921816
458,22,Ticks_Phase_8,114,9999,9999,9999,1135801444
458,22,Ticks_Phase_8,115,9999,9999,9999,1136601180
458,22,Ticks_Phase_8,116,9999,9999,9999,1137401936
458,22,Ticks_Phase_8,117,9999,9999,9999,1138201724
458,22,Ticks_Phase_8,118,9999,9999,9999,1139001436
458,22,Ticks_Phase_8,119,9999,9999,9999,1139801176
458,22,Ticks_Phase_8,120,9999,9999,9999,1140601932
458,22,Ticks_Phase_8,121,9999,9999,9999,1141401688
458,22,Ticks_Phase_8,122,9999,9999,9999,1142201456
458,22,Ticks_Phase_8,123,9999,9999,9999,1143001160
458,22,Ticks_Phase_8,124,9999,9999,9999,1143801920
458,22,Ticks_Phase_8,125,9999,9999,9999,1144601704
458,22,Ticks_Phase_8,126,9999,9999,9999,1145401416
458,22,Ticks_Phase_8,127,9999,9999,9999,1146201204
458,22,Ticks_Phase_8,128,9999,9999,9999,1147001964
458,22,Ticks_Phase_8,129,9999,9999,9999,1147801676
458,22,Ticks_Phase_8,130,9999,9999,9999,1148601468
458,22,Ticks_Phase_8,131,9999,9999,9999,1149561940
458,22,Ticks_Phase_8,132,9999,9999,9999,1150361700
458,22,Ticks_Phase_8,133,9999,9999,9999,1151161412
458,22,Ticks_Phase_8,134,9999,9999,9999,1151961200
458,22,Ticks_Phase_8,135,9999,9999,9999,1152761960
458,22,Ticks_Phase_8,136,9999,9999,9999,1153561672
458,22,Ticks_Phase_8,137,9999,9999,9999,1154361456
458,22,Ticks_Phase_8,138,9999,9999,9999,1155161168
458,22,Ticks_Phase_8,139,9999,9999,9999,1155961920
458,22,Ticks_Phase_8,140,9999,9999,9999,1156761664
458,22,Ticks_Phase_8,141,9999,9999,9999,1157561440
458,22,Ticks_Phase_8,142,9999,9999,9999,1158361160
458,22,Ticks_Phase_8,143,9999,9999,9999,1159161920
458,22,Ticks_Phase_8,144,9999,9999,9999,1159961708
458,22,Ticks_Phase_8,145,9999,9999,9999,1160761412
458,22,Ticks_Phase_8,146,9999,9999,9999,1161561196
458,22,Ticks_Phase_8,147,9999,9999,9999,1162361964
458,22,Ticks_Phase_8,148,9999,9999,9999,1163161692
458,22,Ticks_Phase_8,149,9999,9999,9999,1163961412
458,22,Ticks_Phase_8,150,9999,9999,9999,1164601440
458,22,Ticks_Phase_8,151,9999,9999,9999,1165401152
458,22,Ticks_Phase_8,152,9999,9999,9999,1166201984
458,22,Ticks_Phase_8,153,9999,9999,9999,1167001720
458,22,Ticks_Phase_8,154,9999,9999,9999,1167801428
458,22,Ticks_Phase_8,155,9999,9999,9999,1168601144
458,22,Ticks_Phase_8,156,9999,9999,9999,1169401976
458,22,Ticks_Phase_8,157,9999,9999,9999,1170201688
458,22,Ticks_Phase_8,158,9999,9999,9999,1171001400
458,22,Ticks_Phase_8,159,9999,9999,9999,1171801188
458,22,Ticks_Phase_8,160,9999,9999,9999,1172601936
458,22,Ticks_Phase_8,161,9999,9999,9999,1173401676
458,22,Ticks_Phase_8,162,9999,9999,9999,1174201460
458,22,Ticks_Phase_8,163,9999,9999,9999,1175001172
458,22,Ticks_Phase_8,164,9999,9999,9999,1175801932
458,22,Ticks_Phase_8,165,9999,9999,9999,1176601724
458,22,Ticks_Phase_8,166,9999,9999,9999,1177401436
458,22,Ticks_Phase_8,167,9999,9999,9999,1178201140
458,22,Ticks_Phase_8,168,9999,9999,9999,1179001980
458,22,Ticks_Phase_8,169,9999,9999,9999,1179801712
459,10,Ticks_ISO_T2_5,0,5,42,127,1192529176
459,10,Ticks_ISO_T2_5,1,1,38,26,1192726724
459,10,Ticks_ISO_T2_5,2,5,42,127,1193029020
459,10,Ticks_ISO_T2_5,3,1,38,51,1193257008
459,10,Ticks_ISO_T2_5,4,5,42,127,1193528716
459,10,Ticks_ISO_T2_5,5,1,38,47,1193720948
459,10,Ticks_ISO_T2_5,6,5,42,127,1194029604
459,10,Ticks_ISO_T2_5,7,1,38,42,1194084860
459,10,Ticks_ISO_T2_5,8,5,42,127,1194529076
459,10,Ticks_ISO_T2_5,9,1,38,68,1194543416
459,10,Ticks_ISO_T2_5,10,5,42,127,1195028772
459,10,Ticks_ISO_T2_5,11,1,38,66,1195057472
459,10,Ticks_ISO_T2_5,12,1,38,66,1195528812
459,10,Ticks_ISO_T2_5,13,5,42,127,1195531428
459,10,Ticks_ISO_T2_5,14,5,42,127,1196029256
459,10,Ticks_ISO_T2_5,15,1,38,70,1196045088
459,10,Ticks_ISO_T2_5,16,1,38,66,1196524120
459,10,Ticks_ISO_T2_5,17,5,42,127,1196528868
459,10,Ticks_ISO_T2_5,18,5,42,127,1197028648
459,10,Ticks_ISO_T2_5,19,1,38,62,1197032812
459,10,Ticks_ISO_T2_5,20,1,38,63,1197520740
459,10,Ticks_ISO_T2_5,21,5,42,127,1197528632
459,10,Ticks_ISO_T2_5,22,1,38,67,1197999424
459,10,Ticks_ISO_T2_5,23,5,42,127,1198029152
459,10,Ticks_ISO_T2_5,24,1,38,58,1198499784
459,10,Ticks_ISO_T2_5,25,5,42,127,1198528772
459,10,Ticks_ISO_T2_5,26,1,38,69,1199006584
459,10,Ticks_ISO_T2_5,27,5,42,127,1199028764
459,10,Ticks_ISO_T2_5,28,1,38,68,1199516604
459,10,Ticks_ISO_T2_5,29,5,42,127,1199529504
459,10,Ticks_ISO_T2_5,30,5,42,127,1200029056
459,10,Ticks_ISO_T2_5,31,1,38,72,1200060000
459,10,Ticks_ISO_T2_5,32,1,38,72,1200504672
459,10,Ticks_ISO_T2_5,33,5,42,127,1200528720
459,10,Ticks_ISO_T2_5,34,1,38,58,1201012596
459,10,Ticks_ISO_T2_5,35,5,42,127,1201028564
459,10,Ticks_ISO_T2_5,36,1,38,68,1201505932
459,10,Ticks_ISO_T2_5,37,5,42,127,1201529304
459,10,Ticks_ISO_T2_5,38,1,38,68,1202024776
459,10,Ticks_ISO_T2_5,39,5,42,127,1202028852
459,10,Ticks_ISO_T2_5,40,1,38,68,1202510408
459,10,Ticks_ISO_T2_5,41,5,42,127,1202528544
459,10,Ticks_ISO_T2_5,42,5,42,127,1203029444
459,10,Ticks_ISO_T2_5,43,1,38,74,1203050436
459,10,Ticks_ISO_T2_5,44,1,38,72,1203516608
459,10,Ticks_ISO_T2_5,45,5,42,127,1203529056
459,10,Ticks_ISO_T2_5,46,1,38,65,1203998124
459,10,Ticks_ISO_T2_5,47,5,42,127,1204028752
459,10,Ticks_ISO_T2_5,48,5,42,127,1204528452
459,10,Ticks_ISO_T2_5,49,1,38,75,1204529492
459,10,Ticks_ISO_T2_5,50,5,42,127,1205029344
459,10,Ticks_ISO_T2_5,51,1,38,62,1205036948
459,10,Ticks_ISO_T2_5,52,1,38,70,1205515832
459,10,Ticks_ISO_T2_5,53,5,42,127,1205529104
459,10,Ticks_ISO_T2_5,54,5,42,127,1206028508
459,10,Ticks_ISO_T2_5,55,1,38,70,1206037460
459,10,Ticks_ISO_T2_5,56,5,42,127,1206529476
459,10,Ticks_ISO_T2_5,57,1,38,78,1206537680
459,10,Ticks_ISO_T2_5,58,5,42,127,1207029316
459,10,Ticks_ISO_T2_5,59,1,38,78,1207030356
459,10,Ticks_ISO_T2_5,60,5,42,127,1207528792
459,10,Ticks_ISO_T2_5,61,1,38,75,1207550088
459,10,Ticks_ISO_T2_5,62,5,42,127,1208028484
459,10,Ticks_ISO_T2_5,63,1,38,75,1208036468
459,10,Ticks_ISO_T2_5,64,1,38,77,1208528172
459,10,Ticks_ISO_T2_5,65,5,42,127,1208530716
459,10,Ticks_ISO_T2_5,66,5,42,127,1209028852
459,10,Ticks_ISO_T2_5,67,1,38,75,1209046776
459,10,Ticks_ISO_T2_5,68,1,38,78,1209523268
459,10,Ticks_ISO_T2_5,69,5,42,127,1209528612
459,10,Ticks_ISO_T2_5,70,1,38,70,1210014736
459,10,Ticks_ISO_T2_5,71,5,42,127,1210029352
459,10,Ticks_ISO_T2_5,72,1,38,70,1210527460
459,10,Ticks_ISO_T2_5,73,5,42,127,1210530468
459,10,Ticks_ISO_T2_5,74,1,38,70,1211009008
459,10,Ticks_ISO_T2_5,75,5,42,127,1211028892
459,10,Ticks_ISO_T2_5,76,5,42,127,1211528496
459,10,Ticks_ISO_T2_5,77,1,38,60,1211538648
459,10,Ticks_ISO_T2_5,78,1,38,63,1212023804
459,10,Ticks_ISO_T2_5,79,5,42,127,1212029304
459,10,Ticks_ISO_T2_5,80,1,38,61,1212523580
459,10,Ticks_ISO_T2_5,81,5,42,127,1212528996
459,10,Ticks_ISO_T2_5,82,1,38,67,1213006144
459,10,Ticks_ISO_T2_5,83,5,42,127,1213028620
459,10,Ticks_ISO_T2_5,84,1,38,74,1213523640
459,10,Ticks_ISO_T2_5,85,5,42,127,1213528388
459,10,Ticks_ISO_T2_5,86,1,38,67,1214020044
459,10,Ticks_ISO_T2_5,87,5,42,127,1214029204
459,10,Ticks_ISO_T2_5,88,1,38,65,1214522808
459,10,Ticks_ISO_T2_5,89,5,42,127,1214529196
459,10,Ticks_ISO_T2_5,90,1,38,62,1215015096
459,10,Ticks_ISO_T2_5,91,5,42,127,1215028444
459,10,Ticks_ISO_T2_5,92,1,38,62,1215493996
459,10,Ticks_ISO_T2_5,93,5,42,127,1215529336
459,10,Ticks_ISO_T2_5,94,1,38,59,1216009548
459,10,Ticks_ISO_T2_5,95,5,42,127,1216029028
459,10,Ticks_ISO_T2_5,96,1,38,66,1216517324
459,10,Ticks_ISO_T2_5,97,5,42,127,1216528872
459,10,Ticks_ISO_T2_5,98,5,42,127,1217028428
459,10,Ticks_ISO_T2_5,99,1,38,62,1217031620
459,10,Ticks_ISO_T2_5,100,1,38,55,1217525088
459,10,Ticks_ISO_T2_5,101,5,42,127,1217529236
459,10,Ticks_ISO_T2_5,102,1,38,59,1218025828
459,10,Ticks_ISO_T2_5,103,5,42,127,1218029152
459,10,Ticks_ISO_T2_5,104,1,38,59,1218524476
459,10,Ticks_ISO_T2_5,105,5,42,127,1218528628
459,10,Ticks_ISO_T2_5,106,1,38,54,1219010636
459,10,Ticks_ISO_T2_5,107,5,42,127,1219029220
459,10,Ticks_ISO_T2_5,108,1,38,56,1219520052
459,10,Ticks_ISO_T2_5,109,5,42,127,1219529212
459,10,Ticks_ISO_T2_5,110,1,38,60,1219989004
459,10,Ticks_ISO_T2_5,111,5,42,127,1220028756
459,10,Ticks_ISO_T2_5,112,1,38,63,1220518472
459,10,Ticks_ISO_T2_5,113,5,42,127,1220528452
459,10,Ticks_ISO_T2_5,114,1,38,64,1221024448
459,10,Ticks_ISO_T2_5,115,5,42,127,1221029196
459,10,Ticks_ISO_T2_5,116,1,38,62,1221512748
459,10,Ticks_ISO_T2_5,117,5,42,127,1221529036
459,10,Ticks_ISO_T2_5,118,5,42,127,1222028788
459,10,Ticks_ISO_T2_5,119,1,38,59,1222031460
459,10,Ticks_ISO_T2_5,120,5,42,127,1222529380
459,10,Ticks_ISO_T2_5,121,1,38,57,1222549580
459,10,Ticks_ISO_T2_5,122,5,42,127,1223029224
459,10,Ticks_ISO_T2_5,123,1,38,65,1223033988
459,10,Ticks_ISO_T2_5,124,1,38,53,1223515036
459,10,Ticks_ISO_T2_5,125,5,42,127,1223528912
459,10,Ticks_ISO_T2_5,126,1,38,65,1224022660
459,10,Ticks_ISO_T2_5,127,5,42,127,1224028456
459,10,Ticks_ISO_T2_5,128,1,38,60,1224501416
459,10,Ticks_ISO_T2_5,129,5,42,127,1224529196
459,10,Ticks_ISO_T2_5,130,5,42,127,1225028972
459,10,Ticks_ISO_T2_5,131,1,38,71,1225052292
459,10,Ticks_ISO_T2_5,132,5,42,127,1225528816
459,10,Ticks_ISO_T2_5,133,1,38,61,1225546740
459,10,Ticks_ISO_T2_5,134,1,38,63,1226029336
459,10,Ticks_ISO_T2_5,135,5,42,127,1226032092
459,10,Ticks_ISO_T2_5,136,1,38,65,1226528808
459,10,Ticks_ISO_T2_5,137,5,42,127,1226531636
459,10,Ticks_ISO_T2_5,138,5,42,127,1227028872
459,10,Ticks_ISO_T2_5,139,1,38,69,1227040588
459,10,Ticks_ISO_T2_5,140,5,42,127,1227528940
459,10,Ticks_ISO_T2_5,141,1,38,66,1227530728
459,10,Ticks_ISO_T2_5,142,1,38,67,1228023136
459,10,Ticks_ISO_T2_5,143,5,42,127,1228029152
459,10,Ticks_ISO_T2_5,144,1,38,64,1228523352
459,10,Ticks_ISO_T2_5,145,5,42,127,1228529000
459,10,Ticks_ISO_T2_5,146,1,38,57,1229010036
459,10,Ticks_ISO_T2_5,147,5,42,127,1229028916
459,10,Ticks_ISO_T2_5,148,5,42,127,1229528396
459,10,Ticks_ISO_T2_5,149,1,38,61,1229537120
459,10,Ticks_ISO_T2_5,150,5,42,127,1230029212
459,10,Ticks_ISO_T2_5,151,1,38,62,1230030324
459,10,Ticks_ISO_T2_5,152,5,42,127,1230528756
459,10,Ticks_ISO_T2_5,153,1,38,64,1230529720
459,10,Ticks_ISO_T2_5,154,5,42,127,1231028820
459,10,Ticks_ISO_T2_5,155,1,38,65,1231032692
459,10,Ticks_ISO_T2_5,156,5,42,127,1231529192
459,10,Ticks_ISO_T2_5,157,1,38,65,1231550036
459,10,Ticks_ISO_T2_5,158,5,42,127,1232029036
459,10,Ticks_ISO_T2_5,159,1,38,63,1232041728
459,10,Ticks_ISO_T2_5,160,1,38,65,1232527120
459,10,Ticks_ISO_T2_5,161,5,42,127,1232529896
459,10,Ticks_ISO_T2_5,162,5,42,127,1233028676
459,10,Ticks_ISO_T2_5,163,1,38,60,1233041520
459,10,Ticks_ISO_T2_5,164,1,38,66,1233502072
459,10,Ticks_ISO_T2_5,165,5,42,127,1233529184
459,10,Ticks_ISO_T2_5,166,1,38,60,1234019196
459,10,Ticks_ISO_T2_5,167,5,42,127,1234028808
459,10,Ticks_ISO_T2_5,168,1,48,14,1234035216
459,10,Ticks_ISO_T2_5,169,1,38,58,1234498960
459,10,Ticks_ISO_T2_5,170,5,42,127,1234528616
459,10,Ticks_ISO_T2_5,171,1,38,63,1235010848
459,10,Ticks_ISO_T2_5,172,5,42,127,1235029432
459,10,Ticks_ISO_T2_5,173,5,42,127,1235529056
459,10,Ticks_ISO_T2_5,174,1,38,65,1235555136
459,10,Ticks_ISO_T2_5,175,5,42,127,1236028676
459,10,Ticks_ISO_T2_5,176,1,38,66,1236047352
459,10,Ticks_ISO_T2_5,177,1,48,14,1236062592
459,10,Ticks_ISO_T2_5,178,5,42,127,1236528400
459,10,Ticks_ISO_T2_5,179,1,38,60,1236554404
459,10,Ticks_ISO_T2_5,180,5,42,127,1237029440
459,10,Ticks_ISO_T2_5,181,1,38,60,1237062328
459,10,Ticks_ISO_T2_5,182,5,42,127,1237528908
459,10,Ticks_ISO_T2_5,183,1,38,58,1237540628
459,10,Ticks_ISO_T2_5,184,5,42,127,1238028752
459,10,Ticks_ISO_T2_5,185,1,38,59,1238038828
459,10,Ticks_ISO_T2_5,186,1,48,14,1238054588
459,10,Ticks_ISO_T2_5,187,5,42,127,1238529448
459,10,Ticks_ISO_T2_5,188,1,38,62,1238538924
459,10,Ticks_ISO_T2_5,189,5,42,127,1239029364
459,10,Ticks_ISO_T2_5,190,1,38,61,1239055148
459,10,Ticks_ISO_T2_5,191,1,38,60,1239492896
459,10,Ticks_ISO_T2_5,192,1,48,13,1239508284
459,10,Ticks_ISO_T2_5,193,5,42,127,1239528884
459,10,Ticks_ISO_T2_5,194,5,42,127,1240028632
459,10,Ticks_ISO_T2_5,195,1,38,62,1240031076
459,10,Ticks_ISO_T2_5,196,1,38,58,1240518416
459,10,Ticks_ISO_T2_5,197,5,42,127,1240529444
459,10,Ticks_ISO_T2_5,198,1,48,13,1240533832
459,10,Ticks_ISO_T2_5,199,5,42,127,1241028888
459,10,Ticks_ISO_T2_5,200,1,38,59,1241036640
459,10,Ticks_ISO_T2_5,201,1,48,13,1241051956
459,10,Ticks_ISO_T2_5,202,5,42,127,1241528536
459,10,Ticks_ISO_T2_5,203,1,38,62,1241530476
459,10,Ticks_ISO_T2_5,204,5,42,127,1242029500
459,10,Ticks_ISO_T2_5,205,1,38,68,1242039652
459,10,Ticks_ISO_T2_5,206,1,48,16,1242055116
459,10,Ticks_ISO_T2_5,207,1,38,61,1242526956
459,10,Ticks_ISO_T2_5,208,5,42,127,1242529664
459,10,Ticks_ISO_T2_5,209,5,42,127,1243028844
459,10,Ticks_ISO_T2_5,210,1,38,71,1243050512
459,10,Ticks_ISO_T2_5,211,5,42,127,1243528516
459,10,Ticks_ISO_T2_5,212,1,38,67,1243539064
459,10,Ticks_ISO_T2_5,213,5,42,127,1244029480
459,10,Ticks_ISO_T2_5,214,1,38,59,1244053192
459,10,Ticks_ISO_T2_5,215,1,38,62,1244506016
459,10,Ticks_ISO_T2_5,216,5,42,127,1244529092
459,10,Ticks_ISO_T2_5,217,5,42,127,1245028572
459,10,Ticks_ISO_T2_5,218,1,38,65,1245039168
459,10,Ticks_ISO_T2_5,219,5,42,127,1245528340
459,10,Ticks_ISO_T2_5,220,1,38,67,1245544392
459,10,Ticks_ISO_T2_5,221,5,42,127,1246029304
459,10,Ticks_ISO_T2_5,222,1,38,66,1246042820
459,10,Ticks_ISO_T2_5,223,5,42,127,1246528924
459,10,Ticks_ISO_T2_5,224,1,38,61,1246538696
459,10,Ticks_ISO_T2_5,225,1,48,15,1246554084
459,10,Ticks_ISO_T2_5,226,5,42,127,1247028720
459,10,Ticks_ISO_T2_5,227,1,38,62,1247073428
459,10,Ticks_ISO_T2_5,228,1,38,68,1247500624
459,10,Ticks_ISO_T2_5,229,5,42,127,1247529304
459,10,Ticks_ISO_T2_5,230,1,38,69,1247999492
459,10,Ticks_ISO_T2_5,231,5,42,127,1248029072
459,10,Ticks_ISO_T2_5,232,1,38,64,1248513772
459,10,Ticks_ISO_T2_5,233,5,42,127,1248528692
459,10,Ticks_ISO_T2_5,234,5,42,127,1249028396
459,10,Ticks_ISO_T2_5,235,1,38,70,1249054028
459,10,Ticks_ISO_T2_5,236,5,42,127,1249529136
459,10,Ticks_ISO_T2_5,237,1,38,65,1249539288
459,10,Ticks_ISO_T2_5,238,5,42,127,1250029280
459,10,Ticks_ISO_T2_5,239,1,38,65,1250037340
459,10,Ticks_ISO_T2_5,240,5,42,127,1250528604
459,10,Ticks_ISO_T2_5,241,1,38,66,1250570016
459,10,Ticks_ISO_T2_5,242,1,38,68,1251029272
459,10,Ticks_ISO_T2_5,243,5,42,127,1251032028
459,10,Ticks_ISO_T2_5,244,1,38,70,1251508204
459,10,Ticks_ISO_T2_5,245,5,42,127,1251529184
459,10,Ticks_ISO_T2_5,246,1,38,67,1252015456
459,10,Ticks_ISO_T2_5,247,5,42,127,1252028876
459,10,Ticks_ISO_T2_5,248,1,38,63,1252523228
459,10,Ticks_ISO_T2_5,249,5,42,127,1252528424
459,10,Ticks_ISO_T2_5,250,1,48,15,1252538872
459,10,Ticks_ISO_T2_5,251,5,42,127,1253029136
459,10,Ticks_ISO_T2_5,252,1,38,57,1253031148
459,10,Ticks_ISO_T2_5,253,1,48,14,1253047208
459,10,Ticks_ISO_T2_5,254,1,38,61,1253512576
459,10,Ticks_ISO_T2_5,255,1,48,14,1253528036
459,10,Ticks_ISO_T2_5,256,5,42,127,1253529680
459,10,Ticks_ISO_T2_5,257,1,38,62,1254016944
459,10,Ticks_ISO_T2_5,258,5,42,127,1254029020
459,10,Ticks_ISO_T2_5,259,1,48,14,1254033360
459,10,Ticks_ISO_T2_5,260,1,38,60,1254505012
459,10,Ticks_ISO_T2_5,261,5,42,127,1254529284
459,10,Ticks_ISO_T2_5,262,1,38,55,1255008448
459,10,Ticks_ISO_T2_5,263,5,42,127,1255029200
459,10,Ticks_ISO_T2_5,264,5,42,127,1255528752
459,10,Ticks_ISO_T2_5,265,5,42,127,1256028468
459,10,Ticks_ISO_T2_5,266,1,38,59,1256508024
459,10,Ticks_ISO_T2_5,267,1,48,14,1256523336
459,10,Ticks_ISO_T2_5,268,5,42,127,1256529204
459,10,Ticks_ISO_T2_5,269,5,42,127,1257028956
459,10,Ticks_ISO_T2_5,270,1,38,60,1257034768
459,10,Ticks_ISO_T2_5,271,1,48,14,1257049852
459,10,Ticks_ISO_T2_5,0,9999,9999,9999,1192526964
459,10,Ticks_ISO_T2_5,1,9999,9999,9999,1193026660
459,10,Ticks_ISO_T2_5,2,9999,9999,9999,1193526352
459,10,Ticks_ISO_T2_5,3,9999,9999,9999,1194027096
459,10,Ticks_ISO_T2_5,4,9999,9999,9999,1194526792
459,10,Ticks_ISO_T2_5,5,9999,9999,9999,1195026484
459,10,Ticks_ISO_T2_5,6,9999,9999,9999,1195526228
459,10,Ticks_ISO_T2_5,7,9999,9999,9999,1196026968
459,10,Ticks_ISO_T2_5,8,9999,9999,9999,1196526660
459,10,Ticks_ISO_T2_5,9,9999,9999,9999,1197026360
459,10,Ticks_ISO_T2_5,10,9999,9999,9999,1197526124
459,10,Ticks_ISO_T2_5,11,9999,9999,9999,1198026864
459,10,Ticks_ISO_T2_5,12,9999,9999,9999,1198526560
459,10,Ticks_ISO_T2_5,13,9999,9999,9999,1199026252
459,10,Ticks_ISO_T2_5,14,9999,9999,9999,1199526996
459,10,Ticks_ISO_T2_5,15,9999,9999,9999,1200026696
459,10,Ticks_ISO_T2_5,16,9999,9999,9999,1200526432
459,10,Ticks_ISO_T2_5,17,9999,9999,9999,1201026128
459,10,Ticks_ISO_T2_5,18,9999,9999,9999,1201526868
459,10,Ticks_ISO_T2_5,19,9999,9999,9999,1202026564
459,10,Ticks_ISO_T2_5,20,9999,9999,9999,1202526260
459,10,Ticks_ISO_T2_5,21,9999,9999,9999,1203027008
459,10,Ticks_ISO_T2_5,22,9999,9999,9999,1203526768
459,10,Ticks_ISO_T2_5,23,9999,9999,9999,1204026464
459,10,Ticks_ISO_T2_5,24,9999,9999,9999,1204526168
459,10,Ticks_ISO_T2_5,25,9999,9999,9999,1205026908
459,10,Ticks_ISO_T2_5,26,9999,9999,9999,1205526596
459,10,Ticks_ISO_T2_5,27,9999,9999,9999,1206026296
459,10,Ticks_ISO_T2_5,28,9999,9999,9999,1206527040
459,10,Ticks_ISO_T2_5,29,9999,9999,9999,1207026808
459,10,Ticks_ISO_T2_5,30,9999,9999,9999,1207526504
459,10,Ticks_ISO_T2_5,31,9999,9999,9999,1208026200
459,10,Ticks_ISO_T2_5,32,9999,9999,9999,1208526940
459,10,Ticks_ISO_T2_5,33,9999,9999,9999,1209026640
459,10,Ticks_ISO_T2_5,34,9999,9999,9999,1209526324
459,10,Ticks_ISO_T2_5,35,9999,9999,9999,1210027068
459,10,Ticks_ISO_T2_5,36,9999,9999,9999,1210526860
459,10,Ticks_ISO_T2_5,37,9999,9999,9999,1211026508
459,10,Ticks_ISO_T2_5,38,9999,9999,9999,1211526208
459,10,Ticks_ISO_T2_5,39,9999,9999,9999,1212026944
459,10,Ticks_ISO_T2_5,40,9999,9999,9999,1212526712
459,10,Ticks_ISO_T2_5,41,9999,9999,9999,1213026408
459,10,Ticks_ISO_T2_5,42,9999,9999,9999,1213526100
459,10,Ticks_ISO_T2_5,43,9999,9999,9999,1214026844
459,10,Ticks_ISO_T2_5,44,9999,9999,9999,1214526540
459,10,Ticks_ISO_T2_5,45,9999,9999,9999,1215026232
459,10,Ticks_ISO_T2_5,46,9999,9999,9999,1215526976
459,10,Ticks_ISO_T2_5,47,9999,9999,9999,1216026744
459,10,Ticks_ISO_T2_5,48,9999,9999,9999,1216526440
459,10,Ticks_ISO_T2_5,49,9999,9999,9999,1217026140
459,10,Ticks_ISO_T2_5,50,9999,9999,9999,1217526876
459,10,Ticks_ISO_T2_5,51,9999,9999,9999,1218026568
459,10,Ticks_ISO_T2_5,52,9999,9999,9999,1218526264
459,10,Ticks_ISO_T2_5,53,9999,9999,9999,1219027008
459,10,Ticks_ISO_T2_5,54,9999,9999,9999,1219526776
459,10,Ticks_ISO_T2_5,55,9999,9999,9999,1220026472
459,10,Ticks_ISO_T2_5,56,9999,9999,9999,1220526168
459,10,Ticks_ISO_T2_5,57,9999,9999,9999,1221026908
459,10,Ticks_ISO_T2_5,58,9999,9999,9999,1221526600
459,10,Ticks_ISO_T2_5,59,9999,9999,9999,1222026352
459,10,Ticks_ISO_T2_5,60,9999,9999,9999,1222527092
459,10,Ticks_ISO_T2_5,61,9999,9999,9999,1223026788
459,10,Ticks_ISO_T2_5,62,9999,9999,9999,1223526476
459,10,Ticks_ISO_T2_5,63,9999,9999,9999,1224026172
459,10,Ticks_ISO_T2_5,64,9999,9999,9999,1224526912
459,10,Ticks_ISO_T2_5,65,9999,9999,9999,1225026612
459,10,Ticks_ISO_T2_5,66,9999,9999,9999,1225526380
459,10,Ticks_ISO_T2_5,67,9999,9999,9999,1226027124
459,10,Ticks_ISO_T2_5,68,9999,9999,9999,1226526816
459,10,Ticks_ISO_T2_5,69,9999,9999,9999,1227026512
459,10,Ticks_ISO_T2_5,70,9999,9999,9999,1227526204
459,10,Ticks_ISO_T2_5,71,9999,9999,9999,1228026940
459,10,Ticks_ISO_T2_5,72,9999,9999,9999,1228526712
459,10,Ticks_ISO_T2_5,73,9999,9999,9999,1229026408
459,10,Ticks_ISO_T2_5,74,9999,9999,9999,1229526108
459,10,Ticks_ISO_T2_5,75,9999,9999,9999,1230026848
459,10,Ticks_ISO_T2_5,76,9999,9999,9999,1230526544
459,10,Ticks_ISO_T2_5,77,9999,9999,9999,1231026236
459,10,Ticks_ISO_T2_5,78,9999,9999,9999,1231526980
459,10,Ticks_ISO_T2_5,79,9999,9999,9999,1232026676
459,10,Ticks_ISO_T2_5,80,9999,9999,9999,1232526428
459,10,Ticks_ISO_T2_5,81,9999,9999,9999,1233026164
459,10,Ticks_ISO_T2_5,82,9999,9999,9999,1233526900
459,10,Ticks_ISO_T2_5,83,9999,9999,9999,1234026596
459,10,Ticks_ISO_T2_5,84,9999,9999,9999,1234526332
459,10,Ticks_ISO_T2_5,85,9999,9999,9999,1235026996
459,10,Ticks_ISO_T2_5,86,9999,9999,9999,1235526772
459,10,Ticks_ISO_T2_5,87,9999,9999,9999,1236026464
459,10,Ticks_ISO_T2_5,88,9999,9999,9999,1236526188
459,10,Ticks_ISO_T2_5,89,9999,9999,9999,1237026928
459,10,Ticks_ISO_T2_5,90,9999,9999,9999,1237526620
459,10,Ticks_ISO_T2_5,91,9999,9999,9999,1238026316
459,10,Ticks_ISO_T2_5,92,9999,9999,9999,1238527088
459,10,Ticks_ISO_T2_5,93,9999,9999,9999,1239026780
459,10,Ticks_ISO_T2_5,94,9999,9999,9999,1239526452
459,10,Ticks_ISO_T2_5,95,9999,9999,9999,1240026196
459,10,Ticks_ISO_T2_5,96,9999,9999,9999,1240526936
459,10,Ticks_ISO_T2_5,97,9999,9999,9999,1241026676
459,10,Ticks_ISO_T2_5,98,9999,9999,9999,1241526324
459,10,Ticks_ISO_T2_5,99,9999,9999,9999,1242027068
459,10,Ticks_ISO_T2_5,100,9999,9999,9999,1242526824
459,10,Ticks_ISO_T2_5,101,9999,9999,9999,1243026484
459,10,Ticks_ISO_T2_5,102,9999,9999,9999,1243526228
459,10,Ticks_ISO_T2_5,103,9999,9999,9999,1244026968
459,10,Ticks_ISO_T2_5,104,9999,9999,9999,1244526660
459,10,Ticks_ISO_T2_5,105,9999,9999,9999,1245026360
459,10,Ticks_ISO_T2_5,106,9999,9999,9999,1245526128
459,10,Ticks_ISO_T2_5,107,9999,9999,9999,1246026868
459,10,Ticks_ISO_T2_5,108,9999,9999,9999,1246526564
459,10,Ticks_ISO_T2_5,109,9999,9999,9999,1247026284
459,10,Ticks_ISO_T2_5,110,9999,9999,9999,1247527016
459,10,Ticks_ISO_T2_5,111,9999,9999,9999,1248026712
459,10,Ticks_ISO_T2_5,112,9999,9999,9999,1248526408
459,10,Ticks_ISO_T2_5,113,9999,9999,9999,1249026108
459,10,Ticks_ISO_T2_5,114,9999,9999,9999,1249526852
459,10,Ticks_ISO_T2_5,115,9999,9999,9999,1250026548
459,10,Ticks_ISO_T2_5,116,9999,9999,9999,1250526316
459,10,Ticks_ISO_T2_5,117,9999,9999,9999,1251027056
459,10,Ticks_ISO_T2_5,118,9999,9999,9999,1251526748
459,10,Ticks_ISO_T2_5,119,9999,9999,9999,1252026444
459,10,Ticks_ISO_T2_5,120,9999,9999,9999,1252526136
459,10,Ticks_ISO_T2_5,121,9999,9999,9999,1253026924
459,10,Ticks_ISO_T2_5,122,9999,9999,9999,1253526652
459,10,Ticks_ISO_T2_5,123,9999,9999,9999,1254026364
459,10,Ticks_ISO_T2_5,124,9999,9999,9999,1254527072
459,10,Ticks_ISO_T2_5,125,9999,9999,9999,1255026764
459,10,Ticks_ISO_T2_5,126,9999,9999,9999,1255526468
459,10,Ticks_ISO_T2_5,127,9999,9999,9999,1256026184
459,10,Ticks_ISO_T2_5,128,9999,9999,9999,1256526920
459,10,Ticks_ISO_T2_5,129,9999,9999,9999,1257026668
4510,9,Ticks_ISO_T2_8,0,5,42,127,1268843916
4510,9,Ticks_ISO_T2_8,1,1,38,69,1269532184
4510,9,Ticks_ISO_T2_8,2,5,42,127,1269643576
4510,9,Ticks_ISO_T2_8,3,1,38,60,1270353984
4510,9,Ticks_ISO_T2_8,4,5,42,127,1270444320
4510,9,Ticks_ISO_T2_8,5,1,38,62,1271219860
4510,9,Ticks_ISO_T2_8,6,5,42,127,1271244204
4510,9,Ticks_ISO_T2_8,7,5,42,127,1272043796
4510,9,Ticks_ISO_T2_8,8,1,38,66,1272045208
4510,9,Ticks_ISO_T2_8,9,1,38,75,1272835260
4510,9,Ticks_ISO_T2_8,10,5,42,127,1272843596
4510,9,Ticks_ISO_T2_8,11,1,38,67,1273630956
4510,9,Ticks_ISO_T2_8,12,5,42,127,1273644304
4510,9,Ticks_ISO_T2_8,13,5,42,127,1274444264
4510,9,Ticks_ISO_T2_8,14,1,38,62,1274461672
4510,9,Ticks_ISO_T2_8,15,5,42,127,1275243848
4510,9,Ticks_ISO_T2_8,16,1,38,60,1275257588
4510,9,Ticks_ISO_T2_8,17,1,38,77,1276037932
4510,9,Ticks_ISO_T2_8,18,5,42,127,1276043504
4510,9,Ticks_ISO_T2_8,19,5,42,127,1276844388
4510,9,Ticks_ISO_T2_8,20,1,38,62,1276852892
4510,9,Ticks_ISO_T2_8,21,5,42,127,1277644272
4510,9,Ticks_ISO_T2_8,22,1,38,62,1277655544
4510,9,Ticks_ISO_T2_8,23,5,42,127,1278443784
4510,9,Ticks_ISO_T2_8,24,1,38,63,1278456400
4510,9,Ticks_ISO_T2_8,25,5,42,127,1279243672
4510,9,Ticks_ISO_T2_8,26,1,38,68,1279259732
4510,9,Ticks_ISO_T2_8,27,5,42,127,1280044300
4510,9,Ticks_ISO_T2_8,28,1,38,59,1280068668
4510,9,Ticks_ISO_T2_8,29,1,38,57,1280811308
4510,9,Ticks_ISO_T2_8,30,5,42,127,1280844252
4510,9,Ticks_ISO_T2_8,31,1,38,70,1281611116
4510,9,Ticks_ISO_T2_8,32,5,42,127,1281644136
4510,9,Ticks_ISO_T2_8,33,5,42,127,1282443576
4510,9,Ticks_ISO_T2_8,34,1,38,63,1282447544
4510,9,Ticks_ISO_T2_8,35,1,38,58,1283225944
4510,9,Ticks_ISO_T2_8,36,5,42,127,1283244376
4510,9,Ticks_ISO_T2_8,37,1,38,59,1284035172
4510,9,Ticks_ISO_T2_8,38,5,42,127,1284044108
4510,9,Ticks_ISO_T2_8,39,1,38,53,1284827876
4510,9,Ticks_ISO_T2_8,40,5,42,127,1284844068
4510,9,Ticks_ISO_T2_8,41,5,42,127,1285643732
4510,9,Ticks_ISO_T2_8,42,1,38,65,1285661660
4510,9,Ticks_ISO_T2_8,43,5,42,127,1286444440
4510,9,Ticks_ISO_T2_8,44,1,38,61,1286449280
4510,9,Ticks_ISO_T2_8,45,1,38,56,1287224084
4510,9,Ticks_ISO_T2_8,46,5,42,127,1287244240
4510,9,Ticks_ISO_T2_8,47,1,38,51,1288008484
4510,9,Ticks_ISO_T2_8,48,5,42,127,1288043972
4510,9,Ticks_ISO_T2_8,49,5,42,127,1288843564
4510,9,Ticks_ISO_T2_8,50,1,38,57,1288850072
4510,9,Ticks_ISO_T2_8,51,5,42,127,1289644296
4510,9,Ticks_ISO_T2_8,52,1,38,57,1289649360
4510,9,Ticks_ISO_T2_8,53,1,38,61,1290440920
4510,9,Ticks_ISO_T2_8,54,5,42,127,1290444168
4510,9,Ticks_ISO_T2_8,55,1,38,57,1291218964
4510,9,Ticks_ISO_T2_8,56,5,42,127,1291243976
4510,9,Ticks_ISO_T2_8,57,1,38,58,1292024748
4510,9,Ticks_ISO_T2_8,58,5,42,127,1292043636
4510,9,Ticks_ISO_T2_8,59,1,38,58,1292815060
4510,9,Ticks_ISO_T2_8,60,5,42,127,1292844488
4510,9,Ticks_ISO_T2_8,61,5,42,127,1293644232
4510,9,Ticks_ISO_T2_8,62,1,38,65,1293649520
4510,9,Ticks_ISO_T2_8,63,1,38,50,1294439960
4510,9,Ticks_ISO_T2_8,64,5,42,127,1294443736
4510,9,Ticks_ISO_T2_8,65,1,38,65,1295241884
4510,9,Ticks_ISO_T2_8,66,5,42,127,1295244888
4510,9,Ticks_ISO_T2_8,67,5,42,127,1296044432
4510,9,Ticks_ISO_T2_8,68,1,38,67,1296064752
4510,9,Ticks_ISO_T2_8,69,1,38,61,1296782864
4510,9,Ticks_ISO_T2_8,70,5,42,127,1296844156
4510,9,Ticks_ISO_T2_8,71,1,38,69,1297616036
4510,9,Ticks_ISO_T2_8,72,5,42,127,1297643816
4510,9,Ticks_ISO_T2_8,73,5,42,127,1298443556
4510,9,Ticks_ISO_T2_8,74,1,38,62,1298492228
4510,9,Ticks_ISO_T2_8,75,1,38,58,1299234572
4510,9,Ticks_ISO_T2_8,76,5,42,127,1299244332
4510,9,Ticks_ISO_T2_8,77,5,42,127,1300044148
4510,9,Ticks_ISO_T2_8,78,1,38,66,1300051008
4510,9,Ticks_ISO_T2_8,79,5,42,127,1300843880
4510,9,Ticks_ISO_T2_8,80,1,38,72,1300861136
4510,9,Ticks_ISO_T2_8,81,5,42,127,1301643612
4510,9,Ticks_ISO_T2_8,82,1,38,67,1301658620
4510,9,Ticks_ISO_T2_8,83,5,42,127,1302444616
4510,9,Ticks_ISO_T2_8,84,1,38,64,1302454092
4510,9,Ticks_ISO_T2_8,85,1,38,61,1303216860
4510,9,Ticks_ISO_T2_8,86,5,42,127,1303244120
4510,9,Ticks_ISO_T2_8,87,1,38,65,1304007464
4510,9,Ticks_ISO_T2_8,88,5,42,127,1304043928
4510,9,Ticks_ISO_T2_8,89,1,38,65,1304796952
4510,9,Ticks_ISO_T2_8,90,5,42,127,1304843584
4510,9,Ticks_ISO_T2_8,91,1,38,52,1305624212
4510,9,Ticks_ISO_T2_8,92,5,42,127,1305644588
4510,9,Ticks_ISO_T2_8,93,1,38,66,1306436432
4510,9,Ticks_ISO_T2_8,94,5,42,127,1306444100
4510,9,Ticks_ISO_T2_8,95,1,38,67,1307208872
4510,9,Ticks_ISO_T2_8,96,5,42,127,1307243908
4510,9,Ticks_ISO_T2_8,97,1,38,61,1308031564
4510,9,Ticks_ISO_T2_8,98,5,42,127,1308043568
4510,9,Ticks_ISO_T2_8,99,5,42,127,1308844576
4510,9,Ticks_ISO_T2_8,100,1,38,54,1308852336
4510,9,Ticks_ISO_T2_8,101,1,38,62,1309634544
4510,9,Ticks_ISO_T2_8,102,5,42,127,1309644080
4510,9,Ticks_ISO_T2_8,103,5,42,127,1310443892
4510,9,Ticks_ISO_T2_8,104,1,38,74,1310471020
4510,9,Ticks_ISO_T2_8,105,1,38,59,1311213440
4510,9,Ticks_ISO_T2_8,106,5,42,127,1311243544
4510,9,Ticks_ISO_T2_8,107,5,42,127,1312044556
4510,9,Ticks_ISO_T2_8,108,1,38,65,1312070040
4510,9,Ticks_ISO_T2_8,109,5,42,127,1312844140
4510,9,Ticks_ISO_T2_8,110,1,38,75,1312876276
4510,9,Ticks_ISO_T2_8,111,5,42,127,1313644020
4510,9,Ticks_ISO_T2_8,112,1,38,63,1313657540
4510,9,Ticks_ISO_T2_8,113,5,42,127,1314443680
4510,9,Ticks_ISO_T2_8,114,1,38,59,1314486316
4510,9,Ticks_ISO_T2_8,115,1,38,67,1315235996
4510,9,Ticks_ISO_T2_8,116,5,42,127,1315244332
4510,9,Ticks_ISO_T2_8,117,1,38,70,1316033712
4510,9,Ticks_ISO_T2_8,118,5,42,127,1316044364
4510,9,Ticks_ISO_T2_8,119,5,42,127,1316844100
4510,9,Ticks_ISO_T2_8,120,1,38,71,1316852160
4510,9,Ticks_ISO_T2_8,121,5,42,127,1317643612
4510,9,Ticks_ISO_T2_8,122,1,38,67,1317667448
4510,9,Ticks_ISO_T2_8,123,5,42,127,1318444316
4510,9,Ticks_ISO_T2_8,124,1,38,70,1318503380
4510,9,Ticks_ISO_T2_8,125,1,38,68,1319165248
4510,9,Ticks_ISO_T2_8,126,5,42,127,1319244268
4510,9,Ticks_ISO_T2_8,127,5,42,127,1320044008
4510,9,Ticks_ISO_T2_8,128,1,38,70,1320047128
4510,9,Ticks_ISO_T2_8,129,5,42,127,1320843664
4510,9,Ticks_ISO_T2_8,130,1,38,73,1320865432
4510,9,Ticks_ISO_T2_8,131,1,38,68,1321630968
4510,9,Ticks_ISO_T2_8,132,5,42,127,1321644540
4510,9,Ticks_ISO_T2_8,133,1,38,73,1322440124
4510,9,Ticks_ISO_T2_8,134,5,42,127,1322444196
4510,9,Ticks_ISO_T2_8,135,1,38,62,1323230808
4510,9,Ticks_ISO_T2_8,136,5,42,127,1323244008
4510,9,Ticks_ISO_T2_8,137,1,38,66,1324014160
4510,9,Ticks_ISO_T2_8,138,5,42,127,1324043668
4510,9,Ticks_ISO_T2_8,139,1,38,66,1324828184
4510,9,Ticks_ISO_T2_8,140,5,42,127,1324844448
4510,9,Ticks_ISO_T2_8,141,5,42,127,1325644112
4510,9,Ticks_ISO_T2_8,142,1,38,59,1325645300
4510,9,Ticks_ISO_T2_8,143,1,38,59,1326440064
4510,9,Ticks_ISO_T2_8,144,5,42,127,1326443988
4510,9,Ticks_ISO_T2_8,145,1,38,61,1327216608
4510,9,Ticks_ISO_T2_8,146,5,42,127,1327243796
4510,9,Ticks_ISO_T2_8,147,1,38,59,1328029060
4510,9,Ticks_ISO_T2_8,148,5,42,127,1328044352
4510,9,Ticks_ISO_T2_8,149,5,42,127,1328844092
4510,9,Ticks_ISO_T2_8,150,1,38,59,1328849676
4510,9,Ticks_ISO_T2_8,151,1,38,59,1329606988
4510,9,Ticks_ISO_T2_8,152,5,42,127,1329643968
4510,9,Ticks_ISO_T2_8,153,1,38,66,1330443256
4510,9,Ticks_ISO_T2_8,154,5,42,127,1330445944
4510,9,Ticks_ISO_T2_8,155,5,42,127,1331244416
4510,9,Ticks_ISO_T2_8,156,1,38,67,1331265564
4510,9,Ticks_ISO_T2_8,157,5,42,127,1332044076
4510,9,Ticks_ISO_T2_8,158,1,38,70,1332099024
4510,9,Ticks_ISO_T2_8,159,5,42,127,1332844028
4510,9,Ticks_ISO_T2_8,160,1,38,62,1332892804
4510,9,Ticks_ISO_T2_8,161,1,38,65,1333641104
4510,9,Ticks_ISO_T2_8,162,5,42,127,1333644148
4510,9,Ticks_ISO_T2_8,163,1,38,65,1334429788
4510,9,Ticks_ISO_T2_8,164,5,42,127,1334444480
4510,9,Ticks_ISO_T2_8,165,5,42,127,1335244072
4510,9,Ticks_ISO_T2_8,166,1,38,64,1335257144
4510,9,Ticks_ISO_T2_8,167,5,42,127,1336043808
4510,9,Ticks_ISO_T2_8,168,1,38,72,1336049096
4510,9,Ticks_ISO_T2_8,169,1,38,59,1336837812
4510,9,Ticks_ISO_T2_8,170,5,42,127,1336843828
4510,9,Ticks_ISO_T2_8,171,5,42,127,1337644616
4510,9,Ticks_ISO_T2_8,172,1,38,57,1337674512
4510,9,Ticks_ISO_T2_8,173,1,38,54,1338430248
4510,9,Ticks_ISO_T2_8,174,5,42,127,1338444120
4510,9,Ticks_ISO_T2_8,175,1,38,65,1339201484
4510,9,Ticks_ISO_T2_8,176,5,42,127,1339243780
4510,9,Ticks_ISO_T2_8,177,1,38,53,1340035104
4510,9,Ticks_ISO_T2_8,178,5,42,127,1340043836
4510,9,Ticks_ISO_T2_8,179,1,38,67,1340766696
4510,9,Ticks_ISO_T2_8,180,5,42,127,1340844320
4510,9,Ticks_ISO_T2_8,181,1,38,56,1341644580
4510,9,Ticks_ISO_T2_8,182,5,42,127,1341646896
4510,9,Ticks_ISO_T2_8,183,5,42,127,1342443940
4510,9,Ticks_ISO_T2_8,184,1,38,50,1342459176
4510,9,Ticks_ISO_T2_8,185,1,38,61,1343231960
4510,9,Ticks_ISO_T2_8,186,5,42,127,1343243744
4510,9,Ticks_ISO_T2_8,187,1,38,56,1343988392
4510,9,Ticks_ISO_T2_8,188,5,42,127,1344044524
4510,9,Ticks_ISO_T2_8,189,1,38,59,1344816020
4510,9,Ticks_ISO_T2_8,190,5,42,127,1344844328
4510,9,Ticks_ISO_T2_8,191,5,42,127,1345643848
4510,9,Ticks_ISO_T2_8,192,1,38,60,1345691268
4510,9,Ticks_ISO_T2_8,193,1,38,54,1346436436
4510,9,Ticks_ISO_T2_8,194,5,42,127,1346443524
4510,9,Ticks_ISO_T2_8,195,1,38,55,1347218768
4510,9,Ticks_ISO_T2_8,196,5,42,127,1347244304
4510,9,Ticks_ISO_T2_8,197,1,38,54,1348026200
4510,9,Ticks_ISO_T2_8,198,5,42,127,1348044412
4510,9,Ticks_ISO_T2_8,199,1,38,62,1348825784
4510,9,Ticks_ISO_T2_8,200,5,42,127,1348843772
4510,9,Ticks_ISO_T2_8,201,1,38,60,1349621552
4510,9,Ticks_ISO_T2_8,202,5,42,127,1349643580
4510,9,Ticks_ISO_T2_8,203,1,38,47,1350438788
4510,9,Ticks_ISO_T2_8,204,5,42,127,1350444284
4510,9,Ticks_ISO_T2_8,205,5,42,127,1351244248
4510,9,Ticks_ISO_T2_8,206,1,38,57,1351263896
4510,9,Ticks_ISO_T2_8,207,1,38,48,1352004596
4510,9,Ticks_ISO_T2_8,208,5,42,127,1352043900
4510,9,Ticks_ISO_T2_8,209,5,42,127,1352843592
4510,9,Ticks_ISO_T2_8,210,1,38,54,1352854864
4510,9,Ticks_ISO_T2_8,211,1,38,48,1353608408
4510,9,Ticks_ISO_T2_8,212,5,42,127,1353644364
4510,9,Ticks_ISO_T2_8,213,5,42,127,1354444028
4510,9,Ticks_ISO_T2_8,214,1,38,60,1354468840
4510,9,Ticks_ISO_T2_8,215,1,38,59,1355234820
4510,9,Ticks_ISO_T2_8,216,5,42,127,1355244052
4510,9,Ticks_ISO_T2_8,217,1,38,56,1356024156
4510,9,Ticks_ISO_T2_8,218,5,42,127,1356043564
4510,9,Ticks_ISO_T2_8,219,1,38,59,1356835188
4510,9,Ticks_ISO_T2_8,220,5,42,127,1356844348
4510,9,Ticks_ISO_T2_8,221,5,42,127,1357644160
4510,9,Ticks_ISO_T2_8,222,1,38,60,1357661868
4510,9,Ticks_ISO_T2_8,223,5,42,127,1358444116
4510,9,Ticks_ISO_T2_8,224,1,38,53,1358470500
4510,9,Ticks_ISO_T2_8,225,1,38,50,1359220100
4510,9,Ticks_ISO_T2_8,226,5,42,127,1359243644
4510,9,Ticks_ISO_T2_8,227,1,38,51,1360025464
4510,9,Ticks_ISO_T2_8,228,5,42,127,1360044424
4510,9,Ticks_ISO_T2_8,229,1,38,61,1360814580
4510,9,Ticks_ISO_T2_8,230,5,42,127,1360844008
4510,9,Ticks_ISO_T2_8,231,1,38,54,1361625080
4510,9,Ticks_ISO_T2_8,232,5,42,127,1361643816
4510,9,Ticks_ISO_T2_8,233,1,38,51,1362410980
4510,9,Ticks_ISO_T2_8,234,5,42,127,1362443700
4510,9,Ticks_ISO_T2_8,235,1,38,56,1363236068
4510,9,Ticks_ISO_T2_8,236,5,42,127,1363244328
4510,9,Ticks_ISO_T2_8,237,1,38,60,1364026452
4510,9,Ticks_ISO_T2_8,238,5,42,127,1364044064
4510,9,Ticks_ISO_T2_8,239,1,38,54,1364787220
4510,9,Ticks_ISO_T2_8,0,9999,9999,9999,1268841552
4510,9,Ticks_ISO_T2_8,1,9999,9999,9999,1269641288
4510,9,Ticks_ISO_T2_8,2,9999,9999,9999,1270442032
4510,9,Ticks_ISO_T2_8,3,9999,9999,9999,1271241844
4510,9,Ticks_ISO_T2_8,4,9999,9999,9999,1272041584
4510,9,Ticks_ISO_T2_8,5,9999,9999,9999,1272841308
4510,9,Ticks_ISO_T2_8,6,9999,9999,9999,1273642088
4510,9,Ticks_ISO_T2_8,7,9999,9999,9999,1274441828
4510,9,Ticks_ISO_T2_8,8,9999,9999,9999,1275241560
4510,9,Ticks_ISO_T2_8,9,9999,9999,9999,1276041288
4510,9,Ticks_ISO_T2_8,10,9999,9999,9999,1276842100
4510,9,Ticks_ISO_T2_8,11,9999,9999,9999,1277641836
4510,9,Ticks_ISO_T2_8,12,9999,9999,9999,1278441572
4510,9,Ticks_ISO_T2_8,13,9999,9999,9999,1279241308
4510,9,Ticks_ISO_T2_8,14,9999,9999,9999,1280042088
4510,9,Ticks_ISO_T2_8,15,9999,9999,9999,1280841816
4510,9,Ticks_ISO_T2_8,16,9999,9999,9999,1281641548
4510,9,Ticks_ISO_T2_8,17,9999,9999,9999,1282441288
4510,9,Ticks_ISO_T2_8,18,9999,9999,9999,1283242088
4510,9,Ticks_ISO_T2_8,19,9999,9999,9999,1284041820
4510,9,Ticks_ISO_T2_8,20,9999,9999,9999,1284841556
4510,9,Ticks_ISO_T2_8,21,9999,9999,9999,1285641296
4510,9,Ticks_ISO_T2_8,22,9999,9999,9999,1286442076
4510,9,Ticks_ISO_T2_8,23,9999,9999,9999,1287241804
4510,9,Ticks_ISO_T2_8,24,9999,9999,9999,1288041536
4510,9,Ticks_ISO_T2_8,25,9999,9999,9999,1288841276
4510,9,Ticks_ISO_T2_8,26,9999,9999,9999,1289642080
4510,9,Ticks_ISO_T2_8,27,9999,9999,9999,1290441808
4510,9,Ticks_ISO_T2_8,28,9999,9999,9999,1291241540
4510,9,Ticks_ISO_T2_8,29,9999,9999,9999,1292041276
4510,9,Ticks_ISO_T2_8,30,9999,9999,9999,1292842052
4510,9,Ticks_ISO_T2_8,31,9999,9999,9999,1293641796
4510,9,Ticks_ISO_T2_8,32,9999,9999,9999,1294441524
4510,9,Ticks_ISO_T2_8,33,9999,9999,9999,1295241280
4510,9,Ticks_ISO_T2_8,34,9999,9999,9999,1296042068
4510,9,Ticks_ISO_T2_8,35,9999,9999,9999,1296841796
4510,9,Ticks_ISO_T2_8,36,9999,9999,9999,1297641528
4510,9,Ticks_ISO_T2_8,37,9999,9999,9999,1298441268
4510,9,Ticks_ISO_T2_8,38,9999,9999,9999,1299242044
4510,9,Ticks_ISO_T2_8,39,9999,9999,9999,1300041784
4510,9,Ticks_ISO_T2_8,40,9999,9999,9999,1300841592
4510,9,Ticks_ISO_T2_8,41,9999,9999,9999,1301641324
4510,9,Ticks_ISO_T2_8,42,9999,9999,9999,1302442104
4510,9,Ticks_ISO_T2_8,43,9999,9999,9999,1303241832
4510,9,Ticks_ISO_T2_8,44,9999,9999,9999,1304041564
4510,9,Ticks_ISO_T2_8,45,9999,9999,9999,1304841296
4510,9,Ticks_ISO_T2_8,46,9999,9999,9999,1305642076
4510,9,Ticks_ISO_T2_8,47,9999,9999,9999,1306441808
4510,9,Ticks_ISO_T2_8,48,9999,9999,9999,1307241544
4510,9,Ticks_ISO_T2_8,49,9999,9999,9999,1308041280
4510,9,Ticks_ISO_T2_8,50,9999,9999,9999,1308842064
4510,9,Ticks_ISO_T2_8,51,9999,9999,9999,1309641792
4510,9,Ticks_ISO_T2_8,52,9999,9999,9999,1310441532
4510,9,Ticks_ISO_T2_8,53,9999,9999,9999,1311241332
4510,9,Ticks_ISO_T2_8,54,9999,9999,9999,1312042044
4510,9,Ticks_ISO_T2_8,55,9999,9999,9999,1312841776
4510,9,Ticks_ISO_T2_8,56,9999,9999,9999,1313641584
4510,9,Ticks_ISO_T2_8,57,9999,9999,9999,1314441316
4510,9,Ticks_ISO_T2_8,58,9999,9999,9999,1315242044
4510,9,Ticks_ISO_T2_8,59,9999,9999,9999,1316041776
4510,9,Ticks_ISO_T2_8,60,9999,9999,9999,1316841592
4510,9,Ticks_ISO_T2_8,61,9999,9999,9999,1317641324
4510,9,Ticks_ISO_T2_8,62,9999,9999,9999,1318442104
4510,9,Ticks_ISO_T2_8,63,9999,9999,9999,1319241832
4510,9,Ticks_ISO_T2_8,64,9999,9999,9999,1320041572
4510,9,Ticks_ISO_T2_8,65,9999,9999,9999,1320841304
4510,9,Ticks_ISO_T2_8,66,9999,9999,9999,1321642100
4510,9,Ticks_ISO_T2_8,67,9999,9999,9999,1322441836
4510,9,Ticks_ISO_T2_8,68,9999,9999,9999,1323241568
4510,9,Ticks_ISO_T2_8,69,9999,9999,9999,1324041304
4510,9,Ticks_ISO_T2_8,70,9999,9999,9999,1324842084
4510,9,Ticks_ISO_T2_8,71,9999,9999,9999,1325641824
4510,9,Ticks_ISO_T2_8,72,9999,9999,9999,1326441552
4510,9,Ticks_ISO_T2_8,73,9999,9999,9999,1327241284
4510,9,Ticks_ISO_T2_8,74,9999,9999,9999,1328042064
4510,9,Ticks_ISO_T2_8,75,9999,9999,9999,1328841804
4510,9,Ticks_ISO_T2_8,76,9999,9999,9999,1329641532
4510,9,Ticks_ISO_T2_8,77,9999,9999,9999,1330441272
4510,9,Ticks_ISO_T2_8,78,9999,9999,9999,1331242052
4510,9,Ticks_ISO_T2_8,79,9999,9999,9999,1332041788
4510,9,Ticks_ISO_T2_8,80,9999,9999,9999,1332841592
4510,9,Ticks_ISO_T2_8,81,9999,9999,9999,1333641320
4510,9,Ticks_ISO_T2_8,82,9999,9999,9999,1334442044
4510,9,Ticks_ISO_T2_8,83,9999,9999,9999,1335241784
4510,9,Ticks_ISO_T2_8,84,9999,9999,9999,1336041592
4510,9,Ticks_ISO_T2_8,85,9999,9999,9999,1336841320
4510,9,Ticks_ISO_T2_8,86,9999,9999,9999,1337642104
4510,9,Ticks_ISO_T2_8,87,9999,9999,9999,1338441832
4510,9,Ticks_ISO_T2_8,88,9999,9999,9999,1339241568
4510,9,Ticks_ISO_T2_8,89,9999,9999,9999,1340041300
4510,9,Ticks_ISO_T2_8,90,9999,9999,9999,1340842032
4510,9,Ticks_ISO_T2_8,91,9999,9999,9999,1341641844
4510,9,Ticks_ISO_T2_8,92,9999,9999,9999,1342441576
4510,9,Ticks_ISO_T2_8,93,9999,9999,9999,1343241304
4510,9,Ticks_ISO_T2_8,94,9999,9999,9999,1344042088
4510,9,Ticks_ISO_T2_8,95,9999,9999,9999,1344841820
4510,9,Ticks_ISO_T2_8,96,9999,9999,9999,1345641560
4510,9,Ticks_ISO_T2_8,97,9999,9999,9999,1346441284
4510,9,Ticks_ISO_T2_8,98,9999,9999,9999,1347242092
4510,9,Ticks_ISO_T2_8,99,9999,9999,9999,1348041824
4510,9,Ticks_ISO_T2_8,100,9999,9999,9999,1348841556
4510,9,Ticks_ISO_T2_8,101,9999,9999,9999,1349641292
4510,9,Ticks_ISO_T2_8,102,9999,9999,9999,1350442072
4510,9,Ticks_ISO_T2_8,103,9999,9999,9999,1351241812
4510,9,Ticks_ISO_T2_8,104,9999,9999,9999,1352041540
4510,9,Ticks_ISO_T2_8,105,9999,9999,9999,1352841276
4510,9,Ticks_ISO_T2_8,106,9999,9999,9999,1353642076
4510,9,Ticks_ISO_T2_8,107,9999,9999,9999,1354441816
4510,9,Ticks_ISO_T2_8,108,9999,9999,9999,1355241544
4510,9,Ticks_ISO_T2_8,109,9999,9999,9999,1356041276
4510,9,Ticks_ISO_T2_8,110,9999,9999,9999,1356842060
4510,9,Ticks_ISO_T2_8,111,9999,9999,9999,1357641800
4510,9,Ticks_ISO_T2_8,112,9999,9999,9999,1358441532
4510,9,Ticks_ISO_T2_8,113,9999,9999,9999,1359241332
4510,9,Ticks_ISO_T2_8,114,9999,9999,9999,1360042064
4510,9,Ticks_ISO_T2_8,115,9999,9999,9999,1360841796
4510,9,Ticks_ISO_T2_8,116,9999,9999,9999,1361641528
4510,9,Ticks_ISO_T2_8,117,9999,9999,9999,1362441336
4510,9,Ticks_ISO_T2_8,118,9999,9999,9999,1363242040
4510,9,Ticks_ISO_T2_8,119,9999,9999,9999,1364041776
4511,25,Jits_Pract_5,0,5,56,103,1417334212
4511,25,Jits_Pract_5,1,5,63,98,1417337532
4511,25,Jits_Pract_5,2,5,80,127,1417340428
4511,25,Jits_Pract_5,0,5,56,103,1417833788
4511,25,Jits_Pract_5,1,5,63,98,1417837112
4511,25,Jits_Pract_5,2,5,80,127,1417840228
4511,25,Jits_Pract_5,0,5,56,103,1418333604
4511,25,Jits_Pract_5,1,5,80,127,1418343876
4511,25,Jits_Pract_5,2,5,63,98,1418364480
4511,25,Jits_Pract_5,0,5,63,98,1418794312
4511,25,Jits_Pract_5,1,5,80,127,1418824212
4511,25,Jits_Pract_5,2,5,56,103,1418834336
4511,25,Jits_Pract_5,0,1,38,27,1419309212
4511,25,Jits_Pract_5,1,5,80,127,1419353448
4511,25,Jits_Pract_5,2,5,56,103,1419363644
4511,25,Jits_Pract_5,3,5,63,98,1419394292
4511,25,Jits_Pract_5,0,5,63,98,1419844004
4511,25,Jits_Pract_5,1,5,56,103,1419873608
4511,25,Jits_Pract_5,2,5,80,127,1419883876
4511,25,Jits_Pract_5,3,1,48,32,1419970240
4511,25,Jits_Pract_5,0,5,56,103,1420293500
4511,25,Jits_Pract_5,1,5,63,98,1420343556
4511,25,Jits_Pract_5,2,5,80,127,1420364312
4511,25,Jits_Pract_5,0,5,80,127,1420794144
4511,25,Jits_Pract_5,1,5,63,98,1420844424
4511,25,Jits_Pract_5,2,1,48,62,1420864028
4511,25,Jits_Pract_5,3,5,56,103,1420884204
4511,25,Jits_Pract_5,0,5,56,103,1421294224
4511,25,Jits_Pract_5,1,5,63,98,1421323680
4511,25,Jits_Pract_5,2,1,48,61,1421364180
4511,25,Jits_Pract_5,3,5,80,127,1421394248
4511,25,Jits_Pract_5,0,1,48,59,1421793488
4511,25,Jits_Pract_5,1,5,56,103,1421795272
4511,25,Jits_Pract_5,2,5,80,127,1421854096
4511,25,Jits_Pract_5,3,5,63,98,1421883620
4511,25,Jits_Pract_5,0,5,56,103,1422303740
4511,25,Jits_Pract_5,1,5,63,98,1422314308
4511,25,Jits_Pract_5,2,5,80,127,1422353724
4511,25,Jits_Pract_5,3,1,48,70,1422359460
4511,25,Jits_Pract_5,0,5,63,98,1422804416
4511,25,Jits_Pract_5,1,1,48,48,1422856388
4511,25,Jits_Pract_5,2,5,80,127,1422884356
4511,25,Jits_Pract_5,3,5,56,103,1422893356
4511,25,Jits_Pract_5,0,5,63,98,1423354160
4511,25,Jits_Pract_5,1,1,48,59,1423362532
4511,25,Jits_Pract_5,2,5,56,103,1423394088
4511,25,Jits_Pract_5,3,5,80,127,1423397008
4511,25,Jits_Pract_5,0,5,56,103,1423814284
4511,25,Jits_Pract_5,1,5,63,98,1423824184
4511,25,Jits_Pract_5,2,5,80,127,1423864196
4511,25,Jits_Pract_5,3,1,48,63,1423877576
4511,25,Jits_Pract_5,0,5,56,103,1424303500
4511,25,Jits_Pract_5,1,5,63,98,1424306568
4511,25,Jits_Pract_5,2,5,80,127,1424324036
4511,25,Jits_Pract_5,3,1,48,63,1424347676
4511,25,Jits_Pract_5,0,9999,9999,9999,1417581648
4511,25,Jits_Pract_5,1,9999,9999,9999,1418081372
4511,25,Jits_Pract_5,2,9999,9999,9999,1418582092
4511,25,Jits_Pract_5,3,9999,9999,9999,1419092020
4511,25,Jits_Pract_5,4,9999,9999,9999,1419591732
4511,25,Jits_Pract_5,5,9999,9999,9999,1420091504
4511,25,Jits_Pract_5,6,9999,9999,9999,1420591212
4511,25,Jits_Pract_5,7,9999,9999,9999,1421091912
4511,25,Jits_Pract_5,8,9999,9999,9999,1421591620
4511,25,Jits_Pract_5,9,9999,9999,9999,1422091328
4511,25,Jits_Pract_5,10,9999,9999,9999,1422592064
4511,25,Jits_Pract_5,11,9999,9999,9999,1423102032
4511,25,Jits_Pract_5,12,9999,9999,9999,1423601720
4511,25,Jits_Pract_5,13,9999,9999,9999,1424101488
4511,25,Jits_Pract_5,14,9999,9999,9999,1424601176
4512,25,Jits_Pract_5,0,5,56,103,1467112780
4512,25,Jits_Pract_5,1,5,63,98,1467116180
4512,25,Jits_Pract_5,2,5,80,127,1467119148
4512,25,Jits_Pract_5,0,1,38,43,1467592720
4512,25,Jits_Pract_5,1,5,56,103,1467612800
4512,25,Jits_Pract_5,2,5,63,98,1467615976
4512,25,Jits_Pract_5,3,5,80,127,1467619096
4512,25,Jits_Pract_5,0,5,56,103,1468113248
4512,25,Jits_Pract_5,1,1,38,60,1468114660
4512,25,Jits_Pract_5,2,5,80,127,1468122616
4512,25,Jits_Pract_5,3,5,63,98,1468142924
4512,25,Jits_Pract_5,0,5,63,98,1468562760
4512,25,Jits_Pract_5,1,5,80,127,1468592880
4512,25,Jits_Pract_5,2,5,56,103,1468602928
4512,25,Jits_Pract_5,3,1,38,61,1468614364
4512,25,Jits_Pract_5,0,1,38,60,1469083464
4512,25,Jits_Pract_5,1,5,80,127,1469123052
4512,25,Jits_Pract_5,2,5,56,103,1469133172
4512,25,Jits_Pract_5,3,5,63,98,1469162848
4512,25,Jits_Pract_5,0,1,38,60,1469611948
4512,25,Jits_Pract_5,1,5,63,98,1469614872
4512,25,Jits_Pract_5,2,5,56,103,1469642984
4512,25,Jits_Pract_5,3,5,80,127,1469653476
4512,25,Jits_Pract_5,0,5,56,103,1470062936
4512,25,Jits_Pract_5,1,5,63,98,1470113088
4512,25,Jits_Pract_5,2,1,38,47,1470125868
4512,25,Jits_Pract_5,3,5,80,127,1470132940
4512,25,Jits_Pract_5,0,5,80,127,1470562788
4512,25,Jits_Pract_5,1,1,38,57,1470606012
4512,25,Jits_Pract_5,2,5,63,98,1470612784
4512,25,Jits_Pract_5,3,5,56,103,1470652724
4512,25,Jits_Pract_5,0,5,56,103,1471063540
4512,25,Jits_Pract_5,1,5,63,98,1471093068
4512,25,Jits_Pract_5,2,1,38,58,1471130760
4512,25,Jits_Pract_5,3,5,80,127,1471162840
4512,25,Jits_Pract_5,0,5,56,103,1471563092
4512,25,Jits_Pract_5,1,1,38,63,1471616632
4512,25,Jits_Pract_5,2,5,80,127,1471622456
4512,25,Jits_Pract_5,3,5,63,98,1471653180
4512,25,Jits_Pract_5,0,5,56,103,1472072992
4512,25,Jits_Pract_5,1,5,63,98,1472083264
4512,25,Jits_Pract_5,2,1,38,57,1472112760
4512,25,Jits_Pract_5,3,5,80,127,1472123120
4512,25,Jits_Pract_5,0,5,63,98,1472562580
4512,25,Jits_Pract_5,1,1,38,51,1472618588
4512,25,Jits_Pract_5,2,5,80,127,1472642668
4512,25,Jits_Pract_5,3,5,56,103,1472652640
4512,25,Jits_Pract_5,0,1,38,60,1473091588
4512,25,Jits_Pract_5,1,5,63,98,1473112512
4512,25,Jits_Pract_5,2,5,56,103,1473153572
4512,25,Jits_Pract_5,3,5,80,127,1473156588
4512,25,Jits_Pract_5,0,5,56,103,1473573316
4512,25,Jits_Pract_5,1,5,63,98,1473582688
4512,25,Jits_Pract_5,2,1,38,58,1473618392
4512,25,Jits_Pract_5,3,5,80,127,1473623516
4512,25,Jits_Pract_5,0,5,56,103,1474062600
4512,25,Jits_Pract_5,1,5,63,98,1474065748
4512,25,Jits_Pract_5,2,5,80,127,1474083288
4512,25,Jits_Pract_5,3,1,38,60,1474101996
4512,25,Jits_Pract_5,0,9999,9999,9999,1467360368
4512,25,Jits_Pract_5,1,9999,9999,9999,1467861044
4512,25,Jits_Pract_5,2,9999,9999,9999,1468360816
4512,25,Jits_Pract_5,3,9999,9999,9999,1468860516
4512,25,Jits_Pract_5,4,9999,9999,9999,1469360212
4512,25,Jits_Pract_5,5,9999,9999,9999,1469860956
4512,25,Jits_Pract_5,6,9999,9999,9999,1470360644
4512,25,Jits_Pract_5,7,9999,9999,9999,1470860352
4512,25,Jits_Pract_5,8,9999,9999,9999,1471360108
4512,25,Jits_Pract_5,9,9999,9999,9999,1471860856
4512,25,Jits_Pract_5,10,9999,9999,9999,1472360564
4512,25,Jits_Pract_5,11,9999,9999,9999,1472860244
4512,25,Jits_Pract_5,12,9999,9999,9999,1473360976
4512,25,Jits_Pract_5,13,9999,9999,9999,1473860664
4512,25,Jits_Pract_5,14,9999,9999,9999,1474360432
4513,24,Jits_Pract_8,0,5,56,103,1481090632
4513,24,Jits_Pract_8,1,5,63,98,1481093432
4513,24,Jits_Pract_8,2,5,80,127,1481096704
4513,24,Jits_Pract_8,0,1,38,26,1481511396
4513,24,Jits_Pract_8,1,5,56,103,1481890480
4513,24,Jits_Pract_8,2,5,63,98,1481893500
4513,24,Jits_Pract_8,3,5,80,127,1481896692
4513,24,Jits_Pract_8,4,1,38,24,1482035340
4513,24,Jits_Pract_8,0,1,38,55,1482562784
4513,24,Jits_Pract_8,1,5,80,127,1482629440
4513,24,Jits_Pract_8,2,5,63,98,1482719560
4513,24,Jits_Pract_8,3,5,56,103,1482729980
4513,24,Jits_Pract_8,0,5,56,103,1483449580
4513,24,Jits_Pract_8,1,1,38,51,1483451596
4513,24,Jits_Pract_8,2,5,63,98,1483460216
4513,24,Jits_Pract_8,3,5,80,127,1483551304
4513,24,Jits_Pract_8,0,5,63,98,1484219908
4513,24,Jits_Pract_8,1,5,80,127,1484249432
4513,24,Jits_Pract_8,2,5,56,103,1484280156
4513,24,Jits_Pract_8,3,1,38,52,1484316600
4513,24,Jits_Pract_8,0,1,38,61,1484990256
4513,24,Jits_Pract_8,1,5,56,103,1485019576
4513,24,Jits_Pract_8,2,5,80,127,1485119740
4513,24,Jits_Pract_8,3,5,63,98,1485170012
4513,24,Jits_Pract_8,0,5,56,103,1485820164
4513,24,Jits_Pract_8,1,5,80,127,1485869396
4513,24,Jits_Pract_8,2,1,38,59,1485905472
4513,24,Jits_Pract_8,3,5,63,98,1485910300
4513,24,Jits_Pract_8,0,5,80,127,1486649604
4513,24,Jits_Pract_8,1,5,63,98,1486680472
4513,24,Jits_Pract_8,2,1,38,57,1486691764
4513,24,Jits_Pract_8,3,5,56,103,1486750096
4513,24,Jits_Pract_8,0,1,38,54,1487467380
4513,24,Jits_Pract_8,1,5,63,98,1487480080
4513,24,Jits_Pract_8,2,5,56,103,1487510228
4513,24,Jits_Pract_8,3,5,80,127,1487570304
4513,24,Jits_Pract_8,0,5,56,103,1488219460
4513,24,Jits_Pract_8,1,5,80,127,1488222976
4513,24,Jits_Pract_8,2,1,38,70,1488285832
4513,24,Jits_Pract_8,3,5,63,98,1488340324
4513,24,Jits_Pract_8,0,1,38,71,1489067248
4513,24,Jits_Pract_8,1,5,56,103,1489100156
4513,24,Jits_Pract_8,2,5,80,127,1489140172
4513,24,Jits_Pract_8,3,5,63,98,1489150292
4513,24,Jits_Pract_8,0,5,56,103,1489860064
4513,24,Jits_Pract_8,1,5,80,127,1489880452
4513,24,Jits_Pract_8,2,1,38,66,1489887312
4513,24,Jits_Pract_8,3,5,63,98,1489960160
4513,24,Jits_Pract_8,0,5,80,127,1490649424
4513,24,Jits_Pract_8,1,1,38,60,1490673820
4513,24,Jits_Pract_8,2,5,56,103,1490749964
4513,24,Jits_Pract_8,3,5,63,98,1490760084
4513,24,Jits_Pract_8,0,5,63,98,1491419456
4513,24,Jits_Pract_8,1,5,80,127,1491480000
4513,24,Jits_Pract_8,2,1,38,64,1491482516
4513,24,Jits_Pract_8,3,5,56,103,1491490260
4513,24,Jits_Pract_8,0,1,38,67,1492198352
4513,24,Jits_Pract_8,1,5,56,103,1492220176
4513,24,Jits_Pract_8,2,5,63,98,1492290832
4513,24,Jits_Pract_8,3,5,80,127,1492294028
4513,24,Jits_Pract_8,0,9999,9999,9999,1481487440
4513,24,Jits_Pract_8,1,9999,9999,9999,1482287188
4513,24,Jits_Pract_8,2,9999,9999,9999,1483087972
4513,24,Jits_Pract_8,3,9999,9999,9999,1483887724
4513,24,Jits_Pract_8,4,9999,9999,9999,1484687440
4513,24,Jits_Pract_8,5,9999,9999,9999,1485487200
4513,24,Jits_Pract_8,6,9999,9999,9999,1486287924
4513,24,Jits_Pract_8,7,9999,9999,9999,1487087696
4513,24,Jits_Pract_8,8,9999,9999,9999,1487887468
4513,24,Jits_Pract_8,9,9999,9999,9999,1488687216
4513,24,Jits_Pract_8,10,9999,9999,9999,1489487964
4513,24,Jits_Pract_8,11,9999,9999,9999,1490287724
4513,24,Jits_Pract_8,12,9999,9999,9999,1491087448
4513,24,Jits_Pract_8,13,9999,9999,9999,1491887220
4513,24,Jits_Pract_8,14,9999,9999,9999,1492687932
4514,19,Jits_Linear_5,0,5,56,103,1529835008
4514,19,Jits_Linear_5,1,5,63,98,1529837880
4514,19,Jits_Linear_5,2,5,80,127,1529841076
4514,19,Jits_Linear_5,3,1,38,32,1530032192
4514,19,Jits_Linear_5,0,5,56,103,1530315140
4514,19,Jits_Linear_5,1,5,63,98,1530318236
4514,19,Jits_Linear_5,2,5,80,127,1530321356
4514,19,Jits_Linear_5,3,1,38,52,1530467580
4514,19,Jits_Linear_5,0,5,56,103,1530795508
4514,19,Jits_Linear_5,1,1,38,54,1530796476
4514,19,Jits_Linear_5,2,5,80,127,1530804876
4514,19,Jits_Linear_5,3,5,63,98,1530825188
4514,19,Jits_Linear_5,0,5,63,98,1531224392
4514,19,Jits_Linear_5,1,5,80,127,1531255192
4514,19,Jits_Linear_5,2,5,56,103,1531265264
4514,19,Jits_Linear_5,3,1,38,54,1531275356
4514,19,Jits_Linear_5,0,1,38,68,1531716844
4514,19,Jits_Linear_5,1,5,80,127,1531764972
4514,19,Jits_Linear_5,2,5,56,103,1531775492
4514,19,Jits_Linear_5,3,5,63,98,1531805020
4514,19,Jits_Linear_5,0,1,38,63,1532206048
4514,19,Jits_Linear_5,1,5,63,98,1532245412
4514,19,Jits_Linear_5,2,5,56,103,1532275016
4514,19,Jits_Linear_5,3,5,80,127,1532285284
4514,19,Jits_Linear_5,0,5,56,103,1532684872
4514,19,Jits_Linear_5,1,1,38,55,1532708220
4514,19,Jits_Linear_5,2,5,63,98,1532734772
4514,19,Jits_Linear_5,3,5,80,127,1532755452
4514,19,Jits_Linear_5,0,1,38,59,1533143836
4514,19,Jits_Linear_5,1,5,80,127,1533175104
4514,19,Jits_Linear_5,2,5,63,98,1533225380
4514,19,Jits_Linear_5,3,5,56,103,1533265380
4514,19,Jits_Linear_5,0,5,56,103,1533664908
4514,19,Jits_Linear_5,1,5,63,98,1533695412
4514,19,Jits_Linear_5,2,1,38,67,1533698680
4514,19,Jits_Linear_5,3,5,80,127,1533764936
4514,19,Jits_Linear_5,0,5,56,103,1534155096
4514,19,Jits_Linear_5,1,1,38,61,1534180312
4514,19,Jits_Linear_5,2,5,80,127,1534214588
4514,19,Jits_Linear_5,3,5,63,98,1534245160
4514,19,Jits_Linear_5,0,5,56,103,1534654808
4514,19,Jits_Linear_5,1,1,38,58,1534658900
4514,19,Jits_Linear_5,2,5,63,98,1534665220
4514,19,Jits_Linear_5,3,5,80,127,1534705008
4514,19,Jits_Linear_5,0,1,38,61,1535132980
4514,19,Jits_Linear_5,1,5,63,98,1535145208
4514,19,Jits_Linear_5,2,5,80,127,1535225068
4514,19,Jits_Linear_5,3,5,56,103,1535234592
4514,19,Jits_Linear_5,0,1,38,60,1535666308
4514,19,Jits_Linear_5,1,5,63,98,1535695176
4514,19,Jits_Linear_5,2,5,56,103,1535735192
4514,19,Jits_Linear_5,3,5,80,127,1535738108
4514,19,Jits_Linear_5,0,5,56,103,1536155084
4514,19,Jits_Linear_5,1,5,63,98,1536165280
4514,19,Jits_Linear_5,2,1,38,66,1536167368
4514,19,Jits_Linear_5,3,5,80,127,1536205064
4514,19,Jits_Linear_5,0,1,38,66,1536634348
4514,19,Jits_Linear_5,1,5,56,103,1536644584
4514,19,Jits_Linear_5,2,5,63,98,1536647576
4514,19,Jits_Linear_5,3,5,80,127,1536665044
4514,19,Jits_Linear_5,0,1,38,64,1537123460
4514,19,Jits_Linear_5,1,5,80,127,1537164788
4514,19,Jits_Linear_5,2,5,56,103,1537174908
4514,19,Jits_Linear_5,3,5,63,98,1537244652
4514,19,Jits_Linear_5,0,1,38,66,1537660296
4514,19,Jits_Linear_5,1,5,63,98,1537665596
4514,19,Jits_Linear_5,2,5,56,103,1537684712
4514,19,Jits_Linear_5,3,5,80,127,1537764716
4514,19,Jits_Linear_5,0,1,38,72,1538172264
4514,19,Jits_Linear_5,1,5,56,103,1538184540
4514,19,Jits_Linear_5,2,5,80,127,1538224632
4514,19,Jits_Linear_5,3,5,63,98,1538234680
4514,19,Jits_Linear_5,0,1,38,65,1538689440
4514,19,Jits_Linear_5,1,5,80,127,1538694712
4514,19,Jits_Linear_5,2,5,63,98,1538725364
4514,19,Jits_Linear_5,3,5,56,103,1538765228
4514,19,Jits_Linear_5,0,1,38,63,1539204268
4514,19,Jits_Linear_5,1,5,56,103,1539224820
4514,19,Jits_Linear_5,2,5,63,98,1539254572
4514,19,Jits_Linear_5,3,5,80,127,1539304760
4514,19,Jits_Linear_5,0,1,38,63,1539709688
4514,19,Jits_Linear_5,1,5,80,127,1539734996
4514,19,Jits_Linear_5,2,5,56,103,1539774792
4514,19,Jits_Linear_5,3,5,63,98,1539785284
4514,19,Jits_Linear_5,0,1,38,63,1540185932
4514,19,Jits_Linear_5,1,5,80,127,1540234760
4514,19,Jits_Linear_5,2,5,63,98,1540274776
4514,19,Jits_Linear_5,3,5,56,103,1540335152
4514,19,Jits_Linear_5,0,1,38,62,1540751040
4514,19,Jits_Linear_5,1,5,56,103,1540754748
4514,19,Jits_Linear_5,2,5,80,127,1540765020
4514,19,Jits_Linear_5,3,5,63,98,1540844964
4514,19,Jits_Linear_5,0,1,38,65,1541262508
4514,19,Jits_Linear_5,1,5,80,127,1541274964
4514,19,Jits_Linear_5,2,5,63,98,1541335580
4514,19,Jits_Linear_5,3,5,56,103,1541365092
4514,19,Jits_Linear_5,0,1,38,64,1541787360
4514,19,Jits_Linear_5,1,5,56,103,1541795328
4514,19,Jits_Linear_5,2,5,80,127,1541854528
4514,19,Jits_Linear_5,3,5,63,98,1541894600
4514,19,Jits_Linear_5,0,1,38,66,1542295140
4514,19,Jits_Linear_5,1,5,56,103,1542374736
4514,19,Jits_Linear_5,2,5,63,98,1542384932
4514,19,Jits_Linear_5,3,5,80,127,1542388596
4514,19,Jits_Linear_5,0,1,38,57,1542824640
4514,19,Jits_Linear_5,1,5,80,127,1542855008
4514,19,Jits_Linear_5,2,5,63,98,1542945356
4514,19,Jits_Linear_5,3,5,56,103,1542955552
4514,19,Jits_Linear_5,0,1,38,62,1543372416
4514,19,Jits_Linear_5,1,5,56,103,1543384576
4514,19,Jits_Linear_5,2,5,63,98,1543387524
4514,19,Jits_Linear_5,3,5,80,127,1543390796
4514,19,Jits_Linear_5,0,1,38,59,1543850876
4514,19,Jits_Linear_5,1,5,80,127,1543935500
4514,19,Jits_Linear_5,2,5,63,98,1543984420
4514,19,Jits_Linear_5,3,5,56,103,1544015292
4514,19,Jits_Linear_5,0,1,38,66,1544444944
4514,19,Jits_Linear_5,1,5,56,103,1544447624
4514,19,Jits_Linear_5,2,5,80,127,1544454460
4514,19,Jits_Linear_5,3,5,63,98,1544525412
4514,19,Jits_Linear_5,0,5,56,103,1544985236
4514,19,Jits_Linear_5,1,1,38,63,1544997644
4514,19,Jits_Linear_5,2,5,63,98,1545005540
4514,19,Jits_Linear_5,3,5,80,127,1545064960
4514,19,Jits_Linear_5,0,1,38,59,1545477856
4514,19,Jits_Linear_5,1,5,80,127,1545515496
4514,19,Jits_Linear_5,2,5,63,98,1545584872
4514,19,Jits_Linear_5,3,5,56,103,1545604456
4514,19,Jits_Linear_5,0,1,38,55,1546017104
4514,19,Jits_Linear_5,1,5,80,127,1546074456
4514,19,Jits_Linear_5,2,5,56,103,1546084800
4514,19,Jits_Linear_5,3,5,63,98,1546094924
4514,19,Jits_Linear_5,0,1,38,52,1546555608
4514,19,Jits_Linear_5,1,5,80,127,1546604932
4514,19,Jits_Linear_5,2,5,56,103,1546625344
4514,19,Jits_Linear_5,3,5,63,98,1546695012
4514,19,Jits_Linear_5,0,1,38,65,1547095084
4514,19,Jits_Linear_5,1,5,56,103,1547154772
4514,19,Jits_Linear_5,2,5,80,127,1547184596
4514,19,Jits_Linear_5,3,5,63,98,1547205116
4514,19,Jits_Linear_5,0,1,38,66,1547637096
4514,19,Jits_Linear_5,1,5,63,98,1547694320
4514,19,Jits_Linear_5,2,5,56,103,1547754920
4514,19,Jits_Linear_5,3,5,80,127,1547784520
4514,19,Jits_Linear_5,0,1,38,64,1548197948
4514,19,Jits_Linear_5,1,5,63,98,1548235440
4514,19,Jits_Linear_5,2,5,80,127,1548238648
4514,19,Jits_Linear_5,3,5,56,103,1548325476
4514,19,Jits_Linear_5,0,1,38,57,1548761452
4514,19,Jits_Linear_5,1,5,56,103,1548804640
4514,19,Jits_Linear_5,2,5,63,98,1548835144
4514,19,Jits_Linear_5,3,5,80,127,1548875292
4514,19,Jits_Linear_5,0,1,38,56,1549266392
4514,19,Jits_Linear_5,1,5,63,98,1549355352
4514,19,Jits_Linear_5,2,5,56,103,1549395204
4514,19,Jits_Linear_5,3,5,80,127,1549414764
4514,19,Jits_Linear_5,0,1,38,72,1549829388
4514,19,Jits_Linear_5,1,5,63,98,1549914608
4514,19,Jits_Linear_5,2,5,56,103,1549954408
4514,19,Jits_Linear_5,3,5,80,127,1549964752
4514,19,Jits_Linear_5,0,1,38,56,1550409984
4514,19,Jits_Linear_5,1,5,80,127,1550444784
4514,19,Jits_Linear_5,2,5,63,98,1550514556
4514,19,Jits_Linear_5,3,5,56,103,1550535312
4514,19,Jits_Linear_5,0,1,38,59,1550966172
4514,19,Jits_Linear_5,1,5,56,103,1551005108
4514,19,Jits_Linear_5,2,5,80,127,1551024596
4514,19,Jits_Linear_5,3,5,63,98,1551064296
4514,19,Jits_Linear_5,0,1,38,69,1551552256
4514,19,Jits_Linear_5,1,5,63,98,1551575368
4514,19,Jits_Linear_5,2,5,80,127,1551594856
4514,19,Jits_Linear_5,3,5,56,103,1551634720
4514,19,Jits_Linear_5,0,1,38,63,1552071724
4514,19,Jits_Linear_5,1,5,63,98,1552134396
4514,19,Jits_Linear_5,2,5,56,103,1552155152
4514,19,Jits_Linear_5,3,5,80,127,1552165352
4514,19,Jits_Linear_5,0,1,38,60,1552656224
4514,19,Jits_Linear_5,1,5,80,127,1552694616
4514,19,Jits_Linear_5,2,5,56,103,1552715372
4514,19,Jits_Linear_5,3,5,63,98,1552744752
4514,19,Jits_Linear_5,0,1,38,56,1553174260
4514,19,Jits_Linear_5,1,5,56,103,1553334632
4514,19,Jits_Linear_5,2,5,80,127,1553337772
4514,19,Jits_Linear_5,3,5,63,98,1553355316
4514,19,Jits_Linear_5,0,5,63,98,1553825268
4514,19,Jits_Linear_5,1,1,38,66,1553848168
4514,19,Jits_Linear_5,2,5,56,103,1553854864
4514,19,Jits_Linear_5,3,5,80,127,1553915328
4514,19,Jits_Linear_5,0,1,38,67,1554334436
4514,19,Jits_Linear_5,1,5,63,98,1554475232
4514,19,Jits_Linear_5,2,5,56,103,1554484528
4514,19,Jits_Linear_5,3,5,80,127,1554495024
4514,19,Jits_Linear_5,0,1,38,64,1554980224
4514,19,Jits_Linear_5,1,5,56,103,1554994416
4514,19,Jits_Linear_5,2,5,80,127,1555025140
4514,19,Jits_Linear_5,3,5,63,98,1555034368
4514,19,Jits_Linear_5,0,1,38,63,1555543460
4514,19,Jits_Linear_5,1,5,63,98,1555605016
4514,19,Jits_Linear_5,2,5,56,103,1555615136
4514,19,Jits_Linear_5,3,5,80,127,1555634476
4514,19,Jits_Linear_5,0,1,38,67,1556101076
4514,19,Jits_Linear_5,1,5,56,103,1556104632
4514,19,Jits_Linear_5,2,5,63,98,1556165176
4514,19,Jits_Linear_5,3,5,80,127,1556168464
4514,19,Jits_Linear_5,0,1,38,63,1556636572
4514,19,Jits_Linear_5,1,1,48,14,1556652152
4514,19,Jits_Linear_5,2,5,80,127,1556704616
4514,19,Jits_Linear_5,3,5,56,103,1556714884
4514,19,Jits_Linear_5,4,5,63,98,1556784376
4514,19,Jits_Linear_5,0,1,38,60,1557246568
4514,19,Jits_Linear_5,1,5,80,127,1557274916
4514,19,Jits_Linear_5,2,5,56,103,1557344512
4514,19,Jits_Linear_5,3,5,63,98,1557355008
4514,19,Jits_Linear_5,0,1,38,49,1557868452
4514,19,Jits_Linear_5,1,5,63,98,1557894508
4514,19,Jits_Linear_5,2,5,56,103,1557904928
4514,19,Jits_Linear_5,3,5,80,127,1557925164
4514,19,Jits_Linear_5,0,1,38,65,1558405852
4514,19,Jits_Linear_5,1,5,80,127,1558425136
4514,19,Jits_Linear_5,2,5,63,98,1558485308
4514,19,Jits_Linear_5,3,5,56,103,1558525156
4514,19,Jits_Linear_5,0,1,38,62,1559002796
4514,19,Jits_Linear_5,1,5,56,103,1559054668
4514,19,Jits_Linear_5,2,5,63,98,1559065088
4514,19,Jits_Linear_5,3,5,80,127,1559105088
4514,19,Jits_Linear_5,0,1,38,54,1559557472
4514,19,Jits_Linear_5,1,5,56,103,1559604552
4514,19,Jits_Linear_5,2,5,80,127,1559635352
4514,19,Jits_Linear_5,3,5,63,98,1559684444
4514,19,Jits_Linear_5,0,1,38,56,1560180324
4514,19,Jits_Linear_5,1,1,48,13,1560196460
4514,19,Jits_Linear_5,2,5,56,103,1560235296
4514,19,Jits_Linear_5,3,5,63,98,1560275228
4514,19,Jits_Linear_5,4,5,80,127,1560278524
4514,19,Jits_Linear_5,0,1,38,51,1560758672
4514,19,Jits_Linear_5,1,5,56,103,1560825236
4514,19,Jits_Linear_5,2,5,63,98,1560834312
4514,19,Jits_Linear_5,3,5,80,127,1560855128
4514,19,Jits_Linear_5,0,1,38,61,1561315828
4514,19,Jits_Linear_5,1,1,48,15,1561331308
4514,19,Jits_Linear_5,2,5,56,103,1561375024
4514,19,Jits_Linear_5,3,5,80,127,1561378092
4514,19,Jits_Linear_5,4,5,63,98,1561415096
4514,19,Jits_Linear_5,0,1,38,59,1561872704
4514,19,Jits_Linear_5,1,5,63,98,1562004976
4514,19,Jits_Linear_5,2,5,56,103,1562034432
4514,19,Jits_Linear_5,3,5,80,127,1562054964
4514,19,Jits_Linear_5,0,5,80,127,1562575188
4514,19,Jits_Linear_5,1,5,56,103,1562584484
4514,19,Jits_Linear_5,2,5,63,98,1562594608
4514,19,Jits_Linear_5,3,1,38,60,1562602976
4514,19,Jits_Linear_5,0,1,38,61,1563138752
4514,19,Jits_Linear_5,1,1,48,15,1563153876
4514,19,Jits_Linear_5,2,5,56,103,1563175252
4514,19,Jits_Linear_5,3,5,80,127,1563215340
4514,19,Jits_Linear_5,4,5,63,98,1563244852
4514,19,Jits_Linear_5,0,1,38,52,1563720276
4514,19,Jits_Linear_5,1,5,63,98,1563784992
4514,19,Jits_Linear_5,2,5,80,127,1563794820
4514,19,Jits_Linear_5,3,5,56,103,1563805016
4514,19,Jits_Linear_5,0,1,38,62,1564324888
4514,19,Jits_Linear_5,1,1,48,16,1564340064
4514,19,Jits_Linear_5,2,5,56,103,1564365196
4514,19,Jits_Linear_5,3,5,63,98,1564434792
4514,19,Jits_Linear_5,4,5,80,127,1564444976
4514,19,Jits_Linear_5,0,1,38,61,1564947852
4514,19,Jits_Linear_5,1,1,48,15,1564962884
4514,19,Jits_Linear_5,2,5,80,127,1564974384
4514,19,Jits_Linear_5,3,5,56,103,1564984876
4514,19,Jits_Linear_5,4,5,63,98,1565034932
4514,19,Jits_Linear_5,0,1,38,61,1565494092
4514,19,Jits_Linear_5,1,1,48,15,1565509652
4514,19,Jits_Linear_5,2,5,80,127,1565594960
4514,19,Jits_Linear_5,3,5,56,103,1565655340
4514,19,Jits_Linear_5,4,5,63,98,1565685088
4514,19,Jits_Linear_5,0,1,38,63,1566092124
4514,19,Jits_Linear_5,1,5,56,103,1566205280
4514,19,Jits_Linear_5,2,5,80,127,1566208424
4514,19,Jits_Linear_5,3,5,63,98,1566245372
4514,19,Jits_Linear_5,0,1,38,75,1566711376
4514,19,Jits_Linear_5,1,5,56,103,1566845240
4514,19,Jits_Linear_5,2,5,63,98,1566875068
4514,19,Jits_Linear_5,3,5,80,127,1566885264
4514,19,Jits_Linear_5,0,1,38,56,1567372252
4514,19,Jits_Linear_5,1,5,63,98,1567465928
4514,19,Jits_Linear_5,2,5,80,127,1567475004
4514,19,Jits_Linear_5,3,5,56,103,1567485276
4514,19,Jits_Linear_5,0,5,80,127,1568024904
4514,19,Jits_Linear_5,1,1,38,68,1568044736
4514,19,Jits_Linear_5,2,1,48,15,1568059696
4514,19,Jits_Linear_5,3,5,56,103,1568075004
4514,19,Jits_Linear_5,4,5,63,98,1568078300
4514,19,Jits_Linear_5,0,1,38,72,1568601668
4514,19,Jits_Linear_5,1,5,56,103,1568675152
4514,19,Jits_Linear_5,2,5,80,127,1568694716
4514,19,Jits_Linear_5,3,5,63,98,1568704972
4514,19,Jits_Linear_5,0,1,38,59,1569251376
4514,19,Jits_Linear_5,1,1,48,14,1569266496
4514,19,Jits_Linear_5,2,5,63,98,1569275212
4514,19,Jits_Linear_5,3,5,56,103,1569304892
4514,19,Jits_Linear_5,4,5,80,127,1569325276
4514,19,Jits_Linear_5,0,1,38,56,1569817988
4514,19,Jits_Linear_5,1,5,56,103,1569905004
4514,19,Jits_Linear_5,2,5,80,127,1569915264
4514,19,Jits_Linear_5,3,5,63,98,1569984820
4514,19,Jits_Linear_5,0,1,38,55,1570479828
4514,19,Jits_Linear_5,1,1,48,14,1570494952
4514,19,Jits_Linear_5,2,5,63,98,1570515504
4514,19,Jits_Linear_5,3,5,80,127,1570555224
4514,19,Jits_Linear_5,4,5,56,103,1570595120
4514,19,Jits_Linear_5,0,1,38,65,1571089972
4514,19,Jits_Linear_5,1,5,56,103,1571155264
4514,19,Jits_Linear_5,2,5,63,98,1571164640
4514,19,Jits_Linear_5,3,5,80,127,1571184932
4514,19,Jits_Linear_5,0,1,38,51,1571709780
4514,19,Jits_Linear_5,1,5,63,98,1571824960
4514,19,Jits_Linear_5,2,5,80,127,1571844600
4514,19,Jits_Linear_5,3,5,56,103,1571864908
4514,19,Jits_Linear_5,0,5,56,103,1572395772
4514,19,Jits_Linear_5,1,1,38,61,1572422808
4514,19,Jits_Linear_5,2,5,80,127,1572475416
4514,19,Jits_Linear_5,3,5,63,98,1572484664
4514,19,Jits_Linear_5,0,1,38,63,1572988348
4514,19,Jits_Linear_5,1,5,80,127,1573065100
4514,19,Jits_Linear_5,2,5,63,98,1573075448
4514,19,Jits_Linear_5,3,5,56,103,1573104884
4514,19,Jits_Linear_5,0,1,38,73,1573595996
4514,19,Jits_Linear_5,1,5,63,98,1573654844
4514,19,Jits_Linear_5,2,5,80,127,1573694696
4514,19,Jits_Linear_5,3,5,56,103,1573755160
4514,19,Jits_Linear_5,0,1,38,64,1574205448
4514,19,Jits_Linear_5,1,5,63,98,1574294884
4514,19,Jits_Linear_5,2,5,56,103,1574345220
4514,19,Jits_Linear_5,3,5,80,127,1574374820
4514,19,Jits_Linear_5,0,1,38,58,1574819400
4514,19,Jits_Linear_5,1,5,80,127,1574945144
4514,19,Jits_Linear_5,2,5,63,98,1574955564
4514,19,Jits_Linear_5,3,5,56,103,1575024948
4514,19,Jits_Linear_5,0,1,38,58,1575498452
4514,19,Jits_Linear_5,1,5,80,127,1575654716
4514,19,Jits_Linear_5,2,5,56,103,1575665136
4514,19,Jits_Linear_5,3,5,63,98,1575668056
4514,19,Jits_Linear_5,0,1,38,67,1576093396
4514,19,Jits_Linear_5,1,5,56,103,1576235460
4514,19,Jits_Linear_5,2,5,80,127,1576254800
4514,19,Jits_Linear_5,3,5,63,98,1576264996
4514,19,Jits_Linear_5,0,5,63,98,1576884664
4514,19,Jits_Linear_5,1,5,56,103,1576924680
4514,19,Jits_Linear_5,2,5,80,127,1576944988
4514,19,Jits_Linear_5,3,1,38,49,1577076364
4514,19,Jits_Linear_5,0,1,38,70,1577507040
4514,19,Jits_Linear_5,1,5,63,98,1577534864
4514,19,Jits_Linear_5,2,5,56,103,1577595180
4514,19,Jits_Linear_5,3,5,80,127,1577598420
4514,19,Jits_Linear_5,0,1,38,63,1578102084
4514,19,Jits_Linear_5,1,5,56,103,1578145224
4514,19,Jits_Linear_5,2,5,80,127,1578164564
4514,19,Jits_Linear_5,3,5,63,98,1578204636
4514,19,Jits_Linear_5,0,1,38,61,1578722804
4514,19,Jits_Linear_5,1,5,56,103,1578825008
4514,19,Jits_Linear_5,2,5,63,98,1578844644
4514,19,Jits_Linear_5,3,5,80,127,1578854840
4514,19,Jits_Linear_5,0,1,38,48,1579360028
4514,19,Jits_Linear_5,1,5,80,127,1579444532
4514,19,Jits_Linear_5,2,5,56,103,1579475388
4514,19,Jits_Linear_5,3,5,63,98,1579515180
4514,19,Jits_Linear_5,0,1,38,59,1580075156
4514,19,Jits_Linear_5,1,5,80,127,1580105072
4514,19,Jits_Linear_5,2,5,56,103,1580124632
4514,19,Jits_Linear_5,3,5,63,98,1580184884
4514,19,Jits_Linear_5,0,1,38,62,1580715640
4514,19,Jits_Linear_5,1,5,56,103,1580764516
4514,19,Jits_Linear_5,2,5,80,127,1580784976
4514,19,Jits_Linear_5,3,5,63,98,1580845576
4514,19,Jits_Linear_5,0,1,38,72,1581347860
4514,19,Jits_Linear_5,1,5,80,127,1581404532
4514,19,Jits_Linear_5,2,5,56,103,1581414800
4514,19,Jits_Linear_5,3,5,63,98,1581454752
4514,19,Jits_Linear_5,0,1,38,60,1581959568
4514,19,Jits_Linear_5,1,5,63,98,1582065004
4514,19,Jits_Linear_5,2,5,56,103,1582104868
4514,19,Jits_Linear_5,3,5,80,127,1582108156
4514,19,Jits_Linear_5,0,1,38,62,1582532824
4514,19,Jits_Linear_5,1,5,63,98,1582744964
4514,19,Jits_Linear_5,2,5,80,127,1582784756
4514,19,Jits_Linear_5,3,5,56,103,1582814580
4514,19,Jits_Linear_5,0,5,56,103,1583395412
4514,19,Jits_Linear_5,1,5,63,98,1583405536
4514,19,Jits_Linear_5,2,5,80,127,1583435284
4514,19,Jits_Linear_5,0,1,38,64,1584053016
4514,19,Jits_Linear_5,1,5,80,127,1584055796
4514,19,Jits_Linear_5,2,5,63,98,1584125404
4514,19,Jits_Linear_5,3,5,56,103,1584134556
4514,19,Jits_Linear_5,0,5,63,98,1584725336
4514,19,Jits_Linear_5,1,1,38,72,1584728232
4514,19,Jits_Linear_5,2,5,56,103,1584794964
4514,19,Jits_Linear_5,3,5,80,127,1584805160
4514,19,Jits_Linear_5,0,1,38,64,1585352220
4514,19,Jits_Linear_5,1,5,63,98,1585395188
4514,19,Jits_Linear_5,2,5,56,103,1585414600
4514,19,Jits_Linear_5,3,5,80,127,1585454524
4514,19,Jits_Linear_5,0,1,38,54,1586023564
4514,19,Jits_Linear_5,1,5,56,103,1586075080
4514,19,Jits_Linear_5,2,5,63,98,1586085352
4514,19,Jits_Linear_5,3,5,80,127,1586165356
4514,19,Jits_Linear_5,0,1,38,66,1586651524
4514,19,Jits_Linear_5,1,5,63,98,1586734428
4514,19,Jits_Linear_5,2,5,56,103,1586765284
4514,19,Jits_Linear_5,3,5,80,127,1586805372
4514,19,Jits_Linear_5,0,1,38,59,1587318732
4514,19,Jits_Linear_5,1,5,56,103,1587405180
4514,19,Jits_Linear_5,2,5,63,98,1587445328
4514,19,Jits_Linear_5,3,5,80,127,1587485268
4514,19,Jits_Linear_5,0,1,38,60,1587985600
4514,19,Jits_Linear_5,1,5,80,127,1588085332
4514,19,Jits_Linear_5,2,5,56,103,1588164936
4514,19,Jits_Linear_5,3,5,63,98,1588175132
4514,19,Jits_Linear_5,0,1,38,59,1588768816
4514,19,Jits_Linear_5,1,5,56,103,1588805104
4514,19,Jits_Linear_5,2,5,63,98,1588808248
4514,19,Jits_Linear_5,3,5,80,127,1588815152
4514,19,Jits_Linear_5,0,1,38,59,1589399544
4514,19,Jits_Linear_5,1,5,56,103,1589505284
4514,19,Jits_Linear_5,2,5,63,98,1589525144
4514,19,Jits_Linear_5,3,5,80,127,1589535192
4514,19,Jits_Linear_5,0,1,38,56,1590061368
4514,19,Jits_Linear_5,1,5,63,98,1590145268
4514,19,Jits_Linear_5,2,5,80,127,1590155968
4514,19,Jits_Linear_5,3,5,56,103,1590175232
4514,19,Jits_Linear_5,0,1,38,63,1590714224
4514,19,Jits_Linear_5,1,5,63,98,1590834488
4514,19,Jits_Linear_5,2,5,56,103,1590914308
4514,19,Jits_Linear_5,3,5,80,127,1590917604
4514,19,Jits_Linear_5,0,1,38,57,1591398732
4514,19,Jits_Linear_5,1,5,63,98,1591525020
4514,19,Jits_Linear_5,2,5,56,103,1591545184
4514,19,Jits_Linear_5,3,5,80,127,1591575308
4514,19,Jits_Linear_5,0,1,38,58,1592050980
4514,19,Jits_Linear_5,1,1,48,14,1592066624
4514,19,Jits_Linear_5,2,5,56,103,1592215136
4514,19,Jits_Linear_5,3,5,63,98,1592235372
4514,19,Jits_Linear_5,4,5,80,127,1592244524
4514,19,Jits_Linear_5,0,1,38,60,1592715096
4514,19,Jits_Linear_5,1,1,48,14,1592730732
4514,19,Jits_Linear_5,2,5,56,103,1592934892
4514,19,Jits_Linear_5,3,5,63,98,1592964364
4514,19,Jits_Linear_5,4,5,80,127,1592967732
4514,19,Jits_Linear_5,0,1,38,57,1593458968
4514,19,Jits_Linear_5,1,1,48,13,1593475024
4514,19,Jits_Linear_5,2,5,56,103,1593574660
4514,19,Jits_Linear_5,3,5,63,98,1593614824
4514,19,Jits_Linear_5,4,5,80,127,1593675140
4514,19,Jits_Linear_5,0,1,38,60,1594165876
4514,19,Jits_Linear_5,1,5,56,103,1594285416
4514,19,Jits_Linear_5,2,5,63,98,1594294644
4514,19,Jits_Linear_5,3,5,80,127,1594355180
4514,19,Jits_Linear_5,0,1,38,59,1594809796
4514,19,Jits_Linear_5,1,5,56,103,1594985140
4514,19,Jits_Linear_5,2,5,80,127,1595005400
4514,19,Jits_Linear_5,3,5,63,98,1595035228
4514,19,Jits_Linear_5,0,1,38,45,1595540940
4514,19,Jits_Linear_5,1,5,80,127,1595685192
4514,19,Jits_Linear_5,2,5,56,103,1595694564
4514,19,Jits_Linear_5,3,5,63,98,1595715172
4514,19,Jits_Linear_5,0,1,38,54,1596298160
4514,19,Jits_Linear_5,1,5,63,98,1596375288
4514,19,Jits_Linear_5,2,5,80,127,1596455296
4514,19,Jits_Linear_5,3,5,56,103,1596464524
4514,19,Jits_Linear_5,0,1,38,64,1597009800
4514,19,Jits_Linear_5,1,5,80,127,1597135196
4514,19,Jits_Linear_5,2,5,56,103,1597154756
4514,19,Jits_Linear_5,3,5,63,98,1597157820
4514,19,Jits_Linear_5,0,1,38,64,1597703716
4514,19,Jits_Linear_5,1,5,63,98,1597815136
4514,19,Jits_Linear_5,2,5,80,127,1597818424
4514,19,Jits_Linear_5,3,5,56,103,1597874552
4514,19,Jits_Linear_5,0,1,38,53,1598485772
4514,19,Jits_Linear_5,1,5,56,103,1598505424
4514,19,Jits_Linear_5,2,5,80,127,1598514500
4514,19,Jits_Linear_5,3,5,63,98,1598554516
4514,19,Jits_Linear_5,0,1,38,56,1599152860
4514,19,Jits_Linear_5,1,1,48,13,1599168568
4514,19,Jits_Linear_5,2,5,56,103,1599194444
4514,19,Jits_Linear_5,3,5,63,98,1599254972
4514,19,Jits_Linear_5,4,5,80,127,1599265976
4514,19,Jits_Linear_5,0,1,38,54,1599832688
4514,19,Jits_Linear_5,1,1,48,13,1599848392
4514,19,Jits_Linear_5,2,5,63,98,1599915428
4514,19,Jits_Linear_5,3,5,80,127,1599955252
4514,19,Jits_Linear_5,4,5,56,103,1599995192
4514,19,Jits_Linear_5,0,1,38,42,1600534932
4514,19,Jits_Linear_5,1,5,56,103,1600624868
4514,19,Jits_Linear_5,2,5,63,98,1600705048
4514,19,Jits_Linear_5,3,5,80,127,1600708336
4514,19,Jits_Linear_5,0,1,38,49,1601275584
4514,19,Jits_Linear_5,1,5,80,127,1601395024
4514,19,Jits_Linear_5,2,5,56,103,1601424948
4514,19,Jits_Linear_5,3,5,63,98,1601428016
4514,19,Jits_Linear_5,0,1,38,53,1601957864
4514,19,Jits_Linear_5,1,5,56,103,1602074992
4514,19,Jits_Linear_5,2,5,80,127,1602094332
4514,19,Jits_Linear_5,3,5,63,98,1602135464
4514,19,Jits_Linear_5,0,1,38,62,1602644932
4514,19,Jits_Linear_5,1,5,80,127,1602775340
4514,19,Jits_Linear_5,2,5,63,98,1602794752
4514,19,Jits_Linear_5,3,5,56,103,1602855292
4514,19,Jits_Linear_5,0,1,38,53,1603434668
4514,19,Jits_Linear_5,1,1,48,13,1603450000
4514,19,Jits_Linear_5,2,5,63,98,1603504356
4514,19,Jits_Linear_5,3,5,56,103,1603514996
4514,19,Jits_Linear_5,4,5,80,127,1603565008
4514,19,Jits_Linear_5,0,1,38,61,1604191868
4514,19,Jits_Linear_5,1,5,56,103,1604215132
4514,19,Jits_Linear_5,2,5,63,98,1604234572
4514,19,Jits_Linear_5,3,5,80,127,1604244916
4514,19,Jits_Linear_5,0,1,38,58,1604848092
4514,19,Jits_Linear_5,1,5,56,103,1604934956
4514,19,Jits_Linear_5,2,5,63,98,1604937948
4514,19,Jits_Linear_5,3,5,80,127,1604954428
4514,19,Jits_Linear_5,0,1,38,55,1605539880
4514,19,Jits_Linear_5,1,5,63,98,1605705104
4514,19,Jits_Linear_5,2,5,56,103,1605734860
4514,19,Jits_Linear_5,3,5,80,127,1605764708
4514,19,Jits_Linear_5,0,1,38,48,1606232112
4514,19,Jits_Linear_5,1,5,80,127,1606395416
4514,19,Jits_Linear_5,2,5,56,103,1606485628
4514,19,Jits_Linear_5,3,5,63,98,1606488696
4514,19,Jits_Linear_5,0,5,56,103,1607125300
4514,19,Jits_Linear_5,1,5,80,127,1607128440
4514,19,Jits_Linear_5,2,5,63,98,1607205244
4514,19,Jits_Linear_5,3,1,38,38,1607221544
4514,19,Jits_Linear_5,0,1,38,59,1607843600
4514,19,Jits_Linear_5,1,5,80,127,1607854636
4514,19,Jits_Linear_5,2,5,63,98,1607914808
4514,19,Jits_Linear_5,3,5,56,103,1607944844
4514,19,Jits_Linear_5,0,1,38,58,1608533588
4514,19,Jits_Linear_5,1,5,63,98,1608584732
4514,19,Jits_Linear_5,2,5,80,127,1608594784
4514,19,Jits_Linear_5,3,5,56,103,1608664448
4514,19,Jits_Linear_5,0,1,38,52,1609242532
4514,19,Jits_Linear_5,1,5,56,103,1609345676
4514,19,Jits_Linear_5,2,5,80,127,1609375056
4514,19,Jits_Linear_5,3,5,63,98,1609425256
4514,19,Jits_Linear_5,0,1,38,37,1609983728
4514,19,Jits_Linear_5,1,5,63,98,1610124772
4514,19,Jits_Linear_5,2,5,56,103,1610155492
4514,19,Jits_Linear_5,3,5,80,127,1610158488
4514,19,Jits_Linear_5,0,1,38,48,1610768276
4514,19,Jits_Linear_5,1,5,63,98,1610865096
4514,19,Jits_Linear_5,2,5,80,127,1610884460
4514,19,Jits_Linear_5,3,5,56,103,1610894880
4514,19,Jits_Linear_5,0,1,38,38,1611494036
4514,19,Jits_Linear_5,1,5,56,103,1611614596
4514,19,Jits_Linear_5,2,5,63,98,1611617664
4514,19,Jits_Linear_5,3,5,80,127,1611634908
4514,19,Jits_Linear_5,0,1,38,27,1612214460
4514,19,Jits_Linear_5,1,5,56,103,1612314940
4514,19,Jits_Linear_5,2,5,63,98,1612325508
4514,19,Jits_Linear_5,3,5,80,127,1612354888
4514,19,Jits_Linear_5,0,1,38,31,1612969636
4514,19,Jits_Linear_5,1,5,63,98,1613085116
4514,19,Jits_Linear_5,2,5,80,127,1613104456
4514,19,Jits_Linear_5,3,5,56,103,1613144544
4514,19,Jits_Linear_5,0,1,38,25,1613850632
4514,19,Jits_Linear_5,1,5,56,103,1613865272
4514,19,Jits_Linear_5,2,5,63,98,1613905212
4514,19,Jits_Linear_5,3,5,80,127,1613908648
4514,19,Jits_Linear_5,0,1,38,48,1614547900
4514,19,Jits_Linear_5,1,5,80,127,1614554600
4514,19,Jits_Linear_5,2,5,56,103,1614594764
4514,19,Jits_Linear_5,3,5,63,98,1614644580
4514,19,Jits_Linear_5,0,1,38,45,1615232896
4514,19,Jits_Linear_5,1,5,56,103,1615364324
4514,19,Jits_Linear_5,2,5,80,127,1615374596
4514,19,Jits_Linear_5,3,5,63,98,1615405468
4514,19,Jits_Linear_5,0,5,56,103,1616064996
4514,19,Jits_Linear_5,1,5,80,127,1616104788
4514,19,Jits_Linear_5,2,5,63,98,1616155212
4514,19,Jits_Linear_5,3,1,38,40,1616234452
4514,19,Jits_Linear_5,0,1,38,50,1616760420
4514,19,Jits_Linear_5,1,5,56,103,1616824688
4514,19,Jits_Linear_5,2,5,80,127,1616864692
4514,19,Jits_Linear_5,3,5,63,98,1616914892
4514,19,Jits_Linear_5,0,1,38,48,1617558200
4514,19,Jits_Linear_5,1,5,80,127,1617575460
4514,19,Jits_Linear_5,2,5,63,98,1617656368
4514,19,Jits_Linear_5,3,5,56,103,1617665368
4514,19,Jits_Linear_5,0,1,38,43,1618345316
4514,19,Jits_Linear_5,1,5,80,127,1618385200
4514,19,Jits_Linear_5,2,5,56,103,1618394572
4514,19,Jits_Linear_5,3,5,63,98,1618414884
4514,19,Jits_Linear_5,0,1,38,51,1618982908
4514,19,Jits_Linear_5,1,5,63,98,1619115504
4514,19,Jits_Linear_5,2,5,56,103,1619184964
4514,19,Jits_Linear_5,3,5,80,127,1619188028
4514,19,Jits_Linear_5,0,1,38,46,1619773400
4514,19,Jits_Linear_5,1,5,80,127,1619875184
4514,19,Jits_Linear_5,2,5,63,98,1619925240
4514,19,Jits_Linear_5,3,5,56,103,1619965252
4514,19,Jits_Linear_5,0,1,38,38,1620610356
4514,19,Jits_Linear_5,1,5,63,98,1620685460
4514,19,Jits_Linear_5,2,5,56,103,1620725384
4514,19,Jits_Linear_5,3,5,80,127,1620735580
4514,19,Jits_Linear_5,0,1,38,48,1621343436
4514,19,Jits_Linear_5,1,5,63,98,1621444840
4514,19,Jits_Linear_5,2,5,56,103,1621464552
4514,19,Jits_Linear_5,3,5,80,127,1621484860
4514,19,Jits_Linear_5,0,1,38,45,1622043480
4514,19,Jits_Linear_5,1,5,80,127,1622175232
4514,19,Jits_Linear_5,2,5,56,103,1622185280
4514,19,Jits_Linear_5,3,5,63,98,1622205436
4514,19,Jits_Linear_5,0,1,38,34,1622788768
4514,19,Jits_Linear_5,1,5,63,98,1622974848
4514,19,Jits_Linear_5,2,5,56,103,1623014644
4514,19,Jits_Linear_5,3,5,80,127,1623044396
4514,19,Jits_Linear_5,0,1,38,41,1623676240
4514,19,Jits_Linear_5,1,5,56,103,1623755088
4514,19,Jits_Linear_5,2,5,63,98,1623784824
4514,19,Jits_Linear_5,3,5,80,127,1623814500
4514,19,Jits_Linear_5,0,1,38,45,1624457804
4514,19,Jits_Linear_5,1,5,80,127,1624504660
4514,19,Jits_Linear_5,2,5,56,103,1624575304
4514,19,Jits_Linear_5,3,5,63,98,1624578520
4514,19,Jits_Linear_5,0,1,38,44,1625224308
4514,19,Jits_Linear_5,1,5,56,103,1625295208
4514,19,Jits_Linear_5,2,5,63,98,1625345396
4514,19,Jits_Linear_5,3,5,80,127,1625375296
4514,19,Jits_Linear_5,0,1,38,36,1626039652
4514,19,Jits_Linear_5,1,5,63,98,1626055420
4514,19,Jits_Linear_5,2,5,80,127,1626058480
4514,19,Jits_Linear_5,3,5,56,103,1626114460
4514,19,Jits_Linear_5,0,1,38,44,1626721600
4514,19,Jits_Linear_5,1,5,56,103,1626865124
4514,19,Jits_Linear_5,2,5,80,127,1626875468
4514,19,Jits_Linear_5,3,5,63,98,1626925596
4514,19,Jits_Linear_5,0,5,63,98,1627624760
4514,19,Jits_Linear_5,1,5,56,103,1627635252
4514,19,Jits_Linear_5,2,1,38,41,1627641288
4514,19,Jits_Linear_5,3,5,80,127,1627664700
4514,19,Jits_Linear_5,0,1,38,45,1628298164
4514,19,Jits_Linear_5,1,5,63,98,1628445108
4514,19,Jits_Linear_5,2,5,80,127,1628448320
4514,19,Jits_Linear_5,3,5,56,103,1628474856
4514,19,Jits_Linear_5,0,1,38,47,1629154576
4514,19,Jits_Linear_5,1,5,63,98,1629255132
4514,19,Jits_Linear_5,2,5,56,103,1629274388
4514,19,Jits_Linear_5,3,5,80,127,1629277464
4514,19,Jits_Linear_5,0,1,38,44,1629915156
4514,19,Jits_Linear_5,1,5,63,98,1630004564
4514,19,Jits_Linear_5,2,5,56,103,1630075380
4514,19,Jits_Linear_5,3,5,80,127,1630094792
4514,19,Jits_Linear_5,0,1,38,33,1630673496
4514,19,Jits_Linear_5,1,5,56,103,1630785140
4514,19,Jits_Linear_5,2,5,63,98,1630795112
4514,19,Jits_Linear_5,3,5,80,127,1630885196
4514,19,Jits_Linear_5,0,1,38,42,1631421100
4514,19,Jits_Linear_5,1,5,56,103,1631594804
4514,19,Jits_Linear_5,2,5,80,127,1631634916
4514,19,Jits_Linear_5,3,5,63,98,1631645188
4514,19,Jits_Linear_5,0,1,38,28,1632364748
4514,19,Jits_Linear_5,1,5,56,103,1632414992
4514,19,Jits_Linear_5,2,5,63,98,1632444892
4514,19,Jits_Linear_5,3,5,80,127,1632474332
4514,19,Jits_Linear_5,0,5,80,127,1633174988
4514,19,Jits_Linear_5,1,1,38,39,1633203060
4514,19,Jits_Linear_5,2,5,63,98,1633214996
4514,19,Jits_Linear_5,3,5,56,103,1633235304
4514,19,Jits_Linear_5,0,1,38,39,1633942752
4514,19,Jits_Linear_5,1,5,56,103,1634014620
4514,19,Jits_Linear_5,2,5,80,127,1634035084
4514,19,Jits_Linear_5,3,5,63,98,1634054628
4514,19,Jits_Linear_5,0,5,63,98,1634784508
4514,19,Jits_Linear_5,1,1,38,45,1634792412
4514,19,Jits_Linear_5,2,5,56,103,1634795068
4514,19,Jits_Linear_5,3,5,80,127,1634855236
4514,19,Jits_Linear_5,0,5,56,103,1635594764
4514,19,Jits_Linear_5,1,1,38,43,1635601248
4514,19,Jits_Linear_5,2,5,63,98,1635665268
4514,19,Jits_Linear_5,3,5,80,127,1635684976
4514,19,Jits_Linear_5,0,1,38,35,1636392632
4514,19,Jits_Linear_5,1,5,56,103,1636404808
4514,19,Jits_Linear_5,2,5,63,98,1636435308
4514,19,Jits_Linear_5,3,5,80,127,1636475348
4514,19,Jits_Linear_5,0,1,38,37,1637184928
4514,19,Jits_Linear_5,1,5,63,98,1637205328
4514,19,Jits_Linear_5,2,5,56,103,1637254512
4514,19,Jits_Linear_5,3,5,80,127,1637264856
4514,19,Jits_Linear_5,0,1,38,37,1637990680
4514,19,Jits_Linear_5,1,5,56,103,1638055396
4514,19,Jits_Linear_5,2,5,63,98,1638104392
4514,19,Jits_Linear_5,3,5,80,127,1638114660
4514,19,Jits_Linear_5,0,5,56,103,1638834500
4514,19,Jits_Linear_5,1,5,63,98,1638844696
4514,19,Jits_Linear_5,2,1,38,29,1638860396
4514,19,Jits_Linear_5,3,5,80,127,1638924856
4514,19,Jits_Linear_5,0,9999,9999,9999,1530072188
4514,19,Jits_Linear_5,1,9999,9999,9999,1530552396
4514,19,Jits_Linear_5,2,9999,9999,9999,1531032680
4514,19,Jits_Linear_5,3,9999,9999,9999,1531512948
4514,19,Jits_Linear_5,4,9999,9999,9999,1531992184
4514,19,Jits_Linear_5,5,9999,9999,9999,1532482664
4514,19,Jits_Linear_5,6,9999,9999,9999,1532972136
4514,19,Jits_Linear_5,7,9999,9999,9999,1533462624
4514,19,Jits_Linear_5,8,9999,9999,9999,1533952128
4514,19,Jits_Linear_5,9,9999,9999,9999,1534442616
4514,19,Jits_Linear_5,10,9999,9999,9999,1534942316
4514,19,Jits_Linear_5,11,9999,9999,9999,1535443000
4514,19,Jits_Linear_5,12,9999,9999,9999,1535942756
4514,19,Jits_Linear_5,13,9999,9999,9999,1536442448
4514,19,Jits_Linear_5,14,9999,9999,9999,1536942132
4514,19,Jits_Linear_5,15,9999,9999,9999,1537452156
4514,19,Jits_Linear_5,16,9999,9999,9999,1537963080
4514,19,Jits_Linear_5,17,9999,9999,9999,1538482248
4514,19,Jits_Linear_5,18,9999,9999,9999,1538992200
4514,19,Jits_Linear_5,19,9999,9999,9999,1539502152
4514,19,Jits_Linear_5,20,9999,9999,9999,1540022368
4514,19,Jits_Linear_5,21,9999,9999,9999,1540542584
4514,19,Jits_Linear_5,22,9999,9999,9999,1541062720
4514,19,Jits_Linear_5,23,9999,9999,9999,1541582940
4514,19,Jits_Linear_5,24,9999,9999,9999,1542102108
4514,19,Jits_Linear_5,25,9999,9999,9999,1542632504
4514,19,Jits_Linear_5,26,9999,9999,9999,1543162984
4514,19,Jits_Linear_5,27,9999,9999,9999,1543692392
4514,19,Jits_Linear_5,28,9999,9999,9999,1544222804
4514,19,Jits_Linear_5,29,9999,9999,9999,1544752236
4514,19,Jits_Linear_5,30,9999,9999,9999,1545292904
4514,19,Jits_Linear_5,31,9999,9999,9999,1545832540
4514,19,Jits_Linear_5,32,9999,9999,9999,1546372184
4514,19,Jits_Linear_5,33,9999,9999,9999,1546912856
4514,19,Jits_Linear_5,34,9999,9999,9999,1547452480
4514,19,Jits_Linear_5,35,9999,9999,9999,1548002368
4514,19,Jits_Linear_5,36,9999,9999,9999,1548552316
4514,19,Jits_Linear_5,37,9999,9999,9999,1549102204
4514,19,Jits_Linear_5,38,9999,9999,9999,1549653064
4514,19,Jits_Linear_5,39,9999,9999,9999,1550202948
4514,19,Jits_Linear_5,40,9999,9999,9999,1550763120
4514,19,Jits_Linear_5,41,9999,9999,9999,1551332408
4514,19,Jits_Linear_5,42,9999,9999,9999,1551892556
4514,19,Jits_Linear_5,43,9999,9999,9999,1552452700
4514,19,Jits_Linear_5,44,9999,9999,9999,1553012848
4514,19,Jits_Linear_5,45,9999,9999,9999,1553582152
4514,19,Jits_Linear_5,46,9999,9999,9999,1554152564
4514,19,Jits_Linear_5,47,9999,9999,9999,1554722908
4514,19,Jits_Linear_5,48,9999,9999,9999,1555292276
4514,19,Jits_Linear_5,49,9999,9999,9999,1555862644
4514,19,Jits_Linear_5,50,9999,9999,9999,1556442192
4514,19,Jits_Linear_5,51,9999,9999,9999,1557022820
4514,19,Jits_Linear_5,52,9999,9999,9999,1557602372
4514,19,Jits_Linear_5,53,9999,9999,9999,1558183000
4514,19,Jits_Linear_5,54,9999,9999,9999,1558762556
4514,19,Jits_Linear_5,55,9999,9999,9999,1559352376
4514,19,Jits_Linear_5,56,9999,9999,9999,1559942216
4514,19,Jits_Linear_5,57,9999,9999,9999,1560533052
4514,19,Jits_Linear_5,58,9999,9999,9999,1561122944
4514,19,Jits_Linear_5,59,9999,9999,9999,1561712712
4514,19,Jits_Linear_5,60,9999,9999,9999,1562312812
4514,19,Jits_Linear_5,61,9999,9999,9999,1562912888
4514,19,Jits_Linear_5,62,9999,9999,9999,1563512948
4514,19,Jits_Linear_5,63,9999,9999,9999,1564112968
4514,19,Jits_Linear_5,64,9999,9999,9999,1564713088
4514,19,Jits_Linear_5,65,9999,9999,9999,1565322368
4514,19,Jits_Linear_5,66,9999,9999,9999,1565932600
4514,19,Jits_Linear_5,67,9999,9999,9999,1566542928
4514,19,Jits_Linear_5,68,9999,9999,9999,1567152256
4514,19,Jits_Linear_5,69,9999,9999,9999,1567762528
4514,19,Jits_Linear_5,70,9999,9999,9999,1568383032
4514,19,Jits_Linear_5,71,9999,9999,9999,1569002600
4514,19,Jits_Linear_5,72,9999,9999,9999,1569622116
4514,19,Jits_Linear_5,73,9999,9999,9999,1570242668
4514,19,Jits_Linear_5,74,9999,9999,9999,1570862184
4514,19,Jits_Linear_5,75,9999,9999,9999,1571492924
4514,19,Jits_Linear_5,76,9999,9999,9999,1572122684
4514,19,Jits_Linear_5,77,9999,9999,9999,1572752464
4514,19,Jits_Linear_5,78,9999,9999,9999,1573382212
4514,19,Jits_Linear_5,79,9999,9999,9999,1574013032
4514,19,Jits_Linear_5,80,9999,9999,9999,1574653048
4514,19,Jits_Linear_5,81,9999,9999,9999,1575293012
4514,19,Jits_Linear_5,82,9999,9999,9999,1575933024
4514,19,Jits_Linear_5,83,9999,9999,9999,1576572988
4514,19,Jits_Linear_5,84,9999,9999,9999,1577213004
4514,19,Jits_Linear_5,85,9999,9999,9999,1577862256
4514,19,Jits_Linear_5,86,9999,9999,9999,1578512456
4514,19,Jits_Linear_5,87,9999,9999,9999,1579162684
4514,19,Jits_Linear_5,88,9999,9999,9999,1579812960
4514,19,Jits_Linear_5,89,9999,9999,9999,1580462136
4514,19,Jits_Linear_5,90,9999,9999,9999,1581122680
4514,19,Jits_Linear_5,91,9999,9999,9999,1581782124
4514,19,Jits_Linear_5,92,9999,9999,9999,1582442576
4514,19,Jits_Linear_5,93,9999,9999,9999,1583103068
4514,19,Jits_Linear_5,94,9999,9999,9999,1583762532
4514,19,Jits_Linear_5,95,9999,9999,9999,1584432244
4514,19,Jits_Linear_5,96,9999,9999,9999,1585102924
4514,19,Jits_Linear_5,97,9999,9999,9999,1585772604
4514,19,Jits_Linear_5,98,9999,9999,9999,1586442312
4514,19,Jits_Linear_5,99,9999,9999,9999,1587113068
4514,19,Jits_Linear_5,100,9999,9999,9999,1587793012
4514,19,Jits_Linear_5,101,9999,9999,9999,1588472912
4514,19,Jits_Linear_5,102,9999,9999,9999,1589152876
4514,19,Jits_Linear_5,103,9999,9999,9999,1589832824
4514,19,Jits_Linear_5,104,9999,9999,9999,1590512720
4514,19,Jits_Linear_5,105,9999,9999,9999,1591202876
4514,19,Jits_Linear_5,106,9999,9999,9999,1591893088
4514,19,Jits_Linear_5,107,9999,9999,9999,1592582232
4514,19,Jits_Linear_5,108,9999,9999,9999,1593272412
4514,19,Jits_Linear_5,109,9999,9999,9999,1593962580
4514,19,Jits_Linear_5,110,9999,9999,9999,1594663000
4514,19,Jits_Linear_5,111,9999,9999,9999,1595362376
4514,19,Jits_Linear_5,112,9999,9999,9999,1596062796
4514,19,Jits_Linear_5,113,9999,9999,9999,1596762228
4514,19,Jits_Linear_5,114,9999,9999,9999,1597462644
4514,19,Jits_Linear_5,115,9999,9999,9999,1598172256
4514,19,Jits_Linear_5,116,9999,9999,9999,1598882944
4514,19,Jits_Linear_5,117,9999,9999,9999,1599592524
4514,19,Jits_Linear_5,118,9999,9999,9999,1600302188
4514,19,Jits_Linear_5,119,9999,9999,9999,1601012792
4514,19,Jits_Linear_5,120,9999,9999,9999,1601732692
4514,19,Jits_Linear_5,121,9999,9999,9999,1602452600
4514,19,Jits_Linear_5,122,9999,9999,9999,1603172476
4514,19,Jits_Linear_5,123,9999,9999,9999,1603892304
4514,19,Jits_Linear_5,124,9999,9999,9999,1604612200
4514,19,Jits_Linear_5,125,9999,9999,9999,1605342280
4514,19,Jits_Linear_5,126,9999,9999,9999,1606072376
4514,19,Jits_Linear_5,127,9999,9999,9999,1606802536
4514,19,Jits_Linear_5,128,9999,9999,9999,1607532668
4514,19,Jits_Linear_5,129,9999,9999,9999,1608262776
4514,19,Jits_Linear_5,130,9999,9999,9999,1609003132
4514,19,Jits_Linear_5,131,9999,9999,9999,1609752628
4514,19,Jits_Linear_5,132,9999,9999,9999,1610493052
4514,19,Jits_Linear_5,133,9999,9999,9999,1611232364
4514,19,Jits_Linear_5,134,9999,9999,9999,1611972712
4514,19,Jits_Linear_5,135,9999,9999,9999,1612722288
4514,19,Jits_Linear_5,136,9999,9999,9999,1613472836
4514,19,Jits_Linear_5,137,9999,9999,9999,1614222404
4514,19,Jits_Linear_5,138,9999,9999,9999,1614973020
4514,19,Jits_Linear_5,139,9999,9999,9999,1615722576
4514,19,Jits_Linear_5,140,9999,9999,9999,1616482412
4514,19,Jits_Linear_5,141,9999,9999,9999,1617242192
4514,19,Jits_Linear_5,142,9999,9999,9999,1618003000
4514,19,Jits_Linear_5,143,9999,9999,9999,1618762844
4514,19,Jits_Linear_5,144,9999,9999,9999,1619522672
4514,19,Jits_Linear_5,145,9999,9999,9999,1620292700
4514,19,Jits_Linear_5,146,9999,9999,9999,1621062732
4514,19,Jits_Linear_5,147,9999,9999,9999,1621832760
4514,19,Jits_Linear_5,148,9999,9999,9999,1622602856
4514,19,Jits_Linear_5,149,9999,9999,9999,1623372888
4514,19,Jits_Linear_5,150,9999,9999,9999,1624152136
4514,19,Jits_Linear_5,151,9999,9999,9999,1624932416
4514,19,Jits_Linear_5,152,9999,9999,9999,1625712712
4514,19,Jits_Linear_5,153,9999,9999,9999,1626493004
4514,19,Jits_Linear_5,154,9999,9999,9999,1627272248
4514,19,Jits_Linear_5,155,9999,9999,9999,1628062800
4514,19,Jits_Linear_5,156,9999,9999,9999,1628852296
4514,19,Jits_Linear_5,157,9999,9999,9999,1629642844
4514,19,Jits_Linear_5,158,9999,9999,9999,1630432352
4514,19,Jits_Linear_5,159,9999,9999,9999,1631222904
4514,19,Jits_Linear_5,160,9999,9999,9999,1632022600
4514,19,Jits_Linear_5,161,9999,9999,9999,1632822376
4514,19,Jits_Linear_5,162,9999,9999,9999,1633622144
4514,19,Jits_Linear_5,163,9999,9999,9999,1634422900
4514,19,Jits_Linear_5,164,9999,9999,9999,1635222624
4514,19,Jits_Linear_5,165,9999,9999,9999,1636032588
4514,19,Jits_Linear_5,166,9999,9999,9999,1636842560
4514,19,Jits_Linear_5,167,9999,9999,9999,1637652596
4514,19,Jits_Linear_5,168,9999,9999,9999,1638462560
4514,19,Jits_Linear_5,169,9999,9999,9999,1639272520
4515,18,Jits_Linear_8,0,5,56,103,1651933472
4515,18,Jits_Linear_8,1,5,63,98,1651936568
4515,18,Jits_Linear_8,2,5,80,127,1651939468
4515,18,Jits_Linear_8,0,1,38,51,1652476516
4515,18,Jits_Linear_8,1,5,56,103,1652753752
4515,18,Jits_Linear_8,2,5,63,98,1652757156
4515,18,Jits_Linear_8,3,5,80,127,1652760276
4515,18,Jits_Linear_8,0,5,80,127,1653513448
4515,18,Jits_Linear_8,1,1,38,51,1653520300
4515,18,Jits_Linear_8,2,5,63,98,1653603652
4515,18,Jits_Linear_8,3,5,56,103,1653615324
4515,18,Jits_Linear_8,0,5,56,103,1654354568
4515,18,Jits_Linear_8,1,5,63,98,1654363568
4515,18,Jits_Linear_8,2,1,38,54,1654402904
4515,18,Jits_Linear_8,3,5,80,127,1654453572
4515,18,Jits_Linear_8,0,5,63,98,1655143700
4515,18,Jits_Linear_8,1,1,38,54,1655154240
4515,18,Jits_Linear_8,2,5,80,127,1655173468
4515,18,Jits_Linear_8,3,5,56,103,1655204412
4515,18,Jits_Linear_8,0,1,38,59,1655928740
4515,18,Jits_Linear_8,1,5,56,103,1655964212
4515,18,Jits_Linear_8,2,5,80,127,1656064228
4515,18,Jits_Linear_8,3,5,63,98,1656113456
4515,18,Jits_Linear_8,0,1,38,62,1656773412
4515,18,Jits_Linear_8,1,5,56,103,1656776248
4515,18,Jits_Linear_8,2,5,80,127,1656824284
4515,18,Jits_Linear_8,3,5,63,98,1656864372
4515,18,Jits_Linear_8,0,1,38,68,1657609536
4515,18,Jits_Linear_8,1,5,80,127,1657613692
4515,18,Jits_Linear_8,2,5,63,98,1657644420
4515,18,Jits_Linear_8,3,5,56,103,1657714160
4515,18,Jits_Linear_8,0,1,38,69,1658443616
4515,18,Jits_Linear_8,1,5,63,98,1658454504
4515,18,Jits_Linear_8,2,5,56,103,1658484328
4515,18,Jits_Linear_8,3,5,80,127,1658543388
4515,18,Jits_Linear_8,0,5,56,103,1659203920
4515,18,Jits_Linear_8,1,5,80,127,1659207284
4515,18,Jits_Linear_8,2,1,38,65,1659221712
4515,18,Jits_Linear_8,3,5,63,98,1659323724
4515,18,Jits_Linear_8,0,1,38,55,1660021756
4515,18,Jits_Linear_8,1,5,56,103,1660083492
4515,18,Jits_Linear_8,2,5,80,127,1660123492
4515,18,Jits_Linear_8,3,5,63,98,1660133688
4515,18,Jits_Linear_8,0,5,56,103,1660844372
4515,18,Jits_Linear_8,1,1,38,59,1660847192
4515,18,Jits_Linear_8,2,5,80,127,1660864000
4515,18,Jits_Linear_8,3,5,63,98,1660943704
4515,18,Jits_Linear_8,0,5,80,127,1661634100
4515,18,Jits_Linear_8,1,1,38,51,1661667860
4515,18,Jits_Linear_8,2,5,56,103,1661734196
4515,18,Jits_Linear_8,3,5,63,98,1661743496
4515,18,Jits_Linear_8,0,5,63,98,1662404052
4515,18,Jits_Linear_8,1,1,38,57,1662463240
4515,18,Jits_Linear_8,2,5,80,127,1662466236
4515,18,Jits_Linear_8,3,5,56,103,1662473664
4515,18,Jits_Linear_8,0,1,38,72,1663144208
4515,18,Jits_Linear_8,1,5,56,103,1663203572
4515,18,Jits_Linear_8,2,5,63,98,1663274288
4515,18,Jits_Linear_8,3,5,80,127,1663277876
4515,18,Jits_Linear_8,0,1,38,70,1663950232
4515,18,Jits_Linear_8,1,5,63,98,1664034108
4515,18,Jits_Linear_8,2,5,56,103,1664084296
4515,18,Jits_Linear_8,3,5,80,127,1664087436
4515,18,Jits_Linear_8,0,1,38,67,1664766468
4515,18,Jits_Linear_8,1,5,56,103,1664783572
4515,18,Jits_Linear_8,2,5,80,127,1664786644
4515,18,Jits_Linear_8,3,5,63,98,1664873920
4515,18,Jits_Linear_8,0,1,38,63,1665607560
4515,18,Jits_Linear_8,1,5,63,98,1665614260
4515,18,Jits_Linear_8,2,5,56,103,1665704260
4515,18,Jits_Linear_8,3,5,80,127,1665734156
4515,18,Jits_Linear_8,0,5,56,103,1666393424
4515,18,Jits_Linear_8,1,1,38,57,1666419460
4515,18,Jits_Linear_8,2,5,63,98,1666493916
4515,18,Jits_Linear_8,3,5,80,127,1666523504
4515,18,Jits_Linear_8,0,5,63,98,1667203488
4515,18,Jits_Linear_8,1,5,56,103,1667213760
4515,18,Jits_Linear_8,2,1,38,67,1667229012
4515,18,Jits_Linear_8,3,5,80,127,1667304036
4515,18,Jits_Linear_8,0,5,63,98,1668004068
4515,18,Jits_Linear_8,1,1,38,67,1668010252
4515,18,Jits_Linear_8,2,5,56,103,1668084008
4515,18,Jits_Linear_8,3,5,80,127,1668087000
4515,18,Jits_Linear_8,0,5,80,127,1668743728
4515,18,Jits_Linear_8,1,5,63,98,1668763892
4515,18,Jits_Linear_8,2,1,38,59,1668820940
4515,18,Jits_Linear_8,3,5,56,103,1668824496
4515,18,Jits_Linear_8,0,1,38,61,1669483728
4515,18,Jits_Linear_8,1,1,48,15,1669499244
4515,18,Jits_Linear_8,2,5,56,103,1669563716
4515,18,Jits_Linear_8,3,5,63,98,1669584232
4515,18,Jits_Linear_8,4,5,80,127,1669587820
4515,18,Jits_Linear_8,0,5,63,98,1670283580
4515,18,Jits_Linear_8,1,1,38,42,1670321992
4515,18,Jits_Linear_8,2,5,80,127,1670363448
4515,18,Jits_Linear_8,3,5,56,103,1670374012
4515,18,Jits_Linear_8,0,5,63,98,1671093820
4515,18,Jits_Linear_8,1,5,56,103,1671114056
4515,18,Jits_Linear_8,2,1,38,44,1671152096
4515,18,Jits_Linear_8,3,5,80,127,1671164252
4515,18,Jits_Linear_8,4,1,48,15,1671167964
4515,18,Jits_Linear_8,0,5,80,127,1671873900
4515,18,Jits_Linear_8,1,1,38,53,1671896048
4515,18,Jits_Linear_8,2,5,63,98,1671913908
4515,18,Jits_Linear_8,3,5,56,103,1671934516
4515,18,Jits_Linear_8,0,5,56,103,1672684000
4515,18,Jits_Linear_8,1,5,63,98,1672694124
4515,18,Jits_Linear_8,2,5,80,127,1672713612
4515,18,Jits_Linear_8,3,1,38,52,1672720916
4515,18,Jits_Linear_8,4,1,48,16,1672736408
4515,18,Jits_Linear_8,0,5,56,103,1673384300
4515,18,Jits_Linear_8,1,5,63,98,1673474364
4515,18,Jits_Linear_8,2,1,38,71,1673525804
4515,18,Jits_Linear_8,3,5,80,127,1673533924
4515,18,Jits_Linear_8,0,5,80,127,1674184140
4515,18,Jits_Linear_8,1,5,56,103,1674194484
4515,18,Jits_Linear_8,2,1,38,53,1674243836
4515,18,Jits_Linear_8,3,1,48,17,1674259540
4515,18,Jits_Linear_8,4,5,63,98,1674264140
4515,18,Jits_Linear_8,0,1,38,62,1674979924
4515,18,Jits_Linear_8,1,5,63,98,1674983708
4515,18,Jits_Linear_8,2,1,48,15,1674995368
4515,18,Jits_Linear_8,3,5,80,127,1675073900
4515,18,Jits_Linear_8,4,5,56,103,1675084096
4515,18,Jits_Linear_8,0,5,63,98,1675684328
4515,18,Jits_Linear_8,1,5,80,127,1675734528
4515,18,Jits_Linear_8,2,1,38,66,1675741780
4515,18,Jits_Linear_8,3,1,48,16,1675757480
4515,18,Jits_Linear_8,4,5,56,103,1675793848
4515,18,Jits_Linear_8,0,5,56,103,1676473828
4515,18,Jits_Linear_8,1,1,38,54,1676489008
4515,18,Jits_Linear_8,2,1,48,14,1676504208
4515,18,Jits_Linear_8,3,5,80,127,1676523932
4515,18,Jits_Linear_8,4,5,63,98,1676544320
4515,18,Jits_Linear_8,0,5,56,103,1677203872
4515,18,Jits_Linear_8,1,1,38,46,1677251184
4515,18,Jits_Linear_8,2,5,80,127,1677264256
4515,18,Jits_Linear_8,3,5,63,98,1677333864
4515,18,Jits_Linear_8,0,5,56,103,1677963928
4515,18,Jits_Linear_8,1,5,80,127,1677994280
4515,18,Jits_Linear_8,2,5,63,98,1678024032
4515,18,Jits_Linear_8,3,1,38,65,1678034644
4515,18,Jits_Linear_8,0,1,38,63,1678710156
4515,18,Jits_Linear_8,1,5,56,103,1678773652
4515,18,Jits_Linear_8,2,5,80,127,1678794036
4515,18,Jits_Linear_8,3,5,63,98,1678853516
4515,18,Jits_Linear_8,0,1,38,57,1679472888
4515,18,Jits_Linear_8,1,5,80,127,1679614524
4515,18,Jits_Linear_8,2,5,56,103,1679623748
4515,18,Jits_Linear_8,3,5,63,98,1679633720
4515,18,Jits_Linear_8,0,5,56,103,1680323948
4515,18,Jits_Linear_8,1,1,38,67,1680338676
4515,18,Jits_Linear_8,2,5,80,127,1680363808
4515,18,Jits_Linear_8,3,5,63,98,1680393636
4515,18,Jits_Linear_8,0,5,56,103,1681043932
4515,18,Jits_Linear_8,1,5,63,98,1681073608
4515,18,Jits_Linear_8,2,5,80,127,1681113620
4515,18,Jits_Linear_8,3,1,38,59,1681134724
4515,18,Jits_Linear_8,0,5,80,127,1681744104
4515,18,Jits_Linear_8,1,5,63,98,1681794556
4515,18,Jits_Linear_8,2,5,56,103,1681813744
4515,18,Jits_Linear_8,3,1,38,59,1681833124
4515,18,Jits_Linear_8,0,5,56,103,1682523636
4515,18,Jits_Linear_8,1,1,38,65,1682547504
4515,18,Jits_Linear_8,2,5,80,127,1682594088
4515,18,Jits_Linear_8,3,5,63,98,1682653492
4515,18,Jits_Linear_8,0,5,80,127,1683263920
4515,18,Jits_Linear_8,1,1,38,59,1683340632
4515,18,Jits_Linear_8,2,5,63,98,1683353928
4515,18,Jits_Linear_8,3,5,56,103,1683373636
4515,18,Jits_Linear_8,0,5,63,98,1684023684
4515,18,Jits_Linear_8,1,5,56,103,1684043996
4515,18,Jits_Linear_8,2,5,80,127,1684084160
4515,18,Jits_Linear_8,3,1,38,68,1684118540
4515,18,Jits_Linear_8,0,5,80,127,1684724088
4515,18,Jits_Linear_8,1,5,63,98,1684743576
4515,18,Jits_Linear_8,2,1,38,61,1684756512
4515,18,Jits_Linear_8,3,5,56,103,1684824560
4515,18,Jits_Linear_8,0,5,63,98,1685454372
4515,18,Jits_Linear_8,1,1,38,68,1685513468
4515,18,Jits_Linear_8,2,5,56,103,1685563684
4515,18,Jits_Linear_8,3,5,80,127,1685566748
4515,18,Jits_Linear_8,0,1,38,61,1686193776
4515,18,Jits_Linear_8,1,5,63,98,1686213880
4515,18,Jits_Linear_8,2,5,56,103,1686224372
4515,18,Jits_Linear_8,3,5,80,127,1686227440
4515,18,Jits_Linear_8,0,5,56,103,1686933752
4515,18,Jits_Linear_8,1,1,38,61,1686934720
4515,18,Jits_Linear_8,2,5,80,127,1687053612
4515,18,Jits_Linear_8,3,5,63,98,1687093552
4515,18,Jits_Linear_8,0,5,56,103,1687683404
4515,18,Jits_Linear_8,1,1,38,61,1687713500
4515,18,Jits_Linear_8,2,5,80,127,1687764468
4515,18,Jits_Linear_8,3,5,63,98,1687783732
4515,18,Jits_Linear_8,0,5,56,103,1688413620
4515,18,Jits_Linear_8,1,1,38,60,1688443368
4515,18,Jits_Linear_8,2,5,63,98,1688524376
4515,18,Jits_Linear_8,3,5,80,127,1688527592
4515,18,Jits_Linear_8,0,1,38,63,1689131472
4515,18,Jits_Linear_8,1,5,56,103,1689174492
4515,18,Jits_Linear_8,2,5,80,127,1689203948
4515,18,Jits_Linear_8,3,5,63,98,1689223668
4515,18,Jits_Linear_8,0,1,38,55,1689808560
4515,18,Jits_Linear_8,1,5,63,98,1689894308
4515,18,Jits_Linear_8,2,5,56,103,1689903456
4515,18,Jits_Linear_8,3,5,80,127,1689913712
4515,18,Jits_Linear_8,0,1,38,61,1690522912
4515,18,Jits_Linear_8,1,5,80,127,1690603924
4515,18,Jits_Linear_8,2,5,56,103,1690654112
4515,18,Jits_Linear_8,3,5,63,98,1690694276
4515,18,Jits_Linear_8,0,1,38,57,1691283028
4515,18,Jits_Linear_8,1,5,80,127,1691344488
4515,18,Jits_Linear_8,2,5,63,98,1691363604
4515,18,Jits_Linear_8,3,5,56,103,1691413788
4515,18,Jits_Linear_8,0,1,38,60,1692067272
4515,18,Jits_Linear_8,1,5,80,127,1692074344
4515,18,Jits_Linear_8,2,5,56,103,1692104168
4515,18,Jits_Linear_8,3,5,63,98,1692173684
4515,18,Jits_Linear_8,0,1,38,53,1692807240
4515,18,Jits_Linear_8,1,5,56,103,1692844356
4515,18,Jits_Linear_8,2,5,80,127,1692853580
4515,18,Jits_Linear_8,3,5,63,98,1692893444
4515,18,Jits_Linear_8,0,1,38,60,1693471132
4515,18,Jits_Linear_8,1,5,56,103,1693474236
4515,18,Jits_Linear_8,2,5,63,98,1693493576
4515,18,Jits_Linear_8,3,5,80,127,1693564316
4515,18,Jits_Linear_8,0,1,38,62,1694151676
4515,18,Jits_Linear_8,1,5,63,98,1694213456
4515,18,Jits_Linear_8,2,5,80,127,1694273760
4515,18,Jits_Linear_8,3,5,56,103,1694294440
4515,18,Jits_Linear_8,0,1,38,55,1694913344
4515,18,Jits_Linear_8,1,5,80,127,1694916180
4515,18,Jits_Linear_8,2,5,56,103,1694943616
4515,18,Jits_Linear_8,3,5,63,98,1694974264
4515,18,Jits_Linear_8,0,5,56,103,1695623492
4515,18,Jits_Linear_8,1,1,38,55,1695645192
4515,18,Jits_Linear_8,2,5,63,98,1695684028
4515,18,Jits_Linear_8,3,5,80,127,1695744328
4515,18,Jits_Linear_8,0,5,80,127,1696353640
4515,18,Jits_Linear_8,1,5,56,103,1696374272
4515,18,Jits_Linear_8,2,1,38,48,1696384068
4515,18,Jits_Linear_8,3,5,63,98,1696443648
4515,18,Jits_Linear_8,0,5,80,127,1697064400
4515,18,Jits_Linear_8,1,1,38,49,1697074272
4515,18,Jits_Linear_8,2,5,63,98,1697083732
4515,18,Jits_Linear_8,3,5,56,103,1697113336
4515,18,Jits_Linear_8,0,5,80,127,1697753440
4515,18,Jits_Linear_8,1,5,63,98,1697773900
4515,18,Jits_Linear_8,2,1,38,61,1697789152
4515,18,Jits_Linear_8,3,5,56,103,1697834432
4515,18,Jits_Linear_8,0,5,80,127,1698454008
4515,18,Jits_Linear_8,1,1,38,59,1698492048
4515,18,Jits_Linear_8,2,5,56,103,1698554180
4515,18,Jits_Linear_8,3,5,63,98,1698584436
4515,18,Jits_Linear_8,0,5,63,98,1699144296
4515,18,Jits_Linear_8,1,1,38,67,1699189540
4515,18,Jits_Linear_8,2,5,80,127,1699194444
4515,18,Jits_Linear_8,3,5,56,103,1699213632
4515,18,Jits_Linear_8,0,1,38,60,1699859276
4515,18,Jits_Linear_8,1,5,80,127,1699884336
4515,18,Jits_Linear_8,2,5,56,103,1699914160
4515,18,Jits_Linear_8,3,5,63,98,1699917300
4515,18,Jits_Linear_8,0,1,38,61,1700574572
4515,18,Jits_Linear_8,1,5,63,98,1700613632
4515,18,Jits_Linear_8,2,5,56,103,1700653424
4515,18,Jits_Linear_8,3,5,80,127,1700674016
4515,18,Jits_Linear_8,0,5,80,127,1701253444
4515,18,Jits_Linear_8,1,1,38,59,1701306836
4515,18,Jits_Linear_8,2,5,63,98,1701334360
4515,18,Jits_Linear_8,3,5,56,103,1701374300
4515,18,Jits_Linear_8,0,5,63,98,1701964116
4515,18,Jits_Linear_8,1,1,38,52,1701989104
4515,18,Jits_Linear_8,2,1,48,14,1702004564
4515,18,Jits_Linear_8,3,5,80,127,1702044148
4515,18,Jits_Linear_8,4,5,56,103,1702063412
4515,18,Jits_Linear_8,0,1,38,58,1702658092
4515,18,Jits_Linear_8,1,5,56,103,1702694232
4515,18,Jits_Linear_8,2,5,63,98,1702703456
4515,18,Jits_Linear_8,3,5,80,127,1702744368
4515,18,Jits_Linear_8,0,5,56,103,1703303540
4515,18,Jits_Linear_8,1,5,80,127,1703306752
4515,18,Jits_Linear_8,2,1,38,59,1703354156
4515,18,Jits_Linear_8,3,5,63,98,1703443932
4515,18,Jits_Linear_8,0,5,56,103,1703983324
4515,18,Jits_Linear_8,1,1,38,66,1704032076
4515,18,Jits_Linear_8,2,1,48,15,1704047712
4515,18,Jits_Linear_8,3,5,63,98,1704073536
4515,18,Jits_Linear_8,4,5,80,127,1704144248
4515,18,Jits_Linear_8,0,1,38,52,1704693948
4515,18,Jits_Linear_8,1,5,63,98,1704744240
4515,18,Jits_Linear_8,2,5,80,127,1704747900
4515,18,Jits_Linear_8,3,5,56,103,1704803644
4515,18,Jits_Linear_8,0,1,38,53,1705411044
4515,18,Jits_Linear_8,1,5,80,127,1705464200
4515,18,Jits_Linear_8,2,5,56,103,1705483612
4515,18,Jits_Linear_8,3,5,63,98,1705494108
4515,18,Jits_Linear_8,0,5,56,103,1706054012
4515,18,Jits_Linear_8,1,5,63,98,1706064284
4515,18,Jits_Linear_8,2,1,38,56,1706077368
4515,18,Jits_Linear_8,3,5,80,127,1706133980
4515,18,Jits_Linear_8,0,5,80,127,1706733980
4515,18,Jits_Linear_8,1,1,38,59,1706747360
4515,18,Jits_Linear_8,2,5,56,103,1706784104
4515,18,Jits_Linear_8,3,5,63,98,1706834232
4515,18,Jits_Linear_8,0,1,38,55,1707439904
4515,18,Jits_Linear_8,1,5,56,103,1707493884
4515,18,Jits_Linear_8,2,5,63,98,1707504080
4515,18,Jits_Linear_8,3,5,80,127,1707544004
4515,18,Jits_Linear_8,0,5,56,103,1708114268
4515,18,Jits_Linear_8,1,1,38,57,1708139636
4515,18,Jits_Linear_8,2,5,63,98,1708154228
4515,18,Jits_Linear_8,3,5,80,127,1708204280
4515,18,Jits_Linear_8,0,5,80,127,1708744192
4515,18,Jits_Linear_8,1,5,56,103,1708794100
4515,18,Jits_Linear_8,2,5,63,98,1708813808
4515,18,Jits_Linear_8,3,1,38,61,1708824800
4515,18,Jits_Linear_8,0,5,80,127,1709423840
4515,18,Jits_Linear_8,1,1,38,54,1709437024
4515,18,Jits_Linear_8,2,5,63,98,1709484548
4515,18,Jits_Linear_8,3,5,56,103,1709564180
4515,18,Jits_Linear_8,0,5,80,127,1710083584
4515,18,Jits_Linear_8,1,5,56,103,1710124496
4515,18,Jits_Linear_8,2,5,63,98,1710143760
4515,18,Jits_Linear_8,3,1,38,39,1710156844
4515,18,Jits_Linear_8,0,1,38,64,1710777376
4515,18,Jits_Linear_8,1,1,48,15,1710792800
4515,18,Jits_Linear_8,2,5,56,103,1710804208
4515,18,Jits_Linear_8,3,5,80,127,1710813652
4515,18,Jits_Linear_8,4,5,63,98,1710853444
4515,18,Jits_Linear_8,0,1,38,66,1711434184
4515,18,Jits_Linear_8,1,5,56,103,1711533640
4515,18,Jits_Linear_8,2,5,63,98,1711574552
4515,18,Jits_Linear_8,3,5,80,127,1711577768
4515,18,Jits_Linear_8,0,5,63,98,1712084204
4515,18,Jits_Linear_8,1,5,80,127,1712124220
4515,18,Jits_Linear_8,2,1,38,59,1712128904
4515,18,Jits_Linear_8,3,5,56,103,1712193968
4515,18,Jits_Linear_8,0,5,63,98,1712733788
4515,18,Jits_Linear_8,1,1,38,61,1712811876
4515,18,Jits_Linear_8,2,5,56,103,1712814800
4515,18,Jits_Linear_8,3,5,80,127,1712873772
4515,18,Jits_Linear_8,0,1,38,66,1713362004
4515,18,Jits_Linear_8,1,5,80,127,1713404448
4515,18,Jits_Linear_8,2,5,63,98,1713453680
4515,18,Jits_Linear_8,3,5,56,103,1713484012
4515,18,Jits_Linear_8,0,1,38,67,1714043844
4515,18,Jits_Linear_8,1,5,56,103,1714053756
4515,18,Jits_Linear_8,2,5,63,98,1714103592
4515,18,Jits_Linear_8,3,5,80,127,1714113860
4515,18,Jits_Linear_8,0,1,38,62,1714714480
4515,18,Jits_Linear_8,1,5,56,103,1714724100
4515,18,Jits_Linear_8,2,5,63,98,1714833728
4515,18,Jits_Linear_8,3,5,80,127,1714854184
4515,18,Jits_Linear_8,0,5,63,98,1715373572
4515,18,Jits_Linear_8,1,1,38,62,1715393928
4515,18,Jits_Linear_8,2,5,80,127,1715423548
4515,18,Jits_Linear_8,3,5,56,103,1715513664
4515,18,Jits_Linear_8,0,5,63,98,1716013572
4515,18,Jits_Linear_8,1,5,80,127,1716044076
4515,18,Jits_Linear_8,2,1,38,67,1716078660
4515,18,Jits_Linear_8,3,5,56,103,1716134224
4515,18,Jits_Linear_8,0,5,63,98,1716663708
4515,18,Jits_Linear_8,1,5,56,103,1716673832
4515,18,Jits_Linear_8,2,1,38,62,1716714860
4515,18,Jits_Linear_8,3,5,80,127,1716774220
4515,18,Jits_Linear_8,0,1,38,64,1717349892
4515,18,Jits_Linear_8,1,5,63,98,1717414460
4515,18,Jits_Linear_8,2,5,80,127,1717443912
4515,18,Jits_Linear_8,3,5,56,103,1717473796
4515,18,Jits_Linear_8,0,1,38,63,1718068528
4515,18,Jits_Linear_8,1,5,80,127,1718073728
4515,18,Jits_Linear_8,2,5,63,98,1718084000
4515,18,Jits_Linear_8,3,5,56,103,1718113600
4515,18,Jits_Linear_8,0,5,80,127,1718614616
4515,18,Jits_Linear_8,1,5,63,98,1718633884
4515,18,Jits_Linear_8,2,5,56,103,1718684036
4515,18,Jits_Linear_8,3,1,38,64,1718744320
4515,18,Jits_Linear_8,0,5,63,98,1719283956
4515,18,Jits_Linear_8,1,5,80,127,1719343748
4515,18,Jits_Linear_8,2,5,56,103,1719363832
4515,18,Jits_Linear_8,3,1,38,66,1719384856
4515,18,Jits_Linear_8,0,5,63,98,1719884024
4515,18,Jits_Linear_8,1,5,56,103,1719934252
4515,18,Jits_Linear_8,2,5,80,127,1719943476
4515,18,Jits_Linear_8,3,1,38,62,1720060384
4515,18,Jits_Linear_8,0,5,56,103,1720553864
4515,18,Jits_Linear_8,1,5,80,127,1720564284
4515,18,Jits_Linear_8,2,5,63,98,1720664456
4515,18,Jits_Linear_8,0,5,80,127,1721154052
4515,18,Jits_Linear_8,1,5,63,98,1721164100
4515,18,Jits_Linear_8,2,1,38,70,1721233480
4515,18,Jits_Linear_8,3,5,56,103,1721313736
4515,18,Jits_Linear_8,0,5,63,98,1721794088
4515,18,Jits_Linear_8,1,5,80,127,1721834028
4515,18,Jits_Linear_8,2,1,38,62,1721854532
4515,18,Jits_Linear_8,3,5,56,103,1721913596
4515,18,Jits_Linear_8,0,5,56,103,1722413484
4515,18,Jits_Linear_8,1,1,38,70,1722447096
4515,18,Jits_Linear_8,2,5,80,127,1722513756
4515,18,Jits_Linear_8,3,5,63,98,1722534364
4515,18,Jits_Linear_8,0,5,80,127,1723103500
4515,18,Jits_Linear_8,1,5,56,103,1723113696
4515,18,Jits_Linear_8,2,1,38,74,1723131564
4515,18,Jits_Linear_8,3,5,63,98,1723203972
4515,18,Jits_Linear_8,0,5,56,103,1723734380
4515,18,Jits_Linear_8,1,5,63,98,1723753940
4515,18,Jits_Linear_8,2,1,38,71,1723799860
4515,18,Jits_Linear_8,3,5,80,127,1723833680
4515,18,Jits_Linear_8,0,5,63,98,1724303624
4515,18,Jits_Linear_8,1,5,56,103,1724393836
4515,18,Jits_Linear_8,2,5,80,127,1724396900
4515,18,Jits_Linear_8,3,1,38,65,1724415608
4515,18,Jits_Linear_8,0,1,38,59,1724938032
4515,18,Jits_Linear_8,1,5,56,103,1724953948
4515,18,Jits_Linear_8,2,5,80,127,1725014344
4515,18,Jits_Linear_8,3,5,63,98,1725023640
4515,18,Jits_Linear_8,0,1,38,62,1725525072
4515,18,Jits_Linear_8,1,5,80,127,1725623632
4515,18,Jits_Linear_8,2,5,56,103,1725633900
4515,18,Jits_Linear_8,3,5,63,98,1725637116
4515,18,Jits_Linear_8,0,1,38,59,1726142168
4515,18,Jits_Linear_8,1,5,56,103,1726204224
4515,18,Jits_Linear_8,2,5,80,127,1726213524
4515,18,Jits_Linear_8,3,5,63,98,1726235016
4515,18,Jits_Linear_8,0,1,38,57,1726756016
4515,18,Jits_Linear_8,1,1,48,13,1726771364
4515,18,Jits_Linear_8,2,5,63,98,1726794380
4515,18,Jits_Linear_8,3,5,80,127,1726853528
4515,18,Jits_Linear_8,4,5,56,103,1726903612
4515,18,Jits_Linear_8,0,1,38,56,1727429848
4515,18,Jits_Linear_8,1,1,48,13,1727444896
4515,18,Jits_Linear_8,2,5,63,98,1727493476
4515,18,Jits_Linear_8,3,5,56,103,1727503672
4515,18,Jits_Linear_8,4,5,80,127,1727553828
4515,18,Jits_Linear_8,0,5,63,98,1728003316
4515,18,Jits_Linear_8,1,5,80,127,1728023924
4515,18,Jits_Linear_8,2,5,56,103,1728034416
4515,18,Jits_Linear_8,3,1,38,39,1728052828
4515,18,Jits_Linear_8,0,5,63,98,1728613932
4515,18,Jits_Linear_8,1,5,80,127,1728617220
4515,18,Jits_Linear_8,2,5,56,103,1728653820
4515,18,Jits_Linear_8,3,1,38,60,1728674472
4515,18,Jits_Linear_8,0,1,38,46,1729230672
4515,18,Jits_Linear_8,1,5,63,98,1729293572
4515,18,Jits_Linear_8,2,5,80,127,1729324520
4515,18,Jits_Linear_8,3,5,56,103,1729333580
4515,18,Jits_Linear_8,0,5,56,103,1729853720
4515,18,Jits_Linear_8,1,5,80,127,1729883396
4515,18,Jits_Linear_8,2,1,38,57,1729895656
4515,18,Jits_Linear_8,3,1,48,14,1729911244
4515,18,Jits_Linear_8,4,5,63,98,1729914352
4515,18,Jits_Linear_8,0,5,63,98,1730554332
4515,18,Jits_Linear_8,1,1,38,56,1730560588
4515,18,Jits_Linear_8,2,1,48,13,1730576012
4515,18,Jits_Linear_8,3,5,56,103,1730594316
4515,18,Jits_Linear_8,4,5,80,127,1730597456
4515,18,Jits_Linear_8,0,5,80,127,1731054024
4515,18,Jits_Linear_8,1,5,56,103,1731133896
4515,18,Jits_Linear_8,2,1,38,51,1731169380
4515,18,Jits_Linear_8,3,5,63,98,1731184164
4515,18,Jits_Linear_8,4,1,48,14,1731185132
4515,18,Jits_Linear_8,0,5,80,127,1731633468
4515,18,Jits_Linear_8,1,5,56,103,1731654076
4515,18,Jits_Linear_8,2,5,63,98,1731744304
4515,18,Jits_Linear_8,3,1,38,55,1731760976
4515,18,Jits_Linear_8,4,1,48,13,1731776100
4515,18,Jits_Linear_8,0,5,80,127,1732273452
4515,18,Jits_Linear_8,1,5,63,98,1732313392
4515,18,Jits_Linear_8,2,1,38,54,1732339504
4515,18,Jits_Linear_8,3,5,56,103,1732354520
4515,18,Jits_Linear_8,0,5,63,98,1732844088
4515,18,Jits_Linear_8,1,5,80,127,1732904184
4515,18,Jits_Linear_8,2,5,56,103,1732934084
4515,18,Jits_Linear_8,3,1,38,56,1733012672
4515,18,Jits_Linear_8,0,5,56,103,1733443928
4515,18,Jits_Linear_8,1,5,80,127,1733473608
4515,18,Jits_Linear_8,2,1,38,42,1733543508
4515,18,Jits_Linear_8,3,5,63,98,1733563760
4515,18,Jits_Linear_8,0,5,56,103,1734044260
4515,18,Jits_Linear_8,1,5,80,127,1734153580
4515,18,Jits_Linear_8,2,1,38,67,1734168380
4515,18,Jits_Linear_8,3,5,63,98,1734184296
4515,18,Jits_Linear_8,0,5,56,103,1734684284
4515,18,Jits_Linear_8,1,1,38,59,1734693332
4515,18,Jits_Linear_8,2,1,48,14,1734709032
4515,18,Jits_Linear_8,3,5,63,98,1734744428
4515,18,Jits_Linear_8,4,5,80,127,1734774128
4515,18,Jits_Linear_8,0,5,56,103,1735244316
4515,18,Jits_Linear_8,1,5,63,98,1735314024
4515,18,Jits_Linear_8,2,5,80,127,1735334336
4515,18,Jits_Linear_8,3,1,38,62,1735353868
4515,18,Jits_Linear_8,0,5,80,127,1735804196
4515,18,Jits_Linear_8,1,5,63,98,1735823908
4515,18,Jits_Linear_8,2,5,56,103,1735874184
4515,18,Jits_Linear_8,3,1,38,66,1735981964
4515,18,Jits_Linear_8,0,5,63,98,1736404352
4515,18,Jits_Linear_8,1,5,80,127,1736413500
4515,18,Jits_Linear_8,2,5,56,103,1736463628
4515,18,Jits_Linear_8,3,1,38,64,1736610000
4515,18,Jits_Linear_8,0,5,63,98,1736984112
4515,18,Jits_Linear_8,1,5,80,127,1737053648
4515,18,Jits_Linear_8,2,5,56,103,1737074200
4515,18,Jits_Linear_8,3,1,38,49,1737100236
4515,18,Jits_Linear_8,0,5,63,98,1737594236
4515,18,Jits_Linear_8,1,5,80,127,1737597672
4515,18,Jits_Linear_8,2,1,38,57,1737599612
4515,18,Jits_Linear_8,3,5,56,103,1737664132
4515,18,Jits_Linear_8,0,5,80,127,1738123724
4515,18,Jits_Linear_8,1,5,56,103,1738144108
4515,18,Jits_Linear_8,2,5,63,98,1738154228
4515,18,Jits_Linear_8,3,1,38,63,1738200940
4515,18,Jits_Linear_8,0,5,56,103,1738723652
4515,18,Jits_Linear_8,1,1,38,57,1738734644
4515,18,Jits_Linear_8,2,1,48,14,1738749816
4515,18,Jits_Linear_8,3,5,63,98,1738813908
4515,18,Jits_Linear_8,4,5,80,127,1738817344
4515,18,Jits_Linear_8,0,5,80,127,1739273556
4515,18,Jits_Linear_8,1,5,56,103,1739283900
4515,18,Jits_Linear_8,2,5,63,98,1739304284
4515,18,Jits_Linear_8,3,1,38,77,1739372888
4515,18,Jits_Linear_8,0,5,63,98,1739843956
4515,18,Jits_Linear_8,1,5,80,127,1739904372
4515,18,Jits_Linear_8,2,5,56,103,1739913672
4515,18,Jits_Linear_8,3,1,38,61,1740001360
4515,18,Jits_Linear_8,0,1,38,45,1740478172
4515,18,Jits_Linear_8,1,5,63,98,1740484052
4515,18,Jits_Linear_8,2,5,80,127,1740513580
4515,18,Jits_Linear_8,3,5,56,103,1740553516
4515,18,Jits_Linear_8,0,5,56,103,1741043976
4515,18,Jits_Linear_8,1,5,80,127,1741054396
4515,18,Jits_Linear_8,2,1,38,67,1741055512
4515,18,Jits_Linear_8,3,5,63,98,1741094256
4515,18,Jits_Linear_8,0,5,80,127,1741573408
4515,18,Jits_Linear_8,1,1,38,59,1741635940
4515,18,Jits_Linear_8,2,1,48,16,1741651048
4515,18,Jits_Linear_8,3,5,56,103,1741654600
4515,18,Jits_Linear_8,4,5,63,98,1741663676
4515,18,Jits_Linear_8,0,5,80,127,1742184004
4515,18,Jits_Linear_8,1,1,38,65,1742239216
4515,18,Jits_Linear_8,2,5,56,103,1742263672
4515,18,Jits_Linear_8,3,5,63,98,1742273868
4515,18,Jits_Linear_8,0,5,80,127,1742704080
4515,18,Jits_Linear_8,1,5,56,103,1742754080
4515,18,Jits_Linear_8,2,5,63,98,1742804428
4515,18,Jits_Linear_8,3,1,38,67,1742820580
4515,18,Jits_Linear_8,0,5,56,103,1743323440
4515,18,Jits_Linear_8,1,5,63,98,1743326656
4515,18,Jits_Linear_8,2,5,80,127,1743373788
4515,18,Jits_Linear_8,3,1,38,67,1743377132
4515,18,Jits_Linear_8,0,5,56,103,1743903968
4515,18,Jits_Linear_8,1,5,63,98,1743933792
4515,18,Jits_Linear_8,2,1,38,60,1743940276
4515,18,Jits_Linear_8,3,5,80,127,1743943980
4515,18,Jits_Linear_8,0,5,63,98,1744374144
4515,18,Jits_Linear_8,1,5,56,103,1744444052
4515,18,Jits_Linear_8,2,5,80,127,1744494028
4515,18,Jits_Linear_8,3,1,38,63,1744530280
4515,18,Jits_Linear_8,0,5,63,98,1744963880
4515,18,Jits_Linear_8,1,5,56,103,1744974068
4515,18,Jits_Linear_8,2,5,80,127,1744977288
4515,18,Jits_Linear_8,3,1,38,66,1745045544
4515,18,Jits_Linear_8,0,5,80,127,1745463756
4515,18,Jits_Linear_8,1,5,56,103,1745524024
4515,18,Jits_Linear_8,2,5,63,98,1745614304
4515,18,Jits_Linear_8,3,1,38,62,1745615944
4515,18,Jits_Linear_8,0,5,80,127,1746013792
4515,18,Jits_Linear_8,1,5,56,103,1746113848
4515,18,Jits_Linear_8,2,5,63,98,1746153712
4515,18,Jits_Linear_8,3,1,38,63,1746158548
4515,18,Jits_Linear_8,0,5,56,103,1746613832
4515,18,Jits_Linear_8,1,5,63,98,1746634068
4515,18,Jits_Linear_8,2,5,80,127,1746673932
4515,18,Jits_Linear_8,3,1,38,61,1746789192
4515,18,Jits_Linear_8,0,5,63,98,1747133828
4515,18,Jits_Linear_8,1,5,56,103,1747154288
4515,18,Jits_Linear_8,2,5,80,127,1747253936
4515,18,Jits_Linear_8,3,1,38,56,1747260044
4515,18,Jits_Linear_8,4,1,48,16,1747271556
4515,18,Jits_Linear_8,0,5,63,98,1747664244
4515,18,Jits_Linear_8,1,1,38,44,1747711928
4515,18,Jits_Linear_8,2,5,80,127,1747773704
4515,18,Jits_Linear_8,3,5,56,103,1747803604
4515,18,Jits_Linear_8,0,5,56,103,1748224236
4515,18,Jits_Linear_8,1,5,63,98,1748254208
4515,18,Jits_Linear_8,2,1,38,71,1748264228
4515,18,Jits_Linear_8,3,5,80,127,1748304180
4515,18,Jits_Linear_8,0,5,63,98,1748734184
4515,18,Jits_Linear_8,1,5,56,103,1748764012
4515,18,Jits_Linear_8,2,5,80,127,1748814140
4515,18,Jits_Linear_8,3,1,38,62,1748886056
4515,18,Jits_Linear_8,0,5,56,103,1749303612
4515,18,Jits_Linear_8,1,5,63,98,1749324148
4515,18,Jits_Linear_8,2,1,38,60,1749399504
4515,18,Jits_Linear_8,3,5,80,127,1749404108
4515,18,Jits_Linear_8,0,5,63,98,1749813788
4515,18,Jits_Linear_8,1,5,56,103,1749873908
4515,18,Jits_Linear_8,2,1,38,76,1749881140
4515,18,Jits_Linear_8,3,5,80,127,1749903728
4515,18,Jits_Linear_8,0,5,56,103,1750394328
4515,18,Jits_Linear_8,1,1,38,68,1750401040
4515,18,Jits_Linear_8,2,5,80,127,1750453668
4515,18,Jits_Linear_8,3,5,63,98,1750493756
4515,18,Jits_Linear_8,0,5,63,98,1750904140
4515,18,Jits_Linear_8,1,1,38,68,1750959100
4515,18,Jits_Linear_8,2,5,56,103,1750963852
4515,18,Jits_Linear_8,3,5,80,127,1751034360
4515,18,Jits_Linear_8,0,1,38,70,1751497292
4515,18,Jits_Linear_8,1,5,56,103,1751513504
4515,18,Jits_Linear_8,2,5,63,98,1751523624
4515,18,Jits_Linear_8,3,5,80,127,1751526992
4515,18,Jits_Linear_8,0,5,63,98,1751983736
4515,18,Jits_Linear_8,1,1,38,66,1752011892
4515,18,Jits_Linear_8,2,5,56,103,1752043828
4515,18,Jits_Linear_8,3,5,80,127,1752047040
4515,18,Jits_Linear_8,0,5,63,98,1752493524
4515,18,Jits_Linear_8,1,5,80,127,1752524100
4515,18,Jits_Linear_8,2,5,56,103,1752543812
4515,18,Jits_Linear_8,3,1,38,63,1752564464
4515,18,Jits_Linear_8,0,5,56,103,1753023992
4515,18,Jits_Linear_8,1,1,38,58,1753051396
4515,18,Jits_Linear_8,2,5,63,98,1753073964
4515,18,Jits_Linear_8,3,5,80,127,1753153968
4515,18,Jits_Linear_8,0,5,80,127,1753523760
4515,18,Jits_Linear_8,1,5,63,98,1753563776
4515,18,Jits_Linear_8,2,5,56,103,1753584088
4515,18,Jits_Linear_8,3,1,38,59,1753607436
4515,18,Jits_Linear_8,0,1,38,59,1754099832
4515,18,Jits_Linear_8,1,5,56,103,1754114472
4515,18,Jits_Linear_8,2,5,80,127,1754123624
4515,18,Jits_Linear_8,3,5,63,98,1754144008
4515,18,Jits_Linear_8,0,5,56,103,1754614084
4515,18,Jits_Linear_8,1,1,38,52,1754621168
4515,18,Jits_Linear_8,2,5,63,98,1754664728
4515,18,Jits_Linear_8,3,5,80,127,1754694032
4515,18,Jits_Linear_8,0,5,56,103,1755084260
4515,18,Jits_Linear_8,1,5,63,98,1755094384
4515,18,Jits_Linear_8,2,1,38,53,1755135560
4515,18,Jits_Linear_8,3,5,80,127,1755143604
4515,18,Jits_Linear_8,0,5,56,103,1755594136
4515,18,Jits_Linear_8,1,5,80,127,1755597052
4515,18,Jits_Linear_8,2,1,38,61,1755635612
4515,18,Jits_Linear_8,3,5,63,98,1755753772
4515,18,Jits_Linear_8,0,5,63,98,1756123496
4515,18,Jits_Linear_8,1,5,56,103,1756194224
4515,18,Jits_Linear_8,2,5,80,127,1756234088
4515,18,Jits_Linear_8,3,1,38,65,1756289668
4515,18,Jits_Linear_8,0,5,63,98,1756674496
4515,18,Jits_Linear_8,1,1,38,38,1756750060
4515,18,Jits_Linear_8,2,5,56,103,1756763576
4515,18,Jits_Linear_8,3,5,80,127,1756766568
4515,18,Jits_Linear_8,0,5,56,103,1757163832
4515,18,Jits_Linear_8,1,1,38,76,1757200060
4515,18,Jits_Linear_8,2,5,63,98,1757254112
4515,18,Jits_Linear_8,3,5,80,127,1757264384
4515,18,Jits_Linear_8,0,5,56,103,1757644272
4515,18,Jits_Linear_8,1,5,63,98,1757694404
4515,18,Jits_Linear_8,2,5,80,127,1757724152
4515,18,Jits_Linear_8,3,1,38,60,1757755444
4515,18,Jits_Linear_8,0,5,63,98,1758223684
4515,18,Jits_Linear_8,1,5,80,127,1758233956
4515,18,Jits_Linear_8,2,5,56,103,1758294568
4515,18,Jits_Linear_8,3,1,38,67,1758322220
4515,18,Jits_Linear_8,0,5,63,98,1758643500
4515,18,Jits_Linear_8,1,5,80,127,1758703968
4515,18,Jits_Linear_8,2,5,56,103,1758743980
4515,18,Jits_Linear_8,0,5,56,103,1759243608
4515,18,Jits_Linear_8,1,5,80,127,1759264068
4515,18,Jits_Linear_8,2,5,63,98,1759283556
4515,18,Jits_Linear_8,3,1,38,68,1759305856
4515,18,Jits_Linear_8,0,5,63,98,1759663368
4515,18,Jits_Linear_8,1,5,56,103,1759683904
4515,18,Jits_Linear_8,2,5,80,127,1759723768
4515,18,Jits_Linear_8,3,1,38,70,1759868492
4515,18,Jits_Linear_8,0,5,63,98,1760173440
4515,18,Jits_Linear_8,1,5,80,127,1760204384
4515,18,Jits_Linear_8,2,5,56,103,1760223576
4515,18,Jits_Linear_8,3,1,38,68,1760315168
4515,18,Jits_Linear_8,0,5,80,127,1760643444
4515,18,Jits_Linear_8,1,5,56,103,1760693576
4515,18,Jits_Linear_8,2,5,63,98,1760754188
4515,18,Jits_Linear_8,3,1,38,68,1760758884
4515,18,Jits_Linear_8,0,5,63,98,1761123632
4515,18,Jits_Linear_8,1,5,56,103,1761243536
4515,18,Jits_Linear_8,2,5,80,127,1761274556
4515,18,Jits_Linear_8,3,1,38,55,1761318652
4515,18,Jits_Linear_8,0,5,80,127,1761654208
4515,18,Jits_Linear_8,1,5,63,98,1761673696
4515,18,Jits_Linear_8,2,1,38,53,1761737196
4515,18,Jits_Linear_8,3,5,56,103,1761744340
4515,18,Jits_Linear_8,0,5,63,98,1762164312
4515,18,Jits_Linear_8,1,5,56,103,1762174436
4515,18,Jits_Linear_8,2,1,38,55,1762226848
4515,18,Jits_Linear_8,3,5,80,127,1762254296
4515,18,Jits_Linear_8,0,5,56,103,1762714044
4515,18,Jits_Linear_8,1,5,80,127,1762743648
4515,18,Jits_Linear_8,2,5,63,98,1762754364
4515,18,Jits_Linear_8,3,1,38,54,1762772104
4515,18,Jits_Linear_8,0,9999,9999,9999,1652341828
4515,18,Jits_Linear_8,1,9999,9999,9999,1653162068
4515,18,Jits_Linear_8,2,9999,9999,9999,1653981300
4515,18,Jits_Linear_8,3,9999,9999,9999,1654801520
4515,18,Jits_Linear_8,4,9999,9999,9999,1655621736
4515,18,Jits_Linear_8,5,9999,9999,9999,1656431680
4515,18,Jits_Linear_8,6,9999,9999,9999,1657241716
4515,18,Jits_Linear_8,7,9999,9999,9999,1658051664
4515,18,Jits_Linear_8,8,9999,9999,9999,1658861684
4515,18,Jits_Linear_8,9,9999,9999,9999,1659671616
4515,18,Jits_Linear_8,10,9999,9999,9999,1660471388
4515,18,Jits_Linear_8,11,9999,9999,9999,1661271144
4515,18,Jits_Linear_8,12,9999,9999,9999,1662071916
4515,18,Jits_Linear_8,13,9999,9999,9999,1662871680
4515,18,Jits_Linear_8,14,9999,9999,9999,1663671420
4515,18,Jits_Linear_8,15,9999,9999,9999,1664461948
4515,18,Jits_Linear_8,16,9999,9999,9999,1665251424
4515,18,Jits_Linear_8,17,9999,9999,9999,1666041972
4515,18,Jits_Linear_8,18,9999,9999,9999,1666831464
4515,18,Jits_Linear_8,19,9999,9999,9999,1667621948
4515,18,Jits_Linear_8,20,9999,9999,9999,1668401244
4515,18,Jits_Linear_8,21,9999,9999,9999,1669181516
4515,18,Jits_Linear_8,22,9999,9999,9999,1669961848
4515,18,Jits_Linear_8,23,9999,9999,9999,1670742116
4515,18,Jits_Linear_8,24,9999,9999,9999,1671531648
4515,18,Jits_Linear_8,25,9999,9999,9999,1672301648
4515,18,Jits_Linear_8,26,9999,9999,9999,1673071708
4515,18,Jits_Linear_8,27,9999,9999,9999,1673841720
4515,18,Jits_Linear_8,28,9999,9999,9999,1674611780
4515,18,Jits_Linear_8,29,9999,9999,9999,1675381876
4515,18,Jits_Linear_8,30,9999,9999,9999,1676141696
4515,18,Jits_Linear_8,31,9999,9999,9999,1676901456
4515,18,Jits_Linear_8,32,9999,9999,9999,1677661288
4515,18,Jits_Linear_8,33,9999,9999,9999,1678422088
4515,18,Jits_Linear_8,34,9999,9999,9999,1679191140
4515,18,Jits_Linear_8,35,9999,9999,9999,1679941752
4515,18,Jits_Linear_8,36,9999,9999,9999,1680691316
4515,18,Jits_Linear_8,37,9999,9999,9999,1681441860
4515,18,Jits_Linear_8,38,9999,9999,9999,1682191428
4515,18,Jits_Linear_8,39,9999,9999,9999,1682942048
4515,18,Jits_Linear_8,40,9999,9999,9999,1683681360
4515,18,Jits_Linear_8,41,9999,9999,9999,1684421712
4515,18,Jits_Linear_8,42,9999,9999,9999,1685162100
4515,18,Jits_Linear_8,43,9999,9999,9999,1685901396
4515,18,Jits_Linear_8,44,9999,9999,9999,1686641772
4515,18,Jits_Linear_8,45,9999,9999,9999,1687371848
4515,18,Jits_Linear_8,46,9999,9999,9999,1688102016
4515,18,Jits_Linear_8,47,9999,9999,9999,1688832100
4515,18,Jits_Linear_8,48,9999,9999,9999,1689571408
4515,18,Jits_Linear_8,49,9999,9999,9999,1690301556
4515,18,Jits_Linear_8,50,9999,9999,9999,1691021368
4515,18,Jits_Linear_8,51,9999,9999,9999,1691741304
4515,18,Jits_Linear_8,52,9999,9999,9999,1692461120
4515,18,Jits_Linear_8,53,9999,9999,9999,1693182060
4515,18,Jits_Linear_8,54,9999,9999,9999,1693901940
4515,18,Jits_Linear_8,55,9999,9999,9999,1694611568
4515,18,Jits_Linear_8,56,9999,9999,9999,1695321168
4515,18,Jits_Linear_8,57,9999,9999,9999,1696031840
4515,18,Jits_Linear_8,58,9999,9999,9999,1696741480
4515,18,Jits_Linear_8,59,9999,9999,9999,1697451120
4515,18,Jits_Linear_8,60,9999,9999,9999,1698151520
4515,18,Jits_Linear_8,61,9999,9999,9999,1698851948
4515,18,Jits_Linear_8,62,9999,9999,9999,1699551324
4515,18,Jits_Linear_8,63,9999,9999,9999,1700251772
4515,18,Jits_Linear_8,64,9999,9999,9999,1700951116
4515,18,Jits_Linear_8,65,9999,9999,9999,1701641344
4515,18,Jits_Linear_8,66,9999,9999,9999,1702331476
4515,18,Jits_Linear_8,67,9999,9999,9999,1703021672
4515,18,Jits_Linear_8,68,9999,9999,9999,1703711800
4515,18,Jits_Linear_8,69,9999,9999,9999,1704402004
4515,18,Jits_Linear_8,70,9999,9999,9999,1705081964
4515,18,Jits_Linear_8,71,9999,9999,9999,1705761900
4515,18,Jits_Linear_8,72,9999,9999,9999,1706441852
4515,18,Jits_Linear_8,73,9999,9999,9999,1707121724
4515,18,Jits_Linear_8,74,9999,9999,9999,1707801700
4515,18,Jits_Linear_8,75,9999,9999,9999,1708471400
4515,18,Jits_Linear_8,76,9999,9999,9999,1709142124
4515,18,Jits_Linear_8,77,9999,9999,9999,1709822024
4515,18,Jits_Linear_8,78,9999,9999,9999,1710491728
4515,18,Jits_Linear_8,79,9999,9999,9999,1711161436
4515,18,Jits_Linear_8,80,9999,9999,9999,1711821908
4515,18,Jits_Linear_8,81,9999,9999,9999,1712481388
4515,18,Jits_Linear_8,82,9999,9999,9999,1713141864
4515,18,Jits_Linear_8,83,9999,9999,9999,1713801292
4515,18,Jits_Linear_8,84,9999,9999,9999,1714461812
4515,18,Jits_Linear_8,85,9999,9999,9999,1715112028
4515,18,Jits_Linear_8,86,9999,9999,9999,1715761248
4515,18,Jits_Linear_8,87,9999,9999,9999,1716411456
4515,18,Jits_Linear_8,88,9999,9999,9999,1717061716
4515,18,Jits_Linear_8,89,9999,9999,9999,1717711940
4515,18,Jits_Linear_8,90,9999,9999,9999,1718351952
4515,18,Jits_Linear_8,91,9999,9999,9999,1718991972
4515,18,Jits_Linear_8,92,9999,9999,9999,1719631992
4515,18,Jits_Linear_8,93,9999,9999,9999,1720271940
4515,18,Jits_Linear_8,94,9999,9999,9999,1720911964
4515,18,Jits_Linear_8,95,9999,9999,9999,1721541748
4515,18,Jits_Linear_8,96,9999,9999,9999,1722171500
4515,18,Jits_Linear_8,97,9999,9999,9999,1722801260
4515,18,Jits_Linear_8,98,9999,9999,9999,1723432060
4515,18,Jits_Linear_8,99,9999,9999,9999,1724061768
4515,18,Jits_Linear_8,100,9999,9999,9999,1724681324
4515,18,Jits_Linear_8,101,9999,9999,9999,1725301872
4515,18,Jits_Linear_8,102,9999,9999,9999,1725921336
4515,18,Jits_Linear_8,103,9999,9999,9999,1726541932
4515,18,Jits_Linear_8,104,9999,9999,9999,1727161456
4515,18,Jits_Linear_8,105,9999,9999,9999,1727771744
4515,18,Jits_Linear_8,106,9999,9999,9999,1728382012
4515,18,Jits_Linear_8,107,9999,9999,9999,1728991352
4515,18,Jits_Linear_8,108,9999,9999,9999,1729601616
4515,18,Jits_Linear_8,109,9999,9999,9999,1730211932
4515,18,Jits_Linear_8,110,9999,9999,9999,1730811964
4515,18,Jits_Linear_8,111,9999,9999,9999,1731412072
4515,18,Jits_Linear_8,112,9999,9999,9999,1732011072
4515,18,Jits_Linear_8,113,9999,9999,9999,1732611152
4515,18,Jits_Linear_8,114,9999,9999,9999,1733211236
4515,18,Jits_Linear_8,115,9999,9999,9999,1733802112
4515,18,Jits_Linear_8,116,9999,9999,9999,1734391932
4515,18,Jits_Linear_8,117,9999,9999,9999,1734981712
4515,18,Jits_Linear_8,118,9999,9999,9999,1735571560
4515,18,Jits_Linear_8,119,9999,9999,9999,1736161376
4515,18,Jits_Linear_8,120,9999,9999,9999,1736741976
4515,18,Jits_Linear_8,121,9999,9999,9999,1737321584
4515,18,Jits_Linear_8,122,9999,9999,9999,1737901136
4515,18,Jits_Linear_8,123,9999,9999,9999,1738481720
4515,18,Jits_Linear_8,124,9999,9999,9999,1739061376
4515,18,Jits_Linear_8,125,9999,9999,9999,1739631704
4515,18,Jits_Linear_8,126,9999,9999,9999,1740202060
4515,18,Jits_Linear_8,127,9999,9999,9999,1740771416
4515,18,Jits_Linear_8,128,9999,9999,9999,1741341820
4515,18,Jits_Linear_8,129,9999,9999,9999,1741911140
4515,18,Jits_Linear_8,130,9999,9999,9999,1742471244
4515,18,Jits_Linear_8,131,9999,9999,9999,1743031388
4515,18,Jits_Linear_8,132,9999,9999,9999,1743591536
4515,18,Jits_Linear_8,133,9999,9999,9999,1744151624
4515,18,Jits_Linear_8,134,9999,9999,9999,1744711776
4515,18,Jits_Linear_8,135,9999,9999,9999,1745261636
4515,18,Jits_Linear_8,136,9999,9999,9999,1745811528
4515,18,Jits_Linear_8,137,9999,9999,9999,1746361416
4515,18,Jits_Linear_8,138,9999,9999,9999,1746911304
4515,18,Jits_Linear_8,139,9999,9999,9999,1747461220
4515,18,Jits_Linear_8,140,9999,9999,9999,1748001876
4515,18,Jits_Linear_8,141,9999,9999,9999,1748541560
4515,18,Jits_Linear_8,142,9999,9999,9999,1749081180
4515,18,Jits_Linear_8,143,9999,9999,9999,1749621860
4515,18,Jits_Linear_8,144,9999,9999,9999,1750161480
4515,18,Jits_Linear_8,145,9999,9999,9999,1750691956
4515,18,Jits_Linear_8,146,9999,9999,9999,1751221324
4515,18,Jits_Linear_8,147,9999,9999,9999,1751751788
4515,18,Jits_Linear_8,148,9999,9999,9999,1752281204
4515,18,Jits_Linear_8,149,9999,9999,9999,1752811596
4515,18,Jits_Linear_8,150,9999,9999,9999,1753331804
4515,18,Jits_Linear_8,151,9999,9999,9999,1753852024
4515,18,Jits_Linear_8,152,9999,9999,9999,1754371196
4515,18,Jits_Linear_8,153,9999,9999,9999,1754891332
4515,18,Jits_Linear_8,154,9999,9999,9999,1755411548
4515,18,Jits_Linear_8,155,9999,9999,9999,1755921496
4515,18,Jits_Linear_8,156,9999,9999,9999,1756431456
4515,18,Jits_Linear_8,157,9999,9999,9999,1756941400
4515,18,Jits_Linear_8,158,9999,9999,9999,1757451344
4515,18,Jits_Linear_8,159,9999,9999,9999,1757961300
4515,18,Jits_Linear_8,160,9999,9999,9999,1758462048
4515,18,Jits_Linear_8,161,9999,9999,9999,1758961748
4515,18,Jits_Linear_8,162,9999,9999,9999,1759461448
4515,18,Jits_Linear_8,163,9999,9999,9999,1759961152
4515,18,Jits_Linear_8,164,9999,9999,9999,1760461920
4515,18,Jits_Linear_8,165,9999,9999,9999,1760951412
4515,18,Jits_Linear_8,166,9999,9999,9999,1761441888
4515,18,Jits_Linear_8,167,9999,9999,9999,1761931380
4515,18,Jits_Linear_8,168,9999,9999,9999,1762421856
4515,18,Jits_Linear_8,169,9999,9999,9999,1762911332
4516,17,Jits_Phase_5,0,5,56,103,1772424584
4516,17,Jits_Phase_5,1,5,63,98,1772427680
4516,17,Jits_Phase_5,2,5,80,127,1772430952
4516,17,Jits_Phase_5,0,1,38,53,1772912200
4516,17,Jits_Phase_5,1,5,56,103,1772925256
4516,17,Jits_Phase_5,2,5,63,98,1772928352
4516,17,Jits_Phase_5,3,5,80,127,1772931252
4516,17,Jits_Phase_5,0,1,38,40,1773402780
4516,17,Jits_Phase_5,1,5,56,103,1773425000
4516,17,Jits_Phase_5,2,5,80,127,1773435196
4516,17,Jits_Phase_5,3,5,63,98,1773454904
4516,17,Jits_Phase_5,0,5,63,98,1773874460
4516,17,Jits_Phase_5,1,1,38,67,1773885452
4516,17,Jits_Phase_5,2,5,80,127,1773905176
4516,17,Jits_Phase_5,3,5,56,103,1773914620
4516,17,Jits_Phase_5,0,1,38,69,1774342788
4516,17,Jits_Phase_5,1,5,80,127,1774434808
4516,17,Jits_Phase_5,2,5,56,103,1774444992
4516,17,Jits_Phase_5,3,5,63,98,1774474468
4516,17,Jits_Phase_5,0,1,38,72,1774879464
4516,17,Jits_Phase_5,1,5,63,98,1774925124
4516,17,Jits_Phase_5,2,5,56,103,1774955172
4516,17,Jits_Phase_5,3,5,80,127,1774965316
4516,17,Jits_Phase_5,0,1,38,70,1775373172
4516,17,Jits_Phase_5,1,5,56,103,1775376100
4516,17,Jits_Phase_5,2,5,63,98,1775424956
4516,17,Jits_Phase_5,3,5,80,127,1775445340
4516,17,Jits_Phase_5,0,1,38,44,1775851016
4516,17,Jits_Phase_5,1,5,80,127,1775874280
4516,17,Jits_Phase_5,2,5,63,98,1775924556
4516,17,Jits_Phase_5,3,5,56,103,1775964476
4516,17,Jits_Phase_5,0,1,38,70,1776370996
4516,17,Jits_Phase_5,1,5,56,103,1776375224
4516,17,Jits_Phase_5,2,5,63,98,1776404824
4516,17,Jits_Phase_5,3,5,80,127,1776474412
4516,17,Jits_Phase_5,0,1,38,65,1776870148
4516,17,Jits_Phase_5,1,5,56,103,1776874828
4516,17,Jits_Phase_5,2,1,48,16,1776885664
4516,17,Jits_Phase_5,3,5,80,127,1776935360
4516,17,Jits_Phase_5,4,5,63,98,1776964884
4516,17,Jits_Phase_5,0,1,38,74,1777383364
4516,17,Jits_Phase_5,1,5,56,103,1777385916
4516,17,Jits_Phase_5,2,5,63,98,1777394992
4516,17,Jits_Phase_5,3,5,80,127,1777434928
4516,17,Jits_Phase_5,0,1,38,78,1777855900
4516,17,Jits_Phase_5,1,5,63,98,1777875252
4516,17,Jits_Phase_5,2,5,80,127,1777955328
4516,17,Jits_Phase_5,3,5,56,103,1777965376
4516,17,Jits_Phase_5,0,1,38,76,1778387708
4516,17,Jits_Phase_5,1,5,63,98,1778425200
4516,17,Jits_Phase_5,2,5,56,103,1778464980
4516,17,Jits_Phase_5,3,5,80,127,1778468128
4516,17,Jits_Phase_5,0,5,56,103,1778885092
4516,17,Jits_Phase_5,1,5,63,98,1778895288
4516,17,Jits_Phase_5,2,1,38,72,1778902164
4516,17,Jits_Phase_5,3,1,48,16,1778917420
4516,17,Jits_Phase_5,4,5,80,127,1778935124
4516,17,Jits_Phase_5,0,5,56,103,1779374372
4516,17,Jits_Phase_5,1,5,63,98,1779377660
4516,17,Jits_Phase_5,2,1,38,70,1779383264
4516,17,Jits_Phase_5,3,5,80,127,1779394900
4516,17,Jits_Phase_5,4,1,48,16,1779398768
4516,17,Jits_Phase_5,0,5,80,127,1779885376
4516,17,Jits_Phase_5,1,1,38,74,1779886860
4516,17,Jits_Phase_5,2,5,56,103,1779894816
4516,17,Jits_Phase_5,3,5,63,98,1779965388
4516,17,Jits_Phase_5,0,5,63,98,1780374876
4516,17,Jits_Phase_5,1,1,38,70,1780386160
4516,17,Jits_Phase_5,2,5,56,103,1780395328
4516,17,Jits_Phase_5,3,5,80,127,1780475264
4516,17,Jits_Phase_5,0,1,38,72,1780866872
4516,17,Jits_Phase_5,1,5,56,103,1780884956
4516,17,Jits_Phase_5,2,5,80,127,1780924968
4516,17,Jits_Phase_5,3,5,63,98,1780935088
4516,17,Jits_Phase_5,0,1,38,69,1781358428
4516,17,Jits_Phase_5,1,5,80,127,1781375264
4516,17,Jits_Phase_5,2,5,63,98,1781405088
4516,17,Jits_Phase_5,3,5,56,103,1781444948
4516,17,Jits_Phase_5,0,1,38,72,1781882540
4516,17,Jits_Phase_5,1,5,56,103,1781894492
4516,17,Jits_Phase_5,2,1,48,17,1781897984
4516,17,Jits_Phase_5,3,5,63,98,1781925132
4516,17,Jits_Phase_5,4,5,80,127,1781975404
4516,17,Jits_Phase_5,0,5,80,127,1782395176
4516,17,Jits_Phase_5,1,1,38,69,1782396144
4516,17,Jits_Phase_5,2,5,56,103,1782435184
4516,17,Jits_Phase_5,3,5,63,98,1782445532
4516,17,Jits_Phase_5,0,5,80,127,1782874620
4516,17,Jits_Phase_5,1,1,38,63,1782913980
4516,17,Jits_Phase_5,2,5,63,98,1782916740
4516,17,Jits_Phase_5,3,5,56,103,1782974888
4516,17,Jits_Phase_5,0,5,56,103,1783375204
4516,17,Jits_Phase_5,1,5,80,127,1783384652
4516,17,Jits_Phase_5,2,1,38,61,1783433948
4516,17,Jits_Phase_5,3,5,63,98,1783465432
4516,17,Jits_Phase_5,0,5,80,127,1783874816
4516,17,Jits_Phase_5,1,1,38,55,1783877556
4516,17,Jits_Phase_5,2,5,63,98,1783935448
4516,17,Jits_Phase_5,3,5,56,103,1783964896
4516,17,Jits_Phase_5,0,5,56,103,1784374796
4516,17,Jits_Phase_5,1,1,38,59,1784418144
4516,17,Jits_Phase_5,2,5,80,127,1784434980
4516,17,Jits_Phase_5,3,5,63,98,1784474992
4516,17,Jits_Phase_5,0,1,38,71,1784915660
4516,17,Jits_Phase_5,1,5,56,103,1784924676
4516,17,Jits_Phase_5,2,5,63,98,1784934720
4516,17,Jits_Phase_5,3,5,80,127,1784938160
4516,17,Jits_Phase_5,0,5,80,127,1785375052
4516,17,Jits_Phase_5,1,1,38,65,1785431208
4516,17,Jits_Phase_5,2,5,63,98,1785465124
4516,17,Jits_Phase_5,3,5,56,103,1785474572
4516,17,Jits_Phase_5,0,5,56,103,1785874800
4516,17,Jits_Phase_5,1,5,63,98,1785877896
4516,17,Jits_Phase_5,2,5,80,127,1785881020
4516,17,Jits_Phase_5,3,1,38,55,1785937332
4516,17,Jits_Phase_5,0,5,80,127,1786394928
4516,17,Jits_Phase_5,1,1,38,56,1786414008
4516,17,Jits_Phase_5,2,5,63,98,1786445272
4516,17,Jits_Phase_5,3,5,56,103,1786474724
4516,17,Jits_Phase_5,0,5,56,103,1786875216
4516,17,Jits_Phase_5,1,5,80,127,1786884660
4516,17,Jits_Phase_5,2,5,63,98,1786955088
4516,17,Jits_Phase_5,3,1,38,60,1786960748
4516,17,Jits_Phase_5,0,5,56,103,1787385240
4516,17,Jits_Phase_5,1,5,63,98,1787404580
4516,17,Jits_Phase_5,2,1,38,48,1787437068
4516,17,Jits_Phase_5,3,1,48,16,1787452860
4516,17,Jits_Phase_5,4,5,80,127,1787464940
4516,17,Jits_Phase_5,0,5,80,127,1787864632
4516,17,Jits_Phase_5,1,1,38,52,1787927460
4516,17,Jits_Phase_5,2,5,63,98,1787935056
4516,17,Jits_Phase_5,3,5,56,103,1787954540
4516,17,Jits_Phase_5,0,5,80,127,1788384704
4516,17,Jits_Phase_5,1,5,56,103,1788394900
4516,17,Jits_Phase_5,2,5,63,98,1788405244
4516,17,Jits_Phase_5,3,1,38,71,1788407256
4516,17,Jits_Phase_5,0,5,80,127,1788875172
4516,17,Jits_Phase_5,1,5,56,103,1788894512
4516,17,Jits_Phase_5,2,1,38,81,1788913516
4516,17,Jits_Phase_5,3,5,63,98,1788965228
4516,17,Jits_Phase_5,0,5,56,103,1789385052
4516,17,Jits_Phase_5,1,5,80,127,1789414728
4516,17,Jits_Phase_5,2,1,38,79,1789422036
4516,17,Jits_Phase_5,3,5,63,98,1789435180
4516,17,Jits_Phase_5,0,5,63,98,1789874628
4516,17,Jits_Phase_5,1,1,38,72,1789919400
4516,17,Jits_Phase_5,2,5,56,103,1789934936
4516,17,Jits_Phase_5,3,5,80,127,1789964612
4516,17,Jits_Phase_5,0,5,63,98,1790364936
4516,17,Jits_Phase_5,1,5,80,127,1790368304
4516,17,Jits_Phase_5,2,1,38,77,1790377124
4516,17,Jits_Phase_5,3,5,56,103,1790455060
4516,17,Jits_Phase_5,0,1,38,70,1790873940
4516,17,Jits_Phase_5,1,5,56,103,1790885424
4516,17,Jits_Phase_5,2,5,63,98,1790914876
4516,17,Jits_Phase_5,3,5,80,127,1790954884
4516,17,Jits_Phase_5,0,1,38,48,1791378176
4516,17,Jits_Phase_5,1,5,63,98,1791384800
4516,17,Jits_Phase_5,2,1,48,17,1791390388
4516,17,Jits_Phase_5,3,5,56,103,1791424808
4516,17,Jits_Phase_5,4,5,80,127,1791445564
4516,17,Jits_Phase_5,0,1,38,76,1791878916
4516,17,Jits_Phase_5,1,5,63,98,1791894836
4516,17,Jits_Phase_5,2,5,56,103,1791934700
4516,17,Jits_Phase_5,3,5,80,127,1791945264
4516,17,Jits_Phase_5,0,5,80,127,1792375412
4516,17,Jits_Phase_5,1,1,38,60,1792403260
4516,17,Jits_Phase_5,2,5,63,98,1792444712
4516,17,Jits_Phase_5,3,5,56,103,1792465392
4516,17,Jits_Phase_5,0,5,56,103,1792864592
4516,17,Jits_Phase_5,1,5,80,127,1792885300
4516,17,Jits_Phase_5,2,1,38,85,1792909320
4516,17,Jits_Phase_5,3,5,63,98,1792925080
4516,17,Jits_Phase_5,0,5,63,98,1793374540
4516,17,Jits_Phase_5,1,5,80,127,1793395024
4516,17,Jits_Phase_5,2,1,38,75,1793395916
4516,17,Jits_Phase_5,3,5,56,103,1793434952
4516,17,Jits_Phase_5,0,5,63,98,1793875484
4516,17,Jits_Phase_5,1,5,56,103,1793894748
4516,17,Jits_Phase_5,2,1,38,77,1793897868
4516,17,Jits_Phase_5,3,5,80,127,1793904960
4516,17,Jits_Phase_5,0,5,80,127,1794375152
4516,17,Jits_Phase_5,1,5,56,103,1794394564
4516,17,Jits_Phase_5,2,1,38,73,1794399480
4516,17,Jits_Phase_5,3,5,63,98,1794425304
4516,17,Jits_Phase_5,0,1,38,74,1794893612
4516,17,Jits_Phase_5,1,5,56,103,1794945272
4516,17,Jits_Phase_5,2,5,80,127,1794948492
4516,17,Jits_Phase_5,3,5,63,98,1794965136
4516,17,Jits_Phase_5,0,5,63,98,1795365364
4516,17,Jits_Phase_5,1,5,56,103,1795394892
4516,17,Jits_Phase_5,2,1,38,70,1795401596
4516,17,Jits_Phase_5,3,5,80,127,1795455444
4516,17,Jits_Phase_5,0,1,38,81,1795840200
4516,17,Jits_Phase_5,1,5,63,98,1795944804
4516,17,Jits_Phase_5,2,5,56,103,1795955176
4516,17,Jits_Phase_5,3,5,80,127,1795965296
4516,17,Jits_Phase_5,0,1,38,95,1796344908
4516,17,Jits_Phase_5,1,5,56,103,1796404492
4516,17,Jits_Phase_5,2,5,80,127,1796435436
4516,17,Jits_Phase_5,3,5,63,98,1796444572
4516,17,Jits_Phase_5,0,1,38,58,1796878444
4516,17,Jits_Phase_5,1,5,63,98,1796945296
4516,17,Jits_Phase_5,2,5,56,103,1796954448
4516,17,Jits_Phase_5,3,5,80,127,1796974912
4516,17,Jits_Phase_5,0,5,56,103,1797375380
4516,17,Jits_Phase_5,1,1,38,73,1797415288
4516,17,Jits_Phase_5,2,5,63,98,1797434712
4516,17,Jits_Phase_5,3,5,80,127,1797438228
4516,17,Jits_Phase_5,0,5,80,127,1797894540
4516,17,Jits_Phase_5,1,1,38,76,1797899308
4516,17,Jits_Phase_5,2,5,56,103,1797904728
4516,17,Jits_Phase_5,3,5,63,98,1797975376
4516,17,Jits_Phase_5,0,5,80,127,1798385232
4516,17,Jits_Phase_5,1,1,38,72,1798419592
4516,17,Jits_Phase_5,2,5,56,103,1798454536
4516,17,Jits_Phase_5,3,5,63,98,1798464956
4516,17,Jits_Phase_5,0,1,38,76,1798912324
4516,17,Jits_Phase_5,1,5,63,98,1798924704
4516,17,Jits_Phase_5,2,5,56,103,1798934824
4516,17,Jits_Phase_5,3,5,80,127,1798955508
4516,17,Jits_Phase_5,0,5,80,127,1799375312
4516,17,Jits_Phase_5,1,1,38,71,1799428108
4516,17,Jits_Phase_5,2,5,63,98,1799434724
4516,17,Jits_Phase_5,3,5,56,103,1799474512
4516,17,Jits_Phase_5,0,5,56,103,1799914788
4516,17,Jits_Phase_5,1,1,38,79,1799924228
4516,17,Jits_Phase_5,2,5,63,98,1799926848
4516,17,Jits_Phase_5,3,5,80,127,1799965284
4516,17,Jits_Phase_5,0,5,56,103,1800374620
4516,17,Jits_Phase_5,1,5,80,127,1800405268
4516,17,Jits_Phase_5,2,1,38,71,1800421264
4516,17,Jits_Phase_5,3,5,63,98,1800454488
4516,17,Jits_Phase_5,0,1,38,77,1800887612
4516,17,Jits_Phase_5,1,5,56,103,1800915208
4516,17,Jits_Phase_5,2,5,63,98,1800955220
4516,17,Jits_Phase_5,3,5,80,127,1800958732
4516,17,Jits_Phase_5,0,1,38,74,1801392220
4516,17,Jits_Phase_5,1,1,48,18,1801407408
4516,17,Jits_Phase_5,2,5,56,103,1801415304
4516,17,Jits_Phase_5,3,5,63,98,1801425280
4516,17,Jits_Phase_5,4,5,80,127,1801444692
4516,17,Jits_Phase_5,0,5,56,103,1801874856
4516,17,Jits_Phase_5,1,5,80,127,1801877776
4516,17,Jits_Phase_5,2,1,38,71,1801888164
4516,17,Jits_Phase_5,3,1,48,16,1801903288
4516,17,Jits_Phase_5,4,5,63,98,1801914692
4516,17,Jits_Phase_5,0,1,38,77,1802368136
4516,17,Jits_Phase_5,1,5,63,98,1802414464
4516,17,Jits_Phase_5,2,5,56,103,1802445336
4516,17,Jits_Phase_5,3,5,80,127,1802464732
4516,17,Jits_Phase_5,0,1,38,75,1802858340
4516,17,Jits_Phase_5,1,5,80,127,1802884396
4516,17,Jits_Phase_5,2,5,56,103,1802894668
4516,17,Jits_Phase_5,3,5,63,98,1802905232
4516,17,Jits_Phase_5,0,1,38,72,1803345652
4516,17,Jits_Phase_5,1,5,56,103,1803385336
4516,17,Jits_Phase_5,2,5,80,127,1803425272
4516,17,Jits_Phase_5,3,5,63,98,1803454784
4516,17,Jits_Phase_5,0,1,38,73,1803829060
4516,17,Jits_Phase_5,1,5,63,98,1803895196
4516,17,Jits_Phase_5,2,5,80,127,1803905468
4516,17,Jits_Phase_5,3,5,56,103,1803914544
4516,17,Jits_Phase_5,0,1,38,74,1804323056
4516,17,Jits_Phase_5,1,5,56,103,1804384508
4516,17,Jits_Phase_5,2,5,63,98,1804455392
4516,17,Jits_Phase_5,3,5,80,127,1804464468
4516,17,Jits_Phase_5,0,1,38,79,1804825340
4516,17,Jits_Phase_5,1,5,80,127,1804894672
4516,17,Jits_Phase_5,2,5,56,103,1804905236
4516,17,Jits_Phase_5,3,5,63,98,1804955148
4516,17,Jits_Phase_5,0,1,38,74,1805326364
4516,17,Jits_Phase_5,1,5,80,127,1805404380
4516,17,Jits_Phase_5,2,5,56,103,1805465076
4516,17,Jits_Phase_5,3,5,63,98,1805494676
4516,17,Jits_Phase_5,0,1,38,78,1805870904
4516,17,Jits_Phase_5,1,5,56,103,1805905248
4516,17,Jits_Phase_5,2,5,80,127,1805908316
4516,17,Jits_Phase_5,3,5,63,98,1805945212
4516,17,Jits_Phase_5,0,1,38,70,1806343156
4516,17,Jits_Phase_5,1,5,56,103,1806434880
4516,17,Jits_Phase_5,2,5,63,98,1806465388
4516,17,Jits_Phase_5,3,5,80,127,1806474684
4516,17,Jits_Phase_5,0,1,38,90,1806890016
4516,17,Jits_Phase_5,1,5,63,98,1806944588
4516,17,Jits_Phase_5,2,5,80,127,1806954860
4516,17,Jits_Phase_5,3,5,56,103,1806965080
4516,17,Jits_Phase_5,0,5,80,127,1807395048
4516,17,Jits_Phase_5,1,1,38,76,1807412932
4516,17,Jits_Phase_5,2,5,56,103,1807445460
4516,17,Jits_Phase_5,3,5,63,98,1807448380
4516,17,Jits_Phase_5,0,5,56,103,1807924540
4516,17,Jits_Phase_5,1,1,38,79,1807933208
4516,17,Jits_Phase_5,2,5,80,127,1807945068
4516,17,Jits_Phase_5,3,5,63,98,1807955488
4516,17,Jits_Phase_5,0,1,38,82,1808403308
4516,17,Jits_Phase_5,1,5,63,98,1808405940
4516,17,Jits_Phase_5,2,5,56,103,1808434716
4516,17,Jits_Phase_5,3,5,80,127,1808455100
4516,17,Jits_Phase_5,0,1,38,87,1808895028
4516,17,Jits_Phase_5,1,5,56,103,1808914828
4516,17,Jits_Phase_5,2,5,80,127,1808924948
4516,17,Jits_Phase_5,3,5,63,98,1808994536
4516,17,Jits_Phase_5,0,5,63,98,1809405216
4516,17,Jits_Phase_5,1,1,38,80,1809421064
4516,17,Jits_Phase_5,2,5,80,127,1809445148
4516,17,Jits_Phase_5,3,5,56,103,1809485084
4516,17,Jits_Phase_5,0,5,56,103,1809915204
4516,17,Jits_Phase_5,1,5,63,98,1809924576
4516,17,Jits_Phase_5,2,1,38,83,1809938708
4516,17,Jits_Phase_5,3,5,80,127,1809945104
4516,17,Jits_Phase_5,0,1,38,83,1810403924
4516,17,Jits_Phase_5,1,5,63,98,1810454968
4516,17,Jits_Phase_5,2,5,80,127,1810475352
4516,17,Jits_Phase_5,3,5,56,103,1810494836
4516,17,Jits_Phase_5,0,5,56,103,1810895088
4516,17,Jits_Phase_5,1,1,38,79,1810926976
4516,17,Jits_Phase_5,2,5,80,127,1810975100
4516,17,Jits_Phase_5,3,5,63,98,1810985296
4516,17,Jits_Phase_5,0,1,38,78,1811416620
4516,17,Jits_Phase_5,1,5,80,127,1811434852
4516,17,Jits_Phase_5,2,5,63,98,1811444976
4516,17,Jits_Phase_5,3,5,56,103,1811474796
4516,17,Jits_Phase_5,0,5,63,98,1811894828
4516,17,Jits_Phase_5,1,5,80,127,1811934840
4516,17,Jits_Phase_5,2,1,38,61,1811957508
4516,17,Jits_Phase_5,3,1,48,18,1811972708
4516,17,Jits_Phase_5,4,5,56,103,1811994900
4516,17,Jits_Phase_5,0,1,38,86,1812357388
4516,17,Jits_Phase_5,1,5,63,98,1812404540
4516,17,Jits_Phase_5,2,5,56,103,1812454948
4516,17,Jits_Phase_5,3,5,80,127,1812484548
4516,17,Jits_Phase_5,0,1,38,82,1812887548
4516,17,Jits_Phase_5,1,5,80,127,1812905336
4516,17,Jits_Phase_5,2,5,63,98,1812914488
4516,17,Jits_Phase_5,3,5,56,103,1812986020
4516,17,Jits_Phase_5,0,1,38,81,1813410596
4516,17,Jits_Phase_5,1,5,80,127,1813464724
4516,17,Jits_Phase_5,2,5,56,103,1813474844
4516,17,Jits_Phase_5,3,5,63,98,1813478060
4516,17,Jits_Phase_5,0,5,56,103,1813904696
4516,17,Jits_Phase_5,1,5,80,127,1813925376
4516,17,Jits_Phase_5,2,1,38,80,1813932864
4516,17,Jits_Phase_5,3,5,63,98,1813935344
4516,17,Jits_Phase_5,0,1,38,85,1814398724
4516,17,Jits_Phase_5,1,5,63,98,1814415012
4516,17,Jits_Phase_5,2,5,56,103,1814454880
4516,17,Jits_Phase_5,3,5,80,127,1814475188
4516,17,Jits_Phase_5,0,5,63,98,1814914404
4516,17,Jits_Phase_5,1,1,38,76,1814918344
4516,17,Jits_Phase_5,2,5,56,103,1814974932
4516,17,Jits_Phase_5,3,5,80,127,1814978072
4516,17,Jits_Phase_5,0,5,56,103,1815375088
4516,17,Jits_Phase_5,1,5,80,127,1815394872
4516,17,Jits_Phase_5,2,5,63,98,1815434684
4516,17,Jits_Phase_5,3,1,38,74,1815453844
4516,17,Jits_Phase_5,4,1,48,18,1815469096
4516,17,Jits_Phase_5,0,5,56,103,1815904596
4516,17,Jits_Phase_5,1,1,38,76,1815907640
4516,17,Jits_Phase_5,2,5,63,98,1815924996
4516,17,Jits_Phase_5,3,5,80,127,1815935340
4516,17,Jits_Phase_5,0,5,80,127,1816374764
4516,17,Jits_Phase_5,1,5,56,103,1816405336
4516,17,Jits_Phase_5,2,5,63,98,1816445300
4516,17,Jits_Phase_5,3,1,38,89,1816451632
4516,17,Jits_Phase_5,0,5,80,127,1816884788
4516,17,Jits_Phase_5,1,5,56,103,1816905024
4516,17,Jits_Phase_5,2,1,38,81,1816918408
4516,17,Jits_Phase_5,3,5,63,98,1816964680
4516,17,Jits_Phase_5,0,5,56,103,1817394664
4516,17,Jits_Phase_5,1,1,38,76,1817408796
4516,17,Jits_Phase_5,2,5,80,127,1817415044
4516,17,Jits_Phase_5,3,5,63,98,1817474628
4516,17,Jits_Phase_5,0,5,80,127,1817874804
4516,17,Jits_Phase_5,1,1,38,82,1817881136
4516,17,Jits_Phase_5,2,5,56,103,1817885216
4516,17,Jits_Phase_5,3,5,63,98,1817924852
4516,17,Jits_Phase_5,0,1,38,82,1818360584
4516,17,Jits_Phase_5,1,5,63,98,1818374704
4516,17,Jits_Phase_5,2,5,56,103,1818414640
4516,17,Jits_Phase_5,3,5,80,127,1818417632
4516,17,Jits_Phase_5,0,1,38,90,1818850660
4516,17,Jits_Phase_5,1,5,63,98,1818894596
4516,17,Jits_Phase_5,2,5,80,127,1818934532
4516,17,Jits_Phase_5,3,5,56,103,1818965608
4516,17,Jits_Phase_5,0,1,38,81,1819319092
4516,17,Jits_Phase_5,1,5,56,103,1819385056
4516,17,Jits_Phase_5,2,5,63,98,1819394652
4516,17,Jits_Phase_5,3,5,80,127,1819425060
4516,17,Jits_Phase_5,0,1,38,84,1819810224
4516,17,Jits_Phase_5,1,5,80,127,1819874688
4516,17,Jits_Phase_5,2,5,63,98,1819945400
4516,17,Jits_Phase_5,3,5,56,103,1819954620
4516,17,Jits_Phase_5,0,1,38,85,1820343400
4516,17,Jits_Phase_5,1,5,63,98,1820375260
4516,17,Jits_Phase_5,2,5,56,103,1820445000
4516,17,Jits_Phase_5,3,5,80,127,1820455644
4516,17,Jits_Phase_5,0,1,38,95,1820820664
4516,17,Jits_Phase_5,1,5,63,98,1820854564
4516,17,Jits_Phase_5,2,5,56,103,1820875024
4516,17,Jits_Phase_5,3,5,80,127,1820915016
4516,17,Jits_Phase_5,0,1,38,93,1821331052
4516,17,Jits_Phase_5,1,5,56,103,1821334832
4516,17,Jits_Phase_5,2,5,63,98,1821345252
4516,17,Jits_Phase_5,3,5,80,127,1821424952
4516,17,Jits_Phase_5,0,5,63,98,1821825668
4516,17,Jits_Phase_5,1,1,38,77,1821828568
4516,17,Jits_Phase_5,2,5,56,103,1821855040
4516,17,Jits_Phase_5,3,5,80,127,1821894976
4516,17,Jits_Phase_5,0,1,38,80,1822315172
4516,17,Jits_Phase_5,1,5,56,103,1822335524
4516,17,Jits_Phase_5,2,5,63,98,1822375536
4516,17,Jits_Phase_5,3,5,80,127,1822415308
4516,17,Jits_Phase_5,0,1,38,81,1822796784
4516,17,Jits_Phase_5,1,5,80,127,1822835124
4516,17,Jits_Phase_5,2,5,56,103,1822915052
4516,17,Jits_Phase_5,3,5,63,98,1822925100
4516,17,Jits_Phase_5,0,1,38,78,1823303288
4516,17,Jits_Phase_5,1,5,56,103,1823374656
4516,17,Jits_Phase_5,2,5,63,98,1823377872
4516,17,Jits_Phase_5,3,5,80,127,1823385076
4516,17,Jits_Phase_5,0,1,38,87,1823809012
4516,17,Jits_Phase_5,1,5,56,103,1823894852
4516,17,Jits_Phase_5,2,5,63,98,1823915592
4516,17,Jits_Phase_5,3,5,80,127,1823924520
4516,17,Jits_Phase_5,0,1,38,63,1824295288
4516,17,Jits_Phase_5,1,5,63,98,1824354652
4516,17,Jits_Phase_5,2,5,80,127,1824364796
4516,17,Jits_Phase_5,3,5,56,103,1824385476
4516,17,Jits_Phase_5,0,1,38,51,1824796604
4516,17,Jits_Phase_5,1,1,48,16,1824808124
4516,17,Jits_Phase_5,2,5,63,98,1824855648
4516,17,Jits_Phase_5,3,5,56,103,1824935496
4516,17,Jits_Phase_5,4,5,80,127,1824938564
4516,17,Jits_Phase_5,0,1,38,85,1825289008
4516,17,Jits_Phase_5,1,5,63,98,1825355044
4516,17,Jits_Phase_5,2,5,56,103,1825374604
4516,17,Jits_Phase_5,3,5,80,127,1825405332
4516,17,Jits_Phase_5,0,1,38,69,1825799244
4516,17,Jits_Phase_5,1,5,56,103,1825854940
4516,17,Jits_Phase_5,2,5,63,98,1825875544
4516,17,Jits_Phase_5,3,5,80,127,1825884544
4516,17,Jits_Phase_5,0,1,38,80,1826311276
4516,17,Jits_Phase_5,1,5,56,103,1826385400
4516,17,Jits_Phase_5,2,5,63,98,1826415084
4516,17,Jits_Phase_5,3,5,80,127,1826418524
4516,17,Jits_Phase_5,0,1,38,70,1826804212
4516,17,Jits_Phase_5,1,5,56,103,1826834652
4516,17,Jits_Phase_5,2,5,63,98,1826874592
4516,17,Jits_Phase_5,3,5,80,127,1826935284
4516,17,Jits_Phase_5,0,1,38,82,1827297212
4516,17,Jits_Phase_5,1,5,56,103,1827355004
4516,17,Jits_Phase_5,2,5,63,98,1827365204
4516,17,Jits_Phase_5,3,5,80,127,1827424528
4516,17,Jits_Phase_5,0,1,38,83,1827808500
4516,17,Jits_Phase_5,1,5,56,103,1827854680
4516,17,Jits_Phase_5,2,5,80,127,1827875288
4516,17,Jits_Phase_5,3,5,63,98,1827904812
4516,17,Jits_Phase_5,0,1,38,67,1828278656
4516,17,Jits_Phase_5,1,5,80,127,1828354428
4516,17,Jits_Phase_5,2,5,56,103,1828364624
4516,17,Jits_Phase_5,3,5,63,98,1828385068
4516,17,Jits_Phase_5,0,1,38,68,1828828448
4516,17,Jits_Phase_5,1,1,48,16,1828843592
4516,17,Jits_Phase_5,2,5,63,98,1828845616
4516,17,Jits_Phase_5,3,5,80,127,1828924720
4516,17,Jits_Phase_5,4,5,56,103,1828935212
4516,17,Jits_Phase_5,0,1,38,91,1829366356
4516,17,Jits_Phase_5,1,5,80,127,1829434712
4516,17,Jits_Phase_5,2,5,56,103,1829455316
4516,17,Jits_Phase_5,3,5,63,98,1829458236
4516,17,Jits_Phase_5,0,1,38,77,1829854044
4516,17,Jits_Phase_5,1,5,63,98,1829925388
4516,17,Jits_Phase_5,2,5,80,127,1829928676
4516,17,Jits_Phase_5,3,5,56,103,1829984488
4516,17,Jits_Phase_5,0,1,38,81,1830396784
4516,17,Jits_Phase_5,1,5,56,103,1830404528
4516,17,Jits_Phase_5,2,5,80,127,1830414724
4516,17,Jits_Phase_5,3,5,63,98,1830454588
4516,17,Jits_Phase_5,0,5,56,103,1830884808
4516,17,Jits_Phase_5,1,1,38,65,1830908156
4516,17,Jits_Phase_5,2,5,63,98,1830945416
4516,17,Jits_Phase_5,3,5,80,127,1830955460
4516,17,Jits_Phase_5,0,5,63,98,1831394616
4516,17,Jits_Phase_5,1,1,38,72,1831396700
4516,17,Jits_Phase_5,2,1,48,16,1831412176
4516,17,Jits_Phase_5,3,5,80,127,1831434540
4516,17,Jits_Phase_5,4,5,56,103,1831474400
4516,17,Jits_Phase_5,0,5,56,103,1831895504
4516,17,Jits_Phase_5,1,1,38,61,1831904324
4516,17,Jits_Phase_5,2,5,63,98,1831975288
4516,17,Jits_Phase_5,3,5,80,127,1831978652
4516,17,Jits_Phase_5,0,1,38,58,1832387960
4516,17,Jits_Phase_5,1,5,80,127,1832454444
4516,17,Jits_Phase_5,2,5,56,103,1832485460
4516,17,Jits_Phase_5,3,5,63,98,1832489260
4516,17,Jits_Phase_5,0,1,38,67,1832894080
4516,17,Jits_Phase_5,1,5,56,103,1832915232
4516,17,Jits_Phase_5,2,5,80,127,1832934940
4516,17,Jits_Phase_5,3,5,63,98,1832974800
4516,17,Jits_Phase_5,0,1,38,68,1833389700
4516,17,Jits_Phase_5,1,5,80,127,1833394676
4516,17,Jits_Phase_5,2,5,63,98,1833415508
4516,17,Jits_Phase_5,3,5,56,103,1833474476
4516,17,Jits_Phase_5,0,5,63,98,1833904476
4516,17,Jits_Phase_5,1,1,38,73,1833906412
4516,17,Jits_Phase_5,2,5,56,103,1833914664
4516,17,Jits_Phase_5,3,5,80,127,1833964788
4516,17,Jits_Phase_5,0,5,56,103,1834395156
4516,17,Jits_Phase_5,1,5,63,98,1834414420
4516,17,Jits_Phase_5,2,5,80,127,1834424616
4516,17,Jits_Phase_5,3,1,38,70,1834431996
4516,17,Jits_Phase_5,0,5,56,103,1834884504
4516,17,Jits_Phase_5,1,5,63,98,1834887496
4516,17,Jits_Phase_5,2,1,38,56,1834890616
4516,17,Jits_Phase_5,3,5,80,127,1834905032
4516,17,Jits_Phase_5,4,1,48,14,1834906144
4516,17,Jits_Phase_5,0,1,38,67,1835386784
4516,17,Jits_Phase_5,1,5,63,98,1835425248
4516,17,Jits_Phase_5,2,5,56,103,1835454776
4516,17,Jits_Phase_5,3,5,80,127,1835485404
4516,17,Jits_Phase_5,0,1,38,59,1835875952
4516,17,Jits_Phase_5,1,5,80,127,1835885364
4516,17,Jits_Phase_5,2,5,56,103,1835976396
4516,17,Jits_Phase_5,3,5,63,98,1835979368
4516,17,Jits_Phase_5,0,5,56,103,1836384716
4516,17,Jits_Phase_5,1,5,80,127,1836387632
4516,17,Jits_Phase_5,2,1,38,74,1836417896
4516,17,Jits_Phase_5,3,5,63,98,1836464524
4516,17,Jits_Phase_5,0,5,80,127,1836885516
4516,17,Jits_Phase_5,1,1,38,62,1836921096
4516,17,Jits_Phase_5,2,1,48,16,1836936292
4516,17,Jits_Phase_5,3,5,63,98,1836944708
4516,17,Jits_Phase_5,4,5,56,103,1836974456
4516,17,Jits_Phase_5,0,1,38,53,1837358656
4516,17,Jits_Phase_5,1,5,63,98,1837385056
4516,17,Jits_Phase_5,2,5,80,127,1837395180
4516,17,Jits_Phase_5,3,5,56,103,1837465164
4516,17,Jits_Phase_5,0,1,38,67,1837845972
4516,17,Jits_Phase_5,1,5,56,103,1837945128
4516,17,Jits_Phase_5,2,5,80,127,1837975172
4516,17,Jits_Phase_5,3,5,63,98,1838025000
4516,17,Jits_Phase_5,0,1,38,69,1838467112
4516,17,Jits_Phase_5,1,1,48,16,1838482288
4516,17,Jits_Phase_5,2,5,63,98,1838535144
4516,17,Jits_Phase_5,3,5,56,103,1838564656
4516,17,Jits_Phase_5,4,5,80,127,1838568016
4516,17,Jits_Phase_5,0,5,63,98,1839034784
4516,17,Jits_Phase_5,1,1,38,61,1839043156
4516,17,Jits_Phase_5,2,5,80,127,1839055160
4516,17,Jits_Phase_5,3,1,48,15,1839058800
4516,17,Jits_Phase_5,4,5,56,103,1839064528
4516,17,Jits_Phase_5,0,5,56,103,1839544668
4516,17,Jits_Phase_5,1,5,63,98,1839547812
4516,17,Jits_Phase_5,2,5,80,127,1839565128
4516,17,Jits_Phase_5,3,1,38,69,1839584360
4516,17,Jits_Phase_5,4,1,48,16,1839599460
4516,17,Jits_Phase_5,0,5,56,103,1839995284
4516,17,Jits_Phase_5,1,5,63,98,1840004436
4516,17,Jits_Phase_5,2,5,80,127,1840035156
4516,17,Jits_Phase_5,3,1,38,69,1840067488
4516,17,Jits_Phase_5,0,1,38,57,1840507300
4516,17,Jits_Phase_5,1,5,63,98,1840514300
4516,17,Jits_Phase_5,2,5,80,127,1840534908
4516,17,Jits_Phase_5,3,5,56,103,1840574768
4516,17,Jits_Phase_5,0,1,38,64,1841021504
4516,17,Jits_Phase_5,1,5,56,103,1841045064
4516,17,Jits_Phase_5,2,5,63,98,1841084924
4516,17,Jits_Phase_5,3,5,80,127,1841088288
4516,17,Jits_Phase_5,0,5,80,127,1841485156
4516,17,Jits_Phase_5,1,1,38,59,1841512092
4516,17,Jits_Phase_5,2,5,56,103,1841525188
4516,17,Jits_Phase_5,3,5,63,98,1841575312
4516,17,Jits_Phase_5,0,1,38,64,1842024076
4516,17,Jits_Phase_5,1,5,56,103,1842045252
4516,17,Jits_Phase_5,2,5,80,127,1842054552
4516,17,Jits_Phase_5,3,5,63,98,1842085196
4516,17,Jits_Phase_5,0,5,56,103,1842495088
4516,17,Jits_Phase_5,1,5,80,127,1842535028
4516,17,Jits_Phase_5,2,1,38,70,1842559820
4516,17,Jits_Phase_5,3,5,63,98,1842585172
4516,17,Jits_Phase_5,0,5,56,103,1842994484
4516,17,Jits_Phase_5,1,1,38,49,1843013560
4516,17,Jits_Phase_5,2,1,48,13,1843025080
4516,17,Jits_Phase_5,3,5,80,127,1843034468
4516,17,Jits_Phase_5,4,5,63,98,1843084544
4516,17,Jits_Phase_5,0,5,80,127,1843485036
4516,17,Jits_Phase_5,1,1,38,51,1843533940
4516,17,Jits_Phase_5,2,5,63,98,1843564848
4516,17,Jits_Phase_5,3,5,56,103,1843575044
4516,17,Jits_Phase_5,0,1,38,41,1844024248
4516,17,Jits_Phase_5,1,5,80,127,1844034916
4516,17,Jits_Phase_5,2,5,56,103,1844045036
4516,17,Jits_Phase_5,3,5,63,98,1844064744
4516,17,Jits_Phase_5,0,1,38,58,1844485564
4516,17,Jits_Phase_5,1,1,48,16,1844496932
4516,17,Jits_Phase_5,2,5,63,98,1844505124
4516,17,Jits_Phase_5,3,5,56,103,1844574580
4516,17,Jits_Phase_5,4,5,80,127,1844577720
4516,17,Jits_Phase_5,0,5,80,127,1844994568
4516,17,Jits_Phase_5,1,1,38,66,1845022104
4516,17,Jits_Phase_5,2,5,63,98,1845045064
4516,17,Jits_Phase_5,3,5,56,103,1845084700
4516,17,Jits_Phase_5,0,5,63,98,1845535164
4516,17,Jits_Phase_5,1,5,56,103,1845574952
4516,17,Jits_Phase_5,2,1,38,64,1845578148
4516,17,Jits_Phase_5,3,5,80,127,1845585216
4516,17,Jits_Phase_5,0,5,63,98,1846024428
4516,17,Jits_Phase_5,1,1,38,54,1846040804
4516,17,Jits_Phase_5,2,5,56,103,1846045032
4516,17,Jits_Phase_5,3,5,80,127,1846064440
4516,17,Jits_Phase_5,0,5,80,127,1846485216
4516,17,Jits_Phase_5,1,5,56,103,1846494516
4516,17,Jits_Phase_5,2,5,63,98,1846515120
4516,17,Jits_Phase_5,3,1,38,71,1846535252
4516,17,Jits_Phase_5,0,1,38,49,1846998572
4516,17,Jits_Phase_5,1,5,63,98,1847014932
4516,17,Jits_Phase_5,2,5,56,103,1847054796
4516,17,Jits_Phase_5,3,5,80,127,1847085444
4516,17,Jits_Phase_5,0,1,38,49,1847462652
4516,17,Jits_Phase_5,1,5,56,103,1847474676
4516,17,Jits_Phase_5,2,5,63,98,1847505400
4516,17,Jits_Phase_5,3,5,80,127,1847534924
4516,17,Jits_Phase_5,0,5,80,127,1847895376
4516,17,Jits_Phase_5,1,1,38,52,1847933964
4516,17,Jits_Phase_5,2,5,56,103,1847964996
4516,17,Jits_Phase_5,3,5,63,98,1847968064
4516,17,Jits_Phase_5,0,1,38,74,1848393456
4516,17,Jits_Phase_5,1,5,56,103,1848405312
4516,17,Jits_Phase_5,2,5,63,98,1848454492
4516,17,Jits_Phase_5,3,5,80,127,1848485140
4516,17,Jits_Phase_5,0,5,63,98,1848884764
4516,17,Jits_Phase_5,1,5,80,127,1848888056
4516,17,Jits_Phase_5,2,1,38,69,1848907064
4516,17,Jits_Phase_5,3,5,56,103,1848944944
4516,17,Jits_Phase_5,0,1,38,67,1849383872
4516,17,Jits_Phase_5,1,5,56,103,1849414984
4516,17,Jits_Phase_5,2,5,80,127,1849425256
4516,17,Jits_Phase_5,3,5,63,98,1849474360
4516,17,Jits_Phase_5,0,1,38,65,1849858888
4516,17,Jits_Phase_5,1,5,63,98,1849884992
4516,17,Jits_Phase_5,2,5,56,103,1849895188
4516,17,Jits_Phase_5,3,5,80,127,1849924936
4516,17,Jits_Phase_5,0,1,38,64,1850343512
4516,17,Jits_Phase_5,1,1,48,16,1850358612
4516,17,Jits_Phase_5,2,5,63,98,1850414304
4516,17,Jits_Phase_5,3,5,80,127,1850417968
4516,17,Jits_Phase_5,4,5,56,103,1850445236
4516,17,Jits_Phase_5,0,1,38,60,1850849772
4516,17,Jits_Phase_5,1,1,48,14,1850865416
4516,17,Jits_Phase_5,2,5,63,98,1850934596
4516,17,Jits_Phase_5,3,5,56,103,1850955112
4516,17,Jits_Phase_5,4,5,80,127,1850959136
4516,17,Jits_Phase_5,0,1,38,63,1851330500
4516,17,Jits_Phase_5,1,5,63,98,1851394368
4516,17,Jits_Phase_5,2,5,56,103,1851465080
4516,17,Jits_Phase_5,3,5,80,127,1851484640
4516,17,Jits_Phase_5,0,1,38,65,1851775196
4516,17,Jits_Phase_5,1,5,56,103,1851884888
4516,17,Jits_Phase_5,2,5,63,98,1851895084
4516,17,Jits_Phase_5,3,5,80,127,1851985212
4516,17,Jits_Phase_5,0,1,38,67,1852320632
4516,17,Jits_Phase_5,1,5,56,103,1852405028
4516,17,Jits_Phase_5,2,5,80,127,1852445176
4516,17,Jits_Phase_5,3,5,63,98,1852455372
4516,17,Jits_Phase_5,0,1,38,51,1852826232
4516,17,Jits_Phase_5,1,1,48,14,1852841936
4516,17,Jits_Phase_5,2,5,56,103,1852925268
4516,17,Jits_Phase_5,3,5,63,98,1852954928
4516,17,Jits_Phase_5,4,5,80,127,1852984828
4516,17,Jits_Phase_5,0,1,38,70,1853337460
4516,17,Jits_Phase_5,1,5,80,127,1853385064
4516,17,Jits_Phase_5,2,5,63,98,1853425004
4516,17,Jits_Phase_5,3,5,56,103,1853444548
4516,17,Jits_Phase_5,0,1,38,79,1853835572
4516,17,Jits_Phase_5,1,5,56,103,1853924972
4516,17,Jits_Phase_5,2,5,80,127,1853945340
4516,17,Jits_Phase_5,3,5,63,98,1853964680
4516,17,Jits_Phase_5,0,1,38,78,1854374504
4516,17,Jits_Phase_5,1,5,63,98,1854394756
4516,17,Jits_Phase_5,2,5,56,103,1854404880
4516,17,Jits_Phase_5,3,5,80,127,1854465488
4516,17,Jits_Phase_5,0,1,38,74,1854872516
4516,17,Jits_Phase_5,1,5,56,103,1854894652
4516,17,Jits_Phase_5,2,5,63,98,1854965008
4516,17,Jits_Phase_5,3,5,80,127,1854984776
4516,17,Jits_Phase_5,0,1,38,76,1855362084
4516,17,Jits_Phase_5,1,5,56,103,1855395156
4516,17,Jits_Phase_5,2,5,63,98,1855424908
4516,17,Jits_Phase_5,3,5,80,127,1855464828
4516,17,Jits_Phase_5,0,1,38,75,1855868280
4516,17,Jits_Phase_5,1,5,63,98,1855884568
4516,17,Jits_Phase_5,2,5,56,103,1855934844
4516,17,Jits_Phase_5,3,5,80,127,1855945188
4516,17,Jits_Phase_5,0,1,38,80,1856382556
4516,17,Jits_Phase_5,1,5,56,103,1856425224
4516,17,Jits_Phase_5,2,5,63,98,1856474748
4516,17,Jits_Phase_5,3,5,80,127,1856484708
4516,17,Jits_Phase_5,0,1,38,69,1856858016
4516,17,Jits_Phase_5,1,5,56,103,1856904600
4516,17,Jits_Phase_5,2,5,63,98,1856914868
4516,17,Jits_Phase_5,3,5,80,127,1856994644
4516,17,Jits_Phase_5,0,9999,9999,9999,1772672092
4516,17,Jits_Phase_5,1,9999,9999,9999,1773172820
4516,17,Jits_Phase_5,2,9999,9999,9999,1773672548
4516,17,Jits_Phase_5,3,9999,9999,9999,1774172216
4516,17,Jits_Phase_5,4,9999,9999,9999,1774673016
4516,17,Jits_Phase_5,5,9999,9999,9999,1775172696
4516,17,Jits_Phase_5,6,9999,9999,9999,1775672444
4516,17,Jits_Phase_5,7,9999,9999,9999,1776172116
4516,17,Jits_Phase_5,8,9999,9999,9999,1776672840
4516,17,Jits_Phase_5,9,9999,9999,9999,1777172572
4516,17,Jits_Phase_5,10,9999,9999,9999,1777672296
4516,17,Jits_Phase_5,11,9999,9999,9999,1778173016
4516,17,Jits_Phase_5,12,9999,9999,9999,1778672760
4516,17,Jits_Phase_5,13,9999,9999,9999,1779172460
4516,17,Jits_Phase_5,14,9999,9999,9999,1779672156
4516,17,Jits_Phase_5,15,9999,9999,9999,1780172868
4516,17,Jits_Phase_5,16,9999,9999,9999,1780672628
4516,17,Jits_Phase_5,17,9999,9999,9999,1781172308
4516,17,Jits_Phase_5,18,9999,9999,9999,1781673028
4516,17,Jits_Phase_5,19,9999,9999,9999,1782172756
4516,17,Jits_Phase_5,20,9999,9999,9999,1782672488
4516,17,Jits_Phase_5,21,9999,9999,9999,1783172176
4516,17,Jits_Phase_5,22,9999,9999,9999,1783672912
4516,17,Jits_Phase_5,23,9999,9999,9999,1784172648
4516,17,Jits_Phase_5,24,9999,9999,9999,1784672332
4516,17,Jits_Phase_5,25,9999,9999,9999,1785173060
4516,17,Jits_Phase_5,26,9999,9999,9999,1785672812
4516,17,Jits_Phase_5,27,9999,9999,9999,1786172472
4516,17,Jits_Phase_5,28,9999,9999,9999,1786672236
4516,17,Jits_Phase_5,29,9999,9999,9999,1787172968
4516,17,Jits_Phase_5,30,9999,9999,9999,1787662424
4516,17,Jits_Phase_5,31,9999,9999,9999,1788162168
4516,17,Jits_Phase_5,32,9999,9999,9999,1788662904
4516,17,Jits_Phase_5,33,9999,9999,9999,1789162592
4516,17,Jits_Phase_5,34,9999,9999,9999,1789662284
4516,17,Jits_Phase_5,35,9999,9999,9999,1790163024
4516,17,Jits_Phase_5,36,9999,9999,9999,1790662764
4516,17,Jits_Phase_5,37,9999,9999,9999,1791162436
4516,17,Jits_Phase_5,38,9999,9999,9999,1791662152
4516,17,Jits_Phase_5,39,9999,9999,9999,1792162932
4516,17,Jits_Phase_5,40,9999,9999,9999,1792662612
4516,17,Jits_Phase_5,41,9999,9999,9999,1793162296
4516,17,Jits_Phase_5,42,9999,9999,9999,1793663032
4516,17,Jits_Phase_5,43,9999,9999,9999,1794162776
4516,17,Jits_Phase_5,44,9999,9999,9999,1794662496
4516,17,Jits_Phase_5,45,9999,9999,9999,1795162176
4516,17,Jits_Phase_5,46,9999,9999,9999,1795662972
4516,17,Jits_Phase_5,47,9999,9999,9999,1796162652
4516,17,Jits_Phase_5,48,9999,9999,9999,1796672588
4516,17,Jits_Phase_5,49,9999,9999,9999,1797172344
4516,17,Jits_Phase_5,50,9999,9999,9999,1797673052
4516,17,Jits_Phase_5,51,9999,9999,9999,1798172740
4516,17,Jits_Phase_5,52,9999,9999,9999,1798672508
4516,17,Jits_Phase_5,53,9999,9999,9999,1799172200
4516,17,Jits_Phase_5,54,9999,9999,9999,1799672924
4516,17,Jits_Phase_5,55,9999,9999,9999,1800172616
4516,17,Jits_Phase_5,56,9999,9999,9999,1800672380
4516,17,Jits_Phase_5,57,9999,9999,9999,1801173108
4516,17,Jits_Phase_5,58,9999,9999,9999,1801672816
4516,17,Jits_Phase_5,59,9999,9999,9999,1802172480
4516,17,Jits_Phase_5,60,9999,9999,9999,1802672228
4516,17,Jits_Phase_5,61,9999,9999,9999,1803172940
4516,17,Jits_Phase_5,62,9999,9999,9999,1803672688
4516,17,Jits_Phase_5,63,9999,9999,9999,1804172360
4516,17,Jits_Phase_5,64,9999,9999,9999,1804692560
4516,17,Jits_Phase_5,65,9999,9999,9999,1805192304
4516,17,Jits_Phase_5,66,9999,9999,9999,1805693028
4516,17,Jits_Phase_5,67,9999,9999,9999,1806192764
4516,17,Jits_Phase_5,68,9999,9999,9999,1806692416
4516,17,Jits_Phase_5,69,9999,9999,9999,1807192156
4516,17,Jits_Phase_5,70,9999,9999,9999,1807692868
4516,17,Jits_Phase_5,71,9999,9999,9999,1808192632
4516,17,Jits_Phase_5,72,9999,9999,9999,1808692316
4516,17,Jits_Phase_5,73,9999,9999,9999,1809193036
4516,17,Jits_Phase_5,74,9999,9999,9999,1809692760
4516,17,Jits_Phase_5,75,9999,9999,9999,1810192508
4516,17,Jits_Phase_5,76,9999,9999,9999,1810692200
4516,17,Jits_Phase_5,77,9999,9999,9999,1811192920
4516,17,Jits_Phase_5,78,9999,9999,9999,1811692612
4516,17,Jits_Phase_5,79,9999,9999,9999,1812192312
4516,17,Jits_Phase_5,80,9999,9999,9999,1812693088
4516,17,Jits_Phase_5,81,9999,9999,9999,1813172312
4516,17,Jits_Phase_5,82,9999,9999,9999,1813673036
4516,17,Jits_Phase_5,83,9999,9999,9999,1814172784
4516,17,Jits_Phase_5,84,9999,9999,9999,1814672476
4516,17,Jits_Phase_5,85,9999,9999,9999,1815172224
4516,17,Jits_Phase_5,86,9999,9999,9999,1815672892
4516,17,Jits_Phase_5,87,9999,9999,9999,1816172632
4516,17,Jits_Phase_5,88,9999,9999,9999,1816672372
4516,17,Jits_Phase_5,89,9999,9999,9999,1817173104
4516,17,Jits_Phase_5,90,9999,9999,9999,1817672796
4516,17,Jits_Phase_5,91,9999,9999,9999,1818172480
4516,17,Jits_Phase_5,92,9999,9999,9999,1818672232
4516,17,Jits_Phase_5,93,9999,9999,9999,1819172956
4516,17,Jits_Phase_5,94,9999,9999,9999,1819672700
4516,17,Jits_Phase_5,95,9999,9999,9999,1820172376
4516,17,Jits_Phase_5,96,9999,9999,9999,1820672056
4516,17,Jits_Phase_5,97,9999,9999,9999,1821122660
4516,17,Jits_Phase_5,98,9999,9999,9999,1821622332
4516,17,Jits_Phase_5,99,9999,9999,9999,1822123128
4516,17,Jits_Phase_5,100,9999,9999,9999,1822633064
4516,17,Jits_Phase_5,101,9999,9999,9999,1823132740
4516,17,Jits_Phase_5,102,9999,9999,9999,1823632480
4516,17,Jits_Phase_5,103,9999,9999,9999,1824132164
4516,17,Jits_Phase_5,104,9999,9999,9999,1824632956
4516,17,Jits_Phase_5,105,9999,9999,9999,1825132652
4516,17,Jits_Phase_5,106,9999,9999,9999,1825632352
4516,17,Jits_Phase_5,107,9999,9999,9999,1826133072
4516,17,Jits_Phase_5,108,9999,9999,9999,1826632816
4516,17,Jits_Phase_5,109,9999,9999,9999,1827132492
4516,17,Jits_Phase_5,110,9999,9999,9999,1827632244
4516,17,Jits_Phase_5,111,9999,9999,9999,1828132964
4516,17,Jits_Phase_5,112,9999,9999,9999,1828632636
4516,17,Jits_Phase_5,113,9999,9999,9999,1829132356
4516,17,Jits_Phase_5,114,9999,9999,9999,1829682272
4516,17,Jits_Phase_5,115,9999,9999,9999,1830182988
4516,17,Jits_Phase_5,116,9999,9999,9999,1830682740
4516,17,Jits_Phase_5,117,9999,9999,9999,1831182416
4516,17,Jits_Phase_5,118,9999,9999,9999,1831682148
4516,17,Jits_Phase_5,119,9999,9999,9999,1832182840
4516,17,Jits_Phase_5,120,9999,9999,9999,1832682604
4516,17,Jits_Phase_5,121,9999,9999,9999,1833182280
4516,17,Jits_Phase_5,122,9999,9999,9999,1833683004
4516,17,Jits_Phase_5,123,9999,9999,9999,1834182752
4516,17,Jits_Phase_5,124,9999,9999,9999,1834682424
4516,17,Jits_Phase_5,125,9999,9999,9999,1835182140
4516,17,Jits_Phase_5,126,9999,9999,9999,1835682932
4516,17,Jits_Phase_5,127,9999,9999,9999,1836182600
4516,17,Jits_Phase_5,128,9999,9999,9999,1836682336
4516,17,Jits_Phase_5,129,9999,9999,9999,1837183028
4516,17,Jits_Phase_5,130,9999,9999,9999,1837682768
4516,17,Jits_Phase_5,131,9999,9999,9999,1838282832
4516,17,Jits_Phase_5,132,9999,9999,9999,1838782540
4516,17,Jits_Phase_5,133,9999,9999,9999,1839282240
4516,17,Jits_Phase_5,134,9999,9999,9999,1839783036
4516,17,Jits_Phase_5,135,9999,9999,9999,1840282704
4516,17,Jits_Phase_5,136,9999,9999,9999,1840782396
4516,17,Jits_Phase_5,137,9999,9999,9999,1841282140
4516,17,Jits_Phase_5,138,9999,9999,9999,1841782868
4516,17,Jits_Phase_5,139,9999,9999,9999,1842282636
4516,17,Jits_Phase_5,140,9999,9999,9999,1842782288
4516,17,Jits_Phase_5,141,9999,9999,9999,1843283052
4516,17,Jits_Phase_5,142,9999,9999,9999,1843782720
4516,17,Jits_Phase_5,143,9999,9999,9999,1844282484
4516,17,Jits_Phase_5,144,9999,9999,9999,1844782188
4516,17,Jits_Phase_5,145,9999,9999,9999,1845282888
4516,17,Jits_Phase_5,146,9999,9999,9999,1845782656
4516,17,Jits_Phase_5,147,9999,9999,9999,1846282328
4516,17,Jits_Phase_5,148,9999,9999,9999,1846783044
4516,17,Jits_Phase_5,149,9999,9999,9999,1847282808
4516,17,Jits_Phase_5,150,9999,9999,9999,1847682176
4516,17,Jits_Phase_5,151,9999,9999,9999,1848182888
4516,17,Jits_Phase_5,152,9999,9999,9999,1848682576
4516,17,Jits_Phase_5,153,9999,9999,9999,1849182288
4516,17,Jits_Phase_5,154,9999,9999,9999,1849683008
4516,17,Jits_Phase_5,155,9999,9999,9999,1850182752
4516,17,Jits_Phase_5,156,9999,9999,9999,1850682456
4516,17,Jits_Phase_5,157,9999,9999,9999,1851182140
4516,17,Jits_Phase_5,158,9999,9999,9999,1851682920
4516,17,Jits_Phase_5,159,9999,9999,9999,1852182592
4516,17,Jits_Phase_5,160,9999,9999,9999,1852682340
4516,17,Jits_Phase_5,161,9999,9999,9999,1853183028
4516,17,Jits_Phase_5,162,9999,9999,9999,1853682756
4516,17,Jits_Phase_5,163,9999,9999,9999,1854182508
4516,17,Jits_Phase_5,164,9999,9999,9999,1854682184
4516,17,Jits_Phase_5,165,9999,9999,9999,1855182908
4516,17,Jits_Phase_5,166,9999,9999,9999,1855682656
4516,17,Jits_Phase_5,167,9999,9999,9999,1856182332
4516,17,Jits_Phase_5,168,9999,9999,9999,1856683132
4516,17,Jits_Phase_5,169,9999,9999,9999,1857193072
4517,15,Jits_Phase_8,0,5,56,103,1868571176
4517,15,Jits_Phase_8,1,5,63,98,1868574124
4517,15,Jits_Phase_8,2,5,80,127,1868577396
4517,15,Jits_Phase_8,0,1,38,49,1869034600
4517,15,Jits_Phase_8,1,5,56,103,1869370800
4517,15,Jits_Phase_8,2,5,63,98,1869373900
4517,15,Jits_Phase_8,3,5,80,127,1869377316
4517,15,Jits_Phase_8,0,1,38,59,1870060260
4517,15,Jits_Phase_8,1,5,80,127,1870111304
4517,15,Jits_Phase_8,2,5,63,98,1870201372
4517,15,Jits_Phase_8,3,5,56,103,1870210524
4517,15,Jits_Phase_8,0,5,56,103,1870931224
4517,15,Jits_Phase_8,1,5,63,98,1870940524
4517,15,Jits_Phase_8,2,1,38,65,1870969520
4517,15,Jits_Phase_8,3,5,80,127,1871030596
4517,15,Jits_Phase_8,0,5,63,98,1871701328
4517,15,Jits_Phase_8,1,5,80,127,1871731252
4517,15,Jits_Phase_8,2,1,38,66,1871752208
4517,15,Jits_Phase_8,3,5,56,103,1871760696
4517,15,Jits_Phase_8,0,1,38,72,1872481116
4517,15,Jits_Phase_8,1,5,56,103,1872501244
4517,15,Jits_Phase_8,2,5,80,127,1872600360
4517,15,Jits_Phase_8,3,5,63,98,1872650636
4517,15,Jits_Phase_8,0,5,56,103,1873301164
4517,15,Jits_Phase_8,1,1,38,76,1873345408
4517,15,Jits_Phase_8,2,5,80,127,1873351360
4517,15,Jits_Phase_8,3,5,63,98,1873391368
4517,15,Jits_Phase_8,0,1,38,76,1874128988
4517,15,Jits_Phase_8,1,5,80,127,1874131492
4517,15,Jits_Phase_8,2,5,63,98,1874161020
4517,15,Jits_Phase_8,3,5,56,103,1874230836
4517,15,Jits_Phase_8,0,5,63,98,1874961004
4517,15,Jits_Phase_8,1,1,38,68,1874971024
4517,15,Jits_Phase_8,2,5,56,103,1874990376
4517,15,Jits_Phase_8,3,5,80,127,1875051088
4517,15,Jits_Phase_8,0,5,56,103,1875701128
4517,15,Jits_Phase_8,1,5,80,127,1875704120
4517,15,Jits_Phase_8,2,1,38,73,1875767696
4517,15,Jits_Phase_8,3,5,63,98,1875821168
4517,15,Jits_Phase_8,0,1,38,72,1876529560
4517,15,Jits_Phase_8,1,5,56,103,1876580604
4517,15,Jits_Phase_8,2,5,80,127,1876620788
4517,15,Jits_Phase_8,3,5,63,98,1876630968
4517,15,Jits_Phase_8,0,5,56,103,1877340512
4517,15,Jits_Phase_8,1,1,38,77,1877343032
4517,15,Jits_Phase_8,2,5,80,127,1877360916
4517,15,Jits_Phase_8,3,5,63,98,1877441216
4517,15,Jits_Phase_8,0,1,38,68,1878129204
4517,15,Jits_Phase_8,1,5,80,127,1878132064
4517,15,Jits_Phase_8,2,5,56,103,1878231400
4517,15,Jits_Phase_8,3,5,63,98,1878240548
4517,15,Jits_Phase_8,0,5,63,98,1878901040
4517,15,Jits_Phase_8,1,1,38,80,1878949944
4517,15,Jits_Phase_8,2,5,80,127,1878960452
4517,15,Jits_Phase_8,3,5,56,103,1878971168
4517,15,Jits_Phase_8,0,1,38,77,1879695212
4517,15,Jits_Phase_8,1,5,56,103,1879701236
4517,15,Jits_Phase_8,2,5,63,98,1879770620
4517,15,Jits_Phase_8,3,5,80,127,1879774132
4517,15,Jits_Phase_8,0,1,38,85,1880446112
4517,15,Jits_Phase_8,1,5,63,98,1880531256
4517,15,Jits_Phase_8,2,5,56,103,1880580468
4517,15,Jits_Phase_8,3,5,80,127,1880583832
4517,15,Jits_Phase_8,0,1,38,73,1881263844
4517,15,Jits_Phase_8,1,5,56,103,1881291068
4517,15,Jits_Phase_8,2,5,80,127,1881294208
4517,15,Jits_Phase_8,3,5,63,98,1881381332
4517,15,Jits_Phase_8,0,1,38,87,1882039620
4517,15,Jits_Phase_8,1,5,63,98,1882130968
4517,15,Jits_Phase_8,2,5,56,103,1882221112
4517,15,Jits_Phase_8,3,5,80,127,1882250788
4517,15,Jits_Phase_8,0,1,38,70,1882891076
4517,15,Jits_Phase_8,1,5,56,103,1882921292
4517,15,Jits_Phase_8,2,5,63,98,1883020804
4517,15,Jits_Phase_8,3,5,80,127,1883051228
4517,15,Jits_Phase_8,0,1,38,75,1883693904
4517,15,Jits_Phase_8,1,5,63,98,1883740688
4517,15,Jits_Phase_8,2,5,56,103,1883750956
4517,15,Jits_Phase_8,3,5,80,127,1883841000
4517,15,Jits_Phase_8,0,1,38,78,1884480764
4517,15,Jits_Phase_8,1,5,63,98,1884560828
4517,15,Jits_Phase_8,2,5,56,103,1884640904
4517,15,Jits_Phase_8,3,5,80,127,1884643824
4517,15,Jits_Phase_8,0,1,38,66,1885274292
4517,15,Jits_Phase_8,1,5,80,127,1885320720
4517,15,Jits_Phase_8,2,5,63,98,1885341108
4517,15,Jits_Phase_8,3,5,56,103,1885400284
4517,15,Jits_Phase_8,0,1,38,74,1886097216
4517,15,Jits_Phase_8,1,5,56,103,1886161384
4517,15,Jits_Phase_8,2,5,63,98,1886180648
4517,15,Jits_Phase_8,3,5,80,127,1886183940
4517,15,Jits_Phase_8,0,1,38,71,1886875616
4517,15,Jits_Phase_8,1,5,63,98,1886900972
4517,15,Jits_Phase_8,2,5,80,127,1886980608
4517,15,Jits_Phase_8,3,5,56,103,1886990880
4517,15,Jits_Phase_8,0,1,38,77,1887684896
4517,15,Jits_Phase_8,1,5,63,98,1887720964
4517,15,Jits_Phase_8,2,5,56,103,1887741272
4517,15,Jits_Phase_8,3,5,80,127,1887790412
4517,15,Jits_Phase_8,0,1,38,73,1888494916
4517,15,Jits_Phase_8,1,5,80,127,1888520792
4517,15,Jits_Phase_8,2,5,63,98,1888560660
4517,15,Jits_Phase_8,3,5,56,103,1888580968
4517,15,Jits_Phase_8,0,1,38,79,1889319032
4517,15,Jits_Phase_8,1,5,56,103,1889361304
4517,15,Jits_Phase_8,2,5,63,98,1889370752
4517,15,Jits_Phase_8,3,5,80,127,1889391012
4517,15,Jits_Phase_8,0,5,56,103,1890091468
4517,15,Jits_Phase_8,1,1,38,78,1890102460
4517,15,Jits_Phase_8,2,5,63,98,1890180648
4517,15,Jits_Phase_8,3,5,80,127,1890240800
4517,15,Jits_Phase_8,0,1,38,85,1890908128
4517,15,Jits_Phase_8,1,5,80,127,1890920852
4517,15,Jits_Phase_8,2,5,56,103,1890931196
4517,15,Jits_Phase_8,3,5,63,98,1891000804
4517,15,Jits_Phase_8,0,1,38,81,1891702828
4517,15,Jits_Phase_8,1,5,63,98,1891751180
4517,15,Jits_Phase_8,2,5,80,127,1891841520
4517,15,Jits_Phase_8,3,5,56,103,1891850668
4517,15,Jits_Phase_8,0,5,63,98,1892481420
4517,15,Jits_Phase_8,1,5,80,127,1892530800
4517,15,Jits_Phase_8,2,1,38,64,1892585536
4517,15,Jits_Phase_8,3,5,56,103,1892591032
4517,15,Jits_Phase_8,0,1,38,88,1893198320
4517,15,Jits_Phase_8,1,5,56,103,1893300560
4517,15,Jits_Phase_8,2,5,80,127,1893350764
4517,15,Jits_Phase_8,3,5,63,98,1893371596
4517,15,Jits_Phase_8,0,5,56,103,1894070524
4517,15,Jits_Phase_8,1,1,38,81,1894090056
4517,15,Jits_Phase_8,2,5,80,127,1894130980
4517,15,Jits_Phase_8,3,5,63,98,1894200796
4517,15,Jits_Phase_8,0,5,56,103,1894871640
4517,15,Jits_Phase_8,1,1,38,80,1894885168
4517,15,Jits_Phase_8,2,5,80,127,1894901084
4517,15,Jits_Phase_8,3,5,63,98,1894930760
4517,15,Jits_Phase_8,0,1,38,77,1895636752
4517,15,Jits_Phase_8,1,5,56,103,1895711256
4517,15,Jits_Phase_8,2,5,80,127,1895730596
4517,15,Jits_Phase_8,3,5,63,98,1895791068
4517,15,Jits_Phase_8,0,1,38,73,1896440268
4517,15,Jits_Phase_8,1,5,80,127,1896590596
4517,15,Jits_Phase_8,2,5,56,103,1896600864
4517,15,Jits_Phase_8,3,5,63,98,1896611136
4517,15,Jits_Phase_8,0,1,38,79,1897295096
4517,15,Jits_Phase_8,1,5,56,103,1897350592
4517,15,Jits_Phase_8,2,5,80,127,1897391488
4517,15,Jits_Phase_8,3,5,63,98,1897421384
4517,15,Jits_Phase_8,0,1,38,73,1898116904
4517,15,Jits_Phase_8,1,5,56,103,1898120536
4517,15,Jits_Phase_8,2,5,63,98,1898151408
4517,15,Jits_Phase_8,3,5,80,127,1898191344
4517,15,Jits_Phase_8,0,5,80,127,1898871300
4517,15,Jits_Phase_8,1,1,38,66,1898897040
4517,15,Jits_Phase_8,2,5,63,98,1898921420
4517,15,Jits_Phase_8,3,5,56,103,1898940760
4517,15,Jits_Phase_8,0,1,38,58,1899695312
4517,15,Jits_Phase_8,1,5,56,103,1899700584
4517,15,Jits_Phase_8,2,1,48,15,1899710824
4517,15,Jits_Phase_8,3,5,80,127,1899771380
4517,15,Jits_Phase_8,4,5,63,98,1899830532
4517,15,Jits_Phase_8,0,1,38,72,1900458300
4517,15,Jits_Phase_8,1,5,80,127,1900501412
4517,15,Jits_Phase_8,2,5,63,98,1900590340
4517,15,Jits_Phase_8,3,5,56,103,1900610872
4517,15,Jits_Phase_8,0,5,63,98,1901320516
4517,15,Jits_Phase_8,1,5,56,103,1901340904
4517,15,Jits_Phase_8,2,1,38,68,1901356380
4517,15,Jits_Phase_8,3,5,80,127,1901380984
4517,15,Jits_Phase_8,0,5,80,127,1902081316
4517,15,Jits_Phase_8,1,5,63,98,1902100804
4517,15,Jits_Phase_8,2,1,38,68,1902114036
4517,15,Jits_Phase_8,3,5,56,103,1902180664
4517,15,Jits_Phase_8,0,5,63,98,1902870816
4517,15,Jits_Phase_8,1,1,38,69,1902904576
4517,15,Jits_Phase_8,2,5,56,103,1902980368
4517,15,Jits_Phase_8,3,5,80,127,1902983588
4517,15,Jits_Phase_8,0,1,38,67,1903648120
4517,15,Jits_Phase_8,1,5,63,98,1903691308
4517,15,Jits_Phase_8,2,5,56,103,1903701428
4517,15,Jits_Phase_8,3,5,80,127,1903704420
4517,15,Jits_Phase_8,0,1,38,69,1904442924
4517,15,Jits_Phase_8,1,5,56,103,1904471348
4517,15,Jits_Phase_8,2,5,80,127,1904591232
4517,15,Jits_Phase_8,3,5,63,98,1904631320
4517,15,Jits_Phase_8,0,1,38,75,1905280996
4517,15,Jits_Phase_8,1,5,56,103,1905290540
4517,15,Jits_Phase_8,2,5,80,127,1905370412
4517,15,Jits_Phase_8,3,5,63,98,1905390928
4517,15,Jits_Phase_8,0,5,56,103,1906091500
4517,15,Jits_Phase_8,1,1,38,70,1906094616
4517,15,Jits_Phase_8,2,5,63,98,1906201164
4517,15,Jits_Phase_8,3,5,80,127,1906204376
4517,15,Jits_Phase_8,0,1,38,77,1906911544
4517,15,Jits_Phase_8,1,5,56,103,1906931340
4517,15,Jits_Phase_8,2,5,80,127,1906960720
4517,15,Jits_Phase_8,3,5,63,98,1906981400
4517,15,Jits_Phase_8,0,5,63,98,1907720472
4517,15,Jits_Phase_8,1,1,38,74,1907721888
4517,15,Jits_Phase_8,2,5,56,103,1907730736
4517,15,Jits_Phase_8,3,5,80,127,1907741156
4517,15,Jits_Phase_8,0,1,38,71,1908490824
4517,15,Jits_Phase_8,1,5,80,127,1908511224
4517,15,Jits_Phase_8,2,5,56,103,1908561132
4517,15,Jits_Phase_8,3,5,63,98,1908601156
4517,15,Jits_Phase_8,0,1,38,66,1909311936
4517,15,Jits_Phase_8,1,5,80,127,1909331364
4517,15,Jits_Phase_8,2,5,63,98,1909350628
4517,15,Jits_Phase_8,3,5,56,103,1909401200
4517,15,Jits_Phase_8,0,5,80,127,1910141168
4517,15,Jits_Phase_8,1,1,38,68,1910169252
4517,15,Jits_Phase_8,2,5,56,103,1910172260
4517,15,Jits_Phase_8,3,5,63,98,1910240520
4517,15,Jits_Phase_8,0,1,38,72,1910950804
4517,15,Jits_Phase_8,1,5,56,103,1910991288
4517,15,Jits_Phase_8,2,5,80,127,1911000288
4517,15,Jits_Phase_8,3,5,63,98,1911041276
4517,15,Jits_Phase_8,0,5,56,103,1911700928
4517,15,Jits_Phase_8,1,5,63,98,1911721460
4517,15,Jits_Phase_8,2,1,38,71,1911759572
4517,15,Jits_Phase_8,3,5,80,127,1911790984
4517,15,Jits_Phase_8,0,1,38,72,1912517212
4517,15,Jits_Phase_8,1,5,63,98,1912521216
4517,15,Jits_Phase_8,2,5,80,127,1912580492
4517,15,Jits_Phase_8,3,5,56,103,1912601244
4517,15,Jits_Phase_8,0,1,38,66,1913305440
4517,15,Jits_Phase_8,1,5,80,127,1913310716
4517,15,Jits_Phase_8,2,5,56,103,1913341288
4517,15,Jits_Phase_8,3,5,63,98,1913371040
4517,15,Jits_Phase_8,0,1,38,59,1914096052
4517,15,Jits_Phase_8,1,5,56,103,1914111444
4517,15,Jits_Phase_8,2,5,63,98,1914171012
4517,15,Jits_Phase_8,3,5,80,127,1914231188
4517,15,Jits_Phase_8,0,1,38,60,1914865392
4517,15,Jits_Phase_8,1,5,80,127,1914930756
4517,15,Jits_Phase_8,2,5,56,103,1914950992
4517,15,Jits_Phase_8,3,5,63,98,1915020684
4517,15,Jits_Phase_8,0,1,38,76,1915643656
4517,15,Jits_Phase_8,1,5,80,127,1915731344
4517,15,Jits_Phase_8,2,5,63,98,1915751064
4517,15,Jits_Phase_8,3,5,56,103,1915780736
4517,15,Jits_Phase_8,0,1,38,69,1916518248
4517,15,Jits_Phase_8,1,5,80,127,1916521060
4517,15,Jits_Phase_8,2,5,63,98,1916541220
4517,15,Jits_Phase_8,3,5,56,103,1916600936
4517,15,Jits_Phase_8,0,5,80,127,1917320452
4517,15,Jits_Phase_8,1,1,38,67,1917325140
4517,15,Jits_Phase_8,2,5,56,103,1917420916
4517,15,Jits_Phase_8,3,5,63,98,1917450724
4517,15,Jits_Phase_8,0,5,63,98,1918111236
4517,15,Jits_Phase_8,1,5,80,127,1918161216
4517,15,Jits_Phase_8,2,5,56,103,1918181000
4517,15,Jits_Phase_8,3,1,38,70,1918185692
4517,15,Jits_Phase_8,0,1,38,76,1918872300
4517,15,Jits_Phase_8,1,5,80,127,1918950696
4517,15,Jits_Phase_8,2,5,56,103,1918980504
4517,15,Jits_Phase_8,3,5,63,98,1918983572
4517,15,Jits_Phase_8,0,1,38,69,1919690188
4517,15,Jits_Phase_8,1,5,63,98,1919800932
4517,15,Jits_Phase_8,2,5,56,103,1919840944
4517,15,Jits_Phase_8,3,5,80,127,1919860980
4517,15,Jits_Phase_8,0,1,38,54,1920461260
4517,15,Jits_Phase_8,1,1,48,15,1920476664
4517,15,Jits_Phase_8,2,5,80,127,1920560612
4517,15,Jits_Phase_8,3,5,63,98,1920641448
4517,15,Jits_Phase_8,4,5,56,103,1920681460
4517,15,Jits_Phase_8,0,1,38,61,1921343292
4517,15,Jits_Phase_8,1,5,63,98,1921380860
4517,15,Jits_Phase_8,2,5,80,127,1921460740
4517,15,Jits_Phase_8,3,5,56,103,1921481048
4517,15,Jits_Phase_8,0,1,38,72,1922165332
4517,15,Jits_Phase_8,1,5,56,103,1922221556
4517,15,Jits_Phase_8,2,5,63,98,1922230628
4517,15,Jits_Phase_8,3,5,80,127,1922270848
4517,15,Jits_Phase_8,0,5,56,103,1922941380
4517,15,Jits_Phase_8,1,5,80,127,1922944296
4517,15,Jits_Phase_8,2,1,38,67,1922962560
4517,15,Jits_Phase_8,3,5,63,98,1923080632
4517,15,Jits_Phase_8,0,5,56,103,1923730732
4517,15,Jits_Phase_8,1,1,38,69,1923746576
4517,15,Jits_Phase_8,2,5,63,98,1923820856
4517,15,Jits_Phase_8,3,5,80,127,1923890744
4517,15,Jits_Phase_8,0,1,38,57,1924557508
4517,15,Jits_Phase_8,1,5,63,98,1924610512
4517,15,Jits_Phase_8,2,5,80,127,1924613876
4517,15,Jits_Phase_8,3,5,56,103,1924670812
4517,15,Jits_Phase_8,0,1,38,58,1925428976
4517,15,Jits_Phase_8,1,5,80,127,1925451100
4517,15,Jits_Phase_8,2,5,56,103,1925470808
4517,15,Jits_Phase_8,3,5,63,98,1925480956
4517,15,Jits_Phase_8,0,5,56,103,1926160740
4517,15,Jits_Phase_8,1,5,63,98,1926170936
4517,15,Jits_Phase_8,2,1,38,63,1926229724
4517,15,Jits_Phase_8,3,5,80,127,1926240760
4517,15,Jits_Phase_8,0,5,80,127,1926960584
4517,15,Jits_Phase_8,1,1,38,59,1927000344
4517,15,Jits_Phase_8,2,5,56,103,1927010632
4517,15,Jits_Phase_8,3,5,63,98,1927060784
4517,15,Jits_Phase_8,0,1,38,44,1927765116
4517,15,Jits_Phase_8,1,5,56,103,1927840992
4517,15,Jits_Phase_8,2,5,63,98,1927851636
4517,15,Jits_Phase_8,3,5,80,127,1927891408
4517,15,Jits_Phase_8,0,5,56,103,1928580676
4517,15,Jits_Phase_8,1,1,38,43,1928581792
4517,15,Jits_Phase_8,2,5,63,98,1928621508
4517,15,Jits_Phase_8,3,5,80,127,1928670736
4517,15,Jits_Phase_8,0,5,80,127,1929341564
4517,15,Jits_Phase_8,1,1,38,42,1929373528
4517,15,Jits_Phase_8,2,5,56,103,1929390564
4517,15,Jits_Phase_8,3,5,63,98,1929410800
4517,15,Jits_Phase_8,0,1,38,44,1930136200
4517,15,Jits_Phase_8,1,5,80,127,1930151216
4517,15,Jits_Phase_8,2,5,63,98,1930210636
4517,15,Jits_Phase_8,3,5,56,103,1930290412
4517,15,Jits_Phase_8,0,1,38,71,1930875496
4517,15,Jits_Phase_8,1,5,80,127,1930930524
4517,15,Jits_Phase_8,2,5,56,103,1930970464
4517,15,Jits_Phase_8,3,5,63,98,1930990984
4517,15,Jits_Phase_8,0,1,38,57,1931701856
4517,15,Jits_Phase_8,1,1,48,14,1931717408
4517,15,Jits_Phase_8,2,5,56,103,1931780680
4517,15,Jits_Phase_8,3,5,80,127,1931790652
4517,15,Jits_Phase_8,4,5,63,98,1931830620
4517,15,Jits_Phase_8,0,1,38,64,1932542004
4517,15,Jits_Phase_8,1,5,56,103,1932650824
4517,15,Jits_Phase_8,2,5,63,98,1932690760
4517,15,Jits_Phase_8,3,5,80,127,1932694200
4517,15,Jits_Phase_8,0,5,63,98,1933320592
4517,15,Jits_Phase_8,1,5,80,127,1933360604
4517,15,Jits_Phase_8,2,1,38,80,1933365296
4517,15,Jits_Phase_8,3,5,56,103,1933431572
4517,15,Jits_Phase_8,0,5,63,98,1934090604
4517,15,Jits_Phase_8,1,1,38,76,1934169116
4517,15,Jits_Phase_8,2,5,56,103,1934171740
4517,15,Jits_Phase_8,3,5,80,127,1934231104
4517,15,Jits_Phase_8,0,1,38,76,1934833308
4517,15,Jits_Phase_8,1,5,80,127,1934900544
4517,15,Jits_Phase_8,2,5,63,98,1934950756
4517,15,Jits_Phase_8,3,5,56,103,1934980356
4517,15,Jits_Phase_8,0,1,38,83,1935658304
4517,15,Jits_Phase_8,1,5,56,103,1935691304
4517,15,Jits_Phase_8,2,5,63,98,1935741384
4517,15,Jits_Phase_8,3,5,80,127,1935750456
4517,15,Jits_Phase_8,0,1,38,78,1936467348
4517,15,Jits_Phase_8,1,5,56,103,1936501272
4517,15,Jits_Phase_8,2,5,63,98,1936610572
4517,15,Jits_Phase_8,3,5,80,127,1936631404
4517,15,Jits_Phase_8,0,5,63,98,1937300816
4517,15,Jits_Phase_8,1,1,38,62,1937308816
4517,15,Jits_Phase_8,2,5,80,127,1937351160
4517,15,Jits_Phase_8,3,5,56,103,1937441272
4517,15,Jits_Phase_8,0,5,63,98,1938091432
4517,15,Jits_Phase_8,1,5,80,127,1938121180
4517,15,Jits_Phase_8,2,1,38,65,1938122820
4517,15,Jits_Phase_8,3,5,56,103,1938211376
4517,15,Jits_Phase_8,0,5,63,98,1938891332
4517,15,Jits_Phase_8,1,5,56,103,1938901380
4517,15,Jits_Phase_8,2,1,38,62,1938931468
4517,15,Jits_Phase_8,3,5,80,127,1939000644
4517,15,Jits_Phase_8,0,1,38,67,1939759836
4517,15,Jits_Phase_8,1,5,63,98,1939791324
4517,15,Jits_Phase_8,2,5,80,127,1939820876
4517,15,Jits_Phase_8,3,5,56,103,1939850624
4517,15,Jits_Phase_8,0,1,38,63,1940536892
4517,15,Jits_Phase_8,1,5,80,127,1940610300
4517,15,Jits_Phase_8,2,5,63,98,1940620572
4517,15,Jits_Phase_8,3,5,56,103,1940651356
4517,15,Jits_Phase_8,0,5,80,127,1941310848
4517,15,Jits_Phase_8,1,5,63,98,1941331236
4517,15,Jits_Phase_8,2,1,38,68,1941356324
4517,15,Jits_Phase_8,3,5,56,103,1941380404
4517,15,Jits_Phase_8,0,1,38,68,1942122900
4517,15,Jits_Phase_8,1,5,63,98,1942141356
4517,15,Jits_Phase_8,2,5,80,127,1942200624
4517,15,Jits_Phase_8,3,5,56,103,1942221292
4517,15,Jits_Phase_8,0,5,63,98,1942901260
4517,15,Jits_Phase_8,1,1,38,61,1942915988
4517,15,Jits_Phase_8,2,5,56,103,1942951232
4517,15,Jits_Phase_8,3,5,80,127,1942960456
4517,15,Jits_Phase_8,0,1,38,56,1943702480
4517,15,Jits_Phase_8,1,5,56,103,1943730532
4517,15,Jits_Phase_8,2,5,80,127,1943740652
4517,15,Jits_Phase_8,3,5,63,98,1943841328
4517,15,Jits_Phase_8,0,5,80,127,1944491260
4517,15,Jits_Phase_8,1,5,63,98,1944500632
4517,15,Jits_Phase_8,2,1,38,69,1944508012
4517,15,Jits_Phase_8,3,5,56,103,1944651048
4517,15,Jits_Phase_8,0,5,63,98,1945301296
4517,15,Jits_Phase_8,1,5,80,127,1945341160
4517,15,Jits_Phase_8,2,1,38,60,1945358600
4517,15,Jits_Phase_8,3,5,56,103,1945421172
4517,15,Jits_Phase_8,0,1,38,76,1946012840
4517,15,Jits_Phase_8,1,5,56,103,1946051152
4517,15,Jits_Phase_8,2,5,80,127,1946151308
4517,15,Jits_Phase_8,3,5,63,98,1946170872
4517,15,Jits_Phase_8,0,1,38,68,1946866092
4517,15,Jits_Phase_8,1,5,80,127,1946871140
4517,15,Jits_Phase_8,2,5,56,103,1946881268
4517,15,Jits_Phase_8,3,5,63,98,1946970332
4517,15,Jits_Phase_8,0,1,38,70,1947666972
4517,15,Jits_Phase_8,1,5,56,103,1947671052
4517,15,Jits_Phase_8,2,5,63,98,1947691292
4517,15,Jits_Phase_8,3,5,80,127,1947771240
4517,15,Jits_Phase_8,0,5,63,98,1948420400
4517,15,Jits_Phase_8,1,1,38,65,1948452964
4517,15,Jits_Phase_8,2,5,56,103,1948510672
4517,15,Jits_Phase_8,3,5,80,127,1948513740
4517,15,Jits_Phase_8,0,5,56,103,1949251160
4517,15,Jits_Phase_8,1,1,38,63,1949254652
4517,15,Jits_Phase_8,2,5,80,127,1949311348
4517,15,Jits_Phase_8,3,5,63,98,1949320496
4517,15,Jits_Phase_8,0,1,38,76,1950004148
4517,15,Jits_Phase_8,1,5,80,127,1950101064
4517,15,Jits_Phase_8,2,5,56,103,1950111036
4517,15,Jits_Phase_8,3,5,63,98,1950114100
4517,15,Jits_Phase_8,0,1,38,71,1950846480
4517,15,Jits_Phase_8,1,5,56,103,1950860824
4517,15,Jits_Phase_8,2,5,80,127,1950870868
4517,15,Jits_Phase_8,3,5,63,98,1950891328
4517,15,Jits_Phase_8,0,5,63,98,1951630840
4517,15,Jits_Phase_8,1,1,38,66,1951646392
4517,15,Jits_Phase_8,2,5,80,127,1951691076
4517,15,Jits_Phase_8,3,5,56,103,1951741264
4517,15,Jits_Phase_8,0,1,38,65,1952460464
4517,15,Jits_Phase_8,1,5,63,98,1952511436
4517,15,Jits_Phase_8,2,5,56,103,1952520588
4517,15,Jits_Phase_8,3,5,80,127,1952570772
4517,15,Jits_Phase_8,0,5,63,98,1953210816
4517,15,Jits_Phase_8,1,5,80,127,1953231128
4517,15,Jits_Phase_8,2,5,56,103,1953240500
4517,15,Jits_Phase_8,3,1,38,70,1953264892
4517,15,Jits_Phase_8,0,5,63,98,1954010416
4517,15,Jits_Phase_8,1,5,80,127,1954013852
4517,15,Jits_Phase_8,2,1,38,52,1954048232
4517,15,Jits_Phase_8,3,5,56,103,1954050868
4517,15,Jits_Phase_8,0,1,38,64,1954755872
4517,15,Jits_Phase_8,1,5,63,98,1954880860
4517,15,Jits_Phase_8,2,5,80,127,1954910908
4517,15,Jits_Phase_8,3,5,56,103,1954920904
4517,15,Jits_Phase_8,0,1,38,74,1955582016
4517,15,Jits_Phase_8,1,5,56,103,1955630364
4517,15,Jits_Phase_8,2,5,80,127,1955661236
4517,15,Jits_Phase_8,3,5,63,98,1955690772
4517,15,Jits_Phase_8,0,1,38,73,1956412640
4517,15,Jits_Phase_8,1,5,63,98,1956530676
4517,15,Jits_Phase_8,2,5,56,103,1956570612
4517,15,Jits_Phase_8,3,5,80,127,1956573752
4517,15,Jits_Phase_8,0,1,38,76,1957205572
4517,15,Jits_Phase_8,1,5,80,127,1957230952
4517,15,Jits_Phase_8,2,5,56,103,1957310808
4517,15,Jits_Phase_8,3,5,63,98,1957361008
4517,15,Jits_Phase_8,0,1,38,55,1958005728
4517,15,Jits_Phase_8,1,5,80,127,1958011156
4517,15,Jits_Phase_8,2,5,56,103,1958030944
4517,15,Jits_Phase_8,3,5,63,98,1958120760
4517,15,Jits_Phase_8,0,1,38,78,1958787800
4517,15,Jits_Phase_8,1,5,80,127,1958850996
4517,15,Jits_Phase_8,2,5,63,98,1958890772
4517,15,Jits_Phase_8,3,5,56,103,1958930784
4517,15,Jits_Phase_8,0,1,38,78,1959584496
4517,15,Jits_Phase_8,1,5,63,98,1959660800
4517,15,Jits_Phase_8,2,5,80,127,1959721248
4517,15,Jits_Phase_8,3,5,56,103,1959750996
4517,15,Jits_Phase_8,0,1,38,62,1960451756
4517,15,Jits_Phase_8,1,1,48,17,1960461704
4517,15,Jits_Phase_8,2,5,56,103,1960500832
4517,15,Jits_Phase_8,3,5,80,127,1960531408
4517,15,Jits_Phase_8,4,5,63,98,1960621672
4517,15,Jits_Phase_8,0,1,38,76,1961243196
4517,15,Jits_Phase_8,1,1,48,18,1961253072
4517,15,Jits_Phase_8,2,5,56,103,1961310636
4517,15,Jits_Phase_8,3,5,80,127,1961421128
4517,15,Jits_Phase_8,4,5,63,98,1961450880
4517,15,Jits_Phase_8,0,1,38,75,1962142792
4517,15,Jits_Phase_8,1,5,56,103,1962160644
4517,15,Jits_Phase_8,2,5,63,98,1962220888
4517,15,Jits_Phase_8,3,5,80,127,1962250620
4517,15,Jits_Phase_8,0,5,56,103,1962930524
4517,15,Jits_Phase_8,1,1,38,64,1962969832
4517,15,Jits_Phase_8,2,5,63,98,1963001096
4517,15,Jits_Phase_8,3,5,80,127,1963020732
4517,15,Jits_Phase_8,0,5,80,127,1963700708
4517,15,Jits_Phase_8,1,5,63,98,1963721020
4517,15,Jits_Phase_8,2,1,38,65,1963737988
4517,15,Jits_Phase_8,3,5,56,103,1963771212
4517,15,Jits_Phase_8,0,1,38,68,1964468140
4517,15,Jits_Phase_8,1,5,63,98,1964520772
4517,15,Jits_Phase_8,2,5,80,127,1964531268
4517,15,Jits_Phase_8,3,5,56,103,1964581452
4517,15,Jits_Phase_8,0,1,38,68,1965262888
4517,15,Jits_Phase_8,1,5,63,98,1965320676
4517,15,Jits_Phase_8,2,5,80,127,1965391464
4517,15,Jits_Phase_8,3,5,56,103,1965410804
4517,15,Jits_Phase_8,0,1,38,58,1966069968
4517,15,Jits_Phase_8,1,5,63,98,1966150980
4517,15,Jits_Phase_8,2,5,80,127,1966154564
4517,15,Jits_Phase_8,3,5,56,103,1966220592
4517,15,Jits_Phase_8,0,1,38,47,1966831580
4517,15,Jits_Phase_8,1,5,80,127,1966900536
4517,15,Jits_Phase_8,2,5,56,103,1966921068
4517,15,Jits_Phase_8,3,5,63,98,1966931548
4517,15,Jits_Phase_8,0,1,38,68,1967668872
4517,15,Jits_Phase_8,1,1,48,16,1967684200
4517,15,Jits_Phase_8,2,5,56,103,1967720820
4517,15,Jits_Phase_8,3,5,63,98,1967810908
4517,15,Jits_Phase_8,4,5,80,127,1967814196
4517,15,Jits_Phase_8,0,1,38,64,1968466512
4517,15,Jits_Phase_8,1,5,80,127,1968490920
4517,15,Jits_Phase_8,2,5,56,103,1968501116
4517,15,Jits_Phase_8,3,5,63,98,1968520604
4517,15,Jits_Phase_8,0,1,38,63,1969213748
4517,15,Jits_Phase_8,1,5,63,98,1969290596
4517,15,Jits_Phase_8,2,5,80,127,1969351120
4517,15,Jits_Phase_8,3,5,56,103,1969361464
4517,15,Jits_Phase_8,0,1,38,73,1969996708
4517,15,Jits_Phase_8,1,5,63,98,1970161284
4517,15,Jits_Phase_8,2,5,80,127,1970190736
4517,15,Jits_Phase_8,3,5,56,103,1970230748
4517,15,Jits_Phase_8,0,1,38,52,1970888896
4517,15,Jits_Phase_8,1,5,56,103,1970950648
4517,15,Jits_Phase_8,2,5,80,127,1970960920
4517,15,Jits_Phase_8,3,5,63,98,1971000768
4517,15,Jits_Phase_8,0,5,80,127,1971711452
4517,15,Jits_Phase_8,1,1,38,67,1971712420
4517,15,Jits_Phase_8,2,5,56,103,1971791316
4517,15,Jits_Phase_8,3,5,63,98,1971800392
4517,15,Jits_Phase_8,0,1,38,71,1972497396
4517,15,Jits_Phase_8,1,5,80,127,1972561344
4517,15,Jits_Phase_8,2,5,56,103,1972641372
4517,15,Jits_Phase_8,3,5,63,98,1972651568
4517,15,Jits_Phase_8,0,1,38,67,1973300252
4517,15,Jits_Phase_8,1,5,80,127,1973400828
4517,15,Jits_Phase_8,2,5,56,103,1973451180
4517,15,Jits_Phase_8,3,5,63,98,1973501232
4517,15,Jits_Phase_8,0,1,38,67,1974174264
4517,15,Jits_Phase_8,1,5,56,103,1974340976
4517,15,Jits_Phase_8,2,5,63,98,1974344340
4517,15,Jits_Phase_8,3,5,80,127,1974391276
4517,15,Jits_Phase_8,0,1,38,74,1975065420
4517,15,Jits_Phase_8,1,5,56,103,1975162408
4517,15,Jits_Phase_8,2,5,63,98,1975191260
4517,15,Jits_Phase_8,3,5,80,127,1975201380
4517,15,Jits_Phase_8,0,1,38,66,1975863092
4517,15,Jits_Phase_8,1,5,63,98,1975870764
4517,15,Jits_Phase_8,2,5,56,103,1975940548
4517,15,Jits_Phase_8,3,5,80,127,1975990732
4517,15,Jits_Phase_8,0,1,38,67,1976678548
4517,15,Jits_Phase_8,1,5,63,98,1976701268
4517,15,Jits_Phase_8,2,5,56,103,1976710488
4517,15,Jits_Phase_8,3,5,80,127,1976713704
4517,15,Jits_Phase_8,0,1,38,66,1977434648
4517,15,Jits_Phase_8,1,5,80,127,1977450736
4517,15,Jits_Phase_8,2,5,56,103,1977511424
4517,15,Jits_Phase_8,3,5,63,98,1977601320
4517,15,Jits_Phase_8,0,5,80,127,1978250648
4517,15,Jits_Phase_8,1,1,38,67,1978290188
4517,15,Jits_Phase_8,2,5,56,103,1978351116
4517,15,Jits_Phase_8,3,5,63,98,1978390964
4517,15,Jits_Phase_8,0,5,56,103,1979100620
4517,15,Jits_Phase_8,1,1,38,62,1979107028
4517,15,Jits_Phase_8,2,5,63,98,1979121000
4517,15,Jits_Phase_8,3,1,48,16,1979122864
4517,15,Jits_Phase_8,4,5,80,127,1979161152
4517,15,Jits_Phase_8,0,5,63,98,1979870520
4517,15,Jits_Phase_8,1,1,38,65,1979876028
4517,15,Jits_Phase_8,2,5,56,103,1979891340
4517,15,Jits_Phase_8,3,5,80,127,1979991276
4517,15,Jits_Phase_8,0,1,38,65,1980650388
4517,15,Jits_Phase_8,1,5,63,98,1980661200
4517,15,Jits_Phase_8,2,5,80,127,1980770676
4517,15,Jits_Phase_8,3,5,56,103,1980801324
4517,15,Jits_Phase_8,0,1,38,58,1981442360
4517,15,Jits_Phase_8,1,5,56,103,1981481268
4517,15,Jits_Phase_8,2,5,63,98,1981511240
4517,15,Jits_Phase_8,3,5,80,127,1981561304
4517,15,Jits_Phase_8,0,5,63,98,1982251288
4517,15,Jits_Phase_8,1,1,38,64,1982260256
4517,15,Jits_Phase_8,2,5,56,103,1982280952
4517,15,Jits_Phase_8,3,5,80,127,1982331104
4517,15,Jits_Phase_8,0,1,38,82,1983039248
4517,15,Jits_Phase_8,1,5,56,103,1983081024
4517,15,Jits_Phase_8,2,5,63,98,1983101260
4517,15,Jits_Phase_8,3,5,80,127,1983181188
4517,15,Jits_Phase_8,0,5,63,98,1983850820
4517,15,Jits_Phase_8,1,1,38,65,1983854016
4517,15,Jits_Phase_8,2,5,56,103,1983911208
4517,15,Jits_Phase_8,3,5,80,127,1983941104
4517,15,Jits_Phase_8,0,1,38,65,1984658796
4517,15,Jits_Phase_8,1,5,56,103,1984690580
4517,15,Jits_Phase_8,2,5,80,127,1984750896
4517,15,Jits_Phase_8,3,5,63,98,1984790892
4517,15,Jits_Phase_8,0,5,63,98,1985470868
4517,15,Jits_Phase_8,1,1,38,61,1985475856
4517,15,Jits_Phase_8,2,5,56,103,1985531176
4517,15,Jits_Phase_8,3,5,80,127,1985601064
4517,15,Jits_Phase_8,0,1,38,64,1986254408
4517,15,Jits_Phase_8,1,5,56,103,1986350548
4517,15,Jits_Phase_8,2,5,63,98,1986360964
4517,15,Jits_Phase_8,3,5,80,127,1986364104
4517,15,Jits_Phase_8,0,1,38,70,1987067192
4517,15,Jits_Phase_8,1,5,63,98,1987090972
4517,15,Jits_Phase_8,2,5,56,103,1987151140
4517,15,Jits_Phase_8,3,5,80,127,1987154132
4517,15,Jits_Phase_8,0,1,38,60,1987840132
4517,15,Jits_Phase_8,1,5,63,98,1987871020
4517,15,Jits_Phase_8,2,5,80,127,1987900768
4517,15,Jits_Phase_8,3,5,56,103,1987921228
4517,15,Jits_Phase_8,0,5,56,103,1988601176
4517,15,Jits_Phase_8,1,1,38,62,1988641912
4517,15,Jits_Phase_8,2,5,63,98,1988651372
4517,15,Jits_Phase_8,3,1,48,16,1988657632
4517,15,Jits_Phase_8,4,5,80,127,1988731332
4517,15,Jits_Phase_8,0,5,80,127,1989300884
4517,15,Jits_Phase_8,1,5,63,98,1989340528
4517,15,Jits_Phase_8,2,5,56,103,1989361060
4517,15,Jits_Phase_8,3,1,38,67,1989374220
4517,15,Jits_Phase_8,0,1,38,62,1990100628
4517,15,Jits_Phase_8,1,5,56,103,1990171076
4517,15,Jits_Phase_8,2,5,80,127,1990181272
4517,15,Jits_Phase_8,3,5,63,98,1990200668
4517,15,Jits_Phase_8,0,1,38,67,1990881436
4517,15,Jits_Phase_8,1,5,56,103,1990951132
4517,15,Jits_Phase_8,2,5,63,98,1991000424
4517,15,Jits_Phase_8,3,5,80,127,1991031096
4517,15,Jits_Phase_8,0,1,38,69,1991682096
4517,15,Jits_Phase_8,1,5,56,103,1991700700
4517,15,Jits_Phase_8,2,5,63,98,1991711120
4517,15,Jits_Phase_8,3,5,80,127,1991761392
4517,15,Jits_Phase_8,0,1,38,64,1992428732
4517,15,Jits_Phase_8,1,5,56,103,1992491456
4517,15,Jits_Phase_8,2,5,80,127,1992494372
4517,15,Jits_Phase_8,3,5,63,98,1992651116
4517,15,Jits_Phase_8,0,1,38,80,1993255580
4517,15,Jits_Phase_8,1,5,63,98,1993310756
4517,15,Jits_Phase_8,2,5,56,103,1993381344
4517,15,Jits_Phase_8,3,5,80,127,1993421284
4517,15,Jits_Phase_8,0,1,38,79,1994101376
4517,15,Jits_Phase_8,1,5,63,98,1994151152
4517,15,Jits_Phase_8,2,5,56,103,1994241264
4517,15,Jits_Phase_8,3,5,80,127,1994244708
4517,15,Jits_Phase_8,0,1,38,71,1994911248
4517,15,Jits_Phase_8,1,5,56,103,1994930676
4517,15,Jits_Phase_8,2,5,63,98,1995020796
4517,15,Jits_Phase_8,3,5,80,127,1995030920
4517,15,Jits_Phase_8,0,1,38,66,1995700176
4517,15,Jits_Phase_8,1,5,56,103,1995702940
4517,15,Jits_Phase_8,2,5,63,98,1995750748
4517,15,Jits_Phase_8,3,5,80,127,1995780572
4517,15,Jits_Phase_8,0,1,38,84,1996487980
4517,15,Jits_Phase_8,1,5,63,98,1996581128
4517,15,Jits_Phase_8,2,5,80,127,1996590724
4517,15,Jits_Phase_8,3,5,56,103,1996650912
4517,15,Jits_Phase_8,0,5,63,98,1997300972
4517,15,Jits_Phase_8,1,1,38,73,1997316820
4517,15,Jits_Phase_8,2,5,80,127,1997360608
4517,15,Jits_Phase_8,3,5,56,103,1997400396
4517,15,Jits_Phase_8,0,1,38,90,1998174116
4517,15,Jits_Phase_8,1,5,56,103,1998201292
4517,15,Jits_Phase_8,2,5,80,127,1998220852
4517,15,Jits_Phase_8,3,5,63,98,1998241088
4517,15,Jits_Phase_8,0,5,63,98,1998921024
4517,15,Jits_Phase_8,1,5,56,103,1998940660
4517,15,Jits_Phase_8,2,5,80,127,1998980548
4517,15,Jits_Phase_8,3,1,38,67,1998999928
4517,15,Jits_Phase_8,0,1,38,80,1999718440
4517,15,Jits_Phase_8,1,5,63,98,1999731060
4517,15,Jits_Phase_8,2,5,80,127,1999760736
4517,15,Jits_Phase_8,3,5,56,103,1999781416
4517,15,Jits_Phase_8,0,5,80,127,2000501152
4517,15,Jits_Phase_8,1,1,38,86,2000505468
4517,15,Jits_Phase_8,2,5,56,103,2000551572
4517,15,Jits_Phase_8,3,5,63,98,2000610600
4517,15,Jits_Phase_8,0,1,38,73,2001277204
4517,15,Jits_Phase_8,1,5,63,98,2001290576
4517,15,Jits_Phase_8,2,5,56,103,2001410512
4517,15,Jits_Phase_8,3,5,80,127,2001441084
4517,15,Jits_Phase_8,0,1,38,79,2002112716
4517,15,Jits_Phase_8,1,5,80,127,2002131392
4517,15,Jits_Phase_8,2,5,63,98,2002150656
4517,15,Jits_Phase_8,3,5,56,103,2002221368
4517,15,Jits_Phase_8,0,1,38,74,2002926700
4517,15,Jits_Phase_8,1,5,63,98,2002950560
4517,15,Jits_Phase_8,2,5,56,103,2002960680
4517,15,Jits_Phase_8,3,5,80,127,2003040532
4517,15,Jits_Phase_8,0,1,38,74,2003742624
4517,15,Jits_Phase_8,1,5,56,103,2003810632
4517,15,Jits_Phase_8,2,5,80,127,2003841492
4517,15,Jits_Phase_8,3,5,63,98,2003850492
4517,15,Jits_Phase_8,0,9999,9999,9999,1868969060
4517,15,Jits_Phase_8,1,9999,9999,9999,1869768760
4517,15,Jits_Phase_8,2,9999,9999,9999,1870568520
4517,15,Jits_Phase_8,3,9999,9999,9999,1871368276
4517,15,Jits_Phase_8,4,9999,9999,9999,1872169016
4517,15,Jits_Phase_8,5,9999,9999,9999,1872968776
4517,15,Jits_Phase_8,6,9999,9999,9999,1873768536
4517,15,Jits_Phase_8,7,9999,9999,9999,1874568256
4517,15,Jits_Phase_8,8,9999,9999,9999,1875369068
4517,15,Jits_Phase_8,9,9999,9999,9999,1876168812
4517,15,Jits_Phase_8,10,9999,9999,9999,1876968516
4517,15,Jits_Phase_8,11,9999,9999,9999,1877768276
4517,15,Jits_Phase_8,12,9999,9999,9999,1878569028
4517,15,Jits_Phase_8,13,9999,9999,9999,1879368780
4517,15,Jits_Phase_8,14,9999,9999,9999,1880168556
4517,15,Jits_Phase_8,15,9999,9999,9999,1880968304
4517,15,Jits_Phase_8,16,9999,9999,9999,1881769016
4517,15,Jits_Phase_8,17,9999,9999,9999,1882568780
4517,15,Jits_Phase_8,18,9999,9999,9999,1883368544
4517,15,Jits_Phase_8,19,9999,9999,9999,1884168284
4517,15,Jits_Phase_8,20,9999,9999,9999,1884969084
4517,15,Jits_Phase_8,21,9999,9999,9999,1885768768
4517,15,Jits_Phase_8,22,9999,9999,9999,1886568544
4517,15,Jits_Phase_8,23,9999,9999,9999,1887368304
4517,15,Jits_Phase_8,24,9999,9999,9999,1888169032
4517,15,Jits_Phase_8,25,9999,9999,9999,1888968788
4517,15,Jits_Phase_8,26,9999,9999,9999,1889768548
4517,15,Jits_Phase_8,27,9999,9999,9999,1890568304
4517,15,Jits_Phase_8,28,9999,9999,9999,1891369048
4517,15,Jits_Phase_8,29,9999,9999,9999,1892168812
4517,15,Jits_Phase_8,30,9999,9999,9999,1892949088
4517,15,Jits_Phase_8,31,9999,9999,9999,1893748796
4517,15,Jits_Phase_8,32,9999,9999,9999,1894548552
4517,15,Jits_Phase_8,33,9999,9999,9999,1895348320
4517,15,Jits_Phase_8,34,9999,9999,9999,1896149064
4517,15,Jits_Phase_8,35,9999,9999,9999,1896948828
4517,15,Jits_Phase_8,36,9999,9999,9999,1897748596
4517,15,Jits_Phase_8,37,9999,9999,9999,1898548280
4517,15,Jits_Phase_8,38,9999,9999,9999,1899349080
4517,15,Jits_Phase_8,39,9999,9999,9999,1900148848
4517,15,Jits_Phase_8,40,9999,9999,9999,1900948592
4517,15,Jits_Phase_8,41,9999,9999,9999,1901748280
4517,15,Jits_Phase_8,42,9999,9999,9999,1902549080
4517,15,Jits_Phase_8,43,9999,9999,9999,1903348840
4517,15,Jits_Phase_8,44,9999,9999,9999,1904148580
4517,15,Jits_Phase_8,45,9999,9999,9999,1904948340
4517,15,Jits_Phase_8,46,9999,9999,9999,1905749072
4517,15,Jits_Phase_8,47,9999,9999,9999,1906548848
4517,15,Jits_Phase_8,48,9999,9999,9999,1907369072
4517,15,Jits_Phase_8,49,9999,9999,9999,1908168832
4517,15,Jits_Phase_8,50,9999,9999,9999,1908968516
4517,15,Jits_Phase_8,51,9999,9999,9999,1909768248
4517,15,Jits_Phase_8,52,9999,9999,9999,1910569056
4517,15,Jits_Phase_8,53,9999,9999,9999,1911368764
4517,15,Jits_Phase_8,54,9999,9999,9999,1912168544
4517,15,Jits_Phase_8,55,9999,9999,9999,1912968320
4517,15,Jits_Phase_8,56,9999,9999,9999,1913769044
4517,15,Jits_Phase_8,57,9999,9999,9999,1914568808
4517,15,Jits_Phase_8,58,9999,9999,9999,1915368564
4517,15,Jits_Phase_8,59,9999,9999,9999,1916168248
4517,15,Jits_Phase_8,60,9999,9999,9999,1916969028
4517,15,Jits_Phase_8,61,9999,9999,9999,1917768792
4517,15,Jits_Phase_8,62,9999,9999,9999,1918568516
4517,15,Jits_Phase_8,63,9999,9999,9999,1919368264
4517,15,Jits_Phase_8,64,9999,9999,9999,1920209012
4517,15,Jits_Phase_8,65,9999,9999,9999,1921008740
4517,15,Jits_Phase_8,66,9999,9999,9999,1921808480
4517,15,Jits_Phase_8,67,9999,9999,9999,1922608244
4517,15,Jits_Phase_8,68,9999,9999,9999,1923408964
4517,15,Jits_Phase_8,69,9999,9999,9999,1924208764
4517,15,Jits_Phase_8,70,9999,9999,9999,1925008456
4517,15,Jits_Phase_8,71,9999,9999,9999,1925808224
4517,15,Jits_Phase_8,72,9999,9999,9999,1926608952
4517,15,Jits_Phase_8,73,9999,9999,9999,1927408724
4517,15,Jits_Phase_8,74,9999,9999,9999,1928208504
4517,15,Jits_Phase_8,75,9999,9999,9999,1929008192
4517,15,Jits_Phase_8,76,9999,9999,9999,1929809004
4517,15,Jits_Phase_8,77,9999,9999,9999,1930608728
4517,15,Jits_Phase_8,78,9999,9999,9999,1931408484
4517,15,Jits_Phase_8,79,9999,9999,9999,1932208192
4517,15,Jits_Phase_8,80,9999,9999,9999,1933008976
4517,15,Jits_Phase_8,81,9999,9999,9999,1933768804
4517,15,Jits_Phase_8,82,9999,9999,9999,1934568560
4517,15,Jits_Phase_8,83,9999,9999,9999,1935368316
4517,15,Jits_Phase_8,84,9999,9999,9999,1936169040
4517,15,Jits_Phase_8,85,9999,9999,9999,1936968800
4517,15,Jits_Phase_8,86,9999,9999,9999,1937768508
4517,15,Jits_Phase_8,87,9999,9999,9999,1938568260
4517,15,Jits_Phase_8,88,9999,9999,9999,1939369060
4517,15,Jits_Phase_8,89,9999,9999,9999,1940168828
4517,15,Jits_Phase_8,90,9999,9999,9999,1940968520
4517,15,Jits_Phase_8,91,9999,9999,9999,1941768276
4517,15,Jits_Phase_8,92,9999,9999,9999,1942569024
4517,15,Jits_Phase_8,93,9999,9999,9999,1943368776
4517,15,Jits_Phase_8,94,9999,9999,9999,1944168560
4517,15,Jits_Phase_8,95,9999,9999,9999,1944968316
4517,15,Jits_Phase_8,96,9999,9999,9999,1945769064
4517,15,Jits_Phase_8,97,9999,9999,9999,1946488888
4517,15,Jits_Phase_8,98,9999,9999,9999,1947288648
4517,15,Jits_Phase_8,99,9999,9999,9999,1948088408
4517,15,Jits_Phase_8,100,9999,9999,9999,1948888160
4517,15,Jits_Phase_8,101,9999,9999,9999,1949688888
4517,15,Jits_Phase_8,102,9999,9999,9999,1950488656
4517,15,Jits_Phase_8,103,9999,9999,9999,1951288412
4517,15,Jits_Phase_8,104,9999,9999,9999,1952088172
4517,15,Jits_Phase_8,105,9999,9999,9999,1952888940
4517,15,Jits_Phase_8,106,9999,9999,9999,1953688688
4517,15,Jits_Phase_8,107,9999,9999,9999,1954488432
4517,15,Jits_Phase_8,108,9999,9999,9999,1955288192
4517,15,Jits_Phase_8,109,9999,9999,9999,1956088920
4517,15,Jits_Phase_8,110,9999,9999,9999,1956888680
4517,15,Jits_Phase_8,111,9999,9999,9999,1957688440
4517,15,Jits_Phase_8,112,9999,9999,9999,1958488120
4517,15,Jits_Phase_8,113,9999,9999,9999,1959288952
4517,15,Jits_Phase_8,114,9999,9999,9999,1960168572
4517,15,Jits_Phase_8,115,9999,9999,9999,1960968280
4517,15,Jits_Phase_8,116,9999,9999,9999,1961769020
4517,15,Jits_Phase_8,117,9999,9999,9999,1962568764
4517,15,Jits_Phase_8,118,9999,9999,9999,1963368552
4517,15,Jits_Phase_8,119,9999,9999,9999,1964168248
4517,15,Jits_Phase_8,120,9999,9999,9999,1964969064
4517,15,Jits_Phase_8,121,9999,9999,9999,1965768800
4517,15,Jits_Phase_8,122,9999,9999,9999,1966568552
4517,15,Jits_Phase_8,123,9999,9999,9999,1967368304
4517,15,Jits_Phase_8,124,9999,9999,9999,1968169052
4517,15,Jits_Phase_8,125,9999,9999,9999,1968968780
4517,15,Jits_Phase_8,126,9999,9999,9999,1969768556
4517,15,Jits_Phase_8,127,9999,9999,9999,1970568316
4517,15,Jits_Phase_8,128,9999,9999,9999,1971369048
4517,15,Jits_Phase_8,129,9999,9999,9999,1972168808
4517,15,Jits_Phase_8,130,9999,9999,9999,1972968512
4517,15,Jits_Phase_8,131,9999,9999,9999,1973929068
4517,15,Jits_Phase_8,132,9999,9999,9999,1974728820
4517,15,Jits_Phase_8,133,9999,9999,9999,1975528516
4517,15,Jits_Phase_8,134,9999,9999,9999,1976328276
4517,15,Jits_Phase_8,135,9999,9999,9999,1977129068
4517,15,Jits_Phase_8,136,9999,9999,9999,1977928824
4517,15,Jits_Phase_8,137,9999,9999,9999,1978728532
4517,15,Jits_Phase_8,138,9999,9999,9999,1979528272
4517,15,Jits_Phase_8,139,9999,9999,9999,1980329068
4517,15,Jits_Phase_8,140,9999,9999,9999,1981128828
4517,15,Jits_Phase_8,141,9999,9999,9999,1981928512
4517,15,Jits_Phase_8,142,9999,9999,9999,1982728264
4517,15,Jits_Phase_8,143,9999,9999,9999,1983529068
4517,15,Jits_Phase_8,144,9999,9999,9999,1984328824
4517,15,Jits_Phase_8,145,9999,9999,9999,1985128540
4517,15,Jits_Phase_8,146,9999,9999,9999,1985928296
4517,15,Jits_Phase_8,147,9999,9999,9999,1986729024
4517,15,Jits_Phase_8,148,9999,9999,9999,1987528772
4517,15,Jits_Phase_8,149,9999,9999,9999,1988328528
4517,15,Jits_Phase_8,150,9999,9999,9999,1988968528
4517,15,Jits_Phase_8,151,9999,9999,9999,1989768280
4517,15,Jits_Phase_8,152,9999,9999,9999,1990569028
4517,15,Jits_Phase_8,153,9999,9999,9999,1991368788
4517,15,Jits_Phase_8,154,9999,9999,9999,1992168544
4517,15,Jits_Phase_8,155,9999,9999,9999,1992968288
4517,15,Jits_Phase_8,156,9999,9999,9999,1993769016
4517,15,Jits_Phase_8,157,9999,9999,9999,1994568776
4517,15,Jits_Phase_8,158,9999,9999,9999,1995368564
4517,15,Jits_Phase_8,159,9999,9999,9999,1996168320
4517,15,Jits_Phase_8,160,9999,9999,9999,1996969056
4517,15,Jits_Phase_8,161,9999,9999,9999,1997768812
4517,15,Jits_Phase_8,162,9999,9999,9999,1998568504
4517,15,Jits_Phase_8,163,9999,9999,9999,1999368260
4517,15,Jits_Phase_8,164,9999,9999,9999,2000169064
4517,15,Jits_Phase_8,165,9999,9999,9999,2000968820
4517,15,Jits_Phase_8,166,9999,9999,9999,2001768540
4517,15,Jits_Phase_8,167,9999,9999,9999,2002568304
4517,15,Jits_Phase_8,168,9999,9999,9999,2003369084
4517,15,Jits_Phase_8,169,9999,9999,9999,2004168784
4518,16,Jits_ISO_5,0,5,56,103,2014879120
4518,16,Jits_ISO_5,1,5,63,98,2014882068
4518,16,Jits_ISO_5,2,5,80,127,2014885268
4518,16,Jits_ISO_5,0,1,38,49,2015369912
4518,16,Jits_ISO_5,1,5,56,103,2015378760
4518,16,Jits_ISO_5,2,5,63,98,2015382088
4518,16,Jits_ISO_5,3,5,80,127,2015385204
4518,16,Jits_ISO_5,0,1,38,64,2015845340
4518,16,Jits_ISO_5,1,5,56,103,2015878492
4518,16,Jits_ISO_5,2,5,80,127,2015888764
4518,16,Jits_ISO_5,3,5,63,98,2015909296
4518,16,Jits_ISO_5,0,5,63,98,2016329064
4518,16,Jits_ISO_5,1,1,38,69,2016330028
4518,16,Jits_ISO_5,2,5,80,127,2016358756
4518,16,Jits_ISO_5,3,5,56,103,2016369100
4518,16,Jits_ISO_5,0,1,38,65,2016819620
4518,16,Jits_ISO_5,1,5,80,127,2016889196
4518,16,Jits_ISO_5,2,5,56,103,2016898272
4518,16,Jits_ISO_5,3,5,63,98,2016929272
4518,16,Jits_ISO_5,0,1,38,85,2017321452
4518,16,Jits_ISO_5,1,5,63,98,2017378668
4518,16,Jits_ISO_5,2,5,56,103,2017409392
4518,16,Jits_ISO_5,3,5,80,127,2017418600
4518,16,Jits_ISO_5,0,1,38,86,2017828852
4518,16,Jits_ISO_5,1,5,56,103,2017831912
4518,16,Jits_ISO_5,2,5,63,98,2017879424
4518,16,Jits_ISO_5,3,5,80,127,2017899084
4518,16,Jits_ISO_5,0,1,38,87,2018305620
4518,16,Jits_ISO_5,1,5,80,127,2018329028
4518,16,Jits_ISO_5,2,5,63,98,2018379080
4518,16,Jits_ISO_5,3,5,56,103,2018419100
4518,16,Jits_ISO_5,0,1,38,77,2018819820
4518,16,Jits_ISO_5,1,5,56,103,2018828912
4518,16,Jits_ISO_5,2,5,63,98,2018859260
4518,16,Jits_ISO_5,3,5,80,127,2018928948
4518,16,Jits_ISO_5,0,1,38,70,2019326284
4518,16,Jits_ISO_5,1,5,56,103,2019329468
4518,16,Jits_ISO_5,2,5,80,127,2019388736
4518,16,Jits_ISO_5,3,5,63,98,2019419736
4518,16,Jits_ISO_5,0,1,38,75,2019810068
4518,16,Jits_ISO_5,1,1,48,17,2019825400
4518,16,Jits_ISO_5,2,5,56,103,2019848660
4518,16,Jits_ISO_5,3,5,63,98,2019858780
4518,16,Jits_ISO_5,4,5,80,127,2019898940
4518,16,Jits_ISO_5,0,1,38,84,2020314208
4518,16,Jits_ISO_5,1,5,63,98,2020339036
4518,16,Jits_ISO_5,2,5,80,127,2020419036
4518,16,Jits_ISO_5,3,5,56,103,2020429160
4518,16,Jits_ISO_5,0,1,38,74,2020848408
4518,16,Jits_ISO_5,1,5,63,98,2020888892
4518,16,Jits_ISO_5,2,5,56,103,2020928976
4518,16,Jits_ISO_5,3,5,80,127,2020931968
4518,16,Jits_ISO_5,0,5,56,103,2021348988
4518,16,Jits_ISO_5,1,5,63,98,2021359112
4518,16,Jits_ISO_5,2,1,38,75,2021376252
4518,16,Jits_ISO_5,3,5,80,127,2021399040
4518,16,Jits_ISO_5,0,5,56,103,2021839144
4518,16,Jits_ISO_5,1,5,63,98,2021842136
4518,16,Jits_ISO_5,2,1,38,72,2021846988
4518,16,Jits_ISO_5,3,5,80,127,2021858772
4518,16,Jits_ISO_5,0,1,38,70,2022343188
4518,16,Jits_ISO_5,1,5,80,127,2022349136
4518,16,Jits_ISO_5,2,5,56,103,2022359480
4518,16,Jits_ISO_5,3,5,63,98,2022429008
4518,16,Jits_ISO_5,0,5,63,98,2022838616
4518,16,Jits_ISO_5,1,5,56,103,2022859220
4518,16,Jits_ISO_5,2,1,38,71,2022873576
4518,16,Jits_ISO_5,3,5,80,127,2022939004
4518,16,Jits_ISO_5,0,1,38,79,2023326768
4518,16,Jits_ISO_5,1,5,56,103,2023348456
4518,16,Jits_ISO_5,2,5,80,127,2023388392
4518,16,Jits_ISO_5,3,5,63,98,2023398960
4518,16,Jits_ISO_5,0,1,38,74,2023829204
4518,16,Jits_ISO_5,1,5,80,127,2023839044
4518,16,Jits_ISO_5,2,5,63,98,2023869016
4518,16,Jits_ISO_5,3,5,56,103,2023908952
4518,16,Jits_ISO_5,0,1,38,67,2024341748
4518,16,Jits_ISO_5,1,5,56,103,2024359304
4518,16,Jits_ISO_5,2,5,63,98,2024388832
4518,16,Jits_ISO_5,3,5,80,127,2024439104
4518,16,Jits_ISO_5,0,1,38,67,2024843652
4518,16,Jits_ISO_5,1,1,48,19,2024855016
4518,16,Jits_ISO_5,2,5,80,127,2024859024
4518,16,Jits_ISO_5,3,5,56,103,2024898888
4518,16,Jits_ISO_5,4,5,63,98,2024909228
4518,16,Jits_ISO_5,0,5,80,127,2025339216
4518,16,Jits_ISO_5,1,1,38,70,2025350804
4518,16,Jits_ISO_5,2,5,63,98,2025379148
4518,16,Jits_ISO_5,3,5,56,103,2025438784
4518,16,Jits_ISO_5,0,5,56,103,2025838816
4518,16,Jits_ISO_5,1,5,80,127,2025849160
4518,16,Jits_ISO_5,2,1,38,78,2025860596
4518,16,Jits_ISO_5,3,5,63,98,2025929020
4518,16,Jits_ISO_5,0,5,80,127,2026338932
4518,16,Jits_ISO_5,1,1,38,79,2026349248
4518,16,Jits_ISO_5,2,5,63,98,2026399020
4518,16,Jits_ISO_5,3,5,56,103,2026428916
4518,16,Jits_ISO_5,0,5,56,103,2026839408
4518,16,Jits_ISO_5,1,1,38,76,2026845740
4518,16,Jits_ISO_5,2,5,80,127,2026898916
4518,16,Jits_ISO_5,3,5,63,98,2026938704
4518,16,Jits_ISO_5,0,1,38,74,2027334024
4518,16,Jits_ISO_5,1,5,56,103,2027389296
4518,16,Jits_ISO_5,2,5,63,98,2027398520
4518,16,Jits_ISO_5,3,5,80,127,2027402032
4518,16,Jits_ISO_5,0,5,80,127,2027838732
4518,16,Jits_ISO_5,1,1,38,82,2027850992
4518,16,Jits_ISO_5,2,5,63,98,2027928884
4518,16,Jits_ISO_5,3,5,56,103,2027939080
4518,16,Jits_ISO_5,0,5,56,103,2028338692
4518,16,Jits_ISO_5,1,5,63,98,2028341868
4518,16,Jits_ISO_5,2,5,80,127,2028344912
4518,16,Jits_ISO_5,3,1,38,76,2028381228
4518,16,Jits_ISO_5,0,1,38,71,2028834340
4518,16,Jits_ISO_5,1,5,80,127,2028858872
4518,16,Jits_ISO_5,2,5,63,98,2028908876
4518,16,Jits_ISO_5,3,5,56,103,2028938756
4518,16,Jits_ISO_5,0,5,56,103,2029338912
4518,16,Jits_ISO_5,1,5,80,127,2029349180
4518,16,Jits_ISO_5,2,1,38,74,2029360244
4518,16,Jits_ISO_5,3,5,63,98,2029418948
4518,16,Jits_ISO_5,0,1,38,77,2029841696
4518,16,Jits_ISO_5,1,5,56,103,2029849060
4518,16,Jits_ISO_5,2,5,63,98,2029869296
4518,16,Jits_ISO_5,3,5,80,127,2029928884
4518,16,Jits_ISO_5,0,1,38,79,2030325532
4518,16,Jits_ISO_5,1,5,80,127,2030338604
4518,16,Jits_ISO_5,2,5,63,98,2030408960
4518,16,Jits_ISO_5,3,5,56,103,2030428876
4518,16,Jits_ISO_5,0,1,38,72,2030849332
4518,16,Jits_ISO_5,1,5,80,127,2030858720
4518,16,Jits_ISO_5,2,5,56,103,2030868916
4518,16,Jits_ISO_5,3,5,63,98,2030879036
4518,16,Jits_ISO_5,0,1,38,76,2031338948
4518,16,Jits_ISO_5,1,5,80,127,2031349084
4518,16,Jits_ISO_5,2,5,56,103,2031368720
4518,16,Jits_ISO_5,3,5,63,98,2031439132
4518,16,Jits_ISO_5,0,1,38,73,2031844816
4518,16,Jits_ISO_5,1,5,56,103,2031859008
4518,16,Jits_ISO_5,2,5,80,127,2031888760
4518,16,Jits_ISO_5,3,5,63,98,2031909292
4518,16,Jits_ISO_5,0,5,63,98,2032348712
4518,16,Jits_ISO_5,1,1,38,75,2032373104
4518,16,Jits_ISO_5,2,1,48,16,2032388824
4518,16,Jits_ISO_5,3,5,56,103,2032408852
4518,16,Jits_ISO_5,4,5,80,127,2032438748
4518,16,Jits_ISO_5,0,5,63,98,2032838928
4518,16,Jits_ISO_5,1,1,38,75,2032840516
4518,16,Jits_ISO_5,2,5,80,127,2032844756
4518,16,Jits_ISO_5,3,5,56,103,2032929128
4518,16,Jits_ISO_5,0,5,56,103,2033359332
4518,16,Jits_ISO_5,1,1,38,84,2033371148
4518,16,Jits_ISO_5,2,5,63,98,2033388852
4518,16,Jits_ISO_5,3,5,80,127,2033428788
4518,16,Jits_ISO_5,0,1,38,43,2033853056
4518,16,Jits_ISO_5,1,5,63,98,2033858856
4518,16,Jits_ISO_5,2,1,48,14,2033860644
4518,16,Jits_ISO_5,3,5,56,103,2033898860
4518,16,Jits_ISO_5,4,5,80,127,2033919468
4518,16,Jits_ISO_5,0,5,63,98,2034368936
4518,16,Jits_ISO_5,1,1,38,81,2034376392
4518,16,Jits_ISO_5,2,5,56,103,2034408720
4518,16,Jits_ISO_5,3,5,80,127,2034418916
4518,16,Jits_ISO_5,0,5,80,127,2034849268
4518,16,Jits_ISO_5,1,1,38,71,2034879588
4518,16,Jits_ISO_5,2,5,63,98,2034918792
4518,16,Jits_ISO_5,3,5,56,103,2034939176
4518,16,Jits_ISO_5,0,5,56,103,2035338608
4518,16,Jits_ISO_5,1,5,80,127,2035359068
4518,16,Jits_ISO_5,2,1,38,68,2035383608
4518,16,Jits_ISO_5,3,1,48,16,2035394748
4518,16,Jits_ISO_5,4,5,63,98,2035398976
4518,16,Jits_ISO_5,0,5,63,98,2035848680
4518,16,Jits_ISO_5,1,1,38,78,2035863560
4518,16,Jits_ISO_5,2,5,80,127,2035868984
4518,16,Jits_ISO_5,3,5,56,103,2035908916
4518,16,Jits_ISO_5,0,5,63,98,2036349384
4518,16,Jits_ISO_5,1,1,38,73,2036365460
4518,16,Jits_ISO_5,2,5,56,103,2036368640
4518,16,Jits_ISO_5,3,5,80,127,2036378908
4518,16,Jits_ISO_5,0,1,38,74,2036843760
4518,16,Jits_ISO_5,1,5,80,127,2036848956
4518,16,Jits_ISO_5,2,5,56,103,2036868444
4518,16,Jits_ISO_5,3,5,63,98,2036899164
4518,16,Jits_ISO_5,0,1,38,73,2037352484
4518,16,Jits_ISO_5,1,5,56,103,2037419484
4518,16,Jits_ISO_5,2,5,80,127,2037422400
4518,16,Jits_ISO_5,3,5,63,98,2037438968
4518,16,Jits_ISO_5,0,5,63,98,2037839184
4518,16,Jits_ISO_5,1,5,56,103,2037868956
4518,16,Jits_ISO_5,2,1,38,71,2037870968
4518,16,Jits_ISO_5,3,5,80,127,2037929412
4518,16,Jits_ISO_5,0,1,38,73,2038355136
4518,16,Jits_ISO_5,1,5,63,98,2038418876
4518,16,Jits_ISO_5,2,5,56,103,2038428996
4518,16,Jits_ISO_5,3,5,80,127,2038439488
4518,16,Jits_ISO_5,0,1,38,73,2038855776
4518,16,Jits_ISO_5,1,5,56,103,2038869444
4518,16,Jits_ISO_5,2,5,80,127,2038898920
4518,16,Jits_ISO_5,3,5,63,98,2038909488
4518,16,Jits_ISO_5,0,1,38,75,2039350424
4518,16,Jits_ISO_5,1,5,63,98,2039409136
4518,16,Jits_ISO_5,2,5,56,103,2039419480
4518,16,Jits_ISO_5,3,5,80,127,2039438668
4518,16,Jits_ISO_5,0,5,56,103,2039839028
4518,16,Jits_ISO_5,1,1,38,76,2039852336
4518,16,Jits_ISO_5,2,5,63,98,2039898584
4518,16,Jits_ISO_5,3,5,80,127,2039901872
4518,16,Jits_ISO_5,0,5,80,127,2040359512
4518,16,Jits_ISO_5,1,1,38,74,2040360404
4518,16,Jits_ISO_5,2,5,56,103,2040368508
4518,16,Jits_ISO_5,3,5,63,98,2040439256
4518,16,Jits_ISO_5,0,1,38,74,2040844692
4518,16,Jits_ISO_5,1,5,80,127,2040848772
4518,16,Jits_ISO_5,2,5,56,103,2040919424
4518,16,Jits_ISO_5,3,5,63,98,2040928596
4518,16,Jits_ISO_5,0,1,38,74,2041352300
4518,16,Jits_ISO_5,1,5,63,98,2041389488
4518,16,Jits_ISO_5,2,5,56,103,2041398636
4518,16,Jits_ISO_5,3,5,80,127,2041419092
4518,16,Jits_ISO_5,0,5,80,127,2041838888
4518,16,Jits_ISO_5,1,1,38,64,2041855704
4518,16,Jits_ISO_5,2,1,48,16,2041871348
4518,16,Jits_ISO_5,3,5,63,98,2041899548
4518,16,Jits_ISO_5,4,5,56,103,2041939484
4518,16,Jits_ISO_5,0,1,38,54,2042339584
4518,16,Jits_ISO_5,1,1,48,14,2042354836
4518,16,Jits_ISO_5,2,5,56,103,2042378544
4518,16,Jits_ISO_5,3,5,63,98,2042388964
4518,16,Jits_ISO_5,4,5,80,127,2042428824
4518,16,Jits_ISO_5,0,1,38,79,2042822896
4518,16,Jits_ISO_5,1,5,56,103,2042839480
4518,16,Jits_ISO_5,2,5,80,127,2042869452
4518,16,Jits_ISO_5,3,5,63,98,2042919504
4518,16,Jits_ISO_5,0,1,38,73,2043315508
4518,16,Jits_ISO_5,1,5,56,103,2043379224
4518,16,Jits_ISO_5,2,5,63,98,2043419144
4518,16,Jits_ISO_5,3,5,80,127,2043422360
4518,16,Jits_ISO_5,0,1,38,73,2043858252
4518,16,Jits_ISO_5,1,5,56,103,2043878728
4518,16,Jits_ISO_5,2,5,63,98,2043889296
4518,16,Jits_ISO_5,3,5,80,127,2043908340
4518,16,Jits_ISO_5,0,5,56,103,2044338544
4518,16,Jits_ISO_5,1,1,38,76,2044340652
4518,16,Jits_ISO_5,2,5,80,127,2044343920
4518,16,Jits_ISO_5,3,5,63,98,2044378620
4518,16,Jits_ISO_5,0,1,38,73,2044825728
4518,16,Jits_ISO_5,1,5,63,98,2044879332
4518,16,Jits_ISO_5,2,5,56,103,2044908784
4518,16,Jits_ISO_5,3,5,80,127,2044929448
4518,16,Jits_ISO_5,0,1,38,72,2045346216
4518,16,Jits_ISO_5,1,5,80,127,2045349396
4518,16,Jits_ISO_5,2,5,56,103,2045358476
4518,16,Jits_ISO_5,3,5,63,98,2045368744
4518,16,Jits_ISO_5,0,1,38,65,2045833224
4518,16,Jits_ISO_5,1,5,56,103,2045849056
4518,16,Jits_ISO_5,2,5,80,127,2045888920
4518,16,Jits_ISO_5,3,5,63,98,2045918596
4518,16,Jits_ISO_5,0,1,38,70,2046352956
4518,16,Jits_ISO_5,1,5,63,98,2046358756
4518,16,Jits_ISO_5,2,5,80,127,2046369324
4518,16,Jits_ISO_5,3,5,56,103,2046379372
4518,16,Jits_ISO_5,0,5,56,103,2046839240
4518,16,Jits_ISO_5,1,1,38,66,2046861012
4518,16,Jits_ISO_5,2,5,63,98,2046908764
4518,16,Jits_ISO_5,3,5,80,127,2046919032
4518,16,Jits_ISO_5,0,1,38,67,2047325884
4518,16,Jits_ISO_5,1,5,80,127,2047338884
4518,16,Jits_ISO_5,2,5,56,103,2047349524
4518,16,Jits_ISO_5,3,5,63,98,2047399276
4518,16,Jits_ISO_5,0,1,38,73,2047826932
4518,16,Jits_ISO_5,1,5,80,127,2047848800
4518,16,Jits_ISO_5,2,5,56,103,2047909264
4518,16,Jits_ISO_5,3,5,63,98,2047939148
4518,16,Jits_ISO_5,0,1,38,65,2048340548
4518,16,Jits_ISO_5,1,5,56,103,2048348512
4518,16,Jits_ISO_5,2,5,80,127,2048351532
4518,16,Jits_ISO_5,3,5,63,98,2048388400
4518,16,Jits_ISO_5,0,1,38,69,2048863660
4518,16,Jits_ISO_5,1,5,56,103,2048879196
4518,16,Jits_ISO_5,2,5,63,98,2048908724
4518,16,Jits_ISO_5,3,5,80,127,2048919140
4518,16,Jits_ISO_5,0,1,38,71,2049352504
4518,16,Jits_ISO_5,1,5,63,98,2049389116
4518,16,Jits_ISO_5,2,5,80,127,2049399092
4518,16,Jits_ISO_5,3,5,56,103,2049409512
4518,16,Jits_ISO_5,0,5,80,127,2049838492
4518,16,Jits_ISO_5,1,1,38,71,2049860116
4518,16,Jits_ISO_5,2,5,56,103,2049888632
4518,16,Jits_ISO_5,3,5,63,98,2049891700
4518,16,Jits_ISO_5,0,1,38,69,2050316540
4518,16,Jits_ISO_5,1,5,56,103,2050369000
4518,16,Jits_ISO_5,2,5,80,127,2050389388
4518,16,Jits_ISO_5,3,5,63,98,2050398560
4518,16,Jits_ISO_5,0,1,38,63,2050821360
4518,16,Jits_ISO_5,1,5,63,98,2050849108
4518,16,Jits_ISO_5,2,5,56,103,2050878932
4518,16,Jits_ISO_5,3,5,80,127,2050899240
4518,16,Jits_ISO_5,0,1,38,63,2051337504
4518,16,Jits_ISO_5,1,5,56,103,2051359324
4518,16,Jits_ISO_5,2,5,80,127,2051369224
4518,16,Jits_ISO_5,3,5,63,98,2051439208
4518,16,Jits_ISO_5,0,1,38,61,2051848352
4518,16,Jits_ISO_5,1,5,63,98,2051851108
4518,16,Jits_ISO_5,2,5,80,127,2051888432
4518,16,Jits_ISO_5,3,5,56,103,2051928368
4518,16,Jits_ISO_5,0,1,38,55,2052340184
4518,16,Jits_ISO_5,1,1,48,15,2052355292
4518,16,Jits_ISO_5,2,5,56,103,2052358472
4518,16,Jits_ISO_5,3,5,63,98,2052369188
4518,16,Jits_ISO_5,4,5,80,127,2052389200
4518,16,Jits_ISO_5,0,1,38,61,2052856760
4518,16,Jits_ISO_5,1,5,63,98,2052899132
4518,16,Jits_ISO_5,2,5,80,127,2052918768
4518,16,Jits_ISO_5,3,5,56,103,2052939224
4518,16,Jits_ISO_5,0,5,56,103,2053338340
4518,16,Jits_ISO_5,1,1,38,68,2053365648
4518,16,Jits_ISO_5,2,5,80,127,2053419324
4518,16,Jits_ISO_5,3,5,63,98,2053428548
4518,16,Jits_ISO_5,0,1,38,54,2053852660
4518,16,Jits_ISO_5,1,1,48,16,2053868528
4518,16,Jits_ISO_5,2,5,80,127,2053879264
4518,16,Jits_ISO_5,3,5,63,98,2053889536
4518,16,Jits_ISO_5,4,5,56,103,2053919208
4518,16,Jits_ISO_5,0,5,63,98,2054339008
4518,16,Jits_ISO_5,1,1,38,73,2054355384
4518,16,Jits_ISO_5,2,5,80,127,2054378868
4518,16,Jits_ISO_5,3,5,56,103,2054439328
4518,16,Jits_ISO_5,0,1,38,75,2054832112
4518,16,Jits_ISO_5,1,5,63,98,2054849300
4518,16,Jits_ISO_5,2,5,56,103,2054899276
4518,16,Jits_ISO_5,3,5,80,127,2054928860
4518,16,Jits_ISO_5,0,1,38,69,2055356964
4518,16,Jits_ISO_5,1,5,80,127,2055360048
4518,16,Jits_ISO_5,2,5,63,98,2055368972
4518,16,Jits_ISO_5,3,5,56,103,2055438872
4518,16,Jits_ISO_5,0,1,38,70,2055860656
4518,16,Jits_ISO_5,1,1,48,16,2055875836
4518,16,Jits_ISO_5,2,5,80,127,2055929288
4518,16,Jits_ISO_5,3,5,56,103,2055938280
4518,16,Jits_ISO_5,4,5,63,98,2055941500
4518,16,Jits_ISO_5,0,1,38,78,2056361200
4518,16,Jits_ISO_5,1,5,56,103,2056368568
4518,16,Jits_ISO_5,2,5,80,127,2056389104
4518,16,Jits_ISO_5,3,5,63,98,2056399148
4518,16,Jits_ISO_5,0,1,38,52,2056852236
4518,16,Jits_ISO_5,1,5,63,98,2056878564
4518,16,Jits_ISO_5,2,5,56,103,2056919476
4518,16,Jits_ISO_5,3,5,80,127,2056938812
4518,16,Jits_ISO_5,0,1,38,77,2057327332
4518,16,Jits_ISO_5,1,5,63,98,2057379048
4518,16,Jits_ISO_5,2,5,56,103,2057438748
4518,16,Jits_ISO_5,3,5,80,127,2057441964
4518,16,Jits_ISO_5,0,1,38,74,2057832748
4518,16,Jits_ISO_5,1,5,56,103,2057838920
4518,16,Jits_ISO_5,2,5,80,127,2057858408
4518,16,Jits_ISO_5,3,5,63,98,2057899392
4518,16,Jits_ISO_5,0,1,38,48,2058319344
4518,16,Jits_ISO_5,1,1,48,15,2058334416
4518,16,Jits_ISO_5,2,5,56,103,2058369360
4518,16,Jits_ISO_5,3,5,63,98,2058388996
4518,16,Jits_ISO_5,4,5,80,127,2058399040
4518,16,Jits_ISO_5,0,1,38,73,2058811884
4518,16,Jits_ISO_5,1,5,80,127,2058839408
4518,16,Jits_ISO_5,2,5,56,103,2058868960
4518,16,Jits_ISO_5,3,5,63,98,2058909028
4518,16,Jits_ISO_5,0,1,38,67,2059332068
4518,16,Jits_ISO_5,1,5,80,127,2059349252
4518,16,Jits_ISO_5,2,5,56,103,2059368764
4518,16,Jits_ISO_5,3,5,63,98,2059429136
4518,16,Jits_ISO_5,0,1,38,65,2059828656
4518,16,Jits_ISO_5,1,5,56,103,2059859248
4518,16,Jits_ISO_5,2,5,80,127,2059878980
4518,16,Jits_ISO_5,3,5,63,98,2059939128
4518,16,Jits_ISO_5,0,5,80,127,2060338684
4518,16,Jits_ISO_5,1,5,56,103,2060348804
4518,16,Jits_ISO_5,2,1,38,73,2060360988
4518,16,Jits_ISO_5,3,5,63,98,2060388684
4518,16,Jits_ISO_5,0,5,63,98,2060839176
4518,16,Jits_ISO_5,1,1,38,75,2060853456
4518,16,Jits_ISO_5,2,5,56,103,2060879252
4518,16,Jits_ISO_5,3,5,80,127,2060882244
4518,16,Jits_ISO_5,0,1,38,80,2061325740
4518,16,Jits_ISO_5,1,5,63,98,2061358588
4518,16,Jits_ISO_5,2,5,80,127,2061399352
4518,16,Jits_ISO_5,3,5,56,103,2061429036
4518,16,Jits_ISO_5,0,1,38,75,2061830504
4518,16,Jits_ISO_5,1,5,56,103,2061848884
4518,16,Jits_ISO_5,2,5,63,98,2061859156
4518,16,Jits_ISO_5,3,5,80,127,2061888900
4518,16,Jits_ISO_5,0,5,80,127,2062338284
4518,16,Jits_ISO_5,1,1,38,73,2062341400
4518,16,Jits_ISO_5,2,5,63,98,2062409000
4518,16,Jits_ISO_5,3,5,56,103,2062419196
4518,16,Jits_ISO_5,0,5,63,98,2062839152
4518,16,Jits_ISO_5,1,1,38,67,2062840488
4518,16,Jits_ISO_5,2,5,56,103,2062908752
4518,16,Jits_ISO_5,3,5,80,127,2062919020
4518,16,Jits_ISO_5,0,5,63,98,2063338960
4518,16,Jits_ISO_5,1,1,38,69,2063346812
4518,16,Jits_ISO_5,2,5,56,103,2063359488
4518,16,Jits_ISO_5,3,5,80,127,2063399200
4518,16,Jits_ISO_5,0,1,38,67,2063831168
4518,16,Jits_ISO_5,1,5,56,103,2063848800
4518,16,Jits_ISO_5,2,5,63,98,2063859068
4518,16,Jits_ISO_5,3,5,80,127,2063939068
4518,16,Jits_ISO_5,0,1,38,72,2064330672
4518,16,Jits_ISO_5,1,5,63,98,2064339168
4518,16,Jits_ISO_5,2,5,56,103,2064368992
4518,16,Jits_ISO_5,3,5,80,127,2064408928
4518,16,Jits_ISO_5,0,1,38,74,2064825380
4518,16,Jits_ISO_5,1,5,56,103,2064838900
4518,16,Jits_ISO_5,2,5,63,98,2064878912
4518,16,Jits_ISO_5,3,5,80,127,2064919732
4518,16,Jits_ISO_5,0,1,38,71,2065313952
4518,16,Jits_ISO_5,1,5,80,127,2065338780
4518,16,Jits_ISO_5,2,5,56,103,2065418632
4518,16,Jits_ISO_5,3,5,63,98,2065428828
4518,16,Jits_ISO_5,0,1,38,67,2065815704
4518,16,Jits_ISO_5,1,1,48,17,2065830896
4518,16,Jits_ISO_5,2,5,56,103,2065879544
4518,16,Jits_ISO_5,3,5,63,98,2065882612
4518,16,Jits_ISO_5,4,5,80,127,2065888768
4518,16,Jits_ISO_5,0,1,38,67,2066311600
4518,16,Jits_ISO_5,1,5,56,103,2066398536
4518,16,Jits_ISO_5,2,5,63,98,2066418980
4518,16,Jits_ISO_5,3,5,80,127,2066429400
4518,16,Jits_ISO_5,0,1,38,70,2066810068
4518,16,Jits_ISO_5,1,5,63,98,2066859388
4518,16,Jits_ISO_5,2,5,80,127,2066868760
4518,16,Jits_ISO_5,3,5,56,103,2066889072
4518,16,Jits_ISO_5,0,1,38,67,2067306044
4518,16,Jits_ISO_5,1,5,63,98,2067358976
4518,16,Jits_ISO_5,2,5,56,103,2067438820
4518,16,Jits_ISO_5,3,5,80,127,2067442040
4518,16,Jits_ISO_5,0,1,38,62,2067816872
4518,16,Jits_ISO_5,1,5,63,98,2067858700
4518,16,Jits_ISO_5,2,5,56,103,2067879456
4518,16,Jits_ISO_5,3,5,80,127,2067908832
4518,16,Jits_ISO_5,0,1,38,69,2068297548
4518,16,Jits_ISO_5,1,5,56,103,2068358728
4518,16,Jits_ISO_5,2,5,63,98,2068378964
4518,16,Jits_ISO_5,3,5,80,127,2068389160
4518,16,Jits_ISO_5,0,1,38,65,2068811508
4518,16,Jits_ISO_5,1,5,56,103,2068888880
4518,16,Jits_ISO_5,2,5,63,98,2068918612
4518,16,Jits_ISO_5,3,5,80,127,2068921828
4518,16,Jits_ISO_5,0,1,38,69,2069333112
4518,16,Jits_ISO_5,1,5,56,103,2069338832
4518,16,Jits_ISO_5,2,5,63,98,2069378696
4518,16,Jits_ISO_5,3,5,80,127,2069438768
4518,16,Jits_ISO_5,0,1,38,69,2069811620
4518,16,Jits_ISO_5,1,5,56,103,2069858572
4518,16,Jits_ISO_5,2,5,63,98,2069868768
4518,16,Jits_ISO_5,3,5,80,127,2069929436
4518,16,Jits_ISO_5,0,1,38,67,2070348436
4518,16,Jits_ISO_5,1,5,56,103,2070359620
4518,16,Jits_ISO_5,2,5,80,127,2070378832
4518,16,Jits_ISO_5,3,5,63,98,2070408432
4518,16,Jits_ISO_5,0,1,38,69,2070846752
4518,16,Jits_ISO_5,1,5,80,127,2070859056
4518,16,Jits_ISO_5,2,5,56,103,2070869548
4518,16,Jits_ISO_5,3,5,63,98,2070888912
4518,16,Jits_ISO_5,0,1,38,68,2071327672
4518,16,Jits_ISO_5,1,5,63,98,2071348524
4518,16,Jits_ISO_5,2,5,80,127,2071428628
4518,16,Jits_ISO_5,3,5,56,103,2071438672
4518,16,Jits_ISO_5,0,1,38,64,2071844028
4518,16,Jits_ISO_5,1,5,80,127,2071908668
4518,16,Jits_ISO_5,2,5,56,103,2071929344
4518,16,Jits_ISO_5,3,5,63,98,2071932412
4518,16,Jits_ISO_5,0,1,38,71,2072323824
4518,16,Jits_ISO_5,1,5,63,98,2072378620
4518,16,Jits_ISO_5,2,5,80,127,2072381988
4518,16,Jits_ISO_5,3,5,56,103,2072439244
4518,16,Jits_ISO_5,0,5,56,103,2072858952
4518,16,Jits_ISO_5,1,1,38,58,2072861472
4518,16,Jits_ISO_5,2,5,80,127,2072869364
4518,16,Jits_ISO_5,3,5,63,98,2072909152
4518,16,Jits_ISO_5,0,1,38,70,2073330344
4518,16,Jits_ISO_5,1,5,56,103,2073339360
4518,16,Jits_ISO_5,2,1,48,16,2073346240
4518,16,Jits_ISO_5,3,5,63,98,2073398624
4518,16,Jits_ISO_5,4,5,80,127,2073408816
4518,16,Jits_ISO_5,0,5,63,98,2073849380
4518,16,Jits_ISO_5,1,1,38,61,2073870856
4518,16,Jits_ISO_5,2,5,80,127,2073889388
4518,16,Jits_ISO_5,3,5,56,103,2073929100
4518,16,Jits_ISO_5,0,1,38,66,2074348440
4518,16,Jits_ISO_5,1,5,56,103,2074351348
4518,16,Jits_ISO_5,2,1,48,16,2074363988
4518,16,Jits_ISO_5,3,5,63,98,2074428744
4518,16,Jits_ISO_5,4,5,80,127,2074432184
4518,16,Jits_ISO_5,0,9999,9999,9999,2015126624
4518,16,Jits_ISO_5,1,9999,9999,9999,2015626324
4518,16,Jits_ISO_5,2,9999,9999,9999,2016127032
4518,16,Jits_ISO_5,3,9999,9999,9999,2016626764
4518,16,Jits_ISO_5,4,9999,9999,9999,2017126500
4518,16,Jits_ISO_5,5,9999,9999,9999,2017626212
4518,16,Jits_ISO_5,6,9999,9999,9999,2018126908
4518,16,Jits_ISO_5,7,9999,9999,9999,2018626640
4518,16,Jits_ISO_5,8,9999,9999,9999,2019126372
4518,16,Jits_ISO_5,9,9999,9999,9999,2019627076
4518,16,Jits_ISO_5,10,9999,9999,9999,2020137024
4518,16,Jits_ISO_5,11,9999,9999,9999,2020636796
4518,16,Jits_ISO_5,12,9999,9999,9999,2021136448
4518,16,Jits_ISO_5,13,9999,9999,9999,2021636180
4518,16,Jits_ISO_5,14,9999,9999,9999,2022136884
4518,16,Jits_ISO_5,15,9999,9999,9999,2022636632
4518,16,Jits_ISO_5,16,9999,9999,9999,2023136364
4518,16,Jits_ISO_5,17,9999,9999,9999,2023637068
4518,16,Jits_ISO_5,18,9999,9999,9999,2024136804
4518,16,Jits_ISO_5,19,9999,9999,9999,2024636464
4518,16,Jits_ISO_5,20,9999,9999,9999,2025136228
4518,16,Jits_ISO_5,21,9999,9999,9999,2025636968
4518,16,Jits_ISO_5,22,9999,9999,9999,2026136640
4518,16,Jits_ISO_5,23,9999,9999,9999,2026636388
4518,16,Jits_ISO_5,24,9999,9999,9999,2027136064
4518,16,Jits_ISO_5,25,9999,9999,9999,2027636852
4518,16,Jits_ISO_5,26,9999,9999,9999,2028136516
4518,16,Jits_ISO_5,27,9999,9999,9999,2028636212
4518,16,Jits_ISO_5,28,9999,9999,9999,2029137004
4518,16,Jits_ISO_5,29,9999,9999,9999,2029636660
4518,16,Jits_ISO_5,30,9999,9999,9999,2030136408
4518,16,Jits_ISO_5,31,9999,9999,9999,2030636144
4518,16,Jits_ISO_5,32,9999,9999,9999,2031136848
4518,16,Jits_ISO_5,33,9999,9999,9999,2031636580
4518,16,Jits_ISO_5,34,9999,9999,9999,2032136244
4518,16,Jits_ISO_5,35,9999,9999,9999,2032636992
4518,16,Jits_ISO_5,36,9999,9999,9999,2033136752
4518,16,Jits_ISO_5,37,9999,9999,9999,2033636412
4518,16,Jits_ISO_5,38,9999,9999,9999,2034136128
4518,16,Jits_ISO_5,39,9999,9999,9999,2034636876
4518,16,Jits_ISO_5,40,9999,9999,9999,2035136608
4518,16,Jits_ISO_5,41,9999,9999,9999,2035636308
4518,16,Jits_ISO_5,42,9999,9999,9999,2036137064
4518,16,Jits_ISO_5,43,9999,9999,9999,2036636792
4518,16,Jits_ISO_5,44,9999,9999,9999,2037136452
4518,16,Jits_ISO_5,45,9999,9999,9999,2037636180
4518,16,Jits_ISO_5,46,9999,9999,9999,2038136884
4518,16,Jits_ISO_5,47,9999,9999,9999,2038636628
4518,16,Jits_ISO_5,48,9999,9999,9999,2039136364
4518,16,Jits_ISO_5,49,9999,9999,9999,2039637052
4518,16,Jits_ISO_5,50,9999,9999,9999,2040136768
4518,16,Jits_ISO_5,51,9999,9999,9999,2040636520
4518,16,Jits_ISO_5,52,9999,9999,9999,2041136196
4518,16,Jits_ISO_5,53,9999,9999,9999,2041636976
4518,16,Jits_ISO_5,54,9999,9999,9999,2042136680
4518,16,Jits_ISO_5,55,9999,9999,9999,2042636348
4518,16,Jits_ISO_5,56,9999,9999,9999,2043136120
4518,16,Jits_ISO_5,57,9999,9999,9999,2043636820
4518,16,Jits_ISO_5,58,9999,9999,9999,2044136564
4518,16,Jits_ISO_5,59,9999,9999,9999,2044636208
4518,16,Jits_ISO_5,60,9999,9999,9999,2045137012
4518,16,Jits_ISO_5,61,9999,9999,9999,2045636668
4518,16,Jits_ISO_5,62,9999,9999,9999,2046136404
4518,16,Jits_ISO_5,63,9999,9999,9999,2046636136
4518,16,Jits_ISO_5,64,9999,9999,9999,2047136844
4518,16,Jits_ISO_5,65,9999,9999,9999,2047636564
4518,16,Jits_ISO_5,66,9999,9999,9999,2048136300
4518,16,Jits_ISO_5,67,9999,9999,9999,2048636996
4518,16,Jits_ISO_5,68,9999,9999,9999,2049136728
4518,16,Jits_ISO_5,69,9999,9999,9999,2049636460
4518,16,Jits_ISO_5,70,9999,9999,9999,2050136156
4518,16,Jits_ISO_5,71,9999,9999,9999,2050636872
4518,16,Jits_ISO_5,72,9999,9999,9999,2051136600
4518,16,Jits_ISO_5,73,9999,9999,9999,2051636336
4518,16,Jits_ISO_5,74,9999,9999,9999,2052137040
4518,16,Jits_ISO_5,75,9999,9999,9999,2052636732
4518,16,Jits_ISO_5,76,9999,9999,9999,2053136436
4518,16,Jits_ISO_5,77,9999,9999,9999,2053636168
4518,16,Jits_ISO_5,78,9999,9999,9999,2054136916
4518,16,Jits_ISO_5,79,9999,9999,9999,2054636616
4518,16,Jits_ISO_5,80,9999,9999,9999,2055136348
4518,16,Jits_ISO_5,81,9999,9999,9999,2055637056
4518,16,Jits_ISO_5,82,9999,9999,9999,2056136816
4518,16,Jits_ISO_5,83,9999,9999,9999,2056636512
4518,16,Jits_ISO_5,84,9999,9999,9999,2057136244
4518,16,Jits_ISO_5,85,9999,9999,9999,2057636944
4518,16,Jits_ISO_5,86,9999,9999,9999,2058136676
4518,16,Jits_ISO_5,87,9999,9999,9999,2058636376
4518,16,Jits_ISO_5,88,9999,9999,9999,2059136068
4518,16,Jits_ISO_5,89,9999,9999,9999,2059636844
4518,16,Jits_ISO_5,90,9999,9999,9999,2060136504
4518,16,Jits_ISO_5,91,9999,9999,9999,2060636284
4518,16,Jits_ISO_5,92,9999,9999,9999,2061136988
4518,16,Jits_ISO_5,93,9999,9999,9999,2061636724
4518,16,Jits_ISO_5,94,9999,9999,9999,2062136376
4518,16,Jits_ISO_5,95,9999,9999,9999,2062636112
4518,16,Jits_ISO_5,96,9999,9999,9999,2063136828
4518,16,Jits_ISO_5,97,9999,9999,9999,2063636560
4518,16,Jits_ISO_5,98,9999,9999,9999,2064136296
4518,16,Jits_ISO_5,99,9999,9999,9999,2064637000
4518,16,Jits_ISO_5,100,9999,9999,9999,2065136732
4518,16,Jits_ISO_5,101,9999,9999,9999,2065636464
4518,16,Jits_ISO_5,102,9999,9999,9999,2066136140
4518,16,Jits_ISO_5,103,9999,9999,9999,2066636888
4518,16,Jits_ISO_5,104,9999,9999,9999,2067136620
4518,16,Jits_ISO_5,105,9999,9999,9999,2067636276
4518,16,Jits_ISO_5,106,9999,9999,9999,2068137052
4518,16,Jits_ISO_5,107,9999,9999,9999,2068636784
4518,16,Jits_ISO_5,108,9999,9999,9999,2069136436
4518,16,Jits_ISO_5,109,9999,9999,9999,2069636220
4518,16,Jits_ISO_5,110,9999,9999,9999,2070136924
4518,16,Jits_ISO_5,111,9999,9999,9999,2070636652
4518,16,Jits_ISO_5,112,9999,9999,9999,2071136312
4518,16,Jits_ISO_5,113,9999,9999,9999,2071637072
4518,16,Jits_ISO_5,114,9999,9999,9999,2072136796
4518,16,Jits_ISO_5,115,9999,9999,9999,2072636520
4518,16,Jits_ISO_5,116,9999,9999,9999,2073136180
4518,16,Jits_ISO_5,117,9999,9999,9999,2073636948
4518,16,Jits_ISO_5,118,9999,9999,9999,2074136648
4518,16,Jits_ISO_5,119,9999,9999,9999,2074636340
4519,7,Jits_ISO_8,0,5,56,103,2086447528
4519,7,Jits_ISO_8,1,5,63,98,2086450552
4519,7,Jits_ISO_8,2,5,80,127,2086453676
4519,7,Jits_ISO_8,0,1,38,48,2086983148
4519,7,Jits_ISO_8,1,5,56,103,2087248256
4519,7,Jits_ISO_8,2,5,63,98,2087251204
4519,7,Jits_ISO_8,3,5,80,127,2087254476
4519,7,Jits_ISO_8,0,1,38,64,2087953616
4519,7,Jits_ISO_8,1,5,80,127,2087987664
4519,7,Jits_ISO_8,2,5,63,98,2088077812
4519,7,Jits_ISO_8,3,5,56,103,2088087860
4519,7,Jits_ISO_8,0,5,56,103,2088807784
4519,7,Jits_ISO_8,1,5,63,98,2088818204
4519,7,Jits_ISO_8,2,1,38,66,2088828892
4519,7,Jits_ISO_8,3,5,80,127,2088908108
4519,7,Jits_ISO_8,0,5,63,98,2089577912
4519,7,Jits_ISO_8,1,5,80,127,2089607440
4519,7,Jits_ISO_8,2,1,38,70,2089621648
4519,7,Jits_ISO_8,3,5,56,103,2089638232
4519,7,Jits_ISO_8,0,1,38,72,2090377092
4519,7,Jits_ISO_8,1,5,56,103,2090379484
4519,7,Jits_ISO_8,2,5,80,127,2090478072
4519,7,Jits_ISO_8,3,5,63,98,2090528052
4519,7,Jits_ISO_8,0,5,56,103,2091178304
4519,7,Jits_ISO_8,1,1,38,73,2091207728
4519,7,Jits_ISO_8,2,5,80,127,2091227380
4519,7,Jits_ISO_8,3,5,63,98,2091267392
4519,7,Jits_ISO_8,0,5,80,127,2092008064
4519,7,Jits_ISO_8,1,1,38,68,2092025940
4519,7,Jits_ISO_8,2,5,63,98,2092037440
4519,7,Jits_ISO_8,3,5,56,103,2092108168
4519,7,Jits_ISO_8,0,5,63,98,2092838212
4519,7,Jits_ISO_8,1,1,38,68,2092855656
4519,7,Jits_ISO_8,2,5,56,103,2092867884
4519,7,Jits_ISO_8,3,5,80,127,2092928448
4519,7,Jits_ISO_8,0,5,56,103,2093577764
4519,7,Jits_ISO_8,1,5,80,127,2093580828
4519,7,Jits_ISO_8,2,1,38,69,2093663088
4519,7,Jits_ISO_8,3,5,63,98,2093698408
4519,7,Jits_ISO_8,0,1,38,70,2094401792
4519,7,Jits_ISO_8,1,5,56,103,2094458336
4519,7,Jits_ISO_8,2,5,80,127,2094498184
4519,7,Jits_ISO_8,3,5,63,98,2094508384
4519,7,Jits_ISO_8,0,5,56,103,2095217972
4519,7,Jits_ISO_8,1,5,80,127,2095237684
4519,7,Jits_ISO_8,2,1,38,73,2095243048
4519,7,Jits_ISO_8,3,5,63,98,2095318372
4519,7,Jits_ISO_8,0,5,80,127,2096007660
4519,7,Jits_ISO_8,1,1,38,74,2096049668
4519,7,Jits_ISO_8,2,5,56,103,2096107980
4519,7,Jits_ISO_8,3,5,63,98,2096118252
4519,7,Jits_ISO_8,0,5,63,98,2096777864
4519,7,Jits_ISO_8,1,5,80,127,2096837960
4519,7,Jits_ISO_8,2,5,56,103,2096848232
4519,7,Jits_ISO_8,3,1,38,74,2096871432
4519,7,Jits_ISO_8,0,1,38,69,2097528844
4519,7,Jits_ISO_8,1,5,56,103,2097578316
4519,7,Jits_ISO_8,2,5,63,98,2097648056
4519,7,Jits_ISO_8,3,5,80,127,2097651568
4519,7,Jits_ISO_8,0,1,38,70,2098352876
4519,7,Jits_ISO_8,1,5,63,98,2098407680
4519,7,Jits_ISO_8,2,5,56,103,2098458092
4519,7,Jits_ISO_8,3,5,80,127,2098461008
4519,7,Jits_ISO_8,0,5,56,103,2099167672
4519,7,Jits_ISO_8,1,5,80,127,2099170668
4519,7,Jits_ISO_8,2,1,38,60,2099200536
4519,7,Jits_ISO_8,3,5,63,98,2099257800
4519,7,Jits_ISO_8,0,1,38,76,2099943740
4519,7,Jits_ISO_8,1,5,63,98,2100008208
4519,7,Jits_ISO_8,2,5,56,103,2100098288
4519,7,Jits_ISO_8,3,5,80,127,2100128108
4519,7,Jits_ISO_8,0,1,38,77,2100780844
4519,7,Jits_ISO_8,1,5,56,103,2100797736
4519,7,Jits_ISO_8,2,5,63,98,2100898144
4519,7,Jits_ISO_8,3,5,80,127,2100927820
4519,7,Jits_ISO_8,0,5,63,98,2101618004
4519,7,Jits_ISO_8,1,5,56,103,2101628200
4519,7,Jits_ISO_8,2,1,38,66,2101646088
4519,7,Jits_ISO_8,3,5,80,127,2101718328
4519,7,Jits_ISO_8,0,1,38,67,2102429588
4519,7,Jits_ISO_8,1,5,63,98,2102438380
4519,7,Jits_ISO_8,2,5,56,103,2102518328
4519,7,Jits_ISO_8,3,5,80,127,2102522356
4519,7,Jits_ISO_8,0,5,80,127,2103198160
4519,7,Jits_ISO_8,1,5,63,98,2103217648
4519,7,Jits_ISO_8,2,1,38,68,2103263840
4519,7,Jits_ISO_8,3,5,56,103,2103277956
4519,7,Jits_ISO_8,0,1,38,74,2103960456
4519,7,Jits_ISO_8,1,5,56,103,2104037660
4519,7,Jits_ISO_8,2,5,63,98,2104058328
4519,7,Jits_ISO_8,3,5,80,127,2104061544
4519,7,Jits_ISO_8,0,1,38,59,2104701712
4519,7,Jits_ISO_8,1,5,63,98,2104778092
4519,7,Jits_ISO_8,2,5,80,127,2104858028
4519,7,Jits_ISO_8,3,5,56,103,2104868296
4519,7,Jits_ISO_8,0,1,38,61,2105506152
4519,7,Jits_ISO_8,1,5,63,98,2105599136
4519,7,Jits_ISO_8,2,5,56,103,2105617876
4519,7,Jits_ISO_8,3,5,80,127,2105668076
4519,7,Jits_ISO_8,0,1,38,53,2106331772
4519,7,Jits_ISO_8,1,5,80,127,2106397960
4519,7,Jits_ISO_8,2,5,63,98,2106437884
4519,7,Jits_ISO_8,3,5,56,103,2106457596
4519,7,Jits_ISO_8,0,1,38,66,2107078212
4519,7,Jits_ISO_8,1,5,56,103,2107237832
4519,7,Jits_ISO_8,2,5,63,98,2107248104
4519,7,Jits_ISO_8,3,5,80,127,2107267368
4519,7,Jits_ISO_8,0,1,38,66,2107955548
4519,7,Jits_ISO_8,1,5,56,103,2107968000
4519,7,Jits_ISO_8,2,5,63,98,2108057924
4519,7,Jits_ISO_8,3,5,80,127,2108118464
4519,7,Jits_ISO_8,0,5,80,127,2108798532
4519,7,Jits_ISO_8,1,5,56,103,2108807460
4519,7,Jits_ISO_8,2,1,38,69,2108818972
4519,7,Jits_ISO_8,3,5,63,98,2108878404
4519,7,Jits_ISO_8,0,5,63,98,2109627856
4519,7,Jits_ISO_8,1,1,38,70,2109652848
4519,7,Jits_ISO_8,2,5,80,127,2109717840
4519,7,Jits_ISO_8,3,5,56,103,2109728108
4519,7,Jits_ISO_8,0,5,63,98,2110368084
4519,7,Jits_ISO_8,1,5,80,127,2110418732
4519,7,Jits_ISO_8,2,1,38,60,2110470332
4519,7,Jits_ISO_8,3,5,56,103,2110477772
4519,7,Jits_ISO_8,0,1,38,76,2111059388
4519,7,Jits_ISO_8,1,5,56,103,2111197584
4519,7,Jits_ISO_8,2,5,80,127,2111247712
4519,7,Jits_ISO_8,3,5,63,98,2111268248
4519,7,Jits_ISO_8,0,5,56,103,2111967716
4519,7,Jits_ISO_8,1,1,38,78,2111969732
4519,7,Jits_ISO_8,2,5,80,127,2112028252
4519,7,Jits_ISO_8,3,5,63,98,2112097644
4519,7,Jits_ISO_8,0,5,56,103,2112768264
4519,7,Jits_ISO_8,1,5,80,127,2112798088
4519,7,Jits_ISO_8,2,1,38,73,2112802180
4519,7,Jits_ISO_8,3,5,63,98,2112827680
4519,7,Jits_ISO_8,0,1,38,67,2113495352
4519,7,Jits_ISO_8,1,5,56,103,2113608264
4519,7,Jits_ISO_8,2,5,80,127,2113627552
4519,7,Jits_ISO_8,3,5,63,98,2113688016
4519,7,Jits_ISO_8,0,1,38,68,2114367584
4519,7,Jits_ISO_8,1,5,80,127,2114487644
4519,7,Jits_ISO_8,2,5,56,103,2114498360
4519,7,Jits_ISO_8,3,5,63,98,2114508556
4519,7,Jits_ISO_8,0,1,38,64,2115240444
4519,7,Jits_ISO_8,1,5,56,103,2115247516
4519,7,Jits_ISO_8,2,5,80,127,2115288504
4519,7,Jits_ISO_8,3,5,63,98,2115318100
4519,7,Jits_ISO_8,0,1,38,60,2115985544
4519,7,Jits_ISO_8,1,5,56,103,2116017480
4519,7,Jits_ISO_8,2,5,63,98,2116048356
4519,7,Jits_ISO_8,3,5,80,127,2116088352
4519,7,Jits_ISO_8,0,5,80,127,2116768344
4519,7,Jits_ISO_8,1,1,38,60,2116793112
4519,7,Jits_ISO_8,2,5,63,98,2116818168
4519,7,Jits_ISO_8,3,5,56,103,2116837728
4519,7,Jits_ISO_8,0,1,38,56,2117560160
4519,7,Jits_ISO_8,1,5,56,103,2117597504
4519,7,Jits_ISO_8,2,5,80,127,2117668296
4519,7,Jits_ISO_8,3,5,63,98,2117727516
4519,7,Jits_ISO_8,0,1,38,55,2118392912
4519,7,Jits_ISO_8,1,5,80,127,2118398260
4519,7,Jits_ISO_8,2,5,63,98,2118488388
4519,7,Jits_ISO_8,3,5,56,103,2118507968
4519,7,Jits_ISO_8,0,1,38,72,2119201020
4519,7,Jits_ISO_8,1,5,63,98,2119217456
4519,7,Jits_ISO_8,2,5,56,103,2119238288
4519,7,Jits_ISO_8,3,5,80,127,2119278176
4519,7,Jits_ISO_8,0,5,80,127,2119978280
4519,7,Jits_ISO_8,1,1,38,66,2119990396
4519,7,Jits_ISO_8,2,5,63,98,2119997688
4519,7,Jits_ISO_8,3,5,56,103,2120077660
4519,7,Jits_ISO_8,0,5,63,98,2120768036
4519,7,Jits_ISO_8,1,1,38,62,2120819884
4519,7,Jits_ISO_8,2,5,56,103,2120877444
4519,7,Jits_ISO_8,3,5,80,127,2120880588
4519,7,Jits_ISO_8,0,1,38,67,2121541700
4519,7,Jits_ISO_8,1,5,63,98,2121587980
4519,7,Jits_ISO_8,2,5,56,103,2121598248
4519,7,Jits_ISO_8,3,5,80,127,2121601392
4519,7,Jits_ISO_8,0,1,38,62,2122310224
4519,7,Jits_ISO_8,1,5,56,103,2122368340
4519,7,Jits_ISO_8,2,5,80,127,2122488056
4519,7,Jits_ISO_8,3,5,63,98,2122528072
4519,7,Jits_ISO_8,0,1,38,61,2123174536
4519,7,Jits_ISO_8,1,5,56,103,2123187536
4519,7,Jits_ISO_8,2,5,80,127,2123268220
4519,7,Jits_ISO_8,3,5,63,98,2123288076
4519,7,Jits_ISO_8,0,5,56,103,2123988296
4519,7,Jits_ISO_8,1,1,38,38,2123996596
4519,7,Jits_ISO_8,2,5,63,98,2124098116
4519,7,Jits_ISO_8,3,5,80,127,2124101480
4519,7,Jits_ISO_8,0,1,38,62,2124750516
4519,7,Jits_ISO_8,1,5,56,103,2124817828
4519,7,Jits_ISO_8,2,5,80,127,2124847428
4519,7,Jits_ISO_8,3,5,63,98,2124868096
4519,7,Jits_ISO_8,0,1,38,61,2125581620
4519,7,Jits_ISO_8,1,5,63,98,2125598132
4519,7,Jits_ISO_8,2,5,56,103,2125608252
4519,7,Jits_ISO_8,3,5,80,127,2125617404
4519,7,Jits_ISO_8,0,1,38,62,2126343480
4519,7,Jits_ISO_8,1,5,80,127,2126387496
4519,7,Jits_ISO_8,2,5,56,103,2126437932
4519,7,Jits_ISO_8,3,5,63,98,2126477648
4519,7,Jits_ISO_8,0,1,38,57,2127206320
4519,7,Jits_ISO_8,1,5,80,127,2127209172
4519,7,Jits_ISO_8,2,5,63,98,2127228140
4519,7,Jits_ISO_8,3,5,56,103,2127277368
4519,7,Jits_ISO_8,0,1,38,64,2127985468
4519,7,Jits_ISO_8,1,5,80,127,2128017948
4519,7,Jits_ISO_8,2,5,56,103,2128047404
4519,7,Jits_ISO_8,3,5,63,98,2128118264
4519,7,Jits_ISO_8,0,1,38,63,2128849852
4519,7,Jits_ISO_8,1,5,56,103,2128867860
4519,7,Jits_ISO_8,2,5,80,127,2128878056
4519,7,Jits_ISO_8,3,5,63,98,2128917772
4519,7,Jits_ISO_8,0,1,38,56,2129541748
4519,7,Jits_ISO_8,1,5,56,103,2129578264
4519,7,Jits_ISO_8,2,5,63,98,2129598048
4519,7,Jits_ISO_8,3,5,80,127,2129667716
4519,7,Jits_ISO_8,0,1,38,60,2130358392
4519,7,Jits_ISO_8,1,5,63,98,2130397524
4519,7,Jits_ISO_8,2,5,80,127,2130457976
4519,7,Jits_ISO_8,3,5,56,103,2130477388
4519,7,Jits_ISO_8,0,5,80,127,2131188024
4519,7,Jits_ISO_8,1,5,56,103,2131217920
4519,7,Jits_ISO_8,2,1,38,60,2131240744
4519,7,Jits_ISO_8,3,5,63,98,2131247368
4519,7,Jits_ISO_8,0,5,56,103,2131987816
4519,7,Jits_ISO_8,1,1,38,58,2132042932
4519,7,Jits_ISO_8,2,5,63,98,2132048352
4519,7,Jits_ISO_8,3,5,80,127,2132107796
4519,7,Jits_ISO_8,0,1,38,60,2132799500
4519,7,Jits_ISO_8,1,5,80,127,2132807988
4519,7,Jits_ISO_8,2,5,56,103,2132827872
4519,7,Jits_ISO_8,3,5,63,98,2132899036
4519,7,Jits_ISO_8,0,1,38,52,2133530568
4519,7,Jits_ISO_8,1,5,80,127,2133607648
4519,7,Jits_ISO_8,2,5,63,98,2133628256
4519,7,Jits_ISO_8,3,5,56,103,2133657992
4519,7,Jits_ISO_8,0,1,38,61,2134341064
4519,7,Jits_ISO_8,1,5,80,127,2134398432
4519,7,Jits_ISO_8,2,5,63,98,2134417772
4519,7,Jits_ISO_8,3,5,56,103,2134478296
4519,7,Jits_ISO_8,0,5,80,127,2135197924
4519,7,Jits_ISO_8,1,1,38,58,2135213776
4519,7,Jits_ISO_8,2,5,56,103,2135298396
4519,7,Jits_ISO_8,3,5,63,98,2135328052
4519,7,Jits_ISO_8,0,5,63,98,2135987760
4519,7,Jits_ISO_8,1,1,38,51,2136008868
4519,7,Jits_ISO_8,2,5,80,127,2136037736
4519,7,Jits_ISO_8,3,5,56,103,2136058196
4519,7,Jits_ISO_8,0,1,38,49,2136753036
4519,7,Jits_ISO_8,1,5,80,127,2136828368
4519,7,Jits_ISO_8,2,5,56,103,2136857956
4519,7,Jits_ISO_8,3,5,63,98,2136861096
4519,7,Jits_ISO_8,0,1,38,74,2137550644
4519,7,Jits_ISO_8,1,5,63,98,2137657728
4519,7,Jits_ISO_8,2,5,56,103,2137697544
4519,7,Jits_ISO_8,3,5,80,127,2137718152
4519,7,Jits_ISO_8,0,1,38,69,2138336588
4519,7,Jits_ISO_8,1,5,80,127,2138398044
4519,7,Jits_ISO_8,2,5,63,98,2138477856
4519,7,Jits_ISO_8,3,5,56,103,2138517868
4519,7,Jits_ISO_8,0,1,38,64,2139170680
4519,7,Jits_ISO_8,1,5,63,98,2139218584
4519,7,Jits_ISO_8,2,5,80,127,2139298244
4519,7,Jits_ISO_8,3,5,56,103,2139317584
4519,7,Jits_ISO_8,0,1,38,80,2140031036
4519,7,Jits_ISO_8,1,5,56,103,2140058112
4519,7,Jits_ISO_8,2,5,63,98,2140068380
4519,7,Jits_ISO_8,3,5,80,127,2140108244
4519,7,Jits_ISO_8,0,5,56,103,2140777812
4519,7,Jits_ISO_8,1,5,80,127,2140781024
4519,7,Jits_ISO_8,2,1,38,82,2140882292
4519,7,Jits_ISO_8,3,5,63,98,2140918056
4519,7,Jits_ISO_8,0,5,56,103,2141568456
4519,7,Jits_ISO_8,1,1,38,65,2141624236
4519,7,Jits_ISO_8,2,5,63,98,2141657688
4519,7,Jits_ISO_8,3,5,80,127,2141728104
4519,7,Jits_ISO_8,0,1,38,75,2142357212
4519,7,Jits_ISO_8,1,5,63,98,2142448044
4519,7,Jits_ISO_8,2,5,80,127,2142452364
4519,7,Jits_ISO_8,3,5,56,103,2142508420
4519,7,Jits_ISO_8,0,1,38,68,2143112256
4519,7,Jits_ISO_8,1,5,80,127,2143287520
4519,7,Jits_ISO_8,2,5,56,103,2143308204
4519,7,Jits_ISO_8,3,5,63,98,2143318548
4519,7,Jits_ISO_8,0,1,38,84,2143984416
4519,7,Jits_ISO_8,1,5,56,103,2143998536
4519,7,Jits_ISO_8,2,5,63,98,2144007612
4519,7,Jits_ISO_8,3,5,80,127,2144078264
4519,7,Jits_ISO_8,0,1,38,89,2144777768
4519,7,Jits_ISO_8,1,5,80,127,2144798020
4519,7,Jits_ISO_8,2,5,56,103,2144848448
4519,7,Jits_ISO_8,3,5,63,98,2144898512
4519,7,Jits_ISO_8,0,1,38,89,2145582940
4519,7,Jits_ISO_8,1,5,56,103,2145677688
4519,7,Jits_ISO_8,2,5,63,98,2145687956
4519,7,Jits_ISO_8,3,5,80,127,2145727748
4519,7,Jits_ISO_8,0,1,38,74,2146381984
4519,7,Jits_ISO_8,1,5,56,103,2146418224
4519,7,Jits_ISO_8,2,5,63,98,2146457944
4519,7,Jits_ISO_8,3,5,80,127,2146508500
4519,7,Jits_ISO_8,0,5,80,127,2147177860
4519,7,Jits_ISO_8,1,1,38,82,2147179348
4519,7,Jits_ISO_8,2,5,56,103,2147228060
4519,7,Jits_ISO_8,3,5,63,98,2147247620
4519,7,Jits_ISO_8,0,1,38,64,2147948556
4519,7,Jits_ISO_8,1,5,80,127,2147987764
4519,7,Jits_ISO_8,2,5,63,98,2148048440
4519,7,Jits_ISO_8,3,5,56,103,2148128236
4519,7,Jits_ISO_8,0,5,80,127,2148768220
4519,7,Jits_ISO_8,1,1,38,62,2148787384
4519,7,Jits_ISO_8,2,5,56,103,2148807932
4519,7,Jits_ISO_8,3,5,63,98,2148827492
4519,7,Jits_ISO_8,4,1,38,19,2148901464
4519,7,Jits_ISO_8,0,1,38,71,2149577348
4519,7,Jits_ISO_8,1,5,56,103,2149618276
4519,7,Jits_ISO_8,2,5,80,127,2149628400
4519,7,Jits_ISO_8,3,5,63,98,2149668412
4519,7,Jits_ISO_8,0,1,38,75,2150438344
4519,7,Jits_ISO_8,1,5,56,103,2150488444
4519,7,Jits_ISO_8,2,5,63,98,2150528384
4519,7,Jits_ISO_8,3,5,80,127,2150531600
4519,7,Jits_ISO_8,0,5,63,98,2151177548
4519,7,Jits_ISO_8,1,5,80,127,2151217488
4519,7,Jits_ISO_8,2,1,38,78,2151267908
4519,7,Jits_ISO_8,3,5,56,103,2151288160
4519,7,Jits_ISO_8,0,5,63,98,2151968256
4519,7,Jits_ISO_8,1,1,38,73,2151994148
4519,7,Jits_ISO_8,2,5,56,103,2152048076
4519,7,Jits_ISO_8,3,5,80,127,2152108380
4519,7,Jits_ISO_8,0,5,80,127,2152778304
4519,7,Jits_ISO_8,1,1,38,75,2152782324
4519,7,Jits_ISO_8,2,5,63,98,2152828152
4519,7,Jits_ISO_8,3,5,56,103,2152857980
4519,7,Jits_ISO_8,0,1,38,58,2153528768
4519,7,Jits_ISO_8,1,5,56,103,2153567480
4519,7,Jits_ISO_8,2,5,63,98,2153617832
4519,7,Jits_ISO_8,3,5,80,127,2153628160
4519,7,Jits_ISO_8,0,1,38,81,2154295956
4519,7,Jits_ISO_8,1,5,56,103,2154377592
4519,7,Jits_ISO_8,2,5,63,98,2154488168
4519,7,Jits_ISO_8,3,5,80,127,2154507508
4519,7,Jits_ISO_8,0,1,38,73,2155165576
4519,7,Jits_ISO_8,1,5,63,98,2155178276
4519,7,Jits_ISO_8,2,5,80,127,2155227584
4519,7,Jits_ISO_8,3,5,56,103,2155317476
4519,7,Jits_ISO_8,0,5,63,98,2155968100
4519,7,Jits_ISO_8,1,1,38,77,2155974288
4519,7,Jits_ISO_8,2,5,80,127,2155997696
4519,7,Jits_ISO_8,3,5,56,103,2156087744
4519,7,Jits_ISO_8,0,1,38,49,2156736164
4519,7,Jits_ISO_8,1,5,63,98,2156767580
4519,7,Jits_ISO_8,2,5,56,103,2156777776
4519,7,Jits_ISO_8,3,5,80,127,2156878156
4519,7,Jits_ISO_8,0,1,38,79,2157554136
4519,7,Jits_ISO_8,1,5,63,98,2157667616
4519,7,Jits_ISO_8,2,5,80,127,2157698416
4519,7,Jits_ISO_8,3,5,56,103,2157728164
4519,7,Jits_ISO_8,0,1,38,73,2158377760
4519,7,Jits_ISO_8,1,5,80,127,2158488232
4519,7,Jits_ISO_8,2,5,63,98,2158498136
4519,7,Jits_ISO_8,3,5,56,103,2158527884
4519,7,Jits_ISO_8,0,5,80,127,2159188300
4519,7,Jits_ISO_8,1,5,63,98,2159207888
4519,7,Jits_ISO_8,2,5,56,103,2159258016
4519,7,Jits_ISO_8,3,1,38,73,2159281884
4519,7,Jits_ISO_8,0,1,38,85,2159978656
4519,7,Jits_ISO_8,1,5,63,98,2160018008
4519,7,Jits_ISO_8,2,5,80,127,2160079064
4519,7,Jits_ISO_8,3,5,56,103,2160097876
4519,7,Jits_ISO_8,0,1,38,71,2160750564
4519,7,Jits_ISO_8,1,5,63,98,2160777568
4519,7,Jits_ISO_8,2,5,56,103,2160827696
4519,7,Jits_ISO_8,3,5,80,127,2160837892
4519,7,Jits_ISO_8,0,1,38,66,2161461980
4519,7,Jits_ISO_8,1,5,56,103,2161608048
4519,7,Jits_ISO_8,2,5,80,127,2161618172
4519,7,Jits_ISO_8,3,5,63,98,2161717520
4519,7,Jits_ISO_8,0,1,38,76,2162337996
4519,7,Jits_ISO_8,1,5,80,127,2162367988
4519,7,Jits_ISO_8,2,5,63,98,2162378108
4519,7,Jits_ISO_8,3,5,56,103,2162527588
4519,7,Jits_ISO_8,0,1,38,73,2163090572
4519,7,Jits_ISO_8,1,5,63,98,2163178032
4519,7,Jits_ISO_8,2,5,80,127,2163217956
4519,7,Jits_ISO_8,3,5,56,103,2163297704
4519,7,Jits_ISO_8,0,5,56,103,2163968232
4519,7,Jits_ISO_8,1,1,38,78,2163986568
4519,7,Jits_ISO_8,2,5,80,127,2164067900
4519,7,Jits_ISO_8,3,5,63,98,2164088344
4519,7,Jits_ISO_8,0,1,38,74,2164805368
4519,7,Jits_ISO_8,1,5,80,127,2164827388
4519,7,Jits_ISO_8,2,5,56,103,2164837956
4519,7,Jits_ISO_8,3,5,63,98,2164927848
4519,7,Jits_ISO_8,0,1,38,64,2165597852
4519,7,Jits_ISO_8,1,5,56,103,2165628144
4519,7,Jits_ISO_8,2,5,63,98,2165647932
4519,7,Jits_ISO_8,3,5,80,127,2165727784
4519,7,Jits_ISO_8,0,1,38,71,2166372080
4519,7,Jits_ISO_8,1,5,63,98,2166377880
4519,7,Jits_ISO_8,2,5,56,103,2166468092
4519,7,Jits_ISO_8,3,5,80,127,2166471084
4519,7,Jits_ISO_8,0,1,38,65,2167146464
4519,7,Jits_ISO_8,1,5,56,103,2167208296
4519,7,Jits_ISO_8,2,5,80,127,2167267928
4519,7,Jits_ISO_8,3,5,63,98,2167277900
4519,7,Jits_ISO_8,0,1,38,58,2167957184
4519,7,Jits_ISO_8,1,5,80,127,2168058192
4519,7,Jits_ISO_8,2,5,56,103,2168067336
4519,7,Jits_ISO_8,3,5,63,98,2168070556
4519,7,Jits_ISO_8,0,1,38,61,2168785420
4519,7,Jits_ISO_8,1,5,56,103,2168818124
4519,7,Jits_ISO_8,2,5,80,127,2168828244
4519,7,Jits_ISO_8,3,5,63,98,2168848104
4519,7,Jits_ISO_8,0,1,38,65,2169559888
4519,7,Jits_ISO_8,1,5,63,98,2169588012
4519,7,Jits_ISO_8,2,5,80,127,2169647808
4519,7,Jits_ISO_8,3,5,56,103,2169697648
4519,7,Jits_ISO_8,0,1,38,60,2170389492
4519,7,Jits_ISO_8,1,5,63,98,2170467692
4519,7,Jits_ISO_8,2,5,56,103,2170477816
4519,7,Jits_ISO_8,3,5,80,127,2170528004
4519,7,Jits_ISO_8,0,5,63,98,2171168040
4519,7,Jits_ISO_8,1,5,80,127,2171187676
4519,7,Jits_ISO_8,2,5,56,103,2171197800
4519,7,Jits_ISO_8,3,1,38,56,2171264912
4519,7,Jits_ISO_8,0,1,38,72,2171916840
4519,7,Jits_ISO_8,1,5,63,98,2171967808
4519,7,Jits_ISO_8,2,5,80,127,2171971096
4519,7,Jits_ISO_8,3,5,56,103,2172007920
4519,7,Jits_ISO_8,0,1,38,50,2172702652
4519,7,Jits_ISO_8,1,5,63,98,2172838308
4519,7,Jits_ISO_8,2,5,80,127,2172867912
4519,7,Jits_ISO_8,3,5,56,103,2172878108
4519,7,Jits_ISO_8,0,5,56,103,2173587844
4519,7,Jits_ISO_8,1,1,38,57,2173602128
4519,7,Jits_ISO_8,2,5,80,127,2173617812
4519,7,Jits_ISO_8,3,5,63,98,2173648164
4519,7,Jits_ISO_8,0,1,38,71,2174394336
4519,7,Jits_ISO_8,1,5,63,98,2174487884
4519,7,Jits_ISO_8,2,5,56,103,2174527956
4519,7,Jits_ISO_8,3,5,80,127,2174531096
4519,7,Jits_ISO_8,0,5,80,127,2175188548
4519,7,Jits_ISO_8,1,1,38,65,2175237524
4519,7,Jits_ISO_8,2,5,56,103,2175268340
4519,7,Jits_ISO_8,3,5,63,98,2175318420
4519,7,Jits_ISO_8,0,5,80,127,2175967672
4519,7,Jits_ISO_8,1,5,56,103,2175987984
4519,7,Jits_ISO_8,2,1,38,56,2176000172
4519,7,Jits_ISO_8,3,5,63,98,2176078112
4519,7,Jits_ISO_8,0,5,80,127,2176808524
4519,7,Jits_ISO_8,1,1,38,61,2176813364
4519,7,Jits_ISO_8,2,5,63,98,2176848456
4519,7,Jits_ISO_8,3,5,56,103,2176888196
4519,7,Jits_ISO_8,0,5,63,98,2177578500
4519,7,Jits_ISO_8,1,1,38,57,2177626980
4519,7,Jits_ISO_8,2,5,80,127,2177637716
4519,7,Jits_ISO_8,3,5,56,103,2177667616
4519,7,Jits_ISO_8,0,5,56,103,2178377988
4519,7,Jits_ISO_8,1,1,38,62,2178392592
4519,7,Jits_ISO_8,2,5,80,127,2178407756
4519,7,Jits_ISO_8,3,5,63,98,2178497948
4519,7,Jits_ISO_8,0,1,38,62,2179136320
4519,7,Jits_ISO_8,1,5,56,103,2179188140
4519,7,Jits_ISO_8,2,5,80,127,2179297672
4519,7,Jits_ISO_8,3,5,63,98,2179328616
4519,7,Jits_ISO_8,0,5,56,103,2180038060
4519,7,Jits_ISO_8,1,1,38,56,2180061108
4519,7,Jits_ISO_8,2,5,63,98,2180098448
4519,7,Jits_ISO_8,3,5,80,127,2180127972
4519,7,Jits_ISO_8,0,5,56,103,2180808192
4519,7,Jits_ISO_8,1,1,38,64,2180856424
4519,7,Jits_ISO_8,2,5,63,98,2180877724
4519,7,Jits_ISO_8,3,5,80,127,2180898328
4519,7,Jits_ISO_8,0,5,80,127,2181577948
4519,7,Jits_ISO_8,1,5,63,98,2181597512
4519,7,Jits_ISO_8,2,1,38,75,2181627908
4519,7,Jits_ISO_8,3,5,56,103,2181647856
4519,7,Jits_ISO_8,0,9999,9999,9999,2086845496
4519,7,Jits_ISO_8,1,9999,9999,9999,2087645252
4519,7,Jits_ISO_8,2,9999,9999,9999,2088446008
4519,7,Jits_ISO_8,3,9999,9999,9999,2089245792
4519,7,Jits_ISO_8,4,9999,9999,9999,2090045512
4519,7,Jits_ISO_8,5,9999,9999,9999,2090845248
4519,7,Jits_ISO_8,6,9999,9999,9999,2091646076
4519,7,Jits_ISO_8,7,9999,9999,9999,2092445804
4519,7,Jits_ISO_8,8,9999,9999,9999,2093245532
4519,7,Jits_ISO_8,9,9999,9999,9999,2094045304
4519,7,Jits_ISO_8,10,9999,9999,9999,2094846004
4519,7,Jits_ISO_8,11,9999,9999,9999,2095645792
4519,7,Jits_ISO_8,12,9999,9999,9999,2096445520
4519,7,Jits_ISO_8,13,9999,9999,9999,2097245268
4519,7,Jits_ISO_8,14,9999,9999,9999,2098046012
4519,7,Jits_ISO_8,15,9999,9999,9999,2098845784
4519,7,Jits_ISO_8,16,9999,9999,9999,2099645552
4519,7,Jits_ISO_8,17,9999,9999,9999,2100445280
4519,7,Jits_ISO_8,18,9999,9999,9999,2101246040
4519,7,Jits_ISO_8,19,9999,9999,9999,2102045748
4519,7,Jits_ISO_8,20,9999,9999,9999,2102845528
4519,7,Jits_ISO_8,21,9999,9999,9999,2103645260
4519,7,Jits_ISO_8,22,9999,9999,9999,2104446020
4519,7,Jits_ISO_8,23,9999,9999,9999,2105245800
4519,7,Jits_ISO_8,24,9999,9999,9999,2106045508
4519,7,Jits_ISO_8,25,9999,9999,9999,2106845288
4519,7,Jits_ISO_8,26,9999,9999,9999,2107646040
4519,7,Jits_ISO_8,27,9999,9999,9999,2108445752
4519,7,Jits_ISO_8,28,9999,9999,9999,2109245532
4519,7,Jits_ISO_8,29,9999,9999,9999,2110045292
4519,7,Jits_ISO_8,30,9999,9999,9999,2110846044
4519,7,Jits_ISO_8,31,9999,9999,9999,2111645752
4519,7,Jits_ISO_8,32,9999,9999,9999,2112445532
4519,7,Jits_ISO_8,33,9999,9999,9999,2113245248
4519,7,Jits_ISO_8,34,9999,9999,9999,2114046016
4519,7,Jits_ISO_8,35,9999,9999,9999,2114845808
4519,7,Jits_ISO_8,36,9999,9999,9999,2115645524
4519,7,Jits_ISO_8,37,9999,9999,9999,2116445256
4519,7,Jits_ISO_8,38,9999,9999,9999,2117246008
4519,7,Jits_ISO_8,39,9999,9999,9999,2118045808
4519,7,Jits_ISO_8,40,9999,9999,9999,2118845520
4519,7,Jits_ISO_8,41,9999,9999,9999,2119645304
4519,7,Jits_ISO_8,42,9999,9999,9999,2120446052
4519,7,Jits_ISO_8,43,9999,9999,9999,2121245768
4519,7,Jits_ISO_8,44,9999,9999,9999,2122045532
4519,7,Jits_ISO_8,45,9999,9999,9999,2122845268
4519,7,Jits_ISO_8,46,9999,9999,9999,2123646028
4519,7,Jits_ISO_8,47,9999,9999,9999,2124445804
4519,7,Jits_ISO_8,48,9999,9999,9999,2125245528
4519,7,Jits_ISO_8,49,9999,9999,9999,2126045308
4519,7,Jits_ISO_8,50,9999,9999,9999,2126846056
4519,7,Jits_ISO_8,51,9999,9999,9999,2127645764
4519,7,Jits_ISO_8,52,9999,9999,9999,2128445552
4519,7,Jits_ISO_8,53,9999,9999,9999,2129245292
4519,7,Jits_ISO_8,54,9999,9999,9999,2130046044
4519,7,Jits_ISO_8,55,9999,9999,9999,2130845752
4519,7,Jits_ISO_8,56,9999,9999,9999,2131645532
4519,7,Jits_ISO_8,57,9999,9999,9999,2132445256
4519,7,Jits_ISO_8,58,9999,9999,9999,2133246024
4519,7,Jits_ISO_8,59,9999,9999,9999,2134045808
4519,7,Jits_ISO_8,60,9999,9999,9999,2134845512
4519,7,Jits_ISO_8,61,9999,9999,9999,2135645252
4519,7,Jits_ISO_8,62,9999,9999,9999,2136446020
4519,7,Jits_ISO_8,63,9999,9999,9999,2137245796
4519,7,Jits_ISO_8,64,9999,9999,9999,2138045516
4519,7,Jits_ISO_8,65,9999,9999,9999,2138845304
4519,7,Jits_ISO_8,66,9999,9999,9999,2139646064
4519,7,Jits_ISO_8,67,9999,9999,9999,2140445780
4519,7,Jits_ISO_8,68,9999,9999,9999,2141245552
4519,7,Jits_ISO_8,69,9999,9999,9999,2142045304
4519,7,Jits_ISO_8,70,9999,9999,9999,2142846068
4519,7,Jits_ISO_8,71,9999,9999,9999,2143645784
4519,7,Jits_ISO_8,72,9999,9999,9999,2144445488
4519,7,Jits_ISO_8,73,9999,9999,9999,2145245280
4519,7,Jits_ISO_8,74,9999,9999,9999,2146046040
4519,7,Jits_ISO_8,75,9999,9999,9999,2146845752
4519,7,Jits_ISO_8,76,9999,9999,9999,2147645536
4519,7,Jits_ISO_8,77,9999,9999,9999,2148445284
4519,7,Jits_ISO_8,78,9999,9999,9999,2149246012
4519,7,Jits_ISO_8,79,9999,9999,9999,2150045752
4519,7,Jits_ISO_8,80,9999,9999,9999,2150845540
4519,7,Jits_ISO_8,81,9999,9999,9999,2151645244
4519,7,Jits_ISO_8,82,9999,9999,9999,2152446072
4519,7,Jits_ISO_8,83,9999,9999,9999,2153245780
4519,7,Jits_ISO_8,84,9999,9999,9999,2154045496
4519,7,Jits_ISO_8,85,9999,9999,9999,2154845304
4519,7,Jits_ISO_8,86,9999,9999,9999,2155646060
4519,7,Jits_ISO_8,87,9999,9999,9999,2156445768
4519,7,Jits_ISO_8,88,9999,9999,9999,2157245548
4519,7,Jits_ISO_8,89,9999,9999,9999,2158045264
4519,7,Jits_ISO_8,90,9999,9999,9999,2158846028
4519,7,Jits_ISO_8,91,9999,9999,9999,2159645812
4519,7,Jits_ISO_8,92,9999,9999,9999,2160445540
4519,7,Jits_ISO_8,93,9999,9999,9999,2161245272
4519,7,Jits_ISO_8,94,9999,9999,9999,2162046028
4519,7,Jits_ISO_8,95,9999,9999,9999,2162845808
4519,7,Jits_ISO_8,96,9999,9999,9999,2163645516
4519,7,Jits_ISO_8,97,9999,9999,9999,2164445300
4519,7,Jits_ISO_8,98,9999,9999,9999,2165246072
4519,7,Jits_ISO_8,99,9999,9999,9999,2166045780
4519,7,Jits_ISO_8,100,9999,9999,9999,2166845556
4519,7,Jits_ISO_8,101,9999,9999,9999,2167645288
4519,7,Jits_ISO_8,102,9999,9999,9999,2168446040
4519,7,Jits_ISO_8,103,9999,9999,9999,2169245748
4519,7,Jits_ISO_8,104,9999,9999,9999,2170045532
4519,7,Jits_ISO_8,105,9999,9999,9999,2170845252
4519,7,Jits_ISO_8,106,9999,9999,9999,2171646072
4519,7,Jits_ISO_8,107,9999,9999,9999,2172445764
4519,7,Jits_ISO_8,108,9999,9999,9999,2173245548
4519,7,Jits_ISO_8,109,9999,9999,9999,2174045280
4519,7,Jits_ISO_8,110,9999,9999,9999,2174846052
4519,7,Jits_ISO_8,111,9999,9999,9999,2175645764
4519,7,Jits_ISO_8,112,9999,9999,9999,2176445560
4519,7,Jits_ISO_8,113,9999,9999,9999,2177245284
4519,7,Jits_ISO_8,114,9999,9999,9999,2178046056
4519,7,Jits_ISO_8,115,9999,9999,9999,2178845760
4519,7,Jits_ISO_8,116,9999,9999,9999,2179645492
4519,7,Jits_ISO_8,117,9999,9999,9999,2180445304
4519,7,Jits_ISO_8,118,9999,9999,9999,2181246004
4519,7,Jits_ISO_8,119,9999,9999,9999,2182045796
4521,5,ISIP_5,0,5,42,127,2330609096
4521,5,ISIP_5,1,5,42,127,2331108592
4521,5,ISIP_5,2,1,38,65,2331608604
4521,5,ISIP_5,3,5,42,127,2331611144
4521,5,ISIP_5,4,5,42,127,2332109196
4521,5,ISIP_5,5,1,38,71,2332137896
4521,5,ISIP_5,6,1,38,74,2332605332
4521,5,ISIP_5,7,5,42,127,2332609032
4521,5,ISIP_5,8,1,38,66,2333071968
4521,5,ISIP_5,9,5,42,127,2333108580
4521,5,ISIP_5,10,5,42,127,2333609252
4521,5,ISIP_5,11,1,38,76,2333617456
4521,5,ISIP_5,12,5,42,127,2334109096
4521,5,ISIP_5,13,1,38,73,2334124028
4521,5,ISIP_5,14,1,38,71,2334595216
4521,5,ISIP_5,15,5,42,127,2334608932
4521,5,ISIP_5,16,1,38,86,2335103360
4521,5,ISIP_5,17,5,42,127,2335108404
4521,5,ISIP_5,18,1,38,74,2335603500
4521,5,ISIP_5,19,5,42,127,2335609148
4521,5,ISIP_5,20,1,38,77,2336088912
4521,5,ISIP_5,21,5,42,127,2336109068
4521,5,ISIP_5,22,1,38,74,2336591300
4521,5,ISIP_5,23,5,42,127,2336608760
4521,5,ISIP_5,24,1,38,70,2337074736
4521,5,ISIP_5,25,5,42,127,2337109352
4521,5,ISIP_5,26,5,42,127,2337609028
4521,5,ISIP_5,27,1,38,77,2337618900
4521,5,ISIP_5,28,1,38,75,2338095596
4521,5,ISIP_5,29,5,42,127,2338109016
4521,5,ISIP_5,30,5,42,127,2338608344
4521,5,ISIP_5,31,1,38,68,2338618268
4521,5,ISIP_5,32,5,42,127,2339109160
4521,5,ISIP_5,33,1,38,65,2339112132
4521,5,ISIP_5,34,1,38,66,2339606492
4521,5,ISIP_5,35,5,42,127,2339609220
4521,5,ISIP_5,36,5,42,127,2340108700
4521,5,ISIP_5,37,1,38,67,2340112868
4521,5,ISIP_5,38,1,48,16,2340128552
4521,5,ISIP_5,39,1,38,68,2340602768
4521,5,ISIP_5,40,5,42,127,2340609312
4521,5,ISIP_5,41,5,42,127,2341109240
4521,5,ISIP_5,42,1,38,55,2341117148
4521,5,ISIP_5,43,5,42,127,2341608860
4521,5,ISIP_5,44,1,38,72,2341627912
4521,5,ISIP_5,45,5,42,127,2342108700
4521,5,ISIP_5,46,1,38,71,2342109668
4521,5,ISIP_5,47,1,38,67,2342607100
4521,5,ISIP_5,48,5,42,127,2342609964
4521,5,ISIP_5,49,1,38,68,2343096308
4521,5,ISIP_5,50,5,42,127,2343109060
4521,5,ISIP_5,51,1,48,17,2343112104
4521,5,ISIP_5,52,5,42,127,2343608652
4521,5,ISIP_5,53,1,38,69,2343609992
4521,5,ISIP_5,54,5,42,127,2344109616
4521,5,ISIP_5,55,1,38,67,2344125828
4521,5,ISIP_5,56,1,38,71,2344600824
4521,5,ISIP_5,57,5,42,127,2344609084
4521,5,ISIP_5,58,5,42,127,2345108860
4521,5,ISIP_5,59,1,38,73,2345115796
4521,5,ISIP_5,60,1,38,67,2345595796
4521,5,ISIP_5,61,5,42,127,2345608772
4521,5,ISIP_5,62,1,38,71,2346108920
4521,5,ISIP_5,63,5,42,127,2346111608
4521,5,ISIP_5,64,5,42,127,2346608992
4521,5,ISIP_5,65,1,38,69,2346621088
4521,5,ISIP_5,66,5,42,127,2347108616
4521,5,ISIP_5,67,1,38,73,2347116968
4521,5,ISIP_5,68,5,42,127,2347608608
4521,5,ISIP_5,69,1,38,73,2347619508
4521,5,ISIP_5,70,1,38,65,2348105920
4521,5,ISIP_5,71,5,42,127,2348109120
4521,5,ISIP_5,72,1,38,74,2348607588
4521,5,ISIP_5,73,5,42,127,2348610132
4521,5,ISIP_5,74,5,42,127,2349108712
4521,5,ISIP_5,75,1,38,71,2349138780
4521,5,ISIP_5,76,5,42,127,2349609604
4521,5,ISIP_5,77,1,38,71,2349620876
4521,5,ISIP_5,78,5,42,127,2350109000
4521,5,ISIP_5,79,1,38,66,2350121100
4521,5,ISIP_5,80,1,48,16,2350136340
4521,5,ISIP_5,81,1,38,73,2350596864
4521,5,ISIP_5,82,1,48,18,2350612268
4521,5,ISIP_5,83,1,38,68,2351107220
4521,5,ISIP_5,84,1,38,69,2351614316
4521,5,ISIP_5,85,1,48,17,2351630076
4521,5,ISIP_5,86,1,38,69,2352136400
4521,5,ISIP_5,87,1,38,66,2352638628
4521,5,ISIP_5,88,1,38,67,2353113264
4521,5,ISIP_5,89,1,48,16,2353128952
4521,5,ISIP_5,90,1,38,70,2353613056
4521,5,ISIP_5,91,1,38,65,2354088868
4521,5,ISIP_5,92,1,48,18,2354104108
4521,5,ISIP_5,93,1,38,69,2354594496
4521,5,ISIP_5,94,1,48,19,2354609676
4521,5,ISIP_5,95,1,38,77,2355091220
4521,5,ISIP_5,96,1,38,68,2355585604
4521,5,ISIP_5,97,1,48,17,2355601068
4521,5,ISIP_5,98,1,38,67,2356080608
4521,5,ISIP_5,99,1,48,17,2356096076
4521,5,ISIP_5,100,1,38,72,2356586688
4521,5,ISIP_5,101,1,38,71,2357103056
4521,5,ISIP_5,102,1,38,68,2357594964
4521,5,ISIP_5,103,1,48,17,2357610144
4521,5,ISIP_5,104,1,38,73,2358105460
4521,5,ISIP_5,105,1,38,73,2358610400
4521,5,ISIP_5,106,1,38,65,2359110960
4521,5,ISIP_5,107,1,38,63,2359603384
4521,5,ISIP_5,108,1,38,64,2360114756
4521,5,ISIP_5,109,1,38,71,2360583316
4521,5,ISIP_5,110,1,38,72,2361091832
4521,5,ISIP_5,111,1,38,70,2361586136
4521,5,ISIP_5,112,1,38,71,2362063832
4521,5,ISIP_5,113,1,38,75,2362559564
4521,5,ISIP_5,114,1,38,74,2363040624
4521,5,ISIP_5,115,1,38,69,2363537324
4521,5,ISIP_5,116,1,48,18,2363552940
4521,5,ISIP_5,117,1,38,65,2364001136
4521,5,ISIP_5,118,1,38,72,2364493352
4521,5,ISIP_5,119,1,48,18,2364508816
4521,5,ISIP_5,120,1,38,69,2365012740
4521,5,ISIP_5,121,1,38,72,2365505000
4521,5,ISIP_5,122,1,38,70,2365987188
4521,5,ISIP_5,123,1,38,68,2366476180
4521,5,ISIP_5,124,1,38,66,2366998540
4521,5,ISIP_5,125,1,38,63,2367473616
4521,5,ISIP_5,126,1,38,65,2367964708
4521,5,ISIP_5,127,1,38,71,2368454004
4521,5,ISIP_5,128,1,38,73,2368953472
4521,5,ISIP_5,129,1,38,75,2369463252
4521,5,ISIP_5,130,1,38,61,2369945144
4521,5,ISIP_5,131,1,48,16,2369960460
4521,5,ISIP_5,132,1,38,73,2370438652
4521,5,ISIP_5,133,1,38,63,2370950164
4521,5,ISIP_5,134,1,48,14,2370965552
4521,5,ISIP_5,135,1,38,54,2371432680
4521,5,ISIP_5,136,1,48,16,2371448364
4521,5,ISIP_5,137,1,38,79,2371923344
4521,5,ISIP_5,138,1,38,73,2372424280
4521,5,ISIP_5,139,1,38,69,2372920080
4521,5,ISIP_5,140,1,48,17,2372935244
4521,5,ISIP_5,141,1,38,74,2373415308
4521,5,ISIP_5,142,1,38,68,2373900492
4521,5,ISIP_5,143,1,38,71,2374376696
4521,5,ISIP_5,144,1,38,66,2374871820
4521,5,ISIP_5,145,1,38,74,2375352888
4521,5,ISIP_5,146,1,38,29,2375412856
4521,5,ISIP_5,147,1,38,69,2375858764
4521,5,ISIP_5,148,1,38,62,2376352848
4521,5,ISIP_5,149,1,38,62,2376830916
4521,5,ISIP_5,150,1,38,60,2377316700
4521,5,ISIP_5,151,1,38,73,2377791156
4521,5,ISIP_5,152,1,38,60,2378294588
4521,5,ISIP_5,153,1,38,70,2378767124
4521,5,ISIP_5,154,1,38,60,2379254472
4521,5,ISIP_5,155,1,48,17,2379269640
4521,5,ISIP_5,156,1,38,73,2379714248
4521,5,ISIP_5,157,1,38,47,2380214016
4521,5,ISIP_5,158,1,48,17,2380229708
4521,5,ISIP_5,159,1,38,73,2380675140
4521,5,ISIP_5,160,1,38,75,2381152088
4521,5,ISIP_5,161,1,38,65,2381639940
4521,5,ISIP_5,162,1,48,17,2381655888
4521,5,ISIP_5,163,1,38,69,2382107504
4521,5,ISIP_5,164,1,38,72,2382580856
4521,5,ISIP_5,165,1,38,31,2382646372
4521,5,ISIP_5,166,1,38,73,2383074088
4521,5,ISIP_5,167,1,38,66,2383543564
4521,5,ISIP_5,168,1,38,78,2384038468
4521,5,ISIP_5,169,1,38,37,2384101200
4521,5,ISIP_5,170,1,38,55,2384514576
4521,5,ISIP_5,171,1,38,77,2384997360
4521,5,ISIP_5,172,1,38,18,2385091960
4521,5,ISIP_5,173,1,38,75,2385487308
4521,5,ISIP_5,174,1,38,73,2385963340
4521,5,ISIP_5,175,1,38,21,2386047636
4521,5,ISIP_5,176,1,38,70,2386439668
4521,5,ISIP_5,177,1,48,16,2386455352
4521,5,ISIP_5,178,1,38,31,2386509140
4521,5,ISIP_5,179,1,38,67,2386937492
4521,5,ISIP_5,180,1,48,17,2386952732
4521,5,ISIP_5,181,1,38,71,2387458532
4521,5,ISIP_5,182,1,38,69,2387940864
4521,5,ISIP_5,183,1,38,61,2388436292
4521,5,ISIP_5,184,1,38,75,2388910776
4521,5,ISIP_5,185,1,38,65,2389395432
4521,5,ISIP_5,186,1,38,31,2389458764
4521,5,ISIP_5,187,1,38,58,2389879848
4521,5,ISIP_5,188,1,38,65,2390391500
4521,5,ISIP_5,189,1,48,16,2390407192
4521,5,ISIP_5,190,1,38,65,2390913512
4521,5,ISIP_5,191,1,48,16,2390928676
4521,5,ISIP_5,192,1,38,70,2391422356
4521,5,ISIP_5,193,1,38,65,2391938800
4521,5,ISIP_5,194,1,48,16,2391953964
4521,5,ISIP_5,195,1,38,24,2392010864
4521,5,ISIP_5,196,1,38,73,2392433556
4521,5,ISIP_5,197,1,48,18,2392449252
4521,5,ISIP_5,198,1,38,65,2392913532
4521,5,ISIP_5,199,1,38,62,2393394944
4521,5,ISIP_5,200,1,38,34,2393462640
4521,5,ISIP_5,201,1,38,69,2393856768
4521,5,ISIP_5,202,1,38,73,2394362144
4521,5,ISIP_5,203,1,38,72,2394847696
4521,5,ISIP_5,204,1,38,69,2395337964
4521,5,ISIP_5,205,1,38,65,2395822100
4521,5,ISIP_5,206,1,38,54,2396308396
4521,5,ISIP_5,207,1,38,68,2396766428
4521,5,ISIP_5,208,1,38,26,2396845096
4521,5,ISIP_5,209,1,38,70,2397278060
4521,5,ISIP_5,210,1,48,16,2397293228
4521,5,ISIP_5,211,1,38,67,2397755544
4521,5,ISIP_5,212,1,38,69,2398264056
4521,5,ISIP_5,213,1,38,66,2398746096
4521,5,ISIP_5,214,1,38,66,2399262168
4521,5,ISIP_5,215,1,38,67,2399759988
4521,5,ISIP_5,216,1,48,17,2399775152
4521,5,ISIP_5,217,1,38,63,2400260976
4521,5,ISIP_5,218,1,48,16,2400276292
4521,5,ISIP_5,219,1,38,62,2400784708
4521,5,ISIP_5,220,1,48,16,2400800096
4521,5,ISIP_5,221,1,38,70,2401286224
4521,5,ISIP_5,222,1,38,70,2401786960
4521,5,ISIP_5,223,1,38,70,2402282980
4521,5,ISIP_5,224,1,38,70,2402773396
4521,5,ISIP_5,225,1,38,67,2403276748
4521,5,ISIP_5,226,1,38,64,2403750856
4521,5,ISIP_5,227,1,38,74,2404250852
4521,5,ISIP_5,228,1,38,68,2404739324
4521,5,ISIP_5,229,1,48,16,2404754784
4521,5,ISIP_5,230,1,38,70,2405209420
4521,5,ISIP_5,231,1,38,71,2405708360
4521,5,ISIP_5,232,1,38,68,2406199800
4521,5,ISIP_5,233,1,38,75,2406689540
4521,5,ISIP_5,234,1,38,68,2407188932
4521,5,ISIP_5,235,1,38,67,2407687872
4521,5,ISIP_5,236,1,38,80,2408175296
4521,5,ISIP_5,237,1,38,71,2408665036
4521,5,ISIP_5,238,1,38,67,2409147604
4521,5,ISIP_5,239,1,38,66,2409619692
4521,5,ISIP_5,240,1,38,65,2410117884
4521,5,ISIP_5,241,1,38,71,2410598716
4521,5,ISIP_5,0,9999,9999,9999,2330606660
4521,5,ISIP_5,1,9999,9999,9999,2331106376
4521,5,ISIP_5,2,9999,9999,9999,2331606092
4521,5,ISIP_5,3,9999,9999,9999,2332106836
4521,5,ISIP_5,4,9999,9999,9999,2332606524
4521,5,ISIP_5,5,9999,9999,9999,2333106292
4521,5,ISIP_5,6,9999,9999,9999,2333606964
4521,5,ISIP_5,7,9999,9999,9999,2334106732
4521,5,ISIP_5,8,9999,9999,9999,2334606424
4521,5,ISIP_5,9,9999,9999,9999,2335106120
4521,5,ISIP_5,10,9999,9999,9999,2335606860
4521,5,ISIP_5,11,9999,9999,9999,2336106556
4521,5,ISIP_5,12,9999,9999,9999,2336606324
4521,5,ISIP_5,13,9999,9999,9999,2337107064
4521,5,ISIP_5,14,9999,9999,9999,2337606740
4521,5,ISIP_5,15,9999,9999,9999,2338106432
4521,5,ISIP_5,16,9999,9999,9999,2338606132
4521,5,ISIP_5,17,9999,9999,9999,2339106872
4521,5,ISIP_5,18,9999,9999,9999,2339606636
4521,5,ISIP_5,19,9999,9999,9999,2340106340
4521,5,ISIP_5,20,9999,9999,9999,2340607028
4521,5,ISIP_5,21,9999,9999,9999,2341106804
4521,5,ISIP_5,22,9999,9999,9999,2341606496
4521,5,ISIP_5,23,9999,9999,9999,2342106192
4521,5,ISIP_5,24,9999,9999,9999,2342606972
4521,5,ISIP_5,25,9999,9999,9999,2343106624
4521,5,ISIP_5,26,9999,9999,9999,2343606364
4521,5,ISIP_5,27,9999,9999,9999,2344107108
4521,5,ISIP_5,28,9999,9999,9999,2344606796
4521,5,ISIP_5,29,9999,9999,9999,2345106496
4521,5,ISIP_5,30,9999,9999,9999,2345606260
4521,5,ISIP_5,31,9999,9999,9999,2346106936
4521,5,ISIP_5,32,9999,9999,9999,2346606704
4521,5,ISIP_5,33,9999,9999,9999,2347106400
4521,5,ISIP_5,34,9999,9999,9999,2347606096
4521,5,ISIP_5,35,9999,9999,9999,2348106832
4521,5,ISIP_5,36,9999,9999,9999,2348606580
4521,5,ISIP_5,37,9999,9999,9999,2349106276
4521,5,ISIP_5,38,9999,9999,9999,2349607016
4521,5,ISIP_5,39,9999,9999,9999,2350106712
4521,5,ISIP_5,40,9999,9999,9999,2350606432
4521,5,ISIP_5,41,9999,9999,9999,2351106156
4521,5,ISIP_5,42,9999,9999,9999,2351606892
4521,5,ISIP_5,43,9999,9999,9999,2352106608
4521,5,ISIP_5,44,9999,9999,9999,2352606300
4521,5,ISIP_5,45,9999,9999,9999,2353107036
4521,5,ISIP_5,46,9999,9999,9999,2353606752
4521,5,ISIP_5,47,9999,9999,9999,2354106420
4521,5,ISIP_5,48,9999,9999,9999,2354606160
4521,5,ISIP_5,49,9999,9999,9999,2355106924
4521,5,ISIP_5,50,9999,9999,9999,2355606592
4521,5,ISIP_5,51,9999,9999,9999,2356106312
4521,5,ISIP_5,52,9999,9999,9999,2356607096
4521,5,ISIP_5,53,9999,9999,9999,2357106788
4521,5,ISIP_5,54,9999,9999,9999,2357606476
4521,5,ISIP_5,55,9999,9999,9999,2358106196
4521,5,ISIP_5,56,9999,9999,9999,2358606940
4521,5,ISIP_5,57,9999,9999,9999,2359106680
4521,5,ISIP_5,58,9999,9999,9999,2359606364
4521,5,ISIP_5,59,9999,9999,9999,2360107108
4521,5,ISIP_5,60,9999,9999,9999,2360606792
4521,5,ISIP_5,61,9999,9999,9999,2361106484
4521,5,ISIP_5,62,9999,9999,9999,2361606248
4521,5,ISIP_5,63,9999,9999,9999,2362106984
4521,5,ISIP_5,64,9999,9999,9999,2362606676
4521,5,ISIP_5,65,9999,9999,9999,2363106364
4521,5,ISIP_5,66,9999,9999,9999,2363606112
4521,5,ISIP_5,67,9999,9999,9999,2364106804
4521,5,ISIP_5,68,9999,9999,9999,2364606552
4521,5,ISIP_5,69,9999,9999,9999,2365106228
4521,5,ISIP_5,70,9999,9999,9999,2365607024
4521,5,ISIP_5,71,9999,9999,9999,2366106716
4521,5,ISIP_5,72,9999,9999,9999,2366606408
4521,5,ISIP_5,73,9999,9999,9999,2367106096
4521,5,ISIP_5,74,9999,9999,9999,2367606836
4521,5,ISIP_5,75,9999,9999,9999,2368106600
4521,5,ISIP_5,76,9999,9999,9999,2368606292
4521,5,ISIP_5,77,9999,9999,9999,2369107028
4521,5,ISIP_5,78,9999,9999,9999,2369606768
4521,5,ISIP_5,79,9999,9999,9999,2370106484
4521,5,ISIP_5,80,9999,9999,9999,2370606176
4521,5,ISIP_5,81,9999,9999,9999,2371106864
4521,5,ISIP_5,82,9999,9999,9999,2371606584
4521,5,ISIP_5,83,9999,9999,9999,2372106348
4521,5,ISIP_5,84,9999,9999,9999,2372607084
4521,5,ISIP_5,85,9999,9999,9999,2373106804
4521,5,ISIP_5,86,9999,9999,9999,2373606492
4521,5,ISIP_5,87,9999,9999,9999,2374106184
4521,5,ISIP_5,88,9999,9999,9999,2374606920
4521,5,ISIP_5,89,9999,9999,9999,2375106612
4521,5,ISIP_5,90,9999,9999,9999,2375606356
4521,5,ISIP_5,91,9999,9999,9999,2376107092
4521,5,ISIP_5,92,9999,9999,9999,2376606784
4521,5,ISIP_5,93,9999,9999,9999,2377106548
4521,5,ISIP_5,94,9999,9999,9999,2377606240
4521,5,ISIP_5,95,9999,9999,9999,2378106976
4521,5,ISIP_5,96,9999,9999,9999,2378606668
4521,5,ISIP_5,97,9999,9999,9999,2379106360
4521,5,ISIP_5,98,9999,9999,9999,2379606076
4521,5,ISIP_5,99,9999,9999,9999,2380106812
4521,5,ISIP_5,100,9999,9999,9999,2380606584
4521,5,ISIP_5,101,9999,9999,9999,2381106272
4521,5,ISIP_5,102,9999,9999,9999,2381607012
4521,5,ISIP_5,103,9999,9999,9999,2382106740
4521,5,ISIP_5,104,9999,9999,9999,2382606428
4521,5,ISIP_5,105,9999,9999,9999,2383106096
4521,5,ISIP_5,106,9999,9999,9999,2383606832
4521,5,ISIP_5,107,9999,9999,9999,2384106580
4521,5,ISIP_5,108,9999,9999,9999,2384606268
4521,5,ISIP_5,109,9999,9999,9999,2385107060
4521,5,ISIP_5,110,9999,9999,9999,2385606736
4521,5,ISIP_5,111,9999,9999,9999,2386106420
4521,5,ISIP_5,112,9999,9999,9999,2386606176
4521,5,ISIP_5,113,9999,9999,9999,2387106864
4521,5,ISIP_5,114,9999,9999,9999,2387606628
4521,5,ISIP_5,115,9999,9999,9999,2388106320
4521,5,ISIP_5,116,9999,9999,9999,2388607056
4521,5,ISIP_5,117,9999,9999,9999,2389106748
4521,5,ISIP_5,118,9999,9999,9999,2389606492
4521,5,ISIP_5,119,9999,9999,9999,2390106184
4521,5,ISIP_5,120,9999,9999,9999,2390606948
4521,5,ISIP_5,121,9999,9999,9999,2391106640
4521,5,ISIP_5,122,9999,9999,9999,2391606332
4521,5,ISIP_5,123,9999,9999,9999,2392107104
4521,5,ISIP_5,124,9999,9999,9999,2392606796
4521,5,ISIP_5,125,9999,9999,9999,2393106488
4521,5,ISIP_5,126,9999,9999,9999,2393606228
4521,5,ISIP_5,127,9999,9999,9999,2394106968
4521,5,ISIP_5,128,9999,9999,9999,2394606660
4521,5,ISIP_5,129,9999,9999,9999,2395106424
4521,5,ISIP_5,130,9999,9999,9999,2395606116
4521,5,ISIP_5,131,9999,9999,9999,2396106852
4521,5,ISIP_5,132,9999,9999,9999,2396606544
4521,5,ISIP_5,133,9999,9999,9999,2397106284
4521,5,ISIP_5,134,9999,9999,9999,2397606976
4521,5,ISIP_5,135,9999,9999,9999,2398106744
4521,5,ISIP_5,136,9999,9999,9999,2398606436
4521,5,ISIP_5,137,9999,9999,9999,2399106124
4521,5,ISIP_5,138,9999,9999,9999,2399606860
4521,5,ISIP_5,139,9999,9999,9999,2400106580
4521,5,ISIP_5,140,9999,9999,9999,2400606296
4521,5,ISIP_5,141,9999,9999,9999,2401107064
4521,5,ISIP_5,142,9999,9999,9999,2401606728
4521,5,ISIP_5,143,9999,9999,9999,2402106416
4521,5,ISIP_5,144,9999,9999,9999,2402606184
4521,5,ISIP_5,145,9999,9999,9999,2403106920
4521,5,ISIP_5,146,9999,9999,9999,2403606608
4521,5,ISIP_5,147,9999,9999,9999,2404106300
4521,5,ISIP_5,148,9999,9999,9999,2404607036
4521,5,ISIP_5,149,9999,9999,9999,2405106756
4521,5,ISIP_5,150,9999,9999,9999,2405606520
4521,5,ISIP_5,151,9999,9999,9999,2406106212
4521,5,ISIP_5,152,9999,9999,9999,2406606948
4521,5,ISIP_5,153,9999,9999,9999,2407106636
4521,5,ISIP_5,154,9999,9999,9999,2407606328
4521,5,ISIP_5,155,9999,9999,9999,2408107068
4521,5,ISIP_5,156,9999,9999,9999,2408606828
4521,5,ISIP_5,157,9999,9999,9999,2409106520
4521,5,ISIP_5,158,9999,9999,9999,2409606212
4521,5,ISIP_5,159,9999,9999,9999,2410106948
4522,3,ISIP_8,0,5,42,127,2432934320
4522,3,ISIP_8,1,1,38,50,2433491292
4522,3,ISIP_8,2,5,42,127,2433734052
4522,3,ISIP_8,3,1,38,56,2434423368
4522,3,ISIP_8,4,5,42,127,2434533712
4522,3,ISIP_8,5,1,38,57,2435285108
4522,3,ISIP_8,6,1,48,13,2435300868
4522,3,ISIP_8,7,5,42,127,2435333440
4522,3,ISIP_8,8,1,38,67,2436134128
4522,3,ISIP_8,9,5,42,127,2436136808
4522,3,ISIP_8,10,1,38,62,2436908312
4522,3,ISIP_8,11,5,42,127,2436934100
4522,3,ISIP_8,12,1,38,61,2437704856
4522,3,ISIP_8,13,5,42,127,2437733684
4522,3,ISIP_8,14,1,38,55,2438521868
4522,3,ISIP_8,15,5,42,127,2438533344
4522,3,ISIP_8,16,1,48,13,2438537360
4522,3,ISIP_8,17,1,38,65,2439304808
4522,3,ISIP_8,18,1,48,16,2439319972
4522,3,ISIP_8,19,5,42,127,2439334144
4522,3,ISIP_8,20,5,42,127,2440134080
4522,3,ISIP_8,21,1,38,46,2440429380
4522,3,ISIP_8,22,5,42,127,2440933884
4522,3,ISIP_8,23,1,38,78,2440968720
4522,3,ISIP_8,24,1,38,66,2441680176
4522,3,ISIP_8,25,1,48,16,2441695788
4522,3,ISIP_8,26,5,42,127,2441733444
4522,3,ISIP_8,27,1,38,63,2442451808
4522,3,ISIP_8,28,5,42,127,2442534196
4522,3,ISIP_8,29,1,38,44,2443244364
4522,3,ISIP_8,30,5,42,127,2443334104
4522,3,ISIP_8,31,1,38,69,2444036620
4522,3,ISIP_8,32,5,42,127,2444133824
4522,3,ISIP_8,33,1,38,71,2444791396
4522,3,ISIP_8,34,5,42,127,2444933332
4522,3,ISIP_8,35,1,38,79,2445630396
4522,3,ISIP_8,36,5,42,127,2445734112
4522,3,ISIP_8,37,1,38,74,2446471744
4522,3,ISIP_8,38,5,42,127,2446533936
4522,3,ISIP_8,39,1,38,70,2447267288
4522,3,ISIP_8,40,5,42,127,2447333816
4522,3,ISIP_8,41,1,38,71,2448061864
4522,3,ISIP_8,42,5,42,127,2448133476
4522,3,ISIP_8,43,1,38,72,2448858456
4522,3,ISIP_8,44,5,42,127,2448934180
4522,3,ISIP_8,45,1,38,73,2449658784
4522,3,ISIP_8,46,5,42,127,2449733940
4522,3,ISIP_8,47,1,38,78,2450456048
4522,3,ISIP_8,48,5,42,127,2450533672
4522,3,ISIP_8,49,1,38,78,2451288272
4522,3,ISIP_8,50,5,42,127,2451333556
4522,3,ISIP_8,51,1,38,68,2452057032
4522,3,ISIP_8,52,5,42,127,2452134112
4522,3,ISIP_8,53,1,38,70,2452855792
4522,3,ISIP_8,54,5,42,127,2452933920
4522,3,ISIP_8,55,1,38,68,2453636608
4522,3,ISIP_8,56,5,42,127,2453734760
4522,3,ISIP_8,57,1,38,73,2454443224
4522,3,ISIP_8,58,5,42,127,2454533460
4522,3,ISIP_8,59,1,38,72,2455266592
4522,3,ISIP_8,60,5,42,127,2455334168
4522,3,ISIP_8,61,1,38,76,2456091600
4522,3,ISIP_8,62,5,42,127,2456133924
4522,3,ISIP_8,63,1,38,74,2456892084
4522,3,ISIP_8,64,1,38,70,2457707624
4522,3,ISIP_8,65,1,38,26,2457772388
4522,3,ISIP_8,66,1,38,67,2458494760
4522,3,ISIP_8,67,1,48,17,2458510148
4522,3,ISIP_8,68,1,38,67,2459284196
4522,3,ISIP_8,69,1,38,71,2460071804
4522,3,ISIP_8,70,1,38,78,2460849020
4522,3,ISIP_8,71,1,38,74,2461601476
4522,3,ISIP_8,72,1,38,59,2462428132
4522,3,ISIP_8,73,1,38,67,2463192340
4522,3,ISIP_8,74,1,38,69,2463962520
4522,3,ISIP_8,75,1,38,67,2464760676
4522,3,ISIP_8,76,1,38,71,2465544548
4522,3,ISIP_8,77,1,38,58,2466355800
4522,3,ISIP_8,78,1,38,65,2467128824
4522,3,ISIP_8,79,1,38,68,2467914664
4522,3,ISIP_8,80,1,38,69,2468719404
4522,3,ISIP_8,81,1,38,64,2469488020
4522,3,ISIP_8,82,1,38,61,2470256860
4522,3,ISIP_8,83,1,38,63,2471031832
4522,3,ISIP_8,84,1,38,66,2471823484
4522,3,ISIP_8,85,1,38,67,2472620964
4522,3,ISIP_8,86,1,38,67,2473407008
4522,3,ISIP_8,87,1,38,67,2474200604
4522,3,ISIP_8,88,1,38,60,2474961732
4522,3,ISIP_8,89,1,38,67,2475773136
4522,3,ISIP_8,90,1,38,69,2476581092
4522,3,ISIP_8,91,1,38,68,2477379872
4522,3,ISIP_8,92,1,38,59,2478168236
4522,3,ISIP_8,93,1,38,67,2478992944
4522,3,ISIP_8,94,1,38,63,2479821244
4522,3,ISIP_8,95,1,38,66,2480653812
4522,3,ISIP_8,96,1,38,67,2481488788
4522,3,ISIP_8,97,1,38,68,2482319788
4522,3,ISIP_8,98,1,38,64,2483146296
4522,3,ISIP_8,99,1,38,65,2483967120
4522,3,ISIP_8,100,1,38,67,2484764600
4522,3,ISIP_8,101,1,38,73,2485569940
4522,3,ISIP_8,102,1,38,60,2486430180
4522,3,ISIP_8,103,1,38,65,2487279424
4522,3,ISIP_8,104,1,38,63,2488090224
4522,3,ISIP_8,105,1,38,64,2488945488
4522,3,ISIP_8,106,1,38,63,2489791220
4522,3,ISIP_8,107,1,38,60,2490653112
4522,3,ISIP_8,108,1,38,70,2491502680
4522,3,ISIP_8,109,1,38,61,2492385436
4522,3,ISIP_8,110,1,38,65,2493247316
4522,3,ISIP_8,111,1,38,69,2494113420
4522,3,ISIP_8,112,1,38,71,2494974632
4522,3,ISIP_8,113,1,38,65,2495803832
4522,3,ISIP_8,114,1,38,65,2496628712
4522,3,ISIP_8,115,1,38,56,2497450584
4522,3,ISIP_8,116,1,38,60,2498298036
4522,3,ISIP_8,117,1,38,63,2499138856
4522,3,ISIP_8,118,1,38,59,2499970968
4522,3,ISIP_8,119,1,38,64,2500853056
4522,3,ISIP_8,120,1,48,15,2500868816
4522,3,ISIP_8,121,1,38,58,2501662680
4522,3,ISIP_8,122,1,38,65,2502486520
4522,3,ISIP_8,123,1,38,60,2503254984
4522,3,ISIP_8,124,1,38,63,2504062420
4522,3,ISIP_8,125,1,38,62,2504930588
4522,3,ISIP_8,126,1,38,69,2505753968
4522,3,ISIP_8,127,1,38,64,2506517400
4522,3,ISIP_8,128,1,38,66,2507339756
4522,3,ISIP_8,129,1,38,59,2508136420
4522,3,ISIP_8,130,1,38,67,2508969660
4522,3,ISIP_8,131,1,38,64,2509796092
4522,3,ISIP_8,132,1,38,60,2510621548
4522,3,ISIP_8,133,1,38,64,2511432524
4522,3,ISIP_8,134,1,38,66,2512274364
4522,3,ISIP_8,135,1,38,60,2513055544
4522,3,ISIP_8,136,1,38,58,2513892824
4522,3,ISIP_8,137,1,38,61,2514653732
4522,3,ISIP_8,138,1,38,24,2514720056
4522,3,ISIP_8,139,1,38,60,2515428156
4522,3,ISIP_8,140,1,38,62,2516201108
4522,3,ISIP_8,141,1,38,64,2517059056
4522,3,ISIP_8,142,1,38,68,2517902312
4522,3,ISIP_8,143,1,38,68,2518716932
4522,3,ISIP_8,144,1,38,67,2519600056
4522,3,ISIP_8,145,1,48,16,2519616304
4522,3,ISIP_8,146,1,38,61,2520431044
4522,3,ISIP_8,147,1,38,66,2521245580
4522,3,ISIP_8,148,1,38,64,2522062140
4522,3,ISIP_8,149,1,38,73,2522914524
4522,3,ISIP_8,150,1,38,75,2523793420
4522,3,ISIP_8,151,1,38,62,2524579456
4522,3,ISIP_8,152,1,38,66,2525445236
4522,3,ISIP_8,153,1,38,60,2526266876
4522,3,ISIP_8,154,1,38,66,2527085928
4522,3,ISIP_8,155,1,38,67,2527891644
4522,3,ISIP_8,156,1,38,66,2528746572
4522,3,ISIP_8,157,1,38,68,2529586016
4522,3,ISIP_8,158,1,38,56,2530437828
4522,3,ISIP_8,159,1,38,71,2531282884
4522,3,ISIP_8,160,1,38,69,2532141044
4522,3,ISIP_8,161,1,38,61,2533024052
4522,3,ISIP_8,162,1,38,67,2533856988
4522,3,ISIP_8,163,1,38,66,2534749496
4522,3,ISIP_8,164,1,38,78,2535614824
4522,3,ISIP_8,165,1,38,66,2536415220
4522,3,ISIP_8,166,1,38,71,2537270004
4522,3,ISIP_8,167,1,38,77,2538128628
4522,3,ISIP_8,168,1,38,65,2539008460
4522,3,ISIP_8,169,1,38,51,2539839104
4522,3,ISIP_8,170,1,38,67,2540683040
4522,3,ISIP_8,171,1,38,65,2541489800
4522,3,ISIP_8,172,1,38,54,2542340320
4522,3,ISIP_8,173,1,38,66,2543204024
4522,3,ISIP_8,174,1,38,73,2544093956
4522,3,ISIP_8,175,1,38,70,2544934020
4522,3,ISIP_8,176,1,38,79,2545832724
4522,3,ISIP_8,177,1,38,72,2546697604
4522,3,ISIP_8,178,1,38,69,2547512144
4522,3,ISIP_8,179,1,38,72,2548339800
4522,3,ISIP_8,180,1,38,60,2549172888
4522,3,ISIP_8,181,1,38,64,2550015700
4522,3,ISIP_8,182,1,38,73,2550878216
4522,3,ISIP_8,183,1,38,70,2551679288
4522,3,ISIP_8,184,1,38,70,2552527260
4522,3,ISIP_8,0,9999,9999,9999,2432931956
4522,3,ISIP_8,1,9999,9999,9999,2433731692
4522,3,ISIP_8,2,9999,9999,9999,2434531424
4522,3,ISIP_8,3,9999,9999,9999,2435331152
4522,3,ISIP_8,4,9999,9999,9999,2436131912
4522,3,ISIP_8,5,9999,9999,9999,2436931640
4522,3,ISIP_8,6,9999,9999,9999,2437731396
4522,3,ISIP_8,7,9999,9999,9999,2438531128
4522,3,ISIP_8,8,9999,9999,9999,2439331928
4522,3,ISIP_8,9,9999,9999,9999,2440131640
4522,3,ISIP_8,10,9999,9999,9999,2440931448
4522,3,ISIP_8,11,9999,9999,9999,2441731156
4522,3,ISIP_8,12,9999,9999,9999,2442531908
4522,3,ISIP_8,13,9999,9999,9999,2443331644
4522,3,ISIP_8,14,9999,9999,9999,2444131404
4522,3,ISIP_8,15,9999,9999,9999,2444931120
4522,3,ISIP_8,16,9999,9999,9999,2445731900
4522,3,ISIP_8,17,9999,9999,9999,2446531648
4522,3,ISIP_8,18,9999,9999,9999,2447331380
4522,3,ISIP_8,19,9999,9999,9999,2448131188
4522,3,ISIP_8,20,9999,9999,9999,2448931896
4522,3,ISIP_8,21,9999,9999,9999,2449731704
4522,3,ISIP_8,22,9999,9999,9999,2450531384
4522,3,ISIP_8,23,9999,9999,9999,2451331120
4522,3,ISIP_8,24,9999,9999,9999,2452131900
4522,3,ISIP_8,25,9999,9999,9999,2452931632
4522,3,ISIP_8,26,9999,9999,9999,2453731440
4522,3,ISIP_8,27,9999,9999,9999,2454531172
4522,3,ISIP_8,28,9999,9999,9999,2455331952
4522,3,ISIP_8,29,9999,9999,9999,2456131636
4522,3,ISIP_8,30,9999,9999,9999,2456931444
4522,3,ISIP_8,31,9999,9999,9999,2457731172
4522,3,ISIP_8,32,9999,9999,9999,2458531908
4522,3,ISIP_8,33,9999,9999,9999,2459331684
4522,3,ISIP_8,34,9999,9999,9999,2460131412
4522,3,ISIP_8,35,9999,9999,9999,2460931140
4522,3,ISIP_8,36,9999,9999,9999,2461731904
4522,3,ISIP_8,37,9999,9999,9999,2462531656
4522,3,ISIP_8,38,9999,9999,9999,2463331384
4522,3,ISIP_8,39,9999,9999,9999,2464131188
4522,3,ISIP_8,40,9999,9999,9999,2464931888
4522,3,ISIP_8,41,9999,9999,9999,2465731692
4522,3,ISIP_8,42,9999,9999,9999,2466531420
4522,3,ISIP_8,43,9999,9999,9999,2467331152
4522,3,ISIP_8,44,9999,9999,9999,2468131928
4522,3,ISIP_8,45,9999,9999,9999,2468931684
4522,3,ISIP_8,46,9999,9999,9999,2469731412
4522,3,ISIP_8,47,9999,9999,9999,2470531140
4522,3,ISIP_8,48,9999,9999,9999,2471331916
4522,3,ISIP_8,49,9999,9999,9999,2472131648
4522,3,ISIP_8,50,9999,9999,9999,2472931376
4522,3,ISIP_8,51,9999,9999,9999,2473731180
4522,3,ISIP_8,52,9999,9999,9999,2474531956
4522,3,ISIP_8,53,9999,9999,9999,2475331636
4522,3,ISIP_8,54,9999,9999,9999,2476131440
4522,3,ISIP_8,55,9999,9999,9999,2476931168
4522,3,ISIP_8,56,9999,9999,9999,2477731944
4522,3,ISIP_8,57,9999,9999,9999,2478531672
4522,3,ISIP_8,58,9999,9999,9999,2479331404
4522,3,ISIP_8,59,9999,9999,9999,2480131132
4522,3,ISIP_8,60,9999,9999,9999,2480931908
4522,3,ISIP_8,61,9999,9999,9999,2481731660
4522,3,ISIP_8,62,9999,9999,9999,2482531388
4522,3,ISIP_8,63,9999,9999,9999,2483331120
4522,3,ISIP_8,64,9999,9999,9999,2484131896
4522,3,ISIP_8,65,9999,9999,9999,2484931696
4522,3,ISIP_8,66,9999,9999,9999,2485731404
4522,3,ISIP_8,67,9999,9999,9999,2486531132
4522,3,ISIP_8,68,9999,9999,9999,2487331924
4522,3,ISIP_8,69,9999,9999,9999,2488131680
4522,3,ISIP_8,70,9999,9999,9999,2488931412
4522,3,ISIP_8,71,9999,9999,9999,2489731144
4522,3,ISIP_8,72,9999,9999,9999,2490531920
4522,3,ISIP_8,73,9999,9999,9999,2491331648
4522,3,ISIP_8,74,9999,9999,9999,2492131380
4522,3,ISIP_8,75,9999,9999,9999,2492931180
4522,3,ISIP_8,76,9999,9999,9999,2493731956
4522,3,ISIP_8,77,9999,9999,9999,2494531636
4522,3,ISIP_8,78,9999,9999,9999,2495331440
4522,3,ISIP_8,79,9999,9999,9999,2496131172
4522,3,ISIP_8,80,9999,9999,9999,2496931944
4522,3,ISIP_8,81,9999,9999,9999,2497731676
4522,3,ISIP_8,82,9999,9999,9999,2498531404
4522,3,ISIP_8,83,9999,9999,9999,2499331136
4522,3,ISIP_8,84,9999,9999,9999,2500131912
4522,3,ISIP_8,85,9999,9999,9999,2500931660
4522,3,ISIP_8,86,9999,9999,9999,2501731436
4522,3,ISIP_8,87,9999,9999,9999,2502531164
4522,3,ISIP_8,88,9999,9999,9999,2503331944
4522,3,ISIP_8,89,9999,9999,9999,2504131672
4522,3,ISIP_8,90,9999,9999,9999,2504931400
4522,3,ISIP_8,91,9999,9999,9999,2505731136
4522,3,ISIP_8,92,9999,9999,9999,2506531904
4522,3,ISIP_8,93,9999,9999,9999,2507331664
4522,3,ISIP_8,94,9999,9999,9999,2508131396
4522,3,ISIP_8,95,9999,9999,9999,2508931124
4522,3,ISIP_8,96,9999,9999,9999,2509731900
4522,3,ISIP_8,97,9999,9999,9999,2510531700
4522,3,ISIP_8,98,9999,9999,9999,2511331432
4522,3,ISIP_8,99,9999,9999,9999,2512131160
4522,3,ISIP_8,100,9999,9999,9999,2512931936
4522,3,ISIP_8,101,9999,9999,9999,2513731692
4522,3,ISIP_8,102,9999,9999,9999,2514531420
4522,3,ISIP_8,103,9999,9999,9999,2515331128
4522,3,ISIP_8,104,9999,9999,9999,2516131904
4522,3,ISIP_8,105,9999,9999,9999,2516931632
4522,3,ISIP_8,106,9999,9999,9999,2517731436
4522,3,ISIP_8,107,9999,9999,9999,2518531164
4522,3,ISIP_8,108,9999,9999,9999,2519331940
4522,3,ISIP_8,109,9999,9999,9999,2520131660
4522,3,ISIP_8,110,9999,9999,9999,2520931388
4522,3,ISIP_8,111,9999,9999,9999,2521731120
4522,3,ISIP_8,112,9999,9999,9999,2522531896
4522,3,ISIP_8,113,9999,9999,9999,2523331696
4522,3,ISIP_8,114,9999,9999,9999,2524131428
4522,3,ISIP_8,115,9999,9999,9999,2524931156
4522,3,ISIP_8,116,9999,9999,9999,2525731932
4522,3,ISIP_8,117,9999,9999,9999,2526531684
4522,3,ISIP_8,118,9999,9999,9999,2527331416
4522,3,ISIP_8,119,9999,9999,9999,2528131144
4522,3,ISIP_8,120,9999,9999,9999,2528931916
4522,3,ISIP_8,121,9999,9999,9999,2529731648
4522,3,ISIP_8,122,9999,9999,9999,2530531392
4522,3,ISIP_8,123,9999,9999,9999,2531331124
4522,3,ISIP_8,124,9999,9999,9999,2532131904
4522,3,ISIP_8,125,9999,9999,9999,2532931660
4522,3,ISIP_8,126,9999,9999,9999,2533731388
4522,3,ISIP_8,127,9999,9999,9999,2534531192
4522,3,ISIP_8,128,9999,9999,9999,2535331892
4522,3,ISIP_8,129,9999,9999,9999,2536131700
4522,3,ISIP_8,130,9999,9999,9999,2536931428
4522,3,ISIP_8,131,9999,9999,9999,2537731156
4522,3,ISIP_8,132,9999,9999,9999,2538531932
4522,3,ISIP_8,133,9999,9999,9999,2539331684
4522,3,ISIP_8,134,9999,9999,9999,2540131416
4522,3,ISIP_8,135,9999,9999,9999,2540931144
4522,3,ISIP_8,136,9999,9999,9999,2541731920
4522,3,ISIP_8,137,9999,9999,9999,2542531648
4522,3,ISIP_8,138,9999,9999,9999,2543331380
4522,3,ISIP_8,139,9999,9999,9999,2544131124
4522,3,ISIP_8,140,9999,9999,9999,2544931904
4522,3,ISIP_8,141,9999,9999,9999,2545731660
4522,3,ISIP_8,142,9999,9999,9999,2546531388
4522,3,ISIP_8,143,9999,9999,9999,2547331192
4522,3,ISIP_8,144,9999,9999,9999,2548131892
4522,3,ISIP_8,145,9999,9999,9999,2548931696
4522,3,ISIP_8,146,9999,9999,9999,2549731428
4522,3,ISIP_8,147,9999,9999,9999,2550531156
4522,3,ISIP_8,148,9999,9999,9999,2551331936
4522,3,ISIP_8,149,9999,9999,9999,2552131688
4523,11,Pattern_Practice,0,1,38,63,2661816232
4523,11,Pattern_Practice,1,1,38,46,2661816992
4523,11,Pattern_Practice,2,1,38,127,2661817660
4523,11,Pattern_Practice,3,1,38,70,2661818320
4523,11,Pattern_Practice,4,1,38,39,2661819080
4523,11,Pattern_Practice,5,1,48,18,2661819280
4523,11,Pattern_Practice,6,1,38,127,2661820236
4523,11,Pattern_Practice,7,1,38,38,2662261456
4523,11,Pattern_Practice,8,1,48,13,2662274080
4523,11,Pattern_Practice,9,5,42,127,2662317644
4523,11,Pattern_Practice,10,1,38,55,2662703636
4523,11,Pattern_Practice,11,5,42,127,2662818048
4523,11,Pattern_Practice,12,1,38,16,2663137364
4523,11,Pattern_Practice,13,1,38,67,2663305060
4523,11,Pattern_Practice,14,5,42,127,2663317812
4523,11,Pattern_Practice,15,5,42,127,2663817660
4523,11,Pattern_Practice,16,1,38,84,2663928864
4523,11,Pattern_Practice,17,5,42,127,2664318476
4523,11,Pattern_Practice,18,1,38,73,2664505404
4523,11,Pattern_Practice,19,1,48,26,2664514132
4523,11,Pattern_Practice,20,5,42,127,2664817976
4523,11,Pattern_Practice,21,1,38,57,2665028232
4523,11,Pattern_Practice,22,5,42,127,2665317672
4523,11,Pattern_Practice,23,5,42,127,2665817536
4523,11,Pattern_Practice,24,5,42,127,2666318372
4523,11,Pattern_Practice,25,1,38,56,2666328972
4523,11,Pattern_Practice,26,1,48,20,2666341220
4523,11,Pattern_Practice,27,1,38,27,2666607476
4523,11,Pattern_Practice,28,5,42,127,2666817924
4523,11,Pattern_Practice,29,1,38,96,2666885892
4523,11,Pattern_Practice,30,5,42,127,2667317596
4523,11,Pattern_Practice,31,1,38,37,2667347664
4523,11,Pattern_Practice,32,1,48,16,2667359692
4523,11,Pattern_Practice,33,1,38,25,2667730140
4523,11,Pattern_Practice,34,5,42,127,2667818432
4523,11,Pattern_Practice,35,1,38,127,2668010952
4523,11,Pattern_Practice,36,5,42,127,2668318188
4523,11,Pattern_Practice,37,1,38,38,2668601248
4523,11,Pattern_Practice,38,5,42,127,2668817808
4523,11,Pattern_Practice,39,1,38,33,2668889392
4523,11,Pattern_Practice,40,1,48,14,2668901188
4523,11,Pattern_Practice,41,1,38,127,2669130644
4523,11,Pattern_Practice,42,5,42,127,2669317508
4523,11,Pattern_Practice,43,1,38,45,2669557912
4523,11,Pattern_Practice,44,1,48,16,2669570604
4523,11,Pattern_Practice,45,5,42,127,2669818424
4523,11,Pattern_Practice,46,1,38,42,2669975428
4523,11,Pattern_Practice,47,1,48,16,2669987748
4523,11,Pattern_Practice,48,1,38,127,2670232616
4523,11,Pattern_Practice,49,5,42,127,2670318064
4523,11,Pattern_Practice,50,1,38,60,2670346528
4523,11,Pattern_Practice,51,1,48,19,2670354512
4523,11,Pattern_Practice,52,5,42,127,2670817696
4523,11,Pattern_Practice,53,1,38,49,2670845720
4523,11,Pattern_Practice,54,1,48,20,2670858644
4523,11,Pattern_Practice,55,1,38,20,2671106200
4523,11,Pattern_Practice,56,5,42,127,2671318296
4523,11,Pattern_Practice,57,1,38,72,2671411920
4523,11,Pattern_Practice,58,1,48,25,2671420764
4523,11,Pattern_Practice,59,5,42,127,2671818324
4523,11,Pattern_Practice,60,1,38,32,2671837304
4523,11,Pattern_Practice,61,1,48,17,2671850444
4523,11,Pattern_Practice,62,1,38,70,2672206408
4523,11,Pattern_Practice,63,5,42,127,2672317728
4523,11,Pattern_Practice,64,1,38,127,2672495976
4523,11,Pattern_Practice,65,1,48,27,2672505304
4523,11,Pattern_Practice,66,5,42,127,2672817524
4523,11,Pattern_Practice,67,1,38,66,2673030180
4523,11,Pattern_Practice,68,1,38,89,2673315532
4523,11,Pattern_Practice,69,5,42,127,2673318556
4523,11,Pattern_Practice,70,1,38,127,2673593876
4523,11,Pattern_Practice,71,5,42,127,2673818164
4523,11,Pattern_Practice,72,1,38,86,2674022288
4523,11,Pattern_Practice,73,5,42,127,2674317560
4523,11,Pattern_Practice,74,1,38,67,2674487272
4523,11,Pattern_Practice,75,1,38,127,2674779516
4523,11,Pattern_Practice,76,5,42,127,2674818444
4523,11,Pattern_Practice,77,1,38,86,2674884300
4523,11,Pattern_Practice,78,5,42,127,2675318272
4523,11,Pattern_Practice,79,1,38,127,2675395968
4523,11,Pattern_Practice,80,5,42,127,2675817964
4523,11,Pattern_Practice,81,1,38,127,2675941436
4523,11,Pattern_Practice,82,5,42,127,2676317512
4523,11,Pattern_Practice,83,1,38,73,2676351296
4523,11,Pattern_Practice,84,1,38,74,2676786252
4523,11,Pattern_Practice,85,5,42,127,2676818244
4523,11,Pattern_Practice,86,1,38,127,2677063568
4523,11,Pattern_Practice,87,1,38,28,2677185768
4523,11,Pattern_Practice,88,5,42,127,2677318200
4523,11,Pattern_Practice,89,1,38,34,2677625544
4523,11,Pattern_Practice,90,5,42,127,2677817748
4523,11,Pattern_Practice,91,1,38,127,2678166232
4523,11,Pattern_Practice,92,5,42,127,2678317488
4523,11,Pattern_Practice,93,1,38,100,2678598012
4523,11,Pattern_Practice,94,5,42,127,2678818232
4523,11,Pattern_Practice,95,1,38,67,2679007252
4523,11,Pattern_Practice,96,1,38,127,2679276000
4523,11,Pattern_Practice,97,1,48,27,2679286304
4523,11,Pattern_Practice,98,5,42,127,2679317904
4523,11,Pattern_Practice,99,1,38,74,2679380840
4523,11,Pattern_Practice,100,5,42,127,2679817704
4523,11,Pattern_Practice,101,1,38,71,2679836008
4523,11,Pattern_Practice,102,5,42,127,2680318372
4523,11,Pattern_Practice,103,1,38,127,2680401100
4523,11,Pattern_Practice,104,1,48,26,2680410804
4523,11,Pattern_Practice,105,5,42,127,2680817944
4523,11,Pattern_Practice,106,1,38,67,2680832880
4523,11,Pattern_Practice,107,1,38,64,2681252524
4523,11,Pattern_Practice,108,5,42,127,2681317928
4523,11,Pattern_Practice,109,1,38,127,2681537000
4523,11,Pattern_Practice,110,5,42,127,2681817312
4523,11,Pattern_Practice,111,1,38,114,2682089128
4523,11,Pattern_Practice,112,5,42,127,2682318128
4523,11,Pattern_Practice,113,1,38,127,2682679276
4523,11,Pattern_Practice,114,5,42,127,2682817972
4523,11,Pattern_Practice,115,1,38,127,2683234096
4523,11,Pattern_Practice,116,5,42,127,2683317828
4523,11,Pattern_Practice,117,5,42,127,2683818280
4523,11,Pattern_Practice,118,1,38,127,2683828804
4523,11,Pattern_Practice,119,5,42,127,2684318048
4523,11,Pattern_Practice,120,1,38,127,2684393420
4523,11,Pattern_Practice,121,5,42,127,2684817964
4523,11,Pattern_Practice,122,1,38,127,2684932312
4523,11,Pattern_Practice,123,1,48,26,2684942088
4523,11,Pattern_Practice,124,5,42,127,2685317612
4523,11,Pattern_Practice,125,1,38,127,2685436816
4523,11,Pattern_Practice,126,1,48,26,2685447200
4523,11,Pattern_Practice,127,1,38,85,2685697148
4523,11,Pattern_Practice,128,1,48,23,2685706476
4523,11,Pattern_Practice,129,5,42,127,2685818088
4523,11,Pattern_Practice,130,1,38,127,2685981124
4523,11,Pattern_Practice,131,1,48,30,2685991056
4523,11,Pattern_Practice,132,5,42,127,2686317960
4523,11,Pattern_Practice,133,1,38,127,2686402980
4523,11,Pattern_Practice,134,1,38,103,2686809008
4523,11,Pattern_Practice,135,5,42,127,2686817720
4523,11,Pattern_Practice,136,1,38,127,2687074040
4523,11,Pattern_Practice,137,1,48,30,2687084488
4523,11,Pattern_Practice,138,5,42,127,2687318252
4523,11,Pattern_Practice,139,1,38,127,2687585656
4523,11,Pattern_Practice,140,5,42,127,2687817948
4523,11,Pattern_Practice,141,1,38,109,2687838716
4523,11,Pattern_Practice,142,1,48,22,2687848572
4523,11,Pattern_Practice,143,1,38,127,2688132256
4523,11,Pattern_Practice,144,5,42,127,2688317796
4523,11,Pattern_Practice,145,1,38,127,2688509776
4523,11,Pattern_Practice,146,5,42,127,2688817764
4523,11,Pattern_Practice,147,1,38,93,2688945300
4523,11,Pattern_Practice,148,1,38,127,2689220404
4523,11,Pattern_Practice,149,5,42,127,2689318112
4523,11,Pattern_Practice,150,1,38,90,2689344964
4523,11,Pattern_Practice,151,1,38,96,2689722696
4523,11,Pattern_Practice,152,5,42,127,2689818096
4523,11,Pattern_Practice,153,1,38,104,2689978900
4523,11,Pattern_Practice,154,1,48,21,2689988600
4523,11,Pattern_Practice,155,1,38,127,2690260544
4523,11,Pattern_Practice,156,1,48,28,2690270472
4523,11,Pattern_Practice,157,5,42,127,2690317704
4523,11,Pattern_Practice,158,1,38,127,2690626692
4523,11,Pattern_Practice,159,5,42,127,2690818492
4523,11,Pattern_Practice,160,1,38,103,2691030248
4523,11,Pattern_Practice,161,1,48,21,2691040100
4523,11,Pattern_Practice,162,5,42,127,2691318064
4523,11,Pattern_Practice,163,1,38,127,2691322008
4523,11,Pattern_Practice,164,1,48,28,2691332080
4523,11,Pattern_Practice,165,5,42,127,2691817788
4523,11,Pattern_Practice,166,1,38,127,2691827788
4523,11,Pattern_Practice,167,1,38,84,2692087188
4523,11,Pattern_Practice,168,1,48,20,2692097268
4523,11,Pattern_Practice,169,5,42,127,2692317860
4523,11,Pattern_Practice,170,1,38,127,2692385908
4523,11,Pattern_Practice,171,1,38,127,2692816860
4523,11,Pattern_Practice,172,5,42,127,2692819196
4523,11,Pattern_Practice,173,1,38,117,2693200300
4523,11,Pattern_Practice,174,5,42,127,2693318048
4523,11,Pattern_Practice,175,1,38,127,2693482232
4523,11,Pattern_Practice,176,1,48,27,2693492236
4523,11,Pattern_Practice,177,1,38,111,2693587580
4523,11,Pattern_Practice,178,5,42,127,2693817600
4523,11,Pattern_Practice,179,1,38,127,2693996292
4523,11,Pattern_Practice,180,1,38,75,2694247992
4523,11,Pattern_Practice,181,5,42,127,2694317364
4523,11,Pattern_Practice,182,1,38,127,2694505388
4523,11,Pattern_Practice,183,1,48,27,2694515320
4523,11,Pattern_Practice,184,5,42,127,2694818268
4523,11,Pattern_Practice,185,1,38,127,2694950412
4523,11,Pattern_Practice,186,1,48,24,2694960344
4523,11,Pattern_Practice,187,1,38,84,2695270676
4523,11,Pattern_Practice,188,5,42,127,2695317908
4523,11,Pattern_Practice,189,1,38,43,2695466196
4523,11,Pattern_Practice,190,1,38,127,2695676748
4523,11,Pattern_Practice,191,1,48,29,2695686756
4523,11,Pattern_Practice,192,5,42,127,2695817740
4523,11,Pattern_Practice,193,1,38,127,2696196224
4523,11,Pattern_Practice,194,5,42,127,2696318260
4523,11,Pattern_Practice,195,1,38,79,2696472316
4523,11,Pattern_Practice,196,1,48,20,2696481648
4523,11,Pattern_Practice,197,1,38,127,2696741096
4523,11,Pattern_Practice,198,5,42,127,2696818044
4523,11,Pattern_Practice,199,1,38,127,2697137792
4523,11,Pattern_Practice,200,1,38,51,2697204640
4523,11,Pattern_Practice,201,5,42,127,2697317852
4523,11,Pattern_Practice,202,1,38,81,2697529308
4523,11,Pattern_Practice,203,1,48,19,2697539164
4523,11,Pattern_Practice,204,5,42,127,2697817500
4523,11,Pattern_Practice,205,1,38,127,2697824136
4523,11,Pattern_Practice,206,1,38,79,2697952164
4523,11,Pattern_Practice,207,5,42,127,2698318296
4523,11,Pattern_Practice,208,1,38,118,2698330912
4523,11,Pattern_Practice,209,1,38,110,2698569596
4523,11,Pattern_Practice,210,5,42,127,2698817896
4523,11,Pattern_Practice,211,1,38,127,2698839788
4523,11,Pattern_Practice,212,1,38,127,2699244600
4523,11,Pattern_Practice,213,5,42,127,2699317508
4523,11,Pattern_Practice,214,1,38,70,2699624312
4523,11,Pattern_Practice,215,1,38,82,2699762516
4523,11,Pattern_Practice,216,1,48,20,2699772152
4523,11,Pattern_Practice,217,5,42,127,2699818480
4523,11,Pattern_Practice,218,1,38,127,2700032512
4523,11,Pattern_Practice,219,1,48,28,2700042444
4523,11,Pattern_Practice,220,5,42,127,2700318012
4523,11,Pattern_Practice,221,1,38,127,2700533580
4523,11,Pattern_Practice,222,1,48,24,2700543508
4523,11,Pattern_Practice,223,1,38,120,2700786728
4523,11,Pattern_Practice,224,1,48,23,2700796652
4523,11,Pattern_Practice,225,5,42,127,2700817632
4523,11,Pattern_Practice,226,1,38,127,2701046620
4523,11,Pattern_Practice,227,1,48,28,2701057076
4523,11,Pattern_Practice,228,1,38,52,2701112052
4523,11,Pattern_Practice,229,5,42,127,2701317660
4523,11,Pattern_Practice,230,1,38,127,2701432476
4523,11,Pattern_Practice,231,1,38,50,2701497228
4523,11,Pattern_Practice,232,1,38,102,2701804424
4523,11,Pattern_Practice,233,1,48,21,2701814432
4523,11,Pattern_Practice,234,5,42,127,2701818352
4523,11,Pattern_Practice,235,1,38,127,2702113388
4523,11,Pattern_Practice,236,1,48,25,2702123244
4523,11,Pattern_Practice,0,9999,9999,9999,2662315060
4523,11,Pattern_Practice,1,9999,9999,9999,2662815836
4523,11,Pattern_Practice,2,9999,9999,9999,2663315524
4523,11,Pattern_Practice,3,9999,9999,9999,2663815224
4523,11,Pattern_Practice,4,9999,9999,9999,2664315968
4523,11,Pattern_Practice,5,9999,9999,9999,2664815688
4523,11,Pattern_Practice,6,9999,9999,9999,2665315384
4523,11,Pattern_Practice,7,9999,9999,9999,2665815100
4523,11,Pattern_Practice,8,9999,9999,9999,2666315864
4523,11,Pattern_Practice,9,9999,9999,9999,2666815564
4523,11,Pattern_Practice,10,9999,9999,9999,2667315308
4523,11,Pattern_Practice,11,9999,9999,9999,2667816000
4523,11,Pattern_Practice,12,9999,9999,9999,2668315752
4523,11,Pattern_Practice,13,9999,9999,9999,2668815448
4523,11,Pattern_Practice,14,9999,9999,9999,2669315148
4523,11,Pattern_Practice,15,9999,9999,9999,2669815916
4523,11,Pattern_Practice,16,9999,9999,9999,2670315632
4523,11,Pattern_Practice,17,9999,9999,9999,2670815336
4523,11,Pattern_Practice,18,9999,9999,9999,2671316080
4523,11,Pattern_Practice,19,9999,9999,9999,2671815740
4523,11,Pattern_Practice,20,9999,9999,9999,2672315440
4523,11,Pattern_Practice,21,9999,9999,9999,2672815164
4523,11,Pattern_Practice,22,9999,9999,9999,2673315900
4523,11,Pattern_Practice,23,9999,9999,9999,2673815652
4523,11,Pattern_Practice,24,9999,9999,9999,2674315348
4523,11,Pattern_Practice,25,9999,9999,9999,2674816084
4523,11,Pattern_Practice,26,9999,9999,9999,2675315760
4523,11,Pattern_Practice,27,9999,9999,9999,2675815532
4523,11,Pattern_Practice,28,9999,9999,9999,2676315224
4523,11,Pattern_Practice,29,9999,9999,9999,2676815960
4523,11,Pattern_Practice,30,9999,9999,9999,2677315692
4523,11,Pattern_Practice,31,9999,9999,9999,2677815388
4523,11,Pattern_Practice,32,9999,9999,9999,2678315128
4523,11,Pattern_Practice,33,9999,9999,9999,2678815800
4523,11,Pattern_Practice,34,9999,9999,9999,2679315540
4523,11,Pattern_Practice,35,9999,9999,9999,2679815268
4523,11,Pattern_Practice,36,9999,9999,9999,2680316012
4523,11,Pattern_Practice,37,9999,9999,9999,2680815732
4523,11,Pattern_Practice,38,9999,9999,9999,2681315420
4523,11,Pattern_Practice,39,9999,9999,9999,2681815100
4523,11,Pattern_Practice,40,9999,9999,9999,2682315840
4523,11,Pattern_Practice,41,9999,9999,9999,2682815612
4523,11,Pattern_Practice,42,9999,9999,9999,2683315320
4523,11,Pattern_Practice,43,9999,9999,9999,2683815992
4523,11,Pattern_Practice,44,9999,9999,9999,2684315760
4523,11,Pattern_Practice,45,9999,9999,9999,2684815456
4523,11,Pattern_Practice,46,9999,9999,9999,2685315176
4523,11,Pattern_Practice,47,9999,9999,9999,2685815876
4523,11,Pattern_Practice,48,9999,9999,9999,2686315596
4523,11,Pattern_Practice,49,9999,9999,9999,2686815284
4523,11,Pattern_Practice,50,9999,9999,9999,2687316040
4523,11,Pattern_Practice,51,9999,9999,9999,2687815736
4523,11,Pattern_Practice,52,9999,9999,9999,2688315508
4523,11,Pattern_Practice,53,9999,9999,9999,2688815180
4523,11,Pattern_Practice,54,9999,9999,9999,2689315900
4523,11,Pattern_Practice,55,9999,9999,9999,2689815660
4523,11,Pattern_Practice,56,9999,9999,9999,2690315340
4523,11,Pattern_Practice,57,9999,9999,9999,2690816056
4523,11,Pattern_Practice,58,9999,9999,9999,2691315776
4523,11,Pattern_Practice,59,9999,9999,9999,2691815500
4523,11,Pattern_Practice,60,9999,9999,9999,2692315200
4523,11,Pattern_Practice,61,9999,9999,9999,2692815940
4523,11,Pattern_Practice,62,9999,9999,9999,2693315688
4523,11,Pattern_Practice,63,9999,9999,9999,2693815388
4523,11,Pattern_Practice,64,9999,9999,9999,2694315076
4523,11,Pattern_Practice,65,9999,9999,9999,2694815832
4523,11,Pattern_Practice,66,9999,9999,9999,2695315544
4523,11,Pattern_Practice,67,9999,9999,9999,2695815232
4523,11,Pattern_Practice,68,9999,9999,9999,2696315972
4523,11,Pattern_Practice,69,9999,9999,9999,2696815684
4523,11,Pattern_Practice,70,9999,9999,9999,2697315416
4523,11,Pattern_Practice,71,9999,9999,9999,2697815140
4523,11,Pattern_Practice,72,9999,9999,9999,2698315860
4523,11,Pattern_Practice,73,9999,9999,9999,2698815608
4523,11,Pattern_Practice,74,9999,9999,9999,2699315272
4523,11,Pattern_Practice,75,9999,9999,9999,2699816044
4523,11,Pattern_Practice,76,9999,9999,9999,2700315724
4523,11,Pattern_Practice,77,9999,9999,9999,2700815420
4523,11,Pattern_Practice,78,9999,9999,9999,2701315148
4523,11,Pattern_Practice,79,9999,9999,9999,2701815920
4524,13,Improv_Metronome,0,5,42,127,2737610372
4524,13,Improv_Metronome,1,5,42,127,2738109792
4524,13,Improv_Metronome,2,1,38,90,2738586056
4524,13,Improv_Metronome,3,5,42,127,2738609724
4524,13,Improv_Metronome,4,5,42,127,2739110620
4524,13,Improv_Metronome,5,5,42,127,2739609816
4524,13,Improv_Metronome,6,1,38,69,2739619220
4524,13,Improv_Metronome,7,1,38,62,2739918780
4524,13,Improv_Metronome,8,5,42,127,2740109640
4524,13,Improv_Metronome,9,1,38,119,2740204760
4524,13,Improv_Metronome,10,1,48,22,2740214760
4524,13,Improv_Metronome,11,1,38,49,2740257520
4524,13,Improv_Metronome,12,5,42,127,2740610384
4524,13,Improv_Metronome,13,1,38,76,2740679704
4524,13,Improv_Metronome,14,5,42,127,2741110156
4524,13,Improv_Metronome,15,1,38,19,2741147380
4524,13,Improv_Metronome,16,1,38,100,2741422416
4524,13,Improv_Metronome,17,1,48,20,2741432792
4524,13,Improv_Metronome,18,5,42,127,2741609928
4524,13,Improv_Metronome,19,1,38,80,2742065380
4524,13,Improv_Metronome,20,5,42,127,2742109468
4524,13,Improv_Metronome,21,1,38,67,2742362044
4524,13,Improv_Metronome,22,5,42,127,2742610344
4524,13,Improv_Metronome,23,1,38,118,2742674724
4524,13,Improv_Metronome,24,1,48,22,2742684728
4524,13,Improv_Metronome,25,5,42,127,2743109992
4524,13,Improv_Metronome,26,1,38,68,2743128592
4524,13,Improv_Metronome,27,1,38,55,2743499144
4524,13,Improv_Metronome,28,1,38,23,2743572124
4524,13,Improv_Metronome,29,5,42,127,2743609656
4524,13,Improv_Metronome,30,1,38,127,2743827280
4524,13,Improv_Metronome,31,1,48,25,2743837580
4524,13,Improv_Metronome,32,1,38,75,2743965016
4524,13,Improv_Metronome,33,5,42,127,2744109392
4524,13,Improv_Metronome,34,1,38,66,2744456780
4524,13,Improv_Metronome,35,5,42,127,2744610136
4524,13,Improv_Metronome,36,1,38,54,2744754496
4524,13,Improv_Metronome,37,1,38,114,2745053764
4524,13,Improv_Metronome,38,5,42,127,2745110048
4524,13,Improv_Metronome,39,1,38,60,2745550840
4524,13,Improv_Metronome,40,5,42,127,2745609444
4524,13,Improv_Metronome,41,1,38,61,2746007080
4524,13,Improv_Metronome,42,5,42,127,2746110244
4524,13,Improv_Metronome,43,1,38,112,2746307336
4524,13,Improv_Metronome,44,5,42,127,2746610088
4524,13,Improv_Metronome,45,1,38,87,2746893872
4524,13,Improv_Metronome,46,5,42,127,2747109856
4524,13,Improv_Metronome,47,1,38,69,2747188996
4524,13,Improv_Metronome,48,1,38,127,2747467544
4524,13,Improv_Metronome,49,5,42,127,2747609384
4524,13,Improv_Metronome,50,1,38,125,2747912012
4524,13,Improv_Metronome,51,1,48,23,2747921868
4524,13,Improv_Metronome,52,5,42,127,2748110372
4524,13,Improv_Metronome,53,1,38,59,2748364540
4524,13,Improv_Metronome,54,5,42,127,2748610068
4524,13,Improv_Metronome,55,1,38,127,2748638400
4524,13,Improv_Metronome,56,1,48,27,2748648172
4524,13,Improv_Metronome,57,1,38,89,2748765128
4524,13,Improv_Metronome,58,5,42,127,2749109472
4524,13,Improv_Metronome,59,1,38,116,2749222768
4524,13,Improv_Metronome,60,1,48,23,2749232024
4524,13,Improv_Metronome,61,1,38,93,2749458260
4524,13,Improv_Metronome,62,1,48,20,2749468116
4524,13,Improv_Metronome,63,5,42,127,2749610320
4524,13,Improv_Metronome,64,1,38,127,2749740448
4524,13,Improv_Metronome,65,5,42,127,2750110016
4524,13,Improv_Metronome,66,1,38,127,2750141932
4524,13,Improv_Metronome,67,1,38,120,2750541304
4524,13,Improv_Metronome,68,5,42,127,2750609856
4524,13,Improv_Metronome,69,1,38,127,2750803640
4524,13,Improv_Metronome,70,5,42,127,2751109460
4524,13,Improv_Metronome,71,1,38,127,2751302668
4524,13,Improv_Metronome,72,1,38,77,2751541500
4524,13,Improv_Metronome,73,5,42,127,2751610120
4524,13,Improv_Metronome,74,1,38,127,2751817896
4524,13,Improv_Metronome,75,5,42,127,2752110020
4524,13,Improv_Metronome,76,1,38,127,2752225492
4524,13,Improv_Metronome,77,1,38,55,2752281940
4524,13,Improv_Metronome,78,1,38,119,2752593572
4524,13,Improv_Metronome,79,5,42,127,2752609764
4524,13,Improv_Metronome,80,1,38,127,2752864512
4524,13,Improv_Metronome,81,5,42,127,2753110488
4524,13,Improv_Metronome,82,1,38,127,2753360760
4524,13,Improv_Metronome,83,1,38,88,2753578848
4524,13,Improv_Metronome,84,1,48,22,2753588520
4524,13,Improv_Metronome,85,5,42,127,2753609944
4524,13,Improv_Metronome,86,1,38,37,2753635564
4524,13,Improv_Metronome,87,1,38,127,2753863668
4524,13,Improv_Metronome,88,5,42,127,2754109872
4524,13,Improv_Metronome,89,1,38,113,2754242540
4524,13,Improv_Metronome,90,1,38,57,2754307816
4524,13,Improv_Metronome,91,1,38,127,2754594744
4524,13,Improv_Metronome,92,5,42,127,2754609616
4524,13,Improv_Metronome,93,1,38,32,2754693576
4524,13,Improv_Metronome,94,1,38,127,2754879824
4524,13,Improv_Metronome,95,1,48,27,2754889672
4524,13,Improv_Metronome,96,5,42,127,2755110172
4524,13,Improv_Metronome,97,1,38,127,2755342868
4524,13,Improv_Metronome,98,5,42,127,2755610016
4524,13,Improv_Metronome,99,1,38,112,2755621732
4524,13,Improv_Metronome,100,1,38,127,2755876796
4524,13,Improv_Metronome,101,1,48,28,2755886280
4524,13,Improv_Metronome,102,5,42,127,2756109864
4524,13,Improv_Metronome,103,1,38,127,2756272028
4524,13,Improv_Metronome,104,5,42,127,2756610756
4524,13,Improv_Metronome,105,1,38,127,2756620756
4524,13,Improv_Metronome,106,1,38,30,2756724280
4524,13,Improv_Metronome,107,1,38,127,2756884848
4524,13,Improv_Metronome,108,1,38,127,2756998696
4524,13,Improv_Metronome,109,5,42,127,2757110088
4524,13,Improv_Metronome,110,1,38,127,2757408676
4524,13,Improv_Metronome,111,5,42,127,2757609852
4524,13,Improv_Metronome,112,1,38,127,2757887136
4524,13,Improv_Metronome,113,5,42,127,2758109624
4524,13,Improv_Metronome,114,1,38,104,2758294752
4524,13,Improv_Metronome,115,1,48,23,2758304452
4524,13,Improv_Metronome,116,5,42,127,2758610392
4524,13,Improv_Metronome,117,1,38,98,2758698408
4524,13,Improv_Metronome,118,1,38,127,2758947940
4524,13,Improv_Metronome,119,5,42,127,2759109992
4524,13,Improv_Metronome,120,1,38,127,2759451220
4524,13,Improv_Metronome,121,5,42,127,2759609908
4524,13,Improv_Metronome,122,1,38,99,2759719764
4524,13,Improv_Metronome,123,1,38,127,2759974752
4524,13,Improv_Metronome,124,5,42,127,2760109360
4524,13,Improv_Metronome,125,1,38,114,2760345344
4524,13,Improv_Metronome,126,5,42,127,2760610172
4524,13,Improv_Metronome,127,1,38,115,2760688164
4524,13,Improv_Metronome,128,1,38,127,2760932008
4524,13,Improv_Metronome,129,1,38,127,2761049148
4524,13,Improv_Metronome,130,5,42,127,2761109916
4524,13,Improv_Metronome,131,1,38,108,2761420836
4524,13,Improv_Metronome,132,5,42,127,2761609720
4524,13,Improv_Metronome,133,1,38,108,2761692424
4524,13,Improv_Metronome,134,1,38,127,2761947636
4524,13,Improv_Metronome,135,1,48,27,2761957564
4524,13,Improv_Metronome,136,5,42,127,2762110168
4524,13,Improv_Metronome,137,1,38,113,2762337248
4524,13,Improv_Metronome,138,5,42,127,2762610084
4524,13,Improv_Metronome,139,1,38,127,2762746716
4524,13,Improv_Metronome,140,1,38,25,2762853832
4524,13,Improv_Metronome,141,1,38,127,2763021952
4524,13,Improv_Metronome,142,5,42,127,2763109676
4524,13,Improv_Metronome,143,1,38,127,2763531968
4524,13,Improv_Metronome,144,5,42,127,2763609596
4524,13,Improv_Metronome,145,1,38,91,2763795056
4524,13,Improv_Metronome,146,1,48,19,2763805432
4524,13,Improv_Metronome,147,1,38,127,2764058596
4524,13,Improv_Metronome,148,1,48,29,2764068452
4524,13,Improv_Metronome,149,5,42,127,2764110100
4524,13,Improv_Metronome,150,1,38,115,2764485240
4524,13,Improv_Metronome,151,1,38,47,2764519852
4524,13,Improv_Metronome,152,5,42,127,2764609892
4524,13,Improv_Metronome,153,1,38,95,2764856488
4524,13,Improv_Metronome,154,1,48,22,2764865744
4524,13,Improv_Metronome,155,5,42,127,2765109748
4524,13,Improv_Metronome,156,1,38,127,2765123412
4524,13,Improv_Metronome,157,1,38,92,2765242168
4524,13,Improv_Metronome,158,5,42,127,2765610516
4524,13,Improv_Metronome,159,1,38,127,2765615212
4524,13,Improv_Metronome,160,1,38,87,2765867504
4524,13,Improv_Metronome,161,1,48,19,2765877472
4524,13,Improv_Metronome,162,5,42,127,2766110080
4524,13,Improv_Metronome,163,1,38,127,2766130504
4524,13,Improv_Metronome,164,1,38,127,2766525136
4524,13,Improv_Metronome,165,1,38,66,2766594160
4524,13,Improv_Metronome,166,5,42,127,2766609752
4524,13,Improv_Metronome,167,1,38,24,2766841608
4524,13,Improv_Metronome,168,5,42,127,2767109432
4524,13,Improv_Metronome,169,1,38,127,2767183332
4524,13,Improv_Metronome,170,5,42,127,2767610472
4524,13,Improv_Metronome,171,1,38,127,2767646732
4524,13,Improv_Metronome,172,1,38,74,2767901340
4524,13,Improv_Metronome,173,1,48,19,2767910972
4524,13,Improv_Metronome,174,5,42,127,2768109872
4524,13,Improv_Metronome,175,1,38,127,2768163776
4524,13,Improv_Metronome,176,1,48,26,2768173780
4524,13,Improv_Metronome,177,1,38,93,2768480604
4524,13,Improv_Metronome,178,5,42,127,2768609720
4524,13,Improv_Metronome,179,1,38,29,2768757300
4524,13,Improv_Metronome,180,1,38,127,2769054248
4524,13,Improv_Metronome,181,1,48,30,2769064180
4524,13,Improv_Metronome,182,5,42,127,2769110360
4524,13,Improv_Metronome,183,1,38,62,2769514556
4524,13,Improv_Metronome,184,5,42,127,2769610088
4524,13,Improv_Metronome,185,1,38,67,2769657336
4524,13,Improv_Metronome,186,1,48,26,2769665844
4524,13,Improv_Metronome,187,1,38,127,2769951248
4524,13,Improv_Metronome,188,5,42,127,2770109716
4524,13,Improv_Metronome,189,1,38,57,2770124952
4524,13,Improv_Metronome,190,1,38,127,2770490360
4524,13,Improv_Metronome,191,5,42,127,2770609612
4524,13,Improv_Metronome,192,1,38,26,2770617444
4524,13,Improv_Metronome,193,1,38,127,2771026388
4524,13,Improv_Metronome,194,5,42,127,2771110416
4524,13,Improv_Metronome,195,1,38,122,2771457616
4524,13,Improv_Metronome,196,5,42,127,2771610096
4524,13,Improv_Metronome,197,1,38,99,2771892464
4524,13,Improv_Metronome,198,5,42,127,2772109568
4524,13,Improv_Metronome,199,1,38,127,2772167140
4524,13,Improv_Metronome,200,5,42,127,2772610384
4524,13,Improv_Metronome,201,1,38,127,2772688004
4524,13,Improv_Metronome,202,1,38,85,2772928476
4524,13,Improv_Metronome,203,5,42,127,2773110204
4524,13,Improv_Metronome,204,1,38,127,2773224396
4524,13,Improv_Metronome,205,1,38,127,2773594452
4524,13,Improv_Metronome,206,5,42,127,2773609968
4524,13,Improv_Metronome,207,1,38,49,2773679864
4524,13,Improv_Metronome,208,1,38,103,2774003372
4524,13,Improv_Metronome,209,1,48,21,2774013152
4524,13,Improv_Metronome,210,5,42,127,2774109504
4524,13,Improv_Metronome,211,1,38,127,2774281668
4524,13,Improv_Metronome,212,1,38,127,2774411592
4524,13,Improv_Metronome,213,5,42,127,2774610372
4524,13,Improv_Metronome,214,1,38,127,2774774680
4524,13,Improv_Metronome,215,1,38,97,2775007604
4524,13,Improv_Metronome,216,5,42,127,2775109972
4524,13,Improv_Metronome,217,1,38,127,2775251688
4524,13,Improv_Metronome,218,5,42,127,2775609668
4524,13,Improv_Metronome,219,1,38,127,2775613232
4524,13,Improv_Metronome,220,1,38,124,2775920428
4524,13,Improv_Metronome,221,1,48,23,2775930284
4524,13,Improv_Metronome,222,5,42,127,2776109492
4524,13,Improv_Metronome,223,1,38,127,2776191596
4524,13,Improv_Metronome,224,5,42,127,2776610208
4524,13,Improv_Metronome,225,1,38,118,2776648208
4524,13,Improv_Metronome,226,1,38,91,2776898932
4524,13,Improv_Metronome,227,5,42,127,2777109732
4524,13,Improv_Metronome,228,1,38,127,2777165836
4524,13,Improv_Metronome,229,1,48,28,2777175836
4524,13,Improv_Metronome,230,1,38,112,2777535960
4524,13,Improv_Metronome,231,5,42,127,2777609448
4524,13,Improv_Metronome,232,1,38,44,2777626764
4524,13,Improv_Metronome,233,1,38,127,2777912216
4524,13,Improv_Metronome,234,1,48,25,2777922672
4524,13,Improv_Metronome,235,5,42,127,2778110328
4524,13,Improv_Metronome,236,1,38,127,2778180040
4524,13,Improv_Metronome,237,1,38,123,2778306728
4524,13,Improv_Metronome,238,5,42,127,2778610148
4524,13,Improv_Metronome,239,1,38,127,2778685320
4524,13,Improv_Metronome,240,1,38,116,2778914628
4524,13,Improv_Metronome,241,5,42,127,2779109600
4524,13,Improv_Metronome,242,1,38,127,2779157524
4524,13,Improv_Metronome,243,1,38,127,2779548364
4524,13,Improv_Metronome,244,1,48,27,2779565328
4524,13,Improv_Metronome,245,1,38,57,2779603900
4524,13,Improv_Metronome,246,5,42,127,2779609396
4524,13,Improv_Metronome,247,1,38,127,2779895168
4524,13,Improv_Metronome,248,1,38,24,2780029584
4524,13,Improv_Metronome,249,5,42,127,2780110172
4524,13,Improv_Metronome,250,1,38,127,2780157040
4524,13,Improv_Metronome,251,1,38,127,2780607964
4524,13,Improv_Metronome,252,5,42,127,2780610148
4524,13,Improv_Metronome,253,1,38,25,2780704504
4524,13,Improv_Metronome,254,1,38,122,2780853284
4524,13,Improv_Metronome,255,1,38,41,2780919908
4524,13,Improv_Metronome,256,5,42,127,2781109488
4524,13,Improv_Metronome,257,1,38,127,2781128088
4524,13,Improv_Metronome,258,1,38,106,2781492460
4524,13,Improv_Metronome,259,1,38,60,2781545016
4524,13,Improv_Metronome,260,5,42,127,2781610200
4524,13,Improv_Metronome,261,1,38,127,2781857764
4524,13,Improv_Metronome,262,1,48,24,2781867696
4524,13,Improv_Metronome,263,1,38,37,2781962372
4524,13,Improv_Metronome,264,5,42,127,2782110120
4524,13,Improv_Metronome,265,1,38,127,2782146300
4524,13,Improv_Metronome,266,1,48,27,2782156080
4524,13,Improv_Metronome,267,5,42,127,2782610080
4524,13,Improv_Metronome,268,1,38,121,2782636240
4524,13,Improv_Metronome,269,1,48,25,2782646240
4524,13,Improv_Metronome,270,1,38,127,2782865148
4524,13,Improv_Metronome,271,5,42,127,2783109408
4524,13,Improv_Metronome,272,1,38,127,2783140352
4524,13,Improv_Metronome,273,1,38,127,2783484648
4524,13,Improv_Metronome,274,1,38,63,2783532720
4524,13,Improv_Metronome,275,5,42,127,2783610120
4524,13,Improv_Metronome,276,1,38,127,2783830092
4524,13,Improv_Metronome,277,5,42,127,2784110024
4524,13,Improv_Metronome,278,1,38,127,2784159896
4524,13,Improv_Metronome,279,1,48,27,2784169224
4524,13,Improv_Metronome,280,5,42,127,2784609596
4524,13,Improv_Metronome,281,1,38,127,2784649816
4524,13,Improv_Metronome,282,1,38,111,2784882288
4524,13,Improv_Metronome,283,5,42,127,2785110392
4524,13,Improv_Metronome,284,1,38,127,2785149712
4524,13,Improv_Metronome,285,1,38,127,2785559832
4524,13,Improv_Metronome,286,5,42,127,2785610080
4524,13,Improv_Metronome,287,1,38,43,2785635476
4524,13,Improv_Metronome,288,1,38,127,2785921432
4524,13,Improv_Metronome,289,5,42,127,2786109888
4524,13,Improv_Metronome,290,1,38,127,2786200748
4524,13,Improv_Metronome,291,5,42,127,2786609584
4524,13,Improv_Metronome,292,1,38,127,2786684580
4524,13,Improv_Metronome,293,1,38,127,2786926328
4524,13,Improv_Metronome,294,1,38,43,2786995424
4524,13,Improv_Metronome,295,5,42,127,2787110108
4524,13,Improv_Metronome,296,1,38,127,2787179220
4524,13,Improv_Metronome,297,1,38,127,2787538624
4524,13,Improv_Metronome,298,1,48,25,2787548556
4524,13,Improv_Metronome,299,5,42,127,2787609924
4524,13,Improv_Metronome,300,1,38,38,2787635644
4524,13,Improv_Metronome,301,1,38,112,2787915136
4524,13,Improv_Metronome,302,1,48,22,2787925140
4524,13,Improv_Metronome,303,5,42,127,2788109956
4524,13,Improv_Metronome,304,1,38,127,2788190520
4524,13,Improv_Metronome,305,5,42,127,2788610400
4524,13,Improv_Metronome,306,1,38,85,2788648076
4524,13,Improv_Metronome,307,1,38,122,2788913264
4524,13,Improv_Metronome,308,1,48,23,2788923112
4524,13,Improv_Metronome,309,5,42,127,2789110100
4524,13,Improv_Metronome,310,1,38,127,2789180260
4524,13,Improv_Metronome,311,1,48,25,2789190264
4524,13,Improv_Metronome,312,1,38,127,2789580912
4524,13,Improv_Metronome,313,1,48,26,2789590760
4524,13,Improv_Metronome,314,5,42,127,2789609944
4524,13,Improv_Metronome,315,1,38,112,2789950344
4524,13,Improv_Metronome,316,5,42,127,2790109684
4524,13,Improv_Metronome,317,1,38,127,2790205424
4524,13,Improv_Metronome,318,1,38,127,2790326356
4524,13,Improv_Metronome,319,5,42,127,2790610256
4524,13,Improv_Metronome,320,1,38,127,2790749004
4524,13,Improv_Metronome,321,1,38,94,2791003768
4524,13,Improv_Metronome,322,1,48,20,2791013624
4524,13,Improv_Metronome,323,5,42,127,2791109956
4524,13,Improv_Metronome,324,1,38,127,2791253492
4524,13,Improv_Metronome,325,1,48,28,2791263348
4524,13,Improv_Metronome,326,5,42,127,2791609976
4524,13,Improv_Metronome,327,1,38,127,2791712052
4524,13,Improv_Metronome,328,1,38,102,2791983448
4524,13,Improv_Metronome,329,1,48,21,2791993452
4524,13,Improv_Metronome,330,5,42,127,2792109376
4524,13,Improv_Metronome,331,1,38,127,2792253668
4524,13,Improv_Metronome,332,5,42,127,2792610120
4524,13,Improv_Metronome,333,1,38,122,2792745256
4524,13,Improv_Metronome,334,1,48,26,2792755524
4524,13,Improv_Metronome,335,1,38,105,2792997968
4524,13,Improv_Metronome,336,1,48,23,2793008160
4524,13,Improv_Metronome,337,5,42,127,2793109724
4524,13,Improv_Metronome,338,1,38,127,2793259444
4524,13,Improv_Metronome,339,1,38,50,2793464392
4524,13,Improv_Metronome,340,1,48,15,2793472972
4524,13,Improv_Metronome,341,1,38,57,2793604068
4524,13,Improv_Metronome,342,5,42,127,2793609640
4524,13,Improv_Metronome,343,1,38,127,2793890868
4524,13,Improv_Metronome,344,1,38,58,2794012316
4524,13,Improv_Metronome,345,5,42,127,2794110208
4524,13,Improv_Metronome,346,1,38,127,2794266420
4524,13,Improv_Metronome,347,1,38,81,2794413480
4524,13,Improv_Metronome,348,1,48,23,2794421760
4524,13,Improv_Metronome,349,5,42,127,2794609896
4524,13,Improv_Metronome,350,1,38,111,2794823220
4524,13,Improv_Metronome,351,1,48,22,2794832624
4524,13,Improv_Metronome,352,1,38,127,2795067384
4524,13,Improv_Metronome,353,5,42,127,2795109684
4524,13,Improv_Metronome,354,1,38,45,2795147348
4524,13,Improv_Metronome,355,1,38,127,2795344812
4524,13,Improv_Metronome,356,1,38,42,2795445548
4524,13,Improv_Metronome,357,5,42,127,2795609692
4524,13,Improv_Metronome,358,1,38,122,2795791352
4524,13,Improv_Metronome,359,5,42,127,2796110136
4524,13,Improv_Metronome,360,1,38,127,2796158284
4524,13,Improv_Metronome,361,1,38,19,2796257444
4524,13,Improv_Metronome,362,1,38,127,2796417068
4524,13,Improv_Metronome,363,5,42,127,2796609860
4524,13,Improv_Metronome,364,1,38,102,2796925804
4524,13,Improv_Metronome,365,5,42,127,2797109704
4524,13,Improv_Metronome,366,1,38,121,2797180740
4524,13,Improv_Metronome,367,1,48,23,2797190520
4524,13,Improv_Metronome,368,1,38,48,2797246220
4524,13,Improv_Metronome,369,1,38,127,2797459148
4524,13,Improv_Metronome,370,5,42,127,2797610780
4524,13,Improv_Metronome,371,1,38,127,2797867120
4524,13,Improv_Metronome,372,1,48,24,2797877384
4524,13,Improv_Metronome,373,5,42,127,2798109992
4524,13,Improv_Metronome,374,1,38,127,2798231240
4524,13,Improv_Metronome,375,1,38,127,2798499920
4524,13,Improv_Metronome,376,1,48,25,2798509696
4524,13,Improv_Metronome,377,5,42,127,2798609920
4524,13,Improv_Metronome,378,1,38,101,2798635552
4524,13,Improv_Metronome,379,1,48,22,2798645596
4524,13,Improv_Metronome,380,1,38,105,2799040272
4524,13,Improv_Metronome,381,5,42,127,2799109644
4524,13,Improv_Metronome,382,1,38,115,2799282864
4524,13,Improv_Metronome,383,1,38,127,2799560292
4524,13,Improv_Metronome,384,1,48,25,2799570148
4524,13,Improv_Metronome,385,5,42,127,2799610272
4524,13,Improv_Metronome,386,1,38,102,2800016572
4524,13,Improv_Metronome,387,5,42,127,2800109876
4524,13,Improv_Metronome,388,1,38,127,2800419452
4524,13,Improv_Metronome,389,1,48,24,2800429232
4524,13,Improv_Metronome,390,1,38,33,2800487700
4524,13,Improv_Metronome,391,5,42,127,2800609612
4524,13,Improv_Metronome,392,1,38,127,2800697652
4524,13,Improv_Metronome,393,5,42,127,2801110652
4524,13,Improv_Metronome,394,1,38,117,2801186928
4524,13,Improv_Metronome,395,1,48,24,2801196256
4524,13,Improv_Metronome,396,1,38,114,2801434384
4524,13,Improv_Metronome,397,5,42,127,2801609980
4524,13,Improv_Metronome,398,1,38,127,2801712976
4524,13,Improv_Metronome,399,5,42,127,2802109824
4524,13,Improv_Metronome,400,1,38,101,2802147872
4524,13,Improv_Metronome,401,1,48,20,2802157656
4524,13,Improv_Metronome,402,1,38,105,2802508980
4524,13,Improv_Metronome,403,5,42,127,2802609524
4524,13,Improv_Metronome,404,1,38,127,2802778124
4524,13,Improv_Metronome,405,1,48,26,2802787452
4524,13,Improv_Metronome,406,1,38,80,2802982400
4524,13,Improv_Metronome,407,1,38,69,2803109744
4524,13,Improv_Metronome,408,5,42,127,2803112432
4524,13,Improv_Metronome,409,1,38,127,2803442280
4524,13,Improv_Metronome,410,1,48,26,2803452728
4524,13,Improv_Metronome,411,5,42,127,2803609824
4524,13,Improv_Metronome,412,1,38,117,2803702396
4524,13,Improv_Metronome,413,1,38,127,2803981096
4524,13,Improv_Metronome,414,1,48,28,2803991100
4524,13,Improv_Metronome,415,5,42,127,2804109596
4524,13,Improv_Metronome,416,1,38,127,2804392484
4524,13,Improv_Metronome,417,1,48,25,2804401888
4524,13,Improv_Metronome,418,1,38,53,2804461632
4524,13,Improv_Metronome,419,5,42,127,2804610508
4524,13,Improv_Metronome,420,1,38,95,2804777060
4524,13,Improv_Metronome,421,1,48,23,2804786800
4524,13,Improv_Metronome,422,1,38,127,2805029396
4524,13,Improv_Metronome,423,5,42,127,2805110084
4524,13,Improv_Metronome,424,1,38,99,2805564644
4524,13,Improv_Metronome,425,5,42,127,2805609704
4524,13,Improv_Metronome,426,1,38,116,2805819724
4524,13,Improv_Metronome,427,1,48,22,2805829652
4524,13,Improv_Metronome,428,1,38,127,2806100840
4524,13,Improv_Metronome,429,5,42,127,2806109552
4524,13,Improv_Metronome,430,1,38,127,2806494672
4524,13,Improv_Metronome,431,1,48,24,2806504604
4524,13,Improv_Metronome,432,5,42,127,2806610308
4524,13,Improv_Metronome,433,1,38,104,2806853704
4524,13,Improv_Metronome,434,1,48,21,2806863628
4524,13,Improv_Metronome,435,1,38,15,2806973156
4524,13,Improv_Metronome,436,5,42,127,2807110228
4524,13,Improv_Metronome,437,1,38,127,2807113200
4524,13,Improv_Metronome,438,1,38,127,2807220512
4524,13,Improv_Metronome,0,9999,9999,9999,2737607788
4524,13,Improv_Metronome,1,9999,9999,9999,2738107504
4524,13,Improv_Metronome,2,9999,9999,9999,2738607216
4524,13,Improv_Metronome,3,9999,9999,9999,2739107888
4524,13,Improv_Metronome,4,9999,9999,9999,2739607604
4524,13,Improv_Metronome,5,9999,9999,9999,2740107352
4524,13,Improv_Metronome,6,9999,9999,9999,2740608096
4524,13,Improv_Metronome,7,9999,9999,9999,2741107792
4524,13,Improv_Metronome,8,9999,9999,9999,2741607492
4524,13,Improv_Metronome,9,9999,9999,9999,2742107256
4524,13,Improv_Metronome,10,9999,9999,9999,2742607980
4524,13,Improv_Metronome,11,9999,9999,9999,2743107704
4524,13,Improv_Metronome,12,9999,9999,9999,2743607372
4524,13,Improv_Metronome,13,9999,9999,9999,2744107104
4524,13,Improv_Metronome,14,9999,9999,9999,2744607848
4524,13,Improv_Metronome,15,9999,9999,9999,2745107536
4524,13,Improv_Metronome,16,9999,9999,9999,2745607232
4524,13,Improv_Metronome,17,9999,9999,9999,2746107956
4524,13,Improv_Metronome,18,9999,9999,9999,2746607728
4524,13,Improv_Metronome,19,9999,9999,9999,2747107420
4524,13,Improv_Metronome,20,9999,9999,9999,2747607096
4524,13,Improv_Metronome,21,9999,9999,9999,2748107864
4524,13,Improv_Metronome,22,9999,9999,9999,2748607556
4524,13,Improv_Metronome,23,9999,9999,9999,2749107260
4524,13,Improv_Metronome,24,9999,9999,9999,2749608032
4524,13,Improv_Metronome,25,9999,9999,9999,2750107728
4524,13,Improv_Metronome,26,9999,9999,9999,2750607420
4524,13,Improv_Metronome,27,9999,9999,9999,2751107172
4524,13,Improv_Metronome,28,9999,9999,9999,2751607908
4524,13,Improv_Metronome,29,9999,9999,9999,2752107584
4524,13,Improv_Metronome,30,9999,9999,9999,2752607328
4524,13,Improv_Metronome,31,9999,9999,9999,2753108052
4524,13,Improv_Metronome,32,9999,9999,9999,2753607732
4524,13,Improv_Metronome,33,9999,9999,9999,2754107512
4524,13,Improv_Metronome,34,9999,9999,9999,2754607156
4524,13,Improv_Metronome,35,9999,9999,9999,2755107956
4524,13,Improv_Metronome,36,9999,9999,9999,2755607652
4524,13,Improv_Metronome,37,9999,9999,9999,2756107352
4524,13,Improv_Metronome,38,9999,9999,9999,2756608096
4524,13,Improv_Metronome,39,9999,9999,9999,2757107800
4524,13,Improv_Metronome,40,9999,9999,9999,2757607492
4524,13,Improv_Metronome,41,9999,9999,9999,2758107188
4524,13,Improv_Metronome,42,9999,9999,9999,2758607956
4524,13,Improv_Metronome,43,9999,9999,9999,2759107704
4524,13,Improv_Metronome,44,9999,9999,9999,2759607396
4524,13,Improv_Metronome,45,9999,9999,9999,2760107072
4524,13,Improv_Metronome,46,9999,9999,9999,2760607812
4524,13,Improv_Metronome,47,9999,9999,9999,2761107552
4524,13,Improv_Metronome,48,9999,9999,9999,2761607280
4524,13,Improv_Metronome,49,9999,9999,9999,2762107952
4524,13,Improv_Metronome,50,9999,9999,9999,2762607724
4524,13,Improv_Metronome,51,9999,9999,9999,2763107388
4524,13,Improv_Metronome,52,9999,9999,9999,2763607156
4524,13,Improv_Metronome,53,9999,9999,9999,2764107884
4524,13,Improv_Metronome,54,9999,9999,9999,2764607604
4524,13,Improv_Metronome,55,9999,9999,9999,2765107312
4524,13,Improv_Metronome,56,9999,9999,9999,2765608008
4524,13,Improv_Metronome,57,9999,9999,9999,2766107720
4524,13,Improv_Metronome,58,9999,9999,9999,2766607460
4524,13,Improv_Metronome,59,9999,9999,9999,2767107144
4524,13,Improv_Metronome,60,9999,9999,9999,2767607884
4524,13,Improv_Metronome,61,9999,9999,9999,2768107584
4524,13,Improv_Metronome,62,9999,9999,9999,2768607284
4524,13,Improv_Metronome,63,9999,9999,9999,2769108076
4524,13,Improv_Metronome,64,9999,9999,9999,2769607800
4524,13,Improv_Metronome,65,9999,9999,9999,2770107500
4524,13,Improv_Metronome,66,9999,9999,9999,2770607172
4524,13,Improv_Metronome,67,9999,9999,9999,2771107908
4524,13,Improv_Metronome,68,9999,9999,9999,2771607660
4524,13,Improv_Metronome,69,9999,9999,9999,2772107356
4524,13,Improv_Metronome,70,9999,9999,9999,2772608100
4524,13,Improv_Metronome,71,9999,9999,9999,2773107768
4524,13,Improv_Metronome,72,9999,9999,9999,2773607532
4524,13,Improv_Metronome,73,9999,9999,9999,2774107196
4524,13,Improv_Metronome,74,9999,9999,9999,2774607936
4524,13,Improv_Metronome,75,9999,9999,9999,2775107684
4524,13,Improv_Metronome,76,9999,9999,9999,2775607380
4524,13,Improv_Metronome,77,9999,9999,9999,2776107128
4524,13,Improv_Metronome,78,9999,9999,9999,2776607844
4524,13,Improv_Metronome,79,9999,9999,9999,2777107520
4524,13,Improv_Metronome,80,9999,9999,9999,2777607236
4524,13,Improv_Metronome,81,9999,9999,9999,2778107964
4524,13,Improv_Metronome,82,9999,9999,9999,2778607712
4524,13,Improv_Metronome,83,9999,9999,9999,2779107384
4524,13,Improv_Metronome,84,9999,9999,9999,2779607108
4524,13,Improv_Metronome,85,9999,9999,9999,2780107888
4524,13,Improv_Metronome,86,9999,9999,9999,2780607592
4524,13,Improv_Metronome,87,9999,9999,9999,2781107276
4524,13,Improv_Metronome,88,9999,9999,9999,2781607988
4524,13,Improv_Metronome,89,9999,9999,9999,2782107760
4524,13,Improv_Metronome,90,9999,9999,9999,2782607420
4524,13,Improv_Metronome,91,9999,9999,9999,2783107120
4524,13,Improv_Metronome,92,9999,9999,9999,2783607908
4524,13,Improv_Metronome,93,9999,9999,9999,2784107588
4524,13,Improv_Metronome,94,9999,9999,9999,2784607308
4524,13,Improv_Metronome,95,9999,9999,9999,2785108028
4524,13,Improv_Metronome,96,9999,9999,9999,2785607792
4524,13,Improv_Metronome,97,9999,9999,9999,2786107452
4524,13,Improv_Metronome,98,9999,9999,9999,2786607220
4524,13,Improv_Metronome,99,9999,9999,9999,2787107892
4524,13,Improv_Metronome,100,9999,9999,9999,2787607636
4524,13,Improv_Metronome,101,9999,9999,9999,2788107368
4524,13,Improv_Metronome,102,9999,9999,9999,2788608112
4524,13,Improv_Metronome,103,9999,9999,9999,2789107812
4524,13,Improv_Metronome,104,9999,9999,9999,2789607508
4524,13,Improv_Metronome,105,9999,9999,9999,2790107248
4524,13,Improv_Metronome,106,9999,9999,9999,2790607968
4524,13,Improv_Metronome,107,9999,9999,9999,2791107668
4524,13,Improv_Metronome,108,9999,9999,9999,2791607388
4524,13,Improv_Metronome,109,9999,9999,9999,2792107088
4524,13,Improv_Metronome,110,9999,9999,9999,2792607832
4524,13,Improv_Metronome,111,9999,9999,9999,2793107512
4524,13,Improv_Metronome,112,9999,9999,9999,2793607276
4524,13,Improv_Metronome,113,9999,9999,9999,2794107996
4524,13,Improv_Metronome,114,9999,9999,9999,2794607680
4524,13,Improv_Metronome,115,9999,9999,9999,2795107396
4524,13,Improv_Metronome,116,9999,9999,9999,2795607108
4524,13,Improv_Metronome,117,9999,9999,9999,2796107848
4524,13,Improv_Metronome,118,9999,9999,9999,2796607576
4524,13,Improv_Metronome,119,9999,9999,9999,2797107268
4524,13,Improv_Metronome,120,9999,9999,9999,2797608044
4524,13,Improv_Metronome,121,9999,9999,9999,2798107704
4524,13,Improv_Metronome,122,9999,9999,9999,2798607480
4524,13,Improv_Metronome,123,9999,9999,9999,2799107136
4524,13,Improv_Metronome,124,9999,9999,9999,2799607908
4524,13,Improv_Metronome,125,9999,9999,9999,2800107588
4524,13,Improv_Metronome,126,9999,9999,9999,2800607324
4524,13,Improv_Metronome,127,9999,9999,9999,2801108064
4524,13,Improv_Metronome,128,9999,9999,9999,2801607768
4524,13,Improv_Metronome,129,9999,9999,9999,2802107464
4524,13,Improv_Metronome,130,9999,9999,9999,2802607164
4524,13,Improv_Metronome,131,9999,9999,9999,2803107908
4524,13,Improv_Metronome,132,9999,9999,9999,2803607608
4524,13,Improv_Metronome,133,9999,9999,9999,2804107384
4524,13,Improv_Metronome,134,9999,9999,9999,2804608072
4524,13,Improv_Metronome,135,9999,9999,9999,2805107796
4524,13,Improv_Metronome,136,9999,9999,9999,2805607492
4524,13,Improv_Metronome,137,9999,9999,9999,2806107192
4524,13,Improv_Metronome,138,9999,9999,9999,2806607944
4524,13,Improv_Metronome,139,9999,9999,9999,2807107644
4525,14,Improv_Melody,0,1,48,16,2888457168
4525,14,Improv_Melody,1,2,48,80,2888962540
4525,14,Improv_Melody,2,2,72,80,2888965136
4525,14,Improv_Melody,3,5,42,127,2888966848
4525,14,Improv_Melody,4,5,42,110,2889459168
4525,14,Improv_Melody,5,1,38,77,2889947920
4525,14,Improv_Melody,6,5,42,110,2889958808
4525,14,Improv_Melody,7,5,42,110,2890458512
4525,14,Improv_Melody,8,1,48,83,2890943304
4525,14,Improv_Melody,9,5,42,127,2890959128
4525,14,Improv_Melody,10,5,42,110,2891458908
4525,14,Improv_Melody,11,1,38,76,2891465992
4525,14,Improv_Melody,12,5,42,110,2891958832
4525,14,Improv_Melody,13,5,42,110,2892459452
4525,14,Improv_Melody,14,1,38,32,2892532808
4525,14,Improv_Melody,15,1,38,97,2892941680
4525,14,Improv_Melody,16,2,43,80,2892961268
4525,14,Improv_Melody,17,2,67,80,2892963576
4525,14,Improv_Melody,18,5,42,127,2892966040
4525,14,Improv_Melody,19,5,42,110,2893458716
4525,14,Improv_Melody,20,1,38,40,2893496764
4525,14,Improv_Melody,21,1,38,87,2893937876
4525,14,Improv_Melody,22,5,42,110,2893958632
4525,14,Improv_Melody,23,5,42,110,2894459384
4525,14,Improv_Melody,24,1,38,43,2894481876
4525,14,Improv_Melody,25,1,38,62,2894941688
4525,14,Improv_Melody,26,5,42,127,2894958856
4525,14,Improv_Melody,27,1,38,102,2895451564
4525,14,Improv_Melody,28,5,42,110,2895458708
4525,14,Improv_Melody,29,1,38,110,2895953504
4525,14,Improv_Melody,30,5,42,110,2895959600
4525,14,Improv_Melody,31,5,42,110,2896459160
4525,14,Improv_Melody,32,1,38,86,2896501468
4525,14,Improv_Melody,33,2,45,80,2896961364
4525,14,Improv_Melody,34,1,48,127,2896962932
4525,14,Improv_Melody,35,2,69,80,2896965092
4525,14,Improv_Melody,36,5,42,127,2896967476
4525,14,Improv_Melody,37,5,42,110,2897458508
4525,14,Improv_Melody,38,1,48,96,2897471052
4525,14,Improv_Melody,39,1,48,70,2897935776
4525,14,Improv_Melody,40,5,42,110,2897959624
4525,14,Improv_Melody,41,1,48,127,2898453424
4525,14,Improv_Melody,42,5,42,110,2898459072
4525,14,Improv_Melody,43,1,38,104,2898919016
4525,14,Improv_Melody,44,5,42,127,2898958700
4525,14,Improv_Melody,45,5,42,110,2899458480
4525,14,Improv_Melody,46,1,38,86,2899459520
4525,14,Improv_Melody,47,1,38,121,2899945044
4525,14,Improv_Melody,48,5,42,110,2899959148
4525,14,Improv_Melody,49,5,42,110,2900458780
4525,14,Improv_Melody,50,1,38,106,2900462420
4525,14,Improv_Melody,51,2,41,80,2900961052
4525,14,Improv_Melody,52,2,65,80,2900963208
4525,14,Improv_Melody,53,5,42,127,2900965672
4525,14,Improv_Melody,54,1,38,127,2900986588
4525,14,Improv_Melody,55,1,48,25,2900995624
4525,14,Improv_Melody,56,5,42,110,2901459412
4525,14,Improv_Melody,57,1,38,94,2901474200
4525,14,Improv_Melody,58,5,42,110,2901958968
4525,14,Improv_Melody,59,1,38,89,2901993948
4525,14,Improv_Melody,60,1,48,20,2902003204
4525,14,Improv_Melody,61,1,38,122,2902436580
4525,14,Improv_Melody,62,5,42,110,2902458612
4525,14,Improv_Melody,63,5,42,127,2902958616
4525,14,Improv_Melody,64,1,38,127,2902962032
4525,14,Improv_Melody,65,1,38,127,2902975628
4525,14,Improv_Melody,66,1,38,76,2903079300
4525,14,Improv_Melody,67,1,48,30,2903087728
4525,14,Improv_Melody,68,1,38,100,2903183648
4525,14,Improv_Melody,69,1,48,22,2903193276
4525,14,Improv_Melody,70,1,38,62,2903290416
4525,14,Improv_Melody,71,1,48,23,2903299448
4525,14,Improv_Melody,72,1,38,110,2903343580
4525,14,Improv_Melody,73,1,38,66,2903395516
4525,14,Improv_Melody,74,5,42,110,2903459356
4525,14,Improv_Melody,75,1,38,84,2903471436
4525,14,Improv_Melody,76,1,38,58,2903505072
4525,14,Improv_Melody,77,1,38,48,2903573568
4525,14,Improv_Melody,78,1,38,69,2903621136
4525,14,Improv_Melody,79,1,38,40,2903689708
4525,14,Improv_Melody,80,1,48,17,2903701880
4525,14,Improv_Melody,81,1,38,60,2903742172
4525,14,Improv_Melody,82,1,38,41,2903807792
4525,14,Improv_Melody,83,1,48,19,2903849104
4525,14,Improv_Melody,84,5,42,110,2903958752
4525,14,Improv_Melody,85,5,42,110,2904458548
4525,14,Improv_Melody,86,1,48,127,2904919108
4525,14,Improv_Melody,87,2,48,80,2904962120
4525,14,Improv_Melody,88,2,72,80,2904964120
4525,14,Improv_Melody,89,5,42,127,2904966804
4525,14,Improv_Melody,90,1,48,61,2905433332
4525,14,Improv_Melody,91,1,38,17,2905444532
4525,14,Improv_Melody,92,5,42,110,2905459152
4525,14,Improv_Melody,93,1,48,116,2905922812
4525,14,Improv_Melody,94,5,42,110,2905958676
4525,14,Improv_Melody,95,1,48,111,2906418092
4525,14,Improv_Melody,96,5,42,110,2906458524
4525,14,Improv_Melody,97,1,38,122,2906918516
4525,14,Improv_Melody,98,1,48,24,2906928760
4525,14,Improv_Melody,99,5,42,127,2906959464
4525,14,Improv_Melody,100,1,38,74,2907457788
4525,14,Improv_Melody,101,5,42,110,2907460480
4525,14,Improv_Melody,102,1,38,85,2907944288
4525,14,Improv_Melody,103,5,42,110,2907958616
4525,14,Improv_Melody,104,5,42,110,2908459368
4525,14,Improv_Melody,105,1,38,64,2908480436
4525,14,Improv_Melody,106,1,48,127,2908954284
4525,14,Improv_Melody,107,2,43,80,2908961692
4525,14,Improv_Melody,108,2,67,80,2908964068
4525,14,Improv_Melody,109,5,42,127,2908966924
4525,14,Improv_Melody,110,1,38,77,2909453544
4525,14,Improv_Melody,111,5,42,110,2909458744
4525,14,Improv_Melody,112,5,42,110,2909958528
4525,14,Improv_Melody,113,1,38,80,2909964416
4525,14,Improv_Melody,114,1,38,78,2910441420
4525,14,Improv_Melody,115,1,48,19,2910451276
4525,14,Improv_Melody,116,5,42,110,2910459172
4525,14,Improv_Melody,117,1,38,124,2910938612
4525,14,Improv_Melody,118,1,48,23,2910948468
4525,14,Improv_Melody,119,5,42,127,2910959200
4525,14,Improv_Melody,120,1,38,127,2911017232
4525,14,Improv_Melody,121,1,48,25,2911027608
4525,14,Improv_Melody,122,1,38,104,2911109712
4525,14,Improv_Melody,123,1,48,22,2911119788
4525,14,Improv_Melody,124,1,38,71,2911223628
4525,14,Improv_Melody,125,1,48,27,2911232516
4525,14,Improv_Melody,126,1,38,87,2911282556
4525,14,Improv_Melody,127,1,38,38,2911353712
4525,14,Improv_Melody,128,1,38,86,2911434776
4525,14,Improv_Melody,129,5,42,110,2911458600
4525,14,Improv_Melody,130,1,38,34,2911501348
4525,14,Improv_Melody,131,1,38,36,2911547424
4525,14,Improv_Melody,132,1,48,18,2911555108
4525,14,Improv_Melody,133,1,38,95,2911632580
4525,14,Improv_Melody,134,1,38,32,2911688028
4525,14,Improv_Melody,135,1,38,94,2911742456
4525,14,Improv_Melody,136,1,48,25,2911750220
4525,14,Improv_Melody,137,1,38,97,2911843940
4525,14,Improv_Melody,138,5,42,110,2911959352
4525,14,Improv_Melody,139,1,38,127,2911968904
4525,14,Improv_Melody,140,1,38,96,2912086264
4525,14,Improv_Melody,141,1,38,105,2912145784
4525,14,Improv_Melody,142,5,42,110,2912459008
4525,14,Improv_Melody,143,2,45,80,2912961304
4525,14,Improv_Melody,144,2,69,80,2912963688
4525,14,Improv_Melody,145,5,42,127,2912966224
4525,14,Improv_Melody,146,1,38,94,2912991484
4525,14,Improv_Melody,147,1,48,23,2913001408
4525,14,Improv_Melody,148,5,42,110,2913458620
4525,14,Improv_Melody,149,1,48,127,2913474080
4525,14,Improv_Melody,150,1,48,84,2913952116
4525,14,Improv_Melody,151,5,42,110,2913959188
4525,14,Improv_Melody,152,1,38,48,2914457220
4525,14,Improv_Melody,153,5,42,110,2914459480
4525,14,Improv_Melody,154,1,38,127,2914949572
4525,14,Improv_Melody,155,5,42,127,2914958884
4525,14,Improv_Melody,156,5,42,110,2915458368
4525,14,Improv_Melody,157,1,38,68,2915488336
4525,14,Improv_Melody,158,1,38,88,2915945756
4525,14,Improv_Melody,159,5,42,110,2915959108
4525,14,Improv_Melody,160,5,42,110,2916458888
4525,14,Improv_Melody,161,1,38,72,2916492972
4525,14,Improv_Melody,162,2,41,80,2916961324
4525,14,Improv_Melody,163,2,65,80,2916963396
4525,14,Improv_Melody,164,5,42,127,2916966004
4525,14,Improv_Melody,165,1,38,127,2917022084
4525,14,Improv_Melody,166,1,48,25,2917032164
4525,14,Improv_Melody,167,5,42,110,2917459376
4525,14,Improv_Melody,168,1,38,15,2917502808
4525,14,Improv_Melody,169,1,38,53,2917934124
4525,14,Improv_Melody,170,5,42,110,2917958996
4525,14,Improv_Melody,171,1,38,84,2918403876
4525,14,Improv_Melody,172,5,42,110,2918458844
4525,14,Improv_Melody,173,1,38,113,2918872536
4525,14,Improv_Melody,174,5,42,127,2918958396
4525,14,Improv_Melody,175,1,38,96,2919391836
4525,14,Improv_Melody,176,5,42,110,2919459116
4525,14,Improv_Melody,177,1,38,127,2919904920
4525,14,Improv_Melody,178,5,42,110,2919958892
4525,14,Improv_Melody,179,1,38,96,2920412104
4525,14,Improv_Melody,180,5,42,110,2920458892
4525,14,Improv_Melody,181,1,38,127,2920945236
4525,14,Improv_Melody,182,1,48,27,2920954944
4525,14,Improv_Melody,183,2,48,80,2920962132
4525,14,Improv_Melody,184,2,72,80,2920964204
4525,14,Improv_Melody,185,5,42,127,2920966888
4525,14,Improv_Melody,186,1,38,107,2920981288
4525,14,Improv_Melody,187,1,38,106,2921075736
4525,14,Improv_Melody,188,1,48,22,2921084908
4525,14,Improv_Melody,189,1,38,127,2921141588
4525,14,Improv_Melody,190,1,38,68,2921273656
4525,14,Improv_Melody,191,1,38,63,2921298836
4525,14,Improv_Melody,192,1,48,23,2921306452
4525,14,Improv_Melody,193,1,38,75,2921393644
4525,14,Improv_Melody,194,5,42,110,2921459040
4525,14,Improv_Melody,195,1,38,63,2921506200
4525,14,Improv_Melody,196,1,48,25,2921515044
4525,14,Improv_Melody,197,5,42,110,2921958912
4525,14,Improv_Melody,198,1,38,62,2922058772
4525,14,Improv_Melody,199,1,38,106,2922448024
4525,14,Improv_Melody,200,1,48,22,2922457992
4525,14,Improv_Melody,201,5,42,110,2922459932
4525,14,Improv_Melody,202,1,38,89,2922914240
4525,14,Improv_Melody,203,5,42,127,2922959084
4525,14,Improv_Melody,204,1,38,123,2923408556
4525,14,Improv_Melody,205,1,48,23,2923418480
4525,14,Improv_Melody,206,5,42,110,2923459064
4525,14,Improv_Melody,207,1,38,77,2923915540
4525,14,Improv_Melody,208,5,42,110,2923958808
4525,14,Improv_Melody,209,1,38,127,2924421448
4525,14,Improv_Melody,210,5,42,110,2924459332
4525,14,Improv_Melody,211,2,43,80,2924961848
4525,14,Improv_Melody,212,2,67,80,2924963768
4525,14,Improv_Melody,213,1,38,42,2924964960
4525,14,Improv_Melody,214,5,42,127,2924968616
4525,14,Improv_Melody,215,5,42,110,2925458752
4525,14,Improv_Melody,216,1,38,98,2925471668
4525,14,Improv_Melody,217,1,38,88,2925953768
4525,14,Improv_Melody,218,5,42,110,2925958520
4525,14,Improv_Melody,219,1,48,21,2925964032
4525,14,Improv_Melody,220,5,42,110,2926459464
4525,14,Improv_Melody,221,1,38,116,2926863824
4525,14,Improv_Melody,222,1,48,25,2926873228
4525,14,Improv_Melody,223,5,42,127,2926958936
4525,14,Improv_Melody,224,1,38,65,2927414736
4525,14,Improv_Melody,225,5,42,110,2927458608
4525,14,Improv_Melody,226,1,38,127,2927863924
4525,14,Improv_Melody,227,1,48,24,2927873848
4525,14,Improv_Melody,228,1,38,111,2927917608
4525,14,Improv_Melody,229,5,42,110,2927959536
4525,14,Improv_Melody,230,1,38,127,2927982580
4525,14,Improv_Melody,231,1,38,127,2928060804
4525,14,Improv_Melody,232,1,38,84,2928175996
4525,14,Improv_Melody,233,1,48,27,2928184504
4525,14,Improv_Melody,234,1,38,91,2928293284
4525,14,Improv_Melody,235,1,38,70,2928399776
4525,14,Improv_Melody,236,1,48,26,2928408428
4525,14,Improv_Melody,237,1,38,86,2928417608
4525,14,Improv_Melody,238,5,42,110,2928459184
4525,14,Improv_Melody,239,1,38,66,2928508484
4525,14,Improv_Melody,240,1,38,60,2928624176
4525,14,Improv_Melody,241,1,38,80,2928639040
4525,14,Improv_Melody,242,1,38,54,2928734032
4525,14,Improv_Melody,243,1,48,20,2928742240
4525,14,Improv_Melody,244,1,38,77,2928759496
4525,14,Improv_Melody,245,1,38,46,2928789020
4525,14,Improv_Melody,246,1,38,51,2928854196
4525,14,Improv_Melody,247,1,48,22,2928861952
4525,14,Improv_Melody,248,1,38,62,2928882576
4525,14,Improv_Melody,249,2,45,80,2928961728
4525,14,Improv_Melody,250,2,69,80,2928963656
4525,14,Improv_Melody,251,5,42,127,2928966040
4525,14,Improv_Melody,252,5,42,110,2929458640
4525,14,Improv_Melody,253,1,38,127,2929871600
4525,14,Improv_Melody,254,5,42,110,2929959404
4525,14,Improv_Melody,255,1,38,56,2930384760
4525,14,Improv_Melody,256,5,42,110,2930458928
4525,14,Improv_Melody,257,1,38,118,2930869204
4525,14,Improv_Melody,258,5,42,127,2930958776
4525,14,Improv_Melody,259,1,38,87,2931372052
4525,14,Improv_Melody,260,5,42,110,2931458628
4525,14,Improv_Melody,261,1,38,127,2931876012
4525,14,Improv_Melody,262,1,48,25,2931885936
4525,14,Improv_Melody,263,5,42,110,2931959204
4525,14,Improv_Melody,264,1,38,109,2932374088
4525,14,Improv_Melody,265,1,48,21,2932383944
4525,14,Improv_Melody,266,5,42,110,2932458780
4525,14,Improv_Melody,267,1,38,127,2932928796
4525,14,Improv_Melody,268,2,41,80,2932961028
4525,14,Improv_Melody,269,2,65,80,2932963256
4525,14,Improv_Melody,270,5,42,127,2932965948
4525,14,Improv_Melody,271,1,38,39,2933006972
4525,14,Improv_Melody,272,1,38,89,2933436640
4525,14,Improv_Melody,273,5,42,110,2933459564
4525,14,Improv_Melody,274,1,38,100,2933934016
4525,14,Improv_Melody,275,5,42,110,2933958892
4525,14,Improv_Melody,276,1,38,95,2934418908
4525,14,Improv_Melody,277,5,42,110,2934458668
4525,14,Improv_Melody,278,1,38,127,2934915096
4525,14,Improv_Melody,279,5,42,127,2934958516
4525,14,Improv_Melody,280,1,38,68,2934970072
4525,14,Improv_Melody,281,1,38,127,2935064072
4525,14,Improv_Melody,282,1,48,24,2935073696
4525,14,Improv_Melody,283,1,38,90,2935160020
4525,14,Improv_Melody,284,1,38,106,2935218984
4525,14,Improv_Melody,285,1,38,127,2935304384
4525,14,Improv_Melody,286,1,38,27,2935374996
4525,14,Improv_Melody,287,1,38,33,2935422840
4525,14,Improv_Melody,288,5,42,110,2935459308
4525,14,Improv_Melody,289,1,38,61,2935521432
4525,14,Improv_Melody,290,1,38,61,2935627640
4525,14,Improv_Melody,291,1,48,25,2935636748
4525,14,Improv_Melody,292,1,38,75,2935667392
4525,14,Improv_Melody,293,1,38,60,2935747680
4525,14,Improv_Melody,294,1,48,24,2935755584
4525,14,Improv_Melody,295,1,38,76,2935801192
4525,14,Improv_Melody,296,1,38,61,2935867588
4525,14,Improv_Melody,297,1,48,25,2935875344
4525,14,Improv_Melody,298,1,38,81,2935917508
4525,14,Improv_Melody,299,5,42,110,2935959060
4525,14,Improv_Melody,300,1,38,65,2935986448
4525,14,Improv_Melody,301,1,38,69,2936040204
4525,14,Improv_Melody,302,1,38,60,2936104756
4525,14,Improv_Melody,303,1,48,23,2936112372
4525,14,Improv_Melody,304,1,38,59,2936172860
4525,14,Improv_Melody,305,1,38,60,2936236092
4525,14,Improv_Melody,306,1,38,35,2936308096
4525,14,Improv_Melody,307,5,42,110,2936458636
4525,14,Improv_Melody,308,2,48,80,2936962068
4525,14,Improv_Melody,309,2,72,80,2936964288
4525,14,Improv_Melody,310,5,42,127,2936966676
4525,14,Improv_Melody,311,1,38,101,2936986248
4525,14,Improv_Melody,312,5,42,110,2937459196
4525,14,Improv_Melody,313,1,38,111,2937500532
4525,14,Improv_Melody,314,1,48,21,2937510388
4525,14,Improv_Melody,315,1,38,88,2937947360
4525,14,Improv_Melody,316,5,42,110,2937958768
4525,14,Improv_Melody,317,5,42,110,2938458620
4525,14,Improv_Melody,318,1,38,114,2938465028
4525,14,Improv_Melody,319,1,48,24,2938474432
4525,14,Improv_Melody,320,1,38,85,2938928312
4525,14,Improv_Melody,321,5,42,127,2938959164
4525,14,Improv_Melody,322,5,42,110,2939458944
4525,14,Improv_Melody,323,1,38,127,2939462064
4525,14,Improv_Melody,324,1,38,72,2939943416
4525,14,Improv_Melody,325,5,42,110,2939958564
4525,14,Improv_Melody,326,1,38,127,2940422224
4525,14,Improv_Melody,327,1,48,25,2940432076
4525,14,Improv_Melody,328,5,42,110,2940459292
4525,14,Improv_Melody,329,1,38,111,2940949552
4525,14,Improv_Melody,330,1,48,23,2940960028
4525,14,Improv_Melody,331,2,43,80,2940963396
4525,14,Improv_Melody,332,2,67,80,2940965508
4525,14,Improv_Melody,333,5,42,127,2940967744
4525,14,Improv_Melody,334,5,42,110,2941458800
4525,14,Improv_Melody,335,1,38,96,2941487228
4525,14,Improv_Melody,336,1,38,126,2941942972
4525,14,Improv_Melody,337,1,48,23,2941952820
4525,14,Improv_Melody,338,5,42,110,2941958624
4525,14,Improv_Melody,339,1,38,55,2942004388
4525,14,Improv_Melody,340,5,42,110,2942459176
4525,14,Improv_Melody,341,1,38,86,2942489896
4525,14,Improv_Melody,342,1,38,106,2942935640
4525,14,Improv_Melody,343,5,42,127,2942959240
4525,14,Improv_Melody,344,1,38,21,2943020636
4525,14,Improv_Melody,345,1,38,108,2943443844
4525,14,Improv_Melody,346,5,42,110,2943458624
4525,14,Improv_Melody,347,1,38,127,2943903008
4525,14,Improv_Melody,348,1,48,24,2943912932
4525,14,Improv_Melody,349,5,42,110,2943959348
4525,14,Improv_Melody,350,1,38,90,2944412756
4525,14,Improv_Melody,351,5,42,110,2944459316
4525,14,Improv_Melody,352,1,38,127,2944943868
4525,14,Improv_Melody,353,1,48,24,2944953724
4525,14,Improv_Melody,354,2,45,80,2944961504
4525,14,Improv_Melody,355,2,69,80,2944963808
4525,14,Improv_Melody,356,5,42,127,2944966264
4525,14,Improv_Melody,357,1,38,101,2945453556
4525,14,Improv_Melody,358,5,42,110,2945458460
4525,14,Improv_Melody,359,1,48,20,2945463896
4525,14,Improv_Melody,360,1,38,127,2945931008
4525,14,Improv_Melody,361,1,48,25,2945941160
4525,14,Improv_Melody,362,5,42,110,2945959156
4525,14,Improv_Melody,363,1,38,17,2946035908
4525,14,Improv_Melody,364,5,42,110,2946459328
4525,14,Improv_Melody,365,1,38,102,2946462076
4525,14,Improv_Melody,366,1,38,114,2946950164
4525,14,Improv_Melody,367,5,42,127,2946958800
4525,14,Improv_Melody,368,1,38,127,2947041564
4525,14,Improv_Melody,369,1,48,29,2947050968
4525,14,Improv_Melody,370,1,38,127,2947131228
4525,14,Improv_Melody,371,1,48,26,2947141756
4525,14,Improv_Melody,372,1,38,95,2947182796
4525,14,Improv_Melody,373,1,38,56,2947249764
4525,14,Improv_Melody,374,1,48,20,2947257896
4525,14,Improv_Melody,375,1,38,108,2947272312
4525,14,Improv_Melody,376,1,38,92,2947371484
4525,14,Improv_Melody,377,1,38,116,2947420528
4525,14,Improv_Melody,378,5,42,110,2947458492
4525,14,Improv_Melody,379,1,38,71,2947481340
4525,14,Improv_Melody,380,1,38,117,2947545500
4525,14,Improv_Melody,381,1,48,22,2947554900
4525,14,Improv_Melody,382,1,38,59,2947610832
4525,14,Improv_Melody,383,1,38,65,2947672512
4525,14,Improv_Melody,384,1,38,63,2947717964
4525,14,Improv_Melody,385,1,38,87,2947805756
4525,14,Improv_Melody,386,1,48,22,2947814416
4525,14,Improv_Melody,387,1,38,68,2947921276
4525,14,Improv_Melody,388,5,42,110,2947959088
4525,14,Improv_Melody,389,1,38,50,2948023376
4525,14,Improv_Melody,390,1,48,17,2948031956
4525,14,Improv_Melody,391,1,38,82,2948066716
4525,14,Improv_Melody,392,1,38,66,2948153316
4525,14,Improv_Melody,393,1,38,55,2948255620
4525,14,Improv_Melody,394,1,48,21,2948263752
4525,14,Improv_Melody,395,1,38,83,2948292380
4525,14,Improv_Melody,396,1,38,63,2948374456
4525,14,Improv_Melody,397,1,38,66,2948418364
4525,14,Improv_Melody,398,5,42,110,2948459024
4525,14,Improv_Melody,399,1,38,54,2948497132
4525,14,Improv_Melody,400,1,48,21,2948504816
4525,14,Improv_Melody,401,1,38,81,2948522448
4525,14,Improv_Melody,402,1,38,62,2948611484
4525,14,Improv_Melody,403,1,48,22,2948619396
4525,14,Improv_Melody,404,1,38,72,2948648416
4525,14,Improv_Melody,405,1,38,51,2948739472
4525,14,Improv_Melody,406,1,48,19,2948747976
4525,14,Improv_Melody,407,2,41,80,2948961056
4525,14,Improv_Melody,408,2,65,80,2948963212
4525,14,Improv_Melody,409,5,42,127,2948965972
4525,14,Improv_Melody,410,1,38,102,2949174512
4525,14,Improv_Melody,411,5,42,110,2949459240
4525,14,Improv_Melody,412,5,42,110,2949958964
4525,14,Improv_Melody,413,1,38,127,2950044504
4525,14,Improv_Melody,414,1,48,23,2950054360
4525,14,Improv_Melody,415,5,42,110,2950458912
4525,14,Improv_Melody,416,1,38,76,2950481852
4525,14,Improv_Melody,417,1,38,114,2950948396
4525,14,Improv_Melody,418,1,48,22,2950958592
4525,14,Improv_Melody,419,5,42,127,2950960236
4525,14,Improv_Melody,420,1,38,17,2951089864
4525,14,Improv_Melody,421,1,38,127,2951434012
4525,14,Improv_Melody,422,1,48,25,2951444016
4525,14,Improv_Melody,423,5,42,110,2951459240
4525,14,Improv_Melody,424,1,38,116,2951929376
4525,14,Improv_Melody,425,5,42,110,2951958888
4525,14,Improv_Melody,426,1,38,114,2952427660
4525,14,Improv_Melody,427,1,48,22,2952437584
4525,14,Improv_Melody,428,5,42,110,2952458792
4525,14,Improv_Melody,429,1,38,127,2952957272
4525,14,Improv_Melody,430,2,48,80,2952962016
4525,14,Improv_Melody,431,2,72,80,2952964088
4525,14,Improv_Melody,432,5,42,127,2952966704
4525,14,Improv_Melody,433,1,48,27,2952967668
4525,14,Improv_Melody,434,1,38,107,2953444416
4525,14,Improv_Melody,435,1,48,21,2953454416
4525,14,Improv_Melody,436,5,42,110,2953459020
4525,14,Improv_Melody,437,5,42,110,2953958924
4525,14,Improv_Melody,438,1,38,127,2953969676
4525,14,Improv_Melody,439,5,42,110,2954458472
4525,14,Improv_Melody,440,1,38,71,2954463684
4525,14,Improv_Melody,441,1,38,116,2954938300
4525,14,Improv_Melody,442,5,42,127,2954959136
4525,14,Improv_Melody,443,1,38,115,2955426484
4525,14,Improv_Melody,444,5,42,110,2955458912
4525,14,Improv_Melody,445,1,38,121,2955934040
4525,14,Improv_Melody,446,1,48,23,2955944120
4525,14,Improv_Melody,447,5,42,110,2955958740
4525,14,Improv_Melody,448,1,38,79,2956425464
4525,14,Improv_Melody,449,5,42,110,2956459236
4525,14,Improv_Melody,450,1,38,127,2956951796
4525,14,Improv_Melody,451,2,43,80,2956961740
4525,14,Improv_Melody,452,2,67,80,2956963816
4525,14,Improv_Melody,453,5,42,127,2956966356
4525,14,Improv_Melody,454,1,38,45,2957059888
4525,14,Improv_Melody,455,1,38,103,2957446548
4525,14,Improv_Melody,456,1,48,21,2957456644
4525,14,Improv_Melody,457,5,42,110,2957458760
4525,14,Improv_Melody,458,1,38,127,2957924956
4525,14,Improv_Melody,459,1,48,22,2957935404
4525,14,Improv_Melody,460,5,42,110,2957958636
4525,14,Improv_Melody,461,1,38,47,2958020008
4525,14,Improv_Melody,462,1,38,127,2958434312
4525,14,Improv_Melody,463,1,48,25,2958444384
4525,14,Improv_Melody,464,5,42,110,2958459236
4525,14,Improv_Melody,465,5,42,127,2958958916
4525,14,Improv_Melody,466,1,38,111,2958971164
4525,14,Improv_Melody,467,1,48,23,2958980940
4525,14,Improv_Melody,468,1,38,127,2959065960
4525,14,Improv_Melody,469,1,48,30,2959076188
4525,14,Improv_Melody,470,1,38,127,2959165272
4525,14,Improv_Melody,471,1,48,23,2959175424
4525,14,Improv_Melody,472,1,38,119,2959240176
4525,14,Improv_Melody,473,1,38,94,2959344996
4525,14,Improv_Melody,474,1,38,127,2959362700
4525,14,Improv_Melody,475,5,42,110,2959458640
4525,14,Improv_Melody,476,1,38,56,2959479412
4525,14,Improv_Melody,477,1,38,65,2959607968
4525,14,Improv_Melody,478,1,38,56,2959734376
4525,14,Improv_Melody,479,1,48,22,2959742956
4525,14,Improv_Melody,480,1,38,59,2959853760
4525,14,Improv_Melody,481,1,38,117,2959889264
4525,14,Improv_Melody,482,5,42,110,2959959340
4525,14,Improv_Melody,483,1,38,77,2960002760
4525,14,Improv_Melody,484,1,48,23,2960011040
4525,14,Improv_Melody,485,1,38,34,2960134708
4525,14,Improv_Melody,486,1,38,53,2960151592
4525,14,Improv_Melody,487,1,38,55,2960246888
4525,14,Improv_Melody,488,1,48,19,2960254420
4525,14,Improv_Melody,489,1,38,85,2960320672
4525,14,Improv_Melody,490,1,48,19,2960331120
4525,14,Improv_Melody,491,1,38,63,2960402004
4525,14,Improv_Melody,492,5,42,110,2960459200
4525,14,Improv_Melody,493,1,38,86,2960508528
4525,14,Improv_Melody,494,1,48,20,2960518080
4525,14,Improv_Melody,495,1,38,58,2960558072
4525,14,Improv_Melody,496,1,48,20,2960566956
4525,14,Improv_Melody,497,1,38,90,2960651608
4525,14,Improv_Melody,498,1,48,20,2960662056
4525,14,Improv_Melody,499,1,38,70,2960703344
4525,14,Improv_Melody,500,1,38,73,2960805996
4525,14,Improv_Melody,501,1,48,19,2960815328
4525,14,Improv_Melody,502,1,38,46,2960835724
4525,14,Improv_Melody,503,1,38,127,2960913012
4525,14,Improv_Melody,504,2,45,80,2960961132
4525,14,Improv_Melody,505,2,69,80,2960963284
4525,14,Improv_Melody,506,5,42,127,2960965824
4525,14,Improv_Melody,507,1,38,47,2961381836
4525,14,Improv_Melody,508,5,42,110,2961458492
4525,14,Improv_Melody,509,1,38,127,2961918116
4525,14,Improv_Melody,510,5,42,110,2961959316
4525,14,Improv_Melody,511,1,38,60,2962428584
4525,14,Improv_Melody,512,5,42,110,2962459140
4525,14,Improv_Melody,513,1,38,108,2962895152
4525,14,Improv_Melody,514,1,48,23,2962905156
4525,14,Improv_Melody,515,5,42,127,2962958820
4525,14,Improv_Melody,516,1,38,97,2963437064
4525,14,Improv_Melody,517,1,48,21,2963447068
4525,14,Improv_Melody,518,5,42,110,2963458624
4525,14,Improv_Melody,519,1,38,127,2963926320
4525,14,Improv_Melody,520,1,48,25,2963936168
4525,14,Improv_Melody,521,5,42,110,2963959100
4525,14,Improv_Melody,522,5,42,110,2964458928
4525,14,Improv_Melody,523,1,38,72,2964473940
4525,14,Improv_Melody,524,2,41,80,2964961052
4525,14,Improv_Melody,525,2,65,80,2964963364
4525,14,Improv_Melody,526,5,42,127,2964965972
4525,14,Improv_Melody,527,1,38,127,2964979632
4525,14,Improv_Melody,528,1,48,29,2964989120
4525,14,Improv_Melody,529,5,42,110,2965459488
4525,14,Improv_Melody,530,1,38,78,2965470908
4525,14,Improv_Melody,531,5,42,110,2965959112
4525,14,Improv_Melody,532,1,38,126,2965979440
4525,14,Improv_Melody,533,1,48,24,2965989288
4525,14,Improv_Melody,534,5,42,110,2966458840
4525,14,Improv_Melody,535,1,38,81,2966469064
4525,14,Improv_Melody,536,1,48,19,2966478764
4525,14,Improv_Melody,537,1,38,127,2966943276
4525,14,Improv_Melody,538,1,48,28,2966952752
4525,14,Improv_Melody,539,5,42,127,2966958556
4525,14,Improv_Melody,540,1,38,64,2967028448
4525,14,Improv_Melody,541,1,38,110,2967089552
4525,14,Improv_Melody,542,1,38,78,2967178984
4525,14,Improv_Melody,543,1,48,20,2967188164
4525,14,Improv_Melody,544,1,38,38,2967235412
4525,14,Improv_Melody,545,1,38,94,2967310464
4525,14,Improv_Melody,546,1,38,78,2967440016
4525,14,Improv_Melody,547,1,38,79,2967458892
4525,14,Improv_Melody,548,5,42,110,2967462548
4525,14,Improv_Melody,549,1,38,109,2967563640
4525,14,Improv_Melody,550,1,38,81,2967619288
4525,14,Improv_Melody,551,1,48,21,2967628544
4525,14,Improv_Melody,552,1,38,94,2967699204
4525,14,Improv_Melody,553,1,38,96,2967761464
4525,14,Improv_Melody,554,1,48,21,2967770940
4525,14,Improv_Melody,555,1,38,66,2967827092
4525,14,Improv_Melody,556,1,48,21,2967838516
4525,14,Improv_Melody,557,1,38,77,2967885868
4525,14,Improv_Melody,558,1,48,19,2967896168
4525,14,Improv_Melody,559,1,38,52,2967908788
4525,14,Improv_Melody,560,1,38,56,2967929408
4525,14,Improv_Melody,561,5,42,110,2967958844
4525,14,Improv_Melody,562,1,38,59,2968018240
4525,14,Improv_Melody,563,1,48,18,2968068636
4525,14,Improv_Melody,564,1,38,68,2968130492
4525,14,Improv_Melody,565,1,48,18,2968141844
4525,14,Improv_Melody,566,1,38,71,2968242096
4525,14,Improv_Melody,567,5,42,110,2968458684
4525,14,Improv_Melody,568,1,38,127,2968597112
4525,14,Improv_Melody,569,2,48,80,2968961712
4525,14,Improv_Melody,570,2,72,80,2968963936
4525,14,Improv_Melody,571,5,42,127,2968966476
4525,14,Improv_Melody,572,5,42,110,2969459016
4525,14,Improv_Melody,573,1,38,127,2969881852
4525,14,Improv_Melody,574,1,48,25,2969892636
4525,14,Improv_Melody,0,9999,9999,9999,2888957036
4525,14,Improv_Melody,1,9999,9999,9999,2889456724
4525,14,Improv_Melody,2,9999,9999,9999,2889956440
4525,14,Improv_Melody,3,9999,9999,9999,2890456144
4525,14,Improv_Melody,4,9999,9999,9999,2890956908
4525,14,Improv_Melody,5,9999,9999,9999,2891456616
4525,14,Improv_Melody,6,9999,9999,9999,2891956316
4525,14,Improv_Melody,7,9999,9999,9999,2892457012
4525,14,Improv_Melody,8,9999,9999,9999,2892956780
4525,14,Improv_Melody,9,9999,9999,9999,2893456496
4525,14,Improv_Melody,10,9999,9999,9999,2893956192
4525,14,Improv_Melody,11,9999,9999,9999,2894456944
4525,14,Improv_Melody,12,9999,9999,9999,2894956636
4525,14,Improv_Melody,13,9999,9999,9999,2895456340
4525,14,Improv_Melody,14,9999,9999,9999,2895957084
4525,14,Improv_Melody,15,9999,9999,9999,2896456792
4525,14,Improv_Melody,16,9999,9999,9999,2896956492
4525,14,Improv_Melody,17,9999,9999,9999,2897456216
4525,14,Improv_Melody,18,9999,9999,9999,2897956936
4525,14,Improv_Melody,19,9999,9999,9999,2898456632
4525,14,Improv_Melody,20,9999,9999,9999,2898956408
4525,14,Improv_Melody,21,9999,9999,9999,2899456112
4525,14,Improv_Melody,22,9999,9999,9999,2899956852
4525,14,Improv_Melody,23,9999,9999,9999,2900456560
4525,14,Improv_Melody,24,9999,9999,9999,2900956260
4525,14,Improv_Melody,25,9999,9999,9999,2901456972
4525,14,Improv_Melody,26,9999,9999,9999,2901956672
4525,14,Improv_Melody,27,9999,9999,9999,2902456392
4525,14,Improv_Melody,28,9999,9999,9999,2902956100
4525,14,Improv_Melody,29,9999,9999,9999,2903456840
4525,14,Improv_Melody,30,9999,9999,9999,2903956532
4525,14,Improv_Melody,31,9999,9999,9999,2904456256
4525,14,Improv_Melody,32,9999,9999,9999,2904957020
4525,14,Improv_Melody,33,9999,9999,9999,2905456712
4525,14,Improv_Melody,34,9999,9999,9999,2905956460
4525,14,Improv_Melody,35,9999,9999,9999,2906456156
4525,14,Improv_Melody,36,9999,9999,9999,2906956872
4525,14,Improv_Melody,37,9999,9999,9999,2907456628
4525,14,Improv_Melody,38,9999,9999,9999,2907956320
4525,14,Improv_Melody,39,9999,9999,9999,2908457076
4525,14,Improv_Melody,40,9999,9999,9999,2908956744
4525,14,Improv_Melody,41,9999,9999,9999,2909456452
4525,14,Improv_Melody,42,9999,9999,9999,2909956160
4525,14,Improv_Melody,43,9999,9999,9999,2910456952
4525,14,Improv_Melody,44,9999,9999,9999,2910956608
4525,14,Improv_Melody,45,9999,9999,9999,2911456308
4525,14,Improv_Melody,46,9999,9999,9999,2911957060
4525,14,Improv_Melody,47,9999,9999,9999,2912456788
4525,14,Improv_Melody,48,9999,9999,9999,2912956512
4525,14,Improv_Melody,49,9999,9999,9999,2913456176
4525,14,Improv_Melody,50,9999,9999,9999,2913956968
4525,14,Improv_Melody,51,9999,9999,9999,2914456692
4525,14,Improv_Melody,52,9999,9999,9999,2914956368
4525,14,Improv_Melody,53,9999,9999,9999,2915456076
4525,14,Improv_Melody,54,9999,9999,9999,2915956812
4525,14,Improv_Melody,55,9999,9999,9999,2916456520
4525,14,Improv_Melody,56,9999,9999,9999,2916956220
4525,14,Improv_Melody,57,9999,9999,9999,2917457008
4525,14,Improv_Melody,58,9999,9999,9999,2917956704
4525,14,Improv_Melody,59,9999,9999,9999,2918456404
4525,14,Improv_Melody,60,9999,9999,9999,2918956104
4525,14,Improv_Melody,61,9999,9999,9999,2919456824
4525,14,Improv_Melody,62,9999,9999,9999,2919956600
4525,14,Improv_Melody,63,9999,9999,9999,2920456300
4525,14,Improv_Melody,64,9999,9999,9999,2920957028
4525,14,Improv_Melody,65,9999,9999,9999,2921456748
4525,14,Improv_Melody,66,9999,9999,9999,2921956472
4525,14,Improv_Melody,67,9999,9999,9999,2922456164
4525,14,Improv_Melody,68,9999,9999,9999,2922956864
4525,14,Improv_Melody,69,9999,9999,9999,2923456620
4525,14,Improv_Melody,70,9999,9999,9999,2923956292
4525,14,Improv_Melody,71,9999,9999,9999,2924457040
4525,14,Improv_Melody,72,9999,9999,9999,2924956744
4525,14,Improv_Melody,73,9999,9999,9999,2925456460
4525,14,Improv_Melody,74,9999,9999,9999,2925956156
4525,14,Improv_Melody,75,9999,9999,9999,2926456948
4525,14,Improv_Melody,76,9999,9999,9999,2926956644
4525,14,Improv_Melody,77,9999,9999,9999,2927456316
4525,14,Improv_Melody,78,9999,9999,9999,2927957096
4525,14,Improv_Melody,79,9999,9999,9999,2928456820
4525,14,Improv_Melody,80,9999,9999,9999,2928956492
4525,14,Improv_Melody,81,9999,9999,9999,2929456200
4525,14,Improv_Melody,82,9999,9999,9999,2929956960
4525,14,Improv_Melody,83,9999,9999,9999,2930456636
4525,14,Improv_Melody,84,9999,9999,9999,2930956408
4525,14,Improv_Melody,85,9999,9999,9999,2931456112
4525,14,Improv_Melody,86,9999,9999,9999,2931956836
4525,14,Improv_Melody,87,9999,9999,9999,2932456564
4525,14,Improv_Melody,88,9999,9999,9999,2932956236
4525,14,Improv_Melody,89,9999,9999,9999,2933456976
4525,14,Improv_Melody,90,9999,9999,9999,2933956676
4525,14,Improv_Melody,91,9999,9999,9999,2934456372
4525,14,Improv_Melody,92,9999,9999,9999,2934956148
4525,14,Improv_Melody,93,9999,9999,9999,2935456868
4525,14,Improv_Melody,94,9999,9999,9999,2935956544
4525,14,Improv_Melody,95,9999,9999,9999,2936456268
4525,14,Improv_Melody,96,9999,9999,9999,2936957040
4525,14,Improv_Melody,97,9999,9999,9999,2937456752
4525,14,Improv_Melody,98,9999,9999,9999,2937956400
4525,14,Improv_Melody,99,9999,9999,9999,2938456180
4525,14,Improv_Melody,100,9999,9999,9999,2938956872
4525,14,Improv_Melody,101,9999,9999,9999,2939456580
4525,14,Improv_Melody,102,9999,9999,9999,2939956272
4525,14,Improv_Melody,103,9999,9999,9999,2940457072
4525,14,Improv_Melody,104,9999,9999,9999,2940956724
4525,14,Improv_Melody,105,9999,9999,9999,2941456432
4525,14,Improv_Melody,106,9999,9999,9999,2941956180
4525,14,Improv_Melody,107,9999,9999,9999,2942456884
4525,14,Improv_Melody,108,9999,9999,9999,2942956652
4525,14,Improv_Melody,109,9999,9999,9999,2943456328
4525,14,Improv_Melody,110,9999,9999,9999,2943957056
4525,14,Improv_Melody,111,9999,9999,9999,2944456800
4525,14,Improv_Melody,112,9999,9999,9999,2944956484
4525,14,Improv_Melody,113,9999,9999,9999,2945456240
4525,14,Improv_Melody,114,9999,9999,9999,2945956936
4525,14,Improv_Melody,115,9999,9999,9999,2946456664
4525,14,Improv_Melody,116,9999,9999,9999,2946956360
4525,14,Improv_Melody,117,9999,9999,9999,2947456048
4525,14,Improv_Melody,118,9999,9999,9999,2947956792
4525,14,Improv_Melody,119,9999,9999,9999,2948456508
4525,14,Improv_Melody,120,9999,9999,9999,2948956264
4525,14,Improv_Melody,121,9999,9999,9999,2949456948
4525,14,Improv_Melody,122,9999,9999,9999,2949956672
4525,14,Improv_Melody,123,9999,9999,9999,2950456396
4525,14,Improv_Melody,124,9999,9999,9999,2950956092
4525,14,Improv_Melody,125,9999,9999,9999,2951456872
4525,14,Improv_Melody,126,9999,9999,9999,2951956592
4525,14,Improv_Melody,127,9999,9999,9999,2952456276
4525,14,Improv_Melody,128,9999,9999,9999,2952957032
4525,14,Improv_Melody,129,9999,9999,9999,2953456728
4525,14,Improv_Melody,130,9999,9999,9999,2953956408
4525,14,Improv_Melody,131,9999,9999,9999,2954456180
4525,14,Improv_Melody,132,9999,9999,9999,2954956920
4525,14,Improv_Melody,133,9999,9999,9999,2955456620
4525,14,Improv_Melody,134,9999,9999,9999,2955956300
4525,14,Improv_Melody,135,9999,9999,9999,2956457020
4525,14,Improv_Melody,136,9999,9999,9999,2956956720
4525,14,Improv_Melody,137,9999,9999,9999,2957456512
4525,14,Improv_Melody,138,9999,9999,9999,2957956192
4525,14,Improv_Melody,139,9999,9999,9999,2958456944
4525,14,Improv_Melody,140,9999,9999,9999,2958956624
4525,14,Improv_Melody,141,9999,9999,9999,2959456348
4525,14,Improv_Melody,142,9999,9999,9999,2959957048
4525,14,Improv_Melody,143,9999,9999,9999,2960456756
4525,14,Improv_Melody,144,9999,9999,9999,2960956488
4525,14,Improv_Melody,145,9999,9999,9999,2961456200
4525,14,Improv_Melody,146,9999,9999,9999,2961956948
4525,14,Improv_Melody,147,9999,9999,9999,2962456624
4525,14,Improv_Melody,148,9999,9999,9999,2962956380
4525,14,Improv_Melody,149,9999,9999,9999,2963456108
4525,14,Improv_Melody,150,9999,9999,9999,2963956808
4525,14,Improv_Melody,151,9999,9999,9999,2964456560
4525,14,Improv_Melody,152,9999,9999,9999,2964956260
4525,14,Improv_Melody,153,9999,9999,9999,2965456972
4525,14,Improv_Melody,154,9999,9999,9999,2965956672
4525,14,Improv_Melody,155,9999,9999,9999,2966456400
4525,14,Improv_Melody,156,9999,9999,9999,2966956112
4525,14,Improv_Melody,157,9999,9999,9999,2967456836
4525,14,Improv_Melody,158,9999,9999,9999,2967956552
4525,14,Improv_Melody,159,9999,9999,9999,2968456244
4525,14,Improv_Melody,160,9999,9999,9999,2968956992
4525,14,Improv_Melody,161,9999,9999,9999,2969456724
45