pid,taskRunCount,taskID,taskName,i,channel,pitch,velocity,microseconds
1,1,Ticks_Pract_5,0,5,42,127,294939092
481,1,Ticks_Pract_5,1,5,42,127,295438584
481,1,Ticks_Pract_5,2,1,48,78,295937244
481,1,Ticks_Pract_5,3,5,42,127,295939040
481,1,Ticks_Pract_5,4,1,48,74,296420076
481,1,Ticks_Pract_5,5,5,42,127,296439188
481,1,Ticks_Pract_5,6,1,48,56,296919920
481,1,Ticks_Pract_5,7,5,42,127,296938956
481,1,Ticks_Pract_5,8,1,48,75,297400744
481,1,Ticks_Pract_5,9,5,42,127,297438424
481,1,Ticks_Pract_5,10,1,48,68,297892804
481,1,Ticks_Pract_5,11,5,42,127,297939316
481,1,Ticks_Pract_5,12,1,48,60,298381360
481,1,Ticks_Pract_5,13,5,42,127,298438984
481,1,Ticks_Pract_5,14,1,48,72,298897880
481,1,Ticks_Pract_5,15,5,42,127,298938976
481,1,Ticks_Pract_5,16,1,48,65,299390620
481,1,Ticks_Pract_5,17,5,42,127,299438376
481,1,Ticks_Pract_5,18,1,48,62,299868024
481,1,Ticks_Pract_5,19,5,42,127,299939192
481,1,Ticks_Pract_5,20,1,48,69,300393296
481,1,Ticks_Pract_5,21,5,42,127,300438884
481,1,Ticks_Pract_5,22,1,48,67,300907204
481,1,Ticks_Pract_5,23,5,42,127,300938656
481,1,Ticks_Pract_5,24,1,48,70,301414976
481,1,Ticks_Pract_5,25,5,42,127,301439324
481,1,Ticks_Pract_5,26,5,42,127,301939100
481,1,Ticks_Pract_5,27,1,48,67,301966976
481,1,Ticks_Pract_5,28,5,42,127,302438940
481,1,Ticks_Pract_5,29,1,48,60,302449388
481,1,Ticks_Pract_5,30,1,48,59,302935604
481,1,Ticks_Pract_5,31,5,42,127,302938408
481,1,Ticks_Pract_5,32,5,42,127,303439080
481,1,Ticks_Pract_5,33,1,48,55,303459552
481,1,Ticks_Pract_5,34,1,48,48,303931028
481,1,Ticks_Pract_5,35,5,42,127,303939068
481,1,Ticks_Pract_5,36,1,48,57,304439064
481,1,Ticks_Pract_5,37,5,42,127,304440632
481,1,Ticks_Pract_5,38,1,48,58,304923688
481,1,Ticks_Pract_5,39,5,42,127,304939356
481,1,Ticks_Pract_5,40,1,48,69,305401316
481,1,Ticks_Pract_5,41,5,42,127,305439048
481,1,Ticks_Pract_5,42,1,48,55,305921132
481,1,Ticks_Pract_5,43,5,42,127,305938744
481,1,Ticks_Pract_5,44,1,48,59,306419852
481,1,Ticks_Pract_5,45,5,42,127,306438436
481,1,Ticks_Pract_5,46,1,48,63,306925452
481,1,Ticks_Pract_5,47,5,42,127,306939252
481,1,Ticks_Pract_5,48,1,48,74,307425000
481,1,Ticks_Pract_5,49,5,42,127,307439096
481,1,Ticks_Pract_5,50,1,48,76,307922076
481,1,Ticks_Pract_5,51,5,42,127,307938792
481,1,Ticks_Pract_5,52,1,48,65,308439912
481,1,Ticks_Pract_5,53,5,42,127,308441180
481,1,Ticks_Pract_5,54,5,42,127,308939060
481,1,Ticks_Pract_5,55,1,48,74,308941800
481,1,Ticks_Pract_5,56,1,48,63,309424648
481,1,Ticks_Pract_5,57,5,42,127,309438820
481,1,Ticks_Pract_5,58,5,42,127,309938820
481,1,Ticks_Pract_5,59,1,48,62,309957124
481,1,Ticks_Pract_5,60,5,42,127,310439412
481,1,Ticks_Pract_5,61,1,48,61,310456668
481,1,Ticks_Pract_5,62,1,48,73,310915724
481,1,Ticks_Pract_5,63,5,42,127,310939024
481,1,Ticks_Pract_5,64,1,48,72,311422900
481,1,Ticks_Pract_5,65,5,42,127,311438644
481,1,Ticks_Pract_5,66,1,48,67,311934192
481,1,Ticks_Pract_5,67,5,42,127,311938488
481,1,Ticks_Pract_5,68,5,42,127,312439012
481,1,Ticks_Pract_5,69,1,48,65,312455744
481,1,Ticks_Pract_5,70,1,48,65,312916076
481,1,Ticks_Pract_5,71,5,42,127,312938776
481,1,Ticks_Pract_5,72,5,42,127,313438700
481,1,Ticks_Pract_5,73,1,48,64,313465156
481,1,Ticks_Pract_5,74,5,42,127,313939440
481,1,Ticks_Pract_5,75,1,48,57,313961108
481,1,Ticks_Pract_5,76,1,48,59,314432736
481,1,Ticks_Pract_5,77,5,42,127,314438980
481,1,Ticks_Pract_5,78,1,48,70,314923976
481,1,Ticks_Pract_5,0,9999,9999,9999,294936656
481,1,Ticks_Pract_5,1,9999,9999,9999,295436372
481,1,Ticks_Pract_5,2,9999,9999,9999,295936092
481,1,Ticks_Pract_5,3,9999,9999,9999,296436828
481,1,Ticks_Pract_5,4,9999,9999,9999,296936520
481,1,Ticks_Pract_5,5,9999,9999,9999,297436216
481,1,Ticks_Pract_5,6,9999,9999,9999,297936956
481,1,Ticks_Pract_5,7,9999,9999,9999,298436700
481,1,Ticks_Pract_5,8,9999,9999,9999,298936392
481,1,Ticks_Pract_5,9,9999,9999,9999,299436088
481,1,Ticks_Pract_5,10,9999,9999,9999,299936828
481,1,Ticks_Pract_5,11,9999,9999,9999,300436600
481,1,Ticks_Pract_5,12,9999,9999,9999,300936296
481,1,Ticks_Pract_5,13,9999,9999,9999,301437036
481,1,Ticks_Pract_5,14,9999,9999,9999,301936740
481,1,Ticks_Pract_5,15,9999,9999,9999,302436432
481,1,Ticks_Pract_5,16,9999,9999,9999,302936120
481,1,Ticks_Pract_5,17,9999,9999,9999,303436868
481,1,Ticks_Pract_5,18,9999,9999,9999,303936632
481,1,Ticks_Pract_5,19,9999,9999,9999,304436332
481,1,Ticks_Pract_5,20,9999,9999,9999,304937068
481,1,Ticks_Pract_5,21,9999,9999,9999,305436760
481,1,Ticks_Pract_5,22,9999,9999,9999,305936456
481,1,Ticks_Pract_5,23,9999,9999,9999,306436152
481,1,Ticks_Pract_5,24,9999,9999,9999,306936892
481,1,Ticks_Pract_5,25,9999,9999,9999,307436664
481,1,Ticks_Pract_5,26,9999,9999,9999,307936356
481,1,Ticks_Pract_5,27,9999,9999,9999,308437104
481,1,Ticks_Pract_5,28,9999,9999,9999,308936776
481,1,Ticks_Pract_5,29,9999,9999,9999,309436536
481,1,Ticks_Pract_5,30,9999,9999,9999,309936236
481,1,Ticks_Pract_5,31,9999,9999,9999,310436976
481,1,Ticks_Pract_5,32,9999,9999,9999,310936664
481,1,Ticks_Pract_5,33,9999,9999,9999,311436360
481,1,Ticks_Pract_5,34,9999,9999,9999,311936056
481,1,Ticks_Pract_5,35,9999,9999,9999,312436800
481,1,Ticks_Pract_5,36,9999,9999,9999,312936564
481,1,Ticks_Pract_5,37,9999,9999,9999,313436264
481,1,Ticks_Pract_5,38,9999,9999,9999,313937008
481,1,Ticks_Pract_5,39,9999,9999,9999,314436692
482,0,Ticks_Pract_8,0,5,42,127,329715280
482,0,Ticks_Pract_8,1,5,42,127,330514960
482,0,Ticks_Pract_8,2,5,42,127,331314568
482,0,Ticks_Pract_8,3,1,48,67,331365780
482,0,Ticks_Pract_8,4,1,48,56,332060332
482,0,Ticks_Pract_8,5,5,42,127,332115340
482,0,Ticks_Pract_8,6,1,48,59,332877876
482,0,Ticks_Pract_8,7,5,42,127,332915076
482,0,Ticks_Pract_8,8,1,48,56,333679248
482,0,Ticks_Pract_8,9,5,42,127,333714884
482,0,Ticks_Pract_8,10,1,48,57,334463944
482,0,Ticks_Pract_8,11,5,42,127,334514468
482,0,Ticks_Pract_8,12,1,48,54,335262480
482,0,Ticks_Pract_8,13,5,42,127,335315272
482,0,Ticks_Pract_8,14,1,48,57,336047188
482,0,Ticks_Pract_8,15,5,42,127,336115156
482,0,Ticks_Pract_8,16,1,48,51,336836588
482,0,Ticks_Pract_8,17,5,42,127,336914888
482,0,Ticks_Pract_8,18,5,42,127,337714556
482,0,Ticks_Pract_8,19,1,48,53,337720372
482,0,Ticks_Pract_8,20,1,48,70,338508416
482,0,Ticks_Pract_8,21,5,42,127,338515180
482,0,Ticks_Pract_8,22,5,42,127,339314920
482,0,Ticks_Pract_8,23,1,48,63,339327464
482,0,Ticks_Pract_8,24,5,42,127,340115024
482,0,Ticks_Pract_8,25,1,48,63,340121584
482,0,Ticks_Pract_8,26,1,48,59,340891832
482,0,Ticks_Pract_8,27,5,42,127,340914676
482,0,Ticks_Pract_8,28,1,48,66,341688352
482,0,Ticks_Pract_8,29,5,42,127,341715256
482,0,Ticks_Pract_8,30,1,48,66,342467740
482,0,Ticks_Pract_8,31,5,42,127,342514992
482,0,Ticks_Pract_8,32,1,48,73,343271980
482,0,Ticks_Pract_8,33,5,42,127,343314876
482,0,Ticks_Pract_8,34,5,42,127,344114468
482,0,Ticks_Pract_8,35,1,48,62,344119684
482,0,Ticks_Pract_8,36,1,48,60,344894712
482,0,Ticks_Pract_8,37,5,42,127,344915240
482,0,Ticks_Pract_8,38,1,48,65,345678892
482,0,Ticks_Pract_8,39,5,42,127,345714976
482,0,Ticks_Pract_8,40,1,48,65,346483260
482,0,Ticks_Pract_8,41,5,42,127,346514708
482,0,Ticks_Pract_8,42,1,48,62,347286960
482,0,Ticks_Pract_8,43,5,42,127,347314592
482,0,Ticks_Pract_8,44,1,48,57,348030592
482,0,Ticks_Pract_8,45,5,42,127,348115468
482,0,Ticks_Pract_8,46,1,48,66,348835780
482,0,Ticks_Pract_8,47,5,42,127,348914904
482,0,Ticks_Pract_8,48,1,48,67,349673620
482,0,Ticks_Pract_8,49,5,42,127,349714788
482,0,Ticks_Pract_8,50,1,48,67,350507536
482,0,Ticks_Pract_8,51,5,42,127,350514672
482,0,Ticks_Pract_8,52,1,48,65,351311308
482,0,Ticks_Pract_8,53,5,42,127,351315600
482,0,Ticks_Pract_8,54,1,48,65,352087260
482,0,Ticks_Pract_8,55,5,42,127,352115036
482,0,Ticks_Pract_8,56,5,42,127,352914776
482,0,Ticks_Pract_8,57,1,48,62,352931060
482,0,Ticks_Pract_8,0,9999,9999,9999,329712692
482,0,Ticks_Pract_8,1,9999,9999,9999,330512452
482,0,Ticks_Pract_8,2,9999,9999,9999,331312204
482,0,Ticks_Pract_8,3,9999,9999,9999,332112980
482,0,Ticks_Pract_8,4,9999,9999,9999,332912716
482,0,Ticks_Pract_8,5,9999,9999,9999,333712448
482,0,Ticks_Pract_8,6,9999,9999,9999,334512180
482,0,Ticks_Pract_8,7,9999,9999,9999,335312984
482,0,Ticks_Pract_8,8,9999,9999,9999,336112720
482,0,Ticks_Pract_8,9,9999,9999,9999,336912448
482,0,Ticks_Pract_8,10,9999,9999,9999,337712188
482,0,Ticks_Pract_8,11,9999,9999,9999,338512968
482,0,Ticks_Pract_8,12,9999,9999,9999,339312704
482,0,Ticks_Pract_8,13,9999,9999,9999,340112440
482,0,Ticks_Pract_8,14,9999,9999,9999,340912240
482,0,Ticks_Pract_8,15,9999,9999,9999,341712972
482,0,Ticks_Pract_8,16,9999,9999,9999,342512704
482,0,Ticks_Pract_8,17,9999,9999,9999,343312436
482,0,Ticks_Pract_8,18,9999,9999,9999,344112180
482,0,Ticks_Pract_8,19,9999,9999,9999,344912952
482,0,Ticks_Pract_8,20,9999,9999,9999,345712688
482,0,Ticks_Pract_8,21,9999,9999,9999,346512496
482,0,Ticks_Pract_8,22,9999,9999,9999,347312228
482,0,Ticks_Pract_8,23,9999,9999,9999,348112960
482,0,Ticks_Pract_8,24,9999,9999,9999,348912692
482,0,Ticks_Pract_8,25,9999,9999,9999,349712500
482,0,Ticks_Pract_8,26,9999,9999,9999,350512236
482,0,Ticks_Pract_8,27,9999,9999,9999,351313016
482,0,Ticks_Pract_8,28,9999,9999,9999,352112748
482,0,Ticks_Pract_8,29,9999,9999,9999,352912488
483,4,T1_SMS_5,0,5,42,127,442582440
483,4,T1_SMS_5,1,5,42,127,443082228
483,4,T1_SMS_5,2,1,48,70,443255140
483,4,T1_SMS_5,3,5,42,127,443581900
483,4,T1_SMS_5,4,1,48,65,443639872
483,4,T1_SMS_5,5,5,42,127,444081592
483,4,T1_SMS_5,6,1,48,67,444111292
483,4,T1_SMS_5,7,5,42,127,444582336
483,4,T1_SMS_5,8,1,48,54,444588524
483,4,T1_SMS_5,9,1,48,65,445070992
483,4,T1_SMS_5,10,5,42,127,445082024
483,4,T1_SMS_5,11,5,42,127,445581796
483,4,T1_SMS_5,12,1,48,65,445583208
483,4,T1_SMS_5,13,5,42,127,446082540
483,4,T1_SMS_5,14,1,48,51,446088876
483,4,T1_SMS_5,15,1,48,70,446581404
483,4,T1_SMS_5,16,5,42,127,446583200
483,4,T1_SMS_5,17,5,42,127,447081780
483,4,T1_SMS_5,18,1,48,63,447102548
483,4,T1_SMS_5,19,1,48,69,447581476
483,4,T1_SMS_5,20,5,42,127,447583036
483,4,T1_SMS_5,21,5,42,127,448082364
483,4,T1_SMS_5,22,1,48,61,448111892
483,4,T1_SMS_5,23,5,42,127,448582060
483,4,T1_SMS_5,24,1,48,52,448593780
483,4,T1_SMS_5,25,5,42,127,449081832
483,4,T1_SMS_5,26,1,48,56,449094824
483,4,T1_SMS_5,27,1,48,55,449576620
483,4,T1_SMS_5,28,5,42,127,449581444
483,4,T1_SMS_5,29,1,48,56,450079088
483,4,T1_SMS_5,30,5,42,127,450082112
483,4,T1_SMS_5,31,1,48,57,450546020
483,4,T1_SMS_5,32,5,42,127,450581956
483,4,T1_SMS_5,33,1,48,51,451073612
483,4,T1_SMS_5,34,5,42,127,451081800
483,4,T1_SMS_5,35,1,48,60,451565608
483,4,T1_SMS_5,36,5,42,127,451582392
483,4,T1_SMS_5,37,5,42,127,452081948
483,4,T1_SMS_5,38,1,48,46,452096512
483,4,T1_SMS_5,39,1,48,59,452577036
483,4,T1_SMS_5,40,5,42,127,452581708
483,4,T1_SMS_5,41,5,42,127,453081560
483,4,T1_SMS_5,42,1,48,55,453093580
483,4,T1_SMS_5,43,1,48,61,453580564
483,4,T1_SMS_5,44,5,42,127,453582296
483,4,T1_SMS_5,45,5,42,127,454081824
483,4,T1_SMS_5,46,1,48,56,454113236
483,4,T1_SMS_5,47,5,42,127,454581520
483,4,T1_SMS_5,48,1,48,46,454602684
483,4,T1_SMS_5,49,1,48,45,455078776
483,4,T1_SMS_5,50,5,42,127,455082624
483,4,T1_SMS_5,51,5,42,127,455582252
483,4,T1_SMS_5,52,1,48,41,455706492
483,4,T1_SMS_5,53,5,42,127,456081724
483,4,T1_SMS_5,54,1,48,36,456110500
483,4,T1_SMS_5,55,1,48,46,456561556
483,4,T1_SMS_5,56,5,42,127,456581564
483,4,T1_SMS_5,57,5,42,127,457082384
483,4,T1_SMS_5,58,1,48,24,457127692
483,4,T1_SMS_5,59,1,48,49,457553540
483,4,T1_SMS_5,60,5,42,127,457581996
483,4,T1_SMS_5,61,5,42,127,458081552
483,4,T1_SMS_5,62,1,48,49,458115932
483,4,T1_SMS_5,63,5,42,127,458582440
483,4,T1_SMS_5,64,1,48,54,458592964
483,4,T1_SMS_5,65,1,48,53,459079400
483,4,T1_SMS_5,66,5,42,127,459082052
483,4,T1_SMS_5,67,5,42,127,459581756
483,4,T1_SMS_5,68,1,48,57,459586972
483,4,T1_SMS_5,69,5,42,127,460081600
483,4,T1_SMS_5,70,1,48,52,460090176
483,4,T1_SMS_5,71,5,42,127,460582416
483,4,T1_SMS_5,72,1,48,44,460605656
483,4,T1_SMS_5,73,1,48,55,461070404
483,4,T1_SMS_5,74,5,42,127,461081956
483,4,T1_SMS_5,75,5,42,127,461581580
483,4,T1_SMS_5,76,1,48,53,461612672
483,4,T1_SMS_5,77,5,42,127,462082472
483,4,T1_SMS_5,78,1,48,52,462102192
483,4,T1_SMS_5,79,5,42,127,462582240
483,4,T1_SMS_5,80,1,48,54,462590820
483,4,T1_SMS_5,81,5,42,127,463081860
483,4,T1_SMS_5,82,1,48,46,463111536
483,4,T1_SMS_5,83,5,42,127,463581632
483,4,T1_SMS_5,84,1,48,52,463597168
483,4,T1_SMS_5,85,5,42,127,464082520
483,4,T1_SMS_5,86,1,48,49,464088264
483,4,T1_SMS_5,87,5,42,127,464582264
483,4,T1_SMS_5,88,1,48,45,464621140
483,4,T1_SMS_5,89,5,42,127,465081716
483,4,T1_SMS_5,90,1,48,43,465115304
483,4,T1_SMS_5,91,5,42,127,465581412
483,4,T1_SMS_5,92,1,48,42,465616344
483,4,T1_SMS_5,93,1,48,42,466080492
483,4,T1_SMS_5,94,5,42,127,466082296
483,4,T1_SMS_5,95,1,48,39,466578144
483,4,T1_SMS_5,96,5,42,127,466581992
483,4,T1_SMS_5,97,5,42,127,467081468
483,4,T1_SMS_5,98,5,42,127,467582308
483,4,T1_SMS_5,99,1,48,48,467600236
483,4,T1_SMS_5,100,1,48,47,468070592
483,4,T1_SMS_5,101,5,42,127,468082144
483,4,T1_SMS_5,102,5,42,127,468581696
483,4,T1_SMS_5,103,1,48,41,468610020
483,4,T1_SMS_5,104,5,42,127,469081316
483,4,T1_SMS_5,105,1,48,48,469094980
483,4,T1_SMS_5,106,5,42,127,469582132
483,4,T1_SMS_5,107,1,48,47,469584952
483,4,T1_SMS_5,108,5,42,127,470082200
483,4,T1_SMS_5,109,1,48,47,470117036
483,4,T1_SMS_5,110,5,42,127,470581672
483,4,T1_SMS_5,111,1,48,46,470636248
483,4,T1_SMS_5,112,1,48,47,471069060
483,4,T1_SMS_5,113,5,42,127,471082256
483,4,T1_SMS_5,114,5,42,127,471582256
483,4,T1_SMS_5,115,1,48,42,471613200
483,4,T1_SMS_5,116,5,42,127,472081800
483,4,T1_SMS_5,117,1,48,44,472090684
483,4,T1_SMS_5,118,5,42,127,472581424
483,4,T1_SMS_5,119,1,48,29,472734884
483,4,T1_SMS_5,120,5,42,127,473082164
483,4,T1_SMS_5,121,1,48,36,473161724
483,4,T1_SMS_5,122,5,42,127,473581932
483,4,T1_SMS_5,123,5,42,127,474081724
483,4,T1_SMS_5,124,1,48,42,474155528
483,4,T1_SMS_5,125,5,42,127,474582392
483,4,T1_SMS_5,126,1,48,36,474608324
483,4,T1_SMS_5,127,5,42,127,475082088
483,4,T1_SMS_5,128,1,48,35,475091564
483,4,T1_SMS_5,129,5,42,127,475581908
483,4,T1_SMS_5,130,1,48,22,475584580
483,4,T1_SMS_5,131,5,42,127,476081528
483,4,T1_SMS_5,132,1,48,40,476103292
483,4,T1_SMS_5,133,5,42,127,476582268
483,4,T1_SMS_5,134,1,48,39,476612464
483,4,T1_SMS_5,135,5,42,127,477081964
483,4,T1_SMS_5,136,1,48,42,477113880
483,4,T1_SMS_5,137,5,42,127,477581656
483,4,T1_SMS_5,138,1,48,36,477597868
483,4,T1_SMS_5,139,5,42,127,478082476
483,4,T1_SMS_5,140,1,48,41,478102196
483,4,T1_SMS_5,141,5,42,127,478582020
483,4,T1_SMS_5,142,1,48,40,478584988
483,4,T1_SMS_5,143,5,42,127,479081864
483,4,T1_SMS_5,144,1,48,41,479115120
483,4,T1_SMS_5,145,5,42,127,479581408
483,4,T1_SMS_5,146,1,48,37,479629856
483,4,T1_SMS_5,147,5,42,127,480082148
483,4,T1_SMS_5,148,1,48,36,480130372
483,4,T1_SMS_5,149,5,42,127,480582068
483,4,T1_SMS_5,150,1,48,37,480596924
483,4,T1_SMS_5,151,5,42,127,481081912
483,4,T1_SMS_5,152,1,48,35,481089368
483,4,T1_SMS_5,153,5,42,127,481581384
483,4,T1_SMS_5,154,1,48,27,481610756
483,4,T1_SMS_5,155,5,42,127,482082124
483,4,T1_SMS_5,156,1,48,42,482090032
483,4,T1_SMS_5,157,5,42,127,482581968
483,4,T1_SMS_5,158,1,48,46,482600052
483,4,T1_SMS_5,159,5,42,127,483081664
483,4,T1_SMS_5,160,1,48,32,483104976
483,4,T1_SMS_5,161,5,42,127,483582256
483,4,T1_SMS_5,162,1,48,41,483620456
483,4,T1_SMS_5,163,5,42,127,484082028
483,4,T1_SMS_5,164,1,48,38,484130852
483,4,T1_SMS_5,165,5,42,127,484582020
483,4,T1_SMS_5,166,1,48,35,484616028
483,4,T1_SMS_5,167,5,42,127,485081568
483,4,T1_SMS_5,168,1,48,42,485128520
483,4,T1_SMS_5,169,5,42,127,485582160
483,4,T1_SMS_5,170,1,48,39,485635616
483,4,T1_SMS_5,171,5,42,127,486081832
483,4,T1_SMS_5,172,1,48,40,486106740
483,4,T1_SMS_5,173,5,42,127,486581748
483,4,T1_SMS_5,174,1,48,35,486592796
483,4,T1_SMS_5,175,1,48,45,487081284
483,4,T1_SMS_5,176,5,42,127,487083084
483,4,T1_SMS_5,177,5,42,127,487582108
483,4,T1_SMS_5,178,1,48,43,487616724
483,4,T1_SMS_5,179,5,42,127,488081732
483,4,T1_SMS_5,180,1,48,41,488101156
483,4,T1_SMS_5,181,1,48,43,488578988
483,4,T1_SMS_5,182,5,42,127,488581640
483,4,T1_SMS_5,183,5,42,127,489082092
483,4,T1_SMS_5,184,1,48,41,489083060
483,4,T1_SMS_5,185,5,42,127,489581864
483,4,T1_SMS_5,186,1,48,45,489601288
483,4,T1_SMS_5,187,5,42,127,490081556
483,4,T1_SMS_5,188,1,48,47,490088340
483,4,T1_SMS_5,189,5,42,127,490582596
483,4,T1_SMS_5,190,1,48,39,490589832
483,4,T1_SMS_5,191,5,42,127,491082068
483,4,T1_SMS_5,192,1,48,30,491131484
483,4,T1_SMS_5,193,5,42,127,491581688
483,4,T1_SMS_5,194,1,48,33,491647116
483,4,T1_SMS_5,195,5,42,127,492081680
483,4,T1_SMS_5,196,1,48,48,492090560
483,4,T1_SMS_5,197,5,42,127,492582200
483,4,T1_SMS_5,198,1,48,51,492604616
483,4,T1_SMS_5,199,5,42,127,493081968
483,4,T1_SMS_5,200,1,48,45,493123012
483,4,T1_SMS_5,201,5,42,127,493581588
483,4,T1_SMS_5,202,5,42,127,494082576
483,4,T1_SMS_5,203,1,48,51,494140672
483,4,T1_SMS_5,204,5,42,127,494582196
483,4,T1_SMS_5,205,1,48,40,494613520
483,4,T1_SMS_5,206,5,42,127,495081744
483,4,T1_SMS_5,207,1,48,41,495112836
483,4,T1_SMS_5,208,5,42,127,495581516
483,4,T1_SMS_5,209,5,42,127,496082500
483,4,T1_SMS_5,210,1,48,56,496162964
483,4,T1_SMS_5,211,5,42,127,496581972
483,4,T1_SMS_5,212,1,48,41,496690708
483,4,T1_SMS_5,213,5,42,127,497081644
483,4,T1_SMS_5,214,1,48,46,497156224
483,4,T1_SMS_5,215,5,42,127,497581412
483,4,T1_SMS_5,216,1,48,40,497648208
483,4,T1_SMS_5,217,5,42,127,498082228
483,4,T1_SMS_5,218,1,48,38,498108688
483,4,T1_SMS_5,219,5,42,127,498581776
483,4,T1_SMS_5,220,1,48,31,498629048
483,4,T1_SMS_5,221,5,42,127,499081468
483,4,T1_SMS_5,222,1,48,29,499144224
483,4,T1_SMS_5,223,5,42,127,499582284
483,4,T1_SMS_5,224,1,48,44,499597376
483,4,T1_SMS_5,225,5,42,127,500081904
483,4,T1_SMS_5,226,1,48,43,500135360
483,4,T1_SMS_5,227,1,48,46,500568916
483,4,T1_SMS_5,228,5,42,127,500581816
483,4,T1_SMS_5,229,5,42,127,501081592
483,4,T1_SMS_5,230,1,48,47,501145896
483,4,T1_SMS_5,231,5,42,127,501582332
483,4,T1_SMS_5,232,1,48,43,501645368
483,4,T1_SMS_5,233,5,42,127,502081952
483,4,T1_SMS_5,234,1,48,34,502149772
483,4,T1_SMS_5,235,5,42,127,502581572
483,4,T1_SMS_5,236,1,48,43,502655820
483,4,T1_SMS_5,237,5,42,127,503082316
483,4,T1_SMS_5,238,1,48,48,503140112
483,4,T1_SMS_5,239,5,42,127,503582232
483,4,T1_SMS_5,240,1,48,45,503623200
483,4,T1_SMS_5,241,5,42,127,504081704
483,4,T1_SMS_5,242,1,48,49,504108608
483,4,T1_SMS_5,243,5,42,127,504581548
483,4,T1_SMS_5,244,1,48,37,504683172
483,4,T1_SMS_5,245,5,42,127,505082440
483,4,T1_SMS_5,246,1,48,36,505144048
483,4,T1_SMS_5,247,1,48,49,505576180
483,4,T1_SMS_5,248,5,42,127,505582124
483,4,T1_SMS_5,249,5,42,127,506081680
483,4,T1_SMS_5,250,1,48,48,506115540
483,4,T1_SMS_5,251,5,42,127,506582420
483,4,T1_SMS_5,252,1,48,32,506624064
483,4,T1_SMS_5,253,5,42,127,507082188
483,4,T1_SMS_5,254,1,48,48,507092784
483,4,T1_SMS_5,0,9999,9999,9999,442580080
483,4,T1_SMS_5,1,9999,9999,9999,443079796
483,4,T1_SMS_5,2,9999,9999,9999,443579464
483,4,T1_SMS_5,3,9999,9999,9999,444079156
483,4,T1_SMS_5,4,9999,9999,9999,444579900
483,4,T1_SMS_5,5,9999,9999,9999,445079664
483,4,T1_SMS_5,6,9999,9999,9999,445579364
483,4,T1_SMS_5,7,9999,9999,9999,446080104
483,4,T1_SMS_5,8,9999,9999,9999,446579800
483,4,T1_SMS_5,9,9999,9999,9999,447079492
483,4,T1_SMS_5,10,9999,9999,9999,447579188
483,4,T1_SMS_5,11,9999,9999,9999,448079928
483,4,T1_SMS_5,12,9999,9999,9999,448579700
483,4,T1_SMS_5,13,9999,9999,9999,449079396
483,4,T1_SMS_5,14,9999,9999,9999,449579084
483,4,T1_SMS_5,15,9999,9999,9999,450079828
483,4,T1_SMS_5,16,9999,9999,9999,450579524
483,4,T1_SMS_5,17,9999,9999,9999,451079216
483,4,T1_SMS_5,18,9999,9999,9999,451579960
483,4,T1_SMS_5,19,9999,9999,9999,452079732
483,4,T1_SMS_5,20,9999,9999,9999,452579424
483,4,T1_SMS_5,21,9999,9999,9999,453079124
483,4,T1_SMS_5,22,9999,9999,9999,453579872
483,4,T1_SMS_5,23,9999,9999,9999,454079536
483,4,T1_SMS_5,24,9999,9999,9999,454579304
483,4,T1_SMS_5,25,9999,9999,9999,455080040
483,4,T1_SMS_5,26,9999,9999,9999,455579744
483,4,T1_SMS_5,27,9999,9999,9999,456079436
483,4,T1_SMS_5,28,9999,9999,9999,456579128
483,4,T1_SMS_5,29,9999,9999,9999,457079876
483,4,T1_SMS_5,30,9999,9999,9999,457579636
483,4,T1_SMS_5,31,9999,9999,9999,458079340
483,4,T1_SMS_5,32,9999,9999,9999,458580080
483,4,T1_SMS_5,33,9999,9999,9999,459079768
483,4,T1_SMS_5,34,9999,9999,9999,459579468
483,4,T1_SMS_5,35,9999,9999,9999,460079164
483,4,T1_SMS_5,36,9999,9999,9999,460579904
483,4,T1_SMS_5,37,9999,9999,9999,461079668
483,4,T1_SMS_5,38,9999,9999,9999,461579368
483,4,T1_SMS_5,39,9999,9999,9999,462080112
483,4,T1_SMS_5,40,9999,9999,9999,462579804
483,4,T1_SMS_5,41,9999,9999,9999,463079500
483,4,T1_SMS_5,42,9999,9999,9999,463579196
483,4,T1_SMS_5,43,9999,9999,9999,464079936
483,4,T1_SMS_5,44,9999,9999,9999,464579680
483,4,T1_SMS_5,45,9999,9999,9999,465079356
483,4,T1_SMS_5,46,9999,9999,9999,465579124
483,4,T1_SMS_5,47,9999,9999,9999,466079800
483,4,T1_SMS_5,48,9999,9999,9999,466579556
483,4,T1_SMS_5,49,9999,9999,9999,467079256
483,4,T1_SMS_5,50,9999,9999,9999,467580020
483,4,T1_SMS_5,51,9999,9999,9999,468079708
483,4,T1_SMS_5,52,9999,9999,9999,468579408
483,4,T1_SMS_5,53,9999,9999,9999,469079104
483,4,T1_SMS_5,54,9999,9999,9999,469579844
483,4,T1_SMS_5,55,9999,9999,9999,470079540
483,4,T1_SMS_5,56,9999,9999,9999,470579312
483,4,T1_SMS_5,57,9999,9999,9999,471080044
483,4,T1_SMS_5,58,9999,9999,9999,471579748
483,4,T1_SMS_5,59,9999,9999,9999,472079440
483,4,T1_SMS_5,60,9999,9999,9999,472579136
483,4,T1_SMS_5,61,9999,9999,9999,473079876
483,4,T1_SMS_5,62,9999,9999,9999,473579572
483,4,T1_SMS_5,63,9999,9999,9999,474079288
483,4,T1_SMS_5,64,9999,9999,9999,474580032
483,4,T1_SMS_5,65,9999,9999,9999,475079800
483,4,T1_SMS_5,66,9999,9999,9999,475579472
483,4,T1_SMS_5,67,9999,9999,9999,476079164
483,4,T1_SMS_5,68,9999,9999,9999,476579908
483,4,T1_SMS_5,69,9999,9999,9999,477079604
483,4,T1_SMS_5,70,9999,9999,9999,477579372
483,4,T1_SMS_5,71,9999,9999,9999,478080112
483,4,T1_SMS_5,72,9999,9999,9999,478579808
483,4,T1_SMS_5,73,9999,9999,9999,479079500
483,4,T1_SMS_5,74,9999,9999,9999,479579196
483,4,T1_SMS_5,75,9999,9999,9999,480079936
483,4,T1_SMS_5,76,9999,9999,9999,480579704
483,4,T1_SMS_5,77,9999,9999,9999,481079400
483,4,T1_SMS_5,78,9999,9999,9999,481579096
483,4,T1_SMS_5,79,9999,9999,9999,482079836
483,4,T1_SMS_5,80,9999,9999,9999,482579532
483,4,T1_SMS_5,81,9999,9999,9999,483079228
483,4,T1_SMS_5,82,9999,9999,9999,483579968
483,4,T1_SMS_5,83,9999,9999,9999,484079664
483,4,T1_SMS_5,84,9999,9999,9999,484579436
483,4,T1_SMS_5,85,9999,9999,9999,485079132
483,4,T1_SMS_5,86,9999,9999,9999,485579872
483,4,T1_SMS_5,87,9999,9999,9999,486079544
483,4,T1_SMS_5,88,9999,9999,9999,486579312
483,4,T1_SMS_5,89,9999,9999,9999,487080052
483,4,T1_SMS_5,90,9999,9999,9999,487579748
483,4,T1_SMS_5,91,9999,9999,9999,488079444
483,4,T1_SMS_5,92,9999,9999,9999,488579132
483,4,T1_SMS_5,93,9999,9999,9999,489079880
483,4,T1_SMS_5,94,9999,9999,9999,489579576
483,4,T1_SMS_5,95,9999,9999,9999,490079344
483,4,T1_SMS_5,96,9999,9999,9999,490580088
483,4,T1_SMS_5,97,9999,9999,9999,491079780
483,4,T1_SMS_5,98,9999,9999,9999,491579476
483,4,T1_SMS_5,99,9999,9999,9999,492079168
483,4,T1_SMS_5,100,9999,9999,9999,492579912
483,4,T1_SMS_5,101,9999,9999,9999,493079608
483,4,T1_SMS_5,102,9999,9999,9999,493579376
483,4,T1_SMS_5,103,9999,9999,9999,494080068
483,4,T1_SMS_5,104,9999,9999,9999,494579760
483,4,T1_SMS_5,105,9999,9999,9999,495079532
483,4,T1_SMS_5,106,9999,9999,9999,495579228
483,4,T1_SMS_5,107,9999,9999,9999,496079992
483,4,T1_SMS_5,108,9999,9999,9999,496579660
483,4,T1_SMS_5,109,9999,9999,9999,497079356
483,4,T1_SMS_5,110,9999,9999,9999,497579128
483,4,T1_SMS_5,111,9999,9999,9999,498079792
483,4,T1_SMS_5,112,9999,9999,9999,498579564
483,4,T1_SMS_5,113,9999,9999,9999,499079256
483,4,T1_SMS_5,114,9999,9999,9999,499580000
483,4,T1_SMS_5,115,9999,9999,9999,500079692
483,4,T1_SMS_5,116,9999,9999,9999,500579380
483,4,T1_SMS_5,117,9999,9999,9999,501079156
483,4,T1_SMS_5,118,9999,9999,9999,501579896
483,4,T1_SMS_5,119,9999,9999,9999,502079592
483,4,T1_SMS_5,120,9999,9999,9999,502579288
483,4,T1_SMS_5,121,9999,9999,9999,503080028
483,4,T1_SMS_5,122,9999,9999,9999,503579724
483,4,T1_SMS_5,123,9999,9999,9999,504079416
483,4,T1_SMS_5,124,9999,9999,9999,504579188
483,4,T1_SMS_5,125,9999,9999,9999,505079928
483,4,T1_SMS_5,126,9999,9999,9999,505579616
483,4,T1_SMS_5,127,9999,9999,9999,506079316
483,4,T1_SMS_5,128,9999,9999,9999,506580060
483,4,T1_SMS_5,129,9999,9999,9999,507079752
484,2,T1_SMS_8,0,5,42,127,589006184
484,2,T1_SMS_8,1,5,42,127,589805864
484,2,T1_SMS_8,2,1,48,69,590107156
484,2,T1_SMS_8,3,5,42,127,590605968
484,2,T1_SMS_8,4,1,48,58,590749112
484,2,T1_SMS_8,5,5,42,127,591405328
484,2,T1_SMS_8,6,1,48,42,591413156
484,2,T1_SMS_8,7,1,48,47,592176604
484,2,T1_SMS_8,8,5,42,127,592206176
484,2,T1_SMS_8,9,1,48,57,592968032
484,2,T1_SMS_8,10,5,42,127,593005908
484,2,T1_SMS_8,11,1,48,52,593799700
484,2,T1_SMS_8,12,5,42,127,593805792
484,2,T1_SMS_8,13,1,48,43,594591880
484,2,T1_SMS_8,14,5,42,127,594605524
484,2,T1_SMS_8,15,5,42,127,595406112
484,2,T1_SMS_8,16,1,48,57,595426360
484,2,T1_SMS_8,17,5,42,127,596206068
484,2,T1_SMS_8,18,1,48,52,596208668
484,2,T1_SMS_8,19,5,42,127,597005800
484,2,T1_SMS_8,20,1,48,52,597040036
484,2,T1_SMS_8,21,5,42,127,597805608
484,2,T1_SMS_8,22,1,48,49,597815908
484,2,T1_SMS_8,23,5,42,127,598606092
484,2,T1_SMS_8,24,1,48,45,598644068
484,2,T1_SMS_8,25,5,42,127,599405824
484,2,T1_SMS_8,26,1,48,52,599418444
484,2,T1_SMS_8,27,1,48,49,600201104
484,2,T1_SMS_8,28,5,42,127,600205776
484,2,T1_SMS_8,29,1,48,61,601000168
484,2,T1_SMS_8,30,5,42,127,601005584
484,2,T1_SMS_8,31,5,42,127,601806468
484,2,T1_SMS_8,32,1,48,51,601810712
484,2,T1_SMS_8,33,1,48,47,602573700
484,2,T1_SMS_8,34,5,42,127,602605972
484,2,T1_SMS_8,35,1,48,52,603394004
484,2,T1_SMS_8,36,5,42,127,603405632
484,2,T1_SMS_8,37,1,48,51,604199796
484,2,T1_SMS_8,38,5,42,127,604205588
484,2,T1_SMS_8,39,5,42,127,605006300
484,2,T1_SMS_8,40,1,48,56,605043828
484,2,T1_SMS_8,41,5,42,127,605806032
484,2,T1_SMS_8,42,1,48,54,605823440
484,2,T1_SMS_8,43,5,42,127,606605768
484,2,T1_SMS_8,44,1,48,52,606606736
484,2,T1_SMS_8,45,1,48,50,607370228
484,2,T1_SMS_8,46,5,42,127,607405272
484,2,T1_SMS_8,47,1,48,53,608188964
484,2,T1_SMS_8,48,5,42,127,608206372
484,2,T1_SMS_8,49,1,48,64,608960148
484,2,T1_SMS_8,50,5,42,127,609005880
484,2,T1_SMS_8,51,5,42,127,609805548
484,2,T1_SMS_8,52,1,48,46,609824520
484,2,T1_SMS_8,53,1,48,58,610556844
484,2,T1_SMS_8,54,5,42,127,610605352
484,2,T1_SMS_8,55,1,48,55,611406136
484,2,T1_SMS_8,56,5,42,127,611407624
484,2,T1_SMS_8,57,5,42,127,612205796
484,2,T1_SMS_8,58,1,48,49,612222748
484,2,T1_SMS_8,59,1,48,46,612996960
484,2,T1_SMS_8,60,5,42,127,613005596
484,2,T1_SMS_8,61,5,42,127,613805408
484,2,T1_SMS_8,62,1,48,53,613812792
484,2,T1_SMS_8,63,1,48,49,614595928
484,2,T1_SMS_8,64,5,42,127,614606060
484,2,T1_SMS_8,65,1,48,49,615392520
484,2,T1_SMS_8,66,5,42,127,615406088
484,2,T1_SMS_8,67,5,42,127,616205536
484,2,T1_SMS_8,68,1,48,44,616225184
484,2,T1_SMS_8,69,5,42,127,617005268
484,2,T1_SMS_8,70,1,48,53,617018860
484,2,T1_SMS_8,71,5,42,127,617806272
484,2,T1_SMS_8,72,1,48,41,617825624
484,2,T1_SMS_8,73,5,42,127,618605856
484,2,T1_SMS_8,74,1,48,55,618625356
484,2,T1_SMS_8,75,1,48,59,619404688
484,2,T1_SMS_8,76,5,42,127,619406484
484,2,T1_SMS_8,77,5,42,127,620205396
484,2,T1_SMS_8,78,1,48,56,620265308
484,2,T1_SMS_8,79,5,42,127,621006128
484,2,T1_SMS_8,80,1,48,40,621093320
484,2,T1_SMS_8,81,5,42,127,621805936
484,2,T1_SMS_8,82,1,48,37,621827160
484,2,T1_SMS_8,83,5,42,127,622605964
484,2,T1_SMS_8,84,1,48,42,622638636
484,2,T1_SMS_8,85,5,42,127,623405404
484,2,T1_SMS_8,86,1,48,46,623413384
484,2,T1_SMS_8,87,5,42,127,624206180
484,2,T1_SMS_8,88,1,48,48,624215808
484,2,T1_SMS_8,89,1,48,39,625005160
484,2,T1_SMS_8,90,5,42,127,625006884
484,2,T1_SMS_8,91,1,48,41,625794240
484,2,T1_SMS_8,92,5,42,127,625805788
484,2,T1_SMS_8,93,1,48,31,626605308
484,2,T1_SMS_8,94,5,42,127,626606944
484,2,T1_SMS_8,95,5,42,127,627406188
484,2,T1_SMS_8,96,1,48,43,627408784
484,2,T1_SMS_8,97,5,42,127,628205996
484,2,T1_SMS_8,98,1,48,50,628214648
484,2,T1_SMS_8,99,1,48,57,629000528
484,2,T1_SMS_8,100,5,42,127,629005868
484,2,T1_SMS_8,101,5,42,127,629805684
484,2,T1_SMS_8,102,1,48,51,629867900
484,2,T1_SMS_8,103,5,42,127,630606316
484,2,T1_SMS_8,104,1,48,52,630614820
484,2,T1_SMS_8,105,1,48,52,631399352
484,2,T1_SMS_8,106,5,42,127,631405968
484,2,T1_SMS_8,107,5,42,127,632205632
484,2,T1_SMS_8,108,1,48,46,632224532
484,2,T1_SMS_8,109,5,42,127,633005364
484,2,T1_SMS_8,110,1,48,55,633011480
484,2,T1_SMS_8,111,5,42,127,633806320
484,2,T1_SMS_8,112,1,48,49,633839740
484,2,T1_SMS_8,113,5,42,127,634605980
484,2,T1_SMS_8,114,1,48,58,634658844
484,2,T1_SMS_8,115,1,48,53,635403748
484,2,T1_SMS_8,116,5,42,127,635405632
484,2,T1_SMS_8,117,5,42,127,636205596
484,2,T1_SMS_8,118,1,48,58,636242976
484,2,T1_SMS_8,119,5,42,127,637006152
484,2,T1_SMS_8,120,1,48,52,637019524
484,2,T1_SMS_8,121,5,42,127,637805888
484,2,T1_SMS_8,122,1,48,57,637839296
484,2,T1_SMS_8,123,5,42,127,638605544
484,2,T1_SMS_8,124,1,48,58,638634544
484,2,T1_SMS_8,125,5,42,127,639405428
484,2,T1_SMS_8,126,1,48,47,639472596
484,2,T1_SMS_8,127,5,42,127,640206160
484,2,T1_SMS_8,128,1,48,50,640271060
484,2,T1_SMS_8,129,5,42,127,641005816
484,2,T1_SMS_8,130,1,48,52,641035340
484,2,T1_SMS_8,131,5,42,127,641805700
484,2,T1_SMS_8,132,1,48,48,641841656
484,2,T1_SMS_8,133,5,42,127,642605360
484,2,T1_SMS_8,134,1,48,53,642621192
484,2,T1_SMS_8,135,5,42,127,643406288
484,2,T1_SMS_8,136,1,48,47,643442772
484,2,T1_SMS_8,137,5,42,127,644205948
484,2,T1_SMS_8,138,1,48,46,644210792
484,2,T1_SMS_8,139,5,42,127,645005532
484,2,T1_SMS_8,140,1,48,41,645008652
484,2,T1_SMS_8,141,5,42,127,645805412
484,2,T1_SMS_8,142,1,48,64,645858896
484,2,T1_SMS_8,143,5,42,127,646606364
484,2,T1_SMS_8,144,1,48,58,646668728
484,2,T1_SMS_8,145,5,42,127,647405876
484,2,T1_SMS_8,146,1,48,66,647441008
484,2,T1_SMS_8,147,5,42,127,648205684
484,2,T1_SMS_8,148,1,48,52,648275076
484,2,T1_SMS_8,149,5,42,127,649005416
484,2,T1_SMS_8,150,1,48,48,649056784
484,2,T1_SMS_8,151,5,42,127,649806420
484,2,T1_SMS_8,152,1,48,59,649880004
484,2,T1_SMS_8,153,5,42,127,650605860
484,2,T1_SMS_8,154,1,48,50,650629552
484,2,T1_SMS_8,155,5,42,127,651405664
484,2,T1_SMS_8,156,1,48,49,651478748
484,2,T1_SMS_8,157,5,42,127,652205548
484,2,T1_SMS_8,158,1,48,59,652223352
484,2,T1_SMS_8,159,5,42,127,653006128
484,2,T1_SMS_8,160,1,48,59,653031088
484,2,T1_SMS_8,161,5,42,127,653806088
484,2,T1_SMS_8,162,1,48,49,653858424
484,2,T1_SMS_8,163,5,42,127,654605672
484,2,T1_SMS_8,164,1,48,60,654662272
484,2,T1_SMS_8,165,5,42,127,655405552
484,2,T1_SMS_8,166,1,48,47,655419220
484,2,T1_SMS_8,167,5,42,127,656206184
484,2,T1_SMS_8,168,1,48,49,656225388
484,2,T1_SMS_8,169,5,42,127,657006288
484,2,T1_SMS_8,170,1,48,51,657076052
484,2,T1_SMS_8,171,5,42,127,657805652
484,2,T1_SMS_8,172,1,48,54,657846472
484,2,T1_SMS_8,173,5,42,127,658605384
484,2,T1_SMS_8,174,1,48,58,658668364
484,2,T1_SMS_8,175,5,42,127,659406112
484,2,T1_SMS_8,176,1,48,61,659475052
484,2,T1_SMS_8,177,5,42,127,660206220
484,2,T1_SMS_8,178,1,48,54,660264912
484,2,T1_SMS_8,179,5,42,127,661005652
484,2,T1_SMS_8,180,1,48,49,661062252
484,2,T1_SMS_8,181,5,42,127,661805540
484,2,T1_SMS_8,182,1,48,48,661944492
484,2,T1_SMS_8,183,5,42,127,662606244
484,2,T1_SMS_8,184,1,48,52,662682140
484,2,T1_SMS_8,185,5,42,127,663405900
484,2,T1_SMS_8,186,1,48,45,663493340
484,2,T1_SMS_8,187,5,42,127,664205932
484,2,T1_SMS_8,188,1,48,59,664274080
484,2,T1_SMS_8,189,5,42,127,665005368
484,2,T1_SMS_8,190,1,48,58,665121456
484,2,T1_SMS_8,191,5,42,127,665806172
484,2,T1_SMS_8,192,1,48,55,665844368
484,2,T1_SMS_8,193,5,42,127,666605980
484,2,T1_SMS_8,194,1,48,57,666647848
484,2,T1_SMS_8,195,5,42,127,667406008
484,2,T1_SMS_8,196,1,48,46,667468972
484,2,T1_SMS_8,197,5,42,127,668205296
484,2,T1_SMS_8,198,1,48,46,668327644
484,2,T1_SMS_8,199,1,48,53,668995788
484,2,T1_SMS_8,200,5,42,127,669006216
484,2,T1_SMS_8,201,1,48,44,669798592
484,2,T1_SMS_8,202,5,42,127,669805804
484,2,T1_SMS_8,203,1,48,54,670601688
484,2,T1_SMS_8,204,5,42,127,670605980
484,2,T1_SMS_8,205,5,42,127,671405572
484,2,T1_SMS_8,206,1,48,47,671415352
484,2,T1_SMS_8,207,1,48,52,672184024
484,2,T1_SMS_8,208,5,42,127,672206296
484,2,T1_SMS_8,209,1,48,71,673002784
484,2,T1_SMS_8,210,5,42,127,673005880
484,2,T1_SMS_8,211,5,42,127,673805548
484,2,T1_SMS_8,212,1,48,63,673824448
484,2,T1_SMS_8,213,5,42,127,674605728
484,2,T1_SMS_8,214,1,48,54,674678412
484,2,T1_SMS_8,215,5,42,127,675406136
484,2,T1_SMS_8,216,1,48,54,675456380
484,2,T1_SMS_8,217,5,42,127,676205796
484,2,T1_SMS_8,218,1,48,57,676219916
484,2,T1_SMS_8,219,5,42,127,677005752
484,2,T1_SMS_8,220,1,48,50,677020020
484,2,T1_SMS_8,221,5,42,127,677805632
484,2,T1_SMS_8,222,1,48,50,677827856
484,2,T1_SMS_8,223,5,42,127,678606140
484,2,T1_SMS_8,224,1,48,51,678687952
484,2,T1_SMS_8,225,5,42,127,679405800
484,2,T1_SMS_8,226,1,48,56,679432260
484,2,T1_SMS_8,227,5,42,127,680205608
484,2,T1_SMS_8,228,1,48,55,680209480
484,2,T1_SMS_8,229,5,42,127,681005568
484,2,T1_SMS_8,230,1,48,64,681014968
484,2,T1_SMS_8,231,5,42,127,681806124
484,2,T1_SMS_8,232,1,48,60,681864224
484,2,T1_SMS_8,233,1,38,16,681874148
484,2,T1_SMS_8,234,1,48,51,682604216
484,2,T1_SMS_8,235,5,42,127,682605880
484,2,T1_SMS_8,236,5,42,127,683405620
484,2,T1_SMS_8,237,1,48,51,683472340
484,2,T1_SMS_8,238,5,42,127,684205352
484,2,T1_SMS_8,239,1,48,54,684271552
484,2,T1_SMS_8,0,9999,9999,9999,589003896
484,2,T1_SMS_8,1,9999,9999,9999,589803576
484,2,T1_SMS_8,2,9999,9999,9999,590603384
484,2,T1_SMS_8,3,9999,9999,9999,591403116
484,2,T1_SMS_8,4,9999,9999,9999,592203888
484,2,T1_SMS_8,5,9999,9999,9999,593003620
484,2,T1_SMS_8,6,9999,9999,9999,593803356
484,2,T1_SMS_8,7,9999,9999,9999,594603088
484,2,T1_SMS_8,8,9999,9999,9999,595403824
484,2,T1_SMS_8,9,9999,9999,9999,596203632
484,2,T1_SMS_8,10,9999,9999,9999,597003364
484,2,T1_SMS_8,11,9999,9999,9999,597803100
484,2,T1_SMS_8,12,9999,9999,9999,598603880
484,2,T1_SMS_8,13,9999,9999,9999,599403612
484,2,T1_SMS_8,14,9999,9999,9999,600203340
484,2,T1_SMS_8,15,9999,9999,9999,601003072
484,2,T1_SMS_8,16,9999,9999,9999,601803884
484,2,T1_SMS_8,17,9999,9999,9999,602603612
484,2,T1_SMS_8,18,9999,9999,9999,603403344
484,2,T1_SMS_8,19,9999,9999,9999,604203076
484,2,T1_SMS_8,20,9999,9999,9999,605003864
484,2,T1_SMS_8,21,9999,9999,9999,605803596
484,2,T1_SMS_8,22,9999,9999,9999,606603332
484,2,T1_SMS_8,23,9999,9999,9999,607403056
484,2,T1_SMS_8,24,9999,9999,9999,608203860
484,2,T1_SMS_8,25,9999,9999,9999,609003592
484,2,T1_SMS_8,26,9999,9999,9999,609803332
484,2,T1_SMS_8,27,9999,9999,9999,610603064
484,2,T1_SMS_8,28,9999,9999,9999,611403848
484,2,T1_SMS_8,29,9999,9999,9999,612203580
484,2,T1_SMS_8,30,9999,9999,9999,613003380
484,2,T1_SMS_8,31,9999,9999,9999,613803120
484,2,T1_SMS_8,32,9999,9999,9999,614603848
484,2,T1_SMS_8,33,9999,9999,9999,615403580
484,2,T1_SMS_8,34,9999,9999,9999,616203320
484,2,T1_SMS_8,35,9999,9999,9999,617003052
484,2,T1_SMS_8,36,9999,9999,9999,617803836
484,2,T1_SMS_8,37,9999,9999,9999,618603568
484,2,T1_SMS_8,38,9999,9999,9999,619403376
484,2,T1_SMS_8,39,9999,9999,9999,620203108
484,2,T1_SMS_8,40,9999,9999,9999,621003840
484,2,T1_SMS_8,41,9999,9999,9999,621803572
484,2,T1_SMS_8,42,9999,9999,9999,622603380
484,2,T1_SMS_8,43,9999,9999,9999,623403112
484,2,T1_SMS_8,44,9999,9999,9999,624203892
484,2,T1_SMS_8,45,9999,9999,9999,625003628
484,2,T1_SMS_8,46,9999,9999,9999,625803352
484,2,T1_SMS_8,47,9999,9999,9999,626603092
484,2,T1_SMS_8,48,9999,9999,9999,627403824
484,2,T1_SMS_8,49,9999,9999,9999,628203632
484,2,T1_SMS_8,50,9999,9999,9999,629003360
484,2,T1_SMS_8,51,9999,9999,9999,629803100
484,2,T1_SMS_8,52,9999,9999,9999,630603880
484,2,T1_SMS_8,53,9999,9999,9999,631403604
484,2,T1_SMS_8,54,9999,9999,9999,632203344
484,2,T1_SMS_8,55,9999,9999,9999,633003076
484,2,T1_SMS_8,56,9999,9999,9999,633803884
484,2,T1_SMS_8,57,9999,9999,9999,634603616
484,2,T1_SMS_8,58,9999,9999,9999,635403376
484,2,T1_SMS_8,59,9999,9999,9999,636203084
484,2,T1_SMS_8,60,9999,9999,9999,637003864
484,2,T1_SMS_8,61,9999,9999,9999,637803600
484,2,T1_SMS_8,62,9999,9999,9999,638603332
484,2,T1_SMS_8,63,9999,9999,9999,639403064
484,2,T1_SMS_8,64,9999,9999,9999,640203872
484,2,T1_SMS_8,65,9999,9999,9999,641003604
484,2,T1_SMS_8,66,9999,9999,9999,641803340
484,2,T1_SMS_8,67,9999,9999,9999,642603072
484,2,T1_SMS_8,68,9999,9999,9999,643403852
484,2,T1_SMS_8,69,9999,9999,9999,644203584
484,2,T1_SMS_8,70,9999,9999,9999,645003316
484,2,T1_SMS_8,71,9999,9999,9999,645803124
484,2,T1_SMS_8,72,9999,9999,9999,646603856
484,2,T1_SMS_8,73,9999,9999,9999,647403588
484,2,T1_SMS_8,74,9999,9999,9999,648203320
484,2,T1_SMS_8,75,9999,9999,9999,649003056
484,2,T1_SMS_8,76,9999,9999,9999,649803836
484,2,T1_SMS_8,77,9999,9999,9999,650603572
484,2,T1_SMS_8,78,9999,9999,9999,651403376
484,2,T1_SMS_8,79,9999,9999,9999,652203112
484,2,T1_SMS_8,80,9999,9999,9999,653003840
484,2,T1_SMS_8,81,9999,9999,9999,653803576
484,2,T1_SMS_8,82,9999,9999,9999,654603308
484,2,T1_SMS_8,83,9999,9999,9999,655403116
484,2,T1_SMS_8,84,9999,9999,9999,656203824
484,2,T1_SMS_8,85,9999,9999,9999,657003628
484,2,T1_SMS_8,86,9999,9999,9999,657803364
484,2,T1_SMS_8,87,9999,9999,9999,658603096
484,2,T1_SMS_8,88,9999,9999,9999,659403824
484,2,T1_SMS_8,89,9999,9999,9999,660203632
484,2,T1_SMS_8,90,9999,9999,9999,661003364
484,2,T1_SMS_8,91,9999,9999,9999,661803100
484,2,T1_SMS_8,92,9999,9999,9999,662603880
484,2,T1_SMS_8,93,9999,9999,9999,663403612
484,2,T1_SMS_8,94,9999,9999,9999,664203348
484,2,T1_SMS_8,95,9999,9999,9999,665003080
484,2,T1_SMS_8,96,9999,9999,9999,665803884
484,2,T1_SMS_8,97,9999,9999,9999,666603616
484,2,T1_SMS_8,98,9999,9999,9999,667403348
484,2,T1_SMS_8,99,9999,9999,9999,668203084
484,2,T1_SMS_8,100,9999,9999,9999,669003856
484,2,T1_SMS_8,101,9999,9999,9999,669803588
484,2,T1_SMS_8,102,9999,9999,9999,670603324
484,2,T1_SMS_8,103,9999,9999,9999,671403060
484,2,T1_SMS_8,104,9999,9999,9999,672203860
484,2,T1_SMS_8,105,9999,9999,9999,673003592
484,2,T1_SMS_8,106,9999,9999,9999,673803332
484,2,T1_SMS_8,107,9999,9999,9999,674603068
484,2,T1_SMS_8,108,9999,9999,9999,675403848
484,2,T1_SMS_8,109,9999,9999,9999,676203580
484,2,T1_SMS_8,110,9999,9999,9999,677003316
484,2,T1_SMS_8,111,9999,9999,9999,677803124
484,2,T1_SMS_8,112,9999,9999,9999,678603852
484,2,T1_SMS_8,113,9999,9999,9999,679403584
484,2,T1_SMS_8,114,9999,9999,9999,680203320
484,2,T1_SMS_8,115,9999,9999,9999,681003056
484,2,T1_SMS_8,116,9999,9999,9999,681803836
484,2,T1_SMS_8,117,9999,9999,9999,682603616
484,2,T1_SMS_8,118,9999,9999,9999,683403332
484,2,T1_SMS_8,119,9999,9999,9999,684203064
485,10,Ticks_ISO_T2_5,0,5,42,127,695219640
485,10,Ticks_ISO_T2_5,1,5,42,127,695720404
485,10,Ticks_ISO_T2_5,2,1,48,48,695945548
485,10,Ticks_ISO_T2_5,3,5,42,127,696220100
485,10,Ticks_ISO_T2_5,4,1,48,44,696323176
485,10,Ticks_ISO_T2_5,5,5,42,127,696720168
485,10,Ticks_ISO_T2_5,6,1,48,39,696785992
485,10,Ticks_ISO_T2_5,7,5,42,127,697219416
485,10,Ticks_ISO_T2_5,8,1,48,40,697258512
485,10,Ticks_ISO_T2_5,9,5,42,127,697720080
485,10,Ticks_ISO_T2_5,10,1,48,36,697783932
485,10,Ticks_ISO_T2_5,11,5,42,127,698220048
485,10,Ticks_ISO_T2_5,12,1,48,42,698267824
485,10,Ticks_ISO_T2_5,13,5,42,127,698719520
485,10,Ticks_ISO_T2_5,14,1,48,54,698754204
485,10,Ticks_ISO_T2_5,15,5,42,127,699220336
485,10,Ticks_ISO_T2_5,16,1,48,43,699281200
485,10,Ticks_ISO_T2_5,17,5,42,127,699720108
485,10,Ticks_ISO_T2_5,18,1,48,50,699750828
485,10,Ticks_ISO_T2_5,19,5,42,127,700220024
485,10,Ticks_ISO_T2_5,20,1,48,45,700241172
485,10,Ticks_ISO_T2_5,21,5,42,127,700719420
485,10,Ticks_ISO_T2_5,22,1,48,28,700789704
485,10,Ticks_ISO_T2_5,23,5,42,127,701220236
485,10,Ticks_ISO_T2_5,24,1,48,50,701274368
485,10,Ticks_ISO_T2_5,25,5,42,127,701720004
485,10,Ticks_ISO_T2_5,26,1,48,61,701774732
485,10,Ticks_ISO_T2_5,27,5,42,127,702219700
485,10,Ticks_ISO_T2_5,28,1,48,51,702293128
485,10,Ticks_ISO_T2_5,29,5,42,127,702720368
485,10,Ticks_ISO_T2_5,30,1,48,59,702800156
485,10,Ticks_ISO_T2_5,31,5,42,127,703220060
485,10,Ticks_ISO_T2_5,32,1,48,63,703285860
485,10,Ticks_ISO_T2_5,33,5,42,127,703719832
485,10,Ticks_ISO_T2_5,34,1,48,54,703761844
485,10,Ticks_ISO_T2_5,35,5,42,127,704219824
485,10,Ticks_ISO_T2_5,36,1,48,57,704259672
485,10,Ticks_ISO_T2_5,37,5,42,127,704720344
485,10,Ticks_ISO_T2_5,38,1,48,49,704770660
485,10,Ticks_ISO_T2_5,39,5,42,127,705219892
485,10,Ticks_ISO_T2_5,40,1,48,55,705312844
485,10,Ticks_ISO_T2_5,41,5,42,127,705720032
485,10,Ticks_ISO_T2_5,42,1,48,55,705747164
485,10,Ticks_ISO_T2_5,43,1,48,60,706195800
485,10,Ticks_ISO_T2_5,44,5,42,127,706220444
485,10,Ticks_ISO_T2_5,45,5,42,127,706720072
485,10,Ticks_ISO_T2_5,46,1,48,51,706810800
485,10,Ticks_ISO_T2_5,47,5,42,127,707219764
485,10,Ticks_ISO_T2_5,48,1,48,48,707274892
485,10,Ticks_ISO_T2_5,49,5,42,127,707719684
485,10,Ticks_ISO_T2_5,50,1,48,47,707765060
485,10,Ticks_ISO_T2_5,51,5,42,127,708220128
485,10,Ticks_ISO_T2_5,52,1,48,45,708283704
485,10,Ticks_ISO_T2_5,53,5,42,127,708719968
485,10,Ticks_ISO_T2_5,54,1,48,54,708739016
485,10,Ticks_ISO_T2_5,55,5,42,127,709219588
485,10,Ticks_ISO_T2_5,56,1,48,58,709235272
485,10,Ticks_ISO_T2_5,57,5,42,127,709720628
485,10,Ticks_ISO_T2_5,58,1,48,54,709765856
485,10,Ticks_ISO_T2_5,59,5,42,127,710220248
485,10,Ticks_ISO_T2_5,60,1,48,50,710244608
485,10,Ticks_ISO_T2_5,61,5,42,127,710719792
485,10,Ticks_ISO_T2_5,62,1,48,46,710729868
485,10,Ticks_ISO_T2_5,63,5,42,127,711219708
485,10,Ticks_ISO_T2_5,64,1,48,53,711234800
485,10,Ticks_ISO_T2_5,65,5,42,127,711720304
485,10,Ticks_ISO_T2_5,66,1,48,55,711752072
485,10,Ticks_ISO_T2_5,67,5,42,127,712220000
485,10,Ticks_ISO_T2_5,68,1,48,43,712242864
485,10,Ticks_ISO_T2_5,69,5,42,127,712719692
485,10,Ticks_ISO_T2_5,70,1,48,52,712730744
485,10,Ticks_ISO_T2_5,71,5,42,127,713219388
485,10,Ticks_ISO_T2_5,72,1,48,46,713257884
485,10,Ticks_ISO_T2_5,73,5,42,127,713720276
485,10,Ticks_ISO_T2_5,74,1,48,44,713737084
485,10,Ticks_ISO_T2_5,75,5,42,127,714219824
485,10,Ticks_ISO_T2_5,76,1,48,46,714228932
485,10,Ticks_ISO_T2_5,77,1,48,41,714700860
485,10,Ticks_ISO_T2_5,78,5,42,127,714719740
485,10,Ticks_ISO_T2_5,79,1,48,60,715208784
485,10,Ticks_ISO_T2_5,80,5,42,127,715220480
485,10,Ticks_ISO_T2_5,81,5,42,127,715720108
485,10,Ticks_ISO_T2_5,82,1,48,54,715746568
485,10,Ticks_ISO_T2_5,83,5,42,127,716219732
485,10,Ticks_ISO_T2_5,84,1,48,44,716263384
485,10,Ticks_ISO_T2_5,85,5,42,127,716719476
485,10,Ticks_ISO_T2_5,86,1,48,59,716750144
485,10,Ticks_ISO_T2_5,87,5,42,127,717220140
485,10,Ticks_ISO_T2_5,88,1,48,42,717259116
485,10,Ticks_ISO_T2_5,89,5,42,127,717719908
485,10,Ticks_ISO_T2_5,90,1,48,47,717762624
485,10,Ticks_ISO_T2_5,91,5,42,127,718219608
485,10,Ticks_ISO_T2_5,92,1,48,45,718255708
485,10,Ticks_ISO_T2_5,93,5,42,127,718720496
485,10,Ticks_ISO_T2_5,94,1,48,44,718802256
485,10,Ticks_ISO_T2_5,95,5,42,127,719220116
485,10,Ticks_ISO_T2_5,96,1,48,45,719264148
485,10,Ticks_ISO_T2_5,97,1,48,48,719711544
485,10,Ticks_ISO_T2_5,98,5,42,127,719719880
485,10,Ticks_ISO_T2_5,99,5,42,127,720219432
485,10,Ticks_ISO_T2_5,100,1,48,53,720223144
485,10,Ticks_ISO_T2_5,101,5,42,127,720720396
485,10,Ticks_ISO_T2_5,102,1,48,54,720737128
485,10,Ticks_ISO_T2_5,103,5,42,127,721219944
485,10,Ticks_ISO_T2_5,104,1,48,51,721239592
485,10,Ticks_ISO_T2_5,105,5,42,127,721719636
485,10,Ticks_ISO_T2_5,106,1,48,53,721750804
485,10,Ticks_ISO_T2_5,107,5,42,127,722220304
485,10,Ticks_ISO_T2_5,108,1,48,33,722290364
485,10,Ticks_ISO_T2_5,109,5,42,127,722720296
485,10,Ticks_ISO_T2_5,110,1,48,56,722748396
485,10,Ticks_ISO_T2_5,111,5,42,127,723219916
485,10,Ticks_ISO_T2_5,112,1,48,41,723274716
485,10,Ticks_ISO_T2_5,113,5,42,127,723719388
485,10,Ticks_ISO_T2_5,114,1,48,63,723760876
485,10,Ticks_ISO_T2_5,115,5,42,127,724220428
485,10,Ticks_ISO_T2_5,116,1,48,47,724273960
485,10,Ticks_ISO_T2_5,117,5,42,127,724720120
485,10,Ticks_ISO_T2_5,118,1,48,55,724776196
485,10,Ticks_ISO_T2_5,119,5,42,127,725219592
485,10,Ticks_ISO_T2_5,120,1,48,54,725252332
485,10,Ticks_ISO_T2_5,121,5,42,127,725720484
485,10,Ticks_ISO_T2_5,122,1,48,59,725729736
485,10,Ticks_ISO_T2_5,123,5,42,127,726220252
485,10,Ticks_ISO_T2_5,124,1,48,58,726246712
485,10,Ticks_ISO_T2_5,125,5,42,127,726719800
485,10,Ticks_ISO_T2_5,126,1,48,50,726763832
485,10,Ticks_ISO_T2_5,127,5,42,127,727219692
485,10,Ticks_ISO_T2_5,128,1,48,49,727267864
485,10,Ticks_ISO_T2_5,129,5,42,127,727720432
485,10,Ticks_ISO_T2_5,130,1,48,47,727746460
485,10,Ticks_ISO_T2_5,131,5,42,127,728220128
485,10,Ticks_ISO_T2_5,132,1,48,51,728266132
485,10,Ticks_ISO_T2_5,133,5,42,127,728719824
485,10,Ticks_ISO_T2_5,134,1,48,43,728774500
485,10,Ticks_ISO_T2_5,135,5,42,127,729219368
485,10,Ticks_ISO_T2_5,136,1,48,59,729234152
485,10,Ticks_ISO_T2_5,137,5,42,127,729720184
485,10,Ticks_ISO_T2_5,138,1,48,57,729755692
485,10,Ticks_ISO_T2_5,139,5,42,127,730220324
485,10,Ticks_ISO_T2_5,140,1,48,46,730250672
485,10,Ticks_ISO_T2_5,141,5,42,127,730719572
485,10,Ticks_ISO_T2_5,142,1,48,44,730802276
485,10,Ticks_ISO_T2_5,143,5,42,127,731220388
485,10,Ticks_ISO_T2_5,144,1,48,36,731286408
485,10,Ticks_ISO_T2_5,145,5,42,127,731720080
485,10,Ticks_ISO_T2_5,146,1,48,48,731762468
485,10,Ticks_ISO_T2_5,147,5,42,127,732219704
485,10,Ticks_ISO_T2_5,148,1,48,55,732291112
485,10,Ticks_ISO_T2_5,149,5,42,127,732719320
485,10,Ticks_ISO_T2_5,150,1,48,38,732796636
485,10,Ticks_ISO_T2_5,151,5,42,127,733220140
485,10,Ticks_ISO_T2_5,152,1,48,46,733263644
485,10,Ticks_ISO_T2_5,153,5,42,127,733720132
485,10,Ticks_ISO_T2_5,154,1,48,47,733721096
485,10,Ticks_ISO_T2_5,155,5,42,127,734219604
485,10,Ticks_ISO_T2_5,156,1,48,42,734292136
485,10,Ticks_ISO_T2_5,157,5,42,127,734720344
485,10,Ticks_ISO_T2_5,158,1,48,42,734743060
485,10,Ticks_ISO_T2_5,159,5,42,127,735220188
485,10,Ticks_ISO_T2_5,160,1,48,47,735260180
485,10,Ticks_ISO_T2_5,161,5,42,127,735719880
485,10,Ticks_ISO_T2_5,162,1,48,45,735775652
485,10,Ticks_ISO_T2_5,163,5,42,127,736219576
485,10,Ticks_ISO_T2_5,164,1,48,53,736282684
485,10,Ticks_ISO_T2_5,165,5,42,127,736720316
485,10,Ticks_ISO_T2_5,166,1,48,53,736766368
485,10,Ticks_ISO_T2_5,167,5,42,127,737220012
485,10,Ticks_ISO_T2_5,168,1,48,53,737245568
485,10,Ticks_ISO_T2_5,169,5,42,127,737719932
485,10,Ticks_ISO_T2_5,170,1,48,49,737824476
485,10,Ticks_ISO_T2_5,171,5,42,127,738220424
485,10,Ticks_ISO_T2_5,172,1,48,45,738273756
485,10,Ticks_ISO_T2_5,173,5,42,127,738720044
485,10,Ticks_ISO_T2_5,174,1,48,42,738763352
485,10,Ticks_ISO_T2_5,175,5,42,127,739219740
485,10,Ticks_ISO_T2_5,176,1,48,40,739312560
485,10,Ticks_ISO_T2_5,177,5,42,127,739719584
485,10,Ticks_ISO_T2_5,178,1,48,33,739796772
485,10,Ticks_ISO_T2_5,179,5,42,127,740220176
485,10,Ticks_ISO_T2_5,180,1,48,39,740271764
485,10,Ticks_ISO_T2_5,181,5,42,127,740719872
485,10,Ticks_ISO_T2_5,182,1,48,44,740797360
485,10,Ticks_ISO_T2_5,183,5,42,127,741219864
485,10,Ticks_ISO_T2_5,184,1,48,42,741342904
485,10,Ticks_ISO_T2_5,185,5,42,127,741720380
485,10,Ticks_ISO_T2_5,186,1,48,25,741839460
485,10,Ticks_ISO_T2_5,187,5,42,127,742220076
485,10,Ticks_ISO_T2_5,188,1,48,44,742303672
485,10,Ticks_ISO_T2_5,189,5,42,127,742719772
485,10,Ticks_ISO_T2_5,190,1,48,47,742816680
485,10,Ticks_ISO_T2_5,191,5,42,127,743219688
485,10,Ticks_ISO_T2_5,192,1,48,44,743311816
485,10,Ticks_ISO_T2_5,193,5,42,127,743720280
485,10,Ticks_ISO_T2_5,194,1,48,47,743780472
485,10,Ticks_ISO_T2_5,195,5,42,127,744219972
485,10,Ticks_ISO_T2_5,196,1,48,41,744281136
485,10,Ticks_ISO_T2_5,197,1,48,43,744718080
485,10,Ticks_ISO_T2_5,198,5,42,127,744719884
485,10,Ticks_ISO_T2_5,199,5,42,127,745219588
485,10,Ticks_ISO_T2_5,200,1,48,45,745250908
485,10,Ticks_ISO_T2_5,201,5,42,127,745720104
485,10,Ticks_ISO_T2_5,202,1,48,43,745746636
485,10,Ticks_ISO_T2_5,203,5,42,127,746219800
485,10,Ticks_ISO_T2_5,204,1,48,50,746269968
485,10,Ticks_ISO_T2_5,205,5,42,127,746719644
485,10,Ticks_ISO_T2_5,206,1,48,44,746797488
485,10,Ticks_ISO_T2_5,207,5,42,127,747220460
485,10,Ticks_ISO_T2_5,208,1,48,50,747259556
485,10,Ticks_ISO_T2_5,209,5,42,127,747720004
485,10,Ticks_ISO_T2_5,210,1,48,49,747811012
485,10,Ticks_ISO_T2_5,211,5,42,127,748219700
485,10,Ticks_ISO_T2_5,212,1,48,52,748264176
485,10,Ticks_ISO_T2_5,213,5,42,127,748719592
485,10,Ticks_ISO_T2_5,214,1,48,49,748765740
485,10,Ticks_ISO_T2_5,215,5,42,127,749220480
485,10,Ticks_ISO_T2_5,216,1,48,47,749247412
485,10,Ticks_ISO_T2_5,217,5,42,127,749719876
485,10,Ticks_ISO_T2_5,218,1,48,51,749754132
485,10,Ticks_ISO_T2_5,219,5,42,127,750219648
485,10,Ticks_ISO_T2_5,220,1,48,52,750247820
485,10,Ticks_ISO_T2_5,221,5,42,127,750720464
485,10,Ticks_ISO_T2_5,222,1,48,52,750736448
485,10,Ticks_ISO_T2_5,223,5,42,127,751219936
485,10,Ticks_ISO_T2_5,224,1,48,47,751247812
485,10,Ticks_ISO_T2_5,225,5,42,127,751719928
485,10,Ticks_ISO_T2_5,226,1,48,40,751755436
485,10,Ticks_ISO_T2_5,227,1,48,45,752209784
485,10,Ticks_ISO_T2_5,228,5,42,127,752219764
485,10,Ticks_ISO_T2_5,229,5,42,127,752720512
485,10,Ticks_ISO_T2_5,230,1,48,44,752783472
485,10,Ticks_ISO_T2_5,231,5,42,127,753220060
485,10,Ticks_ISO_T2_5,232,1,48,30,753264388
485,10,Ticks_ISO_T2_5,233,1,48,42,753709764
485,10,Ticks_ISO_T2_5,234,5,42,127,753719672
485,10,Ticks_ISO_T2_5,235,1,48,46,754219216
485,10,Ticks_ISO_T2_5,236,5,42,127,754221008
485,10,Ticks_ISO_T2_5,237,5,42,127,754720340
485,10,Ticks_ISO_T2_5,238,1,48,30,754749492
485,10,Ticks_ISO_T2_5,239,5,42,127,755219736
485,10,Ticks_ISO_T2_5,240,1,48,43,755231156
485,10,Ticks_ISO_T2_5,241,5,42,127,755719508
485,10,Ticks_ISO_T2_5,242,1,48,45,755744536
485,10,Ticks_ISO_T2_5,243,5,42,127,756220544
485,10,Ticks_ISO_T2_5,244,1,48,42,756255832
485,10,Ticks_ISO_T2_5,245,5,42,127,756720016
485,10,Ticks_ISO_T2_5,246,1,48,50,756729568
485,10,Ticks_ISO_T2_5,247,5,42,127,757219640
485,10,Ticks_ISO_T2_5,248,1,48,53,757281172
485,10,Ticks_ISO_T2_5,249,5,42,127,757720528
485,10,Ticks_ISO_T2_5,250,1,48,45,757756184
485,10,Ticks_ISO_T2_5,251,5,42,127,758220220
485,10,Ticks_ISO_T2_5,252,1,48,50,758250940
485,10,Ticks_ISO_T2_5,253,5,42,127,758719768
485,10,Ticks_ISO_T2_5,254,1,48,49,758760812
485,10,Ticks_ISO_T2_5,255,5,42,127,759219516
485,10,Ticks_ISO_T2_5,256,1,48,51,759263272
485,10,Ticks_ISO_T2_5,257,5,42,127,759720404
485,10,Ticks_ISO_T2_5,258,1,48,37,759754440
485,10,Ticks_ISO_T2_5,0,9999,9999,9999,695217208
485,10,Ticks_ISO_T2_5,1,9999,9999,9999,695717968
485,10,Ticks_ISO_T2_5,2,9999,9999,9999,696217664
485,10,Ticks_ISO_T2_5,3,9999,9999,9999,696717432
485,10,Ticks_ISO_T2_5,4,9999,9999,9999,697217128
485,10,Ticks_ISO_T2_5,5,9999,9999,9999,697717868
485,10,Ticks_ISO_T2_5,6,9999,9999,9999,698217540
485,10,Ticks_ISO_T2_5,7,9999,9999,9999,698717232
485,10,Ticks_ISO_T2_5,8,9999,9999,9999,699217976
485,10,Ticks_ISO_T2_5,9,9999,9999,9999,699717744
485,10,Ticks_ISO_T2_5,10,9999,9999,9999,700217440
485,10,Ticks_ISO_T2_5,11,9999,9999,9999,700717136
485,10,Ticks_ISO_T2_5,12,9999,9999,9999,701217876
485,10,Ticks_ISO_T2_5,13,9999,9999,9999,701717568
485,10,Ticks_ISO_T2_5,14,9999,9999,9999,702217264
485,10,Ticks_ISO_T2_5,15,9999,9999,9999,702718008
485,10,Ticks_ISO_T2_5,16,9999,9999,9999,703217772
485,10,Ticks_ISO_T2_5,17,9999,9999,9999,703717472
485,10,Ticks_ISO_T2_5,18,9999,9999,9999,704217168
485,10,Ticks_ISO_T2_5,19,9999,9999,9999,704717908
485,10,Ticks_ISO_T2_5,20,9999,9999,9999,705217604
485,10,Ticks_ISO_T2_5,21,9999,9999,9999,705717348
485,10,Ticks_ISO_T2_5,22,9999,9999,9999,706218084
485,10,Ticks_ISO_T2_5,23,9999,9999,9999,706717784
485,10,Ticks_ISO_T2_5,24,9999,9999,9999,707217480
485,10,Ticks_ISO_T2_5,25,9999,9999,9999,707717172
485,10,Ticks_ISO_T2_5,26,9999,9999,9999,708217916
485,10,Ticks_ISO_T2_5,27,9999,9999,9999,708717684
485,10,Ticks_ISO_T2_5,28,9999,9999,9999,709217376
485,10,Ticks_ISO_T2_5,29,9999,9999,9999,709718116
485,10,Ticks_ISO_T2_5,30,9999,9999,9999,710217812
485,10,Ticks_ISO_T2_5,31,9999,9999,9999,710717508
485,10,Ticks_ISO_T2_5,32,9999,9999,9999,711217200
485,10,Ticks_ISO_T2_5,33,9999,9999,9999,711717944
485,10,Ticks_ISO_T2_5,34,9999,9999,9999,712217712
485,10,Ticks_ISO_T2_5,35,9999,9999,9999,712717408
485,10,Ticks_ISO_T2_5,36,9999,9999,9999,713217104
485,10,Ticks_ISO_T2_5,37,9999,9999,9999,713717844
485,10,Ticks_ISO_T2_5,38,9999,9999,9999,714217536
485,10,Ticks_ISO_T2_5,39,9999,9999,9999,714717304
485,10,Ticks_ISO_T2_5,40,9999,9999,9999,715217972
485,10,Ticks_ISO_T2_5,41,9999,9999,9999,715717748
485,10,Ticks_ISO_T2_5,42,9999,9999,9999,716217444
485,10,Ticks_ISO_T2_5,43,9999,9999,9999,716717112
485,10,Ticks_ISO_T2_5,44,9999,9999,9999,717217856
485,10,Ticks_ISO_T2_5,45,9999,9999,9999,717717624
485,10,Ticks_ISO_T2_5,46,9999,9999,9999,718217320
485,10,Ticks_ISO_T2_5,47,9999,9999,9999,718718060
485,10,Ticks_ISO_T2_5,48,9999,9999,9999,719217756
485,10,Ticks_ISO_T2_5,49,9999,9999,9999,719717444
485,10,Ticks_ISO_T2_5,50,9999,9999,9999,720217148
485,10,Ticks_ISO_T2_5,51,9999,9999,9999,720717884
485,10,Ticks_ISO_T2_5,52,9999,9999,9999,721217656
485,10,Ticks_ISO_T2_5,53,9999,9999,9999,721717352
485,10,Ticks_ISO_T2_5,54,9999,9999,9999,722218092
485,10,Ticks_ISO_T2_5,55,9999,9999,9999,722717788
485,10,Ticks_ISO_T2_5,56,9999,9999,9999,723217480
485,10,Ticks_ISO_T2_5,57,9999,9999,9999,723717176
485,10,Ticks_ISO_T2_5,58,9999,9999,9999,724217920
485,10,Ticks_ISO_T2_5,59,9999,9999,9999,724717688
485,10,Ticks_ISO_T2_5,60,9999,9999,9999,725217380
485,10,Ticks_ISO_T2_5,61,9999,9999,9999,725718120
485,10,Ticks_ISO_T2_5,62,9999,9999,9999,726217816
485,10,Ticks_ISO_T2_5,63,9999,9999,9999,726717512
485,10,Ticks_ISO_T2_5,64,9999,9999,9999,727217256
485,10,Ticks_ISO_T2_5,65,9999,9999,9999,727718000
485,10,Ticks_ISO_T2_5,66,9999,9999,9999,728217692
485,10,Ticks_ISO_T2_5,67,9999,9999,9999,728717388
485,10,Ticks_ISO_T2_5,68,9999,9999,9999,729217084
485,10,Ticks_ISO_T2_5,69,9999,9999,9999,729717824
485,10,Ticks_ISO_T2_5,70,9999,9999,9999,730217592
485,10,Ticks_ISO_T2_5,71,9999,9999,9999,730717288
485,10,Ticks_ISO_T2_5,72,9999,9999,9999,731218028
485,10,Ticks_ISO_T2_5,73,9999,9999,9999,731717720
485,10,Ticks_ISO_T2_5,74,9999,9999,9999,732217416
485,10,Ticks_ISO_T2_5,75,9999,9999,9999,732717108
485,10,Ticks_ISO_T2_5,76,9999,9999,9999,733217852
485,10,Ticks_ISO_T2_5,77,9999,9999,9999,733717620
485,10,Ticks_ISO_T2_5,78,9999,9999,9999,734217316
485,10,Ticks_ISO_T2_5,79,9999,9999,9999,734718060
485,10,Ticks_ISO_T2_5,80,9999,9999,9999,735217752
485,10,Ticks_ISO_T2_5,81,9999,9999,9999,735717448
485,10,Ticks_ISO_T2_5,82,9999,9999,9999,736217140
485,10,Ticks_ISO_T2_5,83,9999,9999,9999,736717884
485,10,Ticks_ISO_T2_5,84,9999,9999,9999,737217652
485,10,Ticks_ISO_T2_5,85,9999,9999,9999,737717348
485,10,Ticks_ISO_T2_5,86,9999,9999,9999,738218064
485,10,Ticks_ISO_T2_5,87,9999,9999,9999,738717760
485,10,Ticks_ISO_T2_5,88,9999,9999,9999,739217528
485,10,Ticks_ISO_T2_5,89,9999,9999,9999,739717224
485,10,Ticks_ISO_T2_5,90,9999,9999,9999,740217964
485,10,Ticks_ISO_T2_5,91,9999,9999,9999,740717660
485,10,Ticks_ISO_T2_5,92,9999,9999,9999,741217352
485,10,Ticks_ISO_T2_5,93,9999,9999,9999,741718092
485,10,Ticks_ISO_T2_5,94,9999,9999,9999,742217788
485,10,Ticks_ISO_T2_5,95,9999,9999,9999,742717560
485,10,Ticks_ISO_T2_5,96,9999,9999,9999,743217252
485,10,Ticks_ISO_T2_5,97,9999,9999,9999,743717992
485,10,Ticks_ISO_T2_5,98,9999,9999,9999,744217688
485,10,Ticks_ISO_T2_5,99,9999,9999,9999,744717380
485,10,Ticks_ISO_T2_5,100,9999,9999,9999,745217076
485,10,Ticks_ISO_T2_5,101,9999,9999,9999,745717816
485,10,Ticks_ISO_T2_5,102,9999,9999,9999,746217588
485,10,Ticks_ISO_T2_5,103,9999,9999,9999,746717284
485,10,Ticks_ISO_T2_5,104,9999,9999,9999,747218024
485,10,Ticks_ISO_T2_5,105,9999,9999,9999,747717716
485,10,Ticks_ISO_T2_5,106,9999,9999,9999,748217412
485,10,Ticks_ISO_T2_5,107,9999,9999,9999,748717156
485,10,Ticks_ISO_T2_5,108,9999,9999,9999,749217896
485,10,Ticks_ISO_T2_5,109,9999,9999,9999,749717592
485,10,Ticks_ISO_T2_5,110,9999,9999,9999,750217288
485,10,Ticks_ISO_T2_5,111,9999,9999,9999,750718028
485,10,Ticks_ISO_T2_5,112,9999,9999,9999,751217724
485,10,Ticks_ISO_T2_5,113,9999,9999,9999,751717492
485,10,Ticks_ISO_T2_5,114,9999,9999,9999,752217184
485,10,Ticks_ISO_T2_5,115,9999,9999,9999,752717928
485,10,Ticks_ISO_T2_5,116,9999,9999,9999,753217624
485,10,Ticks_ISO_T2_5,117,9999,9999,9999,753717312
485,10,Ticks_ISO_T2_5,118,9999,9999,9999,754218060
485,10,Ticks_ISO_T2_5,119,9999,9999,9999,754717756
485,10,Ticks_ISO_T2_5,120,9999,9999,9999,755217524
485,10,Ticks_ISO_T2_5,121,9999,9999,9999,755717220
485,10,Ticks_ISO_T2_5,122,9999,9999,9999,756217960
485,10,Ticks_ISO_T2_5,123,9999,9999,9999,756717656
485,10,Ticks_ISO_T2_5,124,9999,9999,9999,757217352
485,10,Ticks_ISO_T2_5,125,9999,9999,9999,757718092
485,10,Ticks_ISO_T2_5,126,9999,9999,9999,758217788
485,10,Ticks_ISO_T2_5,127,9999,9999,9999,758717556
485,10,Ticks_ISO_T2_5,128,9999,9999,9999,759217228
485,10,Ticks_ISO_T2_5,129,9999,9999,9999,759717968
486,9,Ticks_ISO_T2_8,0,5,42,127,770609640
486,9,Ticks_ISO_T2_8,1,5,42,127,771410292
486,9,Ticks_ISO_T2_8,2,1,48,50,771592204
486,9,Ticks_ISO_T2_8,3,5,42,127,772210172
486,9,Ticks_ISO_T2_8,4,1,48,59,772218680
486,9,Ticks_ISO_T2_8,5,1,48,62,772978452
486,9,Ticks_ISO_T2_8,6,5,42,127,773009900
486,9,Ticks_ISO_T2_8,7,1,48,54,773772352
486,9,Ticks_ISO_T2_8,8,5,42,127,773809560
486,9,Ticks_ISO_T2_8,9,1,48,58,774562860
486,9,Ticks_ISO_T2_8,10,5,42,127,774610340
486,9,Ticks_ISO_T2_8,11,1,48,50,775340752
486,9,Ticks_ISO_T2_8,12,5,42,127,775410000
486,9,Ticks_ISO_T2_8,13,1,48,47,776163472
486,9,Ticks_ISO_T2_8,14,5,42,127,776209880
486,9,Ticks_ISO_T2_8,15,1,48,59,776927224
486,9,Ticks_ISO_T2_8,16,5,42,127,777009464
486,9,Ticks_ISO_T2_8,17,1,48,53,777783656
486,9,Ticks_ISO_T2_8,18,5,42,127,777810320
486,9,Ticks_ISO_T2_8,19,1,48,54,778580920
486,9,Ticks_ISO_T2_8,20,5,42,127,778610052
486,9,Ticks_ISO_T2_8,21,1,48,59,779352828
486,9,Ticks_ISO_T2_8,22,5,42,127,779409784
486,9,Ticks_ISO_T2_8,23,1,48,45,780193252
486,9,Ticks_ISO_T2_8,24,5,42,127,780209444
486,9,Ticks_ISO_T2_8,25,1,48,72,780978624
486,9,Ticks_ISO_T2_8,26,5,42,127,781010372
486,9,Ticks_ISO_T2_8,27,1,48,51,781798928
486,9,Ticks_ISO_T2_8,28,5,42,127,781810032
486,9,Ticks_ISO_T2_8,29,5,42,127,782609844
486,9,Ticks_ISO_T2_8,30,1,48,58,782622460
486,9,Ticks_ISO_T2_8,31,5,42,127,783409580
486,9,Ticks_ISO_T2_8,32,1,48,62,783432664
486,9,Ticks_ISO_T2_8,33,5,42,127,784210208
486,9,Ticks_ISO_T2_8,34,1,48,63,784243544
486,9,Ticks_ISO_T2_8,35,5,42,127,785010016
486,9,Ticks_ISO_T2_8,36,1,48,59,785031832
486,9,Ticks_ISO_T2_8,37,5,42,127,785809752
486,9,Ticks_ISO_T2_8,38,1,48,51,785848872
486,9,Ticks_ISO_T2_8,39,5,42,127,786609632
486,9,Ticks_ISO_T2_8,40,1,48,63,786632372
486,9,Ticks_ISO_T2_8,41,5,42,127,787410288
486,9,Ticks_ISO_T2_8,42,1,48,57,787457912
486,9,Ticks_ISO_T2_8,43,5,42,127,788209948
486,9,Ticks_ISO_T2_8,44,1,48,50,788240444
486,9,Ticks_ISO_T2_8,45,5,42,127,789009904
486,9,Ticks_ISO_T2_8,46,1,48,60,789032096
486,9,Ticks_ISO_T2_8,47,5,42,127,789809488
486,9,Ticks_ISO_T2_8,48,1,48,59,789837512
486,9,Ticks_ISO_T2_8,49,1,48,46,790602896
486,9,Ticks_ISO_T2_8,50,5,42,127,790610556
486,9,Ticks_ISO_T2_8,51,5,42,127,791410000
486,9,Ticks_ISO_T2_8,52,1,48,66,791449100
486,9,Ticks_ISO_T2_8,53,5,42,127,792209660
486,9,Ticks_ISO_T2_8,54,1,48,65,792233424
486,9,Ticks_ISO_T2_8,55,5,42,127,793009616
486,9,Ticks_ISO_T2_8,56,1,48,46,793111192
486,9,Ticks_ISO_T2_8,57,1,48,55,793783228
486,9,Ticks_ISO_T2_8,58,5,42,127,793810564
486,9,Ticks_ISO_T2_8,59,1,48,62,794548260
486,9,Ticks_ISO_T2_8,60,5,42,127,794610072
486,9,Ticks_ISO_T2_8,61,1,48,62,795397056
486,9,Ticks_ISO_T2_8,62,5,42,127,795409884
486,9,Ticks_ISO_T2_8,63,5,42,127,796209472
486,9,Ticks_ISO_T2_8,64,1,48,68,796253432
486,9,Ticks_ISO_T2_8,65,5,42,127,797010328
486,9,Ticks_ISO_T2_8,66,1,48,54,797070668
486,9,Ticks_ISO_T2_8,67,5,42,127,797810136
486,9,Ticks_ISO_T2_8,68,1,48,59,797841900
486,9,Ticks_ISO_T2_8,69,5,42,127,798609792
486,9,Ticks_ISO_T2_8,70,1,48,73,798682200
486,9,Ticks_ISO_T2_8,71,5,42,127,799409452
486,9,Ticks_ISO_T2_8,72,1,48,66,799426476
486,9,Ticks_ISO_T2_8,73,5,42,127,800210456
486,9,Ticks_ISO_T2_8,74,1,48,67,800236012
486,9,Ticks_ISO_T2_8,75,5,42,127,801010188
486,9,Ticks_ISO_T2_8,76,1,48,51,801032152
486,9,Ticks_ISO_T2_8,77,5,42,127,801809772
486,9,Ticks_ISO_T2_8,78,1,48,62,801848348
486,9,Ticks_ISO_T2_8,79,5,42,127,802609580
486,9,Ticks_ISO_T2_8,80,1,48,59,802692732
486,9,Ticks_ISO_T2_8,81,5,42,127,803410288
486,9,Ticks_ISO_T2_8,82,1,48,67,803461648
486,9,Ticks_ISO_T2_8,83,5,42,127,804210244
486,9,Ticks_ISO_T2_8,84,1,48,65,804293120
486,9,Ticks_ISO_T2_8,85,5,42,127,805009904
486,9,Ticks_ISO_T2_8,86,1,48,50,805026036
486,9,Ticks_ISO_T2_8,87,5,42,127,805809808
486,9,Ticks_ISO_T2_8,88,1,48,65,805842772
486,9,Ticks_ISO_T2_8,89,5,42,127,806610216
486,9,Ticks_ISO_T2_8,90,1,48,60,806664868
486,9,Ticks_ISO_T2_8,91,5,42,127,807410100
486,9,Ticks_ISO_T2_8,92,1,48,57,807434980
486,9,Ticks_ISO_T2_8,93,5,42,127,808209904
486,9,Ticks_ISO_T2_8,94,1,48,59,808230080
486,9,Ticks_ISO_T2_8,95,5,42,127,809009492
486,9,Ticks_ISO_T2_8,96,1,48,62,809112384
486,9,Ticks_ISO_T2_8,97,5,42,127,809810272
486,9,Ticks_ISO_T2_8,98,1,48,59,809816084
486,9,Ticks_ISO_T2_8,99,1,48,68,810561720
486,9,Ticks_ISO_T2_8,100,5,42,127,810610072
486,9,Ticks_ISO_T2_8,101,1,48,42,811374768
486,9,Ticks_ISO_T2_8,102,5,42,127,811410104
486,9,Ticks_ISO_T2_8,103,1,48,55,812203520
486,9,Ticks_ISO_T2_8,104,5,42,127,812209636
486,9,Ticks_ISO_T2_8,105,5,42,127,813010424
486,9,Ticks_ISO_T2_8,106,1,48,59,813038828
486,9,Ticks_ISO_T2_8,107,5,42,127,813810156
486,9,Ticks_ISO_T2_8,108,1,48,67,813864212
486,9,Ticks_ISO_T2_8,109,5,42,127,814610040
486,9,Ticks_ISO_T2_8,110,1,48,68,814671876
486,9,Ticks_ISO_T2_8,111,5,42,127,815409476
486,9,Ticks_ISO_T2_8,112,1,48,67,815483204
486,9,Ticks_ISO_T2_8,113,5,42,127,816210180
486,9,Ticks_ISO_T2_8,114,1,48,69,816302312
486,9,Ticks_ISO_T2_8,115,5,42,127,817009916
486,9,Ticks_ISO_T2_8,116,1,48,63,817041980
486,9,Ticks_ISO_T2_8,117,5,42,127,817809872
486,9,Ticks_ISO_T2_8,118,1,48,51,817860812
486,9,Ticks_ISO_T2_8,119,5,42,127,818609704
486,9,Ticks_ISO_T2_8,120,1,48,55,818623292
486,9,Ticks_ISO_T2_8,121,1,48,33,819387184
486,9,Ticks_ISO_T2_8,122,5,42,127,819410180
486,9,Ticks_ISO_T2_8,123,5,42,127,820210068
486,9,Ticks_ISO_T2_8,124,1,48,63,820217528
486,9,Ticks_ISO_T2_8,125,5,42,127,821009656
486,9,Ticks_ISO_T2_8,126,1,48,73,821034908
486,9,Ticks_ISO_T2_8,127,5,42,127,821809760
486,9,Ticks_ISO_T2_8,128,1,48,76,821903684
486,9,Ticks_ISO_T2_8,129,5,42,127,822610612
486,9,Ticks_ISO_T2_8,130,1,48,67,822681952
486,9,Ticks_ISO_T2_8,131,5,42,127,823410052
486,9,Ticks_ISO_T2_8,132,1,48,67,823444584
486,9,Ticks_ISO_T2_8,133,5,42,127,824209708
486,9,Ticks_ISO_T2_8,134,1,48,59,824223520
486,9,Ticks_ISO_T2_8,135,5,42,127,825009764
486,9,Ticks_ISO_T2_8,136,1,48,57,825058136
486,9,Ticks_ISO_T2_8,137,5,42,127,825810248
486,9,Ticks_ISO_T2_8,138,1,48,70,825889656
486,9,Ticks_ISO_T2_8,139,5,42,127,826609980
486,9,Ticks_ISO_T2_8,140,1,48,70,826676076
486,9,Ticks_ISO_T2_8,141,5,42,127,827409716
486,9,Ticks_ISO_T2_8,142,1,48,64,827449560
486,9,Ticks_ISO_T2_8,143,5,42,127,828209520
486,9,Ticks_ISO_T2_8,144,1,48,67,828270688
486,9,Ticks_ISO_T2_8,145,5,42,127,829010304
486,9,Ticks_ISO_T2_8,146,1,48,68,829044536
486,9,Ticks_ISO_T2_8,147,5,42,127,829810036
486,9,Ticks_ISO_T2_8,148,1,48,74,829847188
486,9,Ticks_ISO_T2_8,149,5,42,127,830609696
486,9,Ticks_ISO_T2_8,150,1,48,72,830653076
486,9,Ticks_ISO_T2_8,151,5,42,127,831409452
486,9,Ticks_ISO_T2_8,152,1,48,69,831410864
486,9,Ticks_ISO_T2_8,153,5,42,127,832210308
486,9,Ticks_ISO_T2_8,154,1,48,73,832211792
486,9,Ticks_ISO_T2_8,155,1,48,61,832980232
486,9,Ticks_ISO_T2_8,156,5,42,127,833009884
486,9,Ticks_ISO_T2_8,157,1,48,71,833788268
486,9,Ticks_ISO_T2_8,158,5,42,127,833809692
486,9,Ticks_ISO_T2_8,159,1,48,60,834548808
486,9,Ticks_ISO_T2_8,160,5,42,127,834609428
486,9,Ticks_ISO_T2_8,161,1,48,73,835384288
486,9,Ticks_ISO_T2_8,162,5,42,127,835410280
486,9,Ticks_ISO_T2_8,163,1,48,66,836164728
486,9,Ticks_ISO_T2_8,164,5,42,127,836210164
486,9,Ticks_ISO_T2_8,165,5,42,127,837009756
486,9,Ticks_ISO_T2_8,166,1,48,57,837014512
486,9,Ticks_ISO_T2_8,167,5,42,127,837809512
486,9,Ticks_ISO_T2_8,168,1,48,68,837840752
486,9,Ticks_ISO_T2_8,169,5,42,127,838610368
486,9,Ticks_ISO_T2_8,170,1,48,52,838617528
486,9,Ticks_ISO_T2_8,171,1,48,65,839397572
486,9,Ticks_ISO_T2_8,172,5,42,127,839410244
486,9,Ticks_ISO_T2_8,173,1,48,84,840205300
486,9,Ticks_ISO_T2_8,174,5,42,127,840209752
486,9,Ticks_ISO_T2_8,175,1,48,77,840999656
486,9,Ticks_ISO_T2_8,176,5,42,127,841009488
486,9,Ticks_ISO_T2_8,177,5,42,127,841810424
486,9,Ticks_ISO_T2_8,178,1,48,66,841813468
486,9,Ticks_ISO_T2_8,179,5,42,127,842610008
486,9,Ticks_ISO_T2_8,180,1,48,75,842675384
486,9,Ticks_ISO_T2_8,181,5,42,127,843409668
486,9,Ticks_ISO_T2_8,182,1,48,65,843422284
486,9,Ticks_ISO_T2_8,183,5,42,127,844209500
486,9,Ticks_ISO_T2_8,184,1,48,59,844248080
486,9,Ticks_ISO_T2_8,185,5,42,127,845010208
486,9,Ticks_ISO_T2_8,186,1,48,70,845033144
486,9,Ticks_ISO_T2_8,187,1,48,75,845743700
486,9,Ticks_ISO_T2_8,188,5,42,127,845810156
486,9,Ticks_ISO_T2_8,189,1,48,76,846577096
486,9,Ticks_ISO_T2_8,190,5,42,127,846609888
486,9,Ticks_ISO_T2_8,191,1,48,84,847347580
486,9,Ticks_ISO_T2_8,192,5,42,127,847409696
486,9,Ticks_ISO_T2_8,193,1,48,76,848165488
486,9,Ticks_ISO_T2_8,194,5,42,127,848210180
486,9,Ticks_ISO_T2_8,195,1,48,83,848969636
486,9,Ticks_ISO_T2_8,196,5,42,127,849010060
486,9,Ticks_ISO_T2_8,197,1,48,70,849739376
486,9,Ticks_ISO_T2_8,198,5,42,127,849809868
486,9,Ticks_ISO_T2_8,199,1,48,76,850528416
486,9,Ticks_ISO_T2_8,200,5,42,127,850609552
486,9,Ticks_ISO_T2_8,201,1,48,77,851308776
486,9,Ticks_ISO_T2_8,202,5,42,127,851410316
486,9,Ticks_ISO_T2_8,203,1,48,76,852095788
486,9,Ticks_ISO_T2_8,204,5,42,127,852209976
486,9,Ticks_ISO_T2_8,205,1,48,75,852931076
486,9,Ticks_ISO_T2_8,206,5,42,127,853009872
486,9,Ticks_ISO_T2_8,207,1,48,64,853731412
486,9,Ticks_ISO_T2_8,208,5,42,127,853809532
486,9,Ticks_ISO_T2_8,209,1,48,68,854540568
486,9,Ticks_ISO_T2_8,210,5,42,127,854610236
486,9,Ticks_ISO_T2_8,211,1,48,78,855335512
486,9,Ticks_ISO_T2_8,212,5,42,127,855410120
486,9,Ticks_ISO_T2_8,213,1,48,68,856146464
486,9,Ticks_ISO_T2_8,214,5,42,127,856209704
486,9,Ticks_ISO_T2_8,215,1,48,71,856900424
486,9,Ticks_ISO_T2_8,216,5,42,127,857009600
486,9,Ticks_ISO_T2_8,217,1,48,47,857770024
486,9,Ticks_ISO_T2_8,218,5,42,127,857810244
486,9,Ticks_ISO_T2_8,219,5,42,127,858610132
486,9,Ticks_ISO_T2_8,220,1,48,68,858628060
486,9,Ticks_ISO_T2_8,221,5,42,127,859409944
486,9,Ticks_ISO_T2_8,222,1,48,64,859442080
486,9,Ticks_ISO_T2_8,223,5,42,127,860209600
486,9,Ticks_ISO_T2_8,224,1,48,77,860240544
486,9,Ticks_ISO_T2_8,225,5,42,127,861010160
486,9,Ticks_ISO_T2_8,226,1,48,57,861015520
486,9,Ticks_ISO_T2_8,227,1,48,67,861803644
486,9,Ticks_ISO_T2_8,228,5,42,127,861810108
486,9,Ticks_ISO_T2_8,229,5,42,127,862609700
486,9,Ticks_ISO_T2_8,230,1,48,77,862610888
486,9,Ticks_ISO_T2_8,231,1,48,76,863384784
486,9,Ticks_ISO_T2_8,232,5,42,127,863409600
486,9,Ticks_ISO_T2_8,233,1,48,61,864200772
486,9,Ticks_ISO_T2_8,234,5,42,127,864210156
486,9,Ticks_ISO_T2_8,235,1,48,60,864951284
486,9,Ticks_ISO_T2_8,236,5,42,127,865009888
486,9,Ticks_ISO_T2_8,237,1,48,70,865752592
486,9,Ticks_ISO_T2_8,238,5,42,127,865809624
486,9,Ticks_ISO_T2_8,239,1,48,66,866534448
486,9,Ticks_ISO_T2_8,0,9999,9999,9999,770607204
486,9,Ticks_ISO_T2_8,1,9999,9999,9999,771407928
486,9,Ticks_ISO_T2_8,2,9999,9999,9999,772207664
486,9,Ticks_ISO_T2_8,3,9999,9999,9999,773007464
486,9,Ticks_ISO_T2_8,4,9999,9999,9999,773807196
486,9,Ticks_ISO_T2_8,5,9999,9999,9999,774607976
486,9,Ticks_ISO_T2_8,6,9999,9999,9999,775407712
486,9,Ticks_ISO_T2_8,7,9999,9999,9999,776207444
486,9,Ticks_ISO_T2_8,8,9999,9999,9999,777007176
486,9,Ticks_ISO_T2_8,9,9999,9999,9999,777807956
486,9,Ticks_ISO_T2_8,10,9999,9999,9999,778607688
486,9,Ticks_ISO_T2_8,11,9999,9999,9999,779407424
486,9,Ticks_ISO_T2_8,12,9999,9999,9999,780207156
486,9,Ticks_ISO_T2_8,13,9999,9999,9999,781007936
486,9,Ticks_ISO_T2_8,14,9999,9999,9999,781807668
486,9,Ticks_ISO_T2_8,15,9999,9999,9999,782607408
486,9,Ticks_ISO_T2_8,16,9999,9999,9999,783407216
486,9,Ticks_ISO_T2_8,17,9999,9999,9999,784207920
486,9,Ticks_ISO_T2_8,18,9999,9999,9999,785007728
486,9,Ticks_ISO_T2_8,19,9999,9999,9999,785807464
486,9,Ticks_ISO_T2_8,20,9999,9999,9999,786607196
486,9,Ticks_ISO_T2_8,21,9999,9999,9999,787407924
486,9,Ticks_ISO_T2_8,22,9999,9999,9999,788207732
486,9,Ticks_ISO_T2_8,23,9999,9999,9999,789007468
486,9,Ticks_ISO_T2_8,24,9999,9999,9999,789807200
486,9,Ticks_ISO_T2_8,25,9999,9999,9999,790607972
486,9,Ticks_ISO_T2_8,26,9999,9999,9999,791407712
486,9,Ticks_ISO_T2_8,27,9999,9999,9999,792207444
486,9,Ticks_ISO_T2_8,28,9999,9999,9999,793007180
486,9,Ticks_ISO_T2_8,29,9999,9999,9999,793807980
486,9,Ticks_ISO_T2_8,30,9999,9999,9999,794607712
486,9,Ticks_ISO_T2_8,31,9999,9999,9999,795407444
486,9,Ticks_ISO_T2_8,32,9999,9999,9999,796207184
486,9,Ticks_ISO_T2_8,33,9999,9999,9999,797007964
486,9,Ticks_ISO_T2_8,34,9999,9999,9999,797807700
486,9,Ticks_ISO_T2_8,35,9999,9999,9999,798607432
486,9,Ticks_ISO_T2_8,36,9999,9999,9999,799407164
486,9,Ticks_ISO_T2_8,37,9999,9999,9999,800207944
486,9,Ticks_ISO_T2_8,38,9999,9999,9999,801007676
486,9,Ticks_ISO_T2_8,39,9999,9999,9999,801807412
486,9,Ticks_ISO_T2_8,40,9999,9999,9999,802607216
486,9,Ticks_ISO_T2_8,41,9999,9999,9999,803407924
486,9,Ticks_ISO_T2_8,42,9999,9999,9999,804207732
486,9,Ticks_ISO_T2_8,43,9999,9999,9999,805007464
486,9,Ticks_ISO_T2_8,44,9999,9999,9999,805807200
486,9,Ticks_ISO_T2_8,45,9999,9999,9999,806607928
486,9,Ticks_ISO_T2_8,46,9999,9999,9999,807407660
486,9,Ticks_ISO_T2_8,47,9999,9999,9999,808207468
486,9,Ticks_ISO_T2_8,48,9999,9999,9999,809007204
486,9,Ticks_ISO_T2_8,49,9999,9999,9999,809807980
486,9,Ticks_ISO_T2_8,50,9999,9999,9999,810607708
486,9,Ticks_ISO_T2_8,51,9999,9999,9999,811407444
486,9,Ticks_ISO_T2_8,52,9999,9999,9999,812207176
486,9,Ticks_ISO_T2_8,53,9999,9999,9999,813007988
486,9,Ticks_ISO_T2_8,54,9999,9999,9999,813807720
486,9,Ticks_ISO_T2_8,55,9999,9999,9999,814607452
486,9,Ticks_ISO_T2_8,56,9999,9999,9999,815407188
486,9,Ticks_ISO_T2_8,57,9999,9999,9999,816207968
486,9,Ticks_ISO_T2_8,58,9999,9999,9999,817007700
486,9,Ticks_ISO_T2_8,59,9999,9999,9999,817807436
486,9,Ticks_ISO_T2_8,60,9999,9999,9999,818607168
486,9,Ticks_ISO_T2_8,61,9999,9999,9999,819407968
486,9,Ticks_ISO_T2_8,62,9999,9999,9999,820207708
486,9,Ticks_ISO_T2_8,63,9999,9999,9999,821007440
486,9,Ticks_ISO_T2_8,64,9999,9999,9999,821807176
486,9,Ticks_ISO_T2_8,65,9999,9999,9999,822607952
486,9,Ticks_ISO_T2_8,66,9999,9999,9999,823407688
486,9,Ticks_ISO_T2_8,67,9999,9999,9999,824207420
486,9,Ticks_ISO_T2_8,68,9999,9999,9999,825007152
486,9,Ticks_ISO_T2_8,69,9999,9999,9999,825807960
486,9,Ticks_ISO_T2_8,70,9999,9999,9999,826607692
486,9,Ticks_ISO_T2_8,71,9999,9999,9999,827407428
486,9,Ticks_ISO_T2_8,72,9999,9999,9999,828207160
486,9,Ticks_ISO_T2_8,73,9999,9999,9999,829007940
486,9,Ticks_ISO_T2_8,74,9999,9999,9999,829807672
486,9,Ticks_ISO_T2_8,75,9999,9999,9999,830607408
486,9,Ticks_ISO_T2_8,76,9999,9999,9999,831407220
486,9,Ticks_ISO_T2_8,77,9999,9999,9999,832207944
486,9,Ticks_ISO_T2_8,78,9999,9999,9999,833007672
486,9,Ticks_ISO_T2_8,79,9999,9999,9999,833807404
486,9,Ticks_ISO_T2_8,80,9999,9999,9999,834607212
486,9,Ticks_ISO_T2_8,81,9999,9999,9999,835407920
486,9,Ticks_ISO_T2_8,82,9999,9999,9999,836207728
486,9,Ticks_ISO_T2_8,83,9999,9999,9999,837007464
486,9,Ticks_ISO_T2_8,84,9999,9999,9999,837807152
486,9,Ticks_ISO_T2_8,85,9999,9999,9999,838607928
486,9,Ticks_ISO_T2_8,86,9999,9999,9999,839407732
486,9,Ticks_ISO_T2_8,87,9999,9999,9999,840207464
486,9,Ticks_ISO_T2_8,88,9999,9999,9999,841007200
486,9,Ticks_ISO_T2_8,89,9999,9999,9999,841807988
486,9,Ticks_ISO_T2_8,90,9999,9999,9999,842607720
486,9,Ticks_ISO_T2_8,91,9999,9999,9999,843407456
486,9,Ticks_ISO_T2_8,92,9999,9999,9999,844207212
486,9,Ticks_ISO_T2_8,93,9999,9999,9999,845007920
486,9,Ticks_ISO_T2_8,94,9999,9999,9999,845807720
486,9,Ticks_ISO_T2_8,95,9999,9999,9999,846607452
486,9,Ticks_ISO_T2_8,96,9999,9999,9999,847407188
486,9,Ticks_ISO_T2_8,97,9999,9999,9999,848207964
486,9,Ticks_ISO_T2_8,98,9999,9999,9999,849007700
486,9,Ticks_ISO_T2_8,99,9999,9999,9999,849807432
486,9,Ticks_ISO_T2_8,100,9999,9999,9999,850607192
486,9,Ticks_ISO_T2_8,101,9999,9999,9999,851407956
486,9,Ticks_ISO_T2_8,102,9999,9999,9999,852207688
486,9,Ticks_ISO_T2_8,103,9999,9999,9999,853007436
486,9,Ticks_ISO_T2_8,104,9999,9999,9999,853807172
486,9,Ticks_ISO_T2_8,105,9999,9999,9999,854607952
486,9,Ticks_ISO_T2_8,106,9999,9999,9999,855407684
486,9,Ticks_ISO_T2_8,107,9999,9999,9999,856207416
486,9,Ticks_ISO_T2_8,108,9999,9999,9999,857007160
486,9,Ticks_ISO_T2_8,109,9999,9999,9999,857807956
486,9,Ticks_ISO_T2_8,110,9999,9999,9999,858607696
486,9,Ticks_ISO_T2_8,111,9999,9999,9999,859407432
486,9,Ticks_ISO_T2_8,112,9999,9999,9999,860207164
486,9,Ticks_ISO_T2_8,113,9999,9999,9999,861007944
486,9,Ticks_ISO_T2_8,114,9999,9999,9999,861807672
486,9,Ticks_ISO_T2_8,115,9999,9999,9999,862607412
486,9,Ticks_ISO_T2_8,116,9999,9999,9999,863407164
486,9,Ticks_ISO_T2_8,117,9999,9999,9999,864207940
486,9,Ticks_ISO_T2_8,118,9999,9999,9999,865007676
486,9,Ticks_ISO_T2_8,119,9999,9999,9999,865807408
487,23,Ticks_Phase_5,0,5,42,127,877034836
487,23,Ticks_Phase_5,1,5,42,127,877534544
487,23,Ticks_Phase_5,2,1,48,62,877757860
487,23,Ticks_Phase_5,3,5,42,127,878035356
487,23,Ticks_Phase_5,4,1,48,66,878130360
487,23,Ticks_Phase_5,5,5,42,127,878535192
487,23,Ticks_Phase_5,6,1,48,64,878559876
487,23,Ticks_Phase_5,7,1,48,62,879004196
487,23,Ticks_Phase_5,8,5,42,127,879034724
487,23,Ticks_Phase_5,9,1,48,75,879497812
487,23,Ticks_Phase_5,10,5,42,127,879534412
487,23,Ticks_Phase_5,11,1,48,69,879995476
487,23,Ticks_Phase_5,12,5,42,127,880035272
487,23,Ticks_Phase_5,13,1,48,70,880460340
487,23,Ticks_Phase_5,14,5,42,127,880535032
487,23,Ticks_Phase_5,15,1,48,73,880973068
487,23,Ticks_Phase_5,16,5,42,127,881034648
487,23,Ticks_Phase_5,17,1,48,70,881494296
487,23,Ticks_Phase_5,18,5,42,127,881535284
487,23,Ticks_Phase_5,19,1,48,63,881988508
487,23,Ticks_Phase_5,20,5,42,127,882035196
487,23,Ticks_Phase_5,21,1,48,63,882492464
487,23,Ticks_Phase_5,22,5,42,127,882535180
487,23,Ticks_Phase_5,23,1,48,65,882998448
487,23,Ticks_Phase_5,24,5,42,127,883034496
487,23,Ticks_Phase_5,25,1,48,60,883488248
487,23,Ticks_Phase_5,26,5,42,127,883535156
487,23,Ticks_Phase_5,27,5,42,127,884035148
487,23,Ticks_Phase_5,28,1,48,65,884055644
487,23,Ticks_Phase_5,29,5,42,127,884534760
487,23,Ticks_Phase_5,30,1,48,62,884546268
487,23,Ticks_Phase_5,31,5,42,127,885035276
487,23,Ticks_Phase_5,32,1,48,67,885048276
487,23,Ticks_Phase_5,33,5,42,127,885535036
487,23,Ticks_Phase_5,34,1,48,59,885542640
487,23,Ticks_Phase_5,35,5,42,127,886034948
487,23,Ticks_Phase_5,36,1,48,53,886092652
487,23,Ticks_Phase_5,37,1,48,61,886534632
487,23,Ticks_Phase_5,38,5,42,127,886536044
487,23,Ticks_Phase_5,39,5,42,127,887035296
487,23,Ticks_Phase_5,40,1,48,53,887040508
487,23,Ticks_Phase_5,41,5,42,127,887534908
487,23,Ticks_Phase_5,42,1,48,49,887550984
487,23,Ticks_Phase_5,43,5,42,127,888034596
487,23,Ticks_Phase_5,44,1,48,60,888063632
487,23,Ticks_Phase_5,45,5,42,127,888535556
487,23,Ticks_Phase_5,46,1,48,64,888561212
487,23,Ticks_Phase_5,47,5,42,127,889035172
487,23,Ticks_Phase_5,48,1,48,59,889050940
487,23,Ticks_Phase_5,49,5,42,127,889535008
487,23,Ticks_Phase_5,50,1,48,68,889570996
487,23,Ticks_Phase_5,51,5,42,127,890034620
487,23,Ticks_Phase_5,52,1,48,72,890042692
487,23,Ticks_Phase_5,53,1,48,65,890487892
487,23,Ticks_Phase_5,54,5,42,127,890535324
487,23,Ticks_Phase_5,55,1,48,63,890995292
487,23,Ticks_Phase_5,56,5,42,127,891035012
487,23,Ticks_Phase_5,57,1,48,61,891488692
487,23,Ticks_Phase_5,58,5,42,127,891534852
487,23,Ticks_Phase_5,59,5,42,127,892025188
487,23,Ticks_Phase_5,60,1,48,58,892081424
487,23,Ticks_Phase_5,61,5,42,127,892524800
487,23,Ticks_Phase_5,62,1,48,57,892552788
487,23,Ticks_Phase_5,63,1,48,66,892997492
487,23,Ticks_Phase_5,64,5,42,127,893024708
487,23,Ticks_Phase_5,65,5,42,127,893525300
487,23,Ticks_Phase_5,66,1,48,69,893558972
487,23,Ticks_Phase_5,67,1,48,71,894013196
487,23,Ticks_Phase_5,68,5,42,127,894024980
487,23,Ticks_Phase_5,69,5,42,127,894524900
487,23,Ticks_Phase_5,70,1,48,67,894539772
487,23,Ticks_Phase_5,71,1,48,62,894993104
487,23,Ticks_Phase_5,72,5,42,127,895024432
487,23,Ticks_Phase_5,73,5,42,127,895525176
487,23,Ticks_Phase_5,74,1,48,60,895573160
487,23,Ticks_Phase_5,75,5,42,127,896024936
487,23,Ticks_Phase_5,76,1,48,49,896038760
487,23,Ticks_Phase_5,77,5,42,127,896524624
487,23,Ticks_Phase_5,78,1,48,63,896628992
487,23,Ticks_Phase_5,79,5,42,127,897025432
487,23,Ticks_Phase_5,80,1,48,57,897037016
487,23,Ticks_Phase_5,81,1,48,61,897486972
487,23,Ticks_Phase_5,82,5,42,127,897525040
487,23,Ticks_Phase_5,83,1,48,65,897968008
487,23,Ticks_Phase_5,84,5,42,127,898024728
487,23,Ticks_Phase_5,85,5,42,127,898524648
487,23,Ticks_Phase_5,86,1,48,54,898538028
487,23,Ticks_Phase_5,87,1,48,54,899014416
487,23,Ticks_Phase_5,88,5,42,127,899025376
487,23,Ticks_Phase_5,89,5,42,127,899524924
487,23,Ticks_Phase_5,90,1,48,49,899573952
487,23,Ticks_Phase_5,91,5,42,127,900024684
487,23,Ticks_Phase_5,92,1,48,51,900044728
487,23,Ticks_Phase_5,93,5,42,127,900525496
487,23,Ticks_Phase_5,94,1,48,53,900577596
487,23,Ticks_Phase_5,95,1,48,54,901034636
487,23,Ticks_Phase_5,96,5,42,127,901044652
487,23,Ticks_Phase_5,97,5,42,127,901545588
487,23,Ticks_Phase_5,98,1,48,57,901557172
487,23,Ticks_Phase_5,99,5,42,127,902045180
487,23,Ticks_Phase_5,100,1,48,55,902048672
487,23,Ticks_Phase_5,101,5,42,127,902544716
487,23,Ticks_Phase_5,102,1,48,51,902563868
487,23,Ticks_Phase_5,103,1,48,54,903032992
487,23,Ticks_Phase_5,104,5,42,127,903044620
487,23,Ticks_Phase_5,105,5,42,127,903545140
487,23,Ticks_Phase_5,106,1,48,54,903585780
487,23,Ticks_Phase_5,107,5,42,127,904044828
487,23,Ticks_Phase_5,108,1,48,52,904060524
487,23,Ticks_Phase_5,109,5,42,127,904544668
487,23,Ticks_Phase_5,110,1,48,57,904553708
487,23,Ticks_Phase_5,111,5,42,127,905045700
487,23,Ticks_Phase_5,112,1,48,45,905062832
487,23,Ticks_Phase_5,113,1,48,53,905522444
487,23,Ticks_Phase_5,114,5,42,127,905545228
487,23,Ticks_Phase_5,115,1,48,58,906035456
487,23,Ticks_Phase_5,116,5,42,127,906044696
487,23,Ticks_Phase_5,117,5,42,127,906544616
487,23,Ticks_Phase_5,118,1,48,54,906551024
487,23,Ticks_Phase_5,119,5,42,127,907045276
487,23,Ticks_Phase_5,120,1,48,62,907070260
487,23,Ticks_Phase_5,121,5,42,127,907544816
487,23,Ticks_Phase_5,122,1,48,51,907557448
487,23,Ticks_Phase_5,123,5,42,127,908044652
487,23,Ticks_Phase_5,124,1,48,55,908048220
487,23,Ticks_Phase_5,125,5,42,127,908545388
487,23,Ticks_Phase_5,126,1,48,56,908595016
487,23,Ticks_Phase_5,127,1,48,48,909048412
487,23,Ticks_Phase_5,128,5,42,127,909064616
487,23,Ticks_Phase_5,129,1,48,46,909508860
487,23,Ticks_Phase_5,130,5,42,127,909565352
487,23,Ticks_Phase_5,131,1,48,55,910053560
487,23,Ticks_Phase_5,132,5,42,127,910065116
487,23,Ticks_Phase_5,133,1,48,57,910543888
487,23,Ticks_Phase_5,134,5,42,127,910564580
487,23,Ticks_Phase_5,135,5,42,127,911064424
487,23,Ticks_Phase_5,136,1,48,51,911085968
487,23,Ticks_Phase_5,137,5,42,127,911565308
487,23,Ticks_Phase_5,138,1,48,47,911584536
487,23,Ticks_Phase_5,139,5,42,127,912064772
487,23,Ticks_Phase_5,140,1,48,46,912111248
487,23,Ticks_Phase_5,141,5,42,127,912564536
487,23,Ticks_Phase_5,142,1,48,46,912574700
487,23,Ticks_Phase_5,143,5,42,127,913065248
487,23,Ticks_Phase_5,144,1,48,51,913080292
487,23,Ticks_Phase_5,145,5,42,127,913565304
487,23,Ticks_Phase_5,146,1,48,53,913585004
487,23,Ticks_Phase_5,147,5,42,127,914064772
487,23,Ticks_Phase_5,148,1,48,51,914088188
487,23,Ticks_Phase_5,149,5,42,127,914564608
487,23,Ticks_Phase_5,150,1,48,51,914583908
487,23,Ticks_Phase_5,151,5,42,127,915065268
487,23,Ticks_Phase_5,152,1,48,53,915087112
487,23,Ticks_Phase_5,153,5,42,127,915565032
487,23,Ticks_Phase_5,154,1,48,53,915582896
487,23,Ticks_Phase_5,155,5,42,127,916064568
487,23,Ticks_Phase_5,156,1,48,52,916076448
487,23,Ticks_Phase_5,157,5,42,127,916565304
487,23,Ticks_Phase_5,158,1,48,54,916594716
487,23,Ticks_Phase_5,159,5,42,127,917065216
487,23,Ticks_Phase_5,160,1,48,49,917092292
487,23,Ticks_Phase_5,161,5,42,127,917545360
487,23,Ticks_Phase_5,162,1,48,47,917606292
487,23,Ticks_Phase_5,163,5,42,127,918044972
487,23,Ticks_Phase_5,164,1,48,46,918069880
487,23,Ticks_Phase_5,165,5,42,127,918545032
487,23,Ticks_Phase_5,166,1,48,45,918545996
487,23,Ticks_Phase_5,167,5,42,127,919044424
487,23,Ticks_Phase_5,168,1,48,54,919105280
487,23,Ticks_Phase_5,169,5,42,127,919545084
487,23,Ticks_Phase_5,170,1,48,52,919564084
487,23,Ticks_Phase_5,171,5,42,127,920044996
487,23,Ticks_Phase_5,172,1,48,52,920051108
487,23,Ticks_Phase_5,173,1,48,56,920540076
487,23,Ticks_Phase_5,174,5,42,127,920544752
487,23,Ticks_Phase_5,175,1,48,57,921026512
487,23,Ticks_Phase_5,176,5,42,127,921045340
487,23,Ticks_Phase_5,177,1,48,58,921541472
487,23,Ticks_Phase_5,178,5,42,127,921545028
487,23,Ticks_Phase_5,179,5,42,127,922045024
487,23,Ticks_Phase_5,180,1,48,57,922104536
487,23,Ticks_Phase_5,181,5,42,127,922544488
487,23,Ticks_Phase_5,182,1,48,57,922582584
487,23,Ticks_Phase_5,183,5,42,127,923045272
487,23,Ticks_Phase_5,184,1,48,46,923087732
487,23,Ticks_Phase_5,185,5,42,127,923544960
487,23,Ticks_Phase_5,186,1,48,47,923583156
487,23,Ticks_Phase_5,187,5,42,127,924044796
487,23,Ticks_Phase_5,188,1,48,51,924062740
487,23,Ticks_Phase_5,189,5,42,127,924545532
487,23,Ticks_Phase_5,190,1,48,58,924579880
487,23,Ticks_Phase_5,191,5,42,127,925045072
487,23,Ticks_Phase_5,192,1,48,52,925086384
487,23,Ticks_Phase_5,193,5,42,127,925494588
487,23,Ticks_Phase_5,194,1,48,60,925576036
487,23,Ticks_Phase_5,195,5,42,127,925995396
487,23,Ticks_Phase_5,196,1,48,51,926009748
487,23,Ticks_Phase_5,197,1,48,45,926472364
487,23,Ticks_Phase_5,198,5,42,127,926495076
487,23,Ticks_Phase_5,199,1,48,36,926975196
487,23,Ticks_Phase_5,200,5,42,127,926994768
487,23,Ticks_Phase_5,201,5,42,127,927494612
487,23,Ticks_Phase_5,202,1,48,62,927503948
487,23,Ticks_Phase_5,203,1,48,66,927985804
487,23,Ticks_Phase_5,204,5,42,127,927995188
487,23,Ticks_Phase_5,205,5,42,127,928494884
487,23,Ticks_Phase_5,206,1,48,53,928514408
487,23,Ticks_Phase_5,207,5,42,127,928994872
487,23,Ticks_Phase_5,208,1,48,52,929024804
487,23,Ticks_Phase_5,209,1,48,55,929484120
487,23,Ticks_Phase_5,210,5,42,127,929495376
487,23,Ticks_Phase_5,211,5,42,127,929995072
487,23,Ticks_Phase_5,212,1,48,62,930031508
487,23,Ticks_Phase_5,213,5,42,127,930494832
487,23,Ticks_Phase_5,214,1,48,57,930507020
487,23,Ticks_Phase_5,215,5,42,127,930994524
487,23,Ticks_Phase_5,216,1,48,62,931001608
487,23,Ticks_Phase_5,217,5,42,127,931495308
487,23,Ticks_Phase_5,218,1,48,62,931509908
487,23,Ticks_Phase_5,219,5,42,127,931994996
487,23,Ticks_Phase_5,220,1,48,51,932008448
487,23,Ticks_Phase_5,221,5,42,127,932494756
487,23,Ticks_Phase_5,222,1,48,61,932515252
487,23,Ticks_Phase_5,223,5,42,127,932994592
487,23,Ticks_Phase_5,224,1,48,62,933018012
487,23,Ticks_Phase_5,225,5,42,127,933495104
487,23,Ticks_Phase_5,226,1,48,66,933500916
487,23,Ticks_Phase_5,227,1,48,67,934010628
487,23,Ticks_Phase_5,228,5,42,127,934045112
487,23,Ticks_Phase_5,229,5,42,127,934544656
487,23,Ticks_Phase_5,230,1,48,60,934549344
487,23,Ticks_Phase_5,231,5,42,127,935044496
487,23,Ticks_Phase_5,232,1,48,52,935058244
487,23,Ticks_Phase_5,233,5,42,127,935545304
487,23,Ticks_Phase_5,234,1,48,56,935624016
487,23,Ticks_Phase_5,235,5,42,127,936044844
487,23,Ticks_Phase_5,236,1,48,47,936130956
487,23,Ticks_Phase_5,237,5,42,127,936544680
487,23,Ticks_Phase_5,238,1,48,54,936585396
487,23,Ticks_Phase_5,239,1,48,68,937038416
487,23,Ticks_Phase_5,240,5,42,127,937045484
487,23,Ticks_Phase_5,241,5,42,127,937545104
487,23,Ticks_Phase_5,242,1,48,57,937579076
487,23,Ticks_Phase_5,243,5,42,127,938044716
487,23,Ticks_Phase_5,244,1,48,64,938071568
487,23,Ticks_Phase_5,245,5,42,127,938544404
487,23,Ticks_Phase_5,246,1,48,58,938604216
487,23,Ticks_Phase_5,247,5,42,127,939045360
487,23,Ticks_Phase_5,248,1,48,51,939087352
487,23,Ticks_Phase_5,249,5,42,127,939544976
487,23,Ticks_Phase_5,250,1,48,52,939620584
487,23,Ticks_Phase_5,251,5,42,127,940044588
487,23,Ticks_Phase_5,252,1,48,62,940091360
487,23,Ticks_Phase_5,253,5,42,127,940545324
487,23,Ticks_Phase_5,254,1,48,60,940563124
487,23,Ticks_Phase_5,255,1,48,56,941042496
487,23,Ticks_Phase_5,256,5,42,127,941045080
487,23,Ticks_Phase_5,257,5,42,127,941544848
487,23,Ticks_Phase_5,258,1,48,34,941556056
487,23,Ticks_Phase_5,259,1,48,54,942043936
487,23,Ticks_Phase_5,260,5,42,127,942045652
487,23,Ticks_Phase_5,261,1,48,56,942551524
487,23,Ticks_Phase_5,262,5,42,127,942644852
487,23,Ticks_Phase_5,263,1,48,53,943094576
487,23,Ticks_Phase_5,264,5,42,127,943145304
487,23,Ticks_Phase_5,265,5,42,127,943645000
487,23,Ticks_Phase_5,266,1,48,50,943660396
487,23,Ticks_Phase_5,267,5,42,127,944144836
487,23,Ticks_Phase_5,268,1,48,51,944206592
487,23,Ticks_Phase_5,269,5,42,127,944644448
487,23,Ticks_Phase_5,270,1,48,50,944728524
487,23,Ticks_Phase_5,271,5,42,127,945145484
487,23,Ticks_Phase_5,272,1,48,45,945167556
487,23,Ticks_Phase_5,273,5,42,127,945644872
487,23,Ticks_Phase_5,274,1,48,50,945663872
487,23,Ticks_Phase_5,275,5,42,127,946144564
487,23,Ticks_Phase_5,276,1,48,50,946165060
487,23,Ticks_Phase_5,277,5,42,127,946645296
487,23,Ticks_Phase_5,278,1,48,48,946679788
487,23,Ticks_Phase_5,279,1,48,51,947127200
487,23,Ticks_Phase_5,280,5,42,127,947145200
487,23,Ticks_Phase_5,281,1,48,46,947625616
487,23,Ticks_Phase_5,282,5,42,127,947644740
487,23,Ticks_Phase_5,283,1,48,52,948121828
487,23,Ticks_Phase_5,284,5,42,127,948144500
487,23,Ticks_Phase_5,285,1,48,62,948645368
487,23,Ticks_Phase_5,286,5,42,127,948647012
487,23,Ticks_Phase_5,287,5,42,127,949144884
487,23,Ticks_Phase_5,288,1,48,48,949186748
487,23,Ticks_Phase_5,289,5,42,127,949644568
487,23,Ticks_Phase_5,290,1,48,51,949686284
487,23,Ticks_Phase_5,291,5,42,127,950145380
487,23,Ticks_Phase_5,292,1,48,65,950158908
487,23,Ticks_Phase_5,293,5,42,127,950645220
487,23,Ticks_Phase_5,294,1,48,57,950680692
487,23,Ticks_Phase_5,295,5,42,127,951144980
487,23,Ticks_Phase_5,296,1,48,55,951145948
487,23,Ticks_Phase_5,297,5,42,127,951644524
487,23,Ticks_Phase_5,298,1,48,55,951657080
487,23,Ticks_Phase_5,299,5,42,127,952045132
487,23,Ticks_Phase_5,300,1,48,55,952172948
487,23,Ticks_Phase_5,301,5,42,127,952544600
487,23,Ticks_Phase_5,302,1,48,58,952636460
487,23,Ticks_Phase_5,303,5,42,127,953045332
487,23,Ticks_Phase_5,304,1,48,48,953048604
487,23,Ticks_Phase_5,305,1,48,39,953524168
487,23,Ticks_Phase_5,306,5,42,127,953545160
487,23,Ticks_Phase_5,307,1,48,23,954044484
487,23,Ticks_Phase_5,308,5,42,127,954046120
487,23,Ticks_Phase_5,309,1,38,15,954056888
487,23,Ticks_Phase_5,310,5,42,127,954544436
487,23,Ticks_Phase_5,311,1,48,57,954546144
487,23,Ticks_Phase_5,312,5,42,127,955045220
487,23,Ticks_Phase_5,313,1,48,65,955072788
487,23,Ticks_Phase_5,314,5,42,127,955545208
487,23,Ticks_Phase_5,315,1,48,55,955562948
487,23,Ticks_Phase_5,316,5,42,127,956044524
487,23,Ticks_Phase_5,317,1,48,47,956058348
487,23,Ticks_Phase_5,318,5,42,127,956545480
487,23,Ticks_Phase_5,319,1,48,51,956571140
487,23,Ticks_Phase_5,320,5,42,127,957045316
487,23,Ticks_Phase_5,321,1,48,54,957055108
487,23,Ticks_Phase_5,322,5,42,127,957544932
487,23,Ticks_Phase_5,323,1,48,51,957602708
487,23,Ticks_Phase_5,324,5,42,127,958044472
487,23,Ticks_Phase_5,325,1,48,56,958059720
487,23,Ticks_Phase_5,326,5,42,127,958545204
487,23,Ticks_Phase_5,327,1,48,36,958556788
487,23,Ticks_Phase_5,328,5,42,127,959045116
487,23,Ticks_Phase_5,329,1,48,55,959055132
487,23,Ticks_Phase_5,330,5,42,127,959544732
487,23,Ticks_Phase_5,331,1,48,49,959572480
487,23,Ticks_Phase_5,332,5,42,127,960045316
487,23,Ticks_Phase_5,333,1,48,56,960065812
487,23,Ticks_Phase_5,334,5,42,127,960555340
487,23,Ticks_Phase_5,335,1,48,53,960562660
487,23,Ticks_Phase_5,336,5,42,127,961054952
487,23,Ticks_Phase_5,337,1,48,57,961089372
487,23,Ticks_Phase_5,338,5,42,127,961555012
487,23,Ticks_Phase_5,0,9999,9999,9999,877032548
487,23,Ticks_Phase_5,1,9999,9999,9999,877532260
487,23,Ticks_Phase_5,2,9999,9999,9999,878032992
487,23,Ticks_Phase_5,3,9999,9999,9999,878532680
487,23,Ticks_Phase_5,4,9999,9999,9999,879032440
487,23,Ticks_Phase_5,5,9999,9999,9999,879532100
487,23,Ticks_Phase_5,6,9999,9999,9999,880032836
487,23,Ticks_Phase_5,7,9999,9999,9999,880532596
487,23,Ticks_Phase_5,8,9999,9999,9999,881032288
487,23,Ticks_Phase_5,9,9999,9999,9999,881532996
487,23,Ticks_Phase_5,10,9999,9999,9999,882032760
487,23,Ticks_Phase_5,11,9999,9999,9999,882532448
487,23,Ticks_Phase_5,12,9999,9999,9999,883032136
487,23,Ticks_Phase_5,13,9999,9999,9999,883532872
487,23,Ticks_Phase_5,14,9999,9999,9999,884032640
487,23,Ticks_Phase_5,15,9999,9999,9999,884532328
487,23,Ticks_Phase_5,16,9999,9999,9999,885033060
487,23,Ticks_Phase_5,17,9999,9999,9999,885532748
487,23,Ticks_Phase_5,18,9999,9999,9999,886032436
487,23,Ticks_Phase_5,19,9999,9999,9999,886532200
487,23,Ticks_Phase_5,20,9999,9999,9999,887032932
487,23,Ticks_Phase_5,21,9999,9999,9999,887532624
487,23,Ticks_Phase_5,22,9999,9999,9999,888032308
487,23,Ticks_Phase_5,23,9999,9999,9999,888533120
487,23,Ticks_Phase_5,24,9999,9999,9999,889032808
487,23,Ticks_Phase_5,25,9999,9999,9999,889532496
487,23,Ticks_Phase_5,26,9999,9999,9999,890032184
487,23,Ticks_Phase_5,27,9999,9999,9999,890532960
487,23,Ticks_Phase_5,28,9999,9999,9999,891032652
487,23,Ticks_Phase_5,29,9999,9999,9999,891532416
487,23,Ticks_Phase_5,30,9999,9999,9999,892022900
487,23,Ticks_Phase_5,31,9999,9999,9999,892522588
487,23,Ticks_Phase_5,32,9999,9999,9999,893022272
487,23,Ticks_Phase_5,33,9999,9999,9999,893523012
487,23,Ticks_Phase_5,34,9999,9999,9999,894022768
487,23,Ticks_Phase_5,35,9999,9999,9999,894522464
487,23,Ticks_Phase_5,36,9999,9999,9999,895022144
487,23,Ticks_Phase_5,37,9999,9999,9999,895522888
487,23,Ticks_Phase_5,38,9999,9999,9999,896022648
487,23,Ticks_Phase_5,39,9999,9999,9999,896522336
487,23,Ticks_Phase_5,40,9999,9999,9999,897023072
487,23,Ticks_Phase_5,41,9999,9999,9999,897522756
487,23,Ticks_Phase_5,42,9999,9999,9999,898022516
487,23,Ticks_Phase_5,43,9999,9999,9999,898522212
487,23,Ticks_Phase_5,44,9999,9999,9999,899022940
487,23,Ticks_Phase_5,45,9999,9999,9999,899522636
487,23,Ticks_Phase_5,46,9999,9999,9999,900022396
487,23,Ticks_Phase_5,47,9999,9999,9999,900523132
487,23,Ticks_Phase_5,48,9999,9999,9999,901042288
487,23,Ticks_Phase_5,49,9999,9999,9999,901543004
487,23,Ticks_Phase_5,50,9999,9999,9999,902042744
487,23,Ticks_Phase_5,51,9999,9999,9999,902542428
487,23,Ticks_Phase_5,52,9999,9999,9999,903042112
487,23,Ticks_Phase_5,53,9999,9999,9999,903542856
487,23,Ticks_Phase_5,54,9999,9999,9999,904042616
487,23,Ticks_Phase_5,55,9999,9999,9999,904542304
487,23,Ticks_Phase_5,56,9999,9999,9999,905043040
487,23,Ticks_Phase_5,57,9999,9999,9999,905542720
487,23,Ticks_Phase_5,58,9999,9999,9999,906042484
487,23,Ticks_Phase_5,59,9999,9999,9999,906542180
487,23,Ticks_Phase_5,60,9999,9999,9999,907042916
487,23,Ticks_Phase_5,61,9999,9999,9999,907542604
487,23,Ticks_Phase_5,62,9999,9999,9999,908042364
487,23,Ticks_Phase_5,63,9999,9999,9999,908543100
487,23,Ticks_Phase_5,64,9999,9999,9999,909062256
487,23,Ticks_Phase_5,65,9999,9999,9999,909562992
487,23,Ticks_Phase_5,66,9999,9999,9999,910062680
487,23,Ticks_Phase_5,67,9999,9999,9999,910562368
487,23,Ticks_Phase_5,68,9999,9999,9999,911062136
487,23,Ticks_Phase_5,69,9999,9999,9999,911562872
487,23,Ticks_Phase_5,70,9999,9999,9999,912062560
487,23,Ticks_Phase_5,71,9999,9999,9999,912562248
487,23,Ticks_Phase_5,72,9999,9999,9999,913063032
487,23,Ticks_Phase_5,73,9999,9999,9999,913562720
487,23,Ticks_Phase_5,74,9999,9999,9999,914062408
487,23,Ticks_Phase_5,75,9999,9999,9999,914562172
487,23,Ticks_Phase_5,76,9999,9999,9999,915062908
487,23,Ticks_Phase_5,77,9999,9999,9999,915562596
487,23,Ticks_Phase_5,78,9999,9999,9999,916062284
487,23,Ticks_Phase_5,79,9999,9999,9999,916563016
487,23,Ticks_Phase_5,80,9999,9999,9999,917062780
487,23,Ticks_Phase_5,81,9999,9999,9999,917542996
487,23,Ticks_Phase_5,82,9999,9999,9999,918042684
487,23,Ticks_Phase_5,83,9999,9999,9999,918542448
487,23,Ticks_Phase_5,84,9999,9999,9999,919042136
487,23,Ticks_Phase_5,85,9999,9999,9999,919542872
487,23,Ticks_Phase_5,86,9999,9999,9999,920042560
487,23,Ticks_Phase_5,87,9999,9999,9999,920542320
487,23,Ticks_Phase_5,88,9999,9999,9999,921043056
487,23,Ticks_Phase_5,89,9999,9999,9999,921542744
487,23,Ticks_Phase_5,90,9999,9999,9999,922042436
487,23,Ticks_Phase_5,91,9999,9999,9999,922542200
487,23,Ticks_Phase_5,92,9999,9999,9999,923042912
487,23,Ticks_Phase_5,93,9999,9999,9999,923542600
487,23,Ticks_Phase_5,94,9999,9999,9999,924042360
487,23,Ticks_Phase_5,95,9999,9999,9999,924543096
487,23,Ticks_Phase_5,96,9999,9999,9999,925042784
487,23,Ticks_Phase_5,97,9999,9999,9999,925492296
487,23,Ticks_Phase_5,98,9999,9999,9999,925993036
487,23,Ticks_Phase_5,99,9999,9999,9999,926492792
487,23,Ticks_Phase_5,100,9999,9999,9999,926992480
487,23,Ticks_Phase_5,101,9999,9999,9999,927492176
487,23,Ticks_Phase_5,102,9999,9999,9999,927992904
487,23,Ticks_Phase_5,103,9999,9999,9999,928492600
487,23,Ticks_Phase_5,104,9999,9999,9999,928992360
487,23,Ticks_Phase_5,105,9999,9999,9999,929493088
487,23,Ticks_Phase_5,106,9999,9999,9999,929992784
487,23,Ticks_Phase_5,107,9999,9999,9999,930492472
487,23,Ticks_Phase_5,108,9999,9999,9999,930992236
487,23,Ticks_Phase_5,109,9999,9999,9999,931492948
487,23,Ticks_Phase_5,110,9999,9999,9999,931992632
487,23,Ticks_Phase_5,111,9999,9999,9999,932492396
487,23,Ticks_Phase_5,112,9999,9999,9999,932992084
487,23,Ticks_Phase_5,113,9999,9999,9999,933492820
487,23,Ticks_Phase_5,114,9999,9999,9999,934042748
487,23,Ticks_Phase_5,115,9999,9999,9999,934542444
487,23,Ticks_Phase_5,116,9999,9999,9999,935042132
487,23,Ticks_Phase_5,117,9999,9999,9999,935542868
487,23,Ticks_Phase_5,118,9999,9999,9999,936042556
487,23,Ticks_Phase_5,119,9999,9999,9999,936542320
487,23,Ticks_Phase_5,120,9999,9999,9999,937043048
487,23,Ticks_Phase_5,121,9999,9999,9999,937542740
487,23,Ticks_Phase_5,122,9999,9999,9999,938042432
487,23,Ticks_Phase_5,123,9999,9999,9999,938542192
487,23,Ticks_Phase_5,124,9999,9999,9999,939042924
487,23,Ticks_Phase_5,125,9999,9999,9999,939542612
487,23,Ticks_Phase_5,126,9999,9999,9999,940042300
487,23,Ticks_Phase_5,127,9999,9999,9999,940543036
487,23,Ticks_Phase_5,128,9999,9999,9999,941042792
487,23,Ticks_Phase_5,129,9999,9999,9999,941542488
487,23,Ticks_Phase_5,130,9999,9999,9999,942042176
487,23,Ticks_Phase_5,131,9999,9999,9999,942642280
487,23,Ticks_Phase_5,132,9999,9999,9999,943143016
487,23,Ticks_Phase_5,133,9999,9999,9999,943642712
487,23,Ticks_Phase_5,134,9999,9999,9999,944142400
487,23,Ticks_Phase_5,135,9999,9999,9999,944642160
487,23,Ticks_Phase_5,136,9999,9999,9999,945142900
487,23,Ticks_Phase_5,137,9999,9999,9999,945642588
487,23,Ticks_Phase_5,138,9999,9999,9999,946142276
487,23,Ticks_Phase_5,139,9999,9999,9999,946643012
487,23,Ticks_Phase_5,140,9999,9999,9999,947142764
487,23,Ticks_Phase_5,141,9999,9999,9999,947642452
487,23,Ticks_Phase_5,142,9999,9999,9999,948142140
487,23,Ticks_Phase_5,143,9999,9999,9999,948642932
487,23,Ticks_Phase_5,144,9999,9999,9999,949142596
487,23,Ticks_Phase_5,145,9999,9999,9999,949642356
487,23,Ticks_Phase_5,146,9999,9999,9999,950143092
487,23,Ticks_Phase_5,147,9999,9999,9999,950642784
487,23,Ticks_Phase_5,148,9999,9999,9999,951142472
487,23,Ticks_Phase_5,149,9999,9999,9999,951642236
487,23,Ticks_Phase_5,150,9999,9999,9999,952042620
487,23,Ticks_Phase_5,151,9999,9999,9999,952542312
487,23,Ticks_Phase_5,152,9999,9999,9999,953043048
487,23,Ticks_Phase_5,153,9999,9999,9999,953542728
487,23,Ticks_Phase_5,154,9999,9999,9999,954042420
487,23,Ticks_Phase_5,155,9999,9999,9999,954542148
487,23,Ticks_Phase_5,156,9999,9999,9999,955042932
487,23,Ticks_Phase_5,157,9999,9999,9999,955542620
487,23,Ticks_Phase_5,158,9999,9999,9999,956042312
487,23,Ticks_Phase_5,159,9999,9999,9999,956543044
487,23,Ticks_Phase_5,160,9999,9999,9999,957042808
487,23,Ticks_Phase_5,161,9999,9999,9999,957542496
487,23,Ticks_Phase_5,162,9999,9999,9999,958042184
487,23,Ticks_Phase_5,163,9999,9999,9999,958542920
487,23,Ticks_Phase_5,164,9999,9999,9999,959042680
487,23,Ticks_Phase_5,165,9999,9999,9999,959542368
487,23,Ticks_Phase_5,166,9999,9999,9999,960043104
487,23,Ticks_Phase_5,167,9999,9999,9999,960553052
487,23,Ticks_Phase_5,168,9999,9999,9999,961052740
487,23,Ticks_Phase_5,169,9999,9999,9999,961552504
488,22,Ticks_Phase_8,0,5,42,127,972781976
488,22,Ticks_Phase_8,1,1,48,32,973402892
488,22,Ticks_Phase_8,2,5,42,127,973581764
488,22,Ticks_Phase_8,3,1,48,45,973904304
488,22,Ticks_Phase_8,4,5,42,127,974381624
488,22,Ticks_Phase_8,5,1,48,63,974536336
488,22,Ticks_Phase_8,6,1,48,22,974620572
488,22,Ticks_Phase_8,7,5,42,127,975182432
488,22,Ticks_Phase_8,8,1,48,53,975220532
488,22,Ticks_Phase_8,9,5,42,127,975981996
488,22,Ticks_Phase_8,10,1,48,57,976027496
488,22,Ticks_Phase_8,11,5,42,127,976781636
488,22,Ticks_Phase_8,12,1,48,54,976847380
488,22,Ticks_Phase_8,13,1,48,55,977579084
488,22,Ticks_Phase_8,14,5,42,127,977581588
488,22,Ticks_Phase_8,15,1,48,73,978300444
488,22,Ticks_Phase_8,16,5,42,127,978382344
488,22,Ticks_Phase_8,17,1,48,59,979118888
488,22,Ticks_Phase_8,18,5,42,127,979181908
488,22,Ticks_Phase_8,19,1,48,63,979915756
488,22,Ticks_Phase_8,20,5,42,127,979981620
488,22,Ticks_Phase_8,21,1,48,50,980712632
488,22,Ticks_Phase_8,22,5,42,127,980781408
488,22,Ticks_Phase_8,23,1,48,54,981517128
488,22,Ticks_Phase_8,24,5,42,127,981582312
488,22,Ticks_Phase_8,25,1,48,66,982368512
488,22,Ticks_Phase_8,26,5,42,127,982381876
488,22,Ticks_Phase_8,27,5,42,127,983181744
488,22,Ticks_Phase_8,28,1,48,57,983210356
488,22,Ticks_Phase_8,29,5,42,127,983981408
488,22,Ticks_Phase_8,30,1,48,66,984082404
488,22,Ticks_Phase_8,31,5,42,127,984782164
488,22,Ticks_Phase_8,32,1,48,60,984822208
488,22,Ticks_Phase_8,33,5,42,127,985582100
488,22,Ticks_Phase_8,34,1,48,81,985642808
488,22,Ticks_Phase_8,35,5,42,127,986381588
488,22,Ticks_Phase_8,36,1,48,64,986437724
488,22,Ticks_Phase_8,37,5,42,127,987181372
488,22,Ticks_Phase_8,38,1,48,62,987283868
488,22,Ticks_Phase_8,39,5,42,127,987982208
488,22,Ticks_Phase_8,40,1,48,63,988031980
488,22,Ticks_Phase_8,41,5,42,127,988782068
488,22,Ticks_Phase_8,42,1,48,73,988838380
488,22,Ticks_Phase_8,43,5,42,127,989581628
488,22,Ticks_Phase_8,44,1,48,57,989589012
488,22,Ticks_Phase_8,45,5,42,127,990381292
488,22,Ticks_Phase_8,46,1,48,51,990418108
488,22,Ticks_Phase_8,47,1,48,63,991160824
488,22,Ticks_Phase_8,48,5,42,127,991182120
488,22,Ticks_Phase_8,49,5,42,127,991981912
488,22,Ticks_Phase_8,50,1,48,62,991992224
488,22,Ticks_Phase_8,51,1,48,68,992733808
488,22,Ticks_Phase_8,52,5,42,127,992781768
488,22,Ticks_Phase_8,53,1,48,68,993547968
488,22,Ticks_Phase_8,54,5,42,127,993581404
488,22,Ticks_Phase_8,55,5,42,127,994382168
488,22,Ticks_Phase_8,56,1,48,51,994399524
488,22,Ticks_Phase_8,57,1,48,60,995173228
488,22,Ticks_Phase_8,58,5,42,127,995181872
488,22,Ticks_Phase_8,59,1,48,64,995925312
488,22,Ticks_Phase_8,60,5,42,127,995982108
488,22,Ticks_Phase_8,61,1,48,65,996721960
488,22,Ticks_Phase_8,62,5,42,127,996761828
488,22,Ticks_Phase_8,63,5,42,127,997561868
488,22,Ticks_Phase_8,64,1,48,57,997576516
488,22,Ticks_Phase_8,65,5,42,127,998361432
488,22,Ticks_Phase_8,66,1,48,79,998379760
488,22,Ticks_Phase_8,67,5,42,127,999162192
488,22,Ticks_Phase_8,68,1,48,51,999182760
488,22,Ticks_Phase_8,69,5,42,127,999961904
488,22,Ticks_Phase_8,70,1,48,63,999979480
488,22,Ticks_Phase_8,71,1,48,70,1000736188
488,22,Ticks_Phase_8,72,5,42,127,1000761756
488,22,Ticks_Phase_8,73,1,48,71,1001531332
488,22,Ticks_Phase_8,74,5,42,127,1001561692
488,22,Ticks_Phase_8,75,1,48,70,1002343248
488,22,Ticks_Phase_8,76,5,42,127,1002362152
488,22,Ticks_Phase_8,77,1,48,73,1003135916
488,22,Ticks_Phase_8,78,5,42,127,1003161936
488,22,Ticks_Phase_8,79,5,42,127,1003961680
488,22,Ticks_Phase_8,80,1,48,73,1003982772
488,22,Ticks_Phase_8,81,5,42,127,1004761616
488,22,Ticks_Phase_8,82,1,48,56,1004840228
488,22,Ticks_Phase_8,83,5,42,127,1005562300
488,22,Ticks_Phase_8,84,1,48,62,1005572836
488,22,Ticks_Phase_8,85,5,42,127,1006361864
488,22,Ticks_Phase_8,86,1,48,59,1006371352
488,22,Ticks_Phase_8,87,5,42,127,1007161796
488,22,Ticks_Phase_8,88,1,48,57,1007188724
488,22,Ticks_Phase_8,89,1,48,66,1007950996
488,22,Ticks_Phase_8,90,5,42,127,1007961724
488,22,Ticks_Phase_8,91,1,48,68,1008737668
488,22,Ticks_Phase_8,92,5,42,127,1008762188
488,22,Ticks_Phase_8,93,1,48,67,1009525620
488,22,Ticks_Phase_8,94,5,42,127,1009561824
488,22,Ticks_Phase_8,95,1,48,72,1010308856
488,22,Ticks_Phase_8,96,5,42,127,1010361640
488,22,Ticks_Phase_8,97,1,48,75,1011115260
488,22,Ticks_Phase_8,98,5,42,127,1011181868
488,22,Ticks_Phase_8,99,5,42,127,1011981660
488,22,Ticks_Phase_8,100,1,48,64,1011998928
488,22,Ticks_Phase_8,101,5,42,127,1012781372
488,22,Ticks_Phase_8,102,1,48,65,1012786364
488,22,Ticks_Phase_8,103,5,42,127,1013582280
488,22,Ticks_Phase_8,104,1,48,68,1013621348
488,22,Ticks_Phase_8,105,5,42,127,1014381916
488,22,Ticks_Phase_8,106,1,48,59,1014416860
488,22,Ticks_Phase_8,107,5,42,127,1015181704
488,22,Ticks_Phase_8,108,1,48,78,1015224012
488,22,Ticks_Phase_8,109,5,42,127,1015981364
488,22,Ticks_Phase_8,110,1,48,76,1016001936
488,22,Ticks_Phase_8,111,1,48,58,1016759480
488,22,Ticks_Phase_8,112,5,42,127,1016782340
488,22,Ticks_Phase_8,113,1,48,68,1017552296
488,22,Ticks_Phase_8,114,5,42,127,1017582052
488,22,Ticks_Phase_8,115,1,48,63,1018354780
488,22,Ticks_Phase_8,116,5,42,127,1018381616
488,22,Ticks_Phase_8,117,1,48,65,1019131724
488,22,Ticks_Phase_8,118,5,42,127,1019181328
488,22,Ticks_Phase_8,119,1,48,62,1019964908
488,22,Ticks_Phase_8,120,5,42,127,1019982384
488,22,Ticks_Phase_8,121,1,48,75,1020743648
488,22,Ticks_Phase_8,122,5,42,127,1020781800
488,22,Ticks_Phase_8,123,1,48,77,1021552548
488,22,Ticks_Phase_8,124,5,42,127,1021581636
488,22,Ticks_Phase_8,125,1,48,70,1022351068
488,22,Ticks_Phase_8,126,5,42,127,1022381372
488,22,Ticks_Phase_8,127,1,48,66,1023109208
488,22,Ticks_Phase_8,128,5,42,127,1023182280
488,22,Ticks_Phase_8,129,1,48,66,1024008992
488,22,Ticks_Phase_8,130,5,42,127,1024021984
488,22,Ticks_Phase_8,131,1,48,46,1024799492
488,22,Ticks_Phase_8,132,5,42,127,1024821548
488,22,Ticks_Phase_8,133,1,48,68,1025591948
488,22,Ticks_Phase_8,134,5,42,127,1025622452
488,22,Ticks_Phase_8,135,1,48,90,1026353316
488,22,Ticks_Phase_8,136,5,42,127,1026422240
488,22,Ticks_Phase_8,137,1,48,90,1027197728
488,22,Ticks_Phase_8,138,5,42,127,1027222028
488,22,Ticks_Phase_8,139,1,48,87,1028014844
488,22,Ticks_Phase_8,140,5,42,127,1028021540
488,22,Ticks_Phase_8,141,1,48,81,1028822380
488,22,Ticks_Phase_8,142,5,42,127,1028824096
488,22,Ticks_Phase_8,143,1,48,81,1029619500
488,22,Ticks_Phase_8,144,5,42,127,1029622160
488,22,Ticks_Phase_8,145,1,48,84,1030363356
488,22,Ticks_Phase_8,146,5,42,127,1030422092
488,22,Ticks_Phase_8,147,5,42,127,1031221740
488,22,Ticks_Phase_8,148,1,48,83,1031224412
488,22,Ticks_Phase_8,149,1,48,91,1031976252
488,22,Ticks_Phase_8,150,5,42,127,1032022492
488,22,Ticks_Phase_8,151,1,48,87,1032781068
488,22,Ticks_Phase_8,152,5,42,127,1032822056
488,22,Ticks_Phase_8,153,1,48,68,1033537564
488,22,Ticks_Phase_8,154,5,42,127,1033621916
488,22,Ticks_Phase_8,155,1,48,97,1034375468
488,22,Ticks_Phase_8,156,5,42,127,1034421652
488,22,Ticks_Phase_8,157,1,48,102,1035155560
488,22,Ticks_Phase_8,158,5,42,127,1035222488
488,22,Ticks_Phase_8,159,1,48,101,1035959944
488,22,Ticks_Phase_8,160,5,42,127,1036022272
488,22,Ticks_Phase_8,161,1,48,91,1036777468
488,22,Ticks_Phase_8,162,5,42,127,1036821912
488,22,Ticks_Phase_8,163,1,48,77,1037575908
488,22,Ticks_Phase_8,164,5,42,127,1037581784
488,22,Ticks_Phase_8,165,5,42,127,1038381576
488,22,Ticks_Phase_8,166,1,48,87,1038397348
488,22,Ticks_Phase_8,167,5,42,127,1039182336
488,22,Ticks_Phase_8,168,1,48,82,1039250312
488,22,Ticks_Phase_8,169,5,42,127,1039981824
488,22,Ticks_Phase_8,170,1,48,81,1040009884
488,22,Ticks_Phase_8,171,5,42,127,1040781832
488,22,Ticks_Phase_8,172,1,48,87,1040822648
488,22,Ticks_Phase_8,173,1,48,80,1041538368
488,22,Ticks_Phase_8,174,5,42,127,1041581560
488,22,Ticks_Phase_8,175,5,42,127,1042382180
488,22,Ticks_Phase_8,176,1,48,59,1042457560
488,22,Ticks_Phase_8,177,5,42,127,1043182040
488,22,Ticks_Phase_8,178,1,48,69,1043231740
488,22,Ticks_Phase_8,179,5,42,127,1043981676
488,22,Ticks_Phase_8,180,1,48,86,1043986668
488,22,Ticks_Phase_8,181,1,48,100,1044753196
488,22,Ticks_Phase_8,182,5,42,127,1044781456
488,22,Ticks_Phase_8,183,5,42,127,1045582296
488,22,Ticks_Phase_8,184,1,48,73,1045613580
488,22,Ticks_Phase_8,185,5,42,127,1046382012
488,22,Ticks_Phase_8,186,1,48,92,1046417704
488,22,Ticks_Phase_8,187,5,42,127,1047181796
488,22,Ticks_Phase_8,188,1,48,78,1047224856
488,22,Ticks_Phase_8,189,1,48,87,1047971540
488,22,Ticks_Phase_8,190,5,42,127,1047981528
488,22,Ticks_Phase_8,191,1,48,87,1048766608
488,22,Ticks_Phase_8,192,5,42,127,1048782136
488,22,Ticks_Phase_8,193,1,48,68,1049548864
488,22,Ticks_Phase_8,194,5,42,127,1049581848
488,22,Ticks_Phase_8,195,5,42,127,1050301888
488,22,Ticks_Phase_8,196,1,48,70,1050385356
488,22,Ticks_Phase_8,197,5,42,127,1051101672
488,22,Ticks_Phase_8,198,1,48,68,1051102640
488,22,Ticks_Phase_8,199,1,48,71,1051837092
488,22,Ticks_Phase_8,200,5,42,127,1051902500
488,22,Ticks_Phase_8,201,1,48,59,1052681740
488,22,Ticks_Phase_8,202,5,42,127,1052702136
488,22,Ticks_Phase_8,203,1,48,87,1053454492
488,22,Ticks_Phase_8,204,5,42,127,1053501700
488,22,Ticks_Phase_8,205,1,48,91,1054224400
488,22,Ticks_Phase_8,206,5,42,127,1054301784
488,22,Ticks_Phase_8,207,1,48,70,1055034816
488,22,Ticks_Phase_8,208,5,42,127,1055102392
488,22,Ticks_Phase_8,209,1,48,102,1055860220
488,22,Ticks_Phase_8,210,5,42,127,1055902180
488,22,Ticks_Phase_8,211,1,48,71,1056614692
488,22,Ticks_Phase_8,212,5,42,127,1056701692
488,22,Ticks_Phase_8,213,1,48,96,1057477480
488,22,Ticks_Phase_8,214,5,42,127,1057501480
488,22,Ticks_Phase_8,215,5,42,127,1058302320
488,22,Ticks_Phase_8,216,1,48,69,1058328728
488,22,Ticks_Phase_8,217,5,42,127,1059102104
488,22,Ticks_Phase_8,218,1,48,68,1059188872
488,22,Ticks_Phase_8,219,5,42,127,1059901744
488,22,Ticks_Phase_8,220,1,48,80,1059977796
488,22,Ticks_Phase_8,221,5,42,127,1060701452
488,22,Ticks_Phase_8,222,1,48,102,1060747028
488,22,Ticks_Phase_8,223,5,42,127,1061502212
488,22,Ticks_Phase_8,224,1,48,80,1061758916
488,22,Ticks_Phase_8,225,5,42,127,1062302220
488,22,Ticks_Phase_8,226,1,48,84,1062451624
488,22,Ticks_Phase_8,227,5,42,127,1063101736
488,22,Ticks_Phase_8,228,1,48,76,1063229628
488,22,Ticks_Phase_8,229,1,48,74,1063933012
488,22,Ticks_Phase_8,230,5,42,127,1063981416
488,22,Ticks_Phase_8,231,1,48,88,1064680224
488,22,Ticks_Phase_8,232,5,42,127,1064782160
488,22,Ticks_Phase_8,233,1,48,96,1065511908
488,22,Ticks_Phase_8,234,5,42,127,1065582032
488,22,Ticks_Phase_8,235,1,48,96,1066337976
488,22,Ticks_Phase_8,236,5,42,127,1066381672
488,22,Ticks_Phase_8,237,1,48,96,1067142036
488,22,Ticks_Phase_8,238,5,42,127,1067181480
488,22,Ticks_Phase_8,239,1,48,99,1067942744
488,22,Ticks_Phase_8,240,5,42,127,1067982092
488,22,Ticks_Phase_8,241,1,48,74,1068751596
488,22,Ticks_Phase_8,242,5,42,127,1068781880
488,22,Ticks_Phase_8,243,1,48,78,1069523300
488,22,Ticks_Phase_8,244,5,42,127,1069581964
488,22,Ticks_Phase_8,245,1,48,86,1070334320
488,22,Ticks_Phase_8,246,5,42,127,1070381528
488,22,Ticks_Phase_8,247,1,48,91,1071163836
488,22,Ticks_Phase_8,248,5,42,127,1071182288
488,22,Ticks_Phase_8,249,5,42,127,1071981856
488,22,Ticks_Phase_8,250,1,48,83,1071990824
488,22,Ticks_Phase_8,251,1,38,19,1072000688
488,22,Ticks_Phase_8,252,1,48,94,1072747708
488,22,Ticks_Phase_8,253,5,42,127,1072781888
488,22,Ticks_Phase_8,254,5,42,127,1073581556
488,22,Ticks_Phase_8,255,1,48,71,1073626980
488,22,Ticks_Phase_8,256,5,42,127,1074382164
488,22,Ticks_Phase_8,257,1,48,87,1074426244
488,22,Ticks_Phase_8,258,5,42,127,1075181876
488,22,Ticks_Phase_8,259,1,48,48,1075200044
488,22,Ticks_Phase_8,260,1,38,15,1075211344
488,22,Ticks_Phase_8,261,5,42,127,1075981616
488,22,Ticks_Phase_8,262,1,48,79,1076032668
488,22,Ticks_Phase_8,263,5,42,127,1076781628
488,22,Ticks_Phase_8,264,1,48,48,1076808628
488,22,Ticks_Phase_8,265,1,38,16,1076820156
488,22,Ticks_Phase_8,266,1,48,81,1077633600
488,22,Ticks_Phase_8,267,5,42,127,1077742004
488,22,Ticks_Phase_8,268,5,42,127,1078541736
488,22,Ticks_Phase_8,269,1,48,77,1078608136
488,22,Ticks_Phase_8,270,5,42,127,1079341672
488,22,Ticks_Phase_8,271,1,48,66,1079414364
488,22,Ticks_Phase_8,272,5,42,127,1080142280
488,22,Ticks_Phase_8,273,1,48,80,1080191088
488,22,Ticks_Phase_8,274,5,42,127,1080941920
488,22,Ticks_Phase_8,275,1,48,70,1080958364
488,22,Ticks_Phase_8,276,5,42,127,1081741704
488,22,Ticks_Phase_8,277,1,48,78,1081752840
488,22,Ticks_Phase_8,278,1,48,69,1082475628
488,22,Ticks_Phase_8,279,5,42,127,1082541656
488,22,Ticks_Phase_8,280,1,48,83,1083291440
488,22,Ticks_Phase_8,281,5,42,127,1083342264
488,22,Ticks_Phase_8,282,1,48,92,1084048308
488,22,Ticks_Phase_8,283,5,42,127,1084141976
488,22,Ticks_Phase_8,284,1,48,103,1084824664
488,22,Ticks_Phase_8,285,5,42,127,1084941824
488,22,Ticks_Phase_8,286,1,48,89,1085636448
488,22,Ticks_Phase_8,287,5,42,127,1085741460
488,22,Ticks_Phase_8,288,1,48,93,1086428968
488,22,Ticks_Phase_8,289,5,42,127,1086542292
488,22,Ticks_Phase_8,290,1,48,99,1087240972
488,22,Ticks_Phase_8,291,5,42,127,1087342304
488,22,Ticks_Phase_8,292,1,48,86,1088080224
488,22,Ticks_Phase_8,293,5,42,127,1088141804
488,22,Ticks_Phase_8,294,5,42,127,1088941476
488,22,Ticks_Phase_8,295,1,48,78,1088977096
488,22,Ticks_Phase_8,296,5,42,127,1089742308
488,22,Ticks_Phase_8,297,1,48,90,1089765572
488,22,Ticks_Phase_8,298,1,48,83,1090539900
488,22,Ticks_Phase_8,299,5,42,127,1090541936
488,22,Ticks_Phase_8,300,5,42,127,1091341656
488,22,Ticks_Phase_8,301,1,48,70,1091362748
488,22,Ticks_Phase_8,302,5,42,127,1092141444
488,22,Ticks_Phase_8,303,1,48,83,1092178184
488,22,Ticks_Phase_8,304,5,42,127,1092781420
488,22,Ticks_Phase_8,305,1,48,88,1092972584
488,22,Ticks_Phase_8,306,1,48,59,1093444172
488,22,Ticks_Phase_8,307,5,42,127,1093582080
488,22,Ticks_Phase_8,308,5,42,127,1094381888
488,22,Ticks_Phase_8,309,1,48,56,1094445216
488,22,Ticks_Phase_8,310,1,48,59,1095143600
488,22,Ticks_Phase_8,311,5,42,127,1095181668
488,22,Ticks_Phase_8,312,1,48,77,1095838812
488,22,Ticks_Phase_8,313,5,42,127,1095981488
488,22,Ticks_Phase_8,314,1,48,84,1096667800
488,22,Ticks_Phase_8,315,5,42,127,1096782172
488,22,Ticks_Phase_8,316,1,48,67,1097412180
488,22,Ticks_Phase_8,317,5,42,127,1097582108
488,22,Ticks_Phase_8,318,1,48,75,1098304224
488,22,Ticks_Phase_8,319,1,38,18,1098314088
488,22,Ticks_Phase_8,320,5,42,127,1098381668
488,22,Ticks_Phase_8,321,1,48,92,1099059796
488,22,Ticks_Phase_8,322,1,38,20,1099070184
488,22,Ticks_Phase_8,323,5,42,127,1099181340
488,22,Ticks_Phase_8,324,1,48,84,1099859832
488,22,Ticks_Phase_8,325,1,38,19,1099869716
488,22,Ticks_Phase_8,326,5,42,127,1099982272
488,22,Ticks_Phase_8,327,1,48,94,1100624456
488,22,Ticks_Phase_8,328,1,38,20,1100634400
488,22,Ticks_Phase_8,329,5,42,127,1100781864
488,22,Ticks_Phase_8,330,1,48,74,1101472076
488,22,Ticks_Phase_8,331,5,42,127,1101581648
488,22,Ticks_Phase_8,332,1,48,76,1102320844
488,22,Ticks_Phase_8,333,5,42,127,1102381300
488,22,Ticks_Phase_8,334,1,48,83,1103067672
488,22,Ticks_Phase_8,335,5,42,127,1103182044
488,22,Ticks_Phase_8,336,1,48,50,1103924076
488,22,Ticks_Phase_8,337,5,42,127,1103981996
488,22,Ticks_Phase_8,338,1,48,94,1104780884
488,22,Ticks_Phase_8,339,5,42,127,1104782752
488,22,Ticks_Phase_8,340,1,38,21,1104791648
488,22,Ticks_Phase_8,341,5,42,127,1105581488
488,22,Ticks_Phase_8,342,1,48,73,1105604452
488,22,Ticks_Phase_8,343,1,38,19,1105614320
488,22,Ticks_Phase_8,344,1,48,88,1106356172
488,22,Ticks_Phase_8,345,5,42,127,1106382192
488,22,Ticks_Phase_8,346,1,48,90,1107144428
488,22,Ticks_Phase_8,347,1,38,20,1107154372
488,22,Ticks_Phase_8,348,5,42,127,1107181884
488,22,Ticks_Phase_8,349,1,48,98,1107947764
488,22,Ticks_Phase_8,350,1,38,21,1107957624
488,22,Ticks_Phase_8,351,5,42,127,1107981772
488,22,Ticks_Phase_8,0,9999,9999,9999,972779616
488,22,Ticks_Phase_8,1,9999,9999,9999,973579328
488,22,Ticks_Phase_8,2,9999,9999,9999,974379112
488,22,Ticks_Phase_8,3,9999,9999,9999,975179848
488,22,Ticks_Phase_8,4,9999,9999,9999,975979636
488,22,Ticks_Phase_8,5,9999,9999,9999,976779348
488,22,Ticks_Phase_8,6,9999,9999,9999,977579152
488,22,Ticks_Phase_8,7,9999,9999,9999,978379836
488,22,Ticks_Phase_8,8,9999,9999,9999,979179620
488,22,Ticks_Phase_8,9,9999,9999,9999,979979332
488,22,Ticks_Phase_8,10,9999,9999,9999,980779120
488,22,Ticks_Phase_8,11,9999,9999,9999,981579876
488,22,Ticks_Phase_8,12,9999,9999,9999,982379592
488,22,Ticks_Phase_8,13,9999,9999,9999,983179384
488,22,Ticks_Phase_8,14,9999,9999,9999,983979120
488,22,Ticks_Phase_8,15,9999,9999,9999,984779880
488,22,Ticks_Phase_8,16,9999,9999,9999,985579588
488,22,Ticks_Phase_8,17,9999,9999,9999,986379376
488,22,Ticks_Phase_8,18,9999,9999,9999,987179088
488,22,Ticks_Phase_8,19,9999,9999,9999,987979844
488,22,Ticks_Phase_8,20,9999,9999,9999,988779632
488,22,Ticks_Phase_8,21,9999,9999,9999,989579344
488,22,Ticks_Phase_8,22,9999,9999,9999,990379080
488,22,Ticks_Phase_8,23,9999,9999,9999,991179832
488,22,Ticks_Phase_8,24,9999,9999,9999,991979624
488,22,Ticks_Phase_8,25,9999,9999,9999,992779332
488,22,Ticks_Phase_8,26,9999,9999,9999,993579116
488,22,Ticks_Phase_8,27,9999,9999,9999,994379884
488,22,Ticks_Phase_8,28,9999,9999,9999,995179588
488,22,Ticks_Phase_8,29,9999,9999,9999,995979372
488,22,Ticks_Phase_8,30,9999,9999,9999,996759616
488,22,Ticks_Phase_8,31,9999,9999,9999,997559360
488,22,Ticks_Phase_8,32,9999,9999,9999,998359144
488,22,Ticks_Phase_8,33,9999,9999,9999,999159904
488,22,Ticks_Phase_8,34,9999,9999,9999,999959616
488,22,Ticks_Phase_8,35,9999,9999,9999,1000759396
488,22,Ticks_Phase_8,36,9999,9999,9999,1001559108
488,22,Ticks_Phase_8,37,9999,9999,9999,1002359864
488,22,Ticks_Phase_8,38,9999,9999,9999,1003159652
488,22,Ticks_Phase_8,39,9999,9999,9999,1003959396
488,22,Ticks_Phase_8,40,9999,9999,9999,1004759108
488,22,Ticks_Phase_8,41,9999,9999,9999,1005559864
488,22,Ticks_Phase_8,42,9999,9999,9999,1006359652
488,22,Ticks_Phase_8,43,9999,9999,9999,1007159360
488,22,Ticks_Phase_8,44,9999,9999,9999,1007959140
488,22,Ticks_Phase_8,45,9999,9999,9999,1008759900
488,22,Ticks_Phase_8,46,9999,9999,9999,1009559616
488,22,Ticks_Phase_8,47,9999,9999,9999,1010359352
488,22,Ticks_Phase_8,48,9999,9999,9999,1011179580
488,22,Ticks_Phase_8,49,9999,9999,9999,1011979372
488,22,Ticks_Phase_8,50,9999,9999,9999,1012779088
488,22,Ticks_Phase_8,51,9999,9999,9999,1013579844
488,22,Ticks_Phase_8,52,9999,9999,9999,1014379632
488,22,Ticks_Phase_8,53,9999,9999,9999,1015179340
488,22,Ticks_Phase_8,54,9999,9999,9999,1015979080
488,22,Ticks_Phase_8,55,9999,9999,9999,1016779832
488,22,Ticks_Phase_8,56,9999,9999,9999,1017579620
488,22,Ticks_Phase_8,57,9999,9999,9999,1018379332
488,22,Ticks_Phase_8,58,9999,9999,9999,1019179116
488,22,Ticks_Phase_8,59,9999,9999,9999,1019979876
488,22,Ticks_Phase_8,60,9999,9999,9999,1020779588
488,22,Ticks_Phase_8,61,9999,9999,9999,1021579348
488,22,Ticks_Phase_8,62,9999,9999,9999,1022379088
488,22,Ticks_Phase_8,63,9999,9999,9999,1023179844
488,22,Ticks_Phase_8,64,9999,9999,9999,1024019548
488,22,Ticks_Phase_8,65,9999,9999,9999,1024819260
488,22,Ticks_Phase_8,66,9999,9999,9999,1025620092
488,22,Ticks_Phase_8,67,9999,9999,9999,1026419804
488,22,Ticks_Phase_8,68,9999,9999,9999,1027219520
488,22,Ticks_Phase_8,69,9999,9999,9999,1028019256
488,22,Ticks_Phase_8,70,9999,9999,9999,1028820092
488,22,Ticks_Phase_8,71,9999,9999,9999,1029619800
488,22,Ticks_Phase_8,72,9999,9999,9999,1030419512
488,22,Ticks_Phase_8,73,9999,9999,9999,1031219304
488,22,Ticks_Phase_8,74,9999,9999,9999,1032020056
488,22,Ticks_Phase_8,75,9999,9999,9999,1032819768
488,22,Ticks_Phase_8,76,9999,9999,9999,1033619556
488,22,Ticks_Phase_8,77,9999,9999,9999,1034419292
488,22,Ticks_Phase_8,78,9999,9999,9999,1035220052
488,22,Ticks_Phase_8,79,9999,9999,9999,1036019836
488,22,Ticks_Phase_8,80,9999,9999,9999,1036819548
488,22,Ticks_Phase_8,81,9999,9999,9999,1037579348
488,22,Ticks_Phase_8,82,9999,9999,9999,1038379064
488,22,Ticks_Phase_8,83,9999,9999,9999,1039179900
488,22,Ticks_Phase_8,84,9999,9999,9999,1039979612
488,22,Ticks_Phase_8,85,9999,9999,9999,1040779324
488,22,Ticks_Phase_8,86,9999,9999,9999,1041579128
488,22,Ticks_Phase_8,87,9999,9999,9999,1042379892
488,22,Ticks_Phase_8,88,9999,9999,9999,1043179604
488,22,Ticks_Phase_8,89,9999,9999,9999,1043979392
488,22,Ticks_Phase_8,90,9999,9999,9999,1044779096
488,22,Ticks_Phase_8,91,9999,9999,9999,1045579860
488,22,Ticks_Phase_8,92,9999,9999,9999,1046379576
488,22,Ticks_Phase_8,93,9999,9999,9999,1047179360
488,22,Ticks_Phase_8,94,9999,9999,9999,1047979092
488,22,Ticks_Phase_8,95,9999,9999,9999,1048779852
488,22,Ticks_Phase_8,96,9999,9999,9999,1049579636
488,22,Ticks_Phase_8,97,9999,9999,9999,1050299452
488,22,Ticks_Phase_8,98,9999,9999,9999,1051099236
488,22,Ticks_Phase_8,99,9999,9999,9999,1051899992
488,22,Ticks_Phase_8,100,9999,9999,9999,1052699776
488,22,Ticks_Phase_8,101,9999,9999,9999,1053499488
488,22,Ticks_Phase_8,102,9999,9999,9999,1054299200
488,22,Ticks_Phase_8,103,9999,9999,9999,1055099956
488,22,Ticks_Phase_8,104,9999,9999,9999,1055899744
488,22,Ticks_Phase_8,105,9999,9999,9999,1056699480
488,22,Ticks_Phase_8,106,9999,9999,9999,1057499192
488,22,Ticks_Phase_8,107,9999,9999,9999,1058299960
488,22,Ticks_Phase_8,108,9999,9999,9999,1059099744
488,22,Ticks_Phase_8,109,9999,9999,9999,1059899456
488,22,Ticks_Phase_8,110,9999,9999,9999,1060699240
488,22,Ticks_Phase_8,111,9999,9999,9999,1061500000
488,22,Ticks_Phase_8,112,9999,9999,9999,1062299712
488,22,Ticks_Phase_8,113,9999,9999,9999,1063099448
488,22,Ticks_Phase_8,114,9999,9999,9999,1063979128
488,22,Ticks_Phase_8,115,9999,9999,9999,1064779872
488,22,Ticks_Phase_8,116,9999,9999,9999,1065579600
488,22,Ticks_Phase_8,117,9999,9999,9999,1066379384
488,22,Ticks_Phase_8,118,9999,9999,9999,1067179120
488,22,Ticks_Phase_8,119,9999,9999,9999,1067979880
488,22,Ticks_Phase_8,120,9999,9999,9999,1068779592
488,22,Ticks_Phase_8,121,9999,9999,9999,1069579380
488,22,Ticks_Phase_8,122,9999,9999,9999,1070379092
488,22,Ticks_Phase_8,123,9999,9999,9999,1071179852
488,22,Ticks_Phase_8,124,9999,9999,9999,1071979644
488,22,Ticks_Phase_8,125,9999,9999,9999,1072779376
488,22,Ticks_Phase_8,126,9999,9999,9999,1073579120
488,22,Ticks_Phase_8,127,9999,9999,9999,1074379880
488,22,Ticks_Phase_8,128,9999,9999,9999,1075179592
488,22,Ticks_Phase_8,129,9999,9999,9999,1075979328
488,22,Ticks_Phase_8,130,9999,9999,9999,1076779116
488,22,Ticks_Phase_8,131,9999,9999,9999,1077739640
488,22,Ticks_Phase_8,132,9999,9999,9999,1078539376
488,22,Ticks_Phase_8,133,9999,9999,9999,1079339088
488,22,Ticks_Phase_8,134,9999,9999,9999,1080139844
488,22,Ticks_Phase_8,135,9999,9999,9999,1080939632
488,22,Ticks_Phase_8,136,9999,9999,9999,1081739344
488,22,Ticks_Phase_8,137,9999,9999,9999,1082539072
488,22,Ticks_Phase_8,138,9999,9999,9999,1083339832
488,22,Ticks_Phase_8,139,9999,9999,9999,1084139616
488,22,Ticks_Phase_8,140,9999,9999,9999,1084939388
488,22,Ticks_Phase_8,141,9999,9999,9999,1085739100
488,22,Ticks_Phase_8,142,9999,9999,9999,1086539856
488,22,Ticks_Phase_8,143,9999,9999,9999,1087339644
488,22,Ticks_Phase_8,144,9999,9999,9999,1088139372
488,22,Ticks_Phase_8,145,9999,9999,9999,1088939116
488,22,Ticks_Phase_8,146,9999,9999,9999,1089739872
488,22,Ticks_Phase_8,147,9999,9999,9999,1090539616
488,22,Ticks_Phase_8,148,9999,9999,9999,1091339368
488,22,Ticks_Phase_8,149,9999,9999,9999,1092139080
488,22,Ticks_Phase_8,150,9999,9999,9999,1092779132
488,22,Ticks_Phase_8,151,9999,9999,9999,1093579868
488,22,Ticks_Phase_8,152,9999,9999,9999,1094379604
488,22,Ticks_Phase_8,153,9999,9999,9999,1095179384
488,22,Ticks_Phase_8,154,9999,9999,9999,1095979128
488,22,Ticks_Phase_8,155,9999,9999,9999,1096779888
488,22,Ticks_Phase_8,156,9999,9999,9999,1097579600
488,22,Ticks_Phase_8,157,9999,9999,9999,1098379380
488,22,Ticks_Phase_8,158,9999,9999,9999,1099179128
488,22,Ticks_Phase_8,159,9999,9999,9999,1099979840
488,22,Ticks_Phase_8,160,9999,9999,9999,1100779576
488,22,Ticks_Phase_8,161,9999,9999,9999,1101579360
488,22,Ticks_Phase_8,162,9999,9999,9999,1102379088
488,22,Ticks_Phase_8,163,9999,9999,9999,1103179832
488,22,Ticks_Phase_8,164,9999,9999,9999,1103979636
488,22,Ticks_Phase_8,165,9999,9999,9999,1104779352
488,22,Ticks_Phase_8,166,9999,9999,9999,1105579128
488,22,Ticks_Phase_8,167,9999,9999,9999,1106379832
488,22,Ticks_Phase_8,168,9999,9999,9999,1107179600
488,22,Ticks_Phase_8,169,9999,9999,9999,1107979340
489,21,Ticks_Linear_5,0,5,42,127,1118718360
489,21,Ticks_Linear_5,1,5,42,127,1119197712
489,21,Ticks_Linear_5,2,5,42,127,1119677816
489,21,Ticks_Linear_5,3,1,48,89,1119751552
489,21,Ticks_Linear_5,4,5,42,127,1120158192
489,21,Ticks_Linear_5,5,1,48,69,1120223164
489,21,Ticks_Linear_5,6,5,42,127,1120638544
489,21,Ticks_Linear_5,7,1,48,87,1120722268
489,21,Ticks_Linear_5,8,5,42,127,1121127840
489,21,Ticks_Linear_5,9,1,48,79,1121191860
489,21,Ticks_Linear_5,10,5,42,127,1121618548
489,21,Ticks_Linear_5,11,1,48,83,1121675284
489,21,Ticks_Linear_5,12,5,42,127,1122107692
489,21,Ticks_Linear_5,13,1,48,70,1122135068
489,21,Ticks_Linear_5,14,5,42,127,1122598552
489,21,Ticks_Linear_5,15,1,48,86,1122648928
489,21,Ticks_Linear_5,16,5,42,127,1123087620
489,21,Ticks_Linear_5,17,1,48,85,1123120396
489,21,Ticks_Linear_5,18,5,42,127,1123587472
489,21,Ticks_Linear_5,19,1,48,95,1123632968
489,21,Ticks_Linear_5,20,5,42,127,1124088364
489,21,Ticks_Linear_5,21,1,48,102,1124130724
489,21,Ticks_Linear_5,22,5,42,127,1124587768
489,21,Ticks_Linear_5,23,1,48,66,1124622708
489,21,Ticks_Linear_5,24,5,42,127,1125087540
489,21,Ticks_Linear_5,25,1,48,86,1125138444
489,21,Ticks_Linear_5,26,1,38,19,1125148304
489,21,Ticks_Linear_5,27,5,42,127,1125588312
489,21,Ticks_Linear_5,28,1,48,74,1125631644
489,21,Ticks_Linear_5,29,1,38,18,1125641660
489,21,Ticks_Linear_5,30,5,42,127,1126098448
489,21,Ticks_Linear_5,31,1,48,91,1126151368
489,21,Ticks_Linear_5,32,5,42,127,1126608480
489,21,Ticks_Linear_5,33,1,48,101,1126652412
489,21,Ticks_Linear_5,34,5,42,127,1127118144
489,21,Ticks_Linear_5,35,1,48,69,1127181020
489,21,Ticks_Linear_5,36,5,42,127,1127628324
489,21,Ticks_Linear_5,37,1,48,65,1127733960
489,21,Ticks_Linear_5,38,5,42,127,1128138284
489,21,Ticks_Linear_5,39,1,48,71,1128200268
489,21,Ticks_Linear_5,40,5,42,127,1128658204
489,21,Ticks_Linear_5,41,1,48,89,1128701532
489,21,Ticks_Linear_5,42,5,42,127,1129177448
489,21,Ticks_Linear_5,43,1,48,78,1129247224
489,21,Ticks_Linear_5,44,5,42,127,1129697592
489,21,Ticks_Linear_5,45,1,48,78,1129750208
489,21,Ticks_Linear_5,46,5,42,127,1130217736
489,21,Ticks_Linear_5,47,1,48,74,1130245572
489,21,Ticks_Linear_5,48,5,42,127,1130738328
489,21,Ticks_Linear_5,49,1,48,75,1130837236
489,21,Ticks_Linear_5,50,5,42,127,1131267384
489,21,Ticks_Linear_5,51,1,48,87,1131301280
489,21,Ticks_Linear_5,52,5,42,127,1131798160
489,21,Ticks_Linear_5,53,1,48,70,1131809520
489,21,Ticks_Linear_5,54,5,42,127,1132328264
489,21,Ticks_Linear_5,55,1,48,80,1132375648
489,21,Ticks_Linear_5,56,5,42,127,1132857920
489,21,Ticks_Linear_5,57,1,48,75,1132912784
489,21,Ticks_Linear_5,58,5,42,127,1133388024
489,21,Ticks_Linear_5,59,1,48,86,1133391144
489,21,Ticks_Linear_5,60,5,42,127,1133928012
489,21,Ticks_Linear_5,61,1,48,83,1133982376
489,21,Ticks_Linear_5,62,5,42,127,1134467476
489,21,Ticks_Linear_5,63,1,48,75,1134474412
489,21,Ticks_Linear_5,64,5,42,127,1135008088
489,21,Ticks_Linear_5,65,1,48,71,1135024904
489,21,Ticks_Linear_5,66,5,42,127,1135547704
489,21,Ticks_Linear_5,67,1,48,53,1135552768
489,21,Ticks_Linear_5,68,1,38,17,1135567804
489,21,Ticks_Linear_5,69,1,48,57,1136078016
489,21,Ticks_Linear_5,70,5,42,127,1136088312
489,21,Ticks_Linear_5,71,1,38,16,1136093072
489,21,Ticks_Linear_5,72,1,48,75,1136634060
489,21,Ticks_Linear_5,73,5,42,127,1136647440
489,21,Ticks_Linear_5,74,1,48,98,1137164012
489,21,Ticks_Linear_5,75,5,42,127,1137197388
489,21,Ticks_Linear_5,76,1,48,78,1137705348
489,21,Ticks_Linear_5,77,5,42,127,1137748308
489,21,Ticks_Linear_5,78,1,48,82,1138275140
489,21,Ticks_Linear_5,79,5,42,127,1138298332
489,21,Ticks_Linear_5,80,1,48,80,1138808032
489,21,Ticks_Linear_5,81,1,38,19,1138817968
489,21,Ticks_Linear_5,82,5,42,127,1138848140
489,21,Ticks_Linear_5,83,1,48,88,1139358628
489,21,Ticks_Linear_5,84,1,38,20,1139368496
489,21,Ticks_Linear_5,85,5,42,127,1139408152
489,21,Ticks_Linear_5,86,1,48,60,1139905076
489,21,Ticks_Linear_5,87,5,42,127,1139968256
489,21,Ticks_Linear_5,88,1,48,73,1140469708
489,21,Ticks_Linear_5,89,5,42,127,1140527568
489,21,Ticks_Linear_5,90,1,48,87,1141030296
489,21,Ticks_Linear_5,91,1,38,19,1141040084
489,21,Ticks_Linear_5,92,5,42,127,1141087680
489,21,Ticks_Linear_5,93,1,48,117,1141590232
489,21,Ticks_Linear_5,94,5,42,127,1141647936
489,21,Ticks_Linear_5,95,1,48,100,1142153876
489,21,Ticks_Linear_5,96,1,38,21,1142163820
489,21,Ticks_Linear_5,97,5,42,127,1142217960
489,21,Ticks_Linear_5,98,1,48,92,1142725592
489,21,Ticks_Linear_5,99,5,42,127,1142787352
489,21,Ticks_Linear_5,100,1,48,94,1143305364
489,21,Ticks_Linear_5,101,1,38,23,1143315288
489,21,Ticks_Linear_5,102,5,42,127,1143358024
489,21,Ticks_Linear_5,103,1,48,100,1143910452
489,21,Ticks_Linear_5,104,5,42,127,1143928164
489,21,Ticks_Linear_5,105,1,48,88,1144488880
489,21,Ticks_Linear_5,106,5,42,127,1144497536
489,21,Ticks_Linear_5,107,5,42,127,1145078120
489,21,Ticks_Linear_5,108,1,48,92,1145093064
489,21,Ticks_Linear_5,109,1,48,80,1145641796
489,21,Ticks_Linear_5,110,5,42,127,1145657792
489,21,Ticks_Linear_5,111,5,42,127,1146238524
489,21,Ticks_Linear_5,112,1,48,109,1146265524
489,21,Ticks_Linear_5,113,5,42,127,1146817780
489,21,Ticks_Linear_5,114,1,48,73,1146826592
489,21,Ticks_Linear_5,115,1,38,18,1146836536
489,21,Ticks_Linear_5,116,5,42,127,1147397860
489,21,Ticks_Linear_5,117,1,48,92,1147425608
489,21,Ticks_Linear_5,118,1,38,21,1147435640
489,21,Ticks_Linear_5,119,5,42,127,1147988204
489,21,Ticks_Linear_5,120,1,48,105,1148013556
489,21,Ticks_Linear_5,121,1,38,23,1148023424
489,21,Ticks_Linear_5,122,5,42,127,1148578268
489,21,Ticks_Linear_5,123,1,48,74,1148610596
489,21,Ticks_Linear_5,124,5,42,127,1149168132
489,21,Ticks_Linear_5,125,1,48,94,1149208472
489,21,Ticks_Linear_5,126,5,42,127,1149757772
489,21,Ticks_Linear_5,127,1,48,103,1149766288
489,21,Ticks_Linear_5,128,1,38,22,1149776304
489,21,Ticks_Linear_5,129,1,48,84,1150332632
489,21,Ticks_Linear_5,130,1,38,20,1150342576
489,21,Ticks_Linear_5,131,5,42,127,1150347788
489,21,Ticks_Linear_5,132,5,42,127,1150947692
489,21,Ticks_Linear_5,133,1,48,107,1150951328
489,21,Ticks_Linear_5,134,1,38,23,1150961272
489,21,Ticks_Linear_5,135,1,48,91,1151526528
489,21,Ticks_Linear_5,136,1,38,21,1151536692
489,21,Ticks_Linear_5,137,5,42,127,1151547740
489,21,Ticks_Linear_5,138,1,48,94,1152114308
489,21,Ticks_Linear_5,139,1,38,22,1152124400
489,21,Ticks_Linear_5,140,5,42,127,1152147816
489,21,Ticks_Linear_5,141,1,48,86,1152708356
489,21,Ticks_Linear_5,142,1,38,21,1152718300
489,21,Ticks_Linear_5,143,5,42,127,1152747844
489,21,Ticks_Linear_5,144,1,48,95,1153295780
489,21,Ticks_Linear_5,145,5,42,127,1153347864
489,21,Ticks_Linear_5,146,1,48,114,1153897324
489,21,Ticks_Linear_5,147,1,38,25,1153907416
489,21,Ticks_Linear_5,148,5,42,127,1153958400
489,21,Ticks_Linear_5,149,1,48,87,1154464092
489,21,Ticks_Linear_5,150,5,42,127,1154567472
489,21,Ticks_Linear_5,151,1,48,91,1155092824
489,21,Ticks_Linear_5,152,5,42,127,1155177720
489,21,Ticks_Linear_5,153,1,48,88,1155697828
489,21,Ticks_Linear_5,154,1,38,21,1155707168
489,21,Ticks_Linear_5,155,5,42,127,1155788108
489,21,Ticks_Linear_5,156,1,48,92,1156343596
489,21,Ticks_Linear_5,157,5,42,127,1156397492
489,21,Ticks_Linear_5,158,1,48,79,1157002208
489,21,Ticks_Linear_5,159,5,42,127,1157017984
489,21,Ticks_Linear_5,160,1,48,73,1157630444
489,21,Ticks_Linear_5,161,5,42,127,1157637600
489,21,Ticks_Linear_5,162,1,38,21,1157640720
489,21,Ticks_Linear_5,163,5,42,127,1158258512
489,21,Ticks_Linear_5,164,1,48,82,1158300900
489,21,Ticks_Linear_5,165,5,42,127,1158877536
489,21,Ticks_Linear_5,166,1,48,116,1158924980
489,21,Ticks_Linear_5,167,1,38,24,1158934548
489,21,Ticks_Linear_5,168,5,42,127,1159497980
489,21,Ticks_Linear_5,169,1,48,90,1159502740
489,21,Ticks_Linear_5,170,1,38,20,1159512684
489,21,Ticks_Linear_5,171,5,42,127,1160127884
489,21,Ticks_Linear_5,172,1,48,70,1160183272
489,21,Ticks_Linear_5,173,5,42,127,1160757592
489,21,Ticks_Linear_5,174,1,48,83,1160802792
489,21,Ticks_Linear_5,175,5,42,127,1161388440
489,21,Ticks_Linear_5,176,1,48,92,1161438964
489,21,Ticks_Linear_5,177,1,38,20,1161448904
489,21,Ticks_Linear_5,178,5,42,127,1162018392
489,21,Ticks_Linear_5,179,1,48,86,1162069592
489,21,Ticks_Linear_5,180,5,42,127,1162647800
489,21,Ticks_Linear_5,181,1,48,86,1162713992
489,21,Ticks_Linear_5,182,1,38,21,1162723860
489,21,Ticks_Linear_5,183,1,48,78,1163280876
489,21,Ticks_Linear_5,184,5,42,127,1163287956
489,21,Ticks_Linear_5,185,1,38,21,1163291224
489,21,Ticks_Linear_5,186,5,42,127,1163928040
489,21,Ticks_Linear_5,187,1,48,80,1163949088
489,21,Ticks_Linear_5,188,1,38,19,1163958356
489,21,Ticks_Linear_5,189,5,42,127,1164567984
489,21,Ticks_Linear_5,190,1,48,85,1164582704
489,21,Ticks_Linear_5,191,1,38,21,1164592200
489,21,Ticks_Linear_5,192,5,42,127,1165208124
489,21,Ticks_Linear_5,193,1,48,76,1165251552
489,21,Ticks_Linear_5,194,1,38,19,1165261348
489,21,Ticks_Linear_5,195,5,42,127,1165848212
489,21,Ticks_Linear_5,196,1,48,86,1165895900
489,21,Ticks_Linear_5,197,1,38,19,1165905748
489,21,Ticks_Linear_5,198,5,42,127,1166498264
489,21,Ticks_Linear_5,199,1,48,95,1166519956
489,21,Ticks_Linear_5,200,1,38,21,1166529372
489,21,Ticks_Linear_5,201,5,42,127,1167148364
489,21,Ticks_Linear_5,202,1,48,88,1167178520
489,21,Ticks_Linear_5,203,5,42,127,1167797640
489,21,Ticks_Linear_5,204,1,48,86,1167844788
489,21,Ticks_Linear_5,205,5,42,127,1168448012
489,21,Ticks_Linear_5,206,1,48,83,1168480340
489,21,Ticks_Linear_5,207,5,42,127,1169098112
489,21,Ticks_Linear_5,208,1,48,95,1169101304
489,21,Ticks_Linear_5,209,5,42,127,1169757620
489,21,Ticks_Linear_5,210,1,48,111,1169830264
489,21,Ticks_Linear_5,211,1,38,23,1169840124
489,21,Ticks_Linear_5,212,5,42,127,1170418008
489,21,Ticks_Linear_5,213,1,48,82,1170431980
489,21,Ticks_Linear_5,214,1,48,84,1171069084
489,21,Ticks_Linear_5,215,5,42,127,1171077360
489,21,Ticks_Linear_5,216,1,48,71,1171724188
489,21,Ticks_Linear_5,217,5,42,127,1171738016
489,21,Ticks_Linear_5,218,5,42,127,1172397336
489,21,Ticks_Linear_5,219,1,48,71,1172400232
489,21,Ticks_Linear_5,220,1,38,17,1172410316
489,21,Ticks_Linear_5,221,1,48,87,1173028812
489,21,Ticks_Linear_5,222,5,42,127,1173068172
489,21,Ticks_Linear_5,223,1,48,81,1173704964
489,21,Ticks_Linear_5,224,5,42,127,1173738112
489,21,Ticks_Linear_5,225,1,48,88,1174388372
489,21,Ticks_Linear_5,226,1,38,20,1174398536
489,21,Ticks_Linear_5,227,5,42,127,1174407416
489,21,Ticks_Linear_5,228,1,48,80,1175021944
489,21,Ticks_Linear_5,229,1,38,19,1175032480
489,21,Ticks_Linear_5,230,5,42,127,1175078208
489,21,Ticks_Linear_5,231,1,48,103,1175696312
489,21,Ticks_Linear_5,232,1,38,23,1175706512
489,21,Ticks_Linear_5,233,5,42,127,1175747896
489,21,Ticks_Linear_5,234,1,48,80,1176347276
489,21,Ticks_Linear_5,235,5,42,127,1176427892
489,21,Ticks_Linear_5,236,1,48,97,1177050244
489,21,Ticks_Linear_5,237,5,42,127,1177107872
489,21,Ticks_Linear_5,238,1,48,89,1177744340
489,21,Ticks_Linear_5,239,5,42,127,1177787924
489,21,Ticks_Linear_5,240,1,48,89,1178409720
489,21,Ticks_Linear_5,241,1,38,20,1178419664
489,21,Ticks_Linear_5,242,5,42,127,1178468004
489,21,Ticks_Linear_5,243,1,48,77,1179085228
489,21,Ticks_Linear_5,244,1,38,20,1179095184
489,21,Ticks_Linear_5,245,5,42,127,1179147864
489,21,Ticks_Linear_5,246,1,48,69,1179755788
489,21,Ticks_Linear_5,247,1,38,17,1179765708
489,21,Ticks_Linear_5,248,5,42,127,1179837680
489,21,Ticks_Linear_5,249,1,48,62,1180479968
489,21,Ticks_Linear_5,250,5,42,127,1180527864
489,21,Ticks_Linear_5,251,1,48,70,1181153124
489,21,Ticks_Linear_5,252,5,42,127,1181218028
489,21,Ticks_Linear_5,253,1,48,103,1181819604
489,21,Ticks_Linear_5,254,1,38,21,1181829548
489,21,Ticks_Linear_5,255,5,42,127,1181908244
489,21,Ticks_Linear_5,256,1,48,100,1182525076
489,21,Ticks_Linear_5,257,5,42,127,1182597692
489,21,Ticks_Linear_5,258,1,48,99,1183225204
489,21,Ticks_Linear_5,259,5,42,127,1183297892
489,21,Ticks_Linear_5,260,1,48,70,1183925328
489,21,Ticks_Linear_5,261,5,42,127,1183998388
489,21,Ticks_Linear_5,262,1,48,100,1184643920
489,21,Ticks_Linear_5,263,1,38,21,1184653788
489,21,Ticks_Linear_5,264,5,42,127,1184697820
489,21,Ticks_Linear_5,265,1,48,81,1185330896
489,21,Ticks_Linear_5,266,5,42,127,1185398192
489,21,Ticks_Linear_5,267,1,48,84,1186064940
489,21,Ticks_Linear_5,268,5,42,127,1186097712
489,21,Ticks_Linear_5,269,1,48,75,1186784980
489,21,Ticks_Linear_5,270,5,42,127,1186808096
489,21,Ticks_Linear_5,271,1,48,85,1187474072
489,21,Ticks_Linear_5,272,1,38,20,1187484276
489,21,Ticks_Linear_5,273,5,42,127,1187517800
489,21,Ticks_Linear_5,274,1,48,92,1188142708
489,21,Ticks_Linear_5,275,1,38,21,1188152576
489,21,Ticks_Linear_5,276,5,42,127,1188227736
489,21,Ticks_Linear_5,277,1,48,80,1188888248
489,21,Ticks_Linear_5,278,5,42,127,1188938088
489,21,Ticks_Linear_5,279,1,48,63,1189611584
489,21,Ticks_Linear_5,280,5,42,127,1189647724
489,21,Ticks_Linear_5,281,1,48,89,1190351176
489,21,Ticks_Linear_5,282,5,42,127,1190367620
489,21,Ticks_Linear_5,283,1,48,82,1191076992
489,21,Ticks_Linear_5,284,1,38,19,1191086972
489,21,Ticks_Linear_5,285,5,42,127,1191089364
489,21,Ticks_Linear_5,286,5,42,127,1191808612
489,21,Ticks_Linear_5,287,1,48,92,1191813000
489,21,Ticks_Linear_5,288,5,42,127,1192528356
489,21,Ticks_Linear_5,289,1,48,86,1192580600
489,21,Ticks_Linear_5,290,5,42,127,1193248100
489,21,Ticks_Linear_5,291,1,48,86,1193261628
489,21,Ticks_Linear_5,292,1,48,89,1193930572
489,21,Ticks_Linear_5,293,5,42,127,1193978468
489,21,Ticks_Linear_5,294,1,48,66,1194673604
489,21,Ticks_Linear_5,295,5,42,127,1194708320
489,21,Ticks_Linear_5,296,1,48,89,1195419788
489,21,Ticks_Linear_5,297,1,38,21,1195429872
489,21,Ticks_Linear_5,298,5,42,127,1195437556
489,21,Ticks_Linear_5,299,1,48,106,1196126280
489,21,Ticks_Linear_5,300,1,38,21,1196135624
489,21,Ticks_Linear_5,301,5,42,127,1196167412
489,21,Ticks_Linear_5,302,1,48,60,1196867916
489,21,Ticks_Linear_5,303,1,38,17,1196877860
489,21,Ticks_Linear_5,304,5,42,127,1196897592
489,21,Ticks_Linear_5,305,1,48,74,1197621384
489,21,Ticks_Linear_5,306,5,42,127,1197638048
489,21,Ticks_Linear_5,307,1,48,77,1198305932
489,21,Ticks_Linear_5,308,1,38,19,1198315876
489,21,Ticks_Linear_5,309,5,42,127,1198378444
489,21,Ticks_Linear_5,310,1,48,97,1199077300
489,21,Ticks_Linear_5,311,1,38,22,1199087244
489,21,Ticks_Linear_5,312,5,42,127,1199117836
489,21,Ticks_Linear_5,313,1,48,72,1199813092
489,21,Ticks_Linear_5,314,1,38,21,1199822960
489,21,Ticks_Linear_5,315,5,42,127,1199857976
489,21,Ticks_Linear_5,316,1,48,92,1200505276
489,21,Ticks_Linear_5,317,1,38,20,1200515676
489,21,Ticks_Linear_5,318,5,42,127,1200598340
489,21,Ticks_Linear_5,319,1,48,71,1201216144
489,21,Ticks_Linear_5,320,1,38,18,1201225624
489,21,Ticks_Linear_5,321,5,42,127,1201348096
489,21,Ticks_Linear_5,322,1,48,69,1201992668
489,21,Ticks_Linear_5,323,1,38,17,1202002836
489,21,Ticks_Linear_5,324,5,42,127,1202097448
489,21,Ticks_Linear_5,325,1,48,101,1202820804
489,21,Ticks_Linear_5,326,1,38,24,1202830972
489,21,Ticks_Linear_5,327,5,42,127,1202848264
489,21,Ticks_Linear_5,328,5,42,127,1203597840
489,21,Ticks_Linear_5,329,1,48,84,1203606660
489,21,Ticks_Linear_5,330,1,38,21,1203617384
489,21,Ticks_Linear_5,331,1,48,52,1204340340
489,21,Ticks_Linear_5,332,5,42,127,1204348396
489,21,Ticks_Linear_5,333,1,38,16,1204351144
489,21,Ticks_Linear_5,334,1,48,56,1205099216
489,21,Ticks_Linear_5,335,5,42,127,1205108096
489,21,Ticks_Linear_5,336,1,48,89,1205835204
489,21,Ticks_Linear_5,337,1,38,21,1205845220
489,21,Ticks_Linear_5,338,5,42,127,1205867960
489,21,Ticks_Linear_5,339,1,48,76,1206582536
489,21,Ticks_Linear_5,340,5,42,127,1206628036
489,21,Ticks_Linear_5,341,1,48,90,1207323616
489,21,Ticks_Linear_5,342,1,38,23,1207333636
489,21,Ticks_Linear_5,343,5,42,127,1207387528
489,21,Ticks_Linear_5,344,1,48,83,1208052452
489,21,Ticks_Linear_5,345,1,38,22,1208061796
489,21,Ticks_Linear_5,346,5,42,127,1208149144
489,21,Ticks_Linear_5,347,1,48,61,1208784664
489,21,Ticks_Linear_5,348,1,38,18,1208793560
489,21,Ticks_Linear_5,349,5,42,127,1208918404
489,21,Ticks_Linear_5,350,1,48,73,1209545548
489,21,Ticks_Linear_5,351,1,38,19,1209555564
489,21,Ticks_Linear_5,352,5,42,127,1209688496
489,21,Ticks_Linear_5,353,1,48,74,1210326816
489,21,Ticks_Linear_5,354,1,38,21,1210336832
489,21,Ticks_Linear_5,355,5,42,127,1210467952
489,21,Ticks_Linear_5,356,1,48,86,1211088892
489,21,Ticks_Linear_5,357,1,38,22,1211098760
489,21,Ticks_Linear_5,358,5,42,127,1211237900
489,21,Ticks_Linear_5,359,1,48,86,1211942112
489,21,Ticks_Linear_5,360,1,38,19,1211951900
489,21,Ticks_Linear_5,361,5,42,127,1212007964
489,21,Ticks_Linear_5,362,1,48,90,1212703368
489,21,Ticks_Linear_5,363,5,42,127,1212787964
489,21,Ticks_Linear_5,364,1,48,90,1213492908
489,21,Ticks_Linear_5,365,5,42,127,1213568364
489,21,Ticks_Linear_5,366,1,48,88,1214275252
489,21,Ticks_Linear_5,367,1,38,20,1214285120
489,21,Ticks_Linear_5,368,5,42,127,1214347776
489,21,Ticks_Linear_5,369,1,48,65,1215035704
489,21,Ticks_Linear_5,370,1,38,18,1215045796
489,21,Ticks_Linear_5,371,5,42,127,1215128080
489,21,Ticks_Linear_5,372,1,48,98,1215776220
489,21,Ticks_Linear_5,373,1,38,21,1215786072
489,21,Ticks_Linear_5,374,5,42,127,1215908172
489,21,Ticks_Linear_5,375,1,48,71,1216589448
489,21,Ticks_Linear_5,376,1,38,18,1216599536
489,21,Ticks_Linear_5,377,5,42,127,1216697884
489,21,Ticks_Linear_5,378,1,48,86,1217407620
489,21,Ticks_Linear_5,379,1,38,21,1217418084
489,21,Ticks_Linear_5,380,5,42,127,1217488244
489,21,Ticks_Linear_5,381,1,48,60,1218252620
489,21,Ticks_Linear_5,382,1,38,16,1218262488
489,21,Ticks_Linear_5,383,5,42,127,1218277884
489,21,Ticks_Linear_5,384,1,48,62,1219057472
489,21,Ticks_Linear_5,385,5,42,127,1219068144
489,21,Ticks_Linear_5,386,1,48,69,1219834120
489,21,Ticks_Linear_5,387,1,38,19,1219844056
489,21,Ticks_Linear_5,388,5,42,127,1219857888
489,21,Ticks_Linear_5,389,1,48,67,1220639120
489,21,Ticks_Linear_5,390,5,42,127,1220657732
489,21,Ticks_Linear_5,391,5,42,127,1221458288
489,21,Ticks_Linear_5,392,1,48,65,1221469200
489,21,Ticks_Linear_5,393,1,38,17,1221479660
489,21,Ticks_Linear_5,394,5,42,127,1222257960
489,21,Ticks_Linear_5,395,1,48,59,1222304908
489,21,Ticks_Linear_5,396,5,42,127,1223057908
489,21,Ticks_Linear_5,397,1,48,77,1223108528
489,21,Ticks_Linear_5,398,1,38,18,1223119000
489,21,Ticks_Linear_5,399,1,48,62,1223842956
489,21,Ticks_Linear_5,400,1,38,17,1223852816
489,21,Ticks_Linear_5,401,5,42,127,1223857432
489,21,Ticks_Linear_5,402,1,48,78,1224601588
489,21,Ticks_Linear_5,403,1,38,18,1224612204
489,21,Ticks_Linear_5,404,5,42,127,1224667444
489,21,Ticks_Linear_5,405,1,48,84,1225342008
489,21,Ticks_Linear_5,406,1,38,19,1225352020
489,21,Ticks_Linear_5,407,5,42,127,1225477632
489,21,Ticks_Linear_5,408,1,48,72,1226172932
489,21,Ticks_Linear_5,409,5,42,127,1226287692
489,21,Ticks_Linear_5,410,1,48,83,1227015112
489,21,Ticks_Linear_5,411,1,38,19,1227024980
489,21,Ticks_Linear_5,412,5,42,127,1227097596
489,21,Ticks_Linear_5,413,1,48,62,1227791804
489,21,Ticks_Linear_5,414,1,38,17,1227802192
489,21,Ticks_Linear_5,415,5,42,127,1227907412
489,21,Ticks_Linear_5,0,9999,9999,9999,1118715984
489,21,Ticks_Linear_5,1,9999,9999,9999,1119195264
489,21,Ticks_Linear_5,2,9999,9999,9999,1119675512
489,21,Ticks_Linear_5,3,9999,9999,9999,1120155716
489,21,Ticks_Linear_5,4,9999,9999,9999,1120636020
489,21,Ticks_Linear_5,5,9999,9999,9999,1121125464
489,21,Ticks_Linear_5,6,9999,9999,9999,1121615948
489,21,Ticks_Linear_5,7,9999,9999,9999,1122105464
489,21,Ticks_Linear_5,8,9999,9999,9999,1122595952
489,21,Ticks_Linear_5,9,9999,9999,9999,1123085392
489,21,Ticks_Linear_5,10,9999,9999,9999,1123585096
489,21,Ticks_Linear_5,11,9999,9999,9999,1124085840
489,21,Ticks_Linear_5,12,9999,9999,9999,1124585540
489,21,Ticks_Linear_5,13,9999,9999,9999,1125085240
489,21,Ticks_Linear_5,14,9999,9999,9999,1125586012
489,21,Ticks_Linear_5,15,9999,9999,9999,1126096000
489,21,Ticks_Linear_5,16,9999,9999,9999,1126605884
489,21,Ticks_Linear_5,17,9999,9999,9999,1127115840
489,21,Ticks_Linear_5,18,9999,9999,9999,1127625800
489,21,Ticks_Linear_5,19,9999,9999,9999,1128135756
489,21,Ticks_Linear_5,20,9999,9999,9999,1128655976
489,21,Ticks_Linear_5,21,9999,9999,9999,1129175148
489,21,Ticks_Linear_5,22,9999,9999,9999,1129695292
489,21,Ticks_Linear_5,23,9999,9999,9999,1130215508
489,21,Ticks_Linear_5,24,9999,9999,9999,1130735728
489,21,Ticks_Linear_5,25,9999,9999,9999,1131265084
489,21,Ticks_Linear_5,26,9999,9999,9999,1131795560
489,21,Ticks_Linear_5,27,9999,9999,9999,1132325964
489,21,Ticks_Linear_5,28,9999,9999,9999,1132855396
489,21,Ticks_Linear_5,29,9999,9999,9999,1133385800
489,21,Ticks_Linear_5,30,9999,9999,9999,1133925488
489,21,Ticks_Linear_5,31,9999,9999,9999,1134465104
489,21,Ticks_Linear_5,32,9999,9999,9999,1135005788
489,21,Ticks_Linear_5,33,9999,9999,9999,1135545404
489,21,Ticks_Linear_5,34,9999,9999,9999,1136086088
489,21,Ticks_Linear_5,35,9999,9999,9999,1136645212
489,21,Ticks_Linear_5,36,9999,9999,9999,1137195088
489,21,Ticks_Linear_5,37,9999,9999,9999,1137746008
489,21,Ticks_Linear_5,38,9999,9999,9999,1138295884
489,21,Ticks_Linear_5,39,9999,9999,9999,1138845764
489,21,Ticks_Linear_5,40,9999,9999,9999,1139405924
489,21,Ticks_Linear_5,41,9999,9999,9999,1139966032
489,21,Ticks_Linear_5,42,9999,9999,9999,1140525116
489,21,Ticks_Linear_5,43,9999,9999,9999,1141085304
489,21,Ticks_Linear_5,44,9999,9999,9999,1141645412
489,21,Ticks_Linear_5,45,9999,9999,9999,1142215732
489,21,Ticks_Linear_5,46,9999,9999,9999,1142785128
489,21,Ticks_Linear_5,47,9999,9999,9999,1143355500
489,21,Ticks_Linear_5,48,9999,9999,9999,1143925864
489,21,Ticks_Linear_5,49,9999,9999,9999,1144495160
489,21,Ticks_Linear_5,50,9999,9999,9999,1145075820
489,21,Ticks_Linear_5,51,9999,9999,9999,1145655416
489,21,Ticks_Linear_5,52,9999,9999,9999,1146236000
489,21,Ticks_Linear_5,53,9999,9999,9999,1146815556
489,21,Ticks_Linear_5,54,9999,9999,9999,1147395188
489,21,Ticks_Linear_5,55,9999,9999,9999,1147985976
489,21,Ticks_Linear_5,56,9999,9999,9999,1148575820
489,21,Ticks_Linear_5,57,9999,9999,9999,1149165684
489,21,Ticks_Linear_5,58,9999,9999,9999,1149755472
489,21,Ticks_Linear_5,59,9999,9999,9999,1150345336
489,21,Ticks_Linear_5,60,9999,9999,9999,1150945388
489,21,Ticks_Linear_5,61,9999,9999,9999,1151545440
489,21,Ticks_Linear_5,62,9999,9999,9999,1152145512
489,21,Ticks_Linear_5,63,9999,9999,9999,1152745544
489,21,Ticks_Linear_5,64,9999,9999,9999,1153345640
489,21,Ticks_Linear_5,65,9999,9999,9999,1153955952
489,21,Ticks_Linear_5,66,9999,9999,9999,1154565244
489,21,Ticks_Linear_5,67,9999,9999,9999,1155175492
489,21,Ticks_Linear_5,68,9999,9999,9999,1155785808
489,21,Ticks_Linear_5,69,9999,9999,9999,1156395116
489,21,Ticks_Linear_5,70,9999,9999,9999,1157015608
489,21,Ticks_Linear_5,71,9999,9999,9999,1157635152
489,21,Ticks_Linear_5,72,9999,9999,9999,1158255688
489,21,Ticks_Linear_5,73,9999,9999,9999,1158875236
489,21,Ticks_Linear_5,74,9999,9999,9999,1159495752
489,21,Ticks_Linear_5,75,9999,9999,9999,1160125508
489,21,Ticks_Linear_5,76,9999,9999,9999,1160755288
489,21,Ticks_Linear_5,77,9999,9999,9999,1161386064
489,21,Ticks_Linear_5,78,9999,9999,9999,1162015868
489,21,Ticks_Linear_5,79,9999,9999,9999,1162645572
489,21,Ticks_Linear_5,80,9999,9999,9999,1163285584
489,21,Ticks_Linear_5,81,9999,9999,9999,1163925592
489,21,Ticks_Linear_5,82,9999,9999,9999,1164565608
489,21,Ticks_Linear_5,83,9999,9999,9999,1165205600
489,21,Ticks_Linear_5,84,9999,9999,9999,1165845616
489,21,Ticks_Linear_5,85,9999,9999,9999,1166495816
489,21,Ticks_Linear_5,86,9999,9999,9999,1167146064
489,21,Ticks_Linear_5,87,9999,9999,9999,1167795264
489,21,Ticks_Linear_5,88,9999,9999,9999,1168445564
489,21,Ticks_Linear_5,89,9999,9999,9999,1169095736
489,21,Ticks_Linear_5,90,9999,9999,9999,1169755248
489,21,Ticks_Linear_5,91,9999,9999,9999,1170415704
489,21,Ticks_Linear_5,92,9999,9999,9999,1171075136
489,21,Ticks_Linear_5,93,9999,9999,9999,1171735640
489,21,Ticks_Linear_5,94,9999,9999,9999,1172395108
489,21,Ticks_Linear_5,95,9999,9999,9999,1173065796
489,21,Ticks_Linear_5,96,9999,9999,9999,1173735516
489,21,Ticks_Linear_5,97,9999,9999,9999,1174405188
489,21,Ticks_Linear_5,98,9999,9999,9999,1175075908
489,21,Ticks_Linear_5,99,9999,9999,9999,1175745592
489,21,Ticks_Linear_5,100,9999,9999,9999,1176425592
489,21,Ticks_Linear_5,101,9999,9999,9999,1177105496
489,21,Ticks_Linear_5,102,9999,9999,9999,1177785400
489,21,Ticks_Linear_5,103,9999,9999,9999,1178465408
489,21,Ticks_Linear_5,104,9999,9999,9999,1179145340
489,21,Ticks_Linear_5,105,9999,9999,9999,1179835456
489,21,Ticks_Linear_5,106,9999,9999,9999,1180525636
489,21,Ticks_Linear_5,107,9999,9999,9999,1181215800
489,21,Ticks_Linear_5,108,9999,9999,9999,1181906020
489,21,Ticks_Linear_5,109,9999,9999,9999,1182595168
489,21,Ticks_Linear_5,110,9999,9999,9999,1183295592
489,21,Ticks_Linear_5,111,9999,9999,9999,1183996012
489,21,Ticks_Linear_5,112,9999,9999,9999,1184695368
489,21,Ticks_Linear_5,113,9999,9999,9999,1185395816
489,21,Ticks_Linear_5,114,9999,9999,9999,1186095188
489,21,Ticks_Linear_5,115,9999,9999,9999,1186805872
489,21,Ticks_Linear_5,116,9999,9999,9999,1187515500
489,21,Ticks_Linear_5,117,9999,9999,9999,1188225136
489,21,Ticks_Linear_5,118,9999,9999,9999,1188935788
489,21,Ticks_Linear_5,119,9999,9999,9999,1189645424
489,21,Ticks_Linear_5,120,9999,9999,9999,1190365244
489,21,Ticks_Linear_5,121,9999,9999,9999,1191085140
489,21,Ticks_Linear_5,122,9999,9999,9999,1191806012
489,21,Ticks_Linear_5,123,9999,9999,9999,1192525904
489,21,Ticks_Linear_5,124,9999,9999,9999,1193245800
489,21,Ticks_Linear_5,125,9999,9999,9999,1193975868
489,21,Ticks_Linear_5,126,9999,9999,9999,1194706020
489,21,Ticks_Linear_5,127,9999,9999,9999,1195435108
489,21,Ticks_Linear_5,128,9999,9999,9999,1196165184
489,21,Ticks_Linear_5,129,9999,9999,9999,1196895292
489,21,Ticks_Linear_5,130,9999,9999,9999,1197635676
489,21,Ticks_Linear_5,131,9999,9999,9999,1198375992
489,21,Ticks_Linear_5,132,9999,9999,9999,1199115384
489,21,Ticks_Linear_5,133,9999,9999,9999,1199855676
489,21,Ticks_Linear_5,134,9999,9999,9999,1200596040
489,21,Ticks_Linear_5,135,9999,9999,9999,1201345648
489,21,Ticks_Linear_5,136,9999,9999,9999,1202095220
489,21,Ticks_Linear_5,137,9999,9999,9999,1202845812
489,21,Ticks_Linear_5,138,9999,9999,9999,1203595392
489,21,Ticks_Linear_5,139,9999,9999,9999,1204345944
489,21,Ticks_Linear_5,140,9999,9999,9999,1205105720
489,21,Ticks_Linear_5,141,9999,9999,9999,1205865584
489,21,Ticks_Linear_5,142,9999,9999,9999,1206625364
489,21,Ticks_Linear_5,143,9999,9999,9999,1207385152
489,21,Ticks_Linear_5,144,9999,9999,9999,1208146036
489,21,Ticks_Linear_5,145,9999,9999,9999,1208916028
489,21,Ticks_Linear_5,146,9999,9999,9999,1209686124
489,21,Ticks_Linear_5,147,9999,9999,9999,1210465356
489,21,Ticks_Linear_5,148,9999,9999,9999,1211235448
489,21,Ticks_Linear_5,149,9999,9999,9999,1212005440
489,21,Ticks_Linear_5,150,9999,9999,9999,1212785740
489,21,Ticks_Linear_5,151,9999,9999,9999,1213566064
489,21,Ticks_Linear_5,152,9999,9999,9999,1214345328
489,21,Ticks_Linear_5,153,9999,9999,9999,1215125608
489,21,Ticks_Linear_5,154,9999,9999,9999,1215905872
489,21,Ticks_Linear_5,155,9999,9999,9999,1216695388
489,21,Ticks_Linear_5,156,9999,9999,9999,1217485944
489,21,Ticks_Linear_5,157,9999,9999,9999,1218275436
489,21,Ticks_Linear_5,158,9999,9999,9999,1219065920
489,21,Ticks_Linear_5,159,9999,9999,9999,1219855440
489,21,Ticks_Linear_5,160,9999,9999,9999,1220655208
489,21,Ticks_Linear_5,161,9999,9999,9999,1221455984
489,21,Ticks_Linear_5,162,9999,9999,9999,1222255736
489,21,Ticks_Linear_5,163,9999,9999,9999,1223055456
489,21,Ticks_Linear_5,164,9999,9999,9999,1223855208
489,21,Ticks_Linear_5,165,9999,9999,9999,1224665140
489,21,Ticks_Linear_5,166,9999,9999,9999,1225475184
489,21,Ticks_Linear_5,167,9999,9999,9999,1226285168
489,21,Ticks_Linear_5,168,9999,9999,9999,1227095144
489,21,Ticks_Linear_5,169,9999,9999,9999,1227905112
4810,20,Ticks_Linear_8,0,5,42,127,1239143796
4810,20,Ticks_Linear_8,1,1,48,66,1239712392
4810,20,Ticks_Linear_8,2,5,42,127,1239964208
4810,20,Ticks_Linear_8,3,1,48,67,1240610060
4810,20,Ticks_Linear_8,4,5,42,127,1240784156
4810,20,Ticks_Linear_8,5,1,48,58,1241493364
4810,20,Ticks_Linear_8,6,5,42,127,1241603424
4810,20,Ticks_Linear_8,7,1,48,62,1242335944
4810,20,Ticks_Linear_8,8,5,42,127,1242423680
4810,20,Ticks_Linear_8,9,1,48,71,1243179996
4810,20,Ticks_Linear_8,10,5,42,127,1243233516
4810,20,Ticks_Linear_8,11,1,48,81,1243997252
4810,20,Ticks_Linear_8,12,1,38,18,1244007716
4810,20,Ticks_Linear_8,13,5,42,127,1244043552
4810,20,Ticks_Linear_8,14,1,48,51,1244838512
4810,20,Ticks_Linear_8,15,5,42,127,1244853756
4810,20,Ticks_Linear_8,16,1,48,57,1245649540
4810,20,Ticks_Linear_8,17,5,42,127,1245663740
4810,20,Ticks_Linear_8,18,1,48,51,1246460948
4810,20,Ticks_Linear_8,19,5,42,127,1246473576
4810,20,Ticks_Linear_8,20,5,42,127,1247274280
4810,20,Ticks_Linear_8,21,1,48,53,1247276220
4810,20,Ticks_Linear_8,22,1,48,65,1248043852
4810,20,Ticks_Linear_8,23,5,42,127,1248074072
4810,20,Ticks_Linear_8,24,1,48,64,1248830984
4810,20,Ticks_Linear_8,25,5,42,127,1248873944
4810,20,Ticks_Linear_8,26,1,48,62,1249613048
4810,20,Ticks_Linear_8,27,5,42,127,1249673816
4810,20,Ticks_Linear_8,28,1,48,51,1250445040
4810,20,Ticks_Linear_8,29,5,42,127,1250474240
4810,20,Ticks_Linear_8,30,1,48,59,1251191512
4810,20,Ticks_Linear_8,31,1,38,16,1251201916
4810,20,Ticks_Linear_8,32,5,42,127,1251263912
4810,20,Ticks_Linear_8,33,1,48,53,1252012720
4810,20,Ticks_Linear_8,34,5,42,127,1252054468
4810,20,Ticks_Linear_8,35,1,48,44,1252817532
4810,20,Ticks_Linear_8,36,5,42,127,1252843860
4810,20,Ticks_Linear_8,37,1,48,53,1253603408
4810,20,Ticks_Linear_8,38,5,42,127,1253634296
4810,20,Ticks_Linear_8,39,1,48,53,1254347556
4810,20,Ticks_Linear_8,40,5,42,127,1254434168
4810,20,Ticks_Linear_8,41,1,48,66,1255140236
4810,20,Ticks_Linear_8,42,5,42,127,1255213300
4810,20,Ticks_Linear_8,43,1,48,62,1255957188
4810,20,Ticks_Linear_8,44,1,38,17,1255967652
4810,20,Ticks_Linear_8,45,5,42,127,1255993832
4810,20,Ticks_Linear_8,46,1,48,52,1256721600
4810,20,Ticks_Linear_8,47,5,42,127,1256774056
4810,20,Ticks_Linear_8,48,1,48,62,1257455716
4810,20,Ticks_Linear_8,49,1,38,16,1257465728
4810,20,Ticks_Linear_8,50,5,42,127,1257554424
4810,20,Ticks_Linear_8,51,1,48,69,1258305660
4810,20,Ticks_Linear_8,52,5,42,127,1258333632
4810,20,Ticks_Linear_8,53,5,42,127,1259103852
4810,20,Ticks_Linear_8,54,1,48,76,1259115212
4810,20,Ticks_Linear_8,55,5,42,127,1259873700
4810,20,Ticks_Linear_8,56,1,48,63,1259925524
4810,20,Ticks_Linear_8,57,5,42,127,1260643692
4810,20,Ticks_Linear_8,58,1,48,64,1260667704
4810,20,Ticks_Linear_8,59,1,48,51,1261398508
4810,20,Ticks_Linear_8,60,1,38,14,1261408448
4810,20,Ticks_Linear_8,61,5,42,127,1261413808
4810,20,Ticks_Linear_8,62,5,42,127,1262183780
4810,20,Ticks_Linear_8,63,1,48,68,1262222480
4810,20,Ticks_Linear_8,64,1,38,19,1262232608
4810,20,Ticks_Linear_8,65,5,42,127,1262943776
4810,20,Ticks_Linear_8,66,1,48,67,1262990704
4810,20,Ticks_Linear_8,67,1,38,17,1263000904
4810,20,Ticks_Linear_8,68,5,42,127,1263704672
4810,20,Ticks_Linear_8,69,1,48,70,1263734008
4810,20,Ticks_Linear_8,70,1,48,73,1264473544
4810,20,Ticks_Linear_8,71,5,42,127,1264475104
4810,20,Ticks_Linear_8,72,5,42,127,1265234548
4810,20,Ticks_Linear_8,73,1,48,64,1265339016
4810,20,Ticks_Linear_8,74,1,48,70,1265951616
4810,20,Ticks_Linear_8,75,5,42,127,1265994128
4810,20,Ticks_Linear_8,76,1,48,78,1266724840
4810,20,Ticks_Linear_8,77,5,42,127,1266743532
4810,20,Ticks_Linear_8,78,5,42,127,1267494432
4810,20,Ticks_Linear_8,79,1,48,70,1267495768
4810,20,Ticks_Linear_8,80,5,42,127,1268243980
4810,20,Ticks_Linear_8,81,1,48,82,1268280424
4810,20,Ticks_Linear_8,82,5,42,127,1268994500
4810,20,Ticks_Linear_8,83,1,48,87,1269012008
4810,20,Ticks_Linear_8,84,5,42,127,1269754312
4810,20,Ticks_Linear_8,85,1,48,70,1269795176
4810,20,Ticks_Linear_8,86,1,48,67,1270474764
4810,20,Ticks_Linear_8,87,5,42,127,1270493596
4810,20,Ticks_Linear_8,88,5,42,127,1271233868
4810,20,Ticks_Linear_8,89,1,48,72,1271237284
4810,20,Ticks_Linear_8,90,1,38,18,1271247152
4810,20,Ticks_Linear_8,91,1,48,86,1271944508
4810,20,Ticks_Linear_8,92,1,38,20,1271954448
4810,20,Ticks_Linear_8,93,5,42,127,1271974280
4810,20,Ticks_Linear_8,94,5,42,127,1272713596
4810,20,Ticks_Linear_8,95,1,48,78,1272789380
4810,20,Ticks_Linear_8,96,5,42,127,1273454232
4810,20,Ticks_Linear_8,97,1,48,62,1273490600
4810,20,Ticks_Linear_8,98,5,42,127,1274184160
4810,20,Ticks_Linear_8,99,1,48,69,1274216864
4810,20,Ticks_Linear_8,100,5,42,127,1274914164
4810,20,Ticks_Linear_8,101,1,48,63,1274979812
4810,20,Ticks_Linear_8,102,5,42,127,1275644244
4810,20,Ticks_Linear_8,103,1,48,69,1275657324
4810,20,Ticks_Linear_8,104,1,48,57,1276338028
4810,20,Ticks_Linear_8,105,5,42,127,1276374464
4810,20,Ticks_Linear_8,106,5,42,127,1277103428
4810,20,Ticks_Linear_8,107,1,48,79,1277159412
4810,20,Ticks_Linear_8,108,1,38,19,1277169280
4810,20,Ticks_Linear_8,109,5,42,127,1277824372
4810,20,Ticks_Linear_8,110,1,48,72,1277833936
4810,20,Ticks_Linear_8,111,1,48,77,1278536352
4810,20,Ticks_Linear_8,112,5,42,127,1278544184
4810,20,Ticks_Linear_8,113,1,38,19,1278546120
4810,20,Ticks_Linear_8,114,5,42,127,1279264052
4810,20,Ticks_Linear_8,115,1,48,46,1279323340
4810,20,Ticks_Linear_8,116,5,42,127,1279984092
4810,20,Ticks_Linear_8,117,1,48,62,1280015220
4810,20,Ticks_Linear_8,118,5,42,127,1280704136
4810,20,Ticks_Linear_8,119,1,48,74,1280726208
4810,20,Ticks_Linear_8,120,1,48,66,1281406136
4810,20,Ticks_Linear_8,121,5,42,127,1281413368
4810,20,Ticks_Linear_8,122,5,42,127,1282124204
4810,20,Ticks_Linear_8,123,1,48,62,1282151132
4810,20,Ticks_Linear_8,124,5,42,127,1282833912
4810,20,Ticks_Linear_8,125,1,48,61,1282924804
4810,20,Ticks_Linear_8,126,1,48,44,1283500804
4810,20,Ticks_Linear_8,127,5,42,127,1283544364
4810,20,Ticks_Linear_8,128,5,42,127,1284264264
4810,20,Ticks_Linear_8,129,1,48,68,1284277348
4810,20,Ticks_Linear_8,130,5,42,127,1284963836
4810,20,Ticks_Linear_8,131,1,48,60,1284997216
4810,20,Ticks_Linear_8,132,5,42,127,1285664112
4810,20,Ticks_Linear_8,133,1,48,87,1285788420
4810,20,Ticks_Linear_8,134,1,38,21,1285798660
4810,20,Ticks_Linear_8,135,5,42,127,1286363368
4810,20,Ticks_Linear_8,136,1,48,79,1286367608
4810,20,Ticks_Linear_8,137,5,42,127,1287064012
4810,20,Ticks_Linear_8,138,1,48,77,1287078808
4810,20,Ticks_Linear_8,139,1,38,18,1287088604
4810,20,Ticks_Linear_8,140,5,42,127,1287764288
4810,20,Ticks_Linear_8,141,1,48,84,1287768976
4810,20,Ticks_Linear_8,142,1,38,20,1287778920
4810,20,Ticks_Linear_8,143,5,42,127,1288453580
4810,20,Ticks_Linear_8,144,1,48,97,1288502160
4810,20,Ticks_Linear_8,145,1,38,21,1288512324
4810,20,Ticks_Linear_8,146,5,42,127,1289143832
4810,20,Ticks_Linear_8,147,1,48,86,1289164928
4810,20,Ticks_Linear_8,148,1,38,19,1289174716
4810,20,Ticks_Linear_8,149,5,42,127,1289833924
4810,20,Ticks_Linear_8,150,1,48,71,1289872244
4810,20,Ticks_Linear_8,151,5,42,127,1290524088
4810,20,Ticks_Linear_8,152,1,48,80,1290601412
4810,20,Ticks_Linear_8,153,5,42,127,1291214100
4810,20,Ticks_Linear_8,154,1,48,79,1291254664
4810,20,Ticks_Linear_8,155,5,42,127,1291894056
4810,20,Ticks_Linear_8,156,1,48,81,1291916116
4810,20,Ticks_Linear_8,157,5,42,127,1292573956
4810,20,Ticks_Linear_8,158,1,48,62,1292661688
4810,20,Ticks_Linear_8,159,5,42,127,1293253936
4810,20,Ticks_Linear_8,160,1,48,67,1293340252
4810,20,Ticks_Linear_8,161,5,42,127,1293933816
4810,20,Ticks_Linear_8,162,1,48,77,1293982348
4810,20,Ticks_Linear_8,163,5,42,127,1294613872
4810,20,Ticks_Linear_8,164,1,48,82,1294647544
4810,20,Ticks_Linear_8,165,5,42,127,1295283640
4810,20,Ticks_Linear_8,166,1,48,83,1295382468
4810,20,Ticks_Linear_8,167,1,38,19,1295391720
4810,20,Ticks_Linear_8,168,5,42,127,1295954184
4810,20,Ticks_Linear_8,169,1,48,49,1295992884
4810,20,Ticks_Linear_8,170,5,42,127,1296623980
4810,20,Ticks_Linear_8,171,1,48,70,1296698764
4810,20,Ticks_Linear_8,172,5,42,127,1297293824
4810,20,Ticks_Linear_8,173,1,48,75,1297321448
4810,20,Ticks_Linear_8,174,5,42,127,1297964516
4810,20,Ticks_Linear_8,175,1,48,77,1298010088
4810,20,Ticks_Linear_8,176,1,38,19,1298019956
4810,20,Ticks_Linear_8,177,5,42,127,1298623776
4810,20,Ticks_Linear_8,178,1,48,78,1298641716
4810,20,Ticks_Linear_8,179,5,42,127,1299284480
4810,20,Ticks_Linear_8,180,1,48,75,1299364388
4810,20,Ticks_Linear_8,181,5,42,127,1299943792
4810,20,Ticks_Linear_8,182,1,48,83,1300011696
4810,20,Ticks_Linear_8,183,1,38,20,1300021712
4810,20,Ticks_Linear_8,184,5,42,127,1300604240
4810,20,Ticks_Linear_8,185,1,48,75,1300620984
4810,20,Ticks_Linear_8,186,5,42,127,1301263628
4810,20,Ticks_Linear_8,187,1,48,88,1301301184
4810,20,Ticks_Linear_8,188,5,42,127,1301914096
4810,20,Ticks_Linear_8,189,1,48,74,1301966120
4810,20,Ticks_Linear_8,190,5,42,127,1302564468
4810,20,Ticks_Linear_8,191,1,48,79,1302605332
4810,20,Ticks_Linear_8,192,5,42,127,1303213444
4810,20,Ticks_Linear_8,193,1,48,63,1303251752
4810,20,Ticks_Linear_8,194,5,42,127,1303863596
4810,20,Ticks_Linear_8,195,1,48,76,1303909400
4810,20,Ticks_Linear_8,196,1,38,18,1303918964
4810,20,Ticks_Linear_8,197,5,42,127,1304513868
4810,20,Ticks_Linear_8,198,1,48,70,1304551968
4810,20,Ticks_Linear_8,199,5,42,127,1305153980
4810,20,Ticks_Linear_8,200,1,48,81,1305266160
4810,20,Ticks_Linear_8,201,5,42,127,1305793824
4810,20,Ticks_Linear_8,202,1,48,60,1305796564
4810,20,Ticks_Linear_8,203,5,42,127,1306433860
4810,20,Ticks_Linear_8,204,1,48,83,1306469704
4810,20,Ticks_Linear_8,205,1,38,21,1306479120
4810,20,Ticks_Linear_8,206,5,42,127,1307073804
4810,20,Ticks_Linear_8,207,1,48,78,1307122980
4810,20,Ticks_Linear_8,208,5,42,127,1307713844
4810,20,Ticks_Linear_8,209,1,48,84,1307761140
4810,20,Ticks_Linear_8,210,5,42,127,1308343572
4810,20,Ticks_Linear_8,211,1,48,80,1308432668
4810,20,Ticks_Linear_8,212,5,42,127,1308973500
4810,20,Ticks_Linear_8,213,1,48,76,1309007924
4810,20,Ticks_Linear_8,214,5,42,127,1309604200
4810,20,Ticks_Linear_8,215,1,48,74,1309631668
4810,20,Ticks_Linear_8,216,5,42,127,1310233904
4810,20,Ticks_Linear_8,217,1,48,81,1310272376
4810,20,Ticks_Linear_8,218,1,38,19,1310281784
4810,20,Ticks_Linear_8,219,5,42,127,1310863640
4810,20,Ticks_Linear_8,220,1,48,80,1310938572
4810,20,Ticks_Linear_8,221,5,42,127,1311484280
4810,20,Ticks_Linear_8,222,1,48,52,1311527908
4810,20,Ticks_Linear_8,223,5,42,127,1312103724
4810,20,Ticks_Linear_8,224,1,48,78,1312139716
4810,20,Ticks_Linear_8,225,5,42,127,1312724244
4810,20,Ticks_Linear_8,226,1,48,89,1312789364
4810,20,Ticks_Linear_8,227,5,42,127,1313343912
4810,20,Ticks_Linear_8,228,1,48,81,1313417428
4810,20,Ticks_Linear_8,229,5,42,127,1313964280
4810,20,Ticks_Linear_8,230,5,42,127,1314573636
4810,20,Ticks_Linear_8,231,1,48,57,1314617644
4810,20,Ticks_Linear_8,232,1,38,16,1314627136
4810,20,Ticks_Linear_8,233,5,42,127,1315184120
4810,20,Ticks_Linear_8,234,1,48,87,1315185084
4810,20,Ticks_Linear_8,235,1,38,19,1315194496
4810,20,Ticks_Linear_8,236,5,42,127,1315794272
4810,20,Ticks_Linear_8,237,1,48,90,1315831160
4810,20,Ticks_Linear_8,238,1,38,20,1315841188
4810,20,Ticks_Linear_8,239,5,42,127,1316403560
4810,20,Ticks_Linear_8,240,1,48,83,1316436256
4810,20,Ticks_Linear_8,241,5,42,127,1317014040
4810,20,Ticks_Linear_8,242,1,48,97,1317091604
4810,20,Ticks_Linear_8,243,5,42,127,1317613936
4810,20,Ticks_Linear_8,244,1,48,82,1317668576
4810,20,Ticks_Linear_8,245,5,42,127,1318213912
4810,20,Ticks_Linear_8,246,1,48,88,1318247212
4810,20,Ticks_Linear_8,247,5,42,127,1318813988
4810,20,Ticks_Linear_8,248,1,48,91,1318825568
4810,20,Ticks_Linear_8,249,5,42,127,1319414112
4810,20,Ticks_Linear_8,250,1,48,81,1319450028
4810,20,Ticks_Linear_8,251,5,42,127,1320014084
4810,20,Ticks_Linear_8,252,1,48,74,1320081000
4810,20,Ticks_Linear_8,253,1,38,18,1320091180
4810,20,Ticks_Linear_8,254,5,42,127,1320604136
4810,20,Ticks_Linear_8,255,1,48,77,1320628000
4810,20,Ticks_Linear_8,256,5,42,127,1321194000
4810,20,Ticks_Linear_8,257,1,48,93,1321222740
4810,20,Ticks_Linear_8,258,1,38,20,1321232680
4810,20,Ticks_Linear_8,259,5,42,127,1321783892
4810,20,Ticks_Linear_8,260,1,48,77,1321813008
4810,20,Ticks_Linear_8,261,5,42,127,1322373460
4810,20,Ticks_Linear_8,262,1,48,67,1322409696
4810,20,Ticks_Linear_8,263,5,42,127,1322964320
4810,20,Ticks_Linear_8,264,1,48,82,1323043824
4810,20,Ticks_Linear_8,265,5,42,127,1323543924
4810,20,Ticks_Linear_8,266,1,48,78,1323583068
4810,20,Ticks_Linear_8,267,5,42,127,1324123380
4810,20,Ticks_Linear_8,268,1,48,73,1324176296
4810,20,Ticks_Linear_8,269,5,42,127,1324704104
4810,20,Ticks_Linear_8,270,1,48,81,1324747736
4810,20,Ticks_Linear_8,271,1,38,19,1324757680
4810,20,Ticks_Linear_8,272,5,42,127,1325283888
4810,20,Ticks_Linear_8,273,1,48,79,1325357180
4810,20,Ticks_Linear_8,274,5,42,127,1325864316
4810,20,Ticks_Linear_8,275,1,48,73,1325921888
4810,20,Ticks_Linear_8,276,5,42,127,1326433736
4810,20,Ticks_Linear_8,277,1,48,54,1326577220
4810,20,Ticks_Linear_8,278,5,42,127,1327004080
4810,20,Ticks_Linear_8,279,1,48,89,1327058200
4810,20,Ticks_Linear_8,280,5,42,127,1327574472
4810,20,Ticks_Linear_8,281,1,48,87,1327597140
4810,20,Ticks_Linear_8,282,1,38,20,1327607080
4810,20,Ticks_Linear_8,283,5,42,127,1328143620
4810,20,Ticks_Linear_8,284,1,48,91,1328190168
4810,20,Ticks_Linear_8,285,5,42,127,1328714164
4810,20,Ticks_Linear_8,286,1,48,93,1328721028
4810,20,Ticks_Linear_8,287,1,38,20,1328731428
4810,20,Ticks_Linear_8,288,5,42,127,1329274176
4810,20,Ticks_Linear_8,289,1,48,65,1329312376
4810,20,Ticks_Linear_8,290,5,42,127,1329834632
4810,20,Ticks_Linear_8,291,1,48,77,1329871076
4810,20,Ticks_Linear_8,292,1,48,86,1330384388
4810,20,Ticks_Linear_8,293,5,42,127,1330393640
4810,20,Ticks_Linear_8,294,1,48,87,1330931872
4810,20,Ticks_Linear_8,295,5,42,127,1330953772
4810,20,Ticks_Linear_8,296,1,48,89,1331490048
4810,20,Ticks_Linear_8,297,5,42,127,1331513832
4810,20,Ticks_Linear_8,298,5,42,127,1332063640
4810,20,Ticks_Linear_8,299,1,48,85,1332085628
4810,20,Ticks_Linear_8,300,5,42,127,1332613588
4810,20,Ticks_Linear_8,301,1,48,87,1332642200
4810,20,Ticks_Linear_8,302,1,38,20,1332652588
4810,20,Ticks_Linear_8,303,5,42,127,1333164340
4810,20,Ticks_Linear_8,304,1,48,98,1333177496
4810,20,Ticks_Linear_8,305,1,48,84,1333701348
4810,20,Ticks_Linear_8,306,5,42,127,1333714428
4810,20,Ticks_Linear_8,307,5,42,127,1334264088
4810,20,Ticks_Linear_8,308,1,48,76,1334276644
4810,20,Ticks_Linear_8,309,5,42,127,1334803928
4810,20,Ticks_Linear_8,310,1,48,95,1334815508
4810,20,Ticks_Linear_8,311,5,42,127,1335343616
4810,20,Ticks_Linear_8,312,1,48,95,1335357220
4810,20,Ticks_Linear_8,313,5,42,127,1335884204
4810,20,Ticks_Linear_8,314,1,48,69,1335899600
4810,20,Ticks_Linear_8,315,5,42,127,1336423892
4810,20,Ticks_Linear_8,316,1,48,71,1336443416
4810,20,Ticks_Linear_8,317,5,42,127,1336963360
4810,20,Ticks_Linear_8,318,1,48,97,1336975836
4810,20,Ticks_Linear_8,319,5,42,127,1337493984
4810,20,Ticks_Linear_8,320,1,48,90,1337512464
4810,20,Ticks_Linear_8,321,1,48,103,1338020220
4810,20,Ticks_Linear_8,322,5,42,127,1338024604
4810,20,Ticks_Linear_8,323,5,42,127,1338553672
4810,20,Ticks_Linear_8,324,1,48,95,1338569896
4810,20,Ticks_Linear_8,325,5,42,127,1339084152
4810,20,Ticks_Linear_8,326,1,48,68,1339091384
4810,20,Ticks_Linear_8,327,5,42,127,1339613584
4810,20,Ticks_Linear_8,328,1,48,90,1339616556
4810,20,Ticks_Linear_8,329,5,42,127,1340133800
4810,20,Ticks_Linear_8,330,1,48,69,1340145984
4810,20,Ticks_Linear_8,331,5,42,127,1340653872
4810,20,Ticks_Linear_8,332,1,48,109,1340677212
4810,20,Ticks_Linear_8,333,5,42,127,1341174312
4810,20,Ticks_Linear_8,334,1,48,87,1341176176
4810,20,Ticks_Linear_8,335,1,48,96,1341675540
4810,20,Ticks_Linear_8,336,5,42,127,1341694452
4810,20,Ticks_Linear_8,337,1,48,48,1342200096
4810,20,Ticks_Linear_8,338,5,42,127,1342213476
4810,20,Ticks_Linear_8,339,1,48,95,1342707068
4810,20,Ticks_Linear_8,340,5,42,127,1342723436
4810,20,Ticks_Linear_8,341,5,42,127,1343234524
4810,20,Ticks_Linear_8,342,1,48,94,1343252252
4810,20,Ticks_Linear_8,343,5,42,127,1343753472
4810,20,Ticks_Linear_8,344,1,48,87,1343784080
4810,20,Ticks_Linear_8,345,5,42,127,1344263584
4810,20,Ticks_Linear_8,346,1,48,82,1344284228
4810,20,Ticks_Linear_8,347,1,48,93,1344763236
4810,20,Ticks_Linear_8,348,5,42,127,1344773460
4810,20,Ticks_Linear_8,349,5,42,127,1345274216
4810,20,Ticks_Linear_8,350,1,48,75,1345311104
4810,20,Ticks_Linear_8,351,5,42,127,1345774064
4810,20,Ticks_Linear_8,352,1,48,82,1345793660
4810,20,Ticks_Linear_8,353,5,42,127,1346273540
4810,20,Ticks_Linear_8,354,1,48,80,1346307812
4810,20,Ticks_Linear_8,355,5,42,127,1346774436
4810,20,Ticks_Linear_8,356,1,48,61,1346789160
4810,20,Ticks_Linear_8,357,1,48,76,1347263380
4810,20,Ticks_Linear_8,358,5,42,127,1347274056
4810,20,Ticks_Linear_8,359,5,42,127,1347763504
4810,20,Ticks_Linear_8,360,1,48,75,1347776584
4810,20,Ticks_Linear_8,361,5,42,127,1348254140
4810,20,Ticks_Linear_8,362,1,48,89,1348270436
4810,20,Ticks_Linear_8,363,5,42,127,1348743480
4810,20,Ticks_Linear_8,364,1,48,75,1348782652
4810,20,Ticks_Linear_8,365,5,42,127,1349234192
4810,20,Ticks_Linear_8,366,1,48,82,1349249144
4810,20,Ticks_Linear_8,367,5,42,127,1349723484
4810,20,Ticks_Linear_8,368,1,48,65,1349727124
4810,20,Ticks_Linear_8,0,9999,9999,9999,1239141496
4810,20,Ticks_Linear_8,1,9999,9999,9999,1239961688
4810,20,Ticks_Linear_8,2,9999,9999,9999,1240781928
4810,20,Ticks_Linear_8,3,9999,9999,9999,1241601124
4810,20,Ticks_Linear_8,4,9999,9999,9999,1242421308
4810,20,Ticks_Linear_8,5,9999,9999,9999,1243231292
4810,20,Ticks_Linear_8,6,9999,9999,9999,1244041328
4810,20,Ticks_Linear_8,7,9999,9999,9999,1244851312
4810,20,Ticks_Linear_8,8,9999,9999,9999,1245661292
4810,20,Ticks_Linear_8,9,9999,9999,9999,1246471276
4810,20,Ticks_Linear_8,10,9999,9999,9999,1247272056
4810,20,Ticks_Linear_8,11,9999,9999,9999,1248071772
4810,20,Ticks_Linear_8,12,9999,9999,9999,1248871496
4810,20,Ticks_Linear_8,13,9999,9999,9999,1249671296
4810,20,Ticks_Linear_8,14,9999,9999,9999,1250472016
4810,20,Ticks_Linear_8,15,9999,9999,9999,1251261536
4810,20,Ticks_Linear_8,16,9999,9999,9999,1252052020
4810,20,Ticks_Linear_8,17,9999,9999,9999,1252841560
4810,20,Ticks_Linear_8,18,9999,9999,9999,1253632072
4810,20,Ticks_Linear_8,19,9999,9999,9999,1254431872
4810,20,Ticks_Linear_8,20,9999,9999,9999,1255211076
4810,20,Ticks_Linear_8,21,9999,9999,9999,1255991384
4810,20,Ticks_Linear_8,22,9999,9999,9999,1256771684
4810,20,Ticks_Linear_8,23,9999,9999,9999,1257551976
4810,20,Ticks_Linear_8,24,9999,9999,9999,1258331256
4810,20,Ticks_Linear_8,25,9999,9999,9999,1259101256
4810,20,Ticks_Linear_8,26,9999,9999,9999,1259871328
4810,20,Ticks_Linear_8,27,9999,9999,9999,1260641392
4810,20,Ticks_Linear_8,28,9999,9999,9999,1261411436
4810,20,Ticks_Linear_8,29,9999,9999,9999,1262181480
4810,20,Ticks_Linear_8,30,9999,9999,9999,1262941256
4810,20,Ticks_Linear_8,31,9999,9999,9999,1263702076
4810,20,Ticks_Linear_8,32,9999,9999,9999,1264471096
4810,20,Ticks_Linear_8,33,9999,9999,9999,1265231952
4810,20,Ticks_Linear_8,34,9999,9999,9999,1265991756
4810,20,Ticks_Linear_8,35,9999,9999,9999,1266741308
4810,20,Ticks_Linear_8,36,9999,9999,9999,1267491908
4810,20,Ticks_Linear_8,37,9999,9999,9999,1268241532
4810,20,Ticks_Linear_8,38,9999,9999,9999,1268992052
4810,20,Ticks_Linear_8,39,9999,9999,9999,1269751864
4810,20,Ticks_Linear_8,40,9999,9999,9999,1270491224
4810,20,Ticks_Linear_8,41,9999,9999,9999,1271231568
4810,20,Ticks_Linear_8,42,9999,9999,9999,1271971908
4810,20,Ticks_Linear_8,43,9999,9999,9999,1272711224
4810,20,Ticks_Linear_8,44,9999,9999,9999,1273451636
4810,20,Ticks_Linear_8,45,9999,9999,9999,1274181716
4810,20,Ticks_Linear_8,46,9999,9999,9999,1274911868
4810,20,Ticks_Linear_8,47,9999,9999,9999,1275641944
4810,20,Ticks_Linear_8,48,9999,9999,9999,1276372092
4810,20,Ticks_Linear_8,49,9999,9999,9999,1277101128
4810,20,Ticks_Linear_8,50,9999,9999,9999,1277822076
4810,20,Ticks_Linear_8,51,9999,9999,9999,1278541884
4810,20,Ticks_Linear_8,52,9999,9999,9999,1279261752
4810,20,Ticks_Linear_8,53,9999,9999,9999,1279981644
4810,20,Ticks_Linear_8,54,9999,9999,9999,1280701536
4810,20,Ticks_Linear_8,55,9999,9999,9999,1281411140
4810,20,Ticks_Linear_8,56,9999,9999,9999,1282121832
4810,20,Ticks_Linear_8,57,9999,9999,9999,1282831468
4810,20,Ticks_Linear_8,58,9999,9999,9999,1283542140
4810,20,Ticks_Linear_8,59,9999,9999,9999,1284261964
4810,20,Ticks_Linear_8,60,9999,9999,9999,1284961392
4810,20,Ticks_Linear_8,61,9999,9999,9999,1285661812
4810,20,Ticks_Linear_8,62,9999,9999,9999,1286361140
4810,20,Ticks_Linear_8,63,9999,9999,9999,1287061564
4810,20,Ticks_Linear_8,64,9999,9999,9999,1287761988
4810,20,Ticks_Linear_8,65,9999,9999,9999,1288451132
4810,20,Ticks_Linear_8,66,9999,9999,9999,1289141312
4810,20,Ticks_Linear_8,67,9999,9999,9999,1289831552
4810,20,Ticks_Linear_8,68,9999,9999,9999,1290521712
4810,20,Ticks_Linear_8,69,9999,9999,9999,1291211876
4810,20,Ticks_Linear_8,70,9999,9999,9999,1291891832
4810,20,Ticks_Linear_8,71,9999,9999,9999,1292571732
4810,20,Ticks_Linear_8,72,9999,9999,9999,1293251636
4810,20,Ticks_Linear_8,73,9999,9999,9999,1293931592
4810,20,Ticks_Linear_8,74,9999,9999,9999,1294611572
4810,20,Ticks_Linear_8,75,9999,9999,9999,1295281264
4810,20,Ticks_Linear_8,76,9999,9999,9999,1295951960
4810,20,Ticks_Linear_8,77,9999,9999,9999,1296621680
4810,20,Ticks_Linear_8,78,9999,9999,9999,1297291376
4810,20,Ticks_Linear_8,79,9999,9999,9999,1297962064
4810,20,Ticks_Linear_8,80,9999,9999,9999,1298621552
4810,20,Ticks_Linear_8,81,9999,9999,9999,1299282036
4810,20,Ticks_Linear_8,82,9999,9999,9999,1299941492
4810,20,Ticks_Linear_8,83,9999,9999,9999,1300601940
4810,20,Ticks_Linear_8,84,9999,9999,9999,1301261400
4810,20,Ticks_Linear_8,85,9999,9999,9999,1301911648
4810,20,Ticks_Linear_8,86,9999,9999,9999,1302561872
4810,20,Ticks_Linear_8,87,9999,9999,9999,1303211072
4810,20,Ticks_Linear_8,88,9999,9999,9999,1303861368
4810,20,Ticks_Linear_8,89,9999,9999,9999,1304511568
4810,20,Ticks_Linear_8,90,9999,9999,9999,1305151608
4810,20,Ticks_Linear_8,91,9999,9999,9999,1305791596
4810,20,Ticks_Linear_8,92,9999,9999,9999,1306431560
4810,20,Ticks_Linear_8,93,9999,9999,9999,1307071576
4810,20,Ticks_Linear_8,94,9999,9999,9999,1307711544
4810,20,Ticks_Linear_8,95,9999,9999,9999,1308341348
4810,20,Ticks_Linear_8,96,9999,9999,9999,1308971124
4810,20,Ticks_Linear_8,97,9999,9999,9999,1309601900
4810,20,Ticks_Linear_8,98,9999,9999,9999,1310231608
4810,20,Ticks_Linear_8,99,9999,9999,9999,1310861412
4810,20,Ticks_Linear_8,100,9999,9999,9999,1311481980
4810,20,Ticks_Linear_8,101,9999,9999,9999,1312101500
4810,20,Ticks_Linear_8,102,9999,9999,9999,1312722016
4810,20,Ticks_Linear_8,103,9999,9999,9999,1313341536
4810,20,Ticks_Linear_8,104,9999,9999,9999,1313962056
4810,20,Ticks_Linear_8,105,9999,9999,9999,1314571336
4810,20,Ticks_Linear_8,106,9999,9999,9999,1315181672
4810,20,Ticks_Linear_8,107,9999,9999,9999,1315791972
4810,20,Ticks_Linear_8,108,9999,9999,9999,1316401260
4810,20,Ticks_Linear_8,109,9999,9999,9999,1317011516
4810,20,Ticks_Linear_8,110,9999,9999,9999,1317611640
4810,20,Ticks_Linear_8,111,9999,9999,9999,1318211688
4810,20,Ticks_Linear_8,112,9999,9999,9999,1318811760
4810,20,Ticks_Linear_8,113,9999,9999,9999,1319411812
4810,20,Ticks_Linear_8,114,9999,9999,9999,1320011860
4810,20,Ticks_Linear_8,115,9999,9999,9999,1320601688
4810,20,Ticks_Linear_8,116,9999,9999,9999,1321191480
4810,20,Ticks_Linear_8,117,9999,9999,9999,1321781372
4810,20,Ticks_Linear_8,118,9999,9999,9999,1322371160
4810,20,Ticks_Linear_8,119,9999,9999,9999,1322962020
4810,20,Ticks_Linear_8,120,9999,9999,9999,1323541628
4810,20,Ticks_Linear_8,121,9999,9999,9999,1324121156
4810,20,Ticks_Linear_8,122,9999,9999,9999,1324701808
4810,20,Ticks_Linear_8,123,9999,9999,9999,1325281368
4810,20,Ticks_Linear_8,124,9999,9999,9999,1325861944
4810,20,Ticks_Linear_8,125,9999,9999,9999,1326431288
4810,20,Ticks_Linear_8,126,9999,9999,9999,1327001708
4810,20,Ticks_Linear_8,127,9999,9999,9999,1327572024
4810,20,Ticks_Linear_8,128,9999,9999,9999,1328141396
4810,20,Ticks_Linear_8,129,9999,9999,9999,1328711788
4810,20,Ticks_Linear_8,130,9999,9999,9999,1329271880
4810,20,Ticks_Linear_8,131,9999,9999,9999,1329832036
4810,20,Ticks_Linear_8,132,9999,9999,9999,1330391116
4810,20,Ticks_Linear_8,133,9999,9999,9999,1330951252
4810,20,Ticks_Linear_8,134,9999,9999,9999,1331511384
4810,20,Ticks_Linear_8,135,9999,9999,9999,1332061268
4810,20,Ticks_Linear_8,136,9999,9999,9999,1332611140
4810,20,Ticks_Linear_8,137,9999,9999,9999,1333162040
4810,20,Ticks_Linear_8,138,9999,9999,9999,1333711980
4810,20,Ticks_Linear_8,139,9999,9999,9999,1334261864
4810,20,Ticks_Linear_8,140,9999,9999,9999,1334801480
4810,20,Ticks_Linear_8,141,9999,9999,9999,1335341168
4810,20,Ticks_Linear_8,142,9999,9999,9999,1335881828
4810,20,Ticks_Linear_8,143,9999,9999,9999,1336421444
4810,20,Ticks_Linear_8,144,9999,9999,9999,1336961132
4810,20,Ticks_Linear_8,145,9999,9999,9999,1337491536
4810,20,Ticks_Linear_8,146,9999,9999,9999,1338022008
4810,20,Ticks_Linear_8,147,9999,9999,9999,1338551372
4810,20,Ticks_Linear_8,148,9999,9999,9999,1339081852
4810,20,Ticks_Linear_8,149,9999,9999,9999,1339611208
4810,20,Ticks_Linear_8,150,9999,9999,9999,1340131428
4810,20,Ticks_Linear_8,151,9999,9999,9999,1340651648
4810,20,Ticks_Linear_8,152,9999,9999,9999,1341171792
4810,20,Ticks_Linear_8,153,9999,9999,9999,1341692004
4810,20,Ticks_Linear_8,154,9999,9999,9999,1342211176
4810,20,Ticks_Linear_8,155,9999,9999,9999,1342721136
4810,20,Ticks_Linear_8,156,9999,9999,9999,1343232076
4810,20,Ticks_Linear_8,157,9999,9999,9999,1343751248
4810,20,Ticks_Linear_8,158,9999,9999,9999,1344261208
4810,20,Ticks_Linear_8,159,9999,9999,9999,1344771160
4810,20,Ticks_Linear_8,160,9999,9999,9999,1345271916
4810,20,Ticks_Linear_8,161,9999,9999,9999,1345771616
4810,20,Ticks_Linear_8,162,9999,9999,9999,1346271316
4810,20,Ticks_Linear_8,163,9999,9999,9999,1346772064
4810,20,Ticks_Linear_8,164,9999,9999,9999,1347271756
4810,20,Ticks_Linear_8,165,9999,9999,9999,1347761204
4810,20,Ticks_Linear_8,166,9999,9999,9999,1348251768
4810,20,Ticks_Linear_8,167,9999,9999,9999,1348741184
4810,20,Ticks_Linear_8,168,9999,9999,9999,1349231672
4810,20,Ticks_Linear_8,169,9999,9999,9999,1349721184
4811,25,Jits_Pract_5,0,5,56,103,1393744212
4811,25,Jits_Pract_5,1,5,63,98,1393747384
4811,25,Jits_Pract_5,2,5,80,127,1393750504
4811,25,Jits_Pract_5,0,5,56,103,1394243936
4811,25,Jits_Pract_5,1,5,63,98,1394247260
4811,25,Jits_Pract_5,2,5,80,127,1394250156
4811,25,Jits_Pract_5,0,5,56,103,1394743900
4811,25,Jits_Pract_5,1,5,80,127,1394753948
4811,25,Jits_Pract_5,2,5,63,98,1394774408
4811,25,Jits_Pract_5,0,5,63,98,1395194344
4811,25,Jits_Pract_5,1,5,80,127,1395223872
4811,25,Jits_Pract_5,2,5,56,103,1395234368
4811,25,Jits_Pract_5,3,1,48,59,1395244536
4811,25,Jits_Pract_5,0,1,48,62,1395707412
4811,25,Jits_Pract_5,1,5,80,127,1395754564
4811,25,Jits_Pract_5,2,5,56,103,1395763864
4811,25,Jits_Pract_5,3,5,63,98,1395794216
4811,25,Jits_Pract_5,0,1,48,70,1396238052
4811,25,Jits_Pract_5,1,5,63,98,1396243776
4811,25,Jits_Pract_5,2,5,56,103,1396273452
4811,25,Jits_Pract_5,3,5,80,127,1396283872
4811,25,Jits_Pract_5,0,5,56,103,1396694400
4811,25,Jits_Pract_5,1,5,63,98,1396743704
4811,25,Jits_Pract_5,2,5,80,127,1396764016
4811,25,Jits_Pract_5,3,1,48,69,1396778816
4811,25,Jits_Pract_5,0,5,80,127,1397204368
4811,25,Jits_Pract_5,1,5,63,98,1397253452
4811,25,Jits_Pract_5,2,1,48,65,1397263992
4811,25,Jits_Pract_5,3,5,56,103,1397293532
4811,25,Jits_Pract_5,0,5,56,103,1397704000
4811,25,Jits_Pract_5,1,5,63,98,1397733824
4811,25,Jits_Pract_5,2,1,48,84,1397766688
4811,25,Jits_Pract_5,3,5,80,127,1397804320
4811,25,Jits_Pract_5,0,5,56,103,1398203852
4811,25,Jits_Pract_5,1,1,48,80,1398253504
4811,25,Jits_Pract_5,2,5,80,127,1398264168
4811,25,Jits_Pract_5,3,5,63,98,1398293916
4811,25,Jits_Pract_5,0,5,56,103,1398713752
4811,25,Jits_Pract_5,1,5,63,98,1398724172
4811,25,Jits_Pract_5,2,1,48,65,1398738304
4811,25,Jits_Pract_5,3,5,80,127,1398763952
4811,25,Jits_Pract_5,0,5,63,98,1399204236
4811,25,Jits_Pract_5,1,1,48,54,1399266164
4811,25,Jits_Pract_5,2,5,80,127,1399284028
4811,25,Jits_Pract_5,3,5,56,103,1399294296
4811,25,Jits_Pract_5,0,5,63,98,1399754128
4811,25,Jits_Pract_5,1,1,48,75,1399765860
4811,25,Jits_Pract_5,2,5,56,103,1399793984
4811,25,Jits_Pract_5,3,5,80,127,1399797124
4811,25,Jits_Pract_5,0,5,56,103,1400213956
4811,25,Jits_Pract_5,1,5,63,98,1400224080
4811,25,Jits_Pract_5,2,5,80,127,1400264164
4811,25,Jits_Pract_5,3,1,48,83,1400283696
4811,25,Jits_Pract_5,0,5,56,103,1400704564
4811,25,Jits_Pract_5,1,5,63,98,1400707632
4811,25,Jits_Pract_5,2,5,80,127,1400723852
4811,25,Jits_Pract_5,3,1,48,73,1400788100
4811,25,Jits_Pract_5,0,9999,9999,9999,1393991796
4811,25,Jits_Pract_5,1,9999,9999,9999,1394491448
4811,25,Jits_Pract_5,2,9999,9999,9999,1394991192
4811,25,Jits_Pract_5,3,9999,9999,9999,1395491960
4811,25,Jits_Pract_5,4,9999,9999,9999,1395991656
4811,25,Jits_Pract_5,5,9999,9999,9999,1396491352
4811,25,Jits_Pract_5,6,9999,9999,9999,1396992088
4811,25,Jits_Pract_5,7,9999,9999,9999,1397502060
4811,25,Jits_Pract_5,8,9999,9999,9999,1398001764
4811,25,Jits_Pract_5,9,9999,9999,9999,1398501472
4811,25,Jits_Pract_5,10,9999,9999,9999,1399001172
4811,25,Jits_Pract_5,11,9999,9999,9999,1399501928
4811,25,Jits_Pract_5,12,9999,9999,9999,1400001612
4811,25,Jits_Pract_5,13,9999,9999,9999,1400501304
4811,25,Jits_Pract_5,14,9999,9999,9999,1401002044
4812,25,Jits_Pract_5,0,5,56,103,1446944220
4812,25,Jits_Pract_5,1,5,63,98,1446947240
4812,25,Jits_Pract_5,2,5,80,127,1446950364
4812,25,Jits_Pract_5,0,5,56,103,1447444016
4812,25,Jits_Pract_5,1,5,63,98,1447447044
4812,25,Jits_Pract_5,2,5,80,127,1447450312
4812,25,Jits_Pract_5,3,1,48,50,1447522744
4812,25,Jits_Pract_5,0,5,56,103,1447943572
4812,25,Jits_Pract_5,1,5,80,127,1447953840
4812,25,Jits_Pract_5,2,5,63,98,1447974448
4812,25,Jits_Pract_5,3,1,48,74,1448007232
4812,25,Jits_Pract_5,0,5,63,98,1448404240
4812,25,Jits_Pract_5,1,5,80,127,1448434140
4812,25,Jits_Pract_5,2,5,56,103,1448444188
4812,25,Jits_Pract_5,3,1,48,70,1448494652
4812,25,Jits_Pract_5,0,1,48,72,1448941740
4812,25,Jits_Pract_5,1,5,80,127,1448963408
4812,25,Jits_Pract_5,2,5,56,103,1448973604
4812,25,Jits_Pract_5,3,5,63,98,1449004400
4812,25,Jits_Pract_5,0,5,63,98,1449454120
4812,25,Jits_Pract_5,1,1,48,77,1449467132
4812,25,Jits_Pract_5,2,5,56,103,1449483564
4812,25,Jits_Pract_5,3,5,80,127,1449493836
4812,25,Jits_Pract_5,0,5,56,103,1449903468
4812,25,Jits_Pract_5,1,5,63,98,1449953668
4812,25,Jits_Pract_5,2,5,80,127,1449974128
4812,25,Jits_Pract_5,3,1,48,80,1449976792
4812,25,Jits_Pract_5,0,5,80,127,1450404292
4812,25,Jits_Pract_5,1,5,63,98,1450454496
4812,25,Jits_Pract_5,2,1,48,83,1450461300
4812,25,Jits_Pract_5,3,5,56,103,1450494500
4812,25,Jits_Pract_5,0,5,56,103,1450903996
4812,25,Jits_Pract_5,1,5,63,98,1450933744
4812,25,Jits_Pract_5,2,1,48,90,1450952156
4812,25,Jits_Pract_5,3,5,80,127,1451004316
4812,25,Jits_Pract_5,0,5,56,103,1451403628
4812,25,Jits_Pract_5,1,1,48,86,1451430264
4812,25,Jits_Pract_5,2,5,80,127,1451464236
4812,25,Jits_Pract_5,3,5,63,98,1451493688
4812,25,Jits_Pract_5,0,5,56,103,1451913672
4812,25,Jits_Pract_5,1,5,63,98,1451923944
4812,25,Jits_Pract_5,2,1,48,83,1451931176
4812,25,Jits_Pract_5,3,5,80,127,1451963948
4812,25,Jits_Pract_5,0,5,63,98,1452404432
4812,25,Jits_Pract_5,1,1,48,83,1452448784
4812,25,Jits_Pract_5,2,5,80,127,1452483948
4812,25,Jits_Pract_5,3,5,56,103,1452494072
4812,25,Jits_Pract_5,0,1,48,90,1452909784
4812,25,Jits_Pract_5,1,5,63,98,1452954192
4812,25,Jits_Pract_5,2,5,56,103,1452993832
4812,25,Jits_Pract_5,3,5,80,127,1452997120
4812,25,Jits_Pract_5,0,5,56,103,1453413704
4812,25,Jits_Pract_5,1,5,63,98,1453424124
4812,25,Jits_Pract_5,2,1,48,89,1453456036
4812,25,Jits_Pract_5,3,5,80,127,1453463856
4812,25,Jits_Pract_5,0,5,56,103,1453904184
4812,25,Jits_Pract_5,1,5,63,98,1453907252
4812,25,Jits_Pract_5,2,5,80,127,1453923672
4812,25,Jits_Pract_5,3,1,48,84,1453949484
4812,25,Jits_Pract_5,0,9999,9999,9999,1447191656
4812,25,Jits_Pract_5,1,9999,9999,9999,1447691360
4812,25,Jits_Pract_5,2,9999,9999,9999,1448192108
4812,25,Jits_Pract_5,3,9999,9999,9999,1448702076
4812,25,Jits_Pract_5,4,9999,9999,9999,1449201768
4812,25,Jits_Pract_5,5,9999,9999,9999,1449701464
4812,25,Jits_Pract_5,6,9999,9999,9999,1450201152
4812,25,Jits_Pract_5,7,9999,9999,9999,1450701908
4812,25,Jits_Pract_5,8,9999,9999,9999,1451201608
4812,25,Jits_Pract_5,9,9999,9999,9999,1451701316
4812,25,Jits_Pract_5,10,9999,9999,9999,1452202068
4812,25,Jits_Pract_5,11,9999,9999,9999,1452701776
4812,25,Jits_Pract_5,12,9999,9999,9999,1453201464
4812,25,Jits_Pract_5,13,9999,9999,9999,1453701200
4812,25,Jits_Pract_5,14,9999,9999,9999,1454201936
4813,24,Jits_Pract_8,0,5,56,103,1461046712
4813,24,Jits_Pract_8,1,5,63,98,1461049736
4813,24,Jits_Pract_8,2,5,80,127,1461053008
4813,24,Jits_Pract_8,0,5,56,103,1461847248
4813,24,Jits_Pract_8,1,5,63,98,1461850424
4813,24,Jits_Pract_8,2,5,80,127,1461853400
4813,24,Jits_Pract_8,3,1,48,75,1462130276
4813,24,Jits_Pract_8,0,5,80,127,1462586780
4813,24,Jits_Pract_8,1,1,48,64,1462660996
4813,24,Jits_Pract_8,2,5,63,98,1462676936
4813,24,Jits_Pract_8,3,5,56,103,1462687056
4813,24,Jits_Pract_8,0,1,48,80,1463353772
4813,24,Jits_Pract_8,1,5,56,103,1463407076
4813,24,Jits_Pract_8,2,5,63,98,1463417200
4813,24,Jits_Pract_8,3,5,80,127,1463507264
4813,24,Jits_Pract_8,0,1,48,71,1464148960
4813,24,Jits_Pract_8,1,5,63,98,1464177088
4813,24,Jits_Pract_8,2,5,80,127,1464206788
4813,24,Jits_Pract_8,3,5,56,103,1464237288
4813,24,Jits_Pract_8,0,1,48,79,1464916948
4813,24,Jits_Pract_8,1,5,56,103,1464976940
4813,24,Jits_Pract_8,2,5,80,127,1465077100
4813,24,Jits_Pract_8,3,5,63,98,1465127372
4813,24,Jits_Pract_8,0,5,56,103,1465776628
4813,24,Jits_Pract_8,1,1,48,76,1465781396
4813,24,Jits_Pract_8,2,5,80,127,1465826676
4813,24,Jits_Pract_8,3,5,63,98,1465866688
4813,24,Jits_Pract_8,0,1,48,75,1466580100
4813,24,Jits_Pract_8,1,5,80,127,1466607028
4813,24,Jits_Pract_8,2,5,63,98,1466636852
4813,24,Jits_Pract_8,3,5,56,103,1466707412
4813,24,Jits_Pract_8,0,1,48,79,1467402780
4813,24,Jits_Pract_8,1,5,63,98,1467437356
4813,24,Jits_Pract_8,2,5,56,103,1467467252
4813,24,Jits_Pract_8,3,5,80,127,1467526728
4813,24,Jits_Pract_8,0,5,56,103,1468176732
4813,24,Jits_Pract_8,1,1,48,86,1468178540
4813,24,Jits_Pract_8,2,5,80,127,1468181208
4813,24,Jits_Pract_8,3,5,63,98,1468296680
4813,24,Jits_Pract_8,0,1,48,73,1468994652
4813,24,Jits_Pract_8,1,1,38,18,1469004516
4813,24,Jits_Pract_8,2,5,56,103,1469057528
4813,24,Jits_Pract_8,3,5,80,127,1469097476
4813,24,Jits_Pract_8,4,5,63,98,1469106832
4813,24,Jits_Pract_8,0,1,48,63,1469758852
4813,24,Jits_Pract_8,1,5,56,103,1469817244
4813,24,Jits_Pract_8,2,5,80,127,1469836608
4813,24,Jits_Pract_8,3,5,63,98,1469916460
4813,24,Jits_Pract_8,0,1,48,75,1470603652
4813,24,Jits_Pract_8,1,5,80,127,1470606760
4813,24,Jits_Pract_8,2,1,38,19,1470613316
4813,24,Jits_Pract_8,3,5,56,103,1470707036
4813,24,Jits_Pract_8,4,5,63,98,1470717156
4813,24,Jits_Pract_8,0,5,63,98,1471376876
4813,24,Jits_Pract_8,1,5,80,127,1471437120
4813,24,Jits_Pract_8,2,1,48,65,1471447316
4813,24,Jits_Pract_8,3,5,56,103,1471449024
4813,24,Jits_Pract_8,0,5,56,103,1472176628
4813,24,Jits_Pract_8,1,1,48,72,1472178924
4813,24,Jits_Pract_8,2,1,38,18,1472188648
4813,24,Jits_Pract_8,3,5,63,98,1472247108
4813,24,Jits_Pract_8,4,5,80,127,1472250548
4813,24,Jits_Pract_8,0,9999,9999,9999,1461444668
4813,24,Jits_Pract_8,1,9999,9999,9999,1462244440
4813,24,Jits_Pract_8,2,9999,9999,9999,1463044208
4813,24,Jits_Pract_8,3,9999,9999,9999,1463844952
4813,24,Jits_Pract_8,4,9999,9999,9999,1464644704
4813,24,Jits_Pract_8,5,9999,9999,9999,1465444464
4813,24,Jits_Pract_8,6,9999,9999,9999,1466244216
4813,24,Jits_Pract_8,7,9999,9999,9999,1467044980
4813,24,Jits_Pract_8,8,9999,9999,9999,1467844668
4813,24,Jits_Pract_8,9,9999,9999,9999,1468644408
4813,24,Jits_Pract_8,10,9999,9999,9999,1469444152
4813,24,Jits_Pract_8,11,9999,9999,9999,1470244932
4813,24,Jits_Pract_8,12,9999,9999,9999,1471044732
4813,24,Jits_Pract_8,13,9999,9999,9999,1471844464
4813,24,Jits_Pract_8,14,9999,9999,9999,1472644160
4814,16,Jits_ISO_5,0,5,56,103,1497308728
4814,16,Jits_ISO_5,1,5,63,98,1497311828
4814,16,Jits_ISO_5,2,5,80,127,1497315020
4814,16,Jits_ISO_5,0,5,56,103,1497809272
4814,16,Jits_ISO_5,1,5,63,98,1497812292
4814,16,Jits_ISO_5,2,5,80,127,1497815416
4814,16,Jits_ISO_5,0,1,48,71,1498304924
4814,16,Jits_ISO_5,1,5,56,103,1498309000
4814,16,Jits_ISO_5,2,5,80,127,1498319344
4814,16,Jits_ISO_5,3,5,63,98,1498338608
4814,16,Jits_ISO_5,0,5,63,98,1498758400
4814,16,Jits_ISO_5,1,5,80,127,1498789344
4814,16,Jits_ISO_5,2,5,56,103,1498798344
4814,16,Jits_ISO_5,3,1,48,72,1498811348
4814,16,Jits_ISO_5,0,1,48,72,1499271800
4814,16,Jits_ISO_5,1,5,80,127,1499318580
4814,16,Jits_ISO_5,2,5,56,103,1499328852
4814,16,Jits_ISO_5,3,5,63,98,1499358748
4814,16,Jits_ISO_5,0,1,48,81,1499798144
4814,16,Jits_ISO_5,1,5,63,98,1499809252
4814,16,Jits_ISO_5,2,5,56,103,1499838928
4814,16,Jits_ISO_5,3,5,80,127,1499849196
4814,16,Jits_ISO_5,0,5,56,103,1500258848
4814,16,Jits_ISO_5,1,5,63,98,1500308704
4814,16,Jits_ISO_5,2,1,48,63,1500318796
4814,16,Jits_ISO_5,3,5,80,127,1500329304
4814,16,Jits_ISO_5,0,5,80,127,1500759348
4814,16,Jits_ISO_5,1,1,48,64,1500801872
4814,16,Jits_ISO_5,2,5,63,98,1500808668
4814,16,Jits_ISO_5,3,5,56,103,1500848604
4814,16,Jits_ISO_5,0,5,56,103,1501259092
4814,16,Jits_ISO_5,1,5,63,98,1501288916
4814,16,Jits_ISO_5,2,1,48,75,1501342624
4814,16,Jits_ISO_5,3,5,80,127,1501358536
4814,16,Jits_ISO_5,0,5,56,103,1501758840
4814,16,Jits_ISO_5,1,1,48,68,1501786988
4814,16,Jits_ISO_5,2,5,80,127,1501819148
4814,16,Jits_ISO_5,3,5,63,98,1501848920
4814,16,Jits_ISO_5,0,5,56,103,1502268776
4814,16,Jits_ISO_5,1,5,63,98,1502278900
4814,16,Jits_ISO_5,2,1,48,78,1502292728
4814,16,Jits_ISO_5,3,5,80,127,1502318904
4814,16,Jits_ISO_5,0,5,63,98,1502759312
4814,16,Jits_ISO_5,1,1,48,77,1502799664
4814,16,Jits_ISO_5,2,5,80,127,1502839172
4814,16,Jits_ISO_5,3,5,56,103,1502849592
4814,16,Jits_ISO_5,0,1,48,76,1503303508
4814,16,Jits_ISO_5,1,5,63,98,1503309084
4814,16,Jits_ISO_5,2,5,56,103,1503349092
4814,16,Jits_ISO_5,3,5,80,127,1503352088
4814,16,Jits_ISO_5,0,5,56,103,1503768964
4814,16,Jits_ISO_5,1,5,63,98,1503779084
4814,16,Jits_ISO_5,2,1,48,75,1503817580
4814,16,Jits_ISO_5,3,5,80,127,1503819312
4814,16,Jits_ISO_5,0,5,56,103,1504258520
4814,16,Jits_ISO_5,1,5,63,98,1504261660
4814,16,Jits_ISO_5,2,5,80,127,1504278976
4814,16,Jits_ISO_5,3,1,48,78,1504305684
4814,16,Jits_ISO_5,0,5,80,127,1504769488
4814,16,Jits_ISO_5,1,5,56,103,1504778784
4814,16,Jits_ISO_5,2,1,48,64,1504804520
4814,16,Jits_ISO_5,3,5,63,98,1504849204
4814,16,Jits_ISO_5,0,5,63,98,1505258896
4814,16,Jits_ISO_5,1,5,56,103,1505279204
4814,16,Jits_ISO_5,2,1,48,71,1505338664
4814,16,Jits_ISO_5,3,5,80,127,1505359360
4814,16,Jits_ISO_5,0,5,56,103,1505768892
4814,16,Jits_ISO_5,1,1,48,66,1505771564
4814,16,Jits_ISO_5,2,5,80,127,1505808752
4814,16,Jits_ISO_5,3,5,63,98,1505819096
4814,16,Jits_ISO_5,0,5,80,127,1506259276
4814,16,Jits_ISO_5,1,1,48,65,1506282392
4814,16,Jits_ISO_5,2,5,63,98,1506288944
4814,16,Jits_ISO_5,3,5,56,103,1506328880
4814,16,Jits_ISO_5,0,5,56,103,1506778428
4814,16,Jits_ISO_5,1,1,48,59,1506797884
4814,16,Jits_ISO_5,2,5,63,98,1506809068
4814,16,Jits_ISO_5,3,5,80,127,1506859636
4814,16,Jits_ISO_5,0,5,80,127,1507279076
4814,16,Jits_ISO_5,1,1,48,80,1507303388
4814,16,Jits_ISO_5,2,5,56,103,1507319080
4814,16,Jits_ISO_5,3,5,63,98,1507329496
4814,16,Jits_ISO_5,0,5,80,127,1507758596
4814,16,Jits_ISO_5,1,1,48,63,1507796316
4814,16,Jits_ISO_5,2,5,63,98,1507799648
4814,16,Jits_ISO_5,3,5,56,103,1507858912
4814,16,Jits_ISO_5,0,5,56,103,1508259388
4814,16,Jits_ISO_5,1,5,80,127,1508269660
4814,16,Jits_ISO_5,2,1,48,62,1508281020
4814,16,Jits_ISO_5,3,5,63,98,1508349664
4814,16,Jits_ISO_5,0,5,80,127,1508758760
4814,16,Jits_ISO_5,1,5,63,98,1508819524
4814,16,Jits_ISO_5,2,1,48,82,1508820416
4814,16,Jits_ISO_5,3,5,56,103,1508848968
4814,16,Jits_ISO_5,0,5,56,103,1509258660
4814,16,Jits_ISO_5,1,1,48,93,1509316160
4814,16,Jits_ISO_5,2,5,80,127,1509319120
4814,16,Jits_ISO_5,3,5,63,98,1509358980
4814,16,Jits_ISO_5,0,1,48,76,1509804076
4814,16,Jits_ISO_5,1,5,56,103,1509808676
4814,16,Jits_ISO_5,2,5,63,98,1509818720
4814,16,Jits_ISO_5,3,5,80,127,1509822160
4814,16,Jits_ISO_5,0,5,80,127,1510259084
4814,16,Jits_ISO_5,1,1,48,62,1510295636
4814,16,Jits_ISO_5,2,5,63,98,1510349380
4814,16,Jits_ISO_5,3,5,56,103,1510359504
4814,16,Jits_ISO_5,0,5,56,103,1510758744
4814,16,Jits_ISO_5,1,5,63,98,1510761840
4814,16,Jits_ISO_5,2,5,80,127,1510764964
4814,16,Jits_ISO_5,3,1,48,76,1510811488
4814,16,Jits_ISO_5,0,5,80,127,1511278932
4814,16,Jits_ISO_5,1,1,48,73,1511291120
4814,16,Jits_ISO_5,2,5,63,98,1511329152
4814,16,Jits_ISO_5,3,5,56,103,1511358824
4814,16,Jits_ISO_5,0,5,56,103,1511759352
4814,16,Jits_ISO_5,1,5,80,127,1511768724
4814,16,Jits_ISO_5,2,1,48,75,1511796332
4814,16,Jits_ISO_5,3,5,63,98,1511839096
4814,16,Jits_ISO_5,0,5,56,103,1512269288
4814,16,Jits_ISO_5,1,5,63,98,1512288624
4814,16,Jits_ISO_5,2,1,48,74,1512300360
4814,16,Jits_ISO_5,3,5,80,127,1512349176
4814,16,Jits_ISO_5,0,5,80,127,1512758544
4814,16,Jits_ISO_5,1,1,48,64,1512819648
4814,16,Jits_ISO_5,2,5,63,98,1512829564
4814,16,Jits_ISO_5,3,5,56,103,1512848776
4814,16,Jits_ISO_5,0,5,80,127,1513278820
4814,16,Jits_ISO_5,1,5,56,103,1513288944
4814,16,Jits_ISO_5,2,5,63,98,1513299288
4814,16,Jits_ISO_5,3,1,48,72,1513318140
4814,16,Jits_ISO_5,0,5,80,127,1513769500
4814,16,Jits_ISO_5,1,5,56,103,1513788764
4814,16,Jits_ISO_5,2,1,48,80,1513792104
4814,16,Jits_ISO_5,3,5,63,98,1513858584
4814,16,Jits_ISO_5,0,5,56,103,1514279264
4814,16,Jits_ISO_5,1,5,80,127,1514309084
4814,16,Jits_ISO_5,2,1,48,92,1514313176
4814,16,Jits_ISO_5,3,5,63,98,1514328492
4814,16,Jits_ISO_5,0,5,63,98,1514768748
4814,16,Jits_ISO_5,1,1,48,74,1514785196
4814,16,Jits_ISO_5,2,5,56,103,1514829204
4814,16,Jits_ISO_5,3,5,80,127,1514858804
4814,16,Jits_ISO_5,0,5,63,98,1515259488
4814,16,Jits_ISO_5,1,5,80,127,1515262628
4814,16,Jits_ISO_5,2,1,48,71,1515285900
4814,16,Jits_ISO_5,3,5,56,103,1515349608
4814,16,Jits_ISO_5,0,1,48,85,1515770944
4814,16,Jits_ISO_5,1,5,56,103,1515778536
4814,16,Jits_ISO_5,2,5,63,98,1515809260
4814,16,Jits_ISO_5,3,5,80,127,1515849196
4814,16,Jits_ISO_5,0,1,48,74,1516260416
4814,16,Jits_ISO_5,1,5,63,98,1516279392
4814,16,Jits_ISO_5,2,5,56,103,1516319184
4814,16,Jits_ISO_5,3,5,80,127,1516338520
4814,16,Jits_ISO_5,0,1,48,94,1516765156
4814,16,Jits_ISO_5,1,5,63,98,1516789244
4814,16,Jits_ISO_5,2,5,56,103,1516829332
4814,16,Jits_ISO_5,3,5,80,127,1516839452
4814,16,Jits_ISO_5,0,1,48,73,1517267168
4814,16,Jits_ISO_5,1,5,80,127,1517269280
4814,16,Jits_ISO_5,2,5,63,98,1517339108
4814,16,Jits_ISO_5,3,5,56,103,1517358876
4814,16,Jits_ISO_5,0,5,56,103,1517758832
4814,16,Jits_ISO_5,1,1,48,78,1517771992
4814,16,Jits_ISO_5,2,5,80,127,1517779432
4814,16,Jits_ISO_5,3,5,63,98,1517819444
4814,16,Jits_ISO_5,0,5,63,98,1518268696
4814,16,Jits_ISO_5,1,1,48,85,1518269660
4814,16,Jits_ISO_5,2,5,80,127,1518289296
4814,16,Jits_ISO_5,3,5,56,103,1518329232
4814,16,Jits_ISO_5,0,5,63,98,1518768356
4814,16,Jits_ISO_5,1,1,48,90,1518775436
4814,16,Jits_ISO_5,2,1,38,20,1518785452
4814,16,Jits_ISO_5,3,5,56,103,1518788860
4814,16,Jits_ISO_5,4,5,80,127,1518799428
4814,16,Jits_ISO_5,0,1,48,100,1519268816
4814,16,Jits_ISO_5,1,5,80,127,1519270532
4814,16,Jits_ISO_5,2,5,56,103,1519288676
4814,16,Jits_ISO_5,3,5,63,98,1519319544
4814,16,Jits_ISO_5,0,1,48,78,1519762848
4814,16,Jits_ISO_5,1,5,56,103,1519838544
4814,16,Jits_ISO_5,2,5,80,127,1519841536
4814,16,Jits_ISO_5,3,5,63,98,1519859208
4814,16,Jits_ISO_5,0,5,63,98,1520258320
4814,16,Jits_ISO_5,1,1,48,84,1520283532
4814,16,Jits_ISO_5,2,5,56,103,1520289256
4814,16,Jits_ISO_5,3,5,80,127,1520348524
4814,16,Jits_ISO_5,0,1,48,76,1520785204
4814,16,Jits_ISO_5,1,5,63,98,1520838884
4814,16,Jits_ISO_5,2,5,56,103,1520849304
4814,16,Jits_ISO_5,3,5,80,127,1520858452
4814,16,Jits_ISO_5,0,1,48,79,1521288656
4814,16,Jits_ISO_5,1,5,56,103,1521290216
4814,16,Jits_ISO_5,2,5,80,127,1521319372
4814,16,Jits_ISO_5,3,5,63,98,1521328372
4814,16,Jits_ISO_5,0,1,48,78,1521824684
4814,16,Jits_ISO_5,1,5,63,98,1521829216
4814,16,Jits_ISO_5,2,5,56,103,1521838512
4814,16,Jits_ISO_5,3,5,80,127,1521859120
4814,16,Jits_ISO_5,0,5,56,103,1522259404
4814,16,Jits_ISO_5,1,1,48,68,1522315288
4814,16,Jits_ISO_5,2,5,63,98,1522318688
4814,16,Jits_ISO_5,3,5,80,127,1522322200
4814,16,Jits_ISO_5,0,1,48,91,1522772508
4814,16,Jits_ISO_5,1,5,80,127,1522778460
4814,16,Jits_ISO_5,2,5,56,103,1522788580
4814,16,Jits_ISO_5,3,5,63,98,1522859328
4814,16,Jits_ISO_5,0,5,80,127,1523269056
4814,16,Jits_ISO_5,1,1,48,68,1523302964
4814,16,Jits_ISO_5,2,5,56,103,1523338680
4814,16,Jits_ISO_5,3,5,63,98,1523349024
4814,16,Jits_ISO_5,0,1,48,75,1523779716
4814,16,Jits_ISO_5,1,1,38,18,1523789728
4814,16,Jits_ISO_5,2,5,63,98,1523808636
4814,16,Jits_ISO_5,3,5,56,103,1523819204
4814,16,Jits_ISO_5,4,5,80,127,1523839292
4814,16,Jits_ISO_5,0,5,80,127,1524259164
4814,16,Jits_ISO_5,1,1,48,85,1524272472
4814,16,Jits_ISO_5,2,5,63,98,1524318500
4814,16,Jits_ISO_5,3,5,56,103,1524358460
4814,16,Jits_ISO_5,0,5,56,103,1524798992
4814,16,Jits_ISO_5,1,1,48,77,1524801436
4814,16,Jits_ISO_5,2,5,63,98,1524809332
4814,16,Jits_ISO_5,3,5,80,127,1524849120
4814,16,Jits_ISO_5,0,5,56,103,1525258516
4814,16,Jits_ISO_5,1,5,80,127,1525289384
4814,16,Jits_ISO_5,2,1,48,71,1525305160
4814,16,Jits_ISO_5,3,5,63,98,1525338380
4814,16,Jits_ISO_5,0,1,48,73,1525761448
4814,16,Jits_ISO_5,1,5,56,103,1525799232
4814,16,Jits_ISO_5,2,5,63,98,1525839244
4814,16,Jits_ISO_5,3,5,80,127,1525842532
4814,16,Jits_ISO_5,0,1,48,84,1526274648
4814,16,Jits_ISO_5,1,5,56,103,1526299180
4814,16,Jits_ISO_5,2,5,63,98,1526309228
4814,16,Jits_ISO_5,3,5,80,127,1526328640
4814,16,Jits_ISO_5,0,5,56,103,1526758764
4814,16,Jits_ISO_5,1,5,80,127,1526762052
4814,16,Jits_ISO_5,2,1,48,72,1526764420
4814,16,Jits_ISO_5,3,5,63,98,1526798692
4814,16,Jits_ISO_5,0,1,48,77,1527267908
4814,16,Jits_ISO_5,1,5,63,98,1527298276
4814,16,Jits_ISO_5,2,5,56,103,1527329144
4814,16,Jits_ISO_5,3,5,80,127,1527348628
4814,16,Jits_ISO_5,0,5,80,127,1527768348
4814,16,Jits_ISO_5,1,5,56,103,1527778544
4814,16,Jits_ISO_5,2,5,63,98,1527789112
4814,16,Jits_ISO_5,3,1,48,92,1527790224
4814,16,Jits_ISO_5,0,5,56,103,1528269140
4814,16,Jits_ISO_5,1,1,48,83,1528281920
4814,16,Jits_ISO_5,2,5,80,127,1528309072
4814,16,Jits_ISO_5,3,5,63,98,1528338892
4814,16,Jits_ISO_5,0,1,48,88,1528770952
4814,16,Jits_ISO_5,1,5,63,98,1528779292
4814,16,Jits_ISO_5,2,5,80,127,1528789412
4814,16,Jits_ISO_5,3,5,56,103,1528798712
4814,16,Jits_ISO_5,0,5,56,103,1529259252
4814,16,Jits_ISO_5,1,1,48,84,1529283492
4814,16,Jits_ISO_5,2,5,63,98,1529329000
4814,16,Jits_ISO_5,3,5,80,127,1529339196
4814,16,Jits_ISO_5,0,1,48,69,1529754992
4814,16,Jits_ISO_5,1,5,80,127,1529759072
4814,16,Jits_ISO_5,2,5,56,103,1529769264
4814,16,Jits_ISO_5,3,5,63,98,1529818492
4814,16,Jits_ISO_5,0,5,80,127,1530268920
4814,16,Jits_ISO_5,1,1,48,92,1530276228
4814,16,Jits_ISO_5,2,5,56,103,1530328480
4814,16,Jits_ISO_5,3,5,63,98,1530359272
4814,16,Jits_ISO_5,0,5,56,103,1530769040
4814,16,Jits_ISO_5,1,5,80,127,1530772108
4814,16,Jits_ISO_5,2,1,48,90,1530784816
4814,16,Jits_ISO_5,3,5,63,98,1530808672
4814,16,Jits_ISO_5,0,1,48,74,1531288524
4814,16,Jits_ISO_5,1,5,56,103,1531299264
4814,16,Jits_ISO_5,2,5,63,98,1531329088
4814,16,Jits_ISO_5,3,5,80,127,1531339060
4814,16,Jits_ISO_5,0,1,48,76,1531783388
4814,16,Jits_ISO_5,1,5,63,98,1531809264
4814,16,Jits_ISO_5,2,5,80,127,1531819384
4814,16,Jits_ISO_5,3,5,56,103,1531828532
4814,16,Jits_ISO_5,0,5,80,127,1532258636
4814,16,Jits_ISO_5,1,5,56,103,1532309008
4814,16,Jits_ISO_5,2,1,48,90,1532311852
4814,16,Jits_ISO_5,3,5,63,98,1532313488
4814,16,Jits_ISO_5,0,1,48,105,1532779244
4814,16,Jits_ISO_5,1,5,56,103,1532789156
4814,16,Jits_ISO_5,2,5,80,127,1532808444
4814,16,Jits_ISO_5,3,5,63,98,1532818936
4814,16,Jits_ISO_5,0,1,48,81,1533265576
4814,16,Jits_ISO_5,1,5,63,98,1533269356
4814,16,Jits_ISO_5,2,5,56,103,1533299104
4814,16,Jits_ISO_5,3,5,80,127,1533318392
4814,16,Jits_ISO_5,0,1,48,101,1533779136
4814,16,Jits_ISO_5,1,5,56,103,1533780848
4814,16,Jits_ISO_5,2,5,80,127,1533788432
4814,16,Jits_ISO_5,3,5,63,98,1533859180
4814,16,Jits_ISO_5,0,5,63,98,1534268932
4814,16,Jits_ISO_5,1,1,48,77,1534293180
4814,16,Jits_ISO_5,2,5,80,127,1534308864
4814,16,Jits_ISO_5,3,5,56,103,1534348600
4814,16,Jits_ISO_5,0,5,56,103,1534778932
4814,16,Jits_ISO_5,1,5,63,98,1534789052
4814,16,Jits_ISO_5,2,1,48,73,1534805428
4814,16,Jits_ISO_5,3,5,80,127,1534808384
4814,16,Jits_ISO_5,0,1,48,88,1535295344
4814,16,Jits_ISO_5,1,5,63,98,1535319352
4814,16,Jits_ISO_5,2,5,80,127,1535338912
4814,16,Jits_ISO_5,3,5,56,103,1535359300
4814,16,Jits_ISO_5,0,5,56,103,1535758940
4814,16,Jits_ISO_5,1,1,48,87,1535794868
4814,16,Jits_ISO_5,2,5,80,127,1535838728
4814,16,Jits_ISO_5,3,5,63,98,1535848776
4814,16,Jits_ISO_5,0,1,48,98,1536268928
4814,16,Jits_ISO_5,1,5,80,127,1536299368
4814,16,Jits_ISO_5,2,5,63,98,1536308516
4814,16,Jits_ISO_5,3,5,56,103,1536339388
4814,16,Jits_ISO_5,0,5,63,98,1536759248
4814,16,Jits_ISO_5,1,1,48,67,1536765136
4814,16,Jits_ISO_5,2,5,80,127,1536799028
4814,16,Jits_ISO_5,3,5,56,103,1536858444
4814,16,Jits_ISO_5,0,5,63,98,1537269168
4814,16,Jits_ISO_5,1,1,48,80,1537282924
4814,16,Jits_ISO_5,2,5,56,103,1537319216
4814,16,Jits_ISO_5,3,5,80,127,1537348964
4814,16,Jits_ISO_5,0,1,48,93,1537779020
4814,16,Jits_ISO_5,1,5,80,127,1537780652
4814,16,Jits_ISO_5,2,5,63,98,1537789284
4814,16,Jits_ISO_5,3,5,56,103,1537858812
4814,16,Jits_ISO_5,0,1,48,99,1538286656
4814,16,Jits_ISO_5,1,5,80,127,1538349396
4814,16,Jits_ISO_5,2,5,56,103,1538358916
4814,16,Jits_ISO_5,3,5,63,98,1538361984
4814,16,Jits_ISO_5,0,5,56,103,1538788824
4814,16,Jits_ISO_5,1,5,80,127,1538809060
4814,16,Jits_ISO_5,2,5,63,98,1538818504
4814,16,Jits_ISO_5,3,1,48,110,1538829116
4814,16,Jits_ISO_5,0,5,63,98,1539298920
4814,16,Jits_ISO_5,1,1,48,89,1539322192
4814,16,Jits_ISO_5,2,5,56,103,1539338704
4814,16,Jits_ISO_5,3,5,80,127,1539359012
4814,16,Jits_ISO_5,0,5,63,98,1539799628
4814,16,Jits_ISO_5,1,1,48,87,1539814436
4814,16,Jits_ISO_5,2,5,56,103,1539858888
4814,16,Jits_ISO_5,3,5,80,127,1539861956
4814,16,Jits_ISO_5,0,5,56,103,1540259132
4814,16,Jits_ISO_5,1,5,80,127,1540278768
4814,16,Jits_ISO_5,2,1,48,89,1540307884
4814,16,Jits_ISO_5,3,5,63,98,1540318620
4814,16,Jits_ISO_5,0,5,56,103,1540788840
4814,16,Jits_ISO_5,1,5,63,98,1540809004
4814,16,Jits_ISO_5,2,5,80,127,1540819272
4814,16,Jits_ISO_5,3,1,48,79,1540855788
4814,16,Jits_ISO_5,0,5,80,127,1541258696
4814,16,Jits_ISO_5,1,5,56,103,1541289196
4814,16,Jits_ISO_5,2,5,63,98,1541329204
4814,16,Jits_ISO_5,3,1,48,98,1541354192
4814,16,Jits_ISO_5,0,5,80,127,1541768776
4814,16,Jits_ISO_5,1,5,56,103,1541789012
4814,16,Jits_ISO_5,2,1,48,91,1541804932
4814,16,Jits_ISO_5,3,5,63,98,1541848496
4814,16,Jits_ISO_5,0,5,56,103,1542278712
4814,16,Jits_ISO_5,1,5,80,127,1542298948
4814,16,Jits_ISO_5,2,1,48,103,1542325804
4814,16,Jits_ISO_5,3,5,63,98,1542359548
4814,16,Jits_ISO_5,0,5,80,127,1542758744
4814,16,Jits_ISO_5,1,5,56,103,1542768864
4814,16,Jits_ISO_5,2,5,63,98,1542808900
4814,16,Jits_ISO_5,3,1,48,70,1542819216
4814,16,Jits_ISO_5,0,5,63,98,1543258560
4814,16,Jits_ISO_5,1,5,56,103,1543298644
4814,16,Jits_ISO_5,2,5,80,127,1543301712
4814,16,Jits_ISO_5,3,1,48,85,1543339448
4814,16,Jits_ISO_5,0,5,63,98,1543778560
4814,16,Jits_ISO_5,1,1,48,75,1543798988
4814,16,Jits_ISO_5,2,5,80,127,1543818588
4814,16,Jits_ISO_5,3,5,56,103,1543849456
4814,16,Jits_ISO_5,0,5,56,103,1544269072
4814,16,Jits_ISO_5,1,5,63,98,1544279416
4814,16,Jits_ISO_5,2,5,80,127,1544309088
4814,16,Jits_ISO_5,3,1,48,79,1544317684
4814,16,Jits_ISO_5,0,5,80,127,1544758772
4814,16,Jits_ISO_5,1,5,63,98,1544829424
4814,16,Jits_ISO_5,2,1,48,81,1544834040
4814,16,Jits_ISO_5,3,5,56,103,1544838592
4814,16,Jits_ISO_5,0,5,63,98,1545259496
4814,16,Jits_ISO_5,1,1,48,93,1545327672
4814,16,Jits_ISO_5,2,5,56,103,1545329540
4814,16,Jits_ISO_5,3,5,80,127,1545339736
4814,16,Jits_ISO_5,0,5,63,98,1545759004
4814,16,Jits_ISO_5,1,5,56,103,1545778568
4814,16,Jits_ISO_5,2,1,48,75,1545801764
4814,16,Jits_ISO_5,3,5,80,127,1545818648
4814,16,Jits_ISO_5,0,5,56,103,1546269000
4814,16,Jits_ISO_5,1,5,63,98,1546279272
4814,16,Jits_ISO_5,2,1,48,78,1546280236
4814,16,Jits_ISO_5,3,5,80,127,1546359132
4814,16,Jits_ISO_5,0,5,63,98,1546758708
4814,16,Jits_ISO_5,1,1,48,105,1546786844
4814,16,Jits_ISO_5,2,5,56,103,1546789424
4814,16,Jits_ISO_5,3,5,80,127,1546829284
4814,16,Jits_ISO_5,0,5,56,103,1547259192
4814,16,Jits_ISO_5,1,1,48,94,1547268684
4814,16,Jits_ISO_5,2,1,38,20,1547278556
4814,16,Jits_ISO_5,3,5,63,98,1547299176
4814,16,Jits_ISO_5,4,5,80,127,1547339112
4814,16,Jits_ISO_5,0,5,80,127,1547758856
4814,16,Jits_ISO_5,1,1,48,98,1547760868
4814,16,Jits_ISO_5,2,5,56,103,1547838792
4814,16,Jits_ISO_5,3,5,63,98,1547849060
4814,16,Jits_ISO_5,0,1,48,95,1548256856
4814,16,Jits_ISO_5,1,5,56,103,1548298752
4814,16,Jits_ISO_5,2,5,63,98,1548301820
4814,16,Jits_ISO_5,3,5,80,127,1548308948
4814,16,Jits_ISO_5,0,1,48,75,1548771408
4814,16,Jits_ISO_5,1,5,56,103,1548818784
4814,16,Jits_ISO_5,2,5,63,98,1548839464
4814,16,Jits_ISO_5,3,5,80,127,1548848388
4814,16,Jits_ISO_5,0,1,48,76,1549278520
4814,16,Jits_ISO_5,1,5,63,98,1549280156
4814,16,Jits_ISO_5,2,5,80,127,1549288784
4814,16,Jits_ISO_5,3,5,56,103,1549309392
4814,16,Jits_ISO_5,0,1,48,83,1549763304
4814,16,Jits_ISO_5,1,5,63,98,1549779516
4814,16,Jits_ISO_5,2,5,56,103,1549860436
4814,16,Jits_ISO_5,3,5,80,127,1549863332
4814,16,Jits_ISO_5,0,5,63,98,1550278952
4814,16,Jits_ISO_5,1,1,48,94,1550290536
4814,16,Jits_ISO_5,2,5,56,103,1550298656
4814,16,Jits_ISO_5,3,1,38,21,1550301172
4814,16,Jits_ISO_5,4,5,80,127,1550329292
4814,16,Jits_ISO_5,0,5,56,103,1550778688
4814,16,Jits_ISO_5,1,1,48,78,1550790348
4814,16,Jits_ISO_5,2,5,63,98,1550799288
4814,16,Jits_ISO_5,3,5,80,127,1550808440
4814,16,Jits_ISO_5,0,1,48,67,1551300500
4814,16,Jits_ISO_5,1,5,56,103,1551309368
4814,16,Jits_ISO_5,2,5,63,98,1551338820
4814,16,Jits_ISO_5,3,5,80,127,1551342408
4814,16,Jits_ISO_5,0,5,56,103,1551758688
4814,16,Jits_ISO_5,1,1,48,96,1551782036
4814,16,Jits_ISO_5,2,5,63,98,1551798544
4814,16,Jits_ISO_5,3,5,80,127,1551859004
4814,16,Jits_ISO_5,0,5,56,103,1552278968
4814,16,Jits_ISO_5,1,1,48,80,1552281936
4814,16,Jits_ISO_5,2,5,63,98,1552289600
4814,16,Jits_ISO_5,3,5,80,127,1552348568
4814,16,Jits_ISO_5,0,5,56,103,1552778564
4814,16,Jits_ISO_5,1,1,48,72,1552779904
4814,16,Jits_ISO_5,2,1,38,19,1552789624
4814,16,Jits_ISO_5,3,5,80,127,1552799232
4814,16,Jits_ISO_5,4,5,63,98,1552828760
4814,16,Jits_ISO_5,0,1,48,61,1553277144
4814,16,Jits_ISO_5,1,5,80,127,1553279556
4814,16,Jits_ISO_5,2,5,56,103,1553288504
4814,16,Jits_ISO_5,3,5,63,98,1553309036
4814,16,Jits_ISO_5,0,5,63,98,1553768880
4814,16,Jits_ISO_5,1,1,48,71,1553776188
4814,16,Jits_ISO_5,2,5,80,127,1553848544
4814,16,Jits_ISO_5,3,5,56,103,1553858888
4814,16,Jits_ISO_5,0,1,48,96,1554303416
4814,16,Jits_ISO_5,1,5,80,127,1554329168
4814,16,Jits_ISO_5,2,5,56,103,1554349324
4814,16,Jits_ISO_5,3,5,63,98,1554352472
4814,16,Jits_ISO_5,0,5,63,98,1554798912
4814,16,Jits_ISO_5,1,5,80,127,1554802424
4814,16,Jits_ISO_5,2,1,48,101,1554825196
4814,16,Jits_ISO_5,3,5,56,103,1554859464
4814,16,Jits_ISO_5,0,5,56,103,1555279248
4814,16,Jits_ISO_5,1,5,80,127,1555288396
4814,16,Jits_ISO_5,2,5,63,98,1555329376
4814,16,Jits_ISO_5,3,1,48,77,1555372152
4814,16,Jits_ISO_5,0,5,56,103,1555758396
4814,16,Jits_ISO_5,1,1,48,94,1555808936
4814,16,Jits_ISO_5,2,5,63,98,1555819000
4814,16,Jits_ISO_5,3,5,80,127,1555829196
4814,16,Jits_ISO_5,0,5,63,98,1556269304
4814,16,Jits_ISO_5,1,5,80,127,1556309468
4814,16,Jits_ISO_5,2,1,48,89,1556322248
4814,16,Jits_ISO_5,3,5,56,103,1556349396
4814,16,Jits_ISO_5,0,5,56,103,1556769264
4814,16,Jits_ISO_5,1,1,48,81,1556795972
4814,16,Jits_ISO_5,2,5,63,98,1556849124
4814,16,Jits_ISO_5,3,5,80,127,1556852412
4814,16,Jits_ISO_5,0,9999,9999,9999,1497557052
4814,16,Jits_ISO_5,1,9999,9999,9999,1498056772
4814,16,Jits_ISO_5,2,9999,9999,9999,1498556492
4814,16,Jits_ISO_5,3,9999,9999,9999,1499056224
4814,16,Jits_ISO_5,4,9999,9999,9999,1499556932
4814,16,Jits_ISO_5,5,9999,9999,9999,1500056668
4814,16,Jits_ISO_5,6,9999,9999,9999,1500556404
4814,16,Jits_ISO_5,7,9999,9999,9999,1501056052
4814,16,Jits_ISO_5,8,9999,9999,9999,1501556844
4814,16,Jits_ISO_5,9,9999,9999,9999,1502056520
4814,16,Jits_ISO_5,10,9999,9999,9999,1502556264
4814,16,Jits_ISO_5,11,9999,9999,9999,1503056988
4814,16,Jits_ISO_5,12,9999,9999,9999,1503556716
4814,16,Jits_ISO_5,13,9999,9999,9999,1504056376
4814,16,Jits_ISO_5,14,9999,9999,9999,1504556108
4814,16,Jits_ISO_5,15,9999,9999,9999,1505056828
4814,16,Jits_ISO_5,16,9999,9999,9999,1505556576
4814,16,Jits_ISO_5,17,9999,9999,9999,1506056308
4814,16,Jits_ISO_5,18,9999,9999,9999,1506557024
4814,16,Jits_ISO_5,19,9999,9999,9999,1507056700
4814,16,Jits_ISO_5,20,9999,9999,9999,1507556448
4814,16,Jits_ISO_5,21,9999,9999,9999,1508056124
4814,16,Jits_ISO_5,22,9999,9999,9999,1508556916
4814,16,Jits_ISO_5,23,9999,9999,9999,1509056588
4814,16,Jits_ISO_5,24,9999,9999,9999,1509556340
4814,16,Jits_ISO_5,25,9999,9999,9999,1510057052
4814,16,Jits_ISO_5,26,9999,9999,9999,1510556788
4814,16,Jits_ISO_5,27,9999,9999,9999,1511056436
4814,16,Jits_ISO_5,28,9999,9999,9999,1511556168
4814,16,Jits_ISO_5,29,9999,9999,9999,1512056952
4814,16,Jits_ISO_5,30,9999,9999,9999,1512556624
4814,16,Jits_ISO_5,31,9999,9999,9999,1513056372
4814,16,Jits_ISO_5,32,9999,9999,9999,1513557092
4814,16,Jits_ISO_5,33,9999,9999,9999,1514056816
4814,16,Jits_ISO_5,34,9999,9999,9999,1514556488
4814,16,Jits_ISO_5,35,9999,9999,9999,1515056240
4814,16,Jits_ISO_5,36,9999,9999,9999,1515556932
4814,16,Jits_ISO_5,37,9999,9999,9999,1516056668
4814,16,Jits_ISO_5,38,9999,9999,9999,1516556404
4814,16,Jits_ISO_5,39,9999,9999,9999,1517056068
4814,16,Jits_ISO_5,40,9999,9999,9999,1517556852
4814,16,Jits_ISO_5,41,9999,9999,9999,1518056508
4814,16,Jits_ISO_5,42,9999,9999,9999,1518556256
4814,16,Jits_ISO_5,43,9999,9999,9999,1519056988
4814,16,Jits_ISO_5,44,9999,9999,9999,1519556680
4814,16,Jits_ISO_5,45,9999,9999,9999,1520056436
4814,16,Jits_ISO_5,46,9999,9999,9999,1520556144
4814,16,Jits_ISO_5,47,9999,9999,9999,1521056860
4814,16,Jits_ISO_5,48,9999,9999,9999,1521556592
4814,16,Jits_ISO_5,49,9999,9999,9999,1522056256
4814,16,Jits_ISO_5,50,9999,9999,9999,1522556996
4814,16,Jits_ISO_5,51,9999,9999,9999,1523056736
4814,16,Jits_ISO_5,52,9999,9999,9999,1523556472
4814,16,Jits_ISO_5,53,9999,9999,9999,1524056176
4814,16,Jits_ISO_5,54,9999,9999,9999,1524556916
4814,16,Jits_ISO_5,55,9999,9999,9999,1525056592
4814,16,Jits_ISO_5,56,9999,9999,9999,1525556340
4814,16,Jits_ISO_5,57,9999,9999,9999,1526057056
4814,16,Jits_ISO_5,58,9999,9999,9999,1526556784
4814,16,Jits_ISO_5,59,9999,9999,9999,1527056504
4814,16,Jits_ISO_5,60,9999,9999,9999,1527556180
4814,16,Jits_ISO_5,61,9999,9999,9999,1528056956
4814,16,Jits_ISO_5,62,9999,9999,9999,1528556628
4814,16,Jits_ISO_5,63,9999,9999,9999,1529056376
4814,16,Jits_ISO_5,64,9999,9999,9999,1529557080
4814,16,Jits_ISO_5,65,9999,9999,9999,1530056824
4814,16,Jits_ISO_5,66,9999,9999,9999,1530556484
4814,16,Jits_ISO_5,67,9999,9999,9999,1531056220
4814,16,Jits_ISO_5,68,9999,9999,9999,1531556944
4814,16,Jits_ISO_5,69,9999,9999,9999,1532056680
4814,16,Jits_ISO_5,70,9999,9999,9999,1532556404
4814,16,Jits_ISO_5,71,9999,9999,9999,1533056052
4814,16,Jits_ISO_5,72,9999,9999,9999,1533556852
4814,16,Jits_ISO_5,73,9999,9999,9999,1534056516
4814,16,Jits_ISO_5,74,9999,9999,9999,1534556272
4814,16,Jits_ISO_5,75,9999,9999,9999,1535056980
4814,16,Jits_ISO_5,76,9999,9999,9999,1535556660
4814,16,Jits_ISO_5,77,9999,9999,9999,1536056396
4814,16,Jits_ISO_5,78,9999,9999,9999,1536556148
4814,16,Jits_ISO_5,79,9999,9999,9999,1537056852
4814,16,Jits_ISO_5,80,9999,9999,9999,1537556584
4814,16,Jits_ISO_5,81,9999,9999,9999,1538056248
4814,16,Jits_ISO_5,82,9999,9999,9999,1538557024
4814,16,Jits_ISO_5,83,9999,9999,9999,1539056756
4814,16,Jits_ISO_5,84,9999,9999,9999,1539556448
4814,16,Jits_ISO_5,85,9999,9999,9999,1540056176
4814,16,Jits_ISO_5,86,9999,9999,9999,1540556880
4814,16,Jits_ISO_5,87,9999,9999,9999,1541056628
4814,16,Jits_ISO_5,88,9999,9999,9999,1541556296
4814,16,Jits_ISO_5,89,9999,9999,9999,1542057016
4814,16,Jits_ISO_5,90,9999,9999,9999,1542556760
4814,16,Jits_ISO_5,91,9999,9999,9999,1543056444
4814,16,Jits_ISO_5,92,9999,9999,9999,1543556152
4814,16,Jits_ISO_5,93,9999,9999,9999,1544056908
4814,16,Jits_ISO_5,94,9999,9999,9999,1544556632
4814,16,Jits_ISO_5,95,9999,9999,9999,1545056380
4814,16,Jits_ISO_5,96,9999,9999,9999,1545557100
4814,16,Jits_ISO_5,97,9999,9999,9999,1546056756
4814,16,Jits_ISO_5,98,9999,9999,9999,1546556492
4814,16,Jits_ISO_5,99,9999,9999,9999,1547056228
4814,16,Jits_ISO_5,100,9999,9999,9999,1547556972
4814,16,Jits_ISO_5,101,9999,9999,9999,1548056684
4814,16,Jits_ISO_5,102,9999,9999,9999,1548556348
4814,16,Jits_ISO_5,103,9999,9999,9999,1549056088
4814,16,Jits_ISO_5,104,9999,9999,9999,1549556792
4814,16,Jits_ISO_5,105,9999,9999,9999,1550056520
4814,16,Jits_ISO_5,106,9999,9999,9999,1550556216
4814,16,Jits_ISO_5,107,9999,9999,9999,1551056960
4814,16,Jits_ISO_5,108,9999,9999,9999,1551556704
4814,16,Jits_ISO_5,109,9999,9999,9999,1552056440
4814,16,Jits_ISO_5,110,9999,9999,9999,1552556116
4814,16,Jits_ISO_5,111,9999,9999,9999,1553056880
4814,16,Jits_ISO_5,112,9999,9999,9999,1553556588
4814,16,Jits_ISO_5,113,9999,9999,9999,1554056248
4814,16,Jits_ISO_5,114,9999,9999,9999,1554557004
4814,16,Jits_ISO_5,115,9999,9999,9999,1555056728
4814,16,Jits_ISO_5,116,9999,9999,9999,1555556472
4814,16,Jits_ISO_5,117,9999,9999,9999,1556056144
4814,16,Jits_ISO_5,118,9999,9999,9999,1556556868
4814,16,Jits_ISO_5,119,9999,9999,9999,1557056596
4815,7,Jits_ISO_8,0,5,56,103,1566095776
4815,7,Jits_ISO_8,1,5,63,98,1566099176
4815,7,Jits_ISO_8,2,5,80,127,1566102148
4815,7,Jits_ISO_8,3,1,48,60,1566327768
4815,7,Jits_ISO_8,0,5,56,103,1566895560
4815,7,Jits_ISO_8,1,5,63,98,1566898736
4815,7,Jits_ISO_8,2,5,80,127,1566901856
4815,7,Jits_ISO_8,3,1,48,79,1567114096
4815,7,Jits_ISO_8,0,5,80,127,1567636016
4815,7,Jits_ISO_8,1,5,63,98,1567725928
4815,7,Jits_ISO_8,2,5,56,103,1567736200
4815,7,Jits_ISO_8,3,1,48,83,1567787564
4815,7,Jits_ISO_8,0,1,48,68,1568450012
4815,7,Jits_ISO_8,1,5,56,103,1568456112
4815,7,Jits_ISO_8,2,5,63,98,1568466160
4815,7,Jits_ISO_8,3,5,80,127,1568556352
4815,7,Jits_ISO_8,0,1,48,86,1569198020
4815,7,Jits_ISO_8,1,5,63,98,1569226072
4815,7,Jits_ISO_8,2,5,80,127,1569255968
4815,7,Jits_ISO_8,3,5,56,103,1569285348
4815,7,Jits_ISO_8,0,1,48,84,1569957568
4815,7,Jits_ISO_8,1,5,56,103,1570026000
4815,7,Jits_ISO_8,2,5,80,127,1570126088
4815,7,Jits_ISO_8,3,5,63,98,1570176364
4815,7,Jits_ISO_8,0,1,48,80,1570778260
4815,7,Jits_ISO_8,1,5,56,103,1570825564
4815,7,Jits_ISO_8,2,5,80,127,1570876576
4815,7,Jits_ISO_8,3,5,63,98,1570915840
4815,7,Jits_ISO_8,0,1,48,86,1571569724
4815,7,Jits_ISO_8,1,5,80,127,1571655988
4815,7,Jits_ISO_8,2,5,63,98,1571685872
4815,7,Jits_ISO_8,3,5,56,103,1571756328
4815,7,Jits_ISO_8,0,1,48,96,1572381868
4815,7,Jits_ISO_8,1,5,63,98,1572485456
4815,7,Jits_ISO_8,2,5,56,103,1572516180
4815,7,Jits_ISO_8,3,5,80,127,1572575744
4815,7,Jits_ISO_8,0,5,56,103,1573225824
4815,7,Jits_ISO_8,1,5,80,127,1573228892
4815,7,Jits_ISO_8,2,1,48,73,1573234796
4815,7,Jits_ISO_8,3,5,63,98,1573345924
4815,7,Jits_ISO_8,0,1,48,73,1573990508
4815,7,Jits_ISO_8,1,1,38,18,1574000900
4815,7,Jits_ISO_8,2,5,56,103,1574105508
4815,7,Jits_ISO_8,3,5,80,127,1574146348
4815,7,Jits_ISO_8,4,5,63,98,1574155644
4815,7,Jits_ISO_8,0,1,48,88,1574815472
4815,7,Jits_ISO_8,1,1,38,20,1574824820
4815,7,Jits_ISO_8,2,5,56,103,1574866352
4815,7,Jits_ISO_8,3,5,80,127,1574885912
4815,7,Jits_ISO_8,4,5,63,98,1574965664
4815,7,Jits_ISO_8,0,1,48,92,1575632820
4815,7,Jits_ISO_8,1,5,80,127,1575655932
4815,7,Jits_ISO_8,2,5,56,103,1575756244
4815,7,Jits_ISO_8,3,5,63,98,1575766440
4815,7,Jits_ISO_8,0,5,63,98,1576425836
4815,7,Jits_ISO_8,1,1,48,86,1576480344
4815,7,Jits_ISO_8,2,5,80,127,1576486296
4815,7,Jits_ISO_8,3,1,38,19,1576490684
4815,7,Jits_ISO_8,4,5,56,103,1576495660
4815,7,Jits_ISO_8,0,5,56,103,1577225524
4815,7,Jits_ISO_8,1,1,48,85,1577239584
4815,7,Jits_ISO_8,2,1,38,19,1577249596
4815,7,Jits_ISO_8,3,5,63,98,1577296300
4815,7,Jits_ISO_8,4,5,80,127,1577299964
4815,7,Jits_ISO_8,0,1,48,100,1577993876
4815,7,Jits_ISO_8,1,5,63,98,1578056156
4815,7,Jits_ISO_8,2,5,56,103,1578106192
4815,7,Jits_ISO_8,3,5,80,127,1578109408
4815,7,Jits_ISO_8,0,1,48,85,1578799360
4815,7,Jits_ISO_8,1,1,38,19,1578809380
4815,7,Jits_ISO_8,2,5,56,103,1578815924
4815,7,Jits_ISO_8,3,5,80,127,1578818840
4815,7,Jits_ISO_8,4,5,63,98,1578906036
4815,7,Jits_ISO_8,0,1,48,73,1579606076
4815,7,Jits_ISO_8,1,1,38,18,1579616016
4815,7,Jits_ISO_8,2,5,63,98,1579655776
4815,7,Jits_ISO_8,3,5,56,103,1579745648
4815,7,Jits_ISO_8,4,5,80,127,1579776224
4815,7,Jits_ISO_8,0,5,56,103,1580445976
4815,7,Jits_ISO_8,1,1,48,67,1580464908
4815,7,Jits_ISO_8,2,1,38,17,1580474412
4815,7,Jits_ISO_8,3,5,63,98,1580546500
4815,7,Jits_ISO_8,4,5,80,127,1580575984
4815,7,Jits_ISO_8,0,1,48,90,1581264160
4815,7,Jits_ISO_8,1,5,63,98,1581266200
4815,7,Jits_ISO_8,2,5,56,103,1581275720
4815,7,Jits_ISO_8,3,5,80,127,1581365616
4815,7,Jits_ISO_8,0,1,48,81,1582050584
4815,7,Jits_ISO_8,1,1,38,19,1582061052
4815,7,Jits_ISO_8,2,5,63,98,1582085660
4815,7,Jits_ISO_8,3,5,56,103,1582166388
4815,7,Jits_ISO_8,4,5,80,127,1582169528
4815,7,Jits_ISO_8,0,5,80,127,1582846256
4815,7,Jits_ISO_8,1,5,63,98,1582865816
4815,7,Jits_ISO_8,2,1,48,69,1582891112
4815,7,Jits_ISO_8,3,5,56,103,1582926052
4815,7,Jits_ISO_8,0,1,48,77,1583666628
4815,7,Jits_ISO_8,1,5,56,103,1583686056
4815,7,Jits_ISO_8,2,5,63,98,1583705688
4815,7,Jits_ISO_8,3,5,80,127,1583709052
4815,7,Jits_ISO_8,0,5,63,98,1584426648
4815,7,Jits_ISO_8,1,1,48,70,1584438012
4815,7,Jits_ISO_8,2,5,80,127,1584506588
4815,7,Jits_ISO_8,3,5,56,103,1584515540
4815,7,Jits_ISO_8,0,1,48,84,1585206996
4815,7,Jits_ISO_8,1,1,38,19,1585216720
4815,7,Jits_ISO_8,2,5,63,98,1585245664
4815,7,Jits_ISO_8,3,5,56,103,1585265976
4815,7,Jits_ISO_8,4,5,80,127,1585316156
4815,7,Jits_ISO_8,0,1,48,88,1585970104
4815,7,Jits_ISO_8,1,1,38,20,1585980052
4815,7,Jits_ISO_8,2,5,80,127,1586046612
4815,7,Jits_ISO_8,3,5,63,98,1586086436
4815,7,Jits_ISO_8,4,5,56,103,1586105624
4815,7,Jits_ISO_8,0,1,48,98,1586789400
4815,7,Jits_ISO_8,1,5,56,103,1586885936
4815,7,Jits_ISO_8,2,5,63,98,1586896356
4815,7,Jits_ISO_8,3,5,80,127,1586915844
4815,7,Jits_ISO_8,0,5,56,103,1587616068
4815,7,Jits_ISO_8,1,1,48,78,1587674336
4815,7,Jits_ISO_8,2,5,63,98,1587706344
4815,7,Jits_ISO_8,3,5,80,127,1587765612
4815,7,Jits_ISO_8,0,1,48,79,1588438672
4815,7,Jits_ISO_8,1,5,80,127,1588445672
4815,7,Jits_ISO_8,2,1,38,19,1588448940
4815,7,Jits_ISO_8,3,5,56,103,1588455784
4815,7,Jits_ISO_8,4,5,63,98,1588525392
4815,7,Jits_ISO_8,0,1,48,78,1589198804
4815,7,Jits_ISO_8,1,1,38,18,1589208748
4815,7,Jits_ISO_8,2,5,63,98,1589276136
4815,7,Jits_ISO_8,3,5,80,127,1589366304
4815,7,Jits_ISO_8,4,5,56,103,1589376452
4815,7,Jits_ISO_8,0,5,63,98,1590016364
4815,7,Jits_ISO_8,1,5,80,127,1590065740
4815,7,Jits_ISO_8,2,1,48,85,1590069612
4815,7,Jits_ISO_8,3,5,56,103,1590125900
4815,7,Jits_ISO_8,0,1,48,80,1590838584
4815,7,Jits_ISO_8,1,5,56,103,1590845804
4815,7,Jits_ISO_8,2,1,38,19,1590848852
4815,7,Jits_ISO_8,3,5,80,127,1590896152
4815,7,Jits_ISO_8,4,5,63,98,1590915588
4815,7,Jits_ISO_8,0,5,56,103,1591615764
4815,7,Jits_ISO_8,1,1,48,103,1591616728
4815,7,Jits_ISO_8,2,5,80,127,1591676444
4815,7,Jits_ISO_8,3,5,63,98,1591745912
4815,7,Jits_ISO_8,0,1,48,86,1592388040
4815,7,Jits_ISO_8,1,5,56,103,1592415564
4815,7,Jits_ISO_8,2,5,80,127,1592446436
4815,7,Jits_ISO_8,3,5,63,98,1592476136
4815,7,Jits_ISO_8,0,1,48,82,1593193668
4815,7,Jits_ISO_8,1,1,38,19,1593203516
4815,7,Jits_ISO_8,2,5,56,103,1593256476
4815,7,Jits_ISO_8,3,5,80,127,1593275668
4815,7,Jits_ISO_8,4,5,63,98,1593336608
4815,7,Jits_ISO_8,0,1,48,72,1593967644
4815,7,Jits_ISO_8,1,1,38,18,1593977512
4815,7,Jits_ISO_8,2,5,80,127,1594135836
4815,7,Jits_ISO_8,3,5,56,103,1594146256
4815,7,Jits_ISO_8,4,5,63,98,1594156304
4815,7,Jits_ISO_8,0,1,48,95,1594883792
4815,7,Jits_ISO_8,1,5,56,103,1594895728
4815,7,Jits_ISO_8,2,5,80,127,1594935592
4815,7,Jits_ISO_8,3,5,63,98,1594966240
4815,7,Jits_ISO_8,0,5,56,103,1595665704
4815,7,Jits_ISO_8,1,5,63,98,1595695452
4815,7,Jits_ISO_8,2,1,48,82,1595698200
4815,7,Jits_ISO_8,3,1,38,19,1595707768
4815,7,Jits_ISO_8,4,5,80,127,1595736488
4815,7,Jits_ISO_8,0,5,80,127,1596416400
4815,7,Jits_ISO_8,1,1,48,82,1596459304
4815,7,Jits_ISO_8,2,5,63,98,1596465400
4815,7,Jits_ISO_8,3,5,56,103,1596486156
4815,7,Jits_ISO_8,0,1,48,81,1597206416
4815,7,Jits_ISO_8,1,5,56,103,1597245780
4815,7,Jits_ISO_8,2,5,80,127,1597315400
4815,7,Jits_ISO_8,3,5,63,98,1597375716
4815,7,Jits_ISO_8,0,5,80,127,1598045424
4815,7,Jits_ISO_8,1,1,48,80,1598086184
4815,7,Jits_ISO_8,2,5,63,98,1598135728
4815,7,Jits_ISO_8,3,5,56,103,1598156040
4815,7,Jits_ISO_8,0,5,63,98,1598865708
4815,7,Jits_ISO_8,1,1,48,82,1598877072
4815,7,Jits_ISO_8,2,5,56,103,1598886312
4815,7,Jits_ISO_8,3,5,80,127,1598926248
4815,7,Jits_ISO_8,0,5,80,127,1599625560
4815,7,Jits_ISO_8,1,5,63,98,1599646240
4815,7,Jits_ISO_8,2,1,48,58,1599690116
4815,7,Jits_ISO_8,3,1,38,20,1599701776
4815,7,Jits_ISO_8,4,5,56,103,1599726084
4815,7,Jits_ISO_8,0,5,63,98,1600416184
4815,7,Jits_ISO_8,1,1,48,89,1600448752
4815,7,Jits_ISO_8,2,5,56,103,1600525644
4815,7,Jits_ISO_8,3,5,80,127,1600528784
4815,7,Jits_ISO_8,0,5,63,98,1601236484
4815,7,Jits_ISO_8,1,1,48,68,1601240576
4815,7,Jits_ISO_8,2,5,56,103,1601245552
4815,7,Jits_ISO_8,3,5,80,127,1601248620
4815,7,Jits_ISO_8,0,1,48,88,1602008644
4815,7,Jits_ISO_8,1,5,56,103,1602015568
4815,7,Jits_ISO_8,2,5,80,127,1602136404
4815,7,Jits_ISO_8,3,5,63,98,1602176368
4815,7,Jits_ISO_8,0,5,56,103,1602836036
4815,7,Jits_ISO_8,1,1,48,88,1602891516
4815,7,Jits_ISO_8,2,5,80,127,1602915680
4815,7,Jits_ISO_8,3,5,63,98,1602936288
4815,7,Jits_ISO_8,0,5,56,103,1603635460
4815,7,Jits_ISO_8,1,1,48,78,1603641192
4815,7,Jits_ISO_8,2,5,63,98,1603746200
4815,7,Jits_ISO_8,3,5,80,127,1603749564
4815,7,Jits_ISO_8,0,5,56,103,1604466044
4815,7,Jits_ISO_8,1,1,48,82,1604493152
4815,7,Jits_ISO_8,2,5,80,127,1604495884
4815,7,Jits_ISO_8,3,5,63,98,1604516196
4815,7,Jits_ISO_8,0,5,63,98,1605246284
4815,7,Jits_ISO_8,1,1,48,62,1605251968
4815,7,Jits_ISO_8,2,5,56,103,1605255600
4815,7,Jits_ISO_8,3,5,80,127,1605265948
4815,7,Jits_ISO_8,0,5,80,127,1606035900
4815,7,Jits_ISO_8,1,1,48,61,1606069060
4815,7,Jits_ISO_8,2,5,56,103,1606086020
4815,7,Jits_ISO_8,3,5,63,98,1606125960
4815,7,Jits_ISO_8,0,5,80,127,1606856000
4815,7,Jits_ISO_8,1,1,48,76,1606863604
4815,7,Jits_ISO_8,2,5,63,98,1606875556
4815,7,Jits_ISO_8,3,5,56,103,1606925760
4815,7,Jits_ISO_8,0,1,48,62,1607608636
4815,7,Jits_ISO_8,1,5,80,127,1607665980
4815,7,Jits_ISO_8,2,1,48,34,1607684072
4815,7,Jits_ISO_8,3,5,56,103,1607695860
4815,7,Jits_ISO_8,4,5,63,98,1607766440
4815,7,Jits_ISO_8,0,1,48,99,1608420928
4815,7,Jits_ISO_8,1,1,38,20,1608430872
4815,7,Jits_ISO_8,2,5,56,103,1608515868
4815,7,Jits_ISO_8,3,5,80,127,1608526128
4815,7,Jits_ISO_8,4,5,63,98,1608566052
4815,7,Jits_ISO_8,0,5,56,103,1609225540
4815,7,Jits_ISO_8,1,5,63,98,1609245924
4815,7,Jits_ISO_8,2,1,48,90,1609283888
4815,7,Jits_ISO_8,3,5,80,127,1609315968
4815,7,Jits_ISO_8,0,5,63,98,1610046008
4815,7,Jits_ISO_8,1,5,80,127,1610106328
4815,7,Jits_ISO_8,2,1,48,79,1610119956
4815,7,Jits_ISO_8,3,5,56,103,1610125608
4815,7,Jits_ISO_8,0,5,80,127,1610836204
4815,7,Jits_ISO_8,1,5,56,103,1610865956
4815,7,Jits_ISO_8,2,5,63,98,1610895876
4815,7,Jits_ISO_8,3,1,48,100,1610908812
4815,7,Jits_ISO_8,0,5,56,103,1611636080
4815,7,Jits_ISO_8,1,1,48,55,1611677964
4815,7,Jits_ISO_8,2,5,63,98,1611695448
4815,7,Jits_ISO_8,3,5,80,127,1611755836
4815,7,Jits_ISO_8,0,1,48,84,1612430848
4815,7,Jits_ISO_8,1,5,80,127,1612456352
4815,7,Jits_ISO_8,2,5,56,103,1612475916
4815,7,Jits_ISO_8,3,5,63,98,1612546404
4815,7,Jits_ISO_8,0,1,48,91,1613218424
4815,7,Jits_ISO_8,1,5,80,127,1613255912
4815,7,Jits_ISO_8,2,5,63,98,1613275476
4815,7,Jits_ISO_8,3,5,56,103,1613306272
4815,7,Jits_ISO_8,0,1,48,96,1614006372
4815,7,Jits_ISO_8,1,5,80,127,1614045728
4815,7,Jits_ISO_8,2,5,63,98,1614066112
4815,7,Jits_ISO_8,3,5,56,103,1614125368
4815,7,Jits_ISO_8,0,1,48,92,1614788016
4815,7,Jits_ISO_8,1,5,80,127,1614846260
4815,7,Jits_ISO_8,2,5,56,103,1614945748
4815,7,Jits_ISO_8,3,5,63,98,1614976568
4815,7,Jits_ISO_8,0,1,48,89,1615597024
4815,7,Jits_ISO_8,1,5,63,98,1615635784
4815,7,Jits_ISO_8,2,5,80,127,1615685912
4815,7,Jits_ISO_8,3,5,56,103,1615705384
4815,7,Jits_ISO_8,0,1,48,90,1616441000
4815,7,Jits_ISO_8,1,5,80,127,1616475720
4815,7,Jits_ISO_8,2,5,56,103,1616506140
4815,7,Jits_ISO_8,3,5,63,98,1616509360
4815,7,Jits_ISO_8,0,1,48,72,1617299168
4815,7,Jits_ISO_8,1,5,63,98,1617305864
4815,7,Jits_ISO_8,2,5,56,103,1617346028
4815,7,Jits_ISO_8,3,5,80,127,1617366636
4815,7,Jits_ISO_8,0,5,80,127,1618046612
4815,7,Jits_ISO_8,1,1,48,92,1618054088
4815,7,Jits_ISO_8,2,5,63,98,1618126332
4815,7,Jits_ISO_8,3,5,56,103,1618166256
4815,7,Jits_ISO_8,0,1,48,71,1618848408
4815,7,Jits_ISO_8,1,1,38,18,1618858356
4815,7,Jits_ISO_8,2,5,63,98,1618865796
4815,7,Jits_ISO_8,3,5,80,127,1618946628
4815,7,Jits_ISO_8,4,5,56,103,1618965952
4815,7,Jits_ISO_8,0,5,56,103,1619706356
4815,7,Jits_ISO_8,1,1,48,66,1619713760
4815,7,Jits_ISO_8,2,5,63,98,1619715648
4815,7,Jits_ISO_8,3,1,38,18,1619724472
4815,7,Jits_ISO_8,4,5,80,127,1619756480
4815,7,Jits_ISO_8,0,5,56,103,1620426052
4815,7,Jits_ISO_8,1,5,80,127,1620429044
4815,7,Jits_ISO_8,2,1,48,86,1620484396
4815,7,Jits_ISO_8,3,1,38,20,1620494712
4815,7,Jits_ISO_8,4,5,63,98,1620566576
4815,7,Jits_ISO_8,0,5,56,103,1621215548
4815,7,Jits_ISO_8,1,5,63,98,1621305836
4815,7,Jits_ISO_8,2,1,48,72,1621317420
4815,7,Jits_ISO_8,3,1,38,19,1621327812
4815,7,Jits_ISO_8,4,5,80,127,1621376564
4815,7,Jits_ISO_8,0,1,48,86,1622040380
4815,7,Jits_ISO_8,1,5,63,98,1622096452
4815,7,Jits_ISO_8,2,5,80,127,1622099816
4815,7,Jits_ISO_8,3,5,56,103,1622155660
4815,7,Jits_ISO_8,0,1,48,81,1622857324
4815,7,Jits_ISO_8,1,5,80,127,1622935972
4815,7,Jits_ISO_8,2,5,56,103,1622956492
4815,7,Jits_ISO_8,3,5,63,98,1622965640
4815,7,Jits_ISO_8,0,5,56,103,1623645684
4815,7,Jits_ISO_8,1,5,63,98,1623655656
4815,7,Jits_ISO_8,2,1,48,82,1623659824
4815,7,Jits_ISO_8,3,5,80,127,1623725580
4815,7,Jits_ISO_8,0,5,80,127,1624446476
4815,7,Jits_ISO_8,1,1,48,80,1624464964
4815,7,Jits_ISO_8,2,5,56,103,1624495704
4815,7,Jits_ISO_8,3,5,63,98,1624545608
4815,7,Jits_ISO_8,0,1,48,99,1625256588
4815,7,Jits_ISO_8,1,1,38,21,1625266612
4815,7,Jits_ISO_8,2,5,56,103,1625326048
4815,7,Jits_ISO_8,3,5,63,98,1625336316
4815,7,Jits_ISO_8,4,5,80,127,1625376064
4815,7,Jits_ISO_8,0,5,56,103,1626066348
4815,7,Jits_ISO_8,1,1,48,100,1626073672
4815,7,Jits_ISO_8,2,1,38,21,1626083544
4815,7,Jits_ISO_8,3,5,63,98,1626106188
4815,7,Jits_ISO_8,4,5,80,127,1626156688
4815,7,Jits_ISO_8,0,5,80,127,1626826048
4815,7,Jits_ISO_8,1,1,48,85,1626875276
4815,7,Jits_ISO_8,2,5,56,103,1626876996
4815,7,Jits_ISO_8,3,1,38,20,1626885664
4815,7,Jits_ISO_8,4,5,63,98,1626895652
4815,7,Jits_ISO_8,0,5,80,127,1627636020
4815,7,Jits_ISO_8,1,1,48,86,1627638616
4815,7,Jits_ISO_8,2,1,38,20,1627648264
4815,7,Jits_ISO_8,3,5,63,98,1627695416
4815,7,Jits_ISO_8,4,5,56,103,1627776540
4815,7,Jits_ISO_8,0,5,80,127,1628416464
4815,7,Jits_ISO_8,1,5,56,103,1628456404
4815,7,Jits_ISO_8,2,1,48,72,1628465376
4815,7,Jits_ISO_8,3,5,63,98,1628475736
4815,7,Jits_ISO_8,0,1,48,63,1629209400
4815,7,Jits_ISO_8,1,5,56,103,1629266300
4815,7,Jits_ISO_8,2,5,80,127,1629275376
4815,7,Jits_ISO_8,3,5,63,98,1629315396
4815,7,Jits_ISO_8,0,1,48,67,1629974504
4815,7,Jits_ISO_8,1,5,56,103,1630135772
4815,7,Jits_ISO_8,2,5,63,98,1630175560
4815,7,Jits_ISO_8,3,5,80,127,1630179000
4815,7,Jits_ISO_8,0,5,63,98,1630825792
4815,7,Jits_ISO_8,1,1,48,97,1630828688
4815,7,Jits_ISO_8,2,5,80,127,1630865748
4815,7,Jits_ISO_8,3,5,56,103,1630936536
4815,7,Jits_ISO_8,0,5,63,98,1631616380
4815,7,Jits_ISO_8,1,1,48,89,1631667752
4815,7,Jits_ISO_8,2,5,56,103,1631696172
4815,7,Jits_ISO_8,3,5,80,127,1631755664
4815,7,Jits_ISO_8,0,1,48,93,1632423760
4815,7,Jits_ISO_8,1,5,80,127,1632426420
4815,7,Jits_ISO_8,2,1,38,21,1632434496
4815,7,Jits_ISO_8,3,5,63,98,1632475500
4815,7,Jits_ISO_8,4,5,56,103,1632506516
4815,7,Jits_ISO_8,0,5,56,103,1633215856
4815,7,Jits_ISO_8,1,1,48,81,1633217796
4815,7,Jits_ISO_8,2,5,63,98,1633266200
4815,7,Jits_ISO_8,3,5,80,127,1633276396
4815,7,Jits_ISO_8,0,1,48,88,1633994268
4815,7,Jits_ISO_8,1,1,38,20,1634004440
4815,7,Jits_ISO_8,2,5,56,103,1634025888
4815,7,Jits_ISO_8,3,5,63,98,1634136360
4815,7,Jits_ISO_8,4,5,80,127,1634155772
4815,7,Jits_ISO_8,0,5,63,98,1634825524
4815,7,Jits_ISO_8,1,1,48,85,1634847152
4815,7,Jits_ISO_8,2,5,80,127,1634875872
4815,7,Jits_ISO_8,3,5,56,103,1634965788
4815,7,Jits_ISO_8,0,5,63,98,1635616316
4815,7,Jits_ISO_8,1,1,48,63,1635633060
4815,7,Jits_ISO_8,2,5,80,127,1635645836
4815,7,Jits_ISO_8,3,5,56,103,1635736128
4815,7,Jits_ISO_8,0,1,48,89,1636409992
4815,7,Jits_ISO_8,1,5,63,98,1636415716
4815,7,Jits_ISO_8,2,5,56,103,1636426140
4815,7,Jits_ISO_8,3,5,80,127,1636525348
4815,7,Jits_ISO_8,0,1,48,100,1637165128
4815,7,Jits_ISO_8,1,5,63,98,1637316056
4815,7,Jits_ISO_8,2,5,80,127,1637345732
4815,7,Jits_ISO_8,3,5,56,103,1637376232
4815,7,Jits_ISO_8,0,1,48,88,1638042500
4815,7,Jits_ISO_8,1,5,80,127,1638136252
4815,7,Jits_ISO_8,2,5,63,98,1638146376
4815,7,Jits_ISO_8,3,5,56,103,1638176196
4815,7,Jits_ISO_8,0,5,80,127,1638835448
4815,7,Jits_ISO_8,1,5,63,98,1638856132
4815,7,Jits_ISO_8,2,1,48,86,1638903444
4815,7,Jits_ISO_8,3,5,56,103,1638906104
4815,7,Jits_ISO_8,0,5,63,98,1639666176
4815,7,Jits_ISO_8,1,1,48,86,1639671240
4815,7,Jits_ISO_8,2,5,80,127,1639725296
4815,7,Jits_ISO_8,3,5,56,103,1639746124
4815,7,Jits_ISO_8,0,5,63,98,1640425804
4815,7,Jits_ISO_8,1,1,48,76,1640446160
4815,7,Jits_ISO_8,2,1,38,19,1640456028
4815,7,Jits_ISO_8,3,5,56,103,1640475984
4815,7,Jits_ISO_8,4,5,80,127,1640486180
4815,7,Jits_ISO_8,0,1,48,70,1641210380
4815,7,Jits_ISO_8,1,1,38,18,1641220328
4815,7,Jits_ISO_8,2,5,56,103,1641256248
4815,7,Jits_ISO_8,3,5,80,127,1641265472
4815,7,Jits_ISO_8,4,5,63,98,1641365920
4815,7,Jits_ISO_8,0,5,80,127,1642016092
4815,7,Jits_ISO_8,1,5,63,98,1642026288
4815,7,Jits_ISO_8,2,1,48,72,1642088368
4815,7,Jits_ISO_8,3,5,56,103,1642175924
4815,7,Jits_ISO_8,0,1,48,101,1642816604
4815,7,Jits_ISO_8,1,5,63,98,1642826068
4815,7,Jits_ISO_8,2,5,80,127,1642866080
4815,7,Jits_ISO_8,3,5,56,103,1642945960
4815,7,Jits_ISO_8,0,1,48,98,1643584868
4815,7,Jits_ISO_8,1,5,56,103,1643615756
4815,7,Jits_ISO_8,2,5,80,127,1643716016
4815,7,Jits_ISO_8,3,5,63,98,1643736404
4815,7,Jits_ISO_8,0,1,48,95,1644469776
4815,7,Jits_ISO_8,1,5,80,127,1644476024
4815,7,Jits_ISO_8,2,5,56,103,1644486072
4815,7,Jits_ISO_8,3,5,63,98,1644576116
4815,7,Jits_ISO_8,0,1,48,96,1645266792
4815,7,Jits_ISO_8,1,5,56,103,1645275512
4815,7,Jits_ISO_8,2,5,63,98,1645296124
4815,7,Jits_ISO_8,3,5,80,127,1645376124
4815,7,Jits_ISO_8,0,5,63,98,1646026080
4815,7,Jits_ISO_8,1,1,48,98,1646074604
4815,7,Jits_ISO_8,2,5,56,103,1646116052
4815,7,Jits_ISO_8,3,5,80,127,1646119348
4815,7,Jits_ISO_8,0,1,48,75,1646835560
4815,7,Jits_ISO_8,1,5,56,103,1646855740
4815,7,Jits_ISO_8,2,5,80,127,1646916060
4815,7,Jits_ISO_8,3,5,63,98,1646926180
4815,7,Jits_ISO_8,0,1,48,102,1647677976
4815,7,Jits_ISO_8,1,5,80,127,1647705424
4815,7,Jits_ISO_8,2,5,56,103,1647715692
4815,7,Jits_ISO_8,3,5,63,98,1647718912
4815,7,Jits_ISO_8,0,1,48,91,1648448180
4815,7,Jits_ISO_8,1,5,56,103,1648466340
4815,7,Jits_ISO_8,2,5,80,127,1648475492
4815,7,Jits_ISO_8,3,5,63,98,1648496096
4815,7,Jits_ISO_8,0,5,63,98,1649236236
4815,7,Jits_ISO_8,1,1,48,87,1649265208
4815,7,Jits_ISO_8,2,5,80,127,1649295896
4815,7,Jits_ISO_8,3,5,56,103,1649345872
4815,7,Jits_ISO_8,0,1,48,79,1650045676
4815,7,Jits_ISO_8,1,5,63,98,1650116052
4815,7,Jits_ISO_8,2,5,56,103,1650126176
4815,7,Jits_ISO_8,3,5,80,127,1650176360
4815,7,Jits_ISO_8,0,5,63,98,1650816352
4815,7,Jits_ISO_8,1,5,80,127,1650835840
4815,7,Jits_ISO_8,2,5,56,103,1650846184
4815,7,Jits_ISO_8,3,1,48,86,1650903920
4815,7,Jits_ISO_8,4,1,38,19,1650913792
4815,7,Jits_ISO_8,0,5,63,98,1651616092
4815,7,Jits_ISO_8,1,5,80,127,1651619308
4815,7,Jits_ISO_8,2,5,56,103,1651656032
4815,7,Jits_ISO_8,3,1,48,83,1651688816
4815,7,Jits_ISO_8,0,1,48,84,1652450808
4815,7,Jits_ISO_8,1,5,63,98,1652485456
4815,7,Jits_ISO_8,2,5,80,127,1652516104
4815,7,Jits_ISO_8,3,5,56,103,1652525404
4815,7,Jits_ISO_8,0,1,48,68,1653227072
4815,7,Jits_ISO_8,1,5,56,103,1653235940
4815,7,Jits_ISO_8,2,5,80,127,1653265764
4815,7,Jits_ISO_8,3,5,63,98,1653295664
4815,7,Jits_ISO_8,0,1,48,88,1654046112
4815,7,Jits_ISO_8,1,1,38,20,1654055984
4815,7,Jits_ISO_8,2,5,63,98,1654136248
4815,7,Jits_ISO_8,3,5,56,103,1654176180
4815,7,Jits_ISO_8,4,5,80,127,1654179100
4815,7,Jits_ISO_8,0,5,80,127,1654835724
4815,7,Jits_ISO_8,1,1,48,94,1654855184
4815,7,Jits_ISO_8,2,1,38,21,1654864676
4815,7,Jits_ISO_8,3,5,56,103,1654915520
4815,7,Jits_ISO_8,4,5,63,98,1654965680
4815,7,Jits_ISO_8,0,5,80,127,1655615936
4815,7,Jits_ISO_8,1,5,56,103,1655636324
4815,7,Jits_ISO_8,2,1,48,75,1655644692
4815,7,Jits_ISO_8,3,1,38,18,1655655160
4815,7,Jits_ISO_8,4,5,63,98,1655725556
4815,7,Jits_ISO_8,0,5,80,127,1656455812
4815,7,Jits_ISO_8,1,1,48,40,1656460356
4815,7,Jits_ISO_8,2,5,63,98,1656495672
4815,7,Jits_ISO_8,3,5,56,103,1656536584
4815,7,Jits_ISO_8,0,5,63,98,1657225644
4815,7,Jits_ISO_8,1,1,48,108,1657269444
4815,7,Jits_ISO_8,2,5,80,127,1657285956
4815,7,Jits_ISO_8,3,5,56,103,1657315780
4815,7,Jits_ISO_8,0,5,56,103,1658026484
4815,7,Jits_ISO_8,1,1,48,85,1658028928
4815,7,Jits_ISO_8,2,5,80,127,1658056004
4815,7,Jits_ISO_8,3,5,63,98,1658146124
4815,7,Jits_ISO_8,0,1,48,76,1658829764
4815,7,Jits_ISO_8,1,5,56,103,1658836464
4815,7,Jits_ISO_8,2,1,38,18,1658839508
4815,7,Jits_ISO_8,3,5,80,127,1658945884
4815,7,Jits_ISO_8,4,5,63,98,1658975704
4815,7,Jits_ISO_8,0,1,48,77,1659650444
4815,7,Jits_ISO_8,1,1,38,19,1659659716
4815,7,Jits_ISO_8,2,5,56,103,1659686192
4815,7,Jits_ISO_8,3,5,63,98,1659745524
4815,7,Jits_ISO_8,4,5,80,127,1659776480
4815,7,Jits_ISO_8,0,5,56,103,1660456172
4815,7,Jits_ISO_8,1,1,48,103,1660512704
4815,7,Jits_ISO_8,2,1,38,21,1660522724
4815,7,Jits_ISO_8,3,5,63,98,1660526052
4815,7,Jits_ISO_8,4,5,80,127,1660546392
4815,7,Jits_ISO_8,0,5,80,127,1661226660
4815,7,Jits_ISO_8,1,5,63,98,1661245776
4815,7,Jits_ISO_8,2,5,56,103,1661296124
4815,7,Jits_ISO_8,3,1,48,87,1661298728
4815,7,Jits_ISO_8,4,1,38,19,1661308924
4815,7,Jits_ISO_8,0,9999,9999,9999,1566493772
4815,7,Jits_ISO_8,1,9999,9999,9999,1567293552
4815,7,Jits_ISO_8,2,9999,9999,9999,1568093276
4815,7,Jits_ISO_8,3,9999,9999,9999,1568894048
4815,7,Jits_ISO_8,4,9999,9999,9999,1569693772
4815,7,Jits_ISO_8,5,9999,9999,9999,1570493560
4815,7,Jits_ISO_8,6,9999,9999,9999,1571293268
4815,7,Jits_ISO_8,7,9999,9999,9999,1572094028
4815,7,Jits_ISO_8,8,9999,9999,9999,1572893816
4815,7,Jits_ISO_8,9,9999,9999,9999,1573693512
4815,7,Jits_ISO_8,10,9999,9999,9999,1574493268
4815,7,Jits_ISO_8,11,9999,9999,9999,1575294072
4815,7,Jits_ISO_8,12,9999,9999,9999,1576093752
4815,7,Jits_ISO_8,13,9999,9999,9999,1576893496
4815,7,Jits_ISO_8,14,9999,9999,9999,1577693252
4815,7,Jits_ISO_8,15,9999,9999,9999,1578494032
4815,7,Jits_ISO_8,16,9999,9999,9999,1579293780
4815,7,Jits_ISO_8,17,9999,9999,9999,1580093544
4815,7,Jits_ISO_8,18,9999,9999,9999,1580893304
4815,7,Jits_ISO_8,19,9999,9999,9999,1581694020
4815,7,Jits_ISO_8,20,9999,9999,9999,1582493772
4815,7,Jits_ISO_8,21,9999,9999,9999,1583293500
4815,7,Jits_ISO_8,22,9999,9999,9999,1584093292
4815,7,Jits_ISO_8,23,9999,9999,9999,1584894052
4815,7,Jits_ISO_8,24,9999,9999,9999,1585693784
4815,7,Jits_ISO_8,25,9999,9999,9999,1586493516
4815,7,Jits_ISO_8,26,9999,9999,9999,1587293248
4815,7,Jits_ISO_8,27,9999,9999,9999,1588094008
4815,7,Jits_ISO_8,28,9999,9999,9999,1588893784
4815,7,Jits_ISO_8,29,9999,9999,9999,1589693548
4815,7,Jits_ISO_8,30,9999,9999,9999,1590493276
4815,7,Jits_ISO_8,31,9999,9999,9999,1591294072
4815,7,Jits_ISO_8,32,9999,9999,9999,1592093800
4815,7,Jits_ISO_8,33,9999,9999,9999,1592893528
4815,7,Jits_ISO_8,34,9999,9999,9999,1593693264
4815,7,Jits_ISO_8,35,9999,9999,9999,1594494076
4815,7,Jits_ISO_8,36,9999,9999,9999,1595293760
4815,7,Jits_ISO_8,37,9999,9999,9999,1596093496
4815,7,Jits_ISO_8,38,9999,9999,9999,1596893236
4815,7,Jits_ISO_8,39,9999,9999,9999,1597694008
4815,7,Jits_ISO_8,40,9999,9999,9999,1598493796
4815,7,Jits_ISO_8,41,9999,9999,9999,1599293524
4815,7,Jits_ISO_8,42,9999,9999,9999,1600093256
4815,7,Jits_ISO_8,43,9999,9999,9999,1600894040
4815,7,Jits_ISO_8,44,9999,9999,9999,1601693756
4815,7,Jits_ISO_8,45,9999,9999,9999,1602493540
4815,7,Jits_ISO_8,46,9999,9999,9999,1603293252
4815,7,Jits_ISO_8,47,9999,9999,9999,1604094012
4815,7,Jits_ISO_8,48,9999,9999,9999,1604893808
4815,7,Jits_ISO_8,49,9999,9999,9999,1605693524
4815,7,Jits_ISO_8,50,9999,9999,9999,1606493236
4815,7,Jits_ISO_8,51,9999,9999,9999,1607294004
4815,7,Jits_ISO_8,52,9999,9999,9999,1608093808
4815,7,Jits_ISO_8,53,9999,9999,9999,1608893512
4815,7,Jits_ISO_8,54,9999,9999,9999,1609693308
4815,7,Jits_ISO_8,55,9999,9999,9999,1610494004
4815,7,Jits_ISO_8,56,9999,9999,9999,1611293784
4815,7,Jits_ISO_8,57,9999,9999,9999,1612093520
4815,7,Jits_ISO_8,58,9999,9999,9999,1612893244
4815,7,Jits_ISO_8,59,9999,9999,9999,1613694020
4815,7,Jits_ISO_8,60,9999,9999,9999,1614493804
4815,7,Jits_ISO_8,61,9999,9999,9999,1615293520
4815,7,Jits_ISO_8,62,9999,9999,9999,1616093296
4815,7,Jits_ISO_8,63,9999,9999,9999,1616894044
4815,7,Jits_ISO_8,64,9999,9999,9999,1617693760
4815,7,Jits_ISO_8,65,9999,9999,9999,1618493544
4815,7,Jits_ISO_8,66,9999,9999,9999,1619293240
4815,7,Jits_ISO_8,67,9999,9999,9999,1620094012
4815,7,Jits_ISO_8,68,9999,9999,9999,1620893768
4815,7,Jits_ISO_8,69,9999,9999,9999,1621693544
4815,7,Jits_ISO_8,70,9999,9999,9999,1622493284
4815,7,Jits_ISO_8,71,9999,9999,9999,1623294048
4815,7,Jits_ISO_8,72,9999,9999,9999,1624093752
4815,7,Jits_ISO_8,73,9999,9999,9999,1624893552
4815,7,Jits_ISO_8,74,9999,9999,9999,1625693236
4815,7,Jits_ISO_8,75,9999,9999,9999,1626494068
4815,7,Jits_ISO_8,76,9999,9999,9999,1627293788
4815,7,Jits_ISO_8,77,9999,9999,9999,1628093564
4815,7,Jits_ISO_8,78,9999,9999,9999,1628893300
4815,7,Jits_ISO_8,79,9999,9999,9999,1629694068
4815,7,Jits_ISO_8,80,9999,9999,9999,1630493784
4815,7,Jits_ISO_8,81,9999,9999,9999,1631293564
4815,7,Jits_ISO_8,82,9999,9999,9999,1632093272
4815,7,Jits_ISO_8,83,9999,9999,9999,1632894016
4815,7,Jits_ISO_8,84,9999,9999,9999,1633693812
4815,7,Jits_ISO_8,85,9999,9999,9999,1634493496
4815,7,Jits_ISO_8,86,9999,9999,9999,1635293300
4815,7,Jits_ISO_8,87,9999,9999,9999,1636094052
4815,7,Jits_ISO_8,88,9999,9999,9999,1636893760
4815,7,Jits_ISO_8,89,9999,9999,9999,1637693552
4815,7,Jits_ISO_8,90,9999,9999,9999,1638493296
4815,7,Jits_ISO_8,91,9999,9999,9999,1639294004
4815,7,Jits_ISO_8,92,9999,9999,9999,1640093796
4815,7,Jits_ISO_8,93,9999,9999,9999,1640893528
4815,7,Jits_ISO_8,94,9999,9999,9999,1641693284
4815,7,Jits_ISO_8,95,9999,9999,9999,1642494052
4815,7,Jits_ISO_8,96,9999,9999,9999,1643293772
4815,7,Jits_ISO_8,97,9999,9999,9999,1644093504
4815,7,Jits_ISO_8,98,9999,9999,9999,1644893288
4815,7,Jits_ISO_8,99,9999,9999,9999,1645694072
4815,7,Jits_ISO_8,100,9999,9999,9999,1646493772
4815,7,Jits_ISO_8,101,9999,9999,9999,1647293556
4815,7,Jits_ISO_8,102,9999,9999,9999,1648093256
4815,7,Jits_ISO_8,103,9999,9999,9999,1648894040
4815,7,Jits_ISO_8,104,9999,9999,9999,1649693820
4815,7,Jits_ISO_8,105,9999,9999,9999,1650493536
4815,7,Jits_ISO_8,106,9999,9999,9999,1651293260
4815,7,Jits_ISO_8,107,9999,9999,9999,1652094040
4815,7,Jits_ISO_8,108,9999,9999,9999,1652893748
4815,7,Jits_ISO_8,109,9999,9999,9999,1653693528
4815,7,Jits_ISO_8,110,9999,9999,9999,1654493280
4815,7,Jits_ISO_8,111,9999,9999,9999,1655294012
4815,7,Jits_ISO_8,112,9999,9999,9999,1656093776
4815,7,Jits_ISO_8,113,9999,9999,9999,1656893520
4815,7,Jits_ISO_8,114,9999,9999,9999,1657693244
4815,7,Jits_ISO_8,115,9999,9999,9999,1658494032
4815,7,Jits_ISO_8,116,9999,9999,9999,1659293804
4815,7,Jits_ISO_8,117,9999,9999,9999,1660093504
4815,7,Jits_ISO_8,118,9999,9999,9999,1660893264
4815,7,Jits_ISO_8,119,9999,9999,9999,1661694024
4816,17,Jits_Phase_5,0,5,56,103,1669815612
4816,17,Jits_Phase_5,1,5,63,98,1669818708
4816,17,Jits_Phase_5,2,5,80,127,1669821832
4816,17,Jits_Phase_5,0,5,56,103,1670316360
4816,17,Jits_Phase_5,1,5,63,98,1670319388
4816,17,Jits_Phase_5,2,5,80,127,1670322512
4816,17,Jits_Phase_5,3,1,48,81,1670556608
4816,17,Jits_Phase_5,0,5,56,103,1670816276
4816,17,Jits_Phase_5,1,5,80,127,1670826400
4816,17,Jits_Phase_5,2,5,63,98,1670845884
4816,17,Jits_Phase_5,3,1,48,81,1671019120
4816,17,Jits_Phase_5,0,5,63,98,1671265748
4816,17,Jits_Phase_5,1,5,80,127,1671296496
4816,17,Jits_Phase_5,2,5,56,103,1671305720
4816,17,Jits_Phase_5,3,1,48,70,1671474620
4816,17,Jits_Phase_5,0,5,80,127,1671825740
4816,17,Jits_Phase_5,1,5,56,103,1671836156
4816,17,Jits_Phase_5,2,5,63,98,1671865684
4816,17,Jits_Phase_5,3,1,48,71,1671900856
4816,17,Jits_Phase_5,0,5,63,98,1672325432
4816,17,Jits_Phase_5,1,1,48,83,1672354108
4816,17,Jits_Phase_5,2,5,56,103,1672356148
4816,17,Jits_Phase_5,3,5,80,127,1672365296
4816,17,Jits_Phase_5,0,5,56,103,1672776160
4816,17,Jits_Phase_5,1,5,63,98,1672826136
4816,17,Jits_Phase_5,2,1,48,98,1672839244
4816,17,Jits_Phase_5,3,5,80,127,1672845712
4816,17,Jits_Phase_5,0,5,80,127,1673275692
4816,17,Jits_Phase_5,1,1,48,90,1673300528
4816,17,Jits_Phase_5,2,5,63,98,1673325960
4816,17,Jits_Phase_5,3,5,56,103,1673365844
4816,17,Jits_Phase_5,0,5,56,103,1673775376
4816,17,Jits_Phase_5,1,5,63,98,1673806324
4816,17,Jits_Phase_5,2,1,48,93,1673821652
4816,17,Jits_Phase_5,3,5,80,127,1673876092
4816,17,Jits_Phase_5,0,5,56,103,1674276188
4816,17,Jits_Phase_5,1,1,48,83,1674311820
4816,17,Jits_Phase_5,2,5,80,127,1674335600
4816,17,Jits_Phase_5,3,5,63,98,1674366196
4816,17,Jits_Phase_5,0,5,56,103,1674786216
4816,17,Jits_Phase_5,1,5,63,98,1674796340
4816,17,Jits_Phase_5,2,1,48,95,1674831216
4816,17,Jits_Phase_5,3,5,80,127,1674836416
4816,17,Jits_Phase_5,0,5,63,98,1675275492
4816,17,Jits_Phase_5,1,1,48,78,1675345888
4816,17,Jits_Phase_5,2,5,80,127,1675355428
4816,17,Jits_Phase_5,3,5,56,103,1675365848
4816,17,Jits_Phase_5,0,5,63,98,1675825588
4816,17,Jits_Phase_5,1,1,48,97,1675826628
4816,17,Jits_Phase_5,2,5,56,103,1675865440
4816,17,Jits_Phase_5,3,5,80,127,1675868432
4816,17,Jits_Phase_5,0,5,56,103,1676286300
4816,17,Jits_Phase_5,1,5,63,98,1676295448
4816,17,Jits_Phase_5,2,5,80,127,1676335460
4816,17,Jits_Phase_5,3,1,48,105,1676340220
4816,17,Jits_Phase_5,0,5,56,103,1676775808
4816,17,Jits_Phase_5,1,5,63,98,1676779024
4816,17,Jits_Phase_5,2,5,80,127,1676796192
4816,17,Jits_Phase_5,3,1,48,101,1676824484
4816,17,Jits_Phase_5,0,5,80,127,1677285688
4816,17,Jits_Phase_5,1,5,56,103,1677296252
4816,17,Jits_Phase_5,2,1,48,76,1677326944
4816,17,Jits_Phase_5,3,5,63,98,1677365552
4816,17,Jits_Phase_5,0,5,63,98,1677776232
4816,17,Jits_Phase_5,1,5,56,103,1677795648
4816,17,Jits_Phase_5,2,1,48,78,1677845520
4816,17,Jits_Phase_5,3,5,80,127,1677875580
4816,17,Jits_Phase_5,0,5,56,103,1678286240
4816,17,Jits_Phase_5,1,5,80,127,1678326104
4816,17,Jits_Phase_5,2,5,63,98,1678336452
4816,17,Jits_Phase_5,3,1,48,93,1678337416
4816,17,Jits_Phase_5,4,1,38,20,1678347432
4816,17,Jits_Phase_5,0,5,80,127,1678775760
4816,17,Jits_Phase_5,1,5,63,98,1678806256
4816,17,Jits_Phase_5,2,1,48,87,1678813508
4816,17,Jits_Phase_5,3,5,56,103,1678846264
4816,17,Jits_Phase_5,0,5,56,103,1679295972
4816,17,Jits_Phase_5,1,1,48,78,1679324060
4816,17,Jits_Phase_5,2,5,63,98,1679325936
4816,17,Jits_Phase_5,3,1,38,19,1679334308
4816,17,Jits_Phase_5,4,5,80,127,1679375608
4816,17,Jits_Phase_5,0,5,80,127,1679806092
4816,17,Jits_Phase_5,1,1,48,95,1679815064
4816,17,Jits_Phase_5,2,5,56,103,1679846024
4816,17,Jits_Phase_5,3,5,63,98,1679856072
4816,17,Jits_Phase_5,0,5,80,127,1680286004
4816,17,Jits_Phase_5,1,5,63,98,1680325940
4816,17,Jits_Phase_5,2,1,48,71,1680331524
4816,17,Jits_Phase_5,3,1,38,18,1680341544
4816,17,Jits_Phase_5,4,5,56,103,1680386376
4816,17,Jits_Phase_5,0,5,56,103,1680785992
4816,17,Jits_Phase_5,1,5,80,127,1680796112
4816,17,Jits_Phase_5,2,1,48,86,1680862456
4816,17,Jits_Phase_5,3,5,63,98,1680875972
4816,17,Jits_Phase_5,0,5,80,127,1681285380
4816,17,Jits_Phase_5,1,5,63,98,1681346068
4816,17,Jits_Phase_5,2,1,48,95,1681365972
4816,17,Jits_Phase_5,3,5,56,103,1681375516
4816,17,Jits_Phase_5,0,5,56,103,1681786164
4816,17,Jits_Phase_5,1,1,48,90,1681841796
4816,17,Jits_Phase_5,2,5,80,127,1681845500
4816,17,Jits_Phase_5,3,5,63,98,1681885436
4816,17,Jits_Phase_5,0,5,56,103,1682335976
4816,17,Jits_Phase_5,1,5,63,98,1682346464
4816,17,Jits_Phase_5,2,5,80,127,1682349756
4816,17,Jits_Phase_5,3,1,48,77,1682382992
4816,17,Jits_Phase_5,4,1,38,19,1682392932
4816,17,Jits_Phase_5,0,5,80,127,1682785740
4816,17,Jits_Phase_5,1,5,63,98,1682875896
4816,17,Jits_Phase_5,2,5,56,103,1682885944
4816,17,Jits_Phase_5,3,1,48,84,1682909288
4816,17,Jits_Phase_5,0,5,56,103,1683286312
4816,17,Jits_Phase_5,1,5,63,98,1683289332
4816,17,Jits_Phase_5,2,5,80,127,1683292532
4816,17,Jits_Phase_5,3,1,48,77,1683408500
4816,17,Jits_Phase_5,0,5,80,127,1683815880
4816,17,Jits_Phase_5,1,1,48,95,1683865056
4816,17,Jits_Phase_5,2,5,63,98,1683866852
4816,17,Jits_Phase_5,3,1,38,20,1683875220
4816,17,Jits_Phase_5,4,5,56,103,1683895844
4816,17,Jits_Phase_5,0,5,56,103,1684296112
4816,17,Jits_Phase_5,1,5,80,127,1684306232
4816,17,Jits_Phase_5,2,1,48,94,1684343800
4816,17,Jits_Phase_5,3,5,63,98,1684375852
4816,17,Jits_Phase_5,0,5,56,103,1684805976
4816,17,Jits_Phase_5,1,5,63,98,1684825540
4816,17,Jits_Phase_5,2,1,48,89,1684848812
4816,17,Jits_Phase_5,3,5,80,127,1684886016
4816,17,Jits_Phase_5,0,5,80,127,1685286112
4816,17,Jits_Phase_5,1,1,48,86,1685341064
4816,17,Jits_Phase_5,2,5,63,98,1685355860
4816,17,Jits_Phase_5,3,5,56,103,1685376268
4816,17,Jits_Phase_5,0,5,80,127,1685805352
4816,17,Jits_Phase_5,1,5,56,103,1685815920
4816,17,Jits_Phase_5,2,5,63,98,1685825892
4816,17,Jits_Phase_5,3,1,48,95,1685852528
4816,17,Jits_Phase_5,0,5,80,127,1686295820
4816,17,Jits_Phase_5,1,5,56,103,1686316356
4816,17,Jits_Phase_5,2,1,48,80,1686324948
4816,17,Jits_Phase_5,3,5,63,98,1686385952
4816,17,Jits_Phase_5,0,5,56,103,1686805924
4816,17,Jits_Phase_5,1,5,80,127,1686835824
4816,17,Jits_Phase_5,2,5,63,98,1686855908
4816,17,Jits_Phase_5,3,1,48,88,1686856876
4816,17,Jits_Phase_5,0,5,63,98,1687296320
4816,17,Jits_Phase_5,1,5,56,103,1687356036
4816,17,Jits_Phase_5,2,1,48,85,1687377064
4816,17,Jits_Phase_5,3,5,80,127,1687385404
4816,17,Jits_Phase_5,0,5,63,98,1687785952
4816,17,Jits_Phase_5,1,5,80,127,1687789168
4816,17,Jits_Phase_5,2,1,48,66,1687863380
4816,17,Jits_Phase_5,3,5,56,103,1687876148
4816,17,Jits_Phase_5,0,5,56,103,1688306068
4816,17,Jits_Phase_5,1,1,48,91,1688334304
4816,17,Jits_Phase_5,2,5,63,98,1688335960
4816,17,Jits_Phase_5,3,5,80,127,1688375896
4816,17,Jits_Phase_5,0,5,63,98,1688805684
4816,17,Jits_Phase_5,1,1,48,84,1688839740
4816,17,Jits_Phase_5,2,5,56,103,1688845764
4816,17,Jits_Phase_5,3,1,38,19,1688849932
4816,17,Jits_Phase_5,4,5,80,127,1688866140
4816,17,Jits_Phase_5,0,5,63,98,1689315940
4816,17,Jits_Phase_5,1,1,48,88,1689335172
4816,17,Jits_Phase_5,2,1,38,20,1689345492
4816,17,Jits_Phase_5,3,5,56,103,1689355848
4816,17,Jits_Phase_5,4,5,80,127,1689365820
4816,17,Jits_Phase_5,0,5,80,127,1689795840
4816,17,Jits_Phase_5,1,1,48,91,1689834628
4816,17,Jits_Phase_5,2,5,63,98,1689865664
4816,17,Jits_Phase_5,3,5,56,103,1689886048
4816,17,Jits_Phase_5,0,5,56,103,1690285416
4816,17,Jits_Phase_5,1,5,80,127,1690305948
4816,17,Jits_Phase_5,2,1,48,87,1690312956
4816,17,Jits_Phase_5,3,5,63,98,1690345800
4816,17,Jits_Phase_5,0,5,63,98,1690796408
4816,17,Jits_Phase_5,1,5,80,127,1690815896
4816,17,Jits_Phase_5,2,1,48,91,1690842900
4816,17,Jits_Phase_5,3,5,56,103,1690855972
4816,17,Jits_Phase_5,0,5,63,98,1691296004
4816,17,Jits_Phase_5,1,5,56,103,1691315640
4816,17,Jits_Phase_5,2,5,80,127,1691325912
4816,17,Jits_Phase_5,3,1,48,84,1691354208
4816,17,Jits_Phase_5,0,5,80,127,1691795824
4816,17,Jits_Phase_5,1,5,56,103,1691816208
4816,17,Jits_Phase_5,2,1,48,67,1691827044
4816,17,Jits_Phase_5,3,5,63,98,1691846024
4816,17,Jits_Phase_5,0,1,48,82,1692329192
4816,17,Jits_Phase_5,1,5,56,103,1692366072
4816,17,Jits_Phase_5,2,5,80,127,1692369144
4816,17,Jits_Phase_5,3,5,63,98,1692385784
4816,17,Jits_Phase_5,0,5,63,98,1692786088
4816,17,Jits_Phase_5,1,5,56,103,1692815788
4816,17,Jits_Phase_5,2,1,48,79,1692864760
4816,17,Jits_Phase_5,3,1,38,18,1692874640
4816,17,Jits_Phase_5,4,5,80,127,1692877192
4816,17,Jits_Phase_5,0,1,48,81,1693295628
4816,17,Jits_Phase_5,1,5,63,98,1693365796
4816,17,Jits_Phase_5,2,5,56,103,1693375992
4816,17,Jits_Phase_5,3,5,80,127,1693386112
4816,17,Jits_Phase_5,0,5,56,103,1693826600
4816,17,Jits_Phase_5,1,1,48,80,1693830912
4816,17,Jits_Phase_5,2,5,80,127,1693856192
4816,17,Jits_Phase_5,3,5,63,98,1693866536
4816,17,Jits_Phase_5,0,5,63,98,1694366072
4816,17,Jits_Phase_5,1,1,48,70,1694369264
4816,17,Jits_Phase_5,2,5,56,103,1694376408
4816,17,Jits_Phase_5,3,5,80,127,1694395744
4816,17,Jits_Phase_5,0,5,56,103,1694796272
4816,17,Jits_Phase_5,1,5,63,98,1694855492
4816,17,Jits_Phase_5,2,5,80,127,1694858780
4816,17,Jits_Phase_5,3,1,48,72,1694884984
4816,17,Jits_Phase_5,4,1,38,18,1694894924
4816,17,Jits_Phase_5,0,5,80,127,1695316328
4816,17,Jits_Phase_5,1,5,56,103,1695325776
4816,17,Jits_Phase_5,2,1,48,71,1695328892
4816,17,Jits_Phase_5,3,1,38,17,1695338836
4816,17,Jits_Phase_5,4,5,63,98,1695396272
4816,17,Jits_Phase_5,0,5,80,127,1695805760
4816,17,Jits_Phase_5,1,1,48,73,1695828356
4816,17,Jits_Phase_5,2,1,38,18,1695838376
4816,17,Jits_Phase_5,3,5,56,103,1695875808
4816,17,Jits_Phase_5,4,5,63,98,1695885632
4816,17,Jits_Phase_5,0,5,63,98,1696345536
4816,17,Jits_Phase_5,1,1,48,91,1696355804
4816,17,Jits_Phase_5,2,5,56,103,1696357364
4816,17,Jits_Phase_5,3,1,38,21,1696365964
4816,17,Jits_Phase_5,4,5,80,127,1696376028
4816,17,Jits_Phase_5,0,5,80,127,1696796004
4816,17,Jits_Phase_5,1,1,48,105,1696846472
4816,17,Jits_Phase_5,2,5,63,98,1696856536
4816,17,Jits_Phase_5,3,5,56,103,1696896496
4816,17,Jits_Phase_5,0,5,56,103,1697335784
4816,17,Jits_Phase_5,1,5,63,98,1697345832
4816,17,Jits_Phase_5,2,1,48,81,1697351640
4816,17,Jits_Phase_5,3,5,80,127,1697385912
4816,17,Jits_Phase_5,0,5,56,103,1697795620
4816,17,Jits_Phase_5,1,5,80,127,1697826120
4816,17,Jits_Phase_5,2,1,48,72,1697858604
4816,17,Jits_Phase_5,3,5,63,98,1697876532
4816,17,Jits_Phase_5,0,5,56,103,1698335984
4816,17,Jits_Phase_5,1,1,48,82,1698337924
4816,17,Jits_Phase_5,2,5,63,98,1698375988
4816,17,Jits_Phase_5,3,5,80,127,1698379352
4816,17,Jits_Phase_5,0,5,56,103,1698835744
4816,17,Jits_Phase_5,1,5,63,98,1698846088
4816,17,Jits_Phase_5,2,5,80,127,1698865424
4816,17,Jits_Phase_5,3,1,48,73,1698872056
4816,17,Jits_Phase_5,4,1,38,18,1698881928
4816,17,Jits_Phase_5,0,5,56,103,1699295496
4816,17,Jits_Phase_5,1,5,80,127,1699298644
4816,17,Jits_Phase_5,2,5,63,98,1699335588
4816,17,Jits_Phase_5,3,1,48,91,1699372188
4816,17,Jits_Phase_5,0,5,63,98,1699836608
4816,17,Jits_Phase_5,1,1,48,99,1699860552
4816,17,Jits_Phase_5,2,5,56,103,1699866124
4816,17,Jits_Phase_5,3,5,80,127,1699885388
4816,17,Jits_Phase_5,0,5,80,127,1700306320
4816,17,Jits_Phase_5,1,5,56,103,1700315472
4816,17,Jits_Phase_5,2,5,63,98,1700325816
4816,17,Jits_Phase_5,3,1,48,76,1700347584
4816,17,Jits_Phase_5,0,5,56,103,1700805928
4816,17,Jits_Phase_5,1,5,80,127,1700845944
4816,17,Jits_Phase_5,2,1,48,67,1700851304
4816,17,Jits_Phase_5,3,5,63,98,1700875760
4816,17,Jits_Phase_5,0,5,63,98,1701315956
4816,17,Jits_Phase_5,1,5,80,127,1701326376
4816,17,Jits_Phase_5,2,1,48,84,1701336348
4816,17,Jits_Phase_5,3,5,56,103,1701337908
4816,17,Jits_Phase_5,0,5,56,103,1701805368
4816,17,Jits_Phase_5,1,1,48,93,1701867296
4816,17,Jits_Phase_5,2,5,63,98,1701876012
4816,17,Jits_Phase_5,3,5,80,127,1701886356
4816,17,Jits_Phase_5,0,5,80,127,1702316516
4816,17,Jits_Phase_5,1,5,56,103,1702325588
4816,17,Jits_Phase_5,2,1,48,72,1702335080
4816,17,Jits_Phase_5,3,5,63,98,1702375856
4816,17,Jits_Phase_5,0,1,48,91,1702820356
4816,17,Jits_Phase_5,1,1,38,20,1702830304
4816,17,Jits_Phase_5,2,5,80,127,1702835504
4816,17,Jits_Phase_5,3,5,56,103,1702896116
4816,17,Jits_Phase_5,4,5,63,98,1702925556
4816,17,Jits_Phase_5,0,1,48,83,1703332936
4816,17,Jits_Phase_5,1,5,56,103,1703336488
4816,17,Jits_Phase_5,2,5,80,127,1703339552
4816,17,Jits_Phase_5,3,5,63,98,1703376200
4816,17,Jits_Phase_5,0,1,48,97,1703837396
4816,17,Jits_Phase_5,1,5,56,103,1703865596
4816,17,Jits_Phase_5,2,5,63,98,1703896468
4816,17,Jits_Phase_5,3,5,80,127,1703905540
4816,17,Jits_Phase_5,0,1,48,54,1704347636
4816,17,Jits_Phase_5,1,5,63,98,1704375612
4816,17,Jits_Phase_5,2,5,80,127,1704385884
4816,17,Jits_Phase_5,3,5,56,103,1704396300
4816,17,Jits_Phase_5,0,5,80,127,1704826440
4816,17,Jits_Phase_5,1,1,48,75,1704852556
4816,17,Jits_Phase_5,2,1,38,18,1704863024
4816,17,Jits_Phase_5,3,5,56,103,1704876612
4816,17,Jits_Phase_5,4,5,63,98,1704879604
4816,17,Jits_Phase_5,0,1,48,87,1705333544
4816,17,Jits_Phase_5,1,5,56,103,1705355708
4816,17,Jits_Phase_5,2,5,80,127,1705376168
4816,17,Jits_Phase_5,3,5,63,98,1705386288
4816,17,Jits_Phase_5,0,1,48,79,1705835508
4816,17,Jits_Phase_5,1,5,63,98,1705837224
4816,17,Jits_Phase_5,2,5,56,103,1705865580
4816,17,Jits_Phase_5,3,5,80,127,1705886260
4816,17,Jits_Phase_5,0,1,48,75,1706315672
4816,17,Jits_Phase_5,1,5,56,103,1706345812
4816,17,Jits_Phase_5,2,5,80,127,1706356160
4816,17,Jits_Phase_5,3,5,63,98,1706425700
4816,17,Jits_Phase_5,0,5,63,98,1706845572
4816,17,Jits_Phase_5,1,1,48,85,1706847732
4816,17,Jits_Phase_5,2,5,80,127,1706885452
4816,17,Jits_Phase_5,3,5,56,103,1706925464
4816,17,Jits_Phase_5,0,5,56,103,1707355584
4816,17,Jits_Phase_5,1,5,63,98,1707365780
4816,17,Jits_Phase_5,2,5,80,127,1707386412
4816,17,Jits_Phase_5,3,1,48,79,1707412676
4816,17,Jits_Phase_5,4,1,38,18,1707423140
4816,17,Jits_Phase_5,0,1,48,82,1707892312
4816,17,Jits_Phase_5,1,5,63,98,1707896168
4816,17,Jits_Phase_5,2,5,80,127,1707915580
4816,17,Jits_Phase_5,3,5,56,103,1707936184
4816,17,Jits_Phase_5,0,5,56,103,1708335444
4816,17,Jits_Phase_5,1,1,48,62,1708391748
4816,17,Jits_Phase_5,2,5,80,127,1708416228
4816,17,Jits_Phase_5,3,5,63,98,1708425604
4816,17,Jits_Phase_5,0,5,80,127,1708876264
4816,17,Jits_Phase_5,1,1,48,74,1708883052
4816,17,Jits_Phase_5,2,5,63,98,1708886304
4816,17,Jits_Phase_5,3,5,56,103,1708916352
4816,17,Jits_Phase_5,0,5,63,98,1709336096
4816,17,Jits_Phase_5,1,1,48,70,1709366712
4816,17,Jits_Phase_5,2,5,80,127,1709375952
4816,17,Jits_Phase_5,3,5,56,103,1709436288
4816,17,Jits_Phase_5,0,5,63,98,1709845736
4816,17,Jits_Phase_5,1,1,48,79,1709874560
4816,17,Jits_Phase_5,2,5,56,103,1709896228
4816,17,Jits_Phase_5,3,5,80,127,1709925676
4816,17,Jits_Phase_5,0,5,80,127,1710345560
4816,17,Jits_Phase_5,1,5,63,98,1710355980
4816,17,Jits_Phase_5,2,1,48,90,1710385256
4816,17,Jits_Phase_5,3,5,56,103,1710425576
4816,17,Jits_Phase_5,0,1,48,89,1710861996
4816,17,Jits_Phase_5,1,5,80,127,1710905632
4816,17,Jits_Phase_5,2,5,56,103,1710916052
4816,17,Jits_Phase_5,3,5,63,98,1710919192
4816,17,Jits_Phase_5,0,5,56,103,1711346120
4816,17,Jits_Phase_5,1,5,80,127,1711365532
4816,17,Jits_Phase_5,2,5,63,98,1711375656
4816,17,Jits_Phase_5,3,1,48,73,1711380792
4816,17,Jits_Phase_5,0,5,63,98,1711856148
4816,17,Jits_Phase_5,1,5,56,103,1711896012
4816,17,Jits_Phase_5,2,1,48,91,1711906552
4816,17,Jits_Phase_5,3,5,80,127,1711916464
4816,17,Jits_Phase_5,0,5,63,98,1712355828
4816,17,Jits_Phase_5,1,1,48,76,1712392432
4816,17,Jits_Phase_5,2,5,56,103,1712416208
4816,17,Jits_Phase_5,3,5,80,127,1712419348
4816,17,Jits_Phase_5,0,5,56,103,1712815416
4816,17,Jits_Phase_5,1,5,80,127,1712836096
4816,17,Jits_Phase_5,2,5,63,98,1712876032
4816,17,Jits_Phase_5,3,1,48,70,1712882368
4816,17,Jits_Phase_5,0,5,56,103,1713346192
4816,17,Jits_Phase_5,1,5,63,98,1713366280
4816,17,Jits_Phase_5,2,1,48,80,1713371416
4816,17,Jits_Phase_5,3,5,80,127,1713375644
4816,17,Jits_Phase_5,0,5,80,127,1713816064
4816,17,Jits_Phase_5,1,5,56,103,1713845588
4816,17,Jits_Phase_5,2,1,48,84,1713860016
4816,17,Jits_Phase_5,3,5,63,98,1713885520
4816,17,Jits_Phase_5,0,5,80,127,1714326160
4816,17,Jits_Phase_5,1,5,56,103,1714346320
4816,17,Jits_Phase_5,2,1,48,89,1714367872
4816,17,Jits_Phase_5,3,5,63,98,1714405728
4816,17,Jits_Phase_5,0,5,56,103,1714835888
4816,17,Jits_Phase_5,1,5,80,127,1714856272
4816,17,Jits_Phase_5,2,1,48,81,1714874980
4816,17,Jits_Phase_5,3,5,63,98,1714915828
4816,17,Jits_Phase_5,0,5,80,127,1715316220
4816,17,Jits_Phase_5,1,5,56,103,1715326292
4816,17,Jits_Phase_5,2,1,48,95,1715355116
4816,17,Jits_Phase_5,3,5,63,98,1715366152
4816,17,Jits_Phase_5,0,5,63,98,1715815908
4816,17,Jits_Phase_5,1,5,56,103,1715855944
4816,17,Jits_Phase_5,2,5,80,127,1715859008
4816,17,Jits_Phase_5,3,1,48,90,1715872316
4816,17,Jits_Phase_5,0,5,63,98,1716336024
4816,17,Jits_Phase_5,1,1,48,44,1716366740
4816,17,Jits_Phase_5,2,5,80,127,1716376128
4816,17,Jits_Phase_5,3,5,56,103,1716405804
4816,17,Jits_Phase_5,0,5,56,103,1716825436
4816,17,Jits_Phase_5,1,5,63,98,1716836076
4816,17,Jits_Phase_5,2,5,80,127,1716866448
4816,17,Jits_Phase_5,3,1,48,102,1716869568
4816,17,Jits_Phase_5,0,5,80,127,1717315840
4816,17,Jits_Phase_5,1,1,48,95,1717354472
4816,17,Jits_Phase_5,2,5,63,98,1717385464
4816,17,Jits_Phase_5,3,5,56,103,1717395884
4816,17,Jits_Phase_5,0,5,63,98,1717815596
4816,17,Jits_Phase_5,1,1,48,65,1717829052
4816,17,Jits_Phase_5,2,5,56,103,1717886268
4816,17,Jits_Phase_5,3,5,80,127,1717895488
4816,17,Jits_Phase_5,0,5,63,98,1718296016
4816,17,Jits_Phase_5,1,5,56,103,1718316324
4816,17,Jits_Phase_5,2,5,80,127,1718356336
4816,17,Jits_Phase_5,3,1,48,100,1718378476
4816,17,Jits_Phase_5,0,5,56,103,1718776296
4816,17,Jits_Phase_5,1,5,63,98,1718786268
4816,17,Jits_Phase_5,2,1,48,79,1718851556
4816,17,Jits_Phase_5,3,5,80,127,1718866276
4816,17,Jits_Phase_5,0,5,63,98,1719265648
4816,17,Jits_Phase_5,1,5,56,103,1719296296
4816,17,Jits_Phase_5,2,1,48,72,1719299036
4816,17,Jits_Phase_5,3,5,80,127,1719336444
4816,17,Jits_Phase_5,0,5,56,103,1719766364
4816,17,Jits_Phase_5,1,1,48,89,1719805852
4816,17,Jits_Phase_5,2,5,63,98,1719807492
4816,17,Jits_Phase_5,3,5,80,127,1719846232
4816,17,Jits_Phase_5,0,1,48,82,1720271036
4816,17,Jits_Phase_5,1,5,80,127,1720276384
4816,17,Jits_Phase_5,2,5,56,103,1720356104
4816,17,Jits_Phase_5,3,5,63,98,1720365388
4816,17,Jits_Phase_5,0,1,48,83,1720796416
4816,17,Jits_Phase_5,1,5,56,103,1720815920
4816,17,Jits_Phase_5,2,5,63,98,1720818984
4816,17,Jits_Phase_5,3,5,80,127,1720826188
4816,17,Jits_Phase_5,0,1,48,80,1721280336
4816,17,Jits_Phase_5,1,1,38,19,1721290132
4816,17,Jits_Phase_5,2,5,56,103,1721336092
4816,17,Jits_Phase_5,3,5,63,98,1721355724
4816,17,Jits_Phase_5,4,5,80,127,1721365848
4816,17,Jits_Phase_5,0,5,63,98,1721795940
4816,17,Jits_Phase_5,1,5,80,127,1721806060
4816,17,Jits_Phase_5,2,1,48,81,1721811200
4816,17,Jits_Phase_5,3,5,56,103,1721825912
4816,17,Jits_Phase_5,0,1,48,89,1722292648
4816,17,Jits_Phase_5,1,5,63,98,1722295756
4816,17,Jits_Phase_5,2,5,56,103,1722375472
4816,17,Jits_Phase_5,3,5,80,127,1722378536
4816,17,Jits_Phase_5,0,5,63,98,1722796548
4816,17,Jits_Phase_5,1,1,48,95,1722801084
4816,17,Jits_Phase_5,2,5,56,103,1722815956
4816,17,Jits_Phase_5,3,5,80,127,1722845480
4816,17,Jits_Phase_5,0,5,56,103,1723296000
4816,17,Jits_Phase_5,1,5,63,98,1723315708
4816,17,Jits_Phase_5,2,5,80,127,1723325756
4816,17,Jits_Phase_5,3,1,48,70,1723357040
4816,17,Jits_Phase_5,0,5,56,103,1723825724
4816,17,Jits_Phase_5,1,1,48,80,1723843672
4816,17,Jits_Phase_5,2,5,63,98,1723856288
4816,17,Jits_Phase_5,3,5,80,127,1723859728
4816,17,Jits_Phase_5,0,5,56,103,1724275940
4816,17,Jits_Phase_5,1,1,48,90,1724313612
4816,17,Jits_Phase_5,2,5,63,98,1724315968
4816,17,Jits_Phase_5,3,5,80,127,1724376428
4816,17,Jits_Phase_5,0,5,56,103,1724796252
4816,17,Jits_Phase_5,1,5,63,98,1724805476
4816,17,Jits_Phase_5,2,1,48,100,1724807264
4816,17,Jits_Phase_5,3,5,80,127,1724865856
4816,17,Jits_Phase_5,0,5,56,103,1725295852
4816,17,Jits_Phase_5,1,5,80,127,1725315364
4816,17,Jits_Phase_5,2,1,48,82,1725316332
4816,17,Jits_Phase_5,3,5,63,98,1725346300
4816,17,Jits_Phase_5,0,5,80,127,1725795688
4816,17,Jits_Phase_5,1,5,56,103,1725805812
4816,17,Jits_Phase_5,2,1,48,71,1725824780
4816,17,Jits_Phase_5,3,5,63,98,1725826660
4816,17,Jits_Phase_5,0,5,63,98,1726286232
4816,17,Jits_Phase_5,1,1,48,74,1726312720
4816,17,Jits_Phase_5,2,5,80,127,1726365972
4816,17,Jits_Phase_5,3,5,56,103,1726376244
4816,17,Jits_Phase_5,0,1,48,75,1726810220
4816,17,Jits_Phase_5,1,5,80,127,1726875980
4816,17,Jits_Phase_5,2,5,56,103,1726895760
4816,17,Jits_Phase_5,3,5,63,98,1726898752
4816,17,Jits_Phase_5,0,5,63,98,1727365612
4816,17,Jits_Phase_5,1,1,48,64,1727368752
4816,17,Jits_Phase_5,2,5,80,127,1727370392
4816,17,Jits_Phase_5,3,5,56,103,1727425992
4816,17,Jits_Phase_5,0,5,56,103,1727845852
4816,17,Jits_Phase_5,1,5,80,127,1727855972
4816,17,Jits_Phase_5,2,5,63,98,1727895860
4816,17,Jits_Phase_5,3,1,48,89,1727922940
4816,17,Jits_Phase_5,0,5,56,103,1728325912
4816,17,Jits_Phase_5,1,5,63,98,1728386548
4816,17,Jits_Phase_5,2,1,48,89,1728393804
4816,17,Jits_Phase_5,3,5,80,127,1728395692
4816,17,Jits_Phase_5,0,5,63,98,1728835928
4816,17,Jits_Phase_5,1,1,48,63,1728869540
4816,17,Jits_Phase_5,2,5,80,127,1728875936
4816,17,Jits_Phase_5,3,5,56,103,1728915820
4816,17,Jits_Phase_5,0,5,56,103,1729335680
4816,17,Jits_Phase_5,1,5,63,98,1729415792
4816,17,Jits_Phase_5,2,5,80,127,1729419008
4816,17,Jits_Phase_5,3,1,48,77,1729436516
4816,17,Jits_Phase_5,0,5,80,127,1729895744
4816,17,Jits_Phase_5,1,5,56,103,1729925664
4816,17,Jits_Phase_5,2,5,63,98,1729928584
4816,17,Jits_Phase_5,3,1,48,72,1729929920
4816,17,Jits_Phase_5,0,5,56,103,1730355724
4816,17,Jits_Phase_5,1,5,80,127,1730376180
4816,17,Jits_Phase_5,2,5,63,98,1730416044
4816,17,Jits_Phase_5,3,1,48,73,1730432144
4816,17,Jits_Phase_5,0,5,80,127,1730835860
4816,17,Jits_Phase_5,1,5,63,98,1730856244
4816,17,Jits_Phase_5,2,1,48,67,1730909328
4816,17,Jits_Phase_5,3,5,56,103,1730915576
4816,17,Jits_Phase_5,0,5,63,98,1731345808
4816,17,Jits_Phase_5,1,5,56,103,1731356004
4816,17,Jits_Phase_5,2,1,48,72,1731369608
4816,17,Jits_Phase_5,3,5,80,127,1731406196
4816,17,Jits_Phase_5,0,5,56,103,1731836340
4816,17,Jits_Phase_5,1,5,63,98,1731855676
4816,17,Jits_Phase_5,2,5,80,127,1731865948
4816,17,Jits_Phase_5,3,1,48,79,1731913180
4816,17,Jits_Phase_5,0,5,56,103,1732325688
4816,17,Jits_Phase_5,1,5,63,98,1732328676
4816,17,Jits_Phase_5,2,5,80,127,1732346292
4816,17,Jits_Phase_5,3,1,48,71,1732394216
4816,17,Jits_Phase_5,0,5,63,98,1732866564
4816,17,Jits_Phase_5,1,1,48,80,1732883704
4816,17,Jits_Phase_5,2,5,56,103,1732896080
4816,17,Jits_Phase_5,3,5,80,127,1732925756
4816,17,Jits_Phase_5,0,5,80,127,1733326232
4816,17,Jits_Phase_5,1,1,48,89,1733396328
4816,17,Jits_Phase_5,2,5,56,103,1733416428
4816,17,Jits_Phase_5,3,5,63,98,1733419644
4816,17,Jits_Phase_5,0,5,56,103,1733825836
4816,17,Jits_Phase_5,1,5,80,127,1733828904
4816,17,Jits_Phase_5,2,5,63,98,1733905848
4816,17,Jits_Phase_5,3,1,48,87,1733919600
4816,17,Jits_Phase_5,0,5,80,127,1734325736
4816,17,Jits_Phase_5,1,5,63,98,1734386128
4816,17,Jits_Phase_5,2,5,56,103,1734415800
4816,17,Jits_Phase_5,3,1,48,77,1734418472
4816,17,Jits_Phase_5,0,5,63,98,1734826476
4816,17,Jits_Phase_5,1,5,80,127,1734835700
4816,17,Jits_Phase_5,2,5,56,103,1734906200
4816,17,Jits_Phase_5,3,1,48,86,1734907164
4816,17,Jits_Phase_5,0,5,56,103,1735385708
4816,17,Jits_Phase_5,1,1,48,88,1735401488
4816,17,Jits_Phase_5,2,5,80,127,1735416200
4816,17,Jits_Phase_5,3,5,63,98,1735466476
4816,17,Jits_Phase_5,0,1,48,78,1735901684
4816,17,Jits_Phase_5,1,5,63,98,1735976340
4816,17,Jits_Phase_5,2,5,56,103,1736005996
4816,17,Jits_Phase_5,3,5,80,127,1736009060
4816,17,Jits_Phase_5,0,1,48,82,1736467436
4816,17,Jits_Phase_5,1,5,63,98,1736476008
4816,17,Jits_Phase_5,2,5,80,127,1736495420
4816,17,Jits_Phase_5,3,5,56,103,1736505616
4816,17,Jits_Phase_5,0,1,48,87,1736975960
4816,17,Jits_Phase_5,1,5,56,103,1736986020
4816,17,Jits_Phase_5,2,5,63,98,1736989160
4816,17,Jits_Phase_5,3,5,80,127,1737005580
4816,17,Jits_Phase_5,0,5,56,103,1737435428
4816,17,Jits_Phase_5,1,5,63,98,1737445844
4816,17,Jits_Phase_5,2,5,80,127,1737475444
4816,17,Jits_Phase_5,3,1,48,75,1737508976
4816,17,Jits_Phase_5,0,5,63,98,1737955716
4816,17,Jits_Phase_5,1,1,48,87,1737970068
4816,17,Jits_Phase_5,2,5,80,127,1737976316
4816,17,Jits_Phase_5,3,5,56,103,1738016400
4816,17,Jits_Phase_5,0,5,56,103,1738486256
4816,17,Jits_Phase_5,1,1,48,81,1738502028
4816,17,Jits_Phase_5,2,5,63,98,1738525956
4816,17,Jits_Phase_5,3,5,80,127,1738529324
4816,17,Jits_Phase_5,0,5,80,127,1738925556
4816,17,Jits_Phase_5,1,5,56,103,1738966540
4816,17,Jits_Phase_5,2,1,48,91,1739009364
4816,17,Jits_Phase_5,3,5,63,98,1739015464
4816,17,Jits_Phase_5,0,5,56,103,1739485560
4816,17,Jits_Phase_5,1,1,48,80,1739490324
4816,17,Jits_Phase_5,2,5,80,127,1739495672
4816,17,Jits_Phase_5,3,5,63,98,1739525568
4816,17,Jits_Phase_5,0,5,56,103,1739936104
4816,17,Jits_Phase_5,1,5,80,127,1739976336
4816,17,Jits_Phase_5,2,1,48,70,1739990396
4816,17,Jits_Phase_5,3,5,63,98,1740026308
4816,17,Jits_Phase_5,0,5,56,103,1740435868
4816,17,Jits_Phase_5,1,5,80,127,1740475732
4816,17,Jits_Phase_5,2,1,48,57,1740515936
4816,17,Jits_Phase_5,3,5,63,98,1740526000
4816,17,Jits_Phase_5,0,5,80,127,1740926564
4816,17,Jits_Phase_5,1,5,63,98,1741006284
4816,17,Jits_Phase_5,2,1,48,98,1741008372
4816,17,Jits_Phase_5,3,5,56,103,1741016476
4816,17,Jits_Phase_5,0,5,80,127,1741476448
4816,17,Jits_Phase_5,1,5,56,103,1741485376
4816,17,Jits_Phase_5,2,1,48,101,1741498532
4816,17,Jits_Phase_5,3,5,63,98,1741505904
4816,17,Jits_Phase_5,0,5,63,98,1741946332
4816,17,Jits_Phase_5,1,1,48,87,1742010432
4816,17,Jits_Phase_5,2,5,56,103,1742015928
4816,17,Jits_Phase_5,3,5,80,127,1742018920
4816,17,Jits_Phase_5,0,5,80,127,1742435712
4816,17,Jits_Phase_5,1,1,48,76,1742485644
4816,17,Jits_Phase_5,2,5,63,98,1742487352
4816,17,Jits_Phase_5,3,5,56,103,1742525944
4816,17,Jits_Phase_5,0,5,63,98,1742976260
4816,17,Jits_Phase_5,1,1,48,82,1743009492
4816,17,Jits_Phase_5,2,5,56,103,1743016192
4816,17,Jits_Phase_5,3,5,80,127,1743025488
4816,17,Jits_Phase_5,0,5,63,98,1743465728
4816,17,Jits_Phase_5,1,5,56,103,1743486360
4816,17,Jits_Phase_5,2,5,80,127,1743505768
4816,17,Jits_Phase_5,3,1,48,76,1743506960
4816,17,Jits_Phase_5,0,5,80,127,1743925764
4816,17,Jits_Phase_5,1,5,56,103,1743935812
4816,17,Jits_Phase_5,2,5,63,98,1743956416
4816,17,Jits_Phase_5,3,1,48,82,1744005108
4816,17,Jits_Phase_5,0,5,63,98,1744456160
4816,17,Jits_Phase_5,1,1,48,76,1744484908
4816,17,Jits_Phase_5,2,5,56,103,1744496092
4816,17,Jits_Phase_5,3,5,80,127,1744525720
4816,17,Jits_Phase_5,0,5,56,103,1744915684
4816,17,Jits_Phase_5,1,5,63,98,1744945508
4816,17,Jits_Phase_5,2,5,80,127,1744976452
4816,17,Jits_Phase_5,3,1,48,78,1744979196
4816,17,Jits_Phase_5,0,5,80,127,1745335516
4816,17,Jits_Phase_5,1,5,56,103,1745406464
4816,17,Jits_Phase_5,2,5,63,98,1745409756
4816,17,Jits_Phase_5,3,1,48,56,1745525180
4816,17,Jits_Phase_5,0,5,56,103,1745845540
4816,17,Jits_Phase_5,1,5,63,98,1745895740
4816,17,Jits_Phase_5,2,5,80,127,1745925340
4816,17,Jits_Phase_5,3,1,48,96,1745933636
4816,17,Jits_Phase_5,0,5,63,98,1746325824
4816,17,Jits_Phase_5,1,5,80,127,1746329260
4816,17,Jits_Phase_5,2,5,56,103,1746386208
4816,17,Jits_Phase_5,3,1,48,84,1746387176
4816,17,Jits_Phase_5,0,5,56,103,1746856500
4816,17,Jits_Phase_5,1,5,80,127,1746865572
4816,17,Jits_Phase_5,2,1,48,97,1746900748
4816,17,Jits_Phase_5,3,5,63,98,1746915692
4816,17,Jits_Phase_5,0,5,63,98,1747326372
4816,17,Jits_Phase_5,1,5,56,103,1747335520
4816,17,Jits_Phase_5,2,5,80,127,1747366316
4816,17,Jits_Phase_5,3,1,48,87,1747385772
4816,17,Jits_Phase_5,4,1,38,19,1747395792
4816,17,Jits_Phase_5,0,5,63,98,1747855716
4816,17,Jits_Phase_5,1,5,80,127,1747859300
4816,17,Jits_Phase_5,2,5,56,103,1747885316
4816,17,Jits_Phase_5,3,1,48,80,1747926564
4816,17,Jits_Phase_5,0,5,63,98,1748376056
4816,17,Jits_Phase_5,1,5,56,103,1748396364
4816,17,Jits_Phase_5,2,5,80,127,1748399504
4816,17,Jits_Phase_5,3,1,48,100,1748416416
4816,17,Jits_Phase_5,0,5,63,98,1748835704
4816,17,Jits_Phase_5,1,5,56,103,1748906232
4816,17,Jits_Phase_5,2,1,48,85,1748919084
4816,17,Jits_Phase_5,3,5,80,127,1748925708
4816,17,Jits_Phase_5,0,5,56,103,1749326236
4816,17,Jits_Phase_5,1,5,63,98,1749336360
4816,17,Jits_Phase_5,2,1,48,75,1749397188
4816,17,Jits_Phase_5,3,5,80,127,1749425456
4816,17,Jits_Phase_5,0,5,56,103,1749846376
4816,17,Jits_Phase_5,1,5,80,127,1749886192
4816,17,Jits_Phase_5,2,1,48,81,1749887156
4816,17,Jits_Phase_5,3,5,63,98,1749895408
4816,17,Jits_Phase_5,0,1,48,83,1750350664
4816,17,Jits_Phase_5,1,5,56,103,1750365684
4816,17,Jits_Phase_5,2,5,63,98,1750396204
4816,17,Jits_Phase_5,3,5,80,127,1750425952
4816,17,Jits_Phase_5,0,5,80,127,1750826408
4816,17,Jits_Phase_5,1,5,63,98,1750866344
4816,17,Jits_Phase_5,2,1,48,87,1750873224
4816,17,Jits_Phase_5,3,5,56,103,1750885900
4816,17,Jits_Phase_5,0,5,56,103,1751366100
4816,17,Jits_Phase_5,1,1,48,105,1751383620
4816,17,Jits_Phase_5,2,5,80,127,1751385432
4816,17,Jits_Phase_5,3,5,63,98,1751405964
4816,17,Jits_Phase_5,0,5,63,98,1751835984
4816,17,Jits_Phase_5,1,5,56,103,1751846256
4816,17,Jits_Phase_5,2,1,48,93,1751856940
4816,17,Jits_Phase_5,3,1,38,20,1751866812
4816,17,Jits_Phase_5,4,5,80,127,1751905716
4816,17,Jits_Phase_5,0,5,56,103,1752335588
4816,17,Jits_Phase_5,1,1,48,106,1752349120
4816,17,Jits_Phase_5,2,5,63,98,1752406236
4816,17,Jits_Phase_5,3,5,80,127,1752425944
4816,17,Jits_Phase_5,0,5,56,103,1752835440
4816,17,Jits_Phase_5,1,5,63,98,1752866236
4816,17,Jits_Phase_5,2,5,80,127,1752906244
4816,17,Jits_Phase_5,3,1,48,86,1752907212
4816,17,Jits_Phase_5,4,1,38,19,1752917304
4816,17,Jits_Phase_5,0,5,63,98,1753326004
4816,17,Jits_Phase_5,1,5,56,103,1753376056
4816,17,Jits_Phase_5,2,5,80,127,1753386324
4816,17,Jits_Phase_5,3,1,48,86,1753412064
4816,17,Jits_Phase_5,4,1,38,19,1753422008
4816,17,Jits_Phase_5,0,5,56,103,1753865468
4816,17,Jits_Phase_5,1,1,48,65,1753875560
4816,17,Jits_Phase_5,2,5,63,98,1753915884
4816,17,Jits_Phase_5,3,5,80,127,1753926152
4816,17,Jits_Phase_5,0,5,56,103,1754335712
4816,17,Jits_Phase_5,1,5,63,98,1754345984
4816,17,Jits_Phase_5,2,1,48,102,1754373980
4816,17,Jits_Phase_5,3,5,80,127,1754425692
4816,17,Jits_Phase_5,0,9999,9999,9999,1670063192
4816,17,Jits_Phase_5,1,9999,9999,9999,1670563940
4816,17,Jits_Phase_5,2,9999,9999,9999,1671063632
4816,17,Jits_Phase_5,3,9999,9999,9999,1671563320
4816,17,Jits_Phase_5,4,9999,9999,9999,1672064084
4816,17,Jits_Phase_5,5,9999,9999,9999,1672574044
4816,17,Jits_Phase_5,6,9999,9999,9999,1673073764
4816,17,Jits_Phase_5,7,9999,9999,9999,1673573444
4816,17,Jits_Phase_5,8,9999,9999,9999,1674073208
4816,17,Jits_Phase_5,9,9999,9999,9999,1674573944
4816,17,Jits_Phase_5,10,9999,9999,9999,1675073632
4816,17,Jits_Phase_5,11,9999,9999,9999,1675573324
4816,17,Jits_Phase_5,12,9999,9999,9999,1676074040
4816,17,Jits_Phase_5,13,9999,9999,9999,1676573792
4816,17,Jits_Phase_5,14,9999,9999,9999,1677073480
4816,17,Jits_Phase_5,15,9999,9999,9999,1677573176
4816,17,Jits_Phase_5,16,9999,9999,9999,1678073916
4816,17,Jits_Phase_5,17,9999,9999,9999,1678573624
4816,17,Jits_Phase_5,18,9999,9999,9999,1679073364
4816,17,Jits_Phase_5,19,9999,9999,9999,1679574140
4816,17,Jits_Phase_5,20,9999,9999,9999,1680084072
4816,17,Jits_Phase_5,21,9999,9999,9999,1680583784
4816,17,Jits_Phase_5,22,9999,9999,9999,1681083452
4816,17,Jits_Phase_5,23,9999,9999,9999,1681583216
4816,17,Jits_Phase_5,24,9999,9999,9999,1682083920
4816,17,Jits_Phase_5,25,9999,9999,9999,1682583628
4816,17,Jits_Phase_5,26,9999,9999,9999,1683083376
4816,17,Jits_Phase_5,27,9999,9999,9999,1683584084
4816,17,Jits_Phase_5,28,9999,9999,9999,1684094076
4816,17,Jits_Phase_5,29,9999,9999,9999,1684593788
4816,17,Jits_Phase_5,30,9999,9999,9999,1685083208
4816,17,Jits_Phase_5,31,9999,9999,9999,1685583940
4816,17,Jits_Phase_5,32,9999,9999,9999,1686083700
4816,17,Jits_Phase_5,33,9999,9999,9999,1686583388
4816,17,Jits_Phase_5,34,9999,9999,9999,1687083080
4816,17,Jits_Phase_5,35,9999,9999,9999,1687583816
4816,17,Jits_Phase_5,36,9999,9999,9999,1688083552
4816,17,Jits_Phase_5,37,9999,9999,9999,1688583224
4816,17,Jits_Phase_5,38,9999,9999,9999,1689084004
4816,17,Jits_Phase_5,39,9999,9999,9999,1689583680
4816,17,Jits_Phase_5,40,9999,9999,9999,1690083408
4816,17,Jits_Phase_5,41,9999,9999,9999,1690583168
4816,17,Jits_Phase_5,42,9999,9999,9999,1691083900
4816,17,Jits_Phase_5,43,9999,9999,9999,1691583572
4816,17,Jits_Phase_5,44,9999,9999,9999,1692083316
4816,17,Jits_Phase_5,45,9999,9999,9999,1692584048
4816,17,Jits_Phase_5,46,9999,9999,9999,1693083744
4816,17,Jits_Phase_5,47,9999,9999,9999,1693583476
4816,17,Jits_Phase_5,48,9999,9999,9999,1694093416
4816,17,Jits_Phase_5,49,9999,9999,9999,1694593108
4816,17,Jits_Phase_5,50,9999,9999,9999,1695093824
4816,17,Jits_Phase_5,51,9999,9999,9999,1695593584
4816,17,Jits_Phase_5,52,9999,9999,9999,1696093280
4816,17,Jits_Phase_5,53,9999,9999,9999,1696594036
4816,17,Jits_Phase_5,54,9999,9999,9999,1697093688
4816,17,Jits_Phase_5,55,9999,9999,9999,1697593464
4816,17,Jits_Phase_5,56,9999,9999,9999,1698093152
4816,17,Jits_Phase_5,57,9999,9999,9999,1698593876
4816,17,Jits_Phase_5,58,9999,9999,9999,1699093596
4816,17,Jits_Phase_5,59,9999,9999,9999,1699593320
4816,17,Jits_Phase_5,60,9999,9999,9999,1700094060
4816,17,Jits_Phase_5,61,9999,9999,9999,1700593736
4816,17,Jits_Phase_5,62,9999,9999,9999,1701093500
4816,17,Jits_Phase_5,63,9999,9999,9999,1701593184
4816,17,Jits_Phase_5,64,9999,9999,9999,1702113384
4816,17,Jits_Phase_5,65,9999,9999,9999,1702614120
4816,17,Jits_Phase_5,66,9999,9999,9999,1703124040
4816,17,Jits_Phase_5,67,9999,9999,9999,1703623752
4816,17,Jits_Phase_5,68,9999,9999,9999,1704123504
4816,17,Jits_Phase_5,69,9999,9999,9999,1704623180
4816,17,Jits_Phase_5,70,9999,9999,9999,1705123916
4816,17,Jits_Phase_5,71,9999,9999,9999,1705623652
4816,17,Jits_Phase_5,72,9999,9999,9999,1706123328
4816,17,Jits_Phase_5,73,9999,9999,9999,1706624124
4816,17,Jits_Phase_5,74,9999,9999,9999,1707134064
4816,17,Jits_Phase_5,75,9999,9999,9999,1707633736
4816,17,Jits_Phase_5,76,9999,9999,9999,1708133452
4816,17,Jits_Phase_5,77,9999,9999,9999,1708633204
4816,17,Jits_Phase_5,78,9999,9999,9999,1709133940
4816,17,Jits_Phase_5,79,9999,9999,9999,1709633628
4816,17,Jits_Phase_5,80,9999,9999,9999,1710133304
4816,17,Jits_Phase_5,81,9999,9999,9999,1710613576
4816,17,Jits_Phase_5,82,9999,9999,9999,1711113340
4816,17,Jits_Phase_5,83,9999,9999,9999,1711614060
4816,17,Jits_Phase_5,84,9999,9999,9999,1712113752
4816,17,Jits_Phase_5,85,9999,9999,9999,1712613500
4816,17,Jits_Phase_5,86,9999,9999,9999,1713113172
4816,17,Jits_Phase_5,87,9999,9999,9999,1713613904
4816,17,Jits_Phase_5,88,9999,9999,9999,1714113596
4816,17,Jits_Phase_5,89,9999,9999,9999,1714613356
4816,17,Jits_Phase_5,90,9999,9999,9999,1715114092
4816,17,Jits_Phase_5,91,9999,9999,9999,1715613780
4816,17,Jits_Phase_5,92,9999,9999,9999,1716113528
4816,17,Jits_Phase_5,93,9999,9999,9999,1716613204
4816,17,Jits_Phase_5,94,9999,9999,9999,1717113920
4816,17,Jits_Phase_5,95,9999,9999,9999,1717613672
4816,17,Jits_Phase_5,96,9999,9999,9999,1718113352
4816,17,Jits_Phase_5,97,9999,9999,9999,1718563952
4816,17,Jits_Phase_5,98,9999,9999,9999,1719063640
4816,17,Jits_Phase_5,99,9999,9999,9999,1719563328
4816,17,Jits_Phase_5,100,9999,9999,9999,1720064120
4816,17,Jits_Phase_5,101,9999,9999,9999,1720574076
4816,17,Jits_Phase_5,102,9999,9999,9999,1721073740
4816,17,Jits_Phase_5,103,9999,9999,9999,1721573444
4816,17,Jits_Phase_5,104,9999,9999,9999,1722073168
4816,17,Jits_Phase_5,105,9999,9999,9999,1722573880
4816,17,Jits_Phase_5,106,9999,9999,9999,1723073628
4816,17,Jits_Phase_5,107,9999,9999,9999,1723573304
4816,17,Jits_Phase_5,108,9999,9999,9999,1724074104
4816,17,Jits_Phase_5,109,9999,9999,9999,1724573792
4816,17,Jits_Phase_5,110,9999,9999,9999,1725073480
4816,17,Jits_Phase_5,111,9999,9999,9999,1725573180
4816,17,Jits_Phase_5,112,9999,9999,9999,1726073916
4816,17,Jits_Phase_5,113,9999,9999,9999,1726573656
4816,17,Jits_Phase_5,114,9999,9999,9999,1727123540
4816,17,Jits_Phase_5,115,9999,9999,9999,1727623284
4816,17,Jits_Phase_5,116,9999,9999,9999,1728124000
4816,17,Jits_Phase_5,117,9999,9999,9999,1728623740
4816,17,Jits_Phase_5,118,9999,9999,9999,1729123424
4816,17,Jits_Phase_5,119,9999,9999,9999,1729623164
4816,17,Jits_Phase_5,120,9999,9999,9999,1730123896
4816,17,Jits_Phase_5,121,9999,9999,9999,1730623588
4816,17,Jits_Phase_5,122,9999,9999,9999,1731123276
4816,17,Jits_Phase_5,123,9999,9999,9999,1731624012
4816,17,Jits_Phase_5,124,9999,9999,9999,1732123756
4816,17,Jits_Phase_5,125,9999,9999,9999,1732623428
4816,17,Jits_Phase_5,126,9999,9999,9999,1733123196
4816,17,Jits_Phase_5,127,9999,9999,9999,1733623904
4816,17,Jits_Phase_5,128,9999,9999,9999,1734123580
4816,17,Jits_Phase_5,129,9999,9999,9999,1734623348
4816,17,Jits_Phase_5,130,9999,9999,9999,1735124080
4816,17,Jits_Phase_5,131,9999,9999,9999,1735723096
4816,17,Jits_Phase_5,132,9999,9999,9999,1736223828
4816,17,Jits_Phase_5,133,9999,9999,9999,1736723576
4816,17,Jits_Phase_5,134,9999,9999,9999,1737223248
4816,17,Jits_Phase_5,135,9999,9999,9999,1737723964
4816,17,Jits_Phase_5,136,9999,9999,9999,1738223728
4816,17,Jits_Phase_5,137,9999,9999,9999,1738723400
4816,17,Jits_Phase_5,138,9999,9999,9999,1739223168
4816,17,Jits_Phase_5,139,9999,9999,9999,1739723832
4816,17,Jits_Phase_5,140,9999,9999,9999,1740223600
4816,17,Jits_Phase_5,141,9999,9999,9999,1740723288
4816,17,Jits_Phase_5,142,9999,9999,9999,1741224028
4816,17,Jits_Phase_5,143,9999,9999,9999,1741723716
4816,17,Jits_Phase_5,144,9999,9999,9999,1742223484
4816,17,Jits_Phase_5,145,9999,9999,9999,1742723160
4816,17,Jits_Phase_5,146,9999,9999,9999,1743223904
4816,17,Jits_Phase_5,147,9999,9999,9999,1743723628
4816,17,Jits_Phase_5,148,9999,9999,9999,1744223292
4816,17,Jits_Phase_5,149,9999,9999,9999,1744724028
4816,17,Jits_Phase_5,150,9999,9999,9999,1745123396
4816,17,Jits_Phase_5,151,9999,9999,9999,1745623152
4816,17,Jits_Phase_5,152,9999,9999,9999,1746123892
4816,17,Jits_Phase_5,153,9999,9999,9999,1746623568
4816,17,Jits_Phase_5,154,9999,9999,9999,1747123316
4816,17,Jits_Phase_5,155,9999,9999,9999,1747624004
4816,17,Jits_Phase_5,156,9999,9999,9999,1748123720
4816,17,Jits_Phase_5,157,9999,9999,9999,1748623460
4816,17,Jits_Phase_5,158,9999,9999,9999,1749123148
4816,17,Jits_Phase_5,159,9999,9999,9999,1749623868
4816,17,Jits_Phase_5,160,9999,9999,9999,1750123604
4816,17,Jits_Phase_5,161,9999,9999,9999,1750623292
4816,17,Jits_Phase_5,162,9999,9999,9999,1751124088
4816,17,Jits_Phase_5,163,9999,9999,9999,1751623776
4816,17,Jits_Phase_5,164,9999,9999,9999,1752123500
4816,17,Jits_Phase_5,165,9999,9999,9999,1752623160
4816,17,Jits_Phase_5,166,9999,9999,9999,1753123944
4816,17,Jits_Phase_5,167,9999,9999,9999,1753623636
4816,17,Jits_Phase_5,168,9999,9999,9999,1754123368
4816,17,Jits_Phase_5,169,9999,9999,9999,1754624104
4817,15,Jits_Phase_8,0,5,56,103,1764280688
4817,15,Jits_Phase_8,1,5,63,98,1764283864
4817,15,Jits_Phase_8,2,5,80,127,1764286984
4817,15,Jits_Phase_8,3,1,38,14,1764332364
4817,15,Jits_Phase_8,0,1,48,29,1764765196
4817,15,Jits_Phase_8,1,1,38,19,1764773492
4817,15,Jits_Phase_8,2,5,56,103,1765080520
4817,15,Jits_Phase_8,3,5,63,98,1765083772
4817,15,Jits_Phase_8,4,5,80,127,1765086816
4817,15,Jits_Phase_8,5,1,48,97,1765314632
4817,15,Jits_Phase_8,0,5,80,127,1765820816
4817,15,Jits_Phase_8,1,1,48,87,1765849416
4817,15,Jits_Phase_8,2,5,63,98,1765910868
4817,15,Jits_Phase_8,3,5,56,103,1765921064
4817,15,Jits_Phase_8,0,1,48,77,1766516452
4817,15,Jits_Phase_8,1,5,56,103,1766641068
4817,15,Jits_Phase_8,2,5,63,98,1766651488
4817,15,Jits_Phase_8,3,5,80,127,1766741472
4817,15,Jits_Phase_8,0,1,48,88,1767304904
4817,15,Jits_Phase_8,1,5,63,98,1767410936
4817,15,Jits_Phase_8,2,5,80,127,1767440760
4817,15,Jits_Phase_8,3,5,56,103,1767470584
4817,15,Jits_Phase_8,0,1,48,80,1768105404
4817,15,Jits_Phase_8,1,5,56,103,1768210760
4817,15,Jits_Phase_8,2,5,80,127,1768311112
4817,15,Jits_Phase_8,3,5,63,98,1768361312
4817,15,Jits_Phase_8,0,1,48,71,1768958724
4817,15,Jits_Phase_8,1,5,56,103,1769010688
4817,15,Jits_Phase_8,2,5,80,127,1769060800
4817,15,Jits_Phase_8,3,5,63,98,1769100760
4817,15,Jits_Phase_8,0,1,48,73,1769719992
4817,15,Jits_Phase_8,1,5,80,127,1769840996
4817,15,Jits_Phase_8,2,5,63,98,1769870624
4817,15,Jits_Phase_8,3,5,56,103,1769941496
4817,15,Jits_Phase_8,0,1,48,72,1770532552
4817,15,Jits_Phase_8,1,5,63,98,1770670448
4817,15,Jits_Phase_8,2,5,56,103,1770701172
4817,15,Jits_Phase_8,3,5,80,127,1770760516
4817,15,Jits_Phase_8,0,1,48,78,1771390928
4817,15,Jits_Phase_8,1,5,56,103,1771410812
4817,15,Jits_Phase_8,2,5,80,127,1771413952
4817,15,Jits_Phase_8,3,5,63,98,1771530668
4817,15,Jits_Phase_8,0,1,48,78,1772199448
4817,15,Jits_Phase_8,1,5,56,103,1772290500
4817,15,Jits_Phase_8,2,5,80,127,1772331472
4817,15,Jits_Phase_8,3,5,63,98,1772340696
4817,15,Jits_Phase_8,0,1,48,85,1772994332
4817,15,Jits_Phase_8,1,5,56,103,1773051376
4817,15,Jits_Phase_8,2,5,80,127,1773070788
4817,15,Jits_Phase_8,3,5,63,98,1773150716
4817,15,Jits_Phase_8,0,1,48,70,1773818660
4817,15,Jits_Phase_8,1,5,80,127,1773840652
4817,15,Jits_Phase_8,2,5,56,103,1773941056
4817,15,Jits_Phase_8,3,5,63,98,1773951476
4817,15,Jits_Phase_8,0,5,63,98,1774610748
4817,15,Jits_Phase_8,1,1,48,87,1774658508
4817,15,Jits_Phase_8,2,5,80,127,1774671432
4817,15,Jits_Phase_8,3,5,56,103,1774680508
4817,15,Jits_Phase_8,0,1,48,78,1775398324
4817,15,Jits_Phase_8,1,5,56,103,1775410648
4817,15,Jits_Phase_8,2,5,63,98,1775481252
4817,15,Jits_Phase_8,3,5,80,127,1775484692
4817,15,Jits_Phase_8,0,1,48,62,1776202128
4817,15,Jits_Phase_8,1,5,63,98,1776240892
4817,15,Jits_Phase_8,2,5,56,103,1776291268
4817,15,Jits_Phase_8,3,5,80,127,1776294408
4817,15,Jits_Phase_8,0,1,48,94,1776978268
4817,15,Jits_Phase_8,1,5,56,103,1777000696
4817,15,Jits_Phase_8,2,5,80,127,1777003920
4817,15,Jits_Phase_8,3,5,63,98,1777090920
4817,15,Jits_Phase_8,0,1,48,68,1777812132
4817,15,Jits_Phase_8,1,5,63,98,1777840408
4817,15,Jits_Phase_8,2,5,56,103,1777930748
4817,15,Jits_Phase_8,3,5,80,127,1777961396
4817,15,Jits_Phase_8,0,1,48,83,1778627848
4817,15,Jits_Phase_8,1,5,56,103,1778631028
4817,15,Jits_Phase_8,2,1,38,19,1778637808
4817,15,Jits_Phase_8,3,5,63,98,1778731328
4817,15,Jits_Phase_8,4,5,80,127,1778761284
4817,15,Jits_Phase_8,0,1,48,77,1779434840
4817,15,Jits_Phase_8,1,1,38,19,1779444784
4817,15,Jits_Phase_8,2,5,63,98,1779451476
4817,15,Jits_Phase_8,3,5,56,103,1779460552
4817,15,Jits_Phase_8,4,5,80,127,1779550640
4817,15,Jits_Phase_8,0,1,48,76,1780228916
4817,15,Jits_Phase_8,1,5,63,98,1780270444
4817,15,Jits_Phase_8,2,5,56,103,1780351444
4817,15,Jits_Phase_8,3,5,80,127,1780354512
4817,15,Jits_Phase_8,0,5,80,127,1781031392
4817,15,Jits_Phase_8,1,5,63,98,1781050808
4817,15,Jits_Phase_8,2,1,48,86,1781059852
4817,15,Jits_Phase_8,3,5,56,103,1781111288
4817,15,Jits_Phase_8,0,1,48,88,1781852340
4817,15,Jits_Phase_8,1,1,38,19,1781862956
4817,15,Jits_Phase_8,2,5,56,103,1781871072
4817,15,Jits_Phase_8,3,5,63,98,1781890584
4817,15,Jits_Phase_8,4,5,80,127,1781893728
4817,15,Jits_Phase_8,0,1,48,72,1782604140
4817,15,Jits_Phase_8,1,5,63,98,1782611432
4817,15,Jits_Phase_8,2,1,38,19,1782614184
4817,15,Jits_Phase_8,3,5,80,127,1782691172
4817,15,Jits_Phase_8,4,5,56,103,1782701296
4817,15,Jits_Phase_8,0,1,48,66,1783368944
4817,15,Jits_Phase_8,1,5,63,98,1783430500
4817,15,Jits_Phase_8,2,5,56,103,1783450884
4817,15,Jits_Phase_8,3,5,80,127,1783501368
4817,15,Jits_Phase_8,0,1,48,84,1784153928
4817,15,Jits_Phase_8,1,1,38,19,1784163800
4817,15,Jits_Phase_8,2,5,80,127,1784231356
4817,15,Jits_Phase_8,3,5,63,98,1784271176
4817,15,Jits_Phase_8,4,5,56,103,1784290664
4817,15,Jits_Phase_8,0,1,48,74,1784978964
4817,15,Jits_Phase_8,1,5,56,103,1785071136
4817,15,Jits_Phase_8,2,5,63,98,1785081316
4817,15,Jits_Phase_8,3,5,80,127,1785100656
4817,15,Jits_Phase_8,0,1,48,79,1785790032
4817,15,Jits_Phase_8,1,5,56,103,1785801368
4817,15,Jits_Phase_8,2,5,63,98,1785891116
4817,15,Jits_Phase_8,3,5,80,127,1785950532
4817,15,Jits_Phase_8,0,5,80,127,1786630432
4817,15,Jits_Phase_8,1,1,48,93,1786641000
4817,15,Jits_Phase_8,2,5,56,103,1786642568
4817,15,Jits_Phase_8,3,5,63,98,1786711496
4817,15,Jits_Phase_8,0,1,48,84,1787401772
4817,15,Jits_Phase_8,1,1,38,20,1787411868
4817,15,Jits_Phase_8,2,5,63,98,1787461192
4817,15,Jits_Phase_8,3,5,80,127,1787551232
4817,15,Jits_Phase_8,4,5,56,103,1787561280
4817,15,Jits_Phase_8,0,5,63,98,1788191084
4817,15,Jits_Phase_8,1,5,80,127,1788241216
4817,15,Jits_Phase_8,2,1,48,77,1788283464
4817,15,Jits_Phase_8,3,5,56,103,1788301020
4817,15,Jits_Phase_8,0,5,56,103,1789011296
4817,15,Jits_Phase_8,1,1,48,87,1789022060
4817,15,Jits_Phase_8,2,5,80,127,1789060320
4817,15,Jits_Phase_8,3,5,63,98,1789081076
4817,15,Jits_Phase_8,0,5,56,103,1789781468
4817,15,Jits_Phase_8,1,1,48,79,1789795600
4817,15,Jits_Phase_8,2,5,80,127,1789840756
4817,15,Jits_Phase_8,3,5,63,98,1789911396
4817,15,Jits_Phase_8,0,5,56,103,1790581040
4817,15,Jits_Phase_8,1,1,48,85,1790608052
4817,15,Jits_Phase_8,2,5,80,127,1790610860
4817,15,Jits_Phase_8,3,1,38,19,1790617720
4817,15,Jits_Phase_8,4,5,63,98,1790640456
4817,15,Jits_Phase_8,0,1,48,75,1791375092
4817,15,Jits_Phase_8,1,1,38,20,1791385560
4817,15,Jits_Phase_8,2,5,56,103,1791421032
4817,15,Jits_Phase_8,3,5,80,127,1791441192
4817,15,Jits_Phase_8,4,5,63,98,1791500640
4817,15,Jits_Phase_8,0,1,48,70,1792182200
4817,15,Jits_Phase_8,1,5,80,127,1792301344
4817,15,Jits_Phase_8,2,5,56,103,1792310568
4817,15,Jits_Phase_8,3,5,63,98,1792321132
4817,15,Jits_Phase_8,0,5,56,103,1793061120
4817,15,Jits_Phase_8,1,1,48,102,1793067900
4817,15,Jits_Phase_8,2,1,38,21,1793077552
4817,15,Jits_Phase_8,3,5,80,127,1793101108
4817,15,Jits_Phase_8,4,5,63,98,1793131004
4817,15,Jits_Phase_8,0,5,56,103,1793831172
4817,15,Jits_Phase_8,1,5,63,98,1793860848
4817,15,Jits_Phase_8,2,1,48,84,1793865912
4817,15,Jits_Phase_8,3,1,38,19,1793875776
4817,15,Jits_Phase_8,4,5,80,127,1793901056
4817,15,Jits_Phase_8,0,5,80,127,1794581048
4817,15,Jits_Phase_8,1,5,63,98,1794631100
4817,15,Jits_Phase_8,2,5,56,103,1794650364
4817,15,Jits_Phase_8,3,1,48,94,1794663448
4817,15,Jits_Phase_8,0,5,56,103,1795411456
4817,15,Jits_Phase_8,1,1,48,89,1795447036
4817,15,Jits_Phase_8,2,5,80,127,1795481080
4817,15,Jits_Phase_8,3,5,63,98,1795541232
4817,15,Jits_Phase_8,0,5,80,127,1796211008
4817,15,Jits_Phase_8,1,1,48,96,1796239832
4817,15,Jits_Phase_8,2,1,38,20,1796249704
4817,15,Jits_Phase_8,3,5,63,98,1796301044
4817,15,Jits_Phase_8,4,5,56,103,1796320752
4817,15,Jits_Phase_8,0,5,63,98,1797031392
4817,15,Jits_Phase_8,1,1,48,115,1797038792
4817,15,Jits_Phase_8,2,5,56,103,1797050944
4817,15,Jits_Phase_8,3,5,80,127,1797090884
4817,15,Jits_Phase_8,0,5,80,127,1797791000
4817,15,Jits_Phase_8,1,5,63,98,1797810640
4817,15,Jits_Phase_8,2,1,48,84,1797850400
4817,15,Jits_Phase_8,3,5,56,103,1797890276
4817,15,Jits_Phase_8,0,5,63,98,1798580728
4817,15,Jits_Phase_8,1,1,48,99,1798646256
4817,15,Jits_Phase_8,2,5,56,103,1798691308
4817,15,Jits_Phase_8,3,5,80,127,1798694156
4817,15,Jits_Phase_8,0,5,63,98,1799400856
4817,15,Jits_Phase_8,1,5,56,103,1799411052
4817,15,Jits_Phase_8,2,5,80,127,1799414196
4817,15,Jits_Phase_8,3,1,48,99,1799458732
4817,15,Jits_Phase_8,0,1,48,90,1800179984
4817,15,Jits_Phase_8,1,5,56,103,1800181784
4817,15,Jits_Phase_8,2,5,80,127,1800300900
4817,15,Jits_Phase_8,3,5,63,98,1800340788
4817,15,Jits_Phase_8,0,5,56,103,1801001408
4817,15,Jits_Phase_8,1,1,48,92,1801073680
4817,15,Jits_Phase_8,2,5,80,127,1801081224
4817,15,Jits_Phase_8,3,5,63,98,1801100784
4817,15,Jits_Phase_8,0,5,56,103,1801801032
4817,15,Jits_Phase_8,1,1,48,84,1801883368
4817,15,Jits_Phase_8,2,5,63,98,1801910664
4817,15,Jits_Phase_8,3,5,80,127,1801914104
4817,15,Jits_Phase_8,0,5,56,103,1802640760
4817,15,Jits_Phase_8,1,5,80,127,1802670584
4817,15,Jits_Phase_8,2,1,48,112,1802681576
4817,15,Jits_Phase_8,3,5,63,98,1802690888
4817,15,Jits_Phase_8,0,1,48,79,1803395920
4817,15,Jits_Phase_8,1,1,38,20,1803405268
4817,15,Jits_Phase_8,2,5,63,98,1803431148
4817,15,Jits_Phase_8,3,5,56,103,1803440672
4817,15,Jits_Phase_8,4,5,80,127,1803450868
4817,15,Jits_Phase_8,0,5,80,127,1804220812
4817,15,Jits_Phase_8,1,1,48,81,1804226176
4817,15,Jits_Phase_8,2,5,56,103,1804270860
4817,15,Jits_Phase_8,3,5,63,98,1804310872
4817,15,Jits_Phase_8,0,1,48,97,1805036948
4817,15,Jits_Phase_8,1,5,80,127,1805041028
4817,15,Jits_Phase_8,2,5,63,98,1805060588
4817,15,Jits_Phase_8,3,5,56,103,1805110564
4817,15,Jits_Phase_8,0,1,48,87,1805830348
4817,15,Jits_Phase_8,1,5,80,127,1805851048
4817,15,Jits_Phase_8,2,5,56,103,1805880720
4817,15,Jits_Phase_8,3,5,63,98,1805951456
4817,15,Jits_Phase_8,0,1,48,77,1806654444
4817,15,Jits_Phase_8,1,1,38,20,1806664316
4817,15,Jits_Phase_8,2,5,56,103,1806700836
4817,15,Jits_Phase_8,3,5,80,127,1806711056
4817,15,Jits_Phase_8,4,5,63,98,1806750980
4817,15,Jits_Phase_8,0,5,56,103,1807410512
4817,15,Jits_Phase_8,1,5,63,98,1807430972
4817,15,Jits_Phase_8,2,1,48,88,1807474872
4817,15,Jits_Phase_8,3,5,80,127,1807500744
4817,15,Jits_Phase_8,0,1,48,94,1808211744
4817,15,Jits_Phase_8,1,1,38,21,1808221244
4817,15,Jits_Phase_8,2,5,63,98,1808230632
4817,15,Jits_Phase_8,3,5,80,127,1808291124
4817,15,Jits_Phase_8,4,5,56,103,1808310520
4817,15,Jits_Phase_8,0,5,80,127,1809021388
4817,15,Jits_Phase_8,1,1,48,80,1809040624
4817,15,Jits_Phase_8,2,1,38,19,1809050520
4817,15,Jits_Phase_8,3,5,56,103,1809052984
4817,15,Jits_Phase_8,4,5,63,98,1809080640
4817,15,Jits_Phase_8,0,1,48,91,1809796700
4817,15,Jits_Phase_8,1,5,56,103,1809821232
4817,15,Jits_Phase_8,2,5,63,98,1809880500
4817,15,Jits_Phase_8,3,5,80,127,1809940800
4817,15,Jits_Phase_8,0,1,48,65,1810624256
4817,15,Jits_Phase_8,1,5,80,127,1810641364
4817,15,Jits_Phase_8,2,5,56,103,1810660780
4817,15,Jits_Phase_8,3,5,63,98,1810731788
4817,15,Jits_Phase_8,0,1,48,97,1811380488
4817,15,Jits_Phase_8,1,1,38,20,1811390732
4817,15,Jits_Phase_8,2,5,80,127,1811441104
4817,15,Jits_Phase_8,3,5,63,98,1811460444
4817,15,Jits_Phase_8,4,5,56,103,1811491268
4817,15,Jits_Phase_8,0,1,48,79,1812129524
4817,15,Jits_Phase_8,1,5,80,127,1812230680
4817,15,Jits_Phase_8,2,5,63,98,1812251064
4817,15,Jits_Phase_8,3,5,56,103,1812311528
4817,15,Jits_Phase_8,0,1,48,73,1812965832
4817,15,Jits_Phase_8,1,1,38,19,1812975704
4817,15,Jits_Phase_8,2,5,80,127,1813031472
4817,15,Jits_Phase_8,3,5,56,103,1813130584
4817,15,Jits_Phase_8,4,5,63,98,1813161528
4817,15,Jits_Phase_8,0,5,63,98,1813820780
4817,15,Jits_Phase_8,1,5,80,127,1813870836
4817,15,Jits_Phase_8,2,5,56,103,1813890420
4817,15,Jits_Phase_8,3,1,48,80,1813906868
4817,15,Jits_Phase_8,4,1,38,19,1813917260
4817,15,Jits_Phase_8,0,1,48,96,1814645700
4817,15,Jits_Phase_8,1,5,80,127,1814660420
4817,15,Jits_Phase_8,2,5,56,103,1814691288
4817,15,Jits_Phase_8,3,5,63,98,1814694432
4817,15,Jits_Phase_8,0,1,48,87,1815403176
4817,15,Jits_Phase_8,1,5,63,98,1815511552
4817,15,Jits_Phase_8,2,5,56,103,1815551636
4817,15,Jits_Phase_8,3,5,80,127,1815570752
4817,15,Jits_Phase_8,0,1,48,98,1816243268
4817,15,Jits_Phase_8,1,5,80,127,1816271312
4817,15,Jits_Phase_8,2,5,63,98,1816351168
4817,15,Jits_Phase_8,3,5,56,103,1816390884
4817,15,Jits_Phase_8,0,5,63,98,1817090412
4817,15,Jits_Phase_8,1,1,48,117,1817127684
4817,15,Jits_Phase_8,2,1,38,22,1817137780
4817,15,Jits_Phase_8,3,5,80,127,1817171376
4817,15,Jits_Phase_8,4,5,56,103,1817190640
4817,15,Jits_Phase_8,0,5,56,103,1817931248
4817,15,Jits_Phase_8,1,5,63,98,1817941296
4817,15,Jits_Phase_8,2,1,48,100,1817949592
4817,15,Jits_Phase_8,3,1,38,20,1817960136
4817,15,Jits_Phase_8,4,5,80,127,1817981604
4817,15,Jits_Phase_8,0,5,56,103,1818650948
4817,15,Jits_Phase_8,1,5,80,127,1818654316
4817,15,Jits_Phase_8,2,1,48,93,1818726512
4817,15,Jits_Phase_8,3,5,63,98,1818791216
4817,15,Jits_Phase_8,0,5,56,103,1819440444
4817,15,Jits_Phase_8,1,5,63,98,1819530604
4817,15,Jits_Phase_8,2,1,48,89,1819538208
4817,15,Jits_Phase_8,3,5,80,127,1819601472
4817,15,Jits_Phase_8,0,1,48,127,1820274748
4817,15,Jits_Phase_8,1,5,63,98,1820321224
4817,15,Jits_Phase_8,2,5,80,127,1820324736
4817,15,Jits_Phase_8,3,5,56,103,1820380548
4817,15,Jits_Phase_8,0,1,48,107,1821069436
4817,15,Jits_Phase_8,1,1,48,27,1821144328
4817,15,Jits_Phase_8,2,5,80,127,1821160764
4817,15,Jits_Phase_8,3,5,56,103,1821181448
4817,15,Jits_Phase_8,4,5,63,98,1821190448
4817,15,Jits_Phase_8,0,5,56,103,1821870340
4817,15,Jits_Phase_8,1,5,63,98,1821880684
4817,15,Jits_Phase_8,2,1,48,121,1821949140
4817,15,Jits_Phase_8,3,5,80,127,1821951252
4817,15,Jits_Phase_8,4,1,38,23,1821959324
4817,15,Jits_Phase_8,0,5,80,127,1822671328
4817,15,Jits_Phase_8,1,1,48,102,1822719188
4817,15,Jits_Phase_8,2,5,56,103,1822721304
4817,15,Jits_Phase_8,3,1,38,22,1822729896
4817,15,Jits_Phase_8,4,5,63,98,1822770448
4817,15,Jits_Phase_8,0,1,48,94,1823496492
4817,15,Jits_Phase_8,1,5,56,103,1823550768
4817,15,Jits_Phase_8,2,5,63,98,1823561188
4817,15,Jits_Phase_8,3,5,80,127,1823601112
4817,15,Jits_Phase_8,0,5,56,103,1824291252
4817,15,Jits_Phase_8,1,1,48,88,1824295948
4817,15,Jits_Phase_8,2,5,63,98,1824331260
4817,15,Jits_Phase_8,3,5,80,127,1824381260
4817,15,Jits_Phase_8,0,5,80,127,1825051092
4817,15,Jits_Phase_8,1,1,48,107,1825074440
4817,15,Jits_Phase_8,2,1,38,22,1825084464
4817,15,Jits_Phase_8,3,5,56,103,1825101120
4817,15,Jits_Phase_8,4,5,63,98,1825120680
4817,15,Jits_Phase_8,0,1,48,107,1825827988
4817,15,Jits_Phase_8,1,5,80,127,1825861212
4817,15,Jits_Phase_8,2,5,63,98,1825921256
4817,15,Jits_Phase_8,3,5,56,103,1826001256
4817,15,Jits_Phase_8,0,5,80,127,1826641372
4817,15,Jits_Phase_8,1,5,56,103,1826681340
4817,15,Jits_Phase_8,2,1,48,81,1826683352
4817,15,Jits_Phase_8,3,1,38,19,1826693596
4817,15,Jits_Phase_8,4,5,63,98,1826700516
4817,15,Jits_Phase_8,0,1,48,125,1827462056
4817,15,Jits_Phase_8,1,5,56,103,1827491228
4817,15,Jits_Phase_8,2,5,80,127,1827501424
4817,15,Jits_Phase_8,3,5,63,98,1827541212
4817,15,Jits_Phase_8,0,1,48,113,1828280796
4817,15,Jits_Phase_8,1,5,56,103,1828360464
4817,15,Jits_Phase_8,2,5,63,98,1828400536
4817,15,Jits_Phase_8,3,5,80,127,1828403900
4817,15,Jits_Phase_8,0,5,63,98,1829031156
4817,15,Jits_Phase_8,1,5,80,127,1829071320
4817,15,Jits_Phase_8,2,1,48,84,1829119008
4817,15,Jits_Phase_8,3,5,56,103,1829140992
4817,15,Jits_Phase_8,0,5,63,98,1829801240
4817,15,Jits_Phase_8,1,1,48,100,1829858764
4817,15,Jits_Phase_8,2,1,38,21,1829868708
4817,15,Jits_Phase_8,3,5,56,103,1829881160
4817,15,Jits_Phase_8,4,5,80,127,1829940576
4817,15,Jits_Phase_8,0,5,80,127,1830611280
4817,15,Jits_Phase_8,1,1,48,92,1830627580
4817,15,Jits_Phase_8,2,1,38,19,1830637600
4817,15,Jits_Phase_8,3,5,63,98,1830660556
4817,15,Jits_Phase_8,4,5,56,103,1830691128
4817,15,Jits_Phase_8,0,5,56,103,1831400936
4817,15,Jits_Phase_8,1,1,48,89,1831440248
4817,15,Jits_Phase_8,2,5,63,98,1831450984
4817,15,Jits_Phase_8,3,5,80,127,1831461108
4817,15,Jits_Phase_8,0,1,48,116,1832190412
4817,15,Jits_Phase_8,1,1,38,22,1832200360
4817,15,Jits_Phase_8,2,5,56,103,1832211016
4817,15,Jits_Phase_8,3,5,63,98,1832321440
4817,15,Jits_Phase_8,4,5,80,127,1832340928
4817,15,Jits_Phase_8,0,5,63,98,1833010540
4817,15,Jits_Phase_8,1,5,80,127,1833060744
4817,15,Jits_Phase_8,2,1,48,83,1833063716
4817,15,Jits_Phase_8,3,5,56,103,1833151040
4817,15,Jits_Phase_8,0,5,63,98,1833801008
4817,15,Jits_Phase_8,1,5,80,127,1833830836
4817,15,Jits_Phase_8,2,1,48,102,1833867312
4817,15,Jits_Phase_8,3,1,38,21,1833877252
4817,15,Jits_Phase_8,4,5,56,103,1833920964
4817,15,Jits_Phase_8,0,5,63,98,1834600924
4817,15,Jits_Phase_8,1,5,56,103,1834611148
4817,15,Jits_Phase_8,2,1,48,97,1834644908
4817,15,Jits_Phase_8,3,5,80,127,1834711384
4817,15,Jits_Phase_8,0,1,48,83,1835418888
4817,15,Jits_Phase_8,1,1,38,19,1835428736
4817,15,Jits_Phase_8,2,5,63,98,1835500852
4817,15,Jits_Phase_8,3,5,80,127,1835530708
4817,15,Jits_Phase_8,4,5,56,103,1835561204
4817,15,Jits_Phase_8,0,1,48,88,1836278872
4817,15,Jits_Phase_8,1,5,80,127,1836321160
4817,15,Jits_Phase_8,2,5,63,98,1836331508
4817,15,Jits_Phase_8,3,5,56,103,1836361032
4817,15,Jits_Phase_8,0,5,80,127,1837020540
4817,15,Jits_Phase_8,1,5,63,98,1837041148
4817,15,Jits_Phase_8,2,1,48,122,1837084872
4817,15,Jits_Phase_8,3,5,56,103,1837091116
4817,15,Jits_Phase_8,0,1,48,120,1837849216
4817,15,Jits_Phase_8,1,5,63,98,1837850956
4817,15,Jits_Phase_8,2,5,80,127,1837911348
4817,15,Jits_Phase_8,3,5,56,103,1837930984
4817,15,Jits_Phase_8,0,5,63,98,1838610744
4817,15,Jits_Phase_8,1,5,56,103,1838660944
4817,15,Jits_Phase_8,2,1,48,102,1838667808
4817,15,Jits_Phase_8,3,5,80,127,1838671284
4817,15,Jits_Phase_8,0,5,56,103,1839441372
4817,15,Jits_Phase_8,1,1,48,100,1839445096
4817,15,Jits_Phase_8,2,5,80,127,1839450740
4817,15,Jits_Phase_8,3,5,63,98,1839550700
4817,15,Jits_Phase_8,0,5,80,127,1840201148
4817,15,Jits_Phase_8,1,5,63,98,1840211272
4817,15,Jits_Phase_8,2,1,48,113,1840247228
4817,15,Jits_Phase_8,3,1,38,22,1840257176
4817,15,Jits_Phase_8,4,5,56,103,1840360920
4817,15,Jits_Phase_8,0,5,63,98,1841010928
4817,15,Jits_Phase_8,1,5,80,127,1841050944
4817,15,Jits_Phase_8,2,1,48,73,1841063056
4817,15,Jits_Phase_8,3,1,38,19,1841073376
4817,15,Jits_Phase_8,4,5,56,103,1841130932
4817,15,Jits_Phase_8,0,5,56,103,1841760544
4817,15,Jits_Phase_8,1,1,48,75,1841804372
4817,15,Jits_Phase_8,2,5,80,127,1841860964
4817,15,Jits_Phase_8,3,5,63,98,1841880376
4817,15,Jits_Phase_8,0,1,48,87,1842542688
4817,15,Jits_Phase_8,1,5,80,127,1842580868
4817,15,Jits_Phase_8,2,5,56,103,1842591216
4817,15,Jits_Phase_8,3,5,63,98,1842681556
4817,15,Jits_Phase_8,0,1,48,122,1843332508
4817,15,Jits_Phase_8,1,5,56,103,1843380560
4817,15,Jits_Phase_8,2,5,63,98,1843401092
4817,15,Jits_Phase_8,3,5,80,127,1843481020
4817,15,Jits_Phase_8,0,5,63,98,1844131200
4817,15,Jits_Phase_8,1,1,48,80,1844157468
4817,15,Jits_Phase_8,2,5,56,103,1844221172
4817,15,Jits_Phase_8,3,5,80,127,1844224544
4817,15,Jits_Phase_8,0,1,48,102,1844916820
4817,15,Jits_Phase_8,1,5,56,103,1844960684
4817,15,Jits_Phase_8,2,5,80,127,1845020988
4817,15,Jits_Phase_8,3,5,63,98,1845031260
4817,15,Jits_Phase_8,0,1,48,116,1845673160
4817,15,Jits_Phase_8,1,5,80,127,1845810652
4817,15,Jits_Phase_8,2,5,56,103,1845820920
4817,15,Jits_Phase_8,3,5,63,98,1845823988
4817,15,Jits_Phase_8,0,1,48,103,1846561944
4817,15,Jits_Phase_8,1,5,56,103,1846571332
4817,15,Jits_Phase_8,2,5,80,127,1846580480
4817,15,Jits_Phase_8,3,5,63,98,1846601160
4817,15,Jits_Phase_8,0,5,63,98,1847341524
4817,15,Jits_Phase_8,1,1,48,70,1847366364
4817,15,Jits_Phase_8,2,1,38,19,1847376308
4817,15,Jits_Phase_8,3,5,80,127,1847400840
4817,15,Jits_Phase_8,4,5,56,103,1847451140
4817,15,Jits_Phase_8,0,1,48,75,1848154584
4817,15,Jits_Phase_8,1,5,63,98,1848220948
4817,15,Jits_Phase_8,2,5,56,103,1848231216
4817,15,Jits_Phase_8,3,5,80,127,1848280652
4817,15,Jits_Phase_8,0,5,63,98,1848920592
4817,15,Jits_Phase_8,1,5,80,127,1848940904
4817,15,Jits_Phase_8,2,5,56,103,1848951420
4817,15,Jits_Phase_8,3,1,48,117,1849001072
4817,15,Jits_Phase_8,0,5,63,98,1849721128
4817,15,Jits_Phase_8,1,5,80,127,1849724716
4817,15,Jits_Phase_8,2,1,48,124,1849752192
4817,15,Jits_Phase_8,3,5,56,103,1849761056
4817,15,Jits_Phase_8,0,1,48,112,1850580412
4817,15,Jits_Phase_8,1,5,63,98,1850590476
4817,15,Jits_Phase_8,2,5,80,127,1850621716
4817,15,Jits_Phase_8,3,5,56,103,1850630496
4817,15,Jits_Phase_8,0,5,56,103,1851341192
4817,15,Jits_Phase_8,1,5,80,127,1851370792
4817,15,Jits_Phase_8,2,5,63,98,1851400616
4817,15,Jits_Phase_8,3,1,48,94,1851406952
4817,15,Jits_Phase_8,0,1,48,102,1852196964
4817,15,Jits_Phase_8,1,5,63,98,1852241424
4817,15,Jits_Phase_8,2,5,56,103,1852281384
4817,15,Jits_Phase_8,3,5,80,127,1852284304
4817,15,Jits_Phase_8,0,5,80,127,1852940592
4817,15,Jits_Phase_8,1,5,56,103,1853020464
4817,15,Jits_Phase_8,2,1,48,84,1853022328
4817,15,Jits_Phase_8,3,5,63,98,1853070608
4817,15,Jits_Phase_8,0,5,80,127,1853720964
4817,15,Jits_Phase_8,1,5,56,103,1853741424
4817,15,Jits_Phase_8,2,5,63,98,1853830456
4817,15,Jits_Phase_8,3,1,48,69,1853850580
4817,15,Jits_Phase_8,0,5,80,127,1854560588
4817,15,Jits_Phase_8,1,1,48,100,1854577360
4817,15,Jits_Phase_8,2,5,63,98,1854600472
4817,15,Jits_Phase_8,3,5,56,103,1854640484
4817,15,Jits_Phase_8,0,1,48,127,1855345372
4817,15,Jits_Phase_8,1,5,63,98,1855370728
4817,15,Jits_Phase_8,2,5,80,127,1855430896
4817,15,Jits_Phase_8,3,5,56,103,1855460704
4817,15,Jits_Phase_8,0,1,48,94,1856141932
4817,15,Jits_Phase_8,1,1,38,21,1856151880
4817,15,Jits_Phase_8,2,5,56,103,1856211464
4817,15,Jits_Phase_8,3,5,80,127,1856240980
4817,15,Jits_Phase_8,4,5,63,98,1856331244
4817,15,Jits_Phase_8,0,1,48,104,1856998580
4817,15,Jits_Phase_8,1,5,56,103,1857021444
4817,15,Jits_Phase_8,2,5,80,127,1857130820
4817,15,Jits_Phase_8,3,5,63,98,1857160520
4817,15,Jits_Phase_8,0,1,48,91,1857837608
4817,15,Jits_Phase_8,1,5,56,103,1857871504
4817,15,Jits_Phase_8,2,5,63,98,1857930580
4817,15,Jits_Phase_8,3,5,80,127,1857961360
4817,15,Jits_Phase_8,0,5,56,103,1858641236
4817,15,Jits_Phase_8,1,1,48,110,1858675616
4817,15,Jits_Phase_8,2,5,63,98,1858710788
4817,15,Jits_Phase_8,3,5,80,127,1858731324
4817,15,Jits_Phase_8,0,1,48,98,1859409384
4817,15,Jits_Phase_8,1,5,80,127,1859411268
4817,15,Jits_Phase_8,2,5,63,98,1859430832
4817,15,Jits_Phase_8,3,5,56,103,1859481056
4817,15,Jits_Phase_8,0,5,63,98,1860230464
4817,15,Jits_Phase_8,1,1,48,108,1860235604
4817,15,Jits_Phase_8,2,5,80,127,1860240876
4817,15,Jits_Phase_8,3,5,56,103,1860291152
4817,15,Jits_Phase_8,0,1,48,102,1860990932
4817,15,Jits_Phase_8,1,5,63,98,1861031268
4817,15,Jits_Phase_8,2,5,80,127,1861101008
4817,15,Jits_Phase_8,3,5,56,103,1861121244
4817,15,Jits_Phase_8,0,1,48,120,1861786960
4817,15,Jits_Phase_8,1,5,63,98,1861860864
4817,15,Jits_Phase_8,2,5,80,127,1861864156
4817,15,Jits_Phase_8,3,5,56,103,1861931276
4817,15,Jits_Phase_8,0,5,80,127,1862611268
4817,15,Jits_Phase_8,1,5,56,103,1862630832
4817,15,Jits_Phase_8,2,5,63,98,1862641100
4817,15,Jits_Phase_8,3,1,48,87,1862648336
4817,15,Jits_Phase_8,0,5,56,103,1863430440
4817,15,Jits_Phase_8,1,5,63,98,1863520572
4817,15,Jits_Phase_8,2,5,80,127,1863524088
4817,15,Jits_Phase_8,3,1,48,79,1863826828
4817,15,Jits_Phase_8,0,5,80,127,1864200532
4817,15,Jits_Phase_8,1,5,56,103,1864210952
4817,15,Jits_Phase_8,2,5,63,98,1864231264
4817,15,Jits_Phase_8,3,1,48,64,1864296632
4817,15,Jits_Phase_8,0,5,63,98,1865001192
4817,15,Jits_Phase_8,1,1,48,100,1865006928
4817,15,Jits_Phase_8,2,5,80,127,1865060680
4817,15,Jits_Phase_8,3,5,56,103,1865071272
4817,15,Jits_Phase_8,0,1,48,114,1865835380
4817,15,Jits_Phase_8,1,5,63,98,1865870800
4817,15,Jits_Phase_8,2,5,80,127,1865901304
4817,15,Jits_Phase_8,3,5,56,103,1865941296
4817,15,Jits_Phase_8,0,5,56,103,1866661228
4817,15,Jits_Phase_8,1,1,48,81,1866662268
4817,15,Jits_Phase_8,2,5,80,127,1866670596
4817,15,Jits_Phase_8,3,1,38,19,1866672608
4817,15,Jits_Phase_8,4,5,63,98,1866711348
4817,15,Jits_Phase_8,0,5,80,127,1867421012
4817,15,Jits_Phase_8,1,1,48,127,1867487656
4817,15,Jits_Phase_8,2,5,56,103,1867501024
4817,15,Jits_Phase_8,3,5,63,98,1867511292
4817,15,Jits_Phase_8,0,5,80,127,1868271208
4817,15,Jits_Phase_8,1,1,48,97,1868281152
4817,15,Jits_Phase_8,2,5,56,103,1868350924
4817,15,Jits_Phase_8,3,5,63,98,1868361044
4817,15,Jits_Phase_8,0,5,80,127,1869110996
4817,15,Jits_Phase_8,1,1,48,83,1869115240
4817,15,Jits_Phase_8,2,5,56,103,1869161044
4817,15,Jits_Phase_8,3,5,63,98,1869211120
4817,15,Jits_Phase_8,0,1,48,82,1869907572
4817,15,Jits_Phase_8,1,5,56,103,1870050940
4817,15,Jits_Phase_8,2,5,63,98,1870053932
4817,15,Jits_Phase_8,3,5,80,127,1870101064
4817,15,Jits_Phase_8,0,1,48,85,1870811496
4817,15,Jits_Phase_8,1,5,56,103,1870870860
4817,15,Jits_Phase_8,2,5,63,98,1870900536
4817,15,Jits_Phase_8,3,5,80,127,1870910864
4817,15,Jits_Phase_8,0,5,63,98,1871580504
4817,15,Jits_Phase_8,1,5,56,103,1871651156
4817,15,Jits_Phase_8,2,1,48,115,1871668816
4817,15,Jits_Phase_8,3,5,80,127,1871701276
4817,15,Jits_Phase_8,0,5,63,98,1872410992
4817,15,Jits_Phase_8,1,5,56,103,1872421184
4817,15,Jits_Phase_8,2,5,80,127,1872424400
4817,15,Jits_Phase_8,3,1,48,118,1872439520
4817,15,Jits_Phase_8,0,5,80,127,1873160844
4817,15,Jits_Phase_8,1,5,56,103,1873221012
4817,15,Jits_Phase_8,2,1,48,88,1873248936
4817,15,Jits_Phase_8,3,1,38,20,1873258808
4817,15,Jits_Phase_8,4,5,63,98,1873311216
4817,15,Jits_Phase_8,0,5,80,127,1873961296
4817,15,Jits_Phase_8,1,1,48,92,1874028092
4817,15,Jits_Phase_8,2,5,56,103,1874060740
4817,15,Jits_Phase_8,3,5,63,98,1874100676
4817,15,Jits_Phase_8,0,5,56,103,1874811364
4817,15,Jits_Phase_8,1,5,63,98,1874830852
4817,15,Jits_Phase_8,2,1,48,111,1874853748
4817,15,Jits_Phase_8,3,5,80,127,1874870856
4817,15,Jits_Phase_8,0,5,63,98,1875581256
4817,15,Jits_Phase_8,1,1,48,81,1875597780
4817,15,Jits_Phase_8,2,5,56,103,1875600888
4817,15,Jits_Phase_8,3,5,80,127,1875701040
4817,15,Jits_Phase_8,0,5,63,98,1876370900
4817,15,Jits_Phase_8,1,1,48,114,1876391108
4817,15,Jits_Phase_8,2,5,80,127,1876481332
4817,15,Jits_Phase_8,3,5,56,103,1876511212
4817,15,Jits_Phase_8,0,5,56,103,1877191044
4817,15,Jits_Phase_8,1,1,48,100,1877204872
4817,15,Jits_Phase_8,2,1,38,21,1877214744
4817,15,Jits_Phase_8,3,5,63,98,1877220844
4817,15,Jits_Phase_8,4,5,80,127,1877270892
4817,15,Jits_Phase_8,0,5,63,98,1877961012
4817,15,Jits_Phase_8,1,1,48,96,1877971848
4817,15,Jits_Phase_8,2,5,56,103,1877990904
4817,15,Jits_Phase_8,3,5,80,127,1878040880
4817,15,Jits_Phase_8,0,1,48,89,1878768668
4817,15,Jits_Phase_8,1,5,56,103,1878790504
4817,15,Jits_Phase_8,2,5,63,98,1878811036
4817,15,Jits_Phase_8,3,5,80,127,1878890816
4817,15,Jits_Phase_8,0,5,63,98,1879560820
4817,15,Jits_Phase_8,1,1,48,127,1879581396
4817,15,Jits_Phase_8,2,5,56,103,1879620904
4817,15,Jits_Phase_8,3,5,80,127,1879650728
4817,15,Jits_Phase_8,4,1,48,31,1879676032
4817,15,Jits_Phase_8,0,1,48,112,1880376544
4817,15,Jits_Phase_8,1,5,56,103,1880401148
4817,15,Jits_Phase_8,2,5,80,127,1880460740
4817,15,Jits_Phase_8,3,5,63,98,1880500812
4817,15,Jits_Phase_8,0,5,63,98,1881180860
4817,15,Jits_Phase_8,1,1,48,83,1881225736
4817,15,Jits_Phase_8,2,5,56,103,1881240900
4817,15,Jits_Phase_8,3,5,80,127,1881310576
4817,15,Jits_Phase_8,0,1,48,82,1882009312
4817,15,Jits_Phase_8,1,1,38,19,1882019260
4817,15,Jits_Phase_8,2,5,56,103,1882061160
4817,15,Jits_Phase_8,3,5,63,98,1882071504
4817,15,Jits_Phase_8,4,5,80,127,1882074720
4817,15,Jits_Phase_8,0,5,63,98,1882800636
4817,15,Jits_Phase_8,1,1,48,110,1882812368
4817,15,Jits_Phase_8,2,5,56,103,1882860868
4817,15,Jits_Phase_8,3,5,80,127,1882864084
4817,15,Jits_Phase_8,0,1,48,105,1883567456
4817,15,Jits_Phase_8,1,5,63,98,1883580752
4817,15,Jits_Phase_8,2,5,80,127,1883610652
4817,15,Jits_Phase_8,3,5,56,103,1883630960
4817,15,Jits_Phase_8,0,5,56,103,1884310864
4817,15,Jits_Phase_8,1,5,63,98,1884360992
4817,15,Jits_Phase_8,2,1,48,79,1884372948
4817,15,Jits_Phase_8,3,5,80,127,1884440852
4817,15,Jits_Phase_8,0,5,80,127,1885011500
4817,15,Jits_Phase_8,1,5,63,98,1885051464
4817,15,Jits_Phase_8,2,5,56,103,1885070580
4817,15,Jits_Phase_8,3,1,48,122,1885130936
4817,15,Jits_Phase_8,0,1,48,83,1885844612
4817,15,Jits_Phase_8,1,5,56,103,1885880828
4817,15,Jits_Phase_8,2,5,80,127,1885890948
4817,15,Jits_Phase_8,3,5,63,98,1885911332
4817,15,Jits_Phase_8,0,1,48,101,1886643552
4817,15,Jits_Phase_8,1,5,56,103,1886660956
4817,15,Jits_Phase_8,2,5,63,98,1886711012
4817,15,Jits_Phase_8,3,5,80,127,1886741488
4817,15,Jits_Phase_8,0,5,56,103,1887410624
4817,15,Jits_Phase_8,1,5,63,98,1887420892
4817,15,Jits_Phase_8,2,1,48,108,1887438536
4817,15,Jits_Phase_8,3,5,80,127,1887471012
4817,15,Jits_Phase_8,0,1,48,121,1888158656
4817,15,Jits_Phase_8,1,5,56,103,1888201176
4817,15,Jits_Phase_8,2,5,80,127,1888204168
4817,15,Jits_Phase_8,3,5,63,98,1888360740
4817,15,Jits_Phase_8,0,5,63,98,1889021408
4817,15,Jits_Phase_8,1,1,48,108,1889068592
4817,15,Jits_Phase_8,2,1,38,21,1889078612
4817,15,Jits_Phase_8,3,5,56,103,1889090916
4817,15,Jits_Phase_8,4,5,80,127,1889130780
4817,15,Jits_Phase_8,0,1,48,105,1889777612
4817,15,Jits_Phase_8,1,5,63,98,1889860888
4817,15,Jits_Phase_8,2,1,48,20,1889877100
4817,15,Jits_Phase_8,3,5,56,103,1889951172
4817,15,Jits_Phase_8,4,5,80,127,1889954168
4817,15,Jits_Phase_8,0,1,48,102,1890614216
4817,15,Jits_Phase_8,1,5,56,103,1890641368
4817,15,Jits_Phase_8,2,5,63,98,1890731588
4817,15,Jits_Phase_8,3,5,80,127,1890740660
4817,15,Jits_Phase_8,0,5,56,103,1891411488
4817,15,Jits_Phase_8,1,1,48,127,1891425096
4817,15,Jits_Phase_8,2,5,63,98,1891460516
4817,15,Jits_Phase_8,3,5,80,127,1891491236
4817,15,Jits_Phase_8,0,1,48,113,1892224448
4817,15,Jits_Phase_8,1,5,63,98,1892290856
4817,15,Jits_Phase_8,2,5,80,127,1892301424
4817,15,Jits_Phase_8,3,5,56,103,1892360528
4817,15,Jits_Phase_8,0,5,63,98,1893010712
4817,15,Jits_Phase_8,1,5,80,127,1893071324
4817,15,Jits_Phase_8,2,1,48,95,1893093324
4817,15,Jits_Phase_8,3,5,56,103,1893111256
4817,15,Jits_Phase_8,0,1,48,95,1893836420
4817,15,Jits_Phase_8,1,5,56,103,1893910852
4817,15,Jits_Phase_8,2,5,80,127,1893931312
4817,15,Jits_Phase_8,3,5,63,98,1893950856
4817,15,Jits_Phase_8,0,5,63,98,1894630760
4817,15,Jits_Phase_8,1,5,56,103,1894651292
4817,15,Jits_Phase_8,2,1,48,100,1894654412
4817,15,Jits_Phase_8,3,5,80,127,1894691448
4817,15,Jits_Phase_8,0,1,48,89,1895434536
4817,15,Jits_Phase_8,1,5,63,98,1895440708
4817,15,Jits_Phase_8,2,1,38,21,1895444804
4817,15,Jits_Phase_8,3,5,80,127,1895470380
4817,15,Jits_Phase_8,4,5,56,103,1895490836
4817,15,Jits_Phase_8,0,5,80,127,1896210756
4817,15,Jits_Phase_8,1,1,48,98,1896240332
4817,15,Jits_Phase_8,2,5,56,103,1896261104
4817,15,Jits_Phase_8,3,5,63,98,1896321444
4817,15,Jits_Phase_8,0,5,63,98,1897001312
4817,15,Jits_Phase_8,1,1,48,84,1897070092
4817,15,Jits_Phase_8,2,5,56,103,1897121284
4817,15,Jits_Phase_8,3,5,80,127,1897150808
4817,15,Jits_Phase_8,0,1,48,103,1897816620
4817,15,Jits_Phase_8,1,5,80,127,1897841100
4817,15,Jits_Phase_8,2,5,63,98,1897860364
4817,15,Jits_Phase_8,3,5,56,103,1897931448
4817,15,Jits_Phase_8,0,1,48,108,1898648340
4817,15,Jits_Phase_8,1,5,63,98,1898661116
4817,15,Jits_Phase_8,2,5,56,103,1898670412
4817,15,Jits_Phase_8,3,5,80,127,1898751388
4817,15,Jits_Phase_8,0,1,48,111,1899424236
4817,15,Jits_Phase_8,1,5,56,103,1899521348
4817,15,Jits_Phase_8,2,5,80,127,1899551244
4817,15,Jits_Phase_8,3,5,63,98,1899561368
4817,15,Jits_Phase_8,0,9999,9999,9999,1764678748
4817,15,Jits_Phase_8,1,9999,9999,9999,1765478508
4817,15,Jits_Phase_8,2,9999,9999,9999,1766278248
4817,15,Jits_Phase_8,3,9999,9999,9999,1767078968
4817,15,Jits_Phase_8,4,9999,9999,9999,1767878720
4817,15,Jits_Phase_8,5,9999,9999,9999,1768678480
4817,15,Jits_Phase_8,6,9999,9999,9999,1769478232
4817,15,Jits_Phase_8,7,9999,9999,9999,1770278968
4817,15,Jits_Phase_8,8,9999,9999,9999,1771078728
4817,15,Jits_Phase_8,9,9999,9999,9999,1771878476
4817,15,Jits_Phase_8,10,9999,9999,9999,1772678264
4817,15,Jits_Phase_8,11,9999,9999,9999,1773478996
4817,15,Jits_Phase_8,12,9999,9999,9999,1774278760
4817,15,Jits_Phase_8,13,9999,9999,9999,1775078516
4817,15,Jits_Phase_8,14,9999,9999,9999,1775878260
4817,15,Jits_Phase_8,15,9999,9999,9999,1776678984
4817,15,Jits_Phase_8,16,9999,9999,9999,1777478728
4817,15,Jits_Phase_8,17,9999,9999,9999,1778278492
4817,15,Jits_Phase_8,18,9999,9999,9999,1779078256
4817,15,Jits_Phase_8,19,9999,9999,9999,1779878996
4817,15,Jits_Phase_8,20,9999,9999,9999,1780678724
4817,15,Jits_Phase_8,21,9999,9999,9999,1781478484
4817,15,Jits_Phase_8,22,9999,9999,9999,1782278204
4817,15,Jits_Phase_8,23,9999,9999,9999,1783079032
4817,15,Jits_Phase_8,24,9999,9999,9999,1783878764
4817,15,Jits_Phase_8,25,9999,9999,9999,1784678472
4817,15,Jits_Phase_8,26,9999,9999,9999,1785478228
4817,15,Jits_Phase_8,27,9999,9999,9999,1786279036
4817,15,Jits_Phase_8,28,9999,9999,9999,1787078716
4817,15,Jits_Phase_8,29,9999,9999,9999,1787878524
4817,15,Jits_Phase_8,30,9999,9999,9999,1788658776
4817,15,Jits_Phase_8,31,9999,9999,9999,1789458532
4817,15,Jits_Phase_8,32,9999,9999,9999,1790258304
4817,15,Jits_Phase_8,33,9999,9999,9999,1791059008
4817,15,Jits_Phase_8,34,9999,9999,9999,1791858788
4817,15,Jits_Phase_8,35,9999,9999,9999,1792658552
4817,15,Jits_Phase_8,36,9999,9999,9999,1793458272
4817,15,Jits_Phase_8,37,9999,9999,9999,1794259032
4817,15,Jits_Phase_8,38,9999,9999,9999,1795058776
4817,15,Jits_Phase_8,39,9999,9999,9999,1795858548
4817,15,Jits_Phase_8,40,9999,9999,9999,1796658252
4817,15,Jits_Phase_8,41,9999,9999,9999,1797459048
4817,15,Jits_Phase_8,42,9999,9999,9999,1798258768
4817,15,Jits_Phase_8,43,9999,9999,9999,1799058528
4817,15,Jits_Phase_8,44,9999,9999,9999,1799858272
4817,15,Jits_Phase_8,45,9999,9999,9999,1800659004
4817,15,Jits_Phase_8,46,9999,9999,9999,1801458764
4817,15,Jits_Phase_8,47,9999,9999,9999,1802258532
4817,15,Jits_Phase_8,48,9999,9999,9999,1803078756
4817,15,Jits_Phase_8,49,9999,9999,9999,1803878488
4817,15,Jits_Phase_8,50,9999,9999,9999,1804678236
4817,15,Jits_Phase_8,51,9999,9999,9999,1805478980
4817,15,Jits_Phase_8,52,9999,9999,9999,1806278740
4817,15,Jits_Phase_8,53,9999,9999,9999,1807078468
4817,15,Jits_Phase_8,54,9999,9999,9999,1807878200
4817,15,Jits_Phase_8,55,9999,9999,9999,1808678984
4817,15,Jits_Phase_8,56,9999,9999,9999,1809478744
4817,15,Jits_Phase_8,57,9999,9999,9999,1810278492
4817,15,Jits_Phase_8,58,9999,9999,9999,1811078200
4817,15,Jits_Phase_8,59,9999,9999,9999,1811879028
4817,15,Jits_Phase_8,60,9999,9999,9999,1812678760
4817,15,Jits_Phase_8,61,9999,9999,9999,1813478476
4817,15,Jits_Phase_8,62,9999,9999,9999,1814278236
4817,15,Jits_Phase_8,63,9999,9999,9999,1815079008
4817,15,Jits_Phase_8,64,9999,9999,9999,1815918708
4817,15,Jits_Phase_8,65,9999,9999,9999,1816718412
4817,15,Jits_Phase_8,66,9999,9999,9999,1817518204
4817,15,Jits_Phase_8,67,9999,9999,9999,1818318960
4817,15,Jits_Phase_8,68,9999,9999,9999,1819118704
4817,15,Jits_Phase_8,69,9999,9999,9999,1819918404
4817,15,Jits_Phase_8,70,9999,9999,9999,1820718168
4817,15,Jits_Phase_8,71,9999,9999,9999,1821518912
4817,15,Jits_Phase_8,72,9999,9999,9999,1822318712
4817,15,Jits_Phase_8,73,9999,9999,9999,1823118460
4817,15,Jits_Phase_8,74,9999,9999,9999,1823918208
4817,15,Jits_Phase_8,75,9999,9999,9999,1824718940
4817,15,Jits_Phase_8,76,9999,9999,9999,1825518660
4817,15,Jits_Phase_8,77,9999,9999,9999,1826318428
4817,15,Jits_Phase_8,78,9999,9999,9999,1827118168
4817,15,Jits_Phase_8,79,9999,9999,9999,1827918964
4817,15,Jits_Phase_8,80,9999,9999,9999,1828718676
4817,15,Jits_Phase_8,81,9999,9999,9999,1829478520
4817,15,Jits_Phase_8,82,9999,9999,9999,1830278252
4817,15,Jits_Phase_8,83,9999,9999,9999,1831078996
4817,15,Jits_Phase_8,84,9999,9999,9999,1831878740
4817,15,Jits_Phase_8,85,9999,9999,9999,1832678472
4817,15,Jits_Phase_8,86,9999,9999,9999,1833478232
4817,15,Jits_Phase_8,87,9999,9999,9999,1834278988
4817,15,Jits_Phase_8,88,9999,9999,9999,1835078728
4817,15,Jits_Phase_8,89,9999,9999,9999,1835878524
4817,15,Jits_Phase_8,90,9999,9999,9999,1836678208
4817,15,Jits_Phase_8,91,9999,9999,9999,1837479012
4817,15,Jits_Phase_8,92,9999,9999,9999,1838278724
4817,15,Jits_Phase_8,93,9999,9999,9999,1839078504
4817,15,Jits_Phase_8,94,9999,9999,9999,1839878204
4817,15,Jits_Phase_8,95,9999,9999,9999,1840678984
4817,15,Jits_Phase_8,96,9999,9999,9999,1841478772
4817,15,Jits_Phase_8,97,9999,9999,9999,1842198648
4817,15,Jits_Phase_8,98,9999,9999,9999,1842998352
4817,15,Jits_Phase_8,99,9999,9999,9999,1843798116
4817,15,Jits_Phase_8,100,9999,9999,9999,1844598884
4817,15,Jits_Phase_8,101,9999,9999,9999,1845398644
4817,15,Jits_Phase_8,102,9999,9999,9999,1846198344
4817,15,Jits_Phase_8,103,9999,9999,9999,1846998124
4817,15,Jits_Phase_8,104,9999,9999,9999,1847798904
4817,15,Jits_Phase_8,105,9999,9999,9999,1848598644
4817,15,Jits_Phase_8,106,9999,9999,9999,1849398392
4817,15,Jits_Phase_8,107,9999,9999,9999,1850198144
4817,15,Jits_Phase_8,108,9999,9999,9999,1850998840
4817,15,Jits_Phase_8,109,9999,9999,9999,1851798616
4817,15,Jits_Phase_8,110,9999,9999,9999,1852598388
4817,15,Jits_Phase_8,111,9999,9999,9999,1853398100
4817,15,Jits_Phase_8,112,9999,9999,9999,1854198840
4817,15,Jits_Phase_8,113,9999,9999,9999,1854998612
4817,15,Jits_Phase_8,114,9999,9999,9999,1855878204
4817,15,Jits_Phase_8,115,9999,9999,9999,1856679000
4817,15,Jits_Phase_8,116,9999,9999,9999,1857478736
4817,15,Jits_Phase_8,117,9999,9999,9999,1858278456
4817,15,Jits_Phase_8,118,9999,9999,9999,1859078216
4817,15,Jits_Phase_8,119,9999,9999,9999,1859878968
4817,15,Jits_Phase_8,120,9999,9999,9999,1860678720
4817,15,Jits_Phase_8,121,9999,9999,9999,1861478488
4817,15,Jits_Phase_8,122,9999,9999,9999,1862278208
4817,15,Jits_Phase_8,123,9999,9999,9999,1863079028
4817,15,Jits_Phase_8,124,9999,9999,9999,1863878736
4817,15,Jits_Phase_8,125,9999,9999,9999,1864678480
4817,15,Jits_Phase_8,126,9999,9999,9999,1865478248
4817,15,Jits_Phase_8,127,9999,9999,9999,1866278992
4817,15,Jits_Phase_8,128,9999,9999,9999,1867078740
4817,15,Jits_Phase_8,129,9999,9999,9999,1867878488
4817,15,Jits_Phase_8,130,9999,9999,9999,1868678224
4817,15,Jits_Phase_8,131,9999,9999,9999,1869638768
4817,15,Jits_Phase_8,132,9999,9999,9999,1870438460
4817,15,Jits_Phase_8,133,9999,9999,9999,1871238248
4817,15,Jits_Phase_8,134,9999,9999,9999,1872038980
4817,15,Jits_Phase_8,135,9999,9999,9999,1872838736
4817,15,Jits_Phase_8,136,9999,9999,9999,1873638456
4817,15,Jits_Phase_8,137,9999,9999,9999,1874438208
4817,15,Jits_Phase_8,138,9999,9999,9999,1875239028
4817,15,Jits_Phase_8,139,9999,9999,9999,1876038732
4817,15,Jits_Phase_8,140,9999,9999,9999,1876838496
4817,15,Jits_Phase_8,141,9999,9999,9999,1877638236
4817,15,Jits_Phase_8,142,9999,9999,9999,1878439040
4817,15,Jits_Phase_8,143,9999,9999,9999,1879238720
4817,15,Jits_Phase_8,144,9999,9999,9999,1880038456
4817,15,Jits_Phase_8,145,9999,9999,9999,1880838208
4817,15,Jits_Phase_8,146,9999,9999,9999,1881639040
4817,15,Jits_Phase_8,147,9999,9999,9999,1882438744
4817,15,Jits_Phase_8,148,9999,9999,9999,1883238472
4817,15,Jits_Phase_8,149,9999,9999,9999,1884038260
4817,15,Jits_Phase_8,150,9999,9999,9999,1884678224
4817,15,Jits_Phase_8,151,9999,9999,9999,1885478964
4817,15,Jits_Phase_8,152,9999,9999,9999,1886278752
4817,15,Jits_Phase_8,153,9999,9999,9999,1887078512
4817,15,Jits_Phase_8,154,9999,9999,9999,1887878236
4817,15,Jits_Phase_8,155,9999,9999,9999,1888678980
4817,15,Jits_Phase_8,156,9999,9999,9999,1889478716
4817,15,Jits_Phase_8,157,9999,9999,9999,1890278516
4817,15,Jits_Phase_8,158,9999,9999,9999,1891078204
4817,15,Jits_Phase_8,159,9999,9999,9999,1891879032
4817,15,Jits_Phase_8,160,9999,9999,9999,1892678744
4817,15,Jits_Phase_8,161,9999,9999,9999,1893478524
4817,15,Jits_Phase_8,162,9999,9999,9999,1894278240
4817,15,Jits_Phase_8,163,9999,9999,9999,1895078968
4817,15,Jits_Phase_8,164,9999,9999,9999,1895878716
4817,15,Jits_Phase_8,165,9999,9999,9999,1896678524
4817,15,Jits_Phase_8,166,9999,9999,9999,1897478224
4817,15,Jits_Phase_8,167,9999,9999,9999,1898279032
4817,15,Jits_Phase_8,168,9999,9999,9999,1899078744
4817,15,Jits_Phase_8,169,9999,9999,9999,1899878464
4818,19,Jits_Linear_5,0,5,56,103,1907928552
4818,19,Jits_Linear_5,1,5,63,98,1907931500
4818,19,Jits_Linear_5,2,5,80,127,1907934548
4818,19,Jits_Linear_5,0,1,48,68,1908231252
4818,19,Jits_Linear_5,1,5,56,103,1908407796
4818,19,Jits_Linear_5,2,5,63,98,1908411192
4818,19,Jits_Linear_5,3,5,80,127,1908414164
4818,19,Jits_Linear_5,0,1,48,100,1908701020
4818,19,Jits_Linear_5,1,5,56,103,1908888148
4818,19,Jits_Linear_5,2,5,80,127,1908898272
4818,19,Jits_Linear_5,3,5,63,98,1908917908
4818,19,Jits_Linear_5,0,1,48,79,1909153604
4818,19,Jits_Linear_5,1,5,63,98,1909317940
4818,19,Jits_Linear_5,2,5,80,127,1909347764
4818,19,Jits_Linear_5,3,5,56,103,1909357988
4818,19,Jits_Linear_5,0,1,48,82,1909624064
4818,19,Jits_Linear_5,1,5,80,127,1909857924
4818,19,Jits_Linear_5,2,5,56,103,1909868048
4818,19,Jits_Linear_5,3,5,63,98,1909897576
4818,19,Jits_Linear_5,0,1,48,89,1910173336
4818,19,Jits_Linear_5,1,5,63,98,1910337892
4818,19,Jits_Linear_5,2,5,56,103,1910367792
4818,19,Jits_Linear_5,3,5,80,127,1910377916
4818,19,Jits_Linear_5,0,1,48,83,1910728984
4818,19,Jits_Linear_5,1,5,56,103,1910778160
4818,19,Jits_Linear_5,2,5,63,98,1910828424
4818,19,Jits_Linear_5,3,5,80,127,1910847984
4818,19,Jits_Linear_5,0,5,80,127,1911267812
4818,19,Jits_Linear_5,1,1,48,94,1911290708
4818,19,Jits_Linear_5,2,5,63,98,1911317864
4818,19,Jits_Linear_5,3,5,56,103,1911357800
4818,19,Jits_Linear_5,0,5,56,103,1911758152
4818,19,Jits_Linear_5,1,5,63,98,1911787904
4818,19,Jits_Linear_5,2,1,48,98,1911823612
4818,19,Jits_Linear_5,3,5,80,127,1911857504
4818,19,Jits_Linear_5,0,5,56,103,1912247868
4818,19,Jits_Linear_5,1,5,80,127,1912308036
4818,19,Jits_Linear_5,2,5,63,98,1912338012
4818,19,Jits_Linear_5,3,1,48,101,1912343076
4818,19,Jits_Linear_5,0,5,56,103,1912748480
4818,19,Jits_Linear_5,1,5,63,98,1912757928
4818,19,Jits_Linear_5,2,5,80,127,1912797720
4818,19,Jits_Linear_5,3,1,48,106,1912852152
4818,19,Jits_Linear_5,0,5,63,98,1913237928
4818,19,Jits_Linear_5,1,5,80,127,1913317952
4818,19,Jits_Linear_5,2,5,56,103,1913328000
4818,19,Jits_Linear_5,3,1,48,92,1913345364
4818,19,Jits_Linear_5,4,1,38,20,1913355296
4818,19,Jits_Linear_5,0,5,63,98,1913787844
4818,19,Jits_Linear_5,1,5,56,103,1913827784
4818,19,Jits_Linear_5,2,5,80,127,1913830776
4818,19,Jits_Linear_5,3,1,48,94,1913843112
4818,19,Jits_Linear_5,0,5,56,103,1914247816
4818,19,Jits_Linear_5,1,5,63,98,1914257940
4818,19,Jits_Linear_5,2,5,80,127,1914297876
4818,19,Jits_Linear_5,3,1,48,106,1914357708
4818,19,Jits_Linear_5,0,5,56,103,1914738012
4818,19,Jits_Linear_5,1,5,63,98,1914741076
4818,19,Jits_Linear_5,2,5,80,127,1914757424
4818,19,Jits_Linear_5,3,1,48,97,1914824816
4818,19,Jits_Linear_5,0,5,80,127,1915258156
4818,19,Jits_Linear_5,1,5,56,103,1915267308
4818,19,Jits_Linear_5,2,1,48,93,1915297324
4818,19,Jits_Linear_5,3,1,38,20,1915307344
4818,19,Jits_Linear_5,4,5,63,98,1915338232
4818,19,Jits_Linear_5,0,5,63,98,1915757884
4818,19,Jits_Linear_5,1,5,56,103,1915778268
4818,19,Jits_Linear_5,2,1,48,82,1915793072
4818,19,Jits_Linear_5,3,1,38,19,1915803016
4818,19,Jits_Linear_5,4,5,80,127,1915858264
4818,19,Jits_Linear_5,0,5,56,103,1916278196
4818,19,Jits_Linear_5,1,5,80,127,1916318140
4818,19,Jits_Linear_5,2,5,63,98,1916328336
4818,19,Jits_Linear_5,3,1,48,102,1916339844
4818,19,Jits_Linear_5,4,1,38,21,1916349792
4818,19,Jits_Linear_5,0,5,80,127,1916777908
4818,19,Jits_Linear_5,1,5,63,98,1916807808
4818,19,Jits_Linear_5,2,5,56,103,1916847748
4818,19,Jits_Linear_5,3,1,48,110,1916861880
4818,19,Jits_Linear_5,0,5,56,103,1917308416
4818,19,Jits_Linear_5,1,5,63,98,1917337872
4818,19,Jits_Linear_5,2,1,48,109,1917361516
4818,19,Jits_Linear_5,3,5,80,127,1917388064
4818,19,Jits_Linear_5,0,5,80,127,1917818100
4818,19,Jits_Linear_5,1,5,56,103,1917858632
4818,19,Jits_Linear_5,2,1,48,99,1917868160
4818,19,Jits_Linear_5,3,5,63,98,1917869872
4818,19,Jits_Linear_5,0,5,80,127,1918317948
4818,19,Jits_Linear_5,1,5,63,98,1918357816
4818,19,Jits_Linear_5,2,1,48,97,1918364152
4818,19,Jits_Linear_5,3,5,56,103,1918418200
4818,19,Jits_Linear_5,0,5,56,103,1918838032
4818,19,Jits_Linear_5,1,5,80,127,1918848304
4818,19,Jits_Linear_5,2,1,48,105,1918882140
4818,19,Jits_Linear_5,3,5,63,98,1918928316
4818,19,Jits_Linear_5,0,5,80,127,1919358420
4818,19,Jits_Linear_5,1,1,48,105,1919395696
4818,19,Jits_Linear_5,2,5,63,98,1919417764
4818,19,Jits_Linear_5,3,5,56,103,1919448632
4818,19,Jits_Linear_5,0,5,56,103,1919877620
4818,19,Jits_Linear_5,1,5,80,127,1919937864
4818,19,Jits_Linear_5,2,1,48,109,1919945320
4818,19,Jits_Linear_5,3,5,63,98,1919977796
4818,19,Jits_Linear_5,0,1,48,84,1920456972
4818,19,Jits_Linear_5,1,5,56,103,1920458616
4818,19,Jits_Linear_5,2,5,63,98,1920468440
4818,19,Jits_Linear_5,3,5,80,127,1920471880
4818,19,Jits_Linear_5,0,5,80,127,1920938448
4818,19,Jits_Linear_5,1,1,48,83,1920982400
4818,19,Jits_Linear_5,2,5,63,98,1921027460
4818,19,Jits_Linear_5,3,5,56,103,1921037580
4818,19,Jits_Linear_5,0,5,56,103,1921467808
4818,19,Jits_Linear_5,1,5,63,98,1921470756
4818,19,Jits_Linear_5,2,5,80,127,1921473952
4818,19,Jits_Linear_5,3,1,48,85,1921517916
4818,19,Jits_Linear_5,0,5,80,127,1922017700
4818,19,Jits_Linear_5,1,1,48,84,1922031080
4818,19,Jits_Linear_5,2,1,38,19,1922041104
4818,19,Jits_Linear_5,3,5,63,98,1922067804
4818,19,Jits_Linear_5,4,5,56,103,1922097704
4818,19,Jits_Linear_5,0,5,56,103,1922527540
4818,19,Jits_Linear_5,1,5,80,127,1922537960
4818,19,Jits_Linear_5,2,1,48,84,1922546856
4818,19,Jits_Linear_5,3,5,63,98,1922607488
4818,19,Jits_Linear_5,0,5,56,103,1923068224
4818,19,Jits_Linear_5,1,1,48,91,1923083700
4818,19,Jits_Linear_5,2,5,63,98,1923087852
4818,19,Jits_Linear_5,3,5,80,127,1923148096
4818,19,Jits_Linear_5,0,1,48,98,1923587824
4818,19,Jits_Linear_5,1,5,80,127,1923597740
4818,19,Jits_Linear_5,2,5,63,98,1923668472
4818,19,Jits_Linear_5,3,5,56,103,1923687868
4818,19,Jits_Linear_5,0,1,48,96,1924129092
4818,19,Jits_Linear_5,1,5,80,127,1924157816
4818,19,Jits_Linear_5,2,5,56,103,1924168084
4818,19,Jits_Linear_5,3,5,63,98,1924178728
4818,19,Jits_Linear_5,0,1,48,97,1924677544
4818,19,Jits_Linear_5,1,5,80,127,1924688212
4818,19,Jits_Linear_5,2,5,56,103,1924707624
4818,19,Jits_Linear_5,3,5,63,98,1924778588
4818,19,Jits_Linear_5,0,1,48,104,1925221284
4818,19,Jits_Linear_5,1,5,56,103,1925238124
4818,19,Jits_Linear_5,2,5,80,127,1925267800
4818,19,Jits_Linear_5,3,5,63,98,1925288408
4818,19,Jits_Linear_5,0,5,63,98,1925777704
4818,19,Jits_Linear_5,1,1,48,105,1925779568
4818,19,Jits_Linear_5,2,5,56,103,1925838316
4818,19,Jits_Linear_5,3,5,80,127,1925867768
4818,19,Jits_Linear_5,0,1,48,108,1926315276
4818,19,Jits_Linear_5,1,5,63,98,1926317320
4818,19,Jits_Linear_5,2,5,80,127,1926320764
4818,19,Jits_Linear_5,3,5,56,103,1926407608
4818,19,Jits_Linear_5,0,5,56,103,1926887764
4818,19,Jits_Linear_5,1,1,48,127,1926890356
4818,19,Jits_Linear_5,2,5,63,98,1926917584
4818,19,Jits_Linear_5,3,5,80,127,1926957448
4818,19,Jits_Linear_5,0,5,63,98,1927437672
4818,19,Jits_Linear_5,1,1,48,100,1927441840
4818,19,Jits_Linear_5,2,1,38,21,1927451712
4818,19,Jits_Linear_5,3,5,56,103,1927477588
4818,19,Jits_Linear_5,4,5,80,127,1927497976
4818,19,Jits_Linear_5,0,5,63,98,1927997708
4818,19,Jits_Linear_5,1,1,48,119,1928004488
4818,19,Jits_Linear_5,2,1,38,22,1928014288
4818,19,Jits_Linear_5,3,5,56,103,1928037696
4818,19,Jits_Linear_5,4,5,80,127,1928047844
4818,19,Jits_Linear_5,0,5,80,127,1928528588
4818,19,Jits_Linear_5,1,1,48,127,1928559456
4818,19,Jits_Linear_5,2,5,63,98,1928597920
4818,19,Jits_Linear_5,3,5,56,103,1928618452
4818,19,Jits_Linear_5,0,5,56,103,1929078228
4818,19,Jits_Linear_5,1,5,80,127,1929097564
4818,19,Jits_Linear_5,2,1,48,101,1929132520
4818,19,Jits_Linear_5,3,5,63,98,1929137500
4818,19,Jits_Linear_5,0,5,63,98,1929647392
4818,19,Jits_Linear_5,1,1,48,107,1929667548
4818,19,Jits_Linear_5,2,5,80,127,1929669412
4818,19,Jits_Linear_5,3,1,38,23,1929677708
4818,19,Jits_Linear_5,4,5,56,103,1929707928
4818,19,Jits_Linear_5,0,5,63,98,1930207584
4818,19,Jits_Linear_5,1,1,48,112,1930222988
4818,19,Jits_Linear_5,2,5,56,103,1930228188
4818,19,Jits_Linear_5,3,1,38,23,1930233328
4818,19,Jits_Linear_5,4,5,80,127,1930238304
4818,19,Jits_Linear_5,0,5,80,127,1930767628
4818,19,Jits_Linear_5,1,1,48,111,1930768592
4818,19,Jits_Linear_5,2,1,38,23,1930778532
4818,19,Jits_Linear_5,3,5,56,103,1930788444
4818,19,Jits_Linear_5,4,5,63,98,1930817900
4818,19,Jits_Linear_5,0,1,48,106,1931357400
4818,19,Jits_Linear_5,1,1,38,23,1931367192
4818,19,Jits_Linear_5,2,5,56,103,1931407700
4818,19,Jits_Linear_5,3,5,80,127,1931410840
4818,19,Jits_Linear_5,4,5,63,98,1931428384
4818,19,Jits_Linear_5,0,5,63,98,1931898312
4818,19,Jits_Linear_5,1,5,56,103,1931927992
4818,19,Jits_Linear_5,2,1,48,106,1931942492
4818,19,Jits_Linear_5,3,5,80,127,1931988448
4818,19,Jits_Linear_5,0,1,48,78,1932473944
4818,19,Jits_Linear_5,1,5,63,98,1932547552
4818,19,Jits_Linear_5,2,5,56,103,1932557600
4818,19,Jits_Linear_5,3,5,80,127,1932567796
4818,19,Jits_Linear_5,0,5,56,103,1933067632
4818,19,Jits_Linear_5,1,5,80,127,1933098280
4818,19,Jits_Linear_5,2,1,48,94,1933100292
4818,19,Jits_Linear_5,3,5,63,98,1933107500
4818,19,Jits_Linear_5,0,5,63,98,1933677872
4818,19,Jits_Linear_5,1,1,48,80,1933680768
4818,19,Jits_Linear_5,2,5,56,103,1933688136
4818,19,Jits_Linear_5,3,5,80,127,1933707620
4818,19,Jits_Linear_5,0,5,56,103,1934177684
4818,19,Jits_Linear_5,1,1,48,91,1934237416
4818,19,Jits_Linear_5,2,5,63,98,1934239232
4818,19,Jits_Linear_5,3,5,80,127,1934242360
4818,19,Jits_Linear_5,4,1,38,22,1934247664
4818,19,Jits_Linear_5,0,1,48,104,1934766416
4818,19,Jits_Linear_5,1,1,38,21,1934776224
4818,19,Jits_Linear_5,2,5,80,127,1934778776
4818,19,Jits_Linear_5,3,5,56,103,1934787928
4818,19,Jits_Linear_5,4,5,63,98,1934857520
4818,19,Jits_Linear_5,0,5,80,127,1935348228
4818,19,Jits_Linear_5,1,1,48,111,1935354860
4818,19,Jits_Linear_5,2,5,56,103,1935417760
4818,19,Jits_Linear_5,3,5,63,98,1935428104
4818,19,Jits_Linear_5,0,1,48,101,1935948236
4818,19,Jits_Linear_5,1,1,38,21,1935958184
4818,19,Jits_Linear_5,2,5,63,98,1935967496
4818,19,Jits_Linear_5,3,5,56,103,1935977768
4818,19,Jits_Linear_5,4,5,80,127,1935998176
4818,19,Jits_Linear_5,0,5,80,127,1936508264
4818,19,Jits_Linear_5,1,1,48,95,1936523212
4818,19,Jits_Linear_5,2,1,38,22,1936533084
4818,19,Jits_Linear_5,3,5,63,98,1936567808
4818,19,Jits_Linear_5,4,5,56,103,1936607744
4818,19,Jits_Linear_5,0,1,48,102,1937096220
4818,19,Jits_Linear_5,1,1,38,21,1937105696
4818,19,Jits_Linear_5,2,5,56,103,1937138252
4818,19,Jits_Linear_5,3,5,63,98,1937148224
4818,19,Jits_Linear_5,4,5,80,127,1937188164
4818,19,Jits_Linear_5,0,1,48,97,1937675204
4818,19,Jits_Linear_5,1,5,56,103,1937688128
4818,19,Jits_Linear_5,2,5,80,127,1937717584
4818,19,Jits_Linear_5,3,5,63,98,1937768008
4818,19,Jits_Linear_5,0,1,48,95,1938192996
4818,19,Jits_Linear_5,1,5,56,103,1938317720
4818,19,Jits_Linear_5,2,5,63,98,1938357660
4818,19,Jits_Linear_5,3,5,80,127,1938361172
4818,19,Jits_Linear_5,0,1,48,74,1938814008
4818,19,Jits_Linear_5,1,5,56,103,1938907460
4818,19,Jits_Linear_5,2,5,63,98,1938917656
4818,19,Jits_Linear_5,3,5,80,127,1938938336
4818,19,Jits_Linear_5,0,1,48,114,1939441144
4818,19,Jits_Linear_5,1,5,56,103,1939458552
4818,19,Jits_Linear_5,2,5,80,127,1939461468
4818,19,Jits_Linear_5,3,5,63,98,1939498492
4818,19,Jits_Linear_5,0,1,48,111,1940057052
4818,19,Jits_Linear_5,1,5,63,98,1940088120
4818,19,Jits_Linear_5,2,5,56,103,1940118020
4818,19,Jits_Linear_5,3,5,80,127,1940138332
4818,19,Jits_Linear_5,0,5,80,127,1940657444
4818,19,Jits_Linear_5,1,5,56,103,1940667864
4818,19,Jits_Linear_5,2,1,48,92,1940672104
4818,19,Jits_Linear_5,3,5,63,98,1940678128
4818,19,Jits_Linear_5,0,5,56,103,1941257612
4818,19,Jits_Linear_5,1,1,48,120,1941284548
4818,19,Jits_Linear_5,2,1,38,24,1941294420
4818,19,Jits_Linear_5,3,5,80,127,1941297376
4818,19,Jits_Linear_5,4,5,63,98,1941328172
4818,19,Jits_Linear_5,0,5,63,98,1941868028
4818,19,Jits_Linear_5,1,5,80,127,1941878148
4818,19,Jits_Linear_5,2,5,56,103,1941888492
4818,19,Jits_Linear_5,3,1,48,124,1941913860
4818,19,Jits_Linear_5,0,5,56,103,1942447512
4818,19,Jits_Linear_5,1,1,48,94,1942488100
4818,19,Jits_Linear_5,2,1,38,20,1942497892
4818,19,Jits_Linear_5,3,5,63,98,1942518068
4818,19,Jits_Linear_5,4,5,80,127,1942528340
4818,19,Jits_Linear_5,0,5,80,127,1943058044
4818,19,Jits_Linear_5,1,5,56,103,1943068164
4818,19,Jits_Linear_5,2,1,48,114,1943073904
4818,19,Jits_Linear_5,3,5,63,98,1943118136
4818,19,Jits_Linear_5,0,1,48,97,1943631364
4818,19,Jits_Linear_5,1,5,80,127,1943678248
4818,19,Jits_Linear_5,2,5,56,103,1943737952
4818,19,Jits_Linear_5,3,5,63,98,1943768300
4818,19,Jits_Linear_5,0,5,56,103,1944287704
4818,19,Jits_Linear_5,1,5,80,127,1944290840
4818,19,Jits_Linear_5,2,1,48,88,1944305048
4818,19,Jits_Linear_5,3,1,38,20,1944314920
4818,19,Jits_Linear_5,4,5,63,98,1944327464
4818,19,Jits_Linear_5,0,5,56,103,1944927596
4818,19,Jits_Linear_5,1,1,48,90,1944933032
4818,19,Jits_Linear_5,2,5,63,98,1944958264
4818,19,Jits_Linear_5,3,5,80,127,1944967564
4818,19,Jits_Linear_5,0,1,48,77,1945496076
4818,19,Jits_Linear_5,1,1,38,19,1945506024
4818,19,Jits_Linear_5,2,5,63,98,1945548224
4818,19,Jits_Linear_5,3,5,80,127,1945558496
4818,19,Jits_Linear_5,4,5,56,103,1945567500
4818,19,Jits_Linear_5,0,5,80,127,1946108124
4818,19,Jits_Linear_5,1,1,48,127,1946117916
4818,19,Jits_Linear_5,2,5,56,103,1946157348
4818,19,Jits_Linear_5,3,5,63,98,1946160564
4818,19,Jits_Linear_5,0,1,48,80,1946722936
4818,19,Jits_Linear_5,1,1,38,19,1946733216
4818,19,Jits_Linear_5,2,5,56,103,1946757380
4818,19,Jits_Linear_5,3,5,80,127,1946777988
4818,19,Jits_Linear_5,4,5,63,98,1946788260
4818,19,Jits_Linear_5,0,5,63,98,1947357732
4818,19,Jits_Linear_5,1,1,48,100,1947363620
4818,19,Jits_Linear_5,2,1,38,21,1947373260
4818,19,Jits_Linear_5,3,5,56,103,1947388280
4818,19,Jits_Linear_5,4,5,80,127,1947407916
4818,19,Jits_Linear_5,0,1,48,118,1947975556
4818,19,Jits_Linear_5,1,5,56,103,1947988332
4818,19,Jits_Linear_5,2,5,80,127,1947997408
4818,19,Jits_Linear_5,3,5,63,98,1948068220
4818,19,Jits_Linear_5,0,1,48,96,1948575860
4818,19,Jits_Linear_5,1,1,38,21,1948585784
4818,19,Jits_Linear_5,2,5,63,98,1948597736
4818,19,Jits_Linear_5,3,5,80,127,1948637676
4818,19,Jits_Linear_5,4,5,56,103,1948678176
4818,19,Jits_Linear_5,0,5,56,103,1949237804
4818,19,Jits_Linear_5,1,5,63,98,1949248000
4818,19,Jits_Linear_5,2,1,48,127,1949251644
4818,19,Jits_Linear_5,3,5,80,127,1949268304
4818,19,Jits_Linear_5,0,1,48,119,1949897920
4818,19,Jits_Linear_5,1,1,38,23,1949907964
4818,19,Jits_Linear_5,2,5,63,98,1949910428
4818,19,Jits_Linear_5,3,5,80,127,1949927824
4818,19,Jits_Linear_5,4,5,56,103,1949948208
4818,19,Jits_Linear_5,0,5,56,103,1950477624
4818,19,Jits_Linear_5,1,1,48,111,1950503364
4818,19,Jits_Linear_5,2,1,38,23,1950513312
4818,19,Jits_Linear_5,3,5,80,127,1950557620
4818,19,Jits_Linear_5,4,5,63,98,1950567964
4818,19,Jits_Linear_5,0,5,80,127,1951148504
4818,19,Jits_Linear_5,1,5,63,98,1951157656
4818,19,Jits_Linear_5,2,1,48,115,1951171556
4818,19,Jits_Linear_5,3,1,38,23,1951181356
4818,19,Jits_Linear_5,4,5,56,103,1951188424
4818,19,Jits_Linear_5,0,5,63,98,1951738148
4818,19,Jits_Linear_5,1,5,80,127,1951778092
4818,19,Jits_Linear_5,2,1,48,107,1951810500
4818,19,Jits_Linear_5,3,5,56,103,1951837800
4818,19,Jits_Linear_5,0,5,63,98,1952378272
4818,19,Jits_Linear_5,1,5,56,103,1952428476
4818,19,Jits_Linear_5,2,1,48,99,1952447788
4818,19,Jits_Linear_5,3,1,38,23,1952457764
4818,19,Jits_Linear_5,4,5,80,127,1952460144
4818,19,Jits_Linear_5,0,5,80,127,1953027600
4818,19,Jits_Linear_5,1,1,48,109,1953029972
4818,19,Jits_Linear_5,2,5,63,98,1953037792
4818,19,Jits_Linear_5,3,5,56,103,1953108448
4818,19,Jits_Linear_5,0,1,48,115,1953678420
4818,19,Jits_Linear_5,1,1,38,25,1953688360
4818,19,Jits_Linear_5,2,5,80,127,1953738064
4818,19,Jits_Linear_5,3,5,56,103,1953748260
4818,19,Jits_Linear_5,4,5,63,98,1953751400
4818,19,Jits_Linear_5,0,5,56,103,1954317684
4818,19,Jits_Linear_5,1,1,48,115,1954331968
4818,19,Jits_Linear_5,2,5,80,127,1954338064
4818,19,Jits_Linear_5,3,5,63,98,1954348560
4818,19,Jits_Linear_5,0,5,63,98,1954967784
4818,19,Jits_Linear_5,1,1,48,109,1954997128
4818,19,Jits_Linear_5,2,5,56,103,1955007792
4818,19,Jits_Linear_5,3,5,80,127,1955028328
4818,19,Jits_Linear_5,0,1,48,119,1955585908
4818,19,Jits_Linear_5,1,1,38,25,1955595784
4818,19,Jits_Linear_5,2,5,63,98,1955618128
4818,19,Jits_Linear_5,3,5,56,103,1955677772
4818,19,Jits_Linear_5,4,5,80,127,1955680760
4818,19,Jits_Linear_5,0,5,56,103,1956227460
4818,19,Jits_Linear_5,1,5,80,127,1956247920
4818,19,Jits_Linear_5,2,1,48,127,1956254104
4818,19,Jits_Linear_5,3,5,63,98,1956287852
4818,19,Jits_Linear_5,0,1,48,89,1956871800
4818,19,Jits_Linear_5,1,1,38,21,1956881748
4818,19,Jits_Linear_5,2,5,56,103,1956908596
4818,19,Jits_Linear_5,3,5,63,98,1956927864
4818,19,Jits_Linear_5,4,5,80,127,1956938060
4818,19,Jits_Linear_5,0,5,80,127,1957527944
4818,19,Jits_Linear_5,1,1,48,102,1957557696
4818,19,Jits_Linear_5,2,5,56,103,1957559336
4818,19,Jits_Linear_5,3,1,38,21,1957568452
4818,19,Jits_Linear_5,4,5,63,98,1957597696
4818,19,Jits_Linear_5,0,1,48,102,1958152992
4818,19,Jits_Linear_5,1,5,80,127,1958188612
4818,19,Jits_Linear_5,2,5,56,103,1958208028
4818,19,Jits_Linear_5,3,5,63,98,1958268280
4818,19,Jits_Linear_5,0,1,48,127,1958837652
4818,19,Jits_Linear_5,1,5,56,103,1958847788
4818,19,Jits_Linear_5,2,5,80,127,1958868472
4818,19,Jits_Linear_5,3,5,63,98,1958927668
4818,19,Jits_Linear_5,0,1,48,127,1959447268
4818,19,Jits_Linear_5,1,1,38,26,1959457364
4818,19,Jits_Linear_5,2,5,80,127,1959487808
4818,19,Jits_Linear_5,3,5,56,103,1959498004
4818,19,Jits_Linear_5,4,5,63,98,1959538040
4818,19,Jits_Linear_5,0,1,48,127,1960124652
4818,19,Jits_Linear_5,1,1,38,25,1960134672
4818,19,Jits_Linear_5,2,5,63,98,1960148564
4818,19,Jits_Linear_5,3,5,56,103,1960188204
4818,19,Jits_Linear_5,4,5,80,127,1960191496
4818,19,Jits_Linear_5,0,1,48,113,1960782832
4818,19,Jits_Linear_5,1,1,38,23,1960792628
4818,19,Jits_Linear_5,2,5,63,98,1960828200
4818,19,Jits_Linear_5,3,5,80,127,1960868068
4818,19,Jits_Linear_5,4,5,56,103,1960897848
4818,19,Jits_Linear_5,0,1,48,100,1961458440
4818,19,Jits_Linear_5,1,1,38,22,1961468464
4818,19,Jits_Linear_5,2,5,56,103,1961477404
4818,19,Jits_Linear_5,3,5,63,98,1961487824
4818,19,Jits_Linear_5,4,5,80,127,1961517352
4818,19,Jits_Linear_5,0,1,48,127,1962078192
4818,19,Jits_Linear_5,1,5,80,127,1962137960
4818,19,Jits_Linear_5,2,5,63,98,1962207632
4818,19,Jits_Linear_5,3,5,56,103,1962217904
4818,19,Jits_Linear_5,0,1,48,127,1962791308
4818,19,Jits_Linear_5,1,1,38,24,1962801408
4818,19,Jits_Linear_5,2,5,63,98,1962807580
4818,19,Jits_Linear_5,3,5,56,103,1962878336
4818,19,Jits_Linear_5,4,5,80,127,1962887484
4818,19,Jits_Linear_5,0,5,63,98,1963478424
4818,19,Jits_Linear_5,1,1,48,102,1963481988
4818,19,Jits_Linear_5,2,1,38,22,1963492008
4818,19,Jits_Linear_5,3,5,56,103,1963497736
4818,19,Jits_Linear_5,4,5,80,127,1963537676
4818,19,Jits_Linear_5,0,5,56,103,1964158424
4818,19,Jits_Linear_5,1,1,48,88,1964161096
4818,19,Jits_Linear_5,2,5,63,98,1964167644
4818,19,Jits_Linear_5,3,1,38,20,1964170836
4818,19,Jits_Linear_5,4,5,80,127,1964248556
4818,19,Jits_Linear_5,0,5,63,98,1964817748
4818,19,Jits_Linear_5,1,1,48,110,1964838848
4818,19,Jits_Linear_5,2,5,56,103,1964847568
4818,19,Jits_Linear_5,3,1,38,22,1964849936
4818,19,Jits_Linear_5,4,5,80,127,1964888544
4818,19,Jits_Linear_5,0,5,56,103,1965487648
4818,19,Jits_Linear_5,1,1,48,127,1965509572
4818,19,Jits_Linear_5,2,5,63,98,1965528556
4818,19,Jits_Linear_5,3,5,80,127,1965568492
4818,19,Jits_Linear_5,0,1,48,112,1966161216
4818,19,Jits_Linear_5,1,5,80,127,1966168512
4818,19,Jits_Linear_5,2,5,56,103,1966248488
4818,19,Jits_Linear_5,3,5,63,98,1966257548
4818,19,Jits_Linear_5,0,5,56,103,1966888448
4818,19,Jits_Linear_5,1,5,63,98,1966891440
4818,19,Jits_Linear_5,2,5,80,127,1966897524
4818,19,Jits_Linear_5,3,1,48,123,1966902812
4818,19,Jits_Linear_5,0,1,48,82,1967548704
4818,19,Jits_Linear_5,1,1,38,20,1967558724
4818,19,Jits_Linear_5,2,5,56,103,1967587668
4818,19,Jits_Linear_5,3,5,63,98,1967608280
4818,19,Jits_Linear_5,4,5,80,127,1967618624
4818,19,Jits_Linear_5,0,1,48,127,1968217144
4818,19,Jits_Linear_5,1,1,38,24,1968227264
4818,19,Jits_Linear_5,2,5,63,98,1968229800
4818,19,Jits_Linear_5,3,5,80,127,1968238076
4818,19,Jits_Linear_5,4,5,56,103,1968258388
4818,19,Jits_Linear_5,0,5,63,98,1968917940
4818,19,Jits_Linear_5,1,1,48,101,1968949532
4818,19,Jits_Linear_5,2,1,38,22,1968959396
4818,19,Jits_Linear_5,3,5,56,103,1968997628
4818,19,Jits_Linear_5,4,5,80,127,1969000948
4818,19,Jits_Linear_5,0,5,63,98,1969607976
4818,19,Jits_Linear_5,1,5,56,103,1969627464
4818,19,Jits_Linear_5,2,1,48,105,1969640696
4818,19,Jits_Linear_5,3,1,38,22,1969650040
4818,19,Jits_Linear_5,4,5,80,127,1969658384
4818,19,Jits_Linear_5,0,5,56,103,1970298392
4818,19,Jits_Linear_5,1,1,48,96,1970309828
4818,19,Jits_Linear_5,2,5,63,98,1970317652
4818,19,Jits_Linear_5,3,1,38,22,1970320620
4818,19,Jits_Linear_5,4,5,80,127,1970327840
4818,19,Jits_Linear_5,0,1,48,117,1970942988
4818,19,Jits_Linear_5,1,1,38,22,1970952856
4818,19,Jits_Linear_5,2,5,56,103,1971018076
4818,19,Jits_Linear_5,3,5,63,98,1971047780
4818,19,Jits_Linear_5,4,5,80,127,1971051068
4818,19,Jits_Linear_5,0,1,48,124,1971637820
4818,19,Jits_Linear_5,1,5,56,103,1971658148
4818,19,Jits_Linear_5,2,5,63,98,1971698164
4818,19,Jits_Linear_5,3,5,80,127,1971757420
4818,19,Jits_Linear_5,0,1,48,118,1972311640
4818,19,Jits_Linear_5,1,5,56,103,1972367592
4818,19,Jits_Linear_5,2,5,63,98,1972378088
4818,19,Jits_Linear_5,3,5,80,127,1972438316
4818,19,Jits_Linear_5,0,1,48,99,1972992532
4818,19,Jits_Linear_5,1,1,38,22,1973003000
4818,19,Jits_Linear_5,2,5,56,103,1973068292
4818,19,Jits_Linear_5,3,5,80,127,1973087560
4818,19,Jits_Linear_5,4,5,63,98,1973118276
4818,19,Jits_Linear_5,0,1,48,127,1973745356
4818,19,Jits_Linear_5,1,5,80,127,1973767572
4818,19,Jits_Linear_5,2,5,56,103,1973777844
4818,19,Jits_Linear_5,3,5,63,98,1973798376
4818,19,Jits_Linear_5,0,1,48,119,1974452852
4818,19,Jits_Linear_5,1,5,63,98,1974457832
4818,19,Jits_Linear_5,2,1,38,23,1974463116
4818,19,Jits_Linear_5,3,5,80,127,1974537624
4818,19,Jits_Linear_5,4,5,56,103,1974547804
4818,19,Jits_Linear_5,0,1,48,114,1975115560
4818,19,Jits_Linear_5,1,5,80,127,1975217436
4818,19,Jits_Linear_5,2,5,56,103,1975238116
4818,19,Jits_Linear_5,3,5,63,98,1975241112
4818,19,Jits_Linear_5,0,1,48,99,1975886828
4818,19,Jits_Linear_5,1,1,38,24,1975896940
4818,19,Jits_Linear_5,2,5,63,98,1975899512
4818,19,Jits_Linear_5,3,5,80,127,1975902560
4818,19,Jits_Linear_5,4,5,56,103,1975957816
4818,19,Jits_Linear_5,0,5,56,103,1976587676
4818,19,Jits_Linear_5,1,5,80,127,1976598096
4818,19,Jits_Linear_5,2,1,48,124,1976599884
4818,19,Jits_Linear_5,3,5,63,98,1976638028
4818,19,Jits_Linear_5,0,5,56,103,1977277936
4818,19,Jits_Linear_5,1,1,48,57,1977293116
4818,19,Jits_Linear_5,2,1,38,21,1977308312
4818,19,Jits_Linear_5,3,5,63,98,1977338228
4818,19,Jits_Linear_5,4,5,80,127,1977347452
4818,19,Jits_Linear_5,0,1,48,127,1977985100
4818,19,Jits_Linear_5,1,5,63,98,1977997572
4818,19,Jits_Linear_5,2,5,80,127,1978037512
4818,19,Jits_Linear_5,3,5,56,103,1978077528
4818,19,Jits_Linear_5,0,5,56,103,1978708192
4818,19,Jits_Linear_5,1,1,48,127,1978709160
4818,19,Jits_Linear_5,2,1,38,24,1978719172
4818,19,Jits_Linear_5,3,5,63,98,1978788152
4818,19,Jits_Linear_5,4,5,80,127,1978791368
4818,19,Jits_Linear_5,0,1,48,117,1979375508
4818,19,Jits_Linear_5,1,1,38,25,1979385604
4818,19,Jits_Linear_5,2,5,80,127,1979478460
4818,19,Jits_Linear_5,3,5,56,103,1979507992
4818,19,Jits_Linear_5,4,5,63,98,1979511136
4818,19,Jits_Linear_5,0,1,48,127,1980139088
4818,19,Jits_Linear_5,1,1,38,25,1980149256
4818,19,Jits_Linear_5,2,5,56,103,1980158200
4818,19,Jits_Linear_5,3,5,80,127,1980177912
4818,19,Jits_Linear_5,4,5,63,98,1980217704
4818,19,Jits_Linear_5,0,5,80,127,1980857876
4818,19,Jits_Linear_5,1,5,63,98,1980878188
4818,19,Jits_Linear_5,2,1,48,127,1980888652
4818,19,Jits_Linear_5,3,1,38,25,1980898748
4818,19,Jits_Linear_5,4,5,56,103,1980937952
4818,19,Jits_Linear_5,0,5,63,98,1981588016
4818,19,Jits_Linear_5,1,5,56,103,1981598140
4818,19,Jits_Linear_5,2,1,48,100,1981609652
4818,19,Jits_Linear_5,3,1,38,23,1981619596
4818,19,Jits_Linear_5,4,5,80,127,1981648168
4818,19,Jits_Linear_5,0,5,56,103,1982297516
4818,19,Jits_Linear_5,1,5,63,98,1982317928
4818,19,Jits_Linear_5,2,5,80,127,1982328124
4818,19,Jits_Linear_5,3,1,48,118,1982378664
4818,19,Jits_Linear_5,4,1,38,23,1982388312
4818,19,Jits_Linear_5,0,1,48,127,1982962132
4818,19,Jits_Linear_5,1,5,56,103,1983018280
4818,19,Jits_Linear_5,2,5,63,98,1983021276
4818,19,Jits_Linear_5,3,5,80,127,1983037916
4818,19,Jits_Linear_5,0,1,48,91,1983662716
4818,19,Jits_Linear_5,1,1,38,21,1983672588
4818,19,Jits_Linear_5,2,5,63,98,1983788264
4818,19,Jits_Linear_5,3,5,56,103,1983818236
4818,19,Jits_Linear_5,4,5,80,127,1983848012
4818,19,Jits_Linear_5,0,5,80,127,1984477544
4818,19,Jits_Linear_5,1,1,48,127,1984523812
4818,19,Jits_Linear_5,2,5,56,103,1984567600
4818,19,Jits_Linear_5,3,5,63,98,1984570592
4818,19,Jits_Linear_5,0,5,56,103,1985207800
4818,19,Jits_Linear_5,1,5,80,127,1985210644
4818,19,Jits_Linear_5,2,1,48,127,1985271304
4818,19,Jits_Linear_5,3,5,63,98,1985287740
4818,19,Jits_Linear_5,0,5,80,127,1985937836
4818,19,Jits_Linear_5,1,1,48,112,1985983808
4818,19,Jits_Linear_5,2,5,63,98,1985998152
4818,19,Jits_Linear_5,3,5,56,103,1986027976
4818,19,Jits_Linear_5,0,5,63,98,1986667884
4818,19,Jits_Linear_5,1,5,80,127,1986678080
4818,19,Jits_Linear_5,2,5,56,103,1986747688
4818,19,Jits_Linear_5,3,1,48,113,1986759124
4818,19,Jits_Linear_5,0,5,56,103,1987417512
4818,19,Jits_Linear_5,1,1,48,127,1987444852
4818,19,Jits_Linear_5,2,5,80,127,1987448180
4818,19,Jits_Linear_5,3,5,63,98,1987498312
4818,19,Jits_Linear_5,0,5,63,98,1988197904
4818,19,Jits_Linear_5,1,1,48,97,1988204940
4818,19,Jits_Linear_5,2,5,56,103,1988227296
4818,19,Jits_Linear_5,3,5,80,127,1988230592
4818,19,Jits_Linear_5,0,1,48,111,1988946328
4818,19,Jits_Linear_5,1,5,63,98,1988948292
4818,19,Jits_Linear_5,2,1,38,23,1988956592
4818,19,Jits_Linear_5,3,5,80,127,1988967800
4818,19,Jits_Linear_5,4,5,56,103,1988977920
4818,19,Jits_Linear_5,0,5,56,103,1989697860
4818,19,Jits_Linear_5,1,5,63,98,1989701000
4818,19,Jits_Linear_5,2,5,80,127,1989718244
4818,19,Jits_Linear_5,3,1,48,92,1989719284
4818,19,Jits_Linear_5,4,1,38,20,1989729452
4818,19,Jits_Linear_5,0,5,56,103,1990398400
4818,19,Jits_Linear_5,1,5,63,98,1990407776
4818,19,Jits_Linear_5,2,1,48,124,1990417044
4818,19,Jits_Linear_5,3,1,38,23,1990427140
4818,19,Jits_Linear_5,4,5,80,127,1990438324
4818,19,Jits_Linear_5,0,1,48,86,1991137276
4818,19,Jits_Linear_5,1,1,38,20,1991147676
4818,19,Jits_Linear_5,2,5,63,98,1991168300
4818,19,Jits_Linear_5,3,5,80,127,1991187788
4818,19,Jits_Linear_5,4,5,56,103,1991227728
4818,19,Jits_Linear_5,0,1,48,127,1991904248
4818,19,Jits_Linear_5,1,5,56,103,1991947592
4818,19,Jits_Linear_5,2,5,63,98,1991987756
4818,19,Jits_Linear_5,3,5,80,127,1991990896
4818,19,Jits_Linear_5,0,5,80,127,1992637776
4818,19,Jits_Linear_5,1,1,48,100,1992645528
4818,19,Jits_Linear_5,2,5,56,103,1992677784
4818,19,Jits_Linear_5,3,5,63,98,1992727916
4818,19,Jits_Linear_5,0,1,48,121,1993407192
4818,19,Jits_Linear_5,1,5,56,103,1993447676
4818,19,Jits_Linear_5,2,5,80,127,1993458172
4818,19,Jits_Linear_5,3,5,63,98,1993487624
4818,19,Jits_Linear_5,0,1,48,127,1994134012
4818,19,Jits_Linear_5,1,1,38,27,1994144180
4818,19,Jits_Linear_5,2,5,56,103,1994148112
4818,19,Jits_Linear_5,3,5,80,127,1994188128
4818,19,Jits_Linear_5,4,5,63,98,1994238436
4818,19,Jits_Linear_5,0,5,56,103,1994907876
4818,19,Jits_Linear_5,1,1,48,98,1994934592
4818,19,Jits_Linear_5,2,1,38,24,1994944536
4818,19,Jits_Linear_5,3,5,80,127,1994948016
4818,19,Jits_Linear_5,4,5,63,98,1994998140
4818,19,Jits_Linear_5,0,1,48,78,1995635560
4818,19,Jits_Linear_5,1,5,80,127,1995657480
4818,19,Jits_Linear_5,2,5,63,98,1995737636
4818,19,Jits_Linear_5,3,5,56,103,1995747684
4818,19,Jits_Linear_5,0,1,48,95,1996429876
4818,19,Jits_Linear_5,1,1,38,24,1996439824
4818,19,Jits_Linear_5,2,5,80,127,1996467724
4818,19,Jits_Linear_5,3,5,56,103,1996477844
4818,19,Jits_Linear_5,4,5,63,98,1996498676
4818,19,Jits_Linear_5,0,1,48,110,1997188396
4818,19,Jits_Linear_5,1,5,63,98,1997197636
4818,19,Jits_Linear_5,2,1,38,22,1997198676
4818,19,Jits_Linear_5,3,5,56,103,1997268508
4818,19,Jits_Linear_5,4,5,80,127,1997271648
4818,19,Jits_Linear_5,0,1,48,106,1997957388
4818,19,Jits_Linear_5,1,5,80,127,1997959020
4818,19,Jits_Linear_5,2,1,38,24,1997967624
4818,19,Jits_Linear_5,3,5,63,98,1998007652
4818,19,Jits_Linear_5,4,5,56,103,1998047664
4818,19,Jits_Linear_5,0,1,48,104,1998704656
4818,19,Jits_Linear_5,1,1,38,21,1998714076
4818,19,Jits_Linear_5,2,5,63,98,1998767460
4818,19,Jits_Linear_5,3,5,56,103,1998808628
4818,19,Jits_Linear_5,4,5,80,127,1998817628
4818,19,Jits_Linear_5,0,1,48,127,1999489504
4818,19,Jits_Linear_5,1,5,63,98,1999528488
4818,19,Jits_Linear_5,2,5,56,103,1999547680
4818,19,Jits_Linear_5,3,5,80,127,1999568436
4818,19,Jits_Linear_5,0,1,48,91,2000125328
4818,19,Jits_Linear_5,1,1,38,21,2000135204
4818,19,Jits_Linear_5,2,5,80,127,2000258524
4818,19,Jits_Linear_5,3,5,56,103,2000267596
4818,19,Jits_Linear_5,4,5,63,98,2000288504
4818,19,Jits_Linear_5,0,1,48,114,2001014212
4818,19,Jits_Linear_5,1,1,38,25,2001024084
4818,19,Jits_Linear_5,2,5,63,98,2001058352
4818,19,Jits_Linear_5,3,5,56,103,2001098072
4818,19,Jits_Linear_5,4,5,80,127,2001127928
4818,19,Jits_Linear_5,0,1,48,85,2001793876
4818,19,Jits_Linear_5,1,1,38,21,2001803824
4818,19,Jits_Linear_5,2,5,56,103,2001837576
4818,19,Jits_Linear_5,3,5,63,98,2001868000
4818,19,Jits_Linear_5,4,5,80,127,2001897736
4818,19,Jits_Linear_5,0,5,80,127,2002587884
4818,19,Jits_Linear_5,1,1,48,113,2002592572
4818,19,Jits_Linear_5,2,1,38,24,2002602444
4818,19,Jits_Linear_5,3,5,56,103,2002657536
4818,19,Jits_Linear_5,4,5,63,98,2002660684
4818,19,Jits_Linear_5,0,5,56,103,2003377580
4818,19,Jits_Linear_5,1,1,48,111,2003410220
4818,19,Jits_Linear_5,2,5,63,98,2003427632
4818,19,Jits_Linear_5,3,5,80,127,2003458500
4818,19,Jits_Linear_5,0,5,63,98,2004138484
4818,19,Jits_Linear_5,1,5,80,127,2004141700
4818,19,Jits_Linear_5,2,5,56,103,2004197680
4818,19,Jits_Linear_5,3,1,48,102,2004221032
4818,19,Jits_Linear_5,4,1,38,23,2004230896
4818,19,Jits_Linear_5,0,1,48,115,2004933224
4818,19,Jits_Linear_5,1,5,56,103,2004948468
4818,19,Jits_Linear_5,2,5,80,127,2004957616
4818,19,Jits_Linear_5,3,5,63,98,2005007672
4818,19,Jits_Linear_5,0,5,63,98,2005708336
4818,19,Jits_Linear_5,1,5,56,103,2005718460
4818,19,Jits_Linear_5,2,5,80,127,2005748212
4818,19,Jits_Linear_5,3,1,48,127,2005755220
4818,19,Jits_Linear_5,0,1,48,116,2006473016
4818,19,Jits_Linear_5,1,5,63,98,2006528416
4818,19,Jits_Linear_5,2,5,80,127,2006531704
4818,19,Jits_Linear_5,3,5,56,103,2006558240
4818,19,Jits_Linear_5,0,1,48,127,2007314380
4818,19,Jits_Linear_5,1,1,38,27,2007324552
4818,19,Jits_Linear_5,2,5,63,98,2007338300
4818,19,Jits_Linear_5,3,5,56,103,2007357788
4818,19,Jits_Linear_5,4,5,80,127,2007360780
4818,19,Jits_Linear_5,0,1,48,110,2008034404
4818,19,Jits_Linear_5,1,1,38,23,2008044872
4818,19,Jits_Linear_5,2,5,63,98,2008087988
4818,19,Jits_Linear_5,3,5,56,103,2008157632
4818,19,Jits_Linear_5,4,5,80,127,2008178188
4818,19,Jits_Linear_5,0,5,56,103,2008868352
4818,19,Jits_Linear_5,1,5,63,98,2008877352
4818,19,Jits_Linear_5,2,1,48,127,2008882564
4818,19,Jits_Linear_5,3,5,80,127,2008967504
4818,19,Jits_Linear_5,0,1,48,127,2009651476
4818,19,Jits_Linear_5,1,5,56,103,2009678252
4818,19,Jits_Linear_5,2,5,80,127,2009718368
4818,19,Jits_Linear_5,3,5,63,98,2009728340
4818,19,Jits_Linear_5,0,1,48,117,2010456300
4818,19,Jits_Linear_5,1,5,56,103,2010498452
4818,19,Jits_Linear_5,2,5,63,98,2010528052
4818,19,Jits_Linear_5,3,5,80,127,2010557788
4818,19,Jits_Linear_5,0,5,80,127,2011258172
4818,19,Jits_Linear_5,1,1,48,125,2011282340
4818,19,Jits_Linear_5,2,5,63,98,2011298256
4818,19,Jits_Linear_5,3,5,56,103,2011317520
4818,19,Jits_Linear_5,0,1,48,123,2012065864
4818,19,Jits_Linear_5,1,1,38,24,2012076276
4818,19,Jits_Linear_5,2,5,56,103,2012098024
4818,19,Jits_Linear_5,3,5,80,127,2012118260
4818,19,Jits_Linear_5,4,5,63,98,2012137820
4818,19,Jits_Linear_5,0,1,48,109,2012858120
4818,19,Jits_Linear_5,1,5,63,98,2012868184
4818,19,Jits_Linear_5,2,5,56,103,2012878456
4818,19,Jits_Linear_5,3,5,80,127,2012937576
4818,19,Jits_Linear_5,0,5,56,103,2013678024
4818,19,Jits_Linear_5,1,1,48,127,2013704368
4818,19,Jits_Linear_5,2,5,63,98,2013747556
4818,19,Jits_Linear_5,3,5,80,127,2013768016
4818,19,Jits_Linear_5,0,1,48,98,2014458608
4818,19,Jits_Linear_5,1,1,38,23,2014467880
4818,19,Jits_Linear_5,2,5,56,103,2014488284
4818,19,Jits_Linear_5,3,5,63,98,2014517664
4818,19,Jits_Linear_5,4,5,80,127,2014557588
4818,19,Jits_Linear_5,0,5,63,98,2015287668
4818,19,Jits_Linear_5,1,5,56,103,2015337896
4818,19,Jits_Linear_5,2,5,80,127,2015348020
4818,19,Jits_Linear_5,3,1,48,103,2015380728
4818,19,Jits_Linear_5,0,1,48,127,2016128496
4818,19,Jits_Linear_5,1,5,56,103,2016137440
4818,19,Jits_Linear_5,2,5,63,98,2016187644
4818,19,Jits_Linear_5,3,5,80,127,2016198136
4818,19,Jits_Linear_5,0,5,56,103,2016917984
4818,19,Jits_Linear_5,1,5,63,98,2016928108
4818,19,Jits_Linear_5,2,1,48,121,2016960292
4818,19,Jits_Linear_5,3,5,80,127,2017008196
4818,19,Jits_Linear_5,0,9999,9999,9999,1908165740
4818,19,Jits_Linear_5,1,9999,9999,9999,1908645952
4818,19,Jits_Linear_5,2,9999,9999,9999,1909125192
4818,19,Jits_Linear_5,3,9999,9999,9999,1909605472
4818,19,Jits_Linear_5,4,9999,9999,9999,1910085728
4818,19,Jits_Linear_5,5,9999,9999,9999,1910575208
4818,19,Jits_Linear_5,6,9999,9999,9999,1911065680
4818,19,Jits_Linear_5,7,9999,9999,9999,1911555180
4818,19,Jits_Linear_5,8,9999,9999,9999,1912045644
4818,19,Jits_Linear_5,9,9999,9999,9999,1912535160
4818,19,Jits_Linear_5,10,9999,9999,9999,1913035844
4818,19,Jits_Linear_5,11,9999,9999,9999,1913535588
4818,19,Jits_Linear_5,12,9999,9999,9999,1914035272
4818,19,Jits_Linear_5,13,9999,9999,9999,1914536004
4818,19,Jits_Linear_5,14,9999,9999,9999,1915035704
4818,19,Jits_Linear_5,15,9999,9999,9999,1915545696
4818,19,Jits_Linear_5,16,9999,9999,9999,1916055612
4818,19,Jits_Linear_5,17,9999,9999,9999,1916565588
4818,19,Jits_Linear_5,18,9999,9999,9999,1917075536
4818,19,Jits_Linear_5,19,9999,9999,9999,1917585516
4818,19,Jits_Linear_5,20,9999,9999,9999,1918105684
4818,19,Jits_Linear_5,21,9999,9999,9999,1918625916
4818,19,Jits_Linear_5,22,9999,9999,9999,1919146072
4818,19,Jits_Linear_5,23,9999,9999,9999,1919665268
4818,19,Jits_Linear_5,24,9999,9999,9999,1920185436
4818,19,Jits_Linear_5,25,9999,9999,9999,1920715864
4818,19,Jits_Linear_5,26,9999,9999,9999,1921245300
4818,19,Jits_Linear_5,27,9999,9999,9999,1921775692
4818,19,Jits_Linear_5,28,9999,9999,9999,1922305096
4818,19,Jits_Linear_5,29,9999,9999,9999,1922835580
4818,19,Jits_Linear_5,30,9999,9999,9999,1923375216
4818,19,Jits_Linear_5,31,9999,9999,9999,1923915904
4818,19,Jits_Linear_5,32,9999,9999,9999,1924455520
4818,19,Jits_Linear_5,33,9999,9999,9999,1924995164
4818,19,Jits_Linear_5,34,9999,9999,9999,1925535832
4818,19,Jits_Linear_5,35,9999,9999,9999,1926085744
4818,19,Jits_Linear_5,36,9999,9999,9999,1926635628
4818,19,Jits_Linear_5,37,9999,9999,9999,1927185464
4818,19,Jits_Linear_5,38,9999,9999,9999,1927735404
4818,19,Jits_Linear_5,39,9999,9999,9999,1928285252
4818,19,Jits_Linear_5,40,9999,9999,9999,1928845424
4818,19,Jits_Linear_5,41,9999,9999,9999,1929405520
4818,19,Jits_Linear_5,42,9999,9999,9999,1929965660
4818,19,Jits_Linear_5,43,9999,9999,9999,1930525776
4818,19,Jits_Linear_5,44,9999,9999,9999,1931085892
4818,19,Jits_Linear_5,45,9999,9999,9999,1931655252
4818,19,Jits_Linear_5,46,9999,9999,9999,1932225608
4818,19,Jits_Linear_5,47,9999,9999,9999,1932795964
4818,19,Jits_Linear_5,48,9999,9999,9999,1933365332
4818,19,Jits_Linear_5,49,9999,9999,9999,1933935716
4818,19,Jits_Linear_5,50,9999,9999,9999,1934515300
4818,19,Jits_Linear_5,51,9999,9999,9999,1935095876
4818,19,Jits_Linear_5,52,9999,9999,9999,1935675452
4818,19,Jits_Linear_5,53,9999,9999,9999,1936256060
4818,19,Jits_Linear_5,54,9999,9999,9999,1936845924
4818,19,Jits_Linear_5,55,9999,9999,9999,1937435708
4818,19,Jits_Linear_5,56,9999,9999,9999,1938025596
4818,19,Jits_Linear_5,57,9999,9999,9999,1938615360
4818,19,Jits_Linear_5,58,9999,9999,9999,1939205180
4818,19,Jits_Linear_5,59,9999,9999,9999,1939796032
4818,19,Jits_Linear_5,60,9999,9999,9999,1940395120
4818,19,Jits_Linear_5,61,9999,9999,9999,1940995148
4818,19,Jits_Linear_5,62,9999,9999,9999,1941595192
4818,19,Jits_Linear_5,63,9999,9999,9999,1942195316
4818,19,Jits_Linear_5,64,9999,9999,9999,1942795364
4818,19,Jits_Linear_5,65,9999,9999,9999,1943405664
4818,19,Jits_Linear_5,66,9999,9999,9999,1944015960
4818,19,Jits_Linear_5,67,9999,9999,9999,1944625276
4818,19,Jits_Linear_5,68,9999,9999,9999,1945235512
4818,19,Jits_Linear_5,69,9999,9999,9999,1945845832
4818,19,Jits_Linear_5,70,9999,9999,9999,1946465376
4818,19,Jits_Linear_5,71,9999,9999,9999,1947085920
4818,19,Jits_Linear_5,72,9999,9999,9999,1947705428
4818,19,Jits_Linear_5,73,9999,9999,9999,1948325996
4818,19,Jits_Linear_5,74,9999,9999,9999,1948945464
4818,19,Jits_Linear_5,75,9999,9999,9999,1949575232
4818,19,Jits_Linear_5,76,9999,9999,9999,1950206012
4818,19,Jits_Linear_5,77,9999,9999,9999,1950835840
4818,19,Jits_Linear_5,78,9999,9999,9999,1951465564
4818,19,Jits_Linear_5,79,9999,9999,9999,1952095336
4818,19,Jits_Linear_5,80,9999,9999,9999,1952735340
4818,19,Jits_Linear_5,81,9999,9999,9999,1953375348
4818,19,Jits_Linear_5,82,9999,9999,9999,1954015356
4818,19,Jits_Linear_5,83,9999,9999,9999,1954655316
4818,19,Jits_Linear_5,84,9999,9999,9999,1955295304
4818,19,Jits_Linear_5,85,9999,9999,9999,1955945580
4818,19,Jits_Linear_5,86,9999,9999,9999,1956595800
4818,19,Jits_Linear_5,87,9999,9999,9999,1957246024
4818,19,Jits_Linear_5,88,9999,9999,9999,1957895284
4818,19,Jits_Linear_5,89,9999,9999,9999,1958545532
4818,19,Jits_Linear_5,90,9999,9999,9999,1959205952
4818,19,Jits_Linear_5,91,9999,9999,9999,1959865444
4818,19,Jits_Linear_5,92,9999,9999,9999,1960525948
4818,19,Jits_Linear_5,93,9999,9999,9999,1961185364
4818,19,Jits_Linear_5,94,9999,9999,9999,1961845828
4818,19,Jits_Linear_5,95,9999,9999,9999,1962515532
4818,19,Jits_Linear_5,96,9999,9999,9999,1963185232
4818,19,Jits_Linear_5,97,9999,9999,9999,1963855936
4818,19,Jits_Linear_5,98,9999,9999,9999,1964525692
4818,19,Jits_Linear_5,99,9999,9999,9999,1965195372
4818,19,Jits_Linear_5,100,9999,9999,9999,1965875324
4818,19,Jits_Linear_5,101,9999,9999,9999,1966555248
4818,19,Jits_Linear_5,102,9999,9999,9999,1967235160
4818,19,Jits_Linear_5,103,9999,9999,9999,1967915088
4818,19,Jits_Linear_5,104,9999,9999,9999,1968596052
4818,19,Jits_Linear_5,105,9999,9999,9999,1969285208
4818,19,Jits_Linear_5,106,9999,9999,9999,1969975376
4818,19,Jits_Linear_5,107,9999,9999,9999,1970665580
4818,19,Jits_Linear_5,108,9999,9999,9999,1971355748
4818,19,Jits_Linear_5,109,9999,9999,9999,1972045908
4818,19,Jits_Linear_5,110,9999,9999,9999,1972745308
4818,19,Jits_Linear_5,111,9999,9999,9999,1973445724
4818,19,Jits_Linear_5,112,9999,9999,9999,1974145088
4818,19,Jits_Linear_5,113,9999,9999,9999,1974845496
4818,19,Jits_Linear_5,114,9999,9999,9999,1975545936
4818,19,Jits_Linear_5,115,9999,9999,9999,1976255552
4818,19,Jits_Linear_5,116,9999,9999,9999,1976965188
4818,19,Jits_Linear_5,117,9999,9999,9999,1977675900
4818,19,Jits_Linear_5,118,9999,9999,9999,1978385480
4818,19,Jits_Linear_5,119,9999,9999,9999,1979095104
4818,19,Jits_Linear_5,120,9999,9999,9999,1979816036
4818,19,Jits_Linear_5,121,9999,9999,9999,1980535916
4818,19,Jits_Linear_5,122,9999,9999,9999,1981255768
4818,19,Jits_Linear_5,123,9999,9999,9999,1981975644
4818,19,Jits_Linear_5,124,9999,9999,9999,1982695504
4818,19,Jits_Linear_5,125,9999,9999,9999,1983425604
4818,19,Jits_Linear_5,126,9999,9999,9999,1984155756
4818,19,Jits_Linear_5,127,9999,9999,9999,1984885840
4818,19,Jits_Linear_5,128,9999,9999,9999,1985615996
4818,19,Jits_Linear_5,129,9999,9999,9999,1986346040
4818,19,Jits_Linear_5,130,9999,9999,9999,1987085372
4818,19,Jits_Linear_5,131,9999,9999,9999,1987825740
4818,19,Jits_Linear_5,132,9999,9999,9999,1988566116
4818,19,Jits_Linear_5,133,9999,9999,9999,1989315660
4818,19,Jits_Linear_5,134,9999,9999,9999,1990055996
4818,19,Jits_Linear_5,135,9999,9999,9999,1990805608
4818,19,Jits_Linear_5,136,9999,9999,9999,1991555156
4818,19,Jits_Linear_5,137,9999,9999,9999,1992305772
4818,19,Jits_Linear_5,138,9999,9999,9999,1993055344
4818,19,Jits_Linear_5,139,9999,9999,9999,1993805916
4818,19,Jits_Linear_5,140,9999,9999,9999,1994565732
4818,19,Jits_Linear_5,141,9999,9999,9999,1995325544
4818,19,Jits_Linear_5,142,9999,9999,9999,1996085316
4818,19,Jits_Linear_5,143,9999,9999,9999,1996845112
4818,19,Jits_Linear_5,144,9999,9999,9999,1997605948
4818,19,Jits_Linear_5,145,9999,9999,9999,1998376040
4818,19,Jits_Linear_5,146,9999,9999,9999,1999146044
4818,19,Jits_Linear_5,147,9999,9999,9999,1999915124
4818,19,Jits_Linear_5,148,9999,9999,9999,2000685172
4818,19,Jits_Linear_5,149,9999,9999,9999,2001455224
4818,19,Jits_Linear_5,150,9999,9999,9999,2002235504
4818,19,Jits_Linear_5,151,9999,9999,9999,2003015732
4818,19,Jits_Linear_5,152,9999,9999,9999,2003796044
4818,19,Jits_Linear_5,153,9999,9999,9999,2004575340
4818,19,Jits_Linear_5,154,9999,9999,9999,2005355580
4818,19,Jits_Linear_5,155,9999,9999,9999,2006145108
4818,19,Jits_Linear_5,156,9999,9999,9999,2006935664
4818,19,Jits_Linear_5,157,9999,9999,9999,2007725148
4818,19,Jits_Linear_5,158,9999,9999,9999,2008515676
4818,19,Jits_Linear_5,159,9999,9999,9999,2009305196
4818,19,Jits_Linear_5,160,9999,9999,9999,2010105964
4818,19,Jits_Linear_5,161,9999,9999,9999,2010905684
4818,19,Jits_Linear_5,162,9999,9999,9999,2011705404
4818,19,Jits_Linear_5,163,9999,9999,9999,2012505156
4818,19,Jits_Linear_5,164,9999,9999,9999,2013305936
4818,19,Jits_Linear_5,165,9999,9999,9999,2014115920
4818,19,Jits_Linear_5,166,9999,9999,9999,2014925944
4818,19,Jits_Linear_5,167,9999,9999,9999,2015735896
4818,19,Jits_Linear_5,168,9999,9999,9999,2016545872
4818,19,Jits_Linear_5,169,9999,9999,9999,2017355852
4819,18,Jits_Linear_8,0,5,56,103,2026917116
4819,18,Jits_Linear_8,1,5,63,98,2026920292
4819,18,Jits_Linear_8,2,5,80,127,2026923416
4819,18,Jits_Linear_8,0,5,56,103,2027736388
4819,18,Jits_Linear_8,1,5,63,98,2027739556
4819,18,Jits_Linear_8,2,5,80,127,2027742828
4819,18,Jits_Linear_8,3,1,48,96,2027906828
4819,18,Jits_Linear_8,0,5,80,127,2028497264
4819,18,Jits_Linear_8,1,1,48,83,2028574940
4819,18,Jits_Linear_8,2,1,38,19,2028584864
4819,18,Jits_Linear_8,3,5,63,98,2028587300
4819,18,Jits_Linear_8,4,5,56,103,2028596748
4819,18,Jits_Linear_8,0,1,48,104,2029311404
4819,18,Jits_Linear_8,1,1,38,22,2029321352
4819,18,Jits_Linear_8,2,5,56,103,2029336892
4819,18,Jits_Linear_8,3,5,63,98,2029347160
4819,18,Jits_Linear_8,4,5,80,127,2029437216
4819,18,Jits_Linear_8,0,1,48,95,2030110096
4819,18,Jits_Linear_8,1,1,38,22,2030120044
4819,18,Jits_Linear_8,2,5,63,98,2030126664
4819,18,Jits_Linear_8,3,5,80,127,2030157240
4819,18,Jits_Linear_8,4,5,56,103,2030186864
4819,18,Jits_Linear_8,0,1,48,110,2030905756
4819,18,Jits_Linear_8,1,1,38,23,2030915628
4819,18,Jits_Linear_8,2,5,56,103,2030946664
4819,18,Jits_Linear_8,3,5,80,127,2031047024
4819,18,Jits_Linear_8,4,5,63,98,2031097300
4819,18,Jits_Linear_8,0,5,56,103,2031756764
4819,18,Jits_Linear_8,1,1,48,88,2031778840
4819,18,Jits_Linear_8,2,5,80,127,2031806808
4819,18,Jits_Linear_8,3,5,63,98,2031846748
4819,18,Jits_Linear_8,0,1,48,108,2032542848
4819,18,Jits_Linear_8,1,1,38,21,2032552860
4819,18,Jits_Linear_8,2,5,80,127,2032597476
4819,18,Jits_Linear_8,3,5,63,98,2032626932
4819,18,Jits_Linear_8,4,5,56,103,2032696644
4819,18,Jits_Linear_8,0,1,48,115,2033357564
4819,18,Jits_Linear_8,1,1,38,25,2033366984
4819,18,Jits_Linear_8,2,5,63,98,2033436992
4819,18,Jits_Linear_8,3,5,56,103,2033466776
4819,18,Jits_Linear_8,4,5,80,127,2033527264
4819,18,Jits_Linear_8,0,5,56,103,2034186696
4819,18,Jits_Linear_8,1,5,80,127,2034189688
4819,18,Jits_Linear_8,2,1,48,98,2034199708
4819,18,Jits_Linear_8,3,1,38,21,2034209572
4819,18,Jits_Linear_8,4,5,63,98,2034306528
4819,18,Jits_Linear_8,0,1,48,112,2035018584
4819,18,Jits_Linear_8,1,1,38,25,2035028460
4819,18,Jits_Linear_8,2,5,56,103,2035067392
4819,18,Jits_Linear_8,3,5,80,127,2035107112
4819,18,Jits_Linear_8,4,5,63,98,2035118264
4819,18,Jits_Linear_8,0,5,56,103,2035827012
4819,18,Jits_Linear_8,1,5,80,127,2035846724
4819,18,Jits_Linear_8,2,1,48,84,2035881228
4819,18,Jits_Linear_8,3,1,38,21,2035890648
4819,18,Jits_Linear_8,4,5,63,98,2035927612
4819,18,Jits_Linear_8,0,5,80,127,2036616464
4819,18,Jits_Linear_8,1,1,48,92,2036690380
4819,18,Jits_Linear_8,2,1,38,21,2036700024
4819,18,Jits_Linear_8,3,5,56,103,2036716764
4819,18,Jits_Linear_8,4,5,63,98,2036727260
4819,18,Jits_Linear_8,0,5,63,98,2037386592
4819,18,Jits_Linear_8,1,5,80,127,2037446984
4819,18,Jits_Linear_8,2,5,56,103,2037457628
4819,18,Jits_Linear_8,3,1,48,100,2037540600
4819,18,Jits_Linear_8,4,1,38,22,2037550400
4819,18,Jits_Linear_8,0,1,48,98,2038183104
4819,18,Jits_Linear_8,1,5,56,103,2038187632
4819,18,Jits_Linear_8,2,1,38,22,2038193372
4819,18,Jits_Linear_8,3,5,63,98,2038256936
4819,18,Jits_Linear_8,4,5,80,127,2038260372
4819,18,Jits_Linear_8,0,1,48,116,2038980936
4819,18,Jits_Linear_8,1,1,38,23,2038990960
4819,18,Jits_Linear_8,2,5,63,98,2039016688
4819,18,Jits_Linear_8,3,5,56,103,2039066884
4819,18,Jits_Linear_8,4,5,80,127,2039070252
4819,18,Jits_Linear_8,0,5,56,103,2039767428
4819,18,Jits_Linear_8,1,5,80,127,2039770644
4819,18,Jits_Linear_8,2,1,48,108,2039825020
4819,18,Jits_Linear_8,3,1,38,23,2039835116
4819,18,Jits_Linear_8,4,5,63,98,2039856640
4819,18,Jits_Linear_8,0,1,48,106,2040585924
4819,18,Jits_Linear_8,1,1,38,21,2040595968
4819,18,Jits_Linear_8,2,5,63,98,2040598432
4819,18,Jits_Linear_8,3,5,56,103,2040686936
4819,18,Jits_Linear_8,4,5,80,127,2040716524
4819,18,Jits_Linear_8,0,5,56,103,2041387420
4819,18,Jits_Linear_8,1,1,48,86,2041430248
4819,18,Jits_Linear_8,2,1,38,20,2041440036
4819,18,Jits_Linear_8,3,5,63,98,2041486620
4819,18,Jits_Linear_8,4,5,80,127,2041517416
4819,18,Jits_Linear_8,0,5,63,98,2042197480
4819,18,Jits_Linear_8,1,5,56,103,2042206556
4819,18,Jits_Linear_8,2,1,48,85,2042211692
4819,18,Jits_Linear_8,3,1,38,20,2042221580
4819,18,Jits_Linear_8,4,5,80,127,2042296824
4819,18,Jits_Linear_8,0,5,63,98,2042997200
4819,18,Jits_Linear_8,1,1,48,115,2043029540
4819,18,Jits_Linear_8,2,1,38,24,2043039632
4819,18,Jits_Linear_8,3,5,56,103,2043077120
4819,18,Jits_Linear_8,4,5,80,127,2043080260
4819,18,Jits_Linear_8,0,5,80,127,2043736576
4819,18,Jits_Linear_8,1,5,63,98,2043756836
4819,18,Jits_Linear_8,2,5,56,103,2043817376
4819,18,Jits_Linear_8,3,1,48,97,2043860420
4819,18,Jits_Linear_8,0,5,56,103,2044556748
4819,18,Jits_Linear_8,1,5,63,98,2044577280
4819,18,Jits_Linear_8,2,5,80,127,2044580568
4819,18,Jits_Linear_8,3,1,48,80,2044641224
4819,18,Jits_Linear_8,4,1,38,19,2044651096
4819,18,Jits_Linear_8,0,5,63,98,2045276416
4819,18,Jits_Linear_8,1,5,80,127,2045357360
4819,18,Jits_Linear_8,2,5,56,103,2045366660
4819,18,Jits_Linear_8,3,1,48,82,2045396528
4819,18,Jits_Linear_8,4,1,38,21,2045406020
4819,18,Jits_Linear_8,0,5,63,98,2046077264
4819,18,Jits_Linear_8,1,5,56,103,2046096604
4819,18,Jits_Linear_8,2,1,48,83,2046143916
4819,18,Jits_Linear_8,3,5,80,127,2046147020
4819,18,Jits_Linear_8,4,1,38,24,2046153652
4819,18,Jits_Linear_8,0,5,80,127,2046856452
4819,18,Jits_Linear_8,1,5,63,98,2046896468
4819,18,Jits_Linear_8,2,5,56,103,2046917296
4819,18,Jits_Linear_8,3,1,48,85,2046964760
4819,18,Jits_Linear_8,4,1,38,20,2046974628
4819,18,Jits_Linear_8,0,5,56,103,2047666580
4819,18,Jits_Linear_8,1,5,63,98,2047676928
4819,18,Jits_Linear_8,2,5,80,127,2047697164
4819,18,Jits_Linear_8,3,1,48,86,2047756244
4819,18,Jits_Linear_8,4,1,38,20,2047766044
4819,18,Jits_Linear_8,0,5,56,103,2048367176
4819,18,Jits_Linear_8,1,5,63,98,2048457164
4819,18,Jits_Linear_8,2,1,48,83,2048463952
4819,18,Jits_Linear_8,3,1,38,21,2048474040
4819,18,Jits_Linear_8,4,5,80,127,2048516708
4819,18,Jits_Linear_8,0,5,80,127,2049166672
4819,18,Jits_Linear_8,1,5,56,103,2049177168
4819,18,Jits_Linear_8,2,1,48,104,2049240296
4819,18,Jits_Linear_8,3,5,63,98,2049246472
4819,18,Jits_Linear_8,4,1,38,24,2049250560
4819,18,Jits_Linear_8,0,5,63,98,2049966412
4819,18,Jits_Linear_8,1,1,48,87,2050040476
4819,18,Jits_Linear_8,2,5,80,127,2050056468
4819,18,Jits_Linear_8,3,5,56,103,2050066664
4819,18,Jits_Linear_8,0,5,63,98,2050666828
4819,18,Jits_Linear_8,1,5,80,127,2050717252
4819,18,Jits_Linear_8,2,5,56,103,2050776300
4819,18,Jits_Linear_8,3,1,48,81,2050855684
4819,18,Jits_Linear_8,4,1,38,23,2050865104
4819,18,Jits_Linear_8,0,5,56,103,2051457456
4819,18,Jits_Linear_8,1,5,80,127,2051506540
4819,18,Jits_Linear_8,2,1,48,75,2051518576
4819,18,Jits_Linear_8,3,5,63,98,2051527216
4819,18,Jits_Linear_8,4,1,38,21,2051528476
4819,18,Jits_Linear_8,0,5,56,103,2052186432
4819,18,Jits_Linear_8,1,5,80,127,2052247076
4819,18,Jits_Linear_8,2,1,48,81,2052286236
4819,18,Jits_Linear_8,3,1,38,23,2052296700
4819,18,Jits_Linear_8,4,5,63,98,2052316508
4819,18,Jits_Linear_8,0,5,56,103,2052947260
4819,18,Jits_Linear_8,1,5,80,127,2052977184
4819,18,Jits_Linear_8,2,5,63,98,2053006636
4819,18,Jits_Linear_8,3,1,48,89,2053014020
4819,18,Jits_Linear_8,4,1,38,23,2053023888
4819,18,Jits_Linear_8,0,5,56,103,2053747144
4819,18,Jits_Linear_8,1,5,80,127,2053766556
4819,18,Jits_Linear_8,2,1,48,92,2053815388
4819,18,Jits_Linear_8,3,1,38,25,2053825872
4819,18,Jits_Linear_8,4,5,63,98,2053828416
4819,18,Jits_Linear_8,0,1,48,80,2054531836
4819,18,Jits_Linear_8,1,1,38,21,2054541184
4819,18,Jits_Linear_8,2,5,80,127,2054586696
4819,18,Jits_Linear_8,3,5,56,103,2054596968
4819,18,Jits_Linear_8,4,5,63,98,2054607088
4819,18,Jits_Linear_8,0,5,56,103,2055297276
4819,18,Jits_Linear_8,1,5,80,127,2055337364
4819,18,Jits_Linear_8,2,5,63,98,2055367040
4819,18,Jits_Linear_8,3,1,48,97,2055368156
4819,18,Jits_Linear_8,4,1,38,25,2055378320
4819,18,Jits_Linear_8,0,5,56,103,2056017340
4819,18,Jits_Linear_8,1,5,63,98,2056047116
4819,18,Jits_Linear_8,2,5,80,127,2056087128
4819,18,Jits_Linear_8,3,1,48,77,2056123880
4819,18,Jits_Linear_8,4,1,38,19,2056133752
4819,18,Jits_Linear_8,0,5,80,127,2056716588
4819,18,Jits_Linear_8,1,5,63,98,2056767016
4819,18,Jits_Linear_8,2,5,56,103,2056787252
4819,18,Jits_Linear_8,3,1,48,127,2056846440
4819,18,Jits_Linear_8,4,1,38,26,2056856452
4819,18,Jits_Linear_8,0,5,56,103,2057496908
4819,18,Jits_Linear_8,1,5,80,127,2057566516
4819,18,Jits_Linear_8,2,1,48,127,2057569256
4819,18,Jits_Linear_8,3,5,63,98,2057627072
4819,18,Jits_Linear_8,0,5,80,127,2058237280
4819,18,Jits_Linear_8,1,5,63,98,2058327340
4819,18,Jits_Linear_8,2,5,56,103,2058347000
4819,18,Jits_Linear_8,3,1,48,93,2058368032
4819,18,Jits_Linear_8,4,1,38,22,2058378424
4819,18,Jits_Linear_8,0,5,63,98,2058997216
4819,18,Jits_Linear_8,1,5,56,103,2059016480
4819,18,Jits_Linear_8,2,5,80,127,2059056644
4819,18,Jits_Linear_8,3,1,48,81,2059140988
4819,18,Jits_Linear_8,4,1,38,21,2059150856
4819,18,Jits_Linear_8,0,5,80,127,2059696524
4819,18,Jits_Linear_8,1,5,63,98,2059716908
4819,18,Jits_Linear_8,2,5,56,103,2059796928
4819,18,Jits_Linear_8,3,1,48,112,2059819376
4819,18,Jits_Linear_8,0,5,63,98,2060426548
4819,18,Jits_Linear_8,1,1,48,93,2060511100
4819,18,Jits_Linear_8,2,1,38,21,2060520972
4819,18,Jits_Linear_8,3,5,56,103,2060537260
4819,18,Jits_Linear_8,4,5,80,127,2060540176
4819,18,Jits_Linear_8,0,5,63,98,2061186532
4819,18,Jits_Linear_8,1,5,56,103,2061196876
4819,18,Jits_Linear_8,2,5,80,127,2061200016
4819,18,Jits_Linear_8,3,1,48,126,2061241420
4819,18,Jits_Linear_8,4,1,38,23,2061251508
4819,18,Jits_Linear_8,0,5,56,103,2061907308
4819,18,Jits_Linear_8,1,1,48,108,2061965680
4819,18,Jits_Linear_8,2,1,38,24,2061975776
4819,18,Jits_Linear_8,3,5,80,127,2062027188
4819,18,Jits_Linear_8,4,5,63,98,2062067680
4819,18,Jits_Linear_8,0,5,56,103,2062656920
4819,18,Jits_Linear_8,1,1,48,103,2062719180
4819,18,Jits_Linear_8,2,1,38,24,2062729572
4819,18,Jits_Linear_8,3,5,80,127,2062736868
4819,18,Jits_Linear_8,4,5,63,98,2062757104
4819,18,Jits_Linear_8,0,5,56,103,2063387124
4819,18,Jits_Linear_8,1,1,48,123,2063463612
4819,18,Jits_Linear_8,2,5,63,98,2063496608
4819,18,Jits_Linear_8,3,5,80,127,2063500044
4819,18,Jits_Linear_8,0,5,56,103,2064146816
4819,18,Jits_Linear_8,1,5,80,127,2064176492
4819,18,Jits_Linear_8,2,5,63,98,2064196952
4819,18,Jits_Linear_8,3,1,48,106,2064257856
4819,18,Jits_Linear_8,4,1,38,24,2064267728
4819,18,Jits_Linear_8,0,5,63,98,2064856640
4819,18,Jits_Linear_8,1,5,56,103,2064866836
4819,18,Jits_Linear_8,2,5,80,127,2064876956
4819,18,Jits_Linear_8,3,1,48,111,2064969448
4819,18,Jits_Linear_8,4,1,38,22,2064979316
4819,18,Jits_Linear_8,0,5,80,127,2065567040
4819,18,Jits_Linear_8,1,1,48,121,2065616188
4819,18,Jits_Linear_8,2,5,56,103,2065618064
4819,18,Jits_Linear_8,3,1,38,24,2065626508
4819,18,Jits_Linear_8,4,5,63,98,2065657244
4819,18,Jits_Linear_8,0,5,80,127,2066306548
4819,18,Jits_Linear_8,1,5,63,98,2066326860
4819,18,Jits_Linear_8,2,5,56,103,2066377060
4819,18,Jits_Linear_8,3,1,48,99,2066386552
4819,18,Jits_Linear_8,4,1,38,24,2066396496
4819,18,Jits_Linear_8,0,5,80,127,2067036636
4819,18,Jits_Linear_8,1,5,56,103,2067067460
4819,18,Jits_Linear_8,2,1,48,90,2067084452
4819,18,Jits_Linear_8,3,1,38,21,2067093556
4819,18,Jits_Linear_8,4,5,63,98,2067136816
4819,18,Jits_Linear_8,0,5,56,103,2067806616
4819,18,Jits_Linear_8,1,5,80,127,2067816764
4819,18,Jits_Linear_8,2,1,48,87,2067826708
4819,18,Jits_Linear_8,3,1,38,24,2067836572
4819,18,Jits_Linear_8,4,5,63,98,2067856676
4819,18,Jits_Linear_8,0,5,56,103,2068437612
4819,18,Jits_Linear_8,1,5,63,98,2068456800
4819,18,Jits_Linear_8,2,5,80,127,2068526556
4819,18,Jits_Linear_8,3,1,48,68,2068559860
4819,18,Jits_Linear_8,0,5,63,98,2069176624
4819,18,Jits_Linear_8,1,5,80,127,2069237168
4819,18,Jits_Linear_8,2,5,56,103,2069256728
4819,18,Jits_Linear_8,3,1,48,78,2069257768
4819,18,Jits_Linear_8,4,1,38,20,2069267488
4819,18,Jits_Linear_8,0,5,80,127,2069877216
4819,18,Jits_Linear_8,1,5,56,103,2069906744
4819,18,Jits_Linear_8,2,1,48,110,2069908080
4819,18,Jits_Linear_8,3,1,38,25,2069918620
4819,18,Jits_Linear_8,4,5,63,98,2069936704
4819,18,Jits_Linear_8,0,5,56,103,2070586724
4819,18,Jits_Linear_8,1,1,48,84,2070617792
4819,18,Jits_Linear_8,2,1,38,20,2070628148
4819,18,Jits_Linear_8,3,5,63,98,2070647132
4819,18,Jits_Linear_8,4,5,80,127,2070706624
4819,18,Jits_Linear_8,0,1,48,97,2071291944
4819,18,Jits_Linear_8,1,1,38,21,2071301888
4819,18,Jits_Linear_8,2,5,80,127,2071316904
4819,18,Jits_Linear_8,3,5,56,103,2071337512
4819,18,Jits_Linear_8,4,5,63,98,2071406892
4819,18,Jits_Linear_8,0,5,80,127,2072026592
4819,18,Jits_Linear_8,1,5,63,98,2072046904
4819,18,Jits_Linear_8,2,1,48,82,2072059088
4819,18,Jits_Linear_8,3,1,38,19,2072069028
4819,18,Jits_Linear_8,4,5,56,103,2072076628
4819,18,Jits_Linear_8,0,5,80,127,2072716632
4819,18,Jits_Linear_8,1,5,63,98,2072737244
4819,18,Jits_Linear_8,2,1,48,111,2072764796
4819,18,Jits_Linear_8,3,1,38,25,2072774724
4819,18,Jits_Linear_8,4,5,56,103,2072796784
4819,18,Jits_Linear_8,0,5,80,127,2073417212
4819,18,Jits_Linear_8,1,1,48,104,2073451824
4819,18,Jits_Linear_8,2,1,38,26,2073461688
4819,18,Jits_Linear_8,3,5,56,103,2073517684
4819,18,Jits_Linear_8,4,5,63,98,2073547212
4819,18,Jits_Linear_8,0,5,63,98,2074107188
4819,18,Jits_Linear_8,1,5,80,127,2074157688
4819,18,Jits_Linear_8,2,5,56,103,2074176876
4819,18,Jits_Linear_8,3,1,48,100,2074194372
4819,18,Jits_Linear_8,0,5,80,127,2074846496
4819,18,Jits_Linear_8,1,5,56,103,2074877364
4819,18,Jits_Linear_8,2,5,63,98,2074880504
4819,18,Jits_Linear_8,3,1,48,76,2074912996
4819,18,Jits_Linear_8,4,1,38,21,2074922340
4819,18,Jits_Linear_8,0,5,63,98,2075576604
4819,18,Jits_Linear_8,1,5,56,103,2075616620
4819,18,Jits_Linear_8,2,5,80,127,2075637300
4819,18,Jits_Linear_8,3,1,48,78,2075638640
4819,18,Jits_Linear_8,4,1,38,22,2075648804
4819,18,Jits_Linear_8,0,5,80,127,2076216584
4819,18,Jits_Linear_8,1,5,63,98,2076296556
4819,18,Jits_Linear_8,2,5,56,103,2076336492
4819,18,Jits_Linear_8,3,1,48,87,2076374900
4819,18,Jits_Linear_8,0,5,63,98,2076927424
4819,18,Jits_Linear_8,1,5,80,127,2077007444
4819,18,Jits_Linear_8,2,5,56,103,2077026732
4819,18,Jits_Linear_8,3,1,48,97,2077037872
4819,18,Jits_Linear_8,4,1,38,24,2077047816
4819,18,Jits_Linear_8,0,5,56,103,2077656412
4819,18,Jits_Linear_8,1,5,63,98,2077666608
4819,18,Jits_Linear_8,2,1,48,97,2077682456
4819,18,Jits_Linear_8,3,1,38,21,2077691876
4819,18,Jits_Linear_8,4,5,80,127,2077706520
4819,18,Jits_Linear_8,0,5,56,103,2078266780
4819,18,Jits_Linear_8,1,5,80,127,2078269844
4819,18,Jits_Linear_8,2,1,48,99,2078367688
4819,18,Jits_Linear_8,3,1,38,24,2078377560
4819,18,Jits_Linear_8,4,5,63,98,2078406956
4819,18,Jits_Linear_8,0,5,56,103,2078946540
4819,18,Jits_Linear_8,1,1,48,97,2079000300
4819,18,Jits_Linear_8,2,1,38,22,2079010248
4819,18,Jits_Linear_8,3,5,63,98,2079036652
4819,18,Jits_Linear_8,4,5,80,127,2079106460
4819,18,Jits_Linear_8,0,1,48,125,2079690260
4819,18,Jits_Linear_8,1,1,38,25,2079700352
4819,18,Jits_Linear_8,2,5,63,98,2079706528
4819,18,Jits_Linear_8,3,5,80,127,2079709740
4819,18,Jits_Linear_8,4,5,56,103,2079766844
4819,18,Jits_Linear_8,0,1,48,80,2080401876
4819,18,Jits_Linear_8,1,1,38,25,2080411148
4819,18,Jits_Linear_8,2,5,80,127,2080427512
4819,18,Jits_Linear_8,3,5,56,103,2080446924
4819,18,Jits_Linear_8,4,5,63,98,2080457268
4819,18,Jits_Linear_8,0,5,56,103,2081017368
4819,18,Jits_Linear_8,1,5,63,98,2081026368
4819,18,Jits_Linear_8,2,5,80,127,2081097320
4819,18,Jits_Linear_8,3,1,48,120,2081137252
4819,18,Jits_Linear_8,4,1,38,25,2081147196
4819,18,Jits_Linear_8,0,5,80,127,2081697368
4819,18,Jits_Linear_8,1,5,56,103,2081747424
4819,18,Jits_Linear_8,2,1,48,107,2081758416
4819,18,Jits_Linear_8,3,1,38,23,2081768512
4819,18,Jits_Linear_8,4,5,63,98,2081796332
4819,18,Jits_Linear_8,0,5,56,103,2082456796
4819,18,Jits_Linear_8,1,1,48,109,2082457764
4819,18,Jits_Linear_8,2,5,63,98,2082467284
4819,18,Jits_Linear_8,3,5,80,127,2082507224
4819,18,Jits_Linear_8,0,5,56,103,2083076448
4819,18,Jits_Linear_8,1,5,63,98,2083117288
4819,18,Jits_Linear_8,2,1,48,111,2083155848
4819,18,Jits_Linear_8,3,1,38,24,2083165896
4819,18,Jits_Linear_8,4,5,80,127,2083168584
4819,18,Jits_Linear_8,0,5,80,127,2083707380
4819,18,Jits_Linear_8,1,5,56,103,2083757436
4819,18,Jits_Linear_8,2,5,63,98,2083776772
4819,18,Jits_Linear_8,3,1,48,72,2083813672
4819,18,Jits_Linear_8,4,1,38,20,2083823092
4819,18,Jits_Linear_8,0,5,80,127,2084387276
4819,18,Jits_Linear_8,1,1,48,79,2084440440
4819,18,Jits_Linear_8,2,5,63,98,2084446540
4819,18,Jits_Linear_8,3,5,56,103,2084526364
4819,18,Jits_Linear_8,0,5,80,127,2085037284
4819,18,Jits_Linear_8,1,5,56,103,2085077300
4819,18,Jits_Linear_8,2,5,63,98,2085096936
4819,18,Jits_Linear_8,3,1,48,94,2085171068
4819,18,Jits_Linear_8,4,1,38,22,2085180940
4819,18,Jits_Linear_8,0,1,48,85,2085706652
4819,18,Jits_Linear_8,1,5,56,103,2085757352
4819,18,Jits_Linear_8,2,5,80,127,2085766500
4819,18,Jits_Linear_8,3,5,63,98,2085806424
4819,18,Jits_Linear_8,0,1,48,98,2086397924
4819,18,Jits_Linear_8,1,1,38,22,2086407944
4819,18,Jits_Linear_8,2,5,56,103,2086487388
4819,18,Jits_Linear_8,3,5,63,98,2086527244
4819,18,Jits_Linear_8,4,5,80,127,2086530836
4819,18,Jits_Linear_8,0,5,63,98,2087037272
4819,18,Jits_Linear_8,1,5,80,127,2087077360
4819,18,Jits_Linear_8,2,5,56,103,2087147044
4819,18,Jits_Linear_8,3,1,48,99,2087173156
4819,18,Jits_Linear_8,0,5,63,98,2087686564
4819,18,Jits_Linear_8,1,1,48,103,2087718752
4819,18,Jits_Linear_8,2,1,38,21,2087728628
4819,18,Jits_Linear_8,3,5,56,103,2087767460
4819,18,Jits_Linear_8,4,5,80,127,2087826932
4819,18,Jits_Linear_8,0,5,80,127,2088357340
4819,18,Jits_Linear_8,1,1,48,97,2088406264
4819,18,Jits_Linear_8,2,5,63,98,2088408136
4819,18,Jits_Linear_8,3,1,38,21,2088416436
4819,18,Jits_Linear_8,4,5,56,103,2088437204
4819,18,Jits_Linear_8,0,5,56,103,2089006380
4819,18,Jits_Linear_8,1,5,63,98,2089056732
4819,18,Jits_Linear_8,2,5,80,127,2089067004
4819,18,Jits_Linear_8,3,1,48,70,2089106612
4819,18,Jits_Linear_8,4,1,38,18,2089116628
4819,18,Jits_Linear_8,0,5,56,103,2089677276
4819,18,Jits_Linear_8,1,1,48,76,2089710212
4819,18,Jits_Linear_8,2,1,38,24,2089720008
4819,18,Jits_Linear_8,3,5,63,98,2089786940
4819,18,Jits_Linear_8,4,5,80,127,2089808580
4819,18,Jits_Linear_8,0,5,63,98,2090327368
4819,18,Jits_Linear_8,1,5,80,127,2090376552
4819,18,Jits_Linear_8,2,1,48,100,2090378416
4819,18,Jits_Linear_8,3,1,38,24,2090388580
4819,18,Jits_Linear_8,4,5,56,103,2090466816
4819,18,Jits_Linear_8,0,5,63,98,2090967368
4819,18,Jits_Linear_8,1,5,80,127,2090997044
4819,18,Jits_Linear_8,2,1,48,121,2091066544
4819,18,Jits_Linear_8,3,1,38,24,2091076412
4819,18,Jits_Linear_8,4,5,56,103,2091087296
4819,18,Jits_Linear_8,0,5,63,98,2091616764
4819,18,Jits_Linear_8,1,5,56,103,2091626812
4819,18,Jits_Linear_8,2,1,48,111,2091678852
4819,18,Jits_Linear_8,3,1,38,22,2091688792
4819,18,Jits_Linear_8,4,5,80,127,2091727180
4819,18,Jits_Linear_8,0,1,48,80,2092317832
4819,18,Jits_Linear_8,1,1,38,24,2092327324
4819,18,Jits_Linear_8,2,5,63,98,2092367136
4819,18,Jits_Linear_8,3,5,80,127,2092397208
4819,18,Jits_Linear_8,4,5,56,103,2092426768
4819,18,Jits_Linear_8,0,1,48,76,2092988304
4819,18,Jits_Linear_8,1,1,38,21,2092998396
4819,18,Jits_Linear_8,2,5,80,127,2093026896
4819,18,Jits_Linear_8,3,5,63,98,2093037168
4819,18,Jits_Linear_8,4,5,56,103,2093066548
4819,18,Jits_Linear_8,0,5,80,127,2093567456
4819,18,Jits_Linear_8,1,5,63,98,2093586944
4819,18,Jits_Linear_8,2,5,56,103,2093637148
4819,18,Jits_Linear_8,3,1,48,106,2093700968
4819,18,Jits_Linear_8,4,1,38,24,2093710840
4819,18,Jits_Linear_8,0,5,63,98,2094236980
4819,18,Jits_Linear_8,1,1,48,95,2094264136
4819,18,Jits_Linear_8,2,1,38,25,2094273408
4819,18,Jits_Linear_8,3,5,80,127,2094296520
4819,18,Jits_Linear_8,4,5,56,103,2094317052
4819,18,Jits_Linear_8,0,5,63,98,2094836996
4819,18,Jits_Linear_8,1,5,56,103,2094887348
4819,18,Jits_Linear_8,2,5,80,127,2094896496
4819,18,Jits_Linear_8,3,1,48,76,2094956500
4819,18,Jits_Linear_8,4,1,38,18,2094966448
4819,18,Jits_Linear_8,0,5,56,103,2095506936
4819,18,Jits_Linear_8,1,5,80,127,2095517060
4819,18,Jits_Linear_8,2,1,48,82,2095541972
4819,18,Jits_Linear_8,3,1,38,24,2095551624
4819,18,Jits_Linear_8,4,5,63,98,2095617352
4819,18,Jits_Linear_8,0,5,80,127,2096106968
4819,18,Jits_Linear_8,1,5,63,98,2096117240
4819,18,Jits_Linear_8,2,1,48,86,2096167336
4819,18,Jits_Linear_8,3,1,38,23,2096177360
4819,18,Jits_Linear_8,4,5,56,103,2096266544
4819,18,Jits_Linear_8,0,5,63,98,2096746824
4819,18,Jits_Linear_8,1,1,48,126,2096767996
4819,18,Jits_Linear_8,2,1,38,25,2096777868
4819,18,Jits_Linear_8,3,5,80,127,2096787108
4819,18,Jits_Linear_8,4,5,56,103,2096866960
4819,18,Jits_Linear_8,0,5,56,103,2097367388
4819,18,Jits_Linear_8,1,1,48,95,2097429620
4819,18,Jits_Linear_8,2,1,38,24,2097439636
4819,18,Jits_Linear_8,3,5,80,127,2097466936
4819,18,Jits_Linear_8,4,5,63,98,2097487248
4819,18,Jits_Linear_8,0,5,80,127,2098056520
4819,18,Jits_Linear_8,1,5,56,103,2098067088
4819,18,Jits_Linear_8,2,1,48,91,2098074864
4819,18,Jits_Linear_8,3,1,38,23,2098084268
4819,18,Jits_Linear_8,4,5,63,98,2098157120
4819,18,Jits_Linear_8,0,5,56,103,2098687340
4819,18,Jits_Linear_8,1,5,63,98,2098707052
4819,18,Jits_Linear_8,2,1,48,88,2098754760
4819,18,Jits_Linear_8,3,5,80,127,2098786940
4819,18,Jits_Linear_8,0,5,63,98,2099256784
4819,18,Jits_Linear_8,1,5,56,103,2099347092
4819,18,Jits_Linear_8,2,5,80,127,2099350008
4819,18,Jits_Linear_8,3,1,48,86,2099378008
4819,18,Jits_Linear_8,4,1,38,23,2099387352
4819,18,Jits_Linear_8,0,5,56,103,2099906936
4819,18,Jits_Linear_8,1,1,48,97,2099951860
4819,18,Jits_Linear_8,2,1,38,24,2099961428
4819,18,Jits_Linear_8,3,5,80,127,2099967452
4819,18,Jits_Linear_8,4,5,63,98,2099976752
4819,18,Jits_Linear_8,0,5,80,127,2100576896
4819,18,Jits_Linear_8,1,5,56,103,2100586940
4819,18,Jits_Linear_8,2,5,63,98,2100590008
4819,18,Jits_Linear_8,3,1,48,85,2100606544
4819,18,Jits_Linear_8,4,1,38,25,2100615964
4819,18,Jits_Linear_8,0,5,56,103,2101157360
4819,18,Jits_Linear_8,1,5,80,127,2101166436
4819,18,Jits_Linear_8,2,5,63,98,2101187044
4819,18,Jits_Linear_8,3,1,48,73,2101246280
4819,18,Jits_Linear_8,0,5,63,98,2101746952
4819,18,Jits_Linear_8,1,5,80,127,2101806668
4819,18,Jits_Linear_8,2,1,48,101,2101848524
4819,18,Jits_Linear_8,3,5,56,103,2101856888
4819,18,Jits_Linear_8,4,1,38,26,2101859256
4819,18,Jits_Linear_8,0,1,48,78,2102441972
4819,18,Jits_Linear_8,1,5,63,98,2102446508
4819,18,Jits_Linear_8,2,1,38,23,2102451792
4819,18,Jits_Linear_8,3,5,56,103,2102456992
4819,18,Jits_Linear_8,4,5,80,127,2102506972
4819,18,Jits_Linear_8,0,5,63,98,2102957536
4819,18,Jits_Linear_8,1,5,80,127,2102976872
4819,18,Jits_Linear_8,2,5,56,103,2102987068
4819,18,Jits_Linear_8,3,1,48,108,2103074908
4819,18,Jits_Linear_8,4,1,38,22,2103085168
4819,18,Jits_Linear_8,0,5,63,98,2103566692
4819,18,Jits_Linear_8,1,5,80,127,2103570276
4819,18,Jits_Linear_8,2,5,56,103,2103606780
4819,18,Jits_Linear_8,3,1,48,86,2103634832
4819,18,Jits_Linear_8,4,1,38,21,2103644720
4819,18,Jits_Linear_8,0,1,48,109,2104242872
4819,18,Jits_Linear_8,1,5,63,98,2104246580
4819,18,Jits_Linear_8,2,1,38,25,2104253060
4819,18,Jits_Linear_8,3,5,80,127,2104277372
4819,18,Jits_Linear_8,4,5,56,103,2104286668
4819,18,Jits_Linear_8,0,5,56,103,2104806708
4819,18,Jits_Linear_8,1,5,80,127,2104836608
4819,18,Jits_Linear_8,2,5,63,98,2104867108
4819,18,Jits_Linear_8,3,1,48,89,2104906792
4819,18,Jits_Linear_8,4,1,38,23,2104916952
4819,18,Jits_Linear_8,0,5,63,98,2105507156
4819,18,Jits_Linear_8,1,1,48,81,2105511616
4819,18,Jits_Linear_8,2,1,38,22,2105521492
4819,18,Jits_Linear_8,3,5,56,103,2105547068
4819,18,Jits_Linear_8,4,5,80,127,2105550132
4819,18,Jits_Linear_8,0,5,80,127,2106006924
4819,18,Jits_Linear_8,1,5,56,103,2106086724
4819,18,Jits_Linear_8,2,1,48,127,2106128800
4819,18,Jits_Linear_8,3,5,63,98,2106137068
4819,18,Jits_Linear_8,4,1,38,24,2106139080
4819,18,Jits_Linear_8,0,5,80,127,2106586672
4819,18,Jits_Linear_8,1,5,56,103,2106606908
4819,18,Jits_Linear_8,2,5,63,98,2106696968
4819,18,Jits_Linear_8,3,1,48,97,2106741988
4819,18,Jits_Linear_8,4,1,38,20,2106751852
4819,18,Jits_Linear_8,0,5,80,127,2107226704
4819,18,Jits_Linear_8,1,5,63,98,2107266672
4819,18,Jits_Linear_8,2,1,48,87,2107292860
4819,18,Jits_Linear_8,3,5,56,103,2107307576
4819,18,Jits_Linear_8,0,5,63,98,2107796920
4819,18,Jits_Linear_8,1,5,80,127,2107857464
4819,18,Jits_Linear_8,2,5,56,103,2107886840
4819,18,Jits_Linear_8,3,1,48,127,2107903064
4819,18,Jits_Linear_8,4,1,38,28,2107913152
4819,18,Jits_Linear_8,0,5,56,103,2108396884
4819,18,Jits_Linear_8,1,5,80,127,2108426636
4819,18,Jits_Linear_8,2,1,48,127,2108505052
4819,18,Jits_Linear_8,3,5,63,98,2108516712
4819,18,Jits_Linear_8,0,5,56,103,2108996900
4819,18,Jits_Linear_8,1,5,80,127,2109106692
4819,18,Jits_Linear_8,2,1,48,119,2109124880
4819,18,Jits_Linear_8,3,1,38,25,2109135052
4819,18,Jits_Linear_8,4,5,63,98,2109137536
4819,18,Jits_Linear_8,0,5,56,103,2109636908
4819,18,Jits_Linear_8,1,5,63,98,2109697448
4819,18,Jits_Linear_8,2,5,80,127,2109727052
4819,18,Jits_Linear_8,3,1,48,103,2109765388
4819,18,Jits_Linear_8,4,1,38,25,2109775408
4819,18,Jits_Linear_8,0,5,56,103,2110197244
4819,18,Jits_Linear_8,1,5,63,98,2110266708
4819,18,Jits_Linear_8,2,5,80,127,2110287092
4819,18,Jits_Linear_8,3,1,48,127,2110358408
4819,18,Jits_Linear_8,0,5,80,127,2110757336
4819,18,Jits_Linear_8,1,5,63,98,2110776676
4819,18,Jits_Linear_8,2,5,56,103,2110826900
4819,18,Jits_Linear_8,3,1,48,91,2110926888
4819,18,Jits_Linear_8,0,5,63,98,2111357436
4819,18,Jits_Linear_8,1,5,80,127,2111366660
4819,18,Jits_Linear_8,2,5,56,103,2111416640
4819,18,Jits_Linear_8,3,1,48,89,2111476924
4819,18,Jits_Linear_8,0,5,63,98,2111937056
4819,18,Jits_Linear_8,1,5,80,127,2112006664
4819,18,Jits_Linear_8,2,5,56,103,2112026972
4819,18,Jits_Linear_8,3,1,48,127,2112050016
4819,18,Jits_Linear_8,0,5,63,98,2112547396
4819,18,Jits_Linear_8,1,5,80,127,2112550688
4819,18,Jits_Linear_8,2,5,56,103,2112616884
4819,18,Jits_Linear_8,3,1,48,84,2112635368
4819,18,Jits_Linear_8,4,1,38,21,2112645240
4819,18,Jits_Linear_8,0,5,80,127,2113076456
4819,18,Jits_Linear_8,1,5,56,103,2113097212
4819,18,Jits_Linear_8,2,5,63,98,2113107260
4819,18,Jits_Linear_8,3,1,48,102,2113221496
4819,18,Jits_Linear_8,4,1,38,25,2113231440
4819,18,Jits_Linear_8,0,5,56,103,2113676588
4819,18,Jits_Linear_8,1,1,48,101,2113703596
4819,18,Jits_Linear_8,2,5,63,98,2113766716
4819,18,Jits_Linear_8,3,5,80,127,2113770080
4819,18,Jits_Linear_8,0,5,80,127,2114226552
4819,18,Jits_Linear_8,1,5,56,103,2114236676
4819,18,Jits_Linear_8,2,5,63,98,2114257432
4819,18,Jits_Linear_8,3,1,48,116,2114298308
4819,18,Jits_Linear_8,4,1,38,24,2114308404
4819,18,Jits_Linear_8,0,5,63,98,2114796780
4819,18,Jits_Linear_8,1,5,80,127,2114857396
4819,18,Jits_Linear_8,2,5,56,103,2114866544
4819,18,Jits_Linear_8,3,1,48,95,2114875592
4819,18,Jits_Linear_8,4,1,38,24,2114885760
4819,18,Jits_Linear_8,0,5,63,98,2115436972
4819,18,Jits_Linear_8,1,1,48,117,2115456208
4819,18,Jits_Linear_8,2,1,38,25,2115466404
4819,18,Jits_Linear_8,3,5,80,127,2115468640
4819,18,Jits_Linear_8,4,5,56,103,2115506484
4819,18,Jits_Linear_8,0,5,56,103,2115997144
4819,18,Jits_Linear_8,1,5,80,127,2116007412
4819,18,Jits_Linear_8,2,1,48,103,2116013600
4819,18,Jits_Linear_8,3,1,38,23,2116023620
4819,18,Jits_Linear_8,4,5,63,98,2116047324
4819,18,Jits_Linear_8,0,5,80,127,2116526384
4819,18,Jits_Linear_8,1,5,56,103,2116607304
4819,18,Jits_Linear_8,2,5,63,98,2116616456
4819,18,Jits_Linear_8,3,1,48,105,2116618468
4819,18,Jits_Linear_8,4,1,38,22,2116628856
4819,18,Jits_Linear_8,0,5,80,127,2117136860
4819,18,Jits_Linear_8,1,5,56,103,2117216532
4819,18,Jits_Linear_8,2,1,48,83,2117226052
4819,18,Jits_Linear_8,3,5,63,98,2117227768
4819,18,Jits_Linear_8,4,1,38,19,2117236288
4819,18,Jits_Linear_8,0,5,80,127,2117656816
4819,18,Jits_Linear_8,1,5,56,103,2117707320
4819,18,Jits_Linear_8,2,5,63,98,2117757472
4819,18,Jits_Linear_8,3,1,48,99,2117786144
4819,18,Jits_Linear_8,4,1,38,24,2117796088
4819,18,Jits_Linear_8,0,5,56,103,2118276428
4819,18,Jits_Linear_8,1,5,63,98,2118279420
4819,18,Jits_Linear_8,2,5,80,127,2118326704
4819,18,Jits_Linear_8,3,1,48,106,2118327820
4819,18,Jits_Linear_8,4,1,38,24,2118338060
4819,18,Jits_Linear_8,0,5,56,103,2118857004
4819,18,Jits_Linear_8,1,5,63,98,2118886680
4819,18,Jits_Linear_8,2,5,80,127,2118896876
4819,18,Jits_Linear_8,3,1,48,84,2118931756
4819,18,Jits_Linear_8,4,1,38,21,2118941848
4819,18,Jits_Linear_8,0,5,63,98,2119327272
4819,18,Jits_Linear_8,1,5,56,103,2119396732
4819,18,Jits_Linear_8,2,5,80,127,2119446860
4819,18,Jits_Linear_8,3,1,48,106,2119468560
4819,18,Jits_Linear_8,4,1,38,24,2119479028
4819,18,Jits_Linear_8,0,5,63,98,2119916968
4819,18,Jits_Linear_8,1,5,56,103,2119927384
4819,18,Jits_Linear_8,2,5,80,127,2119930376
4819,18,Jits_Linear_8,3,1,48,82,2119998756
4819,18,Jits_Linear_8,4,1,38,19,2120008620
4819,18,Jits_Linear_8,0,5,80,127,2120416728
4819,18,Jits_Linear_8,1,5,56,103,2120476896
4819,18,Jits_Linear_8,2,1,48,117,2120525644
4819,18,Jits_Linear_8,3,5,63,98,2120567344
4819,18,Jits_Linear_8,0,5,80,127,2120966476
4819,18,Jits_Linear_8,1,5,56,103,2121066900
4819,18,Jits_Linear_8,2,1,48,95,2121106544
4819,18,Jits_Linear_8,3,5,63,98,2121108252
4819,18,Jits_Linear_8,4,1,38,21,2121116704
4819,18,Jits_Linear_8,0,5,56,103,2121566596
4819,18,Jits_Linear_8,1,5,63,98,2121587356
4819,18,Jits_Linear_8,2,5,80,127,2121627072
4819,18,Jits_Linear_8,3,1,48,88,2121642844
4819,18,Jits_Linear_8,4,1,38,22,2121652712
4819,18,Jits_Linear_8,0,5,63,98,2122086912
4819,18,Jits_Linear_8,1,5,56,103,2122107372
4819,18,Jits_Linear_8,2,1,48,101,2122188936
4819,18,Jits_Linear_8,3,1,38,24,2122198800
4819,18,Jits_Linear_8,4,5,80,127,2122206620
4819,18,Jits_Linear_8,0,5,63,98,2122617188
4819,18,Jits_Linear_8,1,5,80,127,2122726656
4819,18,Jits_Linear_8,2,1,48,104,2122741456
4819,18,Jits_Linear_8,3,1,38,23,2122751328
4819,18,Jits_Linear_8,4,5,56,103,2122756456
4819,18,Jits_Linear_8,0,5,56,103,2123177376
4819,18,Jits_Linear_8,1,5,63,98,2123207124
4819,18,Jits_Linear_8,2,5,80,127,2123257328
4819,18,Jits_Linear_8,3,1,48,107,2123285400
4819,18,Jits_Linear_8,4,1,38,24,2123295572
4819,18,Jits_Linear_8,0,5,63,98,2123687288
4819,18,Jits_Linear_8,1,5,56,103,2123717264
4819,18,Jits_Linear_8,2,5,80,127,2123767316
4819,18,Jits_Linear_8,3,1,48,103,2123794480
4819,18,Jits_Linear_8,4,1,38,22,2123804724
4819,18,Jits_Linear_8,0,5,56,103,2124256672
4819,18,Jits_Linear_8,1,5,63,98,2124277204
4819,18,Jits_Linear_8,2,1,48,106,2124325208
4819,18,Jits_Linear_8,3,1,38,22,2124335076
4819,18,Jits_Linear_8,4,5,80,127,2124357196
4819,18,Jits_Linear_8,0,5,63,98,2124766508
4819,18,Jits_Linear_8,1,5,56,103,2124827048
4819,18,Jits_Linear_8,2,5,80,127,2124856648
4819,18,Jits_Linear_8,3,1,48,94,2124891900
4819,18,Jits_Linear_8,4,1,38,21,2124901584
4819,18,Jits_Linear_8,0,5,56,103,2125347352
4819,18,Jits_Linear_8,1,1,48,76,2125395956
4819,18,Jits_Linear_8,2,1,38,19,2125406004
4819,18,Jits_Linear_8,3,5,80,127,2125408420
4819,18,Jits_Linear_8,4,5,63,98,2125446560
4819,18,Jits_Linear_8,0,5,63,98,2125857108
4819,18,Jits_Linear_8,1,5,56,103,2125916456
4819,18,Jits_Linear_8,2,1,48,121,2125942640
4819,18,Jits_Linear_8,3,1,38,25,2125952588
4819,18,Jits_Linear_8,4,5,80,127,2125987304
4819,18,Jits_Linear_8,0,1,48,113,2126449312
4819,18,Jits_Linear_8,1,5,56,103,2126466280
4819,18,Jits_Linear_8,2,5,63,98,2126476540
4819,18,Jits_Linear_8,3,5,80,127,2126480132
4819,18,Jits_Linear_8,0,5,63,98,2126936360
4819,18,Jits_Linear_8,1,5,56,103,2126996776
4819,18,Jits_Linear_8,2,5,80,127,2127000140
4819,18,Jits_Linear_8,3,1,48,113,2127011352
4819,18,Jits_Linear_8,4,1,38,23,2127021300
4819,18,Jits_Linear_8,0,5,63,98,2127447448
4819,18,Jits_Linear_8,1,5,80,127,2127477148
4819,18,Jits_Linear_8,2,5,56,103,2127496560
4819,18,Jits_Linear_8,3,1,48,109,2127542376
4819,18,Jits_Linear_8,4,1,38,25,2127552844
4819,18,Jits_Linear_8,0,5,56,103,2127976924
4819,18,Jits_Linear_8,1,5,63,98,2128026904
4819,18,Jits_Linear_8,2,1,48,127,2128058420
4819,18,Jits_Linear_8,3,1,38,24,2128068360
4819,18,Jits_Linear_8,4,5,80,127,2128107044
4819,18,Jits_Linear_8,0,5,80,127,2128476552
4819,18,Jits_Linear_8,1,5,63,98,2128516344
4819,18,Jits_Linear_8,2,5,56,103,2128537028
4819,18,Jits_Linear_8,3,1,48,96,2128609816
4819,18,Jits_Linear_8,4,1,38,21,2128619760
4819,18,Jits_Linear_8,0,5,56,103,2129067368
4819,18,Jits_Linear_8,1,5,80,127,2129076668
4819,18,Jits_Linear_8,2,1,48,95,2129095772
4819,18,Jits_Linear_8,3,5,63,98,2129097344
4819,18,Jits_Linear_8,4,1,38,23,2129106020
4819,18,Jits_Linear_8,0,5,56,103,2129567024
4819,18,Jits_Linear_8,1,5,63,98,2129617156
4819,18,Jits_Linear_8,2,1,48,127,2129627468
4819,18,Jits_Linear_8,3,5,80,127,2129646896
4819,18,Jits_Linear_8,0,5,56,103,2130037064
4819,18,Jits_Linear_8,1,5,63,98,2130047332
4819,18,Jits_Linear_8,2,5,80,127,2130096488
4819,18,Jits_Linear_8,3,1,48,107,2130202908
4819,18,Jits_Linear_8,0,5,56,103,2130547016
4819,18,Jits_Linear_8,1,5,80,127,2130550008
4819,18,Jits_Linear_8,2,5,63,98,2130707196
4819,18,Jits_Linear_8,3,1,48,102,2130708160
4819,18,Jits_Linear_8,4,1,38,23,2130717808
4819,18,Jits_Linear_8,0,5,63,98,2131076344
4819,18,Jits_Linear_8,1,5,56,103,2131147000
4819,18,Jits_Linear_8,2,5,80,127,2131186936
4819,18,Jits_Linear_8,3,1,48,104,2131188800
4819,18,Jits_Linear_8,4,1,38,23,2131199040
4819,18,Jits_Linear_8,0,5,63,98,2131627328
4819,18,Jits_Linear_8,1,5,56,103,2131716412
4819,18,Jits_Linear_8,2,5,80,127,2131719628
4819,18,Jits_Linear_8,3,1,48,109,2131739760
4819,18,Jits_Linear_8,4,1,38,22,2131749700
4819,18,Jits_Linear_8,0,5,56,103,2132116992
4819,18,Jits_Linear_8,1,5,63,98,2132207052
4819,18,Jits_Linear_8,2,5,80,127,2132217176
4819,18,Jits_Linear_8,3,1,48,123,2132286676
4819,18,Jits_Linear_8,4,1,38,24,2132296616
4819,18,Jits_Linear_8,0,5,56,103,2132597088
4819,18,Jits_Linear_8,1,5,63,98,2132647220
4819,18,Jits_Linear_8,2,5,80,127,2132676972
4819,18,Jits_Linear_8,0,5,63,98,2133176980
4819,18,Jits_Linear_8,1,1,48,75,2133184760
4819,18,Jits_Linear_8,2,5,80,127,2133186948
4819,18,Jits_Linear_8,3,1,38,18,2133195096
4819,18,Jits_Linear_8,4,5,56,103,2133247332
4819,18,Jits_Linear_8,0,5,63,98,2133596584
4819,18,Jits_Linear_8,1,5,80,127,2133657000
4819,18,Jits_Linear_8,2,5,56,103,2133696936
4819,18,Jits_Linear_8,3,1,48,105,2133723352
4819,18,Jits_Linear_8,4,1,38,22,2133733216
4819,18,Jits_Linear_8,0,5,56,103,2134196492
4819,18,Jits_Linear_8,1,1,48,111,2134204864
4819,18,Jits_Linear_8,2,1,38,25,2134214716
4819,18,Jits_Linear_8,3,5,80,127,2134217224
4819,18,Jits_Linear_8,4,5,63,98,2134236488
4819,18,Jits_Linear_8,0,5,63,98,2134616404
4819,18,Jits_Linear_8,1,5,56,103,2134636964
4819,18,Jits_Linear_8,2,5,80,127,2134676904
4819,18,Jits_Linear_8,3,1,48,86,2134721072
4819,18,Jits_Linear_8,4,1,38,21,2134731464
4819,18,Jits_Linear_8,0,5,63,98,2135127264
4819,18,Jits_Linear_8,1,5,80,127,2135157188
4819,18,Jits_Linear_8,2,5,56,103,2135176452
4819,18,Jits_Linear_8,3,1,48,115,2135248416
4819,18,Jits_Linear_8,4,1,38,23,2135258288
4819,18,Jits_Linear_8,0,5,80,127,2135597600
4819,18,Jits_Linear_8,1,5,56,103,2135646636
4819,18,Jits_Linear_8,2,5,63,98,2135706948
4819,18,Jits_Linear_8,3,1,48,94,2135746480
4819,18,Jits_Linear_8,4,1,38,22,2135755904
4819,18,Jits_Linear_8,0,5,63,98,2136076936
4819,18,Jits_Linear_8,1,5,56,103,2136196396
4819,18,Jits_Linear_8,2,5,80,127,2136227268
4819,18,Jits_Linear_8,3,1,48,102,2136235564
4819,18,Jits_Linear_8,4,1,38,23,2136245512
4819,18,Jits_Linear_8,0,5,80,127,2136607068
4819,18,Jits_Linear_8,1,5,63,98,2136626408
4819,18,Jits_Linear_8,2,5,56,103,2136697160
4819,18,Jits_Linear_8,3,1,48,86,2136741032
4819,18,Jits_Linear_8,4,1,38,19,2136751128
4819,18,Jits_Linear_8,0,5,63,98,2137117048
4819,18,Jits_Linear_8,1,5,56,103,2137127396
4819,18,Jits_Linear_8,2,5,80,127,2137207064
4819,18,Jits_Linear_8,3,1,48,105,2137280300
4819,18,Jits_Linear_8,4,1,38,22,2137290172
4819,18,Jits_Linear_8,0,5,56,103,2137666876
4819,18,Jits_Linear_8,1,5,80,127,2137696728
4819,18,Jits_Linear_8,2,5,63,98,2137706848
4819,18,Jits_Linear_8,3,1,48,103,2137762624
4819,18,Jits_Linear_8,4,1,38,23,2137773096
4819,18,Jits_Linear_8,0,9999,9999,9999,2027324508
4819,18,Jits_Linear_8,1,9999,9999,9999,2028144744
4819,18,Jits_Linear_8,2,9999,9999,9999,2028964924
4819,18,Jits_Linear_8,3,9999,9999,9999,2029784132
4819,18,Jits_Linear_8,4,9999,9999,9999,2030604380
4819,18,Jits_Linear_8,5,9999,9999,9999,2031414328
4819,18,Jits_Linear_8,6,9999,9999,9999,2032224368
4819,18,Jits_Linear_8,7,9999,9999,9999,2033034296
4819,18,Jits_Linear_8,8,9999,9999,9999,2033844296
4819,18,Jits_Linear_8,9,9999,9999,9999,2034654272
4819,18,Jits_Linear_8,10,9999,9999,9999,2035455056
4819,18,Jits_Linear_8,11,9999,9999,9999,2036254788
4819,18,Jits_Linear_8,12,9999,9999,9999,2037054584
4819,18,Jits_Linear_8,13,9999,9999,9999,2037854296
4819,18,Jits_Linear_8,14,9999,9999,9999,2038655072
4819,18,Jits_Linear_8,15,9999,9999,9999,2039444576
4819,18,Jits_Linear_8,16,9999,9999,9999,2040235076
4819,18,Jits_Linear_8,17,9999,9999,9999,2041034820
4819,18,Jits_Linear_8,18,9999,9999,9999,2041824364
4819,18,Jits_Linear_8,19,9999,9999,9999,2042614856
4819,18,Jits_Linear_8,20,9999,9999,9999,2043394104
4819,18,Jits_Linear_8,21,9999,9999,9999,2044174456
4819,18,Jits_Linear_8,22,9999,9999,9999,2044954692
4819,18,Jits_Linear_8,23,9999,9999,9999,2045735004
4819,18,Jits_Linear_8,24,9999,9999,9999,2046514264
4819,18,Jits_Linear_8,25,9999,9999,9999,2047284300
4819,18,Jits_Linear_8,26,9999,9999,9999,2048054348
4819,18,Jits_Linear_8,27,9999,9999,9999,2048824404
4819,18,Jits_Linear_8,28,9999,9999,9999,2049594456
4819,18,Jits_Linear_8,29,9999,9999,9999,2050364500
4819,18,Jits_Linear_8,30,9999,9999,9999,2051124344
4819,18,Jits_Linear_8,31,9999,9999,9999,2051884124
4819,18,Jits_Linear_8,32,9999,9999,9999,2052644948
4819,18,Jits_Linear_8,33,9999,9999,9999,2053404800
4819,18,Jits_Linear_8,34,9999,9999,9999,2054164580
4819,18,Jits_Linear_8,35,9999,9999,9999,2054914112
4819,18,Jits_Linear_8,36,9999,9999,9999,2055664756
4819,18,Jits_Linear_8,37,9999,9999,9999,2056414280
4819,18,Jits_Linear_8,38,9999,9999,9999,2057164916
4819,18,Jits_Linear_8,39,9999,9999,9999,2057914420
4819,18,Jits_Linear_8,40,9999,9999,9999,2058654820
4819,18,Jits_Linear_8,41,9999,9999,9999,2059394152
4819,18,Jits_Linear_8,42,9999,9999,9999,2060134484
4819,18,Jits_Linear_8,43,9999,9999,9999,2060874844
4819,18,Jits_Linear_8,44,9999,9999,9999,2061614144
4819,18,Jits_Linear_8,45,9999,9999,9999,2062344260
4819,18,Jits_Linear_8,46,9999,9999,9999,2063074384
4819,18,Jits_Linear_8,47,9999,9999,9999,2063804480
4819,18,Jits_Linear_8,48,9999,9999,9999,2064534612
4819,18,Jits_Linear_8,49,9999,9999,9999,2065264736
4819,18,Jits_Linear_8,50,9999,9999,9999,2065984568
4819,18,Jits_Linear_8,51,9999,9999,9999,2066704504
4819,18,Jits_Linear_8,52,9999,9999,9999,2067424360
4819,18,Jits_Linear_8,53,9999,9999,9999,2068144216
4819,18,Jits_Linear_8,54,9999,9999,9999,2068864112
4819,18,Jits_Linear_8,55,9999,9999,9999,2069574744
4819,18,Jits_Linear_8,56,9999,9999,9999,2070284404
4819,18,Jits_Linear_8,57,9999,9999,9999,2070995060
4819,18,Jits_Linear_8,58,9999,9999,9999,2071704664
4819,18,Jits_Linear_8,59,9999,9999,9999,2072414300
4819,18,Jits_Linear_8,60,9999,9999,9999,2073114740
4819,18,Jits_Linear_8,61,9999,9999,9999,2073814084
4819,18,Jits_Linear_8,62,9999,9999,9999,2074514508
4819,18,Jits_Linear_8,63,9999,9999,9999,2075214924
4819,18,Jits_Linear_8,64,9999,9999,9999,2075914356
4819,18,Jits_Linear_8,65,9999,9999,9999,2076604504
4819,18,Jits_Linear_8,66,9999,9999,9999,2077294696
4819,18,Jits_Linear_8,67,9999,9999,9999,2077984848
4819,18,Jits_Linear_8,68,9999,9999,9999,2078675016
4819,18,Jits_Linear_8,69,9999,9999,9999,2079364156
4819,18,Jits_Linear_8,70,9999,9999,9999,2080044124
4819,18,Jits_Linear_8,71,9999,9999,9999,2080725112
4819,18,Jits_Linear_8,72,9999,9999,9999,2081405016
4819,18,Jits_Linear_8,73,9999,9999,9999,2082084920
4819,18,Jits_Linear_8,74,9999,9999,9999,2082764904
4819,18,Jits_Linear_8,75,9999,9999,9999,2083434580
4819,18,Jits_Linear_8,76,9999,9999,9999,2084104292
4819,18,Jits_Linear_8,77,9999,9999,9999,2084774976
4819,18,Jits_Linear_8,78,9999,9999,9999,2085444684
4819,18,Jits_Linear_8,79,9999,9999,9999,2086114384
4819,18,Jits_Linear_8,80,9999,9999,9999,2086774908
4819,18,Jits_Linear_8,81,9999,9999,9999,2087434312
4819,18,Jits_Linear_8,82,9999,9999,9999,2088094816
4819,18,Jits_Linear_8,83,9999,9999,9999,2088754264
4819,18,Jits_Linear_8,84,9999,9999,9999,2089414748
4819,18,Jits_Linear_8,85,9999,9999,9999,2090064992
4819,18,Jits_Linear_8,86,9999,9999,9999,2090714208
4819,18,Jits_Linear_8,87,9999,9999,9999,2091364456
4819,18,Jits_Linear_8,88,9999,9999,9999,2092014648
4819,18,Jits_Linear_8,89,9999,9999,9999,2092664908
4819,18,Jits_Linear_8,90,9999,9999,9999,2093304944
4819,18,Jits_Linear_8,91,9999,9999,9999,2093944916
4819,18,Jits_Linear_8,92,9999,9999,9999,2094584892
4819,18,Jits_Linear_8,93,9999,9999,9999,2095224940
4819,18,Jits_Linear_8,94,9999,9999,9999,2095864892
4819,18,Jits_Linear_8,95,9999,9999,9999,2096494708
4819,18,Jits_Linear_8,96,9999,9999,9999,2097124420
4819,18,Jits_Linear_8,97,9999,9999,9999,2097754192
4819,18,Jits_Linear_8,98,9999,9999,9999,2098384956
4819,18,Jits_Linear_8,99,9999,9999,9999,2099014780
4819,18,Jits_Linear_8,100,9999,9999,9999,2099634240
4819,18,Jits_Linear_8,101,9999,9999,9999,2100254784
4819,18,Jits_Linear_8,102,9999,9999,9999,2100874308
4819,18,Jits_Linear_8,103,9999,9999,9999,2101494908
4819,18,Jits_Linear_8,104,9999,9999,9999,2102114384
4819,18,Jits_Linear_8,105,9999,9999,9999,2102724696
4819,18,Jits_Linear_8,106,9999,9999,9999,2103335036
4819,18,Jits_Linear_8,107,9999,9999,9999,2103944288
4819,18,Jits_Linear_8,108,9999,9999,9999,2104554584
4819,18,Jits_Linear_8,109,9999,9999,9999,2105164884
4819,18,Jits_Linear_8,110,9999,9999,9999,2105764940
4819,18,Jits_Linear_8,111,9999,9999,9999,2106365044
4819,18,Jits_Linear_8,112,9999,9999,9999,2106965084
4819,18,Jits_Linear_8,113,9999,9999,9999,2107564136
4819,18,Jits_Linear_8,114,9999,9999,9999,2108164180
4819,18,Jits_Linear_8,115,9999,9999,9999,2108755036
4819,18,Jits_Linear_8,116,9999,9999,9999,2109344852
4819,18,Jits_Linear_8,117,9999,9999,9999,2109934712
4819,18,Jits_Linear_8,118,9999,9999,9999,2110524536
4819,18,Jits_Linear_8,119,9999,9999,9999,2111114312
4819,18,Jits_Linear_8,120,9999,9999,9999,2111694912
4819,18,Jits_Linear_8,121,9999,9999,9999,2112274536
4819,18,Jits_Linear_8,122,9999,9999,9999,2112854108
4819,18,Jits_Linear_8,123,9999,9999,9999,2113434728
4819,18,Jits_Linear_8,124,9999,9999,9999,2114014284
4819,18,Jits_Linear_8,125,9999,9999,9999,2114584664
4819,18,Jits_Linear_8,126,9999,9999,9999,2115155032
4819,18,Jits_Linear_8,127,9999,9999,9999,2115724360
4819,18,Jits_Linear_8,128,9999,9999,9999,2116294716
4819,18,Jits_Linear_8,129,9999,9999,9999,2116864056
4819,18,Jits_Linear_8,130,9999,9999,9999,2117424188
4819,18,Jits_Linear_8,131,9999,9999,9999,2117984312
4819,18,Jits_Linear_8,132,9999,9999,9999,2118544488
4819,18,Jits_Linear_8,133,9999,9999,9999,2119104608
4819,18,Jits_Linear_8,134,9999,9999,9999,2119664708
4819,18,Jits_Linear_8,135,9999,9999,9999,2120214604
4819,18,Jits_Linear_8,136,9999,9999,9999,2120764472
4819,18,Jits_Linear_8,137,9999,9999,9999,2121314364
4819,18,Jits_Linear_8,138,9999,9999,9999,2121864248
4819,18,Jits_Linear_8,139,9999,9999,9999,2122414156
4819,18,Jits_Linear_8,140,9999,9999,9999,2122954860
4819,18,Jits_Linear_8,141,9999,9999,9999,2123494508
4819,18,Jits_Linear_8,142,9999,9999,9999,2124034156
4819,18,Jits_Linear_8,143,9999,9999,9999,2124574844
4819,18,Jits_Linear_8,144,9999,9999,9999,2125114436
4819,18,Jits_Linear_8,145,9999,9999,9999,2125644856
4819,18,Jits_Linear_8,146,9999,9999,9999,2126174316
4819,18,Jits_Linear_8,147,9999,9999,9999,2126704708
4819,18,Jits_Linear_8,148,9999,9999,9999,2127234176
4819,18,Jits_Linear_8,149,9999,9999,9999,2127764600
4819,18,Jits_Linear_8,150,9999,9999,9999,2128284768
4819,18,Jits_Linear_8,151,9999,9999,9999,2128804992
4819,18,Jits_Linear_8,152,9999,9999,9999,2129324128
4819,18,Jits_Linear_8,153,9999,9999,9999,2129844348
4819,18,Jits_Linear_8,154,9999,9999,9999,2130364500
4819,18,Jits_Linear_8,155,9999,9999,9999,2130874492
4819,18,Jits_Linear_8,156,9999,9999,9999,2131384436
4819,18,Jits_Linear_8,157,9999,9999,9999,2131894332
4819,18,Jits_Linear_8,158,9999,9999,9999,2132404308
4819,18,Jits_Linear_8,159,9999,9999,9999,2132914288
4819,18,Jits_Linear_8,160,9999,9999,9999,2133415012
4819,18,Jits_Linear_8,161,9999,9999,9999,2133914712
4819,18,Jits_Linear_8,162,9999,9999,9999,2134414432
4819,18,Jits_Linear_8,163,9999,9999,9999,2134914156
4819,18,Jits_Linear_8,164,9999,9999,9999,2135414900
4819,18,Jits_Linear_8,165,9999,9999,9999,2135904344
4819,18,Jits_Linear_8,166,9999,9999,9999,2136394824
4819,18,Jits_Linear_8,167,9999,9999,9999,2136884344
4819,18,Jits_Linear_8,168,9999,9999,9999,2137374796
4819,18,Jits_Linear_8,169,9999,9999,9999,2137864244
4820,5,ISIP_5,0,5,42,127,2215774648
4820,5,ISIP_5,1,1,48,64,2216073540
4820,5,ISIP_5,2,5,42,127,2216275588
4820,5,ISIP_5,3,1,48,74,2216544588
4820,5,ISIP_5,4,5,42,127,2216775060
4820,5,ISIP_5,5,1,48,68,2217002296
4820,5,ISIP_5,6,5,42,127,2217274756
4820,5,ISIP_5,7,1,48,70,2217471920
4820,5,ISIP_5,8,5,42,127,2217774524
4820,5,ISIP_5,9,1,48,79,2217913048
4820,5,ISIP_5,10,1,38,18,2217923056
4820,5,ISIP_5,11,5,42,127,2218275144
4820,5,ISIP_5,12,1,48,66,2218387416
4820,5,ISIP_5,13,5,42,127,2218774916
4820,5,ISIP_5,14,1,48,75,2218868632
4820,5,ISIP_5,15,5,42,127,2219274608
4820,5,ISIP_5,16,1,48,78,2219355692
4820,5,ISIP_5,17,5,42,127,2219775500
4820,5,ISIP_5,18,1,48,86,2219848780
4820,5,ISIP_5,19,5,42,127,2220275192
4820,5,ISIP_5,20,1,48,79,2220334412
4820,5,ISIP_5,21,1,38,19,2220344260
4820,5,ISIP_5,22,5,42,127,2220774616
4820,5,ISIP_5,23,1,48,96,2220833008
4820,5,ISIP_5,24,5,42,127,2221274388
4820,5,ISIP_5,25,1,48,92,2221325072
4820,5,ISIP_5,26,5,42,127,2221775500
4820,5,ISIP_5,27,1,48,76,2221827836
4820,5,ISIP_5,28,1,38,18,2221838212
4820,5,ISIP_5,29,5,42,127,2222274924
4820,5,ISIP_5,30,1,48,91,2222298312
4820,5,ISIP_5,31,5,42,127,2222774692
4820,5,ISIP_5,32,1,48,102,2222824036
4820,5,ISIP_5,33,5,42,127,2223275360
4820,5,ISIP_5,34,1,48,87,2223306300
4820,5,ISIP_5,35,1,38,20,2223316084
4820,5,ISIP_5,36,5,42,127,2223775376
4820,5,ISIP_5,37,1,48,98,2223806624
4820,5,ISIP_5,38,1,38,21,2223816548
4820,5,ISIP_5,39,5,42,127,2224274728
4820,5,ISIP_5,40,1,48,90,2224289736
4820,5,ISIP_5,41,1,38,20,2224299664
4820,5,ISIP_5,42,5,42,127,2224774380
4820,5,ISIP_5,43,1,48,102,2224792228
4820,5,ISIP_5,44,5,42,127,2225275492
4820,5,ISIP_5,45,1,48,96,2225291628
4820,5,ISIP_5,46,5,42,127,2225775112
4820,5,ISIP_5,47,1,48,93,2225798124
4820,5,ISIP_5,48,5,42,127,2226274584
4820,5,ISIP_5,49,1,48,109,2226302608
4820,5,ISIP_5,50,5,42,127,2226775376
4820,5,ISIP_5,51,1,48,100,2226793252
4820,5,ISIP_5,52,5,42,127,2227275220
4820,5,ISIP_5,53,1,48,96,2227282896
4820,5,ISIP_5,54,5,42,127,2227774916
4820,5,ISIP_5,55,1,48,106,2227777588
4820,5,ISIP_5,56,5,42,127,2228274536
4820,5,ISIP_5,57,1,48,95,2228290968
4820,5,ISIP_5,58,5,42,127,2228775276
4820,5,ISIP_5,59,1,48,99,2228800380
4820,5,ISIP_5,60,1,38,21,2228810236
4820,5,ISIP_5,61,5,42,127,2229274996
4820,5,ISIP_5,62,1,48,95,2229276260
4820,5,ISIP_5,63,5,42,127,2229774768
4820,5,ISIP_5,64,1,48,93,2229815132
4820,5,ISIP_5,65,1,38,20,2229825508
4820,5,ISIP_5,66,5,42,127,2230274340
4820,5,ISIP_5,67,1,48,84,2230307224
4820,5,ISIP_5,68,5,42,127,2230775156
4820,5,ISIP_5,69,1,48,97,2230801084
4820,5,ISIP_5,70,5,42,127,2231275072
4820,5,ISIP_5,71,1,48,100,2231303176
4820,5,ISIP_5,72,5,42,127,2231774692
4820,5,ISIP_5,73,1,48,108,2231834132
4820,5,ISIP_5,74,5,42,127,2232275212
4820,5,ISIP_5,75,1,48,110,2232298076
4820,5,ISIP_5,76,5,42,127,2232775128
4820,5,ISIP_5,77,1,48,93,2232790364
4820,5,ISIP_5,78,5,42,127,2233274900
4820,5,ISIP_5,79,1,48,92,2233288264
4820,5,ISIP_5,80,5,42,127,2233774372
4820,5,ISIP_5,81,1,48,94,2233809956
4820,5,ISIP_5,82,5,42,127,2234275264
4820,5,ISIP_5,83,1,48,87,2234318692
4820,5,ISIP_5,84,5,42,127,2234775104
4820,5,ISIP_5,85,1,48,85,2234785404
4820,5,ISIP_5,86,5,42,127,2235274576
4820,5,ISIP_5,87,1,48,98,2235288388
4820,5,ISIP_5,88,1,48,117,2235795336
4820,5,ISIP_5,89,1,48,91,2236302280
4820,5,ISIP_5,90,1,48,102,2236799952
4820,5,ISIP_5,91,1,38,21,2236809732
4820,5,ISIP_5,92,1,48,97,2237305432
4820,5,ISIP_5,93,1,48,90,2237825840
4820,5,ISIP_5,94,1,48,107,2238339444
4820,5,ISIP_5,95,1,48,117,2238832400
4820,5,ISIP_5,96,1,48,114,2239359396
4820,5,ISIP_5,97,1,48,89,2239878080
4820,5,ISIP_5,98,1,48,79,2240375012
4820,5,ISIP_5,99,1,48,100,2240898112
4820,5,ISIP_5,100,1,48,98,2241414260
4820,5,ISIP_5,101,1,48,113,2241910576
4820,5,ISIP_5,102,1,38,23,2241920732
4820,5,ISIP_5,103,1,48,110,2242438348
4820,5,ISIP_5,104,1,38,22,2242448272
4820,5,ISIP_5,105,1,48,116,2242965744
4820,5,ISIP_5,106,1,38,23,2242976120
4820,5,ISIP_5,107,1,48,108,2243501288
4820,5,ISIP_5,108,1,48,106,2244040992
4820,5,ISIP_5,109,1,48,97,2244592744
4820,5,ISIP_5,110,1,48,108,2245118612
4820,5,ISIP_5,111,1,48,103,2245642012
4820,5,ISIP_5,112,1,38,23,2245651944
4820,5,ISIP_5,113,1,48,115,2246162456
4820,5,ISIP_5,114,1,38,22,2246172832
4820,5,ISIP_5,115,1,48,94,2246665612
4820,5,ISIP_5,116,1,38,21,2246675540
4820,5,ISIP_5,117,1,48,108,2247190832
4820,5,ISIP_5,118,1,48,110,2247714236
4820,5,ISIP_5,119,1,38,22,2247724092
4820,5,ISIP_5,120,1,48,123,2248236540
4820,5,ISIP_5,121,1,48,107,2248743036
4820,5,ISIP_5,122,1,48,117,2249278944
4820,5,ISIP_5,123,1,48,95,2249779828
4820,5,ISIP_5,124,1,38,20,2249789832
4820,5,ISIP_5,125,1,48,127,2250316948
4820,5,ISIP_5,126,1,38,23,2250327288
4820,5,ISIP_5,127,1,48,97,2250866744
4820,5,ISIP_5,128,1,48,102,2251377800
4820,5,ISIP_5,129,1,38,21,2251387724
4820,5,ISIP_5,130,1,48,113,2251909752
4820,5,ISIP_5,131,1,38,21,2251919756
4820,5,ISIP_5,132,1,48,117,2252443132
4820,5,ISIP_5,133,1,48,119,2252981268
4820,5,ISIP_5,134,1,38,22,2252991268
4820,5,ISIP_5,135,1,48,75,2253528928
4820,5,ISIP_5,136,1,38,19,2253538784
4820,5,ISIP_5,137,1,48,123,2254051160
4820,5,ISIP_5,138,1,38,23,2254061092
4820,5,ISIP_5,139,1,48,127,2254582968
4820,5,ISIP_5,140,1,38,23,2254593124
4820,5,ISIP_5,141,1,48,107,2255119260
4820,5,ISIP_5,142,1,48,119,2255640944
4820,5,ISIP_5,143,1,38,24,2255650872
4820,5,ISIP_5,144,1,48,113,2256177908
4820,5,ISIP_5,145,1,38,22,2256187912
4820,5,ISIP_5,146,1,48,102,2256718920
4820,5,ISIP_5,147,1,38,23,2256729184
4820,5,ISIP_5,148,1,48,114,2257233532
4820,5,ISIP_5,149,1,38,22,2257243724
4820,5,ISIP_5,150,1,48,117,2257773092
4820,5,ISIP_5,151,1,38,23,2257783244
4820,5,ISIP_5,152,1,48,86,2258285080
4820,5,ISIP_5,153,1,38,20,2258295008
4820,5,ISIP_5,154,1,48,102,2258830576
4820,5,ISIP_5,155,1,38,24,2258840500
4820,5,ISIP_5,156,1,48,124,2259370380
4820,5,ISIP_5,157,1,38,24,2259380236
4820,5,ISIP_5,158,1,48,127,2259895904
4820,5,ISIP_5,159,1,38,24,2259906060
4820,5,ISIP_5,160,1,48,124,2260432424
4820,5,ISIP_5,161,1,38,23,2260442500
4820,5,ISIP_5,162,1,48,114,2260989732
4820,5,ISIP_5,163,1,38,23,2260999664
4820,5,ISIP_5,164,1,48,113,2261519748
4820,5,ISIP_5,165,1,48,93,2262080472
4820,5,ISIP_5,166,1,38,21,2262090400
4820,5,ISIP_5,167,1,48,94,2262613180
4820,5,ISIP_5,168,1,38,21,2262623068
4820,5,ISIP_5,169,1,48,112,2263158864
4820,5,ISIP_5,170,1,38,23,2263169008
4820,5,ISIP_5,171,1,48,112,2263673912
4820,5,ISIP_5,172,1,38,22,2263683912
4820,5,ISIP_5,173,1,48,127,2264220304
4820,5,ISIP_5,174,1,48,124,2264742804
4820,5,ISIP_5,175,1,48,82,2265294716
4820,5,ISIP_5,176,1,38,19,2265304724
4820,5,ISIP_5,177,1,48,116,2265848144
4820,5,ISIP_5,178,1,38,24,2265858596
4820,5,ISIP_5,179,1,48,127,2266388324
4820,5,ISIP_5,180,1,38,25,2266398252
4820,5,ISIP_5,181,1,48,122,2266925220
4820,5,ISIP_5,182,1,38,24,2266935292
4820,5,ISIP_5,183,1,48,117,2267486372
4820,5,ISIP_5,184,1,38,24,2267496220
4820,5,ISIP_5,185,1,48,116,2268030740
4820,5,ISIP_5,186,1,48,117,2268568656
4820,5,ISIP_5,187,1,48,98,2269108956
4820,5,ISIP_5,188,1,38,22,2269118812
4820,5,ISIP_5,189,1,48,110,2269674576
4820,5,ISIP_5,190,1,48,111,2270210464
4820,5,ISIP_5,191,1,38,23,2270220320
4820,5,ISIP_5,192,1,48,127,2270724920
4820,5,ISIP_5,193,1,48,90,2271268736
4820,5,ISIP_5,194,1,38,21,2271279208
4820,5,ISIP_5,195,1,48,124,2271825172
4820,5,ISIP_5,196,1,48,120,2272361008
4820,5,ISIP_5,197,1,38,23,2272371012
4820,5,ISIP_5,198,1,48,116,2272905460
4820,5,ISIP_5,199,1,48,120,2273444564
4820,5,ISIP_5,200,1,48,104,2273975376
4820,5,ISIP_5,201,1,38,22,2273985224
4820,5,ISIP_5,202,1,48,114,2274500144
4820,5,ISIP_5,203,1,48,111,2275028112
4820,5,ISIP_5,204,1,38,21,2275037964
4820,5,ISIP_5,205,1,48,105,2275562084
4820,5,ISIP_5,206,1,48,99,2276080472
4820,5,ISIP_5,207,1,48,107,2276613900
4820,5,ISIP_5,208,1,38,22,2276623300
4820,5,ISIP_5,209,1,48,86,2277125512
4820,5,ISIP_5,210,1,48,111,2277659008
4820,5,ISIP_5,211,1,48,127,2278205748
4820,5,ISIP_5,212,1,48,112,2278730716
4820,5,ISIP_5,213,1,48,96,2279266784
4820,5,ISIP_5,214,1,38,21,2279276656
4820,5,ISIP_5,215,1,48,117,2279818124
4820,5,ISIP_5,216,1,48,107,2280367708
4820,5,ISIP_5,217,1,48,88,2280901880
4820,5,ISIP_5,218,1,38,20,2280912332
4820,5,ISIP_5,219,1,48,127,2281438096
4820,5,ISIP_5,220,1,38,25,2281448100
4820,5,ISIP_5,221,1,48,127,2281964972
4820,5,ISIP_5,222,1,48,126,2282521056
4820,5,ISIP_5,223,1,48,127,2283043112
4820,5,ISIP_5,224,1,48,97,2283571072
4820,5,ISIP_5,225,1,38,22,2283581004
4820,5,ISIP_5,226,1,48,127,2284118612
4820,5,ISIP_5,227,1,38,24,2284128540
4820,5,ISIP_5,228,1,48,104,2284656476
4820,5,ISIP_5,229,1,38,23,2284666932
4820,5,ISIP_5,230,1,48,127,2285181028
4820,5,ISIP_5,231,1,48,127,2285721552
4820,5,ISIP_5,232,1,48,112,2286283492
4820,5,ISIP_5,233,1,38,24,2286293572
4820,5,ISIP_5,234,1,48,123,2286833704
4820,5,ISIP_5,235,1,48,118,2287376172
4820,5,ISIP_5,236,1,38,23,2287386632
4820,5,ISIP_5,237,1,48,111,2287892272
4820,5,ISIP_5,238,1,48,86,2288452100
4820,5,ISIP_5,239,1,38,19,2288461956
4820,5,ISIP_5,240,1,48,102,2289021628
4820,5,ISIP_5,241,1,38,21,2289031412
4820,5,ISIP_5,242,1,48,114,2289558672
4820,5,ISIP_5,243,1,38,22,2289568744
4820,5,ISIP_5,244,1,48,106,2290118004
4820,5,ISIP_5,245,1,38,22,2290127936
4820,5,ISIP_5,246,1,48,89,2290659536
4820,5,ISIP_5,247,1,38,23,2290669164
4820,5,ISIP_5,248,1,48,113,2291175256
4820,5,ISIP_5,249,1,38,23,2291185188
4820,5,ISIP_5,250,1,48,127,2291674828
4820,5,ISIP_5,251,1,48,105,2292208028
4820,5,ISIP_5,252,1,48,92,2292755064
4820,5,ISIP_5,253,1,48,106,2293290744
4820,5,ISIP_5,254,1,48,127,2293810484
4820,5,ISIP_5,255,1,48,110,2294321016
4820,5,ISIP_5,256,1,38,24,2294330944
4820,5,ISIP_5,257,1,48,88,2294853196
4820,5,ISIP_5,258,1,38,21,2294863200
4820,5,ISIP_5,259,1,48,127,2295391908
4820,5,ISIP_5,0,9999,9999,9999,2215772208
4820,5,ISIP_5,1,9999,9999,9999,2216273000
4820,5,ISIP_5,2,9999,9999,9999,2216772696
4820,5,ISIP_5,3,9999,9999,9999,2217272392
4820,5,ISIP_5,4,9999,9999,9999,2217772084
4820,5,ISIP_5,5,9999,9999,9999,2218272856
4820,5,ISIP_5,6,9999,9999,9999,2218772552
4820,5,ISIP_5,7,9999,9999,9999,2219272244
4820,5,ISIP_5,8,9999,9999,9999,2219772984
4820,5,ISIP_5,9,9999,9999,9999,2220272756
4820,5,ISIP_5,10,9999,9999,9999,2220772404
4820,5,ISIP_5,11,9999,9999,9999,2221272172
4820,5,ISIP_5,12,9999,9999,9999,2221772912
4820,5,ISIP_5,13,9999,9999,9999,2222272632
4820,5,ISIP_5,14,9999,9999,9999,2222772328
4820,5,ISIP_5,15,9999,9999,9999,2223273068
4820,5,ISIP_5,16,9999,9999,9999,2223772792
4820,5,ISIP_5,17,9999,9999,9999,2224272440
4820,5,ISIP_5,18,9999,9999,9999,2224772164
4820,5,ISIP_5,19,9999,9999,9999,2225272904
4820,5,ISIP_5,20,9999,9999,9999,2225772600
4820,5,ISIP_5,21,9999,9999,9999,2226272368
4820,5,ISIP_5,22,9999,9999,9999,2226773088
4820,5,ISIP_5,23,9999,9999,9999,2227272780
4820,5,ISIP_5,24,9999,9999,9999,2227772476
4820,5,ISIP_5,25,9999,9999,9999,2228272248
4820,5,ISIP_5,26,9999,9999,9999,2228772912
4820,5,ISIP_5,27,9999,9999,9999,2229272632
4820,5,ISIP_5,28,9999,9999,9999,2229772404
4820,5,ISIP_5,29,9999,9999,9999,2230272048
4820,5,ISIP_5,30,9999,9999,9999,2230772792
4820,5,ISIP_5,31,9999,9999,9999,2231272560
4820,5,ISIP_5,32,9999,9999,9999,2231772256
4820,5,ISIP_5,33,9999,9999,9999,2232272996
4820,5,ISIP_5,34,9999,9999,9999,2232772692
4820,5,ISIP_5,35,9999,9999,9999,2233272388
4820,5,ISIP_5,36,9999,9999,9999,2233772080
4820,5,ISIP_5,37,9999,9999,9999,2234272824
4820,5,ISIP_5,38,9999,9999,9999,2234772592
4820,5,ISIP_5,39,9999,9999,9999,2235272288
4820,5,ISIP_5,40,9999,9999,9999,2235773028
4820,5,ISIP_5,41,9999,9999,9999,2236272720
4820,5,ISIP_5,42,9999,9999,9999,2236772412
4820,5,ISIP_5,43,9999,9999,9999,2237272132
4820,5,ISIP_5,44,9999,9999,9999,2237772916
4820,5,ISIP_5,45,9999,9999,9999,2238272608
4820,5,ISIP_5,46,9999,9999,9999,2238772300
4820,5,ISIP_5,47,9999,9999,9999,2239273036
4820,5,ISIP_5,48,9999,9999,9999,2239772728
4820,5,ISIP_5,49,9999,9999,9999,2240272492
4820,5,ISIP_5,50,9999,9999,9999,2240772184
4820,5,ISIP_5,51,9999,9999,9999,2241272920
4820,5,ISIP_5,52,9999,9999,9999,2241772612
4820,5,ISIP_5,53,9999,9999,9999,2242272328
4820,5,ISIP_5,54,9999,9999,9999,2242773096
4820,5,ISIP_5,55,9999,9999,9999,2243272812
4820,5,ISIP_5,56,9999,9999,9999,2243772504
4820,5,ISIP_5,57,9999,9999,9999,2244272196
4820,5,ISIP_5,58,9999,9999,9999,2244772932
4820,5,ISIP_5,59,9999,9999,9999,2245272696
4820,5,ISIP_5,60,9999,9999,9999,2245772340
4820,5,ISIP_5,61,9999,9999,9999,2246272056
4820,5,ISIP_5,62,9999,9999,9999,2246772820
4820,5,ISIP_5,63,9999,9999,9999,2247272528
4820,5,ISIP_5,64,9999,9999,9999,2247772272
4820,5,ISIP_5,65,9999,9999,9999,2248272956
4820,5,ISIP_5,66,9999,9999,9999,2248772720
4820,5,ISIP_5,67,9999,9999,9999,2249272416
4820,5,ISIP_5,68,9999,9999,9999,2249772108
4820,5,ISIP_5,69,9999,9999,9999,2250272872
4820,5,ISIP_5,70,9999,9999,9999,2250772528
4820,5,ISIP_5,71,9999,9999,9999,2251272292
4820,5,ISIP_5,72,9999,9999,9999,2251772984
4820,5,ISIP_5,73,9999,9999,9999,2252272700
4820,5,ISIP_5,74,9999,9999,9999,2252772464
4820,5,ISIP_5,75,9999,9999,9999,2253272184
4820,5,ISIP_5,76,9999,9999,9999,2253772872
4820,5,ISIP_5,77,9999,9999,9999,2254272592
4820,5,ISIP_5,78,9999,9999,9999,2254772308
4820,5,ISIP_5,79,9999,9999,9999,2255273044
4820,5,ISIP_5,80,9999,9999,9999,2255772764
4820,5,ISIP_5,81,9999,9999,9999,2256272448
4820,5,ISIP_5,82,9999,9999,9999,2256772180
4820,5,ISIP_5,83,9999,9999,9999,2257272884
4820,5,ISIP_5,84,9999,9999,9999,2257772644
4820,5,ISIP_5,85,9999,9999,9999,2258272348
4820,5,ISIP_5,86,9999,9999,9999,2258773088
4820,5,ISIP_5,87,9999,9999,9999,2259272804
4820,5,ISIP_5,88,9999,9999,9999,2259772520
4820,5,ISIP_5,89,9999,9999,9999,2260272240
4820,5,ISIP_5,90,9999,9999,9999,2260772932
4820,5,ISIP_5,91,9999,9999,9999,2261272652
4820,5,ISIP_5,92,9999,9999,9999,2261772340
4820,5,ISIP_5,93,9999,9999,9999,2262272060
4820,5,ISIP_5,94,9999,9999,9999,2262772836
4820,5,ISIP_5,95,9999,9999,9999,2263272556
4820,5,ISIP_5,96,9999,9999,9999,2263772228
4820,5,ISIP_5,97,9999,9999,9999,2264272952
4820,5,ISIP_5,98,9999,9999,9999,2264772716
4820,5,ISIP_5,99,9999,9999,9999,2265272412
4820,5,ISIP_5,100,9999,9999,9999,2265772132
4820,5,ISIP_5,101,9999,9999,9999,2266272820
4820,5,ISIP_5,102,9999,9999,9999,2266772536
4820,5,ISIP_5,103,9999,9999,9999,2267272256
4820,5,ISIP_5,104,9999,9999,9999,2267773020
4820,5,ISIP_5,105,9999,9999,9999,2268272712
4820,5,ISIP_5,106,9999,9999,9999,2268772404
4820,5,ISIP_5,107,9999,9999,9999,2269272120
4820,5,ISIP_5,108,9999,9999,9999,2269772864
4820,5,ISIP_5,109,9999,9999,9999,2270272592
4820,5,ISIP_5,110,9999,9999,9999,2270772332
4820,5,ISIP_5,111,9999,9999,9999,2271273068
4820,5,ISIP_5,112,9999,9999,9999,2271772792
4820,5,ISIP_5,113,9999,9999,9999,2272272484
4820,5,ISIP_5,114,9999,9999,9999,2272772200
4820,5,ISIP_5,115,9999,9999,9999,2273272936
4820,5,ISIP_5,116,9999,9999,9999,2273772628
4820,5,ISIP_5,117,9999,9999,9999,2274272344
4820,5,ISIP_5,118,9999,9999,9999,2274773084
4820,5,ISIP_5,119,9999,9999,9999,2275272800
4820,5,ISIP_5,120,9999,9999,9999,2275772492
4820,5,ISIP_5,121,9999,9999,9999,2276272184
4820,5,ISIP_5,122,9999,9999,9999,2276772948
4820,5,ISIP_5,123,9999,9999,9999,2277272636
4820,5,ISIP_5,124,9999,9999,9999,2277772400
4820,5,ISIP_5,125,9999,9999,9999,2278272108
4820,5,ISIP_5,126,9999,9999,9999,2278772844
4820,5,ISIP_5,127,9999,9999,9999,2279272536
4820,5,ISIP_5,128,9999,9999,9999,2279772260
4820,5,ISIP_5,129,9999,9999,9999,2280272972
4820,5,ISIP_5,130,9999,9999,9999,2280772664
4820,5,ISIP_5,131,9999,9999,9999,2281272380
4820,5,ISIP_5,132,9999,9999,9999,2281772100
4820,5,ISIP_5,133,9999,9999,9999,2282272836
4820,5,ISIP_5,134,9999,9999,9999,2282772600
4820,5,ISIP_5,135,9999,9999,9999,2283272288
4820,5,ISIP_5,136,9999,9999,9999,2283772980
4820,5,ISIP_5,137,9999,9999,9999,2284272700
4820,5,ISIP_5,138,9999,9999,9999,2284772416
4820,5,ISIP_5,139,9999,9999,9999,2285272124
4820,5,ISIP_5,140,9999,9999,9999,2285772860
4820,5,ISIP_5,141,9999,9999,9999,2286272632
4820,5,ISIP_5,142,9999,9999,9999,2286772276
4820,5,ISIP_5,143,9999,9999,9999,2287273012
4820,5,ISIP_5,144,9999,9999,9999,2287772728
4820,5,ISIP_5,145,9999,9999,9999,2288272496
4820,5,ISIP_5,146,9999,9999,9999,2288772212
4820,5,ISIP_5,147,9999,9999,9999,2289272904
4820,5,ISIP_5,148,9999,9999,9999,2289772620
4820,5,ISIP_5,149,9999,9999,9999,2290272340
4820,5,ISIP_5,150,9999,9999,9999,2290773104
4820,5,ISIP_5,151,9999,9999,9999,2291272824
4820,5,ISIP_5,152,9999,9999,9999,2291772488
4820,5,ISIP_5,153,9999,9999,9999,2292272196
4820,5,ISIP_5,154,9999,9999,9999,2292772932
4820,5,ISIP_5,155,9999,9999,9999,2293272628
4820,5,ISIP_5,156,9999,9999,9999,2293772392
4820,5,ISIP_5,157,9999,9999,9999,2294272084
4820,5,ISIP_5,158,9999,9999,9999,2294772848
4820,5,ISIP_5,159,9999,9999,9999,2295272564
4821,3,ISIP_8,0,5,42,127,2319160732
4821,3,ISIP_8,1,5,42,127,2319960512
4821,3,ISIP_8,2,1,48,86,2320131256
4821,3,ISIP_8,3,5,42,127,2320761216
4821,3,ISIP_8,4,1,48,93,2320790292
4821,3,ISIP_8,5,1,48,94,2321530692
4821,3,ISIP_8,6,5,42,127,2321560944
4821,3,ISIP_8,7,1,48,107,2322322500
4821,3,ISIP_8,8,5,42,127,2322360676
4821,3,ISIP_8,9,1,48,124,2323080420
4821,3,ISIP_8,10,5,42,127,2323160636
4821,3,ISIP_8,11,1,48,99,2323902892
4821,3,ISIP_8,12,1,38,21,2323912296
4821,3,ISIP_8,13,5,42,127,2323961100
4821,3,ISIP_8,14,1,48,87,2324696296
4821,3,ISIP_8,15,5,42,127,2324760880
4821,3,ISIP_8,16,1,48,71,2325531932
4821,3,ISIP_8,17,5,42,127,2325560612
4821,3,ISIP_8,18,1,48,93,2326333232
4821,3,ISIP_8,19,5,42,127,2326360444
4821,3,ISIP_8,20,1,48,101,2327155580
4821,3,ISIP_8,21,5,42,127,2327161148
4821,3,ISIP_8,22,1,38,21,2327165244
4821,3,ISIP_8,23,1,48,98,2327957448
4821,3,ISIP_8,24,5,42,127,2327961072
4821,3,ISIP_8,25,5,42,127,2328760660
4821,3,ISIP_8,26,1,48,100,2328789436
4821,3,ISIP_8,27,1,38,21,2328799368
4821,3,ISIP_8,28,5,42,127,2329560572
4821,3,ISIP_8,29,1,48,100,2329626520
4821,3,ISIP_8,30,1,38,21,2329636004
4821,3,ISIP_8,31,1,48,110,2330328208
4821,3,ISIP_8,32,1,38,23,2330338132
4821,3,ISIP_8,33,5,42,127,2330361428
4821,3,ISIP_8,34,1,48,116,2331157812
4821,3,ISIP_8,35,5,42,127,2331160908
4821,3,ISIP_8,36,1,38,22,2331168068
4821,3,ISIP_8,37,5,42,127,2331960616
4821,3,ISIP_8,38,1,48,105,2331987916
4821,3,ISIP_8,39,5,42,127,2332760596
4821,3,ISIP_8,40,1,48,102,2332785484
4821,3,ISIP_8,41,5,42,127,2333561452
4821,3,ISIP_8,42,1,48,103,2333565768
4821,3,ISIP_8,43,5,42,127,2334361040
4821,3,ISIP_8,44,1,48,120,2334372536
4821,3,ISIP_8,45,1,38,24,2334382540
4821,3,ISIP_8,46,1,48,95,2335144232
4821,3,ISIP_8,47,1,38,20,2335154156
4821,3,ISIP_8,48,5,42,127,2335160700
4821,3,ISIP_8,49,1,48,89,2335911452
4821,3,ISIP_8,50,1,38,20,2335921460
4821,3,ISIP_8,51,5,42,127,2335960460
4821,3,ISIP_8,52,1,48,99,2336715628
4821,3,ISIP_8,53,1,38,21,2336725112
4821,3,ISIP_8,54,5,42,127,2336761268
4821,3,ISIP_8,55,1,48,87,2337524144
4821,3,ISIP_8,56,1,38,21,2337533544
4821,3,ISIP_8,57,5,42,127,2337560880
4821,3,ISIP_8,58,1,48,111,2338326824
4821,3,ISIP_8,59,1,38,24,2338336828
4821,3,ISIP_8,60,5,42,127,2338360568
4821,3,ISIP_8,61,1,48,101,2339114612
4821,3,ISIP_8,62,1,38,22,2339123944
4821,3,ISIP_8,63,5,42,127,2339160352
4821,3,ISIP_8,64,1,48,92,2339955768
4821,3,ISIP_8,65,5,42,127,2339961256
4821,3,ISIP_8,66,1,38,22,2339965500
4821,3,ISIP_8,67,5,42,127,2340761184
4821,3,ISIP_8,68,1,48,120,2340777844
4821,3,ISIP_8,69,1,38,23,2340787772
4821,3,ISIP_8,70,5,42,127,2341560796
4821,3,ISIP_8,71,1,48,98,2341574460
4821,3,ISIP_8,72,1,38,22,2341584316
4821,3,ISIP_8,73,5,42,127,2342360336
4821,3,ISIP_8,74,1,48,84,2342388888
4821,3,ISIP_8,75,1,48,97,2343164452
4821,3,ISIP_8,76,1,48,99,2344075732
4821,3,ISIP_8,77,1,38,21,2344085060
4821,3,ISIP_8,78,1,48,87,2344915504
4821,3,ISIP_8,79,1,48,106,2345795488
4821,3,ISIP_8,80,1,48,111,2346638248
4821,3,ISIP_8,81,1,38,22,2346648256
4821,3,ISIP_8,82,1,48,122,2347509588
4821,3,ISIP_8,83,1,48,91,2348470760
4821,3,ISIP_8,84,1,48,102,2349487800
4821,3,ISIP_8,85,1,48,114,2350434924
4821,3,ISIP_8,86,1,48,93,2351398984
4821,3,ISIP_8,87,1,48,95,2352359248
4821,3,ISIP_8,88,1,48,91,2353343080
4821,3,ISIP_8,89,1,48,113,2354342924
4821,3,ISIP_8,90,1,38,23,2354352848
4821,3,ISIP_8,91,1,48,96,2355330680
4821,3,ISIP_8,92,1,48,100,2356358868
4821,3,ISIP_8,93,1,48,110,2357400968
4821,3,ISIP_8,94,1,38,24,2357411492
4821,3,ISIP_8,95,1,48,110,2358379976
4821,3,ISIP_8,96,1,48,101,2359426864
4821,3,ISIP_8,97,1,38,21,2359436868
4821,3,ISIP_8,98,1,48,86,2360406608
4821,3,ISIP_8,99,1,48,109,2361411132
4821,3,ISIP_8,100,1,48,116,2362435748
4821,3,ISIP_8,101,1,48,97,2363422792
4821,3,ISIP_8,102,1,38,21,2363432792
4821,3,ISIP_8,103,1,48,108,2364470224
4821,3,ISIP_8,104,1,48,107,2365496844
4821,3,ISIP_8,105,1,38,23,2365506772
4821,3,ISIP_8,106,1,48,106,2366482808
4821,3,ISIP_8,107,1,48,100,2367519296
4821,3,ISIP_8,108,1,48,90,2368604504
4821,3,ISIP_8,109,1,38,21,2368614352
4821,3,ISIP_8,110,1,48,100,2369605400
4821,3,ISIP_8,111,1,48,102,2370634560
4821,3,ISIP_8,112,1,38,21,2370644748
4821,3,ISIP_8,113,1,48,105,2371664236
4821,3,ISIP_8,114,1,38,21,2371674240
4821,3,ISIP_8,115,1,48,108,2372656444
4821,3,ISIP_8,116,1,38,22,2372666672
4821,3,ISIP_8,117,1,48,92,2373733160
4821,3,ISIP_8,118,1,48,117,2374789772
4821,3,ISIP_8,119,1,48,100,2375801208
4821,3,ISIP_8,120,1,48,111,2376926120
4821,3,ISIP_8,121,1,48,111,2378075728
4821,3,ISIP_8,122,1,48,121,2379113188
4821,3,ISIP_8,123,1,48,97,2380251568
4821,3,ISIP_8,124,1,48,127,2381400428
4821,3,ISIP_8,125,1,48,79,2382490936
4821,3,ISIP_8,126,1,48,105,2383587036
4821,3,ISIP_8,127,1,48,127,2384698024
4821,3,ISIP_8,128,1,48,111,2385825580
4821,3,ISIP_8,129,1,48,112,2386941280
4821,3,ISIP_8,130,1,48,127,2388091424
4821,3,ISIP_8,131,1,48,108,2389179152
4821,3,ISIP_8,132,1,38,22,2389189528
4821,3,ISIP_8,133,1,48,127,2390218064
4821,3,ISIP_8,134,1,48,121,2391315900
4821,3,ISIP_8,135,1,48,103,2392416444
4821,3,ISIP_8,136,1,48,110,2393596776
4821,3,ISIP_8,137,1,48,117,2394694828
4821,3,ISIP_8,138,1,48,79,2395813540
4821,3,ISIP_8,139,1,38,18,2395823396
4821,3,ISIP_8,140,1,48,19,2396327468
4821,3,ISIP_8,141,1,48,97,2396959476
4821,3,ISIP_8,142,1,48,127,2398009728
4821,3,ISIP_8,143,1,48,117,2399073920
4821,3,ISIP_8,144,1,38,24,2399083924
4821,3,ISIP_8,145,1,48,127,2400149340
4821,3,ISIP_8,146,1,48,123,2401271772
4821,3,ISIP_8,147,1,48,100,2402320156
4821,3,ISIP_8,148,1,48,113,2403437916
4821,3,ISIP_8,149,1,48,124,2404513744
4821,3,ISIP_8,150,1,48,115,2405577924
4821,3,ISIP_8,151,1,48,127,2406655624
4821,3,ISIP_8,152,1,48,106,2407753000
4821,3,ISIP_8,153,1,48,127,2408894168
4821,3,ISIP_8,154,1,48,127,2409955116
4821,3,ISIP_8,155,1,48,98,2411092752
4821,3,ISIP_8,156,1,48,103,2412197028
4821,3,ISIP_8,157,1,48,95,2413307044
4821,3,ISIP_8,158,1,48,127,2414405856
4821,3,ISIP_8,159,1,48,107,2415495400
4821,3,ISIP_8,160,1,48,127,2416539816
4821,3,ISIP_8,161,1,48,107,2417615288
4821,3,ISIP_8,162,1,48,127,2418704512
4821,3,ISIP_8,163,1,48,119,2419783108
4821,3,ISIP_8,164,1,48,118,2420889492
4821,3,ISIP_8,165,1,38,24,2420899496
4821,3,ISIP_8,166,1,48,93,2421971488
4821,3,ISIP_8,167,1,48,92,2423056596
4821,3,ISIP_8,168,1,48,127,2424098628
4821,3,ISIP_8,169,1,48,127,2425119560
4821,3,ISIP_8,170,1,48,127,2426156576
4821,3,ISIP_8,171,1,48,127,2427229152
4821,3,ISIP_8,172,1,48,127,2428292348
4821,3,ISIP_8,173,1,48,114,2429364964
4821,3,ISIP_8,174,1,48,90,2430461228
4821,3,ISIP_8,175,1,48,127,2431537956
4821,3,ISIP_8,176,1,48,127,2432566892
4821,3,ISIP_8,177,1,48,92,2433586864
4821,3,ISIP_8,178,1,48,123,2434660704
4821,3,ISIP_8,179,1,48,119,2435683356
4821,3,ISIP_8,180,1,38,25,2435693280
4821,3,ISIP_8,181,1,48,127,2436797604
4821,3,ISIP_8,182,1,48,121,2437885104
4821,3,ISIP_8,183,1,48,100,2439016980
4821,3,ISIP_8,0,9999,9999,9999,2319158372
4821,3,ISIP_8,1,9999,9999,9999,2319958076
4821,3,ISIP_8,2,9999,9999,9999,2320758856
4821,3,ISIP_8,3,9999,9999,9999,2321558584
4821,3,ISIP_8,4,9999,9999,9999,2322358392
4821,3,ISIP_8,5,9999,9999,9999,2323158124
4821,3,ISIP_8,6,9999,9999,9999,2323958884
4821,3,ISIP_8,7,9999,9999,9999,2324758588
4821,3,ISIP_8,8,9999,9999,9999,2325558324
4821,3,ISIP_8,9,9999,9999,9999,2326358084
4821,3,ISIP_8,10,9999,9999,9999,2327158860
4821,3,ISIP_8,11,9999,9999,9999,2327958636
4821,3,ISIP_8,12,9999,9999,9999,2328758372
4821,3,ISIP_8,13,9999,9999,9999,2329558132
4821,3,ISIP_8,14,9999,9999,9999,2330358844
4821,3,ISIP_8,15,9999,9999,9999,2331158620
4821,3,ISIP_8,16,9999,9999,9999,2331958328
4821,3,ISIP_8,17,9999,9999,9999,2332758084
4821,3,ISIP_8,18,9999,9999,9999,2333558868
4821,3,ISIP_8,19,9999,9999,9999,2334358600
4821,3,ISIP_8,20,9999,9999,9999,2335158336
4821,3,ISIP_8,21,9999,9999,9999,2335958100
4821,3,ISIP_8,22,9999,9999,9999,2336758832
4821,3,ISIP_8,23,9999,9999,9999,2337558592
4821,3,ISIP_8,24,9999,9999,9999,2338358356
4821,3,ISIP_8,25,9999,9999,9999,2339158064
4821,3,ISIP_8,26,9999,9999,9999,2339958892
4821,3,ISIP_8,27,9999,9999,9999,2340758600
4821,3,ISIP_8,28,9999,9999,9999,2341558360
4821,3,ISIP_8,29,9999,9999,9999,2342358120
4821,3,ISIP_8,30,9999,9999,9999,2343158900
4821,3,ISIP_8,31,9999,9999,9999,2343958628
4821,3,ISIP_8,32,9999,9999,9999,2344758384
4821,3,ISIP_8,33,9999,9999,9999,2345558064
4821,3,ISIP_8,34,9999,9999,9999,2346358840
4821,3,ISIP_8,35,9999,9999,9999,2347158596
4821,3,ISIP_8,36,9999,9999,9999,2347958328
4821,3,ISIP_8,37,9999,9999,9999,2348758132
4821,3,ISIP_8,38,9999,9999,9999,2349558848
4821,3,ISIP_8,39,9999,9999,9999,2350358584
4821,3,ISIP_8,40,9999,9999,9999,2351158388
4821,3,ISIP_8,41,9999,9999,9999,2351958068
4821,3,ISIP_8,42,9999,9999,9999,2352758844
4821,3,ISIP_8,43,9999,9999,9999,2353558648
4821,3,ISIP_8,44,9999,9999,9999,2354358372
4821,3,ISIP_8,45,9999,9999,9999,2355158080
4821,3,ISIP_8,46,9999,9999,9999,2355958856
4821,3,ISIP_8,47,9999,9999,9999,2356758588
4821,3,ISIP_8,48,9999,9999,9999,2357558344
4821,3,ISIP_8,49,9999,9999,9999,2358358120
4821,3,ISIP_8,50,9999,9999,9999,2359158896
4821,3,ISIP_8,51,9999,9999,9999,2359958576
4821,3,ISIP_8,52,9999,9999,9999,2360758380
4821,3,ISIP_8,53,9999,9999,9999,2361558108
4821,3,ISIP_8,54,9999,9999,9999,2362358832
4821,3,ISIP_8,55,9999,9999,9999,2363158636
4821,3,ISIP_8,56,9999,9999,9999,2363958392
4821,3,ISIP_8,57,9999,9999,9999,2364758072
4821,3,ISIP_8,58,9999,9999,9999,2365558844
4821,3,ISIP_8,59,9999,9999,9999,2366358624
4821,3,ISIP_8,60,9999,9999,9999,2367158352
4821,3,ISIP_8,61,9999,9999,9999,2367958084
4821,3,ISIP_8,62,9999,9999,9999,2368758884
4821,3,ISIP_8,63,9999,9999,9999,2369558636
4821,3,ISIP_8,64,9999,9999,9999,2370358364
4821,3,ISIP_8,65,9999,9999,9999,2371158084
4821,3,ISIP_8,66,9999,9999,9999,2371958888
4821,3,ISIP_8,67,9999,9999,9999,2372758596
4821,3,ISIP_8,68,9999,9999,9999,2373558320
4821,3,ISIP_8,69,9999,9999,9999,2374358124
4821,3,ISIP_8,70,9999,9999,9999,2375158900
4821,3,ISIP_8,71,9999,9999,9999,2375958628
4821,3,ISIP_8,72,9999,9999,9999,2376758380
4821,3,ISIP_8,73,9999,9999,9999,2377558136
4821,3,ISIP_8,74,9999,9999,9999,2378358836
4821,3,ISIP_8,75,9999,9999,9999,2379158580
4821,3,ISIP_8,76,9999,9999,9999,2379958392
4821,3,ISIP_8,77,9999,9999,9999,2380758120
4821,3,ISIP_8,78,9999,9999,9999,2381558896
4821,3,ISIP_8,79,9999,9999,9999,2382358576
4821,3,ISIP_8,80,9999,9999,9999,2383158376
4821,3,ISIP_8,81,9999,9999,9999,2383958132
4821,3,ISIP_8,82,9999,9999,9999,2384758848
4821,3,ISIP_8,83,9999,9999,9999,2385558584
4821,3,ISIP_8,84,9999,9999,9999,2386358388
4821,3,ISIP_8,85,9999,9999,9999,2387158120
4821,3,ISIP_8,86,9999,9999,9999,2387958844
4821,3,ISIP_8,87,9999,9999,9999,2388758644
4821,3,ISIP_8,88,9999,9999,9999,2389558328
4821,3,ISIP_8,89,9999,9999,9999,2390358084
4821,3,ISIP_8,90,9999,9999,9999,2391158880
4821,3,ISIP_8,91,9999,9999,9999,2391958608
4821,3,ISIP_8,92,9999,9999,9999,2392758340
4821,3,ISIP_8,93,9999,9999,9999,2393558088
4821,3,ISIP_8,94,9999,9999,9999,2394358864
4821,3,ISIP_8,95,9999,9999,9999,2395158592
4821,3,ISIP_8,96,9999,9999,9999,2395958348
4821,3,ISIP_8,97,9999,9999,9999,2396758104
4821,3,ISIP_8,98,9999,9999,9999,2397558880
4821,3,ISIP_8,99,9999,9999,9999,2398358612
4821,3,ISIP_8,100,9999,9999,9999,2399158336
4821,3,ISIP_8,101,9999,9999,9999,2399958116
4821,3,ISIP_8,102,9999,9999,9999,2400758892
4821,3,ISIP_8,103,9999,9999,9999,2401558624
4821,3,ISIP_8,104,9999,9999,9999,2402358368
4821,3,ISIP_8,105,9999,9999,9999,2403158128
4821,3,ISIP_8,106,9999,9999,9999,2403958904
4821,3,ISIP_8,107,9999,9999,9999,2404758632
4821,3,ISIP_8,108,9999,9999,9999,2405558384
4821,3,ISIP_8,109,9999,9999,9999,2406358112
4821,3,ISIP_8,110,9999,9999,9999,2407158888
4821,3,ISIP_8,111,9999,9999,9999,2407958616
4821,3,ISIP_8,112,9999,9999,9999,2408758368
4821,3,ISIP_8,113,9999,9999,9999,2409558120
4821,3,ISIP_8,114,9999,9999,9999,2410358896
4821,3,ISIP_8,115,9999,9999,9999,2411158640
4821,3,ISIP_8,116,9999,9999,9999,2411958376
4821,3,ISIP_8,117,9999,9999,9999,2412758108
4821,3,ISIP_8,118,9999,9999,9999,2413558884
4821,3,ISIP_8,119,9999,9999,9999,2414358636
4821,3,ISIP_8,120,9999,9999,9999,2415158364
4821,3,ISIP_8,121,9999,9999,9999,2415958120
4821,3,ISIP_8,122,9999,9999,9999,2416758896
4821,3,ISIP_8,123,9999,9999,9999,2417558648
4821,3,ISIP_8,124,9999,9999,9999,2418358376
4821,3,ISIP_8,125,9999,9999,9999,2419158104
4821,3,ISIP_8,126,9999,9999,9999,2419958880
4821,3,ISIP_8,127,9999,9999,9999,2420758632
4821,3,ISIP_8,128,9999,9999,9999,2421558388
4821,3,ISIP_8,129,9999,9999,9999,2422358068
4821,3,ISIP_8,130,9999,9999,9999,2423158840
4821,3,ISIP_8,131,9999,9999,9999,2423958592
4821,3,ISIP_8,132,9999,9999,9999,2424758320
4821,3,ISIP_8,133,9999,9999,9999,2425558124
4821,3,ISIP_8,134,9999,9999,9999,2426358904
4821,3,ISIP_8,135,9999,9999,9999,2427158580
4821,3,ISIP_8,136,9999,9999,9999,2427958384
4821,3,ISIP_8,137,9999,9999,9999,2428758136
4821,3,ISIP_8,138,9999,9999,9999,2429558836
4821,3,ISIP_8,139,9999,9999,9999,2430358588
4821,3,ISIP_8,140,9999,9999,9999,2431158392
4821,3,ISIP_8,141,9999,9999,9999,2431958120
4821,3,ISIP_8,142,9999,9999,9999,2432758896
4821,3,ISIP_8,143,9999,9999,9999,2433558572
4821,3,ISIP_8,144,9999,9999,9999,2434358376
4821,3,ISIP_8,145,9999,9999,9999,2435158132
4821,3,ISIP_8,146,9999,9999,9999,2435958860
4821,3,ISIP_8,147,9999,9999,9999,2436758612
4821,3,ISIP_8,148,9999,9999,9999,2437558340
4821,3,ISIP_8,149,9999,9999,9999,2438358072
4822,11,Pattern_Practice,0,5,42,127,2558560508
4822,11,Pattern_Practice,1,5,42,127,2559061492
4822,11,Pattern_Practice,2,1,48,81,2559503780
4822,11,Pattern_Practice,3,5,42,127,2559561056
4822,11,Pattern_Practice,4,1,48,106,2560037504
4822,11,Pattern_Practice,5,1,38,22,2560047584
4822,11,Pattern_Practice,6,5,42,127,2560060856
4822,11,Pattern_Practice,7,5,42,127,2560560676
4822,11,Pattern_Practice,8,1,48,108,2560571652
4822,11,Pattern_Practice,9,5,42,127,2561061272
4822,11,Pattern_Practice,10,1,48,103,2561073520
4822,11,Pattern_Practice,11,5,42,127,2561560820
4822,11,Pattern_Practice,12,1,48,95,2561601112
4822,11,Pattern_Practice,13,5,42,127,2562060884
4822,11,Pattern_Practice,14,1,48,80,2562092352
4822,11,Pattern_Practice,15,5,42,127,2562561404
4822,11,Pattern_Practice,16,1,48,95,2562579328
4822,11,Pattern_Practice,17,1,38,21,2562589184
4822,11,Pattern_Practice,18,5,42,127,2563061048
4822,11,Pattern_Practice,19,1,48,93,2563083236
4822,11,Pattern_Practice,20,1,38,21,2563093244
4822,11,Pattern_Practice,21,5,42,127,2563560920
4822,11,Pattern_Practice,22,1,48,91,2563572488
4822,11,Pattern_Practice,23,1,38,21,2563582420
4822,11,Pattern_Practice,24,1,48,69,2563610748
4822,11,Pattern_Practice,25,5,42,127,2564060396
4822,11,Pattern_Practice,26,1,48,98,2564070320
4822,11,Pattern_Practice,27,1,38,21,2564080324
4822,11,Pattern_Practice,28,5,42,127,2564561400
4822,11,Pattern_Practice,29,1,48,104,2564592048
4822,11,Pattern_Practice,30,1,38,22,2564601976
4822,11,Pattern_Practice,31,1,48,74,2564626492
4822,11,Pattern_Practice,32,5,42,127,2565060876
4822,11,Pattern_Practice,33,1,48,90,2565092192
4822,11,Pattern_Practice,34,5,42,127,2565560720
4822,11,Pattern_Practice,35,1,48,88,2565565260
4822,11,Pattern_Practice,36,1,48,48,2565632412
4822,11,Pattern_Practice,37,5,42,127,2566061292
4822,11,Pattern_Practice,38,1,48,83,2566072864
4822,11,Pattern_Practice,39,1,48,62,2566547484
4822,11,Pattern_Practice,40,1,38,19,2566558532
4822,11,Pattern_Practice,41,5,42,127,2566561108
4822,11,Pattern_Practice,42,1,48,84,2566592408
4822,11,Pattern_Practice,43,1,48,76,2567055112
4822,11,Pattern_Practice,44,5,42,127,2567060976
4822,11,Pattern_Practice,45,1,48,89,2567516136
4822,11,Pattern_Practice,46,5,42,127,2567560672
4822,11,Pattern_Practice,47,1,48,75,2567579556
4822,11,Pattern_Practice,48,1,38,22,2567588664
4822,11,Pattern_Practice,49,1,48,77,2568041496
4822,11,Pattern_Practice,50,5,42,127,2568061420
4822,11,Pattern_Practice,51,1,48,83,2568514936
4822,11,Pattern_Practice,52,1,38,19,2568525460
4822,11,Pattern_Practice,53,5,42,127,2568561096
4822,11,Pattern_Practice,54,1,48,79,2568587316
4822,11,Pattern_Practice,55,1,38,21,2568597840
4822,11,Pattern_Practice,56,1,48,105,2569010624
4822,11,Pattern_Practice,57,1,38,22,2569020396
4822,11,Pattern_Practice,58,5,42,127,2569060624
4822,11,Pattern_Practice,59,1,48,97,2569484836
4822,11,Pattern_Practice,60,1,48,77,2569559828
4822,11,Pattern_Practice,61,5,42,127,2569561244
4822,11,Pattern_Practice,62,1,38,23,2569569376
4822,11,Pattern_Practice,63,1,48,114,2570009684
4822,11,Pattern_Practice,64,1,38,24,2570019460
4822,11,Pattern_Practice,65,5,42,127,2570061180
4822,11,Pattern_Practice,66,1,48,112,2570511724
4822,11,Pattern_Practice,67,5,42,127,2570560824
4822,11,Pattern_Practice,68,1,38,83,2570569496
4822,11,Pattern_Practice,69,1,48,82,2571018636
4822,11,Pattern_Practice,70,5,42,127,2571060704
4822,11,Pattern_Practice,71,1,48,100,2571498584
4822,11,Pattern_Practice,72,1,38,106,2571559164
4822,11,Pattern_Practice,73,5,42,127,2571562400
4822,11,Pattern_Practice,74,1,48,120,2572050516
4822,11,Pattern_Practice,75,1,38,23,2572060932
4822,11,Pattern_Practice,76,5,42,127,2572063240
4822,11,Pattern_Practice,77,1,48,101,2572512908
4822,11,Pattern_Practice,78,1,38,23,2572522460
4822,11,Pattern_Practice,79,5,42,127,2572560720
4822,11,Pattern_Practice,80,1,38,112,2572566144
4822,11,Pattern_Practice,81,1,48,112,2573039700
4822,11,Pattern_Practice,82,1,38,22,2573049624
4822,11,Pattern_Practice,83,5,42,127,2573060656
4822,11,Pattern_Practice,84,1,48,80,2573502096
4822,11,Pattern_Practice,85,1,38,19,2573512776
4822,11,Pattern_Practice,86,5,42,127,2573561200
4822,11,Pattern_Practice,87,1,48,81,2573574628
4822,11,Pattern_Practice,88,1,38,25,2573585076
4822,11,Pattern_Practice,89,1,48,115,2574025484
4822,11,Pattern_Practice,90,5,42,127,2574060972
4822,11,Pattern_Practice,91,1,38,85,2574064240
4822,11,Pattern_Practice,92,1,48,103,2574509376
4822,11,Pattern_Practice,93,1,38,21,2574519308
4822,11,Pattern_Practice,94,5,42,127,2574560628
4822,11,Pattern_Practice,95,1,48,124,2575037748
4822,11,Pattern_Practice,96,1,38,26,2575047752
4822,11,Pattern_Practice,97,5,42,127,2575061616
4822,11,Pattern_Practice,98,1,38,72,2575077592
4822,11,Pattern_Practice,99,1,48,84,2575561060
4822,11,Pattern_Practice,100,5,42,127,2575562696
4822,11,Pattern_Practice,101,1,48,103,2576018004
4822,11,Pattern_Practice,102,5,42,127,2576060824
4822,11,Pattern_Practice,103,1,38,53,2576072468
4822,11,Pattern_Practice,104,1,48,117,2576539056
4822,11,Pattern_Practice,105,5,42,127,2576560708
4822,11,Pattern_Practice,106,1,48,110,2577022448
4822,11,Pattern_Practice,107,5,42,127,2577061300
4822,11,Pattern_Practice,108,1,38,73,2577069284
4822,11,Pattern_Practice,109,1,38,64,2577089156
4822,11,Pattern_Practice,110,1,48,94,2577531656
4822,11,Pattern_Practice,111,5,42,127,2577560864
4822,11,Pattern_Practice,112,1,48,104,2578003456
4822,11,Pattern_Practice,113,1,38,95,2578036124
4822,11,Pattern_Practice,114,5,42,127,2578060616
4822,11,Pattern_Practice,115,1,48,113,2578512824
4822,11,Pattern_Practice,116,5,42,127,2578561552
4822,11,Pattern_Practice,117,1,48,104,2579019476
4822,11,Pattern_Practice,118,1,38,95,2579055508
4822,11,Pattern_Practice,119,5,42,127,2579061228
4822,11,Pattern_Practice,120,1,48,104,2579551884
4822,11,Pattern_Practice,121,5,42,127,2579560672
4822,11,Pattern_Practice,122,1,48,113,2580020960
4822,11,Pattern_Practice,123,1,38,94,2580037584
4822,11,Pattern_Practice,124,5,42,127,2580060508
4822,11,Pattern_Practice,125,1,48,127,2580531396
4822,11,Pattern_Practice,126,1,38,27,2580541320
4822,11,Pattern_Practice,127,5,42,127,2580561424
4822,11,Pattern_Practice,128,1,48,103,2581027600
4822,11,Pattern_Practice,129,1,38,118,2581045008
4822,11,Pattern_Practice,130,5,42,127,2581060924
4822,11,Pattern_Practice,131,1,48,127,2581557840
4822,11,Pattern_Practice,132,5,42,127,2581560640
4822,11,Pattern_Practice,133,1,38,26,2581568248
4822,11,Pattern_Practice,134,1,48,94,2582042316
4822,11,Pattern_Practice,135,1,38,19,2582052920
4822,11,Pattern_Practice,136,5,42,127,2582061332
4822,11,Pattern_Practice,137,1,38,47,2582069668
4822,11,Pattern_Practice,138,1,48,94,2582549572
4822,11,Pattern_Practice,139,5,42,127,2582561344
4822,11,Pattern_Practice,140,1,48,115,2583034752
4822,11,Pattern_Practice,141,5,42,127,2583060964
4822,11,Pattern_Practice,142,5,42,127,2583560520
4822,11,Pattern_Practice,143,1,48,86,2583564160
4822,11,Pattern_Practice,144,1,38,20,2583574088
4822,11,Pattern_Practice,145,5,42,127,2584061360
4822,11,Pattern_Practice,146,1,48,62,2584066576
4822,11,Pattern_Practice,147,1,48,65,2584547252
4822,11,Pattern_Practice,148,5,42,127,2584561196
4822,11,Pattern_Practice,149,5,42,127,2585060604
4822,11,Pattern_Practice,150,1,48,64,2585098284
4822,11,Pattern_Practice,151,5,42,127,2585560300
4822,11,Pattern_Practice,152,1,48,63,2585570672
4822,11,Pattern_Practice,153,5,42,127,2586061260
4822,11,Pattern_Practice,154,1,48,68,2586062228
4822,11,Pattern_Practice,155,1,38,18,2586072080
4822,11,Pattern_Practice,156,1,38,95,2586537620
4822,11,Pattern_Practice,157,5,42,127,2586561064
4822,11,Pattern_Practice,158,1,38,54,2586600224
4822,11,Pattern_Practice,159,1,38,97,2587001240
4822,11,Pattern_Practice,160,5,42,127,2587060588
4822,11,Pattern_Practice,161,1,38,127,2587432548
4822,11,Pattern_Practice,162,1,48,24,2587442328
4822,11,Pattern_Practice,163,1,38,67,2587503064
4822,11,Pattern_Practice,164,5,42,127,2587561276
4822,11,Pattern_Practice,165,1,38,82,2587926200
4822,11,Pattern_Practice,166,5,42,127,2588061180
4822,11,Pattern_Practice,167,1,38,111,2588343168
4822,11,Pattern_Practice,168,1,48,23,2588353024
4822,11,Pattern_Practice,169,1,38,60,2588402664
4822,11,Pattern_Practice,170,5,42,127,2588560816
4822,11,Pattern_Practice,171,1,38,114,2588844084
4822,11,Pattern_Practice,172,1,48,25,2588854008
4822,11,Pattern_Practice,173,5,42,127,2589060464
4822,11,Pattern_Practice,174,1,38,115,2589266016
4822,11,Pattern_Practice,175,1,38,76,2589320520
4822,11,Pattern_Practice,176,5,42,127,2589561184
4822,11,Pattern_Practice,177,1,38,121,2589755264
4822,11,Pattern_Practice,178,5,42,127,2590061028
4822,11,Pattern_Practice,179,1,38,61,2590189060
4822,11,Pattern_Practice,180,1,38,110,2590230324
4822,11,Pattern_Practice,181,1,38,79,2590246684
4822,11,Pattern_Practice,182,5,42,127,2590560604
4822,11,Pattern_Practice,183,1,38,92,2590688416
4822,11,Pattern_Practice,184,1,48,20,2590698412
4822,11,Pattern_Practice,185,5,42,127,2591061312
4822,11,Pattern_Practice,186,1,38,87,2591102428
4822,11,Pattern_Practice,187,1,38,92,2591188572
4822,11,Pattern_Practice,188,5,42,127,2591561208
4822,11,Pattern_Practice,189,1,38,102,2591589160
4822,11,Pattern_Practice,190,1,48,22,2591598488
4822,11,Pattern_Practice,191,1,38,60,2592009852
4822,11,Pattern_Practice,192,5,42,127,2592061048
4822,11,Pattern_Practice,193,1,38,61,2592091704
4822,11,Pattern_Practice,194,1,48,22,2592104100
4822,11,Pattern_Practice,195,1,38,127,2592505812
4822,11,Pattern_Practice,196,1,48,27,2592515668
4822,11,Pattern_Practice,197,5,42,127,2592560432
4822,11,Pattern_Practice,198,1,38,93,2592938740
4822,11,Pattern_Practice,199,1,38,78,2592967892
4822,11,Pattern_Practice,200,5,42,127,2593061344
4822,11,Pattern_Practice,201,1,38,127,2593416944
4822,11,Pattern_Practice,202,1,48,24,2593426800
4822,11,Pattern_Practice,203,5,42,127,2593560904
4822,11,Pattern_Practice,204,1,38,105,2593871192
4822,11,Pattern_Practice,205,1,38,104,2593919784
4822,11,Pattern_Practice,206,5,42,127,2594060576
4822,11,Pattern_Practice,207,1,38,127,2594365460
4822,11,Pattern_Practice,208,1,48,26,2594375724
4822,11,Pattern_Practice,209,5,42,127,2594561284
4822,11,Pattern_Practice,210,1,38,100,2594799216
4822,11,Pattern_Practice,211,1,38,87,2594857760
4822,11,Pattern_Practice,212,1,38,70,2594875092
4822,11,Pattern_Practice,213,5,42,127,2595061080
4822,11,Pattern_Practice,214,1,38,127,2595278000
4822,11,Pattern_Practice,215,5,42,127,2595561148
4822,11,Pattern_Practice,216,1,38,104,2595725488
4822,11,Pattern_Practice,217,1,38,60,2595778720
4822,11,Pattern_Practice,218,5,42,127,2596060452
4822,11,Pattern_Practice,219,1,38,120,2596215960
4822,11,Pattern_Practice,220,1,48,23,2596225960
4822,11,Pattern_Practice,221,5,42,127,2596561144
4822,11,Pattern_Practice,222,1,38,98,2596656416
4822,11,Pattern_Practice,223,1,38,102,2596711696
4822,11,Pattern_Practice,224,5,42,127,2597060968
4822,11,Pattern_Practice,225,1,38,114,2597134320
4822,11,Pattern_Practice,226,1,48,23,2597144100
4822,11,Pattern_Practice,227,5,42,127,2597560764
4822,11,Pattern_Practice,228,1,38,96,2597596048
4822,11,Pattern_Practice,229,1,38,84,2597688776
4822,11,Pattern_Practice,230,5,42,127,2598061336
4822,11,Pattern_Practice,231,1,38,103,2598064308
4822,11,Pattern_Practice,232,1,48,21,2598073784
4822,11,Pattern_Practice,233,1,38,29,2598138088
4822,11,Pattern_Practice,234,1,38,127,2598521216
4822,11,Pattern_Practice,235,1,48,23,2598531148
4822,11,Pattern_Practice,0,9999,9999,9999,2558558296
4822,11,Pattern_Practice,1,9999,9999,9999,2559059056
4822,11,Pattern_Practice,2,9999,9999,9999,2559558768
4822,11,Pattern_Practice,3,9999,9999,9999,2560058420
4822,11,Pattern_Practice,4,9999,9999,9999,2560558168
4822,11,Pattern_Practice,5,9999,9999,9999,2561058908
4822,11,Pattern_Practice,6,9999,9999,9999,2561558608
4822,11,Pattern_Practice,7,9999,9999,9999,2562058300
4822,11,Pattern_Practice,8,9999,9999,9999,2562559040
4822,11,Pattern_Practice,9,9999,9999,9999,2563058760
4822,11,Pattern_Practice,10,9999,9999,9999,2563558484
4822,11,Pattern_Practice,11,9999,9999,9999,2564058184
4822,11,Pattern_Practice,12,9999,9999,9999,2564558964
4822,11,Pattern_Practice,13,9999,9999,9999,2565058664
4822,11,Pattern_Practice,14,9999,9999,9999,2565558360
4822,11,Pattern_Practice,15,9999,9999,9999,2566059080
4822,11,Pattern_Practice,16,9999,9999,9999,2566558824
4822,11,Pattern_Practice,17,9999,9999,9999,2567058544
4822,11,Pattern_Practice,18,9999,9999,9999,2567558240
4822,11,Pattern_Practice,19,9999,9999,9999,2568058988
4822,11,Pattern_Practice,20,9999,9999,9999,2568558660
4822,11,Pattern_Practice,21,9999,9999,9999,2569058416
4822,11,Pattern_Practice,22,9999,9999,9999,2569558080
4822,11,Pattern_Practice,23,9999,9999,9999,2570058820
4822,11,Pattern_Practice,24,9999,9999,9999,2570558540
4822,11,Pattern_Practice,25,9999,9999,9999,2571058268
4822,11,Pattern_Practice,26,9999,9999,9999,2571559036
4822,11,Pattern_Practice,27,9999,9999,9999,2572058732
4822,11,Pattern_Practice,28,9999,9999,9999,2572558432
4822,11,Pattern_Practice,29,9999,9999,9999,2573058148
4822,11,Pattern_Practice,30,9999,9999,9999,2573558840
4822,11,Pattern_Practice,31,9999,9999,9999,2574058612
4822,11,Pattern_Practice,32,9999,9999,9999,2574558264
4822,11,Pattern_Practice,33,9999,9999,9999,2575059032
4822,11,Pattern_Practice,34,9999,9999,9999,2575558772
4822,11,Pattern_Practice,35,9999,9999,9999,2576058464
4822,11,Pattern_Practice,36,9999,9999,9999,2576558196
4822,11,Pattern_Practice,37,9999,9999,9999,2577058864
4822,11,Pattern_Practice,38,9999,9999,9999,2577558580
4822,11,Pattern_Practice,39,9999,9999,9999,2578058328
4822,11,Pattern_Practice,40,9999,9999,9999,2578559044
4822,11,Pattern_Practice,41,9999,9999,9999,2579058792
4822,11,Pattern_Practice,42,9999,9999,9999,2579558460
4822,11,Pattern_Practice,43,9999,9999,9999,2580058220
4822,11,Pattern_Practice,44,9999,9999,9999,2580558916
4822,11,Pattern_Practice,45,9999,9999,9999,2581058636
4822,11,Pattern_Practice,46,9999,9999,9999,2581558356
4822,11,Pattern_Practice,47,9999,9999,9999,2582059116
4822,11,Pattern_Practice,48,9999,9999,9999,2582558836
4822,11,Pattern_Practice,49,9999,9999,9999,2583058532
4822,11,Pattern_Practice,50,9999,9999,9999,2583558232
4822,11,Pattern_Practice,51,9999,9999,9999,2584059000
4822,11,Pattern_Practice,52,9999,9999,9999,2584558688
4822,11,Pattern_Practice,53,9999,9999,9999,2585058392
4822,11,Pattern_Practice,54,9999,9999,9999,2585558088
4822,11,Pattern_Practice,55,9999,9999,9999,2586058828
4822,11,Pattern_Practice,56,9999,9999,9999,2586558556
4822,11,Pattern_Practice,57,9999,9999,9999,2587058228
4822,11,Pattern_Practice,58,9999,9999,9999,2587558988
4822,11,Pattern_Practice,59,9999,9999,9999,2588058744
4822,11,Pattern_Practice,60,9999,9999,9999,2588558456
4822,11,Pattern_Practice,61,9999,9999,9999,2589058104
4822,11,Pattern_Practice,62,9999,9999,9999,2589558900
4822,11,Pattern_Practice,63,9999,9999,9999,2590058592
4822,11,Pattern_Practice,64,9999,9999,9999,2590558320
4822,11,Pattern_Practice,65,9999,9999,9999,2591059024
4822,11,Pattern_Practice,66,9999,9999,9999,2591558772
4822,11,Pattern_Practice,67,9999,9999,9999,2592058464
4822,11,Pattern_Practice,68,9999,9999,9999,2592558144
4822,11,Pattern_Practice,69,9999,9999,9999,2593058908
4822,11,Pattern_Practice,70,9999,9999,9999,2593558616
4822,11,Pattern_Practice,71,9999,9999,9999,2594058288
4822,11,Pattern_Practice,72,9999,9999,9999,2594559068
4822,11,Pattern_Practice,73,9999,9999,9999,2595058796
4822,11,Pattern_Practice,74,9999,9999,9999,2595558488
4822,11,Pattern_Practice,75,9999,9999,9999,2596058164
4822,11,Pattern_Practice,76,9999,9999,9999,2596558932
4822,11,Pattern_Practice,77,9999,9999,9999,2597058680
4822,11,Pattern_Practice,78,9999,9999,9999,2597558328
4822,11,Pattern_Practice,79,9999,9999,9999,2598059124
4823,13,Improv_Metronome,0,5,42,127,2642832648
4823,13,Improv_Metronome,1,5,42,127,2643332512
4823,13,Improv_Metronome,2,5,42,127,2643833124
4823,13,Improv_Metronome,3,1,48,106,2643835720
4823,13,Improv_Metronome,4,1,48,127,2644317968
4823,13,Improv_Metronome,5,1,38,24,2644327376
4823,13,Improv_Metronome,6,5,42,127,2644333020
4823,13,Improv_Metronome,7,1,48,127,2644812236
4823,13,Improv_Metronome,8,5,42,127,2644832540
4823,13,Improv_Metronome,9,1,48,80,2644854044
4823,13,Improv_Metronome,10,1,48,127,2645296180
4823,13,Improv_Metronome,11,1,38,26,2645305436
4823,13,Improv_Metronome,12,5,42,127,2645333464
4823,13,Improv_Metronome,13,1,48,127,2645786248
4823,13,Improv_Metronome,14,1,48,127,2645824100
4823,13,Improv_Metronome,15,5,42,127,2645833032
4823,13,Improv_Metronome,16,1,48,40,2645893808
4823,13,Improv_Metronome,17,1,48,127,2646279912
4823,13,Improv_Metronome,18,1,38,27,2646289844
4823,13,Improv_Metronome,19,5,42,127,2646332736
4823,13,Improv_Metronome,20,1,48,124,2646804996
4823,13,Improv_Metronome,21,5,42,127,2646832404
4823,13,Improv_Metronome,22,1,48,119,2646838944
4823,13,Improv_Metronome,23,1,48,44,2646883680
4823,13,Improv_Metronome,24,1,48,127,2647297908
4823,13,Improv_Metronome,25,5,42,127,2647333472
4823,13,Improv_Metronome,26,1,48,127,2647797084
4823,13,Improv_Metronome,27,1,38,127,2647800428
4823,13,Improv_Metronome,28,5,42,127,2647833072
4823,13,Improv_Metronome,29,1,48,86,2648301816
4823,13,Improv_Metronome,30,1,38,31,2648309804
4823,13,Improv_Metronome,31,5,42,127,2648332796
4823,13,Improv_Metronome,32,1,48,127,2648771464
4823,13,Improv_Metronome,33,1,38,32,2648781620
4823,13,Improv_Metronome,34,1,48,120,2648807104
4823,13,Improv_Metronome,35,5,42,127,2648833248
4823,13,Improv_Metronome,36,1,38,127,2649278136
4823,13,Improv_Metronome,37,1,48,31,2649287992
4823,13,Improv_Metronome,38,5,42,127,2649333052
4823,13,Improv_Metronome,39,1,48,127,2649767092
4823,13,Improv_Metronome,40,1,48,127,2649817928
4823,13,Improv_Metronome,41,5,42,127,2649832924
4823,13,Improv_Metronome,42,1,48,42,2649868188
4823,13,Improv_Metronome,43,1,38,127,2650259332
4823,13,Improv_Metronome,44,5,42,127,2650332520
4823,13,Improv_Metronome,45,1,48,127,2650746688
4823,13,Improv_Metronome,46,1,48,87,2650816152
4823,13,Improv_Metronome,47,1,38,23,2650825408
4823,13,Improv_Metronome,48,5,42,127,2650833368
4823,13,Improv_Metronome,49,1,38,127,2651231052
4823,13,Improv_Metronome,50,5,42,127,2651333096
4823,13,Improv_Metronome,51,1,48,127,2651714068
4823,13,Improv_Metronome,52,1,38,30,2651724224
4823,13,Improv_Metronome,53,1,48,119,2651763244
4823,13,Improv_Metronome,54,5,42,127,2651832600
4823,13,Improv_Metronome,55,1,48,127,2652150928
4823,13,Improv_Metronome,56,1,48,109,2652201688
4823,13,Improv_Metronome,57,1,48,51,2652258988
4823,13,Improv_Metronome,58,5,42,127,2652333300
4823,13,Improv_Metronome,59,1,48,127,2652627316
4823,13,Improv_Metronome,60,1,38,28,2652637248
4823,13,Improv_Metronome,61,1,48,50,2652709844
4823,13,Improv_Metronome,62,1,48,90,2652731364
4823,13,Improv_Metronome,63,1,48,36,2652792304
4823,13,Improv_Metronome,64,5,42,127,2652833328
4823,13,Improv_Metronome,65,1,48,127,2653109468
4823,13,Improv_Metronome,66,1,48,101,2653180652
4823,13,Improv_Metronome,67,1,38,23,2653190284
4823,13,Improv_Metronome,68,1,48,42,2653229456
4823,13,Improv_Metronome,69,5,42,127,2653332912
4823,13,Improv_Metronome,70,1,48,127,2653568752
4823,13,Improv_Metronome,71,1,38,31,2653578980
4823,13,Improv_Metronome,72,1,48,107,2653625036
4823,13,Improv_Metronome,73,1,48,127,2653807292
4823,13,Improv_Metronome,74,1,38,34,2653816696
4823,13,Improv_Metronome,75,5,42,127,2653832512
4823,13,Improv_Metronome,76,1,48,86,2653844672
4823,13,Improv_Metronome,77,1,48,127,2654004684
4823,13,Improv_Metronome,78,1,38,29,2654014348
4823,13,Improv_Metronome,79,1,48,107,2654042076
4823,13,Improv_Metronome,80,1,48,127,2654207036
4823,13,Improv_Metronome,81,1,38,29,2654216960
4823,13,Improv_Metronome,82,1,48,82,2654287644
4823,13,Improv_Metronome,83,1,38,20,2654298172
4823,13,Improv_Metronome,84,5,42,127,2654333360
4823,13,Improv_Metronome,85,1,48,107,2654426716
4823,13,Improv_Metronome,86,1,38,127,2654827360
4823,13,Improv_Metronome,87,5,42,127,2654833080
4823,13,Improv_Metronome,88,1,48,113,2655283576
4823,13,Improv_Metronome,89,5,42,127,2655332776
4823,13,Improv_Metronome,90,1,38,127,2655761124
4823,13,Improv_Metronome,91,1,48,33,2655771204
4823,13,Improv_Metronome,92,5,42,127,2655832300
4823,13,Improv_Metronome,93,1,48,127,2656231976
4823,13,Improv_Metronome,94,1,48,100,2656259332
4823,13,Improv_Metronome,95,5,42,127,2656333288
4823,13,Improv_Metronome,96,1,38,127,2656717140
4823,13,Improv_Metronome,97,5,42,127,2656833044
4823,13,Improv_Metronome,98,1,48,127,2657180184
4823,13,Improv_Metronome,99,1,48,127,2657223392
4823,13,Improv_Metronome,100,1,48,67,2657256588
4823,13,Improv_Metronome,101,5,42,127,2657332684
4823,13,Improv_Metronome,102,1,38,127,2657673332
4823,13,Improv_Metronome,103,5,42,127,2657833264
4823,13,Improv_Metronome,104,1,48,127,2658144896
4823,13,Improv_Metronome,105,1,38,127,2658152956
4823,13,Improv_Metronome,106,5,42,127,2658333208
4823,13,Improv_Metronome,107,1,48,127,2658614828
4823,13,Improv_Metronome,108,1,38,103,2658618096
4823,13,Improv_Metronome,109,1,38,39,2658672028
4823,13,Improv_Metronome,110,5,42,127,2658832832
4823,13,Improv_Metronome,111,1,48,127,2659092456
4823,13,Improv_Metronome,112,1,38,127,2659093112
4823,13,Improv_Metronome,113,1,38,40,2659151828
4823,13,Improv_Metronome,114,5,42,127,2659332384
4823,13,Improv_Metronome,115,1,38,127,2659558124
4823,13,Improv_Metronome,116,1,48,27,2659568656
4823,13,Improv_Metronome,117,5,42,127,2659833152
4823,13,Improv_Metronome,118,1,48,127,2660026732
4823,13,Improv_Metronome,119,1,38,26,2660036508
4823,13,Improv_Metronome,120,1,48,124,2660077028
4823,13,Improv_Metronome,121,1,48,60,2660123084
4823,13,Improv_Metronome,122,5,42,127,2660333068
4823,13,Improv_Metronome,123,1,38,127,2660521708
4823,13,Improv_Metronome,124,5,42,127,2660832616
4823,13,Improv_Metronome,125,1,48,108,2660940548
4823,13,Improv_Metronome,126,1,48,127,2661000368
4823,13,Improv_Metronome,127,1,38,27,2661010144
4823,13,Improv_Metronome,128,1,48,71,2661034060
4823,13,Improv_Metronome,129,5,42,127,2661333412
4823,13,Improv_Metronome,130,1,38,127,2661440300
4823,13,Improv_Metronome,131,5,42,127,2661833036
4823,13,Improv_Metronome,132,1,38,127,2661897268
4823,13,Improv_Metronome,133,1,48,127,2661900536
4823,13,Improv_Metronome,134,1,48,127,2662333052
4823,13,Improv_Metronome,135,5,42,127,2662334620
4823,13,Improv_Metronome,136,1,38,127,2662354344
4823,13,Improv_Metronome,137,1,38,31,2662421864
4823,13,Improv_Metronome,138,1,48,127,2662805140
4823,13,Improv_Metronome,139,1,38,127,2662805796
4823,13,Improv_Metronome,140,5,42,127,2662832456
4823,13,Improv_Metronome,141,1,38,127,2663276436
4823,13,Improv_Metronome,142,1,48,127,2663279636
4823,13,Improv_Metronome,143,5,42,127,2663333224
4823,13,Improv_Metronome,144,1,38,127,2663765316
4823,13,Improv_Metronome,145,5,42,127,2663832816
4823,13,Improv_Metronome,146,1,48,127,2664239180
4823,13,Improv_Metronome,147,1,38,24,2664249104
4823,13,Improv_Metronome,148,1,48,127,2664278356
4823,13,Improv_Metronome,149,1,48,63,2664321492
4823,13,Improv_Metronome,150,5,42,127,2664332968
4823,13,Improv_Metronome,151,1,38,127,2664754788
4823,13,Improv_Metronome,152,5,42,127,2664833532
4823,13,Improv_Metronome,153,1,48,127,2665209304
4823,13,Improv_Metronome,154,1,38,28,2665219236
4823,13,Improv_Metronome,155,1,48,127,2665261324
4823,13,Improv_Metronome,156,1,48,51,2665302316
4823,13,Improv_Metronome,157,5,42,127,2665333076
4823,13,Improv_Metronome,158,1,38,127,2665707652
4823,13,Improv_Metronome,159,1,48,31,2665717576
4823,13,Improv_Metronome,160,5,42,127,2665832928
4823,13,Improv_Metronome,161,1,48,127,2666200860
4823,13,Improv_Metronome,162,1,48,127,2666240632
4823,13,Improv_Metronome,163,1,48,55,2666277040
4823,13,Improv_Metronome,164,5,42,127,2666332372
4823,13,Improv_Metronome,165,1,38,127,2666704628
4823,13,Improv_Metronome,166,5,42,127,2666833176
4823,13,Improv_Metronome,167,1,38,127,2667204628
4823,13,Improv_Metronome,168,1,48,28,2667214624
4823,13,Improv_Metronome,169,5,42,127,2667332972
4823,13,Improv_Metronome,170,1,38,127,2667693428
4823,13,Improv_Metronome,171,5,42,127,2667832940
4823,13,Improv_Metronome,172,1,38,127,2668190728
4823,13,Improv_Metronome,173,1,48,32,2668200504
4823,13,Improv_Metronome,174,5,42,127,2668333412
4823,13,Improv_Metronome,175,1,48,127,2668597972
4823,13,Improv_Metronome,176,1,38,33,2668608312
4823,13,Improv_Metronome,177,1,48,127,2668662740
4823,13,Improv_Metronome,178,1,38,29,2668673124
4823,13,Improv_Metronome,179,5,42,127,2668833104
4823,13,Improv_Metronome,180,1,48,58,2668841232
4823,13,Improv_Metronome,181,1,38,23,2668849664
4823,13,Improv_Metronome,182,1,48,126,2668976944
4823,13,Improv_Metronome,183,1,38,27,2668987024
4823,13,Improv_Metronome,184,1,48,67,2669013924
4823,13,Improv_Metronome,185,5,42,127,2669332808
4823,13,Improv_Metronome,186,1,48,127,2669401472
4823,13,Improv_Metronome,187,1,48,52,2669501532
4823,13,Improv_Metronome,188,5,42,127,2669832628
4823,13,Improv_Metronome,189,1,38,127,2669857140
4823,13,Improv_Metronome,190,1,38,68,2669886088
4823,13,Improv_Metronome,191,1,48,127,2670312360
4823,13,Improv_Metronome,192,5,42,127,2670333264
4823,13,Improv_Metronome,193,1,48,127,2670781768
4823,13,Improv_Metronome,194,5,42,127,2670832884
4823,13,Improv_Metronome,195,1,48,127,2671258420
4823,13,Improv_Metronome,196,5,42,127,2671332880
4823,13,Improv_Metronome,197,1,48,127,2671697604
4823,13,Improv_Metronome,198,1,38,27,2671707760
4823,13,Improv_Metronome,199,1,38,127,2671730100
4823,13,Improv_Metronome,200,1,38,70,2671759172
4823,13,Improv_Metronome,201,5,42,127,2671832420
4823,13,Improv_Metronome,202,1,48,127,2672260800
4823,13,Improv_Metronome,203,5,42,127,2672333088
4823,13,Improv_Metronome,204,1,48,127,2672740748
4823,13,Improv_Metronome,205,5,42,127,2672832860
4823,13,Improv_Metronome,206,1,48,127,2673233708
4823,13,Improv_Metronome,207,5,42,127,2673332536
4823,13,Improv_Metronome,208,1,48,127,2673695680
4823,13,Improv_Metronome,209,1,38,127,2673734896
4823,13,Improv_Metronome,210,1,38,76,2673767184
4823,13,Improv_Metronome,211,5,42,127,2673833248
4823,13,Improv_Metronome,212,1,38,127,2674236720
4823,13,Improv_Metronome,213,5,42,127,2674333976
4823,13,Improv_Metronome,214,1,48,127,2674730704
4823,13,Improv_Metronome,215,5,42,127,2674832772
4823,13,Improv_Metronome,216,1,38,127,2675260716
4823,13,Improv_Metronome,217,5,42,127,2675332408
4823,13,Improv_Metronome,218,1,48,127,2675772532
4823,13,Improv_Metronome,219,5,42,127,2675833148
4823,13,Improv_Metronome,220,1,38,127,2676238544
4823,13,Improv_Metronome,221,1,48,31,2676248316
4823,13,Improv_Metronome,222,1,38,106,2676304344
4823,13,Improv_Metronome,223,5,42,127,2676332876
4823,13,Improv_Metronome,224,1,38,46,2676353680
4823,13,Improv_Metronome,225,1,38,127,2676704784
4823,13,Improv_Metronome,226,1,48,27,2676714716
4823,13,Improv_Metronome,227,1,38,117,2676784776
4823,13,Improv_Metronome,228,5,42,127,2676832616
4823,13,Improv_Metronome,229,1,38,127,2677214524
4823,13,Improv_Metronome,230,1,48,32,2677223480
4823,13,Improv_Metronome,231,1,38,91,2677284564
4823,13,Improv_Metronome,232,5,42,127,2677333300
4823,13,Improv_Metronome,233,1,48,127,2677757540
4823,13,Improv_Metronome,234,5,42,127,2677832996
4823,13,Improv_Metronome,235,1,48,127,2678263664
4823,13,Improv_Metronome,236,5,42,127,2678332688
4823,13,Improv_Metronome,237,1,48,127,2678754912
4823,13,Improv_Metronome,238,5,42,127,2678832732
4823,13,Improv_Metronome,239,1,48,127,2679273532
4823,13,Improv_Metronome,240,1,38,127,2679284652
4823,13,Improv_Metronome,241,5,42,127,2679333380
4823,13,Improv_Metronome,242,1,48,127,2679779304
4823,13,Improv_Metronome,243,5,42,127,2679832972
4823,13,Improv_Metronome,244,1,48,127,2680299800
4823,13,Improv_Metronome,245,1,38,127,2680328800
4823,13,Improv_Metronome,246,5,42,127,2680332724
4823,13,Improv_Metronome,247,1,48,127,2680816500
4823,13,Improv_Metronome,248,5,42,127,2680833440
4823,13,Improv_Metronome,249,1,48,127,2681303480
4823,13,Improv_Metronome,250,1,38,30,2681313252
4823,13,Improv_Metronome,251,5,42,127,2681333260
4823,13,Improv_Metronome,252,1,48,127,2681346912
4823,13,Improv_Metronome,253,1,38,33,2681357736
4823,13,Improv_Metronome,254,1,48,127,2681830080
4823,13,Improv_Metronome,255,5,42,127,2681832736
4823,13,Improv_Metronome,256,1,38,24,2681840488
4823,13,Improv_Metronome,257,1,48,127,2682314556
4823,13,Improv_Metronome,258,1,38,30,2682324560
4823,13,Improv_Metronome,259,5,42,127,2682332448
4823,13,Improv_Metronome,260,1,48,93,2682372136
4823,13,Improv_Metronome,261,5,42,127,2682833536
4823,13,Improv_Metronome,262,1,48,127,2682874280
4823,13,Improv_Metronome,263,1,38,28,2682883908
4823,13,Improv_Metronome,264,1,48,127,2683323572
4823,13,Improv_Metronome,265,5,42,127,2683333028
4823,13,Improv_Metronome,266,1,48,99,2683386248
4823,13,Improv_Metronome,267,5,42,127,2683832632
4823,13,Improv_Metronome,268,1,38,127,2683876444
4823,13,Improv_Metronome,269,1,48,31,2683887116
4823,13,Improv_Metronome,270,5,42,127,2684333476
4823,13,Improv_Metronome,271,1,48,127,2684347444
4823,13,Improv_Metronome,272,1,48,111,2684373820
4823,13,Improv_Metronome,273,5,42,127,2684833224
4823,13,Improv_Metronome,274,1,38,127,2684874340
4823,13,Improv_Metronome,275,1,48,127,2685320832
4823,13,Improv_Metronome,276,1,38,27,2685330928
4823,13,Improv_Metronome,277,5,42,127,2685333716
4823,13,Improv_Metronome,278,1,48,127,2685382968
4823,13,Improv_Metronome,279,1,38,28,2685393864
4823,13,Improv_Metronome,280,1,48,56,2685411720
4823,13,Improv_Metronome,281,5,42,127,2685832512
4823,13,Improv_Metronome,282,1,38,127,2685854328
4823,13,Improv_Metronome,283,1,48,31,2685864260
4823,13,Improv_Metronome,284,1,48,127,2686297712
4823,13,Improv_Metronome,285,1,38,27,2686307040
4823,13,Improv_Metronome,286,5,42,127,2686333400
4823,13,Improv_Metronome,287,1,48,39,2686392536
4823,13,Improv_Metronome,288,1,48,127,2686421056
4823,13,Improv_Metronome,289,1,38,28,2686430980
4823,13,Improv_Metronome,290,5,42,127,2686833220
4823,13,Improv_Metronome,291,1,38,127,2686867832
4823,13,Improv_Metronome,292,1,48,31,2686877836
4823,13,Improv_Metronome,293,1,48,127,2687330600
4823,13,Improv_Metronome,294,5,42,127,2687332640
4823,13,Improv_Metronome,295,1,48,127,2687401712
4823,13,Improv_Metronome,296,1,48,55,2687443580
4823,13,Improv_Metronome,297,5,42,127,2687832372
4823,13,Improv_Metronome,298,1,38,127,2687874612
4823,13,Improv_Metronome,299,1,48,32,2687884988
4823,13,Improv_Metronome,300,1,48,127,2688330784
4823,13,Improv_Metronome,301,5,42,127,2688333284
4823,13,Improv_Metronome,302,1,48,127,2688406628
4823,13,Improv_Metronome,303,1,38,28,2688416180
4823,13,Improv_Metronome,304,1,48,49,2688447944
4823,13,Improv_Metronome,305,5,42,127,2688832748
4823,13,Improv_Metronome,306,1,38,127,2688891064
4823,13,Improv_Metronome,307,1,48,33,2688900992
4823,13,Improv_Metronome,308,5,42,127,2689332516
4823,13,Improv_Metronome,309,1,48,127,2689334004
4823,13,Improv_Metronome,310,1,48,127,2689385980
4823,13,Improv_Metronome,311,1,38,27,2689395680
4823,13,Improv_Metronome,312,1,38,127,2689832888
4823,13,Improv_Metronome,313,5,42,127,2689835056
4823,13,Improv_Metronome,314,1,48,27,2689843260
4823,13,Improv_Metronome,315,1,38,127,2690328844
4823,13,Improv_Metronome,316,5,42,127,2690333212
4823,13,Improv_Metronome,317,1,48,29,2690338652
4823,13,Improv_Metronome,318,1,38,127,2690807780
4823,13,Improv_Metronome,319,1,48,29,2690818164
4823,13,Improv_Metronome,320,5,42,127,2690832856
4823,13,Improv_Metronome,321,1,48,127,2691283568
4823,13,Improv_Metronome,322,1,38,27,2691293352
4823,13,Improv_Metronome,323,5,42,127,2691332428
4823,13,Improv_Metronome,324,1,48,127,2691362384
4823,13,Improv_Metronome,325,1,38,28,2691372832
4823,13,Improv_Metronome,326,1,38,127,2691821920
4823,13,Improv_Metronome,327,1,48,29,2691832104
4823,13,Improv_Metronome,328,5,42,127,2691834128
4823,13,Improv_Metronome,329,1,48,127,2692301372
4823,13,Improv_Metronome,330,5,42,127,2692332896
4823,13,Improv_Metronome,331,1,48,125,2692339364
4823,13,Improv_Metronome,332,1,38,127,2692826100
4823,13,Improv_Metronome,333,5,42,127,2692832496
4823,13,Improv_Metronome,334,5,42,127,2693333316
4823,13,Improv_Metronome,335,1,48,127,2693339124
4823,13,Improv_Metronome,336,1,48,127,2693351072
4823,13,Improv_Metronome,337,5,42,127,2693833212
4823,13,Improv_Metronome,338,1,38,127,2693855784
4823,13,Improv_Metronome,339,1,48,127,2694288640
4823,13,Improv_Metronome,340,1,38,26,2694298792
4823,13,Improv_Metronome,341,1,48,127,2694328088
4823,13,Improv_Metronome,342,5,42,127,2694332836
4823,13,Improv_Metronome,343,1,48,78,2694358232
4823,13,Improv_Metronome,344,1,48,127,2694809784
4823,13,Improv_Metronome,345,5,42,127,2694832408
4823,13,Improv_Metronome,346,1,48,127,2695325112
4823,13,Improv_Metronome,347,5,42,127,2695333220
4823,13,Improv_Metronome,348,1,48,127,2695802068
4823,13,Improv_Metronome,349,5,42,127,2695833064
4823,13,Improv_Metronome,350,1,48,127,2696302356
4823,13,Improv_Metronome,351,1,38,29,2696312584
4823,13,Improv_Metronome,352,1,38,127,2696321692
4823,13,Improv_Metronome,353,5,42,127,2696332944
4823,13,Improv_Metronome,354,1,48,127,2696813500
4823,13,Improv_Metronome,355,5,42,127,2696833360
4823,13,Improv_Metronome,356,1,48,127,2697302724
4823,13,Improv_Metronome,357,5,42,127,2697333128
4823,13,Improv_Metronome,358,1,38,127,2697334168
4823,13,Improv_Metronome,359,1,48,127,2697823028
4823,13,Improv_Metronome,360,5,42,127,2697832788
4823,13,Improv_Metronome,361,1,38,30,2697833756
4823,13,Improv_Metronome,362,1,48,127,2698332900
4823,13,Improv_Metronome,363,5,42,127,2698334320
4823,13,Improv_Metronome,364,1,38,28,2698343120
4823,13,Improv_Metronome,365,1,38,127,2698363072
4823,13,Improv_Metronome,366,5,42,127,2698833216
4823,13,Improv_Metronome,367,1,48,127,2698848900
4823,13,Improv_Metronome,368,1,38,127,2699299860
4823,13,Improv_Metronome,369,1,48,29,2699309712
4823,13,Improv_Metronome,370,5,42,127,2699332956
4823,13,Improv_Metronome,371,1,38,127,2699349152
4823,13,Improv_Metronome,372,1,48,29,2699360196
4823,13,Improv_Metronome,373,1,48,127,2699820628
4823,13,Improv_Metronome,374,5,42,127,2699832852
4823,13,Improv_Metronome,375,1,38,127,2700307380
4823,13,Improv_Metronome,376,5,42,127,2700333372
4823,13,Improv_Metronome,377,1,38,127,2700343052
4823,13,Improv_Metronome,378,1,48,127,2700818648
4823,13,Improv_Metronome,379,1,38,27,2700828648
4823,13,Improv_Metronome,380,5,42,127,2700833100
4823,13,Improv_Metronome,381,1,38,127,2701282240
4823,13,Improv_Metronome,382,1,48,26,2701292096
4823,13,Improv_Metronome,383,1,38,99,2701321696
4823,13,Improv_Metronome,384,5,42,127,2701333020
4823,13,Improv_Metronome,385,1,48,127,2701786284
4823,13,Improv_Metronome,386,5,42,127,2701832616
4823,13,Improv_Metronome,387,1,38,127,2702272884
4823,13,Improv_Metronome,388,5,42,127,2702333280
4823,13,Improv_Metronome,389,1,38,110,2702337060
4823,13,Improv_Metronome,390,1,48,24,2702346840
4823,13,Improv_Metronome,391,1,48,127,2702785080
4823,13,Improv_Metronome,392,5,42,127,2702832980
4823,13,Improv_Metronome,393,1,38,89,2703262256
4823,13,Improv_Metronome,394,1,38,123,2703304420
4823,13,Improv_Metronome,395,5,42,127,2703332804
4823,13,Improv_Metronome,396,1,48,127,2703733580
4823,13,Improv_Metronome,397,5,42,127,2703832556
4823,13,Improv_Metronome,398,1,48,127,2704257364
4823,13,Improv_Metronome,399,1,38,29,2704267368
4823,13,Improv_Metronome,400,1,48,127,2704274752
4823,13,Improv_Metronome,401,5,42,127,2704333124
4823,13,Improv_Metronome,402,1,38,127,2704750180
4823,13,Improv_Metronome,403,1,38,111,2704762572
4823,13,Improv_Metronome,404,5,42,127,2704832844
4823,13,Improv_Metronome,405,1,48,127,2705234668
4823,13,Improv_Metronome,406,1,38,30,2705245648
4823,13,Improv_Metronome,407,5,42,127,2705332652
4823,13,Improv_Metronome,408,1,38,127,2705721064
4823,13,Improv_Metronome,409,5,42,127,2705833304
4823,13,Improv_Metronome,410,1,48,122,2706196300
4823,13,Improv_Metronome,411,1,48,127,2706204956
4823,13,Improv_Metronome,412,5,42,127,2706333124
4823,13,Improv_Metronome,413,1,48,127,2706686548
4823,13,Improv_Metronome,414,5,42,127,2706832820
4823,13,Improv_Metronome,415,1,38,127,2707163128
4823,13,Improv_Metronome,416,5,42,127,2707332740
4823,13,Improv_Metronome,417,1,48,127,2707664692
4823,13,Improv_Metronome,418,1,38,34,2707674624
4823,13,Improv_Metronome,419,5,42,127,2707833060
4823,13,Improv_Metronome,420,1,38,87,2708141080
4823,13,Improv_Metronome,421,1,38,65,2708175092
4823,13,Improv_Metronome,422,5,42,127,2708333032
4823,13,Improv_Metronome,423,1,48,127,2708638136
4823,13,Improv_Metronome,424,1,38,30,2708648436
4823,13,Improv_Metronome,425,5,42,127,2708832680
4823,13,Improv_Metronome,426,1,38,86,2709144436
4823,13,Improv_Metronome,427,5,42,127,2709333568
4823,13,Improv_Metronome,428,1,48,113,2709637552
4823,13,Improv_Metronome,429,5,42,127,2709833044
4823,13,Improv_Metronome,430,1,38,58,2710201500
4823,13,Improv_Metronome,431,1,48,26,2710210300
4823,13,Improv_Metronome,432,1,48,70,2710236164
4823,13,Improv_Metronome,433,5,42,127,2710332976
4823,13,Improv_Metronome,434,1,48,101,2710718112
4823,13,Improv_Metronome,435,1,38,64,2710721456
4823,13,Improv_Metronome,436,5,42,127,2710832748
4823,13,Improv_Metronome,437,1,38,100,2711205720
4823,13,Improv_Metronome,438,1,48,127,2711208912
4823,13,Improv_Metronome,439,5,42,127,2711333296
4823,13,Improv_Metronome,440,1,38,90,2711685176
4823,13,Improv_Metronome,441,1,48,127,2711701380
4823,13,Improv_Metronome,442,5,42,127,2711832792
4823,13,Improv_Metronome,443,1,38,122,2712154304
4823,13,Improv_Metronome,444,1,48,127,2712157572
4823,13,Improv_Metronome,445,5,42,127,2712332664
4823,13,Improv_Metronome,446,1,38,120,2712651476
4823,13,Improv_Metronome,447,1,48,127,2712655200
4823,13,Improv_Metronome,0,9999,9999,9999,2642830432
4823,13,Improv_Metronome,1,9999,9999,9999,2643330148
4823,13,Improv_Metronome,2,9999,9999,9999,2643830836
4823,13,Improv_Metronome,3,9999,9999,9999,2644330584
4823,13,Improv_Metronome,4,9999,9999,9999,2644830324
4823,13,Improv_Metronome,5,9999,9999,9999,2645331028
4823,13,Improv_Metronome,6,9999,9999,9999,2645830748
4823,13,Improv_Metronome,7,9999,9999,9999,2646330448
4823,13,Improv_Metronome,8,9999,9999,9999,2646830192
4823,13,Improv_Metronome,9,9999,9999,9999,2647330888
4823,13,Improv_Metronome,10,9999,9999,9999,2647830636
4823,13,Improv_Metronome,11,9999,9999,9999,2648330360
4823,13,Improv_Metronome,12,9999,9999,9999,2648831032
4823,13,Improv_Metronome,13,9999,9999,9999,2649330764
4823,13,Improv_Metronome,14,9999,9999,9999,2649830484
4823,13,Improv_Metronome,15,9999,9999,9999,2650330232
4823,13,Improv_Metronome,16,9999,9999,9999,2650830932
4823,13,Improv_Metronome,17,9999,9999,9999,2651330660
4823,13,Improv_Metronome,18,9999,9999,9999,2651830388
4823,13,Improv_Metronome,19,9999,9999,9999,2652331088
4823,13,Improv_Metronome,20,9999,9999,9999,2652830816
4823,13,Improv_Metronome,21,9999,9999,9999,2653330552
4823,13,Improv_Metronome,22,9999,9999,9999,2653830224
4823,13,Improv_Metronome,23,9999,9999,9999,2654330996
4823,13,Improv_Metronome,24,9999,9999,9999,2654830644
4823,13,Improv_Metronome,25,9999,9999,9999,2655330412
4823,13,Improv_Metronome,26,9999,9999,9999,2655830088
4823,13,Improv_Metronome,27,9999,9999,9999,2656330852
4823,13,Improv_Metronome,28,9999,9999,9999,2656830532
4823,13,Improv_Metronome,29,9999,9999,9999,2657330248
4823,13,Improv_Metronome,30,9999,9999,9999,2657830976
4823,13,Improv_Metronome,31,9999,9999,9999,2658330696
4823,13,Improv_Metronome,32,9999,9999,9999,2658830396
4823,13,Improv_Metronome,33,9999,9999,9999,2659330096
4823,13,Improv_Metronome,34,9999,9999,9999,2659830864
4823,13,Improv_Metronome,35,9999,9999,9999,2660330556
4823,13,Improv_Metronome,36,9999,9999,9999,2660830328
4823,13,Improv_Metronome,37,9999,9999,9999,2661331052
4823,13,Improv_Metronome,38,9999,9999,9999,2661830748
4823,13,Improv_Metronome,39,9999,9999,9999,2662330468
4823,13,Improv_Metronome,40,9999,9999,9999,2662830168
4823,13,Improv_Metronome,41,9999,9999,9999,2663330936
4823,13,Improv_Metronome,42,9999,9999,9999,2663830600
4823,13,Improv_Metronome,43,9999,9999,9999,2664330308
4823,13,Improv_Metronome,44,9999,9999,9999,2664831096
4823,13,Improv_Metronome,45,9999,9999,9999,2665330788
4823,13,Improv_Metronome,46,9999,9999,9999,2665830492
4823,13,Improv_Metronome,47,9999,9999,9999,2666330160
4823,13,Improv_Metronome,48,9999,9999,9999,2666830960
4823,13,Improv_Metronome,49,9999,9999,9999,2667330612
4823,13,Improv_Metronome,50,9999,9999,9999,2667830356
4823,13,Improv_Metronome,51,9999,9999,9999,2668331124
4823,13,Improv_Metronome,52,9999,9999,9999,2668830816
4823,13,Improv_Metronome,53,9999,9999,9999,2669330520
4823,13,Improv_Metronome,54,9999,9999,9999,2669830192
4823,13,Improv_Metronome,55,9999,9999,9999,2670330980
4823,13,Improv_Metronome,56,9999,9999,9999,2670830672
4823,13,Improv_Metronome,57,9999,9999,9999,2671330368
4823,13,Improv_Metronome,58,9999,9999,9999,2671830132
4823,13,Improv_Metronome,59,9999,9999,9999,2672330800
4823,13,Improv_Metronome,60,9999,9999,9999,2672830572
4823,13,Improv_Metronome,61,9999,9999,9999,2673330284
4823,13,Improv_Metronome,62,9999,9999,9999,2673830960
4823,13,Improv_Metronome,63,9999,9999,9999,2674330728
4823,13,Improv_Metronome,64,9999,9999,9999,2674830408
4823,13,Improv_Metronome,65,9999,9999,9999,2675330120
4823,13,Improv_Metronome,66,9999,9999,9999,2675830860
4823,13,Improv_Metronome,67,9999,9999,9999,2676330588
4823,13,Improv_Metronome,68,9999,9999,9999,2676830328
4823,13,Improv_Metronome,69,9999,9999,9999,2677331016
4823,13,Improv_Metronome,70,9999,9999,9999,2677830708
4823,13,Improv_Metronome,71,9999,9999,9999,2678330452
4823,13,Improv_Metronome,72,9999,9999,9999,2678830148
4823,13,Improv_Metronome,73,9999,9999,9999,2679330872
4823,13,Improv_Metronome,74,9999,9999,9999,2679830612
4823,13,Improv_Metronome,75,9999,9999,9999,2680330360
4823,13,Improv_Metronome,76,9999,9999,9999,2680831076
4823,13,Improv_Metronome,77,9999,9999,9999,2681330752
4823,13,Improv_Metronome,78,9999,9999,9999,2681830448
4823,13,Improv_Metronome,79,9999,9999,9999,2682330164
4823,13,Improv_Metronome,80,9999,9999,9999,2682830948
4823,13,Improv_Metronome,81,9999,9999,9999,2683330664
4823,13,Improv_Metronome,82,9999,9999,9999,2683830344
4823,13,Improv_Metronome,83,9999,9999,9999,2684331112
4823,13,Improv_Metronome,84,9999,9999,9999,2684830788
4823,13,Improv_Metronome,85,9999,9999,9999,2685330548
4823,13,Improv_Metronome,86,9999,9999,9999,2685830224
4823,13,Improv_Metronome,87,9999,9999,9999,2686330964
4823,13,Improv_Metronome,88,9999,9999,9999,2686830712
4823,13,Improv_Metronome,89,9999,9999,9999,2687330392
4823,13,Improv_Metronome,90,9999,9999,9999,2687830084
4823,13,Improv_Metronome,91,9999,9999,9999,2688330848
4823,13,Improv_Metronome,92,9999,9999,9999,2688830532
4823,13,Improv_Metronome,93,9999,9999,9999,2689330228
4823,13,Improv_Metronome,94,9999,9999,9999,2689830976
4823,13,Improv_Metronome,95,9999,9999,9999,2690330704
4823,13,Improv_Metronome,96,9999,9999,9999,2690830420
4823,13,Improv_Metronome,97,9999,9999,9999,2691330140
4823,13,Improv_Metronome,98,9999,9999,9999,2691830888
4823,13,Improv_Metronome,99,9999,9999,9999,2692330608
4823,13,Improv_Metronome,100,9999,9999,9999,2692830284
4823,13,Improv_Metronome,101,9999,9999,9999,2693331028
4823,13,Improv_Metronome,102,9999,9999,9999,2693830776
4823,13,Improv_Metronome,103,9999,9999,9999,2694330472
4823,13,Improv_Metronome,104,9999,9999,9999,2694830192
4823,13,Improv_Metronome,105,9999,9999,9999,2695330936
4823,13,Improv_Metronome,106,9999,9999,9999,2695830628
4823,13,Improv_Metronome,107,9999,9999,9999,2696330360
4823,13,Improv_Metronome,108,9999,9999,9999,2696831072
4823,13,Improv_Metronome,109,9999,9999,9999,2697330764
4823,13,Improv_Metronome,110,9999,9999,9999,2697830500
4823,13,Improv_Metronome,111,9999,9999,9999,2698330168
4823,13,Improv_Metronome,112,9999,9999,9999,2698830928
4823,13,Improv_Metronome,113,9999,9999,9999,2699330668
4823,13,Improv_Metronome,114,9999,9999,9999,2699830340
4823,13,Improv_Metronome,115,9999,9999,9999,2700331084
4823,13,Improv_Metronome,116,9999,9999,9999,2700830812
4823,13,Improv_Metronome,117,9999,9999,9999,2701330512
4823,13,Improv_Metronome,118,9999,9999,9999,2701830252
4823,13,Improv_Metronome,119,9999,9999,9999,2702330992
4823,13,Improv_Metronome,120,9999,9999,9999,2702830696
4823,13,Improv_Metronome,121,9999,9999,9999,2703330368
4823,13,Improv_Metronome,122,9999,9999,9999,2703830120
4823,13,Improv_Metronome,123,9999,9999,9999,2704330836
4823,13,Improv_Metronome,124,9999,9999,9999,2704830556
4823,13,Improv_Metronome,125,9999,9999,9999,2705330232
4823,13,Improv_Metronome,126,9999,9999,9999,2705831016
4823,13,Improv_Metronome,127,9999,9999,9999,2706330688
4823,13,Improv_Metronome,128,9999,9999,9999,2706830384
4823,13,Improv_Metronome,129,9999,9999,9999,2707330152
4823,13,Improv_Metronome,130,9999,9999,9999,2707830848
4823,13,Improv_Metronome,131,9999,9999,9999,2708330596
4823,13,Improv_Metronome,132,9999,9999,9999,2708830316
4823,13,Improv_Metronome,133,9999,9999,9999,2709331060
4823,13,Improv_Metronome,134,9999,9999,9999,2709830756
4823,13,Improv_Metronome,135,9999,9999,9999,2710330480
4823,13,Improv_Metronome,136,9999,9999,9999,2710830164
4823,13,Improv_Metronome,137,9999,9999,9999,2711330932
4823,13,Improv_Metronome,138,9999,9999,9999,2711830580
4823,13,Improv_Metronome,139,9999,9999,9999,2712330300
4824,14,Improv_Melody,0,1,48,17,2756634804
4824,14,Improv_Melody,1,2,48,80,2757138808
4824,14,Improv_Melody,2,2,72,80,2757141400
4824,14,Improv_Melody,3,5,42,127,2757143040
4824,14,Improv_Melody,4,5,42,110,2757635436
4824,14,Improv_Melody,5,5,42,110,2758136276
4824,14,Improv_Melody,6,5,42,110,2758636076
4824,14,Improv_Melody,7,5,42,127,2759135496
4824,14,Improv_Melody,8,5,42,110,2759636340
4824,14,Improv_Melody,9,5,42,110,2760136136
4824,14,Improv_Melody,10,5,42,110,2760635636
4824,14,Improv_Melody,11,2,43,80,2761137708
4824,14,Improv_Melody,12,2,67,80,2761140008
4824,14,Improv_Melody,13,5,42,127,2761142400
4824,14,Improv_Melody,14,1,48,100,2761176112
4824,14,Improv_Melody,15,1,38,21,2761185964
4824,14,Improv_Melody,16,5,42,110,2761636144
4824,14,Improv_Melody,17,5,42,110,2762136088
4824,14,Improv_Melody,18,1,48,85,2762144968
4824,14,Improv_Melody,19,1,38,20,2762154964
4824,14,Improv_Melody,20,5,42,110,2762635516
4824,14,Improv_Melody,21,1,48,66,2763088292
4824,14,Improv_Melody,22,5,42,127,2763136280
4824,14,Improv_Melody,23,5,42,110,2763636060
4824,14,Improv_Melody,24,1,48,81,2764089060
4824,14,Improv_Melody,25,1,38,19,2764098988
4824,14,Improv_Melody,26,5,42,110,2764135976
4824,14,Improv_Melody,27,5,42,110,2764635432
4824,14,Improv_Melody,28,2,45,80,2765138928
4824,14,Improv_Melody,29,2,69,80,2765141008
4824,14,Improv_Melody,30,5,42,127,2765143620
4824,14,Improv_Melody,31,1,48,97,2765152120
4824,14,Improv_Melody,32,1,38,90,2765152776
4824,14,Improv_Melody,33,5,42,110,2765636092
4824,14,Improv_Melody,34,5,42,110,2766135740
4824,14,Improv_Melody,35,1,48,84,2766180216
4824,14,Improv_Melody,36,1,38,19,2766190676
4824,14,Improv_Melody,37,5,42,110,2766636340
4824,14,Improv_Melody,38,1,48,78,2767095924
4824,14,Improv_Melody,39,1,38,20,2767105776
4824,14,Improv_Melody,40,5,42,127,2767136108
4824,14,Improv_Melody,41,5,42,110,2767635936
4824,14,Improv_Melody,42,1,48,113,2768028880
4824,14,Improv_Melody,43,5,42,110,2768135416
4824,14,Improv_Melody,44,5,42,110,2768636256
4824,14,Improv_Melody,45,1,48,87,2769077592
4824,14,Improv_Melody,46,1,38,93,2769081464
4824,14,Improv_Melody,47,2,41,80,2769138380
4824,14,Improv_Melody,48,2,65,80,2769140760
4824,14,Improv_Melody,49,5,42,127,2769143072
4824,14,Improv_Melody,50,5,42,110,2769635796
4824,14,Improv_Melody,51,1,48,108,2770065984
4824,14,Improv_Melody,52,1,48,101,2770077032
4824,14,Improv_Melody,53,5,42,110,2770136312
4824,14,Improv_Melody,54,5,42,110,2770636092
4824,14,Improv_Melody,55,5,42,127,2771135812
4824,14,Improv_Melody,56,1,48,104,2771148056
4824,14,Improv_Melody,57,5,42,110,2771635512
4824,14,Improv_Melody,58,5,42,110,2772136356
4824,14,Improv_Melody,59,1,48,105,2772180164
4824,14,Improv_Melody,60,1,48,127,2772185676
4824,14,Improv_Melody,61,5,42,110,2772635960
4824,14,Improv_Melody,62,1,38,118,2773110128
4824,14,Improv_Melody,63,1,48,27,2773119980
4824,14,Improv_Melody,64,2,48,80,2773138536
4824,14,Improv_Melody,65,2,72,80,2773140684
4824,14,Improv_Melody,66,5,42,127,2773143296
4824,14,Improv_Melody,67,5,42,110,2773635572
4824,14,Improv_Melody,68,1,48,104,2774079072
4824,14,Improv_Melody,69,5,42,110,2774136108
4824,14,Improv_Melody,70,5,42,110,2774635892
4824,14,Improv_Melody,71,1,38,127,2775131752
4824,14,Improv_Melody,72,5,42,127,2775135756
4824,14,Improv_Melody,73,5,42,110,2775636360
4824,14,Improv_Melody,74,5,42,110,2776135932
4824,14,Improv_Melody,75,1,48,91,2776154460
4824,14,Improv_Melody,76,1,38,20,2776163788
4824,14,Improv_Melody,77,1,48,84,2776170200
4824,14,Improv_Melody,78,5,42,110,2776635788
4824,14,Improv_Melody,79,1,38,127,2777094680
4824,14,Improv_Melody,80,2,43,80,2777137988
4824,14,Improv_Melody,81,2,67,80,2777140208
4824,14,Improv_Melody,82,5,42,127,2777142772
4824,14,Improv_Melody,83,5,42,110,2777636176
4824,14,Improv_Melody,84,5,42,110,2778135972
4824,14,Improv_Melody,85,1,48,99,2778142380
4824,14,Improv_Melody,86,5,42,110,2778635596
4824,14,Improv_Melody,87,5,42,127,2779136512
4824,14,Improv_Melody,88,1,38,103,2779166408
4824,14,Improv_Melody,89,5,42,110,2779636064
4824,14,Improv_Melody,90,1,48,99,2780103052
4824,14,Improv_Melody,91,1,38,22,2780112456
4824,14,Improv_Melody,92,5,42,110,2780135760
4824,14,Improv_Melody,93,5,42,110,2780635436
4824,14,Improv_Melody,94,1,38,127,2781101156
4824,14,Improv_Melody,95,2,45,80,2781139008
4824,14,Improv_Melody,96,2,69,80,2781141156
4824,14,Improv_Melody,97,1,38,57,2781143080
4824,14,Improv_Melody,98,5,42,127,2781146884
4824,14,Improv_Melody,99,5,42,110,2781635824
4824,14,Improv_Melody,100,1,48,104,2782084560
4824,14,Improv_Melody,101,1,38,24,2782093516
4824,14,Improv_Melody,102,5,42,110,2782135516
4824,14,Improv_Melody,103,5,42,110,2782636468
4824,14,Improv_Melody,104,5,42,127,2783136040
4824,14,Improv_Melody,105,1,48,95,2783173488
4824,14,Improv_Melody,106,1,38,23,2783182900
4824,14,Improv_Melody,107,5,42,110,2783635992
4824,14,Improv_Melody,108,1,48,104,2784122876
4824,14,Improv_Melody,109,5,42,110,2784135636
4824,14,Improv_Melody,110,5,42,110,2784636460
4824,14,Improv_Melody,111,1,38,127,2785119608
4824,14,Improv_Melody,112,2,41,80,2785138532
4824,14,Improv_Melody,113,2,65,80,2785140760
4824,14,Improv_Melody,114,5,42,127,2785143516
4824,14,Improv_Melody,115,5,42,110,2785635672
4824,14,Improv_Melody,116,5,42,110,2786136368
4824,14,Improv_Melody,117,1,38,110,2786178676
4824,14,Improv_Melody,118,1,48,127,2786181204
4824,14,Improv_Melody,119,1,38,45,2786224036
4824,14,Improv_Melody,120,5,42,110,2786636220
4824,14,Improv_Melody,121,5,42,127,2787135792
4824,14,Improv_Melody,122,1,48,127,2787206456
4824,14,Improv_Melody,123,1,38,62,2787209724
4824,14,Improv_Melody,124,5,42,110,2787635420
4824,14,Improv_Melody,125,5,42,110,2788136412
4824,14,Improv_Melody,126,1,38,74,2788145440
4824,14,Improv_Melody,127,1,48,127,2788147888
4824,14,Improv_Melody,128,5,42,110,2788635964
4824,14,Improv_Melody,129,2,48,80,2789138412
4824,14,Improv_Melody,130,2,72,80,2789140412
4824,14,Improv_Melody,131,5,42,127,2789143028
4824,14,Improv_Melody,132,1,48,127,2789143996
4824,14,Improv_Melody,133,5,42,110,2789635400
4824,14,Improv_Melody,134,1,38,124,2789638220
4824,14,Improv_Melody,135,1,48,24,2789648220
4824,14,Improv_Melody,136,1,38,66,2789701928
4824,14,Improv_Melody,137,5,42,110,2790136152
4824,14,Improv_Melody,138,1,48,127,2790161404
4824,14,Improv_Melody,139,5,42,110,2790635852
4824,14,Improv_Melody,140,1,38,127,2790700528
4824,14,Improv_Melody,141,5,42,127,2791135476
4824,14,Improv_Melody,142,1,48,127,2791237500
4824,14,Improv_Melody,143,5,42,110,2791636296
4824,14,Improv_Melody,144,1,38,94,2791733160
4824,14,Improv_Melody,145,1,48,21,2791742568
4824,14,Improv_Melody,146,5,42,110,2792136172
4824,14,Improv_Melody,147,1,48,127,2792245828
4824,14,Improv_Melody,148,5,42,110,2792635724
4824,14,Improv_Melody,149,2,43,80,2793138256
4824,14,Improv_Melody,150,2,67,80,2793140100
4824,14,Improv_Melody,151,5,42,127,2793142640
4824,14,Improv_Melody,152,1,38,113,2793203652
4824,14,Improv_Melody,153,1,48,24,2793213580
4824,14,Improv_Melody,154,1,38,127,2793219396
4824,14,Improv_Melody,155,5,42,110,2793636140
4824,14,Improv_Melody,156,5,42,110,2794136160
4824,14,Improv_Melody,157,1,48,127,2794157752
4824,14,Improv_Melody,158,5,42,110,2794635488
4824,14,Improv_Melody,159,1,48,127,2795123268
4824,14,Improv_Melody,160,5,42,127,2795136248
4824,14,Improv_Melody,161,5,42,110,2795636252
4824,14,Improv_Melody,162,1,48,127,2796081076
4824,14,Improv_Melody,163,5,42,110,2796135748
4824,14,Improv_Melody,164,5,42,110,2796635452
4824,14,Improv_Melody,165,1,38,127,2797131460
4824,14,Improv_Melody,166,2,45,80,2797138868
4824,14,Improv_Melody,167,2,69,80,2797140940
4824,14,Improv_Melody,168,5,42,127,2797143484
4824,14,Improv_Melody,169,1,38,127,2797145408
4824,14,Improv_Melody,170,5,42,110,2797635988
4824,14,Improv_Melody,171,5,42,110,2798135856
4824,14,Improv_Melody,172,1,48,127,2798184532
4824,14,Improv_Melody,173,1,38,127,2798204480
4824,14,Improv_Melody,174,5,42,110,2798636384
4824,14,Improv_Melody,175,5,42,127,2799136252
4824,14,Improv_Melody,176,1,48,127,2799223096
4824,14,Improv_Melody,177,5,42,110,2799636028
4824,14,Improv_Melody,178,5,42,110,2800135600
4824,14,Improv_Melody,179,1,48,127,2800153756
4824,14,Improv_Melody,180,1,38,119,2800163680
4824,14,Improv_Melody,181,5,42,110,2800636148
4824,14,Improv_Melody,182,2,41,80,2801138372
4824,14,Improv_Melody,183,2,65,80,2801140524
4824,14,Improv_Melody,184,5,42,127,2801143140
4824,14,Improv_Melody,185,1,48,127,2801173404
4824,14,Improv_Melody,186,5,42,110,2801635880
4824,14,Improv_Melody,187,5,42,110,2802136428
4824,14,Improv_Melody,188,1,38,113,2802162808
4824,14,Improv_Melody,189,5,42,110,2802636128
4824,14,Improv_Melody,190,5,42,127,2803135848
4824,14,Improv_Melody,191,1,48,127,2803159536
4824,14,Improv_Melody,192,1,48,127,2803181580
4824,14,Improv_Melody,193,5,42,110,2803635524
4824,14,Improv_Melody,194,1,38,127,2804112688
4824,14,Improv_Melody,195,5,42,110,2804136288
4824,14,Improv_Melody,196,1,48,110,2804559880
4824,14,Improv_Melody,197,1,38,23,2804569952
4824,14,Improv_Melody,198,5,42,110,2804636044
4824,14,Improv_Melody,199,2,48,80,2805138220
4824,14,Improv_Melody,200,2,72,80,2805140604
4824,14,Improv_Melody,201,5,42,127,2805143064
4824,14,Improv_Melody,202,1,38,127,2805144028
4824,14,Improv_Melody,203,1,48,26,2805153884
4824,14,Improv_Melody,204,5,42,110,2805635328
4824,14,Improv_Melody,205,5,42,110,2806136168
4824,14,Improv_Melody,206,1,38,111,2806227100
4824,14,Improv_Melody,207,1,48,26,2806236656
4824,14,Improv_Melody,208,1,48,127,2806241420
4824,14,Improv_Melody,209,5,42,110,2806635788
4824,14,Improv_Melody,210,5,42,127,2807135656
4824,14,Improv_Melody,211,1,48,127,2807198016
4824,14,Improv_Melody,212,5,42,110,2807636552
4824,14,Improv_Melody,213,5,42,110,2808135976
4824,14,Improv_Melody,214,1,38,111,2808175448
4824,14,Improv_Melody,215,1,48,127,2808178720
4824,14,Improv_Melody,216,5,42,110,2808635780
4824,14,Improv_Melody,217,2,43,80,2809137900
4824,14,Improv_Melody,218,2,67,80,2809140692
4824,14,Improv_Melody,219,5,42,127,2809143076
4824,14,Improv_Melody,220,1,48,127,2809196312
4824,14,Improv_Melody,221,1,38,25,2809205796
4824,14,Improv_Melody,222,5,42,110,2809636352
4824,14,Improv_Melody,223,5,42,110,2810135848
4824,14,Improv_Melody,224,1,38,127,2810198532
4824,14,Improv_Melody,225,1,48,87,2810201052
4824,14,Improv_Melody,226,5,42,110,2810635576
4824,14,Improv_Melody,227,1,38,122,2811128740
4824,14,Improv_Melody,228,5,42,127,2811136412
4824,14,Improv_Melody,229,1,48,25,2811138128
4824,14,Improv_Melody,230,5,42,110,2811636160
4824,14,Improv_Melody,231,5,42,110,2812135736
4824,14,Improv_Melody,232,1,48,102,2812160840
4824,14,Improv_Melody,233,5,42,110,2812635804
4824,14,Improv_Melody,234,2,45,80,2813138780
4824,14,Improv_Melody,235,2,69,80,2813141160
4824,14,Improv_Melody,236,5,42,127,2813143544
4824,14,Improv_Melody,237,1,38,127,2813158032
4824,14,Improv_Melody,238,5,42,110,2813635916
4824,14,Improv_Melody,239,5,42,110,2814135712
4824,14,Improv_Melody,240,1,48,127,2814217368
4824,14,Improv_Melody,241,5,42,110,2814636384
4824,14,Improv_Melody,242,5,42,127,2815136180
4824,14,Improv_Melody,243,1,48,127,2815172432
4824,14,Improv_Melody,244,5,42,110,2815635732
4824,14,Improv_Melody,245,5,42,110,2816135528
4824,14,Improv_Melody,246,1,48,127,2816195340
4824,14,Improv_Melody,247,1,38,28,2816204900
4824,14,Improv_Melody,248,5,42,110,2816636524
4824,14,Improv_Melody,249,2,41,80,2817138600
4824,14,Improv_Melody,250,2,65,80,2817140676
4824,14,Improv_Melody,251,5,42,127,2817143140
4824,14,Improv_Melody,252,1,38,127,2817144932
4824,14,Improv_Melody,253,1,38,127,2817161120
4824,14,Improv_Melody,254,5,42,110,2817635568
4824,14,Improv_Melody,255,1,48,127,2818104272
4824,14,Improv_Melody,256,5,42,110,2818136624
4824,14,Improv_Melody,257,5,42,110,2818636256
4824,14,Improv_Melody,258,1,38,127,2819117656
4824,14,Improv_Melody,259,1,48,127,2819123436
4824,14,Improv_Melody,260,5,42,127,2819135744
4824,14,Improv_Melody,261,5,42,110,2819635572
4824,14,Improv_Melody,262,1,38,120,2820077928
4824,14,Improv_Melody,263,1,48,120,2820086812
4824,14,Improv_Melody,264,5,42,110,2820136288
4824,14,Improv_Melody,265,5,42,110,2820635968
4824,14,Improv_Melody,266,1,48,114,2821108868
4824,14,Improv_Melody,267,2,48,80,2821138264
4824,14,Improv_Melody,268,2,72,80,2821140336
4824,14,Improv_Melody,269,5,42,127,2821142800
4824,14,Improv_Melody,270,1,48,127,2821591524
4824,14,Improv_Melody,271,5,42,110,2821635396
4824,14,Improv_Melody,272,1,38,127,2822045828
4824,14,Improv_Melody,273,5,42,110,2822136292
4824,14,Improv_Melody,274,1,48,97,2822579408
4824,14,Improv_Melody,275,5,42,110,2822635920
4824,14,Improv_Melody,276,1,48,127,2823047244
4824,14,Improv_Melody,277,5,42,127,2823135468
4824,14,Improv_Melody,278,1,48,127,2823563696
4824,14,Improv_Melody,279,5,42,110,2823636216
4824,14,Improv_Melody,280,1,38,127,2824073944
4824,14,Improv_Melody,281,5,42,110,2824136288
4824,14,Improv_Melody,282,1,38,93,2824566388
4824,14,Improv_Melody,283,5,42,110,2824635764
4824,14,Improv_Melody,284,1,38,127,2825108344
4824,14,Improv_Melody,285,1,48,27,2825117676
4824,14,Improv_Melody,286,2,43,80,2825138100
4824,14,Improv_Melody,287,2,67,80,2825140172
4824,14,Improv_Melody,288,5,42,127,2825142636
4824,14,Improv_Melody,289,5,42,110,2825636260
4824,14,Improv_Melody,290,1,48,127,2825730852
4824,14,Improv_Melody,291,1,38,73,2825751780
4824,14,Improv_Melody,292,5,42,110,2826136056
4824,14,Improv_Melody,293,1,48,107,2826145016
4824,14,Improv_Melody,294,1,38,22,2826154936
4824,14,Improv_Melody,295,5,42,110,2826635564
4824,14,Improv_Melody,296,1,48,120,2826710484
4824,14,Improv_Melody,297,5,42,127,2827136308
4824,14,Improv_Melody,298,1,48,98,2827223576
4824,14,Improv_Melody,299,1,38,23,2827233580
4824,14,Improv_Melody,300,5,42,110,2827636260
4824,14,Improv_Melody,301,1,48,127,2827767208
4824,14,Improv_Melody,302,1,38,28,2827777360
4824,14,Improv_Melody,303,5,42,110,2828135836
4824,14,Improv_Melody,304,1,48,127,2828246960
4824,14,Improv_Melody,305,5,42,110,2828635612
4824,14,Improv_Melody,306,1,48,127,2828706876
4824,14,Improv_Melody,307,2,45,80,2829138788
4824,14,Improv_Melody,308,2,69,80,2829141020
4824,14,Improv_Melody,309,5,42,127,2829143552
4824,14,Improv_Melody,310,1,48,127,2829203068
4824,14,Improv_Melody,311,1,38,127,2829210304
4824,14,Improv_Melody,312,5,42,110,2829636024
4824,14,Improv_Melody,313,5,42,110,2830135596
4824,14,Improv_Melody,314,1,48,127,2830148816
4824,14,Improv_Melody,315,5,42,110,2830636468
4824,14,Improv_Melody,316,1,38,127,2831062912
4824,14,Improv_Melody,317,5,42,127,2831136256
4824,14,Improv_Melody,318,5,42,110,2831635888
4824,14,Improv_Melody,319,1,38,127,2832109308
4824,14,Improv_Melody,320,5,42,110,2832135532
4824,14,Improv_Melody,321,5,42,110,2832636132
4824,14,Improv_Melody,322,1,48,127,2833105664
4824,14,Improv_Melody,323,2,41,80,2833138348
4824,14,Improv_Melody,324,2,65,80,2833140500
4824,14,Improv_Melody,325,5,42,127,2833143188
4824,14,Improv_Melody,326,5,42,110,2833635644
4824,14,Improv_Melody,327,1,38,127,2834067700
4824,14,Improv_Melody,328,5,42,110,2834136328
4824,14,Improv_Melody,329,5,42,110,2834636260
4824,14,Improv_Melody,330,1,48,127,2835080364
4824,14,Improv_Melody,331,1,38,127,2835087072
4824,14,Improv_Melody,332,5,42,127,2835135956
4824,14,Improv_Melody,333,5,42,110,2835635560
4824,14,Improv_Melody,334,1,38,127,2836084900
4824,14,Improv_Melody,335,1,48,127,2836090336
4824,14,Improv_Melody,336,5,42,110,2836136228
4824,14,Improv_Melody,337,5,42,110,2836635908
4824,14,Improv_Melody,338,1,48,115,2837136940
4824,14,Improv_Melody,339,2,48,80,2837140012
4824,14,Improv_Melody,340,2,72,80,2837141864
4824,14,Improv_Melody,341,5,42,127,2837144472
4824,14,Improv_Melody,342,1,38,28,2837146848
4824,14,Improv_Melody,343,5,42,110,2837635472
4824,14,Improv_Melody,344,1,48,127,2837641808
4824,14,Improv_Melody,345,1,38,25,2837651736
4824,14,Improv_Melody,346,1,48,40,2837733768
4824,14,Improv_Melody,0,9999,9999,9999,2757133380
4824,14,Improv_Melody,1,9999,9999,9999,2757633140
4824,14,Improv_Melody,2,9999,9999,9999,2758133836
4824,14,Improv_Melody,3,9999,9999,9999,2758633560
4824,14,Improv_Melody,4,9999,9999,9999,2759133280
4824,14,Improv_Melody,5,9999,9999,9999,2759633972
4824,14,Improv_Melody,6,9999,9999,9999,2760133696
4824,14,Improv_Melody,7,9999,9999,9999,2760633416
4824,14,Improv_Melody,8,9999,9999,9999,2761133136
4824,14,Improv_Melody,9,9999,9999,9999,2761633848
4824,14,Improv_Melody,10,9999,9999,9999,2762133572
4824,14,Improv_Melody,11,9999,9999,9999,2762633300
4824,14,Improv_Melody,12,9999,9999,9999,2763134060
4824,14,Improv_Melody,13,9999,9999,9999,2763633768
4824,14,Improv_Melody,14,9999,9999,9999,2764133464
4824,14,Improv_Melody,15,9999,9999,9999,2764633140
4824,14,Improv_Melody,16,9999,9999,9999,2765133908
4824,14,Improv_Melody,17,9999,9999,9999,2765633652
4824,14,Improv_Melody,18,9999,9999,9999,2766133296
4824,14,Improv_Melody,19,9999,9999,9999,2766634048
4824,14,Improv_Melody,20,9999,9999,9999,2767133816
4824,14,Improv_Melody,21,9999,9999,9999,2767633496
4824,14,Improv_Melody,22,9999,9999,9999,2768133196
4824,14,Improv_Melody,23,9999,9999,9999,2768633964
4824,14,Improv_Melody,24,9999,9999,9999,2769133660
4824,14,Improv_Melody,25,9999,9999,9999,2769633352
4824,14,Improv_Melody,26,9999,9999,9999,2770134092
4824,14,Improv_Melody,27,9999,9999,9999,2770633800
4824,14,Improv_Melody,28,9999,9999,9999,2771133520
4824,14,Improv_Melody,29,9999,9999,9999,2771633220
4824,14,Improv_Melody,30,9999,9999,9999,2772133988
4824,14,Improv_Melody,31,9999,9999,9999,2772633664
4824,14,Improv_Melody,32,9999,9999,9999,2773133364
4824,14,Improv_Melody,33,9999,9999,9999,2773633128
4824,14,Improv_Melody,34,9999,9999,9999,2774133816
4824,14,Improv_Melody,35,9999,9999,9999,2774633524
4824,14,Improv_Melody,36,9999,9999,9999,2775133240
4824,14,Improv_Melody,37,9999,9999,9999,2775633992
4824,14,Improv_Melody,38,9999,9999,9999,2776133716
4824,14,Improv_Melody,39,9999,9999,9999,2776633420
4824,14,Improv_Melody,40,9999,9999,9999,2777133116
4824,14,Improv_Melody,41,9999,9999,9999,2777633884
4824,14,Improv_Melody,42,9999,9999,9999,2778133604
4824,14,Improv_Melody,43,9999,9999,9999,2778633304
4824,14,Improv_Melody,44,9999,9999,9999,2779134072
4824,14,Improv_Melody,45,9999,9999,9999,2779633772
4824,14,Improv_Melody,46,9999,9999,9999,2780133468
4824,14,Improv_Melody,47,9999,9999,9999,2780633144
4824,14,Improv_Melody,48,9999,9999,9999,2781133908
4824,14,Improv_Melody,49,9999,9999,9999,2781633604
4824,14,Improv_Melody,50,9999,9999,9999,2782133300
4824,14,Improv_Melody,51,9999,9999,9999,2782634100
4824,14,Improv_Melody,52,9999,9999,9999,2783133748
4824,14,Improv_Melody,53,9999,9999,9999,2783633476
4824,14,Improv_Melody,54,9999,9999,9999,2784133192
4824,14,Improv_Melody,55,9999,9999,9999,2784633944
4824,14,Improv_Melody,56,9999,9999,9999,2785133660
4824,14,Improv_Melody,57,9999,9999,9999,2785633380
4824,14,Improv_Melody,58,9999,9999,9999,2786134076
4824,14,Improv_Melody,59,9999,9999,9999,2786633780
4824,14,Improv_Melody,60,9999,9999,9999,2787133500
4824,14,Improv_Melody,61,9999,9999,9999,2787633200
4824,14,Improv_Melody,62,9999,9999,9999,2788133968
4824,14,Improv_Melody,63,9999,9999,9999,2788633672
4824,14,Improv_Melody,64,9999,9999,9999,2789133392
4824,14,Improv_Melody,65,9999,9999,9999,2789633108
4824,14,Improv_Melody,66,9999,9999,9999,2790133860
4824,14,Improv_Melody,67,9999,9999,9999,2790633560
4824,14,Improv_Melody,68,9999,9999,9999,2791133256
4824,14,Improv_Melody,69,9999,9999,9999,2791634004
4824,14,Improv_Melody,70,9999,9999,9999,2792133732
4824,14,Improv_Melody,71,9999,9999,9999,2792633432
4824,14,Improv_Melody,72,9999,9999,9999,2793133152
4824,14,Improv_Melody,73,9999,9999,9999,2793633848
4824,14,Improv_Melody,74,9999,9999,9999,2794133568
4824,14,Improv_Melody,75,9999,9999,9999,2794633268
4824,14,Improv_Melody,76,9999,9999,9999,2795134028
4824,14,Improv_Melody,77,9999,9999,9999,2795633736
4824,14,Improv_Melody,78,9999,9999,9999,2796133452
4824,14,Improv_Melody,79,9999,9999,9999,2796633160
4824,14,Improv_Melody,80,9999,9999,9999,2797133924
4824,14,Improv_Melody,81,9999,9999,9999,2797633620
4824,14,Improv_Melody,82,9999,9999,9999,2798133340
4824,14,Improv_Melody,83,9999,9999,9999,2798634092
4824,14,Improv_Melody,84,9999,9999,9999,2799133812
4824,14,Improv_Melody,85,9999,9999,9999,2799633512
4824,14,Improv_Melody,86,9999,9999,9999,2800133232
4824,14,Improv_Melody,87,9999,9999,9999,2800633932
4824,14,Improv_Melody,88,9999,9999,9999,2801133652
4824,14,Improv_Melody,89,9999,9999,9999,2801633364
4824,14,Improv_Melody,90,9999,9999,9999,2802134136
4824,14,Improv_Melody,91,9999,9999,9999,2802633832
4824,14,Improv_Melody,92,9999,9999,9999,2803133556
4824,14,Improv_Melody,93,9999,9999,9999,2803633232
4824,14,Improv_Melody,94,9999,9999,9999,2804133996
4824,14,Improv_Melody,95,9999,9999,9999,2804633676
4824,14,Improv_Melody,96,9999,9999,9999,2805133428
4824,14,Improv_Melody,97,9999,9999,9999,2805633108
4824,14,Improv_Melody,98,9999,9999,9999,2806133876
4824,14,Improv_Melody,99,9999,9999,9999,2806633568
4824,14,Improv_Melody,100,9999,9999,9999,2807133292
4824,14,Improv_Melody,101,9999,9999,9999,2807634036
4824,14,Improv_Melody,102,9999,9999,9999,2808133684
4824,14,Improv_Melody,103,9999,9999,9999,2808633412
4824,14,Improv_Melody,104,9999,9999,9999,2809133108
4824,14,Improv_Melody,105,9999,9999,9999,2809633908
4824,14,Improv_Melody,106,9999,9999,9999,2810133556
4824,14,Improv_Melody,107,9999,9999,9999,2810633284
4824,14,Improv_Melody,108,9999,9999,9999,2811134044
4824,14,Improv_Melody,109,9999,9999,9999,2811633720
4824,14,Improv_Melody,110,9999,9999,9999,2812133440
4824,14,Improv_Melody,111,9999,9999,9999,2812633140
4824,14,Improv_Melody,112,9999,9999,9999,2813133908
4824,14,Improv_Melody,113,9999,9999,9999,2813633624
4824,14,Improv_Melody,114,9999,9999,9999,2814133344
4824,14,Improv_Melody,115,9999,9999,9999,2814634092
4824,14,Improv_Melody,116,9999,9999,9999,2815133812
4824,14,Improv_Melody,117,9999,9999,9999,2815633512
4824,14,Improv_Melody,118,9999,9999,9999,2816133232
4824,14,Improv_Melody,119,9999,9999,9999,2816633932
4824,14,Improv_Melody,120,9999,9999,9999,2817133656
4824,14,Improv_Melody,121,9999,9999,9999,2817633348
4824,14,Improv_Melody,122,9999,9999,9999,2818134108
4824,14,Improv_Melody,123,9999,9999,9999,2818633816
4824,14,Improv_Melody,124,9999,9999,9999,2819133524
4824,14,Improv_Melody,125,9999,9999,9999,2819633252
4824,14,Improv_Melody,126,9999,9999,9999,2820133996
4824,14,Improv_Melody,127,9999,9999,9999,2820633676
4824,14,Improv_Melody,128,9999,9999,9999,2821133392
4824,14,Improv_Melody,129,9999,9999,9999,2821633104
4824,14,Improv_Melody,130,9999,9999,9999,2822133852
4824,14,Improv_Melody,131,9999,9999,9999,2822633552
4824,14,Improv_Melody,132,9999,9999,9999,2823133252
4824,14,Improv_Melody,133,9999,9999,9999,2823633996
4824,14,Improv_Melody,134,9999,9999,9999,2824133700
4824,14,Improv_Melody,135,9999,9999,9999,2824633400
4824,14,Improv_Melody,136,9999,9999,9999,2825133152
4824,14,Improv_Melody,137,9999,9999,9999,2825633892
4824,14,Improv_Melody,138,9999,9999,9999,2826133616
4824,14,Improv_Melody,139,9999,9999,9999,2826633272
4824,14,Improv_Melody,140,9999,9999,9999,2827134016
4824,14,Improv_Melody,141,9999,9999,9999,2827633744
4824,14,Improv_Melody,142,9999,9999,9999,2828133468
4824,14,Improv_Melody,143,9999,9999,9999,2828633168
4824,14,Improv_Melody,144,9999,9999,9999,2829133916
4824,14,Improv_Melody,145,9999,9999,9999,2829633660
4824,14,Improv_Melody,146,9999,9999,9999,2830133304
4824,14,Improv_Melody,147,9999,9999,9999,2830634100
4824,14,Improv_Melody,148,9999,9999,9999,2831133816
4824,14,Improv_Melody,149,9999,9999,9999,2831633524
4824,14,Improv_Melody,150,9999,9999,9999,2832133236
4824,14,Improv_Melody,151,9999,9999,9999,2832633916
4824,14,Improv_Melody,152,9999,9999,9999,2833133632
4824,14,Improv_Melody,153,9999,9999,9999,2833633352
4824,14,Improv_Melody,154,9999,9999,9999,2834134112
4824,14,Improv_Melody,155,9999,9999,9999,2834633820
4824,14,Improv_Melody,156,9999,9999,9999,2835133516
4824,14,Improv_Melody,157,9999,9999,9999,2835633268
4824,14,Improv_Melody,158,9999,9999,9999,2836133936
4824,14,Improv_Melody,159,9999,9999,9999,2836633688
4824,14,Improv_Melody,160,9999,9999,9999,2837133412
4824,14,Improv_Melody,161,9999,9999,9999,2837633104
48