taskRunCount,taskID,taskName,i,channel,pitch,velocity,microseconds
1,0,Ticks_Pract_8,0,5,42,127,1669711172
1,0,Ticks_Pract_8,1,5,42,127,1670511076
1,0,Ticks_Pract_8,2,5,42,127,1671310756
1,0,Ticks_Pract_8,3,5,42,127,1672110440
1,0,Ticks_Pract_8,4,5,42,127,1672911164
1,0,Ticks_Pract_8,5,5,42,127,1673711020
1,0,Ticks_Pract_8,6,5,42,127,1674510776
1,0,Ticks_Pract_8,7,5,42,127,1675310752
1,0,Ticks_Pract_8,8,5,42,127,1676111112
1,0,Ticks_Pract_8,9,5,42,127,1676910940
1,0,Ticks_Pract_8,10,5,42,127,1677710696
1,0,Ticks_Pract_8,11,5,42,127,1678510452
1,0,Ticks_Pract_8,12,1,48,35,1679281740
1,0,Ticks_Pract_8,13,5,42,127,1679311172
1,0,Ticks_Pract_8,14,1,48,37,1680109420
1,0,Ticks_Pract_8,15,5,42,127,1680110928
1,0,Ticks_Pract_8,16,1,48,40,1680894620
1,0,Ticks_Pract_8,17,5,42,127,1680910660
1,0,Ticks_Pract_8,18,1,48,40,1681698172
1,0,Ticks_Pract_8,19,5,42,127,1681710396
1,0,Ticks_Pract_8,20,5,42,127,1682511332
1,0,Ticks_Pract_8,21,1,48,41,1682561500
1,0,Ticks_Pract_8,22,5,42,127,1683310916
1,0,Ticks_Pract_8,23,1,48,37,1683317252
1,0,Ticks_Pract_8,24,5,42,127,1684110800
1,0,Ticks_Pract_8,25,1,48,37,1684113240
1,0,Ticks_Pract_8,26,5,42,127,1684910380
1,0,Ticks_Pract_8,27,1,48,33,1684927264
1,0,Ticks_Pract_8,28,5,42,127,1685711312
1,0,Ticks_Pract_8,29,1,48,33,1685715032
1,0,Ticks_Pract_8,30,5,42,127,1686510996
1,0,Ticks_Pract_8,31,1,48,38,1686521592
1,0,Ticks_Pract_8,32,5,42,127,1687310656
1,0,Ticks_Pract_8,33,1,48,27,1687321476
1,0,Ticks_Pract_8,34,5,42,127,1688110464
1,0,Ticks_Pract_8,35,1,48,44,1688169456
1,0,Ticks_Pract_8,36,5,42,127,1688911392
1,0,Ticks_Pract_8,37,1,48,41,1688940020
1,0,Ticks_Pract_8,38,5,42,127,1689710980
1,0,Ticks_Pract_8,39,1,48,38,1689737884
1,0,Ticks_Pract_8,40,1,48,37,1690479856
1,0,Ticks_Pract_8,41,5,42,127,1690510632
1,0,Ticks_Pract_8,42,5,42,127,1691310520
1,0,Ticks_Pract_8,43,1,48,42,1691337424
1,0,Ticks_Pract_8,44,1,48,35,1692075280
1,0,Ticks_Pract_8,45,5,42,127,1692111364
1,0,Ticks_Pract_8,46,5,42,127,1692910908
1,0,Ticks_Pract_8,47,1,48,37,1692911872
1,0,Ticks_Pract_8,48,1,48,39,1693707536
1,0,Ticks_Pract_8,0,9999,9999,9999,9999,1669708884
1,0,Ticks_Pract_8,1,9999,9999,9999,9999,1670508640
1,0,Ticks_Pract_8,2,9999,9999,9999,9999,1671308396
1,0,Ticks_Pract_8,3,9999,9999,9999,9999,1672108152
1,0,Ticks_Pract_8,4,9999,9999,9999,9999,1672908876
1,0,Ticks_Pract_8,5,9999,9999,9999,9999,1673708656
1,0,Ticks_Pract_8,6,9999,9999,9999,9999,1674508340
1,0,Ticks_Pract_8,7,9999,9999,9999,9999,1675308092
1,0,Ticks_Pract_8,8,9999,9999,9999,9999,1676108896
1,0,Ticks_Pract_8,9,9999,9999,9999,9999,1676908652
1,0,Ticks_Pract_8,10,9999,9999,9999,9999,1677708408
1,0,Ticks_Pract_8,11,9999,9999,9999,9999,1678508088
1,0,Ticks_Pract_8,12,9999,9999,9999,9999,1679308884
1,0,Ticks_Pract_8,13,9999,9999,9999,9999,1680108648
1,0,Ticks_Pract_8,14,9999,9999,9999,9999,1680908376
1,0,Ticks_Pract_8,15,9999,9999,9999,9999,1681708108
1,0,Ticks_Pract_8,16,9999,9999,9999,9999,1682508896
1,0,Ticks_Pract_8,17,9999,9999,9999,9999,1683308628
1,0,Ticks_Pract_8,18,9999,9999,9999,9999,1684108360
1,0,Ticks_Pract_8,19,9999,9999,9999,9999,1684908092
1,0,Ticks_Pract_8,20,9999,9999,9999,9999,1685708876
1,0,Ticks_Pract_8,21,9999,9999,9999,9999,1686508636
1,0,Ticks_Pract_8,22,9999,9999,9999,9999,1687308368
1,0,Ticks_Pract_8,23,9999,9999,9999,9999,1688108100
1,0,Ticks_Pract_8,24,9999,9999,9999,9999,1688908884
1,0,Ticks_Pract_8,25,9999,9999,9999,9999,1689708616
1,0,Ticks_Pract_8,26,9999,9999,9999,9999,1690508344
1,0,Ticks_Pract_8,27,9999,9999,9999,9999,1691308080
1,0,Ticks_Pract_8,28,9999,9999,9999,9999,1692108856
1,0,Ticks_Pract_8,29,9999,9999,9999,9999,1692908620
2,1,Ticks_Pract_5,0,5,42,127,1727608112
2,1,Ticks_Pract_5,1,5,42,127,1728107900
2,1,Ticks_Pract_5,2,5,42,127,1728607616
2,1,Ticks_Pract_5,3,5,42,127,1729108380
2,1,Ticks_Pract_5,4,5,42,127,1729607948
2,1,Ticks_Pract_5,5,5,42,127,1730107888
2,1,Ticks_Pract_5,6,5,42,127,1730607380
2,1,Ticks_Pract_5,7,5,42,127,1731108144
2,1,Ticks_Pract_5,8,1,48,36,1731588820
2,1,Ticks_Pract_5,9,5,42,127,1731607780
2,1,Ticks_Pract_5,10,1,48,38,1732098832
2,1,Ticks_Pract_5,11,5,42,127,1732107696
2,1,Ticks_Pract_5,12,1,48,44,1732592696
2,1,Ticks_Pract_5,13,5,42,127,1732608436
2,1,Ticks_Pract_5,14,5,42,127,1733108064
2,1,Ticks_Pract_5,15,1,48,43,1733112228
2,1,Ticks_Pract_5,16,5,42,127,1733607756
2,1,Ticks_Pract_5,17,1,48,42,1733621720
2,1,Ticks_Pract_5,18,1,48,42,1734085244
2,1,Ticks_Pract_5,19,5,42,127,1734107496
2,1,Ticks_Pract_5,20,5,42,127,1734608320
2,1,Ticks_Pract_5,21,1,48,46,1734632256
2,1,Ticks_Pract_5,22,1,48,43,1735091816
2,1,Ticks_Pract_5,23,5,42,127,1735107932
2,1,Ticks_Pract_5,24,5,42,127,1735607636
2,1,Ticks_Pract_5,25,1,48,45,1735608528
2,1,Ticks_Pract_5,26,5,42,127,1736108376
2,1,Ticks_Pract_5,27,1,48,45,1736109344
2,1,Ticks_Pract_5,28,5,42,127,1736608292
2,1,Ticks_Pract_5,29,1,48,40,1736624576
2,1,Ticks_Pract_5,30,5,42,127,1737107764
2,1,Ticks_Pract_5,31,1,48,45,1737128164
2,1,Ticks_Pract_5,32,5,42,127,1737607608
2,1,Ticks_Pract_5,33,1,48,47,1737626812
2,1,Ticks_Pract_5,34,1,48,47,1738098584
2,1,Ticks_Pract_5,35,5,42,127,1738108416
2,1,Ticks_Pract_5,36,1,48,49,1738606224
2,1,Ticks_Pract_5,37,5,42,127,1738607888
2,1,Ticks_Pract_5,38,1,48,46,1739106456
2,1,Ticks_Pract_5,39,5,42,127,1739108324
2,1,Ticks_Pract_5,40,1,48,44,1739602900
2,1,Ticks_Pract_5,41,5,42,127,1739608324
2,1,Ticks_Pract_5,42,1,48,43,1740095340
2,1,Ticks_Pract_5,43,5,42,127,1740108316
2,1,Ticks_Pract_5,44,1,48,43,1740589876
2,1,Ticks_Pract_5,45,5,42,127,1740607788
2,1,Ticks_Pract_5,46,5,42,127,1741107416
2,1,Ticks_Pract_5,47,1,48,45,1741114120
2,1,Ticks_Pract_5,48,5,42,127,1741608304
2,1,Ticks_Pract_5,49,1,48,50,1741610244
2,1,Ticks_Pract_5,50,1,48,47,1742089932
2,1,Ticks_Pract_5,51,5,42,127,1742108068
2,1,Ticks_Pract_5,52,1,48,45,1742593588
2,1,Ticks_Pract_5,53,5,42,127,1742607764
2,1,Ticks_Pract_5,54,1,48,46,1743094480
2,1,Ticks_Pract_5,55,5,42,127,1743107384
2,1,Ticks_Pract_5,56,1,48,50,1743599264
2,1,Ticks_Pract_5,57,5,42,127,1743608124
2,1,Ticks_Pract_5,58,5,42,127,1744107824
2,1,Ticks_Pract_5,59,1,48,46,1744112436
2,1,Ticks_Pract_5,60,1,48,43,1744572524
2,1,Ticks_Pract_5,61,5,42,127,1744607564
2,1,Ticks_Pract_5,62,1,48,48,1745100940
2,1,Ticks_Pract_5,63,5,42,127,1745108452
2,1,Ticks_Pract_5,64,1,48,57,1745600480
2,1,Ticks_Pract_5,65,5,42,127,1745608148
2,1,Ticks_Pract_5,66,1,48,52,1746083572
2,1,Ticks_Pract_5,67,5,42,127,1746107844
2,1,Ticks_Pract_5,68,1,48,48,1746587160
2,1,Ticks_Pract_5,69,5,42,127,1746607540
2,1,Ticks_Pract_5,70,5,42,127,1747108284
2,1,Ticks_Pract_5,71,1,48,49,1747146408
2,1,Ticks_Pract_5,0,9999,9999,9999,9999,1727605820
2,1,Ticks_Pract_5,1,9999,9999,9999,9999,1728105536
2,1,Ticks_Pract_5,2,9999,9999,9999,9999,1728605252
2,1,Ticks_Pract_5,3,9999,9999,9999,9999,1729106016
2,1,Ticks_Pract_5,4,9999,9999,9999,9999,1729605732
2,1,Ticks_Pract_5,5,9999,9999,9999,9999,1730105448
2,1,Ticks_Pract_5,6,9999,9999,9999,9999,1730605164
2,1,Ticks_Pract_5,7,9999,9999,9999,9999,1731105852
2,1,Ticks_Pract_5,8,9999,9999,9999,9999,1731605564
2,1,Ticks_Pract_5,9,9999,9999,9999,9999,1732105332
2,1,Ticks_Pract_5,10,9999,9999,9999,9999,1732606072
2,1,Ticks_Pract_5,11,9999,9999,9999,9999,1733105776
2,1,Ticks_Pract_5,12,9999,9999,9999,9999,1733605468
2,1,Ticks_Pract_5,13,9999,9999,9999,9999,1734105208
2,1,Ticks_Pract_5,14,9999,9999,9999,9999,1734605880
2,1,Ticks_Pract_5,15,9999,9999,9999,9999,1735105644
2,1,Ticks_Pract_5,16,9999,9999,9999,9999,1735605344
2,1,Ticks_Pract_5,17,9999,9999,9999,9999,1736106084
2,1,Ticks_Pract_5,18,9999,9999,9999,9999,1736605780
2,1,Ticks_Pract_5,19,9999,9999,9999,9999,1737105476
2,1,Ticks_Pract_5,20,9999,9999,9999,9999,1737605168
2,1,Ticks_Pract_5,21,9999,9999,9999,9999,1738105904
2,1,Ticks_Pract_5,22,9999,9999,9999,9999,1738605624
2,1,Ticks_Pract_5,23,9999,9999,9999,9999,1739105372
2,1,Ticks_Pract_5,24,9999,9999,9999,9999,1739606112
2,1,Ticks_Pract_5,25,9999,9999,9999,9999,1740105804
2,1,Ticks_Pract_5,26,9999,9999,9999,9999,1740605500
2,1,Ticks_Pract_5,27,9999,9999,9999,9999,1741105200
2,1,Ticks_Pract_5,28,9999,9999,9999,9999,1741605940
2,1,Ticks_Pract_5,29,9999,9999,9999,9999,1742105704
2,1,Ticks_Pract_5,30,9999,9999,9999,9999,1742605400
2,1,Ticks_Pract_5,31,9999,9999,9999,9999,1743105092
2,1,Ticks_Pract_5,32,9999,9999,9999,9999,1743605836
2,1,Ticks_Pract_5,33,9999,9999,9999,9999,1744105536
2,1,Ticks_Pract_5,34,9999,9999,9999,9999,1744605272
2,1,Ticks_Pract_5,35,9999,9999,9999,9999,1745106016
2,1,Ticks_Pract_5,36,9999,9999,9999,9999,1745605708
2,1,Ticks_Pract_5,37,9999,9999,9999,9999,1746105404
2,1,Ticks_Pract_5,38,9999,9999,9999,9999,1746605176
2,1,Ticks_Pract_5,39,9999,9999,9999,9999,1747105848
3,2,T1_SMS_8,0,5,42,127,1845635348
3,2,T1_SMS_8,1,5,42,127,1846436148
3,2,T1_SMS_8,2,5,42,127,1847235828
3,2,T1_SMS_8,3,5,42,127,1848035980
3,2,T1_SMS_8,4,5,42,127,1848835364
3,2,T1_SMS_8,5,5,42,127,1849636168
3,2,T1_SMS_8,6,5,42,127,1850435996
3,2,T1_SMS_8,7,5,42,127,1851235900
3,2,T1_SMS_8,8,5,42,127,1852035508
3,2,T1_SMS_8,9,1,48,38,1852064136
3,2,T1_SMS_8,10,1,48,43,1852810668
3,2,T1_SMS_8,11,5,42,127,1852836060
3,2,T1_SMS_8,12,1,48,48,1853631872
3,2,T1_SMS_8,13,5,42,127,1853636016
3,2,T1_SMS_8,14,1,48,41,1854435180
3,2,T1_SMS_8,15,5,42,127,1854436896
3,2,T1_SMS_8,16,5,42,127,1855235512
3,2,T1_SMS_8,17,1,48,41,1855255236
3,2,T1_SMS_8,18,1,48,38,1856017180
3,2,T1_SMS_8,19,5,42,127,1856036064
3,2,T1_SMS_8,20,5,42,127,1856835876
3,2,T1_SMS_8,21,1,48,43,1856845880
3,2,T1_SMS_8,22,5,42,127,1857635612
3,2,T1_SMS_8,23,1,48,48,1857667900
3,2,T1_SMS_8,24,5,42,127,1858435640
3,2,T1_SMS_8,25,1,48,44,1858457764
3,2,T1_SMS_8,26,5,42,127,1859236124
3,2,T1_SMS_8,27,1,48,44,1859237540
3,2,T1_SMS_8,28,5,42,127,1860036004
3,2,T1_SMS_8,29,1,48,48,1860050868
3,2,T1_SMS_8,30,5,42,127,1860835540
3,2,T1_SMS_8,31,1,48,49,1860890872
3,2,T1_SMS_8,32,5,42,127,1861635648
3,2,T1_SMS_8,33,1,48,50,1861677368
3,2,T1_SMS_8,34,5,42,127,1862436056
3,2,T1_SMS_8,35,1,48,45,1862485772
3,2,T1_SMS_8,36,5,42,127,1863235936
3,2,T1_SMS_8,37,1,48,42,1863241976
3,2,T1_SMS_8,38,1,48,47,1864032568
3,2,T1_SMS_8,39,5,42,127,1864035664
3,2,T1_SMS_8,40,1,48,34,1864817940
3,2,T1_SMS_8,41,5,42,127,1864835620
3,2,T1_SMS_8,42,1,48,47,1865609372
3,2,T1_SMS_8,43,5,42,127,1865636328
3,2,T1_SMS_8,44,1,48,54,1866433112
3,2,T1_SMS_8,45,5,42,127,1866435836
3,2,T1_SMS_8,46,1,48,50,1867230628
3,2,T1_SMS_8,47,5,42,127,1867235744
3,2,T1_SMS_8,48,5,42,127,1868035484
3,2,T1_SMS_8,49,1,48,49,1868040772
3,2,T1_SMS_8,50,5,42,127,1868836188
3,2,T1_SMS_8,51,1,48,49,1868845592
3,2,T1_SMS_8,52,1,48,54,1869627060
3,2,T1_SMS_8,53,5,42,127,1869635916
3,2,T1_SMS_8,54,1,48,50,1870421928
3,2,T1_SMS_8,55,5,42,127,1870435652
3,2,T1_SMS_8,56,1,48,49,1871225552
3,2,T1_SMS_8,57,5,42,127,1871235460
3,2,T1_SMS_8,58,1,48,56,1872027980
3,2,T1_SMS_8,59,5,42,127,1872036312
3,2,T1_SMS_8,60,5,42,127,1872836276
3,2,T1_SMS_8,61,1,48,40,1872886172
3,2,T1_SMS_8,62,1,48,52,1873630540
3,2,T1_SMS_8,63,5,42,127,1873635804
3,2,T1_SMS_8,64,5,42,127,1874435544
3,2,T1_SMS_8,65,1,48,55,1874448236
3,2,T1_SMS_8,66,1,48,48,1875229932
3,2,T1_SMS_8,67,5,42,127,1875236168
3,2,T1_SMS_8,68,5,42,127,1876036056
3,2,T1_SMS_8,69,1,48,51,1876042920
3,2,T1_SMS_8,70,1,48,48,1876827528
3,2,T1_SMS_8,71,5,42,127,1876835784
3,2,T1_SMS_8,72,1,48,42,1877625388
3,2,T1_SMS_8,73,5,42,127,1877635296
3,2,T1_SMS_8,74,5,42,127,1878436380
3,2,T1_SMS_8,75,1,48,50,1878450944
3,2,T1_SMS_8,76,1,48,51,1879223204
3,2,T1_SMS_8,77,5,42,127,1879236032
3,2,T1_SMS_8,78,5,42,127,1880035796
3,2,T1_SMS_8,79,1,48,55,1880054768
3,2,T1_SMS_8,80,5,42,127,1880835380
3,2,T1_SMS_8,81,1,48,53,1880872088
3,2,T1_SMS_8,82,5,42,127,1881636160
3,2,T1_SMS_8,83,1,48,51,1881638832
3,2,T1_SMS_8,84,5,42,127,1882435892
3,2,T1_SMS_8,85,1,48,49,1882447020
3,2,T1_SMS_8,86,5,42,127,1883235700
3,2,T1_SMS_8,87,1,48,43,1883271132
3,2,T1_SMS_8,88,5,42,127,1884035360
3,2,T1_SMS_8,89,1,48,46,1884079916
3,2,T1_SMS_8,90,5,42,127,1884836064
3,2,T1_SMS_8,91,1,48,50,1884841800
3,2,T1_SMS_8,92,5,42,127,1885636020
3,2,T1_SMS_8,93,1,48,48,1885644004
3,2,T1_SMS_8,94,5,42,127,1886435856
3,2,T1_SMS_8,95,1,48,42,1886468448
3,2,T1_SMS_8,96,5,42,127,1887235364
3,2,T1_SMS_8,97,1,48,43,1887256888
3,2,T1_SMS_8,98,5,42,127,1888036144
3,2,T1_SMS_8,99,1,48,54,1888039416
3,2,T1_SMS_8,100,5,42,127,1888836100
3,2,T1_SMS_8,101,1,48,59,1888863828
3,2,T1_SMS_8,102,5,42,127,1889635836
3,2,T1_SMS_8,103,1,48,51,1889643292
3,2,T1_SMS_8,104,5,42,127,1890435496
3,2,T1_SMS_8,105,1,48,46,1890468236
3,2,T1_SMS_8,106,5,42,127,1891236052
3,2,T1_SMS_8,107,1,48,47,1891256220
3,2,T1_SMS_8,108,1,48,50,1892023332
3,2,T1_SMS_8,109,5,42,127,1892035928
3,2,T1_SMS_8,110,1,48,47,1892833496
3,2,T1_SMS_8,111,5,42,127,1892835836
3,2,T1_SMS_8,112,1,48,47,1893608984
3,2,T1_SMS_8,113,5,42,127,1893635492
3,2,T1_SMS_8,114,5,42,127,1894436132
3,2,T1_SMS_8,115,1,48,57,1894466248
3,2,T1_SMS_8,116,5,42,127,1895236012
3,2,T1_SMS_8,117,1,48,53,1895284384
3,2,T1_SMS_8,118,5,42,127,1896035896
3,2,T1_SMS_8,119,1,48,55,1896095636
3,2,T1_SMS_8,120,5,42,127,1896835556
3,2,T1_SMS_8,121,1,48,49,1896875772
3,2,T1_SMS_8,122,5,42,127,1897636112
3,2,T1_SMS_8,123,1,48,50,1897654936
3,2,T1_SMS_8,124,1,48,57,1898420020
3,2,T1_SMS_8,125,5,42,127,1898435912
3,2,T1_SMS_8,126,1,48,56,1899226492
3,2,T1_SMS_8,127,5,42,127,1899235796
3,2,T1_SMS_8,128,1,48,59,1900013204
3,2,T1_SMS_8,129,5,42,127,1900035452
3,2,T1_SMS_8,130,1,48,59,1900835188
3,2,T1_SMS_8,131,5,42,127,1900836908
3,2,T1_SMS_8,132,5,42,127,1901635900
3,2,T1_SMS_8,133,1,48,59,1901666996
3,2,T1_SMS_8,134,5,42,127,1902435708
3,2,T1_SMS_8,135,1,48,50,1902447732
3,2,T1_SMS_8,136,5,42,127,1903235444
3,2,T1_SMS_8,137,1,48,53,1903279700
3,2,T1_SMS_8,138,5,42,127,1904036148
3,2,T1_SMS_8,139,1,48,41,1904092696
3,2,T1_SMS_8,140,5,42,127,1904835880
3,2,T1_SMS_8,141,1,48,52,1904875676
3,2,T1_SMS_8,142,5,42,127,1905635564
3,2,T1_SMS_8,143,1,48,46,1905661572
3,2,T1_SMS_8,144,5,42,127,1906435668
3,2,T1_SMS_8,145,1,48,47,1906453604
3,2,T1_SMS_8,146,5,42,127,1907236152
3,2,T1_SMS_8,147,1,48,46,1907261712
3,2,T1_SMS_8,148,5,42,127,1908035812
3,2,T1_SMS_8,149,1,48,53,1908038556
3,2,T1_SMS_8,150,5,42,127,1908835620
3,2,T1_SMS_8,151,1,48,52,1908848536
3,2,T1_SMS_8,152,1,48,52,1909629852
3,2,T1_SMS_8,153,5,42,127,1909635644
3,2,T1_SMS_8,154,5,42,127,1910436356
3,2,T1_SMS_8,155,1,48,50,1910473656
3,2,T1_SMS_8,156,1,48,46,1911207552
3,2,T1_SMS_8,157,5,42,127,1911236080
3,2,T1_SMS_8,158,1,48,46,1912022320
3,2,T1_SMS_8,159,5,42,127,1912035540
3,2,T1_SMS_8,160,1,48,49,1912835212
3,2,T1_SMS_8,161,5,42,127,1912836772
3,2,T1_SMS_8,162,5,42,127,1913636212
3,2,T1_SMS_8,163,1,48,55,1913657284
3,2,T1_SMS_8,164,5,42,127,1914435796
3,2,T1_SMS_8,165,1,48,47,1914452084
3,2,T1_SMS_8,166,5,42,127,1915235604
3,2,T1_SMS_8,167,1,48,65,1915260340
3,2,T1_SMS_8,168,5,42,127,1916035560
3,2,T1_SMS_8,169,1,48,62,1916048708
3,2,T1_SMS_8,170,1,48,62,1916818052
3,2,T1_SMS_8,171,5,42,127,1916836336
3,2,T1_SMS_8,172,5,42,127,1917635852
3,2,T1_SMS_8,173,1,48,63,1917643084
3,2,T1_SMS_8,174,5,42,127,1918435684
3,2,T1_SMS_8,175,1,48,58,1918450468
3,2,T1_SMS_8,176,5,42,127,1919235564
3,2,T1_SMS_8,177,1,48,55,1919269504
3,2,T1_SMS_8,178,1,48,62,1920023596
3,2,T1_SMS_8,179,5,42,127,1920036192
3,2,T1_SMS_8,180,1,48,54,1920822800
3,2,T1_SMS_8,181,5,42,127,1920836148
3,2,T1_SMS_8,182,5,42,127,1921635588
3,2,T1_SMS_8,183,1,48,56,1921643944
3,2,T1_SMS_8,184,5,42,127,1922435396
3,2,T1_SMS_8,185,1,48,58,1922448092
3,2,T1_SMS_8,186,5,42,127,1923236176
3,2,T1_SMS_8,187,1,48,61,1923285372
3,2,T1_SMS_8,188,5,42,127,1924036132
3,2,T1_SMS_8,189,1,48,53,1924069120
3,2,T1_SMS_8,190,1,48,61,1924815408
3,2,T1_SMS_8,191,5,42,127,1924835584
3,2,T1_SMS_8,192,1,48,64,1925628556
3,2,T1_SMS_8,193,5,42,127,1925635392
3,2,T1_SMS_8,194,1,48,54,1926417216
3,2,T1_SMS_8,195,5,42,127,1926436172
3,2,T1_SMS_8,196,5,42,127,1927236064
3,2,T1_SMS_8,197,1,48,61,1927240008
3,2,T1_SMS_8,198,5,42,127,1928035796
3,2,T1_SMS_8,199,1,48,54,1928057920
3,2,T1_SMS_8,200,5,42,127,1928835380
3,2,T1_SMS_8,201,1,48,54,1928869244
3,2,T1_SMS_8,202,5,42,127,1929636160
3,2,T1_SMS_8,203,1,48,62,1929658952
3,2,T1_SMS_8,204,5,42,127,1930436044
3,2,T1_SMS_8,205,1,48,61,1930447020
3,2,T1_SMS_8,206,5,42,127,1931235948
3,2,T1_SMS_8,207,1,48,61,1931269064
3,2,T1_SMS_8,208,5,42,127,1932035532
3,2,T1_SMS_8,209,1,48,62,1932099536
3,2,T1_SMS_8,210,5,42,127,1932836164
3,2,T1_SMS_8,211,1,48,52,1932866284
3,2,T1_SMS_8,212,5,42,127,1933635900
3,2,T1_SMS_8,213,1,48,41,1933697588
3,2,T1_SMS_8,214,1,48,50,1934425716
3,2,T1_SMS_8,215,5,42,127,1934435776
3,2,T1_SMS_8,216,1,48,50,1935201744
3,2,T1_SMS_8,217,5,42,127,1935235360
3,2,T1_SMS_8,218,1,48,60,1935986740
3,2,T1_SMS_8,219,5,42,127,1936036064
3,2,T1_SMS_8,220,5,42,127,1936836028
3,2,T1_SMS_8,221,1,48,46,1936846256
3,2,T1_SMS_8,222,5,42,127,1937635788
3,2,T1_SMS_8,223,1,48,57,1937636684
3,2,T1_SMS_8,224,5,42,127,1938435448
3,2,T1_SMS_8,225,1,48,54,1938451884
3,2,T1_SMS_8,226,5,42,127,1939236156
3,2,T1_SMS_8,227,1,48,51,1939282580
3,2,T1_SMS_8,228,5,42,127,1940035960
3,2,T1_SMS_8,229,1,48,49,1940057784
3,2,T1_SMS_8,230,5,42,127,1940835844
3,2,T1_SMS_8,231,1,48,60,1940861556
3,2,T1_SMS_8,232,1,48,47,1941607496
3,2,T1_SMS_8,0,9999,9999,9999,9999,1845633132
3,2,T1_SMS_8,1,9999,9999,9999,9999,1846433860
3,2,T1_SMS_8,2,9999,9999,9999,9999,1847233616
3,2,T1_SMS_8,3,9999,9999,9999,9999,1848033396
3,2,T1_SMS_8,4,9999,9999,9999,9999,1848833076
3,2,T1_SMS_8,5,9999,9999,9999,9999,1849633880
3,2,T1_SMS_8,6,9999,9999,9999,9999,1850433636
3,2,T1_SMS_8,7,9999,9999,9999,9999,1851233392
3,2,T1_SMS_8,8,9999,9999,9999,9999,1852033072
3,2,T1_SMS_8,9,9999,9999,9999,9999,1852833844
3,2,T1_SMS_8,10,9999,9999,9999,9999,1853633652
3,2,T1_SMS_8,11,9999,9999,9999,9999,1854433344
3,2,T1_SMS_8,12,9999,9999,9999,9999,1855233076
3,2,T1_SMS_8,13,9999,9999,9999,9999,1856033848
3,2,T1_SMS_8,14,9999,9999,9999,9999,1856833588
3,2,T1_SMS_8,15,9999,9999,9999,9999,1857633396
3,2,T1_SMS_8,16,9999,9999,9999,9999,1858433128
3,2,T1_SMS_8,17,9999,9999,9999,9999,1859233908
3,2,T1_SMS_8,18,9999,9999,9999,9999,1860033644
3,2,T1_SMS_8,19,9999,9999,9999,9999,1860833328
3,2,T1_SMS_8,20,9999,9999,9999,9999,1861633136
3,2,T1_SMS_8,21,9999,9999,9999,9999,1862433840
3,2,T1_SMS_8,22,9999,9999,9999,9999,1863233648
3,2,T1_SMS_8,23,9999,9999,9999,9999,1864033376
3,2,T1_SMS_8,24,9999,9999,9999,9999,1864833112
3,2,T1_SMS_8,25,9999,9999,9999,9999,1865633892
3,2,T1_SMS_8,26,9999,9999,9999,9999,1866433624
3,2,T1_SMS_8,27,9999,9999,9999,9999,1867233384
3,2,T1_SMS_8,28,9999,9999,9999,9999,1868033120
3,2,T1_SMS_8,29,9999,9999,9999,9999,1868833900
3,2,T1_SMS_8,30,9999,9999,9999,9999,1869633628
3,2,T1_SMS_8,31,9999,9999,9999,9999,1870433364
3,2,T1_SMS_8,32,9999,9999,9999,9999,1871233096
3,2,T1_SMS_8,33,9999,9999,9999,9999,1872033876
3,2,T1_SMS_8,34,9999,9999,9999,9999,1872833616
3,2,T1_SMS_8,35,9999,9999,9999,9999,1873633368
3,2,T1_SMS_8,36,9999,9999,9999,9999,1874433108
3,2,T1_SMS_8,37,9999,9999,9999,9999,1875233880
3,2,T1_SMS_8,38,9999,9999,9999,9999,1876033620
3,2,T1_SMS_8,39,9999,9999,9999,9999,1876833348
3,2,T1_SMS_8,40,9999,9999,9999,9999,1877633080
3,2,T1_SMS_8,41,9999,9999,9999,9999,1878433868
3,2,T1_SMS_8,42,9999,9999,9999,9999,1879233596
3,2,T1_SMS_8,43,9999,9999,9999,9999,1880033360
3,2,T1_SMS_8,44,9999,9999,9999,9999,1880833092
3,2,T1_SMS_8,45,9999,9999,9999,9999,1881633872
3,2,T1_SMS_8,46,9999,9999,9999,9999,1882433604
3,2,T1_SMS_8,47,9999,9999,9999,9999,1883233340
3,2,T1_SMS_8,48,9999,9999,9999,9999,1884033072
3,2,T1_SMS_8,49,9999,9999,9999,9999,1884833852
3,2,T1_SMS_8,50,9999,9999,9999,9999,1885633584
3,2,T1_SMS_8,51,9999,9999,9999,9999,1886433344
3,2,T1_SMS_8,52,9999,9999,9999,9999,1887233076
3,2,T1_SMS_8,53,9999,9999,9999,9999,1888033856
3,2,T1_SMS_8,54,9999,9999,9999,9999,1888833592
3,2,T1_SMS_8,55,9999,9999,9999,9999,1889633400
3,2,T1_SMS_8,56,9999,9999,9999,9999,1890433132
3,2,T1_SMS_8,57,9999,9999,9999,9999,1891233840
3,2,T1_SMS_8,58,9999,9999,9999,9999,1892033640
3,2,T1_SMS_8,59,9999,9999,9999,9999,1892833368
3,2,T1_SMS_8,60,9999,9999,9999,9999,1893633132
3,2,T1_SMS_8,61,9999,9999,9999,9999,1894433844
3,2,T1_SMS_8,62,9999,9999,9999,9999,1895233652
3,2,T1_SMS_8,63,9999,9999,9999,9999,1896033384
3,2,T1_SMS_8,64,9999,9999,9999,9999,1896833120
3,2,T1_SMS_8,65,9999,9999,9999,9999,1897633900
3,2,T1_SMS_8,66,9999,9999,9999,9999,1898433624
3,2,T1_SMS_8,67,9999,9999,9999,9999,1899233360
3,2,T1_SMS_8,68,9999,9999,9999,9999,1900033092
3,2,T1_SMS_8,69,9999,9999,9999,9999,1900833880
3,2,T1_SMS_8,70,9999,9999,9999,9999,1901633612
3,2,T1_SMS_8,71,9999,9999,9999,9999,1902433344
3,2,T1_SMS_8,72,9999,9999,9999,9999,1903233080
3,2,T1_SMS_8,73,9999,9999,9999,9999,1904033860
3,2,T1_SMS_8,74,9999,9999,9999,9999,1904833592
3,2,T1_SMS_8,75,9999,9999,9999,9999,1905633352
3,2,T1_SMS_8,76,9999,9999,9999,9999,1906433084
3,2,T1_SMS_8,77,9999,9999,9999,9999,1907233864
3,2,T1_SMS_8,78,9999,9999,9999,9999,1908033596
3,2,T1_SMS_8,79,9999,9999,9999,9999,1908833332
3,2,T1_SMS_8,80,9999,9999,9999,9999,1909633132
3,2,T1_SMS_8,81,9999,9999,9999,9999,1910433844
3,2,T1_SMS_8,82,9999,9999,9999,9999,1911233644
3,2,T1_SMS_8,83,9999,9999,9999,9999,1912033328
3,2,T1_SMS_8,84,9999,9999,9999,9999,1912833068
3,2,T1_SMS_8,85,9999,9999,9999,9999,1913633852
3,2,T1_SMS_8,86,9999,9999,9999,9999,1914433584
3,2,T1_SMS_8,87,9999,9999,9999,9999,1915233392
3,2,T1_SMS_8,88,9999,9999,9999,9999,1916033124
3,2,T1_SMS_8,89,9999,9999,9999,9999,1916833896
3,2,T1_SMS_8,90,9999,9999,9999,9999,1917633636
3,2,T1_SMS_8,91,9999,9999,9999,9999,1918433396
3,2,T1_SMS_8,92,9999,9999,9999,9999,1919233128
3,2,T1_SMS_8,93,9999,9999,9999,9999,1920033904
3,2,T1_SMS_8,94,9999,9999,9999,9999,1920833636
3,2,T1_SMS_8,95,9999,9999,9999,9999,1921633376
3,2,T1_SMS_8,96,9999,9999,9999,9999,1922433108
3,2,T1_SMS_8,97,9999,9999,9999,9999,1923233888
3,2,T1_SMS_8,98,9999,9999,9999,9999,1924033620
3,2,T1_SMS_8,99,9999,9999,9999,9999,1924833372
3,2,T1_SMS_8,100,9999,9999,9999,9999,1925633104
3,2,T1_SMS_8,101,9999,9999,9999,9999,1926433884
3,2,T1_SMS_8,102,9999,9999,9999,9999,1927233624
3,2,T1_SMS_8,103,9999,9999,9999,9999,1928033356
3,2,T1_SMS_8,104,9999,9999,9999,9999,1928833092
3,2,T1_SMS_8,105,9999,9999,9999,9999,1929633872
3,2,T1_SMS_8,106,9999,9999,9999,9999,1930433604
3,2,T1_SMS_8,107,9999,9999,9999,9999,1931233364
3,2,T1_SMS_8,108,9999,9999,9999,9999,1932033096
3,2,T1_SMS_8,109,9999,9999,9999,9999,1932833876
3,2,T1_SMS_8,110,9999,9999,9999,9999,1933633612
3,2,T1_SMS_8,111,9999,9999,9999,9999,1934433336
3,2,T1_SMS_8,112,9999,9999,9999,9999,1935233072
3,2,T1_SMS_8,113,9999,9999,9999,9999,1936033852
3,2,T1_SMS_8,114,9999,9999,9999,9999,1936833592
3,2,T1_SMS_8,115,9999,9999,9999,9999,1937633352
3,2,T1_SMS_8,116,9999,9999,9999,9999,1938433084
3,2,T1_SMS_8,117,9999,9999,9999,9999,1939233868
3,2,T1_SMS_8,118,9999,9999,9999,9999,1940033600
3,2,T1_SMS_8,119,9999,9999,9999,9999,1940833336
4,4,T1_SMS_5,0,5,42,127,2028137968
4,4,T1_SMS_5,1,5,42,127,2028637684
4,4,T1_SMS_5,2,5,42,127,2029138148
4,4,T1_SMS_5,3,5,42,127,2029638016
4,4,T1_SMS_5,4,1,48,45,2030131704
4,4,T1_SMS_5,5,5,42,127,2030137724
4,4,T1_SMS_5,6,1,48,37,2030621752
4,4,T1_SMS_5,7,5,42,127,2030637640
4,4,T1_SMS_5,8,1,48,49,2031106636
4,4,T1_SMS_5,9,5,42,127,2031138088
4,4,T1_SMS_5,10,1,48,58,2031619644
4,4,T1_SMS_5,11,5,42,127,2031637932
4,4,T1_SMS_5,12,5,42,127,2032137856
4,4,T1_SMS_5,13,1,48,53,2032140380
4,4,T1_SMS_5,14,1,48,51,2032633692
4,4,T1_SMS_5,15,5,42,127,2032638740
4,4,T1_SMS_5,16,1,48,54,2033135552
4,4,T1_SMS_5,17,5,42,127,2033138136
4,4,T1_SMS_5,18,5,42,127,2033637616
4,4,T1_SMS_5,19,1,48,65,2033652252
4,4,T1_SMS_5,20,5,42,127,2034137532
4,4,T1_SMS_5,21,1,48,62,2034157708
4,4,T1_SMS_5,22,5,42,127,2034638324
4,4,T1_SMS_5,23,1,48,57,2034660016
4,4,T1_SMS_5,24,1,48,65,2035134984
4,4,T1_SMS_5,25,5,42,127,2035137864
4,4,T1_SMS_5,26,5,42,127,2035637712
4,4,T1_SMS_5,27,1,48,50,2035665364
4,4,T1_SMS_5,28,5,42,127,2036138528
4,4,T1_SMS_5,29,1,48,52,2036148004
4,4,T1_SMS_5,30,5,42,127,2036637924
4,4,T1_SMS_5,31,1,48,55,2036638964
4,4,T1_SMS_5,32,5,42,127,2037137768
4,4,T1_SMS_5,33,1,48,65,2037156444
4,4,T1_SMS_5,34,5,42,127,2037637540
4,4,T1_SMS_5,35,1,48,62,2037648060
4,4,T1_SMS_5,36,1,48,59,2038136080
4,4,T1_SMS_5,37,5,42,127,2038138272
4,4,T1_SMS_5,38,5,42,127,2038637900
4,4,T1_SMS_5,39,1,48,46,2038654256
4,4,T1_SMS_5,40,1,48,62,2039117652
4,4,T1_SMS_5,41,5,42,127,2039137588
4,4,T1_SMS_5,42,1,48,61,2039610544
4,4,T1_SMS_5,43,5,42,127,2039638476
4,4,T1_SMS_5,44,5,42,127,2040138032
4,4,T1_SMS_5,45,1,48,63,2040151172
4,4,T1_SMS_5,46,1,48,58,2040626540
4,4,T1_SMS_5,47,5,42,127,2040637792
4,4,T1_SMS_5,48,1,48,51,2041122044
4,4,T1_SMS_5,49,5,42,127,2041137636
4,4,T1_SMS_5,50,1,48,51,2041626224
4,4,T1_SMS_5,51,5,42,127,2041638380
4,4,T1_SMS_5,52,1,48,50,2042127644
4,4,T1_SMS_5,53,5,42,127,2042137924
4,4,T1_SMS_5,54,1,48,49,2042603628
4,4,T1_SMS_5,55,5,42,127,2042637620
4,4,T1_SMS_5,56,1,48,54,2043096964
4,4,T1_SMS_5,57,5,42,127,2043138512
4,4,T1_SMS_5,58,1,48,52,2043621116
4,4,T1_SMS_5,59,5,42,127,2043638356
4,4,T1_SMS_5,60,1,48,59,2044131208
4,4,T1_SMS_5,61,5,42,127,2044137756
4,4,T1_SMS_5,62,1,48,54,2044610836
4,4,T1_SMS_5,63,5,42,127,2044637672
4,4,T1_SMS_5,64,1,48,55,2045116060
4,4,T1_SMS_5,65,5,42,127,2045138388
4,4,T1_SMS_5,66,1,48,59,2045615056
4,4,T1_SMS_5,67,5,42,127,2045638208
4,4,T1_SMS_5,68,1,48,51,2046129568
4,4,T1_SMS_5,69,5,42,127,2046137828
4,4,T1_SMS_5,70,1,48,55,2046630308
4,4,T1_SMS_5,71,5,42,127,2046637452
4,4,T1_SMS_5,72,1,48,55,2047136376
4,4,T1_SMS_5,73,5,42,127,2047138340
4,4,T1_SMS_5,74,1,48,51,2047625808
4,4,T1_SMS_5,75,5,42,127,2047637888
4,4,T1_SMS_5,76,5,42,127,2048137516
4,4,T1_SMS_5,77,1,48,58,2048149384
4,4,T1_SMS_5,78,1,48,52,2048621384
4,4,T1_SMS_5,79,5,42,127,2048638400
4,4,T1_SMS_5,80,5,42,127,2049138176
4,4,T1_SMS_5,81,1,48,54,2049157748
4,4,T1_SMS_5,82,1,48,57,2049627580
4,4,T1_SMS_5,83,5,42,127,2049637716
4,4,T1_SMS_5,84,1,48,54,2050137564
4,4,T1_SMS_5,85,5,42,127,2050139208
4,4,T1_SMS_5,86,5,42,127,2050638232
4,4,T1_SMS_5,87,1,48,48,2050640172
4,4,T1_SMS_5,88,1,48,57,2051131608
4,4,T1_SMS_5,89,5,42,127,2051137848
4,4,T1_SMS_5,90,1,48,54,2051619556
4,4,T1_SMS_5,91,5,42,127,2051637544
4,4,T1_SMS_5,92,5,42,127,2052138292
4,4,T1_SMS_5,93,1,48,58,2052140884
4,4,T1_SMS_5,94,1,48,55,2052619240
4,4,T1_SMS_5,95,5,42,127,2052638200
4,4,T1_SMS_5,96,5,42,127,2053137904
4,4,T1_SMS_5,97,1,48,51,2053147232
4,4,T1_SMS_5,98,1,48,56,2053616012
4,4,T1_SMS_5,99,5,42,127,2053637592
4,4,T1_SMS_5,100,1,48,60,2054122668
4,4,T1_SMS_5,101,5,42,127,2054138112
4,4,T1_SMS_5,102,1,48,50,2054636296
4,4,T1_SMS_5,103,5,42,127,2054638176
4,4,T1_SMS_5,104,1,48,54,2055134844
4,4,T1_SMS_5,105,5,42,127,2055137500
4,4,T1_SMS_5,106,5,42,127,2055638396
4,4,T1_SMS_5,107,1,48,49,2055641516
4,4,T1_SMS_5,108,5,42,127,2056138068
4,4,T1_SMS_5,109,1,48,45,2056177716
4,4,T1_SMS_5,110,5,42,127,2056637764
4,4,T1_SMS_5,111,1,48,53,2056650156
4,4,T1_SMS_5,112,1,48,54,2057118564
4,4,T1_SMS_5,113,5,42,127,2057137452
4,4,T1_SMS_5,114,1,48,46,2057628652
4,4,T1_SMS_5,115,5,42,127,2057638120
4,4,T1_SMS_5,116,1,48,60,2058125880
4,4,T1_SMS_5,117,5,42,127,2058138256
4,4,T1_SMS_5,118,1,48,53,2058589304
4,4,T1_SMS_5,119,5,42,127,2058637804
4,4,T1_SMS_5,120,1,48,50,2059127144
4,4,T1_SMS_5,121,5,42,127,2059138396
4,4,T1_SMS_5,122,1,48,43,2059588620
4,4,T1_SMS_5,123,5,42,127,2059638168
4,4,T1_SMS_5,124,1,48,51,2060112844
4,4,T1_SMS_5,125,5,42,127,2060137792
4,4,T1_SMS_5,126,1,48,60,2060620620
4,4,T1_SMS_5,127,5,42,127,2060637488
4,4,T1_SMS_5,128,5,42,127,2061138236
4,4,T1_SMS_5,129,1,48,58,2061139124
4,4,T1_SMS_5,130,5,42,127,2061638152
4,4,T1_SMS_5,131,1,48,47,2061642844
4,4,T1_SMS_5,132,5,42,127,2062137920
4,4,T1_SMS_5,133,1,48,48,2062140888
4,4,T1_SMS_5,134,1,48,58,2062629792
4,4,T1_SMS_5,135,5,42,127,2062637608
4,4,T1_SMS_5,136,5,42,127,2063138060
4,4,T1_SMS_5,137,1,48,47,2063143864
4,4,T1_SMS_5,138,5,42,127,2063637828
4,4,T1_SMS_5,139,1,48,57,2063659868
4,4,T1_SMS_5,140,5,42,127,2064137524
4,4,T1_SMS_5,141,1,48,47,2064150512
4,4,T1_SMS_5,142,5,42,127,2064638264
4,4,T1_SMS_5,143,1,48,55,2064641980
4,4,T1_SMS_5,144,5,42,127,2065137960
4,4,T1_SMS_5,145,1,48,54,2065140784
4,4,T1_SMS_5,146,5,42,127,2065637956
4,4,T1_SMS_5,147,1,48,54,2065661124
4,4,T1_SMS_5,148,1,48,49,2066134320
4,4,T1_SMS_5,149,5,42,127,2066137420
4,4,T1_SMS_5,150,1,48,51,2066634964
4,4,T1_SMS_5,151,5,42,127,2066638140
4,4,T1_SMS_5,152,1,48,55,2067110496
4,4,T1_SMS_5,153,5,42,127,2067137832
4,4,T1_SMS_5,154,1,48,53,2067629268
4,4,T1_SMS_5,155,5,42,127,2067637528
4,4,T1_SMS_5,156,5,42,127,2068138424
4,4,T1_SMS_5,157,1,48,54,2068140944
4,4,T1_SMS_5,158,1,48,55,2068604420
4,4,T1_SMS_5,159,5,42,127,2068638188
4,4,T1_SMS_5,160,1,48,47,2069133436
4,4,T1_SMS_5,161,5,42,127,2069138032
4,4,T1_SMS_5,162,5,42,127,2069637364
4,4,T1_SMS_5,163,1,48,56,2069646764
4,4,T1_SMS_5,164,1,48,54,2070127364
4,4,T1_SMS_5,165,5,42,127,2070138244
4,4,T1_SMS_5,166,1,48,49,2070633568
4,4,T1_SMS_5,167,5,42,127,2070637868
4,4,T1_SMS_5,168,5,42,127,2071137792
4,4,T1_SMS_5,169,1,48,48,2071142252
4,4,T1_SMS_5,170,1,48,39,2071626148
4,4,T1_SMS_5,171,5,42,127,2071638304
4,4,T1_SMS_5,172,5,42,127,2072138228
4,4,T1_SMS_5,173,1,48,55,2072144940
4,4,T1_SMS_5,174,5,42,127,2072638000
4,4,T1_SMS_5,175,1,48,49,2072653756
4,4,T1_SMS_5,176,5,42,127,2073137696
4,4,T1_SMS_5,177,1,48,57,2073147244
4,4,T1_SMS_5,178,5,42,127,2073638212
4,4,T1_SMS_5,179,1,48,43,2073672972
4,4,T1_SMS_5,180,1,48,48,2074121412
4,4,T1_SMS_5,181,5,42,127,2074137824
4,4,T1_SMS_5,182,1,48,56,2074620876
4,4,T1_SMS_5,183,5,42,127,2074637816
4,4,T1_SMS_5,184,1,48,48,2075131788
4,4,T1_SMS_5,185,5,42,127,2075138408
4,4,T1_SMS_5,186,1,48,50,2075633280
4,4,T1_SMS_5,187,5,42,127,2075638104
4,4,T1_SMS_5,188,1,48,52,2076126848
4,4,T1_SMS_5,189,5,42,127,2076137800
4,4,T1_SMS_5,190,1,48,48,2076629680
4,4,T1_SMS_5,191,5,42,127,2076637644
4,4,T1_SMS_5,192,5,42,127,2077138172
4,4,T1_SMS_5,193,1,48,54,2077146072
4,4,T1_SMS_5,194,5,42,127,2077637992
4,4,T1_SMS_5,195,1,48,46,2077656916
4,4,T1_SMS_5,196,5,42,127,2078137832
4,4,T1_SMS_5,197,1,48,54,2078154712
4,4,T1_SMS_5,198,1,48,56,2078637000
4,4,T1_SMS_5,199,5,42,127,2078638716
4,4,T1_SMS_5,200,1,48,54,2079107416
4,4,T1_SMS_5,201,5,42,127,2079138112
4,4,T1_SMS_5,202,1,48,50,2079616980
4,4,T1_SMS_5,203,5,42,127,2079637808
4,4,T1_SMS_5,204,5,42,127,2080137808
4,4,T1_SMS_5,205,1,48,52,2080151396
4,4,T1_SMS_5,206,5,42,127,2080638176
4,4,T1_SMS_5,207,1,48,57,2080641368
4,4,T1_SMS_5,208,1,48,54,2081117860
4,4,T1_SMS_5,209,5,42,127,2081137940
4,4,T1_SMS_5,210,5,42,127,2081637716
4,4,T1_SMS_5,211,1,48,64,2081650184
4,4,T1_SMS_5,212,5,42,127,2082137560
4,4,T1_SMS_5,213,1,48,60,2082180092
4,4,T1_SMS_5,214,5,42,127,2082638152
4,4,T1_SMS_5,215,1,48,46,2082644556
4,4,T1_SMS_5,216,1,48,57,2083133912
4,4,T1_SMS_5,217,5,42,127,2083137764
4,4,T1_SMS_5,218,1,48,58,2083634656
4,4,T1_SMS_5,219,5,42,127,2083637756
4,4,T1_SMS_5,220,1,48,54,2084138284
4,4,T1_SMS_5,221,5,42,127,2084139916
4,4,T1_SMS_5,222,5,42,127,2084637976
4,4,T1_SMS_5,223,1,48,49,2084644160
4,4,T1_SMS_5,224,1,48,63,2085121548
4,4,T1_SMS_5,225,5,42,127,2085137664
4,4,T1_SMS_5,226,1,48,53,2085614284
4,4,T1_SMS_5,227,5,42,127,2085637436
4,4,T1_SMS_5,228,5,42,127,2086138408
4,4,T1_SMS_5,229,1,48,47,2086146912
4,4,T1_SMS_5,230,5,42,127,2086638028
4,4,T1_SMS_5,231,1,48,58,2086642268
4,4,T1_SMS_5,232,1,48,42,2087134392
4,4,T1_SMS_5,233,5,42,127,2087137644
4,4,T1_SMS_5,234,5,42,127,2087638316
4,4,T1_SMS_5,235,1,48,45,2087648092
4,4,T1_SMS_5,236,5,42,127,2088138136
4,4,T1_SMS_5,237,1,48,52,2088182192
4,4,T1_SMS_5,238,5,42,127,2088637684
4,4,T1_SMS_5,239,1,48,60,2088638648
4,4,T1_SMS_5,240,1,48,52,2089130156
4,4,T1_SMS_5,241,5,42,127,2089137520
4,4,T1_SMS_5,242,1,48,61,2089626476
4,4,T1_SMS_5,243,5,42,127,2089638260
4,4,T1_SMS_5,244,1,48,54,2090125200
4,4,T1_SMS_5,245,5,42,127,2090137956
4,4,T1_SMS_5,246,1,48,57,2090612260
4,4,T1_SMS_5,247,5,42,127,2090637652
4,4,T1_SMS_5,248,5,42,127,2091138324
4,4,T1_SMS_5,249,1,48,55,2091142264
4,4,T1_SMS_5,250,5,42,127,2091638388
4,4,T1_SMS_5,251,1,48,59,2091639800
4,4,T1_SMS_5,252,1,48,56,2092099676
4,4,T1_SMS_5,253,5,42,127,2092137780
4,4,T1_SMS_5,254,1,48,54,2092609544
4,4,T1_SMS_5,255,5,42,127,2092637548
4,4,T1_SMS_5,0,9999,9999,9999,9999,2028135528
4,4,T1_SMS_5,1,9999,9999,9999,9999,2028635244
4,4,T1_SMS_5,2,9999,9999,9999,9999,2029135932
4,4,T1_SMS_5,3,9999,9999,9999,9999,2029635652
4,4,T1_SMS_5,4,9999,9999,9999,9999,2030135360
4,4,T1_SMS_5,5,9999,9999,9999,9999,2030635128
4,4,T1_SMS_5,6,9999,9999,9999,9999,2031135796
4,4,T1_SMS_5,7,9999,9999,9999,9999,2031635568
4,4,T1_SMS_5,8,9999,9999,9999,9999,2032135268
4,4,T1_SMS_5,9,9999,9999,9999,9999,2032636004
4,4,T1_SMS_5,10,9999,9999,9999,9999,2033135696
4,4,T1_SMS_5,11,9999,9999,9999,9999,2033635400
4,4,T1_SMS_5,12,9999,9999,9999,9999,2034135092
4,4,T1_SMS_5,13,9999,9999,9999,9999,2034635884
4,4,T1_SMS_5,14,9999,9999,9999,9999,2035135572
4,4,T1_SMS_5,15,9999,9999,9999,9999,2035635276
4,4,T1_SMS_5,16,9999,9999,9999,9999,2036136016
4,4,T1_SMS_5,17,9999,9999,9999,9999,2036635708
4,4,T1_SMS_5,18,9999,9999,9999,9999,2037135480
4,4,T1_SMS_5,19,9999,9999,9999,9999,2037635172
4,4,T1_SMS_5,20,9999,9999,9999,9999,2038135872
4,4,T1_SMS_5,21,9999,9999,9999,9999,2038635608
4,4,T1_SMS_5,22,9999,9999,9999,9999,2039135296
4,4,T1_SMS_5,23,9999,9999,9999,9999,2039636040
4,4,T1_SMS_5,24,9999,9999,9999,9999,2040135740
4,4,T1_SMS_5,25,9999,9999,9999,9999,2040635500
4,4,T1_SMS_5,26,9999,9999,9999,9999,2041135196
4,4,T1_SMS_5,27,9999,9999,9999,9999,2041635940
4,4,T1_SMS_5,28,9999,9999,9999,9999,2042135636
4,4,T1_SMS_5,29,9999,9999,9999,9999,2042635332
4,4,T1_SMS_5,30,9999,9999,9999,9999,2043136076
4,4,T1_SMS_5,31,9999,9999,9999,9999,2043635768
4,4,T1_SMS_5,32,9999,9999,9999,9999,2044135540
4,4,T1_SMS_5,33,9999,9999,9999,9999,2044635232
4,4,T1_SMS_5,34,9999,9999,9999,9999,2045135948
4,4,T1_SMS_5,35,9999,9999,9999,9999,2045635696
4,4,T1_SMS_5,36,9999,9999,9999,9999,2046135392
4,4,T1_SMS_5,37,9999,9999,9999,9999,2046635088
4,4,T1_SMS_5,38,9999,9999,9999,9999,2047135852
4,4,T1_SMS_5,39,9999,9999,9999,9999,2047635524
4,4,T1_SMS_5,40,9999,9999,9999,9999,2048135224
4,4,T1_SMS_5,41,9999,9999,9999,9999,2048635960
4,4,T1_SMS_5,42,9999,9999,9999,9999,2049135736
4,4,T1_SMS_5,43,9999,9999,9999,9999,2049635424
4,4,T1_SMS_5,44,9999,9999,9999,9999,2050135124
4,4,T1_SMS_5,45,9999,9999,9999,9999,2050635868
4,4,T1_SMS_5,46,9999,9999,9999,9999,2051135560
4,4,T1_SMS_5,47,9999,9999,9999,9999,2051635252
4,4,T1_SMS_5,48,9999,9999,9999,9999,2052136000
4,4,T1_SMS_5,49,9999,9999,9999,9999,2052635764
4,4,T1_SMS_5,50,9999,9999,9999,9999,2053135464
4,4,T1_SMS_5,51,9999,9999,9999,9999,2053635152
4,4,T1_SMS_5,52,9999,9999,9999,9999,2054135896
4,4,T1_SMS_5,53,9999,9999,9999,9999,2054635596
4,4,T1_SMS_5,54,9999,9999,9999,9999,2055135284
4,4,T1_SMS_5,55,9999,9999,9999,9999,2055636032
4,4,T1_SMS_5,56,9999,9999,9999,9999,2056135776
4,4,T1_SMS_5,57,9999,9999,9999,9999,2056635472
4,4,T1_SMS_5,58,9999,9999,9999,9999,2057135160
4,4,T1_SMS_5,59,9999,9999,9999,9999,2057635900
4,4,T1_SMS_5,60,9999,9999,9999,9999,2058135672
4,4,T1_SMS_5,61,9999,9999,9999,9999,2058635364
4,4,T1_SMS_5,62,9999,9999,9999,9999,2059136112
4,4,T1_SMS_5,63,9999,9999,9999,9999,2059635804
4,4,T1_SMS_5,64,9999,9999,9999,9999,2060135504
4,4,T1_SMS_5,65,9999,9999,9999,9999,2060635196
4,4,T1_SMS_5,66,9999,9999,9999,9999,2061135944
4,4,T1_SMS_5,67,9999,9999,9999,9999,2061635640
4,4,T1_SMS_5,68,9999,9999,9999,9999,2062135408
4,4,T1_SMS_5,69,9999,9999,9999,9999,2062635096
4,4,T1_SMS_5,70,9999,9999,9999,9999,2063135844
4,4,T1_SMS_5,71,9999,9999,9999,9999,2063635540
4,4,T1_SMS_5,72,9999,9999,9999,9999,2064135236
4,4,T1_SMS_5,73,9999,9999,9999,9999,2064635976
4,4,T1_SMS_5,74,9999,9999,9999,9999,2065135672
4,4,T1_SMS_5,75,9999,9999,9999,9999,2065635444
4,4,T1_SMS_5,76,9999,9999,9999,9999,2066135132
4,4,T1_SMS_5,77,9999,9999,9999,9999,2066635848
4,4,T1_SMS_5,78,9999,9999,9999,9999,2067135544
4,4,T1_SMS_5,79,9999,9999,9999,9999,2067635312
4,4,T1_SMS_5,80,9999,9999,9999,9999,2068135988
4,4,T1_SMS_5,81,9999,9999,9999,9999,2068635748
4,4,T1_SMS_5,82,9999,9999,9999,9999,2069135444
4,4,T1_SMS_5,83,9999,9999,9999,9999,2069635148
4,4,T1_SMS_5,84,9999,9999,9999,9999,2070135880
4,4,T1_SMS_5,85,9999,9999,9999,9999,2070635576
4,4,T1_SMS_5,86,9999,9999,9999,9999,2071135352
4,4,T1_SMS_5,87,9999,9999,9999,9999,2071636088
4,4,T1_SMS_5,88,9999,9999,9999,9999,2072135792
4,4,T1_SMS_5,89,9999,9999,9999,9999,2072635484
4,4,T1_SMS_5,90,9999,9999,9999,9999,2073135180
4,4,T1_SMS_5,91,9999,9999,9999,9999,2073635924
4,4,T1_SMS_5,92,9999,9999,9999,9999,2074135608
4,4,T1_SMS_5,93,9999,9999,9999,9999,2074635380
4,4,T1_SMS_5,94,9999,9999,9999,9999,2075136124
4,4,T1_SMS_5,95,9999,9999,9999,9999,2075635816
4,4,T1_SMS_5,96,9999,9999,9999,9999,2076135512
4,4,T1_SMS_5,97,9999,9999,9999,9999,2076635204
4,4,T1_SMS_5,98,9999,9999,9999,9999,2077135936
4,4,T1_SMS_5,99,9999,9999,9999,9999,2077635700
4,4,T1_SMS_5,100,9999,9999,9999,9999,2078135396
4,4,T1_SMS_5,101,9999,9999,9999,9999,2078635088
4,4,T1_SMS_5,102,9999,9999,9999,9999,2079135824
4,4,T1_SMS_5,103,9999,9999,9999,9999,2079635520
4,4,T1_SMS_5,104,9999,9999,9999,9999,2080135220
4,4,T1_SMS_5,105,9999,9999,9999,9999,2080635960
4,4,T1_SMS_5,106,9999,9999,9999,9999,2081135724
4,4,T1_SMS_5,107,9999,9999,9999,9999,2081635428
4,4,T1_SMS_5,108,9999,9999,9999,9999,2082135120
4,4,T1_SMS_5,109,9999,9999,9999,9999,2082635860
4,4,T1_SMS_5,110,9999,9999,9999,9999,2083135548
4,4,T1_SMS_5,111,9999,9999,9999,9999,2083635316
4,4,T1_SMS_5,112,9999,9999,9999,9999,2084135992
4,4,T1_SMS_5,113,9999,9999,9999,9999,2084635760
4,4,T1_SMS_5,114,9999,9999,9999,9999,2085135448
4,4,T1_SMS_5,115,9999,9999,9999,9999,2085635144
4,4,T1_SMS_5,116,9999,9999,9999,9999,2086135892
4,4,T1_SMS_5,117,9999,9999,9999,9999,2086635588
4,4,T1_SMS_5,118,9999,9999,9999,9999,2087135352
4,4,T1_SMS_5,119,9999,9999,9999,9999,2087636028
4,4,T1_SMS_5,120,9999,9999,9999,9999,2088135772
4,4,T1_SMS_5,121,9999,9999,9999,9999,2088635468
4,4,T1_SMS_5,122,9999,9999,9999,9999,2089135156
4,4,T1_SMS_5,123,9999,9999,9999,9999,2089635896
4,4,T1_SMS_5,124,9999,9999,9999,9999,2090135664
4,4,T1_SMS_5,125,9999,9999,9999,9999,2090635360
4,4,T1_SMS_5,126,9999,9999,9999,9999,2091136112
4,4,T1_SMS_5,127,9999,9999,9999,9999,2091635800
4,4,T1_SMS_5,128,9999,9999,9999,9999,2092135492
4,4,T1_SMS_5,129,9999,9999,9999,9999,2092635184
5,20,Ticks_Linear_8,0,5,42,127,2105977340
5,20,Ticks_Linear_8,1,5,42,127,2106797456
5,20,Ticks_Linear_8,2,5,42,127,2107627032
5,20,Ticks_Linear_8,3,5,42,127,2108447148
5,20,Ticks_Linear_8,4,1,48,37,2109258980
5,20,Ticks_Linear_8,5,5,42,127,2109267256
5,20,Ticks_Linear_8,6,1,48,40,2110003728
5,20,Ticks_Linear_8,7,5,42,127,2110077240
5,20,Ticks_Linear_8,8,1,48,43,2110838504
5,20,Ticks_Linear_8,9,5,42,127,2110887372
5,20,Ticks_Linear_8,10,1,48,38,2111665568
5,20,Ticks_Linear_8,11,5,42,127,2111697156
5,20,Ticks_Linear_8,12,1,48,41,2112483800
5,20,Ticks_Linear_8,13,5,42,127,2112507364
5,20,Ticks_Linear_8,14,5,42,127,2113317208
5,20,Ticks_Linear_8,15,1,48,37,2113325044
5,20,Ticks_Linear_8,16,5,42,127,2114116928
5,20,Ticks_Linear_8,17,1,48,47,2114154336
5,20,Ticks_Linear_8,18,5,42,127,2114916804
5,20,Ticks_Linear_8,19,1,48,50,2114924632
5,20,Ticks_Linear_8,20,1,48,41,2115688620
5,20,Ticks_Linear_8,21,5,42,127,2115716744
5,20,Ticks_Linear_8,22,1,48,38,2116480032
5,20,Ticks_Linear_8,23,5,42,127,2116517216
5,20,Ticks_Linear_8,24,1,48,47,2117308664
5,20,Ticks_Linear_8,25,5,42,127,2117317016
5,20,Ticks_Linear_8,26,1,48,49,2118105984
5,20,Ticks_Linear_8,27,5,42,127,2118107924
5,20,Ticks_Linear_8,28,5,42,127,2118896876
5,20,Ticks_Linear_8,29,1,48,49,2118977128
5,20,Ticks_Linear_8,30,1,48,49,2119662844
5,20,Ticks_Linear_8,31,5,42,127,2119686556
5,20,Ticks_Linear_8,32,1,48,38,2120359280
5,20,Ticks_Linear_8,33,5,42,127,2120477128
5,20,Ticks_Linear_8,34,1,48,44,2121142672
5,20,Ticks_Linear_8,35,5,42,127,2121266520
5,20,Ticks_Linear_8,36,1,48,52,2122009676
5,20,Ticks_Linear_8,37,5,42,127,2122046860
5,20,Ticks_Linear_8,38,1,48,51,2122773744
5,20,Ticks_Linear_8,39,5,42,127,2122827260
5,20,Ticks_Linear_8,40,1,48,46,2123577968
5,20,Ticks_Linear_8,41,5,42,127,2123607512
5,20,Ticks_Linear_8,42,1,48,48,2124364056
5,20,Ticks_Linear_8,43,5,42,127,2124386792
5,20,Ticks_Linear_8,44,1,48,57,2125125516
5,20,Ticks_Linear_8,45,5,42,127,2125166972
5,20,Ticks_Linear_8,46,1,48,48,2125923060
5,20,Ticks_Linear_8,47,5,42,127,2125936892
5,20,Ticks_Linear_8,48,5,42,127,2126707116
5,20,Ticks_Linear_8,49,1,48,42,2126734652
5,20,Ticks_Linear_8,50,5,42,127,2127477036
5,20,Ticks_Linear_8,51,1,48,50,2127551744
5,20,Ticks_Linear_8,52,5,42,127,2128247104
5,20,Ticks_Linear_8,53,1,48,44,2128255244
5,20,Ticks_Linear_8,54,1,48,52,2128966952
5,20,Ticks_Linear_8,55,5,42,127,2129017388
5,20,Ticks_Linear_8,56,1,48,41,2129716580
5,20,Ticks_Linear_8,57,5,42,127,2129777048
5,20,Ticks_Linear_8,58,1,48,55,2130497276
5,20,Ticks_Linear_8,59,5,42,127,2130536932
5,20,Ticks_Linear_8,60,1,48,42,2131276408
5,20,Ticks_Linear_8,61,5,42,127,2131296592
5,20,Ticks_Linear_8,62,1,48,51,2132032164
5,20,Ticks_Linear_8,63,5,42,127,2132056476
5,20,Ticks_Linear_8,64,1,48,44,2132761120
5,20,Ticks_Linear_8,65,5,42,127,2132817404
5,20,Ticks_Linear_8,66,5,42,127,2133566812
5,20,Ticks_Linear_8,67,1,48,56,2133581236
5,20,Ticks_Linear_8,68,5,42,127,2134317336
5,20,Ticks_Linear_8,69,1,48,35,2134364792
5,20,Ticks_Linear_8,70,1,48,52,2135052076
5,20,Ticks_Linear_8,71,5,42,127,2135077508
5,20,Ticks_Linear_8,72,1,48,42,2135803868
5,20,Ticks_Linear_8,73,5,42,127,2135826764
5,20,Ticks_Linear_8,74,1,48,31,2136570500
5,20,Ticks_Linear_8,75,5,42,127,2136577508
5,20,Ticks_Linear_8,76,1,48,43,2137287376
5,20,Ticks_Linear_8,77,5,42,127,2137316724
5,20,Ticks_Linear_8,78,5,42,127,2138056968
5,20,Ticks_Linear_8,79,1,48,56,2138075468
5,20,Ticks_Linear_8,80,5,42,127,2138797380
5,20,Ticks_Linear_8,81,1,48,50,2138808516
5,20,Ticks_Linear_8,82,5,42,127,2139547080
5,20,Ticks_Linear_8,83,1,48,56,2139564580
5,20,Ticks_Linear_8,84,5,42,127,2140287416
5,20,Ticks_Linear_8,85,1,48,52,2140298024
5,20,Ticks_Linear_8,86,5,42,127,2141016372
5,20,Ticks_Linear_8,87,1,48,48,2141052360
5,20,Ticks_Linear_8,88,5,42,127,2141746600
5,20,Ticks_Linear_8,89,1,48,54,2141768440
5,20,Ticks_Linear_8,90,1,48,63,2142462692
5,20,Ticks_Linear_8,91,5,42,127,2142476524
5,20,Ticks_Linear_8,92,1,48,63,2143141304
5,20,Ticks_Linear_8,93,5,42,127,2143206824
5,20,Ticks_Linear_8,94,1,48,51,2143917072
5,20,Ticks_Linear_8,95,5,42,127,2143936804
5,20,Ticks_Linear_8,96,1,48,54,2144653276
5,20,Ticks_Linear_8,97,5,42,127,2144656624
5,20,Ticks_Linear_8,98,5,42,127,2145376524
5,20,Ticks_Linear_8,99,1,48,62,2145377488
5,20,Ticks_Linear_8,100,1,48,48,2146095432
5,20,Ticks_Linear_8,101,5,42,127,2146097308
5,20,Ticks_Linear_8,102,5,42,127,2146817284
5,20,Ticks_Linear_8,103,1,48,40,2146846312
5,20,Ticks_Linear_8,104,5,42,127,2147537252
5,20,Ticks_Linear_8,105,1,48,47,2147561332
5,20,Ticks_Linear_8,106,5,42,127,2148246864
5,20,Ticks_Linear_8,107,1,48,58,2148271092
5,20,Ticks_Linear_8,108,5,42,127,2148956496
5,20,Ticks_Linear_8,109,1,48,51,2148974660
5,20,Ticks_Linear_8,110,5,42,127,2149667252
5,20,Ticks_Linear_8,111,1,48,58,2149675544
5,20,Ticks_Linear_8,112,5,42,127,2150376960
5,20,Ticks_Linear_8,113,1,48,55,2150426212
5,20,Ticks_Linear_8,114,5,42,127,2151086348
5,20,Ticks_Linear_8,115,1,48,65,2151123184
5,20,Ticks_Linear_8,116,5,42,127,2151787144
5,20,Ticks_Linear_8,117,1,48,45,2151848156
5,20,Ticks_Linear_8,118,1,48,63,2152410164
5,20,Ticks_Linear_8,119,5,42,127,2152487336
5,20,Ticks_Linear_8,120,1,48,55,2153050276
5,20,Ticks_Linear_8,121,5,42,127,2153186624
5,20,Ticks_Linear_8,122,1,48,51,2153866100
5,20,Ticks_Linear_8,123,5,42,127,2153886960
5,20,Ticks_Linear_8,124,5,42,127,2154586568
5,20,Ticks_Linear_8,125,1,48,50,2154660080
5,20,Ticks_Linear_8,126,5,42,127,2155277100
5,20,Ticks_Linear_8,127,1,48,56,2155349344
5,20,Ticks_Linear_8,128,1,48,55,2155966716
5,20,Ticks_Linear_8,129,5,42,127,2155968352
5,20,Ticks_Linear_8,130,1,48,49,2156623496
5,20,Ticks_Linear_8,131,5,42,127,2156656876
5,20,Ticks_Linear_8,132,1,48,61,2157332540
5,20,Ticks_Linear_8,133,5,42,127,2157347260
5,20,Ticks_Linear_8,134,5,42,127,2158037432
5,20,Ticks_Linear_8,135,1,48,50,2158053800
5,20,Ticks_Linear_8,136,5,42,127,2158717312
5,20,Ticks_Linear_8,137,1,48,55,2158773820
5,20,Ticks_Linear_8,138,5,42,127,2159397144
5,20,Ticks_Linear_8,139,1,48,53,2159426472
5,20,Ticks_Linear_8,140,1,48,58,2160075348
5,20,Ticks_Linear_8,141,5,42,127,2160077016
5,20,Ticks_Linear_8,142,1,48,58,2160746364
5,20,Ticks_Linear_8,143,5,42,127,2160756968
5,20,Ticks_Linear_8,144,5,42,127,2161437028
5,20,Ticks_Linear_8,145,1,48,47,2161437920
5,20,Ticks_Linear_8,146,5,42,127,2162106872
5,20,Ticks_Linear_8,147,1,48,53,2162124836
5,20,Ticks_Linear_8,148,1,48,62,2162768008
5,20,Ticks_Linear_8,149,5,42,127,2162776364
5,20,Ticks_Linear_8,150,1,48,29,2162856524
5,20,Ticks_Linear_8,151,1,48,57,2163424824
5,20,Ticks_Linear_8,152,5,42,127,2163447180
5,20,Ticks_Linear_8,153,5,42,127,2164116880
5,20,Ticks_Linear_8,154,1,48,64,2164162832
5,20,Ticks_Linear_8,155,5,42,127,2164786676
5,20,Ticks_Linear_8,156,1,48,53,2164828364
5,20,Ticks_Linear_8,157,1,48,57,2165443808
5,20,Ticks_Linear_8,158,5,42,127,2165447000
5,20,Ticks_Linear_8,159,1,48,52,2166067704
5,20,Ticks_Linear_8,160,5,42,127,2166106536
5,20,Ticks_Linear_8,161,1,48,53,2166742064
5,20,Ticks_Linear_8,162,5,42,127,2166766972
5,20,Ticks_Linear_8,163,5,42,127,2167426488
5,20,Ticks_Linear_8,164,1,48,49,2167459632
5,20,Ticks_Linear_8,165,5,42,127,2168087068
5,20,Ticks_Linear_8,166,1,48,46,2168114976
5,20,Ticks_Linear_8,167,1,48,51,2168735860
5,20,Ticks_Linear_8,168,5,42,127,2168737580
5,20,Ticks_Linear_8,169,5,42,127,2169387388
5,20,Ticks_Linear_8,170,1,48,53,2169392972
5,20,Ticks_Linear_8,171,5,42,127,2170036788
5,20,Ticks_Linear_8,172,1,48,55,2170056912
5,20,Ticks_Linear_8,173,1,48,59,2170676132
5,20,Ticks_Linear_8,174,5,42,127,2170686808
5,20,Ticks_Linear_8,175,1,48,47,2171308460
5,20,Ticks_Linear_8,176,5,42,127,2171337108
5,20,Ticks_Linear_8,177,5,42,127,2171977000
5,20,Ticks_Linear_8,178,1,48,55,2172010368
5,20,Ticks_Linear_8,179,5,42,127,2172617112
5,20,Ticks_Linear_8,180,1,48,57,2172654224
5,20,Ticks_Linear_8,181,5,42,127,2173257004
5,20,Ticks_Linear_8,182,1,48,46,2173257968
5,20,Ticks_Linear_8,183,1,48,60,2173866368
5,20,Ticks_Linear_8,184,5,42,127,2173897036
5,20,Ticks_Linear_8,185,1,48,57,2174528944
5,20,Ticks_Linear_8,186,5,42,127,2174537224
5,20,Ticks_Linear_8,187,5,42,127,2175166712
5,20,Ticks_Linear_8,188,1,48,57,2175213808
5,20,Ticks_Linear_8,189,5,42,127,2175796664
5,20,Ticks_Linear_8,190,1,48,55,2175835656
5,20,Ticks_Linear_8,191,1,48,54,2176412836
5,20,Ticks_Linear_8,192,5,42,127,2176427336
5,20,Ticks_Linear_8,193,1,48,48,2177055940
5,20,Ticks_Linear_8,194,5,42,127,2177057736
5,20,Ticks_Linear_8,195,5,42,127,2177686780
5,20,Ticks_Linear_8,196,1,48,54,2177690344
5,20,Ticks_Linear_8,197,5,42,127,2178306620
5,20,Ticks_Linear_8,198,1,48,52,2178330256
5,20,Ticks_Linear_8,199,5,42,127,2178926892
5,20,Ticks_Linear_8,200,1,48,52,2178930908
5,20,Ticks_Linear_8,201,5,42,127,2179546584
5,20,Ticks_Linear_8,202,1,48,50,2179554504
5,20,Ticks_Linear_8,203,1,48,52,2180130480
5,20,Ticks_Linear_8,204,5,42,127,2180166996
5,20,Ticks_Linear_8,205,1,48,57,2180757648
5,20,Ticks_Linear_8,206,5,42,127,2180786592
5,20,Ticks_Linear_8,207,1,48,57,2181390368
5,20,Ticks_Linear_8,208,5,42,127,2181396852
5,20,Ticks_Linear_8,209,5,42,127,2182007240
5,20,Ticks_Linear_8,210,1,48,40,2182061284
5,20,Ticks_Linear_8,211,1,48,54,2182602844
5,20,Ticks_Linear_8,212,5,42,127,2182616520
5,20,Ticks_Linear_8,213,1,48,56,2183201100
5,20,Ticks_Linear_8,214,5,42,127,2183226604
5,20,Ticks_Linear_8,215,1,48,58,2183804732
5,20,Ticks_Linear_8,216,5,42,127,2183837064
5,20,Ticks_Linear_8,217,1,48,55,2184411776
5,20,Ticks_Linear_8,218,5,42,127,2184437284
5,20,Ticks_Linear_8,219,1,48,30,2184485928
5,20,Ticks_Linear_8,220,1,48,53,2185035808
5,20,Ticks_Linear_8,221,5,42,127,2185037536
5,20,Ticks_Linear_8,222,5,42,127,2185637444
5,20,Ticks_Linear_8,223,1,48,63,2185658164
5,20,Ticks_Linear_8,224,1,48,50,2186213196
5,20,Ticks_Linear_8,225,5,42,127,2186237512
5,20,Ticks_Linear_8,226,5,42,127,2186837492
5,20,Ticks_Linear_8,227,1,48,54,2186863900
5,20,Ticks_Linear_8,228,5,42,127,2187427208
5,20,Ticks_Linear_8,229,1,48,47,2187466976
5,20,Ticks_Linear_8,230,1,48,43,2188006336
5,20,Ticks_Linear_8,231,5,42,127,2188017164
5,20,Ticks_Linear_8,232,1,48,45,2188596360
5,20,Ticks_Linear_8,233,5,42,127,2188606804
5,20,Ticks_Linear_8,234,1,48,42,2189152516
5,20,Ticks_Linear_8,235,5,42,127,2189196596
5,20,Ticks_Linear_8,236,1,48,47,2189733240
5,20,Ticks_Linear_8,237,5,42,127,2189786484
5,20,Ticks_Linear_8,238,1,48,47,2190348600
5,20,Ticks_Linear_8,239,5,42,127,2190367284
5,20,Ticks_Linear_8,240,1,48,51,2190941232
5,20,Ticks_Linear_8,241,5,42,127,2190946592
5,20,Ticks_Linear_8,242,5,42,127,2191527324
5,20,Ticks_Linear_8,243,1,48,46,2191549692
5,20,Ticks_Linear_8,244,5,42,127,2192106956
5,20,Ticks_Linear_8,245,1,48,46,2192117416
5,20,Ticks_Linear_8,246,5,42,127,2192686340
5,20,Ticks_Linear_8,247,1,48,46,2192699496
5,20,Ticks_Linear_8,248,5,42,127,2193257032
5,20,Ticks_Linear_8,249,1,48,54,2193275360
5,20,Ticks_Linear_8,250,5,42,127,2193827352
5,20,Ticks_Linear_8,251,1,48,48,2193862292
5,20,Ticks_Linear_8,252,5,42,127,2194396496
5,20,Ticks_Linear_8,253,1,48,45,2194415568
5,20,Ticks_Linear_8,254,5,42,127,2194967040
5,20,Ticks_Linear_8,255,1,48,51,2194981464
5,20,Ticks_Linear_8,256,5,42,127,2195537208
5,20,Ticks_Linear_8,257,1,48,51,2195550588
5,20,Ticks_Linear_8,258,5,42,127,2196097416
5,20,Ticks_Linear_8,259,1,48,52,2196119256
5,20,Ticks_Linear_8,260,5,42,127,2196656428
5,20,Ticks_Linear_8,261,1,48,51,2196695076
5,20,Ticks_Linear_8,262,1,48,54,2197180792
5,20,Ticks_Linear_8,263,5,42,127,2197216656
5,20,Ticks_Linear_8,264,1,48,52,2197758548
5,20,Ticks_Linear_8,265,5,42,127,2197776640
5,20,Ticks_Linear_8,266,5,42,127,2198337008
5,20,Ticks_Linear_8,267,1,48,51,2198384228
5,20,Ticks_Linear_8,268,5,42,127,2198886956
5,20,Ticks_Linear_8,269,1,48,45,2198935760
5,20,Ticks_Linear_8,270,1,48,40,2199424952
5,20,Ticks_Linear_8,271,5,42,127,2199436600
5,20,Ticks_Linear_8,272,1,48,53,2199958576
5,20,Ticks_Linear_8,273,5,42,127,2199986772
5,20,Ticks_Linear_8,274,1,48,48,2200510916
5,20,Ticks_Linear_8,275,5,42,127,2200536372
5,20,Ticks_Linear_8,276,1,48,49,2201077520
5,20,Ticks_Linear_8,277,5,42,127,2201087296
5,20,Ticks_Linear_8,278,1,48,53,2201627436
5,20,Ticks_Linear_8,279,5,42,127,2201628928
5,20,Ticks_Linear_8,280,5,42,127,2202166684
5,20,Ticks_Linear_8,281,1,48,51,2202168020
5,20,Ticks_Linear_8,282,5,42,127,2202707272
5,20,Ticks_Linear_8,283,1,48,51,2202713976
5,20,Ticks_Linear_8,284,5,42,127,2203246960
5,20,Ticks_Linear_8,285,1,48,47,2203249552
5,20,Ticks_Linear_8,286,5,42,127,2203786724
5,20,Ticks_Linear_8,287,1,48,45,2203799428
5,20,Ticks_Linear_8,288,5,42,127,2204317052
5,20,Ticks_Linear_8,289,1,48,43,2204335000
5,20,Ticks_Linear_8,290,1,48,57,2204839692
5,20,Ticks_Linear_8,291,5,42,127,2204846328
5,20,Ticks_Linear_8,292,5,42,127,2205376812
5,20,Ticks_Linear_8,293,1,48,45,2205380300
5,20,Ticks_Linear_8,294,5,42,127,2205907316
5,20,Ticks_Linear_8,295,1,48,47,2205922412
5,20,Ticks_Linear_8,296,1,48,46,2206420440
5,20,Ticks_Linear_8,297,5,42,127,2206436888
5,20,Ticks_Linear_8,298,1,48,46,2206947032
5,20,Ticks_Linear_8,299,5,42,127,2206956884
5,20,Ticks_Linear_8,300,1,48,46,2207455796
5,20,Ticks_Linear_8,301,5,42,127,2207477028
5,20,Ticks_Linear_8,302,1,48,54,2207963868
5,20,Ticks_Linear_8,303,5,42,127,2207997244
5,20,Ticks_Linear_8,304,5,42,127,2208516500
5,20,Ticks_Linear_8,305,1,48,52,2208520592
5,20,Ticks_Linear_8,306,5,42,127,2209036796
5,20,Ticks_Linear_8,307,1,48,48,2209053312
5,20,Ticks_Linear_8,308,5,42,127,2209546828
5,20,Ticks_Linear_8,309,1,48,51,2209562148
5,20,Ticks_Linear_8,310,5,42,127,2210056788
5,20,Ticks_Linear_8,311,1,48,53,2210067324
5,20,Ticks_Linear_8,312,5,42,127,2210566376
5,20,Ticks_Linear_8,313,1,48,49,2210591284
5,20,Ticks_Linear_8,314,5,42,127,2211076408
5,20,Ticks_Linear_8,315,1,48,50,2211080944
5,20,Ticks_Linear_8,316,5,42,127,2211586296
5,20,Ticks_Linear_8,317,1,48,47,2211592480
5,20,Ticks_Linear_8,318,5,42,127,2212087116
5,20,Ticks_Linear_8,319,1,48,48,2212114264
5,20,Ticks_Linear_8,320,1,48,48,2212567672
5,20,Ticks_Linear_8,321,5,42,127,2212586736
5,20,Ticks_Linear_8,322,1,48,49,2213058360
5,20,Ticks_Linear_8,323,5,42,127,2213086808
5,20,Ticks_Linear_8,324,1,48,51,2213536564
5,20,Ticks_Linear_8,325,5,42,127,2213587404
5,20,Ticks_Linear_8,326,1,48,45,2214018296
5,20,Ticks_Linear_8,327,5,42,127,2214087008
5,20,Ticks_Linear_8,328,1,48,47,2214514092
5,20,Ticks_Linear_8,329,5,42,127,2214576748
5,20,Ticks_Linear_8,330,1,48,49,2215043372
5,20,Ticks_Linear_8,331,5,42,127,2215067084
5,20,Ticks_Linear_8,332,5,42,127,2215556680
5,20,Ticks_Linear_8,333,1,48,43,2215561820
5,20,Ticks_Linear_8,334,5,42,127,2216046944
5,20,Ticks_Linear_8,335,1,48,33,2216078148
5,20,Ticks_Linear_8,336,1,48,49,2216535020
5,20,Ticks_Linear_8,337,5,42,127,2216536828
5,20,Ticks_Linear_8,0,9999,9999,9999,9999,2105974892
5,20,Ticks_Linear_8,1,9999,9999,9999,9999,2106795080
5,20,Ticks_Linear_8,2,9999,9999,9999,9999,2107624508
5,20,Ticks_Linear_8,3,9999,9999,9999,9999,2108444772
5,20,Ticks_Linear_8,4,9999,9999,9999,9999,2109264956
5,20,Ticks_Linear_8,5,9999,9999,9999,9999,2110074940
5,20,Ticks_Linear_8,6,9999,9999,9999,9999,2110884920
5,20,Ticks_Linear_8,7,9999,9999,9999,9999,2111694932
5,20,Ticks_Linear_8,8,9999,9999,9999,9999,2112504916
5,20,Ticks_Linear_8,9,9999,9999,9999,9999,2113314904
5,20,Ticks_Linear_8,10,9999,9999,9999,9999,2114114628
5,20,Ticks_Linear_8,11,9999,9999,9999,9999,2114914428
5,20,Ticks_Linear_8,12,9999,9999,9999,9999,2115714144
5,20,Ticks_Linear_8,13,9999,9999,9999,9999,2116514916
5,20,Ticks_Linear_8,14,9999,9999,9999,9999,2117314640
5,20,Ticks_Linear_8,15,9999,9999,9999,9999,2118104136
5,20,Ticks_Linear_8,16,9999,9999,9999,9999,2118894648
5,20,Ticks_Linear_8,17,9999,9999,9999,9999,2119684180
5,20,Ticks_Linear_8,18,9999,9999,9999,9999,2120474752
5,20,Ticks_Linear_8,19,9999,9999,9999,9999,2121264216
5,20,Ticks_Linear_8,20,9999,9999,9999,9999,2122044484
5,20,Ticks_Linear_8,21,9999,9999,9999,9999,2122824812
5,20,Ticks_Linear_8,22,9999,9999,9999,9999,2123605064
5,20,Ticks_Linear_8,23,9999,9999,9999,9999,2124384344
5,20,Ticks_Linear_8,24,9999,9999,9999,9999,2125164672
5,20,Ticks_Linear_8,25,9999,9999,9999,9999,2125934664
5,20,Ticks_Linear_8,26,9999,9999,9999,9999,2126704740
5,20,Ticks_Linear_8,27,9999,9999,9999,9999,2127474808
5,20,Ticks_Linear_8,28,9999,9999,9999,9999,2128244800
5,20,Ticks_Linear_8,29,9999,9999,9999,9999,2129014864
5,20,Ticks_Linear_8,30,9999,9999,9999,9999,2129774676
5,20,Ticks_Linear_8,31,9999,9999,9999,9999,2130534484
5,20,Ticks_Linear_8,32,9999,9999,9999,9999,2131294292
5,20,Ticks_Linear_8,33,9999,9999,9999,9999,2132054100
5,20,Ticks_Linear_8,34,9999,9999,9999,9999,2132814956
5,20,Ticks_Linear_8,35,9999,9999,9999,9999,2133564512
5,20,Ticks_Linear_8,36,9999,9999,9999,9999,2134315108
5,20,Ticks_Linear_8,37,9999,9999,9999,9999,2135074912
5,20,Ticks_Linear_8,38,9999,9999,9999,9999,2135824460
5,20,Ticks_Linear_8,39,9999,9999,9999,9999,2136575056
5,20,Ticks_Linear_8,40,9999,9999,9999,9999,2137314424
5,20,Ticks_Linear_8,41,9999,9999,9999,9999,2138054740
5,20,Ticks_Linear_8,42,9999,9999,9999,9999,2138795080
5,20,Ticks_Linear_8,43,9999,9999,9999,9999,2139544704
5,20,Ticks_Linear_8,44,9999,9999,9999,9999,2140285040
5,20,Ticks_Linear_8,45,9999,9999,9999,9999,2141014072
5,20,Ticks_Linear_8,46,9999,9999,9999,9999,2141744224
5,20,Ticks_Linear_8,47,9999,9999,9999,9999,2142474296
5,20,Ticks_Linear_8,48,9999,9999,9999,9999,2143204448
5,20,Ticks_Linear_8,49,9999,9999,9999,9999,2143934576
5,20,Ticks_Linear_8,50,9999,9999,9999,9999,2144654396
5,20,Ticks_Linear_8,51,9999,9999,9999,9999,2145374296
5,20,Ticks_Linear_8,52,9999,9999,9999,9999,2146094188
5,20,Ticks_Linear_8,53,9999,9999,9999,9999,2146815056
5,20,Ticks_Linear_8,54,9999,9999,9999,9999,2147534948
5,20,Ticks_Linear_8,55,9999,9999,9999,9999,2148244560
5,20,Ticks_Linear_8,56,9999,9999,9999,9999,2148954196
5,20,Ticks_Linear_8,57,9999,9999,9999,9999,2149664876
5,20,Ticks_Linear_8,58,9999,9999,9999,9999,2150374508
5,20,Ticks_Linear_8,59,9999,9999,9999,9999,2151084120
5,20,Ticks_Linear_8,60,9999,9999,9999,9999,2151784544
5,20,Ticks_Linear_8,61,9999,9999,9999,9999,2152484960
5,20,Ticks_Linear_8,62,9999,9999,9999,9999,2153184320
5,20,Ticks_Linear_8,63,9999,9999,9999,9999,2153884732
5,20,Ticks_Linear_8,64,9999,9999,9999,9999,2154584188
5,20,Ticks_Linear_8,65,9999,9999,9999,9999,2155274356
5,20,Ticks_Linear_8,66,9999,9999,9999,9999,2155964492
5,20,Ticks_Linear_8,67,9999,9999,9999,9999,2156654648
5,20,Ticks_Linear_8,68,9999,9999,9999,9999,2157344884
5,20,Ticks_Linear_8,69,9999,9999,9999,9999,2158035056
5,20,Ticks_Linear_8,70,9999,9999,9999,9999,2158714936
5,20,Ticks_Linear_8,71,9999,9999,9999,9999,2159394916
5,20,Ticks_Linear_8,72,9999,9999,9999,9999,2160074812
5,20,Ticks_Linear_8,73,9999,9999,9999,9999,2160754740
5,20,Ticks_Linear_8,74,9999,9999,9999,9999,2161434724
5,20,Ticks_Linear_8,75,9999,9999,9999,9999,2162104420
5,20,Ticks_Linear_8,76,9999,9999,9999,9999,2162774136
5,20,Ticks_Linear_8,77,9999,9999,9999,9999,2163444804
5,20,Ticks_Linear_8,78,9999,9999,9999,9999,2164114504
5,20,Ticks_Linear_8,79,9999,9999,9999,9999,2164784224
5,20,Ticks_Linear_8,80,9999,9999,9999,9999,2165444700
5,20,Ticks_Linear_8,81,9999,9999,9999,9999,2166104160
5,20,Ticks_Linear_8,82,9999,9999,9999,9999,2166764668
5,20,Ticks_Linear_8,83,9999,9999,9999,9999,2167424112
5,20,Ticks_Linear_8,84,9999,9999,9999,9999,2168084544
5,20,Ticks_Linear_8,85,9999,9999,9999,9999,2168734840
5,20,Ticks_Linear_8,86,9999,9999,9999,9999,2169385088
5,20,Ticks_Linear_8,87,9999,9999,9999,9999,2170034264
5,20,Ticks_Linear_8,88,9999,9999,9999,9999,2170684508
5,20,Ticks_Linear_8,89,9999,9999,9999,9999,2171334732
5,20,Ticks_Linear_8,90,9999,9999,9999,9999,2171974776
5,20,Ticks_Linear_8,91,9999,9999,9999,9999,2172614736
5,20,Ticks_Linear_8,92,9999,9999,9999,9999,2173254776
5,20,Ticks_Linear_8,93,9999,9999,9999,9999,2173894732
5,20,Ticks_Linear_8,94,9999,9999,9999,9999,2174534772
5,20,Ticks_Linear_8,95,9999,9999,9999,9999,2175164484
5,20,Ticks_Linear_8,96,9999,9999,9999,9999,2175794288
5,20,Ticks_Linear_8,97,9999,9999,9999,9999,2176425036
5,20,Ticks_Linear_8,98,9999,9999,9999,9999,2177054848
5,20,Ticks_Linear_8,99,9999,9999,9999,9999,2177684552
5,20,Ticks_Linear_8,100,9999,9999,9999,9999,2178304096
5,20,Ticks_Linear_8,101,9999,9999,9999,9999,2178924664
5,20,Ticks_Linear_8,102,9999,9999,9999,9999,2179544132
5,20,Ticks_Linear_8,103,9999,9999,9999,9999,2180164696
5,20,Ticks_Linear_8,104,9999,9999,9999,9999,2180784216
5,20,Ticks_Linear_8,105,9999,9999,9999,9999,2181394548
5,20,Ticks_Linear_8,106,9999,9999,9999,9999,2182004792
5,20,Ticks_Linear_8,107,9999,9999,9999,9999,2182614072
5,20,Ticks_Linear_8,108,9999,9999,9999,9999,2183224380
5,20,Ticks_Linear_8,109,9999,9999,9999,9999,2183834688
5,20,Ticks_Linear_8,110,9999,9999,9999,9999,2184434760
5,20,Ticks_Linear_8,111,9999,9999,9999,9999,2185034868
5,20,Ticks_Linear_8,112,9999,9999,9999,9999,2185634916
5,20,Ticks_Linear_8,113,9999,9999,9999,9999,2186234984
5,20,Ticks_Linear_8,114,9999,9999,9999,9999,2186835040
5,20,Ticks_Linear_8,115,9999,9999,9999,9999,2187424832
5,20,Ticks_Linear_8,116,9999,9999,9999,9999,2188014712
5,20,Ticks_Linear_8,117,9999,9999,9999,9999,2188604504
5,20,Ticks_Linear_8,118,9999,9999,9999,9999,2189194292
5,20,Ticks_Linear_8,119,9999,9999,9999,9999,2189784184
5,20,Ticks_Linear_8,120,9999,9999,9999,9999,2190364760
5,20,Ticks_Linear_8,121,9999,9999,9999,9999,2190944364
5,20,Ticks_Linear_8,122,9999,9999,9999,9999,2191524948
5,20,Ticks_Linear_8,123,9999,9999,9999,9999,2192104504
5,20,Ticks_Linear_8,124,9999,9999,9999,9999,2192684112
5,20,Ticks_Linear_8,125,9999,9999,9999,9999,2193254508
5,20,Ticks_Linear_8,126,9999,9999,9999,9999,2193824824
5,20,Ticks_Linear_8,127,9999,9999,9999,9999,2194394196
5,20,Ticks_Linear_8,128,9999,9999,9999,9999,2194964588
5,20,Ticks_Linear_8,129,9999,9999,9999,9999,2195534908
5,20,Ticks_Linear_8,130,9999,9999,9999,9999,2196095040
5,20,Ticks_Linear_8,131,9999,9999,9999,9999,2196654204
5,20,Ticks_Linear_8,132,9999,9999,9999,9999,2197214280
5,20,Ticks_Linear_8,133,9999,9999,9999,9999,2197774416
5,20,Ticks_Linear_8,134,9999,9999,9999,9999,2198334556
5,20,Ticks_Linear_8,135,9999,9999,9999,9999,2198884432
5,20,Ticks_Linear_8,136,9999,9999,9999,9999,2199434300
5,20,Ticks_Linear_8,137,9999,9999,9999,9999,2199984248
5,20,Ticks_Linear_8,138,9999,9999,9999,9999,2200534072
5,20,Ticks_Linear_8,139,9999,9999,9999,9999,2201084992
5,20,Ticks_Linear_8,140,9999,9999,9999,9999,2201624692
5,20,Ticks_Linear_8,141,9999,9999,9999,9999,2202164308
5,20,Ticks_Linear_8,142,9999,9999,9999,9999,2202704968
5,20,Ticks_Linear_8,143,9999,9999,9999,9999,2203244660
5,20,Ticks_Linear_8,144,9999,9999,9999,9999,2203784272
5,20,Ticks_Linear_8,145,9999,9999,9999,9999,2204314752
5,20,Ticks_Linear_8,146,9999,9999,9999,9999,2204844100
5,20,Ticks_Linear_8,147,9999,9999,9999,9999,2205374584
5,20,Ticks_Linear_8,148,9999,9999,9999,9999,2205905012
5,20,Ticks_Linear_8,149,9999,9999,9999,9999,2206434364
5,20,Ticks_Linear_8,150,9999,9999,9999,9999,2206954584
5,20,Ticks_Linear_8,151,9999,9999,9999,9999,2207474800
5,20,Ticks_Linear_8,152,9999,9999,9999,9999,2207994944
5,20,Ticks_Linear_8,153,9999,9999,9999,9999,2208514124
5,20,Ticks_Linear_8,154,9999,9999,9999,9999,2209034344
5,20,Ticks_Linear_8,155,9999,9999,9999,9999,2209544304
5,20,Ticks_Linear_8,156,9999,9999,9999,9999,2210054264
5,20,Ticks_Linear_8,157,9999,9999,9999,9999,2210564148
5,20,Ticks_Linear_8,158,9999,9999,9999,9999,2211074108
5,20,Ticks_Linear_8,159,9999,9999,9999,9999,2211584068
5,20,Ticks_Linear_8,160,9999,9999,9999,9999,2212084816
5,20,Ticks_Linear_8,161,9999,9999,9999,9999,2212584508
5,20,Ticks_Linear_8,162,9999,9999,9999,9999,2213084284
5,20,Ticks_Linear_8,163,9999,9999,9999,9999,2213584956
5,20,Ticks_Linear_8,164,9999,9999,9999,9999,2214084704
5,20,Ticks_Linear_8,165,9999,9999,9999,9999,2214574148
5,20,Ticks_Linear_8,166,9999,9999,9999,9999,2215064636
5,20,Ticks_Linear_8,167,9999,9999,9999,9999,2215554156
5,20,Ticks_Linear_8,168,9999,9999,9999,9999,2216044644
5,20,Ticks_Linear_8,169,9999,9999,9999,9999,2216534084
6,21,Ticks_Linear_5,0,5,42,127,2227547548
6,21,Ticks_Linear_5,1,5,42,127,2228027648
6,21,Ticks_Linear_5,2,5,42,127,2228507900
6,21,Ticks_Linear_5,3,5,42,127,2228988448
6,21,Ticks_Linear_5,4,5,42,127,2229467500
6,21,Ticks_Linear_5,5,1,48,48,2229505064
6,21,Ticks_Linear_5,6,1,48,49,2229956832
6,21,Ticks_Linear_5,7,5,42,127,2229958552
6,21,Ticks_Linear_5,8,5,42,127,2230447480
6,21,Ticks_Linear_5,9,1,48,54,2230452840
6,21,Ticks_Linear_5,10,5,42,127,2230938264
6,21,Ticks_Linear_5,11,1,48,58,2230964372
6,21,Ticks_Linear_5,12,1,48,55,2231420996
6,21,Ticks_Linear_5,13,5,42,127,2231427476
6,21,Ticks_Linear_5,14,1,48,49,2231915848
6,21,Ticks_Linear_5,15,5,42,127,2231917964
6,21,Ticks_Linear_5,16,1,48,52,2232414248
6,21,Ticks_Linear_5,17,5,42,127,2232417516
6,21,Ticks_Linear_5,18,1,48,52,2232913644
6,21,Ticks_Linear_5,19,5,42,127,2232918412
6,21,Ticks_Linear_5,20,5,42,127,2233418340
6,21,Ticks_Linear_5,21,1,48,54,2233420936
6,21,Ticks_Linear_5,22,1,48,50,2233911328
6,21,Ticks_Linear_5,23,5,42,127,2233917884
6,21,Ticks_Linear_5,24,5,42,127,2234417664
6,21,Ticks_Linear_5,25,1,48,46,2234420784
6,21,Ticks_Linear_5,26,1,48,54,2234910952
6,21,Ticks_Linear_5,27,5,42,127,2234927396
6,21,Ticks_Linear_5,28,1,48,54,2235414240
6,21,Ticks_Linear_5,29,5,42,127,2235437576
6,21,Ticks_Linear_5,30,1,48,50,2235876956
6,21,Ticks_Linear_5,31,5,42,127,2235948284
6,21,Ticks_Linear_5,32,1,48,52,2236375608
6,21,Ticks_Linear_5,33,5,42,127,2236458468
6,21,Ticks_Linear_5,34,1,48,46,2236905248
6,21,Ticks_Linear_5,35,5,42,127,2236968204
6,21,Ticks_Linear_5,36,1,48,47,2237459552
6,21,Ticks_Linear_5,37,5,42,127,2237487596
6,21,Ticks_Linear_5,38,1,48,48,2237994364
6,21,Ticks_Linear_5,39,5,42,127,2238007592
6,21,Ticks_Linear_5,40,1,48,46,2238499088
6,21,Ticks_Linear_5,41,5,42,127,2238528180
6,21,Ticks_Linear_5,42,1,48,54,2239029712
6,21,Ticks_Linear_5,43,5,42,127,2239048100
6,21,Ticks_Linear_5,44,1,48,51,2239548440
6,21,Ticks_Linear_5,45,5,42,127,2239568172
6,21,Ticks_Linear_5,46,1,48,47,2240072544
6,21,Ticks_Linear_5,47,5,42,127,2240097604
6,21,Ticks_Linear_5,48,1,48,44,2240573520
6,21,Ticks_Linear_5,49,5,42,127,2240628080
6,21,Ticks_Linear_5,50,1,48,34,2241090220
6,21,Ticks_Linear_5,51,5,42,127,2241157440
6,21,Ticks_Linear_5,52,1,48,33,2241651776
6,21,Ticks_Linear_5,53,5,42,127,2241688212
6,21,Ticks_Linear_5,54,1,48,44,2242217948
6,21,Ticks_Linear_5,55,5,42,127,2242219588
6,21,Ticks_Linear_5,56,5,42,127,2242757940
6,21,Ticks_Linear_5,57,1,48,40,2242814996
6,21,Ticks_Linear_5,58,5,42,127,2243297656
6,21,Ticks_Linear_5,59,1,48,41,2243304136
6,21,Ticks_Linear_5,60,5,42,127,2243838316
6,21,Ticks_Linear_5,61,1,48,42,2243841508
6,21,Ticks_Linear_5,62,1,48,47,2244372184
6,21,Ticks_Linear_5,63,5,42,127,2244377924
6,21,Ticks_Linear_5,64,5,42,127,2244917620
6,21,Ticks_Linear_5,65,1,48,40,2244927108
6,21,Ticks_Linear_5,66,1,48,45,2245466212
6,21,Ticks_Linear_5,67,5,42,127,2245468084
6,21,Ticks_Linear_5,68,5,42,127,2246018564
6,21,Ticks_Linear_5,69,1,48,32,2246043472
6,21,Ticks_Linear_5,70,1,48,49,2246576296
6,21,Ticks_Linear_5,71,5,42,127,2246578092
6,21,Ticks_Linear_5,72,1,48,46,2247105448
6,21,Ticks_Linear_5,73,5,42,127,2247128440
6,21,Ticks_Linear_5,74,1,48,53,2247682692
6,21,Ticks_Linear_5,75,5,42,127,2247687604
6,21,Ticks_Linear_5,76,1,48,50,2248216624
6,21,Ticks_Linear_5,77,5,42,127,2248247960
6,21,Ticks_Linear_5,78,1,48,42,2248787316
6,21,Ticks_Linear_5,79,5,42,127,2248807944
6,21,Ticks_Linear_5,80,1,48,47,2249341824
6,21,Ticks_Linear_5,81,5,42,127,2249367856
6,21,Ticks_Linear_5,82,1,48,46,2249920308
6,21,Ticks_Linear_5,83,5,42,127,2249928012
6,21,Ticks_Linear_5,84,1,48,51,2250476052
6,21,Ticks_Linear_5,85,5,42,127,2250488148
6,21,Ticks_Linear_5,86,1,48,42,2251019104
6,21,Ticks_Linear_5,87,5,42,127,2251057716
6,21,Ticks_Linear_5,88,1,48,46,2251596688
6,21,Ticks_Linear_5,89,5,42,127,2251627808
6,21,Ticks_Linear_5,90,1,48,39,2252166788
6,21,Ticks_Linear_5,91,5,42,127,2252198204
6,21,Ticks_Linear_5,92,5,42,127,2252767728
6,21,Ticks_Linear_5,93,1,48,46,2252779160
6,21,Ticks_Linear_5,94,5,42,127,2253337972
6,21,Ticks_Linear_5,95,1,48,43,2253363176
6,21,Ticks_Linear_5,96,1,48,42,2253900904
6,21,Ticks_Linear_5,97,5,42,127,2253917720
6,21,Ticks_Linear_5,98,1,48,44,2254492936
6,21,Ticks_Linear_5,99,5,42,127,2254498148
6,21,Ticks_Linear_5,100,5,42,127,2255077708
6,21,Ticks_Linear_5,101,1,48,37,2255121716
6,21,Ticks_Linear_5,102,5,42,127,2255658360
6,21,Ticks_Linear_5,103,1,48,43,2255672860
6,21,Ticks_Linear_5,104,5,42,127,2256237968
6,21,Ticks_Linear_5,105,1,48,46,2256248652
6,21,Ticks_Linear_5,106,1,48,44,2256794448
6,21,Ticks_Linear_5,107,5,42,127,2256827676
6,21,Ticks_Linear_5,108,1,48,40,2257398500
6,21,Ticks_Linear_5,109,5,42,127,2257417864
6,21,Ticks_Linear_5,110,5,42,127,2258008556
6,21,Ticks_Linear_5,111,1,48,45,2258010124
6,21,Ticks_Linear_5,112,1,48,37,2258594100
6,21,Ticks_Linear_5,113,5,42,127,2258607776
6,21,Ticks_Linear_5,114,1,48,35,2259175908
6,21,Ticks_Linear_5,115,5,42,127,2259198340
6,21,Ticks_Linear_5,116,1,48,32,2259780972
6,21,Ticks_Linear_5,117,5,42,127,2259798388
6,21,Ticks_Linear_5,118,1,48,43,2260387016
6,21,Ticks_Linear_5,119,5,42,127,2260397536
6,21,Ticks_Linear_5,120,5,42,127,2260997616
6,21,Ticks_Linear_5,121,1,48,38,2261008152
6,21,Ticks_Linear_5,122,1,48,48,2261566544
6,21,Ticks_Linear_5,123,5,42,127,2261597508
6,21,Ticks_Linear_5,124,1,48,55,2262183728
6,21,Ticks_Linear_5,125,5,42,127,2262197560
6,21,Ticks_Linear_5,126,1,48,62,2262804548
6,21,Ticks_Linear_5,127,5,42,127,2262807892
6,21,Ticks_Linear_5,128,1,48,59,2263412684
6,21,Ticks_Linear_5,129,5,42,127,2263418200
6,21,Ticks_Linear_5,130,1,48,51,2264018308
6,21,Ticks_Linear_5,131,5,42,127,2264027632
6,21,Ticks_Linear_5,132,1,48,59,2264620076
6,21,Ticks_Linear_5,133,5,42,127,2264637792
6,21,Ticks_Linear_5,134,1,48,48,2265237952
6,21,Ticks_Linear_5,135,5,42,127,2265248024
6,21,Ticks_Linear_5,136,1,48,46,2265842656
6,21,Ticks_Linear_5,137,5,42,127,2265867644
6,21,Ticks_Linear_5,138,1,48,51,2266439640
6,21,Ticks_Linear_5,139,5,42,127,2266488208
6,21,Ticks_Linear_5,140,1,48,50,2267100372
6,21,Ticks_Linear_5,141,5,42,127,2267107752
6,21,Ticks_Linear_5,142,1,48,46,2267720116
6,21,Ticks_Linear_5,143,5,42,127,2267728396
6,21,Ticks_Linear_5,144,5,42,127,2268347848
6,21,Ticks_Linear_5,145,1,48,47,2268354552
6,21,Ticks_Linear_5,146,1,48,56,2268950492
6,21,Ticks_Linear_5,147,5,42,127,2268977496
6,21,Ticks_Linear_5,148,1,48,54,2269599820
6,21,Ticks_Linear_5,149,5,42,127,2269608248
6,21,Ticks_Linear_5,150,5,42,127,2270238060
6,21,Ticks_Linear_5,151,1,48,27,2270253380
6,21,Ticks_Linear_5,152,1,48,56,2270849816
6,21,Ticks_Linear_5,153,5,42,127,2270867832
6,21,Ticks_Linear_5,154,1,48,54,2271461192
6,21,Ticks_Linear_5,155,5,42,127,2271497488
6,21,Ticks_Linear_5,156,1,48,51,2272119360
6,21,Ticks_Linear_5,157,5,42,127,2272137524
6,21,Ticks_Linear_5,158,1,48,57,2272692668
6,21,Ticks_Linear_5,159,5,42,127,2272777736
6,21,Ticks_Linear_5,160,1,48,49,2273328248
6,21,Ticks_Linear_5,161,5,42,127,2273417476
6,21,Ticks_Linear_5,162,1,48,59,2274008224
6,21,Ticks_Linear_5,163,5,42,127,2274057612
6,21,Ticks_Linear_5,164,1,48,52,2274694680
6,21,Ticks_Linear_5,165,5,42,127,2274697504
6,21,Ticks_Linear_5,166,1,48,33,2275289300
6,21,Ticks_Linear_5,167,5,42,127,2275347824
6,21,Ticks_Linear_5,168,5,42,127,2275998128
6,21,Ticks_Linear_5,169,1,48,56,2276507092
6,21,Ticks_Linear_5,170,5,42,127,2276648448
6,21,Ticks_Linear_5,171,1,48,62,2277238588
6,21,Ticks_Linear_5,172,5,42,127,2277297564
6,21,Ticks_Linear_5,173,1,48,61,2277863968
6,21,Ticks_Linear_5,174,5,42,127,2277947812
6,21,Ticks_Linear_5,175,1,48,66,2278566396
6,21,Ticks_Linear_5,176,5,42,127,2278608396
6,21,Ticks_Linear_5,177,1,48,58,2279185400
6,21,Ticks_Linear_5,178,5,42,127,2279267680
6,21,Ticks_Linear_5,179,1,48,61,2279893320
6,21,Ticks_Linear_5,180,5,42,127,2279928336
6,21,Ticks_Linear_5,181,1,48,46,2280522200
6,21,Ticks_Linear_5,182,5,42,127,2280587548
6,21,Ticks_Linear_5,183,1,48,60,2281185640
6,21,Ticks_Linear_5,184,5,42,127,2281247980
6,21,Ticks_Linear_5,185,1,48,51,2281836764
6,21,Ticks_Linear_5,186,5,42,127,2281917900
6,21,Ticks_Linear_5,187,1,48,52,2282568784
6,21,Ticks_Linear_5,188,5,42,127,2282587544
6,21,Ticks_Linear_5,189,1,48,40,2283218432
6,21,Ticks_Linear_5,190,5,42,127,2283258240
6,21,Ticks_Linear_5,191,1,48,51,2283918388
6,21,Ticks_Linear_5,192,5,42,127,2283928080
6,21,Ticks_Linear_5,193,1,48,50,2284559568
6,21,Ticks_Linear_5,194,5,42,127,2284597504
6,21,Ticks_Linear_5,195,5,42,127,2285277564
6,21,Ticks_Linear_5,196,1,48,38,2285278976
6,21,Ticks_Linear_5,197,1,48,51,2285890368
6,21,Ticks_Linear_5,198,5,42,127,2285957360
6,21,Ticks_Linear_5,199,1,48,53,2286587952
6,21,Ticks_Linear_5,200,5,42,127,2286637416
6,21,Ticks_Linear_5,201,1,48,56,2287230380
6,21,Ticks_Linear_5,202,5,42,127,2287318292
6,21,Ticks_Linear_5,203,1,48,47,2287928780
6,21,Ticks_Linear_5,204,5,42,127,2287998464
6,21,Ticks_Linear_5,205,1,48,53,2288673984
6,21,Ticks_Linear_5,206,5,42,127,2288687360
6,21,Ticks_Linear_5,207,5,42,127,2289377604
6,21,Ticks_Linear_5,208,1,48,59,2289391352
6,21,Ticks_Linear_5,209,1,48,40,2290040804
6,21,Ticks_Linear_5,210,5,42,127,2290067956
6,21,Ticks_Linear_5,211,1,48,48,2290721832
6,21,Ticks_Linear_5,212,5,42,127,2290757896
6,21,Ticks_Linear_5,213,1,48,29,2291446860
6,21,Ticks_Linear_5,214,5,42,127,2291448728
6,21,Ticks_Linear_5,215,1,48,34,2292088956
6,21,Ticks_Linear_5,216,5,42,127,2292147784
6,21,Ticks_Linear_5,217,1,48,44,2292812964
6,21,Ticks_Linear_5,218,5,42,127,2292847980
6,21,Ticks_Linear_5,219,1,48,50,2293505604
6,21,Ticks_Linear_5,220,5,42,127,2293548400
6,21,Ticks_Linear_5,221,1,48,49,2294165712
6,21,Ticks_Linear_5,222,5,42,127,2294247776
6,21,Ticks_Linear_5,223,1,48,55,2294873836
6,21,Ticks_Linear_5,224,5,42,127,2294948096
6,21,Ticks_Linear_5,225,1,48,54,2295636872
6,21,Ticks_Linear_5,226,5,42,127,2295657956
6,21,Ticks_Linear_5,227,1,48,49,2296338868
6,21,Ticks_Linear_5,228,5,42,127,2296367664
6,21,Ticks_Linear_5,229,1,48,49,2296992380
6,21,Ticks_Linear_5,230,5,42,127,2297078048
6,21,Ticks_Linear_5,231,1,48,51,2297728532
6,21,Ticks_Linear_5,232,5,42,127,2297787880
6,21,Ticks_Linear_5,233,1,48,45,2298419520
6,21,Ticks_Linear_5,234,5,42,127,2298498416
6,21,Ticks_Linear_5,235,1,48,36,2299205988
6,21,Ticks_Linear_5,236,5,42,127,2299227596
6,21,Ticks_Linear_5,237,1,48,48,2299925268
6,21,Ticks_Linear_5,238,5,42,127,2299948536
6,21,Ticks_Linear_5,239,1,48,51,2300627724
6,21,Ticks_Linear_5,240,5,42,127,2300668204
6,21,Ticks_Linear_5,241,1,48,43,2301337788
6,21,Ticks_Linear_5,242,5,42,127,2301388248
6,21,Ticks_Linear_5,243,1,48,52,2302046296
6,21,Ticks_Linear_5,244,5,42,127,2302108116
6,21,Ticks_Linear_5,245,1,48,46,2302797044
6,21,Ticks_Linear_5,246,5,42,127,2302838044
6,21,Ticks_Linear_5,247,1,48,39,2303513784
6,21,Ticks_Linear_5,248,5,42,127,2303568196
6,21,Ticks_Linear_5,249,1,48,50,2304252176
6,21,Ticks_Linear_5,250,5,42,127,2304298572
6,21,Ticks_Linear_5,251,1,48,41,2305004940
6,21,Ticks_Linear_5,252,5,42,127,2305027604
6,21,Ticks_Linear_5,253,1,48,46,2305697484
6,21,Ticks_Linear_5,254,5,42,127,2305757684
6,21,Ticks_Linear_5,255,1,48,20,2306474580
6,21,Ticks_Linear_5,256,5,42,127,2306497772
6,21,Ticks_Linear_5,257,1,48,41,2307182196
6,21,Ticks_Linear_5,258,5,42,127,2307238408
6,21,Ticks_Linear_5,259,5,42,127,2307977776
6,21,Ticks_Linear_5,260,1,48,52,2308589584
6,21,Ticks_Linear_5,261,5,42,127,2308717892
6,21,Ticks_Linear_5,262,1,48,58,2309400460
6,21,Ticks_Linear_5,263,5,42,127,2309458244
6,21,Ticks_Linear_5,264,1,48,61,2310098940
6,21,Ticks_Linear_5,265,5,42,127,2310207852
6,21,Ticks_Linear_5,266,1,48,56,2310828768
6,21,Ticks_Linear_5,267,5,42,127,2310957404
6,21,Ticks_Linear_5,268,1,48,58,2311491672
6,21,Ticks_Linear_5,269,5,42,127,2311708000
6,21,Ticks_Linear_5,270,1,48,59,2312339996
6,21,Ticks_Linear_5,271,5,42,127,2312457548
6,21,Ticks_Linear_5,272,1,48,55,2313126840
6,21,Ticks_Linear_5,273,5,42,127,2313208308
6,21,Ticks_Linear_5,274,1,48,51,2313902744
6,21,Ticks_Linear_5,275,5,42,127,2313967968
6,21,Ticks_Linear_5,276,1,48,57,2314651616
6,21,Ticks_Linear_5,277,5,42,127,2314727776
6,21,Ticks_Linear_5,278,1,48,58,2315411056
6,21,Ticks_Linear_5,279,5,42,127,2315487584
6,21,Ticks_Linear_5,280,1,48,63,2316243748
6,21,Ticks_Linear_5,281,5,42,127,2316248516
6,21,Ticks_Linear_5,282,1,48,47,2317017392
6,21,Ticks_Linear_5,283,5,42,127,2317019256
6,21,Ticks_Linear_5,284,1,48,44,2317774224
6,21,Ticks_Linear_5,285,5,42,127,2317787380
6,21,Ticks_Linear_5,286,1,48,57,2318468196
6,21,Ticks_Linear_5,287,5,42,127,2318557524
6,21,Ticks_Linear_5,288,1,48,48,2319297420
6,21,Ticks_Linear_5,289,5,42,127,2319327588
6,21,Ticks_Linear_5,290,1,48,48,2320056856
6,21,Ticks_Linear_5,291,5,42,127,2320097656
6,21,Ticks_Linear_5,292,1,48,43,2320844984
6,21,Ticks_Linear_5,293,5,42,127,2320867652
6,21,Ticks_Linear_5,294,1,48,38,2321612812
6,21,Ticks_Linear_5,295,5,42,127,2321647980
6,21,Ticks_Linear_5,296,5,42,127,2322428384
6,21,Ticks_Linear_5,297,1,48,51,2322435704
6,21,Ticks_Linear_5,298,5,42,127,2323207592
6,21,Ticks_Linear_5,299,1,48,47,2323228384
6,21,Ticks_Linear_5,300,5,42,127,2323987768
6,21,Ticks_Linear_5,301,1,48,27,2324019348
6,21,Ticks_Linear_5,302,1,48,50,2324719072
6,21,Ticks_Linear_5,303,5,42,127,2324768312
6,21,Ticks_Linear_5,304,1,48,54,2325502688
6,21,Ticks_Linear_5,305,5,42,127,2325557704
6,21,Ticks_Linear_5,306,1,48,55,2326257560
6,21,Ticks_Linear_5,307,5,42,127,2326348288
6,21,Ticks_Linear_5,308,1,48,45,2327072856
6,21,Ticks_Linear_5,309,5,42,127,2327137604
6,21,Ticks_Linear_5,310,1,48,51,2327834528
6,21,Ticks_Linear_5,311,5,42,127,2327928188
6,21,Ticks_Linear_5,312,1,48,46,2328610444
6,21,Ticks_Linear_5,313,5,42,127,2328717640
6,21,Ticks_Linear_5,314,1,48,48,2329344936
6,21,Ticks_Linear_5,315,5,42,127,2329517288
6,21,Ticks_Linear_5,316,1,48,46,2330121380
6,21,Ticks_Linear_5,317,5,42,127,2330318160
6,21,Ticks_Linear_5,318,1,48,45,2330902752
6,21,Ticks_Linear_5,319,5,42,127,2331118032
6,21,Ticks_Linear_5,320,1,48,51,2331896992
6,21,Ticks_Linear_5,321,5,42,127,2331917544
6,21,Ticks_Linear_5,322,5,42,127,2332717500
6,21,Ticks_Linear_5,323,1,48,50,2332718836
6,21,Ticks_Linear_5,324,5,42,127,2333528380
6,21,Ticks_Linear_5,325,1,48,47,2333544972
6,21,Ticks_Linear_5,326,1,48,42,2334332692
6,21,Ticks_Linear_5,327,5,42,127,2334338356
6,21,Ticks_Linear_5,328,1,48,50,2335132264
6,21,Ticks_Linear_5,329,5,42,127,2335157848
6,21,Ticks_Linear_5,330,1,48,56,2335927728
6,21,Ticks_Linear_5,331,5,42,127,2335967484
6,21,Ticks_Linear_5,332,1,48,52,2336723944
6,21,Ticks_Linear_5,333,5,42,127,2336777616
6,21,Ticks_Linear_5,0,9999,9999,9999,9999,2227545172
6,21,Ticks_Linear_5,1,9999,9999,9999,9999,2228025424
6,21,Ticks_Linear_5,2,9999,9999,9999,9999,2228505672
6,21,Ticks_Linear_5,3,9999,9999,9999,9999,2228985924
6,21,Ticks_Linear_5,4,9999,9999,9999,9999,2229465200
6,21,Ticks_Linear_5,5,9999,9999,9999,9999,2229955664
6,21,Ticks_Linear_5,6,9999,9999,9999,9999,2230445180
6,21,Ticks_Linear_5,7,9999,9999,9999,9999,2230935664
6,21,Ticks_Linear_5,8,9999,9999,9999,9999,2231425100
6,21,Ticks_Linear_5,9,9999,9999,9999,9999,2231915624
6,21,Ticks_Linear_5,10,9999,9999,9999,9999,2232415288
6,21,Ticks_Linear_5,11,9999,9999,9999,9999,2232916036
6,21,Ticks_Linear_5,12,9999,9999,9999,9999,2233415740
6,21,Ticks_Linear_5,13,9999,9999,9999,9999,2233915508
6,21,Ticks_Linear_5,14,9999,9999,9999,9999,2234415212
6,21,Ticks_Linear_5,15,9999,9999,9999,9999,2234925168
6,21,Ticks_Linear_5,16,9999,9999,9999,9999,2235435128
6,21,Ticks_Linear_5,17,9999,9999,9999,9999,2235946056
6,21,Ticks_Linear_5,18,9999,9999,9999,9999,2236456020
6,21,Ticks_Linear_5,19,9999,9999,9999,9999,2236965976
6,21,Ticks_Linear_5,20,9999,9999,9999,9999,2237485148
6,21,Ticks_Linear_5,21,9999,9999,9999,9999,2238005368
6,21,Ticks_Linear_5,22,9999,9999,9999,9999,2238525508
6,21,Ticks_Linear_5,23,9999,9999,9999,9999,2239045728
6,21,Ticks_Linear_5,24,9999,9999,9999,9999,2239565948
6,21,Ticks_Linear_5,25,9999,9999,9999,9999,2240095304
6,21,Ticks_Linear_5,26,9999,9999,9999,9999,2240625780
6,21,Ticks_Linear_5,27,9999,9999,9999,9999,2241155136
6,21,Ticks_Linear_5,28,9999,9999,9999,9999,2241685616
6,21,Ticks_Linear_5,29,9999,9999,9999,9999,2242216024
6,21,Ticks_Linear_5,30,9999,9999,9999,9999,2242755640
6,21,Ticks_Linear_5,31,9999,9999,9999,9999,2243295352
6,21,Ticks_Linear_5,32,9999,9999,9999,9999,2243836012
6,21,Ticks_Linear_5,33,9999,9999,9999,9999,2244375624
6,21,Ticks_Linear_5,34,9999,9999,9999,9999,2244915320
6,21,Ticks_Linear_5,35,9999,9999,9999,9999,2245465192
6,21,Ticks_Linear_5,36,9999,9999,9999,9999,2246016116
6,21,Ticks_Linear_5,37,9999,9999,9999,9999,2246575204
6,21,Ticks_Linear_5,38,9999,9999,9999,9999,2247126144
6,21,Ticks_Linear_5,39,9999,9999,9999,9999,2247685228
6,21,Ticks_Linear_5,40,9999,9999,9999,9999,2248245364
6,21,Ticks_Linear_5,41,9999,9999,9999,9999,2248805496
6,21,Ticks_Linear_5,42,9999,9999,9999,9999,2249365632
6,21,Ticks_Linear_5,43,9999,9999,9999,9999,2249925688
6,21,Ticks_Linear_5,44,9999,9999,9999,9999,2250485848
6,21,Ticks_Linear_5,45,9999,9999,9999,9999,2251055192
6,21,Ticks_Linear_5,46,9999,9999,9999,9999,2251625584
6,21,Ticks_Linear_5,47,9999,9999,9999,9999,2252195904
6,21,Ticks_Linear_5,48,9999,9999,9999,9999,2252765280
6,21,Ticks_Linear_5,49,9999,9999,9999,9999,2253335672
6,21,Ticks_Linear_5,50,9999,9999,9999,9999,2253915196
6,21,Ticks_Linear_5,51,9999,9999,9999,9999,2254495848
6,21,Ticks_Linear_5,52,9999,9999,9999,9999,2255075408
6,21,Ticks_Linear_5,53,9999,9999,9999,9999,2255656060
6,21,Ticks_Linear_5,54,9999,9999,9999,9999,2256235592
6,21,Ticks_Linear_5,55,9999,9999,9999,9999,2256825448
6,21,Ticks_Linear_5,56,9999,9999,9999,9999,2257415264
6,21,Ticks_Linear_5,57,9999,9999,9999,9999,2258006108
6,21,Ticks_Linear_5,58,9999,9999,9999,9999,2258605176
6,21,Ticks_Linear_5,59,9999,9999,9999,9999,2259195964
6,21,Ticks_Linear_5,60,9999,9999,9999,9999,2259796088
6,21,Ticks_Linear_5,61,9999,9999,9999,9999,2260395088
6,21,Ticks_Linear_5,62,9999,9999,9999,9999,2260995168
6,21,Ticks_Linear_5,63,9999,9999,9999,9999,2261595208
6,21,Ticks_Linear_5,64,9999,9999,9999,9999,2262195256
6,21,Ticks_Linear_5,65,9999,9999,9999,9999,2262805588
6,21,Ticks_Linear_5,66,9999,9999,9999,9999,2263415896
6,21,Ticks_Linear_5,67,9999,9999,9999,9999,2264025184
6,21,Ticks_Linear_5,68,9999,9999,9999,9999,2264635492
6,21,Ticks_Linear_5,69,9999,9999,9999,9999,2265245796
6,21,Ticks_Linear_5,70,9999,9999,9999,9999,2265865344
6,21,Ticks_Linear_5,71,9999,9999,9999,9999,2266485836
6,21,Ticks_Linear_5,72,9999,9999,9999,9999,2267105376
6,21,Ticks_Linear_5,73,9999,9999,9999,9999,2267725944
6,21,Ticks_Linear_5,74,9999,9999,9999,9999,2268345396
6,21,Ticks_Linear_5,75,9999,9999,9999,9999,2268975196
6,21,Ticks_Linear_5,76,9999,9999,9999,9999,2269605948
6,21,Ticks_Linear_5,77,9999,9999,9999,9999,2270235756
6,21,Ticks_Linear_5,78,9999,9999,9999,9999,2270865532
6,21,Ticks_Linear_5,79,9999,9999,9999,9999,2271495260
6,21,Ticks_Linear_5,80,9999,9999,9999,9999,2272135224
6,21,Ticks_Linear_5,81,9999,9999,9999,9999,2272775284
6,21,Ticks_Linear_5,82,9999,9999,9999,9999,2273415248
6,21,Ticks_Linear_5,83,9999,9999,9999,9999,2274055236
6,21,Ticks_Linear_5,84,9999,9999,9999,9999,2274695276
6,21,Ticks_Linear_5,85,9999,9999,9999,9999,2275345524
6,21,Ticks_Linear_5,86,9999,9999,9999,9999,2275995752
6,21,Ticks_Linear_5,87,9999,9999,9999,9999,2276646000
6,21,Ticks_Linear_5,88,9999,9999,9999,9999,2277295192
6,21,Ticks_Linear_5,89,9999,9999,9999,9999,2277945440
6,21,Ticks_Linear_5,90,9999,9999,9999,9999,2278605944
6,21,Ticks_Linear_5,91,9999,9999,9999,9999,2279265380
6,21,Ticks_Linear_5,92,9999,9999,9999,9999,2279925884
6,21,Ticks_Linear_5,93,9999,9999,9999,9999,2280585324
6,21,Ticks_Linear_5,94,9999,9999,9999,9999,2281245756
6,21,Ticks_Linear_5,95,9999,9999,9999,9999,2281915452
6,21,Ticks_Linear_5,96,9999,9999,9999,9999,2282585168
6,21,Ticks_Linear_5,97,9999,9999,9999,9999,2283255864
6,21,Ticks_Linear_5,98,9999,9999,9999,9999,2283925560
6,21,Ticks_Linear_5,99,9999,9999,9999,9999,2284595276
6,21,Ticks_Linear_5,100,9999,9999,9999,9999,2285275260
6,21,Ticks_Linear_5,101,9999,9999,9999,9999,2285955136
6,21,Ticks_Linear_5,102,9999,9999,9999,9999,2286635112
6,21,Ticks_Linear_5,103,9999,9999,9999,9999,2287316064
6,21,Ticks_Linear_5,104,9999,9999,9999,9999,2287996016
6,21,Ticks_Linear_5,105,9999,9999,9999,9999,2288685132
6,21,Ticks_Linear_5,106,9999,9999,9999,9999,2289375304
6,21,Ticks_Linear_5,107,9999,9999,9999,9999,2290065508
6,21,Ticks_Linear_5,108,9999,9999,9999,9999,2290755672
6,21,Ticks_Linear_5,109,9999,9999,9999,9999,2291445840
6,21,Ticks_Linear_5,110,9999,9999,9999,9999,2292145260
6,21,Ticks_Linear_5,111,9999,9999,9999,9999,2292845680
6,21,Ticks_Linear_5,112,9999,9999,9999,9999,2293546100
6,21,Ticks_Linear_5,113,9999,9999,9999,9999,2294245476
6,21,Ticks_Linear_5,114,9999,9999,9999,9999,2294945872
6,21,Ticks_Linear_5,115,9999,9999,9999,9999,2295655508
6,21,Ticks_Linear_5,116,9999,9999,9999,9999,2296365140
6,21,Ticks_Linear_5,117,9999,9999,9999,9999,2297075820
6,21,Ticks_Linear_5,118,9999,9999,9999,9999,2297785432
6,21,Ticks_Linear_5,119,9999,9999,9999,9999,2298496116
6,21,Ticks_Linear_5,120,9999,9999,9999,9999,2299225144
6,21,Ticks_Linear_5,121,9999,9999,9999,9999,2299946084
6,21,Ticks_Linear_5,122,9999,9999,9999,9999,2300665980
6,21,Ticks_Linear_5,123,9999,9999,9999,9999,2301385796
6,21,Ticks_Linear_5,124,9999,9999,9999,9999,2302105664
6,21,Ticks_Linear_5,125,9999,9999,9999,9999,2302835820
6,21,Ticks_Linear_5,126,9999,9999,9999,9999,2303565896
6,21,Ticks_Linear_5,127,9999,9999,9999,9999,2304296048
6,21,Ticks_Linear_5,128,9999,9999,9999,9999,2305025080
6,21,Ticks_Linear_5,129,9999,9999,9999,9999,2305755232
6,21,Ticks_Linear_5,130,9999,9999,9999,9999,2306495544
6,21,Ticks_Linear_5,131,9999,9999,9999,9999,2307235956
6,21,Ticks_Linear_5,132,9999,9999,9999,9999,2307975252
6,21,Ticks_Linear_5,133,9999,9999,9999,9999,2308715592
6,21,Ticks_Linear_5,134,9999,9999,9999,9999,2309455944
6,21,Ticks_Linear_5,135,9999,9999,9999,9999,2310205552
6,21,Ticks_Linear_5,136,9999,9999,9999,9999,2310955100
6,21,Ticks_Linear_5,137,9999,9999,9999,9999,2311705700
6,21,Ticks_Linear_5,138,9999,9999,9999,9999,2312455248
6,21,Ticks_Linear_5,139,9999,9999,9999,9999,2313205856
6,21,Ticks_Linear_5,140,9999,9999,9999,9999,2313965668
6,21,Ticks_Linear_5,141,9999,9999,9999,9999,2314725476
6,21,Ticks_Linear_5,142,9999,9999,9999,9999,2315485284
6,21,Ticks_Linear_5,143,9999,9999,9999,9999,2316246140
6,21,Ticks_Linear_5,144,9999,9999,9999,9999,2317015164
6,21,Ticks_Linear_5,145,9999,9999,9999,9999,2317785156
6,21,Ticks_Linear_5,146,9999,9999,9999,9999,2318555220
6,21,Ticks_Linear_5,147,9999,9999,9999,9999,2319325288
6,21,Ticks_Linear_5,148,9999,9999,9999,9999,2320095356
6,21,Ticks_Linear_5,149,9999,9999,9999,9999,2320865348
6,21,Ticks_Linear_5,150,9999,9999,9999,9999,2321645676
6,21,Ticks_Linear_5,151,9999,9999,9999,9999,2322425936
6,21,Ticks_Linear_5,152,9999,9999,9999,9999,2323205216
6,21,Ticks_Linear_5,153,9999,9999,9999,9999,2323985468
6,21,Ticks_Linear_5,154,9999,9999,9999,9999,2324765788
6,21,Ticks_Linear_5,155,9999,9999,9999,9999,2325555328
6,21,Ticks_Linear_5,156,9999,9999,9999,9999,2326345840
6,21,Ticks_Linear_5,157,9999,9999,9999,9999,2327135304
6,21,Ticks_Linear_5,158,9999,9999,9999,9999,2327925816
6,21,Ticks_Linear_5,159,9999,9999,9999,9999,2328715340
6,21,Ticks_Linear_5,160,9999,9999,9999,9999,2329515064
6,21,Ticks_Linear_5,161,9999,9999,9999,9999,2330315860
6,21,Ticks_Linear_5,162,9999,9999,9999,9999,2331115580
6,21,Ticks_Linear_5,163,9999,9999,9999,9999,2331915320
6,21,Ticks_Linear_5,164,9999,9999,9999,9999,2332715124
6,21,Ticks_Linear_5,165,9999,9999,9999,9999,2333526080
6,21,Ticks_Linear_5,166,9999,9999,9999,9999,2334336056
6,21,Ticks_Linear_5,167,9999,9999,9999,9999,2335155324
6,21,Ticks_Linear_5,168,9999,9999,9999,9999,2335965256
6,21,Ticks_Linear_5,169,9999,9999,9999,9999,2336775240
7,9,Ticks_ISO_T2_8,0,5,42,127,2347843896
7,9,Ticks_ISO_T2_8,1,5,42,127,2348643652
7,9,Ticks_ISO_T2_8,2,5,42,127,2349443628
7,9,Ticks_ISO_T2_8,3,5,42,127,2350244060
7,9,Ticks_ISO_T2_8,4,5,42,127,2351043912
7,9,Ticks_ISO_T2_8,5,1,48,51,2351106796
7,9,Ticks_ISO_T2_8,6,5,42,127,2351843572
7,9,Ticks_ISO_T2_8,7,1,48,48,2351867936
7,9,Ticks_ISO_T2_8,8,1,48,49,2352636532
7,9,Ticks_ISO_T2_8,9,5,42,127,2352643672
7,9,Ticks_ISO_T2_8,10,1,48,46,2353406052
7,9,Ticks_ISO_T2_8,11,5,42,127,2353444376
7,9,Ticks_ISO_T2_8,12,1,48,52,2354202564
7,9,Ticks_ISO_T2_8,13,5,42,127,2354244036
7,9,Ticks_ISO_T2_8,14,1,48,52,2355011648
7,9,Ticks_ISO_T2_8,15,5,42,127,2355043620
7,9,Ticks_ISO_T2_8,16,1,48,46,2355827016
7,9,Ticks_ISO_T2_8,17,5,42,127,2355843428
7,9,Ticks_ISO_T2_8,18,1,48,38,2356628316
7,9,Ticks_ISO_T2_8,19,5,42,127,2356644284
7,9,Ticks_ISO_T2_8,20,5,42,127,2357443896
7,9,Ticks_ISO_T2_8,21,1,48,52,2357479032
7,9,Ticks_ISO_T2_8,22,5,42,127,2358243632
7,9,Ticks_ISO_T2_8,23,1,48,47,2358267544
7,9,Ticks_ISO_T2_8,24,5,42,127,2359043512
7,9,Ticks_ISO_T2_8,25,1,48,46,2359057780
7,9,Ticks_ISO_T2_8,26,5,42,127,2359844292
7,9,Ticks_ISO_T2_8,27,1,48,43,2359885632
7,9,Ticks_ISO_T2_8,28,5,42,127,2360643876
7,9,Ticks_ISO_T2_8,29,1,48,44,2360672728
7,9,Ticks_ISO_T2_8,30,5,42,127,2361443760
7,9,Ticks_ISO_T2_8,31,1,48,32,2361462212
7,9,Ticks_ISO_T2_8,32,1,48,39,2362210620
7,9,Ticks_ISO_T2_8,33,5,42,127,2362243412
7,9,Ticks_ISO_T2_8,34,5,42,127,2363044420
7,9,Ticks_ISO_T2_8,35,1,48,42,2363087284
7,9,Ticks_ISO_T2_8,36,5,42,127,2363844032
7,9,Ticks_ISO_T2_8,37,1,48,39,2363898988
7,9,Ticks_ISO_T2_8,38,5,42,127,2364643768
7,9,Ticks_ISO_T2_8,39,1,48,39,2364693636
7,9,Ticks_ISO_T2_8,40,5,42,127,2365443424
7,9,Ticks_ISO_T2_8,41,1,48,40,2365484096
7,9,Ticks_ISO_T2_8,42,5,42,127,2366244280
7,9,Ticks_ISO_T2_8,43,1,48,29,2366277096
7,9,Ticks_ISO_T2_8,44,5,42,127,2367044012
7,9,Ticks_ISO_T2_8,45,1,48,42,2367045200
7,9,Ticks_ISO_T2_8,46,1,48,51,2367827256
7,9,Ticks_ISO_T2_8,47,5,42,127,2367843592
7,9,Ticks_ISO_T2_8,48,5,42,127,2368643408
7,9,Ticks_ISO_T2_8,49,1,48,44,2368658044
7,9,Ticks_ISO_T2_8,50,5,42,127,2369444336
7,9,Ticks_ISO_T2_8,51,1,48,50,2369457556
7,9,Ticks_ISO_T2_8,52,1,48,46,2370217028
7,9,Ticks_ISO_T2_8,53,5,42,127,2370244160
7,9,Ticks_ISO_T2_8,54,1,48,44,2371028528
7,9,Ticks_ISO_T2_8,55,5,42,127,2371043892
7,9,Ticks_ISO_T2_8,56,5,42,127,2371843484
7,9,Ticks_ISO_T2_8,57,1,48,45,2371890884
7,9,Ticks_ISO_T2_8,58,5,42,127,2372644192
7,9,Ticks_ISO_T2_8,59,1,48,27,2372660552
7,9,Ticks_ISO_T2_8,60,1,48,49,2373415236
7,9,Ticks_ISO_T2_8,61,5,42,127,2373444216
7,9,Ticks_ISO_T2_8,62,1,48,51,2374231500
7,9,Ticks_ISO_T2_8,63,5,42,127,2374243652
7,9,Ticks_ISO_T2_8,64,5,42,127,2375043392
7,9,Ticks_ISO_T2_8,65,1,48,54,2375068952
7,9,Ticks_ISO_T2_8,66,5,42,127,2375844172
7,9,Ticks_ISO_T2_8,67,1,48,48,2375889280
7,9,Ticks_ISO_T2_8,68,5,42,127,2376644156
7,9,Ticks_ISO_T2_8,69,1,48,42,2376680036
7,9,Ticks_ISO_T2_8,70,5,42,127,2377443812
7,9,Ticks_ISO_T2_8,71,1,48,45,2377457404
7,9,Ticks_ISO_T2_8,72,1,48,47,2378239692
7,9,Ticks_ISO_T2_8,73,5,42,127,2378243464
7,9,Ticks_ISO_T2_8,74,1,48,48,2379044400
7,9,Ticks_ISO_T2_8,75,5,42,127,2379045968
7,9,Ticks_ISO_T2_8,76,5,42,127,2379844132
7,9,Ticks_ISO_T2_8,77,1,48,44,2379867000
7,9,Ticks_ISO_T2_8,78,1,48,34,2380632388
7,9,Ticks_ISO_T2_8,79,5,42,127,2380643712
7,9,Ticks_ISO_T2_8,80,5,42,127,2381443304
7,9,Ticks_ISO_T2_8,81,1,48,52,2381450084
7,9,Ticks_ISO_T2_8,82,5,42,127,2382244156
7,9,Ticks_ISO_T2_8,83,1,48,48,2382268968
7,9,Ticks_ISO_T2_8,84,5,42,127,2383043840
7,9,Ticks_ISO_T2_8,85,1,48,47,2383077408
7,9,Ticks_ISO_T2_8,86,5,42,127,2383843872
7,9,Ticks_ISO_T2_8,87,1,48,51,2383897932
7,9,Ticks_ISO_T2_8,88,5,42,127,2384643308
7,9,Ticks_ISO_T2_8,89,1,48,32,2384711052
7,9,Ticks_ISO_T2_8,90,5,42,127,2385444236
7,9,Ticks_ISO_T2_8,91,1,48,47,2385462316
7,9,Ticks_ISO_T2_8,92,5,42,127,2386243896
7,9,Ticks_ISO_T2_8,93,1,48,47,2386269152
7,9,Ticks_ISO_T2_8,94,5,42,127,2387044000
7,9,Ticks_ISO_T2_8,95,1,48,44,2387082504
7,9,Ticks_ISO_T2_8,96,5,42,127,2387843512
7,9,Ticks_ISO_T2_8,97,1,48,47,2387885380
7,9,Ticks_ISO_T2_8,98,5,42,127,2388644144
7,9,Ticks_ISO_T2_8,99,1,48,48,2388674668
7,9,Ticks_ISO_T2_8,100,1,48,40,2389442844
7,9,Ticks_ISO_T2_8,101,5,42,127,2389444644
7,9,Ticks_ISO_T2_8,102,5,42,127,2390243860
7,9,Ticks_ISO_T2_8,103,1,48,48,2390299264
7,9,Ticks_ISO_T2_8,104,5,42,127,2391043592
7,9,Ticks_ISO_T2_8,105,1,48,42,2391077384
7,9,Ticks_ISO_T2_8,106,1,48,54,2391816736
7,9,Ticks_ISO_T2_8,107,5,42,127,2391844220
7,9,Ticks_ISO_T2_8,108,1,48,51,2392600012
7,9,Ticks_ISO_T2_8,109,5,42,127,2392643804
7,9,Ticks_ISO_T2_8,110,1,48,42,2393424132
7,9,Ticks_ISO_T2_8,111,5,42,127,2393443832
7,9,Ticks_ISO_T2_8,112,5,42,127,2394243648
7,9,Ticks_ISO_T2_8,113,1,48,36,2394260756
7,9,Ticks_ISO_T2_8,114,5,42,127,2395044204
7,9,Ticks_ISO_T2_8,115,1,48,49,2395050540
7,9,Ticks_ISO_T2_8,116,1,48,45,2395838688
7,9,Ticks_ISO_T2_8,117,5,42,127,2395843956
7,9,Ticks_ISO_T2_8,118,5,42,127,2396643696
7,9,Ticks_ISO_T2_8,119,1,48,46,2396687804
7,9,Ticks_ISO_T2_8,120,5,42,127,2397443648
7,9,Ticks_ISO_T2_8,121,1,48,49,2397447668
7,9,Ticks_ISO_T2_8,122,5,42,127,2398244060
7,9,Ticks_ISO_T2_8,123,1,48,57,2398252860
7,9,Ticks_ISO_T2_8,124,1,48,42,2399031784
7,9,Ticks_ISO_T2_8,125,5,42,127,2399043932
7,9,Ticks_ISO_T2_8,126,1,48,41,2399836456
7,9,Ticks_ISO_T2_8,127,5,42,127,2399843592
7,9,Ticks_ISO_T2_8,128,5,42,127,2400643556
7,9,Ticks_ISO_T2_8,129,1,48,53,2400655504
7,9,Ticks_ISO_T2_8,130,5,42,127,2401444408
7,9,Ticks_ISO_T2_8,131,1,48,32,2401510984
7,9,Ticks_ISO_T2_8,132,5,42,127,2402243796
7,9,Ticks_ISO_T2_8,133,1,48,49,2402259628
7,9,Ticks_ISO_T2_8,134,1,48,52,2403038256
7,9,Ticks_ISO_T2_8,135,5,42,127,2403043596
7,9,Ticks_ISO_T2_8,136,5,42,127,2403843336
7,9,Ticks_ISO_T2_8,137,1,48,42,2403859772
7,9,Ticks_ISO_T2_8,138,1,48,45,2404635544
7,9,Ticks_ISO_T2_8,139,5,42,127,2404644332
7,9,Ticks_ISO_T2_8,140,5,42,127,2405443924
7,9,Ticks_ISO_T2_8,141,1,48,56,2405451232
7,9,Ticks_ISO_T2_8,142,5,42,127,2406243808
7,9,Ticks_ISO_T2_8,143,1,48,43,2406280736
7,9,Ticks_ISO_T2_8,144,1,48,51,2406985604
7,9,Ticks_ISO_T2_8,145,5,42,127,2407043384
7,9,Ticks_ISO_T2_8,146,1,48,54,2407835304
7,9,Ticks_ISO_T2_8,147,5,42,127,2407844164
7,9,Ticks_ISO_T2_8,148,5,42,127,2408644080
7,9,Ticks_ISO_T2_8,149,1,48,49,2408647276
7,9,Ticks_ISO_T2_8,150,5,42,127,2409443588
7,9,Ticks_ISO_T2_8,151,1,48,49,2409465180
7,9,Ticks_ISO_T2_8,152,5,42,127,2410243324
7,9,Ticks_ISO_T2_8,153,1,48,42,2410268656
7,9,Ticks_ISO_T2_8,154,5,42,127,2411044252
7,9,Ticks_ISO_T2_8,155,1,48,44,2411079236
7,9,Ticks_ISO_T2_8,156,5,42,127,2411843912
7,9,Ticks_ISO_T2_8,157,1,48,44,2411896100
7,9,Ticks_ISO_T2_8,158,1,48,45,2412642820
7,9,Ticks_ISO_T2_8,159,5,42,127,2412644612
7,9,Ticks_ISO_T2_8,160,1,48,46,2413412072
7,9,Ticks_ISO_T2_8,161,5,42,127,2413443372
7,9,Ticks_ISO_T2_8,162,5,42,127,2414244308
7,9,Ticks_ISO_T2_8,163,1,48,37,2414265976
7,9,Ticks_ISO_T2_8,164,5,42,127,2415044068
7,9,Ticks_ISO_T2_8,165,1,48,61,2415047040
7,9,Ticks_ISO_T2_8,166,5,42,127,2415843652
7,9,Ticks_ISO_T2_8,167,1,48,64,2415875792
7,9,Ticks_ISO_T2_8,168,5,42,127,2416643384
7,9,Ticks_ISO_T2_8,169,1,48,52,2416703876
7,9,Ticks_ISO_T2_8,170,5,42,127,2417444164
7,9,Ticks_ISO_T2_8,171,1,48,48,2417486404
7,9,Ticks_ISO_T2_8,172,5,42,127,2418243976
7,9,Ticks_ISO_T2_8,173,1,48,55,2418298036
7,9,Ticks_ISO_T2_8,174,5,42,127,2419043708
7,9,Ticks_ISO_T2_8,175,1,48,63,2419046376
7,9,Ticks_ISO_T2_8,176,5,42,127,2419843444
7,9,Ticks_ISO_T2_8,177,1,48,75,2419892492
7,9,Ticks_ISO_T2_8,178,5,42,127,2420644148
7,9,Ticks_ISO_T2_8,179,1,48,63,2420700252
7,9,Ticks_ISO_T2_8,180,5,42,127,2421444056
7,9,Ticks_ISO_T2_8,181,1,48,50,2421529228
7,9,Ticks_ISO_T2_8,182,5,42,127,2422243788
7,9,Ticks_ISO_T2_8,183,1,48,59,2422287076
7,9,Ticks_ISO_T2_8,184,5,42,127,2423043448
7,9,Ticks_ISO_T2_8,185,1,48,63,2423068108
7,9,Ticks_ISO_T2_8,186,5,42,127,2423844080
7,9,Ticks_ISO_T2_8,187,1,48,52,2423857596
7,9,Ticks_ISO_T2_8,188,1,48,46,2424637864
7,9,Ticks_ISO_T2_8,189,5,42,127,2424644028
7,9,Ticks_ISO_T2_8,190,1,48,57,2425423160
7,9,Ticks_ISO_T2_8,191,5,42,127,2425443760
7,9,Ticks_ISO_T2_8,192,5,42,127,2426243428
7,9,Ticks_ISO_T2_8,193,1,48,62,2426256724
7,9,Ticks_ISO_T2_8,194,1,48,55,2427012604
7,9,Ticks_ISO_T2_8,195,5,42,127,2427044276
7,9,Ticks_ISO_T2_8,196,1,48,55,2427826848
7,9,Ticks_ISO_T2_8,197,5,42,127,2427844108
7,9,Ticks_ISO_T2_8,198,1,48,66,2428616432
7,9,Ticks_ISO_T2_8,199,5,42,127,2428643696
7,9,Ticks_ISO_T2_8,200,1,48,60,2429437860
7,9,Ticks_ISO_T2_8,201,5,42,127,2429443428
7,9,Ticks_ISO_T2_8,202,1,48,61,2430211640
7,9,Ticks_ISO_T2_8,203,5,42,127,2430244208
7,9,Ticks_ISO_T2_8,204,5,42,127,2431043948
7,9,Ticks_ISO_T2_8,205,1,48,63,2431121264
7,9,Ticks_ISO_T2_8,206,5,42,127,2431843908
7,9,Ticks_ISO_T2_8,207,1,48,49,2431846584
7,9,Ticks_ISO_T2_8,208,5,42,127,2432643492
7,9,Ticks_ISO_T2_8,209,1,48,50,2432650428
7,9,Ticks_ISO_T2_8,210,1,48,58,2433428600
7,9,Ticks_ISO_T2_8,211,5,42,127,2433444112
7,9,Ticks_ISO_T2_8,212,5,42,127,2434244028
7,9,Ticks_ISO_T2_8,213,1,48,48,2434252908
7,9,Ticks_ISO_T2_8,214,5,42,127,2435043760
7,9,Ticks_ISO_T2_8,215,1,48,49,2435071264
7,9,Ticks_ISO_T2_8,216,5,42,127,2435843492
7,9,Ticks_ISO_T2_8,217,1,48,39,2435867712
7,9,Ticks_ISO_T2_8,218,1,48,48,2436608556
7,9,Ticks_ISO_T2_8,219,5,42,127,2436644120
7,9,Ticks_ISO_T2_8,220,5,42,127,2437443860
7,9,Ticks_ISO_T2_8,221,1,48,56,2437463436
7,9,Ticks_ISO_T2_8,222,5,42,127,2438243816
7,9,Ticks_ISO_T2_8,223,1,48,50,2438266756
7,9,Ticks_ISO_T2_8,224,5,42,127,2439043548
7,9,Ticks_ISO_T2_8,225,1,48,57,2439070452
7,9,Ticks_ISO_T2_8,226,5,42,127,2439844180
7,9,Ticks_ISO_T2_8,227,1,48,50,2439872756
7,9,Ticks_ISO_T2_8,228,5,42,127,2440644012
7,9,Ticks_ISO_T2_8,229,1,48,53,2440653044
7,9,Ticks_ISO_T2_8,230,1,48,48,2441368136
7,9,Ticks_ISO_T2_8,231,5,42,127,2441443592
7,9,Ticks_ISO_T2_8,232,1,48,50,2442203120
7,9,Ticks_ISO_T2_8,233,5,42,127,2442243620
7,9,Ticks_ISO_T2_8,234,5,42,127,2443044184
7,9,Ticks_ISO_T2_8,235,1,48,57,2443051716
7,9,Ticks_ISO_T2_8,0,9999,9999,9999,9999,2347841608
7,9,Ticks_ISO_T2_8,1,9999,9999,9999,9999,2348641364
7,9,Ticks_ISO_T2_8,2,9999,9999,9999,9999,2349441116
7,9,Ticks_ISO_T2_8,3,9999,9999,9999,9999,2350241844
7,9,Ticks_ISO_T2_8,4,9999,9999,9999,9999,2351041624
7,9,Ticks_ISO_T2_8,5,9999,9999,9999,9999,2351841356
7,9,Ticks_ISO_T2_8,6,9999,9999,9999,9999,2352641084
7,9,Ticks_ISO_T2_8,7,9999,9999,9999,9999,2353441864
7,9,Ticks_ISO_T2_8,8,9999,9999,9999,9999,2354241600
7,9,Ticks_ISO_T2_8,9,9999,9999,9999,9999,2355041332
7,9,Ticks_ISO_T2_8,10,9999,9999,9999,9999,2355841140
7,9,Ticks_ISO_T2_8,11,9999,9999,9999,9999,2356641844
7,9,Ticks_ISO_T2_8,12,9999,9999,9999,9999,2357441608
7,9,Ticks_ISO_T2_8,13,9999,9999,9999,9999,2358241344
7,9,Ticks_ISO_T2_8,14,9999,9999,9999,9999,2359041076
7,9,Ticks_ISO_T2_8,15,9999,9999,9999,9999,2359841856
7,9,Ticks_ISO_T2_8,16,9999,9999,9999,9999,2360641588
7,9,Ticks_ISO_T2_8,17,9999,9999,9999,9999,2361441396
7,9,Ticks_ISO_T2_8,18,9999,9999,9999,9999,2362241124
7,9,Ticks_ISO_T2_8,19,9999,9999,9999,9999,2363041908
7,9,Ticks_ISO_T2_8,20,9999,9999,9999,9999,2363841596
7,9,Ticks_ISO_T2_8,21,9999,9999,9999,9999,2364641328
7,9,Ticks_ISO_T2_8,22,9999,9999,9999,9999,2365441136
7,9,Ticks_ISO_T2_8,23,9999,9999,9999,9999,2366241844
7,9,Ticks_ISO_T2_8,24,9999,9999,9999,9999,2367041652
7,9,Ticks_ISO_T2_8,25,9999,9999,9999,9999,2367841380
7,9,Ticks_ISO_T2_8,26,9999,9999,9999,9999,2368641120
7,9,Ticks_ISO_T2_8,27,9999,9999,9999,9999,2369441900
7,9,Ticks_ISO_T2_8,28,9999,9999,9999,9999,2370241648
7,9,Ticks_ISO_T2_8,29,9999,9999,9999,9999,2371041380
7,9,Ticks_ISO_T2_8,30,9999,9999,9999,9999,2371841124
7,9,Ticks_ISO_T2_8,31,9999,9999,9999,9999,2372641904
7,9,Ticks_ISO_T2_8,32,9999,9999,9999,9999,2373441628
7,9,Ticks_ISO_T2_8,33,9999,9999,9999,9999,2374241364
7,9,Ticks_ISO_T2_8,34,9999,9999,9999,9999,2375041100
7,9,Ticks_ISO_T2_8,35,9999,9999,9999,9999,2375841884
7,9,Ticks_ISO_T2_8,36,9999,9999,9999,9999,2376641644
7,9,Ticks_ISO_T2_8,37,9999,9999,9999,9999,2377441376
7,9,Ticks_ISO_T2_8,38,9999,9999,9999,9999,2378241104
7,9,Ticks_ISO_T2_8,39,9999,9999,9999,9999,2379041888
7,9,Ticks_ISO_T2_8,40,9999,9999,9999,9999,2379841624
7,9,Ticks_ISO_T2_8,41,9999,9999,9999,9999,2380641352
7,9,Ticks_ISO_T2_8,42,9999,9999,9999,9999,2381441092
7,9,Ticks_ISO_T2_8,43,9999,9999,9999,9999,2382241868
7,9,Ticks_ISO_T2_8,44,9999,9999,9999,9999,2383041628
7,9,Ticks_ISO_T2_8,45,9999,9999,9999,9999,2383841360
7,9,Ticks_ISO_T2_8,46,9999,9999,9999,9999,2384641096
7,9,Ticks_ISO_T2_8,47,9999,9999,9999,9999,2385441872
7,9,Ticks_ISO_T2_8,48,9999,9999,9999,9999,2386241608
7,9,Ticks_ISO_T2_8,49,9999,9999,9999,9999,2387041340
7,9,Ticks_ISO_T2_8,50,9999,9999,9999,9999,2387841076
7,9,Ticks_ISO_T2_8,51,9999,9999,9999,9999,2388641856
7,9,Ticks_ISO_T2_8,52,9999,9999,9999,9999,2389441616
7,9,Ticks_ISO_T2_8,53,9999,9999,9999,9999,2390241348
7,9,Ticks_ISO_T2_8,54,9999,9999,9999,9999,2391041084
7,9,Ticks_ISO_T2_8,55,9999,9999,9999,9999,2391841856
7,9,Ticks_ISO_T2_8,56,9999,9999,9999,9999,2392641592
7,9,Ticks_ISO_T2_8,57,9999,9999,9999,9999,2393441396
7,9,Ticks_ISO_T2_8,58,9999,9999,9999,9999,2394241136
7,9,Ticks_ISO_T2_8,59,9999,9999,9999,9999,2395041840
7,9,Ticks_ISO_T2_8,60,9999,9999,9999,9999,2395841592
7,9,Ticks_ISO_T2_8,61,9999,9999,9999,9999,2396641332
7,9,Ticks_ISO_T2_8,62,9999,9999,9999,9999,2397441140
7,9,Ticks_ISO_T2_8,63,9999,9999,9999,9999,2398241844
7,9,Ticks_ISO_T2_8,64,9999,9999,9999,9999,2399041644
7,9,Ticks_ISO_T2_8,65,9999,9999,9999,9999,2399841380
7,9,Ticks_ISO_T2_8,66,9999,9999,9999,9999,2400641120
7,9,Ticks_ISO_T2_8,67,9999,9999,9999,9999,2401441896
7,9,Ticks_ISO_T2_8,68,9999,9999,9999,9999,2402241580
7,9,Ticks_ISO_T2_8,69,9999,9999,9999,9999,2403041384
7,9,Ticks_ISO_T2_8,70,9999,9999,9999,9999,2403841124
7,9,Ticks_ISO_T2_8,71,9999,9999,9999,9999,2404641896
7,9,Ticks_ISO_T2_8,72,9999,9999,9999,9999,2405441636
7,9,Ticks_ISO_T2_8,73,9999,9999,9999,9999,2406241368
7,9,Ticks_ISO_T2_8,74,9999,9999,9999,9999,2407041096
7,9,Ticks_ISO_T2_8,75,9999,9999,9999,9999,2407841876
7,9,Ticks_ISO_T2_8,76,9999,9999,9999,9999,2408641640
7,9,Ticks_ISO_T2_8,77,9999,9999,9999,9999,2409441376
7,9,Ticks_ISO_T2_8,78,9999,9999,9999,9999,2410241108
7,9,Ticks_ISO_T2_8,79,9999,9999,9999,9999,2411041888
7,9,Ticks_ISO_T2_8,80,9999,9999,9999,9999,2411841624
7,9,Ticks_ISO_T2_8,81,9999,9999,9999,9999,2412641360
7,9,Ticks_ISO_T2_8,82,9999,9999,9999,9999,2413441084
7,9,Ticks_ISO_T2_8,83,9999,9999,9999,9999,2414241872
7,9,Ticks_ISO_T2_8,84,9999,9999,9999,9999,2415041628
7,9,Ticks_ISO_T2_8,85,9999,9999,9999,9999,2415841364
7,9,Ticks_ISO_T2_8,86,9999,9999,9999,9999,2416641096
7,9,Ticks_ISO_T2_8,87,9999,9999,9999,9999,2417441876
7,9,Ticks_ISO_T2_8,88,9999,9999,9999,9999,2418241612
7,9,Ticks_ISO_T2_8,89,9999,9999,9999,9999,2419041344
7,9,Ticks_ISO_T2_8,90,9999,9999,9999,9999,2419841080
7,9,Ticks_ISO_T2_8,91,9999,9999,9999,9999,2420641860
7,9,Ticks_ISO_T2_8,92,9999,9999,9999,9999,2421441620
7,9,Ticks_ISO_T2_8,93,9999,9999,9999,9999,2422241352
7,9,Ticks_ISO_T2_8,94,9999,9999,9999,9999,2423041084
7,9,Ticks_ISO_T2_8,95,9999,9999,9999,9999,2423841864
7,9,Ticks_ISO_T2_8,96,9999,9999,9999,9999,2424641592
7,9,Ticks_ISO_T2_8,97,9999,9999,9999,9999,2425441400
7,9,Ticks_ISO_T2_8,98,9999,9999,9999,9999,2426241140
7,9,Ticks_ISO_T2_8,99,9999,9999,9999,9999,2427041840
7,9,Ticks_ISO_T2_8,100,9999,9999,9999,9999,2427841596
7,9,Ticks_ISO_T2_8,101,9999,9999,9999,9999,2428641332
7,9,Ticks_ISO_T2_8,102,9999,9999,9999,9999,2429441140
7,9,Ticks_ISO_T2_8,103,9999,9999,9999,9999,2430241848
7,9,Ticks_ISO_T2_8,104,9999,9999,9999,9999,2431041588
7,9,Ticks_ISO_T2_8,105,9999,9999,9999,9999,2431841396
7,9,Ticks_ISO_T2_8,106,9999,9999,9999,9999,2432641128
7,9,Ticks_ISO_T2_8,107,9999,9999,9999,9999,2433441900
7,9,Ticks_ISO_T2_8,108,9999,9999,9999,9999,2434241592
7,9,Ticks_ISO_T2_8,109,9999,9999,9999,9999,2435041396
7,9,Ticks_ISO_T2_8,110,9999,9999,9999,9999,2435841132
7,9,Ticks_ISO_T2_8,111,9999,9999,9999,9999,2436641904
7,9,Ticks_ISO_T2_8,112,9999,9999,9999,9999,2437441644
7,9,Ticks_ISO_T2_8,113,9999,9999,9999,9999,2438241380
7,9,Ticks_ISO_T2_8,114,9999,9999,9999,9999,2439041112
7,9,Ticks_ISO_T2_8,115,9999,9999,9999,9999,2439841892
7,9,Ticks_ISO_T2_8,116,9999,9999,9999,9999,2440641652
7,9,Ticks_ISO_T2_8,117,9999,9999,9999,9999,2441441376
7,9,Ticks_ISO_T2_8,118,9999,9999,9999,9999,2442241112
7,9,Ticks_ISO_T2_8,119,9999,9999,9999,9999,2443041896
8,10,Ticks_ISO_T2_5,0,5,42,127,2454996356
8,10,Ticks_ISO_T2_5,1,5,42,127,2455496072
8,10,Ticks_ISO_T2_5,2,5,42,127,2455995788
8,10,Ticks_ISO_T2_5,3,5,42,127,2456495332
8,10,Ticks_ISO_T2_5,4,5,42,127,2456996244
8,10,Ticks_ISO_T2_5,5,5,42,127,2457496184
8,10,Ticks_ISO_T2_5,6,5,42,127,2457995600
8,10,Ticks_ISO_T2_5,7,5,42,127,2458496440
8,10,Ticks_ISO_T2_5,8,5,42,127,2458996304
8,10,Ticks_ISO_T2_5,9,1,48,46,2459024556
8,10,Ticks_ISO_T2_5,10,5,42,127,2459495848
8,10,Ticks_ISO_T2_5,11,1,48,51,2459523576
8,10,Ticks_ISO_T2_5,12,5,42,127,2459995396
8,10,Ticks_ISO_T2_5,13,1,48,54,2460008012
8,10,Ticks_ISO_T2_5,14,5,42,127,2460496136
8,10,Ticks_ISO_T2_5,15,1,48,57,2460536880
8,10,Ticks_ISO_T2_5,16,5,42,127,2460996200
8,10,Ticks_ISO_T2_5,17,1,48,58,2461036268
8,10,Ticks_ISO_T2_5,18,5,42,127,2461495600
8,10,Ticks_ISO_T2_5,19,1,48,62,2461516144
8,10,Ticks_ISO_T2_5,20,5,42,127,2461996416
8,10,Ticks_ISO_T2_5,21,1,48,60,2462047260
8,10,Ticks_ISO_T2_5,22,5,42,127,2462496256
8,10,Ticks_ISO_T2_5,23,1,48,55,2462521372
8,10,Ticks_ISO_T2_5,24,5,42,127,2462995804
8,10,Ticks_ISO_T2_5,25,1,48,63,2463016868
8,10,Ticks_ISO_T2_5,26,5,42,127,2463495500
8,10,Ticks_ISO_T2_5,27,1,48,57,2463504452
8,10,Ticks_ISO_T2_5,28,5,42,127,2463996240
8,10,Ticks_ISO_T2_5,29,1,48,60,2463997284
8,10,Ticks_ISO_T2_5,30,5,42,127,2464496084
8,10,Ticks_ISO_T2_5,31,1,48,60,2464538472
8,10,Ticks_ISO_T2_5,32,5,42,127,2464996004
8,10,Ticks_ISO_T2_5,33,1,48,59,2465005632
8,10,Ticks_ISO_T2_5,34,1,48,61,2465469404
8,10,Ticks_ISO_T2_5,35,5,42,127,2465496368
8,10,Ticks_ISO_T2_5,36,1,48,60,2465973184
8,10,Ticks_ISO_T2_5,37,5,42,127,2465996060
8,10,Ticks_ISO_T2_5,38,1,48,62,2466478644
8,10,Ticks_ISO_T2_5,39,5,42,127,2466495980
8,10,Ticks_ISO_T2_5,40,1,48,63,2466984912
8,10,Ticks_ISO_T2_5,41,5,42,127,2466995500
8,10,Ticks_ISO_T2_5,42,1,48,62,2467458288
8,10,Ticks_ISO_T2_5,43,5,42,127,2467496240
8,10,Ticks_ISO_T2_5,44,1,48,54,2467969128
8,10,Ticks_ISO_T2_5,45,5,42,127,2467996012
8,10,Ticks_ISO_T2_5,46,1,48,59,2468489764
8,10,Ticks_ISO_T2_5,47,5,42,127,2468495928
8,10,Ticks_ISO_T2_5,48,1,48,57,2468990432
8,10,Ticks_ISO_T2_5,49,5,42,127,2468995400
8,10,Ticks_ISO_T2_5,50,1,48,54,2469482268
8,10,Ticks_ISO_T2_5,51,5,42,127,2469496144
8,10,Ticks_ISO_T2_5,52,1,48,51,2469977704
8,10,Ticks_ISO_T2_5,53,5,42,127,2469995840
8,10,Ticks_ISO_T2_5,54,1,48,63,2470490712
8,10,Ticks_ISO_T2_5,55,5,42,127,2470495536
8,10,Ticks_ISO_T2_5,56,1,48,51,2470991980
8,10,Ticks_ISO_T2_5,57,5,42,127,2470996276
8,10,Ticks_ISO_T2_5,58,1,48,54,2471480152
8,10,Ticks_ISO_T2_5,59,5,42,127,2471495968
8,10,Ticks_ISO_T2_5,60,1,48,57,2471992416
8,10,Ticks_ISO_T2_5,61,5,42,127,2471996184
8,10,Ticks_ISO_T2_5,62,1,48,44,2472490836
8,10,Ticks_ISO_T2_5,63,5,42,127,2472495508
8,10,Ticks_ISO_T2_5,64,1,48,57,2472975720
8,10,Ticks_ISO_T2_5,65,5,42,127,2472996248
8,10,Ticks_ISO_T2_5,66,1,48,58,2473496176
8,10,Ticks_ISO_T2_5,67,5,42,127,2473497816
8,10,Ticks_ISO_T2_5,68,5,42,127,2473995796
8,10,Ticks_ISO_T2_5,69,1,48,67,2474001908
8,10,Ticks_ISO_T2_5,70,5,42,127,2474496468
8,10,Ticks_ISO_T2_5,71,1,48,66,2474516564
8,10,Ticks_ISO_T2_5,72,1,48,49,2474991552
8,10,Ticks_ISO_T2_5,73,5,42,127,2474996000
8,10,Ticks_ISO_T2_5,74,5,42,127,2475495852
8,10,Ticks_ISO_T2_5,75,1,48,63,2475502188
8,10,Ticks_ISO_T2_5,76,1,48,57,2475977332
8,10,Ticks_ISO_T2_5,77,5,42,127,2475995464
8,10,Ticks_ISO_T2_5,78,5,42,127,2476496140
8,10,Ticks_ISO_T2_5,79,1,48,62,2476500828
8,10,Ticks_ISO_T2_5,80,1,48,53,2476992804
8,10,Ticks_ISO_T2_5,81,5,42,127,2476995904
8,10,Ticks_ISO_T2_5,82,5,42,127,2477495656
8,10,Ticks_ISO_T2_5,83,1,48,57,2477497844
8,10,Ticks_ISO_T2_5,84,1,48,60,2477988352
8,10,Ticks_ISO_T2_5,85,5,42,127,2477996540
8,10,Ticks_ISO_T2_5,86,1,48,53,2478487372
8,10,Ticks_ISO_T2_5,87,5,42,127,2478496084
8,10,Ticks_ISO_T2_5,88,1,48,54,2478992976
8,10,Ticks_ISO_T2_5,89,5,42,127,2478995704
8,10,Ticks_ISO_T2_5,90,5,42,127,2479495700
8,10,Ticks_ISO_T2_5,91,1,48,60,2479972116
8,10,Ticks_ISO_T2_5,92,5,42,127,2479996236
8,10,Ticks_ISO_T2_5,93,1,48,65,2480463360
8,10,Ticks_ISO_T2_5,94,5,42,127,2480495932
8,10,Ticks_ISO_T2_5,95,1,48,72,2480968892
8,10,Ticks_ISO_T2_5,96,5,42,127,2480995552
8,10,Ticks_ISO_T2_5,97,5,42,127,2481496600
8,10,Ticks_ISO_T2_5,98,1,48,54,2481503384
8,10,Ticks_ISO_T2_5,99,1,48,59,2481987652
8,10,Ticks_ISO_T2_5,100,5,42,127,2481996208
8,10,Ticks_ISO_T2_5,101,5,42,127,2482495764
8,10,Ticks_ISO_T2_5,102,1,48,55,2482498808
8,10,Ticks_ISO_T2_5,103,5,42,127,2482995828
8,10,Ticks_ISO_T2_5,104,1,48,60,2483016980
8,10,Ticks_ISO_T2_5,105,1,48,59,2483494452
8,10,Ticks_ISO_T2_5,106,5,42,127,2483496264
8,10,Ticks_ISO_T2_5,107,5,42,127,2483996044
8,10,Ticks_ISO_T2_5,108,1,48,66,2484005072
8,10,Ticks_ISO_T2_5,109,5,42,127,2484495588
8,10,Ticks_ISO_T2_5,110,1,48,54,2484516060
8,10,Ticks_ISO_T2_5,111,5,42,127,2484995584
8,10,Ticks_ISO_T2_5,112,1,48,55,2484998256
8,10,Ticks_ISO_T2_5,113,1,48,47,2485463524
8,10,Ticks_ISO_T2_5,114,5,42,127,2485496092
8,10,Ticks_ISO_T2_5,115,1,48,50,2485978256
8,10,Ticks_ISO_T2_5,116,5,42,127,2485995864
8,10,Ticks_ISO_T2_5,117,5,42,127,2486495564
8,10,Ticks_ISO_T2_5,118,1,48,59,2486506540
8,10,Ticks_ISO_T2_5,119,1,48,60,2486985492
8,10,Ticks_ISO_T2_5,120,5,42,127,2486996448
8,10,Ticks_ISO_T2_5,121,1,48,61,2487487208
8,10,Ticks_ISO_T2_5,122,5,42,127,2487495920
8,10,Ticks_ISO_T2_5,123,1,48,52,2487977680
8,10,Ticks_ISO_T2_5,124,5,42,127,2487995616
8,10,Ticks_ISO_T2_5,125,1,48,53,2488486572
8,10,Ticks_ISO_T2_5,126,5,42,127,2488495432
8,10,Ticks_ISO_T2_5,127,5,42,127,2488996328
8,10,Ticks_ISO_T2_5,128,1,48,57,2489003636
8,10,Ticks_ISO_T2_5,129,1,48,52,2489483868
8,10,Ticks_ISO_T2_5,130,5,42,127,2489495868
8,10,Ticks_ISO_T2_5,131,5,42,127,2489995644
8,10,Ticks_ISO_T2_5,132,1,48,62,2490004072
8,10,Ticks_ISO_T2_5,133,5,42,127,2490496460
8,10,Ticks_ISO_T2_5,134,1,48,55,2490520600
8,10,Ticks_ISO_T2_5,135,1,48,56,2490985644
8,10,Ticks_ISO_T2_5,136,5,42,127,2490996144
8,10,Ticks_ISO_T2_5,137,5,42,127,2491495848
8,10,Ticks_ISO_T2_5,138,1,48,57,2491500616
8,10,Ticks_ISO_T2_5,139,5,42,127,2491995468
8,10,Ticks_ISO_T2_5,140,1,48,55,2492003452
8,10,Ticks_ISO_T2_5,141,1,48,56,2492492356
8,10,Ticks_ISO_T2_5,142,5,42,127,2492496428
8,10,Ticks_ISO_T2_5,143,1,48,65,2492995680
8,10,Ticks_ISO_T2_5,144,5,42,127,2492997392
8,10,Ticks_ISO_T2_5,145,5,42,127,2493495600
8,10,Ticks_ISO_T2_5,146,1,48,57,2493528564
8,10,Ticks_ISO_T2_5,147,5,42,127,2493996492
8,10,Ticks_ISO_T2_5,148,1,48,57,2493999684
8,10,Ticks_ISO_T2_5,149,1,48,53,2494479088
8,10,Ticks_ISO_T2_5,150,5,42,127,2494496548
8,10,Ticks_ISO_T2_5,151,1,48,55,2494992020
8,10,Ticks_ISO_T2_5,152,5,42,127,2494995720
8,10,Ticks_ISO_T2_5,153,1,48,54,2495462992
8,10,Ticks_ISO_T2_5,154,5,42,127,2495495416
8,10,Ticks_ISO_T2_5,155,1,48,53,2495994264
8,10,Ticks_ISO_T2_5,156,5,42,127,2495996380
8,10,Ticks_ISO_T2_5,157,5,42,127,2496495932
8,10,Ticks_ISO_T2_5,158,1,48,57,2496520968
8,10,Ticks_ISO_T2_5,159,5,42,127,2496995556
8,10,Ticks_ISO_T2_5,160,1,48,49,2497014008
8,10,Ticks_ISO_T2_5,161,1,48,57,2497475532
8,10,Ticks_ISO_T2_5,162,5,42,127,2497496440
8,10,Ticks_ISO_T2_5,163,1,48,66,2497990488
8,10,Ticks_ISO_T2_5,164,5,42,127,2497996280
8,10,Ticks_ISO_T2_5,165,1,48,56,2498488616
8,10,Ticks_ISO_T2_5,166,5,42,127,2498495752
8,10,Ticks_ISO_T2_5,167,5,42,127,2498995428
8,10,Ticks_ISO_T2_5,168,1,48,65,2498996916
8,10,Ticks_ISO_T2_5,169,5,42,127,2499496392
8,10,Ticks_ISO_T2_5,170,1,48,54,2499514196
8,10,Ticks_ISO_T2_5,171,5,42,127,2499996164
8,10,Ticks_ISO_T2_5,172,1,48,49,2500022096
8,10,Ticks_ISO_T2_5,173,5,42,127,2500495932
8,10,Ticks_ISO_T2_5,174,1,48,53,2500509752
8,10,Ticks_ISO_T2_5,175,1,48,57,2500992744
8,10,Ticks_ISO_T2_5,176,5,42,127,2500995396
8,10,Ticks_ISO_T2_5,177,1,48,51,2501471720
8,10,Ticks_ISO_T2_5,178,5,42,127,2501496212
8,10,Ticks_ISO_T2_5,179,1,48,61,2501978596
8,10,Ticks_ISO_T2_5,180,5,42,127,2501996128
8,10,Ticks_ISO_T2_5,181,1,48,53,2502469388
8,10,Ticks_ISO_T2_5,182,5,42,127,2502495528
8,10,Ticks_ISO_T2_5,183,1,48,51,2502967368
8,10,Ticks_ISO_T2_5,184,5,42,127,2502996268
8,10,Ticks_ISO_T2_5,185,1,48,58,2503485980
8,10,Ticks_ISO_T2_5,186,5,42,127,2503496036
8,10,Ticks_ISO_T2_5,187,1,48,51,2503971836
8,10,Ticks_ISO_T2_5,188,5,42,127,2503995732
8,10,Ticks_ISO_T2_5,189,5,42,127,2504495360
8,10,Ticks_ISO_T2_5,190,1,48,61,2504496776
8,10,Ticks_ISO_T2_5,191,5,42,127,2504996252
8,10,Ticks_ISO_T2_5,192,1,48,58,2504999296
8,10,Ticks_ISO_T2_5,193,5,42,127,2505496168
8,10,Ticks_ISO_T2_5,194,1,48,58,2505497136
8,10,Ticks_ISO_T2_5,195,1,48,57,2505992460
8,10,Ticks_ISO_T2_5,196,5,42,127,2505995560
8,10,Ticks_ISO_T2_5,197,5,42,127,2506496236
8,10,Ticks_ISO_T2_5,198,1,48,53,2506513568
8,10,Ticks_ISO_T2_5,199,5,42,127,2506996300
8,10,Ticks_ISO_T2_5,200,1,48,46,2507049464
8,10,Ticks_ISO_T2_5,201,5,42,127,2507495848
8,10,Ticks_ISO_T2_5,202,1,48,43,2507532776
8,10,Ticks_ISO_T2_5,203,5,42,127,2507995468
8,10,Ticks_ISO_T2_5,204,1,48,50,2508007868
8,10,Ticks_ISO_T2_5,205,5,42,127,2508496360
8,10,Ticks_ISO_T2_5,206,1,48,50,2508507412
8,10,Ticks_ISO_T2_5,207,5,42,127,2508996128
8,10,Ticks_ISO_T2_5,208,1,48,55,2509000224
8,10,Ticks_ISO_T2_5,209,1,48,53,2509492092
8,10,Ticks_ISO_T2_5,210,5,42,127,2509495968
8,10,Ticks_ISO_T2_5,211,1,48,42,2509979676
8,10,Ticks_ISO_T2_5,212,5,42,127,2509996312
8,10,Ticks_ISO_T2_5,213,5,42,127,2510496084
8,10,Ticks_ISO_T2_5,214,1,48,50,2510499652
8,10,Ticks_ISO_T2_5,215,5,42,127,2510996000
8,10,Ticks_ISO_T2_5,216,1,48,51,2511014604
8,10,Ticks_ISO_T2_5,217,5,42,127,2511495400
8,10,Ticks_ISO_T2_5,218,1,48,43,2511500464
8,10,Ticks_ISO_T2_5,219,5,42,127,2511996216
8,10,Ticks_ISO_T2_5,220,1,48,53,2512015112
8,10,Ticks_ISO_T2_5,221,1,48,51,2512484724
8,10,Ticks_ISO_T2_5,222,5,42,127,2512495976
8,10,Ticks_ISO_T2_5,223,1,48,51,2512974320
8,10,Ticks_ISO_T2_5,224,5,42,127,2512995896
8,10,Ticks_ISO_T2_5,225,5,42,127,2513496500
8,10,Ticks_ISO_T2_5,226,1,48,22,2513527144
8,10,Ticks_ISO_T2_5,227,1,48,57,2513978428
8,10,Ticks_ISO_T2_5,228,5,42,127,2513996108
8,10,Ticks_ISO_T2_5,229,1,48,60,2514470340
8,10,Ticks_ISO_T2_5,230,5,42,127,2514495804
8,10,Ticks_ISO_T2_5,231,1,48,54,2514968692
8,10,Ticks_ISO_T2_5,232,5,42,127,2514995648
8,10,Ticks_ISO_T2_5,233,1,48,40,2515467040
8,10,Ticks_ISO_T2_5,234,5,42,127,2515496168
8,10,Ticks_ISO_T2_5,235,1,48,61,2515967336
8,10,Ticks_ISO_T2_5,236,5,42,127,2515995864
8,10,Ticks_ISO_T2_5,237,1,48,53,2516472336
8,10,Ticks_ISO_T2_5,238,5,42,127,2516495928
8,10,Ticks_ISO_T2_5,239,1,48,56,2516943984
8,10,Ticks_ISO_T2_5,240,5,42,127,2516995404
8,10,Ticks_ISO_T2_5,241,1,48,54,2517469784
8,10,Ticks_ISO_T2_5,242,5,42,127,2517496144
8,10,Ticks_ISO_T2_5,243,1,48,52,2517986300
8,10,Ticks_ISO_T2_5,244,5,42,127,2517995912
8,10,Ticks_ISO_T2_5,245,1,48,55,2518459076
8,10,Ticks_ISO_T2_5,246,5,42,127,2518495684
8,10,Ticks_ISO_T2_5,247,1,48,59,2518972608
8,10,Ticks_ISO_T2_5,248,5,42,127,2518996276
8,10,Ticks_ISO_T2_5,249,1,48,49,2519479632
8,10,Ticks_ISO_T2_5,250,5,42,127,2519496044
8,10,Ticks_ISO_T2_5,0,9999,9999,9999,9999,2454993992
8,10,Ticks_ISO_T2_5,1,9999,9999,9999,9999,2455493708
8,10,Ticks_ISO_T2_5,2,9999,9999,9999,9999,2455993400
8,10,Ticks_ISO_T2_5,3,9999,9999,9999,9999,2456493116
8,10,Ticks_ISO_T2_5,4,9999,9999,9999,9999,2456993880
8,10,Ticks_ISO_T2_5,5,9999,9999,9999,9999,2457493596
8,10,Ticks_ISO_T2_5,6,9999,9999,9999,9999,2457993312
8,10,Ticks_ISO_T2_5,7,9999,9999,9999,9999,2458494004
8,10,Ticks_ISO_T2_5,8,9999,9999,9999,9999,2458993716
8,10,Ticks_ISO_T2_5,9,9999,9999,9999,9999,2459493488
8,10,Ticks_ISO_T2_5,10,9999,9999,9999,9999,2459993184
8,10,Ticks_ISO_T2_5,11,9999,9999,9999,9999,2460493920
8,10,Ticks_ISO_T2_5,12,9999,9999,9999,9999,2460993616
8,10,Ticks_ISO_T2_5,13,9999,9999,9999,9999,2461493312
8,10,Ticks_ISO_T2_5,14,9999,9999,9999,9999,2461994052
8,10,Ticks_ISO_T2_5,15,9999,9999,9999,9999,2462493748
8,10,Ticks_ISO_T2_5,16,9999,9999,9999,9999,2462993516
8,10,Ticks_ISO_T2_5,17,9999,9999,9999,9999,2463493212
8,10,Ticks_ISO_T2_5,18,9999,9999,9999,9999,2463993952
8,10,Ticks_ISO_T2_5,19,9999,9999,9999,9999,2464493648
8,10,Ticks_ISO_T2_5,20,9999,9999,9999,9999,2464993344
8,10,Ticks_ISO_T2_5,21,9999,9999,9999,9999,2465494080
8,10,Ticks_ISO_T2_5,22,9999,9999,9999,9999,2465993848
8,10,Ticks_ISO_T2_5,23,9999,9999,9999,9999,2466493544
8,10,Ticks_ISO_T2_5,24,9999,9999,9999,9999,2466993212
8,10,Ticks_ISO_T2_5,25,9999,9999,9999,9999,2467493952
8,10,Ticks_ISO_T2_5,26,9999,9999,9999,9999,2467993648
8,10,Ticks_ISO_T2_5,27,9999,9999,9999,9999,2468493420
8,10,Ticks_ISO_T2_5,28,9999,9999,9999,9999,2468993112
8,10,Ticks_ISO_T2_5,29,9999,9999,9999,9999,2469493856
8,10,Ticks_ISO_T2_5,30,9999,9999,9999,9999,2469993552
8,10,Ticks_ISO_T2_5,31,9999,9999,9999,9999,2470493248
8,10,Ticks_ISO_T2_5,32,9999,9999,9999,9999,2470993988
8,10,Ticks_ISO_T2_5,33,9999,9999,9999,9999,2471493680
8,10,Ticks_ISO_T2_5,34,9999,9999,9999,9999,2471993452
8,10,Ticks_ISO_T2_5,35,9999,9999,9999,9999,2472493144
8,10,Ticks_ISO_T2_5,36,9999,9999,9999,9999,2472993888
8,10,Ticks_ISO_T2_5,37,9999,9999,9999,9999,2473493588
8,10,Ticks_ISO_T2_5,38,9999,9999,9999,9999,2473993284
8,10,Ticks_ISO_T2_5,39,9999,9999,9999,9999,2474494028
8,10,Ticks_ISO_T2_5,40,9999,9999,9999,9999,2474993716
8,10,Ticks_ISO_T2_5,41,9999,9999,9999,9999,2475493488
8,10,Ticks_ISO_T2_5,42,9999,9999,9999,9999,2475993180
8,10,Ticks_ISO_T2_5,43,9999,9999,9999,9999,2476493924
8,10,Ticks_ISO_T2_5,44,9999,9999,9999,9999,2476993616
8,10,Ticks_ISO_T2_5,45,9999,9999,9999,9999,2477493368
8,10,Ticks_ISO_T2_5,46,9999,9999,9999,9999,2477994100
8,10,Ticks_ISO_T2_5,47,9999,9999,9999,9999,2478493796
8,10,Ticks_ISO_T2_5,48,9999,9999,9999,9999,2478993488
8,10,Ticks_ISO_T2_5,49,9999,9999,9999,9999,2479493192
8,10,Ticks_ISO_T2_5,50,9999,9999,9999,9999,2479993948
8,10,Ticks_ISO_T2_5,51,9999,9999,9999,9999,2480493644
8,10,Ticks_ISO_T2_5,52,9999,9999,9999,9999,2480993336
8,10,Ticks_ISO_T2_5,53,9999,9999,9999,9999,2481494084
8,10,Ticks_ISO_T2_5,54,9999,9999,9999,9999,2481993848
8,10,Ticks_ISO_T2_5,55,9999,9999,9999,9999,2482493548
8,10,Ticks_ISO_T2_5,56,9999,9999,9999,9999,2482993244
8,10,Ticks_ISO_T2_5,57,9999,9999,9999,9999,2483494004
8,10,Ticks_ISO_T2_5,58,9999,9999,9999,9999,2483993680
8,10,Ticks_ISO_T2_5,59,9999,9999,9999,9999,2484493376
8,10,Ticks_ISO_T2_5,60,9999,9999,9999,9999,2484993072
8,10,Ticks_ISO_T2_5,61,9999,9999,9999,9999,2485493880
8,10,Ticks_ISO_T2_5,62,9999,9999,9999,9999,2485993576
8,10,Ticks_ISO_T2_5,63,9999,9999,9999,9999,2486493276
8,10,Ticks_ISO_T2_5,64,9999,9999,9999,9999,2486994012
8,10,Ticks_ISO_T2_5,65,9999,9999,9999,9999,2487493708
8,10,Ticks_ISO_T2_5,66,9999,9999,9999,9999,2487993400
8,10,Ticks_ISO_T2_5,67,9999,9999,9999,9999,2488493144
8,10,Ticks_ISO_T2_5,68,9999,9999,9999,9999,2488993892
8,10,Ticks_ISO_T2_5,69,9999,9999,9999,9999,2489493580
8,10,Ticks_ISO_T2_5,70,9999,9999,9999,9999,2489993280
8,10,Ticks_ISO_T2_5,71,9999,9999,9999,9999,2490494024
8,10,Ticks_ISO_T2_5,72,9999,9999,9999,9999,2490993784
8,10,Ticks_ISO_T2_5,73,9999,9999,9999,9999,2491493488
8,10,Ticks_ISO_T2_5,74,9999,9999,9999,9999,2491993180
8,10,Ticks_ISO_T2_5,75,9999,9999,9999,9999,2492493916
8,10,Ticks_ISO_T2_5,76,9999,9999,9999,9999,2492993616
8,10,Ticks_ISO_T2_5,77,9999,9999,9999,9999,2493493312
8,10,Ticks_ISO_T2_5,78,9999,9999,9999,9999,2493994052
8,10,Ticks_ISO_T2_5,79,9999,9999,9999,9999,2494493816
8,10,Ticks_ISO_T2_5,80,9999,9999,9999,9999,2494993508
8,10,Ticks_ISO_T2_5,81,9999,9999,9999,9999,2495493204
8,10,Ticks_ISO_T2_5,82,9999,9999,9999,9999,2495993984
8,10,Ticks_ISO_T2_5,83,9999,9999,9999,9999,2496493648
8,10,Ticks_ISO_T2_5,84,9999,9999,9999,9999,2496993340
8,10,Ticks_ISO_T2_5,85,9999,9999,9999,9999,2497494076
8,10,Ticks_ISO_T2_5,86,9999,9999,9999,9999,2497993844
8,10,Ticks_ISO_T2_5,87,9999,9999,9999,9999,2498493540
8,10,Ticks_ISO_T2_5,88,9999,9999,9999,9999,2498993216
8,10,Ticks_ISO_T2_5,89,9999,9999,9999,9999,2499493956
8,10,Ticks_ISO_T2_5,90,9999,9999,9999,9999,2499993652
8,10,Ticks_ISO_T2_5,91,9999,9999,9999,9999,2500493420
8,10,Ticks_ISO_T2_5,92,9999,9999,9999,9999,2500993108
8,10,Ticks_ISO_T2_5,93,9999,9999,9999,9999,2501493852
8,10,Ticks_ISO_T2_5,94,9999,9999,9999,9999,2501993544
8,10,Ticks_ISO_T2_5,95,9999,9999,9999,9999,2502493240
8,10,Ticks_ISO_T2_5,96,9999,9999,9999,9999,2502993980
8,10,Ticks_ISO_T2_5,97,9999,9999,9999,9999,2503493752
8,10,Ticks_ISO_T2_5,98,9999,9999,9999,9999,2503993444
8,10,Ticks_ISO_T2_5,99,9999,9999,9999,9999,2504493148
8,10,Ticks_ISO_T2_5,100,9999,9999,9999,9999,2504993888
8,10,Ticks_ISO_T2_5,101,9999,9999,9999,9999,2505493584
8,10,Ticks_ISO_T2_5,102,9999,9999,9999,9999,2505993272
8,10,Ticks_ISO_T2_5,103,9999,9999,9999,9999,2506494020
8,10,Ticks_ISO_T2_5,104,9999,9999,9999,9999,2506993716
8,10,Ticks_ISO_T2_5,105,9999,9999,9999,9999,2507493484
8,10,Ticks_ISO_T2_5,106,9999,9999,9999,9999,2507993180
8,10,Ticks_ISO_T2_5,107,9999,9999,9999,9999,2508493924
8,10,Ticks_ISO_T2_5,108,9999,9999,9999,9999,2508993620
8,10,Ticks_ISO_T2_5,109,9999,9999,9999,9999,2509493356
8,10,Ticks_ISO_T2_5,110,9999,9999,9999,9999,2509994096
8,10,Ticks_ISO_T2_5,111,9999,9999,9999,9999,2510493800
8,10,Ticks_ISO_T2_5,112,9999,9999,9999,9999,2510993492
8,10,Ticks_ISO_T2_5,113,9999,9999,9999,9999,2511493188
8,10,Ticks_ISO_T2_5,114,9999,9999,9999,9999,2511993928
8,10,Ticks_ISO_T2_5,115,9999,9999,9999,9999,2512493688
8,10,Ticks_ISO_T2_5,116,9999,9999,9999,9999,2512993384
8,10,Ticks_ISO_T2_5,117,9999,9999,9999,9999,2513494132
8,10,Ticks_ISO_T2_5,118,9999,9999,9999,9999,2513993820
8,10,Ticks_ISO_T2_5,119,9999,9999,9999,9999,2514493516
8,10,Ticks_ISO_T2_5,120,9999,9999,9999,9999,2514993212
8,10,Ticks_ISO_T2_5,121,9999,9999,9999,9999,2515493956
8,10,Ticks_ISO_T2_5,122,9999,9999,9999,9999,2515993652
8,10,Ticks_ISO_T2_5,123,9999,9999,9999,9999,2516493420
8,10,Ticks_ISO_T2_5,124,9999,9999,9999,9999,2516993116
8,10,Ticks_ISO_T2_5,125,9999,9999,9999,9999,2517493856
8,10,Ticks_ISO_T2_5,126,9999,9999,9999,9999,2517993552
8,10,Ticks_ISO_T2_5,127,9999,9999,9999,9999,2518493248
8,10,Ticks_ISO_T2_5,128,9999,9999,9999,9999,2518993988
8,10,Ticks_ISO_T2_5,129,9999,9999,9999,9999,2519493684
9,22,Ticks_Phase_8,0,5,42,127,2530678028
9,22,Ticks_Phase_8,1,5,42,127,2531477832
9,22,Ticks_Phase_8,2,5,42,127,2532277568
9,22,Ticks_Phase_8,3,5,42,127,2533078520
9,22,Ticks_Phase_8,4,5,42,127,2533878104
9,22,Ticks_Phase_8,5,1,48,49,2533909232
9,22,Ticks_Phase_8,6,1,48,51,2534677216
9,22,Ticks_Phase_8,7,5,42,127,2534678932
9,22,Ticks_Phase_8,8,1,48,59,2535452852
9,22,Ticks_Phase_8,9,5,42,127,2535477744
9,22,Ticks_Phase_8,10,1,48,47,2536264768
9,22,Ticks_Phase_8,11,5,42,127,2536278580
9,22,Ticks_Phase_8,12,5,42,127,2537078376
9,22,Ticks_Phase_8,13,1,48,39,2537085680
9,22,Ticks_Phase_8,14,1,48,45,2537821508
9,22,Ticks_Phase_8,15,5,42,127,2537877780
9,22,Ticks_Phase_8,16,5,42,127,2538677724
9,22,Ticks_Phase_8,17,1,48,57,2538686312
9,22,Ticks_Phase_8,18,1,48,60,2539459652
9,22,Ticks_Phase_8,19,5,42,127,2539478252
9,22,Ticks_Phase_8,20,5,42,127,2540278268
9,22,Ticks_Phase_8,21,1,48,54,2540308052
9,22,Ticks_Phase_8,22,5,42,127,2541077756
9,22,Ticks_Phase_8,23,1,48,45,2541081848
9,22,Ticks_Phase_8,24,1,48,55,2541865512
9,22,Ticks_Phase_8,25,5,42,127,2541877760
9,22,Ticks_Phase_8,26,1,48,60,2542670696
9,22,Ticks_Phase_8,27,5,42,127,2542678368
9,22,Ticks_Phase_8,28,1,48,59,2543454304
9,22,Ticks_Phase_8,29,5,42,127,2543478080
9,22,Ticks_Phase_8,30,1,48,60,2544257620
9,22,Ticks_Phase_8,31,5,42,127,2544277792
9,22,Ticks_Phase_8,32,1,48,60,2545061816
9,22,Ticks_Phase_8,33,5,42,127,2545077824
9,22,Ticks_Phase_8,34,5,42,127,2545878368
9,22,Ticks_Phase_8,35,1,48,58,2545888900
9,22,Ticks_Phase_8,36,5,42,127,2546678004
9,22,Ticks_Phase_8,37,1,48,52,2546693252
9,22,Ticks_Phase_8,38,5,42,127,2547478164
9,22,Ticks_Phase_8,39,1,48,63,2547502772
9,22,Ticks_Phase_8,40,1,48,61,2548271624
9,22,Ticks_Phase_8,41,5,42,127,2548277720
9,22,Ticks_Phase_8,42,1,48,54,2549072232
9,22,Ticks_Phase_8,43,5,42,127,2549078332
9,22,Ticks_Phase_8,44,5,42,127,2549878272
9,22,Ticks_Phase_8,45,1,48,51,2549912240
9,22,Ticks_Phase_8,46,5,42,127,2550677984
9,22,Ticks_Phase_8,47,1,48,63,2550718052
9,22,Ticks_Phase_8,48,5,42,127,2551477496
9,22,Ticks_Phase_8,49,1,48,64,2551489004
9,22,Ticks_Phase_8,50,5,42,127,2552278256
9,22,Ticks_Phase_8,51,1,48,59,2552289912
9,22,Ticks_Phase_8,52,5,42,127,2553078188
9,22,Ticks_Phase_8,53,1,48,59,2553080632
9,22,Ticks_Phase_8,54,5,42,127,2553877900
9,22,Ticks_Phase_8,55,1,48,44,2553878868
9,22,Ticks_Phase_8,56,5,42,127,2554658292
9,22,Ticks_Phase_8,57,1,48,59,2554677296
9,22,Ticks_Phase_8,58,1,48,58,2555444556
9,22,Ticks_Phase_8,59,5,42,127,2555457924
9,22,Ticks_Phase_8,60,1,48,48,2556255896
9,22,Ticks_Phase_8,61,5,42,127,2556257860
9,22,Ticks_Phase_8,62,1,48,58,2557038672
9,22,Ticks_Phase_8,63,5,42,127,2557058320
9,22,Ticks_Phase_8,64,1,48,67,2557859876
9,22,Ticks_Phase_8,65,5,42,127,2557868364
9,22,Ticks_Phase_8,66,5,42,127,2558668108
9,22,Ticks_Phase_8,67,1,48,65,2558680436
9,22,Ticks_Phase_8,68,5,42,127,2559468116
9,22,Ticks_Phase_8,69,1,48,62,2559480976
9,22,Ticks_Phase_8,70,5,42,127,2560267608
9,22,Ticks_Phase_8,71,1,48,57,2560317308
9,22,Ticks_Phase_8,72,1,48,56,2561049084
9,22,Ticks_Phase_8,73,5,42,127,2561068360
9,22,Ticks_Phase_8,74,5,42,127,2561868152
9,22,Ticks_Phase_8,75,1,48,64,2561878760
9,22,Ticks_Phase_8,76,5,42,127,2562667864
9,22,Ticks_Phase_8,77,1,48,43,2562681916
9,22,Ticks_Phase_8,78,5,42,127,2563467872
9,22,Ticks_Phase_8,79,1,48,62,2563486272
9,22,Ticks_Phase_8,80,5,42,127,2564268332
9,22,Ticks_Phase_8,81,1,48,48,2564306304
9,22,Ticks_Phase_8,82,1,48,66,2565036112
9,22,Ticks_Phase_8,83,5,42,127,2565068136
9,22,Ticks_Phase_8,84,1,48,69,2565867400
9,22,Ticks_Phase_8,85,5,42,127,2565869116
9,22,Ticks_Phase_8,86,1,48,67,2566659444
9,22,Ticks_Phase_8,87,5,42,127,2566667856
9,22,Ticks_Phase_8,88,5,42,127,2567468620
9,22,Ticks_Phase_8,89,1,48,65,2567495396
9,22,Ticks_Phase_8,90,1,48,68,2568266520
9,22,Ticks_Phase_8,91,5,42,127,2568268252
9,22,Ticks_Phase_8,92,1,48,62,2569084328
9,22,Ticks_Phase_8,93,5,42,127,2569088484
9,22,Ticks_Phase_8,94,5,42,127,2569888052
9,22,Ticks_Phase_8,95,1,48,55,2569927220
9,22,Ticks_Phase_8,96,5,42,127,2570687788
9,22,Ticks_Phase_8,97,1,48,56,2570706488
9,22,Ticks_Phase_8,98,5,42,127,2571487576
9,22,Ticks_Phase_8,99,1,48,57,2571510164
9,22,Ticks_Phase_8,100,5,42,127,2572288484
9,22,Ticks_Phase_8,101,1,48,49,2572326576
9,22,Ticks_Phase_8,102,5,42,127,2573088044
9,22,Ticks_Phase_8,103,1,48,61,2573117756
9,22,Ticks_Phase_8,104,5,42,127,2573887832
9,22,Ticks_Phase_8,105,1,48,65,2573901060
9,22,Ticks_Phase_8,106,1,48,62,2574672976
9,22,Ticks_Phase_8,107,5,42,127,2574687464
9,22,Ticks_Phase_8,108,5,42,127,2575488452
9,22,Ticks_Phase_8,109,1,48,66,2575530068
9,22,Ticks_Phase_8,110,5,42,127,2576288088
9,22,Ticks_Phase_8,111,1,48,63,2576310332
9,22,Ticks_Phase_8,112,1,48,59,2577080452
9,22,Ticks_Phase_8,113,5,42,127,2577087748
9,22,Ticks_Phase_8,114,5,42,127,2577887464
9,22,Ticks_Phase_8,115,1,48,67,2577937164
9,22,Ticks_Phase_8,116,1,48,60,2578682712
9,22,Ticks_Phase_8,117,5,42,127,2578688512
9,22,Ticks_Phase_8,118,1,48,54,2579463776
9,22,Ticks_Phase_8,119,5,42,127,2579488152
9,22,Ticks_Phase_8,120,1,48,62,2580262368
9,22,Ticks_Phase_8,121,5,42,127,2580287716
9,22,Ticks_Phase_8,122,1,48,59,2581078188
9,22,Ticks_Phase_8,123,5,42,127,2581087576
9,22,Ticks_Phase_8,124,1,48,60,2581875792
9,22,Ticks_Phase_8,125,5,42,127,2581928472
9,22,Ticks_Phase_8,126,1,48,61,2582719120
9,22,Ticks_Phase_8,127,5,42,127,2582727912
9,22,Ticks_Phase_8,128,5,42,127,2583527780
9,22,Ticks_Phase_8,129,1,48,63,2583531868
9,22,Ticks_Phase_8,130,5,42,127,2584327492
9,22,Ticks_Phase_8,131,1,48,65,2584367532
9,22,Ticks_Phase_8,132,1,48,59,2585122440
9,22,Ticks_Phase_8,133,5,42,127,2585128392
9,22,Ticks_Phase_8,134,1,48,52,2585927508
9,22,Ticks_Phase_8,135,5,42,127,2585929224
9,22,Ticks_Phase_8,136,5,42,127,2586727744
9,22,Ticks_Phase_8,137,1,48,58,2586729232
9,22,Ticks_Phase_8,138,5,42,127,2587527680
9,22,Ticks_Phase_8,139,1,48,61,2587559780
9,22,Ticks_Phase_8,140,5,42,127,2588328216
9,22,Ticks_Phase_8,141,1,48,58,2588338676
9,22,Ticks_Phase_8,142,1,48,47,2589124664
9,22,Ticks_Phase_8,143,5,42,127,2589128292
9,22,Ticks_Phase_8,144,1,48,52,2589894344
9,22,Ticks_Phase_8,145,5,42,127,2589927932
9,22,Ticks_Phase_8,146,1,48,57,2590718404
9,22,Ticks_Phase_8,147,5,42,127,2590727568
9,22,Ticks_Phase_8,148,1,48,55,2591524692
9,22,Ticks_Phase_8,149,5,42,127,2591528252
9,22,Ticks_Phase_8,150,1,48,65,2592309588
9,22,Ticks_Phase_8,151,5,42,127,2592328260
9,22,Ticks_Phase_8,152,5,42,127,2593127684
9,22,Ticks_Phase_8,153,1,48,65,2593133944
9,22,Ticks_Phase_8,154,5,42,127,2593927616
9,22,Ticks_Phase_8,155,1,48,54,2593968104
9,22,Ticks_Phase_8,156,1,48,54,2594727172
9,22,Ticks_Phase_8,157,5,42,127,2594729044
9,22,Ticks_Phase_8,158,5,42,127,2595488100
9,22,Ticks_Phase_8,159,1,48,60,2595552504
9,22,Ticks_Phase_8,160,5,42,127,2596287912
9,22,Ticks_Phase_8,161,1,48,64,2596333264
9,22,Ticks_Phase_8,162,5,42,127,2597087552
9,22,Ticks_Phase_8,163,1,48,62,2597109244
9,22,Ticks_Phase_8,164,1,48,64,2597887104
9,22,Ticks_Phase_8,165,5,42,127,2597888900
9,22,Ticks_Phase_8,166,5,42,127,2598688096
9,22,Ticks_Phase_8,167,1,48,65,2598702068
9,22,Ticks_Phase_8,168,5,42,127,2599488104
9,22,Ticks_Phase_8,169,1,48,55,2599510696
9,22,Ticks_Phase_8,170,1,48,54,2600272724
9,22,Ticks_Phase_8,171,5,42,127,2600287812
9,22,Ticks_Phase_8,172,1,48,56,2601085512
9,22,Ticks_Phase_8,173,5,42,127,2601088324
9,22,Ticks_Phase_8,174,1,48,51,2601876776
9,22,Ticks_Phase_8,175,5,42,127,2601888108
9,22,Ticks_Phase_8,176,1,48,65,2602664788
9,22,Ticks_Phase_8,177,5,42,127,2602687992
9,22,Ticks_Phase_8,178,1,48,67,2603481308
9,22,Ticks_Phase_8,179,5,42,127,2603487556
9,22,Ticks_Phase_8,180,5,42,127,2604288396
9,22,Ticks_Phase_8,181,1,48,60,2604316832
9,22,Ticks_Phase_8,182,1,48,67,2605071820
9,22,Ticks_Phase_8,183,5,42,127,2605088100
9,22,Ticks_Phase_8,184,1,48,66,2605876176
9,22,Ticks_Phase_8,185,5,42,127,2605887960
9,22,Ticks_Phase_8,186,1,48,57,2606685636
9,22,Ticks_Phase_8,187,5,42,127,2606687600
9,22,Ticks_Phase_8,188,1,48,69,2607456200
9,22,Ticks_Phase_8,189,5,42,127,2607488432
9,22,Ticks_Phase_8,190,5,42,127,2608208248
9,22,Ticks_Phase_8,191,1,48,59,2608305116
9,22,Ticks_Phase_8,192,5,42,127,2609008032
9,22,Ticks_Phase_8,193,1,48,66,2609020068
9,22,Ticks_Phase_8,194,1,48,64,2609687516
9,22,Ticks_Phase_8,195,5,42,127,2609807724
9,22,Ticks_Phase_8,196,1,48,63,2610511632
9,22,Ticks_Phase_8,197,5,42,127,2610607732
9,22,Ticks_Phase_8,198,1,48,64,2611318660
9,22,Ticks_Phase_8,199,5,42,127,2611408132
9,22,Ticks_Phase_8,200,1,48,52,2612181972
9,22,Ticks_Phase_8,201,5,42,127,2612207920
9,22,Ticks_Phase_8,202,1,48,63,2612984672
9,22,Ticks_Phase_8,203,5,42,127,2613007928
9,22,Ticks_Phase_8,204,1,48,64,2613799076
9,22,Ticks_Phase_8,205,5,42,127,2613807640
9,22,Ticks_Phase_8,206,1,48,68,2614578716
9,22,Ticks_Phase_8,207,5,42,127,2614608324
9,22,Ticks_Phase_8,208,5,42,127,2615407892
9,22,Ticks_Phase_8,209,1,48,60,2615418504
9,22,Ticks_Phase_8,210,5,42,127,2616207680
9,22,Ticks_Phase_8,211,1,48,62,2616234976
9,22,Ticks_Phase_8,212,1,48,57,2616991028
9,22,Ticks_Phase_8,213,5,42,127,2617007532
9,22,Ticks_Phase_8,214,5,42,127,2617808372
9,22,Ticks_Phase_8,215,1,48,57,2617818388
9,22,Ticks_Phase_8,216,5,42,127,2618607936
9,22,Ticks_Phase_8,217,1,48,51,2618653064
9,22,Ticks_Phase_8,218,5,42,127,2619407796
9,22,Ticks_Phase_8,219,1,48,67,2619483476
9,22,Ticks_Phase_8,220,5,42,127,2620207584
9,22,Ticks_Phase_8,221,1,48,66,2620266800
9,22,Ticks_Phase_8,222,5,42,127,2621008340
9,22,Ticks_Phase_8,223,1,48,56,2621043432
9,22,Ticks_Phase_8,224,1,48,59,2621857520
9,22,Ticks_Phase_8,225,5,42,127,2621887752
9,22,Ticks_Phase_8,226,5,42,127,2622687544
9,22,Ticks_Phase_8,227,1,48,57,2622692608
9,22,Ticks_Phase_8,228,5,42,127,2623488304
9,22,Ticks_Phase_8,229,1,48,61,2623509700
9,22,Ticks_Phase_8,230,5,42,127,2624288092
9,22,Ticks_Phase_8,231,1,48,61,2624338092
9,22,Ticks_Phase_8,232,5,42,127,2625087728
9,22,Ticks_Phase_8,233,1,48,71,2625140944
9,22,Ticks_Phase_8,234,5,42,127,2625887512
9,22,Ticks_Phase_8,235,1,48,60,2625943416
9,22,Ticks_Phase_8,236,5,42,127,2626688348
9,22,Ticks_Phase_8,237,1,48,63,2626735728
9,22,Ticks_Phase_8,238,5,42,127,2627488204
9,22,Ticks_Phase_8,239,1,48,60,2627569984
9,22,Ticks_Phase_8,240,5,42,127,2628287720
9,22,Ticks_Phase_8,241,1,48,70,2628356816
9,22,Ticks_Phase_8,242,1,48,69,2629032692
9,22,Ticks_Phase_8,243,5,42,127,2629087720
9,22,Ticks_Phase_8,244,5,42,127,2629888412
9,22,Ticks_Phase_8,245,1,48,66,2629959452
9,22,Ticks_Phase_8,246,5,42,127,2630688196
9,22,Ticks_Phase_8,247,1,48,61,2630760960
9,22,Ticks_Phase_8,248,5,42,127,2631487836
9,22,Ticks_Phase_8,249,1,48,65,2631519488
9,22,Ticks_Phase_8,250,1,48,62,2632271932
9,22,Ticks_Phase_8,251,5,42,127,2632287540
9,22,Ticks_Phase_8,252,1,48,63,2633046188
9,22,Ticks_Phase_8,253,5,42,127,2633088448
9,22,Ticks_Phase_8,254,5,42,127,2633888236
9,22,Ticks_Phase_8,255,1,48,54,2633904160
9,22,Ticks_Phase_8,256,1,48,62,2634680052
9,22,Ticks_Phase_8,257,5,42,127,2634687724
9,22,Ticks_Phase_8,258,1,48,66,2635493236
9,22,Ticks_Phase_8,259,5,42,127,2635648500
9,22,Ticks_Phase_8,260,1,48,53,2636442876
9,22,Ticks_Phase_8,261,5,42,127,2636448152
9,22,Ticks_Phase_8,262,5,42,127,2637247968
9,22,Ticks_Phase_8,263,1,48,63,2637276180
9,22,Ticks_Phase_8,264,5,42,127,2638047456
9,22,Ticks_Phase_8,265,1,48,53,2638147184
9,22,Ticks_Phase_8,266,5,42,127,2638848364
9,22,Ticks_Phase_8,267,1,48,62,2638962016
9,22,Ticks_Phase_8,268,5,42,127,2639648224
9,22,Ticks_Phase_8,269,1,48,58,2639655604
9,22,Ticks_Phase_8,270,1,48,48,2640431644
9,22,Ticks_Phase_8,271,5,42,127,2640448076
9,22,Ticks_Phase_8,272,5,42,127,2641247572
9,22,Ticks_Phase_8,273,1,48,52,2641263792
9,22,Ticks_Phase_8,274,5,42,127,2642048408
9,22,Ticks_Phase_8,275,1,48,52,2642105852
9,22,Ticks_Phase_8,276,5,42,127,2642848044
9,22,Ticks_Phase_8,277,1,48,57,2642850712
9,22,Ticks_Phase_8,278,5,42,127,2643647856
9,22,Ticks_Phase_8,279,1,48,56,2643651876
9,22,Ticks_Phase_8,280,5,42,127,2644447572
9,22,Ticks_Phase_8,281,1,48,59,2644456380
9,22,Ticks_Phase_8,282,5,42,127,2645248404
9,22,Ticks_Phase_8,283,1,48,54,2645275476
9,22,Ticks_Phase_8,284,5,42,127,2646047968
9,22,Ticks_Phase_8,285,1,48,63,2646098120
9,22,Ticks_Phase_8,286,5,42,127,2646847876
9,22,Ticks_Phase_8,287,1,48,60,2646851892
9,22,Ticks_Phase_8,288,5,42,127,2647647588
9,22,Ticks_Phase_8,289,1,48,52,2647663808
9,22,Ticks_Phase_8,290,5,42,127,2648448348
9,22,Ticks_Phase_8,291,1,48,50,2648467272
9,22,Ticks_Phase_8,292,5,42,127,2649248132
9,22,Ticks_Phase_8,293,1,48,61,2649295824
9,22,Ticks_Phase_8,294,5,42,127,2650047944
9,22,Ticks_Phase_8,295,1,48,60,2650066864
9,22,Ticks_Phase_8,296,5,42,127,2650687896
9,22,Ticks_Phase_8,297,1,48,50,2650850700
9,22,Ticks_Phase_8,298,5,42,127,2651487684
9,22,Ticks_Phase_8,299,1,48,50,2651560224
9,22,Ticks_Phase_8,300,1,48,58,2652239504
9,22,Ticks_Phase_8,301,5,42,127,2652288284
9,22,Ticks_Phase_8,302,1,48,45,2653026492
9,22,Ticks_Phase_8,303,5,42,127,2653088148
9,22,Ticks_Phase_8,304,1,48,51,2653821700
9,22,Ticks_Phase_8,305,5,42,127,2653888032
9,22,Ticks_Phase_8,306,1,48,46,2654654908
9,22,Ticks_Phase_8,307,5,42,127,2654687672
9,22,Ticks_Phase_8,308,1,48,48,2655463232
9,22,Ticks_Phase_8,309,5,42,127,2655488652
9,22,Ticks_Phase_8,310,1,48,54,2656276432
9,22,Ticks_Phase_8,311,5,42,127,2656288068
9,22,Ticks_Phase_8,312,1,48,40,2657064524
9,22,Ticks_Phase_8,313,5,42,127,2657087780
9,22,Ticks_Phase_8,314,5,42,127,2657887796
9,22,Ticks_Phase_8,315,1,48,63,2657899452
9,22,Ticks_Phase_8,316,5,42,127,2658688336
9,22,Ticks_Phase_8,317,1,48,59,2658732636
9,22,Ticks_Phase_8,318,5,42,127,2659488120
9,22,Ticks_Phase_8,319,1,48,56,2659518228
9,22,Ticks_Phase_8,320,5,42,127,2660287860
9,22,Ticks_Phase_8,321,1,48,56,2660354552
9,22,Ticks_Phase_8,322,5,42,127,2661087796
9,22,Ticks_Phase_8,323,1,48,56,2661100128
9,22,Ticks_Phase_8,324,5,42,127,2661888556
9,22,Ticks_Phase_8,325,1,48,59,2661934656
9,22,Ticks_Phase_8,326,1,48,57,2662655500
9,22,Ticks_Phase_8,327,5,42,127,2662688112
9,22,Ticks_Phase_8,328,1,48,51,2663466068
9,22,Ticks_Phase_8,329,5,42,127,2663487900
9,22,Ticks_Phase_8,330,1,48,54,2664266168
9,22,Ticks_Phase_8,331,5,42,127,2664287536
9,22,Ticks_Phase_8,332,1,48,45,2665065040
9,22,Ticks_Phase_8,333,5,42,127,2665088444
9,22,Ticks_Phase_8,334,5,42,127,2665888012
9,22,Ticks_Phase_8,0,9999,9999,9999,9999,2530675812
9,22,Ticks_Phase_8,1,9999,9999,9999,9999,2531475544
9,22,Ticks_Phase_8,2,9999,9999,9999,9999,2532275276
9,22,Ticks_Phase_8,3,9999,9999,9999,9999,2533076084
9,22,Ticks_Phase_8,4,9999,9999,9999,9999,2533875816
9,22,Ticks_Phase_8,5,9999,9999,9999,9999,2534675528
9,22,Ticks_Phase_8,6,9999,9999,9999,9999,2535475308
9,22,Ticks_Phase_8,7,9999,9999,9999,9999,2536276068
9,22,Ticks_Phase_8,8,9999,9999,9999,9999,2537075788
9,22,Ticks_Phase_8,9,9999,9999,9999,9999,2537875568
9,22,Ticks_Phase_8,10,9999,9999,9999,9999,2538675284
9,22,Ticks_Phase_8,11,9999,9999,9999,9999,2539476036
9,22,Ticks_Phase_8,12,9999,9999,9999,9999,2540275828
9,22,Ticks_Phase_8,13,9999,9999,9999,9999,2541075544
9,22,Ticks_Phase_8,14,9999,9999,9999,9999,2541875320
9,22,Ticks_Phase_8,15,9999,9999,9999,9999,2542676080
9,22,Ticks_Phase_8,16,9999,9999,9999,9999,2543475792
9,22,Ticks_Phase_8,17,9999,9999,9999,9999,2544275576
9,22,Ticks_Phase_8,18,9999,9999,9999,9999,2545075288
9,22,Ticks_Phase_8,19,9999,9999,9999,9999,2545876076
9,22,Ticks_Phase_8,20,9999,9999,9999,9999,2546675792
9,22,Ticks_Phase_8,21,9999,9999,9999,9999,2547475576
9,22,Ticks_Phase_8,22,9999,9999,9999,9999,2548275284
9,22,Ticks_Phase_8,23,9999,9999,9999,9999,2549076044
9,22,Ticks_Phase_8,24,9999,9999,9999,9999,2549875832
9,22,Ticks_Phase_8,25,9999,9999,9999,9999,2550675544
9,22,Ticks_Phase_8,26,9999,9999,9999,9999,2551475256
9,22,Ticks_Phase_8,27,9999,9999,9999,9999,2552276040
9,22,Ticks_Phase_8,28,9999,9999,9999,9999,2553075828
9,22,Ticks_Phase_8,29,9999,9999,9999,9999,2553875536
9,22,Ticks_Phase_8,30,9999,9999,9999,9999,2554655852
9,22,Ticks_Phase_8,31,9999,9999,9999,9999,2555455560
9,22,Ticks_Phase_8,32,9999,9999,9999,9999,2556255296
9,22,Ticks_Phase_8,33,9999,9999,9999,9999,2557056108
9,22,Ticks_Phase_8,34,9999,9999,9999,9999,2557866076
9,22,Ticks_Phase_8,35,9999,9999,9999,9999,2558665816
9,22,Ticks_Phase_8,36,9999,9999,9999,9999,2559465528
9,22,Ticks_Phase_8,37,9999,9999,9999,9999,2560265316
9,22,Ticks_Phase_8,38,9999,9999,9999,9999,2561066068
9,22,Ticks_Phase_8,39,9999,9999,9999,9999,2561865788
9,22,Ticks_Phase_8,40,9999,9999,9999,9999,2562665576
9,22,Ticks_Phase_8,41,9999,9999,9999,9999,2563465284
9,22,Ticks_Phase_8,42,9999,9999,9999,9999,2564266044
9,22,Ticks_Phase_8,43,9999,9999,9999,9999,2565065848
9,22,Ticks_Phase_8,44,9999,9999,9999,9999,2565865564
9,22,Ticks_Phase_8,45,9999,9999,9999,9999,2566665272
9,22,Ticks_Phase_8,46,9999,9999,9999,9999,2567466108
9,22,Ticks_Phase_8,47,9999,9999,9999,9999,2568265820
9,22,Ticks_Phase_8,48,9999,9999,9999,9999,2569086044
9,22,Ticks_Phase_8,49,9999,9999,9999,9999,2569885764
9,22,Ticks_Phase_8,50,9999,9999,9999,9999,2570685500
9,22,Ticks_Phase_8,51,9999,9999,9999,9999,2571485284
9,22,Ticks_Phase_8,52,9999,9999,9999,9999,2572286044
9,22,Ticks_Phase_8,53,9999,9999,9999,9999,2573085756
9,22,Ticks_Phase_8,54,9999,9999,9999,9999,2573885544
9,22,Ticks_Phase_8,55,9999,9999,9999,9999,2574685248
9,22,Ticks_Phase_8,56,9999,9999,9999,9999,2575486012
9,22,Ticks_Phase_8,57,9999,9999,9999,9999,2576285800
9,22,Ticks_Phase_8,58,9999,9999,9999,9999,2577085532
9,22,Ticks_Phase_8,59,9999,9999,9999,9999,2577885252
9,22,Ticks_Phase_8,60,9999,9999,9999,9999,2578686076
9,22,Ticks_Phase_8,61,9999,9999,9999,9999,2579485788
9,22,Ticks_Phase_8,62,9999,9999,9999,9999,2580285500
9,22,Ticks_Phase_8,63,9999,9999,9999,9999,2581085288
9,22,Ticks_Phase_8,64,9999,9999,9999,9999,2581925960
9,22,Ticks_Phase_8,65,9999,9999,9999,9999,2582725696
9,22,Ticks_Phase_8,66,9999,9999,9999,9999,2583525492
9,22,Ticks_Phase_8,67,9999,9999,9999,9999,2584325200
9,22,Ticks_Phase_8,68,9999,9999,9999,9999,2585125952
9,22,Ticks_Phase_8,69,9999,9999,9999,9999,2585925744
9,22,Ticks_Phase_8,70,9999,9999,9999,9999,2586725456
9,22,Ticks_Phase_8,71,9999,9999,9999,9999,2587525244
9,22,Ticks_Phase_8,72,9999,9999,9999,9999,2588326000
9,22,Ticks_Phase_8,73,9999,9999,9999,9999,2589125708
9,22,Ticks_Phase_8,74,9999,9999,9999,9999,2589925492
9,22,Ticks_Phase_8,75,9999,9999,9999,9999,2590725204
9,22,Ticks_Phase_8,76,9999,9999,9999,9999,2591525964
9,22,Ticks_Phase_8,77,9999,9999,9999,9999,2592325748
9,22,Ticks_Phase_8,78,9999,9999,9999,9999,2593125468
9,22,Ticks_Phase_8,79,9999,9999,9999,9999,2593925180
9,22,Ticks_Phase_8,80,9999,9999,9999,9999,2594726012
9,22,Ticks_Phase_8,81,9999,9999,9999,9999,2595485808
9,22,Ticks_Phase_8,82,9999,9999,9999,9999,2596285548
9,22,Ticks_Phase_8,83,9999,9999,9999,9999,2597085264
9,22,Ticks_Phase_8,84,9999,9999,9999,9999,2597886020
9,22,Ticks_Phase_8,85,9999,9999,9999,9999,2598685808
9,22,Ticks_Phase_8,86,9999,9999,9999,9999,2599485520
9,22,Ticks_Phase_8,87,9999,9999,9999,9999,2600285300
9,22,Ticks_Phase_8,88,9999,9999,9999,9999,2601086036
9,22,Ticks_Phase_8,89,9999,9999,9999,9999,2601885820
9,22,Ticks_Phase_8,90,9999,9999,9999,9999,2602685556
9,22,Ticks_Phase_8,91,9999,9999,9999,9999,2603485268
9,22,Ticks_Phase_8,92,9999,9999,9999,9999,2604286032
9,22,Ticks_Phase_8,93,9999,9999,9999,9999,2605085812
9,22,Ticks_Phase_8,94,9999,9999,9999,9999,2605885524
9,22,Ticks_Phase_8,95,9999,9999,9999,9999,2606685260
9,22,Ticks_Phase_8,96,9999,9999,9999,9999,2607486068
9,22,Ticks_Phase_8,97,9999,9999,9999,9999,2608205884
9,22,Ticks_Phase_8,98,9999,9999,9999,9999,2609005672
9,22,Ticks_Phase_8,99,9999,9999,9999,9999,2609805432
9,22,Ticks_Phase_8,100,9999,9999,9999,9999,2610605144
9,22,Ticks_Phase_8,101,9999,9999,9999,9999,2611405916
9,22,Ticks_Phase_8,102,9999,9999,9999,9999,2612205628
9,22,Ticks_Phase_8,103,9999,9999,9999,9999,2613005416
9,22,Ticks_Phase_8,104,9999,9999,9999,9999,2613805128
9,22,Ticks_Phase_8,105,9999,9999,9999,9999,2614605888
9,22,Ticks_Phase_8,106,9999,9999,9999,9999,2615405676
9,22,Ticks_Phase_8,107,9999,9999,9999,9999,2616205392
9,22,Ticks_Phase_8,108,9999,9999,9999,9999,2617005172
9,22,Ticks_Phase_8,109,9999,9999,9999,9999,2617805936
9,22,Ticks_Phase_8,110,9999,9999,9999,9999,2618605648
9,22,Ticks_Phase_8,111,9999,9999,9999,9999,2619405432
9,22,Ticks_Phase_8,112,9999,9999,9999,9999,2620205144
9,22,Ticks_Phase_8,113,9999,9999,9999,9999,2621005904
9,22,Ticks_Phase_8,114,9999,9999,9999,9999,2621885536
9,22,Ticks_Phase_8,115,9999,9999,9999,9999,2622685256
9,22,Ticks_Phase_8,116,9999,9999,9999,9999,2623486016
9,22,Ticks_Phase_8,117,9999,9999,9999,9999,2624285800
9,22,Ticks_Phase_8,118,9999,9999,9999,9999,2625085512
9,22,Ticks_Phase_8,119,9999,9999,9999,9999,2625885296
9,22,Ticks_Phase_8,120,9999,9999,9999,9999,2626686056
9,22,Ticks_Phase_8,121,9999,9999,9999,9999,2627485768
9,22,Ticks_Phase_8,122,9999,9999,9999,9999,2628285504
9,22,Ticks_Phase_8,123,9999,9999,9999,9999,2629085284
9,22,Ticks_Phase_8,124,9999,9999,9999,9999,2629886048
9,22,Ticks_Phase_8,125,9999,9999,9999,9999,2630685760
9,22,Ticks_Phase_8,126,9999,9999,9999,9999,2631485544
9,22,Ticks_Phase_8,127,9999,9999,9999,9999,2632285248
9,22,Ticks_Phase_8,128,9999,9999,9999,9999,2633086008
9,22,Ticks_Phase_8,129,9999,9999,9999,9999,2633885800
9,22,Ticks_Phase_8,130,9999,9999,9999,9999,2634685508
9,22,Ticks_Phase_8,131,9999,9999,9999,9999,2635646060
9,22,Ticks_Phase_8,132,9999,9999,9999,9999,2636445788
9,22,Ticks_Phase_8,133,9999,9999,9999,9999,2637245532
9,22,Ticks_Phase_8,134,9999,9999,9999,9999,2638045244
9,22,Ticks_Phase_8,135,9999,9999,9999,9999,2638846076
9,22,Ticks_Phase_8,136,9999,9999,9999,9999,2639645784
9,22,Ticks_Phase_8,137,9999,9999,9999,9999,2640445564
9,22,Ticks_Phase_8,138,9999,9999,9999,9999,2641245284
9,22,Ticks_Phase_8,139,9999,9999,9999,9999,2642046044
9,22,Ticks_Phase_8,140,9999,9999,9999,9999,2642845756
9,22,Ticks_Phase_8,141,9999,9999,9999,9999,2643645492
9,22,Ticks_Phase_8,142,9999,9999,9999,9999,2644445280
9,22,Ticks_Phase_8,143,9999,9999,9999,9999,2645246040
9,22,Ticks_Phase_8,144,9999,9999,9999,9999,2646045752
9,22,Ticks_Phase_8,145,9999,9999,9999,9999,2646845512
9,22,Ticks_Phase_8,146,9999,9999,9999,9999,2647645300
9,22,Ticks_Phase_8,147,9999,9999,9999,9999,2648446056
9,22,Ticks_Phase_8,148,9999,9999,9999,9999,2649245768
9,22,Ticks_Phase_8,149,9999,9999,9999,9999,2650045508
9,22,Ticks_Phase_8,150,9999,9999,9999,9999,2650685532
9,22,Ticks_Phase_8,151,9999,9999,9999,9999,2651485244
9,22,Ticks_Phase_8,152,9999,9999,9999,9999,2652286072
9,22,Ticks_Phase_8,153,9999,9999,9999,9999,2653085784
9,22,Ticks_Phase_8,154,9999,9999,9999,9999,2653885520
9,22,Ticks_Phase_8,155,9999,9999,9999,9999,2654685308
9,22,Ticks_Phase_8,156,9999,9999,9999,9999,2655486068
9,22,Ticks_Phase_8,157,9999,9999,9999,9999,2656285780
9,22,Ticks_Phase_8,158,9999,9999,9999,9999,2657085564
9,22,Ticks_Phase_8,159,9999,9999,9999,9999,2657885284
9,22,Ticks_Phase_8,160,9999,9999,9999,9999,2658686044
9,22,Ticks_Phase_8,161,9999,9999,9999,9999,2659485756
9,22,Ticks_Phase_8,162,9999,9999,9999,9999,2660285496
9,22,Ticks_Phase_8,163,9999,9999,9999,9999,2661085284
9,22,Ticks_Phase_8,164,9999,9999,9999,9999,2661886044
9,22,Ticks_Phase_8,165,9999,9999,9999,9999,2662685748
9,22,Ticks_Phase_8,166,9999,9999,9999,9999,2663485536
9,22,Ticks_Phase_8,167,9999,9999,9999,9999,2664285248
9,22,Ticks_Phase_8,168,9999,9999,9999,9999,2665086008
9,22,Ticks_Phase_8,169,9999,9999,9999,9999,2665885796
10,23,Ticks_Phase_5,0,5,42,127,2678687256
10,23,Ticks_Phase_5,1,5,42,127,2679186888
10,23,Ticks_Phase_5,2,5,42,127,2679686524
10,23,Ticks_Phase_5,3,5,42,127,2680187132
10,23,Ticks_Phase_5,4,5,42,127,2680687140
10,23,Ticks_Phase_5,5,5,42,127,2681186628
10,23,Ticks_Phase_5,6,5,42,127,2681687460
10,23,Ticks_Phase_5,7,5,42,127,2682187168
10,23,Ticks_Phase_5,8,5,42,127,2682686880
10,23,Ticks_Phase_5,9,1,48,55,2682702200
10,23,Ticks_Phase_5,10,5,42,127,2683186568
10,23,Ticks_Phase_5,11,1,48,56,2683221880
10,23,Ticks_Phase_5,12,5,42,127,2683687300
10,23,Ticks_Phase_5,13,1,48,43,2683722540
10,23,Ticks_Phase_5,14,1,48,49,2684164788
10,23,Ticks_Phase_5,15,5,42,127,2684186980
10,23,Ticks_Phase_5,16,5,42,127,2684686900
10,23,Ticks_Phase_5,17,1,48,61,2684708968
10,23,Ticks_Phase_5,18,5,42,127,2685186364
10,23,Ticks_Phase_5,19,1,48,57,2685229620
10,23,Ticks_Phase_5,20,5,42,127,2685687176
10,23,Ticks_Phase_5,21,1,48,55,2685715308
10,23,Ticks_Phase_5,22,5,42,127,2686187012
10,23,Ticks_Phase_5,23,1,48,57,2686227276
10,23,Ticks_Phase_5,24,5,42,127,2686686552
10,23,Ticks_Phase_5,25,1,48,55,2686726220
10,23,Ticks_Phase_5,26,5,42,127,2687187212
10,23,Ticks_Phase_5,27,1,48,56,2687210024
10,23,Ticks_Phase_5,28,5,42,127,2687686972
10,23,Ticks_Phase_5,29,1,48,56,2687691436
10,23,Ticks_Phase_5,30,5,42,127,2688186960
10,23,Ticks_Phase_5,31,1,48,62,2688189400
10,23,Ticks_Phase_5,32,1,48,55,2688682832
10,23,Ticks_Phase_5,33,5,42,127,2688686492
10,23,Ticks_Phase_5,34,1,48,57,2689181776
10,23,Ticks_Phase_5,35,5,42,127,2689187200
10,23,Ticks_Phase_5,36,1,48,58,2689674732
10,23,Ticks_Phase_5,37,5,42,127,2689686888
10,23,Ticks_Phase_5,38,5,42,127,2690186508
10,23,Ticks_Phase_5,39,1,48,53,2690187920
10,23,Ticks_Phase_5,40,5,42,127,2690687316
10,23,Ticks_Phase_5,41,1,48,51,2690710504
10,23,Ticks_Phase_5,42,5,42,127,2691187004
10,23,Ticks_Phase_5,43,1,48,51,2691207948
10,23,Ticks_Phase_5,44,1,48,52,2691660292
10,23,Ticks_Phase_5,45,5,42,127,2691687208
10,23,Ticks_Phase_5,46,5,42,127,2692186456
10,23,Ticks_Phase_5,47,1,48,53,2692189648
10,23,Ticks_Phase_5,48,5,42,127,2692687264
10,23,Ticks_Phase_5,49,1,48,52,2692705292
10,23,Ticks_Phase_5,50,1,48,55,2693168716
10,23,Ticks_Phase_5,51,5,42,127,2693187096
10,23,Ticks_Phase_5,52,5,42,127,2693677284
10,23,Ticks_Phase_5,53,1,48,52,2693682940
10,23,Ticks_Phase_5,54,5,42,127,2694187304
10,23,Ticks_Phase_5,55,1,48,60,2694192588
10,23,Ticks_Phase_5,56,1,48,53,2694676468
10,23,Ticks_Phase_5,57,5,42,127,2694687060
10,23,Ticks_Phase_5,58,1,48,55,2695174052
10,23,Ticks_Phase_5,59,5,42,127,2695186748
10,23,Ticks_Phase_5,60,1,48,49,2695667012
10,23,Ticks_Phase_5,61,5,42,127,2695686804
10,23,Ticks_Phase_5,62,1,48,56,2696187176
10,23,Ticks_Phase_5,63,5,42,127,2696188812
10,23,Ticks_Phase_5,64,1,48,48,2696682028
10,23,Ticks_Phase_5,65,5,42,127,2696687156
10,23,Ticks_Phase_5,66,5,42,127,2697186776
10,23,Ticks_Phase_5,67,1,48,65,2697203744
10,23,Ticks_Phase_5,68,5,42,127,2697687364
10,23,Ticks_Phase_5,69,1,48,55,2697694680
10,23,Ticks_Phase_5,70,5,42,127,2698187048
10,23,Ticks_Phase_5,71,1,48,61,2698201176
10,23,Ticks_Phase_5,72,5,42,127,2698686888
10,23,Ticks_Phase_5,73,1,48,53,2698699144
10,23,Ticks_Phase_5,74,5,42,127,2699186800
10,23,Ticks_Phase_5,75,1,48,55,2699203244
10,23,Ticks_Phase_5,76,5,42,127,2699687140
10,23,Ticks_Phase_5,77,1,48,51,2699702932
10,23,Ticks_Phase_5,78,1,48,46,2700179748
10,23,Ticks_Phase_5,79,5,42,127,2700186972
10,23,Ticks_Phase_5,80,5,42,127,2700686664
10,23,Ticks_Phase_5,81,1,48,57,2700697424
10,23,Ticks_Phase_5,82,5,42,127,2701186500
10,23,Ticks_Phase_5,83,1,48,54,2701206392
10,23,Ticks_Phase_5,84,5,42,127,2701687012
10,23,Ticks_Phase_5,85,1,48,56,2701691548
10,23,Ticks_Phase_5,86,5,42,127,2702186852
10,23,Ticks_Phase_5,87,1,48,49,2702190340
10,23,Ticks_Phase_5,88,5,42,127,2702696872
10,23,Ticks_Phase_5,89,1,48,52,2702731816
10,23,Ticks_Phase_5,90,5,42,127,2703196636
10,23,Ticks_Phase_5,91,1,48,59,2703211808
10,23,Ticks_Phase_5,92,5,42,127,2703697296
10,23,Ticks_Phase_5,93,1,48,57,2703699960
10,23,Ticks_Phase_5,94,5,42,127,2704196984
10,23,Ticks_Phase_5,95,1,48,49,2704199732
10,23,Ticks_Phase_5,96,5,42,127,2704696896
10,23,Ticks_Phase_5,97,1,48,58,2704722404
10,23,Ticks_Phase_5,98,1,48,57,2705171608
10,23,Ticks_Phase_5,99,5,42,127,2705197548
10,23,Ticks_Phase_5,100,1,48,61,2705701324
10,23,Ticks_Phase_5,101,5,42,127,2705707424
10,23,Ticks_Phase_5,102,5,42,127,2706206968
10,23,Ticks_Phase_5,103,1,48,61,2706237500
10,23,Ticks_Phase_5,104,5,42,127,2706706732
10,23,Ticks_Phase_5,105,1,48,57,2706707696
10,23,Ticks_Phase_5,106,5,42,127,2707206496
10,23,Ticks_Phase_5,107,1,48,48,2707223912
10,23,Ticks_Phase_5,108,5,42,127,2707707376
10,23,Ticks_Phase_5,109,1,48,46,2707730496
10,23,Ticks_Phase_5,110,1,48,52,2708205248
10,23,Ticks_Phase_5,111,5,42,127,2708206912
10,23,Ticks_Phase_5,112,1,48,51,2708703272
10,23,Ticks_Phase_5,113,5,42,127,2708706528
10,23,Ticks_Phase_5,114,5,42,127,2709207492
10,23,Ticks_Phase_5,115,1,48,49,2709210164
10,23,Ticks_Phase_5,116,1,48,58,2709706120
10,23,Ticks_Phase_5,117,5,42,127,2709707848
10,23,Ticks_Phase_5,118,5,42,127,2710206720
10,23,Ticks_Phase_5,119,1,48,49,2710208584
10,23,Ticks_Phase_5,120,1,48,51,2710710860
10,23,Ticks_Phase_5,121,5,42,127,2710727144
10,23,Ticks_Phase_5,122,5,42,127,2711226692
10,23,Ticks_Phase_5,123,1,48,54,2711249956
10,23,Ticks_Phase_5,124,1,48,65,2711705424
10,23,Ticks_Phase_5,125,5,42,127,2711726448
10,23,Ticks_Phase_5,126,1,48,52,2712217096
10,23,Ticks_Phase_5,127,5,42,127,2712227380
10,23,Ticks_Phase_5,128,5,42,127,2712726852
10,23,Ticks_Phase_5,129,1,48,49,2712737240
10,23,Ticks_Phase_5,130,1,48,54,2713220360
10,23,Ticks_Phase_5,131,5,42,127,2713226756
10,23,Ticks_Phase_5,132,1,48,58,2713700576
10,23,Ticks_Phase_5,133,5,42,127,2713727492
10,23,Ticks_Phase_5,134,1,48,56,2714216144
10,23,Ticks_Phase_5,135,5,42,127,2714227252
10,23,Ticks_Phase_5,136,5,42,127,2714726728
10,23,Ticks_Phase_5,137,1,48,48,2714732084
10,23,Ticks_Phase_5,138,1,48,51,2715223748
10,23,Ticks_Phase_5,139,5,42,127,2715226408
10,23,Ticks_Phase_5,140,1,48,57,2715699704
10,23,Ticks_Phase_5,141,5,42,127,2715727516
10,23,Ticks_Phase_5,142,1,48,59,2716203208
10,23,Ticks_Phase_5,143,5,42,127,2716226980
10,23,Ticks_Phase_5,144,1,48,48,2716724156
10,23,Ticks_Phase_5,145,5,42,127,2716726596
10,23,Ticks_Phase_5,146,1,48,53,2717211196
10,23,Ticks_Phase_5,147,5,42,127,2717227476
10,23,Ticks_Phase_5,148,1,48,55,2717710284
10,23,Ticks_Phase_5,149,5,42,127,2717727168
10,23,Ticks_Phase_5,150,1,48,59,2718208404
10,23,Ticks_Phase_5,151,5,42,127,2718226852
10,23,Ticks_Phase_5,152,5,42,127,2718726476
10,23,Ticks_Phase_5,153,1,48,62,2718768464
10,23,Ticks_Phase_5,154,5,42,127,2719206916
10,23,Ticks_Phase_5,155,1,48,45,2719237228
10,23,Ticks_Phase_5,156,5,42,127,2719706604
10,23,Ticks_Phase_5,157,1,48,45,2719712492
10,23,Ticks_Phase_5,158,1,48,48,2720193292
10,23,Ticks_Phase_5,159,5,42,127,2720207108
10,23,Ticks_Phase_5,160,1,48,43,2720707104
10,23,Ticks_Phase_5,161,5,42,127,2720708588
10,23,Ticks_Phase_5,162,1,48,47,2721203676
10,23,Ticks_Phase_5,163,5,42,127,2721206708
10,23,Ticks_Phase_5,164,1,48,47,2721690536
10,23,Ticks_Phase_5,165,5,42,127,2721707520
10,23,Ticks_Phase_5,166,1,48,42,2722170980
10,23,Ticks_Phase_5,167,5,42,127,2722207180
10,23,Ticks_Phase_5,168,1,48,52,2722688344
10,23,Ticks_Phase_5,169,5,42,127,2722706944
10,23,Ticks_Phase_5,170,5,42,127,2723206640
10,23,Ticks_Phase_5,171,1,48,51,2723211332
10,23,Ticks_Phase_5,172,1,48,53,2723677836
10,23,Ticks_Phase_5,173,5,42,127,2723707220
10,23,Ticks_Phase_5,174,1,48,47,2724171672
10,23,Ticks_Phase_5,175,5,42,127,2724207208
10,23,Ticks_Phase_5,176,5,42,127,2724706532
10,23,Ticks_Phase_5,177,1,48,51,2724713232
10,23,Ticks_Phase_5,178,5,42,127,2725207340
10,23,Ticks_Phase_5,179,1,48,47,2725209932
10,23,Ticks_Phase_5,180,1,48,43,2725703312
10,23,Ticks_Phase_5,181,5,42,127,2725707096
10,23,Ticks_Phase_5,182,1,48,46,2726186088
10,23,Ticks_Phase_5,183,5,42,127,2726207004
10,23,Ticks_Phase_5,184,1,48,43,2726701348
10,23,Ticks_Phase_5,185,5,42,127,2726706624
10,23,Ticks_Phase_5,186,5,42,127,2727157044
10,23,Ticks_Phase_5,187,1,48,44,2727223660
10,23,Ticks_Phase_5,188,5,42,127,2727657028
10,23,Ticks_Phase_5,189,1,48,44,2727703424
10,23,Ticks_Phase_5,190,1,48,43,2728145896
10,23,Ticks_Phase_5,191,5,42,127,2728156560
10,23,Ticks_Phase_5,192,1,48,47,2728615232
10,23,Ticks_Phase_5,193,5,42,127,2728657368
10,23,Ticks_Phase_5,194,1,48,43,2729098668
10,23,Ticks_Phase_5,195,5,42,127,2729156908
10,23,Ticks_Phase_5,196,1,48,47,2729608764
10,23,Ticks_Phase_5,197,5,42,127,2729656820
10,23,Ticks_Phase_5,198,1,48,47,2730096920
10,23,Ticks_Phase_5,199,5,42,127,2730157328
10,23,Ticks_Phase_5,200,1,48,54,2730601840
10,23,Ticks_Phase_5,201,5,42,127,2730667424
10,23,Ticks_Phase_5,202,1,48,46,2731114940
10,23,Ticks_Phase_5,203,5,42,127,2731167016
10,23,Ticks_Phase_5,204,1,48,42,2731623456
10,23,Ticks_Phase_5,205,5,42,127,2731666776
10,23,Ticks_Phase_5,206,1,48,48,2732145920
10,23,Ticks_Phase_5,207,5,42,127,2732166540
10,23,Ticks_Phase_5,208,1,48,43,2732662520
10,23,Ticks_Phase_5,209,5,42,127,2732667200
10,23,Ticks_Phase_5,210,1,48,42,2733149484
10,23,Ticks_Phase_5,211,5,42,127,2733166888
10,23,Ticks_Phase_5,212,5,42,127,2733666956
10,23,Ticks_Phase_5,213,1,48,41,2733688796
10,23,Ticks_Phase_5,214,1,48,44,2734134856
10,23,Ticks_Phase_5,215,5,42,127,2734167384
10,23,Ticks_Phase_5,216,1,48,29,2734641800
10,23,Ticks_Phase_5,217,5,42,127,2734667072
10,23,Ticks_Phase_5,218,1,48,52,2735151228
10,23,Ticks_Phase_5,219,5,42,127,2735166688
10,23,Ticks_Phase_5,220,1,48,47,2735659976
10,23,Ticks_Phase_5,221,5,42,127,2735716700
10,23,Ticks_Phase_5,222,1,48,45,2736169552
10,23,Ticks_Phase_5,223,5,42,127,2736216392
10,23,Ticks_Phase_5,224,1,48,44,2736669168
10,23,Ticks_Phase_5,225,5,42,127,2736717052
10,23,Ticks_Phase_5,226,1,48,45,2737177464
10,23,Ticks_Phase_5,227,5,42,127,2737216812
10,23,Ticks_Phase_5,228,1,48,48,2737667720
10,23,Ticks_Phase_5,229,5,42,127,2737716872
10,23,Ticks_Phase_5,230,1,48,45,2738146740
10,23,Ticks_Phase_5,231,5,42,127,2738217308
10,23,Ticks_Phase_5,232,1,48,49,2738644988
10,23,Ticks_Phase_5,233,5,42,127,2738717144
10,23,Ticks_Phase_5,234,1,48,31,2739201968
10,23,Ticks_Phase_5,235,5,42,127,2739216612
10,23,Ticks_Phase_5,236,5,42,127,2739716528
10,23,Ticks_Phase_5,237,1,48,45,2739722036
10,23,Ticks_Phase_5,238,1,48,45,2740199704
10,23,Ticks_Phase_5,239,5,42,127,2740217108
10,23,Ticks_Phase_5,240,1,48,42,2740679248
10,23,Ticks_Phase_5,241,5,42,127,2740716872
10,23,Ticks_Phase_5,242,1,48,25,2741189416
10,23,Ticks_Phase_5,243,5,42,127,2741216780
10,23,Ticks_Phase_5,244,1,48,50,2741686112
10,23,Ticks_Phase_5,245,5,42,127,2741717292
10,23,Ticks_Phase_5,246,1,48,54,2742207520
10,23,Ticks_Phase_5,247,5,42,127,2742217204
10,23,Ticks_Phase_5,248,1,48,53,2742688084
10,23,Ticks_Phase_5,249,5,42,127,2742716744
10,23,Ticks_Phase_5,250,1,48,47,2743213180
10,23,Ticks_Phase_5,251,5,42,127,2743216508
10,23,Ticks_Phase_5,252,5,42,127,2743717376
10,23,Ticks_Phase_5,253,1,48,45,2743741184
10,23,Ticks_Phase_5,254,1,48,45,2744189392
10,23,Ticks_Phase_5,255,5,42,127,2744317416
10,23,Ticks_Phase_5,256,1,48,45,2744765416
10,23,Ticks_Phase_5,257,5,42,127,2744817044
10,23,Ticks_Phase_5,258,1,48,49,2745301720
10,23,Ticks_Phase_5,259,5,42,127,2745316656
10,23,Ticks_Phase_5,260,1,48,47,2745802980
10,23,Ticks_Phase_5,261,5,42,127,2745816568
10,23,Ticks_Phase_5,262,1,48,49,2746298252
10,23,Ticks_Phase_5,263,5,42,127,2746317304
10,23,Ticks_Phase_5,264,5,42,127,2746816996
10,23,Ticks_Phase_5,265,1,48,47,2746819516
10,23,Ticks_Phase_5,266,1,48,45,2747295508
10,23,Ticks_Phase_5,267,5,42,127,2747316456
10,23,Ticks_Phase_5,268,5,42,127,2747817396
10,23,Ticks_Phase_5,269,1,48,46,2747821412
10,23,Ticks_Phase_5,270,5,42,127,2748317132
10,23,Ticks_Phase_5,271,1,48,38,2748351424
10,23,Ticks_Phase_5,272,5,42,127,2748816672
10,23,Ticks_Phase_5,273,1,48,48,2748836716
10,23,Ticks_Phase_5,274,5,42,127,2749316436
10,23,Ticks_Phase_5,275,1,48,43,2749332508
10,23,Ticks_Phase_5,276,5,42,127,2749817616
10,23,Ticks_Phase_5,277,1,48,42,2749827704
10,23,Ticks_Phase_5,278,5,42,127,2750316856
10,23,Ticks_Phase_5,279,1,48,37,2750342884
10,23,Ticks_Phase_5,280,5,42,127,2750816620
10,23,Ticks_Phase_5,281,1,48,42,2750818556
10,23,Ticks_Phase_5,282,5,42,127,2751317356
10,23,Ticks_Phase_5,283,1,48,31,2751355600
10,23,Ticks_Phase_5,284,5,42,127,2751816968
10,23,Ticks_Phase_5,285,1,48,44,2751832660
10,23,Ticks_Phase_5,286,1,48,35,2752304344
10,23,Ticks_Phase_5,287,5,42,127,2752316724
10,23,Ticks_Phase_5,288,1,48,38,2752816420
10,23,Ticks_Phase_5,289,5,42,127,2752818056
10,23,Ticks_Phase_5,290,1,48,44,2753313816
10,23,Ticks_Phase_5,291,5,42,127,2753317520
10,23,Ticks_Phase_5,292,5,42,127,2753716720
10,23,Ticks_Phase_5,293,1,48,45,2753807684
10,23,Ticks_Phase_5,294,5,42,127,2754217604
10,23,Ticks_Phase_5,295,1,48,48,2754261388
10,23,Ticks_Phase_5,296,1,48,48,2754706148
10,23,Ticks_Phase_5,297,5,42,127,2754717184
10,23,Ticks_Phase_5,298,1,48,43,2755175588
10,23,Ticks_Phase_5,299,5,42,127,2755216652
10,23,Ticks_Phase_5,300,1,48,50,2755666804
10,23,Ticks_Phase_5,301,5,42,127,2755716488
10,23,Ticks_Phase_5,302,1,48,38,2756182440
10,23,Ticks_Phase_5,303,5,42,127,2756217296
10,23,Ticks_Phase_5,304,1,48,43,2756679960
10,23,Ticks_Phase_5,305,5,42,127,2756716836
10,23,Ticks_Phase_5,306,1,48,47,2757165720
10,23,Ticks_Phase_5,307,5,42,127,2757216672
10,23,Ticks_Phase_5,308,1,48,43,2757681804
10,23,Ticks_Phase_5,309,5,42,127,2757717560
10,23,Ticks_Phase_5,310,1,48,41,2758173928
10,23,Ticks_Phase_5,311,5,42,127,2758217096
10,23,Ticks_Phase_5,312,1,48,44,2758655428
10,23,Ticks_Phase_5,313,5,42,127,2758716640
10,23,Ticks_Phase_5,314,1,48,41,2759181020
10,23,Ticks_Phase_5,315,5,42,127,2759216476
10,23,Ticks_Phase_5,316,1,48,48,2759711260
10,23,Ticks_Phase_5,317,5,42,127,2759717136
10,23,Ticks_Phase_5,318,1,48,42,2760214164
10,23,Ticks_Phase_5,319,5,42,127,2760216824
10,23,Ticks_Phase_5,320,5,42,127,2760716744
10,23,Ticks_Phase_5,321,1,48,36,2760724660
10,23,Ticks_Phase_5,322,1,48,39,2761174908
10,23,Ticks_Phase_5,323,5,42,127,2761217472
10,23,Ticks_Phase_5,324,1,48,43,2761716712
10,23,Ticks_Phase_5,325,5,42,127,2761718280
10,23,Ticks_Phase_5,326,5,42,127,2762216780
10,23,Ticks_Phase_5,327,1,48,41,2762254416
10,23,Ticks_Phase_5,328,5,42,127,2762716468
10,23,Ticks_Phase_5,329,1,48,46,2762726704
10,23,Ticks_Phase_5,330,5,42,127,2763217276
10,23,Ticks_Phase_5,331,1,48,44,2763223612
10,23,Ticks_Phase_5,0,9999,9999,9999,9999,2678684740
10,23,Ticks_Phase_5,1,9999,9999,9999,9999,2679184452
10,23,Ticks_Phase_5,2,9999,9999,9999,9999,2679684160
10,23,Ticks_Phase_5,3,9999,9999,9999,9999,2680184920
10,23,Ticks_Phase_5,4,9999,9999,9999,9999,2680684628
10,23,Ticks_Phase_5,5,9999,9999,9999,9999,2681184336
10,23,Ticks_Phase_5,6,9999,9999,9999,9999,2681685096
10,23,Ticks_Phase_5,7,9999,9999,9999,9999,2682184804
10,23,Ticks_Phase_5,8,9999,9999,9999,9999,2682684516
10,23,Ticks_Phase_5,9,9999,9999,9999,9999,2683184204
10,23,Ticks_Phase_5,10,9999,9999,9999,9999,2683684936
10,23,Ticks_Phase_5,11,9999,9999,9999,9999,2684184692
10,23,Ticks_Phase_5,12,9999,9999,9999,9999,2684684388
10,23,Ticks_Phase_5,13,9999,9999,9999,9999,2685184076
10,23,Ticks_Phase_5,14,9999,9999,9999,9999,2685684812
10,23,Ticks_Phase_5,15,9999,9999,9999,9999,2686184572
10,23,Ticks_Phase_5,16,9999,9999,9999,9999,2686684260
10,23,Ticks_Phase_5,17,9999,9999,9999,9999,2687184996
10,23,Ticks_Phase_5,18,9999,9999,9999,9999,2687684684
10,23,Ticks_Phase_5,19,9999,9999,9999,9999,2688184444
10,23,Ticks_Phase_5,20,9999,9999,9999,9999,2688684104
10,23,Ticks_Phase_5,21,9999,9999,9999,9999,2689184836
10,23,Ticks_Phase_5,22,9999,9999,9999,9999,2689684600
10,23,Ticks_Phase_5,23,9999,9999,9999,9999,2690184292
10,23,Ticks_Phase_5,24,9999,9999,9999,9999,2690685028
10,23,Ticks_Phase_5,25,9999,9999,9999,9999,2691184716
10,23,Ticks_Phase_5,26,9999,9999,9999,9999,2691684472
10,23,Ticks_Phase_5,27,9999,9999,9999,9999,2692184168
10,23,Ticks_Phase_5,28,9999,9999,9999,9999,2692684900
10,23,Ticks_Phase_5,29,9999,9999,9999,9999,2693184580
10,23,Ticks_Phase_5,30,9999,9999,9999,9999,2693675064
10,23,Ticks_Phase_5,31,9999,9999,9999,9999,2694185012
10,23,Ticks_Phase_5,32,9999,9999,9999,9999,2694684768
10,23,Ticks_Phase_5,33,9999,9999,9999,9999,2695184460
10,23,Ticks_Phase_5,34,9999,9999,9999,9999,2695684220
10,23,Ticks_Phase_5,35,9999,9999,9999,9999,2696184888
10,23,Ticks_Phase_5,36,9999,9999,9999,9999,2696684644
10,23,Ticks_Phase_5,37,9999,9999,9999,9999,2697184336
10,23,Ticks_Phase_5,38,9999,9999,9999,9999,2697685072
10,23,Ticks_Phase_5,39,9999,9999,9999,9999,2698184760
10,23,Ticks_Phase_5,40,9999,9999,9999,9999,2698684524
10,23,Ticks_Phase_5,41,9999,9999,9999,9999,2699184212
10,23,Ticks_Phase_5,42,9999,9999,9999,9999,2699684924
10,23,Ticks_Phase_5,43,9999,9999,9999,9999,2700184680
10,23,Ticks_Phase_5,44,9999,9999,9999,9999,2700684376
10,23,Ticks_Phase_5,45,9999,9999,9999,9999,2701184064
10,23,Ticks_Phase_5,46,9999,9999,9999,9999,2701684796
10,23,Ticks_Phase_5,47,9999,9999,9999,9999,2702184560
10,23,Ticks_Phase_5,48,9999,9999,9999,9999,2702694508
10,23,Ticks_Phase_5,49,9999,9999,9999,9999,2703194196
10,23,Ticks_Phase_5,50,9999,9999,9999,9999,2703694932
10,23,Ticks_Phase_5,51,9999,9999,9999,9999,2704194620
10,23,Ticks_Phase_5,52,9999,9999,9999,9999,2704694384
10,23,Ticks_Phase_5,53,9999,9999,9999,9999,2705195112
10,23,Ticks_Phase_5,54,9999,9999,9999,9999,2705705060
10,23,Ticks_Phase_5,55,9999,9999,9999,9999,2706204752
10,23,Ticks_Phase_5,56,9999,9999,9999,9999,2706704440
10,23,Ticks_Phase_5,57,9999,9999,9999,9999,2707204208
10,23,Ticks_Phase_5,58,9999,9999,9999,9999,2707704940
10,23,Ticks_Phase_5,59,9999,9999,9999,9999,2708204648
10,23,Ticks_Phase_5,60,9999,9999,9999,9999,2708704312
10,23,Ticks_Phase_5,61,9999,9999,9999,9999,2709205052
10,23,Ticks_Phase_5,62,9999,9999,9999,9999,2709704816
10,23,Ticks_Phase_5,63,9999,9999,9999,9999,2710204504
10,23,Ticks_Phase_5,64,9999,9999,9999,9999,2710724708
10,23,Ticks_Phase_5,65,9999,9999,9999,9999,2711224404
10,23,Ticks_Phase_5,66,9999,9999,9999,9999,2711724156
10,23,Ticks_Phase_5,67,9999,9999,9999,9999,2712224868
10,23,Ticks_Phase_5,68,9999,9999,9999,9999,2712724564
10,23,Ticks_Phase_5,69,9999,9999,9999,9999,2713224320
10,23,Ticks_Phase_5,70,9999,9999,9999,9999,2713725052
10,23,Ticks_Phase_5,71,9999,9999,9999,9999,2714224740
10,23,Ticks_Phase_5,72,9999,9999,9999,9999,2714724436
10,23,Ticks_Phase_5,73,9999,9999,9999,9999,2715224120
10,23,Ticks_Phase_5,74,9999,9999,9999,9999,2715724852
10,23,Ticks_Phase_5,75,9999,9999,9999,9999,2716224616
10,23,Ticks_Phase_5,76,9999,9999,9999,9999,2716724304
10,23,Ticks_Phase_5,77,9999,9999,9999,9999,2717225040
10,23,Ticks_Phase_5,78,9999,9999,9999,9999,2717724728
10,23,Ticks_Phase_5,79,9999,9999,9999,9999,2718224492
10,23,Ticks_Phase_5,80,9999,9999,9999,9999,2718724188
10,23,Ticks_Phase_5,81,9999,9999,9999,9999,2719204480
10,23,Ticks_Phase_5,82,9999,9999,9999,9999,2719704168
10,23,Ticks_Phase_5,83,9999,9999,9999,9999,2720204896
10,23,Ticks_Phase_5,84,9999,9999,9999,9999,2720704592
10,23,Ticks_Phase_5,85,9999,9999,9999,9999,2721204348
10,23,Ticks_Phase_5,86,9999,9999,9999,9999,2721705056
10,23,Ticks_Phase_5,87,9999,9999,9999,9999,2722204744
10,23,Ticks_Phase_5,88,9999,9999,9999,9999,2722704508
10,23,Ticks_Phase_5,89,9999,9999,9999,9999,2723204200
10,23,Ticks_Phase_5,90,9999,9999,9999,9999,2723704928
10,23,Ticks_Phase_5,91,9999,9999,9999,9999,2724204620
10,23,Ticks_Phase_5,92,9999,9999,9999,9999,2724704316
10,23,Ticks_Phase_5,93,9999,9999,9999,9999,2725205048
10,23,Ticks_Phase_5,94,9999,9999,9999,9999,2725704808
10,23,Ticks_Phase_5,95,9999,9999,9999,9999,2726204492
10,23,Ticks_Phase_5,96,9999,9999,9999,9999,2726704184
10,23,Ticks_Phase_5,97,9999,9999,9999,9999,2727154752
10,23,Ticks_Phase_5,98,9999,9999,9999,9999,2727654516
10,23,Ticks_Phase_5,99,9999,9999,9999,9999,2728154196
10,23,Ticks_Phase_5,100,9999,9999,9999,9999,2728654932
10,23,Ticks_Phase_5,101,9999,9999,9999,9999,2729154620
10,23,Ticks_Phase_5,102,9999,9999,9999,9999,2729654380
10,23,Ticks_Phase_5,103,9999,9999,9999,9999,2730155116
10,23,Ticks_Phase_5,104,9999,9999,9999,9999,2730665036
10,23,Ticks_Phase_5,105,9999,9999,9999,9999,2731164724
10,23,Ticks_Phase_5,106,9999,9999,9999,9999,2731664488
10,23,Ticks_Phase_5,107,9999,9999,9999,9999,2732164176
10,23,Ticks_Phase_5,108,9999,9999,9999,9999,2732664912
10,23,Ticks_Phase_5,109,9999,9999,9999,9999,2733164600
10,23,Ticks_Phase_5,110,9999,9999,9999,9999,2733664368
10,23,Ticks_Phase_5,111,9999,9999,9999,9999,2734165096
10,23,Ticks_Phase_5,112,9999,9999,9999,9999,2734664784
10,23,Ticks_Phase_5,113,9999,9999,9999,9999,2735164476
10,23,Ticks_Phase_5,114,9999,9999,9999,9999,2735714412
10,23,Ticks_Phase_5,115,9999,9999,9999,9999,2736214100
10,23,Ticks_Phase_5,116,9999,9999,9999,9999,2736714836
10,23,Ticks_Phase_5,117,9999,9999,9999,9999,2737214524
10,23,Ticks_Phase_5,118,9999,9999,9999,9999,2737714288
10,23,Ticks_Phase_5,119,9999,9999,9999,9999,2738215020
10,23,Ticks_Phase_5,120,9999,9999,9999,9999,2738714708
10,23,Ticks_Phase_5,121,9999,9999,9999,9999,2739214396
10,23,Ticks_Phase_5,122,9999,9999,9999,9999,2739714164
10,23,Ticks_Phase_5,123,9999,9999,9999,9999,2740214892
10,23,Ticks_Phase_5,124,9999,9999,9999,9999,2740714580
10,23,Ticks_Phase_5,125,9999,9999,9999,9999,2741214268
10,23,Ticks_Phase_5,126,9999,9999,9999,9999,2741715004
10,23,Ticks_Phase_5,127,9999,9999,9999,9999,2742214768
10,23,Ticks_Phase_5,128,9999,9999,9999,9999,2742714456
10,23,Ticks_Phase_5,129,9999,9999,9999,9999,2743214148
10,23,Ticks_Phase_5,130,9999,9999,9999,9999,2743714936
10,23,Ticks_Phase_5,131,9999,9999,9999,9999,2744314976
10,23,Ticks_Phase_5,132,9999,9999,9999,9999,2744814680
10,23,Ticks_Phase_5,133,9999,9999,9999,9999,2745314368
10,23,Ticks_Phase_5,134,9999,9999,9999,9999,2745814132
10,23,Ticks_Phase_5,135,9999,9999,9999,9999,2746314868
10,23,Ticks_Phase_5,136,9999,9999,9999,9999,2746814560
10,23,Ticks_Phase_5,137,9999,9999,9999,9999,2747314240
10,23,Ticks_Phase_5,138,9999,9999,9999,9999,2747815032
10,23,Ticks_Phase_5,139,9999,9999,9999,9999,2748314696
10,23,Ticks_Phase_5,140,9999,9999,9999,9999,2748814460
10,23,Ticks_Phase_5,141,9999,9999,9999,9999,2749314144
10,23,Ticks_Phase_5,142,9999,9999,9999,9999,2749814880
10,23,Ticks_Phase_5,143,9999,9999,9999,9999,2750314568
10,23,Ticks_Phase_5,144,9999,9999,9999,9999,2750814332
10,23,Ticks_Phase_5,145,9999,9999,9999,9999,2751315064
10,23,Ticks_Phase_5,146,9999,9999,9999,9999,2751814752
10,23,Ticks_Phase_5,147,9999,9999,9999,9999,2752314436
10,23,Ticks_Phase_5,148,9999,9999,9999,9999,2752814204
10,23,Ticks_Phase_5,149,9999,9999,9999,9999,2753314932
10,23,Ticks_Phase_5,150,9999,9999,9999,9999,2753714280
10,23,Ticks_Phase_5,151,9999,9999,9999,9999,2754214992
10,23,Ticks_Phase_5,152,9999,9999,9999,9999,2754714748
10,23,Ticks_Phase_5,153,9999,9999,9999,9999,2755214436
10,23,Ticks_Phase_5,154,9999,9999,9999,9999,2755714124
10,23,Ticks_Phase_5,155,9999,9999,9999,9999,2756214860
10,23,Ticks_Phase_5,156,9999,9999,9999,9999,2756714620
10,23,Ticks_Phase_5,157,9999,9999,9999,9999,2757214308
10,23,Ticks_Phase_5,158,9999,9999,9999,9999,2757715048
10,23,Ticks_Phase_5,159,9999,9999,9999,9999,2758214732
10,23,Ticks_Phase_5,160,9999,9999,9999,9999,2758714424
10,23,Ticks_Phase_5,161,9999,9999,9999,9999,2759214188
10,23,Ticks_Phase_5,162,9999,9999,9999,9999,2759714920
10,23,Ticks_Phase_5,163,9999,9999,9999,9999,2760214612
10,23,Ticks_Phase_5,164,9999,9999,9999,9999,2760714304
10,23,Ticks_Phase_5,165,9999,9999,9999,9999,2761215032
10,23,Ticks_Phase_5,166,9999,9999,9999,9999,2761714800
10,23,Ticks_Phase_5,167,9999,9999,9999,9999,2762214488
10,23,Ticks_Phase_5,168,9999,9999,9999,9999,2762714180
10,23,Ticks_Phase_5,169,9999,9999,9999,9999,2763214916
11,25,Jits_Pract_5,0,5,56,103,2812365160
11,25,Jits_Pract_5,1,5,63,98,2812368412
11,25,Jits_Pract_5,2,5,80,127,2812371380
11,25,Jits_Pract_5,0,5,56,103,2812864888
11,25,Jits_Pract_5,1,5,63,98,2812868060
11,25,Jits_Pract_5,2,5,80,127,2812871328
11,25,Jits_Pract_5,0,5,56,103,2813364480
11,25,Jits_Pract_5,1,5,80,127,2813375120
11,25,Jits_Pract_5,2,5,63,98,2813395428
11,25,Jits_Pract_5,0,5,63,98,2813815048
11,25,Jits_Pract_5,1,5,80,127,2813844948
11,25,Jits_Pract_5,2,5,56,103,2813855072
11,25,Jits_Pract_5,0,5,80,127,2814375260
11,25,Jits_Pract_5,1,5,56,103,2814384408
11,25,Jits_Pract_5,2,5,63,98,2814415204
11,25,Jits_Pract_5,0,5,63,98,2814864792
11,25,Jits_Pract_5,1,5,56,103,2814894420
11,25,Jits_Pract_5,2,5,80,127,2814904988
11,25,Jits_Pract_5,0,5,56,103,2815315228
11,25,Jits_Pract_5,1,5,63,98,2815364608
11,25,Jits_Pract_5,2,5,80,127,2815384916
11,25,Jits_Pract_5,3,1,48,18,2815442216
11,25,Jits_Pract_5,0,1,48,24,2815665728
11,25,Jits_Pract_5,1,5,80,127,2815815208
11,25,Jits_Pract_5,2,5,63,98,2815865340
11,25,Jits_Pract_5,3,5,56,103,2815905204
11,25,Jits_Pract_5,4,1,48,13,2815945956
11,25,Jits_Pract_5,0,5,56,103,2816314736
11,25,Jits_Pract_5,1,5,63,98,2816344560
11,25,Jits_Pract_5,2,5,80,127,2816415060
11,25,Jits_Pract_5,3,1,48,19,2816421868
11,25,Jits_Pract_5,0,1,48,13,2816664536
11,25,Jits_Pract_5,1,5,56,103,2816814420
11,25,Jits_Pract_5,2,5,80,127,2816874960
11,25,Jits_Pract_5,3,5,63,98,2816904784
11,25,Jits_Pract_5,4,1,48,20,2816912088
11,25,Jits_Pract_5,0,5,56,103,2817325472
11,25,Jits_Pract_5,1,5,63,98,2817334772
11,25,Jits_Pract_5,2,5,80,127,2817374708
11,25,Jits_Pract_5,3,1,48,22,2817392500
11,25,Jits_Pract_5,0,1,48,18,2817766704
11,25,Jits_Pract_5,1,5,63,98,2817814980
11,25,Jits_Pract_5,2,5,80,127,2817894764
11,25,Jits_Pract_5,3,5,56,103,2817905108
11,25,Jits_Pract_5,0,1,48,18,2818305584
11,25,Jits_Pract_5,1,5,63,98,2818364872
11,25,Jits_Pract_5,2,5,56,103,2818404944
11,25,Jits_Pract_5,3,5,80,127,2818408012
11,25,Jits_Pract_5,0,1,48,15,2818818228
11,25,Jits_Pract_5,1,5,56,103,2818824700
11,25,Jits_Pract_5,2,5,63,98,2818834820
11,25,Jits_Pract_5,3,5,80,127,2818874832
11,25,Jits_Pract_5,0,5,56,103,2819315104
11,25,Jits_Pract_5,1,5,63,98,2819318096
11,25,Jits_Pract_5,2,5,80,127,2819334740
11,25,Jits_Pract_5,0,9999,9999,9999,9999,2812612672
11,25,Jits_Pract_5,1,9999,9999,9999,9999,2813112396
11,25,Jits_Pract_5,2,9999,9999,9999,9999,2813612144
11,25,Jits_Pract_5,3,9999,9999,9999,9999,2814112832
11,25,Jits_Pract_5,4,9999,9999,9999,9999,2814612560
11,25,Jits_Pract_5,5,9999,9999,9999,9999,2815112312
11,25,Jits_Pract_5,6,9999,9999,9999,9999,2815612988
11,25,Jits_Pract_5,7,9999,9999,9999,9999,2816112752
11,25,Jits_Pract_5,8,9999,9999,9999,9999,2816612424
11,25,Jits_Pract_5,9,9999,9999,9999,9999,2817112184
11,25,Jits_Pract_5,10,9999,9999,9999,9999,2817612896
11,25,Jits_Pract_5,11,9999,9999,9999,9999,2818112604
11,25,Jits_Pract_5,12,9999,9999,9999,9999,2818612292
11,25,Jits_Pract_5,13,9999,9999,9999,9999,2819113032
11,25,Jits_Pract_5,14,9999,9999,9999,9999,2819612724
12,24,Jits_Pract_8,0,5,56,103,2866746788
12,24,Jits_Pract_8,1,5,63,98,2866750112
12,24,Jits_Pract_8,2,5,80,127,2866753080
12,24,Jits_Pract_8,0,5,56,103,2867546732
12,24,Jits_Pract_8,1,5,63,98,2867549604
12,24,Jits_Pract_8,2,5,80,127,2867552800
12,24,Jits_Pract_8,0,5,80,127,2868286752
12,24,Jits_Pract_8,1,5,63,98,2868376884
12,24,Jits_Pract_8,2,5,56,103,2868387104
12,24,Jits_Pract_8,0,5,56,103,2869107084
12,24,Jits_Pract_8,1,5,63,98,2869117508
12,24,Jits_Pract_8,2,5,80,127,2869207436
12,24,Jits_Pract_8,3,1,48,32,2869208404
12,24,Jits_Pract_8,0,5,63,98,2869876964
12,24,Jits_Pract_8,1,1,48,43,2869880980
12,24,Jits_Pract_8,2,5,80,127,2869906784
12,24,Jits_Pract_8,3,5,56,103,2869936560
12,24,Jits_Pract_8,0,5,56,103,2870676792
12,24,Jits_Pract_8,1,1,48,39,2870688228
12,24,Jits_Pract_8,2,5,80,127,2870777132
12,24,Jits_Pract_8,3,5,63,98,2870827540
12,24,Jits_Pract_8,0,5,56,103,2871476588
12,24,Jits_Pract_8,1,5,80,127,2871526644
12,24,Jits_Pract_8,2,1,48,45,2871563616
12,24,Jits_Pract_8,3,5,63,98,2871566800
12,24,Jits_Pract_8,0,1,48,41,2872279396
12,24,Jits_Pract_8,1,5,80,127,2872306992
12,24,Jits_Pract_8,2,5,63,98,2872336820
12,24,Jits_Pract_8,3,5,56,103,2872407528
12,24,Jits_Pract_8,0,5,63,98,2873136428
12,24,Jits_Pract_8,1,1,48,40,2873165636
12,24,Jits_Pract_8,2,5,56,103,2873167368
12,24,Jits_Pract_8,3,5,80,127,2873226632
12,24,Jits_Pract_8,0,5,56,103,2873876768
12,24,Jits_Pract_8,1,5,80,127,2873879836
12,24,Jits_Pract_8,2,1,48,37,2873949784
12,24,Jits_Pract_8,3,5,63,98,2873996564
12,24,Jits_Pract_8,0,1,48,42,2874714860
12,24,Jits_Pract_8,1,5,56,103,2874756540
12,24,Jits_Pract_8,2,5,80,127,2874797328
12,24,Jits_Pract_8,3,5,63,98,2874806628
12,24,Jits_Pract_8,0,1,48,46,2875498288
12,24,Jits_Pract_8,1,5,56,103,2875517268
12,24,Jits_Pract_8,2,5,80,127,2875536756
12,24,Jits_Pract_8,3,5,63,98,2875616560
12,24,Jits_Pract_8,0,5,80,127,2876306772
12,24,Jits_Pract_8,1,1,48,35,2876344460
12,24,Jits_Pract_8,2,5,56,103,2876407260
12,24,Jits_Pract_8,3,5,63,98,2876417456
12,24,Jits_Pract_8,0,5,63,98,2877076952
12,24,Jits_Pract_8,1,5,80,127,2877137444
12,24,Jits_Pract_8,2,5,56,103,2877146444
12,24,Jits_Pract_8,3,1,48,42,2877216240
12,24,Jits_Pract_8,0,5,56,103,2877876508
12,24,Jits_Pract_8,1,5,63,98,2877947236
12,24,Jits_Pract_8,2,5,80,127,2877950524
12,24,Jits_Pract_8,3,1,48,43,2877953940
12,24,Jits_Pract_8,0,9999,9999,9999,9999,2867144820
12,24,Jits_Pract_8,1,9999,9999,9999,9999,2867944540
12,24,Jits_Pract_8,2,9999,9999,9999,9999,2868744272
12,24,Jits_Pract_8,3,9999,9999,9999,9999,2869545032
12,24,Jits_Pract_8,4,9999,9999,9999,9999,2870344800
12,24,Jits_Pract_8,5,9999,9999,9999,9999,2871144556
12,24,Jits_Pract_8,6,9999,9999,9999,9999,2871944252
12,24,Jits_Pract_8,7,9999,9999,9999,9999,2872745020
12,24,Jits_Pract_8,8,9999,9999,9999,9999,2873544780
12,24,Jits_Pract_8,9,9999,9999,9999,9999,2874344524
12,24,Jits_Pract_8,10,9999,9999,9999,9999,2875144300
12,24,Jits_Pract_8,11,9999,9999,9999,9999,2875945032
12,24,Jits_Pract_8,12,9999,9999,9999,9999,2876744796
12,24,Jits_Pract_8,13,9999,9999,9999,9999,2877544568
12,24,Jits_Pract_8,14,9999,9999,9999,9999,2878344308
13,25,Jits_Pract_5,0,5,56,103,2886955356
13,25,Jits_Pract_5,1,5,63,98,2886958452
13,25,Jits_Pract_5,2,5,80,127,2886961500
13,25,Jits_Pract_5,0,5,56,103,2887455008
13,25,Jits_Pract_5,1,5,63,98,2887458104
13,25,Jits_Pract_5,2,5,80,127,2887461300
13,25,Jits_Pract_5,0,5,56,103,2887954972
13,25,Jits_Pract_5,1,5,80,127,2887965096
13,25,Jits_Pract_5,2,5,63,98,2887984432
13,25,Jits_Pract_5,0,5,63,98,2888405420
13,25,Jits_Pract_5,1,5,80,127,2888434948
13,25,Jits_Pract_5,2,5,56,103,2888445440
13,25,Jits_Pract_5,0,1,48,29,2888953896
13,25,Jits_Pract_5,1,5,80,127,2888964404
13,25,Jits_Pract_5,2,5,56,103,2888974900
13,25,Jits_Pract_5,3,5,63,98,2889005400
13,25,Jits_Pract_5,0,5,63,98,2889455040
13,25,Jits_Pract_5,1,1,48,43,2889463260
13,25,Jits_Pract_5,2,5,56,103,2889484932
13,25,Jits_Pract_5,3,5,80,127,2889495204
13,25,Jits_Pract_5,0,5,56,103,2889904464
13,25,Jits_Pract_5,1,5,63,98,2889954664
13,25,Jits_Pract_5,2,1,48,30,2889960324
13,25,Jits_Pract_5,3,5,80,127,2889975192
13,25,Jits_Pract_5,0,5,80,127,2890405140
13,25,Jits_Pract_5,1,5,63,98,2890455268
13,25,Jits_Pract_5,2,1,48,36,2890463036
13,25,Jits_Pract_5,3,5,56,103,2890495348
13,25,Jits_Pract_5,0,5,56,103,2890904968
13,25,Jits_Pract_5,1,5,63,98,2890934744
13,25,Jits_Pract_5,2,1,48,35,2890957944
13,25,Jits_Pract_5,3,5,80,127,2891005244
13,25,Jits_Pract_5,0,5,56,103,2891404604
13,25,Jits_Pract_5,1,1,48,33,2891437120
13,25,Jits_Pract_5,2,5,80,127,2891465012
13,25,Jits_Pract_5,3,5,63,98,2891494912
13,25,Jits_Pract_5,0,5,56,103,2891914572
13,25,Jits_Pract_5,1,1,48,37,2891920760
13,25,Jits_Pract_5,2,5,63,98,2891924912
13,25,Jits_Pract_5,3,5,80,127,2891964724
13,25,Jits_Pract_5,0,5,63,98,2892415248
13,25,Jits_Pract_5,1,1,48,35,2892434180
13,25,Jits_Pract_5,2,5,80,127,2892495288
13,25,Jits_Pract_5,3,5,56,103,2892504584
13,25,Jits_Pract_5,0,1,48,43,2892926520
13,25,Jits_Pract_5,1,5,63,98,2892965156
13,25,Jits_Pract_5,2,5,56,103,2893005096
13,25,Jits_Pract_5,3,5,80,127,2893008164
13,25,Jits_Pract_5,0,5,56,103,2893425036
13,25,Jits_Pract_5,1,5,63,98,2893435452
13,25,Jits_Pract_5,2,1,48,37,2893463304
13,25,Jits_Pract_5,3,5,80,127,2893475040
13,25,Jits_Pract_5,0,5,56,103,2893914548
13,25,Jits_Pract_5,1,5,63,98,2893917760
13,25,Jits_Pract_5,2,5,80,127,2893935004
13,25,Jits_Pract_5,3,1,48,39,2893959620
13,25,Jits_Pract_5,0,9999,9999,9999,9999,2887202868
13,25,Jits_Pract_5,1,9999,9999,9999,9999,2887702592
13,25,Jits_Pract_5,2,9999,9999,9999,9999,2888202340
13,25,Jits_Pract_5,3,9999,9999,9999,9999,2888703052
13,25,Jits_Pract_5,4,9999,9999,9999,9999,2889202764
13,25,Jits_Pract_5,5,9999,9999,9999,9999,2889702460
13,25,Jits_Pract_5,6,9999,9999,9999,9999,2890202224
13,25,Jits_Pract_5,7,9999,9999,9999,9999,2890702904
13,25,Jits_Pract_5,8,9999,9999,9999,9999,2891202612
13,25,Jits_Pract_5,9,9999,9999,9999,9999,2891702388
13,25,Jits_Pract_5,10,9999,9999,9999,9999,2892203068
13,25,Jits_Pract_5,11,9999,9999,9999,9999,2892713036
13,25,Jits_Pract_5,12,9999,9999,9999,9999,2893212776
13,25,Jits_Pract_5,13,9999,9999,9999,9999,2893712460
13,25,Jits_Pract_5,14,9999,9999,9999,9999,2894212148
14,18,Jits_Linear_8,0,5,56,103,2925397296
14,18,Jits_Linear_8,1,5,63,98,2925400316
14,18,Jits_Linear_8,2,5,80,127,2925403516
14,18,Jits_Linear_8,0,5,56,103,2926216560
14,18,Jits_Linear_8,1,5,63,98,2926219656
14,18,Jits_Linear_8,2,5,80,127,2926223152
14,18,Jits_Linear_8,0,5,80,127,2926977472
14,18,Jits_Linear_8,1,5,63,98,2927066516
14,18,Jits_Linear_8,2,5,56,103,2927077008
14,18,Jits_Linear_8,0,5,56,103,2927817088
14,18,Jits_Linear_8,1,5,63,98,2927827284
14,18,Jits_Linear_8,2,5,80,127,2927917416
14,18,Jits_Linear_8,0,5,63,98,2928606552
14,18,Jits_Linear_8,1,5,80,127,2928637272
14,18,Jits_Linear_8,2,5,56,103,2928667100
14,18,Jits_Linear_8,3,1,48,54,2928672756
14,18,Jits_Linear_8,0,5,56,103,2929426900
14,18,Jits_Linear_8,1,1,48,52,2929435724
14,18,Jits_Linear_8,2,5,80,127,2929527148
14,18,Jits_Linear_8,3,5,63,98,2929577284
14,18,Jits_Linear_8,0,5,56,103,2930237016
14,18,Jits_Linear_8,1,1,48,49,2930285644
14,18,Jits_Linear_8,2,5,80,127,2930287288
14,18,Jits_Linear_8,3,5,63,98,2930327004
14,18,Jits_Linear_8,0,5,80,127,2931076420
14,18,Jits_Linear_8,1,1,48,49,2931081412
14,18,Jits_Linear_8,2,5,63,98,2931107312
14,18,Jits_Linear_8,3,5,56,103,2931176992
14,18,Jits_Linear_8,0,5,63,98,2931917048
14,18,Jits_Linear_8,1,1,48,46,2931926616
14,18,Jits_Linear_8,2,5,56,103,2931946792
14,18,Jits_Linear_8,3,5,80,127,2932007332
14,18,Jits_Linear_8,0,5,56,103,2932666756
14,18,Jits_Linear_8,1,5,80,127,2932669676
14,18,Jits_Linear_8,2,1,48,53,2932784112
14,18,Jits_Linear_8,3,5,63,98,2932786552
14,18,Jits_Linear_8,0,1,48,51,2933534732
14,18,Jits_Linear_8,1,5,56,103,2933547428
14,18,Jits_Linear_8,2,5,80,127,2933587296
14,18,Jits_Linear_8,3,5,63,98,2933596668
14,18,Jits_Linear_8,0,5,56,103,2934307040
14,18,Jits_Linear_8,1,1,48,46,2934325544
14,18,Jits_Linear_8,2,5,80,127,2934327420
14,18,Jits_Linear_8,3,5,63,98,2934406464
14,18,Jits_Linear_8,0,5,80,127,2935096848
14,18,Jits_Linear_8,1,1,48,47,2935124828
14,18,Jits_Linear_8,2,5,56,103,2935196944
14,18,Jits_Linear_8,3,5,63,98,2935207236
14,18,Jits_Linear_8,0,5,63,98,2935866948
14,18,Jits_Linear_8,1,1,48,56,2935911720
14,18,Jits_Linear_8,2,5,80,127,2935927112
14,18,Jits_Linear_8,3,5,56,103,2935937384
14,18,Jits_Linear_8,0,5,56,103,2936666628
14,18,Jits_Linear_8,1,1,48,52,2936675600
14,18,Jits_Linear_8,2,5,63,98,2936737076
14,18,Jits_Linear_8,3,5,80,127,2936740736
14,18,Jits_Linear_8,0,1,48,47,2937473904
14,18,Jits_Linear_8,1,5,63,98,2937496948
14,18,Jits_Linear_8,2,5,56,103,2937547100
14,18,Jits_Linear_8,3,5,80,127,2937550240
14,18,Jits_Linear_8,0,5,56,103,2938246648
14,18,Jits_Linear_8,1,5,80,127,2938249716
14,18,Jits_Linear_8,2,1,48,51,2938277220
14,18,Jits_Linear_8,3,5,63,98,2938336724
14,18,Jits_Linear_8,0,1,48,48,2939056888
14,18,Jits_Linear_8,1,5,63,98,2939076920
14,18,Jits_Linear_8,2,5,56,103,2939167040
14,18,Jits_Linear_8,3,5,80,127,2939196716
14,18,Jits_Linear_8,0,5,56,103,2939857128
14,18,Jits_Linear_8,1,1,48,55,2939910740
14,18,Jits_Linear_8,2,5,63,98,2939956772
14,18,Jits_Linear_8,3,5,80,127,2939987272
14,18,Jits_Linear_8,0,5,63,98,2940667244
14,18,Jits_Linear_8,1,1,48,36,2940672456
14,18,Jits_Linear_8,2,5,56,103,2940676612
14,18,Jits_Linear_8,3,5,80,127,2940766596
14,18,Jits_Linear_8,0,1,48,54,2941421408
14,18,Jits_Linear_8,1,5,63,98,2941467000
14,18,Jits_Linear_8,2,5,56,103,2941546856
14,18,Jits_Linear_8,3,5,80,127,2941549924
14,18,Jits_Linear_8,0,5,80,127,2942207492
14,18,Jits_Linear_8,1,5,63,98,2942226832
14,18,Jits_Linear_8,2,5,56,103,2942287148
14,18,Jits_Linear_8,3,1,48,55,2942356344
14,18,Jits_Linear_8,0,1,48,58,2943022432
14,18,Jits_Linear_8,1,5,56,103,2943026660
14,18,Jits_Linear_8,2,5,63,98,2943046892
14,18,Jits_Linear_8,3,5,80,127,2943050260
14,18,Jits_Linear_8,0,5,63,98,2943746692
14,18,Jits_Linear_8,1,1,48,54,2943823084
14,18,Jits_Linear_8,2,5,80,127,2943827608
14,18,Jits_Linear_8,3,5,56,103,2943836608
14,18,Jits_Linear_8,0,5,63,98,2944547128
14,18,Jits_Linear_8,1,1,48,58,2944557664
14,18,Jits_Linear_8,2,5,56,103,2944566608
14,18,Jits_Linear_8,3,5,80,127,2944616808
14,18,Jits_Linear_8,0,5,80,127,2945326648
14,18,Jits_Linear_8,1,1,48,50,2945337416
14,18,Jits_Linear_8,2,5,63,98,2945367556
14,18,Jits_Linear_8,3,5,56,103,2945386892
14,18,Jits_Linear_8,0,1,48,52,2946126836
14,18,Jits_Linear_8,1,5,56,103,2946136528
14,18,Jits_Linear_8,2,5,63,98,2946146724
14,18,Jits_Linear_8,3,5,80,127,2946167256
14,18,Jits_Linear_8,0,5,56,103,2946836940
14,18,Jits_Linear_8,1,1,48,52,2946863356
14,18,Jits_Linear_8,2,5,63,98,2946926920
14,18,Jits_Linear_8,3,5,80,127,2946987616
14,18,Jits_Linear_8,0,5,80,127,2947636488
14,18,Jits_Linear_8,1,5,56,103,2947646684
14,18,Jits_Linear_8,2,1,48,55,2947652416
14,18,Jits_Linear_8,3,5,63,98,2947716508
14,18,Jits_Linear_8,0,1,48,55,2948420408
14,18,Jits_Linear_8,1,5,63,98,2948437520
14,18,Jits_Linear_8,2,5,80,127,2948526620
14,18,Jits_Linear_8,3,5,56,103,2948536744
14,18,Jits_Linear_8,0,5,63,98,2949136748
14,18,Jits_Linear_8,1,5,80,127,2949186800
14,18,Jits_Linear_8,2,5,56,103,2949247564
14,18,Jits_Linear_8,3,1,48,46,2949252848
14,18,Jits_Linear_8,0,1,48,40,2949910832
14,18,Jits_Linear_8,1,5,56,103,2949927492
14,18,Jits_Linear_8,2,5,80,127,2949976428
14,18,Jits_Linear_8,3,5,63,98,2949996960
14,18,Jits_Linear_8,0,5,56,103,2950657352
14,18,Jits_Linear_8,1,1,48,51,2950678756
14,18,Jits_Linear_8,2,5,80,127,2950716840
14,18,Jits_Linear_8,3,5,63,98,2950786360
14,18,Jits_Linear_8,0,5,56,103,2951417484
14,18,Jits_Linear_8,1,5,80,127,2951447012
14,18,Jits_Linear_8,2,1,48,43,2951471404
14,18,Jits_Linear_8,3,5,63,98,2951476608
14,18,Jits_Linear_8,0,1,48,57,2952216276
14,18,Jits_Linear_8,1,5,56,103,2952217992
14,18,Jits_Linear_8,2,5,80,127,2952237480
14,18,Jits_Linear_8,3,5,63,98,2952296748
14,18,Jits_Linear_8,0,1,48,49,2952972312
14,18,Jits_Linear_8,1,5,80,127,2953056640
14,18,Jits_Linear_8,2,5,56,103,2953068016
14,18,Jits_Linear_8,3,5,63,98,2953077312
14,18,Jits_Linear_8,0,5,56,103,2953767396
14,18,Jits_Linear_8,1,1,48,46,2953803476
14,18,Jits_Linear_8,2,5,80,127,2953807256
14,18,Jits_Linear_8,3,5,63,98,2953836856
14,18,Jits_Linear_8,0,5,56,103,2954487300
14,18,Jits_Linear_8,1,5,63,98,2954517052
14,18,Jits_Linear_8,2,5,80,127,2954556768
14,18,Jits_Linear_8,3,1,48,48,2954586412
14,18,Jits_Linear_8,0,5,80,127,2955186452
14,18,Jits_Linear_8,1,5,63,98,2955236656
14,18,Jits_Linear_8,2,5,56,103,2955257412
14,18,Jits_Linear_8,3,1,48,55,2955268776
14,18,Jits_Linear_8,0,1,48,52,2955939804
14,18,Jits_Linear_8,1,5,56,103,2955966808
14,18,Jits_Linear_8,2,5,80,127,2956036552
14,18,Jits_Linear_8,3,5,63,98,2956096868
14,18,Jits_Linear_8,0,5,80,127,2956707312
14,18,Jits_Linear_8,1,1,48,47,2956752232
14,18,Jits_Linear_8,2,5,63,98,2956797440
14,18,Jits_Linear_8,3,5,56,103,2956816632
14,18,Jits_Linear_8,0,5,63,98,2957467352
14,18,Jits_Linear_8,1,5,56,103,2957486344
14,18,Jits_Linear_8,2,1,48,48,2957497704
14,18,Jits_Linear_8,3,5,80,127,2957527396
14,18,Jits_Linear_8,0,1,48,53,2958158660
14,18,Jits_Linear_8,1,5,80,127,2958167380
14,18,Jits_Linear_8,2,5,63,98,2958186940
14,18,Jits_Linear_8,3,5,56,103,2958266820
14,18,Jits_Linear_8,0,5,63,98,2958896484
14,18,Jits_Linear_8,1,1,48,54,2958913452
14,18,Jits_Linear_8,2,5,56,103,2959007240
14,18,Jits_Linear_8,3,5,80,127,2959011112
14,18,Jits_Linear_8,0,5,63,98,2959657272
14,18,Jits_Linear_8,1,5,56,103,2959666568
14,18,Jits_Linear_8,2,5,80,127,2959669632
14,18,Jits_Linear_8,3,1,48,57,2959689016
14,18,Jits_Linear_8,0,5,56,103,2960377068
14,18,Jits_Linear_8,1,1,48,50,2960449188
14,18,Jits_Linear_8,2,5,80,127,2960497092
14,18,Jits_Linear_8,3,5,63,98,2960537180
14,18,Jits_Linear_8,0,5,56,103,2961126724
14,18,Jits_Linear_8,1,5,80,127,2961206596
14,18,Jits_Linear_8,2,5,63,98,2961227280
14,18,Jits_Linear_8,3,1,48,50,2961230996
14,18,Jits_Linear_8,0,5,56,103,2961856816
14,18,Jits_Linear_8,1,1,48,57,2961923460
14,18,Jits_Linear_8,2,5,63,98,2961966500
14,18,Jits_Linear_8,3,5,80,127,2961969860
14,18,Jits_Linear_8,0,5,56,103,2962616800
14,18,Jits_Linear_8,1,5,80,127,2962647372
14,18,Jits_Linear_8,2,5,63,98,2962666860
14,18,Jits_Linear_8,3,1,48,43,2962688336
14,18,Jits_Linear_8,0,5,63,98,2963327236
14,18,Jits_Linear_8,1,5,56,103,2963336684
14,18,Jits_Linear_8,2,5,80,127,2963346732
14,18,Jits_Linear_8,3,1,48,43,2963466444
14,18,Jits_Linear_8,0,5,80,127,2964037232
14,18,Jits_Linear_8,1,5,56,103,2964087284
14,18,Jits_Linear_8,2,5,63,98,2964127176
14,18,Jits_Linear_8,3,1,48,49,2964144148
14,18,Jits_Linear_8,0,5,80,127,2964777216
14,18,Jits_Linear_8,1,5,63,98,2964797000
14,18,Jits_Linear_8,2,1,48,49,2964827844
14,18,Jits_Linear_8,3,5,56,103,2964847048
14,18,Jits_Linear_8,0,5,80,127,2965506412
14,18,Jits_Linear_8,1,5,56,103,2965537136
14,18,Jits_Linear_8,2,1,48,51,2965542792
14,18,Jits_Linear_8,3,5,63,98,2965606660
14,18,Jits_Linear_8,0,5,56,103,2966276512
14,18,Jits_Linear_8,1,5,80,127,2966286712
14,18,Jits_Linear_8,2,1,48,48,2966288272
14,18,Jits_Linear_8,3,5,63,98,2966326492
14,18,Jits_Linear_8,0,5,56,103,2966907384
14,18,Jits_Linear_8,1,5,63,98,2966926576
14,18,Jits_Linear_8,2,5,80,127,2966997256
14,18,Jits_Linear_8,3,1,48,40,2967045184
14,18,Jits_Linear_8,0,5,63,98,2967646472
14,18,Jits_Linear_8,1,1,48,49,2967689748
14,18,Jits_Linear_8,2,5,80,127,2967707156
14,18,Jits_Linear_8,3,5,56,103,2967726444
14,18,Jits_Linear_8,0,5,80,127,2968346956
14,18,Jits_Linear_8,1,5,56,103,2968376632
14,18,Jits_Linear_8,2,1,48,51,2968393080
14,18,Jits_Linear_8,3,5,63,98,2968407348
14,18,Jits_Linear_8,0,5,56,103,2969056596
14,18,Jits_Linear_8,1,1,48,52,2969109088
14,18,Jits_Linear_8,2,5,63,98,2969117280
14,18,Jits_Linear_8,3,5,80,127,2969176400
14,18,Jits_Linear_8,0,5,80,127,2969786844
14,18,Jits_Linear_8,1,5,56,103,2969807152
14,18,Jits_Linear_8,2,1,48,54,2969858816
14,18,Jits_Linear_8,3,5,63,98,2969877048
14,18,Jits_Linear_8,0,5,80,127,2970497356
14,18,Jits_Linear_8,1,5,63,98,2970516920
14,18,Jits_Linear_8,2,5,56,103,2970546472
14,18,Jits_Linear_8,3,1,48,53,2970592956
14,18,Jits_Linear_8,0,5,80,127,2971186540
14,18,Jits_Linear_8,1,5,63,98,2971207004
14,18,Jits_Linear_8,2,5,56,103,2971266344
14,18,Jits_Linear_8,3,1,48,49,2971335344
14,18,Jits_Linear_8,0,5,80,127,2971887116
14,18,Jits_Linear_8,1,5,56,103,2971987292
14,18,Jits_Linear_8,2,5,63,98,2972016896
14,18,Jits_Linear_8,3,1,48,49,2972059120
14,18,Jits_Linear_8,0,5,63,98,2972577132
14,18,Jits_Linear_8,1,5,80,127,2972627264
14,18,Jits_Linear_8,2,5,56,103,2972646900
14,18,Jits_Linear_8,3,1,48,40,2972754736
14,18,Jits_Linear_8,0,5,80,127,2973316328
14,18,Jits_Linear_8,1,5,56,103,2973347300
14,18,Jits_Linear_8,2,5,63,98,2973350364
14,18,Jits_Linear_8,3,1,48,48,2973396272
14,18,Jits_Linear_8,0,5,63,98,2974046568
14,18,Jits_Linear_8,1,5,56,103,2974086656
14,18,Jits_Linear_8,2,5,80,127,2974106964
14,18,Jits_Linear_8,3,1,48,45,2974110332
14,18,Jits_Linear_8,0,5,80,127,2974686520
14,18,Jits_Linear_8,1,1,48,36,2974739308
14,18,Jits_Linear_8,2,5,63,98,2974766312
14,18,Jits_Linear_8,3,5,56,103,2974807372
14,18,Jits_Linear_8,0,5,63,98,2975397216
14,18,Jits_Linear_8,1,1,48,45,2975441760
14,18,Jits_Linear_8,2,5,80,127,2975477156
14,18,Jits_Linear_8,3,5,56,103,2975496420
14,18,Jits_Linear_8,0,1,48,51,2976106192
14,18,Jits_Linear_8,1,5,56,103,2976127420
14,18,Jits_Linear_8,2,5,63,98,2976136568
14,18,Jits_Linear_8,3,5,80,127,2976176384
14,18,Jits_Linear_8,0,5,56,103,2976736736
14,18,Jits_Linear_8,1,5,80,127,2976739948
14,18,Jits_Linear_8,2,1,48,54,2976807284
14,18,Jits_Linear_8,3,5,63,98,2976876904
14,18,Jits_Linear_8,0,5,56,103,2977416672
14,18,Jits_Linear_8,1,1,48,51,2977489192
14,18,Jits_Linear_8,2,5,63,98,2977506752
14,18,Jits_Linear_8,3,5,80,127,2977577332
14,18,Jits_Linear_8,0,1,48,50,2978094524
14,18,Jits_Linear_8,1,5,63,98,2978186844
14,18,Jits_Linear_8,2,5,80,127,2978190060
14,18,Jits_Linear_8,3,5,56,103,2978247024
14,18,Jits_Linear_8,0,1,48,56,2978844980
14,18,Jits_Linear_8,1,5,80,127,2978906736
14,18,Jits_Linear_8,2,5,56,103,2978926896
14,18,Jits_Linear_8,3,5,63,98,2978937168
14,18,Jits_Linear_8,0,5,56,103,2979497548
14,18,Jits_Linear_8,1,5,63,98,2979506696
14,18,Jits_Linear_8,2,1,48,54,2979554388
14,18,Jits_Linear_8,3,5,80,127,2979577420
14,18,Jits_Linear_8,0,5,80,127,2980177196
14,18,Jits_Linear_8,1,1,48,56,2980205496
14,18,Jits_Linear_8,2,5,56,103,2980226272
14,18,Jits_Linear_8,3,5,63,98,2980276872
14,18,Jits_Linear_8,0,1,48,56,2980870324
14,18,Jits_Linear_8,1,5,56,103,2980937032
14,18,Jits_Linear_8,2,5,63,98,2980947304
14,18,Jits_Linear_8,3,5,80,127,2980987376
14,18,Jits_Linear_8,0,5,56,103,2981556696
14,18,Jits_Linear_8,1,1,48,48,2981596108
14,18,Jits_Linear_8,2,5,63,98,2981597748
14,18,Jits_Linear_8,3,5,80,127,2981646904
14,18,Jits_Linear_8,0,5,80,127,2982187420
14,18,Jits_Linear_8,1,1,48,54,2982232344
14,18,Jits_Linear_8,2,5,56,103,2982236644
14,18,Jits_Linear_8,3,5,63,98,2982256956
14,18,Jits_Linear_8,0,5,80,127,2982867392
14,18,Jits_Linear_8,1,1,48,54,2982926064
14,18,Jits_Linear_8,2,5,63,98,2982927852
14,18,Jits_Linear_8,3,5,56,103,2983006824
14,18,Jits_Linear_8,0,5,80,127,2983516776
14,18,Jits_Linear_8,1,5,56,103,2983556716
14,18,Jits_Linear_8,2,5,63,98,2983576804
14,18,Jits_Linear_8,3,1,48,51,2983617636
14,18,Jits_Linear_8,0,5,56,103,2984237504
14,18,Jits_Linear_8,1,5,80,127,2984247024
14,18,Jits_Linear_8,2,1,48,50,2984277124
14,18,Jits_Linear_8,3,5,63,98,2984286660
14,18,Jits_Linear_8,0,1,48,41,2984920360
14,18,Jits_Linear_8,1,5,56,103,2984966616
14,18,Jits_Linear_8,2,5,63,98,2985006556
14,18,Jits_Linear_8,3,5,80,127,2985009992
14,18,Jits_Linear_8,0,5,63,98,2985517392
14,18,Jits_Linear_8,1,5,80,127,2985557332
14,18,Jits_Linear_8,2,1,48,58,2985623076
14,18,Jits_Linear_8,3,5,56,103,2985626856
14,18,Jits_Linear_8,0,5,63,98,2986166752
14,18,Jits_Linear_8,1,5,56,103,2986246704
14,18,Jits_Linear_8,2,5,80,127,2986306944
14,18,Jits_Linear_8,3,1,48,56,2986309028
14,18,Jits_Linear_8,0,5,80,127,2986837544
14,18,Jits_Linear_8,1,1,48,54,2986885272
14,18,Jits_Linear_8,2,5,63,98,2986887068
14,18,Jits_Linear_8,3,5,56,103,2986917220
14,18,Jits_Linear_8,0,5,56,103,2987486576
14,18,Jits_Linear_8,1,5,63,98,2987536632
14,18,Jits_Linear_8,2,5,80,127,2987546976
14,18,Jits_Linear_8,3,1,48,55,2987550316
14,18,Jits_Linear_8,0,5,56,103,2988157228
14,18,Jits_Linear_8,1,1,48,54,2988231544
14,18,Jits_Linear_8,2,5,63,98,2988266940
14,18,Jits_Linear_8,3,5,80,127,2988287472
14,18,Jits_Linear_8,0,5,63,98,2988806492
14,18,Jits_Linear_8,1,5,80,127,2988856772
14,18,Jits_Linear_8,2,1,48,58,2988872096
14,18,Jits_Linear_8,3,5,56,103,2988946896
14,18,Jits_Linear_8,0,5,63,98,2989446640
14,18,Jits_Linear_8,1,5,80,127,2989477164
14,18,Jits_Linear_8,2,1,48,60,2989518420
14,18,Jits_Linear_8,3,5,56,103,2989567516
14,18,Jits_Linear_8,0,5,63,98,2990096628
14,18,Jits_Linear_8,1,5,56,103,2990106972
14,18,Jits_Linear_8,2,1,48,58,2990147704
14,18,Jits_Linear_8,3,5,80,127,2990207436
14,18,Jits_Linear_8,0,1,48,56,2990805104
14,18,Jits_Linear_8,1,5,63,98,2990847452
14,18,Jits_Linear_8,2,5,80,127,2990876980
14,18,Jits_Linear_8,3,5,56,103,2990906792
14,18,Jits_Linear_8,0,1,48,44,2991436344
14,18,Jits_Linear_8,1,5,80,127,2991506872
14,18,Jits_Linear_8,2,5,63,98,2991517096
14,18,Jits_Linear_8,3,5,56,103,2991546828
14,18,Jits_Linear_8,0,5,80,127,2992046668
14,18,Jits_Linear_8,1,5,63,98,2992066904
14,18,Jits_Linear_8,2,5,56,103,2992117180
14,18,Jits_Linear_8,3,1,48,59,2992152808
14,18,Jits_Linear_8,0,5,63,98,2992717320
14,18,Jits_Linear_8,1,5,80,127,2992776520
14,18,Jits_Linear_8,2,5,56,103,2992797000
14,18,Jits_Linear_8,3,1,48,54,2992816004
14,18,Jits_Linear_8,0,5,63,98,2993317412
14,18,Jits_Linear_8,1,5,56,103,2993367320
14,18,Jits_Linear_8,2,5,80,127,2993376768
14,18,Jits_Linear_8,3,1,48,50,2993440188
14,18,Jits_Linear_8,0,5,56,103,2993987008
14,18,Jits_Linear_8,1,5,80,127,2993997280
14,18,Jits_Linear_8,2,1,48,55,2994067228
14,18,Jits_Linear_8,3,5,63,98,2994096420
14,18,Jits_Linear_8,0,5,80,127,2994587116
14,18,Jits_Linear_8,1,5,63,98,2994597240
14,18,Jits_Linear_8,2,1,48,47,2994716408
14,18,Jits_Linear_8,3,5,56,103,2994746700
14,18,Jits_Linear_8,0,5,63,98,2995227132
14,18,Jits_Linear_8,1,5,80,127,2995266924
14,18,Jits_Linear_8,2,1,48,52,2995335528
14,18,Jits_Linear_8,3,5,56,103,2995346712
14,18,Jits_Linear_8,0,5,56,103,2995846596
14,18,Jits_Linear_8,1,5,80,127,2995946800
14,18,Jits_Linear_8,2,1,48,50,2995949916
14,18,Jits_Linear_8,3,5,63,98,2995967472
14,18,Jits_Linear_8,0,5,80,127,2996536688
14,18,Jits_Linear_8,1,5,56,103,2996547036
14,18,Jits_Linear_8,2,1,48,47,2996574512
14,18,Jits_Linear_8,3,5,63,98,2996637332
14,18,Jits_Linear_8,0,5,56,103,2997166544
14,18,Jits_Linear_8,1,5,63,98,2997186932
14,18,Jits_Linear_8,2,1,48,55,2997250360
14,18,Jits_Linear_8,3,5,80,127,2997266796
14,18,Jits_Linear_8,0,5,63,98,2997736816
14,18,Jits_Linear_8,1,5,56,103,2997826796
14,18,Jits_Linear_8,2,5,80,127,2997829944
14,18,Jits_Linear_8,3,1,48,53,2997843176
14,18,Jits_Linear_8,0,5,56,103,2998387148
14,18,Jits_Linear_8,1,5,80,127,2998446444
14,18,Jits_Linear_8,2,5,63,98,2998456640
14,18,Jits_Linear_8,3,1,48,59,2998479164
14,18,Jits_Linear_8,0,5,80,127,2999056716
14,18,Jits_Linear_8,1,5,56,103,2999067284
14,18,Jits_Linear_8,2,5,63,98,2999070348
14,18,Jits_Linear_8,3,1,48,55,2999088388
14,18,Jits_Linear_8,0,5,56,103,2999637384
14,18,Jits_Linear_8,1,5,80,127,2999646536
14,18,Jits_Linear_8,2,5,63,98,2999666992
14,18,Jits_Linear_8,3,1,48,52,2999705852
14,18,Jits_Linear_8,0,5,63,98,3000227300
14,18,Jits_Linear_8,1,1,48,53,3000253716
14,18,Jits_Linear_8,2,5,80,127,3000286564
14,18,Jits_Linear_8,3,5,56,103,3000336768
14,18,Jits_Linear_8,0,1,48,59,3000797372
14,18,Jits_Linear_8,1,5,63,98,3000926476
14,18,Jits_Linear_8,2,5,56,103,3000936672
14,18,Jits_Linear_8,3,5,80,127,3000986900
14,18,Jits_Linear_8,0,5,63,98,3001436516
14,18,Jits_Linear_8,1,1,48,61,3001441652
14,18,Jits_Linear_8,2,5,80,127,3001457044
14,18,Jits_Linear_8,3,5,56,103,3001467316
14,18,Jits_Linear_8,0,1,48,47,3002038444
14,18,Jits_Linear_8,1,5,63,98,3002046784
14,18,Jits_Linear_8,2,5,80,127,3002050224
14,18,Jits_Linear_8,3,5,56,103,3002086796
14,18,Jits_Linear_8,0,1,48,51,3002627780
14,18,Jits_Linear_8,1,5,63,98,3002727516
14,18,Jits_Linear_8,2,5,80,127,3002756444
14,18,Jits_Linear_8,3,5,56,103,3002766640
14,18,Jits_Linear_8,0,1,48,56,3003284732
14,18,Jits_Linear_8,1,5,56,103,3003286844
14,18,Jits_Linear_8,2,5,80,127,3003316472
14,18,Jits_Linear_8,3,5,63,98,3003347416
14,18,Jits_Linear_8,0,1,48,62,3003910360
14,18,Jits_Linear_8,1,5,63,98,3003987260
14,18,Jits_Linear_8,2,5,56,103,3004027332
14,18,Jits_Linear_8,3,5,80,127,3004030400
14,18,Jits_Linear_8,0,5,80,127,3004487240
14,18,Jits_Linear_8,1,5,56,103,3004567112
14,18,Jits_Linear_8,2,1,48,57,3004605176
14,18,Jits_Linear_8,3,5,63,98,3004617260
14,18,Jits_Linear_8,0,5,80,127,3005066504
14,18,Jits_Linear_8,1,5,56,103,3005087284
14,18,Jits_Linear_8,2,5,63,98,3005177344
14,18,Jits_Linear_8,3,1,48,45,3005213944
14,18,Jits_Linear_8,0,5,80,127,3005706764
14,18,Jits_Linear_8,1,5,63,98,3005746556
14,18,Jits_Linear_8,2,5,56,103,3005786496
14,18,Jits_Linear_8,3,1,48,49,3005812832
14,18,Jits_Linear_8,0,5,63,98,3006277180
14,18,Jits_Linear_8,1,5,80,127,3006337348
14,18,Jits_Linear_8,2,5,56,103,3006367344
14,18,Jits_Linear_8,3,1,48,57,3006398864
14,18,Jits_Linear_8,0,5,56,103,3006877124
14,18,Jits_Linear_8,1,5,80,127,3006906728
14,18,Jits_Linear_8,2,1,48,53,3006946564
14,18,Jits_Linear_8,3,5,63,98,3006996856
14,18,Jits_Linear_8,0,5,56,103,3007477136
14,18,Jits_Linear_8,1,1,48,54,3007563184
14,18,Jits_Linear_8,2,5,80,127,3007586672
14,18,Jits_Linear_8,3,5,63,98,3007617468
14,18,Jits_Linear_8,0,5,56,103,3008117164
14,18,Jits_Linear_8,1,1,48,53,3008171324
14,18,Jits_Linear_8,2,5,63,98,3008176528
14,18,Jits_Linear_8,3,5,80,127,3008207324
14,18,Jits_Linear_8,0,5,56,103,3008677272
14,18,Jits_Linear_8,1,5,63,98,3008746956
14,18,Jits_Linear_8,2,5,80,127,3008767264
14,18,Jits_Linear_8,3,1,48,57,3008802968
14,18,Jits_Linear_8,0,5,80,127,3009237348
14,18,Jits_Linear_8,1,5,63,98,3009257060
14,18,Jits_Linear_8,2,5,56,103,3009307112
14,18,Jits_Linear_8,3,1,48,54,3009403788
14,18,Jits_Linear_8,0,5,63,98,3009837356
14,18,Jits_Linear_8,1,5,80,127,3009846584
14,18,Jits_Linear_8,2,5,56,103,3009897004
14,18,Jits_Linear_8,3,1,48,57,3010009304
14,18,Jits_Linear_8,0,5,63,98,3010417124
14,18,Jits_Linear_8,1,5,80,127,3010486608
14,18,Jits_Linear_8,2,5,56,103,3010507216
14,18,Jits_Linear_8,3,1,48,51,3010579708
14,18,Jits_Linear_8,0,5,63,98,3011027260
14,18,Jits_Linear_8,1,5,80,127,3011030548
14,18,Jits_Linear_8,2,5,56,103,3011097164
14,18,Jits_Linear_8,3,1,48,51,3011174756
14,18,Jits_Linear_8,0,5,80,127,3011556820
14,18,Jits_Linear_8,1,5,56,103,3011577280
14,18,Jits_Linear_8,2,5,63,98,3011586356
14,18,Jits_Linear_8,3,1,48,52,3011721244
14,18,Jits_Linear_8,0,5,56,103,3012156896
14,18,Jits_Linear_8,1,5,63,98,3012247108
14,18,Jits_Linear_8,2,5,80,127,3012250396
14,18,Jits_Linear_8,3,1,48,51,3012309336
14,18,Jits_Linear_8,0,5,80,127,3012706980
14,18,Jits_Linear_8,1,5,56,103,3012717324
14,18,Jits_Linear_8,2,5,63,98,3012737340
14,18,Jits_Linear_8,3,1,48,53,3012878404
14,18,Jits_Linear_8,0,5,63,98,3013277116
14,18,Jits_Linear_8,1,5,80,127,3013336536
14,18,Jits_Linear_8,2,5,56,103,3013346956
14,18,Jits_Linear_8,3,1,48,44,3013462816
14,18,Jits_Linear_8,0,5,63,98,3013917120
14,18,Jits_Linear_8,1,5,80,127,3013946944
14,18,Jits_Linear_8,2,5,56,103,3013986960
14,18,Jits_Linear_8,3,1,48,44,3014027320
14,18,Jits_Linear_8,0,5,56,103,3014477192
14,18,Jits_Linear_8,1,5,80,127,3014487388
14,18,Jits_Linear_8,2,5,63,98,3014527328
14,18,Jits_Linear_8,3,1,48,46,3014680748
14,18,Jits_Linear_8,0,5,80,127,3015006556
14,18,Jits_Linear_8,1,5,56,103,3015086308
14,18,Jits_Linear_8,2,5,63,98,3015096876
14,18,Jits_Linear_8,3,1,48,47,3015334712
14,18,Jits_Linear_8,0,5,80,127,3015616936
14,18,Jits_Linear_8,1,5,56,103,3015696880
14,18,Jits_Linear_8,2,5,63,98,3015707076
14,18,Jits_Linear_8,0,1,48,45,3016017188
14,18,Jits_Linear_8,1,5,80,127,3016137024
14,18,Jits_Linear_8,2,5,56,103,3016187152
14,18,Jits_Linear_8,3,5,63,98,3016237352
14,18,Jits_Linear_8,0,1,48,32,3016620424
14,18,Jits_Linear_8,1,5,56,103,3016756872
14,18,Jits_Linear_8,2,5,63,98,3016759936
14,18,Jits_Linear_8,3,5,80,127,3016807000
14,18,Jits_Linear_8,0,1,48,45,3017152980
14,18,Jits_Linear_8,1,5,56,103,3017337236
14,18,Jits_Linear_8,2,5,63,98,3017366988
14,18,Jits_Linear_8,3,5,80,127,3017377112
14,18,Jits_Linear_8,0,5,63,98,3017807248
14,18,Jits_Linear_8,1,1,48,49,3017836444
14,18,Jits_Linear_8,2,5,56,103,3017876776
14,18,Jits_Linear_8,3,5,80,127,3017927004
14,18,Jits_Linear_8,0,5,63,98,3018397012
14,18,Jits_Linear_8,1,5,56,103,3018407124
14,18,Jits_Linear_8,2,5,80,127,3018410196
14,18,Jits_Linear_8,3,1,48,43,3018421336
14,18,Jits_Linear_8,0,5,80,127,3018896948
14,18,Jits_Linear_8,1,5,56,103,3018957068
14,18,Jits_Linear_8,2,1,48,48,3019022812
14,18,Jits_Linear_8,3,5,63,98,3019047196
14,18,Jits_Linear_8,0,5,80,127,3019446788
14,18,Jits_Linear_8,1,5,56,103,3019546968
14,18,Jits_Linear_8,2,5,63,98,3019586904
14,18,Jits_Linear_8,3,1,48,53,3019676132
14,18,Jits_Linear_8,0,5,56,103,3020046808
14,18,Jits_Linear_8,1,5,63,98,3020067120
14,18,Jits_Linear_8,2,5,80,127,3020107132
14,18,Jits_Linear_8,3,1,48,47,3020234248
14,18,Jits_Linear_8,0,5,63,98,3020566876
14,18,Jits_Linear_8,1,5,56,103,3020587336
14,18,Jits_Linear_8,2,5,80,127,3020686760
14,18,Jits_Linear_8,3,1,48,49,3020704204
14,18,Jits_Linear_8,0,5,63,98,3021097344
14,18,Jits_Linear_8,1,5,80,127,3021206964
14,18,Jits_Linear_8,2,1,48,51,3021209808
14,18,Jits_Linear_8,3,5,56,103,3021236804
14,18,Jits_Linear_8,0,5,56,103,3021656516
14,18,Jits_Linear_8,1,5,63,98,3021687092
14,18,Jits_Linear_8,2,5,80,127,3021737464
14,18,Jits_Linear_8,3,1,48,52,3021747408
14,18,Jits_Linear_8,0,5,63,98,3022167284
14,18,Jits_Linear_8,1,5,56,103,3022197036
14,18,Jits_Linear_8,2,1,48,41,3022240408
14,18,Jits_Linear_8,3,5,80,127,3022247256
14,18,Jits_Linear_8,0,5,56,103,3022736932
14,18,Jits_Linear_8,1,1,48,40,3022750708
14,18,Jits_Linear_8,2,5,63,98,3022757260
14,18,Jits_Linear_8,3,5,80,127,3022836980
14,18,Jits_Linear_8,0,5,63,98,3023246664
14,18,Jits_Linear_8,1,1,48,48,3023275140
14,18,Jits_Linear_8,2,5,56,103,3023307000
14,18,Jits_Linear_8,3,5,80,127,3023336896
14,18,Jits_Linear_8,0,1,48,50,3023792844
14,18,Jits_Linear_8,1,5,56,103,3023827344
14,18,Jits_Linear_8,2,5,80,127,3023886600
14,18,Jits_Linear_8,3,5,63,98,3023926688
14,18,Jits_Linear_8,0,5,63,98,3024337368
14,18,Jits_Linear_8,1,5,56,103,3024396864
14,18,Jits_Linear_8,2,1,48,50,3024421408
14,18,Jits_Linear_8,3,5,80,127,3024467288
14,18,Jits_Linear_8,0,1,48,47,3024934480
14,18,Jits_Linear_8,1,5,56,103,3024946732
14,18,Jits_Linear_8,2,5,63,98,3024956776
14,18,Jits_Linear_8,3,5,80,127,3024960140
14,18,Jits_Linear_8,0,5,63,98,3025416664
14,18,Jits_Linear_8,1,1,48,46,3025424516
14,18,Jits_Linear_8,2,5,56,103,3025476900
14,18,Jits_Linear_8,3,5,80,127,3025479892
14,18,Jits_Linear_8,0,1,48,45,3025908884
14,18,Jits_Linear_8,1,5,63,98,3025926664
14,18,Jits_Linear_8,2,5,80,127,3025957164
14,18,Jits_Linear_8,3,5,56,103,3025976652
14,18,Jits_Linear_8,0,1,48,44,3026401732
14,18,Jits_Linear_8,1,5,56,103,3026456836
14,18,Jits_Linear_8,2,5,63,98,3026507100
14,18,Jits_Linear_8,3,5,80,127,3026586992
14,18,Jits_Linear_8,0,5,80,127,3026956596
14,18,Jits_Linear_8,1,1,48,41,3026958608
14,18,Jits_Linear_8,2,5,63,98,3026996680
14,18,Jits_Linear_8,3,5,56,103,3027016988
14,18,Jits_Linear_8,0,1,48,47,3027543380
14,18,Jits_Linear_8,1,5,56,103,3027546856
14,18,Jits_Linear_8,2,5,80,127,3027556684
14,18,Jits_Linear_8,3,5,63,98,3027577216
14,18,Jits_Linear_8,0,5,56,103,3028047148
14,18,Jits_Linear_8,1,5,63,98,3028097352
14,18,Jits_Linear_8,2,5,80,127,3028126976
14,18,Jits_Linear_8,3,1,48,43,3028141704
14,18,Jits_Linear_8,0,5,56,103,3028517324
14,18,Jits_Linear_8,1,5,63,98,3028526548
14,18,Jits_Linear_8,2,5,80,127,3028576524
14,18,Jits_Linear_8,3,1,48,51,3028653824
14,18,Jits_Linear_8,0,5,56,103,3029027044
14,18,Jits_Linear_8,1,5,80,127,3029030188
14,18,Jits_Linear_8,2,1,48,47,3029105916
14,18,Jits_Linear_8,3,5,63,98,3029186872
14,18,Jits_Linear_8,0,5,63,98,3029556552
14,18,Jits_Linear_8,1,5,56,103,3029627284
14,18,Jits_Linear_8,2,1,48,48,3029646216
14,18,Jits_Linear_8,3,5,80,127,3029667164
14,18,Jits_Linear_8,0,5,63,98,3030106656
14,18,Jits_Linear_8,1,1,48,45,3030143260
14,18,Jits_Linear_8,2,5,56,103,3030196504
14,18,Jits_Linear_8,3,5,80,127,3030199648
14,18,Jits_Linear_8,0,5,56,103,3030596968
14,18,Jits_Linear_8,1,5,63,98,3030686980
14,18,Jits_Linear_8,2,5,80,127,3030697472
14,18,Jits_Linear_8,3,1,48,50,3030719696
14,18,Jits_Linear_8,0,5,56,103,3031077332
14,18,Jits_Linear_8,1,5,63,98,3031127612
14,18,Jits_Linear_8,2,5,80,127,3031156992
14,18,Jits_Linear_8,3,1,48,44,3031283064
14,18,Jits_Linear_8,0,5,63,98,3031656748
14,18,Jits_Linear_8,1,5,80,127,3031667092
14,18,Jits_Linear_8,2,5,56,103,3031726536
14,18,Jits_Linear_8,3,1,48,47,3031785172
14,18,Jits_Linear_8,0,5,63,98,3032076784
14,18,Jits_Linear_8,1,5,80,127,3032137104
14,18,Jits_Linear_8,2,5,56,103,3032176968
14,18,Jits_Linear_8,3,1,48,50,3032336536
14,18,Jits_Linear_8,0,5,56,103,3032676636
14,18,Jits_Linear_8,1,5,80,127,3032697396
14,18,Jits_Linear_8,2,5,63,98,3032716584
14,18,Jits_Linear_8,3,1,48,46,3032891196
14,18,Jits_Linear_8,0,5,63,98,3033096620
14,18,Jits_Linear_8,1,5,56,103,3033117004
14,18,Jits_Linear_8,2,5,80,127,3033157020
14,18,Jits_Linear_8,3,1,48,43,3033287592
14,18,Jits_Linear_8,0,5,63,98,3033606488
14,18,Jits_Linear_8,1,5,80,127,3033637436
14,18,Jits_Linear_8,2,5,56,103,3033656624
14,18,Jits_Linear_8,3,1,48,49,3033728960
14,18,Jits_Linear_8,0,5,80,127,3034076640
14,18,Jits_Linear_8,1,5,56,103,3034126768
14,18,Jits_Linear_8,2,5,63,98,3034187384
14,18,Jits_Linear_8,3,1,48,37,3034267468
14,18,Jits_Linear_8,0,5,63,98,3034556780
14,18,Jits_Linear_8,1,5,56,103,3034676736
14,18,Jits_Linear_8,2,5,80,127,3034707456
14,18,Jits_Linear_8,3,1,48,45,3034710648
14,18,Jits_Linear_8,0,5,80,127,3035087332
14,18,Jits_Linear_8,1,5,63,98,3035106672
14,18,Jits_Linear_8,2,1,48,41,3035147480
14,18,Jits_Linear_8,3,5,56,103,3035177540
14,18,Jits_Linear_8,0,5,63,98,3035597144
14,18,Jits_Linear_8,1,5,56,103,3035607416
14,18,Jits_Linear_8,2,1,48,48,3035649492
14,18,Jits_Linear_8,3,5,80,127,3035687276
14,18,Jits_Linear_8,0,5,56,103,3036147104
14,18,Jits_Linear_8,1,1,48,47,3036173288
14,18,Jits_Linear_8,2,5,80,127,3036176700
14,18,Jits_Linear_8,3,5,63,98,3036186968
14,18,Jits_Linear_8,0,9999,9999,9999,9999,2925804632
14,18,Jits_Linear_8,1,9999,9999,9999,9999,2926624868
14,18,Jits_Linear_8,2,9999,9999,9999,9999,2927445052
14,18,Jits_Linear_8,3,9999,9999,9999,9999,2928264260
14,18,Jits_Linear_8,4,9999,9999,9999,9999,2929084512
14,18,Jits_Linear_8,5,9999,9999,9999,9999,2929894460
14,18,Jits_Linear_8,6,9999,9999,9999,9999,2930704496
14,18,Jits_Linear_8,7,9999,9999,9999,9999,2931514456
14,18,Jits_Linear_8,8,9999,9999,9999,9999,2932324420
14,18,Jits_Linear_8,9,9999,9999,9999,9999,2933134428
14,18,Jits_Linear_8,10,9999,9999,9999,9999,2933934156
14,18,Jits_Linear_8,11,9999,9999,9999,9999,2934734960
14,18,Jits_Linear_8,12,9999,9999,9999,9999,2935534660
14,18,Jits_Linear_8,13,9999,9999,9999,9999,2936334428
14,18,Jits_Linear_8,14,9999,9999,9999,9999,2937134172
14,18,Jits_Linear_8,15,9999,9999,9999,9999,2937924716
14,18,Jits_Linear_8,16,9999,9999,9999,9999,2938714192
14,18,Jits_Linear_8,17,9999,9999,9999,9999,2939504752
14,18,Jits_Linear_8,18,9999,9999,9999,9999,2940294248
14,18,Jits_Linear_8,19,9999,9999,9999,9999,2941084728
14,18,Jits_Linear_8,20,9999,9999,9999,9999,2941865028
14,18,Jits_Linear_8,21,9999,9999,9999,9999,2942644328
14,18,Jits_Linear_8,22,9999,9999,9999,9999,2943424612
14,18,Jits_Linear_8,23,9999,9999,9999,9999,2944204888
14,18,Jits_Linear_8,24,9999,9999,9999,9999,2944984184
14,18,Jits_Linear_8,25,9999,9999,9999,9999,2945754196
14,18,Jits_Linear_8,26,9999,9999,9999,9999,2946524224
14,18,Jits_Linear_8,27,9999,9999,9999,9999,2947294312
14,18,Jits_Linear_8,28,9999,9999,9999,9999,2948064336
14,18,Jits_Linear_8,29,9999,9999,9999,9999,2948834368
14,18,Jits_Linear_8,30,9999,9999,9999,9999,2949594188
14,18,Jits_Linear_8,31,9999,9999,9999,9999,2950355048
14,18,Jits_Linear_8,32,9999,9999,9999,9999,2951114872
14,18,Jits_Linear_8,33,9999,9999,9999,9999,2951874624
14,18,Jits_Linear_8,34,9999,9999,9999,9999,2952634460
14,18,Jits_Linear_8,35,9999,9999,9999,9999,2953385076
14,18,Jits_Linear_8,36,9999,9999,9999,9999,2954134616
14,18,Jits_Linear_8,37,9999,9999,9999,9999,2954884184
14,18,Jits_Linear_8,38,9999,9999,9999,9999,2955634800
14,18,Jits_Linear_8,39,9999,9999,9999,9999,2956384376
14,18,Jits_Linear_8,40,9999,9999,9999,9999,2957124724
14,18,Jits_Linear_8,41,9999,9999,9999,9999,2957865080
14,18,Jits_Linear_8,42,9999,9999,9999,9999,2958604372
14,18,Jits_Linear_8,43,9999,9999,9999,9999,2959344704
14,18,Jits_Linear_8,44,9999,9999,9999,9999,2960085104
14,18,Jits_Linear_8,45,9999,9999,9999,9999,2960814140
14,18,Jits_Linear_8,46,9999,9999,9999,9999,2961544288
14,18,Jits_Linear_8,47,9999,9999,9999,9999,2962274372
14,18,Jits_Linear_8,48,9999,9999,9999,9999,2963004540
14,18,Jits_Linear_8,49,9999,9999,9999,9999,2963734628
14,18,Jits_Linear_8,50,9999,9999,9999,9999,2964454516
14,18,Jits_Linear_8,51,9999,9999,9999,9999,2965174348
14,18,Jits_Linear_8,52,9999,9999,9999,9999,2965894228
14,18,Jits_Linear_8,53,9999,9999,9999,9999,2966614136
14,18,Jits_Linear_8,54,9999,9999,9999,9999,2967335012
14,18,Jits_Linear_8,55,9999,9999,9999,9999,2968044652
14,18,Jits_Linear_8,56,9999,9999,9999,9999,2968754276
14,18,Jits_Linear_8,57,9999,9999,9999,9999,2969464944
14,18,Jits_Linear_8,58,9999,9999,9999,9999,2970174584
14,18,Jits_Linear_8,59,9999,9999,9999,9999,2970884224
14,18,Jits_Linear_8,60,9999,9999,9999,9999,2971584572
14,18,Jits_Linear_8,61,9999,9999,9999,9999,2972285052
14,18,Jits_Linear_8,62,9999,9999,9999,9999,2972984428
14,18,Jits_Linear_8,63,9999,9999,9999,9999,2973684832
14,18,Jits_Linear_8,64,9999,9999,9999,9999,2974384216
14,18,Jits_Linear_8,65,9999,9999,9999,9999,2975074420
14,18,Jits_Linear_8,66,9999,9999,9999,9999,2975764584
14,18,Jits_Linear_8,67,9999,9999,9999,9999,2976454736
14,18,Jits_Linear_8,68,9999,9999,9999,9999,2977144924
14,18,Jits_Linear_8,69,9999,9999,9999,9999,2977835084
14,18,Jits_Linear_8,70,9999,9999,9999,9999,2978524272
14,18,Jits_Linear_8,71,9999,9999,9999,9999,2979204216
14,18,Jits_Linear_8,72,9999,9999,9999,9999,2979884096
14,18,Jits_Linear_8,73,9999,9999,9999,9999,2980565116
14,18,Jits_Linear_8,74,9999,9999,9999,9999,2981245000
14,18,Jits_Linear_8,75,9999,9999,9999,9999,2981914696
14,18,Jits_Linear_8,76,9999,9999,9999,9999,2982584404
14,18,Jits_Linear_8,77,9999,9999,9999,9999,2983254092
14,18,Jits_Linear_8,78,9999,9999,9999,9999,2983924844
14,18,Jits_Linear_8,79,9999,9999,9999,9999,2984594532
14,18,Jits_Linear_8,80,9999,9999,9999,9999,2985255020
14,18,Jits_Linear_8,81,9999,9999,9999,9999,2985914424
14,18,Jits_Linear_8,82,9999,9999,9999,9999,2986574956
14,18,Jits_Linear_8,83,9999,9999,9999,9999,2987234380
14,18,Jits_Linear_8,84,9999,9999,9999,9999,2987894844
14,18,Jits_Linear_8,85,9999,9999,9999,9999,2988544108
14,18,Jits_Linear_8,86,9999,9999,9999,9999,2989194316
14,18,Jits_Linear_8,87,9999,9999,9999,9999,2989844600
14,18,Jits_Linear_8,88,9999,9999,9999,9999,2990494808
14,18,Jits_Linear_8,89,9999,9999,9999,9999,2991145084
14,18,Jits_Linear_8,90,9999,9999,9999,9999,2991785044
14,18,Jits_Linear_8,91,9999,9999,9999,9999,2992425044
14,18,Jits_Linear_8,92,9999,9999,9999,9999,2993065088
14,18,Jits_Linear_8,93,9999,9999,9999,9999,2993705084
14,18,Jits_Linear_8,94,9999,9999,9999,9999,2994345036
14,18,Jits_Linear_8,95,9999,9999,9999,9999,2994974788
14,18,Jits_Linear_8,96,9999,9999,9999,9999,2995604540
14,18,Jits_Linear_8,97,9999,9999,9999,9999,2996234296
14,18,Jits_Linear_8,98,9999,9999,9999,9999,2996864128
14,18,Jits_Linear_8,99,9999,9999,9999,9999,2997494884
14,18,Jits_Linear_8,100,9999,9999,9999,9999,2998114368
14,18,Jits_Linear_8,101,9999,9999,9999,9999,2998734916
14,18,Jits_Linear_8,102,9999,9999,9999,9999,2999354476
14,18,Jits_Linear_8,103,9999,9999,9999,9999,2999975032
14,18,Jits_Linear_8,104,9999,9999,9999,9999,3000594520
14,18,Jits_Linear_8,105,9999,9999,9999,9999,3001204864
14,18,Jits_Linear_8,106,9999,9999,9999,9999,3001814092
14,18,Jits_Linear_8,107,9999,9999,9999,9999,3002424408
14,18,Jits_Linear_8,108,9999,9999,9999,9999,3003034696
14,18,Jits_Linear_8,109,9999,9999,9999,9999,3003645028
14,18,Jits_Linear_8,110,9999,9999,9999,9999,3004245100
14,18,Jits_Linear_8,111,9999,9999,9999,9999,3004844152
14,18,Jits_Linear_8,112,9999,9999,9999,9999,3005444156
14,18,Jits_Linear_8,113,9999,9999,9999,9999,3006044244
14,18,Jits_Linear_8,114,9999,9999,9999,9999,3006644352
14,18,Jits_Linear_8,115,9999,9999,9999,9999,3007234160
14,18,Jits_Linear_8,116,9999,9999,9999,9999,3007824956
14,18,Jits_Linear_8,117,9999,9999,9999,9999,3008414812
14,18,Jits_Linear_8,118,9999,9999,9999,9999,3009004636
14,18,Jits_Linear_8,119,9999,9999,9999,9999,3009594452
14,18,Jits_Linear_8,120,9999,9999,9999,9999,3010175056
14,18,Jits_Linear_8,121,9999,9999,9999,9999,3010754628
14,18,Jits_Linear_8,122,9999,9999,9999,9999,3011334236
14,18,Jits_Linear_8,123,9999,9999,9999,9999,3011914820
14,18,Jits_Linear_8,124,9999,9999,9999,9999,3012494424
14,18,Jits_Linear_8,125,9999,9999,9999,9999,3013064780
14,18,Jits_Linear_8,126,9999,9999,9999,9999,3013634148
14,18,Jits_Linear_8,127,9999,9999,9999,9999,3014204480
14,18,Jits_Linear_8,128,9999,9999,9999,9999,3014774888
14,18,Jits_Linear_8,129,9999,9999,9999,9999,3015344228
14,18,Jits_Linear_8,130,9999,9999,9999,9999,3015904320
14,18,Jits_Linear_8,131,9999,9999,9999,9999,3016464484
14,18,Jits_Linear_8,132,9999,9999,9999,9999,3017024616
14,18,Jits_Linear_8,133,9999,9999,9999,9999,3017584740
14,18,Jits_Linear_8,134,9999,9999,9999,9999,3018144828
14,18,Jits_Linear_8,135,9999,9999,9999,9999,3018694768
14,18,Jits_Linear_8,136,9999,9999,9999,9999,3019244644
14,18,Jits_Linear_8,137,9999,9999,9999,9999,3019794536
14,18,Jits_Linear_8,138,9999,9999,9999,9999,3020344428
14,18,Jits_Linear_8,139,9999,9999,9999,9999,3020894316
14,18,Jits_Linear_8,140,9999,9999,9999,9999,3021434976
14,18,Jits_Linear_8,141,9999,9999,9999,9999,3021974588
14,18,Jits_Linear_8,142,9999,9999,9999,9999,3022514300
14,18,Jits_Linear_8,143,9999,9999,9999,9999,3023054956
14,18,Jits_Linear_8,144,9999,9999,9999,9999,3023594576
14,18,Jits_Linear_8,145,9999,9999,9999,9999,3024125052
14,18,Jits_Linear_8,146,9999,9999,9999,9999,3024654404
14,18,Jits_Linear_8,147,9999,9999,9999,9999,3025184864
14,18,Jits_Linear_8,148,9999,9999,9999,9999,3025714280
14,18,Jits_Linear_8,149,9999,9999,9999,9999,3026244672
14,18,Jits_Linear_8,150,9999,9999,9999,9999,3026764880
14,18,Jits_Linear_8,151,9999,9999,9999,9999,3027285080
14,18,Jits_Linear_8,152,9999,9999,9999,9999,3027804256
14,18,Jits_Linear_8,153,9999,9999,9999,9999,3028324468
14,18,Jits_Linear_8,154,9999,9999,9999,9999,3028844608
14,18,Jits_Linear_8,155,9999,9999,9999,9999,3029354556
14,18,Jits_Linear_8,156,9999,9999,9999,9999,3029864516
14,18,Jits_Linear_8,157,9999,9999,9999,9999,3030374456
14,18,Jits_Linear_8,158,9999,9999,9999,9999,3030884480
14,18,Jits_Linear_8,159,9999,9999,9999,9999,3031394364
14,18,Jits_Linear_8,160,9999,9999,9999,9999,3031894136
14,18,Jits_Linear_8,161,9999,9999,9999,9999,3032394876
14,18,Jits_Linear_8,162,9999,9999,9999,9999,3032894564
14,18,Jits_Linear_8,163,9999,9999,9999,9999,3033394240
14,18,Jits_Linear_8,164,9999,9999,9999,9999,3033895040
14,18,Jits_Linear_8,165,9999,9999,9999,9999,3034384456
14,18,Jits_Linear_8,166,9999,9999,9999,9999,3034874936
14,18,Jits_Linear_8,167,9999,9999,9999,9999,3035364432
14,18,Jits_Linear_8,168,9999,9999,9999,9999,3035854912
14,18,Jits_Linear_8,169,9999,9999,9999,9999,3036344416
15,19,Jits_Linear_5,0,5,56,103,3047191036
15,19,Jits_Linear_5,1,5,63,98,3047193984
15,19,Jits_Linear_5,2,5,80,127,3047197404
15,19,Jits_Linear_5,0,5,56,103,3047671276
15,19,Jits_Linear_5,1,5,63,98,3047674296
15,19,Jits_Linear_5,2,5,80,127,3047677420
15,19,Jits_Linear_5,0,5,56,103,3048151380
15,19,Jits_Linear_5,1,5,80,127,3048160756
15,19,Jits_Linear_5,2,5,63,98,3048181064
15,19,Jits_Linear_5,0,5,63,98,3048580440
15,19,Jits_Linear_5,1,5,80,127,3048611264
15,19,Jits_Linear_5,2,5,56,103,3048621536
15,19,Jits_Linear_5,0,5,80,127,3049121096
15,19,Jits_Linear_5,1,5,56,103,3049131440
15,19,Jits_Linear_5,2,1,48,46,3049133380
15,19,Jits_Linear_5,3,5,63,98,3049161184
15,19,Jits_Linear_5,0,5,63,98,3049601448
15,19,Jits_Linear_5,1,1,48,43,3049607708
15,19,Jits_Linear_5,2,5,56,103,3049631068
15,19,Jits_Linear_5,3,5,80,127,3049641264
15,19,Jits_Linear_5,0,5,56,103,3050040676
15,19,Jits_Linear_5,1,1,48,42,3050090052
15,19,Jits_Linear_5,2,5,63,98,3050091992
15,19,Jits_Linear_5,3,5,80,127,3050111408
15,19,Jits_Linear_5,0,5,80,127,3050531312
15,19,Jits_Linear_5,1,1,48,46,3050562756
15,19,Jits_Linear_5,2,5,63,98,3050581360
15,19,Jits_Linear_5,3,5,56,103,3050621372
15,19,Jits_Linear_5,0,5,56,103,3051020604
15,19,Jits_Linear_5,1,1,48,43,3051039612
15,19,Jits_Linear_5,2,5,63,98,3051051248
15,19,Jits_Linear_5,3,5,80,127,3051121228
15,19,Jits_Linear_5,0,1,48,55,3051503268
15,19,Jits_Linear_5,1,5,56,103,3051511012
15,19,Jits_Linear_5,2,5,80,127,3051570508
15,19,Jits_Linear_5,3,5,63,98,3051601368
15,19,Jits_Linear_5,0,1,48,39,3051993524
15,19,Jits_Linear_5,1,5,56,103,3052011228
15,19,Jits_Linear_5,2,5,63,98,3052021128
15,19,Jits_Linear_5,3,5,80,127,3052061216
15,19,Jits_Linear_5,0,1,48,45,3052451852
15,19,Jits_Linear_5,1,5,63,98,3052501252
15,19,Jits_Linear_5,2,5,80,127,3052581188
15,19,Jits_Linear_5,3,5,56,103,3052590336
15,19,Jits_Linear_5,0,1,48,48,3052961808
15,19,Jits_Linear_5,1,5,63,98,3053051216
15,19,Jits_Linear_5,2,5,56,103,3053091216
15,19,Jits_Linear_5,3,5,80,127,3053094356
15,19,Jits_Linear_5,0,1,48,46,3053475048
15,19,Jits_Linear_5,1,5,56,103,3053510968
15,19,Jits_Linear_5,2,5,63,98,3053521460
15,19,Jits_Linear_5,3,5,80,127,3053561324
15,19,Jits_Linear_5,0,1,48,47,3053916192
15,19,Jits_Linear_5,1,5,56,103,3054000460
15,19,Jits_Linear_5,2,5,63,98,3054003528
15,19,Jits_Linear_5,3,5,80,127,3054020904
15,19,Jits_Linear_5,0,1,48,44,3054393616
15,19,Jits_Linear_5,1,5,80,127,3054520876
15,19,Jits_Linear_5,2,5,56,103,3054531148
15,19,Jits_Linear_5,3,5,63,98,3054600680
15,19,Jits_Linear_5,0,1,48,48,3054947540
15,19,Jits_Linear_5,1,5,63,98,3055021548
15,19,Jits_Linear_5,2,5,56,103,3055040960
15,19,Jits_Linear_5,3,5,80,127,3055120892
15,19,Jits_Linear_5,0,1,48,47,3055390972
15,19,Jits_Linear_5,1,5,56,103,3055540480
15,19,Jits_Linear_5,2,5,80,127,3055580496
15,19,Jits_Linear_5,3,5,63,98,3055590916
15,19,Jits_Linear_5,0,1,48,50,3055910512
15,19,Jits_Linear_5,1,5,80,127,3056041216
15,19,Jits_Linear_5,2,5,63,98,3056070968
15,19,Jits_Linear_5,3,5,56,103,3056111056
15,19,Jits_Linear_5,0,1,48,46,3056473952
15,19,Jits_Linear_5,1,5,56,103,3056570872
15,19,Jits_Linear_5,2,5,63,98,3056600476
15,19,Jits_Linear_5,3,5,80,127,3056650752
15,19,Jits_Linear_5,0,1,48,43,3057009772
15,19,Jits_Linear_5,1,5,80,127,3057080844
15,19,Jits_Linear_5,2,5,56,103,3057120844
15,19,Jits_Linear_5,3,5,63,98,3057131040
15,19,Jits_Linear_5,0,1,48,51,3057534696
15,19,Jits_Linear_5,1,5,80,127,3057581428
15,19,Jits_Linear_5,2,5,63,98,3057621368
15,19,Jits_Linear_5,3,5,56,103,3057680996
15,19,Jits_Linear_5,0,1,48,51,3058055736
15,19,Jits_Linear_5,1,5,56,103,3058100524
15,19,Jits_Linear_5,2,5,80,127,3058110944
15,19,Jits_Linear_5,3,5,63,98,3058190728
15,19,Jits_Linear_5,0,5,80,127,3058620972
15,19,Jits_Linear_5,1,1,48,46,3058631888
15,19,Jits_Linear_5,2,5,63,98,3058681208
15,19,Jits_Linear_5,3,5,56,103,3058711032
15,19,Jits_Linear_5,0,5,56,103,3059140980
15,19,Jits_Linear_5,1,1,48,51,3059153168
15,19,Jits_Linear_5,2,5,80,127,3059201588
15,19,Jits_Linear_5,3,5,63,98,3059241380
15,19,Jits_Linear_5,0,5,56,103,3059720556
15,19,Jits_Linear_5,1,5,63,98,3059730752
15,19,Jits_Linear_5,2,5,80,127,3059734264
15,19,Jits_Linear_5,3,1,48,48,3059737836
15,19,Jits_Linear_5,0,5,80,127,3060200916
15,19,Jits_Linear_5,1,1,48,44,3060243072
15,19,Jits_Linear_5,2,5,63,98,3060290900
15,19,Jits_Linear_5,3,5,56,103,3060301096
15,19,Jits_Linear_5,0,5,56,103,3060731252
15,19,Jits_Linear_5,1,5,63,98,3060734424
15,19,Jits_Linear_5,2,5,80,127,3060737692
15,19,Jits_Linear_5,3,1,48,45,3060808388
15,19,Jits_Linear_5,0,1,48,46,3061250472
15,19,Jits_Linear_5,1,5,80,127,3061281136
15,19,Jits_Linear_5,2,5,63,98,3061331268
15,19,Jits_Linear_5,3,5,56,103,3061361000
15,19,Jits_Linear_5,0,5,56,103,3061791024
15,19,Jits_Linear_5,1,5,80,127,3061801296
15,19,Jits_Linear_5,2,1,48,47,3061842848
15,19,Jits_Linear_5,3,5,63,98,3061870896
15,19,Jits_Linear_5,0,5,56,103,3062330660
15,19,Jits_Linear_5,1,5,63,98,3062351272
15,19,Jits_Linear_5,2,1,48,51,3062367348
15,19,Jits_Linear_5,3,5,80,127,3062410756
15,19,Jits_Linear_5,0,5,80,127,3062861156
15,19,Jits_Linear_5,1,1,48,51,3062868980
15,19,Jits_Linear_5,2,5,63,98,3062930760
15,19,Jits_Linear_5,3,5,56,103,3062951316
15,19,Jits_Linear_5,0,5,80,127,3063421244
15,19,Jits_Linear_5,1,5,56,103,3063430692
15,19,Jits_Linear_5,2,1,48,46,3063431808
15,19,Jits_Linear_5,3,5,63,98,3063440880
15,19,Jits_Linear_5,0,1,48,45,3063935068
15,19,Jits_Linear_5,1,5,80,127,3063950684
15,19,Jits_Linear_5,2,5,56,103,3063971168
15,19,Jits_Linear_5,3,5,63,98,3064040912
15,19,Jits_Linear_5,0,5,56,103,3064500676
15,19,Jits_Linear_5,1,1,48,41,3064526568
15,19,Jits_Linear_5,2,5,80,127,3064531320
15,19,Jits_Linear_5,3,5,63,98,3064550956
15,19,Jits_Linear_5,0,1,48,46,3065019232
15,19,Jits_Linear_5,1,5,63,98,3065041280
15,19,Jits_Linear_5,2,5,56,103,3065100628
15,19,Jits_Linear_5,3,5,80,127,3065131708
15,19,Jits_Linear_5,0,1,48,51,3065563572
15,19,Jits_Linear_5,1,5,63,98,3065580824
15,19,Jits_Linear_5,2,5,80,127,3065584044
15,19,Jits_Linear_5,3,5,56,103,3065671024
15,19,Jits_Linear_5,0,1,48,49,3066126100
15,19,Jits_Linear_5,1,5,56,103,3066151308
15,19,Jits_Linear_5,2,5,63,98,3066180836
15,19,Jits_Linear_5,3,5,80,127,3066220836
15,19,Jits_Linear_5,0,1,48,33,3066694200
15,19,Jits_Linear_5,1,5,63,98,3066711608
15,19,Jits_Linear_5,2,5,56,103,3066751476
15,19,Jits_Linear_5,3,5,80,127,3066770744
15,19,Jits_Linear_5,0,5,63,98,3067270724
15,19,Jits_Linear_5,1,1,48,46,3067274968
15,19,Jits_Linear_5,2,5,56,103,3067310536
15,19,Jits_Linear_5,3,5,80,127,3067320808
15,19,Jits_Linear_5,0,5,80,127,3067800856
15,19,Jits_Linear_5,1,1,48,48,3067818728
15,19,Jits_Linear_5,2,5,63,98,3067870612
15,19,Jits_Linear_5,3,5,56,103,3067891000
15,19,Jits_Linear_5,0,5,56,103,3068350912
15,19,Jits_Linear_5,1,5,80,127,3068371224
15,19,Jits_Linear_5,2,1,48,56,3068399220
15,19,Jits_Linear_5,3,5,63,98,3068411376
15,19,Jits_Linear_5,0,5,63,98,3068921116
15,19,Jits_Linear_5,1,5,80,127,3068940604
15,19,Jits_Linear_5,2,1,48,55,3068948976
15,19,Jits_Linear_5,3,5,56,103,3068980608
15,19,Jits_Linear_5,0,5,63,98,3069481560
15,19,Jits_Linear_5,1,1,48,54,3069491356
15,19,Jits_Linear_5,2,5,56,103,3069500672
15,19,Jits_Linear_5,3,5,80,127,3069511016
15,19,Jits_Linear_5,0,5,80,127,3070040664
15,19,Jits_Linear_5,1,1,48,61,3070044236
15,19,Jits_Linear_5,2,5,56,103,3070060896
15,19,Jits_Linear_5,3,5,63,98,3070090568
15,19,Jits_Linear_5,0,1,48,54,3070633264
15,19,Jits_Linear_5,1,5,56,103,3070680712
15,19,Jits_Linear_5,2,5,80,127,3070683708
15,19,Jits_Linear_5,3,5,63,98,3070700948
15,19,Jits_Linear_5,0,5,63,98,3071170816
15,19,Jits_Linear_5,1,1,48,56,3071177524
15,19,Jits_Linear_5,2,5,56,103,3071200636
15,19,Jits_Linear_5,3,5,80,127,3071260952
15,19,Jits_Linear_5,0,1,48,52,3071719100
15,19,Jits_Linear_5,1,5,63,98,3071821228
15,19,Jits_Linear_5,2,5,56,103,3071831572
15,19,Jits_Linear_5,3,5,80,127,3071840576
15,19,Jits_Linear_5,0,1,48,61,3072337460
15,19,Jits_Linear_5,1,5,56,103,3072341616
15,19,Jits_Linear_5,2,5,80,127,3072370920
15,19,Jits_Linear_5,3,5,63,98,3072381564
15,19,Jits_Linear_5,0,1,48,51,3072906152
15,19,Jits_Linear_5,1,5,63,98,3072950568
15,19,Jits_Linear_5,2,5,56,103,3072960764
15,19,Jits_Linear_5,3,5,80,127,3072981520
15,19,Jits_Linear_5,0,5,56,103,3073451460
15,19,Jits_Linear_5,1,1,48,48,3073475404
15,19,Jits_Linear_5,2,5,63,98,3073510872
15,19,Jits_Linear_5,3,5,80,127,3073514384
15,19,Jits_Linear_5,0,1,48,56,3074022744
15,19,Jits_Linear_5,1,5,80,127,3074050568
15,19,Jits_Linear_5,2,5,56,103,3074060764
15,19,Jits_Linear_5,3,5,63,98,3074131400
15,19,Jits_Linear_5,0,1,48,49,3074610540
15,19,Jits_Linear_5,1,5,80,127,3074620752
15,19,Jits_Linear_5,2,5,56,103,3074690588
15,19,Jits_Linear_5,3,5,63,98,3074700784
15,19,Jits_Linear_5,0,1,48,52,3075166340
15,19,Jits_Linear_5,1,5,63,98,3075241468
15,19,Jits_Linear_5,2,5,56,103,3075250616
15,19,Jits_Linear_5,3,5,80,127,3075270984
15,19,Jits_Linear_5,0,1,48,50,3075745320
15,19,Jits_Linear_5,1,5,80,127,3075770600
15,19,Jits_Linear_5,2,5,63,98,3075831216
15,19,Jits_Linear_5,3,5,56,103,3075870992
15,19,Jits_Linear_5,0,1,48,38,3076331472
15,19,Jits_Linear_5,1,5,56,103,3076400432
15,19,Jits_Linear_5,2,5,63,98,3076410776
15,19,Jits_Linear_5,3,5,80,127,3076450700
15,19,Jits_Linear_5,0,1,48,44,3076884656
15,19,Jits_Linear_5,1,5,56,103,3076951512
15,19,Jits_Linear_5,2,5,80,127,3076981028
15,19,Jits_Linear_5,3,5,63,98,3077031476
15,19,Jits_Linear_5,0,1,48,52,3077445468
15,19,Jits_Linear_5,1,5,56,103,3077581424
15,19,Jits_Linear_5,2,5,63,98,3077621216
15,19,Jits_Linear_5,3,5,80,127,3077624504
15,19,Jits_Linear_5,0,1,48,43,3078022624
15,19,Jits_Linear_5,1,5,56,103,3078170864
15,19,Jits_Linear_5,2,5,63,98,3078181356
15,19,Jits_Linear_5,3,5,80,127,3078200696
15,19,Jits_Linear_5,0,1,48,39,3078561740
15,19,Jits_Linear_5,1,5,56,103,3078720820
15,19,Jits_Linear_5,2,5,80,127,3078723960
15,19,Jits_Linear_5,3,5,63,98,3078760756
15,19,Jits_Linear_5,0,1,48,49,3079091452
15,19,Jits_Linear_5,1,5,63,98,3079350580
15,19,Jits_Linear_5,2,5,56,103,3079381376
15,19,Jits_Linear_5,3,5,80,127,3079400716
15,19,Jits_Linear_5,4,1,48,42,3079586792
15,19,Jits_Linear_5,0,5,80,127,3079920912
15,19,Jits_Linear_5,1,5,56,103,3079931480
15,19,Jits_Linear_5,2,5,63,98,3079940480
15,19,Jits_Linear_5,3,1,48,42,3080123720
15,19,Jits_Linear_5,0,1,48,51,3080518716
15,19,Jits_Linear_5,1,5,56,103,3080521444
15,19,Jits_Linear_5,2,5,80,127,3080561236
15,19,Jits_Linear_5,3,5,63,98,3080590692
15,19,Jits_Linear_5,0,1,48,60,3081073028
15,19,Jits_Linear_5,1,5,63,98,3081131444
15,19,Jits_Linear_5,2,5,80,127,3081140592
15,19,Jits_Linear_5,3,5,56,103,3081150788
15,19,Jits_Linear_5,0,1,48,53,3081709032
15,19,Jits_Linear_5,1,5,56,103,3081710916
15,19,Jits_Linear_5,2,5,63,98,3081780676
15,19,Jits_Linear_5,3,5,80,127,3081790872
15,19,Jits_Linear_5,0,1,48,41,3082301160
15,19,Jits_Linear_5,1,5,80,127,3082321340
15,19,Jits_Linear_5,2,5,56,103,3082330416
15,19,Jits_Linear_5,3,5,63,98,3082380544
15,19,Jits_Linear_5,0,5,80,127,3082940708
15,19,Jits_Linear_5,1,1,48,55,3082944272
15,19,Jits_Linear_5,2,5,56,103,3083001616
15,19,Jits_Linear_5,3,5,63,98,3083031068
15,19,Jits_Linear_5,0,5,56,103,3083551068
15,19,Jits_Linear_5,1,5,80,127,3083554208
15,19,Jits_Linear_5,2,5,63,98,3083591008
15,19,Jits_Linear_5,3,1,48,44,3083592948
15,19,Jits_Linear_5,0,1,48,47,3084180120
15,19,Jits_Linear_5,1,5,56,103,3084191180
15,19,Jits_Linear_5,2,5,63,98,3084220784
15,19,Jits_Linear_5,3,5,80,127,3084231128
15,19,Jits_Linear_5,0,1,48,44,3084778268
15,19,Jits_Linear_5,1,5,63,98,3084810600
15,19,Jits_Linear_5,2,5,80,127,3084820720
15,19,Jits_Linear_5,3,5,56,103,3084831288
15,19,Jits_Linear_5,0,5,80,127,3085370680
15,19,Jits_Linear_5,1,1,48,40,3085409240
15,19,Jits_Linear_5,2,5,56,103,3085421096
15,19,Jits_Linear_5,3,5,63,98,3085424092
15,19,Jits_Linear_5,0,1,48,48,3086011444
15,19,Jits_Linear_5,1,5,56,103,3086020832
15,19,Jits_Linear_5,2,5,80,127,3086040468
15,19,Jits_Linear_5,3,5,63,98,3086050740
15,19,Jits_Linear_5,0,5,63,98,3086621144
15,19,Jits_Linear_5,1,1,48,32,3086646440
15,19,Jits_Linear_5,2,5,56,103,3086650668
15,19,Jits_Linear_5,3,5,80,127,3086671276
15,19,Jits_Linear_5,0,1,48,46,3087215272
15,19,Jits_Linear_5,1,5,56,103,3087250816
15,19,Jits_Linear_5,2,5,80,127,3087261260
15,19,Jits_Linear_5,3,5,63,98,3087330704
15,19,Jits_Linear_5,0,1,48,53,3087835080
15,19,Jits_Linear_5,1,5,63,98,3087861188
15,19,Jits_Linear_5,2,5,80,127,3087901204
15,19,Jits_Linear_5,3,5,56,103,3087941128
15,19,Jits_Linear_5,0,1,48,40,3088478932
15,19,Jits_Linear_5,1,5,56,103,3088501280
15,19,Jits_Linear_5,2,5,63,98,3088511552
15,19,Jits_Linear_5,3,5,80,127,3088530740
15,19,Jits_Linear_5,0,1,48,48,3089047252
15,19,Jits_Linear_5,1,5,63,98,3089170900
15,19,Jits_Linear_5,2,5,80,127,3089191360
15,19,Jits_Linear_5,3,5,56,103,3089210624
15,19,Jits_Linear_5,0,5,56,103,3089741112
15,19,Jits_Linear_5,1,1,48,43,3089743704
15,19,Jits_Linear_5,2,5,80,127,3089821152
15,19,Jits_Linear_5,3,5,63,98,3089831348
15,19,Jits_Linear_5,0,5,80,127,3090410912
15,19,Jits_Linear_5,1,5,63,98,3090421112
15,19,Jits_Linear_5,2,1,48,48,3090434272
15,19,Jits_Linear_5,3,5,56,103,3090450780
15,19,Jits_Linear_5,0,5,63,98,3091000896
15,19,Jits_Linear_5,1,5,80,127,3091040612
15,19,Jits_Linear_5,2,1,48,53,3091070856
15,19,Jits_Linear_5,3,5,56,103,3091101172
15,19,Jits_Linear_5,0,5,63,98,3091640636
15,19,Jits_Linear_5,1,5,56,103,3091690992
15,19,Jits_Linear_5,2,1,48,44,3091718000
15,19,Jits_Linear_5,3,5,80,127,3091720584
15,19,Jits_Linear_5,0,1,48,47,3092259792
15,19,Jits_Linear_5,1,5,80,127,3092291060
15,19,Jits_Linear_5,2,5,63,98,3092301256
15,19,Jits_Linear_5,3,5,56,103,3092370996
15,19,Jits_Linear_5,0,1,48,45,3092973308
15,19,Jits_Linear_5,1,5,80,127,3093000536
15,19,Jits_Linear_5,2,5,56,103,3093010804
15,19,Jits_Linear_5,3,5,63,98,3093013872
15,19,Jits_Linear_5,0,1,48,41,3093579772
15,19,Jits_Linear_5,1,5,56,103,3093581428
15,19,Jits_Linear_5,2,5,80,127,3093600840
15,19,Jits_Linear_5,3,5,63,98,3093610888
15,19,Jits_Linear_5,0,1,48,51,3094188928
15,19,Jits_Linear_5,1,5,63,98,3094231360
15,19,Jits_Linear_5,2,5,56,103,3094271300
15,19,Jits_Linear_5,3,5,80,127,3094290920
15,19,Jits_Linear_5,0,1,48,48,3094858380
15,19,Jits_Linear_5,1,5,63,98,3094880520
15,19,Jits_Linear_5,2,5,56,103,3094941084
15,19,Jits_Linear_5,3,5,80,127,3094944080
15,19,Jits_Linear_5,0,1,48,57,3095466052
15,19,Jits_Linear_5,1,5,56,103,3095490884
15,19,Jits_Linear_5,2,5,80,127,3095511272
15,19,Jits_Linear_5,3,5,63,98,3095551284
15,19,Jits_Linear_5,0,1,48,42,3096084336
15,19,Jits_Linear_5,1,5,56,103,3096170980
15,19,Jits_Linear_5,2,5,63,98,3096191280
15,19,Jits_Linear_5,3,5,80,127,3096200504
15,19,Jits_Linear_5,0,1,48,42,3096783200
15,19,Jits_Linear_5,1,5,80,127,3096791464
15,19,Jits_Linear_5,2,5,56,103,3096821068
15,19,Jits_Linear_5,3,5,63,98,3096861008
15,19,Jits_Linear_5,0,1,48,45,3097441868
15,19,Jits_Linear_5,1,5,80,127,3097450960
15,19,Jits_Linear_5,2,5,56,103,3097471420
15,19,Jits_Linear_5,3,5,63,98,3097530940
15,19,Jits_Linear_5,0,5,56,103,3098111384
15,19,Jits_Linear_5,1,5,80,127,3098131024
15,19,Jits_Linear_5,2,1,48,18,3098136840
15,19,Jits_Linear_5,3,5,63,98,3098191188
15,19,Jits_Linear_5,0,5,80,127,3098751344
15,19,Jits_Linear_5,1,5,56,103,3098760496
15,19,Jits_Linear_5,2,1,48,46,3098769312
15,19,Jits_Linear_5,3,5,63,98,3098800600
15,19,Jits_Linear_5,0,5,63,98,3099410952
15,19,Jits_Linear_5,1,1,48,59,3099431308
15,19,Jits_Linear_5,2,5,56,103,3099450884
15,19,Jits_Linear_5,3,5,80,127,3099453876
15,19,Jits_Linear_5,0,5,63,98,3100091132
15,19,Jits_Linear_5,1,1,48,47,3100093804
15,19,Jits_Linear_5,2,5,80,127,3100130916
15,19,Jits_Linear_5,3,5,56,103,3100161268
15,19,Jits_Linear_5,0,5,56,103,3100741036
15,19,Jits_Linear_5,1,5,63,98,3100751160
15,19,Jits_Linear_5,2,1,48,58,3100772332
15,19,Jits_Linear_5,3,5,80,127,3100780904
15,19,Jits_Linear_5,0,5,80,127,3101400644
15,19,Jits_Linear_5,1,1,48,57,3101428032
15,19,Jits_Linear_5,2,5,63,98,3101471072
15,19,Jits_Linear_5,3,5,56,103,3101481268
15,19,Jits_Linear_5,0,1,48,50,3102069816
15,19,Jits_Linear_5,1,5,63,98,3102071384
15,19,Jits_Linear_5,2,5,56,103,3102140872
15,19,Jits_Linear_5,3,5,80,127,3102151140
15,19,Jits_Linear_5,0,5,63,98,3102740880
15,19,Jits_Linear_5,1,1,48,56,3102745196
15,19,Jits_Linear_5,2,5,56,103,3102761260
15,19,Jits_Linear_5,3,5,80,127,3102801272
15,19,Jits_Linear_5,0,1,48,46,3103410624
15,19,Jits_Linear_5,1,5,56,103,3103420688
15,19,Jits_Linear_5,2,5,63,98,3103430884
15,19,Jits_Linear_5,3,5,80,127,3103510888
15,19,Jits_Linear_5,0,1,48,54,3104066136
15,19,Jits_Linear_5,1,5,63,98,3104081304
15,19,Jits_Linear_5,2,5,56,103,3104111060
15,19,Jits_Linear_5,3,5,80,127,3104150872
15,19,Jits_Linear_5,0,1,48,51,3104704156
15,19,Jits_Linear_5,1,5,56,103,3104751160
15,19,Jits_Linear_5,2,5,63,98,3104791028
15,19,Jits_Linear_5,3,5,80,127,3104830952
15,19,Jits_Linear_5,0,1,48,53,3105377876
15,19,Jits_Linear_5,1,5,80,127,3105430832
15,19,Jits_Linear_5,2,5,56,103,3105510768
15,19,Jits_Linear_5,3,5,63,98,3105520964
15,19,Jits_Linear_5,0,1,48,41,3106071872
15,19,Jits_Linear_5,1,5,56,103,3106150868
15,19,Jits_Linear_5,2,5,63,98,3106154008
15,19,Jits_Linear_5,3,5,80,127,3106160992
15,19,Jits_Linear_5,0,1,48,57,3106752136
15,19,Jits_Linear_5,1,5,56,103,3106851200
15,19,Jits_Linear_5,2,5,63,98,3106870764
15,19,Jits_Linear_5,3,5,80,127,3106880960
15,19,Jits_Linear_5,0,1,48,52,3107393200
15,19,Jits_Linear_5,1,5,63,98,3107491240
15,19,Jits_Linear_5,2,5,80,127,3107501512
15,19,Jits_Linear_5,3,5,56,103,3107520852
15,19,Jits_Linear_5,0,1,48,42,3108072580
15,19,Jits_Linear_5,1,5,63,98,3108181304
15,19,Jits_Linear_5,2,5,56,103,3108261276
15,19,Jits_Linear_5,3,5,80,127,3108264344
15,19,Jits_Linear_5,0,1,48,47,3108787376
15,19,Jits_Linear_5,1,5,63,98,3108870728
15,19,Jits_Linear_5,2,5,56,103,3108890876
15,19,Jits_Linear_5,3,5,80,127,3108920848
15,19,Jits_Linear_5,0,1,48,44,3109473548
15,19,Jits_Linear_5,1,5,56,103,3109560812
15,19,Jits_Linear_5,2,5,63,98,3109581112
15,19,Jits_Linear_5,3,5,80,127,3109591676
15,19,Jits_Linear_5,0,1,48,56,3110147368
15,19,Jits_Linear_5,1,5,56,103,3110280680
15,19,Jits_Linear_5,2,5,63,98,3110311124
15,19,Jits_Linear_5,3,5,80,127,3110314940
15,19,Jits_Linear_5,0,1,48,48,3110857980
15,19,Jits_Linear_5,1,5,56,103,3110920500
15,19,Jits_Linear_5,2,5,63,98,3110960652
15,19,Jits_Linear_5,3,5,80,127,3111020896
15,19,Jits_Linear_5,0,1,48,36,3111543400
15,19,Jits_Linear_5,1,5,56,103,3111631340
15,19,Jits_Linear_5,2,5,63,98,3111640548
15,19,Jits_Linear_5,3,5,80,127,3111700792
15,19,Jits_Linear_5,0,1,48,46,3112201572
15,19,Jits_Linear_5,1,5,56,103,3112330752
15,19,Jits_Linear_5,2,5,80,127,3112351012
15,19,Jits_Linear_5,3,5,63,98,3112380912
15,19,Jits_Linear_5,0,1,48,54,3112861016
15,19,Jits_Linear_5,1,5,80,127,3113030880
15,19,Jits_Linear_5,2,5,56,103,3113041224
15,19,Jits_Linear_5,3,5,63,98,3113060860
15,19,Jits_Linear_5,0,1,48,51,3113522452
15,19,Jits_Linear_5,1,5,63,98,3113721188
15,19,Jits_Linear_5,2,5,80,127,3113801136
15,19,Jits_Linear_5,3,5,56,103,3113811260
15,19,Jits_Linear_5,0,1,48,43,3114366580
15,19,Jits_Linear_5,1,5,80,127,3114480960
15,19,Jits_Linear_5,2,5,56,103,3114500668
15,19,Jits_Linear_5,3,5,63,98,3114503736
15,19,Jits_Linear_5,0,1,48,51,3115084612
15,19,Jits_Linear_5,1,5,63,98,3115160940
15,19,Jits_Linear_5,2,5,80,127,3115164156
15,19,Jits_Linear_5,3,5,56,103,3115221468
15,19,Jits_Linear_5,0,5,56,103,3115851152
15,19,Jits_Linear_5,1,5,80,127,3115861348
15,19,Jits_Linear_5,2,1,48,50,3115881780
15,19,Jits_Linear_5,3,5,63,98,3115901580
15,19,Jits_Linear_5,0,5,56,103,3116541552
15,19,Jits_Linear_5,1,1,48,54,3116594424
15,19,Jits_Linear_5,2,5,63,98,3116600672
15,19,Jits_Linear_5,3,5,80,127,3116610868
15,19,Jits_Linear_5,0,1,48,58,3117251700
15,19,Jits_Linear_5,1,5,63,98,3117261092
15,19,Jits_Linear_5,2,5,80,127,3117301032
15,19,Jits_Linear_5,3,5,56,103,3117340968
15,19,Jits_Linear_5,0,5,56,103,3117970712
15,19,Jits_Linear_5,1,1,48,57,3117998128
15,19,Jits_Linear_5,2,5,63,98,3118050680
15,19,Jits_Linear_5,3,5,80,127,3118053896
15,19,Jits_Linear_5,0,1,48,48,3118702432
15,19,Jits_Linear_5,1,5,80,127,3118740848
15,19,Jits_Linear_5,2,5,56,103,3118770520
15,19,Jits_Linear_5,3,5,63,98,3118773664
15,19,Jits_Linear_5,0,5,56,103,3119420720
15,19,Jits_Linear_5,1,5,80,127,3119441552
15,19,Jits_Linear_5,2,1,48,53,3119480744
15,19,Jits_Linear_5,3,5,63,98,3119482460
15,19,Jits_Linear_5,0,5,80,127,3120121164
15,19,Jits_Linear_5,1,5,63,98,3120140728
15,19,Jits_Linear_5,2,1,48,46,3120157176
15,19,Jits_Linear_5,3,5,56,103,3120201184
15,19,Jits_Linear_5,0,5,63,98,3120851272
15,19,Jits_Linear_5,1,1,48,43,3120860572
15,19,Jits_Linear_5,2,5,56,103,3120862204
15,19,Jits_Linear_5,3,5,80,127,3120910840
15,19,Jits_Linear_5,0,1,48,48,3121545116
15,19,Jits_Linear_5,1,5,56,103,3121560980
15,19,Jits_Linear_5,2,5,63,98,3121581440
15,19,Jits_Linear_5,3,5,80,127,3121590516
15,19,Jits_Linear_5,0,1,48,53,3122233252
15,19,Jits_Linear_5,1,5,56,103,3122280784
15,19,Jits_Linear_5,2,5,63,98,3122283848
15,19,Jits_Linear_5,3,5,80,127,3122301392
15,19,Jits_Linear_5,0,1,48,54,3122937328
15,19,Jits_Linear_5,1,5,63,98,3123050788
15,19,Jits_Linear_5,2,5,56,103,3123080688
15,19,Jits_Linear_5,3,5,80,127,3123111212
15,19,Jits_Linear_5,0,5,80,127,3123741116
15,19,Jits_Linear_5,1,1,48,48,3123782372
15,19,Jits_Linear_5,2,5,56,103,3123831476
15,19,Jits_Linear_5,3,5,63,98,3123834388
15,19,Jits_Linear_5,0,5,56,103,3124471364
15,19,Jits_Linear_5,1,5,80,127,3124474508
15,19,Jits_Linear_5,2,5,63,98,3124551016
15,19,Jits_Linear_5,3,1,48,32,3124565592
15,19,Jits_Linear_5,0,5,80,127,3125201236
15,19,Jits_Linear_5,1,1,48,51,3125229764
15,19,Jits_Linear_5,2,5,63,98,3125260652
15,19,Jits_Linear_5,3,5,56,103,3125291376
15,19,Jits_Linear_5,0,5,63,98,3125931272
15,19,Jits_Linear_5,1,5,80,127,3125940720
15,19,Jits_Linear_5,2,1,48,52,3125965116
15,19,Jits_Linear_5,3,5,56,103,3126011368
15,19,Jits_Linear_5,0,1,48,41,3126647660
15,19,Jits_Linear_5,1,5,56,103,3126681136
15,19,Jits_Linear_5,2,5,80,127,3126710588
15,19,Jits_Linear_5,3,5,63,98,3126760704
15,19,Jits_Linear_5,0,1,48,41,3127422864
15,19,Jits_Linear_5,1,5,63,98,3127461280
15,19,Jits_Linear_5,2,5,56,103,3127491028
15,19,Jits_Linear_5,3,5,80,127,3127494096
15,19,Jits_Linear_5,0,1,48,48,3128132424
15,19,Jits_Linear_5,1,5,63,98,3128200560
15,19,Jits_Linear_5,2,5,80,127,3128221268
15,19,Jits_Linear_5,3,5,56,103,3128231376
15,19,Jits_Linear_5,0,1,48,44,3128920296
15,19,Jits_Linear_5,1,5,56,103,3128951108
15,19,Jits_Linear_5,2,5,63,98,3128954396
15,19,Jits_Linear_5,3,5,80,127,3128970744
15,19,Jits_Linear_5,0,5,56,103,3129650488
15,19,Jits_Linear_5,1,5,63,98,3129660908
15,19,Jits_Linear_5,2,5,80,127,3129690360
15,19,Jits_Linear_5,3,1,48,30,3129738040
15,19,Jits_Linear_5,0,1,48,50,3130419324
15,19,Jits_Linear_5,1,5,63,98,3130421116
15,19,Jits_Linear_5,2,5,80,127,3130441280
15,19,Jits_Linear_5,3,5,56,103,3130481292
15,19,Jits_Linear_5,0,1,48,52,3131163472
15,19,Jits_Linear_5,1,5,56,103,3131200964
15,19,Jits_Linear_5,2,5,63,98,3131240976
15,19,Jits_Linear_5,3,5,80,127,3131244116
15,19,Jits_Linear_5,0,5,80,127,3131891124
15,19,Jits_Linear_5,1,1,48,45,3131903756
15,19,Jits_Linear_5,2,5,56,103,3131931208
15,19,Jits_Linear_5,3,5,63,98,3131981260
15,19,Jits_Linear_5,0,1,48,44,3132692452
15,19,Jits_Linear_5,1,5,56,103,3132701024
15,19,Jits_Linear_5,2,5,80,127,3132711368
15,19,Jits_Linear_5,3,5,63,98,3132741120
15,19,Jits_Linear_5,0,5,56,103,3133400484
15,19,Jits_Linear_5,1,5,80,127,3133441400
15,19,Jits_Linear_5,2,1,48,46,3133449172
15,19,Jits_Linear_5,3,5,63,98,3133490476
15,19,Jits_Linear_5,0,5,56,103,3134161164
15,19,Jits_Linear_5,1,1,48,42,3134181216
15,19,Jits_Linear_5,2,5,80,127,3134201248
15,19,Jits_Linear_5,3,5,63,98,3134251300
15,19,Jits_Linear_5,0,1,48,47,3134886660
15,19,Jits_Linear_5,1,5,80,127,3134910820
15,19,Jits_Linear_5,2,5,63,98,3134990604
15,19,Jits_Linear_5,3,5,56,103,3135001100
15,19,Jits_Linear_5,0,5,80,127,3135721016
15,19,Jits_Linear_5,1,5,56,103,3135731136
15,19,Jits_Linear_5,2,1,48,48,3135732104
15,19,Jits_Linear_5,3,5,63,98,3135750544
15,19,Jits_Linear_5,0,5,63,98,3136451348
15,19,Jits_Linear_5,1,1,48,46,3136495596
15,19,Jits_Linear_5,2,5,56,103,3136520580
15,19,Jits_Linear_5,3,5,80,127,3136523496
15,19,Jits_Linear_5,0,5,80,127,3137210880
15,19,Jits_Linear_5,1,1,48,36,3137239032
15,19,Jits_Linear_5,2,5,63,98,3137261004
15,19,Jits_Linear_5,3,5,56,103,3137301016
15,19,Jits_Linear_5,0,1,48,40,3137961188
15,19,Jits_Linear_5,1,5,63,98,3138020928
15,19,Jits_Linear_5,2,5,56,103,3138060780
15,19,Jits_Linear_5,3,5,80,127,3138070976
15,19,Jits_Linear_5,0,1,48,35,3138769064
15,19,Jits_Linear_5,1,5,63,98,3138780696
15,19,Jits_Linear_5,2,5,56,103,3138800860
15,19,Jits_Linear_5,3,5,80,127,3138820496
15,19,Jits_Linear_5,0,5,80,127,3139510576
15,19,Jits_Linear_5,1,5,56,103,3139521068
15,19,Jits_Linear_5,2,1,48,20,3139526736
15,19,Jits_Linear_5,3,5,63,98,3139541372
15,19,Jits_Linear_5,0,1,48,42,3140245808
15,19,Jits_Linear_5,1,5,63,98,3140311472
15,19,Jits_Linear_5,2,5,56,103,3140351248
15,19,Jits_Linear_5,3,5,80,127,3140381000
15,19,Jits_Linear_5,0,1,48,49,3141030604
15,19,Jits_Linear_5,1,5,56,103,3141090868
15,19,Jits_Linear_5,2,5,63,98,3141122328
15,19,Jits_Linear_5,3,5,80,127,3141151032
15,19,Jits_Linear_5,0,5,80,127,3141841200
15,19,Jits_Linear_5,1,1,48,30,3141857272
15,19,Jits_Linear_5,2,5,56,103,3141910796
15,19,Jits_Linear_5,3,5,63,98,3141913944
15,19,Jits_Linear_5,0,1,48,46,3142621468
15,19,Jits_Linear_5,1,5,56,103,3142630708
15,19,Jits_Linear_5,2,5,63,98,3142680912
15,19,Jits_Linear_5,3,5,80,127,3142710812
15,19,Jits_Linear_5,0,1,48,55,3143365784
15,19,Jits_Linear_5,1,5,63,98,3143390764
15,19,Jits_Linear_5,2,5,80,127,3143394052
15,19,Jits_Linear_5,3,5,56,103,3143450856
15,19,Jits_Linear_5,0,1,48,51,3144116692
15,19,Jits_Linear_5,1,5,56,103,3144200640
15,19,Jits_Linear_5,2,5,80,127,3144210748
15,19,Jits_Linear_5,3,5,63,98,3144260948
15,19,Jits_Linear_5,0,5,63,98,3144961308
15,19,Jits_Linear_5,1,5,56,103,3144970832
15,19,Jits_Linear_5,2,5,80,127,3145001184
15,19,Jits_Linear_5,3,1,48,54,3145014264
15,19,Jits_Linear_5,0,5,63,98,3145780632
15,19,Jits_Linear_5,1,5,80,127,3145784072
15,19,Jits_Linear_5,2,5,56,103,3145811208
15,19,Jits_Linear_5,3,1,48,58,3145827056
15,19,Jits_Linear_5,0,5,63,98,3146590656
15,19,Jits_Linear_5,1,5,56,103,3146610960
15,19,Jits_Linear_5,2,5,80,127,3146614256
15,19,Jits_Linear_5,3,1,48,42,3146620460
15,19,Jits_Linear_5,0,5,63,98,3147341120
15,19,Jits_Linear_5,1,5,56,103,3147410904
15,19,Jits_Linear_5,2,5,80,127,3147431140
15,19,Jits_Linear_5,3,1,48,48,3147476432
15,19,Jits_Linear_5,0,5,56,103,3148120512
15,19,Jits_Linear_5,1,5,63,98,3148130708
15,19,Jits_Linear_5,2,1,48,44,3148167388
15,19,Jits_Linear_5,3,5,80,127,3148220640
15,19,Jits_Linear_5,0,1,48,50,3148898840
15,19,Jits_Linear_5,1,5,56,103,3148930556
15,19,Jits_Linear_5,2,5,80,127,3148971344
15,19,Jits_Linear_5,3,5,63,98,3148980792
15,19,Jits_Linear_5,0,1,48,51,3149692756
15,19,Jits_Linear_5,1,5,56,103,3149750652
15,19,Jits_Linear_5,2,5,63,98,3149781228
15,19,Jits_Linear_5,3,5,80,127,3149810964
15,19,Jits_Linear_5,0,1,48,65,3150442856
15,19,Jits_Linear_5,1,5,80,127,3150510564
15,19,Jits_Linear_5,2,5,63,98,3150551464
15,19,Jits_Linear_5,3,5,56,103,3150570876
15,19,Jits_Linear_5,0,1,48,49,3151311504
15,19,Jits_Linear_5,1,5,56,103,3151351092
15,19,Jits_Linear_5,2,5,80,127,3151370580
15,19,Jits_Linear_5,3,5,63,98,3151390964
15,19,Jits_Linear_5,0,5,63,98,3152121344
15,19,Jits_Linear_5,1,5,56,103,3152130644
15,19,Jits_Linear_5,2,1,48,48,3152156908
15,19,Jits_Linear_5,3,5,80,127,3152190804
15,19,Jits_Linear_5,0,5,56,103,3152931152
15,19,Jits_Linear_5,1,1,48,59,3152939600
15,19,Jits_Linear_5,2,5,63,98,3153000908
15,19,Jits_Linear_5,3,5,80,127,3153021368
15,19,Jits_Linear_5,0,5,56,103,3153741280
15,19,Jits_Linear_5,1,5,63,98,3153770884
15,19,Jits_Linear_5,2,1,48,56,3153778884
15,19,Jits_Linear_5,3,5,80,127,3153810764
15,19,Jits_Linear_5,0,5,63,98,3154540840
15,19,Jits_Linear_5,1,1,48,48,3154563440
15,19,Jits_Linear_5,2,5,56,103,3154591064
15,19,Jits_Linear_5,3,5,80,127,3154601260
15,19,Jits_Linear_5,0,1,48,57,3155307000
15,19,Jits_Linear_5,1,5,56,103,3155390896
15,19,Jits_Linear_5,2,5,63,98,3155441088
15,19,Jits_Linear_5,3,5,80,127,3155451656
15,19,Jits_Linear_5,0,5,56,103,3156171048
15,19,Jits_Linear_5,1,5,63,98,3156181468
15,19,Jits_Linear_5,2,1,48,56,3156190740
15,19,Jits_Linear_5,3,5,80,127,3156261184
15,19,Jits_Linear_5,0,9999,9999,9999,9999,3047428148
15,19,Jits_Linear_5,1,9999,9999,9999,9999,3047908464
15,19,Jits_Linear_5,2,9999,9999,9999,9999,3048388720
15,19,Jits_Linear_5,3,9999,9999,9999,9999,3048868976
15,19,Jits_Linear_5,4,9999,9999,9999,9999,3049348200
15,19,Jits_Linear_5,5,9999,9999,9999,9999,3049838692
15,19,Jits_Linear_5,6,9999,9999,9999,9999,3050328188
15,19,Jits_Linear_5,7,9999,9999,9999,9999,3050818676
15,19,Jits_Linear_5,8,9999,9999,9999,9999,3051308120
15,19,Jits_Linear_5,9,9999,9999,9999,9999,3051798612
15,19,Jits_Linear_5,10,9999,9999,9999,9999,3052298300
15,19,Jits_Linear_5,11,9999,9999,9999,9999,3052799040
15,19,Jits_Linear_5,12,9999,9999,9999,9999,3053298800
15,19,Jits_Linear_5,13,9999,9999,9999,9999,3053798484
15,19,Jits_Linear_5,14,9999,9999,9999,9999,3054298232
15,19,Jits_Linear_5,15,9999,9999,9999,9999,3054808188
15,19,Jits_Linear_5,16,9999,9999,9999,9999,3055318140
15,19,Jits_Linear_5,17,9999,9999,9999,9999,3055829060
15,19,Jits_Linear_5,18,9999,9999,9999,9999,3056339012
15,19,Jits_Linear_5,19,9999,9999,9999,9999,3056848968
15,19,Jits_Linear_5,20,9999,9999,9999,9999,3057368140
15,19,Jits_Linear_5,21,9999,9999,9999,9999,3057888356
15,19,Jits_Linear_5,22,9999,9999,9999,9999,3058408572
15,19,Jits_Linear_5,23,9999,9999,9999,9999,3058928712
15,19,Jits_Linear_5,24,9999,9999,9999,9999,3059448948
15,19,Jits_Linear_5,25,9999,9999,9999,9999,3059978316
15,19,Jits_Linear_5,26,9999,9999,9999,9999,3060508736
15,19,Jits_Linear_5,27,9999,9999,9999,9999,3061038160
15,19,Jits_Linear_5,28,9999,9999,9999,9999,3061568584
15,19,Jits_Linear_5,29,9999,9999,9999,9999,3062099064
15,19,Jits_Linear_5,30,9999,9999,9999,9999,3062638700
15,19,Jits_Linear_5,31,9999,9999,9999,9999,3063178340
15,19,Jits_Linear_5,32,9999,9999,9999,9999,3063718968
15,19,Jits_Linear_5,33,9999,9999,9999,9999,3064258680
15,19,Jits_Linear_5,34,9999,9999,9999,9999,3064798304
15,19,Jits_Linear_5,35,9999,9999,9999,9999,3065348208
15,19,Jits_Linear_5,36,9999,9999,9999,9999,3065899128
15,19,Jits_Linear_5,37,9999,9999,9999,9999,3066458236
15,19,Jits_Linear_5,38,9999,9999,9999,9999,3067008124
15,19,Jits_Linear_5,39,9999,9999,9999,9999,3067559012
15,19,Jits_Linear_5,40,9999,9999,9999,9999,3068118120
15,19,Jits_Linear_5,41,9999,9999,9999,9999,3068678208
15,19,Jits_Linear_5,42,9999,9999,9999,9999,3069238368
15,19,Jits_Linear_5,43,9999,9999,9999,9999,3069798516
15,19,Jits_Linear_5,44,9999,9999,9999,9999,3070358616
15,19,Jits_Linear_5,45,9999,9999,9999,9999,3070928968
15,19,Jits_Linear_5,46,9999,9999,9999,9999,3071498336
15,19,Jits_Linear_5,47,9999,9999,9999,9999,3072068684
15,19,Jits_Linear_5,48,9999,9999,9999,9999,3072639100
15,19,Jits_Linear_5,49,9999,9999,9999,9999,3073208420
15,19,Jits_Linear_5,50,9999,9999,9999,9999,3073789008
15,19,Jits_Linear_5,51,9999,9999,9999,9999,3074368576
15,19,Jits_Linear_5,52,9999,9999,9999,9999,3074948204
15,19,Jits_Linear_5,53,9999,9999,9999,9999,3075528760
15,19,Jits_Linear_5,54,9999,9999,9999,9999,3076108392
15,19,Jits_Linear_5,55,9999,9999,9999,9999,3076698216
15,19,Jits_Linear_5,56,9999,9999,9999,9999,3077289028
15,19,Jits_Linear_5,57,9999,9999,9999,9999,3077878840
15,19,Jits_Linear_5,58,9999,9999,9999,9999,3078468732
15,19,Jits_Linear_5,59,9999,9999,9999,9999,3079058536
15,19,Jits_Linear_5,60,9999,9999,9999,9999,3079658556
15,19,Jits_Linear_5,61,9999,9999,9999,9999,3080258616
15,19,Jits_Linear_5,62,9999,9999,9999,9999,3080858736
15,19,Jits_Linear_5,63,9999,9999,9999,9999,3081458816
15,19,Jits_Linear_5,64,9999,9999,9999,9999,3082058824
15,19,Jits_Linear_5,65,9999,9999,9999,9999,3082668144
15,19,Jits_Linear_5,66,9999,9999,9999,9999,3083278420
15,19,Jits_Linear_5,67,9999,9999,9999,9999,3083888764
15,19,Jits_Linear_5,68,9999,9999,9999,9999,3084499004
15,19,Jits_Linear_5,69,9999,9999,9999,9999,3085108304
15,19,Jits_Linear_5,70,9999,9999,9999,9999,3085728852
15,19,Jits_Linear_5,71,9999,9999,9999,9999,3086348356
15,19,Jits_Linear_5,72,9999,9999,9999,9999,3086968888
15,19,Jits_Linear_5,73,9999,9999,9999,9999,3087588480
15,19,Jits_Linear_5,74,9999,9999,9999,9999,3088209016
15,19,Jits_Linear_5,75,9999,9999,9999,9999,3088838716
15,19,Jits_Linear_5,76,9999,9999,9999,9999,3089468472
15,19,Jits_Linear_5,77,9999,9999,9999,9999,3090098248
15,19,Jits_Linear_5,78,9999,9999,9999,9999,3090729064
15,19,Jits_Linear_5,79,9999,9999,9999,9999,3091358780
15,19,Jits_Linear_5,80,9999,9999,9999,9999,3091998796
15,19,Jits_Linear_5,81,9999,9999,9999,9999,3092638812
15,19,Jits_Linear_5,82,9999,9999,9999,9999,3093278828
15,19,Jits_Linear_5,83,9999,9999,9999,9999,3093918792
15,19,Jits_Linear_5,84,9999,9999,9999,9999,3094558808
15,19,Jits_Linear_5,85,9999,9999,9999,9999,3095209036
15,19,Jits_Linear_5,86,9999,9999,9999,9999,3095858264
15,19,Jits_Linear_5,87,9999,9999,9999,9999,3096508496
15,19,Jits_Linear_5,88,9999,9999,9999,9999,3097158772
15,19,Jits_Linear_5,89,9999,9999,9999,9999,3097809000
15,19,Jits_Linear_5,90,9999,9999,9999,9999,3098468428
15,19,Jits_Linear_5,91,9999,9999,9999,9999,3099128932
15,19,Jits_Linear_5,92,9999,9999,9999,9999,3099788352
15,19,Jits_Linear_5,93,9999,9999,9999,9999,3100448840
15,19,Jits_Linear_5,94,9999,9999,9999,9999,3101108284
15,19,Jits_Linear_5,95,9999,9999,9999,9999,3101779032
15,19,Jits_Linear_5,96,9999,9999,9999,9999,3102448756
15,19,Jits_Linear_5,97,9999,9999,9999,9999,3103118440
15,19,Jits_Linear_5,98,9999,9999,9999,9999,3103788140
15,19,Jits_Linear_5,99,9999,9999,9999,9999,3104458824
15,19,Jits_Linear_5,100,9999,9999,9999,9999,3105138772
15,19,Jits_Linear_5,101,9999,9999,9999,9999,3105818744
15,19,Jits_Linear_5,102,9999,9999,9999,9999,3106498636
15,19,Jits_Linear_5,103,9999,9999,9999,9999,3107178592
15,19,Jits_Linear_5,104,9999,9999,9999,9999,3107858488
15,19,Jits_Linear_5,105,9999,9999,9999,9999,3108548716
15,19,Jits_Linear_5,106,9999,9999,9999,9999,3109238856
15,19,Jits_Linear_5,107,9999,9999,9999,9999,3109929088
15,19,Jits_Linear_5,108,9999,9999,9999,9999,3110618200
15,19,Jits_Linear_5,109,9999,9999,9999,9999,3111308412
15,19,Jits_Linear_5,110,9999,9999,9999,9999,3112008760
15,19,Jits_Linear_5,111,9999,9999,9999,9999,3112708212
15,19,Jits_Linear_5,112,9999,9999,9999,9999,3113408632
15,19,Jits_Linear_5,113,9999,9999,9999,9999,3114109040
15,19,Jits_Linear_5,114,9999,9999,9999,9999,3114808412
15,19,Jits_Linear_5,115,9999,9999,9999,9999,3115519096
15,19,Jits_Linear_5,116,9999,9999,9999,9999,3116228664
15,19,Jits_Linear_5,117,9999,9999,9999,9999,3116938296
15,19,Jits_Linear_5,118,9999,9999,9999,9999,3117648996
15,19,Jits_Linear_5,119,9999,9999,9999,9999,3118358632
15,19,Jits_Linear_5,120,9999,9999,9999,9999,3119078476
15,19,Jits_Linear_5,121,9999,9999,9999,9999,3119798380
15,19,Jits_Linear_5,122,9999,9999,9999,9999,3120518204
15,19,Jits_Linear_5,123,9999,9999,9999,9999,3121238124
15,19,Jits_Linear_5,124,9999,9999,9999,9999,3121958996
15,19,Jits_Linear_5,125,9999,9999,9999,9999,3122688104
15,19,Jits_Linear_5,126,9999,9999,9999,9999,3123418204
15,19,Jits_Linear_5,127,9999,9999,9999,9999,3124148292
15,19,Jits_Linear_5,128,9999,9999,9999,9999,3124878440
15,19,Jits_Linear_5,129,9999,9999,9999,9999,3125608544
15,19,Jits_Linear_5,130,9999,9999,9999,9999,3126348912
15,19,Jits_Linear_5,131,9999,9999,9999,9999,3127088224
15,19,Jits_Linear_5,132,9999,9999,9999,9999,3127828572
15,19,Jits_Linear_5,133,9999,9999,9999,9999,3128568936
15,19,Jits_Linear_5,134,9999,9999,9999,9999,3129308236
15,19,Jits_Linear_5,135,9999,9999,9999,9999,3130058860
15,19,Jits_Linear_5,136,9999,9999,9999,9999,3130808376
15,19,Jits_Linear_5,137,9999,9999,9999,9999,3131558992
15,19,Jits_Linear_5,138,9999,9999,9999,9999,3132308568
15,19,Jits_Linear_5,139,9999,9999,9999,9999,3133058140
15,19,Jits_Linear_5,140,9999,9999,9999,9999,3133818952
15,19,Jits_Linear_5,141,9999,9999,9999,9999,3134578808
15,19,Jits_Linear_5,142,9999,9999,9999,9999,3135338584
15,19,Jits_Linear_5,143,9999,9999,9999,9999,3136098424
15,19,Jits_Linear_5,144,9999,9999,9999,9999,3136858196
15,19,Jits_Linear_5,145,9999,9999,9999,9999,3137628224
15,19,Jits_Linear_5,146,9999,9999,9999,9999,3138398272
15,19,Jits_Linear_5,147,9999,9999,9999,9999,3139168380
15,19,Jits_Linear_5,148,9999,9999,9999,9999,3139938400
15,19,Jits_Linear_5,149,9999,9999,9999,9999,3140708444
15,19,Jits_Linear_5,150,9999,9999,9999,9999,3141488740
15,19,Jits_Linear_5,151,9999,9999,9999,9999,3142269024
15,19,Jits_Linear_5,152,9999,9999,9999,9999,3143048284
15,19,Jits_Linear_5,153,9999,9999,9999,9999,3143828580
15,19,Jits_Linear_5,154,9999,9999,9999,9999,3144608872
15,19,Jits_Linear_5,155,9999,9999,9999,9999,3145398380
15,19,Jits_Linear_5,156,9999,9999,9999,9999,3146188920
15,19,Jits_Linear_5,157,9999,9999,9999,9999,3146978420
15,19,Jits_Linear_5,158,9999,9999,9999,9999,3147768900
15,19,Jits_Linear_5,159,9999,9999,9999,9999,3148558404
15,19,Jits_Linear_5,160,9999,9999,9999,9999,3149358192
15,19,Jits_Linear_5,161,9999,9999,9999,9999,3150158932
15,19,Jits_Linear_5,162,9999,9999,9999,9999,3150958700
15,19,Jits_Linear_5,163,9999,9999,9999,9999,3151758400
15,19,Jits_Linear_5,164,9999,9999,9999,9999,3152558188
15,19,Jits_Linear_5,165,9999,9999,9999,9999,3153368152
15,19,Jits_Linear_5,166,9999,9999,9999,9999,3154178124
15,19,Jits_Linear_5,167,9999,9999,9999,9999,3154988096
15,19,Jits_Linear_5,168,9999,9999,9999,9999,3155798132
15,19,Jits_Linear_5,169,9999,9999,9999,9999,3156608096
16,7,Jits_ISO_8,0,5,56,103,3167405364
16,7,Jits_ISO_8,1,5,63,98,3167408460
16,7,Jits_ISO_8,2,5,80,127,3167411656
16,7,Jits_ISO_8,0,5,56,103,3168206112
16,7,Jits_ISO_8,1,5,63,98,3168209208
16,7,Jits_ISO_8,2,5,80,127,3168212404
16,7,Jits_ISO_8,0,5,80,127,3168945588
16,7,Jits_ISO_8,1,5,63,98,3169035504
16,7,Jits_ISO_8,2,5,56,103,3169046144
16,7,Jits_ISO_8,0,5,56,103,3169765840
16,7,Jits_ISO_8,1,5,63,98,3169776184
16,7,Jits_ISO_8,2,5,80,127,3169866316
16,7,Jits_ISO_8,0,5,63,98,3170535668
16,7,Jits_ISO_8,1,5,80,127,3170565348
16,7,Jits_ISO_8,2,1,48,58,3170594248
16,7,Jits_ISO_8,3,5,56,103,3170596284
16,7,Jits_ISO_8,0,1,48,59,3171298100
16,7,Jits_ISO_8,1,5,56,103,3171335592
16,7,Jits_ISO_8,2,5,80,127,3171436052
16,7,Jits_ISO_8,3,5,63,98,3171486280
16,7,Jits_ISO_8,0,1,48,51,3172094452
16,7,Jits_ISO_8,1,5,56,103,3172136428
16,7,Jits_ISO_8,2,5,80,127,3172185364
16,7,Jits_ISO_8,3,5,63,98,3172226480
16,7,Jits_ISO_8,0,5,80,127,3172965888
16,7,Jits_ISO_8,1,5,63,98,3172995344
16,7,Jits_ISO_8,2,1,48,63,3173005732
16,7,Jits_ISO_8,3,5,56,103,3173066312
16,7,Jits_ISO_8,0,1,48,55,3173780284
16,7,Jits_ISO_8,1,5,63,98,3173796200
16,7,Jits_ISO_8,2,5,56,103,3173826028
16,7,Jits_ISO_8,3,5,80,127,3173886252
16,7,Jits_ISO_8,0,5,56,103,3174535432
16,7,Jits_ISO_8,1,5,80,127,3174538504
16,7,Jits_ISO_8,2,1,48,53,3174601952
16,7,Jits_ISO_8,3,5,63,98,3174656448
16,7,Jits_ISO_8,0,1,48,57,3175383768
16,7,Jits_ISO_8,1,5,56,103,3175416156
16,7,Jits_ISO_8,2,5,80,127,3175456172
16,7,Jits_ISO_8,3,5,63,98,3175466440
16,7,Jits_ISO_8,0,5,56,103,3176176096
16,7,Jits_ISO_8,1,5,80,127,3176195584
16,7,Jits_ISO_8,2,1,48,51,3176206120
16,7,Jits_ISO_8,3,5,63,98,3176276344
16,7,Jits_ISO_8,0,5,80,127,3176965704
16,7,Jits_ISO_8,1,1,48,61,3176969196
16,7,Jits_ISO_8,2,5,56,103,3177066012
16,7,Jits_ISO_8,3,5,63,98,3177076208
16,7,Jits_ISO_8,0,5,63,98,3177735468
16,7,Jits_ISO_8,1,5,80,127,3177796156
16,7,Jits_ISO_8,2,5,56,103,3177806132
16,7,Jits_ISO_8,3,1,48,57,3177841684
16,7,Jits_ISO_8,0,5,56,103,3178536372
16,7,Jits_ISO_8,1,1,48,57,3178599352
16,7,Jits_ISO_8,2,5,63,98,3178605900
16,7,Jits_ISO_8,3,5,80,127,3178609264
16,7,Jits_ISO_8,0,5,63,98,3179365904
16,7,Jits_ISO_8,1,1,48,47,3179383940
16,7,Jits_ISO_8,2,5,56,103,3179416120
16,7,Jits_ISO_8,3,5,80,127,3179419264
16,7,Jits_ISO_8,0,5,56,103,3180125596
16,7,Jits_ISO_8,1,5,80,127,3180128884
16,7,Jits_ISO_8,2,5,63,98,3180215604
16,7,Jits_ISO_8,3,1,48,58,3180224268
16,7,Jits_ISO_8,0,5,63,98,3180966164
16,7,Jits_ISO_8,1,1,48,49,3180977304
16,7,Jits_ISO_8,2,5,56,103,3181056296
16,7,Jits_ISO_8,3,5,80,127,3181086176
16,7,Jits_ISO_8,0,5,56,103,3181755836
16,7,Jits_ISO_8,1,1,48,45,3181798212
16,7,Jits_ISO_8,2,5,63,98,3181856080
16,7,Jits_ISO_8,3,5,80,127,3181885980
16,7,Jits_ISO_8,0,5,63,98,3182576100
16,7,Jits_ISO_8,1,5,56,103,3182586220
16,7,Jits_ISO_8,2,1,48,58,3182593620
16,7,Jits_ISO_8,3,5,80,127,3182676344
16,7,Jits_ISO_8,0,5,63,98,3183396188
16,7,Jits_ISO_8,1,1,48,59,3183415724
16,7,Jits_ISO_8,2,5,56,103,3183476128
16,7,Jits_ISO_8,3,5,80,127,3183479048
16,7,Jits_ISO_8,0,5,80,127,3184156112
16,7,Jits_ISO_8,1,5,63,98,3184175600
16,7,Jits_ISO_8,2,5,56,103,3184235768
16,7,Jits_ISO_8,3,1,48,41,3184271240
16,7,Jits_ISO_8,0,5,56,103,3184995896
16,7,Jits_ISO_8,1,5,63,98,3185016204
16,7,Jits_ISO_8,2,5,80,127,3185019568
16,7,Jits_ISO_8,3,1,48,51,3185047820
16,7,Jits_ISO_8,0,5,63,98,3185735976
16,7,Jits_ISO_8,1,5,80,127,3185815872
16,7,Jits_ISO_8,2,5,56,103,3185826220
16,7,Jits_ISO_8,3,1,48,60,3185828080
16,7,Jits_ISO_8,0,5,63,98,3186556288
16,7,Jits_ISO_8,1,5,56,103,3186575876
16,7,Jits_ISO_8,2,5,80,127,3186625852
16,7,Jits_ISO_8,3,1,48,59,3186651144
16,7,Jits_ISO_8,0,5,80,127,3187355948
16,7,Jits_ISO_8,1,5,63,98,3187395888
16,7,Jits_ISO_8,2,1,48,61,3187413456
16,7,Jits_ISO_8,3,5,56,103,3187416712
16,7,Jits_ISO_8,0,5,56,103,3188195828
16,7,Jits_ISO_8,1,5,63,98,3188205880
16,7,Jits_ISO_8,2,5,80,127,3188226560
16,7,Jits_ISO_8,3,1,48,57,3188229680
16,7,Jits_ISO_8,0,5,56,103,3188925876
16,7,Jits_ISO_8,1,5,63,98,3189015940
16,7,Jits_ISO_8,2,1,48,59,3189033436
16,7,Jits_ISO_8,3,5,80,127,3189076252
16,7,Jits_ISO_8,0,5,80,127,3189756396
16,7,Jits_ISO_8,1,5,56,103,3189765696
16,7,Jits_ISO_8,2,1,48,65,3189791960
16,7,Jits_ISO_8,3,5,63,98,3189836044
16,7,Jits_ISO_8,0,5,63,98,3190585792
16,7,Jits_ISO_8,1,1,48,57,3190616192
16,7,Jits_ISO_8,2,5,80,127,3190675800
16,7,Jits_ISO_8,3,5,56,103,3190686072
16,7,Jits_ISO_8,0,5,63,98,3191325948
16,7,Jits_ISO_8,1,5,80,127,3191376372
16,7,Jits_ISO_8,2,1,48,65,3191407064
16,7,Jits_ISO_8,3,5,56,103,3191435636
16,7,Jits_ISO_8,0,5,56,103,3192155624
16,7,Jits_ISO_8,1,1,48,69,3192162412
16,7,Jits_ISO_8,2,5,80,127,3192205672
16,7,Jits_ISO_8,3,5,63,98,3192226156
16,7,Jits_ISO_8,0,5,56,103,3192925828
16,7,Jits_ISO_8,1,5,80,127,3192986020
16,7,Jits_ISO_8,2,1,48,52,3193035444
16,7,Jits_ISO_8,3,5,63,98,3193055696
16,7,Jits_ISO_8,0,5,56,103,3193726524
16,7,Jits_ISO_8,1,5,80,127,3193756000
16,7,Jits_ISO_8,2,5,63,98,3193785676
16,7,Jits_ISO_8,3,1,48,62,3193825584
16,7,Jits_ISO_8,0,5,56,103,3194565980
16,7,Jits_ISO_8,1,5,80,127,3194585540
16,7,Jits_ISO_8,2,1,48,55,3194621764
16,7,Jits_ISO_8,3,5,63,98,3194645924
16,7,Jits_ISO_8,0,1,48,61,3195425312
16,7,Jits_ISO_8,1,5,80,127,3195445716
16,7,Jits_ISO_8,2,5,56,103,3195455840
16,7,Jits_ISO_8,3,5,63,98,3195466108
16,7,Jits_ISO_8,0,5,56,103,3196205508
16,7,Jits_ISO_8,1,1,48,63,3196235004
16,7,Jits_ISO_8,2,5,80,127,3196246560
16,7,Jits_ISO_8,3,5,63,98,3196276012
16,7,Jits_ISO_8,0,5,56,103,3196975640
16,7,Jits_ISO_8,1,5,63,98,3197006068
16,7,Jits_ISO_8,2,5,80,127,3197046080
16,7,Jits_ISO_8,3,1,48,58,3197070548
16,7,Jits_ISO_8,0,5,80,127,3197726116
16,7,Jits_ISO_8,1,5,63,98,3197776172
16,7,Jits_ISO_8,2,5,56,103,3197795736
16,7,Jits_ISO_8,3,1,48,59,3197859108
16,7,Jits_ISO_8,0,5,56,103,3198555660
16,7,Jits_ISO_8,1,5,80,127,3198626264
16,7,Jits_ISO_8,2,1,48,62,3198651932
16,7,Jits_ISO_8,3,5,63,98,3198685528
16,7,Jits_ISO_8,0,5,80,127,3199356508
16,7,Jits_ISO_8,1,5,63,98,3199446300
16,7,Jits_ISO_8,2,1,48,62,3199455792
16,7,Jits_ISO_8,3,5,56,103,3199465704
16,7,Jits_ISO_8,0,5,63,98,3200175524
16,7,Jits_ISO_8,1,5,56,103,3200195836
16,7,Jits_ISO_8,2,5,80,127,3200235996
16,7,Jits_ISO_8,3,1,48,52,3200279648
16,7,Jits_ISO_8,0,5,80,127,3200936492
16,7,Jits_ISO_8,1,5,63,98,3200955684
16,7,Jits_ISO_8,2,1,48,57,3201028772
16,7,Jits_ISO_8,3,5,56,103,3201035620
16,7,Jits_ISO_8,0,5,63,98,3201725800
16,7,Jits_ISO_8,1,1,48,59,3201824668
16,7,Jits_ISO_8,2,5,56,103,3201836600
16,7,Jits_ISO_8,3,5,80,127,3201839520
16,7,Jits_ISO_8,0,5,63,98,3202546472
16,7,Jits_ISO_8,1,5,56,103,3202556672
16,7,Jits_ISO_8,2,5,80,127,3202559584
16,7,Jits_ISO_8,3,1,48,62,3202618748
16,7,Jits_ISO_8,0,5,56,103,3203326312
16,7,Jits_ISO_8,1,1,48,60,3203344272
16,7,Jits_ISO_8,2,5,80,127,3203446396
16,7,Jits_ISO_8,3,5,63,98,3203486356
16,7,Jits_ISO_8,0,5,56,103,3204145448
16,7,Jits_ISO_8,1,5,80,127,3204226292
16,7,Jits_ISO_8,2,5,63,98,3204245804
16,7,Jits_ISO_8,3,1,48,55,3204268328
16,7,Jits_ISO_8,0,5,56,103,3204946292
16,7,Jits_ISO_8,1,1,48,58,3205052148
16,7,Jits_ISO_8,2,5,63,98,3205056304
16,7,Jits_ISO_8,3,5,80,127,3205059512
16,7,Jits_ISO_8,0,5,56,103,3205775852
16,7,Jits_ISO_8,1,5,80,127,3205805532
16,7,Jits_ISO_8,2,5,63,98,3205825840
16,7,Jits_ISO_8,3,1,48,63,3205830452
16,7,Jits_ISO_8,0,5,63,98,3206556320
16,7,Jits_ISO_8,1,5,56,103,3206566440
16,7,Jits_ISO_8,2,5,80,127,3206575440
16,7,Jits_ISO_8,3,1,48,49,3206634076
16,7,Jits_ISO_8,0,5,80,127,3207345460
16,7,Jits_ISO_8,1,1,48,44,3207367608
16,7,Jits_ISO_8,2,5,56,103,3207395732
16,7,Jits_ISO_8,3,5,63,98,3207435520
16,7,Jits_ISO_8,0,5,80,127,3208165936
16,7,Jits_ISO_8,1,5,63,98,3208186320
16,7,Jits_ISO_8,2,1,48,61,3208206676
16,7,Jits_ISO_8,3,5,56,103,3208236440
16,7,Jits_ISO_8,0,5,80,127,3208975696
16,7,Jits_ISO_8,1,1,48,63,3208980912
16,7,Jits_ISO_8,2,5,56,103,3209005368
16,7,Jits_ISO_8,3,5,63,98,3209076244
16,7,Jits_ISO_8,0,1,48,51,3209807160
16,7,Jits_ISO_8,1,5,56,103,3209825764
16,7,Jits_ISO_8,2,5,80,127,3209836108
16,7,Jits_ISO_8,3,5,63,98,3209876000
16,7,Jits_ISO_8,0,5,56,103,3210536328
16,7,Jits_ISO_8,1,5,63,98,3210555740
16,7,Jits_ISO_8,2,5,80,127,3210626392
16,7,Jits_ISO_8,3,1,48,56,3210647068
16,7,Jits_ISO_8,0,5,63,98,3211355528
16,7,Jits_ISO_8,1,1,48,49,3211402092
16,7,Jits_ISO_8,2,5,80,127,3211416012
16,7,Jits_ISO_8,3,5,56,103,3211436396
16,7,Jits_ISO_8,0,5,80,127,3212146020
16,7,Jits_ISO_8,1,1,48,54,3212156936
16,7,Jits_ISO_8,2,5,56,103,3212175860
16,7,Jits_ISO_8,3,5,63,98,3212205316
16,7,Jits_ISO_8,0,5,56,103,3212946132
16,7,Jits_ISO_8,1,1,48,58,3212980192
16,7,Jits_ISO_8,2,5,63,98,3213006148
16,7,Jits_ISO_8,3,5,80,127,3213065640
16,7,Jits_ISO_8,0,5,80,127,3213766160
16,7,Jits_ISO_8,1,5,56,103,3213785428
16,7,Jits_ISO_8,2,1,48,54,3213806604
16,7,Jits_ISO_8,3,5,63,98,3213856220
16,7,Jits_ISO_8,0,5,80,127,3214565884
16,7,Jits_ISO_8,1,5,63,98,3214586124
16,7,Jits_ISO_8,2,1,48,62,3214594864
16,7,Jits_ISO_8,3,5,56,103,3214616088
16,7,Jits_ISO_8,0,5,80,127,3215356240
16,7,Jits_ISO_8,1,5,63,98,3215375804
16,7,Jits_ISO_8,2,1,48,60,3215404924
16,7,Jits_ISO_8,3,5,56,103,3215436264
16,7,Jits_ISO_8,0,5,80,127,3216155968
16,7,Jits_ISO_8,1,1,48,64,3216199920
16,7,Jits_ISO_8,2,5,56,103,3216256360
16,7,Jits_ISO_8,3,5,63,98,3216286064
16,7,Jits_ISO_8,0,5,63,98,3216945508
16,7,Jits_ISO_8,1,5,80,127,3216995788
16,7,Jits_ISO_8,2,1,48,53,3217008048
16,7,Jits_ISO_8,3,5,56,103,3217016316
16,7,Jits_ISO_8,0,5,80,127,3217786124
16,7,Jits_ISO_8,1,1,48,60,3217802872
16,7,Jits_ISO_8,2,5,56,103,3217816040
16,7,Jits_ISO_8,3,5,63,98,3217819032
16,7,Jits_ISO_8,0,1,48,62,3218578408
16,7,Jits_ISO_8,1,5,63,98,3218615528
16,7,Jits_ISO_8,2,5,56,103,3218655544
16,7,Jits_ISO_8,3,5,80,127,3218675988
16,7,Jits_ISO_8,0,5,80,127,3219356132
16,7,Jits_ISO_8,1,1,48,59,3219378436
16,7,Jits_ISO_8,2,5,63,98,3219436076
16,7,Jits_ISO_8,3,5,56,103,3219476148
16,7,Jits_ISO_8,0,5,63,98,3220176240
16,7,Jits_ISO_8,1,1,48,63,3220205364
16,7,Jits_ISO_8,2,5,80,127,3220256032
16,7,Jits_ISO_8,3,5,56,103,3220275816
16,7,Jits_ISO_8,0,5,56,103,3221015816
16,7,Jits_ISO_8,1,5,63,98,3221026308
16,7,Jits_ISO_8,2,1,48,50,3221054612
16,7,Jits_ISO_8,3,5,80,127,3221066164
16,7,Jits_ISO_8,0,5,56,103,3221735968
16,7,Jits_ISO_8,1,5,80,127,3221739112
16,7,Jits_ISO_8,2,1,48,56,3221864956
16,7,Jits_ISO_8,3,5,63,98,3221876140
16,7,Jits_ISO_8,0,5,56,103,3222526392
16,7,Jits_ISO_8,1,5,63,98,3222616528
16,7,Jits_ISO_8,2,1,48,58,3222624604
16,7,Jits_ISO_8,3,5,80,127,3222686152
16,7,Jits_ISO_8,0,5,63,98,3223405988
16,7,Jits_ISO_8,1,5,80,127,3223409352
16,7,Jits_ISO_8,2,1,48,51,3223456480
16,7,Jits_ISO_8,3,5,56,103,3223466320
16,7,Jits_ISO_8,0,5,80,127,3224245804
16,7,Jits_ISO_8,1,5,56,103,3224266040
16,7,Jits_ISO_8,2,5,63,98,3224276312
16,7,Jits_ISO_8,3,1,48,44,3224281452
16,7,Jits_ISO_8,0,5,56,103,3224956132
16,7,Jits_ISO_8,1,5,63,98,3224965432
16,7,Jits_ISO_8,2,5,80,127,3225036184
16,7,Jits_ISO_8,3,1,48,48,3225065376
16,7,Jits_ISO_8,0,5,80,127,3225755956
16,7,Jits_ISO_8,1,5,56,103,3225806160
16,7,Jits_ISO_8,2,1,48,57,3225813688
16,7,Jits_ISO_8,3,5,63,98,3225856352
16,7,Jits_ISO_8,0,1,48,57,3226600748
16,7,Jits_ISO_8,1,5,56,103,3226635692
16,7,Jits_ISO_8,2,5,63,98,3226645816
16,7,Jits_ISO_8,3,5,80,127,3226685752
16,7,Jits_ISO_8,0,5,56,103,3227376000
16,7,Jits_ISO_8,1,5,63,98,3227415868
16,7,Jits_ISO_8,2,1,48,48,3227418688
16,7,Jits_ISO_8,3,5,80,127,3227466060
16,7,Jits_ISO_8,0,5,80,127,3228135940
16,7,Jits_ISO_8,1,5,56,103,3228185920
16,7,Jits_ISO_8,2,5,63,98,3228205556
16,7,Jits_ISO_8,3,1,48,53,3228254828
16,7,Jits_ISO_8,0,5,80,127,3228945852
16,7,Jits_ISO_8,1,5,63,98,3229006096
16,7,Jits_ISO_8,2,1,48,58,3229062400
16,7,Jits_ISO_8,3,5,56,103,3229086060
16,7,Jits_ISO_8,0,5,80,127,3229726024
16,7,Jits_ISO_8,1,5,56,103,3229765888
16,7,Jits_ISO_8,2,5,63,98,3229785820
16,7,Jits_ISO_8,3,1,48,54,3229830588
16,7,Jits_ISO_8,0,1,48,57,3230559568
16,7,Jits_ISO_8,1,5,56,103,3230575932
16,7,Jits_ISO_8,2,5,80,127,3230586128
16,7,Jits_ISO_8,3,5,63,98,3230626016
16,7,Jits_ISO_8,0,5,56,103,3231446248
16,7,Jits_ISO_8,1,1,48,58,3231473184
16,7,Jits_ISO_8,2,5,63,98,3231486328
16,7,Jits_ISO_8,3,5,80,127,3231489692
16,7,Jits_ISO_8,0,5,63,98,3232135812
16,7,Jits_ISO_8,1,5,80,127,3232175552
16,7,Jits_ISO_8,2,5,56,103,3232246128
16,7,Jits_ISO_8,3,1,48,54,3232312092
16,7,Jits_ISO_8,0,5,63,98,3232926100
16,7,Jits_ISO_8,1,5,56,103,3233006048
16,7,Jits_ISO_8,2,5,80,127,3233066288
16,7,Jits_ISO_8,3,1,48,56,3233091728
16,7,Jits_ISO_8,0,5,80,127,3233736000
16,7,Jits_ISO_8,1,5,63,98,3233786200
16,7,Jits_ISO_8,2,5,56,103,3233815876
16,7,Jits_ISO_8,3,1,48,49,3233927620
16,7,Jits_ISO_8,0,5,56,103,3234525456
16,7,Jits_ISO_8,1,5,63,98,3234575660
16,7,Jits_ISO_8,2,5,80,127,3234585928
16,7,Jits_ISO_8,3,1,48,53,3234723908
16,7,Jits_ISO_8,0,5,56,103,3235335588
16,7,Jits_ISO_8,1,5,63,98,3235446028
16,7,Jits_ISO_8,2,5,80,127,3235465588
16,7,Jits_ISO_8,3,1,48,61,3235512024
16,7,Jits_ISO_8,0,5,63,98,3236136436
16,7,Jits_ISO_8,1,5,80,127,3236185740
16,7,Jits_ISO_8,2,5,56,103,3236275600
16,7,Jits_ISO_8,3,1,48,60,3236328536
16,7,Jits_ISO_8,0,5,63,98,3236925804
16,7,Jits_ISO_8,1,5,80,127,3236955556
16,7,Jits_ISO_8,2,1,48,42,3236986768
16,7,Jits_ISO_8,3,5,56,103,3237045708
16,7,Jits_ISO_8,0,1,48,52,3237710488
16,7,Jits_ISO_8,1,5,63,98,3237725728
16,7,Jits_ISO_8,2,5,56,103,3237735852
16,7,Jits_ISO_8,3,5,80,127,3237836256
16,7,Jits_ISO_8,0,1,48,54,3238455128
16,7,Jits_ISO_8,1,5,63,98,3238625544
16,7,Jits_ISO_8,2,5,80,127,3238656488
16,7,Jits_ISO_8,3,5,56,103,3238686016
16,7,Jits_ISO_8,0,1,48,60,3239441504
16,7,Jits_ISO_8,1,5,80,127,3239445804
16,7,Jits_ISO_8,2,5,63,98,3239456076
16,7,Jits_ISO_8,3,5,56,103,3239485676
16,7,Jits_ISO_8,0,5,80,127,3240146476
16,7,Jits_ISO_8,1,5,63,98,3240165668
16,7,Jits_ISO_8,2,5,56,103,3240215868
16,7,Jits_ISO_8,3,1,48,49,3240316748
16,7,Jits_ISO_8,0,5,63,98,3240975716
16,7,Jits_ISO_8,1,1,48,53,3240979588
16,7,Jits_ISO_8,2,5,80,127,3241036104
16,7,Jits_ISO_8,3,5,56,103,3241055592
16,7,Jits_ISO_8,0,5,63,98,3241735420
16,7,Jits_ISO_8,1,1,48,56,3241753360
16,7,Jits_ISO_8,2,5,56,103,3241785692
16,7,Jits_ISO_8,3,5,80,127,3241795812
16,7,Jits_ISO_8,0,1,48,64,3242511108
16,7,Jits_ISO_8,1,5,56,103,3242566136
16,7,Jits_ISO_8,2,5,80,127,3242576404
16,7,Jits_ISO_8,3,5,63,98,3242675540
16,7,Jits_ISO_8,0,5,80,127,3243325692
16,7,Jits_ISO_8,1,1,48,51,3243333444
16,7,Jits_ISO_8,2,5,63,98,3243336032
16,7,Jits_ISO_8,3,5,56,103,3243485508
16,7,Jits_ISO_8,0,1,48,51,3244100876
16,7,Jits_ISO_8,1,5,63,98,3244135824
16,7,Jits_ISO_8,2,5,80,127,3244175716
16,7,Jits_ISO_8,3,5,56,103,3244255644
16,7,Jits_ISO_8,0,1,48,47,3244894824
16,7,Jits_ISO_8,1,5,56,103,3244926240
16,7,Jits_ISO_8,2,5,80,127,3245025604
16,7,Jits_ISO_8,3,5,63,98,3245046208
16,7,Jits_ISO_8,0,1,48,57,3245733276
16,7,Jits_ISO_8,1,5,80,127,3245785312
16,7,Jits_ISO_8,2,5,56,103,3245795660
16,7,Jits_ISO_8,3,5,63,98,3245885852
16,7,Jits_ISO_8,0,5,56,103,3246586304
16,7,Jits_ISO_8,1,1,48,50,3246597296
16,7,Jits_ISO_8,2,5,63,98,3246605564
16,7,Jits_ISO_8,3,5,80,127,3246685432
16,7,Jits_ISO_8,0,5,63,98,3247335760
16,7,Jits_ISO_8,1,5,56,103,3247426116
16,7,Jits_ISO_8,2,5,80,127,3247428960
16,7,Jits_ISO_8,3,1,48,53,3247476584
16,7,Jits_ISO_8,0,5,56,103,3248166400
16,7,Jits_ISO_8,1,1,48,58,3248183220
16,7,Jits_ISO_8,2,5,80,127,3248225516
16,7,Jits_ISO_8,3,5,63,98,3248236308
16,7,Jits_ISO_8,0,1,48,48,3248996812
16,7,Jits_ISO_8,1,5,80,127,3249016244
16,7,Jits_ISO_8,2,5,56,103,3249026364
16,7,Jits_ISO_8,3,5,63,98,3249029652
16,7,Jits_ISO_8,0,5,56,103,3249776092
16,7,Jits_ISO_8,1,5,80,127,3249786216
16,7,Jits_ISO_8,2,5,63,98,3249805800
16,7,Jits_ISO_8,3,1,48,51,3249833260
16,7,Jits_ISO_8,0,5,63,98,3250546220
16,7,Jits_ISO_8,1,5,80,127,3250605444
16,7,Jits_ISO_8,2,1,48,48,3250622936
16,7,Jits_ISO_8,3,5,56,103,3250655564
16,7,Jits_ISO_8,0,1,48,55,3251420092
16,7,Jits_ISO_8,1,5,63,98,3251425524
16,7,Jits_ISO_8,2,5,56,103,3251435792
16,7,Jits_ISO_8,3,5,80,127,3251486292
16,7,Jits_ISO_8,0,5,63,98,3252126340
16,7,Jits_ISO_8,1,5,80,127,3252145456
16,7,Jits_ISO_8,2,5,56,103,3252156096
16,7,Jits_ISO_8,3,1,48,55,3252171496
16,7,Jits_ISO_8,0,5,63,98,3252925816
16,7,Jits_ISO_8,1,5,80,127,3252929104
16,7,Jits_ISO_8,2,1,48,60,3252962564
16,7,Jits_ISO_8,3,5,56,103,3252965672
16,7,Jits_ISO_8,0,1,48,44,3253761060
16,7,Jits_ISO_8,1,5,63,98,3253796080
16,7,Jits_ISO_8,2,5,80,127,3253825904
16,7,Jits_ISO_8,3,5,56,103,3253836100
16,7,Jits_ISO_8,0,5,56,103,3254545676
16,7,Jits_ISO_8,1,5,80,127,3254575428
16,7,Jits_ISO_8,2,1,48,53,3254605172
16,7,Jits_ISO_8,3,5,63,98,3254607040
16,7,Jits_ISO_8,0,1,48,55,3255364320
16,7,Jits_ISO_8,1,5,63,98,3255445960
16,7,Jits_ISO_8,2,5,56,103,3255486032
16,7,Jits_ISO_8,3,5,80,127,3255488952
16,7,Jits_ISO_8,0,5,80,127,3256146228
16,7,Jits_ISO_8,1,5,56,103,3256226276
16,7,Jits_ISO_8,2,1,48,52,3256238980
16,7,Jits_ISO_8,3,5,63,98,3256276244
16,7,Jits_ISO_8,0,5,80,127,3256925648
16,7,Jits_ISO_8,1,5,56,103,3256945960
16,7,Jits_ISO_8,2,5,63,98,3257036116
16,7,Jits_ISO_8,3,1,48,56,3257091820
16,7,Jits_ISO_8,0,5,80,127,3257766300
16,7,Jits_ISO_8,1,5,63,98,3257806240
16,7,Jits_ISO_8,2,5,56,103,3257846104
16,7,Jits_ISO_8,3,1,48,53,3257899492
16,7,Jits_ISO_8,0,5,63,98,3258536208
16,7,Jits_ISO_8,1,5,80,127,3258595628
16,7,Jits_ISO_8,2,5,56,103,3258626352
16,7,Jits_ISO_8,3,1,48,62,3258639584
16,7,Jits_ISO_8,0,5,56,103,3259336136
16,7,Jits_ISO_8,1,5,80,127,3259365964
16,7,Jits_ISO_8,2,5,63,98,3259455944
16,7,Jits_ISO_8,3,1,48,57,3259489852
16,7,Jits_ISO_8,0,5,56,103,3260146124
16,7,Jits_ISO_8,1,5,80,127,3260255592
16,7,Jits_ISO_8,2,1,48,61,3260270992
16,7,Jits_ISO_8,3,5,63,98,3260286308
16,7,Jits_ISO_8,0,5,56,103,3260995832
16,7,Jits_ISO_8,1,5,63,98,3261056224
16,7,Jits_ISO_8,2,5,80,127,3261085996
16,7,Jits_ISO_8,3,1,48,48,3261092932
16,7,Jits_ISO_8,0,5,56,103,3261765968
16,7,Jits_ISO_8,1,5,63,98,3261835676
16,7,Jits_ISO_8,2,5,80,127,3261856132
16,7,Jits_ISO_8,3,1,48,56,3261905480
16,7,Jits_ISO_8,0,5,80,127,3262536172
16,7,Jits_ISO_8,1,5,63,98,3262555360
16,7,Jits_ISO_8,2,5,56,103,3262605888
16,7,Jits_ISO_8,3,1,48,58,3262689316
16,7,Jits_ISO_8,0,9999,9999,9999,9999,3167803452
16,7,Jits_ISO_8,1,9999,9999,9999,9999,3168603228
16,7,Jits_ISO_8,2,9999,9999,9999,9999,3169403996
16,7,Jits_ISO_8,3,9999,9999,9999,9999,3170203740
16,7,Jits_ISO_8,4,9999,9999,9999,9999,3171003512
16,7,Jits_ISO_8,5,9999,9999,9999,9999,3171803228
16,7,Jits_ISO_8,6,9999,9999,9999,9999,3172603984
16,7,Jits_ISO_8,7,9999,9999,9999,9999,3173403768
16,7,Jits_ISO_8,8,9999,9999,9999,9999,3174203500
16,7,Jits_ISO_8,9,9999,9999,9999,9999,3175003200
16,7,Jits_ISO_8,10,9999,9999,9999,9999,3175803976
16,7,Jits_ISO_8,11,9999,9999,9999,9999,3176603712
16,7,Jits_ISO_8,12,9999,9999,9999,9999,3177403444
16,7,Jits_ISO_8,13,9999,9999,9999,9999,3178203236
16,7,Jits_ISO_8,14,9999,9999,9999,9999,3179003984
16,7,Jits_ISO_8,15,9999,9999,9999,9999,3179803700
16,7,Jits_ISO_8,16,9999,9999,9999,9999,3180603468
16,7,Jits_ISO_8,17,9999,9999,9999,9999,3181403200
16,7,Jits_ISO_8,18,9999,9999,9999,9999,3182203964
16,7,Jits_ISO_8,19,9999,9999,9999,9999,3183003716
16,7,Jits_ISO_8,20,9999,9999,9999,9999,3183803500
16,7,Jits_ISO_8,21,9999,9999,9999,9999,3184603260
16,7,Jits_ISO_8,22,9999,9999,9999,9999,3185404024
16,7,Jits_ISO_8,23,9999,9999,9999,9999,3186203748
16,7,Jits_ISO_8,24,9999,9999,9999,9999,3187003460
16,7,Jits_ISO_8,25,9999,9999,9999,9999,3187803240
16,7,Jits_ISO_8,26,9999,9999,9999,9999,3188604016
16,7,Jits_ISO_8,27,9999,9999,9999,9999,3189403768
16,7,Jits_ISO_8,28,9999,9999,9999,9999,3190203492
16,7,Jits_ISO_8,29,9999,9999,9999,9999,3191003228
16,7,Jits_ISO_8,30,9999,9999,9999,9999,3191803984
16,7,Jits_ISO_8,31,9999,9999,9999,9999,3192603768
16,7,Jits_ISO_8,32,9999,9999,9999,9999,3193403492
16,7,Jits_ISO_8,33,9999,9999,9999,9999,3194203208
16,7,Jits_ISO_8,34,9999,9999,9999,9999,3195003984
16,7,Jits_ISO_8,35,9999,9999,9999,9999,3195803740
16,7,Jits_ISO_8,36,9999,9999,9999,9999,3196603456
16,7,Jits_ISO_8,37,9999,9999,9999,9999,3197403232
16,7,Jits_ISO_8,38,9999,9999,9999,9999,3198204000
16,7,Jits_ISO_8,39,9999,9999,9999,9999,3199003732
16,7,Jits_ISO_8,40,9999,9999,9999,9999,3199803460
16,7,Jits_ISO_8,41,9999,9999,9999,9999,3200603192
16,7,Jits_ISO_8,42,9999,9999,9999,9999,3201404012
16,7,Jits_ISO_8,43,9999,9999,9999,9999,3202203752
16,7,Jits_ISO_8,44,9999,9999,9999,9999,3203003444
16,7,Jits_ISO_8,45,9999,9999,9999,9999,3203803232
16,7,Jits_ISO_8,46,9999,9999,9999,9999,3204604004
16,7,Jits_ISO_8,47,9999,9999,9999,9999,3205403720
16,7,Jits_ISO_8,48,9999,9999,9999,9999,3206203444
16,7,Jits_ISO_8,49,9999,9999,9999,9999,3207003236
16,7,Jits_ISO_8,50,9999,9999,9999,9999,3207803992
16,7,Jits_ISO_8,51,9999,9999,9999,9999,3208603740
16,7,Jits_ISO_8,52,9999,9999,9999,9999,3209403468
16,7,Jits_ISO_8,53,9999,9999,9999,9999,3210203196
16,7,Jits_ISO_8,54,9999,9999,9999,9999,3211004024
16,7,Jits_ISO_8,55,9999,9999,9999,9999,3211803744
16,7,Jits_ISO_8,56,9999,9999,9999,9999,3212603448
16,7,Jits_ISO_8,57,9999,9999,9999,9999,3213403248
16,7,Jits_ISO_8,58,9999,9999,9999,9999,3214204016
16,7,Jits_ISO_8,59,9999,9999,9999,9999,3215003764
16,7,Jits_ISO_8,60,9999,9999,9999,9999,3215803488
16,7,Jits_ISO_8,61,9999,9999,9999,9999,3216603220
16,7,Jits_ISO_8,62,9999,9999,9999,9999,3217403988
16,7,Jits_ISO_8,63,9999,9999,9999,9999,3218203764
16,7,Jits_ISO_8,64,9999,9999,9999,9999,3219003496
16,7,Jits_ISO_8,65,9999,9999,9999,9999,3219803208
16,7,Jits_ISO_8,66,9999,9999,9999,9999,3220603984
16,7,Jits_ISO_8,67,9999,9999,9999,9999,3221403724
16,7,Jits_ISO_8,68,9999,9999,9999,9999,3222203508
16,7,Jits_ISO_8,69,9999,9999,9999,9999,3223003236
16,7,Jits_ISO_8,70,9999,9999,9999,9999,3223804004
16,7,Jits_ISO_8,71,9999,9999,9999,9999,3224603728
16,7,Jits_ISO_8,72,9999,9999,9999,9999,3225403452
16,7,Jits_ISO_8,73,9999,9999,9999,9999,3226203252
16,7,Jits_ISO_8,74,9999,9999,9999,9999,3227003956
16,7,Jits_ISO_8,75,9999,9999,9999,9999,3227803768
16,7,Jits_ISO_8,76,9999,9999,9999,9999,3228603488
16,7,Jits_ISO_8,77,9999,9999,9999,9999,3229403216
16,7,Jits_ISO_8,78,9999,9999,9999,9999,3230203980
16,7,Jits_ISO_8,79,9999,9999,9999,9999,3231003700
16,7,Jits_ISO_8,80,9999,9999,9999,9999,3231803488
16,7,Jits_ISO_8,81,9999,9999,9999,9999,3232603208
16,7,Jits_ISO_8,82,9999,9999,9999,9999,3233403964
16,7,Jits_ISO_8,83,9999,9999,9999,9999,3234203768
16,7,Jits_ISO_8,84,9999,9999,9999,9999,3235003488
16,7,Jits_ISO_8,85,9999,9999,9999,9999,3235803212
16,7,Jits_ISO_8,86,9999,9999,9999,9999,3236603984
16,7,Jits_ISO_8,87,9999,9999,9999,9999,3237403764
16,7,Jits_ISO_8,88,9999,9999,9999,9999,3238203472
16,7,Jits_ISO_8,89,9999,9999,9999,9999,3239003188
16,7,Jits_ISO_8,90,9999,9999,9999,9999,3239803956
16,7,Jits_ISO_8,91,9999,9999,9999,9999,3240603760
16,7,Jits_ISO_8,92,9999,9999,9999,9999,3241403484
16,7,Jits_ISO_8,93,9999,9999,9999,9999,3242203188
16,7,Jits_ISO_8,94,9999,9999,9999,9999,3243004020
16,7,Jits_ISO_8,95,9999,9999,9999,9999,3243803728
16,7,Jits_ISO_8,96,9999,9999,9999,9999,3244603452
16,7,Jits_ISO_8,97,9999,9999,9999,9999,3245403236
16,7,Jits_ISO_8,98,9999,9999,9999,9999,3246203996
16,7,Jits_ISO_8,99,9999,9999,9999,9999,3247003736
16,7,Jits_ISO_8,100,9999,9999,9999,9999,3247803448
16,7,Jits_ISO_8,101,9999,9999,9999,9999,3248603236
16,7,Jits_ISO_8,102,9999,9999,9999,9999,3249404000
16,7,Jits_ISO_8,103,9999,9999,9999,9999,3250203708
16,7,Jits_ISO_8,104,9999,9999,9999,9999,3251003508
16,7,Jits_ISO_8,105,9999,9999,9999,9999,3251803224
16,7,Jits_ISO_8,106,9999,9999,9999,9999,3252603972
16,7,Jits_ISO_8,107,9999,9999,9999,9999,3253403760
16,7,Jits_ISO_8,108,9999,9999,9999,9999,3254203476
16,7,Jits_ISO_8,109,9999,9999,9999,9999,3255003256
16,7,Jits_ISO_8,110,9999,9999,9999,9999,3255804028
16,7,Jits_ISO_8,111,9999,9999,9999,9999,3256603740
16,7,Jits_ISO_8,112,9999,9999,9999,9999,3257403460
16,7,Jits_ISO_8,113,9999,9999,9999,9999,3258203260
16,7,Jits_ISO_8,114,9999,9999,9999,9999,3259003956
16,7,Jits_ISO_8,115,9999,9999,9999,9999,3259803760
16,7,Jits_ISO_8,116,9999,9999,9999,9999,3260603488
16,7,Jits_ISO_8,117,9999,9999,9999,9999,3261403224
16,7,Jits_ISO_8,118,9999,9999,9999,9999,3262203996
16,7,Jits_ISO_8,119,9999,9999,9999,9999,3263003720
17,16,Jits_ISO_5,0,5,56,103,3272967656
17,16,Jits_ISO_5,1,5,63,98,3272970680
17,16,Jits_ISO_5,2,5,80,127,3272973948
17,16,Jits_ISO_5,0,5,56,103,3273477716
17,16,Jits_ISO_5,1,5,63,98,3273480816
17,16,Jits_ISO_5,2,5,80,127,3273483860
17,16,Jits_ISO_5,0,5,56,103,3273978204
17,16,Jits_ISO_5,1,5,80,127,3273987576
17,16,Jits_ISO_5,2,5,63,98,3274007812
17,16,Jits_ISO_5,0,5,63,98,3274427828
17,16,Jits_ISO_5,1,5,80,127,3274457648
17,16,Jits_ISO_5,2,5,56,103,3274467548
17,16,Jits_ISO_5,0,5,80,127,3274987856
17,16,Jits_ISO_5,1,5,56,103,3274998204
17,16,Jits_ISO_5,2,5,63,98,3275027804
17,16,Jits_ISO_5,0,5,63,98,3275478536
17,16,Jits_ISO_5,1,5,56,103,3275508064
17,16,Jits_ISO_5,2,5,80,127,3275518408
17,16,Jits_ISO_5,0,5,56,103,3275927776
17,16,Jits_ISO_5,1,5,63,98,3275978048
17,16,Jits_ISO_5,2,5,80,127,3275997760
17,16,Jits_ISO_5,0,5,80,127,3276427588
17,16,Jits_ISO_5,1,5,63,98,3276477788
17,16,Jits_ISO_5,2,5,56,103,3276517728
17,16,Jits_ISO_5,0,5,56,103,3276928504
17,16,Jits_ISO_5,1,5,63,98,3276958056
17,16,Jits_ISO_5,2,5,80,127,3277027656
17,16,Jits_ISO_5,3,1,48,33,3277039768
17,16,Jits_ISO_5,0,5,56,103,3277428024
17,16,Jits_ISO_5,1,5,80,127,3277487688
17,16,Jits_ISO_5,2,5,63,98,3277518336
17,16,Jits_ISO_5,3,1,48,49,3277522800
17,16,Jits_ISO_5,0,5,56,103,3277938032
17,16,Jits_ISO_5,1,5,63,98,3277948600
17,16,Jits_ISO_5,2,5,80,127,3277988488
17,16,Jits_ISO_5,3,1,48,55,3278007268
17,16,Jits_ISO_5,0,5,63,98,3278427588
17,16,Jits_ISO_5,1,1,48,63,3278490140
17,16,Jits_ISO_5,2,5,80,127,3278508524
17,16,Jits_ISO_5,3,5,56,103,3278517744
17,16,Jits_ISO_5,0,5,63,98,3278978560
17,16,Jits_ISO_5,1,1,48,55,3278990768
17,16,Jits_ISO_5,2,5,56,103,3279018436
17,16,Jits_ISO_5,3,5,80,127,3279021652
17,16,Jits_ISO_5,0,5,56,103,3279438128
17,16,Jits_ISO_5,1,5,63,98,3279448548
17,16,Jits_ISO_5,2,1,48,56,3279484028
17,16,Jits_ISO_5,3,5,80,127,3279488552
17,16,Jits_ISO_5,0,5,56,103,3279927756
17,16,Jits_ISO_5,1,5,63,98,3279930676
17,16,Jits_ISO_5,2,1,48,55,3279940536
17,16,Jits_ISO_5,3,5,80,127,3279948280
17,16,Jits_ISO_5,0,1,48,43,3280394264
17,16,Jits_ISO_5,1,5,80,127,3280437600
17,16,Jits_ISO_5,2,5,56,103,3280447944
17,16,Jits_ISO_5,3,5,63,98,3280517460
17,16,Jits_ISO_5,0,1,48,57,3280907788
17,16,Jits_ISO_5,1,5,63,98,3280938452
17,16,Jits_ISO_5,2,5,56,103,3280957788
17,16,Jits_ISO_5,3,5,80,127,3281037588
17,16,Jits_ISO_5,0,1,48,58,3281436740
17,16,Jits_ISO_5,1,5,56,103,3281448516
17,16,Jits_ISO_5,2,5,80,127,3281488456
17,16,Jits_ISO_5,3,5,63,98,3281497456
17,16,Jits_ISO_5,0,5,80,127,3281937696
17,16,Jits_ISO_5,1,5,63,98,3281967516
17,16,Jits_ISO_5,2,1,48,52,3281974304
17,16,Jits_ISO_5,3,5,56,103,3282008572
17,16,Jits_ISO_5,0,5,56,103,3282457964
17,16,Jits_ISO_5,1,1,48,63,3282462804
17,16,Jits_ISO_5,2,5,63,98,3282487780
17,16,Jits_ISO_5,3,5,80,127,3282537832
17,16,Jits_ISO_5,0,5,80,127,3282957636
17,16,Jits_ISO_5,1,1,48,42,3282962996
17,16,Jits_ISO_5,2,5,56,103,3282997716
17,16,Jits_ISO_5,3,5,63,98,3283007840
17,16,Jits_ISO_5,0,5,80,127,3283437828
17,16,Jits_ISO_5,1,5,63,98,3283477988
17,16,Jits_ISO_5,2,1,48,59,3283494808
17,16,Jits_ISO_5,3,5,56,103,3283538296
17,16,Jits_ISO_5,0,5,56,103,3283937576
17,16,Jits_ISO_5,1,5,80,127,3283947772
17,16,Jits_ISO_5,2,1,48,51,3284018764
17,16,Jits_ISO_5,3,5,63,98,3284027852
17,16,Jits_ISO_5,0,5,80,127,3284438368
17,16,Jits_ISO_5,1,1,48,55,3284482240
17,16,Jits_ISO_5,2,5,63,98,3284497632
17,16,Jits_ISO_5,3,5,56,103,3284527376
17,16,Jits_ISO_5,0,5,56,103,3284948452
17,16,Jits_ISO_5,1,1,48,59,3284957576
17,16,Jits_ISO_5,2,5,80,127,3285007792
17,16,Jits_ISO_5,3,5,63,98,3285047580
17,16,Jits_ISO_5,0,1,48,56,3285496740
17,16,Jits_ISO_5,1,5,56,103,3285498468
17,16,Jits_ISO_5,2,5,63,98,3285507544
17,16,Jits_ISO_5,3,5,80,127,3285511056
17,16,Jits_ISO_5,0,5,80,127,3285947708
17,16,Jits_ISO_5,1,1,48,55,3285984152
17,16,Jits_ISO_5,2,5,63,98,3286037832
17,16,Jits_ISO_5,3,5,56,103,3286048252
17,16,Jits_ISO_5,0,5,56,103,3286447440
17,16,Jits_ISO_5,1,5,63,98,3286450764
17,16,Jits_ISO_5,2,5,80,127,3286453808
17,16,Jits_ISO_5,3,1,48,57,3286475812
17,16,Jits_ISO_5,0,1,48,56,3286944512
17,16,Jits_ISO_5,1,5,80,127,3286967552
17,16,Jits_ISO_5,2,5,63,98,3287017904
17,16,Jits_ISO_5,3,5,56,103,3287047488
17,16,Jits_ISO_5,0,5,56,103,3287447812
17,16,Jits_ISO_5,1,5,80,127,3287458456
17,16,Jits_ISO_5,2,1,48,39,3287517840
17,16,Jits_ISO_5,3,5,63,98,3287527828
17,16,Jits_ISO_5,0,1,48,55,3287958196
17,16,Jits_ISO_5,1,5,56,103,3287959532
17,16,Jits_ISO_5,2,5,63,98,3287978200
17,16,Jits_ISO_5,3,5,80,127,3288037840
17,16,Jits_ISO_5,0,5,80,127,3288448316
17,16,Jits_ISO_5,1,1,48,57,3288456688
17,16,Jits_ISO_5,2,5,63,98,3288518064
17,16,Jits_ISO_5,3,5,56,103,3288537328
17,16,Jits_ISO_5,0,5,80,127,3288967744
17,16,Jits_ISO_5,1,1,48,54,3288971860
17,16,Jits_ISO_5,2,5,56,103,3288977736
17,16,Jits_ISO_5,3,5,63,98,3288988300
17,16,Jits_ISO_5,0,5,80,127,3289458124
17,16,Jits_ISO_5,1,1,48,47,3289472252
17,16,Jits_ISO_5,2,5,56,103,3289477528
17,16,Jits_ISO_5,3,5,63,98,3289548276
17,16,Jits_ISO_5,0,5,56,103,3289968132
17,16,Jits_ISO_5,1,5,80,127,3289997612
17,16,Jits_ISO_5,2,1,48,56,3290008448
17,16,Jits_ISO_5,3,5,63,98,3290018288
17,16,Jits_ISO_5,0,5,63,98,3290457536
17,16,Jits_ISO_5,1,1,48,63,3290470316
17,16,Jits_ISO_5,2,5,56,103,3290517944
17,16,Jits_ISO_5,3,5,80,127,3290547544
17,16,Jits_ISO_5,0,1,48,65,3290943216
17,16,Jits_ISO_5,1,5,63,98,3290948044
17,16,Jits_ISO_5,2,5,80,127,3290951556
17,16,Jits_ISO_5,3,5,56,103,3291038048
17,16,Jits_ISO_5,0,5,56,103,3291468376
17,16,Jits_ISO_5,1,1,48,60,3291475904
17,16,Jits_ISO_5,2,5,63,98,3291497820
17,16,Jits_ISO_5,3,5,80,127,3291537708
17,16,Jits_ISO_5,0,5,63,98,3291967828
17,16,Jits_ISO_5,1,1,48,54,3291981960
17,16,Jits_ISO_5,2,5,56,103,3292007908
17,16,Jits_ISO_5,3,5,80,127,3292028144
17,16,Jits_ISO_5,0,5,63,98,3292488236
17,16,Jits_ISO_5,1,1,48,54,3292492328
17,16,Jits_ISO_5,2,5,56,103,3292528096
17,16,Jits_ISO_5,3,5,80,127,3292538144
17,16,Jits_ISO_5,0,5,80,127,3292968344
17,16,Jits_ISO_5,1,1,48,54,3292979032
17,16,Jits_ISO_5,2,5,63,98,3293038092
17,16,Jits_ISO_5,3,5,56,103,3293058328
17,16,Jits_ISO_5,0,5,56,103,3293457904
17,16,Jits_ISO_5,1,5,80,127,3293478364
17,16,Jits_ISO_5,2,5,63,98,3293518152
17,16,Jits_ISO_5,3,1,48,50,3293520092
17,16,Jits_ISO_5,0,5,63,98,3293967912
17,16,Jits_ISO_5,1,5,80,127,3293988220
17,16,Jits_ISO_5,2,1,48,51,3294014108
17,16,Jits_ISO_5,3,5,56,103,3294028300
17,16,Jits_ISO_5,0,5,63,98,3294467348
17,16,Jits_ISO_5,1,1,48,56,3294468312
17,16,Jits_ISO_5,2,5,56,103,3294487872
17,16,Jits_ISO_5,3,5,80,127,3294498072
17,16,Jits_ISO_5,0,5,80,127,3294968124
17,16,Jits_ISO_5,1,1,48,58,3294987156
17,16,Jits_ISO_5,2,5,56,103,3294988948
17,16,Jits_ISO_5,3,5,63,98,3295018400
17,16,Jits_ISO_5,0,1,48,62,3295493076
17,16,Jits_ISO_5,1,5,56,103,3295537464
17,16,Jits_ISO_5,2,5,80,127,3295540456
17,16,Jits_ISO_5,3,5,63,98,3295558292
17,16,Jits_ISO_5,0,5,63,98,3295958388
17,16,Jits_ISO_5,1,5,56,103,3295987984
17,16,Jits_ISO_5,2,1,48,48,3296022116
17,16,Jits_ISO_5,3,5,80,127,3296047544
17,16,Jits_ISO_5,0,1,48,53,3296487012
17,16,Jits_ISO_5,1,5,63,98,3296548168
17,16,Jits_ISO_5,2,5,56,103,3296557544
17,16,Jits_ISO_5,3,5,80,127,3296568036
17,16,Jits_ISO_5,0,5,56,103,3296997868
17,16,Jits_ISO_5,1,1,48,58,3297018000
17,16,Jits_ISO_5,2,5,80,127,3297027312
17,16,Jits_ISO_5,3,5,63,98,3297037580
17,16,Jits_ISO_5,0,1,48,47,3297532712
17,16,Jits_ISO_5,1,5,63,98,3297538592
17,16,Jits_ISO_5,2,5,56,103,3297547588
17,16,Jits_ISO_5,3,5,80,127,3297567972
17,16,Jits_ISO_5,0,5,56,103,3297967608
17,16,Jits_ISO_5,1,1,48,61,3298023988
17,16,Jits_ISO_5,2,5,63,98,3298027916
17,16,Jits_ISO_5,3,5,80,127,3298031204
17,16,Jits_ISO_5,0,5,80,127,3298487648
17,16,Jits_ISO_5,1,5,56,103,3298498144
17,16,Jits_ISO_5,2,1,48,57,3298542688
17,16,Jits_ISO_5,3,5,63,98,3298567440
17,16,Jits_ISO_5,0,5,80,127,3298978104
17,16,Jits_ISO_5,1,1,48,65,3299036596
17,16,Jits_ISO_5,2,5,56,103,3299048080
17,16,Jits_ISO_5,3,5,63,98,3299058128
17,16,Jits_ISO_5,0,5,63,98,3299517940
17,16,Jits_ISO_5,1,5,56,103,3299527988
17,16,Jits_ISO_5,2,5,80,127,3299547548
17,16,Jits_ISO_5,3,1,48,29,3299553288
17,16,Jits_ISO_5,0,5,80,127,3299968504
17,16,Jits_ISO_5,1,1,48,52,3300013452
17,16,Jits_ISO_5,2,5,63,98,3300028016
17,16,Jits_ISO_5,3,5,56,103,3300067652
17,16,Jits_ISO_5,0,5,56,103,3300508136
17,16,Jits_ISO_5,1,5,63,98,3300518256
17,16,Jits_ISO_5,2,1,48,62,3300554404
17,16,Jits_ISO_5,3,5,80,127,3300558112
17,16,Jits_ISO_5,0,5,56,103,3300968076
17,16,Jits_ISO_5,1,5,80,127,3300997380
17,16,Jits_ISO_5,2,5,63,98,3301047604
17,16,Jits_ISO_5,3,1,48,67,3301057844
17,16,Jits_ISO_5,0,5,56,103,3301507532
17,16,Jits_ISO_5,1,5,63,98,3301548392
17,16,Jits_ISO_5,2,5,80,127,3301551756
17,16,Jits_ISO_5,3,1,48,62,3301553468
17,16,Jits_ISO_5,0,5,56,103,3302008236
17,16,Jits_ISO_5,1,5,63,98,3302018508
17,16,Jits_ISO_5,2,5,80,127,3302037796
17,16,Jits_ISO_5,3,1,48,55,3302061588
17,16,Jits_ISO_5,0,5,56,103,3302467904
17,16,Jits_ISO_5,1,5,80,127,3302470972
17,16,Jits_ISO_5,2,5,63,98,3302508064
17,16,Jits_ISO_5,3,1,48,64,3302540504
17,16,Jits_ISO_5,0,5,63,98,3303007796
17,16,Jits_ISO_5,1,1,48,63,3303036176
17,16,Jits_ISO_5,2,5,56,103,3303038212
17,16,Jits_ISO_5,3,5,80,127,3303058024
17,16,Jits_ISO_5,0,5,80,127,3303477940
17,16,Jits_ISO_5,1,5,56,103,3303488208
17,16,Jits_ISO_5,2,5,63,98,3303498108
17,16,Jits_ISO_5,3,1,48,51,3303530744
17,16,Jits_ISO_5,0,1,48,51,3303978552
17,16,Jits_ISO_5,1,5,56,103,3303987420
17,16,Jits_ISO_5,2,5,80,127,3304027432
17,16,Jits_ISO_5,3,5,63,98,3304058300
17,16,Jits_ISO_5,0,1,48,53,3304475276
17,16,Jits_ISO_5,1,5,63,98,3304497712
17,16,Jits_ISO_5,2,5,80,127,3304507836
17,16,Jits_ISO_5,3,5,56,103,3304517956
17,16,Jits_ISO_5,0,5,56,103,3304977896
17,16,Jits_ISO_5,1,1,48,62,3304994344
17,16,Jits_ISO_5,2,5,63,98,3305048396
17,16,Jits_ISO_5,3,5,80,127,3305057840
17,16,Jits_ISO_5,0,1,48,59,3305468472
17,16,Jits_ISO_5,1,5,80,127,3305477488
17,16,Jits_ISO_5,2,5,56,103,3305487684
17,16,Jits_ISO_5,3,5,63,98,3305537808
17,16,Jits_ISO_5,0,5,80,127,3305987640
17,16,Jits_ISO_5,1,1,48,47,3305993380
17,16,Jits_ISO_5,2,5,56,103,3306047948
17,16,Jits_ISO_5,3,5,63,98,3306077548
17,16,Jits_ISO_5,0,5,56,103,3306488136
17,16,Jits_ISO_5,1,5,80,127,3306491276
17,16,Jits_ISO_5,2,5,63,98,3306528072
17,16,Jits_ISO_5,3,1,48,70,3306537712
17,16,Jits_ISO_5,0,5,56,103,3307017692
17,16,Jits_ISO_5,1,1,48,56,3307026288
17,16,Jits_ISO_5,2,5,63,98,3307048336
17,16,Jits_ISO_5,3,5,80,127,3307057556
17,16,Jits_ISO_5,0,5,63,98,3307527928
17,16,Jits_ISO_5,1,5,80,127,3307537976
17,16,Jits_ISO_5,2,5,56,103,3307548024
17,16,Jits_ISO_5,3,1,48,63,3307548988
17,16,Jits_ISO_5,0,5,80,127,3307988332
17,16,Jits_ISO_5,1,1,48,54,3308036192
17,16,Jits_ISO_5,2,5,56,103,3308038004
17,16,Jits_ISO_5,3,5,63,98,3308040840
17,16,Jits_ISO_5,0,1,48,53,3308507520
17,16,Jits_ISO_5,1,5,56,103,3308517952
17,16,Jits_ISO_5,2,5,80,127,3308538188
17,16,Jits_ISO_5,3,5,63,98,3308547712
17,16,Jits_ISO_5,0,5,63,98,3308997992
17,16,Jits_ISO_5,1,1,48,57,3309028112
17,16,Jits_ISO_5,2,5,56,103,3309029608
17,16,Jits_ISO_5,3,5,80,127,3309048268
17,16,Jits_ISO_5,0,5,56,103,3309507916
17,16,Jits_ISO_5,1,1,48,57,3309512600
17,16,Jits_ISO_5,2,5,80,127,3309518104
17,16,Jits_ISO_5,3,5,63,98,3309587780
17,16,Jits_ISO_5,0,5,63,98,3309997624
17,16,Jits_ISO_5,1,1,48,58,3310021344
17,16,Jits_ISO_5,2,5,80,127,3310038308
17,16,Jits_ISO_5,3,5,56,103,3310078316
17,16,Jits_ISO_5,0,5,56,103,3310508668
17,16,Jits_ISO_5,1,1,48,61,3310511040
17,16,Jits_ISO_5,2,5,63,98,3310517736
17,16,Jits_ISO_5,3,5,80,127,3310538196
17,16,Jits_ISO_5,0,1,48,58,3311012724
17,16,Jits_ISO_5,1,5,63,98,3311047972
17,16,Jits_ISO_5,2,5,80,127,3311067756
17,16,Jits_ISO_5,3,5,56,103,3311087916
17,16,Jits_ISO_5,0,5,56,103,3311488728
17,16,Jits_ISO_5,1,1,48,62,3311560276
17,16,Jits_ISO_5,2,5,80,127,3311568168
17,16,Jits_ISO_5,3,5,63,98,3311577468
17,16,Jits_ISO_5,0,5,80,127,3312027916
17,16,Jits_ISO_5,1,5,63,98,3312038112
17,16,Jits_ISO_5,2,1,48,57,3312043252
17,16,Jits_ISO_5,3,5,56,103,3312067928
17,16,Jits_ISO_5,0,5,63,98,3312487708
17,16,Jits_ISO_5,1,5,80,127,3312527672
17,16,Jits_ISO_5,2,1,48,55,3312531764
17,16,Jits_ISO_5,3,5,56,103,3312588200
17,16,Jits_ISO_5,0,5,63,98,3312997780
17,16,Jits_ISO_5,1,1,48,48,3313009516
17,16,Jits_ISO_5,2,5,56,103,3313047852
17,16,Jits_ISO_5,3,5,80,127,3313077600
17,16,Jits_ISO_5,0,5,80,127,3313507776
17,16,Jits_ISO_5,1,5,63,98,3313517820
17,16,Jits_ISO_5,2,1,48,55,3313526192
17,16,Jits_ISO_5,3,5,56,103,3313587740
17,16,Jits_ISO_5,0,1,48,61,3314033252
17,16,Jits_ISO_5,1,5,80,127,3314078040
17,16,Jits_ISO_5,2,5,56,103,3314088152
17,16,Jits_ISO_5,3,5,63,98,3314091448
17,16,Jits_ISO_5,0,5,56,103,3314518488
17,16,Jits_ISO_5,1,1,48,51,3314530000
17,16,Jits_ISO_5,2,5,80,127,3314537892
17,16,Jits_ISO_5,3,5,63,98,3314548012
17,16,Jits_ISO_5,0,5,63,98,3315028500
17,16,Jits_ISO_5,1,1,48,53,3315038888
17,16,Jits_ISO_5,2,5,56,103,3315068432
17,16,Jits_ISO_5,3,5,80,127,3315087792
17,16,Jits_ISO_5,0,5,63,98,3315538276
17,16,Jits_ISO_5,1,1,48,55,3315557736
17,16,Jits_ISO_5,2,5,56,103,3315597556
17,16,Jits_ISO_5,3,5,80,127,3315600628
17,16,Jits_ISO_5,0,5,56,103,3315998148
17,16,Jits_ISO_5,1,5,80,127,3316017488
17,16,Jits_ISO_5,2,1,48,57,3316028396
17,16,Jits_ISO_5,3,5,63,98,3316057712
17,16,Jits_ISO_5,0,1,48,48,3316521312
17,16,Jits_ISO_5,1,5,56,103,3316527632
17,16,Jits_ISO_5,2,5,63,98,3316547940
17,16,Jits_ISO_5,3,5,80,127,3316558136
17,16,Jits_ISO_5,0,5,80,127,3316997776
17,16,Jits_ISO_5,1,1,48,60,3317019032
17,16,Jits_ISO_5,2,5,56,103,3317028344
17,16,Jits_ISO_5,3,5,63,98,3317068056
17,16,Jits_ISO_5,0,1,48,65,3317507936
17,16,Jits_ISO_5,1,5,80,127,3317509432
17,16,Jits_ISO_5,2,5,56,103,3317527868
17,16,Jits_ISO_5,3,5,63,98,3317588480
17,16,Jits_ISO_5,0,5,56,103,3318018460
17,16,Jits_ISO_5,1,5,80,127,3318037872
17,16,Jits_ISO_5,2,1,48,50,3318058224
17,16,Jits_ISO_5,3,5,63,98,3318098472
17,16,Jits_ISO_5,0,5,80,127,3318497580
17,16,Jits_ISO_5,1,5,56,103,3318507924
17,16,Jits_ISO_5,2,5,63,98,3318547788
17,16,Jits_ISO_5,3,1,48,62,3318553972
17,16,Jits_ISO_5,0,5,63,98,3318998596
17,16,Jits_ISO_5,1,1,48,67,3319013172
17,16,Jits_ISO_5,2,5,56,103,3319038524
17,16,Jits_ISO_5,3,5,80,127,3319041444
17,16,Jits_ISO_5,0,1,48,64,3319522632
17,16,Jits_ISO_5,1,5,63,98,3319527904
17,16,Jits_ISO_5,2,5,80,127,3319567844
17,16,Jits_ISO_5,3,5,56,103,3319597664
17,16,Jits_ISO_5,0,5,56,103,3320018800
17,16,Jits_ISO_5,1,5,63,98,3320027428
17,16,Jits_ISO_5,2,1,48,57,3320040432
17,16,Jits_ISO_5,3,5,80,127,3320058440
17,16,Jits_ISO_5,0,1,48,67,3320505168
17,16,Jits_ISO_5,1,5,80,127,3320507752
17,16,Jits_ISO_5,2,5,63,98,3320578628
17,16,Jits_ISO_5,3,5,56,103,3320587628
17,16,Jits_ISO_5,0,5,63,98,3321007568
17,16,Jits_ISO_5,1,1,48,58,3321030768
17,16,Jits_ISO_5,2,5,56,103,3321077988
17,16,Jits_ISO_5,3,5,80,127,3321088556
17,16,Jits_ISO_5,0,5,63,98,3321508496
17,16,Jits_ISO_5,1,5,56,103,3321527536
17,16,Jits_ISO_5,2,5,80,127,3321567548
17,16,Jits_ISO_5,3,1,48,38,3321571788
17,16,Jits_ISO_5,0,5,56,103,3322018272
17,16,Jits_ISO_5,1,5,63,98,3322028392
17,16,Jits_ISO_5,2,1,48,62,3322048444
17,16,Jits_ISO_5,3,5,80,127,3322108324
17,16,Jits_ISO_5,0,5,63,98,3322507608
17,16,Jits_ISO_5,1,1,48,67,3322516200
17,16,Jits_ISO_5,2,5,56,103,3322538620
17,16,Jits_ISO_5,3,5,80,127,3322578408
17,16,Jits_ISO_5,0,5,56,103,3323008364
17,16,Jits_ISO_5,1,1,48,65,3323011028
17,16,Jits_ISO_5,2,5,63,98,3323048392
17,16,Jits_ISO_5,3,5,80,127,3323088404
17,16,Jits_ISO_5,0,5,80,127,3323507956
17,16,Jits_ISO_5,1,1,48,50,3323510928
17,16,Jits_ISO_5,2,5,56,103,3323588068
17,16,Jits_ISO_5,3,5,63,98,3323598336
17,16,Jits_ISO_5,0,1,48,55,3324035008
17,16,Jits_ISO_5,1,5,56,103,3324047656
17,16,Jits_ISO_5,2,5,63,98,3324050944
17,16,Jits_ISO_5,3,5,80,127,3324057924
17,16,Jits_ISO_5,0,1,48,60,3324548756
17,16,Jits_ISO_5,1,5,56,103,3324567832
17,16,Jits_ISO_5,2,5,63,98,3324588296
17,16,Jits_ISO_5,3,5,80,127,3324597664
17,16,Jits_ISO_5,0,5,63,98,3325027768
17,16,Jits_ISO_5,1,5,80,127,3325037888
17,16,Jits_ISO_5,2,5,56,103,3325058568
17,16,Jits_ISO_5,3,1,48,62,3325107040
17,16,Jits_ISO_5,0,5,63,98,3325528396
17,16,Jits_ISO_5,1,1,48,57,3325539688
17,16,Jits_ISO_5,2,5,56,103,3325608428
17,16,Jits_ISO_5,3,5,80,127,3325611496
17,16,Jits_ISO_5,0,5,63,98,3326028496
17,16,Jits_ISO_5,1,1,48,63,3326039192
17,16,Jits_ISO_5,2,5,56,103,3326047604
17,16,Jits_ISO_5,3,5,80,127,3326078324
17,16,Jits_ISO_5,0,5,56,103,3326527860
17,16,Jits_ISO_5,1,1,48,63,3326538396
17,16,Jits_ISO_5,2,5,63,98,3326548460
17,16,Jits_ISO_5,3,5,80,127,3326557460
17,16,Jits_ISO_5,0,1,48,64,3327029144
17,16,Jits_ISO_5,1,5,56,103,3327067456
17,16,Jits_ISO_5,2,5,63,98,3327098324
17,16,Jits_ISO_5,3,5,80,127,3327101688
17,16,Jits_ISO_5,0,5,56,103,3327518264
17,16,Jits_ISO_5,1,1,48,65,3327547764
17,16,Jits_ISO_5,2,5,63,98,3327557972
17,16,Jits_ISO_5,3,5,80,127,3327618360
17,16,Jits_ISO_5,0,5,56,103,3328038316
17,16,Jits_ISO_5,1,5,63,98,3328047468
17,16,Jits_ISO_5,2,1,48,62,3328063840
17,16,Jits_ISO_5,3,5,80,127,3328107772
17,16,Jits_ISO_5,0,5,56,103,3328538140
17,16,Jits_ISO_5,1,1,48,54,3328541628
17,16,Jits_ISO_5,2,5,80,127,3328557396
17,16,Jits_ISO_5,3,5,63,98,3328588192
17,16,Jits_ISO_5,0,5,80,127,3329037592
17,16,Jits_ISO_5,1,5,56,103,3329047784
17,16,Jits_ISO_5,2,5,63,98,3329068468
17,16,Jits_ISO_5,3,1,48,69,3329073236
17,16,Jits_ISO_5,0,5,63,98,3329528344
17,16,Jits_ISO_5,1,1,48,68,3329564344
17,16,Jits_ISO_5,2,5,80,127,3329608128
17,16,Jits_ISO_5,3,5,56,103,3329618400
17,16,Jits_ISO_5,0,1,48,61,3330077568
17,16,Jits_ISO_5,1,5,80,127,3330088456
17,16,Jits_ISO_5,2,5,56,103,3330107792
17,16,Jits_ISO_5,3,5,63,98,3330110708
17,16,Jits_ISO_5,0,5,63,98,3330558448
17,16,Jits_ISO_5,1,5,80,127,3330561664
17,16,Jits_ISO_5,2,1,48,48,3330599624
17,16,Jits_ISO_5,3,5,56,103,3330617632
17,16,Jits_ISO_5,0,1,48,66,3331047692
17,16,Jits_ISO_5,1,5,56,103,3331049400
17,16,Jits_ISO_5,2,5,80,127,3331058252
17,16,Jits_ISO_5,3,5,63,98,3331098112
17,16,Jits_ISO_5,0,5,56,103,3331528164
17,16,Jits_ISO_5,1,1,48,53,3331554200
17,16,Jits_ISO_5,2,5,63,98,3331587500
17,16,Jits_ISO_5,3,5,80,127,3331597696
17,16,Jits_ISO_5,0,5,63,98,3332038100
17,16,Jits_ISO_5,1,1,48,63,3332053204
17,16,Jits_ISO_5,2,5,80,127,3332078032
17,16,Jits_ISO_5,3,5,56,103,3332117968
17,16,Jits_ISO_5,0,5,56,103,3332537832
17,16,Jits_ISO_5,1,1,48,58,3332570920
17,16,Jits_ISO_5,2,5,63,98,3332617544
17,16,Jits_ISO_5,3,5,80,127,3332621132
17,16,Jits_ISO_5,0,9999,9999,9999,9999,3273216056
17,16,Jits_ISO_5,1,9999,9999,9999,9999,3273726044
17,16,Jits_ISO_5,2,9999,9999,9999,9999,3274225784
17,16,Jits_ISO_5,3,9999,9999,9999,9999,3274725448
17,16,Jits_ISO_5,4,9999,9999,9999,9999,3275225180
17,16,Jits_ISO_5,5,9999,9999,9999,9999,3275725896
17,16,Jits_ISO_5,6,9999,9999,9999,9999,3276225624
17,16,Jits_ISO_5,7,9999,9999,9999,9999,3276725364
17,16,Jits_ISO_5,8,9999,9999,9999,9999,3277226060
17,16,Jits_ISO_5,9,9999,9999,9999,9999,3277725804
17,16,Jits_ISO_5,10,9999,9999,9999,9999,3278225472
17,16,Jits_ISO_5,11,9999,9999,9999,9999,3278725192
17,16,Jits_ISO_5,12,9999,9999,9999,9999,3279225964
17,16,Jits_ISO_5,13,9999,9999,9999,9999,3279725692
17,16,Jits_ISO_5,14,9999,9999,9999,9999,3280225348
17,16,Jits_ISO_5,15,9999,9999,9999,9999,3280726068
17,16,Jits_ISO_5,16,9999,9999,9999,9999,3281236060
17,16,Jits_ISO_5,17,9999,9999,9999,9999,3281735792
17,16,Jits_ISO_5,18,9999,9999,9999,9999,3282235444
17,16,Jits_ISO_5,19,9999,9999,9999,9999,3282735192
17,16,Jits_ISO_5,20,9999,9999,9999,9999,3283235912
17,16,Jits_ISO_5,21,9999,9999,9999,9999,3283735656
17,16,Jits_ISO_5,22,9999,9999,9999,9999,3284235328
17,16,Jits_ISO_5,23,9999,9999,9999,9999,3284736124
17,16,Jits_ISO_5,24,9999,9999,9999,9999,3285246060
17,16,Jits_ISO_5,25,9999,9999,9999,9999,3285745728
17,16,Jits_ISO_5,26,9999,9999,9999,9999,3286245464
17,16,Jits_ISO_5,27,9999,9999,9999,9999,3286745188
17,16,Jits_ISO_5,28,9999,9999,9999,9999,3287245908
17,16,Jits_ISO_5,29,9999,9999,9999,9999,3287745640
17,16,Jits_ISO_5,30,9999,9999,9999,9999,3288245312
17,16,Jits_ISO_5,31,9999,9999,9999,9999,3288746072
17,16,Jits_ISO_5,32,9999,9999,9999,9999,3289245816
17,16,Jits_ISO_5,33,9999,9999,9999,9999,3289745488
17,16,Jits_ISO_5,34,9999,9999,9999,9999,3290245212
17,16,Jits_ISO_5,35,9999,9999,9999,9999,3290745924
17,16,Jits_ISO_5,36,9999,9999,9999,9999,3291245648
17,16,Jits_ISO_5,37,9999,9999,9999,9999,3291745380
17,16,Jits_ISO_5,38,9999,9999,9999,9999,3292246104
17,16,Jits_ISO_5,39,9999,9999,9999,9999,3292756028
17,16,Jits_ISO_5,40,9999,9999,9999,9999,3293255764
17,16,Jits_ISO_5,41,9999,9999,9999,9999,3293755504
17,16,Jits_ISO_5,42,9999,9999,9999,9999,3294255176
17,16,Jits_ISO_5,43,9999,9999,9999,9999,3294755956
17,16,Jits_ISO_5,44,9999,9999,9999,9999,3295255612
17,16,Jits_ISO_5,45,9999,9999,9999,9999,3295755356
17,16,Jits_ISO_5,46,9999,9999,9999,9999,3296256064
17,16,Jits_ISO_5,47,9999,9999,9999,9999,3296766072
17,16,Jits_ISO_5,48,9999,9999,9999,9999,3297265728
17,16,Jits_ISO_5,49,9999,9999,9999,9999,3297765480
17,16,Jits_ISO_5,50,9999,9999,9999,9999,3298265204
17,16,Jits_ISO_5,51,9999,9999,9999,9999,3298765920
17,16,Jits_ISO_5,52,9999,9999,9999,9999,3299265600
17,16,Jits_ISO_5,53,9999,9999,9999,9999,3299765352
17,16,Jits_ISO_5,54,9999,9999,9999,9999,3300266060
17,16,Jits_ISO_5,55,9999,9999,9999,9999,3300765808
17,16,Jits_ISO_5,56,9999,9999,9999,9999,3301265480
17,16,Jits_ISO_5,57,9999,9999,9999,9999,3301765196
17,16,Jits_ISO_5,58,9999,9999,9999,9999,3302265912
17,16,Jits_ISO_5,59,9999,9999,9999,9999,3302765644
17,16,Jits_ISO_5,60,9999,9999,9999,9999,3303265396
17,16,Jits_ISO_5,61,9999,9999,9999,9999,3303766100
17,16,Jits_ISO_5,62,9999,9999,9999,9999,3304276036
17,16,Jits_ISO_5,63,9999,9999,9999,9999,3304775768
17,16,Jits_ISO_5,64,9999,9999,9999,9999,3305275500
17,16,Jits_ISO_5,65,9999,9999,9999,9999,3305775172
17,16,Jits_ISO_5,66,9999,9999,9999,9999,3306275956
17,16,Jits_ISO_5,67,9999,9999,9999,9999,3306775616
17,16,Jits_ISO_5,68,9999,9999,9999,9999,3307275368
17,16,Jits_ISO_5,69,9999,9999,9999,9999,3307776088
17,16,Jits_ISO_5,70,9999,9999,9999,9999,3308286072
17,16,Jits_ISO_5,71,9999,9999,9999,9999,3308785748
17,16,Jits_ISO_5,72,9999,9999,9999,9999,3309285480
17,16,Jits_ISO_5,73,9999,9999,9999,9999,3309785140
17,16,Jits_ISO_5,74,9999,9999,9999,9999,3310285940
17,16,Jits_ISO_5,75,9999,9999,9999,9999,3310785596
17,16,Jits_ISO_5,76,9999,9999,9999,9999,3311285352
17,16,Jits_ISO_5,77,9999,9999,9999,9999,3311786060
17,16,Jits_ISO_5,78,9999,9999,9999,9999,3312285812
17,16,Jits_ISO_5,79,9999,9999,9999,9999,3312785488
17,16,Jits_ISO_5,80,9999,9999,9999,9999,3313285196
17,16,Jits_ISO_5,81,9999,9999,9999,9999,3313785972
17,16,Jits_ISO_5,82,9999,9999,9999,9999,3314285644
17,16,Jits_ISO_5,83,9999,9999,9999,9999,3314785376
17,16,Jits_ISO_5,84,9999,9999,9999,9999,3315286100
17,16,Jits_ISO_5,85,9999,9999,9999,9999,3315796020
17,16,Jits_ISO_5,86,9999,9999,9999,9999,3316295748
17,16,Jits_ISO_5,87,9999,9999,9999,9999,3316795500
17,16,Jits_ISO_5,88,9999,9999,9999,9999,3317295156
17,16,Jits_ISO_5,89,9999,9999,9999,9999,3317795952
17,16,Jits_ISO_5,90,9999,9999,9999,9999,3318295660
17,16,Jits_ISO_5,91,9999,9999,9999,9999,3318795328
17,16,Jits_ISO_5,92,9999,9999,9999,9999,3319296112
17,16,Jits_ISO_5,93,9999,9999,9999,9999,3319806036
17,16,Jits_ISO_5,94,9999,9999,9999,9999,3320305764
17,16,Jits_ISO_5,95,9999,9999,9999,9999,3320805440
17,16,Jits_ISO_5,96,9999,9999,9999,9999,3321305172
17,16,Jits_ISO_5,97,9999,9999,9999,9999,3321805876
17,16,Jits_ISO_5,98,9999,9999,9999,9999,3322305612
17,16,Jits_ISO_5,99,9999,9999,9999,9999,3322805356
17,16,Jits_ISO_5,100,9999,9999,9999,9999,3323306064
17,16,Jits_ISO_5,101,9999,9999,9999,9999,3323805808
17,16,Jits_ISO_5,102,9999,9999,9999,9999,3324305476
17,16,Jits_ISO_5,103,9999,9999,9999,9999,3324805188
17,16,Jits_ISO_5,104,9999,9999,9999,9999,3325305960
17,16,Jits_ISO_5,105,9999,9999,9999,9999,3325805692
17,16,Jits_ISO_5,106,9999,9999,9999,9999,3326305352
17,16,Jits_ISO_5,107,9999,9999,9999,9999,3326806128
17,16,Jits_ISO_5,108,9999,9999,9999,9999,3327316060
17,16,Jits_ISO_5,109,9999,9999,9999,9999,3327815792
17,16,Jits_ISO_5,110,9999,9999,9999,9999,3328315468
17,16,Jits_ISO_5,111,9999,9999,9999,9999,3328815216
17,16,Jits_ISO_5,112,9999,9999,9999,9999,3329315936
17,16,Jits_ISO_5,113,9999,9999,9999,9999,3329815612
17,16,Jits_ISO_5,114,9999,9999,9999,9999,3330315340
17,16,Jits_ISO_5,115,9999,9999,9999,9999,3330816112
17,16,Jits_ISO_5,116,9999,9999,9999,9999,3331326036
17,16,Jits_ISO_5,117,9999,9999,9999,9999,3331825768
17,16,Jits_ISO_5,118,9999,9999,9999,9999,3332325440
17,16,Jits_ISO_5,119,9999,9999,9999,9999,3332825168
18,15,Jits_Phase_8,0,5,56,103,3344515360
18,15,Jits_Phase_8,1,5,63,98,3344518480
18,15,Jits_Phase_8,2,5,80,127,3344521752
18,15,Jits_Phase_8,0,5,56,103,3345316148
18,15,Jits_Phase_8,1,5,63,98,3345319320
18,15,Jits_Phase_8,2,5,80,127,3345322592
18,15,Jits_Phase_8,0,5,80,127,3346055648
18,15,Jits_Phase_8,1,5,63,98,3346145856
18,15,Jits_Phase_8,2,5,56,103,3346155976
18,15,Jits_Phase_8,0,5,56,103,3346875908
18,15,Jits_Phase_8,1,5,63,98,3346885960
18,15,Jits_Phase_8,2,5,80,127,3346976088
18,15,Jits_Phase_8,0,1,48,41,3347640096
18,15,Jits_Phase_8,1,5,63,98,3347645752
18,15,Jits_Phase_8,2,5,80,127,3347675648
18,15,Jits_Phase_8,3,5,56,103,3347706296
18,15,Jits_Phase_8,0,1,48,47,3348415884
18,15,Jits_Phase_8,1,5,56,103,3348445800
18,15,Jits_Phase_8,2,5,80,127,3348545888
18,15,Jits_Phase_8,3,5,63,98,3348596088
18,15,Jits_Phase_8,0,5,56,103,3349246468
18,15,Jits_Phase_8,1,1,48,44,3349274540
18,15,Jits_Phase_8,2,5,80,127,3349295840
18,15,Jits_Phase_8,3,5,63,98,3349336528
18,15,Jits_Phase_8,0,1,48,46,3350032116
18,15,Jits_Phase_8,1,5,80,127,3350075832
18,15,Jits_Phase_8,2,5,63,98,3350105580
18,15,Jits_Phase_8,3,5,56,103,3350176020
18,15,Jits_Phase_8,0,1,48,46,3350875792
18,15,Jits_Phase_8,1,5,63,98,3350906160
18,15,Jits_Phase_8,2,5,56,103,3350935860
18,15,Jits_Phase_8,3,5,80,127,3350996312
18,15,Jits_Phase_8,0,5,56,103,3351645692
18,15,Jits_Phase_8,1,5,80,127,3351648756
18,15,Jits_Phase_8,2,1,48,44,3351702692
18,15,Jits_Phase_8,3,5,63,98,3351766480
18,15,Jits_Phase_8,0,1,48,48,3352457732
18,15,Jits_Phase_8,1,5,56,103,3352526240
18,15,Jits_Phase_8,2,5,80,127,3352566088
18,15,Jits_Phase_8,3,5,63,98,3352576732
18,15,Jits_Phase_8,0,1,48,46,3353268660
18,15,Jits_Phase_8,1,5,56,103,3353285920
18,15,Jits_Phase_8,2,5,80,127,3353305556
18,15,Jits_Phase_8,3,5,63,98,3353386456
18,15,Jits_Phase_8,0,5,80,127,3354075724
18,15,Jits_Phase_8,1,1,48,47,3354082204
18,15,Jits_Phase_8,2,5,56,103,3354175968
18,15,Jits_Phase_8,3,5,63,98,3354186072
18,15,Jits_Phase_8,0,5,63,98,3354845536
18,15,Jits_Phase_8,1,5,80,127,3354905852
18,15,Jits_Phase_8,2,5,56,103,3354916196
18,15,Jits_Phase_8,3,1,48,44,3354922380
18,15,Jits_Phase_8,0,1,48,50,3355635748
18,15,Jits_Phase_8,1,5,56,103,3355646480
18,15,Jits_Phase_8,2,5,63,98,3355715940
18,15,Jits_Phase_8,3,5,80,127,3355719300
18,15,Jits_Phase_8,0,1,48,50,3356449564
18,15,Jits_Phase_8,1,5,63,98,3356475824
18,15,Jits_Phase_8,2,5,56,103,3356526024
18,15,Jits_Phase_8,3,5,80,127,3356529016
18,15,Jits_Phase_8,0,5,56,103,3357235716
18,15,Jits_Phase_8,1,5,80,127,3357238708
18,15,Jits_Phase_8,2,1,48,48,3357276596
18,15,Jits_Phase_8,3,5,63,98,3357325568
18,15,Jits_Phase_8,0,1,48,53,3358075852
18,15,Jits_Phase_8,1,5,63,98,3358077568
18,15,Jits_Phase_8,2,5,56,103,3358166384
18,15,Jits_Phase_8,3,5,80,127,3358196044
18,15,Jits_Phase_8,0,5,56,103,3358865756
18,15,Jits_Phase_8,1,1,48,56,3358905284
18,15,Jits_Phase_8,2,5,63,98,3358965996
18,15,Jits_Phase_8,3,5,80,127,3358995896
18,15,Jits_Phase_8,0,5,63,98,3359685984
18,15,Jits_Phase_8,1,5,56,103,3359696404
18,15,Jits_Phase_8,2,1,48,56,3359722592
18,15,Jits_Phase_8,3,5,80,127,3359786376
18,15,Jits_Phase_8,0,5,63,98,3360506420
18,15,Jits_Phase_8,1,1,48,49,3360540400
18,15,Jits_Phase_8,2,5,56,103,3360586060
18,15,Jits_Phase_8,3,5,80,127,3360589124
18,15,Jits_Phase_8,0,5,80,127,3361266164
18,15,Jits_Phase_8,1,5,63,98,3361285576
18,15,Jits_Phase_8,2,5,56,103,3361346040
18,15,Jits_Phase_8,3,1,48,62,3361363088
18,15,Jits_Phase_8,0,5,56,103,3362105644
18,15,Jits_Phase_8,1,5,63,98,3362126400
18,15,Jits_Phase_8,2,1,48,38,3362129316
18,15,Jits_Phase_8,3,5,80,127,3362131032
18,15,Jits_Phase_8,0,5,63,98,3362846288
18,15,Jits_Phase_8,1,1,48,58,3362893076
18,15,Jits_Phase_8,2,5,80,127,3362926076
18,15,Jits_Phase_8,3,5,56,103,3362936272
18,15,Jits_Phase_8,0,5,63,98,3363666496
18,15,Jits_Phase_8,1,1,48,59,3363680552
18,15,Jits_Phase_8,2,5,56,103,3363685676
18,15,Jits_Phase_8,3,5,80,127,3363735900
18,15,Jits_Phase_8,0,1,48,57,3364435200
18,15,Jits_Phase_8,1,5,80,127,3364465944
18,15,Jits_Phase_8,2,5,63,98,3364505832
18,15,Jits_Phase_8,3,5,56,103,3364525468
18,15,Jits_Phase_8,0,5,56,103,3365305660
18,15,Jits_Phase_8,1,1,48,62,3365310124
18,15,Jits_Phase_8,2,5,63,98,3365316148
18,15,Jits_Phase_8,3,5,80,127,3365336456
18,15,Jits_Phase_8,0,5,56,103,3366035904
18,15,Jits_Phase_8,1,5,63,98,3366126036
18,15,Jits_Phase_8,2,1,48,56,3366137548
18,15,Jits_Phase_8,3,5,80,127,3366186344
18,15,Jits_Phase_8,0,5,80,127,3366866316
18,15,Jits_Phase_8,1,5,56,103,3366875392
18,15,Jits_Phase_8,2,1,48,55,3366885932
18,15,Jits_Phase_8,3,5,63,98,3366946336
18,15,Jits_Phase_8,0,5,63,98,3367695608
18,15,Jits_Phase_8,1,1,48,57,3367711760
18,15,Jits_Phase_8,2,5,80,127,3367785812
18,15,Jits_Phase_8,3,5,56,103,3367796304
18,15,Jits_Phase_8,0,5,63,98,3368425768
18,15,Jits_Phase_8,1,5,80,127,3368476196
18,15,Jits_Phase_8,2,1,48,55,3368523132
18,15,Jits_Phase_8,3,5,56,103,3368536356
18,15,Jits_Phase_8,0,5,56,103,3369246128
18,15,Jits_Phase_8,1,5,80,127,3369296404
18,15,Jits_Phase_8,2,5,63,98,3369315740
18,15,Jits_Phase_8,3,1,48,49,3369330916
18,15,Jits_Phase_8,0,5,56,103,3370016228
18,15,Jits_Phase_8,1,5,80,127,3370075572
18,15,Jits_Phase_8,2,1,48,62,3370140216
18,15,Jits_Phase_8,3,5,63,98,3370146240
18,15,Jits_Phase_8,0,5,56,103,3370815844
18,15,Jits_Phase_8,1,5,80,127,3370845596
18,15,Jits_Phase_8,2,5,63,98,3370876316
18,15,Jits_Phase_8,3,1,48,52,3370899612
18,15,Jits_Phase_8,0,5,56,103,3371655496
18,15,Jits_Phase_8,1,1,48,55,3371661456
18,15,Jits_Phase_8,2,5,80,127,3371675948
18,15,Jits_Phase_8,3,5,63,98,3371736412
18,15,Jits_Phase_8,0,5,80,127,3372536256
18,15,Jits_Phase_8,1,5,56,103,3372546528
18,15,Jits_Phase_8,2,5,63,98,3372555528
18,15,Jits_Phase_8,3,1,48,35,3372574384
18,15,Jits_Phase_8,0,5,56,103,3373295956
18,15,Jits_Phase_8,1,5,80,127,3373336044
18,15,Jits_Phase_8,2,5,63,98,3373365568
18,15,Jits_Phase_8,3,1,48,46,3373392872
18,15,Jits_Phase_8,0,5,56,103,3374066284
18,15,Jits_Phase_8,1,5,63,98,3374095660
18,15,Jits_Phase_8,2,5,80,127,3374135820
18,15,Jits_Phase_8,3,1,48,57,3374156248
18,15,Jits_Phase_8,0,5,80,127,3374815560
18,15,Jits_Phase_8,1,5,63,98,3374866060
18,15,Jits_Phase_8,2,5,56,103,3374886220
18,15,Jits_Phase_8,3,1,48,58,3374908068
18,15,Jits_Phase_8,0,5,56,103,3375646268
18,15,Jits_Phase_8,1,1,48,47,3375689692
18,15,Jits_Phase_8,2,5,80,127,3375715872
18,15,Jits_Phase_8,3,5,63,98,3375775988
18,15,Jits_Phase_8,0,5,80,127,3376445748
18,15,Jits_Phase_8,1,1,48,53,3376499136
18,15,Jits_Phase_8,2,5,63,98,3376536200
18,15,Jits_Phase_8,3,5,56,103,3376556360
18,15,Jits_Phase_8,0,5,63,98,3377265976
18,15,Jits_Phase_8,1,5,56,103,3377285412
18,15,Jits_Phase_8,2,1,48,48,3377312272
18,15,Jits_Phase_8,3,5,80,127,3377325568
18,15,Jits_Phase_8,0,5,80,127,3378026024
18,15,Jits_Phase_8,1,5,63,98,3378046260
18,15,Jits_Phase_8,2,1,48,51,3378061012
18,15,Jits_Phase_8,3,5,56,103,3378126144
18,15,Jits_Phase_8,0,5,63,98,3378816280
18,15,Jits_Phase_8,1,1,48,56,3378849612
18,15,Jits_Phase_8,2,5,56,103,3378925908
18,15,Jits_Phase_8,3,5,80,127,3378929048
18,15,Jits_Phase_8,0,5,63,98,3379635532
18,15,Jits_Phase_8,1,5,56,103,3379645800
18,15,Jits_Phase_8,2,5,80,127,3379648940
18,15,Jits_Phase_8,3,1,48,66,3379699036
18,15,Jits_Phase_8,0,5,56,103,3380415932
18,15,Jits_Phase_8,1,1,48,55,3380478988
18,15,Jits_Phase_8,2,5,80,127,3380535804
18,15,Jits_Phase_8,3,5,63,98,3380575740
18,15,Jits_Phase_8,0,5,56,103,3381236160
18,15,Jits_Phase_8,1,1,48,50,3381253056
18,15,Jits_Phase_8,2,5,80,127,3381316100
18,15,Jits_Phase_8,3,5,63,98,3381336336
18,15,Jits_Phase_8,0,1,48,61,3382029456
18,15,Jits_Phase_8,1,5,56,103,3382035928
18,15,Jits_Phase_8,2,5,63,98,3382146424
18,15,Jits_Phase_8,3,5,80,127,3382149960
18,15,Jits_Phase_8,0,1,48,52,3382825388
18,15,Jits_Phase_8,1,5,56,103,3382875388
18,15,Jits_Phase_8,2,5,80,127,3382906260
18,15,Jits_Phase_8,3,5,63,98,3382925680
18,15,Jits_Phase_8,0,5,63,98,3383666008
18,15,Jits_Phase_8,1,5,56,103,3383676280
18,15,Jits_Phase_8,2,5,80,127,3383685456
18,15,Jits_Phase_8,3,1,48,50,3383701676
18,15,Jits_Phase_8,0,1,48,45,3384450736
18,15,Jits_Phase_8,1,5,80,127,3384455812
18,15,Jits_Phase_8,2,5,56,103,3384505792
18,15,Jits_Phase_8,3,5,63,98,3384545728
18,15,Jits_Phase_8,0,5,80,127,3385275876
18,15,Jits_Phase_8,1,5,63,98,3385296188
18,15,Jits_Phase_8,2,1,48,62,3385317288
18,15,Jits_Phase_8,3,5,56,103,3385346380
18,15,Jits_Phase_8,0,5,80,127,3386085912
18,15,Jits_Phase_8,1,1,48,53,3386106944
18,15,Jits_Phase_8,2,5,56,103,3386115584
18,15,Jits_Phase_8,3,5,63,98,3386186084
18,15,Jits_Phase_8,0,1,48,63,3386901084
18,15,Jits_Phase_8,1,5,56,103,3386935880
18,15,Jits_Phase_8,2,5,80,127,3386945852
18,15,Jits_Phase_8,3,5,63,98,3386985940
18,15,Jits_Phase_8,0,5,56,103,3387646268
18,15,Jits_Phase_8,1,5,63,98,3387665828
18,15,Jits_Phase_8,2,5,80,127,3387736628
18,15,Jits_Phase_8,3,1,48,52,3387782764
18,15,Jits_Phase_8,0,5,63,98,3388465664
18,15,Jits_Phase_8,1,1,48,69,3388516512
18,15,Jits_Phase_8,2,5,80,127,3388525900
18,15,Jits_Phase_8,3,5,56,103,3388546360
18,15,Jits_Phase_8,0,5,80,127,3389255980
18,15,Jits_Phase_8,1,5,56,103,3389285732
18,15,Jits_Phase_8,2,1,48,59,3389314428
18,15,Jits_Phase_8,3,5,63,98,3389316248
18,15,Jits_Phase_8,0,5,56,103,3390055748
18,15,Jits_Phase_8,1,1,48,49,3390095232
18,15,Jits_Phase_8,2,5,63,98,3390116160
18,15,Jits_Phase_8,3,5,80,127,3390175648
18,15,Jits_Phase_8,0,5,80,127,3390876072
18,15,Jits_Phase_8,1,1,48,56,3390883904
18,15,Jits_Phase_8,2,5,56,103,3390895332
18,15,Jits_Phase_8,3,5,63,98,3390965980
18,15,Jits_Phase_8,0,5,80,127,3391675844
18,15,Jits_Phase_8,1,5,63,98,3391696232
18,15,Jits_Phase_8,2,5,56,103,3391725832
18,15,Jits_Phase_8,3,1,48,68,3391737868
18,15,Jits_Phase_8,0,5,80,127,3392466696
18,15,Jits_Phase_8,1,5,63,98,3392485736
18,15,Jits_Phase_8,2,1,48,65,3392535836
18,15,Jits_Phase_8,3,5,56,103,3392546344
18,15,Jits_Phase_8,0,5,80,127,3393266096
18,15,Jits_Phase_8,1,5,56,103,3393366864
18,15,Jits_Phase_8,2,1,48,48,3393381216
18,15,Jits_Phase_8,3,5,63,98,3393396012
18,15,Jits_Phase_8,0,5,63,98,3394055536
18,15,Jits_Phase_8,1,5,80,127,3394105736
18,15,Jits_Phase_8,2,5,56,103,3394126048
18,15,Jits_Phase_8,3,1,48,58,3394224928
18,15,Jits_Phase_8,0,5,80,127,3394896272
18,15,Jits_Phase_8,1,5,56,103,3394926020
18,15,Jits_Phase_8,2,5,63,98,3394929156
18,15,Jits_Phase_8,3,1,48,48,3394962568
18,15,Jits_Phase_8,0,1,48,57,3395697496
18,15,Jits_Phase_8,1,5,63,98,3395746248
18,15,Jits_Phase_8,2,5,56,103,3395786112
18,15,Jits_Phase_8,3,5,80,127,3395805660
18,15,Jits_Phase_8,0,5,80,127,3396505860
18,15,Jits_Phase_8,1,1,48,49,3396547188
18,15,Jits_Phase_8,2,5,63,98,3396585876
18,15,Jits_Phase_8,3,5,56,103,3396625736
18,15,Jits_Phase_8,0,5,63,98,3397326088
18,15,Jits_Phase_8,1,1,48,52,3397327052
18,15,Jits_Phase_8,2,5,80,127,3397406028
18,15,Jits_Phase_8,3,5,56,103,3397425512
18,15,Jits_Phase_8,0,1,48,57,3398156080
18,15,Jits_Phase_8,1,5,56,103,3398165848
18,15,Jits_Phase_8,2,5,63,98,3398175972
18,15,Jits_Phase_8,3,5,80,127,3398216056
18,15,Jits_Phase_8,0,5,56,103,3398885748
18,15,Jits_Phase_8,1,5,80,127,3398888740
18,15,Jits_Phase_8,2,1,48,60,3398998024
18,15,Jits_Phase_8,3,5,63,98,3399025992
18,15,Jits_Phase_8,0,5,56,103,3399676520
18,15,Jits_Phase_8,1,5,63,98,3399766580
18,15,Jits_Phase_8,2,1,48,55,3399798764
18,15,Jits_Phase_8,3,5,80,127,3399835904
18,15,Jits_Phase_8,0,5,63,98,3400555940
18,15,Jits_Phase_8,1,5,80,127,3400559304
18,15,Jits_Phase_8,2,1,48,61,3400581776
18,15,Jits_Phase_8,3,5,56,103,3400616496
18,15,Jits_Phase_8,0,1,48,62,3401357412
18,15,Jits_Phase_8,1,5,80,127,3401395500
18,15,Jits_Phase_8,2,5,56,103,3401416032
18,15,Jits_Phase_8,3,5,63,98,3401426376
18,15,Jits_Phase_8,0,5,56,103,3402106312
18,15,Jits_Phase_8,1,5,63,98,3402115560
18,15,Jits_Phase_8,2,5,80,127,3402186360
18,15,Jits_Phase_8,3,1,48,58,3402228728
18,15,Jits_Phase_8,0,5,80,127,3402905880
18,15,Jits_Phase_8,1,5,56,103,3402956232
18,15,Jits_Phase_8,2,1,48,58,3402966920
18,15,Jits_Phase_8,3,5,63,98,3403006428
18,15,Jits_Phase_8,0,1,48,56,3403780984
18,15,Jits_Phase_8,1,5,56,103,3403785588
18,15,Jits_Phase_8,2,5,63,98,3403796084
18,15,Jits_Phase_8,3,5,80,127,3403835872
18,15,Jits_Phase_8,0,5,56,103,3404525940
18,15,Jits_Phase_8,1,5,63,98,3404565804
18,15,Jits_Phase_8,2,1,48,52,3404604360
18,15,Jits_Phase_8,3,5,80,127,3404616000
18,15,Jits_Phase_8,0,5,80,127,3405285780
18,15,Jits_Phase_8,1,5,56,103,3405335984
18,15,Jits_Phase_8,2,5,63,98,3405356368
18,15,Jits_Phase_8,3,1,48,64,3405377096
18,15,Jits_Phase_8,0,5,80,127,3406095664
18,15,Jits_Phase_8,1,1,48,57,3406137216
18,15,Jits_Phase_8,2,5,63,98,3406156272
18,15,Jits_Phase_8,3,5,56,103,3406236444
18,15,Jits_Phase_8,0,5,80,127,3406876404
18,15,Jits_Phase_8,1,5,56,103,3406915896
18,15,Jits_Phase_8,2,1,48,58,3406934384
18,15,Jits_Phase_8,3,5,63,98,3406936348
18,15,Jits_Phase_8,0,5,56,103,3407726072
18,15,Jits_Phase_8,1,1,48,59,3407734372
18,15,Jits_Phase_8,2,5,80,127,3407736112
18,15,Jits_Phase_8,3,5,63,98,3407776072
18,15,Jits_Phase_8,0,1,48,61,3408514380
18,15,Jits_Phase_8,1,5,56,103,3408596364
18,15,Jits_Phase_8,2,5,63,98,3408636212
18,15,Jits_Phase_8,3,5,80,127,3408639428
18,15,Jits_Phase_8,0,5,63,98,3409266112
18,15,Jits_Phase_8,1,5,80,127,3409305928
18,15,Jits_Phase_8,2,1,48,50,3409348828
18,15,Jits_Phase_8,3,5,56,103,3409375748
18,15,Jits_Phase_8,0,5,63,98,3410036276
18,15,Jits_Phase_8,1,1,48,59,3410094720
18,15,Jits_Phase_8,2,5,56,103,3410116164
18,15,Jits_Phase_8,3,5,80,127,3410176256
18,15,Jits_Phase_8,0,5,80,127,3410846020
18,15,Jits_Phase_8,1,1,48,55,3410871388
18,15,Jits_Phase_8,2,5,63,98,3410896216
18,15,Jits_Phase_8,3,5,56,103,3410925892
18,15,Jits_Phase_8,0,1,48,51,3411633480
18,15,Jits_Phase_8,1,5,56,103,3411635520
18,15,Jits_Phase_8,2,5,63,98,3411685648
18,15,Jits_Phase_8,3,5,80,127,3411696216
18,15,Jits_Phase_8,0,1,48,61,3412410740
18,15,Jits_Phase_8,1,5,56,103,3412445464
18,15,Jits_Phase_8,2,5,63,98,3412556332
18,15,Jits_Phase_8,3,5,80,127,3412575596
18,15,Jits_Phase_8,0,1,48,57,3413242188
18,15,Jits_Phase_8,1,5,63,98,3413246268
18,15,Jits_Phase_8,2,5,80,127,3413295352
18,15,Jits_Phase_8,3,5,56,103,3413385488
18,15,Jits_Phase_8,0,1,48,65,3414035468
18,15,Jits_Phase_8,1,5,63,98,3414037180
18,15,Jits_Phase_8,2,5,80,127,3414065660
18,15,Jits_Phase_8,3,5,56,103,3414155652
18,15,Jits_Phase_8,0,5,63,98,3414835520
18,15,Jits_Phase_8,1,5,56,103,3414845792
18,15,Jits_Phase_8,2,1,48,64,3414852496
18,15,Jits_Phase_8,3,5,80,127,3414946112
18,15,Jits_Phase_8,0,1,48,63,3415640996
18,15,Jits_Phase_8,1,5,63,98,3415735608
18,15,Jits_Phase_8,2,5,80,127,3415766316
18,15,Jits_Phase_8,3,5,56,103,3415796216
18,15,Jits_Phase_8,0,1,48,66,3416477432
18,15,Jits_Phase_8,1,5,80,127,3416555976
18,15,Jits_Phase_8,2,5,63,98,3416566176
18,15,Jits_Phase_8,3,5,56,103,3416595908
18,15,Jits_Phase_8,0,5,80,127,3417256256
18,15,Jits_Phase_8,1,5,63,98,3417276040
18,15,Jits_Phase_8,2,5,56,103,3417326088
18,15,Jits_Phase_8,3,1,48,57,3417345696
18,15,Jits_Phase_8,0,5,63,98,3418085844
18,15,Jits_Phase_8,1,1,48,64,3418140352
18,15,Jits_Phase_8,2,5,80,127,3418146300
18,15,Jits_Phase_8,3,5,56,103,3418165564
18,15,Jits_Phase_8,0,5,63,98,3418845524
18,15,Jits_Phase_8,1,1,48,63,3418888944
18,15,Jits_Phase_8,2,5,56,103,3418895716
18,15,Jits_Phase_8,3,5,80,127,3418906136
18,15,Jits_Phase_8,0,5,56,103,3419676140
18,15,Jits_Phase_8,1,5,80,127,3419686188
18,15,Jits_Phase_8,2,1,48,59,3419729236
18,15,Jits_Phase_8,3,5,63,98,3419785628
18,15,Jits_Phase_8,0,5,80,127,3420436052
18,15,Jits_Phase_8,1,5,63,98,3420446028
18,15,Jits_Phase_8,2,1,48,55,3420493036
18,15,Jits_Phase_8,3,5,56,103,3420595644
18,15,Jits_Phase_8,0,5,63,98,3421245936
18,15,Jits_Phase_8,1,5,80,127,3421285804
18,15,Jits_Phase_8,2,1,48,59,3421310492
18,15,Jits_Phase_8,3,5,56,103,3421365836
18,15,Jits_Phase_8,0,5,56,103,3421996392
18,15,Jits_Phase_8,1,5,80,127,3422095992
18,15,Jits_Phase_8,2,1,48,50,3422107880
18,15,Jits_Phase_8,3,5,63,98,3422116148
18,15,Jits_Phase_8,0,5,80,127,3422815804
18,15,Jits_Phase_8,1,5,56,103,3422825852
18,15,Jits_Phase_8,2,1,48,61,3422903840
18,15,Jits_Phase_8,3,5,63,98,3422915924
18,15,Jits_Phase_8,0,5,56,103,3423616332
18,15,Jits_Phase_8,1,5,63,98,3423636064
18,15,Jits_Phase_8,2,1,48,47,3423693712
18,15,Jits_Phase_8,3,5,80,127,3423715776
18,15,Jits_Phase_8,0,5,63,98,3424365980
18,15,Jits_Phase_8,1,5,56,103,3424455988
18,15,Jits_Phase_8,2,5,80,127,3424459056
18,15,Jits_Phase_8,3,1,48,53,3424524664
18,15,Jits_Phase_8,0,5,56,103,3425196544
18,15,Jits_Phase_8,1,5,80,127,3425255964
18,15,Jits_Phase_8,2,5,63,98,3425266084
18,15,Jits_Phase_8,3,1,48,58,3425284644
18,15,Jits_Phase_8,0,5,80,127,3426046296
18,15,Jits_Phase_8,1,5,56,103,3426055516
18,15,Jits_Phase_8,2,1,48,47,3426058656
18,15,Jits_Phase_8,3,5,63,98,3426060144
18,15,Jits_Phase_8,0,5,56,103,3426806052
18,15,Jits_Phase_8,1,5,80,127,3426816248
18,15,Jits_Phase_8,2,5,63,98,3426835808
18,15,Jits_Phase_8,3,1,48,66,3426880800
18,15,Jits_Phase_8,0,5,63,98,3427576080
18,15,Jits_Phase_8,1,5,80,127,3427635648
18,15,Jits_Phase_8,2,1,48,68,3427651124
18,15,Jits_Phase_8,3,5,56,103,3427685916
18,15,Jits_Phase_8,0,1,48,50,3428448628
18,15,Jits_Phase_8,1,5,63,98,3428455772
18,15,Jits_Phase_8,2,5,56,103,3428466044
18,15,Jits_Phase_8,3,5,80,127,3428516196
18,15,Jits_Phase_8,0,5,63,98,3429156420
18,15,Jits_Phase_8,1,5,80,127,3429175760
18,15,Jits_Phase_8,2,1,48,59,3429184136
18,15,Jits_Phase_8,3,5,56,103,3429185872
18,15,Jits_Phase_8,0,1,48,46,3429947896
18,15,Jits_Phase_8,1,5,63,98,3429956084
18,15,Jits_Phase_8,2,5,80,127,3429959448
18,15,Jits_Phase_8,3,5,56,103,3429995876
18,15,Jits_Phase_8,0,1,48,63,3430742084
18,15,Jits_Phase_8,1,5,63,98,3430826204
18,15,Jits_Phase_8,2,5,80,127,3430856092
18,15,Jits_Phase_8,3,5,56,103,3430866436
18,15,Jits_Phase_8,0,1,48,58,3431567800
18,15,Jits_Phase_8,1,5,56,103,3431576068
18,15,Jits_Phase_8,2,5,80,127,3431605672
18,15,Jits_Phase_8,3,5,63,98,3431636392
18,15,Jits_Phase_8,0,1,48,66,3432332556
18,15,Jits_Phase_8,1,5,63,98,3432475904
18,15,Jits_Phase_8,2,5,56,103,3432515916
18,15,Jits_Phase_8,3,5,80,127,3432519208
18,15,Jits_Phase_8,0,5,80,127,3433176636
18,15,Jits_Phase_8,1,1,48,62,3433217220
18,15,Jits_Phase_8,2,5,56,103,3433256204
18,15,Jits_Phase_8,3,5,63,98,3433305580
18,15,Jits_Phase_8,0,5,80,127,3433955664
18,15,Jits_Phase_8,1,5,56,103,3433976268
18,15,Jits_Phase_8,2,1,48,54,3433990176
18,15,Jits_Phase_8,3,5,63,98,3434066468
18,15,Jits_Phase_8,0,1,48,64,3434786416
18,15,Jits_Phase_8,1,5,80,127,3434796628
18,15,Jits_Phase_8,2,5,63,98,3434836420
18,15,Jits_Phase_8,3,5,56,103,3434876432
18,15,Jits_Phase_8,0,1,48,55,3435594344
18,15,Jits_Phase_8,1,5,63,98,3435606504
18,15,Jits_Phase_8,2,5,80,127,3435665652
18,15,Jits_Phase_8,3,5,56,103,3435695532
18,15,Jits_Phase_8,0,1,48,64,3436439740
18,15,Jits_Phase_8,1,5,56,103,3436446064
18,15,Jits_Phase_8,2,5,80,127,3436475740
18,15,Jits_Phase_8,3,5,63,98,3436565856
18,15,Jits_Phase_8,0,1,48,48,3437250956
18,15,Jits_Phase_8,1,5,56,103,3437255936
18,15,Jits_Phase_8,2,5,80,127,3437365608
18,15,Jits_Phase_8,3,5,63,98,3437396476
18,15,Jits_Phase_8,0,5,56,103,3438105828
18,15,Jits_Phase_8,1,1,48,59,3438115172
18,15,Jits_Phase_8,2,5,63,98,3438166512
18,15,Jits_Phase_8,3,5,80,127,3438195960
18,15,Jits_Phase_8,0,5,56,103,3438875936
18,15,Jits_Phase_8,1,5,63,98,3438945692
18,15,Jits_Phase_8,2,1,48,54,3438961692
18,15,Jits_Phase_8,3,5,80,127,3438965996
18,15,Jits_Phase_8,0,5,80,127,3439645968
18,15,Jits_Phase_8,1,5,63,98,3439665604
18,15,Jits_Phase_8,2,5,56,103,3439715804
18,15,Jits_Phase_8,3,1,48,54,3439738252
18,15,Jits_Phase_8,0,5,63,98,3440466560
18,15,Jits_Phase_8,1,5,80,127,3440475488
18,15,Jits_Phase_8,2,1,48,61,3440517064
18,15,Jits_Phase_8,3,5,56,103,3440525708
18,15,Jits_Phase_8,0,5,63,98,3441266096
18,15,Jits_Phase_8,1,1,48,55,3441283632
18,15,Jits_Phase_8,2,5,80,127,3441335572
18,15,Jits_Phase_8,3,5,56,103,3441356108
18,15,Jits_Phase_8,0,5,63,98,3442095472
18,15,Jits_Phase_8,1,5,80,127,3442098760
18,15,Jits_Phase_8,2,1,48,59,3442115152
18,15,Jits_Phase_8,3,5,56,103,3442166264
18,15,Jits_Phase_8,0,5,80,127,3442846144
18,15,Jits_Phase_8,1,5,56,103,3442865484
18,15,Jits_Phase_8,2,5,63,98,3442875828
18,15,Jits_Phase_8,3,1,48,46,3442905248
18,15,Jits_Phase_8,0,1,48,72,3443655544
18,15,Jits_Phase_8,1,5,56,103,3443666284
18,15,Jits_Phase_8,2,5,63,98,3443756324
18,15,Jits_Phase_8,3,5,80,127,3443759688
18,15,Jits_Phase_8,0,5,80,127,3444436444
18,15,Jits_Phase_8,1,5,56,103,3444445520
18,15,Jits_Phase_8,2,1,48,46,3444455536
18,15,Jits_Phase_8,3,5,63,98,3444466192
18,15,Jits_Phase_8,0,1,48,61,3445219012
18,15,Jits_Phase_8,1,5,63,98,3445236052
18,15,Jits_Phase_8,2,5,80,127,3445295472
18,15,Jits_Phase_8,3,5,56,103,3445305816
18,15,Jits_Phase_8,0,1,48,49,3446093008
18,15,Jits_Phase_8,1,5,63,98,3446105408
18,15,Jits_Phase_8,2,5,80,127,3446136352
18,15,Jits_Phase_8,3,5,56,103,3446176168
18,15,Jits_Phase_8,0,1,48,63,3446879060
18,15,Jits_Phase_8,1,5,56,103,3446896024
18,15,Jits_Phase_8,2,5,80,127,3446906372
18,15,Jits_Phase_8,3,5,63,98,3446946184
18,15,Jits_Phase_8,0,5,80,127,3447655856
18,15,Jits_Phase_8,1,5,56,103,3447735752
18,15,Jits_Phase_8,2,5,63,98,3447745876
18,15,Jits_Phase_8,3,1,48,51,3447801952
18,15,Jits_Phase_8,0,5,80,127,3448505704
18,15,Jits_Phase_8,1,1,48,70,3448542304
18,15,Jits_Phase_8,2,5,56,103,3448585568
18,15,Jits_Phase_8,3,5,63,98,3448595840
18,15,Jits_Phase_8,0,5,80,127,3449346316
18,15,Jits_Phase_8,1,1,48,57,3449390264
18,15,Jits_Phase_8,2,5,56,103,3449395540
18,15,Jits_Phase_8,3,5,63,98,3449445740
18,15,Jits_Phase_8,0,1,48,52,3450232272
18,15,Jits_Phase_8,1,5,56,103,3450285528
18,15,Jits_Phase_8,2,5,63,98,3450288444
18,15,Jits_Phase_8,3,5,80,127,3450335636
18,15,Jits_Phase_8,0,1,48,61,3451059176
18,15,Jits_Phase_8,1,5,56,103,3451105512
18,15,Jits_Phase_8,2,5,63,98,3451136308
18,15,Jits_Phase_8,3,5,80,127,3451145460
18,15,Jits_Phase_8,0,5,63,98,3451816276
18,15,Jits_Phase_8,1,5,56,103,3451886032
18,15,Jits_Phase_8,2,1,48,65,3451897096
18,15,Jits_Phase_8,3,5,80,127,3451936300
18,15,Jits_Phase_8,0,1,48,70,3452605216
18,15,Jits_Phase_8,1,5,63,98,3452645628
18,15,Jits_Phase_8,2,5,56,103,3452656044
18,15,Jits_Phase_8,3,5,80,127,3452659184
18,15,Jits_Phase_8,0,5,80,127,3453396300
18,15,Jits_Phase_8,1,1,48,59,3453444972
18,15,Jits_Phase_8,2,5,56,103,3453455636
18,15,Jits_Phase_8,3,5,63,98,3453546052
18,15,Jits_Phase_8,0,5,80,127,3454196072
18,15,Jits_Phase_8,1,1,48,49,3454272156
18,15,Jits_Phase_8,2,5,56,103,3454296540
18,15,Jits_Phase_8,3,5,63,98,3454336276
18,15,Jits_Phase_8,0,5,56,103,3455046120
18,15,Jits_Phase_8,1,1,48,59,3455056660
18,15,Jits_Phase_8,2,5,63,98,3455065380
18,15,Jits_Phase_8,3,5,80,127,3455106388
18,15,Jits_Phase_8,0,5,63,98,3455816224
18,15,Jits_Phase_8,1,5,56,103,3455835488
18,15,Jits_Phase_8,2,1,48,57,3455852608
18,15,Jits_Phase_8,3,5,80,127,3455936196
18,15,Jits_Phase_8,0,5,63,98,3456605420
18,15,Jits_Phase_8,1,1,48,53,3456686632
18,15,Jits_Phase_8,2,5,80,127,3456716248
18,15,Jits_Phase_8,3,5,56,103,3456745920
18,15,Jits_Phase_8,0,5,56,103,3457426028
18,15,Jits_Phase_8,1,1,48,71,3457433556
18,15,Jits_Phase_8,2,5,63,98,3457455400
18,15,Jits_Phase_8,3,5,80,127,3457505600
18,15,Jits_Phase_8,0,5,63,98,3458195756
18,15,Jits_Phase_8,1,5,56,103,3458225508
18,15,Jits_Phase_8,2,1,48,56,3458241352
18,15,Jits_Phase_8,3,5,80,127,3458275776
18,15,Jits_Phase_8,0,1,48,54,3459017056
18,15,Jits_Phase_8,1,5,56,103,3459026220
18,15,Jits_Phase_8,2,5,63,98,3459045932
18,15,Jits_Phase_8,3,5,80,127,3459125488
18,15,Jits_Phase_8,0,5,63,98,3459796240
18,15,Jits_Phase_8,1,1,48,63,3459850152
18,15,Jits_Phase_8,2,5,56,103,3459855804
18,15,Jits_Phase_8,3,5,80,127,3459885404
18,15,Jits_Phase_8,0,5,56,103,3460636080
18,15,Jits_Phase_8,1,1,48,57,3460646692
18,15,Jits_Phase_8,2,5,80,127,3460696388
18,15,Jits_Phase_8,3,5,63,98,3460736352
18,15,Jits_Phase_8,0,5,63,98,3461416372
18,15,Jits_Phase_8,1,1,48,51,3461446316
18,15,Jits_Phase_8,2,5,56,103,3461475784
18,15,Jits_Phase_8,3,5,80,127,3461546300
18,15,Jits_Phase_8,0,1,48,56,3462253624
18,15,Jits_Phase_8,1,5,56,103,3462295792
18,15,Jits_Phase_8,2,5,63,98,3462306136
18,15,Jits_Phase_8,3,5,80,127,3462309724
18,15,Jits_Phase_8,0,1,48,51,3463017348
18,15,Jits_Phase_8,1,5,63,98,3463036332
18,15,Jits_Phase_8,2,5,56,103,3463095824
18,15,Jits_Phase_8,3,5,80,127,3463098968
18,15,Jits_Phase_8,0,5,63,98,3463815560
18,15,Jits_Phase_8,1,5,80,127,3463846136
18,15,Jits_Phase_8,2,5,56,103,3463865920
18,15,Jits_Phase_8,3,1,48,53,3463869408
18,15,Jits_Phase_8,0,5,56,103,3464545760
18,15,Jits_Phase_8,1,5,63,98,3464595912
18,15,Jits_Phase_8,2,5,80,127,3464675856
18,15,Jits_Phase_8,3,1,48,53,3464701144
18,15,Jits_Phase_8,0,5,80,127,3465246124
18,15,Jits_Phase_8,1,5,63,98,3465286064
18,15,Jits_Phase_8,2,5,56,103,3465305324
18,15,Jits_Phase_8,3,1,48,59,3465452888
18,15,Jits_Phase_8,0,5,56,103,3466115444
18,15,Jits_Phase_8,1,5,80,127,3466125864
18,15,Jits_Phase_8,2,5,63,98,3466146248
18,15,Jits_Phase_8,3,1,48,51,3466203312
18,15,Jits_Phase_8,0,5,56,103,3466895888
18,15,Jits_Phase_8,1,1,48,53,3466938336
18,15,Jits_Phase_8,2,5,63,98,3466946008
18,15,Jits_Phase_8,3,5,80,127,3466975536
18,15,Jits_Phase_8,0,5,56,103,3467646336
18,15,Jits_Phase_8,1,5,63,98,3467655636
18,15,Jits_Phase_8,2,5,80,127,3467705912
18,15,Jits_Phase_8,3,1,48,59,3467728508
18,15,Jits_Phase_8,0,1,48,58,3468413592
18,15,Jits_Phase_8,1,5,56,103,3468435904
18,15,Jits_Phase_8,2,5,80,127,3468439120
18,15,Jits_Phase_8,3,5,63,98,3468595696
18,15,Jits_Phase_8,0,5,63,98,3469255968
18,15,Jits_Phase_8,1,1,48,55,3469307112
18,15,Jits_Phase_8,2,5,56,103,3469325640
18,15,Jits_Phase_8,3,5,80,127,3469365800
18,15,Jits_Phase_8,0,1,48,54,3470048796
18,15,Jits_Phase_8,1,5,63,98,3470095948
18,15,Jits_Phase_8,2,5,56,103,3470185844
18,15,Jits_Phase_8,3,5,80,127,3470188908
18,15,Jits_Phase_8,0,1,48,56,3470853036
18,15,Jits_Phase_8,1,5,56,103,3470875928
18,15,Jits_Phase_8,2,5,63,98,3470966048
18,15,Jits_Phase_8,3,5,80,127,3470976492
18,15,Jits_Phase_8,0,5,56,103,3471646028
18,15,Jits_Phase_8,1,1,48,61,3471665032
18,15,Jits_Phase_8,2,5,63,98,3471696372
18,15,Jits_Phase_8,3,5,80,127,3471725972
18,15,Jits_Phase_8,0,1,48,57,3472457448
18,15,Jits_Phase_8,1,5,63,98,3472525832
18,15,Jits_Phase_8,2,5,80,127,3472535956
18,15,Jits_Phase_8,3,5,56,103,3472596552
18,15,Jits_Phase_8,0,5,63,98,3473245788
18,15,Jits_Phase_8,1,1,48,56,3473252944
18,15,Jits_Phase_8,2,5,80,127,3473305900
18,15,Jits_Phase_8,3,5,56,103,3473345912
18,15,Jits_Phase_8,0,1,48,55,3474080444
18,15,Jits_Phase_8,1,5,56,103,3474145884
18,15,Jits_Phase_8,2,5,80,127,3474166196
18,15,Jits_Phase_8,3,5,63,98,3474185892
18,15,Jits_Phase_8,0,5,63,98,3474865640
18,15,Jits_Phase_8,1,1,48,66,3474882384
18,15,Jits_Phase_8,2,5,56,103,3474886092
18,15,Jits_Phase_8,3,5,80,127,3474925880
18,15,Jits_Phase_8,0,5,63,98,3475675732
18,15,Jits_Phase_8,1,5,80,127,3475706084
18,15,Jits_Phase_8,2,1,48,57,3475712788
18,15,Jits_Phase_8,3,5,56,103,3475725788
18,15,Jits_Phase_8,0,5,80,127,3476445524
18,15,Jits_Phase_8,1,5,56,103,3476495724
18,15,Jits_Phase_8,2,1,48,67,3476547016
18,15,Jits_Phase_8,3,5,63,98,3476556256
18,15,Jits_Phase_8,0,5,63,98,3477236080
18,15,Jits_Phase_8,1,1,48,54,3477309548
18,15,Jits_Phase_8,2,5,56,103,3477355872
18,15,Jits_Phase_8,3,5,80,127,3477385576
18,15,Jits_Phase_8,0,5,80,127,3478075700
18,15,Jits_Phase_8,1,5,63,98,3478096532
18,15,Jits_Phase_8,2,5,56,103,3478165864
18,15,Jits_Phase_8,3,1,48,27,3478179688
18,15,Jits_Phase_8,0,5,63,98,3478895928
18,15,Jits_Phase_8,1,5,56,103,3478906272
18,15,Jits_Phase_8,2,1,48,64,3478960580
18,15,Jits_Phase_8,3,5,80,127,3478986080
18,15,Jits_Phase_8,0,1,48,66,3479723852
18,15,Jits_Phase_8,1,5,56,103,3479756092
18,15,Jits_Phase_8,2,5,80,127,3479785696
18,15,Jits_Phase_8,3,5,63,98,3479795964
18,15,Jits_Phase_8,0,9999,9999,9999,9999,3344913468
18,15,Jits_Phase_8,1,9999,9999,9999,9999,3345713260
18,15,Jits_Phase_8,2,9999,9999,9999,9999,3346514044
18,15,Jits_Phase_8,3,9999,9999,9999,9999,3347313780
18,15,Jits_Phase_8,4,9999,9999,9999,9999,3348113516
18,15,Jits_Phase_8,5,9999,9999,9999,9999,3348913280
18,15,Jits_Phase_8,6,9999,9999,9999,9999,3349714012
18,15,Jits_Phase_8,7,9999,9999,9999,9999,3350513788
18,15,Jits_Phase_8,8,9999,9999,9999,9999,3351313476
18,15,Jits_Phase_8,9,9999,9999,9999,9999,3352113224
18,15,Jits_Phase_8,10,9999,9999,9999,9999,3352913976
18,15,Jits_Phase_8,11,9999,9999,9999,9999,3353713736
18,15,Jits_Phase_8,12,9999,9999,9999,9999,3354513528
18,15,Jits_Phase_8,13,9999,9999,9999,9999,3355313224
18,15,Jits_Phase_8,14,9999,9999,9999,9999,3356114020
18,15,Jits_Phase_8,15,9999,9999,9999,9999,3356913768
18,15,Jits_Phase_8,16,9999,9999,9999,9999,3357713508
18,15,Jits_Phase_8,17,9999,9999,9999,9999,3358513212
18,15,Jits_Phase_8,18,9999,9999,9999,9999,3359314020
18,15,Jits_Phase_8,19,9999,9999,9999,9999,3360113716
18,15,Jits_Phase_8,20,9999,9999,9999,9999,3360913496
18,15,Jits_Phase_8,21,9999,9999,9999,9999,3361713252
18,15,Jits_Phase_8,22,9999,9999,9999,9999,3362513988
18,15,Jits_Phase_8,23,9999,9999,9999,9999,3363313752
18,15,Jits_Phase_8,24,9999,9999,9999,9999,3364113508
18,15,Jits_Phase_8,25,9999,9999,9999,9999,3364913260
18,15,Jits_Phase_8,26,9999,9999,9999,9999,3365713988
18,15,Jits_Phase_8,27,9999,9999,9999,9999,3366513760
18,15,Jits_Phase_8,28,9999,9999,9999,9999,3367313480
18,15,Jits_Phase_8,29,9999,9999,9999,9999,3368113260
18,15,Jits_Phase_8,30,9999,9999,9999,9999,3368893532
18,15,Jits_Phase_8,31,9999,9999,9999,9999,3369693288
18,15,Jits_Phase_8,32,9999,9999,9999,9999,3370494032
18,15,Jits_Phase_8,33,9999,9999,9999,9999,3371293792
18,15,Jits_Phase_8,34,9999,9999,9999,9999,3372093568
18,15,Jits_Phase_8,35,9999,9999,9999,9999,3372893272
18,15,Jits_Phase_8,36,9999,9999,9999,9999,3373694024
18,15,Jits_Phase_8,37,9999,9999,9999,9999,3374493816
18,15,Jits_Phase_8,38,9999,9999,9999,9999,3375293512
18,15,Jits_Phase_8,39,9999,9999,9999,9999,3376093288
18,15,Jits_Phase_8,40,9999,9999,9999,9999,3376894036
18,15,Jits_Phase_8,41,9999,9999,9999,9999,3377693808
18,15,Jits_Phase_8,42,9999,9999,9999,9999,3378493564
18,15,Jits_Phase_8,43,9999,9999,9999,9999,3379293252
18,15,Jits_Phase_8,44,9999,9999,9999,9999,3380094040
18,15,Jits_Phase_8,45,9999,9999,9999,9999,3380893816
18,15,Jits_Phase_8,46,9999,9999,9999,9999,3381693516
18,15,Jits_Phase_8,47,9999,9999,9999,9999,3382493280
18,15,Jits_Phase_8,48,9999,9999,9999,9999,3383313488
18,15,Jits_Phase_8,49,9999,9999,9999,9999,3384113244
18,15,Jits_Phase_8,50,9999,9999,9999,9999,3384914044
18,15,Jits_Phase_8,51,9999,9999,9999,9999,3385713724
18,15,Jits_Phase_8,52,9999,9999,9999,9999,3386513528
18,15,Jits_Phase_8,53,9999,9999,9999,9999,3387313232
18,15,Jits_Phase_8,54,9999,9999,9999,9999,3388114028
18,15,Jits_Phase_8,55,9999,9999,9999,9999,3388913724
18,15,Jits_Phase_8,56,9999,9999,9999,9999,3389713480
18,15,Jits_Phase_8,57,9999,9999,9999,9999,3390513252
18,15,Jits_Phase_8,58,9999,9999,9999,9999,3391313996
18,15,Jits_Phase_8,59,9999,9999,9999,9999,3392113764
18,15,Jits_Phase_8,60,9999,9999,9999,9999,3392913488
18,15,Jits_Phase_8,61,9999,9999,9999,9999,3393713264
18,15,Jits_Phase_8,62,9999,9999,9999,9999,3394514008
18,15,Jits_Phase_8,63,9999,9999,9999,9999,3395313756
18,15,Jits_Phase_8,64,9999,9999,9999,9999,3396153464
18,15,Jits_Phase_8,65,9999,9999,9999,9999,3396953152
18,15,Jits_Phase_8,66,9999,9999,9999,9999,3397753976
18,15,Jits_Phase_8,67,9999,9999,9999,9999,3398553684
18,15,Jits_Phase_8,68,9999,9999,9999,9999,3399353432
18,15,Jits_Phase_8,69,9999,9999,9999,9999,3400153208
18,15,Jits_Phase_8,70,9999,9999,9999,9999,3400953948
18,15,Jits_Phase_8,71,9999,9999,9999,9999,3401753716
18,15,Jits_Phase_8,72,9999,9999,9999,9999,3402553396
18,15,Jits_Phase_8,73,9999,9999,9999,9999,3403353172
18,15,Jits_Phase_8,74,9999,9999,9999,9999,3404153924
18,15,Jits_Phase_8,75,9999,9999,9999,9999,3404953700
18,15,Jits_Phase_8,76,9999,9999,9999,9999,3405753468
18,15,Jits_Phase_8,77,9999,9999,9999,9999,3406553168
18,15,Jits_Phase_8,78,9999,9999,9999,9999,3407353980
18,15,Jits_Phase_8,79,9999,9999,9999,9999,3408153680
18,15,Jits_Phase_8,80,9999,9999,9999,9999,3408953452
18,15,Jits_Phase_8,81,9999,9999,9999,9999,3409713276
18,15,Jits_Phase_8,82,9999,9999,9999,9999,3410514008
18,15,Jits_Phase_8,83,9999,9999,9999,9999,3411313760
18,15,Jits_Phase_8,84,9999,9999,9999,9999,3412113476
18,15,Jits_Phase_8,85,9999,9999,9999,9999,3412913236
18,15,Jits_Phase_8,86,9999,9999,9999,9999,3413714040
18,15,Jits_Phase_8,87,9999,9999,9999,9999,3414513720
18,15,Jits_Phase_8,88,9999,9999,9999,9999,3415313468
18,15,Jits_Phase_8,89,9999,9999,9999,9999,3416113232
18,15,Jits_Phase_8,90,9999,9999,9999,9999,3416914048
18,15,Jits_Phase_8,91,9999,9999,9999,9999,3417713728
18,15,Jits_Phase_8,92,9999,9999,9999,9999,3418513528
18,15,Jits_Phase_8,93,9999,9999,9999,9999,3419313208
18,15,Jits_Phase_8,94,9999,9999,9999,9999,3420114012
18,15,Jits_Phase_8,95,9999,9999,9999,9999,3420913780
18,15,Jits_Phase_8,96,9999,9999,9999,9999,3421713476
18,15,Jits_Phase_8,97,9999,9999,9999,9999,3422433376
18,15,Jits_Phase_8,98,9999,9999,9999,9999,3423233076
18,15,Jits_Phase_8,99,9999,9999,9999,9999,3424033900
18,15,Jits_Phase_8,100,9999,9999,9999,9999,3424833664
18,15,Jits_Phase_8,101,9999,9999,9999,9999,3425633348
18,15,Jits_Phase_8,102,9999,9999,9999,9999,3426433140
18,15,Jits_Phase_8,103,9999,9999,9999,9999,3427233884
18,15,Jits_Phase_8,104,9999,9999,9999,9999,3428033660
18,15,Jits_Phase_8,105,9999,9999,9999,9999,3428833348
18,15,Jits_Phase_8,106,9999,9999,9999,9999,3429633096
18,15,Jits_Phase_8,107,9999,9999,9999,9999,3430433880
18,15,Jits_Phase_8,108,9999,9999,9999,9999,3431233644
18,15,Jits_Phase_8,109,9999,9999,9999,9999,3432033400
18,15,Jits_Phase_8,110,9999,9999,9999,9999,3432833108
18,15,Jits_Phase_8,111,9999,9999,9999,9999,3433633920
18,15,Jits_Phase_8,112,9999,9999,9999,9999,3434433612
18,15,Jits_Phase_8,113,9999,9999,9999,9999,3435233388
18,15,Jits_Phase_8,114,9999,9999,9999,9999,3436113976
18,15,Jits_Phase_8,115,9999,9999,9999,9999,3436913732
18,15,Jits_Phase_8,116,9999,9999,9999,9999,3437713524
18,15,Jits_Phase_8,117,9999,9999,9999,9999,3438513216
18,15,Jits_Phase_8,118,9999,9999,9999,9999,3439314036
18,15,Jits_Phase_8,119,9999,9999,9999,9999,3440113728
18,15,Jits_Phase_8,120,9999,9999,9999,9999,3440913500
18,15,Jits_Phase_8,121,9999,9999,9999,9999,3441713260
18,15,Jits_Phase_8,122,9999,9999,9999,9999,3442513980
18,15,Jits_Phase_8,123,9999,9999,9999,9999,3443313728
18,15,Jits_Phase_8,124,9999,9999,9999,9999,3444113520
18,15,Jits_Phase_8,125,9999,9999,9999,9999,3444913268
18,15,Jits_Phase_8,126,9999,9999,9999,9999,3445714008
18,15,Jits_Phase_8,127,9999,9999,9999,9999,3446513772
18,15,Jits_Phase_8,128,9999,9999,9999,9999,3447313528
18,15,Jits_Phase_8,129,9999,9999,9999,9999,3448113212
18,15,Jits_Phase_8,130,9999,9999,9999,9999,3448914040
18,15,Jits_Phase_8,131,9999,9999,9999,9999,3449873484
18,15,Jits_Phase_8,132,9999,9999,9999,9999,3450673252
18,15,Jits_Phase_8,133,9999,9999,9999,9999,3451473992
18,15,Jits_Phase_8,134,9999,9999,9999,9999,3452273752
18,15,Jits_Phase_8,135,9999,9999,9999,9999,3453073524
18,15,Jits_Phase_8,136,9999,9999,9999,9999,3453873208
18,15,Jits_Phase_8,137,9999,9999,9999,9999,3454674028
18,15,Jits_Phase_8,138,9999,9999,9999,9999,3455473728
18,15,Jits_Phase_8,139,9999,9999,9999,9999,3456273500
18,15,Jits_Phase_8,140,9999,9999,9999,9999,3457073260
18,15,Jits_Phase_8,141,9999,9999,9999,9999,3457873988
18,15,Jits_Phase_8,142,9999,9999,9999,9999,3458673756
18,15,Jits_Phase_8,143,9999,9999,9999,9999,3459473464
18,15,Jits_Phase_8,144,9999,9999,9999,9999,3460273220
18,15,Jits_Phase_8,145,9999,9999,9999,9999,3461074028
18,15,Jits_Phase_8,146,9999,9999,9999,9999,3461873724
18,15,Jits_Phase_8,147,9999,9999,9999,9999,3462673480
18,15,Jits_Phase_8,148,9999,9999,9999,9999,3463473204
18,15,Jits_Phase_8,149,9999,9999,9999,9999,3464274004
18,15,Jits_Phase_8,150,9999,9999,9999,9999,3464914040
18,15,Jits_Phase_8,151,9999,9999,9999,9999,3465713736
18,15,Jits_Phase_8,152,9999,9999,9999,9999,3466513508
18,15,Jits_Phase_8,153,9999,9999,9999,9999,3467313212
18,15,Jits_Phase_8,154,9999,9999,9999,9999,3468113996
18,15,Jits_Phase_8,155,9999,9999,9999,9999,3468913760
18,15,Jits_Phase_8,156,9999,9999,9999,9999,3469713468
18,15,Jits_Phase_8,157,9999,9999,9999,9999,3470513224
18,15,Jits_Phase_8,158,9999,9999,9999,9999,3471314032
18,15,Jits_Phase_8,159,9999,9999,9999,9999,3472113788
18,15,Jits_Phase_8,160,9999,9999,9999,9999,3472913496
18,15,Jits_Phase_8,161,9999,9999,9999,9999,3473713256
18,15,Jits_Phase_8,162,9999,9999,9999,9999,3474513996
18,15,Jits_Phase_8,163,9999,9999,9999,9999,3475313748
18,15,Jits_Phase_8,164,9999,9999,9999,9999,3476113532
18,15,Jits_Phase_8,165,9999,9999,9999,9999,3476913212
18,15,Jits_Phase_8,166,9999,9999,9999,9999,3477714036
18,15,Jits_Phase_8,167,9999,9999,9999,9999,3478513720
18,15,Jits_Phase_8,168,9999,9999,9999,9999,3479313496
18,15,Jits_Phase_8,169,9999,9999,9999,9999,3480113268
19,17,Jits_Phase_5,0,5,56,103,3489614308
19,17,Jits_Phase_5,1,5,63,98,3489617328
19,17,Jits_Phase_5,2,5,80,127,3489620600
19,17,Jits_Phase_5,0,5,56,103,3490113860
19,17,Jits_Phase_5,1,5,63,98,3490117192
19,17,Jits_Phase_5,2,5,80,127,3490120236
19,17,Jits_Phase_5,0,5,56,103,3490613516
19,17,Jits_Phase_5,1,5,80,127,3490624008
19,17,Jits_Phase_5,2,5,63,98,3490644320
19,17,Jits_Phase_5,0,5,63,98,3491064320
19,17,Jits_Phase_5,1,5,80,127,3491094068
19,17,Jits_Phase_5,2,5,56,103,3491104264
19,17,Jits_Phase_5,0,1,48,54,3491614344
19,17,Jits_Phase_5,1,5,80,127,3491624332
19,17,Jits_Phase_5,2,5,56,103,3491633408
19,17,Jits_Phase_5,3,5,63,98,3491664348
19,17,Jits_Phase_5,0,5,63,98,3492113756
19,17,Jits_Phase_5,1,5,56,103,3492143356
19,17,Jits_Phase_5,2,1,48,46,3492149468
19,17,Jits_Phase_5,3,5,80,127,3492153692
19,17,Jits_Phase_5,0,5,56,103,3492564436
19,17,Jits_Phase_5,1,5,63,98,3492613440
19,17,Jits_Phase_5,2,5,80,127,3492634196
19,17,Jits_Phase_5,3,1,48,67,3492643916
19,17,Jits_Phase_5,0,5,80,127,3493064120
19,17,Jits_Phase_5,1,5,63,98,3493114324
19,17,Jits_Phase_5,2,1,48,70,3493138644
19,17,Jits_Phase_5,3,5,56,103,3493154104
19,17,Jits_Phase_5,0,5,56,103,3493563664
19,17,Jits_Phase_5,1,5,63,98,3493593416
19,17,Jits_Phase_5,2,1,48,56,3493660204
19,17,Jits_Phase_5,3,5,80,127,3493664056
19,17,Jits_Phase_5,0,5,56,103,3494063352
19,17,Jits_Phase_5,1,1,48,61,3494106700
19,17,Jits_Phase_5,2,5,80,127,3494124108
19,17,Jits_Phase_5,3,5,63,98,3494153556
19,17,Jits_Phase_5,0,5,56,103,3494573308
19,17,Jits_Phase_5,1,5,63,98,3494583804
19,17,Jits_Phase_5,2,1,48,62,3494587072
19,17,Jits_Phase_5,3,5,80,127,3494623732
19,17,Jits_Phase_5,0,5,63,98,3495064152
19,17,Jits_Phase_5,1,1,48,55,3495086528
19,17,Jits_Phase_5,2,5,80,127,3495143644
19,17,Jits_Phase_5,3,5,56,103,3495154284
19,17,Jits_Phase_5,0,1,48,62,3495584252
19,17,Jits_Phase_5,1,5,63,98,3495613944
19,17,Jits_Phase_5,2,5,56,103,3495653952
19,17,Jits_Phase_5,3,5,80,127,3495656948
19,17,Jits_Phase_5,0,1,48,59,3496062648
19,17,Jits_Phase_5,1,5,56,103,3496073460
19,17,Jits_Phase_5,2,5,63,98,3496084100
19,17,Jits_Phase_5,3,5,80,127,3496123888
19,17,Jits_Phase_5,0,1,48,51,3496557564
19,17,Jits_Phase_5,1,5,56,103,3496564184
19,17,Jits_Phase_5,2,5,63,98,3496567104
19,17,Jits_Phase_5,3,5,80,127,3496583548
19,17,Jits_Phase_5,0,5,80,127,3497074340
19,17,Jits_Phase_5,1,1,48,67,3497076636
19,17,Jits_Phase_5,2,5,56,103,3497084232
19,17,Jits_Phase_5,3,5,63,98,3497153984
19,17,Jits_Phase_5,0,5,63,98,3497563444
19,17,Jits_Phase_5,1,5,56,103,3497584200
19,17,Jits_Phase_5,2,1,48,59,3497616712
19,17,Jits_Phase_5,3,5,80,127,3497664080
19,17,Jits_Phase_5,0,5,56,103,3498073384
19,17,Jits_Phase_5,1,5,80,127,3498114544
19,17,Jits_Phase_5,2,1,48,53,3498120280
19,17,Jits_Phase_5,3,5,63,98,3498123608
19,17,Jits_Phase_5,0,5,80,127,3498564220
19,17,Jits_Phase_5,1,5,63,98,3498593600
19,17,Jits_Phase_5,2,1,48,65,3498626856
19,17,Jits_Phase_5,3,5,56,103,3498633552
19,17,Jits_Phase_5,0,1,48,54,3499071752
19,17,Jits_Phase_5,1,5,56,103,3499084132
19,17,Jits_Phase_5,2,5,63,98,3499113808
19,17,Jits_Phase_5,3,5,80,127,3499164256
19,17,Jits_Phase_5,0,5,80,127,3499584192
19,17,Jits_Phase_5,1,1,48,64,3499601020
19,17,Jits_Phase_5,2,5,56,103,3499623972
19,17,Jits_Phase_5,3,5,63,98,3499633948
19,17,Jits_Phase_5,0,5,80,127,3500074444
19,17,Jits_Phase_5,1,5,63,98,3500114380
19,17,Jits_Phase_5,2,1,48,57,3500144100
19,17,Jits_Phase_5,3,5,56,103,3500173884
19,17,Jits_Phase_5,0,5,56,103,3500573980
19,17,Jits_Phase_5,1,5,80,127,3500584324
19,17,Jits_Phase_5,2,1,48,72,3500658836
19,17,Jits_Phase_5,3,5,63,98,3500664108
19,17,Jits_Phase_5,0,5,80,127,3501074116
19,17,Jits_Phase_5,1,1,48,51,3501115448
19,17,Jits_Phase_5,2,5,63,98,3501134276
19,17,Jits_Phase_5,3,5,56,103,3501164320
19,17,Jits_Phase_5,0,5,56,103,3501573436
19,17,Jits_Phase_5,1,5,80,127,3501633972
19,17,Jits_Phase_5,2,1,48,66,3501658368
19,17,Jits_Phase_5,3,5,63,98,3501673828
19,17,Jits_Phase_5,0,5,56,103,3502124372
19,17,Jits_Phase_5,1,5,63,98,3502133816
19,17,Jits_Phase_5,2,5,80,127,3502137252
19,17,Jits_Phase_5,3,1,48,52,3502157460
19,17,Jits_Phase_5,0,5,80,127,3502573928
19,17,Jits_Phase_5,1,1,48,61,3502644480
19,17,Jits_Phase_5,2,5,63,98,3502664052
19,17,Jits_Phase_5,3,5,56,103,3502674172
19,17,Jits_Phase_5,0,5,56,103,3503073752
19,17,Jits_Phase_5,1,5,63,98,3503077004
19,17,Jits_Phase_5,2,5,80,127,3503080048
19,17,Jits_Phase_5,3,1,48,52,3503136440
19,17,Jits_Phase_5,0,5,80,127,3503594108
19,17,Jits_Phase_5,1,1,48,58,3503642808
19,17,Jits_Phase_5,2,5,63,98,3503644452
19,17,Jits_Phase_5,3,5,56,103,3503673904
19,17,Jits_Phase_5,0,5,56,103,3504084340
19,17,Jits_Phase_5,1,5,80,127,3504093488
19,17,Jits_Phase_5,2,5,63,98,3504164136
19,17,Jits_Phase_5,3,1,48,52,3504165548
19,17,Jits_Phase_5,0,5,56,103,3504594288
19,17,Jits_Phase_5,1,5,63,98,3504613924
19,17,Jits_Phase_5,2,1,48,55,3504663572
19,17,Jits_Phase_5,3,5,80,127,3504674156
19,17,Jits_Phase_5,0,5,80,127,3505073380
19,17,Jits_Phase_5,1,1,48,52,3505120840
19,17,Jits_Phase_5,2,5,63,98,3505144252
19,17,Jits_Phase_5,3,5,56,103,3505163588
19,17,Jits_Phase_5,0,5,80,127,3505593972
19,17,Jits_Phase_5,1,5,56,103,3505603944
19,17,Jits_Phase_5,2,5,63,98,3505614064
19,17,Jits_Phase_5,3,1,48,60,3505628792
19,17,Jits_Phase_5,0,5,80,127,3506084220
19,17,Jits_Phase_5,1,5,56,103,3506103928
19,17,Jits_Phase_5,2,1,48,60,3506156868
19,17,Jits_Phase_5,3,5,63,98,3506174424
19,17,Jits_Phase_5,0,5,56,103,3506594100
19,17,Jits_Phase_5,1,1,48,53,3506622488
19,17,Jits_Phase_5,2,5,80,127,3506624288
19,17,Jits_Phase_5,3,5,63,98,3506644224
19,17,Jits_Phase_5,0,1,48,54,3507079592
19,17,Jits_Phase_5,1,5,63,98,3507083816
19,17,Jits_Phase_5,2,5,56,103,3507144056
19,17,Jits_Phase_5,3,5,80,127,3507173732
19,17,Jits_Phase_5,0,5,63,98,3507574108
19,17,Jits_Phase_5,1,5,80,127,3507577400
19,17,Jits_Phase_5,2,1,48,59,3507580000
19,17,Jits_Phase_5,3,5,56,103,3507664304
19,17,Jits_Phase_5,0,5,56,103,3508094228
19,17,Jits_Phase_5,1,5,63,98,3508124124
19,17,Jits_Phase_5,2,1,48,49,3508156236
19,17,Jits_Phase_5,3,5,80,127,3508163980
19,17,Jits_Phase_5,0,5,63,98,3508593968
19,17,Jits_Phase_5,1,1,48,46,3508618908
19,17,Jits_Phase_5,2,5,56,103,3508633924
19,17,Jits_Phase_5,3,5,80,127,3508653780
19,17,Jits_Phase_5,0,1,48,56,3509093912
19,17,Jits_Phase_5,1,5,63,98,3509103900
19,17,Jits_Phase_5,2,5,56,103,3509143788
19,17,Jits_Phase_5,3,5,80,127,3509154280
19,17,Jits_Phase_5,0,5,80,127,3509584108
19,17,Jits_Phase_5,1,1,48,45,3509629128
19,17,Jits_Phase_5,2,5,63,98,3509653880
19,17,Jits_Phase_5,3,5,56,103,3509674264
19,17,Jits_Phase_5,0,5,56,103,3510073836
19,17,Jits_Phase_5,1,5,80,127,3510094220
19,17,Jits_Phase_5,2,1,48,56,3510099804
19,17,Jits_Phase_5,3,5,63,98,3510134220
19,17,Jits_Phase_5,0,1,48,62,3510583788
19,17,Jits_Phase_5,1,5,63,98,3510585428
19,17,Jits_Phase_5,2,5,80,127,3510604016
19,17,Jits_Phase_5,3,5,56,103,3510644028
19,17,Jits_Phase_5,0,5,63,98,3511084364
19,17,Jits_Phase_5,1,5,56,103,3511103924
19,17,Jits_Phase_5,2,5,80,127,3511114116
19,17,Jits_Phase_5,3,1,48,40,3511133120
19,17,Jits_Phase_5,0,5,80,127,3511584184
19,17,Jits_Phase_5,1,1,48,67,3511603372
19,17,Jits_Phase_5,2,5,56,103,3511605008
19,17,Jits_Phase_5,3,5,63,98,3511634160
19,17,Jits_Phase_5,0,1,48,48,3512090496
19,17,Jits_Phase_5,1,5,56,103,3512153768
19,17,Jits_Phase_5,2,5,80,127,3512156756
19,17,Jits_Phase_5,3,5,63,98,3512173920
19,17,Jits_Phase_5,0,5,63,98,3512574252
19,17,Jits_Phase_5,1,5,56,103,3512604000
19,17,Jits_Phase_5,2,1,48,63,3512635212
19,17,Jits_Phase_5,3,5,80,127,3512664532
19,17,Jits_Phase_5,0,1,48,59,3513126488
19,17,Jits_Phase_5,1,5,63,98,3513153860
19,17,Jits_Phase_5,2,5,56,103,3513164056
19,17,Jits_Phase_5,3,5,80,127,3513174624
19,17,Jits_Phase_5,0,5,56,103,3513613616
19,17,Jits_Phase_5,1,5,80,127,3513644488
19,17,Jits_Phase_5,2,5,63,98,3513653784
19,17,Jits_Phase_5,3,1,48,64,3513658324
19,17,Jits_Phase_5,0,1,48,61,3514125716
19,17,Jits_Phase_5,1,5,63,98,3514154284
19,17,Jits_Phase_5,2,5,56,103,3514163656
19,17,Jits_Phase_5,3,5,80,127,3514183964
19,17,Jits_Phase_5,0,5,56,103,3514584520
19,17,Jits_Phase_5,1,5,63,98,3514643936
19,17,Jits_Phase_5,2,5,80,127,3514647076
19,17,Jits_Phase_5,3,1,48,46,3514650648
19,17,Jits_Phase_5,0,5,80,127,3515103532
19,17,Jits_Phase_5,1,5,56,103,3515113876
19,17,Jits_Phase_5,2,1,48,52,3515143596
19,17,Jits_Phase_5,3,5,63,98,3515183544
19,17,Jits_Phase_5,0,5,80,127,3515594228
19,17,Jits_Phase_5,1,1,48,57,3515650532
19,17,Jits_Phase_5,2,5,56,103,3515663752
19,17,Jits_Phase_5,3,5,63,98,3515673872
19,17,Jits_Phase_5,0,1,48,44,3516110216
19,17,Jits_Phase_5,1,5,63,98,3516133624
19,17,Jits_Phase_5,2,5,56,103,3516143968
19,17,Jits_Phase_5,3,5,80,127,3516163528
19,17,Jits_Phase_5,0,5,80,127,3516584160
19,17,Jits_Phase_5,1,1,48,49,3516587728
19,17,Jits_Phase_5,2,5,63,98,3516643720
19,17,Jits_Phase_5,3,5,56,103,3516683564
19,17,Jits_Phase_5,0,1,48,57,3517097896
19,17,Jits_Phase_5,1,5,56,103,3517123924
19,17,Jits_Phase_5,2,5,63,98,3517134120
19,17,Jits_Phase_5,3,5,80,127,3517174056
19,17,Jits_Phase_5,0,5,56,103,3517583604
19,17,Jits_Phase_5,1,1,48,62,3517599904
19,17,Jits_Phase_5,2,5,80,127,3517613420
19,17,Jits_Phase_5,3,5,63,98,3517663620
19,17,Jits_Phase_5,0,1,48,50,3518038056
19,17,Jits_Phase_5,1,5,56,103,3518124488
19,17,Jits_Phase_5,2,5,63,98,3518164260
19,17,Jits_Phase_5,3,5,80,127,3518167624
19,17,Jits_Phase_5,0,1,48,46,3518600528
19,17,Jits_Phase_5,1,5,56,103,3518624160
19,17,Jits_Phase_5,2,5,63,98,3518634432
19,17,Jits_Phase_5,3,5,80,127,3518653692
19,17,Jits_Phase_5,0,5,56,103,3519083884
19,17,Jits_Phase_5,1,5,80,127,3519086952
19,17,Jits_Phase_5,2,5,63,98,3519123920
19,17,Jits_Phase_5,3,1,48,67,3519132892
19,17,Jits_Phase_5,0,1,48,61,3519605480
19,17,Jits_Phase_5,1,5,63,98,3519623512
19,17,Jits_Phase_5,2,5,56,103,3519654384
19,17,Jits_Phase_5,3,5,80,127,3519673720
19,17,Jits_Phase_5,0,5,80,127,3520093432
19,17,Jits_Phase_5,1,5,56,103,3520103924
19,17,Jits_Phase_5,2,5,63,98,3520113972
19,17,Jits_Phase_5,3,1,48,57,3520126556
19,17,Jits_Phase_5,0,5,56,103,3520594236
19,17,Jits_Phase_5,1,1,48,77,3520607916
19,17,Jits_Phase_5,2,5,80,127,3520634316
19,17,Jits_Phase_5,3,5,63,98,3520663940
19,17,Jits_Phase_5,0,1,48,52,3521102980
19,17,Jits_Phase_5,1,5,63,98,3521104696
19,17,Jits_Phase_5,2,5,80,127,3521113476
19,17,Jits_Phase_5,3,5,56,103,3521123820
19,17,Jits_Phase_5,0,5,56,103,3521593744
19,17,Jits_Phase_5,1,1,48,73,3521623836
19,17,Jits_Phase_5,2,5,63,98,3521664564
19,17,Jits_Phase_5,3,5,80,127,3521673636
19,17,Jits_Phase_5,0,5,80,127,3522103620
19,17,Jits_Phase_5,1,1,48,58,3522111000
19,17,Jits_Phase_5,2,5,56,103,3522114032
19,17,Jits_Phase_5,3,5,63,98,3522164304
19,17,Jits_Phase_5,0,1,48,71,3522605080
19,17,Jits_Phase_5,1,5,80,127,3522613492
19,17,Jits_Phase_5,2,5,56,103,3522674028
19,17,Jits_Phase_5,3,5,63,98,3522703640
19,17,Jits_Phase_5,0,5,56,103,3523123584
19,17,Jits_Phase_5,1,5,80,127,3523126728
19,17,Jits_Phase_5,2,5,63,98,3523163596
19,17,Jits_Phase_5,3,1,48,40,3523176304
19,17,Jits_Phase_5,0,5,56,103,3523654052
19,17,Jits_Phase_5,1,5,63,98,3523683804
19,17,Jits_Phase_5,2,5,80,127,3523694072
19,17,Jits_Phase_5,3,1,48,65,3523700556
19,17,Jits_Phase_5,0,1,48,61,3524156932
19,17,Jits_Phase_5,1,5,63,98,3524163852
19,17,Jits_Phase_5,2,5,80,127,3524174348
19,17,Jits_Phase_5,3,5,56,103,3524184544
19,17,Jits_Phase_5,0,5,80,127,3524613416
19,17,Jits_Phase_5,1,1,48,58,3524643960
19,17,Jits_Phase_5,2,5,56,103,3524663528
19,17,Jits_Phase_5,3,5,63,98,3524666828
19,17,Jits_Phase_5,0,5,56,103,3525143960
19,17,Jits_Phase_5,1,5,80,127,3525164496
19,17,Jits_Phase_5,2,5,63,98,3525173640
19,17,Jits_Phase_5,3,1,48,66,3525189488
19,17,Jits_Phase_5,0,5,63,98,3525624168
19,17,Jits_Phase_5,1,5,56,103,3525653768
19,17,Jits_Phase_5,2,5,80,127,3525674300
19,17,Jits_Phase_5,3,1,48,70,3525676168
19,17,Jits_Phase_5,0,5,56,103,3526134624
19,17,Jits_Phase_5,1,1,48,69,3526138344
19,17,Jits_Phase_5,2,5,80,127,3526144520
19,17,Jits_Phase_5,3,5,63,98,3526213972
19,17,Jits_Phase_5,0,5,63,98,3526623532
19,17,Jits_Phase_5,1,5,80,127,3526663620
19,17,Jits_Phase_5,2,1,48,56,3526677372
19,17,Jits_Phase_5,3,5,56,103,3526703400
19,17,Jits_Phase_5,0,5,56,103,3527143884
19,17,Jits_Phase_5,1,5,63,98,3527154152
19,17,Jits_Phase_5,2,5,80,127,3527173564
19,17,Jits_Phase_5,3,1,48,63,3527188364
19,17,Jits_Phase_5,0,1,48,66,3527662348
19,17,Jits_Phase_5,1,5,63,98,3527683424
19,17,Jits_Phase_5,2,5,80,127,3527703880
19,17,Jits_Phase_5,3,5,56,103,3527724488
19,17,Jits_Phase_5,0,5,56,103,3528123696
19,17,Jits_Phase_5,1,1,48,60,3528168020
19,17,Jits_Phase_5,2,5,80,127,3528203560
19,17,Jits_Phase_5,3,5,63,98,3528213756
19,17,Jits_Phase_5,0,1,48,65,3528650844
19,17,Jits_Phase_5,1,5,80,127,3528664364
19,17,Jits_Phase_5,2,5,63,98,3528673512
19,17,Jits_Phase_5,3,5,56,103,3528704232
19,17,Jits_Phase_5,0,5,63,98,3529124336
19,17,Jits_Phase_5,1,1,48,69,3529154808
19,17,Jits_Phase_5,2,5,80,127,3529164120
19,17,Jits_Phase_5,3,5,56,103,3529223460
19,17,Jits_Phase_5,0,5,63,98,3529634496
19,17,Jits_Phase_5,1,1,48,63,3529653956
19,17,Jits_Phase_5,2,5,56,103,3529684320
19,17,Jits_Phase_5,3,5,80,127,3529714144
19,17,Jits_Phase_5,0,5,80,127,3530133952
19,17,Jits_Phase_5,1,1,48,60,3530137220
19,17,Jits_Phase_5,2,5,63,98,3530144216
19,17,Jits_Phase_5,3,5,56,103,3530213668
19,17,Jits_Phase_5,0,1,48,61,3530641640
19,17,Jits_Phase_5,1,5,80,127,3530694172
19,17,Jits_Phase_5,2,5,56,103,3530704440
19,17,Jits_Phase_5,3,5,63,98,3530707432
19,17,Jits_Phase_5,0,5,56,103,3531134440
19,17,Jits_Phase_5,1,5,80,127,3531153628
19,17,Jits_Phase_5,2,5,63,98,3531164268
19,17,Jits_Phase_5,3,1,48,57,3531183800
19,17,Jits_Phase_5,0,5,63,98,3531644244
19,17,Jits_Phase_5,1,1,48,68,3531653736
19,17,Jits_Phase_5,2,5,56,103,3531684176
19,17,Jits_Phase_5,3,5,80,127,3531703736
19,17,Jits_Phase_5,0,5,63,98,3532144272
19,17,Jits_Phase_5,1,1,48,64,3532149260
19,17,Jits_Phase_5,2,5,56,103,3532204380
19,17,Jits_Phase_5,3,5,80,127,3532207596
19,17,Jits_Phase_5,0,5,56,103,3532603704
19,17,Jits_Phase_5,1,5,80,127,3532624164
19,17,Jits_Phase_5,2,1,48,72,3532636280
19,17,Jits_Phase_5,3,5,63,98,3532664244
19,17,Jits_Phase_5,0,5,56,103,3533134084
19,17,Jits_Phase_5,1,1,48,67,3533135052
19,17,Jits_Phase_5,2,5,63,98,3533153640
19,17,Jits_Phase_5,3,5,80,127,3533163760
19,17,Jits_Phase_5,0,5,80,127,3533604252
19,17,Jits_Phase_5,1,1,48,68,3533621616
19,17,Jits_Phase_5,2,5,56,103,3533633848
19,17,Jits_Phase_5,3,5,63,98,3533673784
19,17,Jits_Phase_5,0,5,80,127,3534114132
19,17,Jits_Phase_5,1,5,56,103,3534133544
19,17,Jits_Phase_5,2,1,48,47,3534144832
19,17,Jits_Phase_5,3,5,63,98,3534194144
19,17,Jits_Phase_5,0,1,48,65,3534622192
19,17,Jits_Phase_5,1,5,56,103,3534624300
19,17,Jits_Phase_5,2,5,80,127,3534643564
19,17,Jits_Phase_5,3,5,63,98,3534704024
19,17,Jits_Phase_5,0,5,80,127,3535104284
19,17,Jits_Phase_5,1,5,56,103,3535113504
19,17,Jits_Phase_5,2,5,63,98,3535153516
19,17,Jits_Phase_5,3,1,48,69,3535166972
19,17,Jits_Phase_5,0,5,63,98,3535604336
19,17,Jits_Phase_5,1,5,56,103,3535644196
19,17,Jits_Phase_5,2,5,80,127,3535647340
19,17,Jits_Phase_5,3,1,48,59,3535679152
19,17,Jits_Phase_5,0,5,63,98,3536124228
19,17,Jits_Phase_5,1,1,48,53,3536130788
19,17,Jits_Phase_5,2,5,80,127,3536164236
19,17,Jits_Phase_5,3,5,56,103,3536194132
19,17,Jits_Phase_5,0,5,56,103,3536613792
19,17,Jits_Phase_5,1,5,63,98,3536624212
19,17,Jits_Phase_5,2,1,48,70,3536644420
19,17,Jits_Phase_5,3,5,80,127,3536653656
19,17,Jits_Phase_5,0,5,80,127,3537104188
19,17,Jits_Phase_5,1,1,48,63,3537116672
19,17,Jits_Phase_5,2,5,63,98,3537174160
19,17,Jits_Phase_5,3,5,56,103,3537184204
19,17,Jits_Phase_5,0,5,63,98,3537604028
19,17,Jits_Phase_5,1,1,48,58,3537659508
19,17,Jits_Phase_5,2,5,56,103,3537673552
19,17,Jits_Phase_5,3,5,80,127,3537683968
19,17,Jits_Phase_5,0,5,63,98,3538084220
19,17,Jits_Phase_5,1,5,56,103,3538103708
19,17,Jits_Phase_5,2,1,48,60,3538120760
19,17,Jits_Phase_5,3,5,80,127,3538143488
19,17,Jits_Phase_5,0,5,56,103,3538563300
19,17,Jits_Phase_5,1,5,63,98,3538573644
19,17,Jits_Phase_5,2,1,48,69,3538622768
19,17,Jits_Phase_5,3,5,80,127,3538653580
19,17,Jits_Phase_5,0,5,63,98,3539054120
19,17,Jits_Phase_5,1,5,56,103,3539083596
19,17,Jits_Phase_5,2,1,48,50,3539121716
19,17,Jits_Phase_5,3,5,80,127,3539123528
19,17,Jits_Phase_5,0,5,56,103,3539553792
19,17,Jits_Phase_5,1,5,63,98,3539593532
19,17,Jits_Phase_5,2,1,48,60,3539625420
19,17,Jits_Phase_5,3,5,80,127,3539633460
19,17,Jits_Phase_5,0,5,80,127,3540054380
19,17,Jits_Phase_5,1,1,48,72,3540093932
19,17,Jits_Phase_5,2,5,56,103,3540134264
19,17,Jits_Phase_5,3,5,63,98,3540143412
19,17,Jits_Phase_5,0,5,56,103,3540604212
19,17,Jits_Phase_5,1,5,63,98,3540607280
19,17,Jits_Phase_5,2,5,80,127,3540613436
19,17,Jits_Phase_5,3,1,48,63,3540636552
19,17,Jits_Phase_5,0,1,48,54,3541087500
19,17,Jits_Phase_5,1,5,56,103,3541123440
19,17,Jits_Phase_5,2,5,63,98,3541143900
19,17,Jits_Phase_5,3,5,80,127,3541154096
19,17,Jits_Phase_5,0,5,63,98,3541584360
19,17,Jits_Phase_5,1,5,80,127,3541593512
19,17,Jits_Phase_5,2,1,48,50,3541601188
19,17,Jits_Phase_5,3,5,56,103,3541614036
19,17,Jits_Phase_5,0,5,63,98,3542084032
19,17,Jits_Phase_5,1,1,48,65,3542127084
19,17,Jits_Phase_5,2,5,56,103,3542164064
19,17,Jits_Phase_5,3,5,80,127,3542167060
19,17,Jits_Phase_5,0,5,63,98,3542583628
19,17,Jits_Phase_5,1,5,56,103,3542604160
19,17,Jits_Phase_5,2,5,80,127,3542633908
19,17,Jits_Phase_5,3,1,48,54,3542655112
19,17,Jits_Phase_5,0,5,56,103,3543084500
19,17,Jits_Phase_5,1,1,48,61,3543093472
19,17,Jits_Phase_5,2,5,63,98,3543104056
19,17,Jits_Phase_5,3,5,80,127,3543114028
19,17,Jits_Phase_5,0,1,48,52,3543577184
19,17,Jits_Phase_5,1,5,56,103,3543613848
19,17,Jits_Phase_5,2,5,63,98,3543643368
19,17,Jits_Phase_5,3,5,80,127,3543646888
19,17,Jits_Phase_5,0,5,56,103,3544064232
19,17,Jits_Phase_5,1,5,63,98,3544104316
19,17,Jits_Phase_5,2,1,48,72,3544131176
19,17,Jits_Phase_5,3,5,80,127,3544163948
19,17,Jits_Phase_5,0,1,48,63,3544583844
19,17,Jits_Phase_5,1,5,56,103,3544585180
19,17,Jits_Phase_5,2,5,63,98,3544593884
19,17,Jits_Phase_5,3,5,80,127,3544654124
19,17,Jits_Phase_5,0,5,56,103,3545084268
19,17,Jits_Phase_5,1,5,80,127,3545103828
19,17,Jits_Phase_5,2,1,48,70,3545110384
19,17,Jits_Phase_5,3,5,63,98,3545133716
19,17,Jits_Phase_5,0,5,80,127,3545584032
19,17,Jits_Phase_5,1,5,56,103,3545594304
19,17,Jits_Phase_5,2,1,48,67,3545605368
19,17,Jits_Phase_5,3,5,63,98,3545613928
19,17,Jits_Phase_5,0,5,63,98,3546073380
19,17,Jits_Phase_5,1,1,48,73,3546125948
19,17,Jits_Phase_5,2,5,80,127,3546154364
19,17,Jits_Phase_5,3,5,56,103,3546163516
19,17,Jits_Phase_5,0,1,48,56,3546607560
19,17,Jits_Phase_5,1,5,80,127,3546664380
19,17,Jits_Phase_5,2,5,56,103,3546683864
19,17,Jits_Phase_5,3,5,63,98,3546687008
19,17,Jits_Phase_5,0,1,48,63,3547130528
19,17,Jits_Phase_5,1,5,63,98,3547153860
19,17,Jits_Phase_5,2,5,80,127,3547157300
19,17,Jits_Phase_5,3,5,56,103,3547214172
19,17,Jits_Phase_5,0,5,56,103,3547633984
19,17,Jits_Phase_5,1,5,80,127,3547644252
19,17,Jits_Phase_5,2,1,48,67,3547672176
19,17,Jits_Phase_5,3,5,63,98,3547684256
19,17,Jits_Phase_5,0,5,56,103,3548114268
19,17,Jits_Phase_5,1,1,48,51,3548151764
19,17,Jits_Phase_5,2,5,63,98,3548174048
19,17,Jits_Phase_5,3,5,80,127,3548183872
19,17,Jits_Phase_5,0,5,63,98,3548624220
19,17,Jits_Phase_5,1,1,48,76,3548642780
19,17,Jits_Phase_5,2,5,80,127,3548664228
19,17,Jits_Phase_5,3,5,56,103,3548704088
19,17,Jits_Phase_5,0,5,56,103,3549123896
19,17,Jits_Phase_5,1,1,48,75,3549130308
19,17,Jits_Phase_5,2,5,63,98,3549203832
19,17,Jits_Phase_5,3,5,80,127,3549207196
19,17,Jits_Phase_5,0,1,48,72,3549632916
19,17,Jits_Phase_5,1,5,80,127,3549684032
19,17,Jits_Phase_5,2,5,56,103,3549713928
19,17,Jits_Phase_5,3,5,63,98,3549716996
19,17,Jits_Phase_5,0,1,48,67,3550137528
19,17,Jits_Phase_5,1,5,56,103,3550143772
19,17,Jits_Phase_5,2,5,80,127,3550164304
19,17,Jits_Phase_5,3,5,63,98,3550204168
19,17,Jits_Phase_5,0,1,48,74,3550605964
19,17,Jits_Phase_5,1,5,80,127,3550624044
19,17,Jits_Phase_5,2,5,63,98,3550643752
19,17,Jits_Phase_5,3,5,56,103,3550704728
19,17,Jits_Phase_5,0,5,63,98,3551133992
19,17,Jits_Phase_5,1,5,56,103,3551144336
19,17,Jits_Phase_5,2,1,48,60,3551156220
19,17,Jits_Phase_5,3,5,80,127,3551193556
19,17,Jits_Phase_5,0,1,48,73,3551611672
19,17,Jits_Phase_5,1,5,56,103,3551623696
19,17,Jits_Phase_5,2,5,63,98,3551644004
19,17,Jits_Phase_5,3,5,80,127,3551654276
19,17,Jits_Phase_5,0,5,56,103,3552113984
19,17,Jits_Phase_5,1,5,63,98,3552117052
19,17,Jits_Phase_5,2,5,80,127,3552133644
19,17,Jits_Phase_5,3,1,48,69,3552136244
19,17,Jits_Phase_5,0,1,48,70,3552653692
19,17,Jits_Phase_5,1,5,63,98,3552655180
19,17,Jits_Phase_5,2,5,56,103,3552684332
19,17,Jits_Phase_5,3,5,80,127,3552714080
19,17,Jits_Phase_5,0,5,80,127,3553113484
19,17,Jits_Phase_5,1,1,48,74,3553143652
19,17,Jits_Phase_5,2,5,56,103,3553203780
19,17,Jits_Phase_5,3,5,63,98,3553206848
19,17,Jits_Phase_5,0,5,56,103,3553614140
19,17,Jits_Phase_5,1,5,80,127,3553617208
19,17,Jits_Phase_5,2,1,48,54,3553650964
19,17,Jits_Phase_5,3,5,63,98,3553693948
19,17,Jits_Phase_5,0,1,48,57,3554109584
19,17,Jits_Phase_5,1,5,80,127,3554113884
19,17,Jits_Phase_5,2,5,63,98,3554174296
19,17,Jits_Phase_5,3,5,56,103,3554203880
19,17,Jits_Phase_5,0,5,63,98,3554613716
19,17,Jits_Phase_5,1,1,48,48,3554620428
19,17,Jits_Phase_5,2,5,80,127,3554623832
19,17,Jits_Phase_5,3,5,56,103,3554693604
19,17,Jits_Phase_5,0,5,56,103,3555173852
19,17,Jits_Phase_5,1,1,48,58,3555182896
19,17,Jits_Phase_5,2,5,80,127,3555203468
19,17,Jits_Phase_5,3,5,63,98,3555253592
19,17,Jits_Phase_5,0,1,48,61,3555653500
19,17,Jits_Phase_5,1,5,63,98,3555763740
19,17,Jits_Phase_5,2,5,56,103,3555794240
19,17,Jits_Phase_5,3,5,80,127,3555797532
19,17,Jits_Phase_5,0,1,48,60,3556175496
19,17,Jits_Phase_5,1,5,63,98,3556264476
19,17,Jits_Phase_5,2,5,80,127,3556283724
19,17,Jits_Phase_5,3,5,56,103,3556293996
19,17,Jits_Phase_5,0,1,48,46,3556716528
19,17,Jits_Phase_5,1,5,56,103,3556774268
19,17,Jits_Phase_5,2,5,63,98,3556777484
19,17,Jits_Phase_5,3,5,80,127,3556793680
19,17,Jits_Phase_5,0,5,56,103,3557223724
19,17,Jits_Phase_5,1,1,48,50,3557232788
19,17,Jits_Phase_5,2,5,63,98,3557234584
19,17,Jits_Phase_5,3,5,80,127,3557263836
19,17,Jits_Phase_5,0,1,48,57,3557734992
19,17,Jits_Phase_5,1,5,63,98,3557743936
19,17,Jits_Phase_5,2,5,80,127,3557763520
19,17,Jits_Phase_5,3,5,56,103,3557804652
19,17,Jits_Phase_5,0,5,56,103,3558274512
19,17,Jits_Phase_5,1,1,48,64,3558283852
19,17,Jits_Phase_5,2,5,63,98,3558314512
19,17,Jits_Phase_5,3,5,80,127,3558317728
19,17,Jits_Phase_5,0,5,80,127,3558713708
19,17,Jits_Phase_5,1,5,56,103,3558753716
19,17,Jits_Phase_5,2,1,48,58,3558782936
19,17,Jits_Phase_5,3,5,63,98,3558803784
19,17,Jits_Phase_5,0,5,56,103,3559273704
19,17,Jits_Phase_5,1,1,48,48,3559274672
19,17,Jits_Phase_5,2,5,80,127,3559284044
19,17,Jits_Phase_5,3,5,63,98,3559313888
19,17,Jits_Phase_5,0,5,56,103,3559724400
19,17,Jits_Phase_5,1,5,80,127,3559764412
19,17,Jits_Phase_5,2,1,48,74,3559771200
19,17,Jits_Phase_5,3,5,63,98,3559813732
19,17,Jits_Phase_5,0,1,48,39,3560222276
19,17,Jits_Phase_5,1,5,56,103,3560224084
19,17,Jits_Phase_5,2,5,80,127,3560263948
19,17,Jits_Phase_5,3,5,63,98,3560315500
19,17,Jits_Phase_5,0,5,80,127,3560713584
19,17,Jits_Phase_5,1,1,48,66,3560729356
19,17,Jits_Phase_5,2,5,63,98,3560793668
19,17,Jits_Phase_5,3,5,56,103,3560803640
19,17,Jits_Phase_5,0,5,80,127,3561263472
19,17,Jits_Phase_5,1,5,56,103,3561273664
19,17,Jits_Phase_5,2,5,63,98,3561294196
19,17,Jits_Phase_5,3,1,48,66,3561312228
19,17,Jits_Phase_5,0,5,63,98,3561733644
19,17,Jits_Phase_5,1,5,56,103,3561803992
19,17,Jits_Phase_5,2,5,80,127,3561807360
19,17,Jits_Phase_5,3,1,48,68,3561812588
19,17,Jits_Phase_5,0,5,80,127,3562224020
19,17,Jits_Phase_5,1,5,63,98,3562274296
19,17,Jits_Phase_5,2,1,48,64,3562292636
19,17,Jits_Phase_5,3,5,56,103,3562314156
19,17,Jits_Phase_5,0,5,63,98,3562763500
19,17,Jits_Phase_5,1,5,56,103,3562803436
19,17,Jits_Phase_5,2,1,48,58,3562804480
19,17,Jits_Phase_5,3,5,80,127,3562813700
19,17,Jits_Phase_5,0,5,63,98,3563254112
19,17,Jits_Phase_5,1,5,56,103,3563273672
19,17,Jits_Phase_5,2,1,48,63,3563283840
19,17,Jits_Phase_5,3,5,80,127,3563293976
19,17,Jits_Phase_5,0,5,80,127,3563713860
19,17,Jits_Phase_5,1,5,56,103,3563724424
19,17,Jits_Phase_5,2,5,63,98,3563743540
19,17,Jits_Phase_5,3,1,48,63,3563768232
19,17,Jits_Phase_5,0,5,63,98,3564244332
19,17,Jits_Phase_5,1,1,48,59,3564261228
19,17,Jits_Phase_5,2,5,56,103,3564284412
19,17,Jits_Phase_5,3,5,80,127,3564313864
19,17,Jits_Phase_5,0,5,56,103,3564704380
19,17,Jits_Phase_5,1,5,63,98,3564733684
19,17,Jits_Phase_5,2,5,80,127,3564763432
19,17,Jits_Phase_5,3,1,48,49,3564789392
19,17,Jits_Phase_5,0,5,80,127,3565124040
19,17,Jits_Phase_5,1,5,56,103,3565193440
19,17,Jits_Phase_5,2,5,63,98,3565196660
19,17,Jits_Phase_5,3,1,48,54,3565284132
19,17,Jits_Phase_5,0,5,56,103,3565633836
19,17,Jits_Phase_5,1,5,63,98,3565684184
19,17,Jits_Phase_5,2,5,80,127,3565713736
19,17,Jits_Phase_5,3,1,48,61,3565747272
19,17,Jits_Phase_5,0,5,63,98,3566114268
19,17,Jits_Phase_5,1,5,80,127,3566117484
19,17,Jits_Phase_5,2,5,56,103,3566173532
19,17,Jits_Phase_5,3,1,48,60,3566210084
19,17,Jits_Phase_5,0,1,48,67,3566639740
19,17,Jits_Phase_5,1,5,56,103,3566643520
19,17,Jits_Phase_5,2,5,80,127,3566653788
19,17,Jits_Phase_5,3,5,63,98,3566703988
19,17,Jits_Phase_5,0,1,48,68,3567094320
19,17,Jits_Phase_5,1,5,63,98,3567113452
19,17,Jits_Phase_5,2,5,56,103,3567123720
19,17,Jits_Phase_5,3,5,80,127,3567153620
19,17,Jits_Phase_5,0,1,48,67,3567570380
19,17,Jits_Phase_5,1,5,63,98,3567644132
19,17,Jits_Phase_5,2,5,80,127,3567647424
19,17,Jits_Phase_5,3,5,56,103,3567673716
19,17,Jits_Phase_5,0,1,48,53,3568092908
19,17,Jits_Phase_5,1,5,63,98,3568164404
19,17,Jits_Phase_5,2,5,56,103,3568183588
19,17,Jits_Phase_5,3,5,80,127,3568186656
19,17,Jits_Phase_5,0,5,63,98,3568623920
19,17,Jits_Phase_5,1,1,48,65,3568642256
19,17,Jits_Phase_5,2,5,56,103,3568693520
19,17,Jits_Phase_5,3,5,80,127,3568714276
19,17,Jits_Phase_5,0,5,56,103,3569113556
19,17,Jits_Phase_5,1,5,63,98,3569123904
19,17,Jits_Phase_5,2,1,48,55,3569133172
19,17,Jits_Phase_5,3,5,80,127,3569213876
19,17,Jits_Phase_5,0,1,48,60,3569592544
19,17,Jits_Phase_5,1,5,56,103,3569633768
19,17,Jits_Phase_5,2,5,80,127,3569673556
19,17,Jits_Phase_5,3,5,63,98,3569683756
19,17,Jits_Phase_5,0,1,48,60,3570091768
19,17,Jits_Phase_5,1,5,56,103,3570153896
19,17,Jits_Phase_5,2,5,63,98,3570183424
19,17,Jits_Phase_5,3,5,80,127,3570214352
19,17,Jits_Phase_5,0,5,80,127,3570613652
19,17,Jits_Phase_5,1,1,48,58,3570633784
19,17,Jits_Phase_5,2,5,63,98,3570653508
19,17,Jits_Phase_5,3,5,56,103,3570674188
19,17,Jits_Phase_5,0,1,48,52,3571134516
19,17,Jits_Phase_5,1,5,56,103,3571154164
19,17,Jits_Phase_5,2,5,80,127,3571173728
19,17,Jits_Phase_5,3,5,63,98,3571194332
19,17,Jits_Phase_5,0,5,63,98,3571624332
19,17,Jits_Phase_5,1,5,56,103,3571633404
19,17,Jits_Phase_5,2,1,48,65,3571638168
19,17,Jits_Phase_5,3,5,80,127,3571694080
19,17,Jits_Phase_5,0,5,56,103,3572124152
19,17,Jits_Phase_5,1,1,48,71,3572143316
19,17,Jits_Phase_5,2,5,63,98,3572193604
19,17,Jits_Phase_5,3,5,80,127,3572214284
19,17,Jits_Phase_5,0,5,56,103,3572623696
19,17,Jits_Phase_5,1,5,63,98,3572653376
19,17,Jits_Phase_5,2,1,48,61,3572678364
19,17,Jits_Phase_5,3,5,80,127,3572694276
19,17,Jits_Phase_5,0,5,63,98,3573114244
19,17,Jits_Phase_5,1,1,48,73,3573164300
19,17,Jits_Phase_5,2,5,56,103,3573166164
19,17,Jits_Phase_5,3,5,80,127,3573173664
19,17,Jits_Phase_5,0,1,48,71,3573648424
19,17,Jits_Phase_5,1,5,56,103,3573654068
19,17,Jits_Phase_5,2,5,63,98,3573704196
19,17,Jits_Phase_5,3,5,80,127,3573714320
19,17,Jits_Phase_5,0,5,56,103,3574124136
19,17,Jits_Phase_5,1,5,63,98,3574134336
19,17,Jits_Phase_5,2,1,48,80,3574156808
19,17,Jits_Phase_5,3,5,80,127,3574214068
19,17,Jits_Phase_5,0,9999,9999,9999,9999,3489861740
19,17,Jits_Phase_5,1,9999,9999,9999,9999,3490361448
19,17,Jits_Phase_5,2,9999,9999,9999,9999,3490861176
19,17,Jits_Phase_5,3,9999,9999,9999,9999,3491361872
19,17,Jits_Phase_5,4,9999,9999,9999,9999,3491861564
19,17,Jits_Phase_5,5,9999,9999,9999,9999,3492361320
19,17,Jits_Phase_5,6,9999,9999,9999,9999,3492862040
19,17,Jits_Phase_5,7,9999,9999,9999,9999,3493361728
19,17,Jits_Phase_5,8,9999,9999,9999,9999,3493861492
19,17,Jits_Phase_5,9,9999,9999,9999,9999,3494361188
19,17,Jits_Phase_5,10,9999,9999,9999,9999,3494861920
19,17,Jits_Phase_5,11,9999,9999,9999,9999,3495361612
19,17,Jits_Phase_5,12,9999,9999,9999,9999,3495861360
19,17,Jits_Phase_5,13,9999,9999,9999,9999,3496362076
19,17,Jits_Phase_5,14,9999,9999,9999,9999,3496861812
19,17,Jits_Phase_5,15,9999,9999,9999,9999,3497361536
19,17,Jits_Phase_5,16,9999,9999,9999,9999,3497861224
19,17,Jits_Phase_5,17,9999,9999,9999,9999,3498361924
19,17,Jits_Phase_5,18,9999,9999,9999,9999,3498861680
19,17,Jits_Phase_5,19,9999,9999,9999,9999,3499361372
19,17,Jits_Phase_5,20,9999,9999,9999,9999,3499862096
19,17,Jits_Phase_5,21,9999,9999,9999,9999,3500372048
19,17,Jits_Phase_5,22,9999,9999,9999,9999,3500871736
19,17,Jits_Phase_5,23,9999,9999,9999,9999,3501371500
19,17,Jits_Phase_5,24,9999,9999,9999,9999,3501871192
19,17,Jits_Phase_5,25,9999,9999,9999,9999,3502371920
19,17,Jits_Phase_5,26,9999,9999,9999,9999,3502871612
19,17,Jits_Phase_5,27,9999,9999,9999,9999,3503371352
19,17,Jits_Phase_5,28,9999,9999,9999,9999,3503872068
19,17,Jits_Phase_5,29,9999,9999,9999,9999,3504382016
19,17,Jits_Phase_5,30,9999,9999,9999,9999,3504871520
19,17,Jits_Phase_5,31,9999,9999,9999,9999,3505371212
19,17,Jits_Phase_5,32,9999,9999,9999,9999,3505871948
19,17,Jits_Phase_5,33,9999,9999,9999,9999,3506371640
19,17,Jits_Phase_5,34,9999,9999,9999,9999,3506871404
19,17,Jits_Phase_5,35,9999,9999,9999,9999,3507371096
19,17,Jits_Phase_5,36,9999,9999,9999,9999,3507871856
19,17,Jits_Phase_5,37,9999,9999,9999,9999,3508371532
19,17,Jits_Phase_5,38,9999,9999,9999,9999,3508871224
19,17,Jits_Phase_5,39,9999,9999,9999,9999,3509372024
19,17,Jits_Phase_5,40,9999,9999,9999,9999,3509871676
19,17,Jits_Phase_5,41,9999,9999,9999,9999,3510371440
19,17,Jits_Phase_5,42,9999,9999,9999,9999,3510871128
19,17,Jits_Phase_5,43,9999,9999,9999,9999,3511371848
19,17,Jits_Phase_5,44,9999,9999,9999,9999,3511871600
19,17,Jits_Phase_5,45,9999,9999,9999,9999,3512371284
19,17,Jits_Phase_5,46,9999,9999,9999,9999,3512872008
19,17,Jits_Phase_5,47,9999,9999,9999,9999,3513371764
19,17,Jits_Phase_5,48,9999,9999,9999,9999,3513881704
19,17,Jits_Phase_5,49,9999,9999,9999,9999,3514381404
19,17,Jits_Phase_5,50,9999,9999,9999,9999,3514881144
19,17,Jits_Phase_5,51,9999,9999,9999,9999,3515381880
19,17,Jits_Phase_5,52,9999,9999,9999,9999,3515881572
19,17,Jits_Phase_5,53,9999,9999,9999,9999,3516381268
19,17,Jits_Phase_5,54,9999,9999,9999,9999,3516881992
19,17,Jits_Phase_5,55,9999,9999,9999,9999,3517381756
19,17,Jits_Phase_5,56,9999,9999,9999,9999,3517881432
19,17,Jits_Phase_5,57,9999,9999,9999,9999,3518381120
19,17,Jits_Phase_5,58,9999,9999,9999,9999,3518881916
19,17,Jits_Phase_5,59,9999,9999,9999,9999,3519381580
19,17,Jits_Phase_5,60,9999,9999,9999,9999,3519881272
19,17,Jits_Phase_5,61,9999,9999,9999,9999,3520382064
19,17,Jits_Phase_5,62,9999,9999,9999,9999,3520881728
19,17,Jits_Phase_5,63,9999,9999,9999,9999,3521381484
19,17,Jits_Phase_5,64,9999,9999,9999,9999,3521901684
19,17,Jits_Phase_5,65,9999,9999,9999,9999,3522401376
19,17,Jits_Phase_5,66,9999,9999,9999,9999,3522902116
19,17,Jits_Phase_5,67,9999,9999,9999,9999,3523412040
19,17,Jits_Phase_5,68,9999,9999,9999,9999,3523911804
19,17,Jits_Phase_5,69,9999,9999,9999,9999,3524411496
19,17,Jits_Phase_5,70,9999,9999,9999,9999,3524911164
19,17,Jits_Phase_5,71,9999,9999,9999,9999,3525411896
19,17,Jits_Phase_5,72,9999,9999,9999,9999,3525911660
19,17,Jits_Phase_5,73,9999,9999,9999,9999,3526411336
19,17,Jits_Phase_5,74,9999,9999,9999,9999,3526912072
19,17,Jits_Phase_5,75,9999,9999,9999,9999,3527422008
19,17,Jits_Phase_5,76,9999,9999,9999,9999,3527921776
19,17,Jits_Phase_5,77,9999,9999,9999,9999,3528421456
19,17,Jits_Phase_5,78,9999,9999,9999,9999,3528921148
19,17,Jits_Phase_5,79,9999,9999,9999,9999,3529421944
19,17,Jits_Phase_5,80,9999,9999,9999,9999,3529921620
19,17,Jits_Phase_5,81,9999,9999,9999,9999,3530401892
19,17,Jits_Phase_5,82,9999,9999,9999,9999,3530901580
19,17,Jits_Phase_5,83,9999,9999,9999,9999,3531401332
19,17,Jits_Phase_5,84,9999,9999,9999,9999,3531902072
19,17,Jits_Phase_5,85,9999,9999,9999,9999,3532401716
19,17,Jits_Phase_5,86,9999,9999,9999,9999,3532901436
19,17,Jits_Phase_5,87,9999,9999,9999,9999,3533401200
19,17,Jits_Phase_5,88,9999,9999,9999,9999,3533901936
19,17,Jits_Phase_5,89,9999,9999,9999,9999,3534401624
19,17,Jits_Phase_5,90,9999,9999,9999,9999,3534901312
19,17,Jits_Phase_5,91,9999,9999,9999,9999,3535402104
19,17,Jits_Phase_5,92,9999,9999,9999,9999,3535901784
19,17,Jits_Phase_5,93,9999,9999,9999,9999,3536401460
19,17,Jits_Phase_5,94,9999,9999,9999,9999,3536901208
19,17,Jits_Phase_5,95,9999,9999,9999,9999,3537401944
19,17,Jits_Phase_5,96,9999,9999,9999,9999,3537901632
19,17,Jits_Phase_5,97,9999,9999,9999,9999,3538351192
19,17,Jits_Phase_5,98,9999,9999,9999,9999,3538851912
19,17,Jits_Phase_5,99,9999,9999,9999,9999,3539351676
19,17,Jits_Phase_5,100,9999,9999,9999,9999,3539851348
19,17,Jits_Phase_5,101,9999,9999,9999,9999,3540352084
19,17,Jits_Phase_5,102,9999,9999,9999,9999,3540862028
19,17,Jits_Phase_5,103,9999,9999,9999,9999,3541361772
19,17,Jits_Phase_5,104,9999,9999,9999,9999,3541861440
19,17,Jits_Phase_5,105,9999,9999,9999,9999,3542361184
19,17,Jits_Phase_5,106,9999,9999,9999,9999,3542861904
19,17,Jits_Phase_5,107,9999,9999,9999,9999,3543361652
19,17,Jits_Phase_5,108,9999,9999,9999,9999,3543861336
19,17,Jits_Phase_5,109,9999,9999,9999,9999,3544362060
19,17,Jits_Phase_5,110,9999,9999,9999,9999,3544861824
19,17,Jits_Phase_5,111,9999,9999,9999,9999,3545361496
19,17,Jits_Phase_5,112,9999,9999,9999,9999,3545861184
19,17,Jits_Phase_5,113,9999,9999,9999,9999,3546361924
19,17,Jits_Phase_5,114,9999,9999,9999,9999,3546911864
19,17,Jits_Phase_5,115,9999,9999,9999,9999,3547411536
19,17,Jits_Phase_5,116,9999,9999,9999,9999,3547911288
19,17,Jits_Phase_5,117,9999,9999,9999,9999,3548412024
19,17,Jits_Phase_5,118,9999,9999,9999,9999,3548911712
19,17,Jits_Phase_5,119,9999,9999,9999,9999,3549411384
19,17,Jits_Phase_5,120,9999,9999,9999,9999,3549911144
19,17,Jits_Phase_5,121,9999,9999,9999,9999,3550411868
19,17,Jits_Phase_5,122,9999,9999,9999,9999,3550911544
19,17,Jits_Phase_5,123,9999,9999,9999,9999,3551411292
19,17,Jits_Phase_5,124,9999,9999,9999,9999,3551912016
19,17,Jits_Phase_5,125,9999,9999,9999,9999,3552411752
19,17,Jits_Phase_5,126,9999,9999,9999,9999,3552911444
19,17,Jits_Phase_5,127,9999,9999,9999,9999,3553411184
19,17,Jits_Phase_5,128,9999,9999,9999,9999,3553911884
19,17,Jits_Phase_5,129,9999,9999,9999,9999,3554411648
19,17,Jits_Phase_5,130,9999,9999,9999,9999,3554911320
19,17,Jits_Phase_5,131,9999,9999,9999,9999,3555511408
19,17,Jits_Phase_5,132,9999,9999,9999,9999,3556011100
19,17,Jits_Phase_5,133,9999,9999,9999,9999,3556511824
19,17,Jits_Phase_5,134,9999,9999,9999,9999,3557011568
19,17,Jits_Phase_5,135,9999,9999,9999,9999,3557511244
19,17,Jits_Phase_5,136,9999,9999,9999,9999,3558011980
19,17,Jits_Phase_5,137,9999,9999,9999,9999,3558511704
19,17,Jits_Phase_5,138,9999,9999,9999,9999,3559011388
19,17,Jits_Phase_5,139,9999,9999,9999,9999,3559511156
19,17,Jits_Phase_5,140,9999,9999,9999,9999,3560011896
19,17,Jits_Phase_5,141,9999,9999,9999,9999,3560511588
19,17,Jits_Phase_5,142,9999,9999,9999,9999,3561011268
19,17,Jits_Phase_5,143,9999,9999,9999,9999,3561512004
19,17,Jits_Phase_5,144,9999,9999,9999,9999,3562011764
19,17,Jits_Phase_5,145,9999,9999,9999,9999,3562511444
19,17,Jits_Phase_5,146,9999,9999,9999,9999,3563011140
19,17,Jits_Phase_5,147,9999,9999,9999,9999,3563511864
19,17,Jits_Phase_5,148,9999,9999,9999,9999,3564011612
19,17,Jits_Phase_5,149,9999,9999,9999,9999,3564511304
19,17,Jits_Phase_5,150,9999,9999,9999,9999,3564911696
19,17,Jits_Phase_5,151,9999,9999,9999,9999,3565411448
19,17,Jits_Phase_5,152,9999,9999,9999,9999,3565911144
19,17,Jits_Phase_5,153,9999,9999,9999,9999,3566411864
19,17,Jits_Phase_5,154,9999,9999,9999,9999,3566911612
19,17,Jits_Phase_5,155,9999,9999,9999,9999,3567411284
19,17,Jits_Phase_5,156,9999,9999,9999,9999,3567911996
19,17,Jits_Phase_5,157,9999,9999,9999,9999,3568411736
19,17,Jits_Phase_5,158,9999,9999,9999,9999,3568911416
19,17,Jits_Phase_5,159,9999,9999,9999,9999,3569411164
19,17,Jits_Phase_5,160,9999,9999,9999,9999,3569911904
19,17,Jits_Phase_5,161,9999,9999,9999,9999,3570411584
19,17,Jits_Phase_5,162,9999,9999,9999,9999,3570911332
19,17,Jits_Phase_5,163,9999,9999,9999,9999,3571412072
19,17,Jits_Phase_5,164,9999,9999,9999,9999,3571911748
19,17,Jits_Phase_5,165,9999,9999,9999,9999,3572411500
19,17,Jits_Phase_5,166,9999,9999,9999,9999,3572911192
19,17,Jits_Phase_5,167,9999,9999,9999,9999,3573411928
19,17,Jits_Phase_5,168,9999,9999,9999,9999,3573911608
19,17,Jits_Phase_5,169,9999,9999,9999,9999,3574411360
20,3,ISIP_8,0,5,42,127,3662306904
20,3,ISIP_8,1,5,42,127,3663106512
20,3,ISIP_8,2,5,42,127,3663907088
20,3,ISIP_8,3,5,42,127,3664706844
20,3,ISIP_8,4,1,48,43,3665480004
20,3,ISIP_8,5,5,42,127,3665506892
20,3,ISIP_8,6,1,48,54,3666291432
20,3,ISIP_8,7,5,42,127,3666306352
20,3,ISIP_8,8,5,42,127,3667107064
20,3,ISIP_8,9,1,48,51,3667115940
20,3,ISIP_8,10,5,42,127,3667906872
20,3,ISIP_8,11,1,48,57,3667937516
20,3,ISIP_8,12,1,48,60,3668702228
20,3,ISIP_8,13,5,42,127,3668706748
20,3,ISIP_8,14,1,48,46,3669501960
20,3,ISIP_8,15,5,42,127,3669506780
20,3,ISIP_8,16,1,48,47,3670299224
20,3,ISIP_8,17,5,42,127,3670307112
20,3,ISIP_8,18,1,48,50,3671069412
20,3,ISIP_8,19,5,42,127,3671106848
20,3,ISIP_8,20,1,48,51,3671875056
20,3,ISIP_8,21,5,42,127,3671906728
20,3,ISIP_8,22,1,48,52,3672630808
20,3,ISIP_8,23,5,42,127,3672706564
20,3,ISIP_8,24,1,48,53,3673442808
20,3,ISIP_8,25,5,42,127,3673507120
20,3,ISIP_8,26,1,48,53,3674272112
20,3,ISIP_8,27,5,42,127,3674306852
20,3,ISIP_8,28,1,48,50,3675055316
20,3,ISIP_8,29,5,42,127,3675106660
20,3,ISIP_8,30,1,48,50,3675898576
20,3,ISIP_8,31,5,42,127,3675906688
20,3,ISIP_8,32,1,48,53,3676667868
20,3,ISIP_8,33,5,42,127,3676707396
20,3,ISIP_8,34,1,48,49,3677481216
20,3,ISIP_8,35,5,42,127,3677507056
20,3,ISIP_8,36,1,48,45,3678303764
20,3,ISIP_8,37,5,42,127,3678306640
20,3,ISIP_8,38,1,48,41,3679102176
20,3,ISIP_8,39,5,42,127,3679106400
20,3,ISIP_8,40,5,42,127,3679907336
20,3,ISIP_8,41,1,48,45,3679928480
20,3,ISIP_8,42,5,42,127,3680706992
20,3,ISIP_8,43,1,48,36,3680743476
20,3,ISIP_8,44,5,42,127,3681506804
20,3,ISIP_8,45,1,48,48,3681516732
20,3,ISIP_8,46,1,48,55,3682306608
20,3,ISIP_8,47,5,42,127,3682308176
20,3,ISIP_8,48,5,42,127,3683107316
20,3,ISIP_8,49,1,48,51,3683137960
20,3,ISIP_8,50,5,42,127,3683906972
20,3,ISIP_8,51,1,48,45,3683920712
20,3,ISIP_8,52,5,42,127,3684706632
20,3,ISIP_8,53,1,48,51,3684733632
20,3,ISIP_8,54,1,48,48,3685501636
20,3,ISIP_8,55,5,42,127,3685506460
20,3,ISIP_8,56,1,48,47,3686259556
20,3,ISIP_8,57,1,48,61,3687116744
20,3,ISIP_8,58,1,48,49,3687871732
20,3,ISIP_8,59,1,48,54,3688712612
20,3,ISIP_8,60,1,48,58,3689489740
20,3,ISIP_8,61,1,48,46,3690288200
20,3,ISIP_8,62,1,48,57,3691091960
20,3,ISIP_8,63,1,48,48,3691902788
20,3,ISIP_8,64,1,48,55,3692711804
20,3,ISIP_8,65,1,48,60,3693522904
20,3,ISIP_8,66,1,48,54,3694319416
20,3,ISIP_8,67,1,48,59,3695135676
20,3,ISIP_8,68,1,48,63,3695968468
20,3,ISIP_8,69,1,48,62,3696768668
20,3,ISIP_8,70,1,48,56,3697564812
20,3,ISIP_8,71,1,48,51,3698347708
20,3,ISIP_8,72,1,48,58,3699165244
20,3,ISIP_8,73,1,48,54,3699936696
20,3,ISIP_8,74,1,48,57,3700790728
20,3,ISIP_8,75,1,48,51,3701564876
20,3,ISIP_8,76,1,48,45,3702324664
20,3,ISIP_8,77,1,48,51,3703121176
20,3,ISIP_8,78,1,48,55,3703920004
20,3,ISIP_8,79,1,48,56,3704750476
20,3,ISIP_8,80,1,48,53,3705587456
20,3,ISIP_8,81,1,48,59,3706366168
20,3,ISIP_8,82,1,48,55,3707216756
20,3,ISIP_8,83,1,48,59,3708017188
20,3,ISIP_8,84,1,48,61,3708860524
20,3,ISIP_8,85,1,48,53,3709643048
20,3,ISIP_8,86,1,48,51,3710460724
20,3,ISIP_8,87,1,48,59,3711290824
20,3,ISIP_8,88,1,48,48,3712123944
20,3,ISIP_8,89,1,48,48,3712936756
20,3,ISIP_8,90,1,48,65,3713782792
20,3,ISIP_8,91,1,48,53,3714601740
20,3,ISIP_8,92,1,48,65,3715437972
20,3,ISIP_8,93,1,48,55,3716292400
20,3,ISIP_8,94,1,48,66,3717100588
20,3,ISIP_8,95,1,48,60,3717911008
20,3,ISIP_8,96,1,48,54,3718736692
20,3,ISIP_8,97,1,48,59,3719591572
20,3,ISIP_8,98,1,48,57,3720315828
20,3,ISIP_8,99,1,48,67,3721206140
20,3,ISIP_8,100,1,48,63,3721987016
20,3,ISIP_8,101,1,48,64,3722871740
20,3,ISIP_8,102,1,48,52,3723654200
20,3,ISIP_8,103,1,48,67,3724509048
20,3,ISIP_8,104,1,48,67,3725273180
20,3,ISIP_8,105,1,48,56,3726178820
20,3,ISIP_8,106,1,48,63,3726957528
20,3,ISIP_8,107,1,48,58,3727781664
20,3,ISIP_8,108,1,48,61,3728584092
20,3,ISIP_8,109,1,48,56,3729475368
20,3,ISIP_8,110,1,48,57,3730308128
20,3,ISIP_8,111,1,48,63,3731143380
20,3,ISIP_8,112,1,48,64,3731978268
20,3,ISIP_8,113,1,48,57,3732809936
20,3,ISIP_8,114,1,48,61,3733664660
20,3,ISIP_8,115,1,48,61,3734504636
20,3,ISIP_8,116,1,48,61,3735305932
20,3,ISIP_8,117,1,48,60,3736192976
20,3,ISIP_8,118,1,48,61,3737000484
20,3,ISIP_8,119,1,48,64,3737880772
20,3,ISIP_8,120,1,48,51,3738635400
20,3,ISIP_8,121,1,48,62,3739490404
20,3,ISIP_8,122,1,48,57,3740335784
20,3,ISIP_8,123,1,48,61,3741156608
20,3,ISIP_8,124,1,48,66,3741978776
20,3,ISIP_8,125,1,48,66,3742811268
20,3,ISIP_8,126,1,48,65,3743614016
20,3,ISIP_8,127,1,48,69,3744501476
20,3,ISIP_8,128,1,48,64,3745353636
20,3,ISIP_8,129,1,48,71,3746180248
20,3,ISIP_8,130,1,48,68,3746970176
20,3,ISIP_8,131,1,48,58,3747750608
20,3,ISIP_8,132,1,48,68,3748595588
20,3,ISIP_8,133,1,48,67,3749383124
20,3,ISIP_8,134,1,48,69,3750216068
20,3,ISIP_8,135,1,48,64,3751028164
20,3,ISIP_8,136,1,48,65,3751849656
20,3,ISIP_8,137,1,48,62,3752663820
20,3,ISIP_8,138,1,48,68,3753501024
20,3,ISIP_8,139,1,48,61,3754306076
20,3,ISIP_8,140,1,48,59,3755119220
20,3,ISIP_8,141,1,48,70,3755994044
20,3,ISIP_8,142,1,48,58,3756851372
20,3,ISIP_8,143,1,48,65,3757684860
20,3,ISIP_8,144,1,48,73,3758522060
20,3,ISIP_8,145,1,48,63,3759363524
20,3,ISIP_8,146,1,48,65,3760222044
20,3,ISIP_8,147,1,48,64,3761053140
20,3,ISIP_8,148,1,48,65,3761908368
20,3,ISIP_8,149,1,48,70,3762805208
20,3,ISIP_8,150,1,48,70,3763653108
20,3,ISIP_8,151,1,48,62,3764452236
20,3,ISIP_8,152,1,48,69,3765262888
20,3,ISIP_8,153,1,48,56,3766097672
20,3,ISIP_8,154,1,48,67,3766917096
20,3,ISIP_8,155,1,48,63,3767747796
20,3,ISIP_8,156,1,48,68,3768550888
20,3,ISIP_8,157,1,48,69,3769335508
20,3,ISIP_8,158,1,48,71,3770218640
20,3,ISIP_8,159,1,48,74,3771084588
20,3,ISIP_8,160,1,48,70,3771938708
20,3,ISIP_8,161,1,48,70,3772793812
20,3,ISIP_8,162,1,48,59,3773632136
20,3,ISIP_8,163,1,48,72,3774529328
20,3,ISIP_8,164,1,48,74,3775324796
20,3,ISIP_8,165,1,48,64,3776158956
20,3,ISIP_8,166,1,48,57,3776993164
20,3,ISIP_8,167,1,48,67,3777863952
20,3,ISIP_8,168,1,48,71,3778731772
20,3,ISIP_8,169,1,48,67,3779565456
20,3,ISIP_8,170,1,48,73,3780427944
20,3,ISIP_8,171,1,48,71,3781305416
20,3,ISIP_8,172,1,48,59,3782182936
20,3,ISIP_8,0,9999,9999,9999,9999,3662304320
20,3,ISIP_8,1,9999,9999,9999,9999,3663104076
20,3,ISIP_8,2,9999,9999,9999,9999,3663904876
20,3,ISIP_8,3,9999,9999,9999,9999,3664704632
20,3,ISIP_8,4,9999,9999,9999,9999,3665504304
20,3,ISIP_8,5,9999,9999,9999,9999,3666304064
20,3,ISIP_8,6,9999,9999,9999,9999,3667104852
20,3,ISIP_8,7,9999,9999,9999,9999,3667904584
20,3,ISIP_8,8,9999,9999,9999,9999,3668704312
20,3,ISIP_8,9,9999,9999,9999,9999,3669504120
20,3,ISIP_8,10,9999,9999,9999,9999,3670304824
20,3,ISIP_8,11,9999,9999,9999,9999,3671104632
20,3,ISIP_8,12,9999,9999,9999,9999,3671904364
20,3,ISIP_8,13,9999,9999,9999,9999,3672704052
20,3,ISIP_8,14,9999,9999,9999,9999,3673504828
20,3,ISIP_8,15,9999,9999,9999,9999,3674304560
20,3,ISIP_8,16,9999,9999,9999,9999,3675104368
20,3,ISIP_8,17,9999,9999,9999,9999,3675904104
20,3,ISIP_8,18,9999,9999,9999,9999,3676704884
20,3,ISIP_8,19,9999,9999,9999,9999,3677504620
20,3,ISIP_8,20,9999,9999,9999,9999,3678304352
20,3,ISIP_8,21,9999,9999,9999,9999,3679104112
20,3,ISIP_8,22,9999,9999,9999,9999,3679904820
20,3,ISIP_8,23,9999,9999,9999,9999,3680704628
20,3,ISIP_8,24,9999,9999,9999,9999,3681504364
20,3,ISIP_8,25,9999,9999,9999,9999,3682304096
20,3,ISIP_8,26,9999,9999,9999,9999,3683104876
20,3,ISIP_8,27,9999,9999,9999,9999,3683904608
20,3,ISIP_8,28,9999,9999,9999,9999,3684704344
20,3,ISIP_8,29,9999,9999,9999,9999,3685504096
20,3,ISIP_8,30,9999,9999,9999,9999,3686304876
20,3,ISIP_8,31,9999,9999,9999,9999,3687104612
20,3,ISIP_8,32,9999,9999,9999,9999,3687904332
20,3,ISIP_8,33,9999,9999,9999,9999,3688704068
20,3,ISIP_8,34,9999,9999,9999,9999,3689504840
20,3,ISIP_8,35,9999,9999,9999,9999,3690304568
20,3,ISIP_8,36,9999,9999,9999,9999,3691104372
20,3,ISIP_8,37,9999,9999,9999,9999,3691904052
20,3,ISIP_8,38,9999,9999,9999,9999,3692704832
20,3,ISIP_8,39,9999,9999,9999,9999,3693504564
20,3,ISIP_8,40,9999,9999,9999,9999,3694304368
20,3,ISIP_8,41,9999,9999,9999,9999,3695104096
20,3,ISIP_8,42,9999,9999,9999,9999,3695904872
20,3,ISIP_8,43,9999,9999,9999,9999,3696704600
20,3,ISIP_8,44,9999,9999,9999,9999,3697504328
20,3,ISIP_8,45,9999,9999,9999,9999,3698304084
20,3,ISIP_8,46,9999,9999,9999,9999,3699104860
20,3,ISIP_8,47,9999,9999,9999,9999,3699904588
20,3,ISIP_8,48,9999,9999,9999,9999,3700704320
20,3,ISIP_8,49,9999,9999,9999,9999,3701504048
20,3,ISIP_8,50,9999,9999,9999,9999,3702304824
20,3,ISIP_8,51,9999,9999,9999,9999,3703104628
20,3,ISIP_8,52,9999,9999,9999,9999,3703904356
20,3,ISIP_8,53,9999,9999,9999,9999,3704704084
20,3,ISIP_8,54,9999,9999,9999,9999,3705504860
20,3,ISIP_8,55,9999,9999,9999,9999,3706304592
20,3,ISIP_8,56,9999,9999,9999,9999,3707104320
20,3,ISIP_8,57,9999,9999,9999,9999,3707904048
20,3,ISIP_8,58,9999,9999,9999,9999,3708704824
20,3,ISIP_8,59,9999,9999,9999,9999,3709504632
20,3,ISIP_8,60,9999,9999,9999,9999,3710304360
20,3,ISIP_8,61,9999,9999,9999,9999,3711104112
20,3,ISIP_8,62,9999,9999,9999,9999,3711904888
20,3,ISIP_8,63,9999,9999,9999,9999,3712704620
20,3,ISIP_8,64,9999,9999,9999,9999,3713504348
20,3,ISIP_8,65,9999,9999,9999,9999,3714304076
20,3,ISIP_8,66,9999,9999,9999,9999,3715104856
20,3,ISIP_8,67,9999,9999,9999,9999,3715904584
20,3,ISIP_8,68,9999,9999,9999,9999,3716704312
20,3,ISIP_8,69,9999,9999,9999,9999,3717504068
20,3,ISIP_8,70,9999,9999,9999,9999,3718304840
20,3,ISIP_8,71,9999,9999,9999,9999,3719104572
20,3,ISIP_8,72,9999,9999,9999,9999,3719904376
20,3,ISIP_8,73,9999,9999,9999,9999,3720704104
20,3,ISIP_8,74,9999,9999,9999,9999,3721504880
20,3,ISIP_8,75,9999,9999,9999,9999,3722304612
20,3,ISIP_8,76,9999,9999,9999,9999,3723104340
20,3,ISIP_8,77,9999,9999,9999,9999,3723904092
20,3,ISIP_8,78,9999,9999,9999,9999,3724704868
20,3,ISIP_8,79,9999,9999,9999,9999,3725504600
20,3,ISIP_8,80,9999,9999,9999,9999,3726304328
20,3,ISIP_8,81,9999,9999,9999,9999,3727104056
20,3,ISIP_8,82,9999,9999,9999,9999,3727904836
20,3,ISIP_8,83,9999,9999,9999,9999,3728704564
20,3,ISIP_8,84,9999,9999,9999,9999,3729504308
20,3,ISIP_8,85,9999,9999,9999,9999,3730304068
20,3,ISIP_8,86,9999,9999,9999,9999,3731104844
20,3,ISIP_8,87,9999,9999,9999,9999,3731904572
20,3,ISIP_8,88,9999,9999,9999,9999,3732704304
20,3,ISIP_8,89,9999,9999,9999,9999,3733504108
20,3,ISIP_8,90,9999,9999,9999,9999,3734304880
20,3,ISIP_8,91,9999,9999,9999,9999,3735104612
20,3,ISIP_8,92,9999,9999,9999,9999,3735904340
20,3,ISIP_8,93,9999,9999,9999,9999,3736704096
20,3,ISIP_8,94,9999,9999,9999,9999,3737504872
20,3,ISIP_8,95,9999,9999,9999,9999,3738304600
20,3,ISIP_8,96,9999,9999,9999,9999,3739104328
20,3,ISIP_8,97,9999,9999,9999,9999,3739904056
20,3,ISIP_8,98,9999,9999,9999,9999,3740704832
20,3,ISIP_8,99,9999,9999,9999,9999,3741504564
20,3,ISIP_8,100,9999,9999,9999,9999,3742304368
20,3,ISIP_8,101,9999,9999,9999,9999,3743104048
20,3,ISIP_8,102,9999,9999,9999,9999,3743904824
20,3,ISIP_8,103,9999,9999,9999,9999,3744704628
20,3,ISIP_8,104,9999,9999,9999,9999,3745504356
20,3,ISIP_8,105,9999,9999,9999,9999,3746304084
20,3,ISIP_8,106,9999,9999,9999,9999,3747104864
20,3,ISIP_8,107,9999,9999,9999,9999,3747904592
20,3,ISIP_8,108,9999,9999,9999,9999,3748704320
20,3,ISIP_8,109,9999,9999,9999,9999,3749504076
20,3,ISIP_8,110,9999,9999,9999,9999,3750304864
20,3,ISIP_8,111,9999,9999,9999,9999,3751104596
20,3,ISIP_8,112,9999,9999,9999,9999,3751904324
20,3,ISIP_8,113,9999,9999,9999,9999,3752704052
20,3,ISIP_8,114,9999,9999,9999,9999,3753504828
20,3,ISIP_8,115,9999,9999,9999,9999,3754304564
20,3,ISIP_8,116,9999,9999,9999,9999,3755104368
20,3,ISIP_8,117,9999,9999,9999,9999,3755904120
20,3,ISIP_8,118,9999,9999,9999,9999,3756704824
20,3,ISIP_8,119,9999,9999,9999,9999,3757504628
20,3,ISIP_8,120,9999,9999,9999,9999,3758304356
20,3,ISIP_8,121,9999,9999,9999,9999,3759104084
20,3,ISIP_8,122,9999,9999,9999,9999,3759904860
20,3,ISIP_8,123,9999,9999,9999,9999,3760704588
20,3,ISIP_8,124,9999,9999,9999,9999,3761504320
20,3,ISIP_8,125,9999,9999,9999,9999,3762304072
20,3,ISIP_8,126,9999,9999,9999,9999,3763104848
20,3,ISIP_8,127,9999,9999,9999,9999,3763904576
20,3,ISIP_8,128,9999,9999,9999,9999,3764704308
20,3,ISIP_8,129,9999,9999,9999,9999,3765504088
20,3,ISIP_8,130,9999,9999,9999,9999,3766304860
20,3,ISIP_8,131,9999,9999,9999,9999,3767104592
20,3,ISIP_8,132,9999,9999,9999,9999,3767904320
20,3,ISIP_8,133,9999,9999,9999,9999,3768704072
20,3,ISIP_8,134,9999,9999,9999,9999,3769504852
20,3,ISIP_8,135,9999,9999,9999,9999,3770304596
20,3,ISIP_8,136,9999,9999,9999,9999,3771104324
20,3,ISIP_8,137,9999,9999,9999,9999,3771904060
20,3,ISIP_8,138,9999,9999,9999,9999,3772704836
20,3,ISIP_8,139,9999,9999,9999,9999,3773504568
20,3,ISIP_8,140,9999,9999,9999,9999,3774304368
20,3,ISIP_8,141,9999,9999,9999,9999,3775104048
20,3,ISIP_8,142,9999,9999,9999,9999,3775904824
20,3,ISIP_8,143,9999,9999,9999,9999,3776704628
20,3,ISIP_8,144,9999,9999,9999,9999,3777504356
20,3,ISIP_8,145,9999,9999,9999,9999,3778304084
20,3,ISIP_8,146,9999,9999,9999,9999,3779104860
20,3,ISIP_8,147,9999,9999,9999,9999,3779904592
20,3,ISIP_8,148,9999,9999,9999,9999,3780704320
20,3,ISIP_8,149,9999,9999,9999,9999,3781504076
21,5,ISIP_5,0,5,42,127,3808562580
21,5,ISIP_5,1,5,42,127,3809063344
21,5,ISIP_5,2,5,42,127,3809562912
21,5,ISIP_5,3,5,42,127,3810062700
21,5,ISIP_5,4,5,42,127,3810562420
21,5,ISIP_5,5,5,42,127,3811063032
21,5,ISIP_5,6,5,42,127,3811563048
21,5,ISIP_5,7,5,42,127,3812062468
21,5,ISIP_5,8,5,42,127,3812563304
21,5,ISIP_5,9,1,48,57,3812632096
21,5,ISIP_5,10,5,42,127,3813063072
21,5,ISIP_5,11,1,48,59,3813142860
21,5,ISIP_5,12,5,42,127,3813562916
21,5,ISIP_5,13,1,48,62,3813607028
21,5,ISIP_5,14,5,42,127,3814062388
21,5,ISIP_5,15,1,48,52,3814090636
21,5,ISIP_5,16,5,42,127,3814563056
21,5,ISIP_5,17,1,48,54,3814601028
21,5,ISIP_5,18,5,42,127,3815063048
21,5,ISIP_5,19,1,48,53,3815075144
21,5,ISIP_5,20,5,42,127,3815562592
21,5,ISIP_5,21,1,48,67,3815586884
21,5,ISIP_5,22,1,48,54,3816028640
21,5,ISIP_5,23,5,42,127,3816063252
21,5,ISIP_5,24,5,42,127,3816562956
21,5,ISIP_5,25,1,48,67,3816583576
21,5,ISIP_5,26,5,42,127,3817062772
21,5,ISIP_5,27,1,48,66,3817073924
21,5,ISIP_5,28,5,42,127,3817562544
21,5,ISIP_5,29,1,48,57,3817567160
21,5,ISIP_5,30,5,42,127,3818063136
21,5,ISIP_5,31,1,48,58,3818068424
21,5,ISIP_5,32,5,42,127,3818563204
21,5,ISIP_5,33,1,48,55,3818579040
21,5,ISIP_5,34,5,42,127,3819062524
21,5,ISIP_5,35,1,48,56,3819083592
21,5,ISIP_5,36,5,42,127,3819563416
21,5,ISIP_5,37,1,48,57,3819599000
21,5,ISIP_5,38,5,42,127,3820062960
21,5,ISIP_5,39,1,48,54,3820092708
21,5,ISIP_5,40,5,42,127,3820562880
21,5,ISIP_5,41,1,48,60,3820592404
21,5,ISIP_5,42,5,42,127,3821062500
21,5,ISIP_5,43,1,48,49,3821077136
21,5,ISIP_5,44,1,48,57,3821542032
21,5,ISIP_5,45,5,42,127,3821563232
21,5,ISIP_5,46,1,48,55,3822059752
21,5,ISIP_5,47,5,42,127,3822063076
21,5,ISIP_5,48,1,48,67,3822536788
21,5,ISIP_5,49,5,42,127,3822562772
21,5,ISIP_5,50,1,48,57,3823044476
21,5,ISIP_5,51,5,42,127,3823063440
21,5,ISIP_5,52,1,48,50,3823560032
21,5,ISIP_5,53,5,42,127,3823563132
21,5,ISIP_5,54,5,42,127,3824062764
21,5,ISIP_5,55,1,48,55,3824093104
21,5,ISIP_5,56,1,48,58,3824551568
21,5,ISIP_5,57,5,42,127,3824562748
21,5,ISIP_5,58,1,48,59,3825056276
21,5,ISIP_5,59,5,42,127,3825063416
21,5,ISIP_5,60,1,48,50,3825558436
21,5,ISIP_5,61,5,42,127,3825563036
21,5,ISIP_5,62,5,42,127,3826062960
21,5,ISIP_5,63,1,48,57,3826078496
21,5,ISIP_5,64,1,48,54,3826543992
21,5,ISIP_5,65,5,42,127,3826562572
21,5,ISIP_5,66,5,42,127,3827063100
21,5,ISIP_5,67,1,48,52,3827065768
21,5,ISIP_5,68,5,42,127,3827562944
21,5,ISIP_5,69,1,48,53,3827580272
21,5,ISIP_5,70,5,42,127,3828062760
21,5,ISIP_5,71,1,48,49,3828082360
21,5,ISIP_5,72,1,48,62,3828559052
21,5,ISIP_5,73,1,48,65,3829063768
21,5,ISIP_5,74,1,48,68,3829580360
21,5,ISIP_5,75,1,48,58,3830062992
21,5,ISIP_5,76,1,48,70,3830574652
21,5,ISIP_5,77,1,48,62,3831063048
21,5,ISIP_5,78,1,48,66,3831574636
21,5,ISIP_5,79,1,48,62,3832070584
21,5,ISIP_5,80,1,48,66,3832597652
21,5,ISIP_5,81,1,48,57,3833107588
21,5,ISIP_5,82,1,48,63,3833586036
21,5,ISIP_5,83,1,48,53,3834076148
21,5,ISIP_5,84,1,48,64,3834571576
21,5,ISIP_5,85,1,48,54,3835104028
21,5,ISIP_5,86,1,48,62,3835589432
21,5,ISIP_5,87,1,48,65,3836066016
21,5,ISIP_5,88,1,48,52,3836582984
21,5,ISIP_5,89,1,48,59,3837052068
21,5,ISIP_5,90,1,48,66,3837564484
21,5,ISIP_5,91,1,48,65,3838062080
21,5,ISIP_5,92,1,48,49,3838583684
21,5,ISIP_5,93,1,48,63,3839093324
21,5,ISIP_5,94,1,48,65,3839590452
21,5,ISIP_5,95,1,48,67,3840096048
21,5,ISIP_5,96,1,48,61,3840626732
21,5,ISIP_5,97,1,48,60,3841112112
21,5,ISIP_5,98,1,48,53,3841620848
21,5,ISIP_5,99,1,48,53,3842082468
21,5,ISIP_5,100,1,48,64,3842613352
21,5,ISIP_5,101,1,48,67,3843098756
21,5,ISIP_5,102,1,48,62,3843592080
21,5,ISIP_5,103,1,48,54,3844094840
21,5,ISIP_5,104,1,48,57,3844609120
21,5,ISIP_5,105,1,48,48,3845106340
21,5,ISIP_5,106,1,48,48,3845609772
21,5,ISIP_5,107,1,48,56,3846096668
21,5,ISIP_5,108,1,48,70,3846585816
21,5,ISIP_5,109,1,48,58,3847168088
21,5,ISIP_5,110,1,48,62,3847652740
21,5,ISIP_5,111,1,48,65,3848128120
21,5,ISIP_5,112,1,48,62,3848651592
21,5,ISIP_5,113,1,48,63,3849164524
21,5,ISIP_5,114,1,48,60,3849708048
21,5,ISIP_5,115,1,48,74,3850176776
21,5,ISIP_5,116,1,48,65,3850655668
21,5,ISIP_5,117,1,48,66,3851166508
21,5,ISIP_5,118,1,48,70,3851707784
21,5,ISIP_5,119,1,48,63,3852209792
21,5,ISIP_5,120,1,48,57,3852722204
21,5,ISIP_5,121,1,48,57,3853239472
21,5,ISIP_5,122,1,48,63,3853733700
21,5,ISIP_5,123,1,48,67,3854260092
21,5,ISIP_5,124,1,48,67,3854740408
21,5,ISIP_5,125,1,48,56,3855253116
21,5,ISIP_5,126,1,48,60,3855753780
21,5,ISIP_5,127,1,48,61,3856276060
21,5,ISIP_5,128,1,48,67,3856774104
21,5,ISIP_5,129,1,48,63,3857256068
21,5,ISIP_5,130,1,48,66,3857792712
21,5,ISIP_5,131,1,48,61,3858274048
21,5,ISIP_5,132,1,48,65,3858756912
21,5,ISIP_5,133,1,48,50,3859258400
21,5,ISIP_5,134,1,48,68,3859750752
21,5,ISIP_5,135,1,48,70,3860234516
21,5,ISIP_5,136,1,48,59,3860742732
21,5,ISIP_5,137,1,48,61,3861247212
21,5,ISIP_5,138,1,48,62,3861743084
21,5,ISIP_5,139,1,48,61,3862218612
21,5,ISIP_5,140,1,48,53,3862688016
21,5,ISIP_5,141,1,48,64,3863216876
21,5,ISIP_5,142,1,48,65,3863741392
21,5,ISIP_5,143,1,48,60,3864216032
21,5,ISIP_5,144,1,48,67,3864769728
21,5,ISIP_5,145,1,48,54,3865274728
21,5,ISIP_5,146,1,48,69,3865777264
21,5,ISIP_5,147,1,48,55,3866263260
21,5,ISIP_5,148,1,48,62,3866793248
21,5,ISIP_5,149,1,48,63,3867307300
21,5,ISIP_5,150,1,48,52,3867835260
21,5,ISIP_5,151,1,48,67,3868322016
21,5,ISIP_5,152,1,48,49,3868800536
21,5,ISIP_5,153,1,48,62,3869339720
21,5,ISIP_5,154,1,48,70,3869831408
21,5,ISIP_5,155,1,48,66,3870357804
21,5,ISIP_5,156,1,48,59,3870858012
21,5,ISIP_5,157,1,48,65,3871373788
21,5,ISIP_5,158,1,48,62,3871891728
21,5,ISIP_5,159,1,48,61,3872404512
21,5,ISIP_5,160,1,48,62,3872911460
21,5,ISIP_5,161,1,48,49,3873389756
21,5,ISIP_5,162,1,48,60,3873925724
21,5,ISIP_5,163,1,48,57,3874430052
21,5,ISIP_5,164,1,48,75,3874952556
21,5,ISIP_5,165,1,48,64,3875461372
21,5,ISIP_5,166,1,48,38,3875971608
21,5,ISIP_5,167,1,48,53,3876474364
21,5,ISIP_5,168,1,48,64,3876982728
21,5,ISIP_5,169,1,48,61,3877447612
21,5,ISIP_5,170,1,48,64,3877966380
21,5,ISIP_5,171,1,48,64,3878475948
21,5,ISIP_5,172,1,48,48,3878946164
21,5,ISIP_5,173,1,48,69,3879480484
21,5,ISIP_5,174,1,48,57,3879975388
21,5,ISIP_5,175,1,48,56,3880486224
21,5,ISIP_5,176,1,48,66,3880996912
21,5,ISIP_5,177,1,48,53,3881494500
21,5,ISIP_5,178,1,48,66,3882013940
21,5,ISIP_5,179,1,48,61,3882517368
21,5,ISIP_5,180,1,48,62,3883016764
21,5,ISIP_5,181,1,48,61,3883528276
21,5,ISIP_5,182,1,48,57,3884024668
21,5,ISIP_5,183,1,48,55,3884555404
21,5,ISIP_5,184,1,48,68,3885054268
21,5,ISIP_5,185,1,48,66,3885517756
21,5,ISIP_5,186,1,48,64,3886050280
21,5,ISIP_5,187,1,48,52,3886573400
21,5,ISIP_5,188,1,48,63,3887075636
21,5,ISIP_5,189,1,48,68,3887564700
21,5,ISIP_5,190,1,48,57,3888066864
21,5,ISIP_5,0,9999,9999,9999,9999,3808560216
21,5,ISIP_5,1,9999,9999,9999,9999,3809060980
21,5,ISIP_5,2,9999,9999,9999,9999,3809560624
21,5,ISIP_5,3,9999,9999,9999,9999,3810060340
21,5,ISIP_5,4,9999,9999,9999,9999,3810560056
21,5,ISIP_5,5,9999,9999,9999,9999,3811060820
21,5,ISIP_5,6,9999,9999,9999,9999,3811560536
21,5,ISIP_5,7,9999,9999,9999,9999,3812060252
21,5,ISIP_5,8,9999,9999,9999,9999,3812561016
21,5,ISIP_5,9,9999,9999,9999,9999,3813060712
21,5,ISIP_5,10,9999,9999,9999,9999,3813560404
21,5,ISIP_5,11,9999,9999,9999,9999,3814060100
21,5,ISIP_5,12,9999,9999,9999,9999,3814560840
21,5,ISIP_5,13,9999,9999,9999,9999,3815060536
21,5,ISIP_5,14,9999,9999,9999,9999,3815560304
21,5,ISIP_5,15,9999,9999,9999,9999,3816061040
21,5,ISIP_5,16,9999,9999,9999,9999,3816560740
21,5,ISIP_5,17,9999,9999,9999,9999,3817060412
21,5,ISIP_5,18,9999,9999,9999,9999,3817560184
21,5,ISIP_5,19,9999,9999,9999,9999,3818060848
21,5,ISIP_5,20,9999,9999,9999,9999,3818560616
21,5,ISIP_5,21,9999,9999,9999,9999,3819060312
21,5,ISIP_5,22,9999,9999,9999,9999,3819561052
21,5,ISIP_5,23,9999,9999,9999,9999,3820060748
21,5,ISIP_5,24,9999,9999,9999,9999,3820560444
21,5,ISIP_5,25,9999,9999,9999,9999,3821060212
21,5,ISIP_5,26,9999,9999,9999,9999,3821560948
21,5,ISIP_5,27,9999,9999,9999,9999,3822060640
21,5,ISIP_5,28,9999,9999,9999,9999,3822560336
21,5,ISIP_5,29,9999,9999,9999,9999,3823061076
21,5,ISIP_5,30,9999,9999,9999,9999,3823560772
21,5,ISIP_5,31,9999,9999,9999,9999,3824060476
21,5,ISIP_5,32,9999,9999,9999,9999,3824560236
21,5,ISIP_5,33,9999,9999,9999,9999,3825060980
21,5,ISIP_5,34,9999,9999,9999,9999,3825560672
21,5,ISIP_5,35,9999,9999,9999,9999,3826060372
21,5,ISIP_5,36,9999,9999,9999,9999,3826560064
21,5,ISIP_5,37,9999,9999,9999,9999,3827060812
21,5,ISIP_5,38,9999,9999,9999,9999,3827560508
21,5,ISIP_5,39,9999,9999,9999,9999,3828060252
21,5,ISIP_5,40,9999,9999,9999,9999,3828560984
21,5,ISIP_5,41,9999,9999,9999,9999,3829060680
21,5,ISIP_5,42,9999,9999,9999,9999,3829560372
21,5,ISIP_5,43,9999,9999,9999,9999,3830060136
21,5,ISIP_5,44,9999,9999,9999,9999,3830560872
21,5,ISIP_5,45,9999,9999,9999,9999,3831060564
21,5,ISIP_5,46,9999,9999,9999,9999,3831560256
21,5,ISIP_5,47,9999,9999,9999,9999,3832060992
21,5,ISIP_5,48,9999,9999,9999,9999,3832560756
21,5,ISIP_5,49,9999,9999,9999,9999,3833060448
21,5,ISIP_5,50,9999,9999,9999,9999,3833560140
21,5,ISIP_5,51,9999,9999,9999,9999,3834060876
21,5,ISIP_5,52,9999,9999,9999,9999,3834560568
21,5,ISIP_5,53,9999,9999,9999,9999,3835060332
21,5,ISIP_5,54,9999,9999,9999,9999,3835561068
21,5,ISIP_5,55,9999,9999,9999,9999,3836060760
21,5,ISIP_5,56,9999,9999,9999,9999,3836560448
21,5,ISIP_5,57,9999,9999,9999,9999,3837060208
21,5,ISIP_5,58,9999,9999,9999,9999,3837560952
21,5,ISIP_5,59,9999,9999,9999,9999,3838060644
21,5,ISIP_5,60,9999,9999,9999,9999,3838560308
21,5,ISIP_5,61,9999,9999,9999,9999,3839061048
21,5,ISIP_5,62,9999,9999,9999,9999,3839560812
21,5,ISIP_5,63,9999,9999,9999,9999,3840060504
21,5,ISIP_5,64,9999,9999,9999,9999,3840560192
21,5,ISIP_5,65,9999,9999,9999,9999,3841060928
21,5,ISIP_5,66,9999,9999,9999,9999,3841560696
21,5,ISIP_5,67,9999,9999,9999,9999,3842060384
21,5,ISIP_5,68,9999,9999,9999,9999,3842560076
21,5,ISIP_5,69,9999,9999,9999,9999,3843060812
21,5,ISIP_5,70,9999,9999,9999,9999,3843560504
21,5,ISIP_5,71,9999,9999,9999,9999,3844060268
21,5,ISIP_5,72,9999,9999,9999,9999,3844561004
21,5,ISIP_5,73,9999,9999,9999,9999,3845060696
21,5,ISIP_5,74,9999,9999,9999,9999,3845560388
21,5,ISIP_5,75,9999,9999,9999,9999,3846060152
21,5,ISIP_5,76,9999,9999,9999,9999,3846560816
21,5,ISIP_5,77,9999,9999,9999,9999,3847060580
21,5,ISIP_5,78,9999,9999,9999,9999,3847560272
21,5,ISIP_5,79,9999,9999,9999,9999,3848061008
21,5,ISIP_5,80,9999,9999,9999,9999,3848560700
21,5,ISIP_5,81,9999,9999,9999,9999,3849060440
21,5,ISIP_5,82,9999,9999,9999,9999,3849560132
21,5,ISIP_5,83,9999,9999,9999,9999,3850060868
21,5,ISIP_5,84,9999,9999,9999,9999,3850560560
21,5,ISIP_5,85,9999,9999,9999,9999,3851060324
21,5,ISIP_5,86,9999,9999,9999,9999,3851561064
21,5,ISIP_5,87,9999,9999,9999,9999,3852060756
21,5,ISIP_5,88,9999,9999,9999,9999,3852560444
21,5,ISIP_5,89,9999,9999,9999,9999,3853060212
21,5,ISIP_5,90,9999,9999,9999,9999,3853560952
21,5,ISIP_5,91,9999,9999,9999,9999,3854060640
21,5,ISIP_5,92,9999,9999,9999,9999,3854560332
21,5,ISIP_5,93,9999,9999,9999,9999,3855061068
21,5,ISIP_5,94,9999,9999,9999,9999,3855560760
21,5,ISIP_5,95,9999,9999,9999,9999,3856060528
21,5,ISIP_5,96,9999,9999,9999,9999,3856560216
21,5,ISIP_5,97,9999,9999,9999,9999,3857060956
21,5,ISIP_5,98,9999,9999,9999,9999,3857560648
21,5,ISIP_5,99,9999,9999,9999,9999,3858060336
21,5,ISIP_5,100,9999,9999,9999,9999,3858560104
21,5,ISIP_5,101,9999,9999,9999,9999,3859060840
21,5,ISIP_5,102,9999,9999,9999,9999,3859560528
21,5,ISIP_5,103,9999,9999,9999,9999,3860060268
21,5,ISIP_5,104,9999,9999,9999,9999,3860561004
21,5,ISIP_5,105,9999,9999,9999,9999,3861060696
21,5,ISIP_5,106,9999,9999,9999,9999,3861560388
21,5,ISIP_5,107,9999,9999,9999,9999,3862060152
21,5,ISIP_5,108,9999,9999,9999,9999,3862560816
21,5,ISIP_5,109,9999,9999,9999,9999,3863060580
21,5,ISIP_5,110,9999,9999,9999,9999,3863560272
21,5,ISIP_5,111,9999,9999,9999,9999,3864061008
21,5,ISIP_5,112,9999,9999,9999,9999,3864560700
21,5,ISIP_5,113,9999,9999,9999,9999,3865060464
21,5,ISIP_5,114,9999,9999,9999,9999,3865560156
21,5,ISIP_5,115,9999,9999,9999,9999,3866060892
21,5,ISIP_5,116,9999,9999,9999,9999,3866560584
21,5,ISIP_5,117,9999,9999,9999,9999,3867060276
21,5,ISIP_5,118,9999,9999,9999,9999,3867561012
21,5,ISIP_5,119,9999,9999,9999,9999,3868060776
21,5,ISIP_5,120,9999,9999,9999,9999,3868560468
21,5,ISIP_5,121,9999,9999,9999,9999,3869060160
21,5,ISIP_5,122,9999,9999,9999,9999,3869560896
21,5,ISIP_5,123,9999,9999,9999,9999,3870060660
21,5,ISIP_5,124,9999,9999,9999,9999,3870560328
21,5,ISIP_5,125,9999,9999,9999,9999,3871061064
21,5,ISIP_5,126,9999,9999,9999,9999,3871560756
21,5,ISIP_5,127,9999,9999,9999,9999,3872060520
21,5,ISIP_5,128,9999,9999,9999,9999,3872560212
21,5,ISIP_5,129,9999,9999,9999,9999,3873060952
21,5,ISIP_5,130,9999,9999,9999,9999,3873560644
21,5,ISIP_5,131,9999,9999,9999,9999,3874060408
21,5,ISIP_5,132,9999,9999,9999,9999,3874560100
21,5,ISIP_5,133,9999,9999,9999,9999,3875060836
21,5,ISIP_5,134,9999,9999,9999,9999,3875560528
21,5,ISIP_5,135,9999,9999,9999,9999,3876060232
21,5,ISIP_5,136,9999,9999,9999,9999,3876560968
21,5,ISIP_5,137,9999,9999,9999,9999,3877060660
21,5,ISIP_5,138,9999,9999,9999,9999,3877560412
21,5,ISIP_5,139,9999,9999,9999,9999,3878060116
21,5,ISIP_5,140,9999,9999,9999,9999,3878560852
21,5,ISIP_5,141,9999,9999,9999,9999,3879060528
21,5,ISIP_5,142,9999,9999,9999,9999,3879560308
21,5,ISIP_5,143,9999,9999,9999,9999,3880061048
21,5,ISIP_5,144,9999,9999,9999,9999,3880560736
21,5,ISIP_5,145,9999,9999,9999,9999,3881060404
21,5,ISIP_5,146,9999,9999,9999,9999,3881560168
21,5,ISIP_5,147,9999,9999,9999,9999,3882060904
21,5,ISIP_5,148,9999,9999,9999,9999,3882560596
21,5,ISIP_5,149,9999,9999,9999,9999,3883060284
21,5,ISIP_5,150,9999,9999,9999,9999,3883561024
21,5,ISIP_5,151,9999,9999,9999,9999,3884060788
21,5,ISIP_5,152,9999,9999,9999,9999,3884560480
21,5,ISIP_5,153,9999,9999,9999,9999,3885060168
21,5,ISIP_5,154,9999,9999,9999,9999,3885560908
21,5,ISIP_5,155,9999,9999,9999,9999,3886060596
21,5,ISIP_5,156,9999,9999,9999,9999,3886560368
21,5,ISIP_5,157,9999,9999,9999,9999,3887061104
21,5,ISIP_5,158,9999,9999,9999,9999,3887560796
21,5,ISIP_5,159,9999,9999,9999,9999,3888060488
22,11,Pattern_Practice,0,5,42,127,4006861160
22,11,Pattern_Practice,1,5,42,127,4007361104
22,11,Pattern_Practice,2,5,42,127,4007860448
22,11,Pattern_Practice,3,5,42,127,4008361284
22,11,Pattern_Practice,4,5,42,127,4008861224
22,11,Pattern_Practice,5,5,42,127,4009360716
22,11,Pattern_Practice,6,5,42,127,4009860508
22,11,Pattern_Practice,7,5,42,127,4010361200
22,11,Pattern_Practice,8,5,42,127,4010860988
22,11,Pattern_Practice,9,1,48,51,4010879964
22,11,Pattern_Practice,10,5,42,127,4011360760
22,11,Pattern_Practice,11,1,48,53,4011373376
22,11,Pattern_Practice,12,5,42,127,4011861324
22,11,Pattern_Practice,13,1,48,51,4011872772
22,11,Pattern_Practice,14,1,48,57,4012278180
22,11,Pattern_Practice,15,5,42,127,4012361160
22,11,Pattern_Practice,16,1,48,55,4012648248
22,11,Pattern_Practice,17,5,42,127,4012860916
22,11,Pattern_Practice,18,1,48,62,4012896376
22,11,Pattern_Practice,19,5,42,127,4013360612
22,11,Pattern_Practice,20,1,48,73,4013388116
22,11,Pattern_Practice,21,1,48,66,4013859688
22,11,Pattern_Practice,22,5,42,127,4013861344
22,11,Pattern_Practice,23,1,48,67,4014264892
22,11,Pattern_Practice,24,5,42,127,4014360892
22,11,Pattern_Practice,25,1,48,67,4014634340
22,11,Pattern_Practice,26,5,42,127,4014861020
22,11,Pattern_Practice,27,1,48,72,4014906628
22,11,Pattern_Practice,28,5,42,127,4015361316
22,11,Pattern_Practice,29,1,48,76,4015387848
22,11,Pattern_Practice,30,1,48,67,4015809956
22,11,Pattern_Practice,31,5,42,127,4015861076
22,11,Pattern_Practice,32,1,48,62,4016215456
22,11,Pattern_Practice,33,5,42,127,4016360904
22,11,Pattern_Practice,34,1,48,61,4016598468
22,11,Pattern_Practice,35,5,42,127,4016860524
22,11,Pattern_Practice,36,1,48,70,4016906804
22,11,Pattern_Practice,37,5,42,127,4017361116
22,11,Pattern_Practice,38,1,48,64,4017388844
22,11,Pattern_Practice,39,1,48,67,4017837584
22,11,Pattern_Practice,40,5,42,127,4017860880
22,11,Pattern_Practice,41,1,48,60,4018234856
22,11,Pattern_Practice,42,5,42,127,4018361008
22,11,Pattern_Practice,43,1,48,59,4018607092
22,11,Pattern_Practice,44,5,42,127,4018861452
22,11,Pattern_Practice,45,1,38,51,4018863164
22,11,Pattern_Practice,46,1,48,67,4018904508
22,11,Pattern_Practice,47,1,38,51,4019349252
22,11,Pattern_Practice,48,1,48,76,4019352448
22,11,Pattern_Practice,49,5,42,127,4019361160
22,11,Pattern_Practice,50,1,48,77,4019837904
22,11,Pattern_Practice,51,1,38,46,4019848132
22,11,Pattern_Practice,52,5,42,127,4019860880
22,11,Pattern_Practice,53,1,38,47,4020223980
22,11,Pattern_Practice,54,1,48,69,4020227184
22,11,Pattern_Practice,55,5,42,127,4020360708
22,11,Pattern_Practice,56,1,48,71,4020603876
22,11,Pattern_Practice,57,1,38,51,4020623532
22,11,Pattern_Practice,58,5,42,127,4020861328
22,11,Pattern_Practice,59,1,38,61,4020866620
22,11,Pattern_Practice,60,1,48,90,4020875276
22,11,Pattern_Practice,61,1,48,72,4021357048
22,11,Pattern_Practice,62,5,42,127,4021360896
22,11,Pattern_Practice,63,1,38,59,4021376208
22,11,Pattern_Practice,64,1,48,70,4021859652
22,11,Pattern_Practice,65,5,42,127,4021861224
22,11,Pattern_Practice,66,1,38,49,4021887756
22,11,Pattern_Practice,67,1,38,55,4022269796
22,11,Pattern_Practice,68,1,48,73,4022279504
22,11,Pattern_Practice,69,5,42,127,4022360912
22,11,Pattern_Practice,70,1,38,48,4022653892
22,11,Pattern_Practice,71,1,48,78,4022672276
22,11,Pattern_Practice,72,5,42,127,4022861132
22,11,Pattern_Practice,73,1,38,59,4022907804
22,11,Pattern_Practice,74,1,48,84,4022925212
22,11,Pattern_Practice,75,5,42,127,4023360852
22,11,Pattern_Practice,76,1,48,74,4023401996
22,11,Pattern_Practice,77,1,38,59,4023406988
22,11,Pattern_Practice,78,1,38,55,4023845572
22,11,Pattern_Practice,79,1,48,65,4023848696
22,11,Pattern_Practice,80,5,42,127,4023860620
22,11,Pattern_Practice,81,1,48,66,4024247536
22,11,Pattern_Practice,82,1,38,49,4024262624
22,11,Pattern_Practice,83,5,42,127,4024361420
22,11,Pattern_Practice,84,1,38,54,4024606164
22,11,Pattern_Practice,85,1,48,62,4024653564
22,11,Pattern_Practice,86,5,42,127,4024860920
22,11,Pattern_Practice,87,1,48,86,4024881320
22,11,Pattern_Practice,88,1,38,19,4024891244
22,11,Pattern_Practice,89,1,48,50,4025002668
22,11,Pattern_Practice,90,1,48,80,4025242852
22,11,Pattern_Practice,91,1,38,19,4025252328
22,11,Pattern_Practice,92,1,48,49,4025330844
22,11,Pattern_Practice,93,1,38,16,4025345484
22,11,Pattern_Practice,94,5,42,127,4025360924
22,11,Pattern_Practice,95,1,48,72,4025605636
22,11,Pattern_Practice,96,1,38,17,4025615640
22,11,Pattern_Practice,97,1,48,59,4025696724
22,11,Pattern_Practice,98,5,42,127,4025860668
22,11,Pattern_Practice,99,1,48,73,4026000396
22,11,Pattern_Practice,100,1,48,52,4026106804
22,11,Pattern_Practice,101,1,38,16,4026121896
22,11,Pattern_Practice,102,5,42,127,4026361128
22,11,Pattern_Practice,103,1,48,71,4026382652
22,11,Pattern_Practice,104,1,48,69,4026622972
22,11,Pattern_Practice,105,1,38,18,4026632976
22,11,Pattern_Practice,106,1,48,63,4026842316
22,11,Pattern_Practice,107,5,42,127,4026860820
22,11,Pattern_Practice,108,1,48,66,4026992300
22,11,Pattern_Practice,109,1,38,18,4027002008
22,11,Pattern_Practice,110,1,48,48,4027230344
22,11,Pattern_Practice,111,1,48,62,4027337956
22,11,Pattern_Practice,112,5,42,127,4027360652
22,11,Pattern_Practice,113,1,48,44,4027554512
22,11,Pattern_Practice,114,1,48,75,4027724356
22,11,Pattern_Practice,115,5,42,127,4027861724
22,11,Pattern_Practice,116,1,48,69,4027999584
22,11,Pattern_Practice,117,1,38,18,4028008916
22,11,Pattern_Practice,118,1,48,73,4028143052
22,11,Pattern_Practice,119,1,38,18,4028152604
22,11,Pattern_Practice,120,5,42,127,4028361084
22,11,Pattern_Practice,121,1,48,62,4028367944
22,11,Pattern_Practice,122,1,48,59,4028577156
22,11,Pattern_Practice,123,5,42,127,4028860680
22,11,Pattern_Practice,124,1,48,77,4028868584
22,11,Pattern_Practice,125,1,38,19,4028877540
22,11,Pattern_Practice,126,1,48,56,4029038256
22,11,Pattern_Practice,127,1,48,80,4029260608
22,11,Pattern_Practice,128,1,38,19,4029269564
22,11,Pattern_Practice,129,1,48,60,4029360488
22,11,Pattern_Practice,130,5,42,127,4029362124
22,11,Pattern_Practice,131,1,48,56,4029590220
22,11,Pattern_Practice,132,1,48,40,4029736580
22,11,Pattern_Practice,133,5,42,127,4029861308
22,11,Pattern_Practice,134,1,48,70,4029962860
22,11,Pattern_Practice,135,1,48,73,4030128392
22,11,Pattern_Practice,136,1,38,18,4030137572
22,11,Pattern_Practice,137,5,42,127,4030361008
22,11,Pattern_Practice,138,1,48,61,4030381928
22,11,Pattern_Practice,139,1,38,16,4030397092
22,11,Pattern_Practice,140,1,48,62,4030619292
22,11,Pattern_Practice,141,1,38,17,4030628548
22,11,Pattern_Practice,142,5,42,127,4030860512
22,11,Pattern_Practice,143,1,48,72,4030889284
22,11,Pattern_Practice,144,1,38,19,4030898764
22,11,Pattern_Practice,145,1,48,57,4031031176
22,11,Pattern_Practice,146,1,48,61,4031249520
22,11,Pattern_Practice,147,1,48,79,4031351096
22,11,Pattern_Practice,148,1,38,20,4031360836
22,11,Pattern_Practice,149,5,42,127,4031363452
22,11,Pattern_Practice,150,1,48,70,4031621464
22,11,Pattern_Practice,151,1,48,47,4031752708
22,11,Pattern_Practice,152,5,42,127,4031861284
22,11,Pattern_Practice,153,1,48,67,4032002480
22,11,Pattern_Practice,154,1,48,62,4032124628
22,11,Pattern_Practice,155,5,42,127,4032360956
22,11,Pattern_Practice,156,1,48,59,4032385620
22,11,Pattern_Practice,157,1,48,82,4032626396
22,11,Pattern_Practice,158,1,38,20,4032636252
22,11,Pattern_Practice,159,1,38,85,4032845556
22,11,Pattern_Practice,160,1,48,19,4032856008
22,11,Pattern_Practice,161,5,42,127,4032860704
22,11,Pattern_Practice,162,1,48,41,4032972612
22,11,Pattern_Practice,163,5,42,127,4033361380
22,11,Pattern_Practice,164,1,48,83,4033362716
22,11,Pattern_Practice,165,1,38,58,4033370328
22,11,Pattern_Practice,166,5,42,127,4033861560
22,11,Pattern_Practice,167,1,48,81,4033885356
22,11,Pattern_Practice,168,1,38,51,4033915928
22,11,Pattern_Practice,169,1,48,97,4034231548
22,11,Pattern_Practice,170,5,42,127,4034360740
22,11,Pattern_Practice,171,1,48,97,4034530232
22,11,Pattern_Practice,172,1,48,89,4034686268
22,11,Pattern_Practice,173,5,42,127,4034861536
22,11,Pattern_Practice,174,1,38,76,4034909484
22,11,Pattern_Practice,175,5,42,127,4035361004
22,11,Pattern_Practice,176,1,38,69,4035372576
22,11,Pattern_Practice,177,1,38,65,4035852656
22,11,Pattern_Practice,178,5,42,127,4035860692
22,11,Pattern_Practice,179,1,48,92,4036238584
22,11,Pattern_Practice,180,5,42,127,4036360596
22,11,Pattern_Practice,181,1,48,78,4036511016
22,11,Pattern_Practice,182,1,48,81,4036662464
22,11,Pattern_Practice,183,1,38,19,4036672312
22,11,Pattern_Practice,184,5,42,127,4036861416
22,11,Pattern_Practice,185,1,38,72,4036904632
22,11,Pattern_Practice,186,5,42,127,4037361040
22,11,Pattern_Practice,187,1,38,70,4037383460
22,11,Pattern_Practice,188,1,38,80,4037837360
22,11,Pattern_Practice,189,5,42,127,4037860728
22,11,Pattern_Practice,190,1,48,81,4038219224
22,11,Pattern_Practice,191,5,42,127,4038360412
22,11,Pattern_Practice,192,1,48,70,4038499308
22,11,Pattern_Practice,193,1,48,78,4038631684
22,11,Pattern_Practice,194,5,42,127,4038861276
22,11,Pattern_Practice,195,1,38,86,4038881528
22,11,Pattern_Practice,196,5,42,127,4039360824
22,11,Pattern_Practice,197,1,38,76,4039362460
22,11,Pattern_Practice,198,1,38,62,4039850676
22,11,Pattern_Practice,199,1,48,16,4039860572
22,11,Pattern_Practice,200,5,42,127,4039862288
22,11,Pattern_Practice,201,1,48,82,4040255684
22,11,Pattern_Practice,202,5,42,127,4040361340
22,11,Pattern_Practice,203,1,48,67,4040528564
22,11,Pattern_Practice,204,1,48,85,4040654900
22,11,Pattern_Practice,205,5,42,127,4040861384
22,11,Pattern_Practice,206,1,38,86,4040879612
22,11,Pattern_Practice,207,1,48,84,4040887600
22,11,Pattern_Practice,208,1,38,42,4040919068
22,11,Pattern_Practice,209,1,48,49,4040923004
22,11,Pattern_Practice,210,5,42,127,4041360688
22,11,Pattern_Practice,211,1,48,89,4041382876
22,11,Pattern_Practice,212,1,38,62,4041390120
22,11,Pattern_Practice,213,5,42,127,4041860484
22,11,Pattern_Practice,214,1,48,77,4041875948
22,11,Pattern_Practice,215,1,38,62,4041883256
22,11,Pattern_Practice,216,1,38,54,4042241064
22,11,Pattern_Practice,217,1,48,81,4042250840
22,11,Pattern_Practice,218,5,42,127,4042361332
22,11,Pattern_Practice,219,1,48,86,4042497592
22,11,Pattern_Practice,220,1,38,68,4042500864
22,11,Pattern_Practice,221,1,38,66,4042649764
22,11,Pattern_Practice,222,1,48,78,4042659992
22,11,Pattern_Practice,223,5,42,127,4042860984
22,11,Pattern_Practice,224,1,38,72,4042889084
22,11,Pattern_Practice,225,1,48,86,4042892280
22,11,Pattern_Practice,226,1,48,81,4043360560
22,11,Pattern_Practice,227,5,42,127,4043362196
22,11,Pattern_Practice,228,1,38,68,4043364420
22,11,Pattern_Practice,229,1,48,78,4043842200
22,11,Pattern_Practice,230,1,38,61,4043846000
22,11,Pattern_Practice,231,5,42,127,4043861288
22,11,Pattern_Practice,232,1,48,70,4044240496
22,11,Pattern_Practice,233,1,38,56,4044243844
22,11,Pattern_Practice,234,5,42,127,4044361044
22,11,Pattern_Practice,235,1,38,46,4044505260
22,11,Pattern_Practice,236,1,48,64,4044508456
22,11,Pattern_Practice,237,1,48,67,4044644564
22,11,Pattern_Practice,238,1,38,44,4044647908
22,11,Pattern_Practice,239,5,42,127,4044860700
22,11,Pattern_Practice,240,1,38,60,4044870248
22,11,Pattern_Practice,241,1,48,80,4044879956
22,11,Pattern_Practice,242,1,48,80,4045338236
22,11,Pattern_Practice,243,1,38,61,4045347568
22,11,Pattern_Practice,244,5,42,127,4045360468
22,11,Pattern_Practice,245,1,48,76,4045821800
22,11,Pattern_Practice,246,1,38,49,4045841756
22,11,Pattern_Practice,247,5,42,127,4045861160
22,11,Pattern_Practice,248,1,48,83,4046242928
22,11,Pattern_Practice,249,5,42,127,4046361048
22,11,Pattern_Practice,250,1,48,93,4046530168
22,11,Pattern_Practice,251,1,38,20,4046540692
22,11,Pattern_Practice,252,1,38,71,4046621528
22,11,Pattern_Practice,0,9999,9999,9999,9999,4006858800
22,11,Pattern_Practice,1,9999,9999,9999,9999,4007358520
22,11,Pattern_Practice,2,9999,9999,9999,9999,4007858236
22,11,Pattern_Practice,3,9999,9999,9999,9999,4008358996
22,11,Pattern_Practice,4,9999,9999,9999,9999,4008858716
22,11,Pattern_Practice,5,9999,9999,9999,9999,4009358432
22,11,Pattern_Practice,6,9999,9999,9999,9999,4009858148
22,11,Pattern_Practice,7,9999,9999,9999,9999,4010358836
22,11,Pattern_Practice,8,9999,9999,9999,9999,4010858552
22,11,Pattern_Practice,9,9999,9999,9999,9999,4011358324
22,11,Pattern_Practice,10,9999,9999,9999,9999,4011859040
22,11,Pattern_Practice,11,9999,9999,9999,9999,4012358728
22,11,Pattern_Practice,12,9999,9999,9999,9999,4012858480
22,11,Pattern_Practice,13,9999,9999,9999,9999,4013358176
22,11,Pattern_Practice,14,9999,9999,9999,9999,4013858916
22,11,Pattern_Practice,15,9999,9999,9999,9999,4014358604
22,11,Pattern_Practice,16,9999,9999,9999,9999,4014858360
22,11,Pattern_Practice,17,9999,9999,9999,9999,4015359028
22,11,Pattern_Practice,18,9999,9999,9999,9999,4015858788
22,11,Pattern_Practice,19,9999,9999,9999,9999,4016358468
22,11,Pattern_Practice,20,9999,9999,9999,9999,4016858164
22,11,Pattern_Practice,21,9999,9999,9999,9999,4017358904
22,11,Pattern_Practice,22,9999,9999,9999,9999,4017858668
22,11,Pattern_Practice,23,9999,9999,9999,9999,4018358348
22,11,Pattern_Practice,24,9999,9999,9999,9999,4018859088
22,11,Pattern_Practice,25,9999,9999,9999,9999,4019358800
22,11,Pattern_Practice,26,9999,9999,9999,9999,4019858520
22,11,Pattern_Practice,27,9999,9999,9999,9999,4020358200
22,11,Pattern_Practice,28,9999,9999,9999,9999,4020858968
22,11,Pattern_Practice,29,9999,9999,9999,9999,4021358684
22,11,Pattern_Practice,30,9999,9999,9999,9999,4021858424
22,11,Pattern_Practice,31,9999,9999,9999,9999,4022358108
22,11,Pattern_Practice,32,9999,9999,9999,9999,4022858844
22,11,Pattern_Practice,33,9999,9999,9999,9999,4023358568
22,11,Pattern_Practice,34,9999,9999,9999,9999,4023858260
22,11,Pattern_Practice,35,9999,9999,9999,9999,4024358988
22,11,Pattern_Practice,36,9999,9999,9999,9999,4024858708
22,11,Pattern_Practice,37,9999,9999,9999,9999,4025358412
22,11,Pattern_Practice,38,9999,9999,9999,9999,4025858156
22,11,Pattern_Practice,39,9999,9999,9999,9999,4026358844
22,11,Pattern_Practice,40,9999,9999,9999,9999,4026858608
22,11,Pattern_Practice,41,9999,9999,9999,9999,4027358288
22,11,Pattern_Practice,42,9999,9999,9999,9999,4027858992
22,11,Pattern_Practice,43,9999,9999,9999,9999,4028358720
22,11,Pattern_Practice,44,9999,9999,9999,9999,4028858468
22,11,Pattern_Practice,45,9999,9999,9999,9999,4029358200
22,11,Pattern_Practice,46,9999,9999,9999,9999,4029858872
22,11,Pattern_Practice,47,9999,9999,9999,9999,4030358648
22,11,Pattern_Practice,48,9999,9999,9999,9999,4030858300
22,11,Pattern_Practice,49,9999,9999,9999,9999,4031359092
22,11,Pattern_Practice,50,9999,9999,9999,9999,4031858772
22,11,Pattern_Practice,51,9999,9999,9999,9999,4032358520
22,11,Pattern_Practice,52,9999,9999,9999,9999,4032858172
22,11,Pattern_Practice,53,9999,9999,9999,9999,4033358944
22,11,Pattern_Practice,54,9999,9999,9999,9999,4033858680
22,11,Pattern_Practice,55,9999,9999,9999,9999,4034358380
22,11,Pattern_Practice,56,9999,9999,9999,9999,4034859100
22,11,Pattern_Practice,57,9999,9999,9999,9999,4035358792
22,11,Pattern_Practice,58,9999,9999,9999,9999,4035858480
22,11,Pattern_Practice,59,9999,9999,9999,9999,4036358236
22,11,Pattern_Practice,60,9999,9999,9999,9999,4036858984
22,11,Pattern_Practice,61,9999,9999,9999,9999,4037358680
22,11,Pattern_Practice,62,9999,9999,9999,9999,4037858368
22,11,Pattern_Practice,63,9999,9999,9999,9999,4038358124
22,11,Pattern_Practice,64,9999,9999,9999,9999,4038858840
22,11,Pattern_Practice,65,9999,9999,9999,9999,4039358536
22,11,Pattern_Practice,66,9999,9999,9999,9999,4039858224
22,11,Pattern_Practice,67,9999,9999,9999,9999,4040358980
22,11,Pattern_Practice,68,9999,9999,9999,9999,4040858724
22,11,Pattern_Practice,69,9999,9999,9999,9999,4041358404
22,11,Pattern_Practice,70,9999,9999,9999,9999,4041858124
22,11,Pattern_Practice,71,9999,9999,9999,9999,4042358900
22,11,Pattern_Practice,72,9999,9999,9999,9999,4042858552
22,11,Pattern_Practice,73,9999,9999,9999,9999,4043358272
22,11,Pattern_Practice,74,9999,9999,9999,9999,4043859004
22,11,Pattern_Practice,75,9999,9999,9999,9999,4044358756
22,11,Pattern_Practice,76,9999,9999,9999,9999,4044858484
22,11,Pattern_Practice,77,9999,9999,9999,9999,4045358180
22,11,Pattern_Practice,78,9999,9999,9999,9999,4045858876
22,11,Pattern_Practice,79,9999,9999,9999,9999,4046358616
23,13,Improv_Metronome,0,5,42,127,4072602940
23,13,Improv_Metronome,1,5,42,127,4073102656
23,13,Improv_Metronome,2,5,42,127,4073602448
23,13,Improv_Metronome,3,5,42,127,4074103284
23,13,Improv_Metronome,4,5,42,127,4074603000
23,13,Improv_Metronome,5,5,42,127,4075102568
23,13,Improv_Metronome,6,5,42,127,4075603308
23,13,Improv_Metronome,7,5,42,127,4076102952
23,13,Improv_Metronome,8,5,42,127,4076602592
23,13,Improv_Metronome,9,1,38,35,4076625752
23,13,Improv_Metronome,10,1,38,29,4076905904
23,13,Improv_Metronome,11,5,42,127,4077102412
23,13,Improv_Metronome,12,1,38,34,4077162928
23,13,Improv_Metronome,13,1,38,34,4077417544
23,13,Improv_Metronome,14,5,42,127,4077603432
23,13,Improv_Metronome,15,1,38,29,4077666940
23,13,Improv_Metronome,16,1,38,39,4077906124
23,13,Improv_Metronome,17,5,42,127,4078102880
23,13,Improv_Metronome,18,1,38,36,4078168232
23,13,Improv_Metronome,19,1,38,40,4078413420
23,13,Improv_Metronome,20,5,42,127,4078602552
23,13,Improv_Metronome,21,1,38,47,4078668428
23,13,Improv_Metronome,22,1,38,41,4078897008
23,13,Improv_Metronome,23,5,42,127,4079103196
23,13,Improv_Metronome,24,1,38,40,4079140948
23,13,Improv_Metronome,25,1,38,38,4079403564
23,13,Improv_Metronome,26,5,42,127,4079603316
23,13,Improv_Metronome,27,1,38,42,4079655208
23,13,Improv_Metronome,28,1,38,36,4079894036
23,13,Improv_Metronome,29,5,42,127,4080102692
23,13,Improv_Metronome,30,1,38,46,4080161756
23,13,Improv_Metronome,31,1,38,39,4080385188
23,13,Improv_Metronome,32,5,42,127,4080602516
23,13,Improv_Metronome,33,1,38,49,4080653276
23,13,Improv_Metronome,34,1,38,35,4080895404
23,13,Improv_Metronome,35,5,42,127,4081103160
23,13,Improv_Metronome,36,1,38,44,4081147716
23,13,Improv_Metronome,37,1,38,30,4081404200
23,13,Improv_Metronome,38,5,42,127,4081602904
23,13,Improv_Metronome,39,1,38,43,4081664664
23,13,Improv_Metronome,40,1,38,36,4081902372
23,13,Improv_Metronome,41,5,42,127,4082102580
23,13,Improv_Metronome,42,1,38,45,4082176160
23,13,Improv_Metronome,43,1,38,30,4082412000
23,13,Improv_Metronome,44,5,42,127,4082603448
23,13,Improv_Metronome,45,1,38,38,4082684284
23,13,Improv_Metronome,46,1,38,38,4082923188
23,13,Improv_Metronome,47,5,42,127,4083103344
23,13,Improv_Metronome,48,1,38,46,4083203480
23,13,Improv_Metronome,49,1,38,32,4083463700
23,13,Improv_Metronome,50,5,42,127,4083602868
23,13,Improv_Metronome,51,1,38,44,4083734116
23,13,Improv_Metronome,52,1,38,29,4083967860
23,13,Improv_Metronome,53,5,42,127,4084102468
23,13,Improv_Metronome,54,1,38,43,4084234160
23,13,Improv_Metronome,55,5,42,127,4084603208
23,13,Improv_Metronome,56,1,48,70,4084737524
23,13,Improv_Metronome,57,5,42,127,4085103048
23,13,Improv_Metronome,58,1,48,70,4085247536
23,13,Improv_Metronome,59,5,42,127,4085602520
23,13,Improv_Metronome,60,1,48,73,4085759200
23,13,Improv_Metronome,61,1,48,67,4086095044
23,13,Improv_Metronome,62,5,42,127,4086103380
23,13,Improv_Metronome,63,1,48,65,4086386648
23,13,Improv_Metronome,64,5,42,127,4086603356
23,13,Improv_Metronome,65,1,48,82,4086758568
23,13,Improv_Metronome,66,5,42,127,4087102976
23,13,Improv_Metronome,67,1,48,81,4087272020
23,13,Improv_Metronome,68,5,42,127,4087602448
23,13,Improv_Metronome,69,1,48,70,4087768424
23,13,Improv_Metronome,70,5,42,127,4088103264
23,13,Improv_Metronome,71,1,48,70,4088135780
23,13,Improv_Metronome,72,1,48,76,4088391360
23,13,Improv_Metronome,73,5,42,127,4088603084
23,13,Improv_Metronome,74,1,48,90,4088765320
23,13,Improv_Metronome,75,5,42,127,4089102632
23,13,Improv_Metronome,76,1,48,80,4089231736
23,13,Improv_Metronome,77,5,42,127,4089602476
23,13,Improv_Metronome,78,1,48,74,4089647928
23,13,Improv_Metronome,79,1,48,77,4090056428
23,13,Improv_Metronome,80,5,42,127,4090103208
23,13,Improv_Metronome,81,1,48,72,4090347408
23,13,Improv_Metronome,82,5,42,127,4090603112
23,13,Improv_Metronome,83,1,48,81,4090681028
23,13,Improv_Metronome,84,5,42,127,4091102508
23,13,Improv_Metronome,85,1,48,76,4091169576
23,13,Improv_Metronome,86,5,42,127,4091603172
23,13,Improv_Metronome,87,1,48,76,4091623268
23,13,Improv_Metronome,88,1,48,69,4092007540
23,13,Improv_Metronome,89,5,42,127,4092102936
23,13,Improv_Metronome,90,1,48,74,4092297172
23,13,Improv_Metronome,91,5,42,127,4092602840
23,13,Improv_Metronome,92,1,38,57,4092637000
23,13,Improv_Metronome,93,1,48,74,4092661816
23,13,Improv_Metronome,94,5,42,127,4093102488
23,13,Improv_Metronome,95,1,48,71,4093131864
23,13,Improv_Metronome,96,1,38,52,4093135652
23,13,Improv_Metronome,97,1,48,71,4093584216
23,13,Improv_Metronome,98,1,38,50,4093588612
23,13,Improv_Metronome,99,5,42,127,4093603156
23,13,Improv_Metronome,100,1,48,53,4093979272
23,13,Improv_Metronome,101,1,38,52,4093994288
23,13,Improv_Metronome,102,5,42,127,4094103056
23,13,Improv_Metronome,103,1,48,86,4094265268
23,13,Improv_Metronome,104,1,38,42,4094270112
23,13,Improv_Metronome,105,5,42,127,4094602704
23,13,Improv_Metronome,106,1,38,68,4094643968
23,13,Improv_Metronome,107,1,48,91,4094658160
23,13,Improv_Metronome,108,5,42,127,4095103320
23,13,Improv_Metronome,109,1,38,70,4095152220
23,13,Improv_Metronome,110,1,48,76,4095158708
23,13,Improv_Metronome,111,5,42,127,4095603120
23,13,Improv_Metronome,112,1,48,73,4095641920
23,13,Improv_Metronome,113,1,38,48,4095645116
23,13,Improv_Metronome,114,1,38,50,4096008828
23,13,Improv_Metronome,115,1,48,66,4096026536
23,13,Improv_Metronome,116,5,42,127,4096102888
23,13,Improv_Metronome,117,1,48,68,4096292672
23,13,Improv_Metronome,118,1,38,54,4096295868
23,13,Improv_Metronome,119,5,42,127,4096602504
23,13,Improv_Metronome,120,1,48,79,4096651996
23,13,Improv_Metronome,121,1,38,57,4096655424
23,13,Improv_Metronome,122,5,42,127,4097103176
23,13,Improv_Metronome,123,1,48,74,4097146860
23,13,Improv_Metronome,124,1,38,59,4097162400
23,13,Improv_Metronome,125,5,42,127,4097602972
23,13,Improv_Metronome,126,1,38,58,4097619112
23,13,Improv_Metronome,127,1,48,69,4097629600
23,13,Improv_Metronome,128,1,38,58,4098021136
23,13,Improv_Metronome,129,1,48,71,4098038024
23,13,Improv_Metronome,130,5,42,127,4098102608
23,13,Improv_Metronome,131,1,38,54,4098298088
23,13,Improv_Metronome,132,1,48,77,4098321556
23,13,Improv_Metronome,133,5,42,127,4098603492
23,13,Improv_Metronome,134,1,38,62,4098660792
23,13,Improv_Metronome,135,1,48,79,4098664512
23,13,Improv_Metronome,136,5,42,127,4099103064
23,13,Improv_Metronome,137,1,38,56,4099155848
23,13,Improv_Metronome,138,1,48,63,4099165968
23,13,Improv_Metronome,139,1,38,52,4099597972
23,13,Improv_Metronome,140,5,42,127,4099602720
23,13,Improv_Metronome,141,1,48,73,4099608684
23,13,Improv_Metronome,142,1,48,76,4099993892
23,13,Improv_Metronome,143,1,38,22,4100026032
23,13,Improv_Metronome,144,5,42,127,4100102940
23,13,Improv_Metronome,145,1,38,58,4100297032
23,13,Improv_Metronome,146,1,48,15,4100312272
23,13,Improv_Metronome,147,1,48,58,4100318080
23,13,Improv_Metronome,148,5,42,127,4100603300
23,13,Improv_Metronome,149,1,48,89,4100624896
23,13,Improv_Metronome,150,1,38,21,4100634448
23,13,Improv_Metronome,151,1,48,41,4100861880
23,13,Improv_Metronome,152,5,42,127,4101103000
23,13,Improv_Metronome,153,1,48,65,4101135140
23,13,Improv_Metronome,154,1,48,66,4101380184
23,13,Improv_Metronome,155,5,42,127,4101602676
23,13,Improv_Metronome,156,1,48,53,4101603640
23,13,Improv_Metronome,157,1,48,71,4101857492
23,13,Improv_Metronome,158,1,38,19,4101867416
23,13,Improv_Metronome,159,1,48,72,4102000160
23,13,Improv_Metronome,160,5,42,127,4102103396
23,13,Improv_Metronome,161,1,48,74,4102240952
23,13,Improv_Metronome,162,1,38,18,4102250808
23,13,Improv_Metronome,163,1,48,74,4102361612
23,13,Improv_Metronome,164,1,38,19,4102371840
23,13,Improv_Metronome,165,5,42,127,4102603128
23,13,Improv_Metronome,166,1,48,68,4102611332
23,13,Improv_Metronome,167,1,48,62,4102842760
23,13,Improv_Metronome,168,5,42,127,4103102724
23,13,Improv_Metronome,169,1,48,52,4103107264
23,13,Improv_Metronome,170,1,48,66,4103393144
23,13,Improv_Metronome,171,5,42,127,4103602772
23,13,Improv_Metronome,172,1,48,55,4103636188
23,13,Improv_Metronome,173,1,48,82,4103877556
23,13,Improv_Metronome,174,1,38,21,4103887044
23,13,Improv_Metronome,175,1,48,66,4104017068
23,13,Improv_Metronome,176,5,42,127,4104103140
23,13,Improv_Metronome,177,1,48,118,4104266836
23,13,Improv_Metronome,178,1,38,24,4104276760
23,13,Improv_Metronome,179,1,48,61,4104390576
23,13,Improv_Metronome,180,5,42,127,4104602972
23,13,Improv_Metronome,181,1,48,64,4104620084
23,13,Improv_Metronome,182,1,48,96,4104863104
23,13,Improv_Metronome,183,1,38,21,4104873180
23,13,Improv_Metronome,184,1,48,31,4104921024
23,13,Improv_Metronome,185,5,42,127,4105102876
23,13,Improv_Metronome,186,1,48,51,4105131652
23,13,Improv_Metronome,187,1,48,73,4105351264
23,13,Improv_Metronome,188,1,48,54,4105599668
23,13,Improv_Metronome,189,5,42,127,4105602468
23,13,Improv_Metronome,190,1,48,81,4105832684
23,13,Improv_Metronome,191,1,48,58,4105954204
23,13,Improv_Metronome,192,5,42,127,4106103100
23,13,Improv_Metronome,193,1,48,63,4106180940
23,13,Improv_Metronome,194,1,48,25,4106256840
23,13,Improv_Metronome,195,1,48,74,4106556632
23,13,Improv_Metronome,196,5,42,127,4106602916
23,13,Improv_Metronome,197,1,48,83,4106837668
23,13,Improv_Metronome,198,1,48,59,4107092728
23,13,Improv_Metronome,199,5,42,127,4107102660
23,13,Improv_Metronome,200,1,48,37,4107137336
23,13,Improv_Metronome,201,1,48,66,4107313384
23,13,Improv_Metronome,202,5,42,127,4107603416
23,13,Improv_Metronome,203,1,48,73,4107622420
23,13,Improv_Metronome,204,1,48,77,4107888400
23,13,Improv_Metronome,205,1,38,18,4107897804
23,13,Improv_Metronome,206,1,48,69,4108056704
23,13,Improv_Metronome,207,5,42,127,4108102960
23,13,Improv_Metronome,208,1,48,74,4108271916
23,13,Improv_Metronome,209,1,48,69,4108394432
23,13,Improv_Metronome,210,5,42,127,4108602692
23,13,Improv_Metronome,211,1,48,65,4108645632
23,13,Improv_Metronome,212,1,48,70,4108879796
23,13,Improv_Metronome,213,5,42,127,4109102664
23,13,Improv_Metronome,214,1,48,69,4109433744
23,13,Improv_Metronome,215,5,42,127,4109603332
23,13,Improv_Metronome,216,1,48,61,4109665720
23,13,Improv_Metronome,217,1,48,62,4109931028
23,13,Improv_Metronome,218,1,48,66,4110060928
23,13,Improv_Metronome,219,5,42,127,4110103000
23,13,Improv_Metronome,220,1,48,63,4110245400
23,13,Improv_Metronome,221,1,48,82,4110369096
23,13,Improv_Metronome,222,5,42,127,4110602732
23,13,Improv_Metronome,223,1,48,65,4110875220
23,13,Improv_Metronome,224,5,42,127,4111103396
23,13,Improv_Metronome,225,1,48,68,4111342608
23,13,Improv_Metronome,226,1,48,73,4111575600
23,13,Improv_Metronome,227,5,42,127,4111603012
23,13,Improv_Metronome,228,1,48,62,4111850504
23,13,Improv_Metronome,229,1,48,79,4111967568
23,13,Improv_Metronome,230,5,42,127,4112102744
23,13,Improv_Metronome,231,1,48,26,4112222424
23,13,Improv_Metronome,232,1,48,92,4112304456
23,13,Improv_Metronome,233,5,42,127,4112602416
23,13,Improv_Metronome,234,1,38,54,4112839672
23,13,Improv_Metronome,235,1,48,79,4112845564
23,13,Improv_Metronome,236,5,42,127,4113103484
23,13,Improv_Metronome,237,1,48,78,4113337152
23,13,Improv_Metronome,238,1,38,40,4113340348
23,13,Improv_Metronome,239,5,42,127,4113602908
23,13,Improv_Metronome,240,1,48,75,4113856472
23,13,Improv_Metronome,241,1,38,43,4113859824
23,13,Improv_Metronome,242,5,42,127,4114102632
23,13,Improv_Metronome,243,1,38,51,4114362928
23,13,Improv_Metronome,244,1,48,66,4114366128
23,13,Improv_Metronome,245,5,42,127,4114603400
23,13,Improv_Metronome,246,1,38,47,4114864448
23,13,Improv_Metronome,247,1,48,69,4114869292
23,13,Improv_Metronome,248,5,42,127,4115103268
23,13,Improv_Metronome,249,1,48,62,4115371944
23,13,Improv_Metronome,250,1,38,50,4115375372
23,13,Improv_Metronome,251,5,42,127,4115602768
23,13,Improv_Metronome,252,1,38,51,4115883116
23,13,Improv_Metronome,253,1,48,65,4115894612
23,13,Improv_Metronome,254,5,42,127,4116102492
23,13,Improv_Metronome,255,1,48,62,4116385080
23,13,Improv_Metronome,256,1,38,58,4116395004
23,13,Improv_Metronome,257,5,42,127,4116603408
23,13,Improv_Metronome,258,5,42,127,4117102828
23,13,Improv_Metronome,259,1,48,88,4117166532
23,13,Improv_Metronome,260,5,42,127,4117602672
23,13,Improv_Metronome,261,1,38,67,4117606388
23,13,Improv_Metronome,262,1,48,71,4117869528
23,13,Improv_Metronome,263,5,42,127,4118103392
23,13,Improv_Metronome,264,1,48,56,4118141664
23,13,Improv_Metronome,265,1,48,64,4118255860
23,13,Improv_Metronome,266,1,48,59,4118465368
23,13,Improv_Metronome,267,1,48,64,4118580536
23,13,Improv_Metronome,268,5,42,127,4118603232
23,13,Improv_Metronome,269,1,48,97,4119076120
23,13,Improv_Metronome,270,5,42,127,4119102704
23,13,Improv_Metronome,271,1,38,57,4119107468
23,13,Improv_Metronome,272,1,48,103,4119567100
23,13,Improv_Metronome,273,5,42,127,4119602512
23,13,Improv_Metronome,274,1,48,71,4119838560
23,13,Improv_Metronome,275,1,48,62,4120075452
23,13,Improv_Metronome,276,5,42,127,4120103380
23,13,Improv_Metronome,277,1,48,62,4120215940
23,13,Improv_Metronome,278,1,48,55,4120433904
23,13,Improv_Metronome,279,1,48,71,4120580412
23,13,Improv_Metronome,280,1,38,17,4120590640
23,13,Improv_Metronome,281,5,42,127,4120603088
23,13,Improv_Metronome,282,5,42,127,4121102616
23,13,Improv_Metronome,283,1,48,80,4121105356
23,13,Improv_Metronome,284,1,38,67,4121110200
23,13,Improv_Metronome,285,1,48,92,4121557492
23,13,Improv_Metronome,286,1,38,20,4121567572
23,13,Improv_Metronome,287,5,42,127,4121602460
23,13,Improv_Metronome,288,1,48,59,4121810656
23,13,Improv_Metronome,289,1,48,60,4122070060
23,13,Improv_Metronome,290,5,42,127,4122103228
23,13,Improv_Metronome,291,1,48,63,4122218476
23,13,Improv_Metronome,292,1,48,62,4122482516
23,13,Improv_Metronome,293,1,48,69,4122601296
23,13,Improv_Metronome,294,5,42,127,4122603324
23,13,Improv_Metronome,295,5,42,127,4123102580
23,13,Improv_Metronome,296,1,48,111,4123137192
23,13,Improv_Metronome,297,1,38,61,4123144576
23,13,Improv_Metronome,298,1,48,94,4123596132
23,13,Improv_Metronome,299,5,42,127,4123603268
23,13,Improv_Metronome,300,1,48,57,4123881952
23,13,Improv_Metronome,301,5,42,127,4124103396
23,13,Improv_Metronome,302,1,48,57,4124132172
23,13,Improv_Metronome,303,1,48,68,4124289104
23,13,Improv_Metronome,304,1,48,68,4124517308
23,13,Improv_Metronome,305,5,42,127,4124602764
23,13,Improv_Metronome,306,5,42,127,4125102468
23,13,Improv_Metronome,307,1,38,68,4125161684
23,13,Improv_Metronome,308,1,48,102,4125165400
23,13,Improv_Metronome,309,5,42,127,4125603088
23,13,Improv_Metronome,310,1,38,58,4125632612
23,13,Improv_Metronome,311,1,48,79,4125638496
23,13,Improv_Metronome,312,5,42,127,4126103180
23,13,Improv_Metronome,313,1,48,69,4126121780
23,13,Improv_Metronome,314,1,38,48,4126144200
23,13,Improv_Metronome,315,5,42,127,4126602604
23,13,Improv_Metronome,316,1,38,61,4126626740
23,13,Improv_Metronome,317,1,48,65,4126642952
23,13,Improv_Metronome,318,5,42,127,4127103448
23,13,Improv_Metronome,319,1,38,52,4127116740
23,13,Improv_Metronome,320,1,48,61,4127119188
23,13,Improv_Metronome,321,5,42,127,4127603168
23,13,Improv_Metronome,322,1,38,57,4127615412
23,13,Improv_Metronome,323,1,48,70,4127625644
23,13,Improv_Metronome,324,1,38,61,4128098516
23,13,Improv_Metronome,325,5,42,127,4128102812
23,13,Improv_Metronome,326,1,48,75,4128107348
23,13,Improv_Metronome,327,5,42,127,4128602328
23,13,Improv_Metronome,328,1,48,68,4128632004
23,13,Improv_Metronome,329,1,38,62,4128635868
23,13,Improv_Metronome,330,1,48,82,4129101100
23,13,Improv_Metronome,331,5,42,127,4129103140
23,13,Improv_Metronome,332,1,48,73,4129389400
23,13,Improv_Metronome,333,5,42,127,4129603044
23,13,Improv_Metronome,334,1,48,85,4129902864
23,13,Improv_Metronome,335,5,42,127,4130102588
23,13,Improv_Metronome,336,1,48,78,4130403976
23,13,Improv_Metronome,337,1,48,29,4130599104
23,13,Improv_Metronome,338,5,42,127,4130603476
23,13,Improv_Metronome,339,1,48,62,4130791052
23,13,Improv_Metronome,340,1,48,54,4130928236
23,13,Improv_Metronome,341,5,42,127,4131103208
23,13,Improv_Metronome,342,1,48,86,4131152552
23,13,Improv_Metronome,343,1,48,39,4131193396
23,13,Improv_Metronome,344,5,42,127,4131602880
23,13,Improv_Metronome,345,1,48,93,4131898784
23,13,Improv_Metronome,346,5,42,127,4132102500
23,13,Improv_Metronome,347,1,48,97,4132400944
23,13,Improv_Metronome,348,5,42,127,4132603240
23,13,Improv_Metronome,349,1,48,73,4132762040
23,13,Improv_Metronome,350,1,48,67,4132884460
23,13,Improv_Metronome,351,5,42,127,4133102840
23,13,Improv_Metronome,352,1,48,95,4133134228
23,13,Improv_Metronome,353,1,38,20,4133144012
23,13,Improv_Metronome,354,5,42,127,4133602932
23,13,Improv_Metronome,355,1,48,73,4133898540
23,13,Improv_Metronome,356,5,42,127,4134103376
23,13,Improv_Metronome,357,1,48,74,4134335780
23,13,Improv_Metronome,358,1,38,18,4134345332
23,13,Improv_Metronome,359,5,42,127,4134603248
23,13,Improv_Metronome,360,1,48,83,4134724472
23,13,Improv_Metronome,361,1,48,71,4134881776
23,13,Improv_Metronome,362,5,42,127,4135102996
23,13,Improv_Metronome,363,1,48,77,4135140148
23,13,Improv_Metronome,364,5,42,127,4135602468
23,13,Improv_Metronome,365,1,48,82,4135916468
23,13,Improv_Metronome,366,5,42,127,4136103136
23,13,Improv_Metronome,367,1,48,52,4136371436
23,13,Improv_Metronome,368,5,42,127,4136602904
23,13,Improv_Metronome,369,1,48,57,4136726076
23,13,Improv_Metronome,370,1,48,80,4136844708
23,13,Improv_Metronome,371,5,42,127,4137102876
23,13,Improv_Metronome,372,1,48,107,4137348964
23,13,Improv_Metronome,373,1,38,61,4137352312
23,13,Improv_Metronome,374,5,42,127,4137602380
23,13,Improv_Metronome,375,1,38,58,4137832084
23,13,Improv_Metronome,376,1,48,83,4137835880
23,13,Improv_Metronome,377,5,42,127,4138103148
23,13,Improv_Metronome,378,1,48,97,4138325276
23,13,Improv_Metronome,379,1,38,54,4138328856
23,13,Improv_Metronome,380,5,42,127,4138602932
23,13,Improv_Metronome,381,1,48,77,4138646068
23,13,Improv_Metronome,382,1,38,18,4138656000
23,13,Improv_Metronome,383,1,38,67,4138683800
23,13,Improv_Metronome,384,1,48,82,4138932332
23,13,Improv_Metronome,385,1,38,61,4138948164
23,13,Improv_Metronome,386,1,38,63,4139082004
23,13,Improv_Metronome,387,1,48,55,4139092380
23,13,Improv_Metronome,388,5,42,127,4139102536
23,13,Improv_Metronome,389,1,48,100,4139299784
23,13,Improv_Metronome,390,1,38,73,4139318240
23,13,Improv_Metronome,391,5,42,127,4139603236
23,13,Improv_Metronome,392,1,48,88,4139810880
23,13,Improv_Metronome,393,1,38,64,4139814076
23,13,Improv_Metronome,394,5,42,127,4140103032
23,13,Improv_Metronome,395,1,48,84,4140317708
23,13,Improv_Metronome,396,1,38,68,4140332200
23,13,Improv_Metronome,397,5,42,127,4140602976
23,13,Improv_Metronome,398,1,48,88,4140714728
23,13,Improv_Metronome,399,1,38,60,4140723688
23,13,Improv_Metronome,400,1,48,94,4140978120
23,13,Improv_Metronome,401,1,38,65,4140984612
23,13,Improv_Metronome,402,5,42,127,4141102336
23,13,Improv_Metronome,403,1,38,71,4141118316
23,13,Improv_Metronome,404,1,48,77,4141121592
23,13,Improv_Metronome,405,1,48,90,4141346180
23,13,Improv_Metronome,406,1,38,79,4141367332
23,13,Improv_Metronome,407,5,42,127,4141603032
23,13,Improv_Metronome,408,1,38,75,4141891524
23,13,Improv_Metronome,409,1,48,82,4141894728
23,13,Improv_Metronome,410,5,42,127,4142102976
23,13,Improv_Metronome,411,1,48,88,4142414808
23,13,Improv_Metronome,412,1,38,53,4142432856
23,13,Improv_Metronome,0,9999,9999,9999,9999,4072600652
23,13,Improv_Metronome,1,9999,9999,9999,9999,4073100368
23,13,Improv_Metronome,2,9999,9999,9999,9999,4073600084
23,13,Improv_Metronome,3,9999,9999,9999,9999,4074100848
23,13,Improv_Metronome,4,9999,9999,9999,9999,4074600564
23,13,Improv_Metronome,5,9999,9999,9999,9999,4075100280
23,13,Improv_Metronome,6,9999,9999,9999,9999,4075600948
23,13,Improv_Metronome,7,9999,9999,9999,9999,4076100664
23,13,Improv_Metronome,8,9999,9999,9999,9999,4076600380
23,13,Improv_Metronome,9,9999,9999,9999,9999,4077100128
23,13,Improv_Metronome,10,9999,9999,9999,9999,4077600848
23,13,Improv_Metronome,11,9999,9999,9999,9999,4078100592
23,13,Improv_Metronome,12,9999,9999,9999,9999,4078600264
23,13,Improv_Metronome,13,9999,9999,9999,9999,4079100984
23,13,Improv_Metronome,14,9999,9999,9999,9999,4079600732
23,13,Improv_Metronome,15,9999,9999,9999,9999,4080100404
23,13,Improv_Metronome,16,9999,9999,9999,9999,4080600152
23,13,Improv_Metronome,17,9999,9999,9999,9999,4081100872
23,13,Improv_Metronome,18,9999,9999,9999,9999,4081600620
23,13,Improv_Metronome,19,9999,9999,9999,9999,4082100288
23,13,Improv_Metronome,20,9999,9999,9999,9999,4082601012
23,13,Improv_Metronome,21,9999,9999,9999,9999,4083100760
23,13,Improv_Metronome,22,9999,9999,9999,9999,4083600432
23,13,Improv_Metronome,23,9999,9999,9999,9999,4084100180
23,13,Improv_Metronome,24,9999,9999,9999,9999,4084600920
23,13,Improv_Metronome,25,9999,9999,9999,9999,4085100612
23,13,Improv_Metronome,26,9999,9999,9999,9999,4085600308
23,13,Improv_Metronome,27,9999,9999,9999,9999,4086101092
23,13,Improv_Metronome,28,9999,9999,9999,9999,4086600768
23,13,Improv_Metronome,29,9999,9999,9999,9999,4087100464
23,13,Improv_Metronome,30,9999,9999,9999,9999,4087600232
23,13,Improv_Metronome,31,9999,9999,9999,9999,4088100976
23,13,Improv_Metronome,32,9999,9999,9999,9999,4088600648
23,13,Improv_Metronome,33,9999,9999,9999,9999,4089100344
23,13,Improv_Metronome,34,9999,9999,9999,9999,4089600112
23,13,Improv_Metronome,35,9999,9999,9999,9999,4090100848
23,13,Improv_Metronome,36,9999,9999,9999,9999,4090600528
23,13,Improv_Metronome,37,9999,9999,9999,9999,4091100220
23,13,Improv_Metronome,38,9999,9999,9999,9999,4091600960
23,13,Improv_Metronome,39,9999,9999,9999,9999,4092100724
23,13,Improv_Metronome,40,9999,9999,9999,9999,4092600404
23,13,Improv_Metronome,41,9999,9999,9999,9999,4093100124
23,13,Improv_Metronome,42,9999,9999,9999,9999,4093600868
23,13,Improv_Metronome,43,9999,9999,9999,9999,4094100544
23,13,Improv_Metronome,44,9999,9999,9999,9999,4094600268
23,13,Improv_Metronome,45,9999,9999,9999,9999,4095101032
23,13,Improv_Metronome,46,9999,9999,9999,9999,4095600756
23,13,Improv_Metronome,47,9999,9999,9999,9999,4096100452
23,13,Improv_Metronome,48,9999,9999,9999,9999,4096600144
23,13,Improv_Metronome,49,9999,9999,9999,9999,4097100888
23,13,Improv_Metronome,50,9999,9999,9999,9999,4097600612
23,13,Improv_Metronome,51,9999,9999,9999,9999,4098100320
23,13,Improv_Metronome,52,9999,9999,9999,9999,4098601056
23,13,Improv_Metronome,53,9999,9999,9999,9999,4099100776
23,13,Improv_Metronome,54,9999,9999,9999,9999,4099600432
23,13,Improv_Metronome,55,9999,9999,9999,9999,4100100208
23,13,Improv_Metronome,56,9999,9999,9999,9999,4100600940
23,13,Improv_Metronome,57,9999,9999,9999,9999,4101100640
23,13,Improv_Metronome,58,9999,9999,9999,9999,4101600312
23,13,Improv_Metronome,59,9999,9999,9999,9999,4102101108
23,13,Improv_Metronome,60,9999,9999,9999,9999,4102600764
23,13,Improv_Metronome,61,9999,9999,9999,9999,4103100512
23,13,Improv_Metronome,62,9999,9999,9999,9999,4103600188
23,13,Improv_Metronome,63,9999,9999,9999,9999,4104100928
23,13,Improv_Metronome,64,9999,9999,9999,9999,4104600688
23,13,Improv_Metronome,65,9999,9999,9999,9999,4105100364
23,13,Improv_Metronome,66,9999,9999,9999,9999,4105600108
23,13,Improv_Metronome,67,9999,9999,9999,9999,4106100812
23,13,Improv_Metronome,68,9999,9999,9999,9999,4106600552
23,13,Improv_Metronome,69,9999,9999,9999,9999,4107100224
23,13,Improv_Metronome,70,9999,9999,9999,9999,4107600980
23,13,Improv_Metronome,71,9999,9999,9999,9999,4108100676
23,13,Improv_Metronome,72,9999,9999,9999,9999,4108600404
23,13,Improv_Metronome,73,9999,9999,9999,9999,4109100152
23,13,Improv_Metronome,74,9999,9999,9999,9999,4109600820
23,13,Improv_Metronome,75,9999,9999,9999,9999,4110100564
23,13,Improv_Metronome,76,9999,9999,9999,9999,4110600292
23,13,Improv_Metronome,77,9999,9999,9999,9999,4111101036
23,13,Improv_Metronome,78,9999,9999,9999,9999,4111600724
23,13,Improv_Metronome,79,9999,9999,9999,9999,4112100456
23,13,Improv_Metronome,80,9999,9999,9999,9999,4112600128
23,13,Improv_Metronome,81,9999,9999,9999,9999,4113100896
23,13,Improv_Metronome,82,9999,9999,9999,9999,4113600620
23,13,Improv_Metronome,83,9999,9999,9999,9999,4114100344
23,13,Improv_Metronome,84,9999,9999,9999,9999,4114601036
23,13,Improv_Metronome,85,9999,9999,9999,9999,4115100760
23,13,Improv_Metronome,86,9999,9999,9999,9999,4115600480
23,13,Improv_Metronome,87,9999,9999,9999,9999,4116100204
23,13,Improv_Metronome,88,9999,9999,9999,9999,4116600896
23,13,Improv_Metronome,89,9999,9999,9999,9999,4117100616
23,13,Improv_Metronome,90,9999,9999,9999,9999,4117600308
23,13,Improv_Metronome,91,9999,9999,9999,9999,4118101080
23,13,Improv_Metronome,92,9999,9999,9999,9999,4118600796
23,13,Improv_Metronome,93,9999,9999,9999,9999,4119100492
23,13,Improv_Metronome,94,9999,9999,9999,9999,4119600224
23,13,Improv_Metronome,95,9999,9999,9999,9999,4120100944
23,13,Improv_Metronome,96,9999,9999,9999,9999,4120600652
23,13,Improv_Metronome,97,9999,9999,9999,9999,4121100400
23,13,Improv_Metronome,98,9999,9999,9999,9999,4121600100
23,13,Improv_Metronome,99,9999,9999,9999,9999,4122100792
23,13,Improv_Metronome,100,9999,9999,9999,9999,4122600524
23,13,Improv_Metronome,101,9999,9999,9999,9999,4123100216
23,13,Improv_Metronome,102,9999,9999,9999,9999,4123600980
23,13,Improv_Metronome,103,9999,9999,9999,9999,4124100660
23,13,Improv_Metronome,104,9999,9999,9999,9999,4124600400
23,13,Improv_Metronome,105,9999,9999,9999,9999,4125100104
23,13,Improv_Metronome,106,9999,9999,9999,9999,4125600872
23,13,Improv_Metronome,107,9999,9999,9999,9999,4126100592
23,13,Improv_Metronome,108,9999,9999,9999,9999,4126600244
23,13,Improv_Metronome,109,9999,9999,9999,9999,4127101012
23,13,Improv_Metronome,110,9999,9999,9999,9999,4127600732
23,13,Improv_Metronome,111,9999,9999,9999,9999,4128100448
23,13,Improv_Metronome,112,9999,9999,9999,9999,4128600116
23,13,Improv_Metronome,113,9999,9999,9999,9999,4129100892
23,13,Improv_Metronome,114,9999,9999,9999,9999,4129600608
23,13,Improv_Metronome,115,9999,9999,9999,9999,4130100300
23,13,Improv_Metronome,116,9999,9999,9999,9999,4130601036
23,13,Improv_Metronome,117,9999,9999,9999,9999,4131100772
23,13,Improv_Metronome,118,9999,9999,9999,9999,4131600444
23,13,Improv_Metronome,119,9999,9999,9999,9999,4132100212
23,13,Improv_Metronome,120,9999,9999,9999,9999,4132600952
23,13,Improv_Metronome,121,9999,9999,9999,9999,4133100628
23,13,Improv_Metronome,122,9999,9999,9999,9999,4133600348
23,13,Improv_Metronome,123,9999,9999,9999,9999,4134101088
23,13,Improv_Metronome,124,9999,9999,9999,9999,4134600812
23,13,Improv_Metronome,125,9999,9999,9999,9999,4135100484
23,13,Improv_Metronome,126,9999,9999,9999,9999,4135600180
23,13,Improv_Metronome,127,9999,9999,9999,9999,4136100920
23,13,Improv_Metronome,128,9999,9999,9999,9999,4136600692
23,13,Improv_Metronome,129,9999,9999,9999,9999,4137100364
23,13,Improv_Metronome,130,9999,9999,9999,9999,4137600092
23,13,Improv_Metronome,131,9999,9999,9999,9999,4138100784
23,13,Improv_Metronome,132,9999,9999,9999,9999,4138600496
23,13,Improv_Metronome,133,9999,9999,9999,9999,4139100248
23,13,Improv_Metronome,134,9999,9999,9999,9999,4139600948
23,13,Improv_Metronome,135,9999,9999,9999,9999,4140100672
23,13,Improv_Metronome,136,9999,9999,9999,9999,4140600392
23,13,Improv_Metronome,137,9999,9999,9999,9999,4141100120
23,13,Improv_Metronome,138,9999,9999,9999,9999,4141600820
23,13,Improv_Metronome,139,9999,9999,9999,9999,4142100540
24,14,Improv_Melody,0,2,48,80,4198003048
24,14,Improv_Melody,1,2,72,80,4198005208
24,14,Improv_Melody,2,5,42,127,4198007664
24,14,Improv_Melody,3,5,42,110,4198500732
24,14,Improv_Melody,4,5,42,110,4199000528
24,14,Improv_Melody,5,5,42,110,4199501344
24,14,Improv_Melody,6,5,42,127,4200000844
24,14,Improv_Melody,7,5,42,110,4200500564
24,14,Improv_Melody,8,5,42,110,4201001336
24,14,Improv_Melody,9,5,42,110,4201501204
24,14,Improv_Melody,10,2,43,80,4202003204
24,14,Improv_Melody,11,2,67,80,4202005432
24,14,Improv_Melody,12,5,42,127,4202008120
24,14,Improv_Melody,13,5,42,110,4202500440
24,14,Improv_Melody,14,5,42,110,4203001208
24,14,Improv_Melody,15,5,42,110,4203501080
24,14,Improv_Melody,16,5,42,127,4204000504
24,14,Improv_Melody,17,5,42,110,4204501420
24,14,Improv_Melody,18,5,42,110,4205000992
24,14,Improv_Melody,19,5,42,110,4205500864
24,14,Improv_Melody,20,2,45,80,4206003092
24,14,Improv_Melody,21,2,69,80,4206005016
24,14,Improv_Melody,22,5,42,127,4206007780
24,14,Improv_Melody,23,5,42,110,4206501216
24,14,Improv_Melody,24,5,42,110,4207001160
24,14,Improv_Melody,25,5,42,110,4207500588
24,14,Improv_Melody,26,5,42,127,4208001432
24,14,Improv_Melody,27,5,42,110,4208501152
24,14,Improv_Melody,28,5,42,110,4209000796
24,14,Improv_Melody,29,5,42,110,4209500444
24,14,Improv_Melody,30,2,41,80,4210003856
24,14,Improv_Melody,31,2,65,80,4210006008
24,14,Improv_Melody,32,5,42,127,4210008548
24,14,Improv_Melody,33,5,42,110,4210501060
24,14,Improv_Melody,34,5,42,110,4211000632
24,14,Improv_Melody,35,5,42,110,4211501328
24,14,Improv_Melody,36,5,42,127,4212001124
24,14,Improv_Melody,37,5,42,110,4212500920
24,14,Improv_Melody,38,5,42,110,4213000492
24,14,Improv_Melody,39,5,42,110,4213501184
24,14,Improv_Melody,40,1,48,43,4213964432
24,14,Improv_Melody,41,2,48,80,4214003328
24,14,Improv_Melody,42,2,72,80,4214005704
24,14,Improv_Melody,43,5,42,127,4214008244
24,14,Improv_Melody,44,1,48,36,4214233152
24,14,Improv_Melody,45,1,48,45,4214387684
24,14,Improv_Melody,46,5,42,110,4214500800
24,14,Improv_Melody,47,1,48,51,4214641952
24,14,Improv_Melody,48,1,48,41,4214821144
24,14,Improv_Melody,49,5,42,110,4215000552
24,14,Improv_Melody,50,1,48,47,4215090812
24,14,Improv_Melody,51,5,42,110,4215501152
24,14,Improv_Melody,52,1,48,51,4215574280
24,14,Improv_Melody,53,5,42,127,4216000852
24,14,Improv_Melody,54,1,48,57,4216057600
24,14,Improv_Melody,55,5,42,110,4216500848
24,14,Improv_Melody,56,1,48,52,4216553488
24,14,Improv_Melody,57,5,42,110,4217001372
24,14,Improv_Melody,58,1,48,54,4217032020
24,14,Improv_Melody,59,5,42,110,4217500924
24,14,Improv_Melody,60,1,48,48,4217545784
24,14,Improv_Melody,61,1,48,58,4217993020
24,14,Improv_Melody,62,2,43,80,4218003724
24,14,Improv_Melody,63,2,67,80,4218005724
24,14,Improv_Melody,64,5,42,127,4218008404
24,14,Improv_Melody,65,1,48,41,4218249248
24,14,Improv_Melody,66,1,48,57,4218365904
24,14,Improv_Melody,67,5,42,110,4218500588
24,14,Improv_Melody,68,1,48,42,4218585988
24,14,Improv_Melody,69,1,48,58,4218667048
24,14,Improv_Melody,70,1,48,56,4218957712
24,14,Improv_Melody,71,5,42,110,4219001308
24,14,Improv_Melody,72,1,48,63,4219500792
24,14,Improv_Melody,73,5,42,110,4219502280
24,14,Improv_Melody,74,5,42,127,4220000568
24,14,Improv_Melody,75,1,48,62,4220034652
24,14,Improv_Melody,76,5,42,110,4220501460
24,14,Improv_Melody,77,1,48,54,4220528216
24,14,Improv_Melody,78,1,48,52,4220997424
24,14,Improv_Melody,79,5,42,110,4221001204
24,14,Improv_Melody,80,5,42,110,4221500760
24,14,Improv_Melody,81,1,48,54,4221512184
24,14,Improv_Melody,82,2,45,80,4222003116
24,14,Improv_Melody,83,2,69,80,4222005348
24,14,Improv_Melody,84,5,42,127,4222007880
24,14,Improv_Melody,85,1,48,56,4222027080
24,14,Improv_Melody,86,1,48,49,4222284460
24,14,Improv_Melody,87,1,48,62,4222413788
24,14,Improv_Melody,88,5,42,110,4222501344
24,14,Improv_Melody,89,1,48,49,4222626692
24,14,Improv_Melody,90,1,48,60,4222758164
24,14,Improv_Melody,91,5,42,110,4223001004
24,14,Improv_Melody,92,1,48,68,4223024172
24,14,Improv_Melody,93,5,42,110,4223500780
24,14,Improv_Melody,94,1,48,70,4223527164
24,14,Improv_Melody,95,1,48,55,4223998044
24,14,Improv_Melody,96,5,42,127,4224001444
24,14,Improv_Melody,97,5,42,110,4224501076
24,14,Improv_Melody,98,1,48,55,4224545184
24,14,Improv_Melody,99,5,42,110,4225000852
24,14,Improv_Melody,100,1,48,58,4225021176
24,14,Improv_Melody,101,5,42,110,4225500624
24,14,Improv_Melody,102,1,48,50,4225531048
24,14,Improv_Melody,103,1,48,53,4225955548
24,14,Improv_Melody,104,2,41,80,4226003868
24,14,Improv_Melody,105,2,65,80,4226005796
24,14,Improv_Melody,106,5,42,127,4226008632
24,14,Improv_Melody,107,1,48,51,4226262036
24,14,Improv_Melody,108,1,48,54,4226367328
24,14,Improv_Melody,109,5,42,110,4226501112
24,14,Improv_Melody,110,1,48,59,4226614340
24,14,Improv_Melody,111,1,48,53,4226714268
24,14,Improv_Melody,112,1,48,62,4226994160
24,14,Improv_Melody,113,5,42,110,4227000560
24,14,Improv_Melody,114,5,42,110,4227501540
24,14,Improv_Melody,115,1,48,56,4227560536
24,14,Improv_Melody,116,5,42,127,4228001092
24,14,Improv_Melody,117,1,48,43,4228028448
24,14,Improv_Melody,118,1,48,42,4228495660
24,14,Improv_Melody,119,5,42,110,4228500784
24,14,Improv_Melody,120,5,42,110,4229000640
24,14,Improv_Melody,121,1,48,47,4229034500
24,14,Improv_Melody,122,5,42,110,4229501460
24,14,Improv_Melody,123,1,48,46,4229534728
24,14,Improv_Melody,124,2,48,80,4230003748
24,14,Improv_Melody,125,2,72,80,4230005740
24,14,Improv_Melody,126,5,42,127,4230008280
24,14,Improv_Melody,127,1,48,45,4230011252
24,14,Improv_Melody,128,1,38,50,4230279332
24,14,Improv_Melody,129,1,48,70,4230438476
24,14,Improv_Melody,130,5,42,110,4230500696
24,14,Improv_Melody,131,1,38,59,4230655860
24,14,Improv_Melody,132,1,48,82,4230781152
24,14,Improv_Melody,133,5,42,110,4231000508
24,14,Improv_Melody,134,1,48,80,4231038188
24,14,Improv_Melody,135,1,38,77,4231258472
24,14,Improv_Melody,136,5,42,110,4231501360
24,14,Improv_Melody,137,1,48,62,4231506820
24,14,Improv_Melody,138,1,48,64,4231790612
24,14,Improv_Melody,139,5,42,127,4232000888
24,14,Improv_Melody,140,1,48,69,4232062672
24,14,Improv_Melody,141,1,38,85,4232281084
24,14,Improv_Melody,142,1,48,66,4232422056
24,14,Improv_Melody,143,5,42,110,4232500560
24,14,Improv_Melody,144,1,38,73,4232643936
24,14,Improv_Melody,145,1,48,85,4232763212
24,14,Improv_Melody,146,5,42,110,4233001492
24,14,Improv_Melody,147,1,48,78,4233008800
24,14,Improv_Melody,148,1,48,61,4233276056
24,14,Improv_Melody,149,5,42,110,4233501168
24,14,Improv_Melody,150,1,48,54,4233542584
24,14,Improv_Melody,151,1,48,66,4233779548
24,14,Improv_Melody,152,1,48,66,4233995568
24,14,Improv_Melody,153,2,43,80,4234003420
24,14,Improv_Melody,154,2,67,80,4234005420
24,14,Improv_Melody,155,5,42,127,4234008108
24,14,Improv_Melody,156,1,38,97,4234250964
24,14,Improv_Melody,157,1,48,19,4234261340
24,14,Improv_Melody,158,1,48,89,4234380096
24,14,Improv_Melody,159,5,42,110,4234500396
24,14,Improv_Melody,160,1,38,67,4234615732
24,14,Improv_Melody,161,1,48,93,4234745560
24,14,Improv_Melody,162,5,42,110,4235001268
24,14,Improv_Melody,163,1,48,70,4235026156
24,14,Improv_Melody,164,1,48,69,4235284588
24,14,Improv_Melody,165,5,42,110,4235501168
24,14,Improv_Melody,166,1,48,70,4235544380
24,14,Improv_Melody,167,1,48,70,4235799516
24,14,Improv_Melody,168,5,42,127,4236000552
24,14,Improv_Melody,169,1,48,72,4236041668
24,14,Improv_Melody,170,1,38,84,4236273768
24,14,Improv_Melody,171,1,48,92,4236387908
24,14,Improv_Melody,172,5,42,110,4236501400
24,14,Improv_Melody,173,1,38,85,4236649804
24,14,Improv_Melody,174,1,48,33,4236677756
24,14,Improv_Melody,175,1,48,83,4236831340
24,14,Improv_Melody,176,5,42,110,4237001256
24,14,Improv_Melody,177,1,48,82,4237088076
24,14,Improv_Melody,178,1,48,63,4237342164
24,14,Improv_Melody,179,5,42,110,4237500636
24,14,Improv_Melody,180,1,48,60,4237613112
24,14,Improv_Melody,181,1,48,55,4237878116
24,14,Improv_Melody,182,2,45,80,4238003192
24,14,Improv_Melody,183,2,69,80,4238005192
24,14,Improv_Melody,184,5,42,127,4238007732
24,14,Improv_Melody,185,1,48,48,4238168180
24,14,Improv_Melody,186,1,48,83,4238400100
24,14,Improv_Melody,187,5,42,110,4238501276
24,14,Improv_Melody,188,1,38,97,4238522196
24,14,Improv_Melody,189,1,48,63,4238720340
24,14,Improv_Melody,190,1,38,73,4238814268
24,14,Improv_Melody,191,5,42,110,4239001280
24,14,Improv_Melody,192,1,48,70,4239060052
24,14,Improv_Melody,193,1,48,57,4239292148
24,14,Improv_Melody,194,5,42,110,4239500512
24,14,Improv_Melody,195,1,48,55,4239542600
24,14,Improv_Melody,196,1,48,67,4239787640
24,14,Improv_Melody,197,5,42,127,4240001460
24,14,Improv_Melody,198,1,48,67,4240039064
24,14,Improv_Melody,199,1,38,83,4240253808
24,14,Improv_Melody,200,1,48,87,4240380864
24,14,Improv_Melody,201,1,38,19,4240391020
24,14,Improv_Melody,202,5,42,110,4240501292
24,14,Improv_Melody,203,1,38,74,4240556100
24,14,Improv_Melody,204,1,48,86,4240700736
24,14,Improv_Melody,205,1,48,72,4240971724
24,14,Improv_Melody,206,5,42,110,4241000664
24,14,Improv_Melody,207,1,48,54,4241205424
24,14,Improv_Melody,208,1,48,68,4241486964
24,14,Improv_Melody,209,5,42,110,4241500392
24,14,Improv_Melody,210,1,48,63,4241776380
24,14,Improv_Melody,211,2,41,80,4242003624
24,14,Improv_Melody,212,2,65,80,4242005928
24,14,Improv_Melody,213,5,42,127,4242008468
24,14,Improv_Melody,214,1,48,69,4242037844
24,14,Improv_Melody,215,1,38,92,4242268296
24,14,Improv_Melody,216,1,48,19,4242278368
24,14,Improv_Melody,217,1,48,65,4242407200
24,14,Improv_Melody,218,5,42,110,4242501184
24,14,Improv_Melody,219,1,48,82,4242669840
24,14,Improv_Melody,220,1,38,19,4242679764
24,14,Improv_Melody,221,1,38,74,4242740632
24,14,Improv_Melody,222,5,42,110,4243000564
24,14,Improv_Melody,223,1,48,98,4243029364
24,14,Improv_Melody,224,1,48,51,4243283900
24,14,Improv_Melody,225,5,42,110,4243501436
24,14,Improv_Melody,226,1,48,61,4243533128
24,14,Improv_Melody,227,1,48,79,4243796296
24,14,Improv_Melody,228,5,42,127,4244001264
24,14,Improv_Melody,229,1,48,78,4244035572
24,14,Improv_Melody,230,1,38,90,4244270888
24,14,Improv_Melody,231,1,48,98,4244376432
24,14,Improv_Melody,232,5,42,110,4244500992
24,14,Improv_Melody,233,1,38,78,4244614316
24,14,Improv_Melody,234,1,48,79,4244767404
24,14,Improv_Melody,235,5,42,110,4245000524
24,14,Improv_Melody,236,1,48,77,4245030640
24,14,Improv_Melody,237,1,48,64,4245277180
24,14,Improv_Melody,238,5,42,110,4245501320
24,14,Improv_Melody,239,1,48,63,4245542584
24,14,Improv_Melody,240,1,48,62,4245785380
24,14,Improv_Melody,241,2,48,80,4246003496
24,14,Improv_Melody,242,2,72,80,4246005724
24,14,Improv_Melody,243,5,42,127,4246008264
24,14,Improv_Melody,244,1,38,78,4246277088
24,14,Improv_Melody,245,1,48,19,4246286424
24,14,Improv_Melody,246,5,42,110,4246500736
24,14,Improv_Melody,247,1,38,64,4246753928
24,14,Improv_Melody,248,5,42,110,4247000288
24,14,Improv_Melody,249,1,38,65,4247261780
24,14,Improv_Melody,250,5,42,110,4247501108
24,14,Improv_Melody,251,1,38,56,4247746520
24,14,Improv_Melody,252,1,38,69,4247754804
24,14,Improv_Melody,253,5,42,127,4248001008
24,14,Improv_Melody,254,1,38,71,4248260108
24,14,Improv_Melody,255,5,42,110,4248500484
24,14,Improv_Melody,256,1,38,55,4248728172
24,14,Improv_Melody,257,5,42,110,4249001380
24,14,Improv_Melody,258,1,38,65,4249011080
24,14,Improv_Melody,259,1,38,61,4249245128
24,14,Improv_Melody,260,1,38,64,4249356556
24,14,Improv_Melody,261,1,38,61,4249476828
24,14,Improv_Melody,262,5,42,110,4249501176
24,14,Improv_Melody,263,1,38,68,4249685096
24,14,Improv_Melody,264,2,43,80,4250003296
24,14,Improv_Melody,265,2,67,80,4250005748
24,14,Improv_Melody,266,5,42,127,4250008208
24,14,Improv_Melody,267,5,42,110,4250500448
24,14,Improv_Melody,268,1,38,55,4250738836
24,14,Improv_Melody,269,1,38,61,4250753324
24,14,Improv_Melody,270,5,42,110,4251001172
24,14,Improv_Melody,271,1,38,59,4251236568
24,14,Improv_Melody,272,5,42,110,4251501024
24,14,Improv_Melody,273,1,38,57,4251726220
24,14,Improv_Melody,274,5,42,127,4252000552
24,14,Improv_Melody,275,1,38,61,4252235020
24,14,Improv_Melody,276,1,48,17,4252245808
24,14,Improv_Melody,277,5,42,110,4252501336
24,14,Improv_Melody,278,1,38,55,4252711048
24,14,Improv_Melody,279,1,38,51,4252965964
24,14,Improv_Melody,280,5,42,110,4253001008
24,14,Improv_Melody,281,1,38,63,4253234960
24,14,Improv_Melody,282,1,38,61,4253306320
24,14,Improv_Melody,283,1,38,52,4253501188
24,14,Improv_Melody,284,5,42,110,4253503804
24,14,Improv_Melody,285,1,38,61,4253782736
24,14,Improv_Melody,286,2,45,80,4254003000
24,14,Improv_Melody,287,2,69,80,4254005000
24,14,Improv_Melody,288,5,42,127,4254007764
24,14,Improv_Melody,289,1,38,70,4254372060
24,14,Improv_Melody,290,1,48,18,4254381760
24,14,Improv_Melody,291,5,42,110,4254501284
24,14,Improv_Melody,292,1,38,60,4254835736
24,14,Improv_Melody,293,5,42,110,4255000908
24,14,Improv_Melody,294,1,38,62,4255280804
24,14,Improv_Melody,295,5,42,110,4255500756
24,14,Improv_Melody,296,1,38,59,4255714008
24,14,Improv_Melody,297,1,38,64,4255727752
24,14,Improv_Melody,298,5,42,127,4256001336
24,14,Improv_Melody,299,1,38,61,4256201948
24,14,Improv_Melody,300,1,38,68,4256218232
24,14,Improv_Melody,301,5,42,110,4256501236
24,14,Improv_Melody,302,1,38,67,4256707612
24,14,Improv_Melody,303,1,38,71,4256977556
24,14,Improv_Melody,304,5,42,110,4257000780
24,14,Improv_Melody,305,1,38,77,4257248048
24,14,Improv_Melody,306,1,38,73,4257316540
24,14,Improv_Melody,307,1,38,78,4257474140
24,14,Improv_Melody,308,5,42,110,4257500808
24,14,Improv_Melody,309,1,38,64,4257717788
24,14,Improv_Melody,310,2,41,80,4258003744
24,14,Improv_Melody,311,2,65,80,4258005824
24,14,Improv_Melody,312,5,42,127,4258008364
24,14,Improv_Melody,313,1,38,70,4258278232
24,14,Improv_Melody,314,5,42,110,4258500880
24,14,Improv_Melody,315,1,38,59,4258772844
24,14,Improv_Melody,316,5,42,110,4259000580
24,14,Improv_Melody,317,1,38,53,4259266644
24,14,Improv_Melody,318,1,38,72,4259278964
24,14,Improv_Melody,319,5,42,110,4259501384
24,14,Improv_Melody,320,1,38,65,4259764748
24,14,Improv_Melody,321,5,42,127,4260001008
24,14,Improv_Melody,322,1,38,69,4260245752
24,14,Improv_Melody,323,5,42,110,4260500928
24,14,Improv_Melody,324,1,38,59,4260762652
24,14,Improv_Melody,325,5,42,110,4261000852
24,14,Improv_Melody,326,1,38,69,4261012200
24,14,Improv_Melody,327,1,38,75,4261272500
24,14,Improv_Melody,328,1,38,85,4261385500
24,14,Improv_Melody,329,5,42,110,4261501260
24,14,Improv_Melody,330,1,38,65,4261528916
24,14,Improv_Melody,331,1,38,65,4261749048
24,14,Improv_Melody,332,2,48,80,4262003592
24,14,Improv_Melody,333,2,72,80,4262005520
24,14,Improv_Melody,334,5,42,127,4262008060
24,14,Improv_Melody,335,1,48,57,4262273816
24,14,Improv_Melody,336,5,42,110,4262500580
24,14,Improv_Melody,337,1,38,84,4262745916
24,14,Improv_Melody,338,1,48,77,4262755700
24,14,Improv_Melody,339,5,42,110,4263000528
24,14,Improv_Melody,340,1,38,71,4263227520
24,14,Improv_Melody,341,1,48,68,4263230716
24,14,Improv_Melody,342,5,42,110,4263501056
24,14,Improv_Melody,343,1,48,68,4263711684
24,14,Improv_Melody,344,1,38,65,4263721688
24,14,Improv_Melody,345,5,42,127,4264000780
24,14,Improv_Melody,346,1,48,69,4264231160
24,14,Improv_Melody,347,1,38,75,4264231736
24,14,Improv_Melody,348,5,42,110,4264500732
24,14,Improv_Melody,349,1,48,69,4264731788
24,14,Improv_Melody,350,1,38,75,4264739616
24,14,Improv_Melody,351,5,42,110,4265001432
24,14,Improv_Melody,352,1,48,64,4265227848
24,14,Improv_Melody,353,5,42,110,4265501056
24,14,Improv_Melody,354,1,48,76,4265506420
24,14,Improv_Melody,355,1,48,60,4265754076
24,14,Improv_Melody,356,2,43,80,4266003388
24,14,Improv_Melody,357,2,67,80,4266005388
24,14,Improv_Melody,358,5,42,127,4266008000
24,14,Improv_Melody,359,1,48,81,4266273236
24,14,Improv_Melody,360,5,42,110,4266500444
24,14,Improv_Melody,361,1,48,82,4266776300
24,14,Improv_Melody,362,5,42,110,4267001412
24,14,Improv_Melody,363,1,48,79,4267283032
24,14,Improv_Melody,364,5,42,110,4267501040
24,14,Improv_Melody,365,1,48,70,4267782508
24,14,Improv_Melody,366,5,42,127,4268000516
24,14,Improv_Melody,367,1,48,77,4268284596
24,14,Improv_Melody,368,5,42,110,4268501336
24,14,Improv_Melody,369,1,48,86,4268786540
24,14,Improv_Melody,370,5,42,110,4269001108
24,14,Improv_Melody,371,1,48,76,4269296488
24,14,Improv_Melody,372,5,42,110,4269500808
24,14,Improv_Melody,373,1,48,82,4269567432
24,14,Improv_Melody,374,1,48,84,4269806940
24,14,Improv_Melody,375,2,45,80,4270002988
24,14,Improv_Melody,376,2,69,80,4270005144
24,14,Improv_Melody,377,5,42,127,4270007756
24,14,Improv_Melody,378,1,48,63,4270325952
24,14,Improv_Melody,379,1,48,35,4270374692
24,14,Improv_Melody,380,5,42,110,4270501376
24,14,Improv_Melody,381,1,48,73,4270788904
24,14,Improv_Melody,382,5,42,110,4271001152
24,14,Improv_Melody,383,1,48,72,4271296008
24,14,Improv_Melody,384,5,42,110,4271500556
24,14,Improv_Melody,385,1,48,87,4271789128
24,14,Improv_Melody,386,5,42,127,4272001376
24,14,Improv_Melody,387,1,48,93,4272292120
24,14,Improv_Melody,388,5,42,110,4272501296
24,14,Improv_Melody,389,5,42,110,4273000944
24,14,Improv_Melody,390,1,48,78,4273218212
24,14,Improv_Melody,391,1,48,88,4273480080
24,14,Improv_Melody,392,5,42,110,4273500416
24,14,Improv_Melody,393,1,48,83,4273727768
24,14,Improv_Melody,394,2,41,80,4274003952
24,14,Improv_Melody,395,2,65,80,4274006108
24,14,Improv_Melody,396,5,42,127,4274008716
24,14,Improv_Melody,397,1,48,62,4274273876
24,14,Improv_Melody,398,1,48,72,4274407596
24,14,Improv_Melody,399,5,42,110,4274501056
24,14,Improv_Melody,400,1,48,69,4274666344
24,14,Improv_Melody,401,1,48,81,4274787376
24,14,Improv_Melody,402,5,42,110,4275000716
24,14,Improv_Melody,403,1,48,75,4275274856
24,14,Improv_Melody,404,5,42,110,4275501392
24,14,Improv_Melody,405,1,48,77,4275769396
24,14,Improv_Melody,406,5,42,127,4276001164
24,14,Improv_Melody,407,1,48,82,4276260416
24,14,Improv_Melody,408,5,42,110,4276500788
24,14,Improv_Melody,409,1,48,70,4276764304
24,14,Improv_Melody,410,5,42,110,4277000412
24,14,Improv_Melody,411,1,48,64,4277276492
24,14,Improv_Melody,412,5,42,110,4277501456
24,14,Improv_Melody,413,1,48,71,4277745376
24,14,Improv_Melody,414,2,48,80,4278003588
24,14,Improv_Melody,415,2,72,80,4278005820
24,14,Improv_Melody,416,5,42,127,4278008352
24,14,Improv_Melody,417,1,48,92,4278261924
24,14,Improv_Melody,418,1,48,61,4278378456
24,14,Improv_Melody,419,5,42,110,4278500700
24,14,Improv_Melody,420,1,48,90,4278648800
24,14,Improv_Melody,421,1,48,53,4278688876
24,14,Improv_Melody,422,1,48,69,4278780552
24,14,Improv_Melody,0,9999,9999,9999,9999,4197998664
24,14,Improv_Melody,1,9999,9999,9999,9999,4198498368
24,14,Improv_Melody,2,9999,9999,9999,9999,4198998088
24,14,Improv_Melody,3,9999,9999,9999,9999,4199498832
24,14,Improv_Melody,4,9999,9999,9999,9999,4199998552
24,14,Improv_Melody,5,9999,9999,9999,9999,4200498272
24,14,Improv_Melody,6,9999,9999,9999,9999,4200998968
24,14,Improv_Melody,7,9999,9999,9999,9999,4201498692
24,14,Improv_Melody,8,9999,9999,9999,9999,4201998412
24,14,Improv_Melody,9,9999,9999,9999,9999,4202498148
24,14,Improv_Melody,10,9999,9999,9999,9999,4202998840
24,14,Improv_Melody,11,9999,9999,9999,9999,4203498564
24,14,Improv_Melody,12,9999,9999,9999,9999,4203998284
24,14,Improv_Melody,13,9999,9999,9999,9999,4204499052
24,14,Improv_Melody,14,9999,9999,9999,9999,4204998776
24,14,Improv_Melody,15,9999,9999,9999,9999,4205498420
24,14,Improv_Melody,16,9999,9999,9999,9999,4205998144
24,14,Improv_Melody,17,9999,9999,9999,9999,4206498924
24,14,Improv_Melody,18,9999,9999,9999,9999,4206998648
24,14,Improv_Melody,19,9999,9999,9999,9999,4207498296
24,14,Improv_Melody,20,9999,9999,9999,9999,4207999064
24,14,Improv_Melody,21,9999,9999,9999,9999,4208498784
24,14,Improv_Melody,22,9999,9999,9999,9999,4208998508
24,14,Improv_Melody,23,9999,9999,9999,9999,4209498228
24,14,Improv_Melody,24,9999,9999,9999,9999,4209998896
24,14,Improv_Melody,25,9999,9999,9999,9999,4210498620
24,14,Improv_Melody,26,9999,9999,9999,9999,4210998344
24,14,Improv_Melody,27,9999,9999,9999,9999,4211499112
24,14,Improv_Melody,28,9999,9999,9999,9999,4211998832
24,14,Improv_Melody,29,9999,9999,9999,9999,4212498552
24,14,Improv_Melody,30,9999,9999,9999,9999,4212998200
24,14,Improv_Melody,31,9999,9999,9999,9999,4213498968
24,14,Improv_Melody,32,9999,9999,9999,9999,4213998684
24,14,Improv_Melody,33,9999,9999,9999,9999,4214498360
24,14,Improv_Melody,34,9999,9999,9999,9999,4214998112
24,14,Improv_Melody,35,9999,9999,9999,9999,4215498860
24,14,Improv_Melody,36,9999,9999,9999,9999,4215998560
24,14,Improv_Melody,37,9999,9999,9999,9999,4216498260
24,14,Improv_Melody,38,9999,9999,9999,9999,4216999008
24,14,Improv_Melody,39,9999,9999,9999,9999,4217498704
24,14,Improv_Melody,40,9999,9999,9999,9999,4217998400
24,14,Improv_Melody,41,9999,9999,9999,9999,4218498148
24,14,Improv_Melody,42,9999,9999,9999,9999,4218998868
24,14,Improv_Melody,43,9999,9999,9999,9999,4219498576
24,14,Improv_Melody,44,9999,9999,9999,9999,4219998276
24,14,Improv_Melody,45,9999,9999,9999,9999,4220499020
24,14,Improv_Melody,46,9999,9999,9999,9999,4220998764
24,14,Improv_Melody,47,9999,9999,9999,9999,4221498468
24,14,Improv_Melody,48,9999,9999,9999,9999,4221998168
24,14,Improv_Melody,49,9999,9999,9999,9999,4222498900
24,14,Improv_Melody,50,9999,9999,9999,9999,4222998640
24,14,Improv_Melody,51,9999,9999,9999,9999,4223498336
24,14,Improv_Melody,52,9999,9999,9999,9999,4223999080
24,14,Improv_Melody,53,9999,9999,9999,9999,4224498784
24,14,Improv_Melody,54,9999,9999,9999,9999,4224998484
24,14,Improv_Melody,55,9999,9999,9999,9999,4225498184
24,14,Improv_Melody,56,9999,9999,9999,9999,4225998924
24,14,Improv_Melody,57,9999,9999,9999,9999,4226498672
24,14,Improv_Melody,58,9999,9999,9999,9999,4226998344
24,14,Improv_Melody,59,9999,9999,9999,9999,4227499100
24,14,Improv_Melody,60,9999,9999,9999,9999,4227998800
24,14,Improv_Melody,61,9999,9999,9999,9999,4228498492
24,14,Improv_Melody,62,9999,9999,9999,9999,4228998200
24,14,Improv_Melody,63,9999,9999,9999,9999,4229498944
24,14,Improv_Melody,64,9999,9999,9999,9999,4229998644
24,14,Improv_Melody,65,9999,9999,9999,9999,4230498404
24,14,Improv_Melody,66,9999,9999,9999,9999,4230998068
24,14,Improv_Melody,67,9999,9999,9999,9999,4231498844
24,14,Improv_Melody,68,9999,9999,9999,9999,4231998524
24,14,Improv_Melody,69,9999,9999,9999,9999,4232498268
24,14,Improv_Melody,70,9999,9999,9999,9999,4232998976
24,14,Improv_Melody,71,9999,9999,9999,9999,4233498728
24,14,Improv_Melody,72,9999,9999,9999,9999,4233998400
24,14,Improv_Melody,73,9999,9999,9999,9999,4234498104
24,14,Improv_Melody,74,9999,9999,9999,9999,4234998900
24,14,Improv_Melody,75,9999,9999,9999,9999,4235498580
24,14,Improv_Melody,76,9999,9999,9999,9999,4235998260
24,14,Improv_Melody,77,9999,9999,9999,9999,4236499032
24,14,Improv_Melody,78,9999,9999,9999,9999,4236998740
24,14,Improv_Melody,79,9999,9999,9999,9999,4237498416
24,14,Improv_Melody,80,9999,9999,9999,9999,4237998172
24,14,Improv_Melody,81,9999,9999,9999,9999,4238498908
24,14,Improv_Melody,82,9999,9999,9999,9999,4238998616
24,14,Improv_Melody,83,9999,9999,9999,9999,4239498296
24,14,Improv_Melody,84,9999,9999,9999,9999,4239999092
24,14,Improv_Melody,85,9999,9999,9999,9999,4240498776
24,14,Improv_Melody,86,9999,9999,9999,9999,4240998448
24,14,Improv_Melody,87,9999,9999,9999,9999,4241498176
24,14,Improv_Melody,88,9999,9999,9999,9999,4241998904
24,14,Improv_Melody,89,9999,9999,9999,9999,4242498668
24,14,Improv_Melody,90,9999,9999,9999,9999,4242998344
24,14,Improv_Melody,91,9999,9999,9999,9999,4243499072
24,14,Improv_Melody,92,9999,9999,9999,9999,4243998824
24,14,Improv_Melody,93,9999,9999,9999,9999,4244498552
24,14,Improv_Melody,94,9999,9999,9999,9999,4244998232
24,14,Improv_Melody,95,9999,9999,9999,9999,4245498952
24,14,Improv_Melody,96,9999,9999,9999,9999,4245998704
24,14,Improv_Melody,97,9999,9999,9999,9999,4246498372
24,14,Improv_Melody,98,9999,9999,9999,9999,4246998068
24,14,Improv_Melody,99,9999,9999,9999,9999,4247498816
24,14,Improv_Melody,100,9999,9999,9999,9999,4247998568
24,14,Improv_Melody,101,9999,9999,9999,9999,4248498268
24,14,Improv_Melody,102,9999,9999,9999,9999,4248999016
24,14,Improv_Melody,103,9999,9999,9999,9999,4249498736
24,14,Improv_Melody,104,9999,9999,9999,9999,4249998424
24,14,Improv_Melody,105,9999,9999,9999,9999,4250498156
24,14,Improv_Melody,106,9999,9999,9999,9999,4250998884
24,14,Improv_Melody,107,9999,9999,9999,9999,4251498584
24,14,Improv_Melody,108,9999,9999,9999,9999,4251998260
24,14,Improv_Melody,109,9999,9999,9999,9999,4252499044
24,14,Improv_Melody,110,9999,9999,9999,9999,4252998712
24,14,Improv_Melody,111,9999,9999,9999,9999,4253498452
24,14,Improv_Melody,112,9999,9999,9999,9999,4253998128
24,14,Improv_Melody,113,9999,9999,9999,9999,4254498916
24,14,Improv_Melody,114,9999,9999,9999,9999,4254998616
24,14,Improv_Melody,115,9999,9999,9999,9999,4255498316
24,14,Improv_Melody,116,9999,9999,9999,9999,4255999044
24,14,Improv_Melody,117,9999,9999,9999,9999,4256498796
24,14,Improv_Melody,118,9999,9999,9999,9999,4256998492
24,14,Improv_Melody,119,9999,9999,9999,9999,4257498220
24,14,Improv_Melody,120,9999,9999,9999,9999,4257998952
24,14,Improv_Melody,121,9999,9999,9999,9999,4258498664
24,14,Improv_Melody,122,9999,9999,9999,9999,4258998364
24,14,Improv_Melody,123,9999,9999,9999,9999,4259499092
24,14,Improv_Melody,124,9999,9999,9999,9999,4259998792
24,14,Improv_Melody,125,9999,9999,9999,9999,4260498488
24,14,Improv_Melody,126,9999,9999,9999,9999,4260998264
24,14,Improv_Melody,127,9999,9999,9999,9999,4261498968
24,14,Improv_Melody,128,9999,9999,9999,9999,4261998648
24,14,Improv_Melody,129,9999,9999,9999,9999,4262498364
24,14,Improv_Melody,130,9999,9999,9999,9999,4262998088
24,14,Improv_Melody,131,9999,9999,9999,9999,4263498836
24,14,Improv_Melody,132,9999,9999,9999,9999,4263998564
24,14,Improv_Melody,133,9999,9999,9999,9999,4264498288
24,14,Improv_Melody,134,9999,9999,9999,9999,4264998992
24,14,Improv_Melody,135,9999,9999,9999,9999,4265498688
24,14,Improv_Melody,136,9999,9999,9999,9999,4265998440
24,14,Improv_Melody,137,9999,9999,9999,9999,4266498152
24,14,Improv_Melody,138,9999,9999,9999,9999,4266998900
24,14,Improv_Melody,139,9999,9999,9999,9999,4267498600
24,14,Improv_Melody,140,9999,9999,9999,9999,4267998300
24,14,Improv_Melody,141,9999,9999,9999,9999,4268499044
24,14,Improv_Melody,142,9999,9999,9999,9999,4268998744
24,14,Improv_Melody,143,9999,9999,9999,9999,4269498444
24,14,Improv_Melody,144,9999,9999,9999,9999,4269998196
24,14,Improv_Melody,145,9999,9999,9999,9999,4270498936
24,14,Improv_Melody,146,9999,9999,9999,9999,4270998636
24,14,Improv_Melody,147,9999,9999,9999,9999,4271498336
24,14,Improv_Melody,148,9999,9999,9999,9999,4271999084
24,14,Improv_Melody,149,9999,9999,9999,9999,4272498784
24,14,Improv_Melody,150,9999,9999,9999,9999,4272998504
24,14,Improv_Melody,151,9999,9999,9999,9999,4273498196
24,14,Improv_Melody,152,9999,9999,9999,9999,4273998932
24,14,Improv_Melody,153,9999,9999,9999,9999,4274498616
24,14,Improv_Melody,154,9999,9999,9999,9999,4274998352
24,14,Improv_Melody,155,9999,9999,9999,9999,4275499100
24,14,Improv_Melody,156,9999,9999,9999,9999,4275998796
24,14,Improv_Melody,157,9999,9999,9999,9999,4276498496
24,14,Improv_Melody,158,9999,9999,9999,9999,4276998196
24,14,Improv_Melody,159,9999,9999,9999,9999,4277498944
24,14,Improv_Melody,160,9999,9999,9999,9999,4277998640
24,14,Improv_Melody,161,9999,9999,9999,9999,4278498408
