pid,taskRunCount,taskID,taskName,i,channel,pitch,velocity,microseconds
1,1,Ticks_Pract_5,0,5,42,127,2674913680
401,1,Ticks_Pract_5,1,5,42,127,2675414368
401,1,Ticks_Pract_5,2,5,42,127,2675914084
401,1,Ticks_Pract_5,3,1,48,46,2675940092
401,1,Ticks_Pract_5,4,5,42,127,2676414000
401,1,Ticks_Pract_5,5,1,48,59,2676433500
401,1,Ticks_Pract_5,6,1,48,54,2676898768
401,1,Ticks_Pract_5,7,5,42,127,2676913540
401,1,Ticks_Pract_5,8,1,48,58,2677403472
401,1,Ticks_Pract_5,9,5,42,127,2677414132
401,1,Ticks_Pract_5,10,1,48,50,2677897344
401,1,Ticks_Pract_5,11,5,42,127,2677913828
401,1,Ticks_Pract_5,12,1,48,57,2678390076
401,1,Ticks_Pract_5,13,5,42,127,2678413744
401,1,Ticks_Pract_5,14,1,48,58,2678891340
401,1,Ticks_Pract_5,15,5,42,127,2678914412
401,1,Ticks_Pract_5,16,1,48,58,2679392608
401,1,Ticks_Pract_5,17,5,42,127,2679414032
401,1,Ticks_Pract_5,18,1,48,57,2679886688
401,1,Ticks_Pract_5,19,5,42,127,2679914024
401,1,Ticks_Pract_5,20,1,48,51,2680392748
401,1,Ticks_Pract_5,21,5,42,127,2680413644
401,1,Ticks_Pract_5,22,1,48,57,2680871768
401,1,Ticks_Pract_5,23,5,42,127,2680914212
401,1,Ticks_Pract_5,24,1,48,54,2681329852
401,1,Ticks_Pract_5,25,5,42,127,2681413908
401,1,Ticks_Pract_5,26,1,48,56,2681853480
401,1,Ticks_Pract_5,27,5,42,127,2681913824
401,1,Ticks_Pract_5,28,1,48,51,2682349660
401,1,Ticks_Pract_5,29,5,42,127,2682413368
401,1,Ticks_Pract_5,30,1,48,54,2682857208
401,1,Ticks_Pract_5,31,5,42,127,2682914012
401,1,Ticks_Pract_5,32,1,48,53,2683345308
401,1,Ticks_Pract_5,33,5,42,127,2683413856
401,1,Ticks_Pract_5,34,1,48,56,2683856368
401,1,Ticks_Pract_5,35,5,42,127,2683913772
401,1,Ticks_Pract_5,36,1,48,57,2684348064
401,1,Ticks_Pract_5,37,5,42,127,2684414516
401,1,Ticks_Pract_5,38,1,48,60,2684850600
401,1,Ticks_Pract_5,39,5,42,127,2684913912
401,1,Ticks_Pract_5,40,1,48,56,2685364052
401,1,Ticks_Pract_5,41,5,42,127,2685413756
401,1,Ticks_Pract_5,42,1,48,55,2685843928
401,1,Ticks_Pract_5,43,5,42,127,2685913600
401,1,Ticks_Pract_5,44,1,48,49,2686341976
401,1,Ticks_Pract_5,45,5,42,127,2686414040
401,1,Ticks_Pract_5,46,1,48,49,2686833748
401,1,Ticks_Pract_5,47,5,42,127,2686913884
401,1,Ticks_Pract_5,48,1,48,51,2687324688
401,1,Ticks_Pract_5,49,5,42,127,2687413580
401,1,Ticks_Pract_5,50,1,48,56,2687811068
401,1,Ticks_Pract_5,51,5,42,127,2687914604
401,1,Ticks_Pract_5,52,1,48,49,2688314504
401,1,Ticks_Pract_5,53,5,42,127,2688414000
401,1,Ticks_Pract_5,54,1,48,53,2688824216
401,1,Ticks_Pract_5,55,5,42,127,2688913636
401,1,Ticks_Pract_5,56,1,48,55,2689329228
401,1,Ticks_Pract_5,57,5,42,127,2689413404
401,1,Ticks_Pract_5,58,1,48,51,2689822684
401,1,Ticks_Pract_5,59,5,42,127,2689914296
401,1,Ticks_Pract_5,60,1,48,51,2690315648
401,1,Ticks_Pract_5,61,5,42,127,2690413900
401,1,Ticks_Pract_5,62,1,48,52,2690829632
401,1,Ticks_Pract_5,63,5,42,127,2690913688
401,1,Ticks_Pract_5,64,1,48,53,2691341668
401,1,Ticks_Pract_5,65,5,42,127,2691414352
401,1,Ticks_Pract_5,66,1,48,58,2691820644
401,1,Ticks_Pract_5,67,5,42,127,2691914268
401,1,Ticks_Pract_5,68,1,48,55,2692316972
401,1,Ticks_Pract_5,69,5,42,127,2692413668
401,1,Ticks_Pract_5,70,1,48,60,2692828408
401,1,Ticks_Pract_5,71,5,42,127,2692913508
401,1,Ticks_Pract_5,72,1,48,53,2693330196
401,1,Ticks_Pract_5,73,5,42,127,2693414372
401,1,Ticks_Pract_5,74,1,48,53,2693826224
401,1,Ticks_Pract_5,75,5,42,127,2693914368
401,1,Ticks_Pract_5,76,1,48,58,2694325692
401,1,Ticks_Pract_5,77,5,42,127,2694413764
401,1,Ticks_Pract_5,78,1,48,60,2694819260
401,1,Ticks_Pract_5,0,9999,9999,9999,2674911316
401,1,Ticks_Pract_5,1,9999,9999,9999,2675412080
401,1,Ticks_Pract_5,2,9999,9999,9999,2675911796
401,1,Ticks_Pract_5,3,9999,9999,9999,2676411492
401,1,Ticks_Pract_5,4,9999,9999,9999,2676911180
401,1,Ticks_Pract_5,5,9999,9999,9999,2677411920
401,1,Ticks_Pract_5,6,9999,9999,9999,2677911616
401,1,Ticks_Pract_5,7,9999,9999,9999,2678411384
401,1,Ticks_Pract_5,8,9999,9999,9999,2678912052
401,1,Ticks_Pract_5,9,9999,9999,9999,2679411820
401,1,Ticks_Pract_5,10,9999,9999,9999,2679911516
401,1,Ticks_Pract_5,11,9999,9999,9999,2680411212
401,1,Ticks_Pract_5,12,9999,9999,9999,2680911924
401,1,Ticks_Pract_5,13,9999,9999,9999,2681411696
401,1,Ticks_Pract_5,14,9999,9999,9999,2681911388
401,1,Ticks_Pract_5,15,9999,9999,9999,2682411084
401,1,Ticks_Pract_5,16,9999,9999,9999,2682911800
401,1,Ticks_Pract_5,17,9999,9999,9999,2683411572
401,1,Ticks_Pract_5,18,9999,9999,9999,2683911264
401,1,Ticks_Pract_5,19,9999,9999,9999,2684412004
401,1,Ticks_Pract_5,20,9999,9999,9999,2684911700
401,1,Ticks_Pract_5,21,9999,9999,9999,2685411396
401,1,Ticks_Pract_5,22,9999,9999,9999,2685911088
401,1,Ticks_Pract_5,23,9999,9999,9999,2686411828
401,1,Ticks_Pract_5,24,9999,9999,9999,2686911600
401,1,Ticks_Pract_5,25,9999,9999,9999,2687411296
401,1,Ticks_Pract_5,26,9999,9999,9999,2687912020
401,1,Ticks_Pract_5,27,9999,9999,9999,2688411716
401,1,Ticks_Pract_5,28,9999,9999,9999,2688911424
401,1,Ticks_Pract_5,29,9999,9999,9999,2689411120
401,1,Ticks_Pract_5,30,9999,9999,9999,2689911860
401,1,Ticks_Pract_5,31,9999,9999,9999,2690411588
401,1,Ticks_Pract_5,32,9999,9999,9999,2690911324
401,1,Ticks_Pract_5,33,9999,9999,9999,2691412068
401,1,Ticks_Pract_5,34,9999,9999,9999,2691911760
401,1,Ticks_Pract_5,35,9999,9999,9999,2692411456
401,1,Ticks_Pract_5,36,9999,9999,9999,2692911224
401,1,Ticks_Pract_5,37,9999,9999,9999,2693411940
401,1,Ticks_Pract_5,38,9999,9999,9999,2693911636
401,1,Ticks_Pract_5,39,9999,9999,9999,2694411328
402,0,Ticks_Pract_8,0,5,42,127,2704614900
402,0,Ticks_Pract_8,1,5,42,127,2705414656
402,0,Ticks_Pract_8,2,1,48,50,2706183104
402,0,Ticks_Pract_8,3,5,42,127,2706215176
402,0,Ticks_Pract_8,4,1,48,36,2706241696
402,0,Ticks_Pract_8,5,1,48,51,2706944892
402,0,Ticks_Pract_8,6,5,42,127,2707014964
402,0,Ticks_Pract_8,7,5,42,127,2707815000
402,0,Ticks_Pract_8,8,1,48,51,2707822612
402,0,Ticks_Pract_8,9,1,48,54,2708601828
402,0,Ticks_Pract_8,10,5,42,127,2708614428
402,0,Ticks_Pract_8,11,1,48,53,2709414764
402,0,Ticks_Pract_8,12,5,42,127,2709416552
402,0,Ticks_Pract_8,13,1,48,56,2710188584
402,0,Ticks_Pract_8,14,5,42,127,2710215092
402,0,Ticks_Pract_8,15,1,48,55,2710979716
402,0,Ticks_Pract_8,16,5,42,127,2711014752
402,0,Ticks_Pract_8,17,1,48,62,2711754460
402,0,Ticks_Pract_8,18,5,42,127,2711814556
402,0,Ticks_Pract_8,19,1,48,59,2712574912
402,0,Ticks_Pract_8,20,5,42,127,2712615212
402,0,Ticks_Pract_8,21,1,48,54,2713358192
402,0,Ticks_Pract_8,22,5,42,127,2713414948
402,0,Ticks_Pract_8,23,1,48,52,2714159152
402,0,Ticks_Pract_8,24,5,42,127,2714214756
402,0,Ticks_Pract_8,25,1,48,58,2714957916
402,0,Ticks_Pract_8,26,5,42,127,2715014492
402,0,Ticks_Pract_8,27,1,48,55,2715759212
402,0,Ticks_Pract_8,28,5,42,127,2715815568
402,0,Ticks_Pract_8,29,1,48,52,2716556560
402,0,Ticks_Pract_8,30,5,42,127,2716615004
402,0,Ticks_Pract_8,31,1,48,57,2717405876
402,0,Ticks_Pract_8,32,5,42,127,2717414664
402,0,Ticks_Pract_8,33,1,48,41,2718199328
402,0,Ticks_Pract_8,34,5,42,127,2718214544
402,0,Ticks_Pract_8,35,1,48,56,2718982080
402,0,Ticks_Pract_8,36,5,42,127,2719015500
402,0,Ticks_Pract_8,37,1,48,61,2719789100
402,0,Ticks_Pract_8,38,5,42,127,2719815232
402,0,Ticks_Pract_8,39,1,48,50,2720595188
402,0,Ticks_Pract_8,40,5,42,127,2720614816
402,0,Ticks_Pract_8,41,1,48,49,2721383700
402,0,Ticks_Pract_8,42,5,42,127,2721414548
402,0,Ticks_Pract_8,43,1,48,58,2722173632
402,0,Ticks_Pract_8,44,5,42,127,2722215328
402,0,Ticks_Pract_8,45,1,48,52,2722946668
402,0,Ticks_Pract_8,46,5,42,127,2723015136
402,0,Ticks_Pract_8,47,1,48,54,2723762332
402,0,Ticks_Pract_8,48,5,42,127,2723814944
402,0,Ticks_Pract_8,49,1,48,57,2724552560
402,0,Ticks_Pract_8,50,5,42,127,2724614456
402,0,Ticks_Pract_8,51,1,48,58,2725352748
402,0,Ticks_Pract_8,52,5,42,127,2725415260
402,0,Ticks_Pract_8,53,1,48,47,2726152852
402,0,Ticks_Pract_8,54,5,42,127,2726215288
402,0,Ticks_Pract_8,55,1,48,60,2726959344
402,0,Ticks_Pract_8,56,5,42,127,2727014876
402,0,Ticks_Pract_8,57,1,48,59,2727756604
402,0,Ticks_Pract_8,58,5,42,127,2727814536
402,0,Ticks_Pract_8,59,1,48,46,2728529120
402,0,Ticks_Pract_8,0,9999,9999,9999,2704612464
402,0,Ticks_Pract_8,1,9999,9999,9999,2705412144
402,0,Ticks_Pract_8,2,9999,9999,9999,2706212940
402,0,Ticks_Pract_8,3,9999,9999,9999,2707012676
402,0,Ticks_Pract_8,4,9999,9999,9999,2707812416
402,0,Ticks_Pract_8,5,9999,9999,9999,2708612140
402,0,Ticks_Pract_8,6,9999,9999,9999,2709412928
402,0,Ticks_Pract_8,7,9999,9999,9999,2710212656
402,0,Ticks_Pract_8,8,9999,9999,9999,2711012464
402,0,Ticks_Pract_8,9,9999,9999,9999,2711812196
402,0,Ticks_Pract_8,10,9999,9999,9999,2712612976
402,0,Ticks_Pract_8,11,9999,9999,9999,2713412660
402,0,Ticks_Pract_8,12,9999,9999,9999,2714212468
402,0,Ticks_Pract_8,13,9999,9999,9999,2715012204
402,0,Ticks_Pract_8,14,9999,9999,9999,2715812980
402,0,Ticks_Pract_8,15,9999,9999,9999,2716612716
402,0,Ticks_Pract_8,16,9999,9999,9999,2717412452
402,0,Ticks_Pract_8,17,9999,9999,9999,2718212184
402,0,Ticks_Pract_8,18,9999,9999,9999,2719012912
402,0,Ticks_Pract_8,19,9999,9999,9999,2719812720
402,0,Ticks_Pract_8,20,9999,9999,9999,2720612452
402,0,Ticks_Pract_8,21,9999,9999,9999,2721412188
402,0,Ticks_Pract_8,22,9999,9999,9999,2722212968
402,0,Ticks_Pract_8,23,9999,9999,9999,2723012700
402,0,Ticks_Pract_8,24,9999,9999,9999,2723812432
402,0,Ticks_Pract_8,25,9999,9999,9999,2724612168
402,0,Ticks_Pract_8,26,9999,9999,9999,2725412972
402,0,Ticks_Pract_8,27,9999,9999,9999,2726212704
402,0,Ticks_Pract_8,28,9999,9999,9999,2727012436
402,0,Ticks_Pract_8,29,9999,9999,9999,2727812172
403,4,T1_SMS_5,0,5,42,127,2847513936
403,4,T1_SMS_5,1,5,42,127,2848013700
403,4,T1_SMS_5,2,1,48,44,2848238544
403,4,T1_SMS_5,3,5,42,127,2848514592
403,4,T1_SMS_5,4,1,48,36,2848607720
403,4,T1_SMS_5,5,5,42,127,2849013988
403,4,T1_SMS_5,6,1,48,40,2849046956
403,4,T1_SMS_5,7,5,42,127,2849513760
403,4,T1_SMS_5,8,1,48,46,2849533480
403,4,T1_SMS_5,9,5,42,127,2850013676
403,4,T1_SMS_5,10,1,48,46,2850025244
403,4,T1_SMS_5,11,5,42,127,2850514564
403,4,T1_SMS_5,12,1,48,49,2850520232
403,4,T1_SMS_5,13,5,42,127,2851014040
403,4,T1_SMS_5,14,1,48,48,2851023968
403,4,T1_SMS_5,15,5,42,127,2851513584
403,4,T1_SMS_5,16,1,48,50,2851524708
403,4,T1_SMS_5,17,1,48,49,2851996180
403,4,T1_SMS_5,18,5,42,127,2852013644
403,4,T1_SMS_5,19,1,48,50,2852507320
403,4,T1_SMS_5,20,5,42,127,2852514236
403,4,T1_SMS_5,21,5,42,127,2853013864
403,4,T1_SMS_5,22,1,48,48,2853019596
403,4,T1_SMS_5,23,1,48,49,2853499680
403,4,T1_SMS_5,24,5,42,127,2853513700
403,4,T1_SMS_5,25,1,48,46,2853996908
403,4,T1_SMS_5,26,5,42,127,2854014592
403,4,T1_SMS_5,27,1,48,54,2854507372
403,4,T1_SMS_5,28,5,42,127,2854513916
403,4,T1_SMS_5,29,1,48,53,2854990612
403,4,T1_SMS_5,30,5,42,127,2855013760
403,4,T1_SMS_5,31,1,48,50,2855503692
403,4,T1_SMS_5,32,5,42,127,2855513604
403,4,T1_SMS_5,33,1,48,47,2855985812
403,4,T1_SMS_5,34,5,42,127,2856014048
403,4,T1_SMS_5,35,1,48,52,2856493736
403,4,T1_SMS_5,36,5,42,127,2856513964
403,4,T1_SMS_5,37,1,48,53,2857004500
403,4,T1_SMS_5,38,5,42,127,2857013736
403,4,T1_SMS_5,39,1,48,51,2857497368
403,4,T1_SMS_5,40,5,42,127,2857514476
403,4,T1_SMS_5,41,1,48,48,2857979332
403,4,T1_SMS_5,42,5,42,127,2858014020
403,4,T1_SMS_5,43,1,48,48,2858497728
403,4,T1_SMS_5,44,5,42,127,2858513768
403,4,T1_SMS_5,45,1,48,49,2858998616
403,4,T1_SMS_5,46,5,42,127,2859013536
403,4,T1_SMS_5,47,1,48,44,2859488296
403,4,T1_SMS_5,48,5,42,127,2859514280
403,4,T1_SMS_5,49,1,48,50,2859984996
403,4,T1_SMS_5,50,5,42,127,2860013900
403,4,T1_SMS_5,51,1,48,49,2860490224
403,4,T1_SMS_5,52,5,42,127,2860513592
403,4,T1_SMS_5,53,1,48,49,2860978552
403,4,T1_SMS_5,54,5,42,127,2861014408
403,4,T1_SMS_5,55,1,48,48,2861484896
403,4,T1_SMS_5,56,5,42,127,2861514252
403,4,T1_SMS_5,57,1,48,50,2861999108
403,4,T1_SMS_5,58,5,42,127,2862013800
403,4,T1_SMS_5,59,1,48,47,2862488328
403,4,T1_SMS_5,60,5,42,127,2862513496
403,4,T1_SMS_5,61,1,48,48,2863001260
403,4,T1_SMS_5,62,5,42,127,2863014236
403,4,T1_SMS_5,63,1,48,48,2863486220
403,4,T1_SMS_5,64,5,42,127,2863514152
403,4,T1_SMS_5,65,1,48,46,2863983520
403,4,T1_SMS_5,66,5,42,127,2864013552
403,4,T1_SMS_5,67,1,48,51,2864499000
403,4,T1_SMS_5,68,5,42,127,2864514516
403,4,T1_SMS_5,69,1,48,48,2864986204
403,4,T1_SMS_5,70,5,42,127,2865014360
403,4,T1_SMS_5,71,1,48,48,2865487768
403,4,T1_SMS_5,72,5,42,127,2865513756
403,4,T1_SMS_5,73,1,48,48,2866013156
403,4,T1_SMS_5,74,5,42,127,2866014944
403,4,T1_SMS_5,75,5,42,127,2866514276
403,4,T1_SMS_5,76,1,48,47,2866526524
403,4,T1_SMS_5,77,1,48,47,2867009364
403,4,T1_SMS_5,78,5,42,127,2867014188
403,4,T1_SMS_5,79,1,48,46,2867486396
403,4,T1_SMS_5,80,5,42,127,2867513808
403,4,T1_SMS_5,81,1,48,48,2868007340
403,4,T1_SMS_5,82,5,42,127,2868013280
403,4,T1_SMS_5,83,1,48,38,2868512900
403,4,T1_SMS_5,84,5,42,127,2868514692
403,4,T1_SMS_5,85,1,48,43,2869008500
403,4,T1_SMS_5,86,5,42,127,2869013992
403,4,T1_SMS_5,87,1,48,47,2869475056
403,4,T1_SMS_5,88,5,42,127,2869513612
403,4,T1_SMS_5,89,5,42,127,2870014436
403,4,T1_SMS_5,90,1,48,44,2870018976
403,4,T1_SMS_5,91,5,42,127,2870514128
403,4,T1_SMS_5,92,1,48,48,2870552632
403,4,T1_SMS_5,93,5,42,127,2871014120
403,4,T1_SMS_5,94,1,48,43,2871026896
403,4,T1_SMS_5,95,5,42,127,2871513372
403,4,T1_SMS_5,96,1,48,35,2871518440
403,4,T1_SMS_5,97,1,48,38,2872009960
403,4,T1_SMS_5,98,5,42,127,2872014180
403,4,T1_SMS_5,99,1,48,41,2872501876
403,4,T1_SMS_5,100,5,42,127,2872514024
403,4,T1_SMS_5,101,1,48,38,2873006880
403,4,T1_SMS_5,102,5,42,127,2873013572
403,4,T1_SMS_5,103,1,48,42,2873481520
403,4,T1_SMS_5,104,5,42,127,2873514464
403,4,T1_SMS_5,105,1,48,38,2873997220
403,4,T1_SMS_5,106,5,42,127,2874014008
403,4,T1_SMS_5,107,1,48,36,2874503276
403,4,T1_SMS_5,108,5,42,127,2874513928
403,4,T1_SMS_5,109,1,48,39,2874980980
403,4,T1_SMS_5,110,5,42,127,2875013624
403,4,T1_SMS_5,111,5,42,127,2875514300
403,4,T1_SMS_5,112,1,48,32,2875520712
403,4,T1_SMS_5,113,5,42,127,2876013920
403,4,T1_SMS_5,114,1,48,33,2876031848
403,4,T1_SMS_5,115,1,48,43,2876489792
403,4,T1_SMS_5,116,5,42,127,2876513680
403,4,T1_SMS_5,117,1,48,35,2876990608
403,4,T1_SMS_5,118,5,42,127,2877014496
403,4,T1_SMS_5,119,1,48,35,2877482520
403,4,T1_SMS_5,120,5,42,127,2877514268
403,4,T1_SMS_5,121,1,48,37,2877982440
403,4,T1_SMS_5,122,5,42,127,2878013888
403,4,T1_SMS_5,123,1,48,39,2878480616
403,4,T1_SMS_5,124,5,42,127,2878513956
403,4,T1_SMS_5,125,1,48,44,2878964824
403,4,T1_SMS_5,126,5,42,127,2879014176
403,4,T1_SMS_5,127,1,48,40,2879491820
403,4,T1_SMS_5,128,5,42,127,2879514384
403,4,T1_SMS_5,129,1,48,38,2879982456
403,4,T1_SMS_5,130,5,42,127,2880013608
403,4,T1_SMS_5,131,1,48,40,2880476472
403,4,T1_SMS_5,132,5,42,127,2880514276
403,4,T1_SMS_5,133,1,48,40,2880990148
403,4,T1_SMS_5,134,5,42,127,2881014044
403,4,T1_SMS_5,135,1,48,42,2881482292
403,4,T1_SMS_5,136,5,42,127,2881513964
403,4,T1_SMS_5,137,1,48,43,2881972112
403,4,T1_SMS_5,138,5,42,127,2882013736
403,4,T1_SMS_5,139,1,48,39,2882469864
403,4,T1_SMS_5,140,5,42,127,2882514548
403,4,T1_SMS_5,141,1,48,37,2882957372
403,4,T1_SMS_5,142,5,42,127,2883013948
403,4,T1_SMS_5,143,1,48,41,2883464088
403,4,T1_SMS_5,144,5,42,127,2883513640
403,4,T1_SMS_5,145,1,48,46,2883962740
403,4,T1_SMS_5,146,5,42,127,2884013564
403,4,T1_SMS_5,147,1,48,44,2884448600
403,4,T1_SMS_5,148,5,42,127,2884514004
403,4,T1_SMS_5,149,1,48,40,2884986736
403,4,T1_SMS_5,150,5,42,127,2885013848
403,4,T1_SMS_5,151,1,48,40,2885487708
403,4,T1_SMS_5,152,5,42,127,2885513620
403,4,T1_SMS_5,153,1,48,44,2885989424
403,4,T1_SMS_5,154,5,42,127,2886014432
403,4,T1_SMS_5,155,1,48,40,2886493528
403,4,T1_SMS_5,156,5,42,127,2886513980
403,4,T1_SMS_5,157,1,48,38,2886994120
403,4,T1_SMS_5,158,5,42,127,2887013752
403,4,T1_SMS_5,159,1,48,39,2887474740
403,4,T1_SMS_5,160,5,42,127,2887513668
403,4,T1_SMS_5,161,5,42,127,2888014048
403,4,T1_SMS_5,162,1,48,29,2888015384
403,4,T1_SMS_5,163,1,48,47,2888475928
403,4,T1_SMS_5,164,5,42,127,2888513808
403,4,T1_SMS_5,165,1,48,34,2888970512
403,4,T1_SMS_5,166,5,42,127,2889013652
403,4,T1_SMS_5,167,1,48,38,2889471328
403,4,T1_SMS_5,168,5,42,127,2889514468
403,4,T1_SMS_5,169,1,48,49,2889955160
403,4,T1_SMS_5,170,5,42,127,2890014312
403,4,T1_SMS_5,171,1,48,46,2890484624
403,4,T1_SMS_5,172,5,42,127,2890513760
403,4,T1_SMS_5,173,1,48,47,2890979468
403,4,T1_SMS_5,174,5,42,127,2891013456
403,4,T1_SMS_5,175,1,48,46,2891467940
403,4,T1_SMS_5,176,5,42,127,2891514196
403,4,T1_SMS_5,177,1,48,44,2891962476
403,4,T1_SMS_5,178,5,42,127,2892013892
403,4,T1_SMS_5,179,1,48,42,2892471368
403,4,T1_SMS_5,180,5,42,127,2892513588
403,4,T1_SMS_5,181,1,48,43,2892957448
403,4,T1_SMS_5,182,5,42,127,2893014404
403,4,T1_SMS_5,183,1,48,38,2893468292
403,4,T1_SMS_5,184,5,42,127,2893514248
403,4,T1_SMS_5,185,1,48,40,2893959684
403,4,T1_SMS_5,186,5,42,127,2894013792
403,4,T1_SMS_5,187,1,48,43,2894452872
403,4,T1_SMS_5,188,5,42,127,2894513564
403,4,T1_SMS_5,189,1,48,40,2894950244
403,4,T1_SMS_5,190,5,42,127,2895014232
403,4,T1_SMS_5,191,1,48,43,2895450688
403,4,T1_SMS_5,192,5,42,127,2895514072
403,4,T1_SMS_5,193,1,48,42,2895946116
403,4,T1_SMS_5,194,5,42,127,2896013696
403,4,T1_SMS_5,195,1,48,44,2896475284
403,4,T1_SMS_5,196,5,42,127,2896514360
403,4,T1_SMS_5,197,1,48,38,2896972584
403,4,T1_SMS_5,198,5,42,127,2897014356
403,4,T1_SMS_5,199,1,48,40,2897465476
403,4,T1_SMS_5,200,5,42,127,2897513976
403,4,T1_SMS_5,201,1,48,36,2897977512
403,4,T1_SMS_5,202,5,42,127,2898013520
403,4,T1_SMS_5,203,1,48,43,2898463968
403,4,T1_SMS_5,204,5,42,127,2898514188
403,4,T1_SMS_5,205,1,48,40,2898945904
403,4,T1_SMS_5,206,5,42,127,2899014036
403,4,T1_SMS_5,207,1,48,38,2899441868
403,4,T1_SMS_5,208,5,42,127,2899514024
403,4,T1_SMS_5,209,1,48,43,2899953152
403,4,T1_SMS_5,210,5,42,127,2900013348
403,4,T1_SMS_5,211,1,48,43,2900475360
403,4,T1_SMS_5,212,5,42,127,2900514088
403,4,T1_SMS_5,213,1,48,44,2900966148
403,4,T1_SMS_5,214,5,42,127,2901014056
403,4,T1_SMS_5,215,1,48,40,2901456348
403,4,T1_SMS_5,216,5,42,127,2901513452
403,4,T1_SMS_5,217,1,48,43,2901967940
403,4,T1_SMS_5,218,5,42,127,2902014268
403,4,T1_SMS_5,219,1,48,41,2902474064
403,4,T1_SMS_5,220,5,42,127,2902513964
403,4,T1_SMS_5,221,1,48,45,2902950952
403,4,T1_SMS_5,222,5,42,127,2903013884
403,4,T1_SMS_5,223,1,48,43,2903459920
403,4,T1_SMS_5,224,5,42,127,2903513432
403,4,T1_SMS_5,225,1,48,41,2903972932
403,4,T1_SMS_5,226,5,42,127,2904014248
403,4,T1_SMS_5,227,1,48,29,2904483692
403,4,T1_SMS_5,228,5,42,127,2904514092
403,4,T1_SMS_5,229,1,48,45,2904956384
403,4,T1_SMS_5,230,5,42,127,2905013716
403,4,T1_SMS_5,231,1,48,44,2905445908
403,4,T1_SMS_5,232,5,42,127,2905514456
403,4,T1_SMS_5,233,1,48,50,2905950088
403,4,T1_SMS_5,234,5,42,127,2906014076
403,4,T1_SMS_5,235,1,48,44,2906444772
403,4,T1_SMS_5,236,5,42,127,2906513772
403,4,T1_SMS_5,237,1,48,46,2906937812
403,4,T1_SMS_5,238,5,42,127,2907013468
403,4,T1_SMS_5,239,1,48,45,2907456580
403,4,T1_SMS_5,240,5,42,127,2907514132
403,4,T1_SMS_5,241,1,48,45,2907956580
403,4,T1_SMS_5,242,5,42,127,2908013904
403,4,T1_SMS_5,243,1,48,47,2908438744
403,4,T1_SMS_5,244,5,42,127,2908513744
403,4,T1_SMS_5,245,1,48,35,2908968752
403,4,T1_SMS_5,246,5,42,127,2909014712
403,4,T1_SMS_5,247,1,48,48,2909488424
403,4,T1_SMS_5,248,5,42,127,2909513960
403,4,T1_SMS_5,249,1,48,46,2909962956
403,4,T1_SMS_5,250,5,42,127,2910013652
403,4,T1_SMS_5,251,1,48,44,2910458836
403,4,T1_SMS_5,252,5,42,127,2910513720
403,4,T1_SMS_5,253,1,48,46,2910952392
403,4,T1_SMS_5,254,5,42,127,2911014240
403,4,T1_SMS_5,255,1,48,43,2911446632
403,4,T1_SMS_5,256,5,42,127,2911513932
403,4,T1_SMS_5,257,1,48,41,2911941316
403,4,T1_SMS_5,258,5,42,127,2912013680
403,4,T1_SMS_5,259,1,48,33,2912466512
403,4,T1_SMS_5,0,9999,9999,9999,2847511648
403,4,T1_SMS_5,1,9999,9999,9999,2848011340
403,4,T1_SMS_5,2,9999,9999,9999,2848512080
403,4,T1_SMS_5,3,9999,9999,9999,2849011776
403,4,T1_SMS_5,4,9999,9999,9999,2849511472
403,4,T1_SMS_5,5,9999,9999,9999,2850011240
403,4,T1_SMS_5,6,9999,9999,9999,2850511980
403,4,T1_SMS_5,7,9999,9999,9999,2851011676
403,4,T1_SMS_5,8,9999,9999,9999,2851511372
403,4,T1_SMS_5,9,9999,9999,9999,2852011060
403,4,T1_SMS_5,10,9999,9999,9999,2852511800
403,4,T1_SMS_5,11,9999,9999,9999,2853011576
403,4,T1_SMS_5,12,9999,9999,9999,2853511264
403,4,T1_SMS_5,13,9999,9999,9999,2854012008
403,4,T1_SMS_5,14,9999,9999,9999,2854511704
403,4,T1_SMS_5,15,9999,9999,9999,2855011396
403,4,T1_SMS_5,16,9999,9999,9999,2855511092
403,4,T1_SMS_5,17,9999,9999,9999,2856011836
403,4,T1_SMS_5,18,9999,9999,9999,2856511604
403,4,T1_SMS_5,19,9999,9999,9999,2857011300
403,4,T1_SMS_5,20,9999,9999,9999,2857512040
403,4,T1_SMS_5,21,9999,9999,9999,2858011736
403,4,T1_SMS_5,22,9999,9999,9999,2858511480
403,4,T1_SMS_5,23,9999,9999,9999,2859011176
403,4,T1_SMS_5,24,9999,9999,9999,2859511916
403,4,T1_SMS_5,25,9999,9999,9999,2860011612
403,4,T1_SMS_5,26,9999,9999,9999,2860511308
403,4,T1_SMS_5,27,9999,9999,9999,2861012048
403,4,T1_SMS_5,28,9999,9999,9999,2861511744
403,4,T1_SMS_5,29,9999,9999,9999,2862011512
403,4,T1_SMS_5,30,9999,9999,9999,2862511208
403,4,T1_SMS_5,31,9999,9999,9999,2863011948
403,4,T1_SMS_5,32,9999,9999,9999,2863511644
403,4,T1_SMS_5,33,9999,9999,9999,2864011340
403,4,T1_SMS_5,34,9999,9999,9999,2864512080
403,4,T1_SMS_5,35,9999,9999,9999,2865011776
403,4,T1_SMS_5,36,9999,9999,9999,2865511544
403,4,T1_SMS_5,37,9999,9999,9999,2866011248
403,4,T1_SMS_5,38,9999,9999,9999,2866511988
403,4,T1_SMS_5,39,9999,9999,9999,2867011676
403,4,T1_SMS_5,40,9999,9999,9999,2867511372
403,4,T1_SMS_5,41,9999,9999,9999,2868011068
403,4,T1_SMS_5,42,9999,9999,9999,2868511816
403,4,T1_SMS_5,43,9999,9999,9999,2869011556
403,4,T1_SMS_5,44,9999,9999,9999,2869511252
403,4,T1_SMS_5,45,9999,9999,9999,2870012000
403,4,T1_SMS_5,46,9999,9999,9999,2870511696
403,4,T1_SMS_5,47,9999,9999,9999,2871011388
403,4,T1_SMS_5,48,9999,9999,9999,2871511160
403,4,T1_SMS_5,49,9999,9999,9999,2872011896
403,4,T1_SMS_5,50,9999,9999,9999,2872511592
403,4,T1_SMS_5,51,9999,9999,9999,2873011284
403,4,T1_SMS_5,52,9999,9999,9999,2873512028
403,4,T1_SMS_5,53,9999,9999,9999,2874011724
403,4,T1_SMS_5,54,9999,9999,9999,2874511420
403,4,T1_SMS_5,55,9999,9999,9999,2875011188
403,4,T1_SMS_5,56,9999,9999,9999,2875511864
403,4,T1_SMS_5,57,9999,9999,9999,2876011632
403,4,T1_SMS_5,58,9999,9999,9999,2876511320
403,4,T1_SMS_5,59,9999,9999,9999,2877012064
403,4,T1_SMS_5,60,9999,9999,9999,2877511756
403,4,T1_SMS_5,61,9999,9999,9999,2878011452
403,4,T1_SMS_5,62,9999,9999,9999,2878511224
403,4,T1_SMS_5,63,9999,9999,9999,2879011888
403,4,T1_SMS_5,64,9999,9999,9999,2879511632
403,4,T1_SMS_5,65,9999,9999,9999,2880011324
403,4,T1_SMS_5,66,9999,9999,9999,2880512064
403,4,T1_SMS_5,67,9999,9999,9999,2881011760
403,4,T1_SMS_5,68,9999,9999,9999,2881511532
403,4,T1_SMS_5,69,9999,9999,9999,2882011224
403,4,T1_SMS_5,70,9999,9999,9999,2882511968
403,4,T1_SMS_5,71,9999,9999,9999,2883011660
403,4,T1_SMS_5,72,9999,9999,9999,2883511356
403,4,T1_SMS_5,73,9999,9999,9999,2884011128
403,4,T1_SMS_5,74,9999,9999,9999,2884511792
403,4,T1_SMS_5,75,9999,9999,9999,2885011564
403,4,T1_SMS_5,76,9999,9999,9999,2885511260
403,4,T1_SMS_5,77,9999,9999,9999,2886012000
403,4,T1_SMS_5,78,9999,9999,9999,2886511696
403,4,T1_SMS_5,79,9999,9999,9999,2887011388
403,4,T1_SMS_5,80,9999,9999,9999,2887511160
403,4,T1_SMS_5,81,9999,9999,9999,2888011836
403,4,T1_SMS_5,82,9999,9999,9999,2888511596
403,4,T1_SMS_5,83,9999,9999,9999,2889011292
403,4,T1_SMS_5,84,9999,9999,9999,2889512032
403,4,T1_SMS_5,85,9999,9999,9999,2890011728
403,4,T1_SMS_5,86,9999,9999,9999,2890511472
403,4,T1_SMS_5,87,9999,9999,9999,2891011168
403,4,T1_SMS_5,88,9999,9999,9999,2891511908
403,4,T1_SMS_5,89,9999,9999,9999,2892011604
403,4,T1_SMS_5,90,9999,9999,9999,2892511300
403,4,T1_SMS_5,91,9999,9999,9999,2893012044
403,4,T1_SMS_5,92,9999,9999,9999,2893511740
403,4,T1_SMS_5,93,9999,9999,9999,2894011508
403,4,T1_SMS_5,94,9999,9999,9999,2894511204
403,4,T1_SMS_5,95,9999,9999,9999,2895011944
403,4,T1_SMS_5,96,9999,9999,9999,2895511640
403,4,T1_SMS_5,97,9999,9999,9999,2896011332
403,4,T1_SMS_5,98,9999,9999,9999,2896512076
403,4,T1_SMS_5,99,9999,9999,9999,2897011772
403,4,T1_SMS_5,100,9999,9999,9999,2897511540
403,4,T1_SMS_5,101,9999,9999,9999,2898011236
403,4,T1_SMS_5,102,9999,9999,9999,2898511976
403,4,T1_SMS_5,103,9999,9999,9999,2899011672
403,4,T1_SMS_5,104,9999,9999,9999,2899511368
403,4,T1_SMS_5,105,9999,9999,9999,2900011064
403,4,T1_SMS_5,106,9999,9999,9999,2900511800
403,4,T1_SMS_5,107,9999,9999,9999,2901011548
403,4,T1_SMS_5,108,9999,9999,9999,2901511244
403,4,T1_SMS_5,109,9999,9999,9999,2902011984
403,4,T1_SMS_5,110,9999,9999,9999,2902511680
403,4,T1_SMS_5,111,9999,9999,9999,2903011448
403,4,T1_SMS_5,112,9999,9999,9999,2903511144
403,4,T1_SMS_5,113,9999,9999,9999,2904011888
403,4,T1_SMS_5,114,9999,9999,9999,2904511584
403,4,T1_SMS_5,115,9999,9999,9999,2905011280
403,4,T1_SMS_5,116,9999,9999,9999,2905512024
403,4,T1_SMS_5,117,9999,9999,9999,2906011716
403,4,T1_SMS_5,118,9999,9999,9999,2906511412
403,4,T1_SMS_5,119,9999,9999,9999,2907011180
403,4,T1_SMS_5,120,9999,9999,9999,2907511920
403,4,T1_SMS_5,121,9999,9999,9999,2908011616
403,4,T1_SMS_5,122,9999,9999,9999,2908511312
403,4,T1_SMS_5,123,9999,9999,9999,2909012052
403,4,T1_SMS_5,124,9999,9999,9999,2909511748
403,4,T1_SMS_5,125,9999,9999,9999,2910011440
403,4,T1_SMS_5,126,9999,9999,9999,2910511212
403,4,T1_SMS_5,127,9999,9999,9999,2911011952
403,4,T1_SMS_5,128,9999,9999,9999,2911511648
403,4,T1_SMS_5,129,9999,9999,9999,2912011316
404,2,T1_SMS_8,0,5,42,127,2963488104
404,2,T1_SMS_8,1,1,48,29,2964085608
404,2,T1_SMS_8,2,1,48,19,2964155676
404,2,T1_SMS_8,3,5,42,127,2964287964
404,2,T1_SMS_8,4,5,42,127,2965087868
404,2,T1_SMS_8,5,1,48,28,2965119856
404,2,T1_SMS_8,6,1,48,46,2965888496
404,2,T1_SMS_8,7,5,42,127,2965889984
404,2,T1_SMS_8,8,1,48,19,2965996840
404,2,T1_SMS_8,9,5,42,127,2966688136
404,2,T1_SMS_8,10,1,48,48,2966725660
404,2,T1_SMS_8,11,5,42,127,2967487792
404,2,T1_SMS_8,12,1,48,53,2967512972
404,2,T1_SMS_8,13,5,42,127,2968287824
404,2,T1_SMS_8,14,1,48,52,2968302012
404,2,T1_SMS_8,15,1,48,52,2969073452
404,2,T1_SMS_8,16,5,42,127,2969088372
404,2,T1_SMS_8,17,1,48,49,2969883084
404,2,T1_SMS_8,18,5,42,127,2969887984
404,2,T1_SMS_8,19,1,48,51,2970644296
404,2,T1_SMS_8,20,5,42,127,2970687868
404,2,T1_SMS_8,21,1,48,53,2971460484
404,2,T1_SMS_8,22,5,42,127,2971487672
404,2,T1_SMS_8,23,1,48,53,2972267476
404,2,T1_SMS_8,24,5,42,127,2972288456
404,2,T1_SMS_8,25,1,48,51,2973069304
404,2,T1_SMS_8,26,5,42,127,2973088040
404,2,T1_SMS_8,27,1,48,57,2973867544
404,2,T1_SMS_8,28,5,42,127,2973887848
404,2,T1_SMS_8,29,1,48,46,2974669744
404,2,T1_SMS_8,30,5,42,127,2974687656
404,2,T1_SMS_8,31,1,48,52,2975487540
404,2,T1_SMS_8,32,5,42,127,2975489480
404,2,T1_SMS_8,33,1,48,53,2976281728
404,2,T1_SMS_8,34,5,42,127,2976287972
404,2,T1_SMS_8,35,5,42,127,2977087712
404,2,T1_SMS_8,36,1,48,52,2977097484
404,2,T1_SMS_8,37,5,42,127,2977887592
404,2,T1_SMS_8,38,1,48,46,2977899616
404,2,T1_SMS_8,39,1,48,47,2978654820
404,2,T1_SMS_8,40,5,42,127,2978688368
404,2,T1_SMS_8,41,1,48,60,2979478940
404,2,T1_SMS_8,42,5,42,127,2979488248
404,2,T1_SMS_8,43,1,48,51,2980283156
404,2,T1_SMS_8,44,5,42,127,2980287832
404,2,T1_SMS_8,45,5,42,127,2981087572
404,2,T1_SMS_8,46,1,48,58,2981117544
404,2,T1_SMS_8,47,5,42,127,2981888352
404,2,T1_SMS_8,48,1,48,58,2981903588
404,2,T1_SMS_8,49,5,42,127,2982688188
404,2,T1_SMS_8,50,1,48,52,2982694668
404,2,T1_SMS_8,51,5,42,127,2983487844
404,2,T1_SMS_8,52,1,48,55,2983505768
404,2,T1_SMS_8,53,1,48,52,2984228672
404,2,T1_SMS_8,54,5,42,127,2984287572
404,2,T1_SMS_8,55,1,48,58,2985039028
404,2,T1_SMS_8,56,5,42,127,2985088352
404,2,T1_SMS_8,57,1,48,51,2985862172
404,2,T1_SMS_8,58,5,42,127,2985888084
404,2,T1_SMS_8,59,1,48,52,2986635948
404,2,T1_SMS_8,60,5,42,127,2986687744
404,2,T1_SMS_8,61,1,48,45,2987468220
404,2,T1_SMS_8,62,5,42,127,2987487480
404,2,T1_SMS_8,63,1,48,50,2988229136
404,2,T1_SMS_8,64,5,42,127,2988288412
404,2,T1_SMS_8,65,1,48,53,2989029096
404,2,T1_SMS_8,66,5,42,127,2989088168
404,2,T1_SMS_8,67,1,48,52,2989867672
404,2,T1_SMS_8,68,5,42,127,2989888052
404,2,T1_SMS_8,69,1,48,47,2990648336
404,2,T1_SMS_8,70,5,42,127,2990687708
404,2,T1_SMS_8,71,1,48,48,2991412240
404,2,T1_SMS_8,72,5,42,127,2991488416
404,2,T1_SMS_8,73,1,48,47,2992259988
404,2,T1_SMS_8,74,5,42,127,2992288076
404,2,T1_SMS_8,75,1,48,49,2993062640
404,2,T1_SMS_8,76,5,42,127,2993087956
404,2,T1_SMS_8,77,1,48,54,2993834100
404,2,T1_SMS_8,78,5,42,127,2993887840
404,2,T1_SMS_8,79,1,48,51,2994644752
404,2,T1_SMS_8,80,5,42,127,2994688248
404,2,T1_SMS_8,81,1,48,50,2995396692
404,2,T1_SMS_8,82,5,42,127,2995488004
404,2,T1_SMS_8,83,1,48,55,2996249332
404,2,T1_SMS_8,84,5,42,127,2996287812
404,2,T1_SMS_8,85,1,48,52,2997034628
404,2,T1_SMS_8,86,5,42,127,2997087768
404,2,T1_SMS_8,87,1,48,44,2997874904
404,2,T1_SMS_8,88,5,42,127,2997888252
404,2,T1_SMS_8,89,5,42,127,2998688140
404,2,T1_SMS_8,90,1,48,48,2998690732
404,2,T1_SMS_8,91,1,48,46,2999470332
404,2,T1_SMS_8,92,5,42,127,2999487792
404,2,T1_SMS_8,93,1,48,54,3000262036
404,2,T1_SMS_8,94,5,42,127,3000287728
404,2,T1_SMS_8,95,1,48,48,3001039036
404,2,T1_SMS_8,96,5,42,127,3001088508
404,2,T1_SMS_8,97,1,48,46,3001830912
404,2,T1_SMS_8,98,5,42,127,3001888040
404,2,T1_SMS_8,99,1,48,52,3002638648
404,2,T1_SMS_8,100,5,42,127,3002687848
404,2,T1_SMS_8,101,1,48,46,3003429428
404,2,T1_SMS_8,102,5,42,127,3003487580
404,2,T1_SMS_8,103,1,48,47,3004239408
404,2,T1_SMS_8,104,5,42,127,3004288584
404,2,T1_SMS_8,105,1,48,42,3005025604
404,2,T1_SMS_8,106,5,42,127,3005088096
404,2,T1_SMS_8,107,1,48,47,3005842544
404,2,T1_SMS_8,108,5,42,127,3005887752
404,2,T1_SMS_8,109,1,48,47,3006666432
404,2,T1_SMS_8,110,5,42,127,3006687488
404,2,T1_SMS_8,111,5,42,127,3007488496
404,2,T1_SMS_8,112,1,48,49,3007515572
404,2,T1_SMS_8,113,5,42,127,3008288108
404,2,T1_SMS_8,114,1,48,45,3008332512
404,2,T1_SMS_8,115,5,42,127,3009087840
404,2,T1_SMS_8,116,1,48,47,3009127760
404,2,T1_SMS_8,117,5,42,127,3009887500
404,2,T1_SMS_8,118,1,48,48,3009933924
404,2,T1_SMS_8,119,5,42,127,3010688428
404,2,T1_SMS_8,120,1,48,46,3010734332
404,2,T1_SMS_8,121,5,42,127,3011488160
404,2,T1_SMS_8,122,1,48,51,3011514840
404,2,T1_SMS_8,123,5,42,127,3012287820
404,2,T1_SMS_8,124,1,48,46,3012329612
404,2,T1_SMS_8,125,5,42,127,3013087480
404,2,T1_SMS_8,126,1,48,51,3013120740
404,2,T1_SMS_8,127,5,42,127,3013888408
404,2,T1_SMS_8,128,1,48,50,3013916684
404,2,T1_SMS_8,129,5,42,127,3014688092
404,2,T1_SMS_8,130,1,48,48,3014705348
404,2,T1_SMS_8,131,5,42,127,3015487748
404,2,T1_SMS_8,132,1,48,52,3015518916
404,2,T1_SMS_8,133,1,48,53,3016285432
404,2,T1_SMS_8,134,5,42,127,3016287552
404,2,T1_SMS_8,135,5,42,127,3017088340
404,2,T1_SMS_8,136,1,48,54,3017113748
404,2,T1_SMS_8,137,5,42,127,3017888072
404,2,T1_SMS_8,138,1,48,52,3017920884
404,2,T1_SMS_8,139,1,48,57,3018679236
404,2,T1_SMS_8,140,5,42,127,3018687948
404,2,T1_SMS_8,141,1,48,51,3019451892
404,2,T1_SMS_8,142,5,42,127,3019487756
404,2,T1_SMS_8,143,1,48,52,3020265160
404,2,T1_SMS_8,144,5,42,127,3020288236
404,2,T1_SMS_8,145,1,48,55,3021077412
404,2,T1_SMS_8,146,5,42,127,3021088220
404,2,T1_SMS_8,147,1,48,50,3021829700
404,2,T1_SMS_8,148,5,42,127,3021887800
404,2,T1_SMS_8,149,1,48,47,3022656380
404,2,T1_SMS_8,150,5,42,127,3022687536
404,2,T1_SMS_8,151,1,48,52,3023482148
404,2,T1_SMS_8,152,5,42,127,3023488240
404,2,T1_SMS_8,153,1,48,55,3024228924
404,2,T1_SMS_8,154,5,42,127,3024288048
404,2,T1_SMS_8,155,1,48,54,3025006212
404,2,T1_SMS_8,156,5,42,127,3025087932
404,2,T1_SMS_8,157,1,48,49,3025875212
404,2,T1_SMS_8,158,5,42,127,3025887812
404,2,T1_SMS_8,159,1,48,51,3026658572
404,2,T1_SMS_8,160,5,42,127,3026688296
404,2,T1_SMS_8,161,1,48,45,3027475604
404,2,T1_SMS_8,162,5,42,127,3027488056
404,2,T1_SMS_8,163,1,48,51,3028266288
404,2,T1_SMS_8,164,5,42,127,3028287864
404,2,T1_SMS_8,165,1,48,51,3029068868
404,2,T1_SMS_8,166,5,42,127,3029087672
404,2,T1_SMS_8,167,1,48,49,3029848328
404,2,T1_SMS_8,168,5,42,127,3029888304
404,2,T1_SMS_8,169,1,48,49,3030659504
404,2,T1_SMS_8,170,5,42,127,3030687964
404,2,T1_SMS_8,171,1,48,50,3031458640
404,2,T1_SMS_8,172,5,42,127,3031487848
404,2,T1_SMS_8,173,1,48,48,3032273408
404,2,T1_SMS_8,174,5,42,127,3032287580
404,2,T1_SMS_8,175,1,48,54,3033015696
404,2,T1_SMS_8,176,5,42,127,3033088512
404,2,T1_SMS_8,177,1,48,47,3033863000
404,2,T1_SMS_8,178,5,42,127,3033888120
404,2,T1_SMS_8,179,5,42,127,3034687784
404,2,T1_SMS_8,180,1,48,48,3034690680
404,2,T1_SMS_8,181,1,48,50,3035477680
404,2,T1_SMS_8,182,5,42,127,3035487512
404,2,T1_SMS_8,183,1,48,49,3036275612
404,2,T1_SMS_8,184,5,42,127,3036288440
404,2,T1_SMS_8,185,5,42,127,3037088032
404,2,T1_SMS_8,186,1,48,46,3037105732
404,2,T1_SMS_8,187,1,48,52,3037866256
404,2,T1_SMS_8,188,5,42,127,3037887908
404,2,T1_SMS_8,189,5,42,127,3038687572
404,2,T1_SMS_8,190,1,48,46,3038689060
404,2,T1_SMS_8,191,5,42,127,3039488576
404,2,T1_SMS_8,192,1,48,45,3039530764
404,2,T1_SMS_8,193,5,42,127,3040288260
404,2,T1_SMS_8,194,1,48,45,3040296612
404,2,T1_SMS_8,195,5,42,127,3041087848
404,2,T1_SMS_8,196,1,48,49,3041102780
404,2,T1_SMS_8,197,5,42,127,3041887656
404,2,T1_SMS_8,198,1,48,53,3041900796
404,2,T1_SMS_8,199,5,42,127,3042688436
404,2,T1_SMS_8,200,1,48,52,3042707336
404,2,T1_SMS_8,201,1,48,48,3043476304
404,2,T1_SMS_8,202,5,42,127,3043488236
404,2,T1_SMS_8,203,5,42,127,3044287756
404,2,T1_SMS_8,204,1,48,48,3044310992
404,2,T1_SMS_8,205,5,42,127,3045087564
404,2,T1_SMS_8,206,1,48,44,3045093972
404,2,T1_SMS_8,207,1,48,45,3045791068
404,2,T1_SMS_8,208,5,42,127,3045888324
404,2,T1_SMS_8,209,5,42,127,3046688104
404,2,T1_SMS_8,210,1,48,45,3046706336
404,2,T1_SMS_8,211,5,42,127,3047487836
404,2,T1_SMS_8,212,1,48,48,3047506064
404,2,T1_SMS_8,213,5,42,127,3048287568
404,2,T1_SMS_8,214,1,48,49,3048291660
404,2,T1_SMS_8,215,1,48,54,3049082176
404,2,T1_SMS_8,216,5,42,127,3049088344
404,2,T1_SMS_8,217,1,48,49,3049872560
404,2,T1_SMS_8,218,5,42,127,3049888296
404,2,T1_SMS_8,219,1,48,44,3050675580
404,2,T1_SMS_8,220,5,42,127,3050687884
404,2,T1_SMS_8,221,1,48,51,3051457592
404,2,T1_SMS_8,222,5,42,127,3051487468
404,2,T1_SMS_8,223,5,42,127,3052288476
404,2,T1_SMS_8,224,1,48,47,3052292720
404,2,T1_SMS_8,225,1,48,49,3053076756
404,2,T1_SMS_8,226,5,42,127,3053088156
404,2,T1_SMS_8,227,1,48,51,3053884184
404,2,T1_SMS_8,228,5,42,127,3053887888
404,2,T1_SMS_8,229,5,42,127,3054687852
404,2,T1_SMS_8,230,1,48,49,3054688820
404,2,T1_SMS_8,231,1,48,51,3055464428
404,2,T1_SMS_8,232,5,42,127,3055488404
404,2,T1_SMS_8,233,1,48,43,3056257440
404,2,T1_SMS_8,234,5,42,127,3056288064
404,2,T1_SMS_8,235,1,48,45,3057084844
404,2,T1_SMS_8,236,5,42,127,3057087872
404,2,T1_SMS_8,237,5,42,127,3057887684
404,2,T1_SMS_8,238,1,48,50,3057893044
404,2,T1_SMS_8,239,5,42,127,3058688316
404,2,T1_SMS_8,240,1,48,49,3058702152
404,2,T1_SMS_8,0,9999,9999,9999,2963485812
404,2,T1_SMS_8,1,9999,9999,9999,2964285520
404,2,T1_SMS_8,2,9999,9999,9999,2965085276
404,2,T1_SMS_8,3,9999,9999,9999,2965886056
404,2,T1_SMS_8,4,9999,9999,9999,2966685768
404,2,T1_SMS_8,5,9999,9999,9999,2967485500
404,2,T1_SMS_8,6,9999,9999,9999,2968285236
404,2,T1_SMS_8,7,9999,9999,9999,2969086008
404,2,T1_SMS_8,8,9999,9999,9999,2969885764
404,2,T1_SMS_8,9,9999,9999,9999,2970685500
404,2,T1_SMS_8,10,9999,9999,9999,2971485232
404,2,T1_SMS_8,11,9999,9999,9999,2972286016
404,2,T1_SMS_8,12,9999,9999,9999,2973085748
404,2,T1_SMS_8,13,9999,9999,9999,2973885556
404,2,T1_SMS_8,14,9999,9999,9999,2974685288
404,2,T1_SMS_8,15,9999,9999,9999,2975486000
404,2,T1_SMS_8,16,9999,9999,9999,2976285752
404,2,T1_SMS_8,17,9999,9999,9999,2977085496
404,2,T1_SMS_8,18,9999,9999,9999,2977885300
404,2,T1_SMS_8,19,9999,9999,9999,2978686000
404,2,T1_SMS_8,20,9999,9999,9999,2979485808
404,2,T1_SMS_8,21,9999,9999,9999,2980285540
404,2,T1_SMS_8,22,9999,9999,9999,2981085280
404,2,T1_SMS_8,23,9999,9999,9999,2981886060
404,2,T1_SMS_8,24,9999,9999,9999,2982685748
404,2,T1_SMS_8,25,9999,9999,9999,2983485552
404,2,T1_SMS_8,26,9999,9999,9999,2984285280
404,2,T1_SMS_8,27,9999,9999,9999,2985086060
404,2,T1_SMS_8,28,9999,9999,9999,2985885792
404,2,T1_SMS_8,29,9999,9999,9999,2986685528
404,2,T1_SMS_8,30,9999,9999,9999,2987485260
404,2,T1_SMS_8,31,9999,9999,9999,2988286044
404,2,T1_SMS_8,32,9999,9999,9999,2989085804
404,2,T1_SMS_8,33,9999,9999,9999,2989885536
404,2,T1_SMS_8,34,9999,9999,9999,2990685268
404,2,T1_SMS_8,35,9999,9999,9999,2991486048
404,2,T1_SMS_8,36,9999,9999,9999,2992285784
404,2,T1_SMS_8,37,9999,9999,9999,2993085516
404,2,T1_SMS_8,38,9999,9999,9999,2993885248
404,2,T1_SMS_8,39,9999,9999,9999,2994686032
404,2,T1_SMS_8,40,9999,9999,9999,2995485788
404,2,T1_SMS_8,41,9999,9999,9999,2996285520
404,2,T1_SMS_8,42,9999,9999,9999,2997085256
404,2,T1_SMS_8,43,9999,9999,9999,2997886036
404,2,T1_SMS_8,44,9999,9999,9999,2998685776
404,2,T1_SMS_8,45,9999,9999,9999,2999485500
404,2,T1_SMS_8,46,9999,9999,9999,3000285284
404,2,T1_SMS_8,47,9999,9999,9999,3001086064
404,2,T1_SMS_8,48,9999,9999,9999,3001885748
404,2,T1_SMS_8,49,9999,9999,9999,3002685556
404,2,T1_SMS_8,50,9999,9999,9999,3003485292
404,2,T1_SMS_8,51,9999,9999,9999,3004286072
404,2,T1_SMS_8,52,9999,9999,9999,3005085804
404,2,T1_SMS_8,53,9999,9999,9999,3005885536
404,2,T1_SMS_8,54,9999,9999,9999,3006685272
404,2,T1_SMS_8,55,9999,9999,9999,3007486056
404,2,T1_SMS_8,56,9999,9999,9999,3008285816
404,2,T1_SMS_8,57,9999,9999,9999,3009085548
404,2,T1_SMS_8,58,9999,9999,9999,3009885284
404,2,T1_SMS_8,59,9999,9999,9999,3010686064
404,2,T1_SMS_8,60,9999,9999,9999,3011485796
404,2,T1_SMS_8,61,9999,9999,9999,3012285528
404,2,T1_SMS_8,62,9999,9999,9999,3013085264
404,2,T1_SMS_8,63,9999,9999,9999,3013886040
404,2,T1_SMS_8,64,9999,9999,9999,3014685800
404,2,T1_SMS_8,65,9999,9999,9999,3015485532
404,2,T1_SMS_8,66,9999,9999,9999,3016285304
404,2,T1_SMS_8,67,9999,9999,9999,3017086048
404,2,T1_SMS_8,68,9999,9999,9999,3017885780
404,2,T1_SMS_8,69,9999,9999,9999,3018685508
404,2,T1_SMS_8,70,9999,9999,9999,3019485240
404,2,T1_SMS_8,71,9999,9999,9999,3020286020
404,2,T1_SMS_8,72,9999,9999,9999,3021085780
404,2,T1_SMS_8,73,9999,9999,9999,3021885512
404,2,T1_SMS_8,74,9999,9999,9999,3022685244
404,2,T1_SMS_8,75,9999,9999,9999,3023486024
404,2,T1_SMS_8,76,9999,9999,9999,3024285756
404,2,T1_SMS_8,77,9999,9999,9999,3025085492
404,2,T1_SMS_8,78,9999,9999,9999,3025885300
404,2,T1_SMS_8,79,9999,9999,9999,3026686004
404,2,T1_SMS_8,80,9999,9999,9999,3027485764
404,2,T1_SMS_8,81,9999,9999,9999,3028285500
404,2,T1_SMS_8,82,9999,9999,9999,3029085232
404,2,T1_SMS_8,83,9999,9999,9999,3029886012
404,2,T1_SMS_8,84,9999,9999,9999,3030685744
404,2,T1_SMS_8,85,9999,9999,9999,3031485552
404,2,T1_SMS_8,86,9999,9999,9999,3032285288
404,2,T1_SMS_8,87,9999,9999,9999,3033086072
404,2,T1_SMS_8,88,9999,9999,9999,3033885752
404,2,T1_SMS_8,89,9999,9999,9999,3034685492
404,2,T1_SMS_8,90,9999,9999,9999,3035485296
404,2,T1_SMS_8,91,9999,9999,9999,3036286000
404,2,T1_SMS_8,92,9999,9999,9999,3037085816
404,2,T1_SMS_8,93,9999,9999,9999,3037885540
404,2,T1_SMS_8,94,9999,9999,9999,3038685280
404,2,T1_SMS_8,95,9999,9999,9999,3039486060
404,2,T1_SMS_8,96,9999,9999,9999,3040285748
404,2,T1_SMS_8,97,9999,9999,9999,3041085556
404,2,T1_SMS_8,98,9999,9999,9999,3041885288
404,2,T1_SMS_8,99,9999,9999,9999,3042686068
404,2,T1_SMS_8,100,9999,9999,9999,3043485796
404,2,T1_SMS_8,101,9999,9999,9999,3044285540
404,2,T1_SMS_8,102,9999,9999,9999,3045085272
404,2,T1_SMS_8,103,9999,9999,9999,3045886032
404,2,T1_SMS_8,104,9999,9999,9999,3046685812
404,2,T1_SMS_8,105,9999,9999,9999,3047485544
404,2,T1_SMS_8,106,9999,9999,9999,3048285276
404,2,T1_SMS_8,107,9999,9999,9999,3049086052
404,2,T1_SMS_8,108,9999,9999,9999,3049885784
404,2,T1_SMS_8,109,9999,9999,9999,3050685516
404,2,T1_SMS_8,110,9999,9999,9999,3051485248
404,2,T1_SMS_8,111,9999,9999,9999,3052286036
404,2,T1_SMS_8,112,9999,9999,9999,3053085792
404,2,T1_SMS_8,113,9999,9999,9999,3053885524
404,2,T1_SMS_8,114,9999,9999,9999,3054685264
404,2,T1_SMS_8,115,9999,9999,9999,3055486036
404,2,T1_SMS_8,116,9999,9999,9999,3056285772
404,2,T1_SMS_8,117,9999,9999,9999,3057085508
404,2,T1_SMS_8,118,9999,9999,9999,3057885244
404,2,T1_SMS_8,119,9999,9999,9999,3058686024
405,10,Ticks_ISO_T2_5,0,5,42,127,3069888884
405,10,Ticks_ISO_T2_5,1,5,42,127,3070388672
405,10,Ticks_ISO_T2_5,2,1,48,32,3070667896
405,10,Ticks_ISO_T2_5,3,5,42,127,3070889416
405,10,Ticks_ISO_T2_5,4,1,48,40,3071185464
405,10,Ticks_ISO_T2_5,5,5,42,127,3071389256
405,10,Ticks_ISO_T2_5,6,1,48,42,3071863276
405,10,Ticks_ISO_T2_5,7,5,42,127,3071888744
405,10,Ticks_ISO_T2_5,8,1,48,51,3072350180
405,10,Ticks_ISO_T2_5,9,5,42,127,3072388440
405,10,Ticks_ISO_T2_5,10,1,48,52,3072859452
405,10,Ticks_ISO_T2_5,11,5,42,127,3072889476
405,10,Ticks_ISO_T2_5,12,1,48,53,3073377244
405,10,Ticks_ISO_T2_5,13,5,42,127,3073388800
405,10,Ticks_ISO_T2_5,14,5,42,127,3073888576
405,10,Ticks_ISO_T2_5,15,1,48,57,3073893416
405,10,Ticks_ISO_T2_5,16,5,42,127,3074389392
405,10,Ticks_ISO_T2_5,17,1,48,55,3074398348
405,10,Ticks_ISO_T2_5,18,1,48,54,3074887344
405,10,Ticks_ISO_T2_5,19,5,42,127,3074889152
405,10,Ticks_ISO_T2_5,20,1,48,52,3075387264
405,10,Ticks_ISO_T2_5,21,5,42,127,3075389220
405,10,Ticks_ISO_T2_5,22,1,48,54,3075870784
405,10,Ticks_ISO_T2_5,23,5,42,127,3075888468
405,10,Ticks_ISO_T2_5,24,1,48,53,3076388316
405,10,Ticks_ISO_T2_5,25,5,42,127,3076390184
405,10,Ticks_ISO_T2_5,26,5,42,127,3076889360
405,10,Ticks_ISO_T2_5,27,1,48,49,3076901156
405,10,Ticks_ISO_T2_5,28,5,42,127,3077388824
405,10,Ticks_ISO_T2_5,29,1,48,53,3077395232
405,10,Ticks_ISO_T2_5,30,5,42,127,3077889392
405,10,Ticks_ISO_T2_5,31,1,48,48,3077893028
405,10,Ticks_ISO_T2_5,32,5,42,127,3078389160
405,10,Ticks_ISO_T2_5,33,1,48,51,3078408584
405,10,Ticks_ISO_T2_5,34,5,42,127,3078888704
405,10,Ticks_ISO_T2_5,35,1,48,47,3078899752
405,10,Ticks_ISO_T2_5,36,5,42,127,3079388472
405,10,Ticks_ISO_T2_5,37,1,48,51,3079404228
405,10,Ticks_ISO_T2_5,38,1,48,47,3079887848
405,10,Ticks_ISO_T2_5,39,5,42,127,3079889356
405,10,Ticks_ISO_T2_5,40,1,48,43,3080387240
405,10,Ticks_ISO_T2_5,41,5,42,127,3080389124
405,10,Ticks_ISO_T2_5,42,5,42,127,3080888600
405,10,Ticks_ISO_T2_5,43,1,48,47,3080894712
405,10,Ticks_ISO_T2_5,44,5,42,127,3081389416
405,10,Ticks_ISO_T2_5,45,1,48,47,3081398672
405,10,Ticks_ISO_T2_5,46,1,48,50,3081887220
405,10,Ticks_ISO_T2_5,47,5,42,127,3081889108
405,10,Ticks_ISO_T2_5,48,5,42,127,3082389032
405,10,Ticks_ISO_T2_5,49,1,48,44,3082391628
405,10,Ticks_ISO_T2_5,50,5,42,127,3082888504
405,10,Ticks_ISO_T2_5,51,1,48,47,3082920492
405,10,Ticks_ISO_T2_5,52,5,42,127,3083389168
405,10,Ticks_ISO_T2_5,53,1,48,45,3083402980
405,10,Ticks_ISO_T2_5,54,1,48,36,3083872664
405,10,Ticks_ISO_T2_5,55,5,42,127,3083889080
405,10,Ticks_ISO_T2_5,56,5,42,127,3084388708
405,10,Ticks_ISO_T2_5,57,1,48,51,3084397508
405,10,Ticks_ISO_T2_5,58,5,42,127,3084888404
405,10,Ticks_ISO_T2_5,59,1,48,41,3084896684
405,10,Ticks_ISO_T2_5,60,1,48,50,3085389072
405,10,Ticks_ISO_T2_5,61,5,42,127,3085390936
405,10,Ticks_ISO_T2_5,62,1,48,50,3085876080
405,10,Ticks_ISO_T2_5,63,5,42,127,3085888984
405,10,Ticks_ISO_T2_5,64,5,42,127,3086388760
405,10,Ticks_ISO_T2_5,65,1,48,46,3086390168
405,10,Ticks_ISO_T2_5,66,1,48,52,3086868216
405,10,Ticks_ISO_T2_5,67,5,42,127,3086889268
405,10,Ticks_ISO_T2_5,68,5,42,127,3087388972
405,10,Ticks_ISO_T2_5,69,1,48,48,3087396052
405,10,Ticks_ISO_T2_5,70,5,42,127,3087888888
405,10,Ticks_ISO_T2_5,71,1,48,50,3087903976
405,10,Ticks_ISO_T2_5,72,5,42,127,3088388336
405,10,Ticks_ISO_T2_5,73,1,48,49,3088404568
405,10,Ticks_ISO_T2_5,74,5,42,127,3088889300
405,10,Ticks_ISO_T2_5,75,1,48,51,3088894660
405,10,Ticks_ISO_T2_5,76,5,42,127,3089388844
405,10,Ticks_ISO_T2_5,77,1,48,54,3089395252
405,10,Ticks_ISO_T2_5,78,5,42,127,3089888912
405,10,Ticks_ISO_T2_5,79,1,48,52,3089898768
405,10,Ticks_ISO_T2_5,80,1,48,47,3090377052
405,10,Ticks_ISO_T2_5,81,5,42,127,3090389572
405,10,Ticks_ISO_T2_5,82,5,42,127,3090888976
405,10,Ticks_ISO_T2_5,83,1,48,50,3090893068
405,10,Ticks_ISO_T2_5,84,5,42,127,3091388820
405,10,Ticks_ISO_T2_5,85,1,48,37,3091391788
405,10,Ticks_ISO_T2_5,86,5,42,127,3091888588
405,10,Ticks_ISO_T2_5,87,1,48,49,3091899784
405,10,Ticks_ISO_T2_5,88,1,48,47,3092366924
405,10,Ticks_ISO_T2_5,89,5,42,127,3092389100
405,10,Ticks_ISO_T2_5,90,1,48,48,3092861676
405,10,Ticks_ISO_T2_5,91,5,42,127,3092888792
405,10,Ticks_ISO_T2_5,92,1,48,54,3093359204
405,10,Ticks_ISO_T2_5,93,5,42,127,3093388560
405,10,Ticks_ISO_T2_5,94,1,48,49,3093864584
405,10,Ticks_ISO_T2_5,95,5,42,127,3093889524
405,10,Ticks_ISO_T2_5,96,1,48,44,3094364576
405,10,Ticks_ISO_T2_5,97,5,42,127,3094389220
405,10,Ticks_ISO_T2_5,98,1,48,50,3094860836
405,10,Ticks_ISO_T2_5,99,5,42,127,3094888840
405,10,Ticks_ISO_T2_5,100,1,48,49,3095356108
405,10,Ticks_ISO_T2_5,101,5,42,127,3095388460
405,10,Ticks_ISO_T2_5,102,1,48,47,3095856632
405,10,Ticks_ISO_T2_5,103,5,42,127,3095889200
405,10,Ticks_ISO_T2_5,104,1,48,50,3096366124
405,10,Ticks_ISO_T2_5,105,5,42,127,3096389044
405,10,Ticks_ISO_T2_5,106,1,48,51,3096858788
405,10,Ticks_ISO_T2_5,107,5,42,127,3096888664
405,10,Ticks_ISO_T2_5,108,1,48,47,3097343420
405,10,Ticks_ISO_T2_5,109,5,42,127,3097389556
405,10,Ticks_ISO_T2_5,110,1,48,44,3097864284
405,10,Ticks_ISO_T2_5,111,5,42,127,3097889252
405,10,Ticks_ISO_T2_5,112,1,48,48,3098370560
405,10,Ticks_ISO_T2_5,113,5,42,127,3098388868
405,10,Ticks_ISO_T2_5,114,1,48,45,3098881252
405,10,Ticks_ISO_T2_5,115,5,42,127,3098888464
405,10,Ticks_ISO_T2_5,116,1,48,47,3099368456
405,10,Ticks_ISO_T2_5,117,5,42,127,3099389580
405,10,Ticks_ISO_T2_5,118,5,42,127,3099888908
405,10,Ticks_ISO_T2_5,119,1,48,48,3099890248
405,10,Ticks_ISO_T2_5,120,1,48,46,3100368816
405,10,Ticks_ISO_T2_5,121,5,42,127,3100388672
405,10,Ticks_ISO_T2_5,122,5,42,127,3100888524
405,10,Ticks_ISO_T2_5,123,1,48,47,3100889488
405,10,Ticks_ISO_T2_5,124,5,42,127,3101389188
405,10,Ticks_ISO_T2_5,125,1,48,49,3101411456
405,10,Ticks_ISO_T2_5,126,5,42,127,3101888808
405,10,Ticks_ISO_T2_5,127,1,48,48,3101906732
405,10,Ticks_ISO_T2_5,128,1,48,49,3102386380
405,10,Ticks_ISO_T2_5,129,5,42,127,3102388496
405,10,Ticks_ISO_T2_5,130,1,48,47,3102864068
405,10,Ticks_ISO_T2_5,131,5,42,127,3102889460
405,10,Ticks_ISO_T2_5,132,1,48,50,3103375204
405,10,Ticks_ISO_T2_5,133,5,42,127,3103389156
405,10,Ticks_ISO_T2_5,134,1,48,45,3103879088
405,10,Ticks_ISO_T2_5,135,5,42,127,3103888776
405,10,Ticks_ISO_T2_5,136,1,48,46,3104378708
405,10,Ticks_ISO_T2_5,137,5,42,127,3104388468
405,10,Ticks_ISO_T2_5,138,1,48,43,3104851552
405,10,Ticks_ISO_T2_5,139,5,42,127,3104889360
405,10,Ticks_ISO_T2_5,140,1,48,50,3105363440
405,10,Ticks_ISO_T2_5,141,5,42,127,3105388832
405,10,Ticks_ISO_T2_5,142,5,42,127,3105888684
405,10,Ticks_ISO_T2_5,143,1,48,36,3105898684
405,10,Ticks_ISO_T2_5,144,1,48,46,3106369112
405,10,Ticks_ISO_T2_5,145,5,42,127,3106389344
405,10,Ticks_ISO_T2_5,146,1,48,50,3106859460
405,10,Ticks_ISO_T2_5,147,5,42,127,3106889188
405,10,Ticks_ISO_T2_5,148,5,42,127,3107388740
405,10,Ticks_ISO_T2_5,149,1,48,52,3107397244
405,10,Ticks_ISO_T2_5,150,5,42,127,3107888364
405,10,Ticks_ISO_T2_5,151,1,48,51,3107896188
405,10,Ticks_ISO_T2_5,152,5,42,127,3108389180
405,10,Ticks_ISO_T2_5,153,1,48,48,3108397536
405,10,Ticks_ISO_T2_5,154,5,42,127,3108888872
405,10,Ticks_ISO_T2_5,155,1,48,46,3108891540
405,10,Ticks_ISO_T2_5,156,5,42,127,3109388568
405,10,Ticks_ISO_T2_5,157,1,48,39,3109424300
405,10,Ticks_ISO_T2_5,158,1,48,50,3109885948
405,10,Ticks_ISO_T2_5,159,5,42,127,3109889504
405,10,Ticks_ISO_T2_5,160,1,48,47,3110364480
405,10,Ticks_ISO_T2_5,161,5,42,127,3110389048
405,10,Ticks_ISO_T2_5,162,1,48,51,3110881972
405,10,Ticks_ISO_T2_5,163,5,42,127,3110888668
405,10,Ticks_ISO_T2_5,164,1,48,46,3111382936
405,10,Ticks_ISO_T2_5,165,5,42,127,3111388584
405,10,Ticks_ISO_T2_5,166,1,48,43,3111885924
405,10,Ticks_ISO_T2_5,167,5,42,127,3111889252
405,10,Ticks_ISO_T2_5,168,5,42,127,3112389176
405,10,Ticks_ISO_T2_5,169,1,48,52,3112394164
405,10,Ticks_ISO_T2_5,170,5,42,127,3112888648
405,10,Ticks_ISO_T2_5,171,1,48,40,3112899992
405,10,Ticks_ISO_T2_5,172,1,48,50,3113383364
405,10,Ticks_ISO_T2_5,173,5,42,127,3113389308
405,10,Ticks_ISO_T2_5,174,1,48,47,3113876924
405,10,Ticks_ISO_T2_5,175,5,42,127,3113889152
405,10,Ticks_ISO_T2_5,176,5,42,127,3114388780
405,10,Ticks_ISO_T2_5,177,1,48,50,3114389816
405,10,Ticks_ISO_T2_5,178,1,48,52,3114881028
405,10,Ticks_ISO_T2_5,179,5,42,127,3114888540
405,10,Ticks_ISO_T2_5,180,5,42,127,3115389436
405,10,Ticks_ISO_T2_5,181,1,48,48,3115395916
405,10,Ticks_ISO_T2_5,182,1,48,51,3115874508
405,10,Ticks_ISO_T2_5,183,5,42,127,3115888904
405,10,Ticks_ISO_T2_5,184,1,48,49,3116366492
405,10,Ticks_ISO_T2_5,185,5,42,127,3116388968
405,10,Ticks_ISO_T2_5,186,1,48,51,3116867764
405,10,Ticks_ISO_T2_5,187,5,42,127,3116888292
405,10,Ticks_ISO_T2_5,188,1,48,50,3117356240
405,10,Ticks_ISO_T2_5,189,5,42,127,3117389184
405,10,Ticks_ISO_T2_5,190,1,48,47,3117863932
405,10,Ticks_ISO_T2_5,191,5,42,127,3117888956
405,10,Ticks_ISO_T2_5,192,1,48,49,3118378144
405,10,Ticks_ISO_T2_5,193,5,42,127,3118388872
405,10,Ticks_ISO_T2_5,194,1,48,47,3118875744
405,10,Ticks_ISO_T2_5,195,5,42,127,3118889392
405,10,Ticks_ISO_T2_5,196,1,48,39,3119368384
405,10,Ticks_ISO_T2_5,197,5,42,127,3119389012
405,10,Ticks_ISO_T2_5,198,1,48,46,3119846084
405,10,Ticks_ISO_T2_5,199,5,42,127,3119889004
405,10,Ticks_ISO_T2_5,200,1,48,51,3120366804
405,10,Ticks_ISO_T2_5,201,5,42,127,3120388452
405,10,Ticks_ISO_T2_5,202,1,48,47,3120844720
405,10,Ticks_ISO_T2_5,203,5,42,127,3120889192
405,10,Ticks_ISO_T2_5,204,1,48,54,3121360872
405,10,Ticks_ISO_T2_5,205,5,42,127,3121388884
405,10,Ticks_ISO_T2_5,206,1,48,48,3121888208
405,10,Ticks_ISO_T2_5,207,5,42,127,3121889924
405,10,Ticks_ISO_T2_5,208,1,48,45,3122380984
405,10,Ticks_ISO_T2_5,209,5,42,127,3122389248
405,10,Ticks_ISO_T2_5,210,1,48,46,3122885764
405,10,Ticks_ISO_T2_5,211,5,42,127,3122889016
405,10,Ticks_ISO_T2_5,212,1,48,51,3123385228
405,10,Ticks_ISO_T2_5,213,5,42,127,3123388860
405,10,Ticks_ISO_T2_5,214,5,42,127,3123888708
405,10,Ticks_ISO_T2_5,215,1,48,45,3123890276
405,10,Ticks_ISO_T2_5,216,5,42,127,3124389156
405,10,Ticks_ISO_T2_5,217,1,48,47,3124393244
405,10,Ticks_ISO_T2_5,218,5,42,127,3124888924
405,10,Ticks_ISO_T2_5,219,1,48,46,3124906996
405,10,Ticks_ISO_T2_5,220,1,48,45,3125383416
405,10,Ticks_ISO_T2_5,221,5,42,127,3125388684
405,10,Ticks_ISO_T2_5,222,1,48,38,3125866952
405,10,Ticks_ISO_T2_5,223,5,42,127,3125889576
405,10,Ticks_ISO_T2_5,224,5,42,127,3126389204
405,10,Ticks_ISO_T2_5,225,1,48,46,3126401296
405,10,Ticks_ISO_T2_5,226,5,42,127,3126888824
405,10,Ticks_ISO_T2_5,227,1,48,49,3126913484
405,10,Ticks_ISO_T2_5,228,5,42,127,3127388668
405,10,Ticks_ISO_T2_5,229,1,48,48,3127408692
405,10,Ticks_ISO_T2_5,230,1,48,47,3127869244
405,10,Ticks_ISO_T2_5,231,5,42,127,3127889548
405,10,Ticks_ISO_T2_5,232,5,42,127,3128389028
405,10,Ticks_ISO_T2_5,233,1,48,47,3128403440
405,10,Ticks_ISO_T2_5,234,5,42,127,3128888576
405,10,Ticks_ISO_T2_5,235,1,48,41,3128925424
405,10,Ticks_ISO_T2_5,236,5,42,127,3129389540
405,10,Ticks_ISO_T2_5,237,1,48,46,3129416900
405,10,Ticks_ISO_T2_5,238,5,42,127,3129889164
405,10,Ticks_ISO_T2_5,239,1,48,43,3129939852
405,10,Ticks_ISO_T2_5,240,5,42,127,3130388708
405,10,Ticks_ISO_T2_5,241,1,48,46,3130399760
405,10,Ticks_ISO_T2_5,242,5,42,127,3130888676
405,10,Ticks_ISO_T2_5,243,1,48,44,3130899508
405,10,Ticks_ISO_T2_5,244,5,42,127,3131389620
405,10,Ticks_ISO_T2_5,245,1,48,43,3131410192
405,10,Ticks_ISO_T2_5,246,5,42,127,3131888944
405,10,Ticks_ISO_T2_5,247,1,48,46,3131911132
405,10,Ticks_ISO_T2_5,248,1,48,47,3132375356
405,10,Ticks_ISO_T2_5,249,5,42,127,3132388708
405,10,Ticks_ISO_T2_5,250,5,42,127,3132888408
405,10,Ticks_ISO_T2_5,251,1,48,46,3132890124
405,10,Ticks_ISO_T2_5,252,5,42,127,3133389300
405,10,Ticks_ISO_T2_5,253,1,48,44,3133419576
405,10,Ticks_ISO_T2_5,254,1,48,48,3133858360
405,10,Ticks_ISO_T2_5,255,5,42,127,3133888840
405,10,Ticks_ISO_T2_5,256,1,48,44,3134370852
405,10,Ticks_ISO_T2_5,257,5,42,127,3134388536
405,10,Ticks_ISO_T2_5,0,9999,9999,9999,3069886520
405,10,Ticks_ISO_T2_5,1,9999,9999,9999,3070386236
405,10,Ticks_ISO_T2_5,2,9999,9999,9999,3070886980
405,10,Ticks_ISO_T2_5,3,9999,9999,9999,3071386748
405,10,Ticks_ISO_T2_5,4,9999,9999,9999,3071886460
405,10,Ticks_ISO_T2_5,5,9999,9999,9999,3072386152
405,10,Ticks_ISO_T2_5,6,9999,9999,9999,3072886892
405,10,Ticks_ISO_T2_5,7,9999,9999,9999,3073386588
405,10,Ticks_ISO_T2_5,8,9999,9999,9999,3073886292
405,10,Ticks_ISO_T2_5,9,9999,9999,9999,3074387032
405,10,Ticks_ISO_T2_5,10,9999,9999,9999,3074886744
405,10,Ticks_ISO_T2_5,11,9999,9999,9999,3075386492
405,10,Ticks_ISO_T2_5,12,9999,9999,9999,3075886184
405,10,Ticks_ISO_T2_5,13,9999,9999,9999,3076386932
405,10,Ticks_ISO_T2_5,14,9999,9999,9999,3076886624
405,10,Ticks_ISO_T2_5,15,9999,9999,9999,3077386296
405,10,Ticks_ISO_T2_5,16,9999,9999,9999,3077887032
405,10,Ticks_ISO_T2_5,17,9999,9999,9999,3078386796
405,10,Ticks_ISO_T2_5,18,9999,9999,9999,3078886492
405,10,Ticks_ISO_T2_5,19,9999,9999,9999,3079386184
405,10,Ticks_ISO_T2_5,20,9999,9999,9999,3079886928
405,10,Ticks_ISO_T2_5,21,9999,9999,9999,3080386640
405,10,Ticks_ISO_T2_5,22,9999,9999,9999,3080886388
405,10,Ticks_ISO_T2_5,23,9999,9999,9999,3081387132
405,10,Ticks_ISO_T2_5,24,9999,9999,9999,3081886844
405,10,Ticks_ISO_T2_5,25,9999,9999,9999,3082386520
405,10,Ticks_ISO_T2_5,26,9999,9999,9999,3082886216
405,10,Ticks_ISO_T2_5,27,9999,9999,9999,3083386956
405,10,Ticks_ISO_T2_5,28,9999,9999,9999,3083886644
405,10,Ticks_ISO_T2_5,29,9999,9999,9999,3084386420
405,10,Ticks_ISO_T2_5,30,9999,9999,9999,3084886116
405,10,Ticks_ISO_T2_5,31,9999,9999,9999,3085386860
405,10,Ticks_ISO_T2_5,32,9999,9999,9999,3085886548
405,10,Ticks_ISO_T2_5,33,9999,9999,9999,3086386248
405,10,Ticks_ISO_T2_5,34,9999,9999,9999,3086886984
405,10,Ticks_ISO_T2_5,35,9999,9999,9999,3087386684
405,10,Ticks_ISO_T2_5,36,9999,9999,9999,3087886452
405,10,Ticks_ISO_T2_5,37,9999,9999,9999,3088386124
405,10,Ticks_ISO_T2_5,38,9999,9999,9999,3088886864
405,10,Ticks_ISO_T2_5,39,9999,9999,9999,3089386560
405,10,Ticks_ISO_T2_5,40,9999,9999,9999,3089886328
405,10,Ticks_ISO_T2_5,41,9999,9999,9999,3090387064
405,10,Ticks_ISO_T2_5,42,9999,9999,9999,3090886764
405,10,Ticks_ISO_T2_5,43,9999,9999,9999,3091386456
405,10,Ticks_ISO_T2_5,44,9999,9999,9999,3091886152
405,10,Ticks_ISO_T2_5,45,9999,9999,9999,3092386888
405,10,Ticks_ISO_T2_5,46,9999,9999,9999,3092886580
405,10,Ticks_ISO_T2_5,47,9999,9999,9999,3093386348
405,10,Ticks_ISO_T2_5,48,9999,9999,9999,3093887092
405,10,Ticks_ISO_T2_5,49,9999,9999,9999,3094386784
405,10,Ticks_ISO_T2_5,50,9999,9999,9999,3094886480
405,10,Ticks_ISO_T2_5,51,9999,9999,9999,3095386176
405,10,Ticks_ISO_T2_5,52,9999,9999,9999,3095886916
405,10,Ticks_ISO_T2_5,53,9999,9999,9999,3096386684
405,10,Ticks_ISO_T2_5,54,9999,9999,9999,3096886380
405,10,Ticks_ISO_T2_5,55,9999,9999,9999,3097387120
405,10,Ticks_ISO_T2_5,56,9999,9999,9999,3097886816
405,10,Ticks_ISO_T2_5,57,9999,9999,9999,3098386508
405,10,Ticks_ISO_T2_5,58,9999,9999,9999,3098886256
405,10,Ticks_ISO_T2_5,59,9999,9999,9999,3099386996
405,10,Ticks_ISO_T2_5,60,9999,9999,9999,3099886696
405,10,Ticks_ISO_T2_5,61,9999,9999,9999,3100386388
405,10,Ticks_ISO_T2_5,62,9999,9999,9999,3100886088
405,10,Ticks_ISO_T2_5,63,9999,9999,9999,3101386828
405,10,Ticks_ISO_T2_5,64,9999,9999,9999,3101886524
405,10,Ticks_ISO_T2_5,65,9999,9999,9999,3102386252
405,10,Ticks_ISO_T2_5,66,9999,9999,9999,3102887024
405,10,Ticks_ISO_T2_5,67,9999,9999,9999,3103386720
405,10,Ticks_ISO_T2_5,68,9999,9999,9999,3103886416
405,10,Ticks_ISO_T2_5,69,9999,9999,9999,3104386108
405,10,Ticks_ISO_T2_5,70,9999,9999,9999,3104886848
405,10,Ticks_ISO_T2_5,71,9999,9999,9999,3105386620
405,10,Ticks_ISO_T2_5,72,9999,9999,9999,3105886320
405,10,Ticks_ISO_T2_5,73,9999,9999,9999,3106387056
405,10,Ticks_ISO_T2_5,74,9999,9999,9999,3106886752
405,10,Ticks_ISO_T2_5,75,9999,9999,9999,3107386452
405,10,Ticks_ISO_T2_5,76,9999,9999,9999,3107886152
405,10,Ticks_ISO_T2_5,77,9999,9999,9999,3108386892
405,10,Ticks_ISO_T2_5,78,9999,9999,9999,3108886588
405,10,Ticks_ISO_T2_5,79,9999,9999,9999,3109386356
405,10,Ticks_ISO_T2_5,80,9999,9999,9999,3109887068
405,10,Ticks_ISO_T2_5,81,9999,9999,9999,3110386760
405,10,Ticks_ISO_T2_5,82,9999,9999,9999,3110886456
405,10,Ticks_ISO_T2_5,83,9999,9999,9999,3111386224
405,10,Ticks_ISO_T2_5,84,9999,9999,9999,3111886964
405,10,Ticks_ISO_T2_5,85,9999,9999,9999,3112386668
405,10,Ticks_ISO_T2_5,86,9999,9999,9999,3112886360
405,10,Ticks_ISO_T2_5,87,9999,9999,9999,3113387096
405,10,Ticks_ISO_T2_5,88,9999,9999,9999,3113886792
405,10,Ticks_ISO_T2_5,89,9999,9999,9999,3114386492
405,10,Ticks_ISO_T2_5,90,9999,9999,9999,3114886256
405,10,Ticks_ISO_T2_5,91,9999,9999,9999,3115387000
405,10,Ticks_ISO_T2_5,92,9999,9999,9999,3115886692
405,10,Ticks_ISO_T2_5,93,9999,9999,9999,3116386384
405,10,Ticks_ISO_T2_5,94,9999,9999,9999,3116886080
405,10,Ticks_ISO_T2_5,95,9999,9999,9999,3117386824
405,10,Ticks_ISO_T2_5,96,9999,9999,9999,3117886520
405,10,Ticks_ISO_T2_5,97,9999,9999,9999,3118386288
405,10,Ticks_ISO_T2_5,98,9999,9999,9999,3118887028
405,10,Ticks_ISO_T2_5,99,9999,9999,9999,3119386724
405,10,Ticks_ISO_T2_5,100,9999,9999,9999,3119886420
405,10,Ticks_ISO_T2_5,101,9999,9999,9999,3120386164
405,10,Ticks_ISO_T2_5,102,9999,9999,9999,3120886904
405,10,Ticks_ISO_T2_5,103,9999,9999,9999,3121386600
405,10,Ticks_ISO_T2_5,104,9999,9999,9999,3121886300
405,10,Ticks_ISO_T2_5,105,9999,9999,9999,3122387036
405,10,Ticks_ISO_T2_5,106,9999,9999,9999,3122886732
405,10,Ticks_ISO_T2_5,107,9999,9999,9999,3123386424
405,10,Ticks_ISO_T2_5,108,9999,9999,9999,3123886200
405,10,Ticks_ISO_T2_5,109,9999,9999,9999,3124386868
405,10,Ticks_ISO_T2_5,110,9999,9999,9999,3124886636
405,10,Ticks_ISO_T2_5,111,9999,9999,9999,3125386324
405,10,Ticks_ISO_T2_5,112,9999,9999,9999,3125887068
405,10,Ticks_ISO_T2_5,113,9999,9999,9999,3126386768
405,10,Ticks_ISO_T2_5,114,9999,9999,9999,3126886464
405,10,Ticks_ISO_T2_5,115,9999,9999,9999,3127386232
405,10,Ticks_ISO_T2_5,116,9999,9999,9999,3127886968
405,10,Ticks_ISO_T2_5,117,9999,9999,9999,3128386668
405,10,Ticks_ISO_T2_5,118,9999,9999,9999,3128886364
405,10,Ticks_ISO_T2_5,119,9999,9999,9999,3129387104
405,10,Ticks_ISO_T2_5,120,9999,9999,9999,3129886800
405,10,Ticks_ISO_T2_5,121,9999,9999,9999,3130386496
405,10,Ticks_ISO_T2_5,122,9999,9999,9999,3130886244
405,10,Ticks_ISO_T2_5,123,9999,9999,9999,3131386960
405,10,Ticks_ISO_T2_5,124,9999,9999,9999,3131886656
405,10,Ticks_ISO_T2_5,125,9999,9999,9999,3132386420
405,10,Ticks_ISO_T2_5,126,9999,9999,9999,3132886120
405,10,Ticks_ISO_T2_5,127,9999,9999,9999,3133386864
405,10,Ticks_ISO_T2_5,128,9999,9999,9999,3133886552
405,10,Ticks_ISO_T2_5,129,9999,9999,9999,3134386248
406,9,Ticks_ISO_T2_8,0,5,42,127,3145864532
406,9,Ticks_ISO_T2_8,1,5,42,127,3146665336
406,9,Ticks_ISO_T2_8,2,5,42,127,3147465016
406,9,Ticks_ISO_T2_8,3,1,48,51,3147489076
406,9,Ticks_ISO_T2_8,4,5,42,127,3148264972
406,9,Ticks_ISO_T2_8,5,1,48,51,3148272356
406,9,Ticks_ISO_T2_8,6,5,42,127,3149064432
406,9,Ticks_ISO_T2_8,7,1,48,53,3149099716
406,9,Ticks_ISO_T2_8,8,5,42,127,3149865288
406,9,Ticks_ISO_T2_8,9,1,48,44,3149885536
406,9,Ticks_ISO_T2_8,10,5,42,127,3150665096
406,9,Ticks_ISO_T2_8,11,1,48,52,3150683100
406,9,Ticks_ISO_T2_8,12,1,48,49,3151461348
406,9,Ticks_ISO_T2_8,13,5,42,127,3151464752
406,9,Ticks_ISO_T2_8,14,1,48,51,3152243736
406,9,Ticks_ISO_T2_8,15,5,42,127,3152264780
406,9,Ticks_ISO_T2_8,16,1,48,54,3153011228
406,9,Ticks_ISO_T2_8,17,5,42,127,3153065264
406,9,Ticks_ISO_T2_8,18,1,48,51,3153855616
406,9,Ticks_ISO_T2_8,19,5,42,127,3153864920
406,9,Ticks_ISO_T2_8,20,1,48,51,3154602688
406,9,Ticks_ISO_T2_8,21,5,42,127,3154664804
406,9,Ticks_ISO_T2_8,22,1,48,51,3155438928
406,9,Ticks_ISO_T2_8,23,5,42,127,3155464936
406,9,Ticks_ISO_T2_8,24,1,48,46,3156224592
406,9,Ticks_ISO_T2_8,25,5,42,127,3156265192
406,9,Ticks_ISO_T2_8,26,1,48,48,3157040884
406,9,Ticks_ISO_T2_8,27,5,42,127,3157065148
406,9,Ticks_ISO_T2_8,28,1,48,50,3157849668
406,9,Ticks_ISO_T2_8,29,5,42,127,3157864660
406,9,Ticks_ISO_T2_8,30,5,42,127,3158664624
406,9,Ticks_ISO_T2_8,31,1,48,43,3158683372
406,9,Ticks_ISO_T2_8,32,1,48,44,3159462148
406,9,Ticks_ISO_T2_8,33,5,42,127,3159465396
406,9,Ticks_ISO_T2_8,34,1,48,45,3160235476
406,9,Ticks_ISO_T2_8,35,5,42,127,3160265204
406,9,Ticks_ISO_T2_8,36,1,48,50,3161036404
406,9,Ticks_ISO_T2_8,37,5,42,127,3161064864
406,9,Ticks_ISO_T2_8,38,5,42,127,3161864628
406,9,Ticks_ISO_T2_8,39,1,48,51,3161873280
406,9,Ticks_ISO_T2_8,40,1,48,38,3162633804
406,9,Ticks_ISO_T2_8,41,5,42,127,3162665324
406,9,Ticks_ISO_T2_8,42,1,48,54,3163418056
406,9,Ticks_ISO_T2_8,43,5,42,127,3163465356
406,9,Ticks_ISO_T2_8,44,1,48,51,3164238132
406,9,Ticks_ISO_T2_8,45,5,42,127,3164264940
406,9,Ticks_ISO_T2_8,46,1,48,51,3165047968
406,9,Ticks_ISO_T2_8,47,5,42,127,3165064452
406,9,Ticks_ISO_T2_8,48,1,48,51,3165854204
406,9,Ticks_ISO_T2_8,49,5,42,127,3165865304
406,9,Ticks_ISO_T2_8,50,1,48,48,3166654832
406,9,Ticks_ISO_T2_8,51,5,42,127,3166665188
406,9,Ticks_ISO_T2_8,52,1,48,45,3167442228
406,9,Ticks_ISO_T2_8,53,5,42,127,3167464776
406,9,Ticks_ISO_T2_8,54,1,48,48,3168243156
406,9,Ticks_ISO_T2_8,55,5,42,127,3168264532
406,9,Ticks_ISO_T2_8,56,1,48,49,3169052488
406,9,Ticks_ISO_T2_8,57,5,42,127,3169065312
406,9,Ticks_ISO_T2_8,58,5,42,127,3169865200
406,9,Ticks_ISO_T2_8,59,1,48,51,3169888448
406,9,Ticks_ISO_T2_8,60,1,48,50,3170637076
406,9,Ticks_ISO_T2_8,61,5,42,127,3170665300
406,9,Ticks_ISO_T2_8,62,5,42,127,3171464520
406,9,Ticks_ISO_T2_8,63,1,48,49,3171506464
406,9,Ticks_ISO_T2_8,64,5,42,127,3172265224
406,9,Ticks_ISO_T2_8,65,1,48,46,3172312328
406,9,Ticks_ISO_T2_8,66,5,42,127,3173065032
406,9,Ticks_ISO_T2_8,67,1,48,51,3173104952
406,9,Ticks_ISO_T2_8,68,5,42,127,3173865064
406,9,Ticks_ISO_T2_8,69,1,48,43,3173881948
406,9,Ticks_ISO_T2_8,70,1,48,52,3174658996
406,9,Ticks_ISO_T2_8,71,5,42,127,3174664444
406,9,Ticks_ISO_T2_8,72,1,48,46,3175465004
406,9,Ticks_ISO_T2_8,73,5,42,127,3175466788
406,9,Ticks_ISO_T2_8,74,5,42,127,3176265036
406,9,Ticks_ISO_T2_8,75,1,48,56,3176298900
406,9,Ticks_ISO_T2_8,76,1,48,46,3177049696
406,9,Ticks_ISO_T2_8,77,5,42,127,3177064912
406,9,Ticks_ISO_T2_8,78,5,42,127,3177864652
406,9,Ticks_ISO_T2_8,79,1,48,40,3177865692
406,9,Ticks_ISO_T2_8,80,5,42,127,3178665284
406,9,Ticks_ISO_T2_8,81,1,48,45,3178666252
406,9,Ticks_ISO_T2_8,82,5,42,127,3179465168
406,9,Ticks_ISO_T2_8,83,1,48,44,3179489684
406,9,Ticks_ISO_T2_8,84,1,48,37,3180262020
406,9,Ticks_ISO_T2_8,85,5,42,127,3180264744
406,9,Ticks_ISO_T2_8,86,5,42,127,3181064736
406,9,Ticks_ISO_T2_8,87,1,48,51,3181088876
406,9,Ticks_ISO_T2_8,88,1,48,42,3181811824
406,9,Ticks_ISO_T2_8,89,5,42,127,3181865208
406,9,Ticks_ISO_T2_8,90,1,48,46,3182623996
406,9,Ticks_ISO_T2_8,91,5,42,127,3182665016
406,9,Ticks_ISO_T2_8,92,5,42,127,3183464684
406,9,Ticks_ISO_T2_8,93,1,48,46,3183476180
406,9,Ticks_ISO_T2_8,94,1,48,45,3184263432
406,9,Ticks_ISO_T2_8,95,5,42,127,3184265308
406,9,Ticks_ISO_T2_8,96,5,42,127,3185065348
406,9,Ticks_ISO_T2_8,97,1,48,42,3185075044
406,9,Ticks_ISO_T2_8,98,5,42,127,3185865152
406,9,Ticks_ISO_T2_8,99,1,48,48,3185879272
406,9,Ticks_ISO_T2_8,100,1,48,52,3186643752
406,9,Ticks_ISO_T2_8,101,5,42,127,3186664880
406,9,Ticks_ISO_T2_8,102,5,42,127,3187464648
406,9,Ticks_ISO_T2_8,103,1,48,46,3187474648
406,9,Ticks_ISO_T2_8,104,5,42,127,3188265276
406,9,Ticks_ISO_T2_8,105,1,48,48,3188308340
406,9,Ticks_ISO_T2_8,106,5,42,127,3189065012
406,9,Ticks_ISO_T2_8,107,1,48,48,3189073216
406,9,Ticks_ISO_T2_8,108,1,48,51,3189824312
406,9,Ticks_ISO_T2_8,109,5,42,127,3189864736
406,9,Ticks_ISO_T2_8,110,1,48,50,3190603700
406,9,Ticks_ISO_T2_8,111,5,42,127,3190664472
406,9,Ticks_ISO_T2_8,112,1,48,48,3191405376
406,9,Ticks_ISO_T2_8,113,5,42,127,3191465400
406,9,Ticks_ISO_T2_8,114,1,48,46,3192252612
406,9,Ticks_ISO_T2_8,115,5,42,127,3192264984
406,9,Ticks_ISO_T2_8,116,1,48,44,3193055412
406,9,Ticks_ISO_T2_8,117,5,42,127,3193064868
406,9,Ticks_ISO_T2_8,118,1,48,46,3193825452
406,9,Ticks_ISO_T2_8,119,5,42,127,3193864552
406,9,Ticks_ISO_T2_8,120,1,48,49,3194596388
406,9,Ticks_ISO_T2_8,121,5,42,127,3194665256
406,9,Ticks_ISO_T2_8,122,5,42,127,3195464924
406,9,Ticks_ISO_T2_8,123,1,48,44,3195469092
406,9,Ticks_ISO_T2_8,124,5,42,127,3196264732
406,9,Ticks_ISO_T2_8,125,1,48,45,3196304876
406,9,Ticks_ISO_T2_8,126,1,48,46,3197055596
406,9,Ticks_ISO_T2_8,127,5,42,127,3197064456
406,9,Ticks_ISO_T2_8,128,1,48,40,3197847252
406,9,Ticks_ISO_T2_8,129,5,42,127,3197865312
406,9,Ticks_ISO_T2_8,130,5,42,127,3198665200
406,9,Ticks_ISO_T2_8,131,1,48,35,3198685304
406,9,Ticks_ISO_T2_8,132,5,42,127,3199464784
406,9,Ticks_ISO_T2_8,133,1,48,42,3199484804
406,9,Ticks_ISO_T2_8,134,5,42,127,3200264468
406,9,Ticks_ISO_T2_8,135,1,48,43,3200286964
406,9,Ticks_ISO_T2_8,136,1,48,49,3201012228
406,9,Ticks_ISO_T2_8,137,5,42,127,3201065540
406,9,Ticks_ISO_T2_8,138,5,42,127,3201865056
406,9,Ticks_ISO_T2_8,139,1,48,43,3201879620
406,9,Ticks_ISO_T2_8,140,5,42,127,3202664716
406,9,Ticks_ISO_T2_8,141,1,48,38,3202710464
406,9,Ticks_ISO_T2_8,142,1,48,48,3203431500
406,9,Ticks_ISO_T2_8,143,5,42,127,3203464444
406,9,Ticks_ISO_T2_8,144,1,48,46,3204236088
406,9,Ticks_ISO_T2_8,145,5,42,127,3204265296
406,9,Ticks_ISO_T2_8,146,5,42,127,3205065108
406,9,Ticks_ISO_T2_8,147,1,48,49,3205108692
406,9,Ticks_ISO_T2_8,148,1,48,51,3205848352
406,9,Ticks_ISO_T2_8,149,5,42,127,3205864984
406,9,Ticks_ISO_T2_8,150,1,48,51,3206617940
406,9,Ticks_ISO_T2_8,151,5,42,127,3206664448
406,9,Ticks_ISO_T2_8,152,1,48,49,3207416472
406,9,Ticks_ISO_T2_8,153,5,42,127,3207465300
406,9,Ticks_ISO_T2_8,154,1,48,44,3208254680
406,9,Ticks_ISO_T2_8,155,5,42,127,3208265032
406,9,Ticks_ISO_T2_8,156,5,42,127,3209064924
406,9,Ticks_ISO_T2_8,157,1,48,44,3209067444
406,9,Ticks_ISO_T2_8,158,5,42,127,3209864508
406,9,Ticks_ISO_T2_8,159,1,48,49,3209893504
406,9,Ticks_ISO_T2_8,160,1,48,40,3210658968
406,9,Ticks_ISO_T2_8,161,5,42,127,3210665280
406,9,Ticks_ISO_T2_8,162,1,48,44,3211461768
406,9,Ticks_ISO_T2_8,163,5,42,127,3211464940
406,9,Ticks_ISO_T2_8,164,1,48,48,3212241748
406,9,Ticks_ISO_T2_8,165,5,42,127,3212264820
406,9,Ticks_ISO_T2_8,166,5,42,127,3213064512
406,9,Ticks_ISO_T2_8,167,1,48,46,3213069948
406,9,Ticks_ISO_T2_8,168,5,42,127,3213865440
406,9,Ticks_ISO_T2_8,169,1,48,44,3213886512
406,9,Ticks_ISO_T2_8,170,1,48,47,3214663656
406,9,Ticks_ISO_T2_8,171,5,42,127,3214665240
406,9,Ticks_ISO_T2_8,172,1,48,47,3215453720
406,9,Ticks_ISO_T2_8,173,5,42,127,3215464824
406,9,Ticks_ISO_T2_8,174,5,42,127,3216264640
406,9,Ticks_ISO_T2_8,175,1,48,48,3216275088
406,9,Ticks_ISO_T2_8,176,5,42,127,3217065420
406,9,Ticks_ISO_T2_8,177,1,48,49,3217096660
406,9,Ticks_ISO_T2_8,178,5,42,127,3217865080
406,9,Ticks_ISO_T2_8,179,1,48,45,3217869768
406,9,Ticks_ISO_T2_8,180,5,42,127,3218664740
406,9,Ticks_ISO_T2_8,181,1,48,50,3218682220
406,9,Ticks_ISO_T2_8,182,1,48,41,3219407068
406,9,Ticks_ISO_T2_8,183,5,42,127,3219464716
406,9,Ticks_ISO_T2_8,184,1,48,37,3220250952
406,9,Ticks_ISO_T2_8,185,5,42,127,3220265344
406,9,Ticks_ISO_T2_8,186,5,42,127,3221065012
406,9,Ticks_ISO_T2_8,187,1,48,36,3221068132
406,9,Ticks_ISO_T2_8,188,5,42,127,3221864744
406,9,Ticks_ISO_T2_8,189,1,48,37,3221876916
406,9,Ticks_ISO_T2_8,190,5,42,127,3222664476
406,9,Ticks_ISO_T2_8,191,1,48,39,3222665444
406,9,Ticks_ISO_T2_8,192,1,48,41,3223448240
406,9,Ticks_ISO_T2_8,193,5,42,127,3223465400
406,9,Ticks_ISO_T2_8,194,1,48,38,3224250068
406,9,Ticks_ISO_T2_8,195,5,42,127,3224264984
406,9,Ticks_ISO_T2_8,196,1,48,42,3225037460
406,9,Ticks_ISO_T2_8,197,5,42,127,3225064796
406,9,Ticks_ISO_T2_8,198,1,48,47,3225834724
406,9,Ticks_ISO_T2_8,199,5,42,127,3225864552
406,9,Ticks_ISO_T2_8,200,1,48,45,3226658420
406,9,Ticks_ISO_T2_8,201,5,42,127,3226665480
406,9,Ticks_ISO_T2_8,202,5,42,127,3227464996
406,9,Ticks_ISO_T2_8,203,1,48,48,3227486292
406,9,Ticks_ISO_T2_8,204,1,48,44,3228194676
406,9,Ticks_ISO_T2_8,205,5,42,127,3228264796
406,9,Ticks_ISO_T2_8,206,1,48,40,3228975192
406,9,Ticks_ISO_T2_8,207,5,42,127,3229064456
406,9,Ticks_ISO_T2_8,208,1,48,41,3229812244
406,9,Ticks_ISO_T2_8,209,5,42,127,3229865460
406,9,Ticks_ISO_T2_8,210,5,42,127,3230665124
406,9,Ticks_ISO_T2_8,211,1,48,42,3230671988
406,9,Ticks_ISO_T2_8,212,1,48,40,3231423008
406,9,Ticks_ISO_T2_8,213,5,42,127,3231464704
406,9,Ticks_ISO_T2_8,214,1,48,50,3232208308
406,9,Ticks_ISO_T2_8,215,5,42,127,3232264460
406,9,Ticks_ISO_T2_8,216,1,48,50,3232978420
406,9,Ticks_ISO_T2_8,217,5,42,127,3233065464
406,9,Ticks_ISO_T2_8,218,1,48,40,3233846620
406,9,Ticks_ISO_T2_8,219,5,42,127,3233865048
406,9,Ticks_ISO_T2_8,220,5,42,127,3234664716
406,9,Ticks_ISO_T2_8,221,1,48,45,3234696932
406,9,Ticks_ISO_T2_8,222,1,48,43,3235445112
406,9,Ticks_ISO_T2_8,223,5,42,127,3235464520
406,9,Ticks_ISO_T2_8,224,1,48,35,3236254416
406,9,Ticks_ISO_T2_8,225,5,42,127,3236265224
406,9,Ticks_ISO_T2_8,226,1,48,40,3237052208
406,9,Ticks_ISO_T2_8,227,5,42,127,3237065256
406,9,Ticks_ISO_T2_8,228,1,48,43,3237857332
406,9,Ticks_ISO_T2_8,229,5,42,127,3237864988
406,9,Ticks_ISO_T2_8,230,1,48,45,3238621460
406,9,Ticks_ISO_T2_8,231,5,42,127,3238664524
406,9,Ticks_ISO_T2_8,232,5,42,127,3239465384
406,9,Ticks_ISO_T2_8,233,1,48,42,3239468060
406,9,Ticks_ISO_T2_8,234,5,42,127,3240265044
406,9,Ticks_ISO_T2_8,235,1,48,45,3240288808
406,9,Ticks_ISO_T2_8,236,5,42,127,3241064928
406,9,Ticks_ISO_T2_8,237,1,48,40,3241116216
406,9,Ticks_ISO_T2_8,0,9999,9999,9999,3145862244
406,9,Ticks_ISO_T2_8,1,9999,9999,9999,3146662972
406,9,Ticks_ISO_T2_8,2,9999,9999,9999,3147462728
406,9,Ticks_ISO_T2_8,3,9999,9999,9999,3148262460
406,9,Ticks_ISO_T2_8,4,9999,9999,9999,3149062196
406,9,Ticks_ISO_T2_8,5,9999,9999,9999,3149863000
406,9,Ticks_ISO_T2_8,6,9999,9999,9999,3150662732
406,9,Ticks_ISO_T2_8,7,9999,9999,9999,3151462464
406,9,Ticks_ISO_T2_8,8,9999,9999,9999,3152262196
406,9,Ticks_ISO_T2_8,9,9999,9999,9999,3153062976
406,9,Ticks_ISO_T2_8,10,9999,9999,9999,3153862708
406,9,Ticks_ISO_T2_8,11,9999,9999,9999,3154662516
406,9,Ticks_ISO_T2_8,12,9999,9999,9999,3155462252
406,9,Ticks_ISO_T2_8,13,9999,9999,9999,3156262980
406,9,Ticks_ISO_T2_8,14,9999,9999,9999,3157062712
406,9,Ticks_ISO_T2_8,15,9999,9999,9999,3157862444
406,9,Ticks_ISO_T2_8,16,9999,9999,9999,3158662260
406,9,Ticks_ISO_T2_8,17,9999,9999,9999,3159462960
406,9,Ticks_ISO_T2_8,18,9999,9999,9999,3160262768
406,9,Ticks_ISO_T2_8,19,9999,9999,9999,3161062500
406,9,Ticks_ISO_T2_8,20,9999,9999,9999,3161862264
406,9,Ticks_ISO_T2_8,21,9999,9999,9999,3162662964
406,9,Ticks_ISO_T2_8,22,9999,9999,9999,3163462772
406,9,Ticks_ISO_T2_8,23,9999,9999,9999,3164262504
406,9,Ticks_ISO_T2_8,24,9999,9999,9999,3165062240
406,9,Ticks_ISO_T2_8,25,9999,9999,9999,3165863016
406,9,Ticks_ISO_T2_8,26,9999,9999,9999,3166662752
406,9,Ticks_ISO_T2_8,27,9999,9999,9999,3167462488
406,9,Ticks_ISO_T2_8,28,9999,9999,9999,3168262244
406,9,Ticks_ISO_T2_8,29,9999,9999,9999,3169063024
406,9,Ticks_ISO_T2_8,30,9999,9999,9999,3169862764
406,9,Ticks_ISO_T2_8,31,9999,9999,9999,3170662492
406,9,Ticks_ISO_T2_8,32,9999,9999,9999,3171462232
406,9,Ticks_ISO_T2_8,33,9999,9999,9999,3172263012
406,9,Ticks_ISO_T2_8,34,9999,9999,9999,3173062744
406,9,Ticks_ISO_T2_8,35,9999,9999,9999,3173862476
406,9,Ticks_ISO_T2_8,36,9999,9999,9999,3174662228
406,9,Ticks_ISO_T2_8,37,9999,9999,9999,3175463016
406,9,Ticks_ISO_T2_8,38,9999,9999,9999,3176262748
406,9,Ticks_ISO_T2_8,39,9999,9999,9999,3177062476
406,9,Ticks_ISO_T2_8,40,9999,9999,9999,3177862216
406,9,Ticks_ISO_T2_8,41,9999,9999,9999,3178662996
406,9,Ticks_ISO_T2_8,42,9999,9999,9999,3179462732
406,9,Ticks_ISO_T2_8,43,9999,9999,9999,3180262456
406,9,Ticks_ISO_T2_8,44,9999,9999,9999,3181062224
406,9,Ticks_ISO_T2_8,45,9999,9999,9999,3181862996
406,9,Ticks_ISO_T2_8,46,9999,9999,9999,3182662728
406,9,Ticks_ISO_T2_8,47,9999,9999,9999,3183462468
406,9,Ticks_ISO_T2_8,48,9999,9999,9999,3184262204
406,9,Ticks_ISO_T2_8,49,9999,9999,9999,3185062984
406,9,Ticks_ISO_T2_8,50,9999,9999,9999,3185862716
406,9,Ticks_ISO_T2_8,51,9999,9999,9999,3186662520
406,9,Ticks_ISO_T2_8,52,9999,9999,9999,3187462208
406,9,Ticks_ISO_T2_8,53,9999,9999,9999,3188262988
406,9,Ticks_ISO_T2_8,54,9999,9999,9999,3189062724
406,9,Ticks_ISO_T2_8,55,9999,9999,9999,3189862448
406,9,Ticks_ISO_T2_8,56,9999,9999,9999,3190662256
406,9,Ticks_ISO_T2_8,57,9999,9999,9999,3191462964
406,9,Ticks_ISO_T2_8,58,9999,9999,9999,3192262772
406,9,Ticks_ISO_T2_8,59,9999,9999,9999,3193062504
406,9,Ticks_ISO_T2_8,60,9999,9999,9999,3193862264
406,9,Ticks_ISO_T2_8,61,9999,9999,9999,3194662968
406,9,Ticks_ISO_T2_8,62,9999,9999,9999,3195462708
406,9,Ticks_ISO_T2_8,63,9999,9999,9999,3196262516
406,9,Ticks_ISO_T2_8,64,9999,9999,9999,3197062244
406,9,Ticks_ISO_T2_8,65,9999,9999,9999,3197863024
406,9,Ticks_ISO_T2_8,66,9999,9999,9999,3198662764
406,9,Ticks_ISO_T2_8,67,9999,9999,9999,3199462496
406,9,Ticks_ISO_T2_8,68,9999,9999,9999,3200262256
406,9,Ticks_ISO_T2_8,69,9999,9999,9999,3201063028
406,9,Ticks_ISO_T2_8,70,9999,9999,9999,3201862768
406,9,Ticks_ISO_T2_8,71,9999,9999,9999,3202662500
406,9,Ticks_ISO_T2_8,72,9999,9999,9999,3203462228
406,9,Ticks_ISO_T2_8,73,9999,9999,9999,3204263008
406,9,Ticks_ISO_T2_8,74,9999,9999,9999,3205062748
406,9,Ticks_ISO_T2_8,75,9999,9999,9999,3205862472
406,9,Ticks_ISO_T2_8,76,9999,9999,9999,3206662232
406,9,Ticks_ISO_T2_8,77,9999,9999,9999,3207463012
406,9,Ticks_ISO_T2_8,78,9999,9999,9999,3208262744
406,9,Ticks_ISO_T2_8,79,9999,9999,9999,3209062484
406,9,Ticks_ISO_T2_8,80,9999,9999,9999,3209862220
406,9,Ticks_ISO_T2_8,81,9999,9999,9999,3210662992
406,9,Ticks_ISO_T2_8,82,9999,9999,9999,3211462724
406,9,Ticks_ISO_T2_8,83,9999,9999,9999,3212262460
406,9,Ticks_ISO_T2_8,84,9999,9999,9999,3213062224
406,9,Ticks_ISO_T2_8,85,9999,9999,9999,3213863004
406,9,Ticks_ISO_T2_8,86,9999,9999,9999,3214662736
406,9,Ticks_ISO_T2_8,87,9999,9999,9999,3215462464
406,9,Ticks_ISO_T2_8,88,9999,9999,9999,3216262200
406,9,Ticks_ISO_T2_8,89,9999,9999,9999,3217062984
406,9,Ticks_ISO_T2_8,90,9999,9999,9999,3217862716
406,9,Ticks_ISO_T2_8,91,9999,9999,9999,3218662452
406,9,Ticks_ISO_T2_8,92,9999,9999,9999,3219462204
406,9,Ticks_ISO_T2_8,93,9999,9999,9999,3220262984
406,9,Ticks_ISO_T2_8,94,9999,9999,9999,3221062724
406,9,Ticks_ISO_T2_8,95,9999,9999,9999,3221862456
406,9,Ticks_ISO_T2_8,96,9999,9999,9999,3222662188
406,9,Ticks_ISO_T2_8,97,9999,9999,9999,3223462964
406,9,Ticks_ISO_T2_8,98,9999,9999,9999,3224262772
406,9,Ticks_ISO_T2_8,99,9999,9999,9999,3225062504
406,9,Ticks_ISO_T2_8,100,9999,9999,9999,3225862264
406,9,Ticks_ISO_T2_8,101,9999,9999,9999,3226662968
406,9,Ticks_ISO_T2_8,102,9999,9999,9999,3227462708
406,9,Ticks_ISO_T2_8,103,9999,9999,9999,3228262508
406,9,Ticks_ISO_T2_8,104,9999,9999,9999,3229062244
406,9,Ticks_ISO_T2_8,105,9999,9999,9999,3229863020
406,9,Ticks_ISO_T2_8,106,9999,9999,9999,3230662760
406,9,Ticks_ISO_T2_8,107,9999,9999,9999,3231462488
406,9,Ticks_ISO_T2_8,108,9999,9999,9999,3232262248
406,9,Ticks_ISO_T2_8,109,9999,9999,9999,3233063028
406,9,Ticks_ISO_T2_8,110,9999,9999,9999,3233862764
406,9,Ticks_ISO_T2_8,111,9999,9999,9999,3234662504
406,9,Ticks_ISO_T2_8,112,9999,9999,9999,3235462232
406,9,Ticks_ISO_T2_8,113,9999,9999,9999,3236263008
406,9,Ticks_ISO_T2_8,114,9999,9999,9999,3237062744
406,9,Ticks_ISO_T2_8,115,9999,9999,9999,3237862476
406,9,Ticks_ISO_T2_8,116,9999,9999,9999,3238662236
406,9,Ticks_ISO_T2_8,117,9999,9999,9999,3239463020
406,9,Ticks_ISO_T2_8,118,9999,9999,9999,3240262756
406,9,Ticks_ISO_T2_8,119,9999,9999,9999,3241062488
407,21,Ticks_Linear_5,0,5,42,127,3251823984
407,21,Ticks_Linear_5,1,5,42,127,3252304384
407,21,Ticks_Linear_5,2,1,48,34,3252498716
407,21,Ticks_Linear_5,3,5,42,127,3252783492
407,21,Ticks_Linear_5,4,1,48,24,3252855656
407,21,Ticks_Linear_5,5,1,48,43,3253262516
407,21,Ticks_Linear_5,6,5,42,127,3253264308
407,21,Ticks_Linear_5,7,1,48,48,3253737736
407,21,Ticks_Linear_5,8,5,42,127,3253743992
407,21,Ticks_Linear_5,9,1,48,48,3254231068
407,21,Ticks_Linear_5,10,5,42,127,3254233584
407,21,Ticks_Linear_5,11,5,42,127,3254723856
407,21,Ticks_Linear_5,12,1,48,52,3254746968
407,21,Ticks_Linear_5,13,1,48,45,3255211700
407,21,Ticks_Linear_5,14,5,42,127,3255213508
407,21,Ticks_Linear_5,15,1,48,49,3255689200
407,21,Ticks_Linear_5,16,5,42,127,3255703924
407,21,Ticks_Linear_5,17,5,42,127,3256194492
407,21,Ticks_Linear_5,18,1,48,49,3256202860
407,21,Ticks_Linear_5,19,1,48,54,3256694668
407,21,Ticks_Linear_5,20,5,42,127,3256704372
407,21,Ticks_Linear_5,21,1,48,55,3257189724
407,21,Ticks_Linear_5,22,5,42,127,3257204072
407,21,Ticks_Linear_5,23,1,48,49,3257692872
407,21,Ticks_Linear_5,24,5,42,127,3257703844
407,21,Ticks_Linear_5,25,5,42,127,3258203552
407,21,Ticks_Linear_5,26,1,48,47,3258207568
407,21,Ticks_Linear_5,27,1,48,52,3258683736
407,21,Ticks_Linear_5,28,5,42,127,3258704368
407,21,Ticks_Linear_5,29,1,48,39,3259194444
407,21,Ticks_Linear_5,30,5,42,127,3259214400
407,21,Ticks_Linear_5,31,1,48,49,3259701560
407,21,Ticks_Linear_5,32,5,42,127,3259724432
407,21,Ticks_Linear_5,33,1,48,45,3260214508
407,21,Ticks_Linear_5,34,5,42,127,3260234240
407,21,Ticks_Linear_5,35,1,48,44,3260733304
407,21,Ticks_Linear_5,36,5,42,127,3260744276
407,21,Ticks_Linear_5,37,1,48,47,3261237644
407,21,Ticks_Linear_5,38,5,42,127,3261254088
407,21,Ticks_Linear_5,39,1,48,40,3261750672
407,21,Ticks_Linear_5,40,5,42,127,3261774156
407,21,Ticks_Linear_5,41,1,48,38,3262254128
407,21,Ticks_Linear_5,42,5,42,127,3262294376
407,21,Ticks_Linear_5,43,1,48,51,3262807588
407,21,Ticks_Linear_5,44,5,42,127,3262813548
407,21,Ticks_Linear_5,45,1,48,44,3263312756
407,21,Ticks_Linear_5,46,5,42,127,3263333692
407,21,Ticks_Linear_5,47,1,48,52,3263849292
407,21,Ticks_Linear_5,48,5,42,127,3263854356
407,21,Ticks_Linear_5,49,1,48,48,3264378352
407,21,Ticks_Linear_5,50,5,42,127,3264384240
407,21,Ticks_Linear_5,51,5,42,127,3264913900
407,21,Ticks_Linear_5,52,1,48,49,3264926080
407,21,Ticks_Linear_5,53,5,42,127,3265444228
407,21,Ticks_Linear_5,54,1,48,50,3265454388
407,21,Ticks_Linear_5,55,5,42,127,3265973508
407,21,Ticks_Linear_5,56,1,48,49,3265988084
407,21,Ticks_Linear_5,57,1,48,50,3266494800
407,21,Ticks_Linear_5,58,5,42,127,3266504052
407,21,Ticks_Linear_5,59,1,48,46,3267032992
407,21,Ticks_Linear_5,60,5,42,127,3267043592
407,21,Ticks_Linear_5,61,1,48,48,3267560392
407,21,Ticks_Linear_5,62,5,42,127,3267584352
407,21,Ticks_Linear_5,63,1,48,49,3268112024
407,21,Ticks_Linear_5,64,5,42,127,3268123968
407,21,Ticks_Linear_5,65,1,48,54,3268650432
407,21,Ticks_Linear_5,66,5,42,127,3268663660
407,21,Ticks_Linear_5,67,1,48,48,3269197316
407,21,Ticks_Linear_5,68,5,42,127,3269204248
407,21,Ticks_Linear_5,69,1,48,52,3269750776
407,21,Ticks_Linear_5,70,5,42,127,3269754196
407,21,Ticks_Linear_5,71,1,48,48,3270280956
407,21,Ticks_Linear_5,72,5,42,127,3270304072
407,21,Ticks_Linear_5,73,1,48,42,3270840044
407,21,Ticks_Linear_5,74,5,42,127,3270853872
407,21,Ticks_Linear_5,75,1,48,48,3271402460
407,21,Ticks_Linear_5,76,5,42,127,3271404264
407,21,Ticks_Linear_5,77,5,42,127,3271953876
407,21,Ticks_Linear_5,78,1,48,36,3271959536
407,21,Ticks_Linear_5,79,1,48,46,3272477640
407,21,Ticks_Linear_5,80,5,42,127,3272514004
407,21,Ticks_Linear_5,81,1,48,44,3273061820
407,21,Ticks_Linear_5,82,5,42,127,3273073988
407,21,Ticks_Linear_5,83,1,48,53,3273629208
407,21,Ticks_Linear_5,84,5,42,127,3273634196
407,21,Ticks_Linear_5,85,1,48,47,3274187100
407,21,Ticks_Linear_5,86,5,42,127,3274194256
407,21,Ticks_Linear_5,87,1,48,45,3274746936
407,21,Ticks_Linear_5,88,5,42,127,3274754416
407,21,Ticks_Linear_5,89,1,48,46,3275252404
407,21,Ticks_Linear_5,90,5,42,127,3275333944
407,21,Ticks_Linear_5,91,1,48,48,3275863484
407,21,Ticks_Linear_5,92,5,42,127,3275904336
407,21,Ticks_Linear_5,93,5,42,127,3276473912
407,21,Ticks_Linear_5,94,1,48,43,3276518448
407,21,Ticks_Linear_5,95,5,42,127,3277044080
407,21,Ticks_Linear_5,96,1,48,41,3277059504
407,21,Ticks_Linear_5,97,5,42,127,3277613304
407,21,Ticks_Linear_5,98,1,48,43,3277626980
407,21,Ticks_Linear_5,99,1,48,37,3278182752
407,21,Ticks_Linear_5,100,5,42,127,3278194020
407,21,Ticks_Linear_5,101,1,48,44,3278737416
407,21,Ticks_Linear_5,102,5,42,127,3278773700
407,21,Ticks_Linear_5,103,1,48,47,3279326004
407,21,Ticks_Linear_5,104,5,42,127,3279354128
407,21,Ticks_Linear_5,105,1,48,38,3279921296
407,21,Ticks_Linear_5,106,5,42,127,3279933836
407,21,Ticks_Linear_5,107,1,48,46,3280485164
407,21,Ticks_Linear_5,108,5,42,127,3280514564
407,21,Ticks_Linear_5,109,1,48,46,3281072340
407,21,Ticks_Linear_5,110,5,42,127,3281113564
407,21,Ticks_Linear_5,111,1,48,44,3281683268
407,21,Ticks_Linear_5,112,5,42,127,3281704204
407,21,Ticks_Linear_5,113,1,48,47,3282272316
407,21,Ticks_Linear_5,114,5,42,127,3282294068
407,21,Ticks_Linear_5,115,5,42,127,3282883864
407,21,Ticks_Linear_5,116,1,48,41,3282885724
407,21,Ticks_Linear_5,117,1,48,37,3283451132
407,21,Ticks_Linear_5,118,5,42,127,3283473744
407,21,Ticks_Linear_5,119,1,48,46,3284065440
407,21,Ticks_Linear_5,120,5,42,127,3284073940
407,21,Ticks_Linear_5,121,1,48,35,3284643324
407,21,Ticks_Linear_5,122,5,42,127,3284673768
407,21,Ticks_Linear_5,123,1,48,48,3285250652
407,21,Ticks_Linear_5,124,5,42,127,3285273840
407,21,Ticks_Linear_5,125,5,42,127,3285873968
407,21,Ticks_Linear_5,126,1,48,52,3285874936
407,21,Ticks_Linear_5,127,5,42,127,3286474092
407,21,Ticks_Linear_5,128,1,48,45,3286496308
407,21,Ticks_Linear_5,129,5,42,127,3287084500
407,21,Ticks_Linear_5,130,1,48,42,3287092496
407,21,Ticks_Linear_5,131,5,42,127,3287693760
407,21,Ticks_Linear_5,132,1,48,45,3287716500
407,21,Ticks_Linear_5,133,5,42,127,3288303992
407,21,Ticks_Linear_5,134,1,48,53,3288320388
407,21,Ticks_Linear_5,135,1,48,46,3288902828
407,21,Ticks_Linear_5,136,5,42,127,3288914692
407,21,Ticks_Linear_5,137,1,48,51,3289510576
407,21,Ticks_Linear_5,138,5,42,127,3289523432
407,21,Ticks_Linear_5,139,1,48,45,3290122044
407,21,Ticks_Linear_5,140,5,42,127,3290144544
407,21,Ticks_Linear_5,141,1,48,53,3290716324
407,21,Ticks_Linear_5,142,5,42,127,3290763692
407,21,Ticks_Linear_5,143,5,42,127,3291384336
407,21,Ticks_Linear_5,144,1,48,49,3291408456
407,21,Ticks_Linear_5,145,5,42,127,3292003660
407,21,Ticks_Linear_5,146,1,48,47,3292023336
407,21,Ticks_Linear_5,147,1,48,42,3292610624
407,21,Ticks_Linear_5,148,5,42,127,3292624444
407,21,Ticks_Linear_5,149,5,42,127,3293254332
407,21,Ticks_Linear_5,150,1,48,46,3293261712
407,21,Ticks_Linear_5,151,1,48,46,3293860540
407,21,Ticks_Linear_5,152,5,42,127,3293883804
407,21,Ticks_Linear_5,153,5,42,127,3294513468
407,21,Ticks_Linear_5,154,1,48,51,3294541440
407,21,Ticks_Linear_5,155,5,42,127,3295144368
407,21,Ticks_Linear_5,156,1,48,44,3295210236
407,21,Ticks_Linear_5,157,5,42,127,3295774320
407,21,Ticks_Linear_5,158,1,48,43,3295833388
407,21,Ticks_Linear_5,159,5,42,127,3296414284
407,21,Ticks_Linear_5,160,1,48,38,3296486452
407,21,Ticks_Linear_5,161,5,42,127,3297054344
407,21,Ticks_Linear_5,162,1,48,44,3297104200
407,21,Ticks_Linear_5,163,5,42,127,3297694308
407,21,Ticks_Linear_5,164,1,48,39,3297752624
407,21,Ticks_Linear_5,165,5,42,127,3298334224
407,21,Ticks_Linear_5,166,1,48,44,3298338240
407,21,Ticks_Linear_5,167,1,48,50,3298969416
407,21,Ticks_Linear_5,168,5,42,127,3298974256
407,21,Ticks_Linear_5,169,1,48,45,3299624584
407,21,Ticks_Linear_5,170,5,42,127,3299626000
407,21,Ticks_Linear_5,171,5,42,127,3300273536
407,21,Ticks_Linear_5,172,1,48,44,3300302124
407,21,Ticks_Linear_5,173,1,48,42,3300914228
407,21,Ticks_Linear_5,174,5,42,127,3300923852
407,21,Ticks_Linear_5,175,1,48,46,3301537040
407,21,Ticks_Linear_5,176,5,42,127,3301573924
407,21,Ticks_Linear_5,177,1,48,46,3302195148
407,21,Ticks_Linear_5,178,5,42,127,3302224320
407,21,Ticks_Linear_5,179,1,48,48,3302839680
407,21,Ticks_Linear_5,180,5,42,127,3302883608
407,21,Ticks_Linear_5,181,1,48,50,3303496368
407,21,Ticks_Linear_5,182,5,42,127,3303544040
407,21,Ticks_Linear_5,183,5,42,127,3304203728
407,21,Ticks_Linear_5,184,1,48,41,3304218980
407,21,Ticks_Linear_5,185,5,42,127,3304864212
407,21,Ticks_Linear_5,186,1,48,43,3304921708
407,21,Ticks_Linear_5,187,1,48,46,3305487756
407,21,Ticks_Linear_5,188,5,42,127,3305523520
407,21,Ticks_Linear_5,189,1,48,44,3306131156
407,21,Ticks_Linear_5,190,5,42,127,3306194184
407,21,Ticks_Linear_5,191,5,42,127,3306864132
407,21,Ticks_Linear_5,192,1,48,42,3306866072
407,21,Ticks_Linear_5,193,5,42,127,3307533628
407,21,Ticks_Linear_5,194,1,48,45,3307547760
407,21,Ticks_Linear_5,195,1,48,46,3308167024
407,21,Ticks_Linear_5,196,5,42,127,3308204436
407,21,Ticks_Linear_5,197,1,48,46,3308834952
407,21,Ticks_Linear_5,198,5,42,127,3308874080
407,21,Ticks_Linear_5,199,1,48,48,3309535276
407,21,Ticks_Linear_5,200,5,42,127,3309554036
407,21,Ticks_Linear_5,201,1,48,43,3310203948
407,21,Ticks_Linear_5,202,5,42,127,3310233936
407,21,Ticks_Linear_5,203,1,48,43,3310877180
407,21,Ticks_Linear_5,204,5,42,127,3310913768
407,21,Ticks_Linear_5,205,1,48,35,3311591200
407,21,Ticks_Linear_5,206,5,42,127,3311593796
407,21,Ticks_Linear_5,207,5,42,127,3312273856
407,21,Ticks_Linear_5,208,1,48,43,3312308124
407,21,Ticks_Linear_5,209,1,48,32,3312894476
407,21,Ticks_Linear_5,210,5,42,127,3312963864
407,21,Ticks_Linear_5,211,1,48,42,3313605132
407,21,Ticks_Linear_5,212,5,42,127,3313654224
407,21,Ticks_Linear_5,213,1,48,42,3314283620
407,21,Ticks_Linear_5,214,5,42,127,3314344460
407,21,Ticks_Linear_5,215,5,42,127,3315033808
407,21,Ticks_Linear_5,216,1,48,39,3315086356
407,21,Ticks_Linear_5,217,5,42,127,3315723528
407,21,Ticks_Linear_5,218,1,48,34,3315731744
407,21,Ticks_Linear_5,219,1,48,39,3316389348
407,21,Ticks_Linear_5,220,5,42,127,3316424064
407,21,Ticks_Linear_5,221,1,48,34,3317052856
407,21,Ticks_Linear_5,222,5,42,127,3317123516
407,21,Ticks_Linear_5,223,5,42,127,3317823720
407,21,Ticks_Linear_5,224,1,48,23,3317831028
407,21,Ticks_Linear_5,225,5,42,127,3318524664
407,21,Ticks_Linear_5,226,1,48,33,3318553548
407,21,Ticks_Linear_5,227,1,48,30,3319156048
407,21,Ticks_Linear_5,228,5,42,127,3319223640
407,21,Ticks_Linear_5,229,1,48,27,3319873172
407,21,Ticks_Linear_5,230,5,42,127,3319934468
407,21,Ticks_Linear_5,231,5,42,127,3320644260
407,21,Ticks_Linear_5,232,1,48,38,3320657788
407,21,Ticks_Linear_5,233,5,42,127,3321353520
407,21,Ticks_Linear_5,234,1,48,41,3321356420
407,21,Ticks_Linear_5,235,1,48,43,3322059556
407,21,Ticks_Linear_5,236,5,42,127,3322064468
407,21,Ticks_Linear_5,237,5,42,127,3322773884
407,21,Ticks_Linear_5,238,1,48,42,3322794532
407,21,Ticks_Linear_5,239,1,48,45,3323492648
407,21,Ticks_Linear_5,240,5,42,127,3323494448
407,21,Ticks_Linear_5,241,1,48,39,3324154888
407,21,Ticks_Linear_5,242,5,42,127,3324213516
407,21,Ticks_Linear_5,243,1,48,42,3324872088
407,21,Ticks_Linear_5,244,5,42,127,3324933632
407,21,Ticks_Linear_5,245,5,42,127,3325654256
407,21,Ticks_Linear_5,246,1,48,38,3325740444
407,21,Ticks_Linear_5,247,5,42,127,3326374148
407,21,Ticks_Linear_5,248,1,48,22,3326489320
407,21,Ticks_Linear_5,249,1,48,29,3327037376
407,21,Ticks_Linear_5,250,5,42,127,3327104372
407,21,Ticks_Linear_5,251,1,48,35,3327783264
407,21,Ticks_Linear_5,252,5,42,127,3327833476
407,21,Ticks_Linear_5,253,1,48,33,3328541952
407,21,Ticks_Linear_5,254,5,42,127,3328563628
407,21,Ticks_Linear_5,255,5,42,127,3329293564
407,21,Ticks_Linear_5,256,1,48,40,3329294528
407,21,Ticks_Linear_5,257,5,42,127,3330023768
407,21,Ticks_Linear_5,258,1,48,43,3330035948
407,21,Ticks_Linear_5,259,5,42,127,3330764100
407,21,Ticks_Linear_5,260,1,48,44,3330769316
407,21,Ticks_Linear_5,261,1,48,41,3331502488
407,21,Ticks_Linear_5,262,5,42,127,3331504284
407,21,Ticks_Linear_5,263,5,42,127,3332243952
407,21,Ticks_Linear_5,264,1,48,45,3332275604
407,21,Ticks_Linear_5,265,1,48,43,3332964920
407,21,Ticks_Linear_5,266,5,42,127,3332984132
407,21,Ticks_Linear_5,267,1,48,45,3333698668
407,21,Ticks_Linear_5,268,5,42,127,3333723496
407,21,Ticks_Linear_5,269,1,48,48,3334472512
407,21,Ticks_Linear_5,270,5,42,127,3334474096
407,21,Ticks_Linear_5,271,5,42,127,3335223576
407,21,Ticks_Linear_5,272,1,48,43,3335235684
407,21,Ticks_Linear_5,273,1,48,48,3335972888
407,21,Ticks_Linear_5,274,5,42,127,3335974760
407,21,Ticks_Linear_5,275,1,48,48,3336694968
407,21,Ticks_Linear_5,276,5,42,127,3336724012
407,21,Ticks_Linear_5,277,5,42,127,3337474320
407,21,Ticks_Linear_5,278,1,48,47,3337490688
407,21,Ticks_Linear_5,279,1,48,49,3338218472
407,21,Ticks_Linear_5,280,5,42,127,3338243556
407,21,Ticks_Linear_5,281,1,48,41,3338965924
407,21,Ticks_Linear_5,282,5,42,127,3339004188
407,21,Ticks_Linear_5,283,1,48,51,3339751580
407,21,Ticks_Linear_5,284,5,42,127,3339764044
407,21,Ticks_Linear_5,285,1,48,55,3340498872
407,21,Ticks_Linear_5,286,5,42,127,3340523780
407,21,Ticks_Linear_5,287,5,42,127,3341283896
407,21,Ticks_Linear_5,288,1,48,43,3341288960
407,21,Ticks_Linear_5,289,1,48,54,3342043732
407,21,Ticks_Linear_5,290,5,42,127,3342053656
407,21,Ticks_Linear_5,291,1,48,55,3342766396
407,21,Ticks_Linear_5,292,5,42,127,3342823800
407,21,Ticks_Linear_5,293,1,48,46,3343575924
407,21,Ticks_Linear_5,294,5,42,127,3343593792
407,21,Ticks_Linear_5,295,1,48,42,3344350484
407,21,Ticks_Linear_5,296,5,42,127,3344363784
407,21,Ticks_Linear_5,297,1,48,51,3345081696
407,21,Ticks_Linear_5,298,5,42,127,3345134004
407,21,Ticks_Linear_5,299,1,48,46,3345861412
407,21,Ticks_Linear_5,300,5,42,127,3345914184
407,21,Ticks_Linear_5,301,1,48,41,3346660364
407,21,Ticks_Linear_5,302,5,42,127,3346693684
407,21,Ticks_Linear_5,303,1,48,47,3347398084
407,21,Ticks_Linear_5,304,5,42,127,3347473788
407,21,Ticks_Linear_5,305,1,48,39,3348223224
407,21,Ticks_Linear_5,306,5,42,127,3348254188
407,21,Ticks_Linear_5,307,1,48,48,3349018368
407,21,Ticks_Linear_5,308,5,42,127,3349034440
407,21,Ticks_Linear_5,309,1,48,36,3349769272
407,21,Ticks_Linear_5,310,5,42,127,3349823828
407,21,Ticks_Linear_5,311,1,48,42,3350583452
407,21,Ticks_Linear_5,312,5,42,127,3350614340
407,21,Ticks_Linear_5,313,1,48,43,3351373888
407,21,Ticks_Linear_5,314,5,42,127,3351403808
407,21,Ticks_Linear_5,315,1,48,34,3352088760
407,21,Ticks_Linear_5,316,5,42,127,3352194376
407,21,Ticks_Linear_5,317,5,42,127,3352994272
407,21,Ticks_Linear_5,318,1,48,34,3353089080
407,21,Ticks_Linear_5,319,5,42,127,3353793844
407,21,Ticks_Linear_5,320,1,48,36,3353821228
407,21,Ticks_Linear_5,321,1,48,46,3354575324
407,21,Ticks_Linear_5,322,5,42,127,3354593712
407,21,Ticks_Linear_5,323,5,42,127,3355394292
407,21,Ticks_Linear_5,324,1,48,32,3355423624
407,21,Ticks_Linear_5,325,5,42,127,3356204348
407,21,Ticks_Linear_5,326,1,48,49,3356210980
407,21,Ticks_Linear_5,327,1,48,44,3356995640
407,21,Ticks_Linear_5,328,5,42,127,3357004288
407,21,Ticks_Linear_5,329,1,48,48,3357788396
407,21,Ticks_Linear_5,330,5,42,127,3357814420
407,21,Ticks_Linear_5,331,1,48,50,3358598748
407,21,Ticks_Linear_5,332,5,42,127,3358624104
407,21,Ticks_Linear_5,333,1,48,49,3359405816
407,21,Ticks_Linear_5,334,5,42,127,3359434240
407,21,Ticks_Linear_5,335,5,42,127,3360244152
407,21,Ticks_Linear_5,336,1,48,47,3360257856
407,21,Ticks_Linear_5,337,5,42,127,3361054088
407,21,Ticks_Linear_5,0,9999,9999,9999,3251821684
407,21,Ticks_Linear_5,1,9999,9999,9999,3252301936
407,21,Ticks_Linear_5,2,9999,9999,9999,3252781120
407,21,Ticks_Linear_5,3,9999,9999,9999,3253261424
407,21,Ticks_Linear_5,4,9999,9999,9999,3253741696
407,21,Ticks_Linear_5,5,9999,9999,9999,3254231136
407,21,Ticks_Linear_5,6,9999,9999,9999,3254721632
407,21,Ticks_Linear_5,7,9999,9999,9999,3255211088
407,21,Ticks_Linear_5,8,9999,9999,9999,3255701624
407,21,Ticks_Linear_5,9,9999,9999,9999,3256192116
407,21,Ticks_Linear_5,10,9999,9999,9999,3256702072
407,21,Ticks_Linear_5,11,9999,9999,9999,3257201772
407,21,Ticks_Linear_5,12,9999,9999,9999,3257701472
407,21,Ticks_Linear_5,13,9999,9999,9999,3258201180
407,21,Ticks_Linear_5,14,9999,9999,9999,3258701920
407,21,Ticks_Linear_5,15,9999,9999,9999,3259211876
407,21,Ticks_Linear_5,16,9999,9999,9999,3259721836
407,21,Ticks_Linear_5,17,9999,9999,9999,3260231796
407,21,Ticks_Linear_5,18,9999,9999,9999,3260741756
407,21,Ticks_Linear_5,19,9999,9999,9999,3261251640
407,21,Ticks_Linear_5,20,9999,9999,9999,3261771860
407,21,Ticks_Linear_5,21,9999,9999,9999,3262292080
407,21,Ticks_Linear_5,22,9999,9999,9999,3262811252
407,21,Ticks_Linear_5,23,9999,9999,9999,3263331392
407,21,Ticks_Linear_5,24,9999,9999,9999,3263851612
407,21,Ticks_Linear_5,25,9999,9999,9999,3264382016
407,21,Ticks_Linear_5,26,9999,9999,9999,3264911452
407,21,Ticks_Linear_5,27,9999,9999,9999,3265441852
407,21,Ticks_Linear_5,28,9999,9999,9999,3265971284
407,21,Ticks_Linear_5,29,9999,9999,9999,3266501752
407,21,Ticks_Linear_5,30,9999,9999,9999,3267041368
407,21,Ticks_Linear_5,31,9999,9999,9999,3267582032
407,21,Ticks_Linear_5,32,9999,9999,9999,3268121672
407,21,Ticks_Linear_5,33,9999,9999,9999,3268661360
407,21,Ticks_Linear_5,34,9999,9999,9999,3269202024
407,21,Ticks_Linear_5,35,9999,9999,9999,3269751896
407,21,Ticks_Linear_5,36,9999,9999,9999,3270301772
407,21,Ticks_Linear_5,37,9999,9999,9999,3270851648
407,21,Ticks_Linear_5,38,9999,9999,9999,3271401528
407,21,Ticks_Linear_5,39,9999,9999,9999,3271951428
407,21,Ticks_Linear_5,40,9999,9999,9999,3272511556
407,21,Ticks_Linear_5,41,9999,9999,9999,3273071692
407,21,Ticks_Linear_5,42,9999,9999,9999,3273631824
407,21,Ticks_Linear_5,43,9999,9999,9999,3274191956
407,21,Ticks_Linear_5,44,9999,9999,9999,3274752116
407,21,Ticks_Linear_5,45,9999,9999,9999,3275331644
407,21,Ticks_Linear_5,46,9999,9999,9999,3275902040
407,21,Ticks_Linear_5,47,9999,9999,9999,3276471392
407,21,Ticks_Linear_5,48,9999,9999,9999,3277041780
407,21,Ticks_Linear_5,49,9999,9999,9999,3277611076
407,21,Ticks_Linear_5,50,9999,9999,9999,3278191724
407,21,Ticks_Linear_5,51,9999,9999,9999,3278771256
407,21,Ticks_Linear_5,52,9999,9999,9999,3279351904
407,21,Ticks_Linear_5,53,9999,9999,9999,3279931464
407,21,Ticks_Linear_5,54,9999,9999,9999,3280512116
407,21,Ticks_Linear_5,55,9999,9999,9999,3281111116
407,21,Ticks_Linear_5,56,9999,9999,9999,3281701980
407,21,Ticks_Linear_5,57,9999,9999,9999,3282291768
407,21,Ticks_Linear_5,58,9999,9999,9999,3282881640
407,21,Ticks_Linear_5,59,9999,9999,9999,3283471448
407,21,Ticks_Linear_5,60,9999,9999,9999,3284071492
407,21,Ticks_Linear_5,61,9999,9999,9999,3284671544
407,21,Ticks_Linear_5,62,9999,9999,9999,3285271616
407,21,Ticks_Linear_5,63,9999,9999,9999,3285871672
407,21,Ticks_Linear_5,64,9999,9999,9999,3286471792
407,21,Ticks_Linear_5,65,9999,9999,9999,3287082052
407,21,Ticks_Linear_5,66,9999,9999,9999,3287691388
407,21,Ticks_Linear_5,67,9999,9999,9999,3288301696
407,21,Ticks_Linear_5,68,9999,9999,9999,3288911944
407,21,Ticks_Linear_5,69,9999,9999,9999,3289521208
407,21,Ticks_Linear_5,70,9999,9999,9999,3290141800
407,21,Ticks_Linear_5,71,9999,9999,9999,3290761320
407,21,Ticks_Linear_5,72,9999,9999,9999,3291381816
407,21,Ticks_Linear_5,73,9999,9999,9999,3292001360
407,21,Ticks_Linear_5,74,9999,9999,9999,3292621924
407,21,Ticks_Linear_5,75,9999,9999,9999,3293251660
407,21,Ticks_Linear_5,76,9999,9999,9999,3293881432
407,21,Ticks_Linear_5,77,9999,9999,9999,3294511168
407,21,Ticks_Linear_5,78,9999,9999,9999,3295141996
407,21,Ticks_Linear_5,79,9999,9999,9999,3295771724
407,21,Ticks_Linear_5,80,9999,9999,9999,3296411764
407,21,Ticks_Linear_5,81,9999,9999,9999,3297051748
407,21,Ticks_Linear_5,82,9999,9999,9999,3297691712
407,21,Ticks_Linear_5,83,9999,9999,9999,3298331776
407,21,Ticks_Linear_5,84,9999,9999,9999,3298971732
407,21,Ticks_Linear_5,85,9999,9999,9999,3299621988
407,21,Ticks_Linear_5,86,9999,9999,9999,3300271164
407,21,Ticks_Linear_5,87,9999,9999,9999,3300921404
407,21,Ticks_Linear_5,88,9999,9999,9999,3301571700
407,21,Ticks_Linear_5,89,9999,9999,9999,3302221948
407,21,Ticks_Linear_5,90,9999,9999,9999,3302881384
407,21,Ticks_Linear_5,91,9999,9999,9999,3303541816
407,21,Ticks_Linear_5,92,9999,9999,9999,3304201280
407,21,Ticks_Linear_5,93,9999,9999,9999,3304861764
407,21,Ticks_Linear_5,94,9999,9999,9999,3305521220
407,21,Ticks_Linear_5,95,9999,9999,9999,3306191960
407,21,Ticks_Linear_5,96,9999,9999,9999,3306861684
407,21,Ticks_Linear_5,97,9999,9999,9999,3307531332
407,21,Ticks_Linear_5,98,9999,9999,9999,3308202064
407,21,Ticks_Linear_5,99,9999,9999,9999,3308871780
407,21,Ticks_Linear_5,100,9999,9999,9999,3309551736
407,21,Ticks_Linear_5,101,9999,9999,9999,3310231640
407,21,Ticks_Linear_5,102,9999,9999,9999,3310911544
407,21,Ticks_Linear_5,103,9999,9999,9999,3311591500
407,21,Ticks_Linear_5,104,9999,9999,9999,3312271484
407,21,Ticks_Linear_5,105,9999,9999,9999,3312961640
407,21,Ticks_Linear_5,106,9999,9999,9999,3313651776
407,21,Ticks_Linear_5,107,9999,9999,9999,3314342016
407,21,Ticks_Linear_5,108,9999,9999,9999,3315031136
407,21,Ticks_Linear_5,109,9999,9999,9999,3315721300
407,21,Ticks_Linear_5,110,9999,9999,9999,3316421692
407,21,Ticks_Linear_5,111,9999,9999,9999,3317121140
407,21,Ticks_Linear_5,112,9999,9999,9999,3317821496
407,21,Ticks_Linear_5,113,9999,9999,9999,3318521968
407,21,Ticks_Linear_5,114,9999,9999,9999,3319221340
407,21,Ticks_Linear_5,115,9999,9999,9999,3319932020
407,21,Ticks_Linear_5,116,9999,9999,9999,3320641664
407,21,Ticks_Linear_5,117,9999,9999,9999,3321351224
407,21,Ticks_Linear_5,118,9999,9999,9999,3322061948
407,21,Ticks_Linear_5,119,9999,9999,9999,3322771512
407,21,Ticks_Linear_5,120,9999,9999,9999,3323491408
407,21,Ticks_Linear_5,121,9999,9999,9999,3324211292
407,21,Ticks_Linear_5,122,9999,9999,9999,3324931184
407,21,Ticks_Linear_5,123,9999,9999,9999,3325652032
407,21,Ticks_Linear_5,124,9999,9999,9999,3326371924
407,21,Ticks_Linear_5,125,9999,9999,9999,3327102072
407,21,Ticks_Linear_5,126,9999,9999,9999,3327831104
407,21,Ticks_Linear_5,127,9999,9999,9999,3328561256
407,21,Ticks_Linear_5,128,9999,9999,9999,3329291340
407,21,Ticks_Linear_5,129,9999,9999,9999,3330021468
407,21,Ticks_Linear_5,130,9999,9999,9999,3330761804
407,21,Ticks_Linear_5,131,9999,9999,9999,3331501168
407,21,Ticks_Linear_5,132,9999,9999,9999,3332241504
407,21,Ticks_Linear_5,133,9999,9999,9999,3332981832
407,21,Ticks_Linear_5,134,9999,9999,9999,3333721200
407,21,Ticks_Linear_5,135,9999,9999,9999,3334471804
407,21,Ticks_Linear_5,136,9999,9999,9999,3335221352
407,21,Ticks_Linear_5,137,9999,9999,9999,3335971948
407,21,Ticks_Linear_5,138,9999,9999,9999,3336721492
407,21,Ticks_Linear_5,139,9999,9999,9999,3337472096
407,21,Ticks_Linear_5,140,9999,9999,9999,3338241108
407,21,Ticks_Linear_5,141,9999,9999,9999,3339001940
407,21,Ticks_Linear_5,142,9999,9999,9999,3339761748
407,21,Ticks_Linear_5,143,9999,9999,9999,3340521556
407,21,Ticks_Linear_5,144,9999,9999,9999,3341281372
407,21,Ticks_Linear_5,145,9999,9999,9999,3342051432
407,21,Ticks_Linear_5,146,9999,9999,9999,3342821500
407,21,Ticks_Linear_5,147,9999,9999,9999,3343591496
407,21,Ticks_Linear_5,148,9999,9999,9999,3344361560
407,21,Ticks_Linear_5,149,9999,9999,9999,3345131628
407,21,Ticks_Linear_5,150,9999,9999,9999,3345911884
407,21,Ticks_Linear_5,151,9999,9999,9999,3346691164
407,21,Ticks_Linear_5,152,9999,9999,9999,3347471416
407,21,Ticks_Linear_5,153,9999,9999,9999,3348251740
407,21,Ticks_Linear_5,154,9999,9999,9999,3349031992
407,21,Ticks_Linear_5,155,9999,9999,9999,3349821532
407,21,Ticks_Linear_5,156,9999,9999,9999,3350612044
407,21,Ticks_Linear_5,157,9999,9999,9999,3351401584
407,21,Ticks_Linear_5,158,9999,9999,9999,3352192076
407,21,Ticks_Linear_5,159,9999,9999,9999,3352991824
407,21,Ticks_Linear_5,160,9999,9999,9999,3353791548
407,21,Ticks_Linear_5,161,9999,9999,9999,3354591340
407,21,Ticks_Linear_5,162,9999,9999,9999,3355392068
407,21,Ticks_Linear_5,163,9999,9999,9999,3356202048
407,21,Ticks_Linear_5,164,9999,9999,9999,3357001844
407,21,Ticks_Linear_5,165,9999,9999,9999,3357811824
407,21,Ticks_Linear_5,166,9999,9999,9999,3358621808
407,21,Ticks_Linear_5,167,9999,9999,9999,3359431792
407,21,Ticks_Linear_5,168,9999,9999,9999,3360241780
407,21,Ticks_Linear_5,169,9999,9999,9999,3361051716
408,20,Ticks_Linear_8,0,5,42,127,3373641036
408,20,Ticks_Linear_8,1,1,48,34,3374386132
408,20,Ticks_Linear_8,2,5,42,127,3374461220
408,20,Ticks_Linear_8,3,1,48,49,3375269592
408,20,Ticks_Linear_8,4,5,42,127,3375280564
408,20,Ticks_Linear_8,5,5,42,127,3376100664
408,20,Ticks_Linear_8,6,1,48,48,3376117628
408,20,Ticks_Linear_8,7,5,42,127,3376920860
408,20,Ticks_Linear_8,8,1,48,46,3376956096
408,20,Ticks_Linear_8,9,5,42,127,3377730988
408,20,Ticks_Linear_8,10,1,48,38,3377775744
408,20,Ticks_Linear_8,11,1,48,47,3378540144
408,20,Ticks_Linear_8,12,5,42,127,3378541864
408,20,Ticks_Linear_8,13,1,48,55,3379320580
408,20,Ticks_Linear_8,14,5,42,127,3379350800
408,20,Ticks_Linear_8,15,1,48,64,3380118812
408,20,Ticks_Linear_8,16,5,42,127,3380160856
408,20,Ticks_Linear_8,17,1,48,58,3380933576
408,20,Ticks_Linear_8,18,5,42,127,3380970844
408,20,Ticks_Linear_8,19,1,48,56,3381746032
408,20,Ticks_Linear_8,20,5,42,127,3381770740
408,20,Ticks_Linear_8,21,5,42,127,3382571440
408,20,Ticks_Linear_8,22,1,48,65,3382610140
408,20,Ticks_Linear_8,23,1,48,53,3383357932
408,20,Ticks_Linear_8,24,5,42,127,3383371528
408,20,Ticks_Linear_8,25,1,48,40,3384142756
408,20,Ticks_Linear_8,26,5,42,127,3384170880
408,20,Ticks_Linear_8,27,5,42,127,3384970612
408,20,Ticks_Linear_8,28,1,48,51,3384974252
408,20,Ticks_Linear_8,29,1,48,54,3385742504
408,20,Ticks_Linear_8,30,5,42,127,3385761192
408,20,Ticks_Linear_8,31,1,48,57,3386516308
408,20,Ticks_Linear_8,32,5,42,127,3386550656
408,20,Ticks_Linear_8,33,1,48,46,3387334688
408,20,Ticks_Linear_8,34,5,42,127,3387341244
408,20,Ticks_Linear_8,35,1,48,57,3388084460
408,20,Ticks_Linear_8,36,5,42,127,3388130560
408,20,Ticks_Linear_8,37,1,48,61,3388914584
408,20,Ticks_Linear_8,38,5,42,127,3388921244
408,20,Ticks_Linear_8,39,5,42,127,3389700384
408,20,Ticks_Linear_8,40,1,48,49,3389709272
408,20,Ticks_Linear_8,41,1,48,54,3390409800
408,20,Ticks_Linear_8,42,5,42,127,3390480780
408,20,Ticks_Linear_8,43,1,48,56,3391216100
408,20,Ticks_Linear_8,44,5,42,127,3391261252
408,20,Ticks_Linear_8,45,1,48,55,3392013008
408,20,Ticks_Linear_8,46,5,42,127,3392041208
408,20,Ticks_Linear_8,47,5,42,127,3392820496
408,20,Ticks_Linear_8,48,1,48,56,3392877976
408,20,Ticks_Linear_8,49,1,48,52,3393522416
408,20,Ticks_Linear_8,50,5,42,127,3393590556
408,20,Ticks_Linear_8,51,1,48,58,3394308988
408,20,Ticks_Linear_8,52,5,42,127,3394360624
408,20,Ticks_Linear_8,53,1,48,54,3395077328
408,20,Ticks_Linear_8,54,5,42,127,3395130840
408,20,Ticks_Linear_8,55,1,48,51,3395843724
408,20,Ticks_Linear_8,56,5,42,127,3395900908
408,20,Ticks_Linear_8,57,1,48,56,3396641808
408,20,Ticks_Linear_8,58,5,42,127,3396670976
408,20,Ticks_Linear_8,59,1,48,57,3397359880
408,20,Ticks_Linear_8,60,5,42,127,3397430636
408,20,Ticks_Linear_8,61,1,48,52,3398137672
408,20,Ticks_Linear_8,62,5,42,127,3398190368
408,20,Ticks_Linear_8,63,1,48,55,3398930144
408,20,Ticks_Linear_8,64,5,42,127,3398951224
408,20,Ticks_Linear_8,65,5,42,127,3399711116
408,20,Ticks_Linear_8,66,1,48,46,3399712080
408,20,Ticks_Linear_8,67,1,48,59,3400456496
408,20,Ticks_Linear_8,68,5,42,127,3400470920
408,20,Ticks_Linear_8,69,1,48,51,3401215700
408,20,Ticks_Linear_8,70,5,42,127,3401220392
408,20,Ticks_Linear_8,71,5,42,127,3401971044
408,20,Ticks_Linear_8,72,1,48,55,3401987888
408,20,Ticks_Linear_8,73,1,48,57,3402717020
408,20,Ticks_Linear_8,74,5,42,127,3402720736
408,20,Ticks_Linear_8,75,5,42,127,3403471192
408,20,Ticks_Linear_8,76,1,48,52,3403505608
408,20,Ticks_Linear_8,77,1,48,49,3404081184
408,20,Ticks_Linear_8,78,5,42,127,3404220796
408,20,Ticks_Linear_8,79,5,42,127,3404961228
408,20,Ticks_Linear_8,80,1,48,43,3404971836
408,20,Ticks_Linear_8,81,5,42,127,3405700816
408,20,Ticks_Linear_8,82,1,48,59,3405725272
408,20,Ticks_Linear_8,83,1,48,56,3406385460
408,20,Ticks_Linear_8,84,5,42,127,3406440772
408,20,Ticks_Linear_8,85,1,48,48,3407161676
408,20,Ticks_Linear_8,86,5,42,127,3407181184
408,20,Ticks_Linear_8,87,1,48,49,3407878652
408,20,Ticks_Linear_8,88,5,42,127,3407920700
408,20,Ticks_Linear_8,89,1,48,48,3408636576
408,20,Ticks_Linear_8,90,5,42,127,3408650552
408,20,Ticks_Linear_8,91,1,48,42,3409366332
408,20,Ticks_Linear_8,92,5,42,127,3409380680
408,20,Ticks_Linear_8,93,1,48,42,3410070428
408,20,Ticks_Linear_8,94,5,42,127,3410110832
408,20,Ticks_Linear_8,95,1,48,50,3410805820
408,20,Ticks_Linear_8,96,5,42,127,3410840912
408,20,Ticks_Linear_8,97,1,48,43,3411568876
408,20,Ticks_Linear_8,98,5,42,127,3411570992
408,20,Ticks_Linear_8,99,1,48,58,3412255564
408,20,Ticks_Linear_8,100,5,42,127,3412290884
408,20,Ticks_Linear_8,101,1,48,57,3412992388
408,20,Ticks_Linear_8,102,5,42,127,3413010776
408,20,Ticks_Linear_8,103,5,42,127,3413730800
408,20,Ticks_Linear_8,104,1,48,47,3413752072
408,20,Ticks_Linear_8,105,1,48,46,3414435440
408,20,Ticks_Linear_8,106,5,42,127,3414450616
408,20,Ticks_Linear_8,107,5,42,127,3415170664
408,20,Ticks_Linear_8,108,1,48,52,3415176028
408,20,Ticks_Linear_8,109,1,48,53,3415846844
408,20,Ticks_Linear_8,110,5,42,127,3415881196
408,20,Ticks_Linear_8,111,1,48,54,3416577604
408,20,Ticks_Linear_8,112,5,42,127,3416590832
408,20,Ticks_Linear_8,113,5,42,127,3417301344
408,20,Ticks_Linear_8,114,1,48,57,3417304012
408,20,Ticks_Linear_8,115,5,42,127,3418010904
408,20,Ticks_Linear_8,116,1,48,54,3418019644
408,20,Ticks_Linear_8,117,1,48,48,3418711876
408,20,Ticks_Linear_8,118,5,42,127,3418720608
408,20,Ticks_Linear_8,119,1,48,43,3419370716
408,20,Ticks_Linear_8,120,5,42,127,3419421324
408,20,Ticks_Linear_8,121,1,48,43,3420089712
408,20,Ticks_Linear_8,122,5,42,127,3420120380
408,20,Ticks_Linear_8,123,1,48,46,3420793052
408,20,Ticks_Linear_8,124,5,42,127,3420820876
408,20,Ticks_Linear_8,125,1,48,52,3421477292
408,20,Ticks_Linear_8,126,5,42,127,3421521224
408,20,Ticks_Linear_8,127,1,48,47,3422203332
408,20,Ticks_Linear_8,128,5,42,127,3422220600
408,20,Ticks_Linear_8,129,1,48,46,3422891676
408,20,Ticks_Linear_8,130,5,42,127,3422910888
408,20,Ticks_Linear_8,131,1,48,39,3423592396
408,20,Ticks_Linear_8,132,5,42,127,3423601124
408,20,Ticks_Linear_8,133,1,48,41,3424269156
408,20,Ticks_Linear_8,134,5,42,127,3424291212
408,20,Ticks_Linear_8,135,1,48,33,3424961992
408,20,Ticks_Linear_8,136,5,42,127,3424981424
408,20,Ticks_Linear_8,137,1,48,42,3425635672
408,20,Ticks_Linear_8,138,5,42,127,3425670544
408,20,Ticks_Linear_8,139,1,48,40,3426340076
408,20,Ticks_Linear_8,140,5,42,127,3426350596
408,20,Ticks_Linear_8,141,1,48,43,3427001904
408,20,Ticks_Linear_8,142,5,42,127,3427031372
408,20,Ticks_Linear_8,143,1,48,45,3427650056
408,20,Ticks_Linear_8,144,5,42,127,3427711424
408,20,Ticks_Linear_8,145,1,48,52,3428384620
408,20,Ticks_Linear_8,146,5,42,127,3428391256
408,20,Ticks_Linear_8,147,5,42,127,3429071216
408,20,Ticks_Linear_8,148,1,48,37,3429086012
408,20,Ticks_Linear_8,149,5,42,127,3429741084
408,20,Ticks_Linear_8,150,1,48,41,3429745772
408,20,Ticks_Linear_8,151,5,42,127,3430410504
408,20,Ticks_Linear_8,152,1,48,49,3430421040
408,20,Ticks_Linear_8,153,1,48,47,3431065768
408,20,Ticks_Linear_8,154,5,42,127,3431081312
408,20,Ticks_Linear_8,155,5,42,127,3431750968
408,20,Ticks_Linear_8,156,1,48,40,3431755724
408,20,Ticks_Linear_8,157,5,42,127,3432420664
408,20,Ticks_Linear_8,158,1,48,40,3432421628
408,20,Ticks_Linear_8,159,1,48,51,3433044052
408,20,Ticks_Linear_8,160,5,42,127,3433081312
408,20,Ticks_Linear_8,161,1,48,42,3433725596
408,20,Ticks_Linear_8,162,5,42,127,3433740772
408,20,Ticks_Linear_8,163,1,48,45,3434396188
408,20,Ticks_Linear_8,164,5,42,127,3434401104
408,20,Ticks_Linear_8,165,1,48,39,3435046660
408,20,Ticks_Linear_8,166,5,42,127,3435060640
408,20,Ticks_Linear_8,167,1,48,49,3435692020
408,20,Ticks_Linear_8,168,5,42,127,3435721048
408,20,Ticks_Linear_8,169,1,48,40,3436363464
408,20,Ticks_Linear_8,170,5,42,127,3436371220
408,20,Ticks_Linear_8,171,1,48,48,3436998868
408,20,Ticks_Linear_8,172,5,42,127,3437020768
408,20,Ticks_Linear_8,173,1,48,45,3437653896
408,20,Ticks_Linear_8,174,5,42,127,3437670868
408,20,Ticks_Linear_8,175,1,48,43,3438311912
408,20,Ticks_Linear_8,176,5,42,127,3438321016
408,20,Ticks_Linear_8,177,5,42,127,3438971272
408,20,Ticks_Linear_8,178,1,48,44,3438981360
408,20,Ticks_Linear_8,179,5,42,127,3439611112
408,20,Ticks_Linear_8,180,1,48,51,3439625388
408,20,Ticks_Linear_8,181,1,48,53,3440231256
408,20,Ticks_Linear_8,182,5,42,127,3440251364
408,20,Ticks_Linear_8,183,5,42,127,3440891212
408,20,Ticks_Linear_8,184,1,48,50,3440925856
408,20,Ticks_Linear_8,185,1,48,57,3441504688
408,20,Ticks_Linear_8,186,5,42,127,3441531168
408,20,Ticks_Linear_8,187,1,48,53,3442147944
408,20,Ticks_Linear_8,188,5,42,127,3442171236
408,20,Ticks_Linear_8,189,1,48,49,3442778440
408,20,Ticks_Linear_8,190,5,42,127,3442801160
408,20,Ticks_Linear_8,191,1,48,52,3443394580
408,20,Ticks_Linear_8,192,5,42,127,3443430716
408,20,Ticks_Linear_8,193,1,48,45,3444044596
408,20,Ticks_Linear_8,194,5,42,127,3444060520
408,20,Ticks_Linear_8,195,1,48,54,3444662024
408,20,Ticks_Linear_8,196,5,42,127,3444691496
408,20,Ticks_Linear_8,197,1,48,52,3445309956
408,20,Ticks_Linear_8,198,5,42,127,3445321076
408,20,Ticks_Linear_8,199,5,42,127,3445940456
408,20,Ticks_Linear_8,200,1,48,50,3445946188
408,20,Ticks_Linear_8,201,5,42,127,3446561272
408,20,Ticks_Linear_8,202,1,48,49,3446570760
408,20,Ticks_Linear_8,203,1,48,50,3447142100
408,20,Ticks_Linear_8,204,5,42,127,3447180708
408,20,Ticks_Linear_8,205,1,48,48,3447770536
408,20,Ticks_Linear_8,206,5,42,127,3447801376
408,20,Ticks_Linear_8,207,1,48,44,3448401388
408,20,Ticks_Linear_8,208,5,42,127,3448420600
408,20,Ticks_Linear_8,209,1,48,45,3449001732
408,20,Ticks_Linear_8,210,5,42,127,3449031056
408,20,Ticks_Linear_8,211,1,48,50,3449615808
408,20,Ticks_Linear_8,212,5,42,127,3449641240
408,20,Ticks_Linear_8,213,1,48,58,3450193172
408,20,Ticks_Linear_8,214,5,42,127,3450250648
408,20,Ticks_Linear_8,215,5,42,127,3450860816
408,20,Ticks_Linear_8,216,1,48,54,3450863480
408,20,Ticks_Linear_8,217,5,42,127,3451471372
408,20,Ticks_Linear_8,218,1,48,49,3451488804
408,20,Ticks_Linear_8,219,1,48,45,3452055416
408,20,Ticks_Linear_8,220,5,42,127,3452071264
408,20,Ticks_Linear_8,221,1,48,44,3452631584
408,20,Ticks_Linear_8,222,5,42,127,3452671264
408,20,Ticks_Linear_8,223,1,48,54,3453251056
408,20,Ticks_Linear_8,224,5,42,127,3453271388
408,20,Ticks_Linear_8,225,1,48,47,3453857312
408,20,Ticks_Linear_8,226,5,42,127,3453870392
408,20,Ticks_Linear_8,227,1,48,45,3454448764
408,20,Ticks_Linear_8,228,5,42,127,3454470540
408,20,Ticks_Linear_8,229,5,42,127,3455061232
408,20,Ticks_Linear_8,230,1,48,51,3455067940
408,20,Ticks_Linear_8,231,1,48,53,3455619000
408,20,Ticks_Linear_8,232,5,42,127,3455651312
408,20,Ticks_Linear_8,233,1,48,45,3456214400
408,20,Ticks_Linear_8,234,5,42,127,3456240952
408,20,Ticks_Linear_8,235,1,48,55,3456772960
408,20,Ticks_Linear_8,236,5,42,127,3456830892
408,20,Ticks_Linear_8,237,1,48,58,3457388280
408,20,Ticks_Linear_8,238,5,42,127,3457420608
408,20,Ticks_Linear_8,239,1,48,52,3457985864
408,20,Ticks_Linear_8,240,5,42,127,3458001260
408,20,Ticks_Linear_8,241,1,48,42,3458533568
408,20,Ticks_Linear_8,242,5,42,127,3458581036
408,20,Ticks_Linear_8,243,1,48,46,3459118744
408,20,Ticks_Linear_8,244,5,42,127,3459160420
408,20,Ticks_Linear_8,245,1,48,49,3459718796
408,20,Ticks_Linear_8,246,5,42,127,3459741072
408,20,Ticks_Linear_8,247,1,48,48,3460301316
408,20,Ticks_Linear_8,248,5,42,127,3460320604
408,20,Ticks_Linear_8,249,1,48,44,3460880724
408,20,Ticks_Linear_8,250,5,42,127,3460890948
408,20,Ticks_Linear_8,251,5,42,127,3461461348
408,20,Ticks_Linear_8,252,1,48,44,3461466564
408,20,Ticks_Linear_8,253,1,48,49,3462004356
408,20,Ticks_Linear_8,254,5,42,127,3462031060
408,20,Ticks_Linear_8,255,1,48,42,3462541276
408,20,Ticks_Linear_8,256,5,42,127,3462601156
408,20,Ticks_Linear_8,257,1,48,37,3463159404
408,20,Ticks_Linear_8,258,5,42,127,3463170452
408,20,Ticks_Linear_8,259,5,42,127,3463730740
408,20,Ticks_Linear_8,260,1,48,40,3463731708
408,20,Ticks_Linear_8,261,1,48,43,3464289972
408,20,Ticks_Linear_8,262,5,42,127,3464291768
408,20,Ticks_Linear_8,263,1,48,43,3464842428
408,20,Ticks_Linear_8,264,5,42,127,3464851076
408,20,Ticks_Linear_8,265,5,42,127,3465410992
408,20,Ticks_Linear_8,266,1,48,40,3465434928
408,20,Ticks_Linear_8,267,1,48,43,3465969924
408,20,Ticks_Linear_8,268,5,42,127,3465971872
408,20,Ticks_Linear_8,269,1,48,42,3466492572
408,20,Ticks_Linear_8,270,5,42,127,3466521144
408,20,Ticks_Linear_8,271,1,48,44,3467047684
408,20,Ticks_Linear_8,272,5,42,127,3467071020
408,20,Ticks_Linear_8,273,1,48,41,3467609024
408,20,Ticks_Linear_8,274,5,42,127,3467620744
408,20,Ticks_Linear_8,275,1,48,48,3468128720
408,20,Ticks_Linear_8,276,5,42,127,3468170692
408,20,Ticks_Linear_8,277,1,48,49,3468690272
408,20,Ticks_Linear_8,278,5,42,127,3468720792
408,20,Ticks_Linear_8,279,5,42,127,3469261164
408,20,Ticks_Linear_8,280,1,48,42,3469280912
408,20,Ticks_Linear_8,281,1,48,45,3469794736
408,20,Ticks_Linear_8,282,5,42,127,3469800772
408,20,Ticks_Linear_8,283,1,48,46,3470310164
408,20,Ticks_Linear_8,284,5,42,127,3470340336
408,20,Ticks_Linear_8,285,1,48,40,3470858180
408,20,Ticks_Linear_8,286,5,42,127,3470881000
408,20,Ticks_Linear_8,287,1,48,47,3471391144
408,20,Ticks_Linear_8,288,5,42,127,3471420688
408,20,Ticks_Linear_8,289,1,48,38,3471944680
408,20,Ticks_Linear_8,290,5,42,127,3471951168
408,20,Ticks_Linear_8,291,1,48,41,3472480152
408,20,Ticks_Linear_8,292,5,42,127,3472481868
408,20,Ticks_Linear_8,293,1,48,42,3472986320
408,20,Ticks_Linear_8,294,5,42,127,3473011000
408,20,Ticks_Linear_8,295,5,42,127,3473540588
408,20,Ticks_Linear_8,296,1,48,39,3473546772
408,20,Ticks_Linear_8,297,1,48,43,3474055132
408,20,Ticks_Linear_8,298,5,42,127,3474070836
408,20,Ticks_Linear_8,299,1,48,43,3474553120
408,20,Ticks_Linear_8,300,5,42,127,3474591128
408,20,Ticks_Linear_8,301,1,48,35,3475088380
408,20,Ticks_Linear_8,302,5,42,127,3475111272
408,20,Ticks_Linear_8,303,5,42,127,3475630748
408,20,Ticks_Linear_8,304,1,48,39,3475640764
408,20,Ticks_Linear_8,305,1,48,35,3476141336
408,20,Ticks_Linear_8,306,5,42,127,3476150512
408,20,Ticks_Linear_8,307,1,48,39,3476645820
408,20,Ticks_Linear_8,308,5,42,127,3476670732
408,20,Ticks_Linear_8,309,1,48,42,3477171964
408,20,Ticks_Linear_8,310,5,42,127,3477180768
408,20,Ticks_Linear_8,311,1,48,45,3477678020
408,20,Ticks_Linear_8,312,5,42,127,3477690800
408,20,Ticks_Linear_8,313,1,48,38,3478180280
408,20,Ticks_Linear_8,314,5,42,127,3478200836
408,20,Ticks_Linear_8,315,1,48,38,3478696892
408,20,Ticks_Linear_8,316,5,42,127,3478710572
408,20,Ticks_Linear_8,317,1,48,39,3479182672
408,20,Ticks_Linear_8,318,5,42,127,3479220608
408,20,Ticks_Linear_8,319,1,48,37,3479704384
408,20,Ticks_Linear_8,320,5,42,127,3479721500
408,20,Ticks_Linear_8,321,1,48,45,3480192776
408,20,Ticks_Linear_8,322,5,42,127,3480221128
408,20,Ticks_Linear_8,323,1,48,44,3480696968
408,20,Ticks_Linear_8,324,5,42,127,3480720752
408,20,Ticks_Linear_8,325,1,48,44,3481184088
408,20,Ticks_Linear_8,326,5,42,127,3481220528
408,20,Ticks_Linear_8,327,1,48,42,3481668504
408,20,Ticks_Linear_8,328,5,42,127,3481721500
408,20,Ticks_Linear_8,329,1,48,44,3482171140
408,20,Ticks_Linear_8,330,5,42,127,3482210720
408,20,Ticks_Linear_8,331,1,48,50,3482687156
408,20,Ticks_Linear_8,332,5,42,127,3482701356
408,20,Ticks_Linear_8,333,5,42,127,3483190580
408,20,Ticks_Linear_8,334,1,48,39,3483201188
408,20,Ticks_Linear_8,335,5,42,127,3483681292
408,20,Ticks_Linear_8,336,1,48,43,3483698872
408,20,Ticks_Linear_8,337,5,42,127,3484170660
408,20,Ticks_Linear_8,0,9999,9999,9999,3373638736
408,20,Ticks_Linear_8,1,9999,9999,9999,3374458996
408,20,Ticks_Linear_8,2,9999,9999,9999,3375278192
408,20,Ticks_Linear_8,3,9999,9999,9999,3376098364
408,20,Ticks_Linear_8,4,9999,9999,9999,3376918632
408,20,Ticks_Linear_8,5,9999,9999,9999,3377728616
408,20,Ticks_Linear_8,6,9999,9999,9999,3378538600
408,20,Ticks_Linear_8,7,9999,9999,9999,3379348576
408,20,Ticks_Linear_8,8,9999,9999,9999,3380158560
408,20,Ticks_Linear_8,9,9999,9999,9999,3380968540
408,20,Ticks_Linear_8,10,9999,9999,9999,3381768292
408,20,Ticks_Linear_8,11,9999,9999,9999,3382569068
408,20,Ticks_Linear_8,12,9999,9999,9999,3383368784
408,20,Ticks_Linear_8,13,9999,9999,9999,3384168508
408,20,Ticks_Linear_8,14,9999,9999,9999,3384968312
408,20,Ticks_Linear_8,15,9999,9999,9999,3385758820
408,20,Ticks_Linear_8,16,9999,9999,9999,3386548284
408,20,Ticks_Linear_8,17,9999,9999,9999,3387338872
408,20,Ticks_Linear_8,18,9999,9999,9999,3388128336
408,20,Ticks_Linear_8,19,9999,9999,9999,3388918848
408,20,Ticks_Linear_8,20,9999,9999,9999,3389698160
408,20,Ticks_Linear_8,21,9999,9999,9999,3390478404
408,20,Ticks_Linear_8,22,9999,9999,9999,3391258732
408,20,Ticks_Linear_8,23,9999,9999,9999,3392038984
408,20,Ticks_Linear_8,24,9999,9999,9999,3392818272
408,20,Ticks_Linear_8,25,9999,9999,9999,3393588332
408,20,Ticks_Linear_8,26,9999,9999,9999,3394358400
408,20,Ticks_Linear_8,27,9999,9999,9999,3395128392
408,20,Ticks_Linear_8,28,9999,9999,9999,3395898460
408,20,Ticks_Linear_8,29,9999,9999,9999,3396668528
408,20,Ticks_Linear_8,30,9999,9999,9999,3397428336
408,20,Ticks_Linear_8,31,9999,9999,9999,3398188144
408,20,Ticks_Linear_8,32,9999,9999,9999,3398948928
408,20,Ticks_Linear_8,33,9999,9999,9999,3399708740
408,20,Ticks_Linear_8,34,9999,9999,9999,3400468544
408,20,Ticks_Linear_8,35,9999,9999,9999,3401218168
408,20,Ticks_Linear_8,36,9999,9999,9999,3401968748
408,20,Ticks_Linear_8,37,9999,9999,9999,3402718292
408,20,Ticks_Linear_8,38,9999,9999,9999,3403468892
408,20,Ticks_Linear_8,39,9999,9999,9999,3404218496
408,20,Ticks_Linear_8,40,9999,9999,9999,3404958780
408,20,Ticks_Linear_8,41,9999,9999,9999,3405698144
408,20,Ticks_Linear_8,42,9999,9999,9999,3406438476
408,20,Ticks_Linear_8,43,9999,9999,9999,3407178812
408,20,Ticks_Linear_8,44,9999,9999,9999,3407918176
408,20,Ticks_Linear_8,45,9999,9999,9999,3408648256
408,20,Ticks_Linear_8,46,9999,9999,9999,3409378380
408,20,Ticks_Linear_8,47,9999,9999,9999,3410108536
408,20,Ticks_Linear_8,48,9999,9999,9999,3410838612
408,20,Ticks_Linear_8,49,9999,9999,9999,3411568728
408,20,Ticks_Linear_8,50,9999,9999,9999,3412288584
408,20,Ticks_Linear_8,51,9999,9999,9999,3413008480
408,20,Ticks_Linear_8,52,9999,9999,9999,3413728352
408,20,Ticks_Linear_8,53,9999,9999,9999,3414448244
408,20,Ticks_Linear_8,54,9999,9999,9999,3415168068
408,20,Ticks_Linear_8,55,9999,9999,9999,3415878748
408,20,Ticks_Linear_8,56,9999,9999,9999,3416588384
408,20,Ticks_Linear_8,57,9999,9999,9999,3417299044
408,20,Ticks_Linear_8,58,9999,9999,9999,3418008680
408,20,Ticks_Linear_8,59,9999,9999,9999,3418718308
408,20,Ticks_Linear_8,60,9999,9999,9999,3419418732
408,20,Ticks_Linear_8,61,9999,9999,9999,3420118080
408,20,Ticks_Linear_8,62,9999,9999,9999,3420818500
408,20,Ticks_Linear_8,63,9999,9999,9999,3421518924
408,20,Ticks_Linear_8,64,9999,9999,9999,3422218300
408,20,Ticks_Linear_8,65,9999,9999,9999,3422908512
408,20,Ticks_Linear_8,66,9999,9999,9999,3423598676
408,20,Ticks_Linear_8,67,9999,9999,9999,3424288840
408,20,Ticks_Linear_8,68,9999,9999,9999,3424979052
408,20,Ticks_Linear_8,69,9999,9999,9999,3425668168
408,20,Ticks_Linear_8,70,9999,9999,9999,3426348148
408,20,Ticks_Linear_8,71,9999,9999,9999,3427029076
408,20,Ticks_Linear_8,72,9999,9999,9999,3427709052
408,20,Ticks_Linear_8,73,9999,9999,9999,3428388960
408,20,Ticks_Linear_8,74,9999,9999,9999,3429068916
408,20,Ticks_Linear_8,75,9999,9999,9999,3429738560
408,20,Ticks_Linear_8,76,9999,9999,9999,3430408280
408,20,Ticks_Linear_8,77,9999,9999,9999,3431079016
408,20,Ticks_Linear_8,78,9999,9999,9999,3431748668
408,20,Ticks_Linear_8,79,9999,9999,9999,3432418364
408,20,Ticks_Linear_8,80,9999,9999,9999,3433078864
408,20,Ticks_Linear_8,81,9999,9999,9999,3433738324
408,20,Ticks_Linear_8,82,9999,9999,9999,3434398804
408,20,Ticks_Linear_8,83,9999,9999,9999,3435058268
408,20,Ticks_Linear_8,84,9999,9999,9999,3435718748
408,20,Ticks_Linear_8,85,9999,9999,9999,3436368996
408,20,Ticks_Linear_8,86,9999,9999,9999,3437018172
408,20,Ticks_Linear_8,87,9999,9999,9999,3437668420
408,20,Ticks_Linear_8,88,9999,9999,9999,3438318716
408,20,Ticks_Linear_8,89,9999,9999,9999,3438968896
408,20,Ticks_Linear_8,90,9999,9999,9999,3439608888
408,20,Ticks_Linear_8,91,9999,9999,9999,3440248916
408,20,Ticks_Linear_8,92,9999,9999,9999,3440888912
408,20,Ticks_Linear_8,93,9999,9999,9999,3441528944
408,20,Ticks_Linear_8,94,9999,9999,9999,3442168936
408,20,Ticks_Linear_8,95,9999,9999,9999,3442798716
408,20,Ticks_Linear_8,96,9999,9999,9999,3443428420
408,20,Ticks_Linear_8,97,9999,9999,9999,3444058224
408,20,Ticks_Linear_8,98,9999,9999,9999,3444688972
408,20,Ticks_Linear_8,99,9999,9999,9999,3445318780
408,20,Ticks_Linear_8,100,9999,9999,9999,3445938232
408,20,Ticks_Linear_8,101,9999,9999,9999,3446558824
408,20,Ticks_Linear_8,102,9999,9999,9999,3447178336
408,20,Ticks_Linear_8,103,9999,9999,9999,3447798852
408,20,Ticks_Linear_8,104,9999,9999,9999,3448418376
408,20,Ticks_Linear_8,105,9999,9999,9999,3449028684
408,20,Ticks_Linear_8,106,9999,9999,9999,3449639016
408,20,Ticks_Linear_8,107,9999,9999,9999,3450248276
408,20,Ticks_Linear_8,108,9999,9999,9999,3450858592
408,20,Ticks_Linear_8,109,9999,9999,9999,3451468924
408,20,Ticks_Linear_8,110,9999,9999,9999,3452068968
408,20,Ticks_Linear_8,111,9999,9999,9999,3452669040
408,20,Ticks_Linear_8,112,9999,9999,9999,3453269088
408,20,Ticks_Linear_8,113,9999,9999,9999,3453868092
408,20,Ticks_Linear_8,114,9999,9999,9999,3454468164
408,20,Ticks_Linear_8,115,9999,9999,9999,3455059008
408,20,Ticks_Linear_8,116,9999,9999,9999,3455648864
408,20,Ticks_Linear_8,117,9999,9999,9999,3456238656
408,20,Ticks_Linear_8,118,9999,9999,9999,3456828516
408,20,Ticks_Linear_8,119,9999,9999,9999,3457418308
408,20,Ticks_Linear_8,120,9999,9999,9999,3457998960
408,20,Ticks_Linear_8,121,9999,9999,9999,3458578516
408,20,Ticks_Linear_8,122,9999,9999,9999,3459158120
408,20,Ticks_Linear_8,123,9999,9999,9999,3459738700
408,20,Ticks_Linear_8,124,9999,9999,9999,3460318304
408,20,Ticks_Linear_8,125,9999,9999,9999,3460888652
408,20,Ticks_Linear_8,126,9999,9999,9999,3461459048
408,20,Ticks_Linear_8,127,9999,9999,9999,3462028388
408,20,Ticks_Linear_8,128,9999,9999,9999,3462598780
408,20,Ticks_Linear_8,129,9999,9999,9999,3463168080
408,20,Ticks_Linear_8,130,9999,9999,9999,3463728220
408,20,Ticks_Linear_8,131,9999,9999,9999,3464288352
408,20,Ticks_Linear_8,132,9999,9999,9999,3464848480
408,20,Ticks_Linear_8,133,9999,9999,9999,3465408620
408,20,Ticks_Linear_8,134,9999,9999,9999,3465968756
408,20,Ticks_Linear_8,135,9999,9999,9999,3466518624
408,20,Ticks_Linear_8,136,9999,9999,9999,3467068500
408,20,Ticks_Linear_8,137,9999,9999,9999,3467618372
408,20,Ticks_Linear_8,138,9999,9999,9999,3468168244
408,20,Ticks_Linear_8,139,9999,9999,9999,3468718196
408,20,Ticks_Linear_8,140,9999,9999,9999,3469258864
408,20,Ticks_Linear_8,141,9999,9999,9999,3469798472
408,20,Ticks_Linear_8,142,9999,9999,9999,3470338112
408,20,Ticks_Linear_8,143,9999,9999,9999,3470878772
408,20,Ticks_Linear_8,144,9999,9999,9999,3471418464
408,20,Ticks_Linear_8,145,9999,9999,9999,3471948868
408,20,Ticks_Linear_8,146,9999,9999,9999,3472478304
408,20,Ticks_Linear_8,147,9999,9999,9999,3473008700
408,20,Ticks_Linear_8,148,9999,9999,9999,3473538140
408,20,Ticks_Linear_8,149,9999,9999,9999,3474068536
408,20,Ticks_Linear_8,150,9999,9999,9999,3474588752
408,20,Ticks_Linear_8,151,9999,9999,9999,3475108972
408,20,Ticks_Linear_8,152,9999,9999,9999,3475628152
408,20,Ticks_Linear_8,153,9999,9999,9999,3476148288
408,20,Ticks_Linear_8,154,9999,9999,9999,3476668508
408,20,Ticks_Linear_8,155,9999,9999,9999,3477178468
408,20,Ticks_Linear_8,156,9999,9999,9999,3477688428
408,20,Ticks_Linear_8,157,9999,9999,9999,3478198388
408,20,Ticks_Linear_8,158,9999,9999,9999,3478708348
408,20,Ticks_Linear_8,159,9999,9999,9999,3479218232
408,20,Ticks_Linear_8,160,9999,9999,9999,3479718980
408,20,Ticks_Linear_8,161,9999,9999,9999,3480218680
408,20,Ticks_Linear_8,162,9999,9999,9999,3480718456
408,20,Ticks_Linear_8,163,9999,9999,9999,3481218156
408,20,Ticks_Linear_8,164,9999,9999,9999,3481718904
408,20,Ticks_Linear_8,165,9999,9999,9999,3482208348
408,20,Ticks_Linear_8,166,9999,9999,9999,3482698836
408,20,Ticks_Linear_8,167,9999,9999,9999,3483188280
408,20,Ticks_Linear_8,168,9999,9999,9999,3483678844
408,20,Ticks_Linear_8,169,9999,9999,9999,3484168284
409,23,Ticks_Phase_5,0,5,42,127,3495208216
409,23,Ticks_Phase_5,1,5,42,127,3495708148
409,23,Ticks_Phase_5,2,1,48,43,3496130740
409,23,Ticks_Phase_5,3,5,42,127,3496207852
409,23,Ticks_Phase_5,4,1,48,49,3496675048
409,23,Ticks_Phase_5,5,5,42,127,3496707392
409,23,Ticks_Phase_5,6,1,48,56,3497173168
409,23,Ticks_Phase_5,7,5,42,127,3497208124
409,23,Ticks_Phase_5,8,1,48,61,3497677208
409,23,Ticks_Phase_5,9,5,42,127,3497708012
409,23,Ticks_Phase_5,10,1,48,52,3498178312
409,23,Ticks_Phase_5,11,5,42,127,3498207552
409,23,Ticks_Phase_5,12,1,48,60,3498691928
409,23,Ticks_Phase_5,13,5,42,127,3498708284
409,23,Ticks_Phase_5,14,1,48,55,3499206308
409,23,Ticks_Phase_5,15,5,42,127,3499208120
409,23,Ticks_Phase_5,16,1,48,57,3499705376
409,23,Ticks_Phase_5,17,5,42,127,3499707960
409,23,Ticks_Phase_5,18,5,42,127,3500207504
409,23,Ticks_Phase_5,19,1,48,57,3500215868
409,23,Ticks_Phase_5,20,1,48,56,3500702284
409,23,Ticks_Phase_5,21,5,42,127,3500708232
409,23,Ticks_Phase_5,22,1,48,57,3501192832
409,23,Ticks_Phase_5,23,5,42,127,3501207996
409,23,Ticks_Phase_5,24,1,48,54,3501705944
409,23,Ticks_Phase_5,25,5,42,127,3501707756
409,23,Ticks_Phase_5,26,1,48,54,3502193932
409,23,Ticks_Phase_5,27,5,42,127,3502208344
409,23,Ticks_Phase_5,28,1,48,59,3502687640
409,23,Ticks_Phase_5,29,5,42,127,3502708108
409,23,Ticks_Phase_5,30,1,48,53,3503161184
409,23,Ticks_Phase_5,31,5,42,127,3503207724
409,23,Ticks_Phase_5,32,1,48,49,3503675560
409,23,Ticks_Phase_5,33,5,42,127,3503707708
409,23,Ticks_Phase_5,34,1,48,50,3504181976
409,23,Ticks_Phase_5,35,5,42,127,3504208440
409,23,Ticks_Phase_5,36,1,48,46,3504680764
409,23,Ticks_Phase_5,37,5,42,127,3504707908
409,23,Ticks_Phase_5,38,1,48,48,3505173712
409,23,Ticks_Phase_5,39,5,42,127,3505207892
409,23,Ticks_Phase_5,40,1,48,40,3505696924
409,23,Ticks_Phase_5,41,5,42,127,3505708404
409,23,Ticks_Phase_5,42,1,48,47,3506186120
409,23,Ticks_Phase_5,43,5,42,127,3506208168
409,23,Ticks_Phase_5,44,1,48,43,3506676004
409,23,Ticks_Phase_5,45,5,42,127,3506707708
409,23,Ticks_Phase_5,46,1,48,51,3507172812
409,23,Ticks_Phase_5,47,5,42,127,3507207692
409,23,Ticks_Phase_5,48,1,48,48,3507677376
409,23,Ticks_Phase_5,49,5,42,127,3507708128
409,23,Ticks_Phase_5,50,1,48,40,3508197276
409,23,Ticks_Phase_5,51,5,42,127,3508208040
409,23,Ticks_Phase_5,52,5,42,127,3508707784
409,23,Ticks_Phase_5,53,1,48,53,3508709572
409,23,Ticks_Phase_5,54,5,42,127,3509208740
409,23,Ticks_Phase_5,55,1,48,50,3509237724
409,23,Ticks_Phase_5,56,1,48,52,3509698360
409,23,Ticks_Phase_5,57,5,42,127,3509718460
409,23,Ticks_Phase_5,58,5,42,127,3510207824
409,23,Ticks_Phase_5,59,1,48,47,3510212360
409,23,Ticks_Phase_5,60,1,48,51,3510697592
409,23,Ticks_Phase_5,61,5,42,127,3510707580
409,23,Ticks_Phase_5,62,1,48,48,3511191732
409,23,Ticks_Phase_5,63,5,42,127,3511208236
409,23,Ticks_Phase_5,64,1,48,50,3511699956
409,23,Ticks_Phase_5,65,5,42,127,3511708148
409,23,Ticks_Phase_5,66,1,48,47,3512185780
409,23,Ticks_Phase_5,67,5,42,127,3512207836
409,23,Ticks_Phase_5,68,5,42,127,3512707532
409,23,Ticks_Phase_5,69,1,48,51,3512710048
409,23,Ticks_Phase_5,70,5,42,127,3513208120
409,23,Ticks_Phase_5,71,1,48,49,3513224936
409,23,Ticks_Phase_5,72,1,48,54,3513678120
409,23,Ticks_Phase_5,73,5,42,127,3513707876
409,23,Ticks_Phase_5,74,5,42,127,3514207568
409,23,Ticks_Phase_5,75,1,48,51,3514216232
409,23,Ticks_Phase_5,76,5,42,127,3514708380
409,23,Ticks_Phase_5,77,1,48,52,3514736140
409,23,Ticks_Phase_5,78,5,42,127,3515208068
409,23,Ticks_Phase_5,79,1,48,51,3515213056
409,23,Ticks_Phase_5,80,5,42,127,3515707756
409,23,Ticks_Phase_5,81,1,48,45,3515723004
409,23,Ticks_Phase_5,82,1,48,54,3516207148
409,23,Ticks_Phase_5,83,5,42,127,3516208632
409,23,Ticks_Phase_5,84,5,42,127,3516708404
409,23,Ticks_Phase_5,85,1,48,43,3516712344
409,23,Ticks_Phase_5,86,1,48,55,3517205052
409,23,Ticks_Phase_5,87,5,42,127,3517207864
409,23,Ticks_Phase_5,88,5,42,127,3517707632
409,23,Ticks_Phase_5,89,1,48,50,3517717196
409,23,Ticks_Phase_5,90,5,42,127,3518208444
409,23,Ticks_Phase_5,91,1,48,54,3518209856
409,23,Ticks_Phase_5,92,1,48,52,3518694512
409,23,Ticks_Phase_5,93,5,42,127,3518708200
409,23,Ticks_Phase_5,94,1,48,45,3519188292
409,23,Ticks_Phase_5,95,5,42,127,3519218296
409,23,Ticks_Phase_5,96,1,48,51,3519698760
409,23,Ticks_Phase_5,97,5,42,127,3519717740
409,23,Ticks_Phase_5,98,1,48,54,3520194848
409,23,Ticks_Phase_5,99,5,42,127,3520217500
409,23,Ticks_Phase_5,100,5,42,127,3520718168
409,23,Ticks_Phase_5,101,1,48,48,3520725028
409,23,Ticks_Phase_5,102,1,48,53,3521197532
409,23,Ticks_Phase_5,103,5,42,127,3521217852
409,23,Ticks_Phase_5,104,1,48,48,3521716264
409,23,Ticks_Phase_5,105,5,42,127,3521717836
409,23,Ticks_Phase_5,106,1,48,54,3522202512
409,23,Ticks_Phase_5,107,5,42,127,3522218348
409,23,Ticks_Phase_5,108,1,48,42,3522695844
409,23,Ticks_Phase_5,109,5,42,127,3522718408
409,23,Ticks_Phase_5,110,1,48,47,3523200764
409,23,Ticks_Phase_5,111,5,42,127,3523217800
409,23,Ticks_Phase_5,112,5,42,127,3523717496
409,23,Ticks_Phase_5,113,1,48,47,3523721808
409,23,Ticks_Phase_5,114,1,48,59,3524202164
409,23,Ticks_Phase_5,115,5,42,127,3524218224
409,23,Ticks_Phase_5,116,1,48,46,3524695420
409,23,Ticks_Phase_5,117,5,42,127,3524718132
409,23,Ticks_Phase_5,118,1,48,49,3525187540
409,23,Ticks_Phase_5,119,5,42,127,3525217748
409,23,Ticks_Phase_5,120,1,48,53,3525693060
409,23,Ticks_Phase_5,121,5,42,127,3525718408
409,23,Ticks_Phase_5,122,1,48,55,3526173804
409,23,Ticks_Phase_5,123,5,42,127,3526218172
409,23,Ticks_Phase_5,124,1,48,50,3526695800
409,23,Ticks_Phase_5,125,5,42,127,3526718084
409,23,Ticks_Phase_5,126,1,48,51,3527177008
409,23,Ticks_Phase_5,127,5,42,127,3527238216
409,23,Ticks_Phase_5,128,1,48,54,3527659520
409,23,Ticks_Phase_5,129,5,42,127,3527737684
409,23,Ticks_Phase_5,130,1,48,53,3528194648
409,23,Ticks_Phase_5,131,5,42,127,3528237372
409,23,Ticks_Phase_5,132,1,48,43,3528686636
409,23,Ticks_Phase_5,133,5,42,127,3528738108
409,23,Ticks_Phase_5,134,1,48,54,3529209236
409,23,Ticks_Phase_5,135,5,42,127,3529237872
409,23,Ticks_Phase_5,136,5,42,127,3529737716
409,23,Ticks_Phase_5,137,1,48,38,3529757388
409,23,Ticks_Phase_5,138,1,48,52,3530230028
409,23,Ticks_Phase_5,139,5,42,127,3530238368
409,23,Ticks_Phase_5,140,5,42,127,3530737916
409,23,Ticks_Phase_5,141,1,48,49,3530744024
409,23,Ticks_Phase_5,142,5,42,127,3531237948
409,23,Ticks_Phase_5,143,1,48,48,3531244808
409,23,Ticks_Phase_5,144,1,48,53,3531714680
409,23,Ticks_Phase_5,145,5,42,127,3531737556
409,23,Ticks_Phase_5,146,1,48,52,3532233684
409,23,Ticks_Phase_5,147,5,42,127,3532238292
409,23,Ticks_Phase_5,148,1,48,48,3532725376
409,23,Ticks_Phase_5,149,5,42,127,3532738052
409,23,Ticks_Phase_5,150,1,48,47,3533202812
409,23,Ticks_Phase_5,151,5,42,127,3533237744
409,23,Ticks_Phase_5,152,1,48,45,3533733128
409,23,Ticks_Phase_5,153,5,42,127,3533738328
409,23,Ticks_Phase_5,154,5,42,127,3534237948
409,23,Ticks_Phase_5,155,1,48,41,3534252148
409,23,Ticks_Phase_5,156,5,42,127,3534737860
409,23,Ticks_Phase_5,157,1,48,44,3534756260
409,23,Ticks_Phase_5,158,5,42,127,3535237624
409,23,Ticks_Phase_5,159,1,48,46,3535239108
409,23,Ticks_Phase_5,160,5,42,127,3535717692
409,23,Ticks_Phase_5,161,1,48,48,3535730320
409,23,Ticks_Phase_5,162,1,48,46,3536204980
409,23,Ticks_Phase_5,163,5,42,127,3536217744
409,23,Ticks_Phase_5,164,1,48,51,3536717736
409,23,Ticks_Phase_5,165,5,42,127,3536719676
409,23,Ticks_Phase_5,166,1,48,45,3537188636
409,23,Ticks_Phase_5,167,5,42,127,3537217872
409,23,Ticks_Phase_5,168,1,48,43,3537685092
409,23,Ticks_Phase_5,169,5,42,127,3537717784
409,23,Ticks_Phase_5,170,1,48,45,3538186216
409,23,Ticks_Phase_5,171,5,42,127,3538218296
409,23,Ticks_Phase_5,172,1,48,50,3538690620
409,23,Ticks_Phase_5,173,5,42,127,3538718132
409,23,Ticks_Phase_5,174,1,48,46,3539172384
409,23,Ticks_Phase_5,175,5,42,127,3539217672
409,23,Ticks_Phase_5,176,1,48,42,3539693960
409,23,Ticks_Phase_5,177,5,42,127,3539717736
409,23,Ticks_Phase_5,178,1,48,48,3540188764
409,23,Ticks_Phase_5,179,5,42,127,3540218172
409,23,Ticks_Phase_5,180,1,48,47,3540687628
409,23,Ticks_Phase_5,181,5,42,127,3540717860
409,23,Ticks_Phase_5,182,1,48,40,3541188964
409,23,Ticks_Phase_5,183,5,42,127,3541217600
409,23,Ticks_Phase_5,184,1,48,48,3541676968
409,23,Ticks_Phase_5,185,5,42,127,3541718556
409,23,Ticks_Phase_5,186,1,48,48,3542178084
409,23,Ticks_Phase_5,187,5,42,127,3542217948
409,23,Ticks_Phase_5,188,1,48,47,3542697392
409,23,Ticks_Phase_5,189,5,42,127,3542717860
409,23,Ticks_Phase_5,190,1,48,43,3543195416
409,23,Ticks_Phase_5,191,5,42,127,3543217624
409,23,Ticks_Phase_5,192,1,48,47,3543662760
409,23,Ticks_Phase_5,193,5,42,127,3543668036
409,23,Ticks_Phase_5,194,5,42,127,3544167804
409,23,Ticks_Phase_5,195,1,48,47,3544178416
409,23,Ticks_Phase_5,196,1,48,48,3544648064
409,23,Ticks_Phase_5,197,5,42,127,3544667564
409,23,Ticks_Phase_5,198,1,48,47,3545126484
409,23,Ticks_Phase_5,199,5,42,127,3545168520
409,23,Ticks_Phase_5,200,1,48,47,3545628640
409,23,Ticks_Phase_5,201,5,42,127,3545667912
409,23,Ticks_Phase_5,202,1,48,50,3546133340
409,23,Ticks_Phase_5,203,5,42,127,3546167528
409,23,Ticks_Phase_5,204,1,48,45,3546600884
409,23,Ticks_Phase_5,205,5,42,127,3546668336
409,23,Ticks_Phase_5,206,1,48,43,3547104232
409,23,Ticks_Phase_5,207,5,42,127,3547168100
409,23,Ticks_Phase_5,208,1,48,48,3547605048
409,23,Ticks_Phase_5,209,5,42,127,3547667788
409,23,Ticks_Phase_5,210,1,48,48,3548114392
409,23,Ticks_Phase_5,211,5,42,127,3548167476
409,23,Ticks_Phase_5,212,1,48,38,3548610340
409,23,Ticks_Phase_5,213,5,42,127,3548668432
409,23,Ticks_Phase_5,214,1,48,46,3549081724
409,23,Ticks_Phase_5,215,5,42,127,3549167972
409,23,Ticks_Phase_5,216,1,48,44,3549601028
409,23,Ticks_Phase_5,217,5,42,127,3549667636
409,23,Ticks_Phase_5,218,1,48,41,3550116596
409,23,Ticks_Phase_5,219,5,42,127,3550168444
409,23,Ticks_Phase_5,220,1,48,38,3550626468
409,23,Ticks_Phase_5,221,5,42,127,3550678320
409,23,Ticks_Phase_5,222,1,48,45,3551132292
409,23,Ticks_Phase_5,223,5,42,127,3551178304
409,23,Ticks_Phase_5,224,1,48,38,3551654968
409,23,Ticks_Phase_5,225,5,42,127,3551677696
409,23,Ticks_Phase_5,226,1,48,39,3552158556
409,23,Ticks_Phase_5,227,5,42,127,3552227708
409,23,Ticks_Phase_5,228,1,48,38,3552696740
409,23,Ticks_Phase_5,229,5,42,127,3552728368
409,23,Ticks_Phase_5,230,1,48,35,3553238024
409,23,Ticks_Phase_5,231,5,42,127,3553239660
409,23,Ticks_Phase_5,232,5,42,127,3553738232
409,23,Ticks_Phase_5,233,1,48,27,3553808484
409,23,Ticks_Phase_5,234,5,42,127,3554237700
409,23,Ticks_Phase_5,235,1,48,34,3554247188
409,23,Ticks_Phase_5,236,1,48,32,3554714576
409,23,Ticks_Phase_5,237,5,42,127,3554737608
409,23,Ticks_Phase_5,238,1,48,37,3555170540
409,23,Ticks_Phase_5,239,5,42,127,3555238192
409,23,Ticks_Phase_5,240,1,48,35,3555698012
409,23,Ticks_Phase_5,241,5,42,127,3555738104
409,23,Ticks_Phase_5,242,1,48,30,3556199796
409,23,Ticks_Phase_5,243,5,42,127,3556237568
409,23,Ticks_Phase_5,244,1,48,38,3556682108
409,23,Ticks_Phase_5,245,5,42,127,3556738380
409,23,Ticks_Phase_5,246,1,48,37,3557193252
409,23,Ticks_Phase_5,247,5,42,127,3557248252
409,23,Ticks_Phase_5,248,1,48,35,3557679836
409,23,Ticks_Phase_5,249,5,42,127,3557748240
409,23,Ticks_Phase_5,250,1,48,33,3558177284
409,23,Ticks_Phase_5,251,5,42,127,3558247928
409,23,Ticks_Phase_5,252,1,48,35,3558633200
409,23,Ticks_Phase_5,253,5,42,127,3558747452
409,23,Ticks_Phase_5,254,1,48,36,3559190584
409,23,Ticks_Phase_5,255,5,42,127,3559248276
409,23,Ticks_Phase_5,256,1,48,30,3559717828
409,23,Ticks_Phase_5,257,5,42,127,3559748188
409,23,Ticks_Phase_5,258,1,48,22,3560211296
409,23,Ticks_Phase_5,259,5,42,127,3560247800
409,23,Ticks_Phase_5,260,1,48,14,3560729040
409,23,Ticks_Phase_5,261,5,42,127,3560847824
409,23,Ticks_Phase_5,262,1,48,32,3561225812
409,23,Ticks_Phase_5,263,5,42,127,3561347364
409,23,Ticks_Phase_5,264,1,48,33,3561774092
409,23,Ticks_Phase_5,265,5,42,127,3561848112
409,23,Ticks_Phase_5,266,1,48,27,3562300364
409,23,Ticks_Phase_5,267,5,42,127,3562347952
409,23,Ticks_Phase_5,268,1,48,35,3562769800
409,23,Ticks_Phase_5,269,5,42,127,3562848012
409,23,Ticks_Phase_5,270,1,48,32,3563257960
409,23,Ticks_Phase_5,271,5,42,127,3563348300
409,23,Ticks_Phase_5,272,1,48,27,3563736728
409,23,Ticks_Phase_5,273,5,42,127,3563848196
409,23,Ticks_Phase_5,274,1,48,32,3564218216
409,23,Ticks_Phase_5,275,5,42,127,3564347884
409,23,Ticks_Phase_5,276,1,48,25,3564746584
409,23,Ticks_Phase_5,277,5,42,127,3564847496
409,23,Ticks_Phase_5,278,1,48,35,3565268068
409,23,Ticks_Phase_5,279,5,42,127,3565348172
409,23,Ticks_Phase_5,280,1,48,31,3565771712
409,23,Ticks_Phase_5,281,5,42,127,3565847784
409,23,Ticks_Phase_5,282,1,48,37,3566265496
409,23,Ticks_Phase_5,283,5,42,127,3566347920
409,23,Ticks_Phase_5,284,1,48,33,3566787200
409,23,Ticks_Phase_5,285,5,42,127,3566848356
409,23,Ticks_Phase_5,286,1,48,36,3567281784
409,23,Ticks_Phase_5,287,5,42,127,3567347968
409,23,Ticks_Phase_5,288,1,48,40,3567767176
409,23,Ticks_Phase_5,289,5,42,127,3567847856
409,23,Ticks_Phase_5,290,1,48,27,3568291644
409,23,Ticks_Phase_5,291,5,42,127,3568347544
409,23,Ticks_Phase_5,292,1,48,36,3568773508
409,23,Ticks_Phase_5,293,5,42,127,3568848204
409,23,Ticks_Phase_5,294,1,48,32,3569295436
409,23,Ticks_Phase_5,295,5,42,127,3569348040
409,23,Ticks_Phase_5,296,1,48,37,3569763072
409,23,Ticks_Phase_5,297,5,42,127,3569847804
409,23,Ticks_Phase_5,298,5,42,127,3570247904
409,23,Ticks_Phase_5,299,1,48,30,3570264792
409,23,Ticks_Phase_5,300,5,42,127,3570747740
409,23,Ticks_Phase_5,301,1,48,29,3570757228
409,23,Ticks_Phase_5,302,1,48,40,3571227400
409,23,Ticks_Phase_5,303,5,42,127,3571247644
409,23,Ticks_Phase_5,304,1,48,36,3571725668
409,23,Ticks_Phase_5,305,5,42,127,3571748308
409,23,Ticks_Phase_5,306,1,48,36,3572200540
409,23,Ticks_Phase_5,307,5,42,127,3572247996
409,23,Ticks_Phase_5,308,1,48,37,3572670644
409,23,Ticks_Phase_5,309,5,42,127,3572747684
409,23,Ticks_Phase_5,310,1,48,35,3573162688
409,23,Ticks_Phase_5,311,5,42,127,3573248492
409,23,Ticks_Phase_5,312,1,48,31,3573654960
409,23,Ticks_Phase_5,313,5,42,127,3573748180
409,23,Ticks_Phase_5,314,1,48,29,3574136088
409,23,Ticks_Phase_5,315,5,42,127,3574247828
409,23,Ticks_Phase_5,316,1,48,39,3574652316
409,23,Ticks_Phase_5,317,5,42,127,3574747668
409,23,Ticks_Phase_5,318,1,48,37,3575173568
409,23,Ticks_Phase_5,319,5,42,127,3575248116
409,23,Ticks_Phase_5,320,1,48,30,3575661804
409,23,Ticks_Phase_5,321,5,42,127,3575747808
409,23,Ticks_Phase_5,322,1,48,29,3576166740
409,23,Ticks_Phase_5,323,5,42,127,3576247644
409,23,Ticks_Phase_5,324,1,48,36,3576657588
409,23,Ticks_Phase_5,325,5,42,127,3576748600
409,23,Ticks_Phase_5,326,1,48,34,3577178468
409,23,Ticks_Phase_5,327,5,42,127,3577248068
409,23,Ticks_Phase_5,328,1,48,25,3577686992
409,23,Ticks_Phase_5,329,5,42,127,3577747752
409,23,Ticks_Phase_5,330,1,48,35,3578157180
409,23,Ticks_Phase_5,331,5,42,127,3578247516
409,23,Ticks_Phase_5,332,1,48,23,3578633340
409,23,Ticks_Phase_5,333,5,42,127,3578748460
409,23,Ticks_Phase_5,334,1,48,38,3579150628
409,23,Ticks_Phase_5,335,5,42,127,3579248072
409,23,Ticks_Phase_5,336,1,48,34,3579673752
409,23,Ticks_Phase_5,337,5,42,127,3579747700
409,23,Ticks_Phase_5,0,9999,9999,9999,3495206000
409,23,Ticks_Phase_5,1,9999,9999,9999,3495705712
409,23,Ticks_Phase_5,2,9999,9999,9999,3496205412
409,23,Ticks_Phase_5,3,9999,9999,9999,3496705100
409,23,Ticks_Phase_5,4,9999,9999,9999,3497205836
409,23,Ticks_Phase_5,5,9999,9999,9999,3497705572
409,23,Ticks_Phase_5,6,9999,9999,9999,3498205260
409,23,Ticks_Phase_5,7,9999,9999,9999,3498705996
409,23,Ticks_Phase_5,8,9999,9999,9999,3499205708
409,23,Ticks_Phase_5,9,9999,9999,9999,3499705448
409,23,Ticks_Phase_5,10,9999,9999,9999,3500205140
409,23,Ticks_Phase_5,11,9999,9999,9999,3500705868
409,23,Ticks_Phase_5,12,9999,9999,9999,3501205556
409,23,Ticks_Phase_5,13,9999,9999,9999,3501705344
409,23,Ticks_Phase_5,14,9999,9999,9999,3502206056
409,23,Ticks_Phase_5,15,9999,9999,9999,3502705748
409,23,Ticks_Phase_5,16,9999,9999,9999,3503205432
409,23,Ticks_Phase_5,17,9999,9999,9999,3503705196
409,23,Ticks_Phase_5,18,9999,9999,9999,3504205928
409,23,Ticks_Phase_5,19,9999,9999,9999,3504705620
409,23,Ticks_Phase_5,20,9999,9999,9999,3505205308
409,23,Ticks_Phase_5,21,9999,9999,9999,3505706040
409,23,Ticks_Phase_5,22,9999,9999,9999,3506205804
409,23,Ticks_Phase_5,23,9999,9999,9999,3506705492
409,23,Ticks_Phase_5,24,9999,9999,9999,3507205180
409,23,Ticks_Phase_5,25,9999,9999,9999,3507705916
409,23,Ticks_Phase_5,26,9999,9999,9999,3508205652
409,23,Ticks_Phase_5,27,9999,9999,9999,3508705344
409,23,Ticks_Phase_5,28,9999,9999,9999,3509206084
409,23,Ticks_Phase_5,29,9999,9999,9999,3509716096
409,23,Ticks_Phase_5,30,9999,9999,9999,3510205532
409,23,Ticks_Phase_5,31,9999,9999,9999,3510705216
409,23,Ticks_Phase_5,32,9999,9999,9999,3511205948
409,23,Ticks_Phase_5,33,9999,9999,9999,3511705712
409,23,Ticks_Phase_5,34,9999,9999,9999,3512205400
409,23,Ticks_Phase_5,35,9999,9999,9999,3512705096
409,23,Ticks_Phase_5,36,9999,9999,9999,3513205832
409,23,Ticks_Phase_5,37,9999,9999,9999,3513705584
409,23,Ticks_Phase_5,38,9999,9999,9999,3514205280
409,23,Ticks_Phase_5,39,9999,9999,9999,3514706016
409,23,Ticks_Phase_5,40,9999,9999,9999,3515205704
409,23,Ticks_Phase_5,41,9999,9999,9999,3515705468
409,23,Ticks_Phase_5,42,9999,9999,9999,3516205156
409,23,Ticks_Phase_5,43,9999,9999,9999,3516705892
409,23,Ticks_Phase_5,44,9999,9999,9999,3517205572
409,23,Ticks_Phase_5,45,9999,9999,9999,3517705344
409,23,Ticks_Phase_5,46,9999,9999,9999,3518206080
409,23,Ticks_Phase_5,47,9999,9999,9999,3518705760
409,23,Ticks_Phase_5,48,9999,9999,9999,3519215708
409,23,Ticks_Phase_5,49,9999,9999,9999,3519715448
409,23,Ticks_Phase_5,50,9999,9999,9999,3520215136
409,23,Ticks_Phase_5,51,9999,9999,9999,3520715880
409,23,Ticks_Phase_5,52,9999,9999,9999,3521215564
409,23,Ticks_Phase_5,53,9999,9999,9999,3521715256
409,23,Ticks_Phase_5,54,9999,9999,9999,3522216060
409,23,Ticks_Phase_5,55,9999,9999,9999,3522715748
409,23,Ticks_Phase_5,56,9999,9999,9999,3523215436
409,23,Ticks_Phase_5,57,9999,9999,9999,3523715128
409,23,Ticks_Phase_5,58,9999,9999,9999,3524215932
409,23,Ticks_Phase_5,59,9999,9999,9999,3524715620
409,23,Ticks_Phase_5,60,9999,9999,9999,3525215312
409,23,Ticks_Phase_5,61,9999,9999,9999,3525716044
409,23,Ticks_Phase_5,62,9999,9999,9999,3526215732
409,23,Ticks_Phase_5,63,9999,9999,9999,3526715496
409,23,Ticks_Phase_5,64,9999,9999,9999,3527235704
409,23,Ticks_Phase_5,65,9999,9999,9999,3527735396
409,23,Ticks_Phase_5,66,9999,9999,9999,3528235084
409,23,Ticks_Phase_5,67,9999,9999,9999,3528735820
409,23,Ticks_Phase_5,68,9999,9999,9999,3529235584
409,23,Ticks_Phase_5,69,9999,9999,9999,3529735276
409,23,Ticks_Phase_5,70,9999,9999,9999,3530236004
409,23,Ticks_Phase_5,71,9999,9999,9999,3530735700
409,23,Ticks_Phase_5,72,9999,9999,9999,3531235436
409,23,Ticks_Phase_5,73,9999,9999,9999,3531735120
409,23,Ticks_Phase_5,74,9999,9999,9999,3532235852
409,23,Ticks_Phase_5,75,9999,9999,9999,3532735540
409,23,Ticks_Phase_5,76,9999,9999,9999,3533235304
409,23,Ticks_Phase_5,77,9999,9999,9999,3533736040
409,23,Ticks_Phase_5,78,9999,9999,9999,3534235732
409,23,Ticks_Phase_5,79,9999,9999,9999,3534735420
409,23,Ticks_Phase_5,80,9999,9999,9999,3535235184
409,23,Ticks_Phase_5,81,9999,9999,9999,3535715400
409,23,Ticks_Phase_5,82,9999,9999,9999,3536215156
409,23,Ticks_Phase_5,83,9999,9999,9999,3536715900
409,23,Ticks_Phase_5,84,9999,9999,9999,3537215584
409,23,Ticks_Phase_5,85,9999,9999,9999,3537715272
409,23,Ticks_Phase_5,86,9999,9999,9999,3538216008
409,23,Ticks_Phase_5,87,9999,9999,9999,3538715772
409,23,Ticks_Phase_5,88,9999,9999,9999,3539215456
409,23,Ticks_Phase_5,89,9999,9999,9999,3539715148
409,23,Ticks_Phase_5,90,9999,9999,9999,3540215884
409,23,Ticks_Phase_5,91,9999,9999,9999,3540715620
409,23,Ticks_Phase_5,92,9999,9999,9999,3541215312
409,23,Ticks_Phase_5,93,9999,9999,9999,3541716044
409,23,Ticks_Phase_5,94,9999,9999,9999,3542215732
409,23,Ticks_Phase_5,95,9999,9999,9999,3542715496
409,23,Ticks_Phase_5,96,9999,9999,9999,3543215184
409,23,Ticks_Phase_5,97,9999,9999,9999,3543665748
409,23,Ticks_Phase_5,98,9999,9999,9999,3544165444
409,23,Ticks_Phase_5,99,9999,9999,9999,3544665200
409,23,Ticks_Phase_5,100,9999,9999,9999,3545165936
409,23,Ticks_Phase_5,101,9999,9999,9999,3545665624
409,23,Ticks_Phase_5,102,9999,9999,9999,3546165312
409,23,Ticks_Phase_5,103,9999,9999,9999,3546666048
409,23,Ticks_Phase_5,104,9999,9999,9999,3547165812
409,23,Ticks_Phase_5,105,9999,9999,9999,3547665500
409,23,Ticks_Phase_5,106,9999,9999,9999,3548165188
409,23,Ticks_Phase_5,107,9999,9999,9999,3548665920
409,23,Ticks_Phase_5,108,9999,9999,9999,3549165684
409,23,Ticks_Phase_5,109,9999,9999,9999,3549665348
409,23,Ticks_Phase_5,110,9999,9999,9999,3550166084
409,23,Ticks_Phase_5,111,9999,9999,9999,3550676028
409,23,Ticks_Phase_5,112,9999,9999,9999,3551175792
409,23,Ticks_Phase_5,113,9999,9999,9999,3551675480
409,23,Ticks_Phase_5,114,9999,9999,9999,3552225340
409,23,Ticks_Phase_5,115,9999,9999,9999,3552726080
409,23,Ticks_Phase_5,116,9999,9999,9999,3553236032
409,23,Ticks_Phase_5,117,9999,9999,9999,3553735796
409,23,Ticks_Phase_5,118,9999,9999,9999,3554235484
409,23,Ticks_Phase_5,119,9999,9999,9999,3554735168
409,23,Ticks_Phase_5,120,9999,9999,9999,3555235904
409,23,Ticks_Phase_5,121,9999,9999,9999,3555735664
409,23,Ticks_Phase_5,122,9999,9999,9999,3556235352
409,23,Ticks_Phase_5,123,9999,9999,9999,3556736092
409,23,Ticks_Phase_5,124,9999,9999,9999,3557246040
409,23,Ticks_Phase_5,125,9999,9999,9999,3557745728
409,23,Ticks_Phase_5,126,9999,9999,9999,3558245488
409,23,Ticks_Phase_5,127,9999,9999,9999,3558745164
409,23,Ticks_Phase_5,128,9999,9999,9999,3559245912
409,23,Ticks_Phase_5,129,9999,9999,9999,3559745600
409,23,Ticks_Phase_5,130,9999,9999,9999,3560245364
409,23,Ticks_Phase_5,131,9999,9999,9999,3560845384
409,23,Ticks_Phase_5,132,9999,9999,9999,3561345148
409,23,Ticks_Phase_5,133,9999,9999,9999,3561845824
409,23,Ticks_Phase_5,134,9999,9999,9999,3562345588
409,23,Ticks_Phase_5,135,9999,9999,9999,3562845276
409,23,Ticks_Phase_5,136,9999,9999,9999,3563346008
409,23,Ticks_Phase_5,137,9999,9999,9999,3563845756
409,23,Ticks_Phase_5,138,9999,9999,9999,3564345444
409,23,Ticks_Phase_5,139,9999,9999,9999,3564845132
409,23,Ticks_Phase_5,140,9999,9999,9999,3565345884
409,23,Ticks_Phase_5,141,9999,9999,9999,3565845568
409,23,Ticks_Phase_5,142,9999,9999,9999,3566345332
409,23,Ticks_Phase_5,143,9999,9999,9999,3566846068
409,23,Ticks_Phase_5,144,9999,9999,9999,3567345756
409,23,Ticks_Phase_5,145,9999,9999,9999,3567845492
409,23,Ticks_Phase_5,146,9999,9999,9999,3568345180
409,23,Ticks_Phase_5,147,9999,9999,9999,3568845916
409,23,Ticks_Phase_5,148,9999,9999,9999,3569345604
409,23,Ticks_Phase_5,149,9999,9999,9999,3569845364
409,23,Ticks_Phase_5,150,9999,9999,9999,3570245688
409,23,Ticks_Phase_5,151,9999,9999,9999,3570745452
409,23,Ticks_Phase_5,152,9999,9999,9999,3571245132
409,23,Ticks_Phase_5,153,9999,9999,9999,3571745868
409,23,Ticks_Phase_5,154,9999,9999,9999,3572245556
409,23,Ticks_Phase_5,155,9999,9999,9999,3572745320
409,23,Ticks_Phase_5,156,9999,9999,9999,3573246056
409,23,Ticks_Phase_5,157,9999,9999,9999,3573745740
409,23,Ticks_Phase_5,158,9999,9999,9999,3574245464
409,23,Ticks_Phase_5,159,9999,9999,9999,3574745152
409,23,Ticks_Phase_5,160,9999,9999,9999,3575245904
409,23,Ticks_Phase_5,161,9999,9999,9999,3575745592
409,23,Ticks_Phase_5,162,9999,9999,9999,3576245352
409,23,Ticks_Phase_5,163,9999,9999,9999,3576746088
409,23,Ticks_Phase_5,164,9999,9999,9999,3577245776
409,23,Ticks_Phase_5,165,9999,9999,9999,3577745464
409,23,Ticks_Phase_5,166,9999,9999,9999,3578245228
409,23,Ticks_Phase_5,167,9999,9999,9999,3578745948
409,23,Ticks_Phase_5,168,9999,9999,9999,3579245632
409,23,Ticks_Phase_5,169,9999,9999,9999,3579745340
4010,22,Ticks_Phase_8,0,5,42,127,3590236576
4010,22,Ticks_Phase_8,1,1,48,33,3591009160
4010,22,Ticks_Phase_8,2,5,42,127,3591037272
4010,22,Ticks_Phase_8,3,1,48,49,3591805876
4010,22,Ticks_Phase_8,4,5,42,127,3591837136
4010,22,Ticks_Phase_8,5,1,48,45,3592574280
4010,22,Ticks_Phase_8,6,5,42,127,3592636920
4010,22,Ticks_Phase_8,7,1,48,43,3593429340
4010,22,Ticks_Phase_8,8,5,42,127,3593436484
4010,22,Ticks_Phase_8,9,1,48,61,3594203056
4010,22,Ticks_Phase_8,10,5,42,127,3594237192
4010,22,Ticks_Phase_8,11,1,48,65,3595022644
4010,22,Ticks_Phase_8,12,5,42,127,3595037056
4010,22,Ticks_Phase_8,13,5,42,127,3595836920
4010,22,Ticks_Phase_8,14,1,48,67,3595858316
4010,22,Ticks_Phase_8,15,5,42,127,3596636632
4010,22,Ticks_Phase_8,16,1,48,60,3596672100
4010,22,Ticks_Phase_8,17,5,42,127,3597437244
4010,22,Ticks_Phase_8,18,1,48,50,3597438208
4010,22,Ticks_Phase_8,19,1,48,51,3598223204
4010,22,Ticks_Phase_8,20,5,42,127,3598237020
4010,22,Ticks_Phase_8,21,1,48,50,3599023888
4010,22,Ticks_Phase_8,22,5,42,127,3599036956
4010,22,Ticks_Phase_8,23,5,42,127,3599836528
4010,22,Ticks_Phase_8,24,1,48,43,3599847060
4010,22,Ticks_Phase_8,25,5,42,127,3600637236
4010,22,Ticks_Phase_8,26,1,48,51,3600663640
4010,22,Ticks_Phase_8,27,5,42,127,3601437020
4010,22,Ticks_Phase_8,28,1,48,43,3601446432
4010,22,Ticks_Phase_8,29,5,42,127,3602236732
4010,22,Ticks_Phase_8,30,1,48,57,3602249060
4010,22,Ticks_Phase_8,31,5,42,127,3603036668
4010,22,Ticks_Phase_8,32,1,48,46,3603057236
4010,22,Ticks_Phase_8,33,5,42,127,3603837348
4010,22,Ticks_Phase_8,34,1,48,57,3603845268
4010,22,Ticks_Phase_8,35,5,42,127,3604636988
4010,22,Ticks_Phase_8,36,1,48,56,3604647596
4010,22,Ticks_Phase_8,37,1,48,49,3605423024
4010,22,Ticks_Phase_8,38,5,42,127,3605436768
4010,22,Ticks_Phase_8,39,1,48,45,3606222736
4010,22,Ticks_Phase_8,40,5,42,127,3606236628
4010,22,Ticks_Phase_8,41,1,48,47,3606981336
4010,22,Ticks_Phase_8,42,5,42,127,3607037484
4010,22,Ticks_Phase_8,43,1,48,50,3607819044
4010,22,Ticks_Phase_8,44,5,42,127,3607836972
4010,22,Ticks_Phase_8,45,1,48,57,3608616732
4010,22,Ticks_Phase_8,46,5,42,127,3608636908
4010,22,Ticks_Phase_8,47,1,48,59,3609431048
4010,22,Ticks_Phase_8,48,5,42,127,3609436768
4010,22,Ticks_Phase_8,49,1,48,50,3610214272
4010,22,Ticks_Phase_8,50,5,42,127,3610237452
4010,22,Ticks_Phase_8,51,1,48,47,3611018640
4010,22,Ticks_Phase_8,52,5,42,127,3611037016
4010,22,Ticks_Phase_8,53,5,42,127,3611836708
4010,22,Ticks_Phase_8,54,1,48,48,3611877944
4010,22,Ticks_Phase_8,55,5,42,127,3612636644
4010,22,Ticks_Phase_8,56,1,48,47,3612651992
4010,22,Ticks_Phase_8,57,1,48,63,3613425264
4010,22,Ticks_Phase_8,58,5,42,127,3613437424
4010,22,Ticks_Phase_8,59,5,42,127,3614216548
4010,22,Ticks_Phase_8,60,1,48,50,3614231344
4010,22,Ticks_Phase_8,61,1,48,59,3615013668
4010,22,Ticks_Phase_8,62,5,42,127,3615017452
4010,22,Ticks_Phase_8,63,1,48,48,3615817540
4010,22,Ticks_Phase_8,64,5,42,127,3615818808
4010,22,Ticks_Phase_8,65,1,48,54,3616583064
4010,22,Ticks_Phase_8,66,5,42,127,3616617020
4010,22,Ticks_Phase_8,67,1,48,46,3617396412
4010,22,Ticks_Phase_8,68,5,42,127,3617416512
4010,22,Ticks_Phase_8,69,1,48,58,3618212968
4010,22,Ticks_Phase_8,70,5,42,127,3618217344
4010,22,Ticks_Phase_8,71,1,48,59,3619011036
4010,22,Ticks_Phase_8,72,5,42,127,3619017208
4010,22,Ticks_Phase_8,73,5,42,127,3619816876
4010,22,Ticks_Phase_8,74,1,48,58,3619832716
4010,22,Ticks_Phase_8,75,5,42,127,3620616512
4010,22,Ticks_Phase_8,76,1,48,50,3620622476
4010,22,Ticks_Phase_8,77,5,42,127,3621417272
4010,22,Ticks_Phase_8,78,1,48,57,3621434776
4010,22,Ticks_Phase_8,79,1,48,51,3622211176
4010,22,Ticks_Phase_8,80,5,42,127,3622217200
4010,22,Ticks_Phase_8,81,1,48,54,3622979212
4010,22,Ticks_Phase_8,82,5,42,127,3623016912
4010,22,Ticks_Phase_8,83,5,42,127,3623816480
4010,22,Ticks_Phase_8,84,1,48,46,3623839740
4010,22,Ticks_Phase_8,85,1,48,49,3624593080
4010,22,Ticks_Phase_8,86,5,42,127,3624617308
4010,22,Ticks_Phase_8,87,5,42,127,3625417100
4010,22,Ticks_Phase_8,88,1,48,52,3625421784
4010,22,Ticks_Phase_8,89,5,42,127,3626216984
4010,22,Ticks_Phase_8,90,1,48,44,3626226096
4010,22,Ticks_Phase_8,91,5,42,127,3627016696
4010,22,Ticks_Phase_8,92,1,48,43,3627086020
4010,22,Ticks_Phase_8,93,5,42,127,3627817308
4010,22,Ticks_Phase_8,94,1,48,42,3627829564
4010,22,Ticks_Phase_8,95,5,42,127,3628636716
4010,22,Ticks_Phase_8,96,1,48,41,3628669936
4010,22,Ticks_Phase_8,97,5,42,127,3629437248
4010,22,Ticks_Phase_8,98,1,48,46,3629467856
4010,22,Ticks_Phase_8,99,1,48,38,3630227412
4010,22,Ticks_Phase_8,100,5,42,127,3630236952
4010,22,Ticks_Phase_8,101,5,42,127,3631037044
4010,22,Ticks_Phase_8,102,1,48,46,3631061800
4010,22,Ticks_Phase_8,103,5,42,127,3631836384
4010,22,Ticks_Phase_8,104,1,48,47,3631858924
4010,22,Ticks_Phase_8,105,5,42,127,3632637316
4010,22,Ticks_Phase_8,106,1,48,43,3632674128
4010,22,Ticks_Phase_8,107,1,48,47,3633420664
4010,22,Ticks_Phase_8,108,5,42,127,3633437020
4010,22,Ticks_Phase_8,109,1,48,41,3634192888
4010,22,Ticks_Phase_8,110,5,42,127,3634236880
4010,22,Ticks_Phase_8,111,5,42,127,3635036676
4010,22,Ticks_Phase_8,112,1,48,44,3635051100
4010,22,Ticks_Phase_8,113,5,42,127,3635837432
4010,22,Ticks_Phase_8,114,1,48,38,3635866016
4010,22,Ticks_Phase_8,115,1,48,25,3636624072
4010,22,Ticks_Phase_8,116,5,42,127,3636636992
4010,22,Ticks_Phase_8,117,1,48,41,3637413152
4010,22,Ticks_Phase_8,118,5,42,127,3637436776
4010,22,Ticks_Phase_8,119,5,42,127,3638236792
4010,22,Ticks_Phase_8,120,1,48,33,3638246056
4010,22,Ticks_Phase_8,121,1,48,42,3639024352
4010,22,Ticks_Phase_8,122,5,42,127,3639037492
4010,22,Ticks_Phase_8,123,1,48,37,3639811188
4010,22,Ticks_Phase_8,124,5,42,127,3639836980
4010,22,Ticks_Phase_8,125,1,48,38,3640618912
4010,22,Ticks_Phase_8,126,5,42,127,3640636696
4010,22,Ticks_Phase_8,127,1,48,29,3641431652
4010,22,Ticks_Phase_8,128,5,42,127,3641476548
4010,22,Ticks_Phase_8,129,1,48,28,3642232864
4010,22,Ticks_Phase_8,130,5,42,127,3642277380
4010,22,Ticks_Phase_8,131,1,48,38,3643058416
4010,22,Ticks_Phase_8,132,5,42,127,3643076868
4010,22,Ticks_Phase_8,133,5,42,127,3643876732
4010,22,Ticks_Phase_8,134,1,48,46,3643896776
4010,22,Ticks_Phase_8,135,5,42,127,3644676448
4010,22,Ticks_Phase_8,136,1,48,45,3644699712
4010,22,Ticks_Phase_8,137,5,42,127,3645477280
4010,22,Ticks_Phase_8,138,1,48,43,3645505416
4010,22,Ticks_Phase_8,139,1,48,39,3646270664
4010,22,Ticks_Phase_8,140,5,42,127,3646277132
4010,22,Ticks_Phase_8,141,5,42,127,3647076628
4010,22,Ticks_Phase_8,142,1,48,38,3647090376
4010,22,Ticks_Phase_8,143,1,48,31,3647846652
4010,22,Ticks_Phase_8,144,5,42,127,3647876556
4010,22,Ticks_Phase_8,145,1,48,42,3648665308
4010,22,Ticks_Phase_8,146,5,42,127,3648677240
4010,22,Ticks_Phase_8,147,1,48,45,3649462088
4010,22,Ticks_Phase_8,148,5,42,127,3649477176
4010,22,Ticks_Phase_8,149,5,42,127,3650276600
4010,22,Ticks_Phase_8,150,1,48,43,3650293816
4010,22,Ticks_Phase_8,151,5,42,127,3651076484
4010,22,Ticks_Phase_8,152,1,48,43,3651082816
4010,22,Ticks_Phase_8,153,5,42,127,3651877316
4010,22,Ticks_Phase_8,154,1,48,44,3651902000
4010,22,Ticks_Phase_8,155,5,42,127,3652677104
4010,22,Ticks_Phase_8,156,1,48,42,3652707036
4010,22,Ticks_Phase_8,157,5,42,127,3653476668
4010,22,Ticks_Phase_8,158,1,48,45,3653514392
4010,22,Ticks_Phase_8,159,5,42,127,3654276428
4010,22,Ticks_Phase_8,160,1,48,44,3654328220
4010,22,Ticks_Phase_8,161,5,42,127,3655037272
4010,22,Ticks_Phase_8,162,1,48,39,3655107492
4010,22,Ticks_Phase_8,163,1,48,38,3655778012
4010,22,Ticks_Phase_8,164,5,42,127,3655837052
4010,22,Ticks_Phase_8,165,1,48,43,3656553152
4010,22,Ticks_Phase_8,166,5,42,127,3656637060
4010,22,Ticks_Phase_8,167,5,42,127,3657436480
4010,22,Ticks_Phase_8,168,1,48,39,3657486660
4010,22,Ticks_Phase_8,169,5,42,127,3658237188
4010,22,Ticks_Phase_8,170,1,48,50,3658252436
4010,22,Ticks_Phase_8,171,1,48,33,3659018520
4010,22,Ticks_Phase_8,172,5,42,127,3659036968
4010,22,Ticks_Phase_8,173,5,42,127,3659837060
4010,22,Ticks_Phase_8,174,1,48,49,3659839428
4010,22,Ticks_Phase_8,175,1,48,43,3660626032
4010,22,Ticks_Phase_8,176,5,42,127,3660636468
4010,22,Ticks_Phase_8,177,1,48,50,3661396536
4010,22,Ticks_Phase_8,178,5,42,127,3661437152
4010,22,Ticks_Phase_8,179,1,48,45,3662224708
4010,22,Ticks_Phase_8,180,5,42,127,3662236940
4010,22,Ticks_Phase_8,181,5,42,127,3663036880
4010,22,Ticks_Phase_8,182,1,48,37,3663043212
4010,22,Ticks_Phase_8,183,5,42,127,3663836816
4010,22,Ticks_Phase_8,184,1,48,38,3663863096
4010,22,Ticks_Phase_8,185,5,42,127,3664637300
4010,22,Ticks_Phase_8,186,1,48,35,3664672844
4010,22,Ticks_Phase_8,187,5,42,127,3665437088
4010,22,Ticks_Phase_8,188,1,48,41,3665458104
4010,22,Ticks_Phase_8,189,5,42,127,3666236724
4010,22,Ticks_Phase_8,190,1,48,34,3666251076
4010,22,Ticks_Phase_8,191,1,48,39,3667029656
4010,22,Ticks_Phase_8,192,5,42,127,3667036804
4010,22,Ticks_Phase_8,193,5,42,127,3667757368
4010,22,Ticks_Phase_8,194,1,48,38,3667833196
4010,22,Ticks_Phase_8,195,1,48,38,3668528960
4010,22,Ticks_Phase_8,196,5,42,127,3668567556
4010,22,Ticks_Phase_8,197,1,48,35,3669296700
4010,22,Ticks_Phase_8,198,5,42,127,3669367120
4010,22,Ticks_Phase_8,199,5,42,127,3670166988
4010,22,Ticks_Phase_8,200,1,48,27,3670215716
4010,22,Ticks_Phase_8,201,5,42,127,3670966624
4010,22,Ticks_Phase_8,202,1,48,33,3670984112
4010,22,Ticks_Phase_8,203,1,48,13,3671756560
4010,22,Ticks_Phase_8,204,1,48,25,3671761032
4010,22,Ticks_Phase_8,205,5,42,127,3671767352
4010,22,Ticks_Phase_8,206,1,48,36,3672547788
4010,22,Ticks_Phase_8,207,5,42,127,3672567236
4010,22,Ticks_Phase_8,208,1,48,36,3673334036
4010,22,Ticks_Phase_8,209,5,42,127,3673366948
4010,22,Ticks_Phase_8,210,1,48,51,3674132324
4010,22,Ticks_Phase_8,211,5,42,127,3674166732
4010,22,Ticks_Phase_8,212,5,42,127,3674967424
4010,22,Ticks_Phase_8,213,1,48,49,3674999004
4010,22,Ticks_Phase_8,214,1,48,45,3675756844
4010,22,Ticks_Phase_8,215,5,42,127,3675767280
4010,22,Ticks_Phase_8,216,5,42,127,3676566848
4010,22,Ticks_Phase_8,217,1,48,26,3676568860
4010,22,Ticks_Phase_8,218,5,42,127,3677366708
4010,22,Ticks_Phase_8,219,1,48,40,3677369456
4010,22,Ticks_Phase_8,220,1,48,43,3678163980
4010,22,Ticks_Phase_8,221,5,42,127,3678167684
4010,22,Ticks_Phase_8,222,1,48,43,3678949868
4010,22,Ticks_Phase_8,223,5,42,127,3678967272
4010,22,Ticks_Phase_8,224,1,48,46,3679746512
4010,22,Ticks_Phase_8,225,5,42,127,3679766760
4010,22,Ticks_Phase_8,226,1,48,50,3680559476
4010,22,Ticks_Phase_8,227,5,42,127,3680566624
4010,22,Ticks_Phase_8,228,1,48,49,3681397456
4010,22,Ticks_Phase_8,229,5,42,127,3681447284
4010,22,Ticks_Phase_8,230,5,42,127,3682247300
4010,22,Ticks_Phase_8,231,1,48,51,3682279952
4010,22,Ticks_Phase_8,232,5,42,127,3683046740
4010,22,Ticks_Phase_8,233,1,48,44,3683088052
4010,22,Ticks_Phase_8,234,1,48,49,3683843340
4010,22,Ticks_Phase_8,235,5,42,127,3683846520
4010,22,Ticks_Phase_8,236,5,42,127,3684647208
4010,22,Ticks_Phase_8,237,1,48,44,3684669272
4010,22,Ticks_Phase_8,238,5,42,127,3685447220
4010,22,Ticks_Phase_8,239,1,48,43,3685451460
4010,22,Ticks_Phase_8,240,5,42,127,3686246780
4010,22,Ticks_Phase_8,241,1,48,42,3686263148
4010,22,Ticks_Phase_8,242,1,48,48,3687046420
4010,22,Ticks_Phase_8,243,5,42,127,3687048056
4010,22,Ticks_Phase_8,244,5,42,127,3687847252
4010,22,Ticks_Phase_8,245,1,48,43,3687848144
4010,22,Ticks_Phase_8,246,5,42,127,3688647264
4010,22,Ticks_Phase_8,247,1,48,46,3688689572
4010,22,Ticks_Phase_8,248,5,42,127,3689446628
4010,22,Ticks_Phase_8,249,1,48,41,3689462396
4010,22,Ticks_Phase_8,250,5,42,127,3690246488
4010,22,Ticks_Phase_8,251,1,48,45,3690312056
4010,22,Ticks_Phase_8,252,1,48,42,3691009096
4010,22,Ticks_Phase_8,253,5,42,127,3691047240
4010,22,Ticks_Phase_8,254,1,48,26,3691838380
4010,22,Ticks_Phase_8,255,5,42,127,3691846952
4010,22,Ticks_Phase_8,256,5,42,127,3692646968
4010,22,Ticks_Phase_8,257,1,48,40,3692681312
4010,22,Ticks_Phase_8,258,1,48,36,3693419684
4010,22,Ticks_Phase_8,259,5,42,127,3693446524
4010,22,Ticks_Phase_8,260,1,48,36,3694235496
4010,22,Ticks_Phase_8,261,5,42,127,3694247208
4010,22,Ticks_Phase_8,262,1,48,28,3695088552
4010,22,Ticks_Phase_8,263,5,42,127,3695207188
4010,22,Ticks_Phase_8,264,5,42,127,3696006548
4010,22,Ticks_Phase_8,265,1,48,29,3696148836
4010,22,Ticks_Phase_8,266,5,42,127,3696807232
4010,22,Ticks_Phase_8,267,1,48,35,3696833564
4010,22,Ticks_Phase_8,268,5,42,127,3697607168
4010,22,Ticks_Phase_8,269,1,48,45,3697619200
4010,22,Ticks_Phase_8,270,1,48,40,3698387000
4010,22,Ticks_Phase_8,271,5,42,127,3698407048
4010,22,Ticks_Phase_8,272,1,48,47,3699171528
4010,22,Ticks_Phase_8,273,5,42,127,3699206608
4010,22,Ticks_Phase_8,274,5,42,127,3700007152
4010,22,Ticks_Phase_8,275,1,48,37,3700030860
4010,22,Ticks_Phase_8,276,1,48,44,3700790120
4010,22,Ticks_Phase_8,277,5,42,127,3700807004
4010,22,Ticks_Phase_8,278,1,48,43,3701600324
4010,22,Ticks_Phase_8,279,5,42,127,3701606868
4010,22,Ticks_Phase_8,280,1,48,40,3702372768
4010,22,Ticks_Phase_8,281,5,42,127,3702406804
4010,22,Ticks_Phase_8,282,1,48,44,3703166644
4010,22,Ticks_Phase_8,283,5,42,127,3703207264
4010,22,Ticks_Phase_8,284,5,42,127,3704006908
4010,22,Ticks_Phase_8,285,1,48,36,3704018340
4010,22,Ticks_Phase_8,286,5,42,127,3704806644
4010,22,Ticks_Phase_8,287,1,48,40,3704823456
4010,22,Ticks_Phase_8,288,5,42,127,3705606728
4010,22,Ticks_Phase_8,289,1,48,48,3705618540
4010,22,Ticks_Phase_8,290,1,48,43,3706406964
4010,22,Ticks_Phase_8,291,5,42,127,3706408676
4010,22,Ticks_Phase_8,292,5,42,127,3707206976
4010,22,Ticks_Phase_8,293,1,48,43,3707240500
4010,22,Ticks_Phase_8,294,5,42,127,3708006688
4010,22,Ticks_Phase_8,295,1,48,45,3708020964
4010,22,Ticks_Phase_8,296,1,48,34,3708803732
4010,22,Ticks_Phase_8,297,5,42,127,3708806764
4010,22,Ticks_Phase_8,298,5,42,127,3709607384
4010,22,Ticks_Phase_8,299,1,48,43,3709632668
4010,22,Ticks_Phase_8,300,5,42,127,3710247360
4010,22,Ticks_Phase_8,301,1,48,42,3710432824
4010,22,Ticks_Phase_8,302,5,42,127,3711046924
4010,22,Ticks_Phase_8,303,1,48,32,3711194652
4010,22,Ticks_Phase_8,304,1,48,38,3711820836
4010,22,Ticks_Phase_8,305,5,42,127,3711846700
4010,22,Ticks_Phase_8,306,1,48,33,3712641288
4010,22,Ticks_Phase_8,307,5,42,127,3712646488
4010,22,Ticks_Phase_8,308,5,42,127,3713447332
4010,22,Ticks_Phase_8,309,1,48,26,3713452544
4010,22,Ticks_Phase_8,310,1,48,42,3714226268
4010,22,Ticks_Phase_8,311,5,42,127,3714247184
4010,22,Ticks_Phase_8,312,1,48,44,3715038704
4010,22,Ticks_Phase_8,313,5,42,127,3715046624
4010,22,Ticks_Phase_8,314,1,48,47,3715836568
4010,22,Ticks_Phase_8,315,5,42,127,3715846408
4010,22,Ticks_Phase_8,316,5,42,127,3716647248
4010,22,Ticks_Phase_8,317,1,48,45,3716693720
4010,22,Ticks_Phase_8,318,1,48,44,3717437040
4010,22,Ticks_Phase_8,319,5,42,127,3717447104
4010,22,Ticks_Phase_8,320,1,48,45,3718223712
4010,22,Ticks_Phase_8,321,5,42,127,3718246668
4010,22,Ticks_Phase_8,322,5,42,127,3719046536
4010,22,Ticks_Phase_8,323,1,48,45,3719074580
4010,22,Ticks_Phase_8,324,1,48,44,3719834832
4010,22,Ticks_Phase_8,325,5,42,127,3719847212
4010,22,Ticks_Phase_8,326,1,48,43,3720622848
4010,22,Ticks_Phase_8,327,5,42,127,3720646996
4010,22,Ticks_Phase_8,328,1,48,36,3721435972
4010,22,Ticks_Phase_8,329,5,42,127,3721446736
4010,22,Ticks_Phase_8,330,5,42,127,3722246528
4010,22,Ticks_Phase_8,331,1,48,41,3722267544
4010,22,Ticks_Phase_8,332,1,48,41,3723011972
4010,22,Ticks_Phase_8,333,5,42,127,3723047280
4010,22,Ticks_Phase_8,334,5,42,127,3723847072
4010,22,Ticks_Phase_8,335,1,48,43,3723862468
4010,22,Ticks_Phase_8,336,5,42,127,3724646708
4010,22,Ticks_Phase_8,337,1,48,47,3724704708
4010,22,Ticks_Phase_8,338,5,42,127,3725446420
4010,22,Ticks_Phase_8,0,9999,9999,9999,3590234212
4010,22,Ticks_Phase_8,1,9999,9999,9999,3591034984
4010,22,Ticks_Phase_8,2,9999,9999,9999,3591834696
4010,22,Ticks_Phase_8,3,9999,9999,9999,3592634484
4010,22,Ticks_Phase_8,4,9999,9999,9999,3593434196
4010,22,Ticks_Phase_8,5,9999,9999,9999,3594234976
4010,22,Ticks_Phase_8,6,9999,9999,9999,3595034692
4010,22,Ticks_Phase_8,7,9999,9999,9999,3595834484
4010,22,Ticks_Phase_8,8,9999,9999,9999,3596634196
4010,22,Ticks_Phase_8,9,9999,9999,9999,3597434952
4010,22,Ticks_Phase_8,10,9999,9999,9999,3598234732
4010,22,Ticks_Phase_8,11,9999,9999,9999,3599034444
4010,22,Ticks_Phase_8,12,9999,9999,9999,3599834236
4010,22,Ticks_Phase_8,13,9999,9999,9999,3600634944
4010,22,Ticks_Phase_8,14,9999,9999,9999,3601434732
4010,22,Ticks_Phase_8,15,9999,9999,9999,3602234444
4010,22,Ticks_Phase_8,16,9999,9999,9999,3603034228
4010,22,Ticks_Phase_8,17,9999,9999,9999,3603834984
4010,22,Ticks_Phase_8,18,9999,9999,9999,3604634696
4010,22,Ticks_Phase_8,19,9999,9999,9999,3605434480
4010,22,Ticks_Phase_8,20,9999,9999,9999,3606234188
4010,22,Ticks_Phase_8,21,9999,9999,9999,3607034972
4010,22,Ticks_Phase_8,22,9999,9999,9999,3607834684
4010,22,Ticks_Phase_8,23,9999,9999,9999,3608634472
4010,22,Ticks_Phase_8,24,9999,9999,9999,3609434184
4010,22,Ticks_Phase_8,25,9999,9999,9999,3610234940
4010,22,Ticks_Phase_8,26,9999,9999,9999,3611034728
4010,22,Ticks_Phase_8,27,9999,9999,9999,3611834492
4010,22,Ticks_Phase_8,28,9999,9999,9999,3612634204
4010,22,Ticks_Phase_8,29,9999,9999,9999,3613434984
4010,22,Ticks_Phase_8,30,9999,9999,9999,3614214260
4010,22,Ticks_Phase_8,31,9999,9999,9999,3615015012
4010,22,Ticks_Phase_8,32,9999,9999,9999,3615814732
4010,22,Ticks_Phase_8,33,9999,9999,9999,3616614512
4010,22,Ticks_Phase_8,34,9999,9999,9999,3617414224
4010,22,Ticks_Phase_8,35,9999,9999,9999,3618214980
4010,22,Ticks_Phase_8,36,9999,9999,9999,3619014768
4010,22,Ticks_Phase_8,37,9999,9999,9999,3619814488
4010,22,Ticks_Phase_8,38,9999,9999,9999,3620614224
4010,22,Ticks_Phase_8,39,9999,9999,9999,3621414984
4010,22,Ticks_Phase_8,40,9999,9999,9999,3622214764
4010,22,Ticks_Phase_8,41,9999,9999,9999,3623014476
4010,22,Ticks_Phase_8,42,9999,9999,9999,3623814264
4010,22,Ticks_Phase_8,43,9999,9999,9999,3624615016
4010,22,Ticks_Phase_8,44,9999,9999,9999,3625414736
4010,22,Ticks_Phase_8,45,9999,9999,9999,3626214520
4010,22,Ticks_Phase_8,46,9999,9999,9999,3627014260
4010,22,Ticks_Phase_8,47,9999,9999,9999,3627815016
4010,22,Ticks_Phase_8,48,9999,9999,9999,3628634200
4010,22,Ticks_Phase_8,49,9999,9999,9999,3629434960
4010,22,Ticks_Phase_8,50,9999,9999,9999,3630234740
4010,22,Ticks_Phase_8,51,9999,9999,9999,3631034456
4010,22,Ticks_Phase_8,52,9999,9999,9999,3631834168
4010,22,Ticks_Phase_8,53,9999,9999,9999,3632634952
4010,22,Ticks_Phase_8,54,9999,9999,9999,3633434732
4010,22,Ticks_Phase_8,55,9999,9999,9999,3634234444
4010,22,Ticks_Phase_8,56,9999,9999,9999,3635034236
4010,22,Ticks_Phase_8,57,9999,9999,9999,3635834996
4010,22,Ticks_Phase_8,58,9999,9999,9999,3636634700
4010,22,Ticks_Phase_8,59,9999,9999,9999,3637434488
4010,22,Ticks_Phase_8,60,9999,9999,9999,3638234204
4010,22,Ticks_Phase_8,61,9999,9999,9999,3639034980
4010,22,Ticks_Phase_8,62,9999,9999,9999,3639834692
4010,22,Ticks_Phase_8,63,9999,9999,9999,3640634480
4010,22,Ticks_Phase_8,64,9999,9999,9999,3641474108
4010,22,Ticks_Phase_8,65,9999,9999,9999,3642274940
4010,22,Ticks_Phase_8,66,9999,9999,9999,3643074652
4010,22,Ticks_Phase_8,67,9999,9999,9999,3643874372
4010,22,Ticks_Phase_8,68,9999,9999,9999,3644674156
4010,22,Ticks_Phase_8,69,9999,9999,9999,3645474916
4010,22,Ticks_Phase_8,70,9999,9999,9999,3646274624
4010,22,Ticks_Phase_8,71,9999,9999,9999,3647074416
4010,22,Ticks_Phase_8,72,9999,9999,9999,3647874120
4010,22,Ticks_Phase_8,73,9999,9999,9999,3648674876
4010,22,Ticks_Phase_8,74,9999,9999,9999,3649474664
4010,22,Ticks_Phase_8,75,9999,9999,9999,3650274384
4010,22,Ticks_Phase_8,76,9999,9999,9999,3651074120
4010,22,Ticks_Phase_8,77,9999,9999,9999,3651874880
4010,22,Ticks_Phase_8,78,9999,9999,9999,3652674664
4010,22,Ticks_Phase_8,79,9999,9999,9999,3653474380
4010,22,Ticks_Phase_8,80,9999,9999,9999,3654274140
4010,22,Ticks_Phase_8,81,9999,9999,9999,3655034980
4010,22,Ticks_Phase_8,82,9999,9999,9999,3655834688
4010,22,Ticks_Phase_8,83,9999,9999,9999,3656634472
4010,22,Ticks_Phase_8,84,9999,9999,9999,3657434192
4010,22,Ticks_Phase_8,85,9999,9999,9999,3658234976
4010,22,Ticks_Phase_8,86,9999,9999,9999,3659034680
4010,22,Ticks_Phase_8,87,9999,9999,9999,3659834472
4010,22,Ticks_Phase_8,88,9999,9999,9999,3660634180
4010,22,Ticks_Phase_8,89,9999,9999,9999,3661434940
4010,22,Ticks_Phase_8,90,9999,9999,9999,3662234724
4010,22,Ticks_Phase_8,91,9999,9999,9999,3663034444
4010,22,Ticks_Phase_8,92,9999,9999,9999,3663834228
4010,22,Ticks_Phase_8,93,9999,9999,9999,3664634936
4010,22,Ticks_Phase_8,94,9999,9999,9999,3665434724
4010,22,Ticks_Phase_8,95,9999,9999,9999,3666234436
4010,22,Ticks_Phase_8,96,9999,9999,9999,3667034216
4010,22,Ticks_Phase_8,97,9999,9999,9999,3667755076
4010,22,Ticks_Phase_8,98,9999,9999,9999,3668565116
4010,22,Ticks_Phase_8,99,9999,9999,9999,3669364828
4010,22,Ticks_Phase_8,100,9999,9999,9999,3670164548
4010,22,Ticks_Phase_8,101,9999,9999,9999,3670964336
4010,22,Ticks_Phase_8,102,9999,9999,9999,3671765064
4010,22,Ticks_Phase_8,103,9999,9999,9999,3672564800
4010,22,Ticks_Phase_8,104,9999,9999,9999,3673364584
4010,22,Ticks_Phase_8,105,9999,9999,9999,3674164296
4010,22,Ticks_Phase_8,106,9999,9999,9999,3674965060
4010,22,Ticks_Phase_8,107,9999,9999,9999,3675764840
4010,22,Ticks_Phase_8,108,9999,9999,9999,3676564560
4010,22,Ticks_Phase_8,109,9999,9999,9999,3677364344
4010,22,Ticks_Phase_8,110,9999,9999,9999,3678165096
4010,22,Ticks_Phase_8,111,9999,9999,9999,3678964832
4010,22,Ticks_Phase_8,112,9999,9999,9999,3679764544
4010,22,Ticks_Phase_8,113,9999,9999,9999,3680564332
4010,22,Ticks_Phase_8,114,9999,9999,9999,3681444920
4010,22,Ticks_Phase_8,115,9999,9999,9999,3682244716
4010,22,Ticks_Phase_8,116,9999,9999,9999,3683044452
4010,22,Ticks_Phase_8,117,9999,9999,9999,3683844156
4010,22,Ticks_Phase_8,118,9999,9999,9999,3684644920
4010,22,Ticks_Phase_8,119,9999,9999,9999,3685444708
4010,22,Ticks_Phase_8,120,9999,9999,9999,3686244420
4010,22,Ticks_Phase_8,121,9999,9999,9999,3687044204
4010,22,Ticks_Phase_8,122,9999,9999,9999,3687844964
4010,22,Ticks_Phase_8,123,9999,9999,9999,3688644676
4010,22,Ticks_Phase_8,124,9999,9999,9999,3689444412
4010,22,Ticks_Phase_8,125,9999,9999,9999,3690244200
4010,22,Ticks_Phase_8,126,9999,9999,9999,3691044952
4010,22,Ticks_Phase_8,127,9999,9999,9999,3691844660
4010,22,Ticks_Phase_8,128,9999,9999,9999,3692644452
4010,22,Ticks_Phase_8,129,9999,9999,9999,3693444160
4010,22,Ticks_Phase_8,130,9999,9999,9999,3694244916
4010,22,Ticks_Phase_8,131,9999,9999,9999,3695204452
4010,22,Ticks_Phase_8,132,9999,9999,9999,3696004184
4010,22,Ticks_Phase_8,133,9999,9999,9999,3696804944
4010,22,Ticks_Phase_8,134,9999,9999,9999,3697604728
4010,22,Ticks_Phase_8,135,9999,9999,9999,3698404460
4010,22,Ticks_Phase_8,136,9999,9999,9999,3699204172
4010,22,Ticks_Phase_8,137,9999,9999,9999,3700004936
4010,22,Ticks_Phase_8,138,9999,9999,9999,3700804716
4010,22,Ticks_Phase_8,139,9999,9999,9999,3701604428
4010,22,Ticks_Phase_8,140,9999,9999,9999,3702404216
4010,22,Ticks_Phase_8,141,9999,9999,9999,3703204976
4010,22,Ticks_Phase_8,142,9999,9999,9999,3704004692
4010,22,Ticks_Phase_8,143,9999,9999,9999,3704804428
4010,22,Ticks_Phase_8,144,9999,9999,9999,3705604216
4010,22,Ticks_Phase_8,145,9999,9999,9999,3706404976
4010,22,Ticks_Phase_8,146,9999,9999,9999,3707204688
4010,22,Ticks_Phase_8,147,9999,9999,9999,3708004476
4010,22,Ticks_Phase_8,148,9999,9999,9999,3708804180
4010,22,Ticks_Phase_8,149,9999,9999,9999,3709604944
4010,22,Ticks_Phase_8,150,9999,9999,9999,3710244920
4010,22,Ticks_Phase_8,151,9999,9999,9999,3711044708
4010,22,Ticks_Phase_8,152,9999,9999,9999,3711844412
4010,22,Ticks_Phase_8,153,9999,9999,9999,3712644200
4010,22,Ticks_Phase_8,154,9999,9999,9999,3713444968
4010,22,Ticks_Phase_8,155,9999,9999,9999,3714244672
4010,22,Ticks_Phase_8,156,9999,9999,9999,3715044408
4010,22,Ticks_Phase_8,157,9999,9999,9999,3715844196
4010,22,Ticks_Phase_8,158,9999,9999,9999,3716644960
4010,22,Ticks_Phase_8,159,9999,9999,9999,3717444664
4010,22,Ticks_Phase_8,160,9999,9999,9999,3718244452
4010,22,Ticks_Phase_8,161,9999,9999,9999,3719044172
4010,22,Ticks_Phase_8,162,9999,9999,9999,3719844920
4010,22,Ticks_Phase_8,163,9999,9999,9999,3720644708
4010,22,Ticks_Phase_8,164,9999,9999,9999,3721444444
4010,22,Ticks_Phase_8,165,9999,9999,9999,3722244164
4010,22,Ticks_Phase_8,166,9999,9999,9999,3723044992
4010,22,Ticks_Phase_8,167,9999,9999,9999,3723844708
4010,22,Ticks_Phase_8,168,9999,9999,9999,3724644420
4010,22,Ticks_Phase_8,169,9999,9999,9999,3725444208
4011,25,Jits_Pract_5,0,5,56,103,3778635164
4011,25,Jits_Pract_5,1,5,63,98,3778638260
4011,25,Jits_Pract_5,2,5,80,127,3778641456
4011,25,Jits_Pract_5,0,5,56,103,3779134744
4011,25,Jits_Pract_5,1,5,63,98,3779137840
4011,25,Jits_Pract_5,2,5,80,127,3779140964
4011,25,Jits_Pract_5,0,5,56,103,3779634488
4011,25,Jits_Pract_5,1,5,80,127,3779644756
4011,25,Jits_Pract_5,2,5,63,98,3779665364
4011,25,Jits_Pract_5,0,5,63,98,3780095344
4011,25,Jits_Pract_5,1,5,80,127,3780125316
4011,25,Jits_Pract_5,2,5,56,103,3780135140
4011,25,Jits_Pract_5,0,5,80,127,3780654488
4011,25,Jits_Pract_5,1,5,56,103,3780664684
4011,25,Jits_Pract_5,2,5,63,98,3780695332
4011,25,Jits_Pract_5,0,5,63,98,3781145092
4011,25,Jits_Pract_5,1,5,56,103,3781174620
4011,25,Jits_Pract_5,2,5,80,127,3781184740
4011,25,Jits_Pract_5,0,5,56,103,3781594380
4011,25,Jits_Pract_5,1,5,63,98,3781644684
4011,25,Jits_Pract_5,2,5,80,127,3781665364
4011,25,Jits_Pract_5,0,5,80,127,3782095172
4011,25,Jits_Pract_5,1,5,63,98,3782145476
4011,25,Jits_Pract_5,2,5,56,103,3782185188
4011,25,Jits_Pract_5,0,5,56,103,3782595212
4011,25,Jits_Pract_5,1,5,63,98,3782624616
4011,25,Jits_Pract_5,2,5,80,127,3782695344
4011,25,Jits_Pract_5,0,5,56,103,3783094660
4011,25,Jits_Pract_5,1,5,80,127,3783155224
4011,25,Jits_Pract_5,2,5,63,98,3783184752
4011,25,Jits_Pract_5,3,1,48,15,3783193720
4011,25,Jits_Pract_5,0,5,56,103,3783604556
4011,25,Jits_Pract_5,1,5,63,98,3783614828
4011,25,Jits_Pract_5,2,5,80,127,3783654644
4011,25,Jits_Pract_5,0,5,63,98,3784095084
4011,25,Jits_Pract_5,1,5,80,127,3784175128
4011,25,Jits_Pract_5,2,5,56,103,3784185396
4011,25,Jits_Pract_5,0,5,63,98,3784645084
4011,25,Jits_Pract_5,1,5,56,103,3784684972
4011,25,Jits_Pract_5,2,5,80,127,3784688040
4011,25,Jits_Pract_5,0,5,56,103,3785105028
4011,25,Jits_Pract_5,1,5,63,98,3785115148
4011,25,Jits_Pract_5,2,5,80,127,3785155084
4011,25,Jits_Pract_5,0,5,56,103,3785595400
4011,25,Jits_Pract_5,1,5,63,98,3785598320
4011,25,Jits_Pract_5,2,5,80,127,3785614588
4011,25,Jits_Pract_5,0,9999,9999,9999,3778882676
4011,25,Jits_Pract_5,1,9999,9999,9999,3779382328
4011,25,Jits_Pract_5,2,9999,9999,9999,3779883120
4011,25,Jits_Pract_5,3,9999,9999,9999,3780393052
4011,25,Jits_Pract_5,4,9999,9999,9999,3780892788
4011,25,Jits_Pract_5,5,9999,9999,9999,3781392460
4011,25,Jits_Pract_5,6,9999,9999,9999,3781892192
4011,25,Jits_Pract_5,7,9999,9999,9999,3782392908
4011,25,Jits_Pract_5,8,9999,9999,9999,3782892652
4011,25,Jits_Pract_5,9,9999,9999,9999,3783392376
4011,25,Jits_Pract_5,10,9999,9999,9999,3783893048
4011,25,Jits_Pract_5,11,9999,9999,9999,3784392796
4011,25,Jits_Pract_5,12,9999,9999,9999,3784892516
4011,25,Jits_Pract_5,13,9999,9999,9999,3785392248
4011,25,Jits_Pract_5,14,9999,9999,9999,3785892948
4012,25,Jits_Pract_5,0,5,56,103,3824498116
4012,25,Jits_Pract_5,1,5,63,98,3824501136
4012,25,Jits_Pract_5,2,5,80,127,3824504408
4012,25,Jits_Pract_5,0,5,56,103,3824997988
4012,25,Jits_Pract_5,1,5,63,98,3825001088
4012,25,Jits_Pract_5,2,5,80,127,3825004132
4012,25,Jits_Pract_5,0,5,56,103,3825497584
4012,25,Jits_Pract_5,1,5,80,127,3825507708
4012,25,Jits_Pract_5,2,5,63,98,3825528168
4012,25,Jits_Pract_5,0,5,63,98,3825947964
4012,25,Jits_Pract_5,1,5,80,127,3825977936
4012,25,Jits_Pract_5,2,5,56,103,3825987908
4012,25,Jits_Pract_5,0,1,48,46,3826471328
4012,25,Jits_Pract_5,1,5,80,127,3826508072
4012,25,Jits_Pract_5,2,5,56,103,3826518268
4012,25,Jits_Pract_5,3,5,63,98,3826547944
4012,25,Jits_Pract_5,0,1,48,54,3826983988
4012,25,Jits_Pract_5,1,5,63,98,3826997804
4012,25,Jits_Pract_5,2,5,56,103,3827028304
4012,25,Jits_Pract_5,3,5,80,127,3827037752
4012,25,Jits_Pract_5,0,5,56,103,3827448136
4012,25,Jits_Pract_5,1,5,63,98,3827498488
4012,25,Jits_Pract_5,2,1,48,56,3827503100
4012,25,Jits_Pract_5,3,5,80,127,3827517820
4012,25,Jits_Pract_5,0,5,80,127,3827947768
4012,25,Jits_Pract_5,1,5,63,98,3827997972
4012,25,Jits_Pract_5,2,1,48,55,3827999384
4012,25,Jits_Pract_5,3,5,56,103,3828037976
4012,25,Jits_Pract_5,0,5,56,103,3828447848
4012,25,Jits_Pract_5,1,5,63,98,3828478200
4012,25,Jits_Pract_5,2,1,48,56,3828494424
4012,25,Jits_Pract_5,3,5,80,127,3828547944
4012,25,Jits_Pract_5,0,5,56,103,3828948576
4012,25,Jits_Pract_5,1,1,48,52,3829003712
4012,25,Jits_Pract_5,2,5,80,127,3829007792
4012,25,Jits_Pract_5,3,5,63,98,3829037616
4012,25,Jits_Pract_5,0,5,56,103,3829458176
4012,25,Jits_Pract_5,1,5,63,98,3829467500
4012,25,Jits_Pract_5,2,1,48,53,3829469364
4012,25,Jits_Pract_5,3,5,80,127,3829507508
4012,25,Jits_Pract_5,0,5,63,98,3829947620
4012,25,Jits_Pract_5,1,1,48,55,3829968720
4012,25,Jits_Pract_5,2,5,80,127,3830027732
4012,25,Jits_Pract_5,3,5,56,103,3830037852
4012,25,Jits_Pract_5,0,1,48,57,3830489460
4012,25,Jits_Pract_5,1,5,63,98,3830497676
4012,25,Jits_Pract_5,2,5,56,103,3830537616
4012,25,Jits_Pract_5,3,5,80,127,3830540604
4012,25,Jits_Pract_5,0,5,56,103,3830957788
4012,25,Jits_Pract_5,1,5,63,98,3830967836
4012,25,Jits_Pract_5,2,5,80,127,3831007796
4012,25,Jits_Pract_5,3,1,48,53,3831023120
4012,25,Jits_Pract_5,0,5,56,103,3831447976
4012,25,Jits_Pract_5,1,5,63,98,3831450968
4012,25,Jits_Pract_5,2,5,80,127,3831468584
4012,25,Jits_Pract_5,3,1,48,53,3831492900
4012,25,Jits_Pract_5,0,9999,9999,9999,3824745552
4012,25,Jits_Pract_5,1,9999,9999,9999,3825245276
4012,25,Jits_Pract_5,2,9999,9999,9999,3825745996
4012,25,Jits_Pract_5,3,9999,9999,9999,3826245744
4012,25,Jits_Pract_5,4,9999,9999,9999,3826745460
4012,25,Jits_Pract_5,5,9999,9999,9999,3827245156
4012,25,Jits_Pract_5,6,9999,9999,9999,3827745900
4012,25,Jits_Pract_5,7,9999,9999,9999,3828245604
4012,25,Jits_Pract_5,8,9999,9999,9999,3828745312
4012,25,Jits_Pract_5,9,9999,9999,9999,3829246068
4012,25,Jits_Pract_5,10,9999,9999,9999,3829745772
4012,25,Jits_Pract_5,11,9999,9999,9999,3830245484
4012,25,Jits_Pract_5,12,9999,9999,9999,3830745144
4012,25,Jits_Pract_5,13,9999,9999,9999,3831245884
4012,25,Jits_Pract_5,14,9999,9999,9999,3831745652
4013,24,Jits_Pract_8,0,5,56,103,3838290460
4013,24,Jits_Pract_8,1,5,63,98,3838293712
4013,24,Jits_Pract_8,2,5,80,127,3838296756
4013,24,Jits_Pract_8,0,5,56,103,3839090180
4013,24,Jits_Pract_8,1,5,63,98,3839093356
4013,24,Jits_Pract_8,2,5,80,127,3839096400
4013,24,Jits_Pract_8,0,5,80,127,3839839568
4013,24,Jits_Pract_8,1,5,63,98,3839929780
4013,24,Jits_Pract_8,2,5,56,103,3839939828
4013,24,Jits_Pract_8,3,1,48,56,3839950364
4013,24,Jits_Pract_8,0,5,56,103,3840659948
4013,24,Jits_Pract_8,1,5,63,98,3840669996
4013,24,Jits_Pract_8,2,1,48,54,3840681136
4013,24,Jits_Pract_8,3,5,80,127,3840760368
4013,24,Jits_Pract_8,0,5,63,98,3841429824
4013,24,Jits_Pract_8,1,1,48,53,3841452052
4013,24,Jits_Pract_8,2,5,80,127,3841459568
4013,24,Jits_Pract_8,3,5,56,103,3841490216
4013,24,Jits_Pract_8,0,1,48,55,3842197016
4013,24,Jits_Pract_8,1,5,56,103,3842229496
4013,24,Jits_Pract_8,2,5,80,127,3842330200
4013,24,Jits_Pract_8,3,5,63,98,3842380400
4013,24,Jits_Pract_8,0,1,48,52,3842982028
4013,24,Jits_Pract_8,1,5,56,103,3843030452
4013,24,Jits_Pract_8,2,5,80,127,3843079412
4013,24,Jits_Pract_8,3,5,63,98,3843119332
4013,24,Jits_Pract_8,0,1,48,46,3843750540
4013,24,Jits_Pract_8,1,5,80,127,3843859960
4013,24,Jits_Pract_8,2,5,63,98,3843889416
4013,24,Jits_Pract_8,3,5,56,103,3843960288
4013,24,Jits_Pract_8,0,1,48,44,3844616916
4013,24,Jits_Pract_8,1,5,63,98,3844690228
4013,24,Jits_Pract_8,2,5,56,103,3844719960
4013,24,Jits_Pract_8,3,5,80,127,3844780348
4013,24,Jits_Pract_8,0,5,56,103,3845429528
4013,24,Jits_Pract_8,1,5,80,127,3845432600
4013,24,Jits_Pract_8,2,1,48,36,3845440444
4013,24,Jits_Pract_8,3,5,63,98,3845549308
4013,24,Jits_Pract_8,0,5,56,103,3846310132
4013,24,Jits_Pract_8,1,5,80,127,3846350144
4013,24,Jits_Pract_8,2,5,63,98,3846360564
4013,24,Jits_Pract_8,3,1,48,36,3846384760
4013,24,Jits_Pract_8,0,5,56,103,3847070276
4013,24,Jits_Pract_8,1,5,80,127,3847089464
4013,24,Jits_Pract_8,2,1,48,39,3847162356
4013,24,Jits_Pract_8,3,5,63,98,3847170544
4013,24,Jits_Pract_8,0,5,80,127,3847859564
4013,24,Jits_Pract_8,1,1,48,43,3847883880
4013,24,Jits_Pract_8,2,5,56,103,3847959904
4013,24,Jits_Pract_8,3,5,63,98,3847970248
4013,24,Jits_Pract_8,0,5,63,98,3848629592
4013,24,Jits_Pract_8,1,1,48,49,3848676636
4013,24,Jits_Pract_8,2,5,80,127,3848690152
4013,24,Jits_Pract_8,3,5,56,103,3848700200
4013,24,Jits_Pract_8,0,1,48,53,3849393352
4013,24,Jits_Pract_8,1,5,56,103,3849430240
4013,24,Jits_Pract_8,2,5,63,98,3849500080
4013,24,Jits_Pract_8,3,5,80,127,3849503368
4013,24,Jits_Pract_8,0,9999,9999,9999,3838687300
4013,24,Jits_Pract_8,1,9999,9999,9999,3839488064
4013,24,Jits_Pract_8,2,9999,9999,9999,3840298044
4013,24,Jits_Pract_8,3,9999,9999,9999,3841097820
4013,24,Jits_Pract_8,4,9999,9999,9999,3841897584
4013,24,Jits_Pract_8,5,9999,9999,9999,3842697272
4013,24,Jits_Pract_8,6,9999,9999,9999,3843498072
4013,24,Jits_Pract_8,7,9999,9999,9999,3844297832
4013,24,Jits_Pract_8,8,9999,9999,9999,3845097544
4013,24,Jits_Pract_8,9,9999,9999,9999,3845897288
4013,24,Jits_Pract_8,10,9999,9999,9999,3846698036
4013,24,Jits_Pract_8,11,9999,9999,9999,3847497812
4013,24,Jits_Pract_8,12,9999,9999,9999,3848297588
4013,24,Jits_Pract_8,13,9999,9999,9999,3849097280
4013,24,Jits_Pract_8,14,9999,9999,9999,3849898076
4014,16,Jits_ISO_5,0,5,56,103,3882480068
4014,16,Jits_ISO_5,1,5,63,98,3882483016
4014,16,Jits_ISO_5,2,5,80,127,3882486140
4014,16,Jits_ISO_5,0,5,56,103,3882979716
4014,16,Jits_ISO_5,1,5,63,98,3882982736
4014,16,Jits_ISO_5,2,5,80,127,3882985936
4014,16,Jits_ISO_5,0,1,48,44,3883474672
4014,16,Jits_ISO_5,1,5,56,103,3883480424
4014,16,Jits_ISO_5,2,5,80,127,3883490020
4014,16,Jits_ISO_5,3,5,63,98,3883510032
4014,16,Jits_ISO_5,0,5,63,98,3883929864
4014,16,Jits_ISO_5,1,5,80,127,3883959688
4014,16,Jits_ISO_5,2,5,56,103,3883969808
4014,16,Jits_ISO_5,3,1,48,50,3883999328
4014,16,Jits_ISO_5,0,1,48,51,3884451888
4014,16,Jits_ISO_5,1,5,80,127,3884490048
4014,16,Jits_ISO_5,2,5,56,103,3884500320
4014,16,Jits_ISO_5,3,5,63,98,3884530092
4014,16,Jits_ISO_5,0,1,48,54,3884974100
4014,16,Jits_ISO_5,1,5,63,98,3884979524
4014,16,Jits_ISO_5,2,5,56,103,3885010468
4014,16,Jits_ISO_5,3,5,80,127,3885019492
4014,16,Jits_ISO_5,0,5,56,103,3885430044
4014,16,Jits_ISO_5,1,5,63,98,3885480392
4014,16,Jits_ISO_5,2,5,80,127,3885499728
4014,16,Jits_ISO_5,3,1,48,57,3885503368
4014,16,Jits_ISO_5,0,5,80,127,3885929940
4014,16,Jits_ISO_5,1,5,63,98,3885979992
4014,16,Jits_ISO_5,2,1,48,54,3885995988
4014,16,Jits_ISO_5,3,5,56,103,3886019924
4014,16,Jits_ISO_5,0,5,56,103,3886429616
4014,16,Jits_ISO_5,1,5,63,98,3886460412
4014,16,Jits_ISO_5,2,1,48,57,3886494468
4014,16,Jits_ISO_5,3,5,80,127,3886529936
4014,16,Jits_ISO_5,0,5,56,103,3886930264
4014,16,Jits_ISO_5,1,1,48,59,3886981104
4014,16,Jits_ISO_5,2,5,80,127,3886989748
4014,16,Jits_ISO_5,3,5,63,98,3887020396
4014,16,Jits_ISO_5,0,5,56,103,3887440204
4014,16,Jits_ISO_5,1,5,63,98,3887449500
4014,16,Jits_ISO_5,2,1,48,62,3887460336
4014,16,Jits_ISO_5,3,5,80,127,3887490476
4014,16,Jits_ISO_5,0,5,63,98,3887929832
4014,16,Jits_ISO_5,1,1,48,57,3887964268
4014,16,Jits_ISO_5,2,5,80,127,3888009548
4014,16,Jits_ISO_5,3,5,56,103,3888019964
4014,16,Jits_ISO_5,0,1,48,60,3888471792
4014,16,Jits_ISO_5,1,5,63,98,3888479836
4014,16,Jits_ISO_5,2,5,56,103,3888519696
4014,16,Jits_ISO_5,3,5,80,127,3888522988
4014,16,Jits_ISO_5,0,5,56,103,3888940612
4014,16,Jits_ISO_5,1,5,63,98,3888949612
4014,16,Jits_ISO_5,2,1,48,56,3888979556
4014,16,Jits_ISO_5,3,5,80,127,3888989692
4014,16,Jits_ISO_5,0,5,56,103,3889429872
4014,16,Jits_ISO_5,1,5,63,98,3889432792
4014,16,Jits_ISO_5,2,1,48,58,3889438316
4014,16,Jits_ISO_5,3,5,80,127,3889450472
4014,16,Jits_ISO_5,0,1,48,62,3889924180
4014,16,Jits_ISO_5,1,5,80,127,3889939796
4014,16,Jits_ISO_5,2,5,56,103,3889949916
4014,16,Jits_ISO_5,3,5,63,98,3890019800
4014,16,Jits_ISO_5,0,1,48,58,3890429940
4014,16,Jits_ISO_5,1,5,63,98,3890431656
4014,16,Jits_ISO_5,2,5,56,103,3890449872
4014,16,Jits_ISO_5,3,5,80,127,3890529796
4014,16,Jits_ISO_5,0,5,56,103,3890940168
4014,16,Jits_ISO_5,1,1,48,58,3890942104
4014,16,Jits_ISO_5,2,5,80,127,3890980172
4014,16,Jits_ISO_5,3,5,63,98,3890989620
4014,16,Jits_ISO_5,0,5,80,127,3891429804
4014,16,Jits_ISO_5,1,1,48,59,3891431140
4014,16,Jits_ISO_5,2,5,63,98,3891459548
4014,16,Jits_ISO_5,3,5,56,103,3891500604
4014,16,Jits_ISO_5,0,1,48,61,3891927872
4014,16,Jits_ISO_5,1,5,56,103,3891949920
4014,16,Jits_ISO_5,2,5,63,98,3891979820
4014,16,Jits_ISO_5,3,5,80,127,3892029780
4014,16,Jits_ISO_5,0,1,48,57,3892430056
4014,16,Jits_ISO_5,1,5,80,127,3892449732
4014,16,Jits_ISO_5,2,5,56,103,3892489672
4014,16,Jits_ISO_5,3,5,63,98,3892499940
4014,16,Jits_ISO_5,0,1,48,59,3892926104
4014,16,Jits_ISO_5,1,5,80,127,3892929964
4014,16,Jits_ISO_5,2,5,63,98,3892969700
4014,16,Jits_ISO_5,3,5,56,103,3893030220
4014,16,Jits_ISO_5,0,5,56,103,3893429628
4014,16,Jits_ISO_5,1,5,80,127,3893439972
4014,16,Jits_ISO_5,2,1,48,55,3893441836
4014,16,Jits_ISO_5,3,5,63,98,3893519708
4014,16,Jits_ISO_5,0,5,80,127,3893930648
4014,16,Jits_ISO_5,1,1,48,56,3893931612
4014,16,Jits_ISO_5,2,5,63,98,3893989636
4014,16,Jits_ISO_5,3,5,56,103,3894019460
4014,16,Jits_ISO_5,0,1,48,53,3894423384
4014,16,Jits_ISO_5,1,5,56,103,3894429936
4014,16,Jits_ISO_5,2,5,80,127,3894489676
4014,16,Jits_ISO_5,3,5,63,98,3894530344
4014,16,Jits_ISO_5,0,1,48,55,3894935404
4014,16,Jits_ISO_5,1,5,56,103,3894979868
4014,16,Jits_ISO_5,2,5,63,98,3894990284
4014,16,Jits_ISO_5,3,5,80,127,3894993720
4014,16,Jits_ISO_5,0,1,48,61,3895424124
4014,16,Jits_ISO_5,1,5,80,127,3895429772
4014,16,Jits_ISO_5,2,5,63,98,3895519540
4014,16,Jits_ISO_5,3,5,56,103,3895529736
4014,16,Jits_ISO_5,0,1,48,59,3895921464
4014,16,Jits_ISO_5,1,5,56,103,3895930164
4014,16,Jits_ISO_5,2,5,63,98,3895933188
4014,16,Jits_ISO_5,3,5,80,127,3895936608
4014,16,Jits_ISO_5,0,1,48,55,3896414500
4014,16,Jits_ISO_5,1,5,80,127,3896450568
4014,16,Jits_ISO_5,2,5,63,98,3896499572
4014,16,Jits_ISO_5,3,5,56,103,3896530500
4014,16,Jits_ISO_5,0,1,48,59,3896914532
4014,16,Jits_ISO_5,1,5,56,103,3896929924
4014,16,Jits_ISO_5,2,5,80,127,3896940044
4014,16,Jits_ISO_5,3,5,63,98,3897009720
4014,16,Jits_ISO_5,0,1,48,50,3897406320
4014,16,Jits_ISO_5,1,5,56,103,3897439548
4014,16,Jits_ISO_5,2,5,63,98,3897460084
4014,16,Jits_ISO_5,3,5,80,127,3897519408
4014,16,Jits_ISO_5,0,1,48,53,3897912584
4014,16,Jits_ISO_5,1,5,80,127,3897940556
4014,16,Jits_ISO_5,2,5,63,98,3898010084
4014,16,Jits_ISO_5,3,5,56,103,3898029408
4014,16,Jits_ISO_5,0,1,48,54,3898407292
4014,16,Jits_ISO_5,1,5,80,127,3898459548
4014,16,Jits_ISO_5,2,5,56,103,3898469596
4014,16,Jits_ISO_5,3,5,63,98,3898480088
4014,16,Jits_ISO_5,0,1,48,50,3898905228
4014,16,Jits_ISO_5,1,5,80,127,3898950360
4014,16,Jits_ISO_5,2,5,56,103,3898969476
4014,16,Jits_ISO_5,3,5,63,98,3899040108
4014,16,Jits_ISO_5,0,1,48,56,3899415000
4014,16,Jits_ISO_5,1,5,56,103,3899459984
4014,16,Jits_ISO_5,2,5,80,127,3899489736
4014,16,Jits_ISO_5,3,5,63,98,3899510324
4014,16,Jits_ISO_5,0,1,48,54,3899897876
4014,16,Jits_ISO_5,1,5,63,98,3899949380
4014,16,Jits_ISO_5,2,5,56,103,3900009828
4014,16,Jits_ISO_5,3,5,80,127,3900039504
4014,16,Jits_ISO_5,0,1,48,60,3900388416
4014,16,Jits_ISO_5,1,5,63,98,3900439900
4014,16,Jits_ISO_5,2,5,80,127,3900443264
4014,16,Jits_ISO_5,3,5,56,103,3900529936
4014,16,Jits_ISO_5,0,1,48,57,3900911804
4014,16,Jits_ISO_5,1,5,56,103,3900960080
4014,16,Jits_ISO_5,2,5,63,98,3900989900
4014,16,Jits_ISO_5,3,5,80,127,3901029824
4014,16,Jits_ISO_5,0,1,48,55,3901402400
4014,16,Jits_ISO_5,1,5,63,98,3901459892
4014,16,Jits_ISO_5,2,5,56,103,3901501008
4014,16,Jits_ISO_5,3,5,80,127,3901520420
4014,16,Jits_ISO_5,0,1,48,55,3901925504
4014,16,Jits_ISO_5,1,5,63,98,3901969664
4014,16,Jits_ISO_5,2,5,56,103,3902009752
4014,16,Jits_ISO_5,3,5,80,127,3902020172
4014,16,Jits_ISO_5,0,1,48,57,3902409868
4014,16,Jits_ISO_5,1,5,80,127,3902450292
4014,16,Jits_ISO_5,2,5,63,98,3902519584
4014,16,Jits_ISO_5,3,5,56,103,3902540340
4014,16,Jits_ISO_5,0,5,56,103,3902939476
4014,16,Jits_ISO_5,1,1,48,48,3902948144
4014,16,Jits_ISO_5,2,5,80,127,3902959928
4014,16,Jits_ISO_5,3,5,63,98,3902999864
4014,16,Jits_ISO_5,0,1,48,52,3903420136
4014,16,Jits_ISO_5,1,5,63,98,3903449332
4014,16,Jits_ISO_5,2,5,80,127,3903470012
4014,16,Jits_ISO_5,3,5,56,103,3903509800
4014,16,Jits_ISO_5,0,1,48,52,3903921292
4014,16,Jits_ISO_5,1,5,63,98,3903950308
4014,16,Jits_ISO_5,2,5,56,103,3903969672
4014,16,Jits_ISO_5,3,5,80,127,3903979792
4014,16,Jits_ISO_5,0,1,48,52,3904415924
4014,16,Jits_ISO_5,1,5,80,127,3904449820
4014,16,Jits_ISO_5,2,5,56,103,3904470376
4014,16,Jits_ISO_5,3,5,63,98,3904500200
4014,16,Jits_ISO_5,0,1,48,53,3904905316
4014,16,Jits_ISO_5,1,5,56,103,3905020356
4014,16,Jits_ISO_5,2,5,80,127,3905023348
4014,16,Jits_ISO_5,3,5,63,98,3905039692
4014,16,Jits_ISO_5,0,1,48,47,3905405716
4014,16,Jits_ISO_5,1,5,63,98,3905450328
4014,16,Jits_ISO_5,2,5,56,103,3905480004
4014,16,Jits_ISO_5,3,5,80,127,3905539504
4014,16,Jits_ISO_5,0,1,48,55,3905927944
4014,16,Jits_ISO_5,1,5,63,98,3906029864
4014,16,Jits_ISO_5,2,5,56,103,3906040136
4014,16,Jits_ISO_5,3,5,80,127,3906050404
4014,16,Jits_ISO_5,0,1,48,49,3906433444
4014,16,Jits_ISO_5,1,5,56,103,3906479404
4014,16,Jits_ISO_5,2,5,80,127,3906510348
4014,16,Jits_ISO_5,3,5,63,98,3906520420
4014,16,Jits_ISO_5,0,1,48,51,3906913552
4014,16,Jits_ISO_5,1,5,63,98,3907020100
4014,16,Jits_ISO_5,2,5,56,103,3907030320
4014,16,Jits_ISO_5,3,5,80,127,3907049732
4014,16,Jits_ISO_5,0,1,48,54,3907423628
4014,16,Jits_ISO_5,1,5,56,103,3907450400
4014,16,Jits_ISO_5,2,5,63,98,3907509744
4014,16,Jits_ISO_5,3,5,80,127,3907513180
4014,16,Jits_ISO_5,0,5,80,127,3907970288
4014,16,Jits_ISO_5,1,5,56,103,3907979584
4014,16,Jits_ISO_5,2,1,48,44,3907993560
4014,16,Jits_ISO_5,3,5,63,98,3908050228
4014,16,Jits_ISO_5,0,5,80,127,3908459852
4014,16,Jits_ISO_5,1,1,48,51,3908497124
4014,16,Jits_ISO_5,2,5,56,103,3908529376
4014,16,Jits_ISO_5,3,5,63,98,3908539720
4014,16,Jits_ISO_5,0,1,48,47,3908992232
4014,16,Jits_ISO_5,1,5,63,98,3908999452
4014,16,Jits_ISO_5,2,5,56,103,3909009724
4014,16,Jits_ISO_5,3,5,80,127,3909030180
4014,16,Jits_ISO_5,0,5,80,127,3909460460
4014,16,Jits_ISO_5,1,1,48,54,3909498572
4014,16,Jits_ISO_5,2,5,63,98,3909519796
4014,16,Jits_ISO_5,3,5,56,103,3909559584
4014,16,Jits_ISO_5,0,5,56,103,3910000220
4014,16,Jits_ISO_5,1,5,63,98,3910010264
4014,16,Jits_ISO_5,2,1,48,44,3910021776
4014,16,Jits_ISO_5,3,5,80,127,3910050268
4014,16,Jits_ISO_5,0,5,56,103,3910459888
4014,16,Jits_ISO_5,1,5,80,127,3910489412
4014,16,Jits_ISO_5,2,1,48,46,3910491124
4014,16,Jits_ISO_5,3,5,63,98,3910539756
4014,16,Jits_ISO_5,0,5,56,103,3911000392
4014,16,Jits_ISO_5,1,1,48,37,3911008316
4014,16,Jits_ISO_5,2,5,63,98,3911040324
4014,16,Jits_ISO_5,3,5,80,127,3911043984
4014,16,Jits_ISO_5,0,1,48,52,3911472832
4014,16,Jits_ISO_5,1,5,56,103,3911500280
4014,16,Jits_ISO_5,2,5,63,98,3911510328
4014,16,Jits_ISO_5,3,5,80,127,3911529960
4014,16,Jits_ISO_5,0,5,56,103,3911960168
4014,16,Jits_ISO_5,1,5,80,127,3911963152
4014,16,Jits_ISO_5,2,1,48,45,3911990180
4014,16,Jits_ISO_5,3,5,63,98,3911999796
4014,16,Jits_ISO_5,0,1,48,48,3912482788
4014,16,Jits_ISO_5,1,5,63,98,3912499676
4014,16,Jits_ISO_5,2,5,56,103,3912530248
4014,16,Jits_ISO_5,3,5,80,127,3912550180
4014,16,Jits_ISO_5,0,5,80,127,3912969528
4014,16,Jits_ISO_5,1,5,56,103,3912979948
4014,16,Jits_ISO_5,2,5,63,98,3912990144
4014,16,Jits_ISO_5,3,1,48,51,3913017152
4014,16,Jits_ISO_5,0,5,56,103,3913470248
4014,16,Jits_ISO_5,1,1,48,52,3913500864
4014,16,Jits_ISO_5,2,5,80,127,3913510180
4014,16,Jits_ISO_5,3,5,63,98,3913540148
4014,16,Jits_ISO_5,0,5,63,98,3913980336
4014,16,Jits_ISO_5,1,5,80,127,3913989560
4014,16,Jits_ISO_5,2,1,48,40,3913991572
4014,16,Jits_ISO_5,3,5,56,103,3913999972
4014,16,Jits_ISO_5,0,1,48,53,3914448028
4014,16,Jits_ISO_5,1,5,56,103,3914459608
4014,16,Jits_ISO_5,2,5,63,98,3914530036
4014,16,Jits_ISO_5,3,5,80,127,3914540292
4014,16,Jits_ISO_5,0,5,80,127,3914960220
4014,16,Jits_ISO_5,1,1,48,41,3914968568
4014,16,Jits_ISO_5,2,5,56,103,3914970360
4014,16,Jits_ISO_5,3,5,63,98,3915019812
4014,16,Jits_ISO_5,0,1,48,47,3915459640
4014,16,Jits_ISO_5,1,5,80,127,3915470148
4014,16,Jits_ISO_5,2,5,56,103,3915529516
4014,16,Jits_ISO_5,3,5,63,98,3915560296
4014,16,Jits_ISO_5,0,1,48,43,3915956064
4014,16,Jits_ISO_5,1,5,56,103,3915970104
4014,16,Jits_ISO_5,2,5,80,127,3915973320
4014,16,Jits_ISO_5,3,5,63,98,3916009992
4014,16,Jits_ISO_5,0,1,48,49,3916447692
4014,16,Jits_ISO_5,1,5,56,103,3916500788
4014,16,Jits_ISO_5,2,5,63,98,3916529940
4014,16,Jits_ISO_5,3,5,80,127,3916540212
4014,16,Jits_ISO_5,0,1,48,44,3916941888
4014,16,Jits_ISO_5,1,5,63,98,3917019556
4014,16,Jits_ISO_5,2,5,80,127,3917029828
4014,16,Jits_ISO_5,3,5,56,103,3917040080
4014,16,Jits_ISO_5,0,1,48,48,3917446636
4014,16,Jits_ISO_5,1,5,80,127,3917470044
4014,16,Jits_ISO_5,2,5,56,103,3917520168
4014,16,Jits_ISO_5,3,5,63,98,3917523232
4014,16,Jits_ISO_5,0,1,48,31,3917965612
4014,16,Jits_ISO_5,1,5,56,103,3917999360
4014,16,Jits_ISO_5,2,5,80,127,3918019968
4014,16,Jits_ISO_5,3,5,63,98,3918030236
4014,16,Jits_ISO_5,0,1,48,48,3918450220
4014,16,Jits_ISO_5,1,5,63,98,3918479988
4014,16,Jits_ISO_5,2,5,56,103,3918509512
4014,16,Jits_ISO_5,3,5,80,127,3918529896
4014,16,Jits_ISO_5,0,1,48,37,3918950556
4014,16,Jits_ISO_5,1,5,56,103,3918989688
4014,16,Jits_ISO_5,2,5,80,127,3918999956
4014,16,Jits_ISO_5,3,5,63,98,3919069420
4014,16,Jits_ISO_5,0,1,48,47,3919452828
4014,16,Jits_ISO_5,1,5,63,98,3919480132
4014,16,Jits_ISO_5,2,5,80,127,3919519996
4014,16,Jits_ISO_5,3,5,56,103,3919559992
4014,16,Jits_ISO_5,0,1,48,32,3919982612
4014,16,Jits_ISO_5,1,5,56,103,3919989980
4014,16,Jits_ISO_5,2,5,63,98,3920000328
4014,16,Jits_ISO_5,3,5,80,127,3920019960
4014,16,Jits_ISO_5,0,1,48,49,3920482796
4014,16,Jits_ISO_5,1,5,63,98,3920529872
4014,16,Jits_ISO_5,2,5,80,127,3920550184
4014,16,Jits_ISO_5,3,5,56,103,3920569668
4014,16,Jits_ISO_5,0,5,56,103,3920980320
4014,16,Jits_ISO_5,1,1,48,40,3920999852
4014,16,Jits_ISO_5,2,5,80,127,3921060108
4014,16,Jits_ISO_5,3,5,63,98,3921069408
4014,16,Jits_ISO_5,0,1,48,41,3921489260
4014,16,Jits_ISO_5,1,5,80,127,3921519924
4014,16,Jits_ISO_5,2,5,63,98,3921530196
4014,16,Jits_ISO_5,3,5,56,103,3921559944
4014,16,Jits_ISO_5,0,5,63,98,3921979960
4014,16,Jits_ISO_5,1,1,48,44,3921997908
4014,16,Jits_ISO_5,2,5,80,127,3922019964
4014,16,Jits_ISO_5,3,5,56,103,3922079980
4014,16,Jits_ISO_5,0,5,63,98,3922489732
4014,16,Jits_ISO_5,1,1,48,34,3922501844
4014,16,Jits_ISO_5,2,5,56,103,3922539928
4014,16,Jits_ISO_5,3,5,80,127,3922569824
4014,16,Jits_ISO_5,0,1,48,38,3922982764
4014,16,Jits_ISO_5,1,5,80,127,3923000024
4014,16,Jits_ISO_5,2,5,63,98,3923009772
4014,16,Jits_ISO_5,3,5,56,103,3923079732
4014,16,Jits_ISO_5,0,1,48,40,3923490972
4014,16,Jits_ISO_5,1,5,80,127,3923569964
4014,16,Jits_ISO_5,2,5,56,103,3923580380
4014,16,Jits_ISO_5,3,5,63,98,3923583444
4014,16,Jits_ISO_5,0,5,56,103,3924010288
4014,16,Jits_ISO_5,1,1,48,44,3924020456
4014,16,Jits_ISO_5,2,5,80,127,3924029844
4014,16,Jits_ISO_5,3,5,63,98,3924040036
4014,16,Jits_ISO_5,0,1,48,44,3924519472
4014,16,Jits_ISO_5,1,5,63,98,3924521192
4014,16,Jits_ISO_5,2,5,56,103,3924560232
4014,16,Jits_ISO_5,3,5,80,127,3924579792
4014,16,Jits_ISO_5,0,1,48,40,3925013636
4014,16,Jits_ISO_5,1,5,63,98,3925019884
4014,16,Jits_ISO_5,2,5,56,103,3925080568
4014,16,Jits_ISO_5,3,5,80,127,3925083780
4014,16,Jits_ISO_5,0,5,56,103,3925479760
4014,16,Jits_ISO_5,1,5,80,127,3925500144
4014,16,Jits_ISO_5,2,1,48,43,3925521544
4014,16,Jits_ISO_5,3,5,63,98,3925540224
4014,16,Jits_ISO_5,0,5,56,103,3926010152
4014,16,Jits_ISO_5,1,1,48,44,3926023004
4014,16,Jits_ISO_5,2,5,63,98,3926029632
4014,16,Jits_ISO_5,3,5,80,127,3926039824
4014,16,Jits_ISO_5,0,5,80,127,3926480208
4014,16,Jits_ISO_5,1,1,48,45,3926494660
4014,16,Jits_ISO_5,2,5,56,103,3926510048
4014,16,Jits_ISO_5,3,5,63,98,3926549984
4014,16,Jits_ISO_5,0,1,48,43,3926989764
4014,16,Jits_ISO_5,1,5,80,127,3926991704
4014,16,Jits_ISO_5,2,5,56,103,3927009796
4014,16,Jits_ISO_5,3,5,63,98,3927070184
4014,16,Jits_ISO_5,0,1,48,42,3927494408
4014,16,Jits_ISO_5,1,5,56,103,3927500212
4014,16,Jits_ISO_5,2,5,80,127,3927519572
4014,16,Jits_ISO_5,3,5,63,98,3927580108
4014,16,Jits_ISO_5,0,5,80,127,3927980548
4014,16,Jits_ISO_5,1,5,56,103,3927989696
4014,16,Jits_ISO_5,2,1,48,45,3928023256
4014,16,Jits_ISO_5,3,5,63,98,3928029724
4014,16,Jits_ISO_5,0,5,63,98,3928490484
4014,16,Jits_ISO_5,1,1,48,39,3928504164
4014,16,Jits_ISO_5,2,5,56,103,3928530264
4014,16,Jits_ISO_5,3,5,80,127,3928533352
4014,16,Jits_ISO_5,0,1,48,38,3928979612
4014,16,Jits_ISO_5,1,5,63,98,3929009604
4014,16,Jits_ISO_5,2,5,80,127,3929049416
4014,16,Jits_ISO_5,3,5,56,103,3929080196
4014,16,Jits_ISO_5,0,5,56,103,3929500056
4014,16,Jits_ISO_5,1,1,48,42,3929506464
4014,16,Jits_ISO_5,2,5,63,98,3929510468
4014,16,Jits_ISO_5,3,5,80,127,3929539920
4014,16,Jits_ISO_5,0,5,80,127,3929989540
4014,16,Jits_ISO_5,1,1,48,42,3930000304
4014,16,Jits_ISO_5,2,5,63,98,3930060112
4014,16,Jits_ISO_5,3,5,56,103,3930070408
4014,16,Jits_ISO_5,0,5,63,98,3930490412
4014,16,Jits_ISO_5,1,1,48,42,3930519084
4014,16,Jits_ISO_5,2,5,56,103,3930559788
4014,16,Jits_ISO_5,3,5,80,127,3930569980
4014,16,Jits_ISO_5,0,5,63,98,3930989852
4014,16,Jits_ISO_5,1,1,48,38,3930998148
4014,16,Jits_ISO_5,2,5,56,103,3931010528
4014,16,Jits_ISO_5,3,5,80,127,3931050312
4014,16,Jits_ISO_5,0,5,56,103,3931499848
4014,16,Jits_ISO_5,1,5,63,98,3931510268
4014,16,Jits_ISO_5,2,1,48,37,3931521332
4014,16,Jits_ISO_5,3,5,80,127,3931589976
4014,16,Jits_ISO_5,0,5,63,98,3931990532
4014,16,Jits_ISO_5,1,1,48,37,3932006156
4014,16,Jits_ISO_5,2,5,56,103,3932020048
4014,16,Jits_ISO_5,3,5,80,127,3932059984
4014,16,Jits_ISO_5,0,1,48,40,3932481468
4014,16,Jits_ISO_5,1,5,56,103,3932500524
4014,16,Jits_ISO_5,2,5,63,98,3932540464
4014,16,Jits_ISO_5,3,5,80,127,3932580384
4014,16,Jits_ISO_5,0,1,48,43,3932972660
4014,16,Jits_ISO_5,1,5,80,127,3933000108
4014,16,Jits_ISO_5,2,5,56,103,3933079812
4014,16,Jits_ISO_5,3,5,63,98,3933090528
4014,16,Jits_ISO_5,0,1,48,41,3933505580
4014,16,Jits_ISO_5,1,5,56,103,3933539624
4014,16,Jits_ISO_5,2,5,63,98,3933542840
4014,16,Jits_ISO_5,3,5,80,127,3933549824
4014,16,Jits_ISO_5,0,1,48,40,3934000444
4014,16,Jits_ISO_5,1,5,56,103,3934059952
4014,16,Jits_ISO_5,2,5,63,98,3934080636
4014,16,Jits_ISO_5,3,5,80,127,3934089488
4014,16,Jits_ISO_5,0,1,48,47,3934496800
4014,16,Jits_ISO_5,1,5,63,98,3934519760
4014,16,Jits_ISO_5,2,5,80,127,3934529880
4014,16,Jits_ISO_5,3,5,56,103,3934550264
4014,16,Jits_ISO_5,0,1,48,38,3935016832
4014,16,Jits_ISO_5,1,5,63,98,3935020536
4014,16,Jits_ISO_5,2,5,56,103,3935100552
4014,16,Jits_ISO_5,3,5,80,127,3935103692
4014,16,Jits_ISO_5,0,5,63,98,3935520200
4014,16,Jits_ISO_5,1,1,48,51,3935524812
4014,16,Jits_ISO_5,2,5,56,103,3935539608
4014,16,Jits_ISO_5,3,5,80,127,3935570400
4014,16,Jits_ISO_5,0,5,56,103,3936019860
4014,16,Jits_ISO_5,1,1,48,41,3936028904
4014,16,Jits_ISO_5,2,5,63,98,3936040536
4014,16,Jits_ISO_5,3,5,80,127,3936049536
4014,16,Jits_ISO_5,0,1,48,48,3936507204
4014,16,Jits_ISO_5,1,5,56,103,3936550316
4014,16,Jits_ISO_5,2,5,63,98,3936580060
4014,16,Jits_ISO_5,3,5,80,127,3936583348
4014,16,Jits_ISO_5,0,5,56,103,3936999776
4014,16,Jits_ISO_5,1,1,48,40,3937008000
4014,16,Jits_ISO_5,2,5,63,98,3937039708
4014,16,Jits_ISO_5,3,5,80,127,3937100228
4014,16,Jits_ISO_5,0,1,48,41,3937483956
4014,16,Jits_ISO_5,1,5,56,103,3937519972
4014,16,Jits_ISO_5,2,5,63,98,3937530464
4014,16,Jits_ISO_5,3,5,80,127,3937589492
4014,16,Jits_ISO_5,0,1,48,39,3938014508
4014,16,Jits_ISO_5,1,5,56,103,3938019780
4014,16,Jits_ISO_5,2,5,80,127,3938040312
4014,16,Jits_ISO_5,3,5,63,98,3938069836
4014,16,Jits_ISO_5,0,5,80,127,3938520492
4014,16,Jits_ISO_5,1,5,56,103,3938529568
4014,16,Jits_ISO_5,2,1,48,36,3938531052
4014,16,Jits_ISO_5,3,5,63,98,3938550388
4014,16,Jits_ISO_5,0,5,63,98,3939009876
4014,16,Jits_ISO_5,1,1,48,47,3939010844
4014,16,Jits_ISO_5,2,5,80,127,3939089688
4014,16,Jits_ISO_5,3,5,56,103,3939100108
4014,16,Jits_ISO_5,0,1,48,40,3939541820
4014,16,Jits_ISO_5,1,5,80,127,3939570168
4014,16,Jits_ISO_5,2,5,56,103,3939589432
4014,16,Jits_ISO_5,3,5,63,98,3939592496
4014,16,Jits_ISO_5,0,1,48,44,3940048796
4014,16,Jits_ISO_5,1,5,63,98,3940050540
4014,16,Jits_ISO_5,2,5,80,127,3940053752
4014,16,Jits_ISO_5,3,5,56,103,3940109656
4014,16,Jits_ISO_5,0,5,56,103,3940529572
4014,16,Jits_ISO_5,1,5,80,127,3940539768
4014,16,Jits_ISO_5,2,1,48,43,3940547604
4014,16,Jits_ISO_5,3,5,63,98,3940579648
4014,16,Jits_ISO_5,0,5,56,103,3941009768
4014,16,Jits_ISO_5,1,1,48,46,3941043000
4014,16,Jits_ISO_5,2,5,63,98,3941070372
4014,16,Jits_ISO_5,3,5,80,127,3941080372
4014,16,Jits_ISO_5,0,5,63,98,3941519704
4014,16,Jits_ISO_5,1,1,48,35,3941549720
4014,16,Jits_ISO_5,2,5,80,127,3941559560
4014,16,Jits_ISO_5,3,5,56,103,3941599596
4014,16,Jits_ISO_5,0,5,56,103,3942019440
4014,16,Jits_ISO_5,1,1,48,46,3942025172
4014,16,Jits_ISO_5,2,5,63,98,3942100296
4014,16,Jits_ISO_5,3,5,80,127,3942103512
4014,16,Jits_ISO_5,0,9999,9999,9999,3882727496
4014,16,Jits_ISO_5,1,9999,9999,9999,3883227220
4014,16,Jits_ISO_5,2,9999,9999,9999,3883727964
4014,16,Jits_ISO_5,3,9999,9999,9999,3884227688
4014,16,Jits_ISO_5,4,9999,9999,9999,3884727352
4014,16,Jits_ISO_5,5,9999,9999,9999,3885227092
4014,16,Jits_ISO_5,6,9999,9999,9999,3885727796
4014,16,Jits_ISO_5,7,9999,9999,9999,3886227544
4014,16,Jits_ISO_5,8,9999,9999,9999,3886727224
4014,16,Jits_ISO_5,9,9999,9999,9999,3887228016
4014,16,Jits_ISO_5,10,9999,9999,9999,3887727688
4014,16,Jits_ISO_5,11,9999,9999,9999,3888227440
4014,16,Jits_ISO_5,12,9999,9999,9999,3888727096
4014,16,Jits_ISO_5,13,9999,9999,9999,3889227876
4014,16,Jits_ISO_5,14,9999,9999,9999,3889727540
4014,16,Jits_ISO_5,15,9999,9999,9999,3890227288
4014,16,Jits_ISO_5,16,9999,9999,9999,3890727996
4014,16,Jits_ISO_5,17,9999,9999,9999,3891227732
4014,16,Jits_ISO_5,18,9999,9999,9999,3891727480
4014,16,Jits_ISO_5,19,9999,9999,9999,3892227156
4014,16,Jits_ISO_5,20,9999,9999,9999,3892727864
4014,16,Jits_ISO_5,21,9999,9999,9999,3893227600
4014,16,Jits_ISO_5,22,9999,9999,9999,3893727328
4014,16,Jits_ISO_5,23,9999,9999,9999,3894228028
4014,16,Jits_ISO_5,24,9999,9999,9999,3894727772
4014,16,Jits_ISO_5,25,9999,9999,9999,3895227500
4014,16,Jits_ISO_5,26,9999,9999,9999,3895727160
4014,16,Jits_ISO_5,27,9999,9999,9999,3896227916
4014,16,Jits_ISO_5,28,9999,9999,9999,3896727652
4014,16,Jits_ISO_5,29,9999,9999,9999,3897227384
4014,16,Jits_ISO_5,30,9999,9999,9999,3897728092
4014,16,Jits_ISO_5,31,9999,9999,9999,3898238016
4014,16,Jits_ISO_5,32,9999,9999,9999,3898737752
4014,16,Jits_ISO_5,33,9999,9999,9999,3899237484
4014,16,Jits_ISO_5,34,9999,9999,9999,3899737144
4014,16,Jits_ISO_5,35,9999,9999,9999,3900237924
4014,16,Jits_ISO_5,36,9999,9999,9999,3900737652
4014,16,Jits_ISO_5,37,9999,9999,9999,3901237312
4014,16,Jits_ISO_5,38,9999,9999,9999,3901738096
4014,16,Jits_ISO_5,39,9999,9999,9999,3902237756
4014,16,Jits_ISO_5,40,9999,9999,9999,3902737496
4014,16,Jits_ISO_5,41,9999,9999,9999,3903237224
4014,16,Jits_ISO_5,42,9999,9999,9999,3903737948
4014,16,Jits_ISO_5,43,9999,9999,9999,3904237680
4014,16,Jits_ISO_5,44,9999,9999,9999,3904737340
4014,16,Jits_ISO_5,45,9999,9999,9999,3905238116
4014,16,Jits_ISO_5,46,9999,9999,9999,3905748088
4014,16,Jits_ISO_5,47,9999,9999,9999,3906247756
4014,16,Jits_ISO_5,48,9999,9999,9999,3906747492
4014,16,Jits_ISO_5,49,9999,9999,9999,3907247156
4014,16,Jits_ISO_5,50,9999,9999,9999,3907747928
4014,16,Jits_ISO_5,51,9999,9999,9999,3908247664
4014,16,Jits_ISO_5,52,9999,9999,9999,3908747340
4014,16,Jits_ISO_5,53,9999,9999,9999,3909248068
4014,16,Jits_ISO_5,54,9999,9999,9999,3909758064
4014,16,Jits_ISO_5,55,9999,9999,9999,3910257744
4014,16,Jits_ISO_5,56,9999,9999,9999,3910757492
4014,16,Jits_ISO_5,57,9999,9999,9999,3911257160
4014,16,Jits_ISO_5,58,9999,9999,9999,3911757884
4014,16,Jits_ISO_5,59,9999,9999,9999,3912257604
4014,16,Jits_ISO_5,60,9999,9999,9999,3912757360
4014,16,Jits_ISO_5,61,9999,9999,9999,3913258060
4014,16,Jits_ISO_5,62,9999,9999,9999,3913757808
4014,16,Jits_ISO_5,63,9999,9999,9999,3914257484
4014,16,Jits_ISO_5,64,9999,9999,9999,3914757220
4014,16,Jits_ISO_5,65,9999,9999,9999,3915257920
4014,16,Jits_ISO_5,66,9999,9999,9999,3915757672
4014,16,Jits_ISO_5,67,9999,9999,9999,3916257392
4014,16,Jits_ISO_5,68,9999,9999,9999,3916758096
4014,16,Jits_ISO_5,69,9999,9999,9999,3917268020
4014,16,Jits_ISO_5,70,9999,9999,9999,3917767792
4014,16,Jits_ISO_5,71,9999,9999,9999,3918267452
4014,16,Jits_ISO_5,72,9999,9999,9999,3918767184
4014,16,Jits_ISO_5,73,9999,9999,9999,3919267892
4014,16,Jits_ISO_5,74,9999,9999,9999,3919767628
4014,16,Jits_ISO_5,75,9999,9999,9999,3920267364
4014,16,Jits_ISO_5,76,9999,9999,9999,3920768076
4014,16,Jits_ISO_5,77,9999,9999,9999,3921278000
4014,16,Jits_ISO_5,78,9999,9999,9999,3921777752
4014,16,Jits_ISO_5,79,9999,9999,9999,3922277488
4014,16,Jits_ISO_5,80,9999,9999,9999,3922777152
4014,16,Jits_ISO_5,81,9999,9999,9999,3923277932
4014,16,Jits_ISO_5,82,9999,9999,9999,3923777592
4014,16,Jits_ISO_5,83,9999,9999,9999,3924277324
4014,16,Jits_ISO_5,84,9999,9999,9999,3924778048
4014,16,Jits_ISO_5,85,9999,9999,9999,3925277780
4014,16,Jits_ISO_5,86,9999,9999,9999,3925777508
4014,16,Jits_ISO_5,87,9999,9999,9999,3926277188
4014,16,Jits_ISO_5,88,9999,9999,9999,3926777908
4014,16,Jits_ISO_5,89,9999,9999,9999,3927277656
4014,16,Jits_ISO_5,90,9999,9999,9999,3927777396
4014,16,Jits_ISO_5,91,9999,9999,9999,3928278100
4014,16,Jits_ISO_5,92,9999,9999,9999,3928788024
4014,16,Jits_ISO_5,93,9999,9999,9999,3929287736
4014,16,Jits_ISO_5,94,9999,9999,9999,3929787468
4014,16,Jits_ISO_5,95,9999,9999,9999,3930287220
4014,16,Jits_ISO_5,96,9999,9999,9999,3930787940
4014,16,Jits_ISO_5,97,9999,9999,9999,3931287672
4014,16,Jits_ISO_5,98,9999,9999,9999,3931787336
4014,16,Jits_ISO_5,99,9999,9999,9999,3932288060
4014,16,Jits_ISO_5,100,9999,9999,9999,3932798060
4014,16,Jits_ISO_5,101,9999,9999,9999,3933297720
4014,16,Jits_ISO_5,102,9999,9999,9999,3933797444
4014,16,Jits_ISO_5,103,9999,9999,9999,3934297184
4014,16,Jits_ISO_5,104,9999,9999,9999,3934797888
4014,16,Jits_ISO_5,105,9999,9999,9999,3935297616
4014,16,Jits_ISO_5,106,9999,9999,9999,3935797352
4014,16,Jits_ISO_5,107,9999,9999,9999,3936298056
4014,16,Jits_ISO_5,108,9999,9999,9999,3936797796
4014,16,Jits_ISO_5,109,9999,9999,9999,3937297532
4014,16,Jits_ISO_5,110,9999,9999,9999,3937797204
4014,16,Jits_ISO_5,111,9999,9999,9999,3938297908
4014,16,Jits_ISO_5,112,9999,9999,9999,3938797640
4014,16,Jits_ISO_5,113,9999,9999,9999,3939297396
4014,16,Jits_ISO_5,114,9999,9999,9999,3939798100
4014,16,Jits_ISO_5,115,9999,9999,9999,3940308064
4014,16,Jits_ISO_5,116,9999,9999,9999,3940807772
4014,16,Jits_ISO_5,117,9999,9999,9999,3941307444
4014,16,Jits_ISO_5,118,9999,9999,9999,3941807192
4014,16,Jits_ISO_5,119,9999,9999,9999,3942307896
4015,7,Jits_ISO_8,0,5,56,103,3951639012
4015,7,Jits_ISO_8,1,5,63,98,3951642108
4015,7,Jits_ISO_8,2,5,80,127,3951645228
4015,7,Jits_ISO_8,0,5,56,103,3952438568
4015,7,Jits_ISO_8,1,5,63,98,3952441736
4015,7,Jits_ISO_8,2,5,80,127,3952444860
4015,7,Jits_ISO_8,0,5,80,127,3953178944
4015,7,Jits_ISO_8,1,1,48,56,3953244764
4015,7,Jits_ISO_8,2,5,63,98,3953269072
4015,7,Jits_ISO_8,3,5,56,103,3953279344
4015,7,Jits_ISO_8,0,5,56,103,3953999272
4015,7,Jits_ISO_8,1,5,63,98,3954008420
4015,7,Jits_ISO_8,2,1,48,52,3954022476
4015,7,Jits_ISO_8,3,5,80,127,3954098768
4015,7,Jits_ISO_8,0,5,63,98,3954769252
4015,7,Jits_ISO_8,1,1,48,63,3954777844
4015,7,Jits_ISO_8,2,5,80,127,3954798920
4015,7,Jits_ISO_8,3,5,56,103,3954828744
4015,7,Jits_ISO_8,0,1,48,56,3955522240
4015,7,Jits_ISO_8,1,5,56,103,3955568952
4015,7,Jits_ISO_8,2,5,80,127,3955669360
4015,7,Jits_ISO_8,3,5,63,98,3955718740
4015,7,Jits_ISO_8,0,1,48,53,3956334012
4015,7,Jits_ISO_8,1,5,56,103,3956368960
4015,7,Jits_ISO_8,2,5,80,127,3956418940
4015,7,Jits_ISO_8,3,5,63,98,3956458888
4015,7,Jits_ISO_8,0,1,48,47,3957171712
4015,7,Jits_ISO_8,1,5,80,127,3957199160
4015,7,Jits_ISO_8,2,5,63,98,3957228940
4015,7,Jits_ISO_8,3,5,56,103,3957298976
4015,7,Jits_ISO_8,0,1,48,44,3957998880
4015,7,Jits_ISO_8,1,5,63,98,3958028648
4015,7,Jits_ISO_8,2,5,56,103,3958059372
4015,7,Jits_ISO_8,3,5,80,127,3958118624
4015,7,Jits_ISO_8,0,5,56,103,3958769024
4015,7,Jits_ISO_8,1,5,80,127,3958771868
4015,7,Jits_ISO_8,2,1,48,37,3958824580
4015,7,Jits_ISO_8,3,5,63,98,3958888744
4015,7,Jits_ISO_8,0,1,48,48,3959569156
4015,7,Jits_ISO_8,1,5,56,103,3959648604
4015,7,Jits_ISO_8,2,5,80,127,3959688600
4015,7,Jits_ISO_8,3,5,63,98,3959699020
4015,7,Jits_ISO_8,0,1,48,48,3960354108
4015,7,Jits_ISO_8,1,5,56,103,3960408612
4015,7,Jits_ISO_8,2,5,80,127,3960428848
4015,7,Jits_ISO_8,3,5,63,98,3960508776
4015,7,Jits_ISO_8,0,5,80,127,3961198960
4015,7,Jits_ISO_8,1,1,48,45,3961210028
4015,7,Jits_ISO_8,2,5,56,103,3961299452
4015,7,Jits_ISO_8,3,5,63,98,3961308588
4015,7,Jits_ISO_8,0,5,63,98,3961968948
4015,7,Jits_ISO_8,1,5,80,127,3962029564
4015,7,Jits_ISO_8,2,5,56,103,3962038636
4015,7,Jits_ISO_8,3,1,48,45,3962102984
4015,7,Jits_ISO_8,0,5,56,103,3962768804
4015,7,Jits_ISO_8,1,5,63,98,3962839480
4015,7,Jits_ISO_8,2,5,80,127,3962842768
4015,7,Jits_ISO_8,3,1,48,43,3962870920
4015,7,Jits_ISO_8,0,5,63,98,3963599308
4015,7,Jits_ISO_8,1,1,48,45,3963603472
4015,7,Jits_ISO_8,2,5,56,103,3963649652
4015,7,Jits_ISO_8,3,5,80,127,3963652640
4015,7,Jits_ISO_8,0,1,48,40,3964352868
4015,7,Jits_ISO_8,1,5,56,103,3964358968
4015,7,Jits_ISO_8,2,5,80,127,3964362108
4015,7,Jits_ISO_8,3,5,63,98,3964449408
4015,7,Jits_ISO_8,0,1,48,46,3965170952
4015,7,Jits_ISO_8,1,5,63,98,3965198700
4015,7,Jits_ISO_8,2,5,56,103,3965288748
4015,7,Jits_ISO_8,3,5,80,127,3965318420
4015,7,Jits_ISO_8,0,5,56,103,3965989356
4015,7,Jits_ISO_8,1,1,48,31,3966025960
4015,7,Jits_ISO_8,2,5,63,98,3966088700
4015,7,Jits_ISO_8,3,5,80,127,3966119348
4015,7,Jits_ISO_8,0,1,48,43,3966799244
4015,7,Jits_ISO_8,1,5,63,98,3966808336
4015,7,Jits_ISO_8,2,5,56,103,3966818604
4015,7,Jits_ISO_8,3,5,80,127,3966908800
4015,7,Jits_ISO_8,0,1,48,49,3967579552
4015,7,Jits_ISO_8,1,5,63,98,3967628652
4015,7,Jits_ISO_8,2,5,56,103,3967708684
4015,7,Jits_ISO_8,3,5,80,127,3967711748
4015,7,Jits_ISO_8,0,1,48,48,3968383300
4015,7,Jits_ISO_8,1,5,80,127,3968388504
4015,7,Jits_ISO_8,2,5,63,98,3968408960
4015,7,Jits_ISO_8,3,5,56,103,3968469524
4015,7,Jits_ISO_8,0,1,48,47,3969178972
4015,7,Jits_ISO_8,1,5,56,103,3969229268
4015,7,Jits_ISO_8,2,5,63,98,3969248556
4015,7,Jits_ISO_8,3,5,80,127,3969251992
4015,7,Jits_ISO_8,0,5,63,98,3969968440
4015,7,Jits_ISO_8,1,1,48,53,3969976348
4015,7,Jits_ISO_8,2,5,80,127,3970049452
4015,7,Jits_ISO_8,3,5,56,103,3970058676
4015,7,Jits_ISO_8,0,1,48,40,3970763912
4015,7,Jits_ISO_8,1,5,63,98,3970788692
4015,7,Jits_ISO_8,2,5,56,103,3970809300
4015,7,Jits_ISO_8,3,5,80,127,3970859352
4015,7,Jits_ISO_8,0,1,48,43,3971544088
4015,7,Jits_ISO_8,1,5,80,127,3971588404
4015,7,Jits_ISO_8,2,5,63,98,3971629392
4015,7,Jits_ISO_8,3,5,56,103,3971648936
4015,7,Jits_ISO_8,0,1,48,34,3972348156
4015,7,Jits_ISO_8,1,5,56,103,3972429168
4015,7,Jits_ISO_8,2,5,63,98,3972439292
4015,7,Jits_ISO_8,3,5,80,127,3972458836
4015,7,Jits_ISO_8,0,1,48,37,3973126368
4015,7,Jits_ISO_8,1,5,56,103,3973159424
4015,7,Jits_ISO_8,2,5,63,98,3973249320
4015,7,Jits_ISO_8,3,5,80,127,3973308740
4015,7,Jits_ISO_8,0,1,48,44,3973967432
4015,7,Jits_ISO_8,1,5,80,127,3973988656
4015,7,Jits_ISO_8,2,5,56,103,3973999372
4015,7,Jits_ISO_8,3,5,63,98,3974068444
4015,7,Jits_ISO_8,0,1,48,42,3974794548
4015,7,Jits_ISO_8,1,5,63,98,3974819232
4015,7,Jits_ISO_8,2,5,80,127,3974909228
4015,7,Jits_ISO_8,3,5,56,103,3974918380
4015,7,Jits_ISO_8,0,5,63,98,3975558640
4015,7,Jits_ISO_8,1,1,48,43,3975604084
4015,7,Jits_ISO_8,2,5,80,127,3975608688
4015,7,Jits_ISO_8,3,5,56,103,3975669324
4015,7,Jits_ISO_8,0,1,48,46,3976351640
4015,7,Jits_ISO_8,1,5,56,103,3976388912
4015,7,Jits_ISO_8,2,5,80,127,3976439140
4015,7,Jits_ISO_8,3,5,63,98,3976458464
4015,7,Jits_ISO_8,0,1,48,48,3977145656
4015,7,Jits_ISO_8,1,5,56,103,3977159104
4015,7,Jits_ISO_8,2,5,80,127,3977218324
4015,7,Jits_ISO_8,3,5,63,98,3977289260
4015,7,Jits_ISO_8,0,5,56,103,3977958844
4015,7,Jits_ISO_8,1,5,80,127,3977988448
4015,7,Jits_ISO_8,2,1,48,50,3977992312
4015,7,Jits_ISO_8,3,5,63,98,3978019088
4015,7,Jits_ISO_8,0,1,48,43,3978788952
4015,7,Jits_ISO_8,1,5,56,103,3978798340
4015,7,Jits_ISO_8,2,5,80,127,3978819100
4015,7,Jits_ISO_8,3,5,63,98,3978879264
4015,7,Jits_ISO_8,0,1,48,46,3979609712
4015,7,Jits_ISO_8,1,5,80,127,3979679116
4015,7,Jits_ISO_8,2,5,56,103,3979689312
4015,7,Jits_ISO_8,3,5,63,98,3979698540
4015,7,Jits_ISO_8,0,5,56,103,3980439060
4015,7,Jits_ISO_8,1,1,48,43,3980449452
4015,7,Jits_ISO_8,2,5,80,127,3980478920
4015,7,Jits_ISO_8,3,5,63,98,3980508544
4015,7,Jits_ISO_8,0,5,56,103,3981209048
4015,7,Jits_ISO_8,1,5,63,98,3981238500
4015,7,Jits_ISO_8,2,1,48,45,3981266284
4015,7,Jits_ISO_8,3,5,80,127,3981278456
4015,7,Jits_ISO_8,0,5,80,127,3981958504
4015,7,Jits_ISO_8,1,5,63,98,3982008632
4015,7,Jits_ISO_8,2,1,48,51,3982010648
4015,7,Jits_ISO_8,3,5,56,103,3982029160
4015,7,Jits_ISO_8,0,1,48,36,3982781640
4015,7,Jits_ISO_8,1,5,56,103,3982789084
4015,7,Jits_ISO_8,2,5,80,127,3982859092
4015,7,Jits_ISO_8,3,5,63,98,3982919096
4015,7,Jits_ISO_8,0,1,48,35,3983587480
4015,7,Jits_ISO_8,1,5,80,127,3983589272
4015,7,Jits_ISO_8,2,5,63,98,3983678964
4015,7,Jits_ISO_8,3,5,56,103,3983699184
4015,7,Jits_ISO_8,0,1,48,37,3984381692
4015,7,Jits_ISO_8,1,5,63,98,3984408920
4015,7,Jits_ISO_8,2,5,56,103,3984429380
4015,7,Jits_ISO_8,3,5,80,127,3984469320
4015,7,Jits_ISO_8,0,1,48,41,3985140348
4015,7,Jits_ISO_8,1,5,80,127,3985168920
4015,7,Jits_ISO_8,2,5,63,98,3985189160
4015,7,Jits_ISO_8,3,5,56,103,3985269160
4015,7,Jits_ISO_8,0,1,48,45,3985893220
4015,7,Jits_ISO_8,1,5,63,98,3985959336
4015,7,Jits_ISO_8,2,5,56,103,3986069008
4015,7,Jits_ISO_8,3,5,80,127,3986071928
4015,7,Jits_ISO_8,0,1,48,35,3986723868
4015,7,Jits_ISO_8,1,5,63,98,3986778592
4015,7,Jits_ISO_8,2,5,56,103,3986788860
4015,7,Jits_ISO_8,3,5,80,127,3986792076
4015,7,Jits_ISO_8,0,1,48,37,3987523860
4015,7,Jits_ISO_8,1,5,56,103,3987558808
4015,7,Jits_ISO_8,2,5,80,127,3987678844
4015,7,Jits_ISO_8,3,5,63,98,3987718708
4015,7,Jits_ISO_8,0,1,48,37,3988370928
4015,7,Jits_ISO_8,1,5,56,103,3988379120
4015,7,Jits_ISO_8,2,5,80,127,3988458944
4015,7,Jits_ISO_8,3,5,63,98,3988479240
4015,7,Jits_ISO_8,0,5,56,103,3989178988
4015,7,Jits_ISO_8,1,1,48,22,3989263192
4015,7,Jits_ISO_8,2,5,63,98,3989289368
4015,7,Jits_ISO_8,3,5,80,127,3989292956
4015,7,Jits_ISO_8,0,5,56,103,3990009076
4015,7,Jits_ISO_8,1,5,80,127,3990038900
4015,7,Jits_ISO_8,2,1,48,37,3990058080
4015,7,Jits_ISO_8,3,5,63,98,3990059800
4015,7,Jits_ISO_8,0,5,63,98,3990788644
4015,7,Jits_ISO_8,1,5,56,103,3990798916
4015,7,Jits_ISO_8,2,1,48,44,3990799880
4015,7,Jits_ISO_8,3,5,80,127,3990808808
4015,7,Jits_ISO_8,0,1,48,40,3991559472
4015,7,Jits_ISO_8,1,5,80,127,3991578980
4015,7,Jits_ISO_8,2,5,56,103,3991629256
4015,7,Jits_ISO_8,3,5,63,98,3991669032
4015,7,Jits_ISO_8,0,1,48,41,3992360380
4015,7,Jits_ISO_8,1,5,80,127,3992399144
4015,7,Jits_ISO_8,2,5,63,98,3992418852
4015,7,Jits_ISO_8,3,5,56,103,3992468964
4015,7,Jits_ISO_8,0,5,80,127,3993209124
4015,7,Jits_ISO_8,1,5,56,103,3993239024
4015,7,Jits_ISO_8,2,1,48,39,3993244236
4015,7,Jits_ISO_8,3,5,63,98,3993308796
4015,7,Jits_ISO_8,0,1,48,46,3994002524
4015,7,Jits_ISO_8,1,5,56,103,3994059116
4015,7,Jits_ISO_8,2,5,80,127,3994069636
4015,7,Jits_ISO_8,3,5,63,98,3994109560
4015,7,Jits_ISO_8,0,5,56,103,3994768780
4015,7,Jits_ISO_8,1,5,63,98,3994789240
4015,7,Jits_ISO_8,2,1,48,42,3994829744
4015,7,Jits_ISO_8,3,5,80,127,3994858788
4015,7,Jits_ISO_8,0,1,48,36,3995570192
4015,7,Jits_ISO_8,1,5,63,98,3995588948
4015,7,Jits_ISO_8,2,5,80,127,3995649664
4015,7,Jits_ISO_8,3,5,56,103,3995668836
4015,7,Jits_ISO_8,0,5,80,127,3996378576
4015,7,Jits_ISO_8,1,1,48,29,3996393532
4015,7,Jits_ISO_8,2,5,56,103,3996409144
4015,7,Jits_ISO_8,3,5,63,98,3996438820
4015,7,Jits_ISO_8,0,1,48,34,3997170320
4015,7,Jits_ISO_8,1,5,56,103,3997179412
4015,7,Jits_ISO_8,2,5,63,98,3997238536
4015,7,Jits_ISO_8,3,5,80,127,3997298988
4015,7,Jits_ISO_8,0,1,48,25,3997992584
4015,7,Jits_ISO_8,1,5,80,127,3997998608
4015,7,Jits_ISO_8,2,5,56,103,3998019068
4015,7,Jits_ISO_8,3,5,63,98,3998088748
4015,7,Jits_ISO_8,0,1,48,38,3998769524
4015,7,Jits_ISO_8,1,5,80,127,3998799144
4015,7,Jits_ISO_8,2,5,63,98,3998818632
4015,7,Jits_ISO_8,3,5,56,103,3998849576
4015,7,Jits_ISO_8,0,1,48,38,3999537544
4015,7,Jits_ISO_8,1,5,80,127,3999588736
4015,7,Jits_ISO_8,2,5,63,98,3999609196
4015,7,Jits_ISO_8,3,5,56,103,3999668600
4015,7,Jits_ISO_8,0,1,48,35,4000351408
4015,7,Jits_ISO_8,1,5,80,127,4000388524
4015,7,Jits_ISO_8,2,5,56,103,4000488932
4015,7,Jits_ISO_8,3,5,63,98,4000518684
4015,7,Jits_ISO_8,0,5,63,98,4001178952
4015,7,Jits_ISO_8,1,1,48,33,4001216448
4015,7,Jits_ISO_8,2,5,80,127,4001229372
4015,7,Jits_ISO_8,3,5,56,103,4001248560
4015,7,Jits_ISO_8,0,1,48,40,4002008448
4015,7,Jits_ISO_8,1,5,80,127,4002018660
4015,7,Jits_ISO_8,2,5,56,103,4002049456
4015,7,Jits_ISO_8,3,5,63,98,4002052744
4015,7,Jits_ISO_8,0,1,48,32,4002767316
4015,7,Jits_ISO_8,1,5,63,98,4002849076
4015,7,Jits_ISO_8,2,5,56,103,4002889004
4015,7,Jits_ISO_8,3,5,80,127,4002908492
4015,7,Jits_ISO_8,0,5,80,127,4003588416
4015,7,Jits_ISO_8,1,1,48,37,4003594748
4015,7,Jits_ISO_8,2,5,63,98,4003669476
4015,7,Jits_ISO_8,3,5,56,103,4003709472
4015,7,Jits_ISO_8,0,5,63,98,4004408744
4015,7,Jits_ISO_8,1,1,48,32,4004468732
4015,7,Jits_ISO_8,2,5,80,127,4004488612
4015,7,Jits_ISO_8,3,5,56,103,4004508924
4015,7,Jits_ISO_8,0,1,48,31,4005248164
4015,7,Jits_ISO_8,1,5,56,103,4005249956
4015,7,Jits_ISO_8,2,5,63,98,4005258584
4015,7,Jits_ISO_8,3,5,80,127,4005298596
4015,7,Jits_ISO_8,0,5,56,103,4005969284
4015,7,Jits_ISO_8,1,5,80,127,4005972424
4015,7,Jits_ISO_8,2,1,48,29,4006046116
4015,7,Jits_ISO_8,3,5,63,98,4006108656
4015,7,Jits_ISO_8,0,5,56,103,4006758732
4015,7,Jits_ISO_8,1,5,63,98,4006849092
4015,7,Jits_ISO_8,2,1,48,30,4006864292
4015,7,Jits_ISO_8,3,5,80,127,4006918640
4015,7,Jits_ISO_8,0,5,63,98,4007639472
4015,7,Jits_ISO_8,1,5,80,127,4007642760
4015,7,Jits_ISO_8,2,1,48,28,4007643652
4015,7,Jits_ISO_8,3,5,56,103,4007698808
4015,7,Jits_ISO_8,0,1,48,35,4008427312
4015,7,Jits_ISO_8,1,5,80,127,4008479108
4015,7,Jits_ISO_8,2,5,56,103,4008498596
4015,7,Jits_ISO_8,3,5,63,98,4008508792
4015,7,Jits_ISO_8,0,5,56,103,4009188776
4015,7,Jits_ISO_8,1,5,63,98,4009199120
4015,7,Jits_ISO_8,2,5,80,127,4009268652
4015,7,Jits_ISO_8,3,1,48,24,4009272368
4015,7,Jits_ISO_8,0,5,80,127,4009988424
4015,7,Jits_ISO_8,1,1,48,32,4010031624
4015,7,Jits_ISO_8,2,5,56,103,4010038620
4015,7,Jits_ISO_8,3,5,63,98,4010088748
4015,7,Jits_ISO_8,0,1,48,26,4010820328
4015,7,Jits_ISO_8,1,5,56,103,4010869056
4015,7,Jits_ISO_8,2,5,63,98,4010879552
4015,7,Jits_ISO_8,3,5,80,127,4010919404
4015,7,Jits_ISO_8,0,5,56,103,4011608320
4015,7,Jits_ISO_8,1,5,63,98,4011649532
4015,7,Jits_ISO_8,2,1,48,33,4011677380
4015,7,Jits_ISO_8,3,5,80,127,4011698528
4015,7,Jits_ISO_8,0,5,80,127,4012369308
4015,7,Jits_ISO_8,1,5,56,103,4012418468
4015,7,Jits_ISO_8,2,5,63,98,4012439072
4015,7,Jits_ISO_8,0,5,80,127,4013179140
4015,7,Jits_ISO_8,1,1,48,35,4013197476
4015,7,Jits_ISO_8,2,5,63,98,4013238552
4015,7,Jits_ISO_8,3,5,56,103,4013318508
4015,7,Jits_ISO_8,0,5,80,127,4013958636
4015,7,Jits_ISO_8,1,5,56,103,4013998500
4015,7,Jits_ISO_8,2,1,48,30,4014002140
4015,7,Jits_ISO_8,3,5,63,98,4014018880
4015,7,Jits_ISO_8,0,1,48,39,4014775092
4015,7,Jits_ISO_8,1,5,56,103,4014808348
4015,7,Jits_ISO_8,2,5,80,127,4014818768
4015,7,Jits_ISO_8,3,5,63,98,4014858708
4015,7,Jits_ISO_8,0,1,48,27,4015604348
4015,7,Jits_ISO_8,1,5,56,103,4015679008
4015,7,Jits_ISO_8,2,5,63,98,4015718932
4015,7,Jits_ISO_8,3,5,80,127,4015722144
4015,7,Jits_ISO_8,0,5,63,98,4016368888
4015,7,Jits_ISO_8,1,5,80,127,4016409128
4015,7,Jits_ISO_8,2,1,48,33,4016416360
4015,7,Jits_ISO_8,3,5,56,103,4016478652
4015,7,Jits_ISO_8,0,5,63,98,4017158400
4015,7,Jits_ISO_8,1,1,48,27,4017167216
4015,7,Jits_ISO_8,2,5,56,103,4017239388
4015,7,Jits_ISO_8,3,5,80,127,4017298940
4015,7,Jits_ISO_8,0,1,48,29,4017926464
4015,7,Jits_ISO_8,1,5,80,127,4017968440
4015,7,Jits_ISO_8,2,5,63,98,4018018568
4015,7,Jits_ISO_8,3,5,56,103,4018049352
4015,7,Jits_ISO_8,0,5,56,103,4018758936
4015,7,Jits_ISO_8,1,1,48,28,4018790004
4015,7,Jits_ISO_8,2,5,63,98,4018809136
4015,7,Jits_ISO_8,3,5,80,127,4018818356
4015,7,Jits_ISO_8,0,1,48,36,4019558776
4015,7,Jits_ISO_8,1,5,56,103,4019569060
4015,7,Jits_ISO_8,2,5,63,98,4019678760
4015,7,Jits_ISO_8,3,5,80,127,4019698924
4015,7,Jits_ISO_8,0,5,63,98,4020368856
4015,7,Jits_ISO_8,1,1,48,29,4020369820
4015,7,Jits_ISO_8,2,5,80,127,4020418904
4015,7,Jits_ISO_8,3,5,56,103,4020508972
4015,7,Jits_ISO_8,0,1,48,39,4021156528
4015,7,Jits_ISO_8,1,5,63,98,4021159192
4015,7,Jits_ISO_8,2,5,80,127,4021189016
4015,7,Jits_ISO_8,3,5,56,103,4021279084
4015,7,Jits_ISO_8,0,5,63,98,4021959128
4015,7,Jits_ISO_8,1,5,56,103,4021969276
4015,7,Jits_ISO_8,2,1,48,37,4022036216
4015,7,Jits_ISO_8,3,5,80,127,4022068840
4015,7,Jits_ISO_8,0,1,48,34,4022787752
4015,7,Jits_ISO_8,1,5,63,98,4022859100
4015,7,Jits_ISO_8,2,5,80,127,4022888912
4015,7,Jits_ISO_8,3,5,56,103,4022918364
4015,7,Jits_ISO_8,0,1,48,33,4023650324
4015,7,Jits_ISO_8,1,5,80,127,4023679340
4015,7,Jits_ISO_8,2,5,63,98,4023688716
4015,7,Jits_ISO_8,3,5,56,103,4023719140
4015,7,Jits_ISO_8,0,5,80,127,4024378744
4015,7,Jits_ISO_8,1,5,63,98,4024399132
4015,7,Jits_ISO_8,2,1,48,30,4024426984
4015,7,Jits_ISO_8,3,5,56,103,4024449476
4015,7,Jits_ISO_8,0,1,48,29,4025132276
4015,7,Jits_ISO_8,1,5,63,98,4025209104
4015,7,Jits_ISO_8,2,5,80,127,4025268880
4015,7,Jits_ISO_8,3,5,56,103,4025289044
4015,7,Jits_ISO_8,0,1,48,35,4025929300
4015,7,Jits_ISO_8,1,5,63,98,4025968956
4015,7,Jits_ISO_8,2,5,56,103,4026019236
4015,7,Jits_ISO_8,3,5,80,127,4026029712
4015,7,Jits_ISO_8,0,1,48,42,4026702548
4015,7,Jits_ISO_8,1,5,56,103,4026798616
4015,7,Jits_ISO_8,2,5,80,127,4026808812
4015,7,Jits_ISO_8,3,5,63,98,4026909160
4015,7,Jits_ISO_8,0,1,48,36,4027522860
4015,7,Jits_ISO_8,1,5,80,127,4027559228
4015,7,Jits_ISO_8,2,5,63,98,4027568604
4015,7,Jits_ISO_8,3,5,56,103,4027718976
4015,7,Jits_ISO_8,0,1,48,22,4028347148
4015,7,Jits_ISO_8,1,5,63,98,4028369148
4015,7,Jits_ISO_8,2,5,80,127,4028409088
4015,7,Jits_ISO_8,3,5,56,103,4028489016
4015,7,Jits_ISO_8,0,1,48,38,4029140580
4015,7,Jits_ISO_8,1,5,56,103,4029158816
4015,7,Jits_ISO_8,2,5,80,127,4029258976
4015,7,Jits_ISO_8,3,5,63,98,4029278688
4015,7,Jits_ISO_8,0,1,48,32,4029997464
4015,7,Jits_ISO_8,1,5,80,127,4030019060
4015,7,Jits_ISO_8,2,5,56,103,4030029180
4015,7,Jits_ISO_8,3,5,63,98,4030119224
4015,7,Jits_ISO_8,0,1,48,32,4030785096
4015,7,Jits_ISO_8,1,5,56,103,4030818772
4015,7,Jits_ISO_8,2,5,63,98,4030839084
4015,7,Jits_ISO_8,3,5,80,127,4030919088
4015,7,Jits_ISO_8,0,5,63,98,4031569116
4015,7,Jits_ISO_8,1,5,56,103,4031659624
4015,7,Jits_ISO_8,2,5,80,127,4031662540
4015,7,Jits_ISO_8,3,1,48,28,4031903384
4015,7,Jits_ISO_8,0,5,56,103,4032398636
4015,7,Jits_ISO_8,1,5,80,127,4032459028
4015,7,Jits_ISO_8,2,5,63,98,4032469448
4015,7,Jits_ISO_8,3,1,48,13,4032508160
4015,7,Jits_ISO_8,0,1,48,24,4033203244
4015,7,Jits_ISO_8,1,5,80,127,4033248556
4015,7,Jits_ISO_8,2,5,56,103,4033258744
4015,7,Jits_ISO_8,3,5,63,98,4033261888
4015,7,Jits_ISO_8,0,1,48,46,4033972900
4015,7,Jits_ISO_8,1,5,56,103,4034008472
4015,7,Jits_ISO_8,2,5,80,127,4034018816
4015,7,Jits_ISO_8,3,5,63,98,4034039056
4015,7,Jits_ISO_8,0,5,63,98,4034778444
4015,7,Jits_ISO_8,1,1,48,49,4034790928
4015,7,Jits_ISO_8,2,5,80,127,4034838832
4015,7,Jits_ISO_8,3,5,56,103,4034889020
4015,7,Jits_ISO_8,0,1,48,51,4035587344
4015,7,Jits_ISO_8,1,5,63,98,4035659212
4015,7,Jits_ISO_8,2,5,56,103,4035669484
4015,7,Jits_ISO_8,3,5,80,127,4035718472
4015,7,Jits_ISO_8,0,5,63,98,4036358604
4015,7,Jits_ISO_8,1,5,80,127,4036378916
4015,7,Jits_ISO_8,2,5,56,103,4036389484
4015,7,Jits_ISO_8,3,1,48,49,4036399504
4015,7,Jits_ISO_8,0,5,63,98,4037159424
4015,7,Jits_ISO_8,1,5,80,127,4037162492
4015,7,Jits_ISO_8,2,5,56,103,4037199364
4015,7,Jits_ISO_8,3,1,48,46,4037219348
4015,7,Jits_ISO_8,0,1,48,43,4037966716
4015,7,Jits_ISO_8,1,5,63,98,4038028716
4015,7,Jits_ISO_8,2,5,80,127,4038059440
4015,7,Jits_ISO_8,3,5,56,103,4038068648
4015,7,Jits_ISO_8,0,5,56,103,4038779360
4015,7,Jits_ISO_8,1,5,80,127,4038808888
4015,7,Jits_ISO_8,2,5,63,98,4038838636
4015,7,Jits_ISO_8,3,1,48,40,4038845416
4015,7,Jits_ISO_8,0,1,48,37,4039569832
4015,7,Jits_ISO_8,1,5,63,98,4039679480
4015,7,Jits_ISO_8,2,5,56,103,4039719416
4015,7,Jits_ISO_8,3,5,80,127,4039722332
4015,7,Jits_ISO_8,0,5,80,127,4040378788
4015,7,Jits_ISO_8,1,1,48,49,4040390828
4015,7,Jits_ISO_8,2,5,56,103,4040458680
4015,7,Jits_ISO_8,3,5,63,98,4040508868
4015,7,Jits_ISO_8,0,5,80,127,4041159184
4015,7,Jits_ISO_8,1,5,56,103,4041178400
4015,7,Jits_ISO_8,2,1,48,48,4041184512
4015,7,Jits_ISO_8,3,5,63,98,4041268600
4015,7,Jits_ISO_8,0,1,48,53,4041967672
4015,7,Jits_ISO_8,1,5,80,127,4041998784
4015,7,Jits_ISO_8,2,5,63,98,4042038724
4015,7,Jits_ISO_8,3,5,56,103,4042078572
4015,7,Jits_ISO_8,0,1,48,40,4042764960
4015,7,Jits_ISO_8,1,5,63,98,4042768744
4015,7,Jits_ISO_8,2,5,80,127,4042829284
4015,7,Jits_ISO_8,3,5,56,103,4042858736
4015,7,Jits_ISO_8,0,1,48,56,4043556052
4015,7,Jits_ISO_8,1,5,56,103,4043568448
4015,7,Jits_ISO_8,2,5,80,127,4043599396
4015,7,Jits_ISO_8,3,5,63,98,4043689292
4015,7,Jits_ISO_8,0,1,48,42,4044363480
4015,7,Jits_ISO_8,1,5,56,103,4044378348
4015,7,Jits_ISO_8,2,5,80,127,4044489000
4015,7,Jits_ISO_8,3,5,63,98,4044518700
4015,7,Jits_ISO_8,0,5,56,103,4045229392
4015,7,Jits_ISO_8,1,5,63,98,4045288836
4015,7,Jits_ISO_8,2,1,48,46,4045309788
4015,7,Jits_ISO_8,3,5,80,127,4045318504
4015,7,Jits_ISO_8,0,5,56,103,4045998556
4015,7,Jits_ISO_8,1,5,63,98,4046069012
4015,7,Jits_ISO_8,2,1,48,39,4046081572
4015,7,Jits_ISO_8,3,5,80,127,4046088568
4015,7,Jits_ISO_8,0,5,80,127,4046768388
4015,7,Jits_ISO_8,1,5,63,98,4046789220
4015,7,Jits_ISO_8,2,5,56,103,4046839296
4015,7,Jits_ISO_8,3,1,48,48,4046849540
4015,7,Jits_ISO_8,0,9999,9999,9999,3952036952
4015,7,Jits_ISO_8,1,9999,9999,9999,3952836728
4015,7,Jits_ISO_8,2,9999,9999,9999,3953636456
4015,7,Jits_ISO_8,3,9999,9999,9999,3954436180
4015,7,Jits_ISO_8,4,9999,9999,9999,3955236948
4015,7,Jits_ISO_8,5,9999,9999,9999,3956036660
4015,7,Jits_ISO_8,6,9999,9999,9999,3956836440
4015,7,Jits_ISO_8,7,9999,9999,9999,3957636156
4015,7,Jits_ISO_8,8,9999,9999,9999,3958436920
4015,7,Jits_ISO_8,9,9999,9999,9999,3959236688
4015,7,Jits_ISO_8,10,9999,9999,9999,3960036448
4015,7,Jits_ISO_8,11,9999,9999,9999,3960836160
4015,7,Jits_ISO_8,12,9999,9999,9999,3961636920
4015,7,Jits_ISO_8,13,9999,9999,9999,3962436720
4015,7,Jits_ISO_8,14,9999,9999,9999,3963236416
4015,7,Jits_ISO_8,15,9999,9999,9999,3964036180
4015,7,Jits_ISO_8,16,9999,9999,9999,3964836924
4015,7,Jits_ISO_8,17,9999,9999,9999,3965636716
4015,7,Jits_ISO_8,18,9999,9999,9999,3966436456
4015,7,Jits_ISO_8,19,9999,9999,9999,3967236184
4015,7,Jits_ISO_8,20,9999,9999,9999,3968036940
4015,7,Jits_ISO_8,21,9999,9999,9999,3968836724
4015,7,Jits_ISO_8,22,9999,9999,9999,3969636428
4015,7,Jits_ISO_8,23,9999,9999,9999,3970436212
4015,7,Jits_ISO_8,24,9999,9999,9999,3971236964
4015,7,Jits_ISO_8,25,9999,9999,9999,3972036680
4015,7,Jits_ISO_8,26,9999,9999,9999,3972836412
4015,7,Jits_ISO_8,27,9999,9999,9999,3973636200
4015,7,Jits_ISO_8,28,9999,9999,9999,3974436956
4015,7,Jits_ISO_8,29,9999,9999,9999,3975236672
4015,7,Jits_ISO_8,30,9999,9999,9999,3976036452
4015,7,Jits_ISO_8,31,9999,9999,9999,3976836164
4015,7,Jits_ISO_8,32,9999,9999,9999,3977636924
4015,7,Jits_ISO_8,33,9999,9999,9999,3978436700
4015,7,Jits_ISO_8,34,9999,9999,9999,3979236452
4015,7,Jits_ISO_8,35,9999,9999,9999,3980036176
4015,7,Jits_ISO_8,36,9999,9999,9999,3980836936
4015,7,Jits_ISO_8,37,9999,9999,9999,3981636668
4015,7,Jits_ISO_8,38,9999,9999,9999,3982436464
4015,7,Jits_ISO_8,39,9999,9999,9999,3983236192
4015,7,Jits_ISO_8,40,9999,9999,9999,3984036956
4015,7,Jits_ISO_8,41,9999,9999,9999,3984836668
4015,7,Jits_ISO_8,42,9999,9999,9999,3985636476
4015,7,Jits_ISO_8,43,9999,9999,9999,3986436176
4015,7,Jits_ISO_8,44,9999,9999,9999,3987236920
4015,7,Jits_ISO_8,45,9999,9999,9999,3988036704
4015,7,Jits_ISO_8,46,9999,9999,9999,3988836416
4015,7,Jits_ISO_8,47,9999,9999,9999,3989636192
4015,7,Jits_ISO_8,48,9999,9999,9999,3990436964
4015,7,Jits_ISO_8,49,9999,9999,9999,3991236684
4015,7,Jits_ISO_8,50,9999,9999,9999,3992036424
4015,7,Jits_ISO_8,51,9999,9999,9999,3992836204
4015,7,Jits_ISO_8,52,9999,9999,9999,3993636964
4015,7,Jits_ISO_8,53,9999,9999,9999,3994436696
4015,7,Jits_ISO_8,54,9999,9999,9999,3995236476
4015,7,Jits_ISO_8,55,9999,9999,9999,3996036204
4015,7,Jits_ISO_8,56,9999,9999,9999,3996836956
4015,7,Jits_ISO_8,57,9999,9999,9999,3997636684
4015,7,Jits_ISO_8,58,9999,9999,9999,3998436420
4015,7,Jits_ISO_8,59,9999,9999,9999,3999236208
4015,7,Jits_ISO_8,60,9999,9999,9999,4000036964
4015,7,Jits_ISO_8,61,9999,9999,9999,4000836676
4015,7,Jits_ISO_8,62,9999,9999,9999,4001636436
4015,7,Jits_ISO_8,63,9999,9999,9999,4002436212
4015,7,Jits_ISO_8,64,9999,9999,9999,4003236972
4015,7,Jits_ISO_8,65,9999,9999,9999,4004036684
4015,7,Jits_ISO_8,66,9999,9999,9999,4004836444
4015,7,Jits_ISO_8,67,9999,9999,9999,4005636156
4015,7,Jits_ISO_8,68,9999,9999,9999,4006436976
4015,7,Jits_ISO_8,69,9999,9999,9999,4007236696
4015,7,Jits_ISO_8,70,9999,9999,9999,4008036416
4015,7,Jits_ISO_8,71,9999,9999,9999,4008836212
4015,7,Jits_ISO_8,72,9999,9999,9999,4009636968
4015,7,Jits_ISO_8,73,9999,9999,9999,4010436696
4015,7,Jits_ISO_8,74,9999,9999,9999,4011236452
4015,7,Jits_ISO_8,75,9999,9999,9999,4012036164
4015,7,Jits_ISO_8,76,9999,9999,9999,4012836952
4015,7,Jits_ISO_8,77,9999,9999,9999,4013636728
4015,7,Jits_ISO_8,78,9999,9999,9999,4014436444
4015,7,Jits_ISO_8,79,9999,9999,9999,4015236168
4015,7,Jits_ISO_8,80,9999,9999,9999,4016036928
4015,7,Jits_ISO_8,81,9999,9999,9999,4016836712
4015,7,Jits_ISO_8,82,9999,9999,9999,4017636440
4015,7,Jits_ISO_8,83,9999,9999,9999,4018436220
4015,7,Jits_ISO_8,84,9999,9999,9999,4019236968
4015,7,Jits_ISO_8,85,9999,9999,9999,4020036696
4015,7,Jits_ISO_8,86,9999,9999,9999,4020836404
4015,7,Jits_ISO_8,87,9999,9999,9999,4021636188
4015,7,Jits_ISO_8,88,9999,9999,9999,4022436940
4015,7,Jits_ISO_8,89,9999,9999,9999,4023236732
4015,7,Jits_ISO_8,90,9999,9999,9999,4024036472
4015,7,Jits_ISO_8,91,9999,9999,9999,4024836180
4015,7,Jits_ISO_8,92,9999,9999,9999,4025636952
4015,7,Jits_ISO_8,93,9999,9999,9999,4026436660
4015,7,Jits_ISO_8,94,9999,9999,9999,4027236444
4015,7,Jits_ISO_8,95,9999,9999,9999,4028036152
4015,7,Jits_ISO_8,96,9999,9999,9999,4028836976
4015,7,Jits_ISO_8,97,9999,9999,9999,4029636688
4015,7,Jits_ISO_8,98,9999,9999,9999,4030436420
4015,7,Jits_ISO_8,99,9999,9999,9999,4031236208
4015,7,Jits_ISO_8,100,9999,9999,9999,4032036956
4015,7,Jits_ISO_8,101,9999,9999,9999,4032836716
4015,7,Jits_ISO_8,102,9999,9999,9999,4033636436
4015,7,Jits_ISO_8,103,9999,9999,9999,4034436220
4015,7,Jits_ISO_8,104,9999,9999,9999,4035236976
4015,7,Jits_ISO_8,105,9999,9999,9999,4036036692
4015,7,Jits_ISO_8,106,9999,9999,9999,4036836412
4015,7,Jits_ISO_8,107,9999,9999,9999,4037636180
4015,7,Jits_ISO_8,108,9999,9999,9999,4038436936
4015,7,Jits_ISO_8,109,9999,9999,9999,4039236716
4015,7,Jits_ISO_8,110,9999,9999,9999,4040036440
4015,7,Jits_ISO_8,111,9999,9999,9999,4040836156
4015,7,Jits_ISO_8,112,9999,9999,9999,4041636920
4015,7,Jits_ISO_8,113,9999,9999,9999,4042436724
4015,7,Jits_ISO_8,114,9999,9999,9999,4043236448
4015,7,Jits_ISO_8,115,9999,9999,9999,4044036156
4015,7,Jits_ISO_8,116,9999,9999,9999,4044836916
4015,7,Jits_ISO_8,117,9999,9999,9999,4045636712
4015,7,Jits_ISO_8,118,9999,9999,9999,4046436440
4015,7,Jits_ISO_8,119,9999,9999,9999,4047236160
4016,19,Jits_Linear_5,0,5,56,103,4056504844
4016,19,Jits_Linear_5,1,5,63,98,4056507792
4016,19,Jits_Linear_5,2,5,80,127,4056511064
4016,19,Jits_Linear_5,0,5,56,103,4056984860
4016,19,Jits_Linear_5,1,5,63,98,4056987956
4016,19,Jits_Linear_5,2,5,80,127,4056991004
4016,19,Jits_Linear_5,0,1,48,44,4057458184
4016,19,Jits_Linear_5,1,5,56,103,4057465108
4016,19,Jits_Linear_5,2,5,80,127,4057474332
4016,19,Jits_Linear_5,3,5,63,98,4057494940
4016,19,Jits_Linear_5,0,5,63,98,4057895424
4016,19,Jits_Linear_5,1,5,80,127,4057925100
4016,19,Jits_Linear_5,2,5,56,103,4057935224
4016,19,Jits_Linear_5,3,1,48,63,4057984868
4016,19,Jits_Linear_5,0,5,80,127,4058434896
4016,19,Jits_Linear_5,1,5,56,103,4058445168
4016,19,Jits_Linear_5,2,1,48,72,4058455188
4016,19,Jits_Linear_5,3,5,63,98,4058474836
4016,19,Jits_Linear_5,0,5,63,98,4058915200
4016,19,Jits_Linear_5,1,5,56,103,4058944876
4016,19,Jits_Linear_5,2,5,80,127,4058955072
4016,19,Jits_Linear_5,3,1,48,78,4058958192
4016,19,Jits_Linear_5,0,5,56,103,4059354504
4016,19,Jits_Linear_5,1,5,63,98,4059404636
4016,19,Jits_Linear_5,2,5,80,127,4059425168
4016,19,Jits_Linear_5,3,1,48,76,4059447168
4016,19,Jits_Linear_5,0,5,80,127,4059845040
4016,19,Jits_Linear_5,1,5,63,98,4059895124
4016,19,Jits_Linear_5,2,1,48,86,4059918916
4016,19,Jits_Linear_5,3,5,56,103,4059935056
4016,19,Jits_Linear_5,0,5,56,103,4060334556
4016,19,Jits_Linear_5,1,5,63,98,4060365156
4016,19,Jits_Linear_5,2,1,48,80,4060421392
4016,19,Jits_Linear_5,3,5,80,127,4060434908
4016,19,Jits_Linear_5,0,5,56,103,4060824896
4016,19,Jits_Linear_5,1,5,80,127,4060885612
4016,19,Jits_Linear_5,2,1,48,76,4060907312
4016,19,Jits_Linear_5,3,5,63,98,4060915132
4016,19,Jits_Linear_5,0,5,56,103,4061324604
4016,19,Jits_Linear_5,1,5,63,98,4061334952
4016,19,Jits_Linear_5,2,5,80,127,4061374816
4016,19,Jits_Linear_5,3,1,48,81,4061393620
4016,19,Jits_Linear_5,0,5,63,98,4061815016
4016,19,Jits_Linear_5,1,1,48,70,4061883772
4016,19,Jits_Linear_5,2,5,80,127,4061894884
4016,19,Jits_Linear_5,3,5,56,103,4061905404
4016,19,Jits_Linear_5,0,5,63,98,4062364908
4016,19,Jits_Linear_5,1,1,48,77,4062370568
4016,19,Jits_Linear_5,2,5,56,103,4062405064
4016,19,Jits_Linear_5,3,5,80,127,4062408056
4016,19,Jits_Linear_5,0,5,56,103,4062824884
4016,19,Jits_Linear_5,1,5,63,98,4062835152
4016,19,Jits_Linear_5,2,1,48,72,4062862928
4016,19,Jits_Linear_5,3,5,80,127,4062875084
4016,19,Jits_Linear_5,0,5,56,103,4063315512
4016,19,Jits_Linear_5,1,5,63,98,4063318508
4016,19,Jits_Linear_5,2,5,80,127,4063334704
4016,19,Jits_Linear_5,3,1,48,75,4063347260
4016,19,Jits_Linear_5,0,1,48,77,4063820632
4016,19,Jits_Linear_5,1,5,80,127,4063834532
4016,19,Jits_Linear_5,2,5,56,103,4063844876
4016,19,Jits_Linear_5,3,5,63,98,4063915456
4016,19,Jits_Linear_5,0,1,48,65,4064331936
4016,19,Jits_Linear_5,1,5,63,98,4064335488
4016,19,Jits_Linear_5,2,5,56,103,4064354532
4016,19,Jits_Linear_5,3,5,80,127,4064434536
4016,19,Jits_Linear_5,0,1,48,76,4064840840
4016,19,Jits_Linear_5,1,5,56,103,4064855556
4016,19,Jits_Linear_5,2,5,80,127,4064895424
4016,19,Jits_Linear_5,3,5,63,98,4064904648
4016,19,Jits_Linear_5,0,1,48,64,4065353660
4016,19,Jits_Linear_5,1,5,80,127,4065355540
4016,19,Jits_Linear_5,2,5,63,98,4065384848
4016,19,Jits_Linear_5,3,5,56,103,4065424788
4016,19,Jits_Linear_5,0,1,48,78,4065853332
4016,19,Jits_Linear_5,1,5,56,103,4065884528
4016,19,Jits_Linear_5,2,5,63,98,4065915176
4016,19,Jits_Linear_5,3,5,80,127,4065965660
4016,19,Jits_Linear_5,0,1,48,62,4066371596
4016,19,Jits_Linear_5,1,5,80,127,4066394704
4016,19,Jits_Linear_5,2,5,56,103,4066434648
4016,19,Jits_Linear_5,3,5,63,98,4066444768
4016,19,Jits_Linear_5,0,1,48,81,4066880052
4016,19,Jits_Linear_5,1,5,80,127,4066895144
4016,19,Jits_Linear_5,2,5,63,98,4066935384
4016,19,Jits_Linear_5,3,5,56,103,4066994640
4016,19,Jits_Linear_5,0,1,48,77,4067406564
4016,19,Jits_Linear_5,1,5,56,103,4067415356
4016,19,Jits_Linear_5,2,5,80,127,4067424804
4016,19,Jits_Linear_5,3,5,63,98,4067505856
4016,19,Jits_Linear_5,0,1,48,88,4067902664
4016,19,Jits_Linear_5,1,5,80,127,4067934524
4016,19,Jits_Linear_5,2,5,63,98,4067994844
4016,19,Jits_Linear_5,3,5,56,103,4068024728
4016,19,Jits_Linear_5,0,1,48,72,4068427440
4016,19,Jits_Linear_5,1,5,56,103,4068454740
4016,19,Jits_Linear_5,2,5,80,127,4068515432
4016,19,Jits_Linear_5,3,5,63,98,4068555308
4016,19,Jits_Linear_5,0,1,48,71,4068940088
4016,19,Jits_Linear_5,1,5,56,103,4069035348
4016,19,Jits_Linear_5,2,5,63,98,4069044628
4016,19,Jits_Linear_5,3,5,80,127,4069048292
4016,19,Jits_Linear_5,0,1,48,84,4069454384
4016,19,Jits_Linear_5,1,5,80,127,4069514500
4016,19,Jits_Linear_5,2,5,63,98,4069604800
4016,19,Jits_Linear_5,3,5,56,103,4069615144
4016,19,Jits_Linear_5,0,1,48,70,4069970848
4016,19,Jits_Linear_5,1,5,56,103,4070044964
4016,19,Jits_Linear_5,2,5,63,98,4070048444
4016,19,Jits_Linear_5,3,5,80,127,4070051488
4016,19,Jits_Linear_5,0,1,48,70,4070514500
4016,19,Jits_Linear_5,1,5,80,127,4070594848
4016,19,Jits_Linear_5,2,5,63,98,4070645064
4016,19,Jits_Linear_5,3,5,56,103,4070674740
4016,19,Jits_Linear_5,0,1,48,58,4071071648
4016,19,Jits_Linear_5,1,5,56,103,4071104880
4016,19,Jits_Linear_5,2,5,80,127,4071115248
4016,19,Jits_Linear_5,3,5,63,98,4071184692
4016,19,Jits_Linear_5,0,1,48,68,4071611724
4016,19,Jits_Linear_5,1,5,56,103,4071644604
4016,19,Jits_Linear_5,2,5,63,98,4071664988
4016,19,Jits_Linear_5,3,5,80,127,4071725288
4016,19,Jits_Linear_5,0,1,48,74,4072125952
4016,19,Jits_Linear_5,1,5,80,127,4072175152
4016,19,Jits_Linear_5,2,5,63,98,4072244452
4016,19,Jits_Linear_5,3,5,56,103,4072265356
4016,19,Jits_Linear_5,0,1,48,66,4072695872
4016,19,Jits_Linear_5,1,5,80,127,4072735228
4016,19,Jits_Linear_5,2,5,56,103,4072745276
4016,19,Jits_Linear_5,3,5,63,98,4072754500
4016,19,Jits_Linear_5,0,1,48,60,4073220868
4016,19,Jits_Linear_5,1,5,80,127,4073264364
4016,19,Jits_Linear_5,2,5,56,103,4073285120
4016,19,Jits_Linear_5,3,5,63,98,4073354492
4016,19,Jits_Linear_5,0,1,48,63,4073750680
4016,19,Jits_Linear_5,1,5,56,103,4073815372
4016,19,Jits_Linear_5,2,5,80,127,4073845344
4016,19,Jits_Linear_5,3,5,63,98,4073864524
4016,19,Jits_Linear_5,0,1,48,75,4074291048
4016,19,Jits_Linear_5,1,5,63,98,4074355068
4016,19,Jits_Linear_5,2,5,56,103,4074414404
4016,19,Jits_Linear_5,3,5,80,127,4074445372
4016,19,Jits_Linear_5,0,1,48,72,4074841464
4016,19,Jits_Linear_5,1,5,63,98,4074894616
4016,19,Jits_Linear_5,2,5,80,127,4074898132
4016,19,Jits_Linear_5,3,5,56,103,4074984692
4016,19,Jits_Linear_5,0,1,48,71,4075376888
4016,19,Jits_Linear_5,1,5,56,103,4075465176
4016,19,Jits_Linear_5,2,5,63,98,4075494788
4016,19,Jits_Linear_5,3,5,80,127,4075534656
4016,19,Jits_Linear_5,0,1,48,73,4075907740
4016,19,Jits_Linear_5,1,5,63,98,4076015148
4016,19,Jits_Linear_5,2,5,56,103,4076054864
4016,19,Jits_Linear_5,3,5,80,127,4076075324
4016,19,Jits_Linear_5,0,1,48,64,4076435080
4016,19,Jits_Linear_5,1,5,63,98,4076575076
4016,19,Jits_Linear_5,2,5,56,103,4076615316
4016,19,Jits_Linear_5,3,5,80,127,4076625288
4016,19,Jits_Linear_5,0,1,48,68,4076958216
4016,19,Jits_Linear_5,1,5,80,127,4077104440
4016,19,Jits_Linear_5,2,5,63,98,4077175100
4016,19,Jits_Linear_5,3,5,56,103,4077194660
4016,19,Jits_Linear_5,0,1,48,66,4077484884
4016,19,Jits_Linear_5,1,5,56,103,4077655376
4016,19,Jits_Linear_5,2,5,80,127,4077675012
4016,19,Jits_Linear_5,3,5,63,98,4077714652
4016,19,Jits_Linear_5,0,1,48,58,4078021044
4016,19,Jits_Linear_5,1,5,63,98,4078225036
4016,19,Jits_Linear_5,2,5,80,127,4078245272
4016,19,Jits_Linear_5,3,5,56,103,4078285312
4016,19,Jits_Linear_5,0,1,48,59,4078604152
4016,19,Jits_Linear_5,1,5,63,98,4078784960
4016,19,Jits_Linear_5,2,5,56,103,4078805444
4016,19,Jits_Linear_5,3,5,80,127,4078814448
4016,19,Jits_Linear_5,0,1,48,56,4079218468
4016,19,Jits_Linear_5,1,5,80,127,4079345132
4016,19,Jits_Linear_5,2,5,56,103,4079364396
4016,19,Jits_Linear_5,3,5,63,98,4079395192
4016,19,Jits_Linear_5,0,1,48,61,4079895380
4016,19,Jits_Linear_5,1,5,56,103,4079985088
4016,19,Jits_Linear_5,2,5,80,127,4079988008
4016,19,Jits_Linear_5,3,5,63,98,4080004340
4016,19,Jits_Linear_5,0,5,63,98,4080474368
4016,19,Jits_Linear_5,1,5,56,103,4080505092
4016,19,Jits_Linear_5,2,1,48,61,4080547172
4016,19,Jits_Linear_5,3,5,80,127,4080564576
4016,19,Jits_Linear_5,0,1,48,68,4081122008
4016,19,Jits_Linear_5,1,5,63,98,4081124668
4016,19,Jits_Linear_5,2,5,56,103,4081135092
4016,19,Jits_Linear_5,3,5,80,127,4081145140
4016,19,Jits_Linear_5,0,5,56,103,4081645120
4016,19,Jits_Linear_5,1,5,80,127,4081674576
4016,19,Jits_Linear_5,2,5,63,98,4081685068
4016,19,Jits_Linear_5,3,1,48,79,4081733516
4016,19,Jits_Linear_5,0,5,63,98,4082255336
4016,19,Jits_Linear_5,1,5,56,103,4082264412
4016,19,Jits_Linear_5,2,5,80,127,4082285168
4016,19,Jits_Linear_5,3,1,48,66,4082293092
4016,19,Jits_Linear_5,0,5,56,103,4082755028
4016,19,Jits_Linear_5,1,5,63,98,4082815272
4016,19,Jits_Linear_5,2,5,80,127,4082818860
4016,19,Jits_Linear_5,3,1,48,74,4082861756
4016,19,Jits_Linear_5,0,5,80,127,4083355040
4016,19,Jits_Linear_5,1,5,56,103,4083365388
4016,19,Jits_Linear_5,2,1,48,67,4083429212
4016,19,Jits_Linear_5,3,5,63,98,4083434792
4016,19,Jits_Linear_5,0,5,80,127,4083925348
4016,19,Jits_Linear_5,1,5,56,103,4083994884
4016,19,Jits_Linear_5,2,1,48,56,4084000544
4016,19,Jits_Linear_5,3,5,63,98,4084005372
4016,19,Jits_Linear_5,0,5,63,98,4084545152
4016,19,Jits_Linear_5,1,5,56,103,4084555052
4016,19,Jits_Linear_5,2,5,80,127,4084574464
4016,19,Jits_Linear_5,3,1,48,59,4084593848
4016,19,Jits_Linear_5,0,5,80,127,4085075332
4016,19,Jits_Linear_5,1,5,63,98,4085135052
4016,19,Jits_Linear_5,2,1,48,61,4085173104
4016,19,Jits_Linear_5,3,5,56,103,4085175060
4016,19,Jits_Linear_5,0,5,56,103,4085705028
4016,19,Jits_Linear_5,1,5,63,98,4085715224
4016,19,Jits_Linear_5,2,5,80,127,4085755164
4016,19,Jits_Linear_5,3,1,48,59,4085783836
4016,19,Jits_Linear_5,0,5,56,103,4086254928
4016,19,Jits_Linear_5,1,5,80,127,4086284828
4016,19,Jits_Linear_5,2,1,48,62,4086315224
4016,19,Jits_Linear_5,3,5,63,98,4086334800
4016,19,Jits_Linear_5,0,1,48,60,4086872980
4016,19,Jits_Linear_5,1,5,56,103,4086884692
4016,19,Jits_Linear_5,2,5,63,98,4086924704
4016,19,Jits_Linear_5,3,5,80,127,4086928068
4016,19,Jits_Linear_5,0,1,48,47,4087471772
4016,19,Jits_Linear_5,1,5,56,103,4087474432
4016,19,Jits_Linear_5,2,5,63,98,4087484928
4016,19,Jits_Linear_5,3,5,80,127,4087505260
4016,19,Jits_Linear_5,0,5,56,103,4088024424
4016,19,Jits_Linear_5,1,5,80,127,4088027416
4016,19,Jits_Linear_5,2,5,63,98,4088065336
4016,19,Jits_Linear_5,3,1,48,51,4088066600
4016,19,Jits_Linear_5,0,1,48,61,4088612032
4016,19,Jits_Linear_5,1,5,63,98,4088664440
4016,19,Jits_Linear_5,2,5,56,103,4088695088
4016,19,Jits_Linear_5,3,5,80,127,4088714708
4016,19,Jits_Linear_5,0,1,48,66,4089208152
4016,19,Jits_Linear_5,1,5,80,127,4089234928
4016,19,Jits_Linear_5,2,5,56,103,4089244976
4016,19,Jits_Linear_5,3,5,63,98,4089255172
4016,19,Jits_Linear_5,0,1,48,62,4089790240
4016,19,Jits_Linear_5,1,5,56,103,4089834956
4016,19,Jits_Linear_5,2,5,80,127,4089874900
4016,19,Jits_Linear_5,3,5,63,98,4089904784
4016,19,Jits_Linear_5,0,1,48,73,4090405272
4016,19,Jits_Linear_5,1,5,63,98,4090445156
4016,19,Jits_Linear_5,2,5,80,127,4090455356
4016,19,Jits_Linear_5,3,5,56,103,4090464800
4016,19,Jits_Linear_5,0,5,56,103,4091024788
4016,19,Jits_Linear_5,1,1,48,71,4091027232
4016,19,Jits_Linear_5,2,5,63,98,4091095540
4016,19,Jits_Linear_5,3,5,80,127,4091104836
4016,19,Jits_Linear_5,0,1,48,69,4091625484
4016,19,Jits_Linear_5,1,5,80,127,4091634948
4016,19,Jits_Linear_5,2,5,56,103,4091645292
4016,19,Jits_Linear_5,3,5,63,98,4091694596
4016,19,Jits_Linear_5,0,1,48,56,4092241208
4016,19,Jits_Linear_5,1,5,80,127,4092254504
4016,19,Jits_Linear_5,2,5,56,103,4092315124
4016,19,Jits_Linear_5,3,5,63,98,4092344708
4016,19,Jits_Linear_5,0,1,48,65,4092854864
4016,19,Jits_Linear_5,1,5,56,103,4092864772
4016,19,Jits_Linear_5,2,5,80,127,4092867844
4016,19,Jits_Linear_5,3,5,63,98,4092904744
4016,19,Jits_Linear_5,0,1,48,70,4093406932
4016,19,Jits_Linear_5,1,5,56,103,4093504872
4016,19,Jits_Linear_5,2,5,63,98,4093534624
4016,19,Jits_Linear_5,3,5,80,127,4093544820
4016,19,Jits_Linear_5,0,1,48,64,4094037364
4016,19,Jits_Linear_5,1,5,63,98,4094125280
4016,19,Jits_Linear_5,2,5,80,127,4094134564
4016,19,Jits_Linear_5,3,5,56,103,4094144984
4016,19,Jits_Linear_5,0,1,48,57,4094663304
4016,19,Jits_Linear_5,1,5,80,127,4094684632
4016,19,Jits_Linear_5,2,5,56,103,4094734684
4016,19,Jits_Linear_5,3,5,63,98,4094737752
4016,19,Jits_Linear_5,0,1,48,56,4095276432
4016,19,Jits_Linear_5,1,5,56,103,4095334752
4016,19,Jits_Linear_5,2,5,80,127,4095355284
4016,19,Jits_Linear_5,3,5,63,98,4095364584
4016,19,Jits_Linear_5,0,1,48,64,4095867892
4016,19,Jits_Linear_5,1,5,63,98,4095934760
4016,19,Jits_Linear_5,2,5,56,103,4095964612
4016,19,Jits_Linear_5,3,5,80,127,4095985132
4016,19,Jits_Linear_5,0,1,48,51,4096479768
4016,19,Jits_Linear_5,1,5,56,103,4096564692
4016,19,Jits_Linear_5,2,5,80,127,4096574812
4016,19,Jits_Linear_5,3,5,63,98,4096644552
4016,19,Jits_Linear_5,0,1,48,59,4097133580
4016,19,Jits_Linear_5,1,5,63,98,4097174884
4016,19,Jits_Linear_5,2,5,80,127,4097214824
4016,19,Jits_Linear_5,3,5,56,103,4097254700
4016,19,Jits_Linear_5,0,1,48,56,4097773464
4016,19,Jits_Linear_5,1,5,56,103,4097814848
4016,19,Jits_Linear_5,2,5,63,98,4097825044
4016,19,Jits_Linear_5,3,5,80,127,4097844532
4016,19,Jits_Linear_5,0,1,48,69,4098405832
4016,19,Jits_Linear_5,1,5,63,98,4098484604
4016,19,Jits_Linear_5,2,5,80,127,4098505076
4016,19,Jits_Linear_5,3,5,56,103,4098524488
4016,19,Jits_Linear_5,0,5,56,103,4099054900
4016,19,Jits_Linear_5,1,1,48,37,4099057420
4016,19,Jits_Linear_5,2,5,80,127,4099134768
4016,19,Jits_Linear_5,3,5,63,98,4099145040
4016,19,Jits_Linear_5,0,1,48,64,4099664932
4016,19,Jits_Linear_5,1,5,80,127,4099724596
4016,19,Jits_Linear_5,2,5,63,98,4099734792
4016,19,Jits_Linear_5,3,5,56,103,4099764528
4016,19,Jits_Linear_5,0,5,63,98,4100314592
4016,19,Jits_Linear_5,1,1,48,54,4100317488
4016,19,Jits_Linear_5,2,5,80,127,4100354528
4016,19,Jits_Linear_5,3,5,56,103,4100414772
4016,19,Jits_Linear_5,0,1,48,51,4100927752
4016,19,Jits_Linear_5,1,5,63,98,4100954600
4016,19,Jits_Linear_5,2,5,56,103,4101004584
4016,19,Jits_Linear_5,3,5,80,127,4101035664
4016,19,Jits_Linear_5,0,1,48,62,4101514268
4016,19,Jits_Linear_5,1,5,80,127,4101604600
4016,19,Jits_Linear_5,2,5,63,98,4101614856
4016,19,Jits_Linear_5,3,5,56,103,4101684464
4016,19,Jits_Linear_5,0,1,48,59,4102124480
4016,19,Jits_Linear_5,1,5,80,127,4102315548
4016,19,Jits_Linear_5,2,5,56,103,4102324468
4016,19,Jits_Linear_5,3,5,63,98,4102327692
4016,19,Jits_Linear_5,0,1,48,55,4102731212
4016,19,Jits_Linear_5,1,5,56,103,4102894820
4016,19,Jits_Linear_5,2,5,80,127,4102914456
4016,19,Jits_Linear_5,3,5,63,98,4102924728
4016,19,Jits_Linear_5,0,1,48,46,4103447980
4016,19,Jits_Linear_5,1,5,63,98,4103545396
4016,19,Jits_Linear_5,2,5,56,103,4103585336
4016,19,Jits_Linear_5,3,5,80,127,4103604600
4016,19,Jits_Linear_5,0,1,48,50,4104144368
4016,19,Jits_Linear_5,1,5,63,98,4104194368
4016,19,Jits_Linear_5,2,5,56,103,4104254892
4016,19,Jits_Linear_5,3,5,80,127,4104257812
4016,19,Jits_Linear_5,0,5,56,103,4104804712
4016,19,Jits_Linear_5,1,5,80,127,4104825468
4016,19,Jits_Linear_5,2,1,48,65,4104832272
4016,19,Jits_Linear_5,3,5,63,98,4104865328
4016,19,Jits_Linear_5,0,1,48,67,4105481436
4016,19,Jits_Linear_5,1,5,56,103,4105484544
4016,19,Jits_Linear_5,2,5,63,98,4105505300
4016,19,Jits_Linear_5,3,5,80,127,4105515348
4016,19,Jits_Linear_5,0,5,80,127,4106105376
4016,19,Jits_Linear_5,1,1,48,67,4106121076
4016,19,Jits_Linear_5,2,5,56,103,4106134900
4016,19,Jits_Linear_5,3,5,63,98,4106174688
4016,19,Jits_Linear_5,0,5,80,127,4106764688
4016,19,Jits_Linear_5,1,5,56,103,4106785220
4016,19,Jits_Linear_5,2,1,48,56,4106792600
4016,19,Jits_Linear_5,3,5,63,98,4106844484
4016,19,Jits_Linear_5,0,1,48,63,4107418916
4016,19,Jits_Linear_5,1,5,56,103,4107425088
4016,19,Jits_Linear_5,2,5,80,127,4107444576
4016,19,Jits_Linear_5,3,5,63,98,4107505216
4016,19,Jits_Linear_5,0,5,80,127,4108065132
4016,19,Jits_Linear_5,1,5,56,103,4108075256
4016,19,Jits_Linear_5,2,1,48,55,4108090880
4016,19,Jits_Linear_5,3,5,63,98,4108115260
4016,19,Jits_Linear_5,0,1,48,65,4108720252
4016,19,Jits_Linear_5,1,5,63,98,4108724556
4016,19,Jits_Linear_5,2,5,56,103,4108764668
4016,19,Jits_Linear_5,3,5,80,127,4108767664
4016,19,Jits_Linear_5,0,1,48,62,4109358556
4016,19,Jits_Linear_5,1,5,63,98,4109404520
4016,19,Jits_Linear_5,2,5,80,127,4109444460
4016,19,Jits_Linear_5,3,5,56,103,4109475168
4016,19,Jits_Linear_5,0,1,48,67,4110033588
4016,19,Jits_Linear_5,1,5,56,103,4110054888
4016,19,Jits_Linear_5,2,5,63,98,4110065160
4016,19,Jits_Linear_5,3,5,80,127,4110094760
4016,19,Jits_Linear_5,0,1,48,65,4110691192
4016,19,Jits_Linear_5,1,5,80,127,4110715204
4016,19,Jits_Linear_5,2,5,63,98,4110784816
4016,19,Jits_Linear_5,3,5,56,103,4110795320
4016,19,Jits_Linear_5,0,5,63,98,4111385144
4016,19,Jits_Linear_5,1,1,48,61,4111398156
4016,19,Jits_Linear_5,2,5,56,103,4111454524
4016,19,Jits_Linear_5,3,5,80,127,4111464796
4016,19,Jits_Linear_5,0,5,63,98,4112054680
4016,19,Jits_Linear_5,1,5,56,103,4112075240
4016,19,Jits_Linear_5,2,1,48,59,4112093204
4016,19,Jits_Linear_5,3,5,80,127,4112115248
4016,19,Jits_Linear_5,0,1,48,64,4112712896
4016,19,Jits_Linear_5,1,5,56,103,4112734568
4016,19,Jits_Linear_5,2,5,63,98,4112744764
4016,19,Jits_Linear_5,3,5,80,127,4112824696
4016,19,Jits_Linear_5,0,1,48,54,4113377268
4016,19,Jits_Linear_5,1,5,63,98,4113395132
4016,19,Jits_Linear_5,2,5,56,103,4113424960
4016,19,Jits_Linear_5,3,5,80,127,4113464824
4016,19,Jits_Linear_5,0,1,48,63,4114039532
4016,19,Jits_Linear_5,1,5,56,103,4114064888
4016,19,Jits_Linear_5,2,5,63,98,4114104756
4016,19,Jits_Linear_5,3,5,80,127,4114144556
4016,19,Jits_Linear_5,0,1,48,57,4114733748
4016,19,Jits_Linear_5,1,5,80,127,4114744784
4016,19,Jits_Linear_5,2,5,56,103,4114824584
4016,19,Jits_Linear_5,3,5,63,98,4114834912
4016,19,Jits_Linear_5,0,1,48,50,4115446984
4016,19,Jits_Linear_5,1,5,56,103,4115464464
4016,19,Jits_Linear_5,2,5,63,98,4115467536
4016,19,Jits_Linear_5,3,5,80,127,4115475112
4016,19,Jits_Linear_5,0,1,48,48,4116126620
4016,19,Jits_Linear_5,1,5,56,103,4116165084
4016,19,Jits_Linear_5,2,5,63,98,4116184448
4016,19,Jits_Linear_5,3,5,80,127,4116194644
4016,19,Jits_Linear_5,0,1,48,64,4116755800
4016,19,Jits_Linear_5,1,5,63,98,4116805124
4016,19,Jits_Linear_5,2,5,80,127,4116815172
4016,19,Jits_Linear_5,3,5,56,103,4116834956
4016,19,Jits_Linear_5,0,1,48,63,4117408992
4016,19,Jits_Linear_5,1,5,63,98,4117495212
4016,19,Jits_Linear_5,2,5,56,103,4117574992
4016,19,Jits_Linear_5,3,5,80,127,4117578060
4016,19,Jits_Linear_5,0,1,48,59,4118140204
4016,19,Jits_Linear_5,1,5,63,98,4118185264
4016,19,Jits_Linear_5,2,5,56,103,4118204904
4016,19,Jits_Linear_5,3,5,80,127,4118234380
4016,19,Jits_Linear_5,0,1,48,58,4118821144
4016,19,Jits_Linear_5,1,5,56,103,4118874380
4016,19,Jits_Linear_5,2,5,63,98,4118895064
4016,19,Jits_Linear_5,3,5,80,127,4118905108
4016,19,Jits_Linear_5,0,1,48,58,4119523904
4016,19,Jits_Linear_5,1,5,56,103,4119595332
4016,19,Jits_Linear_5,2,5,63,98,4119625140
4016,19,Jits_Linear_5,3,5,80,127,4119628208
4016,19,Jits_Linear_5,0,1,48,57,4120209304
4016,19,Jits_Linear_5,1,5,56,103,4120235260
4016,19,Jits_Linear_5,2,5,63,98,4120275376
4016,19,Jits_Linear_5,3,5,80,127,4120334708
4016,19,Jits_Linear_5,0,1,48,55,4120910628
4016,19,Jits_Linear_5,1,5,56,103,4120944980
4016,19,Jits_Linear_5,2,5,63,98,4120955176
4016,19,Jits_Linear_5,3,5,80,127,4121014728
4016,19,Jits_Linear_5,0,1,48,51,4121550892
4016,19,Jits_Linear_5,1,5,56,103,4121645388
4016,19,Jits_Linear_5,2,5,80,127,4121664876
4016,19,Jits_Linear_5,3,5,63,98,4121694700
4016,19,Jits_Linear_5,0,1,48,56,4122257812
4016,19,Jits_Linear_5,1,5,80,127,4122344852
4016,19,Jits_Linear_5,2,5,56,103,4122356452
4016,19,Jits_Linear_5,3,5,63,98,4122374448
4016,19,Jits_Linear_5,0,1,48,51,4123002428
4016,19,Jits_Linear_5,1,5,63,98,4123034984
4016,19,Jits_Linear_5,2,5,80,127,4123114944
4016,19,Jits_Linear_5,3,5,56,103,4123125212
4016,19,Jits_Linear_5,0,1,48,55,4123716576
4016,19,Jits_Linear_5,1,5,80,127,4123794680
4016,19,Jits_Linear_5,2,5,56,103,4123815348
4016,19,Jits_Linear_5,3,5,63,98,4123818636
4016,19,Jits_Linear_5,0,1,48,63,4124360728
4016,19,Jits_Linear_5,1,5,63,98,4124474704
4016,19,Jits_Linear_5,2,5,80,127,4124477920
4016,19,Jits_Linear_5,3,5,56,103,4124535020
4016,19,Jits_Linear_5,0,1,48,54,4125105408
4016,19,Jits_Linear_5,1,5,56,103,4125165020
4016,19,Jits_Linear_5,2,5,80,127,4125175144
4016,19,Jits_Linear_5,3,5,63,98,4125215144
4016,19,Jits_Linear_5,0,1,48,49,4125796088
4016,19,Jits_Linear_5,1,5,56,103,4125855080
4016,19,Jits_Linear_5,2,5,63,98,4125914664
4016,19,Jits_Linear_5,3,5,80,127,4125924784
4016,19,Jits_Linear_5,0,1,48,56,4126483032
4016,19,Jits_Linear_5,1,5,63,98,4126575720
4016,19,Jits_Linear_5,2,5,80,127,4126614988
4016,19,Jits_Linear_5,3,5,56,103,4126654704
4016,19,Jits_Linear_5,0,1,48,54,4127149332
4016,19,Jits_Linear_5,1,5,56,103,4127284612
4016,19,Jits_Linear_5,2,5,63,98,4127364560
4016,19,Jits_Linear_5,3,5,80,127,4127367852
4016,19,Jits_Linear_5,0,1,48,51,4127815068
4016,19,Jits_Linear_5,1,5,80,127,4128054640
4016,19,Jits_Linear_5,2,5,56,103,4128085208
4016,19,Jits_Linear_5,3,5,63,98,4128088428
4016,19,Jits_Linear_5,0,1,48,54,4128565164
4016,19,Jits_Linear_5,1,5,56,103,4128734756
4016,19,Jits_Linear_5,2,5,80,127,4128755140
4016,19,Jits_Linear_5,3,5,63,98,4128794932
4016,19,Jits_Linear_5,0,1,48,47,4129282304
4016,19,Jits_Linear_5,1,5,80,127,4129434932
4016,19,Jits_Linear_5,2,5,63,98,4129454568
4016,19,Jits_Linear_5,3,5,56,103,4129514840
4016,19,Jits_Linear_5,0,1,48,46,4130157292
4016,19,Jits_Linear_5,1,5,63,98,4130165040
4016,19,Jits_Linear_5,2,5,56,103,4130175608
4016,19,Jits_Linear_5,3,5,80,127,4130224464
4016,19,Jits_Linear_5,0,1,48,46,4130835092
4016,19,Jits_Linear_5,1,5,56,103,4130874828
4016,19,Jits_Linear_5,2,5,63,98,4130895212
4016,19,Jits_Linear_5,3,5,80,127,4130904584
4016,19,Jits_Linear_5,0,1,48,54,4131525972
4016,19,Jits_Linear_5,1,5,56,103,4131594628
4016,19,Jits_Linear_5,2,5,63,98,4131597692
4016,19,Jits_Linear_5,3,5,80,127,4131615012
4016,19,Jits_Linear_5,0,1,48,51,4132213692
4016,19,Jits_Linear_5,1,5,63,98,4132364552
4016,19,Jits_Linear_5,2,5,56,103,4132395648
4016,19,Jits_Linear_5,3,5,80,127,4132425252
4016,19,Jits_Linear_5,0,1,48,48,4132960184
4016,19,Jits_Linear_5,1,5,80,127,4133054704
4016,19,Jits_Linear_5,2,5,56,103,4133145000
4016,19,Jits_Linear_5,3,5,63,98,4133147992
4016,19,Jits_Linear_5,0,5,56,103,4133785088
4016,19,Jits_Linear_5,1,5,80,127,4133788004
4016,19,Jits_Linear_5,2,5,63,98,4133864688
4016,19,Jits_Linear_5,3,1,48,54,4133898372
4016,19,Jits_Linear_5,0,5,80,127,4134515040
4016,19,Jits_Linear_5,1,5,63,98,4134574312
4016,19,Jits_Linear_5,2,5,56,103,4134605132
4016,19,Jits_Linear_5,3,1,48,57,4134615896
4016,19,Jits_Linear_5,0,5,63,98,4135245596
4016,19,Jits_Linear_5,1,5,80,127,4135255348
4016,19,Jits_Linear_5,2,5,56,103,4135325252
4016,19,Jits_Linear_5,3,1,48,48,4135390872
4016,19,Jits_Linear_5,0,1,48,48,4135966744
4016,19,Jits_Linear_5,1,5,56,103,4135994864
4016,19,Jits_Linear_5,2,5,80,127,4136024540
4016,19,Jits_Linear_5,3,5,63,98,4136074656
4016,19,Jits_Linear_5,0,1,48,56,4136693392
4016,19,Jits_Linear_5,1,5,63,98,4136775232
4016,19,Jits_Linear_5,2,5,56,103,4136804668
4016,19,Jits_Linear_5,3,5,80,127,4136807736
4016,19,Jits_Linear_5,0,1,48,48,4137479064
4016,19,Jits_Linear_5,1,5,63,98,4137515360
4016,19,Jits_Linear_5,2,5,80,127,4137534848
4016,19,Jits_Linear_5,3,5,56,103,4137545192
4016,19,Jits_Linear_5,0,1,48,43,4138252084
4016,19,Jits_Linear_5,1,5,56,103,4138264936
4016,19,Jits_Linear_5,2,5,63,98,4138268076
4016,19,Jits_Linear_5,3,5,80,127,4138285540
4016,19,Jits_Linear_5,0,1,48,46,4138937652
4016,19,Jits_Linear_5,1,5,56,103,4138965352
4016,19,Jits_Linear_5,2,5,63,98,4138974724
4016,19,Jits_Linear_5,3,5,80,127,4139005448
4016,19,Jits_Linear_5,0,1,48,49,4139665268
4016,19,Jits_Linear_5,1,5,63,98,4139735448
4016,19,Jits_Linear_5,2,5,80,127,4139754864
4016,19,Jits_Linear_5,3,5,56,103,4139794860
4016,19,Jits_Linear_5,0,1,48,54,4140452992
4016,19,Jits_Linear_5,1,5,56,103,4140514552
4016,19,Jits_Linear_5,2,5,63,98,4140554468
4016,19,Jits_Linear_5,3,5,80,127,4140557764
4016,19,Jits_Linear_5,0,5,80,127,4141204760
4016,19,Jits_Linear_5,1,5,56,103,4141244700
4016,19,Jits_Linear_5,2,1,48,52,4141257284
4016,19,Jits_Linear_5,3,5,63,98,4141294920
4016,19,Jits_Linear_5,0,1,48,40,4141932348
4016,19,Jits_Linear_5,1,5,56,103,4142014956
4016,19,Jits_Linear_5,2,5,80,127,4142025328
4016,19,Jits_Linear_5,3,5,63,98,4142054912
4016,19,Jits_Linear_5,0,1,48,55,4142695580
4016,19,Jits_Linear_5,1,5,56,103,4142715456
4016,19,Jits_Linear_5,2,5,80,127,4142755324
4016,19,Jits_Linear_5,3,5,63,98,4142805388
4016,19,Jits_Linear_5,0,1,48,30,4143443652
4016,19,Jits_Linear_5,1,5,56,103,4143475144
4016,19,Jits_Linear_5,2,5,80,127,4143515088
4016,19,Jits_Linear_5,3,5,63,98,4143565152
4016,19,Jits_Linear_5,0,1,48,41,4144209328
4016,19,Jits_Linear_5,1,5,80,127,4144224644
4016,19,Jits_Linear_5,2,5,63,98,4144304432
4016,19,Jits_Linear_5,3,5,56,103,4144314700
4016,19,Jits_Linear_5,0,1,48,42,4144911396
4016,19,Jits_Linear_5,1,5,80,127,4145034596
4016,19,Jits_Linear_5,2,5,56,103,4145044940
4016,19,Jits_Linear_5,3,5,63,98,4145065324
4016,19,Jits_Linear_5,0,1,48,50,4145693052
4016,19,Jits_Linear_5,1,5,63,98,4145764776
4016,19,Jits_Linear_5,2,5,56,103,4145835420
4016,19,Jits_Linear_5,3,5,80,127,4145838560
4016,19,Jits_Linear_5,0,1,48,59,4146433108
4016,19,Jits_Linear_5,1,5,80,127,4146524460
4016,19,Jits_Linear_5,2,5,63,98,4146574724
4016,19,Jits_Linear_5,3,5,56,103,4146614588
4016,19,Jits_Linear_5,0,5,63,98,4147334504
4016,19,Jits_Linear_5,1,1,48,51,4147367972
4016,19,Jits_Linear_5,2,5,56,103,4147374516
4016,19,Jits_Linear_5,3,5,80,127,4147384636
4016,19,Jits_Linear_5,0,1,48,57,4148086972
4016,19,Jits_Linear_5,1,5,63,98,4148095312
4016,19,Jits_Linear_5,2,5,56,103,4148115172
4016,19,Jits_Linear_5,3,5,80,127,4148135260
4016,19,Jits_Linear_5,0,1,48,57,4148776752
4016,19,Jits_Linear_5,1,5,80,127,4148824360
4016,19,Jits_Linear_5,2,5,56,103,4148834704
4016,19,Jits_Linear_5,3,5,63,98,4148855240
4016,19,Jits_Linear_5,0,1,48,61,4149475900
4016,19,Jits_Linear_5,1,5,63,98,4149625160
4016,19,Jits_Linear_5,2,5,56,103,4149665176
4016,19,Jits_Linear_5,3,5,80,127,4149695152
4016,19,Jits_Linear_5,0,1,48,55,4150285864
4016,19,Jits_Linear_5,1,5,56,103,4150404336
4016,19,Jits_Linear_5,2,5,63,98,4150435136
4016,19,Jits_Linear_5,3,5,80,127,4150465036
4016,19,Jits_Linear_5,0,5,80,127,4151155128
4016,19,Jits_Linear_5,1,5,56,103,4151224968
4016,19,Jits_Linear_5,2,1,48,55,4151227804
4016,19,Jits_Linear_5,3,5,63,98,4151229520
4016,19,Jits_Linear_5,0,5,56,103,4151944496
4016,19,Jits_Linear_5,1,1,48,54,4151961392
4016,19,Jits_Linear_5,2,5,63,98,4151994916
4016,19,Jits_Linear_5,3,5,80,127,4152024396
4016,19,Jits_Linear_5,0,1,48,62,4152665880
4016,19,Jits_Linear_5,1,5,63,98,4152714756
4016,19,Jits_Linear_5,2,5,80,127,4152717896
4016,19,Jits_Linear_5,3,5,56,103,4152775084
4016,19,Jits_Linear_5,0,1,48,58,4153448028
4016,19,Jits_Linear_5,1,5,56,103,4153524704
4016,19,Jits_Linear_5,2,5,80,127,4153534828
4016,19,Jits_Linear_5,3,5,63,98,4153584892
4016,19,Jits_Linear_5,0,1,48,58,4154157068
4016,19,Jits_Linear_5,1,5,63,98,4154285572
4016,19,Jits_Linear_5,2,5,56,103,4154294724
4016,19,Jits_Linear_5,3,5,80,127,4154325620
4016,19,Jits_Linear_5,0,1,48,53,4154961024
4016,19,Jits_Linear_5,1,5,63,98,4155104772
4016,19,Jits_Linear_5,2,5,80,127,4155108208
4016,19,Jits_Linear_5,3,5,56,103,4155135272
4016,19,Jits_Linear_5,0,1,48,42,4155748200
4016,19,Jits_Linear_5,1,5,63,98,4155914876
4016,19,Jits_Linear_5,2,5,56,103,4155934956
4016,19,Jits_Linear_5,3,5,80,127,4155938104
4016,19,Jits_Linear_5,0,5,63,98,4156665060
4016,19,Jits_Linear_5,1,5,56,103,4156734820
4016,19,Jits_Linear_5,2,1,48,46,4156736908
4016,19,Jits_Linear_5,3,5,80,127,4156755348
4016,19,Jits_Linear_5,0,5,56,103,4157444604
4016,19,Jits_Linear_5,1,5,63,98,4157454728
4016,19,Jits_Linear_5,2,1,48,51,4157482632
4016,19,Jits_Linear_5,3,5,80,127,4157544780
4016,19,Jits_Linear_5,0,5,56,103,4158254496
4016,19,Jits_Linear_5,1,1,48,50,4158271388
4016,19,Jits_Linear_5,2,5,80,127,4158295700
4016,19,Jits_Linear_5,3,5,63,98,4158304552
4016,19,Jits_Linear_5,0,1,48,56,4159006824
4016,19,Jits_Linear_5,1,5,56,103,4159074804
4016,19,Jits_Linear_5,2,5,63,98,4159105528
4016,19,Jits_Linear_5,3,5,80,127,4159135112
4016,19,Jits_Linear_5,0,1,48,39,4159830116
4016,19,Jits_Linear_5,1,5,80,127,4159834492
4016,19,Jits_Linear_5,2,5,63,98,4159874360
4016,19,Jits_Linear_5,3,5,56,103,4159894892
4016,19,Jits_Linear_5,0,1,48,46,4160660532
4016,19,Jits_Linear_5,1,5,56,103,4160675320
4016,19,Jits_Linear_5,2,5,80,127,4160694736
4016,19,Jits_Linear_5,3,5,63,98,4160715072
4016,19,Jits_Linear_5,0,1,48,65,4161433640
4016,19,Jits_Linear_5,1,5,63,98,4161445272
4016,19,Jits_Linear_5,2,5,56,103,4161454572
4016,19,Jits_Linear_5,3,5,80,127,4161514836
4016,19,Jits_Linear_5,0,1,48,49,4162228076
4016,19,Jits_Linear_5,1,5,56,103,4162255180
4016,19,Jits_Linear_5,2,5,63,98,4162324776
4016,19,Jits_Linear_5,3,5,80,127,4162345532
4016,19,Jits_Linear_5,0,5,56,103,4163065296
4016,19,Jits_Linear_5,1,5,63,98,4163094900
4016,19,Jits_Linear_5,2,1,48,70,4163114580
4016,19,Jits_Linear_5,3,5,80,127,4163134904
4016,19,Jits_Linear_5,0,5,63,98,4163864928
4016,19,Jits_Linear_5,1,5,56,103,4163915060
4016,19,Jits_Linear_5,2,5,80,127,4163925628
4016,19,Jits_Linear_5,3,1,48,81,4163937296
4016,19,Jits_Linear_5,0,5,56,103,4164714972
4016,19,Jits_Linear_5,1,1,48,68,4164757800
4016,19,Jits_Linear_5,2,5,63,98,4164764948
4016,19,Jits_Linear_5,3,5,80,127,4164775364
4016,19,Jits_Linear_5,0,5,56,103,4165495132
4016,19,Jits_Linear_5,1,5,63,98,4165505552
4016,19,Jits_Linear_5,2,5,80,127,4165585520
4016,19,Jits_Linear_5,3,1,48,75,4165586708
4016,19,Jits_Linear_5,0,9999,9999,9999,4056743000
4016,19,Jits_Linear_5,1,9999,9999,9999,4057222268
4016,19,Jits_Linear_5,2,9999,9999,9999,4057702504
4016,19,Jits_Linear_5,3,9999,9999,9999,4058182712
4016,19,Jits_Linear_5,4,9999,9999,9999,4058663000
4016,19,Jits_Linear_5,5,9999,9999,9999,4059152444
4016,19,Jits_Linear_5,6,9999,9999,9999,4059642992
4016,19,Jits_Linear_5,7,9999,9999,9999,4060132432
4016,19,Jits_Linear_5,8,9999,9999,9999,4060622920
4016,19,Jits_Linear_5,9,9999,9999,9999,4061112412
4016,19,Jits_Linear_5,10,9999,9999,9999,4061612116
4016,19,Jits_Linear_5,11,9999,9999,9999,4062112868
4016,19,Jits_Linear_5,12,9999,9999,9999,4062612556
4016,19,Jits_Linear_5,13,9999,9999,9999,4063112248
4016,19,Jits_Linear_5,14,9999,9999,9999,4063613056
4016,19,Jits_Linear_5,15,9999,9999,9999,4064122948
4016,19,Jits_Linear_5,16,9999,9999,9999,4064632900
4016,19,Jits_Linear_5,17,9999,9999,9999,4065142852
4016,19,Jits_Linear_5,18,9999,9999,9999,4065652804
4016,19,Jits_Linear_5,19,9999,9999,9999,4066162756
4016,19,Jits_Linear_5,20,9999,9999,9999,4066682976
4016,19,Jits_Linear_5,21,9999,9999,9999,4067202144
4016,19,Jits_Linear_5,22,9999,9999,9999,4067722356
4016,19,Jits_Linear_5,23,9999,9999,9999,4068242496
4016,19,Jits_Linear_5,24,9999,9999,9999,4068762712
4016,19,Jits_Linear_5,25,9999,9999,9999,4069292140
4016,19,Jits_Linear_5,26,9999,9999,9999,4069822552
4016,19,Jits_Linear_5,27,9999,9999,9999,4070352960
4016,19,Jits_Linear_5,28,9999,9999,9999,4070882396
4016,19,Jits_Linear_5,29,9999,9999,9999,4071412800
4016,19,Jits_Linear_5,30,9999,9999,9999,4071952496
4016,19,Jits_Linear_5,31,9999,9999,9999,4072492120
4016,19,Jits_Linear_5,32,9999,9999,9999,4073032784
4016,19,Jits_Linear_5,33,9999,9999,9999,4073572412
4016,19,Jits_Linear_5,34,9999,9999,9999,4074112108
4016,19,Jits_Linear_5,35,9999,9999,9999,4074662968
4016,19,Jits_Linear_5,36,9999,9999,9999,4075212872
4016,19,Jits_Linear_5,37,9999,9999,9999,4075762760
4016,19,Jits_Linear_5,38,9999,9999,9999,4076312648
4016,19,Jits_Linear_5,39,9999,9999,9999,4076862536
4016,19,Jits_Linear_5,40,9999,9999,9999,4077422692
4016,19,Jits_Linear_5,41,9999,9999,9999,4077982840
4016,19,Jits_Linear_5,42,9999,9999,9999,4078542936
4016,19,Jits_Linear_5,43,9999,9999,9999,4079103084
4016,19,Jits_Linear_5,44,9999,9999,9999,4079662184
4016,19,Jits_Linear_5,45,9999,9999,9999,4080232516
4016,19,Jits_Linear_5,46,9999,9999,9999,4080802932
4016,19,Jits_Linear_5,47,9999,9999,9999,4081372256
4016,19,Jits_Linear_5,48,9999,9999,9999,4081942600
4016,19,Jits_Linear_5,49,9999,9999,9999,4082512956
4016,19,Jits_Linear_5,50,9999,9999,9999,4083092576
4016,19,Jits_Linear_5,51,9999,9999,9999,4083672172
4016,19,Jits_Linear_5,52,9999,9999,9999,4084252792
4016,19,Jits_Linear_5,53,9999,9999,9999,4084832364
4016,19,Jits_Linear_5,54,9999,9999,9999,4085412968
4016,19,Jits_Linear_5,55,9999,9999,9999,4086002804
4016,19,Jits_Linear_5,56,9999,9999,9999,4086592636
4016,19,Jits_Linear_5,57,9999,9999,9999,4087182388
4016,19,Jits_Linear_5,58,9999,9999,9999,4087772236
4016,19,Jits_Linear_5,59,9999,9999,9999,4088363092
4016,19,Jits_Linear_5,60,9999,9999,9999,4088972408
4016,19,Jits_Linear_5,61,9999,9999,9999,4089572440
4016,19,Jits_Linear_5,62,9999,9999,9999,4090172524
4016,19,Jits_Linear_5,63,9999,9999,9999,4090772604
4016,19,Jits_Linear_5,64,9999,9999,9999,4091372632
4016,19,Jits_Linear_5,65,9999,9999,9999,4091982920
4016,19,Jits_Linear_5,66,9999,9999,9999,4092592220
4016,19,Jits_Linear_5,67,9999,9999,9999,4093202504
4016,19,Jits_Linear_5,68,9999,9999,9999,4093812856
4016,19,Jits_Linear_5,69,9999,9999,9999,4094422112
4016,19,Jits_Linear_5,70,9999,9999,9999,4095042636
4016,19,Jits_Linear_5,71,9999,9999,9999,4095662200
4016,19,Jits_Linear_5,72,9999,9999,9999,4096282688
4016,19,Jits_Linear_5,73,9999,9999,9999,4096902252
4016,19,Jits_Linear_5,74,9999,9999,9999,4097522808
4016,19,Jits_Linear_5,75,9999,9999,9999,4098152556
4016,19,Jits_Linear_5,76,9999,9999,9999,4098782260
4016,19,Jits_Linear_5,77,9999,9999,9999,4099413060
4016,19,Jits_Linear_5,78,9999,9999,9999,4100042852
4016,19,Jits_Linear_5,79,9999,9999,9999,4100672604
4016,19,Jits_Linear_5,80,9999,9999,9999,4101312616
4016,19,Jits_Linear_5,81,9999,9999,9999,4101952576
4016,19,Jits_Linear_5,82,9999,9999,9999,4102592584
4016,19,Jits_Linear_5,83,9999,9999,9999,4103232620
4016,19,Jits_Linear_5,84,9999,9999,9999,4103872636
4016,19,Jits_Linear_5,85,9999,9999,9999,4104522856
4016,19,Jits_Linear_5,86,9999,9999,9999,4105173080
4016,19,Jits_Linear_5,87,9999,9999,9999,4105822324
4016,19,Jits_Linear_5,88,9999,9999,9999,4106472552
4016,19,Jits_Linear_5,89,9999,9999,9999,4107122768
4016,19,Jits_Linear_5,90,9999,9999,9999,4107782232
4016,19,Jits_Linear_5,91,9999,9999,9999,4108442692
4016,19,Jits_Linear_5,92,9999,9999,9999,4109102140
4016,19,Jits_Linear_5,93,9999,9999,9999,4109762680
4016,19,Jits_Linear_5,94,9999,9999,9999,4110422116
4016,19,Jits_Linear_5,95,9999,9999,9999,4111092800
4016,19,Jits_Linear_5,96,9999,9999,9999,4111762560
4016,19,Jits_Linear_5,97,9999,9999,9999,4112432192
4016,19,Jits_Linear_5,98,9999,9999,9999,4113102944
4016,19,Jits_Linear_5,99,9999,9999,9999,4113772624
4016,19,Jits_Linear_5,100,9999,9999,9999,4114452596
4016,19,Jits_Linear_5,101,9999,9999,9999,4115132544
4016,19,Jits_Linear_5,102,9999,9999,9999,4115812432
4016,19,Jits_Linear_5,103,9999,9999,9999,4116492408
4016,19,Jits_Linear_5,104,9999,9999,9999,4117172276
4016,19,Jits_Linear_5,105,9999,9999,9999,4117862508
4016,19,Jits_Linear_5,106,9999,9999,9999,4118552668
4016,19,Jits_Linear_5,107,9999,9999,9999,4119242824
4016,19,Jits_Linear_5,108,9999,9999,9999,4119933032
4016,19,Jits_Linear_5,109,9999,9999,9999,4120622148
4016,19,Jits_Linear_5,110,9999,9999,9999,4121322572
4016,19,Jits_Linear_5,111,9999,9999,9999,4122022968
4016,19,Jits_Linear_5,112,9999,9999,9999,4122722420
4016,19,Jits_Linear_5,113,9999,9999,9999,4123422840
4016,19,Jits_Linear_5,114,9999,9999,9999,4124122216
4016,19,Jits_Linear_5,115,9999,9999,9999,4124832872
4016,19,Jits_Linear_5,116,9999,9999,9999,4125542512
4016,19,Jits_Linear_5,117,9999,9999,9999,4126252156
4016,19,Jits_Linear_5,118,9999,9999,9999,4126962768
4016,19,Jits_Linear_5,119,9999,9999,9999,4127672380
4016,19,Jits_Linear_5,120,9999,9999,9999,4128392284
4016,19,Jits_Linear_5,121,9999,9999,9999,4129112188
4016,19,Jits_Linear_5,122,9999,9999,9999,4129833064
4016,19,Jits_Linear_5,123,9999,9999,9999,4130552892
4016,19,Jits_Linear_5,124,9999,9999,9999,4131272792
4016,19,Jits_Linear_5,125,9999,9999,9999,4132002896
4016,19,Jits_Linear_5,126,9999,9999,9999,4132732992
4016,19,Jits_Linear_5,127,9999,9999,9999,4133462104
4016,19,Jits_Linear_5,128,9999,9999,9999,4134192184
4016,19,Jits_Linear_5,129,9999,9999,9999,4134922296
4016,19,Jits_Linear_5,130,9999,9999,9999,4135662664
4016,19,Jits_Linear_5,131,9999,9999,9999,4136403024
4016,19,Jits_Linear_5,132,9999,9999,9999,4137142376
4016,19,Jits_Linear_5,133,9999,9999,9999,4137882736
4016,19,Jits_Linear_5,134,9999,9999,9999,4138623084
4016,19,Jits_Linear_5,135,9999,9999,9999,4139372656
4016,19,Jits_Linear_5,136,9999,9999,9999,4140122232
4016,19,Jits_Linear_5,137,9999,9999,9999,4140872776
4016,19,Jits_Linear_5,138,9999,9999,9999,4141622352
4016,19,Jits_Linear_5,139,9999,9999,9999,4142372992
4016,19,Jits_Linear_5,140,9999,9999,9999,4143132756
4016,19,Jits_Linear_5,141,9999,9999,9999,4143892596
4016,19,Jits_Linear_5,142,9999,9999,9999,4144652360
4016,19,Jits_Linear_5,143,9999,9999,9999,4145412200
4016,19,Jits_Linear_5,144,9999,9999,9999,4146173004
4016,19,Jits_Linear_5,145,9999,9999,9999,4146943032
4016,19,Jits_Linear_5,146,9999,9999,9999,4147712092
4016,19,Jits_Linear_5,147,9999,9999,9999,4148482120
4016,19,Jits_Linear_5,148,9999,9999,9999,4149252216
4016,19,Jits_Linear_5,149,9999,9999,9999,4150022252
4016,19,Jits_Linear_5,150,9999,9999,9999,4150802544
4016,19,Jits_Linear_5,151,9999,9999,9999,4151582828
4016,19,Jits_Linear_5,152,9999,9999,9999,4152363136
4016,19,Jits_Linear_5,153,9999,9999,9999,4153152572
4016,19,Jits_Linear_5,154,9999,9999,9999,4153932864
4016,19,Jits_Linear_5,155,9999,9999,9999,4154722364
4016,19,Jits_Linear_5,156,9999,9999,9999,4155512908
4016,19,Jits_Linear_5,157,9999,9999,9999,4156302408
4016,19,Jits_Linear_5,158,9999,9999,9999,4157092964
4016,19,Jits_Linear_5,159,9999,9999,9999,4157882472
4016,19,Jits_Linear_5,160,9999,9999,9999,4158682200
4016,19,Jits_Linear_5,161,9999,9999,9999,4159482960
4016,19,Jits_Linear_5,162,9999,9999,9999,4160282728
4016,19,Jits_Linear_5,163,9999,9999,9999,4161082432
4016,19,Jits_Linear_5,164,9999,9999,9999,4161882196
4016,19,Jits_Linear_5,165,9999,9999,9999,4162692156
4016,19,Jits_Linear_5,166,9999,9999,9999,4163502192
4016,19,Jits_Linear_5,167,9999,9999,9999,4164312188
4016,19,Jits_Linear_5,168,9999,9999,9999,4165122152
4016,19,Jits_Linear_5,169,9999,9999,9999,4165932128
4017,18,Jits_Linear_8,0,5,56,103,4175293880
4017,18,Jits_Linear_8,1,5,63,98,4175297132
4017,18,Jits_Linear_8,2,5,80,127,4175300276
4017,18,Jits_Linear_8,0,5,56,103,4176124256
4017,18,Jits_Linear_8,1,5,63,98,4176127356
4017,18,Jits_Linear_8,2,5,80,127,4176130404
4017,18,Jits_Linear_8,0,5,80,127,4176884044
4017,18,Jits_Linear_8,1,5,63,98,4176974108
4017,18,Jits_Linear_8,2,5,56,103,4176984380
4017,18,Jits_Linear_8,3,1,48,68,4177054252
4017,18,Jits_Linear_8,0,5,56,103,4177724048
4017,18,Jits_Linear_8,1,5,63,98,4177734244
4017,18,Jits_Linear_8,2,1,48,78,4177796776
4017,18,Jits_Linear_8,3,5,80,127,4177823996
4017,18,Jits_Linear_8,0,5,63,98,4178514152
4017,18,Jits_Linear_8,1,5,80,127,4178544128
4017,18,Jits_Linear_8,2,1,48,56,4178572376
4017,18,Jits_Linear_8,3,5,56,103,4178574168
4017,18,Jits_Linear_8,0,1,48,84,4179316192
4017,18,Jits_Linear_8,1,5,56,103,4179333528
4017,18,Jits_Linear_8,2,5,80,127,4179433936
4017,18,Jits_Linear_8,3,5,63,98,4179484068
4017,18,Jits_Linear_8,0,5,56,103,4180143332
4017,18,Jits_Linear_8,1,5,80,127,4180193636
4017,18,Jits_Linear_8,2,5,63,98,4180233500
4017,18,Jits_Linear_8,3,1,48,67,4180279988
4017,18,Jits_Linear_8,0,5,80,127,4180984032
4017,18,Jits_Linear_8,1,1,48,72,4181003416
4017,18,Jits_Linear_8,2,5,63,98,4181014076
4017,18,Jits_Linear_8,3,5,56,103,4181083460
4017,18,Jits_Linear_8,0,5,63,98,4181824036
4017,18,Jits_Linear_8,1,1,48,81,4181838992
4017,18,Jits_Linear_8,2,5,56,103,4181853484
4017,18,Jits_Linear_8,3,5,80,127,4181913876
4017,18,Jits_Linear_8,0,5,56,103,4182573372
4017,18,Jits_Linear_8,1,5,80,127,4182576364
4017,18,Jits_Linear_8,2,1,48,77,4182676276
4017,18,Jits_Linear_8,3,5,63,98,4182694360
4017,18,Jits_Linear_8,0,1,48,73,4183441264
4017,18,Jits_Linear_8,1,5,56,103,4183453964
4017,18,Jits_Linear_8,2,5,80,127,4183493860
4017,18,Jits_Linear_8,3,5,63,98,4183504428
4017,18,Jits_Linear_8,0,5,56,103,4184213948
4017,18,Jits_Linear_8,1,5,80,127,4184234260
4017,18,Jits_Linear_8,2,1,48,84,4184261764
4017,18,Jits_Linear_8,3,5,63,98,4184314152
4017,18,Jits_Linear_8,0,5,80,127,4185004432
4017,18,Jits_Linear_8,1,5,56,103,4185103884
4017,18,Jits_Linear_8,2,5,63,98,4185113932
4017,18,Jits_Linear_8,3,1,48,72,4185121840
4017,18,Jits_Linear_8,0,5,63,98,4185773492
4017,18,Jits_Linear_8,1,5,80,127,4185833836
4017,18,Jits_Linear_8,2,5,56,103,4185843956
4017,18,Jits_Linear_8,3,1,48,74,4185937948
4017,18,Jits_Linear_8,0,5,56,103,4186574168
4017,18,Jits_Linear_8,1,5,63,98,4186643776
4017,18,Jits_Linear_8,2,5,80,127,4186647288
4017,18,Jits_Linear_8,3,1,48,71,4186713204
4017,18,Jits_Linear_8,0,5,63,98,4187403748
4017,18,Jits_Linear_8,1,1,48,51,4187454324
4017,18,Jits_Linear_8,2,5,56,103,4187455908
4017,18,Jits_Linear_8,3,5,80,127,4187458428
4017,18,Jits_Linear_8,0,5,56,103,4188154340
4017,18,Jits_Linear_8,1,5,80,127,4188157332
4017,18,Jits_Linear_8,2,5,63,98,4188244324
4017,18,Jits_Linear_8,3,1,48,52,4188252092
4017,18,Jits_Linear_8,0,5,63,98,4188983620
4017,18,Jits_Linear_8,1,1,48,74,4189024728
4017,18,Jits_Linear_8,2,5,56,103,4189073900
4017,18,Jits_Linear_8,3,5,80,127,4189103428
4017,18,Jits_Linear_8,0,5,56,103,4189763900
4017,18,Jits_Linear_8,1,1,48,75,4189837820
4017,18,Jits_Linear_8,2,5,63,98,4189864296
4017,18,Jits_Linear_8,3,5,80,127,4189893924
4017,18,Jits_Linear_8,0,5,63,98,4190573868
4017,18,Jits_Linear_8,1,5,56,103,4190584140
4017,18,Jits_Linear_8,2,1,48,69,4190647864
4017,18,Jits_Linear_8,3,5,80,127,4190674216
4017,18,Jits_Linear_8,0,5,63,98,4191373628
4017,18,Jits_Linear_8,1,5,56,103,4191453600
4017,18,Jits_Linear_8,2,5,80,127,4191456668
4017,18,Jits_Linear_8,3,1,48,75,4191480912
4017,18,Jits_Linear_8,0,5,80,127,4192114044
4017,18,Jits_Linear_8,1,5,63,98,4192133604
4017,18,Jits_Linear_8,2,5,56,103,4192193844
4017,18,Jits_Linear_8,3,1,48,80,4192300440
4017,18,Jits_Linear_8,0,5,56,103,4192934192
4017,18,Jits_Linear_8,1,5,63,98,4192953676
4017,18,Jits_Linear_8,2,5,80,127,4192957044
4017,18,Jits_Linear_8,3,1,48,71,4193027836
4017,18,Jits_Linear_8,0,5,63,98,4193654164
4017,18,Jits_Linear_8,1,5,80,127,4193733984
4017,18,Jits_Linear_8,2,5,56,103,4193744108
4017,18,Jits_Linear_8,3,1,48,84,4193779360
4017,18,Jits_Linear_8,0,5,63,98,4194453844
4017,18,Jits_Linear_8,1,5,56,103,4194474600
4017,18,Jits_Linear_8,2,5,80,127,4194523632
4017,18,Jits_Linear_8,3,1,48,80,4194529300
4017,18,Jits_Linear_8,0,5,80,127,4195234112
4017,18,Jits_Linear_8,1,5,63,98,4195274004
4017,18,Jits_Linear_8,2,5,56,103,4195293712
4017,18,Jits_Linear_8,3,1,48,78,4195299824
4017,18,Jits_Linear_8,0,5,56,103,4196044172
4017,18,Jits_Linear_8,1,5,63,98,4196054664
4017,18,Jits_Linear_8,2,5,80,127,4196073856
4017,18,Jits_Linear_8,3,1,48,81,4196082300
4017,18,Jits_Linear_8,0,5,56,103,4196743592
4017,18,Jits_Linear_8,1,5,63,98,4196833680
4017,18,Jits_Linear_8,2,1,48,86,4196853732
4017,18,Jits_Linear_8,3,5,80,127,4196893992
4017,18,Jits_Linear_8,0,5,80,127,4197544412
4017,18,Jits_Linear_8,1,5,56,103,4197553564
4017,18,Jits_Linear_8,2,5,63,98,4197624164
4017,18,Jits_Linear_8,3,1,48,94,4197640764
4017,18,Jits_Linear_8,0,5,63,98,4198343984
4017,18,Jits_Linear_8,1,1,48,99,4198424572
4017,18,Jits_Linear_8,2,5,80,127,4198434040
4017,18,Jits_Linear_8,3,5,56,103,4198444536
4017,18,Jits_Linear_8,0,5,63,98,4199053740
4017,18,Jits_Linear_8,1,5,80,127,4199103944
4017,18,Jits_Linear_8,2,5,56,103,4199164408
4017,18,Jits_Linear_8,3,1,48,79,4199217200
4017,18,Jits_Linear_8,0,5,56,103,4199844400
4017,18,Jits_Linear_8,1,5,80,127,4199894632
4017,18,Jits_Linear_8,2,5,63,98,4199913820
4017,18,Jits_Linear_8,3,1,48,67,4199930640
4017,18,Jits_Linear_8,4,1,38,17,4199940584
4017,18,Jits_Linear_8,0,5,56,103,4200574584
4017,18,Jits_Linear_8,1,5,80,127,4200633784
4017,18,Jits_Linear_8,2,1,48,98,4200677228
4017,18,Jits_Linear_8,3,5,63,98,4200704304
4017,18,Jits_Linear_8,0,5,56,103,4201334120
4017,18,Jits_Linear_8,1,5,80,127,4201363720
4017,18,Jits_Linear_8,2,5,63,98,4201393472
4017,18,Jits_Linear_8,3,1,48,76,4201450776
4017,18,Jits_Linear_8,4,1,38,18,4201460564
4017,18,Jits_Linear_8,0,5,56,103,4202133832
4017,18,Jits_Linear_8,1,1,48,77,4202151848
4017,18,Jits_Linear_8,2,5,80,127,4202154360
4017,18,Jits_Linear_8,3,5,63,98,4202213728
4017,18,Jits_Linear_8,0,1,48,52,4202941124
4017,18,Jits_Linear_8,1,5,80,127,4202973408
4017,18,Jits_Linear_8,2,5,56,103,4202983676
4017,18,Jits_Linear_8,3,5,63,98,4202994320
4017,18,Jits_Linear_8,0,5,56,103,4203684436
4017,18,Jits_Linear_8,1,5,80,127,4203724400
4017,18,Jits_Linear_8,2,1,48,94,4203735096
4017,18,Jits_Linear_8,3,5,63,98,4203753700
4017,18,Jits_Linear_8,0,5,56,103,4204404048
4017,18,Jits_Linear_8,1,5,63,98,4204433724
4017,18,Jits_Linear_8,2,1,48,103,4204458864
4017,18,Jits_Linear_8,3,5,80,127,4204473656
4017,18,Jits_Linear_8,0,5,80,127,4205103584
4017,18,Jits_Linear_8,1,5,63,98,4205153640
4017,18,Jits_Linear_8,2,5,56,103,4205174096
4017,18,Jits_Linear_8,3,1,48,64,4205187632
4017,18,Jits_Linear_8,0,5,56,103,4205883644
4017,18,Jits_Linear_8,1,1,48,57,4205925652
4017,18,Jits_Linear_8,2,5,80,127,4205954296
4017,18,Jits_Linear_8,3,5,63,98,4206013864
4017,18,Jits_Linear_8,0,5,80,127,4206624228
4017,18,Jits_Linear_8,1,1,48,95,4206709984
4017,18,Jits_Linear_8,2,5,63,98,4206714208
4017,18,Jits_Linear_8,3,5,56,103,4206733624
4017,18,Jits_Linear_8,0,5,63,98,4207384140
4017,18,Jits_Linear_8,1,5,56,103,4207404380
4017,18,Jits_Linear_8,2,5,80,127,4207444316
4017,18,Jits_Linear_8,3,1,48,86,4207471180
4017,18,Jits_Linear_8,0,5,80,127,4208084400
4017,18,Jits_Linear_8,1,5,63,98,4208103740
4017,18,Jits_Linear_8,2,1,48,82,4208169188
4017,18,Jits_Linear_8,3,1,38,19,4208179128
4017,18,Jits_Linear_8,4,5,56,103,4208183732
4017,18,Jits_Linear_8,0,5,63,98,4208813288
4017,18,Jits_Linear_8,1,1,48,90,4208876364
4017,18,Jits_Linear_8,2,5,56,103,4208924116
4017,18,Jits_Linear_8,3,5,80,127,4208927184
4017,18,Jits_Linear_8,0,5,63,98,4209574148
4017,18,Jits_Linear_8,1,1,48,92,4209579656
4017,18,Jits_Linear_8,2,5,56,103,4209583436
4017,18,Jits_Linear_8,3,5,80,127,4209586428
4017,18,Jits_Linear_8,0,1,48,86,4210291896
4017,18,Jits_Linear_8,1,5,56,103,4210294232
4017,18,Jits_Linear_8,2,5,80,127,4210413976
4017,18,Jits_Linear_8,3,5,63,98,4210453988
4017,18,Jits_Linear_8,0,5,56,103,4211043580
4017,18,Jits_Linear_8,1,1,48,70,4211101760
4017,18,Jits_Linear_8,2,5,80,127,4211123448
4017,18,Jits_Linear_8,3,5,63,98,4211144080
4017,18,Jits_Linear_8,0,5,56,103,4211773824
4017,18,Jits_Linear_8,1,1,48,74,4211849240
4017,18,Jits_Linear_8,2,5,63,98,4211884404
4017,18,Jits_Linear_8,3,5,80,127,4211887696
4017,18,Jits_Linear_8,0,5,56,103,4212533508
4017,18,Jits_Linear_8,1,5,80,127,4212564304
4017,18,Jits_Linear_8,2,1,48,71,4212575964
4017,18,Jits_Linear_8,3,5,63,98,4212583784
4017,18,Jits_Linear_8,0,5,63,98,4213244184
4017,18,Jits_Linear_8,1,5,56,103,4213253484
4017,18,Jits_Linear_8,2,5,80,127,4213263904
4017,18,Jits_Linear_8,3,1,48,65,4213331440
4017,18,Jits_Linear_8,0,5,80,127,4213953884
4017,18,Jits_Linear_8,1,1,48,62,4213995960
4017,18,Jits_Linear_8,2,5,56,103,4214004152
4017,18,Jits_Linear_8,3,5,63,98,4214044164
4017,18,Jits_Linear_8,0,5,80,127,4214694216
4017,18,Jits_Linear_8,1,1,48,52,4214711508
4017,18,Jits_Linear_8,2,5,63,98,4214713620
4017,18,Jits_Linear_8,3,5,56,103,4214763996
4017,18,Jits_Linear_8,0,5,80,127,4215424312
4017,18,Jits_Linear_8,1,5,56,103,4215454060
4017,18,Jits_Linear_8,2,1,48,65,4215482284
4017,18,Jits_Linear_8,3,5,63,98,4215523836
4017,18,Jits_Linear_8,0,1,48,52,4216187412
4017,18,Jits_Linear_8,1,5,56,103,4216194480
4017,18,Jits_Linear_8,2,5,80,127,4216203928
4017,18,Jits_Linear_8,3,5,63,98,4216243864
4017,18,Jits_Linear_8,0,5,56,103,4216824176
4017,18,Jits_Linear_8,1,5,63,98,4216843588
4017,18,Jits_Linear_8,2,1,48,48,4216907988
4017,18,Jits_Linear_8,3,5,80,127,4216914160
4017,18,Jits_Linear_8,0,5,63,98,4217563484
4017,18,Jits_Linear_8,1,1,48,67,4217585336
4017,18,Jits_Linear_8,2,5,80,127,4217623944
4017,18,Jits_Linear_8,3,5,56,103,4217644408
4017,18,Jits_Linear_8,0,5,80,127,4218263872
4017,18,Jits_Linear_8,1,1,48,61,4218289912
4017,18,Jits_Linear_8,2,5,56,103,4218293692
4017,18,Jits_Linear_8,3,5,63,98,4218324288
4017,18,Jits_Linear_8,0,5,56,103,4218973512
4017,18,Jits_Linear_8,1,1,48,64,4218998728
4017,18,Jits_Linear_8,2,5,63,98,4219033824
4017,18,Jits_Linear_8,3,5,80,127,4219094536
4017,18,Jits_Linear_8,0,1,48,65,4219689556
4017,18,Jits_Linear_8,1,5,80,127,4219703900
4017,18,Jits_Linear_8,2,5,56,103,4219724136
4017,18,Jits_Linear_8,3,5,63,98,4219793876
4017,18,Jits_Linear_8,0,5,80,127,4220414204
4017,18,Jits_Linear_8,1,5,63,98,4220433840
4017,18,Jits_Linear_8,2,1,48,63,4220453148
4017,18,Jits_Linear_8,3,5,56,103,4220463432
4017,18,Jits_Linear_8,0,5,80,127,4221103440
4017,18,Jits_Linear_8,1,5,63,98,4221124072
4017,18,Jits_Linear_8,2,5,56,103,4221184540
4017,18,Jits_Linear_8,3,1,48,49,4221192312
4017,18,Jits_Linear_8,0,5,80,127,4221803860
4017,18,Jits_Linear_8,1,1,48,57,4221875684
4017,18,Jits_Linear_8,2,5,56,103,4221904280
4017,18,Jits_Linear_8,3,5,63,98,4221933956
4017,18,Jits_Linear_8,0,5,63,98,4222494100
4017,18,Jits_Linear_8,1,5,80,127,4222544228
4017,18,Jits_Linear_8,2,5,56,103,4222563868
4017,18,Jits_Linear_8,3,1,48,64,4222657204
4017,18,Jits_Linear_8,0,5,80,127,4223234516
4017,18,Jits_Linear_8,1,5,56,103,4223264044
4017,18,Jits_Linear_8,2,5,63,98,4223267480
4017,18,Jits_Linear_8,3,1,48,54,4223307612
4017,18,Jits_Linear_8,0,5,63,98,4223963704
4017,18,Jits_Linear_8,1,5,56,103,4224003496
4017,18,Jits_Linear_8,2,1,48,51,4224021836
4017,18,Jits_Linear_8,3,5,80,127,4224023876
4017,18,Jits_Linear_8,0,5,80,127,4224603712
4017,18,Jits_Linear_8,1,5,63,98,4224684336
4017,18,Jits_Linear_8,2,1,48,56,4224708004
4017,18,Jits_Linear_8,3,5,56,103,4224724440
4017,18,Jits_Linear_8,0,5,63,98,4225314108
4017,18,Jits_Linear_8,1,1,48,52,4225377984
4017,18,Jits_Linear_8,2,5,80,127,4225393900
4017,18,Jits_Linear_8,3,5,56,103,4225413756
4017,18,Jits_Linear_8,0,5,56,103,4226044392
4017,18,Jits_Linear_8,1,5,63,98,4226053616
4017,18,Jits_Linear_8,2,1,48,54,4226054584
4017,18,Jits_Linear_8,3,5,80,127,4226093548
4017,18,Jits_Linear_8,0,5,56,103,4226653760
4017,18,Jits_Linear_8,1,5,80,127,4226656832
4017,18,Jits_Linear_8,2,1,48,53,4226728204
4017,18,Jits_Linear_8,3,5,63,98,4226793808
4017,18,Jits_Linear_8,0,5,56,103,4227333724
4017,18,Jits_Linear_8,1,5,63,98,4227423488
4017,18,Jits_Linear_8,2,5,80,127,4227494292
4017,18,Jits_Linear_8,0,1,48,50,4228063000
4017,18,Jits_Linear_8,1,5,63,98,4228094564
4017,18,Jits_Linear_8,2,5,80,127,4228097780
4017,18,Jits_Linear_8,3,5,56,103,4228153684
4017,18,Jits_Linear_8,0,1,48,48,4228778360
4017,18,Jits_Linear_8,1,5,80,127,4228814080
4017,18,Jits_Linear_8,2,5,56,103,4228833716
4017,18,Jits_Linear_8,3,5,63,98,4228843836
4017,18,Jits_Linear_8,0,5,56,103,4229403892
4017,18,Jits_Linear_8,1,5,63,98,4229414460
4017,18,Jits_Linear_8,2,5,80,127,4229483844
4017,18,Jits_Linear_8,3,1,48,65,4229497228
4017,18,Jits_Linear_8,0,5,80,127,4230084008
4017,18,Jits_Linear_8,1,5,56,103,4230133992
4017,18,Jits_Linear_8,2,1,48,59,4230144084
4017,18,Jits_Linear_8,3,5,63,98,4230184408
4017,18,Jits_Linear_8,0,1,48,64,4230798160
4017,18,Jits_Linear_8,1,5,56,103,4230843748
4017,18,Jits_Linear_8,2,5,63,98,4230853896
4017,18,Jits_Linear_8,3,5,80,127,4230894792
4017,18,Jits_Linear_8,0,5,56,103,4231464600
4017,18,Jits_Linear_8,1,5,63,98,4231504392
4017,18,Jits_Linear_8,2,1,48,54,4231510432
4017,18,Jits_Linear_8,3,5,80,127,4231554592
4017,18,Jits_Linear_8,0,5,80,127,4232094056
4017,18,Jits_Linear_8,1,5,56,103,4232144508
4017,18,Jits_Linear_8,2,1,48,63,4232145624
4017,18,Jits_Linear_8,3,5,63,98,4232163692
4017,18,Jits_Linear_8,0,5,80,127,4232773952
4017,18,Jits_Linear_8,1,1,48,61,4232826896
4017,18,Jits_Linear_8,2,5,63,98,4232834488
4017,18,Jits_Linear_8,3,5,56,103,4232914308
4017,18,Jits_Linear_8,0,5,80,127,4233424408
4017,18,Jits_Linear_8,1,5,56,103,4233464272
4017,18,Jits_Linear_8,2,5,63,98,4233483612
4017,18,Jits_Linear_8,3,1,48,57,4233529876
4017,18,Jits_Linear_8,0,5,56,103,4234144208
4017,18,Jits_Linear_8,1,5,80,127,4234154332
4017,18,Jits_Linear_8,2,1,48,57,4234163972
4017,18,Jits_Linear_8,3,5,63,98,4234194216
4017,18,Jits_Linear_8,0,1,48,58,4234803552
4017,18,Jits_Linear_8,1,5,56,103,4234874300
4017,18,Jits_Linear_8,2,5,63,98,4234914448
4017,18,Jits_Linear_8,3,5,80,127,4234917664
4017,18,Jits_Linear_8,0,5,63,98,4235424248
4017,18,Jits_Linear_8,1,5,80,127,4235464140
4017,18,Jits_Linear_8,2,1,48,64,4235520596
4017,18,Jits_Linear_8,3,5,56,103,4235533816
4017,18,Jits_Linear_8,0,5,63,98,4236074384
4017,18,Jits_Linear_8,1,1,48,65,4236144868
4017,18,Jits_Linear_8,2,5,56,103,4236154256
4017,18,Jits_Linear_8,3,5,80,127,4236213672
4017,18,Jits_Linear_8,0,5,80,127,4236744232
4017,18,Jits_Linear_8,1,1,48,60,4236772980
4017,18,Jits_Linear_8,2,5,63,98,4236794204
4017,18,Jits_Linear_8,3,5,56,103,4236823880
4017,18,Jits_Linear_8,0,5,56,103,4237403500
4017,18,Jits_Linear_8,1,5,63,98,4237453632
4017,18,Jits_Linear_8,2,5,80,127,4237464200
4017,18,Jits_Linear_8,3,1,48,56,4237486048
4017,18,Jits_Linear_8,0,5,56,103,4238074328
4017,18,Jits_Linear_8,1,1,48,65,4238129368
4017,18,Jits_Linear_8,2,5,63,98,4238183864
4017,18,Jits_Linear_8,3,5,80,127,4238204176
4017,18,Jits_Linear_8,0,5,63,98,4238723420
4017,18,Jits_Linear_8,1,5,80,127,4238773548
4017,18,Jits_Linear_8,2,1,48,66,4238784188
4017,18,Jits_Linear_8,3,5,56,103,4238863700
4017,18,Jits_Linear_8,0,5,63,98,4239363368
4017,18,Jits_Linear_8,1,5,80,127,4239394392
4017,18,Jits_Linear_8,2,5,56,103,4239484152
4017,18,Jits_Linear_8,3,1,48,42,4239502712
4017,18,Jits_Linear_8,0,5,63,98,4240013852
4017,18,Jits_Linear_8,1,5,56,103,4240024272
4017,18,Jits_Linear_8,2,5,80,127,4240124172
4017,18,Jits_Linear_8,3,1,48,54,4240165348
4017,18,Jits_Linear_8,0,1,48,50,4240760524
4017,18,Jits_Linear_8,1,5,63,98,4240764232
4017,18,Jits_Linear_8,2,5,80,127,4240794132
4017,18,Jits_Linear_8,3,5,56,103,4240823656
4017,18,Jits_Linear_8,0,1,48,66,4241407312
4017,18,Jits_Linear_8,1,5,80,127,4241423896
4017,18,Jits_Linear_8,2,5,63,98,4241434168
4017,18,Jits_Linear_8,3,5,56,103,4241463620
4017,18,Jits_Linear_8,0,5,80,127,4241964340
4017,18,Jits_Linear_8,1,5,63,98,4241983904
4017,18,Jits_Linear_8,2,5,56,103,4242034176
4017,18,Jits_Linear_8,3,1,48,49,4242094312
4017,18,Jits_Linear_8,0,5,63,98,4242634048
4017,18,Jits_Linear_8,1,1,48,59,4242662120
4017,18,Jits_Linear_8,2,5,80,127,4242693388
4017,18,Jits_Linear_8,3,5,56,103,4242714144
4017,18,Jits_Linear_8,0,5,63,98,4243234192
4017,18,Jits_Linear_8,1,5,56,103,4243284320
4017,18,Jits_Linear_8,2,5,80,127,4243293544
4017,18,Jits_Linear_8,3,1,48,50,4243322068
4017,18,Jits_Linear_8,0,1,48,65,4243861332
4017,18,Jits_Linear_8,1,5,56,103,4243903876
4017,18,Jits_Linear_8,2,5,80,127,4243914072
4017,18,Jits_Linear_8,3,5,63,98,4244013404
4017,18,Jits_Linear_8,0,5,80,127,4244504024
4017,18,Jits_Linear_8,1,5,63,98,4244514372
4017,18,Jits_Linear_8,2,1,48,56,4244564096
4017,18,Jits_Linear_8,3,5,56,103,4244664864
4017,18,Jits_Linear_8,0,5,63,98,4245144040
4017,18,Jits_Linear_8,1,5,80,127,4245184004
4017,18,Jits_Linear_8,2,1,48,62,4245206756
4017,18,Jits_Linear_8,3,5,56,103,4245263720
4017,18,Jits_Linear_8,0,5,56,103,4245763388
4017,18,Jits_Linear_8,1,1,48,57,4245816332
4017,18,Jits_Linear_8,2,5,80,127,4245864008
4017,18,Jits_Linear_8,3,5,63,98,4245884244
4017,18,Jits_Linear_8,0,1,48,59,4246398720
4017,18,Jits_Linear_8,1,5,80,127,4246453820
4017,18,Jits_Linear_8,2,5,56,103,4246463892
4017,18,Jits_Linear_8,3,5,63,98,4246553936
4017,18,Jits_Linear_8,0,5,56,103,4247084272
4017,18,Jits_Linear_8,1,5,63,98,4247103984
4017,18,Jits_Linear_8,2,1,48,46,4247113400
4017,18,Jits_Linear_8,3,5,80,127,4247183844
4017,18,Jits_Linear_8,0,5,63,98,4247653864
4017,18,Jits_Linear_8,1,1,48,66,4247730772
4017,18,Jits_Linear_8,2,5,56,103,4247743940
4017,18,Jits_Linear_8,3,5,80,127,4247747008
4017,18,Jits_Linear_8,0,5,56,103,4248303996
4017,18,Jits_Linear_8,1,1,48,52,4248326820
4017,18,Jits_Linear_8,2,5,80,127,4248364384
4017,18,Jits_Linear_8,3,5,63,98,4248373604
4017,18,Jits_Linear_8,0,1,48,67,4248891076
4017,18,Jits_Linear_8,1,5,80,127,4248973604
4017,18,Jits_Linear_8,2,5,56,103,4248984540
4017,18,Jits_Linear_8,3,5,63,98,4248987372
4017,18,Jits_Linear_8,0,1,48,51,4249538816
4017,18,Jits_Linear_8,1,5,56,103,4249554204
4017,18,Jits_Linear_8,2,5,80,127,4249563356
4017,18,Jits_Linear_8,3,5,63,98,4249583964
4017,18,Jits_Linear_8,0,5,63,98,4250144236
4017,18,Jits_Linear_8,1,1,48,59,4250198900
4017,18,Jits_Linear_8,2,5,80,127,4250203652
4017,18,Jits_Linear_8,3,5,56,103,4250253776
4017,18,Jits_Linear_8,0,1,48,59,4250776940
4017,18,Jits_Linear_8,1,5,63,98,4250843376
4017,18,Jits_Linear_8,2,5,56,103,4250853872
4017,18,Jits_Linear_8,3,5,80,127,4250903984
4017,18,Jits_Linear_8,0,5,63,98,4251353328
4017,18,Jits_Linear_8,1,5,80,127,4251374008
4017,18,Jits_Linear_8,2,5,56,103,4251384132
4017,18,Jits_Linear_8,3,1,48,60,4251400876
4017,18,Jits_Linear_8,0,1,48,57,4251963336
4017,18,Jits_Linear_8,1,5,63,98,4251965084
4017,18,Jits_Linear_8,2,5,80,127,4251967980
4017,18,Jits_Linear_8,3,5,56,103,4252003880
4017,18,Jits_Linear_8,0,1,48,69,4252524556
4017,18,Jits_Linear_8,1,5,63,98,4252643868
4017,18,Jits_Linear_8,2,5,80,127,4252674368
4017,18,Jits_Linear_8,3,5,56,103,4252683592
4017,18,Jits_Linear_8,0,5,56,103,4253203876
4017,18,Jits_Linear_8,1,1,48,47,4253210584
4017,18,Jits_Linear_8,2,5,80,127,4253233472
4017,18,Jits_Linear_8,3,5,63,98,4253264196
4017,18,Jits_Linear_8,0,1,48,62,4253782428
4017,18,Jits_Linear_8,1,5,63,98,4253904288
4017,18,Jits_Linear_8,2,5,56,103,4253944372
4017,18,Jits_Linear_8,3,5,80,127,4253947516
4017,18,Jits_Linear_8,0,5,80,127,4254403904
4017,18,Jits_Linear_8,1,1,48,55,4254480516
4017,18,Jits_Linear_8,2,5,56,103,4254483992
4017,18,Jits_Linear_8,3,5,63,98,4254534120
4017,18,Jits_Linear_8,0,5,80,127,4254983608
4017,18,Jits_Linear_8,1,5,56,103,4255003996
4017,18,Jits_Linear_8,2,5,63,98,4255094128
4017,18,Jits_Linear_8,3,1,48,59,4255096140
4017,18,Jits_Linear_8,0,5,80,127,4255623620
4017,18,Jits_Linear_8,1,1,48,59,4255653640
4017,18,Jits_Linear_8,2,5,63,98,4255663556
4017,18,Jits_Linear_8,3,5,56,103,4255704640
4017,18,Jits_Linear_8,0,5,63,98,4256193984
4017,18,Jits_Linear_8,1,1,48,61,4256251416
4017,18,Jits_Linear_8,2,5,80,127,4256254448
4017,18,Jits_Linear_8,3,5,56,103,4256283972
4017,18,Jits_Linear_8,0,5,56,103,4256793904
4017,18,Jits_Linear_8,1,5,80,127,4256823656
4017,18,Jits_Linear_8,2,1,48,55,4256824844
4017,18,Jits_Linear_8,3,5,63,98,4256913784
4017,18,Jits_Linear_8,0,5,56,103,4257393992
4017,18,Jits_Linear_8,1,1,48,60,4257447604
4017,18,Jits_Linear_8,2,5,80,127,4257503700
4017,18,Jits_Linear_8,3,5,63,98,4257534272
4017,18,Jits_Linear_8,0,5,56,103,4258044228
4017,18,Jits_Linear_8,1,1,48,61,4258089076
4017,18,Jits_Linear_8,2,5,63,98,4258103792
4017,18,Jits_Linear_8,3,5,80,127,4258134588
4017,18,Jits_Linear_8,0,5,56,103,4258604532
4017,18,Jits_Linear_8,1,5,63,98,4258673920
4017,18,Jits_Linear_8,2,5,80,127,4258693628
4017,18,Jits_Linear_8,3,1,48,64,4258741780
4017,18,Jits_Linear_8,0,5,80,127,4259163636
4017,18,Jits_Linear_8,1,5,63,98,4259184024
4017,18,Jits_Linear_8,2,5,56,103,4259234152
4017,18,Jits_Linear_8,3,1,48,59,4259292064
4017,18,Jits_Linear_8,0,5,63,98,4259763572
4017,18,Jits_Linear_8,1,5,80,127,4259773692
4017,18,Jits_Linear_8,2,5,56,103,4259823896
4017,18,Jits_Linear_8,3,1,48,64,4259840788
4017,18,Jits_Linear_8,0,5,63,98,4260344236
4017,18,Jits_Linear_8,1,5,80,127,4260413700
4017,18,Jits_Linear_8,2,1,48,55,4260430972
4017,18,Jits_Linear_8,3,5,56,103,4260434152
4017,18,Jits_Linear_8,0,5,63,98,4260953596
4017,18,Jits_Linear_8,1,5,80,127,4260956888
4017,18,Jits_Linear_8,2,5,56,103,4261024100
4017,18,Jits_Linear_8,3,1,48,64,4261025660
4017,18,Jits_Linear_8,0,5,80,127,4261483904
4017,18,Jits_Linear_8,1,5,56,103,4261504588
4017,18,Jits_Linear_8,2,5,63,98,4261513588
4017,18,Jits_Linear_8,3,1,48,61,4261582736
4017,18,Jits_Linear_8,0,5,56,103,4262083932
4017,18,Jits_Linear_8,1,1,48,51,4262094472
4017,18,Jits_Linear_8,2,5,63,98,4262174208
4017,18,Jits_Linear_8,3,5,80,127,4262177500
4017,18,Jits_Linear_8,0,5,80,127,4262633736
4017,18,Jits_Linear_8,1,5,56,103,4262644004
4017,18,Jits_Linear_8,2,5,63,98,4262663644
4017,18,Jits_Linear_8,3,1,48,57,4262738376
4017,18,Jits_Linear_8,0,5,63,98,4263204288
4017,18,Jits_Linear_8,1,5,80,127,4263263560
4017,18,Jits_Linear_8,2,5,56,103,4263273832
4017,18,Jits_Linear_8,3,1,48,48,4263319576
4017,18,Jits_Linear_8,0,5,63,98,4263844364
4017,18,Jits_Linear_8,1,5,80,127,4263873992
4017,18,Jits_Linear_8,2,1,48,42,4263895248
4017,18,Jits_Linear_8,3,5,56,103,4263913776
4017,18,Jits_Linear_8,0,5,56,103,4264404532
4017,18,Jits_Linear_8,1,5,80,127,4264413532
4017,18,Jits_Linear_8,2,5,63,98,4264453396
4017,18,Jits_Linear_8,3,1,48,58,4264479136
4017,18,Jits_Linear_8,0,5,80,127,4264933740
4017,18,Jits_Linear_8,1,5,56,103,4265013764
4017,18,Jits_Linear_8,2,5,63,98,4265023884
4017,18,Jits_Linear_8,3,1,48,54,4265064988
4017,18,Jits_Linear_8,0,5,80,127,4265544092
4017,18,Jits_Linear_8,1,5,56,103,4265623964
4017,18,Jits_Linear_8,2,1,48,50,4265625008
4017,18,Jits_Linear_8,3,5,63,98,4265634452
4017,18,Jits_Linear_8,0,5,80,127,4266064316
4017,18,Jits_Linear_8,1,5,56,103,4266114372
4017,18,Jits_Linear_8,2,5,63,98,4266163528
4017,18,Jits_Linear_8,3,1,48,55,4266207944
4017,18,Jits_Linear_8,0,5,56,103,4266683736
4017,18,Jits_Linear_8,1,5,63,98,4266686904
4017,18,Jits_Linear_8,2,5,80,127,4266733964
4017,18,Jits_Linear_8,3,1,48,51,4266772524
4017,18,Jits_Linear_8,0,5,56,103,4267264512
4017,18,Jits_Linear_8,1,5,63,98,4267294188
4017,18,Jits_Linear_8,2,5,80,127,4267304384
4017,18,Jits_Linear_8,3,1,48,51,4267341656
4017,18,Jits_Linear_8,0,5,63,98,4267734464
4017,18,Jits_Linear_8,1,5,56,103,4267804148
4017,18,Jits_Linear_8,2,5,80,127,4267854572
4017,18,Jits_Linear_8,3,1,48,52,4267884592
4017,18,Jits_Linear_8,0,5,63,98,4268324348
4017,18,Jits_Linear_8,1,5,56,103,4268333420
4017,18,Jits_Linear_8,2,5,80,127,4268336488
4017,18,Jits_Linear_8,3,1,48,44,4268436248
4017,18,Jits_Linear_8,0,5,80,127,4268823932
4017,18,Jits_Linear_8,1,5,56,103,4268884324
4017,18,Jits_Linear_8,2,1,48,58,4268918312
4017,18,Jits_Linear_8,3,5,63,98,4268973408
4017,18,Jits_Linear_8,0,5,80,127,4269373672
4017,18,Jits_Linear_8,1,5,56,103,4269474444
4017,18,Jits_Linear_8,2,1,48,57,4269500036
4017,18,Jits_Linear_8,3,5,63,98,4269514252
4017,18,Jits_Linear_8,0,5,56,103,4269973836
4017,18,Jits_Linear_8,1,5,63,98,4269994296
4017,18,Jits_Linear_8,2,5,80,127,4270034484
4017,18,Jits_Linear_8,3,1,48,58,4270056332
4017,18,Jits_Linear_8,0,5,63,98,4270494128
4017,18,Jits_Linear_8,1,5,56,103,4270513468
4017,18,Jits_Linear_8,2,1,48,59,4270552580
4017,18,Jits_Linear_8,3,5,80,127,4270613956
4017,18,Jits_Linear_8,0,5,63,98,4271023476
4017,18,Jits_Linear_8,1,1,48,55,4271051952
4017,18,Jits_Linear_8,2,5,80,127,4271134156
4017,18,Jits_Linear_8,3,5,56,103,4271163668
4017,18,Jits_Linear_8,0,1,48,55,4271554536
4017,18,Jits_Linear_8,1,5,56,103,4271583708
4017,18,Jits_Linear_8,2,5,63,98,4271614284
4017,18,Jits_Linear_8,3,5,80,127,4271663572
4017,18,Jits_Linear_8,0,5,63,98,4272093656
4017,18,Jits_Linear_8,1,1,48,57,4272112668
4017,18,Jits_Linear_8,2,5,56,103,4272124224
4017,18,Jits_Linear_8,3,5,80,127,4272173452
4017,18,Jits_Linear_8,0,1,48,58,4272634132
4017,18,Jits_Linear_8,1,5,56,103,4272663900
4017,18,Jits_Linear_8,2,5,63,98,4272684360
4017,18,Jits_Linear_8,3,5,80,127,4272764212
4017,18,Jits_Linear_8,0,5,63,98,4273184332
4017,18,Jits_Linear_8,1,1,48,58,4273186720
4017,18,Jits_Linear_8,2,5,56,103,4273243524
4017,18,Jits_Linear_8,3,5,80,127,4273274248
4017,18,Jits_Linear_8,0,1,48,52,4273746608
4017,18,Jits_Linear_8,1,5,56,103,4273763568
4017,18,Jits_Linear_8,2,5,80,127,4273824332
4017,18,Jits_Linear_8,3,5,63,98,4273864284
4017,18,Jits_Linear_8,0,5,63,98,4274273520
4017,18,Jits_Linear_8,1,5,56,103,4274334064
4017,18,Jits_Linear_8,2,1,48,50,4274336656
4017,18,Jits_Linear_8,3,5,80,127,4274403688
4017,18,Jits_Linear_8,0,5,56,103,4274883888
4017,18,Jits_Linear_8,1,5,63,98,4274894076
4017,18,Jits_Linear_8,2,5,80,127,4274897672
4017,18,Jits_Linear_8,3,1,48,27,4274914588
4017,18,Jits_Linear_8,0,5,63,98,4275353952
4017,18,Jits_Linear_8,1,5,56,103,4275414444
4017,18,Jits_Linear_8,2,5,80,127,4275417436
4017,18,Jits_Linear_8,3,1,48,44,4275486040
4017,18,Jits_Linear_8,0,5,63,98,4275864036
4017,18,Jits_Linear_8,1,5,80,127,4275893564
4017,18,Jits_Linear_8,2,5,56,103,4275914048
4017,18,Jits_Linear_8,3,1,48,46,4276062432
4017,18,Jits_Linear_8,0,5,56,103,4276403644
4017,18,Jits_Linear_8,1,5,63,98,4276453872
4017,18,Jits_Linear_8,2,5,80,127,4276533744
4017,18,Jits_Linear_8,3,1,48,50,4276542864
4017,18,Jits_Linear_8,0,5,80,127,4276904164
4017,18,Jits_Linear_8,1,5,63,98,4276944204
4017,18,Jits_Linear_8,2,5,56,103,4276963616
4017,18,Jits_Linear_8,3,1,48,29,4277087940
4017,18,Jits_Linear_8,0,5,56,103,4277494080
4017,18,Jits_Linear_8,1,5,80,127,4277504280
4017,18,Jits_Linear_8,2,5,63,98,4277523988
4017,18,Jits_Linear_8,3,1,48,46,4277645328
4017,18,Jits_Linear_8,0,5,56,103,4277994072
4017,18,Jits_Linear_8,1,5,63,98,4278044056
4017,18,Jits_Linear_8,2,5,80,127,4278073804
4017,18,Jits_Linear_8,3,1,48,46,4278174684
4017,18,Jits_Linear_8,0,5,56,103,4278473992
4017,18,Jits_Linear_8,1,5,63,98,4278484188
4017,18,Jits_Linear_8,2,5,80,127,4278533420
4017,18,Jits_Linear_8,3,1,48,42,4278670028
4017,18,Jits_Linear_8,0,5,56,103,4278984092
4017,18,Jits_Linear_8,1,5,80,127,4278987232
4017,18,Jits_Linear_8,2,1,48,39,4279107076
4017,18,Jits_Linear_8,3,5,63,98,4279143964
4017,18,Jits_Linear_8,0,5,63,98,4279513444
4017,18,Jits_Linear_8,1,5,56,103,4279584100
4017,18,Jits_Linear_8,2,1,48,43,4279613296
4017,18,Jits_Linear_8,3,5,80,127,4279623956
4017,18,Jits_Linear_8,0,5,63,98,4280064296
4017,18,Jits_Linear_8,1,1,48,38,4280065260
4017,18,Jits_Linear_8,2,5,56,103,4280153452
4017,18,Jits_Linear_8,3,5,80,127,4280156444
4017,18,Jits_Linear_8,0,5,56,103,4280553780
4017,18,Jits_Linear_8,1,1,48,41,4280619304
4017,18,Jits_Linear_8,2,5,63,98,4280643912
4017,18,Jits_Linear_8,3,5,80,127,4280654328
4017,18,Jits_Linear_8,0,5,56,103,4281034068
4017,18,Jits_Linear_8,1,5,63,98,4281084272
4017,18,Jits_Linear_8,2,5,80,127,4281114244
4017,18,Jits_Linear_8,3,1,48,40,4281173260
4017,18,Jits_Linear_8,0,5,63,98,4281613780
4017,18,Jits_Linear_8,1,5,80,127,4281623900
4017,18,Jits_Linear_8,2,5,56,103,4281684216
4017,18,Jits_Linear_8,3,1,48,37,4281697300
4017,18,Jits_Linear_8,0,5,63,98,4282033564
4017,18,Jits_Linear_8,1,5,80,127,4282094056
4017,18,Jits_Linear_8,2,5,56,103,4282133848
4017,18,Jits_Linear_8,3,1,48,39,4282191272
4017,18,Jits_Linear_8,0,5,56,103,4282633516
4017,18,Jits_Linear_8,1,5,80,127,4282654052
4017,18,Jits_Linear_8,2,5,63,98,4282673464
4017,18,Jits_Linear_8,3,1,48,42,4282699652
4017,18,Jits_Linear_8,0,5,63,98,4283053400
4017,18,Jits_Linear_8,1,5,56,103,4283073884
4017,18,Jits_Linear_8,2,5,80,127,4283113824
4017,18,Jits_Linear_8,3,1,48,39,4283223920
4017,18,Jits_Linear_8,0,5,63,98,4283564388
4017,18,Jits_Linear_8,1,5,80,127,4283594164
4017,18,Jits_Linear_8,2,5,56,103,4283613428
4017,18,Jits_Linear_8,3,1,48,40,4283752144
4017,18,Jits_Linear_8,0,5,80,127,4284034324
4017,18,Jits_Linear_8,1,5,56,103,4284083700
4017,18,Jits_Linear_8,2,5,63,98,4284143968
4017,18,Jits_Linear_8,3,1,48,43,4284289568
4017,18,Jits_Linear_8,0,5,63,98,4284513852
4017,18,Jits_Linear_8,1,5,56,103,4284633384
4017,18,Jits_Linear_8,2,5,80,127,4284664108
4017,18,Jits_Linear_8,3,1,48,45,4284774056
4017,18,Jits_Linear_8,0,5,80,127,4285043952
4017,18,Jits_Linear_8,1,5,63,98,4285063736
4017,18,Jits_Linear_8,2,5,56,103,4285134192
4017,18,Jits_Linear_8,0,1,48,43,4285341612
4017,18,Jits_Linear_8,1,5,63,98,4285553996
4017,18,Jits_Linear_8,2,5,56,103,4285564196
4017,18,Jits_Linear_8,3,5,80,127,4285644012
4017,18,Jits_Linear_8,0,5,56,103,4286103976
4017,18,Jits_Linear_8,1,5,80,127,4286133800
4017,18,Jits_Linear_8,2,5,63,98,4286143872
4017,18,Jits_Linear_8,0,9999,9999,9999,4175702116
4017,18,Jits_Linear_8,1,9999,9999,9999,4176531568
4017,18,Jits_Linear_8,2,9999,9999,9999,4177351752
4017,18,Jits_Linear_8,3,9999,9999,9999,4178171972
4017,18,Jits_Linear_8,4,9999,9999,9999,4178991220
4017,18,Jits_Linear_8,5,9999,9999,9999,4179801168
4017,18,Jits_Linear_8,6,9999,9999,9999,4180611184
4017,18,Jits_Linear_8,7,9999,9999,9999,4181421148
4017,18,Jits_Linear_8,8,9999,9999,9999,4182231136
4017,18,Jits_Linear_8,9,9999,9999,9999,4183041140
4017,18,Jits_Linear_8,10,9999,9999,9999,4183841892
4017,18,Jits_Linear_8,11,9999,9999,9999,4184641648
4017,18,Jits_Linear_8,12,9999,9999,9999,4185441352
4017,18,Jits_Linear_8,13,9999,9999,9999,4186241120
4017,18,Jits_Linear_8,14,9999,9999,9999,4187041912
4017,18,Jits_Linear_8,15,9999,9999,9999,4187831408
4017,18,Jits_Linear_8,16,9999,9999,9999,4188621884
4017,18,Jits_Linear_8,17,9999,9999,9999,4189411400
4017,18,Jits_Linear_8,18,9999,9999,9999,4190201944
4017,18,Jits_Linear_8,19,9999,9999,9999,4190991452
4017,18,Jits_Linear_8,20,9999,9999,9999,4191771728
4017,18,Jits_Linear_8,21,9999,9999,9999,4192552004
4017,18,Jits_Linear_8,22,9999,9999,9999,4193331312
4017,18,Jits_Linear_8,23,9999,9999,9999,4194111604
4017,18,Jits_Linear_8,24,9999,9999,9999,4194891880
4017,18,Jits_Linear_8,25,9999,9999,9999,4195661888
4017,18,Jits_Linear_8,26,9999,9999,9999,4196431988
4017,18,Jits_Linear_8,27,9999,9999,9999,4197202012
4017,18,Jits_Linear_8,28,9999,9999,9999,4197972036
4017,18,Jits_Linear_8,29,9999,9999,9999,4198742068
4017,18,Jits_Linear_8,30,9999,9999,9999,4199511160
4017,18,Jits_Linear_8,31,9999,9999,9999,4200271976
4017,18,Jits_Linear_8,32,9999,9999,9999,4201031804
4017,18,Jits_Linear_8,33,9999,9999,9999,4201791584
4017,18,Jits_Linear_8,34,9999,9999,9999,4202551412
4017,18,Jits_Linear_8,35,9999,9999,9999,4203301968
4017,18,Jits_Linear_8,36,9999,9999,9999,4204051532
4017,18,Jits_Linear_8,37,9999,9999,9999,4204801104
4017,18,Jits_Linear_8,38,9999,9999,9999,4205551732
4017,18,Jits_Linear_8,39,9999,9999,9999,4206301308
4017,18,Jits_Linear_8,40,9999,9999,9999,4207041596
4017,18,Jits_Linear_8,41,9999,9999,9999,4207781996
4017,18,Jits_Linear_8,42,9999,9999,9999,4208521316
4017,18,Jits_Linear_8,43,9999,9999,9999,4209261656
4017,18,Jits_Linear_8,44,9999,9999,9999,4210001980
4017,18,Jits_Linear_8,45,9999,9999,9999,4210731088
4017,18,Jits_Linear_8,46,9999,9999,9999,4211461244
4017,18,Jits_Linear_8,47,9999,9999,9999,4212191328
4017,18,Jits_Linear_8,48,9999,9999,9999,4212921472
4017,18,Jits_Linear_8,49,9999,9999,9999,4213651552
4017,18,Jits_Linear_8,50,9999,9999,9999,4214371440
4017,18,Jits_Linear_8,51,9999,9999,9999,4215091272
4017,18,Jits_Linear_8,52,9999,9999,9999,4215811180
4017,18,Jits_Linear_8,53,9999,9999,9999,4216532064
4017,18,Jits_Linear_8,54,9999,9999,9999,4217251924
4017,18,Jits_Linear_8,55,9999,9999,9999,4217961568
4017,18,Jits_Linear_8,56,9999,9999,9999,4218671192
4017,18,Jits_Linear_8,57,9999,9999,9999,4219381884
4017,18,Jits_Linear_8,58,9999,9999,9999,4220091500
4017,18,Jits_Linear_8,59,9999,9999,9999,4220801116
4017,18,Jits_Linear_8,60,9999,9999,9999,4221501544
4017,18,Jits_Linear_8,61,9999,9999,9999,4222201972
4017,18,Jits_Linear_8,62,9999,9999,9999,4222901324
4017,18,Jits_Linear_8,63,9999,9999,9999,4223601724
4017,18,Jits_Linear_8,64,9999,9999,9999,4224301108
4017,18,Jits_Linear_8,65,9999,9999,9999,4224991336
4017,18,Jits_Linear_8,66,9999,9999,9999,4225681528
4017,18,Jits_Linear_8,67,9999,9999,9999,4226371676
4017,18,Jits_Linear_8,68,9999,9999,9999,4227061828
4017,18,Jits_Linear_8,69,9999,9999,9999,4227752060
4017,18,Jits_Linear_8,70,9999,9999,9999,4228431964
4017,18,Jits_Linear_8,71,9999,9999,9999,4229111928
4017,18,Jits_Linear_8,72,9999,9999,9999,4229791856
4017,18,Jits_Linear_8,73,9999,9999,9999,4230471756
4017,18,Jits_Linear_8,74,9999,9999,9999,4231151736
4017,18,Jits_Linear_8,75,9999,9999,9999,4231821408
4017,18,Jits_Linear_8,76,9999,9999,9999,4232491116
4017,18,Jits_Linear_8,77,9999,9999,9999,4233161800
4017,18,Jits_Linear_8,78,9999,9999,9999,4233831480
4017,18,Jits_Linear_8,79,9999,9999,9999,4234501188
4017,18,Jits_Linear_8,80,9999,9999,9999,4235161656
4017,18,Jits_Linear_8,81,9999,9999,9999,4235821160
4017,18,Jits_Linear_8,82,9999,9999,9999,4236481640
4017,18,Jits_Linear_8,83,9999,9999,9999,4237142092
4017,18,Jits_Linear_8,84,9999,9999,9999,4237811796
4017,18,Jits_Linear_8,85,9999,9999,9999,4238462008
4017,18,Jits_Linear_8,86,9999,9999,9999,4239111264
4017,18,Jits_Linear_8,87,9999,9999,9999,4239761528
4017,18,Jits_Linear_8,88,9999,9999,9999,4240411736
4017,18,Jits_Linear_8,89,9999,9999,9999,4241062008
4017,18,Jits_Linear_8,90,9999,9999,9999,4241701968
4017,18,Jits_Linear_8,91,9999,9999,9999,4242341968
4017,18,Jits_Linear_8,92,9999,9999,9999,4242982012
4017,18,Jits_Linear_8,93,9999,9999,9999,4243622008
4017,18,Jits_Linear_8,94,9999,9999,9999,4244261960
4017,18,Jits_Linear_8,95,9999,9999,9999,4244891772
4017,18,Jits_Linear_8,96,9999,9999,9999,4245521476
4017,18,Jits_Linear_8,97,9999,9999,9999,4246151288
4017,18,Jits_Linear_8,98,9999,9999,9999,4246782040
4017,18,Jits_Linear_8,99,9999,9999,9999,4247411784
4017,18,Jits_Linear_8,100,9999,9999,9999,4248031288
4017,18,Jits_Linear_8,101,9999,9999,9999,4248651884
4017,18,Jits_Linear_8,102,9999,9999,9999,4249271372
4017,18,Jits_Linear_8,103,9999,9999,9999,4249891912
4017,18,Jits_Linear_8,104,9999,9999,9999,4250511460
4017,18,Jits_Linear_8,105,9999,9999,9999,4251121748
4017,18,Jits_Linear_8,106,9999,9999,9999,4251732076
4017,18,Jits_Linear_8,107,9999,9999,9999,4252341344
4017,18,Jits_Linear_8,108,9999,9999,9999,4252951624
4017,18,Jits_Linear_8,109,9999,9999,9999,4253561952
4017,18,Jits_Linear_8,110,9999,9999,9999,4254161988
4017,18,Jits_Linear_8,111,9999,9999,9999,4254762056
4017,18,Jits_Linear_8,112,9999,9999,9999,4255361088
4017,18,Jits_Linear_8,113,9999,9999,9999,4255961200
4017,18,Jits_Linear_8,114,9999,9999,9999,4256561208
4017,18,Jits_Linear_8,115,9999,9999,9999,4257152060
4017,18,Jits_Linear_8,116,9999,9999,9999,4257751128
4017,18,Jits_Linear_8,117,9999,9999,9999,4258342000
4017,18,Jits_Linear_8,118,9999,9999,9999,4258931824
4017,18,Jits_Linear_8,119,9999,9999,9999,4259521592
4017,18,Jits_Linear_8,120,9999,9999,9999,4260101196
4017,18,Jits_Linear_8,121,9999,9999,9999,4260681788
4017,18,Jits_Linear_8,122,9999,9999,9999,4261261396
4017,18,Jits_Linear_8,123,9999,9999,9999,4261842004
4017,18,Jits_Linear_8,124,9999,9999,9999,4262421628
4017,18,Jits_Linear_8,125,9999,9999,9999,4262991956
4017,18,Jits_Linear_8,126,9999,9999,9999,4263561320
4017,18,Jits_Linear_8,127,9999,9999,9999,4264131676
4017,18,Jits_Linear_8,128,9999,9999,9999,4264702076
4017,18,Jits_Linear_8,129,9999,9999,9999,4265271368
4017,18,Jits_Linear_8,130,9999,9999,9999,4265831528
4017,18,Jits_Linear_8,131,9999,9999,9999,4266391608
4017,18,Jits_Linear_8,132,9999,9999,9999,4266951780
4017,18,Jits_Linear_8,133,9999,9999,9999,4267511868
4017,18,Jits_Linear_8,134,9999,9999,9999,4268072020
4017,18,Jits_Linear_8,135,9999,9999,9999,4268621880
4017,18,Jits_Linear_8,136,9999,9999,9999,4269171828
4017,18,Jits_Linear_8,137,9999,9999,9999,4269721716
4017,18,Jits_Linear_8,138,9999,9999,9999,4270271556
4017,18,Jits_Linear_8,139,9999,9999,9999,4270821444
4017,18,Jits_Linear_8,140,9999,9999,9999,4271361132
4017,18,Jits_Linear_8,141,9999,9999,9999,4271901792
4017,18,Jits_Linear_8,142,9999,9999,9999,4272441472
4017,18,Jits_Linear_8,143,9999,9999,9999,4272982128
4017,18,Jits_Linear_8,144,9999,9999,9999,4273532000
4017,18,Jits_Linear_8,145,9999,9999,9999,4274061424
4017,18,Jits_Linear_8,146,9999,9999,9999,4274591824
4017,18,Jits_Linear_8,147,9999,9999,9999,4275121240
4017,18,Jits_Linear_8,148,9999,9999,9999,4275651668
4017,18,Jits_Linear_8,149,9999,9999,9999,4276182132
4017,18,Jits_Linear_8,150,9999,9999,9999,4276711484
4017,18,Jits_Linear_8,151,9999,9999,9999,4277231700
4017,18,Jits_Linear_8,152,9999,9999,9999,4277751920
4017,18,Jits_Linear_8,153,9999,9999,9999,4278272068
4017,18,Jits_Linear_8,154,9999,9999,9999,4278801504
4017,18,Jits_Linear_8,155,9999,9999,9999,4279311448
4017,18,Jits_Linear_8,156,9999,9999,9999,4279821408
4017,18,Jits_Linear_8,157,9999,9999,9999,4280331348
4017,18,Jits_Linear_8,158,9999,9999,9999,4280841292
4017,18,Jits_Linear_8,159,9999,9999,9999,4281351244
4017,18,Jits_Linear_8,160,9999,9999,9999,4281851988
4017,18,Jits_Linear_8,161,9999,9999,9999,4282351740
4017,18,Jits_Linear_8,162,9999,9999,9999,4282851428
4017,18,Jits_Linear_8,163,9999,9999,9999,4283351120
4017,18,Jits_Linear_8,164,9999,9999,9999,4283851844
4017,18,Jits_Linear_8,165,9999,9999,9999,4284341328
4017,18,Jits_Linear_8,166,9999,9999,9999,4284831796
4017,18,Jits_Linear_8,167,9999,9999,9999,4285321296
4017,18,Jits_Linear_8,168,9999,9999,9999,4285811788
4017,18,Jits_Linear_8,169,9999,9999,9999,4286301308
4018,17,Jits_Phase_5,0,5,56,103,1173028
4018,17,Jits_Phase_5,1,5,63,98,1176128
4018,17,Jits_Phase_5,2,5,80,127,1179172
4018,17,Jits_Phase_5,0,5,56,103,1672524
4018,17,Jits_Phase_5,1,5,63,98,1675544
4018,17,Jits_Phase_5,2,5,80,127,1678668
4018,17,Jits_Phase_5,0,5,56,103,2172152
4018,17,Jits_Phase_5,1,1,48,62,2175124
4018,17,Jits_Phase_5,2,5,80,127,2182588
4018,17,Jits_Phase_5,3,5,63,98,2202972
4018,17,Jits_Phase_5,0,5,63,98,2623044
4018,17,Jits_Phase_5,1,5,80,127,2652496
4018,17,Jits_Phase_5,2,5,56,103,2663136
4018,17,Jits_Phase_5,3,1,48,71,2693404
4018,17,Jits_Phase_5,0,1,48,56,3171284
4018,17,Jits_Phase_5,1,5,80,127,3183144
4018,17,Jits_Phase_5,2,5,56,103,3192068
4018,17,Jits_Phase_5,3,5,63,98,3223112
4018,17,Jits_Phase_5,0,5,63,98,3672388
4018,17,Jits_Phase_5,1,1,48,73,3699028
4018,17,Jits_Phase_5,2,5,56,103,3702208
4018,17,Jits_Phase_5,3,5,80,127,3712328
4018,17,Jits_Phase_5,0,5,56,103,4122968
4018,17,Jits_Phase_5,1,5,63,98,4172200
4018,17,Jits_Phase_5,2,5,80,127,4192508
4018,17,Jits_Phase_5,3,1,48,66,4201924
4018,17,Jits_Phase_5,0,5,80,127,4622708
4018,17,Jits_Phase_5,1,5,63,98,4673056
4018,17,Jits_Phase_5,2,1,48,82,4681428
4018,17,Jits_Phase_5,3,5,56,103,4712836
4018,17,Jits_Phase_5,0,5,56,103,5122300
4018,17,Jits_Phase_5,1,5,63,98,5153020
4018,17,Jits_Phase_5,2,1,48,61,5193900
4018,17,Jits_Phase_5,3,5,80,127,5223060
4018,17,Jits_Phase_5,0,5,56,103,5622112
4018,17,Jits_Phase_5,1,1,48,67,5677368
4018,17,Jits_Phase_5,2,5,80,127,5682644
4018,17,Jits_Phase_5,3,5,63,98,5712168
4018,17,Jits_Phase_5,0,5,56,103,6133164
4018,17,Jits_Phase_5,1,5,63,98,6142392
4018,17,Jits_Phase_5,2,1,48,73,6176220
4018,17,Jits_Phase_5,3,5,80,127,6182392
4018,17,Jits_Phase_5,0,5,63,98,6622644
4018,17,Jits_Phase_5,1,1,48,79,6657896
4018,17,Jits_Phase_5,2,5,80,127,6702504
4018,17,Jits_Phase_5,3,5,56,103,6712848
4018,17,Jits_Phase_5,0,1,48,88,7154544
4018,17,Jits_Phase_5,1,5,63,98,7172480
4018,17,Jits_Phase_5,2,5,56,103,7212340
4018,17,Jits_Phase_5,3,5,80,127,7215552
4018,17,Jits_Phase_5,0,5,56,103,7632268
4018,17,Jits_Phase_5,1,5,63,98,7642540
4018,17,Jits_Phase_5,2,1,48,70,7678992
4018,17,Jits_Phase_5,3,5,80,127,7682468
4018,17,Jits_Phase_5,0,5,56,103,8123012
4018,17,Jits_Phase_5,1,5,63,98,8126076
4018,17,Jits_Phase_5,2,5,80,127,8142200
4018,17,Jits_Phase_5,3,1,48,83,8177976
4018,17,Jits_Phase_5,0,5,80,127,8632780
4018,17,Jits_Phase_5,1,5,56,103,8643052
4018,17,Jits_Phase_5,2,1,48,84,8679424
4018,17,Jits_Phase_5,3,5,63,98,8712496
4018,17,Jits_Phase_5,0,5,63,98,9122108
4018,17,Jits_Phase_5,1,5,56,103,9142640
4018,17,Jits_Phase_5,2,1,48,84,9201052
4018,17,Jits_Phase_5,3,5,80,127,9222424
4018,17,Jits_Phase_5,0,5,56,103,9633220
4018,17,Jits_Phase_5,1,5,80,127,9672932
4018,17,Jits_Phase_5,2,5,63,98,9682232
4018,17,Jits_Phase_5,3,1,48,78,9683568
4018,17,Jits_Phase_5,0,5,80,127,10122548
4018,17,Jits_Phase_5,1,5,63,98,10152448
4018,17,Jits_Phase_5,2,1,48,77,10180128
4018,17,Jits_Phase_5,3,5,56,103,10192300
4018,17,Jits_Phase_5,0,5,56,103,10643036
4018,17,Jits_Phase_5,1,5,63,98,10672564
4018,17,Jits_Phase_5,2,1,48,67,10682952
4018,17,Jits_Phase_5,3,5,80,127,10722756
4018,17,Jits_Phase_5,0,5,80,127,11142484
4018,17,Jits_Phase_5,1,5,56,103,11182424
4018,17,Jits_Phase_5,2,1,48,58,11185840
4018,17,Jits_Phase_5,3,5,63,98,11192688
4018,17,Jits_Phase_5,0,5,80,127,11623020
4018,17,Jits_Phase_5,1,5,63,98,11662832
4018,17,Jits_Phase_5,2,1,48,72,11688944
4018,17,Jits_Phase_5,3,5,56,103,11722992
4018,17,Jits_Phase_5,0,5,56,103,12122688
4018,17,Jits_Phase_5,1,5,80,127,12132660
4018,17,Jits_Phase_5,2,1,48,64,12189736
4018,17,Jits_Phase_5,3,5,63,98,12212840
4018,17,Jits_Phase_5,0,5,80,127,12622208
4018,17,Jits_Phase_5,1,1,48,77,12678536
4018,17,Jits_Phase_5,2,5,63,98,12682764
4018,17,Jits_Phase_5,3,5,56,103,12712288
4018,17,Jits_Phase_5,0,5,56,103,13122848
4018,17,Jits_Phase_5,1,5,80,127,13182264
4018,17,Jits_Phase_5,2,1,48,75,13188476
4018,17,Jits_Phase_5,3,5,63,98,13222296
4018,17,Jits_Phase_5,0,5,56,103,13672788
4018,17,Jits_Phase_5,1,5,63,98,13683056
4018,17,Jits_Phase_5,2,5,80,127,13686272
4018,17,Jits_Phase_5,3,1,48,83,13687236
4018,17,Jits_Phase_5,0,5,80,127,14122252
4018,17,Jits_Phase_5,1,1,48,68,14193100
4018,17,Jits_Phase_5,2,5,63,98,14212624
4018,17,Jits_Phase_5,3,5,56,103,14222820
4018,17,Jits_Phase_5,0,5,56,103,14623028
4018,17,Jits_Phase_5,1,5,63,98,14626120
4018,17,Jits_Phase_5,2,5,80,127,14629248
4018,17,Jits_Phase_5,3,1,48,88,14694100
4018,17,Jits_Phase_5,0,5,80,127,15152428
4018,17,Jits_Phase_5,1,1,48,87,15202176
4018,17,Jits_Phase_5,2,5,63,98,15203892
4018,17,Jits_Phase_5,3,5,56,103,15232444
4018,17,Jits_Phase_5,0,5,56,103,15632844
4018,17,Jits_Phase_5,1,5,80,127,15642968
4018,17,Jits_Phase_5,2,1,48,78,15702056
4018,17,Jits_Phase_5,3,5,63,98,15712860
4018,17,Jits_Phase_5,0,5,56,103,16142628
4018,17,Jits_Phase_5,1,5,63,98,16162188
4018,17,Jits_Phase_5,2,1,48,85,16175940
4018,17,Jits_Phase_5,3,5,80,127,16222640
4018,17,Jits_Phase_5,0,5,80,127,16622892
4018,17,Jits_Phase_5,1,1,48,60,16662348
4018,17,Jits_Phase_5,2,5,63,98,16692564
4018,17,Jits_Phase_5,3,5,56,103,16713096
4018,17,Jits_Phase_5,0,5,80,127,17142040
4018,17,Jits_Phase_5,1,5,56,103,17152532
4018,17,Jits_Phase_5,2,5,63,98,17162804
4018,17,Jits_Phase_5,3,1,48,84,17184276
4018,17,Jits_Phase_5,0,5,80,127,17632564
4018,17,Jits_Phase_5,1,5,56,103,17653024
4018,17,Jits_Phase_5,2,1,48,76,17698988
4018,17,Jits_Phase_5,3,5,63,98,17722768
4018,17,Jits_Phase_5,0,5,56,103,18142868
4018,17,Jits_Phase_5,1,5,80,127,18172544
4018,17,Jits_Phase_5,2,1,48,68,18175516
4018,17,Jits_Phase_5,3,5,63,98,18192848
4018,17,Jits_Phase_5,0,5,63,98,18633024
4018,17,Jits_Phase_5,1,1,48,76,18665284
4018,17,Jits_Phase_5,2,5,56,103,18692584
4018,17,Jits_Phase_5,3,5,80,127,18722108
4018,17,Jits_Phase_5,0,5,63,98,19122712
4018,17,Jits_Phase_5,1,5,80,127,19125780
4018,17,Jits_Phase_5,2,1,48,57,19159912
4018,17,Jits_Phase_5,3,5,56,103,19212760
4018,17,Jits_Phase_5,0,1,48,76,19630116
4018,17,Jits_Phase_5,1,5,56,103,19642808
4018,17,Jits_Phase_5,2,5,63,98,19672484
4018,17,Jits_Phase_5,3,5,80,127,19712568
4018,17,Jits_Phase_5,0,5,63,98,20142472
4018,17,Jits_Phase_5,1,1,48,73,20153536
4018,17,Jits_Phase_5,2,5,56,103,20182552
4018,17,Jits_Phase_5,3,5,80,127,20202860
4018,17,Jits_Phase_5,0,5,63,98,20652764
4018,17,Jits_Phase_5,1,1,48,81,20655660
4018,17,Jits_Phase_5,2,5,56,103,20692696
4018,17,Jits_Phase_5,3,5,80,127,20702892
4018,17,Jits_Phase_5,0,5,80,127,21132568
4018,17,Jits_Phase_5,1,1,48,55,21172256
4018,17,Jits_Phase_5,2,5,63,98,21202392
4018,17,Jits_Phase_5,3,5,56,103,21222628
4018,17,Jits_Phase_5,0,5,56,103,21622028
4018,17,Jits_Phase_5,1,5,80,127,21642660
4018,17,Jits_Phase_5,2,1,48,80,21647504
4018,17,Jits_Phase_5,3,5,63,98,21682664
4018,17,Jits_Phase_5,0,5,63,98,22133228
4018,17,Jits_Phase_5,1,1,48,63,22139492
4018,17,Jits_Phase_5,2,5,80,127,22152512
4018,17,Jits_Phase_5,3,5,56,103,22192372
4018,17,Jits_Phase_5,0,1,48,59,22613224
4018,17,Jits_Phase_5,1,5,63,98,22632800
4018,17,Jits_Phase_5,2,5,56,103,22652436
4018,17,Jits_Phase_5,3,5,80,127,22662656
4018,17,Jits_Phase_5,0,1,48,87,23089860
4018,17,Jits_Phase_5,1,5,80,127,23132452
4018,17,Jits_Phase_5,2,5,56,103,23152988
4018,17,Jits_Phase_5,3,5,63,98,23182832
4018,17,Jits_Phase_5,0,1,48,86,23613644
4018,17,Jits_Phase_5,1,5,56,103,23702848
4018,17,Jits_Phase_5,2,5,80,127,23705840
4018,17,Jits_Phase_5,3,5,63,98,23722392
4018,17,Jits_Phase_5,0,1,48,91,24110228
4018,17,Jits_Phase_5,1,5,63,98,24122756
4018,17,Jits_Phase_5,2,5,56,103,24152580
4018,17,Jits_Phase_5,3,5,80,127,24212828
4018,17,Jits_Phase_5,0,1,48,80,24627252
4018,17,Jits_Phase_5,1,5,63,98,24702428
4018,17,Jits_Phase_5,2,5,56,103,24712424
4018,17,Jits_Phase_5,3,5,80,127,24722904
4018,17,Jits_Phase_5,0,1,48,78,25135532
4018,17,Jits_Phase_5,1,5,56,103,25163128
4018,17,Jits_Phase_5,2,5,80,127,25192804
4018,17,Jits_Phase_5,3,5,63,98,25202924
4018,17,Jits_Phase_5,0,1,48,82,25647696
4018,17,Jits_Phase_5,1,5,63,98,25702720
4018,17,Jits_Phase_5,2,5,56,103,25712992
4018,17,Jits_Phase_5,3,5,80,127,25732652
4018,17,Jits_Phase_5,0,5,56,103,26132936
4018,17,Jits_Phase_5,1,1,48,79,26176280
4018,17,Jits_Phase_5,2,5,63,98,26192344
4018,17,Jits_Phase_5,3,5,80,127,26195632
4018,17,Jits_Phase_5,0,5,80,127,26653120
4018,17,Jits_Phase_5,1,1,48,74,26658936
4018,17,Jits_Phase_5,2,5,56,103,26662560
4018,17,Jits_Phase_5,3,5,63,98,26732912
4018,17,Jits_Phase_5,0,5,80,127,27142452
4018,17,Jits_Phase_5,1,1,48,74,27174116
4018,17,Jits_Phase_5,2,5,56,103,27212200
4018,17,Jits_Phase_5,3,5,63,98,27222324
4018,17,Jits_Phase_5,0,1,48,74,27682728
4018,17,Jits_Phase_5,1,5,63,98,27684068
4018,17,Jits_Phase_5,2,5,56,103,27692396
4018,17,Jits_Phase_5,3,5,80,127,27712852
4018,17,Jits_Phase_5,0,5,80,127,28132688
4018,17,Jits_Phase_5,1,1,48,75,28173420
4018,17,Jits_Phase_5,2,5,63,98,28193220
4018,17,Jits_Phase_5,3,5,56,103,28233156
4018,17,Jits_Phase_5,0,5,56,103,28672368
4018,17,Jits_Phase_5,1,1,48,78,28677432
4018,17,Jits_Phase_5,2,5,63,98,28682480
4018,17,Jits_Phase_5,3,5,80,127,28722416
4018,17,Jits_Phase_5,0,5,56,103,29132252
4018,17,Jits_Phase_5,1,1,48,77,29159112
4018,17,Jits_Phase_5,2,5,80,127,29162892
4018,17,Jits_Phase_5,3,5,63,98,29213240
4018,17,Jits_Phase_5,0,1,48,76,29656160
4018,17,Jits_Phase_5,1,5,56,103,29672748
4018,17,Jits_Phase_5,2,5,63,98,29712604
4018,17,Jits_Phase_5,3,5,80,127,29715972
4018,17,Jits_Phase_5,0,1,48,78,30168392
4018,17,Jits_Phase_5,1,5,56,103,30172544
4018,17,Jits_Phase_5,2,5,63,98,30182888
4018,17,Jits_Phase_5,3,5,80,127,30202376
4018,17,Jits_Phase_5,0,5,56,103,30632276
4018,17,Jits_Phase_5,1,5,80,127,30635416
4018,17,Jits_Phase_5,2,1,48,79,30668276
4018,17,Jits_Phase_5,3,5,63,98,30672204
4018,17,Jits_Phase_5,0,1,48,73,31159688
4018,17,Jits_Phase_5,1,5,63,98,31172908
4018,17,Jits_Phase_5,2,5,56,103,31202580
4018,17,Jits_Phase_5,3,5,80,127,31222216
4018,17,Jits_Phase_5,0,5,80,127,31643052
4018,17,Jits_Phase_5,1,5,56,103,31652352
4018,17,Jits_Phase_5,2,1,48,79,31655396
4018,17,Jits_Phase_5,3,5,63,98,31662392
4018,17,Jits_Phase_5,0,5,56,103,32142644
4018,17,Jits_Phase_5,1,1,48,68,32144204
4018,17,Jits_Phase_5,2,5,80,127,32182576
4018,17,Jits_Phase_5,3,5,63,98,32212396
4018,17,Jits_Phase_5,0,5,63,98,32652724
4018,17,Jits_Phase_5,1,1,48,85,32653840
4018,17,Jits_Phase_5,2,5,80,127,32662840
4018,17,Jits_Phase_5,3,5,56,103,32673036
4018,17,Jits_Phase_5,0,5,56,103,33142092
4018,17,Jits_Phase_5,1,1,48,69,33152928
4018,17,Jits_Phase_5,2,5,63,98,33212912
4018,17,Jits_Phase_5,3,5,80,127,33223108
4018,17,Jits_Phase_5,0,5,80,127,33653148
4018,17,Jits_Phase_5,1,1,48,60,33661092
4018,17,Jits_Phase_5,2,5,56,103,33662884
4018,17,Jits_Phase_5,3,5,63,98,33712440
4018,17,Jits_Phase_5,0,1,48,59,34166112
4018,17,Jits_Phase_5,1,5,80,127,34172212
4018,17,Jits_Phase_5,2,5,56,103,34232552
4018,17,Jits_Phase_5,3,5,63,98,34263332
4018,17,Jits_Phase_5,0,5,56,103,34673372
4018,17,Jits_Phase_5,1,5,80,127,34676284
4018,17,Jits_Phase_5,2,1,48,70,34694116
4018,17,Jits_Phase_5,3,5,63,98,34713244
4018,17,Jits_Phase_5,0,1,48,67,35202424
4018,17,Jits_Phase_5,1,5,56,103,35203984
4018,17,Jits_Phase_5,2,5,63,98,35233064
4018,17,Jits_Phase_5,3,5,80,127,35242284
4018,17,Jits_Phase_5,0,1,48,55,35678340
4018,17,Jits_Phase_5,1,5,63,98,35712312
4018,17,Jits_Phase_5,2,5,80,127,35722532
4018,17,Jits_Phase_5,3,5,56,103,35732800
4018,17,Jits_Phase_5,0,5,80,127,36163048
4018,17,Jits_Phase_5,1,1,48,59,36171796
4018,17,Jits_Phase_5,2,5,56,103,36213168
4018,17,Jits_Phase_5,3,5,63,98,36216232
4018,17,Jits_Phase_5,0,5,56,103,36692300
4018,17,Jits_Phase_5,1,1,48,54,36693268
4018,17,Jits_Phase_5,2,5,80,127,36712904
4018,17,Jits_Phase_5,3,5,63,98,36723024
4018,17,Jits_Phase_5,0,5,63,98,37172716
4018,17,Jits_Phase_5,1,1,48,58,37190064
4018,17,Jits_Phase_5,2,5,56,103,37202160
4018,17,Jits_Phase_5,3,5,80,127,37222692
4018,17,Jits_Phase_5,0,1,48,76,37669932
4018,17,Jits_Phase_5,1,5,56,103,37682700
4018,17,Jits_Phase_5,2,5,80,127,37692968
4018,17,Jits_Phase_5,3,5,63,98,37762432
4018,17,Jits_Phase_5,0,1,48,68,38159472
4018,17,Jits_Phase_5,1,5,63,98,38182208
4018,17,Jits_Phase_5,2,5,80,127,38222072
4018,17,Jits_Phase_5,3,5,56,103,38262068
4018,17,Jits_Phase_5,0,5,56,103,38692132
4018,17,Jits_Phase_5,1,1,48,68,38694576
4018,17,Jits_Phase_5,2,5,63,98,38702548
4018,17,Jits_Phase_5,3,5,80,127,38723004
4018,17,Jits_Phase_5,0,1,48,70,39204576
4018,17,Jits_Phase_5,1,5,63,98,39232924
4018,17,Jits_Phase_5,2,5,80,127,39252260
4018,17,Jits_Phase_5,3,5,56,103,39272940
4018,17,Jits_Phase_5,0,5,56,103,39672132
4018,17,Jits_Phase_5,1,1,48,61,39695024
4018,17,Jits_Phase_5,2,5,80,127,39753040
4018,17,Jits_Phase_5,3,5,63,98,39762188
4018,17,Jits_Phase_5,0,5,80,127,40213008
4018,17,Jits_Phase_5,1,1,48,67,40215452
4018,17,Jits_Phase_5,2,5,63,98,40222972
4018,17,Jits_Phase_5,3,5,56,103,40252944
4018,17,Jits_Phase_5,0,5,63,98,40672820
4018,17,Jits_Phase_5,1,5,80,127,40712464
4018,17,Jits_Phase_5,2,1,48,73,40735652
4018,17,Jits_Phase_5,3,5,56,103,40773140
4018,17,Jits_Phase_5,0,5,63,98,41182444
4018,17,Jits_Phase_5,1,1,48,59,41227364
4018,17,Jits_Phase_5,2,5,56,103,41232936
4018,17,Jits_Phase_5,3,5,80,127,41262384
4018,17,Jits_Phase_5,0,5,80,127,41682248
4018,17,Jits_Phase_5,1,1,48,55,41693116
4018,17,Jits_Phase_5,2,5,63,98,41694460
4018,17,Jits_Phase_5,3,5,56,103,41762188
4018,17,Jits_Phase_5,0,1,48,55,42206604
4018,17,Jits_Phase_5,1,5,80,127,42242372
4018,17,Jits_Phase_5,2,5,56,103,42253168
4018,17,Jits_Phase_5,3,5,63,98,42256004
4018,17,Jits_Phase_5,0,5,56,103,42682844
4018,17,Jits_Phase_5,1,5,80,127,42702180
4018,17,Jits_Phase_5,2,1,48,63,42704928
4018,17,Jits_Phase_5,3,5,63,98,42712444
4018,17,Jits_Phase_5,0,5,63,98,43192924
4018,17,Jits_Phase_5,1,1,48,51,43197692
4018,17,Jits_Phase_5,2,5,56,103,43232556
4018,17,Jits_Phase_5,3,5,80,127,43253240
4018,17,Jits_Phase_5,0,1,48,46,43687896
4018,17,Jits_Phase_5,1,5,63,98,43692352
4018,17,Jits_Phase_5,2,5,56,103,43752892
4018,17,Jits_Phase_5,3,5,80,127,43755808
4018,17,Jits_Phase_5,0,5,56,103,44152128
4018,17,Jits_Phase_5,1,1,48,43,44170168
4018,17,Jits_Phase_5,2,5,80,127,44173048
4018,17,Jits_Phase_5,3,5,63,98,44212688
4018,17,Jits_Phase_5,0,1,48,76,44651692
4018,17,Jits_Phase_5,1,5,56,103,44682604
4018,17,Jits_Phase_5,2,5,63,98,44703212
4018,17,Jits_Phase_5,3,5,80,127,44712208
4018,17,Jits_Phase_5,0,1,48,64,45151968
4018,17,Jits_Phase_5,1,5,80,127,45153756
4018,17,Jits_Phase_5,2,5,56,103,45182236
4018,17,Jits_Phase_5,3,5,63,98,45222124
4018,17,Jits_Phase_5,0,5,80,127,45662860
4018,17,Jits_Phase_5,1,1,48,66,45666652
4018,17,Jits_Phase_5,2,5,56,103,45683012
4018,17,Jits_Phase_5,3,5,63,98,45742676
4018,17,Jits_Phase_5,0,1,48,53,46157020
4018,17,Jits_Phase_5,1,5,56,103,46172484
4018,17,Jits_Phase_5,2,5,80,127,46192940
4018,17,Jits_Phase_5,3,5,63,98,46252364
4018,17,Jits_Phase_5,0,5,80,127,46652964
4018,17,Jits_Phase_5,1,5,56,103,46663008
4018,17,Jits_Phase_5,2,1,48,62,46667104
4018,17,Jits_Phase_5,3,5,63,98,46702864
4018,17,Jits_Phase_5,0,5,63,98,47152632
4018,17,Jits_Phase_5,1,1,48,70,47169828
4018,17,Jits_Phase_5,2,5,56,103,47192560
4018,17,Jits_Phase_5,3,5,80,127,47195476
4018,17,Jits_Phase_5,0,1,48,67,47656656
4018,17,Jits_Phase_5,1,5,63,98,47672720
4018,17,Jits_Phase_5,2,5,80,127,47712660
4018,17,Jits_Phase_5,3,5,56,103,47742260
4018,17,Jits_Phase_5,0,5,56,103,48162124
4018,17,Jits_Phase_5,1,5,63,98,48172688
4018,17,Jits_Phase_5,2,1,48,53,48180144
4018,17,Jits_Phase_5,3,5,80,127,48203180
4018,17,Jits_Phase_5,0,5,80,127,48652796
4018,17,Jits_Phase_5,1,1,48,54,48667676
4018,17,Jits_Phase_5,2,5,63,98,48722248
4018,17,Jits_Phase_5,3,5,56,103,48732740
4018,17,Jits_Phase_5,0,5,63,98,49152244
4018,17,Jits_Phase_5,1,1,48,54,49167644
4018,17,Jits_Phase_5,2,5,56,103,49222964
4018,17,Jits_Phase_5,3,5,80,127,49232260
4018,17,Jits_Phase_5,0,5,63,98,49632568
4018,17,Jits_Phase_5,1,5,56,103,49653100
4018,17,Jits_Phase_5,2,5,80,127,49692964
4018,17,Jits_Phase_5,3,1,48,60,49698100
4018,17,Jits_Phase_5,0,5,56,103,50112896
4018,17,Jits_Phase_5,1,5,63,98,50123092
4018,17,Jits_Phase_5,2,1,48,43,50166584
4018,17,Jits_Phase_5,3,5,80,127,50203024
4018,17,Jits_Phase_5,0,5,63,98,50602452
4018,17,Jits_Phase_5,1,5,56,103,50633100
4018,17,Jits_Phase_5,2,1,48,55,50658908
4018,17,Jits_Phase_5,3,5,80,127,50673028
4018,17,Jits_Phase_5,0,5,56,103,51103152
4018,17,Jits_Phase_5,1,1,48,51,51125452
4018,17,Jits_Phase_5,2,5,63,98,51142936
4018,17,Jits_Phase_5,3,5,80,127,51183020
4018,17,Jits_Phase_5,0,5,80,127,51612940
4018,17,Jits_Phase_5,1,1,48,51,51618596
4018,17,Jits_Phase_5,2,5,56,103,51692800
4018,17,Jits_Phase_5,3,5,63,98,51702100
4018,17,Jits_Phase_5,0,1,48,51,52133928
4018,17,Jits_Phase_5,1,5,56,103,52152680
4018,17,Jits_Phase_5,2,5,63,98,52155672
4018,17,Jits_Phase_5,3,5,80,127,52162952
4018,17,Jits_Phase_5,0,1,48,42,52651260
4018,17,Jits_Phase_5,1,5,56,103,52672856
4018,17,Jits_Phase_5,2,5,63,98,52692716
4018,17,Jits_Phase_5,3,5,80,127,52702764
4018,17,Jits_Phase_5,0,5,63,98,53132516
4018,17,Jits_Phase_5,1,5,80,127,53142936
4018,17,Jits_Phase_5,2,1,48,38,53151832
4018,17,Jits_Phase_5,3,5,56,103,53162412
4018,17,Jits_Phase_5,0,1,48,38,53606708
4018,17,Jits_Phase_5,1,5,63,98,53632660
4018,17,Jits_Phase_5,2,5,56,103,53712216
4018,17,Jits_Phase_5,3,5,80,127,53715280
4018,17,Jits_Phase_5,0,1,48,67,54098612
4018,17,Jits_Phase_5,1,5,63,98,54132960
4018,17,Jits_Phase_5,2,5,56,103,54152544
4018,17,Jits_Phase_5,3,5,80,127,54182444
4018,17,Jits_Phase_5,0,1,48,67,54621504
4018,17,Jits_Phase_5,1,5,56,103,54632688
4018,17,Jits_Phase_5,2,5,63,98,54652472
4018,17,Jits_Phase_5,3,5,80,127,54662392
4018,17,Jits_Phase_5,0,1,48,69,55116568
4018,17,Jits_Phase_5,1,5,56,103,55162152
4018,17,Jits_Phase_5,2,5,63,98,55193048
4018,17,Jits_Phase_5,3,5,80,127,55196260
4018,17,Jits_Phase_5,0,1,48,62,55610612
4018,17,Jits_Phase_5,1,5,56,103,55612728
4018,17,Jits_Phase_5,2,5,63,98,55652816
4018,17,Jits_Phase_5,3,5,80,127,55713064
4018,17,Jits_Phase_5,0,1,48,48,56101500
4018,17,Jits_Phase_5,1,5,56,103,56132912
4018,17,Jits_Phase_5,2,5,63,98,56142432
4018,17,Jits_Phase_5,3,5,80,127,56202756
4018,17,Jits_Phase_5,0,1,48,71,56612020
4018,17,Jits_Phase_5,1,5,56,103,56632792
4018,17,Jits_Phase_5,2,5,80,127,56652280
4018,17,Jits_Phase_5,3,5,63,98,56682852
4018,17,Jits_Phase_5,0,1,48,62,57099672
4018,17,Jits_Phase_5,1,5,80,127,57132372
4018,17,Jits_Phase_5,2,5,56,103,57142716
4018,17,Jits_Phase_5,3,5,63,98,57163100
4018,17,Jits_Phase_5,0,1,48,68,57598428
4018,17,Jits_Phase_5,1,5,63,98,57622808
4018,17,Jits_Phase_5,2,5,80,127,57702736
4018,17,Jits_Phase_5,3,5,56,103,57713080
4018,17,Jits_Phase_5,0,1,48,67,58110092
4018,17,Jits_Phase_5,1,5,80,127,58212584
4018,17,Jits_Phase_5,2,5,56,103,58232368
4018,17,Jits_Phase_5,3,5,63,98,58235360
4018,17,Jits_Phase_5,0,1,48,71,58668908
4018,17,Jits_Phase_5,1,5,63,98,58702284
4018,17,Jits_Phase_5,2,5,80,127,58705572
4018,17,Jits_Phase_5,3,5,56,103,58762544
4018,17,Jits_Phase_5,0,5,56,103,59182460
4018,17,Jits_Phase_5,1,5,80,127,59192656
4018,17,Jits_Phase_5,2,5,63,98,59232516
4018,17,Jits_Phase_5,3,1,48,73,59256236
4018,17,Jits_Phase_5,0,5,56,103,59662648
4018,17,Jits_Phase_5,1,5,63,98,59723412
4018,17,Jits_Phase_5,2,5,80,127,59732264
4018,17,Jits_Phase_5,3,1,48,66,59743100
4018,17,Jits_Phase_5,0,5,63,98,60172508
4018,17,Jits_Phase_5,1,5,80,127,60212520
4018,17,Jits_Phase_5,2,5,56,103,60252456
4018,17,Jits_Phase_5,3,1,48,66,60253424
4018,17,Jits_Phase_5,0,5,56,103,60672240
4018,17,Jits_Phase_5,1,1,48,64,60749592
4018,17,Jits_Phase_5,2,5,63,98,60752248
4018,17,Jits_Phase_5,3,5,80,127,60755536
4018,17,Jits_Phase_5,0,5,80,127,61232360
4018,17,Jits_Phase_5,1,1,48,59,61243724
4018,17,Jits_Phase_5,2,5,56,103,61262324
4018,17,Jits_Phase_5,3,5,63,98,61265392
4018,17,Jits_Phase_5,0,5,56,103,61692324
4018,17,Jits_Phase_5,1,5,80,127,61712856
4018,17,Jits_Phase_5,2,1,48,50,61753164
4018,17,Jits_Phase_5,3,5,63,98,61754580
4018,17,Jits_Phase_5,0,5,80,127,62172516
4018,17,Jits_Phase_5,1,5,63,98,62193196
4018,17,Jits_Phase_5,2,1,48,44,62238636
4018,17,Jits_Phase_5,3,5,56,103,62252308
4018,17,Jits_Phase_5,0,5,63,98,62682448
4018,17,Jits_Phase_5,1,5,56,103,62692644
4018,17,Jits_Phase_5,2,1,48,47,62729396
4018,17,Jits_Phase_5,3,5,80,127,62742760
4018,17,Jits_Phase_5,0,5,56,103,63173184
4018,17,Jits_Phase_5,1,5,63,98,63192372
4018,17,Jits_Phase_5,2,5,80,127,63202644
4018,17,Jits_Phase_5,3,1,48,49,63205536
4018,17,Jits_Phase_5,0,5,56,103,63662584
4018,17,Jits_Phase_5,1,5,63,98,63665428
4018,17,Jits_Phase_5,2,5,80,127,63682896
4018,17,Jits_Phase_5,3,1,48,41,63691116
4018,17,Jits_Phase_5,0,1,48,50,64159728
4018,17,Jits_Phase_5,1,5,63,98,64203144
4018,17,Jits_Phase_5,2,5,56,103,64232744
4018,17,Jits_Phase_5,3,5,80,127,64262476
4018,17,Jits_Phase_5,0,5,80,127,64663024
4018,17,Jits_Phase_5,1,1,48,38,64680316
4018,17,Jits_Phase_5,2,5,56,103,64753220
4018,17,Jits_Phase_5,3,5,63,98,64756288
4018,17,Jits_Phase_5,0,1,48,60,65153368
4018,17,Jits_Phase_5,1,5,56,103,65162604
4018,17,Jits_Phase_5,2,5,80,127,65165520
4018,17,Jits_Phase_5,3,5,63,98,65242468
4018,17,Jits_Phase_5,0,5,80,127,65662304
4018,17,Jits_Phase_5,1,1,48,75,65673388
4018,17,Jits_Phase_5,2,5,63,98,65722632
4018,17,Jits_Phase_5,3,5,56,103,65752380
4018,17,Jits_Phase_5,0,5,63,98,66163240
4018,17,Jits_Phase_5,1,5,80,127,66172312
4018,17,Jits_Phase_5,2,1,48,67,66192016
4018,17,Jits_Phase_5,3,5,56,103,66243056
4018,17,Jits_Phase_5,0,1,48,67,66688276
4018,17,Jits_Phase_5,1,5,56,103,66722024
4018,17,Jits_Phase_5,2,5,80,127,66752820
4018,17,Jits_Phase_5,3,5,63,98,66803004
4018,17,Jits_Phase_5,0,1,48,56,67213332
4018,17,Jits_Phase_5,1,5,63,98,67313280
4018,17,Jits_Phase_5,2,5,56,103,67342576
4018,17,Jits_Phase_5,3,5,80,127,67345720
4018,17,Jits_Phase_5,0,1,48,58,67773888
4018,17,Jits_Phase_5,1,5,63,98,67812648
4018,17,Jits_Phase_5,2,5,80,127,67832060
4018,17,Jits_Phase_5,3,5,56,103,67842404
4018,17,Jits_Phase_5,0,1,48,55,68302616
4018,17,Jits_Phase_5,1,5,56,103,68322644
4018,17,Jits_Phase_5,2,5,63,98,68325784
4018,17,Jits_Phase_5,3,5,80,127,68342204
4018,17,Jits_Phase_5,0,5,56,103,68772256
4018,17,Jits_Phase_5,1,5,63,98,68782376
4018,17,Jits_Phase_5,2,5,80,127,68812124
4018,17,Jits_Phase_5,3,1,48,48,68827452
4018,17,Jits_Phase_5,0,5,63,98,69292300
4018,17,Jits_Phase_5,1,5,80,127,69313056
4018,17,Jits_Phase_5,2,1,48,57,69330940
4018,17,Jits_Phase_5,3,5,56,103,69352764
4018,17,Jits_Phase_5,0,1,48,56,69813948
4018,17,Jits_Phase_5,1,5,56,103,69823188
4018,17,Jits_Phase_5,2,5,63,98,69862900
4018,17,Jits_Phase_5,3,5,80,127,69866188
4018,17,Jits_Phase_5,0,5,80,127,70262140
4018,17,Jits_Phase_5,1,5,56,103,70303000
4018,17,Jits_Phase_5,2,1,48,56,70329860
4018,17,Jits_Phase_5,3,5,63,98,70352144
4018,17,Jits_Phase_5,0,1,48,51,70815364
4018,17,Jits_Phase_5,1,5,56,103,70822436
4018,17,Jits_Phase_5,2,5,80,127,70832704
4018,17,Jits_Phase_5,3,5,63,98,70862304
4018,17,Jits_Phase_5,0,5,56,103,71273000
4018,17,Jits_Phase_5,1,1,48,59,71312888
4018,17,Jits_Phase_5,2,5,80,127,71314456
4018,17,Jits_Phase_5,3,5,63,98,71363304
4018,17,Jits_Phase_5,0,5,56,103,71772448
4018,17,Jits_Phase_5,1,5,80,127,71812412
4018,17,Jits_Phase_5,2,1,48,43,71818220
4018,17,Jits_Phase_5,3,5,63,98,71862752
4018,17,Jits_Phase_5,0,5,80,127,72263124
4018,17,Jits_Phase_5,1,1,48,44,72323432
4018,17,Jits_Phase_5,2,5,63,98,72343084
4018,17,Jits_Phase_5,3,5,56,103,72353204
4018,17,Jits_Phase_5,0,5,80,127,72812840
4018,17,Jits_Phase_5,1,1,48,47,72816784
4018,17,Jits_Phase_5,2,5,56,103,72822208
4018,17,Jits_Phase_5,3,5,63,98,72842764
4018,17,Jits_Phase_5,0,5,63,98,73283140
4018,17,Jits_Phase_5,1,1,48,40,73330232
4018,17,Jits_Phase_5,2,5,56,103,73352544
4018,17,Jits_Phase_5,3,5,80,127,73355832
4018,17,Jits_Phase_5,0,5,80,127,73772456
4018,17,Jits_Phase_5,1,5,63,98,73822436
4018,17,Jits_Phase_5,2,5,56,103,73862472
4018,17,Jits_Phase_5,0,1,48,34,74278148
4018,17,Jits_Phase_5,1,5,63,98,74313020
4018,17,Jits_Phase_5,2,5,56,103,74352956
4018,17,Jits_Phase_5,3,5,80,127,74362180
4018,17,Jits_Phase_5,0,1,48,67,74755116
4018,17,Jits_Phase_5,1,5,63,98,74802568
4018,17,Jits_Phase_5,2,5,56,103,74822952
4018,17,Jits_Phase_5,3,5,80,127,74842436
4018,17,Jits_Phase_5,0,1,48,71,75255896
4018,17,Jits_Phase_5,1,5,80,127,75262440
4018,17,Jits_Phase_5,2,5,56,103,75272488
4018,17,Jits_Phase_5,3,5,63,98,75293168
4018,17,Jits_Phase_5,0,1,48,73,75749476
4018,17,Jits_Phase_5,1,5,63,98,75792960
4018,17,Jits_Phase_5,2,5,56,103,75832896
4018,17,Jits_Phase_5,3,5,80,127,75862332
4018,17,Jits_Phase_5,0,5,56,103,76252472
4018,17,Jits_Phase_5,1,1,48,81,76277840
4018,17,Jits_Phase_5,2,5,63,98,76282216
4018,17,Jits_Phase_5,3,5,80,127,76312860
4018,17,Jits_Phase_5,0,5,80,127,76672364
4018,17,Jits_Phase_5,1,5,56,103,76743016
4018,17,Jits_Phase_5,2,5,63,98,76746080
4018,17,Jits_Phase_5,3,1,48,81,76781576
4018,17,Jits_Phase_5,0,5,56,103,77182268
4018,17,Jits_Phase_5,1,5,63,98,77232640
4018,17,Jits_Phase_5,2,5,80,127,77262164
4018,17,Jits_Phase_5,3,1,48,68,77267004
4018,17,Jits_Phase_5,0,5,63,98,77662756
4018,17,Jits_Phase_5,1,5,80,127,77665968
4018,17,Jits_Phase_5,2,5,56,103,77722944
4018,17,Jits_Phase_5,3,1,48,67,77735128
4018,17,Jits_Phase_5,0,5,56,103,78192892
4018,17,Jits_Phase_5,1,5,80,127,78202340
4018,17,Jits_Phase_5,2,1,48,61,78212532
4018,17,Jits_Phase_5,3,5,63,98,78252260
4018,17,Jits_Phase_5,0,5,63,98,78662888
4018,17,Jits_Phase_5,1,5,56,103,78672188
4018,17,Jits_Phase_5,2,1,48,71,78692616
4018,17,Jits_Phase_5,3,5,80,127,78702900
4018,17,Jits_Phase_5,0,1,48,66,79173072
4018,17,Jits_Phase_5,1,5,63,98,79192724
4018,17,Jits_Phase_5,2,5,80,127,79196012
4018,17,Jits_Phase_5,3,5,56,103,79222024
4018,17,Jits_Phase_5,0,1,48,66,79671148
4018,17,Jits_Phase_5,1,5,63,98,79712604
4018,17,Jits_Phase_5,2,5,56,103,79733208
4018,17,Jits_Phase_5,3,5,80,127,79736200
4018,17,Jits_Phase_5,0,1,48,72,80170204
4018,17,Jits_Phase_5,1,5,63,98,80172320
4018,17,Jits_Phase_5,2,5,56,103,80243120
4018,17,Jits_Phase_5,3,5,80,127,80262628
4018,17,Jits_Phase_5,0,5,56,103,80662840
4018,17,Jits_Phase_5,1,1,48,79,80666256
4018,17,Jits_Phase_5,2,5,63,98,80673252
4018,17,Jits_Phase_5,3,5,80,127,80762260
4018,17,Jits_Phase_5,0,1,48,74,81160140
4018,17,Jits_Phase_5,1,5,56,103,81183028
4018,17,Jits_Phase_5,2,5,80,127,81222892
4018,17,Jits_Phase_5,3,5,63,98,81232264
4018,17,Jits_Phase_5,0,1,48,71,81650656
4018,17,Jits_Phase_5,1,5,56,103,81702168
4018,17,Jits_Phase_5,2,5,63,98,81732964
4018,17,Jits_Phase_5,3,5,80,127,81762844
4018,17,Jits_Phase_5,0,1,48,81,82157440
4018,17,Jits_Phase_5,1,5,80,127,82163016
4018,17,Jits_Phase_5,2,5,63,98,82202956
4018,17,Jits_Phase_5,3,5,56,103,82222588
4018,17,Jits_Phase_5,0,1,48,81,82667732
4018,17,Jits_Phase_5,1,5,56,103,82702676
4018,17,Jits_Phase_5,2,5,80,127,82722164
4018,17,Jits_Phase_5,3,5,63,98,82742772
4018,17,Jits_Phase_5,0,5,63,98,83172672
4018,17,Jits_Phase_5,1,1,48,81,83175792
4018,17,Jits_Phase_5,2,5,56,103,83182936
4018,17,Jits_Phase_5,3,5,80,127,83242276
4018,17,Jits_Phase_5,0,5,56,103,83672624
4018,17,Jits_Phase_5,1,1,48,84,83675068
4018,17,Jits_Phase_5,2,5,63,98,83743124
4018,17,Jits_Phase_5,3,5,80,127,83762460
4018,17,Jits_Phase_5,0,5,56,103,84172000
4018,17,Jits_Phase_5,1,1,48,78,84180372
4018,17,Jits_Phase_5,2,5,63,98,84202788
4018,17,Jits_Phase_5,3,5,80,127,84242872
4018,17,Jits_Phase_5,0,5,63,98,84662676
4018,17,Jits_Phase_5,1,1,48,80,84671796
4018,17,Jits_Phase_5,2,5,56,103,84712796
4018,17,Jits_Phase_5,3,5,80,127,84723064
4018,17,Jits_Phase_5,0,1,48,78,85167236
4018,17,Jits_Phase_5,1,5,56,103,85202700
4018,17,Jits_Phase_5,2,5,63,98,85252752
4018,17,Jits_Phase_5,3,5,80,127,85262724
4018,17,Jits_Phase_5,0,1,48,77,85661660
4018,17,Jits_Phase_5,1,5,56,103,85672248
4018,17,Jits_Phase_5,2,5,63,98,85682516
4018,17,Jits_Phase_5,3,5,80,127,85762516
4018,17,Jits_Phase_5,0,9999,9999,9999,1420388
4018,17,Jits_Phase_5,1,9999,9999,9999,1920080
4018,17,Jits_Phase_5,2,9999,9999,9999,2419792
4018,17,Jits_Phase_5,3,9999,9999,9999,2920576
4018,17,Jits_Phase_5,4,9999,9999,9999,3420228
4018,17,Jits_Phase_5,5,9999,9999,9999,3919956
4018,17,Jits_Phase_5,6,9999,9999,9999,4420724
4018,17,Jits_Phase_5,7,9999,9999,9999,4920392
4018,17,Jits_Phase_5,8,9999,9999,9999,5420132
4018,17,Jits_Phase_5,9,9999,9999,9999,5919872
4018,17,Jits_Phase_5,10,9999,9999,9999,6420584
4018,17,Jits_Phase_5,11,9999,9999,9999,6920252
4018,17,Jits_Phase_5,12,9999,9999,9999,7419964
4018,17,Jits_Phase_5,13,9999,9999,9999,7920732
4018,17,Jits_Phase_5,14,9999,9999,9999,8420456
4018,17,Jits_Phase_5,15,9999,9999,9999,8920124
4018,17,Jits_Phase_5,16,9999,9999,9999,9419864
4018,17,Jits_Phase_5,17,9999,9999,9999,9920636
4018,17,Jits_Phase_5,18,9999,9999,9999,10420304
4018,17,Jits_Phase_5,19,9999,9999,9999,10920048
4018,17,Jits_Phase_5,20,9999,9999,9999,11420764
4018,17,Jits_Phase_5,21,9999,9999,9999,11920504
4018,17,Jits_Phase_5,22,9999,9999,9999,12420172
4018,17,Jits_Phase_5,23,9999,9999,9999,12919892
4018,17,Jits_Phase_5,24,9999,9999,9999,13420608
4018,17,Jits_Phase_5,25,9999,9999,9999,13920340
4018,17,Jits_Phase_5,26,9999,9999,9999,14420084
4018,17,Jits_Phase_5,27,9999,9999,9999,14920776
4018,17,Jits_Phase_5,28,9999,9999,9999,15430784
4018,17,Jits_Phase_5,29,9999,9999,9999,15930452
4018,17,Jits_Phase_5,30,9999,9999,9999,16419932
4018,17,Jits_Phase_5,31,9999,9999,9999,16920648
4018,17,Jits_Phase_5,32,9999,9999,9999,17420388
4018,17,Jits_Phase_5,33,9999,9999,9999,17920060
4018,17,Jits_Phase_5,34,9999,9999,9999,18419804
4018,17,Jits_Phase_5,35,9999,9999,9999,18920520
4018,17,Jits_Phase_5,36,9999,9999,9999,19420240
4018,17,Jits_Phase_5,37,9999,9999,9999,19919972
4018,17,Jits_Phase_5,38,9999,9999,9999,20420676
4018,17,Jits_Phase_5,39,9999,9999,9999,20920408
4018,17,Jits_Phase_5,40,9999,9999,9999,21420144
4018,17,Jits_Phase_5,41,9999,9999,9999,21919808
4018,17,Jits_Phase_5,42,9999,9999,9999,22420596
4018,17,Jits_Phase_5,43,9999,9999,9999,22920252
4018,17,Jits_Phase_5,44,9999,9999,9999,23420024
4018,17,Jits_Phase_5,45,9999,9999,9999,23920720
4018,17,Jits_Phase_5,46,9999,9999,9999,24420444
4018,17,Jits_Phase_5,47,9999,9999,9999,24920184
4018,17,Jits_Phase_5,48,9999,9999,9999,25430104
4018,17,Jits_Phase_5,49,9999,9999,9999,25929840
4018,17,Jits_Phase_5,50,9999,9999,9999,26430532
4018,17,Jits_Phase_5,51,9999,9999,9999,26930280
4018,17,Jits_Phase_5,52,9999,9999,9999,27429952
4018,17,Jits_Phase_5,53,9999,9999,9999,27930716
4018,17,Jits_Phase_5,54,9999,9999,9999,28430444
4018,17,Jits_Phase_5,55,9999,9999,9999,28930120
4018,17,Jits_Phase_5,56,9999,9999,9999,29429864
4018,17,Jits_Phase_5,57,9999,9999,9999,29930572
4018,17,Jits_Phase_5,58,9999,9999,9999,30430304
4018,17,Jits_Phase_5,59,9999,9999,9999,30930020
4018,17,Jits_Phase_5,60,9999,9999,9999,31430744
4018,17,Jits_Phase_5,61,9999,9999,9999,31930468
4018,17,Jits_Phase_5,62,9999,9999,9999,32430136
4018,17,Jits_Phase_5,63,9999,9999,9999,32929880
4018,17,Jits_Phase_5,64,9999,9999,9999,33450064
4018,17,Jits_Phase_5,65,9999,9999,9999,33950776
4018,17,Jits_Phase_5,66,9999,9999,9999,34460788
4018,17,Jits_Phase_5,67,9999,9999,9999,34960504
4018,17,Jits_Phase_5,68,9999,9999,9999,35460176
4018,17,Jits_Phase_5,69,9999,9999,9999,35959880
4018,17,Jits_Phase_5,70,9999,9999,9999,36460644
4018,17,Jits_Phase_5,71,9999,9999,9999,36960316
4018,17,Jits_Phase_5,72,9999,9999,9999,37460060
4018,17,Jits_Phase_5,73,9999,9999,9999,37960760
4018,17,Jits_Phase_5,74,9999,9999,9999,38470756
4018,17,Jits_Phase_5,75,9999,9999,9999,38970484
4018,17,Jits_Phase_5,76,9999,9999,9999,39470156
4018,17,Jits_Phase_5,77,9999,9999,9999,39969892
4018,17,Jits_Phase_5,78,9999,9999,9999,40470608
4018,17,Jits_Phase_5,79,9999,9999,9999,40970356
4018,17,Jits_Phase_5,80,9999,9999,9999,41470012
4018,17,Jits_Phase_5,81,9999,9999,9999,41950264
4018,17,Jits_Phase_5,82,9999,9999,9999,42450008
4018,17,Jits_Phase_5,83,9999,9999,9999,42950784
4018,17,Jits_Phase_5,84,9999,9999,9999,43450456
4018,17,Jits_Phase_5,85,9999,9999,9999,43950180
4018,17,Jits_Phase_5,86,9999,9999,9999,44449904
4018,17,Jits_Phase_5,87,9999,9999,9999,44950620
4018,17,Jits_Phase_5,88,9999,9999,9999,45450348
4018,17,Jits_Phase_5,89,9999,9999,9999,45950056
4018,17,Jits_Phase_5,90,9999,9999,9999,46450768
4018,17,Jits_Phase_5,91,9999,9999,9999,46950496
4018,17,Jits_Phase_5,92,9999,9999,9999,47450224
4018,17,Jits_Phase_5,93,9999,9999,9999,47949888
4018,17,Jits_Phase_5,94,9999,9999,9999,48450660
4018,17,Jits_Phase_5,95,9999,9999,9999,48950332
4018,17,Jits_Phase_5,96,9999,9999,9999,49450076
4018,17,Jits_Phase_5,97,9999,9999,9999,49900656
4018,17,Jits_Phase_5,98,9999,9999,9999,50400312
4018,17,Jits_Phase_5,99,9999,9999,9999,50900056
4018,17,Jits_Phase_5,100,9999,9999,9999,51400760
4018,17,Jits_Phase_5,101,9999,9999,9999,51910772
4018,17,Jits_Phase_5,102,9999,9999,9999,52410428
4018,17,Jits_Phase_5,103,9999,9999,9999,52910164
4018,17,Jits_Phase_5,104,9999,9999,9999,53409892
4018,17,Jits_Phase_5,105,9999,9999,9999,53910640
4018,17,Jits_Phase_5,106,9999,9999,9999,54410292
4018,17,Jits_Phase_5,107,9999,9999,9999,54910072
4018,17,Jits_Phase_5,108,9999,9999,9999,55410760
4018,17,Jits_Phase_5,109,9999,9999,9999,55910492
4018,17,Jits_Phase_5,110,9999,9999,9999,56410224
4018,17,Jits_Phase_5,111,9999,9999,9999,56909880
4018,17,Jits_Phase_5,112,9999,9999,9999,57410652
4018,17,Jits_Phase_5,113,9999,9999,9999,57910388
4018,17,Jits_Phase_5,114,9999,9999,9999,58460236
4018,17,Jits_Phase_5,115,9999,9999,9999,58959960
4018,17,Jits_Phase_5,116,9999,9999,9999,59460736
4018,17,Jits_Phase_5,117,9999,9999,9999,59960408
4018,17,Jits_Phase_5,118,9999,9999,9999,60460152
4018,17,Jits_Phase_5,119,9999,9999,9999,60959800
4018,17,Jits_Phase_5,120,9999,9999,9999,61460592
4018,17,Jits_Phase_5,121,9999,9999,9999,61960264
4018,17,Jits_Phase_5,122,9999,9999,9999,62460008
4018,17,Jits_Phase_5,123,9999,9999,9999,62960724
4018,17,Jits_Phase_5,124,9999,9999,9999,63460452
4018,17,Jits_Phase_5,125,9999,9999,9999,63960184
4018,17,Jits_Phase_5,126,9999,9999,9999,64459856
4018,17,Jits_Phase_5,127,9999,9999,9999,64960624
4018,17,Jits_Phase_5,128,9999,9999,9999,65460284
4018,17,Jits_Phase_5,129,9999,9999,9999,65960008
4018,17,Jits_Phase_5,130,9999,9999,9999,66460796
4018,17,Jits_Phase_5,131,9999,9999,9999,67059792
4018,17,Jits_Phase_5,132,9999,9999,9999,67560560
4018,17,Jits_Phase_5,133,9999,9999,9999,68060220
4018,17,Jits_Phase_5,134,9999,9999,9999,68559944
4018,17,Jits_Phase_5,135,9999,9999,9999,69060716
4018,17,Jits_Phase_5,136,9999,9999,9999,69560388
4018,17,Jits_Phase_5,137,9999,9999,9999,70060116
4018,17,Jits_Phase_5,138,9999,9999,9999,70559844
4018,17,Jits_Phase_5,139,9999,9999,9999,71060568
4018,17,Jits_Phase_5,140,9999,9999,9999,71560296
4018,17,Jits_Phase_5,141,9999,9999,9999,72060020
4018,17,Jits_Phase_5,142,9999,9999,9999,72560732
4018,17,Jits_Phase_5,143,9999,9999,9999,73060404
4018,17,Jits_Phase_5,144,9999,9999,9999,73560144
4018,17,Jits_Phase_5,145,9999,9999,9999,74059900
4018,17,Jits_Phase_5,146,9999,9999,9999,74560592
4018,17,Jits_Phase_5,147,9999,9999,9999,75060328
4018,17,Jits_Phase_5,148,9999,9999,9999,75560052
4018,17,Jits_Phase_5,149,9999,9999,9999,76060760
4018,17,Jits_Phase_5,150,9999,9999,9999,76460112
4018,17,Jits_Phase_5,151,9999,9999,9999,76959852
4018,17,Jits_Phase_5,152,9999,9999,9999,77460572
4018,17,Jits_Phase_5,153,9999,9999,9999,77960300
4018,17,Jits_Phase_5,154,9999,9999,9999,78460008
4018,17,Jits_Phase_5,155,9999,9999,9999,78960716
4018,17,Jits_Phase_5,156,9999,9999,9999,79460436
4018,17,Jits_Phase_5,157,9999,9999,9999,79960164
4018,17,Jits_Phase_5,158,9999,9999,9999,80459896
4018,17,Jits_Phase_5,159,9999,9999,9999,80960596
4018,17,Jits_Phase_5,160,9999,9999,9999,81460340
4018,17,Jits_Phase_5,161,9999,9999,9999,81960004
4018,17,Jits_Phase_5,162,9999,9999,9999,82460780
4018,17,Jits_Phase_5,163,9999,9999,9999,82960436
4018,17,Jits_Phase_5,164,9999,9999,9999,83460164
4018,17,Jits_Phase_5,165,9999,9999,9999,83959896
4018,17,Jits_Phase_5,166,9999,9999,9999,84460612
4018,17,Jits_Phase_5,167,9999,9999,9999,84960356
4018,17,Jits_Phase_5,168,9999,9999,9999,85460092
4018,17,Jits_Phase_5,169,9999,9999,9999,85960792
4019,15,Jits_Phase_8,0,5,56,103,95137132
4019,15,Jits_Phase_8,1,5,63,98,95140228
4019,15,Jits_Phase_8,2,5,80,127,95143352
4019,15,Jits_Phase_8,0,5,56,103,95936860
4019,15,Jits_Phase_8,1,5,63,98,95940332
4019,15,Jits_Phase_8,2,5,80,127,95943304
4019,15,Jits_Phase_8,0,5,80,127,96676288
4019,15,Jits_Phase_8,1,1,48,79,96739116
4019,15,Jits_Phase_8,2,5,63,98,96766268
4019,15,Jits_Phase_8,3,5,56,103,96776612
4019,15,Jits_Phase_8,0,5,56,103,97496424
4019,15,Jits_Phase_8,1,5,63,98,97506620
4019,15,Jits_Phase_8,2,1,48,78,97516564
4019,15,Jits_Phase_8,3,5,80,127,97596740
4019,15,Jits_Phase_8,0,5,63,98,98266432
4019,15,Jits_Phase_8,1,1,48,65,98270672
4019,15,Jits_Phase_8,2,5,80,127,98296248
4019,15,Jits_Phase_8,3,5,56,103,98327044
4019,15,Jits_Phase_8,0,1,48,69,99035940
4019,15,Jits_Phase_8,1,5,56,103,99066160
4019,15,Jits_Phase_8,2,5,80,127,99166544
4019,15,Jits_Phase_8,3,5,63,98,99216916
4019,15,Jits_Phase_8,0,1,48,73,99831556
4019,15,Jits_Phase_8,1,5,56,103,99867100
4019,15,Jits_Phase_8,2,5,80,127,99916180
4019,15,Jits_Phase_8,3,5,63,98,99957004
4019,15,Jits_Phase_8,0,1,48,69,100639392
4019,15,Jits_Phase_8,1,5,80,127,100696432
4019,15,Jits_Phase_8,2,5,63,98,100726112
4019,15,Jits_Phase_8,3,5,56,103,100796772
4019,15,Jits_Phase_8,0,1,48,73,101466864
4019,15,Jits_Phase_8,1,5,63,98,101527072
4019,15,Jits_Phase_8,2,5,56,103,101556600
4019,15,Jits_Phase_8,3,5,80,127,101617196
4019,15,Jits_Phase_8,0,5,56,103,102266196
4019,15,Jits_Phase_8,1,5,80,127,102269116
4019,15,Jits_Phase_8,2,1,48,76,102305132
4019,15,Jits_Phase_8,3,5,63,98,102387032
4019,15,Jits_Phase_8,0,1,48,72,103062984
4019,15,Jits_Phase_8,1,5,56,103,103147080
4019,15,Jits_Phase_8,2,5,80,127,103187076
4019,15,Jits_Phase_8,3,5,63,98,103197200
4019,15,Jits_Phase_8,0,1,48,73,103896836
4019,15,Jits_Phase_8,1,5,56,103,103906676
4019,15,Jits_Phase_8,2,5,80,127,103926164
4019,15,Jits_Phase_8,3,5,63,98,104007064
4019,15,Jits_Phase_8,0,5,80,127,104696092
4019,15,Jits_Phase_8,1,1,48,80,104708052
4019,15,Jits_Phase_8,2,5,56,103,104796408
4019,15,Jits_Phase_8,3,5,63,98,104808380
4019,15,Jits_Phase_8,0,5,63,98,105466188
4019,15,Jits_Phase_8,1,1,48,63,105513432
4019,15,Jits_Phase_8,2,5,80,127,105526576
4019,15,Jits_Phase_8,3,5,56,103,105536996
4019,15,Jits_Phase_8,0,1,48,68,106246204
4019,15,Jits_Phase_8,1,5,56,103,106266976
4019,15,Jits_Phase_8,2,5,63,98,106336580
4019,15,Jits_Phase_8,3,5,80,127,106340168
4019,15,Jits_Phase_8,0,1,48,76,107044436
4019,15,Jits_Phase_8,1,5,63,98,107096600
4019,15,Jits_Phase_8,2,5,56,103,107146664
4019,15,Jits_Phase_8,3,5,80,127,107149732
4019,15,Jits_Phase_8,0,5,56,103,107856260
4019,15,Jits_Phase_8,1,1,48,75,107859256
4019,15,Jits_Phase_8,2,5,80,127,107860888
4019,15,Jits_Phase_8,3,5,63,98,107946260
4019,15,Jits_Phase_8,0,1,48,59,108660992
4019,15,Jits_Phase_8,1,5,63,98,108696932
4019,15,Jits_Phase_8,2,5,56,103,108787052
4019,15,Jits_Phase_8,3,5,80,127,108816948
4019,15,Jits_Phase_8,0,1,48,76,109446984
4019,15,Jits_Phase_8,1,5,56,103,109486492
4019,15,Jits_Phase_8,2,5,63,98,109586728
4019,15,Jits_Phase_8,3,5,80,127,109616624
4019,15,Jits_Phase_8,0,1,48,75,110295064
4019,15,Jits_Phase_8,1,5,63,98,110306768
4019,15,Jits_Phase_8,2,5,56,103,110316892
4019,15,Jits_Phase_8,3,5,80,127,110407008
4019,15,Jits_Phase_8,0,1,48,79,111103932
4019,15,Jits_Phase_8,1,5,63,98,111126748
4019,15,Jits_Phase_8,2,5,56,103,111206824
4019,15,Jits_Phase_8,3,5,80,127,111209744
4019,15,Jits_Phase_8,0,5,80,127,111886640
4019,15,Jits_Phase_8,1,5,63,98,111906208
4019,15,Jits_Phase_8,2,1,48,74,111947536
4019,15,Jits_Phase_8,3,5,56,103,111966736
4019,15,Jits_Phase_8,0,1,48,72,112702996
4019,15,Jits_Phase_8,1,5,56,103,112726404
4019,15,Jits_Phase_8,2,5,63,98,112746708
4019,15,Jits_Phase_8,3,5,80,127,112749932
4019,15,Jits_Phase_8,0,5,63,98,113466664
4019,15,Jits_Phase_8,1,1,48,75,113503188
4019,15,Jits_Phase_8,2,5,80,127,113546776
4019,15,Jits_Phase_8,3,5,56,103,113556824
4019,15,Jits_Phase_8,0,5,63,98,114286936
4019,15,Jits_Phase_8,1,1,48,83,114297252
4019,15,Jits_Phase_8,2,5,56,103,114306368
4019,15,Jits_Phase_8,3,5,80,127,114356640
4019,15,Jits_Phase_8,0,5,80,127,115086632
4019,15,Jits_Phase_8,1,1,48,89,115087528
4019,15,Jits_Phase_8,2,5,63,98,115126788
4019,15,Jits_Phase_8,3,5,56,103,115147024
4019,15,Jits_Phase_8,0,1,48,81,115901412
4019,15,Jits_Phase_8,1,5,56,103,115926544
4019,15,Jits_Phase_8,2,5,63,98,115936592
4019,15,Jits_Phase_8,3,5,80,127,115957052
4019,15,Jits_Phase_8,0,5,56,103,116656696
4019,15,Jits_Phase_8,1,1,48,79,116743044
4019,15,Jits_Phase_8,2,5,63,98,116746676
4019,15,Jits_Phase_8,3,5,80,127,116806988
4019,15,Jits_Phase_8,0,5,80,127,117486948
4019,15,Jits_Phase_8,1,1,48,94,117494356
4019,15,Jits_Phase_8,2,5,56,103,117496244
4019,15,Jits_Phase_8,3,5,63,98,117566820
4019,15,Jits_Phase_8,0,1,48,82,118313788
4019,15,Jits_Phase_8,1,5,63,98,118316820
4019,15,Jits_Phase_8,2,5,80,127,118406532
4019,15,Jits_Phase_8,3,5,56,103,118416712
4019,15,Jits_Phase_8,0,5,63,98,119046456
4019,15,Jits_Phase_8,1,5,80,127,119096660
4019,15,Jits_Phase_8,2,5,56,103,119157048
4019,15,Jits_Phase_8,3,1,48,58,119164372
4019,15,Jits_Phase_8,0,5,56,103,119866776
4019,15,Jits_Phase_8,1,1,48,62,119872216
4019,15,Jits_Phase_8,2,5,80,127,119916976
4019,15,Jits_Phase_8,3,5,63,98,119936488
4019,15,Jits_Phase_8,0,5,56,103,120636724
4019,15,Jits_Phase_8,1,1,48,79,120645768
4019,15,Jits_Phase_8,2,5,80,127,120696284
4019,15,Jits_Phase_8,3,5,63,98,120766796
4019,15,Jits_Phase_8,0,5,56,103,121436488
4019,15,Jits_Phase_8,1,5,80,127,121466460
4019,15,Jits_Phase_8,2,5,63,98,121496812
4019,15,Jits_Phase_8,3,1,48,78,121506228
4019,15,Jits_Phase_8,0,5,56,103,122276252
4019,15,Jits_Phase_8,1,5,80,127,122296636
4019,15,Jits_Phase_8,2,1,48,66,122312936
4019,15,Jits_Phase_8,3,5,63,98,122357316
4019,15,Jits_Phase_8,0,1,48,77,123072448
4019,15,Jits_Phase_8,1,5,80,127,123156848
4019,15,Jits_Phase_8,2,5,56,103,123168596
4019,15,Jits_Phase_8,3,5,63,98,123176324
4019,15,Jits_Phase_8,0,1,48,81,123911156
4019,15,Jits_Phase_8,1,5,56,103,123916584
4019,15,Jits_Phase_8,2,5,80,127,123956524
4019,15,Jits_Phase_8,3,5,63,98,123986572
4019,15,Jits_Phase_8,0,1,48,57,124681472
4019,15,Jits_Phase_8,1,5,56,103,124686820
4019,15,Jits_Phase_8,2,5,63,98,124716348
4019,15,Jits_Phase_8,3,5,80,127,124756208
4019,15,Jits_Phase_8,0,1,48,70,125429376
4019,15,Jits_Phase_8,1,5,80,127,125436224
4019,15,Jits_Phase_8,2,5,63,98,125486576
4019,15,Jits_Phase_8,3,5,56,103,125506808
4019,15,Jits_Phase_8,0,1,48,67,126216388
4019,15,Jits_Phase_8,1,5,56,103,126266684
4019,15,Jits_Phase_8,2,5,80,127,126336224
4019,15,Jits_Phase_8,3,5,63,98,126396764
4019,15,Jits_Phase_8,0,5,80,127,127066364
4019,15,Jits_Phase_8,1,1,48,68,127073220
4019,15,Jits_Phase_8,2,5,63,98,127156516
4019,15,Jits_Phase_8,3,5,56,103,127177412
4019,15,Jits_Phase_8,0,5,63,98,127886684
4019,15,Jits_Phase_8,1,1,48,61,127898720
4019,15,Jits_Phase_8,2,5,56,103,127906088
4019,15,Jits_Phase_8,3,5,80,127,127947148
4019,15,Jits_Phase_8,0,5,80,127,128646496
4019,15,Jits_Phase_8,1,5,63,98,128667104
4019,15,Jits_Phase_8,2,1,48,82,128714360
4019,15,Jits_Phase_8,3,5,56,103,128746816
4019,15,Jits_Phase_8,0,1,48,80,129397196
4019,15,Jits_Phase_8,1,5,63,98,129437252
4019,15,Jits_Phase_8,2,5,56,103,129546552
4019,15,Jits_Phase_8,3,5,80,127,129549544
4019,15,Jits_Phase_8,0,1,48,81,130171520
4019,15,Jits_Phase_8,1,5,63,98,130256216
4019,15,Jits_Phase_8,2,5,56,103,130266468
4019,15,Jits_Phase_8,3,5,80,127,130269536
4019,15,Jits_Phase_8,0,1,48,92,130984976
4019,15,Jits_Phase_8,1,5,56,103,131036392
4019,15,Jits_Phase_8,2,5,80,127,131156328
4019,15,Jits_Phase_8,3,5,63,98,131196364
4019,15,Jits_Phase_8,0,5,56,103,131856748
4019,15,Jits_Phase_8,1,5,80,127,131936696
4019,15,Jits_Phase_8,2,5,63,98,131957228
4019,15,Jits_Phase_8,3,1,48,71,131967940
4019,15,Jits_Phase_8,0,5,56,103,132656436
4019,15,Jits_Phase_8,1,5,63,98,132767120
4019,15,Jits_Phase_8,2,5,80,127,132770484
4019,15,Jits_Phase_8,3,1,48,59,132786796
4019,15,Jits_Phase_8,0,5,56,103,133496048
4019,15,Jits_Phase_8,1,1,48,71,133515080
4019,15,Jits_Phase_8,2,5,80,127,133527236
4019,15,Jits_Phase_8,3,5,63,98,133546280
4019,15,Jits_Phase_8,0,1,48,65,134274384
4019,15,Jits_Phase_8,1,5,63,98,134286688
4019,15,Jits_Phase_8,2,5,56,103,134296956
4019,15,Jits_Phase_8,3,5,80,127,134306108
4019,15,Jits_Phase_8,0,5,80,127,135076096
4019,15,Jits_Phase_8,1,1,48,68,135077064
4019,15,Jits_Phase_8,2,5,56,103,135126368
4019,15,Jits_Phase_8,3,5,63,98,135166380
4019,15,Jits_Phase_8,0,1,48,78,135887360
4019,15,Jits_Phase_8,1,5,80,127,135896452
4019,15,Jits_Phase_8,2,5,63,98,135916984
4019,15,Jits_Phase_8,3,5,56,103,135967040
4019,15,Jits_Phase_8,0,5,80,127,136706468
4019,15,Jits_Phase_8,1,1,48,62,136717080
4019,15,Jits_Phase_8,2,5,56,103,136737260
4019,15,Jits_Phase_8,3,5,63,98,136806936
4019,15,Jits_Phase_8,0,1,48,68,137532188
4019,15,Jits_Phase_8,1,5,56,103,137556272
4019,15,Jits_Phase_8,2,5,80,127,137566764
4019,15,Jits_Phase_8,3,5,63,98,137606652
4019,15,Jits_Phase_8,0,5,56,103,138266948
4019,15,Jits_Phase_8,1,5,63,98,138286440
4019,15,Jits_Phase_8,2,1,48,81,138337276
4019,15,Jits_Phase_8,3,5,80,127,138357008
4019,15,Jits_Phase_8,0,1,48,70,139077536
4019,15,Jits_Phase_8,1,5,63,98,139086180
4019,15,Jits_Phase_8,2,5,80,127,139146820
4019,15,Jits_Phase_8,3,5,56,103,139167056
4019,15,Jits_Phase_8,0,1,48,61,139858704
4019,15,Jits_Phase_8,1,5,80,127,139876936
4019,15,Jits_Phase_8,2,5,56,103,139906412
4019,15,Jits_Phase_8,3,5,63,98,139937208
4019,15,Jits_Phase_8,0,1,48,65,140627356
4019,15,Jits_Phase_8,1,5,56,103,140676628
4019,15,Jits_Phase_8,2,5,63,98,140736856
4019,15,Jits_Phase_8,3,5,80,127,140796420
4019,15,Jits_Phase_8,0,1,48,65,141428752
4019,15,Jits_Phase_8,1,5,80,127,141496680
4019,15,Jits_Phase_8,2,5,56,103,141516092
4019,15,Jits_Phase_8,3,5,63,98,141586804
4019,15,Jits_Phase_8,0,5,80,127,142296360
4019,15,Jits_Phase_8,1,5,63,98,142316968
4019,15,Jits_Phase_8,2,1,48,64,142332148
4019,15,Jits_Phase_8,3,5,56,103,142346860
4019,15,Jits_Phase_8,0,5,80,127,143086904
4019,15,Jits_Phase_8,1,1,48,74,143097144
4019,15,Jits_Phase_8,2,5,63,98,143106532
4019,15,Jits_Phase_8,3,5,56,103,143166772
4019,15,Jits_Phase_8,0,1,48,65,143852012
4019,15,Jits_Phase_8,1,5,80,127,143886808
4019,15,Jits_Phase_8,2,5,56,103,143987192
4019,15,Jits_Phase_8,3,5,63,98,144016888
4019,15,Jits_Phase_8,0,5,63,98,144676152
4019,15,Jits_Phase_8,1,1,48,63,144698004
4019,15,Jits_Phase_8,2,5,80,127,144726496
4019,15,Jits_Phase_8,3,5,56,103,144746808
4019,15,Jits_Phase_8,0,1,48,76,145495124
4019,15,Jits_Phase_8,1,5,80,127,145516868
4019,15,Jits_Phase_8,2,5,56,103,145547020
4019,15,Jits_Phase_8,3,5,63,98,145549936
4019,15,Jits_Phase_8,0,1,48,64,146342448
4019,15,Jits_Phase_8,1,5,63,98,146366756
4019,15,Jits_Phase_8,2,5,56,103,146406696
4019,15,Jits_Phase_8,3,5,80,127,146426332
4019,15,Jits_Phase_8,0,1,48,60,147098152
4019,15,Jits_Phase_8,1,5,80,127,147126724
4019,15,Jits_Phase_8,2,5,63,98,147206580
4019,15,Jits_Phase_8,3,5,56,103,147246440
4019,15,Jits_Phase_8,0,5,63,98,147946852
4019,15,Jits_Phase_8,1,1,48,60,147959864
4019,15,Jits_Phase_8,2,5,80,127,148026792
4019,15,Jits_Phase_8,3,5,56,103,148046128
4019,15,Jits_Phase_8,0,1,48,58,148758484
4019,15,Jits_Phase_8,1,5,56,103,148786456
4019,15,Jits_Phase_8,2,5,63,98,148796728
4019,15,Jits_Phase_8,3,5,80,127,148836592
4019,15,Jits_Phase_8,0,5,56,103,149506496
4019,15,Jits_Phase_8,1,5,80,127,149509492
4019,15,Jits_Phase_8,2,1,48,72,149593664
4019,15,Jits_Phase_8,3,5,63,98,149646764
4019,15,Jits_Phase_8,0,5,56,103,150296884
4019,15,Jits_Phase_8,1,1,48,71,150376648
4019,15,Jits_Phase_8,2,5,63,98,150387008
4019,15,Jits_Phase_8,3,5,80,127,150456788
4019,15,Jits_Phase_8,0,1,48,70,151134980
4019,15,Jits_Phase_8,1,5,63,98,151176532
4019,15,Jits_Phase_8,2,5,80,127,151180044
4019,15,Jits_Phase_8,3,5,56,103,151236828
4019,15,Jits_Phase_8,0,1,48,67,151957292
4019,15,Jits_Phase_8,1,5,80,127,152016356
4019,15,Jits_Phase_8,2,5,56,103,152036668
4019,15,Jits_Phase_8,3,5,63,98,152047160
4019,15,Jits_Phase_8,0,5,56,103,152726816
4019,15,Jits_Phase_8,1,5,63,98,152737088
4019,15,Jits_Phase_8,2,5,80,127,152806764
4019,15,Jits_Phase_8,3,1,48,57,152825768
4019,15,Jits_Phase_8,0,5,80,127,153526576
4019,15,Jits_Phase_8,1,5,56,103,153576852
4019,15,Jits_Phase_8,2,1,48,58,153599524
4019,15,Jits_Phase_8,3,5,63,98,153627192
4019,15,Jits_Phase_8,0,5,56,103,154406200
4019,15,Jits_Phase_8,1,1,48,57,154407540
4019,15,Jits_Phase_8,2,5,63,98,154416464
4019,15,Jits_Phase_8,3,5,80,127,154456400
4019,15,Jits_Phase_8,0,5,56,103,155146556
4019,15,Jits_Phase_8,1,5,63,98,155186568
4019,15,Jits_Phase_8,2,1,48,70,155232684
4019,15,Jits_Phase_8,3,5,80,127,155236764
4019,15,Jits_Phase_8,0,5,80,127,155906384
4019,15,Jits_Phase_8,1,5,56,103,155956588
4019,15,Jits_Phase_8,2,5,63,98,155977272
4019,15,Jits_Phase_8,3,1,48,62,156000092
4019,15,Jits_Phase_8,0,5,80,127,156716408
4019,15,Jits_Phase_8,1,1,48,51,156732856
4019,15,Jits_Phase_8,2,5,63,98,156776792
4019,15,Jits_Phase_8,3,5,56,103,156856668
4019,15,Jits_Phase_8,0,5,80,127,157496692
4019,15,Jits_Phase_8,1,5,56,103,157536480
4019,15,Jits_Phase_8,2,1,48,63,157548140
4019,15,Jits_Phase_8,3,5,63,98,157557232
4019,15,Jits_Phase_8,0,1,48,65,158299560
4019,15,Jits_Phase_8,1,5,56,103,158346588
4019,15,Jits_Phase_8,2,5,80,127,158356932
4019,15,Jits_Phase_8,3,5,63,98,158396780
4019,15,Jits_Phase_8,0,1,48,68,159163532
4019,15,Jits_Phase_8,1,5,56,103,159217284
4019,15,Jits_Phase_8,2,5,63,98,159257820
4019,15,Jits_Phase_8,3,5,80,127,159261024
4019,15,Jits_Phase_8,0,5,63,98,159886972
4019,15,Jits_Phase_8,1,5,80,127,159926616
4019,15,Jits_Phase_8,2,1,48,59,159965256
4019,15,Jits_Phase_8,3,5,56,103,159996364
4019,15,Jits_Phase_8,0,5,63,98,160656832
4019,15,Jits_Phase_8,1,5,56,103,160736480
4019,15,Jits_Phase_8,2,1,48,67,160738344
4019,15,Jits_Phase_8,3,5,80,127,160797308
4019,15,Jits_Phase_8,0,5,80,127,161466692
4019,15,Jits_Phase_8,1,5,63,98,161517044
4019,15,Jits_Phase_8,2,1,48,62,161532000
4019,15,Jits_Phase_8,3,5,56,103,161546636
4019,15,Jits_Phase_8,0,5,56,103,162256332
4019,15,Jits_Phase_8,1,5,63,98,162306536
4019,15,Jits_Phase_8,2,5,80,127,162316584
4019,15,Jits_Phase_8,3,1,48,69,162333180
4019,15,Jits_Phase_8,0,1,48,78,163052904
4019,15,Jits_Phase_8,1,5,56,103,163066124
4019,15,Jits_Phase_8,2,5,63,98,163176920
4019,15,Jits_Phase_8,3,5,80,127,163196356
4019,15,Jits_Phase_8,0,5,63,98,163867224
4019,15,Jits_Phase_8,1,5,80,127,163916008
4019,15,Jits_Phase_8,2,1,48,59,163929468
4019,15,Jits_Phase_8,3,5,56,103,164006232
4019,15,Jits_Phase_8,0,5,63,98,164656556
4019,15,Jits_Phase_8,1,5,80,127,164686232
4019,15,Jits_Phase_8,2,1,48,54,164760920
4019,15,Jits_Phase_8,3,5,56,103,164776304
4019,15,Jits_Phase_8,0,5,63,98,165456224
4019,15,Jits_Phase_8,1,5,56,103,165466420
4019,15,Jits_Phase_8,2,1,48,51,165502076
4019,15,Jits_Phase_8,3,5,80,127,165566904
4019,15,Jits_Phase_8,0,1,48,68,166278656
4019,15,Jits_Phase_8,1,5,63,98,166356228
4019,15,Jits_Phase_8,2,5,80,127,166387160
4019,15,Jits_Phase_8,3,5,56,103,166416688
4019,15,Jits_Phase_8,0,1,48,51,167170936
4019,15,Jits_Phase_8,1,5,80,127,167176440
4019,15,Jits_Phase_8,2,5,63,98,167186932
4019,15,Jits_Phase_8,3,5,56,103,167216460
4019,15,Jits_Phase_8,0,5,80,127,167876924
4019,15,Jits_Phase_8,1,5,63,98,167896560
4019,15,Jits_Phase_8,2,5,56,103,167946540
4019,15,Jits_Phase_8,3,1,48,45,168016260
4019,15,Jits_Phase_8,0,5,63,98,168706352
4019,15,Jits_Phase_8,1,1,48,44,168727980
4019,15,Jits_Phase_8,2,5,80,127,168766960
4019,15,Jits_Phase_8,3,5,56,103,168786224
4019,15,Jits_Phase_8,0,5,63,98,169466168
4019,15,Jits_Phase_8,1,5,56,103,169516372
4019,15,Jits_Phase_8,2,5,80,127,169526564
4019,15,Jits_Phase_8,3,1,48,57,169538904
4019,15,Jits_Phase_8,0,1,48,66,170259880
4019,15,Jits_Phase_8,1,5,56,103,170296768
4019,15,Jits_Phase_8,2,5,80,127,170307040
4019,15,Jits_Phase_8,3,5,63,98,170406248
4019,15,Jits_Phase_8,0,5,80,127,171056364
4019,15,Jits_Phase_8,1,5,63,98,171066936
4019,15,Jits_Phase_8,2,1,48,62,171167548
4019,15,Jits_Phase_8,3,5,56,103,171216344
4019,15,Jits_Phase_8,0,5,63,98,171866536
4019,15,Jits_Phase_8,1,5,80,127,171906428
4019,15,Jits_Phase_8,2,1,48,56,171945884
4019,15,Jits_Phase_8,3,5,56,103,171986288
4019,15,Jits_Phase_8,0,5,56,103,172617208
4019,15,Jits_Phase_8,1,1,48,55,172699992
4019,15,Jits_Phase_8,2,5,80,127,172716352
4019,15,Jits_Phase_8,3,5,63,98,172737036
4019,15,Jits_Phase_8,0,5,80,127,173436260
4019,15,Jits_Phase_8,1,5,56,103,173446452
4019,15,Jits_Phase_8,2,1,48,55,173499092
4019,15,Jits_Phase_8,3,5,63,98,173536728
4019,15,Jits_Phase_8,0,5,56,103,174246140
4019,15,Jits_Phase_8,1,5,63,98,174266896
4019,15,Jits_Phase_8,2,1,48,65,174268308
4019,15,Jits_Phase_8,3,5,80,127,174346832
4019,15,Jits_Phase_8,0,5,63,98,175007020
4019,15,Jits_Phase_8,1,1,48,64,175044984
4019,15,Jits_Phase_8,2,5,56,103,175096244
4019,15,Jits_Phase_8,3,5,80,127,175099240
4019,15,Jits_Phase_8,0,1,48,44,175820568
4019,15,Jits_Phase_8,1,5,56,103,175836708
4019,15,Jits_Phase_8,2,5,80,127,175897024
4019,15,Jits_Phase_8,3,5,63,98,175906176
4019,15,Jits_Phase_8,0,1,48,52,176610204
4019,15,Jits_Phase_8,1,5,80,127,176686580
4019,15,Jits_Phase_8,2,5,56,103,176696628
4019,15,Jits_Phase_8,3,5,63,98,176699696
4019,15,Jits_Phase_8,0,1,48,65,177410176
4019,15,Jits_Phase_8,1,5,56,103,177446316
4019,15,Jits_Phase_8,2,5,80,127,177456960
4019,15,Jits_Phase_8,3,5,63,98,177476896
4019,15,Jits_Phase_8,0,1,48,57,178205428
4019,15,Jits_Phase_8,1,5,63,98,178216168
4019,15,Jits_Phase_8,2,5,80,127,178276708
4019,15,Jits_Phase_8,3,5,56,103,178326768
4019,15,Jits_Phase_8,0,1,48,49,179012360
4019,15,Jits_Phase_8,1,5,63,98,179096932
4019,15,Jits_Phase_8,2,5,56,103,179106304
4019,15,Jits_Phase_8,3,5,80,127,179156192
4019,15,Jits_Phase_8,0,5,63,98,179796200
4019,15,Jits_Phase_8,1,5,80,127,179816880
4019,15,Jits_Phase_8,2,5,56,103,179827076
4019,15,Jits_Phase_8,3,1,48,45,179845436
4019,15,Jits_Phase_8,0,1,48,52,180560236
4019,15,Jits_Phase_8,1,5,63,98,180597124
4019,15,Jits_Phase_8,2,5,80,127,180600736
4019,15,Jits_Phase_8,3,5,56,103,180637012
4019,15,Jits_Phase_8,0,1,48,69,181289312
4019,15,Jits_Phase_8,1,5,63,98,181466540
4019,15,Jits_Phase_8,2,5,80,127,181496144
4019,15,Jits_Phase_8,3,5,56,103,181506784
4019,15,Jits_Phase_8,0,5,56,103,182217228
4019,15,Jits_Phase_8,1,1,48,59,182229492
4019,15,Jits_Phase_8,2,5,80,127,182246748
4019,15,Jits_Phase_8,3,5,63,98,182276496
4019,15,Jits_Phase_8,0,1,48,59,183046924
4019,15,Jits_Phase_8,1,5,63,98,183116032
4019,15,Jits_Phase_8,2,5,56,103,183157076
4019,15,Jits_Phase_8,3,5,80,127,183160540
4019,15,Jits_Phase_8,0,5,80,127,183816512
4019,15,Jits_Phase_8,1,5,56,103,183896384
4019,15,Jits_Phase_8,2,1,48,33,183912232
4019,15,Jits_Phase_8,3,5,63,98,183946600
4019,15,Jits_Phase_8,0,5,80,127,184596720
4019,15,Jits_Phase_8,1,5,56,103,184616428
4019,15,Jits_Phase_8,2,1,48,53,184670268
4019,15,Jits_Phase_8,3,5,63,98,184706576
4019,15,Jits_Phase_8,0,5,80,127,185436484
4019,15,Jits_Phase_8,1,1,48,76,185469820
4019,15,Jits_Phase_8,2,5,63,98,185476444
4019,15,Jits_Phase_8,3,5,56,103,185516380
4019,15,Jits_Phase_8,0,5,63,98,186246460
4019,15,Jits_Phase_8,1,1,48,58,186253168
4019,15,Jits_Phase_8,2,5,80,127,186307068
4019,15,Jits_Phase_8,3,5,56,103,186336596
4019,15,Jits_Phase_8,0,1,48,69,187020236
4019,15,Jits_Phase_8,1,5,56,103,187086200
4019,15,Jits_Phase_8,2,5,80,127,187116924
4019,15,Jits_Phase_8,3,5,63,98,187207112
4019,15,Jits_Phase_8,0,5,56,103,187896440
4019,15,Jits_Phase_8,1,1,48,45,187926984
4019,15,Jits_Phase_8,2,5,80,127,188006724
4019,15,Jits_Phase_8,3,5,63,98,188036480
4019,15,Jits_Phase_8,0,5,56,103,188747228
4019,15,Jits_Phase_8,1,5,63,98,188806524
4019,15,Jits_Phase_8,2,5,80,127,188836424
4019,15,Jits_Phase_8,3,1,48,51,188850256
4019,15,Jits_Phase_8,0,5,56,103,189516204
4019,15,Jits_Phase_8,1,5,63,98,189586736
4019,15,Jits_Phase_8,2,5,80,127,189606296
4019,15,Jits_Phase_8,3,1,48,63,189620504
4019,15,Jits_Phase_8,0,5,80,127,190286224
4019,15,Jits_Phase_8,1,5,63,98,190306608
4019,15,Jits_Phase_8,2,5,56,103,190356832
4019,15,Jits_Phase_8,3,1,48,59,190391260
4019,15,Jits_Phase_8,0,5,63,98,191106312
4019,15,Jits_Phase_8,1,1,48,59,191107352
4019,15,Jits_Phase_8,2,5,80,127,191116648
4019,15,Jits_Phase_8,3,5,56,103,191166776
4019,15,Jits_Phase_8,0,1,48,46,191872448
4019,15,Jits_Phase_8,1,5,63,98,191906344
4019,15,Jits_Phase_8,2,5,80,127,191976764
4019,15,Jits_Phase_8,3,5,56,103,191996396
4019,15,Jits_Phase_8,0,1,48,47,192720228
4019,15,Jits_Phase_8,1,5,63,98,192736584
4019,15,Jits_Phase_8,2,5,80,127,192739876
4019,15,Jits_Phase_8,3,5,56,103,192806188
4019,15,Jits_Phase_8,0,5,80,127,193486432
4019,15,Jits_Phase_8,1,5,56,103,193506740
4019,15,Jits_Phase_8,2,1,48,40,193511508
4019,15,Jits_Phase_8,3,5,63,98,193517004
4019,15,Jits_Phase_8,0,1,48,66,194241196
4019,15,Jits_Phase_8,1,5,56,103,194306556
4019,15,Jits_Phase_8,2,5,63,98,194396372
4019,15,Jits_Phase_8,3,5,80,127,194399668
4019,15,Jits_Phase_8,0,5,80,127,195076488
4019,15,Jits_Phase_8,1,5,56,103,195086832
4019,15,Jits_Phase_8,2,5,63,98,195106320
4019,15,Jits_Phase_8,3,1,48,67,195123292
4019,15,Jits_Phase_8,0,5,63,98,195876164
4019,15,Jits_Phase_8,1,1,48,65,195902656
4019,15,Jits_Phase_8,2,5,80,127,195936548
4019,15,Jits_Phase_8,3,5,56,103,195946820
4019,15,Jits_Phase_8,0,1,48,71,196677072
4019,15,Jits_Phase_8,1,5,63,98,196746576
4019,15,Jits_Phase_8,2,5,80,127,196776308
4019,15,Jits_Phase_8,3,5,56,103,196816248
4019,15,Jits_Phase_8,0,1,48,64,197500296
4019,15,Jits_Phase_8,1,5,56,103,197537108
4019,15,Jits_Phase_8,2,5,80,127,197546332
4019,15,Jits_Phase_8,3,5,63,98,197586344
4019,15,Jits_Phase_8,0,5,80,127,198297004
4019,15,Jits_Phase_8,1,1,48,60,198348668
4019,15,Jits_Phase_8,2,5,56,103,198377088
4019,15,Jits_Phase_8,3,5,63,98,198387212
4019,15,Jits_Phase_8,0,1,48,52,199113356
4019,15,Jits_Phase_8,1,5,80,127,199146880
4019,15,Jits_Phase_8,2,5,56,103,199226812
4019,15,Jits_Phase_8,3,5,63,98,199236932
4019,15,Jits_Phase_8,0,5,80,127,199986652
4019,15,Jits_Phase_8,1,1,48,47,200016228
4019,15,Jits_Phase_8,2,5,56,103,200036924
4019,15,Jits_Phase_8,3,5,63,98,200087076
4019,15,Jits_Phase_8,0,1,48,50,200850532
4019,15,Jits_Phase_8,1,5,56,103,200926528
4019,15,Jits_Phase_8,2,5,63,98,200929896
4019,15,Jits_Phase_8,3,5,80,127,200976712
4019,15,Jits_Phase_8,0,1,48,50,201676876
4019,15,Jits_Phase_8,1,5,56,103,201746724
4019,15,Jits_Phase_8,2,5,63,98,201776460
4019,15,Jits_Phase_8,3,5,80,127,201787028
4019,15,Jits_Phase_8,0,5,63,98,202456360
4019,15,Jits_Phase_8,1,5,56,103,202527164
4019,15,Jits_Phase_8,2,1,48,48,202563088
4019,15,Jits_Phase_8,3,5,80,127,202576308
4019,15,Jits_Phase_8,0,5,63,98,203286972
4019,15,Jits_Phase_8,1,5,56,103,203297168
4019,15,Jits_Phase_8,2,5,80,127,203300232
4019,15,Jits_Phase_8,3,1,48,39,203308824
4019,15,Jits_Phase_8,0,5,80,127,204036432
4019,15,Jits_Phase_8,1,1,48,64,204066008
4019,15,Jits_Phase_8,2,5,56,103,204096744
4019,15,Jits_Phase_8,3,5,63,98,204186960
4019,15,Jits_Phase_8,0,5,80,127,204836344
4019,15,Jits_Phase_8,1,1,48,48,204886816
4019,15,Jits_Phase_8,2,5,56,103,204936764
4019,15,Jits_Phase_8,3,5,63,98,204976776
4019,15,Jits_Phase_8,0,1,48,53,205681996
4019,15,Jits_Phase_8,1,5,56,103,205686148
4019,15,Jits_Phase_8,2,5,63,98,205706536
4019,15,Jits_Phase_8,3,5,80,127,205746472
4019,15,Jits_Phase_8,0,5,63,98,206456160
4019,15,Jits_Phase_8,1,5,56,103,206476840
4019,15,Jits_Phase_8,2,1,48,55,206511048
4019,15,Jits_Phase_8,3,5,80,127,206576928
4019,15,Jits_Phase_8,0,5,63,98,207246832
4019,15,Jits_Phase_8,1,1,48,57,207298204
4019,15,Jits_Phase_8,2,5,80,127,207356216
4019,15,Jits_Phase_8,3,5,56,103,207387012
4019,15,Jits_Phase_8,0,5,56,103,208066888
4019,15,Jits_Phase_8,1,1,48,52,208067928
4019,15,Jits_Phase_8,2,5,63,98,208096856
4019,15,Jits_Phase_8,3,5,80,127,208146756
4019,15,Jits_Phase_8,0,5,63,98,208836904
4019,15,Jits_Phase_8,1,1,48,57,208862272
4019,15,Jits_Phase_8,2,5,56,103,208866648
4019,15,Jits_Phase_8,3,5,80,127,208916772
4019,15,Jits_Phase_8,0,1,48,59,209617960
4019,15,Jits_Phase_8,1,5,56,103,209666604
4019,15,Jits_Phase_8,2,5,63,98,209686840
4019,15,Jits_Phase_8,3,5,80,127,209766696
4019,15,Jits_Phase_8,0,1,48,57,210415912
4019,15,Jits_Phase_8,1,5,63,98,210436608
4019,15,Jits_Phase_8,2,5,56,103,210496852
4019,15,Jits_Phase_8,3,5,80,127,210526512
4019,15,Jits_Phase_8,0,1,48,51,211218720
4019,15,Jits_Phase_8,1,5,56,103,211276136
4019,15,Jits_Phase_8,2,5,80,127,211336760
4019,15,Jits_Phase_8,3,5,63,98,211376700
4019,15,Jits_Phase_8,0,5,63,98,212056560
4019,15,Jits_Phase_8,1,5,56,103,212116976
4019,15,Jits_Phase_8,2,1,48,44,212147144
4019,15,Jits_Phase_8,3,5,80,127,212186648
4019,15,Jits_Phase_8,0,1,48,44,212935356
4019,15,Jits_Phase_8,1,5,56,103,212937020
4019,15,Jits_Phase_8,2,5,63,98,212946388
4019,15,Jits_Phase_8,3,5,80,127,212949828
4019,15,Jits_Phase_8,0,5,63,98,213676380
4019,15,Jits_Phase_8,1,1,48,48,213702344
4019,15,Jits_Phase_8,2,5,56,103,213736840
4019,15,Jits_Phase_8,3,5,80,127,213739980
4019,15,Jits_Phase_8,0,5,63,98,214456716
4019,15,Jits_Phase_8,1,1,48,46,214479536
4019,15,Jits_Phase_8,2,5,80,127,214486532
4019,15,Jits_Phase_8,3,5,56,103,214506840
4019,15,Jits_Phase_8,0,5,56,103,215186780
4019,15,Jits_Phase_8,1,1,48,44,215194684
4019,15,Jits_Phase_8,2,5,63,98,215236972
4019,15,Jits_Phase_8,3,5,80,127,215316828
4019,15,Jits_Phase_8,0,5,80,127,215886060
4019,15,Jits_Phase_8,1,5,63,98,215926396
4019,15,Jits_Phase_8,2,5,56,103,215946560
4019,15,Jits_Phase_8,3,1,48,52,216021068
4019,15,Jits_Phase_8,0,1,48,54,216735336
4019,15,Jits_Phase_8,1,5,56,103,216756488
4019,15,Jits_Phase_8,2,5,80,127,216766756
4019,15,Jits_Phase_8,3,5,63,98,216786468
4019,15,Jits_Phase_8,0,1,48,44,217527816
4019,15,Jits_Phase_8,1,5,56,103,217536980
4019,15,Jits_Phase_8,2,5,63,98,217587256
4019,15,Jits_Phase_8,3,5,80,127,217616856
4019,15,Jits_Phase_8,0,5,56,103,218286468
4019,15,Jits_Phase_8,1,5,63,98,218296588
4019,15,Jits_Phase_8,2,1,48,55,218300536
4019,15,Jits_Phase_8,3,5,80,127,218346784
4019,15,Jits_Phase_8,0,1,48,58,219059816
4019,15,Jits_Phase_8,1,5,56,103,219076924
4019,15,Jits_Phase_8,2,5,80,127,219080288
4019,15,Jits_Phase_8,3,5,63,98,219236708
4019,15,Jits_Phase_8,0,5,63,98,219896296
4019,15,Jits_Phase_8,1,5,56,103,219966952
4019,15,Jits_Phase_8,2,1,48,47,219967992
4019,15,Jits_Phase_8,3,5,80,127,220006660
4019,15,Jits_Phase_8,0,1,48,50,220673896
4019,15,Jits_Phase_8,1,5,63,98,220736868
4019,15,Jits_Phase_8,2,5,56,103,220827236
4019,15,Jits_Phase_8,3,5,80,127,220830228
4019,15,Jits_Phase_8,0,1,48,47,221461212
4019,15,Jits_Phase_8,1,5,56,103,221516236
4019,15,Jits_Phase_8,2,5,63,98,221606232
4019,15,Jits_Phase_8,3,5,80,127,221616428
4019,15,Jits_Phase_8,0,5,56,103,222286548
4019,15,Jits_Phase_8,1,5,63,98,222336328
4019,15,Jits_Phase_8,2,5,80,127,222367276
4019,15,Jits_Phase_8,3,1,48,48,222399084
4019,15,Jits_Phase_8,0,5,63,98,223166724
4019,15,Jits_Phase_8,1,1,48,32,223170892
4019,15,Jits_Phase_8,2,5,80,127,223177288
4019,15,Jits_Phase_8,3,5,56,103,223236556
4019,15,Jits_Phase_8,0,1,48,40,223864484
4019,15,Jits_Phase_8,1,5,63,98,223886680
4019,15,Jits_Phase_8,2,5,80,127,223947448
4019,15,Jits_Phase_8,3,5,56,103,223987292
4019,15,Jits_Phase_8,0,1,48,46,224697716
4019,15,Jits_Phase_8,1,5,56,103,224786748
4019,15,Jits_Phase_8,2,5,80,127,224806296
4019,15,Jits_Phase_8,3,5,63,98,224826604
4019,15,Jits_Phase_8,0,5,63,98,225506720
4019,15,Jits_Phase_8,1,5,56,103,225526204
4019,15,Jits_Phase_8,2,5,80,127,225567340
4019,15,Jits_Phase_8,3,1,48,36,225573228
4019,15,Jits_Phase_8,0,5,63,98,226316796
4019,15,Jits_Phase_8,1,5,80,127,226346472
4019,15,Jits_Phase_8,2,5,56,103,226366708
4019,15,Jits_Phase_8,3,1,48,33,226376052
4019,15,Jits_Phase_8,0,5,80,127,227086652
4019,15,Jits_Phase_8,1,1,48,47,227111120
4019,15,Jits_Phase_8,2,5,56,103,227137144
4019,15,Jits_Phase_8,3,5,63,98,227196288
4019,15,Jits_Phase_8,0,5,63,98,227876148
4019,15,Jits_Phase_8,1,1,48,47,227905644
4019,15,Jits_Phase_8,2,5,56,103,227997016
4019,15,Jits_Phase_8,3,5,80,127,228026676
4019,15,Jits_Phase_8,0,1,48,47,228642364
4019,15,Jits_Phase_8,1,5,80,127,228717168
4019,15,Jits_Phase_8,2,5,63,98,228736308
4019,15,Jits_Phase_8,3,5,56,103,228807168
4019,15,Jits_Phase_8,0,5,63,98,229537032
4019,15,Jits_Phase_8,1,1,48,44,229544356
4019,15,Jits_Phase_8,2,5,56,103,229546324
4019,15,Jits_Phase_8,3,5,80,127,229626188
4019,15,Jits_Phase_8,0,1,48,43,230367164
4019,15,Jits_Phase_8,1,5,56,103,230396264
4019,15,Jits_Phase_8,2,5,80,127,230427060
4019,15,Jits_Phase_8,3,5,63,98,230436136
4019,15,Jits_Phase_8,0,9999,9999,9999,95534168
4019,15,Jits_Phase_8,1,9999,9999,9999,96333896
4019,15,Jits_Phase_8,2,9999,9999,9999,97134668
4019,15,Jits_Phase_8,3,9999,9999,9999,97934444
4019,15,Jits_Phase_8,4,9999,9999,9999,98734192
4019,15,Jits_Phase_8,5,9999,9999,9999,99533936
4019,15,Jits_Phase_8,6,9999,9999,9999,100334648
4019,15,Jits_Phase_8,7,9999,9999,9999,101134392
4019,15,Jits_Phase_8,8,9999,9999,9999,101934144
4019,15,Jits_Phase_8,9,9999,9999,9999,102733928
4019,15,Jits_Phase_8,10,9999,9999,9999,103534672
4019,15,Jits_Phase_8,11,9999,9999,9999,104334444
4019,15,Jits_Phase_8,12,9999,9999,9999,105134196
4019,15,Jits_Phase_8,13,9999,9999,9999,105933880
4019,15,Jits_Phase_8,14,9999,9999,9999,106734660
4019,15,Jits_Phase_8,15,9999,9999,9999,107534400
4019,15,Jits_Phase_8,16,9999,9999,9999,108334204
4019,15,Jits_Phase_8,17,9999,9999,9999,109133892
4019,15,Jits_Phase_8,18,9999,9999,9999,109934692
4019,15,Jits_Phase_8,19,9999,9999,9999,110734464
4019,15,Jits_Phase_8,20,9999,9999,9999,111534208
4019,15,Jits_Phase_8,21,9999,9999,9999,112333880
4019,15,Jits_Phase_8,22,9999,9999,9999,113134684
4019,15,Jits_Phase_8,23,9999,9999,9999,113934428
4019,15,Jits_Phase_8,24,9999,9999,9999,114734172
4019,15,Jits_Phase_8,25,9999,9999,9999,115533920
4019,15,Jits_Phase_8,26,9999,9999,9999,116334656
4019,15,Jits_Phase_8,27,9999,9999,9999,117134428
4019,15,Jits_Phase_8,28,9999,9999,9999,117934188
4019,15,Jits_Phase_8,29,9999,9999,9999,118733884
4019,15,Jits_Phase_8,30,9999,9999,9999,119514196
4019,15,Jits_Phase_8,31,9999,9999,9999,120313944
4019,15,Jits_Phase_8,32,9999,9999,9999,121114680
4019,15,Jits_Phase_8,33,9999,9999,9999,121914484
4019,15,Jits_Phase_8,34,9999,9999,9999,122714176
4019,15,Jits_Phase_8,35,9999,9999,9999,123513944
4019,15,Jits_Phase_8,36,9999,9999,9999,124314688
4019,15,Jits_Phase_8,37,9999,9999,9999,125114436
4019,15,Jits_Phase_8,38,9999,9999,9999,125914180
4019,15,Jits_Phase_8,39,9999,9999,9999,126713932
4019,15,Jits_Phase_8,40,9999,9999,9999,127514732
4019,15,Jits_Phase_8,41,9999,9999,9999,128314492
4019,15,Jits_Phase_8,42,9999,9999,9999,129114236
4019,15,Jits_Phase_8,43,9999,9999,9999,129913908
4019,15,Jits_Phase_8,44,9999,9999,9999,130714680
4019,15,Jits_Phase_8,45,9999,9999,9999,131514428
4019,15,Jits_Phase_8,46,9999,9999,9999,132314180
4019,15,Jits_Phase_8,47,9999,9999,9999,133113932
4019,15,Jits_Phase_8,48,9999,9999,9999,133934148
4019,15,Jits_Phase_8,49,9999,9999,9999,134733904
4019,15,Jits_Phase_8,50,9999,9999,9999,135534696
4019,15,Jits_Phase_8,51,9999,9999,9999,136334404
4019,15,Jits_Phase_8,52,9999,9999,9999,137134156
4019,15,Jits_Phase_8,53,9999,9999,9999,137933924
4019,15,Jits_Phase_8,54,9999,9999,9999,138734712
4019,15,Jits_Phase_8,55,9999,9999,9999,139534400
4019,15,Jits_Phase_8,56,9999,9999,9999,140334144
4019,15,Jits_Phase_8,57,9999,9999,9999,141133892
4019,15,Jits_Phase_8,58,9999,9999,9999,141934684
4019,15,Jits_Phase_8,59,9999,9999,9999,142734456
4019,15,Jits_Phase_8,60,9999,9999,9999,143534140
4019,15,Jits_Phase_8,61,9999,9999,9999,144333908
4019,15,Jits_Phase_8,62,9999,9999,9999,145134700
4019,15,Jits_Phase_8,63,9999,9999,9999,145934436
4019,15,Jits_Phase_8,64,9999,9999,9999,146774124
4019,15,Jits_Phase_8,65,9999,9999,9999,147573872
4019,15,Jits_Phase_8,66,9999,9999,9999,148374616
4019,15,Jits_Phase_8,67,9999,9999,9999,149174368
4019,15,Jits_Phase_8,68,9999,9999,9999,149974104
4019,15,Jits_Phase_8,69,9999,9999,9999,150773868
4019,15,Jits_Phase_8,70,9999,9999,9999,151574596
4019,15,Jits_Phase_8,71,9999,9999,9999,152374356
4019,15,Jits_Phase_8,72,9999,9999,9999,153174100
4019,15,Jits_Phase_8,73,9999,9999,9999,153973864
4019,15,Jits_Phase_8,74,9999,9999,9999,154774628
4019,15,Jits_Phase_8,75,9999,9999,9999,155574392
4019,15,Jits_Phase_8,76,9999,9999,9999,156374072
4019,15,Jits_Phase_8,77,9999,9999,9999,157173836
4019,15,Jits_Phase_8,78,9999,9999,9999,157974640
4019,15,Jits_Phase_8,79,9999,9999,9999,158774328
4019,15,Jits_Phase_8,80,9999,9999,9999,159574076
4019,15,Jits_Phase_8,81,9999,9999,9999,160333892
4019,15,Jits_Phase_8,82,9999,9999,9999,161134688
4019,15,Jits_Phase_8,83,9999,9999,9999,161934452
4019,15,Jits_Phase_8,84,9999,9999,9999,162734136
4019,15,Jits_Phase_8,85,9999,9999,9999,163533900
4019,15,Jits_Phase_8,86,9999,9999,9999,164334696
4019,15,Jits_Phase_8,87,9999,9999,9999,165134436
4019,15,Jits_Phase_8,88,9999,9999,9999,165934176
4019,15,Jits_Phase_8,89,9999,9999,9999,166733932
4019,15,Jits_Phase_8,90,9999,9999,9999,167534660
4019,15,Jits_Phase_8,91,9999,9999,9999,168334424
4019,15,Jits_Phase_8,92,9999,9999,9999,169134188
4019,15,Jits_Phase_8,93,9999,9999,9999,169933932
4019,15,Jits_Phase_8,94,9999,9999,9999,170734648
4019,15,Jits_Phase_8,95,9999,9999,9999,171534392
4019,15,Jits_Phase_8,96,9999,9999,9999,172334152
4019,15,Jits_Phase_8,97,9999,9999,9999,173054040
4019,15,Jits_Phase_8,98,9999,9999,9999,173854780
4019,15,Jits_Phase_8,99,9999,9999,9999,174664808
4019,15,Jits_Phase_8,100,9999,9999,9999,175474748
4019,15,Jits_Phase_8,101,9999,9999,9999,176274516
4019,15,Jits_Phase_8,102,9999,9999,9999,177074260
4019,15,Jits_Phase_8,103,9999,9999,9999,177874004
4019,15,Jits_Phase_8,104,9999,9999,9999,178674800
4019,15,Jits_Phase_8,105,9999,9999,9999,179474556
4019,15,Jits_Phase_8,106,9999,9999,9999,180274292
4019,15,Jits_Phase_8,107,9999,9999,9999,181074024
4019,15,Jits_Phase_8,108,9999,9999,9999,181874744
4019,15,Jits_Phase_8,109,9999,9999,9999,182674504
4019,15,Jits_Phase_8,110,9999,9999,9999,183474268
4019,15,Jits_Phase_8,111,9999,9999,9999,184274016
4019,15,Jits_Phase_8,112,9999,9999,9999,185074744
4019,15,Jits_Phase_8,113,9999,9999,9999,185874504
4019,15,Jits_Phase_8,114,9999,9999,9999,186754152
4019,15,Jits_Phase_8,115,9999,9999,9999,187553896
4019,15,Jits_Phase_8,116,9999,9999,9999,188354624
4019,15,Jits_Phase_8,117,9999,9999,9999,189154392
4019,15,Jits_Phase_8,118,9999,9999,9999,189954156
4019,15,Jits_Phase_8,119,9999,9999,9999,190753912
4019,15,Jits_Phase_8,120,9999,9999,9999,191554644
4019,15,Jits_Phase_8,121,9999,9999,9999,192354392
4019,15,Jits_Phase_8,122,9999,9999,9999,193154156
4019,15,Jits_Phase_8,123,9999,9999,9999,193953896
4019,15,Jits_Phase_8,124,9999,9999,9999,194754620
4019,15,Jits_Phase_8,125,9999,9999,9999,195554360
4019,15,Jits_Phase_8,126,9999,9999,9999,196354116
4019,15,Jits_Phase_8,127,9999,9999,9999,197153868
4019,15,Jits_Phase_8,128,9999,9999,9999,197954660
4019,15,Jits_Phase_8,129,9999,9999,9999,198754408
4019,15,Jits_Phase_8,130,9999,9999,9999,199554128
4019,15,Jits_Phase_8,131,9999,9999,9999,200514648
4019,15,Jits_Phase_8,132,9999,9999,9999,201314408
4019,15,Jits_Phase_8,133,9999,9999,9999,202114116
4019,15,Jits_Phase_8,134,9999,9999,9999,202913864
4019,15,Jits_Phase_8,135,9999,9999,9999,203714644
4019,15,Jits_Phase_8,136,9999,9999,9999,204514392
4019,15,Jits_Phase_8,137,9999,9999,9999,205314156
4019,15,Jits_Phase_8,138,9999,9999,9999,206113892
4019,15,Jits_Phase_8,139,9999,9999,9999,206914680
4019,15,Jits_Phase_8,140,9999,9999,9999,207714428
4019,15,Jits_Phase_8,141,9999,9999,9999,208514128
4019,15,Jits_Phase_8,142,9999,9999,9999,209313884
4019,15,Jits_Phase_8,143,9999,9999,9999,210114676
4019,15,Jits_Phase_8,144,9999,9999,9999,210914420
4019,15,Jits_Phase_8,145,9999,9999,9999,211714172
4019,15,Jits_Phase_8,146,9999,9999,9999,212513916
4019,15,Jits_Phase_8,147,9999,9999,9999,213314632
4019,15,Jits_Phase_8,148,9999,9999,9999,214114372
4019,15,Jits_Phase_8,149,9999,9999,9999,214914136
4019,15,Jits_Phase_8,150,9999,9999,9999,215554140
4019,15,Jits_Phase_8,151,9999,9999,9999,216353896
4019,15,Jits_Phase_8,152,9999,9999,9999,217154636
4019,15,Jits_Phase_8,153,9999,9999,9999,217954388
4019,15,Jits_Phase_8,154,9999,9999,9999,218754156
4019,15,Jits_Phase_8,155,9999,9999,9999,219553904
4019,15,Jits_Phase_8,156,9999,9999,9999,220354624
4019,15,Jits_Phase_8,157,9999,9999,9999,221154368
4019,15,Jits_Phase_8,158,9999,9999,9999,221954124
4019,15,Jits_Phase_8,159,9999,9999,9999,222753864
4019,15,Jits_Phase_8,160,9999,9999,9999,223554680
4019,15,Jits_Phase_8,161,9999,9999,9999,224354428
4019,15,Jits_Phase_8,162,9999,9999,9999,225154136
4019,15,Jits_Phase_8,163,9999,9999,9999,225953880
4019,15,Jits_Phase_8,164,9999,9999,9999,226754668
4019,15,Jits_Phase_8,165,9999,9999,9999,227554416
4019,15,Jits_Phase_8,166,9999,9999,9999,228354108
4019,15,Jits_Phase_8,167,9999,9999,9999,229153856
4019,15,Jits_Phase_8,168,9999,9999,9999,229954652
4019,15,Jits_Phase_8,169,9999,9999,9999,230754412
4020,5,ISIP_5,0,5,42,127,291392896
4020,5,ISIP_5,1,5,42,127,291892540
4020,5,ISIP_5,2,1,48,41,292095544
4020,5,ISIP_5,3,5,42,127,292392308
4020,5,ISIP_5,4,1,48,42,292470028
4020,5,ISIP_5,5,5,42,127,292892900
4020,5,ISIP_5,6,1,48,54,292933044
4020,5,ISIP_5,7,5,42,127,293392896
4020,5,ISIP_5,8,1,48,52,293410904
4020,5,ISIP_5,9,5,42,127,293892440
4020,5,ISIP_5,10,1,48,54,293925628
4020,5,ISIP_5,11,5,42,127,294392136
4020,5,ISIP_5,12,1,48,47,294413128
4020,5,ISIP_5,13,5,42,127,294893024
4020,5,ISIP_5,14,1,48,55,294897340
4020,5,ISIP_5,15,5,42,127,295392720
4020,5,ISIP_5,16,1,48,58,295401444
4020,5,ISIP_5,17,5,42,127,295892264
4020,5,ISIP_5,18,1,48,56,295899500
4020,5,ISIP_5,19,5,42,127,296393008
4020,5,ISIP_5,20,1,48,55,296405624
4020,5,ISIP_5,21,5,42,127,296892924
4020,5,ISIP_5,22,1,48,57,296897916
4020,5,ISIP_5,23,1,48,60,297392916
4020,5,ISIP_5,24,5,42,127,297394188
4020,5,ISIP_5,25,1,48,55,297884120
4020,5,ISIP_5,26,5,42,127,297892308
4020,5,ISIP_5,27,1,48,56,298387256
4020,5,ISIP_5,28,5,42,127,298392900
4020,5,ISIP_5,29,1,48,57,298888524
4020,5,ISIP_5,30,5,42,127,298892820
4020,5,ISIP_5,31,5,42,127,299392300
4020,5,ISIP_5,32,1,48,60,299394008
4020,5,ISIP_5,33,5,42,127,299893040
4020,5,ISIP_5,34,1,48,55,299894604
4020,5,ISIP_5,35,5,42,127,300392784
4020,5,ISIP_5,36,1,48,59,300403332
4020,5,ISIP_5,37,5,42,127,300892776
4020,5,ISIP_5,38,1,48,53,300898668
4020,5,ISIP_5,39,5,42,127,301392176
4020,5,ISIP_5,40,1,48,52,301393140
4020,5,ISIP_5,41,5,42,127,301892916
4020,5,ISIP_5,42,1,48,52,301896632
4020,5,ISIP_5,43,5,42,127,302392536
4020,5,ISIP_5,44,1,48,54,302398124
4020,5,ISIP_5,45,5,42,127,302892528
4020,5,ISIP_5,46,1,48,49,302907388
4020,5,ISIP_5,47,1,48,54,303392440
4020,5,ISIP_5,48,5,42,127,303394164
4020,5,ISIP_5,49,5,42,127,303892820
4020,5,ISIP_5,50,1,48,55,303895564
4020,5,ISIP_5,51,5,42,127,304392808
4020,5,ISIP_5,52,1,48,57,304395180
4020,5,ISIP_5,53,5,42,127,304892356
4020,5,ISIP_5,54,1,48,56,304898616
4020,5,ISIP_5,55,5,42,127,305392948
4020,5,ISIP_5,56,1,48,57,305409084
4020,5,ISIP_5,57,1,48,55,305882652
4020,5,ISIP_5,58,5,42,127,305892712
4020,5,ISIP_5,59,1,48,56,306388036
4020,5,ISIP_5,60,5,42,127,306392408
4020,5,ISIP_5,61,1,48,56,306889224
4020,5,ISIP_5,62,5,42,127,306892176
4020,5,ISIP_5,63,1,48,55,307384204
4020,5,ISIP_5,64,5,42,127,307392844
4020,5,ISIP_5,65,1,48,63,307885696
4020,5,ISIP_5,66,5,42,127,307892688
4020,5,ISIP_5,67,5,42,127,308392240
4020,5,ISIP_5,68,1,48,57,308404336
4020,5,ISIP_5,69,5,42,127,308892908
4020,5,ISIP_5,70,1,48,52,308911884
4020,5,ISIP_5,71,5,42,127,309392752
4020,5,ISIP_5,72,1,48,52,309414424
4020,5,ISIP_5,73,5,42,127,309892372
4020,5,ISIP_5,74,1,48,58,309915532
4020,5,ISIP_5,75,5,42,127,310392364
4020,5,ISIP_5,76,1,48,56,310406480
4020,5,ISIP_5,77,5,42,127,310892932
4020,5,ISIP_5,78,1,48,57,310915228
4020,5,ISIP_5,79,1,48,62,311429504
4020,5,ISIP_5,80,1,48,67,311941312
4020,5,ISIP_5,81,1,48,63,312443392
4020,5,ISIP_5,82,1,48,62,312955424
4020,5,ISIP_5,83,1,48,60,313465892
4020,5,ISIP_5,84,1,48,66,313978072
4020,5,ISIP_5,85,1,48,65,314476688
4020,5,ISIP_5,86,1,48,60,314991812
4020,5,ISIP_5,87,1,48,62,315501652
4020,5,ISIP_5,88,1,48,66,316017824
4020,5,ISIP_5,89,1,48,65,316526460
4020,5,ISIP_5,90,1,48,57,317055276
4020,5,ISIP_5,91,1,48,66,317577556
4020,5,ISIP_5,92,1,48,65,318090264
4020,5,ISIP_5,93,1,48,65,318607752
4020,5,ISIP_5,94,1,48,67,319132052
4020,5,ISIP_5,95,1,48,70,319636004
4020,5,ISIP_5,96,1,48,69,320158432
4020,5,ISIP_5,97,1,48,61,320679516
4020,5,ISIP_5,98,1,48,65,321188556
4020,5,ISIP_5,99,1,48,64,321710612
4020,5,ISIP_5,100,1,48,65,322218900
4020,5,ISIP_5,101,1,48,68,322732356
4020,5,ISIP_5,102,1,48,74,323245364
4020,5,ISIP_5,103,1,48,62,323762184
4020,5,ISIP_5,104,1,48,60,324276460
4020,5,ISIP_5,105,1,48,65,324798288
4020,5,ISIP_5,106,1,48,63,325300072
4020,5,ISIP_5,107,1,48,66,325814268
4020,5,ISIP_5,108,1,48,63,326333860
4020,5,ISIP_5,109,1,48,72,326836692
4020,5,ISIP_5,110,1,48,70,327342816
4020,5,ISIP_5,111,1,48,67,327847888
4020,5,ISIP_5,112,1,48,55,328342572
4020,5,ISIP_5,113,1,48,70,328873004
4020,5,ISIP_5,114,1,48,60,329400608
4020,5,ISIP_5,115,1,48,69,329887796
4020,5,ISIP_5,116,1,48,67,330409640
4020,5,ISIP_5,117,1,48,55,330919056
4020,5,ISIP_5,118,1,48,68,331435648
4020,5,ISIP_5,119,1,48,66,331949700
4020,5,ISIP_5,120,1,48,69,332456864
4020,5,ISIP_5,121,1,48,65,332962764
4020,5,ISIP_5,122,1,48,65,333465152
4020,5,ISIP_5,123,1,48,60,333984216
4020,5,ISIP_5,124,1,48,67,334513676
4020,5,ISIP_5,125,1,48,63,335019132
4020,5,ISIP_5,126,1,48,66,335535720
4020,5,ISIP_5,127,1,48,66,336065256
4020,5,ISIP_5,128,1,48,62,336567644
4020,5,ISIP_5,129,1,48,65,337084612
4020,5,ISIP_5,130,1,48,65,337600760
4020,5,ISIP_5,131,1,48,59,338126476
4020,5,ISIP_5,132,1,48,65,338647264
4020,5,ISIP_5,133,1,48,63,339156524
4020,5,ISIP_5,134,1,48,54,339688004
4020,5,ISIP_5,135,1,48,60,340190540
4020,5,ISIP_5,136,1,48,67,340713492
4020,5,ISIP_5,137,1,48,57,341229336
4020,5,ISIP_5,138,1,48,62,341725960
4020,5,ISIP_5,139,1,48,62,342257820
4020,5,ISIP_5,140,1,48,66,342756384
4020,5,ISIP_5,141,1,48,63,343268116
4020,5,ISIP_5,142,1,48,55,343782168
4020,5,ISIP_5,143,1,48,65,344298240
4020,5,ISIP_5,144,1,48,64,344823064
4020,5,ISIP_5,145,1,48,53,345328964
4020,5,ISIP_5,146,1,48,67,345829480
4020,5,ISIP_5,147,1,48,62,346359988
4020,5,ISIP_5,148,1,48,53,346888248
4020,5,ISIP_5,149,1,48,68,347407248
4020,5,ISIP_5,150,1,48,62,347941796
4020,5,ISIP_5,151,1,48,65,348458540
4020,5,ISIP_5,152,1,48,70,348974836
4020,5,ISIP_5,153,1,48,64,349488664
4020,5,ISIP_5,154,1,48,61,350021116
4020,5,ISIP_5,155,1,48,67,350549528
4020,5,ISIP_5,156,1,48,63,351065224
4020,5,ISIP_5,157,1,48,67,351593932
4020,5,ISIP_5,158,1,48,71,352121928
4020,5,ISIP_5,159,1,48,63,352642260
4020,5,ISIP_5,160,1,48,57,353158184
4020,5,ISIP_5,161,1,48,58,353692200
4020,5,ISIP_5,162,1,48,58,354215456
4020,5,ISIP_5,163,1,48,65,354715072
4020,5,ISIP_5,164,1,48,64,355233988
4020,5,ISIP_5,165,1,48,62,355752004
4020,5,ISIP_5,166,1,48,66,356281684
4020,5,ISIP_5,167,1,48,62,356796932
4020,5,ISIP_5,168,1,48,65,357331032
4020,5,ISIP_5,169,1,48,64,357830344
4020,5,ISIP_5,170,1,48,55,358367512
4020,5,ISIP_5,171,1,48,64,358885900
4020,5,ISIP_5,172,1,48,57,359410436
4020,5,ISIP_5,173,1,48,64,359938256
4020,5,ISIP_5,174,1,48,59,360455372
4020,5,ISIP_5,175,1,48,61,360985352
4020,5,ISIP_5,176,1,48,57,361512720
4020,5,ISIP_5,177,1,48,56,362038964
4020,5,ISIP_5,178,1,48,58,362561092
4020,5,ISIP_5,179,1,48,54,363075820
4020,5,ISIP_5,180,1,48,66,363607520
4020,5,ISIP_5,181,1,48,63,364143740
4020,5,ISIP_5,182,1,48,55,364671108
4020,5,ISIP_5,183,1,48,55,365200864
4020,5,ISIP_5,184,1,48,62,365721124
4020,5,ISIP_5,185,1,48,62,366261732
4020,5,ISIP_5,186,1,48,61,366798148
4020,5,ISIP_5,187,1,48,52,367315412
4020,5,ISIP_5,188,1,48,53,367845624
4020,5,ISIP_5,189,1,48,50,368369472
4020,5,ISIP_5,190,1,48,53,368890644
4020,5,ISIP_5,191,1,48,51,369405296
4020,5,ISIP_5,192,1,48,62,369932588
4020,5,ISIP_5,193,1,48,57,370449252
4020,5,ISIP_5,194,1,48,59,370991732
4020,5,ISIP_5,0,9999,9999,9999,291390536
4020,5,ISIP_5,1,9999,9999,9999,291890252
4020,5,ISIP_5,2,9999,9999,9999,292389948
4020,5,ISIP_5,3,9999,9999,9999,292890688
4020,5,ISIP_5,4,9999,9999,9999,293390388
4020,5,ISIP_5,5,9999,9999,9999,293890156
4020,5,ISIP_5,6,9999,9999,9999,294389848
4020,5,ISIP_5,7,9999,9999,9999,294890588
4020,5,ISIP_5,8,9999,9999,9999,295390284
4020,5,ISIP_5,9,9999,9999,9999,295889980
4020,5,ISIP_5,10,9999,9999,9999,296390720
4020,5,ISIP_5,11,9999,9999,9999,296890488
4020,5,ISIP_5,12,9999,9999,9999,297390184
4020,5,ISIP_5,13,9999,9999,9999,297889872
4020,5,ISIP_5,14,9999,9999,9999,298390616
4020,5,ISIP_5,15,9999,9999,9999,298890308
4020,5,ISIP_5,16,9999,9999,9999,299390012
4020,5,ISIP_5,17,9999,9999,9999,299890756
4020,5,ISIP_5,18,9999,9999,9999,300390500
4020,5,ISIP_5,19,9999,9999,9999,300890192
4020,5,ISIP_5,20,9999,9999,9999,301389888
4020,5,ISIP_5,21,9999,9999,9999,301890628
4020,5,ISIP_5,22,9999,9999,9999,302390324
4020,5,ISIP_5,23,9999,9999,9999,302890092
4020,5,ISIP_5,24,9999,9999,9999,303390836
4020,5,ISIP_5,25,9999,9999,9999,303890532
4020,5,ISIP_5,26,9999,9999,9999,304390224
4020,5,ISIP_5,27,9999,9999,9999,304889920
4020,5,ISIP_5,28,9999,9999,9999,305390660
4020,5,ISIP_5,29,9999,9999,9999,305890424
4020,5,ISIP_5,30,9999,9999,9999,306390120
4020,5,ISIP_5,31,9999,9999,9999,306889816
4020,5,ISIP_5,32,9999,9999,9999,307390556
4020,5,ISIP_5,33,9999,9999,9999,307890252
4020,5,ISIP_5,34,9999,9999,9999,308389952
4020,5,ISIP_5,35,9999,9999,9999,308890696
4020,5,ISIP_5,36,9999,9999,9999,309390392
4020,5,ISIP_5,37,9999,9999,9999,309890160
4020,5,ISIP_5,38,9999,9999,9999,310389856
4020,5,ISIP_5,39,9999,9999,9999,310890572
4020,5,ISIP_5,40,9999,9999,9999,311390268
4020,5,ISIP_5,41,9999,9999,9999,311890032
4020,5,ISIP_5,42,9999,9999,9999,312390768
4020,5,ISIP_5,43,9999,9999,9999,312890460
4020,5,ISIP_5,44,9999,9999,9999,313390152
4020,5,ISIP_5,45,9999,9999,9999,313889840
4020,5,ISIP_5,46,9999,9999,9999,314390580
4020,5,ISIP_5,47,9999,9999,9999,314890344
4020,5,ISIP_5,48,9999,9999,9999,315390036
4020,5,ISIP_5,49,9999,9999,9999,315890772
4020,5,ISIP_5,50,9999,9999,9999,316390464
4020,5,ISIP_5,51,9999,9999,9999,316890228
4020,5,ISIP_5,52,9999,9999,9999,317389920
4020,5,ISIP_5,53,9999,9999,9999,317890656
4020,5,ISIP_5,54,9999,9999,9999,318390348
4020,5,ISIP_5,55,9999,9999,9999,318890040
4020,5,ISIP_5,56,9999,9999,9999,319390776
4020,5,ISIP_5,57,9999,9999,9999,319890544
4020,5,ISIP_5,58,9999,9999,9999,320390232
4020,5,ISIP_5,59,9999,9999,9999,320889924
4020,5,ISIP_5,60,9999,9999,9999,321390660
4020,5,ISIP_5,61,9999,9999,9999,321890400
4020,5,ISIP_5,62,9999,9999,9999,322390092
4020,5,ISIP_5,63,9999,9999,9999,322889784
4020,5,ISIP_5,64,9999,9999,9999,323390520
4020,5,ISIP_5,65,9999,9999,9999,323890288
4020,5,ISIP_5,66,9999,9999,9999,324389976
4020,5,ISIP_5,67,9999,9999,9999,324890716
4020,5,ISIP_5,68,9999,9999,9999,325390420
4020,5,ISIP_5,69,9999,9999,9999,325890112
4020,5,ISIP_5,70,9999,9999,9999,326389876
4020,5,ISIP_5,71,9999,9999,9999,326890612
4020,5,ISIP_5,72,9999,9999,9999,327390304
4020,5,ISIP_5,73,9999,9999,9999,327889996
4020,5,ISIP_5,74,9999,9999,9999,328390732
4020,5,ISIP_5,75,9999,9999,9999,328890424
4020,5,ISIP_5,76,9999,9999,9999,329390196
4020,5,ISIP_5,77,9999,9999,9999,329889880
4020,5,ISIP_5,78,9999,9999,9999,330390624
4020,5,ISIP_5,79,9999,9999,9999,330890316
4020,5,ISIP_5,80,9999,9999,9999,331390004
4020,5,ISIP_5,81,9999,9999,9999,331890744
4020,5,ISIP_5,82,9999,9999,9999,332390480
4020,5,ISIP_5,83,9999,9999,9999,332890172
4020,5,ISIP_5,84,9999,9999,9999,333389940
4020,5,ISIP_5,85,9999,9999,9999,333890676
4020,5,ISIP_5,86,9999,9999,9999,334390368
4020,5,ISIP_5,87,9999,9999,9999,334890060
4020,5,ISIP_5,88,9999,9999,9999,335390800
4020,5,ISIP_5,89,9999,9999,9999,335890488
4020,5,ISIP_5,90,9999,9999,9999,336390256
4020,5,ISIP_5,91,9999,9999,9999,336889948
4020,5,ISIP_5,92,9999,9999,9999,337390684
4020,5,ISIP_5,93,9999,9999,9999,337890372
4020,5,ISIP_5,94,9999,9999,9999,338390064
4020,5,ISIP_5,95,9999,9999,9999,338889828
4020,5,ISIP_5,96,9999,9999,9999,339390568
4020,5,ISIP_5,97,9999,9999,9999,339890260
4020,5,ISIP_5,98,9999,9999,9999,340389952
4020,5,ISIP_5,99,9999,9999,9999,340890688
4020,5,ISIP_5,100,9999,9999,9999,341390452
4020,5,ISIP_5,101,9999,9999,9999,341890144
4020,5,ISIP_5,102,9999,9999,9999,342389836
4020,5,ISIP_5,103,9999,9999,9999,342890548
4020,5,ISIP_5,104,9999,9999,9999,343390312
4020,5,ISIP_5,105,9999,9999,9999,343890004
4020,5,ISIP_5,106,9999,9999,9999,344390756
4020,5,ISIP_5,107,9999,9999,9999,344890448
4020,5,ISIP_5,108,9999,9999,9999,345390140
4020,5,ISIP_5,109,9999,9999,9999,345889904
4020,5,ISIP_5,110,9999,9999,9999,346390640
4020,5,ISIP_5,111,9999,9999,9999,346890332
4020,5,ISIP_5,112,9999,9999,9999,347390032
4020,5,ISIP_5,113,9999,9999,9999,347890768
4020,5,ISIP_5,114,9999,9999,9999,348390460
4020,5,ISIP_5,115,9999,9999,9999,348890224
4020,5,ISIP_5,116,9999,9999,9999,349389916
4020,5,ISIP_5,117,9999,9999,9999,349890652
4020,5,ISIP_5,118,9999,9999,9999,350390340
4020,5,ISIP_5,119,9999,9999,9999,350890104
4020,5,ISIP_5,120,9999,9999,9999,351390768
4020,5,ISIP_5,121,9999,9999,9999,351890532
4020,5,ISIP_5,122,9999,9999,9999,352390224
4020,5,ISIP_5,123,9999,9999,9999,352889916
4020,5,ISIP_5,124,9999,9999,9999,353390652
4020,5,ISIP_5,125,9999,9999,9999,353890392
4020,5,ISIP_5,126,9999,9999,9999,354390084
4020,5,ISIP_5,127,9999,9999,9999,354889848
4020,5,ISIP_5,128,9999,9999,9999,355390512
4020,5,ISIP_5,129,9999,9999,9999,355890276
4020,5,ISIP_5,130,9999,9999,9999,356389968
4020,5,ISIP_5,131,9999,9999,9999,356890676
4020,5,ISIP_5,132,9999,9999,9999,357390412
4020,5,ISIP_5,133,9999,9999,9999,357890100
4020,5,ISIP_5,134,9999,9999,9999,358389868
4020,5,ISIP_5,135,9999,9999,9999,358890604
4020,5,ISIP_5,136,9999,9999,9999,359390300
4020,5,ISIP_5,137,9999,9999,9999,359889992
4020,5,ISIP_5,138,9999,9999,9999,360390728
4020,5,ISIP_5,139,9999,9999,9999,360890420
4020,5,ISIP_5,140,9999,9999,9999,361390188
4020,5,ISIP_5,141,9999,9999,9999,361889876
4020,5,ISIP_5,142,9999,9999,9999,362390612
4020,5,ISIP_5,143,9999,9999,9999,362890304
4020,5,ISIP_5,144,9999,9999,9999,363390068
4020,5,ISIP_5,145,9999,9999,9999,363890808
4020,5,ISIP_5,146,9999,9999,9999,364390472
4020,5,ISIP_5,147,9999,9999,9999,364890164
4020,5,ISIP_5,148,9999,9999,9999,365389928
4020,5,ISIP_5,149,9999,9999,9999,365890668
4020,5,ISIP_5,150,9999,9999,9999,366390360
4020,5,ISIP_5,151,9999,9999,9999,366890064
4020,5,ISIP_5,152,9999,9999,9999,367390800
4020,5,ISIP_5,153,9999,9999,9999,367890492
4020,5,ISIP_5,154,9999,9999,9999,368390256
4020,5,ISIP_5,155,9999,9999,9999,368889956
4020,5,ISIP_5,156,9999,9999,9999,369390692
4020,5,ISIP_5,157,9999,9999,9999,369890384
4020,5,ISIP_5,158,9999,9999,9999,370390076
4020,5,ISIP_5,159,9999,9999,9999,370889840
4021,3,ISIP_8,0,5,42,127,401732828
4021,3,ISIP_8,1,5,42,127,402532656
4021,3,ISIP_8,2,1,48,51,402757496
4021,3,ISIP_8,3,5,42,127,403332712
4021,3,ISIP_8,4,1,48,61,403380340
4021,3,ISIP_8,5,5,42,127,404132296
4021,3,ISIP_8,6,1,48,58,404151500
4021,3,ISIP_8,7,5,42,127,404932928
4021,3,ISIP_8,8,1,48,69,404945024
4021,3,ISIP_8,9,5,42,127,405732808
4021,3,ISIP_8,10,1,48,66,405794196
4021,3,ISIP_8,11,1,48,63,406502136
4021,3,ISIP_8,12,5,42,127,406532536
4021,3,ISIP_8,13,1,48,65,407285636
4021,3,ISIP_8,14,5,42,127,407332344
4021,3,ISIP_8,15,1,48,64,408132908
4021,3,ISIP_8,16,5,42,127,408134468
4021,3,ISIP_8,17,1,48,62,408926092
4021,3,ISIP_8,18,5,42,127,408932712
4021,3,ISIP_8,19,1,48,62,409670180
4021,3,ISIP_8,20,5,42,127,409732320
4021,3,ISIP_8,21,1,48,56,410515412
4021,3,ISIP_8,22,5,42,127,410532276
4021,3,ISIP_8,23,1,48,62,411303404
4021,3,ISIP_8,24,5,42,127,411332908
4021,3,ISIP_8,25,5,42,127,412132572
4021,3,ISIP_8,26,1,48,70,412138908
4021,3,ISIP_8,27,1,48,63,412888808
4021,3,ISIP_8,28,5,42,127,412932376
4021,3,ISIP_8,29,1,48,60,413647552
4021,3,ISIP_8,30,5,42,127,413732332
4021,3,ISIP_8,31,1,48,63,414491492
4021,3,ISIP_8,32,5,42,127,414533188
4021,3,ISIP_8,33,1,48,63,415308576
4021,3,ISIP_8,34,5,42,127,415332844
4021,3,ISIP_8,35,1,48,61,416118284
4021,3,ISIP_8,36,5,42,127,416132528
4021,3,ISIP_8,37,1,48,57,416889296
4021,3,ISIP_8,38,5,42,127,416932264
4021,3,ISIP_8,39,1,48,63,417704364
4021,3,ISIP_8,40,5,42,127,417733044
4021,3,ISIP_8,41,1,48,57,418509184
4021,3,ISIP_8,42,5,42,127,418532852
4021,3,ISIP_8,43,1,48,54,419307944
4021,3,ISIP_8,44,5,42,127,419332360
4021,3,ISIP_8,45,1,48,50,420107676
4021,3,ISIP_8,46,5,42,127,420132168
4021,3,ISIP_8,47,1,48,57,420874324
4021,3,ISIP_8,48,5,42,127,420932924
4021,3,ISIP_8,49,1,48,55,421664480
4021,3,ISIP_8,50,5,42,127,421732952
4021,3,ISIP_8,51,1,48,53,422455912
4021,3,ISIP_8,52,5,42,127,422532488
4021,3,ISIP_8,53,1,48,52,423304440
4021,3,ISIP_8,54,5,42,127,423332072
4021,3,ISIP_8,55,1,48,60,424109856
4021,3,ISIP_8,56,5,42,127,424132928
4021,3,ISIP_8,57,1,48,42,424925748
4021,3,ISIP_8,58,5,42,127,424932884
4021,3,ISIP_8,59,1,48,57,425651880
4021,3,ISIP_8,60,1,48,54,426432084
4021,3,ISIP_8,61,1,48,54,427181328
4021,3,ISIP_8,62,1,48,56,427990928
4021,3,ISIP_8,63,1,48,56,428778092
4021,3,ISIP_8,64,1,48,54,429548348
4021,3,ISIP_8,65,1,48,54,430328112
4021,3,ISIP_8,66,1,48,51,431165540
4021,3,ISIP_8,67,1,48,52,431934824
4021,3,ISIP_8,68,1,48,55,432701120
4021,3,ISIP_8,69,1,48,51,433511944
4021,3,ISIP_8,70,1,48,51,434296336
4021,3,ISIP_8,71,1,48,48,435087616
4021,3,ISIP_8,72,1,48,56,435879712
4021,3,ISIP_8,73,1,48,51,436608460
4021,3,ISIP_8,74,1,48,48,437409916
4021,3,ISIP_8,75,1,48,56,438142320
4021,3,ISIP_8,76,1,48,51,438938532
4021,3,ISIP_8,77,1,48,53,439750528
4021,3,ISIP_8,78,1,48,54,440495880
4021,3,ISIP_8,79,1,48,53,441255816
4021,3,ISIP_8,80,1,48,51,442022336
4021,3,ISIP_8,81,1,48,50,442815256
4021,3,ISIP_8,82,1,48,48,443600328
4021,3,ISIP_8,83,1,48,51,444345080
4021,3,ISIP_8,84,1,48,49,445130972
4021,3,ISIP_8,85,1,48,50,445953292
4021,3,ISIP_8,86,1,48,49,446754964
4021,3,ISIP_8,87,1,48,47,447531952
4021,3,ISIP_8,88,1,48,47,448314176
4021,3,ISIP_8,89,1,48,46,449091392
4021,3,ISIP_8,90,1,48,45,449845424
4021,3,ISIP_8,91,1,48,53,450613736
4021,3,ISIP_8,92,1,48,46,451416604
4021,3,ISIP_8,93,1,48,52,452177292
4021,3,ISIP_8,94,1,48,51,452953384
4021,3,ISIP_8,95,1,48,51,453716000
4021,3,ISIP_8,96,1,48,50,454474964
4021,3,ISIP_8,97,1,48,48,455234752
4021,3,ISIP_8,98,1,48,47,456005908
4021,3,ISIP_8,99,1,48,50,456766140
4021,3,ISIP_8,100,1,48,49,457488756
4021,3,ISIP_8,101,1,48,49,458302548
4021,3,ISIP_8,102,1,48,45,459063456
4021,3,ISIP_8,103,1,48,53,459809700
4021,3,ISIP_8,104,1,48,56,460555800
4021,3,ISIP_8,105,1,48,54,461370040
4021,3,ISIP_8,106,1,48,53,462098408
4021,3,ISIP_8,107,1,48,54,462871664
4021,3,ISIP_8,108,1,48,51,463637808
4021,3,ISIP_8,109,1,48,54,464385992
4021,3,ISIP_8,110,1,48,51,465194776
4021,3,ISIP_8,111,1,48,46,465914176
4021,3,ISIP_8,112,1,48,55,466678148
4021,3,ISIP_8,113,1,48,53,467411312
4021,3,ISIP_8,114,1,48,50,468186580
4021,3,ISIP_8,115,1,48,53,468923164
4021,3,ISIP_8,116,1,48,50,469721624
4021,3,ISIP_8,117,1,48,50,470431668
4021,3,ISIP_8,118,1,48,51,471230804
4021,3,ISIP_8,119,1,48,53,471987448
4021,3,ISIP_8,120,1,48,50,472758532
4021,3,ISIP_8,121,1,48,52,473544640
4021,3,ISIP_8,122,1,48,52,474327692
4021,3,ISIP_8,123,1,48,48,475096308
4021,3,ISIP_8,124,1,48,55,475900672
4021,3,ISIP_8,125,1,48,46,476688208
4021,3,ISIP_8,126,1,48,43,477483528
4021,3,ISIP_8,127,1,48,50,478270616
4021,3,ISIP_8,128,1,48,39,479042968
4021,3,ISIP_8,129,1,48,56,479828260
4021,3,ISIP_8,130,1,48,53,480636464
4021,3,ISIP_8,131,1,48,57,481413756
4021,3,ISIP_8,132,1,48,48,482190072
4021,3,ISIP_8,133,1,48,51,482942752
4021,3,ISIP_8,134,1,48,44,483731412
4021,3,ISIP_8,135,1,48,54,484485064
4021,3,ISIP_8,136,1,48,46,485305964
4021,3,ISIP_8,137,1,48,48,486045480
4021,3,ISIP_8,138,1,48,51,486810952
4021,3,ISIP_8,139,1,48,50,487565128
4021,3,ISIP_8,140,1,48,44,488331944
4021,3,ISIP_8,141,1,48,41,489111032
4021,3,ISIP_8,142,1,48,47,489869772
4021,3,ISIP_8,143,1,48,43,490640856
4021,3,ISIP_8,144,1,48,36,491401764
4021,3,ISIP_8,145,1,48,47,492156168
4021,3,ISIP_8,146,1,48,40,492906816
4021,3,ISIP_8,147,1,48,43,493665308
4021,3,ISIP_8,148,1,48,44,494397412
4021,3,ISIP_8,149,1,48,40,495184060
4021,3,ISIP_8,150,1,48,40,495947284
4021,3,ISIP_8,151,1,48,33,496747480
4021,3,ISIP_8,152,1,48,29,497523808
4021,3,ISIP_8,153,1,48,32,498322860
4021,3,ISIP_8,154,1,48,35,499065444
4021,3,ISIP_8,155,1,48,30,499865848
4021,3,ISIP_8,156,1,48,36,500593096
4021,3,ISIP_8,157,1,48,36,501355728
4021,3,ISIP_8,158,1,48,30,502110776
4021,3,ISIP_8,159,1,48,36,502876172
4021,3,ISIP_8,160,1,48,38,503658576
4021,3,ISIP_8,161,1,48,39,504441696
4021,3,ISIP_8,162,1,48,40,505175284
4021,3,ISIP_8,163,1,48,39,505991040
4021,3,ISIP_8,164,1,48,40,506733776
4021,3,ISIP_8,165,1,48,42,507519444
4021,3,ISIP_8,166,1,48,38,508275336
4021,3,ISIP_8,167,1,48,41,509549108
4021,3,ISIP_8,168,1,48,35,510267512
4021,3,ISIP_8,169,1,48,43,510960352
4021,3,ISIP_8,170,1,48,51,511663888
4021,3,ISIP_8,171,1,48,38,512397576
4021,3,ISIP_8,172,1,48,56,513112904
4021,3,ISIP_8,173,1,48,51,513858480
4021,3,ISIP_8,174,1,48,50,514586032
4021,3,ISIP_8,175,1,48,51,515285812
4021,3,ISIP_8,176,1,48,51,516039248
4021,3,ISIP_8,177,1,48,52,516778836
4021,3,ISIP_8,178,1,48,54,517459912
4021,3,ISIP_8,179,1,48,50,518203916
4021,3,ISIP_8,180,1,48,50,518928848
4021,3,ISIP_8,181,1,48,44,519645404
4021,3,ISIP_8,182,1,48,42,520356568
4021,3,ISIP_8,183,1,48,50,521104468
4021,3,ISIP_8,0,9999,9999,9999,401730612
4021,3,ISIP_8,1,9999,9999,9999,402530368
4021,3,ISIP_8,2,9999,9999,9999,403330124
4021,3,ISIP_8,3,9999,9999,9999,404129860
4021,3,ISIP_8,4,9999,9999,9999,404930640
4021,3,ISIP_8,5,9999,9999,9999,405730372
4021,3,ISIP_8,6,9999,9999,9999,406530100
4021,3,ISIP_8,7,9999,9999,9999,407329908
4021,3,ISIP_8,8,9999,9999,9999,408130620
4021,3,ISIP_8,9,9999,9999,9999,408930424
4021,3,ISIP_8,10,9999,9999,9999,409730104
4021,3,ISIP_8,11,9999,9999,9999,410529840
4021,3,ISIP_8,12,9999,9999,9999,411330620
4021,3,ISIP_8,13,9999,9999,9999,412130360
4021,3,ISIP_8,14,9999,9999,9999,412930160
4021,3,ISIP_8,15,9999,9999,9999,413729896
4021,3,ISIP_8,16,9999,9999,9999,414530676
4021,3,ISIP_8,17,9999,9999,9999,415330408
4021,3,ISIP_8,18,9999,9999,9999,416130092
4021,3,ISIP_8,19,9999,9999,9999,416929900
4021,3,ISIP_8,20,9999,9999,9999,417730608
4021,3,ISIP_8,21,9999,9999,9999,418530412
4021,3,ISIP_8,22,9999,9999,9999,419330148
4021,3,ISIP_8,23,9999,9999,9999,420129880
4021,3,ISIP_8,24,9999,9999,9999,420930636
4021,3,ISIP_8,25,9999,9999,9999,421730368
4021,3,ISIP_8,26,9999,9999,9999,422530128
4021,3,ISIP_8,27,9999,9999,9999,423329860
4021,3,ISIP_8,28,9999,9999,9999,424130640
4021,3,ISIP_8,29,9999,9999,9999,424930372
4021,3,ISIP_8,30,9999,9999,9999,425730108
4021,3,ISIP_8,31,9999,9999,9999,426529896
4021,3,ISIP_8,32,9999,9999,9999,427330672
4021,3,ISIP_8,33,9999,9999,9999,428130400
4021,3,ISIP_8,34,9999,9999,9999,428930156
4021,3,ISIP_8,35,9999,9999,9999,429729884
4021,3,ISIP_8,36,9999,9999,9999,430530660
4021,3,ISIP_8,37,9999,9999,9999,431330392
4021,3,ISIP_8,38,9999,9999,9999,432130120
4021,3,ISIP_8,39,9999,9999,9999,432929852
4021,3,ISIP_8,40,9999,9999,9999,433730624
4021,3,ISIP_8,41,9999,9999,9999,434530356
4021,3,ISIP_8,42,9999,9999,9999,435330108
4021,3,ISIP_8,43,9999,9999,9999,436129840
4021,3,ISIP_8,44,9999,9999,9999,436930616
4021,3,ISIP_8,45,9999,9999,9999,437730416
4021,3,ISIP_8,46,9999,9999,9999,438530148
4021,3,ISIP_8,47,9999,9999,9999,439329876
4021,3,ISIP_8,48,9999,9999,9999,440130652
4021,3,ISIP_8,49,9999,9999,9999,440930380
4021,3,ISIP_8,50,9999,9999,9999,441730132
4021,3,ISIP_8,51,9999,9999,9999,442529864
4021,3,ISIP_8,52,9999,9999,9999,443330636
4021,3,ISIP_8,53,9999,9999,9999,444130368
4021,3,ISIP_8,54,9999,9999,9999,444930100
4021,3,ISIP_8,55,9999,9999,9999,445729900
4021,3,ISIP_8,56,9999,9999,9999,446530676
4021,3,ISIP_8,57,9999,9999,9999,447330404
4021,3,ISIP_8,58,9999,9999,9999,448130160
4021,3,ISIP_8,59,9999,9999,9999,448929888
4021,3,ISIP_8,60,9999,9999,9999,449730664
4021,3,ISIP_8,61,9999,9999,9999,450530392
4021,3,ISIP_8,62,9999,9999,9999,451330120
4021,3,ISIP_8,63,9999,9999,9999,452129852
4021,3,ISIP_8,64,9999,9999,9999,452930628
4021,3,ISIP_8,65,9999,9999,9999,453730420
4021,3,ISIP_8,66,9999,9999,9999,454530104
4021,3,ISIP_8,67,9999,9999,9999,455329892
4021,3,ISIP_8,68,9999,9999,9999,456130668
4021,3,ISIP_8,69,9999,9999,9999,456930396
4021,3,ISIP_8,70,9999,9999,9999,457730124
4021,3,ISIP_8,71,9999,9999,9999,458529856
4021,3,ISIP_8,72,9999,9999,9999,459330628
4021,3,ISIP_8,73,9999,9999,9999,460130356
4021,3,ISIP_8,74,9999,9999,9999,460930112
4021,3,ISIP_8,75,9999,9999,9999,461729840
4021,3,ISIP_8,76,9999,9999,9999,462530616
4021,3,ISIP_8,77,9999,9999,9999,463330416
4021,3,ISIP_8,78,9999,9999,9999,464130148
4021,3,ISIP_8,79,9999,9999,9999,464929876
4021,3,ISIP_8,80,9999,9999,9999,465730652
4021,3,ISIP_8,81,9999,9999,9999,466530380
4021,3,ISIP_8,82,9999,9999,9999,467330136
4021,3,ISIP_8,83,9999,9999,9999,468129864
4021,3,ISIP_8,84,9999,9999,9999,468930636
4021,3,ISIP_8,85,9999,9999,9999,469730364
4021,3,ISIP_8,86,9999,9999,9999,470530128
4021,3,ISIP_8,87,9999,9999,9999,471329884
4021,3,ISIP_8,88,9999,9999,9999,472130660
4021,3,ISIP_8,89,9999,9999,9999,472930388
4021,3,ISIP_8,90,9999,9999,9999,473730144
4021,3,ISIP_8,91,9999,9999,9999,474529872
4021,3,ISIP_8,92,9999,9999,9999,475330648
4021,3,ISIP_8,93,9999,9999,9999,476130376
4021,3,ISIP_8,94,9999,9999,9999,476930108
4021,3,ISIP_8,95,9999,9999,9999,477729908
4021,3,ISIP_8,96,9999,9999,9999,478530608
4021,3,ISIP_8,97,9999,9999,9999,479330412
4021,3,ISIP_8,98,9999,9999,9999,480130092
4021,3,ISIP_8,99,9999,9999,9999,480929896
4021,3,ISIP_8,100,9999,9999,9999,481730672
4021,3,ISIP_8,101,9999,9999,9999,482530400
4021,3,ISIP_8,102,9999,9999,9999,483330128
4021,3,ISIP_8,103,9999,9999,9999,484129860
4021,3,ISIP_8,104,9999,9999,9999,484930636
4021,3,ISIP_8,105,9999,9999,9999,485730364
4021,3,ISIP_8,106,9999,9999,9999,486530120
4021,3,ISIP_8,107,9999,9999,9999,487329848
4021,3,ISIP_8,108,9999,9999,9999,488130624
4021,3,ISIP_8,109,9999,9999,9999,488930356
4021,3,ISIP_8,110,9999,9999,9999,489730156
4021,3,ISIP_8,111,9999,9999,9999,490529888
4021,3,ISIP_8,112,9999,9999,9999,491330664
4021,3,ISIP_8,113,9999,9999,9999,492130392
4021,3,ISIP_8,114,9999,9999,9999,492930140
4021,3,ISIP_8,115,9999,9999,9999,493729868
4021,3,ISIP_8,116,9999,9999,9999,494530632
4021,3,ISIP_8,117,9999,9999,9999,495330360
4021,3,ISIP_8,118,9999,9999,9999,496130164
4021,3,ISIP_8,119,9999,9999,9999,496929892
4021,3,ISIP_8,120,9999,9999,9999,497730668
4021,3,ISIP_8,121,9999,9999,9999,498530396
4021,3,ISIP_8,122,9999,9999,9999,499330152
4021,3,ISIP_8,123,9999,9999,9999,500129880
4021,3,ISIP_8,124,9999,9999,9999,500930656
4021,3,ISIP_8,125,9999,9999,9999,501730384
4021,3,ISIP_8,126,9999,9999,9999,502530116
4021,3,ISIP_8,127,9999,9999,9999,503329844
4021,3,ISIP_8,128,9999,9999,9999,504130620
4021,3,ISIP_8,129,9999,9999,9999,504930376
4021,3,ISIP_8,130,9999,9999,9999,505730104
4021,3,ISIP_8,131,9999,9999,9999,506529908
4021,3,ISIP_8,132,9999,9999,9999,507330608
4021,3,ISIP_8,133,9999,9999,9999,508130412
4021,3,ISIP_8,134,9999,9999,9999,508930140
4021,3,ISIP_8,135,9999,9999,9999,509729872
4021,3,ISIP_8,136,9999,9999,9999,510530644
4021,3,ISIP_8,137,9999,9999,9999,511330400
4021,3,ISIP_8,138,9999,9999,9999,512130128
4021,3,ISIP_8,139,9999,9999,9999,512929860
4021,3,ISIP_8,140,9999,9999,9999,513730636
4021,3,ISIP_8,141,9999,9999,9999,514530364
4021,3,ISIP_8,142,9999,9999,9999,515330160
4021,3,ISIP_8,143,9999,9999,9999,516129908
4021,3,ISIP_8,144,9999,9999,9999,516930652
4021,3,ISIP_8,145,9999,9999,9999,517730404
4021,3,ISIP_8,146,9999,9999,9999,518530136
4021,3,ISIP_8,147,9999,9999,9999,519329864
4021,3,ISIP_8,148,9999,9999,9999,520130640
4021,3,ISIP_8,149,9999,9999,9999,520930368
4022,11,Pattern_Practice,0,5,42,127,660862168
4022,11,Pattern_Practice,1,5,42,127,661363156
4022,11,Pattern_Practice,2,5,42,127,661862724
4022,11,Pattern_Practice,3,5,42,127,662362364
4022,11,Pattern_Practice,4,5,42,127,662862132
4022,11,Pattern_Practice,5,1,48,78,662880756
4022,11,Pattern_Practice,6,1,38,18,662890612
4022,11,Pattern_Practice,7,1,38,88,663235028
4022,11,Pattern_Practice,8,1,38,54,663301876
4022,11,Pattern_Practice,9,5,42,127,663363244
4022,11,Pattern_Practice,10,1,38,71,663584632
4022,11,Pattern_Practice,11,1,38,95,663845308
4022,11,Pattern_Practice,12,5,42,127,663862840
4022,11,Pattern_Practice,13,1,48,94,664221812
4022,11,Pattern_Practice,14,5,42,127,664362300
4022,11,Pattern_Practice,15,1,48,127,664584972
4022,11,Pattern_Practice,16,1,48,94,664843628
4022,11,Pattern_Practice,17,1,38,21,664853476
4022,11,Pattern_Practice,18,5,42,127,664863012
4022,11,Pattern_Practice,19,1,38,103,665232272
4022,11,Pattern_Practice,20,1,48,22,665241680
4022,11,Pattern_Practice,21,5,42,127,665363212
4022,11,Pattern_Practice,22,1,38,89,665574072
4022,11,Pattern_Practice,23,1,38,56,665625960
4022,11,Pattern_Practice,24,1,38,103,665832556
4022,11,Pattern_Practice,25,1,48,21,665842556
4022,11,Pattern_Practice,26,5,42,127,665862488
4022,11,Pattern_Practice,27,1,38,107,666211028
4022,11,Pattern_Practice,28,5,42,127,666362216
4022,11,Pattern_Practice,29,1,38,124,666546144
4022,11,Pattern_Practice,30,1,48,105,666829036
4022,11,Pattern_Practice,31,5,42,127,666863024
4022,11,Pattern_Practice,32,1,48,127,667222268
4022,11,Pattern_Practice,33,5,42,127,667362628
4022,11,Pattern_Practice,34,1,48,126,667576100
4022,11,Pattern_Practice,35,1,38,116,667859812
4022,11,Pattern_Practice,36,5,42,127,667862316
4022,11,Pattern_Practice,37,1,48,22,667869400
4022,11,Pattern_Practice,38,1,38,97,668240372
4022,11,Pattern_Practice,39,1,48,23,668250116
4022,11,Pattern_Practice,40,5,42,127,668363196
4022,11,Pattern_Practice,41,1,38,127,668640628
4022,11,Pattern_Practice,42,5,42,127,668862816
4022,11,Pattern_Practice,43,1,48,100,668902136
4022,11,Pattern_Practice,44,1,48,127,669281544
4022,11,Pattern_Practice,45,1,38,25,669291548
4022,11,Pattern_Practice,46,5,42,127,669362488
4022,11,Pattern_Practice,47,1,48,106,669658792
4022,11,Pattern_Practice,48,1,38,24,669668648
4022,11,Pattern_Practice,49,5,42,127,669862316
4022,11,Pattern_Practice,50,1,38,127,669921536
4022,11,Pattern_Practice,51,1,38,96,670169940
4022,11,Pattern_Practice,52,1,38,127,670269704
4022,11,Pattern_Practice,53,1,48,24,670278808
4022,11,Pattern_Practice,54,1,38,68,670351812
4022,11,Pattern_Practice,55,1,48,18,670361696
4022,11,Pattern_Practice,56,5,42,127,670363116
4022,11,Pattern_Practice,57,1,38,127,670496264
4022,11,Pattern_Practice,58,1,38,117,670565460
4022,11,Pattern_Practice,59,1,38,65,670609868
4022,11,Pattern_Practice,60,1,48,108,670828728
4022,11,Pattern_Practice,61,1,38,26,670838580
4022,11,Pattern_Practice,62,5,42,127,670862624
4022,11,Pattern_Practice,63,1,48,120,671078000
4022,11,Pattern_Practice,64,1,38,26,671088004
4022,11,Pattern_Practice,65,1,48,69,671330244
4022,11,Pattern_Practice,66,5,42,127,671362372
4022,11,Pattern_Practice,67,1,38,127,671586452
4022,11,Pattern_Practice,68,1,48,27,671596380
4022,11,Pattern_Practice,69,1,38,127,671682604
4022,11,Pattern_Practice,70,1,38,72,671722268
4022,11,Pattern_Practice,71,5,42,127,671862036
4022,11,Pattern_Practice,72,1,38,127,671967848
4022,11,Pattern_Practice,73,1,38,81,672047340
4022,11,Pattern_Practice,74,1,38,127,672226336
4022,11,Pattern_Practice,75,1,38,88,672311204
4022,11,Pattern_Practice,76,1,48,19,672320460
4022,11,Pattern_Practice,77,1,38,52,672354720
4022,11,Pattern_Practice,78,5,42,127,672363132
4022,11,Pattern_Practice,79,1,38,127,672462472
4022,11,Pattern_Practice,80,1,48,126,672786048
4022,11,Pattern_Practice,81,1,38,27,672795980
4022,11,Pattern_Practice,82,5,42,127,672862832
4022,11,Pattern_Practice,83,1,48,106,673062180
4022,11,Pattern_Practice,84,1,38,23,673072260
4022,11,Pattern_Practice,85,1,48,95,673307392
4022,11,Pattern_Practice,86,5,42,127,673362256
4022,11,Pattern_Practice,87,1,38,112,673687864
4022,11,Pattern_Practice,88,5,42,127,673862908
4022,11,Pattern_Practice,89,1,38,74,674002184
4022,11,Pattern_Practice,90,1,38,122,674091396
4022,11,Pattern_Practice,91,1,48,24,674100724
4022,11,Pattern_Practice,92,1,38,95,674201900
4022,11,Pattern_Practice,93,5,42,127,674362808
4022,11,Pattern_Practice,94,1,38,127,674377296
4022,11,Pattern_Practice,95,1,38,127,674636252
4022,11,Pattern_Practice,96,5,42,127,674862556
4022,11,Pattern_Practice,97,1,38,127,674890136
4022,11,Pattern_Practice,98,1,48,26,674900584
4022,11,Pattern_Practice,99,1,48,127,675162000
4022,11,Pattern_Practice,100,5,42,127,675362108
4022,11,Pattern_Practice,101,1,48,107,675409060
4022,11,Pattern_Practice,102,1,38,24,675419324
4022,11,Pattern_Practice,103,1,48,127,675759180
4022,11,Pattern_Practice,104,5,42,127,675862864
4022,11,Pattern_Practice,105,1,38,94,676101920
4022,11,Pattern_Practice,106,1,48,103,676212472
4022,11,Pattern_Practice,107,1,38,23,676222700
4022,11,Pattern_Practice,108,5,42,127,676362788
4022,11,Pattern_Practice,109,1,38,97,676448808
4022,11,Pattern_Practice,110,1,38,68,676478408
4022,11,Pattern_Practice,111,5,42,127,676862312
4022,11,Pattern_Practice,112,1,48,121,676941500
4022,11,Pattern_Practice,113,1,38,25,676951764
4022,11,Pattern_Practice,114,1,48,81,677196604
4022,11,Pattern_Practice,115,1,38,20,677207172
4022,11,Pattern_Practice,116,5,42,127,677363188
4022,11,Pattern_Practice,117,1,48,106,677458384
4022,11,Pattern_Practice,118,1,38,127,677825292
4022,11,Pattern_Practice,119,5,42,127,677862724
4022,11,Pattern_Practice,120,1,38,76,678132728
4022,11,Pattern_Practice,121,1,38,117,678236928
4022,11,Pattern_Practice,122,1,48,22,678246560
4022,11,Pattern_Practice,123,5,42,127,678362560
4022,11,Pattern_Practice,124,1,38,127,678532504
4022,11,Pattern_Practice,125,5,42,127,678862180
4022,11,Pattern_Practice,126,1,48,127,679049848
4022,11,Pattern_Practice,127,5,42,127,679362920
4022,11,Pattern_Practice,128,1,48,127,679519100
4022,11,Pattern_Practice,129,5,42,127,679862616
4022,11,Pattern_Practice,130,1,48,127,680025900
4022,11,Pattern_Practice,131,5,42,127,680362612
4022,11,Pattern_Practice,132,1,48,105,680501936
4022,11,Pattern_Practice,133,5,42,127,680862980
4022,11,Pattern_Practice,134,1,48,106,680945308
4022,11,Pattern_Practice,135,5,42,127,681362900
4022,11,Pattern_Practice,136,1,48,96,681401096
4022,11,Pattern_Practice,137,5,42,127,681862444
4022,11,Pattern_Practice,138,1,48,118,681891968
4022,11,Pattern_Practice,139,5,42,127,682362436
4022,11,Pattern_Practice,140,1,48,101,682374608
4022,11,Pattern_Practice,141,5,42,127,682862880
4022,11,Pattern_Practice,142,1,48,81,682876996
4022,11,Pattern_Practice,143,1,38,20,682886996
4022,11,Pattern_Practice,144,1,38,94,682895432
4022,11,Pattern_Practice,145,1,48,105,683347780
4022,11,Pattern_Practice,146,1,38,106,683351464
4022,11,Pattern_Practice,147,5,42,127,683362640
4022,11,Pattern_Practice,148,1,48,123,683848864
4022,11,Pattern_Practice,149,1,38,108,683849512
4022,11,Pattern_Practice,150,5,42,127,683862736
4022,11,Pattern_Practice,151,1,38,119,684334300
4022,11,Pattern_Practice,152,1,48,111,684337568
4022,11,Pattern_Practice,153,5,42,127,684363404
4022,11,Pattern_Practice,154,1,38,106,684834688
4022,11,Pattern_Practice,155,1,48,97,684842300
4022,11,Pattern_Practice,156,5,42,127,684862756
4022,11,Pattern_Practice,157,1,38,108,685337404
4022,11,Pattern_Practice,158,1,48,110,685343896
4022,11,Pattern_Practice,159,5,42,127,685362552
4022,11,Pattern_Practice,160,1,38,103,685831144
4022,11,Pattern_Practice,161,1,48,122,685849152
4022,11,Pattern_Practice,162,5,42,127,685862352
4022,11,Pattern_Practice,163,1,38,99,686307532
4022,11,Pattern_Practice,164,1,48,21,686317528
4022,11,Pattern_Practice,165,5,42,127,686362968
4022,11,Pattern_Practice,166,1,38,102,686422840
4022,11,Pattern_Practice,167,1,38,123,686568456
4022,11,Pattern_Practice,168,1,48,22,686578308
4022,11,Pattern_Practice,169,1,38,127,686663552
4022,11,Pattern_Practice,170,1,38,70,686701840
4022,11,Pattern_Practice,171,1,48,127,686817976
4022,11,Pattern_Practice,172,1,38,30,686828132
4022,11,Pattern_Practice,173,5,42,127,686862648
4022,11,Pattern_Practice,174,1,48,127,687334460
4022,11,Pattern_Practice,175,5,42,127,687362392
4022,11,Pattern_Practice,176,1,48,127,687840208
4022,11,Pattern_Practice,177,5,42,127,687862236
4022,11,Pattern_Practice,178,1,48,98,688320308
4022,11,Pattern_Practice,179,1,38,24,688330092
4022,11,Pattern_Practice,180,5,42,127,688362736
4022,11,Pattern_Practice,181,1,38,118,688772236
4022,11,Pattern_Practice,182,1,48,24,688782088
4022,11,Pattern_Practice,183,5,42,127,688862604
4022,11,Pattern_Practice,184,1,38,116,688873788
4022,11,Pattern_Practice,185,1,48,24,688883788
4022,11,Pattern_Practice,186,1,38,127,689064920
4022,11,Pattern_Practice,187,1,38,127,689157724
4022,11,Pattern_Practice,188,1,38,65,689191288
4022,11,Pattern_Practice,189,1,38,17,689338420
4022,11,Pattern_Practice,190,5,42,127,689362236
4022,11,Pattern_Practice,191,1,48,116,689473800
4022,11,Pattern_Practice,192,1,38,24,689483276
4022,11,Pattern_Practice,193,5,42,127,689863140
4022,11,Pattern_Practice,194,1,48,127,689908520
4022,11,Pattern_Practice,195,5,42,127,690362612
4022,11,Pattern_Practice,196,1,48,122,690393924
4022,11,Pattern_Practice,197,1,48,114,690850972
4022,11,Pattern_Practice,198,5,42,127,690862448
4022,11,Pattern_Practice,199,1,48,127,691352460
4022,11,Pattern_Practice,200,5,42,127,691362144
4022,11,Pattern_Practice,201,5,42,127,691862816
4022,11,Pattern_Practice,202,1,48,111,691863784
4022,11,Pattern_Practice,203,1,48,127,692332928
4022,11,Pattern_Practice,204,5,42,127,692362584
4022,11,Pattern_Practice,205,1,48,127,692426796
4022,11,Pattern_Practice,206,1,38,27,692435980
4022,11,Pattern_Practice,207,1,48,127,692587488
4022,11,Pattern_Practice,208,1,38,25,692597124
4022,11,Pattern_Practice,209,1,38,127,692831208
4022,11,Pattern_Practice,210,1,38,95,692854376
4022,11,Pattern_Practice,211,5,42,127,692862340
4022,11,Pattern_Practice,212,1,38,108,693109088
4022,11,Pattern_Practice,213,5,42,127,693362992
4022,11,Pattern_Practice,214,1,38,104,693363960
4022,11,Pattern_Practice,215,1,48,22,693373584
4022,11,Pattern_Practice,216,1,48,127,693801180
4022,11,Pattern_Practice,217,1,38,23,693811104
4022,11,Pattern_Practice,218,5,42,127,693862628
4022,11,Pattern_Practice,219,1,48,127,694322516
4022,11,Pattern_Practice,220,5,42,127,694362368
4022,11,Pattern_Practice,221,1,48,121,694833652
4022,11,Pattern_Practice,222,5,42,127,694862188
4022,11,Pattern_Practice,223,1,48,122,695335148
4022,11,Pattern_Practice,224,1,38,25,695345148
4022,11,Pattern_Practice,225,5,42,127,695363136
4022,11,Pattern_Practice,226,1,48,81,695824476
4022,11,Pattern_Practice,227,1,38,21,695834248
4022,11,Pattern_Practice,228,5,42,127,695862560
4022,11,Pattern_Practice,229,1,48,127,696342372
4022,11,Pattern_Practice,230,5,42,127,696362304
4022,11,Pattern_Practice,231,5,42,127,696862976
4022,11,Pattern_Practice,232,1,48,86,696876120
4022,11,Pattern_Practice,233,1,38,21,696885448
4022,11,Pattern_Practice,234,1,48,127,697350912
4022,11,Pattern_Practice,235,5,42,127,697362916
4022,11,Pattern_Practice,236,1,48,119,697433588
4022,11,Pattern_Practice,237,1,38,26,697442768
4022,11,Pattern_Practice,238,1,48,64,697472440
4022,11,Pattern_Practice,239,1,48,127,697586904
4022,11,Pattern_Practice,240,1,38,29,697596608
4022,11,Pattern_Practice,241,1,38,108,697742152
4022,11,Pattern_Practice,242,1,48,22,697751860
4022,11,Pattern_Practice,243,1,38,89,697759992
4022,11,Pattern_Practice,244,5,42,127,697862452
4022,11,Pattern_Practice,245,1,48,127,698033064
4022,11,Pattern_Practice,246,1,38,25,698043072
4022,11,Pattern_Practice,247,1,38,119,698118068
4022,11,Pattern_Practice,248,1,38,92,698134704
4022,11,Pattern_Practice,249,5,42,127,698362132
4022,11,Pattern_Practice,250,1,48,127,698424788
4022,11,Pattern_Practice,251,1,38,29,698434868
4022,11,Pattern_Practice,252,1,48,127,698683020
4022,11,Pattern_Practice,253,1,38,28,698692948
4022,11,Pattern_Practice,254,5,42,127,698863128
4022,11,Pattern_Practice,255,1,48,84,698939024
4022,11,Pattern_Practice,256,1,38,26,698948576
4022,11,Pattern_Practice,257,1,48,43,699163296
4022,11,Pattern_Practice,258,5,42,127,699362604
4022,11,Pattern_Practice,259,1,48,127,699443956
4022,11,Pattern_Practice,260,1,38,30,699454332
4022,11,Pattern_Practice,261,1,38,106,699565684
4022,11,Pattern_Practice,262,1,48,22,699574792
4022,11,Pattern_Practice,263,1,48,101,699693444
4022,11,Pattern_Practice,264,1,38,22,699703672
4022,11,Pattern_Practice,265,1,38,116,699822204
4022,11,Pattern_Practice,266,1,38,88,699840352
4022,11,Pattern_Practice,267,5,42,127,699862232
4022,11,Pattern_Practice,268,1,48,68,699936916
4022,11,Pattern_Practice,269,1,48,90,700065272
4022,11,Pattern_Practice,270,1,38,20,700075572
4022,11,Pattern_Practice,271,1,38,99,700184580
4022,11,Pattern_Practice,272,1,38,79,700199516
4022,11,Pattern_Practice,273,1,48,95,700289220
4022,11,Pattern_Practice,274,1,38,19,700299892
4022,11,Pattern_Practice,275,5,42,127,700363052
4022,11,Pattern_Practice,276,1,48,84,700417740
4022,11,Pattern_Practice,277,1,38,19,700427448
4022,11,Pattern_Practice,278,1,38,104,700539992
4022,11,Pattern_Practice,279,1,48,119,700663384
4022,11,Pattern_Practice,280,1,38,23,700673164
4022,11,Pattern_Practice,281,1,48,83,700791704
4022,11,Pattern_Practice,282,1,38,19,700802084
4022,11,Pattern_Practice,0,9999,9999,9999,660859956
4022,11,Pattern_Practice,1,9999,9999,9999,661360720
4022,11,Pattern_Practice,2,9999,9999,9999,661860436
4022,11,Pattern_Practice,3,9999,9999,9999,662360152
4022,11,Pattern_Practice,4,9999,9999,9999,662859844
4022,11,Pattern_Practice,5,9999,9999,9999,663360584
4022,11,Pattern_Practice,6,9999,9999,9999,663860332
4022,11,Pattern_Practice,7,9999,9999,9999,664360012
4022,11,Pattern_Practice,8,9999,9999,9999,664860728
4022,11,Pattern_Practice,9,9999,9999,9999,665360480
4022,11,Pattern_Practice,10,9999,9999,9999,665860204
4022,11,Pattern_Practice,11,9999,9999,9999,666359928
4022,11,Pattern_Practice,12,9999,9999,9999,666860664
4022,11,Pattern_Practice,13,9999,9999,9999,667360344
4022,11,Pattern_Practice,14,9999,9999,9999,667860032
4022,11,Pattern_Practice,15,9999,9999,9999,668360764
4022,11,Pattern_Practice,16,9999,9999,9999,668860532
4022,11,Pattern_Practice,17,9999,9999,9999,669360200
4022,11,Pattern_Practice,18,9999,9999,9999,669859956
4022,11,Pattern_Practice,19,9999,9999,9999,670360660
4022,11,Pattern_Practice,20,9999,9999,9999,670860340
4022,11,Pattern_Practice,21,9999,9999,9999,671360084
4022,11,Pattern_Practice,22,9999,9999,9999,671859824
4022,11,Pattern_Practice,23,9999,9999,9999,672360548
4022,11,Pattern_Practice,24,9999,9999,9999,672860248
4022,11,Pattern_Practice,25,9999,9999,9999,673359968
4022,11,Pattern_Practice,26,9999,9999,9999,673860696
4022,11,Pattern_Practice,27,9999,9999,9999,674360372
4022,11,Pattern_Practice,28,9999,9999,9999,674860120
4022,11,Pattern_Practice,29,9999,9999,9999,675359820
4022,11,Pattern_Practice,30,9999,9999,9999,675860580
4022,11,Pattern_Practice,31,9999,9999,9999,676360280
4022,11,Pattern_Practice,32,9999,9999,9999,676859952
4022,11,Pattern_Practice,33,9999,9999,9999,677360752
4022,11,Pattern_Practice,34,9999,9999,9999,677860440
4022,11,Pattern_Practice,35,9999,9999,9999,678360124
4022,11,Pattern_Practice,36,9999,9999,9999,678859892
4022,11,Pattern_Practice,37,9999,9999,9999,679360560
4022,11,Pattern_Practice,38,9999,9999,9999,679860328
4022,11,Pattern_Practice,39,9999,9999,9999,680360028
4022,11,Pattern_Practice,40,9999,9999,9999,680860768
4022,11,Pattern_Practice,41,9999,9999,9999,681360464
4022,11,Pattern_Practice,42,9999,9999,9999,681860160
4022,11,Pattern_Practice,43,9999,9999,9999,682359928
4022,11,Pattern_Practice,44,9999,9999,9999,682860596
4022,11,Pattern_Practice,45,9999,9999,9999,683360356
4022,11,Pattern_Practice,46,9999,9999,9999,683860052
4022,11,Pattern_Practice,47,9999,9999,9999,684360820
4022,11,Pattern_Practice,48,9999,9999,9999,684860468
4022,11,Pattern_Practice,49,9999,9999,9999,685360192
4022,11,Pattern_Practice,50,9999,9999,9999,685859916
4022,11,Pattern_Practice,51,9999,9999,9999,686360684
4022,11,Pattern_Practice,52,9999,9999,9999,686860360
4022,11,Pattern_Practice,53,9999,9999,9999,687360104
4022,11,Pattern_Practice,54,9999,9999,9999,687859800
4022,11,Pattern_Practice,55,9999,9999,9999,688360524
4022,11,Pattern_Practice,56,9999,9999,9999,688860244
4022,11,Pattern_Practice,57,9999,9999,9999,689359952
4022,11,Pattern_Practice,58,9999,9999,9999,689860704
4022,11,Pattern_Practice,59,9999,9999,9999,690360400
4022,11,Pattern_Practice,60,9999,9999,9999,690860088
4022,11,Pattern_Practice,61,9999,9999,9999,691359856
4022,11,Pattern_Practice,62,9999,9999,9999,691860532
4022,11,Pattern_Practice,63,9999,9999,9999,692360296
4022,11,Pattern_Practice,64,9999,9999,9999,692859980
4022,11,Pattern_Practice,65,9999,9999,9999,693360704
4022,11,Pattern_Practice,66,9999,9999,9999,693860416
4022,11,Pattern_Practice,67,9999,9999,9999,694360156
4022,11,Pattern_Practice,68,9999,9999,9999,694859824
4022,11,Pattern_Practice,69,9999,9999,9999,695360624
4022,11,Pattern_Practice,70,9999,9999,9999,695860272
4022,11,Pattern_Practice,71,9999,9999,9999,696360016
4022,11,Pattern_Practice,72,9999,9999,9999,696860764
4022,11,Pattern_Practice,73,9999,9999,9999,697360480
4022,11,Pattern_Practice,74,9999,9999,9999,697860168
4022,11,Pattern_Practice,75,9999,9999,9999,698359920
4022,11,Pattern_Practice,76,9999,9999,9999,698860616
4022,11,Pattern_Practice,77,9999,9999,9999,699360316
4022,11,Pattern_Practice,78,9999,9999,9999,699860020
4022,11,Pattern_Practice,79,9999,9999,9999,700360768
4023,13,Improv_Metronome,0,1,148,42,727578812
4023,13,Improv_Metronome,1,1,127,132,727580136
4023,13,Improv_Metronome,2,1,42,127,727580716
4023,13,Improv_Metronome,3,5,42,127,728078652
4023,13,Improv_Metronome,4,5,42,127,728578516
4023,13,Improv_Metronome,5,5,42,127,729078012
4023,13,Improv_Metronome,6,5,42,127,729579072
4023,13,Improv_Metronome,7,1,48,117,729598200
4023,13,Improv_Metronome,8,1,38,25,729608048
4023,13,Improv_Metronome,9,1,38,93,730018392
4023,13,Improv_Metronome,10,1,48,21,730028176
4023,13,Improv_Metronome,11,5,42,127,730078620
4023,13,Improv_Metronome,12,1,38,87,730148116
4023,13,Improv_Metronome,13,1,48,20,730157744
4023,13,Improv_Metronome,14,1,38,99,730431852
4023,13,Improv_Metronome,15,5,42,127,730578276
4023,13,Improv_Metronome,16,1,38,127,730696356
4023,13,Improv_Metronome,17,5,42,127,731079092
4023,13,Improv_Metronome,18,1,48,116,731166960
4023,13,Improv_Metronome,19,1,38,24,731176808
4023,13,Improv_Metronome,20,1,48,73,731423096
4023,13,Improv_Metronome,21,5,42,127,731578868
4023,13,Improv_Metronome,22,1,48,106,731682660
4023,13,Improv_Metronome,23,1,38,24,731692592
4023,13,Improv_Metronome,24,5,42,127,732078440
4023,13,Improv_Metronome,25,1,38,127,732154936
4023,13,Improv_Metronome,26,1,38,81,732254496
4023,13,Improv_Metronome,27,1,48,19,732263072
4023,13,Improv_Metronome,28,1,38,127,732474252
4023,13,Improv_Metronome,29,5,42,127,732578116
4023,13,Improv_Metronome,30,1,38,105,732748332
4023,13,Improv_Metronome,31,5,42,127,733079008
4023,13,Improv_Metronome,32,1,48,127,733177048
4023,13,Improv_Metronome,33,1,48,126,733541112
4023,13,Improv_Metronome,34,1,38,25,733551044
4023,13,Improv_Metronome,35,5,42,127,733578600
4023,13,Improv_Metronome,36,1,48,101,733831972
4023,13,Improv_Metronome,37,5,42,127,734078328
4023,13,Improv_Metronome,38,1,38,127,734246224
4023,13,Improv_Metronome,39,1,38,79,734321848
4023,13,Improv_Metronome,40,1,48,19,734330356
4023,13,Improv_Metronome,41,1,38,57,734382616
4023,13,Improv_Metronome,42,1,38,127,734561132
4023,13,Improv_Metronome,43,5,42,127,734579044
4023,13,Improv_Metronome,44,1,38,127,734834312
4023,13,Improv_Metronome,45,5,42,127,735078724
4023,13,Improv_Metronome,46,1,48,127,735296508
4023,13,Improv_Metronome,47,1,48,127,735574488
4023,13,Improv_Metronome,48,5,42,127,735578336
4023,13,Improv_Metronome,49,1,48,127,735833756
4023,13,Improv_Metronome,50,5,42,127,736078140
4023,13,Improv_Metronome,51,1,38,125,736259156
4023,13,Improv_Metronome,52,1,38,127,736354072
4023,13,Improv_Metronome,53,1,38,61,736398256
4023,13,Improv_Metronome,54,5,42,127,736578988
4023,13,Improv_Metronome,55,1,38,70,736599336
4023,13,Improv_Metronome,56,1,48,25,736606644
4023,13,Improv_Metronome,57,1,38,127,736866240
4023,13,Improv_Metronome,58,5,42,127,737078760
4023,13,Improv_Metronome,59,1,48,127,737144288
4023,13,Improv_Metronome,60,1,38,25,737154144
4023,13,Improv_Metronome,61,1,48,101,737284012
4023,13,Improv_Metronome,62,1,38,23,737294240
4023,13,Improv_Metronome,63,1,48,127,737387940
4023,13,Improv_Metronome,64,1,38,27,737397640
4023,13,Improv_Metronome,65,5,42,127,737578568
4023,13,Improv_Metronome,66,1,48,125,737582216
4023,13,Improv_Metronome,67,1,38,22,737592368
4023,13,Improv_Metronome,68,1,48,48,737625504
4023,13,Improv_Metronome,69,1,48,127,737849628
4023,13,Improv_Metronome,70,1,38,29,737859548
4023,13,Improv_Metronome,71,5,42,127,738078952
4023,13,Improv_Metronome,72,1,38,115,738225028
4023,13,Improv_Metronome,73,1,38,83,738306092
4023,13,Improv_Metronome,74,1,38,76,738342196
4023,13,Improv_Metronome,75,1,38,113,738559860
4023,13,Improv_Metronome,76,5,42,127,738578744
4023,13,Improv_Metronome,77,1,48,127,738833336
4023,13,Improv_Metronome,78,5,42,127,739078720
4023,13,Improv_Metronome,79,1,48,127,739209544
4023,13,Improv_Metronome,80,1,38,28,739219024
4023,13,Improv_Metronome,81,5,42,127,739578144
4023,13,Improv_Metronome,82,1,48,127,739582384
4023,13,Improv_Metronome,83,1,38,127,739845452
4023,13,Improv_Metronome,84,5,42,127,740079012
4023,13,Improv_Metronome,85,1,38,127,740237136
4023,13,Improv_Metronome,86,1,48,23,740248560
4023,13,Improv_Metronome,87,5,42,127,740578732
4023,13,Improv_Metronome,88,1,38,127,740638104
4023,13,Improv_Metronome,89,1,48,127,740903040
4023,13,Improv_Metronome,90,1,38,29,740913040
4023,13,Improv_Metronome,91,5,42,127,741078360
4023,13,Improv_Metronome,92,1,48,127,741284800
4023,13,Improv_Metronome,93,1,38,31,741294732
4023,13,Improv_Metronome,94,5,42,127,741579056
4023,13,Improv_Metronome,95,1,48,127,741683000
4023,13,Improv_Metronome,96,1,38,29,741693152
4023,13,Improv_Metronome,97,1,38,127,741950432
4023,13,Improv_Metronome,98,5,42,127,742078904
4023,13,Improv_Metronome,99,1,38,127,742346532
4023,13,Improv_Metronome,100,5,42,127,742578676
4023,13,Improv_Metronome,101,1,48,127,742743004
4023,13,Improv_Metronome,102,1,38,27,742753084
4023,13,Improv_Metronome,103,1,48,127,743013056
4023,13,Improv_Metronome,104,1,38,28,743023136
4023,13,Improv_Metronome,105,5,42,127,743078372
4023,13,Improv_Metronome,106,1,48,127,743409308
4023,13,Improv_Metronome,107,5,42,127,743578844
4023,13,Improv_Metronome,108,1,48,127,743767264
4023,13,Improv_Metronome,109,1,38,127,744078464
4023,13,Improv_Metronome,110,5,42,127,744080776
4023,13,Improv_Metronome,111,1,38,91,744210588
4023,13,Improv_Metronome,112,1,38,126,744332060
4023,13,Improv_Metronome,113,1,38,109,744436604
4023,13,Improv_Metronome,114,1,38,62,744466424
4023,13,Improv_Metronome,115,5,42,127,744578520
4023,13,Improv_Metronome,116,1,38,106,744582836
4023,13,Improv_Metronome,117,1,38,79,744716628
4023,13,Improv_Metronome,118,1,38,111,744811920
4023,13,Improv_Metronome,119,1,38,66,744834784
4023,13,Improv_Metronome,120,1,38,95,744943220
4023,13,Improv_Metronome,121,1,38,92,745068588
4023,13,Improv_Metronome,122,5,42,127,745078120
4023,13,Improv_Metronome,123,1,38,120,745178980
4023,13,Improv_Metronome,124,1,38,76,745199304
4023,13,Improv_Metronome,125,1,38,105,745304548
4023,13,Improv_Metronome,126,1,38,84,745440132
4023,13,Improv_Metronome,127,1,38,118,745532564
4023,13,Improv_Metronome,128,1,38,73,745554532
4023,13,Improv_Metronome,129,5,42,127,745578724
4023,13,Improv_Metronome,130,1,38,99,745657376
4023,13,Improv_Metronome,131,1,38,70,745784512
4023,13,Improv_Metronome,132,1,38,126,745909120
4023,13,Improv_Metronome,133,1,38,76,745931020
4023,13,Improv_Metronome,134,1,38,127,746015440
4023,13,Improv_Metronome,135,5,42,127,746078628
4023,13,Improv_Metronome,136,1,38,122,746227436
4023,13,Improv_Metronome,137,1,48,127,746484972
4023,13,Improv_Metronome,138,1,38,32,746495124
4023,13,Improv_Metronome,139,5,42,127,746578492
4023,13,Improv_Metronome,140,1,48,88,746708156
4023,13,Improv_Metronome,141,1,38,21,746718080
4023,13,Improv_Metronome,142,1,48,127,746817360
4023,13,Improv_Metronome,143,1,38,30,746827664
4023,13,Improv_Metronome,144,1,48,87,747070736
4023,13,Improv_Metronome,145,5,42,127,747078996
4023,13,Improv_Metronome,146,1,38,21,747081084
4023,13,Improv_Metronome,147,1,48,40,747122284
4023,13,Improv_Metronome,148,1,48,127,747197480
4023,13,Improv_Metronome,149,1,38,30,747206960
4023,13,Improv_Metronome,150,1,48,127,747456160
4023,13,Improv_Metronome,151,1,38,30,747466016
4023,13,Improv_Metronome,152,5,42,127,747578728
4023,13,Improv_Metronome,153,1,48,71,747695116
4023,13,Improv_Metronome,154,1,38,127,747955932
4023,13,Improv_Metronome,155,5,42,127,748078324
4023,13,Improv_Metronome,156,1,48,127,748479940
4023,13,Improv_Metronome,157,5,42,127,748578320
4023,13,Improv_Metronome,158,1,48,71,748744668
4023,13,Improv_Metronome,159,1,48,103,748856400
4023,13,Improv_Metronome,160,5,42,127,749079036
4023,13,Improv_Metronome,161,1,38,118,749098092
4023,13,Improv_Metronome,162,1,38,65,749136512
4023,13,Improv_Metronome,163,1,48,127,749226068
4023,13,Improv_Metronome,164,1,38,113,749493064
4023,13,Improv_Metronome,165,1,38,73,749523636
4023,13,Improv_Metronome,166,5,42,127,749578572
4023,13,Improv_Metronome,167,1,38,19,749690084
4023,13,Improv_Metronome,168,1,48,111,749744064
4023,13,Improv_Metronome,169,1,38,24,749755336
4023,13,Improv_Metronome,170,1,48,127,750016956
4023,13,Improv_Metronome,171,5,42,127,750078476
4023,13,Improv_Metronome,172,1,48,127,750292384
4023,13,Improv_Metronome,173,1,38,26,750301788
4023,13,Improv_Metronome,174,5,42,127,750579228
4023,13,Improv_Metronome,175,1,48,127,750586312
4023,13,Improv_Metronome,176,1,38,28,750596688
4023,13,Improv_Metronome,177,1,38,74,750845816
4023,13,Improv_Metronome,178,1,48,116,750972824
4023,13,Improv_Metronome,179,1,38,25,750982604
4023,13,Improv_Metronome,180,5,42,127,751078712
4023,13,Improv_Metronome,181,1,48,119,751243788
4023,13,Improv_Metronome,182,1,38,25,751253720
4023,13,Improv_Metronome,183,1,38,90,751314284
4023,13,Improv_Metronome,184,1,38,55,751354928
4023,13,Improv_Metronome,185,5,42,127,751578464
4023,13,Improv_Metronome,186,1,48,116,751613744
4023,13,Improv_Metronome,187,1,38,24,751623748
4023,13,Improv_Metronome,188,1,48,120,751871452
4023,13,Improv_Metronome,189,1,38,26,751880860
4023,13,Improv_Metronome,190,5,42,127,752078264
4023,13,Improv_Metronome,191,1,38,115,752129924
4023,13,Improv_Metronome,192,1,38,59,752179352
4023,13,Improv_Metronome,193,1,48,125,752379804
4023,13,Improv_Metronome,194,1,38,26,752389812
4023,13,Improv_Metronome,195,5,42,127,752579064
4023,13,Improv_Metronome,196,1,48,127,752657508
4023,13,Improv_Metronome,197,1,48,127,752913088
4023,13,Improv_Metronome,198,1,38,24,752922420
4023,13,Improv_Metronome,199,1,38,97,753045212
4023,13,Improv_Metronome,200,1,48,20,753054920
4023,13,Improv_Metronome,201,5,42,127,753078736
4023,13,Improv_Metronome,202,1,48,82,753229540
4023,13,Improv_Metronome,203,1,38,21,753239208
4023,13,Improv_Metronome,204,1,38,101,753378052
4023,13,Improv_Metronome,205,1,48,22,753387836
4023,13,Improv_Metronome,206,1,38,65,753405992
4023,13,Improv_Metronome,207,5,42,127,753578276
4023,13,Improv_Metronome,208,1,48,127,753681996
4023,13,Improv_Metronome,209,1,38,109,753923744
4023,13,Improv_Metronome,210,5,42,127,754079072
4023,13,Improv_Metronome,211,1,48,127,754187652
4023,13,Improv_Metronome,212,1,48,114,754456104
4023,13,Improv_Metronome,213,5,42,127,754578740
4023,13,Improv_Metronome,214,1,48,127,754718068
4023,13,Improv_Metronome,215,1,38,115,754984496
4023,13,Improv_Metronome,216,5,42,127,755078488
4023,13,Improv_Metronome,217,1,48,127,755105688
4023,13,Improv_Metronome,218,1,38,25,755115396
4023,13,Improv_Metronome,219,1,38,119,755344176
4023,13,Improv_Metronome,220,1,48,127,755474224
4023,13,Improv_Metronome,221,1,38,26,755484380
4023,13,Improv_Metronome,222,5,42,127,755578192
4023,13,Improv_Metronome,223,1,38,127,755726644
4023,13,Improv_Metronome,224,1,48,115,755970412
4023,13,Improv_Metronome,225,1,38,24,755980264
4023,13,Improv_Metronome,226,5,42,127,756079088
4023,13,Improv_Metronome,227,1,38,78,756217740
4023,13,Improv_Metronome,228,1,38,127,756483500
4023,13,Improv_Metronome,229,5,42,127,756579512
4023,13,Improv_Metronome,230,1,38,75,756729384
4023,13,Improv_Metronome,231,1,48,18,756738932
4023,13,Improv_Metronome,232,1,38,127,756863968
4023,13,Improv_Metronome,233,1,48,25,756873972
4023,13,Improv_Metronome,234,1,38,74,756943812
4023,13,Improv_Metronome,235,1,38,113,757069056
4023,13,Improv_Metronome,236,5,42,127,757078236
4023,13,Improv_Metronome,237,1,38,118,757183136
4023,13,Improv_Metronome,238,1,48,22,757192772
4023,13,Improv_Metronome,239,1,38,71,757215184
4023,13,Improv_Metronome,240,1,38,127,757423768
4023,13,Improv_Metronome,241,1,38,104,757516272
4023,13,Improv_Metronome,242,1,48,21,757524932
4023,13,Improv_Metronome,243,5,42,127,757579044
4023,13,Improv_Metronome,244,1,38,123,757739744
4023,13,Improv_Metronome,245,1,38,89,757850152
4023,13,Improv_Metronome,246,1,38,127,757997928
4023,13,Improv_Metronome,247,1,38,127,758071580
4023,13,Improv_Metronome,248,5,42,127,758079016
4023,13,Improv_Metronome,249,1,38,76,758088784
4023,13,Improv_Metronome,250,1,48,127,758353884
4023,13,Improv_Metronome,251,5,42,127,758578600
4023,13,Improv_Metronome,252,1,48,127,758602816
4023,13,Improv_Metronome,253,1,48,127,758843592
4023,13,Improv_Metronome,254,1,38,24,758853744
4023,13,Improv_Metronome,255,5,42,127,759078152
4023,13,Improv_Metronome,256,1,38,53,759087028
4023,13,Improv_Metronome,257,1,38,111,759285248
4023,13,Improv_Metronome,258,1,38,68,759401184
4023,13,Improv_Metronome,259,5,42,127,759579072
4023,13,Improv_Metronome,260,1,38,104,759640116
4023,13,Improv_Metronome,261,1,38,87,759755500
4023,13,Improv_Metronome,262,1,48,20,759764684
4023,13,Improv_Metronome,263,1,38,52,759793232
4023,13,Improv_Metronome,264,1,48,127,760025384
4023,13,Improv_Metronome,265,1,38,28,760035232
4023,13,Improv_Metronome,266,5,42,127,760078576
4023,13,Improv_Metronome,267,1,38,127,760569912
4023,13,Improv_Metronome,268,5,42,127,760578392
4023,13,Improv_Metronome,269,1,38,127,760841444
4023,13,Improv_Metronome,270,5,42,127,761078072
4023,13,Improv_Metronome,271,1,38,127,761094656
4023,13,Improv_Metronome,272,1,38,127,761347400
4023,13,Improv_Metronome,273,5,42,127,761579160
4023,13,Improv_Metronome,274,1,38,127,761602848
4023,13,Improv_Metronome,275,1,38,127,761863228
4023,13,Improv_Metronome,276,5,42,127,762078536
4023,13,Improv_Metronome,277,1,38,86,762117632
4023,13,Improv_Metronome,278,1,48,19,762126960
4023,13,Improv_Metronome,279,1,38,105,762356792
4023,13,Improv_Metronome,280,1,48,23,762366048
4023,13,Improv_Metronome,281,5,42,127,762578340
4023,13,Improv_Metronome,282,1,48,118,762608532
4023,13,Improv_Metronome,283,1,38,25,762618992
4023,13,Improv_Metronome,284,1,48,116,763034348
4023,13,Improv_Metronome,285,1,38,23,763044280
4023,13,Improv_Metronome,286,5,42,127,763078944
4023,13,Improv_Metronome,287,1,48,127,763120344
4023,13,Improv_Metronome,288,1,38,25,763130344
4023,13,Improv_Metronome,289,1,48,127,763503824
4023,13,Improv_Metronome,290,1,38,25,763513980
4023,13,Improv_Metronome,291,5,42,127,763578784
4023,13,Improv_Metronome,292,1,38,85,763772840
4023,13,Improv_Metronome,293,1,48,95,763897732
4023,13,Improv_Metronome,294,1,38,24,763907440
4023,13,Improv_Metronome,295,5,42,127,764078440
4023,13,Improv_Metronome,296,1,38,80,764135864
4023,13,Improv_Metronome,297,1,48,19,764145268
4023,13,Improv_Metronome,298,1,38,53,764172476
4023,13,Improv_Metronome,299,1,48,127,764417412
4023,13,Improv_Metronome,300,5,42,127,764578124
4023,13,Improv_Metronome,301,1,48,127,764693664
4023,13,Improv_Metronome,302,1,48,112,764950596
4023,13,Improv_Metronome,303,1,38,23,764960520
4023,13,Improv_Metronome,304,5,42,127,765078868
4023,13,Improv_Metronome,305,1,38,118,765226792
4023,13,Improv_Metronome,306,1,48,24,765235972
4023,13,Improv_Metronome,307,5,42,127,765578664
4023,13,Improv_Metronome,308,1,48,121,765636760
4023,13,Improv_Metronome,309,1,38,25,765646612
4023,13,Improv_Metronome,310,1,48,127,765927756
4023,13,Improv_Metronome,311,1,48,92,766049004
4023,13,Improv_Metronome,312,5,42,127,766078360
4023,13,Improv_Metronome,313,1,38,127,766322556
4023,13,Improv_Metronome,314,5,42,127,766579012
4023,13,Improv_Metronome,315,1,48,127,766855688
4023,13,Improv_Metronome,316,5,42,127,767078856
4023,13,Improv_Metronome,317,1,48,75,767133580
4023,13,Improv_Metronome,318,1,38,19,767143512
4023,13,Improv_Metronome,319,1,38,127,767398104
4023,13,Improv_Metronome,320,1,48,25,767407952
4023,13,Improv_Metronome,321,5,42,127,767578732
4023,13,Improv_Metronome,322,1,48,116,767800260
4023,13,Improv_Metronome,323,5,42,127,768078180
4023,13,Improv_Metronome,324,1,48,127,768083340
4023,13,Improv_Metronome,325,1,38,24,768093272
4023,13,Improv_Metronome,326,1,48,84,768213568
4023,13,Improv_Metronome,327,1,38,127,768498624
4023,13,Improv_Metronome,328,1,48,24,768508408
4023,13,Improv_Metronome,329,5,42,127,768578824
4023,13,Improv_Metronome,330,1,48,127,769043676
4023,13,Improv_Metronome,331,1,38,27,769053600
4023,13,Improv_Metronome,332,5,42,127,769078844
4023,13,Improv_Metronome,333,1,48,127,769311572
4023,13,Improv_Metronome,334,1,38,99,769571796
4023,13,Improv_Metronome,335,5,42,127,769578264
4023,13,Improv_Metronome,336,1,38,59,769619540
4023,13,Improv_Metronome,337,1,48,127,769949100
4023,13,Improv_Metronome,338,5,42,127,770079044
4023,13,Improv_Metronome,339,1,48,127,770239184
4023,13,Improv_Metronome,340,1,48,92,770365872
4023,13,Improv_Metronome,341,5,42,127,770578792
4023,13,Improv_Metronome,342,1,38,127,770624996
4023,13,Improv_Metronome,343,5,42,127,771078632
4023,13,Improv_Metronome,344,1,48,127,771157624
4023,13,Improv_Metronome,345,1,38,27,771167552
4023,13,Improv_Metronome,346,1,48,100,771418700
4023,13,Improv_Metronome,347,1,38,22,771428628
4023,13,Improv_Metronome,348,5,42,127,771578140
4023,13,Improv_Metronome,349,1,38,122,771698864
4023,13,Improv_Metronome,350,1,48,24,771708716
4023,13,Improv_Metronome,351,5,42,127,772078832
4023,13,Improv_Metronome,352,1,48,127,772118524
4023,13,Improv_Metronome,353,1,38,26,772128908
4023,13,Improv_Metronome,354,1,48,127,772384464
4023,13,Improv_Metronome,355,1,38,25,772394392
4023,13,Improv_Metronome,356,1,48,124,772520476
4023,13,Improv_Metronome,357,5,42,127,772578700
4023,13,Improv_Metronome,358,1,38,103,772772488
4023,13,Improv_Metronome,359,1,48,23,772781744
4023,13,Improv_Metronome,360,1,38,91,773035508
4023,13,Improv_Metronome,361,5,42,127,773078476
4023,13,Improv_Metronome,362,1,38,127,773138504
4023,13,Improv_Metronome,363,1,38,103,773242548
4023,13,Improv_Metronome,364,1,48,22,773251728
4023,13,Improv_Metronome,365,1,38,124,773417804
4023,13,Improv_Metronome,366,1,48,24,773427284
4023,13,Improv_Metronome,367,5,42,127,773579140
4023,13,Improv_Metronome,368,1,48,127,773756632
4023,13,Improv_Metronome,369,1,38,30,773766788
4023,13,Improv_Metronome,370,1,48,104,774056084
4023,13,Improv_Metronome,371,5,42,127,774078704
4023,13,Improv_Metronome,372,1,48,121,774339360
4023,13,Improv_Metronome,373,1,38,25,774349292
4023,13,Improv_Metronome,374,5,42,127,774578488
4023,13,Improv_Metronome,375,1,48,127,774759048
4023,13,Improv_Metronome,376,1,48,127,775047248
4023,13,Improv_Metronome,377,5,42,127,775078544
4023,13,Improv_Metronome,378,1,48,117,775346608
4023,13,Improv_Metronome,379,1,38,23,775356616
4023,13,Improv_Metronome,380,1,48,97,775478632
4023,13,Improv_Metronome,381,5,42,127,775578980
4023,13,Improv_Metronome,382,1,48,127,775772408
4023,13,Improv_Metronome,383,1,48,97,776039592
4023,13,Improv_Metronome,384,1,38,23,776049440
4023,13,Improv_Metronome,385,5,42,127,776078720
4023,13,Improv_Metronome,386,1,48,97,776308608
4023,13,Improv_Metronome,387,1,38,21,776318540
4023,13,Improv_Metronome,388,5,42,127,776578400
4023,13,Improv_Metronome,389,1,48,127,776597900
4023,13,Improv_Metronome,390,1,38,27,776608428
4023,13,Improv_Metronome,391,1,48,115,777033104
4023,13,Improv_Metronome,392,1,38,24,777042844
4023,13,Improv_Metronome,393,5,42,127,777078036
4023,13,Improv_Metronome,394,1,48,127,777317268
4023,13,Improv_Metronome,395,5,42,127,777578732
4023,13,Improv_Metronome,396,1,48,127,777604740
4023,13,Improv_Metronome,397,1,38,26,777614520
4023,13,Improv_Metronome,398,1,48,89,777774168
4023,13,Improv_Metronome,399,1,38,20,777783424
4023,13,Improv_Metronome,400,1,48,127,778038228
4023,13,Improv_Metronome,401,5,42,127,778078532
4023,13,Improv_Metronome,402,1,48,98,778330140
4023,13,Improv_Metronome,403,1,38,24,778340064
4023,13,Improv_Metronome,404,5,42,127,778578536
4023,13,Improv_Metronome,405,1,48,109,778602748
4023,13,Improv_Metronome,406,1,38,23,778613276
4023,13,Improv_Metronome,407,1,38,117,778893740
4023,13,Improv_Metronome,408,1,48,26,778903068
4023,13,Improv_Metronome,409,5,42,127,779079136
4023,13,Improv_Metronome,410,1,48,127,779304056
4023,13,Improv_Metronome,411,1,48,127,779567868
4023,13,Improv_Metronome,412,5,42,127,779578600
4023,13,Improv_Metronome,413,1,38,98,779867100
4023,13,Improv_Metronome,414,1,48,23,779876436
4023,13,Improv_Metronome,415,1,48,106,779984244
4023,13,Improv_Metronome,416,1,38,24,779994020
4023,13,Improv_Metronome,417,5,42,127,780078428
4023,13,Improv_Metronome,418,1,48,109,780239440
4023,13,Improv_Metronome,419,1,38,25,780249068
4023,13,Improv_Metronome,420,1,38,98,780507092
4023,13,Improv_Metronome,421,1,48,22,780516800
4023,13,Improv_Metronome,422,5,42,127,780578244
4023,13,Improv_Metronome,423,1,48,127,780752776
4023,13,Improv_Metronome,424,1,38,27,780762556
4023,13,Improv_Metronome,425,1,48,127,780996652
4023,13,Improv_Metronome,426,5,42,127,781078812
4023,13,Improv_Metronome,427,1,38,75,781174540
4023,13,Improv_Metronome,428,1,48,122,781481140
4023,13,Improv_Metronome,429,1,38,105,781576260
4023,13,Improv_Metronome,430,5,42,127,781579436
4023,13,Improv_Metronome,431,1,48,21,781586740
4023,13,Improv_Metronome,432,1,38,40,781621648
4023,13,Improv_Metronome,433,1,48,127,781837640
4023,13,Improv_Metronome,434,1,38,99,781940488
4023,13,Improv_Metronome,435,1,48,21,781950568
4023,13,Improv_Metronome,436,5,42,127,782078464
4023,13,Improv_Metronome,437,1,48,127,782212356
4023,13,Improv_Metronome,438,1,38,113,782300372
4023,13,Improv_Metronome,439,1,48,23,782311120
4023,13,Improv_Metronome,440,1,48,127,782559276
4023,13,Improv_Metronome,441,1,38,26,782568828
4023,13,Improv_Metronome,442,5,42,127,782579184
4023,13,Improv_Metronome,443,1,38,121,782767336
4023,13,Improv_Metronome,444,1,38,64,782824608
4023,13,Improv_Metronome,445,1,38,127,783053784
4023,13,Improv_Metronome,446,5,42,127,783078732
4023,13,Improv_Metronome,447,1,38,84,783156928
4023,13,Improv_Metronome,448,1,38,127,783296132
4023,13,Improv_Metronome,449,1,38,112,783401648
4023,13,Improv_Metronome,450,1,38,48,783449748
4023,13,Improv_Metronome,451,1,38,127,783559376
4023,13,Improv_Metronome,452,5,42,127,783578412
4023,13,Improv_Metronome,453,1,38,112,783655416
4023,13,Improv_Metronome,454,1,48,24,783664520
4023,13,Improv_Metronome,455,1,38,51,783696584
4023,13,Improv_Metronome,456,1,48,127,783783552
4023,13,Improv_Metronome,457,1,38,22,783794232
4023,13,Improv_Metronome,458,1,38,127,783897100
4023,13,Improv_Metronome,459,1,38,81,783917872
4023,13,Improv_Metronome,460,1,48,127,784053632
4023,13,Improv_Metronome,461,5,42,127,784078276
4023,13,Improv_Metronome,462,1,38,111,784269524
4023,13,Improv_Metronome,463,1,38,127,784473792
4023,13,Improv_Metronome,464,5,42,127,784578980
4023,13,Improv_Metronome,465,1,38,118,784726036
4023,13,Improv_Metronome,466,1,48,127,784828560
4023,13,Improv_Metronome,467,1,38,28,784838936
4023,13,Improv_Metronome,468,5,42,127,785078532
4023,13,Improv_Metronome,469,1,48,127,785130416
4023,13,Improv_Metronome,470,1,38,28,785140644
4023,13,Improv_Metronome,471,1,48,127,785377140
4023,13,Improv_Metronome,472,5,42,127,785578320
4023,13,Improv_Metronome,473,1,48,127,785656456
4023,13,Improv_Metronome,474,1,38,29,785666464
4023,13,Improv_Metronome,475,1,48,120,785902348
4023,13,Improv_Metronome,476,5,42,127,786079068
4023,13,Improv_Metronome,477,1,48,127,786180172
4023,13,Improv_Metronome,478,1,38,26,786190172
4023,13,Improv_Metronome,479,1,48,108,786430028
4023,13,Improv_Metronome,480,1,38,23,786440028
4023,13,Improv_Metronome,481,5,42,127,786578644
4023,13,Improv_Metronome,482,1,48,127,786690148
4023,13,Improv_Metronome,483,1,38,25,786700072
4023,13,Improv_Metronome,484,1,48,105,786948228
4023,13,Improv_Metronome,485,1,38,22,786957784
4023,13,Improv_Metronome,486,5,42,127,787078372
4023,13,Improv_Metronome,487,1,48,118,787209168
4023,13,Improv_Metronome,488,1,38,24,787219172
4023,13,Improv_Metronome,489,1,48,123,787473160
4023,13,Improv_Metronome,490,1,38,22,787483240
4023,13,Improv_Metronome,491,5,42,127,787578172
4023,13,Improv_Metronome,492,1,48,127,787725428
4023,13,Improv_Metronome,493,1,38,25,787735352
4023,13,Improv_Metronome,494,1,38,127,787934964
4023,13,Improv_Metronome,495,1,38,127,788056060
4023,13,Improv_Metronome,496,1,48,25,788065768
4023,13,Improv_Metronome,497,5,42,127,788079116
4023,13,Improv_Metronome,498,1,38,100,788130464
4023,13,Improv_Metronome,499,1,48,22,788140840
4023,13,Improv_Metronome,500,1,38,127,788253888
4023,13,Improv_Metronome,501,1,48,25,788264116
4023,13,Improv_Metronome,502,1,38,127,788472924
4023,13,Improv_Metronome,503,1,38,70,788507528
4023,13,Improv_Metronome,504,5,42,127,788578648
4023,13,Improv_Metronome,505,1,48,127,788712576
4023,13,Improv_Metronome,506,1,38,26,788722500
4023,13,Improv_Metronome,507,1,48,127,788969468
4023,13,Improv_Metronome,508,1,38,24,788979548
4023,13,Improv_Metronome,509,5,42,127,789078328
4023,13,Improv_Metronome,510,1,48,121,789229080
4023,13,Improv_Metronome,511,1,38,24,789239088
4023,13,Improv_Metronome,512,1,48,87,789501612
4023,13,Improv_Metronome,513,1,38,21,789511092
4023,13,Improv_Metronome,514,5,42,127,789578968
4023,13,Improv_Metronome,515,1,48,105,789760764
4023,13,Improv_Metronome,516,1,38,22,789770168
4023,13,Improv_Metronome,517,1,48,91,790021168
4023,13,Improv_Metronome,518,1,38,21,790030944
4023,13,Improv_Metronome,519,5,42,127,790079144
4023,13,Improv_Metronome,520,1,48,102,790298336
4023,13,Improv_Metronome,521,1,38,22,790308192
4023,13,Improv_Metronome,522,1,48,102,790554620
4023,13,Improv_Metronome,523,1,38,23,790564628
4023,13,Improv_Metronome,524,5,42,127,790578500
4023,13,Improv_Metronome,525,1,48,100,790813024
4023,13,Improv_Metronome,526,1,38,22,790822956
4023,13,Improv_Metronome,527,5,42,127,791078104
4023,13,Improv_Metronome,528,1,48,96,791083836
4023,13,Improv_Metronome,529,1,38,21,791093840
4023,13,Improv_Metronome,530,1,48,108,791344688
4023,13,Improv_Metronome,531,1,38,23,791354620
4023,13,Improv_Metronome,532,5,42,127,791579100
4023,13,Improv_Metronome,533,1,48,113,791603464
4023,13,Improv_Metronome,534,1,38,24,791613388
4023,13,Improv_Metronome,535,1,38,101,791827736
4023,13,Improv_Metronome,536,1,48,21,791837740
4023,13,Improv_Metronome,537,1,38,127,791968756
4023,13,Improv_Metronome,538,1,48,25,791978536
4023,13,Improv_Metronome,539,1,38,103,792046500
4023,13,Improv_Metronome,540,1,48,22,792056880
4023,13,Improv_Metronome,541,5,42,127,792078904
4023,13,Improv_Metronome,542,1,38,127,792202144
4023,13,Improv_Metronome,543,1,38,127,792301080
4023,13,Improv_Metronome,544,1,48,25,792310708
4023,13,Improv_Metronome,545,1,38,71,792330060
4023,13,Improv_Metronome,546,1,48,127,792541488
4023,13,Improv_Metronome,547,1,38,28,792551568
4023,13,Improv_Metronome,548,5,42,127,792578380
4023,13,Improv_Metronome,549,1,38,95,792723440
4023,13,Improv_Metronome,550,1,48,21,792732548
4023,13,Improv_Metronome,551,1,38,66,792749284
4023,13,Improv_Metronome,552,1,38,127,792992952
4023,13,Improv_Metronome,553,1,48,27,793002800
4023,13,Improv_Metronome,554,1,38,84,793071748
4023,13,Improv_Metronome,555,5,42,127,793078212
4023,13,Improv_Metronome,556,1,38,36,793116068
4023,13,Improv_Metronome,557,1,38,127,793347568
4023,13,Improv_Metronome,558,5,42,127,793579036
4023,13,Improv_Metronome,559,1,38,127,793588064
4023,13,Improv_Metronome,560,1,38,82,793616164
4023,13,Improv_Metronome,561,1,48,127,793879380
4023,13,Improv_Metronome,562,1,38,33,793889388
4023,13,Improv_Metronome,563,5,42,127,794078640
4023,13,Improv_Metronome,564,1,48,127,794143020
4023,13,Improv_Metronome,565,1,38,25,794153096
4023,13,Improv_Metronome,566,1,38,115,794376936
4023,13,Improv_Metronome,567,1,38,71,794403692
4023,13,Improv_Metronome,568,5,42,127,794578168
4023,13,Improv_Metronome,569,1,38,127,794645988
4023,13,Improv_Metronome,570,1,48,24,794655920
4023,13,Improv_Metronome,571,1,38,114,794748220
4023,13,Improv_Metronome,572,1,48,24,794758224
4023,13,Improv_Metronome,573,1,38,72,794773232
4023,13,Improv_Metronome,574,1,48,127,795055420
4023,13,Improv_Metronome,575,1,38,30,795065352
4023,13,Improv_Metronome,576,5,42,127,795078992
4023,13,Improv_Metronome,577,1,38,127,795132436
4023,13,Improv_Metronome,578,1,38,65,795160960
4023,13,Improv_Metronome,579,1,38,127,795424852
4023,13,Improv_Metronome,580,1,48,29,795434924
4023,13,Improv_Metronome,581,5,42,127,795578852
4023,13,Improv_Metronome,582,1,38,101,795677040
4023,13,Improv_Metronome,583,1,48,21,795686368
4023,13,Improv_Metronome,584,1,38,71,795712676
4023,13,Improv_Metronome,585,1,38,44,795742524
4023,13,Improv_Metronome,586,1,48,127,795933732
4023,13,Improv_Metronome,587,1,38,29,795943580
4023,13,Improv_Metronome,588,5,42,127,796078384
4023,13,Improv_Metronome,589,1,48,127,796200508
4023,13,Improv_Metronome,0,1,38,127,796460880
4023,13,Improv_Metronome,1,1,48,27,798837744
4023,13,Improv_Metronome,0,9999,9999,9999,727576688
4023,13,Improv_Metronome,1,9999,9999,9999,728076364
4023,13,Improv_Metronome,2,9999,9999,9999,728576080
4023,13,Improv_Metronome,3,9999,9999,9999,729075796
4023,13,Improv_Metronome,4,9999,9999,9999,729576560
4023,13,Improv_Metronome,5,9999,9999,9999,730076256
4023,13,Improv_Metronome,6,9999,9999,9999,730575988
4023,13,Improv_Metronome,7,9999,9999,9999,731076728
4023,13,Improv_Metronome,8,9999,9999,9999,731576432
4023,13,Improv_Metronome,9,9999,9999,9999,732076152
4023,13,Improv_Metronome,10,9999,9999,9999,732575828
4023,13,Improv_Metronome,11,9999,9999,9999,733076572
4023,13,Improv_Metronome,12,9999,9999,9999,733576240
4023,13,Improv_Metronome,13,9999,9999,9999,734075964
4023,13,Improv_Metronome,14,9999,9999,9999,734576756
4023,13,Improv_Metronome,15,9999,9999,9999,735076436
4023,13,Improv_Metronome,16,9999,9999,9999,735576124
4023,13,Improv_Metronome,17,9999,9999,9999,736075852
4023,13,Improv_Metronome,18,9999,9999,9999,736576624
4023,13,Improv_Metronome,19,9999,9999,9999,737076324
4023,13,Improv_Metronome,20,9999,9999,9999,737576056
4023,13,Improv_Metronome,21,9999,9999,9999,738076736
4023,13,Improv_Metronome,22,9999,9999,9999,738576456
4023,13,Improv_Metronome,23,9999,9999,9999,739076208
4023,13,Improv_Metronome,24,9999,9999,9999,739575856
4023,13,Improv_Metronome,25,9999,9999,9999,740076648
4023,13,Improv_Metronome,26,9999,9999,9999,740576372
4023,13,Improv_Metronome,27,9999,9999,9999,741076072
4023,13,Improv_Metronome,28,9999,9999,9999,741576768
4023,13,Improv_Metronome,29,9999,9999,9999,742076468
4023,13,Improv_Metronome,30,9999,9999,9999,742576240
4023,13,Improv_Metronome,31,9999,9999,9999,743075936
4023,13,Improv_Metronome,32,9999,9999,9999,743576632
4023,13,Improv_Metronome,33,9999,9999,9999,744076400
4023,13,Improv_Metronome,34,9999,9999,9999,744576084
4023,13,Improv_Metronome,35,9999,9999,9999,745075832
4023,13,Improv_Metronome,36,9999,9999,9999,745576512
4023,13,Improv_Metronome,37,9999,9999,9999,746076268
4023,13,Improv_Metronome,38,9999,9999,9999,746575928
4023,13,Improv_Metronome,39,9999,9999,9999,747076708
4023,13,Improv_Metronome,40,9999,9999,9999,747576440
4023,13,Improv_Metronome,41,9999,9999,9999,748076112
4023,13,Improv_Metronome,42,9999,9999,9999,748575808
4023,13,Improv_Metronome,43,9999,9999,9999,749076600
4023,13,Improv_Metronome,44,9999,9999,9999,749576284
4023,13,Improv_Metronome,45,9999,9999,9999,750075964
4023,13,Improv_Metronome,46,9999,9999,9999,750576716
4023,13,Improv_Metronome,47,9999,9999,9999,751076424
4023,13,Improv_Metronome,48,9999,9999,9999,751576176
4023,13,Improv_Metronome,49,9999,9999,9999,752075828
4023,13,Improv_Metronome,50,9999,9999,9999,752576628
4023,13,Improv_Metronome,51,9999,9999,9999,753076300
4023,13,Improv_Metronome,52,9999,9999,9999,753575988
4023,13,Improv_Metronome,53,9999,9999,9999,754076780
4023,13,Improv_Metronome,54,9999,9999,9999,754576452
4023,13,Improv_Metronome,55,9999,9999,9999,755076200
4023,13,Improv_Metronome,56,9999,9999,9999,755575908
4023,13,Improv_Metronome,57,9999,9999,9999,756076624
4023,13,Improv_Metronome,58,9999,9999,9999,756576340
4023,13,Improv_Metronome,59,9999,9999,9999,757076024
4023,13,Improv_Metronome,60,9999,9999,9999,757576756
4023,13,Improv_Metronome,61,9999,9999,9999,758076508
4023,13,Improv_Metronome,62,9999,9999,9999,758576240
4023,13,Improv_Metronome,63,9999,9999,9999,759075940
4023,13,Improv_Metronome,64,9999,9999,9999,759576636
4023,13,Improv_Metronome,65,9999,9999,9999,760076364
4023,13,Improv_Metronome,66,9999,9999,9999,760576104
4023,13,Improv_Metronome,67,9999,9999,9999,761075784
4023,13,Improv_Metronome,68,9999,9999,9999,761576504
4023,13,Improv_Metronome,69,9999,9999,9999,762076248
4023,13,Improv_Metronome,70,9999,9999,9999,762575976
4023,13,Improv_Metronome,71,9999,9999,9999,763076656
4023,13,Improv_Metronome,72,9999,9999,9999,763576424
4023,13,Improv_Metronome,73,9999,9999,9999,764076152
4023,13,Improv_Metronome,74,9999,9999,9999,764575836
4023,13,Improv_Metronome,75,9999,9999,9999,765076580
4023,13,Improv_Metronome,76,9999,9999,9999,765576300
4023,13,Improv_Metronome,77,9999,9999,9999,766075996
4023,13,Improv_Metronome,78,9999,9999,9999,766576724
4023,13,Improv_Metronome,79,9999,9999,9999,767076416
4023,13,Improv_Metronome,80,9999,9999,9999,767576148
4023,13,Improv_Metronome,81,9999,9999,9999,768075892
4023,13,Improv_Metronome,82,9999,9999,9999,768576612
4023,13,Improv_Metronome,83,9999,9999,9999,769076336
4023,13,Improv_Metronome,84,9999,9999,9999,769576052
4023,13,Improv_Metronome,85,9999,9999,9999,770076756
4023,13,Improv_Metronome,86,9999,9999,9999,770576504
4023,13,Improv_Metronome,87,9999,9999,9999,771076196
4023,13,Improv_Metronome,88,9999,9999,9999,771575924
4023,13,Improv_Metronome,89,9999,9999,9999,772076620
4023,13,Improv_Metronome,90,9999,9999,9999,772576340
4023,13,Improv_Metronome,91,9999,9999,9999,773076040
4023,13,Improv_Metronome,92,9999,9999,9999,773576776
4023,13,Improv_Metronome,93,9999,9999,9999,774076492
4023,13,Improv_Metronome,94,9999,9999,9999,774576200
4023,13,Improv_Metronome,95,9999,9999,9999,775075960
4023,13,Improv_Metronome,96,9999,9999,9999,775576692
4023,13,Improv_Metronome,97,9999,9999,9999,776076360
4023,13,Improv_Metronome,98,9999,9999,9999,776576112
4023,13,Improv_Metronome,99,9999,9999,9999,777075824
4023,13,Improv_Metronome,100,9999,9999,9999,777576520
4023,13,Improv_Metronome,101,9999,9999,9999,778076244
4023,13,Improv_Metronome,102,9999,9999,9999,778575952
4023,13,Improv_Metronome,103,9999,9999,9999,779076700
4023,13,Improv_Metronome,104,9999,9999,9999,779576388
4023,13,Improv_Metronome,105,9999,9999,9999,780076140
4023,13,Improv_Metronome,106,9999,9999,9999,780575808
4023,13,Improv_Metronome,107,9999,9999,9999,781076600
4023,13,Improv_Metronome,108,9999,9999,9999,781576324
4023,13,Improv_Metronome,109,9999,9999,9999,782075952
4023,13,Improv_Metronome,110,9999,9999,9999,782576748
4023,13,Improv_Metronome,111,9999,9999,9999,783076444
4023,13,Improv_Metronome,112,9999,9999,9999,783576124
4023,13,Improv_Metronome,113,9999,9999,9999,784075840
4023,13,Improv_Metronome,114,9999,9999,9999,784576616
4023,13,Improv_Metronome,115,9999,9999,9999,785076316
4023,13,Improv_Metronome,116,9999,9999,9999,785576032
4023,13,Improv_Metronome,117,9999,9999,9999,786076780
4023,13,Improv_Metronome,118,9999,9999,9999,786576432
4023,13,Improv_Metronome,119,9999,9999,9999,787076160
4023,13,Improv_Metronome,120,9999,9999,9999,787575864
4023,13,Improv_Metronome,121,9999,9999,9999,788076604
4023,13,Improv_Metronome,122,9999,9999,9999,788576360
4023,13,Improv_Metronome,123,9999,9999,9999,789076040
4023,13,Improv_Metronome,124,9999,9999,9999,789576756
4023,13,Improv_Metronome,125,9999,9999,9999,790076484
4023,13,Improv_Metronome,126,9999,9999,9999,790576212
4023,13,Improv_Metronome,127,9999,9999,9999,791075888
4023,13,Improv_Metronome,128,9999,9999,9999,791576664
4023,13,Improv_Metronome,129,9999,9999,9999,792076392
4023,13,Improv_Metronome,130,9999,9999,9999,792576092
4023,13,Improv_Metronome,131,9999,9999,9999,793075776
4023,13,Improv_Metronome,132,9999,9999,9999,793576524
4023,13,Improv_Metronome,133,9999,9999,9999,794076276
4023,13,Improv_Metronome,134,9999,9999,9999,794575956
4023,13,Improv_Metronome,135,9999,9999,9999,795076708
4023,13,Improv_Metronome,136,9999,9999,9999,795576416
4023,13,Improv_Metronome,137,9999,9999,9999,796076096
4023,13,Improv_Metronome,138,9999,9999,9999,798837428
4023,13,Improv_Metronome,139,9999,9999,9999,798837624
4024,14,Improv_Melody,0,2,48,80,852785224
4024,14,Improv_Melody,1,2,72,80,852787964
4024,14,Improv_Melody,2,5,42,127,852789384
4024,14,Improv_Melody,3,5,42,110,853282072
4024,14,Improv_Melody,4,5,42,110,853783064
4024,14,Improv_Melody,5,5,42,110,854282712
4024,14,Improv_Melody,6,5,42,127,854782284
4024,14,Improv_Melody,7,5,42,110,855282980
4024,14,Improv_Melody,8,5,42,110,855782924
4024,14,Improv_Melody,9,5,42,110,856282572
4024,14,Improv_Melody,10,2,43,80,856784872
4024,14,Improv_Melody,11,2,67,80,856786800
4024,14,Improv_Melody,12,5,42,127,856789416
4024,14,Improv_Melody,13,5,42,110,857282852
4024,14,Improv_Melody,14,5,42,110,857782576
4024,14,Improv_Melody,15,5,42,110,858282220
4024,14,Improv_Melody,16,5,42,127,858783064
4024,14,Improv_Melody,17,5,42,110,859282784
4024,14,Improv_Melody,18,5,42,110,859782804
4024,14,Improv_Melody,19,5,42,110,860282228
4024,14,Improv_Melody,20,2,45,80,860785200
4024,14,Improv_Melody,21,2,69,80,860787428
4024,14,Improv_Melody,22,5,42,127,860789968
4024,14,Improv_Melody,23,5,42,110,861282584
4024,14,Improv_Melody,24,5,42,110,861782528
4024,14,Improv_Melody,25,5,42,110,862283224
4024,14,Improv_Melody,26,5,42,127,862782844
4024,14,Improv_Melody,27,5,42,110,863282716
4024,14,Improv_Melody,28,5,42,110,863782216
4024,14,Improv_Melody,29,5,42,110,864282984
4024,14,Improv_Melody,30,2,41,80,864785132
4024,14,Improv_Melody,31,2,65,80,864787436
4024,14,Improv_Melody,32,5,42,127,864789900
4024,14,Improv_Melody,33,5,42,110,865282516
4024,14,Improv_Melody,34,5,42,110,865782092
4024,14,Improv_Melody,35,5,42,110,866282860
4024,14,Improv_Melody,36,5,42,127,866782580
4024,14,Improv_Melody,37,5,42,110,867282452
4024,14,Improv_Melody,38,5,42,110,867783144
4024,14,Improv_Melody,39,5,42,110,868282792
4024,14,Improv_Melody,40,1,48,106,868782624
4024,14,Improv_Melody,41,2,48,80,868786808
4024,14,Improv_Melody,42,2,72,80,868788512
4024,14,Improv_Melody,43,5,42,127,868791348
4024,14,Improv_Melody,44,1,48,103,869258324
4024,14,Improv_Melody,45,5,42,110,869282368
4024,14,Improv_Melody,46,5,42,110,869782824
4024,14,Improv_Melody,47,1,48,111,869792904
4024,14,Improv_Melody,48,5,42,110,870282600
4024,14,Improv_Melody,49,1,48,93,870285644
4024,14,Improv_Melody,50,1,48,108,870759212
4024,14,Improv_Melody,51,5,42,127,870782516
4024,14,Improv_Melody,52,1,48,96,871261684
4024,14,Improv_Melody,53,5,42,110,871283260
4024,14,Improv_Melody,54,1,48,72,871767520
4024,14,Improv_Melody,55,5,42,110,871782740
4024,14,Improv_Melody,56,1,38,127,872238472
4024,14,Improv_Melody,57,5,42,110,872282440
4024,14,Improv_Melody,58,1,38,85,872357576
4024,14,Improv_Melody,59,1,48,20,872367052
4024,14,Improv_Melody,60,1,38,126,872534428
4024,14,Improv_Melody,61,1,38,127,872654756
4024,14,Improv_Melody,62,1,38,63,872706196
4024,14,Improv_Melody,63,2,43,80,872784680
4024,14,Improv_Melody,64,2,67,80,872786908
4024,14,Improv_Melody,65,5,42,127,872789448
4024,14,Improv_Melody,66,1,48,127,872801092
4024,14,Improv_Melody,67,1,38,25,872811696
4024,14,Improv_Melody,68,1,48,127,873281048
4024,14,Improv_Melody,69,5,42,110,873282860
4024,14,Improv_Melody,70,1,48,102,873774740
4024,14,Improv_Melody,71,5,42,110,873782560
4024,14,Improv_Melody,72,1,48,93,874252304
4024,14,Improv_Melody,73,5,42,110,874282408
4024,14,Improv_Melody,74,1,48,79,874754396
4024,14,Improv_Melody,75,5,42,127,874783228
4024,14,Improv_Melody,76,1,48,92,875243096
4024,14,Improv_Melody,77,5,42,110,875282852
4024,14,Improv_Melody,78,1,48,77,875738684
4024,14,Improv_Melody,79,5,42,110,875782480
4024,14,Improv_Melody,80,1,38,127,876181540
4024,14,Improv_Melody,81,5,42,110,876282240
4024,14,Improv_Melody,82,1,38,78,876293140
4024,14,Improv_Melody,83,1,38,127,876488212
4024,14,Improv_Melody,84,1,38,114,876607792
4024,14,Improv_Melody,85,1,38,58,876655212
4024,14,Improv_Melody,86,2,45,80,876785496
4024,14,Improv_Melody,87,2,69,80,876787800
4024,14,Improv_Melody,88,5,42,127,876790336
4024,14,Improv_Melody,89,1,48,127,876855316
4024,14,Improv_Melody,90,5,42,110,877282780
4024,14,Improv_Melody,91,1,48,127,877320604
4024,14,Improv_Melody,92,5,42,110,877782328
4024,14,Improv_Melody,93,1,48,76,877804748
4024,14,Improv_Melody,94,1,38,19,877814672
4024,14,Improv_Melody,95,5,42,110,878283028
4024,14,Improv_Melody,96,1,48,102,878288612
4024,14,Improv_Melody,97,5,42,127,878783024
4024,14,Improv_Melody,98,1,48,105,878785624
4024,14,Improv_Melody,99,1,48,95,879275128
4024,14,Improv_Melody,100,5,42,110,879282420
4024,14,Improv_Melody,101,1,48,90,879779016
4024,14,Improv_Melody,102,5,42,110,879782196
4024,14,Improv_Melody,103,1,38,127,880174272
4024,14,Improv_Melody,104,1,38,90,880256924
4024,14,Improv_Melody,105,1,48,20,880266104
4024,14,Improv_Melody,106,5,42,110,880283048
4024,14,Improv_Melody,107,1,38,120,880460576
4024,14,Improv_Melody,108,1,48,121,880761944
4024,14,Improv_Melody,109,1,38,24,880771420
4024,14,Improv_Melody,110,2,41,80,880785332
4024,14,Improv_Melody,111,2,65,80,880787564
4024,14,Improv_Melody,112,5,42,127,880790024
4024,14,Improv_Melody,113,5,42,110,881282296
4024,14,Improv_Melody,114,1,48,114,881290800
4024,14,Improv_Melody,115,5,42,110,881782072
4024,14,Improv_Melody,116,1,48,90,881788932
4024,14,Improv_Melody,117,1,48,84,882271332
4024,14,Improv_Melody,118,5,42,110,882283036
4024,14,Improv_Melody,119,1,48,112,882747668
4024,14,Improv_Melody,120,5,42,127,882782736
4024,14,Improv_Melody,121,5,42,110,883282216
4024,14,Improv_Melody,122,1,48,83,883292888
4024,14,Improv_Melody,123,1,48,108,883772424
4024,14,Improv_Melody,124,5,42,110,883783156
4024,14,Improv_Melody,125,1,38,104,884231124
4024,14,Improv_Melody,126,5,42,110,884282852
4024,14,Improv_Melody,127,1,38,85,884351504
4024,14,Improv_Melody,128,1,48,20,884361288
4024,14,Improv_Melody,129,1,38,96,884528852
4024,14,Improv_Melody,130,2,48,80,884785048
4024,14,Improv_Melody,131,2,72,80,884787048
4024,14,Improv_Melody,132,5,42,127,884789736
4024,14,Improv_Melody,133,1,38,103,884818088
4024,14,Improv_Melody,134,5,42,110,885282256
4024,14,Improv_Melody,135,1,48,126,885304824
4024,14,Improv_Melody,136,1,38,25,885315052
4024,14,Improv_Melody,137,5,42,110,885782880
4024,14,Improv_Melody,138,1,38,67,885784748
4024,14,Improv_Melody,139,1,48,127,886258752
4024,14,Improv_Melody,140,5,42,110,886282724
4024,14,Improv_Melody,141,1,38,127,886753588
4024,14,Improv_Melody,142,5,42,127,886782348
4024,14,Improv_Melody,143,1,48,91,887273256
4024,14,Improv_Melody,144,1,38,23,887282708
4024,14,Improv_Melody,145,5,42,110,887285316
4024,14,Improv_Melody,146,1,38,127,887763796
4024,14,Improv_Melody,147,5,42,110,887782908
4024,14,Improv_Melody,148,1,48,108,888279728
4024,14,Improv_Melody,149,5,42,110,888282760
4024,14,Improv_Melody,150,1,38,24,888289696
4024,14,Improv_Melody,151,1,38,127,888777596
4024,14,Improv_Melody,152,2,43,80,888784404
4024,14,Improv_Melody,153,2,67,80,888786708
4024,14,Improv_Melody,154,5,42,127,888789100
4024,14,Improv_Melody,155,5,42,110,889282968
4024,14,Improv_Melody,156,1,48,91,889297384
4024,14,Improv_Melody,157,1,38,22,889306936
4024,14,Improv_Melody,158,1,38,127,889782400
4024,14,Improv_Melody,159,5,42,110,889784636
4024,14,Improv_Melody,160,5,42,110,890282320
4024,14,Improv_Melody,161,1,48,111,890302572
4024,14,Improv_Melody,162,1,38,24,890312568
4024,14,Improv_Melody,163,1,38,127,890772276
4024,14,Improv_Melody,164,5,42,127,890782940
4024,14,Improv_Melody,165,5,42,110,891282720
4024,14,Improv_Melody,166,1,48,111,891300724
4024,14,Improv_Melody,167,1,38,23,891310208
4024,14,Improv_Melody,168,5,42,110,891782600
4024,14,Improv_Melody,169,1,38,124,891792748
4024,14,Improv_Melody,170,5,42,110,892282076
4024,14,Improv_Melody,171,1,48,86,892318328
4024,14,Improv_Melody,172,2,45,80,892785624
4024,14,Improv_Melody,173,2,69,80,892787548
4024,14,Improv_Melody,174,5,42,127,892790016
4024,14,Improv_Melody,175,1,38,113,892805920
4024,14,Improv_Melody,176,5,42,110,893282684
4024,14,Improv_Melody,177,1,48,125,893327236
4024,14,Improv_Melody,178,1,38,24,893337092
4024,14,Improv_Melody,179,1,38,80,893772492
4024,14,Improv_Melody,180,1,48,19,893782168
4024,14,Improv_Melody,181,5,42,110,893783952
4024,14,Improv_Melody,182,1,38,116,893897432
4024,14,Improv_Melody,183,1,38,108,894023896
4024,14,Improv_Melody,184,1,38,67,894067856
4024,14,Improv_Melody,185,1,38,26,894181600
4024,14,Improv_Melody,186,5,42,110,894283000
4024,14,Improv_Melody,187,1,48,127,894301232
4024,14,Improv_Melody,188,5,42,127,894782824
4024,14,Improv_Melody,189,1,48,127,894793972
4024,14,Improv_Melody,190,1,38,26,894803896
4024,14,Improv_Melody,191,5,42,110,895282400
4024,14,Improv_Melody,192,1,48,127,895294268
4024,14,Improv_Melody,193,1,48,123,895775924
4024,14,Improv_Melody,194,5,42,110,895782540
4024,14,Improv_Melody,195,1,48,88,896277040
4024,14,Improv_Melody,196,5,42,110,896283064
4024,14,Improv_Melody,197,1,38,23,896287308
4024,14,Improv_Melody,198,1,48,127,896771472
4024,14,Improv_Melody,199,2,41,80,896785008
4024,14,Improv_Melody,200,2,65,80,896787384
4024,14,Improv_Melody,201,5,42,127,896789704
4024,14,Improv_Melody,202,5,42,110,897282452
4024,14,Improv_Melody,203,1,48,126,897304268
4024,14,Improv_Melody,204,1,48,114,897776944
4024,14,Improv_Melody,205,5,42,110,897781996
4024,14,Improv_Melody,206,1,38,25,897786608
4024,14,Improv_Melody,207,1,38,127,898246388
4024,14,Improv_Melody,208,5,42,110,898282932
4024,14,Improv_Melody,209,1,38,98,898348192
4024,14,Improv_Melody,210,1,48,22,898357896
4024,14,Improv_Melody,211,1,38,108,898500812
4024,14,Improv_Melody,212,1,38,127,898602440
4024,14,Improv_Melody,213,1,38,100,898625004
4024,14,Improv_Melody,214,5,42,127,898782504
4024,14,Improv_Melody,215,1,48,127,898884276
4024,14,Improv_Melody,216,1,48,127,899275876
4024,14,Improv_Melody,217,5,42,110,899282492
4024,14,Improv_Melody,218,1,38,24,899286212
4024,14,Improv_Melody,219,1,48,123,899613424
4024,14,Improv_Melody,220,1,38,22,899623432
4024,14,Improv_Melody,221,5,42,110,899783144
4024,14,Improv_Melody,222,1,38,127,899855380
4024,14,Improv_Melody,223,1,48,24,899865304
4024,14,Improv_Melody,224,1,38,88,899876128
4024,14,Improv_Melody,225,1,38,127,900216160
4024,14,Improv_Melody,226,1,48,24,900225488
4024,14,Improv_Melody,227,5,42,110,900282824
4024,14,Improv_Melody,228,1,38,121,900593488
4024,14,Improv_Melody,229,2,48,80,900784904
4024,14,Improv_Melody,230,2,72,80,900787056
4024,14,Improv_Melody,231,5,42,127,900789600
4024,14,Improv_Melody,232,1,38,127,900851808
4024,14,Improv_Melody,233,5,42,110,901282264
4024,14,Improv_Melody,234,1,38,127,901324880
4024,14,Improv_Melody,235,1,48,24,901334880
4024,14,Improv_Melody,236,5,42,110,901782964
4024,14,Improv_Melody,237,1,38,127,901823332
4024,14,Improv_Melody,238,5,42,110,902282516
4024,14,Improv_Melody,239,1,38,116,902286228
4024,14,Improv_Melody,240,1,48,23,902295712
4024,14,Improv_Melody,241,1,38,104,902777112
4024,14,Improv_Melody,242,5,42,127,902782312
4024,14,Improv_Melody,243,1,48,21,902787300
4024,14,Improv_Melody,244,5,42,110,903283100
4024,14,Improv_Melody,245,1,38,110,903288616
4024,14,Improv_Melody,246,1,48,24,903297944
4024,14,Improv_Melody,247,1,38,88,903772612
4024,14,Improv_Melody,248,1,48,22,903782056
4024,14,Improv_Melody,249,5,42,110,903784076
4024,14,Improv_Melody,250,1,48,127,904152716
4024,14,Improv_Melody,251,1,38,29,904162944
4024,14,Improv_Melody,252,5,42,110,904282416
4024,14,Improv_Melody,253,1,38,127,904499384
4024,14,Improv_Melody,254,1,38,120,904774116
4024,14,Improv_Melody,255,2,43,80,904784684
4024,14,Improv_Melody,256,2,67,80,904786992
4024,14,Improv_Melody,257,5,42,127,904789528
4024,14,Improv_Melody,258,5,42,110,905283148
4024,14,Improv_Melody,259,1,38,127,905285520
4024,14,Improv_Melody,260,1,48,22,905295488
4024,14,Improv_Melody,261,5,42,110,905782668
4024,14,Improv_Melody,262,1,38,95,905784304
4024,14,Improv_Melody,263,1,38,95,906242160
4024,14,Improv_Melody,264,5,42,110,906282288
4024,14,Improv_Melody,265,1,38,127,906746568
4024,14,Improv_Melody,266,5,42,127,906783036
4024,14,Improv_Melody,267,1,38,121,907280768
4024,14,Improv_Melody,268,5,42,110,907283332
4024,14,Improv_Melody,269,1,48,24,907290940
4024,14,Improv_Melody,270,1,38,101,907780740
4024,14,Improv_Melody,271,5,42,110,907783820
4024,14,Improv_Melody,272,1,48,21,907790228
4024,14,Improv_Melody,273,1,48,127,908154644
4024,14,Improv_Melody,274,1,38,25,908164724
4024,14,Improv_Melody,275,5,42,110,908282080
4024,14,Improv_Melody,276,1,38,127,908522328
4024,14,Improv_Melody,277,2,45,80,908785476
4024,14,Improv_Melody,278,2,69,80,908787700
4024,14,Improv_Melody,279,5,42,127,908790316
4024,14,Improv_Melody,280,1,38,127,908792760
4024,14,Improv_Melody,281,1,48,25,908802096
4024,14,Improv_Melody,282,5,42,110,909282860
4024,14,Improv_Melody,283,1,38,127,909314108
4024,14,Improv_Melody,284,5,42,110,909782488
4024,14,Improv_Melody,285,1,38,98,909799968
4024,14,Improv_Melody,286,1,48,22,909809676
4024,14,Improv_Melody,287,1,38,127,910263980
4024,14,Improv_Melody,288,5,42,110,910283020
4024,14,Improv_Melody,289,5,42,127,910783096
4024,14,Improv_Melody,290,1,38,116,910787040
4024,14,Improv_Melody,291,1,48,24,910796220
4024,14,Improv_Melody,292,5,42,110,911282452
4024,14,Improv_Melody,293,1,38,102,911291328
4024,14,Improv_Melody,294,1,48,23,911300664
4024,14,Improv_Melody,295,1,48,112,911773456
4024,14,Improv_Melody,296,5,42,110,911782248
4024,14,Improv_Melody,297,1,38,26,911783732
4024,14,Improv_Melody,298,1,38,125,912150880
4024,14,Improv_Melody,299,1,48,23,912160884
4024,14,Improv_Melody,300,5,42,110,912282972
4024,14,Improv_Melody,301,1,38,127,912500484
4024,14,Improv_Melody,302,1,38,127,912778364
4024,14,Improv_Melody,303,2,41,80,912785244
4024,14,Improv_Melody,304,2,65,80,912787472
4024,14,Improv_Melody,305,5,42,127,912789936
4024,14,Improv_Melody,306,1,38,95,913035408
4024,14,Improv_Melody,307,1,38,127,913167028
4024,14,Improv_Melody,308,1,48,28,913176660
4024,14,Improv_Melody,309,1,38,127,913235380
4024,14,Improv_Melody,310,1,38,87,913262356
4024,14,Improv_Melody,311,5,42,110,913282428
4024,14,Improv_Melody,312,1,48,127,913508384
4024,14,Improv_Melody,313,1,38,24,913518612
4024,14,Improv_Melody,314,1,48,127,913777380
4024,14,Improv_Melody,315,5,42,110,913782136
4024,14,Improv_Melody,316,1,38,29,913787720
4024,14,Improv_Melody,317,1,48,127,914011492
4024,14,Improv_Melody,318,1,38,27,914021572
4024,14,Improv_Melody,319,1,38,127,914136116
4024,14,Improv_Melody,320,1,38,77,914169820
4024,14,Improv_Melody,321,5,42,110,914282816
4024,14,Improv_Melody,322,1,48,127,914386464
4024,14,Improv_Melody,323,1,38,28,914396468
4024,14,Improv_Melody,324,1,38,127,914469076
4024,14,Improv_Melody,325,1,48,24,914479524
4024,14,Improv_Melody,326,1,38,78,914491620
4024,14,Improv_Melody,327,1,38,127,914755708
4024,14,Improv_Melody,328,5,42,127,914782844
4024,14,Improv_Melody,329,1,38,127,915020240
4024,14,Improv_Melody,330,1,48,26,915030172
4024,14,Improv_Melody,331,1,38,123,915269468
4024,14,Improv_Melody,332,1,48,23,915279140
4024,14,Improv_Melody,333,5,42,110,915282244
4024,14,Improv_Melody,334,1,38,127,915512856
4024,14,Improv_Melody,335,5,42,110,915783096
4024,14,Improv_Melody,336,1,48,127,915784584
4024,14,Improv_Melody,337,1,38,33,915795484
4024,14,Improv_Melody,338,1,38,127,915922440
4024,14,Improv_Melody,339,1,48,24,915932068
4024,14,Improv_Melody,340,1,48,127,916062640
4024,14,Improv_Melody,341,1,38,27,916072416
4024,14,Improv_Melody,342,1,38,124,916136204
4024,14,Improv_Melody,343,1,48,24,916147172
4024,14,Improv_Melody,344,5,42,110,916282704
4024,14,Improv_Melody,345,1,48,121,916287388
4024,14,Improv_Melody,346,1,48,127,916543128
4024,14,Improv_Melody,347,1,38,29,916553320
4024,14,Improv_Melody,348,2,48,80,916784920
4024,14,Improv_Melody,349,2,72,80,916787000
4024,14,Improv_Melody,350,5,42,127,916789688
4024,14,Improv_Melody,351,1,38,127,916807640
4024,14,Improv_Melody,352,1,38,127,917270796
4024,14,Improv_Melody,353,1,48,26,917280836
4024,14,Improv_Melody,354,5,42,110,917283008
4024,14,Improv_Melody,355,5,42,110,917782760
4024,14,Improv_Melody,356,1,38,127,917786928
4024,14,Improv_Melody,357,5,42,110,918282908
4024,14,Improv_Melody,358,1,38,127,918284020
4024,14,Improv_Melody,359,1,48,24,918294172
4024,14,Improv_Melody,360,5,42,127,918782424
4024,14,Improv_Melody,361,1,38,103,918790104
4024,14,Improv_Melody,362,1,48,24,918799664
4024,14,Improv_Melody,363,5,42,110,919282972
4024,14,Improv_Melody,364,1,38,100,919297088
4024,14,Improv_Melody,365,1,48,23,919306640
4024,14,Improv_Melody,366,5,42,110,919782848
4024,14,Improv_Melody,367,1,38,107,919786264
4024,14,Improv_Melody,368,1,48,23,919796196
4024,14,Improv_Melody,369,1,38,105,920276548
4024,14,Improv_Melody,370,5,42,110,920282568
4024,14,Improv_Melody,371,1,48,21,920286364
4024,14,Improv_Melody,372,2,43,80,920784976
4024,14,Improv_Melody,373,1,48,127,920786464
4024,14,Improv_Melody,374,2,67,80,920788848
4024,14,Improv_Melody,375,5,42,127,920791012
4024,14,Improv_Melody,376,1,48,98,920987948
4024,14,Improv_Melody,377,1,38,21,920997572
4024,14,Improv_Melody,378,1,48,127,921146220
4024,14,Improv_Melody,379,5,42,110,921282852
4024,14,Improv_Melody,380,1,48,127,921470748
4024,14,Improv_Melody,381,1,38,24,921480604
4024,14,Improv_Melody,382,1,48,124,921778572
4024,14,Improv_Melody,383,5,42,110,921782724
4024,14,Improv_Melody,384,1,38,24,921788836
4024,14,Improv_Melody,385,1,38,121,922153372
4024,14,Improv_Melody,386,1,48,25,922162852
4024,14,Improv_Melody,387,5,42,110,922282472
4024,14,Improv_Melody,388,1,38,127,922533720
4024,14,Improv_Melody,389,1,48,26,922543576
4024,14,Improv_Melody,390,5,42,127,922782948
4024,14,Improv_Melody,391,1,38,122,922792352
4024,14,Improv_Melody,392,1,48,127,923171428
4024,14,Improv_Melody,393,1,38,28,923181284
4024,14,Improv_Melody,394,5,42,110,923282728
4024,14,Improv_Melody,395,1,48,127,923537492
4024,14,Improv_Melody,396,1,38,26,923547492
4024,14,Improv_Melody,397,5,42,110,923782528
4024,14,Improv_Melody,398,1,38,127,923811380
4024,14,Improv_Melody,399,1,38,127,924184248
4024,14,Improv_Melody,400,1,48,23,924194104
4024,14,Improv_Melody,401,5,42,110,924282412
4024,14,Improv_Melody,402,1,38,101,924531548
4024,14,Improv_Melody,403,1,48,24,924540960
4024,14,Improv_Melody,404,2,45,80,924785528
4024,14,Improv_Melody,405,2,69,80,924787832
4024,14,Improv_Melody,406,5,42,127,924790440
4024,14,Improv_Melody,407,1,38,121,924819216
4024,14,Improv_Melody,408,1,38,127,925073980
4024,14,Improv_Melody,409,1,38,81,925203660
4024,14,Improv_Melody,410,1,48,19,925213436
4024,14,Improv_Melody,411,5,42,110,925282764
4024,14,Improv_Melody,412,1,38,127,925325032
4024,14,Improv_Melody,413,1,38,35,925388736
4024,14,Improv_Melody,414,1,38,83,925581944
4024,14,Improv_Melody,415,1,48,19,925591948
4024,14,Improv_Melody,416,1,38,59,925624912
4024,14,Improv_Melody,417,5,42,110,925782384
4024,14,Improv_Melody,418,1,38,127,925828732
4024,14,Improv_Melody,419,1,38,127,926184624
4024,14,Improv_Melody,420,1,48,24,926194548
4024,14,Improv_Melody,421,5,42,110,926283308
4024,14,Improv_Melody,422,1,38,104,926546584
4024,14,Improv_Melody,423,5,42,127,926782896
4024,14,Improv_Melody,424,1,48,127,926840492
4024,14,Improv_Melody,425,1,38,111,927255924
4024,14,Improv_Melody,426,1,48,24,927265852
4024,14,Improv_Melody,427,5,42,110,927282496
4024,14,Improv_Melody,428,1,38,117,927754676
4024,14,Improv_Melody,429,1,48,23,927764452
4024,14,Improv_Melody,430,5,42,110,927782444
4024,14,Improv_Melody,431,1,38,127,928156868
4024,14,Improv_Melody,432,5,42,110,928283000
4024,14,Improv_Melody,433,1,48,109,928521460
4024,14,Improv_Melody,434,1,38,22,928531236
4024,14,Improv_Melody,435,2,41,80,928785380
4024,14,Improv_Melody,436,2,65,80,928787380
4024,14,Improv_Melody,437,5,42,127,928790220
4024,14,Improv_Melody,438,1,48,127,928792668
4024,14,Improv_Melody,439,1,48,27,928879432
4024,14,Improv_Melody,440,5,42,110,929282420
4024,14,Improv_Melody,441,1,38,127,929298104
4024,14,Improv_Melody,442,5,42,110,929782192
4024,14,Improv_Melody,443,1,38,127,929788380
4024,14,Improv_Melody,444,5,42,110,930282788
4024,14,Improv_Melody,445,1,38,127,930301836
4024,14,Improv_Melody,446,5,42,127,930782564
4024,14,Improv_Melody,447,1,38,100,930794280
4024,14,Improv_Melody,448,1,48,21,930803612
4024,14,Improv_Melody,449,5,42,110,931282288
4024,14,Improv_Melody,450,1,38,112,931290200
4024,14,Improv_Melody,451,1,38,127,931774540
4024,14,Improv_Melody,452,5,42,110,931783104
4024,14,Improv_Melody,453,1,48,26,931784896
4024,14,Improv_Melody,454,1,38,94,932073120
4024,14,Improv_Melody,455,1,48,22,932082080
4024,14,Improv_Melody,456,5,42,110,932282648
4024,14,Improv_Melody,457,1,38,61,932301924
4024,14,Improv_Melody,458,1,48,25,932310876
4024,14,Improv_Melody,459,1,38,102,932544972
4024,14,Improv_Melody,460,1,48,23,932554300
4024,14,Improv_Melody,461,2,48,80,932785108
4024,14,Improv_Melody,462,2,72,80,932787180
4024,14,Improv_Melody,463,5,42,127,932789796
4024,14,Improv_Melody,464,1,48,127,932809296
4024,14,Improv_Melody,465,1,48,115,933072512
4024,14,Improv_Melody,466,1,38,23,933082444
4024,14,Improv_Melody,467,1,48,127,933171804
4024,14,Improv_Melody,468,1,38,31,933181952
4024,14,Improv_Melody,469,5,42,110,933282128
4024,14,Improv_Melody,470,1,48,127,933458132
4024,14,Improv_Melody,0,9999,9999,9999,852780092
4024,14,Improv_Melody,1,9999,9999,9999,853279856
4024,14,Improv_Melody,2,9999,9999,9999,853780548
4024,14,Improv_Melody,3,9999,9999,9999,854280272
4024,14,Improv_Melody,4,9999,9999,9999,854779992
4024,14,Improv_Melody,5,9999,9999,9999,855280760
4024,14,Improv_Melody,6,9999,9999,9999,855780408
4024,14,Improv_Melody,7,9999,9999,9999,856280132
4024,14,Improv_Melody,8,9999,9999,9999,856779852
4024,14,Improv_Melody,9,9999,9999,9999,857280560
4024,14,Improv_Melody,10,9999,9999,9999,857780284
4024,14,Improv_Melody,11,9999,9999,9999,858280004
4024,14,Improv_Melody,12,9999,9999,9999,858780772
4024,14,Improv_Melody,13,9999,9999,9999,859280492
4024,14,Improv_Melody,14,9999,9999,9999,859780216
4024,14,Improv_Melody,15,9999,9999,9999,860279864
4024,14,Improv_Melody,16,9999,9999,9999,860780632
4024,14,Improv_Melody,17,9999,9999,9999,861280364
4024,14,Improv_Melody,18,9999,9999,9999,861780088
4024,14,Improv_Melody,19,9999,9999,9999,862280756
4024,14,Improv_Melody,20,9999,9999,9999,862780480
4024,14,Improv_Melody,21,9999,9999,9999,863280200
4024,14,Improv_Melody,22,9999,9999,9999,863779924
4024,14,Improv_Melody,23,9999,9999,9999,864280692
4024,14,Improv_Melody,24,9999,9999,9999,864780340
4024,14,Improv_Melody,25,9999,9999,9999,865280076
4024,14,Improv_Melody,26,9999,9999,9999,865779800
4024,14,Improv_Melody,27,9999,9999,9999,866280568
4024,14,Improv_Melody,28,9999,9999,9999,866780216
4024,14,Improv_Melody,29,9999,9999,9999,867279936
4024,14,Improv_Melody,30,9999,9999,9999,867780704
4024,14,Improv_Melody,31,9999,9999,9999,868280428
4024,14,Improv_Melody,32,9999,9999,9999,868780148
4024,14,Improv_Melody,33,9999,9999,9999,869279856
4024,14,Improv_Melody,34,9999,9999,9999,869780532
4024,14,Improv_Melody,35,9999,9999,9999,870280308
4024,14,Improv_Melody,36,9999,9999,9999,870780000
4024,14,Improv_Melody,37,9999,9999,9999,871280748
4024,14,Improv_Melody,38,9999,9999,9999,871780448
4024,14,Improv_Melody,39,9999,9999,9999,872280148
4024,14,Improv_Melody,40,9999,9999,9999,872779888
4024,14,Improv_Melody,41,9999,9999,9999,873280592
4024,14,Improv_Melody,42,9999,9999,9999,873780344
4024,14,Improv_Melody,43,9999,9999,9999,874280040
4024,14,Improv_Melody,44,9999,9999,9999,874780788
4024,14,Improv_Melody,45,9999,9999,9999,875280488
4024,14,Improv_Melody,46,9999,9999,9999,875780188
4024,14,Improv_Melody,47,9999,9999,9999,876279888
4024,14,Improv_Melody,48,9999,9999,9999,876780624
4024,14,Improv_Melody,49,9999,9999,9999,877280336
4024,14,Improv_Melody,50,9999,9999,9999,877780036
4024,14,Improv_Melody,51,9999,9999,9999,878280808
4024,14,Improv_Melody,52,9999,9999,9999,878780512
4024,14,Improv_Melody,53,9999,9999,9999,879280204
4024,14,Improv_Melody,54,9999,9999,9999,879779904
4024,14,Improv_Melody,55,9999,9999,9999,880280684
4024,14,Improv_Melody,56,9999,9999,9999,880780388
4024,14,Improv_Melody,57,9999,9999,9999,881280080
4024,14,Improv_Melody,58,9999,9999,9999,881779780
4024,14,Improv_Melody,59,9999,9999,9999,882280520
4024,14,Improv_Melody,60,9999,9999,9999,882780220
4024,14,Improv_Melody,61,9999,9999,9999,883279924
4024,14,Improv_Melody,62,9999,9999,9999,883780716
4024,14,Improv_Melody,63,9999,9999,9999,884280412
4024,14,Improv_Melody,64,9999,9999,9999,884780100
4024,14,Improv_Melody,65,9999,9999,9999,885279816
4024,14,Improv_Melody,66,9999,9999,9999,885780588
4024,14,Improv_Melody,67,9999,9999,9999,886280284
4024,14,Improv_Melody,68,9999,9999,9999,886779984
4024,14,Improv_Melody,69,9999,9999,9999,887280728
4024,14,Improv_Melody,70,9999,9999,9999,887780468
4024,14,Improv_Melody,71,9999,9999,9999,888280168
4024,14,Improv_Melody,72,9999,9999,9999,888779836
4024,14,Improv_Melody,73,9999,9999,9999,889280604
4024,14,Improv_Melody,74,9999,9999,9999,889780332
4024,14,Improv_Melody,75,9999,9999,9999,890280028
4024,14,Improv_Melody,76,9999,9999,9999,890780724
4024,14,Improv_Melody,77,9999,9999,9999,891280504
4024,14,Improv_Melody,78,9999,9999,9999,891780156
4024,14,Improv_Melody,79,9999,9999,9999,892279860
4024,14,Improv_Melody,80,9999,9999,9999,892780604
4024,14,Improv_Melody,81,9999,9999,9999,893280316
4024,14,Improv_Melody,82,9999,9999,9999,893780040
4024,14,Improv_Melody,83,9999,9999,9999,894280784
4024,14,Improv_Melody,84,9999,9999,9999,894780532
4024,14,Improv_Melody,85,9999,9999,9999,895280184
4024,14,Improv_Melody,86,9999,9999,9999,895779952
4024,14,Improv_Melody,87,9999,9999,9999,896280624
4024,14,Improv_Melody,88,9999,9999,9999,896780364
4024,14,Improv_Melody,89,9999,9999,9999,897280084
4024,14,Improv_Melody,90,9999,9999,9999,897779780
4024,14,Improv_Melody,91,9999,9999,9999,898280564
4024,14,Improv_Melody,92,9999,9999,9999,898780212
4024,14,Improv_Melody,93,9999,9999,9999,899279976
4024,14,Improv_Melody,94,9999,9999,9999,899780704
4024,14,Improv_Melody,95,9999,9999,9999,900280384
4024,14,Improv_Melody,96,9999,9999,9999,900780112
4024,14,Improv_Melody,97,9999,9999,9999,901279824
4024,14,Improv_Melody,98,9999,9999,9999,901780600
4024,14,Improv_Melody,99,9999,9999,9999,902280296
4024,14,Improv_Melody,100,9999,9999,9999,902780016
4024,14,Improv_Melody,101,9999,9999,9999,903280736
4024,14,Improv_Melody,102,9999,9999,9999,903780460
4024,14,Improv_Melody,103,9999,9999,9999,904280124
4024,14,Improv_Melody,104,9999,9999,9999,904779892
4024,14,Improv_Melody,105,9999,9999,9999,905280560
4024,14,Improv_Melody,106,9999,9999,9999,905780300
4024,14,Improv_Melody,107,9999,9999,9999,906280000
4024,14,Improv_Melody,108,9999,9999,9999,906780744
4024,14,Improv_Melody,109,9999,9999,9999,907280480
4024,14,Improv_Melody,110,9999,9999,9999,907780208
4024,14,Improv_Melody,111,9999,9999,9999,908279860
4024,14,Improv_Melody,112,9999,9999,9999,908780604
4024,14,Improv_Melody,113,9999,9999,9999,909280344
4024,14,Improv_Melody,114,9999,9999,9999,909780048
4024,14,Improv_Melody,115,9999,9999,9999,910280800
4024,14,Improv_Melody,116,9999,9999,9999,910780508
4024,14,Improv_Melody,117,9999,9999,9999,911280236
4024,14,Improv_Melody,118,9999,9999,9999,911779956
4024,14,Improv_Melody,119,9999,9999,9999,912280680
4024,14,Improv_Melody,120,9999,9999,9999,912780376
4024,14,Improv_Melody,121,9999,9999,9999,913280060
4024,14,Improv_Melody,122,9999,9999,9999,913779772
4024,14,Improv_Melody,123,9999,9999,9999,914280524
4024,14,Improv_Melody,124,9999,9999,9999,914780256
4024,14,Improv_Melody,125,9999,9999,9999,915279952
4024,14,Improv_Melody,126,9999,9999,9999,915780704
4024,14,Improv_Melody,127,9999,9999,9999,916280412
4024,14,Improv_Melody,128,9999,9999,9999,916780128
4024,14,Improv_Melody,129,9999,9999,9999,917279836
4024,14,Improv_Melody,130,9999,9999,9999,917780544
4024,14,Improv_Melody,131,9999,9999,9999,918280244
4024,14,Improv_Melody,132,9999,9999,9999,918779984
4024,14,Improv_Melody,133,9999,9999,9999,919280756
4024,14,Improv_Melody,134,9999,9999,9999,919780408
4024,14,Improv_Melody,135,9999,9999,9999,920280128
4024,14,Improv_Melody,136,9999,9999,9999,920779876
4024,14,Improv_Melody,137,9999,9999,9999,921280560
4024,14,Improv_Melody,138,9999,9999,9999,921780284
4024,14,Improv_Melody,139,9999,9999,9999,922280032
4024,14,Improv_Melody,140,9999,9999,9999,922780732
4024,14,Improv_Melody,141,9999,9999,9999,923280436
4024,14,Improv_Melody,142,9999,9999,9999,923780164
4024,14,Improv_Melody,143,9999,9999,9999,924279896
4024,14,Improv_Melody,144,9999,9999,9999,924780656
4024,14,Improv_Melody,145,9999,9999,9999,925280324
4024,14,Improv_Melody,146,9999,9999,9999,925780016
4024,14,Improv_Melody,147,9999,9999,9999,926280796
4024,14,Improv_Melody,148,9999,9999,9999,926780528
4024,14,Improv_Melody,149,9999,9999,9999,927280204
4024,14,Improv_Melody,150,9999,9999,9999,927779932
4024,14,Improv_Melody,151,9999,9999,9999,928280636
4024,14,Improv_Melody,152,9999,9999,9999,928780360
4024,14,Improv_Melody,153,9999,9999,9999,929280052
4024,14,Improv_Melody,154,9999,9999,9999,929779828
4024,14,Improv_Melody,155,9999,9999,9999,930280500
4024,14,Improv_Melody,156,9999,9999,9999,930780272
4024,14,Improv_Melody,157,9999,9999,9999,931279924
4024,14,Improv_Melody,158,9999,9999,9999,931780664
4024,14,Improv_Melody,159,9999,9999,9999,932280428
4024,14,Improv_Melody,160,9999,9999,9999,932780088
4024,14,Improv_Melody,161,9999,9999,9999,933279836
40