pid,taskRunCount,taskID,taskName,i,channel,pitch,velocity,microseconds
41,1,1,Ticks_Pract_5,0,5,42,127,2372929768
41,1,1,Ticks_Pract_5,1,5,42,127,2373429484
41,1,1,Ticks_Pract_5,2,5,42,127,2373930324
41,1,1,Ticks_Pract_5,3,5,42,127,2374430188
41,1,1,Ticks_Pract_5,4,5,42,127,2374929756
41,1,1,Ticks_Pract_5,5,1,48,72,2375013352
41,1,1,Ticks_Pract_5,6,1,48,55,2375416540
41,1,1,Ticks_Pract_5,7,5,42,127,2375429368
41,1,1,Ticks_Pract_5,8,1,48,60,2375924240
41,1,1,Ticks_Pract_5,9,5,42,127,2375930556
41,1,1,Ticks_Pract_5,10,1,48,54,2376428520
41,1,1,Ticks_Pract_5,11,5,42,127,2376430400
41,1,1,Ticks_Pract_5,12,1,48,47,2376926700
41,1,1,Ticks_Pract_5,13,5,42,127,2376929576
41,1,1,Ticks_Pract_5,14,5,42,127,2377430324
41,1,1,Ticks_Pract_5,15,1,48,62,2377431808
41,1,1,Ticks_Pract_5,16,5,42,127,2377930168
41,1,1,Ticks_Pract_5,17,1,48,53,2377946972
41,1,1,Ticks_Pract_5,18,5,42,127,2378429860
41,1,1,Ticks_Pract_5,19,1,48,53,2378442032
41,1,1,Ticks_Pract_5,20,1,48,50,2378907448
41,1,1,Ticks_Pract_5,21,5,42,127,2378929400
41,1,1,Ticks_Pract_5,22,1,48,43,2379410440
41,1,1,Ticks_Pract_5,23,5,42,127,2379430440
41,1,1,Ticks_Pract_5,24,1,48,47,2379904792
41,1,1,Ticks_Pract_5,25,5,42,127,2379929836
41,1,1,Ticks_Pract_5,26,1,48,49,2380410696
41,1,1,Ticks_Pract_5,27,5,42,127,2380429608
41,1,1,Ticks_Pract_5,28,1,48,52,2380915028
41,1,1,Ticks_Pract_5,29,5,42,127,2380930396
41,1,1,Ticks_Pract_5,30,5,42,127,2381430244
41,1,1,Ticks_Pract_5,31,1,48,53,2381440696
41,1,1,Ticks_Pract_5,32,5,42,127,2381929868
41,1,1,Ticks_Pract_5,33,1,48,57,2381942112
41,1,1,Ticks_Pract_5,34,5,42,127,2382429488
41,1,1,Ticks_Pract_5,35,1,48,47,2382437472
41,1,1,Ticks_Pract_5,36,5,42,127,2382930228
41,1,1,Ticks_Pract_5,37,1,48,50,2382934468
41,1,1,Ticks_Pract_5,38,5,42,127,2383429924
41,1,1,Ticks_Pract_5,39,1,48,49,2383446136
41,1,1,Ticks_Pract_5,40,5,42,127,2383929616
41,1,1,Ticks_Pract_5,41,1,48,45,2383949564
41,1,1,Ticks_Pract_5,42,1,48,54,2384425380
41,1,1,Ticks_Pract_5,43,5,42,127,2384429452
41,1,1,Ticks_Pract_5,44,1,48,53,2384920960
41,1,1,Ticks_Pract_5,45,5,42,127,2384930120
41,1,1,Ticks_Pract_5,46,5,42,127,2385430116
41,1,1,Ticks_Pract_5,47,1,48,55,2385451192
41,1,1,Ticks_Pract_5,48,1,48,49,2385897836
41,1,1,Ticks_Pract_5,49,5,42,127,2385929508
41,1,1,Ticks_Pract_5,50,1,48,54,2386406052
41,1,1,Ticks_Pract_5,51,5,42,127,2386430396
41,1,1,Ticks_Pract_5,52,1,48,51,2386886520
41,1,1,Ticks_Pract_5,53,5,42,127,2386930240
41,1,1,Ticks_Pract_5,54,1,48,55,2387395272
41,1,1,Ticks_Pract_5,55,5,42,127,2387429788
41,1,1,Ticks_Pract_5,56,1,48,44,2387910004
41,1,1,Ticks_Pract_5,57,5,42,127,2387929408
41,1,1,Ticks_Pract_5,58,1,48,51,2388393612
41,1,1,Ticks_Pract_5,59,5,42,127,2388430224
41,1,1,Ticks_Pract_5,60,1,48,21,2388471772
41,1,1,Ticks_Pract_5,61,1,48,46,2388889324
41,1,1,Ticks_Pract_5,62,5,42,127,2388929976
41,1,1,Ticks_Pract_5,63,1,48,49,2389381812
41,1,1,Ticks_Pract_5,64,5,42,127,2389429740
41,1,1,Ticks_Pract_5,65,1,48,47,2389884796
41,1,1,Ticks_Pract_5,66,5,42,127,2389930336
41,1,1,Ticks_Pract_5,67,5,42,127,2390430036
41,1,1,Ticks_Pract_5,68,1,48,48,2390435396
41,1,1,Ticks_Pract_5,69,1,48,47,2390914184
41,1,1,Ticks_Pract_5,70,5,42,127,2390929872
41,1,1,Ticks_Pract_5,71,1,48,47,2391397044
41,1,1,Ticks_Pract_5,72,5,42,127,2391429468
41,1,1,Ticks_Pract_5,73,1,48,49,2391865772
41,1,1,Ticks_Pract_5,74,5,42,127,2391930284
41,1,1,Ticks_Pract_5,75,1,48,51,2392371828
41,1,1,Ticks_Pract_5,76,5,42,127,2392429832
41,1,1,Ticks_Pract_5,77,1,48,43,2392853192
41,1,1,Ticks_Pract_5,0,9999,9999,9999,2372927556
41,1,1,Ticks_Pract_5,1,9999,9999,9999,2373427272
41,1,1,Ticks_Pract_5,2,9999,9999,9999,2373928036
41,1,1,Ticks_Pract_5,3,9999,9999,9999,2374427752
41,1,1,Ticks_Pract_5,4,9999,9999,9999,2374927468
41,1,1,Ticks_Pract_5,5,9999,9999,9999,2375427156
41,1,1,Ticks_Pract_5,6,9999,9999,9999,2375927900
41,1,1,Ticks_Pract_5,7,9999,9999,9999,2376427600
41,1,1,Ticks_Pract_5,8,9999,9999,9999,2376927292
41,1,1,Ticks_Pract_5,9,9999,9999,9999,2377428036
41,1,1,Ticks_Pract_5,10,9999,9999,9999,2377927732
41,1,1,Ticks_Pract_5,11,9999,9999,9999,2378427500
41,1,1,Ticks_Pract_5,12,9999,9999,9999,2378927188
41,1,1,Ticks_Pract_5,13,9999,9999,9999,2379427932
41,1,1,Ticks_Pract_5,14,9999,9999,9999,2379927624
41,1,1,Ticks_Pract_5,15,9999,9999,9999,2380427320
41,1,1,Ticks_Pract_5,16,9999,9999,9999,2380928112
41,1,1,Ticks_Pract_5,17,9999,9999,9999,2381427812
41,1,1,Ticks_Pract_5,18,9999,9999,9999,2381927508
41,1,1,Ticks_Pract_5,19,9999,9999,9999,2382427200
41,1,1,Ticks_Pract_5,20,9999,9999,9999,2382927944
41,1,1,Ticks_Pract_5,21,9999,9999,9999,2383427636
41,1,1,Ticks_Pract_5,22,9999,9999,9999,2383927404
41,1,1,Ticks_Pract_5,23,9999,9999,9999,2384427092
41,1,1,Ticks_Pract_5,24,9999,9999,9999,2384927836
41,1,1,Ticks_Pract_5,25,9999,9999,9999,2385427536
41,1,1,Ticks_Pract_5,26,9999,9999,9999,2385927224
41,1,1,Ticks_Pract_5,27,9999,9999,9999,2386427964
41,1,1,Ticks_Pract_5,28,9999,9999,9999,2386927732
41,1,1,Ticks_Pract_5,29,9999,9999,9999,2387427428
41,1,1,Ticks_Pract_5,30,9999,9999,9999,2387927124
41,1,1,Ticks_Pract_5,31,9999,9999,9999,2388427864
41,1,1,Ticks_Pract_5,32,9999,9999,9999,2388927540
41,1,1,Ticks_Pract_5,33,9999,9999,9999,2389427308
41,1,1,Ticks_Pract_5,34,9999,9999,9999,2389928048
41,1,1,Ticks_Pract_5,35,9999,9999,9999,2390427748
41,1,1,Ticks_Pract_5,36,9999,9999,9999,2390927436
41,1,1,Ticks_Pract_5,37,9999,9999,9999,2391427180
41,1,1,Ticks_Pract_5,38,9999,9999,9999,2391927924
41,1,1,Ticks_Pract_5,39,9999,9999,9999,2392427620
41,2,0,Ticks_Pract_8,0,5,42,127,2407038536
41,2,0,Ticks_Pract_8,1,5,42,127,2407837944
41,2,0,Ticks_Pract_8,2,5,42,127,2408637696
41,2,0,Ticks_Pract_8,3,1,48,57,2409395820
41,2,0,Ticks_Pract_8,4,5,42,127,2409437596
41,2,0,Ticks_Pract_8,5,1,48,29,2409493504
41,2,0,Ticks_Pract_8,6,1,48,67,2410213184
41,2,0,Ticks_Pract_8,7,5,42,127,2410238356
41,2,0,Ticks_Pract_8,8,1,48,27,2410348120
41,2,0,Ticks_Pract_8,9,1,48,63,2410985748
41,2,0,Ticks_Pract_8,10,1,48,40,2411031428
41,2,0,Ticks_Pract_8,11,5,42,127,2411038344
41,2,0,Ticks_Pract_8,12,1,48,63,2411783064
41,2,0,Ticks_Pract_8,13,5,42,127,2411837780
41,2,0,Ticks_Pract_8,14,1,48,68,2412577868
41,2,0,Ticks_Pract_8,15,1,48,40,2412623616
41,2,0,Ticks_Pract_8,16,5,42,127,2412637416
41,2,0,Ticks_Pract_8,17,1,48,58,2413386100
41,2,0,Ticks_Pract_8,18,1,48,40,2413422956
41,2,0,Ticks_Pract_8,19,5,42,127,2413438324
41,2,0,Ticks_Pract_8,20,1,48,63,2414176232
41,2,0,Ticks_Pract_8,21,5,42,127,2414238228
41,2,0,Ticks_Pract_8,22,1,48,32,2414241628
41,2,0,Ticks_Pract_8,23,1,48,68,2414947004
41,2,0,Ticks_Pract_8,24,5,42,127,2415037940
41,2,0,Ticks_Pract_8,25,1,48,56,2415755364
41,2,0,Ticks_Pract_8,26,5,42,127,2415837448
41,2,0,Ticks_Pract_8,27,1,48,55,2416540580
41,2,0,Ticks_Pract_8,28,1,48,32,2416595988
41,2,0,Ticks_Pract_8,29,5,42,127,2416638208
41,2,0,Ticks_Pract_8,30,1,48,59,2417346128
41,2,0,Ticks_Pract_8,31,1,48,35,2417398916
41,2,0,Ticks_Pract_8,32,5,42,127,2417438068
41,2,0,Ticks_Pract_8,33,1,48,56,2418180920
41,2,0,Ticks_Pract_8,34,1,48,33,2418229296
41,2,0,Ticks_Pract_8,35,5,42,127,2418237856
41,2,0,Ticks_Pract_8,36,1,48,58,2419013768
41,2,0,Ticks_Pract_8,37,5,42,127,2419037516
41,2,0,Ticks_Pract_8,38,1,48,33,2419062308
41,2,0,Ticks_Pract_8,39,1,48,61,2419798892
41,2,0,Ticks_Pract_8,40,5,42,127,2419838196
41,2,0,Ticks_Pract_8,41,1,48,38,2419841896
41,2,0,Ticks_Pract_8,42,1,48,69,2420583044
41,2,0,Ticks_Pract_8,43,1,48,36,2420636400
41,2,0,Ticks_Pract_8,44,5,42,127,2420637912
41,2,0,Ticks_Pract_8,45,1,48,61,2421416216
41,2,0,Ticks_Pract_8,46,5,42,127,2421438016
41,2,0,Ticks_Pract_8,47,1,48,48,2422200468
41,2,0,Ticks_Pract_8,48,5,42,127,2422237528
41,2,0,Ticks_Pract_8,49,1,48,57,2423019724
41,2,0,Ticks_Pract_8,50,5,42,127,2423038232
41,2,0,Ticks_Pract_8,51,1,48,38,2423832620
41,2,0,Ticks_Pract_8,52,5,42,127,2423837964
41,2,0,Ticks_Pract_8,53,1,48,65,2424615448
41,2,0,Ticks_Pract_8,54,5,42,127,2424637996
41,2,0,Ticks_Pract_8,55,1,48,42,2424654488
41,2,0,Ticks_Pract_8,56,1,48,51,2425370356
41,2,0,Ticks_Pract_8,57,5,42,127,2425437632
41,2,0,Ticks_Pract_8,58,1,48,57,2426164332
41,2,0,Ticks_Pract_8,59,1,48,38,2426203876
41,2,0,Ticks_Pract_8,60,5,42,127,2426238392
41,2,0,Ticks_Pract_8,61,1,48,59,2427008624
41,2,0,Ticks_Pract_8,62,5,42,127,2427038004
41,2,0,Ticks_Pract_8,63,1,48,36,2427049780
41,2,0,Ticks_Pract_8,64,1,48,49,2427770112
41,2,0,Ticks_Pract_8,65,5,42,127,2427837712
41,2,0,Ticks_Pract_8,66,1,48,55,2428587524
41,2,0,Ticks_Pract_8,67,5,42,127,2428637668
41,2,0,Ticks_Pract_8,68,1,48,53,2429414780
41,2,0,Ticks_Pract_8,69,5,42,127,2429438300
41,2,0,Ticks_Pract_8,70,1,48,54,2430211296
41,2,0,Ticks_Pract_8,71,5,42,127,2430237960
41,2,0,Ticks_Pract_8,72,1,48,45,2431029432
41,2,0,Ticks_Pract_8,0,9999,9999,9999,2407036020
41,2,0,Ticks_Pract_8,1,9999,9999,9999,2407835724
41,2,0,Ticks_Pract_8,2,9999,9999,9999,2408635480
41,2,0,Ticks_Pract_8,3,9999,9999,9999,2409435232
41,2,0,Ticks_Pract_8,4,9999,9999,9999,2410235988
41,2,0,Ticks_Pract_8,5,9999,9999,9999,2411035752
41,2,0,Ticks_Pract_8,6,9999,9999,9999,2411835488
41,2,0,Ticks_Pract_8,7,9999,9999,9999,2412635200
41,2,0,Ticks_Pract_8,8,9999,9999,9999,2413435956
41,2,0,Ticks_Pract_8,9,9999,9999,9999,2414235716
41,2,0,Ticks_Pract_8,10,9999,9999,9999,2415035500
41,2,0,Ticks_Pract_8,11,9999,9999,9999,2415835232
41,2,0,Ticks_Pract_8,12,9999,9999,9999,2416635992
41,2,0,Ticks_Pract_8,13,9999,9999,9999,2417435704
41,2,0,Ticks_Pract_8,14,9999,9999,9999,2418235488
41,2,0,Ticks_Pract_8,15,9999,9999,9999,2419035224
41,2,0,Ticks_Pract_8,16,9999,9999,9999,2419835980
41,2,0,Ticks_Pract_8,17,9999,9999,9999,2420635700
41,2,0,Ticks_Pract_8,18,9999,9999,9999,2421435500
41,2,0,Ticks_Pract_8,19,9999,9999,9999,2422235236
41,2,0,Ticks_Pract_8,20,9999,9999,9999,2423036016
41,2,0,Ticks_Pract_8,21,9999,9999,9999,2423835748
41,2,0,Ticks_Pract_8,22,9999,9999,9999,2424635480
41,2,0,Ticks_Pract_8,23,9999,9999,9999,2425435192
41,2,0,Ticks_Pract_8,24,9999,9999,9999,2426235952
41,2,0,Ticks_Pract_8,25,9999,9999,9999,2427035712
41,2,0,Ticks_Pract_8,26,9999,9999,9999,2427835496
41,2,0,Ticks_Pract_8,27,9999,9999,9999,2428635228
41,2,0,Ticks_Pract_8,28,9999,9999,9999,2429436008
41,2,0,Ticks_Pract_8,29,9999,9999,9999,2430235744
41,3,4,T1_SMS_5,0,5,42,127,2506669356
41,3,4,T1_SMS_5,1,5,42,127,2507170120
41,3,4,T1_SMS_5,2,1,48,19,2507431988
41,3,4,T1_SMS_5,3,5,42,127,2507669960
41,3,4,T1_SMS_5,4,1,48,43,2507880500
41,3,4,T1_SMS_5,5,5,42,127,2508169584
41,3,4,T1_SMS_5,6,1,48,38,2508277196
41,3,4,T1_SMS_5,7,1,48,52,2508651332
41,3,4,T1_SMS_5,8,5,42,127,2508670292
41,3,4,T1_SMS_5,9,1,48,35,2508698180
41,3,4,T1_SMS_5,10,1,48,66,2509162824
41,3,4,T1_SMS_5,11,5,42,127,2509169964
41,3,4,T1_SMS_5,12,1,48,32,2509231512
41,3,4,T1_SMS_5,13,5,42,127,2509670020
41,3,4,T1_SMS_5,14,1,48,64,2509687880
41,3,4,T1_SMS_5,15,1,48,34,2509750856
41,3,4,T1_SMS_5,16,5,42,127,2510169396
41,3,4,T1_SMS_5,17,1,48,61,2510177900
41,3,4,T1_SMS_5,18,1,48,40,2510219188
41,3,4,T1_SMS_5,19,5,42,127,2510670116
41,3,4,T1_SMS_5,20,1,48,61,2510678620
41,3,4,T1_SMS_5,21,1,48,38,2510726040
41,3,4,T1_SMS_5,22,5,42,127,2511170012
41,3,4,T1_SMS_5,23,1,48,65,2511187788
41,3,4,T1_SMS_5,24,1,48,38,2511232720
41,3,4,T1_SMS_5,25,5,42,127,2511669684
41,3,4,T1_SMS_5,26,1,48,61,2511688060
41,3,4,T1_SMS_5,27,1,48,36,2511735160
41,3,4,T1_SMS_5,28,5,42,127,2512170328
41,3,4,T1_SMS_5,29,1,48,63,2512178312
41,3,4,T1_SMS_5,30,1,48,39,2512221520
41,3,4,T1_SMS_5,31,5,42,127,2512670148
41,3,4,T1_SMS_5,32,1,48,59,2512680076
41,3,4,T1_SMS_5,33,1,48,62,2513165688
41,3,4,T1_SMS_5,34,5,42,127,2513169908
41,3,4,T1_SMS_5,35,5,42,127,2513669612
41,3,4,T1_SMS_5,36,1,48,61,2513687392
41,3,4,T1_SMS_5,37,1,48,42,2513719908
41,3,4,T1_SMS_5,38,5,42,127,2514170184
41,3,4,T1_SMS_5,39,1,48,58,2514209724
41,3,4,T1_SMS_5,40,1,48,44,2514240000
41,3,4,T1_SMS_5,41,5,42,127,2514670008
41,3,4,T1_SMS_5,42,1,48,61,2514687636
41,3,4,T1_SMS_5,43,5,42,127,2515169700
41,3,4,T1_SMS_5,44,1,48,58,2515204312
41,3,4,T1_SMS_5,45,1,48,40,2515237720
41,3,4,T1_SMS_5,46,5,42,127,2515670344
41,3,4,T1_SMS_5,47,1,48,52,2515674956
41,3,4,T1_SMS_5,48,5,42,127,2516169968
41,3,4,T1_SMS_5,49,1,48,57,2516202780
41,3,4,T1_SMS_5,50,1,48,39,2516249356
41,3,4,T1_SMS_5,51,5,42,127,2516669792
41,3,4,T1_SMS_5,52,1,48,50,2516684424
41,3,4,T1_SMS_5,53,1,48,38,2516719636
41,3,4,T1_SMS_5,54,5,42,127,2517169612
41,3,4,T1_SMS_5,55,1,48,61,2517198684
41,3,4,T1_SMS_5,56,1,48,36,2517244584
41,3,4,T1_SMS_5,57,5,42,127,2517670108
41,3,4,T1_SMS_5,58,1,48,59,2517680184
41,3,4,T1_SMS_5,59,1,48,42,2517712248
41,3,4,T1_SMS_5,60,5,42,127,2518170076
41,3,4,T1_SMS_5,61,1,48,60,2518196536
41,3,4,T1_SMS_5,62,1,48,34,2518241764
41,3,4,T1_SMS_5,63,5,42,127,2518669752
41,3,4,T1_SMS_5,64,1,48,53,2518674516
41,3,4,T1_SMS_5,65,1,48,39,2518705460
41,3,4,T1_SMS_5,66,5,42,127,2519170548
41,3,4,T1_SMS_5,67,1,48,60,2519171660
41,3,4,T1_SMS_5,68,5,42,127,2519669992
41,3,4,T1_SMS_5,69,1,48,59,2519689964
41,3,4,T1_SMS_5,70,5,42,127,2520169688
41,3,4,T1_SMS_5,71,1,48,59,2520178268
41,3,4,T1_SMS_5,72,5,42,127,2520669680
41,3,4,T1_SMS_5,73,1,48,61,2520689780
41,3,4,T1_SMS_5,74,1,48,44,2520719700
41,3,4,T1_SMS_5,75,5,42,127,2521170472
41,3,4,T1_SMS_5,76,1,48,57,2521181072
41,3,4,T1_SMS_5,77,1,48,60,2521667588
41,3,4,T1_SMS_5,78,5,42,127,2521670088
41,3,4,T1_SMS_5,79,1,48,42,2521698024
41,3,4,T1_SMS_5,80,5,42,127,2522169768
41,3,4,T1_SMS_5,81,1,48,57,2522175652
41,3,4,T1_SMS_5,82,1,48,38,2522211388
41,3,4,T1_SMS_5,83,5,42,127,2522669440
41,3,4,T1_SMS_5,84,1,48,62,2522688116
41,3,4,T1_SMS_5,85,1,48,57,2523161312
41,3,4,T1_SMS_5,86,5,42,127,2523170024
41,3,4,T1_SMS_5,87,1,48,40,2523195940
41,3,4,T1_SMS_5,88,5,42,127,2523669852
41,3,4,T1_SMS_5,89,1,48,57,2523684784
41,3,4,T1_SMS_5,90,1,48,55,2524157392
41,3,4,T1_SMS_5,91,5,42,127,2524169468
41,3,4,T1_SMS_5,92,1,48,43,2524185060
41,3,4,T1_SMS_5,93,1,48,54,2524669740
41,3,4,T1_SMS_5,94,5,42,127,2524671456
41,3,4,T1_SMS_5,95,1,48,54,2525164456
41,3,4,T1_SMS_5,96,5,42,127,2525169956
41,3,4,T1_SMS_5,97,1,48,39,2525197144
41,3,4,T1_SMS_5,98,1,48,50,2525653588
41,3,4,T1_SMS_5,99,5,42,127,2525669632
41,3,4,T1_SMS_5,100,1,48,56,2526157848
41,3,4,T1_SMS_5,101,5,42,127,2526169548
41,3,4,T1_SMS_5,102,1,48,55,2526636452
41,3,4,T1_SMS_5,103,5,42,127,2526670140
41,3,4,T1_SMS_5,104,1,48,57,2527131504
41,3,4,T1_SMS_5,105,5,42,127,2527169764
41,3,4,T1_SMS_5,106,1,48,58,2527645408
41,3,4,T1_SMS_5,107,5,42,127,2527669680
41,3,4,T1_SMS_5,108,1,48,55,2528154380
41,3,4,T1_SMS_5,109,5,42,127,2528170272
41,3,4,T1_SMS_5,110,1,48,53,2528642184
41,3,4,T1_SMS_5,111,5,42,127,2528670264
41,3,4,T1_SMS_5,112,1,48,57,2529168228
41,3,4,T1_SMS_5,113,5,42,127,2529169884
41,3,4,T1_SMS_5,114,5,42,127,2529669512
41,3,4,T1_SMS_5,115,1,48,58,2529714220
41,3,4,T1_SMS_5,116,5,42,127,2530170228
41,3,4,T1_SMS_5,117,1,48,59,2530172896
41,3,4,T1_SMS_5,118,5,42,127,2530669924
41,3,4,T1_SMS_5,119,1,48,59,2530678056
41,3,4,T1_SMS_5,120,1,48,59,2531149680
41,3,4,T1_SMS_5,121,5,42,127,2531169540
41,3,4,T1_SMS_5,122,1,48,39,2531185056
41,3,4,T1_SMS_5,123,1,48,62,2531654964
41,3,4,T1_SMS_5,124,5,42,127,2531670332
41,3,4,T1_SMS_5,125,1,48,57,2532142616
41,3,4,T1_SMS_5,126,5,42,127,2532170328
41,3,4,T1_SMS_5,127,1,48,61,2532639848
41,3,4,T1_SMS_5,128,5,42,127,2532669800
41,3,4,T1_SMS_5,129,1,48,37,2532682624
41,3,4,T1_SMS_5,130,1,48,61,2533143032
41,3,4,T1_SMS_5,131,5,42,127,2533169620
41,3,4,T1_SMS_5,132,1,48,42,2533176236
41,3,4,T1_SMS_5,133,5,42,127,2533670272
41,3,4,T1_SMS_5,134,1,48,58,2533674064
41,3,4,T1_SMS_5,135,1,48,57,2534148312
41,3,4,T1_SMS_5,136,5,42,127,2534170184
41,3,4,T1_SMS_5,137,1,48,57,2534646132
41,3,4,T1_SMS_5,138,5,42,127,2534669580
41,3,4,T1_SMS_5,139,5,42,127,2535170408
41,3,4,T1_SMS_5,140,1,48,60,2535176064
41,3,4,T1_SMS_5,141,1,48,65,2535669576
41,3,4,T1_SMS_5,142,5,42,127,2535671364
41,3,4,T1_SMS_5,143,1,48,58,2536158536
41,3,4,T1_SMS_5,144,5,42,127,2536169864
41,3,4,T1_SMS_5,145,1,48,43,2536191740
41,3,4,T1_SMS_5,146,5,42,127,2536669472
41,3,4,T1_SMS_5,147,1,48,58,2536672736
41,3,4,T1_SMS_5,148,5,42,127,2537170212
41,3,4,T1_SMS_5,149,1,48,59,2537193676
41,3,4,T1_SMS_5,150,5,42,127,2537670128
41,3,4,T1_SMS_5,151,1,48,63,2537671020
41,3,4,T1_SMS_5,152,1,48,56,2538150040
41,3,4,T1_SMS_5,153,5,42,127,2538169964
41,3,4,T1_SMS_5,154,5,42,127,2538669296
41,3,4,T1_SMS_5,155,1,48,63,2538674876
41,3,4,T1_SMS_5,156,1,48,46,2538702308
41,3,4,T1_SMS_5,157,1,48,58,2539163768
41,3,4,T1_SMS_5,158,5,42,127,2539170008
41,3,4,T1_SMS_5,159,1,48,46,2539188968
41,3,4,T1_SMS_5,160,1,48,55,2539652144
41,3,4,T1_SMS_5,161,5,42,127,2539670052
41,3,4,T1_SMS_5,162,5,42,127,2540169680
41,3,4,T1_SMS_5,163,1,48,53,2540178636
41,3,4,T1_SMS_5,164,1,48,59,2540656748
41,3,4,T1_SMS_5,165,5,42,127,2540670316
41,3,4,T1_SMS_5,166,1,48,62,2541159104
41,3,4,T1_SMS_5,167,5,42,127,2541169984
41,3,4,T1_SMS_5,168,1,48,46,2541185972
41,3,4,T1_SMS_5,169,1,48,61,2541666856
41,3,4,T1_SMS_5,170,5,42,127,2541670028
41,3,4,T1_SMS_5,171,1,48,47,2541692432
41,3,4,T1_SMS_5,172,1,48,60,2542151120
41,3,4,T1_SMS_5,173,5,42,127,2542169480
41,3,4,T1_SMS_5,174,1,48,44,2542179540
41,3,4,T1_SMS_5,175,1,48,56,2542648848
41,3,4,T1_SMS_5,176,5,42,127,2542670276
41,3,4,T1_SMS_5,177,1,48,54,2543137100
41,3,4,T1_SMS_5,178,5,42,127,2543169896
41,3,4,T1_SMS_5,179,1,48,49,2543631032
41,3,4,T1_SMS_5,180,5,42,127,2543669740
41,3,4,T1_SMS_5,181,1,48,57,2544137912
41,3,4,T1_SMS_5,182,5,42,127,2544170332
41,3,4,T1_SMS_5,183,1,48,60,2544649724
41,3,4,T1_SMS_5,184,5,42,127,2544669956
41,3,4,T1_SMS_5,185,1,48,55,2545131696
41,3,4,T1_SMS_5,186,1,48,40,2545164204
41,3,4,T1_SMS_5,187,5,42,127,2545169704
41,3,4,T1_SMS_5,188,1,48,59,2545646928
41,3,4,T1_SMS_5,189,5,42,127,2545669772
41,3,4,T1_SMS_5,190,1,48,59,2546141536
41,3,4,T1_SMS_5,191,5,42,127,2546170216
41,3,4,T1_SMS_5,192,1,48,59,2546635168
41,3,4,T1_SMS_5,193,1,48,45,2546662296
41,3,4,T1_SMS_5,194,5,42,127,2546670112
41,3,4,T1_SMS_5,195,1,48,55,2547151972
41,3,4,T1_SMS_5,196,5,42,127,2547169584
41,3,4,T1_SMS_5,197,1,48,53,2547654880
41,3,4,T1_SMS_5,198,5,42,127,2547670324
41,3,4,T1_SMS_5,199,1,48,52,2548148068
41,3,4,T1_SMS_5,200,5,42,127,2548170020
41,3,4,T1_SMS_5,201,1,48,58,2548656368
41,3,4,T1_SMS_5,202,5,42,127,2548669788
41,3,4,T1_SMS_5,203,1,48,61,2549166308
41,3,4,T1_SMS_5,204,5,42,127,2549169928
41,3,4,T1_SMS_5,205,1,48,57,2549642592
41,3,4,T1_SMS_5,206,5,42,127,2549670672
41,3,4,T1_SMS_5,207,5,42,127,2550169928
41,3,4,T1_SMS_5,208,1,48,58,2550172520
41,3,4,T1_SMS_5,209,5,42,127,2550669624
41,3,4,T1_SMS_5,210,1,48,58,2550685452
41,3,4,T1_SMS_5,211,1,48,38,2550721188
41,3,4,T1_SMS_5,212,5,42,127,2551170640
41,3,4,T1_SMS_5,213,1,48,61,2551178996
41,3,4,T1_SMS_5,214,1,48,58,2551657932
41,3,4,T1_SMS_5,215,5,42,127,2551670080
41,3,4,T1_SMS_5,216,5,42,127,2552169932
41,3,4,T1_SMS_5,217,1,48,60,2552179408
41,3,4,T1_SMS_5,218,1,48,42,2552214044
41,3,4,T1_SMS_5,219,1,48,59,2552654824
41,3,4,T1_SMS_5,220,5,42,127,2552669672
41,3,4,T1_SMS_5,221,1,48,58,2553144576
41,3,4,T1_SMS_5,222,5,42,127,2553170340
41,3,4,T1_SMS_5,223,1,48,36,2553188480
41,3,4,T1_SMS_5,224,1,48,62,2553652700
41,3,4,T1_SMS_5,225,5,42,127,2553669864
41,3,4,T1_SMS_5,226,1,48,40,2553690172
41,3,4,T1_SMS_5,227,5,42,127,2554169616
41,3,4,T1_SMS_5,228,1,48,61,2554175952
41,3,4,T1_SMS_5,229,1,48,42,2554211460
41,3,4,T1_SMS_5,230,1,48,64,2554664908
41,3,4,T1_SMS_5,231,5,42,127,2554669360
41,3,4,T1_SMS_5,232,5,42,127,2555170256
41,3,4,T1_SMS_5,233,1,48,57,2555184892
41,3,4,T1_SMS_5,234,1,48,36,2555226464
41,3,4,T1_SMS_5,235,1,48,61,2555656652
41,3,4,T1_SMS_5,236,5,42,127,2555669848
41,3,4,T1_SMS_5,237,1,48,46,2555687164
41,3,4,T1_SMS_5,238,5,42,127,2556169604
41,3,4,T1_SMS_5,239,1,48,60,2556171616
41,3,4,T1_SMS_5,240,1,48,56,2556665512
41,3,4,T1_SMS_5,241,5,42,127,2556670336
41,3,4,T1_SMS_5,242,1,48,61,2557148532
41,3,4,T1_SMS_5,243,5,42,127,2557169884
41,3,4,T1_SMS_5,244,1,48,65,2557667536
41,3,4,T1_SMS_5,245,5,42,127,2557669652
41,3,4,T1_SMS_5,246,1,48,47,2557698412
41,3,4,T1_SMS_5,247,1,48,58,2558167736
41,3,4,T1_SMS_5,248,5,42,127,2558169400
41,3,4,T1_SMS_5,249,1,48,46,2558197632
41,3,4,T1_SMS_5,250,1,48,64,2558666416
41,3,4,T1_SMS_5,251,5,42,127,2558670268
41,3,4,T1_SMS_5,252,1,48,43,2558700748
41,3,4,T1_SMS_5,253,1,48,58,2559163772
41,3,4,T1_SMS_5,254,5,42,127,2559169868
41,3,4,T1_SMS_5,255,1,48,41,2559196076
41,3,4,T1_SMS_5,256,1,48,53,2559643248
41,3,4,T1_SMS_5,257,5,42,127,2559669540
41,3,4,T1_SMS_5,258,1,48,59,2560156256
41,3,4,T1_SMS_5,259,5,42,127,2560170356
41,3,4,T1_SMS_5,260,1,48,50,2560666272
41,3,4,T1_SMS_5,261,5,42,127,2560670272
41,3,4,T1_SMS_5,262,1,48,67,2561162532
41,3,4,T1_SMS_5,263,5,42,127,2561169744
41,3,4,T1_SMS_5,264,1,48,43,2561198284
41,3,4,T1_SMS_5,265,1,48,56,2561664448
41,3,4,T1_SMS_5,266,5,42,127,2561669420
41,3,4,T1_SMS_5,267,1,48,55,2562158880
41,3,4,T1_SMS_5,268,5,42,127,2562170356
41,3,4,T1_SMS_5,269,1,48,60,2562656176
41,3,4,T1_SMS_5,270,5,42,127,2562670052
41,3,4,T1_SMS_5,271,1,48,58,2563155352
41,3,4,T1_SMS_5,272,5,42,127,2563169676
41,3,4,T1_SMS_5,273,1,48,43,2563187588
41,3,4,T1_SMS_5,274,1,48,60,2563669948
41,3,4,T1_SMS_5,275,5,42,127,2563671516
41,3,4,T1_SMS_5,276,1,48,44,2563699232
41,3,4,T1_SMS_5,277,5,42,127,2564170372
41,3,4,T1_SMS_5,278,1,48,63,2564177828
41,3,4,T1_SMS_5,279,1,48,59,2564656112
41,3,4,T1_SMS_5,280,5,42,127,2564669912
41,3,4,T1_SMS_5,281,1,48,41,2564689916
41,3,4,T1_SMS_5,282,1,48,56,2565149956
41,3,4,T1_SMS_5,283,5,42,127,2565169436
41,3,4,T1_SMS_5,284,1,48,42,2565182112
41,3,4,T1_SMS_5,285,5,42,127,2565670164
41,3,4,T1_SMS_5,286,1,48,59,2565673136
41,3,4,T1_SMS_5,287,1,48,35,2565722256
41,3,4,T1_SMS_5,288,1,48,54,2566129108
41,3,4,T1_SMS_5,289,1,48,41,2566159532
41,3,4,T1_SMS_5,290,5,42,127,2566170108
41,3,4,T1_SMS_5,291,1,48,62,2566665580
41,3,4,T1_SMS_5,292,5,42,127,2566669804
41,3,4,T1_SMS_5,293,1,48,59,2567141340
41,3,4,T1_SMS_5,294,5,42,127,2567170548
41,3,4,T1_SMS_5,295,1,48,42,2567174096
41,3,4,T1_SMS_5,296,5,42,127,2567670004
41,3,4,T1_SMS_5,297,1,48,62,2567679332
41,3,4,T1_SMS_5,298,1,48,57,2568155668
41,3,4,T1_SMS_5,299,5,42,127,2568169988
41,3,4,T1_SMS_5,300,1,48,57,2568666440
41,3,4,T1_SMS_5,301,5,42,127,2568669684
41,3,4,T1_SMS_5,302,1,48,63,2569153860
41,3,4,T1_SMS_5,303,5,42,127,2569170276
41,3,4,T1_SMS_5,304,1,48,36,2569203524
41,3,4,T1_SMS_5,305,1,48,63,2569658996
41,3,4,T1_SMS_5,306,5,42,127,2569670028
41,3,4,T1_SMS_5,307,1,48,58,2570143504
41,3,4,T1_SMS_5,308,5,42,127,2570169720
41,3,4,T1_SMS_5,309,1,48,61,2570658092
41,3,4,T1_SMS_5,310,5,42,127,2570669492
41,3,4,T1_SMS_5,311,1,48,59,2571144016
41,3,4,T1_SMS_5,312,5,42,127,2571170084
41,3,4,T1_SMS_5,313,1,48,64,2571666904
41,3,4,T1_SMS_5,0,9999,9999,9999,2506667068
41,3,4,T1_SMS_5,1,9999,9999,9999,2507167832
41,3,4,T1_SMS_5,2,9999,9999,9999,2507667524
41,3,4,T1_SMS_5,3,9999,9999,9999,2508167224
41,3,4,T1_SMS_5,4,9999,9999,9999,2508668008
41,3,4,T1_SMS_5,5,9999,9999,9999,2509167680
41,3,4,T1_SMS_5,6,9999,9999,9999,2509667436
41,3,4,T1_SMS_5,7,9999,9999,9999,2510167108
41,3,4,T1_SMS_5,8,9999,9999,9999,2510667828
41,3,4,T1_SMS_5,9,9999,9999,9999,2511167576
41,3,4,T1_SMS_5,10,9999,9999,9999,2511667248
41,3,4,T1_SMS_5,11,9999,9999,9999,2512168040
41,3,4,T1_SMS_5,12,9999,9999,9999,2512667712
41,3,4,T1_SMS_5,13,9999,9999,9999,2513167476
41,3,4,T1_SMS_5,14,9999,9999,9999,2513667176
41,3,4,T1_SMS_5,15,9999,9999,9999,2514167896
41,3,4,T1_SMS_5,16,9999,9999,9999,2514667572
41,3,4,T1_SMS_5,17,9999,9999,9999,2515167340
41,3,4,T1_SMS_5,18,9999,9999,9999,2515668060
41,3,4,T1_SMS_5,19,9999,9999,9999,2516167756
41,3,4,T1_SMS_5,20,9999,9999,9999,2516667504
41,3,4,T1_SMS_5,21,9999,9999,9999,2517167176
41,3,4,T1_SMS_5,22,9999,9999,9999,2517667896
41,3,4,T1_SMS_5,23,9999,9999,9999,2518167644
41,3,4,T1_SMS_5,24,9999,9999,9999,2518667316
41,3,4,T1_SMS_5,25,9999,9999,9999,2519168088
41,3,4,T1_SMS_5,26,9999,9999,9999,2519667780
41,3,4,T1_SMS_5,27,9999,9999,9999,2520167476
41,3,4,T1_SMS_5,28,9999,9999,9999,2520667244
41,3,4,T1_SMS_5,29,9999,9999,9999,2521167964
41,3,4,T1_SMS_5,30,9999,9999,9999,2521667652
41,3,4,T1_SMS_5,31,9999,9999,9999,2522167404
41,3,4,T1_SMS_5,32,9999,9999,9999,2522667080
41,3,4,T1_SMS_5,33,9999,9999,9999,2523167812
41,3,4,T1_SMS_5,34,9999,9999,9999,2523667564
41,3,4,T1_SMS_5,35,9999,9999,9999,2524167256
41,3,4,T1_SMS_5,36,9999,9999,9999,2524667980
41,3,4,T1_SMS_5,37,9999,9999,9999,2525167668
41,3,4,T1_SMS_5,38,9999,9999,9999,2525667420
41,3,4,T1_SMS_5,39,9999,9999,9999,2526167112
41,3,4,T1_SMS_5,40,9999,9999,9999,2526667856
41,3,4,T1_SMS_5,41,9999,9999,9999,2527167552
41,3,4,T1_SMS_5,42,9999,9999,9999,2527667320
41,3,4,T1_SMS_5,43,9999,9999,9999,2528167988
41,3,4,T1_SMS_5,44,9999,9999,9999,2528667756
41,3,4,T1_SMS_5,45,9999,9999,9999,2529167456
41,3,4,T1_SMS_5,46,9999,9999,9999,2529667152
41,3,4,T1_SMS_5,47,9999,9999,9999,2530167868
41,3,4,T1_SMS_5,48,9999,9999,9999,2530667640
41,3,4,T1_SMS_5,49,9999,9999,9999,2531167328
41,3,4,T1_SMS_5,50,9999,9999,9999,2531668044
41,3,4,T1_SMS_5,51,9999,9999,9999,2532167744
41,3,4,T1_SMS_5,52,9999,9999,9999,2532667512
41,3,4,T1_SMS_5,53,9999,9999,9999,2533167184
41,3,4,T1_SMS_5,54,9999,9999,9999,2533667912
41,3,4,T1_SMS_5,55,9999,9999,9999,2534167672
41,3,4,T1_SMS_5,56,9999,9999,9999,2534667368
41,3,4,T1_SMS_5,57,9999,9999,9999,2535168120
41,3,4,T1_SMS_5,58,9999,9999,9999,2535667816
41,3,4,T1_SMS_5,59,9999,9999,9999,2536167504
41,3,4,T1_SMS_5,60,9999,9999,9999,2536667184
41,3,4,T1_SMS_5,61,9999,9999,9999,2537167924
41,3,4,T1_SMS_5,62,9999,9999,9999,2537667692
41,3,4,T1_SMS_5,63,9999,9999,9999,2538167380
41,3,4,T1_SMS_5,64,9999,9999,9999,2538667084
41,3,4,T1_SMS_5,65,9999,9999,9999,2539167796
41,3,4,T1_SMS_5,66,9999,9999,9999,2539667544
41,3,4,T1_SMS_5,67,9999,9999,9999,2540167244
41,3,4,T1_SMS_5,68,9999,9999,9999,2540667956
41,3,4,T1_SMS_5,69,9999,9999,9999,2541167696
41,3,4,T1_SMS_5,70,9999,9999,9999,2541667444
41,3,4,T1_SMS_5,71,9999,9999,9999,2542167116
41,3,4,T1_SMS_5,72,9999,9999,9999,2542667840
41,3,4,T1_SMS_5,73,9999,9999,9999,2543167608
41,3,4,T1_SMS_5,74,9999,9999,9999,2543667304
41,3,4,T1_SMS_5,75,9999,9999,9999,2544168044
41,3,4,T1_SMS_5,76,9999,9999,9999,2544667744
41,3,4,T1_SMS_5,77,9999,9999,9999,2545167416
41,3,4,T1_SMS_5,78,9999,9999,9999,2545667188
41,3,4,T1_SMS_5,79,9999,9999,9999,2546167856
41,3,4,T1_SMS_5,80,9999,9999,9999,2546667604
41,3,4,T1_SMS_5,81,9999,9999,9999,2547167300
41,3,4,T1_SMS_5,82,9999,9999,9999,2547668040
41,3,4,T1_SMS_5,83,9999,9999,9999,2548167732
41,3,4,T1_SMS_5,84,9999,9999,9999,2548667504
41,3,4,T1_SMS_5,85,9999,9999,9999,2549167196
41,3,4,T1_SMS_5,86,9999,9999,9999,2549667940
41,3,4,T1_SMS_5,87,9999,9999,9999,2550167640
41,3,4,T1_SMS_5,88,9999,9999,9999,2550667336
41,3,4,T1_SMS_5,89,9999,9999,9999,2551168056
41,3,4,T1_SMS_5,90,9999,9999,9999,2551667796
41,3,4,T1_SMS_5,91,9999,9999,9999,2552167496
41,3,4,T1_SMS_5,92,9999,9999,9999,2552667240
41,3,4,T1_SMS_5,93,9999,9999,9999,2553167980
41,3,4,T1_SMS_5,94,9999,9999,9999,2553667652
41,3,4,T1_SMS_5,95,9999,9999,9999,2554167404
41,3,4,T1_SMS_5,96,9999,9999,9999,2554667072
41,3,4,T1_SMS_5,97,9999,9999,9999,2555167820
41,3,4,T1_SMS_5,98,9999,9999,9999,2555667560
41,3,4,T1_SMS_5,99,9999,9999,9999,2556167240
41,3,4,T1_SMS_5,100,9999,9999,9999,2556667976
41,3,4,T1_SMS_5,101,9999,9999,9999,2557167672
41,3,4,T1_SMS_5,102,9999,9999,9999,2557667404
41,3,4,T1_SMS_5,103,9999,9999,9999,2558167136
41,3,4,T1_SMS_5,104,9999,9999,9999,2558667832
41,3,4,T1_SMS_5,105,9999,9999,9999,2559167580
41,3,4,T1_SMS_5,106,9999,9999,9999,2559667252
41,3,4,T1_SMS_5,107,9999,9999,9999,2560167996
41,3,4,T1_SMS_5,108,9999,9999,9999,2560667764
41,3,4,T1_SMS_5,109,9999,9999,9999,2561167460
41,3,4,T1_SMS_5,110,9999,9999,9999,2561667132
41,3,4,T1_SMS_5,111,9999,9999,9999,2562167924
41,3,4,T1_SMS_5,112,9999,9999,9999,2562667616
41,3,4,T1_SMS_5,113,9999,9999,9999,2563167312
41,3,4,T1_SMS_5,114,9999,9999,9999,2563668040
41,3,4,T1_SMS_5,115,9999,9999,9999,2564167788
41,3,4,T1_SMS_5,116,9999,9999,9999,2564667476
41,3,4,T1_SMS_5,117,9999,9999,9999,2565167224
41,3,4,T1_SMS_5,118,9999,9999,9999,2565667952
41,3,4,T1_SMS_5,119,9999,9999,9999,2566167672
41,3,4,T1_SMS_5,120,9999,9999,9999,2566667368
41,3,4,T1_SMS_5,121,9999,9999,9999,2567168112
41,3,4,T1_SMS_5,122,9999,9999,9999,2567667792
41,3,4,T1_SMS_5,123,9999,9999,9999,2568167480
41,3,4,T1_SMS_5,124,9999,9999,9999,2568667252
41,3,4,T1_SMS_5,125,9999,9999,9999,2569167992
41,3,4,T1_SMS_5,126,9999,9999,9999,2569667668
41,3,4,T1_SMS_5,127,9999,9999,9999,2570167360
41,3,4,T1_SMS_5,128,9999,9999,9999,2570667132
41,3,4,T1_SMS_5,129,9999,9999,9999,2571167800
41,4,2,T1_SMS_8,0,5,42,127,2633259248
41,4,2,T1_SMS_8,1,1,48,63,2633804924
41,4,2,T1_SMS_8,2,1,48,19,2633909792
41,4,2,T1_SMS_8,3,5,42,127,2634059032
41,4,2,T1_SMS_8,4,1,48,70,2634850144
41,4,2,T1_SMS_8,5,5,42,127,2634858856
41,4,2,T1_SMS_8,6,1,48,35,2634929148
41,4,2,T1_SMS_8,7,5,42,127,2635658600
41,4,2,T1_SMS_8,8,1,48,70,2635663736
41,4,2,T1_SMS_8,9,1,48,37,2635732752
41,4,2,T1_SMS_8,10,1,48,65,2636420648
41,4,2,T1_SMS_8,11,5,42,127,2636459648
41,4,2,T1_SMS_8,12,1,48,40,2636466572
41,4,2,T1_SMS_8,13,1,48,72,2637207344
41,4,2,T1_SMS_8,14,5,42,127,2637259064
41,4,2,T1_SMS_8,15,1,48,34,2637299044
41,4,2,T1_SMS_8,16,1,48,66,2638053728
41,4,2,T1_SMS_8,17,5,42,127,2638058776
41,4,2,T1_SMS_8,18,1,48,40,2638113632
41,4,2,T1_SMS_8,19,1,48,63,2638828456
41,4,2,T1_SMS_8,20,5,42,127,2638858784
41,4,2,T1_SMS_8,21,1,48,45,2638878492
41,4,2,T1_SMS_8,22,1,48,73,2639646340
41,4,2,T1_SMS_8,23,5,42,127,2639659540
41,4,2,T1_SMS_8,24,1,48,43,2639704456
41,4,2,T1_SMS_8,25,1,48,64,2640454732
41,4,2,T1_SMS_8,26,5,42,127,2640459028
41,4,2,T1_SMS_8,27,1,48,69,2641236436
41,4,2,T1_SMS_8,28,5,42,127,2641258764
41,4,2,T1_SMS_8,29,1,48,34,2641295772
41,4,2,T1_SMS_8,30,1,48,73,2642022464
41,4,2,T1_SMS_8,31,5,42,127,2642058572
41,4,2,T1_SMS_8,32,1,48,43,2642069452
41,4,2,T1_SMS_8,33,1,48,74,2642807892
41,4,2,T1_SMS_8,34,5,42,127,2642859480
41,4,2,T1_SMS_8,35,1,48,77,2643587452
41,4,2,T1_SMS_8,36,1,48,52,2643618468
41,4,2,T1_SMS_8,37,5,42,127,2643659044
41,4,2,T1_SMS_8,38,1,48,75,2644387760
41,4,2,T1_SMS_8,39,1,48,48,2644425212
41,4,2,T1_SMS_8,40,5,42,127,2644458760
41,4,2,T1_SMS_8,41,1,48,72,2645216872
41,4,2,T1_SMS_8,42,5,42,127,2645258568
41,4,2,T1_SMS_8,43,1,48,45,2645271168
41,4,2,T1_SMS_8,44,1,48,74,2646017628
41,4,2,T1_SMS_8,45,1,48,48,2646060504
41,4,2,T1_SMS_8,46,5,42,127,2646061692
41,4,2,T1_SMS_8,47,1,48,69,2646816436
41,4,2,T1_SMS_8,48,1,48,45,2646855384
41,4,2,T1_SMS_8,49,5,42,127,2646859532
41,4,2,T1_SMS_8,50,5,42,127,2647658752
41,4,2,T1_SMS_8,51,1,48,69,2647659720
41,4,2,T1_SMS_8,52,1,48,43,2647708548
41,4,2,T1_SMS_8,53,1,48,64,2648430752
41,4,2,T1_SMS_8,54,5,42,127,2648458560
41,4,2,T1_SMS_8,55,5,42,127,2649259272
41,4,2,T1_SMS_8,56,1,48,71,2649263288
41,4,2,T1_SMS_8,57,1,48,49,2649298496
41,4,2,T1_SMS_8,58,1,48,75,2650054080
41,4,2,T1_SMS_8,59,5,42,127,2650059200
41,4,2,T1_SMS_8,60,1,48,51,2650089904
41,4,2,T1_SMS_8,61,1,48,76,2650856332
41,4,2,T1_SMS_8,62,5,42,127,2650858840
41,4,2,T1_SMS_8,63,1,48,53,2650893128
41,4,2,T1_SMS_8,64,1,48,77,2651635620
41,4,2,T1_SMS_8,65,5,42,127,2651658548
41,4,2,T1_SMS_8,66,1,48,49,2651679080
41,4,2,T1_SMS_8,67,1,48,83,2652412672
41,4,2,T1_SMS_8,68,1,48,53,2652444140
41,4,2,T1_SMS_8,69,5,42,127,2652459360
41,4,2,T1_SMS_8,70,1,48,78,2653200264
41,4,2,T1_SMS_8,71,5,42,127,2653259240
41,4,2,T1_SMS_8,72,1,48,73,2653988852
41,4,2,T1_SMS_8,73,5,42,127,2654058976
41,4,2,T1_SMS_8,74,1,48,74,2654799888
41,4,2,T1_SMS_8,75,5,42,127,2654858660
41,4,2,T1_SMS_8,76,1,48,75,2655618864
41,4,2,T1_SMS_8,77,5,42,127,2655659440
41,4,2,T1_SMS_8,78,1,48,67,2656412464
41,4,2,T1_SMS_8,79,5,42,127,2656459176
41,4,2,T1_SMS_8,80,1,48,69,2657217592
41,4,2,T1_SMS_8,81,5,42,127,2657259060
41,4,2,T1_SMS_8,82,1,48,62,2658046860
41,4,2,T1_SMS_8,83,5,42,127,2658058644
41,4,2,T1_SMS_8,84,1,48,67,2658856024
41,4,2,T1_SMS_8,85,5,42,127,2658859276
41,4,2,T1_SMS_8,86,5,42,127,2659659012
41,4,2,T1_SMS_8,87,1,48,65,2659674772
41,4,2,T1_SMS_8,88,5,42,127,2660459044
41,4,2,T1_SMS_8,89,1,48,67,2660466804
41,4,2,T1_SMS_8,90,1,48,75,2661241484
41,4,2,T1_SMS_8,91,5,42,127,2661258572
41,4,2,T1_SMS_8,92,1,48,62,2662053852
41,4,2,T1_SMS_8,93,5,42,127,2662059280
41,4,2,T1_SMS_8,94,1,48,70,2662829656
41,4,2,T1_SMS_8,95,5,42,127,2662859012
41,4,2,T1_SMS_8,96,1,48,64,2663624596
41,4,2,T1_SMS_8,97,5,42,127,2663658744
41,4,2,T1_SMS_8,98,1,48,69,2664413040
41,4,2,T1_SMS_8,99,5,42,127,2664458628
41,4,2,T1_SMS_8,100,1,48,74,2665217044
41,4,2,T1_SMS_8,101,1,48,37,2665260292
41,4,2,T1_SMS_8,102,5,42,127,2665261700
41,4,2,T1_SMS_8,103,1,48,71,2666036872
41,4,2,T1_SMS_8,104,5,42,127,2666059044
41,4,2,T1_SMS_8,105,1,48,67,2666843032
41,4,2,T1_SMS_8,106,5,42,127,2666858852
41,4,2,T1_SMS_8,107,1,48,67,2667636864
41,4,2,T1_SMS_8,108,5,42,127,2667658760
41,4,2,T1_SMS_8,109,5,42,127,2668459620
41,4,2,T1_SMS_8,110,1,48,68,2668475456
41,4,2,T1_SMS_8,111,1,48,70,2669235452
41,4,2,T1_SMS_8,112,5,42,127,2669259048
41,4,2,T1_SMS_8,113,1,48,65,2670046708
41,4,2,T1_SMS_8,114,5,42,127,2670058780
41,4,2,T1_SMS_8,115,1,48,32,2670110576
41,4,2,T1_SMS_8,116,1,48,65,2670851052
41,4,2,T1_SMS_8,117,5,42,127,2670858644
41,4,2,T1_SMS_8,118,1,48,64,2671647272
41,4,2,T1_SMS_8,119,5,42,127,2671659424
41,4,2,T1_SMS_8,120,5,42,127,2672459236
41,4,2,T1_SMS_8,121,1,48,67,2672494440
41,4,2,T1_SMS_8,122,1,48,63,2673245320
41,4,2,T1_SMS_8,123,5,42,127,2673258888
41,4,2,T1_SMS_8,124,5,42,127,2674058656
41,4,2,T1_SMS_8,125,1,48,61,2674083988
41,4,2,T1_SMS_8,126,5,42,127,2674859364
41,4,2,T1_SMS_8,127,1,48,73,2674874452
41,4,2,T1_SMS_8,128,1,48,66,2675642452
41,4,2,T1_SMS_8,129,5,42,127,2675659016
41,4,2,T1_SMS_8,130,1,48,64,2676421764
41,4,2,T1_SMS_8,131,5,42,127,2676458824
41,4,2,T1_SMS_8,132,1,48,68,2677206388
41,4,2,T1_SMS_8,133,5,42,127,2677258632
41,4,2,T1_SMS_8,134,1,48,76,2678046136
41,4,2,T1_SMS_8,135,5,42,127,2678059336
41,4,2,T1_SMS_8,136,1,48,42,2678088996
41,4,2,T1_SMS_8,137,1,48,67,2678848916
41,4,2,T1_SMS_8,138,5,42,127,2678858972
41,4,2,T1_SMS_8,139,1,48,37,2678900148
41,4,2,T1_SMS_8,140,1,48,63,2679622972
41,4,2,T1_SMS_8,141,5,42,127,2679658756
41,4,2,T1_SMS_8,142,1,48,38,2679670760
41,4,2,T1_SMS_8,143,1,48,62,2680419444
41,4,2,T1_SMS_8,144,5,42,127,2680458544
41,4,2,T1_SMS_8,145,1,48,66,2681233856
41,4,2,T1_SMS_8,146,5,42,127,2681259324
41,4,2,T1_SMS_8,147,1,48,38,2681272296
41,4,2,T1_SMS_8,148,1,48,68,2682051224
41,4,2,T1_SMS_8,149,5,42,127,2682059112
41,4,2,T1_SMS_8,150,1,48,71,2682832108
41,4,2,T1_SMS_8,151,5,42,127,2682858996
41,4,2,T1_SMS_8,152,1,48,64,2683644108
41,4,2,T1_SMS_8,153,5,42,127,2683658580
41,4,2,T1_SMS_8,154,1,48,21,2683730648
41,4,2,T1_SMS_8,155,1,48,67,2684429984
41,4,2,T1_SMS_8,156,5,42,127,2684459264
41,4,2,T1_SMS_8,157,5,42,127,2685259080
41,4,2,T1_SMS_8,158,1,48,65,2685263840
41,4,2,T1_SMS_8,159,5,42,127,2686059108
41,4,2,T1_SMS_8,160,1,48,74,2686099056
41,4,2,T1_SMS_8,161,1,48,29,2686153936
41,4,2,T1_SMS_8,162,5,42,127,2686858476
41,4,2,T1_SMS_8,163,1,48,70,2686877080
41,4,2,T1_SMS_8,164,5,42,127,2687659332
41,4,2,T1_SMS_8,165,1,48,70,2687679804
41,4,2,T1_SMS_8,166,5,42,127,2688458992
41,4,2,T1_SMS_8,167,1,48,62,2688469512
41,4,2,T1_SMS_8,168,1,48,40,2688515344
41,4,2,T1_SMS_8,169,1,48,59,2689180048
41,4,2,T1_SMS_8,170,1,48,40,2689223184
41,4,2,T1_SMS_8,171,5,42,127,2689259196
41,4,2,T1_SMS_8,172,1,48,64,2690046772
41,4,2,T1_SMS_8,173,5,42,127,2690058556
41,4,2,T1_SMS_8,174,1,48,73,2690840004
41,4,2,T1_SMS_8,175,5,42,127,2690859336
41,4,2,T1_SMS_8,176,1,48,73,2691620288
41,4,2,T1_SMS_8,177,5,42,127,2691659068
41,4,2,T1_SMS_8,178,1,48,71,2692437304
41,4,2,T1_SMS_8,179,5,42,127,2692458952
41,4,2,T1_SMS_8,180,1,48,38,2692487960
41,4,2,T1_SMS_8,181,5,42,127,2693258772
41,4,2,T1_SMS_8,182,1,48,65,2693268700
41,4,2,T1_SMS_8,183,1,48,45,2693307120
41,4,2,T1_SMS_8,184,5,42,127,2694059232
41,4,2,T1_SMS_8,185,1,48,70,2694093016
41,4,2,T1_SMS_8,186,1,48,51,2694127776
41,4,2,T1_SMS_8,187,1,48,66,2694853288
41,4,2,T1_SMS_8,188,5,42,127,2694859232
41,4,2,T1_SMS_8,189,5,42,127,2695658976
41,4,2,T1_SMS_8,190,1,48,74,2695662016
41,4,2,T1_SMS_8,191,1,48,81,2696424332
41,4,2,T1_SMS_8,192,5,42,127,2696458776
41,4,2,T1_SMS_8,193,1,48,66,2697236404
41,4,2,T1_SMS_8,194,5,42,127,2697259332
41,4,2,T1_SMS_8,195,1,48,78,2698027092
41,4,2,T1_SMS_8,196,5,42,127,2698058992
41,4,2,T1_SMS_8,197,1,48,67,2698795784
41,4,2,T1_SMS_8,198,5,42,127,2698858876
41,4,2,T1_SMS_8,199,1,48,66,2699640720
41,4,2,T1_SMS_8,200,5,42,127,2699658780
41,4,2,T1_SMS_8,201,1,48,66,2700451820
41,4,2,T1_SMS_8,202,5,42,127,2700459488
41,4,2,T1_SMS_8,203,1,48,79,2701251180
41,4,2,T1_SMS_8,204,5,42,127,2701259292
41,4,2,T1_SMS_8,205,1,48,61,2702055100
41,4,2,T1_SMS_8,206,5,42,127,2702058876
41,4,2,T1_SMS_8,207,1,48,78,2702837936
41,4,2,T1_SMS_8,208,5,42,127,2702858536
41,4,2,T1_SMS_8,209,1,48,57,2703638640
41,4,2,T1_SMS_8,210,5,42,127,2703659464
41,4,2,T1_SMS_8,211,1,48,63,2704453780
41,4,2,T1_SMS_8,212,5,42,127,2704459048
41,4,2,T1_SMS_8,213,1,48,67,2705252764
41,4,2,T1_SMS_8,214,5,42,127,2705258784
41,4,2,T1_SMS_8,215,1,48,29,2705311804
41,4,2,T1_SMS_8,216,5,42,127,2706058524
41,4,2,T1_SMS_8,217,1,48,58,2706072864
41,4,2,T1_SMS_8,218,1,48,70,2706820816
41,4,2,T1_SMS_8,219,5,42,127,2706859296
41,4,2,T1_SMS_8,220,1,48,36,2706867488
41,4,2,T1_SMS_8,221,1,48,58,2707597040
41,4,2,T1_SMS_8,222,5,42,127,2707659456
41,4,2,T1_SMS_8,223,1,48,67,2708439412
41,4,2,T1_SMS_8,224,5,42,127,2708458892
41,4,2,T1_SMS_8,225,1,48,62,2709243036
41,4,2,T1_SMS_8,226,5,42,127,2709258556
41,4,2,T1_SMS_8,227,1,48,56,2710049276
41,4,2,T1_SMS_8,228,5,42,127,2710059408
41,4,2,T1_SMS_8,229,1,48,65,2710835096
41,4,2,T1_SMS_8,230,5,42,127,2710859144
41,4,2,T1_SMS_8,231,5,42,127,2711658880
41,4,2,T1_SMS_8,232,1,48,56,2711663872
41,4,2,T1_SMS_8,233,5,42,127,2712458564
41,4,2,T1_SMS_8,234,1,48,62,2712486288
41,4,2,T1_SMS_8,235,5,42,127,2713259344
41,4,2,T1_SMS_8,236,1,48,63,2713277724
41,4,2,T1_SMS_8,237,1,48,60,2714056564
41,4,2,T1_SMS_8,238,5,42,127,2714059220
41,4,2,T1_SMS_8,239,5,42,127,2714858812
41,4,2,T1_SMS_8,240,1,48,38,2714871356
41,4,2,T1_SMS_8,241,1,48,56,2715644368
41,4,2,T1_SMS_8,242,5,42,127,2715658540
41,4,2,T1_SMS_8,243,1,48,62,2716448216
41,4,2,T1_SMS_8,244,5,42,127,2716459320
41,4,2,T1_SMS_8,245,1,48,65,2717250492
41,4,2,T1_SMS_8,246,5,42,127,2717259204
41,4,2,T1_SMS_8,247,1,48,65,2718021804
41,4,2,T1_SMS_8,248,5,42,127,2718059012
41,4,2,T1_SMS_8,249,1,48,65,2718837948
41,4,2,T1_SMS_8,250,5,42,127,2718858548
41,4,2,T1_SMS_8,251,1,48,60,2719631840
41,4,2,T1_SMS_8,252,5,42,127,2719659324
41,4,2,T1_SMS_8,253,1,48,60,2720416684
41,4,2,T1_SMS_8,254,5,42,127,2720459060
41,4,2,T1_SMS_8,255,1,48,63,2721223904
41,4,2,T1_SMS_8,256,5,42,127,2721258944
41,4,2,T1_SMS_8,257,1,48,62,2722020344
41,4,2,T1_SMS_8,258,5,42,127,2722058528
41,4,2,T1_SMS_8,259,1,48,63,2722834212
41,4,2,T1_SMS_8,260,5,42,127,2722859232
41,4,2,T1_SMS_8,261,1,48,56,2723640128
41,4,2,T1_SMS_8,262,5,42,127,2723659164
41,4,2,T1_SMS_8,263,1,48,61,2724457700
41,4,2,T1_SMS_8,264,5,42,127,2724459420
41,4,2,T1_SMS_8,265,5,42,127,2725258812
41,4,2,T1_SMS_8,266,1,48,58,2725288116
41,4,2,T1_SMS_8,267,5,42,127,2726059520
41,4,2,T1_SMS_8,268,1,48,64,2726082760
41,4,2,T1_SMS_8,269,1,48,45,2726116844
41,4,2,T1_SMS_8,270,5,42,127,2726859156
41,4,2,T1_SMS_8,271,1,48,72,2726887180
41,4,2,T1_SMS_8,272,1,48,61,2727621824
41,4,2,T1_SMS_8,273,5,42,127,2727658884
41,4,2,T1_SMS_8,274,1,48,57,2728419016
41,4,2,T1_SMS_8,275,1,48,39,2728456860
41,4,2,T1_SMS_8,276,5,42,127,2728458816
41,4,2,T1_SMS_8,0,9999,9999,9999,2633257032
41,4,2,T1_SMS_8,1,9999,9999,9999,2634056820
41,4,2,T1_SMS_8,2,9999,9999,9999,2634856568
41,4,2,T1_SMS_8,3,9999,9999,9999,2635656312
41,4,2,T1_SMS_8,4,9999,9999,9999,2636457064
41,4,2,T1_SMS_8,5,9999,9999,9999,2637256776
41,4,2,T1_SMS_8,6,9999,9999,9999,2638056560
41,4,2,T1_SMS_8,7,9999,9999,9999,2638856272
41,4,2,T1_SMS_8,8,9999,9999,9999,2639657032
41,4,2,T1_SMS_8,9,9999,9999,9999,2640456816
41,4,2,T1_SMS_8,10,9999,9999,9999,2641256552
41,4,2,T1_SMS_8,11,9999,9999,9999,2642056284
41,4,2,T1_SMS_8,12,9999,9999,9999,2642857044
41,4,2,T1_SMS_8,13,9999,9999,9999,2643656756
41,4,2,T1_SMS_8,14,9999,9999,9999,2644456544
41,4,2,T1_SMS_8,15,9999,9999,9999,2645256280
41,4,2,T1_SMS_8,16,9999,9999,9999,2646057036
41,4,2,T1_SMS_8,17,9999,9999,9999,2646856800
41,4,2,T1_SMS_8,18,9999,9999,9999,2647656540
41,4,2,T1_SMS_8,19,9999,9999,9999,2648456272
41,4,2,T1_SMS_8,20,9999,9999,9999,2649257060
41,4,2,T1_SMS_8,21,9999,9999,9999,2650056764
41,4,2,T1_SMS_8,22,9999,9999,9999,2650856552
41,4,2,T1_SMS_8,23,9999,9999,9999,2651656260
41,4,2,T1_SMS_8,24,9999,9999,9999,2652457072
41,4,2,T1_SMS_8,25,9999,9999,9999,2653256804
41,4,2,T1_SMS_8,26,9999,9999,9999,2654056536
41,4,2,T1_SMS_8,27,9999,9999,9999,2654856296
41,4,2,T1_SMS_8,28,9999,9999,9999,2655657080
41,4,2,T1_SMS_8,29,9999,9999,9999,2656456812
41,4,2,T1_SMS_8,30,9999,9999,9999,2657256548
41,4,2,T1_SMS_8,31,9999,9999,9999,2658056280
41,4,2,T1_SMS_8,32,9999,9999,9999,2658857060
41,4,2,T1_SMS_8,33,9999,9999,9999,2659656800
41,4,2,T1_SMS_8,34,9999,9999,9999,2660456532
41,4,2,T1_SMS_8,35,9999,9999,9999,2661256284
41,4,2,T1_SMS_8,36,9999,9999,9999,2662057064
41,4,2,T1_SMS_8,37,9999,9999,9999,2662856800
41,4,2,T1_SMS_8,38,9999,9999,9999,2663656532
41,4,2,T1_SMS_8,39,9999,9999,9999,2664456264
41,4,2,T1_SMS_8,40,9999,9999,9999,2665257044
41,4,2,T1_SMS_8,41,9999,9999,9999,2666056756
41,4,2,T1_SMS_8,42,9999,9999,9999,2666856568
41,4,2,T1_SMS_8,43,9999,9999,9999,2667656248
41,4,2,T1_SMS_8,44,9999,9999,9999,2668457036
41,4,2,T1_SMS_8,45,9999,9999,9999,2669256760
41,4,2,T1_SMS_8,46,9999,9999,9999,2670056568
41,4,2,T1_SMS_8,47,9999,9999,9999,2670856280
41,4,2,T1_SMS_8,48,9999,9999,9999,2671657060
41,4,2,T1_SMS_8,49,9999,9999,9999,2672456800
41,4,2,T1_SMS_8,50,9999,9999,9999,2673256528
41,4,2,T1_SMS_8,51,9999,9999,9999,2674056292
41,4,2,T1_SMS_8,52,9999,9999,9999,2674857076
41,4,2,T1_SMS_8,53,9999,9999,9999,2675656800
41,4,2,T1_SMS_8,54,9999,9999,9999,2676456536
41,4,2,T1_SMS_8,55,9999,9999,9999,2677256268
41,4,2,T1_SMS_8,56,9999,9999,9999,2678057048
41,4,2,T1_SMS_8,57,9999,9999,9999,2678856760
41,4,2,T1_SMS_8,58,9999,9999,9999,2679656544
41,4,2,T1_SMS_8,59,9999,9999,9999,2680456256
41,4,2,T1_SMS_8,60,9999,9999,9999,2681257036
41,4,2,T1_SMS_8,61,9999,9999,9999,2682056824
41,4,2,T1_SMS_8,62,9999,9999,9999,2682856556
41,4,2,T1_SMS_8,63,9999,9999,9999,2683656292
41,4,2,T1_SMS_8,64,9999,9999,9999,2684457052
41,4,2,T1_SMS_8,65,9999,9999,9999,2685256792
41,4,2,T1_SMS_8,66,9999,9999,9999,2686056524
41,4,2,T1_SMS_8,67,9999,9999,9999,2686856264
41,4,2,T1_SMS_8,68,9999,9999,9999,2687657040
41,4,2,T1_SMS_8,69,9999,9999,9999,2688456776
41,4,2,T1_SMS_8,70,9999,9999,9999,2689256536
41,4,2,T1_SMS_8,71,9999,9999,9999,2690056268
41,4,2,T1_SMS_8,72,9999,9999,9999,2690857048
41,4,2,T1_SMS_8,73,9999,9999,9999,2691656780
41,4,2,T1_SMS_8,74,9999,9999,9999,2692456516
41,4,2,T1_SMS_8,75,9999,9999,9999,2693256260
41,4,2,T1_SMS_8,76,9999,9999,9999,2694057016
41,4,2,T1_SMS_8,77,9999,9999,9999,2694856796
41,4,2,T1_SMS_8,78,9999,9999,9999,2695656536
41,4,2,T1_SMS_8,79,9999,9999,9999,2696456264
41,4,2,T1_SMS_8,80,9999,9999,9999,2697257044
41,4,2,T1_SMS_8,81,9999,9999,9999,2698056780
41,4,2,T1_SMS_8,82,9999,9999,9999,2698856512
41,4,2,T1_SMS_8,83,9999,9999,9999,2699656268
41,4,2,T1_SMS_8,84,9999,9999,9999,2700457048
41,4,2,T1_SMS_8,85,9999,9999,9999,2701256784
41,4,2,T1_SMS_8,86,9999,9999,9999,2702056516
41,4,2,T1_SMS_8,87,9999,9999,9999,2702856248
41,4,2,T1_SMS_8,88,9999,9999,9999,2703657028
41,4,2,T1_SMS_8,89,9999,9999,9999,2704456760
41,4,2,T1_SMS_8,90,9999,9999,9999,2705256568
41,4,2,T1_SMS_8,91,9999,9999,9999,2706056312
41,4,2,T1_SMS_8,92,9999,9999,9999,2706857012
41,4,2,T1_SMS_8,93,9999,9999,9999,2707656796
41,4,2,T1_SMS_8,94,9999,9999,9999,2708456532
41,4,2,T1_SMS_8,95,9999,9999,9999,2709256268
41,4,2,T1_SMS_8,96,9999,9999,9999,2710057048
41,4,2,T1_SMS_8,97,9999,9999,9999,2710856780
41,4,2,T1_SMS_8,98,9999,9999,9999,2711656520
41,4,2,T1_SMS_8,99,9999,9999,9999,2712456276
41,4,2,T1_SMS_8,100,9999,9999,9999,2713257056
41,4,2,T1_SMS_8,101,9999,9999,9999,2714056784
41,4,2,T1_SMS_8,102,9999,9999,9999,2714856524
41,4,2,T1_SMS_8,103,9999,9999,9999,2715656252
41,4,2,T1_SMS_8,104,9999,9999,9999,2716457032
41,4,2,T1_SMS_8,105,9999,9999,9999,2717256768
41,4,2,T1_SMS_8,106,9999,9999,9999,2718056500
41,4,2,T1_SMS_8,107,9999,9999,9999,2718856260
41,4,2,T1_SMS_8,108,9999,9999,9999,2719657040
41,4,2,T1_SMS_8,109,9999,9999,9999,2720456772
41,4,2,T1_SMS_8,110,9999,9999,9999,2721256508
41,4,2,T1_SMS_8,111,9999,9999,9999,2722056312
41,4,2,T1_SMS_8,112,9999,9999,9999,2722857020
41,4,2,T1_SMS_8,113,9999,9999,9999,2723656800
41,4,2,T1_SMS_8,114,9999,9999,9999,2724456544
41,4,2,T1_SMS_8,115,9999,9999,9999,2725256304
41,4,2,T1_SMS_8,116,9999,9999,9999,2726057080
41,4,2,T1_SMS_8,117,9999,9999,9999,2726856792
41,4,2,T1_SMS_8,118,9999,9999,9999,2727656520
41,4,2,T1_SMS_8,119,9999,9999,9999,2728456256
41,5,10,Ticks_ISO_T2_5,0,5,42,127,2740788532
41,5,10,Ticks_ISO_T2_5,1,5,42,127,2741289444
41,5,10,Ticks_ISO_T2_5,2,1,48,54,2741762640
41,5,10,Ticks_ISO_T2_5,3,5,42,127,2741789004
41,5,10,Ticks_ISO_T2_5,4,5,42,127,2742288632
41,5,10,Ticks_ISO_T2_5,5,1,48,66,2742303340
41,5,10,Ticks_ISO_T2_5,6,5,42,127,2742788324
41,5,10,Ticks_ISO_T2_5,7,1,48,81,2742796756
41,5,10,Ticks_ISO_T2_5,8,5,42,127,2743289512
41,5,10,Ticks_ISO_T2_5,9,1,48,79,2743301312
41,5,10,Ticks_ISO_T2_5,10,5,42,127,2743788984
41,5,10,Ticks_ISO_T2_5,11,1,48,76,2743806912
41,5,10,Ticks_ISO_T2_5,12,5,42,127,2744288608
41,5,10,Ticks_ISO_T2_5,13,1,48,73,2744309904
41,5,10,Ticks_ISO_T2_5,14,5,42,127,2744789496
41,5,10,Ticks_ISO_T2_5,15,1,48,81,2744822532
41,5,10,Ticks_ISO_T2_5,16,1,48,80,2745288444
41,5,10,Ticks_ISO_T2_5,17,5,42,127,2745290156
41,5,10,Ticks_ISO_T2_5,18,5,42,127,2745788740
41,5,10,Ticks_ISO_T2_5,19,1,48,73,2745794544
41,5,10,Ticks_ISO_T2_5,20,5,42,127,2746288360
41,5,10,Ticks_ISO_T2_5,21,1,48,79,2746309576
41,5,10,Ticks_ISO_T2_5,22,1,48,43,2746343888
41,5,10,Ticks_ISO_T2_5,23,5,42,127,2746789376
41,5,10,Ticks_ISO_T2_5,24,1,48,76,2746805132
41,5,10,Ticks_ISO_T2_5,25,1,48,42,2746840420
41,5,10,Ticks_ISO_T2_5,26,5,42,127,2747288976
41,5,10,Ticks_ISO_T2_5,27,1,48,83,2747304732
41,5,10,Ticks_ISO_T2_5,28,5,42,127,2747788596
41,5,10,Ticks_ISO_T2_5,29,1,48,75,2747802408
41,5,10,Ticks_ISO_T2_5,30,1,48,50,2747829836
41,5,10,Ticks_ISO_T2_5,31,5,42,127,2748289536
41,5,10,Ticks_ISO_T2_5,32,1,48,78,2748318536
41,5,10,Ticks_ISO_T2_5,33,5,42,127,2748789084
41,5,10,Ticks_ISO_T2_5,34,1,48,78,2748829376
41,5,10,Ticks_ISO_T2_5,35,1,48,45,2748863536
41,5,10,Ticks_ISO_T2_5,36,5,42,127,2749289180
41,5,10,Ticks_ISO_T2_5,37,1,48,75,2749300476
41,5,10,Ticks_ISO_T2_5,38,1,48,47,2749328728
41,5,10,Ticks_ISO_T2_5,39,5,42,127,2749788404
41,5,10,Ticks_ISO_T2_5,40,1,48,78,2749808424
41,5,10,Ticks_ISO_T2_5,41,1,48,45,2749843660
41,5,10,Ticks_ISO_T2_5,42,5,42,127,2750289200
41,5,10,Ticks_ISO_T2_5,43,1,48,74,2750318272
41,5,10,Ticks_ISO_T2_5,44,1,48,46,2750349164
41,5,10,Ticks_ISO_T2_5,45,5,42,127,2750788944
41,5,10,Ticks_ISO_T2_5,46,1,48,69,2750812632
41,5,10,Ticks_ISO_T2_5,47,1,48,44,2750847568
41,5,10,Ticks_ISO_T2_5,48,5,42,127,2751288620
41,5,10,Ticks_ISO_T2_5,49,1,48,71,2751323300
41,5,10,Ticks_ISO_T2_5,50,5,42,127,2751789436
41,5,10,Ticks_ISO_T2_5,51,1,48,64,2751823816
41,5,10,Ticks_ISO_T2_5,52,5,42,127,2752289128
41,5,10,Ticks_ISO_T2_5,53,1,48,67,2752306004
41,5,10,Ticks_ISO_T2_5,54,5,42,127,2752789120
41,5,10,Ticks_ISO_T2_5,55,1,48,75,2752805104
41,5,10,Ticks_ISO_T2_5,56,5,42,127,2753288444
41,5,10,Ticks_ISO_T2_5,57,1,48,70,2753317968
41,5,10,Ticks_ISO_T2_5,58,1,48,42,2753355488
41,5,10,Ticks_ISO_T2_5,59,5,42,127,2753789384
41,5,10,Ticks_ISO_T2_5,60,1,48,70,2753814792
41,5,10,Ticks_ISO_T2_5,61,5,42,127,2754288928
41,5,10,Ticks_ISO_T2_5,62,1,48,63,2754326524
41,5,10,Ticks_ISO_T2_5,63,5,42,127,2754788772
41,5,10,Ticks_ISO_T2_5,64,1,48,65,2754819416
41,5,10,Ticks_ISO_T2_5,65,5,42,127,2755288316
41,5,10,Ticks_ISO_T2_5,66,1,48,64,2755336468
41,5,10,Ticks_ISO_T2_5,67,5,42,127,2755789060
41,5,10,Ticks_ISO_T2_5,68,1,48,55,2755844612
41,5,10,Ticks_ISO_T2_5,69,5,42,127,2756288980
41,5,10,Ticks_ISO_T2_5,70,1,48,62,2756308552
41,5,10,Ticks_ISO_T2_5,71,5,42,127,2756788748
41,5,10,Ticks_ISO_T2_5,72,1,48,67,2756823580
41,5,10,Ticks_ISO_T2_5,73,1,48,47,2756853404
41,5,10,Ticks_ISO_T2_5,74,5,42,127,2757289320
41,5,10,Ticks_ISO_T2_5,75,1,48,67,2757300668
41,5,10,Ticks_ISO_T2_5,76,5,42,127,2757789164
41,5,10,Ticks_ISO_T2_5,77,1,48,69,2757820780
41,5,10,Ticks_ISO_T2_5,78,5,42,127,2758288932
41,5,10,Ticks_ISO_T2_5,79,1,48,63,2758304764
41,5,10,Ticks_ISO_T2_5,80,5,42,127,2758788552
41,5,10,Ticks_ISO_T2_5,81,1,48,70,2758826152
41,5,10,Ticks_ISO_T2_5,82,5,42,127,2759289220
41,5,10,Ticks_ISO_T2_5,83,1,48,69,2759326824
41,5,10,Ticks_ISO_T2_5,84,5,42,127,2759788816
41,5,10,Ticks_ISO_T2_5,85,1,48,69,2759812076
41,5,10,Ticks_ISO_T2_5,86,5,42,127,2760288808
41,5,10,Ticks_ISO_T2_5,87,1,48,68,2760302396
41,5,10,Ticks_ISO_T2_5,88,5,42,127,2760789404
41,5,10,Ticks_ISO_T2_5,89,1,48,71,2760826056
41,5,10,Ticks_ISO_T2_5,90,5,42,127,2761288948
41,5,10,Ticks_ISO_T2_5,91,1,48,65,2761320788
41,5,10,Ticks_ISO_T2_5,92,5,42,127,2761788716
41,5,10,Ticks_ISO_T2_5,93,1,48,68,2761835592
41,5,10,Ticks_ISO_T2_5,94,5,42,127,2762288708
41,5,10,Ticks_ISO_T2_5,95,1,48,70,2762307912
41,5,10,Ticks_ISO_T2_5,96,1,48,46,2762338708
41,5,10,Ticks_ISO_T2_5,97,5,42,127,2762789352
41,5,10,Ticks_ISO_T2_5,98,1,48,70,2762815132
41,5,10,Ticks_ISO_T2_5,99,5,42,127,2763288824
41,5,10,Ticks_ISO_T2_5,100,1,48,69,2763306452
41,5,10,Ticks_ISO_T2_5,101,5,42,127,2763788892
41,5,10,Ticks_ISO_T2_5,102,1,48,67,2763810488
41,5,10,Ticks_ISO_T2_5,103,5,42,127,2764289560
41,5,10,Ticks_ISO_T2_5,104,1,48,65,2764305620
41,5,10,Ticks_ISO_T2_5,105,5,42,127,2764789104
41,5,10,Ticks_ISO_T2_5,106,1,48,70,2764797832
41,5,10,Ticks_ISO_T2_5,107,5,42,127,2765288948
41,5,10,Ticks_ISO_T2_5,108,1,48,70,2765300148
41,5,10,Ticks_ISO_T2_5,109,1,48,71,2765780152
41,5,10,Ticks_ISO_T2_5,110,5,42,127,2765788640
41,5,10,Ticks_ISO_T2_5,111,5,42,127,2766289388
41,5,10,Ticks_ISO_T2_5,112,1,48,62,2766302456
41,5,10,Ticks_ISO_T2_5,113,5,42,127,2766789008
41,5,10,Ticks_ISO_T2_5,114,1,48,70,2766798484
41,5,10,Ticks_ISO_T2_5,115,5,42,127,2767288628
41,5,10,Ticks_ISO_T2_5,116,1,48,68,2767314260
41,5,10,Ticks_ISO_T2_5,117,5,42,127,2767789520
41,5,10,Ticks_ISO_T2_5,118,1,48,67,2767832052
41,5,10,Ticks_ISO_T2_5,119,5,42,127,2768289068
41,5,10,Ticks_ISO_T2_5,120,1,48,68,2768304376
41,5,10,Ticks_ISO_T2_5,121,5,42,127,2768788912
41,5,10,Ticks_ISO_T2_5,122,1,48,71,2768814540
41,5,10,Ticks_ISO_T2_5,123,5,42,127,2769288456
41,5,10,Ticks_ISO_T2_5,124,1,48,71,2769323808
41,5,10,Ticks_ISO_T2_5,125,5,42,127,2769789344
41,5,10,Ticks_ISO_T2_5,126,1,48,65,2769812660
41,5,10,Ticks_ISO_T2_5,127,5,42,127,2770289260
41,5,10,Ticks_ISO_T2_5,128,1,48,63,2770297316
41,5,10,Ticks_ISO_T2_5,129,5,42,127,2770788780
41,5,10,Ticks_ISO_T2_5,130,1,48,66,2770800872
41,5,10,Ticks_ISO_T2_5,131,5,42,127,2771288448
41,5,10,Ticks_ISO_T2_5,132,1,48,70,2771294104
41,5,10,Ticks_ISO_T2_5,133,1,48,67,2771775612
41,5,10,Ticks_ISO_T2_5,134,5,42,127,2771789332
41,5,10,Ticks_ISO_T2_5,135,5,42,127,2772288736
41,5,10,Ticks_ISO_T2_5,136,1,48,68,2772293872
41,5,10,Ticks_ISO_T2_5,137,5,42,127,2772788504
41,5,10,Ticks_ISO_T2_5,138,1,48,60,2772809644
41,5,10,Ticks_ISO_T2_5,139,5,42,127,2773289468
41,5,10,Ticks_ISO_T2_5,140,1,48,62,2773317420
41,5,10,Ticks_ISO_T2_5,141,5,42,127,2773789164
41,5,10,Ticks_ISO_T2_5,142,1,48,62,2773821456
41,5,10,Ticks_ISO_T2_5,143,1,48,72,2774288412
41,5,10,Ticks_ISO_T2_5,144,5,42,127,2774290120
41,5,10,Ticks_ISO_T2_5,145,5,42,127,2774788544
41,5,10,Ticks_ISO_T2_5,146,1,48,70,2774794880
41,5,10,Ticks_ISO_T2_5,147,1,48,69,2775287860
41,5,10,Ticks_ISO_T2_5,148,5,42,127,2775289652
41,5,10,Ticks_ISO_T2_5,149,5,42,127,2775788908
41,5,10,Ticks_ISO_T2_5,150,1,48,70,2775790024
41,5,10,Ticks_ISO_T2_5,151,5,42,127,2776288604
41,5,10,Ticks_ISO_T2_5,152,1,48,66,2776291424
41,5,10,Ticks_ISO_T2_5,153,1,48,70,2776789196
41,5,10,Ticks_ISO_T2_5,154,5,42,127,2776790684
41,5,10,Ticks_ISO_T2_5,155,5,42,127,2777289192
41,5,10,Ticks_ISO_T2_5,156,1,48,69,2777307720
41,5,10,Ticks_ISO_T2_5,157,1,48,44,2777339412
41,5,10,Ticks_ISO_T2_5,158,5,42,127,2777788640
41,5,10,Ticks_ISO_T2_5,159,1,48,65,2777805972
41,5,10,Ticks_ISO_T2_5,160,5,42,127,2778288560
41,5,10,Ticks_ISO_T2_5,161,1,48,69,2778304316
41,5,10,Ticks_ISO_T2_5,162,5,42,127,2778789376
41,5,10,Ticks_ISO_T2_5,163,1,48,71,2778806560
41,5,10,Ticks_ISO_T2_5,164,5,42,127,2779289072
41,5,10,Ticks_ISO_T2_5,165,1,48,73,2779293532
41,5,10,Ticks_ISO_T2_5,166,5,42,127,2779788544
41,5,10,Ticks_ISO_T2_5,167,1,48,64,2779827268
41,5,10,Ticks_ISO_T2_5,168,5,42,127,2780289360
41,5,10,Ticks_ISO_T2_5,169,1,48,62,2780299880
41,5,10,Ticks_ISO_T2_5,170,5,42,127,2780789056
41,5,10,Ticks_ISO_T2_5,171,1,48,64,2780804516
41,5,10,Ticks_ISO_T2_5,172,5,42,127,2781289024
41,5,10,Ticks_ISO_T2_5,173,1,48,62,2781289916
41,5,10,Ticks_ISO_T2_5,174,1,48,70,2781767512
41,5,10,Ticks_ISO_T2_5,175,5,42,127,2781788492
41,5,10,Ticks_ISO_T2_5,176,1,48,77,2782262496
41,5,10,Ticks_ISO_T2_5,177,1,48,50,2782289736
41,5,10,Ticks_ISO_T2_5,178,5,42,127,2782291080
41,5,10,Ticks_ISO_T2_5,179,1,48,68,2782781912
41,5,10,Ticks_ISO_T2_5,180,5,42,127,2782789128
41,5,10,Ticks_ISO_T2_5,181,1,48,71,2783266496
41,5,10,Ticks_ISO_T2_5,182,5,42,127,2783288676
41,5,10,Ticks_ISO_T2_5,183,5,42,127,2783789424
41,5,10,Ticks_ISO_T2_5,184,1,48,73,2783790312
41,5,10,Ticks_ISO_T2_5,185,1,48,50,2783816832
41,5,10,Ticks_ISO_T2_5,186,1,48,69,2784287812
41,5,10,Ticks_ISO_T2_5,187,5,42,127,2784289608
41,5,10,Ticks_ISO_T2_5,188,5,42,127,2784789012
41,5,10,Ticks_ISO_T2_5,189,1,48,65,2784795796
41,5,10,Ticks_ISO_T2_5,190,1,48,47,2784825092
41,5,10,Ticks_ISO_T2_5,191,5,42,127,2785288760
41,5,10,Ticks_ISO_T2_5,192,1,48,68,2785300932
41,5,10,Ticks_ISO_T2_5,193,5,42,127,2785789276
41,5,10,Ticks_ISO_T2_5,194,1,48,68,2785803540
41,5,10,Ticks_ISO_T2_5,195,1,48,69,2786286088
41,5,10,Ticks_ISO_T2_5,196,5,42,127,2786289116
41,5,10,Ticks_ISO_T2_5,197,1,48,47,2786314204
41,5,10,Ticks_ISO_T2_5,198,1,48,70,2786782844
41,5,10,Ticks_ISO_T2_5,199,5,42,127,2786788936
41,5,10,Ticks_ISO_T2_5,200,1,48,72,2787284484
41,5,10,Ticks_ISO_T2_5,201,5,42,127,2787288484
41,5,10,Ticks_ISO_T2_5,202,5,42,127,2787789232
41,5,10,Ticks_ISO_T2_5,203,1,48,71,2787794668
41,5,10,Ticks_ISO_T2_5,204,1,48,66,2788283728
41,5,10,Ticks_ISO_T2_5,205,5,42,127,2788288924
41,5,10,Ticks_ISO_T2_5,206,1,48,60,2788785740
41,5,10,Ticks_ISO_T2_5,207,5,42,127,2788788544
41,5,10,Ticks_ISO_T2_5,208,1,48,67,2789273244
41,5,10,Ticks_ISO_T2_5,209,5,42,127,2789289288
41,5,10,Ticks_ISO_T2_5,210,1,48,66,2789786940
41,5,10,Ticks_ISO_T2_5,211,5,42,127,2789788980
41,5,10,Ticks_ISO_T2_5,212,1,48,67,2790277944
41,5,10,Ticks_ISO_T2_5,213,5,42,127,2790288676
41,5,10,Ticks_ISO_T2_5,214,1,48,64,2790772696
41,5,10,Ticks_ISO_T2_5,215,5,42,127,2790788444
41,5,10,Ticks_ISO_T2_5,216,5,42,127,2791289120
41,5,10,Ticks_ISO_T2_5,217,1,48,68,2791295896
41,5,10,Ticks_ISO_T2_5,218,1,48,67,2791788864
41,5,10,Ticks_ISO_T2_5,219,5,42,127,2791790572
41,5,10,Ticks_ISO_T2_5,220,1,48,68,2792274600
41,5,10,Ticks_ISO_T2_5,221,5,42,127,2792288848
41,5,10,Ticks_ISO_T2_5,222,5,42,127,2792789300
41,5,10,Ticks_ISO_T2_5,223,1,48,64,2792797804
41,5,10,Ticks_ISO_T2_5,224,5,42,127,2793288996
41,5,10,Ticks_ISO_T2_5,225,1,48,61,2793315376
41,5,10,Ticks_ISO_T2_5,226,1,48,66,2793777652
41,5,10,Ticks_ISO_T2_5,227,5,42,127,2793788760
41,5,10,Ticks_ISO_T2_5,228,1,48,67,2794272936
41,5,10,Ticks_ISO_T2_5,229,5,42,127,2794288528
41,5,10,Ticks_ISO_T2_5,230,1,48,61,2794781452
41,5,10,Ticks_ISO_T2_5,231,5,42,127,2794789196
41,5,10,Ticks_ISO_T2_5,232,5,42,127,2795288896
41,5,10,Ticks_ISO_T2_5,233,1,48,64,2795289864
41,5,10,Ticks_ISO_T2_5,234,1,48,70,2795769104
41,5,10,Ticks_ISO_T2_5,235,5,42,127,2795788736
41,5,10,Ticks_ISO_T2_5,236,1,48,61,2796281140
41,5,10,Ticks_ISO_T2_5,237,5,42,127,2796289476
41,5,10,Ticks_ISO_T2_5,238,5,42,127,2796789028
41,5,10,Ticks_ISO_T2_5,239,1,48,65,2796810168
41,5,10,Ticks_ISO_T2_5,240,1,48,45,2796838572
41,5,10,Ticks_ISO_T2_5,241,1,48,68,2797285664
41,5,10,Ticks_ISO_T2_5,242,5,42,127,2797288840
41,5,10,Ticks_ISO_T2_5,243,5,42,127,2797788468
41,5,10,Ticks_ISO_T2_5,244,1,48,67,2797798392
41,5,10,Ticks_ISO_T2_5,245,1,48,63,2798288760
41,5,10,Ticks_ISO_T2_5,246,5,42,127,2798290472
41,5,10,Ticks_ISO_T2_5,247,1,48,45,2798316460
41,5,10,Ticks_ISO_T2_5,248,5,42,127,2798789104
41,5,10,Ticks_ISO_T2_5,249,1,48,65,2798791624
41,5,10,Ticks_ISO_T2_5,250,5,42,127,2799288576
41,5,10,Ticks_ISO_T2_5,251,1,48,65,2799289544
41,5,10,Ticks_ISO_T2_5,252,1,48,67,2799785832
41,5,10,Ticks_ISO_T2_5,253,5,42,127,2799789536
41,5,10,Ticks_ISO_T2_5,254,1,48,66,2800286352
41,5,10,Ticks_ISO_T2_5,255,5,42,127,2800289008
41,5,10,Ticks_ISO_T2_5,256,1,48,57,2800766228
41,5,10,Ticks_ISO_T2_5,257,5,42,127,2800788924
41,5,10,Ticks_ISO_T2_5,258,5,42,127,2801288552
41,5,10,Ticks_ISO_T2_5,259,1,48,62,2801289520
41,5,10,Ticks_ISO_T2_5,260,5,42,127,2801789296
41,5,10,Ticks_ISO_T2_5,261,1,48,63,2801801464
41,5,10,Ticks_ISO_T2_5,262,5,42,127,2802288988
41,5,10,Ticks_ISO_T2_5,263,1,48,59,2802304596
41,5,10,Ticks_ISO_T2_5,264,1,48,66,2802784200
41,5,10,Ticks_ISO_T2_5,265,5,42,127,2802788652
41,5,10,Ticks_ISO_T2_5,266,5,42,127,2803288504
41,5,10,Ticks_ISO_T2_5,267,1,48,67,2803302388
41,5,10,Ticks_ISO_T2_5,268,5,42,127,2803789468
41,5,10,Ticks_ISO_T2_5,269,1,48,68,2803806356
41,5,10,Ticks_ISO_T2_5,270,5,42,127,2804288864
41,5,10,Ticks_ISO_T2_5,271,1,48,69,2804290728
41,5,10,Ticks_ISO_T2_5,272,5,42,127,2804788560
41,5,10,Ticks_ISO_T2_5,273,1,48,65,2804795792
41,5,10,Ticks_ISO_T2_5,274,1,48,63,2805288776
41,5,10,Ticks_ISO_T2_5,275,5,42,127,2805290488
41,5,10,Ticks_ISO_T2_5,276,1,48,63,2805764344
41,5,10,Ticks_ISO_T2_5,0,9999,9999,9999,2740786248
41,5,10,Ticks_ISO_T2_5,1,9999,9999,9999,2741287008
41,5,10,Ticks_ISO_T2_5,2,9999,9999,9999,2741786720
41,5,10,Ticks_ISO_T2_5,3,9999,9999,9999,2742286420
41,5,10,Ticks_ISO_T2_5,4,9999,9999,9999,2742786112
41,5,10,Ticks_ISO_T2_5,5,9999,9999,9999,2743286856
41,5,10,Ticks_ISO_T2_5,6,9999,9999,9999,2743786548
41,5,10,Ticks_ISO_T2_5,7,9999,9999,9999,2744286320
41,5,10,Ticks_ISO_T2_5,8,9999,9999,9999,2744787060
41,5,10,Ticks_ISO_T2_5,9,9999,9999,9999,2745286756
41,5,10,Ticks_ISO_T2_5,10,9999,9999,9999,2745786452
41,5,10,Ticks_ISO_T2_5,11,9999,9999,9999,2746286148
41,5,10,Ticks_ISO_T2_5,12,9999,9999,9999,2746786940
41,5,10,Ticks_ISO_T2_5,13,9999,9999,9999,2747286612
41,5,10,Ticks_ISO_T2_5,14,9999,9999,9999,2747786308
41,5,10,Ticks_ISO_T2_5,15,9999,9999,9999,2748287100
41,5,10,Ticks_ISO_T2_5,16,9999,9999,9999,2748786796
41,5,10,Ticks_ISO_T2_5,17,9999,9999,9999,2749286520
41,5,10,Ticks_ISO_T2_5,18,9999,9999,9999,2749786192
41,5,10,Ticks_ISO_T2_5,19,9999,9999,9999,2750286912
41,5,10,Ticks_ISO_T2_5,20,9999,9999,9999,2750786656
41,5,10,Ticks_ISO_T2_5,21,9999,9999,9999,2751286332
41,5,10,Ticks_ISO_T2_5,22,9999,9999,9999,2751787072
41,5,10,Ticks_ISO_T2_5,23,9999,9999,9999,2752286844
41,5,10,Ticks_ISO_T2_5,24,9999,9999,9999,2752786536
41,5,10,Ticks_ISO_T2_5,25,9999,9999,9999,2753286232
41,5,10,Ticks_ISO_T2_5,26,9999,9999,9999,2753786948
41,5,10,Ticks_ISO_T2_5,27,9999,9999,9999,2754286644
41,5,10,Ticks_ISO_T2_5,28,9999,9999,9999,2754786412
41,5,10,Ticks_ISO_T2_5,29,9999,9999,9999,2755286104
41,5,10,Ticks_ISO_T2_5,30,9999,9999,9999,2755786848
41,5,10,Ticks_ISO_T2_5,31,9999,9999,9999,2756286544
41,5,10,Ticks_ISO_T2_5,32,9999,9999,9999,2756786240
41,5,10,Ticks_ISO_T2_5,33,9999,9999,9999,2757287032
41,5,10,Ticks_ISO_T2_5,34,9999,9999,9999,2757786728
41,5,10,Ticks_ISO_T2_5,35,9999,9999,9999,2758286424
41,5,10,Ticks_ISO_T2_5,36,9999,9999,9999,2758786116
41,5,10,Ticks_ISO_T2_5,37,9999,9999,9999,2759286860
41,5,10,Ticks_ISO_T2_5,38,9999,9999,9999,2759786604
41,5,10,Ticks_ISO_T2_5,39,9999,9999,9999,2760286300
41,5,10,Ticks_ISO_T2_5,40,9999,9999,9999,2760787040
41,5,10,Ticks_ISO_T2_5,41,9999,9999,9999,2761286736
41,5,10,Ticks_ISO_T2_5,42,9999,9999,9999,2761786432
41,5,10,Ticks_ISO_T2_5,43,9999,9999,9999,2762286200
41,5,10,Ticks_ISO_T2_5,44,9999,9999,9999,2762786920
41,5,10,Ticks_ISO_T2_5,45,9999,9999,9999,2763286612
41,5,10,Ticks_ISO_T2_5,46,9999,9999,9999,2763786308
41,5,10,Ticks_ISO_T2_5,47,9999,9999,9999,2764287048
41,5,10,Ticks_ISO_T2_5,48,9999,9999,9999,2764786744
41,5,10,Ticks_ISO_T2_5,49,9999,9999,9999,2765286516
41,5,10,Ticks_ISO_T2_5,50,9999,9999,9999,2765786204
41,5,10,Ticks_ISO_T2_5,51,9999,9999,9999,2766286952
41,5,10,Ticks_ISO_T2_5,52,9999,9999,9999,2766786648
41,5,10,Ticks_ISO_T2_5,53,9999,9999,9999,2767286340
41,5,10,Ticks_ISO_T2_5,54,9999,9999,9999,2767787084
41,5,10,Ticks_ISO_T2_5,55,9999,9999,9999,2768286780
41,5,10,Ticks_ISO_T2_5,56,9999,9999,9999,2768786548
41,5,10,Ticks_ISO_T2_5,57,9999,9999,9999,2769286244
41,5,10,Ticks_ISO_T2_5,58,9999,9999,9999,2769786984
41,5,10,Ticks_ISO_T2_5,59,9999,9999,9999,2770286656
41,5,10,Ticks_ISO_T2_5,60,9999,9999,9999,2770786416
41,5,10,Ticks_ISO_T2_5,61,9999,9999,9999,2771286088
41,5,10,Ticks_ISO_T2_5,62,9999,9999,9999,2771786820
41,5,10,Ticks_ISO_T2_5,63,9999,9999,9999,2772286520
41,5,10,Ticks_ISO_T2_5,64,9999,9999,9999,2772786292
41,5,10,Ticks_ISO_T2_5,65,9999,9999,9999,2773287032
41,5,10,Ticks_ISO_T2_5,66,9999,9999,9999,2773786728
41,5,10,Ticks_ISO_T2_5,67,9999,9999,9999,2774286424
41,5,10,Ticks_ISO_T2_5,68,9999,9999,9999,2774786112
41,5,10,Ticks_ISO_T2_5,69,9999,9999,9999,2775286852
41,5,10,Ticks_ISO_T2_5,70,9999,9999,9999,2775786620
41,5,10,Ticks_ISO_T2_5,71,9999,9999,9999,2776286316
41,5,10,Ticks_ISO_T2_5,72,9999,9999,9999,2776787060
41,5,10,Ticks_ISO_T2_5,73,9999,9999,9999,2777286756
41,5,10,Ticks_ISO_T2_5,74,9999,9999,9999,2777786428
41,5,10,Ticks_ISO_T2_5,75,9999,9999,9999,2778286200
41,5,10,Ticks_ISO_T2_5,76,9999,9999,9999,2778786940
41,5,10,Ticks_ISO_T2_5,77,9999,9999,9999,2779286636
41,5,10,Ticks_ISO_T2_5,78,9999,9999,9999,2779786332
41,5,10,Ticks_ISO_T2_5,79,9999,9999,9999,2780287072
41,5,10,Ticks_ISO_T2_5,80,9999,9999,9999,2780786768
41,5,10,Ticks_ISO_T2_5,81,9999,9999,9999,2781286516
41,5,10,Ticks_ISO_T2_5,82,9999,9999,9999,2781786204
41,5,10,Ticks_ISO_T2_5,83,9999,9999,9999,2782286944
41,5,10,Ticks_ISO_T2_5,84,9999,9999,9999,2782786620
41,5,10,Ticks_ISO_T2_5,85,9999,9999,9999,2783286388
41,5,10,Ticks_ISO_T2_5,86,9999,9999,9999,2783787060
41,5,10,Ticks_ISO_T2_5,87,9999,9999,9999,2784286808
41,5,10,Ticks_ISO_T2_5,88,9999,9999,9999,2784786504
41,5,10,Ticks_ISO_T2_5,89,9999,9999,9999,2785286252
41,5,10,Ticks_ISO_T2_5,90,9999,9999,9999,2785786992
41,5,10,Ticks_ISO_T2_5,91,9999,9999,9999,2786286680
41,5,10,Ticks_ISO_T2_5,92,9999,9999,9999,2786786428
41,5,10,Ticks_ISO_T2_5,93,9999,9999,9999,2787286124
41,5,10,Ticks_ISO_T2_5,94,9999,9999,9999,2787786872
41,5,10,Ticks_ISO_T2_5,95,9999,9999,9999,2788286560
41,5,10,Ticks_ISO_T2_5,96,9999,9999,9999,2788786256
41,5,10,Ticks_ISO_T2_5,97,9999,9999,9999,2789287000
41,5,10,Ticks_ISO_T2_5,98,9999,9999,9999,2789786732
41,5,10,Ticks_ISO_T2_5,99,9999,9999,9999,2790286388
41,5,10,Ticks_ISO_T2_5,100,9999,9999,9999,2790786156
41,5,10,Ticks_ISO_T2_5,101,9999,9999,9999,2791286908
41,5,10,Ticks_ISO_T2_5,102,9999,9999,9999,2791786576
41,5,10,Ticks_ISO_T2_5,103,9999,9999,9999,2792286264
41,5,10,Ticks_ISO_T2_5,104,9999,9999,9999,2792787012
41,5,10,Ticks_ISO_T2_5,105,9999,9999,9999,2793286708
41,5,10,Ticks_ISO_T2_5,106,9999,9999,9999,2793786472
41,5,10,Ticks_ISO_T2_5,107,9999,9999,9999,2794286168
41,5,10,Ticks_ISO_T2_5,108,9999,9999,9999,2794786908
41,5,10,Ticks_ISO_T2_5,109,9999,9999,9999,2795286612
41,5,10,Ticks_ISO_T2_5,110,9999,9999,9999,2795786300
41,5,10,Ticks_ISO_T2_5,111,9999,9999,9999,2796287040
41,5,10,Ticks_ISO_T2_5,112,9999,9999,9999,2796786740
41,5,10,Ticks_ISO_T2_5,113,9999,9999,9999,2797286480
41,5,10,Ticks_ISO_T2_5,114,9999,9999,9999,2797786180
41,5,10,Ticks_ISO_T2_5,115,9999,9999,9999,2798286924
41,5,10,Ticks_ISO_T2_5,116,9999,9999,9999,2798786668
41,5,10,Ticks_ISO_T2_5,117,9999,9999,9999,2799286364
41,5,10,Ticks_ISO_T2_5,118,9999,9999,9999,2799787100
41,5,10,Ticks_ISO_T2_5,119,9999,9999,9999,2800286796
41,5,10,Ticks_ISO_T2_5,120,9999,9999,9999,2800786488
41,5,10,Ticks_ISO_T2_5,121,9999,9999,9999,2801286268
41,5,10,Ticks_ISO_T2_5,122,9999,9999,9999,2801786932
41,5,10,Ticks_ISO_T2_5,123,9999,9999,9999,2802286704
41,5,10,Ticks_ISO_T2_5,124,9999,9999,9999,2802786364
41,5,10,Ticks_ISO_T2_5,125,9999,9999,9999,2803286140
41,5,10,Ticks_ISO_T2_5,126,9999,9999,9999,2803786808
41,5,10,Ticks_ISO_T2_5,127,9999,9999,9999,2804286580
41,5,10,Ticks_ISO_T2_5,128,9999,9999,9999,2804786272
41,5,10,Ticks_ISO_T2_5,129,9999,9999,9999,2805287016
41,6,9,Ticks_ISO_T2_8,0,5,42,127,2817820096
41,6,9,Ticks_ISO_T2_8,1,5,42,127,2818619924
41,6,9,Ticks_ISO_T2_8,2,1,48,64,2819358008
41,6,9,Ticks_ISO_T2_8,3,1,48,32,2819420032
41,6,9,Ticks_ISO_T2_8,4,5,42,127,2819421300
41,6,9,Ticks_ISO_T2_8,5,1,48,81,2820137596
41,6,9,Ticks_ISO_T2_8,6,1,48,38,2820192700
41,6,9,Ticks_ISO_T2_8,7,5,42,127,2820220284
41,6,9,Ticks_ISO_T2_8,8,1,48,75,2820963936
41,6,9,Ticks_ISO_T2_8,9,1,48,40,2821006652
41,6,9,Ticks_ISO_T2_8,10,5,42,127,2821019996
41,6,9,Ticks_ISO_T2_8,11,1,48,78,2821790900
41,6,9,Ticks_ISO_T2_8,12,5,42,127,2821819956
41,6,9,Ticks_ISO_T2_8,13,1,48,46,2821834648
41,6,9,Ticks_ISO_T2_8,14,1,48,78,2822581860
41,6,9,Ticks_ISO_T2_8,15,5,42,127,2822619592
41,6,9,Ticks_ISO_T2_8,16,1,48,47,2822630628
41,6,9,Ticks_ISO_T2_8,17,1,48,71,2823386056
41,6,9,Ticks_ISO_T2_8,18,5,42,127,2823420276
41,6,9,Ticks_ISO_T2_8,19,1,48,40,2823439688
41,6,9,Ticks_ISO_T2_8,20,1,48,77,2824199832
41,6,9,Ticks_ISO_T2_8,21,5,42,127,2824219988
41,6,9,Ticks_ISO_T2_8,22,1,48,41,2824242160
41,6,9,Ticks_ISO_T2_8,23,1,48,72,2824977632
41,6,9,Ticks_ISO_T2_8,24,5,42,127,2825019848
41,6,9,Ticks_ISO_T2_8,25,1,48,79,2825766216
41,6,9,Ticks_ISO_T2_8,26,5,42,127,2825819656
41,6,9,Ticks_ISO_T2_8,27,1,48,25,2825837496
41,6,9,Ticks_ISO_T2_8,28,1,48,79,2826585128
41,6,9,Ticks_ISO_T2_8,29,5,42,127,2826620268
41,6,9,Ticks_ISO_T2_8,30,1,48,28,2826646560
41,6,9,Ticks_ISO_T2_8,31,1,48,77,2827396004
41,6,9,Ticks_ISO_T2_8,32,5,42,127,2827419980
41,6,9,Ticks_ISO_T2_8,33,1,48,75,2828216764
41,6,9,Ticks_ISO_T2_8,34,5,42,127,2828219788
41,6,9,Ticks_ISO_T2_8,35,5,42,127,2829019676
41,6,9,Ticks_ISO_T2_8,36,1,48,73,2829023696
41,6,9,Ticks_ISO_T2_8,37,1,48,35,2829090320
41,6,9,Ticks_ISO_T2_8,38,1,48,70,2829794140
41,6,9,Ticks_ISO_T2_8,39,5,42,127,2829820656
41,6,9,Ticks_ISO_T2_8,40,1,48,46,2829842460
41,6,9,Ticks_ISO_T2_8,41,1,48,84,2830566100
41,6,9,Ticks_ISO_T2_8,42,1,48,46,2830604004
41,6,9,Ticks_ISO_T2_8,43,5,42,127,2830619896
41,6,9,Ticks_ISO_T2_8,44,1,48,77,2831371280
41,6,9,Ticks_ISO_T2_8,45,5,42,127,2831419704
41,6,9,Ticks_ISO_T2_8,46,1,48,73,2832191352
41,6,9,Ticks_ISO_T2_8,47,5,42,127,2832219584
41,6,9,Ticks_ISO_T2_8,48,1,48,84,2832982708
41,6,9,Ticks_ISO_T2_8,49,5,42,127,2833020540
41,6,9,Ticks_ISO_T2_8,50,1,48,79,2833814332
41,6,9,Ticks_ISO_T2_8,51,5,42,127,2833819904
41,6,9,Ticks_ISO_T2_8,52,1,48,39,2833857112
41,6,9,Ticks_ISO_T2_8,53,5,42,127,2834619696
41,6,9,Ticks_ISO_T2_8,54,1,48,76,2834640388
41,6,9,Ticks_ISO_T2_8,55,1,48,73,2835418600
41,6,9,Ticks_ISO_T2_8,56,5,42,127,2835420396
41,6,9,Ticks_ISO_T2_8,57,1,48,51,2836220728
41,6,9,Ticks_ISO_T2_8,58,5,42,127,2836222220
41,6,9,Ticks_ISO_T2_8,59,1,48,85,2836997088
41,6,9,Ticks_ISO_T2_8,60,5,42,127,2837020160
41,6,9,Ticks_ISO_T2_8,61,1,48,48,2837034188
41,6,9,Ticks_ISO_T2_8,62,5,42,127,2837819732
41,6,9,Ticks_ISO_T2_8,63,1,48,81,2837820696
41,6,9,Ticks_ISO_T2_8,64,1,48,45,2837874764
41,6,9,Ticks_ISO_T2_8,65,5,42,127,2838619444
41,6,9,Ticks_ISO_T2_8,66,1,48,75,2838643152
41,6,9,Ticks_ISO_T2_8,67,1,48,46,2838696460
41,6,9,Ticks_ISO_T2_8,68,1,48,80,2839411360
41,6,9,Ticks_ISO_T2_8,69,5,42,127,2839420148
41,6,9,Ticks_ISO_T2_8,70,1,48,49,2839471044
41,6,9,Ticks_ISO_T2_8,71,5,42,127,2840220236
41,6,9,Ticks_ISO_T2_8,72,1,48,82,2840227024
41,6,9,Ticks_ISO_T2_8,73,1,48,50,2840283844
41,6,9,Ticks_ISO_T2_8,74,1,48,86,2840978548
41,6,9,Ticks_ISO_T2_8,75,1,48,51,2841007548
41,6,9,Ticks_ISO_T2_8,76,5,42,127,2841019696
41,6,9,Ticks_ISO_T2_8,77,1,48,84,2841810940
41,6,9,Ticks_ISO_T2_8,78,5,42,127,2841819580
41,6,9,Ticks_ISO_T2_8,79,1,48,50,2841839888
41,6,9,Ticks_ISO_T2_8,80,5,42,127,2842620272
41,6,9,Ticks_ISO_T2_8,81,1,48,78,2842634232
41,6,9,Ticks_ISO_T2_8,82,1,48,49,2842664728
41,6,9,Ticks_ISO_T2_8,83,5,42,127,2843420208
41,6,9,Ticks_ISO_T2_8,84,1,48,79,2843434616
41,6,9,Ticks_ISO_T2_8,85,1,48,80,2844197988
41,6,9,Ticks_ISO_T2_8,86,5,42,127,2844219856
41,6,9,Ticks_ISO_T2_8,87,1,48,47,2844229772
41,6,9,Ticks_ISO_T2_8,88,5,42,127,2845019428
41,6,9,Ticks_ISO_T2_8,89,1,48,75,2845028532
41,6,9,Ticks_ISO_T2_8,90,1,48,48,2845065852
41,6,9,Ticks_ISO_T2_8,91,5,42,127,2845820284
41,6,9,Ticks_ISO_T2_8,92,1,48,71,2845840536
41,6,9,Ticks_ISO_T2_8,93,1,48,46,2845874840
41,6,9,Ticks_ISO_T2_8,94,1,48,70,2846594224
41,6,9,Ticks_ISO_T2_8,95,5,42,127,2846620064
41,6,9,Ticks_ISO_T2_8,96,1,48,46,2846625184
41,6,9,Ticks_ISO_T2_8,97,1,48,69,2847408672
41,6,9,Ticks_ISO_T2_8,98,5,42,127,2847419924
41,6,9,Ticks_ISO_T2_8,99,1,48,46,2847437616
41,6,9,Ticks_ISO_T2_8,100,5,42,127,2848219496
41,6,9,Ticks_ISO_T2_8,101,1,48,69,2848231288
41,6,9,Ticks_ISO_T2_8,102,1,48,44,2848270836
41,6,9,Ticks_ISO_T2_8,103,5,42,127,2849020180
41,6,9,Ticks_ISO_T2_8,104,1,48,60,2849040576
41,6,9,Ticks_ISO_T2_8,105,1,48,40,2849080196
41,6,9,Ticks_ISO_T2_8,106,1,48,66,2849817528
41,6,9,Ticks_ISO_T2_8,107,5,42,127,2849820108
41,6,9,Ticks_ISO_T2_8,108,1,48,44,2849853952
41,6,9,Ticks_ISO_T2_8,109,1,48,67,2850576324
41,6,9,Ticks_ISO_T2_8,110,1,48,44,2850612132
41,6,9,Ticks_ISO_T2_8,111,5,42,127,2850620020
41,6,9,Ticks_ISO_T2_8,112,1,48,57,2851360108
41,6,9,Ticks_ISO_T2_8,113,1,48,40,2851393600
41,6,9,Ticks_ISO_T2_8,114,5,42,127,2851419808
41,6,9,Ticks_ISO_T2_8,115,1,48,61,2852207868
41,6,9,Ticks_ISO_T2_8,116,5,42,127,2852220164
41,6,9,Ticks_ISO_T2_8,117,1,48,42,2852248176
41,6,9,Ticks_ISO_T2_8,118,1,48,59,2852982972
41,6,9,Ticks_ISO_T2_8,119,5,42,127,2853019880
41,6,9,Ticks_ISO_T2_8,120,1,48,39,2853023576
41,6,9,Ticks_ISO_T2_8,121,1,48,60,2853818616
41,6,9,Ticks_ISO_T2_8,122,5,42,127,2853820408
41,6,9,Ticks_ISO_T2_8,123,1,48,38,2853865480
41,6,9,Ticks_ISO_T2_8,124,1,48,60,2854615896
41,6,9,Ticks_ISO_T2_8,125,5,42,127,2854619676
41,6,9,Ticks_ISO_T2_8,126,1,48,46,2854667132
41,6,9,Ticks_ISO_T2_8,127,5,42,127,2855420216
41,6,9,Ticks_ISO_T2_8,128,1,48,66,2855451908
41,6,9,Ticks_ISO_T2_8,129,1,48,44,2855507460
41,6,9,Ticks_ISO_T2_8,130,1,48,73,2856203728
41,6,9,Ticks_ISO_T2_8,131,5,42,127,2856220144
41,6,9,Ticks_ISO_T2_8,132,1,48,48,2856239028
41,6,9,Ticks_ISO_T2_8,133,1,48,75,2856996932
41,6,9,Ticks_ISO_T2_8,134,5,42,127,2857019708
41,6,9,Ticks_ISO_T2_8,135,1,48,50,2857025496
41,6,9,Ticks_ISO_T2_8,136,1,48,63,2857806892
41,6,9,Ticks_ISO_T2_8,137,5,42,127,2857819864
41,6,9,Ticks_ISO_T2_8,138,1,48,48,2857836452
41,6,9,Ticks_ISO_T2_8,139,1,48,64,2858612312
41,6,9,Ticks_ISO_T2_8,140,5,42,127,2858620128
41,6,9,Ticks_ISO_T2_8,141,1,48,47,2858642900
41,6,9,Ticks_ISO_T2_8,142,1,48,71,2859402972
41,6,9,Ticks_ISO_T2_8,143,5,42,127,2859419988
41,6,9,Ticks_ISO_T2_8,144,1,48,51,2859437824
41,6,9,Ticks_ISO_T2_8,145,1,48,66,2860180548
41,6,9,Ticks_ISO_T2_8,146,1,48,49,2860209916
41,6,9,Ticks_ISO_T2_8,147,5,42,127,2860219752
41,6,9,Ticks_ISO_T2_8,148,1,48,65,2861002320
41,6,9,Ticks_ISO_T2_8,149,5,42,127,2861019708
41,6,9,Ticks_ISO_T2_8,150,1,48,46,2861034328
41,6,9,Ticks_ISO_T2_8,151,1,48,66,2861801812
41,6,9,Ticks_ISO_T2_8,152,5,42,127,2861820616
41,6,9,Ticks_ISO_T2_8,153,1,48,51,2861831724
41,6,9,Ticks_ISO_T2_8,154,1,48,65,2862604588
41,6,9,Ticks_ISO_T2_8,155,5,42,127,2862619956
41,6,9,Ticks_ISO_T2_8,156,1,48,48,2862636748
41,6,9,Ticks_ISO_T2_8,157,1,48,62,2863395996
41,6,9,Ticks_ISO_T2_8,158,5,42,127,2863419816
41,6,9,Ticks_ISO_T2_8,159,1,48,46,2863428684
41,6,9,Ticks_ISO_T2_8,160,1,48,67,2864144992
41,6,9,Ticks_ISO_T2_8,161,1,48,49,2864179828
41,6,9,Ticks_ISO_T2_8,162,5,42,127,2864219504
41,6,9,Ticks_ISO_T2_8,163,1,48,68,2864909176
41,6,9,Ticks_ISO_T2_8,164,1,48,51,2864937952
41,6,9,Ticks_ISO_T2_8,165,5,42,127,2865020364
41,6,9,Ticks_ISO_T2_8,166,1,48,55,2865748828
41,6,9,Ticks_ISO_T2_8,167,1,48,43,2865777332
41,6,9,Ticks_ISO_T2_8,168,5,42,127,2865820000
41,6,9,Ticks_ISO_T2_8,169,1,48,54,2866614236
41,6,9,Ticks_ISO_T2_8,170,5,42,127,2866619660
41,6,9,Ticks_ISO_T2_8,171,1,48,60,2867411204
41,6,9,Ticks_ISO_T2_8,172,5,42,127,2867419468
41,6,9,Ticks_ISO_T2_8,173,1,48,34,2867483680
41,6,9,Ticks_ISO_T2_8,174,1,48,64,2868220080
41,6,9,Ticks_ISO_T2_8,175,5,42,127,2868221788
41,6,9,Ticks_ISO_T2_8,176,1,48,39,2868292964
41,6,9,Ticks_ISO_T2_8,177,1,48,69,2869010248
41,6,9,Ticks_ISO_T2_8,178,5,42,127,2869020232
41,6,9,Ticks_ISO_T2_8,179,1,48,43,2869050188
41,6,9,Ticks_ISO_T2_8,180,5,42,127,2869819876
41,6,9,Ticks_ISO_T2_8,181,1,48,67,2869846336
41,6,9,Ticks_ISO_T2_8,182,1,48,46,2869881712
41,6,9,Ticks_ISO_T2_8,183,5,42,127,2870619364
41,6,9,Ticks_ISO_T2_8,184,1,48,74,2870652648
41,6,9,Ticks_ISO_T2_8,185,1,48,47,2870698480
41,6,9,Ticks_ISO_T2_8,186,5,42,127,2871420220
41,6,9,Ticks_ISO_T2_8,187,1,48,66,2871455724
41,6,9,Ticks_ISO_T2_8,188,1,48,43,2871495196
41,6,9,Ticks_ISO_T2_8,189,1,48,75,2872213156
41,6,9,Ticks_ISO_T2_8,190,5,42,127,2872220296
41,6,9,Ticks_ISO_T2_8,191,1,48,48,2872244644
41,6,9,Ticks_ISO_T2_8,192,5,42,127,2873019648
41,6,9,Ticks_ISO_T2_8,193,1,48,62,2873027476
41,6,9,Ticks_ISO_T2_8,194,1,48,65,2873810216
41,6,9,Ticks_ISO_T2_8,195,5,42,127,2873819448
41,6,9,Ticks_ISO_T2_8,196,1,48,44,2873843492
41,6,9,Ticks_ISO_T2_8,197,1,48,68,2874582772
41,6,9,Ticks_ISO_T2_8,198,1,48,45,2874614316
41,6,9,Ticks_ISO_T2_8,199,5,42,127,2874620260
41,6,9,Ticks_ISO_T2_8,200,1,48,61,2875376124
41,6,9,Ticks_ISO_T2_8,201,5,42,127,2875419992
41,6,9,Ticks_ISO_T2_8,202,1,48,59,2876177584
41,6,9,Ticks_ISO_T2_8,203,1,48,39,2876213980
41,6,9,Ticks_ISO_T2_8,204,5,42,127,2876220000
41,6,9,Ticks_ISO_T2_8,205,1,48,63,2876984316
41,6,9,Ticks_ISO_T2_8,206,1,48,40,2877018364
41,6,9,Ticks_ISO_T2_8,207,5,42,127,2877019788
41,6,9,Ticks_ISO_T2_8,208,5,42,127,2877820304
41,6,9,Ticks_ISO_T2_8,209,1,48,64,2877824468
41,6,9,Ticks_ISO_T2_8,210,1,48,42,2877862972
41,6,9,Ticks_ISO_T2_8,211,5,42,127,2878619868
41,6,9,Ticks_ISO_T2_8,212,1,48,68,2878624328
41,6,9,Ticks_ISO_T2_8,213,1,48,68,2879395248
41,6,9,Ticks_ISO_T2_8,214,5,42,127,2879420040
41,6,9,Ticks_ISO_T2_8,215,1,48,42,2879434888
41,6,9,Ticks_ISO_T2_8,216,1,48,70,2880186956
41,6,9,Ticks_ISO_T2_8,217,5,42,127,2880219452
41,6,9,Ticks_ISO_T2_8,218,1,48,43,2880225992
41,6,9,Ticks_ISO_T2_8,219,1,48,71,2881001104
41,6,9,Ticks_ISO_T2_8,220,5,42,127,2881020212
41,6,9,Ticks_ISO_T2_8,221,1,48,40,2881048148
41,6,9,Ticks_ISO_T2_8,222,1,48,66,2881818948
41,6,9,Ticks_ISO_T2_8,223,5,42,127,2881820824
41,6,9,Ticks_ISO_T2_8,224,1,48,40,2881886460
41,6,9,Ticks_ISO_T2_8,225,1,48,68,2882594320
41,6,9,Ticks_ISO_T2_8,226,5,42,127,2882620008
41,6,9,Ticks_ISO_T2_8,227,1,48,41,2882654752
41,6,9,Ticks_ISO_T2_8,228,1,48,67,2883404880
41,6,9,Ticks_ISO_T2_8,229,5,42,127,2883419572
41,6,9,Ticks_ISO_T2_8,230,1,48,45,2883444316
41,6,9,Ticks_ISO_T2_8,231,1,48,68,2884206108
41,6,9,Ticks_ISO_T2_8,232,5,42,127,2884220280
41,6,9,Ticks_ISO_T2_8,233,5,42,127,2885019948
41,6,9,Ticks_ISO_T2_8,234,1,48,70,2885054780
41,6,9,Ticks_ISO_T2_8,235,5,42,127,2885819828
41,6,9,Ticks_ISO_T2_8,236,1,48,58,2885842248
41,6,9,Ticks_ISO_T2_8,237,1,48,69,2886584288
41,6,9,Ticks_ISO_T2_8,238,5,42,127,2886619776
41,6,9,Ticks_ISO_T2_8,239,5,42,127,2887420120
41,6,9,Ticks_ISO_T2_8,240,1,48,61,2887435800
41,6,9,Ticks_ISO_T2_8,241,5,42,127,2888220000
41,6,9,Ticks_ISO_T2_8,242,1,48,59,2888228956
41,6,9,Ticks_ISO_T2_8,243,1,48,61,2888971896
41,6,9,Ticks_ISO_T2_8,244,5,42,127,2889019800
41,6,9,Ticks_ISO_T2_8,245,1,48,56,2889760036
41,6,9,Ticks_ISO_T2_8,246,5,42,127,2889819684
41,6,9,Ticks_ISO_T2_8,247,1,48,56,2890594328
41,6,9,Ticks_ISO_T2_8,248,5,42,127,2890620188
41,6,9,Ticks_ISO_T2_8,249,5,42,127,2891420004
41,6,9,Ticks_ISO_T2_8,250,1,48,66,2891424392
41,6,9,Ticks_ISO_T2_8,251,1,48,44,2891454288
41,6,9,Ticks_ISO_T2_8,252,1,48,65,2892220012
41,6,9,Ticks_ISO_T2_8,253,5,42,127,2892221580
41,6,9,Ticks_ISO_T2_8,254,1,48,40,2892259236
41,6,9,Ticks_ISO_T2_8,255,5,42,127,2893019652
41,6,9,Ticks_ISO_T2_8,256,1,48,67,2893041920
41,6,9,Ticks_ISO_T2_8,257,5,42,127,2893820360
41,6,9,Ticks_ISO_T2_8,258,1,48,59,2893834096
41,6,9,Ticks_ISO_T2_8,259,5,42,127,2894619872
41,6,9,Ticks_ISO_T2_8,260,1,48,54,2894637352
41,6,9,Ticks_ISO_T2_8,261,1,48,56,2895410292
41,6,9,Ticks_ISO_T2_8,262,5,42,127,2895419672
41,6,9,Ticks_ISO_T2_8,263,5,42,127,2896219412
41,6,9,Ticks_ISO_T2_8,264,1,48,60,2896238040
41,6,9,Ticks_ISO_T2_8,265,1,48,31,2896285656
41,6,9,Ticks_ISO_T2_8,266,5,42,127,2897020272
41,6,9,Ticks_ISO_T2_8,267,1,48,57,2897060044
41,6,9,Ticks_ISO_T2_8,268,1,48,32,2897113276
41,6,9,Ticks_ISO_T2_8,269,5,42,127,2897819984
41,6,9,Ticks_ISO_T2_8,270,1,48,54,2897846136
41,6,9,Ticks_ISO_T2_8,271,1,48,29,2897909472
41,6,9,Ticks_ISO_T2_8,272,1,48,62,2898598860
41,6,9,Ticks_ISO_T2_8,273,5,42,127,2898619616
41,6,9,Ticks_ISO_T2_8,274,5,42,127,2899419356
41,6,9,Ticks_ISO_T2_8,275,1,48,57,2899437808
41,6,9,Ticks_ISO_T2_8,276,5,42,127,2900220208
41,6,9,Ticks_ISO_T2_8,277,1,48,68,2900235816
41,6,9,Ticks_ISO_T2_8,278,1,48,37,2900294512
41,6,9,Ticks_ISO_T2_8,279,5,42,127,2901020292
41,6,9,Ticks_ISO_T2_8,280,1,48,66,2901024160
41,6,9,Ticks_ISO_T2_8,281,1,48,35,2901077620
41,6,9,Ticks_ISO_T2_8,282,1,48,63,2901807180
41,6,9,Ticks_ISO_T2_8,283,5,42,127,2901820144
41,6,9,Ticks_ISO_T2_8,284,5,42,127,2902619512
41,6,9,Ticks_ISO_T2_8,285,1,48,59,2902645320
41,6,9,Ticks_ISO_T2_8,286,1,48,38,2902683824
41,6,9,Ticks_ISO_T2_8,287,1,48,63,2903395476
41,6,9,Ticks_ISO_T2_8,288,5,42,127,2903420292
41,6,9,Ticks_ISO_T2_8,289,1,48,38,2903436108
41,6,9,Ticks_ISO_T2_8,290,1,48,64,2904185336
41,6,9,Ticks_ISO_T2_8,291,5,42,127,2904220152
41,6,9,Ticks_ISO_T2_8,292,1,48,39,2904222372
41,6,9,Ticks_ISO_T2_8,293,1,48,65,2904971368
41,6,9,Ticks_ISO_T2_8,294,5,42,127,2905019644
41,6,9,Ticks_ISO_T2_8,295,1,48,61,2905783064
41,6,9,Ticks_ISO_T2_8,296,1,48,45,2905809748
41,6,9,Ticks_ISO_T2_8,297,5,42,127,2905819432
41,6,9,Ticks_ISO_T2_8,298,1,48,61,2906584720
41,6,9,Ticks_ISO_T2_8,299,1,48,42,2906616864
41,6,9,Ticks_ISO_T2_8,300,5,42,127,2906620412
41,6,9,Ticks_ISO_T2_8,301,1,48,63,2907379052
41,6,9,Ticks_ISO_T2_8,302,5,42,127,2907419924
41,6,9,Ticks_ISO_T2_8,303,1,48,56,2908196132
41,6,9,Ticks_ISO_T2_8,304,5,42,127,2908219952
41,6,9,Ticks_ISO_T2_8,305,1,48,57,2908956224
41,6,9,Ticks_ISO_T2_8,306,1,48,42,2908986576
41,6,9,Ticks_ISO_T2_8,307,5,42,127,2909019368
41,6,9,Ticks_ISO_T2_8,308,1,48,51,2909801668
41,6,9,Ticks_ISO_T2_8,309,5,42,127,2909820324
41,6,9,Ticks_ISO_T2_8,310,1,48,54,2910615684
41,6,9,Ticks_ISO_T2_8,311,5,42,127,2910619984
41,6,9,Ticks_ISO_T2_8,312,5,42,127,2911419724
41,6,9,Ticks_ISO_T2_8,313,1,48,55,2911436452
41,6,9,Ticks_ISO_T2_8,314,5,42,127,2912219532
41,6,9,Ticks_ISO_T2_8,315,1,48,55,2912224744
41,6,9,Ticks_ISO_T2_8,316,1,48,56,2913000372
41,6,9,Ticks_ISO_T2_8,317,5,42,127,2913020232
41,6,9,Ticks_ISO_T2_8,318,1,48,52,2913795916
41,6,9,Ticks_ISO_T2_8,0,9999,9999,9999,2817817660
41,6,9,Ticks_ISO_T2_8,1,9999,9999,9999,2818617416
41,6,9,Ticks_ISO_T2_8,2,9999,9999,9999,2819417164
41,6,9,Ticks_ISO_T2_8,3,9999,9999,9999,2820217924
41,6,9,Ticks_ISO_T2_8,4,9999,9999,9999,2821017708
41,6,9,Ticks_ISO_T2_8,5,9999,9999,9999,2821817444
41,6,9,Ticks_ISO_T2_8,6,9999,9999,9999,2822617156
41,6,9,Ticks_ISO_T2_8,7,9999,9999,9999,2823417916
41,6,9,Ticks_ISO_T2_8,8,9999,9999,9999,2824217700
41,6,9,Ticks_ISO_T2_8,9,9999,9999,9999,2825017412
41,6,9,Ticks_ISO_T2_8,10,9999,9999,9999,2825817144
41,6,9,Ticks_ISO_T2_8,11,9999,9999,9999,2826617904
41,6,9,Ticks_ISO_T2_8,12,9999,9999,9999,2827417692
41,6,9,Ticks_ISO_T2_8,13,9999,9999,9999,2828217424
41,6,9,Ticks_ISO_T2_8,14,9999,9999,9999,2829017164
41,6,9,Ticks_ISO_T2_8,15,9999,9999,9999,2829817920
41,6,9,Ticks_ISO_T2_8,16,9999,9999,9999,2830617684
41,6,9,Ticks_ISO_T2_8,17,9999,9999,9999,2831417416
41,6,9,Ticks_ISO_T2_8,18,9999,9999,9999,2832217148
41,6,9,Ticks_ISO_T2_8,19,9999,9999,9999,2833017956
41,6,9,Ticks_ISO_T2_8,20,9999,9999,9999,2833817688
41,6,9,Ticks_ISO_T2_8,21,9999,9999,9999,2834617408
41,6,9,Ticks_ISO_T2_8,22,9999,9999,9999,2835417140
41,6,9,Ticks_ISO_T2_8,23,9999,9999,9999,2836217920
41,6,9,Ticks_ISO_T2_8,24,9999,9999,9999,2837017652
41,6,9,Ticks_ISO_T2_8,25,9999,9999,9999,2837817444
41,6,9,Ticks_ISO_T2_8,26,9999,9999,9999,2838617152
41,6,9,Ticks_ISO_T2_8,27,9999,9999,9999,2839417932
41,6,9,Ticks_ISO_T2_8,28,9999,9999,9999,2840217652
41,6,9,Ticks_ISO_T2_8,29,9999,9999,9999,2841017408
41,6,9,Ticks_ISO_T2_8,30,9999,9999,9999,2841817144
41,6,9,Ticks_ISO_T2_8,31,9999,9999,9999,2842617908
41,6,9,Ticks_ISO_T2_8,32,9999,9999,9999,2843417696
41,6,9,Ticks_ISO_T2_8,33,9999,9999,9999,2844217420
41,6,9,Ticks_ISO_T2_8,34,9999,9999,9999,2845017140
41,6,9,Ticks_ISO_T2_8,35,9999,9999,9999,2845817920
41,6,9,Ticks_ISO_T2_8,36,9999,9999,9999,2846617700
41,6,9,Ticks_ISO_T2_8,37,9999,9999,9999,2847417412
41,6,9,Ticks_ISO_T2_8,38,9999,9999,9999,2848217208
41,6,9,Ticks_ISO_T2_8,39,9999,9999,9999,2849017964
41,6,9,Ticks_ISO_T2_8,40,9999,9999,9999,2849817672
41,6,9,Ticks_ISO_T2_8,41,9999,9999,9999,2850617436
41,6,9,Ticks_ISO_T2_8,42,9999,9999,9999,2851417148
41,6,9,Ticks_ISO_T2_8,43,9999,9999,9999,2852217952
41,6,9,Ticks_ISO_T2_8,44,9999,9999,9999,2853017664
41,6,9,Ticks_ISO_T2_8,45,9999,9999,9999,2853817460
41,6,9,Ticks_ISO_T2_8,46,9999,9999,9999,2854617164
41,6,9,Ticks_ISO_T2_8,47,9999,9999,9999,2855417928
41,6,9,Ticks_ISO_T2_8,48,9999,9999,9999,2856217708
41,6,9,Ticks_ISO_T2_8,49,9999,9999,9999,2857017420
41,6,9,Ticks_ISO_T2_8,50,9999,9999,9999,2857817204
41,6,9,Ticks_ISO_T2_8,51,9999,9999,9999,2858617912
41,6,9,Ticks_ISO_T2_8,52,9999,9999,9999,2859417700
41,6,9,Ticks_ISO_T2_8,53,9999,9999,9999,2860217464
41,6,9,Ticks_ISO_T2_8,54,9999,9999,9999,2861017196
41,6,9,Ticks_ISO_T2_8,55,9999,9999,9999,2861817956
41,6,9,Ticks_ISO_T2_8,56,9999,9999,9999,2862617668
41,6,9,Ticks_ISO_T2_8,57,9999,9999,9999,2863417456
41,6,9,Ticks_ISO_T2_8,58,9999,9999,9999,2864217144
41,6,9,Ticks_ISO_T2_8,59,9999,9999,9999,2865017928
41,6,9,Ticks_ISO_T2_8,60,9999,9999,9999,2865817712
41,6,9,Ticks_ISO_T2_8,61,9999,9999,9999,2866617444
41,6,9,Ticks_ISO_T2_8,62,9999,9999,9999,2867417180
41,6,9,Ticks_ISO_T2_8,63,9999,9999,9999,2868217940
41,6,9,Ticks_ISO_T2_8,64,9999,9999,9999,2869017648
41,6,9,Ticks_ISO_T2_8,65,9999,9999,9999,2869817440
41,6,9,Ticks_ISO_T2_8,66,9999,9999,9999,2870617152
41,6,9,Ticks_ISO_T2_8,67,9999,9999,9999,2871417932
41,6,9,Ticks_ISO_T2_8,68,9999,9999,9999,2872217712
41,6,9,Ticks_ISO_T2_8,69,9999,9999,9999,2873017432
41,6,9,Ticks_ISO_T2_8,70,9999,9999,9999,2873817160
41,6,9,Ticks_ISO_T2_8,71,9999,9999,9999,2874617972
41,6,9,Ticks_ISO_T2_8,72,9999,9999,9999,2875417704
41,6,9,Ticks_ISO_T2_8,73,9999,9999,9999,2876217416
41,6,9,Ticks_ISO_T2_8,74,9999,9999,9999,2877017180
41,6,9,Ticks_ISO_T2_8,75,9999,9999,9999,2877817940
41,6,9,Ticks_ISO_T2_8,76,9999,9999,9999,2878617652
41,6,9,Ticks_ISO_T2_8,77,9999,9999,9999,2879417456
41,6,9,Ticks_ISO_T2_8,78,9999,9999,9999,2880217164
41,6,9,Ticks_ISO_T2_8,79,9999,9999,9999,2881017924
41,6,9,Ticks_ISO_T2_8,80,9999,9999,9999,2881817716
41,6,9,Ticks_ISO_T2_8,81,9999,9999,9999,2882617424
41,6,9,Ticks_ISO_T2_8,82,9999,9999,9999,2883417136
41,6,9,Ticks_ISO_T2_8,83,9999,9999,9999,2884217916
41,6,9,Ticks_ISO_T2_8,84,9999,9999,9999,2885017660
41,6,9,Ticks_ISO_T2_8,85,9999,9999,9999,2885817392
41,6,9,Ticks_ISO_T2_8,86,9999,9999,9999,2886617192
41,6,9,Ticks_ISO_T2_8,87,9999,9999,9999,2887417904
41,6,9,Ticks_ISO_T2_8,88,9999,9999,9999,2888217712
41,6,9,Ticks_ISO_T2_8,89,9999,9999,9999,2889017440
41,6,9,Ticks_ISO_T2_8,90,9999,9999,9999,2889817172
41,6,9,Ticks_ISO_T2_8,91,9999,9999,9999,2890617900
41,6,9,Ticks_ISO_T2_8,92,9999,9999,9999,2891417716
41,6,9,Ticks_ISO_T2_8,93,9999,9999,9999,2892217428
41,6,9,Ticks_ISO_T2_8,94,9999,9999,9999,2893017140
41,6,9,Ticks_ISO_T2_8,95,9999,9999,9999,2893817920
41,6,9,Ticks_ISO_T2_8,96,9999,9999,9999,2894617656
41,6,9,Ticks_ISO_T2_8,97,9999,9999,9999,2895417460
41,6,9,Ticks_ISO_T2_8,98,9999,9999,9999,2896217200
41,6,9,Ticks_ISO_T2_8,99,9999,9999,9999,2897017908
41,6,9,Ticks_ISO_T2_8,100,9999,9999,9999,2897817696
41,6,9,Ticks_ISO_T2_8,101,9999,9999,9999,2898617400
41,6,9,Ticks_ISO_T2_8,102,9999,9999,9999,2899417140
41,6,9,Ticks_ISO_T2_8,103,9999,9999,9999,2900217920
41,6,9,Ticks_ISO_T2_8,104,9999,9999,9999,2901017708
41,6,9,Ticks_ISO_T2_8,105,9999,9999,9999,2901817412
41,6,9,Ticks_ISO_T2_8,106,9999,9999,9999,2902617152
41,6,9,Ticks_ISO_T2_8,107,9999,9999,9999,2903417932
41,6,9,Ticks_ISO_T2_8,108,9999,9999,9999,2904217716
41,6,9,Ticks_ISO_T2_8,109,9999,9999,9999,2905017432
41,6,9,Ticks_ISO_T2_8,110,9999,9999,9999,2905817144
41,6,9,Ticks_ISO_T2_8,111,9999,9999,9999,2906617900
41,6,9,Ticks_ISO_T2_8,112,9999,9999,9999,2907417708
41,6,9,Ticks_ISO_T2_8,113,9999,9999,9999,2908217440
41,6,9,Ticks_ISO_T2_8,114,9999,9999,9999,2909017156
41,6,9,Ticks_ISO_T2_8,115,9999,9999,9999,2909817960
41,6,9,Ticks_ISO_T2_8,116,9999,9999,9999,2910617696
41,6,9,Ticks_ISO_T2_8,117,9999,9999,9999,2911417436
41,6,9,Ticks_ISO_T2_8,118,9999,9999,9999,2912217168
41,6,9,Ticks_ISO_T2_8,119,9999,9999,9999,2913017944
41,7,23,Ticks_Phase_5,0,5,42,127,2924041540
41,7,23,Ticks_Phase_5,1,5,42,127,2924542296
41,7,23,Ticks_Phase_5,2,1,48,65,2925001160
41,7,23,Ticks_Phase_5,3,1,48,44,2925033488
41,7,23,Ticks_Phase_5,4,5,42,127,2925041976
41,7,23,Ticks_Phase_5,5,5,42,127,2925541748
41,7,23,Ticks_Phase_5,6,1,48,74,2925565604
41,7,23,Ticks_Phase_5,7,1,48,38,2925618152
41,7,23,Ticks_Phase_5,8,5,42,127,2926041564
41,7,23,Ticks_Phase_5,9,1,48,83,2926070900
41,7,23,Ticks_Phase_5,10,1,48,51,2926103520
41,7,23,Ticks_Phase_5,11,5,42,127,2926542424
41,7,23,Ticks_Phase_5,12,1,48,89,2926571612
41,7,23,Ticks_Phase_5,13,1,48,62,2926598316
41,7,23,Ticks_Phase_5,14,5,42,127,2927041868
41,7,23,Ticks_Phase_5,15,1,48,92,2927091420
41,7,23,Ticks_Phase_5,16,1,48,50,2927124044
41,7,23,Ticks_Phase_5,17,1,48,86,2927541156
41,7,23,Ticks_Phase_5,18,5,42,127,2927542872
41,7,23,Ticks_Phase_5,19,1,48,55,2927565900
41,7,23,Ticks_Phase_5,20,5,42,127,2928042248
41,7,23,Ticks_Phase_5,21,1,48,78,2928078388
41,7,23,Ticks_Phase_5,22,1,48,54,2928102412
41,7,23,Ticks_Phase_5,23,5,42,127,2928542212
41,7,23,Ticks_Phase_5,24,1,48,81,2928558584
41,7,23,Ticks_Phase_5,25,1,48,54,2928584180
41,7,23,Ticks_Phase_5,26,5,42,127,2929041884
41,7,23,Ticks_Phase_5,27,1,48,70,2929046492
41,7,23,Ticks_Phase_5,28,5,42,127,2929541348
41,7,23,Ticks_Phase_5,29,1,48,71,2929551736
41,7,23,Ticks_Phase_5,30,5,42,127,2930042380
41,7,23,Ticks_Phase_5,31,1,48,77,2930069536
41,7,23,Ticks_Phase_5,32,1,48,51,2930095728
41,7,23,Ticks_Phase_5,33,5,42,127,2930541972
41,7,23,Ticks_Phase_5,34,1,48,77,2930570488
41,7,23,Ticks_Phase_5,35,1,48,50,2930598312
41,7,23,Ticks_Phase_5,36,5,42,127,2931041688
41,7,23,Ticks_Phase_5,37,1,48,67,2931059580
41,7,23,Ticks_Phase_5,38,5,42,127,2931542352
41,7,23,Ticks_Phase_5,39,1,48,76,2931565340
41,7,23,Ticks_Phase_5,40,1,48,53,2931592732
41,7,23,Ticks_Phase_5,41,5,42,127,2932042240
41,7,23,Ticks_Phase_5,42,1,48,61,2932058240
41,7,23,Ticks_Phase_5,43,1,48,43,2932088944
41,7,23,Ticks_Phase_5,44,5,42,127,2932542280
41,7,23,Ticks_Phase_5,45,1,48,69,2932597100
41,7,23,Ticks_Phase_5,46,1,48,45,2932631304
41,7,23,Ticks_Phase_5,47,5,42,127,2933041500
41,7,23,Ticks_Phase_5,48,1,48,73,2933057872
41,7,23,Ticks_Phase_5,49,1,48,52,2933084060
41,7,23,Ticks_Phase_5,50,5,42,127,2933542288
41,7,23,Ticks_Phase_5,51,1,48,66,2933577232
41,7,23,Ticks_Phase_5,52,1,48,50,2933607644
41,7,23,Ticks_Phase_5,53,1,48,68,2934034280
41,7,23,Ticks_Phase_5,54,5,42,127,2934042248
41,7,23,Ticks_Phase_5,55,1,48,50,2934062656
41,7,23,Ticks_Phase_5,56,1,48,66,2934516048
41,7,23,Ticks_Phase_5,57,1,48,51,2934541076
41,7,23,Ticks_Phase_5,58,5,42,127,2934542420
41,7,23,Ticks_Phase_5,59,5,42,127,2935042412
41,7,23,Ticks_Phase_5,60,1,48,73,2935059008
41,7,23,Ticks_Phase_5,61,5,42,127,2935552436
41,7,23,Ticks_Phase_5,62,1,48,70,2935567160
41,7,23,Ticks_Phase_5,63,1,48,46,2935595520
41,7,23,Ticks_Phase_5,64,5,42,127,2936052028
41,7,23,Ticks_Phase_5,65,1,48,73,2936074164
41,7,23,Ticks_Phase_5,66,5,42,127,2936551644
41,7,23,Ticks_Phase_5,67,1,48,70,2936556784
41,7,23,Ticks_Phase_5,68,1,48,67,2937045228
41,7,23,Ticks_Phase_5,69,5,42,127,2937051472
41,7,23,Ticks_Phase_5,70,1,48,67,2937549328
41,7,23,Ticks_Phase_5,71,5,42,127,2937552212
41,7,23,Ticks_Phase_5,72,5,42,127,2938051980
41,7,23,Ticks_Phase_5,73,1,48,67,2938072328
41,7,23,Ticks_Phase_5,74,5,42,127,2938552040
41,7,23,Ticks_Phase_5,75,1,48,62,2938600476
41,7,23,Ticks_Phase_5,76,5,42,127,2939042220
41,7,23,Ticks_Phase_5,77,1,48,70,2939094244
41,7,23,Ticks_Phase_5,78,1,48,56,2939116156
41,7,23,Ticks_Phase_5,79,5,42,127,2939541960
41,7,23,Ticks_Phase_5,80,1,48,67,2939553848
41,7,23,Ticks_Phase_5,81,1,48,54,2939575912
41,7,23,Ticks_Phase_5,82,5,42,127,2940041556
41,7,23,Ticks_Phase_5,83,1,48,91,2940056200
41,7,23,Ticks_Phase_5,84,1,48,60,2940083964
41,7,23,Ticks_Phase_5,85,5,42,127,2940542196
41,7,23,Ticks_Phase_5,86,1,48,78,2940565980
41,7,23,Ticks_Phase_5,87,1,48,61,2940587820
41,7,23,Ticks_Phase_5,88,5,42,127,2941042084
41,7,23,Ticks_Phase_5,89,1,48,94,2941088332
41,7,23,Ticks_Phase_5,90,1,48,58,2941111836
41,7,23,Ticks_Phase_5,91,5,42,127,2941541824
41,7,23,Ticks_Phase_5,92,1,48,78,2941549356
41,7,23,Ticks_Phase_5,93,1,48,69,2942041416
41,7,23,Ticks_Phase_5,94,5,42,127,2942043048
41,7,23,Ticks_Phase_5,95,5,42,127,2942542072
41,7,23,Ticks_Phase_5,96,1,48,77,2942561672
41,7,23,Ticks_Phase_5,97,1,38,19,2942571948
41,7,23,Ticks_Phase_5,98,1,48,68,2943039904
41,7,23,Ticks_Phase_5,99,5,42,127,2943041868
41,7,23,Ticks_Phase_5,100,1,48,49,2943065120
41,7,23,Ticks_Phase_5,101,5,42,127,2943541764
41,7,23,Ticks_Phase_5,102,1,48,65,2943560844
41,7,23,Ticks_Phase_5,103,1,48,46,2943588744
41,7,23,Ticks_Phase_5,104,5,42,127,2944042228
41,7,23,Ticks_Phase_5,105,1,48,67,2944052088
41,7,23,Ticks_Phase_5,106,1,38,17,2944061956
41,7,23,Ticks_Phase_5,107,5,42,127,2944542020
41,7,23,Ticks_Phase_5,108,1,48,62,2944557940
41,7,23,Ticks_Phase_5,109,1,48,65,2945035004
41,7,23,Ticks_Phase_5,110,5,42,127,2945041700
41,7,23,Ticks_Phase_5,111,1,48,48,2945061880
41,7,23,Ticks_Phase_5,112,1,48,61,2945527328
41,7,23,Ticks_Phase_5,113,5,42,127,2945541592
41,7,23,Ticks_Phase_5,114,1,48,45,2945554656
41,7,23,Ticks_Phase_5,115,5,42,127,2946042236
41,7,23,Ticks_Phase_5,116,1,48,76,2946047600
41,7,23,Ticks_Phase_5,117,1,48,50,2946073868
41,7,23,Ticks_Phase_5,118,5,42,127,2946541900
41,7,23,Ticks_Phase_5,119,1,48,60,2946577596
41,7,23,Ticks_Phase_5,120,1,48,41,2946615616
41,7,23,Ticks_Phase_5,121,5,42,127,2947041940
41,7,23,Ticks_Phase_5,122,1,48,77,2947062892
41,7,23,Ticks_Phase_5,123,5,42,127,2947542380
41,7,23,Ticks_Phase_5,124,1,48,71,2947558152
41,7,23,Ticks_Phase_5,125,1,48,53,2947582252
41,7,23,Ticks_Phase_5,126,5,42,127,2948052236
41,7,23,Ticks_Phase_5,127,1,48,64,2948068680
41,7,23,Ticks_Phase_5,128,1,48,48,2948095544
41,7,23,Ticks_Phase_5,129,5,42,127,2948551900
41,7,23,Ticks_Phase_5,130,1,48,71,2948556736
41,7,23,Ticks_Phase_5,131,1,48,52,2948581212
41,7,23,Ticks_Phase_5,132,5,42,127,2949051716
41,7,23,Ticks_Phase_5,133,1,48,77,2949085984
41,7,23,Ticks_Phase_5,134,1,48,58,2949110608
41,7,23,Ticks_Phase_5,135,1,48,64,2949542064
41,7,23,Ticks_Phase_5,136,5,42,127,2949551600
41,7,23,Ticks_Phase_5,137,5,42,127,2950052116
41,7,23,Ticks_Phase_5,138,1,48,73,2950065196
41,7,23,Ticks_Phase_5,139,1,48,45,2950097004
41,7,23,Ticks_Phase_5,140,5,42,127,2950551932
41,7,23,Ticks_Phase_5,141,1,48,69,2950559464
41,7,23,Ticks_Phase_5,142,1,48,45,2950590980
41,7,23,Ticks_Phase_5,143,1,48,73,2951030744
41,7,23,Ticks_Phase_5,144,5,42,127,2951051740
41,7,23,Ticks_Phase_5,145,1,48,48,2951060464
41,7,23,Ticks_Phase_5,146,5,42,127,2951552836
41,7,23,Ticks_Phase_5,147,1,48,74,2951560384
41,7,23,Ticks_Phase_5,148,1,48,56,2951584992
41,7,23,Ticks_Phase_5,149,1,48,73,2952050920
41,7,23,Ticks_Phase_5,150,5,42,127,2952052716
41,7,23,Ticks_Phase_5,151,1,48,51,2952076644
41,7,23,Ticks_Phase_5,152,5,42,127,2952551720
41,7,23,Ticks_Phase_5,153,1,48,72,2952565616
41,7,23,Ticks_Phase_5,154,5,42,127,2953051680
41,7,23,Ticks_Phase_5,155,1,48,86,2953060424
41,7,23,Ticks_Phase_5,156,5,42,127,2953552316
41,7,23,Ticks_Phase_5,157,1,48,66,2953557528
41,7,23,Ticks_Phase_5,158,5,42,127,2954052004
41,7,23,Ticks_Phase_5,159,1,48,67,2954056772
41,7,23,Ticks_Phase_5,160,1,48,62,2954547460
41,7,23,Ticks_Phase_5,161,5,42,127,2954551612
41,7,23,Ticks_Phase_5,162,1,48,70,2955049836
41,7,23,Ticks_Phase_5,163,5,42,127,2955052644
41,7,23,Ticks_Phase_5,164,1,48,67,2955539192
41,7,23,Ticks_Phase_5,165,5,42,127,2955552408
41,7,23,Ticks_Phase_5,166,1,48,50,2955563828
41,7,23,Ticks_Phase_5,167,1,48,69,2956043812
41,7,23,Ticks_Phase_5,168,1,48,52,2956066324
41,7,23,Ticks_Phase_5,169,5,42,127,2956072424
41,7,23,Ticks_Phase_5,170,5,42,127,2956572120
41,7,23,Ticks_Phase_5,171,1,48,70,2956579880
41,7,23,Ticks_Phase_5,172,5,42,127,2957071660
41,7,23,Ticks_Phase_5,173,1,48,68,2957082872
41,7,23,Ticks_Phase_5,174,5,42,127,2957571348
41,7,23,Ticks_Phase_5,175,1,48,71,2957603004
41,7,23,Ticks_Phase_5,176,1,48,48,2957631364
41,7,23,Ticks_Phase_5,177,1,48,68,2958051440
41,7,23,Ticks_Phase_5,178,5,42,127,2958072132
41,7,23,Ticks_Phase_5,179,1,48,61,2958553964
41,7,23,Ticks_Phase_5,180,5,42,127,2958571892
41,7,23,Ticks_Phase_5,181,5,42,127,2959071664
41,7,23,Ticks_Phase_5,182,1,48,76,2959078452
41,7,23,Ticks_Phase_5,183,1,48,55,2959103372
41,7,23,Ticks_Phase_5,184,1,48,63,2959569416
41,7,23,Ticks_Phase_5,185,5,42,127,2959572300
41,7,23,Ticks_Phase_5,186,1,48,72,2960064768
41,7,23,Ticks_Phase_5,187,5,42,127,2960071988
41,7,23,Ticks_Phase_5,188,1,48,51,2960090228
41,7,23,Ticks_Phase_5,189,1,48,75,2960563316
41,7,23,Ticks_Phase_5,190,5,42,127,2960571656
41,7,23,Ticks_Phase_5,191,5,42,127,2961071576
41,7,23,Ticks_Phase_5,192,1,48,86,2961101208
41,7,23,Ticks_Phase_5,193,1,38,19,2961111076
41,7,23,Ticks_Phase_5,194,5,42,127,2961572412
41,7,23,Ticks_Phase_5,195,1,48,76,2961577180
41,7,23,Ticks_Phase_5,196,5,42,127,2962071876
41,7,23,Ticks_Phase_5,197,1,48,71,2962075216
41,7,23,Ticks_Phase_5,198,5,42,127,2962571640
41,7,23,Ticks_Phase_5,199,1,48,87,2962581052
41,7,23,Ticks_Phase_5,200,1,48,47,2962611660
41,7,23,Ticks_Phase_5,201,5,42,127,2963072352
41,7,23,Ticks_Phase_5,202,1,48,93,2963082588
41,7,23,Ticks_Phase_5,203,1,48,74,2963570148
41,7,23,Ticks_Phase_5,204,5,42,127,2963572256
41,7,23,Ticks_Phase_5,205,5,42,127,2964071652
41,7,23,Ticks_Phase_5,206,1,48,63,2964083236
41,7,23,Ticks_Phase_5,207,5,42,127,2964552068
41,7,23,Ticks_Phase_5,208,1,48,70,2964580156
41,7,23,Ticks_Phase_5,209,5,42,127,2965052132
41,7,23,Ticks_Phase_5,210,1,48,72,2965056072
41,7,23,Ticks_Phase_5,211,1,48,64,2965547060
41,7,23,Ticks_Phase_5,212,5,42,127,2965551440
41,7,23,Ticks_Phase_5,213,1,48,60,2966052624
41,7,23,Ticks_Phase_5,214,5,42,127,2966053968
41,7,23,Ticks_Phase_5,215,5,42,127,2966552016
41,7,23,Ticks_Phase_5,216,1,48,65,2966559324
41,7,23,Ticks_Phase_5,217,5,42,127,2967051632
41,7,23,Ticks_Phase_5,218,1,48,70,2967071604
41,7,23,Ticks_Phase_5,219,1,48,67,2967547684
41,7,23,Ticks_Phase_5,220,5,42,127,2967552360
41,7,23,Ticks_Phase_5,221,5,42,127,2968052056
41,7,23,Ticks_Phase_5,222,1,48,61,2968061096
41,7,23,Ticks_Phase_5,223,5,42,127,2968552040
41,7,23,Ticks_Phase_5,224,1,48,64,2968581528
41,7,23,Ticks_Phase_5,225,5,42,127,2969051432
41,7,23,Ticks_Phase_5,226,1,48,69,2969079032
41,7,23,Ticks_Phase_5,227,1,48,56,2969532136
41,7,23,Ticks_Phase_5,228,5,42,127,2969552232
41,7,23,Ticks_Phase_5,229,5,42,127,2970051852
41,7,23,Ticks_Phase_5,230,1,48,73,2970053264
41,7,23,Ticks_Phase_5,231,1,48,51,2970078312
41,7,23,Ticks_Phase_5,232,5,42,127,2970551668
41,7,23,Ticks_Phase_5,233,1,48,75,2970554336
41,7,23,Ticks_Phase_5,234,1,48,50,2970583152
41,7,23,Ticks_Phase_5,235,1,48,64,2971039680
41,7,23,Ticks_Phase_5,236,5,42,127,2971052376
41,7,23,Ticks_Phase_5,237,5,42,127,2971552220
41,7,23,Ticks_Phase_5,238,1,48,70,2971558480
41,7,23,Ticks_Phase_5,239,5,42,127,2972052056
41,7,23,Ticks_Phase_5,240,1,48,64,2972070460
41,7,23,Ticks_Phase_5,241,5,42,127,2972502444
41,7,23,Ticks_Phase_5,242,1,48,67,2972547000
41,7,23,Ticks_Phase_5,243,1,48,76,2972980980
41,7,23,Ticks_Phase_5,244,5,42,127,2973002052
41,7,23,Ticks_Phase_5,245,1,48,52,2973005452
41,7,23,Ticks_Phase_5,246,1,48,74,2973488428
41,7,23,Ticks_Phase_5,247,5,42,127,2973501792
41,7,23,Ticks_Phase_5,248,1,48,68,2973975016
41,7,23,Ticks_Phase_5,249,1,48,47,2974002736
41,7,23,Ticks_Phase_5,250,5,42,127,2974003928
41,7,23,Ticks_Phase_5,251,1,48,72,2974467936
41,7,23,Ticks_Phase_5,252,1,48,44,2974503600
41,7,23,Ticks_Phase_5,253,5,42,127,2974504788
41,7,23,Ticks_Phase_5,254,1,48,84,2974978540
41,7,23,Ticks_Phase_5,255,5,42,127,2975002012
41,7,23,Ticks_Phase_5,256,1,48,50,2975009752
41,7,23,Ticks_Phase_5,257,1,48,74,2975491692
41,7,23,Ticks_Phase_5,258,5,42,127,2975501904
41,7,23,Ticks_Phase_5,259,1,48,45,2975530328
41,7,23,Ticks_Phase_5,260,1,48,72,2975984388
41,7,23,Ticks_Phase_5,261,5,42,127,2976002392
41,7,23,Ticks_Phase_5,262,1,48,40,2976028260
41,7,23,Ticks_Phase_5,263,5,42,127,2976512324
41,7,23,Ticks_Phase_5,264,1,48,65,2976515444
41,7,23,Ticks_Phase_5,265,1,48,31,2976565520
41,7,23,Ticks_Phase_5,266,5,42,127,2977012064
41,7,23,Ticks_Phase_5,267,1,48,64,2977013928
41,7,23,Ticks_Phase_5,268,1,48,43,2977050288
41,7,23,Ticks_Phase_5,269,5,42,127,2977511728
41,7,23,Ticks_Phase_5,270,1,48,70,2977523912
41,7,23,Ticks_Phase_5,271,1,48,49,2977562528
41,7,23,Ticks_Phase_5,272,1,48,68,2977994060
41,7,23,Ticks_Phase_5,273,5,42,127,2978011984
41,7,23,Ticks_Phase_5,274,1,48,46,2978027296
41,7,23,Ticks_Phase_5,275,1,48,69,2978484960
41,7,23,Ticks_Phase_5,276,5,42,127,2978512252
41,7,23,Ticks_Phase_5,277,1,48,67,2979010588
41,7,23,Ticks_Phase_5,278,5,42,127,2979012240
41,7,23,Ticks_Phase_5,279,1,48,71,2979503660
41,7,23,Ticks_Phase_5,280,5,42,127,2979511704
41,7,23,Ticks_Phase_5,281,1,48,72,2980001180
41,7,23,Ticks_Phase_5,282,5,42,127,2980012736
41,7,23,Ticks_Phase_5,283,1,48,74,2980486784
41,7,23,Ticks_Phase_5,284,5,42,127,2980512128
41,7,23,Ticks_Phase_5,285,1,48,71,2980993812
41,7,23,Ticks_Phase_5,286,5,42,127,2981061916
41,7,23,Ticks_Phase_5,287,1,48,65,2981524656
41,7,23,Ticks_Phase_5,288,5,42,127,2981561752
41,7,23,Ticks_Phase_5,289,1,48,64,2982018572
41,7,23,Ticks_Phase_5,290,5,42,127,2982061888
41,7,23,Ticks_Phase_5,291,1,48,67,2982534440
41,7,23,Ticks_Phase_5,292,5,42,127,2982562100
41,7,23,Ticks_Phase_5,293,1,48,62,2983033228
41,7,23,Ticks_Phase_5,294,1,48,45,2983063268
41,7,23,Ticks_Phase_5,295,5,42,127,2983064236
41,7,23,Ticks_Phase_5,296,5,42,127,2983561540
41,7,23,Ticks_Phase_5,297,1,48,63,2983599340
41,7,23,Ticks_Phase_5,298,5,42,127,2984062572
41,7,23,Ticks_Phase_5,299,1,48,65,2984072516
41,7,23,Ticks_Phase_5,300,5,42,127,2984562040
41,7,23,Ticks_Phase_5,301,1,48,69,2984574668
41,7,23,Ticks_Phase_5,302,1,48,48,2984625568
41,7,23,Ticks_Phase_5,303,1,48,79,2985048980
41,7,23,Ticks_Phase_5,304,5,42,127,2985061700
41,7,23,Ticks_Phase_5,305,1,48,43,2985100308
41,7,23,Ticks_Phase_5,306,5,42,127,2985561496
41,7,23,Ticks_Phase_5,307,1,48,81,2985568656
41,7,23,Ticks_Phase_5,308,1,48,50,2985612400
41,7,23,Ticks_Phase_5,309,5,42,127,2986062360
41,7,23,Ticks_Phase_5,310,1,48,78,2986073492
41,7,23,Ticks_Phase_5,311,5,42,127,2986561820
41,7,23,Ticks_Phase_5,312,1,48,78,2986576024
41,7,23,Ticks_Phase_5,313,1,48,41,2986619604
41,7,23,Ticks_Phase_5,314,1,48,75,2987048860
41,7,23,Ticks_Phase_5,315,5,42,127,2987061556
41,7,23,Ticks_Phase_5,316,1,48,51,2987077384
41,7,23,Ticks_Phase_5,317,5,42,127,2987562648
41,7,23,Ticks_Phase_5,318,1,48,70,2987574904
41,7,23,Ticks_Phase_5,319,1,48,76,2988059916
41,7,23,Ticks_Phase_5,320,5,42,127,2988061960
41,7,23,Ticks_Phase_5,321,1,48,48,2988094264
41,7,23,Ticks_Phase_5,322,1,48,73,2988561632
41,7,23,Ticks_Phase_5,323,5,42,127,2988563340
41,7,23,Ticks_Phase_5,324,1,48,40,2988606964
41,7,23,Ticks_Phase_5,325,5,42,127,2989061448
41,7,23,Ticks_Phase_5,326,1,48,76,2989080224
41,7,23,Ticks_Phase_5,327,1,48,37,2989128720
41,7,23,Ticks_Phase_5,328,1,48,78,2989572084
41,7,23,Ticks_Phase_5,329,5,42,127,2989661676
41,7,23,Ticks_Phase_5,330,5,42,127,2990162492
41,7,23,Ticks_Phase_5,331,1,48,24,2990480120
41,7,23,Ticks_Phase_5,332,5,42,127,2990661960
41,7,23,Ticks_Phase_5,333,1,48,54,2990796676
41,7,23,Ticks_Phase_5,334,5,42,127,2991161720
41,7,23,Ticks_Phase_5,335,1,48,62,2991207996
41,7,23,Ticks_Phase_5,336,1,48,75,2991655752
41,7,23,Ticks_Phase_5,337,5,42,127,2991661404
41,7,23,Ticks_Phase_5,338,1,48,51,2991681136
41,7,23,Ticks_Phase_5,339,5,42,127,2992162120
41,7,23,Ticks_Phase_5,340,1,48,80,2992170564
41,7,23,Ticks_Phase_5,341,1,48,54,2992196668
41,7,23,Ticks_Phase_5,342,1,48,77,2992661484
41,7,23,Ticks_Phase_5,343,5,42,127,2992663200
41,7,23,Ticks_Phase_5,344,1,48,49,2992692524
41,7,23,Ticks_Phase_5,345,1,48,69,2993161828
41,7,23,Ticks_Phase_5,346,5,42,127,2993163240
41,7,23,Ticks_Phase_5,347,1,48,50,2993187988
41,7,23,Ticks_Phase_5,348,1,48,78,2993659800
41,7,23,Ticks_Phase_5,349,5,42,127,2993662308
41,7,23,Ticks_Phase_5,350,5,42,127,2994162300
41,7,23,Ticks_Phase_5,351,1,48,74,2994171944
41,7,23,Ticks_Phase_5,352,1,48,52,2994197076
41,7,23,Ticks_Phase_5,353,1,48,76,2994661448
41,7,23,Ticks_Phase_5,354,5,42,127,2994663232
41,7,23,Ticks_Phase_5,355,1,48,49,2994689192
41,7,23,Ticks_Phase_5,356,1,48,77,2995147364
41,7,23,Ticks_Phase_5,357,5,42,127,2995161404
41,7,23,Ticks_Phase_5,358,1,48,49,2995177836
41,7,23,Ticks_Phase_5,359,1,48,80,2995657440
41,7,23,Ticks_Phase_5,360,5,42,127,2995662120
41,7,23,Ticks_Phase_5,361,1,48,54,2995685216
41,7,23,Ticks_Phase_5,362,5,42,127,2996162016
41,7,23,Ticks_Phase_5,363,1,48,82,2996180124
41,7,23,Ticks_Phase_5,364,1,48,50,2996209292
41,7,23,Ticks_Phase_5,365,5,42,127,2996661536
41,7,23,Ticks_Phase_5,366,1,48,83,2996673116
41,7,23,Ticks_Phase_5,367,1,48,53,2996698924
41,7,23,Ticks_Phase_5,368,1,48,75,2997137120
41,7,23,Ticks_Phase_5,369,5,42,127,2997162316
41,7,23,Ticks_Phase_5,370,1,48,49,2997166764
41,7,23,Ticks_Phase_5,371,5,42,127,2997662284
41,7,23,Ticks_Phase_5,372,1,48,73,2997665928
41,7,23,Ticks_Phase_5,373,1,48,52,2997690924
41,7,23,Ticks_Phase_5,374,5,42,127,2998161876
41,7,23,Ticks_Phase_5,375,1,48,71,2998197644
41,7,23,Ticks_Phase_5,376,1,48,46,2998227352
41,7,23,Ticks_Phase_5,377,5,42,127,2998661544
41,7,23,Ticks_Phase_5,378,1,48,62,2998675072
41,7,23,Ticks_Phase_5,379,1,48,38,2998712352
41,7,23,Ticks_Phase_5,380,5,42,127,2999062036
41,7,23,Ticks_Phase_5,381,1,48,65,2999145084
41,7,23,Ticks_Phase_5,382,1,48,43,2999184004
41,7,23,Ticks_Phase_5,383,5,42,127,2999561480
41,7,23,Ticks_Phase_5,384,1,48,53,2999671416
41,7,23,Ticks_Phase_5,385,5,42,127,3000062288
41,7,23,Ticks_Phase_5,386,1,48,50,3000138268
41,7,23,Ticks_Phase_5,387,5,42,127,3000562128
41,7,23,Ticks_Phase_5,388,1,48,54,3000592132
41,7,23,Ticks_Phase_5,389,1,48,42,3001054812
41,7,23,Ticks_Phase_5,390,5,42,127,3001061808
41,7,23,Ticks_Phase_5,391,5,42,127,3001561504
41,7,23,Ticks_Phase_5,392,1,48,65,3001570992
41,7,23,Ticks_Phase_5,393,1,48,58,3002062164
41,7,23,Ticks_Phase_5,394,5,42,127,3002063952
41,7,23,Ticks_Phase_5,395,1,48,58,3002556944
41,7,23,Ticks_Phase_5,396,5,42,127,3002561844
41,7,23,Ticks_Phase_5,397,1,48,47,3003061836
41,7,23,Ticks_Phase_5,398,5,42,127,3003063328
41,7,23,Ticks_Phase_5,399,1,48,54,3003544640
41,7,23,Ticks_Phase_5,400,5,42,127,3003562416
41,7,23,Ticks_Phase_5,401,5,42,127,3004062112
41,7,23,Ticks_Phase_5,402,1,48,58,3004072128
41,7,23,Ticks_Phase_5,403,1,48,40,3004104152
41,7,23,Ticks_Phase_5,404,1,48,65,3004555524
41,7,23,Ticks_Phase_5,405,5,42,127,3004562068
41,7,23,Ticks_Phase_5,406,1,48,43,3004589224
41,7,23,Ticks_Phase_5,407,1,48,62,3005050484
41,7,23,Ticks_Phase_5,408,5,42,127,3005061444
41,7,23,Ticks_Phase_5,409,1,48,44,3005081024
41,7,23,Ticks_Phase_5,410,1,48,64,3005539052
41,7,23,Ticks_Phase_5,411,5,42,127,3005562080
41,7,23,Ticks_Phase_5,412,1,48,45,3005567724
41,7,23,Ticks_Phase_5,413,5,42,127,3006061900
41,7,23,Ticks_Phase_5,414,1,48,57,3006073036
41,7,23,Ticks_Phase_5,415,1,48,59,3006540264
41,7,23,Ticks_Phase_5,416,5,42,127,3006561732
41,7,23,Ticks_Phase_5,417,1,48,43,3006568272
41,7,23,Ticks_Phase_5,418,5,42,127,3007062352
41,7,23,Ticks_Phase_5,419,1,48,57,3007068316
41,7,23,Ticks_Phase_5,420,1,48,43,3007096028
41,7,23,Ticks_Phase_5,421,1,48,53,3007554792
41,7,23,Ticks_Phase_5,422,5,42,127,3007562084
41,7,23,Ticks_Phase_5,423,5,42,127,3008061928
41,7,23,Ticks_Phase_5,424,1,48,63,3008072016
41,7,23,Ticks_Phase_5,425,1,48,56,3008544204
41,7,23,Ticks_Phase_5,426,5,42,127,3008561608
41,7,23,Ticks_Phase_5,0,9999,9999,9999,2924039252
41,7,23,Ticks_Phase_5,1,9999,9999,9999,2924540008
41,7,23,Ticks_Phase_5,2,9999,9999,9999,2925039692
41,7,23,Ticks_Phase_5,3,9999,9999,9999,2925539384
41,7,23,Ticks_Phase_5,4,9999,9999,9999,2926039128
41,7,23,Ticks_Phase_5,5,9999,9999,9999,2926539840
41,7,23,Ticks_Phase_5,6,9999,9999,9999,2927039580
41,7,23,Ticks_Phase_5,7,9999,9999,9999,2927539324
41,7,23,Ticks_Phase_5,8,9999,9999,9999,2928040036
41,7,23,Ticks_Phase_5,9,9999,9999,9999,2928539776
41,7,23,Ticks_Phase_5,10,9999,9999,9999,2929039448
41,7,23,Ticks_Phase_5,11,9999,9999,9999,2929539132
41,7,23,Ticks_Phase_5,12,9999,9999,9999,2930039872
41,7,23,Ticks_Phase_5,13,9999,9999,9999,2930539612
41,7,23,Ticks_Phase_5,14,9999,9999,9999,2931039328
41,7,23,Ticks_Phase_5,15,9999,9999,9999,2931540064
41,7,23,Ticks_Phase_5,16,9999,9999,9999,2932039804
41,7,23,Ticks_Phase_5,17,9999,9999,9999,2932539472
41,7,23,Ticks_Phase_5,18,9999,9999,9999,2933039212
41,7,23,Ticks_Phase_5,19,9999,9999,9999,2933539928
41,7,23,Ticks_Phase_5,20,9999,9999,9999,2934039664
41,7,23,Ticks_Phase_5,21,9999,9999,9999,2934539332
41,7,23,Ticks_Phase_5,22,9999,9999,9999,2935040128
41,7,23,Ticks_Phase_5,23,9999,9999,9999,2935550072
41,7,23,Ticks_Phase_5,24,9999,9999,9999,2936049740
41,7,23,Ticks_Phase_5,25,9999,9999,9999,2936549432
41,7,23,Ticks_Phase_5,26,9999,9999,9999,2937049188
41,7,23,Ticks_Phase_5,27,9999,9999,9999,2937549924
41,7,23,Ticks_Phase_5,28,9999,9999,9999,2938049620
41,7,23,Ticks_Phase_5,29,9999,9999,9999,2938549308
41,7,23,Ticks_Phase_5,30,9999,9999,9999,2939039860
41,7,23,Ticks_Phase_5,31,9999,9999,9999,2939539524
41,7,23,Ticks_Phase_5,32,9999,9999,9999,2940039268
41,7,23,Ticks_Phase_5,33,9999,9999,9999,2940539980
41,7,23,Ticks_Phase_5,34,9999,9999,9999,2941039724
41,7,23,Ticks_Phase_5,35,9999,9999,9999,2941539440
41,7,23,Ticks_Phase_5,36,9999,9999,9999,2942039128
41,7,23,Ticks_Phase_5,37,9999,9999,9999,2942539860
41,7,23,Ticks_Phase_5,38,9999,9999,9999,2943039620
41,7,23,Ticks_Phase_5,39,9999,9999,9999,2943539256
41,7,23,Ticks_Phase_5,40,9999,9999,9999,2944040016
41,7,23,Ticks_Phase_5,41,9999,9999,9999,2944539732
41,7,23,Ticks_Phase_5,42,9999,9999,9999,2945039416
41,7,23,Ticks_Phase_5,43,9999,9999,9999,2945539156
41,7,23,Ticks_Phase_5,44,9999,9999,9999,2946039876
41,7,23,Ticks_Phase_5,45,9999,9999,9999,2946539616
41,7,23,Ticks_Phase_5,46,9999,9999,9999,2947039356
41,7,23,Ticks_Phase_5,47,9999,9999,9999,2947540092
41,7,23,Ticks_Phase_5,48,9999,9999,9999,2948050020
41,7,23,Ticks_Phase_5,49,9999,9999,9999,2948549688
41,7,23,Ticks_Phase_5,50,9999,9999,9999,2949049428
41,7,23,Ticks_Phase_5,51,9999,9999,9999,2949549164
41,7,23,Ticks_Phase_5,52,9999,9999,9999,2950049904
41,7,23,Ticks_Phase_5,53,9999,9999,9999,2950549572
41,7,23,Ticks_Phase_5,54,9999,9999,9999,2951049304
41,7,23,Ticks_Phase_5,55,9999,9999,9999,2951550028
41,7,23,Ticks_Phase_5,56,9999,9999,9999,2952049768
41,7,23,Ticks_Phase_5,57,9999,9999,9999,2952549432
41,7,23,Ticks_Phase_5,58,9999,9999,9999,2953049172
41,7,23,Ticks_Phase_5,59,9999,9999,9999,2953549880
41,7,23,Ticks_Phase_5,60,9999,9999,9999,2954049644
41,7,23,Ticks_Phase_5,61,9999,9999,9999,2954549324
41,7,23,Ticks_Phase_5,62,9999,9999,9999,2955050060
41,7,23,Ticks_Phase_5,63,9999,9999,9999,2955549824
41,7,23,Ticks_Phase_5,64,9999,9999,9999,2956069988
41,7,23,Ticks_Phase_5,65,9999,9999,9999,2956569684
41,7,23,Ticks_Phase_5,66,9999,9999,9999,2957069376
41,7,23,Ticks_Phase_5,67,9999,9999,9999,2957569136
41,7,23,Ticks_Phase_5,68,9999,9999,9999,2958069844
41,7,23,Ticks_Phase_5,69,9999,9999,9999,2958569532
41,7,23,Ticks_Phase_5,70,9999,9999,9999,2959069304
41,7,23,Ticks_Phase_5,71,9999,9999,9999,2959570012
41,7,23,Ticks_Phase_5,72,9999,9999,9999,2960069700
41,7,23,Ticks_Phase_5,73,9999,9999,9999,2960569444
41,7,23,Ticks_Phase_5,74,9999,9999,9999,2961069140
41,7,23,Ticks_Phase_5,75,9999,9999,9999,2961569900
41,7,23,Ticks_Phase_5,76,9999,9999,9999,2962069588
41,7,23,Ticks_Phase_5,77,9999,9999,9999,2962569276
41,7,23,Ticks_Phase_5,78,9999,9999,9999,2963070064
41,7,23,Ticks_Phase_5,79,9999,9999,9999,2963569776
41,7,23,Ticks_Phase_5,80,9999,9999,9999,2964069440
41,7,23,Ticks_Phase_5,81,9999,9999,9999,2964549708
41,7,23,Ticks_Phase_5,82,9999,9999,9999,2965049396
41,7,23,Ticks_Phase_5,83,9999,9999,9999,2965549152
41,7,23,Ticks_Phase_5,84,9999,9999,9999,2966049892
41,7,23,Ticks_Phase_5,85,9999,9999,9999,2966549580
41,7,23,Ticks_Phase_5,86,9999,9999,9999,2967049268
41,7,23,Ticks_Phase_5,87,9999,9999,9999,2967550072
41,7,23,Ticks_Phase_5,88,9999,9999,9999,2968049768
41,7,23,Ticks_Phase_5,89,9999,9999,9999,2968549456
41,7,23,Ticks_Phase_5,90,9999,9999,9999,2969049144
41,7,23,Ticks_Phase_5,91,9999,9999,9999,2969549944
41,7,23,Ticks_Phase_5,92,9999,9999,9999,2970049640
41,7,23,Ticks_Phase_5,93,9999,9999,9999,2970549308
41,7,23,Ticks_Phase_5,94,9999,9999,9999,2971050088
41,7,23,Ticks_Phase_5,95,9999,9999,9999,2971549784
41,7,23,Ticks_Phase_5,96,9999,9999,9999,2972049472
41,7,23,Ticks_Phase_5,97,9999,9999,9999,2972500084
41,7,23,Ticks_Phase_5,98,9999,9999,9999,2972999764
41,7,23,Ticks_Phase_5,99,9999,9999,9999,2973499508
41,7,23,Ticks_Phase_5,100,9999,9999,9999,2973999196
41,7,23,Ticks_Phase_5,101,9999,9999,9999,2974499908
41,7,23,Ticks_Phase_5,102,9999,9999,9999,2974999652
41,7,23,Ticks_Phase_5,103,9999,9999,9999,2975499320
41,7,23,Ticks_Phase_5,104,9999,9999,9999,2976000108
41,7,23,Ticks_Phase_5,105,9999,9999,9999,2976510036
41,7,23,Ticks_Phase_5,106,9999,9999,9999,2977009776
41,7,23,Ticks_Phase_5,107,9999,9999,9999,2977509444
41,7,23,Ticks_Phase_5,108,9999,9999,9999,2978009180
41,7,23,Ticks_Phase_5,109,9999,9999,9999,2978509892
41,7,23,Ticks_Phase_5,110,9999,9999,9999,2979009660
41,7,23,Ticks_Phase_5,111,9999,9999,9999,2979509344
41,7,23,Ticks_Phase_5,112,9999,9999,9999,2980010076
41,7,23,Ticks_Phase_5,113,9999,9999,9999,2980509764
41,7,23,Ticks_Phase_5,114,9999,9999,9999,2981059704
41,7,23,Ticks_Phase_5,115,9999,9999,9999,2981559392
41,7,23,Ticks_Phase_5,116,9999,9999,9999,2982059080
41,7,23,Ticks_Phase_5,117,9999,9999,9999,2982559816
41,7,23,Ticks_Phase_5,118,9999,9999,9999,2983059580
41,7,23,Ticks_Phase_5,119,9999,9999,9999,2983559252
41,7,23,Ticks_Phase_5,120,9999,9999,9999,2984059988
41,7,23,Ticks_Phase_5,121,9999,9999,9999,2984559680
41,7,23,Ticks_Phase_5,122,9999,9999,9999,2985059412
41,7,23,Ticks_Phase_5,123,9999,9999,9999,2985559136
41,7,23,Ticks_Phase_5,124,9999,9999,9999,2986059848
41,7,23,Ticks_Phase_5,125,9999,9999,9999,2986559608
41,7,23,Ticks_Phase_5,126,9999,9999,9999,2987059268
41,7,23,Ticks_Phase_5,127,9999,9999,9999,2987560064
41,7,23,Ticks_Phase_5,128,9999,9999,9999,2988059708
41,7,23,Ticks_Phase_5,129,9999,9999,9999,2988559420
41,7,23,Ticks_Phase_5,130,9999,9999,9999,2989059160
41,7,23,Ticks_Phase_5,131,9999,9999,9999,2989659240
41,7,23,Ticks_Phase_5,132,9999,9999,9999,2990159984
41,7,23,Ticks_Phase_5,133,9999,9999,9999,2990659672
41,7,23,Ticks_Phase_5,134,9999,9999,9999,2991159360
41,7,23,Ticks_Phase_5,135,9999,9999,9999,2991659116
41,7,23,Ticks_Phase_5,136,9999,9999,9999,2992159832
41,7,23,Ticks_Phase_5,137,9999,9999,9999,2992659576
41,7,23,Ticks_Phase_5,138,9999,9999,9999,2993159244
41,7,23,Ticks_Phase_5,139,9999,9999,9999,2993660020
41,7,23,Ticks_Phase_5,140,9999,9999,9999,2994159716
41,7,23,Ticks_Phase_5,141,9999,9999,9999,2994659384
41,7,23,Ticks_Phase_5,142,9999,9999,9999,2995159116
41,7,23,Ticks_Phase_5,143,9999,9999,9999,2995659832
41,7,23,Ticks_Phase_5,144,9999,9999,9999,2996159580
41,7,23,Ticks_Phase_5,145,9999,9999,9999,2996659320
41,7,23,Ticks_Phase_5,146,9999,9999,9999,2997160028
41,7,23,Ticks_Phase_5,147,9999,9999,9999,2997659700
41,7,23,Ticks_Phase_5,148,9999,9999,9999,2998159440
41,7,23,Ticks_Phase_5,149,9999,9999,9999,2998659184
41,7,23,Ticks_Phase_5,150,9999,9999,9999,2999059524
41,7,23,Ticks_Phase_5,151,9999,9999,9999,2999559268
41,7,23,Ticks_Phase_5,152,9999,9999,9999,3000060000
41,7,23,Ticks_Phase_5,153,9999,9999,9999,3000559688
41,7,23,Ticks_Phase_5,154,9999,9999,9999,3001059448
41,7,23,Ticks_Phase_5,155,9999,9999,9999,3001559140
41,7,23,Ticks_Phase_5,156,9999,9999,9999,3002059876
41,7,23,Ticks_Phase_5,157,9999,9999,9999,3002559556
41,7,23,Ticks_Phase_5,158,9999,9999,9999,3003059324
41,7,23,Ticks_Phase_5,159,9999,9999,9999,3003560056
41,7,23,Ticks_Phase_5,160,9999,9999,9999,3004059748
41,7,23,Ticks_Phase_5,161,9999,9999,9999,3004559484
41,7,23,Ticks_Phase_5,162,9999,9999,9999,3005059156
41,7,23,Ticks_Phase_5,163,9999,9999,9999,3005559868
41,7,23,Ticks_Phase_5,164,9999,9999,9999,3006059616
41,7,23,Ticks_Phase_5,165,9999,9999,9999,3006559344
41,7,23,Ticks_Phase_5,166,9999,9999,9999,3007060064
41,7,23,Ticks_Phase_5,167,9999,9999,9999,3007559800
41,7,23,Ticks_Phase_5,168,9999,9999,9999,3008059492
41,7,23,Ticks_Phase_5,169,9999,9999,9999,3008559176
41,8,22,Ticks_Phase_8,0,5,42,127,3018260788
41,8,22,Ticks_Phase_8,1,5,42,127,3019060448
41,8,22,Ticks_Phase_8,2,1,48,42,3019213292
41,8,22,Ticks_Phase_8,3,1,48,58,3019836684
41,8,22,Ticks_Phase_8,4,5,42,127,3019861424
41,8,22,Ticks_Phase_8,5,1,48,26,3019898472
41,8,22,Ticks_Phase_8,6,1,48,72,3020626108
41,8,22,Ticks_Phase_8,7,5,42,127,3020661508
41,8,22,Ticks_Phase_8,8,1,48,56,3021379700
41,8,22,Ticks_Phase_8,9,1,48,41,3021410176
41,8,22,Ticks_Phase_8,10,5,42,127,3021460976
41,8,22,Ticks_Phase_8,11,1,48,67,3022220524
41,8,22,Ticks_Phase_8,12,5,42,127,3022260612
41,8,22,Ticks_Phase_8,13,1,48,69,3022986528
41,8,22,Ticks_Phase_8,14,1,48,36,3023036224
41,8,22,Ticks_Phase_8,15,5,42,127,3023061276
41,8,22,Ticks_Phase_8,16,1,48,65,3023819548
41,8,22,Ticks_Phase_8,17,1,48,41,3023860668
41,8,22,Ticks_Phase_8,18,5,42,127,3023862160
41,8,22,Ticks_Phase_8,19,1,48,67,3024627092
41,8,22,Ticks_Phase_8,20,5,42,127,3024660824
41,8,22,Ticks_Phase_8,21,1,48,64,3025418188
41,8,22,Ticks_Phase_8,22,5,42,127,3025460612
41,8,22,Ticks_Phase_8,23,1,48,71,3026221204
41,8,22,Ticks_Phase_8,24,5,42,127,3026261516
41,8,22,Ticks_Phase_8,25,1,48,68,3027018972
41,8,22,Ticks_Phase_8,26,5,42,127,3027061180
41,8,22,Ticks_Phase_8,27,1,48,67,3027795308
41,8,22,Ticks_Phase_8,28,5,42,127,3027861264
41,8,22,Ticks_Phase_8,29,1,48,67,3028569936
41,8,22,Ticks_Phase_8,30,5,42,127,3028660532
41,8,22,Ticks_Phase_8,31,1,48,65,3029429364
41,8,22,Ticks_Phase_8,32,5,42,127,3029461288
41,8,22,Ticks_Phase_8,33,1,48,64,3030246208
41,8,22,Ticks_Phase_8,34,5,42,127,3030261224
41,8,22,Ticks_Phase_8,35,1,48,27,3030305216
41,8,22,Ticks_Phase_8,36,1,48,57,3031014900
41,8,22,Ticks_Phase_8,37,5,42,127,3031061136
41,8,22,Ticks_Phase_8,38,1,48,57,3031799120
41,8,22,Ticks_Phase_8,39,5,42,127,3031860552
41,8,22,Ticks_Phase_8,40,1,48,61,3032557180
41,8,22,Ticks_Phase_8,41,5,42,127,3032661368
41,8,22,Ticks_Phase_8,42,1,48,67,3033452104
41,8,22,Ticks_Phase_8,43,5,42,127,3033461044
41,8,22,Ticks_Phase_8,44,1,48,59,3034240436
41,8,22,Ticks_Phase_8,45,5,42,127,3034261128
41,8,22,Ticks_Phase_8,46,1,48,68,3035018880
41,8,22,Ticks_Phase_8,47,5,42,127,3035060544
41,8,22,Ticks_Phase_8,48,1,48,51,3035817904
41,8,22,Ticks_Phase_8,49,1,48,35,3035862484
41,8,22,Ticks_Phase_8,50,5,42,127,3035863824
41,8,22,Ticks_Phase_8,51,1,48,46,3036620676
41,8,22,Ticks_Phase_8,52,5,42,127,3036661068
41,8,22,Ticks_Phase_8,53,1,48,59,3037434092
41,8,22,Ticks_Phase_8,54,5,42,127,3037460780
41,8,22,Ticks_Phase_8,55,1,48,44,3037465756
41,8,22,Ticks_Phase_8,56,1,48,65,3038241948
41,8,22,Ticks_Phase_8,57,5,42,127,3038260768
41,8,22,Ticks_Phase_8,58,1,48,47,3038272788
41,8,22,Ticks_Phase_8,59,1,48,67,3039048140
41,8,22,Ticks_Phase_8,60,5,42,127,3039061432
41,8,22,Ticks_Phase_8,61,1,48,65,3039823896
41,8,22,Ticks_Phase_8,62,5,42,127,3039861092
41,8,22,Ticks_Phase_8,63,1,48,59,3040612624
41,8,22,Ticks_Phase_8,64,1,48,45,3040640460
41,8,22,Ticks_Phase_8,65,5,42,127,3040660856
41,8,22,Ticks_Phase_8,66,1,48,60,3041442940
41,8,22,Ticks_Phase_8,67,5,42,127,3041460868
41,8,22,Ticks_Phase_8,68,1,48,46,3041469744
41,8,22,Ticks_Phase_8,69,5,42,127,3042240872
41,8,22,Ticks_Phase_8,70,1,48,70,3042293712
41,8,22,Ticks_Phase_8,71,1,48,49,3042325520
41,8,22,Ticks_Phase_8,72,1,48,70,3043020456
41,8,22,Ticks_Phase_8,73,5,42,127,3043040704
41,8,22,Ticks_Phase_8,74,1,48,48,3043061036
41,8,22,Ticks_Phase_8,75,1,48,55,3043814296
41,8,22,Ticks_Phase_8,76,5,42,127,3043841516
41,8,22,Ticks_Phase_8,77,1,48,43,3043845064
41,8,22,Ticks_Phase_8,78,1,48,52,3044613012
41,8,22,Ticks_Phase_8,79,5,42,127,3044641056
41,8,22,Ticks_Phase_8,80,1,48,35,3044659368
41,8,22,Ticks_Phase_8,81,1,48,53,3045433296
41,8,22,Ticks_Phase_8,82,5,42,127,3045440744
41,8,22,Ticks_Phase_8,83,1,48,35,3045488964
41,8,22,Ticks_Phase_8,84,1,48,57,3046170608
41,8,22,Ticks_Phase_8,85,1,48,39,3046221436
41,8,22,Ticks_Phase_8,86,5,42,127,3046240512
41,8,22,Ticks_Phase_8,87,1,48,49,3047006160
41,8,22,Ticks_Phase_8,88,5,42,127,3047041396
41,8,22,Ticks_Phase_8,89,5,42,127,3047841116
41,8,22,Ticks_Phase_8,90,1,48,56,3047864900
41,8,22,Ticks_Phase_8,91,1,48,36,3047908772
41,8,22,Ticks_Phase_8,92,5,42,127,3048640732
41,8,22,Ticks_Phase_8,93,1,48,51,3048670660
41,8,22,Ticks_Phase_8,94,1,48,38,3048717512
41,8,22,Ticks_Phase_8,95,1,48,57,3049414320
41,8,22,Ticks_Phase_8,96,5,42,127,3049440564
41,8,22,Ticks_Phase_8,97,1,48,37,3049470852
41,8,22,Ticks_Phase_8,98,1,48,53,3050157392
41,8,22,Ticks_Phase_8,99,1,48,35,3050201780
41,8,22,Ticks_Phase_8,100,5,42,127,3050241352
41,8,22,Ticks_Phase_8,101,1,48,58,3051018036
41,8,22,Ticks_Phase_8,102,5,42,127,3051041360
41,8,22,Ticks_Phase_8,103,1,48,39,3051062368
41,8,22,Ticks_Phase_8,104,5,42,127,3051840760
41,8,22,Ticks_Phase_8,105,1,48,54,3051870716
41,8,22,Ticks_Phase_8,106,5,42,127,3052640568
41,8,22,Ticks_Phase_8,107,1,48,55,3052689148
41,8,22,Ticks_Phase_8,108,1,48,35,3052751132
41,8,22,Ticks_Phase_8,109,5,42,127,3053441456
41,8,22,Ticks_Phase_8,110,1,48,58,3053486212
41,8,22,Ticks_Phase_8,111,1,48,32,3053546848
41,8,22,Ticks_Phase_8,112,1,48,55,3054218184
41,8,22,Ticks_Phase_8,113,5,42,127,3054241140
41,8,22,Ticks_Phase_8,114,1,48,57,3055031688
41,8,22,Ticks_Phase_8,115,5,42,127,3055041000
41,8,22,Ticks_Phase_8,116,1,48,63,3055835364
41,8,22,Ticks_Phase_8,117,5,42,127,3055840712
41,8,22,Ticks_Phase_8,118,1,48,39,3055871900
41,8,22,Ticks_Phase_8,119,1,48,56,3056627788
41,8,22,Ticks_Phase_8,120,5,42,127,3056660772
41,8,22,Ticks_Phase_8,121,1,48,58,3057446516
41,8,22,Ticks_Phase_8,122,5,42,127,3057460560
41,8,22,Ticks_Phase_8,123,1,48,67,3058213356
41,8,22,Ticks_Phase_8,124,1,48,47,3058242844
41,8,22,Ticks_Phase_8,125,5,42,127,3058261292
41,8,22,Ticks_Phase_8,126,1,48,70,3059033196
41,8,22,Ticks_Phase_8,127,1,48,46,3059061760
41,8,22,Ticks_Phase_8,128,5,42,127,3059063028
41,8,22,Ticks_Phase_8,129,1,48,68,3059842196
41,8,22,Ticks_Phase_8,130,5,42,127,3059861240
41,8,22,Ticks_Phase_8,131,1,48,62,3060651416
41,8,22,Ticks_Phase_8,132,5,42,127,3060660656
41,8,22,Ticks_Phase_8,133,1,48,45,3060680988
41,8,22,Ticks_Phase_8,134,1,48,66,3061452376
41,8,22,Ticks_Phase_8,135,5,42,127,3061461244
41,8,22,Ticks_Phase_8,136,1,48,45,3061481196
41,8,22,Ticks_Phase_8,137,5,42,127,3062261012
41,8,22,Ticks_Phase_8,138,1,48,65,3062285168
41,8,22,Ticks_Phase_8,139,1,48,44,3062317724
41,8,22,Ticks_Phase_8,140,5,42,127,3063060924
41,8,22,Ticks_Phase_8,141,1,48,64,3063070864
41,8,22,Ticks_Phase_8,142,5,42,127,3063860488
41,8,22,Ticks_Phase_8,143,1,48,66,3063869976
41,8,22,Ticks_Phase_8,144,1,48,46,3063897652
41,8,22,Ticks_Phase_8,145,1,48,60,3064643668
41,8,22,Ticks_Phase_8,146,5,42,127,3064661292
41,8,22,Ticks_Phase_8,147,1,48,42,3064674004
41,8,22,Ticks_Phase_8,148,1,48,68,3065459884
41,8,22,Ticks_Phase_8,149,5,42,127,3065461600
41,8,22,Ticks_Phase_8,150,1,48,47,3065489728
41,8,22,Ticks_Phase_8,151,1,48,68,3066258960
41,8,22,Ticks_Phase_8,152,5,42,127,3066260772
41,8,22,Ticks_Phase_8,153,1,48,46,3066294280
41,8,22,Ticks_Phase_8,154,1,48,62,3067044928
41,8,22,Ticks_Phase_8,155,5,42,127,3067060760
41,8,22,Ticks_Phase_8,156,1,48,64,3067804496
41,8,22,Ticks_Phase_8,157,5,42,127,3067861296
41,8,22,Ticks_Phase_8,158,1,48,67,3068606228
41,8,22,Ticks_Phase_8,159,1,48,48,3068634064
41,8,22,Ticks_Phase_8,160,5,42,127,3068661132
41,8,22,Ticks_Phase_8,161,1,48,60,3069383680
41,8,22,Ticks_Phase_8,162,5,42,127,3069500748
41,8,22,Ticks_Phase_8,163,5,42,127,3070300872
41,8,22,Ticks_Phase_8,164,1,48,59,3070364124
41,8,22,Ticks_Phase_8,165,1,48,65,3071096720
41,8,22,Ticks_Phase_8,166,5,42,127,3071101252
41,8,22,Ticks_Phase_8,167,1,48,45,3071124124
41,8,22,Ticks_Phase_8,168,1,48,55,3071888024
41,8,22,Ticks_Phase_8,169,5,42,127,3071901016
41,8,22,Ticks_Phase_8,170,1,48,45,3071912436
41,8,22,Ticks_Phase_8,171,1,48,57,3072672144
41,8,22,Ticks_Phase_8,172,5,42,127,3072700780
41,8,22,Ticks_Phase_8,173,1,48,62,3073444072
41,8,22,Ticks_Phase_8,174,5,42,127,3073500492
41,8,22,Ticks_Phase_8,175,1,48,67,3074278148
41,8,22,Ticks_Phase_8,176,5,42,127,3074301400
41,8,22,Ticks_Phase_8,177,1,48,47,3074316180
41,8,22,Ticks_Phase_8,178,1,48,62,3075082716
41,8,22,Ticks_Phase_8,179,5,42,127,3075101016
41,8,22,Ticks_Phase_8,180,1,48,43,3075119256
41,8,22,Ticks_Phase_8,181,1,48,59,3075839720
41,8,22,Ticks_Phase_8,182,5,42,127,3075900856
41,8,22,Ticks_Phase_8,183,1,48,56,3076651860
41,8,22,Ticks_Phase_8,184,5,42,127,3076700588
41,8,22,Ticks_Phase_8,185,1,48,60,3077425728
41,8,22,Ticks_Phase_8,186,1,48,38,3077465696
41,8,22,Ticks_Phase_8,187,5,42,127,3077501328
41,8,22,Ticks_Phase_8,188,1,48,67,3078261244
41,8,22,Ticks_Phase_8,189,1,48,45,3078293944
41,8,22,Ticks_Phase_8,190,5,42,127,3078300940
41,8,22,Ticks_Phase_8,191,1,48,62,3079088944
41,8,22,Ticks_Phase_8,192,5,42,127,3079100728
41,8,22,Ticks_Phase_8,193,5,42,127,3079900448
41,8,22,Ticks_Phase_8,194,1,48,72,3079929932
41,8,22,Ticks_Phase_8,195,5,42,127,3080701576
41,8,22,Ticks_Phase_8,196,1,48,70,3080742968
41,8,22,Ticks_Phase_8,197,5,42,127,3081500916
41,8,22,Ticks_Phase_8,198,1,48,59,3081525300
41,8,22,Ticks_Phase_8,199,1,48,63,3082283440
41,8,22,Ticks_Phase_8,200,5,42,127,3082300920
41,8,22,Ticks_Phase_8,201,5,42,127,3083060500
41,8,22,Ticks_Phase_8,202,1,48,63,3083186232
41,8,22,Ticks_Phase_8,203,1,48,44,3083215488
41,8,22,Ticks_Phase_8,204,1,48,62,3083848016
41,8,22,Ticks_Phase_8,205,5,42,127,3083861304
41,8,22,Ticks_Phase_8,206,1,48,70,3084632084
41,8,22,Ticks_Phase_8,207,5,42,127,3084661192
41,8,22,Ticks_Phase_8,208,1,48,45,3084664084
41,8,22,Ticks_Phase_8,209,1,48,65,3085427072
41,8,22,Ticks_Phase_8,210,1,48,45,3085457680
41,8,22,Ticks_Phase_8,211,5,42,127,3085460932
41,8,22,Ticks_Phase_8,212,1,48,66,3086204596
41,8,22,Ticks_Phase_8,213,5,42,127,3086260568
41,8,22,Ticks_Phase_8,214,5,42,127,3087061260
41,8,22,Ticks_Phase_8,215,1,48,74,3087062228
41,8,22,Ticks_Phase_8,216,1,48,63,3087842288
41,8,22,Ticks_Phase_8,217,5,42,127,3087861188
41,8,22,Ticks_Phase_8,218,1,48,68,3088649644
41,8,22,Ticks_Phase_8,219,5,42,127,3088661048
41,8,22,Ticks_Phase_8,220,1,48,67,3089449208
41,8,22,Ticks_Phase_8,221,5,42,127,3089460464
41,8,22,Ticks_Phase_8,222,1,48,63,3090225320
41,8,22,Ticks_Phase_8,223,5,42,127,3090261224
41,8,22,Ticks_Phase_8,224,1,48,62,3091029072
41,8,22,Ticks_Phase_8,225,5,42,127,3091061108
41,8,22,Ticks_Phase_8,226,1,48,69,3091822300
41,8,22,Ticks_Phase_8,227,1,48,47,3091857768
41,8,22,Ticks_Phase_8,228,5,42,127,3091860948
41,8,22,Ticks_Phase_8,229,5,42,127,3092660668
41,8,22,Ticks_Phase_8,230,1,48,62,3092671876
41,8,22,Ticks_Phase_8,231,1,48,36,3092723596
41,8,22,Ticks_Phase_8,232,1,48,59,3093432012
41,8,22,Ticks_Phase_8,233,5,42,127,3093461324
41,8,22,Ticks_Phase_8,234,1,48,38,3093467940
41,8,22,Ticks_Phase_8,235,1,48,58,3094223464
41,8,22,Ticks_Phase_8,236,1,48,39,3094257584
41,8,22,Ticks_Phase_8,237,5,42,127,3094261216
41,8,22,Ticks_Phase_8,238,1,48,65,3095048924
41,8,22,Ticks_Phase_8,239,5,42,127,3095060932
41,8,22,Ticks_Phase_8,240,1,48,41,3095084700
41,8,22,Ticks_Phase_8,241,5,42,127,3095780796
41,8,22,Ticks_Phase_8,242,1,48,61,3095794620
41,8,22,Ticks_Phase_8,243,1,48,37,3095844700
41,8,22,Ticks_Phase_8,244,1,48,73,3096450896
41,8,22,Ticks_Phase_8,245,1,48,46,3096485096
41,8,22,Ticks_Phase_8,246,5,42,127,3096580684
41,8,22,Ticks_Phase_8,247,1,48,68,3097309000
41,8,22,Ticks_Phase_8,248,1,48,46,3097343272
41,8,22,Ticks_Phase_8,249,5,42,127,3097381120
41,8,22,Ticks_Phase_8,250,1,48,68,3098151672
41,8,22,Ticks_Phase_8,251,5,42,127,3098181056
41,8,22,Ticks_Phase_8,252,1,48,48,3098184908
41,8,22,Ticks_Phase_8,253,1,48,69,3098939608
41,8,22,Ticks_Phase_8,254,1,48,49,3098970812
41,8,22,Ticks_Phase_8,255,5,42,127,3098980948
41,8,22,Ticks_Phase_8,256,1,48,74,3099776656
41,8,22,Ticks_Phase_8,257,5,42,127,3099780436
41,8,22,Ticks_Phase_8,258,1,48,48,3099805104
41,8,22,Ticks_Phase_8,259,1,48,67,3100515308
41,8,22,Ticks_Phase_8,260,1,48,50,3100548012
41,8,22,Ticks_Phase_8,261,5,42,127,3100581376
41,8,22,Ticks_Phase_8,262,1,48,63,3101340028
41,8,22,Ticks_Phase_8,263,1,48,42,3101371980
41,8,22,Ticks_Phase_8,264,5,42,127,3101380920
41,8,22,Ticks_Phase_8,265,1,48,65,3102154684
41,8,22,Ticks_Phase_8,266,5,42,127,3102180852
41,8,22,Ticks_Phase_8,267,1,48,45,3102184928
41,8,22,Ticks_Phase_8,268,1,48,63,3102951832
41,8,22,Ticks_Phase_8,269,5,42,127,3102980544
41,8,22,Ticks_Phase_8,270,1,48,67,3103761876
41,8,22,Ticks_Phase_8,271,5,42,127,3103781376
41,8,22,Ticks_Phase_8,272,1,48,49,3103786424
41,8,22,Ticks_Phase_8,273,5,42,127,3104580924
41,8,22,Ticks_Phase_8,274,1,48,66,3104595052
41,8,22,Ticks_Phase_8,275,1,48,70,3105357156
41,8,22,Ticks_Phase_8,276,5,42,127,3105380728
41,8,22,Ticks_Phase_8,277,1,48,46,3105386976
41,8,22,Ticks_Phase_8,278,1,48,62,3106137376
41,8,22,Ticks_Phase_8,279,5,42,127,3106180568
41,8,22,Ticks_Phase_8,280,1,48,62,3106935840
41,8,22,Ticks_Phase_8,281,5,42,127,3106981324
41,8,22,Ticks_Phase_8,282,1,48,67,3107742440
41,8,22,Ticks_Phase_8,283,5,42,127,3107781036
41,8,22,Ticks_Phase_8,284,1,48,65,3108554284
41,8,22,Ticks_Phase_8,285,5,42,127,3108580828
41,8,22,Ticks_Phase_8,286,1,48,39,3108598676
41,8,22,Ticks_Phase_8,287,1,48,67,3109358616
41,8,22,Ticks_Phase_8,288,1,48,43,3109392452
41,8,22,Ticks_Phase_8,289,5,42,127,3109461448
41,8,22,Ticks_Phase_8,290,5,42,127,3110261192
41,8,22,Ticks_Phase_8,291,1,48,54,3110267376
41,8,22,Ticks_Phase_8,292,5,42,127,3111060828
41,8,22,Ticks_Phase_8,293,1,48,66,3111116140
41,8,22,Ticks_Phase_8,294,5,42,127,3111860544
41,8,22,Ticks_Phase_8,295,1,48,62,3111904400
41,8,22,Ticks_Phase_8,296,5,42,127,3112661520
41,8,22,Ticks_Phase_8,297,1,48,53,3112690332
41,8,22,Ticks_Phase_8,298,1,48,47,3113435884
41,8,22,Ticks_Phase_8,299,5,42,127,3113461228
41,8,22,Ticks_Phase_8,300,1,48,57,3114199140
41,8,22,Ticks_Phase_8,301,5,42,127,3114260792
41,8,22,Ticks_Phase_8,302,1,48,51,3115028568
41,8,22,Ticks_Phase_8,303,5,42,127,3115060656
41,8,22,Ticks_Phase_8,304,1,48,63,3115816744
41,8,22,Ticks_Phase_8,305,5,42,127,3115861340
41,8,22,Ticks_Phase_8,306,5,42,127,3116661084
41,8,22,Ticks_Phase_8,307,1,48,57,3116672664
41,8,22,Ticks_Phase_8,308,1,48,65,3117451552
41,8,22,Ticks_Phase_8,309,5,42,127,3117460864
41,8,22,Ticks_Phase_8,310,1,48,65,3118230068
41,8,22,Ticks_Phase_8,311,1,48,47,3118257820
41,8,22,Ticks_Phase_8,312,5,42,127,3118260552
41,8,22,Ticks_Phase_8,313,1,48,59,3119041816
41,8,22,Ticks_Phase_8,314,5,42,127,3119061388
41,8,22,Ticks_Phase_8,315,1,48,67,3119848572
41,8,22,Ticks_Phase_8,316,5,42,127,3119861176
41,8,22,Ticks_Phase_8,317,5,42,127,3120661040
41,8,22,Ticks_Phase_8,318,1,48,66,3120664456
41,8,22,Ticks_Phase_8,319,1,48,43,3120705024
41,8,22,Ticks_Phase_8,320,5,42,127,3121460508
41,8,22,Ticks_Phase_8,321,1,48,57,3121477324
41,8,22,Ticks_Phase_8,322,1,48,40,3121512904
41,8,22,Ticks_Phase_8,323,5,42,127,3122261320
41,8,22,Ticks_Phase_8,324,1,48,61,3122287004
41,8,22,Ticks_Phase_8,325,1,48,38,3122328092
41,8,22,Ticks_Phase_8,326,1,48,63,3123063096
41,8,22,Ticks_Phase_8,327,1,48,41,3123096240
41,8,22,Ticks_Phase_8,328,5,42,127,3123220948
41,8,22,Ticks_Phase_8,329,5,42,127,3124020608
41,8,22,Ticks_Phase_8,330,1,48,60,3124160276
41,8,22,Ticks_Phase_8,331,5,42,127,3124821292
41,8,22,Ticks_Phase_8,332,1,48,57,3124877828
41,8,22,Ticks_Phase_8,333,5,42,127,3125621028
41,8,22,Ticks_Phase_8,334,1,48,67,3125678596
41,8,22,Ticks_Phase_8,335,5,42,127,3126420888
41,8,22,Ticks_Phase_8,336,1,48,68,3126464820
41,8,22,Ticks_Phase_8,337,5,42,127,3127220752
41,8,22,Ticks_Phase_8,338,1,48,58,3127250236
41,8,22,Ticks_Phase_8,339,1,48,65,3127992044
41,8,22,Ticks_Phase_8,340,5,42,127,3128021280
41,8,22,Ticks_Phase_8,341,1,48,59,3128754532
41,8,22,Ticks_Phase_8,342,5,42,127,3128820992
41,8,22,Ticks_Phase_8,343,1,48,67,3129576032
41,8,22,Ticks_Phase_8,344,1,48,47,3129602676
41,8,22,Ticks_Phase_8,345,5,42,127,3129620832
41,8,22,Ticks_Phase_8,346,1,48,71,3130391160
41,8,22,Ticks_Phase_8,347,5,42,127,3130420692
41,8,22,Ticks_Phase_8,348,5,42,127,3131221232
41,8,22,Ticks_Phase_8,349,1,48,75,3131231192
41,8,22,Ticks_Phase_8,350,1,48,69,3132021120
41,8,22,Ticks_Phase_8,351,5,42,127,3132022756
41,8,22,Ticks_Phase_8,352,1,48,65,3132806860
41,8,22,Ticks_Phase_8,353,5,42,127,3132820824
41,8,22,Ticks_Phase_8,354,1,48,69,3133588444
41,8,22,Ticks_Phase_8,355,1,48,50,3133613072
41,8,22,Ticks_Phase_8,356,5,42,127,3133620516
41,8,22,Ticks_Phase_8,357,1,48,63,3134411812
41,8,22,Ticks_Phase_8,358,5,42,127,3134421496
41,8,22,Ticks_Phase_8,359,1,48,63,3135212868
41,8,22,Ticks_Phase_8,360,5,42,127,3135221060
41,8,22,Ticks_Phase_8,361,5,42,127,3136020704
41,8,22,Ticks_Phase_8,362,1,48,70,3136034676
41,8,22,Ticks_Phase_8,363,1,48,48,3136061920
41,8,22,Ticks_Phase_8,364,1,48,69,3136803576
41,8,22,Ticks_Phase_8,365,5,42,127,3136820536
41,8,22,Ticks_Phase_8,366,1,48,46,3136836364
41,8,22,Ticks_Phase_8,367,5,42,127,3137621428
41,8,22,Ticks_Phase_8,368,1,48,70,3137642024
41,8,22,Ticks_Phase_8,369,1,48,40,3137683860
41,8,22,Ticks_Phase_8,370,5,42,127,3138261532
41,8,22,Ticks_Phase_8,371,1,48,70,3138383276
41,8,22,Ticks_Phase_8,372,1,48,44,3138416072
41,8,22,Ticks_Phase_8,373,1,48,51,3138924288
41,8,22,Ticks_Phase_8,374,5,42,127,3139060976
41,8,22,Ticks_Phase_8,375,1,48,55,3139831468
41,8,22,Ticks_Phase_8,376,5,42,127,3139860704
41,8,22,Ticks_Phase_8,377,1,48,70,3140654316
41,8,22,Ticks_Phase_8,378,5,42,127,3140660488
41,8,22,Ticks_Phase_8,379,1,48,68,3141437624
41,8,22,Ticks_Phase_8,380,5,42,127,3141461544
41,8,22,Ticks_Phase_8,381,1,48,66,3142237212
41,8,22,Ticks_Phase_8,382,5,42,127,3142261132
41,8,22,Ticks_Phase_8,383,5,42,127,3143060852
41,8,22,Ticks_Phase_8,384,1,48,67,3143065616
41,8,22,Ticks_Phase_8,385,1,48,66,3143857900
41,8,22,Ticks_Phase_8,386,5,42,127,3143860556
41,8,22,Ticks_Phase_8,387,1,48,40,3143919232
41,8,22,Ticks_Phase_8,388,5,42,127,3144661372
41,8,22,Ticks_Phase_8,389,1,48,67,3144664344
41,8,22,Ticks_Phase_8,390,1,48,44,3144709264
41,8,22,Ticks_Phase_8,391,1,48,65,3145418036
41,8,22,Ticks_Phase_8,392,1,48,39,3145458996
41,8,22,Ticks_Phase_8,393,5,42,127,3145461260
41,8,22,Ticks_Phase_8,394,1,48,50,3146224468
41,8,22,Ticks_Phase_8,395,5,42,127,3146261120
41,8,22,Ticks_Phase_8,396,1,48,63,3147031676
41,8,22,Ticks_Phase_8,397,5,42,127,3147060608
41,8,22,Ticks_Phase_8,398,1,48,61,3147840676
41,8,22,Ticks_Phase_8,399,5,42,127,3147861368
41,8,22,Ticks_Phase_8,400,1,48,40,3147875028
41,8,22,Ticks_Phase_8,401,1,48,60,3148649200
41,8,22,Ticks_Phase_8,402,5,42,127,3148661280
41,8,22,Ticks_Phase_8,403,1,48,39,3148689180
41,8,22,Ticks_Phase_8,404,5,42,127,3149460828
41,8,22,Ticks_Phase_8,405,1,48,64,3149468064
41,8,22,Ticks_Phase_8,406,1,48,40,3149508104
41,8,22,Ticks_Phase_8,407,5,42,127,3150260592
41,8,22,Ticks_Phase_8,408,1,48,62,3150265280
41,8,22,Ticks_Phase_8,409,1,48,63,3151039304
41,8,22,Ticks_Phase_8,410,5,42,127,3151061348
41,8,22,Ticks_Phase_8,411,1,48,61,3151843356
41,8,22,Ticks_Phase_8,412,5,42,127,3151861208
41,8,22,Ticks_Phase_8,413,1,48,40,3151879144
41,8,22,Ticks_Phase_8,414,1,48,67,3152648444
41,8,22,Ticks_Phase_8,415,5,42,127,3152661044
41,8,22,Ticks_Phase_8,416,1,48,43,3152688032
41,8,22,Ticks_Phase_8,417,1,48,55,3153407160
41,8,22,Ticks_Phase_8,418,1,48,42,3153443160
41,8,22,Ticks_Phase_8,419,5,42,127,3153460712
41,8,22,Ticks_Phase_8,0,9999,9999,9999,3018258500
41,8,22,Ticks_Phase_8,1,9999,9999,9999,3019058236
41,8,22,Ticks_Phase_8,2,9999,9999,9999,3019859064
41,8,22,Ticks_Phase_8,3,9999,9999,9999,3020658776
41,8,22,Ticks_Phase_8,4,9999,9999,9999,3021458540
41,8,22,Ticks_Phase_8,5,9999,9999,9999,3022258252
41,8,22,Ticks_Phase_8,6,9999,9999,9999,3023059064
41,8,22,Ticks_Phase_8,7,9999,9999,9999,3023858776
41,8,22,Ticks_Phase_8,8,9999,9999,9999,3024658540
41,8,22,Ticks_Phase_8,9,9999,9999,9999,3025458252
41,8,22,Ticks_Phase_8,10,9999,9999,9999,3026259008
41,8,22,Ticks_Phase_8,11,9999,9999,9999,3027058744
41,8,22,Ticks_Phase_8,12,9999,9999,9999,3027858532
41,8,22,Ticks_Phase_8,13,9999,9999,9999,3028658244
41,8,22,Ticks_Phase_8,14,9999,9999,9999,3029459004
41,8,22,Ticks_Phase_8,15,9999,9999,9999,3030258788
41,8,22,Ticks_Phase_8,16,9999,9999,9999,3031058552
41,8,22,Ticks_Phase_8,17,9999,9999,9999,3031858264
41,8,22,Ticks_Phase_8,18,9999,9999,9999,3032659008
41,8,22,Ticks_Phase_8,19,9999,9999,9999,3033458760
41,8,22,Ticks_Phase_8,20,9999,9999,9999,3034258544
41,8,22,Ticks_Phase_8,21,9999,9999,9999,3035058256
41,8,22,Ticks_Phase_8,22,9999,9999,9999,3035859016
41,8,22,Ticks_Phase_8,23,9999,9999,9999,3036658784
41,8,22,Ticks_Phase_8,24,9999,9999,9999,3037458496
41,8,22,Ticks_Phase_8,25,9999,9999,9999,3038258260
41,8,22,Ticks_Phase_8,26,9999,9999,9999,3039059068
41,8,22,Ticks_Phase_8,27,9999,9999,9999,3039858808
41,8,22,Ticks_Phase_8,28,9999,9999,9999,3040658496
41,8,22,Ticks_Phase_8,29,9999,9999,9999,3041458280
41,8,22,Ticks_Phase_8,30,9999,9999,9999,3042238584
41,8,22,Ticks_Phase_8,31,9999,9999,9999,3043038268
41,8,22,Ticks_Phase_8,32,9999,9999,9999,3043839080
41,8,22,Ticks_Phase_8,33,9999,9999,9999,3044638844
41,8,22,Ticks_Phase_8,34,9999,9999,9999,3045438532
41,8,22,Ticks_Phase_8,35,9999,9999,9999,3046238300
41,8,22,Ticks_Phase_8,36,9999,9999,9999,3047039036
41,8,22,Ticks_Phase_8,37,9999,9999,9999,3047838828
41,8,22,Ticks_Phase_8,38,9999,9999,9999,3048638516
41,8,22,Ticks_Phase_8,39,9999,9999,9999,3049438276
41,8,22,Ticks_Phase_8,40,9999,9999,9999,3050239064
41,8,22,Ticks_Phase_8,41,9999,9999,9999,3051038776
41,8,22,Ticks_Phase_8,42,9999,9999,9999,3051838548
41,8,22,Ticks_Phase_8,43,9999,9999,9999,3052638284
41,8,22,Ticks_Phase_8,44,9999,9999,9999,3053439092
41,8,22,Ticks_Phase_8,45,9999,9999,9999,3054238776
41,8,22,Ticks_Phase_8,46,9999,9999,9999,3055038564
41,8,22,Ticks_Phase_8,47,9999,9999,9999,3055838276
41,8,22,Ticks_Phase_8,48,9999,9999,9999,3056658560
41,8,22,Ticks_Phase_8,49,9999,9999,9999,3057458272
41,8,22,Ticks_Phase_8,50,9999,9999,9999,3058259008
41,8,22,Ticks_Phase_8,51,9999,9999,9999,3059058744
41,8,22,Ticks_Phase_8,52,9999,9999,9999,3059858508
41,8,22,Ticks_Phase_8,53,9999,9999,9999,3060658292
41,8,22,Ticks_Phase_8,54,9999,9999,9999,3061459032
41,8,22,Ticks_Phase_8,55,9999,9999,9999,3062258800
41,8,22,Ticks_Phase_8,56,9999,9999,9999,3063058488
41,8,22,Ticks_Phase_8,57,9999,9999,9999,3063858276
41,8,22,Ticks_Phase_8,58,9999,9999,9999,3064659008
41,8,22,Ticks_Phase_8,59,9999,9999,9999,3065458800
41,8,22,Ticks_Phase_8,60,9999,9999,9999,3066258508
41,8,22,Ticks_Phase_8,61,9999,9999,9999,3067058252
41,8,22,Ticks_Phase_8,62,9999,9999,9999,3067859008
41,8,22,Ticks_Phase_8,63,9999,9999,9999,3068658772
41,8,22,Ticks_Phase_8,64,9999,9999,9999,3069498460
41,8,22,Ticks_Phase_8,65,9999,9999,9999,3070298196
41,8,22,Ticks_Phase_8,66,9999,9999,9999,3071098964
41,8,22,Ticks_Phase_8,67,9999,9999,9999,3071898732
41,8,22,Ticks_Phase_8,68,9999,9999,9999,3072698492
41,8,22,Ticks_Phase_8,69,9999,9999,9999,3073498208
41,8,22,Ticks_Phase_8,70,9999,9999,9999,3074298964
41,8,22,Ticks_Phase_8,71,9999,9999,9999,3075098732
41,8,22,Ticks_Phase_8,72,9999,9999,9999,3075898496
41,8,22,Ticks_Phase_8,73,9999,9999,9999,3076698204
41,8,22,Ticks_Phase_8,74,9999,9999,9999,3077498964
41,8,22,Ticks_Phase_8,75,9999,9999,9999,3078298732
41,8,22,Ticks_Phase_8,76,9999,9999,9999,3079098444
41,8,22,Ticks_Phase_8,77,9999,9999,9999,3079898236
41,8,22,Ticks_Phase_8,78,9999,9999,9999,3080698992
41,8,22,Ticks_Phase_8,79,9999,9999,9999,3081498704
41,8,22,Ticks_Phase_8,80,9999,9999,9999,3082298484
41,8,22,Ticks_Phase_8,81,9999,9999,9999,3083058288
41,8,22,Ticks_Phase_8,82,9999,9999,9999,3083859020
41,8,22,Ticks_Phase_8,83,9999,9999,9999,3084658756
41,8,22,Ticks_Phase_8,84,9999,9999,9999,3085458496
41,8,22,Ticks_Phase_8,85,9999,9999,9999,3086258284
41,8,22,Ticks_Phase_8,86,9999,9999,9999,3087059048
41,8,22,Ticks_Phase_8,87,9999,9999,9999,3087858756
41,8,22,Ticks_Phase_8,88,9999,9999,9999,3088658540
41,8,22,Ticks_Phase_8,89,9999,9999,9999,3089458252
41,8,22,Ticks_Phase_8,90,9999,9999,9999,3090259012
41,8,22,Ticks_Phase_8,91,9999,9999,9999,3091058748
41,8,22,Ticks_Phase_8,92,9999,9999,9999,3091858512
41,8,22,Ticks_Phase_8,93,9999,9999,9999,3092658232
41,8,22,Ticks_Phase_8,94,9999,9999,9999,3093459036
41,8,22,Ticks_Phase_8,95,9999,9999,9999,3094258780
41,8,22,Ticks_Phase_8,96,9999,9999,9999,3095058496
41,8,22,Ticks_Phase_8,97,9999,9999,9999,3095778360
41,8,22,Ticks_Phase_8,98,9999,9999,9999,3096578172
41,8,22,Ticks_Phase_8,99,9999,9999,9999,3097378908
41,8,22,Ticks_Phase_8,100,9999,9999,9999,3098178620
41,8,22,Ticks_Phase_8,101,9999,9999,9999,3098978364
41,8,22,Ticks_Phase_8,102,9999,9999,9999,3099778148
41,8,22,Ticks_Phase_8,103,9999,9999,9999,3100578940
41,8,22,Ticks_Phase_8,104,9999,9999,9999,3101378632
41,8,22,Ticks_Phase_8,105,9999,9999,9999,3102178416
41,8,22,Ticks_Phase_8,106,9999,9999,9999,3102978108
41,8,22,Ticks_Phase_8,107,9999,9999,9999,3103778940
41,8,22,Ticks_Phase_8,108,9999,9999,9999,3104578636
41,8,22,Ticks_Phase_8,109,9999,9999,9999,3105378368
41,8,22,Ticks_Phase_8,110,9999,9999,9999,3106178132
41,8,22,Ticks_Phase_8,111,9999,9999,9999,3106978892
41,8,22,Ticks_Phase_8,112,9999,9999,9999,3107778676
41,8,22,Ticks_Phase_8,113,9999,9999,9999,3108578388
41,8,22,Ticks_Phase_8,114,9999,9999,9999,3109459012
41,8,22,Ticks_Phase_8,115,9999,9999,9999,3110258756
41,8,22,Ticks_Phase_8,116,9999,9999,9999,3111058540
41,8,22,Ticks_Phase_8,117,9999,9999,9999,3111858256
41,8,22,Ticks_Phase_8,118,9999,9999,9999,3112659012
41,8,22,Ticks_Phase_8,119,9999,9999,9999,3113458792
41,8,22,Ticks_Phase_8,120,9999,9999,9999,3114258508
41,8,22,Ticks_Phase_8,121,9999,9999,9999,3115058296
41,8,22,Ticks_Phase_8,122,9999,9999,9999,3115859052
41,8,22,Ticks_Phase_8,123,9999,9999,9999,3116658796
41,8,22,Ticks_Phase_8,124,9999,9999,9999,3117458504
41,8,22,Ticks_Phase_8,125,9999,9999,9999,3118258268
41,8,22,Ticks_Phase_8,126,9999,9999,9999,3119059024
41,8,22,Ticks_Phase_8,127,9999,9999,9999,3119858816
41,8,22,Ticks_Phase_8,128,9999,9999,9999,3120658532
41,8,22,Ticks_Phase_8,129,9999,9999,9999,3121458296
41,8,22,Ticks_Phase_8,130,9999,9999,9999,3122259032
41,8,22,Ticks_Phase_8,131,9999,9999,9999,3123218512
41,8,22,Ticks_Phase_8,132,9999,9999,9999,3124018248
41,8,22,Ticks_Phase_8,133,9999,9999,9999,3124819008
41,8,22,Ticks_Phase_8,134,9999,9999,9999,3125618740
41,8,22,Ticks_Phase_8,135,9999,9999,9999,3126418528
41,8,22,Ticks_Phase_8,136,9999,9999,9999,3127218240
41,8,22,Ticks_Phase_8,137,9999,9999,9999,3128019068
41,8,22,Ticks_Phase_8,138,9999,9999,9999,3128818780
41,8,22,Ticks_Phase_8,139,9999,9999,9999,3129618544
41,8,22,Ticks_Phase_8,140,9999,9999,9999,3130418256
41,8,22,Ticks_Phase_8,141,9999,9999,9999,3131219020
41,8,22,Ticks_Phase_8,142,9999,9999,9999,3132018760
41,8,22,Ticks_Phase_8,143,9999,9999,9999,3132818540
41,8,22,Ticks_Phase_8,144,9999,9999,9999,3133618228
41,8,22,Ticks_Phase_8,145,9999,9999,9999,3134419064
41,8,22,Ticks_Phase_8,146,9999,9999,9999,3135218772
41,8,22,Ticks_Phase_8,147,9999,9999,9999,3136018492
41,8,22,Ticks_Phase_8,148,9999,9999,9999,3136818248
41,8,22,Ticks_Phase_8,149,9999,9999,9999,3137619064
41,8,22,Ticks_Phase_8,150,9999,9999,9999,3138259020
41,8,22,Ticks_Phase_8,151,9999,9999,9999,3139058764
41,8,22,Ticks_Phase_8,152,9999,9999,9999,3139858492
41,8,22,Ticks_Phase_8,153,9999,9999,9999,3140658276
41,8,22,Ticks_Phase_8,154,9999,9999,9999,3141459036
41,8,22,Ticks_Phase_8,155,9999,9999,9999,3142258772
41,8,22,Ticks_Phase_8,156,9999,9999,9999,3143058492
41,8,22,Ticks_Phase_8,157,9999,9999,9999,3143858272
41,8,22,Ticks_Phase_8,158,9999,9999,9999,3144659012
41,8,22,Ticks_Phase_8,159,9999,9999,9999,3145458788
41,8,22,Ticks_Phase_8,160,9999,9999,9999,3146258536
41,8,22,Ticks_Phase_8,161,9999,9999,9999,3147058248
41,8,22,Ticks_Phase_8,162,9999,9999,9999,3147859008
41,8,22,Ticks_Phase_8,163,9999,9999,9999,3148658772
41,8,22,Ticks_Phase_8,164,9999,9999,9999,3149458544
41,8,22,Ticks_Phase_8,165,9999,9999,9999,3150258232
41,8,22,Ticks_Phase_8,166,9999,9999,9999,3151059060
41,8,22,Ticks_Phase_8,167,9999,9999,9999,3151858772
41,8,22,Ticks_Phase_8,168,9999,9999,9999,3152658536
41,8,22,Ticks_Phase_8,169,9999,9999,9999,3153458280
41,9,21,Ticks_Linear_5,0,5,42,127,3165540848
41,9,21,Ticks_Linear_5,1,5,42,127,3166020924
41,9,21,Ticks_Linear_5,2,1,48,45,3166438828
41,9,21,Ticks_Linear_5,3,5,42,127,3166501240
41,9,21,Ticks_Linear_5,4,1,48,63,3166975956
41,9,21,Ticks_Linear_5,5,5,42,127,3166980644
41,9,21,Ticks_Linear_5,6,1,48,26,3167045756
41,9,21,Ticks_Linear_5,7,5,42,127,3167460636
41,9,21,Ticks_Linear_5,8,1,48,72,3167494608
41,9,21,Ticks_Linear_5,9,1,48,31,3167568272
41,9,21,Ticks_Linear_5,10,5,42,127,3167951248
41,9,21,Ticks_Linear_5,11,1,48,71,3167966120
41,9,21,Ticks_Linear_5,12,1,48,38,3168021448
41,9,21,Ticks_Linear_5,13,5,42,127,3168440744
41,9,21,Ticks_Linear_5,14,1,48,70,3168461016
41,9,21,Ticks_Linear_5,15,1,48,33,3168514680
41,9,21,Ticks_Linear_5,16,5,42,127,3168931356
41,9,21,Ticks_Linear_5,17,1,48,78,3168940248
41,9,21,Ticks_Linear_5,18,1,38,18,3168950636
41,9,21,Ticks_Linear_5,19,5,42,127,3169420676
41,9,21,Ticks_Linear_5,20,1,48,67,3169438388
41,9,21,Ticks_Linear_5,21,1,48,29,3169501956
41,9,21,Ticks_Linear_5,22,5,42,127,3169911140
41,9,21,Ticks_Linear_5,23,1,48,77,3169935076
41,9,21,Ticks_Linear_5,24,1,48,38,3169980220
41,9,21,Ticks_Linear_5,25,5,42,127,3170410968
41,9,21,Ticks_Linear_5,26,1,48,72,3170412980
41,9,21,Ticks_Linear_5,27,1,48,41,3170451740
41,9,21,Ticks_Linear_5,28,1,48,75,3170902292
41,9,21,Ticks_Linear_5,29,5,42,127,3170910492
41,9,21,Ticks_Linear_5,30,1,48,42,3170947516
41,9,21,Ticks_Linear_5,31,1,48,68,3171408224
41,9,21,Ticks_Linear_5,32,5,42,127,3171411340
41,9,21,Ticks_Linear_5,33,1,48,41,3171451396
41,9,21,Ticks_Linear_5,34,5,42,127,3171911248
41,9,21,Ticks_Linear_5,35,1,48,73,3171914220
41,9,21,Ticks_Linear_5,36,1,48,77,3172384316
41,9,21,Ticks_Linear_5,37,5,42,127,3172410796
41,9,21,Ticks_Linear_5,38,1,48,66,3172911504
41,9,21,Ticks_Linear_5,39,5,42,127,3172920680
41,9,21,Ticks_Linear_5,40,1,48,74,3173426920
41,9,21,Ticks_Linear_5,41,5,42,127,3173430712
41,9,21,Ticks_Linear_5,42,1,48,73,3173934932
41,9,21,Ticks_Linear_5,43,5,42,127,3173940524
41,9,21,Ticks_Linear_5,44,1,48,47,3173963320
41,9,21,Ticks_Linear_5,45,1,48,73,3174444424
41,9,21,Ticks_Linear_5,46,5,42,127,3174450532
41,9,21,Ticks_Linear_5,47,1,48,46,3174475052
41,9,21,Ticks_Linear_5,48,1,48,66,3174949204
41,9,21,Ticks_Linear_5,49,5,42,127,3174960472
41,9,21,Ticks_Linear_5,50,1,48,45,3174979980
41,9,21,Ticks_Linear_5,51,1,48,57,3175474632
41,9,21,Ticks_Linear_5,52,5,42,127,3175480592
41,9,21,Ticks_Linear_5,53,1,48,47,3175499880
41,9,21,Ticks_Linear_5,54,1,48,48,3175990936
41,9,21,Ticks_Linear_5,55,5,42,127,3176001308
41,9,21,Ticks_Linear_5,56,1,48,73,3176521460
41,9,21,Ticks_Linear_5,57,5,42,127,3176522876
41,9,21,Ticks_Linear_5,58,5,42,127,3177041304
41,9,21,Ticks_Linear_5,59,1,48,55,3177049400
41,9,21,Ticks_Linear_5,60,1,48,51,3177078272
41,9,21,Ticks_Linear_5,61,1,48,59,3177545872
41,9,21,Ticks_Linear_5,62,5,42,127,3177560396
41,9,21,Ticks_Linear_5,63,1,48,49,3177567392
41,9,21,Ticks_Linear_5,64,1,48,40,3178041440
41,9,21,Ticks_Linear_5,65,5,42,127,3178091148
41,9,21,Ticks_Linear_5,66,1,48,69,3178559860
41,9,21,Ticks_Linear_5,67,1,48,55,3178584040
41,9,21,Ticks_Linear_5,68,5,42,127,3178621232
41,9,21,Ticks_Linear_5,69,1,48,59,3179124628
41,9,21,Ticks_Linear_5,70,5,42,127,3179150584
41,9,21,Ticks_Linear_5,71,1,48,58,3179667236
41,9,21,Ticks_Linear_5,72,5,42,127,3179681212
41,9,21,Ticks_Linear_5,73,1,48,52,3179697940
41,9,21,Ticks_Linear_5,74,1,48,72,3180191188
41,9,21,Ticks_Linear_5,75,5,42,127,3180210548
41,9,21,Ticks_Linear_5,76,1,48,55,3180227056
41,9,21,Ticks_Linear_5,77,1,48,54,3180732052
41,9,21,Ticks_Linear_5,78,5,42,127,3180751188
41,9,21,Ticks_Linear_5,79,1,48,60,3181273536
41,9,21,Ticks_Linear_5,80,5,42,127,3181291104
41,9,21,Ticks_Linear_5,81,1,48,63,3181817340
41,9,21,Ticks_Linear_5,82,5,42,127,3181830496
41,9,21,Ticks_Linear_5,83,1,48,56,3181839376
41,9,21,Ticks_Linear_5,84,5,42,127,3182371216
41,9,21,Ticks_Linear_5,85,1,48,64,3182390296
41,9,21,Ticks_Linear_5,86,1,48,50,3182413776
41,9,21,Ticks_Linear_5,87,5,42,127,3182911332
41,9,21,Ticks_Linear_5,88,1,48,69,3182937764
41,9,21,Ticks_Linear_5,89,1,48,55,3182961940
41,9,21,Ticks_Linear_5,90,1,48,67,3183458392
41,9,21,Ticks_Linear_5,91,5,42,127,3183460980
41,9,21,Ticks_Linear_5,92,1,48,73,3183997032
41,9,21,Ticks_Linear_5,93,5,42,127,3184010556
41,9,21,Ticks_Linear_5,94,1,48,56,3184018524
41,9,21,Ticks_Linear_5,95,1,48,70,3184545604
41,9,21,Ticks_Linear_5,96,5,42,127,3184560484
41,9,21,Ticks_Linear_5,97,1,48,53,3184569360
41,9,21,Ticks_Linear_5,98,5,42,127,3185111464
41,9,21,Ticks_Linear_5,99,1,48,71,3185119980
41,9,21,Ticks_Linear_5,100,1,48,59,3185144216
41,9,21,Ticks_Linear_5,101,5,42,127,3185661216
41,9,21,Ticks_Linear_5,102,1,48,70,3185669880
41,9,21,Ticks_Linear_5,103,1,48,55,3185693892
41,9,21,Ticks_Linear_5,104,1,48,61,3186216776
41,9,21,Ticks_Linear_5,105,5,42,127,3186221468
41,9,21,Ticks_Linear_5,106,1,48,49,3186241424
41,9,21,Ticks_Linear_5,107,1,48,57,3186747084
41,9,21,Ticks_Linear_5,108,1,48,39,3186780200
41,9,21,Ticks_Linear_5,109,5,42,127,3186790868
41,9,21,Ticks_Linear_5,110,1,48,71,3187302584
41,9,21,Ticks_Linear_5,111,1,48,56,3187323980
41,9,21,Ticks_Linear_5,112,5,42,127,3187351052
41,9,21,Ticks_Linear_5,113,1,48,69,3187891900
41,9,21,Ticks_Linear_5,114,5,42,127,3187910964
41,9,21,Ticks_Linear_5,115,1,48,52,3187916532
41,9,21,Ticks_Linear_5,116,1,48,57,3188441532
41,9,21,Ticks_Linear_5,117,1,48,47,3188466064
41,9,21,Ticks_Linear_5,118,5,42,127,3188471204
41,9,21,Ticks_Linear_5,119,1,48,59,3188988156
41,9,21,Ticks_Linear_5,120,5,42,127,3189040700
41,9,21,Ticks_Linear_5,121,1,48,70,3189575548
41,9,21,Ticks_Linear_5,122,1,48,52,3189600724
41,9,21,Ticks_Linear_5,123,5,42,127,3189610868
41,9,21,Ticks_Linear_5,124,1,48,72,3190160932
41,9,21,Ticks_Linear_5,125,5,42,127,3190181112
41,9,21,Ticks_Linear_5,126,1,48,53,3190188864
41,9,21,Ticks_Linear_5,127,5,42,127,3190750816
41,9,21,Ticks_Linear_5,128,1,48,67,3190785312
41,9,21,Ticks_Linear_5,129,1,48,47,3190821688
41,9,21,Ticks_Linear_5,130,1,48,70,3191299580
41,9,21,Ticks_Linear_5,131,5,42,127,3191320960
41,9,21,Ticks_Linear_5,132,1,48,53,3191322808
41,9,21,Ticks_Linear_5,133,1,48,69,3191830636
41,9,21,Ticks_Linear_5,134,1,48,51,3191854196
41,9,21,Ticks_Linear_5,135,5,42,127,3191900544
41,9,21,Ticks_Linear_5,136,1,48,65,3192404144
41,9,21,Ticks_Linear_5,137,1,48,54,3192429436
41,9,21,Ticks_Linear_5,138,5,42,127,3192481148
41,9,21,Ticks_Linear_5,139,5,42,127,3193060684
41,9,21,Ticks_Linear_5,140,1,48,56,3193062392
41,9,21,Ticks_Linear_5,141,1,48,59,3193635144
41,9,21,Ticks_Linear_5,142,5,42,127,3193641256
41,9,21,Ticks_Linear_5,143,1,48,49,3193657612
41,9,21,Ticks_Linear_5,144,1,48,63,3194215796
41,9,21,Ticks_Linear_5,145,5,42,127,3194220860
41,9,21,Ticks_Linear_5,146,1,48,67,3194785220
41,9,21,Ticks_Linear_5,147,5,42,127,3194810652
41,9,21,Ticks_Linear_5,148,1,48,66,3195363252
41,9,21,Ticks_Linear_5,149,1,48,51,3195385692
41,9,21,Ticks_Linear_5,150,5,42,127,3195400716
41,9,21,Ticks_Linear_5,151,1,48,65,3195964248
41,9,21,Ticks_Linear_5,152,5,42,127,3195991356
41,9,21,Ticks_Linear_5,153,1,48,67,3196562228
41,9,21,Ticks_Linear_5,154,5,42,127,3196581516
41,9,21,Ticks_Linear_5,155,1,48,52,3196584996
41,9,21,Ticks_Linear_5,156,1,48,60,3197144804
41,9,21,Ticks_Linear_5,157,5,42,127,3197171136
41,9,21,Ticks_Linear_5,158,1,48,66,3197751748
41,9,21,Ticks_Linear_5,159,5,42,127,3197771032
41,9,21,Ticks_Linear_5,160,1,48,62,3198358940
41,9,21,Ticks_Linear_5,161,5,42,127,3198371332
41,9,21,Ticks_Linear_5,162,1,48,50,3198381028
41,9,21,Ticks_Linear_5,163,1,48,66,3198949608
41,9,21,Ticks_Linear_5,164,1,48,54,3198971640
41,9,21,Ticks_Linear_5,165,5,42,127,3198973056
41,9,21,Ticks_Linear_5,166,1,48,61,3199561236
41,9,21,Ticks_Linear_5,167,5,42,127,3199571384
41,9,21,Ticks_Linear_5,168,1,48,65,3200162404
41,9,21,Ticks_Linear_5,169,5,42,127,3200171356
41,9,21,Ticks_Linear_5,170,1,48,52,3200187040
41,9,21,Ticks_Linear_5,171,1,48,65,3200779472
41,9,21,Ticks_Linear_5,172,5,42,127,3200781348
41,9,21,Ticks_Linear_5,173,1,48,62,3201383248
41,9,21,Ticks_Linear_5,174,5,42,127,3201390932
41,9,21,Ticks_Linear_5,175,1,48,49,3201406908
41,9,21,Ticks_Linear_5,176,5,42,127,3202001372
41,9,21,Ticks_Linear_5,177,1,48,59,3202013336
41,9,21,Ticks_Linear_5,178,5,42,127,3202610412
41,9,21,Ticks_Linear_5,179,1,48,54,3202618240
41,9,21,Ticks_Linear_5,180,5,42,127,3203220820
41,9,21,Ticks_Linear_5,181,1,48,66,3203247448
41,9,21,Ticks_Linear_5,182,1,48,54,3203272072
41,9,21,Ticks_Linear_5,183,1,48,61,3203839320
41,9,21,Ticks_Linear_5,184,5,42,127,3203841360
41,9,21,Ticks_Linear_5,185,1,48,63,3204447004
41,9,21,Ticks_Linear_5,186,5,42,127,3204460832
41,9,21,Ticks_Linear_5,187,1,48,48,3204471128
41,9,21,Ticks_Linear_5,188,1,48,69,3205035576
41,9,21,Ticks_Linear_5,189,1,48,54,3205058164
41,9,21,Ticks_Linear_5,190,5,42,127,3205080308
41,9,21,Ticks_Linear_5,191,1,48,59,3205637248
41,9,21,Ticks_Linear_5,192,5,42,127,3205701244
41,9,21,Ticks_Linear_5,193,1,48,57,3206266672
41,9,21,Ticks_Linear_5,194,5,42,127,3206320568
41,9,21,Ticks_Linear_5,195,1,48,62,3206884552
41,9,21,Ticks_Linear_5,196,5,42,127,3206951320
41,9,21,Ticks_Linear_5,197,1,48,66,3207513008
41,9,21,Ticks_Linear_5,198,5,42,127,3207581344
41,9,21,Ticks_Linear_5,199,1,48,70,3208128252
41,9,21,Ticks_Linear_5,200,1,48,55,3208152800
41,9,21,Ticks_Linear_5,201,5,42,127,3208210728
41,9,21,Ticks_Linear_5,202,1,48,60,3208795480
41,9,21,Ticks_Linear_5,203,5,42,127,3208840608
41,9,21,Ticks_Linear_5,204,1,48,62,3209460240
41,9,21,Ticks_Linear_5,205,5,42,127,3209471288
41,9,21,Ticks_Linear_5,206,1,48,67,3210048000
41,9,21,Ticks_Linear_5,207,1,48,51,3210071672
41,9,21,Ticks_Linear_5,208,5,42,127,3210111328
41,9,21,Ticks_Linear_5,209,1,48,65,3210671572
41,9,21,Ticks_Linear_5,210,1,48,53,3210694164
41,9,21,Ticks_Linear_5,211,5,42,127,3210751344
41,9,21,Ticks_Linear_5,212,1,48,65,3211323868
41,9,21,Ticks_Linear_5,213,5,42,127,3211391332
41,9,21,Ticks_Linear_5,214,1,48,62,3211964680
41,9,21,Ticks_Linear_5,215,1,48,49,3211987196
41,9,21,Ticks_Linear_5,216,5,42,127,3212031276
41,9,21,Ticks_Linear_5,217,1,48,64,3212624168
41,9,21,Ticks_Linear_5,218,5,42,127,3212671340
41,9,21,Ticks_Linear_5,219,1,48,73,3213269704
41,9,21,Ticks_Linear_5,220,1,48,55,3213292072
41,9,21,Ticks_Linear_5,221,5,42,127,3213320496
41,9,21,Ticks_Linear_5,222,1,48,61,3213944412
41,9,21,Ticks_Linear_5,223,5,42,127,3213970892
41,9,21,Ticks_Linear_5,224,1,48,63,3214597776
41,9,21,Ticks_Linear_5,225,1,48,51,3214619132
41,9,21,Ticks_Linear_5,226,5,42,127,3214621092
41,9,21,Ticks_Linear_5,227,1,48,67,3215236396
41,9,21,Ticks_Linear_5,228,5,42,127,3215271260
41,9,21,Ticks_Linear_5,229,1,48,70,3215860488
41,9,21,Ticks_Linear_5,230,1,48,51,3215884124
41,9,21,Ticks_Linear_5,231,5,42,127,3215920716
41,9,21,Ticks_Linear_5,232,1,48,56,3216530336
41,9,21,Ticks_Linear_5,233,5,42,127,3216580852
41,9,21,Ticks_Linear_5,234,1,48,56,3217197924
41,9,21,Ticks_Linear_5,235,5,42,127,3217240384
41,9,21,Ticks_Linear_5,236,1,48,59,3217857384
41,9,21,Ticks_Linear_5,237,5,42,127,3217900944
41,9,21,Ticks_Linear_5,238,1,48,72,3218530856
41,9,21,Ticks_Linear_5,239,1,48,55,3218553296
41,9,21,Ticks_Linear_5,240,5,42,127,3218561276
41,9,21,Ticks_Linear_5,241,1,48,54,3219212732
41,9,21,Ticks_Linear_5,242,5,42,127,3219221012
41,9,21,Ticks_Linear_5,243,1,48,52,3219862232
41,9,21,Ticks_Linear_5,244,1,48,43,3219888904
41,9,21,Ticks_Linear_5,245,5,42,127,3219890488
41,9,21,Ticks_Linear_5,246,1,48,51,3220492140
41,9,21,Ticks_Linear_5,247,5,42,127,3220561152
41,9,21,Ticks_Linear_5,248,1,48,57,3221168380
41,9,21,Ticks_Linear_5,249,5,42,127,3221230944
41,9,21,Ticks_Linear_5,250,1,48,62,3221844680
41,9,21,Ticks_Linear_5,251,1,48,49,3221870200
41,9,21,Ticks_Linear_5,252,5,42,127,3221900644
41,9,21,Ticks_Linear_5,253,1,48,58,3222514728
41,9,21,Ticks_Linear_5,254,1,48,46,3222544060
41,9,21,Ticks_Linear_5,255,5,42,127,3222571288
41,9,21,Ticks_Linear_5,256,1,48,62,3223214156
41,9,21,Ticks_Linear_5,257,1,48,48,3223245284
41,9,21,Ticks_Linear_5,258,5,42,127,3223251248
41,9,21,Ticks_Linear_5,259,1,48,56,3223896512
41,9,21,Ticks_Linear_5,260,1,48,44,3223924196
41,9,21,Ticks_Linear_5,261,5,42,127,3223931428
41,9,21,Ticks_Linear_5,262,1,48,52,3224583484
41,9,21,Ticks_Linear_5,263,5,42,127,3224611084
41,9,21,Ticks_Linear_5,264,1,48,59,3225252228
41,9,21,Ticks_Linear_5,265,1,48,46,3225280596
41,9,21,Ticks_Linear_5,266,5,42,127,3225291116
41,9,21,Ticks_Linear_5,267,1,48,66,3225919812
41,9,21,Ticks_Linear_5,268,1,48,53,3225945564
41,9,21,Ticks_Linear_5,269,5,42,127,3225970924
41,9,21,Ticks_Linear_5,270,1,48,61,3226609276
41,9,21,Ticks_Linear_5,271,1,48,50,3226642948
41,9,21,Ticks_Linear_5,272,5,42,127,3226661112
41,9,21,Ticks_Linear_5,273,1,48,51,3227307048
41,9,21,Ticks_Linear_5,274,5,42,127,3227351572
41,9,21,Ticks_Linear_5,275,1,48,50,3228008828
41,9,21,Ticks_Linear_5,276,1,48,43,3228033956
41,9,21,Ticks_Linear_5,277,5,42,127,3228040740
41,9,21,Ticks_Linear_5,278,1,48,53,3228668748
41,9,21,Ticks_Linear_5,279,5,42,127,3228730732
41,9,21,Ticks_Linear_5,280,1,48,62,3229336224
41,9,21,Ticks_Linear_5,281,1,48,50,3229360328
41,9,21,Ticks_Linear_5,282,5,42,127,3229420872
41,9,21,Ticks_Linear_5,283,1,48,59,3230049068
41,9,21,Ticks_Linear_5,284,1,48,47,3230079524
41,9,21,Ticks_Linear_5,285,5,42,127,3230121572
41,9,21,Ticks_Linear_5,286,5,42,127,3230820732
41,9,21,Ticks_Linear_5,287,1,48,70,3230834552
41,9,21,Ticks_Linear_5,288,1,48,55,3230859780
41,9,21,Ticks_Linear_5,289,5,42,127,3231521180
41,9,21,Ticks_Linear_5,290,1,48,71,3231530964
41,9,21,Ticks_Linear_5,291,1,48,54,3231558492
41,9,21,Ticks_Linear_5,292,5,42,127,3232220456
41,9,21,Ticks_Linear_5,293,1,48,65,3232224996
41,9,21,Ticks_Linear_5,294,1,48,48,3232252760
41,9,21,Ticks_Linear_5,295,1,48,61,3232893104
41,9,21,Ticks_Linear_5,296,1,48,45,3232920764
41,9,21,Ticks_Linear_5,297,5,42,127,3232922324
41,9,21,Ticks_Linear_5,298,1,48,59,3233569444
41,9,21,Ticks_Linear_5,299,1,48,43,3233601396
41,9,21,Ticks_Linear_5,300,5,42,127,3233630520
41,9,21,Ticks_Linear_5,301,1,48,58,3234278536
41,9,21,Ticks_Linear_5,302,1,48,43,3234306364
41,9,21,Ticks_Linear_5,303,5,42,127,3234341380
41,9,21,Ticks_Linear_5,304,1,48,63,3234988896
41,9,21,Ticks_Linear_5,305,1,48,45,3235020400
41,9,21,Ticks_Linear_5,306,5,42,127,3235050920
41,9,21,Ticks_Linear_5,307,1,48,52,3235744332
41,9,21,Ticks_Linear_5,308,5,42,127,3235760476
41,9,21,Ticks_Linear_5,309,1,48,39,3235776684
41,9,21,Ticks_Linear_5,310,1,48,59,3236432428
41,9,21,Ticks_Linear_5,311,1,48,44,3236462460
41,9,21,Ticks_Linear_5,312,5,42,127,3236471116
41,9,21,Ticks_Linear_5,313,1,48,52,3237094932
41,9,21,Ticks_Linear_5,314,1,48,42,3237133780
41,9,21,Ticks_Linear_5,315,5,42,127,3237191112
41,9,21,Ticks_Linear_5,316,1,48,66,3237837872
41,9,21,Ticks_Linear_5,317,1,48,50,3237864208
41,9,21,Ticks_Linear_5,318,5,42,127,3237910908
41,9,21,Ticks_Linear_5,319,1,48,57,3238565524
41,9,21,Ticks_Linear_5,320,5,42,127,3238630800
41,9,21,Ticks_Linear_5,321,1,48,58,3239272020
41,9,21,Ticks_Linear_5,322,1,48,43,3239300532
41,9,21,Ticks_Linear_5,323,5,42,127,3239350596
41,9,21,Ticks_Linear_5,324,1,48,55,3240061988
41,9,21,Ticks_Linear_5,325,5,42,127,3240070492
41,9,21,Ticks_Linear_5,326,1,48,40,3240095604
41,9,21,Ticks_Linear_5,327,1,48,59,3240798664
41,9,21,Ticks_Linear_5,328,5,42,127,3240800548
41,9,21,Ticks_Linear_5,329,1,48,58,3241501732
41,9,21,Ticks_Linear_5,330,5,42,127,3241530824
41,9,21,Ticks_Linear_5,331,1,48,43,3241532820
41,9,21,Ticks_Linear_5,332,1,48,58,3242213884
41,9,21,Ticks_Linear_5,333,1,48,46,3242240600
41,9,21,Ticks_Linear_5,334,5,42,127,3242260788
41,9,21,Ticks_Linear_5,335,1,48,57,3242952108
41,9,21,Ticks_Linear_5,336,1,48,45,3242977692
41,9,21,Ticks_Linear_5,337,5,42,127,3242991288
41,9,21,Ticks_Linear_5,338,5,42,127,3243721000
41,9,21,Ticks_Linear_5,339,1,48,60,3243723668
41,9,21,Ticks_Linear_5,340,1,48,46,3243749644
41,9,21,Ticks_Linear_5,341,1,48,58,3244452656
41,9,21,Ticks_Linear_5,342,5,42,127,3244461384
41,9,21,Ticks_Linear_5,343,1,48,44,3244480672
41,9,21,Ticks_Linear_5,344,1,48,59,3245159056
41,9,21,Ticks_Linear_5,345,1,48,45,3245185980
41,9,21,Ticks_Linear_5,346,5,42,127,3245211116
41,9,21,Ticks_Linear_5,347,1,48,55,3245866980
41,9,21,Ticks_Linear_5,348,5,42,127,3245951228
41,9,21,Ticks_Linear_5,349,1,48,62,3246638020
41,9,21,Ticks_Linear_5,350,1,48,46,3246665864
41,9,21,Ticks_Linear_5,351,5,42,127,3246690572
41,9,21,Ticks_Linear_5,352,1,48,61,3247391752
41,9,21,Ticks_Linear_5,353,1,48,46,3247417860
41,9,21,Ticks_Linear_5,354,5,42,127,3247431160
41,9,21,Ticks_Linear_5,355,1,48,52,3248136332
41,9,21,Ticks_Linear_5,356,5,42,127,3248180560
41,9,21,Ticks_Linear_5,357,1,48,51,3248851212
41,9,21,Ticks_Linear_5,358,5,42,127,3248931080
41,9,21,Ticks_Linear_5,359,1,48,56,3249602928
41,9,21,Ticks_Linear_5,360,5,42,127,3249680780
41,9,21,Ticks_Linear_5,361,5,42,127,3250431308
41,9,21,Ticks_Linear_5,362,1,48,51,3250432272
41,9,21,Ticks_Linear_5,363,5,42,127,3251180932
41,9,21,Ticks_Linear_5,364,1,48,45,3251187716
41,9,21,Ticks_Linear_5,365,1,48,36,3251222600
41,9,21,Ticks_Linear_5,366,1,48,54,3251930636
41,9,21,Ticks_Linear_5,367,5,42,127,3251940712
41,9,21,Ticks_Linear_5,368,1,48,49,3252697404
41,9,21,Ticks_Linear_5,369,5,42,127,3252700744
41,9,21,Ticks_Linear_5,370,5,42,127,3253461308
41,9,21,Ticks_Linear_5,371,1,48,54,3253462496
41,9,21,Ticks_Linear_5,372,1,48,46,3254171196
41,9,21,Ticks_Linear_5,373,5,42,127,3254221184
41,9,21,Ticks_Linear_5,374,1,48,47,3254905912
41,9,21,Ticks_Linear_5,375,5,42,127,3254980920
41,9,21,Ticks_Linear_5,376,1,48,59,3255733420
41,9,21,Ticks_Linear_5,377,5,42,127,3255750984
41,9,21,Ticks_Linear_5,378,1,48,44,3255766664
41,9,21,Ticks_Linear_5,379,1,48,58,3256519148
41,9,21,Ticks_Linear_5,380,5,42,127,3256521032
41,9,21,Ticks_Linear_5,381,1,48,40,3256553264
41,9,21,Ticks_Linear_5,382,5,42,127,3257291088
41,9,21,Ticks_Linear_5,383,1,48,55,3257305584
41,9,21,Ticks_Linear_5,384,5,42,127,3258061304
41,9,21,Ticks_Linear_5,385,1,48,48,3258064420
41,9,21,Ticks_Linear_5,386,5,42,127,3258831596
41,9,21,Ticks_Linear_5,387,1,48,59,3258832560
41,9,21,Ticks_Linear_5,388,5,42,127,3259610652
41,9,21,Ticks_Linear_5,389,1,48,53,3259626652
41,9,21,Ticks_Linear_5,390,1,48,42,3260349524
41,9,21,Ticks_Linear_5,391,5,42,127,3260390896
41,9,21,Ticks_Linear_5,392,1,48,57,3261128044
41,9,21,Ticks_Linear_5,393,5,42,127,3261170924
41,9,21,Ticks_Linear_5,394,1,48,57,3261915108
41,9,21,Ticks_Linear_5,395,5,42,127,3261951624
41,9,21,Ticks_Linear_5,396,5,42,127,3262730612
41,9,21,Ticks_Linear_5,397,1,48,57,3262758216
41,9,21,Ticks_Linear_5,398,1,48,49,3263520596
41,9,21,Ticks_Linear_5,399,5,42,127,3263522312
41,9,21,Ticks_Linear_5,400,1,48,57,3264288440
41,9,21,Ticks_Linear_5,401,5,42,127,3264310656
41,9,21,Ticks_Linear_5,402,1,48,58,3265085392
41,9,21,Ticks_Linear_5,403,5,42,127,3265101612
41,9,21,Ticks_Linear_5,404,1,48,55,3265888128
41,9,21,Ticks_Linear_5,405,5,42,127,3265890800
41,9,21,Ticks_Linear_5,406,1,48,55,3266673180
41,9,21,Ticks_Linear_5,407,5,42,127,3266681384
41,9,21,Ticks_Linear_5,408,5,42,127,3267480820
41,9,21,Ticks_Linear_5,409,1,48,57,3267490308
41,9,21,Ticks_Linear_5,410,5,42,127,3268280688
41,9,21,Ticks_Linear_5,411,1,48,54,3268320512
41,9,21,Ticks_Linear_5,412,1,48,55,3269073772
41,9,21,Ticks_Linear_5,413,5,42,127,3269080408
41,9,21,Ticks_Linear_5,414,5,42,127,3269881408
41,9,21,Ticks_Linear_5,415,1,48,58,3269886696
41,9,21,Ticks_Linear_5,416,5,42,127,3270681056
41,9,21,Ticks_Linear_5,417,1,48,49,3270719156
41,9,21,Ticks_Linear_5,418,1,48,53,3271419332
41,9,21,Ticks_Linear_5,419,5,42,127,3271491108
41,9,21,Ticks_Linear_5,420,1,48,51,3272262480
41,9,21,Ticks_Linear_5,421,5,42,127,3272301040
41,9,21,Ticks_Linear_5,422,1,48,53,3273086044
41,9,21,Ticks_Linear_5,423,5,42,127,3273111024
41,9,21,Ticks_Linear_5,424,5,42,127,3273921088
41,9,21,Ticks_Linear_5,425,1,48,46,3273922052
41,9,21,Ticks_Linear_5,426,1,48,54,3274717388
41,9,21,Ticks_Linear_5,427,5,42,127,3274730916
41,9,21,Ticks_Linear_5,0,9999,9999,9999,3165538400
41,9,21,Ticks_Linear_5,1,9999,9999,9999,3166018624
41,9,21,Ticks_Linear_5,2,9999,9999,9999,3166498944
41,9,21,Ticks_Linear_5,3,9999,9999,9999,3166978124
41,9,21,Ticks_Linear_5,4,9999,9999,9999,3167458412
41,9,21,Ticks_Linear_5,5,9999,9999,9999,3167948876
41,9,21,Ticks_Linear_5,6,9999,9999,9999,3168438372
41,9,21,Ticks_Linear_5,7,9999,9999,9999,3168928832
41,9,21,Ticks_Linear_5,8,9999,9999,9999,3169418300
41,9,21,Ticks_Linear_5,9,9999,9999,9999,3169908844
41,9,21,Ticks_Linear_5,10,9999,9999,9999,3170408520
41,9,21,Ticks_Linear_5,11,9999,9999,9999,3170908268
41,9,21,Ticks_Linear_5,12,9999,9999,9999,3171408968
41,9,21,Ticks_Linear_5,13,9999,9999,9999,3171908728
41,9,21,Ticks_Linear_5,14,9999,9999,9999,3172408420
41,9,21,Ticks_Linear_5,15,9999,9999,9999,3172918380
41,9,21,Ticks_Linear_5,16,9999,9999,9999,3173428340
41,9,21,Ticks_Linear_5,17,9999,9999,9999,3173938300
41,9,21,Ticks_Linear_5,18,9999,9999,9999,3174448236
41,9,21,Ticks_Linear_5,19,9999,9999,9999,3174958172
41,9,21,Ticks_Linear_5,20,9999,9999,9999,3175478368
41,9,21,Ticks_Linear_5,21,9999,9999,9999,3175998564
41,9,21,Ticks_Linear_5,22,9999,9999,9999,3176518712
41,9,21,Ticks_Linear_5,23,9999,9999,9999,3177038932
41,9,21,Ticks_Linear_5,24,9999,9999,9999,3177558096
41,9,21,Ticks_Linear_5,25,9999,9999,9999,3178088552
41,9,21,Ticks_Linear_5,26,9999,9999,9999,3178619008
41,9,21,Ticks_Linear_5,27,9999,9999,9999,3179148360
41,9,21,Ticks_Linear_5,28,9999,9999,9999,3179678840
41,9,21,Ticks_Linear_5,29,9999,9999,9999,3180208248
41,9,21,Ticks_Linear_5,30,9999,9999,9999,3180748888
41,9,21,Ticks_Linear_5,31,9999,9999,9999,3181288508
41,9,21,Ticks_Linear_5,32,9999,9999,9999,3181828196
41,9,21,Ticks_Linear_5,33,9999,9999,9999,3182368844
41,9,21,Ticks_Linear_5,34,9999,9999,9999,3182908512
41,9,21,Ticks_Linear_5,35,9999,9999,9999,3183458460
41,9,21,Ticks_Linear_5,36,9999,9999,9999,3184008256
41,9,21,Ticks_Linear_5,37,9999,9999,9999,3184558184
41,9,21,Ticks_Linear_5,38,9999,9999,9999,3185109092
41,9,21,Ticks_Linear_5,39,9999,9999,9999,3185658992
41,9,21,Ticks_Linear_5,40,9999,9999,9999,3186219096
41,9,21,Ticks_Linear_5,41,9999,9999,9999,3186788424
41,9,21,Ticks_Linear_5,42,9999,9999,9999,3187348608
41,9,21,Ticks_Linear_5,43,9999,9999,9999,3187908664
41,9,21,Ticks_Linear_5,44,9999,9999,9999,3188468832
41,9,21,Ticks_Linear_5,45,9999,9999,9999,3189038180
41,9,21,Ticks_Linear_5,46,9999,9999,9999,3189608572
41,9,21,Ticks_Linear_5,47,9999,9999,9999,3190178892
41,9,21,Ticks_Linear_5,48,9999,9999,9999,3190748220
41,9,21,Ticks_Linear_5,49,9999,9999,9999,3191318584
41,9,21,Ticks_Linear_5,50,9999,9999,9999,3191898172
41,9,21,Ticks_Linear_5,51,9999,9999,9999,3192478776
41,9,21,Ticks_Linear_5,52,9999,9999,9999,3193058384
41,9,21,Ticks_Linear_5,53,9999,9999,9999,3193639032
41,9,21,Ticks_Linear_5,54,9999,9999,9999,3194218564
41,9,21,Ticks_Linear_5,55,9999,9999,9999,3194808428
41,9,21,Ticks_Linear_5,56,9999,9999,9999,3195398272
41,9,21,Ticks_Linear_5,57,9999,9999,9999,3195989056
41,9,21,Ticks_Linear_5,58,9999,9999,9999,3196578920
41,9,21,Ticks_Linear_5,59,9999,9999,9999,3197168760
41,9,21,Ticks_Linear_5,60,9999,9999,9999,3197768808
41,9,21,Ticks_Linear_5,61,9999,9999,9999,3198368884
41,9,21,Ticks_Linear_5,62,9999,9999,9999,3198968912
41,9,21,Ticks_Linear_5,63,9999,9999,9999,3199569012
41,9,21,Ticks_Linear_5,64,9999,9999,9999,3200169060
41,9,21,Ticks_Linear_5,65,9999,9999,9999,3200778304
41,9,21,Ticks_Linear_5,66,9999,9999,9999,3201388632
41,9,21,Ticks_Linear_5,67,9999,9999,9999,3201998928
41,9,21,Ticks_Linear_5,68,9999,9999,9999,3202608188
41,9,21,Ticks_Linear_5,69,9999,9999,9999,3203218520
41,9,21,Ticks_Linear_5,70,9999,9999,9999,3203839100
41,9,21,Ticks_Linear_5,71,9999,9999,9999,3204458608
41,9,21,Ticks_Linear_5,72,9999,9999,9999,3205078084
41,9,21,Ticks_Linear_5,73,9999,9999,9999,3205698648
41,9,21,Ticks_Linear_5,74,9999,9999,9999,3206318196
41,9,21,Ticks_Linear_5,75,9999,9999,9999,3206948948
41,9,21,Ticks_Linear_5,76,9999,9999,9999,3207578752
41,9,21,Ticks_Linear_5,77,9999,9999,9999,3208208504
41,9,21,Ticks_Linear_5,78,9999,9999,9999,3208838236
41,9,21,Ticks_Linear_5,79,9999,9999,9999,3209468988
41,9,21,Ticks_Linear_5,80,9999,9999,9999,3210109028
41,9,21,Ticks_Linear_5,81,9999,9999,9999,3210749048
41,9,21,Ticks_Linear_5,82,9999,9999,9999,3211389036
41,9,21,Ticks_Linear_5,83,9999,9999,9999,3212029052
41,9,21,Ticks_Linear_5,84,9999,9999,9999,3212669040
41,9,21,Ticks_Linear_5,85,9999,9999,9999,3213318272
41,9,21,Ticks_Linear_5,86,9999,9999,9999,3213968444
41,9,21,Ticks_Linear_5,87,9999,9999,9999,3214618748
41,9,21,Ticks_Linear_5,88,9999,9999,9999,3215268964
41,9,21,Ticks_Linear_5,89,9999,9999,9999,3215918196
41,9,21,Ticks_Linear_5,90,9999,9999,9999,3216578628
41,9,21,Ticks_Linear_5,91,9999,9999,9999,3217238088
41,9,21,Ticks_Linear_5,92,9999,9999,9999,3217898572
41,9,21,Ticks_Linear_5,93,9999,9999,9999,3218559052
41,9,21,Ticks_Linear_5,94,9999,9999,9999,3219218488
41,9,21,Ticks_Linear_5,95,9999,9999,9999,3219888196
41,9,21,Ticks_Linear_5,96,9999,9999,9999,3220558928
41,9,21,Ticks_Linear_5,97,9999,9999,9999,3221228648
41,9,21,Ticks_Linear_5,98,9999,9999,9999,3221898348
41,9,21,Ticks_Linear_5,99,9999,9999,9999,3222569064
41,9,21,Ticks_Linear_5,100,9999,9999,9999,3223249024
41,9,21,Ticks_Linear_5,101,9999,9999,9999,3223928908
41,9,21,Ticks_Linear_5,102,9999,9999,9999,3224608860
41,9,21,Ticks_Linear_5,103,9999,9999,9999,3225288820
41,9,21,Ticks_Linear_5,104,9999,9999,9999,3225968700
41,9,21,Ticks_Linear_5,105,9999,9999,9999,3226658888
41,9,21,Ticks_Linear_5,106,9999,9999,9999,3227349052
41,9,21,Ticks_Linear_5,107,9999,9999,9999,3228038220
41,9,21,Ticks_Linear_5,108,9999,9999,9999,3228728432
41,9,21,Ticks_Linear_5,109,9999,9999,9999,3229418576
41,9,21,Ticks_Linear_5,110,9999,9999,9999,3230118976
41,9,21,Ticks_Linear_5,111,9999,9999,9999,3230818356
41,9,21,Ticks_Linear_5,112,9999,9999,9999,3231518808
41,9,21,Ticks_Linear_5,113,9999,9999,9999,3232218232
41,9,21,Ticks_Linear_5,114,9999,9999,9999,3232918628
41,9,21,Ticks_Linear_5,115,9999,9999,9999,3233628220
41,9,21,Ticks_Linear_5,116,9999,9999,9999,3234338932
41,9,21,Ticks_Linear_5,117,9999,9999,9999,3235048544
41,9,21,Ticks_Linear_5,118,9999,9999,9999,3235758180
41,9,21,Ticks_Linear_5,119,9999,9999,9999,3236468816
41,9,21,Ticks_Linear_5,120,9999,9999,9999,3237188664
41,9,21,Ticks_Linear_5,121,9999,9999,9999,3237908536
41,9,21,Ticks_Linear_5,122,9999,9999,9999,3238628428
41,9,21,Ticks_Linear_5,123,9999,9999,9999,3239348300
41,9,21,Ticks_Linear_5,124,9999,9999,9999,3240068192
41,9,21,Ticks_Linear_5,125,9999,9999,9999,3240798280
41,9,21,Ticks_Linear_5,126,9999,9999,9999,3241528376
41,9,21,Ticks_Linear_5,127,9999,9999,9999,3242258488
41,9,21,Ticks_Linear_5,128,9999,9999,9999,3242988620
41,9,21,Ticks_Linear_5,129,9999,9999,9999,3243718776
41,9,21,Ticks_Linear_5,130,9999,9999,9999,3244459088
41,9,21,Ticks_Linear_5,131,9999,9999,9999,3245208668
41,9,21,Ticks_Linear_5,132,9999,9999,9999,3245949008
41,9,21,Ticks_Linear_5,133,9999,9999,9999,3246688348
41,9,21,Ticks_Linear_5,134,9999,9999,9999,3247428712
41,9,21,Ticks_Linear_5,135,9999,9999,9999,3248178260
41,9,21,Ticks_Linear_5,136,9999,9999,9999,3248928856
41,9,21,Ticks_Linear_5,137,9999,9999,9999,3249678404
41,9,21,Ticks_Linear_5,138,9999,9999,9999,3250429008
41,9,21,Ticks_Linear_5,139,9999,9999,9999,3251178556
41,9,21,Ticks_Linear_5,140,9999,9999,9999,3251938412
41,9,21,Ticks_Linear_5,141,9999,9999,9999,3252698220
41,9,21,Ticks_Linear_5,142,9999,9999,9999,3253459008
41,9,21,Ticks_Linear_5,143,9999,9999,9999,3254218812
41,9,21,Ticks_Linear_5,144,9999,9999,9999,3254978620
41,9,21,Ticks_Linear_5,145,9999,9999,9999,3255748688
41,9,21,Ticks_Linear_5,146,9999,9999,9999,3256518764
41,9,21,Ticks_Linear_5,147,9999,9999,9999,3257288788
41,9,21,Ticks_Linear_5,148,9999,9999,9999,3258058856
41,9,21,Ticks_Linear_5,149,9999,9999,9999,3258828924
41,9,21,Ticks_Linear_5,150,9999,9999,9999,3259608128
41,9,21,Ticks_Linear_5,151,9999,9999,9999,3260388448
41,9,21,Ticks_Linear_5,152,9999,9999,9999,3261168700
41,9,21,Ticks_Linear_5,153,9999,9999,9999,3261949028
41,9,21,Ticks_Linear_5,154,9999,9999,9999,3262728312
41,9,21,Ticks_Linear_5,155,9999,9999,9999,3263518824
41,9,21,Ticks_Linear_5,156,9999,9999,9999,3264308284
41,9,21,Ticks_Linear_5,157,9999,9999,9999,3265098868
41,9,21,Ticks_Linear_5,158,9999,9999,9999,3265888352
41,9,21,Ticks_Linear_5,159,9999,9999,9999,3266678864
41,9,21,Ticks_Linear_5,160,9999,9999,9999,3267478596
41,9,21,Ticks_Linear_5,161,9999,9999,9999,3268278392
41,9,21,Ticks_Linear_5,162,9999,9999,9999,3269078112
41,9,21,Ticks_Linear_5,163,9999,9999,9999,3269878888
41,9,21,Ticks_Linear_5,164,9999,9999,9999,3270678608
41,9,21,Ticks_Linear_5,165,9999,9999,9999,3271488588
41,9,21,Ticks_Linear_5,166,9999,9999,9999,3272298592
41,9,21,Ticks_Linear_5,167,9999,9999,9999,3273108576
41,9,21,Ticks_Linear_5,168,9999,9999,9999,3273918564
41,9,21,Ticks_Linear_5,169,9999,9999,9999,3274728540
41,10,20,Ticks_Linear_8,0,5,42,127,3286625840
41,10,20,Ticks_Linear_8,1,5,42,127,3287445956
41,10,20,Ticks_Linear_8,2,5,42,127,3288266068
41,10,20,Ticks_Linear_8,3,1,48,66,3288279376
41,10,20,Ticks_Linear_8,4,5,42,127,3289086460
41,10,20,Ticks_Linear_8,5,1,48,68,3289139608
41,10,20,Ticks_Linear_8,6,1,48,42,3289186644
41,10,20,Ticks_Linear_8,7,5,42,127,3289905412
41,10,20,Ticks_Linear_8,8,1,48,60,3289937612
41,10,20,Ticks_Linear_8,9,1,48,43,3289972256
41,10,20,Ticks_Linear_8,10,1,48,56,3290650020
41,10,20,Ticks_Linear_8,11,1,48,45,3290681072
41,10,20,Ticks_Linear_8,12,5,42,127,3290715668
41,10,20,Ticks_Linear_8,13,1,48,51,3291478508
41,10,20,Ticks_Linear_8,14,5,42,127,3291525428
41,10,20,Ticks_Linear_8,15,1,48,51,3292294784
41,10,20,Ticks_Linear_8,16,1,48,42,3292323284
41,10,20,Ticks_Linear_8,17,5,42,127,3292335464
41,10,20,Ticks_Linear_8,18,1,48,54,3293139636
41,10,20,Ticks_Linear_8,19,5,42,127,3293145520
41,10,20,Ticks_Linear_8,20,1,48,44,3293177088
41,10,20,Ticks_Linear_8,21,5,42,127,3293955416
41,10,20,Ticks_Linear_8,22,1,48,52,3293987592
41,10,20,Ticks_Linear_8,23,1,48,34,3294040464
41,10,20,Ticks_Linear_8,24,5,42,127,3294756312
41,10,20,Ticks_Linear_8,25,1,48,27,3294790064
41,10,20,Ticks_Linear_8,26,1,48,51,3295514884
41,10,20,Ticks_Linear_8,27,5,42,127,3295555880
41,10,20,Ticks_Linear_8,28,1,48,73,3296345032
41,10,20,Ticks_Linear_8,29,5,42,127,3296355704
41,10,20,Ticks_Linear_8,30,1,48,56,3296368244
41,10,20,Ticks_Linear_8,31,5,42,127,3297155412
41,10,20,Ticks_Linear_8,32,1,48,29,3297201516
41,10,20,Ticks_Linear_8,33,5,42,127,3297956184
41,10,20,Ticks_Linear_8,34,1,48,30,3297964476
41,10,20,Ticks_Linear_8,35,1,48,67,3298730248
41,10,20,Ticks_Linear_8,36,5,42,127,3298745644
41,10,20,Ticks_Linear_8,37,1,48,46,3298764108
41,10,20,Ticks_Linear_8,38,5,42,127,3299536216
41,10,20,Ticks_Linear_8,39,1,48,70,3299578800
41,10,20,Ticks_Linear_8,40,1,48,46,3299614060
41,10,20,Ticks_Linear_8,41,1,48,74,3300305616
41,10,20,Ticks_Linear_8,42,5,42,127,3300325876
41,10,20,Ticks_Linear_8,43,1,48,47,3300344488
41,10,20,Ticks_Linear_8,44,5,42,127,3301116372
41,10,20,Ticks_Linear_8,45,1,48,72,3301125784
41,10,20,Ticks_Linear_8,46,1,48,40,3301167476
41,10,20,Ticks_Linear_8,47,1,48,70,3301860304
41,10,20,Ticks_Linear_8,48,5,42,127,3301905660
41,10,20,Ticks_Linear_8,49,1,48,70,3302638536
41,10,20,Ticks_Linear_8,50,1,48,40,3302674916
41,10,20,Ticks_Linear_8,51,5,42,127,3302686036
41,10,20,Ticks_Linear_8,52,1,48,69,3303423628
41,10,20,Ticks_Linear_8,53,5,42,127,3303466216
41,10,20,Ticks_Linear_8,54,1,48,64,3304215872
41,10,20,Ticks_Linear_8,55,5,42,127,3304245568
41,10,20,Ticks_Linear_8,56,1,48,42,3304253772
41,10,20,Ticks_Linear_8,57,1,48,67,3305011072
41,10,20,Ticks_Linear_8,58,5,42,127,3305026248
41,10,20,Ticks_Linear_8,59,1,48,46,3305043152
41,10,20,Ticks_Linear_8,60,1,48,64,3305785096
41,10,20,Ticks_Linear_8,61,5,42,127,3305806352
41,10,20,Ticks_Linear_8,62,5,42,127,3306576204
41,10,20,Ticks_Linear_8,63,1,48,63,3306584868
41,10,20,Ticks_Linear_8,64,1,48,41,3306628656
41,10,20,Ticks_Linear_8,65,5,42,127,3307346252
41,10,20,Ticks_Linear_8,66,1,48,70,3307381796
41,10,20,Ticks_Linear_8,67,1,48,40,3307425364
41,10,20,Ticks_Linear_8,68,5,42,127,3308116220
41,10,20,Ticks_Linear_8,69,1,48,66,3308198496
41,10,20,Ticks_Linear_8,70,1,48,40,3308235852
41,10,20,Ticks_Linear_8,71,1,48,73,3308873848
41,10,20,Ticks_Linear_8,72,5,42,127,3308886412
41,10,20,Ticks_Linear_8,73,1,48,43,3308914984
41,10,20,Ticks_Linear_8,74,1,48,64,3309626284
41,10,20,Ticks_Linear_8,75,5,42,127,3309656532
41,10,20,Ticks_Linear_8,76,1,48,39,3309666904
41,10,20,Ticks_Linear_8,77,1,48,66,3310412904
41,10,20,Ticks_Linear_8,78,5,42,127,3310425604
41,10,20,Ticks_Linear_8,79,1,48,43,3310443380
41,10,20,Ticks_Linear_8,80,5,42,127,3311186224
41,10,20,Ticks_Linear_8,81,1,48,50,3311197212
41,10,20,Ticks_Linear_8,82,1,48,58,3311915780
41,10,20,Ticks_Linear_8,83,5,42,127,3311946000
41,10,20,Ticks_Linear_8,84,1,48,58,3312659236
41,10,20,Ticks_Linear_8,85,5,42,127,3312706008
41,10,20,Ticks_Linear_8,86,1,48,61,3313434548
41,10,20,Ticks_Linear_8,87,5,42,127,3313465892
41,10,20,Ticks_Linear_8,88,1,48,57,3314214300
41,10,20,Ticks_Linear_8,89,5,42,127,3314216264
41,10,20,Ticks_Linear_8,90,1,48,51,3314942852
41,10,20,Ticks_Linear_8,91,5,42,127,3314965816
41,10,20,Ticks_Linear_8,92,1,48,58,3315708360
41,10,20,Ticks_Linear_8,93,5,42,127,3315715664
41,10,20,Ticks_Linear_8,94,5,42,127,3316465896
41,10,20,Ticks_Linear_8,95,1,48,58,3316467232
41,10,20,Ticks_Linear_8,96,5,42,127,3317215892
41,10,20,Ticks_Linear_8,97,1,48,54,3317232864
41,10,20,Ticks_Linear_8,98,5,42,127,3317955856
41,10,20,Ticks_Linear_8,99,1,48,57,3317989456
41,10,20,Ticks_Linear_8,100,1,48,49,3318685816
41,10,20,Ticks_Linear_8,101,5,42,127,3318696560
41,10,20,Ticks_Linear_8,102,1,48,51,3319412512
41,10,20,Ticks_Linear_8,103,5,42,127,3319435776
41,10,20,Ticks_Linear_8,104,5,42,127,3320175896
41,10,20,Ticks_Linear_8,105,1,48,49,3320229712
41,10,20,Ticks_Linear_8,106,1,48,44,3320842016
41,10,20,Ticks_Linear_8,107,5,42,127,3320916448
41,10,20,Ticks_Linear_8,108,1,48,50,3321619352
41,10,20,Ticks_Linear_8,109,5,42,127,3321645828
41,10,20,Ticks_Linear_8,110,1,48,47,3322372492
41,10,20,Ticks_Linear_8,111,5,42,127,3322375536
41,10,20,Ticks_Linear_8,112,5,42,127,3323105692
41,10,20,Ticks_Linear_8,113,1,48,51,3323133816
41,10,20,Ticks_Linear_8,114,1,48,48,3323808096
41,10,20,Ticks_Linear_8,115,5,42,127,3323835692
41,10,20,Ticks_Linear_8,116,1,48,48,3324528360
41,10,20,Ticks_Linear_8,117,5,42,127,3324565844
41,10,20,Ticks_Linear_8,118,1,48,45,3325273348
41,10,20,Ticks_Linear_8,119,5,42,127,3325285740
41,10,20,Ticks_Linear_8,120,5,42,127,3326005540
41,10,20,Ticks_Linear_8,121,1,48,41,3326017124
41,10,20,Ticks_Linear_8,122,5,42,127,3326725432
41,10,20,Ticks_Linear_8,123,1,48,40,3326756040
41,10,20,Ticks_Linear_8,124,1,48,45,3327444000
41,10,20,Ticks_Linear_8,125,5,42,127,3327446444
41,10,20,Ticks_Linear_8,126,5,42,127,3328166192
41,10,20,Ticks_Linear_8,127,1,48,40,3328238136
41,10,20,Ticks_Linear_8,128,1,48,41,3328829320
41,10,20,Ticks_Linear_8,129,5,42,127,3328875896
41,10,20,Ticks_Linear_8,130,1,48,42,3329551984
41,10,20,Ticks_Linear_8,131,5,42,127,3329585432
41,10,20,Ticks_Linear_8,132,1,48,43,3330277052
41,10,20,Ticks_Linear_8,133,5,42,127,3330296484
41,10,20,Ticks_Linear_8,134,5,42,127,3331005904
41,10,20,Ticks_Linear_8,135,1,48,46,3331006876
41,10,20,Ticks_Linear_8,136,1,48,39,3331677528
41,10,20,Ticks_Linear_8,137,5,42,127,3331715312
41,10,20,Ticks_Linear_8,138,1,48,41,3332409600
41,10,20,Ticks_Linear_8,139,5,42,127,3332415856
41,10,20,Ticks_Linear_8,140,1,48,42,3333102524
41,10,20,Ticks_Linear_8,141,5,42,127,3333116352
41,10,20,Ticks_Linear_8,142,1,48,36,3333800112
41,10,20,Ticks_Linear_8,143,5,42,127,3333815580
41,10,20,Ticks_Linear_8,144,1,48,41,3334502028
41,10,20,Ticks_Linear_8,145,5,42,127,3334516152
41,10,20,Ticks_Linear_8,146,5,42,127,3335215436
41,10,20,Ticks_Linear_8,147,1,48,42,3335236528
41,10,20,Ticks_Linear_8,148,5,42,127,3335905752
41,10,20,Ticks_Linear_8,149,1,48,39,3335914716
41,10,20,Ticks_Linear_8,150,1,48,51,3336581104
41,10,20,Ticks_Linear_8,151,5,42,127,3336596128
41,10,20,Ticks_Linear_8,152,1,48,57,3337282176
41,10,20,Ticks_Linear_8,153,5,42,127,3337285968
41,10,20,Ticks_Linear_8,154,5,42,127,3337976140
41,10,20,Ticks_Linear_8,155,1,48,65,3337995136
41,10,20,Ticks_Linear_8,156,5,42,127,3338666228
41,10,20,Ticks_Linear_8,157,1,48,46,3338669124
41,10,20,Ticks_Linear_8,158,1,48,62,3339331372
41,10,20,Ticks_Linear_8,159,5,42,127,3339346348
41,10,20,Ticks_Linear_8,160,5,42,127,3340026308
41,10,20,Ticks_Linear_8,161,1,48,68,3340042604
41,10,20,Ticks_Linear_8,162,1,48,44,3340092228
41,10,20,Ticks_Linear_8,163,1,48,55,3340670564
41,10,20,Ticks_Linear_8,164,5,42,127,3340706180
41,10,20,Ticks_Linear_8,165,1,48,54,3341353140
41,10,20,Ticks_Linear_8,166,5,42,127,3341385984
41,10,20,Ticks_Linear_8,167,5,42,127,3342065948
41,10,20,Ticks_Linear_8,168,1,48,54,3342080152
41,10,20,Ticks_Linear_8,169,5,42,127,3342735664
41,10,20,Ticks_Linear_8,170,1,48,52,3342758332
41,10,20,Ticks_Linear_8,171,1,48,61,3343376560
41,10,20,Ticks_Linear_8,172,5,42,127,3343405352
41,10,20,Ticks_Linear_8,173,1,48,44,3343407276
41,10,20,Ticks_Linear_8,174,1,48,68,3344063928
41,10,20,Ticks_Linear_8,175,5,42,127,3344076096
41,10,20,Ticks_Linear_8,176,1,48,61,3344712796
41,10,20,Ticks_Linear_8,177,5,42,127,3344745740
41,10,20,Ticks_Linear_8,178,5,42,127,3345415816
41,10,20,Ticks_Linear_8,179,1,48,51,3345427556
41,10,20,Ticks_Linear_8,180,1,48,37,3345462196
41,10,20,Ticks_Linear_8,181,5,42,127,3346076004
41,10,20,Ticks_Linear_8,182,1,48,60,3346086096
41,10,20,Ticks_Linear_8,183,1,48,44,3346114380
41,10,20,Ticks_Linear_8,184,1,48,55,3346701892
41,10,20,Ticks_Linear_8,185,5,42,127,3346735488
41,10,20,Ticks_Linear_8,186,1,48,58,3347356868
41,10,20,Ticks_Linear_8,187,5,42,127,3347395920
41,10,20,Ticks_Linear_8,188,5,42,127,3348056732
41,10,20,Ticks_Linear_8,189,1,48,58,3348062248
41,10,20,Ticks_Linear_8,190,1,48,59,3348717992
41,10,20,Ticks_Linear_8,191,5,42,127,3348726196
41,10,20,Ticks_Linear_8,192,1,48,48,3348742552
41,10,20,Ticks_Linear_8,193,1,48,57,3349358860
41,10,20,Ticks_Linear_8,194,5,42,127,3349376796
41,10,20,Ticks_Linear_8,195,1,48,56,3350012520
41,10,20,Ticks_Linear_8,196,5,42,127,3350025524
41,10,20,Ticks_Linear_8,197,5,42,127,3350675704
41,10,20,Ticks_Linear_8,198,1,48,62,3350678824
41,10,20,Ticks_Linear_8,199,1,48,57,3351323100
41,10,20,Ticks_Linear_8,200,5,42,127,3351326220
41,10,20,Ticks_Linear_8,201,1,48,60,3351949840
41,10,20,Ticks_Linear_8,202,5,42,127,3351976392
41,10,20,Ticks_Linear_8,203,1,48,61,3352597820
41,10,20,Ticks_Linear_8,204,5,42,127,3352616432
41,10,20,Ticks_Linear_8,205,1,48,58,3353232636
41,10,20,Ticks_Linear_8,206,1,48,46,3353257380
41,10,20,Ticks_Linear_8,207,5,42,127,3353258568
41,10,20,Ticks_Linear_8,208,1,48,58,3353883432
41,10,20,Ticks_Linear_8,209,5,42,127,3353896436
41,10,20,Ticks_Linear_8,210,1,48,60,3354509796
41,10,20,Ticks_Linear_8,211,5,42,127,3354536348
41,10,20,Ticks_Linear_8,212,1,48,61,3355172376
41,10,20,Ticks_Linear_8,213,5,42,127,3355176240
41,10,20,Ticks_Linear_8,214,1,48,56,3355790876
41,10,20,Ticks_Linear_8,215,5,42,127,3355806196
41,10,20,Ticks_Linear_8,216,1,48,47,3355815148
41,10,20,Ticks_Linear_8,217,1,48,56,3356425432
41,10,20,Ticks_Linear_8,218,5,42,127,3356435952
41,10,20,Ticks_Linear_8,219,5,42,127,3357065544
41,10,20,Ticks_Linear_8,220,1,48,57,3357075400
41,10,20,Ticks_Linear_8,221,5,42,127,3357696368
41,10,20,Ticks_Linear_8,222,1,48,56,3357706680
41,10,20,Ticks_Linear_8,223,1,48,55,3358315644
41,10,20,Ticks_Linear_8,224,5,42,127,3358326316
41,10,20,Ticks_Linear_8,225,5,42,127,3358945620
41,10,20,Ticks_Linear_8,226,1,48,53,3358970376
41,10,20,Ticks_Linear_8,227,1,48,44,3358995524
41,10,20,Ticks_Linear_8,228,5,42,127,3359566112
41,10,20,Ticks_Linear_8,229,1,48,57,3359572820
41,10,20,Ticks_Linear_8,230,5,42,127,3360185708
41,10,20,Ticks_Linear_8,231,1,48,61,3360186676
41,10,20,Ticks_Linear_8,232,5,42,127,3360806128
41,10,20,Ticks_Linear_8,233,1,48,55,3360824676
41,10,20,Ticks_Linear_8,234,1,48,57,3361392516
41,10,20,Ticks_Linear_8,235,5,42,127,3361425740
41,10,20,Ticks_Linear_8,236,1,48,61,3362004188
41,10,20,Ticks_Linear_8,237,5,42,127,3362036048
41,10,20,Ticks_Linear_8,238,5,42,127,3362646464
41,10,20,Ticks_Linear_8,239,1,48,59,3362658648
41,10,20,Ticks_Linear_8,240,5,42,127,3363255796
41,10,20,Ticks_Linear_8,241,1,48,60,3363284532
41,10,20,Ticks_Linear_8,242,5,42,127,3363866180
41,10,20,Ticks_Linear_8,243,1,48,55,3363867520
41,10,20,Ticks_Linear_8,244,5,42,127,3364476216
41,10,20,Ticks_Linear_8,245,1,48,62,3364477184
41,10,20,Ticks_Linear_8,246,5,42,127,3365076340
41,10,20,Ticks_Linear_8,247,1,48,62,3365104328
41,10,20,Ticks_Linear_8,248,1,48,50,3365128936
41,10,20,Ticks_Linear_8,249,5,42,127,3365676292
41,10,20,Ticks_Linear_8,250,1,48,54,3365712308
41,10,20,Ticks_Linear_8,251,1,48,55,3366263132
41,10,20,Ticks_Linear_8,252,5,42,127,3366275384
41,10,20,Ticks_Linear_8,253,1,48,53,3366847016
41,10,20,Ticks_Linear_8,254,5,42,127,3366875584
41,10,20,Ticks_Linear_8,255,5,42,127,3367475792
41,10,20,Ticks_Linear_8,256,1,48,56,3367490440
41,10,20,Ticks_Linear_8,257,5,42,127,3368066356
41,10,20,Ticks_Linear_8,258,1,48,42,3368116732
41,10,20,Ticks_Linear_8,259,5,42,127,3368665356
41,10,20,Ticks_Linear_8,260,1,48,54,3368677236
41,10,20,Ticks_Linear_8,261,5,42,127,3369256192
41,10,20,Ticks_Linear_8,262,1,48,47,3369292580
41,10,20,Ticks_Linear_8,263,5,42,127,3369846008
41,10,20,Ticks_Linear_8,264,1,48,50,3369856916
41,10,20,Ticks_Linear_8,265,5,42,127,3370436096
41,10,20,Ticks_Linear_8,266,1,48,48,3370437064
41,10,20,Ticks_Linear_8,267,5,42,127,3371015552
41,10,20,Ticks_Linear_8,268,1,48,38,3371053648
41,10,20,Ticks_Linear_8,269,5,42,127,3371596156
41,10,20,Ticks_Linear_8,270,1,48,52,3371633268
41,10,20,Ticks_Linear_8,271,5,42,127,3372175832
41,10,20,Ticks_Linear_8,272,1,48,53,3372220516
41,10,20,Ticks_Linear_8,273,5,42,127,3372756260
41,10,20,Ticks_Linear_8,274,1,48,41,3372767168
41,10,20,Ticks_Linear_8,275,1,48,48,3373328856
41,10,20,Ticks_Linear_8,276,5,42,127,3373335936
41,10,20,Ticks_Linear_8,277,1,48,43,3373902712
41,10,20,Ticks_Linear_8,278,5,42,127,3373906580
41,10,20,Ticks_Linear_8,279,1,48,45,3374464804
41,10,20,Ticks_Linear_8,280,5,42,127,3374475924
41,10,20,Ticks_Linear_8,281,5,42,127,3375045880
41,10,20,Ticks_Linear_8,282,1,48,48,3375077008
41,10,20,Ticks_Linear_8,283,1,48,56,3375614756
41,10,20,Ticks_Linear_8,284,5,42,127,3375616712
41,10,20,Ticks_Linear_8,285,5,42,127,3376185692
41,10,20,Ticks_Linear_8,286,1,48,56,3376202984
41,10,20,Ticks_Linear_8,287,5,42,127,3376745848
41,10,20,Ticks_Linear_8,288,1,48,59,3376750616
41,10,20,Ticks_Linear_8,289,5,42,127,3377305984
41,10,20,Ticks_Linear_8,290,1,48,61,3377314056
41,10,20,Ticks_Linear_8,291,1,48,54,3377854992
41,10,20,Ticks_Linear_8,292,5,42,127,3377866036
41,10,20,Ticks_Linear_8,293,5,42,127,3378426472
41,10,20,Ticks_Linear_8,294,1,48,55,3378427440
41,10,20,Ticks_Linear_8,295,5,42,127,3378986460
41,10,20,Ticks_Linear_8,296,1,48,59,3378990476
41,10,20,Ticks_Linear_8,297,5,42,127,3379536208
41,10,20,Ticks_Linear_8,298,1,48,55,3379548692
41,10,20,Ticks_Linear_8,299,5,42,127,3380086156
41,10,20,Ticks_Linear_8,300,1,48,56,3380099836
41,10,20,Ticks_Linear_8,301,1,48,49,3380627900
41,10,20,Ticks_Linear_8,302,5,42,127,3380636100
41,10,20,Ticks_Linear_8,303,5,42,127,3381185832
41,10,20,Ticks_Linear_8,304,1,48,53,3381211192
41,10,20,Ticks_Linear_8,305,5,42,127,3381735780
41,10,20,Ticks_Linear_8,306,1,48,50,3381748560
41,10,20,Ticks_Linear_8,307,5,42,127,3382275544
41,10,20,Ticks_Linear_8,308,1,48,52,3382318584
41,10,20,Ticks_Linear_8,309,5,42,127,3382816060
41,10,20,Ticks_Linear_8,310,1,48,48,3382831608
41,10,20,Ticks_Linear_8,311,5,42,127,3383355748
41,10,20,Ticks_Linear_8,312,1,48,48,3383365236
41,10,20,Ticks_Linear_8,313,5,42,127,3383896436
41,10,20,Ticks_Linear_8,314,1,48,47,3383919548
41,10,20,Ticks_Linear_8,315,5,42,127,3384446532
41,10,20,Ticks_Linear_8,316,1,48,42,3384463432
41,10,20,Ticks_Linear_8,317,5,42,127,3384975664
41,10,20,Ticks_Linear_8,318,1,48,49,3385023484
41,10,20,Ticks_Linear_8,319,5,42,127,3385506220
41,10,20,Ticks_Linear_8,320,1,48,47,3385536372
41,10,20,Ticks_Linear_8,321,5,42,127,3386035648
41,10,20,Ticks_Linear_8,322,1,48,59,3386050448
41,10,20,Ticks_Linear_8,323,1,48,65,3386563676
41,10,20,Ticks_Linear_8,324,5,42,127,3386566044
41,10,20,Ticks_Linear_8,325,1,48,66,3387088248
41,10,20,Ticks_Linear_8,326,5,42,127,3387096452
41,10,20,Ticks_Linear_8,327,1,48,62,3387608840
41,10,20,Ticks_Linear_8,328,5,42,127,3387625880
41,10,20,Ticks_Linear_8,329,5,42,127,3388146032
41,10,20,Ticks_Linear_8,330,1,48,59,3388161504
41,10,20,Ticks_Linear_8,331,5,42,127,3388666176
41,10,20,Ticks_Linear_8,332,1,48,56,3388676564
41,10,20,Ticks_Linear_8,333,5,42,127,3389186544
41,10,20,Ticks_Linear_8,334,1,48,55,3389199700
41,10,20,Ticks_Linear_8,335,5,42,127,3389715824
41,10,20,Ticks_Linear_8,336,1,48,64,3389719768
41,10,20,Ticks_Linear_8,337,5,42,127,3390225784
41,10,20,Ticks_Linear_8,338,1,48,56,3390259832
41,10,20,Ticks_Linear_8,339,5,42,127,3390735668
41,10,20,Ticks_Linear_8,340,1,48,54,3390741928
41,10,20,Ticks_Linear_8,341,5,42,127,3391245704
41,10,20,Ticks_Linear_8,342,1,48,46,3391247340
41,10,20,Ticks_Linear_8,343,1,48,48,3391753540
41,10,20,Ticks_Linear_8,344,5,42,127,3391755508
41,10,20,Ticks_Linear_8,345,1,48,51,3392223420
41,10,20,Ticks_Linear_8,346,5,42,127,3392265688
41,10,20,Ticks_Linear_8,347,1,48,54,3392756584
41,10,20,Ticks_Linear_8,348,5,42,127,3392766212
41,10,20,Ticks_Linear_8,349,1,48,48,3393244608
41,10,20,Ticks_Linear_8,350,5,42,127,3393266284
41,10,20,Ticks_Linear_8,351,1,48,48,3393752680
41,10,20,Ticks_Linear_8,352,5,42,127,3393765612
41,10,20,Ticks_Linear_8,353,1,48,52,3394259056
41,10,20,Ticks_Linear_8,354,5,42,127,3394265536
41,10,20,Ticks_Linear_8,355,5,42,127,3394766292
41,10,20,Ticks_Linear_8,356,1,48,55,3394770984
41,10,20,Ticks_Linear_8,357,1,48,52,3395245652
41,10,20,Ticks_Linear_8,358,5,42,127,3395255576
41,10,20,Ticks_Linear_8,359,5,42,127,3395746368
41,10,20,Ticks_Linear_8,360,1,48,54,3395771728
41,10,20,Ticks_Linear_8,361,1,48,47,3396233996
41,10,20,Ticks_Linear_8,362,5,42,127,3396235728
41,10,20,Ticks_Linear_8,363,5,42,127,3396726224
41,10,20,Ticks_Linear_8,364,1,48,51,3396762216
41,10,20,Ticks_Linear_8,365,5,42,127,3397215740
41,10,20,Ticks_Linear_8,0,9999,9999,9999,3286623320
41,10,20,Ticks_Linear_8,1,9999,9999,9999,3287443584
41,10,20,Ticks_Linear_8,2,9999,9999,9999,3288263772
41,10,20,Ticks_Linear_8,3,9999,9999,9999,3289084012
41,10,20,Ticks_Linear_8,4,9999,9999,9999,3289903188
41,10,20,Ticks_Linear_8,5,9999,9999,9999,3290713144
41,10,20,Ticks_Linear_8,6,9999,9999,9999,3291523128
41,10,20,Ticks_Linear_8,7,9999,9999,9999,3292333164
41,10,20,Ticks_Linear_8,8,9999,9999,9999,3293143148
41,10,20,Ticks_Linear_8,9,9999,9999,9999,3293953116
41,10,20,Ticks_Linear_8,10,9999,9999,9999,3294753864
41,10,20,Ticks_Linear_8,11,9999,9999,9999,3295553656
41,10,20,Ticks_Linear_8,12,9999,9999,9999,3296353408
41,10,20,Ticks_Linear_8,13,9999,9999,9999,3297153116
41,10,20,Ticks_Linear_8,14,9999,9999,9999,3297953884
41,10,20,Ticks_Linear_8,15,9999,9999,9999,3298743420
41,10,20,Ticks_Linear_8,16,9999,9999,9999,3299533916
41,10,20,Ticks_Linear_8,17,9999,9999,9999,3300323428
41,10,20,Ticks_Linear_8,18,9999,9999,9999,3301113924
41,10,20,Ticks_Linear_8,19,9999,9999,9999,3301903436
41,10,20,Ticks_Linear_8,20,9999,9999,9999,3302683740
41,10,20,Ticks_Linear_8,21,9999,9999,9999,3303463992
41,10,20,Ticks_Linear_8,22,9999,9999,9999,3304243272
41,10,20,Ticks_Linear_8,23,9999,9999,9999,3305023576
41,10,20,Ticks_Linear_8,24,9999,9999,9999,3305803880
41,10,20,Ticks_Linear_8,25,9999,9999,9999,3306573904
41,10,20,Ticks_Linear_8,26,9999,9999,9999,3307343952
41,10,20,Ticks_Linear_8,27,9999,9999,9999,3308113996
41,10,20,Ticks_Linear_8,28,9999,9999,9999,3308884040
41,10,20,Ticks_Linear_8,29,9999,9999,9999,3309654084
41,10,20,Ticks_Linear_8,30,9999,9999,9999,3310423156
41,10,20,Ticks_Linear_8,31,9999,9999,9999,3311184000
41,10,20,Ticks_Linear_8,32,9999,9999,9999,3311943776
41,10,20,Ticks_Linear_8,33,9999,9999,9999,3312703560
41,10,20,Ticks_Linear_8,34,9999,9999,9999,3313463368
41,10,20,Ticks_Linear_8,35,9999,9999,9999,3314213996
41,10,20,Ticks_Linear_8,36,9999,9999,9999,3314963516
41,10,20,Ticks_Linear_8,37,9999,9999,9999,3315713140
41,10,20,Ticks_Linear_8,38,9999,9999,9999,3316463668
41,10,20,Ticks_Linear_8,39,9999,9999,9999,3317213296
41,10,20,Ticks_Linear_8,40,9999,9999,9999,3317953632
41,10,20,Ticks_Linear_8,41,9999,9999,9999,3318693964
41,10,20,Ticks_Linear_8,42,9999,9999,9999,3319433328
41,10,20,Ticks_Linear_8,43,9999,9999,9999,3320173672
41,10,20,Ticks_Linear_8,44,9999,9999,9999,3320914000
41,10,20,Ticks_Linear_8,45,9999,9999,9999,3321643084
41,10,20,Ticks_Linear_8,46,9999,9999,9999,3322373236
41,10,20,Ticks_Linear_8,47,9999,9999,9999,3323103320
41,10,20,Ticks_Linear_8,48,9999,9999,9999,3323833468
41,10,20,Ticks_Linear_8,49,9999,9999,9999,3324563548
41,10,20,Ticks_Linear_8,50,9999,9999,9999,3325283440
41,10,20,Ticks_Linear_8,51,9999,9999,9999,3326003316
41,10,20,Ticks_Linear_8,52,9999,9999,9999,3326723132
41,10,20,Ticks_Linear_8,53,9999,9999,9999,3327444068
41,10,20,Ticks_Linear_8,54,9999,9999,9999,3328163968
41,10,20,Ticks_Linear_8,55,9999,9999,9999,3328873596
41,10,20,Ticks_Linear_8,56,9999,9999,9999,3329583208
41,10,20,Ticks_Linear_8,57,9999,9999,9999,3330293816
41,10,20,Ticks_Linear_8,58,9999,9999,9999,3331003456
41,10,20,Ticks_Linear_8,59,9999,9999,9999,3331713084
41,10,20,Ticks_Linear_8,60,9999,9999,9999,3332413560
41,10,20,Ticks_Linear_8,61,9999,9999,9999,3333113980
41,10,20,Ticks_Linear_8,62,9999,9999,9999,3333813356
41,10,20,Ticks_Linear_8,63,9999,9999,9999,3334513780
41,10,20,Ticks_Linear_8,64,9999,9999,9999,3335213136
41,10,20,Ticks_Linear_8,65,9999,9999,9999,3335903304
41,10,20,Ticks_Linear_8,66,9999,9999,9999,3336593532
41,10,20,Ticks_Linear_8,67,9999,9999,9999,3337283672
41,10,20,Ticks_Linear_8,68,9999,9999,9999,3337973840
41,10,20,Ticks_Linear_8,69,9999,9999,9999,3338664004
41,10,20,Ticks_Linear_8,70,9999,9999,9999,3339343972
41,10,20,Ticks_Linear_8,71,9999,9999,9999,3340023932
41,10,20,Ticks_Linear_8,72,9999,9999,9999,3340703808
41,10,20,Ticks_Linear_8,73,9999,9999,9999,3341383760
41,10,20,Ticks_Linear_8,74,9999,9999,9999,3342063720
41,10,20,Ticks_Linear_8,75,9999,9999,9999,3342733368
41,10,20,Ticks_Linear_8,76,9999,9999,9999,3343403128
41,10,20,Ticks_Linear_8,77,9999,9999,9999,3344073796
41,10,20,Ticks_Linear_8,78,9999,9999,9999,3344743516
41,10,20,Ticks_Linear_8,79,9999,9999,9999,3345413220
41,10,20,Ticks_Linear_8,80,9999,9999,9999,3346073708
41,10,20,Ticks_Linear_8,81,9999,9999,9999,3346733116
41,10,20,Ticks_Linear_8,82,9999,9999,9999,3347393620
41,10,20,Ticks_Linear_8,83,9999,9999,9999,3348054132
41,10,20,Ticks_Linear_8,84,9999,9999,9999,3348723820
41,10,20,Ticks_Linear_8,85,9999,9999,9999,3349374048
41,10,20,Ticks_Linear_8,86,9999,9999,9999,3350023224
41,10,20,Ticks_Linear_8,87,9999,9999,9999,3350673480
41,10,20,Ticks_Linear_8,88,9999,9999,9999,3351323772
41,10,20,Ticks_Linear_8,89,9999,9999,9999,3351973944
41,10,20,Ticks_Linear_8,90,9999,9999,9999,3352613984
41,10,20,Ticks_Linear_8,91,9999,9999,9999,3353253972
41,10,20,Ticks_Linear_8,92,9999,9999,9999,3353893988
41,10,20,Ticks_Linear_8,93,9999,9999,9999,3354533976
41,10,20,Ticks_Linear_8,94,9999,9999,9999,3355173940
41,10,20,Ticks_Linear_8,95,9999,9999,9999,3355803748
41,10,20,Ticks_Linear_8,96,9999,9999,9999,3356433508
41,10,20,Ticks_Linear_8,97,9999,9999,9999,3357063244
41,10,20,Ticks_Linear_8,98,9999,9999,9999,3357694068
41,10,20,Ticks_Linear_8,99,9999,9999,9999,3358323792
41,10,20,Ticks_Linear_8,100,9999,9999,9999,3358943320
41,10,20,Ticks_Linear_8,101,9999,9999,9999,3359563888
41,10,20,Ticks_Linear_8,102,9999,9999,9999,3360183408
41,10,20,Ticks_Linear_8,103,9999,9999,9999,3360803900
41,10,20,Ticks_Linear_8,104,9999,9999,9999,3361423440
41,10,20,Ticks_Linear_8,105,9999,9999,9999,3362033752
41,10,20,Ticks_Linear_8,106,9999,9999,9999,3362644088
41,10,20,Ticks_Linear_8,107,9999,9999,9999,3363253348
41,10,20,Ticks_Linear_8,108,9999,9999,9999,3363863660
41,10,20,Ticks_Linear_8,109,9999,9999,9999,3364473916
41,10,20,Ticks_Linear_8,110,9999,9999,9999,3365074040
41,10,20,Ticks_Linear_8,111,9999,9999,9999,3365674064
41,10,20,Ticks_Linear_8,112,9999,9999,9999,3366273088
41,10,20,Ticks_Linear_8,113,9999,9999,9999,3366873212
41,10,20,Ticks_Linear_8,114,9999,9999,9999,3367473268
41,10,20,Ticks_Linear_8,115,9999,9999,9999,3368064052
41,10,20,Ticks_Linear_8,116,9999,9999,9999,3368663132
41,10,20,Ticks_Linear_8,117,9999,9999,9999,3369253968
41,10,20,Ticks_Linear_8,118,9999,9999,9999,3369843784
41,10,20,Ticks_Linear_8,119,9999,9999,9999,3370433648
41,10,20,Ticks_Linear_8,120,9999,9999,9999,3371013180
41,10,20,Ticks_Linear_8,121,9999,9999,9999,3371593780
41,10,20,Ticks_Linear_8,122,9999,9999,9999,3372173384
41,10,20,Ticks_Linear_8,123,9999,9999,9999,3372754036
41,10,20,Ticks_Linear_8,124,9999,9999,9999,3373333564
41,10,20,Ticks_Linear_8,125,9999,9999,9999,3373903984
41,10,20,Ticks_Linear_8,126,9999,9999,9999,3374473328
41,10,20,Ticks_Linear_8,127,9999,9999,9999,3375043652
41,10,20,Ticks_Linear_8,128,9999,9999,9999,3375614048
41,10,20,Ticks_Linear_8,129,9999,9999,9999,3376183392
41,10,20,Ticks_Linear_8,130,9999,9999,9999,3376743548
41,10,20,Ticks_Linear_8,131,9999,9999,9999,3377303612
41,10,20,Ticks_Linear_8,132,9999,9999,9999,3377863740
41,10,20,Ticks_Linear_8,133,9999,9999,9999,3378423876
41,10,20,Ticks_Linear_8,134,9999,9999,9999,3378984012
41,10,20,Ticks_Linear_8,135,9999,9999,9999,3379533912
41,10,20,Ticks_Linear_8,136,9999,9999,9999,3380083784
41,10,20,Ticks_Linear_8,137,9999,9999,9999,3380633728
41,10,20,Ticks_Linear_8,138,9999,9999,9999,3381183608
41,10,20,Ticks_Linear_8,139,9999,9999,9999,3381733480
41,10,20,Ticks_Linear_8,140,9999,9999,9999,3382273096
41,10,20,Ticks_Linear_8,141,9999,9999,9999,3382813760
41,10,20,Ticks_Linear_8,142,9999,9999,9999,3383353448
41,10,20,Ticks_Linear_8,143,9999,9999,9999,3383894136
41,10,20,Ticks_Linear_8,144,9999,9999,9999,3384444012
41,10,20,Ticks_Linear_8,145,9999,9999,9999,3384973368
41,10,20,Ticks_Linear_8,146,9999,9999,9999,3385503844
41,10,20,Ticks_Linear_8,147,9999,9999,9999,3386033276
41,10,20,Ticks_Linear_8,148,9999,9999,9999,3386563744
41,10,20,Ticks_Linear_8,149,9999,9999,9999,3387094076
41,10,20,Ticks_Linear_8,150,9999,9999,9999,3387623508
41,10,20,Ticks_Linear_8,151,9999,9999,9999,3388143732
41,10,20,Ticks_Linear_8,152,9999,9999,9999,3388663876
41,10,20,Ticks_Linear_8,153,9999,9999,9999,3389184096
41,10,20,Ticks_Linear_8,154,9999,9999,9999,3389713524
41,10,20,Ticks_Linear_8,155,9999,9999,9999,3390223484
41,10,20,Ticks_Linear_8,156,9999,9999,9999,3390733368
41,10,20,Ticks_Linear_8,157,9999,9999,9999,3391243328
41,10,20,Ticks_Linear_8,158,9999,9999,9999,3391753320
41,10,20,Ticks_Linear_8,159,9999,9999,9999,3392263240
41,10,20,Ticks_Linear_8,160,9999,9999,9999,3392763988
41,10,20,Ticks_Linear_8,161,9999,9999,9999,3393263688
41,10,20,Ticks_Linear_8,162,9999,9999,9999,3393763388
41,10,20,Ticks_Linear_8,163,9999,9999,9999,3394263164
41,10,20,Ticks_Linear_8,164,9999,9999,9999,3394763840
41,10,20,Ticks_Linear_8,165,9999,9999,9999,3395253352
41,10,20,Ticks_Linear_8,166,9999,9999,9999,3395743844
41,10,20,Ticks_Linear_8,167,9999,9999,9999,3396233292
41,10,20,Ticks_Linear_8,168,9999,9999,9999,3396723776
41,10,20,Ticks_Linear_8,169,9999,9999,9999,3397213292
41,11,25,Jits_Pract_5,0,5,56,103,3442752820
41,11,25,Jits_Pract_5,1,5,63,98,3442755940
41,11,25,Jits_Pract_5,2,5,80,127,3442759140
41,11,25,Jits_Pract_5,0,5,56,103,3443252688
41,11,25,Jits_Pract_5,1,5,63,98,3443255792
41,11,25,Jits_Pract_5,2,5,80,127,3443258688
41,11,25,Jits_Pract_5,0,5,56,103,3443753624
41,11,25,Jits_Pract_5,1,5,80,127,3443762552
41,11,25,Jits_Pract_5,2,5,63,98,3443782964
41,11,25,Jits_Pract_5,0,5,63,98,3444202728
41,11,25,Jits_Pract_5,1,5,80,127,3444232552
41,11,25,Jits_Pract_5,2,5,56,103,3444242896
41,11,25,Jits_Pract_5,0,5,80,127,3444762988
41,11,25,Jits_Pract_5,1,5,56,103,3444773556
41,11,25,Jits_Pract_5,2,5,63,98,3444802860
41,11,25,Jits_Pract_5,0,5,63,98,3445252596
41,11,25,Jits_Pract_5,1,5,56,103,3445283320
41,11,25,Jits_Pract_5,2,5,80,127,3445293444
41,11,25,Jits_Pract_5,0,5,56,103,3445702880
41,11,25,Jits_Pract_5,1,5,63,98,3445753380
41,11,25,Jits_Pract_5,2,5,80,127,3445772568
41,11,25,Jits_Pract_5,0,5,80,127,3446202768
41,11,25,Jits_Pract_5,1,5,63,98,3446252896
41,11,25,Jits_Pract_5,2,5,56,103,3446292912
41,11,25,Jits_Pract_5,0,5,56,103,3446702512
41,11,25,Jits_Pract_5,1,5,63,98,3446733312
41,11,25,Jits_Pract_5,2,5,80,127,3446802768
41,11,25,Jits_Pract_5,0,5,56,103,3447203304
41,11,25,Jits_Pract_5,1,5,80,127,3447262648
41,11,25,Jits_Pract_5,2,5,63,98,3447293520
41,11,25,Jits_Pract_5,0,5,56,103,3447713236
41,11,25,Jits_Pract_5,1,5,63,98,3447723360
41,11,25,Jits_Pract_5,2,5,80,127,3447763296
41,11,25,Jits_Pract_5,0,5,63,98,3448202488
41,11,25,Jits_Pract_5,1,5,80,127,3448282364
41,11,25,Jits_Pract_5,2,5,56,103,3448292856
41,11,25,Jits_Pract_5,0,5,63,98,3448752568
41,11,25,Jits_Pract_5,1,5,56,103,3448792360
41,11,25,Jits_Pract_5,2,5,80,127,3448795648
41,11,25,Jits_Pract_5,0,5,56,103,3449213408
41,11,25,Jits_Pract_5,1,5,63,98,3449222556
41,11,25,Jits_Pract_5,2,5,80,127,3449262420
41,11,25,Jits_Pract_5,0,5,56,103,3449702652
41,11,25,Jits_Pract_5,1,5,63,98,3449705652
41,11,25,Jits_Pract_5,2,5,80,127,3449723268
41,11,25,Jits_Pract_5,0,9999,9999,9999,3443000404
41,11,25,Jits_Pract_5,1,9999,9999,9999,3443500128
41,11,25,Jits_Pract_5,2,9999,9999,9999,3444000844
41,11,25,Jits_Pract_5,3,9999,9999,9999,3444500584
41,11,25,Jits_Pract_5,4,9999,9999,9999,3445000292
41,11,25,Jits_Pract_5,5,9999,9999,9999,3445501012
41,11,25,Jits_Pract_5,6,9999,9999,9999,3446000740
41,11,25,Jits_Pract_5,7,9999,9999,9999,3446500408
41,11,25,Jits_Pract_5,8,9999,9999,9999,3447000152
41,11,25,Jits_Pract_5,9,9999,9999,9999,3447500868
41,11,25,Jits_Pract_5,10,9999,9999,9999,3448000608
41,11,25,Jits_Pract_5,11,9999,9999,9999,3448500280
41,11,25,Jits_Pract_5,12,9999,9999,9999,3449001052
41,11,25,Jits_Pract_5,13,9999,9999,9999,3449500780
41,11,25,Jits_Pract_5,14,9999,9999,9999,3450000432
41,12,25,Jits_Pract_5,0,5,56,103,3521412640
41,12,25,Jits_Pract_5,1,5,63,98,3521415668
41,12,25,Jits_Pract_5,2,5,80,127,3521418936
41,12,25,Jits_Pract_5,0,5,56,103,3521913264
41,12,25,Jits_Pract_5,1,5,63,98,3521916288
41,12,25,Jits_Pract_5,2,5,80,127,3521919484
41,12,25,Jits_Pract_5,3,1,48,52,3521963968
41,12,25,Jits_Pract_5,0,1,48,63,3522412748
41,12,25,Jits_Pract_5,1,5,56,103,3522414232
41,12,25,Jits_Pract_5,2,5,80,127,3522423160
41,12,25,Jits_Pract_5,3,5,63,98,3522442868
41,12,25,Jits_Pract_5,4,1,48,50,3522466572
41,12,25,Jits_Pract_5,0,5,63,98,3522862700
41,12,25,Jits_Pract_5,1,5,80,127,3522893224
41,12,25,Jits_Pract_5,2,5,56,103,3522903792
41,12,25,Jits_Pract_5,3,1,48,77,3522948032
41,12,25,Jits_Pract_5,4,1,48,59,3522977456
41,12,25,Jits_Pract_5,0,5,80,127,3523422828
41,12,25,Jits_Pract_5,1,1,48,79,3523424472
41,12,25,Jits_Pract_5,2,5,56,103,3523433020
41,12,25,Jits_Pract_5,3,1,48,62,3523452388
41,12,25,Jits_Pract_5,4,5,63,98,3523462820
41,12,25,Jits_Pract_5,0,5,63,98,3523913056
41,12,25,Jits_Pract_5,1,5,56,103,3523942656
41,12,25,Jits_Pract_5,2,5,80,127,3523953148
41,12,25,Jits_Pract_5,3,1,48,78,3523963316
41,12,25,Jits_Pract_5,4,1,48,60,3523993556
41,12,25,Jits_Pract_5,0,5,56,103,3524362856
41,12,25,Jits_Pract_5,1,5,63,98,3524412836
41,12,25,Jits_Pract_5,2,5,80,127,3524433244
41,12,25,Jits_Pract_5,3,1,48,74,3524466472
41,12,25,Jits_Pract_5,4,1,48,54,3524501220
41,12,25,Jits_Pract_5,0,5,80,127,3524863628
41,12,25,Jits_Pract_5,1,5,63,98,3524912636
41,12,25,Jits_Pract_5,2,5,56,103,3524952524
41,12,25,Jits_Pract_5,3,1,48,78,3524980652
41,12,25,Jits_Pract_5,4,1,48,58,3525009400
41,12,25,Jits_Pract_5,0,5,56,103,3525362996
41,12,25,Jits_Pract_5,1,5,63,98,3525392896
41,12,25,Jits_Pract_5,2,5,80,127,3525463348
41,12,25,Jits_Pract_5,3,1,48,79,3525472240
41,12,25,Jits_Pract_5,4,1,48,60,3525501064
41,12,25,Jits_Pract_5,0,5,56,103,3525862660
41,12,25,Jits_Pract_5,1,5,80,127,3525923048
41,12,25,Jits_Pract_5,2,5,63,98,3525952896
41,12,25,Jits_Pract_5,3,1,48,80,3525954984
41,12,25,Jits_Pract_5,4,1,48,60,3525981096
41,12,25,Jits_Pract_5,0,5,56,103,3526372584
41,12,25,Jits_Pract_5,1,5,63,98,3526382928
41,12,25,Jits_Pract_5,2,5,80,127,3526422864
41,12,25,Jits_Pract_5,3,1,48,70,3526447928
41,12,25,Jits_Pract_5,4,1,48,52,3526471540
41,12,25,Jits_Pract_5,0,5,63,98,3526863400
41,12,25,Jits_Pract_5,1,1,48,78,3526918436
41,12,25,Jits_Pract_5,2,1,48,55,3526941588
41,12,25,Jits_Pract_5,3,5,80,127,3526943020
41,12,25,Jits_Pract_5,4,5,56,103,3526953440
41,12,25,Jits_Pract_5,0,1,48,73,3527390052
41,12,25,Jits_Pract_5,1,5,63,98,3527413016
41,12,25,Jits_Pract_5,2,5,56,103,3527453180
41,12,25,Jits_Pract_5,3,5,80,127,3527456096
41,12,25,Jits_Pract_5,0,5,56,103,3527873000
41,12,25,Jits_Pract_5,1,5,63,98,3527883048
41,12,25,Jits_Pract_5,2,1,48,86,3527906472
41,12,25,Jits_Pract_5,3,5,80,127,3527922904
41,12,25,Jits_Pract_5,4,1,48,61,3527927800
41,12,25,Jits_Pract_5,0,5,56,103,3528363592
41,12,25,Jits_Pract_5,1,5,63,98,3528366584
41,12,25,Jits_Pract_5,2,1,48,78,3528372712
41,12,25,Jits_Pract_5,3,5,80,127,3528382700
41,12,25,Jits_Pract_5,4,1,48,62,3528394564
41,12,25,Jits_Pract_5,0,9999,9999,9999,3521661048
41,12,25,Jits_Pract_5,1,9999,9999,9999,3522160752
41,12,25,Jits_Pract_5,2,9999,9999,9999,3522660440
41,12,25,Jits_Pract_5,3,9999,9999,9999,3523160164
41,12,25,Jits_Pract_5,4,9999,9999,9999,3523660864
41,12,25,Jits_Pract_5,5,9999,9999,9999,3524160600
41,12,25,Jits_Pract_5,6,9999,9999,9999,3524660296
41,12,25,Jits_Pract_5,7,9999,9999,9999,3525161072
41,12,25,Jits_Pract_5,8,9999,9999,9999,3525660736
41,12,25,Jits_Pract_5,9,9999,9999,9999,3526160476
41,12,25,Jits_Pract_5,10,9999,9999,9999,3526660208
41,12,25,Jits_Pract_5,11,9999,9999,9999,3527160920
41,12,25,Jits_Pract_5,12,9999,9999,9999,3527660660
41,12,25,Jits_Pract_5,13,9999,9999,9999,3528160328
41,12,25,Jits_Pract_5,14,9999,9999,9999,3528661096
41,13,24,Jits_Pract_8,0,5,56,103,3536626080
41,13,24,Jits_Pract_8,1,5,63,98,3536629404
41,13,24,Jits_Pract_8,2,5,80,127,3536632448
41,13,24,Jits_Pract_8,0,1,48,15,3537062076
41,13,24,Jits_Pract_8,1,5,56,103,3537436344
41,13,24,Jits_Pract_8,2,5,63,98,3537439440
41,13,24,Jits_Pract_8,3,5,80,127,3537442484
41,13,24,Jits_Pract_8,4,1,48,16,3537683248
41,13,24,Jits_Pract_8,0,5,80,127,3538176432
41,13,24,Jits_Pract_8,1,5,63,98,3538265468
41,13,24,Jits_Pract_8,2,5,56,103,3538275740
41,13,24,Jits_Pract_8,3,1,48,32,3538281480
41,13,24,Jits_Pract_8,0,5,56,103,3538995460
41,13,24,Jits_Pract_8,1,5,63,98,3539005756
41,13,24,Jits_Pract_8,2,1,48,47,3539091424
41,13,24,Jits_Pract_8,3,5,80,127,3539096176
41,13,24,Jits_Pract_8,4,1,48,38,3539123564
41,13,24,Jits_Pract_8,0,5,63,98,3539765588
41,13,24,Jits_Pract_8,1,5,80,127,3539796336
41,13,24,Jits_Pract_8,2,1,48,54,3539813852
41,13,24,Jits_Pract_8,3,5,56,103,3539826004
41,13,24,Jits_Pract_8,4,1,48,43,3539850228
41,13,24,Jits_Pract_8,0,1,48,67,3540505852
41,13,24,Jits_Pract_8,1,1,48,51,3540540512
41,13,24,Jits_Pract_8,2,5,56,103,3540566388
41,13,24,Jits_Pract_8,3,5,80,127,3540665648
41,13,24,Jits_Pract_8,4,5,63,98,3540716072
41,13,24,Jits_Pract_8,0,5,56,103,3541366056
41,13,24,Jits_Pract_8,1,5,80,127,3541416260
41,13,24,Jits_Pract_8,2,1,48,59,3541445452
41,13,24,Jits_Pract_8,3,5,63,98,3541456112
41,13,24,Jits_Pract_8,4,1,48,48,3541481088
41,13,24,Jits_Pract_8,0,5,80,127,3542195600
41,13,24,Jits_Pract_8,1,5,63,98,3542226248
41,13,24,Jits_Pract_8,2,1,48,58,3542250716
41,13,24,Jits_Pract_8,3,1,48,49,3542278564
41,13,24,Jits_Pract_8,4,5,56,103,3542296048
41,13,24,Jits_Pract_8,0,5,63,98,3543026120
41,13,24,Jits_Pract_8,1,5,56,103,3543055944
41,13,24,Jits_Pract_8,2,1,48,62,3543079072
41,13,24,Jits_Pract_8,3,1,48,50,3543111652
41,13,24,Jits_Pract_8,4,5,80,127,3543116180
41,13,24,Jits_Pract_8,0,5,56,103,3543766352
41,13,24,Jits_Pract_8,1,5,80,127,3543769340
41,13,24,Jits_Pract_8,2,1,48,63,3543826184
41,13,24,Jits_Pract_8,3,1,48,46,3543855532
41,13,24,Jits_Pract_8,4,5,63,98,3543886068
41,13,24,Jits_Pract_8,0,1,48,59,3544602740
41,13,24,Jits_Pract_8,1,1,48,46,3544628944
41,13,24,Jits_Pract_8,2,5,56,103,3544645932
41,13,24,Jits_Pract_8,3,5,80,127,3544686092
41,13,24,Jits_Pract_8,4,5,63,98,3544696140
41,13,24,Jits_Pract_8,0,5,56,103,3545406040
41,13,24,Jits_Pract_8,1,1,48,64,3545412300
41,13,24,Jits_Pract_8,2,5,80,127,3545426420
41,13,24,Jits_Pract_8,3,1,48,48,3545441204
41,13,24,Jits_Pract_8,4,5,63,98,3545506192
41,13,24,Jits_Pract_8,0,5,80,127,3546196256
41,13,24,Jits_Pract_8,1,1,48,58,3546246952
41,13,24,Jits_Pract_8,2,1,48,46,3546281088
41,13,24,Jits_Pract_8,3,5,56,103,3546295952
41,13,24,Jits_Pract_8,4,5,63,98,3546306072
41,13,24,Jits_Pract_8,0,5,63,98,3546966392
41,13,24,Jits_Pract_8,1,5,80,127,3547025960
41,13,24,Jits_Pract_8,2,5,56,103,3547036008
41,13,24,Jits_Pract_8,3,1,48,55,3547065200
41,13,24,Jits_Pract_8,4,1,48,44,3547095592
41,13,24,Jits_Pract_8,0,5,56,103,3547766176
41,13,24,Jits_Pract_8,1,1,48,57,3547774844
41,13,24,Jits_Pract_8,2,1,48,45,3547803204
41,13,24,Jits_Pract_8,3,5,63,98,3547836132
41,13,24,Jits_Pract_8,4,5,80,127,3547839496
41,13,24,Jits_Pract_8,0,9999,9999,9999,3537024112
41,13,24,Jits_Pract_8,1,9999,9999,9999,3537834048
41,13,24,Jits_Pract_8,2,9999,9999,9999,3538633784
41,13,24,Jits_Pract_8,3,9999,9999,9999,3539433536
41,13,24,Jits_Pract_8,4,9999,9999,9999,3540233324
41,13,24,Jits_Pract_8,5,9999,9999,9999,3541034064
41,13,24,Jits_Pract_8,6,9999,9999,9999,3541833796
41,13,24,Jits_Pract_8,7,9999,9999,9999,3542633524
41,13,24,Jits_Pract_8,8,9999,9999,9999,3543433332
41,13,24,Jits_Pract_8,9,9999,9999,9999,3544234080
41,13,24,Jits_Pract_8,10,9999,9999,9999,3545033816
41,13,24,Jits_Pract_8,11,9999,9999,9999,3545833532
41,13,24,Jits_Pract_8,12,9999,9999,9999,3546633336
41,13,24,Jits_Pract_8,13,9999,9999,9999,3547434108
41,13,24,Jits_Pract_8,14,9999,9999,9999,3548233836
41,14,16,Jits_ISO_5,0,5,56,103,3593268580
41,14,16,Jits_ISO_5,1,5,63,98,3593271604
41,14,16,Jits_ISO_5,2,5,80,127,3593274824
41,14,16,Jits_ISO_5,0,5,56,103,3593769272
41,14,16,Jits_ISO_5,1,5,63,98,3593772368
41,14,16,Jits_ISO_5,2,5,80,127,3593775420
41,14,16,Jits_ISO_5,3,1,48,34,3593904568
41,14,16,Jits_ISO_5,0,5,56,103,3594269096
41,14,16,Jits_ISO_5,1,5,80,127,3594279220
41,14,16,Jits_ISO_5,2,1,48,59,3594296512
41,14,16,Jits_ISO_5,3,5,63,98,3594298700
41,14,16,Jits_ISO_5,4,1,48,42,3594333860
41,14,16,Jits_ISO_5,0,5,63,98,3594718644
41,14,16,Jits_ISO_5,1,5,80,127,3594749216
41,14,16,Jits_ISO_5,2,5,56,103,3594758512
41,14,16,Jits_ISO_5,3,1,48,82,3594794216
41,14,16,Jits_ISO_5,4,1,48,56,3594819540
41,14,16,Jits_ISO_5,0,5,80,127,3595278772
41,14,16,Jits_ISO_5,1,1,48,80,3595282412
41,14,16,Jits_ISO_5,2,5,56,103,3595289036
41,14,16,Jits_ISO_5,3,1,48,54,3595312740
41,14,16,Jits_ISO_5,4,5,63,98,3595318616
41,14,16,Jits_ISO_5,0,5,63,98,3595769396
41,14,16,Jits_ISO_5,1,5,56,103,3595799296
41,14,16,Jits_ISO_5,2,5,80,127,3595809496
41,14,16,Jits_ISO_5,3,1,48,77,3595846640
41,14,16,Jits_ISO_5,4,1,48,49,3595876604
41,14,16,Jits_ISO_5,0,5,56,103,3596218736
41,14,16,Jits_ISO_5,1,5,63,98,3596269012
41,14,16,Jits_ISO_5,2,5,80,127,3596289320
41,14,16,Jits_ISO_5,3,1,48,67,3596319560
41,14,16,Jits_ISO_5,4,1,48,49,3596345772
41,14,16,Jits_ISO_5,0,5,80,127,3596718500
41,14,16,Jits_ISO_5,1,5,63,98,3596768480
41,14,16,Jits_ISO_5,2,1,48,72,3596800740
41,14,16,Jits_ISO_5,3,5,56,103,3596808484
41,14,16,Jits_ISO_5,4,1,48,50,3596826408
41,14,16,Jits_ISO_5,0,5,56,103,3597219088
41,14,16,Jits_ISO_5,1,5,63,98,3597248912
41,14,16,Jits_ISO_5,2,1,48,67,3597285736
41,14,16,Jits_ISO_5,3,5,80,127,3597318660
41,14,16,Jits_ISO_5,0,5,56,103,3597718984
41,14,16,Jits_ISO_5,1,1,48,60,3597775964
41,14,16,Jits_ISO_5,2,5,80,127,3597779220
41,14,16,Jits_ISO_5,3,5,63,98,3597809044
41,14,16,Jits_ISO_5,0,5,56,103,3598228704
41,14,16,Jits_ISO_5,1,5,63,98,3598239344
41,14,16,Jits_ISO_5,2,1,48,57,3598261644
41,14,16,Jits_ISO_5,3,5,80,127,3598279200
41,14,16,Jits_ISO_5,0,5,63,98,3598719308
41,14,16,Jits_ISO_5,1,1,48,60,3598747308
41,14,16,Jits_ISO_5,2,5,80,127,3598799172
41,14,16,Jits_ISO_5,3,5,56,103,3598808320
41,14,16,Jits_ISO_5,0,1,48,60,3599256708
41,14,16,Jits_ISO_5,1,5,63,98,3599269308
41,14,16,Jits_ISO_5,2,5,56,103,3599309016
41,14,16,Jits_ISO_5,3,5,80,127,3599312240
41,14,16,Jits_ISO_5,0,5,56,103,3599728968
41,14,16,Jits_ISO_5,1,5,63,98,3599739164
41,14,16,Jits_ISO_5,2,5,80,127,3599779248
41,14,16,Jits_ISO_5,3,1,48,53,3599796908
41,14,16,Jits_ISO_5,0,5,56,103,3600218368
41,14,16,Jits_ISO_5,1,5,63,98,3600221440
41,14,16,Jits_ISO_5,2,5,80,127,3600238980
41,14,16,Jits_ISO_5,3,1,48,50,3600256416
41,14,16,Jits_ISO_5,0,5,80,127,3600728372
41,14,16,Jits_ISO_5,1,5,56,103,3600738864
41,14,16,Jits_ISO_5,2,1,48,56,3600742880
41,14,16,Jits_ISO_5,3,5,63,98,3600809212
41,14,16,Jits_ISO_5,0,5,63,98,3601218976
41,14,16,Jits_ISO_5,1,5,56,103,3601239436
41,14,16,Jits_ISO_5,2,1,48,56,3601261280
41,14,16,Jits_ISO_5,3,5,80,127,3601319144
41,14,16,Jits_ISO_5,0,5,56,103,3601729120
41,14,16,Jits_ISO_5,1,1,48,54,3601768908
41,14,16,Jits_ISO_5,2,5,80,127,3601770468
41,14,16,Jits_ISO_5,3,5,63,98,3601779024
41,14,16,Jits_ISO_5,0,5,80,127,3602219328
41,14,16,Jits_ISO_5,1,5,63,98,3602248952
41,14,16,Jits_ISO_5,2,5,56,103,3602289112
41,14,16,Jits_ISO_5,3,1,48,54,3602293428
41,14,16,Jits_ISO_5,0,5,56,103,3602738480
41,14,16,Jits_ISO_5,1,5,63,98,3602769300
41,14,16,Jits_ISO_5,2,1,48,54,3602788908
41,14,16,Jits_ISO_5,3,5,80,127,3602818372
41,14,16,Jits_ISO_5,0,5,80,127,3603239352
41,14,16,Jits_ISO_5,1,5,56,103,3603279240
41,14,16,Jits_ISO_5,2,5,63,98,3603288388
41,14,16,Jits_ISO_5,3,1,48,52,3603295096
41,14,16,Jits_ISO_5,0,5,80,127,3603718428
41,14,16,Jits_ISO_5,1,5,63,98,3603758440
41,14,16,Jits_ISO_5,2,1,48,53,3603782108
41,14,16,Jits_ISO_5,3,5,56,103,3603818992
41,14,16,Jits_ISO_5,0,5,56,103,3604219140
41,14,16,Jits_ISO_5,1,5,80,127,3604228512
41,14,16,Jits_ISO_5,2,1,48,49,3604283264
41,14,16,Jits_ISO_5,3,5,63,98,3604309296
41,14,16,Jits_ISO_5,0,5,80,127,3604718888
41,14,16,Jits_ISO_5,1,5,63,98,3604779500
41,14,16,Jits_ISO_5,2,1,48,58,3604783668
41,14,16,Jits_ISO_5,3,5,56,103,3604808972
41,14,16,Jits_ISO_5,0,5,56,103,3605218932
41,14,16,Jits_ISO_5,1,5,80,127,3605279024
41,14,16,Jits_ISO_5,2,1,48,42,3605283264
41,14,16,Jits_ISO_5,3,5,63,98,3605318980
41,14,16,Jits_ISO_5,0,1,48,58,3605761648
41,14,16,Jits_ISO_5,1,5,56,103,3605768496
41,14,16,Jits_ISO_5,2,5,63,98,3605778988
41,14,16,Jits_ISO_5,3,5,80,127,3605782276
41,14,16,Jits_ISO_5,0,5,80,127,3606219080
41,14,16,Jits_ISO_5,1,1,48,57,3606299364
41,14,16,Jits_ISO_5,2,5,63,98,3606309352
41,14,16,Jits_ISO_5,3,5,56,103,3606318428
41,14,16,Jits_ISO_5,0,5,56,103,3606718964
41,14,16,Jits_ISO_5,1,5,63,98,3606722136
41,14,16,Jits_ISO_5,2,5,80,127,3606725036
41,14,16,Jits_ISO_5,3,1,48,57,3606796024
41,14,16,Jits_ISO_5,0,5,80,127,3607239008
41,14,16,Jits_ISO_5,1,1,48,59,3607285720
41,14,16,Jits_ISO_5,2,5,63,98,3607289280
41,14,16,Jits_ISO_5,3,5,56,103,3607318804
41,14,16,Jits_ISO_5,0,5,56,103,3607719280
41,14,16,Jits_ISO_5,1,5,80,127,3607728800
41,14,16,Jits_ISO_5,2,5,63,98,3607799080
41,14,16,Jits_ISO_5,3,1,48,58,3607808272
41,14,16,Jits_ISO_5,0,5,56,103,3608229212
41,14,16,Jits_ISO_5,1,5,63,98,3608248772
41,14,16,Jits_ISO_5,2,5,80,127,3608309088
41,14,16,Jits_ISO_5,3,1,48,54,3608334528
41,14,16,Jits_ISO_5,0,5,80,127,3608718920
41,14,16,Jits_ISO_5,1,5,63,98,3608789348
41,14,16,Jits_ISO_5,2,5,56,103,3608808760
41,14,16,Jits_ISO_5,3,1,48,54,3608818400
41,14,16,Jits_ISO_5,0,5,80,127,3609238824
41,14,16,Jits_ISO_5,1,5,56,103,3609249244
41,14,16,Jits_ISO_5,2,5,63,98,3609259292
41,14,16,Jits_ISO_5,3,1,48,59,3609325252
41,14,16,Jits_ISO_5,4,1,48,46,3609350104
41,14,16,Jits_ISO_5,0,5,80,127,3609729592
41,14,16,Jits_ISO_5,1,5,56,103,3609748780
41,14,16,Jits_ISO_5,2,1,48,59,3609792872
41,14,16,Jits_ISO_5,3,5,63,98,3609818376
41,14,16,Jits_ISO_5,0,5,56,103,3610239448
41,14,16,Jits_ISO_5,1,5,80,127,3610268976
41,14,16,Jits_ISO_5,2,5,63,98,3610288760
41,14,16,Jits_ISO_5,3,1,48,57,3610289948
41,14,16,Jits_ISO_5,0,5,63,98,3610728860
41,14,16,Jits_ISO_5,1,1,48,55,3610783220
41,14,16,Jits_ISO_5,2,5,56,103,3610789320
41,14,16,Jits_ISO_5,3,5,80,127,3610819068
41,14,16,Jits_ISO_5,0,5,63,98,3611219452
41,14,16,Jits_ISO_5,1,5,80,127,3611222816
41,14,16,Jits_ISO_5,2,1,48,54,3611276356
41,14,16,Jits_ISO_5,3,5,56,103,3611309276
41,14,16,Jits_ISO_5,0,5,56,103,3611738580
41,14,16,Jits_ISO_5,1,5,63,98,3611769152
41,14,16,Jits_ISO_5,2,1,48,57,3611783360
41,14,16,Jits_ISO_5,3,5,80,127,3611809156
41,14,16,Jits_ISO_5,0,5,63,98,3612239224
41,14,16,Jits_ISO_5,1,5,56,103,3612279240
41,14,16,Jits_ISO_5,2,1,48,59,3612288584
41,14,16,Jits_ISO_5,3,5,80,127,3612298720
41,14,16,Jits_ISO_5,0,5,63,98,3612749224
41,14,16,Jits_ISO_5,1,1,48,57,3612771452
41,14,16,Jits_ISO_5,2,5,56,103,3612789160
41,14,16,Jits_ISO_5,3,5,80,127,3612799428
41,14,16,Jits_ISO_5,0,5,80,127,3613229676
41,14,16,Jits_ISO_5,1,5,63,98,3613298936
41,14,16,Jits_ISO_5,2,1,48,58,3613305124
41,14,16,Jits_ISO_5,3,5,56,103,3613318492
41,14,16,Jits_ISO_5,0,5,56,103,3613718940
41,14,16,Jits_ISO_5,1,5,80,127,3613739252
41,14,16,Jits_ISO_5,2,5,63,98,3613779212
41,14,16,Jits_ISO_5,3,1,48,47,3613803376
41,14,16,Jits_ISO_5,0,5,63,98,3614228804
41,14,16,Jits_ISO_5,1,5,80,127,3614249412
41,14,16,Jits_ISO_5,2,5,56,103,3614289300
41,14,16,Jits_ISO_5,3,1,48,52,3614312496
41,14,16,Jits_ISO_5,0,5,63,98,3614728752
41,14,16,Jits_ISO_5,1,5,56,103,3614748916
41,14,16,Jits_ISO_5,2,5,80,127,3614759260
41,14,16,Jits_ISO_5,3,1,48,55,3614806908
41,14,16,Jits_ISO_5,0,5,80,127,3615229452
41,14,16,Jits_ISO_5,1,5,56,103,3615248644
41,14,16,Jits_ISO_5,2,5,63,98,3615278688
41,14,16,Jits_ISO_5,3,1,48,56,3615283604
41,14,16,Jits_ISO_5,0,5,56,103,3615798576
41,14,16,Jits_ISO_5,1,5,80,127,3615801716
41,14,16,Jits_ISO_5,2,1,48,45,3615811736
41,14,16,Jits_ISO_5,3,5,63,98,3615819104
41,14,16,Jits_ISO_5,0,5,63,98,3616218732
41,14,16,Jits_ISO_5,1,5,56,103,3616249304
41,14,16,Jits_ISO_5,2,5,80,127,3616308572
41,14,16,Jits_ISO_5,3,1,48,54,3616311164
41,14,16,Jits_ISO_5,0,5,63,98,3616799204
41,14,16,Jits_ISO_5,1,5,56,103,3616809548
41,14,16,Jits_ISO_5,2,1,48,43,3616814764
41,14,16,Jits_ISO_5,3,5,80,127,3616818692
41,14,16,Jits_ISO_5,0,5,56,103,3617248600
41,14,16,Jits_ISO_5,1,5,80,127,3617279620
41,14,16,Jits_ISO_5,2,5,63,98,3617288548
41,14,16,Jits_ISO_5,3,1,48,60,3617325072
41,14,16,Jits_ISO_5,0,5,63,98,3617789256
41,14,16,Jits_ISO_5,1,5,56,103,3617798628
41,14,16,Jits_ISO_5,2,5,80,127,3617818936
41,14,16,Jits_ISO_5,3,1,48,43,3617822732
41,14,16,Jits_ISO_5,0,5,56,103,3618219540
41,14,16,Jits_ISO_5,1,5,63,98,3618278732
41,14,16,Jits_ISO_5,2,5,80,127,3618282168
41,14,16,Jits_ISO_5,3,1,48,43,3618308824
41,14,16,Jits_ISO_5,0,5,80,127,3618738684
41,14,16,Jits_ISO_5,1,5,56,103,3618748656
41,14,16,Jits_ISO_5,2,1,48,35,3618785704
41,14,16,Jits_ISO_5,3,5,63,98,3618818624
41,14,16,Jits_ISO_5,0,5,80,127,3619228992
41,14,16,Jits_ISO_5,1,5,56,103,3619298820
41,14,16,Jits_ISO_5,2,1,48,41,3619303512
41,14,16,Jits_ISO_5,3,5,63,98,3619308784
41,14,16,Jits_ISO_5,0,5,63,98,3619768596
41,14,16,Jits_ISO_5,1,5,56,103,3619778792
41,14,16,Jits_ISO_5,2,5,80,127,3619799624
41,14,16,Jits_ISO_5,3,1,48,50,3619808964
41,14,16,Jits_ISO_5,0,5,80,127,3620219404
41,14,16,Jits_ISO_5,1,5,63,98,3620278600
41,14,16,Jits_ISO_5,2,1,48,46,3620300076
41,14,16,Jits_ISO_5,3,5,56,103,3620318680
41,14,16,Jits_ISO_5,0,5,56,103,3620758864
41,14,16,Jits_ISO_5,1,5,63,98,3620769432
41,14,16,Jits_ISO_5,2,1,48,47,3620804016
41,14,16,Jits_ISO_5,3,5,80,127,3620809212
41,14,16,Jits_ISO_5,0,5,56,103,3621218756
41,14,16,Jits_ISO_5,1,5,80,127,3621249404
41,14,16,Jits_ISO_5,2,1,48,54,3621290808
41,14,16,Jits_ISO_5,3,5,63,98,3621298476
41,14,16,Jits_ISO_5,0,5,56,103,3621759560
41,14,16,Jits_ISO_5,1,1,48,46,3621795940
41,14,16,Jits_ISO_5,2,5,63,98,3621799488
41,14,16,Jits_ISO_5,3,5,80,127,3621802852
41,14,16,Jits_ISO_5,0,5,56,103,3622259152
41,14,16,Jits_ISO_5,1,5,63,98,3622269348
41,14,16,Jits_ISO_5,2,1,48,49,3622279888
41,14,16,Jits_ISO_5,3,5,80,127,3622288604
41,14,16,Jits_ISO_5,0,5,56,103,3622718740
41,14,16,Jits_ISO_5,1,5,80,127,3622721888
41,14,16,Jits_ISO_5,2,5,63,98,3622758684
41,14,16,Jits_ISO_5,3,1,48,53,3622786828
41,14,16,Jits_ISO_5,0,5,63,98,3623258488
41,14,16,Jits_ISO_5,1,1,48,59,3623275760
41,14,16,Jits_ISO_5,2,5,56,103,3623289352
41,14,16,Jits_ISO_5,3,5,80,127,3623308616
41,14,16,Jits_ISO_5,0,5,80,127,3623728460
41,14,16,Jits_ISO_5,1,5,56,103,3623738828
41,14,16,Jits_ISO_5,2,5,63,98,3623749248
41,14,16,Jits_ISO_5,3,1,48,50,3623775436
41,14,16,Jits_ISO_5,0,5,56,103,3624229476
41,14,16,Jits_ISO_5,1,1,48,45,3624269892
41,14,16,Jits_ISO_5,2,5,80,127,3624271080
41,14,16,Jits_ISO_5,3,5,63,98,3624298884
41,14,16,Jits_ISO_5,0,5,63,98,3624739260
41,14,16,Jits_ISO_5,1,5,80,127,3624749308
41,14,16,Jits_ISO_5,2,5,56,103,3624758928
41,14,16,Jits_ISO_5,3,1,48,44,3624777188
41,14,16,Jits_ISO_5,0,5,56,103,3625218392
41,14,16,Jits_ISO_5,1,1,48,43,3625258672
41,14,16,Jits_ISO_5,2,5,63,98,3625289212
41,14,16,Jits_ISO_5,3,5,80,127,3625299256
41,14,16,Jits_ISO_5,0,5,80,127,3625719112
41,14,16,Jits_ISO_5,1,5,56,103,3625729528
41,14,16,Jits_ISO_5,2,1,48,45,3625754592
41,14,16,Jits_ISO_5,3,5,63,98,3625778748
41,14,16,Jits_ISO_5,0,5,80,127,3626229268
41,14,16,Jits_ISO_5,1,1,48,40,3626261232
41,14,16,Jits_ISO_5,2,5,56,103,3626288456
41,14,16,Jits_ISO_5,3,5,63,98,3626319276
41,14,16,Jits_ISO_5,0,5,56,103,3626728796
41,14,16,Jits_ISO_5,1,5,80,127,3626732008
41,14,16,Jits_ISO_5,2,5,63,98,3626768728
41,14,16,Jits_ISO_5,3,1,48,43,3626798376
41,14,16,Jits_ISO_5,0,5,56,103,3627259176
41,14,16,Jits_ISO_5,1,1,48,41,3627288244
41,14,16,Jits_ISO_5,2,5,63,98,3627290116
41,14,16,Jits_ISO_5,3,5,80,127,3627299188
41,14,16,Jits_ISO_5,0,5,63,98,3627769116
41,14,16,Jits_ISO_5,1,5,80,127,3627778564
41,14,16,Jits_ISO_5,2,5,56,103,3627788608
41,14,16,Jits_ISO_5,3,1,48,45,3627812772
41,14,16,Jits_ISO_5,0,5,80,127,3628218656
41,14,16,Jits_ISO_5,1,5,56,103,3628268856
41,14,16,Jits_ISO_5,2,5,63,98,3628271996
41,14,16,Jits_ISO_5,3,1,48,37,3628323580
41,14,16,Jits_ISO_5,0,5,56,103,3628749256
41,14,16,Jits_ISO_5,1,5,80,127,3628768520
41,14,16,Jits_ISO_5,2,5,63,98,3628778864
41,14,16,Jits_ISO_5,3,1,48,41,3628792692
41,14,16,Jits_ISO_5,0,5,63,98,3629229376
41,14,16,Jits_ISO_5,1,5,56,103,3629259276
41,14,16,Jits_ISO_5,2,5,80,127,3629278612
41,14,16,Jits_ISO_5,3,1,48,42,3629293940
41,14,16,Jits_ISO_5,0,5,56,103,3629739372
41,14,16,Jits_ISO_5,1,5,80,127,3629748524
41,14,16,Jits_ISO_5,2,1,48,42,3629768952
41,14,16,Jits_ISO_5,3,5,63,98,3629819168
41,14,16,Jits_ISO_5,0,5,63,98,3630228784
41,14,16,Jits_ISO_5,1,5,80,127,3630268648
41,14,16,Jits_ISO_5,2,1,48,45,3630303528
41,14,16,Jits_ISO_5,3,5,56,103,3630308804
41,14,16,Jits_ISO_5,0,5,56,103,3630738860
41,14,16,Jits_ISO_5,1,5,63,98,3630749204
41,14,16,Jits_ISO_5,2,5,80,127,3630768540
41,14,16,Jits_ISO_5,3,1,48,45,3630811136
41,14,16,Jits_ISO_5,0,5,63,98,3631278312
41,14,16,Jits_ISO_5,1,5,80,127,3631299068
41,14,16,Jits_ISO_5,2,1,48,42,3631300036
41,14,16,Jits_ISO_5,3,5,56,103,3631319372
41,14,16,Jits_ISO_5,0,5,56,103,3631718712
41,14,16,Jits_ISO_5,1,5,80,127,3631798508
41,14,16,Jits_ISO_5,2,5,63,98,3631809152
41,14,16,Jits_ISO_5,3,1,48,41,3631820288
41,14,16,Jits_ISO_5,0,5,80,127,3632258320
41,14,16,Jits_ISO_5,1,5,63,98,3632268516
41,14,16,Jits_ISO_5,2,5,56,103,3632299236
41,14,16,Jits_ISO_5,3,1,48,42,3632332688
41,14,16,Jits_ISO_5,0,5,63,98,3632719108
41,14,16,Jits_ISO_5,1,5,80,127,3632759120
41,14,16,Jits_ISO_5,2,5,56,103,3632818536
41,14,16,Jits_ISO_5,3,1,48,39,3632836028
41,14,16,Jits_ISO_5,0,5,63,98,3633229256
41,14,16,Jits_ISO_5,1,5,56,103,3633279232
41,14,16,Jits_ISO_5,2,5,80,127,3633308908
41,14,16,Jits_ISO_5,3,1,48,44,3633330156
41,14,16,Jits_ISO_5,0,5,80,127,3633739180
41,14,16,Jits_ISO_5,1,5,63,98,3633749376
41,14,16,Jits_ISO_5,2,1,48,48,3633811752
41,14,16,Jits_ISO_5,3,5,56,103,3633819048
41,14,16,Jits_ISO_5,0,5,80,127,3634308532
41,14,16,Jits_ISO_5,1,5,56,103,3634318952
41,14,16,Jits_ISO_5,2,5,63,98,3634322016
41,14,16,Jits_ISO_5,3,1,48,41,3634340952
41,14,16,Jits_ISO_5,0,5,56,103,3634748792
41,14,16,Jits_ISO_5,1,5,80,127,3634769324
41,14,16,Jits_ISO_5,2,5,63,98,3634778472
41,14,16,Jits_ISO_5,3,1,48,48,3634860020
41,14,16,Jits_ISO_5,0,5,63,98,3635258952
41,14,16,Jits_ISO_5,1,5,56,103,3635298964
41,14,16,Jits_ISO_5,2,1,48,52,3635312800
41,14,16,Jits_ISO_5,3,5,80,127,3635319120
41,14,16,Jits_ISO_5,0,5,63,98,3635758368
41,14,16,Jits_ISO_5,1,5,56,103,3635818856
41,14,16,Jits_ISO_5,2,5,80,127,3635821920
41,14,16,Jits_ISO_5,3,1,48,46,3635824668
41,14,16,Jits_ISO_5,0,5,56,103,3636219132
41,14,16,Jits_ISO_5,1,5,80,127,3636238988
41,14,16,Jits_ISO_5,2,5,63,98,3636278876
41,14,16,Jits_ISO_5,3,1,48,45,3636315400
41,14,16,Jits_ISO_5,0,5,56,103,3636748768
41,14,16,Jits_ISO_5,1,5,63,98,3636769228
41,14,16,Jits_ISO_5,2,5,80,127,3636779348
41,14,16,Jits_ISO_5,3,1,48,43,3636837332
41,14,16,Jits_ISO_5,0,5,80,127,3637218776
41,14,16,Jits_ISO_5,1,5,56,103,3637249496
41,14,16,Jits_ISO_5,2,5,63,98,3637289284
41,14,16,Jits_ISO_5,3,1,48,53,3637332356
41,14,16,Jits_ISO_5,0,5,80,127,3637728860
41,14,16,Jits_ISO_5,1,5,56,103,3637749100
41,14,16,Jits_ISO_5,2,5,63,98,3637808364
41,14,16,Jits_ISO_5,3,1,48,46,3637824236
41,14,16,Jits_ISO_5,0,5,56,103,3638238504
41,14,16,Jits_ISO_5,1,5,80,127,3638259036
41,14,16,Jits_ISO_5,2,5,63,98,3638318452
41,14,16,Jits_ISO_5,3,1,48,49,3638337564
41,14,16,Jits_ISO_5,0,5,80,127,3638719000
41,14,16,Jits_ISO_5,1,5,56,103,3638729196
41,14,16,Jits_ISO_5,2,5,63,98,3638769132
41,14,16,Jits_ISO_5,3,1,48,36,3638848616
41,14,16,Jits_ISO_5,0,5,63,98,3639218524
41,14,16,Jits_ISO_5,1,5,56,103,3639258380
41,14,16,Jits_ISO_5,2,5,80,127,3639261524
41,14,16,Jits_ISO_5,3,1,48,53,3639312064
41,14,16,Jits_ISO_5,0,5,63,98,3639738696
41,14,16,Jits_ISO_5,1,5,80,127,3639778856
41,14,16,Jits_ISO_5,2,5,56,103,3639809356
41,14,16,Jits_ISO_5,3,1,48,46,3639824536
41,14,16,Jits_ISO_5,0,5,56,103,3640229144
41,14,16,Jits_ISO_5,1,5,63,98,3640238440
41,14,16,Jits_ISO_5,2,5,80,127,3640269160
41,14,16,Jits_ISO_5,3,1,48,55,3640320004
41,14,16,Jits_ISO_5,0,5,80,127,3640718700
41,14,16,Jits_ISO_5,1,5,63,98,3640789352
41,14,16,Jits_ISO_5,2,5,56,103,3640798504
41,14,16,Jits_ISO_5,3,1,48,54,3640859976
41,14,16,Jits_ISO_5,0,5,63,98,3641218376
41,14,16,Jits_ISO_5,1,5,56,103,3641289104
41,14,16,Jits_ISO_5,2,5,80,127,3641299300
41,14,16,Jits_ISO_5,3,1,48,46,3641344440
41,14,16,Jits_ISO_5,0,5,63,98,3641719012
41,14,16,Jits_ISO_5,1,5,56,103,3641738720
41,14,16,Jits_ISO_5,2,5,80,127,3641778656
41,14,16,Jits_ISO_5,3,1,48,54,3641860732
41,14,16,Jits_ISO_5,0,5,56,103,3642229080
41,14,16,Jits_ISO_5,1,5,63,98,3642239276
41,14,16,Jits_ISO_5,2,5,80,127,3642319216
41,14,16,Jits_ISO_5,3,1,48,35,3642348712
41,14,16,Jits_ISO_5,0,5,63,98,3642718564
41,14,16,Jits_ISO_5,1,5,56,103,3642749212
41,14,16,Jits_ISO_5,2,5,80,127,3642789224
41,14,16,Jits_ISO_5,3,1,48,39,3642795484
41,14,16,Jits_ISO_5,0,5,56,103,3643219424
41,14,16,Jits_ISO_5,1,1,48,36,3643254904
41,14,16,Jits_ISO_5,2,5,63,98,3643259132
41,14,16,Jits_ISO_5,3,5,80,127,3643299144
41,14,16,Jits_ISO_5,0,5,80,127,3643719172
41,14,16,Jits_ISO_5,1,1,48,42,3643785064
41,14,16,Jits_ISO_5,2,5,56,103,3643798812
41,14,16,Jits_ISO_5,3,5,63,98,3643809008
41,14,16,Jits_ISO_5,0,5,56,103,3644258632
41,14,16,Jits_ISO_5,1,5,63,98,3644261696
41,14,16,Jits_ISO_5,2,5,80,127,3644268904
41,14,16,Jits_ISO_5,3,1,48,50,3644310828
41,14,16,Jits_ISO_5,0,5,56,103,3644778752
41,14,16,Jits_ISO_5,1,5,63,98,3644799284
41,14,16,Jits_ISO_5,2,5,80,127,3644808732
41,14,16,Jits_ISO_5,3,1,48,59,3644816580
41,14,16,Jits_ISO_5,0,5,63,98,3645238720
41,14,16,Jits_ISO_5,1,5,80,127,3645248992
41,14,16,Jits_ISO_5,2,5,56,103,3645269448
41,14,16,Jits_ISO_5,3,1,48,56,3645307484
41,14,16,Jits_ISO_5,0,5,63,98,3645739700
41,14,16,Jits_ISO_5,1,1,48,58,3645782104
41,14,16,Jits_ISO_5,2,5,56,103,3645819592
41,14,16,Jits_ISO_5,3,5,80,127,3645822576
41,14,16,Jits_ISO_5,0,5,63,98,3646239056
41,14,16,Jits_ISO_5,1,5,56,103,3646258692
41,14,16,Jits_ISO_5,2,5,80,127,3646289364
41,14,16,Jits_ISO_5,3,1,48,47,3646310988
41,14,16,Jits_ISO_5,0,5,56,103,3646739012
41,14,16,Jits_ISO_5,1,5,63,98,3646759472
41,14,16,Jits_ISO_5,2,5,80,127,3646768620
41,14,16,Jits_ISO_5,3,1,48,45,3646782104
41,14,16,Jits_ISO_5,0,5,56,103,3647269108
41,14,16,Jits_ISO_5,1,1,48,53,3647271044
41,14,16,Jits_ISO_5,2,5,63,98,3647299020
41,14,16,Jits_ISO_5,3,5,80,127,3647302460
41,14,16,Jits_ISO_5,0,5,56,103,3647718876
41,14,16,Jits_ISO_5,1,5,63,98,3647758592
41,14,16,Jits_ISO_5,2,1,48,50,3647768684
41,14,16,Jits_ISO_5,3,5,80,127,3647819144
41,14,16,Jits_ISO_5,0,5,56,103,3648238856
41,14,16,Jits_ISO_5,1,5,63,98,3648249052
41,14,16,Jits_ISO_5,2,1,48,46,3648275836
41,14,16,Jits_ISO_5,3,5,80,127,3648308460
41,14,16,Jits_ISO_5,0,5,56,103,3648738728
41,14,16,Jits_ISO_5,1,5,80,127,3648759116
41,14,16,Jits_ISO_5,2,1,48,46,3648762604
41,14,16,Jits_ISO_5,3,5,63,98,3648788860
41,14,16,Jits_ISO_5,0,5,80,127,3649239676
41,14,16,Jits_ISO_5,1,5,56,103,3649248676
41,14,16,Jits_ISO_5,2,1,48,45,3649263928
41,14,16,Jits_ISO_5,3,5,63,98,3649268980
41,14,16,Jits_ISO_5,0,5,63,98,3649728860
41,14,16,Jits_ISO_5,1,1,48,43,3649779932
41,14,16,Jits_ISO_5,2,5,80,127,3649808724
41,14,16,Jits_ISO_5,3,5,56,103,3649818848
41,14,16,Jits_ISO_5,0,1,48,45,3650270596
41,14,16,Jits_ISO_5,1,5,80,127,3650288976
41,14,16,Jits_ISO_5,2,5,56,103,3650308460
41,14,16,Jits_ISO_5,3,5,63,98,3650311452
41,14,16,Jits_ISO_5,0,5,63,98,3650759116
41,14,16,Jits_ISO_5,1,5,80,127,3650762328
41,14,16,Jits_ISO_5,2,1,48,56,3650794596
41,14,16,Jits_ISO_5,3,5,56,103,3650818300
41,14,16,Jits_ISO_5,0,5,56,103,3651239440
41,14,16,Jits_ISO_5,1,5,80,127,3651248588
41,14,16,Jits_ISO_5,2,1,48,51,3651272756
41,14,16,Jits_ISO_5,3,5,63,98,3651288592
41,14,16,Jits_ISO_5,0,5,56,103,3651718512
41,14,16,Jits_ISO_5,1,5,63,98,3651778824
41,14,16,Jits_ISO_5,2,1,48,45,3651784632
41,14,16,Jits_ISO_5,3,5,80,127,3651789388
41,14,16,Jits_ISO_5,0,5,63,98,3652228520
41,14,16,Jits_ISO_5,1,5,80,127,3652269356
41,14,16,Jits_ISO_5,2,1,48,47,3652304760
41,14,16,Jits_ISO_5,3,5,56,103,3652309364
41,14,16,Jits_ISO_5,0,5,56,103,3652729376
41,14,16,Jits_ISO_5,1,1,48,50,3652755336
41,14,16,Jits_ISO_5,2,5,63,98,3652809088
41,14,16,Jits_ISO_5,3,5,80,127,3652812524
41,14,16,Jits_ISO_5,0,9999,9999,9999,3593516084
41,14,16,Jits_ISO_5,1,9999,9999,9999,3594016832
41,14,16,Jits_ISO_5,2,9999,9999,9999,3594516536
41,14,16,Jits_ISO_5,3,9999,9999,9999,3595016296
41,14,16,Jits_ISO_5,4,9999,9999,9999,3595517024
41,14,16,Jits_ISO_5,5,9999,9999,9999,3596016716
41,14,16,Jits_ISO_5,6,9999,9999,9999,3596516468
41,14,16,Jits_ISO_5,7,9999,9999,9999,3597016160
41,14,16,Jits_ISO_5,8,9999,9999,9999,3597516916
41,14,16,Jits_ISO_5,9,9999,9999,9999,3598016592
41,14,16,Jits_ISO_5,10,9999,9999,9999,3598516340
41,14,16,Jits_ISO_5,11,9999,9999,9999,3599017064
41,14,16,Jits_ISO_5,12,9999,9999,9999,3599516724
41,14,16,Jits_ISO_5,13,9999,9999,9999,3600016456
41,14,16,Jits_ISO_5,14,9999,9999,9999,3600516188
41,14,16,Jits_ISO_5,15,9999,9999,9999,3601016908
41,14,16,Jits_ISO_5,16,9999,9999,9999,3601516652
41,14,16,Jits_ISO_5,17,9999,9999,9999,3602016312
41,14,16,Jits_ISO_5,18,9999,9999,9999,3602517104
41,14,16,Jits_ISO_5,19,9999,9999,9999,3603016780
41,14,16,Jits_ISO_5,20,9999,9999,9999,3603516532
41,14,16,Jits_ISO_5,21,9999,9999,9999,3604016180
41,14,16,Jits_ISO_5,22,9999,9999,9999,3604516968
41,14,16,Jits_ISO_5,23,9999,9999,9999,3605016640
41,14,16,Jits_ISO_5,24,9999,9999,9999,3605516388
41,14,16,Jits_ISO_5,25,9999,9999,9999,3606016056
41,14,16,Jits_ISO_5,26,9999,9999,9999,3606516836
41,14,16,Jits_ISO_5,27,9999,9999,9999,3607016560
41,14,16,Jits_ISO_5,28,9999,9999,9999,3607516240
41,14,16,Jits_ISO_5,29,9999,9999,9999,3608016956
41,14,16,Jits_ISO_5,30,9999,9999,9999,3608516704
41,14,16,Jits_ISO_5,31,9999,9999,9999,3609016376
41,14,16,Jits_ISO_5,32,9999,9999,9999,3609516100
41,14,16,Jits_ISO_5,33,9999,9999,9999,3610016856
41,14,16,Jits_ISO_5,34,9999,9999,9999,3610516600
41,14,16,Jits_ISO_5,35,9999,9999,9999,3611016280
41,14,16,Jits_ISO_5,36,9999,9999,9999,3611517048
41,14,16,Jits_ISO_5,37,9999,9999,9999,3612016704
41,14,16,Jits_ISO_5,38,9999,9999,9999,3612516456
41,14,16,Jits_ISO_5,39,9999,9999,9999,3613016116
41,14,16,Jits_ISO_5,40,9999,9999,9999,3613516896
41,14,16,Jits_ISO_5,41,9999,9999,9999,3614016572
41,14,16,Jits_ISO_5,42,9999,9999,9999,3614516292
41,14,16,Jits_ISO_5,43,9999,9999,9999,3615017064
41,14,16,Jits_ISO_5,44,9999,9999,9999,3615516792
41,14,16,Jits_ISO_5,45,9999,9999,9999,3616016436
41,14,16,Jits_ISO_5,46,9999,9999,9999,3616516164
41,14,16,Jits_ISO_5,47,9999,9999,9999,3617016952
41,14,16,Jits_ISO_5,48,9999,9999,9999,3617516612
41,14,16,Jits_ISO_5,49,9999,9999,9999,3618016364
41,14,16,Jits_ISO_5,50,9999,9999,9999,3618517060
41,14,16,Jits_ISO_5,51,9999,9999,9999,3619016808
41,14,16,Jits_ISO_5,52,9999,9999,9999,3619516484
41,14,16,Jits_ISO_5,53,9999,9999,9999,3620016232
41,14,16,Jits_ISO_5,54,9999,9999,9999,3620516940
41,14,16,Jits_ISO_5,55,9999,9999,9999,3621016688
41,14,16,Jits_ISO_5,56,9999,9999,9999,3621516364
41,14,16,Jits_ISO_5,57,9999,9999,9999,3622016104
41,14,16,Jits_ISO_5,58,9999,9999,9999,3622516824
41,14,16,Jits_ISO_5,59,9999,9999,9999,3623016560
41,14,16,Jits_ISO_5,60,9999,9999,9999,3623516240
41,14,16,Jits_ISO_5,61,9999,9999,9999,3624017020
41,14,16,Jits_ISO_5,62,9999,9999,9999,3624516692
41,14,16,Jits_ISO_5,63,9999,9999,9999,3625016436
41,14,16,Jits_ISO_5,64,9999,9999,9999,3625516144
41,14,16,Jits_ISO_5,65,9999,9999,9999,3626016860
41,14,16,Jits_ISO_5,66,9999,9999,9999,3626516536
41,14,16,Jits_ISO_5,67,9999,9999,9999,3627016276
41,14,16,Jits_ISO_5,68,9999,9999,9999,3627517000
41,14,16,Jits_ISO_5,69,9999,9999,9999,3628016748
41,14,16,Jits_ISO_5,70,9999,9999,9999,3628516472
41,14,16,Jits_ISO_5,71,9999,9999,9999,3629016144
41,14,16,Jits_ISO_5,72,9999,9999,9999,3629516864
41,14,16,Jits_ISO_5,73,9999,9999,9999,3630016600
41,14,16,Jits_ISO_5,74,9999,9999,9999,3630516276
41,14,16,Jits_ISO_5,75,9999,9999,9999,3631017056
41,14,16,Jits_ISO_5,76,9999,9999,9999,3631516732
41,14,16,Jits_ISO_5,77,9999,9999,9999,3632016468
41,14,16,Jits_ISO_5,78,9999,9999,9999,3632516216
41,14,16,Jits_ISO_5,79,9999,9999,9999,3633016936
41,14,16,Jits_ISO_5,80,9999,9999,9999,3633516600
41,14,16,Jits_ISO_5,81,9999,9999,9999,3634016332
41,14,16,Jits_ISO_5,82,9999,9999,9999,3634517052
41,14,16,Jits_ISO_5,83,9999,9999,9999,3635016800
41,14,16,Jits_ISO_5,84,9999,9999,9999,3635516480
41,14,16,Jits_ISO_5,85,9999,9999,9999,3636016184
41,14,16,Jits_ISO_5,86,9999,9999,9999,3636516956
41,14,16,Jits_ISO_5,87,9999,9999,9999,3637016632
41,14,16,Jits_ISO_5,88,9999,9999,9999,3637516376
41,14,16,Jits_ISO_5,89,9999,9999,9999,3638016056
41,14,16,Jits_ISO_5,90,9999,9999,9999,3638516852
41,14,16,Jits_ISO_5,91,9999,9999,9999,3639016528
41,14,16,Jits_ISO_5,92,9999,9999,9999,3639516264
41,14,16,Jits_ISO_5,93,9999,9999,9999,3640016972
41,14,16,Jits_ISO_5,94,9999,9999,9999,3640516704
41,14,16,Jits_ISO_5,95,9999,9999,9999,3641016380
41,14,16,Jits_ISO_5,96,9999,9999,9999,3641516132
41,14,16,Jits_ISO_5,97,9999,9999,9999,3642016836
41,14,16,Jits_ISO_5,98,9999,9999,9999,3642516568
41,14,16,Jits_ISO_5,99,9999,9999,9999,3643016244
41,14,16,Jits_ISO_5,100,9999,9999,9999,3643517028
41,14,16,Jits_ISO_5,101,9999,9999,9999,3644016704
41,14,16,Jits_ISO_5,102,9999,9999,9999,3644516444
41,14,16,Jits_ISO_5,103,9999,9999,9999,3645016124
41,14,16,Jits_ISO_5,104,9999,9999,9999,3645516916
41,14,16,Jits_ISO_5,105,9999,9999,9999,3646016572
41,14,16,Jits_ISO_5,106,9999,9999,9999,3646516280
41,14,16,Jits_ISO_5,107,9999,9999,9999,3647017064
41,14,16,Jits_ISO_5,108,9999,9999,9999,3647516732
41,14,16,Jits_ISO_5,109,9999,9999,9999,3648016480
41,14,16,Jits_ISO_5,110,9999,9999,9999,3648516208
41,14,16,Jits_ISO_5,111,9999,9999,9999,3649016932
41,14,16,Jits_ISO_5,112,9999,9999,9999,3649516604
41,14,16,Jits_ISO_5,113,9999,9999,9999,3650016356
41,14,16,Jits_ISO_5,114,9999,9999,9999,3650517056
41,14,16,Jits_ISO_5,115,9999,9999,9999,3651016784
41,14,16,Jits_ISO_5,116,9999,9999,9999,3651516516
41,14,16,Jits_ISO_5,117,9999,9999,9999,3652016188
41,14,16,Jits_ISO_5,118,9999,9999,9999,3652516984
41,14,16,Jits_ISO_5,119,9999,9999,9999,3653016636
41,15,7,Jits_ISO_8,0,5,56,103,3664428484
41,15,7,Jits_ISO_8,1,5,63,98,3664431508
41,15,7,Jits_ISO_8,2,5,80,127,3664434484
41,15,7,Jits_ISO_8,0,1,48,47,3664857948
41,15,7,Jits_ISO_8,1,5,56,103,3665228192
41,15,7,Jits_ISO_8,2,5,63,98,3665231364
41,15,7,Jits_ISO_8,3,5,80,127,3665234484
41,15,7,Jits_ISO_8,4,1,48,47,3665461480
41,15,7,Jits_ISO_8,0,5,80,127,3665967580
41,15,7,Jits_ISO_8,1,1,48,57,3666018976
41,15,7,Jits_ISO_8,2,5,63,98,3666057588
41,15,7,Jits_ISO_8,3,5,56,103,3666067856
41,15,7,Jits_ISO_8,0,5,56,103,3666788012
41,15,7,Jits_ISO_8,1,5,63,98,3666798208
41,15,7,Jits_ISO_8,2,1,48,63,3666846580
41,15,7,Jits_ISO_8,3,1,48,48,3666882360
41,15,7,Jits_ISO_8,4,5,80,127,3666888012
41,15,7,Jits_ISO_8,0,5,63,98,3667557916
41,15,7,Jits_ISO_8,1,1,48,70,3667562156
41,15,7,Jits_ISO_8,2,5,80,127,3667587660
41,15,7,Jits_ISO_8,3,1,48,53,3667591060
41,15,7,Jits_ISO_8,4,5,56,103,3667618060
41,15,7,Jits_ISO_8,0,1,48,70,3668341400
41,15,7,Jits_ISO_8,1,5,56,103,3668357468
41,15,7,Jits_ISO_8,2,5,80,127,3668457776
41,15,7,Jits_ISO_8,3,5,63,98,3668508052
41,15,7,Jits_ISO_8,0,5,56,103,3669158236
41,15,7,Jits_ISO_8,1,5,80,127,3669208364
41,15,7,Jits_ISO_8,2,5,63,98,3669248228
41,15,7,Jits_ISO_8,3,1,48,73,3669262952
41,15,7,Jits_ISO_8,0,1,48,73,3669978080
41,15,7,Jits_ISO_8,1,1,38,18,3669987684
41,15,7,Jits_ISO_8,2,5,80,127,3669989996
41,15,7,Jits_ISO_8,3,1,48,56,3670002464
41,15,7,Jits_ISO_8,4,5,63,98,3670018304
41,15,7,Jits_ISO_8,5,5,56,103,3670088144
41,15,7,Jits_ISO_8,0,1,48,73,3670777636
41,15,7,Jits_ISO_8,1,5,63,98,3670818124
41,15,7,Jits_ISO_8,2,5,56,103,3670847900
41,15,7,Jits_ISO_8,3,5,80,127,3670908124
41,15,7,Jits_ISO_8,0,1,48,67,3671533812
41,15,7,Jits_ISO_8,1,5,56,103,3671557596
41,15,7,Jits_ISO_8,2,5,80,127,3671560736
41,15,7,Jits_ISO_8,3,5,63,98,3671678452
41,15,7,Jits_ISO_8,0,1,48,61,3672345044
41,15,7,Jits_ISO_8,1,5,56,103,3672438072
41,15,7,Jits_ISO_8,2,5,80,127,3672477940
41,15,7,Jits_ISO_8,3,5,63,98,3672488208
41,15,7,Jits_ISO_8,0,5,56,103,3673197876
41,15,7,Jits_ISO_8,1,1,48,60,3673200992
41,15,7,Jits_ISO_8,2,5,80,127,3673218700
41,15,7,Jits_ISO_8,3,5,63,98,3673298408
41,15,7,Jits_ISO_8,0,5,80,127,3673987636
41,15,7,Jits_ISO_8,1,1,48,47,3674030688
41,15,7,Jits_ISO_8,2,1,38,15,3674039512
41,15,7,Jits_ISO_8,3,5,56,103,3674087860
41,15,7,Jits_ISO_8,4,5,63,98,3674097908
41,15,7,Jits_ISO_8,0,5,63,98,3674757592
41,15,7,Jits_ISO_8,1,5,80,127,3674817764
41,15,7,Jits_ISO_8,2,5,56,103,3674828108
41,15,7,Jits_ISO_8,3,1,48,51,3674847936
41,15,7,Jits_ISO_8,0,5,56,103,3675558348
41,15,7,Jits_ISO_8,1,1,48,59,3675580576
41,15,7,Jits_ISO_8,2,5,63,98,3675627876
41,15,7,Jits_ISO_8,3,5,80,127,3675631236
41,15,7,Jits_ISO_8,0,1,48,61,3676380128
41,15,7,Jits_ISO_8,1,5,63,98,3676387728
41,15,7,Jits_ISO_8,2,5,56,103,3676438004
41,15,7,Jits_ISO_8,3,5,80,127,3676440996
41,15,7,Jits_ISO_8,0,5,56,103,3677147724
41,15,7,Jits_ISO_8,1,5,80,127,3677150640
41,15,7,Jits_ISO_8,2,1,48,50,3677174884
41,15,7,Jits_ISO_8,3,5,63,98,3677237648
41,15,7,Jits_ISO_8,0,1,48,74,3677983956
41,15,7,Jits_ISO_8,1,5,63,98,3677988408
41,15,7,Jits_ISO_8,2,5,56,103,3678078780
41,15,7,Jits_ISO_8,3,5,80,127,3678108084
41,15,7,Jits_ISO_8,0,5,56,103,3678777672
41,15,7,Jits_ISO_8,1,1,48,65,3678815324
41,15,7,Jits_ISO_8,2,5,63,98,3678877992
41,15,7,Jits_ISO_8,3,5,80,127,3678907740
41,15,7,Jits_ISO_8,0,5,63,98,3679598076
41,15,7,Jits_ISO_8,1,5,56,103,3679608272
41,15,7,Jits_ISO_8,2,1,48,56,3679615060
41,15,7,Jits_ISO_8,3,1,38,15,3679624480
41,15,7,Jits_ISO_8,4,5,80,127,3679698380
41,15,7,Jits_ISO_8,0,1,48,60,3680385452
41,15,7,Jits_ISO_8,1,1,38,16,3680395004
41,15,7,Jits_ISO_8,2,5,63,98,3680418120
41,15,7,Jits_ISO_8,3,5,56,103,3680497940
41,15,7,Jits_ISO_8,4,5,80,127,3680500936
41,15,7,Jits_ISO_8,0,1,48,73,3681162864
41,15,7,Jits_ISO_8,1,5,80,127,3681178104
41,15,7,Jits_ISO_8,2,5,63,98,3681197592
41,15,7,Jits_ISO_8,3,5,56,103,3681257820
41,15,7,Jits_ISO_8,0,1,48,51,3681984220
41,15,7,Jits_ISO_8,1,5,56,103,3682017676
41,15,7,Jits_ISO_8,2,5,63,98,3682038056
41,15,7,Jits_ISO_8,3,5,80,127,3682041644
41,15,7,Jits_ISO_8,0,5,63,98,3682757964
41,15,7,Jits_ISO_8,1,5,80,127,3682837988
41,15,7,Jits_ISO_8,2,1,48,48,3682848628
41,15,7,Jits_ISO_8,3,5,56,103,3682849900
41,15,7,Jits_ISO_8,0,5,63,98,3683578428
41,15,7,Jits_ISO_8,1,5,56,103,3683597544
41,15,7,Jits_ISO_8,2,1,48,61,3683602228
41,15,7,Jits_ISO_8,3,1,38,17,3683611572
41,15,7,Jits_ISO_8,4,5,80,127,3683647816
41,15,7,Jits_ISO_8,0,5,80,127,3684378184
41,15,7,Jits_ISO_8,1,1,48,51,3684390296
41,15,7,Jits_ISO_8,2,5,63,98,3684417992
41,15,7,Jits_ISO_8,3,5,56,103,3684438300
41,15,7,Jits_ISO_8,0,1,48,48,3685153512
41,15,7,Jits_ISO_8,1,5,56,103,3685217708
41,15,7,Jits_ISO_8,2,5,63,98,3685227904
41,15,7,Jits_ISO_8,3,5,80,127,3685248288
41,15,7,Jits_ISO_8,0,1,48,60,3685942540
41,15,7,Jits_ISO_8,1,5,56,103,3685947740
41,15,7,Jits_ISO_8,2,5,63,98,3686037864
41,15,7,Jits_ISO_8,3,5,80,127,3686098476
41,15,7,Jits_ISO_8,0,1,48,60,3686747284
41,15,7,Jits_ISO_8,1,5,80,127,3686778396
41,15,7,Jits_ISO_8,2,5,56,103,3686787472
41,15,7,Jits_ISO_8,3,5,63,98,3686858184
41,15,7,Jits_ISO_8,0,1,48,49,3687548556
41,15,7,Jits_ISO_8,1,5,63,98,3687607624
41,15,7,Jits_ISO_8,2,5,80,127,3687697672
41,15,7,Jits_ISO_8,3,5,56,103,3687708312
41,15,7,Jits_ISO_8,0,5,63,98,3688348304
41,15,7,Jits_ISO_8,1,1,48,47,3688386044
41,15,7,Jits_ISO_8,2,5,80,127,3688398276
41,15,7,Jits_ISO_8,3,5,56,103,3688457620
41,15,7,Jits_ISO_8,0,5,56,103,3689177456
41,15,7,Jits_ISO_8,1,1,48,59,3689192632
41,15,7,Jits_ISO_8,2,5,80,127,3689227728
41,15,7,Jits_ISO_8,3,5,63,98,3689248332
41,15,7,Jits_ISO_8,0,5,56,103,3689947584
41,15,7,Jits_ISO_8,1,1,48,61,3689991236
41,15,7,Jits_ISO_8,2,5,80,127,3690008044
41,15,7,Jits_ISO_8,3,5,63,98,3690077452
41,15,7,Jits_ISO_8,0,5,56,103,3690748128
41,15,7,Jits_ISO_8,1,5,80,127,3690778252
41,15,7,Jits_ISO_8,2,1,48,56,3690779216
41,15,7,Jits_ISO_8,3,5,63,98,3690807796
41,15,7,Jits_ISO_8,0,1,48,57,3691541592
41,15,7,Jits_ISO_8,1,1,38,18,3691550940
41,15,7,Jits_ISO_8,2,5,56,103,3691588004
41,15,7,Jits_ISO_8,3,5,80,127,3691608392
41,15,7,Jits_ISO_8,4,5,63,98,3691667764
41,15,7,Jits_ISO_8,0,1,48,68,3692316404
41,15,7,Jits_ISO_8,1,5,80,127,3692467484
41,15,7,Jits_ISO_8,2,5,56,103,3692477680
41,15,7,Jits_ISO_8,3,5,63,98,3692488176
41,15,7,Jits_ISO_8,0,1,48,73,3693146036
41,15,7,Jits_ISO_8,1,1,48,55,3693170656
41,15,7,Jits_ISO_8,2,5,56,103,3693228528
41,15,7,Jits_ISO_8,3,5,80,127,3693268308
41,15,7,Jits_ISO_8,4,5,63,98,3693298204
41,15,7,Jits_ISO_8,0,5,56,103,3693997332
41,15,7,Jits_ISO_8,1,5,63,98,3694028128
41,15,7,Jits_ISO_8,2,1,48,78,3694035880
41,15,7,Jits_ISO_8,3,5,80,127,3694068208
41,15,7,Jits_ISO_8,4,1,48,49,3694072804
41,15,7,Jits_ISO_8,0,5,80,127,3694747976
41,15,7,Jits_ISO_8,1,5,63,98,3694798180
41,15,7,Jits_ISO_8,2,5,56,103,3694817592
41,15,7,Jits_ISO_8,3,1,48,81,3694863856
41,15,7,Jits_ISO_8,4,1,48,56,3694892676
41,15,7,Jits_ISO_8,0,5,56,103,3695577516
41,15,7,Jits_ISO_8,1,1,48,88,3695631576
41,15,7,Jits_ISO_8,2,5,80,127,3695648016
41,15,7,Jits_ISO_8,3,1,48,58,3695662652
41,15,7,Jits_ISO_8,4,5,63,98,3695707436
41,15,7,Jits_ISO_8,0,5,80,127,3696378212
41,15,7,Jits_ISO_8,1,1,48,84,3696425376
41,15,7,Jits_ISO_8,2,1,48,51,3696457088
41,15,7,Jits_ISO_8,3,5,63,98,3696468196
41,15,7,Jits_ISO_8,4,1,48,40,3696486456
41,15,7,Jits_ISO_8,5,5,56,103,3696488032
41,15,7,Jits_ISO_8,0,5,63,98,3697197348
41,15,7,Jits_ISO_8,1,1,48,86,3697208208
41,15,7,Jits_ISO_8,2,5,56,103,3697217900
41,15,7,Jits_ISO_8,3,1,48,57,3697242048
41,15,7,Jits_ISO_8,4,5,80,127,3697257964
41,15,7,Jits_ISO_8,5,1,48,44,3697273720
41,15,7,Jits_ISO_8,0,5,80,127,3697958396
41,15,7,Jits_ISO_8,1,5,63,98,3697977760
41,15,7,Jits_ISO_8,2,1,48,86,3697996996
41,15,7,Jits_ISO_8,3,1,48,58,3698030376
41,15,7,Jits_ISO_8,4,1,48,46,3698058856
41,15,7,Jits_ISO_8,5,5,56,103,3698060044
41,15,7,Jits_ISO_8,0,5,63,98,3698748032
41,15,7,Jits_ISO_8,1,1,48,88,3698750116
41,15,7,Jits_ISO_8,2,1,48,59,3698787996
41,15,7,Jits_ISO_8,3,1,48,47,3698812240
41,15,7,Jits_ISO_8,4,5,56,103,3698858344
41,15,7,Jits_ISO_8,5,5,80,127,3698861412
41,15,7,Jits_ISO_8,0,1,48,81,3699549276
41,15,7,Jits_ISO_8,1,5,63,98,3699567884
41,15,7,Jits_ISO_8,2,5,56,103,3699578072
41,15,7,Jits_ISO_8,3,1,48,56,3699580020
41,15,7,Jits_ISO_8,4,5,80,127,3699583216
41,15,7,Jits_ISO_8,0,5,56,103,3700348172
41,15,7,Jits_ISO_8,1,1,48,82,3700367632
41,15,7,Jits_ISO_8,2,1,48,58,3700395632
41,15,7,Jits_ISO_8,3,5,80,127,3700468024
41,15,7,Jits_ISO_8,4,5,63,98,3700508020
41,15,7,Jits_ISO_8,0,5,56,103,3701167452
41,15,7,Jits_ISO_8,1,1,48,82,3701195732
41,15,7,Jits_ISO_8,2,1,48,59,3701225624
41,15,7,Jits_ISO_8,3,5,80,127,3701248344
41,15,7,Jits_ISO_8,4,5,63,98,3701267976
41,15,7,Jits_ISO_8,0,5,56,103,3701968296
41,15,7,Jits_ISO_8,1,1,48,73,3702072504
41,15,7,Jits_ISO_8,2,5,63,98,3702077780
41,15,7,Jits_ISO_8,3,5,80,127,3702081068
41,15,7,Jits_ISO_8,4,1,48,53,3702103576
41,15,7,Jits_ISO_8,0,5,56,103,3702797828
41,15,7,Jits_ISO_8,1,5,80,127,3702828328
41,15,7,Jits_ISO_8,2,5,63,98,3702847840
41,15,7,Jits_ISO_8,3,1,48,78,3702855072
41,15,7,Jits_ISO_8,4,1,48,55,3702885312
41,15,7,Jits_ISO_8,0,5,63,98,3703577992
41,15,7,Jits_ISO_8,1,5,56,103,3703588264
41,15,7,Jits_ISO_8,2,5,80,127,3703597564
41,15,7,Jits_ISO_8,3,1,48,69,3703604216
41,15,7,Jits_ISO_8,4,1,48,50,3703630052
41,15,7,Jits_ISO_8,0,1,48,78,3704367952
41,15,7,Jits_ISO_8,1,5,80,127,3704369544
41,15,7,Jits_ISO_8,2,1,48,59,3704393396
41,15,7,Jits_ISO_8,3,5,56,103,3704417856
41,15,7,Jits_ISO_8,4,5,63,98,3704457720
41,15,7,Jits_ISO_8,0,1,48,82,3705147128
41,15,7,Jits_ISO_8,1,1,48,56,3705181788
41,15,7,Jits_ISO_8,2,5,80,127,3705187588
41,15,7,Jits_ISO_8,3,5,63,98,3705208124
41,15,7,Jits_ISO_8,4,5,56,103,3705258476
41,15,7,Jits_ISO_8,0,1,48,84,3705968936
41,15,7,Jits_ISO_8,1,1,48,62,3705998616
41,15,7,Jits_ISO_8,2,5,80,127,3705999952
41,15,7,Jits_ISO_8,3,5,56,103,3706028660
41,15,7,Jits_ISO_8,4,5,63,98,3706097952
41,15,7,Jits_ISO_8,0,1,48,73,3706765340
41,15,7,Jits_ISO_8,1,1,48,55,3706794316
41,15,7,Jits_ISO_8,2,5,56,103,3706847772
41,15,7,Jits_ISO_8,3,5,80,127,3706858040
41,15,7,Jits_ISO_8,4,5,63,98,3706897740
41,15,7,Jits_ISO_8,0,5,56,103,3707558204
41,15,7,Jits_ISO_8,1,5,63,98,3707577764
41,15,7,Jits_ISO_8,2,1,48,69,3707622380
41,15,7,Jits_ISO_8,3,5,80,127,3707648784
41,15,7,Jits_ISO_8,4,1,48,48,3707652036
41,15,7,Jits_ISO_8,0,1,48,69,3708321324
41,15,7,Jits_ISO_8,1,1,48,48,3708350296
41,15,7,Jits_ISO_8,2,5,63,98,3708377524
41,15,7,Jits_ISO_8,3,5,80,127,3708437844
41,15,7,Jits_ISO_8,4,5,56,103,3708458288
41,15,7,Jits_ISO_8,0,1,48,62,3709126504
41,15,7,Jits_ISO_8,1,1,48,48,3709158852
41,15,7,Jits_ISO_8,2,5,80,127,3709167940
41,15,7,Jits_ISO_8,3,5,56,103,3709197692
41,15,7,Jits_ISO_8,4,5,63,98,3709228636
41,15,7,Jits_ISO_8,0,1,48,68,3709941636
41,15,7,Jits_ISO_8,1,5,56,103,3709967816
41,15,7,Jits_ISO_8,2,1,48,51,3709971144
41,15,7,Jits_ISO_8,3,5,63,98,3710028140
41,15,7,Jits_ISO_8,4,5,80,127,3710087840
41,15,7,Jits_ISO_8,0,1,48,68,3710752660
41,15,7,Jits_ISO_8,1,1,48,51,3710781588
41,15,7,Jits_ISO_8,2,5,80,127,3710787912
41,15,7,Jits_ISO_8,3,5,56,103,3710808596
41,15,7,Jits_ISO_8,4,5,63,98,3710878052
41,15,7,Jits_ISO_8,0,1,48,68,3711568880
41,15,7,Jits_ISO_8,1,5,80,127,3711587792
41,15,7,Jits_ISO_8,2,1,48,52,3711599064
41,15,7,Jits_ISO_8,3,5,63,98,3711608080
41,15,7,Jits_ISO_8,4,5,56,103,3711637832
41,15,7,Jits_ISO_8,0,1,48,56,3712345744
41,15,7,Jits_ISO_8,1,1,48,42,3712374856
41,15,7,Jits_ISO_8,2,5,80,127,3712378408
41,15,7,Jits_ISO_8,3,5,63,98,3712397748
41,15,7,Jits_ISO_8,4,5,56,103,3712458064
41,15,7,Jits_ISO_8,0,1,48,66,3713173536
41,15,7,Jits_ISO_8,1,5,80,127,3713177912
41,15,7,Jits_ISO_8,2,1,48,46,3713203344
41,15,7,Jits_ISO_8,3,5,56,103,3713278664
41,15,7,Jits_ISO_8,4,5,63,98,3713307956
41,15,7,Jits_ISO_8,0,1,48,71,3713962164
41,15,7,Jits_ISO_8,1,5,63,98,3713967516
41,15,7,Jits_ISO_8,2,1,48,49,3713995480
41,15,7,Jits_ISO_8,3,5,80,127,3714017920
41,15,7,Jits_ISO_8,4,5,56,103,3714038080
41,15,7,Jits_ISO_8,0,1,48,58,3714796572
41,15,7,Jits_ISO_8,1,5,80,127,3714808276
41,15,7,Jits_ISO_8,2,1,48,46,3714824412
41,15,7,Jits_ISO_8,3,5,56,103,3714837776
41,15,7,Jits_ISO_8,4,5,63,98,3714841068
41,15,7,Jits_ISO_8,0,1,48,67,3715614984
41,15,7,Jits_ISO_8,1,5,63,98,3715637672
41,15,7,Jits_ISO_8,2,1,48,55,3715647676
41,15,7,Jits_ISO_8,3,5,56,103,3715677440
41,15,7,Jits_ISO_8,4,5,80,127,3715698048
41,15,7,Jits_ISO_8,0,5,80,127,3716378180
41,15,7,Jits_ISO_8,1,1,48,85,3716436400
41,15,7,Jits_ISO_8,2,5,63,98,3716457920
41,15,7,Jits_ISO_8,3,1,48,51,3716474872
41,15,7,Jits_ISO_8,4,5,56,103,3716497912
41,15,7,Jits_ISO_8,0,5,63,98,3717198236
41,15,7,Jits_ISO_8,1,1,48,73,3717267592
41,15,7,Jits_ISO_8,2,5,80,127,3717278252
41,15,7,Jits_ISO_8,3,5,56,103,3717297516
41,15,7,Jits_ISO_8,4,1,48,50,3717302932
41,15,7,Jits_ISO_8,0,5,56,103,3718037808
41,15,7,Jits_ISO_8,1,5,63,98,3718048376
41,15,7,Jits_ISO_8,2,1,48,76,3718064972
41,15,7,Jits_ISO_8,3,1,38,18,3718074772
41,15,7,Jits_ISO_8,4,5,80,127,3718088288
41,15,7,Jits_ISO_8,5,1,48,54,3718095432
41,15,7,Jits_ISO_8,0,5,56,103,3718757716
41,15,7,Jits_ISO_8,1,5,80,127,3718760708
41,15,7,Jits_ISO_8,2,1,48,77,3718876136
41,15,7,Jits_ISO_8,3,5,63,98,3718898040
41,15,7,Jits_ISO_8,4,1,48,55,3718910504
41,15,7,Jits_ISO_8,0,5,56,103,3719548140
41,15,7,Jits_ISO_8,1,5,63,98,3719638352
41,15,7,Jits_ISO_8,2,1,48,83,3719673984
41,15,7,Jits_ISO_8,3,1,48,56,3719705344
41,15,7,Jits_ISO_8,4,5,80,127,3719708152
41,15,7,Jits_ISO_8,5,1,48,43,3719734428
41,15,7,Jits_ISO_8,0,5,63,98,3720427816
41,15,7,Jits_ISO_8,1,1,48,88,3720429396
41,15,7,Jits_ISO_8,2,5,80,127,3720432592
41,15,7,Jits_ISO_8,3,1,48,57,3720460508
41,15,7,Jits_ISO_8,4,1,48,46,3720486720
41,15,7,Jits_ISO_8,5,5,56,103,3720488156
41,15,7,Jits_ISO_8,0,1,48,81,3721195260
41,15,7,Jits_ISO_8,1,1,48,59,3721220276
41,15,7,Jits_ISO_8,2,5,80,127,3721267604
41,15,7,Jits_ISO_8,3,5,56,103,3721288068
41,15,7,Jits_ISO_8,4,5,63,98,3721298336
41,15,7,Jits_ISO_8,0,5,56,103,3721978092
41,15,7,Jits_ISO_8,1,5,63,98,3721987468
41,15,7,Jits_ISO_8,2,1,48,78,3721997632
41,15,7,Jits_ISO_8,3,1,48,47,3722037188
41,15,7,Jits_ISO_8,4,5,80,127,3722058188
41,15,7,Jits_ISO_8,0,1,48,82,3722742112
41,15,7,Jits_ISO_8,1,1,48,55,3722772280
41,15,7,Jits_ISO_8,2,5,80,127,3722778160
41,15,7,Jits_ISO_8,3,5,56,103,3722828240
41,15,7,Jits_ISO_8,4,5,63,98,3722878424
41,15,7,Jits_ISO_8,0,1,48,69,3723536208
41,15,7,Jits_ISO_8,1,1,48,54,3723560984
41,15,7,Jits_ISO_8,2,5,56,103,3723658796
41,15,7,Jits_ISO_8,3,5,63,98,3723668096
41,15,7,Jits_ISO_8,4,5,80,127,3723708256
41,15,7,Jits_ISO_8,0,1,48,81,3724369068
41,15,7,Jits_ISO_8,1,1,48,53,3724395252
41,15,7,Jits_ISO_8,2,5,56,103,3724398288
41,15,7,Jits_ISO_8,3,5,63,98,3724438080
41,15,7,Jits_ISO_8,4,5,80,127,3724488132
41,15,7,Jits_ISO_8,0,5,80,127,3725157720
41,15,7,Jits_ISO_8,1,1,48,77,3725204284
41,15,7,Jits_ISO_8,2,5,56,103,3725208064
41,15,7,Jits_ISO_8,3,1,38,18,3725215148
41,15,7,Jits_ISO_8,4,1,48,55,3725228576
41,15,7,Jits_ISO_8,5,5,63,98,3725230144
41,15,7,Jits_ISO_8,0,5,80,127,3725968068
41,15,7,Jits_ISO_8,1,1,48,80,3725987228
41,15,7,Jits_ISO_8,2,1,48,54,3726015064
41,15,7,Jits_ISO_8,3,5,63,98,3726028208
41,15,7,Jits_ISO_8,4,5,56,103,3726108004
41,15,7,Jits_ISO_8,0,5,80,127,3726748012
41,15,7,Jits_ISO_8,1,5,56,103,3726787952
41,15,7,Jits_ISO_8,2,1,48,76,3726804548
41,15,7,Jits_ISO_8,3,5,63,98,3726808404
41,15,7,Jits_ISO_8,4,1,48,55,3726835024
41,15,7,Jits_ISO_8,5,1,48,45,3726858908
41,15,7,Jits_ISO_8,0,1,48,67,3727560284
41,15,7,Jits_ISO_8,1,1,48,52,3727586116
41,15,7,Jits_ISO_8,2,5,56,103,3727597904
41,15,7,Jits_ISO_8,3,5,80,127,3727608172
41,15,7,Jits_ISO_8,4,5,63,98,3727648040
41,15,7,Jits_ISO_8,0,1,48,66,3728368312
41,15,7,Jits_ISO_8,1,1,48,52,3728398416
41,15,7,Jits_ISO_8,2,5,56,103,3728468216
41,15,7,Jits_ISO_8,3,5,63,98,3728508360
41,15,7,Jits_ISO_8,4,5,80,127,3728511724
41,15,7,Jits_ISO_8,0,5,63,98,3729157340
41,15,7,Jits_ISO_8,1,5,80,127,3729197428
41,15,7,Jits_ISO_8,2,1,48,76,3729260476
41,15,7,Jits_ISO_8,3,5,56,103,3729268076
41,15,7,Jits_ISO_8,4,1,48,53,3729285796
41,15,7,Jits_ISO_8,0,5,63,98,3729947880
41,15,7,Jits_ISO_8,1,5,56,103,3730028076
41,15,7,Jits_ISO_8,2,5,80,127,3730088240
41,15,7,Jits_ISO_8,3,1,48,91,3730099824
41,15,7,Jits_ISO_8,4,1,48,62,3730128128
41,15,7,Jits_ISO_8,0,5,80,127,3730757876
41,15,7,Jits_ISO_8,1,5,63,98,3730808300
41,15,7,Jits_ISO_8,2,5,56,103,3730837904
41,15,7,Jits_ISO_8,3,1,48,81,3730863268
41,15,7,Jits_ISO_8,4,1,48,52,3730898312
41,15,7,Jits_ISO_8,0,5,56,103,3731547852
41,15,7,Jits_ISO_8,1,5,63,98,3731597904
41,15,7,Jits_ISO_8,2,5,80,127,3731608028
41,15,7,Jits_ISO_8,3,1,48,78,3731615556
41,15,7,Jits_ISO_8,4,1,48,60,3731646492
41,15,7,Jits_ISO_8,0,5,56,103,3732357460
41,15,7,Jits_ISO_8,1,1,48,69,3732366656
41,15,7,Jits_ISO_8,2,1,48,58,3732393960
41,15,7,Jits_ISO_8,3,5,63,98,3732467948
41,15,7,Jits_ISO_8,4,5,80,127,3732488160
41,15,7,Jits_ISO_8,0,5,63,98,3733158308
41,15,7,Jits_ISO_8,1,1,48,90,3733178212
41,15,7,Jits_ISO_8,2,5,80,127,3733208652
41,15,7,Jits_ISO_8,3,5,56,103,3733297676
41,15,7,Jits_ISO_8,0,5,63,98,3733947756
41,15,7,Jits_ISO_8,1,5,80,127,3733977580
41,15,7,Jits_ISO_8,2,1,48,73,3733985876
41,15,7,Jits_ISO_8,3,1,38,18,3733995672
41,15,7,Jits_ISO_8,4,1,48,53,3734009500
41,15,7,Jits_ISO_8,5,5,56,103,3734067836
41,15,7,Jits_ISO_8,0,5,63,98,3734747660
41,15,7,Jits_ISO_8,1,5,56,103,3734757932
41,15,7,Jits_ISO_8,2,1,48,87,3734785412
41,15,7,Jits_ISO_8,3,1,48,59,3734814368
41,15,7,Jits_ISO_8,4,5,80,127,3734858104
41,15,7,Jits_ISO_8,0,1,48,72,3735550108
41,15,7,Jits_ISO_8,1,1,48,54,3735583120
41,15,7,Jits_ISO_8,2,5,63,98,3735647908
41,15,7,Jits_ISO_8,3,5,80,127,3735678244
41,15,7,Jits_ISO_8,4,5,56,103,3735708068
41,15,7,Jits_ISO_8,0,1,48,63,3736440060
41,15,7,Jits_ISO_8,1,5,80,127,3736467808
41,15,7,Jits_ISO_8,2,5,63,98,3736478152
41,15,7,Jits_ISO_8,3,1,48,38,3736484844
41,15,7,Jits_ISO_8,4,5,56,103,3736507660
41,15,7,Jits_ISO_8,0,5,80,127,3737168328
41,15,7,Jits_ISO_8,1,5,63,98,3737187596
41,15,7,Jits_ISO_8,2,5,56,103,3737237944
41,15,7,Jits_ISO_8,3,1,48,71,3737266988
41,15,7,Jits_ISO_8,4,1,48,47,3737311384
41,15,7,Jits_ISO_8,0,5,63,98,3737997572
41,15,7,Jits_ISO_8,1,1,48,67,3738022784
41,15,7,Jits_ISO_8,2,5,80,127,3738057956
41,15,7,Jits_ISO_8,3,1,48,45,3738071916
41,15,7,Jits_ISO_8,4,5,56,103,3738077496
41,15,7,Jits_ISO_8,0,5,63,98,3738757572
41,15,7,Jits_ISO_8,1,5,56,103,3738807776
41,15,7,Jits_ISO_8,2,1,48,85,3738810596
41,15,7,Jits_ISO_8,3,5,80,127,3738817888
41,15,7,Jits_ISO_8,4,1,48,59,3738860920
41,15,7,Jits_ISO_8,5,1,48,40,3738901200
41,15,7,Jits_ISO_8,0,5,56,103,3739587996
41,15,7,Jits_ISO_8,1,1,48,80,3739590516
41,15,7,Jits_ISO_8,2,5,80,127,3739598188
41,15,7,Jits_ISO_8,3,1,48,50,3739644880
41,15,7,Jits_ISO_8,4,5,63,98,3739697612
41,15,7,Jits_ISO_8,0,5,80,127,3740347712
41,15,7,Jits_ISO_8,1,5,63,98,3740357908
41,15,7,Jits_ISO_8,2,1,48,81,3740365212
41,15,7,Jits_ISO_8,3,1,48,49,3740411720
41,15,7,Jits_ISO_8,4,5,56,103,3740507432
41,15,7,Jits_ISO_8,0,5,63,98,3741157620
41,15,7,Jits_ISO_8,1,1,48,83,3741172872
41,15,7,Jits_ISO_8,2,5,80,127,3741197628
41,15,7,Jits_ISO_8,3,1,48,56,3741210848
41,15,7,Jits_ISO_8,4,1,48,40,3741242460
41,15,7,Jits_ISO_8,5,5,56,103,3741277480
41,15,7,Jits_ISO_8,0,5,56,103,3741948264
41,15,7,Jits_ISO_8,1,1,48,88,3741949228
41,15,7,Jits_ISO_8,2,1,38,20,3741959396
41,15,7,Jits_ISO_8,3,1,48,54,3741981024
41,15,7,Jits_ISO_8,4,5,80,127,3742047532
41,15,7,Jits_ISO_8,5,5,63,98,3742068200
41,15,7,Jits_ISO_8,0,1,48,81,3742802892
41,15,7,Jits_ISO_8,1,5,80,127,3742808400
41,15,7,Jits_ISO_8,2,1,38,19,3742813084
41,15,7,Jits_ISO_8,3,5,56,103,3742817692
41,15,7,Jits_ISO_8,4,1,48,59,3742838856
41,15,7,Jits_ISO_8,5,1,48,43,3742866104
41,15,7,Jits_ISO_8,6,5,63,98,3742907704
41,15,7,Jits_ISO_8,0,5,56,103,3743608276
41,15,7,Jits_ISO_8,1,5,63,98,3743627688
41,15,7,Jits_ISO_8,2,1,48,85,3743650656
41,15,7,Jits_ISO_8,3,1,48,52,3743682100
41,15,7,Jits_ISO_8,4,5,80,127,3743707528
41,15,7,Jits_ISO_8,0,5,63,98,3744357656
41,15,7,Jits_ISO_8,1,1,48,83,3744424600
41,15,7,Jits_ISO_8,2,5,56,103,3744447784
41,15,7,Jits_ISO_8,3,5,80,127,3744450776
41,15,7,Jits_ISO_8,4,1,48,61,3744462568
41,15,7,Jits_ISO_8,0,1,48,81,3745164428
41,15,7,Jits_ISO_8,1,5,56,103,3745188360
41,15,7,Jits_ISO_8,2,1,48,46,3745200756
41,15,7,Jits_ISO_8,3,5,80,127,3745247536
41,15,7,Jits_ISO_8,4,5,63,98,3745257808
41,15,7,Jits_ISO_8,0,1,48,74,3746000852
41,15,7,Jits_ISO_8,1,1,48,50,3746036592
41,15,7,Jits_ISO_8,2,5,80,127,3746038100
41,15,7,Jits_ISO_8,3,5,56,103,3746048296
41,15,7,Jits_ISO_8,4,5,63,98,3746051436
41,15,7,Jits_ISO_8,0,5,56,103,3746797824
41,15,7,Jits_ISO_8,1,5,80,127,3746808540
41,15,7,Jits_ISO_8,2,1,48,74,3746821552
41,15,7,Jits_ISO_8,3,5,63,98,3746827576
41,15,7,Jits_ISO_8,4,1,48,55,3746854640
41,15,7,Jits_ISO_8,0,5,63,98,3747568024
41,15,7,Jits_ISO_8,1,1,48,70,3747573160
41,15,7,Jits_ISO_8,2,1,48,48,3747598844
41,15,7,Jits_ISO_8,3,5,80,127,3747628536
41,15,7,Jits_ISO_8,4,5,56,103,3747677616
41,15,7,Jits_ISO_8,0,1,48,92,3748403880
41,15,7,Jits_ISO_8,1,1,48,61,3748430164
41,15,7,Jits_ISO_8,2,5,63,98,3748447576
41,15,7,Jits_ISO_8,3,5,56,103,3748457696
41,15,7,Jits_ISO_8,4,5,80,127,3748507972
41,15,7,Jits_ISO_8,0,5,63,98,3749148092
41,15,7,Jits_ISO_8,1,5,80,127,3749167456
41,15,7,Jits_ISO_8,2,5,56,103,3749177728
41,15,7,Jits_ISO_8,3,1,48,81,3749239724
41,15,7,Jits_ISO_8,4,1,48,52,3749265240
41,15,7,Jits_ISO_8,0,5,63,98,3749947740
41,15,7,Jits_ISO_8,1,5,80,127,3749951252
41,15,7,Jits_ISO_8,2,5,56,103,3749987680
41,15,7,Jits_ISO_8,3,1,48,86,3749998892
41,15,7,Jits_ISO_8,4,1,48,61,3750024028
41,15,7,Jits_ISO_8,0,1,48,66,3750773460
41,15,7,Jits_ISO_8,1,5,63,98,3750818152
41,15,7,Jits_ISO_8,2,5,80,127,3750847756
41,15,7,Jits_ISO_8,3,5,56,103,3750858252
41,15,7,Jits_ISO_8,0,5,56,103,3751567824
41,15,7,Jits_ISO_8,1,5,80,127,3751597352
41,15,7,Jits_ISO_8,2,1,48,84,3751616136
41,15,7,Jits_ISO_8,3,5,63,98,3751628144
41,15,7,Jits_ISO_8,4,1,48,60,3751642704
41,15,7,Jits_ISO_8,0,1,48,73,3752427452
41,15,7,Jits_ISO_8,1,1,48,51,3752455220
41,15,7,Jits_ISO_8,2,5,63,98,3752467916
41,15,7,Jits_ISO_8,3,5,56,103,3752507876
41,15,7,Jits_ISO_8,4,5,80,127,3752510796
41,15,7,Jits_ISO_8,0,5,80,127,3753168228
41,15,7,Jits_ISO_8,1,5,56,103,3753248028
41,15,7,Jits_ISO_8,2,1,48,78,3753281812
41,15,7,Jits_ISO_8,3,5,63,98,3753298248
41,15,7,Jits_ISO_8,4,1,48,56,3753304196
41,15,7,Jits_ISO_8,0,5,80,127,3753947648
41,15,7,Jits_ISO_8,1,5,56,103,3753968108
41,15,7,Jits_ISO_8,2,1,48,69,3754053576
41,15,7,Jits_ISO_8,3,5,63,98,3754058184
41,15,7,Jits_ISO_8,0,5,80,127,3754788352
41,15,7,Jits_ISO_8,1,5,63,98,3754828168
41,15,7,Jits_ISO_8,2,1,48,81,3754837140
41,15,7,Jits_ISO_8,3,1,48,57,3754867788
41,15,7,Jits_ISO_8,4,5,56,103,3754869348
41,15,7,Jits_ISO_8,0,5,63,98,3755558108
41,15,7,Jits_ISO_8,1,5,80,127,3755618076
41,15,7,Jits_ISO_8,2,1,48,71,3755632132
41,15,7,Jits_ISO_8,3,5,56,103,3755648344
41,15,7,Jits_ISO_8,4,1,48,52,3755664700
41,15,7,Jits_ISO_8,0,5,56,103,3756358064
41,15,7,Jits_ISO_8,1,5,80,127,3756387592
41,15,7,Jits_ISO_8,2,1,48,60,3756402316
41,15,7,Jits_ISO_8,3,1,48,46,3756435480
41,15,7,Jits_ISO_8,4,5,63,98,3756477916
41,15,7,Jits_ISO_8,0,5,56,103,3757168124
41,15,7,Jits_ISO_8,1,1,48,70,3757179040
41,15,7,Jits_ISO_8,2,1,48,51,3757205300
41,15,7,Jits_ISO_8,3,5,80,127,3757277636
41,15,7,Jits_ISO_8,4,5,63,98,3757308196
41,15,7,Jits_ISO_8,0,5,56,103,3758018048
41,15,7,Jits_ISO_8,1,1,48,82,3758045972
41,15,7,Jits_ISO_8,2,1,48,58,3758075528
41,15,7,Jits_ISO_8,3,5,63,98,3758078192
41,15,7,Jits_ISO_8,4,5,80,127,3758108016
41,15,7,Jits_ISO_8,0,5,56,103,3758788036
41,15,7,Jits_ISO_8,1,5,63,98,3758857572
41,15,7,Jits_ISO_8,2,5,80,127,3758878032
41,15,7,Jits_ISO_8,3,1,48,85,3758892004
41,15,7,Jits_ISO_8,4,1,48,60,3758919884
41,15,7,Jits_ISO_8,0,5,80,127,3759557868
41,15,7,Jits_ISO_8,1,5,63,98,3759577508
41,15,7,Jits_ISO_8,2,5,56,103,3759627560
41,15,7,Jits_ISO_8,3,1,48,65,3759675660
41,15,7,Jits_ISO_8,4,1,48,48,3759700796
41,15,7,Jits_ISO_8,0,9999,9999,9999,3664825404
41,15,7,Jits_ISO_8,1,9999,9999,9999,3665625212
41,15,7,Jits_ISO_8,2,9999,9999,9999,3666425916
41,15,7,Jits_ISO_8,3,9999,9999,9999,3667225696
41,15,7,Jits_ISO_8,4,9999,9999,9999,3668025440
41,15,7,Jits_ISO_8,5,9999,9999,9999,3668825176
41,15,7,Jits_ISO_8,6,9999,9999,9999,3669625932
41,15,7,Jits_ISO_8,7,9999,9999,9999,3670425680
41,15,7,Jits_ISO_8,8,9999,9999,9999,3671225444
41,15,7,Jits_ISO_8,9,9999,9999,9999,3672025144
41,15,7,Jits_ISO_8,10,9999,9999,9999,3672825904
41,15,7,Jits_ISO_8,11,9999,9999,9999,3673625692
41,15,7,Jits_ISO_8,12,9999,9999,9999,3674425400
41,15,7,Jits_ISO_8,13,9999,9999,9999,3675225140
41,15,7,Jits_ISO_8,14,9999,9999,9999,3676025964
41,15,7,Jits_ISO_8,15,9999,9999,9999,3676825680
41,15,7,Jits_ISO_8,16,9999,9999,9999,3677625448
41,15,7,Jits_ISO_8,17,9999,9999,9999,3678425180
41,15,7,Jits_ISO_8,18,9999,9999,9999,3679225944
41,15,7,Jits_ISO_8,19,9999,9999,9999,3680025696
41,15,7,Jits_ISO_8,20,9999,9999,9999,3680825408
41,15,7,Jits_ISO_8,21,9999,9999,9999,3681625208
41,15,7,Jits_ISO_8,22,9999,9999,9999,3682425956
41,15,7,Jits_ISO_8,23,9999,9999,9999,3683225664
41,15,7,Jits_ISO_8,24,9999,9999,9999,3684025400
41,15,7,Jits_ISO_8,25,9999,9999,9999,3684825204
41,15,7,Jits_ISO_8,26,9999,9999,9999,3685625976
41,15,7,Jits_ISO_8,27,9999,9999,9999,3686425688
41,15,7,Jits_ISO_8,28,9999,9999,9999,3687225424
41,15,7,Jits_ISO_8,29,9999,9999,9999,3688025136
41,15,7,Jits_ISO_8,30,9999,9999,9999,3688825964
41,15,7,Jits_ISO_8,31,9999,9999,9999,3689625672
41,15,7,Jits_ISO_8,32,9999,9999,9999,3690425396
41,15,7,Jits_ISO_8,33,9999,9999,9999,3691225188
41,15,7,Jits_ISO_8,34,9999,9999,9999,3692025912
41,15,7,Jits_ISO_8,35,9999,9999,9999,3692825724
41,15,7,Jits_ISO_8,36,9999,9999,9999,3693625440
41,15,7,Jits_ISO_8,37,9999,9999,9999,3694425148
41,15,7,Jits_ISO_8,38,9999,9999,9999,3695225912
41,15,7,Jits_ISO_8,39,9999,9999,9999,3696025712
41,15,7,Jits_ISO_8,40,9999,9999,9999,3696825420
41,15,7,Jits_ISO_8,41,9999,9999,9999,3697625144
41,15,7,Jits_ISO_8,42,9999,9999,9999,3698425976
41,15,7,Jits_ISO_8,43,9999,9999,9999,3699225692
41,15,7,Jits_ISO_8,44,9999,9999,9999,3700025436
41,15,7,Jits_ISO_8,45,9999,9999,9999,3700825144
41,15,7,Jits_ISO_8,46,9999,9999,9999,3701625912
41,15,7,Jits_ISO_8,47,9999,9999,9999,3702425700
41,15,7,Jits_ISO_8,48,9999,9999,9999,3703225424
41,15,7,Jits_ISO_8,49,9999,9999,9999,3704025140
41,15,7,Jits_ISO_8,50,9999,9999,9999,3704825964
41,15,7,Jits_ISO_8,51,9999,9999,9999,3705625676
41,15,7,Jits_ISO_8,52,9999,9999,9999,3706425412
41,15,7,Jits_ISO_8,53,9999,9999,9999,3707225200
41,15,7,Jits_ISO_8,54,9999,9999,9999,3708025952
41,15,7,Jits_ISO_8,55,9999,9999,9999,3708825676
41,15,7,Jits_ISO_8,56,9999,9999,9999,3709625452
41,15,7,Jits_ISO_8,57,9999,9999,9999,3710425168
41,15,7,Jits_ISO_8,58,9999,9999,9999,3711225924
41,15,7,Jits_ISO_8,59,9999,9999,9999,3712025704
41,15,7,Jits_ISO_8,60,9999,9999,9999,3712825436
41,15,7,Jits_ISO_8,61,9999,9999,9999,3713625152
41,15,7,Jits_ISO_8,62,9999,9999,9999,3714425980
41,15,7,Jits_ISO_8,63,9999,9999,9999,3715225680
41,15,7,Jits_ISO_8,64,9999,9999,9999,3716025396
41,15,7,Jits_ISO_8,65,9999,9999,9999,3716825184
41,15,7,Jits_ISO_8,66,9999,9999,9999,3717625956
41,15,7,Jits_ISO_8,67,9999,9999,9999,3718425700
41,15,7,Jits_ISO_8,68,9999,9999,9999,3719225460
41,15,7,Jits_ISO_8,69,9999,9999,9999,3720025164
41,15,7,Jits_ISO_8,70,9999,9999,9999,3720825936
41,15,7,Jits_ISO_8,71,9999,9999,9999,3721625684
41,15,7,Jits_ISO_8,72,9999,9999,9999,3722425464
41,15,7,Jits_ISO_8,73,9999,9999,9999,3723225188
41,15,7,Jits_ISO_8,74,9999,9999,9999,3724025956
41,15,7,Jits_ISO_8,75,9999,9999,9999,3724825664
41,15,7,Jits_ISO_8,76,9999,9999,9999,3725625432
41,15,7,Jits_ISO_8,77,9999,9999,9999,3726425188
41,15,7,Jits_ISO_8,78,9999,9999,9999,3727225924
41,15,7,Jits_ISO_8,79,9999,9999,9999,3728025676
41,15,7,Jits_ISO_8,80,9999,9999,9999,3728825460
41,15,7,Jits_ISO_8,81,9999,9999,9999,3729625140
41,15,7,Jits_ISO_8,82,9999,9999,9999,3730425968
41,15,7,Jits_ISO_8,83,9999,9999,9999,3731225672
41,15,7,Jits_ISO_8,84,9999,9999,9999,3732025416
41,15,7,Jits_ISO_8,85,9999,9999,9999,3732825140
41,15,7,Jits_ISO_8,86,9999,9999,9999,3733625932
41,15,7,Jits_ISO_8,87,9999,9999,9999,3734425720
41,15,7,Jits_ISO_8,88,9999,9999,9999,3735225452
41,15,7,Jits_ISO_8,89,9999,9999,9999,3736025168
41,15,7,Jits_ISO_8,90,9999,9999,9999,3736825936
41,15,7,Jits_ISO_8,91,9999,9999,9999,3737625712
41,15,7,Jits_ISO_8,92,9999,9999,9999,3738425464
41,15,7,Jits_ISO_8,93,9999,9999,9999,3739225148
41,15,7,Jits_ISO_8,94,9999,9999,9999,3740025928
41,15,7,Jits_ISO_8,95,9999,9999,9999,3740825652
41,15,7,Jits_ISO_8,96,9999,9999,9999,3741625424
41,15,7,Jits_ISO_8,97,9999,9999,9999,3742425212
41,15,7,Jits_ISO_8,98,9999,9999,9999,3743225968
41,15,7,Jits_ISO_8,99,9999,9999,9999,3744025660
41,15,7,Jits_ISO_8,100,9999,9999,9999,3744825396
41,15,7,Jits_ISO_8,101,9999,9999,9999,3745625180
41,15,7,Jits_ISO_8,102,9999,9999,9999,3746425932
41,15,7,Jits_ISO_8,103,9999,9999,9999,3747225712
41,15,7,Jits_ISO_8,104,9999,9999,9999,3748025412
41,15,7,Jits_ISO_8,105,9999,9999,9999,3748825204
41,15,7,Jits_ISO_8,106,9999,9999,9999,3749625952
41,15,7,Jits_ISO_8,107,9999,9999,9999,3750425716
41,15,7,Jits_ISO_8,108,9999,9999,9999,3751225400
41,15,7,Jits_ISO_8,109,9999,9999,9999,3752025160
41,15,7,Jits_ISO_8,110,9999,9999,9999,3752825932
41,15,7,Jits_ISO_8,111,9999,9999,9999,3753625720
41,15,7,Jits_ISO_8,112,9999,9999,9999,3754425460
41,15,7,Jits_ISO_8,113,9999,9999,9999,3755225164
41,15,7,Jits_ISO_8,114,9999,9999,9999,3756025932
41,15,7,Jits_ISO_8,115,9999,9999,9999,3756825712
41,15,7,Jits_ISO_8,116,9999,9999,9999,3757625468
41,15,7,Jits_ISO_8,117,9999,9999,9999,3758425196
41,15,7,Jits_ISO_8,118,9999,9999,9999,3759225968
41,15,7,Jits_ISO_8,119,9999,9999,9999,3760025692
41,16,17,Jits_Phase_5,0,5,56,103,3769806172
41,16,17,Jits_Phase_5,1,5,63,98,3769809568
41,16,17,Jits_Phase_5,2,5,80,127,3769812688
41,16,17,Jits_Phase_5,0,5,56,103,3770305800
41,16,17,Jits_Phase_5,1,5,63,98,3770309052
41,16,17,Jits_Phase_5,2,5,80,127,3770312324
41,16,17,Jits_Phase_5,3,1,48,61,3770433844
41,16,17,Jits_Phase_5,4,1,48,46,3770463636
41,16,17,Jits_Phase_5,0,5,56,103,3770805732
41,16,17,Jits_Phase_5,1,5,80,127,3770815928
41,16,17,Jits_Phase_5,2,5,63,98,3770836536
41,16,17,Jits_Phase_5,3,1,48,78,3770845128
41,16,17,Jits_Phase_5,4,1,48,58,3770873188
41,16,17,Jits_Phase_5,0,5,63,98,3771256604
41,16,17,Jits_Phase_5,1,5,80,127,3771285980
41,16,17,Jits_Phase_5,2,5,56,103,3771296104
41,16,17,Jits_Phase_5,3,1,48,90,3771341916
41,16,17,Jits_Phase_5,4,1,38,19,3771352232
41,16,17,Jits_Phase_5,5,1,48,60,3771369596
41,16,17,Jits_Phase_5,6,1,48,47,3771393256
41,16,17,Jits_Phase_5,0,5,80,127,3771816440
41,16,17,Jits_Phase_5,1,1,48,82,3771817924
41,16,17,Jits_Phase_5,2,5,56,103,3771825656
41,16,17,Jits_Phase_5,3,1,48,60,3771842084
41,16,17,Jits_Phase_5,4,5,63,98,3771856576
41,16,17,Jits_Phase_5,0,5,63,98,3772305752
41,16,17,Jits_Phase_5,1,5,56,103,3772335580
41,16,17,Jits_Phase_5,2,5,80,127,3772345700
41,16,17,Jits_Phase_5,3,1,48,83,3772356836
41,16,17,Jits_Phase_5,4,1,38,19,3772366700
41,16,17,Jits_Phase_5,0,5,56,103,3772756452
41,16,17,Jits_Phase_5,1,5,63,98,3772805604
41,16,17,Jits_Phase_5,2,5,80,127,3772825988
41,16,17,Jits_Phase_5,3,1,48,89,3772841388
41,16,17,Jits_Phase_5,4,1,38,19,3772851260
41,16,17,Jits_Phase_5,5,1,48,65,3772865252
41,16,17,Jits_Phase_5,0,5,80,127,3773256184
41,16,17,Jits_Phase_5,1,5,63,98,3773306312
41,16,17,Jits_Phase_5,2,1,48,74,3773321412
41,16,17,Jits_Phase_5,3,1,38,18,3773331352
41,16,17,Jits_Phase_5,4,1,48,53,3773344688
41,16,17,Jits_Phase_5,5,5,56,103,3773346052
41,16,17,Jits_Phase_5,0,5,56,103,3773755768
41,16,17,Jits_Phase_5,1,5,63,98,3773785444
41,16,17,Jits_Phase_5,2,1,48,77,3773843240
41,16,17,Jits_Phase_5,3,1,38,18,3773853184
41,16,17,Jits_Phase_5,4,5,80,127,3773856068
41,16,17,Jits_Phase_5,5,1,48,52,3773872428
41,16,17,Jits_Phase_5,0,5,56,103,3774255652
41,16,17,Jits_Phase_5,1,5,80,127,3774315820
41,16,17,Jits_Phase_5,2,1,48,77,3774322524
41,16,17,Jits_Phase_5,3,5,63,98,3774345636
41,16,17,Jits_Phase_5,4,1,48,53,3774348380
41,16,17,Jits_Phase_5,0,5,56,103,3774765416
41,16,17,Jits_Phase_5,1,5,63,98,3774775760
41,16,17,Jits_Phase_5,2,5,80,127,3774815548
41,16,17,Jits_Phase_5,3,1,48,81,3774820236
41,16,17,Jits_Phase_5,4,1,38,19,3774830180
41,16,17,Jits_Phase_5,5,1,48,50,3774849932
41,16,17,Jits_Phase_5,0,5,63,98,3775255980
41,16,17,Jits_Phase_5,1,1,48,75,3775327452
41,16,17,Jits_Phase_5,2,5,80,127,3775335940
41,16,17,Jits_Phase_5,3,1,38,19,3775337204
41,16,17,Jits_Phase_5,4,5,56,103,3775346132
41,16,17,Jits_Phase_5,5,1,48,51,3775355532
41,16,17,Jits_Phase_5,0,5,63,98,3775805936
41,16,17,Jits_Phase_5,1,1,48,74,3775841188
41,16,17,Jits_Phase_5,2,5,56,103,3775845864
41,16,17,Jits_Phase_5,3,5,80,127,3775848856
41,16,17,Jits_Phase_5,4,1,38,18,3775851528
41,16,17,Jits_Phase_5,5,1,48,50,3775877804
41,16,17,Jits_Phase_5,0,5,56,103,3776265556
41,16,17,Jits_Phase_5,1,5,63,98,3776275900
41,16,17,Jits_Phase_5,2,5,80,127,3776315712
41,16,17,Jits_Phase_5,3,1,48,83,3776345356
41,16,17,Jits_Phase_5,4,1,48,57,3776373784
41,16,17,Jits_Phase_5,0,5,56,103,3776756048
41,16,17,Jits_Phase_5,1,5,63,98,3776759036
41,16,17,Jits_Phase_5,2,5,80,127,3776775680
41,16,17,Jits_Phase_5,3,1,48,69,3776799696
41,16,17,Jits_Phase_5,4,1,48,50,3776829140
41,16,17,Jits_Phase_5,0,5,80,127,3777266312
41,16,17,Jits_Phase_5,1,5,56,103,3777276508
41,16,17,Jits_Phase_5,2,1,48,65,3777283684
41,16,17,Jits_Phase_5,3,1,38,17,3777293556
41,16,17,Jits_Phase_5,4,5,63,98,3777345964
41,16,17,Jits_Phase_5,0,5,63,98,3777755372
41,16,17,Jits_Phase_5,1,5,56,103,3777775904
41,16,17,Jits_Phase_5,2,1,48,86,3777790184
41,16,17,Jits_Phase_5,3,1,38,19,3777800124
41,16,17,Jits_Phase_5,4,1,48,50,3777825584
41,16,17,Jits_Phase_5,5,5,80,127,3777855896
41,16,17,Jits_Phase_5,0,5,56,103,3778265428
41,16,17,Jits_Phase_5,1,1,48,80,3778302772
41,16,17,Jits_Phase_5,2,5,80,127,3778306552
41,16,17,Jits_Phase_5,3,1,38,19,3778313108
41,16,17,Jits_Phase_5,4,5,63,98,3778315696
41,16,17,Jits_Phase_5,5,1,48,51,3778328312
41,16,17,Jits_Phase_5,0,5,80,127,3778756176
41,16,17,Jits_Phase_5,1,5,63,98,3778785776
41,16,17,Jits_Phase_5,2,1,48,71,3778820284
41,16,17,Jits_Phase_5,3,5,56,103,3778825708
41,16,17,Jits_Phase_5,4,1,48,38,3778858028
41,16,17,Jits_Phase_5,0,5,56,103,3779276272
41,16,17,Jits_Phase_5,1,5,63,98,3779305728
41,16,17,Jits_Phase_5,2,1,48,72,3779315140
41,16,17,Jits_Phase_5,3,5,80,127,3779356140
41,16,17,Jits_Phase_5,0,5,80,127,3779775892
41,16,17,Jits_Phase_5,1,1,48,75,3779813632
41,16,17,Jits_Phase_5,2,5,56,103,3779815824
41,16,17,Jits_Phase_5,3,1,38,18,3779823824
41,16,17,Jits_Phase_5,4,5,63,98,3779826384
41,16,17,Jits_Phase_5,5,1,48,55,3779837356
41,16,17,Jits_Phase_5,0,5,80,127,3780266348
41,16,17,Jits_Phase_5,1,5,63,98,3780306360
41,16,17,Jits_Phase_5,2,1,48,79,3780327088
41,16,17,Jits_Phase_5,3,1,38,18,3780336960
41,16,17,Jits_Phase_5,4,1,48,54,3780350264
41,16,17,Jits_Phase_5,5,5,56,103,3780365728
41,16,17,Jits_Phase_5,0,5,56,103,3780766228
41,16,17,Jits_Phase_5,1,5,80,127,3780776424
41,16,17,Jits_Phase_5,2,1,48,84,3780848768
41,16,17,Jits_Phase_5,3,5,63,98,3780856136
41,16,17,Jits_Phase_5,4,1,38,19,3780859252
41,16,17,Jits_Phase_5,5,1,48,63,3780870688
41,16,17,Jits_Phase_5,0,5,80,127,3781265748
41,16,17,Jits_Phase_5,1,5,63,98,3781326440
41,16,17,Jits_Phase_5,2,5,56,103,3781355816
41,16,17,Jits_Phase_5,3,1,48,94,3781375788
41,16,17,Jits_Phase_5,4,1,38,20,3781385884
41,16,17,Jits_Phase_5,5,1,48,62,3781401208
41,16,17,Jits_Phase_5,0,5,56,103,3781765408
41,16,17,Jits_Phase_5,1,5,80,127,3781825876
41,16,17,Jits_Phase_5,2,1,48,76,3781853176
41,16,17,Jits_Phase_5,3,5,63,98,3781865880
41,16,17,Jits_Phase_5,4,1,48,60,3781875352
41,16,17,Jits_Phase_5,0,5,56,103,3782316524
41,16,17,Jits_Phase_5,1,5,63,98,3782325516
41,16,17,Jits_Phase_5,2,5,80,127,3782329180
41,16,17,Jits_Phase_5,3,1,48,86,3782387516
41,16,17,Jits_Phase_5,4,1,48,60,3782412132
41,16,17,Jits_Phase_5,0,5,80,127,3782766112
41,16,17,Jits_Phase_5,1,5,63,98,3782856024
41,16,17,Jits_Phase_5,2,5,56,103,3782866144
41,16,17,Jits_Phase_5,3,1,48,76,3782879452
41,16,17,Jits_Phase_5,4,1,38,18,3782889316
41,16,17,Jits_Phase_5,5,1,48,58,3782904804
41,16,17,Jits_Phase_5,0,5,56,103,3783265608
41,16,17,Jits_Phase_5,1,5,63,98,3783268776
41,16,17,Jits_Phase_5,2,5,80,127,3783272120
41,16,17,Jits_Phase_5,3,1,48,86,3783401624
41,16,17,Jits_Phase_5,4,1,48,57,3783437040
41,16,17,Jits_Phase_5,5,1,48,44,3783463820
41,16,17,Jits_Phase_5,0,5,80,127,3783785808
41,16,17,Jits_Phase_5,1,5,63,98,3783836308
41,16,17,Jits_Phase_5,2,5,56,103,3783865684
41,16,17,Jits_Phase_5,3,1,48,73,3783894796
41,16,17,Jits_Phase_5,4,1,38,18,3783904816
41,16,17,Jits_Phase_5,5,1,48,53,3783923356
41,16,17,Jits_Phase_5,0,5,56,103,3784276324
41,16,17,Jits_Phase_5,1,5,80,127,3784285696
41,16,17,Jits_Phase_5,2,5,63,98,3784356196
41,16,17,Jits_Phase_5,3,1,48,84,3784414460
41,16,17,Jits_Phase_5,4,1,38,19,3784424924
41,16,17,Jits_Phase_5,5,1,48,57,3784443092
41,16,17,Jits_Phase_5,6,1,48,42,3784471984
41,16,17,Jits_Phase_5,0,5,56,103,3784786276
41,16,17,Jits_Phase_5,1,5,63,98,3784806060
41,16,17,Jits_Phase_5,2,5,80,127,3784866152
41,16,17,Jits_Phase_5,3,1,48,81,3784871288
41,16,17,Jits_Phase_5,4,1,48,65,3784895992
41,16,17,Jits_Phase_5,0,5,80,127,3785265472
41,16,17,Jits_Phase_5,1,5,63,98,3785336272
41,16,17,Jits_Phase_5,2,5,56,103,3785355536
41,16,17,Jits_Phase_5,3,1,48,87,3785370184
41,16,17,Jits_Phase_5,4,1,48,67,3785391808
41,16,17,Jits_Phase_5,0,5,80,127,3785785644
41,16,17,Jits_Phase_5,1,5,56,103,3785796288
41,16,17,Jits_Phase_5,2,5,63,98,3785806336
41,16,17,Jits_Phase_5,3,1,48,81,3785903084
41,16,17,Jits_Phase_5,4,1,48,60,3785924876
41,16,17,Jits_Phase_5,0,5,80,127,3786276272
41,16,17,Jits_Phase_5,1,5,56,103,3786295632
41,16,17,Jits_Phase_5,2,5,63,98,3786366432
41,16,17,Jits_Phase_5,3,1,48,78,3786387304
41,16,17,Jits_Phase_5,0,5,56,103,3786786372
41,16,17,Jits_Phase_5,1,5,80,127,3786815928
41,16,17,Jits_Phase_5,2,5,63,98,3786836384
41,16,17,Jits_Phase_5,3,1,48,84,3786888568
41,16,17,Jits_Phase_5,4,1,48,54,3786914396
41,16,17,Jits_Phase_5,0,5,63,98,3787275684
41,16,17,Jits_Phase_5,1,5,56,103,3787336248
41,16,17,Jits_Phase_5,2,5,80,127,3787365696
41,16,17,Jits_Phase_5,3,1,48,78,3787369188
41,16,17,Jits_Phase_5,0,5,63,98,3787766068
41,16,17,Jits_Phase_5,1,5,80,127,3787769652
41,16,17,Jits_Phase_5,2,5,56,103,3787856220
41,16,17,Jits_Phase_5,3,1,48,79,3787883992
41,16,17,Jits_Phase_5,4,1,48,57,3787909728
41,16,17,Jits_Phase_5,0,5,56,103,3788286212
41,16,17,Jits_Phase_5,1,5,63,98,3788316112
41,16,17,Jits_Phase_5,2,5,80,127,3788355924
41,16,17,Jits_Phase_5,3,1,48,75,3788366236
41,16,17,Jits_Phase_5,4,1,48,54,3788389880
41,16,17,Jits_Phase_5,0,5,63,98,3788786084
41,16,17,Jits_Phase_5,1,5,56,103,3788826024
41,16,17,Jits_Phase_5,2,1,48,78,3788829216
41,16,17,Jits_Phase_5,3,5,80,127,3788845380
41,16,17,Jits_Phase_5,4,1,48,59,3788851772
41,16,17,Jits_Phase_5,0,5,63,98,3789296060
41,16,17,Jits_Phase_5,1,5,56,103,3789336000
41,16,17,Jits_Phase_5,2,5,80,127,3789346268
41,16,17,Jits_Phase_5,3,1,48,75,3789365748
41,16,17,Jits_Phase_5,4,1,48,53,3789389916
41,16,17,Jits_Phase_5,0,5,80,127,3789776284
41,16,17,Jits_Phase_5,1,5,63,98,3789846040
41,16,17,Jits_Phase_5,2,1,48,72,3789858004
41,16,17,Jits_Phase_5,3,5,56,103,3789866268
41,16,17,Jits_Phase_5,4,1,48,54,3789881004
41,16,17,Jits_Phase_5,0,5,56,103,3790265820
41,16,17,Jits_Phase_5,1,5,80,127,3790286052
41,16,17,Jits_Phase_5,2,5,63,98,3790326064
41,16,17,Jits_Phase_5,3,1,48,86,3790408840
41,16,17,Jits_Phase_5,0,5,63,98,3790775844
41,16,17,Jits_Phase_5,1,5,80,127,3790796156
41,16,17,Jits_Phase_5,2,5,56,103,3790836016
41,16,17,Jits_Phase_5,3,1,48,75,3790928672
41,16,17,Jits_Phase_5,4,1,48,37,3790981832
41,16,17,Jits_Phase_5,0,5,63,98,3791276356
41,16,17,Jits_Phase_5,1,5,56,103,3791295992
41,16,17,Jits_Phase_5,2,5,80,127,3791306260
41,16,17,Jits_Phase_5,3,1,48,87,3791422588
41,16,17,Jits_Phase_5,4,1,48,43,3791457856
41,16,17,Jits_Phase_5,0,5,80,127,3791776060
41,16,17,Jits_Phase_5,1,5,56,103,3791795548
41,16,17,Jits_Phase_5,2,5,63,98,3791826340
41,16,17,Jits_Phase_5,3,1,48,92,3791925452
41,16,17,Jits_Phase_5,0,5,56,103,3792345572
41,16,17,Jits_Phase_5,1,5,80,127,3792348788
41,16,17,Jits_Phase_5,2,5,63,98,3792365956
41,16,17,Jits_Phase_5,3,1,48,86,3792392440
41,16,17,Jits_Phase_5,0,5,63,98,3792766292
41,16,17,Jits_Phase_5,1,5,56,103,3792795968
41,16,17,Jits_Phase_5,2,5,80,127,3792856428
41,16,17,Jits_Phase_5,3,1,48,90,3792888760
41,16,17,Jits_Phase_5,0,5,63,98,3793345984
41,16,17,Jits_Phase_5,1,5,56,103,3793356032
41,16,17,Jits_Phase_5,2,5,80,127,3793366524
41,16,17,Jits_Phase_5,3,1,48,89,3793375040
41,16,17,Jits_Phase_5,0,5,56,103,3793805656
41,16,17,Jits_Phase_5,1,5,80,127,3793836380
41,16,17,Jits_Phase_5,2,5,63,98,3793845828
41,16,17,Jits_Phase_5,3,1,48,89,3793892464
41,16,17,Jits_Phase_5,0,5,63,98,3794346332
41,16,17,Jits_Phase_5,1,5,56,103,3794355704
41,16,17,Jits_Phase_5,2,5,80,127,3794376012
41,16,17,Jits_Phase_5,3,1,48,91,3794379128
41,16,17,Jits_Phase_5,0,5,56,103,3794776632
41,16,17,Jits_Phase_5,1,5,63,98,3794835824
41,16,17,Jits_Phase_5,2,5,80,127,3794839040
41,16,17,Jits_Phase_5,3,1,48,90,3794884492
41,16,17,Jits_Phase_5,0,5,80,127,3795295720
41,16,17,Jits_Phase_5,1,5,56,103,3795305916
41,16,17,Jits_Phase_5,2,5,63,98,3795375368
41,16,17,Jits_Phase_5,3,1,48,81,3795386508
41,16,17,Jits_Phase_5,0,5,80,127,3795786048
41,16,17,Jits_Phase_5,1,5,56,103,3795855876
41,16,17,Jits_Phase_5,2,5,63,98,3795866072
41,16,17,Jits_Phase_5,3,1,48,80,3795913756
41,16,17,Jits_Phase_5,0,5,63,98,3796325600
41,16,17,Jits_Phase_5,1,5,56,103,3796335944
41,16,17,Jits_Phase_5,2,5,80,127,3796355504
41,16,17,Jits_Phase_5,3,1,48,86,3796412324
41,16,17,Jits_Phase_5,0,5,80,127,3796776400
41,16,17,Jits_Phase_5,1,5,63,98,3796835844
41,16,17,Jits_Phase_5,2,5,56,103,3796875632
41,16,17,Jits_Phase_5,3,1,48,78,3796895680
41,16,17,Jits_Phase_5,0,5,56,103,3797315828
41,16,17,Jits_Phase_5,1,5,63,98,3797326396
41,16,17,Jits_Phase_5,2,5,80,127,3797366184
41,16,17,Jits_Phase_5,3,1,48,83,3797420240
41,16,17,Jits_Phase_5,0,5,56,103,3797775712
41,16,17,Jits_Phase_5,1,5,80,127,3797805636
41,16,17,Jits_Phase_5,2,5,63,98,3797855612
41,16,17,Jits_Phase_5,3,1,48,79,3797931464
41,16,17,Jits_Phase_5,0,5,56,103,3798316484
41,16,17,Jits_Phase_5,1,5,63,98,3798356420
41,16,17,Jits_Phase_5,2,5,80,127,3798359708
41,16,17,Jits_Phase_5,3,1,48,77,3798454680
41,16,17,Jits_Phase_5,0,5,56,103,3798815996
41,16,17,Jits_Phase_5,1,5,63,98,3798826340
41,16,17,Jits_Phase_5,2,5,80,127,3798845752
41,16,17,Jits_Phase_5,3,1,48,74,3798920176
41,16,17,Jits_Phase_5,0,5,56,103,3799275868
41,16,17,Jits_Phase_5,1,5,80,127,3799278932
41,16,17,Jits_Phase_5,2,5,63,98,3799315956
41,16,17,Jits_Phase_5,3,1,48,77,3799368612
41,16,17,Jits_Phase_5,0,5,63,98,3799815480
41,16,17,Jits_Phase_5,1,5,56,103,3799846424
41,16,17,Jits_Phase_5,2,1,48,76,3799859832
41,16,17,Jits_Phase_5,3,5,80,127,3799865708
41,16,17,Jits_Phase_5,0,5,80,127,3800285864
41,16,17,Jits_Phase_5,1,5,56,103,3800295912
41,16,17,Jits_Phase_5,2,5,63,98,3800306032
41,16,17,Jits_Phase_5,3,1,48,82,3800352440
41,16,17,Jits_Phase_5,0,5,56,103,3800786372
41,16,17,Jits_Phase_5,1,5,80,127,3800826312
41,16,17,Jits_Phase_5,2,5,63,98,3800855908
41,16,17,Jits_Phase_5,3,1,48,78,3800864804
41,16,17,Jits_Phase_5,4,1,38,18,3800875084
41,16,17,Jits_Phase_5,5,1,48,44,3800897756
41,16,17,Jits_Phase_5,0,5,63,98,3801296532
41,16,17,Jits_Phase_5,1,5,80,127,3801305384
41,16,17,Jits_Phase_5,2,5,56,103,3801315652
41,16,17,Jits_Phase_5,3,1,48,78,3801361312
41,16,17,Jits_Phase_5,0,5,56,103,3801785644
41,16,17,Jits_Phase_5,1,1,48,79,3801848692
41,16,17,Jits_Phase_5,2,5,63,98,3801856516
41,16,17,Jits_Phase_5,3,1,38,18,3801859484
41,16,17,Jits_Phase_5,4,5,80,127,3801865656
41,16,17,Jits_Phase_5,0,5,80,127,3802295692
41,16,17,Jits_Phase_5,1,5,56,103,3802306036
41,16,17,Jits_Phase_5,2,5,63,98,3802356012
41,16,17,Jits_Phase_5,3,1,48,84,3802366472
41,16,17,Jits_Phase_5,0,5,80,127,3802805716
41,16,17,Jits_Phase_5,1,1,48,73,3802847420
41,16,17,Jits_Phase_5,2,5,56,103,3802865948
41,16,17,Jits_Phase_5,3,5,63,98,3802895696
41,16,17,Jits_Phase_5,0,5,56,103,3803315592
41,16,17,Jits_Phase_5,1,5,80,127,3803318508
41,16,17,Jits_Phase_5,2,5,63,98,3803355676
41,16,17,Jits_Phase_5,3,1,48,72,3803373464
41,16,17,Jits_Phase_5,0,5,56,103,3803845988
41,16,17,Jits_Phase_5,1,5,63,98,3803875736
41,16,17,Jits_Phase_5,2,1,48,99,3803876700
41,16,17,Jits_Phase_5,3,5,80,127,3803885924
41,16,17,Jits_Phase_5,0,5,63,98,3804355944
41,16,17,Jits_Phase_5,1,5,80,127,3804366140
41,16,17,Jits_Phase_5,2,5,56,103,3804376632
41,16,17,Jits_Phase_5,3,1,48,76,3804387992
41,16,17,Jits_Phase_5,4,1,38,18,3804398012
41,16,17,Jits_Phase_5,0,5,80,127,3804805576
41,16,17,Jits_Phase_5,1,5,56,103,3804855776
41,16,17,Jits_Phase_5,2,5,63,98,3804858768
41,16,17,Jits_Phase_5,3,1,48,84,3804871100
41,16,17,Jits_Phase_5,4,1,38,19,3804880972
41,16,17,Jits_Phase_5,5,1,48,54,3804895788
41,16,17,Jits_Phase_5,0,5,56,103,3805335864
41,16,17,Jits_Phase_5,1,5,80,127,3805356472
41,16,17,Jits_Phase_5,2,5,63,98,3805365472
41,16,17,Jits_Phase_5,3,1,48,93,3805397728
41,16,17,Jits_Phase_5,0,5,63,98,3805816296
41,16,17,Jits_Phase_5,1,5,56,103,3805845900
41,16,17,Jits_Phase_5,2,5,80,127,3805866432
41,16,17,Jits_Phase_5,3,1,48,80,3805883476
41,16,17,Jits_Phase_5,4,1,38,18,3805893812
41,16,17,Jits_Phase_5,0,5,56,103,3806326092
41,16,17,Jits_Phase_5,1,5,80,127,3806336584
41,16,17,Jits_Phase_5,2,1,48,82,3806379260
41,16,17,Jits_Phase_5,3,1,48,53,3806403052
41,16,17,Jits_Phase_5,4,5,63,98,3806405936
41,16,17,Jits_Phase_5,0,5,63,98,3806815476
41,16,17,Jits_Phase_5,1,5,80,127,3806855416
41,16,17,Jits_Phase_5,2,5,56,103,3806895500
41,16,17,Jits_Phase_5,3,1,48,77,3806898092
41,16,17,Jits_Phase_5,4,1,38,18,3806907440
41,16,17,Jits_Phase_5,0,5,56,103,3807335688
41,16,17,Jits_Phase_5,1,5,63,98,3807346032
41,16,17,Jits_Phase_5,2,5,80,127,3807365368
41,16,17,Jits_Phase_5,3,1,48,86,3807426992
41,16,17,Jits_Phase_5,4,1,38,19,3807437012
41,16,17,Jits_Phase_5,5,1,48,57,3807451960
41,16,17,Jits_Phase_5,0,5,63,98,3807875500
41,16,17,Jits_Phase_5,1,5,80,127,3807895884
41,16,17,Jits_Phase_5,2,5,56,103,3807916636
41,16,17,Jits_Phase_5,3,1,48,84,3807920952
41,16,17,Jits_Phase_5,0,5,56,103,3808315620
41,16,17,Jits_Phase_5,1,5,80,127,3808395564
41,16,17,Jits_Phase_5,2,5,63,98,3808405760
41,16,17,Jits_Phase_5,3,1,48,84,3808439664
41,16,17,Jits_Phase_5,4,1,48,53,3808464292
41,16,17,Jits_Phase_5,0,5,80,127,3808856520
41,16,17,Jits_Phase_5,1,5,63,98,3808865596
41,16,17,Jits_Phase_5,2,5,56,103,3808896540
41,16,17,Jits_Phase_5,3,1,48,78,3808951792
41,16,17,Jits_Phase_5,0,5,63,98,3809316332
41,16,17,Jits_Phase_5,1,5,80,127,3809356144
41,16,17,Jits_Phase_5,2,5,56,103,3809415632
41,16,17,Jits_Phase_5,3,1,48,83,3809448340
41,16,17,Jits_Phase_5,0,5,63,98,3809826344
41,16,17,Jits_Phase_5,1,5,56,103,3809876496
41,16,17,Jits_Phase_5,2,5,80,127,3809906168
41,16,17,Jits_Phase_5,3,1,48,92,3809962244
41,16,17,Jits_Phase_5,4,1,38,20,3809972336
41,16,17,Jits_Phase_5,0,5,80,127,3810325800
41,16,17,Jits_Phase_5,1,5,63,98,3810336220
41,16,17,Jits_Phase_5,2,5,56,103,3810405624
41,16,17,Jits_Phase_5,3,1,48,84,3810480428
41,16,17,Jits_Phase_5,4,1,38,19,3810490364
41,16,17,Jits_Phase_5,0,5,80,127,3810886052
41,16,17,Jits_Phase_5,1,5,56,103,3810896320
41,16,17,Jits_Phase_5,2,5,63,98,3810899388
41,16,17,Jits_Phase_5,3,1,48,82,3811002660
41,16,17,Jits_Phase_5,0,5,56,103,3811326212
41,16,17,Jits_Phase_5,1,5,80,127,3811345772
41,16,17,Jits_Phase_5,2,5,63,98,3811356340
41,16,17,Jits_Phase_5,3,1,48,75,3811468484
41,16,17,Jits_Phase_5,0,5,63,98,3811836244
41,16,17,Jits_Phase_5,1,5,56,103,3811876256
41,16,17,Jits_Phase_5,2,5,80,127,3811895616
41,16,17,Jits_Phase_5,3,1,48,81,3811975524
41,16,17,Jits_Phase_5,0,5,63,98,3812336148
41,16,17,Jits_Phase_5,1,5,56,103,3812396412
41,16,17,Jits_Phase_5,2,5,80,127,3812399404
41,16,17,Jits_Phase_5,3,1,48,64,3812469872
41,16,17,Jits_Phase_5,0,5,56,103,3812795740
41,16,17,Jits_Phase_5,1,5,80,127,3812816276
41,16,17,Jits_Phase_5,2,5,63,98,3812856212
41,16,17,Jits_Phase_5,3,1,48,79,3812966928
41,16,17,Jits_Phase_5,0,5,56,103,3813326300
41,16,17,Jits_Phase_5,1,5,63,98,3813345564
41,16,17,Jits_Phase_5,2,5,80,127,3813355756
41,16,17,Jits_Phase_5,3,1,48,83,3813472976
41,16,17,Jits_Phase_5,0,5,80,127,3813796320
41,16,17,Jits_Phase_5,1,5,56,103,3813825848
41,16,17,Jits_Phase_5,2,5,63,98,3813865784
41,16,17,Jits_Phase_5,3,1,48,89,3813989980
41,16,17,Jits_Phase_5,0,5,80,127,3814306124
41,16,17,Jits_Phase_5,1,5,56,103,3814325612
41,16,17,Jits_Phase_5,2,5,63,98,3814386148
41,16,17,Jits_Phase_5,3,1,48,73,3814432628
41,16,17,Jits_Phase_5,0,5,56,103,3814816228
41,16,17,Jits_Phase_5,1,5,80,127,3814835568
41,16,17,Jits_Phase_5,2,5,63,98,3814896176
41,16,17,Jits_Phase_5,3,1,48,88,3814921244
41,16,17,Jits_Phase_5,4,1,38,20,3814931108
41,16,17,Jits_Phase_5,5,1,48,63,3814942848
41,16,17,Jits_Phase_5,0,5,80,127,3815296480
41,16,17,Jits_Phase_5,1,5,56,103,3815305628
41,16,17,Jits_Phase_5,2,5,63,98,3815345564
41,16,17,Jits_Phase_5,3,1,48,92,3815432500
41,16,17,Jits_Phase_5,4,1,38,21,3815442292
41,16,17,Jits_Phase_5,5,1,48,58,3815455020
41,16,17,Jits_Phase_5,0,5,63,98,3815796208
41,16,17,Jits_Phase_5,1,5,56,103,3815836216
41,16,17,Jits_Phase_5,2,5,80,127,3815839208
41,16,17,Jits_Phase_5,3,1,48,92,3815954404
41,16,17,Jits_Phase_5,4,1,38,20,3815964948
41,16,17,Jits_Phase_5,5,1,48,56,3815977656
41,16,17,Jits_Phase_5,0,5,63,98,3816316268
41,16,17,Jits_Phase_5,1,5,80,127,3816356204
41,16,17,Jits_Phase_5,2,5,56,103,3816386252
41,16,17,Jits_Phase_5,3,1,48,80,3816451544
41,16,17,Jits_Phase_5,4,1,38,18,3816461636
41,16,17,Jits_Phase_5,5,1,48,53,3816474960
41,16,17,Jits_Phase_5,0,5,56,103,3816806100
41,16,17,Jits_Phase_5,1,5,63,98,3816816220
41,16,17,Jits_Phase_5,2,5,80,127,3816845896
41,16,17,Jits_Phase_5,3,1,48,97,3816957484
41,16,17,Jits_Phase_5,4,1,38,21,3816968024
41,16,17,Jits_Phase_5,5,1,48,60,3816980212
41,16,17,Jits_Phase_5,0,5,80,127,3817296172
41,16,17,Jits_Phase_5,1,5,63,98,3817366296
41,16,17,Jits_Phase_5,2,5,56,103,3817376120
41,16,17,Jits_Phase_5,3,1,48,72,3817451516
41,16,17,Jits_Phase_5,0,5,63,98,3817795936
41,16,17,Jits_Phase_5,1,5,56,103,3817865688
41,16,17,Jits_Phase_5,2,5,80,127,3817876108
41,16,17,Jits_Phase_5,3,1,48,81,3817937880
41,16,17,Jits_Phase_5,4,1,38,19,3817947752
41,16,17,Jits_Phase_5,5,1,48,59,3817959408
41,16,17,Jits_Phase_5,0,5,63,98,3818276144
41,16,17,Jits_Phase_5,1,5,56,103,3818295956
41,16,17,Jits_Phase_5,2,5,80,127,3818335592
41,16,17,Jits_Phase_5,3,1,48,67,3818439912
41,16,17,Jits_Phase_5,0,5,56,103,3818755372
41,16,17,Jits_Phase_5,1,5,63,98,3818765644
41,16,17,Jits_Phase_5,2,5,80,127,3818845532
41,16,17,Jits_Phase_5,3,1,48,67,3818926780
41,16,17,Jits_Phase_5,0,5,63,98,3819246060
41,16,17,Jits_Phase_5,1,5,56,103,3819275588
41,16,17,Jits_Phase_5,2,5,80,127,3819315548
41,16,17,Jits_Phase_5,3,1,48,85,3819474632
41,16,17,Jits_Phase_5,4,1,38,19,3819484652
41,16,17,Jits_Phase_5,5,1,48,55,3819497812
41,16,17,Jits_Phase_5,0,5,56,103,3819745624
41,16,17,Jits_Phase_5,1,5,63,98,3819785636
41,16,17,Jits_Phase_5,2,5,80,127,3819825448
41,16,17,Jits_Phase_5,3,1,48,87,3820020180
41,16,17,Jits_Phase_5,4,1,38,19,3820030644
41,16,17,Jits_Phase_5,0,1,48,56,3820057540
41,16,17,Jits_Phase_5,1,5,80,127,3820246456
41,16,17,Jits_Phase_5,2,5,56,103,3820326252
41,16,17,Jits_Phase_5,3,5,63,98,3820335352
41,16,17,Jits_Phase_5,4,1,48,88,3820519220
41,16,17,Jits_Phase_5,0,5,56,103,3820796232
41,16,17,Jits_Phase_5,1,5,63,98,3820799300
41,16,17,Jits_Phase_5,2,5,80,127,3820805456
41,16,17,Jits_Phase_5,3,1,48,89,3821018868
41,16,17,Jits_Phase_5,4,1,48,53,3821045072
41,16,17,Jits_Phase_5,0,5,56,103,3821315352
41,16,17,Jits_Phase_5,1,5,63,98,3821335960
41,16,17,Jits_Phase_5,2,5,80,127,3821346228
41,16,17,Jits_Phase_5,3,1,48,82,3821525636
41,16,17,Jits_Phase_5,4,1,48,61,3821547860
41,16,17,Jits_Phase_5,0,5,63,98,3821776188
41,16,17,Jits_Phase_5,1,5,80,127,3821785340
41,16,17,Jits_Phase_5,2,5,56,103,3821806096
41,16,17,Jits_Phase_5,3,1,48,89,3822034948
41,16,17,Jits_Phase_5,0,1,48,57,3822064020
41,16,17,Jits_Phase_5,1,5,63,98,3822275880
41,16,17,Jits_Phase_5,2,5,56,103,3822355896
41,16,17,Jits_Phase_5,3,5,80,127,3822359036
41,16,17,Jits_Phase_5,4,1,48,89,3822498896
41,16,17,Jits_Phase_5,0,5,63,98,3822775904
41,16,17,Jits_Phase_5,1,5,56,103,3822796140
41,16,17,Jits_Phase_5,2,5,80,127,3822825812
41,16,17,Jits_Phase_5,3,1,48,80,3822999972
41,16,17,Jits_Phase_5,4,1,48,57,3823022492
41,16,17,Jits_Phase_5,0,5,56,103,3823276360
41,16,17,Jits_Phase_5,1,5,63,98,3823295772
41,16,17,Jits_Phase_5,2,5,80,127,3823306044
41,16,17,Jits_Phase_5,3,1,48,87,3823494372
41,16,17,Jits_Phase_5,4,1,48,55,3823519060
41,16,17,Jits_Phase_5,0,5,56,103,3823805752
41,16,17,Jits_Phase_5,1,5,63,98,3823835724
41,16,17,Jits_Phase_5,2,5,80,127,3823839012
41,16,17,Jits_Phase_5,3,1,48,89,3824043380
41,16,17,Jits_Phase_5,0,1,48,56,3824067656
41,16,17,Jits_Phase_5,1,5,56,103,3824256344
41,16,17,Jits_Phase_5,2,5,63,98,3824296284
41,16,17,Jits_Phase_5,3,5,80,127,3824355920
41,16,17,Jits_Phase_5,0,1,48,93,3824564352
41,16,17,Jits_Phase_5,1,1,38,19,3824567052
41,16,17,Jits_Phase_5,2,1,48,61,3824581348
41,16,17,Jits_Phase_5,3,5,56,103,3824775484
41,16,17,Jits_Phase_5,4,5,63,98,3824785904
41,16,17,Jits_Phase_5,5,5,80,127,3824846068
41,16,17,Jits_Phase_5,0,1,48,90,3825090324
41,16,17,Jits_Phase_5,1,1,48,59,3825115860
41,16,17,Jits_Phase_5,2,1,48,47,3825140104
41,16,17,Jits_Phase_5,3,5,56,103,3825276348
41,16,17,Jits_Phase_5,4,5,80,127,3825295912
41,16,17,Jits_Phase_5,5,5,63,98,3825325436
41,16,17,Jits_Phase_5,0,1,48,92,3825630000
41,16,17,Jits_Phase_5,1,1,48,58,3825658980
41,16,17,Jits_Phase_5,2,5,80,127,3825775892
41,16,17,Jits_Phase_5,3,5,56,103,3825786160
41,16,17,Jits_Phase_5,4,5,63,98,3825805796
41,16,17,Jits_Phase_5,0,1,48,91,3826162072
41,16,17,Jits_Phase_5,1,1,48,60,3826189996
41,16,17,Jits_Phase_5,2,1,48,44,3826218620
41,16,17,Jits_Phase_5,3,5,63,98,3826265404
41,16,17,Jits_Phase_5,4,5,80,127,3826346232
41,16,17,Jits_Phase_5,5,5,56,103,3826355676
41,16,17,Jits_Phase_5,0,1,48,114,3826749508
41,16,17,Jits_Phase_5,1,1,48,63,3826774668
41,16,17,Jits_Phase_5,2,5,80,127,3826856276
41,16,17,Jits_Phase_5,3,5,56,103,3826875748
41,16,17,Jits_Phase_5,4,5,63,98,3826878812
41,16,17,Jits_Phase_5,0,1,48,106,3827332540
41,16,17,Jits_Phase_5,1,1,38,21,3827342412
41,16,17,Jits_Phase_5,2,5,63,98,3827345888
41,16,17,Jits_Phase_5,3,5,80,127,3827349104
41,16,17,Jits_Phase_5,4,1,48,59,3827355668
41,16,17,Jits_Phase_5,5,1,48,40,3827387480
41,16,17,Jits_Phase_5,6,5,56,103,3827406156
41,16,17,Jits_Phase_5,0,5,56,103,3827826128
41,16,17,Jits_Phase_5,1,5,80,127,3827836252
41,16,17,Jits_Phase_5,2,5,63,98,3827876260
41,16,17,Jits_Phase_5,3,1,48,93,3827890984
41,16,17,Jits_Phase_5,0,5,56,103,3828306340
41,16,17,Jits_Phase_5,1,5,63,98,3828365756
41,16,17,Jits_Phase_5,2,5,80,127,3828375804
41,16,17,Jits_Phase_5,3,1,48,83,3828400112
41,16,17,Jits_Phase_5,4,1,48,54,3828424076
41,16,17,Jits_Phase_5,0,5,63,98,3828816324
41,16,17,Jits_Phase_5,1,5,80,127,3828856036
41,16,17,Jits_Phase_5,2,5,56,103,3828896048
41,16,17,Jits_Phase_5,3,1,48,97,3828906064
41,16,17,Jits_Phase_5,4,1,48,55,3828934736
41,16,17,Jits_Phase_5,5,1,48,43,3828964148
41,16,17,Jits_Phase_5,0,5,56,103,3829315920
41,16,17,Jits_Phase_5,1,5,63,98,3829395860
41,16,17,Jits_Phase_5,2,5,80,127,3829399296
41,16,17,Jits_Phase_5,3,1,48,87,3829409840
41,16,17,Jits_Phase_5,4,1,48,52,3829438660
41,16,17,Jits_Phase_5,0,5,80,127,3829875944
41,16,17,Jits_Phase_5,1,1,48,90,3829900412
41,16,17,Jits_Phase_5,2,5,56,103,3829905836
41,16,17,Jits_Phase_5,3,5,63,98,3829908900
41,16,17,Jits_Phase_5,4,1,48,55,3829926320
41,16,17,Jits_Phase_5,0,5,56,103,3830335880
41,16,17,Jits_Phase_5,1,5,80,127,3830356264
41,16,17,Jits_Phase_5,2,5,63,98,3830396200
41,16,17,Jits_Phase_5,3,1,48,98,3830410776
41,16,17,Jits_Phase_5,4,1,48,65,3830435408
41,16,17,Jits_Phase_5,0,5,80,127,3830816100
41,16,17,Jits_Phase_5,1,5,63,98,3830835464
41,16,17,Jits_Phase_5,2,5,56,103,3830895848
41,16,17,Jits_Phase_5,3,1,48,103,3830921132
41,16,17,Jits_Phase_5,4,1,48,68,3830943284
41,16,17,Jits_Phase_5,0,5,63,98,3831326096
41,16,17,Jits_Phase_5,1,5,56,103,3831336908
41,16,17,Jits_Phase_5,2,5,80,127,3831385540
41,16,17,Jits_Phase_5,3,1,48,93,3831412324
41,16,17,Jits_Phase_5,4,1,38,20,3831422268
41,16,17,Jits_Phase_5,5,1,48,57,3831435592
41,16,17,Jits_Phase_5,0,5,56,103,3831815476
41,16,17,Jits_Phase_5,1,5,63,98,3831836084
41,16,17,Jits_Phase_5,2,5,80,127,3831846352
41,16,17,Jits_Phase_5,3,1,48,98,3831919208
41,16,17,Jits_Phase_5,4,1,38,20,3831929228
41,16,17,Jits_Phase_5,5,1,48,66,3831946740
41,16,17,Jits_Phase_5,0,5,56,103,3832306112
41,16,17,Jits_Phase_5,1,5,63,98,3832309324
41,16,17,Jits_Phase_5,2,5,80,127,3832325448
41,16,17,Jits_Phase_5,3,1,48,100,3832440500
41,16,17,Jits_Phase_5,4,1,38,20,3832450888
41,16,17,Jits_Phase_5,5,1,48,55,3832467508
41,16,17,Jits_Phase_5,0,5,63,98,3832845544
41,16,17,Jits_Phase_5,1,5,56,103,3832876364
41,16,17,Jits_Phase_5,2,5,80,127,3832905964
41,16,17,Jits_Phase_5,3,1,48,78,3832922260
41,16,17,Jits_Phase_5,4,1,48,52,3832948536
41,16,17,Jits_Phase_5,0,5,80,127,3833305548
41,16,17,Jits_Phase_5,1,5,56,103,3833395700
41,16,17,Jits_Phase_5,2,5,63,98,3833398692
41,16,17,Jits_Phase_5,3,1,48,91,3833436356
41,16,17,Jits_Phase_5,4,1,48,57,3833460220
41,16,17,Jits_Phase_5,0,5,56,103,3833806308
41,16,17,Jits_Phase_5,1,5,80,127,3833809448
41,16,17,Jits_Phase_5,2,5,63,98,3833885948
41,16,17,Jits_Phase_5,3,1,48,79,3833970892
41,16,17,Jits_Phase_5,4,1,38,18,3833980828
41,16,17,Jits_Phase_5,5,1,48,56,3833996248
41,16,17,Jits_Phase_5,0,5,80,127,3834305884
41,16,17,Jits_Phase_5,1,5,63,98,3834366420
41,16,17,Jits_Phase_5,2,5,56,103,3834395872
41,16,17,Jits_Phase_5,3,1,48,75,3834474752
41,16,17,Jits_Phase_5,4,1,48,56,3834499888
41,16,17,Jits_Phase_5,0,5,63,98,3834805604
41,16,17,Jits_Phase_5,1,5,80,127,3834815876
41,16,17,Jits_Phase_5,2,5,56,103,3834885480
41,16,17,Jits_Phase_5,3,1,48,88,3834983764
41,16,17,Jits_Phase_5,4,1,38,19,3834994228
41,16,17,Jits_Phase_5,5,1,48,60,3835008212
41,16,17,Jits_Phase_5,0,5,56,103,3835365784
41,16,17,Jits_Phase_5,1,5,80,127,3835395608
41,16,17,Jits_Phase_5,2,5,63,98,3835445608
41,16,17,Jits_Phase_5,3,1,48,82,3835484088
41,16,17,Jits_Phase_5,4,1,48,54,3835507888
41,16,17,Jits_Phase_5,0,5,63,98,3835955580
41,16,17,Jits_Phase_5,1,5,56,103,3835986448
41,16,17,Jits_Phase_5,2,5,80,127,3835989364
41,16,17,Jits_Phase_5,3,1,48,74,3836028076
41,16,17,Jits_Phase_5,4,1,48,53,3836055172
41,16,17,Jits_Phase_5,0,5,63,98,3836456628
41,16,17,Jits_Phase_5,1,5,80,127,3836475888
41,16,17,Jits_Phase_5,2,5,56,103,3836486236
41,16,17,Jits_Phase_5,3,1,48,83,3836524268
41,16,17,Jits_Phase_5,4,1,38,19,3836534288
41,16,17,Jits_Phase_5,5,1,48,56,3836546020
41,16,17,Jits_Phase_5,0,5,56,103,3836966428
41,16,17,Jits_Phase_5,1,5,63,98,3836969348
41,16,17,Jits_Phase_5,2,5,80,127,3836985916
41,16,17,Jits_Phase_5,3,1,48,89,3837033152
41,16,17,Jits_Phase_5,4,1,38,20,3837043096
41,16,17,Jits_Phase_5,0,5,56,103,3837415680
41,16,17,Jits_Phase_5,1,5,63,98,3837426320
41,16,17,Jits_Phase_5,2,5,80,127,3837455848
41,16,17,Jits_Phase_5,3,1,48,74,3837528136
41,16,17,Jits_Phase_5,4,1,38,18,3837538600
41,16,17,Jits_Phase_5,5,1,48,49,3837553868
41,16,17,Jits_Phase_5,0,5,63,98,3837936384
41,16,17,Jits_Phase_5,1,5,80,127,3837955348
41,16,17,Jits_Phase_5,2,5,56,103,3837996432
41,16,17,Jits_Phase_5,3,1,48,86,3837999024
41,16,17,Jits_Phase_5,4,1,38,20,3838008892
41,16,17,Jits_Phase_5,5,1,48,63,3838020104
41,16,17,Jits_Phase_5,0,5,56,103,3838466300
41,16,17,Jits_Phase_5,1,5,63,98,3838506252
41,16,17,Jits_Phase_5,2,1,48,94,3838509844
41,16,17,Jits_Phase_5,3,5,80,127,3838511336
41,16,17,Jits_Phase_5,4,1,38,21,3838520300
41,16,17,Jits_Phase_5,5,1,48,57,3838532788
41,16,17,Jits_Phase_5,0,5,80,127,3838905580
41,16,17,Jits_Phase_5,1,5,56,103,3838945592
41,16,17,Jits_Phase_5,2,5,63,98,3838995792
41,16,17,Jits_Phase_5,3,1,48,97,3839007152
41,16,17,Jits_Phase_5,4,1,38,21,3839017356
41,16,17,Jits_Phase_5,5,1,48,58,3839035164
41,16,17,Jits_Phase_5,0,5,56,103,3839465936
41,16,17,Jits_Phase_5,1,5,80,127,3839476280
41,16,17,Jits_Phase_5,2,5,63,98,3839505880
41,16,17,Jits_Phase_5,3,1,48,75,3839525556
41,16,17,Jits_Phase_5,4,1,38,18,3839535392
41,16,17,Jits_Phase_5,5,1,48,51,3839551540
41,16,17,Jits_Phase_5,0,5,56,103,3839916392
41,16,17,Jits_Phase_5,1,5,80,127,3839956400
41,16,17,Jits_Phase_5,2,5,63,98,3840005404
41,16,17,Jits_Phase_5,3,1,48,79,3840016544
41,16,17,Jits_Phase_5,4,1,38,20,3840025960
41,16,17,Jits_Phase_5,5,1,48,53,3840040836
41,16,17,Jits_Phase_5,0,5,56,103,3840416252
41,16,17,Jits_Phase_5,1,5,80,127,3840456264
41,16,17,Jits_Phase_5,2,5,63,98,3840506388
41,16,17,Jits_Phase_5,3,1,48,79,3840533936
41,16,17,Jits_Phase_5,4,1,38,19,3840543880
41,16,17,Jits_Phase_5,0,5,80,127,3840905532
41,16,17,Jits_Phase_5,1,5,63,98,3840985400
41,16,17,Jits_Phase_5,2,5,56,103,3840995668
41,16,17,Jits_Phase_5,3,1,48,78,3841038116
41,16,17,Jits_Phase_5,4,1,38,19,3841048060
41,16,17,Jits_Phase_5,0,5,80,127,3841455572
41,16,17,Jits_Phase_5,1,5,56,103,3841465844
41,16,17,Jits_Phase_5,2,5,63,98,3841486524
41,16,17,Jits_Phase_5,3,1,48,81,3841554224
41,16,17,Jits_Phase_5,4,1,38,19,3841564168
41,16,17,Jits_Phase_5,0,5,63,98,3841925380
41,16,17,Jits_Phase_5,1,5,56,103,3841996252
41,16,17,Jits_Phase_5,2,5,80,127,3841999320
41,16,17,Jits_Phase_5,3,1,48,77,3842050004
41,16,17,Jits_Phase_5,4,1,38,19,3842059580
41,16,17,Jits_Phase_5,5,1,48,57,3842071764
41,16,17,Jits_Phase_5,0,5,80,127,3842416240
41,16,17,Jits_Phase_5,1,5,63,98,3842466220
41,16,17,Jits_Phase_5,2,5,56,103,3842506228
41,16,17,Jits_Phase_5,3,1,48,92,3842543052
41,16,17,Jits_Phase_5,4,1,38,21,3842552996
41,16,17,Jits_Phase_5,5,1,48,56,3842575908
41,16,17,Jits_Phase_5,0,5,63,98,3842955608
41,16,17,Jits_Phase_5,1,5,56,103,3842995548
41,16,17,Jits_Phase_5,2,5,80,127,3843005820
41,16,17,Jits_Phase_5,3,1,48,79,3843050280
41,16,17,Jits_Phase_5,4,1,38,19,3843060228
41,16,17,Jits_Phase_5,5,1,48,50,3843076692
41,16,17,Jits_Phase_5,0,5,63,98,3843446116
41,16,17,Jits_Phase_5,1,5,56,103,3843465528
41,16,17,Jits_Phase_5,2,5,80,127,3843486060
41,16,17,Jits_Phase_5,3,1,48,90,3843557944
41,16,17,Jits_Phase_5,4,1,48,56,3843588932
41,16,17,Jits_Phase_5,0,5,80,127,3843906112
41,16,17,Jits_Phase_5,1,5,56,103,3843916308
41,16,17,Jits_Phase_5,2,5,63,98,3843935568
41,16,17,Jits_Phase_5,3,1,48,84,3844078992
41,16,17,Jits_Phase_5,4,1,48,55,3844111404
41,16,17,Jits_Phase_5,0,5,63,98,3844436244
41,16,17,Jits_Phase_5,1,5,56,103,3844476184
41,16,17,Jits_Phase_5,2,5,80,127,3844506004
41,16,17,Jits_Phase_5,3,1,48,81,3844583424
41,16,17,Jits_Phase_5,0,5,56,103,3844896264
41,16,17,Jits_Phase_5,1,5,63,98,3844925816
41,16,17,Jits_Phase_5,2,5,80,127,3844955564
41,16,17,Jits_Phase_5,3,1,48,84,3845080928
41,16,17,Jits_Phase_5,0,5,80,127,3845316104
41,16,17,Jits_Phase_5,1,5,56,103,3845385556
41,16,17,Jits_Phase_5,2,5,63,98,3845388696
41,16,17,Jits_Phase_5,0,1,48,91,3845610108
41,16,17,Jits_Phase_5,1,1,38,20,3845615844
41,16,17,Jits_Phase_5,2,5,56,103,3845826072
41,16,17,Jits_Phase_5,3,5,63,98,3845876272
41,16,17,Jits_Phase_5,4,5,80,127,3845906172
41,16,17,Jits_Phase_5,5,1,48,76,3846099136
41,16,17,Jits_Phase_5,0,1,38,19,3846120456
41,16,17,Jits_Phase_5,1,1,48,55,3846127088
41,16,17,Jits_Phase_5,2,5,63,98,3846306072
41,16,17,Jits_Phase_5,3,5,80,127,3846309440
41,16,17,Jits_Phase_5,4,5,56,103,3846365492
41,16,17,Jits_Phase_5,0,1,48,80,3846617716
41,16,17,Jits_Phase_5,1,1,38,19,3846620736
41,16,17,Jits_Phase_5,2,1,48,54,3846639896
41,16,17,Jits_Phase_5,3,5,56,103,3846835600
41,16,17,Jits_Phase_5,4,5,80,127,3846846092
41,16,17,Jits_Phase_5,5,5,63,98,3846895920
41,16,17,Jits_Phase_5,0,1,48,82,3847201160
41,16,17,Jits_Phase_5,1,1,48,53,3847231276
41,16,17,Jits_Phase_5,2,5,63,98,3847305560
41,16,17,Jits_Phase_5,3,5,56,103,3847315908
41,16,17,Jits_Phase_5,4,5,80,127,3847345640
41,16,17,Jits_Phase_5,0,1,48,88,3847788924
41,16,17,Jits_Phase_5,1,1,48,48,3847823128
41,16,17,Jits_Phase_5,2,5,63,98,3847835980
41,16,17,Jits_Phase_5,3,5,80,127,3847839416
41,16,17,Jits_Phase_5,4,5,56,103,3847865800
41,16,17,Jits_Phase_5,0,5,63,98,3848356156
41,16,17,Jits_Phase_5,1,1,48,66,3848360172
41,16,17,Jits_Phase_5,2,5,56,103,3848375708
41,16,17,Jits_Phase_5,3,5,80,127,3848378920
41,16,17,Jits_Phase_5,4,1,48,44,3848397540
41,16,17,Jits_Phase_5,0,5,63,98,3848815996
41,16,17,Jits_Phase_5,1,5,56,103,3848885524
41,16,17,Jits_Phase_5,2,1,48,83,3848888192
41,16,17,Jits_Phase_5,3,5,80,127,3848905976
41,16,17,Jits_Phase_5,4,1,48,48,3848922784
41,16,17,Jits_Phase_5,0,5,56,103,3849305444
41,16,17,Jits_Phase_5,1,5,63,98,3849315564
41,16,17,Jits_Phase_5,2,1,48,89,3849382796
41,16,17,Jits_Phase_5,3,1,38,19,3849392964
41,16,17,Jits_Phase_5,4,5,80,127,3849405888
41,16,17,Jits_Phase_5,5,1,48,44,3849417984
41,16,17,Jits_Phase_5,0,5,56,103,3849825644
41,16,17,Jits_Phase_5,1,5,80,127,3849865580
41,16,17,Jits_Phase_5,2,1,48,90,3849875096
41,16,17,Jits_Phase_5,3,5,63,98,3849876892
41,16,17,Jits_Phase_5,4,1,48,48,3849916180
41,16,17,Jits_Phase_5,0,5,56,103,3850345892
41,16,17,Jits_Phase_5,1,5,63,98,3850375792
41,16,17,Jits_Phase_5,2,1,48,83,3850393660
41,16,17,Jits_Phase_5,3,5,80,127,3850406204
41,16,17,Jits_Phase_5,4,1,48,51,3850427444
41,16,17,Jits_Phase_5,0,5,80,127,3850805756
41,16,17,Jits_Phase_5,1,5,63,98,3850845548
41,16,17,Jits_Phase_5,2,5,56,103,3850866152
41,16,17,Jits_Phase_5,3,1,48,86,3850892260
41,16,17,Jits_Phase_5,4,1,48,55,3850922728
41,16,17,Jits_Phase_5,0,5,56,103,3851346308
41,16,17,Jits_Phase_5,1,5,80,127,3851365868
41,16,17,Jits_Phase_5,2,5,63,98,3851386176
41,16,17,Jits_Phase_5,3,1,48,84,3851416488
41,16,17,Jits_Phase_5,4,1,38,19,3851425988
41,16,17,Jits_Phase_5,5,1,48,56,3851443028
41,16,17,Jits_Phase_5,0,5,63,98,3851816224
41,16,17,Jits_Phase_5,1,5,56,103,3851825520
41,16,17,Jits_Phase_5,2,1,48,71,3851885832
41,16,17,Jits_Phase_5,3,5,80,127,3851887392
41,16,17,Jits_Phase_5,4,1,48,54,3851913112
41,16,17,Jits_Phase_5,0,5,56,103,3852316128
41,16,17,Jits_Phase_5,1,1,48,85,3852364672
41,16,17,Jits_Phase_5,2,5,63,98,3852385748
41,16,17,Jits_Phase_5,3,1,48,56,3852394556
41,16,17,Jits_Phase_5,4,5,80,127,3852406184
41,16,17,Jits_Phase_5,0,5,56,103,3852815996
41,16,17,Jits_Phase_5,1,5,63,98,3852845400
41,16,17,Jits_Phase_5,2,1,48,87,3852879828
41,16,17,Jits_Phase_5,3,5,80,127,3852886376
41,16,17,Jits_Phase_5,4,1,38,19,3852890088
41,16,17,Jits_Phase_5,5,1,48,44,3852925656
41,16,17,Jits_Phase_5,0,5,63,98,3853306080
41,16,17,Jits_Phase_5,1,5,56,103,3853356604
41,16,17,Jits_Phase_5,2,5,80,127,3853365824
41,16,17,Jits_Phase_5,3,1,48,77,3853388948
41,16,17,Jits_Phase_5,4,1,48,38,3853434772
41,16,17,Jits_Phase_5,0,5,56,103,3853845936
41,16,17,Jits_Phase_5,1,1,48,89,3853869752
41,16,17,Jits_Phase_5,2,1,38,20,3853879920
41,16,17,Jits_Phase_5,3,5,63,98,3853896132
41,16,17,Jits_Phase_5,4,5,80,127,3853906180
41,16,17,Jits_Phase_5,5,1,48,43,3853912424
41,16,17,Jits_Phase_5,0,5,56,103,3854315844
41,16,17,Jits_Phase_5,1,5,63,98,3854326188
41,16,17,Jits_Phase_5,2,1,48,90,3854394812
41,16,17,Jits_Phase_5,3,1,38,21,3854404852
41,16,17,Jits_Phase_5,4,5,80,127,3854407320
41,16,17,Jits_Phase_5,5,1,48,39,3854441588
41,16,17,Jits_Phase_5,0,9999,9999,9999,3770053752
41,16,17,Jits_Phase_5,1,9999,9999,9999,3770553432
41,16,17,Jits_Phase_5,2,9999,9999,9999,3771053124
41,16,17,Jits_Phase_5,3,9999,9999,9999,3771553896
41,16,17,Jits_Phase_5,4,9999,9999,9999,3772053568
41,16,17,Jits_Phase_5,5,9999,9999,9999,3772553280
41,16,17,Jits_Phase_5,6,9999,9999,9999,3773054064
41,16,17,Jits_Phase_5,7,9999,9999,9999,3773553720
41,16,17,Jits_Phase_5,8,9999,9999,9999,3774053456
41,16,17,Jits_Phase_5,9,9999,9999,9999,3774553164
41,16,17,Jits_Phase_5,10,9999,9999,9999,3775053884
41,16,17,Jits_Phase_5,11,9999,9999,9999,3775553632
41,16,17,Jits_Phase_5,12,9999,9999,9999,3776053360
41,16,17,Jits_Phase_5,13,9999,9999,9999,3776554068
41,16,17,Jits_Phase_5,14,9999,9999,9999,3777053768
41,16,17,Jits_Phase_5,15,9999,9999,9999,3777553532
41,16,17,Jits_Phase_5,16,9999,9999,9999,3778053208
41,16,17,Jits_Phase_5,17,9999,9999,9999,3778553980
41,16,17,Jits_Phase_5,18,9999,9999,9999,3779053684
41,16,17,Jits_Phase_5,19,9999,9999,9999,3779553356
41,16,17,Jits_Phase_5,20,9999,9999,9999,3780054108
41,16,17,Jits_Phase_5,21,9999,9999,9999,3780564036
41,16,17,Jits_Phase_5,22,9999,9999,9999,3781063780
41,16,17,Jits_Phase_5,23,9999,9999,9999,3781563512
41,16,17,Jits_Phase_5,24,9999,9999,9999,3782063220
41,16,17,Jits_Phase_5,25,9999,9999,9999,3782563900
41,16,17,Jits_Phase_5,26,9999,9999,9999,3783063652
41,16,17,Jits_Phase_5,27,9999,9999,9999,3783563384
41,16,17,Jits_Phase_5,28,9999,9999,9999,3784064088
41,16,17,Jits_Phase_5,29,9999,9999,9999,3784574060
41,16,17,Jits_Phase_5,30,9999,9999,9999,3785063484
41,16,17,Jits_Phase_5,31,9999,9999,9999,3785563204
41,16,17,Jits_Phase_5,32,9999,9999,9999,3786063972
41,16,17,Jits_Phase_5,33,9999,9999,9999,3786563712
41,16,17,Jits_Phase_5,34,9999,9999,9999,3787063384
41,16,17,Jits_Phase_5,35,9999,9999,9999,3787563128
41,16,17,Jits_Phase_5,36,9999,9999,9999,3788063864
41,16,17,Jits_Phase_5,37,9999,9999,9999,3788563568
41,16,17,Jits_Phase_5,38,9999,9999,9999,3789063296
41,16,17,Jits_Phase_5,39,9999,9999,9999,3789563976
41,16,17,Jits_Phase_5,40,9999,9999,9999,3790063684
41,16,17,Jits_Phase_5,41,9999,9999,9999,3790563420
41,16,17,Jits_Phase_5,42,9999,9999,9999,3791063104
41,16,17,Jits_Phase_5,43,9999,9999,9999,3791563896
41,16,17,Jits_Phase_5,44,9999,9999,9999,3792063552
41,16,17,Jits_Phase_5,45,9999,9999,9999,3792563312
41,16,17,Jits_Phase_5,46,9999,9999,9999,3793064048
41,16,17,Jits_Phase_5,47,9999,9999,9999,3793563728
41,16,17,Jits_Phase_5,48,9999,9999,9999,3794073672
41,16,17,Jits_Phase_5,49,9999,9999,9999,3794573368
41,16,17,Jits_Phase_5,50,9999,9999,9999,3795073108
41,16,17,Jits_Phase_5,51,9999,9999,9999,3795573848
41,16,17,Jits_Phase_5,52,9999,9999,9999,3796073540
41,16,17,Jits_Phase_5,53,9999,9999,9999,3796573312
41,16,17,Jits_Phase_5,54,9999,9999,9999,3797074036
41,16,17,Jits_Phase_5,55,9999,9999,9999,3797573728
41,16,17,Jits_Phase_5,56,9999,9999,9999,3798073420
41,16,17,Jits_Phase_5,57,9999,9999,9999,3798573176
41,16,17,Jits_Phase_5,58,9999,9999,9999,3799073868
41,16,17,Jits_Phase_5,59,9999,9999,9999,3799573612
41,16,17,Jits_Phase_5,60,9999,9999,9999,3800073308
41,16,17,Jits_Phase_5,61,9999,9999,9999,3800574024
41,16,17,Jits_Phase_5,62,9999,9999,9999,3801073736
41,16,17,Jits_Phase_5,63,9999,9999,9999,3801573460
41,16,17,Jits_Phase_5,64,9999,9999,9999,3802093632
41,16,17,Jits_Phase_5,65,9999,9999,9999,3802593368
41,16,17,Jits_Phase_5,66,9999,9999,9999,3803094104
41,16,17,Jits_Phase_5,67,9999,9999,9999,3803604044
41,16,17,Jits_Phase_5,68,9999,9999,9999,3804103736
41,16,17,Jits_Phase_5,69,9999,9999,9999,3804603456
41,16,17,Jits_Phase_5,70,9999,9999,9999,3805103180
41,16,17,Jits_Phase_5,71,9999,9999,9999,3805603948
41,16,17,Jits_Phase_5,72,9999,9999,9999,3806103664
41,16,17,Jits_Phase_5,73,9999,9999,9999,3806603372
41,16,17,Jits_Phase_5,74,9999,9999,9999,3807104116
41,16,17,Jits_Phase_5,75,9999,9999,9999,3807614040
41,16,17,Jits_Phase_5,76,9999,9999,9999,3808113772
41,16,17,Jits_Phase_5,77,9999,9999,9999,3808613480
41,16,17,Jits_Phase_5,78,9999,9999,9999,3809113152
41,16,17,Jits_Phase_5,79,9999,9999,9999,3809613888
41,16,17,Jits_Phase_5,80,9999,9999,9999,3810113664
41,16,17,Jits_Phase_5,81,9999,9999,9999,3810593916
41,16,17,Jits_Phase_5,82,9999,9999,9999,3811093592
41,16,17,Jits_Phase_5,83,9999,9999,9999,3811593328
41,16,17,Jits_Phase_5,84,9999,9999,9999,3812094068
41,16,17,Jits_Phase_5,85,9999,9999,9999,3812593744
41,16,17,Jits_Phase_5,86,9999,9999,9999,3813093496
41,16,17,Jits_Phase_5,87,9999,9999,9999,3813593188
41,16,17,Jits_Phase_5,88,9999,9999,9999,3814093928
41,16,17,Jits_Phase_5,89,9999,9999,9999,3814593616
41,16,17,Jits_Phase_5,90,9999,9999,9999,3815093316
41,16,17,Jits_Phase_5,91,9999,9999,9999,3815594088
41,16,17,Jits_Phase_5,92,9999,9999,9999,3816093784
41,16,17,Jits_Phase_5,93,9999,9999,9999,3816593504
41,16,17,Jits_Phase_5,94,9999,9999,9999,3817093224
41,16,17,Jits_Phase_5,95,9999,9999,9999,3817593924
41,16,17,Jits_Phase_5,96,9999,9999,9999,3818093692
41,16,17,Jits_Phase_5,97,9999,9999,9999,3818543212
41,16,17,Jits_Phase_5,98,9999,9999,9999,3819043908
41,16,17,Jits_Phase_5,99,9999,9999,9999,3819543640
41,16,17,Jits_Phase_5,100,9999,9999,9999,3820043372
41,16,17,Jits_Phase_5,101,9999,9999,9999,3820544080
41,16,17,Jits_Phase_5,102,9999,9999,9999,3821054040
41,16,17,Jits_Phase_5,103,9999,9999,9999,3821553764
41,16,17,Jits_Phase_5,104,9999,9999,9999,3822053432
41,16,17,Jits_Phase_5,105,9999,9999,9999,3822553192
41,16,17,Jits_Phase_5,106,9999,9999,9999,3823053948
41,16,17,Jits_Phase_5,107,9999,9999,9999,3823553656
41,16,17,Jits_Phase_5,108,9999,9999,9999,3824053320
41,16,17,Jits_Phase_5,109,9999,9999,9999,3824554044
41,16,17,Jits_Phase_5,110,9999,9999,9999,3825053784
41,16,17,Jits_Phase_5,111,9999,9999,9999,3825553524
41,16,17,Jits_Phase_5,112,9999,9999,9999,3826053216
41,16,17,Jits_Phase_5,113,9999,9999,9999,3826553952
41,16,17,Jits_Phase_5,114,9999,9999,9999,3827103836
41,16,17,Jits_Phase_5,115,9999,9999,9999,3827603568
41,16,17,Jits_Phase_5,116,9999,9999,9999,3828103284
41,16,17,Jits_Phase_5,117,9999,9999,9999,3828603996
41,16,17,Jits_Phase_5,118,9999,9999,9999,3829103700
41,16,17,Jits_Phase_5,119,9999,9999,9999,3829603456
41,16,17,Jits_Phase_5,120,9999,9999,9999,3830103100
41,16,17,Jits_Phase_5,121,9999,9999,9999,3830603872
41,16,17,Jits_Phase_5,122,9999,9999,9999,3831103596
41,16,17,Jits_Phase_5,123,9999,9999,9999,3831603280
41,16,17,Jits_Phase_5,124,9999,9999,9999,3832104012
41,16,17,Jits_Phase_5,125,9999,9999,9999,3832603708
41,16,17,Jits_Phase_5,126,9999,9999,9999,3833103424
41,16,17,Jits_Phase_5,127,9999,9999,9999,3833603196
41,16,17,Jits_Phase_5,128,9999,9999,9999,3834103908
41,16,17,Jits_Phase_5,129,9999,9999,9999,3834603616
41,16,17,Jits_Phase_5,130,9999,9999,9999,3835103292
41,16,17,Jits_Phase_5,131,9999,9999,9999,3835703392
41,16,17,Jits_Phase_5,132,9999,9999,9999,3836203112
41,16,17,Jits_Phase_5,133,9999,9999,9999,3836703872
41,16,17,Jits_Phase_5,134,9999,9999,9999,3837203576
41,16,17,Jits_Phase_5,135,9999,9999,9999,3837703248
41,16,17,Jits_Phase_5,136,9999,9999,9999,3838204028
41,16,17,Jits_Phase_5,137,9999,9999,9999,3838703684
41,16,17,Jits_Phase_5,138,9999,9999,9999,3839203428
41,16,17,Jits_Phase_5,139,9999,9999,9999,3839703104
41,16,17,Jits_Phase_5,140,9999,9999,9999,3840203860
41,16,17,Jits_Phase_5,141,9999,9999,9999,3840703548
41,16,17,Jits_Phase_5,142,9999,9999,9999,3841203316
41,16,17,Jits_Phase_5,143,9999,9999,9999,3841704060
41,16,17,Jits_Phase_5,144,9999,9999,9999,3842203728
41,16,17,Jits_Phase_5,145,9999,9999,9999,3842703444
41,16,17,Jits_Phase_5,146,9999,9999,9999,3843203180
41,16,17,Jits_Phase_5,147,9999,9999,9999,3843703916
41,16,17,Jits_Phase_5,148,9999,9999,9999,3844203616
41,16,17,Jits_Phase_5,149,9999,9999,9999,3844703288
41,16,17,Jits_Phase_5,150,9999,9999,9999,3845103696
41,16,17,Jits_Phase_5,151,9999,9999,9999,3845603384
41,16,17,Jits_Phase_5,152,9999,9999,9999,3846103096
41,16,17,Jits_Phase_5,153,9999,9999,9999,3846603840
41,16,17,Jits_Phase_5,154,9999,9999,9999,3847103560
41,16,17,Jits_Phase_5,155,9999,9999,9999,3847603320
41,16,17,Jits_Phase_5,156,9999,9999,9999,3848104060
41,16,17,Jits_Phase_5,157,9999,9999,9999,3848603760
41,16,17,Jits_Phase_5,158,9999,9999,9999,3849103468
41,16,17,Jits_Phase_5,159,9999,9999,9999,3849603140
41,16,17,Jits_Phase_5,160,9999,9999,9999,3850103896
41,16,17,Jits_Phase_5,161,9999,9999,9999,3850603620
41,16,17,Jits_Phase_5,162,9999,9999,9999,3851103340
41,16,17,Jits_Phase_5,163,9999,9999,9999,3851604060
41,16,17,Jits_Phase_5,164,9999,9999,9999,3852103764
41,16,17,Jits_Phase_5,165,9999,9999,9999,3852603472
41,16,17,Jits_Phase_5,166,9999,9999,9999,3853103160
41,16,17,Jits_Phase_5,167,9999,9999,9999,3853603960
41,16,17,Jits_Phase_5,168,9999,9999,9999,3854103616
41,16,17,Jits_Phase_5,169,9999,9999,9999,3854603340
41,17,15,Jits_Phase_8,0,5,56,103,3863855668
41,17,15,Jits_Phase_8,1,5,63,98,3863858696
41,17,15,Jits_Phase_8,2,5,80,127,3863861812
41,17,15,Jits_Phase_8,0,5,56,103,3864656288
41,17,15,Jits_Phase_8,1,5,63,98,3864659608
41,17,15,Jits_Phase_8,2,5,80,127,3864662580
41,17,15,Jits_Phase_8,0,5,80,127,3865395636
41,17,15,Jits_Phase_8,1,1,48,83,3865409916
41,17,15,Jits_Phase_8,2,1,48,48,3865453560
41,17,15,Jits_Phase_8,3,5,63,98,3865485816
41,17,15,Jits_Phase_8,4,5,56,103,3865495936
41,17,15,Jits_Phase_8,0,5,56,103,3866215744
41,17,15,Jits_Phase_8,1,5,63,98,3866226016
41,17,15,Jits_Phase_8,2,1,48,92,3866273400
41,17,15,Jits_Phase_8,3,1,48,59,3866306584
41,17,15,Jits_Phase_8,4,5,80,127,3866316192
41,17,15,Jits_Phase_8,5,1,48,45,3866333464
41,17,15,Jits_Phase_8,0,5,63,98,3866985760
41,17,15,Jits_Phase_8,1,5,80,127,3867015512
41,17,15,Jits_Phase_8,2,5,56,103,3867046456
41,17,15,Jits_Phase_8,3,1,48,76,3867057296
41,17,15,Jits_Phase_8,4,1,38,18,3867067464
41,17,15,Jits_Phase_8,5,1,48,36,3867102340
41,17,15,Jits_Phase_8,0,1,48,95,3867737804
41,17,15,Jits_Phase_8,1,1,48,47,3867781680
41,17,15,Jits_Phase_8,2,5,56,103,3867785464
41,17,15,Jits_Phase_8,3,5,80,127,3867886144
41,17,15,Jits_Phase_8,4,5,63,98,3867936272
41,17,15,Jits_Phase_8,0,5,56,103,3868586332
41,17,15,Jits_Phase_8,1,5,80,127,3868635560
41,17,15,Jits_Phase_8,2,1,48,93,3868645580
41,17,15,Jits_Phase_8,3,5,63,98,3868675344
41,17,15,Jits_Phase_8,4,1,48,43,3868682336
41,17,15,Jits_Phase_8,0,1,48,94,3869395544
41,17,15,Jits_Phase_8,1,5,80,127,3869415648
41,17,15,Jits_Phase_8,2,1,48,50,3869432976
41,17,15,Jits_Phase_8,3,5,63,98,3869445452
41,17,15,Jits_Phase_8,4,5,56,103,3869516348
41,17,15,Jits_Phase_8,0,1,48,92,3870190976
41,17,15,Jits_Phase_8,1,1,48,48,3870224608
41,17,15,Jits_Phase_8,2,5,63,98,3870246380
41,17,15,Jits_Phase_8,3,5,56,103,3870275904
41,17,15,Jits_Phase_8,4,5,80,127,3870336356
41,17,15,Jits_Phase_8,0,5,56,103,3870985484
41,17,15,Jits_Phase_8,1,5,80,127,3870988484
41,17,15,Jits_Phase_8,2,1,48,79,3871038604
41,17,15,Jits_Phase_8,3,1,38,18,3871048996
41,17,15,Jits_Phase_8,4,1,48,46,3871070324
41,17,15,Jits_Phase_8,5,5,63,98,3871106536
41,17,15,Jits_Phase_8,0,1,48,84,3871800712
41,17,15,Jits_Phase_8,1,1,38,19,3871811180
41,17,15,Jits_Phase_8,2,5,56,103,3871866280
41,17,15,Jits_Phase_8,3,5,80,127,3871906104
41,17,15,Jits_Phase_8,4,5,63,98,3871916300
41,17,15,Jits_Phase_8,0,5,56,103,3872625996
41,17,15,Jits_Phase_8,1,5,80,127,3872645556
41,17,15,Jits_Phase_8,2,1,48,90,3872671968
41,17,15,Jits_Phase_8,3,1,48,60,3872699292
41,17,15,Jits_Phase_8,4,5,63,98,3872726368
41,17,15,Jits_Phase_8,0,1,48,86,3873396848
41,17,15,Jits_Phase_8,1,5,80,127,3873415604
41,17,15,Jits_Phase_8,2,5,56,103,3873515836
41,17,15,Jits_Phase_8,3,5,63,98,3873526032
41,17,15,Jits_Phase_8,0,5,63,98,3874185628
41,17,15,Jits_Phase_8,1,1,48,94,3874225684
41,17,15,Jits_Phase_8,2,5,80,127,3874246012
41,17,15,Jits_Phase_8,3,5,56,103,3874256356
41,17,15,Jits_Phase_8,4,1,48,42,3874273084
41,17,15,Jits_Phase_8,0,5,56,103,3874986312
41,17,15,Jits_Phase_8,1,1,48,98,3875007564
41,17,15,Jits_Phase_8,2,5,63,98,3875055984
41,17,15,Jits_Phase_8,3,5,80,127,3875059572
41,17,15,Jits_Phase_8,4,1,48,30,3875073776
41,17,15,Jits_Phase_8,0,1,48,97,3875745240
41,17,15,Jits_Phase_8,1,5,63,98,3875815916
41,17,15,Jits_Phase_8,2,5,56,103,3875866248
41,17,15,Jits_Phase_8,3,5,80,127,3875869240
41,17,15,Jits_Phase_8,0,5,56,103,3876575504
41,17,15,Jits_Phase_8,1,5,80,127,3876578576
41,17,15,Jits_Phase_8,2,1,48,96,3876582816
41,17,15,Jits_Phase_8,3,1,48,33,3876656472
41,17,15,Jits_Phase_8,4,5,63,98,3876665784
41,17,15,Jits_Phase_8,0,5,63,98,3877416232
41,17,15,Jits_Phase_8,1,1,48,93,3877418540
41,17,15,Jits_Phase_8,2,5,56,103,3877506284
41,17,15,Jits_Phase_8,3,5,80,127,3877536244
41,17,15,Jits_Phase_8,0,5,56,103,3878205808
41,17,15,Jits_Phase_8,1,1,48,84,3878239940
41,17,15,Jits_Phase_8,2,1,48,60,3878265028
41,17,15,Jits_Phase_8,3,5,63,98,3878306104
41,17,15,Jits_Phase_8,4,5,80,127,3878336004
41,17,15,Jits_Phase_8,0,5,63,98,3879026000
41,17,15,Jits_Phase_8,1,5,56,103,3879036268
41,17,15,Jits_Phase_8,2,1,48,92,3879054752
41,17,15,Jits_Phase_8,3,5,80,127,3879126320
41,17,15,Jits_Phase_8,0,5,63,98,3879846132
41,17,15,Jits_Phase_8,1,1,48,93,3879880488
41,17,15,Jits_Phase_8,2,5,56,103,3879926068
41,17,15,Jits_Phase_8,3,5,80,127,3879929136
41,17,15,Jits_Phase_8,0,5,80,127,3880606028
41,17,15,Jits_Phase_8,1,5,63,98,3880625516
41,17,15,Jits_Phase_8,2,1,48,86,3880671632
41,17,15,Jits_Phase_8,3,5,56,103,3880686048
41,17,15,Jits_Phase_8,0,1,48,92,3881445436
41,17,15,Jits_Phase_8,1,5,56,103,3881447072
41,17,15,Jits_Phase_8,2,5,63,98,3881466104
41,17,15,Jits_Phase_8,3,5,80,127,3881469400
41,17,15,Jits_Phase_8,0,5,63,98,3882186072
41,17,15,Jits_Phase_8,1,1,48,98,3882244412
41,17,15,Jits_Phase_8,2,5,80,127,3882266008
41,17,15,Jits_Phase_8,3,1,48,52,3882271280
41,17,15,Jits_Phase_8,4,5,56,103,3882276180
41,17,15,Jits_Phase_8,0,5,63,98,3883006240
41,17,15,Jits_Phase_8,1,5,56,103,3883025800
41,17,15,Jits_Phase_8,2,1,48,88,3883051188
41,17,15,Jits_Phase_8,3,5,80,127,3883075944
41,17,15,Jits_Phase_8,0,1,48,83,3883800716
41,17,15,Jits_Phase_8,1,5,80,127,3883806140
41,17,15,Jits_Phase_8,2,1,38,19,3883810904
41,17,15,Jits_Phase_8,3,5,63,98,3883845948
41,17,15,Jits_Phase_8,4,5,56,103,3883865360
41,17,15,Jits_Phase_8,0,1,48,100,3884567080
41,17,15,Jits_Phase_8,1,1,48,51,3884594956
41,17,15,Jits_Phase_8,2,5,56,103,3884645852
41,17,15,Jits_Phase_8,3,5,63,98,3884656120
41,17,15,Jits_Phase_8,4,5,80,127,3884675308
41,17,15,Jits_Phase_8,0,1,48,90,3885367744
41,17,15,Jits_Phase_8,1,5,56,103,3885375936
41,17,15,Jits_Phase_8,2,5,63,98,3885465908
41,17,15,Jits_Phase_8,3,5,80,127,3885526368
41,17,15,Jits_Phase_8,0,1,48,95,3886200456
41,17,15,Jits_Phase_8,1,5,80,127,3886206256
41,17,15,Jits_Phase_8,2,5,56,103,3886215704
41,17,15,Jits_Phase_8,3,1,48,56,3886226224
41,17,15,Jits_Phase_8,4,5,63,98,3886286256
41,17,15,Jits_Phase_8,0,5,63,98,3887035720
41,17,15,Jits_Phase_8,1,1,48,117,3887063868
41,17,15,Jits_Phase_8,2,1,48,61,3887091104
41,17,15,Jits_Phase_8,3,5,80,127,3887125824
41,17,15,Jits_Phase_8,4,5,56,103,3887136168
41,17,15,Jits_Phase_8,0,5,63,98,3887765776
41,17,15,Jits_Phase_8,1,5,80,127,3887815980
41,17,15,Jits_Phase_8,2,5,56,103,3887875692
41,17,15,Jits_Phase_8,3,1,48,114,3887878664
41,17,15,Jits_Phase_8,4,1,48,52,3887908908
41,17,15,Jits_Phase_8,0,5,56,103,3888586152
41,17,15,Jits_Phase_8,1,1,48,103,3888595644
41,17,15,Jits_Phase_8,2,1,48,52,3888625968
41,17,15,Jits_Phase_8,3,5,80,127,3888636400
41,17,15,Jits_Phase_8,4,5,63,98,3888655664
41,17,15,Jits_Phase_8,0,5,56,103,3889356076
41,17,15,Jits_Phase_8,1,5,80,127,3889415792
41,17,15,Jits_Phase_8,2,1,48,100,3889418836
41,17,15,Jits_Phase_8,3,1,48,57,3889452172
41,17,15,Jits_Phase_8,4,5,63,98,3889486068
41,17,15,Jits_Phase_8,0,5,56,103,3890155744
41,17,15,Jits_Phase_8,1,5,80,127,3890185568
41,17,15,Jits_Phase_8,2,1,48,87,3890213796
41,17,15,Jits_Phase_8,3,5,63,98,3890216532
41,17,15,Jits_Phase_8,4,1,48,49,3890245556
41,17,15,Jits_Phase_8,0,1,48,79,3890977460
41,17,15,Jits_Phase_8,1,5,56,103,3890995644
41,17,15,Jits_Phase_8,2,1,48,50,3891003304
41,17,15,Jits_Phase_8,3,5,80,127,3891016008
41,17,15,Jits_Phase_8,4,5,63,98,3891075720
41,17,15,Jits_Phase_8,0,1,48,89,3891787760
41,17,15,Jits_Phase_8,1,5,80,127,3891876348
41,17,15,Jits_Phase_8,2,5,56,103,3891885424
41,17,15,Jits_Phase_8,3,5,63,98,3891895532
41,17,15,Jits_Phase_8,0,1,48,77,3892616900
41,17,15,Jits_Phase_8,1,5,56,103,3892635960
41,17,15,Jits_Phase_8,2,1,48,49,3892650000
41,17,15,Jits_Phase_8,3,5,80,127,3892675952
41,17,15,Jits_Phase_8,4,5,63,98,3892705772
41,17,15,Jits_Phase_8,0,5,56,103,3893406016
41,17,15,Jits_Phase_8,1,5,63,98,3893435692
41,17,15,Jits_Phase_8,2,1,48,86,3893452660
41,17,15,Jits_Phase_8,3,5,80,127,3893475696
41,17,15,Jits_Phase_8,0,5,80,127,3894155596
41,17,15,Jits_Phase_8,1,5,63,98,3894205796
41,17,15,Jits_Phase_8,2,1,48,97,3894210184
41,17,15,Jits_Phase_8,3,5,56,103,3894226396
41,17,15,Jits_Phase_8,4,1,48,55,3894235724
41,17,15,Jits_Phase_8,0,5,56,103,3894986184
41,17,15,Jits_Phase_8,1,1,48,89,3895004296
41,17,15,Jits_Phase_8,2,5,80,127,3895055712
41,17,15,Jits_Phase_8,3,5,63,98,3895116108
41,17,15,Jits_Phase_8,0,5,80,127,3895785960
41,17,15,Jits_Phase_8,1,1,48,84,3895841444
41,17,15,Jits_Phase_8,2,1,48,52,3895869848
41,17,15,Jits_Phase_8,3,5,63,98,3895876092
41,17,15,Jits_Phase_8,4,5,56,103,3895896552
41,17,15,Jits_Phase_8,0,5,63,98,3896606152
41,17,15,Jits_Phase_8,1,5,56,103,3896625512
41,17,15,Jits_Phase_8,2,5,80,127,3896665600
41,17,15,Jits_Phase_8,3,1,48,96,3896686924
41,17,15,Jits_Phase_8,4,1,48,46,3896724060
41,17,15,Jits_Phase_8,0,5,80,127,3897365936
41,17,15,Jits_Phase_8,1,5,63,98,3897386268
41,17,15,Jits_Phase_8,2,1,48,89,3897430888
41,17,15,Jits_Phase_8,3,5,56,103,3897466428
41,17,15,Jits_Phase_8,0,5,63,98,3898156440
41,17,15,Jits_Phase_8,1,1,48,96,3898235828
41,17,15,Jits_Phase_8,2,5,56,103,3898266044
41,17,15,Jits_Phase_8,3,5,80,127,3898268960
41,17,15,Jits_Phase_8,4,1,48,47,3898281280
41,17,15,Jits_Phase_8,0,5,63,98,3898975480
41,17,15,Jits_Phase_8,1,5,56,103,3898986120
41,17,15,Jits_Phase_8,2,5,80,127,3898989184
41,17,15,Jits_Phase_8,3,1,48,78,3899060624
41,17,15,Jits_Phase_8,4,1,38,18,3899071016
41,17,15,Jits_Phase_8,5,1,48,23,3899241264
41,17,15,Jits_Phase_8,0,5,56,103,3899755784
41,17,15,Jits_Phase_8,1,1,48,74,3899771704
41,17,15,Jits_Phase_8,2,1,48,28,3899852520
41,17,15,Jits_Phase_8,3,5,80,127,3899875708
41,17,15,Jits_Phase_8,4,5,63,98,3899915572
41,17,15,Jits_Phase_8,0,5,56,103,3900576268
41,17,15,Jits_Phase_8,1,1,48,77,3900579680
41,17,15,Jits_Phase_8,2,5,80,127,3900656280
41,17,15,Jits_Phase_8,3,5,63,98,3900675396
41,17,15,Jits_Phase_8,4,1,48,24,3900679544
41,17,15,Jits_Phase_8,0,1,48,81,3901362844
41,17,15,Jits_Phase_8,1,5,56,103,3901375916
41,17,15,Jits_Phase_8,2,1,48,43,3901439256
41,17,15,Jits_Phase_8,3,5,63,98,3901485384
41,17,15,Jits_Phase_8,4,5,80,127,3901488744
41,17,15,Jits_Phase_8,0,5,56,103,3902215420
41,17,15,Jits_Phase_8,1,1,48,85,3902225956
41,17,15,Jits_Phase_8,2,5,80,127,3902246456
41,17,15,Jits_Phase_8,3,5,63,98,3902265644
41,17,15,Jits_Phase_8,4,1,48,29,3902303124
41,17,15,Jits_Phase_8,0,1,48,76,3902979372
41,17,15,Jits_Phase_8,1,5,63,98,3903006000
41,17,15,Jits_Phase_8,2,5,56,103,3903016220
41,17,15,Jits_Phase_8,3,5,80,127,3903025520
41,17,15,Jits_Phase_8,4,1,48,35,3903041276
41,17,15,Jits_Phase_8,0,1,48,100,3903767392
41,17,15,Jits_Phase_8,1,5,80,127,3903795544
41,17,15,Jits_Phase_8,2,1,48,50,3903819772
41,17,15,Jits_Phase_8,3,5,56,103,3903845800
41,17,15,Jits_Phase_8,4,1,48,26,3903878424
41,17,15,Jits_Phase_8,5,5,63,98,3903885716
41,17,15,Jits_Phase_8,0,1,48,95,3904580904
41,17,15,Jits_Phase_8,1,5,80,127,3904615928
41,17,15,Jits_Phase_8,2,5,63,98,3904636236
41,17,15,Jits_Phase_8,3,1,48,41,3904645936
41,17,15,Jits_Phase_8,4,5,56,103,3904685296
41,17,15,Jits_Phase_8,0,1,48,94,3905426280
41,17,15,Jits_Phase_8,1,5,80,127,3905427844
41,17,15,Jits_Phase_8,2,5,56,103,3905455428
41,17,15,Jits_Phase_8,3,1,48,48,3905469988
41,17,15,Jits_Phase_8,4,5,63,98,3905526056
41,17,15,Jits_Phase_8,0,1,48,99,3906245148
41,17,15,Jits_Phase_8,1,5,56,103,3906275592
41,17,15,Jits_Phase_8,2,5,80,127,3906286232
41,17,15,Jits_Phase_8,3,5,63,98,3906326024
41,17,15,Jits_Phase_8,4,1,48,33,3906328096
41,17,15,Jits_Phase_8,0,5,56,103,3906986456
41,17,15,Jits_Phase_8,1,5,63,98,3907005872
41,17,15,Jits_Phase_8,2,5,80,127,3907075324
41,17,15,Jits_Phase_8,3,1,48,85,3907108956
41,17,15,Jits_Phase_8,4,1,48,44,3907164896
41,17,15,Jits_Phase_8,5,1,48,25,3907226828
41,17,15,Jits_Phase_8,0,5,63,98,3907805700
41,17,15,Jits_Phase_8,1,1,48,92,3907807860
41,17,15,Jits_Phase_8,2,5,80,127,3907866160
41,17,15,Jits_Phase_8,3,1,48,36,3907869788
41,17,15,Jits_Phase_8,4,5,56,103,3907885276
41,17,15,Jits_Phase_8,0,5,80,127,3908596200
41,17,15,Jits_Phase_8,1,5,56,103,3908625724
41,17,15,Jits_Phase_8,2,1,48,94,3908626692
41,17,15,Jits_Phase_8,3,5,63,98,3908655416
41,17,15,Jits_Phase_8,4,1,48,49,3908674108
41,17,15,Jits_Phase_8,0,5,56,103,3909396148
41,17,15,Jits_Phase_8,1,1,48,104,3909413292
41,17,15,Jits_Phase_8,2,5,63,98,3909456184
41,17,15,Jits_Phase_8,3,1,48,46,3909464688
41,17,15,Jits_Phase_8,4,5,80,127,3909515728
41,17,15,Jits_Phase_8,0,5,80,127,3910215996
41,17,15,Jits_Phase_8,1,1,48,88,3910220908
41,17,15,Jits_Phase_8,2,5,56,103,3910235476
41,17,15,Jits_Phase_8,3,1,48,54,3910266672
41,17,15,Jits_Phase_8,4,5,63,98,3910306032
41,17,15,Jits_Phase_8,0,5,80,127,3911015948
41,17,15,Jits_Phase_8,1,1,48,91,3911025368
41,17,15,Jits_Phase_8,2,5,63,98,3911036328
41,17,15,Jits_Phase_8,3,5,56,103,3911065928
41,17,15,Jits_Phase_8,4,1,48,39,3911101088
41,17,15,Jits_Phase_8,0,5,80,127,3911806384
41,17,15,Jits_Phase_8,1,5,63,98,3911825944
41,17,15,Jits_Phase_8,2,1,48,80,3911827584
41,17,15,Jits_Phase_8,3,1,48,42,3911887508
41,17,15,Jits_Phase_8,4,5,56,103,3911888696
41,17,15,Jits_Phase_8,0,5,80,127,3912606036
41,17,15,Jits_Phase_8,1,1,48,92,3912656064
41,17,15,Jits_Phase_8,2,5,56,103,3912706724
41,17,15,Jits_Phase_8,3,1,48,45,3912714264
41,17,15,Jits_Phase_8,4,5,63,98,3912736080
41,17,15,Jits_Phase_8,5,1,48,26,3912771416
41,17,15,Jits_Phase_8,0,5,63,98,3913395696
41,17,15,Jits_Phase_8,1,5,80,127,3913445752
41,17,15,Jits_Phase_8,2,5,56,103,3913466284
41,17,15,Jits_Phase_8,3,1,48,89,3913491944
41,17,15,Jits_Phase_8,4,1,48,51,3913533448
41,17,15,Jits_Phase_8,0,1,48,90,3914210204
41,17,15,Jits_Phase_8,1,5,80,127,3914236160
41,17,15,Jits_Phase_8,2,5,56,103,3914265984
41,17,15,Jits_Phase_8,3,5,63,98,3914269048
41,17,15,Jits_Phase_8,4,1,48,32,3914284920
41,17,15,Jits_Phase_8,0,1,48,87,3914938812
41,17,15,Jits_Phase_8,1,1,48,38,3914997680
41,17,15,Jits_Phase_8,2,5,63,98,3915086144
41,17,15,Jits_Phase_8,3,5,56,103,3915126068
41,17,15,Jits_Phase_8,4,5,80,127,3915145776
41,17,15,Jits_Phase_8,0,5,80,127,3915846036
41,17,15,Jits_Phase_8,1,1,48,96,3915878820
41,17,15,Jits_Phase_8,2,5,63,98,3915925900
41,17,15,Jits_Phase_8,3,1,48,43,3915938144
41,17,15,Jits_Phase_8,4,5,56,103,3915965740
41,17,15,Jits_Phase_8,5,1,48,26,3915990860
41,17,15,Jits_Phase_8,0,5,63,98,3916666332
41,17,15,Jits_Phase_8,1,1,48,94,3916699120
41,17,15,Jits_Phase_8,2,5,80,127,3916746196
41,17,15,Jits_Phase_8,3,5,56,103,3916765608
41,17,15,Jits_Phase_8,4,1,48,27,3916797184
41,17,15,Jits_Phase_8,0,1,48,83,3917476808
41,17,15,Jits_Phase_8,1,5,56,103,3917505908
41,17,15,Jits_Phase_8,2,5,63,98,3917516180
41,17,15,Jits_Phase_8,3,1,48,44,3917529248
41,17,15,Jits_Phase_8,4,5,80,127,3917555944
41,17,15,Jits_Phase_8,0,5,56,103,3918225764
41,17,15,Jits_Phase_8,1,5,80,127,3918228828
41,17,15,Jits_Phase_8,2,1,48,89,3918264400
41,17,15,Jits_Phase_8,3,1,48,47,3918307676
41,17,15,Jits_Phase_8,4,5,63,98,3918366060
41,17,15,Jits_Phase_8,0,5,56,103,3919016564
41,17,15,Jits_Phase_8,1,1,48,84,3919022676
41,17,15,Jits_Phase_8,2,1,48,36,3919080344
41,17,15,Jits_Phase_8,3,5,63,98,3919106524
41,17,15,Jits_Phase_8,4,5,80,127,3919176004
41,17,15,Jits_Phase_8,0,1,48,93,3919889468
41,17,15,Jits_Phase_8,1,5,63,98,3919895864
41,17,15,Jits_Phase_8,2,5,80,127,3919899524
41,17,15,Jits_Phase_8,3,5,56,103,3919956500
41,17,15,Jits_Phase_8,4,1,48,40,3919959976
41,17,15,Jits_Phase_8,0,5,80,127,3920735688
41,17,15,Jits_Phase_8,1,1,48,86,3920749440
41,17,15,Jits_Phase_8,2,5,56,103,3920756068
41,17,15,Jits_Phase_8,3,5,63,98,3920766412
41,17,15,Jits_Phase_8,4,1,48,35,3920822548
41,17,15,Jits_Phase_8,0,5,56,103,3921446196
41,17,15,Jits_Phase_8,1,5,63,98,3921455644
41,17,15,Jits_Phase_8,2,5,80,127,3921526072
41,17,15,Jits_Phase_8,3,1,48,91,3921536088
41,17,15,Jits_Phase_8,4,1,48,38,3921596964
41,17,15,Jits_Phase_8,0,5,80,127,3922246000
41,17,15,Jits_Phase_8,1,1,48,82,3922260872
41,17,15,Jits_Phase_8,2,5,56,103,3922296196
41,17,15,Jits_Phase_8,3,1,48,36,3922330688
41,17,15,Jits_Phase_8,4,5,63,98,3922346448
41,17,15,Jits_Phase_8,0,1,48,75,3923059928
41,17,15,Jits_Phase_8,1,1,48,54,3923092412
41,17,15,Jits_Phase_8,2,5,56,103,3923125644
41,17,15,Jits_Phase_8,3,5,63,98,3923135912
41,17,15,Jits_Phase_8,4,5,80,127,3923175776
41,17,15,Jits_Phase_8,0,1,48,81,3923863932
41,17,15,Jits_Phase_8,1,5,56,103,3923865900
41,17,15,Jits_Phase_8,2,1,48,54,3923897100
41,17,15,Jits_Phase_8,3,5,63,98,3923905968
41,17,15,Jits_Phase_8,4,5,80,127,3923956020
41,17,15,Jits_Phase_8,0,5,80,127,3924625844
41,17,15,Jits_Phase_8,1,5,56,103,3924675820
41,17,15,Jits_Phase_8,2,1,48,76,3924684868
41,17,15,Jits_Phase_8,3,5,63,98,3924696644
41,17,15,Jits_Phase_8,4,1,48,53,3924717356
41,17,15,Jits_Phase_8,0,5,80,127,3925435832
41,17,15,Jits_Phase_8,1,1,48,88,3925450556
41,17,15,Jits_Phase_8,2,1,48,56,3925484936
41,17,15,Jits_Phase_8,3,5,63,98,3925496268
41,17,15,Jits_Phase_8,4,5,56,103,3925576012
41,17,15,Jits_Phase_8,0,5,80,127,3926216308
41,17,15,Jits_Phase_8,1,5,56,103,3926255952
41,17,15,Jits_Phase_8,2,5,63,98,3926275436
41,17,15,Jits_Phase_8,3,1,48,97,3926289940
41,17,15,Jits_Phase_8,4,1,48,61,3926317440
41,17,15,Jits_Phase_8,0,5,56,103,3927065936
41,17,15,Jits_Phase_8,1,5,80,127,3927076380
41,17,15,Jits_Phase_8,2,1,48,84,3927101672
41,17,15,Jits_Phase_8,3,5,63,98,3927116160
41,17,15,Jits_Phase_8,4,1,48,53,3927131096
41,17,15,Jits_Phase_8,0,1,48,76,3927910604
41,17,15,Jits_Phase_8,1,5,56,103,3927936408
41,17,15,Jits_Phase_8,2,5,63,98,3927976344
41,17,15,Jits_Phase_8,3,5,80,127,3927979560
41,17,15,Jits_Phase_8,0,5,63,98,3928606236
41,17,15,Jits_Phase_8,1,5,80,127,3928645904
41,17,15,Jits_Phase_8,2,5,56,103,3928715508
41,17,15,Jits_Phase_8,3,1,48,95,3928736456
41,17,15,Jits_Phase_8,4,1,48,45,3928776888
41,17,15,Jits_Phase_8,0,5,63,98,3929376284
41,17,15,Jits_Phase_8,1,1,48,82,3929451048
41,17,15,Jits_Phase_8,2,5,56,103,3929455952
41,17,15,Jits_Phase_8,3,1,48,51,3929489544
41,17,15,Jits_Phase_8,4,5,80,127,3929516468
41,17,15,Jits_Phase_8,0,5,80,127,3930186140
41,17,15,Jits_Phase_8,1,1,48,90,3930228216
41,17,15,Jits_Phase_8,2,5,63,98,3930236412
41,17,15,Jits_Phase_8,3,1,48,50,3930263948
41,17,15,Jits_Phase_8,4,5,56,103,3930266064
41,17,15,Jits_Phase_8,0,5,56,103,3930975604
41,17,15,Jits_Phase_8,1,1,48,80,3931014316
41,17,15,Jits_Phase_8,2,5,63,98,3931025800
41,17,15,Jits_Phase_8,3,5,80,127,3931036292
41,17,15,Jits_Phase_8,4,1,48,42,3931056484
41,17,15,Jits_Phase_8,0,1,48,89,3931772068
41,17,15,Jits_Phase_8,1,5,56,103,3931785512
41,17,15,Jits_Phase_8,2,1,48,51,3931800076
41,17,15,Jits_Phase_8,3,5,63,98,3931896288
41,17,15,Jits_Phase_8,4,5,80,127,3931915624
41,17,15,Jits_Phase_8,0,5,63,98,3932586288
41,17,15,Jits_Phase_8,1,1,48,87,3932604320
41,17,15,Jits_Phase_8,2,5,80,127,3932635364
41,17,15,Jits_Phase_8,3,1,48,55,3932637732
41,17,15,Jits_Phase_8,4,5,56,103,3932725644
41,17,15,Jits_Phase_8,0,5,63,98,3933375960
41,17,15,Jits_Phase_8,1,5,80,127,3933405636
41,17,15,Jits_Phase_8,2,5,56,103,3933495644
41,17,15,Jits_Phase_8,3,1,48,99,3933516144
41,17,15,Jits_Phase_8,4,1,48,54,3933547808
41,17,15,Jits_Phase_8,0,5,63,98,3934175596
41,17,15,Jits_Phase_8,1,5,56,103,3934185796
41,17,15,Jits_Phase_8,2,5,80,127,3934286136
41,17,15,Jits_Phase_8,3,1,48,94,3934287700
41,17,15,Jits_Phase_8,4,1,48,56,3934318676
41,17,15,Jits_Phase_8,0,1,48,108,3935051708
41,17,15,Jits_Phase_8,1,5,63,98,3935075796
41,17,15,Jits_Phase_8,2,1,48,52,3935083384
41,17,15,Jits_Phase_8,3,5,80,127,3935106276
41,17,15,Jits_Phase_8,4,5,56,103,3935136100
41,17,15,Jits_Phase_8,0,1,48,89,3935874548
41,17,15,Jits_Phase_8,1,5,80,127,3935895848
41,17,15,Jits_Phase_8,2,5,63,98,3935906120
41,17,15,Jits_Phase_8,3,5,56,103,3935935868
41,17,15,Jits_Phase_8,0,5,80,127,3936596276
41,17,15,Jits_Phase_8,1,5,63,98,3936616060
41,17,15,Jits_Phase_8,2,5,56,103,3936666184
41,17,15,Jits_Phase_8,3,1,48,90,3936696356
41,17,15,Jits_Phase_8,4,1,48,51,3936732280
41,17,15,Jits_Phase_8,0,5,63,98,3937425888
41,17,15,Jits_Phase_8,1,1,48,98,3937435908
41,17,15,Jits_Phase_8,2,1,48,52,3937473796
41,17,15,Jits_Phase_8,3,5,80,127,3937486104
41,17,15,Jits_Phase_8,4,5,56,103,3937505740
41,17,15,Jits_Phase_8,0,5,63,98,3938185452
41,17,15,Jits_Phase_8,1,5,56,103,3938235948
41,17,15,Jits_Phase_8,2,5,80,127,3938246144
41,17,15,Jits_Phase_8,3,1,48,91,3938259676
41,17,15,Jits_Phase_8,4,1,48,57,3938294876
41,17,15,Jits_Phase_8,0,5,56,103,3939016100
41,17,15,Jits_Phase_8,1,5,80,127,3939026372
41,17,15,Jits_Phase_8,2,1,48,89,3939042820
41,17,15,Jits_Phase_8,3,1,48,51,3939079060
41,17,15,Jits_Phase_8,4,5,63,98,3939125492
41,17,15,Jits_Phase_8,0,5,80,127,3939776048
41,17,15,Jits_Phase_8,1,5,63,98,3939786096
41,17,15,Jits_Phase_8,2,1,48,89,3939817088
41,17,15,Jits_Phase_8,3,1,48,53,3939856096
41,17,15,Jits_Phase_8,4,5,56,103,3939935484
41,17,15,Jits_Phase_8,0,5,63,98,3940585964
41,17,15,Jits_Phase_8,1,1,48,95,3940615836
41,17,15,Jits_Phase_8,2,5,80,127,3940625896
41,17,15,Jits_Phase_8,3,1,48,57,3940651496
41,17,15,Jits_Phase_8,4,5,56,103,3940705840
41,17,15,Jits_Phase_8,0,5,56,103,3941336380
41,17,15,Jits_Phase_8,1,1,48,103,3941392684
41,17,15,Jits_Phase_8,2,1,48,56,3941430896
41,17,15,Jits_Phase_8,3,5,80,127,3941435728
41,17,15,Jits_Phase_8,4,5,63,98,3941456112
41,17,15,Jits_Phase_8,0,5,80,127,3942155756
41,17,15,Jits_Phase_8,1,5,56,103,3942165952
41,17,15,Jits_Phase_8,2,1,48,94,3942183024
41,17,15,Jits_Phase_8,3,1,48,50,3942219268
41,17,15,Jits_Phase_8,4,5,63,98,3942255932
41,17,15,Jits_Phase_8,0,5,56,103,3942956416
41,17,15,Jits_Phase_8,1,5,63,98,3942975976
41,17,15,Jits_Phase_8,2,1,48,84,3943007940
41,17,15,Jits_Phase_8,3,1,48,51,3943043660
41,17,15,Jits_Phase_8,4,5,80,127,3943055816
41,17,15,Jits_Phase_8,0,5,63,98,3943705928
41,17,15,Jits_Phase_8,1,1,48,102,3943750568
41,17,15,Jits_Phase_8,2,1,48,55,3943788988
41,17,15,Jits_Phase_8,3,5,56,103,3943796056
41,17,15,Jits_Phase_8,4,5,80,127,3943799196
41,17,15,Jits_Phase_8,0,5,56,103,3944536460
41,17,15,Jits_Phase_8,1,1,48,100,3944545200
41,17,15,Jits_Phase_8,2,1,48,58,3944581876
41,17,15,Jits_Phase_8,3,5,80,127,3944595776
41,17,15,Jits_Phase_8,4,5,63,98,3944606044
41,17,15,Jits_Phase_8,0,1,48,98,3945307920
41,17,15,Jits_Phase_8,1,1,48,59,3945346560
41,17,15,Jits_Phase_8,2,5,80,127,3945386444
41,17,15,Jits_Phase_8,3,5,56,103,3945395664
41,17,15,Jits_Phase_8,4,5,63,98,3945398656
41,17,15,Jits_Phase_8,0,1,48,100,3946084928
41,17,15,Jits_Phase_8,1,1,48,62,3946121980
41,17,15,Jits_Phase_8,2,5,56,103,3946146068
41,17,15,Jits_Phase_8,3,5,80,127,3946156340
41,17,15,Jits_Phase_8,4,5,63,98,3946176048
41,17,15,Jits_Phase_8,0,1,48,94,3946896504
41,17,15,Jits_Phase_8,1,5,63,98,3946916156
41,17,15,Jits_Phase_8,2,1,48,60,3946927580
41,17,15,Jits_Phase_8,3,5,80,127,3946975556
41,17,15,Jits_Phase_8,4,5,56,103,3947025740
41,17,15,Jits_Phase_8,0,1,48,88,3947677408
41,17,15,Jits_Phase_8,1,1,48,58,3947709824
41,17,15,Jits_Phase_8,2,5,63,98,3947795720
41,17,15,Jits_Phase_8,3,5,56,103,3947806048
41,17,15,Jits_Phase_8,4,5,80,127,3947856124
41,17,15,Jits_Phase_8,0,5,63,98,3948496272
41,17,15,Jits_Phase_8,1,5,80,127,3948515608
41,17,15,Jits_Phase_8,2,5,56,103,3948525880
41,17,15,Jits_Phase_8,3,1,48,85,3948528700
41,17,15,Jits_Phase_8,4,1,48,56,3948555948
41,17,15,Jits_Phase_8,0,1,48,86,3949292264
41,17,15,Jits_Phase_8,1,5,63,98,3949295972
41,17,15,Jits_Phase_8,2,5,80,127,3949299260
41,17,15,Jits_Phase_8,3,1,48,54,3949320572
41,17,15,Jits_Phase_8,4,5,56,103,3949335884
41,17,15,Jits_Phase_8,0,1,48,83,3950039520
41,17,15,Jits_Phase_8,1,1,48,56,3950069168
41,17,15,Jits_Phase_8,2,5,63,98,3950166532
41,17,15,Jits_Phase_8,3,5,80,127,3950196056
41,17,15,Jits_Phase_8,4,5,56,103,3950206180
41,17,15,Jits_Phase_8,0,1,48,80,3950853708
41,17,15,Jits_Phase_8,1,1,38,18,3950863728
41,17,15,Jits_Phase_8,2,1,48,52,3950886056
41,17,15,Jits_Phase_8,3,5,56,103,3950915896
41,17,15,Jits_Phase_8,4,5,80,127,3950945720
41,17,15,Jits_Phase_8,5,5,63,98,3950977520
41,17,15,Jits_Phase_8,0,1,48,86,3951629892
41,17,15,Jits_Phase_8,1,1,48,56,3951663076
41,17,15,Jits_Phase_8,2,5,63,98,3951816020
41,17,15,Jits_Phase_8,3,5,56,103,3951855956
41,17,15,Jits_Phase_8,4,5,80,127,3951859392
41,17,15,Jits_Phase_8,0,1,48,81,3952466280
41,17,15,Jits_Phase_8,1,1,48,57,3952503772
41,17,15,Jits_Phase_8,2,5,80,127,3952515580
41,17,15,Jits_Phase_8,3,5,56,103,3952596348
41,17,15,Jits_Phase_8,4,5,63,98,3952645412
41,17,15,Jits_Phase_8,0,1,48,81,3953238644
41,17,15,Jits_Phase_8,1,1,48,52,3953274892
41,17,15,Jits_Phase_8,2,5,80,127,3953295668
41,17,15,Jits_Phase_8,3,5,56,103,3953316352
41,17,15,Jits_Phase_8,4,5,63,98,3953406540
41,17,15,Jits_Phase_8,0,1,48,64,3953989656
41,17,15,Jits_Phase_8,1,5,80,127,3954136588
41,17,15,Jits_Phase_8,2,5,63,98,3954176380
41,17,15,Jits_Phase_8,3,5,56,103,3954216416
41,17,15,Jits_Phase_8,0,1,48,92,3954778400
41,17,15,Jits_Phase_8,1,1,48,58,3954812236
41,17,15,Jits_Phase_8,2,5,63,98,3954946444
41,17,15,Jits_Phase_8,3,5,80,127,3955005736
41,17,15,Jits_Phase_8,4,5,56,103,3955035636
41,17,15,Jits_Phase_8,0,1,48,77,3955602824
41,17,15,Jits_Phase_8,1,1,48,53,3955640188
41,17,15,Jits_Phase_8,2,5,56,103,3955786032
41,17,15,Jits_Phase_8,3,5,80,127,3955815784
41,17,15,Jits_Phase_8,4,5,63,98,3955905840
41,17,15,Jits_Phase_8,0,1,48,80,3956362968
41,17,15,Jits_Phase_8,1,1,48,56,3956393364
41,17,15,Jits_Phase_8,2,5,56,103,3956596076
41,17,15,Jits_Phase_8,3,5,80,127,3956705768
41,17,15,Jits_Phase_8,4,5,63,98,3956736488
41,17,15,Jits_Phase_8,0,1,48,67,3957171832
41,17,15,Jits_Phase_8,1,1,48,45,3957205240
41,17,15,Jits_Phase_8,2,5,56,103,3957446220
41,17,15,Jits_Phase_8,3,5,63,98,3957506464
41,17,15,Jits_Phase_8,4,5,80,127,3957536388
41,17,15,Jits_Phase_8,0,1,48,85,3957955760
41,17,15,Jits_Phase_8,1,1,48,56,3957990492
41,17,15,Jits_Phase_8,2,5,56,103,3958216348
41,17,15,Jits_Phase_8,3,5,63,98,3958285656
41,17,15,Jits_Phase_8,4,5,80,127,3958306364
41,17,15,Jits_Phase_8,0,5,80,127,3958986068
41,17,15,Jits_Phase_8,1,1,48,89,3959002960
41,17,15,Jits_Phase_8,2,5,63,98,3959005548
41,17,15,Jits_Phase_8,3,5,56,103,3959055672
41,17,15,Jits_Phase_8,4,1,48,54,3959063408
41,17,15,Jits_Phase_8,0,1,48,81,3959806320
41,17,15,Jits_Phase_8,1,5,63,98,3959807952
41,17,15,Jits_Phase_8,2,5,80,127,3959815464
41,17,15,Jits_Phase_8,3,5,56,103,3959865688
41,17,15,Jits_Phase_8,4,1,48,41,3959871108
41,17,15,Jits_Phase_8,0,1,48,103,3960597760
41,17,15,Jits_Phase_8,1,5,63,98,3960606176
41,17,15,Jits_Phase_8,2,1,48,42,3960667148
41,17,15,Jits_Phase_8,3,5,80,127,3960675636
41,17,15,Jits_Phase_8,4,5,56,103,3960696320
41,17,15,Jits_Phase_8,5,1,48,27,3960716732
41,17,15,Jits_Phase_8,0,1,48,87,3961417268
41,17,15,Jits_Phase_8,1,1,38,20,3961427288
41,17,15,Jits_Phase_8,2,5,63,98,3961435480
41,17,15,Jits_Phase_8,3,5,80,127,3961438844
41,17,15,Jits_Phase_8,4,1,48,45,3961467204
41,17,15,Jits_Phase_8,5,5,56,103,3961506108
41,17,15,Jits_Phase_8,0,5,80,127,3962186224
41,17,15,Jits_Phase_8,1,5,56,103,3962205416
41,17,15,Jits_Phase_8,2,5,63,98,3962215836
41,17,15,Jits_Phase_8,3,1,48,87,3962252436
41,17,15,Jits_Phase_8,4,1,48,49,3962309128
41,17,15,Jits_Phase_8,5,1,48,25,3962369112
41,17,15,Jits_Phase_8,0,5,56,103,3963006368
41,17,15,Jits_Phase_8,1,1,48,97,3963038860
41,17,15,Jits_Phase_8,2,5,63,98,3963096340
41,17,15,Jits_Phase_8,3,1,48,52,3963099188
41,17,15,Jits_Phase_8,4,5,80,127,3963101856
41,17,15,Jits_Phase_8,5,1,48,33,3963148348
41,17,15,Jits_Phase_8,0,5,80,127,3963776460
41,17,15,Jits_Phase_8,1,5,56,103,3963785608
41,17,15,Jits_Phase_8,2,1,48,85,3963795628
41,17,15,Jits_Phase_8,3,5,63,98,3963806284
41,17,15,Jits_Phase_8,4,1,48,54,3963836884
41,17,15,Jits_Phase_8,0,5,63,98,3964576228
41,17,15,Jits_Phase_8,1,1,48,82,3964613052
41,17,15,Jits_Phase_8,2,5,80,127,3964635564
41,17,15,Jits_Phase_8,3,1,48,57,3964646792
41,17,15,Jits_Phase_8,4,5,56,103,3964648128
41,17,15,Jits_Phase_8,0,1,48,74,3965399800
41,17,15,Jits_Phase_8,1,1,48,51,3965439120
41,17,15,Jits_Phase_8,2,5,63,98,3965445440
41,17,15,Jits_Phase_8,3,5,80,127,3965476188
41,17,15,Jits_Phase_8,4,5,56,103,3965516124
41,17,15,Jits_Phase_8,0,5,56,103,3966235972
41,17,15,Jits_Phase_8,1,1,48,86,3966236936
41,17,15,Jits_Phase_8,2,5,80,127,3966246232
41,17,15,Jits_Phase_8,3,1,48,54,3966282220
41,17,15,Jits_Phase_8,4,5,63,98,3966286148
41,17,15,Jits_Phase_8,0,5,80,127,3966996044
41,17,15,Jits_Phase_8,1,1,48,84,3967042108
41,17,15,Jits_Phase_8,2,1,48,51,3967073876
41,17,15,Jits_Phase_8,3,5,56,103,3967075612
41,17,15,Jits_Phase_8,4,5,63,98,3967086032
41,17,15,Jits_Phase_8,0,5,80,127,3967845700
41,17,15,Jits_Phase_8,1,1,48,97,3967852928
41,17,15,Jits_Phase_8,2,1,48,60,3967884464
41,17,15,Jits_Phase_8,3,5,56,103,3967925540
41,17,15,Jits_Phase_8,4,5,63,98,3967936108
41,17,15,Jits_Phase_8,0,1,48,83,3968681956
41,17,15,Jits_Phase_8,1,5,80,127,3968685292
41,17,15,Jits_Phase_8,2,1,48,56,3968709744
41,17,15,Jits_Phase_8,3,5,56,103,3968735696
41,17,15,Jits_Phase_8,4,5,63,98,3968785896
41,17,15,Jits_Phase_8,0,1,48,82,3969482112
41,17,15,Jits_Phase_8,1,1,48,56,3969513028
41,17,15,Jits_Phase_8,2,5,56,103,3969625384
41,17,15,Jits_Phase_8,3,5,63,98,3969628524
41,17,15,Jits_Phase_8,4,5,80,127,3969675732
41,17,15,Jits_Phase_8,0,1,48,65,3970329028
41,17,15,Jits_Phase_8,1,1,48,46,3970362588
41,17,15,Jits_Phase_8,2,5,56,103,3970445864
41,17,15,Jits_Phase_8,3,5,63,98,3970476272
41,17,15,Jits_Phase_8,4,5,80,127,3970485644
41,17,15,Jits_Phase_8,0,5,63,98,3971156380
41,17,15,Jits_Phase_8,1,1,48,89,3971224244
41,17,15,Jits_Phase_8,2,5,56,103,3971225908
41,17,15,Jits_Phase_8,3,1,48,56,3971250880
41,17,15,Jits_Phase_8,4,5,80,127,3971276160
41,17,15,Jits_Phase_8,0,5,63,98,3971985844
41,17,15,Jits_Phase_8,1,1,48,75,3971994132
41,17,15,Jits_Phase_8,2,5,56,103,3971995952
41,17,15,Jits_Phase_8,3,5,80,127,3971998800
41,17,15,Jits_Phase_8,4,1,48,54,3972024236
41,17,15,Jits_Phase_8,0,5,80,127,3972736248
41,17,15,Jits_Phase_8,1,1,48,84,3972784400
41,17,15,Jits_Phase_8,2,5,56,103,3972795736
41,17,15,Jits_Phase_8,3,1,48,54,3972823348
41,17,15,Jits_Phase_8,4,5,63,98,3972885844
41,17,15,Jits_Phase_8,0,5,80,127,3973536128
41,17,15,Jits_Phase_8,1,1,48,88,3973630788
41,17,15,Jits_Phase_8,2,5,56,103,3973635468
41,17,15,Jits_Phase_8,3,1,48,59,3973669088
41,17,15,Jits_Phase_8,4,5,63,98,3973676532
41,17,15,Jits_Phase_8,0,5,56,103,3974386128
41,17,15,Jits_Phase_8,1,5,63,98,3974405468
41,17,15,Jits_Phase_8,2,5,80,127,3974445352
41,17,15,Jits_Phase_8,3,1,48,88,3974450564
41,17,15,Jits_Phase_8,4,1,48,56,3974480136
41,17,15,Jits_Phase_8,0,5,63,98,3975156040
41,17,15,Jits_Phase_8,1,5,56,103,3975175748
41,17,15,Jits_Phase_8,2,1,48,78,3975255540
41,17,15,Jits_Phase_8,3,5,80,127,3975275936
41,17,15,Jits_Phase_8,4,1,48,56,3975280460
41,17,15,Jits_Phase_8,0,5,63,98,3975945716
41,17,15,Jits_Phase_8,1,1,48,75,3976020404
41,17,15,Jits_Phase_8,2,1,48,52,3976050200
41,17,15,Jits_Phase_8,3,5,80,127,3976056148
41,17,15,Jits_Phase_8,4,5,56,103,3976085824
41,17,15,Jits_Phase_8,0,5,56,103,3976765912
41,17,15,Jits_Phase_8,1,1,48,90,3976795736
41,17,15,Jits_Phase_8,2,5,63,98,3976797304
41,17,15,Jits_Phase_8,3,1,48,61,3976827752
41,17,15,Jits_Phase_8,4,5,80,127,3976845760
41,17,15,Jits_Phase_8,0,5,63,98,3977535896
41,17,15,Jits_Phase_8,1,5,56,103,3977565648
41,17,15,Jits_Phase_8,2,5,80,127,3977615700
41,17,15,Jits_Phase_8,3,1,48,87,3977633340
41,17,15,Jits_Phase_8,4,1,48,60,3977658500
41,17,15,Jits_Phase_8,0,5,56,103,3978366476
41,17,15,Jits_Phase_8,1,5,63,98,3978385740
41,17,15,Jits_Phase_8,2,1,48,68,3978410876
41,17,15,Jits_Phase_8,3,1,48,46,3978439100
41,17,15,Jits_Phase_8,4,5,80,127,3978465576
41,17,15,Jits_Phase_8,0,5,63,98,3979136312
41,17,15,Jits_Phase_8,1,1,48,73,3979191192
41,17,15,Jits_Phase_8,2,5,56,103,3979195648
41,17,15,Jits_Phase_8,3,1,48,53,3979223412
41,17,15,Jits_Phase_8,4,5,80,127,3979225600
41,17,15,Jits_Phase_8,0,1,48,87,3979944092
41,17,15,Jits_Phase_8,1,5,56,103,3979976028
41,17,15,Jits_Phase_8,2,1,48,57,3979980548
41,17,15,Jits_Phase_8,3,5,80,127,3980035572
41,17,15,Jits_Phase_8,4,5,63,98,3980076644
41,17,15,Jits_Phase_8,0,5,63,98,3980756272
41,17,15,Jits_Phase_8,1,1,48,92,3980774084
41,17,15,Jits_Phase_8,2,1,48,62,3980803508
41,17,15,Jits_Phase_8,3,5,56,103,3980815812
41,17,15,Jits_Phase_8,4,5,80,127,3980886488
41,17,15,Jits_Phase_8,0,1,48,68,3981564504
41,17,15,Jits_Phase_8,1,1,48,45,3981596024
41,17,15,Jits_Phase_8,2,5,56,103,3981635928
41,17,15,Jits_Phase_8,3,5,63,98,3981646124
41,17,15,Jits_Phase_8,4,5,80,127,3981649860
41,17,15,Jits_Phase_8,0,1,48,74,3982371568
41,17,15,Jits_Phase_8,1,5,63,98,3982376400
41,17,15,Jits_Phase_8,2,1,48,50,3982411116
41,17,15,Jits_Phase_8,3,5,56,103,3982435796
41,17,15,Jits_Phase_8,4,5,80,127,3982438788
41,17,15,Jits_Phase_8,0,5,63,98,3983155588
41,17,15,Jits_Phase_8,1,5,80,127,3983186532
41,17,15,Jits_Phase_8,2,1,48,56,3983187500
41,17,15,Jits_Phase_8,3,5,56,103,3983205788
41,17,15,Jits_Phase_8,4,1,48,41,3983225304
41,17,15,Jits_Phase_8,0,5,56,103,3983885744
41,17,15,Jits_Phase_8,1,5,63,98,3983935900
41,17,15,Jits_Phase_8,2,1,48,58,3983969132
41,17,15,Jits_Phase_8,3,1,48,42,3984004404
41,17,15,Jits_Phase_8,4,5,80,127,3984015664
41,17,15,Jits_Phase_8,0,5,80,127,3984586292
41,17,15,Jits_Phase_8,1,5,63,98,3984626156
41,17,15,Jits_Phase_8,2,5,56,103,3984645568
41,17,15,Jits_Phase_8,3,1,48,59,3984738308
41,17,15,Jits_Phase_8,4,1,48,41,3984772436
41,17,15,Jits_Phase_8,0,1,48,59,3985386516
41,17,15,Jits_Phase_8,1,1,48,40,3985420652
41,17,15,Jits_Phase_8,2,5,56,103,3985455548
41,17,15,Jits_Phase_8,3,5,80,127,3985465744
41,17,15,Jits_Phase_8,4,5,63,98,3985486276
41,17,15,Jits_Phase_8,0,1,48,70,3986221536
41,17,15,Jits_Phase_8,1,5,56,103,3986235804
41,17,15,Jits_Phase_8,2,1,48,47,3986265956
41,17,15,Jits_Phase_8,3,5,63,98,3986285988
41,17,15,Jits_Phase_8,4,5,80,127,3986315588
41,17,15,Jits_Phase_8,0,5,56,103,3986986528
41,17,15,Jits_Phase_8,1,5,63,98,3986995532
41,17,15,Jits_Phase_8,2,1,48,84,3987028464
41,17,15,Jits_Phase_8,3,5,80,127,3987045648
41,17,15,Jits_Phase_8,4,1,48,55,3987064416
41,17,15,Jits_Phase_8,0,5,56,103,3987775840
41,17,15,Jits_Phase_8,1,5,80,127,3987778904
41,17,15,Jits_Phase_8,2,1,48,76,3987800604
41,17,15,Jits_Phase_8,3,5,63,98,3987935620
41,17,15,Jits_Phase_8,0,1,48,89,3988573336
41,17,15,Jits_Phase_8,1,5,63,98,3988596276
41,17,15,Jits_Phase_8,2,1,48,55,3988615720
41,17,15,Jits_Phase_8,3,5,56,103,3988665640
41,17,15,Jits_Phase_8,4,5,80,127,3988705580
41,17,15,Jits_Phase_8,0,1,48,65,3989411616
41,17,15,Jits_Phase_8,1,5,63,98,3989435704
41,17,15,Jits_Phase_8,2,1,48,46,3989449072
41,17,15,Jits_Phase_8,3,5,56,103,3989525816
41,17,15,Jits_Phase_8,4,5,80,127,3989528884
41,17,15,Jits_Phase_8,0,5,56,103,3990216096
41,17,15,Jits_Phase_8,1,1,48,91,3990260340
41,17,15,Jits_Phase_8,2,1,48,59,3990293128
41,17,15,Jits_Phase_8,3,5,63,98,3990306300
41,17,15,Jits_Phase_8,4,5,80,127,3990316568
41,17,15,Jits_Phase_8,0,5,56,103,3990986232
41,17,15,Jits_Phase_8,1,5,63,98,3991036360
41,17,15,Jits_Phase_8,2,5,80,127,3991066184
41,17,15,Jits_Phase_8,3,1,48,71,3991079884
41,17,15,Jits_Phase_8,4,1,48,51,3991116504
41,17,15,Jits_Phase_8,0,1,48,76,3991850456
41,17,15,Jits_Phase_8,1,5,63,98,3991865848
41,17,15,Jits_Phase_8,2,5,80,127,3991876116
41,17,15,Jits_Phase_8,3,1,48,50,3991899672
41,17,15,Jits_Phase_8,4,5,56,103,3991936484
41,17,15,Jits_Phase_8,0,5,63,98,3992585612
41,17,15,Jits_Phase_8,1,5,80,127,3992646252
41,17,15,Jits_Phase_8,2,5,56,103,3992686188
41,17,15,Jits_Phase_8,3,1,48,79,3992702856
41,17,15,Jits_Phase_8,4,1,48,51,3992742920
41,17,15,Jits_Phase_8,0,1,48,67,3993459188
41,17,15,Jits_Phase_8,1,5,56,103,3993485664
41,17,15,Jits_Phase_8,2,1,48,46,3993490864
41,17,15,Jits_Phase_8,3,5,80,127,3993506104
41,17,15,Jits_Phase_8,4,5,63,98,3993525592
41,17,15,Jits_Phase_8,0,5,63,98,3994205532
41,17,15,Jits_Phase_8,1,5,56,103,3994226364
41,17,15,Jits_Phase_8,2,5,80,127,3994266228
41,17,15,Jits_Phase_8,3,1,48,73,3994305160
41,17,15,Jits_Phase_8,4,1,48,48,3994344620
41,17,15,Jits_Phase_8,0,5,63,98,3995015436
41,17,15,Jits_Phase_8,1,1,48,81,3995017448
41,17,15,Jits_Phase_8,2,5,80,127,3995046300
41,17,15,Jits_Phase_8,3,1,48,52,3995056452
41,17,15,Jits_Phase_8,4,5,56,103,3995065616
41,17,15,Jits_Phase_8,0,5,80,127,3995785556
41,17,15,Jits_Phase_8,1,1,48,81,3995793924
41,17,15,Jits_Phase_8,2,1,48,52,3995833844
41,17,15,Jits_Phase_8,3,5,56,103,3995836028
41,17,15,Jits_Phase_8,4,5,63,98,3995896192
41,17,15,Jits_Phase_8,0,5,63,98,3996576064
41,17,15,Jits_Phase_8,1,1,48,73,3996613188
41,17,15,Jits_Phase_8,2,1,48,51,3996646448
41,17,15,Jits_Phase_8,3,5,56,103,3996696136
41,17,15,Jits_Phase_8,4,5,80,127,3996725612
41,17,15,Jits_Phase_8,0,1,48,83,3997406840
41,17,15,Jits_Phase_8,1,5,80,127,3997416080
41,17,15,Jits_Phase_8,2,5,63,98,3997436244
41,17,15,Jits_Phase_8,3,1,48,53,3997441736
41,17,15,Jits_Phase_8,4,5,56,103,3997506072
41,17,15,Jits_Phase_8,0,1,48,85,3998211792
41,17,15,Jits_Phase_8,1,5,63,98,3998236028
41,17,15,Jits_Phase_8,2,5,56,103,3998246176
41,17,15,Jits_Phase_8,3,1,48,55,3998248096
41,17,15,Jits_Phase_8,4,5,80,127,3998326096
41,17,15,Jits_Phase_8,0,1,48,85,3999000348
41,17,15,Jits_Phase_8,1,1,48,54,3999028900
41,17,15,Jits_Phase_8,2,5,56,103,3999096136
41,17,15,Jits_Phase_8,3,5,80,127,3999125868
41,17,15,Jits_Phase_8,4,5,63,98,3999136212
41,17,15,Jits_Phase_8,0,9999,9999,9999,3864253528
41,17,15,Jits_Phase_8,1,9999,9999,9999,3865053248
41,17,15,Jits_Phase_8,2,9999,9999,9999,3865854068
41,17,15,Jits_Phase_8,3,9999,9999,9999,3866653772
41,17,15,Jits_Phase_8,4,9999,9999,9999,3867453540
41,17,15,Jits_Phase_8,5,9999,9999,9999,3868253240
41,17,15,Jits_Phase_8,6,9999,9999,9999,3869054072
41,17,15,Jits_Phase_8,7,9999,9999,9999,3869853804
41,17,15,Jits_Phase_8,8,9999,9999,9999,3870653520
41,17,15,Jits_Phase_8,9,9999,9999,9999,3871453252
41,17,15,Jits_Phase_8,10,9999,9999,9999,3872254068
41,17,15,Jits_Phase_8,11,9999,9999,9999,3873053788
41,17,15,Jits_Phase_8,12,9999,9999,9999,3873853560
41,17,15,Jits_Phase_8,13,9999,9999,9999,3874653296
41,17,15,Jits_Phase_8,14,9999,9999,9999,3875454044
41,17,15,Jits_Phase_8,15,9999,9999,9999,3876253784
41,17,15,Jits_Phase_8,16,9999,9999,9999,3877053504
41,17,15,Jits_Phase_8,17,9999,9999,9999,3877853264
41,17,15,Jits_Phase_8,18,9999,9999,9999,3878654052
41,17,15,Jits_Phase_8,19,9999,9999,9999,3879453808
41,17,15,Jits_Phase_8,20,9999,9999,9999,3880253508
41,17,15,Jits_Phase_8,21,9999,9999,9999,3881053268
41,17,15,Jits_Phase_8,22,9999,9999,9999,3881854080
41,17,15,Jits_Phase_8,23,9999,9999,9999,3882653812
41,17,15,Jits_Phase_8,24,9999,9999,9999,3883453548
41,17,15,Jits_Phase_8,25,9999,9999,9999,3884253272
41,17,15,Jits_Phase_8,26,9999,9999,9999,3885054036
41,17,15,Jits_Phase_8,27,9999,9999,9999,3885853800
41,17,15,Jits_Phase_8,28,9999,9999,9999,3886653552
41,17,15,Jits_Phase_8,29,9999,9999,9999,3887453272
41,17,15,Jits_Phase_8,30,9999,9999,9999,3888233568
41,17,15,Jits_Phase_8,31,9999,9999,9999,3889033296
41,17,15,Jits_Phase_8,32,9999,9999,9999,3889834084
41,17,15,Jits_Phase_8,33,9999,9999,9999,3890633820
41,17,15,Jits_Phase_8,34,9999,9999,9999,3891433552
41,17,15,Jits_Phase_8,35,9999,9999,9999,3892233296
41,17,15,Jits_Phase_8,36,9999,9999,9999,3893034112
41,17,15,Jits_Phase_8,37,9999,9999,9999,3893833852
41,17,15,Jits_Phase_8,38,9999,9999,9999,3894633596
41,17,15,Jits_Phase_8,39,9999,9999,9999,3895433280
41,17,15,Jits_Phase_8,40,9999,9999,9999,3896234084
41,17,15,Jits_Phase_8,41,9999,9999,9999,3897033812
41,17,15,Jits_Phase_8,42,9999,9999,9999,3897833548
41,17,15,Jits_Phase_8,43,9999,9999,9999,3898633292
41,17,15,Jits_Phase_8,44,9999,9999,9999,3899434092
41,17,15,Jits_Phase_8,45,9999,9999,9999,3900233796
41,17,15,Jits_Phase_8,46,9999,9999,9999,3901033600
41,17,15,Jits_Phase_8,47,9999,9999,9999,3901833324
41,17,15,Jits_Phase_8,48,9999,9999,9999,3902653568
41,17,15,Jits_Phase_8,49,9999,9999,9999,3903453292
41,17,15,Jits_Phase_8,50,9999,9999,9999,3904254032
41,17,15,Jits_Phase_8,51,9999,9999,9999,3905053760
41,17,15,Jits_Phase_8,52,9999,9999,9999,3905853496
41,17,15,Jits_Phase_8,53,9999,9999,9999,3906653292
41,17,15,Jits_Phase_8,54,9999,9999,9999,3907454028
41,17,15,Jits_Phase_8,55,9999,9999,9999,3908253816
41,17,15,Jits_Phase_8,56,9999,9999,9999,3909053528
41,17,15,Jits_Phase_8,57,9999,9999,9999,3909853260
41,17,15,Jits_Phase_8,58,9999,9999,9999,3910654048
41,17,15,Jits_Phase_8,59,9999,9999,9999,3911453776
41,17,15,Jits_Phase_8,60,9999,9999,9999,3912253524
41,17,15,Jits_Phase_8,61,9999,9999,9999,3913053240
41,17,15,Jits_Phase_8,62,9999,9999,9999,3913854072
41,17,15,Jits_Phase_8,63,9999,9999,9999,3914653780
41,17,15,Jits_Phase_8,64,9999,9999,9999,3915493436
41,17,15,Jits_Phase_8,65,9999,9999,9999,3916293208
41,17,15,Jits_Phase_8,66,9999,9999,9999,3917094000
41,17,15,Jits_Phase_8,67,9999,9999,9999,3917893724
41,17,15,Jits_Phase_8,68,9999,9999,9999,3918693500
41,17,15,Jits_Phase_8,69,9999,9999,9999,3919493232
41,17,15,Jits_Phase_8,70,9999,9999,9999,3920294008
41,17,15,Jits_Phase_8,71,9999,9999,9999,3921093732
41,17,15,Jits_Phase_8,72,9999,9999,9999,3921893460
41,17,15,Jits_Phase_8,73,9999,9999,9999,3922693192
41,17,15,Jits_Phase_8,74,9999,9999,9999,3923494000
41,17,15,Jits_Phase_8,75,9999,9999,9999,3924293724
41,17,15,Jits_Phase_8,76,9999,9999,9999,3925093436
41,17,15,Jits_Phase_8,77,9999,9999,9999,3925893240
41,17,15,Jits_Phase_8,78,9999,9999,9999,3926694016
41,17,15,Jits_Phase_8,79,9999,9999,9999,3927493748
41,17,15,Jits_Phase_8,80,9999,9999,9999,3928293500
41,17,15,Jits_Phase_8,81,9999,9999,9999,3929053304
41,17,15,Jits_Phase_8,82,9999,9999,9999,3929854072
41,17,15,Jits_Phase_8,83,9999,9999,9999,3930653784
41,17,15,Jits_Phase_8,84,9999,9999,9999,3931453532
41,17,15,Jits_Phase_8,85,9999,9999,9999,3932253268
41,17,15,Jits_Phase_8,86,9999,9999,9999,3933054032
41,17,15,Jits_Phase_8,87,9999,9999,9999,3933853816
41,17,15,Jits_Phase_8,88,9999,9999,9999,3934653528
41,17,15,Jits_Phase_8,89,9999,9999,9999,3935453252
41,17,15,Jits_Phase_8,90,9999,9999,9999,3936254068
41,17,15,Jits_Phase_8,91,9999,9999,9999,3937053804
41,17,15,Jits_Phase_8,92,9999,9999,9999,3937853556
41,17,15,Jits_Phase_8,93,9999,9999,9999,3938653264
41,17,15,Jits_Phase_8,94,9999,9999,9999,3939454028
41,17,15,Jits_Phase_8,95,9999,9999,9999,3940253756
41,17,15,Jits_Phase_8,96,9999,9999,9999,3941053560
41,17,15,Jits_Phase_8,97,9999,9999,9999,3941773412
41,17,15,Jits_Phase_8,98,9999,9999,9999,3942573156
41,17,15,Jits_Phase_8,99,9999,9999,9999,3943373940
41,17,15,Jits_Phase_8,100,9999,9999,9999,3944173660
41,17,15,Jits_Phase_8,101,9999,9999,9999,3944973388
41,17,15,Jits_Phase_8,102,9999,9999,9999,3945773144
41,17,15,Jits_Phase_8,103,9999,9999,9999,3946573904
41,17,15,Jits_Phase_8,104,9999,9999,9999,3947373644
41,17,15,Jits_Phase_8,105,9999,9999,9999,3948173368
41,17,15,Jits_Phase_8,106,9999,9999,9999,3948973148
41,17,15,Jits_Phase_8,107,9999,9999,9999,3949773892
41,17,15,Jits_Phase_8,108,9999,9999,9999,3950573684
41,17,15,Jits_Phase_8,109,9999,9999,9999,3951373424
41,17,15,Jits_Phase_8,110,9999,9999,9999,3952173148
41,17,15,Jits_Phase_8,111,9999,9999,9999,3952973912
41,17,15,Jits_Phase_8,112,9999,9999,9999,3953773624
41,17,15,Jits_Phase_8,113,9999,9999,9999,3954573436
41,17,15,Jits_Phase_8,114,9999,9999,9999,3955454008
41,17,15,Jits_Phase_8,115,9999,9999,9999,3956253792
41,17,15,Jits_Phase_8,116,9999,9999,9999,3957053536
41,17,15,Jits_Phase_8,117,9999,9999,9999,3957853260
41,17,15,Jits_Phase_8,118,9999,9999,9999,3958654020
41,17,15,Jits_Phase_8,119,9999,9999,9999,3959453808
41,17,15,Jits_Phase_8,120,9999,9999,9999,3960253532
41,17,15,Jits_Phase_8,121,9999,9999,9999,3961053308
41,17,15,Jits_Phase_8,122,9999,9999,9999,3961854024
41,17,15,Jits_Phase_8,123,9999,9999,9999,3962653772
41,17,15,Jits_Phase_8,124,9999,9999,9999,3963453556
41,17,15,Jits_Phase_8,125,9999,9999,9999,3964253312
41,17,15,Jits_Phase_8,126,9999,9999,9999,3965054008
41,17,15,Jits_Phase_8,127,9999,9999,9999,3965853804
41,17,15,Jits_Phase_8,128,9999,9999,9999,3966653496
41,17,15,Jits_Phase_8,129,9999,9999,9999,3967453300
41,17,15,Jits_Phase_8,130,9999,9999,9999,3968254012
41,17,15,Jits_Phase_8,131,9999,9999,9999,3969213568
41,17,15,Jits_Phase_8,132,9999,9999,9999,3970013276
41,17,15,Jits_Phase_8,133,9999,9999,9999,3970814048
41,17,15,Jits_Phase_8,134,9999,9999,9999,3971613764
41,17,15,Jits_Phase_8,135,9999,9999,9999,3972413496
41,17,15,Jits_Phase_8,136,9999,9999,9999,3973213284
41,17,15,Jits_Phase_8,137,9999,9999,9999,3974014064
41,17,15,Jits_Phase_8,138,9999,9999,9999,3974813792
41,17,15,Jits_Phase_8,139,9999,9999,9999,3975613520
41,17,15,Jits_Phase_8,140,9999,9999,9999,3976413240
41,17,15,Jits_Phase_8,141,9999,9999,9999,3977214076
41,17,15,Jits_Phase_8,142,9999,9999,9999,3978013808
41,17,15,Jits_Phase_8,143,9999,9999,9999,3978813544
41,17,15,Jits_Phase_8,144,9999,9999,9999,3979613272
41,17,15,Jits_Phase_8,145,9999,9999,9999,3980414036
41,17,15,Jits_Phase_8,146,9999,9999,9999,3981213756
41,17,15,Jits_Phase_8,147,9999,9999,9999,3982013544
41,17,15,Jits_Phase_8,148,9999,9999,9999,3982813252
41,17,15,Jits_Phase_8,149,9999,9999,9999,3983614012
41,17,15,Jits_Phase_8,150,9999,9999,9999,3984254008
41,17,15,Jits_Phase_8,151,9999,9999,9999,3985053808
41,17,15,Jits_Phase_8,152,9999,9999,9999,3985853544
41,17,15,Jits_Phase_8,153,9999,9999,9999,3986653264
41,17,15,Jits_Phase_8,154,9999,9999,9999,3987454024
41,17,15,Jits_Phase_8,155,9999,9999,9999,3988253788
41,17,15,Jits_Phase_8,156,9999,9999,9999,3989053544
41,17,15,Jits_Phase_8,157,9999,9999,9999,3989853256
41,17,15,Jits_Phase_8,158,9999,9999,9999,3990654024
41,17,15,Jits_Phase_8,159,9999,9999,9999,3991453752
41,17,15,Jits_Phase_8,160,9999,9999,9999,3992253564
41,17,15,Jits_Phase_8,161,9999,9999,9999,3993053280
41,17,15,Jits_Phase_8,162,9999,9999,9999,3993854052
41,17,15,Jits_Phase_8,163,9999,9999,9999,3994653792
41,17,15,Jits_Phase_8,164,9999,9999,9999,3995453508
41,17,15,Jits_Phase_8,165,9999,9999,9999,3996253296
41,17,15,Jits_Phase_8,166,9999,9999,9999,3997054076
41,17,15,Jits_Phase_8,167,9999,9999,9999,3997853792
41,17,15,Jits_Phase_8,168,9999,9999,9999,3998653508
41,17,15,Jits_Phase_8,169,9999,9999,9999,3999453308
41,18,19,Jits_Linear_5,0,5,56,103,4010329632
41,18,19,Jits_Linear_5,1,5,63,98,4010332660
41,18,19,Jits_Linear_5,2,5,80,127,4010335928
41,18,19,Jits_Linear_5,0,5,56,103,4010809724
41,18,19,Jits_Linear_5,1,5,63,98,4010812668
41,18,19,Jits_Linear_5,2,5,80,127,4010815796
41,18,19,Jits_Linear_5,0,1,48,74,4011261740
41,18,19,Jits_Linear_5,1,5,56,103,4011289944
41,18,19,Jits_Linear_5,2,1,48,43,4011296560
41,18,19,Jits_Linear_5,3,5,80,127,4011300340
41,18,19,Jits_Linear_5,4,5,63,98,4011319604
41,18,19,Jits_Linear_5,0,5,63,98,4011720132
41,18,19,Jits_Linear_5,1,5,80,127,4011749960
41,18,19,Jits_Linear_5,2,5,56,103,4011759936
41,18,19,Jits_Linear_5,3,1,48,92,4011794520
41,18,19,Jits_Linear_5,4,1,48,51,4011833024
41,18,19,Jits_Linear_5,0,5,80,127,4012259656
41,18,19,Jits_Linear_5,1,5,56,103,4012270076
41,18,19,Jits_Linear_5,2,1,48,102,4012274772
41,18,19,Jits_Linear_5,3,5,63,98,4012299524
41,18,19,Jits_Linear_5,4,1,48,56,4012309828
41,18,19,Jits_Linear_5,0,5,63,98,4012739944
41,18,19,Jits_Linear_5,1,5,56,103,4012769620
41,18,19,Jits_Linear_5,2,5,80,127,4012779816
41,18,19,Jits_Linear_5,3,1,48,109,4012783232
41,18,19,Jits_Linear_5,4,1,48,54,4012821948
41,18,19,Jits_Linear_5,0,5,56,103,4013180504
41,18,19,Jits_Linear_5,1,5,63,98,4013229440
41,18,19,Jits_Linear_5,2,5,80,127,4013249824
41,18,19,Jits_Linear_5,3,1,48,86,4013264552
41,18,19,Jits_Linear_5,4,1,48,52,4013296512
41,18,19,Jits_Linear_5,0,5,80,127,4013669696
41,18,19,Jits_Linear_5,1,5,63,98,4013719824
41,18,19,Jits_Linear_5,2,1,48,87,4013740848
41,18,19,Jits_Linear_5,3,5,56,103,4013759832
41,18,19,Jits_Linear_5,4,1,48,48,4013779420
41,18,19,Jits_Linear_5,0,5,56,103,4014160380
41,18,19,Jits_Linear_5,1,5,63,98,4014189836
41,18,19,Jits_Linear_5,2,1,48,86,4014257848
41,18,19,Jits_Linear_5,3,5,80,127,4014259512
41,18,19,Jits_Linear_5,4,1,48,43,4014296992
41,18,19,Jits_Linear_5,0,5,56,103,4014649572
41,18,19,Jits_Linear_5,1,5,80,127,4014710412
41,18,19,Jits_Linear_5,2,1,48,92,4014718708
41,18,19,Jits_Linear_5,3,5,63,98,4014739784
41,18,19,Jits_Linear_5,4,1,48,39,4014760644
41,18,19,Jits_Linear_5,0,5,56,103,4015149552
41,18,19,Jits_Linear_5,1,5,63,98,4015159600
41,18,19,Jits_Linear_5,2,5,80,127,4015199684
41,18,19,Jits_Linear_5,3,1,48,81,4015209400
41,18,19,Jits_Linear_5,4,1,38,19,4015219272
41,18,19,Jits_Linear_5,5,1,48,40,4015248316
41,18,19,Jits_Linear_5,0,5,63,98,4015639852
41,18,19,Jits_Linear_5,1,1,48,97,4015674460
41,18,19,Jits_Linear_5,2,1,48,46,4015720700
41,18,19,Jits_Linear_5,3,5,80,127,4015721888
41,18,19,Jits_Linear_5,4,5,56,103,4015729992
41,18,19,Jits_Linear_5,0,1,48,97,4016172544
41,18,19,Jits_Linear_5,1,1,38,21,4016182344
41,18,19,Jits_Linear_5,2,5,63,98,4016189788
41,18,19,Jits_Linear_5,3,1,48,56,4016204576
41,18,19,Jits_Linear_5,4,5,56,103,4016229628
41,18,19,Jits_Linear_5,5,5,80,127,4016232920
41,18,19,Jits_Linear_5,0,5,56,103,4016649600
41,18,19,Jits_Linear_5,1,5,63,98,4016659872
41,18,19,Jits_Linear_5,2,5,80,127,4016699836
41,18,19,Jits_Linear_5,3,1,48,111,4016716288
41,18,19,Jits_Linear_5,0,5,56,103,4017140168
41,18,19,Jits_Linear_5,1,5,63,98,4017143160
41,18,19,Jits_Linear_5,2,5,80,127,4017159432
41,18,19,Jits_Linear_5,3,1,48,94,4017190668
41,18,19,Jits_Linear_5,4,1,38,20,4017201060
41,18,19,Jits_Linear_5,5,1,48,53,4017216916
41,18,19,Jits_Linear_5,0,5,80,127,4017660304
41,18,19,Jits_Linear_5,1,5,56,103,4017669452
41,18,19,Jits_Linear_5,2,1,48,94,4017682012
41,18,19,Jits_Linear_5,3,1,48,45,4017722020
41,18,19,Jits_Linear_5,4,5,63,98,4017740104
41,18,19,Jits_Linear_5,0,5,63,98,4018160204
41,18,19,Jits_Linear_5,1,5,56,103,4018179320
41,18,19,Jits_Linear_5,2,1,48,100,4018200948
41,18,19,Jits_Linear_5,3,1,38,21,4018211376
41,18,19,Jits_Linear_5,4,5,80,127,4018260252
41,18,19,Jits_Linear_5,5,1,48,29,4018262544
41,18,19,Jits_Linear_5,0,5,56,103,4018680352
41,18,19,Jits_Linear_5,1,1,48,99,4018690372
41,18,19,Jits_Linear_5,2,1,38,21,4018700392
41,18,19,Jits_Linear_5,3,5,80,127,4018720292
41,18,19,Jits_Linear_5,4,5,63,98,4018730564
41,18,19,Jits_Linear_5,5,1,48,45,4018734564
41,18,19,Jits_Linear_5,0,5,80,127,4019179816
41,18,19,Jits_Linear_5,1,1,48,89,4019206156
41,18,19,Jits_Linear_5,2,5,63,98,4019209560
41,18,19,Jits_Linear_5,3,1,38,21,4019216044
41,18,19,Jits_Linear_5,4,5,56,103,4019249516
41,18,19,Jits_Linear_5,5,1,48,40,4019255160
41,18,19,Jits_Linear_5,0,5,56,103,4019710308
41,18,19,Jits_Linear_5,1,1,48,103,4019729468
41,18,19,Jits_Linear_5,2,1,38,22,4019740004
41,18,19,Jits_Linear_5,3,5,63,98,4019742088
41,18,19,Jits_Linear_5,4,1,48,35,4019779068
41,18,19,Jits_Linear_5,5,5,80,127,4019790472
41,18,19,Jits_Linear_5,0,5,80,127,4020220360
41,18,19,Jits_Linear_5,1,1,48,105,4020237728
41,18,19,Jits_Linear_5,2,1,38,22,4020247672
41,18,19,Jits_Linear_5,3,5,56,103,4020260300
41,18,19,Jits_Linear_5,4,5,63,98,4020269376
41,18,19,Jits_Linear_5,5,1,48,41,4020287080
41,18,19,Jits_Linear_5,0,5,80,127,4020720140
41,18,19,Jits_Linear_5,1,1,48,98,4020759028
41,18,19,Jits_Linear_5,2,5,63,98,4020760672
41,18,19,Jits_Linear_5,3,1,38,21,4020769292
41,18,19,Jits_Linear_5,4,1,48,48,4020793464
41,18,19,Jits_Linear_5,5,5,56,103,4020820460
41,18,19,Jits_Linear_5,0,5,56,103,4021240224
41,18,19,Jits_Linear_5,1,5,80,127,4021250496
41,18,19,Jits_Linear_5,2,1,48,104,4021263652
41,18,19,Jits_Linear_5,3,1,38,22,4021273896
41,18,19,Jits_Linear_5,4,1,48,44,4021303116
41,18,19,Jits_Linear_5,5,5,63,98,4021330416
41,18,19,Jits_Linear_5,0,5,80,127,4021760304
41,18,19,Jits_Linear_5,1,1,48,95,4021770844
41,18,19,Jits_Linear_5,2,1,38,21,4021780792
41,18,19,Jits_Linear_5,3,1,48,51,4021805808
41,18,19,Jits_Linear_5,4,5,63,98,4021819704
41,18,19,Jits_Linear_5,5,5,56,103,4021849380
41,18,19,Jits_Linear_5,0,5,56,103,4022279476
41,18,19,Jits_Linear_5,1,1,48,99,4022311244
41,18,19,Jits_Linear_5,2,1,38,21,4022321192
41,18,19,Jits_Linear_5,3,5,80,127,4022340092
41,18,19,Jits_Linear_5,4,1,48,46,4022347836
41,18,19,Jits_Linear_5,5,5,63,98,4022380008
41,18,19,Jits_Linear_5,0,1,48,108,4022816464
41,18,19,Jits_Linear_5,1,1,38,22,4022826632
41,18,19,Jits_Linear_5,2,1,48,47,4022856432
41,18,19,Jits_Linear_5,3,5,56,103,4022860288
41,18,19,Jits_Linear_5,4,5,63,98,4022870408
41,18,19,Jits_Linear_5,5,5,80,127,4022873848
41,18,19,Jits_Linear_5,0,1,48,100,4023336460
41,18,19,Jits_Linear_5,1,5,80,127,4023340392
41,18,19,Jits_Linear_5,2,1,48,49,4023372864
41,18,19,Jits_Linear_5,3,5,63,98,4023429536
41,18,19,Jits_Linear_5,4,5,56,103,4023439808
41,18,19,Jits_Linear_5,0,5,56,103,4023869816
41,18,19,Jits_Linear_5,1,5,63,98,4023873212
41,18,19,Jits_Linear_5,2,5,80,127,4023876260
41,18,19,Jits_Linear_5,3,1,48,92,4023894520
41,18,19,Jits_Linear_5,4,1,38,20,4023904912
41,18,19,Jits_Linear_5,5,1,48,41,4023934112
41,18,19,Jits_Linear_5,0,5,80,127,4024419772
41,18,19,Jits_Linear_5,1,1,48,95,4024426480
41,18,19,Jits_Linear_5,2,1,38,21,4024436352
41,18,19,Jits_Linear_5,3,1,48,45,4024466528
41,18,19,Jits_Linear_5,4,5,63,98,4024470080
41,18,19,Jits_Linear_5,5,5,56,103,4024499456
41,18,19,Jits_Linear_5,0,5,56,103,4024929656
41,18,19,Jits_Linear_5,1,5,80,127,4024940000
41,18,19,Jits_Linear_5,2,1,48,100,4024953088
41,18,19,Jits_Linear_5,3,1,48,48,4025001244
41,18,19,Jits_Linear_5,4,5,63,98,4025009512
41,18,19,Jits_Linear_5,0,1,48,95,4025465196
41,18,19,Jits_Linear_5,1,5,56,103,4025470248
41,18,19,Jits_Linear_5,2,1,38,20,4025476056
41,18,19,Jits_Linear_5,3,5,63,98,4025490024
41,18,19,Jits_Linear_5,4,1,48,50,4025497392
41,18,19,Jits_Linear_5,5,5,80,127,4025550244
41,18,19,Jits_Linear_5,0,5,80,127,4026000060
41,18,19,Jits_Linear_5,1,1,48,102,4026013748
41,18,19,Jits_Linear_5,2,1,48,40,4026058988
41,18,19,Jits_Linear_5,3,5,63,98,4026070320
41,18,19,Jits_Linear_5,4,5,56,103,4026090180
41,18,19,Jits_Linear_5,0,5,80,127,4026559840
41,18,19,Jits_Linear_5,1,1,48,106,4026567072
41,18,19,Jits_Linear_5,2,5,56,103,4026570176
41,18,19,Jits_Linear_5,3,5,63,98,4026580300
41,18,19,Jits_Linear_5,4,1,48,56,4026602432
41,18,19,Jits_Linear_5,0,1,48,103,4027090240
41,18,19,Jits_Linear_5,1,5,80,127,4027091952
41,18,19,Jits_Linear_5,2,5,56,103,4027109872
41,18,19,Jits_Linear_5,3,1,48,62,4027119276
41,18,19,Jits_Linear_5,4,1,48,45,4027145616
41,18,19,Jits_Linear_5,5,5,63,98,4027180360
41,18,19,Jits_Linear_5,0,1,48,85,4027623724
41,18,19,Jits_Linear_5,1,1,38,19,4027634116
41,18,19,Jits_Linear_5,2,5,56,103,4027640292
41,18,19,Jits_Linear_5,3,5,80,127,4027670264
41,18,19,Jits_Linear_5,4,5,63,98,4027690228
41,18,19,Jits_Linear_5,0,5,63,98,4028179960
41,18,19,Jits_Linear_5,1,1,48,100,4028188428
41,18,19,Jits_Linear_5,2,1,48,52,4028223164
41,18,19,Jits_Linear_5,3,5,56,103,4028240200
41,18,19,Jits_Linear_5,4,5,80,127,4028270100
41,18,19,Jits_Linear_5,0,5,63,98,4028719360
41,18,19,Jits_Linear_5,1,5,80,127,4028722876
41,18,19,Jits_Linear_5,2,1,48,81,4028740992
41,18,19,Jits_Linear_5,3,1,48,48,4028772880
41,18,19,Jits_Linear_5,4,5,56,103,4028809548
41,18,19,Jits_Linear_5,0,1,48,85,4029282064
41,18,19,Jits_Linear_5,1,5,56,103,4029289812
41,18,19,Jits_Linear_5,2,1,48,53,4029319700
41,18,19,Jits_Linear_5,3,5,63,98,4029321264
41,18,19,Jits_Linear_5,4,5,80,127,4029359408
41,18,19,Jits_Linear_5,0,5,63,98,4029839980
41,18,19,Jits_Linear_5,1,1,48,85,4029853360
41,18,19,Jits_Linear_5,2,1,38,19,4029863828
41,18,19,Jits_Linear_5,3,5,56,103,4029879596
41,18,19,Jits_Linear_5,4,1,48,45,4029891916
41,18,19,Jits_Linear_5,5,5,80,127,4029900108
41,18,19,Jits_Linear_5,0,1,48,91,4030390588
41,18,19,Jits_Linear_5,1,5,63,98,4030399976
41,18,19,Jits_Linear_5,2,1,48,61,4030420912
41,18,19,Jits_Linear_5,3,5,56,103,4030439968
41,18,19,Jits_Linear_5,4,5,80,127,4030449944
41,18,19,Jits_Linear_5,0,5,80,127,4030930144
41,18,19,Jits_Linear_5,1,1,48,84,4030964804
41,18,19,Jits_Linear_5,2,1,48,59,4030993776
41,18,19,Jits_Linear_5,3,5,63,98,4030999872
41,18,19,Jits_Linear_5,4,5,56,103,4031020356
41,18,19,Jits_Linear_5,0,5,56,103,4031480308
41,18,19,Jits_Linear_5,1,5,80,127,4031499572
41,18,19,Jits_Linear_5,2,1,48,89,4031526088
41,18,19,Jits_Linear_5,3,1,38,19,4031536028
41,18,19,Jits_Linear_5,4,5,63,98,4031539436
41,18,19,Jits_Linear_5,5,1,48,54,4031560896
41,18,19,Jits_Linear_5,0,5,63,98,4032049700
41,18,19,Jits_Linear_5,1,1,48,80,4032054320
41,18,19,Jits_Linear_5,2,1,38,19,4032064332
41,18,19,Jits_Linear_5,3,5,80,127,4032070136
41,18,19,Jits_Linear_5,4,1,48,42,4032094220
41,18,19,Jits_Linear_5,5,5,56,103,4032110052
41,18,19,Jits_Linear_5,0,1,48,87,4032607096
41,18,19,Jits_Linear_5,1,5,63,98,4032609828
41,18,19,Jits_Linear_5,2,5,56,103,4032630064
41,18,19,Jits_Linear_5,3,1,48,50,4032640620
41,18,19,Jits_Linear_5,4,5,80,127,4032642112
41,18,19,Jits_Linear_5,0,5,80,127,4033169732
41,18,19,Jits_Linear_5,1,1,48,91,4033172700
41,18,19,Jits_Linear_5,2,5,56,103,4033190184
41,18,19,Jits_Linear_5,3,1,48,62,4033207608
41,18,19,Jits_Linear_5,4,5,63,98,4033219840
41,18,19,Jits_Linear_5,5,1,48,44,4033237616
41,18,19,Jits_Linear_5,0,1,48,90,4033740736
41,18,19,Jits_Linear_5,1,1,48,50,4033772932
41,18,19,Jits_Linear_5,2,5,56,103,4033809748
41,18,19,Jits_Linear_5,3,5,80,127,4033812740
41,18,19,Jits_Linear_5,4,5,63,98,4033830380
41,18,19,Jits_Linear_5,0,5,63,98,4034300144
41,18,19,Jits_Linear_5,1,5,56,103,4034329896
41,18,19,Jits_Linear_5,2,1,48,83,4034335132
41,18,19,Jits_Linear_5,3,5,80,127,4034390452
41,18,19,Jits_Linear_5,0,1,48,78,4034902540
41,18,19,Jits_Linear_5,1,5,63,98,4034949476
41,18,19,Jits_Linear_5,2,5,56,103,4034959596
41,18,19,Jits_Linear_5,3,5,80,127,4034970016
41,18,19,Jits_Linear_5,0,5,56,103,4035469924
41,18,19,Jits_Linear_5,1,1,48,93,4035484204
41,18,19,Jits_Linear_5,2,5,80,127,4035500568
41,18,19,Jits_Linear_5,3,1,48,58,4035507112
41,18,19,Jits_Linear_5,4,5,63,98,4035509844
41,18,19,Jits_Linear_5,0,1,48,106,4036042240
41,18,19,Jits_Linear_5,1,1,48,64,4036064696
41,18,19,Jits_Linear_5,2,5,63,98,4036079936
41,18,19,Jits_Linear_5,3,5,56,103,4036090208
41,18,19,Jits_Linear_5,4,5,80,127,4036109844
41,18,19,Jits_Linear_5,0,5,56,103,4036579652
41,18,19,Jits_Linear_5,1,1,48,73,4036623752
41,18,19,Jits_Linear_5,2,1,38,18,4036633624
41,18,19,Jits_Linear_5,3,5,63,98,4036640116
41,18,19,Jits_Linear_5,4,5,80,127,4036643552
41,18,19,Jits_Linear_5,0,5,80,127,4037179712
41,18,19,Jits_Linear_5,1,5,56,103,4037190132
41,18,19,Jits_Linear_5,2,1,48,97,4037196764
41,18,19,Jits_Linear_5,3,1,48,60,4037221628
41,18,19,Jits_Linear_5,4,5,63,98,4037259712
41,18,19,Jits_Linear_5,0,1,48,77,4037747072
41,18,19,Jits_Linear_5,1,5,80,127,4037750104
41,18,19,Jits_Linear_5,2,1,48,53,4037774932
41,18,19,Jits_Linear_5,3,5,56,103,4037819696
41,18,19,Jits_Linear_5,4,5,63,98,4037829892
41,18,19,Jits_Linear_5,0,1,48,83,4038368748
41,18,19,Jits_Linear_5,1,5,63,98,4038370544
41,18,19,Jits_Linear_5,2,5,56,103,4038379840
41,18,19,Jits_Linear_5,3,1,48,56,4038395896
41,18,19,Jits_Linear_5,4,5,80,127,4038400652
41,18,19,Jits_Linear_5,0,5,80,127,4038900104
41,18,19,Jits_Linear_5,1,1,48,81,4038951796
41,18,19,Jits_Linear_5,2,5,63,98,4038959768
41,18,19,Jits_Linear_5,3,1,48,58,4038974180
41,18,19,Jits_Linear_5,4,5,56,103,4039000508
41,18,19,Jits_Linear_5,0,5,56,103,4039529800
41,18,19,Jits_Linear_5,1,5,63,98,4039540068
41,18,19,Jits_Linear_5,2,1,48,89,4039553824
41,18,19,Jits_Linear_5,3,5,80,127,4039580000
41,18,19,Jits_Linear_5,0,5,56,103,4040079844
41,18,19,Jits_Linear_5,1,5,80,127,4040109596
41,18,19,Jits_Linear_5,2,1,48,61,4040113468
41,18,19,Jits_Linear_5,3,5,63,98,4040159792
41,18,19,Jits_Linear_5,0,1,48,101,4040705600
41,18,19,Jits_Linear_5,1,5,56,103,4040709456
41,18,19,Jits_Linear_5,2,1,48,64,4040733408
41,18,19,Jits_Linear_5,3,5,63,98,4040749400
41,18,19,Jits_Linear_5,4,5,80,127,4040752688
41,18,19,Jits_Linear_5,0,5,56,103,4041300492
41,18,19,Jits_Linear_5,1,5,63,98,4041309568
41,18,19,Jits_Linear_5,2,1,48,79,4041313132
41,18,19,Jits_Linear_5,3,1,38,18,4041323532
41,18,19,Jits_Linear_5,4,5,80,127,4041330076
41,18,19,Jits_Linear_5,5,1,48,57,4041340980
41,18,19,Jits_Linear_5,0,5,56,103,4041850076
41,18,19,Jits_Linear_5,1,5,80,127,4041853296
41,18,19,Jits_Linear_5,2,5,63,98,4041890020
41,18,19,Jits_Linear_5,3,1,48,100,4041908952
41,18,19,Jits_Linear_5,4,1,48,61,4041937160
41,18,19,Jits_Linear_5,0,5,63,98,4042479972
41,18,19,Jits_Linear_5,1,1,48,111,4042488868
41,18,19,Jits_Linear_5,2,5,56,103,4042509640
41,18,19,Jits_Linear_5,3,1,48,62,4042512536
41,18,19,Jits_Linear_5,4,5,80,127,4042530400
41,18,19,Jits_Linear_5,0,5,80,127,4043050544
41,18,19,Jits_Linear_5,1,5,56,103,4043059544
41,18,19,Jits_Linear_5,2,5,63,98,4043069816
41,18,19,Jits_Linear_5,3,1,48,98,4043084468
41,18,19,Jits_Linear_5,4,1,48,54,4043112844
41,18,19,Jits_Linear_5,0,5,56,103,4043650464
41,18,19,Jits_Linear_5,1,1,48,95,4043661228
41,18,19,Jits_Linear_5,2,1,38,21,4043671320
41,18,19,Jits_Linear_5,3,1,48,59,4043688848
41,18,19,Jits_Linear_5,4,5,80,127,4043690284
41,18,19,Jits_Linear_5,5,5,63,98,4043720108
41,18,19,Jits_Linear_5,0,1,48,93,4044235596
41,18,19,Jits_Linear_5,1,5,63,98,4044259612
41,18,19,Jits_Linear_5,2,1,48,59,4044262508
41,18,19,Jits_Linear_5,3,5,80,127,4044270008
41,18,19,Jits_Linear_5,4,5,56,103,4044280356
41,18,19,Jits_Linear_5,0,5,56,103,4044840440
41,18,19,Jits_Linear_5,1,1,48,87,4044841332
41,18,19,Jits_Linear_5,2,1,48,57,4044867576
41,18,19,Jits_Linear_5,3,5,63,98,4044909948
41,18,19,Jits_Linear_5,4,5,80,127,4044920144
41,18,19,Jits_Linear_5,0,5,80,127,4045449576
41,18,19,Jits_Linear_5,1,5,56,103,4045459700
41,18,19,Jits_Linear_5,2,1,48,95,4045486856
41,18,19,Jits_Linear_5,3,5,63,98,4045510116
41,18,19,Jits_Linear_5,4,1,48,62,4045514716
41,18,19,Jits_Linear_5,0,5,80,127,4046070392
41,18,19,Jits_Linear_5,1,1,48,62,4046073888
41,18,19,Jits_Linear_5,2,5,56,103,4046129388
41,18,19,Jits_Linear_5,3,5,63,98,4046160256
41,18,19,Jits_Linear_5,0,5,56,103,4046680408
41,18,19,Jits_Linear_5,1,5,80,127,4046683552
41,18,19,Jits_Linear_5,2,1,48,92,4046713872
41,18,19,Jits_Linear_5,3,5,63,98,4046720416
41,18,19,Jits_Linear_5,4,1,38,20,4046723612
41,18,19,Jits_Linear_5,5,1,48,56,4046736992
41,18,19,Jits_Linear_5,0,5,56,103,4047320508
41,18,19,Jits_Linear_5,1,1,48,108,4047327684
41,18,19,Jits_Linear_5,2,5,63,98,4047350252
41,18,19,Jits_Linear_5,3,5,80,127,4047360300
41,18,19,Jits_Linear_5,4,1,48,51,4047371720
41,18,19,Jits_Linear_5,0,1,48,106,4047924992
41,18,19,Jits_Linear_5,1,1,38,21,4047935384
41,18,19,Jits_Linear_5,2,5,63,98,4047939916
41,18,19,Jits_Linear_5,3,5,80,127,4047950408
41,18,19,Jits_Linear_5,4,5,56,103,4047960384
41,18,19,Jits_Linear_5,5,1,48,32,4048004536
41,18,19,Jits_Linear_5,0,5,80,127,4048500400
41,18,19,Jits_Linear_5,1,5,56,103,4048550528
41,18,19,Jits_Linear_5,2,5,63,98,4048553668
41,18,19,Jits_Linear_5,3,1,48,109,4048556420
41,18,19,Jits_Linear_5,4,1,48,46,4048613032
41,18,19,Jits_Linear_5,0,5,56,103,4049150444
41,18,19,Jits_Linear_5,1,1,48,95,4049153784
41,18,19,Jits_Linear_5,2,1,38,22,4049163808
41,18,19,Jits_Linear_5,3,5,80,127,4049169828
41,18,19,Jits_Linear_5,4,5,63,98,4049180272
41,18,19,Jits_Linear_5,5,1,48,35,4049223676
41,18,19,Jits_Linear_5,0,5,63,98,4049750328
41,18,19,Jits_Linear_5,1,1,48,86,4049764388
41,18,19,Jits_Linear_5,2,1,38,21,4049774180
41,18,19,Jits_Linear_5,3,5,56,103,4049780352
41,18,19,Jits_Linear_5,4,5,80,127,4049799468
41,18,19,Jits_Linear_5,5,1,48,46,4049806160
41,18,19,Jits_Linear_5,0,5,56,103,4050380368
41,18,19,Jits_Linear_5,1,1,48,96,4050386480
41,18,19,Jits_Linear_5,2,5,80,127,4050390336
41,18,19,Jits_Linear_5,3,1,38,22,4050396300
41,18,19,Jits_Linear_5,4,1,48,32,4050455236
41,18,19,Jits_Linear_5,5,5,63,98,4050460236
41,18,19,Jits_Linear_5,0,5,63,98,4050989412
41,18,19,Jits_Linear_5,1,1,48,83,4051028204
41,18,19,Jits_Linear_5,2,5,80,127,4051030320
41,18,19,Jits_Linear_5,3,5,56,103,4051070332
41,18,19,Jits_Linear_5,4,1,48,37,4051092388
41,18,19,Jits_Linear_5,0,1,48,126,4051618656
41,18,19,Jits_Linear_5,1,5,56,103,4051629320
41,18,19,Jits_Linear_5,2,5,63,98,4051639740
41,18,19,Jits_Linear_5,3,5,80,127,4051660276
41,18,19,Jits_Linear_5,4,1,48,30,4051708412
41,18,19,Jits_Linear_5,0,1,48,95,4052246440
41,18,19,Jits_Linear_5,1,1,38,20,4052256648
41,18,19,Jits_Linear_5,2,5,63,98,4052300368
41,18,19,Jits_Linear_5,3,5,80,127,4052319560
41,18,19,Jits_Linear_5,4,5,56,103,4052340300
41,18,19,Jits_Linear_5,5,1,48,20,4052369328
41,18,19,Jits_Linear_5,0,5,56,103,4052879724
41,18,19,Jits_Linear_5,1,1,48,97,4052880692
41,18,19,Jits_Linear_5,2,1,38,21,4052890332
41,18,19,Jits_Linear_5,3,5,80,127,4052959512
41,18,19,Jits_Linear_5,4,1,48,39,4052968864
41,18,19,Jits_Linear_5,5,5,63,98,4052970432
41,18,19,Jits_Linear_5,0,5,80,127,4053559656
41,18,19,Jits_Linear_5,1,1,48,82,4053561144
41,18,19,Jits_Linear_5,2,5,63,98,4053570068
41,18,19,Jits_Linear_5,3,1,38,19,4053571480
41,18,19,Jits_Linear_5,4,5,56,103,4053599740
41,18,19,Jits_Linear_5,5,1,48,46,4053606512
41,18,19,Jits_Linear_5,0,5,63,98,4054159608
41,18,19,Jits_Linear_5,1,1,48,80,4054189924
41,18,19,Jits_Linear_5,2,1,38,19,4054199824
41,18,19,Jits_Linear_5,3,5,80,127,4054201988
41,18,19,Jits_Linear_5,4,1,48,46,4054249976
41,18,19,Jits_Linear_5,5,5,56,103,4054260484
41,18,19,Jits_Linear_5,0,5,63,98,4054820104
41,18,19,Jits_Linear_5,1,1,48,80,4054821068
41,18,19,Jits_Linear_5,2,1,38,19,4054830636
41,18,19,Jits_Linear_5,3,1,48,48,4054868536
41,18,19,Jits_Linear_5,4,5,56,103,4054870348
41,18,19,Jits_Linear_5,5,5,80,127,4054900024
41,18,19,Jits_Linear_5,0,5,80,127,4055469416
41,18,19,Jits_Linear_5,1,5,63,98,4055479612
41,18,19,Jits_Linear_5,2,1,48,82,4055482732
41,18,19,Jits_Linear_5,3,1,48,41,4055526004
41,18,19,Jits_Linear_5,4,5,56,103,4055550388
41,18,19,Jits_Linear_5,0,1,48,88,4056139908
41,18,19,Jits_Linear_5,1,5,80,127,4056180164
41,18,19,Jits_Linear_5,2,1,48,49,4056182088
41,18,19,Jits_Linear_5,3,5,56,103,4056190412
41,18,19,Jits_Linear_5,4,5,63,98,4056193628
41,18,19,Jits_Linear_5,0,5,56,103,4056759768
41,18,19,Jits_Linear_5,1,5,80,127,4056780156
41,18,19,Jits_Linear_5,2,5,63,98,4056790280
41,18,19,Jits_Linear_5,3,1,48,75,4056824784
41,18,19,Jits_Linear_5,4,1,38,19,4056834136
41,18,19,Jits_Linear_5,5,1,48,51,4056862904
41,18,19,Jits_Linear_5,0,5,63,98,4057410232
41,18,19,Jits_Linear_5,1,5,56,103,4057449948
41,18,19,Jits_Linear_5,2,1,48,89,4057457800
41,18,19,Jits_Linear_5,3,1,38,22,4057467128
41,18,19,Jits_Linear_5,4,5,80,127,4057470308
41,18,19,Jits_Linear_5,5,1,48,50,4057491020
41,18,19,Jits_Linear_5,0,5,63,98,4058050020
41,18,19,Jits_Linear_5,1,1,48,91,4058088516
41,18,19,Jits_Linear_5,2,1,38,21,4058098456
41,18,19,Jits_Linear_5,3,5,56,103,4058110388
41,18,19,Jits_Linear_5,4,5,80,127,4058113456
41,18,19,Jits_Linear_5,5,1,48,59,4058121436
41,18,19,Jits_Linear_5,0,5,56,103,4058669360
41,18,19,Jits_Linear_5,1,5,80,127,4058689892
41,18,19,Jits_Linear_5,2,5,63,98,4058729980
41,18,19,Jits_Linear_5,3,1,48,80,4058760452
41,18,19,Jits_Linear_5,4,1,38,20,4058769944
41,18,19,Jits_Linear_5,5,1,48,46,4058797648
41,18,19,Jits_Linear_5,0,1,48,79,4059348160
41,18,19,Jits_Linear_5,1,5,56,103,4059350276
41,18,19,Jits_Linear_5,2,1,38,19,4059357824
41,18,19,Jits_Linear_5,3,5,63,98,4059369980
41,18,19,Jits_Linear_5,4,5,80,127,4059380100
41,18,19,Jits_Linear_5,5,1,48,47,4059382100
41,18,19,Jits_Linear_5,0,5,80,127,4059969868
41,18,19,Jits_Linear_5,1,1,48,86,4059975980
41,18,19,Jits_Linear_5,2,5,56,103,4059999464
41,18,19,Jits_Linear_5,3,1,48,52,4060009240
41,18,19,Jits_Linear_5,4,5,63,98,4060039608
41,18,19,Jits_Linear_5,0,1,48,77,4060608720
41,18,19,Jits_Linear_5,1,5,80,127,4060630316
41,18,19,Jits_Linear_5,2,5,56,103,4060649804
41,18,19,Jits_Linear_5,3,5,63,98,4060710204
41,18,19,Jits_Linear_5,0,1,48,107,4061276912
41,18,19,Jits_Linear_5,1,5,56,103,4061289840
41,18,19,Jits_Linear_5,2,1,48,64,4061304400
41,18,19,Jits_Linear_5,3,5,80,127,4061310200
41,18,19,Jits_Linear_5,4,5,63,98,4061369844
41,18,19,Jits_Linear_5,0,5,80,127,4061930004
41,18,19,Jits_Linear_5,1,5,56,103,4061940052
41,18,19,Jits_Linear_5,2,1,48,97,4061946240
41,18,19,Jits_Linear_5,3,1,48,61,4061968780
41,18,19,Jits_Linear_5,4,5,63,98,4061979916
41,18,19,Jits_Linear_5,0,5,63,98,4062590332
41,18,19,Jits_Linear_5,1,1,48,82,4062599900
41,18,19,Jits_Linear_5,2,1,38,19,4062609244
41,18,19,Jits_Linear_5,3,5,56,103,4062630392
41,18,19,Jits_Linear_5,4,1,48,51,4062632264
41,18,19,Jits_Linear_5,5,5,80,127,4062635460
41,18,19,Jits_Linear_5,0,1,48,95,4063241604
41,18,19,Jits_Linear_5,1,5,63,98,4063270200
41,18,19,Jits_Linear_5,2,1,48,57,4063272568
41,18,19,Jits_Linear_5,3,5,80,127,4063310120
41,18,19,Jits_Linear_5,4,5,56,103,4063340020
41,18,19,Jits_Linear_5,0,1,48,46,4063918732
41,18,19,Jits_Linear_5,1,5,56,103,4063920600
41,18,19,Jits_Linear_5,2,1,38,15,4063927856
41,18,19,Jits_Linear_5,3,5,63,98,4063930040
41,18,19,Jits_Linear_5,4,5,80,127,4063960392
41,18,19,Jits_Linear_5,5,1,48,36,4063965516
41,18,19,Jits_Linear_5,0,1,48,72,4064532192
41,18,19,Jits_Linear_5,1,5,80,127,4064579900
41,18,19,Jits_Linear_5,2,5,63,98,4064649868
41,18,19,Jits_Linear_5,3,5,56,103,4064659840
41,18,19,Jits_Linear_5,0,1,48,66,4065215160
41,18,19,Jits_Linear_5,1,5,63,98,4065250032
41,18,19,Jits_Linear_5,2,5,56,103,4065320256
41,18,19,Jits_Linear_5,3,5,80,127,4065329628
41,18,19,Jits_Linear_5,0,5,63,98,4065920352
41,18,19,Jits_Linear_5,1,5,56,103,4065939840
41,18,19,Jits_Linear_5,2,1,48,73,4065950452
41,18,19,Jits_Linear_5,3,1,48,49,4065978928
41,18,19,Jits_Linear_5,4,5,80,127,4065980196
41,18,19,Jits_Linear_5,0,1,48,84,4066588644
41,18,19,Jits_Linear_5,1,5,56,103,4066600356
41,18,19,Jits_Linear_5,2,5,63,98,4066609508
41,18,19,Jits_Linear_5,3,1,48,43,4066629396
41,18,19,Jits_Linear_5,4,5,80,127,4066690628
41,18,19,Jits_Linear_5,0,5,63,98,4067259756
41,18,19,Jits_Linear_5,1,1,48,31,4067276132
41,18,19,Jits_Linear_5,2,1,38,18,4067284280
41,18,19,Jits_Linear_5,3,5,56,103,4067289480
41,18,19,Jits_Linear_5,4,5,80,127,4067330692
41,18,19,Jits_Linear_5,0,1,48,84,4067900980
41,18,19,Jits_Linear_5,1,5,56,103,4067929404
41,18,19,Jits_Linear_5,2,1,48,58,4067939780
41,18,19,Jits_Linear_5,3,5,63,98,4067970520
41,18,19,Jits_Linear_5,4,5,80,127,4068010460
41,18,19,Jits_Linear_5,0,1,48,78,4068598816
41,18,19,Jits_Linear_5,1,5,80,127,4068610520
41,18,19,Jits_Linear_5,2,1,48,54,4068621348
41,18,19,Jits_Linear_5,3,5,56,103,4068690396
41,18,19,Jits_Linear_5,4,5,63,98,4068699844
41,18,19,Jits_Linear_5,0,1,48,85,4069293140
41,18,19,Jits_Linear_5,1,5,56,103,4069330404
41,18,19,Jits_Linear_5,2,5,63,98,4069333468
41,18,19,Jits_Linear_5,3,5,80,127,4069339700
41,18,19,Jits_Linear_5,4,1,48,41,4069367444
41,18,19,Jits_Linear_5,0,1,48,90,4069993080
41,18,19,Jits_Linear_5,1,5,56,103,4070029896
41,18,19,Jits_Linear_5,2,5,63,98,4070050060
41,18,19,Jits_Linear_5,3,5,80,127,4070060628
41,18,19,Jits_Linear_5,4,1,48,34,4070096992
41,18,19,Jits_Linear_5,0,5,63,98,4070679860
41,18,19,Jits_Linear_5,1,5,80,127,4070690428
41,18,19,Jits_Linear_5,2,1,48,71,4070699324
41,18,19,Jits_Linear_5,3,5,56,103,4070709536
41,18,19,Jits_Linear_5,0,1,48,71,4071360600
41,18,19,Jits_Linear_5,1,5,63,98,4071370064
41,18,19,Jits_Linear_5,2,1,38,18,4071370956
41,18,19,Jits_Linear_5,3,5,56,103,4071450028
41,18,19,Jits_Linear_5,4,5,80,127,4071453244
41,18,19,Jits_Linear_5,0,1,48,85,4072016688
41,18,19,Jits_Linear_5,1,5,63,98,4072060328
41,18,19,Jits_Linear_5,2,5,56,103,4072079816
41,18,19,Jits_Linear_5,3,5,80,127,4072109716
41,18,19,Jits_Linear_5,0,1,48,82,4072735024
41,18,19,Jits_Linear_5,1,5,56,103,4072749668
41,18,19,Jits_Linear_5,2,5,63,98,4072769756
41,18,19,Jits_Linear_5,3,5,80,127,4072780248
41,18,19,Jits_Linear_5,0,1,48,82,4073392648
41,18,19,Jits_Linear_5,1,5,56,103,4073470300
41,18,19,Jits_Linear_5,2,5,63,98,4073500132
41,18,19,Jits_Linear_5,3,5,80,127,4073503496
41,18,19,Jits_Linear_5,0,1,48,92,4074106844
41,18,19,Jits_Linear_5,1,5,56,103,4074110624
41,18,19,Jits_Linear_5,2,5,63,98,4074150568
41,18,19,Jits_Linear_5,3,5,80,127,4074209672
41,18,19,Jits_Linear_5,0,1,48,66,4074773988
41,18,19,Jits_Linear_5,1,5,56,103,4074819824
41,18,19,Jits_Linear_5,2,5,63,98,4074830468
41,18,19,Jits_Linear_5,3,5,80,127,4074889724
41,18,19,Jits_Linear_5,0,1,48,68,4075438012
41,18,19,Jits_Linear_5,1,5,56,103,4075520452
41,18,19,Jits_Linear_5,2,5,80,127,4075539776
41,18,19,Jits_Linear_5,3,5,63,98,4075569624
41,18,19,Jits_Linear_5,0,1,48,86,4076192600
41,18,19,Jits_Linear_5,1,5,80,127,4076219904
41,18,19,Jits_Linear_5,2,5,56,103,4076229952
41,18,19,Jits_Linear_5,3,5,63,98,4076249588
41,18,19,Jits_Linear_5,0,1,48,78,4076878876
41,18,19,Jits_Linear_5,1,5,63,98,4076909840
41,18,19,Jits_Linear_5,2,5,80,127,4076989848
41,18,19,Jits_Linear_5,3,5,56,103,4077000488
41,18,19,Jits_Linear_5,0,1,48,95,4077583308
41,18,19,Jits_Linear_5,1,5,80,127,4077669680
41,18,19,Jits_Linear_5,2,1,48,34,4077675328
41,18,19,Jits_Linear_5,3,5,56,103,4077690416
41,18,19,Jits_Linear_5,4,5,63,98,4077693480
41,18,19,Jits_Linear_5,0,5,63,98,4078349680
41,18,19,Jits_Linear_5,1,5,80,127,4078352968
41,18,19,Jits_Linear_5,2,1,48,80,4078367800
41,18,19,Jits_Linear_5,3,5,56,103,4078410312
41,18,19,Jits_Linear_5,0,5,56,103,4079040060
41,18,19,Jits_Linear_5,1,5,80,127,4079050184
41,18,19,Jits_Linear_5,2,1,48,89,4079062144
41,18,19,Jits_Linear_5,3,5,63,98,4079090116
41,18,19,Jits_Linear_5,4,1,48,51,4079116960
41,18,19,Jits_Linear_5,0,5,56,103,4079730132
41,18,19,Jits_Linear_5,1,1,48,78,4079764188
41,18,19,Jits_Linear_5,2,5,63,98,4079789400
41,18,19,Jits_Linear_5,3,5,80,127,4079799596
41,18,19,Jits_Linear_5,4,1,48,26,4079835284
41,18,19,Jits_Linear_5,0,1,48,88,4080435304
41,18,19,Jits_Linear_5,1,5,63,98,4080450164
41,18,19,Jits_Linear_5,2,5,80,127,4080489884
41,18,19,Jits_Linear_5,3,1,48,35,4080514636
41,18,19,Jits_Linear_5,4,5,56,103,4080529728
41,18,19,Jits_Linear_5,0,1,48,98,4081164592
41,18,19,Jits_Linear_5,1,5,56,103,4081169944
41,18,19,Jits_Linear_5,2,1,48,48,4081226632
41,18,19,Jits_Linear_5,3,5,63,98,4081249596
41,18,19,Jits_Linear_5,4,5,80,127,4081253032
41,18,19,Jits_Linear_5,0,1,48,95,4081891960
41,18,19,Jits_Linear_5,1,5,80,127,4081939940
41,18,19,Jits_Linear_5,2,5,56,103,4081969492
41,18,19,Jits_Linear_5,3,5,63,98,4081972484
41,18,19,Jits_Linear_5,0,5,56,103,4082619768
41,18,19,Jits_Linear_5,1,5,80,127,4082640228
41,18,19,Jits_Linear_5,2,1,48,98,4082653464
41,18,19,Jits_Linear_5,3,5,63,98,4082680236
41,18,19,Jits_Linear_5,4,1,48,27,4082735208
41,18,19,Jits_Linear_5,0,5,80,127,4083320332
41,18,19,Jits_Linear_5,1,1,48,97,4083324200
41,18,19,Jits_Linear_5,2,5,63,98,4083339664
41,18,19,Jits_Linear_5,3,1,48,40,4083381504
41,18,19,Jits_Linear_5,4,5,56,103,4083400180
41,18,19,Jits_Linear_5,0,1,48,84,4084000784
41,18,19,Jits_Linear_5,1,5,63,98,4084050256
41,18,19,Jits_Linear_5,2,5,56,103,4084059484
41,18,19,Jits_Linear_5,3,1,48,27,4084065504
41,18,19,Jits_Linear_5,4,5,80,127,4084109664
41,18,19,Jits_Linear_5,0,1,48,111,4084706088
41,18,19,Jits_Linear_5,1,1,48,45,4084764840
41,18,19,Jits_Linear_5,2,5,56,103,4084770188
41,18,19,Jits_Linear_5,3,5,63,98,4084789676
41,18,19,Jits_Linear_5,4,5,80,127,4084799948
41,18,19,Jits_Linear_5,0,1,48,105,4085439188
41,18,19,Jits_Linear_5,1,5,56,103,4085490232
41,18,19,Jits_Linear_5,2,5,63,98,4085493448
41,18,19,Jits_Linear_5,3,5,80,127,4085509424
41,18,19,Jits_Linear_5,4,1,48,40,4085516640
41,18,19,Jits_Linear_5,5,1,48,25,4085570592
41,18,19,Jits_Linear_5,0,1,48,92,4086141436
41,18,19,Jits_Linear_5,1,1,48,49,4086201204
41,18,19,Jits_Linear_5,2,5,63,98,4086260048
41,18,19,Jits_Linear_5,3,5,56,103,4086289876
41,18,19,Jits_Linear_5,4,5,80,127,4086319336
41,18,19,Jits_Linear_5,0,1,48,98,4086928908
41,18,19,Jits_Linear_5,1,5,80,127,4086950208
41,18,19,Jits_Linear_5,2,1,48,22,4087024712
41,18,19,Jits_Linear_5,3,5,56,103,4087040244
41,18,19,Jits_Linear_5,4,5,63,98,4087043388
41,18,19,Jits_Linear_5,0,5,56,103,4087680496
41,18,19,Jits_Linear_5,1,5,80,127,4087683340
41,18,19,Jits_Linear_5,2,1,48,83,4087741904
41,18,19,Jits_Linear_5,3,5,63,98,4087760360
41,18,19,Jits_Linear_5,4,1,48,34,4087823476
41,18,19,Jits_Linear_5,0,5,80,127,4088409524
41,18,19,Jits_Linear_5,1,1,48,91,4088461940
41,18,19,Jits_Linear_5,2,5,63,98,4088470056
41,18,19,Jits_Linear_5,3,5,56,103,4088499436
41,18,19,Jits_Linear_5,4,1,48,37,4088550416
41,18,19,Jits_Linear_5,0,5,63,98,4089139604
41,18,19,Jits_Linear_5,1,5,80,127,4089149952
41,18,19,Jits_Linear_5,2,1,48,59,4089209868
41,18,19,Jits_Linear_5,3,5,56,103,4089219404
41,18,19,Jits_Linear_5,0,5,56,103,4089900340
41,18,19,Jits_Linear_5,1,1,48,91,4089913196
41,18,19,Jits_Linear_5,2,5,80,127,4089930084
41,18,19,Jits_Linear_5,3,5,63,98,4089980212
41,18,19,Jits_Linear_5,4,1,48,32,4089990060
41,18,19,Jits_Linear_5,0,1,48,78,4090668828
41,18,19,Jits_Linear_5,1,5,63,98,4090679792
41,18,19,Jits_Linear_5,2,5,56,103,4090710364
41,18,19,Jits_Linear_5,3,5,80,127,4090713504
41,18,19,Jits_Linear_5,0,1,48,99,4091408784
41,18,19,Jits_Linear_5,1,5,63,98,4091419992
41,18,19,Jits_Linear_5,2,5,80,127,4091439484
41,18,19,Jits_Linear_5,3,5,56,103,4091449976
41,18,19,Jits_Linear_5,4,1,48,32,4091494056
41,18,19,Jits_Linear_5,0,1,48,92,4092109856
41,18,19,Jits_Linear_5,1,5,56,103,4092169520
41,18,19,Jits_Linear_5,2,5,63,98,4092172732
41,18,19,Jits_Linear_5,3,1,48,36,4092178172
41,18,19,Jits_Linear_5,4,5,80,127,4092190132
41,18,19,Jits_Linear_5,0,1,48,63,4092807928
41,18,19,Jits_Linear_5,1,5,56,103,4092870136
41,18,19,Jits_Linear_5,2,5,63,98,4092880184
41,18,19,Jits_Linear_5,3,5,80,127,4092909992
41,18,19,Jits_Linear_5,0,1,48,89,4093585884
41,18,19,Jits_Linear_5,1,5,63,98,4093640160
41,18,19,Jits_Linear_5,2,5,80,127,4093659724
41,18,19,Jits_Linear_5,3,5,56,103,4093699720
41,18,19,Jits_Linear_5,0,1,48,67,4094384612
41,18,19,Jits_Linear_5,1,5,56,103,4094420456
41,18,19,Jits_Linear_5,2,1,48,41,4094436744
41,18,19,Jits_Linear_5,3,5,63,98,4094460144
41,18,19,Jits_Linear_5,4,5,80,127,4094463440
41,18,19,Jits_Linear_5,0,5,80,127,4095109472
41,18,19,Jits_Linear_5,1,1,48,86,4095113112
41,18,19,Jits_Linear_5,2,5,56,103,4095149404
41,18,19,Jits_Linear_5,3,1,48,41,4095154976
41,18,19,Jits_Linear_5,4,5,63,98,4095199736
41,18,19,Jits_Linear_5,0,1,48,73,4095872560
41,18,19,Jits_Linear_5,1,1,48,41,4095920600
41,18,19,Jits_Linear_5,2,5,56,103,4095921788
41,18,19,Jits_Linear_5,3,5,80,127,4095929816
41,18,19,Jits_Linear_5,4,5,63,98,4095960540
41,18,19,Jits_Linear_5,0,5,56,103,4096619900
41,18,19,Jits_Linear_5,1,1,48,80,4096627736
41,18,19,Jits_Linear_5,2,5,80,127,4096659760
41,18,19,Jits_Linear_5,3,1,48,40,4096678604
41,18,19,Jits_Linear_5,4,5,63,98,4096709940
41,18,19,Jits_Linear_5,0,5,56,103,4097379572
41,18,19,Jits_Linear_5,1,1,48,72,4097397588
41,18,19,Jits_Linear_5,2,5,80,127,4097419800
41,18,19,Jits_Linear_5,3,1,48,36,4097451676
41,18,19,Jits_Linear_5,4,5,63,98,4097469760
41,18,19,Jits_Linear_5,0,5,80,127,4098130252
41,18,19,Jits_Linear_5,1,1,48,67,4098143708
41,18,19,Jits_Linear_5,2,1,48,43,4098196580
41,18,19,Jits_Linear_5,3,5,63,98,4098210172
41,18,19,Jits_Linear_5,4,5,56,103,4098220744
41,18,19,Jits_Linear_5,0,1,48,72,4098908408
41,18,19,Jits_Linear_5,1,5,80,127,4098940272
41,18,19,Jits_Linear_5,2,1,48,43,4098948424
41,18,19,Jits_Linear_5,3,5,56,103,4098949772
41,18,19,Jits_Linear_5,4,5,63,98,4098969860
41,18,19,Jits_Linear_5,0,5,63,98,4099670492
41,18,19,Jits_Linear_5,1,1,48,81,4099707392
41,18,19,Jits_Linear_5,2,5,56,103,4099739944
41,18,19,Jits_Linear_5,3,5,80,127,4099743084
41,18,19,Jits_Linear_5,4,1,48,49,4099750920
41,18,19,Jits_Linear_5,0,5,80,127,4100430224
41,18,19,Jits_Linear_5,1,5,63,98,4100480652
41,18,19,Jits_Linear_5,2,1,48,80,4100499960
41,18,19,Jits_Linear_5,3,5,56,103,4100520584
41,18,19,Jits_Linear_5,4,1,48,43,4100536268
41,18,19,Jits_Linear_5,0,1,48,62,4101183572
41,18,19,Jits_Linear_5,1,1,48,39,4101218624
41,18,19,Jits_Linear_5,2,5,63,98,4101240220
41,18,19,Jits_Linear_5,3,5,56,103,4101280236
41,18,19,Jits_Linear_5,4,5,80,127,4101290432
41,18,19,Jits_Linear_5,0,1,48,67,4101963760
41,18,19,Jits_Linear_5,1,5,63,98,4101999908
41,18,19,Jits_Linear_5,2,5,56,103,4102019548
41,18,19,Jits_Linear_5,3,5,80,127,4102039932
41,18,19,Jits_Linear_5,0,5,80,127,4102730308
41,18,19,Jits_Linear_5,1,5,56,103,4102740428
41,18,19,Jits_Linear_5,2,5,63,98,4102759768
41,18,19,Jits_Linear_5,3,1,48,82,4102782736
41,18,19,Jits_Linear_5,4,1,48,48,4102814256
41,18,19,Jits_Linear_5,0,1,48,62,4103481028
41,18,19,Jits_Linear_5,1,5,63,98,4103529832
41,18,19,Jits_Linear_5,2,5,56,103,4103569772
41,18,19,Jits_Linear_5,3,5,80,127,4103599360
41,18,19,Jits_Linear_5,0,1,48,75,4104254800
41,18,19,Jits_Linear_5,1,1,48,52,4104283096
41,18,19,Jits_Linear_5,2,5,56,103,4104310252
41,18,19,Jits_Linear_5,3,5,63,98,4104339856
41,18,19,Jits_Linear_5,4,5,80,127,4104369532
41,18,19,Jits_Linear_5,0,1,48,68,4105038596
41,18,19,Jits_Linear_5,1,5,80,127,4105059672
41,18,19,Jits_Linear_5,2,5,56,103,4105130476
41,18,19,Jits_Linear_5,3,5,63,98,4105133468
41,18,19,Jits_Linear_5,0,1,48,80,4105807020
41,18,19,Jits_Linear_5,1,5,56,103,4105850508
41,18,19,Jits_Linear_5,2,1,48,51,4105856308
41,18,19,Jits_Linear_5,3,5,63,98,4105900392
41,18,19,Jits_Linear_5,4,5,80,127,4105930216
41,18,19,Jits_Linear_5,0,5,63,98,4106610172
41,18,19,Jits_Linear_5,1,5,80,127,4106613388
41,18,19,Jits_Linear_5,2,1,48,57,4106648512
41,18,19,Jits_Linear_5,3,5,56,103,4106669512
41,18,19,Jits_Linear_5,4,1,48,42,4106679588
41,18,19,Jits_Linear_5,0,1,48,76,4107408304
41,18,19,Jits_Linear_5,1,5,56,103,4107419868
41,18,19,Jits_Linear_5,2,5,80,127,4107430512
41,18,19,Jits_Linear_5,3,1,48,47,4107436832
41,18,19,Jits_Linear_5,4,5,63,98,4107480396
41,18,19,Jits_Linear_5,0,5,63,98,4108179760
41,18,19,Jits_Linear_5,1,5,56,103,4108190176
41,18,19,Jits_Linear_5,2,1,48,82,4108203412
41,18,19,Jits_Linear_5,3,5,80,127,4108219848
41,18,19,Jits_Linear_5,4,1,48,52,4108229324
41,18,19,Jits_Linear_5,0,1,48,75,4108979016
41,18,19,Jits_Linear_5,1,5,63,98,4109000240
41,18,19,Jits_Linear_5,2,5,80,127,4109003604
41,18,19,Jits_Linear_5,3,1,48,46,4109008076
41,18,19,Jits_Linear_5,4,5,56,103,4109029748
41,18,19,Jits_Linear_5,0,1,48,71,4109719788
41,18,19,Jits_Linear_5,1,1,48,45,4109762536
41,18,19,Jits_Linear_5,2,5,63,98,4109810072
41,18,19,Jits_Linear_5,3,5,56,103,4109829632
41,18,19,Jits_Linear_5,4,5,80,127,4109832700
41,18,19,Jits_Linear_5,0,1,48,93,4110487292
41,18,19,Jits_Linear_5,1,1,48,51,4110522192
41,18,19,Jits_Linear_5,2,5,63,98,4110559536
41,18,19,Jits_Linear_5,3,5,56,103,4110630280
41,18,19,Jits_Linear_5,4,5,80,127,4110649620
41,18,19,Jits_Linear_5,0,1,48,80,4111314764
41,18,19,Jits_Linear_5,1,5,56,103,4111339748
41,18,19,Jits_Linear_5,2,1,48,49,4111350228
41,18,19,Jits_Linear_5,3,5,63,98,4111351568
41,18,19,Jits_Linear_5,4,5,80,127,4111440384
41,18,19,Jits_Linear_5,0,1,48,71,4112148784
41,18,19,Jits_Linear_5,1,5,56,103,4112150656
41,18,19,Jits_Linear_5,2,1,48,46,4112179316
41,18,19,Jits_Linear_5,3,5,80,127,4112189824
41,18,19,Jits_Linear_5,4,5,63,98,4112200244
41,18,19,Jits_Linear_5,0,5,56,103,4112970184
41,18,19,Jits_Linear_5,1,5,63,98,4112999860
41,18,19,Jits_Linear_5,2,1,48,78,4113011224
41,18,19,Jits_Linear_5,3,5,80,127,4113029456
41,18,19,Jits_Linear_5,4,1,48,54,4113036972
41,18,19,Jits_Linear_5,0,5,80,127,4113730084
41,18,19,Jits_Linear_5,1,1,48,47,4113748124
41,18,19,Jits_Linear_5,2,5,63,98,4113769944
41,18,19,Jits_Linear_5,3,5,56,103,4113790256
41,18,19,Jits_Linear_5,0,1,48,82,4114510580
41,18,19,Jits_Linear_5,1,1,48,48,4114543224
41,18,19,Jits_Linear_5,2,5,56,103,4114569552
41,18,19,Jits_Linear_5,3,5,80,127,4114590236
41,18,19,Jits_Linear_5,4,5,63,98,4114609500
41,18,19,Jits_Linear_5,0,5,63,98,4115339580
41,18,19,Jits_Linear_5,1,5,56,103,4115349924
41,18,19,Jits_Linear_5,2,1,48,89,4115392604
41,18,19,Jits_Linear_5,3,5,80,127,4115410160
41,18,19,Jits_Linear_5,4,1,48,40,4115438600
41,18,19,Jits_Linear_5,0,1,48,85,4116110964
41,18,19,Jits_Linear_5,1,5,56,103,4116149652
41,18,19,Jits_Linear_5,2,1,48,24,4116185792
41,18,19,Jits_Linear_5,3,5,63,98,4116220216
41,18,19,Jits_Linear_5,4,5,80,127,4116239928
41,18,19,Jits_Linear_5,0,1,48,61,4116920300
41,18,19,Jits_Linear_5,1,5,56,103,4116959736
41,18,19,Jits_Linear_5,2,5,63,98,4116990312
41,18,19,Jits_Linear_5,3,1,48,27,4117001208
41,18,19,Jits_Linear_5,4,5,80,127,4117030108
41,18,19,Jits_Linear_5,0,1,48,89,4117713068
41,18,19,Jits_Linear_5,1,1,48,52,4117751708
41,18,19,Jits_Linear_5,2,5,63,98,4117760352
41,18,19,Jits_Linear_5,3,5,56,103,4117809464
41,18,19,Jits_Linear_5,4,5,80,127,4117820104
41,18,19,Jits_Linear_5,0,1,48,107,4118526960
41,18,19,Jits_Linear_5,1,1,48,48,4118560844
41,18,19,Jits_Linear_5,2,5,56,103,4118610240
41,18,19,Jits_Linear_5,3,5,63,98,4118659460
41,18,19,Jits_Linear_5,4,5,80,127,4118669956
41,18,19,Jits_Linear_5,0,1,48,104,4119358316
41,18,19,Jits_Linear_5,1,1,48,59,4119387904
41,18,19,Jits_Linear_5,2,5,56,103,4119389488
41,18,19,Jits_Linear_5,3,5,63,98,4119400128
41,18,19,Jits_Linear_5,4,5,80,127,4119479632
41,18,19,Jits_Linear_5,0,9999,9999,9999,4010567792
41,18,19,Jits_Linear_5,1,9999,9999,9999,4011048032
41,18,19,Jits_Linear_5,2,9999,9999,9999,4011527224
41,18,19,Jits_Linear_5,3,9999,9999,9999,4012007476
41,18,19,Jits_Linear_5,4,9999,9999,9999,4012487740
41,18,19,Jits_Linear_5,5,9999,9999,9999,4012977240
41,18,19,Jits_Linear_5,6,9999,9999,9999,4013467776
41,18,19,Jits_Linear_5,7,9999,9999,9999,4013957192
41,18,19,Jits_Linear_5,8,9999,9999,9999,4014447728
41,18,19,Jits_Linear_5,9,9999,9999,9999,4014937144
41,18,19,Jits_Linear_5,10,9999,9999,9999,4015437892
41,18,19,Jits_Linear_5,11,9999,9999,9999,4015937636
41,18,19,Jits_Linear_5,12,9999,9999,9999,4016437320
41,18,19,Jits_Linear_5,13,9999,9999,9999,4016938036
41,18,19,Jits_Linear_5,14,9999,9999,9999,4017437816
41,18,19,Jits_Linear_5,15,9999,9999,9999,4017947748
41,18,19,Jits_Linear_5,16,9999,9999,9999,4018457704
41,18,19,Jits_Linear_5,17,9999,9999,9999,4018967652
41,18,19,Jits_Linear_5,18,9999,9999,9999,4019477612
41,18,19,Jits_Linear_5,19,9999,9999,9999,4019987576
41,18,19,Jits_Linear_5,20,9999,9999,9999,4020507756
41,18,19,Jits_Linear_5,21,9999,9999,9999,4021027928
41,18,19,Jits_Linear_5,22,9999,9999,9999,4021547100
41,18,19,Jits_Linear_5,23,9999,9999,9999,4022067256
41,18,19,Jits_Linear_5,24,9999,9999,9999,4022587472
41,18,19,Jits_Linear_5,25,9999,9999,9999,4023117948
41,18,19,Jits_Linear_5,26,9999,9999,9999,4023647300
41,18,19,Jits_Linear_5,27,9999,9999,9999,4024177776
41,18,19,Jits_Linear_5,28,9999,9999,9999,4024707144
41,18,19,Jits_Linear_5,29,9999,9999,9999,4025237604
41,18,19,Jits_Linear_5,30,9999,9999,9999,4025777264
41,18,19,Jits_Linear_5,31,9999,9999,9999,4026317900
41,18,19,Jits_Linear_5,32,9999,9999,9999,4026857596
41,18,19,Jits_Linear_5,33,9999,9999,9999,4027397192
41,18,19,Jits_Linear_5,34,9999,9999,9999,4027937848
41,18,19,Jits_Linear_5,35,9999,9999,9999,4028487780
41,18,19,Jits_Linear_5,36,9999,9999,9999,4029037640
41,18,19,Jits_Linear_5,37,9999,9999,9999,4029587576
41,18,19,Jits_Linear_5,38,9999,9999,9999,4030137400
41,18,19,Jits_Linear_5,39,9999,9999,9999,4030687328
41,18,19,Jits_Linear_5,40,9999,9999,9999,4031247452
41,18,19,Jits_Linear_5,41,9999,9999,9999,4031807560
41,18,19,Jits_Linear_5,42,9999,9999,9999,4032367712
41,18,19,Jits_Linear_5,43,9999,9999,9999,4032927816
41,18,19,Jits_Linear_5,44,9999,9999,9999,4033487988
41,18,19,Jits_Linear_5,45,9999,9999,9999,4034057328
41,18,19,Jits_Linear_5,46,9999,9999,9999,4034627688
41,18,19,Jits_Linear_5,47,9999,9999,9999,4035198032
41,18,19,Jits_Linear_5,48,9999,9999,9999,4035767380
41,18,19,Jits_Linear_5,49,9999,9999,9999,4036337788
41,18,19,Jits_Linear_5,50,9999,9999,9999,4036917328
41,18,19,Jits_Linear_5,51,9999,9999,9999,4037497916
41,18,19,Jits_Linear_5,52,9999,9999,9999,4038077536
41,18,19,Jits_Linear_5,53,9999,9999,9999,4038657140
41,18,19,Jits_Linear_5,54,9999,9999,9999,4039237740
41,18,19,Jits_Linear_5,55,9999,9999,9999,4039827572
41,18,19,Jits_Linear_5,56,9999,9999,9999,4040417404
41,18,19,Jits_Linear_5,57,9999,9999,9999,4041007160
41,18,19,Jits_Linear_5,58,9999,9999,9999,4041598048
41,18,19,Jits_Linear_5,59,9999,9999,9999,4042187904
41,18,19,Jits_Linear_5,60,9999,9999,9999,4042787940
41,18,19,Jits_Linear_5,61,9999,9999,9999,4043388004
41,18,19,Jits_Linear_5,62,9999,9999,9999,4043988028
41,18,19,Jits_Linear_5,63,9999,9999,9999,4044587064
41,18,19,Jits_Linear_5,64,9999,9999,9999,4045187196
41,18,19,Jits_Linear_5,65,9999,9999,9999,4045797448
41,18,19,Jits_Linear_5,66,9999,9999,9999,4046407756
41,18,19,Jits_Linear_5,67,9999,9999,9999,4047018048
41,18,19,Jits_Linear_5,68,9999,9999,9999,4047627328
41,18,19,Jits_Linear_5,69,9999,9999,9999,4048237644
41,18,19,Jits_Linear_5,70,9999,9999,9999,4048857184
41,18,19,Jits_Linear_5,71,9999,9999,9999,4049477692
41,18,19,Jits_Linear_5,72,9999,9999,9999,4050097260
41,18,19,Jits_Linear_5,73,9999,9999,9999,4050717820
41,18,19,Jits_Linear_5,74,9999,9999,9999,4051337288
41,18,19,Jits_Linear_5,75,9999,9999,9999,4051968056
41,18,19,Jits_Linear_5,76,9999,9999,9999,4052608076
41,18,19,Jits_Linear_5,77,9999,9999,9999,4053248104
41,18,19,Jits_Linear_5,78,9999,9999,9999,4053888088
41,18,19,Jits_Linear_5,79,9999,9999,9999,4054528120
41,18,19,Jits_Linear_5,80,9999,9999,9999,4055168092
41,18,19,Jits_Linear_5,81,9999,9999,9999,4055808072
41,18,19,Jits_Linear_5,82,9999,9999,9999,4056448100
41,18,19,Jits_Linear_5,83,9999,9999,9999,4057088120
41,18,19,Jits_Linear_5,84,9999,9999,9999,4057728092
41,18,19,Jits_Linear_5,85,9999,9999,9999,4058387576
41,18,19,Jits_Linear_5,86,9999,9999,9999,4059037784
41,18,19,Jits_Linear_5,87,9999,9999,9999,4059688028
41,18,19,Jits_Linear_5,88,9999,9999,9999,4060337224
41,18,19,Jits_Linear_5,89,9999,9999,9999,4060987456
41,18,19,Jits_Linear_5,90,9999,9999,9999,4061647980
41,18,19,Jits_Linear_5,91,9999,9999,9999,4062307420
41,18,19,Jits_Linear_5,92,9999,9999,9999,4062967888
41,18,19,Jits_Linear_5,93,9999,9999,9999,4063627372
41,18,19,Jits_Linear_5,94,9999,9999,9999,4064287804
41,18,19,Jits_Linear_5,95,9999,9999,9999,4064957548
41,18,19,Jits_Linear_5,96,9999,9999,9999,4065627256
41,18,19,Jits_Linear_5,97,9999,9999,9999,4066297964
41,18,19,Jits_Linear_5,98,9999,9999,9999,4066967640
41,18,19,Jits_Linear_5,99,9999,9999,9999,4067637368
41,18,19,Jits_Linear_5,100,9999,9999,9999,4068317292
41,18,19,Jits_Linear_5,101,9999,9999,9999,4068997240
41,18,19,Jits_Linear_5,102,9999,9999,9999,4069677172
41,18,19,Jits_Linear_5,103,9999,9999,9999,4070358072
41,18,19,Jits_Linear_5,104,9999,9999,9999,4071047228
41,18,19,Jits_Linear_5,105,9999,9999,9999,4071737428
41,18,19,Jits_Linear_5,106,9999,9999,9999,4072427636
41,18,19,Jits_Linear_5,107,9999,9999,9999,4073117796
41,18,19,Jits_Linear_5,108,9999,9999,9999,4073807952
41,18,19,Jits_Linear_5,109,9999,9999,9999,4074497116
41,18,19,Jits_Linear_5,110,9999,9999,9999,4075197540
41,18,19,Jits_Linear_5,111,9999,9999,9999,4075897968
41,18,19,Jits_Linear_5,112,9999,9999,9999,4076597348
41,18,19,Jits_Linear_5,113,9999,9999,9999,4077297748
41,18,19,Jits_Linear_5,114,9999,9999,9999,4077997176
41,18,19,Jits_Linear_5,115,9999,9999,9999,4078707780
41,18,19,Jits_Linear_5,116,9999,9999,9999,4079417400
41,18,19,Jits_Linear_5,117,9999,9999,9999,4080128120
41,18,19,Jits_Linear_5,118,9999,9999,9999,4080847940
41,18,19,Jits_Linear_5,119,9999,9999,9999,4081557620
41,18,19,Jits_Linear_5,120,9999,9999,9999,4082277444
41,18,19,Jits_Linear_5,121,9999,9999,9999,4082997332
41,18,19,Jits_Linear_5,122,9999,9999,9999,4083717200
41,18,19,Jits_Linear_5,123,9999,9999,9999,4084438144
41,18,19,Jits_Linear_5,124,9999,9999,9999,4085167160
41,18,19,Jits_Linear_5,125,9999,9999,9999,4085897292
41,18,19,Jits_Linear_5,126,9999,9999,9999,4086627452
41,18,19,Jits_Linear_5,127,9999,9999,9999,4087357516
41,18,19,Jits_Linear_5,128,9999,9999,9999,4088087644
41,18,19,Jits_Linear_5,129,9999,9999,9999,4088817776
41,18,19,Jits_Linear_5,130,9999,9999,9999,4089558144
41,18,19,Jits_Linear_5,131,9999,9999,9999,4090307696
41,18,19,Jits_Linear_5,132,9999,9999,9999,4091048056
41,18,19,Jits_Linear_5,133,9999,9999,9999,4091787348
41,18,19,Jits_Linear_5,134,9999,9999,9999,4092527676
41,18,19,Jits_Linear_5,135,9999,9999,9999,4093277244
41,18,19,Jits_Linear_5,136,9999,9999,9999,4094027868
41,18,19,Jits_Linear_5,137,9999,9999,9999,4094777420
41,18,19,Jits_Linear_5,138,9999,9999,9999,4095528016
41,18,19,Jits_Linear_5,139,9999,9999,9999,4096277556
41,18,19,Jits_Linear_5,140,9999,9999,9999,4097037372
41,18,19,Jits_Linear_5,141,9999,9999,9999,4097797192
41,18,19,Jits_Linear_5,142,9999,9999,9999,4098558064
41,18,19,Jits_Linear_5,143,9999,9999,9999,4099317816
41,18,19,Jits_Linear_5,144,9999,9999,9999,4100077692
41,18,19,Jits_Linear_5,145,9999,9999,9999,4100847696
41,18,19,Jits_Linear_5,146,9999,9999,9999,4101617788
41,18,19,Jits_Linear_5,147,9999,9999,9999,4102387812
41,18,19,Jits_Linear_5,148,9999,9999,9999,4103157888
41,18,19,Jits_Linear_5,149,9999,9999,9999,4103927924
41,18,19,Jits_Linear_5,150,9999,9999,9999,4104707148
41,18,19,Jits_Linear_5,151,9999,9999,9999,4105487424
41,18,19,Jits_Linear_5,152,9999,9999,9999,4106267712
41,18,19,Jits_Linear_5,153,9999,9999,9999,4107048036
41,18,19,Jits_Linear_5,154,9999,9999,9999,4107827252
41,18,19,Jits_Linear_5,155,9999,9999,9999,4108617848
41,18,19,Jits_Linear_5,156,9999,9999,9999,4109407320
41,18,19,Jits_Linear_5,157,9999,9999,9999,4110197840
41,18,19,Jits_Linear_5,158,9999,9999,9999,4110987328
41,18,19,Jits_Linear_5,159,9999,9999,9999,4111777852
41,18,19,Jits_Linear_5,160,9999,9999,9999,4112577644
41,18,19,Jits_Linear_5,161,9999,9999,9999,4113377392
41,18,19,Jits_Linear_5,162,9999,9999,9999,4114177096
41,18,19,Jits_Linear_5,163,9999,9999,9999,4114977860
41,18,19,Jits_Linear_5,164,9999,9999,9999,4115777600
41,18,19,Jits_Linear_5,165,9999,9999,9999,4116587608
41,18,19,Jits_Linear_5,166,9999,9999,9999,4117397616
41,18,19,Jits_Linear_5,167,9999,9999,9999,4118207544
41,18,19,Jits_Linear_5,168,9999,9999,9999,4119017552
41,18,19,Jits_Linear_5,169,9999,9999,9999,4119827512
41,19,18,Jits_Linear_8,0,5,56,103,4131773920
41,19,18,Jits_Linear_8,1,5,63,98,4131776944
41,19,18,Jits_Linear_8,2,5,80,127,4131779992
41,19,18,Jits_Linear_8,0,1,48,46,4132402040
41,19,18,Jits_Linear_8,1,1,48,14,4132574348
41,19,18,Jits_Linear_8,2,5,56,103,4132604544
41,19,18,Jits_Linear_8,3,5,63,98,4132607644
41,19,18,Jits_Linear_8,4,5,80,127,4132610836
41,19,18,Jits_Linear_8,0,5,80,127,4133364064
41,19,18,Jits_Linear_8,1,1,48,72,4133441912
41,19,18,Jits_Linear_8,2,5,63,98,4133454144
41,19,18,Jits_Linear_8,3,5,56,103,4133464564
41,19,18,Jits_Linear_8,4,1,48,44,4133476284
41,19,18,Jits_Linear_8,0,5,56,103,4134203692
41,19,18,Jits_Linear_8,1,5,63,98,4134214036
41,19,18,Jits_Linear_8,2,1,48,116,4134269740
41,19,18,Jits_Linear_8,3,5,80,127,4134304236
41,19,18,Jits_Linear_8,4,1,48,62,4134309804
41,19,18,Jits_Linear_8,5,1,48,38,4134345524
41,19,18,Jits_Linear_8,0,1,48,104,4134966736
41,19,18,Jits_Linear_8,1,5,63,98,4134994480
41,19,18,Jits_Linear_8,2,1,48,38,4135025340
41,19,18,Jits_Linear_8,3,5,80,127,4135026380
41,19,18,Jits_Linear_8,4,5,56,103,4135053664
41,19,18,Jits_Linear_8,0,1,48,103,4135752696
41,19,18,Jits_Linear_8,1,1,48,41,4135807144
41,19,18,Jits_Linear_8,2,5,56,103,4135813392
41,19,18,Jits_Linear_8,3,5,80,127,4135913852
41,19,18,Jits_Linear_8,4,5,63,98,4135964076
41,19,18,Jits_Linear_8,0,5,56,103,4136623588
41,19,18,Jits_Linear_8,1,1,48,99,4136642672
41,19,18,Jits_Linear_8,2,5,80,127,4136673784
41,19,18,Jits_Linear_8,3,1,48,41,4136702960
41,19,18,Jits_Linear_8,4,5,63,98,4136713552
41,19,18,Jits_Linear_8,0,5,80,127,4137464384
41,19,18,Jits_Linear_8,1,5,63,98,4137493792
41,19,18,Jits_Linear_8,2,1,48,102,4137519604
41,19,18,Jits_Linear_8,3,1,48,54,4137557120
41,19,18,Jits_Linear_8,4,5,56,103,4137563592
41,19,18,Jits_Linear_8,0,1,48,107,4138229704
41,19,18,Jits_Linear_8,1,1,38,22,4138239728
41,19,18,Jits_Linear_8,2,1,48,42,4138276748
41,19,18,Jits_Linear_8,3,5,63,98,4138303828
41,19,18,Jits_Linear_8,4,5,56,103,4138333580
41,19,18,Jits_Linear_8,5,5,80,127,4138394072
41,19,18,Jits_Linear_8,0,1,48,82,4139033488
41,19,18,Jits_Linear_8,1,5,56,103,4139053368
41,19,18,Jits_Linear_8,2,5,80,127,4139056512
41,19,18,Jits_Linear_8,3,1,48,57,4139063448
41,19,18,Jits_Linear_8,4,5,63,98,4139174404
41,19,18,Jits_Linear_8,0,1,48,90,4139923868
41,19,18,Jits_Linear_8,1,5,56,103,4139934152
41,19,18,Jits_Linear_8,2,1,48,48,4139953376
41,19,18,Jits_Linear_8,3,5,80,127,4139974144
41,19,18,Jits_Linear_8,4,5,63,98,4139984340
41,19,18,Jits_Linear_8,0,5,56,103,4140693804
41,19,18,Jits_Linear_8,1,5,80,127,4140714484
41,19,18,Jits_Linear_8,2,1,48,82,4140715600
41,19,18,Jits_Linear_8,3,1,38,19,4140725916
41,19,18,Jits_Linear_8,4,1,48,54,4140740048
41,19,18,Jits_Linear_8,5,5,63,98,4140794320
41,19,18,Jits_Linear_8,0,5,80,127,4141484284
41,19,18,Jits_Linear_8,1,1,48,97,4141487848
41,19,18,Jits_Linear_8,2,5,56,103,4141583704
41,19,18,Jits_Linear_8,3,5,63,98,4141593984
41,19,18,Jits_Linear_8,0,5,63,98,4142253412
41,19,18,Jits_Linear_8,1,1,48,94,4142307328
41,19,18,Jits_Linear_8,2,5,80,127,4142313728
41,19,18,Jits_Linear_8,3,5,56,103,4142324296
41,19,18,Jits_Linear_8,0,1,48,87,4143007800
41,19,18,Jits_Linear_8,1,5,56,103,4143054204
41,19,18,Jits_Linear_8,2,5,63,98,4143123824
41,19,18,Jits_Linear_8,3,5,80,127,4143127112
41,19,18,Jits_Linear_8,0,1,48,69,4143812268
41,19,18,Jits_Linear_8,1,5,63,98,4143883620
41,19,18,Jits_Linear_8,2,5,56,103,4143933908
41,19,18,Jits_Linear_8,3,5,80,127,4143937124
41,19,18,Jits_Linear_8,0,1,48,82,4144588856
41,19,18,Jits_Linear_8,1,1,48,49,4144616332
41,19,18,Jits_Linear_8,2,5,56,103,4144634264
41,19,18,Jits_Linear_8,3,5,80,127,4144637332
41,19,18,Jits_Linear_8,4,5,63,98,4144724480
41,19,18,Jits_Linear_8,0,1,48,92,4145444712
41,19,18,Jits_Linear_8,1,5,63,98,4145463548
41,19,18,Jits_Linear_8,2,1,48,53,4145470692
41,19,18,Jits_Linear_8,3,5,56,103,4145553736
41,19,18,Jits_Linear_8,4,5,80,127,4145583472
41,19,18,Jits_Linear_8,0,5,56,103,4146244104
41,19,18,Jits_Linear_8,1,1,48,87,4146246548
41,19,18,Jits_Linear_8,2,1,48,48,4146274700
41,19,18,Jits_Linear_8,3,5,63,98,4146344252
41,19,18,Jits_Linear_8,4,5,80,127,4146374136
41,19,18,Jits_Linear_8,0,5,63,98,4147054116
41,19,18,Jits_Linear_8,1,5,56,103,4147064240
41,19,18,Jits_Linear_8,2,1,48,80,4147091096
41,19,18,Jits_Linear_8,3,1,48,55,4147118800
41,19,18,Jits_Linear_8,4,5,80,127,4147154340
41,19,18,Jits_Linear_8,0,5,63,98,4147853772
41,19,18,Jits_Linear_8,1,1,48,81,4147856592
41,19,18,Jits_Linear_8,2,5,56,103,4147933632
41,19,18,Jits_Linear_8,3,5,80,127,4147936628
41,19,18,Jits_Linear_8,0,5,80,127,4148594032
41,19,18,Jits_Linear_8,1,5,63,98,4148613520
41,19,18,Jits_Linear_8,2,5,56,103,4148674136
41,19,18,Jits_Linear_8,3,1,48,72,4148687368
41,19,18,Jits_Linear_8,0,5,56,103,4149414256
41,19,18,Jits_Linear_8,1,1,48,89,4149421728
41,19,18,Jits_Linear_8,2,5,63,98,4149433808
41,19,18,Jits_Linear_8,3,5,80,127,4149437172
41,19,18,Jits_Linear_8,0,5,63,98,4150134228
41,19,18,Jits_Linear_8,1,1,48,68,4150158096
41,19,18,Jits_Linear_8,2,5,80,127,4150214168
41,19,18,Jits_Linear_8,3,5,56,103,4150224436
41,19,18,Jits_Linear_8,0,1,48,96,4150921592
41,19,18,Jits_Linear_8,1,5,63,98,4150933976
41,19,18,Jits_Linear_8,2,5,56,103,4150954284
41,19,18,Jits_Linear_8,3,5,80,127,4151003364
41,19,18,Jits_Linear_8,0,5,80,127,4151714180
41,19,18,Jits_Linear_8,1,1,48,60,4151725844
41,19,18,Jits_Linear_8,2,5,63,98,4151754188
41,19,18,Jits_Linear_8,3,5,56,103,4151773748
41,19,18,Jits_Linear_8,0,1,48,86,4152505604
41,19,18,Jits_Linear_8,1,5,56,103,4152524284
41,19,18,Jits_Linear_8,2,1,48,57,4152535216
41,19,18,Jits_Linear_8,3,5,63,98,4152536628
41,19,18,Jits_Linear_8,4,5,80,127,4152553796
41,19,18,Jits_Linear_8,0,5,56,103,4153223400
41,19,18,Jits_Linear_8,1,1,48,81,4153285784
41,19,18,Jits_Linear_8,2,5,63,98,4153313756
41,19,18,Jits_Linear_8,3,1,48,46,4153315680
41,19,18,Jits_Linear_8,4,5,80,127,4153374000
41,19,18,Jits_Linear_8,0,1,48,88,4154010364
41,19,18,Jits_Linear_8,1,5,80,127,4154024188
41,19,18,Jits_Linear_8,2,5,56,103,4154033784
41,19,18,Jits_Linear_8,3,5,63,98,4154104200
41,19,18,Jits_Linear_8,0,1,48,82,4154812980
41,19,18,Jits_Linear_8,1,5,63,98,4154824092
41,19,18,Jits_Linear_8,2,5,80,127,4154914240
41,19,18,Jits_Linear_8,3,5,56,103,4154924512
41,19,18,Jits_Linear_8,0,5,63,98,4155533884
41,19,18,Jits_Linear_8,1,5,80,127,4155583936
41,19,18,Jits_Linear_8,2,5,56,103,4155644400
41,19,18,Jits_Linear_8,3,1,48,88,4155647076
41,19,18,Jits_Linear_8,0,5,56,103,4156324196
41,19,18,Jits_Linear_8,1,1,48,67,4156341860
41,19,18,Jits_Linear_8,2,5,80,127,4156374396
41,19,18,Jits_Linear_8,3,5,63,98,4156393808
41,19,18,Jits_Linear_8,0,5,56,103,4157054364
41,19,18,Jits_Linear_8,1,1,48,92,4157062732
41,19,18,Jits_Linear_8,2,5,80,127,4157113852
41,19,18,Jits_Linear_8,3,5,63,98,4157184340
41,19,18,Jits_Linear_8,0,5,56,103,4157814052
41,19,18,Jits_Linear_8,1,5,80,127,4157843804
41,19,18,Jits_Linear_8,2,5,63,98,4157873700
41,19,18,Jits_Linear_8,3,1,48,81,4157901012
41,19,18,Jits_Linear_8,0,5,56,103,4158613816
41,19,18,Jits_Linear_8,1,1,48,84,4158616784
41,19,18,Jits_Linear_8,2,5,80,127,4158634492
41,19,18,Jits_Linear_8,3,5,63,98,4158693908
41,19,18,Jits_Linear_8,0,1,48,67,4159415652
41,19,18,Jits_Linear_8,1,5,80,127,4159453816
41,19,18,Jits_Linear_8,2,5,56,103,4159463936
41,19,18,Jits_Linear_8,3,5,63,98,4159474056
41,19,18,Jits_Linear_8,0,5,56,103,4160164352
41,19,18,Jits_Linear_8,1,5,80,127,4160204292
41,19,18,Jits_Linear_8,2,1,48,89,4160227344
41,19,18,Jits_Linear_8,3,5,63,98,4160233812
41,19,18,Jits_Linear_8,0,5,56,103,4160884188
41,19,18,Jits_Linear_8,1,5,63,98,4160913864
41,19,18,Jits_Linear_8,2,5,80,127,4160953728
41,19,18,Jits_Linear_8,3,1,48,89,4160986588
41,19,18,Jits_Linear_8,0,5,80,127,4161583712
41,19,18,Jits_Linear_8,1,5,63,98,4161633620
41,19,18,Jits_Linear_8,2,5,56,103,4161654448
41,19,18,Jits_Linear_8,3,1,48,59,4161680188
41,19,18,Jits_Linear_8,0,5,56,103,4162363700
41,19,18,Jits_Linear_8,1,1,48,94,4162409144
41,19,18,Jits_Linear_8,2,5,80,127,4162434348
41,19,18,Jits_Linear_8,3,5,63,98,4162493840
41,19,18,Jits_Linear_8,0,5,80,127,4163104060
41,19,18,Jits_Linear_8,1,5,63,98,4163194420
41,19,18,Jits_Linear_8,2,1,48,90,4163196436
41,19,18,Jits_Linear_8,3,5,56,103,4163213752
41,19,18,Jits_Linear_8,0,5,63,98,4163863904
41,19,18,Jits_Linear_8,1,5,56,103,4163884584
41,19,18,Jits_Linear_8,2,5,80,127,4163924524
41,19,18,Jits_Linear_8,3,1,48,83,4163997612
41,19,18,Jits_Linear_8,0,5,80,127,4164564584
41,19,18,Jits_Linear_8,1,5,63,98,4164583848
41,19,18,Jits_Linear_8,2,5,56,103,4164663740
41,19,18,Jits_Linear_8,3,1,48,83,4164682672
41,19,18,Jits_Linear_8,4,1,38,19,4164692688
41,19,18,Jits_Linear_8,0,5,63,98,4165293648
41,19,18,Jits_Linear_8,1,1,48,87,4165398380
41,19,18,Jits_Linear_8,2,5,56,103,4165403876
41,19,18,Jits_Linear_8,3,5,80,127,4165407244
41,19,18,Jits_Linear_8,4,1,48,48,4165429900
41,19,18,Jits_Linear_8,0,5,63,98,4166054408
41,19,18,Jits_Linear_8,1,5,56,103,4166063484
41,19,18,Jits_Linear_8,2,5,80,127,4166066624
41,19,18,Jits_Linear_8,3,1,48,95,4166143168
41,19,18,Jits_Linear_8,4,1,48,34,4166206692
41,19,18,Jits_Linear_8,0,5,56,103,4166774324
41,19,18,Jits_Linear_8,1,1,48,101,4166855216
41,19,18,Jits_Linear_8,2,5,80,127,4166893904
41,19,18,Jits_Linear_8,3,1,48,32,4166922336
41,19,18,Jits_Linear_8,4,5,63,98,4166933916
41,19,18,Jits_Linear_8,0,5,56,103,4167523816
41,19,18,Jits_Linear_8,1,5,80,127,4167603464
41,19,18,Jits_Linear_8,2,1,48,111,4167604428
41,19,18,Jits_Linear_8,3,5,63,98,4167624288
41,19,18,Jits_Linear_8,4,1,48,45,4167700828
41,19,18,Jits_Linear_8,0,5,56,103,4168253664
41,19,18,Jits_Linear_8,1,1,48,96,4168358596
41,19,18,Jits_Linear_8,2,5,63,98,4168364396
41,19,18,Jits_Linear_8,3,5,80,127,4168367908
41,19,18,Jits_Linear_8,4,1,48,31,4168438512
41,19,18,Jits_Linear_8,0,5,56,103,4169013544
41,19,18,Jits_Linear_8,1,5,80,127,4169044416
41,19,18,Jits_Linear_8,2,5,63,98,4169063680
41,19,18,Jits_Linear_8,3,1,48,104,4169072124
41,19,18,Jits_Linear_8,4,1,48,28,4169214804
41,19,18,Jits_Linear_8,0,5,63,98,4169724264
41,19,18,Jits_Linear_8,1,5,56,103,4169733488
41,19,18,Jits_Linear_8,2,5,80,127,4169743608
41,19,18,Jits_Linear_8,3,1,48,105,4169776492
41,19,18,Jits_Linear_8,4,1,38,20,4169786960
41,19,18,Jits_Linear_8,5,1,48,43,4169828368
41,19,18,Jits_Linear_8,0,5,80,127,4170433888
41,19,18,Jits_Linear_8,1,5,56,103,4170484240
41,19,18,Jits_Linear_8,2,1,48,89,4170496204
41,19,18,Jits_Linear_8,3,5,63,98,4170524196
41,19,18,Jits_Linear_8,4,1,48,46,4170541168
41,19,18,Jits_Linear_8,0,5,80,127,4171174364
41,19,18,Jits_Linear_8,1,5,63,98,4171193628
41,19,18,Jits_Linear_8,2,1,48,91,4171227464
41,19,18,Jits_Linear_8,3,5,56,103,4171243824
41,19,18,Jits_Linear_8,4,1,48,39,4171279132
41,19,18,Jits_Linear_8,0,5,80,127,4171904508
41,19,18,Jits_Linear_8,1,5,56,103,4171934184
41,19,18,Jits_Linear_8,2,1,48,64,4171954912
41,19,18,Jits_Linear_8,3,5,63,98,4172003708
41,19,18,Jits_Linear_8,0,1,48,97,4172663348
41,19,18,Jits_Linear_8,1,5,56,103,4172674532
41,19,18,Jits_Linear_8,2,5,80,127,4172683532
41,19,18,Jits_Linear_8,3,1,48,43,4172706044
41,19,18,Jits_Linear_8,4,5,63,98,4172723524
41,19,18,Jits_Linear_8,0,5,56,103,4173304328
41,19,18,Jits_Linear_8,1,5,63,98,4173323520
41,19,18,Jits_Linear_8,2,5,80,127,4173394268
41,19,18,Jits_Linear_8,3,1,48,65,4173413576
41,19,18,Jits_Linear_8,0,1,48,92,4174013184
41,19,18,Jits_Linear_8,1,5,63,98,4174043408
41,19,18,Jits_Linear_8,2,1,48,53,4174046304
41,19,18,Jits_Linear_8,3,5,80,127,4174104024
41,19,18,Jits_Linear_8,4,5,56,103,4174124336
41,19,18,Jits_Linear_8,0,1,48,100,4174719108
41,19,18,Jits_Linear_8,1,5,80,127,4174744088
41,19,18,Jits_Linear_8,2,1,48,43,4174762784
41,19,18,Jits_Linear_8,3,5,56,103,4174773672
41,19,18,Jits_Linear_8,4,5,63,98,4174804320
41,19,18,Jits_Linear_8,0,5,56,103,4175453648
41,19,18,Jits_Linear_8,1,1,48,92,4175476248
41,19,18,Jits_Linear_8,2,5,63,98,4175514108
41,19,18,Jits_Linear_8,3,1,48,40,4175524332
41,19,18,Jits_Linear_8,4,5,80,127,4175574400
41,19,18,Jits_Linear_8,0,5,80,127,4176183644
41,19,18,Jits_Linear_8,1,5,56,103,4176204252
41,19,18,Jits_Linear_8,2,1,48,88,4176237040
41,19,18,Jits_Linear_8,3,5,63,98,4176273852
41,19,18,Jits_Linear_8,4,1,48,31,4176306996
41,19,18,Jits_Linear_8,0,5,80,127,4176894204
41,19,18,Jits_Linear_8,1,5,63,98,4176913868
41,19,18,Jits_Linear_8,2,5,56,103,4176943544
41,19,18,Jits_Linear_8,3,1,48,104,4176962024
41,19,18,Jits_Linear_8,4,1,48,48,4177004852
41,19,18,Jits_Linear_8,0,5,80,127,4177583456
41,19,18,Jits_Linear_8,1,5,63,98,4177603916
41,19,18,Jits_Linear_8,2,5,56,103,4177664456
41,19,18,Jits_Linear_8,3,1,48,74,4177703636
41,19,18,Jits_Linear_8,0,5,80,127,4178284032
41,19,18,Jits_Linear_8,1,1,48,85,4178366120
41,19,18,Jits_Linear_8,2,1,38,19,4178375992
41,19,18,Jits_Linear_8,3,5,56,103,4178384260
41,19,18,Jits_Linear_8,4,5,63,98,4178414084
41,19,18,Jits_Linear_8,5,1,48,38,4178424984
41,19,18,Jits_Linear_8,0,5,63,98,4178974036
41,19,18,Jits_Linear_8,1,5,80,127,4179024168
41,19,18,Jits_Linear_8,2,5,56,103,4179043876
41,19,18,Jits_Linear_8,3,1,48,103,4179094872
41,19,18,Jits_Linear_8,4,1,48,43,4179138668
41,19,18,Jits_Linear_8,0,5,80,127,4179714412
41,19,18,Jits_Linear_8,1,5,56,103,4179744112
41,19,18,Jits_Linear_8,2,5,63,98,4179747328
41,19,18,Jits_Linear_8,3,1,48,80,4179770752
41,19,18,Jits_Linear_8,4,1,48,35,4179818152
41,19,18,Jits_Linear_8,0,1,48,100,4180440984
41,19,18,Jits_Linear_8,1,5,63,98,4180443572
41,19,18,Jits_Linear_8,2,1,48,42,4180482140
41,19,18,Jits_Linear_8,3,5,56,103,4180483564
41,19,18,Jits_Linear_8,4,5,80,127,4180504048
41,19,18,Jits_Linear_8,0,5,80,127,4181083460
41,19,18,Jits_Linear_8,1,1,48,122,4181149576
41,19,18,Jits_Linear_8,2,5,63,98,4181164372
41,19,18,Jits_Linear_8,3,1,48,52,4181188076
41,19,18,Jits_Linear_8,4,5,56,103,4181204436
41,19,18,Jits_Linear_8,0,5,63,98,4181794140
41,19,18,Jits_Linear_8,1,1,48,81,4181864092
41,19,18,Jits_Linear_8,2,1,38,19,4181873696
41,19,18,Jits_Linear_8,3,5,80,127,4181876080
41,19,18,Jits_Linear_8,4,5,56,103,4181893768
41,19,18,Jits_Linear_8,5,1,48,48,4181899116
41,19,18,Jits_Linear_8,0,5,56,103,4182524264
41,19,18,Jits_Linear_8,1,5,63,98,4182533416
41,19,18,Jits_Linear_8,2,1,48,105,4182570784
41,19,18,Jits_Linear_8,3,5,80,127,4182573372
41,19,18,Jits_Linear_8,4,1,48,35,4182634236
41,19,18,Jits_Linear_8,0,5,56,103,4183133804
41,19,18,Jits_Linear_8,1,5,80,127,4183136864
41,19,18,Jits_Linear_8,2,5,63,98,4183273828
41,19,18,Jits_Linear_8,3,1,48,108,4183283768
41,19,18,Jits_Linear_8,4,1,48,54,4183328636
41,19,18,Jits_Linear_8,0,5,56,103,4183813428
41,19,18,Jits_Linear_8,1,5,63,98,4183903740
41,19,18,Jits_Linear_8,2,1,48,112,4183947236
41,19,18,Jits_Linear_8,3,5,80,127,4183974312
41,19,18,Jits_Linear_8,4,1,48,53,4183983116
41,19,18,Jits_Linear_8,0,1,48,102,4184563336
41,19,18,Jits_Linear_8,1,5,63,98,4184574296
41,19,18,Jits_Linear_8,2,5,80,127,4184577808
41,19,18,Jits_Linear_8,3,1,48,57,4184600644
41,19,18,Jits_Linear_8,4,5,56,103,4184633940
41,19,18,Jits_Linear_8,0,5,80,127,4185294264
41,19,18,Jits_Linear_8,1,5,56,103,4185313900
41,19,18,Jits_Linear_8,2,1,48,100,4185321980
41,19,18,Jits_Linear_8,3,5,63,98,4185323792
41,19,18,Jits_Linear_8,4,1,48,37,4185385724
41,19,18,Jits_Linear_8,0,5,56,103,4185883872
41,19,18,Jits_Linear_8,1,5,63,98,4185894216
41,19,18,Jits_Linear_8,2,5,80,127,4185964048
41,19,18,Jits_Linear_8,3,1,48,114,4186041492
41,19,18,Jits_Linear_8,4,1,48,54,4186098536
41,19,18,Jits_Linear_8,5,1,48,32,4186157872
41,19,18,Jits_Linear_8,0,5,80,127,4186564064
41,19,18,Jits_Linear_8,1,5,56,103,4186614196
41,19,18,Jits_Linear_8,2,5,63,98,4186664272
41,19,18,Jits_Linear_8,3,1,48,110,4186702308
41,19,18,Jits_Linear_8,4,1,48,48,4186754720
41,19,18,Jits_Linear_8,0,5,56,103,4187323672
41,19,18,Jits_Linear_8,1,5,63,98,4187334016
41,19,18,Jits_Linear_8,2,1,48,101,4187359828
41,19,18,Jits_Linear_8,3,5,80,127,4187373800
41,19,18,Jits_Linear_8,4,1,48,51,4187401704
41,19,18,Jits_Linear_8,0,5,56,103,4187944220
41,19,18,Jits_Linear_8,1,5,63,98,4187984236
41,19,18,Jits_Linear_8,2,5,80,127,4188034512
41,19,18,Jits_Linear_8,3,1,48,100,4188064676
41,19,18,Jits_Linear_8,4,1,48,54,4188101424
41,19,18,Jits_Linear_8,0,5,80,127,4188574032
41,19,18,Jits_Linear_8,1,5,56,103,4188624532
41,19,18,Jits_Linear_8,2,5,63,98,4188643648
41,19,18,Jits_Linear_8,3,1,48,105,4188714516
41,19,18,Jits_Linear_8,4,1,48,53,4188747600
41,19,18,Jits_Linear_8,0,5,80,127,4189253988
41,19,18,Jits_Linear_8,1,5,63,98,4189314532
41,19,18,Jits_Linear_8,2,1,48,90,4189369716
41,19,18,Jits_Linear_8,3,5,56,103,4189394468
41,19,18,Jits_Linear_8,4,1,48,54,4189407612
41,19,18,Jits_Linear_8,0,5,80,127,4189904244
41,19,18,Jits_Linear_8,1,5,56,103,4189944188
41,19,18,Jits_Linear_8,2,5,63,98,4189963820
41,19,18,Jits_Linear_8,3,1,48,79,4190042932
41,19,18,Jits_Linear_8,4,1,38,18,4190052880
41,19,18,Jits_Linear_8,5,1,48,49,4190076448
41,19,18,Jits_Linear_8,0,5,56,103,4190623988
41,19,18,Jits_Linear_8,1,1,48,91,4190631296
41,19,18,Jits_Linear_8,2,5,80,127,4190634552
41,19,18,Jits_Linear_8,3,5,63,98,4190674416
41,19,18,Jits_Linear_8,0,1,48,80,4191297328
41,19,18,Jits_Linear_8,1,1,38,18,4191307276
41,19,18,Jits_Linear_8,2,5,56,103,4191354208
41,19,18,Jits_Linear_8,3,5,63,98,4191394892
41,19,18,Jits_Linear_8,4,5,80,127,4191398020
41,19,18,Jits_Linear_8,0,5,63,98,4191903988
41,19,18,Jits_Linear_8,1,5,80,127,4191944004
41,19,18,Jits_Linear_8,2,1,48,96,4191980680
41,19,18,Jits_Linear_8,3,5,56,103,4192013600
41,19,18,Jits_Linear_8,4,1,48,57,4192022400
41,19,18,Jits_Linear_8,0,5,63,98,4192554452
41,19,18,Jits_Linear_8,1,5,56,103,4192634472
41,19,18,Jits_Linear_8,2,1,48,87,4192649200
41,19,18,Jits_Linear_8,3,5,80,127,4192693660
41,19,18,Jits_Linear_8,4,1,48,31,4192714828
41,19,18,Jits_Linear_8,0,5,80,127,4193224024
41,19,18,Jits_Linear_8,1,5,63,98,4193274376
41,19,18,Jits_Linear_8,2,5,56,103,4193303932
41,19,18,Jits_Linear_8,3,1,48,97,4193308020
41,19,18,Jits_Linear_8,4,1,48,37,4193369948
41,19,18,Jits_Linear_8,0,5,56,103,4193883368
41,19,18,Jits_Linear_8,1,5,63,98,4193933648
41,19,18,Jits_Linear_8,2,5,80,127,4193943992
41,19,18,Jits_Linear_8,3,1,48,90,4193982776
41,19,18,Jits_Linear_8,4,1,48,39,4194029188
41,19,18,Jits_Linear_8,0,5,56,103,4194554440
41,19,18,Jits_Linear_8,1,1,48,93,4194606812
41,19,18,Jits_Linear_8,2,1,48,42,4194648740
41,19,18,Jits_Linear_8,3,5,63,98,4194663760
41,19,18,Jits_Linear_8,4,5,80,127,4194684368
41,19,18,Jits_Linear_8,0,5,63,98,4195203376
41,19,18,Jits_Linear_8,1,5,80,127,4195253580
41,19,18,Jits_Linear_8,2,1,48,79,4195290260
41,19,18,Jits_Linear_8,3,1,38,18,4195300124
41,19,18,Jits_Linear_8,4,5,56,103,4195343860
41,19,18,Jits_Linear_8,5,1,48,32,4195354384
41,19,18,Jits_Linear_8,0,5,63,98,4195843432
41,19,18,Jits_Linear_8,1,5,80,127,4195874328
41,19,18,Jits_Linear_8,2,1,48,108,4195947120
41,19,18,Jits_Linear_8,3,5,56,103,4195964228
41,19,18,Jits_Linear_8,4,1,48,45,4195992064
41,19,18,Jits_Linear_8,0,5,63,98,4196493700
41,19,18,Jits_Linear_8,1,5,56,103,4196504044
41,19,18,Jits_Linear_8,2,5,80,127,4196604364
41,19,18,Jits_Linear_8,3,1,48,95,4196611688
41,19,18,Jits_Linear_8,4,1,48,37,4196667120
41,19,18,Jits_Linear_8,0,1,48,93,4197233840
41,19,18,Jits_Linear_8,1,5,63,98,4197244348
41,19,18,Jits_Linear_8,2,5,80,127,4197273952
41,19,18,Jits_Linear_8,3,1,48,38,4197293016
41,19,18,Jits_Linear_8,4,5,56,103,4197303680
41,19,18,Jits_Linear_8,0,5,80,127,4197903696
41,19,18,Jits_Linear_8,1,1,48,92,4197904660
41,19,18,Jits_Linear_8,2,5,63,98,4197913960
41,19,18,Jits_Linear_8,3,5,56,103,4197943708
41,19,18,Jits_Linear_8,4,1,48,43,4197945632
41,19,18,Jits_Linear_8,0,5,80,127,4198444416
41,19,18,Jits_Linear_8,1,5,63,98,4198463756
41,19,18,Jits_Linear_8,2,5,56,103,4198514176
41,19,18,Jits_Linear_8,3,1,48,89,4198597080
41,19,18,Jits_Linear_8,4,1,48,53,4198640276
41,19,18,Jits_Linear_8,0,5,63,98,4199114216
41,19,18,Jits_Linear_8,1,5,80,127,4199173488
41,19,18,Jits_Linear_8,2,5,56,103,4199193820
41,19,18,Jits_Linear_8,3,1,48,79,4199208548
41,19,18,Jits_Linear_8,4,1,38,18,4199218940
41,19,18,Jits_Linear_8,0,5,63,98,4199714256
41,19,18,Jits_Linear_8,1,5,56,103,4199764308
41,19,18,Jits_Linear_8,2,5,80,127,4199773460
41,19,18,Jits_Linear_8,3,1,48,95,4199848788
41,19,18,Jits_Linear_8,4,1,48,48,4199884580
41,19,18,Jits_Linear_8,0,5,56,103,4200383820
41,19,18,Jits_Linear_8,1,5,80,127,4200394388
41,19,18,Jits_Linear_8,2,1,48,86,4200483692
41,19,18,Jits_Linear_8,3,5,63,98,4200493308
41,19,18,Jits_Linear_8,4,1,38,19,4200494272
41,19,18,Jits_Linear_8,5,1,48,32,4200538948
41,19,18,Jits_Linear_8,0,5,80,127,4200983852
41,19,18,Jits_Linear_8,1,5,63,98,4200994272
41,19,18,Jits_Linear_8,2,1,48,90,4201134276
41,19,18,Jits_Linear_8,3,5,56,103,4201143588
41,19,18,Jits_Linear_8,4,1,48,44,4201188492
41,19,18,Jits_Linear_8,0,5,63,98,4201624064
41,19,18,Jits_Linear_8,1,5,80,127,4201664000
41,19,18,Jits_Linear_8,2,5,56,103,4201743748
41,19,18,Jits_Linear_8,3,1,48,95,4201778256
41,19,18,Jits_Linear_8,4,1,48,43,4201824612
41,19,18,Jits_Linear_8,0,5,56,103,4202243432
41,19,18,Jits_Linear_8,1,5,80,127,4202343784
41,19,18,Jits_Linear_8,2,5,63,98,4202364244
41,19,18,Jits_Linear_8,3,1,48,89,4202415080
41,19,18,Jits_Linear_8,4,1,48,51,4202455220
41,19,18,Jits_Linear_8,0,5,80,127,4202933644
41,19,18,Jits_Linear_8,1,5,56,103,4202944064
41,19,18,Jits_Linear_8,2,1,48,99,4203027524
41,19,18,Jits_Linear_8,3,5,63,98,4203034140
41,19,18,Jits_Linear_8,4,1,48,46,4203071320
41,19,18,Jits_Linear_8,0,5,56,103,4203564372
41,19,18,Jits_Linear_8,1,5,63,98,4203583708
41,19,18,Jits_Linear_8,2,1,48,79,4203653056
41,19,18,Jits_Linear_8,3,5,80,127,4203663644
41,19,18,Jits_Linear_8,4,1,48,35,4203734100
41,19,18,Jits_Linear_8,0,5,63,98,4204133784
41,19,18,Jits_Linear_8,1,5,56,103,4204223992
41,19,18,Jits_Linear_8,2,5,80,127,4204227060
41,19,18,Jits_Linear_8,3,1,48,93,4204294464
41,19,18,Jits_Linear_8,4,1,48,44,4204337084
41,19,18,Jits_Linear_8,0,5,56,103,4204784160
41,19,18,Jits_Linear_8,1,5,80,127,4204844356
41,19,18,Jits_Linear_8,2,5,63,98,4204853728
41,19,18,Jits_Linear_8,3,1,48,78,4204937232
41,19,18,Jits_Linear_8,4,1,48,37,4204980124
41,19,18,Jits_Linear_8,0,5,80,127,4205453772
41,19,18,Jits_Linear_8,1,5,56,103,4205463892
41,19,18,Jits_Linear_8,2,5,63,98,4205467180
41,19,18,Jits_Linear_8,3,1,48,89,4205521092
41,19,18,Jits_Linear_8,4,1,48,46,4205564980
41,19,18,Jits_Linear_8,0,5,56,103,4206034188
41,19,18,Jits_Linear_8,1,5,80,127,4206043412
41,19,18,Jits_Linear_8,2,5,63,98,4206064096
41,19,18,Jits_Linear_8,3,1,48,95,4206137132
41,19,18,Jits_Linear_8,4,1,48,51,4206179960
41,19,18,Jits_Linear_8,0,5,63,98,4206624008
41,19,18,Jits_Linear_8,1,5,80,127,4206683576
41,19,18,Jits_Linear_8,2,5,56,103,4206733628
41,19,18,Jits_Linear_8,3,1,48,98,4206755104
41,19,18,Jits_Linear_8,4,1,48,47,4206809536
41,19,18,Jits_Linear_8,0,5,63,98,4207323468
41,19,18,Jits_Linear_8,1,5,56,103,4207333816
41,19,18,Jits_Linear_8,2,1,48,74,4207364432
41,19,18,Jits_Linear_8,3,5,80,127,4207384032
41,19,18,Jits_Linear_8,4,1,48,37,4207440996
41,19,18,Jits_Linear_8,0,5,63,98,4207833460
41,19,18,Jits_Linear_8,1,5,80,127,4207854068
41,19,18,Jits_Linear_8,2,5,56,103,4207864192
41,19,18,Jits_Linear_8,3,1,48,107,4207988392
41,19,18,Jits_Linear_8,4,1,48,48,4208046952
41,19,18,Jits_Linear_8,0,5,63,98,4208444096
41,19,18,Jits_Linear_8,1,5,80,127,4208447156
41,19,18,Jits_Linear_8,2,5,56,103,4208483804
41,19,18,Jits_Linear_8,3,1,48,84,4208485744
41,19,18,Jits_Linear_8,4,1,48,44,4208539632
41,19,18,Jits_Linear_8,0,1,48,90,4209072188
41,19,18,Jits_Linear_8,1,5,63,98,4209123828
41,19,18,Jits_Linear_8,2,1,48,39,4209130444
41,19,18,Jits_Linear_8,3,5,80,127,4209154304
41,19,18,Jits_Linear_8,4,5,56,103,4209163604
41,19,18,Jits_Linear_8,0,5,56,103,4209684188
41,19,18,Jits_Linear_8,1,5,80,127,4209713420
41,19,18,Jits_Linear_8,2,1,48,72,4209720272
41,19,18,Jits_Linear_8,3,5,63,98,4209744136
41,19,18,Jits_Linear_8,4,1,48,42,4209754436
41,19,18,Jits_Linear_8,0,1,48,62,4210333144
41,19,18,Jits_Linear_8,1,5,63,98,4210384188
41,19,18,Jits_Linear_8,2,5,56,103,4210424048
41,19,18,Jits_Linear_8,3,5,80,127,4210428152
41,19,18,Jits_Linear_8,0,5,80,127,4210884016
41,19,18,Jits_Linear_8,1,5,56,103,4210964064
41,19,18,Jits_Linear_8,2,5,63,98,4211013968
41,19,18,Jits_Linear_8,3,1,48,93,4211020448
41,19,18,Jits_Linear_8,4,1,48,50,4211060060
41,19,18,Jits_Linear_8,0,5,80,127,4211463472
41,19,18,Jits_Linear_8,1,5,56,103,4211484032
41,19,18,Jits_Linear_8,2,5,63,98,4211574164
41,19,18,Jits_Linear_8,3,1,48,114,4211670544
41,19,18,Jits_Linear_8,4,1,48,43,4211733860
41,19,18,Jits_Linear_8,0,5,80,127,4212103640
41,19,18,Jits_Linear_8,1,5,63,98,4212143584
41,19,18,Jits_Linear_8,2,5,56,103,4212184420
41,19,18,Jits_Linear_8,3,1,48,98,4212332904
41,19,18,Jits_Linear_8,4,1,48,46,4212389876
41,19,18,Jits_Linear_8,0,5,63,98,4212674028
41,19,18,Jits_Linear_8,1,5,80,127,4212734272
41,19,18,Jits_Linear_8,2,5,56,103,4212764048
41,19,18,Jits_Linear_8,3,1,48,86,4212966140
41,19,18,Jits_Linear_8,4,1,48,39,4213016860
41,19,18,Jits_Linear_8,0,5,56,103,4213273948
41,19,18,Jits_Linear_8,1,5,80,127,4213303848
41,19,18,Jits_Linear_8,2,5,63,98,4213393680
41,19,18,Jits_Linear_8,3,1,48,88,4213587848
41,19,18,Jits_Linear_8,0,1,48,43,4213643064
41,19,18,Jits_Linear_8,1,5,56,103,4213873976
41,19,18,Jits_Linear_8,2,5,80,127,4213983740
41,19,18,Jits_Linear_8,3,5,63,98,4214014312
41,19,18,Jits_Linear_8,4,1,48,68,4214164816
41,19,18,Jits_Linear_8,5,1,48,34,4214209060
41,19,18,Jits_Linear_8,0,5,56,103,4214524280
41,19,18,Jits_Linear_8,1,5,63,98,4214583800
41,19,18,Jits_Linear_8,2,5,80,127,4214614448
41,19,18,Jits_Linear_8,3,1,48,69,4214673912
41,19,18,Jits_Linear_8,0,5,56,103,4215084540
41,19,18,Jits_Linear_8,1,5,63,98,4215154076
41,19,18,Jits_Linear_8,2,5,80,127,4215173636
41,19,18,Jits_Linear_8,3,1,48,85,4215204476
41,19,18,Jits_Linear_8,4,1,48,43,4215240256
41,19,18,Jits_Linear_8,0,5,80,127,4215643772
41,19,18,Jits_Linear_8,1,5,63,98,4215664008
41,19,18,Jits_Linear_8,2,5,56,103,4215714060
41,19,18,Jits_Linear_8,3,1,48,82,4215802808
41,19,18,Jits_Linear_8,4,1,48,38,4215845436
41,19,18,Jits_Linear_8,0,5,63,98,4216243752
41,19,18,Jits_Linear_8,1,5,80,127,4216254020
41,19,18,Jits_Linear_8,2,5,56,103,4216304000
41,19,18,Jits_Linear_8,3,1,48,73,4216390668
41,19,18,Jits_Linear_8,4,1,48,24,4216464816
41,19,18,Jits_Linear_8,0,5,63,98,4216824080
41,19,18,Jits_Linear_8,1,5,80,127,4216893788
41,19,18,Jits_Linear_8,2,5,56,103,4216914176
41,19,18,Jits_Linear_8,3,1,48,74,4216961944
41,19,18,Jits_Linear_8,4,1,48,35,4217008884
41,19,18,Jits_Linear_8,0,5,63,98,4217433664
41,19,18,Jits_Linear_8,1,5,80,127,4217436804
41,19,18,Jits_Linear_8,2,5,56,103,4217504020
41,19,18,Jits_Linear_8,3,1,48,85,4217553584
41,19,18,Jits_Linear_8,4,1,38,19,4217563904
41,19,18,Jits_Linear_8,5,1,48,43,4217607480
41,19,18,Jits_Linear_8,0,5,80,127,4217963888
41,19,18,Jits_Linear_8,1,5,56,103,4217984568
41,19,18,Jits_Linear_8,2,5,63,98,4217993720
41,19,18,Jits_Linear_8,3,1,48,84,4218099168
41,19,18,Jits_Linear_8,4,1,48,44,4218135584
41,19,18,Jits_Linear_8,0,5,56,103,4218563936
41,19,18,Jits_Linear_8,1,1,48,68,4218610204
41,19,18,Jits_Linear_8,2,5,63,98,4218654092
41,19,18,Jits_Linear_8,3,5,80,127,4218657528
41,19,18,Jits_Linear_8,4,1,48,32,4218667976
41,19,18,Jits_Linear_8,0,5,80,127,4219113864
41,19,18,Jits_Linear_8,1,5,56,103,4219123984
41,19,18,Jits_Linear_8,2,5,63,98,4219143772
41,19,18,Jits_Linear_8,3,1,48,84,4219178900
41,19,18,Jits_Linear_8,4,1,48,43,4219235596
41,19,18,Jits_Linear_8,0,5,63,98,4219684272
41,19,18,Jits_Linear_8,1,5,80,127,4219743768
41,19,18,Jits_Linear_8,2,1,48,89,4219745332
41,19,18,Jits_Linear_8,3,5,56,103,4219753956
41,19,18,Jits_Linear_8,4,1,48,45,4219790768
41,19,18,Jits_Linear_8,0,1,48,87,4220321732
41,19,18,Jits_Linear_8,1,5,63,98,4220324320
41,19,18,Jits_Linear_8,2,5,80,127,4220353848
41,19,18,Jits_Linear_8,3,1,48,39,4220376136
41,19,18,Jits_Linear_8,4,5,56,103,4220393840
41,19,18,Jits_Linear_8,0,5,56,103,4220884588
41,19,18,Jits_Linear_8,1,5,80,127,4220893516
41,19,18,Jits_Linear_8,2,5,63,98,4220933604
41,19,18,Jits_Linear_8,3,1,48,90,4220997572
41,19,18,Jits_Linear_8,4,1,48,41,4221047000
41,19,18,Jits_Linear_8,0,5,80,127,4221413704
41,19,18,Jits_Linear_8,1,5,56,103,4221493524
41,19,18,Jits_Linear_8,2,5,63,98,4221503796
41,19,18,Jits_Linear_8,3,1,48,89,4221596656
41,19,18,Jits_Linear_8,4,1,48,44,4221642044
41,19,18,Jits_Linear_8,0,5,80,127,4222023976
41,19,18,Jits_Linear_8,1,5,56,103,4222104000
41,19,18,Jits_Linear_8,2,5,63,98,4222114196
41,19,18,Jits_Linear_8,3,1,48,83,4222200608
41,19,18,Jits_Linear_8,4,1,48,43,4222242800
41,19,18,Jits_Linear_8,0,5,80,127,4222544100
41,19,18,Jits_Linear_8,1,5,56,103,4222594456
41,19,18,Jits_Linear_8,2,5,63,98,4222643612
41,19,18,Jits_Linear_8,3,1,48,78,4222779196
41,19,18,Jits_Linear_8,4,1,48,39,4222825708
41,19,18,Jits_Linear_8,0,5,56,103,4223163716
41,19,18,Jits_Linear_8,1,5,63,98,4223166860
41,19,18,Jits_Linear_8,2,5,80,127,4223213920
41,19,18,Jits_Linear_8,3,1,48,84,4223374012
41,19,18,Jits_Linear_8,4,1,48,43,4223422616
41,19,18,Jits_Linear_8,0,5,56,103,4223744516
41,19,18,Jits_Linear_8,1,5,63,98,4223774220
41,19,18,Jits_Linear_8,2,5,80,127,4223784488
41,19,18,Jits_Linear_8,3,1,48,70,4223977288
41,19,18,Jits_Linear_8,0,1,48,39,4224018956
41,19,18,Jits_Linear_8,1,5,63,98,4224214376
41,19,18,Jits_Linear_8,2,5,56,103,4224283936
41,19,18,Jits_Linear_8,3,5,80,127,4224334136
41,19,18,Jits_Linear_8,0,1,48,78,4224644212
41,19,18,Jits_Linear_8,1,1,48,28,4224708164
41,19,18,Jits_Linear_8,2,5,63,98,4224804348
41,19,18,Jits_Linear_8,3,5,56,103,4224813556
41,19,18,Jits_Linear_8,4,5,80,127,4224816624
41,19,18,Jits_Linear_8,0,5,80,127,4225303936
41,19,18,Jits_Linear_8,1,1,48,90,4225316644
41,19,18,Jits_Linear_8,2,5,56,103,4225364472
41,19,18,Jits_Linear_8,3,1,48,38,4225375376
41,19,18,Jits_Linear_8,4,5,63,98,4225453536
41,19,18,Jits_Linear_8,0,5,80,127,4225853724
41,19,18,Jits_Linear_8,1,5,56,103,4225954272
41,19,18,Jits_Linear_8,2,1,48,87,4225955236
41,19,18,Jits_Linear_8,3,5,63,98,4225993980
41,19,18,Jits_Linear_8,4,1,48,45,4225999028
41,19,18,Jits_Linear_8,0,5,56,103,4226453932
41,19,18,Jits_Linear_8,1,5,63,98,4226474544
41,19,18,Jits_Linear_8,2,5,80,127,4226514556
41,19,18,Jits_Linear_8,3,1,48,79,4226568392
41,19,18,Jits_Linear_8,4,1,38,18,4226578524
41,19,18,Jits_Linear_8,5,1,48,33,4226629364
41,19,18,Jits_Linear_8,0,5,63,98,4226973928
41,19,18,Jits_Linear_8,1,5,56,103,4226993492
41,19,18,Jits_Linear_8,2,5,80,127,4227093988
41,19,18,Jits_Linear_8,3,1,48,80,4227148568
41,19,18,Jits_Linear_8,4,1,48,25,4227237024
41,19,18,Jits_Linear_8,0,5,63,98,4227503400
41,19,18,Jits_Linear_8,1,5,80,127,4227614236
41,19,18,Jits_Linear_8,2,5,56,103,4227643688
41,19,18,Jits_Linear_8,3,1,48,83,4227713336
41,19,18,Jits_Linear_8,4,1,48,48,4227751280
41,19,18,Jits_Linear_8,0,5,56,103,4228063636
41,19,18,Jits_Linear_8,1,5,63,98,4228094508
41,19,18,Jits_Linear_8,2,5,80,127,4228143392
41,19,18,Jits_Linear_8,3,1,48,70,4228249212
41,19,18,Jits_Linear_8,4,1,48,23,4228324784
41,19,18,Jits_Linear_8,0,5,63,98,4228573564
41,19,18,Jits_Linear_8,1,5,56,103,4228604212
41,19,18,Jits_Linear_8,2,5,80,127,4228653316
41,19,18,Jits_Linear_8,3,1,48,76,4228789776
41,19,18,Jits_Linear_8,4,1,48,51,4228830204
41,19,18,Jits_Linear_8,0,5,56,103,4229144088
41,19,18,Jits_Linear_8,1,5,63,98,4229164400
41,19,18,Jits_Linear_8,2,5,80,127,4229244268
41,19,18,Jits_Linear_8,3,1,48,70,4229303508
41,19,18,Jits_Linear_8,4,1,48,42,4229340924
41,19,18,Jits_Linear_8,0,5,63,98,4229664352
41,19,18,Jits_Linear_8,1,5,56,103,4229723620
41,19,18,Jits_Linear_8,2,5,80,127,4229754120
41,19,18,Jits_Linear_8,3,1,48,78,4229866316
41,19,18,Jits_Linear_8,4,1,48,38,4229919056
41,19,18,Jits_Linear_8,0,5,56,103,4230243568
41,19,18,Jits_Linear_8,1,5,80,127,4230304332
41,19,18,Jits_Linear_8,2,5,63,98,4230344048
41,19,18,Jits_Linear_8,3,1,48,65,4230443312
41,19,18,Jits_Linear_8,4,1,48,33,4230500960
41,19,18,Jits_Linear_8,0,5,63,98,4230753648
41,19,18,Jits_Linear_8,1,5,56,103,4230814192
41,19,18,Jits_Linear_8,2,5,80,127,4230883648
41,19,18,Jits_Linear_8,3,1,48,76,4230932344
41,19,18,Jits_Linear_8,4,1,48,40,4230977188
41,19,18,Jits_Linear_8,0,5,56,103,4231363816
41,19,18,Jits_Linear_8,1,5,63,98,4231374156
41,19,18,Jits_Linear_8,2,5,80,127,4231377520
41,19,18,Jits_Linear_8,3,1,48,57,4231473720
41,19,18,Jits_Linear_8,0,5,63,98,4231834128
41,19,18,Jits_Linear_8,1,5,56,103,4231894516
41,19,18,Jits_Linear_8,2,5,80,127,4231897512
41,19,18,Jits_Linear_8,3,1,48,88,4232036928
41,19,18,Jits_Linear_8,4,1,38,19,4232046872
41,19,18,Jits_Linear_8,5,1,48,44,4232092852
41,19,18,Jits_Linear_8,0,5,63,98,4232344108
41,19,18,Jits_Linear_8,1,5,80,127,4232373708
41,19,18,Jits_Linear_8,2,5,56,103,4232394092
41,19,18,Jits_Linear_8,3,1,48,68,4232586092
41,19,18,Jits_Linear_8,0,5,56,103,4232883564
41,19,18,Jits_Linear_8,1,5,63,98,4232933992
41,19,18,Jits_Linear_8,2,5,80,127,4233013516
41,19,18,Jits_Linear_8,3,1,48,69,4233091480
41,19,18,Jits_Linear_8,0,5,80,127,4233384156
41,19,18,Jits_Linear_8,1,5,63,98,4233424320
41,19,18,Jits_Linear_8,2,5,56,103,4233443584
41,19,18,Jits_Linear_8,3,1,48,77,4233557672
41,19,18,Jits_Linear_8,4,1,48,40,4233599152
41,19,18,Jits_Linear_8,0,5,56,103,4233974028
41,19,18,Jits_Linear_8,1,5,80,127,4233984300
41,19,18,Jits_Linear_8,2,5,63,98,4234004108
41,19,18,Jits_Linear_8,3,1,48,52,4234051192
41,19,18,Jits_Linear_8,0,5,56,103,4234474020
41,19,18,Jits_Linear_8,1,5,63,98,4234524100
41,19,18,Jits_Linear_8,2,5,80,127,4234553848
41,19,18,Jits_Linear_8,3,1,48,72,4234595924
41,19,18,Jits_Linear_8,4,1,48,43,4234629608
41,19,18,Jits_Linear_8,0,5,56,103,4234954200
41,19,18,Jits_Linear_8,1,5,63,98,4234964396
41,19,18,Jits_Linear_8,2,5,80,127,4235013404
41,19,18,Jits_Linear_8,3,1,48,57,4235131008
41,19,18,Jits_Linear_8,0,5,56,103,4235464000
41,19,18,Jits_Linear_8,1,5,80,127,4235467068
41,19,18,Jits_Linear_8,2,5,63,98,4235624056
41,19,18,Jits_Linear_8,3,1,48,84,4235668448
41,19,18,Jits_Linear_8,4,1,48,38,4235718392
41,19,18,Jits_Linear_8,0,5,63,98,4235993476
41,19,18,Jits_Linear_8,1,5,56,103,4236064232
41,19,18,Jits_Linear_8,2,5,80,127,4236104020
41,19,18,Jits_Linear_8,3,1,48,80,4236219584
41,19,18,Jits_Linear_8,4,1,48,38,4236268328
41,19,18,Jits_Linear_8,0,5,63,98,4236544376
41,19,18,Jits_Linear_8,1,5,56,103,4236633488
41,19,18,Jits_Linear_8,2,5,80,127,4236636484
41,19,18,Jits_Linear_8,3,1,48,81,4236770400
41,19,18,Jits_Linear_8,0,1,48,34,4236831668
41,19,18,Jits_Linear_8,1,5,56,103,4237033916
41,19,18,Jits_Linear_8,2,5,63,98,4237124076
41,19,18,Jits_Linear_8,3,5,80,127,4237134200
41,19,18,Jits_Linear_8,0,1,48,86,4237356976
41,19,18,Jits_Linear_8,1,1,38,19,4237367376
41,19,18,Jits_Linear_8,2,1,48,40,4237412236
41,19,18,Jits_Linear_8,3,5,56,103,4237514116
41,19,18,Jits_Linear_8,4,5,63,98,4237564244
41,19,18,Jits_Linear_8,5,5,80,127,4237593944
41,19,18,Jits_Linear_8,0,1,48,85,4237949464
41,19,18,Jits_Linear_8,1,1,38,19,4237959336
41,19,18,Jits_Linear_8,2,1,48,42,4238001808
41,19,18,Jits_Linear_8,3,5,63,98,4238093992
41,19,18,Jits_Linear_8,4,5,80,127,4238104324
41,19,18,Jits_Linear_8,5,5,56,103,4238164268
41,19,18,Jits_Linear_8,0,5,63,98,4238513620
41,19,18,Jits_Linear_8,1,5,80,127,4238573936
41,19,18,Jits_Linear_8,2,1,48,90,4238599000
41,19,18,Jits_Linear_8,3,1,38,20,4238609280
41,19,18,Jits_Linear_8,4,5,56,103,4238614032
41,19,18,Jits_Linear_8,5,1,48,35,4238661628
41,19,18,Jits_Linear_8,0,5,56,103,4239113472
41,19,18,Jits_Linear_8,1,5,80,127,4239134028
41,19,18,Jits_Linear_8,2,5,63,98,4239153592
41,19,18,Jits_Linear_8,3,1,48,89,4239162784
41,19,18,Jits_Linear_8,4,1,38,20,4239172656
41,19,18,Jits_Linear_8,5,1,48,42,4239205812
41,19,18,Jits_Linear_8,0,5,63,98,4239533440
41,19,18,Jits_Linear_8,1,5,56,103,4239553828
41,19,18,Jits_Linear_8,2,5,80,127,4239593912
41,19,18,Jits_Linear_8,3,1,48,87,4239700652
41,19,18,Jits_Linear_8,4,1,48,44,4239744320
41,19,18,Jits_Linear_8,0,5,63,98,4240044604
41,19,18,Jits_Linear_8,1,5,80,127,4240074132
41,19,18,Jits_Linear_8,2,5,56,103,4240093840
41,19,18,Jits_Linear_8,3,1,48,95,4240248160
41,19,18,Jits_Linear_8,4,1,38,20,4240258108
41,19,18,Jits_Linear_8,5,1,48,43,4240302812
41,19,18,Jits_Linear_8,0,5,80,127,4240514536
41,19,18,Jits_Linear_8,1,5,56,103,4240563544
41,19,18,Jits_Linear_8,2,5,63,98,4240624008
41,19,18,Jits_Linear_8,3,1,48,74,4240790836
41,19,18,Jits_Linear_8,0,1,48,32,4240857800
41,19,18,Jits_Linear_8,1,5,63,98,4240993828
41,19,18,Jits_Linear_8,2,5,56,103,4241113412
41,19,18,Jits_Linear_8,3,5,80,127,4241144060
41,19,18,Jits_Linear_8,0,1,48,69,4241379280
41,19,18,Jits_Linear_8,1,1,48,40,4241417100
41,19,18,Jits_Linear_8,2,5,80,127,4241524056
41,19,18,Jits_Linear_8,3,5,63,98,4241543472
41,19,18,Jits_Linear_8,4,5,56,103,4241614124
41,19,18,Jits_Linear_8,0,1,48,78,4241946996
41,19,18,Jits_Linear_8,1,1,48,32,4242015832
41,19,18,Jits_Linear_8,2,5,63,98,4242033916
41,19,18,Jits_Linear_8,3,5,56,103,4242044188
41,19,18,Jits_Linear_8,4,5,80,127,4242124040
41,19,18,Jits_Linear_8,0,1,48,83,4242547872
41,19,18,Jits_Linear_8,1,1,38,18,4242558340
41,19,18,Jits_Linear_8,2,5,56,103,4242583992
41,19,18,Jits_Linear_8,3,1,48,37,4242603364
41,19,18,Jits_Linear_8,4,5,80,127,4242613800
41,19,18,Jits_Linear_8,5,5,63,98,4242624000
41,19,18,Jits_Linear_8,0,9999,9999,9999,4132182080
41,19,18,Jits_Linear_8,1,9999,9999,9999,4133011564
41,19,18,Jits_Linear_8,2,9999,9999,9999,4133831748
41,19,18,Jits_Linear_8,3,9999,9999,9999,4134651992
41,19,18,Jits_Linear_8,4,9999,9999,9999,4135471160
41,19,18,Jits_Linear_8,5,9999,9999,9999,4136281180
41,19,18,Jits_Linear_8,6,9999,9999,9999,4137091192
41,19,18,Jits_Linear_8,7,9999,9999,9999,4137901128
41,19,18,Jits_Linear_8,8,9999,9999,9999,4138711100
41,19,18,Jits_Linear_8,9,9999,9999,9999,4139521096
41,19,18,Jits_Linear_8,10,9999,9999,9999,4140321900
41,19,18,Jits_Linear_8,11,9999,9999,9999,4141121592
41,19,18,Jits_Linear_8,12,9999,9999,9999,4141921352
41,19,18,Jits_Linear_8,13,9999,9999,9999,4142721116
41,19,18,Jits_Linear_8,14,9999,9999,9999,4143521904
41,19,18,Jits_Linear_8,15,9999,9999,9999,4144311388
41,19,18,Jits_Linear_8,16,9999,9999,9999,4145101888
41,19,18,Jits_Linear_8,17,9999,9999,9999,4145891432
41,19,18,Jits_Linear_8,18,9999,9999,9999,4146681948
41,19,18,Jits_Linear_8,19,9999,9999,9999,4147471428
41,19,18,Jits_Linear_8,20,9999,9999,9999,4148251716
41,19,18,Jits_Linear_8,21,9999,9999,9999,4149031996
41,19,18,Jits_Linear_8,22,9999,9999,9999,4149811304
41,19,18,Jits_Linear_8,23,9999,9999,9999,4150591592
41,19,18,Jits_Linear_8,24,9999,9999,9999,4151371864
41,19,18,Jits_Linear_8,25,9999,9999,9999,4152141952
41,19,18,Jits_Linear_8,26,9999,9999,9999,4152911960
41,19,18,Jits_Linear_8,27,9999,9999,9999,4153682016
41,19,18,Jits_Linear_8,28,9999,9999,9999,4154452040
41,19,18,Jits_Linear_8,29,9999,9999,9999,4155222132
41,19,18,Jits_Linear_8,30,9999,9999,9999,4155991100
41,19,18,Jits_Linear_8,31,9999,9999,9999,4156751968
41,19,18,Jits_Linear_8,32,9999,9999,9999,4157511804
41,19,18,Jits_Linear_8,33,9999,9999,9999,4158271560
41,19,18,Jits_Linear_8,34,9999,9999,9999,4159031396
41,19,18,Jits_Linear_8,35,9999,9999,9999,4159781952
41,19,18,Jits_Linear_8,36,9999,9999,9999,4160531520
41,19,18,Jits_Linear_8,37,9999,9999,9999,4161281144
41,19,18,Jits_Linear_8,38,9999,9999,9999,4162031684
41,19,18,Jits_Linear_8,39,9999,9999,9999,4162781260
41,19,18,Jits_Linear_8,40,9999,9999,9999,4163521624
41,19,18,Jits_Linear_8,41,9999,9999,9999,4164261980
41,19,18,Jits_Linear_8,42,9999,9999,9999,4165001300
41,19,18,Jits_Linear_8,43,9999,9999,9999,4165741692
41,19,18,Jits_Linear_8,44,9999,9999,9999,4166481992
41,19,18,Jits_Linear_8,45,9999,9999,9999,4167211076
41,19,18,Jits_Linear_8,46,9999,9999,9999,4167941204
41,19,18,Jits_Linear_8,47,9999,9999,9999,4168671344
41,19,18,Jits_Linear_8,48,9999,9999,9999,4169401412
41,19,18,Jits_Linear_8,49,9999,9999,9999,4170131512
41,19,18,Jits_Linear_8,50,9999,9999,9999,4170851448
41,19,18,Jits_Linear_8,51,9999,9999,9999,4171571324
41,19,18,Jits_Linear_8,52,9999,9999,9999,4172291132
41,19,18,Jits_Linear_8,53,9999,9999,9999,4173012064
41,19,18,Jits_Linear_8,54,9999,9999,9999,4173731948
41,19,18,Jits_Linear_8,55,9999,9999,9999,4174441572
41,19,18,Jits_Linear_8,56,9999,9999,9999,4175151172
41,19,18,Jits_Linear_8,57,9999,9999,9999,4175861820
41,19,18,Jits_Linear_8,58,9999,9999,9999,4176571512
41,19,18,Jits_Linear_8,59,9999,9999,9999,4177281128
41,19,18,Jits_Linear_8,60,9999,9999,9999,4177981560
41,19,18,Jits_Linear_8,61,9999,9999,9999,4178681976
41,19,18,Jits_Linear_8,62,9999,9999,9999,4179381312
41,19,18,Jits_Linear_8,63,9999,9999,9999,4180081772
41,19,18,Jits_Linear_8,64,9999,9999,9999,4180781132
41,19,18,Jits_Linear_8,65,9999,9999,9999,4181471332
41,19,18,Jits_Linear_8,66,9999,9999,9999,4182161512
41,19,18,Jits_Linear_8,67,9999,9999,9999,4182851704
41,19,18,Jits_Linear_8,68,9999,9999,9999,4183541816
41,19,18,Jits_Linear_8,69,9999,9999,9999,4184232040
41,19,18,Jits_Linear_8,70,9999,9999,9999,4184911996
41,19,18,Jits_Linear_8,71,9999,9999,9999,4185591932
41,19,18,Jits_Linear_8,72,9999,9999,9999,4186271868
41,19,18,Jits_Linear_8,73,9999,9999,9999,4186951740
41,19,18,Jits_Linear_8,74,9999,9999,9999,4187631680
41,19,18,Jits_Linear_8,75,9999,9999,9999,4188301380
41,19,18,Jits_Linear_8,76,9999,9999,9999,4188971068
41,19,18,Jits_Linear_8,77,9999,9999,9999,4189641788
41,19,18,Jits_Linear_8,78,9999,9999,9999,4190311496
41,19,18,Jits_Linear_8,79,9999,9999,9999,4190981240
41,19,18,Jits_Linear_8,80,9999,9999,9999,4191641696
41,19,18,Jits_Linear_8,81,9999,9999,9999,4192301152
41,19,18,Jits_Linear_8,82,9999,9999,9999,4192961656
41,19,18,Jits_Linear_8,83,9999,9999,9999,4193622108
41,19,18,Jits_Linear_8,84,9999,9999,9999,4194291836
41,19,18,Jits_Linear_8,85,9999,9999,9999,4194942048
41,19,18,Jits_Linear_8,86,9999,9999,9999,4195591276
41,19,18,Jits_Linear_8,87,9999,9999,9999,4196241516
41,19,18,Jits_Linear_8,88,9999,9999,9999,4196891708
41,19,18,Jits_Linear_8,89,9999,9999,9999,4197541952
41,19,18,Jits_Linear_8,90,9999,9999,9999,4198181960
41,19,18,Jits_Linear_8,91,9999,9999,9999,4198821948
41,19,18,Jits_Linear_8,92,9999,9999,9999,4199462008
41,19,18,Jits_Linear_8,93,9999,9999,9999,4200101976
41,19,18,Jits_Linear_8,94,9999,9999,9999,4200742012
41,19,18,Jits_Linear_8,95,9999,9999,9999,4201371728
41,19,18,Jits_Linear_8,96,9999,9999,9999,4202001472
41,19,18,Jits_Linear_8,97,9999,9999,9999,4202631256
41,19,18,Jits_Linear_8,98,9999,9999,9999,4203262032
41,19,18,Jits_Linear_8,99,9999,9999,9999,4203891784
41,19,18,Jits_Linear_8,100,9999,9999,9999,4204511308
41,19,18,Jits_Linear_8,101,9999,9999,9999,4205131904
41,19,18,Jits_Linear_8,102,9999,9999,9999,4205751356
41,19,18,Jits_Linear_8,103,9999,9999,9999,4206371964
41,19,18,Jits_Linear_8,104,9999,9999,9999,4206991428
41,19,18,Jits_Linear_8,105,9999,9999,9999,4207601736
41,19,18,Jits_Linear_8,106,9999,9999,9999,4208212060
41,19,18,Jits_Linear_8,107,9999,9999,9999,4208821312
41,19,18,Jits_Linear_8,108,9999,9999,9999,4209431644
41,19,18,Jits_Linear_8,109,9999,9999,9999,4210041948
41,19,18,Jits_Linear_8,110,9999,9999,9999,4210642028
41,19,18,Jits_Linear_8,111,9999,9999,9999,4211242100
41,19,18,Jits_Linear_8,112,9999,9999,9999,4211841104
41,19,18,Jits_Linear_8,113,9999,9999,9999,4212441192
41,19,18,Jits_Linear_8,114,9999,9999,9999,4213041268
41,19,18,Jits_Linear_8,115,9999,9999,9999,4213632112
41,19,18,Jits_Linear_8,116,9999,9999,9999,4214231152
41,19,18,Jits_Linear_8,117,9999,9999,9999,4214822008
41,19,18,Jits_Linear_8,118,9999,9999,9999,4215411812
41,19,18,Jits_Linear_8,119,9999,9999,9999,4216001600
41,19,18,Jits_Linear_8,120,9999,9999,9999,4216581204
41,19,18,Jits_Linear_8,121,9999,9999,9999,4217161784
41,19,18,Jits_Linear_8,122,9999,9999,9999,4217741392
41,19,18,Jits_Linear_8,123,9999,9999,9999,4218322012
41,19,18,Jits_Linear_8,124,9999,9999,9999,4218901560
41,19,18,Jits_Linear_8,125,9999,9999,9999,4219471944
41,19,18,Jits_Linear_8,126,9999,9999,9999,4220041280
41,19,18,Jits_Linear_8,127,9999,9999,9999,4220611664
41,19,18,Jits_Linear_8,128,9999,9999,9999,4221182040
41,19,18,Jits_Linear_8,129,9999,9999,9999,4221751404
41,19,18,Jits_Linear_8,130,9999,9999,9999,4222311484
41,19,18,Jits_Linear_8,131,9999,9999,9999,4222871612
41,19,18,Jits_Linear_8,132,9999,9999,9999,4223431732
41,19,18,Jits_Linear_8,133,9999,9999,9999,4223991888
41,19,18,Jits_Linear_8,134,9999,9999,9999,4224552052
41,19,18,Jits_Linear_8,135,9999,9999,9999,4225101888
41,19,18,Jits_Linear_8,136,9999,9999,9999,4225651808
41,19,18,Jits_Linear_8,137,9999,9999,9999,4226201668
41,19,18,Jits_Linear_8,138,9999,9999,9999,4226751572
41,19,18,Jits_Linear_8,139,9999,9999,9999,4227301436
41,19,18,Jits_Linear_8,140,9999,9999,9999,4227841100
41,19,18,Jits_Linear_8,141,9999,9999,9999,4228381804
41,19,18,Jits_Linear_8,142,9999,9999,9999,4228921468
41,19,18,Jits_Linear_8,143,9999,9999,9999,4229462140
41,19,18,Jits_Linear_8,144,9999,9999,9999,4230011996
41,19,18,Jits_Linear_8,145,9999,9999,9999,4230541408
41,19,18,Jits_Linear_8,146,9999,9999,9999,4231071852
41,19,18,Jits_Linear_8,147,9999,9999,9999,4231601264
41,19,18,Jits_Linear_8,148,9999,9999,9999,4232131640
41,19,18,Jits_Linear_8,149,9999,9999,9999,4232662116
41,19,18,Jits_Linear_8,150,9999,9999,9999,4233191528
41,19,18,Jits_Linear_8,151,9999,9999,9999,4233711720
41,19,18,Jits_Linear_8,152,9999,9999,9999,4234231864
41,19,18,Jits_Linear_8,153,9999,9999,9999,4234752068
41,19,18,Jits_Linear_8,154,9999,9999,9999,4235281512
41,19,18,Jits_Linear_8,155,9999,9999,9999,4235791452
41,19,18,Jits_Linear_8,156,9999,9999,9999,4236301384
41,19,18,Jits_Linear_8,157,9999,9999,9999,4236811368
41,19,18,Jits_Linear_8,158,9999,9999,9999,4237321300
41,19,18,Jits_Linear_8,159,9999,9999,9999,4237831240
41,19,18,Jits_Linear_8,160,9999,9999,9999,4238331964
41,19,18,Jits_Linear_8,161,9999,9999,9999,4238831712
41,19,18,Jits_Linear_8,162,9999,9999,9999,4239331384
41,19,18,Jits_Linear_8,163,9999,9999,9999,4239831128
41,19,18,Jits_Linear_8,164,9999,9999,9999,4240331864
41,19,18,Jits_Linear_8,165,9999,9999,9999,4240821320
41,19,18,Jits_Linear_8,166,9999,9999,9999,4241311856
41,19,18,Jits_Linear_8,167,9999,9999,9999,4241801324
41,19,18,Jits_Linear_8,168,9999,9999,9999,4242291840
41,19,18,Jits_Linear_8,169,9999,9999,9999,4242781268
41,20,5,ISIP_5,0,5,42,127,11958540
41,20,5,ISIP_5,1,5,42,127,12458332
41,20,5,ISIP_5,2,5,42,127,12959168
41,20,5,ISIP_5,3,1,48,78,12988164
41,20,5,ISIP_5,4,1,48,46,13038812
41,20,5,ISIP_5,5,5,42,127,13458768
41,20,5,ISIP_5,6,1,48,121,13466224
41,20,5,ISIP_5,7,1,48,46,13515564
41,20,5,ISIP_5,8,5,42,127,13958440
41,20,5,ISIP_5,9,1,48,119,13970380
41,20,5,ISIP_5,10,1,48,65,14007084
41,20,5,ISIP_5,11,1,48,43,14039704
41,20,5,ISIP_5,12,5,42,127,14458092
41,20,5,ISIP_5,13,1,48,127,14474972
41,20,5,ISIP_5,14,1,48,62,14506368
41,20,5,ISIP_5,15,1,48,45,14533796
41,20,5,ISIP_5,16,5,42,127,14959164
41,20,5,ISIP_5,17,1,48,106,14960876
41,20,5,ISIP_5,18,1,38,24,14971180
41,20,5,ISIP_5,19,1,48,122,15444940
41,20,5,ISIP_5,20,1,38,24,15454872
41,20,5,ISIP_5,21,5,42,127,15458872
41,20,5,ISIP_5,22,1,48,61,15479180
41,20,5,ISIP_5,23,1,48,114,15954680
41,20,5,ISIP_5,24,5,42,127,15958384
41,20,5,ISIP_5,25,1,38,24,15965012
41,20,5,ISIP_5,26,1,48,59,15982872
41,20,5,ISIP_5,27,1,48,103,16441384
41,20,5,ISIP_5,28,1,38,22,16451308
41,20,5,ISIP_5,29,5,42,127,16459052
41,20,5,ISIP_5,30,1,48,55,16467836
41,20,5,ISIP_5,31,5,42,127,16959000
41,20,5,ISIP_5,32,1,48,115,16964208
41,20,5,ISIP_5,33,1,48,67,16991568
41,20,5,ISIP_5,34,1,48,49,17016232
41,20,5,ISIP_5,35,5,42,127,17458504
41,20,5,ISIP_5,36,1,48,89,17476056
41,20,5,ISIP_5,37,1,48,63,17502884
41,20,5,ISIP_5,38,5,42,127,17958248
41,20,5,ISIP_5,39,1,48,100,17980516
41,20,5,ISIP_5,40,1,48,68,18003456
41,20,5,ISIP_5,41,5,42,127,18459268
41,20,5,ISIP_5,42,1,48,86,18468076
41,20,5,ISIP_5,43,1,48,65,18489892
41,20,5,ISIP_5,44,1,48,111,18949552
41,20,5,ISIP_5,45,5,42,127,18958784
41,20,5,ISIP_5,46,1,48,62,18973180
41,20,5,ISIP_5,47,1,48,101,19450492
41,20,5,ISIP_5,48,5,42,127,19458384
41,20,5,ISIP_5,49,1,38,21,19461128
41,20,5,ISIP_5,50,1,48,53,19478608
41,20,5,ISIP_5,51,1,48,108,19956432
41,20,5,ISIP_5,52,5,42,127,19958244
41,20,5,ISIP_5,53,1,38,22,19966968
41,20,5,ISIP_5,54,1,48,64,19980936
41,20,5,ISIP_5,55,5,42,127,20458936
41,20,5,ISIP_5,56,1,48,104,20464224
41,20,5,ISIP_5,57,1,38,23,20474228
41,20,5,ISIP_5,58,5,42,127,20958436
41,20,5,ISIP_5,59,1,48,97,20961252
41,20,5,ISIP_5,60,1,38,21,20970884
41,20,5,ISIP_5,61,5,42,127,21458156
41,20,5,ISIP_5,62,1,48,92,21483116
41,20,5,ISIP_5,63,1,38,21,21493044
41,20,5,ISIP_5,64,1,48,54,21511048
41,20,5,ISIP_5,65,5,42,127,21959104
41,20,5,ISIP_5,66,1,48,100,21971372
41,20,5,ISIP_5,67,1,38,22,21981452
41,20,5,ISIP_5,68,1,48,49,22001848
41,20,5,ISIP_5,69,5,42,127,22458728
41,20,5,ISIP_5,70,1,48,114,22479276
41,20,5,ISIP_5,71,1,38,22,22489964
41,20,5,ISIP_5,72,5,42,127,22958440
41,20,5,ISIP_5,73,1,48,96,22988040
41,20,5,ISIP_5,74,5,42,127,23458136
41,20,5,ISIP_5,75,1,48,103,23489004
41,20,5,ISIP_5,76,1,48,57,23514732
41,20,5,ISIP_5,77,5,42,127,23958780
41,20,5,ISIP_5,78,1,48,98,23970948
41,20,5,ISIP_5,79,5,42,127,24458772
41,20,5,ISIP_5,80,1,48,89,24483504
41,20,5,ISIP_5,81,1,38,19,24493436
41,20,5,ISIP_5,82,1,48,103,24948724
41,20,5,ISIP_5,83,5,42,127,24958560
41,20,5,ISIP_5,84,1,48,54,24975580
41,20,5,ISIP_5,85,1,48,87,25447056
41,20,5,ISIP_5,86,5,42,127,25459132
41,20,5,ISIP_5,87,5,42,127,25958684
41,20,5,ISIP_5,88,1,48,95,25967640
41,20,5,ISIP_5,89,1,38,20,25977712
41,20,5,ISIP_5,90,1,48,58,25993024
41,20,5,ISIP_5,91,5,42,127,26458460
41,20,5,ISIP_5,92,1,48,93,26459352
41,20,5,ISIP_5,93,1,38,21,26469428
41,20,5,ISIP_5,94,1,48,91,26945812
41,20,5,ISIP_5,95,1,38,20,26956284
41,20,5,ISIP_5,96,5,42,127,26958836
41,20,5,ISIP_5,97,1,48,60,26970548
41,20,5,ISIP_5,98,5,42,127,27458868
41,20,5,ISIP_5,99,1,48,81,27481212
41,20,5,ISIP_5,100,1,48,53,27504972
41,20,5,ISIP_5,101,5,42,127,27958836
41,20,5,ISIP_5,102,1,48,91,27977892
41,20,5,ISIP_5,103,1,38,20,27988268
41,20,5,ISIP_5,104,1,48,97,28458040
41,20,5,ISIP_5,105,5,42,127,28459676
41,20,5,ISIP_5,106,1,38,21,28468256
41,20,5,ISIP_5,107,5,42,127,28959120
41,20,5,ISIP_5,108,1,48,102,28977720
41,20,5,ISIP_5,109,1,48,54,29005668
41,20,5,ISIP_5,110,5,42,127,29459016
41,20,5,ISIP_5,111,1,48,92,29463180
41,20,5,ISIP_5,112,1,38,20,29473112
41,20,5,ISIP_5,113,5,42,127,29958440
41,20,5,ISIP_5,114,1,48,92,29965144
41,20,5,ISIP_5,115,1,38,19,29975748
41,20,5,ISIP_5,116,1,48,48,29995400
41,20,5,ISIP_5,117,5,42,127,30458140
41,20,5,ISIP_5,118,1,48,106,30469784
41,20,5,ISIP_5,119,1,48,44,30505960
41,20,5,ISIP_5,120,5,42,127,30958936
41,20,5,ISIP_5,121,1,48,106,30973420
41,20,5,ISIP_5,122,1,48,47,31010500
41,20,5,ISIP_5,123,5,42,127,31458608
41,20,5,ISIP_5,124,1,48,109,31473464
41,20,5,ISIP_5,125,1,48,53,31505684
41,20,5,ISIP_5,126,1,48,106,32005228
41,20,5,ISIP_5,127,1,48,52,32038412
41,20,5,ISIP_5,128,1,48,97,32556504
41,20,5,ISIP_5,129,1,38,21,32566132
41,20,5,ISIP_5,130,1,48,59,32581516
41,20,5,ISIP_5,131,1,48,102,33049540
41,20,5,ISIP_5,132,1,38,22,33059472
41,20,5,ISIP_5,133,1,48,57,33076952
41,20,5,ISIP_5,134,1,48,107,33539964
41,20,5,ISIP_5,135,1,38,22,33550040
41,20,5,ISIP_5,136,1,48,57,33567524
41,20,5,ISIP_5,137,1,48,102,34055520
41,20,5,ISIP_5,138,1,38,21,34065448
41,20,5,ISIP_5,139,1,48,53,34085544
41,20,5,ISIP_5,140,1,48,108,34590820
41,20,5,ISIP_5,141,1,38,22,34600892
41,20,5,ISIP_5,142,1,48,49,34627876
41,20,5,ISIP_5,143,1,48,109,35076308
41,20,5,ISIP_5,144,1,38,22,35086460
41,20,5,ISIP_5,145,1,48,62,35101320
41,20,5,ISIP_5,146,1,48,102,35595672
41,20,5,ISIP_5,147,1,38,21,35605604
41,20,5,ISIP_5,148,1,48,51,35625176
41,20,5,ISIP_5,149,1,48,94,36071132
41,20,5,ISIP_5,150,1,38,20,36081064
41,20,5,ISIP_5,151,1,48,54,36097052
41,20,5,ISIP_5,152,1,48,97,36586312
41,20,5,ISIP_5,153,1,38,20,36596172
41,20,5,ISIP_5,154,1,48,58,36612076
41,20,5,ISIP_5,155,1,48,94,37068264
41,20,5,ISIP_5,156,1,48,54,37094520
41,20,5,ISIP_5,157,1,48,100,37593904
41,20,5,ISIP_5,158,1,48,62,37620292
41,20,5,ISIP_5,159,1,48,96,38114448
41,20,5,ISIP_5,160,1,38,20,38124224
41,20,5,ISIP_5,161,1,48,55,38140584
41,20,5,ISIP_5,162,1,48,90,38613248
41,20,5,ISIP_5,163,1,38,20,38622872
41,20,5,ISIP_5,164,1,48,57,38636696
41,20,5,ISIP_5,165,1,48,96,39129328
41,20,5,ISIP_5,166,1,38,21,39138952
41,20,5,ISIP_5,167,1,48,59,39152320
41,20,5,ISIP_5,168,1,48,105,39659540
41,20,5,ISIP_5,169,1,38,21,39669540
41,20,5,ISIP_5,170,1,48,111,40167856
41,20,5,ISIP_5,171,1,38,22,40178232
41,20,5,ISIP_5,172,1,48,57,40193620
41,20,5,ISIP_5,173,1,48,93,40658056
41,20,5,ISIP_5,174,1,38,20,40668056
41,20,5,ISIP_5,175,1,48,98,41175424
41,20,5,ISIP_5,176,1,38,21,41185048
41,20,5,ISIP_5,177,1,48,60,41200436
41,20,5,ISIP_5,178,1,48,91,41685588
41,20,5,ISIP_5,179,1,38,19,41695444
41,20,5,ISIP_5,180,1,48,98,42179224
41,20,5,ISIP_5,181,1,38,20,42189748
41,20,5,ISIP_5,182,1,48,58,42204168
41,20,5,ISIP_5,183,1,48,103,42707196
41,20,5,ISIP_5,184,1,38,21,42717200
41,20,5,ISIP_5,185,1,48,65,42732504
41,20,5,ISIP_5,186,1,48,91,43217660
41,20,5,ISIP_5,187,1,38,19,43227960
41,20,5,ISIP_5,188,1,48,89,43718928
41,20,5,ISIP_5,189,1,38,19,43729192
41,20,5,ISIP_5,190,1,48,54,43745244
41,20,5,ISIP_5,191,1,48,109,44225736
41,20,5,ISIP_5,192,1,38,22,44235816
41,20,5,ISIP_5,193,1,48,63,44250180
41,20,5,ISIP_5,194,1,48,111,44745180
41,20,5,ISIP_5,195,1,48,66,44767992
41,20,5,ISIP_5,196,1,48,100,45244392
41,20,5,ISIP_5,197,1,48,94,45742668
41,20,5,ISIP_5,198,1,48,95,46249912
41,20,5,ISIP_5,199,1,48,102,46752596
41,20,5,ISIP_5,200,1,38,21,46762672
41,20,5,ISIP_5,201,1,48,105,47270864
41,20,5,ISIP_5,202,1,38,21,47280792
41,20,5,ISIP_5,203,1,48,60,47294536
41,20,5,ISIP_5,204,1,48,102,47788368
41,20,5,ISIP_5,205,1,48,65,47810784
41,20,5,ISIP_5,206,1,48,105,48291852
41,20,5,ISIP_5,207,1,48,116,48809640
41,20,5,ISIP_5,208,1,48,97,49309256
41,20,5,ISIP_5,209,1,38,21,49319112
41,20,5,ISIP_5,210,1,48,98,49819516
41,20,5,ISIP_5,211,1,38,20,49829900
41,20,5,ISIP_5,212,1,48,61,49841692
41,20,5,ISIP_5,213,1,48,111,50337016
41,20,5,ISIP_5,214,1,48,111,50851364
41,20,5,ISIP_5,215,1,48,57,50877824
41,20,5,ISIP_5,216,1,48,100,51362104
41,20,5,ISIP_5,217,1,48,54,51388860
41,20,5,ISIP_5,218,1,48,110,51896556
41,20,5,ISIP_5,219,1,48,58,51921836
41,20,5,ISIP_5,220,1,48,101,52381632
41,20,5,ISIP_5,221,1,48,109,52910572
41,20,5,ISIP_5,222,1,48,63,52938080
41,20,5,ISIP_5,223,1,48,101,53385560
41,20,5,ISIP_5,224,1,48,58,53412836
41,20,5,ISIP_5,225,1,48,97,53882012
41,20,5,ISIP_5,226,1,38,20,53891936
41,20,5,ISIP_5,227,1,48,64,53906276
41,20,5,ISIP_5,228,1,48,122,54417984
41,20,5,ISIP_5,229,1,48,67,54442568
41,20,5,ISIP_5,230,1,48,96,54925656
41,20,5,ISIP_5,231,1,48,64,54950840
41,20,5,ISIP_5,232,1,48,100,55441856
41,20,5,ISIP_5,233,1,38,20,55451712
41,20,5,ISIP_5,234,1,48,67,55463368
41,20,5,ISIP_5,235,1,48,98,55960864
41,20,5,ISIP_5,236,1,48,59,55983656
41,20,5,ISIP_5,237,1,48,112,56463296
41,20,5,ISIP_5,238,1,48,61,56486020
41,20,5,ISIP_5,239,1,48,103,56975308
41,20,5,ISIP_5,240,1,48,64,56997500
41,20,5,ISIP_5,241,1,48,91,57470192
41,20,5,ISIP_5,242,1,48,98,57985960
41,20,5,ISIP_5,243,1,48,55,58011824
41,20,5,ISIP_5,244,1,48,103,58503128
41,20,5,ISIP_5,245,1,48,95,59041120
41,20,5,ISIP_5,246,1,48,102,59520912
41,20,5,ISIP_5,247,1,48,65,59545276
41,20,5,ISIP_5,248,1,48,101,60026864
41,20,5,ISIP_5,249,1,48,107,60542340
41,20,5,ISIP_5,250,1,48,59,60565056
41,20,5,ISIP_5,251,1,48,96,61034528
41,20,5,ISIP_5,252,1,48,55,61060460
41,20,5,ISIP_5,253,1,48,99,61552968
41,20,5,ISIP_5,254,1,48,59,61576732
41,20,5,ISIP_5,255,1,48,95,62040072
41,20,5,ISIP_5,256,1,48,61,62065708
41,20,5,ISIP_5,257,1,48,90,62538844
41,20,5,ISIP_5,258,1,48,64,62561180
41,20,5,ISIP_5,259,1,48,88,63050700
41,20,5,ISIP_5,260,1,48,58,63074468
41,20,5,ISIP_5,261,1,48,105,63537804
41,20,5,ISIP_5,262,1,48,63,63563436
41,20,5,ISIP_5,263,1,48,99,64044056
41,20,5,ISIP_5,264,1,48,62,64067292
41,20,5,ISIP_5,265,1,48,110,64557036
41,20,5,ISIP_5,266,1,48,66,64582148
41,20,5,ISIP_5,267,1,48,115,65086476
41,20,5,ISIP_5,268,1,48,62,65110464
41,20,5,ISIP_5,269,1,48,97,65599380
41,20,5,ISIP_5,270,1,48,62,65623372
41,20,5,ISIP_5,271,1,48,104,66107728
41,20,5,ISIP_5,272,1,38,21,66117956
41,20,5,ISIP_5,273,1,48,66,66129676
41,20,5,ISIP_5,274,1,48,100,66607500
41,20,5,ISIP_5,275,1,38,20,66617356
41,20,5,ISIP_5,276,1,48,63,66629520
41,20,5,ISIP_5,277,1,48,93,67138760
41,20,5,ISIP_5,278,1,48,94,67633512
41,20,5,ISIP_5,279,1,38,20,67643964
41,20,5,ISIP_5,280,1,48,94,68140040
41,20,5,ISIP_5,281,1,38,20,68149964
41,20,5,ISIP_5,282,1,48,57,68163256
41,20,5,ISIP_5,283,1,48,98,68650280
41,20,5,ISIP_5,284,1,38,21,68660132
41,20,5,ISIP_5,285,1,48,58,68673948
41,20,5,ISIP_5,286,1,48,95,69178400
41,20,5,ISIP_5,287,1,48,59,69204700
41,20,5,ISIP_5,288,1,48,107,69696016
41,20,5,ISIP_5,289,1,38,21,69706392
41,20,5,ISIP_5,290,1,48,100,70181448
41,20,5,ISIP_5,291,1,48,60,70204236
41,20,5,ISIP_5,292,1,48,115,70702364
41,20,5,ISIP_5,293,1,38,22,70712516
41,20,5,ISIP_5,294,1,48,70,70723640
41,20,5,ISIP_5,295,1,48,106,71229660
41,20,5,ISIP_5,296,1,48,64,71252600
41,20,5,ISIP_5,297,1,48,92,71736512
41,20,5,ISIP_5,298,1,48,60,71761320
41,20,5,ISIP_5,299,1,48,94,72243436
41,20,5,ISIP_5,300,1,48,60,72268544
41,20,5,ISIP_5,301,1,48,86,72744376
41,20,5,ISIP_5,302,1,48,56,72769036
41,20,5,ISIP_5,303,1,48,87,73263192
41,20,5,ISIP_5,304,1,38,20,73273192
41,20,5,ISIP_5,305,1,48,54,73287456
41,20,5,ISIP_5,306,1,48,87,73772684
41,20,5,ISIP_5,307,1,48,61,73794580
41,20,5,ISIP_5,308,1,48,83,74275420
41,20,5,ISIP_5,309,1,48,56,74300532
41,20,5,ISIP_5,310,1,48,97,74789300
41,20,5,ISIP_5,311,1,48,56,74815532
41,20,5,ISIP_5,312,1,48,87,75284476
41,20,5,ISIP_5,313,1,48,100,75797636
41,20,5,ISIP_5,314,1,38,20,75808016
41,20,5,ISIP_5,315,1,48,61,75822428
41,20,5,ISIP_5,316,1,48,92,76294268
41,20,5,ISIP_5,317,1,48,57,76319600
41,20,5,ISIP_5,318,1,48,99,76816296
41,20,5,ISIP_5,319,1,48,63,76841484
41,20,5,ISIP_5,320,1,48,98,77322552
41,20,5,ISIP_5,321,1,48,64,77347732
41,20,5,ISIP_5,322,1,48,111,77843984
41,20,5,ISIP_5,323,1,48,61,77869620
41,20,5,ISIP_5,324,1,48,111,78336476
41,20,5,ISIP_5,325,1,48,65,78360536
41,20,5,ISIP_5,326,1,48,104,78851476
41,20,5,ISIP_5,327,1,48,111,79369272
41,20,5,ISIP_5,328,1,48,63,79395128
41,20,5,ISIP_5,329,1,48,108,79905892
41,20,5,ISIP_5,330,1,48,58,79930628
41,20,5,ISIP_5,331,1,48,98,80401964
41,20,5,ISIP_5,332,1,48,56,80427748
41,20,5,ISIP_5,333,1,48,97,80899016
41,20,5,ISIP_5,334,1,48,63,80924348
41,20,5,ISIP_5,335,1,48,108,81439376
41,20,5,ISIP_5,336,1,48,60,81462556
41,20,5,ISIP_5,337,1,48,90,81931936
41,20,5,ISIP_5,338,1,48,64,81953912
41,20,5,ISIP_5,339,1,48,98,82441632
41,20,5,ISIP_5,340,1,48,55,82467352
41,20,5,ISIP_5,341,1,48,97,82923948
41,20,5,ISIP_5,342,1,38,20,82934400
41,20,5,ISIP_5,343,1,48,95,83444308
41,20,5,ISIP_5,344,1,48,63,83465916
41,20,5,ISIP_5,345,1,48,97,83953104
41,20,5,ISIP_5,346,1,48,105,84438508
41,20,5,ISIP_5,347,1,48,66,84460644
41,20,5,ISIP_5,348,1,48,123,84930444
41,20,5,ISIP_5,349,1,48,67,84956104
41,20,5,ISIP_5,350,1,48,105,85448892
41,20,5,ISIP_5,351,1,48,65,85473140
41,20,5,ISIP_5,352,1,48,109,85969392
41,20,5,ISIP_5,353,1,48,61,85997192
41,20,5,ISIP_5,354,1,48,88,86465896
41,20,5,ISIP_5,355,1,38,19,86476308
41,20,5,ISIP_5,356,1,48,58,86488780
41,20,5,ISIP_5,357,1,48,97,86978620
41,20,5,ISIP_5,358,1,48,109,87469856
41,20,5,ISIP_5,359,1,48,67,87494588
41,20,5,ISIP_5,360,1,48,111,87979104
41,20,5,ISIP_5,361,1,38,21,87989480
41,20,5,ISIP_5,362,1,48,62,88000676
41,20,5,ISIP_5,363,1,48,92,88467272
41,20,5,ISIP_5,364,1,48,58,88489024
41,20,5,ISIP_5,365,1,48,93,88985192
41,20,5,ISIP_5,366,1,48,99,89486904
41,20,5,ISIP_5,367,1,48,61,89509544
41,20,5,ISIP_5,368,1,48,105,89988888
41,20,5,ISIP_5,369,1,48,58,90015048
41,20,5,ISIP_5,370,1,48,51,90035968
41,20,5,ISIP_5,371,1,48,104,90484052
41,20,5,ISIP_5,372,1,48,64,90510732
41,20,5,ISIP_5,373,1,48,52,90532324
41,20,5,ISIP_5,374,1,48,101,90987060
41,20,5,ISIP_5,375,1,48,65,91009480
41,20,5,ISIP_5,376,1,48,102,91486128
41,20,5,ISIP_5,377,1,48,65,91510044
41,20,5,ISIP_5,0,9999,9999,9999,11956328
41,20,5,ISIP_5,1,9999,9999,9999,12456044
41,20,5,ISIP_5,2,9999,9999,9999,12956732
41,20,5,ISIP_5,3,9999,9999,9999,13456480
41,20,5,ISIP_5,4,9999,9999,9999,13956152
41,20,5,ISIP_5,5,9999,9999,9999,14455880
41,20,5,ISIP_5,6,9999,9999,9999,14956652
41,20,5,ISIP_5,7,9999,9999,9999,15456360
41,20,5,ISIP_5,8,9999,9999,9999,15956020
41,20,5,ISIP_5,9,9999,9999,9999,16456764
41,20,5,ISIP_5,10,9999,9999,9999,16956488
41,20,5,ISIP_5,11,9999,9999,9999,17456216
41,20,5,ISIP_5,12,9999,9999,9999,17955960
41,20,5,ISIP_5,13,9999,9999,9999,18456680
41,20,5,ISIP_5,14,9999,9999,9999,18956348
41,20,5,ISIP_5,15,9999,9999,9999,19456096
41,20,5,ISIP_5,16,9999,9999,9999,19955832
41,20,5,ISIP_5,17,9999,9999,9999,20456500
41,20,5,ISIP_5,18,9999,9999,9999,20956220
41,20,5,ISIP_5,19,9999,9999,9999,21455944
41,20,5,ISIP_5,20,9999,9999,9999,21956664
41,20,5,ISIP_5,21,9999,9999,9999,22456440
41,20,5,ISIP_5,22,9999,9999,9999,22956152
41,20,5,ISIP_5,23,9999,9999,9999,23455848
41,20,5,ISIP_5,24,9999,9999,9999,23956564
41,20,5,ISIP_5,25,9999,9999,9999,24456260
41,20,5,ISIP_5,26,9999,9999,9999,24955976
41,20,5,ISIP_5,27,9999,9999,9999,25456696
41,20,5,ISIP_5,28,9999,9999,9999,25956472
41,20,5,ISIP_5,29,9999,9999,9999,26456172
41,20,5,ISIP_5,30,9999,9999,9999,26955828
41,20,5,ISIP_5,31,9999,9999,9999,27456580
41,20,5,ISIP_5,32,9999,9999,9999,27956328
41,20,5,ISIP_5,33,9999,9999,9999,28456052
41,20,5,ISIP_5,34,9999,9999,9999,28956756
41,20,5,ISIP_5,35,9999,9999,9999,29456504
41,20,5,ISIP_5,36,9999,9999,9999,29956152
41,20,5,ISIP_5,37,9999,9999,9999,30455928
41,20,5,ISIP_5,38,9999,9999,9999,30956648
41,20,5,ISIP_5,39,9999,9999,9999,31456320
41,20,5,ISIP_5,40,9999,9999,9999,31956068
41,20,5,ISIP_5,41,9999,9999,9999,32456756
41,20,5,ISIP_5,42,9999,9999,9999,32956528
41,20,5,ISIP_5,43,9999,9999,9999,33456224
41,20,5,ISIP_5,44,9999,9999,9999,33955920
41,20,5,ISIP_5,45,9999,9999,9999,34456664
41,20,5,ISIP_5,46,9999,9999,9999,34956360
41,20,5,ISIP_5,47,9999,9999,9999,35456060
41,20,5,ISIP_5,48,9999,9999,9999,35955832
41,20,5,ISIP_5,49,9999,9999,9999,36456500
41,20,5,ISIP_5,50,9999,9999,9999,36956272
41,20,5,ISIP_5,51,9999,9999,9999,37455940
41,20,5,ISIP_5,52,9999,9999,9999,37956656
41,20,5,ISIP_5,53,9999,9999,9999,38456428
41,20,5,ISIP_5,54,9999,9999,9999,38956128
41,20,5,ISIP_5,55,9999,9999,9999,39455820
41,20,5,ISIP_5,56,9999,9999,9999,39956588
41,20,5,ISIP_5,57,9999,9999,9999,40456284
41,20,5,ISIP_5,58,9999,9999,9999,40956000
41,20,5,ISIP_5,59,9999,9999,9999,41456744
41,20,5,ISIP_5,60,9999,9999,9999,41956460
41,20,5,ISIP_5,61,9999,9999,9999,42456132
41,20,5,ISIP_5,62,9999,9999,9999,42955876
41,20,5,ISIP_5,63,9999,9999,9999,43456568
41,20,5,ISIP_5,64,9999,9999,9999,43956276
41,20,5,ISIP_5,65,9999,9999,9999,44456048
41,20,5,ISIP_5,66,9999,9999,9999,44956760
41,20,5,ISIP_5,67,9999,9999,9999,45456452
41,20,5,ISIP_5,68,9999,9999,9999,45956216
41,20,5,ISIP_5,69,9999,9999,9999,46455908
41,20,5,ISIP_5,70,9999,9999,9999,46956600
41,20,5,ISIP_5,71,9999,9999,9999,47456372
41,20,5,ISIP_5,72,9999,9999,9999,47956040
41,20,5,ISIP_5,73,9999,9999,9999,48456776
41,20,5,ISIP_5,74,9999,9999,9999,48956468
41,20,5,ISIP_5,75,9999,9999,9999,49456184
41,20,5,ISIP_5,76,9999,9999,9999,49955956
41,20,5,ISIP_5,77,9999,9999,9999,50456692
41,20,5,ISIP_5,78,9999,9999,9999,50956376
41,20,5,ISIP_5,79,9999,9999,9999,51456120
41,20,5,ISIP_5,80,9999,9999,9999,51955788
41,20,5,ISIP_5,81,9999,9999,9999,52456528
41,20,5,ISIP_5,82,9999,9999,9999,52956268
41,20,5,ISIP_5,83,9999,9999,9999,53455940
41,20,5,ISIP_5,84,9999,9999,9999,53956684
41,20,5,ISIP_5,85,9999,9999,9999,54456400
41,20,5,ISIP_5,86,9999,9999,9999,54956144
41,20,5,ISIP_5,87,9999,9999,9999,55455812
41,20,5,ISIP_5,88,9999,9999,9999,55956584
41,20,5,ISIP_5,89,9999,9999,9999,56456252
41,20,5,ISIP_5,90,9999,9999,9999,56955996
41,20,5,ISIP_5,91,9999,9999,9999,57456712
41,20,5,ISIP_5,92,9999,9999,9999,57956400
41,20,5,ISIP_5,93,9999,9999,9999,58456144
41,20,5,ISIP_5,94,9999,9999,9999,58955836
41,20,5,ISIP_5,95,9999,9999,9999,59456572
41,20,5,ISIP_5,96,9999,9999,9999,59956316
41,20,5,ISIP_5,97,9999,9999,9999,60456008
41,20,5,ISIP_5,98,9999,9999,9999,60956720
41,20,5,ISIP_5,99,9999,9999,9999,61456464
41,20,5,ISIP_5,100,9999,9999,9999,61956208
41,20,5,ISIP_5,101,9999,9999,9999,62455876
41,20,5,ISIP_5,102,9999,9999,9999,62956664
41,20,5,ISIP_5,103,9999,9999,9999,63456332
41,20,5,ISIP_5,104,9999,9999,9999,63956076
41,20,5,ISIP_5,105,9999,9999,9999,64456768
41,20,5,ISIP_5,106,9999,9999,9999,64956512
41,20,5,ISIP_5,107,9999,9999,9999,65456180
41,20,5,ISIP_5,108,9999,9999,9999,65955924
41,20,5,ISIP_5,109,9999,9999,9999,66456664
41,20,5,ISIP_5,110,9999,9999,9999,66956360
41,20,5,ISIP_5,111,9999,9999,9999,67456052
41,20,5,ISIP_5,112,9999,9999,9999,67955768
41,20,5,ISIP_5,113,9999,9999,9999,68456512
41,20,5,ISIP_5,114,9999,9999,9999,68956280
41,20,5,ISIP_5,115,9999,9999,9999,69455952
41,20,5,ISIP_5,116,9999,9999,9999,69956716
41,20,5,ISIP_5,117,9999,9999,9999,70456384
41,20,5,ISIP_5,118,9999,9999,9999,70956084
41,20,5,ISIP_5,119,9999,9999,9999,71455828
41,20,5,ISIP_5,120,9999,9999,9999,71956540
41,20,5,ISIP_5,121,9999,9999,9999,72456288
41,20,5,ISIP_5,122,9999,9999,9999,72955956
41,20,5,ISIP_5,123,9999,9999,9999,73456700
41,20,5,ISIP_5,124,9999,9999,9999,73956440
41,20,5,ISIP_5,125,9999,9999,9999,74456184
41,20,5,ISIP_5,126,9999,9999,9999,74955856
41,20,5,ISIP_5,127,9999,9999,9999,75456568
41,20,5,ISIP_5,128,9999,9999,9999,75956336
41,20,5,ISIP_5,129,9999,9999,9999,76456008
41,20,5,ISIP_5,130,9999,9999,9999,76956724
41,20,5,ISIP_5,131,9999,9999,9999,77456468
41,20,5,ISIP_5,132,9999,9999,9999,77956152
41,20,5,ISIP_5,133,9999,9999,9999,78455880
41,20,5,ISIP_5,134,9999,9999,9999,78956620
41,20,5,ISIP_5,135,9999,9999,9999,79456376
41,20,5,ISIP_5,136,9999,9999,9999,79956048
41,20,5,ISIP_5,137,9999,9999,9999,80456764
41,20,5,ISIP_5,138,9999,9999,9999,80956508
41,20,5,ISIP_5,139,9999,9999,9999,81456196
41,20,5,ISIP_5,140,9999,9999,9999,81955920
41,20,5,ISIP_5,141,9999,9999,9999,82456656
41,20,5,ISIP_5,142,9999,9999,9999,82956380
41,20,5,ISIP_5,143,9999,9999,9999,83456120
41,20,5,ISIP_5,144,9999,9999,9999,83955788
41,20,5,ISIP_5,145,9999,9999,9999,84456528
41,20,5,ISIP_5,146,9999,9999,9999,84956248
41,20,5,ISIP_5,147,9999,9999,9999,85455940
41,20,5,ISIP_5,148,9999,9999,9999,85956708
41,20,5,ISIP_5,149,9999,9999,9999,86456380
41,20,5,ISIP_5,150,9999,9999,9999,86956088
41,20,5,ISIP_5,151,9999,9999,9999,87455852
41,20,5,ISIP_5,152,9999,9999,9999,87956568
41,20,5,ISIP_5,153,9999,9999,9999,88456264
41,20,5,ISIP_5,154,9999,9999,9999,88956008
41,20,5,ISIP_5,155,9999,9999,9999,89456744
41,20,5,ISIP_5,156,9999,9999,9999,89956412
41,20,5,ISIP_5,157,9999,9999,9999,90456132
41,20,5,ISIP_5,158,9999,9999,9999,90955856
41,20,5,ISIP_5,159,9999,9999,9999,91456568
41,21,3,ISIP_8,0,5,42,127,115098004
41,21,3,ISIP_8,1,1,48,94,115651236
41,21,3,ISIP_8,2,1,48,51,115682876
41,21,3,ISIP_8,3,5,42,127,115897864
41,21,3,ISIP_8,4,1,48,110,116643280
41,21,3,ISIP_8,5,1,48,59,116680808
41,21,3,ISIP_8,6,5,42,127,116697668
41,21,3,ISIP_8,7,1,48,107,117438176
41,21,3,ISIP_8,8,1,48,57,117470720
41,21,3,ISIP_8,9,5,42,127,117497156
41,21,3,ISIP_8,10,1,48,116,118250252
41,21,3,ISIP_8,11,1,48,58,118285540
41,21,3,ISIP_8,12,5,42,127,118297836
41,21,3,ISIP_8,13,1,48,42,118314032
41,21,3,ISIP_8,14,1,48,96,119054436
41,21,3,ISIP_8,15,1,38,21,119063836
41,21,3,ISIP_8,16,1,48,56,119083412
41,21,3,ISIP_8,17,5,42,127,119097656
41,21,3,ISIP_8,18,1,48,94,119849756
41,21,3,ISIP_8,19,1,48,56,119880328
41,21,3,ISIP_8,20,5,42,127,119897564
41,21,3,ISIP_8,21,1,48,98,120660688
41,21,3,ISIP_8,22,1,38,21,120670620
41,21,3,ISIP_8,23,1,48,66,120685032
41,21,3,ISIP_8,24,5,42,127,120697260
41,21,3,ISIP_8,25,1,48,109,121432320
41,21,3,ISIP_8,26,1,48,66,121459224
41,21,3,ISIP_8,27,1,48,48,121485980
41,21,3,ISIP_8,28,5,42,127,121497908
41,21,3,ISIP_8,29,1,48,106,122224904
41,21,3,ISIP_8,30,1,48,51,122254424
41,21,3,ISIP_8,31,5,42,127,122297616
41,21,3,ISIP_8,32,1,48,102,123020428
41,21,3,ISIP_8,33,1,38,21,123030280
41,21,3,ISIP_8,34,1,48,51,123055764
41,21,3,ISIP_8,35,5,42,127,123097484
41,21,3,ISIP_8,36,1,48,103,123846344
41,21,3,ISIP_8,37,1,38,21,123856684
41,21,3,ISIP_8,38,1,48,47,123878280
41,21,3,ISIP_8,39,5,42,127,123897460
41,21,3,ISIP_8,40,1,48,96,124681800
41,21,3,ISIP_8,41,5,42,127,124697992
41,21,3,ISIP_8,42,1,48,35,124776492
41,21,3,ISIP_8,43,1,48,97,125478148
41,21,3,ISIP_8,44,5,42,127,125497704
41,21,3,ISIP_8,45,1,48,47,125512924
41,21,3,ISIP_8,46,1,48,97,126275312
41,21,3,ISIP_8,47,1,38,20,126285464
41,21,3,ISIP_8,48,5,42,127,126297468
41,21,3,ISIP_8,49,1,48,54,126301472
41,21,3,ISIP_8,50,5,42,127,127097460
41,21,3,ISIP_8,51,1,48,101,127098352
41,21,3,ISIP_8,52,1,48,46,127153440
41,21,3,ISIP_8,53,1,48,97,127878128
41,21,3,ISIP_8,54,1,38,19,127888512
41,21,3,ISIP_8,55,5,42,127,127898040
41,21,3,ISIP_8,56,1,48,52,127909820
41,21,3,ISIP_8,57,1,48,97,128695912
41,21,3,ISIP_8,58,5,42,127,128697576
41,21,3,ISIP_8,59,1,38,20,128706152
41,21,3,ISIP_8,60,1,48,47,128730396
41,21,3,ISIP_8,61,1,48,93,129457280
41,21,3,ISIP_8,62,1,38,20,129467204
41,21,3,ISIP_8,63,5,42,127,129497336
41,21,3,ISIP_8,64,1,48,101,130254896
41,21,3,ISIP_8,65,1,48,52,130285016
41,21,3,ISIP_8,66,5,42,127,130297240
41,21,3,ISIP_8,67,1,48,94,131020276
41,21,3,ISIP_8,68,1,38,20,131030132
41,21,3,ISIP_8,69,1,48,48,131054640
41,21,3,ISIP_8,70,5,42,127,131097904
41,21,3,ISIP_8,71,1,48,89,131858908
41,21,3,ISIP_8,72,1,38,19,131868764
41,21,3,ISIP_8,73,1,48,52,131887364
41,21,3,ISIP_8,74,5,42,127,131897644
41,21,3,ISIP_8,75,1,48,91,132644136
41,21,3,ISIP_8,76,1,38,20,132653984
41,21,3,ISIP_8,77,1,48,44,132684260
41,21,3,ISIP_8,78,5,42,127,132697456
41,21,3,ISIP_8,79,1,48,89,133456216
41,21,3,ISIP_8,80,1,38,20,133466144
41,21,3,ISIP_8,81,1,48,43,133490580
41,21,3,ISIP_8,82,5,42,127,133497048
41,21,3,ISIP_8,83,1,48,93,134231580
41,21,3,ISIP_8,84,1,38,20,134241588
41,21,3,ISIP_8,85,1,48,53,134263252
41,21,3,ISIP_8,86,5,42,127,134298144
41,21,3,ISIP_8,87,1,48,76,135025200
41,21,3,ISIP_8,88,1,48,47,135053900
41,21,3,ISIP_8,89,5,42,127,135097692
41,21,3,ISIP_8,90,1,48,85,135804044
41,21,3,ISIP_8,91,1,48,61,135828780
41,21,3,ISIP_8,92,5,42,127,135897576
41,21,3,ISIP_8,93,1,48,81,136651500
41,21,3,ISIP_8,94,1,38,19,136661356
41,21,3,ISIP_8,95,1,48,54,136677336
41,21,3,ISIP_8,96,5,42,127,136697048
41,21,3,ISIP_8,97,1,48,81,137457972
41,21,3,ISIP_8,98,1,48,47,137486820
41,21,3,ISIP_8,99,5,42,127,137497924
41,21,3,ISIP_8,100,1,48,76,138262768
41,21,3,ISIP_8,101,1,38,18,138272692
41,21,3,ISIP_8,102,5,42,127,138297712
41,21,3,ISIP_8,103,1,48,67,139014732
41,21,3,ISIP_8,104,1,48,74,139809976
41,21,3,ISIP_8,105,1,48,46,139839948
41,21,3,ISIP_8,106,1,48,69,140576548
41,21,3,ISIP_8,107,1,48,48,140603824
41,21,3,ISIP_8,108,1,48,80,141389048
41,21,3,ISIP_8,109,1,48,81,142170076
41,21,3,ISIP_8,110,1,48,52,142196236
41,21,3,ISIP_8,111,1,48,74,142968512
41,21,3,ISIP_8,112,1,38,18,142978516
41,21,3,ISIP_8,113,1,48,90,143739396
41,21,3,ISIP_8,114,1,48,54,143767272
41,21,3,ISIP_8,115,1,48,78,144558996
41,21,3,ISIP_8,116,1,48,49,144588472
41,21,3,ISIP_8,117,1,48,79,145331256
41,21,3,ISIP_8,118,1,48,75,146142232
41,21,3,ISIP_8,119,1,48,81,146859284
41,21,3,ISIP_8,120,1,48,81,147625428
41,21,3,ISIP_8,121,1,48,48,147654496
41,21,3,ISIP_8,122,1,48,84,148380008
41,21,3,ISIP_8,123,1,48,68,149162976
41,21,3,ISIP_8,124,1,48,81,149916556
41,21,3,ISIP_8,125,1,48,57,149943984
41,21,3,ISIP_8,126,1,48,74,150678488
41,21,3,ISIP_8,127,1,48,45,150708392
41,21,3,ISIP_8,128,1,48,86,151460252
41,21,3,ISIP_8,129,1,48,51,151486484
41,21,3,ISIP_8,130,1,48,80,152230632
41,21,3,ISIP_8,131,1,38,18,152241164
41,21,3,ISIP_8,132,1,48,80,152977588
41,21,3,ISIP_8,133,1,48,53,153001348
41,21,3,ISIP_8,134,1,48,79,153755296
41,21,3,ISIP_8,135,1,48,46,153784452
41,21,3,ISIP_8,136,1,48,81,154531592
41,21,3,ISIP_8,137,1,48,51,154560820
41,21,3,ISIP_8,138,1,48,85,155281488
41,21,3,ISIP_8,139,1,48,48,155311976
41,21,3,ISIP_8,140,1,48,70,156008492
41,21,3,ISIP_8,141,1,48,95,156812632
41,21,3,ISIP_8,142,1,48,57,156838788
41,21,3,ISIP_8,143,1,48,72,157590648
41,21,3,ISIP_8,144,1,48,48,157617924
41,21,3,ISIP_8,145,1,48,81,158373900
41,21,3,ISIP_8,146,1,48,47,158404992
41,21,3,ISIP_8,147,1,48,80,159122368
41,21,3,ISIP_8,148,1,38,18,159132224
41,21,3,ISIP_8,149,1,48,54,159147312
41,21,3,ISIP_8,150,1,48,83,159896896
41,21,3,ISIP_8,151,1,48,50,159925672
41,21,3,ISIP_8,152,1,48,79,160665100
41,21,3,ISIP_8,153,1,48,48,160693428
41,21,3,ISIP_8,154,1,48,93,161426060
41,21,3,ISIP_8,155,1,38,20,161435992
41,21,3,ISIP_8,156,1,48,54,161453020
41,21,3,ISIP_8,157,1,48,82,162180324
41,21,3,ISIP_8,158,1,48,58,162205432
41,21,3,ISIP_8,159,1,48,74,162954524
41,21,3,ISIP_8,160,1,48,50,162981280
41,21,3,ISIP_8,161,1,48,73,163708008
41,21,3,ISIP_8,162,1,48,66,164506236
41,21,3,ISIP_8,163,1,48,79,165229448
41,21,3,ISIP_8,164,1,48,59,165253660
41,21,3,ISIP_8,165,1,48,78,165998488
41,21,3,ISIP_8,166,1,38,18,166008420
41,21,3,ISIP_8,167,1,48,56,166024924
41,21,3,ISIP_8,168,1,48,79,166750800
41,21,3,ISIP_8,169,1,48,58,166775460
41,21,3,ISIP_8,170,1,48,82,167513484
41,21,3,ISIP_8,171,1,48,51,167539636
41,21,3,ISIP_8,172,1,48,78,168254772
41,21,3,ISIP_8,173,1,48,56,168281156
41,21,3,ISIP_8,174,1,48,75,169046028
41,21,3,ISIP_8,175,1,48,47,169077948
41,21,3,ISIP_8,176,1,48,74,169810728
41,21,3,ISIP_8,177,1,48,48,169838452
41,21,3,ISIP_8,178,1,48,74,170629056
41,21,3,ISIP_8,179,1,48,77,171341124
41,21,3,ISIP_8,180,1,48,86,172099340
41,21,3,ISIP_8,181,1,48,54,172128040
41,21,3,ISIP_8,182,1,48,79,172828888
41,21,3,ISIP_8,183,1,48,55,172851976
41,21,3,ISIP_8,184,1,48,64,173565096
41,21,3,ISIP_8,185,1,48,48,173589228
41,21,3,ISIP_8,186,1,48,70,174285276
41,21,3,ISIP_8,187,1,48,51,174311448
41,21,3,ISIP_8,188,1,48,96,175035288
41,21,3,ISIP_8,189,1,48,65,175060280
41,21,3,ISIP_8,190,1,48,72,175832852
41,21,3,ISIP_8,191,1,48,76,176608352
41,21,3,ISIP_8,192,1,48,46,176639072
41,21,3,ISIP_8,193,1,48,88,177376716
41,21,3,ISIP_8,194,1,48,61,177404592
41,21,3,ISIP_8,195,1,48,88,178158700
41,21,3,ISIP_8,196,1,48,56,178188672
41,21,3,ISIP_8,197,1,48,82,178900512
41,21,3,ISIP_8,198,1,48,59,178925244
41,21,3,ISIP_8,199,1,48,73,179673736
41,21,3,ISIP_8,200,1,48,84,180416600
41,21,3,ISIP_8,201,1,48,57,180446140
41,21,3,ISIP_8,202,1,48,83,181167012
41,21,3,ISIP_8,203,1,48,53,181195892
41,21,3,ISIP_8,204,1,48,70,181877036
41,21,3,ISIP_8,205,1,48,52,181901096
41,21,3,ISIP_8,206,1,48,74,182690504
41,21,3,ISIP_8,207,1,48,85,183447224
41,21,3,ISIP_8,208,1,48,56,183476000
41,21,3,ISIP_8,209,1,48,72,184211556
41,21,3,ISIP_8,210,1,38,17,184221932
41,21,3,ISIP_8,211,1,48,84,184957900
41,21,3,ISIP_8,212,1,48,60,184985636
41,21,3,ISIP_8,213,1,48,68,185719992
41,21,3,ISIP_8,214,1,48,48,185751008
41,21,3,ISIP_8,215,1,48,73,186468388
41,21,3,ISIP_8,216,1,48,55,186495884
41,21,3,ISIP_8,217,1,48,62,187239596
41,21,3,ISIP_8,218,1,48,48,187266796
41,21,3,ISIP_8,219,1,48,84,188015288
41,21,3,ISIP_8,220,1,48,57,188043320
41,21,3,ISIP_8,221,1,48,47,188066336
41,21,3,ISIP_8,222,1,48,81,188774736
41,21,3,ISIP_8,223,1,48,51,188806124
41,21,3,ISIP_8,224,1,48,85,189555896
41,21,3,ISIP_8,225,1,48,62,189580628
41,21,3,ISIP_8,226,1,48,78,190350588
41,21,3,ISIP_8,227,1,48,51,190376740
41,21,3,ISIP_8,228,1,48,76,191108560
41,21,3,ISIP_8,229,1,48,56,191134188
41,21,3,ISIP_8,230,1,48,74,191868904
41,21,3,ISIP_8,231,1,48,50,191899264
41,21,3,ISIP_8,232,1,48,69,192624404
41,21,3,ISIP_8,233,1,48,51,192648552
41,21,3,ISIP_8,234,1,48,68,193395020
41,21,3,ISIP_8,235,1,48,49,193424396
41,21,3,ISIP_8,236,1,48,78,194181488
41,21,3,ISIP_8,237,1,48,53,194207272
41,21,3,ISIP_8,238,1,48,84,194959204
41,21,3,ISIP_8,239,1,48,59,194988504
41,21,3,ISIP_8,240,1,48,81,195735200
41,21,3,ISIP_8,241,1,48,59,195759488
41,21,3,ISIP_8,242,1,48,68,196516060
41,21,3,ISIP_8,243,1,48,50,196540644
41,21,3,ISIP_8,244,1,48,67,197250912
41,21,3,ISIP_8,245,1,48,52,197274976
41,21,3,ISIP_8,246,1,48,79,198016660
41,21,3,ISIP_8,247,1,48,54,198043268
41,21,3,ISIP_8,248,1,48,72,198753912
41,21,3,ISIP_8,249,1,48,51,198779472
41,21,3,ISIP_8,250,1,48,91,199554740
41,21,3,ISIP_8,251,1,48,65,199582392
41,21,3,ISIP_8,252,1,48,72,200357292
41,21,3,ISIP_8,253,1,48,54,200382552
41,21,3,ISIP_8,254,1,48,73,201127008
41,21,3,ISIP_8,255,1,48,54,201155180
41,21,3,ISIP_8,256,1,48,67,201871256
41,21,3,ISIP_8,257,1,48,52,201896972
41,21,3,ISIP_8,258,1,48,70,202670816
41,21,3,ISIP_8,259,1,48,47,202699764
41,21,3,ISIP_8,260,1,48,81,203418916
41,21,3,ISIP_8,261,1,48,59,203444476
41,21,3,ISIP_8,262,1,48,61,204246920
41,21,3,ISIP_8,263,1,48,80,205004388
41,21,3,ISIP_8,264,1,48,52,205032940
41,21,3,ISIP_8,265,1,48,43,205057676
41,21,3,ISIP_8,266,1,48,72,205796520
41,21,3,ISIP_8,267,1,48,55,205825892
41,21,3,ISIP_8,268,1,48,80,206588820
41,21,3,ISIP_8,269,1,48,63,206616024
41,21,3,ISIP_8,270,1,48,75,207340736
41,21,3,ISIP_8,271,1,48,55,207370628
41,21,3,ISIP_8,272,1,48,70,208115380
41,21,3,ISIP_8,273,1,48,93,208920648
41,21,3,ISIP_8,274,1,48,59,208950988
41,21,3,ISIP_8,275,1,48,102,209709656
41,21,3,ISIP_8,276,1,48,57,209738956
41,21,3,ISIP_8,277,1,48,48,209759800
41,21,3,ISIP_8,278,1,48,70,210483984
41,21,3,ISIP_8,279,1,48,48,210514928
41,21,3,ISIP_8,280,1,48,81,211256916
41,21,3,ISIP_8,281,1,48,57,211284716
41,21,3,ISIP_8,282,1,48,85,212056328
41,21,3,ISIP_8,283,1,48,61,212084500
41,21,3,ISIP_8,284,1,48,78,212834188
41,21,3,ISIP_8,285,1,38,18,212844192
41,21,3,ISIP_8,286,1,48,58,212861600
41,21,3,ISIP_8,287,1,48,72,213650532
41,21,3,ISIP_8,288,1,48,52,213676760
41,21,3,ISIP_8,289,1,48,75,214403412
41,21,3,ISIP_8,290,1,38,18,214413640
41,21,3,ISIP_8,291,1,48,54,214429548
41,21,3,ISIP_8,292,1,48,74,215180108
41,21,3,ISIP_8,293,1,48,59,215205292
41,21,3,ISIP_8,294,1,48,84,215935608
41,21,3,ISIP_8,295,1,48,63,215960724
41,21,3,ISIP_8,296,1,48,70,216741300
41,21,3,ISIP_8,297,1,48,103,217524196
41,21,3,ISIP_8,298,1,48,68,217549336
41,21,3,ISIP_8,299,1,48,50,217573476
41,21,3,ISIP_8,300,1,48,68,218303240
41,21,3,ISIP_8,301,1,48,53,218326952
41,21,3,ISIP_8,302,1,48,86,219068300
41,21,3,ISIP_8,303,1,48,58,219094560
41,21,3,ISIP_8,304,1,48,72,219862648
41,21,3,ISIP_8,305,1,48,52,219888208
41,21,3,ISIP_8,306,1,48,76,220626456
41,21,3,ISIP_8,307,1,48,54,220654860
41,21,3,ISIP_8,308,1,48,66,221441796
41,21,3,ISIP_8,309,1,48,47,221467956
41,21,3,ISIP_8,310,1,48,73,222219368
41,21,3,ISIP_8,311,1,48,56,222246568
41,21,3,ISIP_8,312,1,48,77,222987132
41,21,3,ISIP_8,313,1,48,58,223014416
41,21,3,ISIP_8,314,1,48,62,223743384
41,21,3,ISIP_8,315,1,48,46,223771636
41,21,3,ISIP_8,316,1,48,69,224532696
41,21,3,ISIP_8,317,1,48,54,224562520
41,21,3,ISIP_8,318,1,48,61,225298068
41,21,3,ISIP_8,319,1,48,48,225323776
41,21,3,ISIP_8,320,1,48,70,226108396
41,21,3,ISIP_8,321,1,48,70,226883292
41,21,3,ISIP_8,322,1,48,69,227669040
41,21,3,ISIP_8,323,1,48,54,227693700
41,21,3,ISIP_8,324,1,48,72,228424608
41,21,3,ISIP_8,325,1,48,53,228450920
41,21,3,ISIP_8,326,1,48,74,229197516
41,21,3,ISIP_8,327,1,48,52,229224872
41,21,3,ISIP_8,328,1,48,78,230002908
41,21,3,ISIP_8,329,1,48,71,230799344
41,21,3,ISIP_8,330,1,48,53,230827672
41,21,3,ISIP_8,331,1,48,83,231551036
41,21,3,ISIP_8,332,1,48,63,231576668
41,21,3,ISIP_8,333,1,48,65,232303988
41,21,3,ISIP_8,334,1,48,55,232332912
41,21,3,ISIP_8,335,1,48,74,233092328
41,21,3,ISIP_8,336,1,38,17,233102852
41,21,3,ISIP_8,337,1,48,57,233121380
41,21,3,ISIP_8,338,1,48,72,233875228
41,21,3,ISIP_8,339,1,48,58,233899816
41,21,3,ISIP_8,340,1,48,71,234678224
41,21,3,ISIP_8,341,1,38,18,234688080
41,21,3,ISIP_8,342,1,48,52,234704020
41,21,3,ISIP_8,0,9999,9999,9999,115095644
41,21,3,ISIP_8,1,9999,9999,9999,115895352
41,21,3,ISIP_8,2,9999,9999,9999,116695156
41,21,3,ISIP_8,3,9999,9999,9999,117494868
41,21,3,ISIP_8,4,9999,9999,9999,118295624
41,21,3,ISIP_8,5,9999,9999,9999,119095368
41,21,3,ISIP_8,6,9999,9999,9999,119895128
41,21,3,ISIP_8,7,9999,9999,9999,120694896
41,21,3,ISIP_8,8,9999,9999,9999,121495616
41,21,3,ISIP_8,9,9999,9999,9999,122295400
41,21,3,ISIP_8,10,9999,9999,9999,123095124
41,21,3,ISIP_8,11,9999,9999,9999,123894876
41,21,3,ISIP_8,12,9999,9999,9999,124695628
41,21,3,ISIP_8,13,9999,9999,9999,125495412
41,21,3,ISIP_8,14,9999,9999,9999,126295104
41,21,3,ISIP_8,15,9999,9999,9999,127094872
41,21,3,ISIP_8,16,9999,9999,9999,127895604
41,21,3,ISIP_8,17,9999,9999,9999,128695388
41,21,3,ISIP_8,18,9999,9999,9999,129495120
41,21,3,ISIP_8,19,9999,9999,9999,130294876
41,21,3,ISIP_8,20,9999,9999,9999,131095616
41,21,3,ISIP_8,21,9999,9999,9999,131895356
41,21,3,ISIP_8,22,9999,9999,9999,132695096
41,21,3,ISIP_8,23,9999,9999,9999,133494832
41,21,3,ISIP_8,24,9999,9999,9999,134295632
41,21,3,ISIP_8,25,9999,9999,9999,135095404
41,21,3,ISIP_8,26,9999,9999,9999,135895136
41,21,3,ISIP_8,27,9999,9999,9999,136694832
41,21,3,ISIP_8,28,9999,9999,9999,137495636
41,21,3,ISIP_8,29,9999,9999,9999,138295348
41,21,3,ISIP_8,30,9999,9999,9999,139095132
41,21,3,ISIP_8,31,9999,9999,9999,139894836
41,21,3,ISIP_8,32,9999,9999,9999,140695668
41,21,3,ISIP_8,33,9999,9999,9999,141495380
41,21,3,ISIP_8,34,9999,9999,9999,142295116
41,21,3,ISIP_8,35,9999,9999,9999,143094872
41,21,3,ISIP_8,36,9999,9999,9999,143895624
41,21,3,ISIP_8,37,9999,9999,9999,144695404
41,21,3,ISIP_8,38,9999,9999,9999,145495136
41,21,3,ISIP_8,39,9999,9999,9999,146294864
41,21,3,ISIP_8,40,9999,9999,9999,147095640
41,21,3,ISIP_8,41,9999,9999,9999,147895396
41,21,3,ISIP_8,42,9999,9999,9999,148695152
41,21,3,ISIP_8,43,9999,9999,9999,149494880
41,21,3,ISIP_8,44,9999,9999,9999,150295636
41,21,3,ISIP_8,45,9999,9999,9999,151095344
41,21,3,ISIP_8,46,9999,9999,9999,151895124
41,21,3,ISIP_8,47,9999,9999,9999,152694880
41,21,3,ISIP_8,48,9999,9999,9999,153495632
41,21,3,ISIP_8,49,9999,9999,9999,154295412
41,21,3,ISIP_8,50,9999,9999,9999,155095144
41,21,3,ISIP_8,51,9999,9999,9999,155894852
41,21,3,ISIP_8,52,9999,9999,9999,156695628
41,21,3,ISIP_8,53,9999,9999,9999,157495412
41,21,3,ISIP_8,54,9999,9999,9999,158295120
41,21,3,ISIP_8,55,9999,9999,9999,159094900
41,21,3,ISIP_8,56,9999,9999,9999,159895608
41,21,3,ISIP_8,57,9999,9999,9999,160695360
41,21,3,ISIP_8,58,9999,9999,9999,161495148
41,21,3,ISIP_8,59,9999,9999,9999,162294904
41,21,3,ISIP_8,60,9999,9999,9999,163095640
41,21,3,ISIP_8,61,9999,9999,9999,163895372
41,21,3,ISIP_8,62,9999,9999,9999,164695100
41,21,3,ISIP_8,63,9999,9999,9999,165494884
41,21,3,ISIP_8,64,9999,9999,9999,166295664
41,21,3,ISIP_8,65,9999,9999,9999,167095372
41,21,3,ISIP_8,66,9999,9999,9999,167895100
41,21,3,ISIP_8,67,9999,9999,9999,168694884
41,21,3,ISIP_8,68,9999,9999,9999,169495636
41,21,3,ISIP_8,69,9999,9999,9999,170295344
41,21,3,ISIP_8,70,9999,9999,9999,171095148
41,21,3,ISIP_8,71,9999,9999,9999,171894876
41,21,3,ISIP_8,72,9999,9999,9999,172695628
41,21,3,ISIP_8,73,9999,9999,9999,173495412
41,21,3,ISIP_8,74,9999,9999,9999,174295136
41,21,3,ISIP_8,75,9999,9999,9999,175094896
41,21,3,ISIP_8,76,9999,9999,9999,175895600
41,21,3,ISIP_8,77,9999,9999,9999,176695380
41,21,3,ISIP_8,78,9999,9999,9999,177495088
41,21,3,ISIP_8,79,9999,9999,9999,178294856
41,21,3,ISIP_8,80,9999,9999,9999,179095608
41,21,3,ISIP_8,81,9999,9999,9999,179895412
41,21,3,ISIP_8,82,9999,9999,9999,180695144
41,21,3,ISIP_8,83,9999,9999,9999,181494852
41,21,3,ISIP_8,84,9999,9999,9999,182295604
41,21,3,ISIP_8,85,9999,9999,9999,183095408
41,21,3,ISIP_8,86,9999,9999,9999,183895116
41,21,3,ISIP_8,87,9999,9999,9999,184694872
41,21,3,ISIP_8,88,9999,9999,9999,185495628
41,21,3,ISIP_8,89,9999,9999,9999,186295408
41,21,3,ISIP_8,90,9999,9999,9999,187095140
41,21,3,ISIP_8,91,9999,9999,9999,187894848
41,21,3,ISIP_8,92,9999,9999,9999,188695656
41,21,3,ISIP_8,93,9999,9999,9999,189495364
41,21,3,ISIP_8,94,9999,9999,9999,190295144
41,21,3,ISIP_8,95,9999,9999,9999,191094852
41,21,3,ISIP_8,96,9999,9999,9999,191895596
41,21,3,ISIP_8,97,9999,9999,9999,192695360
41,21,3,ISIP_8,98,9999,9999,9999,193495092
41,21,3,ISIP_8,99,9999,9999,9999,194294872
41,21,3,ISIP_8,100,9999,9999,9999,195095612
41,21,3,ISIP_8,101,9999,9999,9999,195895392
41,21,3,ISIP_8,102,9999,9999,9999,196695100
41,21,3,ISIP_8,103,9999,9999,9999,197494880
41,21,3,ISIP_8,104,9999,9999,9999,198295632
41,21,3,ISIP_8,105,9999,9999,9999,199095416
41,21,3,ISIP_8,106,9999,9999,9999,199895148
41,21,3,ISIP_8,107,9999,9999,9999,200694852
41,21,3,ISIP_8,108,9999,9999,9999,201495660
41,21,3,ISIP_8,109,9999,9999,9999,202295364
41,21,3,ISIP_8,110,9999,9999,9999,203095148
41,21,3,ISIP_8,111,9999,9999,9999,203894852
41,21,3,ISIP_8,112,9999,9999,9999,204695628
41,21,3,ISIP_8,113,9999,9999,9999,205495388
41,21,3,ISIP_8,114,9999,9999,9999,206295124
41,21,3,ISIP_8,115,9999,9999,9999,207094828
41,21,3,ISIP_8,116,9999,9999,9999,207895656
41,21,3,ISIP_8,117,9999,9999,9999,208695388
41,21,3,ISIP_8,118,9999,9999,9999,209495096
41,21,3,ISIP_8,119,9999,9999,9999,210294852
41,21,3,ISIP_8,120,9999,9999,9999,211095608
41,21,3,ISIP_8,121,9999,9999,9999,211895392
41,21,3,ISIP_8,122,9999,9999,9999,212695124
41,21,3,ISIP_8,123,9999,9999,9999,213494856
41,21,3,ISIP_8,124,9999,9999,9999,214295612
41,21,3,ISIP_8,125,9999,9999,9999,215095344
41,21,3,ISIP_8,126,9999,9999,9999,215895124
41,21,3,ISIP_8,127,9999,9999,9999,216694832
41,21,3,ISIP_8,128,9999,9999,9999,217495612
41,21,3,ISIP_8,129,9999,9999,9999,218295368
41,21,3,ISIP_8,130,9999,9999,9999,219095148
41,21,3,ISIP_8,131,9999,9999,9999,219894856
41,21,3,ISIP_8,132,9999,9999,9999,220695612
41,21,3,ISIP_8,133,9999,9999,9999,221495396
41,21,3,ISIP_8,134,9999,9999,9999,222295100
41,21,3,ISIP_8,135,9999,9999,9999,223094884
41,21,3,ISIP_8,136,9999,9999,9999,223895624
41,21,3,ISIP_8,137,9999,9999,9999,224695408
41,21,3,ISIP_8,138,9999,9999,9999,225495140
41,21,3,ISIP_8,139,9999,9999,9999,226294868
41,21,3,ISIP_8,140,9999,9999,9999,227095644
41,21,3,ISIP_8,141,9999,9999,9999,227895352
41,21,3,ISIP_8,142,9999,9999,9999,228695108
41,21,3,ISIP_8,143,9999,9999,9999,229494888
41,21,3,ISIP_8,144,9999,9999,9999,230295664
41,21,3,ISIP_8,145,9999,9999,9999,231095372
41,21,3,ISIP_8,146,9999,9999,9999,231895100
41,21,3,ISIP_8,147,9999,9999,9999,232694884
41,21,3,ISIP_8,148,9999,9999,9999,233495664
41,21,3,ISIP_8,149,9999,9999,9999,234295368
41,22,11,Pattern_Practice,0,5,42,127,333821380
41,22,11,Pattern_Practice,1,5,42,127,334322292
41,22,11,Pattern_Practice,2,5,42,127,334821708
41,22,11,Pattern_Practice,3,1,48,62,334873368
41,22,11,Pattern_Practice,4,1,38,66,334882176
41,22,11,Pattern_Practice,5,5,42,127,335321580
41,22,11,Pattern_Practice,6,1,38,63,335342276
41,22,11,Pattern_Practice,7,1,48,55,335349816
41,22,11,Pattern_Practice,8,5,42,127,335821300
41,22,11,Pattern_Practice,9,1,38,55,335828460
41,22,11,Pattern_Practice,10,1,48,51,336298644
41,22,11,Pattern_Practice,11,1,38,62,336317060
41,22,11,Pattern_Practice,12,5,42,127,336321880
41,22,11,Pattern_Practice,13,5,42,127,336821528
41,22,11,Pattern_Practice,14,1,38,60,336829836
41,22,11,Pattern_Practice,15,5,42,127,337321300
41,22,11,Pattern_Practice,16,1,48,50,337325984
41,22,11,Pattern_Practice,17,1,38,69,337336444
41,22,11,Pattern_Practice,18,1,38,28,337609524
41,22,11,Pattern_Practice,19,5,42,127,337822192
41,22,11,Pattern_Practice,20,1,48,49,337857352
41,22,11,Pattern_Practice,21,1,38,47,337859876
41,22,11,Pattern_Practice,22,1,48,39,338309684
41,22,11,Pattern_Practice,23,1,38,66,338312880
41,22,11,Pattern_Practice,24,5,42,127,338321740
41,22,11,Pattern_Practice,25,1,38,27,338530760
41,22,11,Pattern_Practice,26,1,38,57,338804372
41,22,11,Pattern_Practice,27,5,42,127,338821608
41,22,11,Pattern_Practice,28,1,48,52,339306012
41,22,11,Pattern_Practice,29,5,42,127,339321156
41,22,11,Pattern_Practice,30,1,38,86,339325024
41,22,11,Pattern_Practice,31,1,38,51,339584692
41,22,11,Pattern_Practice,32,5,42,127,339822068
41,22,11,Pattern_Practice,33,1,38,45,339863784
41,22,11,Pattern_Practice,34,1,38,44,340108304
41,22,11,Pattern_Practice,35,1,48,57,340319924
41,22,11,Pattern_Practice,36,5,42,127,340321660
41,22,11,Pattern_Practice,37,1,38,78,340346248
41,22,11,Pattern_Practice,38,1,38,48,340577192
41,22,11,Pattern_Practice,39,5,42,127,340821456
41,22,11,Pattern_Practice,40,1,38,49,340839536
41,22,11,Pattern_Practice,41,1,38,51,341086372
41,22,11,Pattern_Practice,42,1,48,31,341089640
41,22,11,Pattern_Practice,43,5,42,127,341322124
41,22,11,Pattern_Practice,44,1,48,52,341333024
41,22,11,Pattern_Practice,45,1,38,73,341341752
41,22,11,Pattern_Practice,46,1,38,47,341595272
41,22,11,Pattern_Practice,47,5,42,127,341822096
41,22,11,Pattern_Practice,48,1,48,48,341858200
41,22,11,Pattern_Practice,49,1,38,50,341858856
41,22,11,Pattern_Practice,50,1,38,48,342093248
41,22,11,Pattern_Practice,51,5,42,127,342321424
41,22,11,Pattern_Practice,52,1,48,42,342351924
41,22,11,Pattern_Practice,53,1,38,76,342357808
41,22,11,Pattern_Practice,54,1,38,57,342589136
41,22,11,Pattern_Practice,55,5,42,127,342821200
41,22,11,Pattern_Practice,56,1,38,54,342841000
41,22,11,Pattern_Practice,57,1,38,63,343090676
41,22,11,Pattern_Practice,58,5,42,127,343321920
41,22,11,Pattern_Practice,59,1,48,57,343361388
41,22,11,Pattern_Practice,60,1,38,89,343366836
41,22,11,Pattern_Practice,61,1,38,48,343590080
41,22,11,Pattern_Practice,62,5,42,127,343821544
41,22,11,Pattern_Practice,63,1,38,51,343840076
41,22,11,Pattern_Practice,64,1,38,53,344083844
41,22,11,Pattern_Practice,65,5,42,127,344321372
41,22,11,Pattern_Practice,66,1,48,53,344331144
41,22,11,Pattern_Practice,67,1,38,89,344341448
41,22,11,Pattern_Practice,68,1,38,55,344580628
41,22,11,Pattern_Practice,69,5,42,127,344822192
41,22,11,Pattern_Practice,70,1,38,63,344837804
41,22,11,Pattern_Practice,71,1,38,49,345074920
41,22,11,Pattern_Practice,72,1,48,48,345305296
41,22,11,Pattern_Practice,73,5,42,127,345322008
41,22,11,Pattern_Practice,74,1,38,72,345324832
41,22,11,Pattern_Practice,75,1,38,48,345558476
41,22,11,Pattern_Practice,76,5,42,127,345821508
41,22,11,Pattern_Practice,77,1,38,43,345831956
41,22,11,Pattern_Practice,78,1,38,52,346066896
41,22,11,Pattern_Practice,79,1,48,48,346284536
41,22,11,Pattern_Practice,80,5,42,127,346321172
41,22,11,Pattern_Practice,81,1,38,76,346335884
41,22,11,Pattern_Practice,82,1,38,44,346588228
41,22,11,Pattern_Practice,83,5,42,127,346822088
41,22,11,Pattern_Practice,84,1,38,55,346844504
41,22,11,Pattern_Practice,85,1,38,57,347073760
41,22,11,Pattern_Practice,86,1,48,45,347310848
41,22,11,Pattern_Practice,87,5,42,127,347321752
41,22,11,Pattern_Practice,88,1,38,87,347327340
41,22,11,Pattern_Practice,89,1,38,48,347565892
41,22,11,Pattern_Practice,90,1,38,52,347812280
41,22,11,Pattern_Practice,91,5,42,127,347821364
41,22,11,Pattern_Practice,92,1,38,59,348059432
41,22,11,Pattern_Practice,93,1,48,53,348294000
41,22,11,Pattern_Practice,94,5,42,127,348321260
41,22,11,Pattern_Practice,95,1,38,93,348333656
41,22,11,Pattern_Practice,96,1,38,54,348576572
41,22,11,Pattern_Practice,97,1,48,37,348579172
41,22,11,Pattern_Practice,98,5,42,127,348821832
41,22,11,Pattern_Practice,99,1,38,50,348841928
41,22,11,Pattern_Practice,100,1,38,57,349081884
41,22,11,Pattern_Practice,101,5,42,127,349321428
41,22,11,Pattern_Practice,102,1,48,73,349355512
41,22,11,Pattern_Practice,103,1,38,58,349363348
41,22,11,Pattern_Practice,104,1,48,19,349552112
41,22,11,Pattern_Practice,105,1,48,43,349812784
41,22,11,Pattern_Practice,106,5,42,127,349821196
41,22,11,Pattern_Practice,107,1,48,33,350071980
41,22,11,Pattern_Practice,108,1,38,92,350321316
41,22,11,Pattern_Practice,109,5,42,127,350324528
41,22,11,Pattern_Practice,110,1,48,110,350331616
41,22,11,Pattern_Practice,111,1,38,57,350349548
41,22,11,Pattern_Practice,112,1,48,34,350520956
41,22,11,Pattern_Practice,113,1,48,32,350772952
41,22,11,Pattern_Practice,114,5,42,127,350821604
41,22,11,Pattern_Practice,115,1,48,37,351038280
41,22,11,Pattern_Practice,116,5,42,127,351321656
41,22,11,Pattern_Practice,117,1,38,95,351324100
41,22,11,Pattern_Practice,118,1,48,89,351327076
41,22,11,Pattern_Practice,119,1,38,44,351365576
41,22,11,Pattern_Practice,120,1,48,55,351587400
41,22,11,Pattern_Practice,121,5,42,127,351821036
41,22,11,Pattern_Practice,122,1,48,45,352104748
41,22,11,Pattern_Practice,123,5,42,127,352321852
41,22,11,Pattern_Practice,124,1,38,77,352325564
41,22,11,Pattern_Practice,125,1,48,88,352342900
41,22,11,Pattern_Practice,126,1,38,42,352363748
41,22,11,Pattern_Practice,127,1,48,46,352554248
41,22,11,Pattern_Practice,128,1,48,52,352805348
41,22,11,Pattern_Practice,129,5,42,127,352821836
41,22,11,Pattern_Practice,130,1,48,56,353059828
41,22,11,Pattern_Practice,131,1,38,82,353312948
41,22,11,Pattern_Practice,132,5,42,127,353321432
41,22,11,Pattern_Practice,133,1,48,87,353334872
41,22,11,Pattern_Practice,134,1,38,49,353347944
41,22,11,Pattern_Practice,135,1,48,48,353576648
41,22,11,Pattern_Practice,136,5,42,127,353822104
41,22,11,Pattern_Practice,137,1,48,64,353832108
41,22,11,Pattern_Practice,138,1,48,55,354076248
41,22,11,Pattern_Practice,139,5,42,127,354321776
41,22,11,Pattern_Practice,140,1,38,67,354326620
41,22,11,Pattern_Practice,141,1,38,50,354353748
41,22,11,Pattern_Practice,142,1,38,25,354543584
41,22,11,Pattern_Practice,143,5,42,127,354821576
41,22,11,Pattern_Practice,144,1,48,69,354833372
41,22,11,Pattern_Practice,145,1,48,73,355074896
41,22,11,Pattern_Practice,146,1,38,65,355318820
41,22,11,Pattern_Practice,147,5,42,127,355321692
41,22,11,Pattern_Practice,148,1,38,49,355558792
41,22,11,Pattern_Practice,149,5,42,127,355821820
41,22,11,Pattern_Practice,150,1,38,30,355834512
41,22,11,Pattern_Practice,151,1,38,32,356062428
41,22,11,Pattern_Practice,152,5,42,127,356321644
41,22,11,Pattern_Practice,153,1,38,80,356322608
41,22,11,Pattern_Practice,154,1,38,42,356578556
41,22,11,Pattern_Practice,155,5,42,127,356821464
41,22,11,Pattern_Practice,156,1,38,35,356842908
41,22,11,Pattern_Practice,157,1,38,46,357081296
41,22,11,Pattern_Practice,158,5,42,127,357322184
41,22,11,Pattern_Practice,159,1,38,63,357340784
41,22,11,Pattern_Practice,160,1,38,37,357571988
41,22,11,Pattern_Practice,161,1,38,43,357816252
41,22,11,Pattern_Practice,162,5,42,127,357821752
41,22,11,Pattern_Practice,163,1,38,47,358063308
41,22,11,Pattern_Practice,164,5,42,127,358321480
41,22,11,Pattern_Practice,165,1,38,65,358323564
41,22,11,Pattern_Practice,166,1,38,46,358350036
41,22,11,Pattern_Practice,167,1,38,74,358355172
41,22,11,Pattern_Practice,168,1,38,52,358588696
41,22,11,Pattern_Practice,169,5,42,127,358821480
41,22,11,Pattern_Practice,170,1,38,48,358843924
41,22,11,Pattern_Practice,171,1,38,46,359070164
41,22,11,Pattern_Practice,172,1,38,71,359291496
41,22,11,Pattern_Practice,173,1,38,51,359316452
41,22,11,Pattern_Practice,174,5,42,127,359321876
41,22,11,Pattern_Practice,175,1,38,51,359587320
41,22,11,Pattern_Practice,176,5,42,127,359821632
41,22,11,Pattern_Practice,177,1,38,51,359845996
41,22,11,Pattern_Practice,178,1,38,49,360086620
41,22,11,Pattern_Practice,179,1,38,57,360320776
41,22,11,Pattern_Practice,180,5,42,127,360323464
41,22,11,Pattern_Practice,181,1,38,72,360339284
41,22,11,Pattern_Practice,182,1,38,46,360579464
41,22,11,Pattern_Practice,183,5,42,127,360822076
41,22,11,Pattern_Practice,184,1,38,54,360823940
41,22,11,Pattern_Practice,185,1,38,50,361067464
41,22,11,Pattern_Practice,186,1,38,59,361312656
41,22,11,Pattern_Practice,187,5,42,127,361321964
41,22,11,Pattern_Practice,188,1,48,94,361340716
41,22,11,Pattern_Practice,189,1,38,56,361567780
41,22,11,Pattern_Practice,190,5,42,127,361821464
41,22,11,Pattern_Practice,191,1,38,46,361832060
41,22,11,Pattern_Practice,192,1,38,57,362067748
41,22,11,Pattern_Practice,193,5,42,127,362321432
41,22,11,Pattern_Practice,194,1,38,53,362332260
41,22,11,Pattern_Practice,195,1,48,71,362338144
41,22,11,Pattern_Practice,196,1,38,53,362569620
41,22,11,Pattern_Practice,197,1,38,44,362801872
41,22,11,Pattern_Practice,198,5,42,127,362821952
41,22,11,Pattern_Practice,199,1,38,59,363048872
41,22,11,Pattern_Practice,200,1,38,62,363308056
41,22,11,Pattern_Practice,201,5,42,127,363321848
41,22,11,Pattern_Practice,202,1,48,86,363331472
41,22,11,Pattern_Practice,203,1,38,61,363587556
41,22,11,Pattern_Practice,204,5,42,127,363821492
41,22,11,Pattern_Practice,205,1,38,51,363825512
41,22,11,Pattern_Practice,206,1,38,60,364085588
41,22,11,Pattern_Practice,207,5,42,127,364321244
41,22,11,Pattern_Practice,208,1,38,60,364347028
41,22,11,Pattern_Practice,209,1,48,78,364368928
41,22,11,Pattern_Practice,210,1,38,59,364609900
41,22,11,Pattern_Practice,211,5,42,127,364821844
41,22,11,Pattern_Practice,212,1,38,53,364841788
41,22,11,Pattern_Practice,213,1,38,57,365075616
41,22,11,Pattern_Practice,214,5,42,127,365321516
41,22,11,Pattern_Practice,215,1,38,53,365323604
41,22,11,Pattern_Practice,216,1,48,75,365343252
41,22,11,Pattern_Practice,217,1,38,57,365599708
41,22,11,Pattern_Practice,218,5,42,127,365821380
41,22,11,Pattern_Practice,219,1,38,49,365832052
41,22,11,Pattern_Practice,220,1,38,54,366070508
41,22,11,Pattern_Practice,221,5,42,127,366322172
41,22,11,Pattern_Practice,222,1,38,57,366324692
41,22,11,Pattern_Practice,223,1,48,71,366332828
41,22,11,Pattern_Practice,224,1,38,55,366568116
41,22,11,Pattern_Practice,225,1,38,53,366813236
41,22,11,Pattern_Practice,226,5,42,127,366821720
41,22,11,Pattern_Practice,227,1,38,59,367043856
41,22,11,Pattern_Practice,228,1,38,55,367283340
41,22,11,Pattern_Practice,229,1,48,95,367300636
41,22,11,Pattern_Practice,230,5,42,127,367321388
41,22,11,Pattern_Practice,231,1,38,73,367576628
41,22,11,Pattern_Practice,232,1,38,49,367801996
41,22,11,Pattern_Practice,233,5,42,127,367821104
41,22,11,Pattern_Practice,234,1,38,61,368028404
41,22,11,Pattern_Practice,235,1,48,82,368284816
41,22,11,Pattern_Practice,236,1,38,19,368295268
41,22,11,Pattern_Practice,237,5,42,127,368321952
41,22,11,Pattern_Practice,238,1,48,50,368527204
41,22,11,Pattern_Practice,239,1,38,56,368675908
41,22,11,Pattern_Practice,240,1,48,59,368811864
41,22,11,Pattern_Practice,241,5,42,127,368821476
41,22,11,Pattern_Practice,242,1,48,53,369059372
41,22,11,Pattern_Practice,243,1,38,39,369310844
41,22,11,Pattern_Practice,244,5,42,127,369321272
41,22,11,Pattern_Practice,245,1,48,59,369785256
41,22,11,Pattern_Practice,246,5,42,127,369822236
41,22,11,Pattern_Practice,247,1,38,40,369882604
41,22,11,Pattern_Practice,248,1,48,80,370178108
41,22,11,Pattern_Practice,249,1,38,18,370188180
41,22,11,Pattern_Practice,250,5,42,127,370322060
41,22,11,Pattern_Practice,251,1,38,34,370448020
41,22,11,Pattern_Practice,252,5,42,127,370821532
41,22,11,Pattern_Practice,253,1,48,70,370907328
41,22,11,Pattern_Practice,254,1,38,51,370917176
41,22,11,Pattern_Practice,255,1,48,30,371102928
41,22,11,Pattern_Practice,256,5,42,127,371321156
41,22,11,Pattern_Practice,257,1,48,58,371368628
41,22,11,Pattern_Practice,258,1,38,33,371596692
41,22,11,Pattern_Practice,259,5,42,127,371822024
41,22,11,Pattern_Practice,260,1,48,70,372027648
41,22,11,Pattern_Practice,261,1,38,18,372037420
41,22,11,Pattern_Practice,262,1,38,44,372149944
41,22,11,Pattern_Practice,263,5,42,127,372321576
41,22,11,Pattern_Practice,264,1,48,68,372388872
41,22,11,Pattern_Practice,265,1,38,46,372657840
41,22,11,Pattern_Practice,266,5,42,127,372821396
41,22,11,Pattern_Practice,267,1,48,73,373083412
41,22,11,Pattern_Practice,268,1,38,17,373093788
41,22,11,Pattern_Practice,269,1,38,53,373234908
41,22,11,Pattern_Practice,270,5,42,127,373322080
41,22,11,Pattern_Practice,271,1,48,84,373518564
41,22,11,Pattern_Practice,272,1,38,19,373528564
41,22,11,Pattern_Practice,273,1,38,48,373791452
41,22,11,Pattern_Practice,0,9999,9999,9999,333818944
41,22,11,Pattern_Practice,1,9999,9999,9999,334319708
41,22,11,Pattern_Practice,2,9999,9999,9999,334819420
41,22,11,Pattern_Practice,3,9999,9999,9999,335319144
41,22,11,Pattern_Practice,4,9999,9999,9999,335818864
41,22,11,Pattern_Practice,5,9999,9999,9999,336319596
41,22,11,Pattern_Practice,6,9999,9999,9999,336819316
41,22,11,Pattern_Practice,7,9999,9999,9999,337319012
41,22,11,Pattern_Practice,8,9999,9999,9999,337819760
41,22,11,Pattern_Practice,9,9999,9999,9999,338319456
41,22,11,Pattern_Practice,10,9999,9999,9999,338819172
41,22,11,Pattern_Practice,11,9999,9999,9999,339318868
41,22,11,Pattern_Practice,12,9999,9999,9999,339819636
41,22,11,Pattern_Practice,13,9999,9999,9999,340319324
41,22,11,Pattern_Practice,14,9999,9999,9999,340819020
41,22,11,Pattern_Practice,15,9999,9999,9999,341319764
41,22,11,Pattern_Practice,16,9999,9999,9999,341819512
41,22,11,Pattern_Practice,17,9999,9999,9999,342319212
41,22,11,Pattern_Practice,18,9999,9999,9999,342818916
41,22,11,Pattern_Practice,19,9999,9999,9999,343319636
41,22,11,Pattern_Practice,20,9999,9999,9999,343819332
41,22,11,Pattern_Practice,21,9999,9999,9999,344319084
41,22,11,Pattern_Practice,22,9999,9999,9999,344819832
41,22,11,Pattern_Practice,23,9999,9999,9999,345319500
41,22,11,Pattern_Practice,24,9999,9999,9999,345819220
41,22,11,Pattern_Practice,25,9999,9999,9999,346318960
41,22,11,Pattern_Practice,26,9999,9999,9999,346819652
41,22,11,Pattern_Practice,27,9999,9999,9999,347319368
41,22,11,Pattern_Practice,28,9999,9999,9999,347819080
41,22,11,Pattern_Practice,29,9999,9999,9999,348318828
41,22,11,Pattern_Practice,30,9999,9999,9999,348819544
41,22,11,Pattern_Practice,31,9999,9999,9999,349319216
41,22,11,Pattern_Practice,32,9999,9999,9999,349818984
41,22,11,Pattern_Practice,33,9999,9999,9999,350319708
41,22,11,Pattern_Practice,34,9999,9999,9999,350819392
41,22,11,Pattern_Practice,35,9999,9999,9999,351319148
41,22,11,Pattern_Practice,36,9999,9999,9999,351818824
41,22,11,Pattern_Practice,37,9999,9999,9999,352319564
41,22,11,Pattern_Practice,38,9999,9999,9999,352819252
41,22,11,Pattern_Practice,39,9999,9999,9999,353318996
41,22,11,Pattern_Practice,40,9999,9999,9999,353819740
41,22,11,Pattern_Practice,41,9999,9999,9999,354319416
41,22,11,Pattern_Practice,42,9999,9999,9999,354819144
41,22,11,Pattern_Practice,43,9999,9999,9999,355318884
41,22,11,Pattern_Practice,44,9999,9999,9999,355819608
41,22,11,Pattern_Practice,45,9999,9999,9999,356319284
41,22,11,Pattern_Practice,46,9999,9999,9999,356819028
41,22,11,Pattern_Practice,47,9999,9999,9999,357319748
41,22,11,Pattern_Practice,48,9999,9999,9999,357819464
41,22,11,Pattern_Practice,49,9999,9999,9999,358319192
41,22,11,Pattern_Practice,50,9999,9999,9999,358818896
41,22,11,Pattern_Practice,51,9999,9999,9999,359319664
41,22,11,Pattern_Practice,52,9999,9999,9999,359819344
41,22,11,Pattern_Practice,53,9999,9999,9999,360319092
41,22,11,Pattern_Practice,54,9999,9999,9999,360819788
41,22,11,Pattern_Practice,55,9999,9999,9999,361319528
41,22,11,Pattern_Practice,56,9999,9999,9999,361819252
41,22,11,Pattern_Practice,57,9999,9999,9999,362318924
41,22,11,Pattern_Practice,58,9999,9999,9999,362819664
41,22,11,Pattern_Practice,59,9999,9999,9999,363319416
41,22,11,Pattern_Practice,60,9999,9999,9999,363819060
41,22,11,Pattern_Practice,61,9999,9999,9999,364318808
41,22,11,Pattern_Practice,62,9999,9999,9999,364819556
41,22,11,Pattern_Practice,63,9999,9999,9999,365319228
41,22,11,Pattern_Practice,64,9999,9999,9999,365818944
41,22,11,Pattern_Practice,65,9999,9999,9999,366319664
41,22,11,Pattern_Practice,66,9999,9999,9999,366819432
41,22,11,Pattern_Practice,67,9999,9999,9999,367319100
41,22,11,Pattern_Practice,68,9999,9999,9999,367818820
41,22,11,Pattern_Practice,69,9999,9999,9999,368319592
41,22,11,Pattern_Practice,70,9999,9999,9999,368819264
41,22,11,Pattern_Practice,71,9999,9999,9999,369318988
41,22,11,Pattern_Practice,72,9999,9999,9999,369819728
41,22,11,Pattern_Practice,73,9999,9999,9999,370319476
41,22,11,Pattern_Practice,74,9999,9999,9999,370819168
41,22,11,Pattern_Practice,75,9999,9999,9999,371318868
41,22,11,Pattern_Practice,76,9999,9999,9999,371819588
41,22,11,Pattern_Practice,77,9999,9999,9999,372319288
41,22,11,Pattern_Practice,78,9999,9999,9999,372819032
41,22,11,Pattern_Practice,79,9999,9999,9999,373319796
41,23,13,Improv_Metronome,0,5,42,127,400638352
41,23,13,Improv_Metronome,1,5,42,127,401139192
41,23,13,Improv_Metronome,2,5,42,127,401638908
41,23,13,Improv_Metronome,3,5,42,127,402138476
41,23,13,Improv_Metronome,4,5,42,127,402638268
41,23,13,Improv_Metronome,5,1,48,59,402661056
41,23,13,Improv_Metronome,6,1,38,81,402670460
41,23,13,Improv_Metronome,7,5,42,127,403139184
41,23,13,Improv_Metronome,8,1,38,59,403143572
41,23,13,Improv_Metronome,9,1,38,54,403383308
41,23,13,Improv_Metronome,10,5,42,127,403638932
41,23,13,Improv_Metronome,11,1,48,63,403642348
41,23,13,Improv_Metronome,12,1,38,87,403645624
41,23,13,Improv_Metronome,13,1,38,31,403891584
41,23,13,Improv_Metronome,14,5,42,127,404138236
41,23,13,Improv_Metronome,15,1,38,47,404353428
41,23,13,Improv_Metronome,16,1,48,62,404603476
41,23,13,Improv_Metronome,17,1,38,79,404606824
41,23,13,Improv_Metronome,18,5,42,127,404639096
41,23,13,Improv_Metronome,19,1,38,34,404857168
41,23,13,Improv_Metronome,20,1,38,27,405107368
41,23,13,Improv_Metronome,21,5,42,127,405138892
41,23,13,Improv_Metronome,22,1,38,51,405344348
41,23,13,Improv_Metronome,23,1,48,69,405609884
41,23,13,Improv_Metronome,24,1,48,78,405627660
41,23,13,Improv_Metronome,25,5,42,127,405638396
41,23,13,Improv_Metronome,26,1,38,54,405848340
41,23,13,Improv_Metronome,27,1,38,48,406121504
41,23,13,Improv_Metronome,28,5,42,127,406138292
41,23,13,Improv_Metronome,29,1,38,62,406341576
41,23,13,Improv_Metronome,30,1,38,121,406598888
41,23,13,Improv_Metronome,31,1,48,70,406602080
41,23,13,Improv_Metronome,32,1,48,52,406625696
41,23,13,Improv_Metronome,33,5,42,127,406638968
41,23,13,Improv_Metronome,34,1,38,54,406844108
41,23,13,Improv_Metronome,35,1,38,56,407102312
41,23,13,Improv_Metronome,36,5,42,127,407138848
41,23,13,Improv_Metronome,37,1,38,60,407334356
41,23,13,Improv_Metronome,38,1,48,71,407589196
41,23,13,Improv_Metronome,39,1,38,107,407598000
41,23,13,Improv_Metronome,40,5,42,127,407638428
41,23,13,Improv_Metronome,41,1,38,59,407851484
41,23,13,Improv_Metronome,42,1,38,57,408115304
41,23,13,Improv_Metronome,43,5,42,127,408139120
41,23,13,Improv_Metronome,44,1,38,57,408350040
41,23,13,Improv_Metronome,45,1,48,63,408592684
41,23,13,Improv_Metronome,46,1,38,98,408595204
41,23,13,Improv_Metronome,47,1,48,48,408616652
41,23,13,Improv_Metronome,48,5,42,127,408638752
41,23,13,Improv_Metronome,49,1,38,56,408850768
41,23,13,Improv_Metronome,50,1,38,53,409108748
41,23,13,Improv_Metronome,51,5,42,127,409138776
41,23,13,Improv_Metronome,52,1,38,59,409354556
41,23,13,Improv_Metronome,53,1,48,66,409595032
41,23,13,Improv_Metronome,54,1,38,95,409598380
41,23,13,Improv_Metronome,55,1,48,51,409620500
41,23,13,Improv_Metronome,56,5,42,127,409638256
41,23,13,Improv_Metronome,57,1,38,57,409854752
41,23,13,Improv_Metronome,58,1,38,51,410107052
41,23,13,Improv_Metronome,59,5,42,127,410139024
41,23,13,Improv_Metronome,60,1,38,61,410349196
41,23,13,Improv_Metronome,61,1,48,67,410613752
41,23,13,Improv_Metronome,62,1,38,59,410616356
41,23,13,Improv_Metronome,63,5,42,127,410638828
41,23,13,Improv_Metronome,64,1,48,41,410837008
41,23,13,Improv_Metronome,65,1,48,69,411082492
41,23,13,Improv_Metronome,66,5,42,127,411138476
41,23,13,Improv_Metronome,67,1,48,69,411317828
41,23,13,Improv_Metronome,68,1,38,86,411594884
41,23,13,Improv_Metronome,69,1,48,111,411599276
41,23,13,Improv_Metronome,70,1,38,54,411625880
41,23,13,Improv_Metronome,71,5,42,127,411638108
41,23,13,Improv_Metronome,72,1,48,51,411850792
41,23,13,Improv_Metronome,73,1,48,51,412104580
41,23,13,Improv_Metronome,74,5,42,127,412138952
41,23,13,Improv_Metronome,75,1,48,70,412344704
41,23,13,Improv_Metronome,76,1,38,96,412596148
41,23,13,Improv_Metronome,77,1,48,120,412606544
41,23,13,Improv_Metronome,78,1,38,62,412623796
41,23,13,Improv_Metronome,79,5,42,127,412638792
41,23,13,Improv_Metronome,80,1,48,48,412866284
41,23,13,Improv_Metronome,81,1,48,52,413106516
41,23,13,Improv_Metronome,82,5,42,127,413138436
41,23,13,Improv_Metronome,83,1,48,67,413355536
41,23,13,Improv_Metronome,84,1,38,100,413593848
41,23,13,Improv_Metronome,85,1,48,104,413610060
41,23,13,Improv_Metronome,86,1,38,57,413620880
41,23,13,Improv_Metronome,87,5,42,127,413639092
41,23,13,Improv_Metronome,88,1,48,55,413861400
41,23,13,Improv_Metronome,89,1,48,59,414088416
41,23,13,Improv_Metronome,90,5,42,127,414138660
41,23,13,Improv_Metronome,91,1,48,64,414368252
41,23,13,Improv_Metronome,92,1,38,101,414615836
41,23,13,Improv_Metronome,93,1,48,92,414631076
41,23,13,Improv_Metronome,94,5,42,127,414638588
41,23,13,Improv_Metronome,95,1,38,54,414644460
41,23,13,Improv_Metronome,96,1,48,62,414860948
41,23,13,Improv_Metronome,97,1,48,68,415103224
41,23,13,Improv_Metronome,98,5,42,127,415138112
41,23,13,Improv_Metronome,99,1,48,75,415366004
41,23,13,Improv_Metronome,100,1,38,70,415608800
41,23,13,Improv_Metronome,101,1,38,87,415623664
41,23,13,Improv_Metronome,102,5,42,127,415638808
41,23,13,Improv_Metronome,103,1,48,70,415889892
41,23,13,Improv_Metronome,104,1,48,56,416132388
41,23,13,Improv_Metronome,105,5,42,127,416138632
41,23,13,Improv_Metronome,106,1,38,99,416613232
41,23,13,Improv_Metronome,107,5,42,127,416638696
41,23,13,Improv_Metronome,108,1,48,42,417093628
41,23,13,Improv_Metronome,109,5,42,127,417138920
41,23,13,Improv_Metronome,110,1,38,63,417612028
41,23,13,Improv_Metronome,111,5,42,127,417638688
41,23,13,Improv_Metronome,112,1,38,33,417848632
41,23,13,Improv_Metronome,113,5,42,127,418138592
41,23,13,Improv_Metronome,114,1,38,53,418351244
41,23,13,Improv_Metronome,115,1,38,77,418603984
41,23,13,Improv_Metronome,116,5,42,127,418638352
41,23,13,Improv_Metronome,117,1,38,34,418674068
41,23,13,Improv_Metronome,118,1,38,50,418839444
41,23,13,Improv_Metronome,119,1,38,53,419090244
41,23,13,Improv_Metronome,120,5,42,127,419138828
41,23,13,Improv_Metronome,121,1,38,48,419337176
41,23,13,Improv_Metronome,122,1,38,114,419606752
41,23,13,Improv_Metronome,123,1,48,25,419617204
41,23,13,Improv_Metronome,124,5,42,127,419638628
41,23,13,Improv_Metronome,125,1,38,36,419843904
41,23,13,Improv_Metronome,126,1,38,46,420083336
41,23,13,Improv_Metronome,127,5,42,127,420138496
41,23,13,Improv_Metronome,128,1,38,62,420335652
41,23,13,Improv_Metronome,129,1,38,95,420617716
41,23,13,Improv_Metronome,130,1,48,24,420627572
41,23,13,Improv_Metronome,131,5,42,127,420639344
41,23,13,Improv_Metronome,132,1,38,53,420858464
41,23,13,Improv_Metronome,133,1,38,57,421095504
41,23,13,Improv_Metronome,134,5,42,127,421138768
41,23,13,Improv_Metronome,135,1,38,58,421355368
41,23,13,Improv_Metronome,136,1,38,77,421592632
41,23,13,Improv_Metronome,137,1,48,18,421602488
41,23,13,Improv_Metronome,138,1,38,84,421611592
41,23,13,Improv_Metronome,139,5,42,127,421638400
41,23,13,Improv_Metronome,140,1,38,52,421852656
41,23,13,Improv_Metronome,141,1,38,62,422090588
41,23,13,Improv_Metronome,142,5,42,127,422138344
41,23,13,Improv_Metronome,143,1,38,59,422352700
41,23,13,Improv_Metronome,144,1,38,73,422606120
41,23,13,Improv_Metronome,145,1,38,93,422616272
41,23,13,Improv_Metronome,146,5,42,127,422638968
41,23,13,Improv_Metronome,147,1,38,50,422835276
41,23,13,Improv_Metronome,148,1,38,59,423087320
41,23,13,Improv_Metronome,149,5,42,127,423138692
41,23,13,Improv_Metronome,150,1,38,61,423357012
41,23,13,Improv_Metronome,151,1,38,65,423599112
41,23,13,Improv_Metronome,152,1,48,116,423626952
41,23,13,Improv_Metronome,153,5,42,127,423638432
41,23,13,Improv_Metronome,154,1,38,73,423860392
41,23,13,Improv_Metronome,155,1,38,50,424113708
41,23,13,Improv_Metronome,156,5,42,127,424139196
41,23,13,Improv_Metronome,157,1,38,58,424354128
41,23,13,Improv_Metronome,158,1,48,103,424605004
41,23,13,Improv_Metronome,159,1,38,67,424608276
41,23,13,Improv_Metronome,160,5,42,127,424638700
41,23,13,Improv_Metronome,161,1,38,67,424838644
41,23,13,Improv_Metronome,162,1,38,60,425127068
41,23,13,Improv_Metronome,163,5,42,127,425138544
41,23,13,Improv_Metronome,164,1,38,59,425345720
41,23,13,Improv_Metronome,165,1,38,70,425605648
41,23,13,Improv_Metronome,166,1,48,70,425617448
41,23,13,Improv_Metronome,167,5,42,127,425638200
41,23,13,Improv_Metronome,168,1,38,61,425897408
41,23,13,Improv_Metronome,169,1,38,60,426118132
41,23,13,Improv_Metronome,170,5,42,127,426138964
41,23,13,Improv_Metronome,171,1,38,55,426360800
41,23,13,Improv_Metronome,172,1,48,86,426633740
41,23,13,Improv_Metronome,173,5,42,127,426638636
41,23,13,Improv_Metronome,174,1,48,49,426858976
41,23,13,Improv_Metronome,175,1,38,60,426982316
41,23,13,Improv_Metronome,176,1,48,67,427124412
41,23,13,Improv_Metronome,177,5,42,127,427138360
41,23,13,Improv_Metronome,178,1,48,52,427391016
41,23,13,Improv_Metronome,179,1,38,45,427604564
41,23,13,Improv_Metronome,180,5,42,127,427638032
41,23,13,Improv_Metronome,181,1,38,18,427690576
41,23,13,Improv_Metronome,182,1,48,85,428034748
41,23,13,Improv_Metronome,183,1,38,19,428044224
41,23,13,Improv_Metronome,184,5,42,127,428138792
41,23,13,Improv_Metronome,185,1,38,40,428191112
41,23,13,Improv_Metronome,186,1,48,105,428432712
41,23,13,Improv_Metronome,187,1,38,22,428442560
41,23,13,Improv_Metronome,188,1,48,72,428452120
41,23,13,Improv_Metronome,189,5,42,127,428638676
41,23,13,Improv_Metronome,190,1,38,56,428730684
41,23,13,Improv_Metronome,191,1,38,38,428764248
41,23,13,Improv_Metronome,192,1,48,86,429135096
41,23,13,Improv_Metronome,193,5,42,127,429138272
41,23,13,Improv_Metronome,194,1,38,21,429144976
41,23,13,Improv_Metronome,195,1,48,55,429159844
41,23,13,Improv_Metronome,196,1,38,69,429290188
41,23,13,Improv_Metronome,197,1,38,40,429328764
41,23,13,Improv_Metronome,198,1,48,98,429545752
41,23,13,Improv_Metronome,199,1,38,23,429555084
41,23,13,Improv_Metronome,200,1,48,69,429564636
41,23,13,Improv_Metronome,201,5,42,127,429639020
41,23,13,Improv_Metronome,202,1,38,68,429822904
41,23,13,Improv_Metronome,203,1,38,43,429862748
41,23,13,Improv_Metronome,204,5,42,127,430138724
41,23,13,Improv_Metronome,205,1,48,68,430218588
41,23,13,Improv_Metronome,206,1,38,17,430228212
41,23,13,Improv_Metronome,207,1,48,45,430248240
41,23,13,Improv_Metronome,208,1,38,59,430379708
41,23,13,Improv_Metronome,209,1,38,30,430474004
41,23,13,Improv_Metronome,210,1,48,86,430638004
41,23,13,Improv_Metronome,211,5,42,127,430639796
41,23,13,Improv_Metronome,212,1,38,19,430648148
41,23,13,Improv_Metronome,213,1,48,57,430664356
41,23,13,Improv_Metronome,214,1,38,51,430931140
41,23,13,Improv_Metronome,215,5,42,127,431138148
41,23,13,Improv_Metronome,216,1,48,80,431400992
41,23,13,Improv_Metronome,217,1,48,39,431442328
41,23,13,Improv_Metronome,218,1,38,54,431445004
41,23,13,Improv_Metronome,219,1,38,44,431472952
41,23,13,Improv_Metronome,220,1,48,22,431619308
41,23,13,Improv_Metronome,221,5,42,127,431639160
41,23,13,Improv_Metronome,222,1,48,82,431940136
41,23,13,Improv_Metronome,223,1,38,19,431950144
41,23,13,Improv_Metronome,224,1,38,52,431957080
41,23,13,Improv_Metronome,225,1,48,36,431987876
41,23,13,Improv_Metronome,226,1,48,16,432116052
41,23,13,Improv_Metronome,227,5,42,127,432138600
41,23,13,Improv_Metronome,228,1,48,89,432470008
41,23,13,Improv_Metronome,229,1,38,46,432473360
41,23,13,Improv_Metronome,230,5,42,127,432638168
41,23,13,Improv_Metronome,231,1,48,38,432718108
41,23,13,Improv_Metronome,232,1,48,94,432972944
41,23,13,Improv_Metronome,233,5,42,127,433139112
41,23,13,Improv_Metronome,234,1,48,49,433225784
41,23,13,Improv_Metronome,235,1,48,103,433486008
41,23,13,Improv_Metronome,236,1,38,61,433489276
41,23,13,Improv_Metronome,237,1,38,34,433554252
41,23,13,Improv_Metronome,238,5,42,127,433638892
41,23,13,Improv_Metronome,239,1,48,62,433734896
41,23,13,Improv_Metronome,240,1,48,66,433979416
41,23,13,Improv_Metronome,241,5,42,127,434138328
41,23,13,Improv_Metronome,242,1,48,74,434228056
41,23,13,Improv_Metronome,243,1,38,83,434473476
41,23,13,Improv_Metronome,244,1,48,116,434479516
41,23,13,Improv_Metronome,245,1,38,33,434527664
41,23,13,Improv_Metronome,246,5,42,127,434638092
41,23,13,Improv_Metronome,247,1,48,69,434725804
41,23,13,Improv_Metronome,248,1,48,73,434973316
41,23,13,Improv_Metronome,249,5,42,127,435139036
41,23,13,Improv_Metronome,250,1,48,70,435231688
41,23,13,Improv_Metronome,251,1,38,60,435477404
41,23,13,Improv_Metronome,252,1,48,121,435482772
41,23,13,Improv_Metronome,253,1,38,39,435514088
41,23,13,Improv_Metronome,254,5,42,127,435638716
41,23,13,Improv_Metronome,255,1,48,65,435726280
41,23,13,Improv_Metronome,256,1,48,68,435970428
41,23,13,Improv_Metronome,257,5,42,127,436138292
41,23,13,Improv_Metronome,258,1,48,70,436221840
41,23,13,Improv_Metronome,259,1,38,59,436464712
41,23,13,Improv_Metronome,260,1,48,82,436467836
41,23,13,Improv_Metronome,261,5,42,127,436639112
41,23,13,Improv_Metronome,262,1,48,64,436716832
41,23,13,Improv_Metronome,263,1,48,68,436968676
41,23,13,Improv_Metronome,264,5,42,127,437138784
41,23,13,Improv_Metronome,265,1,48,74,437242084
41,23,13,Improv_Metronome,266,1,38,69,437487648
41,23,13,Improv_Metronome,267,1,48,116,437512608
41,23,13,Improv_Metronome,268,1,38,48,437514532
41,23,13,Improv_Metronome,269,5,42,127,437638760
41,23,13,Improv_Metronome,270,1,48,56,437759860
41,23,13,Improv_Metronome,271,1,48,61,438015820
41,23,13,Improv_Metronome,272,5,42,127,438138212
41,23,13,Improv_Metronome,273,1,48,62,438279128
41,23,13,Improv_Metronome,274,1,38,76,438539360
41,23,13,Improv_Metronome,275,1,48,97,438552652
41,23,13,Improv_Metronome,276,1,38,43,438573792
41,23,13,Improv_Metronome,277,5,42,127,438638904
41,23,13,Improv_Metronome,278,1,48,53,438810000
41,23,13,Improv_Metronome,279,1,48,60,439060800
41,23,13,Improv_Metronome,280,5,42,127,439138848
41,23,13,Improv_Metronome,281,1,48,74,439322236
41,23,13,Improv_Metronome,282,1,38,81,439575880
41,23,13,Improv_Metronome,283,1,48,103,439593216
41,23,13,Improv_Metronome,284,5,42,127,439638276
41,23,13,Improv_Metronome,285,1,48,59,439860684
41,23,13,Improv_Metronome,286,1,48,62,440129432
41,23,13,Improv_Metronome,287,5,42,127,440138968
41,23,13,Improv_Metronome,288,1,48,70,440376440
41,23,13,Improv_Metronome,289,5,42,127,440638944
41,23,13,Improv_Metronome,290,1,38,67,440647076
41,23,13,Improv_Metronome,291,1,48,117,440662836
41,23,13,Improv_Metronome,292,1,38,47,440679944
41,23,13,Improv_Metronome,293,1,48,59,440927800
41,23,13,Improv_Metronome,294,5,42,127,441138624
41,23,13,Improv_Metronome,295,1,48,67,441178472
41,23,13,Improv_Metronome,296,1,48,65,441430764
41,23,13,Improv_Metronome,297,5,42,127,441638124
41,23,13,Improv_Metronome,298,1,38,64,441677740
41,23,13,Improv_Metronome,299,1,48,109,441691336
41,23,13,Improv_Metronome,300,1,38,46,441703732
41,23,13,Improv_Metronome,301,1,48,61,441910448
41,23,13,Improv_Metronome,302,5,42,127,442139072
41,23,13,Improv_Metronome,303,1,48,58,442156552
41,23,13,Improv_Metronome,304,1,48,61,442402192
41,23,13,Improv_Metronome,305,1,38,79,442638668
41,23,13,Improv_Metronome,306,5,42,127,442641052
41,23,13,Improv_Metronome,307,1,48,98,442667288
41,23,13,Improv_Metronome,308,1,48,67,442912000
41,23,13,Improv_Metronome,309,5,42,127,443138384
41,23,13,Improv_Metronome,310,1,48,67,443157056
41,23,13,Improv_Metronome,311,1,48,68,443387736
41,23,13,Improv_Metronome,312,5,42,127,443638056
41,23,13,Improv_Metronome,313,1,38,76,443640648
41,23,13,Improv_Metronome,314,1,48,76,443643692
41,23,13,Improv_Metronome,315,1,48,62,443892752
41,23,13,Improv_Metronome,316,5,42,127,444138952
41,23,13,Improv_Metronome,317,1,48,67,444146480
41,23,13,Improv_Metronome,318,1,48,77,444401096
41,23,13,Improv_Metronome,319,5,42,127,444638696
41,23,13,Improv_Metronome,320,1,38,49,444646152
41,23,13,Improv_Metronome,321,1,38,89,444666480
41,23,13,Improv_Metronome,322,1,48,19,444675660
41,23,13,Improv_Metronome,323,1,38,32,444871904
41,23,13,Improv_Metronome,324,1,38,49,445137848
41,23,13,Improv_Metronome,325,5,42,127,445140760
41,23,13,Improv_Metronome,326,1,38,45,445374412
41,23,13,Improv_Metronome,327,1,38,35,445630156
41,23,13,Improv_Metronome,328,1,38,75,445637332
41,23,13,Improv_Metronome,329,5,42,127,445639820
41,23,13,Improv_Metronome,330,1,38,35,445859164
41,23,13,Improv_Metronome,331,1,38,50,446112804
41,23,13,Improv_Metronome,332,5,42,127,446138816
41,23,13,Improv_Metronome,333,1,38,47,446362420
41,23,13,Improv_Metronome,334,5,42,127,446638320
41,23,13,Improv_Metronome,335,1,38,77,446641512
41,23,13,Improv_Metronome,336,1,38,42,446872488
41,23,13,Improv_Metronome,337,1,38,52,447118880
41,23,13,Improv_Metronome,338,5,42,127,447138284
41,23,13,Improv_Metronome,339,1,38,51,447361988
41,23,13,Improv_Metronome,340,1,38,55,447630216
41,23,13,Improv_Metronome,341,1,38,85,447635808
41,23,13,Improv_Metronome,342,5,42,127,447638908
41,23,13,Improv_Metronome,343,1,38,24,447869644
41,23,13,Improv_Metronome,344,1,38,49,448112668
41,23,13,Improv_Metronome,345,5,42,127,448138508
41,23,13,Improv_Metronome,346,1,38,52,448363860
41,23,13,Improv_Metronome,347,1,38,56,448622360
41,23,13,Improv_Metronome,348,1,48,77,448632216
41,23,13,Improv_Metronome,349,5,42,127,448638532
41,23,13,Improv_Metronome,350,1,38,64,448859816
41,23,13,Improv_Metronome,351,5,42,127,449139084
41,23,13,Improv_Metronome,352,1,38,51,449165308
41,23,13,Improv_Metronome,353,1,38,51,449363676
41,23,13,Improv_Metronome,354,1,38,50,449616052
41,23,13,Improv_Metronome,355,1,48,88,449625456
41,23,13,Improv_Metronome,356,5,42,127,449638652
41,23,13,Improv_Metronome,357,1,38,58,449893684
41,23,13,Improv_Metronome,358,1,38,47,450134088
41,23,13,Improv_Metronome,359,5,42,127,450138460
41,23,13,Improv_Metronome,360,1,38,48,450352444
41,23,13,Improv_Metronome,361,1,48,82,450628152
41,23,13,Improv_Metronome,362,1,38,46,450631348
41,23,13,Improv_Metronome,363,5,42,127,450638340
41,23,13,Improv_Metronome,364,1,38,59,450886928
41,23,13,Improv_Metronome,365,1,38,45,451129272
41,23,13,Improv_Metronome,366,5,42,127,451138880
41,23,13,Improv_Metronome,367,1,38,53,451352412
41,23,13,Improv_Metronome,368,1,38,57,451601720
41,23,13,Improv_Metronome,369,1,48,85,451622416
41,23,13,Improv_Metronome,370,5,42,127,451638760
41,23,13,Improv_Metronome,371,1,38,59,451884356
41,23,13,Improv_Metronome,372,1,38,49,452130068
41,23,13,Improv_Metronome,373,5,42,127,452138480
41,23,13,Improv_Metronome,374,1,38,57,452390608
41,23,13,Improv_Metronome,375,5,42,127,452639056
41,23,13,Improv_Metronome,376,1,38,85,452657056
41,23,13,Improv_Metronome,377,1,48,19,452667060
41,23,13,Improv_Metronome,378,1,38,22,452867420
41,23,13,Improv_Metronome,379,5,42,127,453138680
41,23,13,Improv_Metronome,380,1,38,77,453627808
41,23,13,Improv_Metronome,381,5,42,127,453638616
41,23,13,Improv_Metronome,382,1,38,17,453869500
41,23,13,Improv_Metronome,383,5,42,127,454138144
41,23,13,Improv_Metronome,384,1,38,86,454581424
41,23,13,Improv_Metronome,385,5,42,127,454638828
41,23,13,Improv_Metronome,386,1,38,36,454822564
41,23,13,Improv_Metronome,387,5,42,127,455138656
41,23,13,Improv_Metronome,388,1,38,79,455602504
41,23,13,Improv_Metronome,389,5,42,127,455638368
41,23,13,Improv_Metronome,390,1,38,20,455860504
41,23,13,Improv_Metronome,391,1,38,22,456106196
41,23,13,Improv_Metronome,392,5,42,127,456139088
41,23,13,Improv_Metronome,393,1,38,67,456628648
41,23,13,Improv_Metronome,394,5,42,127,456638784
41,23,13,Improv_Metronome,395,1,38,19,456719900
41,23,13,Improv_Metronome,396,1,38,27,456865656
41,23,13,Improv_Metronome,397,1,38,33,457139036
41,23,13,Improv_Metronome,398,5,42,127,457140748
41,23,13,Improv_Metronome,399,1,38,31,457384552
41,23,13,Improv_Metronome,400,5,42,127,457638388
41,23,13,Improv_Metronome,401,1,38,97,457657236
41,23,13,Improv_Metronome,402,5,42,127,458139276
41,23,13,Improv_Metronome,403,1,38,39,458229336
41,23,13,Improv_Metronome,404,5,42,127,458638600
41,23,13,Improv_Metronome,405,1,38,84,458703596
41,23,13,Improv_Metronome,406,1,48,20,458714576
41,23,13,Improv_Metronome,407,5,42,127,459138544
41,23,13,Improv_Metronome,408,1,38,58,459189336
41,23,13,Improv_Metronome,409,5,42,127,459638092
41,23,13,Improv_Metronome,410,1,38,62,459662224
41,23,13,Improv_Metronome,411,5,42,127,460139056
41,23,13,Improv_Metronome,412,1,38,73,460178000
41,23,13,Improv_Metronome,413,1,38,41,460218168
41,23,13,Improv_Metronome,414,5,42,127,460638576
41,23,13,Improv_Metronome,415,1,38,73,460664732
41,23,13,Improv_Metronome,416,5,42,127,461138348
41,23,13,Improv_Metronome,417,1,38,66,461147824
41,23,13,Improv_Metronome,418,1,38,43,461183776
41,23,13,Improv_Metronome,419,5,42,127,461639140
41,23,13,Improv_Metronome,420,1,38,68,461678988
41,23,13,Improv_Metronome,421,1,38,45,461712172
41,23,13,Improv_Metronome,422,5,42,127,462138664
41,23,13,Improv_Metronome,423,1,38,65,462161752
41,23,13,Improv_Metronome,424,1,38,50,462191572
41,23,13,Improv_Metronome,425,5,42,127,462638412
41,23,13,Improv_Metronome,426,1,38,82,462660756
41,23,13,Improv_Metronome,427,1,38,43,462702020
41,23,13,Improv_Metronome,428,5,42,127,463138236
41,23,13,Improv_Metronome,429,1,38,84,463167536
41,23,13,Improv_Metronome,430,1,38,51,463196236
41,23,13,Improv_Metronome,431,1,38,42,463222536
41,23,13,Improv_Metronome,432,5,42,127,463638856
41,23,13,Improv_Metronome,433,1,38,80,463673612
41,23,13,Improv_Metronome,434,1,38,20,463870632
41,23,13,Improv_Metronome,435,5,42,127,464138904
41,23,13,Improv_Metronome,436,1,38,83,464145836
41,23,13,Improv_Metronome,437,1,38,36,464363424
41,23,13,Improv_Metronome,438,1,38,64,464626868
41,23,13,Improv_Metronome,439,5,42,127,464638272
41,23,13,Improv_Metronome,440,1,38,63,465087964
41,23,13,Improv_Metronome,441,5,42,127,465139012
41,23,13,Improv_Metronome,442,1,38,47,465392788
41,23,13,Improv_Metronome,443,1,38,83,465620176
41,23,13,Improv_Metronome,444,5,42,127,465638760
41,23,13,Improv_Metronome,445,1,38,56,465647996
41,23,13,Improv_Metronome,446,1,48,46,466085416
41,23,13,Improv_Metronome,447,5,42,127,466138356
41,23,13,Improv_Metronome,448,1,38,59,466529084
41,23,13,Improv_Metronome,449,1,38,42,466566908
41,23,13,Improv_Metronome,450,1,48,80,466581400
41,23,13,Improv_Metronome,451,5,42,127,466638160
41,23,13,Improv_Metronome,452,1,48,63,467103508
41,23,13,Improv_Metronome,453,5,42,127,467138800
41,23,13,Improv_Metronome,454,1,48,48,467362628
41,23,13,Improv_Metronome,455,1,38,77,467597424
41,23,13,Improv_Metronome,456,1,48,90,467614756
41,23,13,Improv_Metronome,457,1,38,47,467633432
41,23,13,Improv_Metronome,458,5,42,127,467638924
41,23,13,Improv_Metronome,459,1,48,27,467870960
41,23,13,Improv_Metronome,460,5,42,127,468138404
41,23,13,Improv_Metronome,461,1,48,52,468356888
41,23,13,Improv_Metronome,462,1,38,73,468610532
41,23,13,Improv_Metronome,463,1,48,85,468630480
41,23,13,Improv_Metronome,464,1,38,47,468639700
41,23,13,Improv_Metronome,465,5,42,127,468641868
41,23,13,Improv_Metronome,466,1,48,36,468877368
41,23,13,Improv_Metronome,467,5,42,127,469138676
41,23,13,Improv_Metronome,468,1,48,58,469149724
41,23,13,Improv_Metronome,469,1,48,29,469396032
41,23,13,Improv_Metronome,470,1,38,66,469629928
41,23,13,Improv_Metronome,471,5,42,127,469638564
41,23,13,Improv_Metronome,472,1,48,89,469643404
41,23,13,Improv_Metronome,473,1,38,51,469654752
41,23,13,Improv_Metronome,474,1,48,21,469923620
41,23,13,Improv_Metronome,475,5,42,127,470138188
41,23,13,Improv_Metronome,476,1,48,63,470470916
41,23,13,Improv_Metronome,0,9999,9999,9999,400635992
41,23,13,Improv_Metronome,1,9999,9999,9999,401136756
41,23,13,Improv_Metronome,2,9999,9999,9999,401636472
41,23,13,Improv_Metronome,3,9999,9999,9999,402136112
41,23,13,Improv_Metronome,4,9999,9999,9999,402635832
41,23,13,Improv_Metronome,5,9999,9999,9999,403136600
41,23,13,Improv_Metronome,6,9999,9999,9999,403636320
41,23,13,Improv_Metronome,7,9999,9999,9999,404136020
41,23,13,Improv_Metronome,8,9999,9999,9999,404636736
41,23,13,Improv_Metronome,9,9999,9999,9999,405136456
41,23,13,Improv_Metronome,10,9999,9999,9999,405636180
41,23,13,Improv_Metronome,11,9999,9999,9999,406135928
41,23,13,Improv_Metronome,12,9999,9999,9999,406636608
41,23,13,Improv_Metronome,13,9999,9999,9999,407136340
41,23,13,Improv_Metronome,14,9999,9999,9999,407636064
41,23,13,Improv_Metronome,15,9999,9999,9999,408136760
41,23,13,Improv_Metronome,16,9999,9999,9999,408636464
41,23,13,Improv_Metronome,17,9999,9999,9999,409136188
41,23,13,Improv_Metronome,18,9999,9999,9999,409635896
41,23,13,Improv_Metronome,19,9999,9999,9999,410136664
41,23,13,Improv_Metronome,20,9999,9999,9999,410636392
41,23,13,Improv_Metronome,21,9999,9999,9999,411136116
41,23,13,Improv_Metronome,22,9999,9999,9999,411635820
41,23,13,Improv_Metronome,23,9999,9999,9999,412136512
41,23,13,Improv_Metronome,24,9999,9999,9999,412636280
41,23,13,Improv_Metronome,25,9999,9999,9999,413135928
41,23,13,Improv_Metronome,26,9999,9999,9999,413636728
41,23,13,Improv_Metronome,27,9999,9999,9999,414136372
41,23,13,Improv_Metronome,28,9999,9999,9999,414636152
41,23,13,Improv_Metronome,29,9999,9999,9999,415135824
41,23,13,Improv_Metronome,30,9999,9999,9999,415636596
41,23,13,Improv_Metronome,31,9999,9999,9999,416136272
41,23,13,Improv_Metronome,32,9999,9999,9999,416635964
41,23,13,Improv_Metronome,33,9999,9999,9999,417136708
41,23,13,Improv_Metronome,34,9999,9999,9999,417636400
41,23,13,Improv_Metronome,35,9999,9999,9999,418136152
41,23,13,Improv_Metronome,36,9999,9999,9999,418635844
41,23,13,Improv_Metronome,37,9999,9999,9999,419136612
41,23,13,Improv_Metronome,38,9999,9999,9999,419636340
41,23,13,Improv_Metronome,39,9999,9999,9999,420135988
41,23,13,Improv_Metronome,40,9999,9999,9999,420636760
41,23,13,Improv_Metronome,41,9999,9999,9999,421136480
41,23,13,Improv_Metronome,42,9999,9999,9999,421636188
41,23,13,Improv_Metronome,43,9999,9999,9999,422135908
41,23,13,Improv_Metronome,44,9999,9999,9999,422636608
41,23,13,Improv_Metronome,45,9999,9999,9999,423136328
41,23,13,Improv_Metronome,46,9999,9999,9999,423636068
41,23,13,Improv_Metronome,47,9999,9999,9999,424136760
41,23,13,Improv_Metronome,48,9999,9999,9999,424636488
41,23,13,Improv_Metronome,49,9999,9999,9999,425136184
41,23,13,Improv_Metronome,50,9999,9999,9999,425635912
41,23,13,Improv_Metronome,51,9999,9999,9999,426136676
41,23,13,Improv_Metronome,52,9999,9999,9999,426636348
41,23,13,Improv_Metronome,53,9999,9999,9999,427136076
41,23,13,Improv_Metronome,54,9999,9999,9999,427635820
41,23,13,Improv_Metronome,55,9999,9999,9999,428136504
41,23,13,Improv_Metronome,56,9999,9999,9999,428636240
41,23,13,Improv_Metronome,57,9999,9999,9999,429135984
41,23,13,Improv_Metronome,58,9999,9999,9999,429636660
41,23,13,Improv_Metronome,59,9999,9999,9999,430136436
41,23,13,Improv_Metronome,60,9999,9999,9999,430636096
41,23,13,Improv_Metronome,61,9999,9999,9999,431135860
41,23,13,Improv_Metronome,62,9999,9999,9999,431636576
41,23,13,Improv_Metronome,63,9999,9999,9999,432136312
41,23,13,Improv_Metronome,64,9999,9999,9999,432635956
41,23,13,Improv_Metronome,65,9999,9999,9999,433136752
41,23,13,Improv_Metronome,66,9999,9999,9999,433636456
41,23,13,Improv_Metronome,67,9999,9999,9999,434136116
41,23,13,Improv_Metronome,68,9999,9999,9999,434635880
41,23,13,Improv_Metronome,69,9999,9999,9999,435136600
41,23,13,Improv_Metronome,70,9999,9999,9999,435636280
41,23,13,Improv_Metronome,71,9999,9999,9999,436136004
41,23,13,Improv_Metronome,72,9999,9999,9999,436636748
41,23,13,Improv_Metronome,73,9999,9999,9999,437136496
41,23,13,Improv_Metronome,74,9999,9999,9999,437636176
41,23,13,Improv_Metronome,75,9999,9999,9999,438135924
41,23,13,Improv_Metronome,76,9999,9999,9999,438636616
41,23,13,Improv_Metronome,77,9999,9999,9999,439136336
41,23,13,Improv_Metronome,78,9999,9999,9999,439636064
41,23,13,Improv_Metronome,79,9999,9999,9999,440136756
41,23,13,Improv_Metronome,80,9999,9999,9999,440636508
41,23,13,Improv_Metronome,81,9999,9999,9999,441136188
41,23,13,Improv_Metronome,82,9999,9999,9999,441635912
41,23,13,Improv_Metronome,83,9999,9999,9999,442136636
41,23,13,Improv_Metronome,84,9999,9999,9999,442636384
41,23,13,Improv_Metronome,85,9999,9999,9999,443136096
41,23,13,Improv_Metronome,86,9999,9999,9999,443635768
41,23,13,Improv_Metronome,87,9999,9999,9999,444136516
41,23,13,Improv_Metronome,88,9999,9999,9999,444636260
41,23,13,Improv_Metronome,89,9999,9999,9999,445135940
41,23,13,Improv_Metronome,90,9999,9999,9999,445636732
41,23,13,Improv_Metronome,91,9999,9999,9999,446136380
41,23,13,Improv_Metronome,92,9999,9999,9999,446636108
41,23,13,Improv_Metronome,93,9999,9999,9999,447135848
41,23,13,Improv_Metronome,94,9999,9999,9999,447636544
41,23,13,Improv_Metronome,95,9999,9999,9999,448136292
41,23,13,Improv_Metronome,96,9999,9999,9999,448636020
41,23,13,Improv_Metronome,97,9999,9999,9999,449136720
41,23,13,Improv_Metronome,98,9999,9999,9999,449636440
41,23,13,Improv_Metronome,99,9999,9999,9999,450136172
41,23,13,Improv_Metronome,100,9999,9999,9999,450635828
41,23,13,Improv_Metronome,101,9999,9999,9999,451136596
41,23,13,Improv_Metronome,102,9999,9999,9999,451636324
41,23,13,Improv_Metronome,103,9999,9999,9999,452136044
41,23,13,Improv_Metronome,104,9999,9999,9999,452636768
41,23,13,Improv_Metronome,105,9999,9999,9999,453136468
41,23,13,Improv_Metronome,106,9999,9999,9999,453636180
41,23,13,Improv_Metronome,107,9999,9999,9999,454135860
41,23,13,Improv_Metronome,108,9999,9999,9999,454636616
41,23,13,Improv_Metronome,109,9999,9999,9999,455136368
41,23,13,Improv_Metronome,110,9999,9999,9999,455636080
41,23,13,Improv_Metronome,111,9999,9999,9999,456136800
41,23,13,Improv_Metronome,112,9999,9999,9999,456636492
41,23,13,Improv_Metronome,113,9999,9999,9999,457136200
41,23,13,Improv_Metronome,114,9999,9999,9999,457635948
41,23,13,Improv_Metronome,115,9999,9999,9999,458136688
41,23,13,Improv_Metronome,116,9999,9999,9999,458636384
41,23,13,Improv_Metronome,117,9999,9999,9999,459136108
41,23,13,Improv_Metronome,118,9999,9999,9999,459635804
41,23,13,Improv_Metronome,119,9999,9999,9999,460136544
41,23,13,Improv_Metronome,120,9999,9999,9999,460636216
41,23,13,Improv_Metronome,121,9999,9999,9999,461135984
41,23,13,Improv_Metronome,122,9999,9999,9999,461636704
41,23,13,Improv_Metronome,123,9999,9999,9999,462136376
41,23,13,Improv_Metronome,124,9999,9999,9999,462636124
41,23,13,Improv_Metronome,125,9999,9999,9999,463135800
41,23,13,Improv_Metronome,126,9999,9999,9999,463636568
41,23,13,Improv_Metronome,127,9999,9999,9999,464136244
41,23,13,Improv_Metronome,128,9999,9999,9999,464635984
41,23,13,Improv_Metronome,129,9999,9999,9999,465136724
41,23,13,Improv_Metronome,130,9999,9999,9999,465636472
41,23,13,Improv_Metronome,131,9999,9999,9999,466136144
41,23,13,Improv_Metronome,132,9999,9999,9999,466635872
41,23,13,Improv_Metronome,133,9999,9999,9999,467136588
41,23,13,Improv_Metronome,134,9999,9999,9999,467636340
41,23,13,Improv_Metronome,135,9999,9999,9999,468136044
41,23,13,Improv_Metronome,136,9999,9999,9999,468636756
41,23,13,Improv_Metronome,137,9999,9999,9999,469136464
41,23,13,Improv_Metronome,138,9999,9999,9999,469636204
41,23,13,Improv_Metronome,139,9999,9999,9999,470135900
41,24,14,Improv_Melody,0,2,48,80,521421180
41,24,14,Improv_Melody,1,2,72,80,521423192
41,24,14,Improv_Melody,2,5,42,127,521425956
41,24,14,Improv_Melody,3,5,42,110,521919016
41,24,14,Improv_Melody,4,5,42,110,522418888
41,24,14,Improv_Melody,5,5,42,110,522918288
41,24,14,Improv_Melody,6,5,42,127,523418908
41,24,14,Improv_Melody,7,5,42,110,523919000
41,24,14,Improv_Melody,8,5,42,110,524418352
41,24,14,Improv_Melody,9,5,42,110,524918148
41,24,14,Improv_Melody,10,2,43,80,525421192
41,24,14,Improv_Melody,11,2,67,80,525423492
41,24,14,Improv_Melody,12,5,42,127,525426108
41,24,14,Improv_Melody,13,5,42,110,525918428
41,24,14,Improv_Melody,14,5,42,110,526418300
41,24,14,Improv_Melody,15,5,42,110,526919140
41,24,14,Improv_Melody,16,5,42,127,527418936
41,24,14,Improv_Melody,17,5,42,110,527918512
41,24,14,Improv_Melody,18,5,42,110,528418160
41,24,14,Improv_Melody,19,5,42,110,528918852
41,24,14,Improv_Melody,20,2,45,80,529421072
41,24,14,Improv_Melody,21,2,69,80,529423224
41,24,14,Improv_Melody,22,5,42,127,529425840
41,24,14,Improv_Melody,23,5,42,110,529918232
41,24,14,Improv_Melody,24,5,42,110,530419004
41,24,14,Improv_Melody,25,5,42,110,530918724
41,24,14,Improv_Melody,26,5,42,127,531418592
41,24,14,Improv_Melody,27,5,42,110,531918316
41,24,14,Improv_Melody,28,5,42,110,532418936
41,24,14,Improv_Melody,29,5,42,110,532918656
41,24,14,Improv_Melody,30,2,41,80,533420804
41,24,14,Improv_Melody,31,2,65,80,533423184
41,24,14,Improv_Melody,32,5,42,127,533425644
41,24,14,Improv_Melody,33,5,42,110,533918988
41,24,14,Improv_Melody,34,5,42,110,534418784
41,24,14,Improv_Melody,35,5,42,110,534918504
41,24,14,Improv_Melody,36,5,42,127,535418228
41,24,14,Improv_Melody,37,5,42,110,535919068
41,24,14,Improv_Melody,38,5,42,110,536418640
41,24,14,Improv_Melody,39,5,42,110,536918512
41,24,14,Improv_Melody,40,1,38,52,537402480
41,24,14,Improv_Melody,41,1,48,86,537418464
41,24,14,Improv_Melody,42,2,48,80,537422888
41,24,14,Improv_Melody,43,2,72,80,537424960
41,24,14,Improv_Melody,44,5,42,127,537427716
41,24,14,Improv_Melody,45,1,48,19,537682664
41,24,14,Improv_Melody,46,5,42,110,537918852
41,24,14,Improv_Melody,47,1,48,36,538144736
41,24,14,Improv_Melody,48,1,38,78,538373552
41,24,14,Improv_Melody,49,1,48,95,538401132
41,24,14,Improv_Melody,50,5,42,110,538418524
41,24,14,Improv_Melody,51,1,48,32,538649308
41,24,14,Improv_Melody,52,5,42,110,538918404
41,24,14,Improv_Melody,53,1,48,40,539157012
41,24,14,Improv_Melody,54,1,38,59,539404968
41,24,14,Improv_Melody,55,1,48,87,539415048
41,24,14,Improv_Melody,56,5,42,127,539419124
41,24,14,Improv_Melody,57,1,48,30,539656492
41,24,14,Improv_Melody,58,5,42,110,539918784
41,24,14,Improv_Melody,59,1,48,33,540134124
41,24,14,Improv_Melody,60,1,38,67,540389640
41,24,14,Improv_Melody,61,1,48,89,540401736
41,24,14,Improv_Melody,62,1,38,47,540418292
41,24,14,Improv_Melody,63,5,42,110,540420528
41,24,14,Improv_Melody,64,1,48,29,540650936
41,24,14,Improv_Melody,65,1,48,32,540894556
41,24,14,Improv_Melody,66,5,42,110,540918380
41,24,14,Improv_Melody,67,1,48,26,541145976
41,24,14,Improv_Melody,68,1,38,64,541384656
41,24,14,Improv_Melody,69,1,48,90,541398704
41,24,14,Improv_Melody,70,1,38,47,541409900
41,24,14,Improv_Melody,71,2,43,80,541421576
41,24,14,Improv_Melody,72,2,67,80,541423872
41,24,14,Improv_Melody,73,5,42,127,541426408
41,24,14,Improv_Melody,74,1,48,37,541663100
41,24,14,Improv_Melody,75,5,42,110,541918440
41,24,14,Improv_Melody,76,1,48,31,541938532
41,24,14,Improv_Melody,77,1,48,37,542176696
41,24,14,Improv_Melody,78,5,42,110,542418416
41,24,14,Improv_Melody,79,1,38,73,542421016
41,24,14,Improv_Melody,80,1,48,78,542432584
41,24,14,Improv_Melody,81,1,38,52,542444304
41,24,14,Improv_Melody,82,1,48,22,542687672
41,24,14,Improv_Melody,83,5,42,110,542919144
41,24,14,Improv_Melody,84,1,48,32,542922636
41,24,14,Improv_Melody,85,1,48,40,543148532
41,24,14,Improv_Melody,86,1,38,70,543394144
41,24,14,Improv_Melody,87,1,48,90,543404932
41,24,14,Improv_Melody,88,5,42,127,543418660
41,24,14,Improv_Melody,89,1,48,43,543652412
41,24,14,Improv_Melody,90,1,48,51,543912484
41,24,14,Improv_Melody,91,5,42,110,543918312
41,24,14,Improv_Melody,92,1,48,43,544141320
41,24,14,Improv_Melody,93,1,38,68,544390844
41,24,14,Improv_Melody,94,1,48,77,544403544
41,24,14,Improv_Melody,95,1,38,48,544418600
41,24,14,Improv_Melody,96,5,42,110,544420832
41,24,14,Improv_Melody,97,1,48,35,544642200
41,24,14,Improv_Melody,98,1,48,48,544910200
41,24,14,Improv_Melody,99,5,42,110,544918844
41,24,14,Improv_Melody,100,1,48,54,545153840
41,24,14,Improv_Melody,101,1,48,55,545413092
41,24,14,Improv_Melody,102,2,45,80,545421404
41,24,14,Improv_Melody,103,2,69,80,545423624
41,24,14,Improv_Melody,104,5,42,127,545426160
41,24,14,Improv_Melody,105,1,48,46,545437868
41,24,14,Improv_Melody,106,1,38,99,545440540
41,24,14,Improv_Melody,107,5,42,110,545918320
41,24,14,Improv_Melody,108,5,42,110,546419164
41,24,14,Improv_Melody,109,1,48,54,546432232
41,24,14,Improv_Melody,110,1,38,69,546441712
41,24,14,Improv_Melody,111,5,42,110,546918964
41,24,14,Improv_Melody,112,1,48,38,547385128
41,24,14,Improv_Melody,113,1,38,89,547397452
41,24,14,Improv_Melody,114,5,42,127,547418512
41,24,14,Improv_Melody,115,5,42,110,547918264
41,24,14,Improv_Melody,116,1,38,65,548368800
41,24,14,Improv_Melody,117,1,48,38,548372068
41,24,14,Improv_Melody,118,1,38,37,548417784
41,24,14,Improv_Melody,119,5,42,110,548420104
41,24,14,Improv_Melody,120,5,42,110,548918588
41,24,14,Improv_Melody,121,1,38,78,549352740
41,24,14,Improv_Melody,122,1,48,46,549362664
41,24,14,Improv_Melody,123,1,38,49,549393312
41,24,14,Improv_Melody,124,2,41,80,549421144
41,24,14,Improv_Melody,125,2,65,80,549423144
41,24,14,Improv_Melody,126,5,42,127,549425828
41,24,14,Improv_Melody,127,5,42,110,549919076
41,24,14,Improv_Melody,128,1,48,61,550403864
41,24,14,Improv_Melody,129,1,38,63,550407216
41,24,14,Improv_Melody,130,5,42,110,550418920
41,24,14,Improv_Melody,131,1,38,49,550446932
41,24,14,Improv_Melody,132,5,42,110,550918428
41,24,14,Improv_Melody,133,1,48,52,551391252
41,24,14,Improv_Melody,134,1,38,58,551396164
41,24,14,Improv_Melody,135,5,42,127,551418348
41,24,14,Improv_Melody,136,1,38,53,551431996
41,24,14,Improv_Melody,137,5,42,110,551918832
41,24,14,Improv_Melody,138,1,48,51,552387688
41,24,14,Improv_Melody,139,1,38,79,552400984
41,24,14,Improv_Melody,140,5,42,110,552419044
41,24,14,Improv_Melody,141,1,38,51,552441076
41,24,14,Improv_Melody,142,5,42,110,552918332
41,24,14,Improv_Melody,143,1,48,55,553385888
41,24,14,Improv_Melody,144,1,38,86,553408196
41,24,14,Improv_Melody,145,2,48,80,553421584
41,24,14,Improv_Melody,146,2,72,80,553423812
41,24,14,Improv_Melody,147,5,42,127,553426204
41,24,14,Improv_Melody,148,1,38,46,553453616
41,24,14,Improv_Melody,149,1,38,22,553517372
41,24,14,Improv_Melody,150,5,42,110,553918808
41,24,14,Improv_Melody,151,5,42,110,554418608
41,24,14,Improv_Melody,152,1,48,32,554441544
41,24,14,Improv_Melody,153,1,38,85,554462692
41,24,14,Improv_Melody,154,1,38,51,554494832
41,24,14,Improv_Melody,155,5,42,110,554918360
41,24,14,Improv_Melody,156,1,48,57,555373304
41,24,14,Improv_Melody,157,1,38,80,555386376
41,24,14,Improv_Melody,158,5,42,127,555418880
41,24,14,Improv_Melody,159,1,38,49,555421848
41,24,14,Improv_Melody,160,5,42,110,555918836
41,24,14,Improv_Melody,161,1,48,53,556344084
41,24,14,Improv_Melody,162,1,38,80,556350800
41,24,14,Improv_Melody,163,1,38,52,556376656
41,24,14,Improv_Melody,164,5,42,110,556418436
41,24,14,Improv_Melody,165,5,42,110,556918200
41,24,14,Improv_Melody,166,1,38,57,557353772
41,24,14,Improv_Melody,167,1,48,82,557357044
41,24,14,Improv_Melody,168,2,43,80,557421292
41,24,14,Improv_Melody,169,1,48,34,557423592
41,24,14,Improv_Melody,170,2,67,80,557425760
41,24,14,Improv_Melody,171,5,42,127,557428148
41,24,14,Improv_Melody,172,5,42,110,557918564
41,24,14,Improv_Melody,173,1,48,111,558386452
41,24,14,Improv_Melody,174,1,38,90,558409024
41,24,14,Improv_Melody,175,5,42,110,558418336
41,24,14,Improv_Melody,176,1,48,44,558463400
41,24,14,Improv_Melody,177,1,38,43,558467420
41,24,14,Improv_Melody,178,1,38,41,558503744
41,24,14,Improv_Melody,179,1,48,31,558516468
41,24,14,Improv_Melody,180,5,42,110,558918976
41,24,14,Improv_Melody,181,1,48,83,559416408
41,24,14,Improv_Melody,182,1,38,85,559417080
41,24,14,Improv_Melody,183,5,42,127,559420764
41,24,14,Improv_Melody,184,1,38,55,559454536
41,24,14,Improv_Melody,185,1,48,48,559463488
41,24,14,Improv_Melody,186,1,38,34,559495628
41,24,14,Improv_Melody,187,1,48,32,559506604
41,24,14,Improv_Melody,188,5,42,110,559918632
41,24,14,Improv_Melody,189,1,38,92,560394672
41,24,14,Improv_Melody,190,1,48,95,560400564
41,24,14,Improv_Melody,191,5,42,110,560418328
41,24,14,Improv_Melody,192,1,38,55,560434524
41,24,14,Improv_Melody,193,1,48,50,560455220
41,24,14,Improv_Melody,194,1,38,38,560474644
41,24,14,Improv_Melody,195,1,48,34,560504540
41,24,14,Improv_Melody,196,5,42,110,560919040
41,24,14,Improv_Melody,197,1,38,97,561383784
41,24,14,Improv_Melody,198,1,48,104,561389828
41,24,14,Improv_Melody,199,1,38,60,561413060
41,24,14,Improv_Melody,200,2,45,80,561420992
41,24,14,Improv_Melody,201,2,69,80,561423216
41,24,14,Improv_Melody,202,5,42,127,561425832
41,24,14,Improv_Melody,203,1,48,57,561427756
41,24,14,Improv_Melody,204,1,48,38,561463472
41,24,14,Improv_Melody,205,5,42,110,561918588
41,24,14,Improv_Melody,206,1,38,73,562357080
41,24,14,Improv_Melody,207,1,48,73,562359604
41,24,14,Improv_Melody,208,1,48,52,562400424
41,24,14,Improv_Melody,209,5,42,110,562419012
41,24,14,Improv_Melody,210,5,42,110,562918692
41,24,14,Improv_Melody,211,1,48,80,563351096
41,24,14,Improv_Melody,212,1,38,77,563357884
41,24,14,Improv_Melody,213,1,38,56,563391920
41,24,14,Improv_Melody,214,1,48,49,563401248
41,24,14,Improv_Melody,215,5,42,127,563418564
41,24,14,Improv_Melody,216,1,38,42,563421384
41,24,14,Improv_Melody,217,1,48,34,563443040
41,24,14,Improv_Melody,218,5,42,110,563918276
41,24,14,Improv_Melody,219,1,48,82,564371552
41,24,14,Improv_Melody,220,1,38,19,564380956
41,24,14,Improv_Melody,221,1,38,76,564390508
41,24,14,Improv_Melody,222,1,48,52,564409956
41,24,14,Improv_Melody,223,5,42,110,564418900
41,24,14,Improv_Melody,224,1,38,59,564422448
41,24,14,Improv_Melody,225,1,48,36,564444196
41,24,14,Improv_Melody,226,5,42,110,564918608
41,24,14,Improv_Melody,227,1,48,92,565390880
41,24,14,Improv_Melody,228,1,38,67,565394148
41,24,14,Improv_Melody,229,1,38,60,565420668
41,24,14,Improv_Melody,230,1,48,53,565424012
41,24,14,Improv_Melody,231,2,41,80,565426540
41,24,14,Improv_Melody,232,2,65,80,565428316
41,24,14,Improv_Melody,233,5,42,127,565430848
41,24,14,Improv_Melody,234,1,48,44,565451008
41,24,14,Improv_Melody,235,5,42,110,565919188
41,24,14,Improv_Melody,236,1,48,79,566400760
41,24,14,Improv_Melody,237,1,38,19,566410692
41,24,14,Improv_Melody,238,5,42,110,566418808
41,24,14,Improv_Melody,239,1,48,48,566443180
41,24,14,Improv_Melody,240,5,42,110,566918540
41,24,14,Improv_Melody,241,1,48,82,567415520
41,24,14,Improv_Melody,242,5,42,127,567418328
41,24,14,Improv_Melody,243,1,38,19,567425412
41,24,14,Improv_Melody,244,1,48,58,567443188
41,24,14,Improv_Melody,245,1,48,41,567472888
41,24,14,Improv_Melody,246,5,42,110,567919080
41,24,14,Improv_Melody,247,1,48,80,568362804
41,24,14,Improv_Melody,248,1,48,47,568401452
41,24,14,Improv_Melody,249,5,42,110,568418548
41,24,14,Improv_Melody,250,5,42,110,568918332
41,24,14,Improv_Melody,251,1,48,77,569388684
41,24,14,Improv_Melody,252,1,38,18,569398540
41,24,14,Improv_Melody,253,1,38,58,569405096
41,24,14,Improv_Melody,254,2,48,80,569421704
41,24,14,Improv_Melody,255,2,72,80,569423932
41,24,14,Improv_Melody,256,5,42,127,569426468
41,24,14,Improv_Melody,257,1,38,29,569472356
41,24,14,Improv_Melody,258,1,48,51,569914944
41,24,14,Improv_Melody,259,5,42,110,569918800
41,24,14,Improv_Melody,260,1,38,72,570417064
41,24,14,Improv_Melody,261,5,42,110,570419696
41,24,14,Improv_Melody,262,1,48,72,570431864
41,24,14,Improv_Melody,263,1,38,46,570451960
41,24,14,Improv_Melody,264,1,48,29,570523896
41,24,14,Improv_Melody,265,5,42,110,570918128
41,24,14,Improv_Melody,266,1,48,53,570921172
41,24,14,Improv_Melody,267,5,42,127,571419244
41,24,14,Improv_Melody,268,1,38,73,571430072
41,24,14,Improv_Melody,269,1,48,67,571433268
41,24,14,Improv_Melody,270,1,38,50,571456056
41,24,14,Improv_Melody,271,1,48,46,571903276
41,24,14,Improv_Melody,272,5,42,110,571918648
41,24,14,Improv_Melody,273,1,48,70,572415016
41,24,14,Improv_Melody,274,5,42,110,572418272
41,24,14,Improv_Melody,275,1,38,73,572420360
41,24,14,Improv_Melody,276,1,38,51,572448896
41,24,14,Improv_Melody,277,1,48,39,572454480
41,24,14,Improv_Melody,278,5,42,110,572918276
41,24,14,Improv_Melody,279,1,48,38,572928796
41,24,14,Improv_Melody,280,1,48,73,573398704
41,24,14,Improv_Melody,281,1,38,73,573402648
41,24,14,Improv_Melody,282,2,43,80,573421580
41,24,14,Improv_Melody,283,2,67,80,573423800
41,24,14,Improv_Melody,284,5,42,127,573426408
41,24,14,Improv_Melody,285,1,38,52,573429820
41,24,14,Improv_Melody,286,1,48,42,573445356
41,24,14,Improv_Melody,287,1,48,51,573919016
41,24,14,Improv_Melody,288,5,42,110,573920284
41,24,14,Improv_Melody,289,1,48,23,573988312
41,24,14,Improv_Melody,290,5,42,110,574418396
41,24,14,Improv_Melody,291,1,38,67,574445900
41,24,14,Improv_Melody,292,1,48,68,574449096
41,24,14,Improv_Melody,293,1,38,48,574474876
41,24,14,Improv_Melody,294,1,48,45,574504180
41,24,14,Improv_Melody,295,1,48,27,574559732
41,24,14,Improv_Melody,296,5,42,110,574919192
41,24,14,Improv_Melody,297,1,48,59,574963152
41,24,14,Improv_Melody,298,5,42,127,575418744
41,24,14,Improv_Melody,299,1,48,77,575434280
41,24,14,Improv_Melody,300,1,38,20,575443984
41,24,14,Improv_Melody,301,1,38,66,575456148
41,24,14,Improv_Melody,302,1,48,54,575469368
41,24,14,Improv_Melody,303,1,38,49,575485728
41,24,14,Improv_Melody,304,5,42,110,575918404
41,24,14,Improv_Melody,305,1,48,66,575975224
41,24,14,Improv_Melody,306,1,48,42,576013200
41,24,14,Improv_Melody,307,5,42,110,576418280
41,24,14,Improv_Melody,308,1,48,77,576424168
41,24,14,Improv_Melody,309,1,38,19,576433904
41,24,14,Improv_Melody,310,1,38,71,576439648
41,24,14,Improv_Melody,311,1,48,54,576451820
41,24,14,Improv_Melody,312,1,38,58,576462788
41,24,14,Improv_Melody,313,5,42,110,576918928
41,24,14,Improv_Melody,314,1,48,75,576924436
41,24,14,Improv_Melody,315,1,48,46,576958480
41,24,14,Improv_Melody,316,1,48,90,577403820
41,24,14,Improv_Melody,317,1,38,21,577413752
41,24,14,Improv_Melody,318,2,45,80,577421460
41,24,14,Improv_Melody,319,1,38,66,577425028
41,24,14,Improv_Melody,320,2,69,80,577427264
41,24,14,Improv_Melody,321,5,42,127,577429500
41,24,14,Improv_Melody,322,1,48,46,577454768
41,24,14,Improv_Melody,323,1,38,42,577460884
41,24,14,Improv_Melody,324,1,48,80,577890048
41,24,14,Improv_Melody,325,5,42,110,577918212
41,24,14,Improv_Melody,326,1,48,49,577925432
41,24,14,Improv_Melody,327,1,48,35,577959740
41,24,14,Improv_Melody,328,1,48,80,578389704
41,24,14,Improv_Melody,329,1,38,67,578397688
41,24,14,Improv_Melody,330,5,42,110,578419048
41,24,14,Improv_Melody,331,1,48,53,578422596
41,24,14,Improv_Melody,332,1,38,49,578426468
41,24,14,Improv_Melody,333,1,48,38,578456068
41,24,14,Improv_Melody,334,1,48,63,578916372
41,24,14,Improv_Melody,335,5,42,110,578918952
41,24,14,Improv_Melody,336,1,48,35,578967760
41,24,14,Improv_Melody,337,1,48,83,579396756
41,24,14,Improv_Melody,338,1,38,20,579406828
41,24,14,Improv_Melody,339,5,42,127,579418464
41,24,14,Improv_Melody,340,1,38,70,579428972
41,24,14,Improv_Melody,341,1,38,48,579457300
41,24,14,Improv_Melody,342,5,42,110,579918336
41,24,14,Improv_Melody,343,1,48,61,579923028
41,24,14,Improv_Melody,344,1,48,30,579978880
41,24,14,Improv_Melody,345,5,42,110,580418840
41,24,14,Improv_Melody,346,1,38,72,580421580
41,24,14,Improv_Melody,347,1,48,62,580424624
41,24,14,Improv_Melody,348,1,38,49,580448240
41,24,14,Improv_Melody,349,1,48,41,580463708
41,24,14,Improv_Melody,350,5,42,110,580918820
41,24,14,Improv_Melody,351,1,48,65,580946844
41,24,14,Improv_Melody,352,1,48,35,580992896
41,24,14,Improv_Melody,353,1,48,81,581407760
41,24,14,Improv_Melody,354,1,38,19,581417072
41,24,14,Improv_Melody,355,2,41,80,581422324
41,24,14,Improv_Melody,356,1,38,69,581425820
41,24,14,Improv_Melody,357,2,65,80,581427980
41,24,14,Improv_Melody,358,5,42,127,581430216
41,24,14,Improv_Melody,359,1,48,47,581451200
41,24,14,Improv_Melody,360,1,38,45,581468308
41,24,14,Improv_Melody,361,1,48,29,581501272
41,24,14,Improv_Melody,362,1,48,49,581900092
41,24,14,Improv_Melody,363,5,42,110,581919056
41,24,14,Improv_Melody,364,1,48,67,582399196
41,24,14,Improv_Melody,365,5,42,110,582418904
41,24,14,Improv_Melody,366,1,48,66,582906224
41,24,14,Improv_Melody,367,5,42,110,582918380
41,24,14,Improv_Melody,368,1,48,22,582991416
41,24,14,Improv_Melody,369,1,48,68,583396172
41,24,14,Improv_Melody,370,5,42,127,583418132
41,24,14,Improv_Melody,371,1,48,35,583448984
41,24,14,Improv_Melody,372,1,48,67,583885528
41,24,14,Improv_Melody,373,5,42,110,583918932
41,24,14,Improv_Melody,374,1,48,27,583960780
41,24,14,Improv_Melody,375,1,48,79,584403832
41,24,14,Improv_Melody,376,5,42,110,584418832
41,24,14,Improv_Melody,377,1,48,42,584459184
41,24,14,Improv_Melody,378,5,42,110,584918368
41,24,14,Improv_Melody,379,1,48,63,584923056
41,24,14,Improv_Melody,380,1,48,42,584957888
41,24,14,Improv_Melody,381,1,48,75,585417676
41,24,14,Improv_Melody,382,2,48,80,585421896
41,24,14,Improv_Melody,383,2,72,80,585423740
41,24,14,Improv_Melody,384,5,42,127,585426280
41,24,14,Improv_Melody,385,1,38,25,585427764
41,24,14,Improv_Melody,386,1,48,44,585657132
41,24,14,Improv_Melody,387,1,48,47,585910996
41,24,14,Improv_Melody,388,5,42,110,585918892
41,24,14,Improv_Melody,389,1,48,51,586133896
41,24,14,Improv_Melody,390,1,48,64,586409556
41,24,14,Improv_Melody,391,5,42,110,586418644
41,24,14,Improv_Melody,392,1,48,43,586633500
41,24,14,Improv_Melody,393,1,48,51,586878764
41,24,14,Improv_Melody,394,5,42,110,586918148
41,24,14,Improv_Melody,395,1,48,50,587136372
41,24,14,Improv_Melody,396,5,42,127,587418856
41,24,14,Improv_Melody,397,1,48,54,587425712
41,24,14,Improv_Melody,398,1,48,83,587433100
41,24,14,Improv_Melody,399,1,48,36,587670184
41,24,14,Improv_Melody,400,1,48,47,587909016
41,24,14,Improv_Melody,401,5,42,110,587918780
41,24,14,Improv_Melody,402,5,42,110,588418712
41,24,14,Improv_Melody,403,1,48,57,588424820
41,24,14,Improv_Melody,404,1,48,83,588430932
41,24,14,Improv_Melody,405,1,38,25,588439816
41,24,14,Improv_Melody,406,1,48,28,588655280
41,24,14,Improv_Melody,407,1,48,48,588895760
41,24,14,Improv_Melody,408,5,42,110,588918016
41,24,14,Improv_Melody,409,1,48,23,588966372
41,24,14,Improv_Melody,410,1,48,56,589398432
41,24,14,Improv_Melody,411,1,48,67,589410380
41,24,14,Improv_Melody,412,1,38,23,589419044
41,24,14,Improv_Melody,413,2,43,80,589423676
41,24,14,Improv_Melody,414,2,67,80,589425520
41,24,14,Improv_Melody,415,5,42,127,589428360
41,24,14,Improv_Melody,416,1,48,37,589677544
41,24,14,Improv_Melody,417,5,42,110,589918444
41,24,14,Improv_Melody,418,1,48,50,589960308
41,24,14,Improv_Melody,419,1,48,50,590397900
41,24,14,Improv_Melody,420,1,48,73,590409696
41,24,14,Improv_Melody,421,5,42,110,590418560
41,24,14,Improv_Melody,422,1,38,21,590419528
41,24,14,Improv_Melody,423,1,48,48,590675072
41,24,14,Improv_Melody,424,5,42,110,590918960
41,24,14,Improv_Melody,425,1,48,48,590951628
41,24,14,Improv_Melody,426,1,48,48,591172884
41,24,14,Improv_Melody,427,5,42,127,591418792
41,24,14,Improv_Melody,428,1,48,90,591452048
41,24,14,Improv_Melody,429,1,38,24,591461980
41,24,14,Improv_Melody,430,1,48,41,591670792
41,24,14,Improv_Melody,431,1,48,51,591912764
41,24,14,Improv_Melody,432,5,42,110,591918640
41,24,14,Improv_Melody,433,1,48,54,592157676
41,24,14,Improv_Melody,434,1,48,57,592416512
41,24,14,Improv_Melody,435,5,42,110,592418244
41,24,14,Improv_Melody,436,1,48,84,592433388
41,24,14,Improv_Melody,437,1,48,54,592669304
41,24,14,Improv_Melody,438,1,48,53,592912248
41,24,14,Improv_Melody,439,5,42,110,592918872
41,24,14,Improv_Melody,440,1,48,52,593159108
41,24,14,Improv_Melody,441,2,45,80,593421440
41,24,14,Improv_Melody,442,2,69,80,593423440
41,24,14,Improv_Melody,443,1,48,54,593425528
41,24,14,Improv_Melody,444,5,42,127,593427616
41,24,14,Improv_Melody,445,1,48,82,593438496
41,24,14,Improv_Melody,446,1,48,46,593677784
41,24,14,Improv_Melody,447,5,42,110,593918456
41,24,14,Improv_Melody,448,1,48,53,593937956
41,24,14,Improv_Melody,449,1,48,52,594168632
41,24,14,Improv_Melody,450,5,42,110,594419032
41,24,14,Improv_Melody,451,1,48,92,594423196
41,24,14,Improv_Melody,452,1,38,20,594433200
41,24,14,Improv_Melody,453,1,48,46,594669836
41,24,14,Improv_Melody,454,1,48,51,594908888
41,24,14,Improv_Melody,455,5,42,110,594918728
41,24,14,Improv_Melody,456,1,48,54,595158072
41,24,14,Improv_Melody,457,5,42,127,595418492
41,24,14,Improv_Melody,458,1,48,87,595428492
41,24,14,Improv_Melody,459,1,38,21,595438340
41,24,14,Improv_Melody,460,1,48,35,595662112
41,24,14,Improv_Melody,461,1,48,54,595892420
41,24,14,Improv_Melody,462,5,42,110,595918340
41,24,14,Improv_Melody,463,1,48,58,596131100
41,24,14,Improv_Melody,464,1,48,57,596397332
41,24,14,Improv_Melody,465,1,48,94,596410324
41,24,14,Improv_Melody,466,5,42,110,596418892
41,24,14,Improv_Melody,467,1,48,53,596648808
41,24,14,Improv_Melody,468,5,42,110,596918728
41,24,14,Improv_Melody,469,1,48,61,596919620
41,24,14,Improv_Melody,470,1,48,30,596976652
41,24,14,Improv_Melody,471,1,48,79,597192896
41,24,14,Improv_Melody,472,2,41,80,597420736
41,24,14,Improv_Melody,473,2,65,80,597423036
41,24,14,Improv_Melody,474,5,42,127,597425724
41,24,14,Improv_Melody,475,1,48,77,597447244
41,24,14,Improv_Melody,476,1,38,114,597460096
41,24,14,Improv_Melody,477,1,38,23,597626392
41,24,14,Improv_Melody,478,5,42,110,597919052
41,24,14,Improv_Melody,479,1,48,27,598387532
41,24,14,Improv_Melody,480,1,38,14,598394924
41,24,14,Improv_Melody,481,1,38,94,598400880
41,24,14,Improv_Melody,482,5,42,110,598418724
41,24,14,Improv_Melody,483,1,38,29,598519964
41,24,14,Improv_Melody,484,5,42,110,598918456
41,24,14,Improv_Melody,485,1,48,43,599406384
41,24,14,Improv_Melody,486,5,42,127,599418172
41,24,14,Improv_Melody,487,1,38,74,599419584
41,24,14,Improv_Melody,488,1,38,27,599500104
41,24,14,Improv_Melody,489,5,42,110,599919240
41,24,14,Improv_Melody,490,1,48,64,600372544
41,24,14,Improv_Melody,491,1,38,75,600389128
41,24,14,Improv_Melody,492,1,48,36,600419144
41,24,14,Improv_Melody,493,5,42,110,600420640
41,24,14,Improv_Melody,494,1,38,20,600836436
41,24,14,Improv_Melody,495,5,42,110,600918380
41,24,14,Improv_Melody,496,1,48,70,601384304
41,24,14,Improv_Melody,497,1,38,90,601395656
41,24,14,Improv_Melody,498,1,48,43,601416052
41,24,14,Improv_Melody,499,2,48,80,601421812
41,24,14,Improv_Melody,500,2,72,80,601424116
41,24,14,Improv_Melody,501,5,42,127,601426648
41,24,14,Improv_Melody,502,1,38,39,601630300
41,24,14,Improv_Melody,503,5,42,110,601918844
41,24,14,Improv_Melody,504,1,38,31,601933256
41,24,14,Improv_Melody,505,1,38,47,602153684
41,24,14,Improv_Melody,506,1,48,77,602388784
41,24,14,Improv_Melody,507,1,38,83,602398408
41,24,14,Improv_Melody,0,9999,9999,9999,521416796
41,24,14,Improv_Melody,1,9999,9999,9999,521916500
41,24,14,Improv_Melody,2,9999,9999,9999,522416224
41,24,14,Improv_Melody,3,9999,9999,9999,522915920
41,24,14,Improv_Melody,4,9999,9999,9999,523416688
41,24,14,Improv_Melody,5,9999,9999,9999,523916412
41,24,14,Improv_Melody,6,9999,9999,9999,524416056
41,24,14,Improv_Melody,7,9999,9999,9999,524915780
41,24,14,Improv_Melody,8,9999,9999,9999,525416548
41,24,14,Improv_Melody,9,9999,9999,9999,525916208
41,24,14,Improv_Melody,10,9999,9999,9999,526415932
41,24,14,Improv_Melody,11,9999,9999,9999,526916700
41,24,14,Improv_Melody,12,9999,9999,9999,527416420
41,24,14,Improv_Melody,13,9999,9999,9999,527916144
41,24,14,Improv_Melody,14,9999,9999,9999,528415864
41,24,14,Improv_Melody,15,9999,9999,9999,528916560
41,24,14,Improv_Melody,16,9999,9999,9999,529416280
41,24,14,Improv_Melody,17,9999,9999,9999,529916016
41,24,14,Improv_Melody,18,9999,9999,9999,530416708
41,24,14,Improv_Melody,19,9999,9999,9999,530916428
41,24,14,Improv_Melody,20,9999,9999,9999,531416152
41,24,14,Improv_Melody,21,9999,9999,9999,531915872
41,24,14,Improv_Melody,22,9999,9999,9999,532416568
41,24,14,Improv_Melody,23,9999,9999,9999,532916288
41,24,14,Improv_Melody,24,9999,9999,9999,533415984
41,24,14,Improv_Melody,25,9999,9999,9999,533916768
41,24,14,Improv_Melody,26,9999,9999,9999,534416488
41,24,14,Improv_Melody,27,9999,9999,9999,534916212
41,24,14,Improv_Melody,28,9999,9999,9999,535415860
41,24,14,Improv_Melody,29,9999,9999,9999,535916628
41,24,14,Improv_Melody,30,9999,9999,9999,536416348
41,24,14,Improv_Melody,31,9999,9999,9999,536916072
41,24,14,Improv_Melody,32,9999,9999,9999,537416760
41,24,14,Improv_Melody,33,9999,9999,9999,537916484
41,24,14,Improv_Melody,34,9999,9999,9999,538416232
41,24,14,Improv_Melody,35,9999,9999,9999,538915964
41,24,14,Improv_Melody,36,9999,9999,9999,539416684
41,24,14,Improv_Melody,37,9999,9999,9999,539916340
41,24,14,Improv_Melody,38,9999,9999,9999,540416088
41,24,14,Improv_Melody,39,9999,9999,9999,540915792
41,24,14,Improv_Melody,40,9999,9999,9999,541416548
41,24,14,Improv_Melody,41,9999,9999,9999,541916220
41,24,14,Improv_Melody,42,9999,9999,9999,542415972
41,24,14,Improv_Melody,43,9999,9999,9999,542916704
41,24,14,Improv_Melody,44,9999,9999,9999,543416368
41,24,14,Improv_Melody,45,9999,9999,9999,543916092
41,24,14,Improv_Melody,46,9999,9999,9999,544415800
41,24,14,Improv_Melody,47,9999,9999,9999,544916552
41,24,14,Improv_Melody,48,9999,9999,9999,545416304
41,24,14,Improv_Melody,49,9999,9999,9999,545916028
41,24,14,Improv_Melody,50,9999,9999,9999,546416720
41,24,14,Improv_Melody,51,9999,9999,9999,546916448
41,24,14,Improv_Melody,52,9999,9999,9999,547416144
41,24,14,Improv_Melody,53,9999,9999,9999,547915896
41,24,14,Improv_Melody,54,9999,9999,9999,548416596
41,24,14,Improv_Melody,55,9999,9999,9999,548916296
41,24,14,Improv_Melody,56,9999,9999,9999,549416044
41,24,14,Improv_Melody,57,9999,9999,9999,549916784
41,24,14,Improv_Melody,58,9999,9999,9999,550416480
41,24,14,Improv_Melody,59,9999,9999,9999,550916212
41,24,14,Improv_Melody,60,9999,9999,9999,551415908
41,24,14,Improv_Melody,61,9999,9999,9999,551916612
41,24,14,Improv_Melody,62,9999,9999,9999,552416308
41,24,14,Improv_Melody,63,9999,9999,9999,552916036
41,24,14,Improv_Melody,64,9999,9999,9999,553416792
41,24,14,Improv_Melody,65,9999,9999,9999,553916516
41,24,14,Improv_Melody,66,9999,9999,9999,554416236
41,24,14,Improv_Melody,67,9999,9999,9999,554915920
41,24,14,Improv_Melody,68,9999,9999,9999,555416660
41,24,14,Improv_Melody,69,9999,9999,9999,555916392
41,24,14,Improv_Melody,70,9999,9999,9999,556416068
41,24,14,Improv_Melody,71,9999,9999,9999,556915832
41,24,14,Improv_Melody,72,9999,9999,9999,557416500
41,24,14,Improv_Melody,73,9999,9999,9999,557916272
41,24,14,Improv_Melody,74,9999,9999,9999,558415968
41,24,14,Improv_Melody,75,9999,9999,9999,558916680
41,24,14,Improv_Melody,76,9999,9999,9999,559416472
41,24,14,Improv_Melody,77,9999,9999,9999,559916116
41,24,14,Improv_Melody,78,9999,9999,9999,560415812
41,24,14,Improv_Melody,79,9999,9999,9999,560916600
41,24,14,Improv_Melody,80,9999,9999,9999,561416272
41,24,14,Improv_Melody,81,9999,9999,9999,561915996
41,24,14,Improv_Melody,82,9999,9999,9999,562416720
41,24,14,Improv_Melody,83,9999,9999,9999,562916472
41,24,14,Improv_Melody,84,9999,9999,9999,563416124
41,24,14,Improv_Melody,85,9999,9999,9999,563915836
41,24,14,Improv_Melody,86,9999,9999,9999,564416608
41,24,14,Improv_Melody,87,9999,9999,9999,564916316
41,24,14,Improv_Melody,88,9999,9999,9999,565415984
41,24,14,Improv_Melody,89,9999,9999,9999,565916748
41,24,14,Improv_Melody,90,9999,9999,9999,566416444
41,24,14,Improv_Melody,91,9999,9999,9999,566916172
41,24,14,Improv_Melody,92,9999,9999,9999,567415888
41,24,14,Improv_Melody,93,9999,9999,9999,567916636
41,24,14,Improv_Melody,94,9999,9999,9999,568416332
41,24,14,Improv_Melody,95,9999,9999,9999,568916036
41,24,14,Improv_Melody,96,9999,9999,9999,569416756
41,24,14,Improv_Melody,97,9999,9999,9999,569916508
41,24,14,Improv_Melody,98,9999,9999,9999,570416216
41,24,14,Improv_Melody,99,9999,9999,9999,570915908
41,24,14,Improv_Melody,100,9999,9999,9999,571416656
41,24,14,Improv_Melody,101,9999,9999,9999,571916356
41,24,14,Improv_Melody,102,9999,9999,9999,572416052
41,24,14,Improv_Melody,103,9999,9999,9999,572915832
41,24,14,Improv_Melody,104,9999,9999,9999,573416552
41,24,14,Improv_Melody,105,9999,9999,9999,573916276
41,24,14,Improv_Melody,106,9999,9999,9999,574415956
41,24,14,Improv_Melody,107,9999,9999,9999,574916676
41,24,14,Improv_Melody,108,9999,9999,9999,575416376
41,24,14,Improv_Melody,109,9999,9999,9999,575916112
41,24,14,Improv_Melody,110,9999,9999,9999,576415840
41,24,14,Improv_Melody,111,9999,9999,9999,576916560
41,24,14,Improv_Melody,112,9999,9999,9999,577416288
41,24,14,Improv_Melody,113,9999,9999,9999,577915996
41,24,14,Improv_Melody,114,9999,9999,9999,578416756
41,24,14,Improv_Melody,115,9999,9999,9999,578916436
41,24,14,Improv_Melody,116,9999,9999,9999,579416172
41,24,14,Improv_Melody,117,9999,9999,9999,579915896
41,24,14,Improv_Melody,118,9999,9999,9999,580416620
41,24,14,Improv_Melody,119,9999,9999,9999,580916304
41,24,14,Improv_Melody,120,9999,9999,9999,581416048
41,24,14,Improv_Melody,121,9999,9999,9999,581916764
41,24,14,Improv_Melody,122,9999,9999,9999,582416464
41,24,14,Improv_Melody,123,9999,9999,9999,582916160
41,24,14,Improv_Melody,124,9999,9999,9999,583415912
41,24,14,Improv_Melody,125,9999,9999,9999,583916640
41,24,14,Improv_Melody,126,9999,9999,9999,584416316
41,24,14,Improv_Melody,127,9999,9999,9999,584916076
41,24,14,Improv_Melody,128,9999,9999,9999,585416800
41,24,14,Improv_Melody,129,9999,9999,9999,585916524
41,24,14,Improv_Melody,130,9999,9999,9999,586416204
41,24,14,Improv_Melody,131,9999,9999,9999,586915932
41,24,14,Improv_Melody,132,9999,9999,9999,587416640
41,24,14,Improv_Melody,133,9999,9999,9999,587916340
41,24,14,Improv_Melody,134,9999,9999,9999,588416120
41,24,14,Improv_Melody,135,9999,9999,9999,588915796
41,24,14,Improv_Melody,136,9999,9999,9999,589416500
41,24,14,Improv_Melody,137,9999,9999,9999,589916228
41,24,14,Improv_Melody,138,9999,9999,9999,590415972
41,24,14,Improv_Melody,139,9999,9999,9999,590916668
41,24,14,Improv_Melody,140,9999,9999,9999,591416424
41,24,14,Improv_Melody,141,9999,9999,9999,591916124
41,24,14,Improv_Melody,142,9999,9999,9999,592415812
41,24,14,Improv_Melody,143,9999,9999,9999,592916580
41,24,14,Improv_Melody,144,9999,9999,9999,593416264
41,24,14,Improv_Melody,145,9999,9999,9999,593916012
41,24,14,Improv_Melody,146,9999,9999,9999,594416740
41,24,14,Improv_Melody,147,9999,9999,9999,594916436
41,24,14,Improv_Melody,148,9999,9999,9999,595416124
41,24,14,Improv_Melody,149,9999,9999,9999,595915896
41,24,14,Improv_Melody,150,9999,9999,9999,596416600
41,24,14,Improv_Melody,151,9999,9999,9999,596916284
41,24,14,Improv_Melody,152,9999,9999,9999,597416016
41,24,14,Improv_Melody,153,9999,9999,9999,597916756
41,24,14,Improv_Melody,154,9999,9999,9999,598416432
41,24,14,Improv_Melody,155,9999,9999,9999,598916164
41,24,14,Improv_Melody,156,9999,9999,9999,599415880
41,24,14,Improv_Melody,157,9999,9999,9999,599916652
41,24,14,Improv_Melody,158,9999,9999,9999,600416348
41,24,14,Improv_Melody,159,9999,9999,9999,600916088
41,24,14,Improv_Melody,160,9999,9999,9999,601416792
41,24,14,Improv_Melody,161,9999,9999,9999,601916476
