pid,taskRunCount,taskID,taskName,i,channel,pitch,velocity,microseconds
42,1,0,Ticks_Pract_8,0,1,48,29,714730736
42,1,0,Ticks_Pract_8,1,5,42,127,715531760
42,1,0,Ticks_Pract_8,2,5,42,127,716332264
42,1,0,Ticks_Pract_8,3,5,42,127,717132092
42,1,0,Ticks_Pract_8,4,5,42,127,717931996
42,1,0,Ticks_Pract_8,5,1,48,15,718343860
42,1,0,Ticks_Pract_8,6,5,42,127,718731728
42,1,0,Ticks_Pract_8,7,1,48,37,718754172
42,1,0,Ticks_Pract_8,8,5,42,127,719532388
42,1,0,Ticks_Pract_8,9,1,48,39,719551436
42,1,0,Ticks_Pract_8,10,1,48,46,720319364
42,1,0,Ticks_Pract_8,11,5,42,127,720332112
42,1,0,Ticks_Pract_8,12,1,48,46,721131176
42,1,0,Ticks_Pract_8,13,5,42,127,721132968
42,1,0,Ticks_Pract_8,14,5,42,127,721931588
42,1,0,Ticks_Pract_8,15,1,48,37,721947200
42,1,0,Ticks_Pract_8,16,5,42,127,722732592
42,1,0,Ticks_Pract_8,17,1,48,50,722733928
42,1,0,Ticks_Pract_8,18,1,48,47,723505436
42,1,0,Ticks_Pract_8,19,5,42,127,723532024
42,1,0,Ticks_Pract_8,20,1,48,47,724319608
42,1,0,Ticks_Pract_8,21,5,42,127,724331832
42,1,0,Ticks_Pract_8,22,1,48,44,725116492
42,1,0,Ticks_Pract_8,23,5,42,127,725131788
42,1,0,Ticks_Pract_8,24,5,42,127,725932648
42,1,0,Ticks_Pract_8,25,1,48,43,725961648
42,1,0,Ticks_Pract_8,26,5,42,127,726732160
42,1,0,Ticks_Pract_8,27,1,48,45,726763472
42,1,0,Ticks_Pract_8,28,1,48,53,727512480
42,1,0,Ticks_Pract_8,29,5,42,127,727531960
42,1,0,Ticks_Pract_8,30,5,42,127,728331700
42,1,0,Ticks_Pract_8,31,1,48,54,728356136
42,1,0,Ticks_Pract_8,32,5,42,127,729132628
42,1,0,Ticks_Pract_8,33,1,48,50,729150564
42,1,0,Ticks_Pract_8,34,5,42,127,729931992
42,1,0,Ticks_Pract_8,35,1,48,44,729942068
42,1,0,Ticks_Pract_8,36,5,42,127,730731948
42,1,0,Ticks_Pract_8,37,1,48,45,730767328
42,1,0,Ticks_Pract_8,38,5,42,127,731531608
42,1,0,Ticks_Pract_8,39,1,48,49,731559112
42,1,0,Ticks_Pract_8,40,1,48,51,732329132
42,1,0,Ticks_Pract_8,41,5,42,127,732332380
42,1,0,Ticks_Pract_8,42,1,48,49,733094828
42,1,0,Ticks_Pract_8,43,5,42,127,733132336
42,1,0,Ticks_Pract_8,44,5,42,127,733931856
42,1,0,Ticks_Pract_8,45,1,48,50,733947244
42,1,0,Ticks_Pract_8,46,1,48,43,734727060
42,1,0,Ticks_Pract_8,47,5,42,127,734731732
42,1,0,Ticks_Pract_8,48,5,42,127,735532444
42,1,0,Ticks_Pract_8,49,1,48,48,735533408
42,1,0,Ticks_Pract_8,50,5,42,127,736332324
42,1,0,Ticks_Pract_8,51,1,48,43,736338068
42,1,0,Ticks_Pract_8,52,1,48,51,737123264
42,1,0,Ticks_Pract_8,53,5,42,127,737131904
42,1,0,Ticks_Pract_8,54,1,48,53,737922104
42,1,0,Ticks_Pract_8,55,5,42,127,737931636
42,1,0,Ticks_Pract_8,56,5,42,127,738732524
42,1,0,Ticks_Pract_8,57,1,48,50,738755312
42,1,0,Ticks_Pract_8,0,9999,9999,9999,715529320
42,1,0,Ticks_Pract_8,1,9999,9999,9999,716330048
42,1,0,Ticks_Pract_8,2,9999,9999,9999,717129804
42,1,0,Ticks_Pract_8,3,9999,9999,9999,717929560
42,1,0,Ticks_Pract_8,4,9999,9999,9999,718729292
42,1,0,Ticks_Pract_8,5,9999,9999,9999,719530096
42,1,0,Ticks_Pract_8,6,9999,9999,9999,720329824
42,1,0,Ticks_Pract_8,7,9999,9999,9999,721129568
42,1,0,Ticks_Pract_8,8,9999,9999,9999,721929300
42,1,0,Ticks_Pract_8,9,9999,9999,9999,722730080
42,1,0,Ticks_Pract_8,10,9999,9999,9999,723529808
42,1,0,Ticks_Pract_8,11,9999,9999,9999,724329544
42,1,0,Ticks_Pract_8,12,9999,9999,9999,725129276
42,1,0,Ticks_Pract_8,13,9999,9999,9999,725930064
42,1,0,Ticks_Pract_8,14,9999,9999,9999,726729796
42,1,0,Ticks_Pract_8,15,9999,9999,9999,727529524
42,1,0,Ticks_Pract_8,16,9999,9999,9999,728329264
42,1,0,Ticks_Pract_8,17,9999,9999,9999,729130044
42,1,0,Ticks_Pract_8,18,9999,9999,9999,729929776
42,1,0,Ticks_Pract_8,19,9999,9999,9999,730729584
42,1,0,Ticks_Pract_8,20,9999,9999,9999,731529320
42,1,0,Ticks_Pract_8,21,9999,9999,9999,732330092
42,1,0,Ticks_Pract_8,22,9999,9999,9999,733129828
42,1,0,Ticks_Pract_8,23,9999,9999,9999,733929568
42,1,0,Ticks_Pract_8,24,9999,9999,9999,734729292
42,1,0,Ticks_Pract_8,25,9999,9999,9999,735530080
42,1,0,Ticks_Pract_8,26,9999,9999,9999,736329812
42,1,0,Ticks_Pract_8,27,9999,9999,9999,737129540
42,1,0,Ticks_Pract_8,28,9999,9999,9999,737929272
42,1,0,Ticks_Pract_8,29,9999,9999,9999,738730084
42,2,1,Ticks_Pract_5,0,5,42,127,752308804
42,2,1,Ticks_Pract_5,1,5,42,127,752809344
42,2,1,Ticks_Pract_5,2,5,42,127,753309064
42,2,1,Ticks_Pract_5,3,5,42,127,753808928
42,2,1,Ticks_Pract_5,4,5,42,127,754308396
42,2,1,Ticks_Pract_5,5,5,42,127,754809236
42,2,1,Ticks_Pract_5,6,5,42,127,755308876
42,2,1,Ticks_Pract_5,7,5,42,127,755808816
42,2,1,Ticks_Pract_5,8,5,42,127,756309280
42,2,1,Ticks_Pract_5,9,1,48,53,756313964
42,2,1,Ticks_Pract_5,10,1,48,58,756775052
42,2,1,Ticks_Pract_5,11,5,42,127,756808968
42,2,1,Ticks_Pract_5,12,1,48,60,757265548
42,2,1,Ticks_Pract_5,13,5,42,127,757308812
42,2,1,Ticks_Pract_5,14,1,48,60,757769428
42,2,1,Ticks_Pract_5,15,5,42,127,757808656
42,2,1,Ticks_Pract_5,16,1,48,64,758268300
42,2,1,Ticks_Pract_5,17,5,42,127,758309248
42,2,1,Ticks_Pract_5,18,1,48,59,758758796
42,2,1,Ticks_Pract_5,19,5,42,127,758808792
42,2,1,Ticks_Pract_5,20,1,48,60,759270532
42,2,1,Ticks_Pract_5,21,5,42,127,759308932
42,2,1,Ticks_Pract_5,22,1,48,57,759779124
42,2,1,Ticks_Pract_5,23,5,42,127,759809380
42,2,1,Ticks_Pract_5,24,1,48,59,760269692
42,2,1,Ticks_Pract_5,25,5,42,127,760309072
42,2,1,Ticks_Pract_5,26,1,48,50,760789808
42,2,1,Ticks_Pract_5,27,5,42,127,760808768
42,2,1,Ticks_Pract_5,28,1,48,58,761266544
42,2,1,Ticks_Pract_5,29,5,42,127,761308612
42,2,1,Ticks_Pract_5,30,1,48,60,761746488
42,2,1,Ticks_Pract_5,31,5,42,127,761809128
42,2,1,Ticks_Pract_5,32,1,48,62,762260096
42,2,1,Ticks_Pract_5,33,5,42,127,762308900
42,2,1,Ticks_Pract_5,34,1,48,56,762772656
42,2,1,Ticks_Pract_5,35,5,42,127,762808668
42,2,1,Ticks_Pract_5,36,1,48,67,763240464
42,2,1,Ticks_Pract_5,37,5,42,127,763309556
42,2,1,Ticks_Pract_5,38,1,48,54,763753988
42,2,1,Ticks_Pract_5,39,5,42,127,763809100
42,2,1,Ticks_Pract_5,40,1,48,50,764278068
42,2,1,Ticks_Pract_5,41,5,42,127,764308868
42,2,1,Ticks_Pract_5,42,1,48,46,764794068
42,2,1,Ticks_Pract_5,43,5,42,127,764808688
42,2,1,Ticks_Pract_5,44,1,48,55,765280820
42,2,1,Ticks_Pract_5,45,5,42,127,765309428
42,2,1,Ticks_Pract_5,46,1,48,55,765756736
42,2,1,Ticks_Pract_5,47,5,42,127,765809048
42,2,1,Ticks_Pract_5,48,1,48,52,766260764
42,2,1,Ticks_Pract_5,49,5,42,127,766308672
42,2,1,Ticks_Pract_5,50,1,48,46,766772728
42,2,1,Ticks_Pract_5,51,5,42,127,766808736
42,2,1,Ticks_Pract_5,52,1,48,43,767257616
42,2,1,Ticks_Pract_5,53,5,42,127,767309032
42,2,1,Ticks_Pract_5,54,1,48,53,767751844
42,2,1,Ticks_Pract_5,55,5,42,127,767808876
42,2,1,Ticks_Pract_5,56,1,48,51,768261860
42,2,1,Ticks_Pract_5,57,5,42,127,768308492
42,2,1,Ticks_Pract_5,58,1,48,50,768767092
42,2,1,Ticks_Pract_5,59,5,42,127,768809608
42,2,1,Ticks_Pract_5,60,1,48,48,769266108
42,2,1,Ticks_Pract_5,61,5,42,127,769308932
42,2,1,Ticks_Pract_5,62,1,48,44,769774552
42,2,1,Ticks_Pract_5,63,5,42,127,769808700
42,2,1,Ticks_Pract_5,64,1,48,46,770274476
42,2,1,Ticks_Pract_5,65,5,42,127,770308692
42,2,1,Ticks_Pract_5,66,1,48,44,770776792
42,2,1,Ticks_Pract_5,67,5,42,127,770809360
42,2,1,Ticks_Pract_5,68,1,48,43,771286284
42,2,1,Ticks_Pract_5,69,5,42,127,771308980
42,2,1,Ticks_Pract_5,70,1,48,48,771754188
42,2,1,Ticks_Pract_5,71,5,42,127,771808528
42,2,1,Ticks_Pract_5,72,1,48,42,772275276
42,2,1,Ticks_Pract_5,0,9999,9999,9999,752306296
42,2,1,Ticks_Pract_5,1,9999,9999,9999,752806984
42,2,1,Ticks_Pract_5,2,9999,9999,9999,753306704
42,2,1,Ticks_Pract_5,3,9999,9999,9999,753806416
42,2,1,Ticks_Pract_5,4,9999,9999,9999,754306108
42,2,1,Ticks_Pract_5,5,9999,9999,9999,754806872
42,2,1,Ticks_Pract_5,6,9999,9999,9999,755306588
42,2,1,Ticks_Pract_5,7,9999,9999,9999,755806308
42,2,1,Ticks_Pract_5,8,9999,9999,9999,756307068
42,2,1,Ticks_Pract_5,9,9999,9999,9999,756806756
42,2,1,Ticks_Pract_5,10,9999,9999,9999,757306452
42,2,1,Ticks_Pract_5,11,9999,9999,9999,757806148
42,2,1,Ticks_Pract_5,12,9999,9999,9999,758306888
42,2,1,Ticks_Pract_5,13,9999,9999,9999,758806580
42,2,1,Ticks_Pract_5,14,9999,9999,9999,759306348
42,2,1,Ticks_Pract_5,15,9999,9999,9999,759807092
42,2,1,Ticks_Pract_5,16,9999,9999,9999,760306784
42,2,1,Ticks_Pract_5,17,9999,9999,9999,760806480
42,2,1,Ticks_Pract_5,18,9999,9999,9999,761306176
42,2,1,Ticks_Pract_5,19,9999,9999,9999,761806916
42,2,1,Ticks_Pract_5,20,9999,9999,9999,762306612
42,2,1,Ticks_Pract_5,21,9999,9999,9999,762806380
42,2,1,Ticks_Pract_5,22,9999,9999,9999,763307120
42,2,1,Ticks_Pract_5,23,9999,9999,9999,763806816
42,2,1,Ticks_Pract_5,24,9999,9999,9999,764306508
42,2,1,Ticks_Pract_5,25,9999,9999,9999,764806252
42,2,1,Ticks_Pract_5,26,9999,9999,9999,765306992
42,2,1,Ticks_Pract_5,27,9999,9999,9999,765806688
42,2,1,Ticks_Pract_5,28,9999,9999,9999,766306384
42,2,1,Ticks_Pract_5,29,9999,9999,9999,766806080
42,2,1,Ticks_Pract_5,30,9999,9999,9999,767306820
42,2,1,Ticks_Pract_5,31,9999,9999,9999,767806588
42,2,1,Ticks_Pract_5,32,9999,9999,9999,768306284
42,2,1,Ticks_Pract_5,33,9999,9999,9999,768807024
42,2,1,Ticks_Pract_5,34,9999,9999,9999,769306720
42,2,1,Ticks_Pract_5,35,9999,9999,9999,769806412
42,2,1,Ticks_Pract_5,36,9999,9999,9999,770306108
42,2,1,Ticks_Pract_5,37,9999,9999,9999,770806852
42,2,1,Ticks_Pract_5,38,9999,9999,9999,771306620
42,2,1,Ticks_Pract_5,39,9999,9999,9999,771806316
42,3,2,T1_SMS_8,0,1,38,27,857303528
42,3,2,T1_SMS_8,1,1,38,16,857304192
42,3,2,T1_SMS_8,2,5,42,127,858105404
42,3,2,T1_SMS_8,3,5,42,127,858905012
42,3,2,T1_SMS_8,4,5,42,127,859704616
42,3,2,T1_SMS_8,5,5,42,127,860504372
42,3,2,T1_SMS_8,6,5,42,127,861305252
42,3,2,T1_SMS_8,7,1,48,43,861348192
42,3,2,T1_SMS_8,8,1,48,58,862086424
42,3,2,T1_SMS_8,9,5,42,127,862105372
42,3,2,T1_SMS_8,10,1,48,53,862883608
42,3,2,T1_SMS_8,11,5,42,127,862904812
42,3,2,T1_SMS_8,12,1,48,55,863655888
42,3,2,T1_SMS_8,13,5,42,127,863704544
42,3,2,T1_SMS_8,14,1,48,51,864453232
42,3,2,T1_SMS_8,15,5,42,127,864505248
42,3,2,T1_SMS_8,16,1,48,49,865282140
42,3,2,T1_SMS_8,17,5,42,127,865305280
42,3,2,T1_SMS_8,18,1,48,40,866073344
42,3,2,T1_SMS_8,19,5,42,127,866104792
42,3,2,T1_SMS_8,20,1,48,51,866879136
42,3,2,T1_SMS_8,21,5,42,127,866904528
42,3,2,T1_SMS_8,22,1,48,55,867656808
42,3,2,T1_SMS_8,23,5,42,127,867705080
42,3,2,T1_SMS_8,24,1,48,54,868500316
42,3,2,T1_SMS_8,25,5,42,127,868505136
42,3,2,T1_SMS_8,26,5,42,127,869304804
42,3,2,T1_SMS_8,27,1,48,46,869325796
42,3,2,T1_SMS_8,28,1,48,54,870095744
42,3,2,T1_SMS_8,29,5,42,127,870104384
42,3,2,T1_SMS_8,30,1,48,60,870879848
42,3,2,T1_SMS_8,31,5,42,127,870905164
42,3,2,T1_SMS_8,32,1,48,45,871688780
42,3,2,T1_SMS_8,33,5,42,127,871704968
42,3,2,T1_SMS_8,34,1,48,53,872475644
42,3,2,T1_SMS_8,35,5,42,127,872504852
42,3,2,T1_SMS_8,36,1,48,55,873280768
42,3,2,T1_SMS_8,37,5,42,127,873304512
42,3,2,T1_SMS_8,38,1,48,59,874101368
42,3,2,T1_SMS_8,39,5,42,127,874105068
42,3,2,T1_SMS_8,40,1,48,51,874876568
42,3,2,T1_SMS_8,41,5,42,127,874904900
42,3,2,T1_SMS_8,42,1,48,61,875681868
42,3,2,T1_SMS_8,43,5,42,127,875704932
42,3,2,T1_SMS_8,44,1,48,57,876470528
42,3,2,T1_SMS_8,45,5,42,127,876504444
42,3,2,T1_SMS_8,46,1,48,55,877269736
42,3,2,T1_SMS_8,47,5,42,127,877305072
42,3,2,T1_SMS_8,48,1,48,59,878089372
42,3,2,T1_SMS_8,49,5,42,127,878104808
42,3,2,T1_SMS_8,50,5,42,127,878904848
42,3,2,T1_SMS_8,51,1,48,58,878909988
42,3,2,T1_SMS_8,52,1,48,58,879699752
42,3,2,T1_SMS_8,53,5,42,127,879704424
42,3,2,T1_SMS_8,54,1,48,51,880505064
42,3,2,T1_SMS_8,55,5,42,127,880506700
42,3,2,T1_SMS_8,56,1,48,58,881293636
42,3,2,T1_SMS_8,57,5,42,127,881304816
42,3,2,T1_SMS_8,58,1,48,54,882092844
42,3,2,T1_SMS_8,59,5,42,127,882104548
42,3,2,T1_SMS_8,60,1,48,61,882882856
42,3,2,T1_SMS_8,61,5,42,127,882904356
42,3,2,T1_SMS_8,62,5,42,127,883705068
42,3,2,T1_SMS_8,63,1,48,51,883721280
42,3,2,T1_SMS_8,64,1,48,46,884502440
42,3,2,T1_SMS_8,65,5,42,127,884504872
42,3,2,T1_SMS_8,66,1,48,44,885302864
42,3,2,T1_SMS_8,67,5,42,127,885304604
42,3,2,T1_SMS_8,68,5,42,127,886104640
42,3,2,T1_SMS_8,69,1,48,49,886117788
42,3,2,T1_SMS_8,70,1,48,50,886867760
42,3,2,T1_SMS_8,71,5,42,127,886905488
42,3,2,T1_SMS_8,72,1,48,46,887682452
42,3,2,T1_SMS_8,73,5,42,127,887704876
42,3,2,T1_SMS_8,74,1,48,46,888503556
42,3,2,T1_SMS_8,75,5,42,127,888505356
42,3,2,T1_SMS_8,76,1,48,47,889304348
42,3,2,T1_SMS_8,77,5,42,127,889305980
42,3,2,T1_SMS_8,78,5,42,127,890105128
42,3,2,T1_SMS_8,79,1,48,54,890111388
42,3,2,T1_SMS_8,80,1,48,48,890882904
42,3,2,T1_SMS_8,81,5,42,127,890904928
42,3,2,T1_SMS_8,82,1,48,51,891669100
42,3,2,T1_SMS_8,83,5,42,127,891704664
42,3,2,T1_SMS_8,84,1,48,55,892452980
42,3,2,T1_SMS_8,85,5,42,127,892504320
42,3,2,T1_SMS_8,86,1,48,50,893268124
42,3,2,T1_SMS_8,87,5,42,127,893305328
42,3,2,T1_SMS_8,88,1,48,51,894057308
42,3,2,T1_SMS_8,89,5,42,127,894104864
42,3,2,T1_SMS_8,90,1,48,50,894879884
42,3,2,T1_SMS_8,91,5,42,127,894904672
42,3,2,T1_SMS_8,92,1,48,51,895660540
42,3,2,T1_SMS_8,93,5,42,127,895704552
42,3,2,T1_SMS_8,94,1,48,47,896468352
42,3,2,T1_SMS_8,95,5,42,127,896505184
42,3,2,T1_SMS_8,96,1,48,52,897279828
42,3,2,T1_SMS_8,97,5,42,127,897304844
42,3,2,T1_SMS_8,98,1,48,55,898075148
42,3,2,T1_SMS_8,99,5,42,127,898104576
42,3,2,T1_SMS_8,100,1,48,50,898892088
42,3,2,T1_SMS_8,101,5,42,127,898904312
42,3,2,T1_SMS_8,102,1,48,52,899685236
42,3,2,T1_SMS_8,103,5,42,127,899705388
42,3,2,T1_SMS_8,104,1,48,58,900470236
42,3,2,T1_SMS_8,105,5,42,127,900505072
42,3,2,T1_SMS_8,106,1,48,65,901298716
42,3,2,T1_SMS_8,107,5,42,127,901304732
42,3,2,T1_SMS_8,108,1,48,63,902084912
42,3,2,T1_SMS_8,109,5,42,127,902104392
42,3,2,T1_SMS_8,110,1,48,61,902879488
42,3,2,T1_SMS_8,111,5,42,127,902905248
42,3,2,T1_SMS_8,112,1,48,59,903675624
42,3,2,T1_SMS_8,113,5,42,127,903705128
42,3,2,T1_SMS_8,114,1,48,56,904503816
42,3,2,T1_SMS_8,115,5,42,127,904505460
42,3,2,T1_SMS_8,116,1,48,60,905281524
42,3,2,T1_SMS_8,117,5,42,127,905304372
42,3,2,T1_SMS_8,118,1,48,49,906091132
42,3,2,T1_SMS_8,119,5,42,127,906105376
42,3,2,T1_SMS_8,120,1,48,53,906872168
42,3,2,T1_SMS_8,121,5,42,127,906905132
42,3,2,T1_SMS_8,122,1,48,58,907678356
42,3,2,T1_SMS_8,123,5,42,127,907704716
42,3,2,T1_SMS_8,124,1,48,62,908465972
42,3,2,T1_SMS_8,125,5,42,127,908504528
42,3,2,T1_SMS_8,126,1,48,58,909258904
42,3,2,T1_SMS_8,127,5,42,127,909305160
42,3,2,T1_SMS_8,128,1,48,55,910052952
42,3,2,T1_SMS_8,129,5,42,127,910105192
42,3,2,T1_SMS_8,130,1,48,61,910876996
42,3,2,T1_SMS_8,131,5,42,127,910904628
42,3,2,T1_SMS_8,132,1,48,58,911683908
42,3,2,T1_SMS_8,133,5,42,127,911704436
42,3,2,T1_SMS_8,134,1,48,53,912488880
42,3,2,T1_SMS_8,135,5,42,127,912505140
42,3,2,T1_SMS_8,136,5,42,127,913305056
42,3,2,T1_SMS_8,137,1,48,54,913306540
42,3,2,T1_SMS_8,138,5,42,127,914104716
42,3,2,T1_SMS_8,139,1,48,56,914113440
42,3,2,T1_SMS_8,140,5,42,127,914904896
42,3,2,T1_SMS_8,141,1,48,56,914909736
42,3,2,T1_SMS_8,142,1,48,60,915674820
42,3,2,T1_SMS_8,143,5,42,127,915705144
42,3,2,T1_SMS_8,144,1,48,66,916467752
42,3,2,T1_SMS_8,145,5,42,127,916505028
42,3,2,T1_SMS_8,146,1,48,63,917290740
42,3,2,T1_SMS_8,147,5,42,127,917304688
42,3,2,T1_SMS_8,148,1,48,55,918083672
42,3,2,T1_SMS_8,149,5,42,127,918104344
42,3,2,T1_SMS_8,150,1,48,61,918876300
42,3,2,T1_SMS_8,151,5,42,127,918905200
42,3,2,T1_SMS_8,152,1,48,59,919684580
42,3,2,T1_SMS_8,153,5,42,127,919704884
42,3,2,T1_SMS_8,154,5,42,127,920504920
42,3,2,T1_SMS_8,155,1,48,57,920508868
42,3,2,T1_SMS_8,156,1,48,57,921279932
42,3,2,T1_SMS_8,157,5,42,127,921304276
42,3,2,T1_SMS_8,158,1,48,61,922027980
42,3,2,T1_SMS_8,159,5,42,127,922105132
42,3,2,T1_SMS_8,160,1,48,67,922862720
42,3,2,T1_SMS_8,161,5,42,127,922904940
42,3,2,T1_SMS_8,162,5,42,127,923704752
42,3,2,T1_SMS_8,163,1,48,62,923720068
42,3,2,T1_SMS_8,164,1,48,59,924494876
42,3,2,T1_SMS_8,165,5,42,127,924504480
42,3,2,T1_SMS_8,166,1,48,52,925270744
42,3,2,T1_SMS_8,167,5,42,127,925305112
42,3,2,T1_SMS_8,168,1,48,65,926065020
42,3,2,T1_SMS_8,169,5,42,127,926104944
42,3,2,T1_SMS_8,170,1,48,62,926850040
42,3,2,T1_SMS_8,171,5,42,127,926904752
42,3,2,T1_SMS_8,172,1,48,76,927662492
42,3,2,T1_SMS_8,173,5,42,127,927704636
42,3,2,T1_SMS_8,174,1,48,61,928456240
42,3,2,T1_SMS_8,175,5,42,127,928505044
42,3,2,T1_SMS_8,176,1,48,69,929246552
42,3,2,T1_SMS_8,177,5,42,127,929304848
42,3,2,T1_SMS_8,178,1,48,59,930029228
42,3,2,T1_SMS_8,179,5,42,127,930104656
42,3,2,T1_SMS_8,180,1,48,56,930854992
42,3,2,T1_SMS_8,181,5,42,127,930904540
42,3,2,T1_SMS_8,182,1,48,53,931648892
42,3,2,T1_SMS_8,183,5,42,127,931705616
42,3,2,T1_SMS_8,184,1,48,48,932451396
42,3,2,T1_SMS_8,185,5,42,127,932504856
42,3,2,T1_SMS_8,186,1,48,65,933261548
42,3,2,T1_SMS_8,187,5,42,127,933304588
42,3,2,T1_SMS_8,188,1,48,63,934054248
42,3,2,T1_SMS_8,189,5,42,127,934104468
42,3,2,T1_SMS_8,190,1,48,60,934868792
42,3,2,T1_SMS_8,191,5,42,127,934905400
42,3,2,T1_SMS_8,192,1,48,61,935664712
42,3,2,T1_SMS_8,193,5,42,127,935704908
42,3,2,T1_SMS_8,194,5,42,127,936504724
42,3,2,T1_SMS_8,195,1,48,64,936508520
42,3,2,T1_SMS_8,196,5,42,127,937304380
42,3,2,T1_SMS_8,197,1,48,57,937324328
42,3,2,T1_SMS_8,198,5,42,127,938105308
42,3,2,T1_SMS_8,199,1,48,62,938106276
42,3,2,T1_SMS_8,200,1,48,54,938885284
42,3,2,T1_SMS_8,201,5,42,127,938904912
42,3,2,T1_SMS_8,202,1,48,56,939700648
42,3,2,T1_SMS_8,203,5,42,127,939704868
42,3,2,T1_SMS_8,204,1,48,56,940484824
42,3,2,T1_SMS_8,205,5,42,127,940504452
42,3,2,T1_SMS_8,206,1,48,54,941282236
42,3,2,T1_SMS_8,207,5,42,127,941305160
42,3,2,T1_SMS_8,208,1,48,62,942082940
42,3,2,T1_SMS_8,209,5,42,127,942105188
42,3,2,T1_SMS_8,210,1,48,51,942870036
42,3,2,T1_SMS_8,211,5,42,127,942904700
42,3,2,T1_SMS_8,212,1,48,61,943674856
42,3,2,T1_SMS_8,213,5,42,127,943704432
42,3,2,T1_SMS_8,214,1,48,61,944475108
42,3,2,T1_SMS_8,215,5,42,127,944505140
42,3,2,T1_SMS_8,216,1,48,59,945256748
42,3,2,T1_SMS_8,217,5,42,127,945305120
42,3,2,T1_SMS_8,218,1,48,53,946077748
42,3,2,T1_SMS_8,219,5,42,127,946104628
42,3,2,T1_SMS_8,220,1,48,59,946898720
42,3,2,T1_SMS_8,221,5,42,127,946904288
42,3,2,T1_SMS_8,222,1,48,55,947687980
42,3,2,T1_SMS_8,223,5,42,127,947705140
42,3,2,T1_SMS_8,224,1,48,57,948488160
42,3,2,T1_SMS_8,225,5,42,127,948505024
42,3,2,T1_SMS_8,226,1,48,59,949288568
42,3,2,T1_SMS_8,227,5,42,127,949304532
42,3,2,T1_SMS_8,228,5,42,127,950104496
42,3,2,T1_SMS_8,229,1,48,56,950113380
42,3,2,T1_SMS_8,230,1,48,58,950889760
42,3,2,T1_SMS_8,231,5,42,127,950905124
42,3,2,T1_SMS_8,232,1,48,62,951684204
42,3,2,T1_SMS_8,233,5,42,127,951704880
42,3,2,T1_SMS_8,234,1,48,59,952480572
42,3,2,T1_SMS_8,235,5,42,127,952504840
42,3,2,T1_SMS_8,236,1,48,67,953292644
42,3,2,T1_SMS_8,237,5,42,127,953304348
42,3,2,T1_SMS_8,238,1,48,59,954095748
42,3,2,T1_SMS_8,0,9999,9999,9999,858102892
42,3,2,T1_SMS_8,1,9999,9999,9999,858902576
42,3,2,T1_SMS_8,2,9999,9999,9999,859702328
42,3,2,T1_SMS_8,3,9999,9999,9999,860502084
42,3,2,T1_SMS_8,4,9999,9999,9999,861302888
42,3,2,T1_SMS_8,5,9999,9999,9999,862102640
42,3,2,T1_SMS_8,6,9999,9999,9999,862902372
42,3,2,T1_SMS_8,7,9999,9999,9999,863702108
42,3,2,T1_SMS_8,8,9999,9999,9999,864502888
42,3,2,T1_SMS_8,9,9999,9999,9999,865302620
42,3,2,T1_SMS_8,10,9999,9999,9999,866102356
42,3,2,T1_SMS_8,11,9999,9999,9999,866902088
42,3,2,T1_SMS_8,12,9999,9999,9999,867702868
42,3,2,T1_SMS_8,13,9999,9999,9999,868502628
42,3,2,T1_SMS_8,14,9999,9999,9999,869302364
42,3,2,T1_SMS_8,15,9999,9999,9999,870102096
42,3,2,T1_SMS_8,16,9999,9999,9999,870902876
42,3,2,T1_SMS_8,17,9999,9999,9999,871702608
42,3,2,T1_SMS_8,18,9999,9999,9999,872502340
42,3,2,T1_SMS_8,19,9999,9999,9999,873302072
42,3,2,T1_SMS_8,20,9999,9999,9999,874102856
42,3,2,T1_SMS_8,21,9999,9999,9999,874902612
42,3,2,T1_SMS_8,22,9999,9999,9999,875702348
42,3,2,T1_SMS_8,23,9999,9999,9999,876502080
42,3,2,T1_SMS_8,24,9999,9999,9999,877302860
42,3,2,T1_SMS_8,25,9999,9999,9999,878102596
42,3,2,T1_SMS_8,26,9999,9999,9999,878902336
42,3,2,T1_SMS_8,27,9999,9999,9999,879702064
42,3,2,T1_SMS_8,28,9999,9999,9999,880502852
42,3,2,T1_SMS_8,29,9999,9999,9999,881302600
42,3,2,T1_SMS_8,30,9999,9999,9999,882102336
42,3,2,T1_SMS_8,31,9999,9999,9999,882902068
42,3,2,T1_SMS_8,32,9999,9999,9999,883702856
42,3,2,T1_SMS_8,33,9999,9999,9999,884502584
42,3,2,T1_SMS_8,34,9999,9999,9999,885302340
42,3,2,T1_SMS_8,35,9999,9999,9999,886102128
42,3,2,T1_SMS_8,36,9999,9999,9999,886902904
42,3,2,T1_SMS_8,37,9999,9999,9999,887702588
42,3,2,T1_SMS_8,38,9999,9999,9999,888502328
42,3,2,T1_SMS_8,39,9999,9999,9999,889302132
42,3,2,T1_SMS_8,40,9999,9999,9999,890102840
42,3,2,T1_SMS_8,41,9999,9999,9999,890902640
42,3,2,T1_SMS_8,42,9999,9999,9999,891702376
42,3,2,T1_SMS_8,43,9999,9999,9999,892502108
42,3,2,T1_SMS_8,44,9999,9999,9999,893302888
42,3,2,T1_SMS_8,45,9999,9999,9999,894102576
42,3,2,T1_SMS_8,46,9999,9999,9999,894902384
42,3,2,T1_SMS_8,47,9999,9999,9999,895702116
42,3,2,T1_SMS_8,48,9999,9999,9999,896502896
42,3,2,T1_SMS_8,49,9999,9999,9999,897302628
42,3,2,T1_SMS_8,50,9999,9999,9999,898102364
42,3,2,T1_SMS_8,51,9999,9999,9999,898902100
42,3,2,T1_SMS_8,52,9999,9999,9999,899702880
42,3,2,T1_SMS_8,53,9999,9999,9999,900502636
42,3,2,T1_SMS_8,54,9999,9999,9999,901302368
42,3,2,T1_SMS_8,55,9999,9999,9999,902102104
42,3,2,T1_SMS_8,56,9999,9999,9999,902902884
42,3,2,T1_SMS_8,57,9999,9999,9999,903702616
42,3,2,T1_SMS_8,58,9999,9999,9999,904502356
42,3,2,T1_SMS_8,59,9999,9999,9999,905302084
42,3,2,T1_SMS_8,60,9999,9999,9999,906102864
42,3,2,T1_SMS_8,61,9999,9999,9999,906902624
42,3,2,T1_SMS_8,62,9999,9999,9999,907702356
42,3,2,T1_SMS_8,63,9999,9999,9999,908502092
42,3,2,T1_SMS_8,64,9999,9999,9999,909302872
42,3,2,T1_SMS_8,65,9999,9999,9999,910102604
42,3,2,T1_SMS_8,66,9999,9999,9999,910902340
42,3,2,T1_SMS_8,67,9999,9999,9999,911702072
42,3,2,T1_SMS_8,68,9999,9999,9999,912502852
42,3,2,T1_SMS_8,69,9999,9999,9999,913302616
42,3,2,T1_SMS_8,70,9999,9999,9999,914102352
42,3,2,T1_SMS_8,71,9999,9999,9999,914902084
42,3,2,T1_SMS_8,72,9999,9999,9999,915702860
42,3,2,T1_SMS_8,73,9999,9999,9999,916502592
42,3,2,T1_SMS_8,74,9999,9999,9999,917302324
42,3,2,T1_SMS_8,75,9999,9999,9999,918102132
42,3,2,T1_SMS_8,76,9999,9999,9999,918902840
42,3,2,T1_SMS_8,77,9999,9999,9999,919702596
42,3,2,T1_SMS_8,78,9999,9999,9999,920502336
42,3,2,T1_SMS_8,79,9999,9999,9999,921302064
42,3,2,T1_SMS_8,80,9999,9999,9999,922102844
42,3,2,T1_SMS_8,81,9999,9999,9999,922902576
42,3,2,T1_SMS_8,82,9999,9999,9999,923702392
42,3,2,T1_SMS_8,83,9999,9999,9999,924502120
42,3,2,T1_SMS_8,84,9999,9999,9999,925302896
42,3,2,T1_SMS_8,85,9999,9999,9999,926102580
42,3,2,T1_SMS_8,86,9999,9999,9999,926902392
42,3,2,T1_SMS_8,87,9999,9999,9999,927702124
42,3,2,T1_SMS_8,88,9999,9999,9999,928502828
42,3,2,T1_SMS_8,89,9999,9999,9999,929302636
42,3,2,T1_SMS_8,90,9999,9999,9999,930102368
42,3,2,T1_SMS_8,91,9999,9999,9999,930902104
42,3,2,T1_SMS_8,92,9999,9999,9999,931702880
42,3,2,T1_SMS_8,93,9999,9999,9999,932502640
42,3,2,T1_SMS_8,94,9999,9999,9999,933302376
42,3,2,T1_SMS_8,95,9999,9999,9999,934102108
42,3,2,T1_SMS_8,96,9999,9999,9999,934902888
42,3,2,T1_SMS_8,97,9999,9999,9999,935702620
42,3,2,T1_SMS_8,98,9999,9999,9999,936502360
42,3,2,T1_SMS_8,99,9999,9999,9999,937302092
42,3,2,T1_SMS_8,100,9999,9999,9999,938102872
42,3,2,T1_SMS_8,101,9999,9999,9999,938902624
42,3,2,T1_SMS_8,102,9999,9999,9999,939702356
42,3,2,T1_SMS_8,103,9999,9999,9999,940502092
42,3,2,T1_SMS_8,104,9999,9999,9999,941302872
42,3,2,T1_SMS_8,105,9999,9999,9999,942102604
42,3,2,T1_SMS_8,106,9999,9999,9999,942902340
42,3,2,T1_SMS_8,107,9999,9999,9999,943702072
42,3,2,T1_SMS_8,108,9999,9999,9999,944502852
42,3,2,T1_SMS_8,109,9999,9999,9999,945302608
42,3,2,T1_SMS_8,110,9999,9999,9999,946102340
42,3,2,T1_SMS_8,111,9999,9999,9999,946902076
42,3,2,T1_SMS_8,112,9999,9999,9999,947702856
42,3,2,T1_SMS_8,113,9999,9999,9999,948502588
42,3,2,T1_SMS_8,114,9999,9999,9999,949302320
42,3,2,T1_SMS_8,115,9999,9999,9999,950102136
42,3,2,T1_SMS_8,116,9999,9999,9999,950902836
42,3,2,T1_SMS_8,117,9999,9999,9999,951702592
42,3,2,T1_SMS_8,118,9999,9999,9999,952502328
42,3,2,T1_SMS_8,119,9999,9999,9999,953302136
42,4,4,T1_SMS_5,0,5,42,127,1005689300
42,4,4,T1_SMS_5,1,5,42,127,1006188868
42,4,4,T1_SMS_5,2,5,42,127,1006688584
42,4,4,T1_SMS_5,3,5,42,127,1007189348
42,4,4,T1_SMS_5,4,5,42,127,1007689064
42,4,4,T1_SMS_5,5,1,48,55,1007713272
42,4,4,T1_SMS_5,6,1,48,59,1008182660
42,4,4,T1_SMS_5,7,5,42,127,1008188680
42,4,4,T1_SMS_5,8,1,48,57,1008678392
42,4,4,T1_SMS_5,9,5,42,127,1008688376
42,4,4,T1_SMS_5,10,1,48,55,1009159908
42,4,4,T1_SMS_5,11,5,42,127,1009189192
42,4,4,T1_SMS_5,12,1,48,53,1009672248
42,4,4,T1_SMS_5,13,5,42,127,1009688888
42,4,4,T1_SMS_5,14,1,48,59,1010176952
42,4,4,T1_SMS_5,15,5,42,127,1010188584
42,4,4,T1_SMS_5,16,1,48,52,1010668048
42,4,4,T1_SMS_5,17,5,42,127,1010689248
42,4,4,T1_SMS_5,18,1,48,47,1011148444
42,4,4,T1_SMS_5,19,5,42,127,1011189392
42,4,4,T1_SMS_5,20,1,48,45,1011664292
42,4,4,T1_SMS_5,21,5,42,127,1011688788
42,4,4,T1_SMS_5,22,1,48,59,1012167880
42,4,4,T1_SMS_5,23,5,42,127,1012188556
42,4,4,T1_SMS_5,24,1,48,54,1012663084
42,4,4,T1_SMS_5,25,5,42,127,1012689152
42,4,4,T1_SMS_5,26,1,48,56,1013160832
42,4,4,T1_SMS_5,27,5,42,127,1013188920
42,4,4,T1_SMS_5,28,1,48,52,1013671304
42,4,4,T1_SMS_5,29,5,42,127,1013688616
42,4,4,T1_SMS_5,30,1,48,52,1014175628
42,4,4,T1_SMS_5,31,5,42,127,1014189356
42,4,4,T1_SMS_5,32,1,48,51,1014669192
42,4,4,T1_SMS_5,33,5,42,127,1014689424
42,4,4,T1_SMS_5,34,1,48,53,1015174120
42,4,4,T1_SMS_5,35,5,42,127,1015188968
42,4,4,T1_SMS_5,36,1,48,57,1015661080
42,4,4,T1_SMS_5,37,5,42,127,1015688440
42,4,4,T1_SMS_5,38,1,48,54,1016176180
42,4,4,T1_SMS_5,39,5,42,127,1016189256
42,4,4,T1_SMS_5,40,1,48,53,1016681488
42,4,4,T1_SMS_5,41,5,42,127,1016689148
42,4,4,T1_SMS_5,42,1,48,62,1017185296
42,4,4,T1_SMS_5,43,5,42,127,1017188620
42,4,4,T1_SMS_5,44,1,48,58,1017684540
42,4,4,T1_SMS_5,45,5,42,127,1017688464
42,4,4,T1_SMS_5,46,5,42,127,1018189288
42,4,4,T1_SMS_5,47,1,48,55,1018197124
42,4,4,T1_SMS_5,48,1,48,51,1018670988
42,4,4,T1_SMS_5,49,5,42,127,1018688976
42,4,4,T1_SMS_5,50,1,48,54,1019178244
42,4,4,T1_SMS_5,51,5,42,127,1019188524
42,4,4,T1_SMS_5,52,1,48,58,1019664548
42,4,4,T1_SMS_5,53,5,42,127,1019689264
42,4,4,T1_SMS_5,54,1,48,53,1020171424
42,4,4,T1_SMS_5,55,5,42,127,1020189108
42,4,4,T1_SMS_5,56,1,48,48,1020673212
42,4,4,T1_SMS_5,57,5,42,127,1020688728
42,4,4,T1_SMS_5,58,1,48,54,1021159816
42,4,4,T1_SMS_5,59,5,42,127,1021188648
42,4,4,T1_SMS_5,60,1,48,56,1021687280
42,4,4,T1_SMS_5,61,5,42,127,1021689092
42,4,4,T1_SMS_5,62,5,42,127,1022189092
42,4,4,T1_SMS_5,63,1,48,45,1022209268
42,4,4,T1_SMS_5,64,5,42,127,1022688564
42,4,4,T1_SMS_5,65,1,48,53,1022690576
42,4,4,T1_SMS_5,66,1,48,59,1023171536
42,4,4,T1_SMS_5,67,5,42,127,1023189376
42,4,4,T1_SMS_5,68,5,42,127,1023689076
42,4,4,T1_SMS_5,69,1,48,46,1023690636
42,4,4,T1_SMS_5,70,1,48,42,1024186576
42,4,4,T1_SMS_5,71,5,42,127,1024188840
42,4,4,T1_SMS_5,72,1,48,57,1024668684
42,4,4,T1_SMS_5,73,5,42,127,1024688460
42,4,4,T1_SMS_5,74,1,48,52,1025178996
42,4,4,T1_SMS_5,75,5,42,127,1025189128
42,4,4,T1_SMS_5,76,1,48,53,1025680860
42,4,4,T1_SMS_5,77,5,42,127,1025689120
42,4,4,T1_SMS_5,78,1,48,54,1026185788
42,4,4,T1_SMS_5,79,5,42,127,1026188592
42,4,4,T1_SMS_5,80,5,42,127,1026689340
42,4,4,T1_SMS_5,81,1,48,50,1026692308
42,4,4,T1_SMS_5,82,1,48,45,1027187952
42,4,4,T1_SMS_5,83,5,42,127,1027189748
42,4,4,T1_SMS_5,84,1,48,48,1027684400
42,4,4,T1_SMS_5,85,5,42,127,1027688920
42,4,4,T1_SMS_5,86,1,48,56,1028184840
42,4,4,T1_SMS_5,87,5,42,127,1028188540
42,4,4,T1_SMS_5,88,5,42,127,1028689364
42,4,4,T1_SMS_5,89,1,48,46,1028693532
42,4,4,T1_SMS_5,90,5,42,127,1029188912
42,4,4,T1_SMS_5,91,1,48,61,1029198832
42,4,4,T1_SMS_5,92,1,48,63,1029679216
42,4,4,T1_SMS_5,93,5,42,127,1029688820
42,4,4,T1_SMS_5,94,1,48,59,1030188216
42,4,4,T1_SMS_5,95,5,42,127,1030190092
42,4,4,T1_SMS_5,96,1,48,57,1030689340
42,4,4,T1_SMS_5,97,5,42,127,1030690980
42,4,4,T1_SMS_5,98,1,48,55,1031188960
42,4,4,T1_SMS_5,99,5,42,127,1031190604
42,4,4,T1_SMS_5,100,5,42,127,1031688728
42,4,4,T1_SMS_5,101,1,48,57,1031689696
42,4,4,T1_SMS_5,102,5,42,127,1032189176
42,4,4,T1_SMS_5,103,1,48,50,1032208528
42,4,4,T1_SMS_5,104,1,48,58,1032680004
42,4,4,T1_SMS_5,105,5,42,127,1032689016
42,4,4,T1_SMS_5,106,1,48,62,1033166384
42,4,4,T1_SMS_5,107,5,42,127,1033188636
42,4,4,T1_SMS_5,108,1,48,58,1033655388
42,4,4,T1_SMS_5,109,5,42,127,1033688408
42,4,4,T1_SMS_5,110,1,48,43,1034173252
42,4,4,T1_SMS_5,111,5,42,127,1034189148
42,4,4,T1_SMS_5,112,1,48,50,1034679684
42,4,4,T1_SMS_5,113,5,42,127,1034688992
42,4,4,T1_SMS_5,114,1,48,56,1035150432
42,4,4,T1_SMS_5,115,5,42,127,1035188836
42,4,4,T1_SMS_5,116,1,48,54,1035664636
42,4,4,T1_SMS_5,117,5,42,127,1035689356
42,4,4,T1_SMS_5,118,1,48,45,1036180640
42,4,4,T1_SMS_5,119,5,42,127,1036188976
42,4,4,T1_SMS_5,120,1,48,58,1036680484
42,4,4,T1_SMS_5,121,5,42,127,1036688892
42,4,4,T1_SMS_5,122,1,48,59,1037176556
42,4,4,T1_SMS_5,123,5,42,127,1037188588
42,4,4,T1_SMS_5,124,1,48,56,1037678276
42,4,4,T1_SMS_5,125,5,42,127,1037689084
42,4,4,T1_SMS_5,126,1,48,62,1038173684
42,4,4,T1_SMS_5,127,5,42,127,1038189052
42,4,4,T1_SMS_5,128,1,48,45,1038660140
42,4,4,T1_SMS_5,129,5,42,127,1038688744
42,4,4,T1_SMS_5,130,1,48,56,1039145544
42,4,4,T1_SMS_5,131,5,42,127,1039189488
42,4,4,T1_SMS_5,132,1,48,60,1039659232
42,4,4,T1_SMS_5,133,5,42,127,1039689032
42,4,4,T1_SMS_5,134,1,48,61,1040160568
42,4,4,T1_SMS_5,135,5,42,127,1040188728
42,4,4,T1_SMS_5,136,1,48,56,1040663256
42,4,4,T1_SMS_5,137,5,42,127,1040688572
42,4,4,T1_SMS_5,138,1,48,56,1041172604
42,4,4,T1_SMS_5,139,5,42,127,1041189316
42,4,4,T1_SMS_5,140,5,42,127,1041689020
42,4,4,T1_SMS_5,141,1,48,62,1041691988
42,4,4,T1_SMS_5,142,1,48,61,1042176480
42,4,4,T1_SMS_5,143,5,42,127,1042188632
42,4,4,T1_SMS_5,144,1,48,66,1042665852
42,4,4,T1_SMS_5,145,5,42,127,1042689520
42,4,4,T1_SMS_5,146,1,48,64,1043154772
42,4,4,T1_SMS_5,147,5,42,127,1043189068
42,4,4,T1_SMS_5,148,1,48,66,1043668160
42,4,4,T1_SMS_5,149,5,42,127,1043688836
42,4,4,T1_SMS_5,150,1,48,67,1044179892
42,4,4,T1_SMS_5,151,5,42,127,1044188532
42,4,4,T1_SMS_5,152,1,48,67,1044661936
42,4,4,T1_SMS_5,153,5,42,127,1044689424
42,4,4,T1_SMS_5,154,1,48,65,1045167988
42,4,4,T1_SMS_5,155,5,42,127,1045188968
42,4,4,T1_SMS_5,156,1,48,63,1045667536
42,4,4,T1_SMS_5,157,5,42,127,1045688740
42,4,4,T1_SMS_5,158,1,48,71,1046159680
42,4,4,T1_SMS_5,159,5,42,127,1046189408
42,4,4,T1_SMS_5,160,1,48,54,1046660868
42,4,4,T1_SMS_5,161,5,42,127,1046689104
42,4,4,T1_SMS_5,162,1,48,57,1047178216
42,4,4,T1_SMS_5,163,5,42,127,1047188948
42,4,4,T1_SMS_5,164,1,48,69,1047670552
42,4,4,T1_SMS_5,165,5,42,127,1047688492
42,4,4,T1_SMS_5,166,1,48,62,1048149084
42,4,4,T1_SMS_5,167,5,42,127,1048189456
42,4,4,T1_SMS_5,168,1,48,70,1048673232
42,4,4,T1_SMS_5,169,5,42,127,1048689128
42,4,4,T1_SMS_5,170,1,48,67,1049181308
42,4,4,T1_SMS_5,171,5,42,127,1049188596
42,4,4,T1_SMS_5,172,5,42,127,1049688372
42,4,4,T1_SMS_5,173,1,48,55,1049691936
42,4,4,T1_SMS_5,174,1,48,72,1050184812
42,4,4,T1_SMS_5,175,5,42,127,1050189256
42,4,4,T1_SMS_5,176,1,48,72,1050661916
42,4,4,T1_SMS_5,177,5,42,127,1050688952
42,4,4,T1_SMS_5,178,1,48,70,1051157576
42,4,4,T1_SMS_5,179,5,42,127,1051188500
42,4,4,T1_SMS_5,180,1,48,56,1051675292
42,4,4,T1_SMS_5,181,5,42,127,1051689536
42,4,4,T1_SMS_5,182,1,48,56,1052188112
42,4,4,T1_SMS_5,183,5,42,127,1052189908
42,4,4,T1_SMS_5,184,1,48,59,1052687044
42,4,4,T1_SMS_5,185,5,42,127,1052688928
42,4,4,T1_SMS_5,186,5,42,127,1053188332
42,4,4,T1_SMS_5,187,1,48,58,1053196836
42,4,4,T1_SMS_5,188,1,48,56,1053683344
42,4,4,T1_SMS_5,189,5,42,127,1053689288
42,4,4,T1_SMS_5,190,5,42,127,1054189140
42,4,4,T1_SMS_5,191,1,48,63,1054202208
42,4,4,T1_SMS_5,192,1,48,64,1054683632
42,4,4,T1_SMS_5,193,5,42,127,1054688608
42,4,4,T1_SMS_5,194,1,48,58,1055163204
42,4,4,T1_SMS_5,195,5,42,127,1055189348
42,4,4,T1_SMS_5,196,1,48,59,1055668064
42,4,4,T1_SMS_5,197,5,42,127,1055689264
42,4,4,T1_SMS_5,198,1,48,60,1056158860
42,4,4,T1_SMS_5,199,5,42,127,1056188884
42,4,4,T1_SMS_5,200,1,48,48,1056660196
42,4,4,T1_SMS_5,201,5,42,127,1056688356
42,4,4,T1_SMS_5,202,1,48,55,1057159744
42,4,4,T1_SMS_5,203,5,42,127,1057189248
42,4,4,T1_SMS_5,204,1,48,62,1057652980
42,4,4,T1_SMS_5,205,5,42,127,1057689164
42,4,4,T1_SMS_5,206,1,48,62,1058156264
42,4,4,T1_SMS_5,207,5,42,127,1058188564
42,4,4,T1_SMS_5,208,1,48,63,1058652444
42,4,4,T1_SMS_5,209,5,42,127,1058689304
42,4,4,T1_SMS_5,210,1,48,62,1059151168
42,4,4,T1_SMS_5,211,5,42,127,1059189200
42,4,4,T1_SMS_5,212,1,48,62,1059651308
42,4,4,T1_SMS_5,213,5,42,127,1059688968
42,4,4,T1_SMS_5,214,1,48,61,1060152428
42,4,4,T1_SMS_5,215,5,42,127,1060188440
42,4,4,T1_SMS_5,216,1,48,70,1060653468
42,4,4,T1_SMS_5,217,5,42,127,1060689260
42,4,4,T1_SMS_5,218,1,48,72,1061134016
42,4,4,T1_SMS_5,219,5,42,127,1061189100
42,4,4,T1_SMS_5,220,1,48,56,1061658544
42,4,4,T1_SMS_5,221,5,42,127,1061688796
42,4,4,T1_SMS_5,222,5,42,127,1062189548
42,4,4,T1_SMS_5,223,1,48,60,1062199096
42,4,4,T1_SMS_5,224,1,48,62,1062680972
42,4,4,T1_SMS_5,225,5,42,127,1062689232
42,4,4,T1_SMS_5,226,1,48,64,1063155984
42,4,4,T1_SMS_5,227,5,42,127,1063188928
42,4,4,T1_SMS_5,228,1,48,55,1063654852
42,4,4,T1_SMS_5,229,5,42,127,1063688772
42,4,4,T1_SMS_5,230,1,48,53,1064170856
42,4,4,T1_SMS_5,231,5,42,127,1064189364
42,4,4,T1_SMS_5,232,1,48,62,1064678180
42,4,4,T1_SMS_5,233,5,42,127,1064689060
42,4,4,T1_SMS_5,234,1,48,64,1065178252
42,4,4,T1_SMS_5,235,5,42,127,1065188980
42,4,4,T1_SMS_5,236,1,48,63,1065661940
42,4,4,T1_SMS_5,237,5,42,127,1065688380
42,4,4,T1_SMS_5,238,1,48,57,1066171280
42,4,4,T1_SMS_5,239,5,42,127,1066189048
42,4,4,T1_SMS_5,240,1,48,62,1066668212
42,4,4,T1_SMS_5,241,5,42,127,1066688888
42,4,4,T1_SMS_5,242,1,48,64,1067145244
42,4,4,T1_SMS_5,243,5,42,127,1067188732
42,4,4,T1_SMS_5,244,1,48,57,1067652940
42,4,4,T1_SMS_5,245,5,42,127,1067689328
42,4,4,T1_SMS_5,246,5,42,127,1068189180
42,4,4,T1_SMS_5,247,1,48,48,1068191780
42,4,4,T1_SMS_5,248,1,48,54,1068686140
42,4,4,T1_SMS_5,249,5,42,127,1068688944
42,4,4,T1_SMS_5,250,1,48,58,1069178876
42,4,4,T1_SMS_5,251,5,42,127,1069188340
42,4,4,T1_SMS_5,252,1,48,64,1069656188
42,4,4,T1_SMS_5,253,5,42,127,1069689228
42,4,4,T1_SMS_5,254,1,48,51,1070173308
42,4,4,T1_SMS_5,255,5,42,127,1070188900
42,4,4,T1_SMS_5,256,1,48,56,1070677268
42,4,4,T1_SMS_5,0,9999,9999,9999,1005686864
42,4,4,T1_SMS_5,1,9999,9999,9999,1006186580
42,4,4,T1_SMS_5,2,9999,9999,9999,1006686296
42,4,4,T1_SMS_5,3,9999,9999,9999,1007187060
42,4,4,T1_SMS_5,4,9999,9999,9999,1007686776
42,4,4,T1_SMS_5,5,9999,9999,9999,1008186468
42,4,4,T1_SMS_5,6,9999,9999,9999,1008686164
42,4,4,T1_SMS_5,7,9999,9999,9999,1009186904
42,4,4,T1_SMS_5,8,9999,9999,9999,1009686600
42,4,4,T1_SMS_5,9,9999,9999,9999,1010186296
42,4,4,T1_SMS_5,10,9999,9999,9999,1010687036
42,4,4,T1_SMS_5,11,9999,9999,9999,1011186808
42,4,4,T1_SMS_5,12,9999,9999,9999,1011686504
42,4,4,T1_SMS_5,13,9999,9999,9999,1012186196
42,4,4,T1_SMS_5,14,9999,9999,9999,1012686940
42,4,4,T1_SMS_5,15,9999,9999,9999,1013186632
42,4,4,T1_SMS_5,16,9999,9999,9999,1013686328
42,4,4,T1_SMS_5,17,9999,9999,9999,1014187072
42,4,4,T1_SMS_5,18,9999,9999,9999,1014686840
42,4,4,T1_SMS_5,19,9999,9999,9999,1015186536
42,4,4,T1_SMS_5,20,9999,9999,9999,1015686228
42,4,4,T1_SMS_5,21,9999,9999,9999,1016186944
42,4,4,T1_SMS_5,22,9999,9999,9999,1016686716
42,4,4,T1_SMS_5,23,9999,9999,9999,1017186408
42,4,4,T1_SMS_5,24,9999,9999,9999,1017686104
42,4,4,T1_SMS_5,25,9999,9999,9999,1018186852
42,4,4,T1_SMS_5,26,9999,9999,9999,1018686540
42,4,4,T1_SMS_5,27,9999,9999,9999,1019186236
42,4,4,T1_SMS_5,28,9999,9999,9999,1019686976
42,4,4,T1_SMS_5,29,9999,9999,9999,1020186748
42,4,4,T1_SMS_5,30,9999,9999,9999,1020686444
42,4,4,T1_SMS_5,31,9999,9999,9999,1021186140
42,4,4,T1_SMS_5,32,9999,9999,9999,1021686904
42,4,4,T1_SMS_5,33,9999,9999,9999,1022186584
42,4,4,T1_SMS_5,34,9999,9999,9999,1022686276
42,4,4,T1_SMS_5,35,9999,9999,9999,1023187012
42,4,4,T1_SMS_5,36,9999,9999,9999,1023686716
42,4,4,T1_SMS_5,37,9999,9999,9999,1024186448
42,4,4,T1_SMS_5,38,9999,9999,9999,1024686176
42,4,4,T1_SMS_5,39,9999,9999,9999,1025186916
42,4,4,T1_SMS_5,40,9999,9999,9999,1025686612
42,4,4,T1_SMS_5,41,9999,9999,9999,1026186308
42,4,4,T1_SMS_5,42,9999,9999,9999,1026687052
42,4,4,T1_SMS_5,43,9999,9999,9999,1027186800
42,4,4,T1_SMS_5,44,9999,9999,9999,1027686484
42,4,4,T1_SMS_5,45,9999,9999,9999,1028186180
42,4,4,T1_SMS_5,46,9999,9999,9999,1028686928
42,4,4,T1_SMS_5,47,9999,9999,9999,1029186624
42,4,4,T1_SMS_5,48,9999,9999,9999,1029686388
42,4,4,T1_SMS_5,49,9999,9999,9999,1030187060
42,4,4,T1_SMS_5,50,9999,9999,9999,1030686828
42,4,4,T1_SMS_5,51,9999,9999,9999,1031186528
42,4,4,T1_SMS_5,52,9999,9999,9999,1031686220
42,4,4,T1_SMS_5,53,9999,9999,9999,1032186964
42,4,4,T1_SMS_5,54,9999,9999,9999,1032686656
42,4,4,T1_SMS_5,55,9999,9999,9999,1033186424
42,4,4,T1_SMS_5,56,9999,9999,9999,1033686120
42,4,4,T1_SMS_5,57,9999,9999,9999,1034186864
42,4,4,T1_SMS_5,58,9999,9999,9999,1034686556
42,4,4,T1_SMS_5,59,9999,9999,9999,1035186252
42,4,4,T1_SMS_5,60,9999,9999,9999,1035686992
42,4,4,T1_SMS_5,61,9999,9999,9999,1036186688
42,4,4,T1_SMS_5,62,9999,9999,9999,1036686460
42,4,4,T1_SMS_5,63,9999,9999,9999,1037186152
42,4,4,T1_SMS_5,64,9999,9999,9999,1037686872
42,4,4,T1_SMS_5,65,9999,9999,9999,1038186616
42,4,4,T1_SMS_5,66,9999,9999,9999,1038686312
42,4,4,T1_SMS_5,67,9999,9999,9999,1039187052
42,4,4,T1_SMS_5,68,9999,9999,9999,1039686748
42,4,4,T1_SMS_5,69,9999,9999,9999,1040186444
42,4,4,T1_SMS_5,70,9999,9999,9999,1040686140
42,4,4,T1_SMS_5,71,9999,9999,9999,1041186880
42,4,4,T1_SMS_5,72,9999,9999,9999,1041686580
42,4,4,T1_SMS_5,73,9999,9999,9999,1042186344
42,4,4,T1_SMS_5,74,9999,9999,9999,1042687084
42,4,4,T1_SMS_5,75,9999,9999,9999,1043186784
42,4,4,T1_SMS_5,76,9999,9999,9999,1043686476
42,4,4,T1_SMS_5,77,9999,9999,9999,1044186172
42,4,4,T1_SMS_5,78,9999,9999,9999,1044686912
42,4,4,T1_SMS_5,79,9999,9999,9999,1045186680
42,4,4,T1_SMS_5,80,9999,9999,9999,1045686380
42,4,4,T1_SMS_5,81,9999,9999,9999,1046187124
42,4,4,T1_SMS_5,82,9999,9999,9999,1046686816
42,4,4,T1_SMS_5,83,9999,9999,9999,1047186512
42,4,4,T1_SMS_5,84,9999,9999,9999,1047686204
42,4,4,T1_SMS_5,85,9999,9999,9999,1048186948
42,4,4,T1_SMS_5,86,9999,9999,9999,1048686692
42,4,4,T1_SMS_5,87,9999,9999,9999,1049186384
42,4,4,T1_SMS_5,88,9999,9999,9999,1049686088
42,4,4,T1_SMS_5,89,9999,9999,9999,1050186820
42,4,4,T1_SMS_5,90,9999,9999,9999,1050686516
42,4,4,T1_SMS_5,91,9999,9999,9999,1051186288
42,4,4,T1_SMS_5,92,9999,9999,9999,1051687028
42,4,4,T1_SMS_5,93,9999,9999,9999,1052186728
42,4,4,T1_SMS_5,94,9999,9999,9999,1052686432
42,4,4,T1_SMS_5,95,9999,9999,9999,1053186120
42,4,4,T1_SMS_5,96,9999,9999,9999,1053686856
42,4,4,T1_SMS_5,97,9999,9999,9999,1054186556
42,4,4,T1_SMS_5,98,9999,9999,9999,1054686320
42,4,4,T1_SMS_5,99,9999,9999,9999,1055187060
42,4,4,T1_SMS_5,100,9999,9999,9999,1055686756
42,4,4,T1_SMS_5,101,9999,9999,9999,1056186452
42,4,4,T1_SMS_5,102,9999,9999,9999,1056686144
42,4,4,T1_SMS_5,103,9999,9999,9999,1057186888
42,4,4,T1_SMS_5,104,9999,9999,9999,1057686584
42,4,4,T1_SMS_5,105,9999,9999,9999,1058186352
42,4,4,T1_SMS_5,106,9999,9999,9999,1058687092
42,4,4,T1_SMS_5,107,9999,9999,9999,1059186764
42,4,4,T1_SMS_5,108,9999,9999,9999,1059686456
42,4,4,T1_SMS_5,109,9999,9999,9999,1060186228
42,4,4,T1_SMS_5,110,9999,9999,9999,1060686972
42,4,4,T1_SMS_5,111,9999,9999,9999,1061186668
42,4,4,T1_SMS_5,112,9999,9999,9999,1061686364
42,4,4,T1_SMS_5,113,9999,9999,9999,1062187112
42,4,4,T1_SMS_5,114,9999,9999,9999,1062686796
42,4,4,T1_SMS_5,115,9999,9999,9999,1063186492
42,4,4,T1_SMS_5,116,9999,9999,9999,1063686264
42,4,4,T1_SMS_5,117,9999,9999,9999,1064187004
42,4,4,T1_SMS_5,118,9999,9999,9999,1064686700
42,4,4,T1_SMS_5,119,9999,9999,9999,1065186396
42,4,4,T1_SMS_5,120,9999,9999,9999,1065686092
42,4,4,T1_SMS_5,121,9999,9999,9999,1066186836
42,4,4,T1_SMS_5,122,9999,9999,9999,1066686528
42,4,4,T1_SMS_5,123,9999,9999,9999,1067186300
42,4,4,T1_SMS_5,124,9999,9999,9999,1067686968
42,4,4,T1_SMS_5,125,9999,9999,9999,1068186744
42,4,4,T1_SMS_5,126,9999,9999,9999,1068686432
42,4,4,T1_SMS_5,127,9999,9999,9999,1069186128
42,4,4,T1_SMS_5,128,9999,9999,9999,1069686844
42,4,4,T1_SMS_5,129,9999,9999,9999,1070186612
42,5,22,Ticks_Phase_8,0,5,42,127,1082649856
42,5,22,Ticks_Phase_8,1,5,42,127,1083449664
42,5,22,Ticks_Phase_8,2,1,48,47,1084224416
42,5,22,Ticks_Phase_8,3,5,42,127,1084249540
42,5,22,Ticks_Phase_8,4,1,48,56,1085033412
42,5,22,Ticks_Phase_8,5,5,42,127,1085050244
42,5,22,Ticks_Phase_8,6,1,48,57,1085842140
42,5,22,Ticks_Phase_8,7,5,42,127,1085849884
42,5,22,Ticks_Phase_8,8,1,48,57,1086622828
42,5,22,Ticks_Phase_8,9,5,42,127,1086649668
42,5,22,Ticks_Phase_8,10,1,48,56,1087396472
42,5,22,Ticks_Phase_8,11,5,42,127,1087449308
42,5,22,Ticks_Phase_8,12,1,48,55,1088225164
42,5,22,Ticks_Phase_8,13,5,42,127,1088250288
42,5,22,Ticks_Phase_8,14,5,42,127,1089050152
42,5,22,Ticks_Phase_8,15,1,48,54,1089051492
42,5,22,Ticks_Phase_8,16,1,48,53,1089848744
42,5,22,Ticks_Phase_8,17,5,42,127,1089850612
42,5,22,Ticks_Phase_8,18,1,48,53,1090634116
42,5,22,Ticks_Phase_8,19,5,42,127,1090649424
42,5,22,Ticks_Phase_8,20,5,42,127,1091450288
42,5,22,Ticks_Phase_8,21,1,48,48,1091470416
42,5,22,Ticks_Phase_8,22,1,48,56,1092235732
42,5,22,Ticks_Phase_8,23,5,42,127,1092250144
42,5,22,Ticks_Phase_8,24,1,48,52,1093029988
42,5,22,Ticks_Phase_8,25,5,42,127,1093049708
42,5,22,Ticks_Phase_8,26,1,48,50,1093832240
42,5,22,Ticks_Phase_8,27,5,42,127,1093849568
42,5,22,Ticks_Phase_8,28,1,48,54,1094624904
42,5,22,Ticks_Phase_8,29,5,42,127,1094650252
42,5,22,Ticks_Phase_8,30,5,42,127,1095450044
42,5,22,Ticks_Phase_8,31,1,48,53,1095455704
42,5,22,Ticks_Phase_8,32,1,48,51,1096225600
42,5,22,Ticks_Phase_8,33,5,42,127,1096249676
42,5,22,Ticks_Phase_8,34,1,48,49,1097041868
42,5,22,Ticks_Phase_8,35,5,42,127,1097049464
42,5,22,Ticks_Phase_8,36,1,48,49,1097827956
42,5,22,Ticks_Phase_8,37,5,42,127,1097850172
42,5,22,Ticks_Phase_8,38,1,48,48,1098630012
42,5,22,Ticks_Phase_8,39,5,42,127,1098650184
42,5,22,Ticks_Phase_8,40,1,48,45,1099426568
42,5,22,Ticks_Phase_8,41,5,42,127,1099449968
42,5,22,Ticks_Phase_8,42,1,48,53,1100208248
42,5,22,Ticks_Phase_8,43,5,42,127,1100249460
42,5,22,Ticks_Phase_8,44,1,48,51,1101017916
42,5,22,Ticks_Phase_8,45,5,42,127,1101050364
42,5,22,Ticks_Phase_8,46,1,48,58,1101828784
42,5,22,Ticks_Phase_8,47,5,42,127,1101849928
42,5,22,Ticks_Phase_8,48,1,48,54,1102632460
42,5,22,Ticks_Phase_8,49,5,42,127,1102649936
42,5,22,Ticks_Phase_8,50,1,48,46,1103433444
42,5,22,Ticks_Phase_8,51,5,42,127,1103449428
42,5,22,Ticks_Phase_8,52,1,48,58,1104193092
42,5,22,Ticks_Phase_8,53,5,42,127,1104250360
42,5,22,Ticks_Phase_8,54,1,48,43,1105040308
42,5,22,Ticks_Phase_8,55,5,42,127,1105049924
42,5,22,Ticks_Phase_8,56,1,48,48,1105819880
42,5,22,Ticks_Phase_8,57,5,42,127,1105849712
42,5,22,Ticks_Phase_8,58,1,48,48,1106608364
42,5,22,Ticks_Phase_8,59,5,42,127,1106630104
42,5,22,Ticks_Phase_8,60,1,48,48,1107412784
42,5,22,Ticks_Phase_8,61,5,42,127,1107429888
42,5,22,Ticks_Phase_8,62,1,48,52,1108209956
42,5,22,Ticks_Phase_8,63,5,42,127,1108229528
42,5,22,Ticks_Phase_8,64,1,48,47,1108993340
42,5,22,Ticks_Phase_8,65,5,42,127,1109030360
42,5,22,Ticks_Phase_8,66,1,48,55,1109792228
42,5,22,Ticks_Phase_8,67,5,42,127,1109829928
42,5,22,Ticks_Phase_8,68,1,48,55,1110609612
42,5,22,Ticks_Phase_8,69,5,42,127,1110629784
42,5,22,Ticks_Phase_8,70,1,48,56,1111414188
42,5,22,Ticks_Phase_8,71,5,42,127,1111429648
42,5,22,Ticks_Phase_8,72,5,42,127,1112230340
42,5,22,Ticks_Phase_8,73,1,48,37,1112234948
42,5,22,Ticks_Phase_8,74,1,48,53,1113001184
42,5,22,Ticks_Phase_8,75,5,42,127,1113029896
42,5,22,Ticks_Phase_8,76,1,48,47,1113791232
42,5,22,Ticks_Phase_8,77,5,42,127,1113829680
42,5,22,Ticks_Phase_8,78,1,48,57,1114620300
42,5,22,Ticks_Phase_8,79,5,42,127,1114629764
42,5,22,Ticks_Phase_8,80,5,42,127,1115430304
42,5,22,Ticks_Phase_8,81,1,48,58,1115434024
42,5,22,Ticks_Phase_8,82,1,48,57,1116228048
42,5,22,Ticks_Phase_8,83,5,42,127,1116229936
42,5,22,Ticks_Phase_8,84,1,48,50,1117021380
42,5,22,Ticks_Phase_8,85,5,42,127,1117029644
42,5,22,Ticks_Phase_8,86,5,42,127,1117829688
42,5,22,Ticks_Phase_8,87,1,48,41,1117855640
42,5,22,Ticks_Phase_8,88,5,42,127,1118630224
42,5,22,Ticks_Phase_8,89,1,48,62,1118636484
42,5,22,Ticks_Phase_8,90,1,48,56,1119418448
42,5,22,Ticks_Phase_8,91,5,42,127,1119430004
42,5,22,Ticks_Phase_8,92,1,48,54,1120190672
42,5,22,Ticks_Phase_8,93,5,42,127,1120229716
42,5,22,Ticks_Phase_8,94,1,48,55,1120982888
42,5,22,Ticks_Phase_8,95,5,42,127,1121049872
42,5,22,Ticks_Phase_8,96,1,48,45,1121840940
42,5,22,Ticks_Phase_8,97,5,42,127,1121849660
42,5,22,Ticks_Phase_8,98,5,42,127,1122649376
42,5,22,Ticks_Phase_8,99,1,48,65,1122654060
42,5,22,Ticks_Phase_8,100,1,48,57,1123449632
42,5,22,Ticks_Phase_8,101,5,42,127,1123451348
42,5,22,Ticks_Phase_8,102,5,42,127,1124250096
42,5,22,Ticks_Phase_8,103,1,48,50,1124267972
42,5,22,Ticks_Phase_8,104,5,42,127,1125049584
42,5,22,Ticks_Phase_8,105,1,48,26,1125059072
42,5,22,Ticks_Phase_8,106,1,48,59,1125821100
42,5,22,Ticks_Phase_8,107,5,42,127,1125849364
42,5,22,Ticks_Phase_8,108,1,48,58,1126586956
42,5,22,Ticks_Phase_8,109,5,42,127,1126650564
42,5,22,Ticks_Phase_8,110,5,42,127,1127450064
42,5,22,Ticks_Phase_8,111,1,48,49,1127457224
42,5,22,Ticks_Phase_8,112,1,48,49,1128248644
42,5,22,Ticks_Phase_8,113,5,42,127,1128250516
42,5,22,Ticks_Phase_8,114,1,48,52,1129038592
42,5,22,Ticks_Phase_8,115,5,42,127,1129049404
42,5,22,Ticks_Phase_8,116,1,48,54,1129820260
42,5,22,Ticks_Phase_8,117,5,42,127,1129850412
42,5,22,Ticks_Phase_8,118,1,48,51,1130613472
42,5,22,Ticks_Phase_8,119,5,42,127,1130649824
42,5,22,Ticks_Phase_8,120,1,48,54,1131448024
42,5,22,Ticks_Phase_8,121,5,42,127,1131449612
42,5,22,Ticks_Phase_8,122,5,42,127,1132249408
42,5,22,Ticks_Phase_8,123,1,48,54,1132255664
42,5,22,Ticks_Phase_8,124,1,48,51,1133034548
42,5,22,Ticks_Phase_8,125,5,42,127,1133050156
42,5,22,Ticks_Phase_8,126,1,48,56,1133831864
42,5,22,Ticks_Phase_8,127,5,42,127,1133890084
42,5,22,Ticks_Phase_8,128,1,48,45,1134679064
42,5,22,Ticks_Phase_8,129,5,42,127,1134689720
42,5,22,Ticks_Phase_8,130,5,42,127,1135490436
42,5,22,Ticks_Phase_8,131,1,48,49,1135507400
42,5,22,Ticks_Phase_8,132,1,48,49,1136274156
42,5,22,Ticks_Phase_8,133,5,42,127,1136300324
42,5,22,Ticks_Phase_8,134,1,48,57,1137071400
42,5,22,Ticks_Phase_8,135,5,42,127,1137100260
42,5,22,Ticks_Phase_8,136,1,48,46,1137897544
42,5,22,Ticks_Phase_8,137,5,42,127,1137900048
42,5,22,Ticks_Phase_8,138,1,48,48,1138674560
42,5,22,Ticks_Phase_8,139,5,42,127,1138699612
42,5,22,Ticks_Phase_8,140,1,48,40,1139480496
42,5,22,Ticks_Phase_8,141,5,42,127,1139500368
42,5,22,Ticks_Phase_8,142,1,48,48,1140255040
42,5,22,Ticks_Phase_8,143,5,42,127,1140300080
42,5,22,Ticks_Phase_8,144,1,48,51,1141066576
42,5,22,Ticks_Phase_8,145,5,42,127,1141099940
42,5,22,Ticks_Phase_8,146,1,48,54,1141885712
42,5,22,Ticks_Phase_8,147,5,42,127,1141899824
42,5,22,Ticks_Phase_8,148,5,42,127,1142700292
42,5,22,Ticks_Phase_8,149,1,48,45,1142702960
42,5,22,Ticks_Phase_8,150,5,42,127,1143500080
42,5,22,Ticks_Phase_8,151,1,48,39,1143521172
42,5,22,Ticks_Phase_8,152,1,48,57,1144286796
42,5,22,Ticks_Phase_8,153,5,42,127,1144300084
42,5,22,Ticks_Phase_8,154,1,48,51,1145063968
42,5,22,Ticks_Phase_8,155,5,42,127,1145099720
42,5,22,Ticks_Phase_8,156,1,48,50,1145861364
42,5,22,Ticks_Phase_8,157,5,42,127,1145900332
42,5,22,Ticks_Phase_8,158,1,48,44,1146667592
42,5,22,Ticks_Phase_8,159,5,42,127,1146700120
42,5,22,Ticks_Phase_8,160,5,42,127,1147459848
42,5,22,Ticks_Phase_8,161,1,48,62,1147462892
42,5,22,Ticks_Phase_8,162,1,48,51,1148256972
42,5,22,Ticks_Phase_8,163,5,42,127,1148259628
42,5,22,Ticks_Phase_8,164,1,48,59,1149044352
42,5,22,Ticks_Phase_8,165,5,42,127,1149059440
42,5,22,Ticks_Phase_8,166,1,48,62,1149824372
42,5,22,Ticks_Phase_8,167,5,42,127,1149860200
42,5,22,Ticks_Phase_8,168,1,48,59,1150605132
42,5,22,Ticks_Phase_8,169,5,42,127,1150659912
42,5,22,Ticks_Phase_8,170,1,48,63,1151425140
42,5,22,Ticks_Phase_8,171,5,42,127,1151459772
42,5,22,Ticks_Phase_8,172,5,42,127,1152259492
42,5,22,Ticks_Phase_8,173,1,48,50,1152262832
42,5,22,Ticks_Phase_8,174,1,48,65,1153038652
42,5,22,Ticks_Phase_8,175,5,42,127,1153060316
42,5,22,Ticks_Phase_8,176,1,48,65,1153833412
42,5,22,Ticks_Phase_8,177,5,42,127,1153860028
42,5,22,Ticks_Phase_8,178,1,48,61,1154610368
42,5,22,Ticks_Phase_8,179,5,42,127,1154659816
42,5,22,Ticks_Phase_8,180,1,48,68,1155428948
42,5,22,Ticks_Phase_8,181,5,42,127,1155459552
42,5,22,Ticks_Phase_8,182,1,48,54,1156229508
42,5,22,Ticks_Phase_8,183,5,42,127,1156260164
42,5,22,Ticks_Phase_8,184,1,48,62,1157030640
42,5,22,Ticks_Phase_8,185,5,42,127,1157060024
42,5,22,Ticks_Phase_8,186,1,48,45,1157845620
42,5,22,Ticks_Phase_8,187,5,42,127,1157859812
42,5,22,Ticks_Phase_8,188,1,48,55,1158620184
42,5,22,Ticks_Phase_8,189,5,42,127,1158659372
42,5,22,Ticks_Phase_8,190,1,48,58,1159381172
42,5,22,Ticks_Phase_8,191,5,42,127,1159460280
42,5,22,Ticks_Phase_8,192,5,42,127,1160179948
42,5,22,Ticks_Phase_8,193,1,48,57,1160233540
42,5,22,Ticks_Phase_8,194,1,48,51,1160951992
42,5,22,Ticks_Phase_8,195,5,42,127,1160979728
42,5,22,Ticks_Phase_8,196,1,48,69,1161746976
42,5,22,Ticks_Phase_8,197,5,42,127,1161779440
42,5,22,Ticks_Phase_8,198,1,48,60,1162512992
42,5,22,Ticks_Phase_8,199,5,42,127,1162580272
42,5,22,Ticks_Phase_8,200,1,48,53,1163289872
42,5,22,Ticks_Phase_8,201,5,42,127,1163380308
42,5,22,Ticks_Phase_8,202,1,48,42,1164119908
42,5,22,Ticks_Phase_8,203,5,42,127,1164179796
42,5,22,Ticks_Phase_8,204,1,48,60,1164942932
42,5,22,Ticks_Phase_8,205,5,42,127,1164979432
42,5,22,Ticks_Phase_8,206,1,48,32,1165771624
42,5,22,Ticks_Phase_8,207,5,42,127,1165780192
42,5,22,Ticks_Phase_8,208,1,48,44,1166579076
42,5,22,Ticks_Phase_8,209,5,42,127,1166580720
42,5,22,Ticks_Phase_8,210,1,48,40,1167370600
42,5,22,Ticks_Phase_8,211,5,42,127,1167379688
42,5,22,Ticks_Phase_8,212,1,48,53,1168150016
42,5,22,Ticks_Phase_8,213,5,42,127,1168179624
42,5,22,Ticks_Phase_8,214,1,48,53,1168921540
42,5,22,Ticks_Phase_8,215,5,42,127,1168980360
42,5,22,Ticks_Phase_8,216,1,48,42,1169744092
42,5,22,Ticks_Phase_8,217,5,42,127,1169780244
42,5,22,Ticks_Phase_8,218,1,48,49,1170575128
42,5,22,Ticks_Phase_8,219,5,42,127,1170579808
42,5,22,Ticks_Phase_8,220,5,42,127,1171379524
42,5,22,Ticks_Phase_8,221,1,48,55,1171387968
42,5,22,Ticks_Phase_8,222,5,42,127,1172180284
42,5,22,Ticks_Phase_8,223,1,48,54,1172192392
42,5,22,Ticks_Phase_8,224,5,42,127,1172980068
42,5,22,Ticks_Phase_8,225,1,48,58,1172991504
42,5,22,Ticks_Phase_8,226,1,48,50,1173738568
42,5,22,Ticks_Phase_8,227,5,42,127,1173859592
42,5,22,Ticks_Phase_8,228,5,42,127,1174659352
42,5,22,Ticks_Phase_8,229,1,48,47,1174752484
42,5,22,Ticks_Phase_8,230,5,42,127,1175460332
42,5,22,Ticks_Phase_8,231,1,48,42,1175501200
42,5,22,Ticks_Phase_8,232,5,42,127,1176260192
42,5,22,Ticks_Phase_8,233,1,48,46,1176282188
42,5,22,Ticks_Phase_8,234,1,48,51,1177054996
42,5,22,Ticks_Phase_8,235,5,42,127,1177059824
42,5,22,Ticks_Phase_8,236,1,48,49,1177858112
42,5,22,Ticks_Phase_8,237,5,42,127,1177860056
42,5,22,Ticks_Phase_8,238,1,48,53,1178614280
42,5,22,Ticks_Phase_8,239,5,42,127,1178660220
42,5,22,Ticks_Phase_8,240,1,48,56,1179432788
42,5,22,Ticks_Phase_8,241,5,42,127,1179460304
42,5,22,Ticks_Phase_8,242,1,48,58,1180236540
42,5,22,Ticks_Phase_8,243,5,42,127,1180259792
42,5,22,Ticks_Phase_8,244,1,48,61,1181042724
42,5,22,Ticks_Phase_8,245,5,42,127,1181059528
42,5,22,Ticks_Phase_8,246,1,48,57,1181844300
42,5,22,Ticks_Phase_8,247,5,42,127,1181860064
42,5,22,Ticks_Phase_8,248,1,48,57,1182644320
42,5,22,Ticks_Phase_8,249,5,42,127,1182660000
42,5,22,Ticks_Phase_8,250,1,48,64,1183433692
42,5,22,Ticks_Phase_8,251,5,42,127,1183459936
42,5,22,Ticks_Phase_8,252,1,48,63,1184255124
42,5,22,Ticks_Phase_8,253,5,42,127,1184259352
42,5,22,Ticks_Phase_8,254,5,42,127,1185060340
42,5,22,Ticks_Phase_8,255,1,48,51,1185078596
42,5,22,Ticks_Phase_8,256,1,48,59,1185830288
42,5,22,Ticks_Phase_8,257,5,42,127,1185860044
42,5,22,Ticks_Phase_8,258,1,48,57,1186620640
42,5,22,Ticks_Phase_8,259,5,42,127,1186659980
42,5,22,Ticks_Phase_8,260,1,48,55,1187421324
42,5,22,Ticks_Phase_8,261,5,42,127,1187620188
42,5,22,Ticks_Phase_8,262,5,42,127,1188419996
42,5,22,Ticks_Phase_8,263,1,48,47,1188431280
42,5,22,Ticks_Phase_8,264,5,42,127,1189219856
42,5,22,Ticks_Phase_8,265,1,48,47,1189227012
42,5,22,Ticks_Phase_8,266,1,48,62,1189999236
42,5,22,Ticks_Phase_8,267,5,42,127,1190019584
42,5,22,Ticks_Phase_8,268,1,48,53,1190801596
42,5,22,Ticks_Phase_8,269,5,42,127,1190820120
42,5,22,Ticks_Phase_8,270,1,48,50,1191606616
42,5,22,Ticks_Phase_8,271,5,42,127,1191619832
42,5,22,Ticks_Phase_8,272,1,48,56,1192405432
42,5,22,Ticks_Phase_8,273,5,42,127,1192419620
42,5,22,Ticks_Phase_8,274,1,48,48,1193180216
42,5,22,Ticks_Phase_8,275,5,42,127,1193219632
42,5,22,Ticks_Phase_8,276,1,48,53,1193987028
42,5,22,Ticks_Phase_8,277,5,42,127,1194020240
42,5,22,Ticks_Phase_8,278,5,42,127,1194820032
42,5,22,Ticks_Phase_8,279,1,48,57,1194833780
42,5,22,Ticks_Phase_8,280,5,42,127,1195619668
42,5,22,Ticks_Phase_8,281,1,48,51,1195650968
42,5,22,Ticks_Phase_8,282,5,42,127,1196419628
42,5,22,Ticks_Phase_8,283,1,48,43,1196422820
42,5,22,Ticks_Phase_8,284,5,42,127,1197220088
42,5,22,Ticks_Phase_8,285,1,48,39,1197225748
42,5,22,Ticks_Phase_8,286,1,48,42,1198012048
42,5,22,Ticks_Phase_8,287,5,42,127,1198019944
42,5,22,Ticks_Phase_8,288,1,48,56,1198809296
42,5,22,Ticks_Phase_8,289,5,42,127,1198819728
42,5,22,Ticks_Phase_8,290,1,48,55,1199605624
42,5,22,Ticks_Phase_8,291,5,42,127,1199619592
42,5,22,Ticks_Phase_8,292,1,48,63,1200402500
42,5,22,Ticks_Phase_8,293,5,42,127,1200420424
42,5,22,Ticks_Phase_8,294,1,48,56,1201193744
42,5,22,Ticks_Phase_8,295,5,42,127,1201219988
42,5,22,Ticks_Phase_8,296,1,48,49,1201999676
42,5,22,Ticks_Phase_8,297,5,42,127,1202019700
42,5,22,Ticks_Phase_8,298,5,42,127,1202659684
42,5,22,Ticks_Phase_8,299,1,48,57,1202777836
42,5,22,Ticks_Phase_8,300,5,42,127,1203459396
42,5,22,Ticks_Phase_8,301,1,48,58,1203495460
42,5,22,Ticks_Phase_8,302,1,48,47,1204235404
42,5,22,Ticks_Phase_8,303,5,42,127,1204260296
42,5,22,Ticks_Phase_8,304,1,48,51,1204983292
42,5,22,Ticks_Phase_8,305,5,42,127,1205060084
42,5,22,Ticks_Phase_8,306,1,48,67,1205809816
42,5,22,Ticks_Phase_8,307,5,42,127,1205859720
42,5,22,Ticks_Phase_8,308,1,48,50,1206615068
42,5,22,Ticks_Phase_8,309,5,42,127,1206659532
42,5,22,Ticks_Phase_8,310,1,48,49,1207428440
42,5,22,Ticks_Phase_8,311,5,42,127,1207460140
42,5,22,Ticks_Phase_8,312,1,48,54,1208248744
42,5,22,Ticks_Phase_8,313,5,42,127,1208259928
42,5,22,Ticks_Phase_8,314,1,48,51,1209053464
42,5,22,Ticks_Phase_8,315,5,42,127,1209059564
42,5,22,Ticks_Phase_8,316,1,48,57,1209808700
42,5,22,Ticks_Phase_8,317,5,42,127,1209859424
42,5,22,Ticks_Phase_8,318,1,48,47,1210650648
42,5,22,Ticks_Phase_8,319,5,42,127,1210660332
42,5,22,Ticks_Phase_8,320,1,48,42,1211445780
42,5,22,Ticks_Phase_8,321,5,42,127,1211460044
42,5,22,Ticks_Phase_8,322,1,48,64,1212211200
42,5,22,Ticks_Phase_8,323,5,42,127,1212259832
42,5,22,Ticks_Phase_8,324,1,48,66,1213029260
42,5,22,Ticks_Phase_8,325,5,42,127,1213059568
42,5,22,Ticks_Phase_8,326,5,42,127,1213860184
42,5,22,Ticks_Phase_8,327,1,48,59,1213870868
42,5,22,Ticks_Phase_8,328,5,42,127,1214659968
42,5,22,Ticks_Phase_8,329,1,48,55,1214698816
42,5,22,Ticks_Phase_8,330,1,48,65,1215442344
42,5,22,Ticks_Phase_8,331,5,42,127,1215459748
42,5,22,Ticks_Phase_8,332,1,48,68,1216243476
42,5,22,Ticks_Phase_8,333,5,42,127,1216259312
42,5,22,Ticks_Phase_8,334,1,48,54,1217051880
42,5,22,Ticks_Phase_8,335,5,42,127,1217060144
42,5,22,Ticks_Phase_8,336,1,48,48,1217837220
42,5,22,Ticks_Phase_8,337,5,42,127,1217860008
42,5,22,Ticks_Phase_8,0,9999,9999,9999,1082647640
42,5,22,Ticks_Phase_8,1,9999,9999,9999,1083447376
42,5,22,Ticks_Phase_8,2,9999,9999,9999,1084247104
42,5,22,Ticks_Phase_8,3,9999,9999,9999,1085047884
42,5,22,Ticks_Phase_8,4,9999,9999,9999,1085847672
42,5,22,Ticks_Phase_8,5,9999,9999,9999,1086647384
42,5,22,Ticks_Phase_8,6,9999,9999,9999,1087447096
42,5,22,Ticks_Phase_8,7,9999,9999,9999,1088247928
42,5,22,Ticks_Phase_8,8,9999,9999,9999,1089047644
42,5,22,Ticks_Phase_8,9,9999,9999,9999,1089847356
42,5,22,Ticks_Phase_8,10,9999,9999,9999,1090647140
42,5,22,Ticks_Phase_8,11,9999,9999,9999,1091447928
42,5,22,Ticks_Phase_8,12,9999,9999,9999,1092247636
42,5,22,Ticks_Phase_8,13,9999,9999,9999,1093047420
42,5,22,Ticks_Phase_8,14,9999,9999,9999,1093847132
42,5,22,Ticks_Phase_8,15,9999,9999,9999,1094647892
42,5,22,Ticks_Phase_8,16,9999,9999,9999,1095447612
42,5,22,Ticks_Phase_8,17,9999,9999,9999,1096247392
42,5,22,Ticks_Phase_8,18,9999,9999,9999,1097047104
42,5,22,Ticks_Phase_8,19,9999,9999,9999,1097847888
42,5,22,Ticks_Phase_8,20,9999,9999,9999,1098647672
42,5,22,Ticks_Phase_8,21,9999,9999,9999,1099447384
42,5,22,Ticks_Phase_8,22,9999,9999,9999,1100247096
42,5,22,Ticks_Phase_8,23,9999,9999,9999,1101047928
42,5,22,Ticks_Phase_8,24,9999,9999,9999,1101847644
42,5,22,Ticks_Phase_8,25,9999,9999,9999,1102647352
42,5,22,Ticks_Phase_8,26,9999,9999,9999,1103447140
42,5,22,Ticks_Phase_8,27,9999,9999,9999,1104247924
42,5,22,Ticks_Phase_8,28,9999,9999,9999,1105047636
42,5,22,Ticks_Phase_8,29,9999,9999,9999,1105847352
42,5,22,Ticks_Phase_8,30,9999,9999,9999,1106627668
42,5,22,Ticks_Phase_8,31,9999,9999,9999,1107427456
42,5,22,Ticks_Phase_8,32,9999,9999,9999,1108227168
42,5,22,Ticks_Phase_8,33,9999,9999,9999,1109027928
42,5,22,Ticks_Phase_8,34,9999,9999,9999,1109827640
42,5,22,Ticks_Phase_8,35,9999,9999,9999,1110627424
42,5,22,Ticks_Phase_8,36,9999,9999,9999,1111427136
42,5,22,Ticks_Phase_8,37,9999,9999,9999,1112227904
42,5,22,Ticks_Phase_8,38,9999,9999,9999,1113027684
42,5,22,Ticks_Phase_8,39,9999,9999,9999,1113827396
42,5,22,Ticks_Phase_8,40,9999,9999,9999,1114627180
42,5,22,Ticks_Phase_8,41,9999,9999,9999,1115427944
42,5,22,Ticks_Phase_8,42,9999,9999,9999,1116227680
42,5,22,Ticks_Phase_8,43,9999,9999,9999,1117027432
42,5,22,Ticks_Phase_8,44,9999,9999,9999,1117827176
42,5,22,Ticks_Phase_8,45,9999,9999,9999,1118627936
42,5,22,Ticks_Phase_8,46,9999,9999,9999,1119427644
42,5,22,Ticks_Phase_8,47,9999,9999,9999,1120227428
42,5,22,Ticks_Phase_8,48,9999,9999,9999,1121047660
42,5,22,Ticks_Phase_8,49,9999,9999,9999,1121847372
42,5,22,Ticks_Phase_8,50,9999,9999,9999,1122647164
42,5,22,Ticks_Phase_8,51,9999,9999,9999,1123447872
42,5,22,Ticks_Phase_8,52,9999,9999,9999,1124247660
42,5,22,Ticks_Phase_8,53,9999,9999,9999,1125047372
42,5,22,Ticks_Phase_8,54,9999,9999,9999,1125847152
42,5,22,Ticks_Phase_8,55,9999,9999,9999,1126647908
42,5,22,Ticks_Phase_8,56,9999,9999,9999,1127447628
42,5,22,Ticks_Phase_8,57,9999,9999,9999,1128247416
42,5,22,Ticks_Phase_8,58,9999,9999,9999,1129047120
42,5,22,Ticks_Phase_8,59,9999,9999,9999,1129847904
42,5,22,Ticks_Phase_8,60,9999,9999,9999,1130647612
42,5,22,Ticks_Phase_8,61,9999,9999,9999,1131447424
42,5,22,Ticks_Phase_8,62,9999,9999,9999,1132247120
42,5,22,Ticks_Phase_8,63,9999,9999,9999,1133047872
42,5,22,Ticks_Phase_8,64,9999,9999,9999,1133887572
42,5,22,Ticks_Phase_8,65,9999,9999,9999,1134687284
42,5,22,Ticks_Phase_8,66,9999,9999,9999,1135488076
42,5,22,Ticks_Phase_8,67,9999,9999,9999,1136298040
42,5,22,Ticks_Phase_8,68,9999,9999,9999,1137097824
42,5,22,Ticks_Phase_8,69,9999,9999,9999,1137897612
42,5,22,Ticks_Phase_8,70,9999,9999,9999,1138697324
42,5,22,Ticks_Phase_8,71,9999,9999,9999,1139498084
42,5,22,Ticks_Phase_8,72,9999,9999,9999,1140297796
42,5,22,Ticks_Phase_8,73,9999,9999,9999,1141097580
42,5,22,Ticks_Phase_8,74,9999,9999,9999,1141897316
42,5,22,Ticks_Phase_8,75,9999,9999,9999,1142698080
42,5,22,Ticks_Phase_8,76,9999,9999,9999,1143497792
42,5,22,Ticks_Phase_8,77,9999,9999,9999,1144297572
42,5,22,Ticks_Phase_8,78,9999,9999,9999,1145097284
42,5,22,Ticks_Phase_8,79,9999,9999,9999,1145898044
42,5,22,Ticks_Phase_8,80,9999,9999,9999,1146697832
42,5,22,Ticks_Phase_8,81,9999,9999,9999,1147457636
42,5,22,Ticks_Phase_8,82,9999,9999,9999,1148257344
42,5,22,Ticks_Phase_8,83,9999,9999,9999,1149057080
42,5,22,Ticks_Phase_8,84,9999,9999,9999,1149857912
42,5,22,Ticks_Phase_8,85,9999,9999,9999,1150657624
42,5,22,Ticks_Phase_8,86,9999,9999,9999,1151457336
42,5,22,Ticks_Phase_8,87,9999,9999,9999,1152257128
42,5,22,Ticks_Phase_8,88,9999,9999,9999,1153057880
42,5,22,Ticks_Phase_8,89,9999,9999,9999,1153857592
42,5,22,Ticks_Phase_8,90,9999,9999,9999,1154657380
42,5,22,Ticks_Phase_8,91,9999,9999,9999,1155457116
42,5,22,Ticks_Phase_8,92,9999,9999,9999,1156257876
42,5,22,Ticks_Phase_8,93,9999,9999,9999,1157057664
42,5,22,Ticks_Phase_8,94,9999,9999,9999,1157857376
42,5,22,Ticks_Phase_8,95,9999,9999,9999,1158657088
42,5,22,Ticks_Phase_8,96,9999,9999,9999,1159457844
42,5,22,Ticks_Phase_8,97,9999,9999,9999,1160177736
42,5,22,Ticks_Phase_8,98,9999,9999,9999,1160977516
42,5,22,Ticks_Phase_8,99,9999,9999,9999,1161777228
42,5,22,Ticks_Phase_8,100,9999,9999,9999,1162577984
42,5,22,Ticks_Phase_8,101,9999,9999,9999,1163377776
42,5,22,Ticks_Phase_8,102,9999,9999,9999,1164177508
42,5,22,Ticks_Phase_8,103,9999,9999,9999,1164977220
42,5,22,Ticks_Phase_8,104,9999,9999,9999,1165777980
42,5,22,Ticks_Phase_8,105,9999,9999,9999,1166577772
42,5,22,Ticks_Phase_8,106,9999,9999,9999,1167377476
42,5,22,Ticks_Phase_8,107,9999,9999,9999,1168177264
42,5,22,Ticks_Phase_8,108,9999,9999,9999,1168978000
42,5,22,Ticks_Phase_8,109,9999,9999,9999,1169777784
42,5,22,Ticks_Phase_8,110,9999,9999,9999,1170577520
42,5,22,Ticks_Phase_8,111,9999,9999,9999,1171377240
42,5,22,Ticks_Phase_8,112,9999,9999,9999,1172177996
42,5,22,Ticks_Phase_8,113,9999,9999,9999,1172977784
42,5,22,Ticks_Phase_8,114,9999,9999,9999,1173857380
42,5,22,Ticks_Phase_8,115,9999,9999,9999,1174657140
42,5,22,Ticks_Phase_8,116,9999,9999,9999,1175457896
42,5,22,Ticks_Phase_8,117,9999,9999,9999,1176257608
42,5,22,Ticks_Phase_8,118,9999,9999,9999,1177057388
42,5,22,Ticks_Phase_8,119,9999,9999,9999,1177857108
42,5,22,Ticks_Phase_8,120,9999,9999,9999,1178657860
42,5,22,Ticks_Phase_8,121,9999,9999,9999,1179457644
42,5,22,Ticks_Phase_8,122,9999,9999,9999,1180257360
42,5,22,Ticks_Phase_8,123,9999,9999,9999,1181057096
42,5,22,Ticks_Phase_8,124,9999,9999,9999,1181857852
42,5,22,Ticks_Phase_8,125,9999,9999,9999,1182657640
42,5,22,Ticks_Phase_8,126,9999,9999,9999,1183457352
42,5,22,Ticks_Phase_8,127,9999,9999,9999,1184257140
42,5,22,Ticks_Phase_8,128,9999,9999,9999,1185057904
42,5,22,Ticks_Phase_8,129,9999,9999,9999,1185857608
42,5,22,Ticks_Phase_8,130,9999,9999,9999,1186657396
42,5,22,Ticks_Phase_8,131,9999,9999,9999,1187617900
42,5,22,Ticks_Phase_8,132,9999,9999,9999,1188417632
42,5,22,Ticks_Phase_8,133,9999,9999,9999,1189217344
42,5,22,Ticks_Phase_8,134,9999,9999,9999,1190017148
42,5,22,Ticks_Phase_8,135,9999,9999,9999,1190817908
42,5,22,Ticks_Phase_8,136,9999,9999,9999,1191617620
42,5,22,Ticks_Phase_8,137,9999,9999,9999,1192417332
42,5,22,Ticks_Phase_8,138,9999,9999,9999,1193217120
42,5,22,Ticks_Phase_8,139,9999,9999,9999,1194017880
42,5,22,Ticks_Phase_8,140,9999,9999,9999,1194817596
42,5,22,Ticks_Phase_8,141,9999,9999,9999,1195617380
42,5,22,Ticks_Phase_8,142,9999,9999,9999,1196417120
42,5,22,Ticks_Phase_8,143,9999,9999,9999,1197217876
42,5,22,Ticks_Phase_8,144,9999,9999,9999,1198017656
42,5,22,Ticks_Phase_8,145,9999,9999,9999,1198817368
42,5,22,Ticks_Phase_8,146,9999,9999,9999,1199617080
42,5,22,Ticks_Phase_8,147,9999,9999,9999,1200417912
42,5,22,Ticks_Phase_8,148,9999,9999,9999,1201217628
42,5,22,Ticks_Phase_8,149,9999,9999,9999,1202017340
42,5,22,Ticks_Phase_8,150,9999,9999,9999,1202657396
42,5,22,Ticks_Phase_8,151,9999,9999,9999,1203457108
42,5,22,Ticks_Phase_8,152,9999,9999,9999,1204257864
42,5,22,Ticks_Phase_8,153,9999,9999,9999,1205057648
42,5,22,Ticks_Phase_8,154,9999,9999,9999,1205857360
42,5,22,Ticks_Phase_8,155,9999,9999,9999,1206657096
42,5,22,Ticks_Phase_8,156,9999,9999,9999,1207457856
42,5,22,Ticks_Phase_8,157,9999,9999,9999,1208257640
42,5,22,Ticks_Phase_8,158,9999,9999,9999,1209057352
42,5,22,Ticks_Phase_8,159,9999,9999,9999,1209857140
42,5,22,Ticks_Phase_8,160,9999,9999,9999,1210657896
42,5,22,Ticks_Phase_8,161,9999,9999,9999,1211457608
42,5,22,Ticks_Phase_8,162,9999,9999,9999,1212257396
42,5,22,Ticks_Phase_8,163,9999,9999,9999,1213057132
42,5,22,Ticks_Phase_8,164,9999,9999,9999,1213857896
42,5,22,Ticks_Phase_8,165,9999,9999,9999,1214657608
42,5,22,Ticks_Phase_8,166,9999,9999,9999,1215457388
42,5,22,Ticks_Phase_8,167,9999,9999,9999,1216257100
42,5,22,Ticks_Phase_8,168,9999,9999,9999,1217057860
42,5,22,Ticks_Phase_8,169,9999,9999,9999,1217857644
42,6,23,Ticks_Phase_5,0,5,42,127,1229461984
42,6,23,Ticks_Phase_5,1,5,42,127,1229961692
42,6,23,Ticks_Phase_5,2,5,42,127,1230462228
42,6,23,Ticks_Phase_5,3,5,42,127,1230962088
42,6,23,Ticks_Phase_5,4,5,42,127,1231461772
42,6,23,Ticks_Phase_5,5,1,48,64,1231484608
42,6,23,Ticks_Phase_5,6,1,48,73,1231959096
42,6,23,Ticks_Phase_5,7,5,42,127,1231961600
42,6,23,Ticks_Phase_5,8,1,48,70,1232461060
42,6,23,Ticks_Phase_5,9,5,42,127,1232462860
42,6,23,Ticks_Phase_5,10,5,42,127,1232961880
42,6,23,Ticks_Phase_5,11,1,48,70,1232963892
42,6,23,Ticks_Phase_5,12,1,48,70,1233457932
42,6,23,Ticks_Phase_5,13,5,42,127,1233461564
42,6,23,Ticks_Phase_5,14,5,42,127,1233962452
42,6,23,Ticks_Phase_5,15,1,48,65,1233973440
42,6,23,Ticks_Phase_5,16,5,42,127,1234461992
42,6,23,Ticks_Phase_5,17,1,48,67,1234477392
42,6,23,Ticks_Phase_5,18,5,42,127,1234961904
42,6,23,Ticks_Phase_5,19,1,48,72,1234972512
42,6,23,Ticks_Phase_5,20,5,42,127,1235461592
42,6,23,Ticks_Phase_5,21,1,48,67,1235473848
42,6,23,Ticks_Phase_5,22,5,42,127,1235962476
42,6,23,Ticks_Phase_5,23,1,48,63,1235968068
42,6,23,Ticks_Phase_5,24,1,48,67,1236449404
42,6,23,Ticks_Phase_5,25,5,42,127,1236462004
42,6,23,Ticks_Phase_5,26,5,42,127,1236961628
42,6,23,Ticks_Phase_5,27,1,48,72,1236986608
42,6,23,Ticks_Phase_5,28,5,42,127,1237462512
42,6,23,Ticks_Phase_5,29,1,48,67,1237488992
42,6,23,Ticks_Phase_5,30,5,42,127,1237962052
42,6,23,Ticks_Phase_5,31,1,48,78,1237971016
42,6,23,Ticks_Phase_5,32,5,42,127,1238461740
42,6,23,Ticks_Phase_5,33,1,48,67,1238466728
42,6,23,Ticks_Phase_5,34,5,42,127,1238961576
42,6,23,Ticks_Phase_5,35,1,48,69,1238978020
42,6,23,Ticks_Phase_5,36,5,42,127,1239462456
42,6,23,Ticks_Phase_5,37,1,48,62,1239469184
42,6,23,Ticks_Phase_5,38,5,42,127,1239962072
42,6,23,Ticks_Phase_5,39,1,48,70,1239973432
42,6,23,Ticks_Phase_5,40,1,48,62,1240459944
42,6,23,Ticks_Phase_5,41,5,42,127,1240461680
42,6,23,Ticks_Phase_5,42,5,42,127,1240962568
42,6,23,Ticks_Phase_5,43,1,48,59,1240966812
42,6,23,Ticks_Phase_5,44,1,48,68,1241470400
42,6,23,Ticks_Phase_5,45,5,42,127,1241472288
42,6,23,Ticks_Phase_5,46,5,42,127,1241972056
42,6,23,Ticks_Phase_5,47,1,48,64,1241997564
42,6,23,Ticks_Phase_5,48,1,48,63,1242472016
42,6,23,Ticks_Phase_5,49,5,42,127,1242473428
42,6,23,Ticks_Phase_5,50,5,42,127,1242971484
42,6,23,Ticks_Phase_5,51,1,48,68,1242976020
42,6,23,Ticks_Phase_5,52,1,48,68,1243454280
42,6,23,Ticks_Phase_5,53,5,42,127,1243472284
42,6,23,Ticks_Phase_5,54,1,48,59,1243959280
42,6,23,Ticks_Phase_5,55,5,42,127,1243972048
42,6,23,Ticks_Phase_5,56,1,48,74,1244451788
42,6,23,Ticks_Phase_5,57,5,42,127,1244461328
42,6,23,Ticks_Phase_5,58,5,42,127,1244962144
42,6,23,Ticks_Phase_5,59,1,48,76,1244968404
42,6,23,Ticks_Phase_5,60,1,48,65,1245461980
42,6,23,Ticks_Phase_5,61,5,42,127,1245463540
42,6,23,Ticks_Phase_5,62,1,48,70,1245957436
42,6,23,Ticks_Phase_5,63,5,42,127,1245961588
42,6,23,Ticks_Phase_5,64,1,48,71,1246456228
42,6,23,Ticks_Phase_5,65,5,42,127,1246462252
42,6,23,Ticks_Phase_5,66,1,48,71,1246960352
42,6,23,Ticks_Phase_5,67,5,42,127,1246962164
42,6,23,Ticks_Phase_5,68,5,42,127,1247461708
42,6,23,Ticks_Phase_5,69,1,48,70,1247466392
42,6,23,Ticks_Phase_5,70,5,42,127,1247961472
42,6,23,Ticks_Phase_5,71,1,48,72,1247981596
42,6,23,Ticks_Phase_5,72,5,42,127,1248462276
42,6,23,Ticks_Phase_5,73,1,48,69,1248468464
42,6,23,Ticks_Phase_5,74,1,48,78,1248953240
42,6,23,Ticks_Phase_5,75,5,42,127,1248962032
42,6,23,Ticks_Phase_5,76,1,48,78,1249458988
42,6,23,Ticks_Phase_5,77,5,42,127,1249461572
42,6,23,Ticks_Phase_5,78,5,42,127,1249962388
42,6,23,Ticks_Phase_5,79,1,48,66,1249981468
42,6,23,Ticks_Phase_5,80,5,42,127,1250462300
42,6,23,Ticks_Phase_5,81,1,48,67,1250476428
42,6,23,Ticks_Phase_5,82,5,42,127,1250961840
42,6,23,Ticks_Phase_5,83,1,48,63,1250977684
42,6,23,Ticks_Phase_5,84,1,48,70,1251454600
42,6,23,Ticks_Phase_5,85,5,42,127,1251461372
42,6,23,Ticks_Phase_5,86,5,42,127,1251962188
42,6,23,Ticks_Phase_5,87,1,48,62,1251965232
42,6,23,Ticks_Phase_5,88,5,42,127,1252462024
42,6,23,Ticks_Phase_5,89,1,48,46,1252468212
42,6,23,Ticks_Phase_5,90,5,42,127,1252961616
42,6,23,Ticks_Phase_5,91,1,48,73,1252971476
42,6,23,Ticks_Phase_5,92,1,48,69,1253468148
42,6,23,Ticks_Phase_5,93,5,42,127,1253471556
42,6,23,Ticks_Phase_5,94,5,42,127,1253972372
42,6,23,Ticks_Phase_5,95,1,48,70,1253978104
42,6,23,Ticks_Phase_5,96,5,42,127,1254472132
42,6,23,Ticks_Phase_5,97,1,48,71,1254484240
42,6,23,Ticks_Phase_5,98,5,42,127,1254971896
42,6,23,Ticks_Phase_5,99,1,48,69,1254975988
42,6,23,Ticks_Phase_5,100,5,42,127,1255472032
42,6,23,Ticks_Phase_5,101,1,48,76,1255486684
42,6,23,Ticks_Phase_5,102,5,42,127,1255972244
42,6,23,Ticks_Phase_5,103,1,48,68,1255999396
42,6,23,Ticks_Phase_5,104,5,42,127,1256472080
42,6,23,Ticks_Phase_5,105,1,48,71,1256488376
42,6,23,Ticks_Phase_5,106,5,42,127,1256971544
42,6,23,Ticks_Phase_5,107,1,48,68,1257015476
42,6,23,Ticks_Phase_5,108,5,42,127,1257472428
42,6,23,Ticks_Phase_5,109,1,48,67,1257491052
42,6,23,Ticks_Phase_5,110,5,42,127,1257972188
42,6,23,Ticks_Phase_5,111,1,48,51,1257997772
42,6,23,Ticks_Phase_5,112,1,48,70,1258447868
42,6,23,Ticks_Phase_5,113,5,42,127,1258471872
42,6,23,Ticks_Phase_5,114,1,48,71,1258949056
42,6,23,Ticks_Phase_5,115,5,42,127,1258971708
42,6,23,Ticks_Phase_5,116,1,48,74,1259441936
42,6,23,Ticks_Phase_5,117,5,42,127,1259472144
42,6,23,Ticks_Phase_5,118,1,48,50,1259940352
42,6,23,Ticks_Phase_5,119,5,42,127,1259972056
42,6,23,Ticks_Phase_5,120,1,48,63,1260427600
42,6,23,Ticks_Phase_5,121,5,42,127,1260471596
42,6,23,Ticks_Phase_5,122,5,42,127,1260972412
42,6,23,Ticks_Phase_5,123,1,48,51,1260978224
42,6,23,Ticks_Phase_5,124,1,48,46,1261487116
42,6,23,Ticks_Phase_5,125,5,42,127,1261491564
42,6,23,Ticks_Phase_5,126,1,48,47,1261987772
42,6,23,Ticks_Phase_5,127,5,42,127,1261992448
42,6,23,Ticks_Phase_5,128,1,48,35,1262487088
42,6,23,Ticks_Phase_5,129,5,42,127,1262491988
42,6,23,Ticks_Phase_5,130,1,48,49,1262973376
42,6,23,Ticks_Phase_5,131,5,42,127,1262991828
42,6,23,Ticks_Phase_5,132,1,48,53,1263463376
42,6,23,Ticks_Phase_5,133,5,42,127,1263491364
42,6,23,Ticks_Phase_5,134,1,48,54,1263979848
42,6,23,Ticks_Phase_5,135,5,42,127,1263992028
42,6,23,Ticks_Phase_5,136,5,42,127,1264491920
42,6,23,Ticks_Phase_5,137,1,48,51,1264500836
42,6,23,Ticks_Phase_5,138,5,42,127,1264991832
42,6,23,Ticks_Phase_5,139,1,48,46,1264992720
42,6,23,Ticks_Phase_5,140,5,42,127,1265492268
42,6,23,Ticks_Phase_5,141,1,48,42,1265496212
42,6,23,Ticks_Phase_5,142,5,42,127,1265991956
42,6,23,Ticks_Phase_5,143,1,48,27,1266005928
42,6,23,Ticks_Phase_5,144,1,48,43,1266486740
42,6,23,Ticks_Phase_5,145,5,42,127,1266491936
42,6,23,Ticks_Phase_5,146,1,48,35,1266989040
42,6,23,Ticks_Phase_5,147,5,42,127,1266991552
42,6,23,Ticks_Phase_5,148,1,48,30,1267489776
42,6,23,Ticks_Phase_5,149,5,42,127,1267492212
42,6,23,Ticks_Phase_5,150,1,48,30,1267980496
42,6,23,Ticks_Phase_5,151,5,42,127,1267991904
42,6,23,Ticks_Phase_5,152,1,48,45,1268473964
42,6,23,Ticks_Phase_5,153,5,42,127,1268491740
42,6,23,Ticks_Phase_5,154,1,48,32,1268975292
42,6,23,Ticks_Phase_5,155,5,42,127,1268992328
42,6,23,Ticks_Phase_5,156,1,48,42,1269475880
42,6,23,Ticks_Phase_5,157,5,42,127,1269491940
42,6,23,Ticks_Phase_5,158,5,42,127,1269972312
42,6,23,Ticks_Phase_5,159,1,48,63,1269986064
42,6,23,Ticks_Phase_5,160,5,42,127,1270472152
42,6,23,Ticks_Phase_5,161,1,48,52,1270488968
42,6,23,Ticks_Phase_5,162,5,42,127,1270971692
42,6,23,Ticks_Phase_5,163,1,48,63,1270974208
42,6,23,Ticks_Phase_5,164,1,48,61,1271466988
42,6,23,Ticks_Phase_5,165,5,42,127,1271471596
42,6,23,Ticks_Phase_5,166,1,48,56,1271962344
42,6,23,Ticks_Phase_5,167,5,42,127,1271972328
42,6,23,Ticks_Phase_5,168,1,48,56,1272456336
42,6,23,Ticks_Phase_5,169,5,42,127,1272471868
42,6,23,Ticks_Phase_5,170,1,48,46,1272958268
42,6,23,Ticks_Phase_5,171,5,42,127,1272971632
42,6,23,Ticks_Phase_5,172,1,48,58,1273459076
42,6,23,Ticks_Phase_5,173,5,42,127,1273472368
42,6,23,Ticks_Phase_5,174,1,48,58,1273952904
42,6,23,Ticks_Phase_5,175,5,42,127,1273971980
42,6,23,Ticks_Phase_5,176,1,48,45,1274453564
42,6,23,Ticks_Phase_5,177,5,42,127,1274471716
42,6,23,Ticks_Phase_5,178,1,48,52,1274945612
42,6,23,Ticks_Phase_5,179,5,42,127,1274971480
42,6,23,Ticks_Phase_5,180,1,48,63,1275433096
42,6,23,Ticks_Phase_5,181,5,42,127,1275472584
42,6,23,Ticks_Phase_5,182,1,48,58,1275961692
42,6,23,Ticks_Phase_5,183,5,42,127,1275971828
42,6,23,Ticks_Phase_5,184,5,42,127,1276471672
42,6,23,Ticks_Phase_5,185,1,48,58,1276475836
42,6,23,Ticks_Phase_5,186,1,48,61,1276961968
42,6,23,Ticks_Phase_5,187,5,42,127,1276972548
42,6,23,Ticks_Phase_5,188,1,48,60,1277451092
42,6,23,Ticks_Phase_5,189,5,42,127,1277472016
42,6,23,Ticks_Phase_5,190,5,42,127,1277921612
42,6,23,Ticks_Phase_5,191,1,48,51,1277960680
42,6,23,Ticks_Phase_5,192,5,42,127,1278422344
42,6,23,Ticks_Phase_5,193,1,48,53,1278431008
42,6,23,Ticks_Phase_5,194,1,48,53,1278905744
42,6,23,Ticks_Phase_5,195,5,42,127,1278922028
42,6,23,Ticks_Phase_5,196,1,48,53,1279392256
42,6,23,Ticks_Phase_5,197,5,42,127,1279421788
42,6,23,Ticks_Phase_5,198,1,48,56,1279898376
42,6,23,Ticks_Phase_5,199,5,42,127,1279921480
42,6,23,Ticks_Phase_5,200,1,48,52,1280394476
42,6,23,Ticks_Phase_5,201,5,42,127,1280422288
42,6,23,Ticks_Phase_5,202,1,48,51,1280880388
42,6,23,Ticks_Phase_5,203,5,42,127,1280922052
42,6,23,Ticks_Phase_5,204,1,48,49,1281389424
42,6,23,Ticks_Phase_5,205,5,42,127,1281421740
42,6,23,Ticks_Phase_5,206,1,48,62,1281902524
42,6,23,Ticks_Phase_5,207,5,42,127,1281922620
42,6,23,Ticks_Phase_5,208,1,48,60,1282416584
42,6,23,Ticks_Phase_5,209,5,42,127,1282432496
42,6,23,Ticks_Phase_5,210,1,48,43,1282910716
42,6,23,Ticks_Phase_5,211,5,42,127,1282932184
42,6,23,Ticks_Phase_5,212,1,48,57,1283411376
42,6,23,Ticks_Phase_5,213,5,42,127,1283431848
42,6,23,Ticks_Phase_5,214,1,48,55,1283910316
42,6,23,Ticks_Phase_5,215,5,42,127,1283931460
42,6,23,Ticks_Phase_5,216,1,48,42,1284406628
42,6,23,Ticks_Phase_5,217,5,42,127,1284432268
42,6,23,Ticks_Phase_5,218,1,48,48,1284887668
42,6,23,Ticks_Phase_5,219,5,42,127,1284932332
42,6,23,Ticks_Phase_5,220,1,48,62,1285400392
42,6,23,Ticks_Phase_5,221,5,42,127,1285431576
42,6,23,Ticks_Phase_5,222,1,48,47,1285911460
42,6,23,Ticks_Phase_5,223,5,42,127,1285932532
42,6,23,Ticks_Phase_5,224,1,48,58,1286407772
42,6,23,Ticks_Phase_5,225,5,42,127,1286482468
42,6,23,Ticks_Phase_5,226,1,48,60,1286945728
42,6,23,Ticks_Phase_5,227,5,42,127,1286981936
42,6,23,Ticks_Phase_5,228,1,48,44,1287463024
42,6,23,Ticks_Phase_5,229,5,42,127,1287481620
42,6,23,Ticks_Phase_5,230,5,42,127,1287981392
42,6,23,Ticks_Phase_5,231,1,48,58,1287982356
42,6,23,Ticks_Phase_5,232,1,48,48,1288472656
42,6,23,Ticks_Phase_5,233,5,42,127,1288482268
42,6,23,Ticks_Phase_5,234,1,48,57,1288964628
42,6,23,Ticks_Phase_5,235,5,42,127,1288981956
42,6,23,Ticks_Phase_5,236,1,48,50,1289470316
42,6,23,Ticks_Phase_5,237,5,42,127,1289481496
42,6,23,Ticks_Phase_5,238,1,48,50,1289948120
42,6,23,Ticks_Phase_5,239,5,42,127,1289982304
42,6,23,Ticks_Phase_5,240,1,48,57,1290433740
42,6,23,Ticks_Phase_5,241,5,42,127,1290482144
42,6,23,Ticks_Phase_5,242,1,48,52,1290902196
42,6,23,Ticks_Phase_5,243,5,42,127,1290981684
42,6,23,Ticks_Phase_5,244,1,48,51,1291451088
42,6,23,Ticks_Phase_5,245,5,42,127,1291481444
42,6,23,Ticks_Phase_5,246,5,42,127,1291982188
42,6,23,Ticks_Phase_5,247,1,48,39,1291983080
42,6,23,Ticks_Phase_5,248,5,42,127,1292482096
42,6,23,Ticks_Phase_5,249,1,48,51,1292484992
42,6,23,Ticks_Phase_5,250,1,48,56,1292963180
42,6,23,Ticks_Phase_5,251,5,42,127,1292981632
42,6,23,Ticks_Phase_5,252,1,48,58,1293467432
42,6,23,Ticks_Phase_5,253,5,42,127,1293482292
42,6,23,Ticks_Phase_5,254,1,48,65,1293947796
42,6,23,Ticks_Phase_5,255,5,42,127,1293982132
42,6,23,Ticks_Phase_5,256,1,48,55,1294452136
42,6,23,Ticks_Phase_5,257,5,42,127,1294481896
42,6,23,Ticks_Phase_5,258,1,48,52,1294940420
42,6,23,Ticks_Phase_5,259,5,42,127,1295081768
42,6,23,Ticks_Phase_5,260,1,48,63,1295488200
42,6,23,Ticks_Phase_5,261,5,42,127,1295581468
42,6,23,Ticks_Phase_5,262,1,48,32,1296058056
42,6,23,Ticks_Phase_5,263,5,42,127,1296082204
42,6,23,Ticks_Phase_5,264,1,48,51,1296557448
42,6,23,Ticks_Phase_5,265,5,42,127,1296582188
42,6,23,Ticks_Phase_5,266,1,48,40,1297076976
42,6,23,Ticks_Phase_5,267,5,42,127,1297081804
42,6,23,Ticks_Phase_5,268,1,48,36,1297573672
42,6,23,Ticks_Phase_5,269,5,42,127,1297581564
42,6,23,Ticks_Phase_5,270,1,48,44,1298057260
42,6,23,Ticks_Phase_5,271,5,42,127,1298082076
42,6,23,Ticks_Phase_5,272,1,48,62,1298532812
42,6,23,Ticks_Phase_5,273,5,42,127,1298581988
42,6,23,Ticks_Phase_5,274,1,48,56,1299037736
42,6,23,Ticks_Phase_5,275,5,42,127,1299081900
42,6,23,Ticks_Phase_5,276,1,48,53,1299576164
42,6,23,Ticks_Phase_5,277,5,42,127,1299582260
42,6,23,Ticks_Phase_5,278,1,48,50,1300078392
42,6,23,Ticks_Phase_5,279,5,42,127,1300082024
42,6,23,Ticks_Phase_5,280,1,48,52,1300568472
42,6,23,Ticks_Phase_5,281,5,42,127,1300581836
42,6,23,Ticks_Phase_5,282,1,48,51,1301073256
42,6,23,Ticks_Phase_5,283,5,42,127,1301081596
42,6,23,Ticks_Phase_5,284,1,48,45,1301574964
42,6,23,Ticks_Phase_5,285,5,42,127,1301582184
42,6,23,Ticks_Phase_5,286,1,48,53,1302062524
42,6,23,Ticks_Phase_5,287,5,42,127,1302081796
42,6,23,Ticks_Phase_5,288,1,48,56,1302559728
42,6,23,Ticks_Phase_5,289,5,42,127,1302581560
42,6,23,Ticks_Phase_5,290,1,48,49,1303038452
42,6,23,Ticks_Phase_5,291,5,42,127,1303082368
42,6,23,Ticks_Phase_5,292,5,42,127,1303581988
42,6,23,Ticks_Phase_5,293,1,48,60,1303588472
42,6,23,Ticks_Phase_5,294,5,42,127,1304081752
42,6,23,Ticks_Phase_5,295,1,48,49,1304111388
42,6,23,Ticks_Phase_5,296,5,42,127,1304482360
42,6,23,Ticks_Phase_5,297,1,48,46,1304611224
42,6,23,Ticks_Phase_5,298,5,42,127,1304981900
42,6,23,Ticks_Phase_5,299,1,48,39,1305074212
42,6,23,Ticks_Phase_5,300,1,48,42,1305479000
42,6,23,Ticks_Phase_5,301,5,42,127,1305481656
42,6,23,Ticks_Phase_5,302,1,48,54,1305950740
42,6,23,Ticks_Phase_5,303,5,42,127,1305982392
42,6,23,Ticks_Phase_5,304,1,48,20,1306457384
42,6,23,Ticks_Phase_5,305,5,42,127,1306481932
42,6,23,Ticks_Phase_5,306,1,48,53,1306954524
42,6,23,Ticks_Phase_5,307,5,42,127,1306981892
42,6,23,Ticks_Phase_5,308,1,48,51,1307460812
42,6,23,Ticks_Phase_5,309,5,42,127,1307481504
42,6,23,Ticks_Phase_5,310,1,48,57,1307954280
42,6,23,Ticks_Phase_5,311,5,42,127,1307982240
42,6,23,Ticks_Phase_5,312,1,48,67,1308443780
42,6,23,Ticks_Phase_5,313,5,42,127,1308481852
42,6,23,Ticks_Phase_5,314,1,48,55,1308954548
42,6,23,Ticks_Phase_5,315,5,42,127,1308981540
42,6,23,Ticks_Phase_5,316,1,48,60,1309466968
42,6,23,Ticks_Phase_5,317,5,42,127,1309482424
42,6,23,Ticks_Phase_5,318,1,48,54,1309968748
42,6,23,Ticks_Phase_5,319,5,42,127,1309982040
42,6,23,Ticks_Phase_5,320,1,48,65,1310467392
42,6,23,Ticks_Phase_5,321,5,42,127,1310481728
42,6,23,Ticks_Phase_5,322,1,48,58,1310947532
42,6,23,Ticks_Phase_5,323,5,42,127,1310981564
42,6,23,Ticks_Phase_5,324,1,48,57,1311442876
42,6,23,Ticks_Phase_5,325,5,42,127,1311482148
42,6,23,Ticks_Phase_5,326,1,48,46,1311965704
42,6,23,Ticks_Phase_5,327,5,42,127,1311981988
42,6,23,Ticks_Phase_5,328,1,48,59,1312466292
42,6,23,Ticks_Phase_5,329,5,42,127,1312481676
42,6,23,Ticks_Phase_5,330,1,48,55,1312961492
42,6,23,Ticks_Phase_5,331,5,42,127,1312982412
42,6,23,Ticks_Phase_5,332,1,48,55,1313451372
42,6,23,Ticks_Phase_5,333,5,42,127,1313482028
42,6,23,Ticks_Phase_5,334,1,48,50,1313974264
42,6,23,Ticks_Phase_5,335,5,42,127,1313981864
42,6,23,Ticks_Phase_5,0,9999,9999,9999,1229459548
42,6,23,Ticks_Phase_5,1,9999,9999,9999,1229959256
42,6,23,Ticks_Phase_5,2,9999,9999,9999,1230460016
42,6,23,Ticks_Phase_5,3,9999,9999,9999,1230959724
42,6,23,Ticks_Phase_5,4,9999,9999,9999,1231459408
42,6,23,Ticks_Phase_5,5,9999,9999,9999,1231959164
42,6,23,Ticks_Phase_5,6,9999,9999,9999,1232459832
42,6,23,Ticks_Phase_5,7,9999,9999,9999,1232959592
42,6,23,Ticks_Phase_5,8,9999,9999,9999,1233459276
42,6,23,Ticks_Phase_5,9,9999,9999,9999,1233960016
42,6,23,Ticks_Phase_5,10,9999,9999,9999,1234459704
42,6,23,Ticks_Phase_5,11,9999,9999,9999,1234959468
42,6,23,Ticks_Phase_5,12,9999,9999,9999,1235459156
42,6,23,Ticks_Phase_5,13,9999,9999,9999,1235959892
42,6,23,Ticks_Phase_5,14,9999,9999,9999,1236459644
42,6,23,Ticks_Phase_5,15,9999,9999,9999,1236959340
42,6,23,Ticks_Phase_5,16,9999,9999,9999,1237460076
42,6,23,Ticks_Phase_5,17,9999,9999,9999,1237959764
42,6,23,Ticks_Phase_5,18,9999,9999,9999,1238459452
42,6,23,Ticks_Phase_5,19,9999,9999,9999,1238959216
42,6,23,Ticks_Phase_5,20,9999,9999,9999,1239459948
42,6,23,Ticks_Phase_5,21,9999,9999,9999,1239959636
42,6,23,Ticks_Phase_5,22,9999,9999,9999,1240459344
42,6,23,Ticks_Phase_5,23,9999,9999,9999,1240960060
42,6,23,Ticks_Phase_5,24,9999,9999,9999,1241470024
42,6,23,Ticks_Phase_5,25,9999,9999,9999,1241969768
42,6,23,Ticks_Phase_5,26,9999,9999,9999,1242469432
42,6,23,Ticks_Phase_5,27,9999,9999,9999,1242969196
42,6,23,Ticks_Phase_5,28,9999,9999,9999,1243469924
42,6,23,Ticks_Phase_5,29,9999,9999,9999,1243969612
42,6,23,Ticks_Phase_5,30,9999,9999,9999,1244459116
42,6,23,Ticks_Phase_5,31,9999,9999,9999,1244959856
42,6,23,Ticks_Phase_5,32,9999,9999,9999,1245459544
42,6,23,Ticks_Phase_5,33,9999,9999,9999,1245959228
42,6,23,Ticks_Phase_5,34,9999,9999,9999,1246459964
42,6,23,Ticks_Phase_5,35,9999,9999,9999,1246959740
42,6,23,Ticks_Phase_5,36,9999,9999,9999,1247459420
42,6,23,Ticks_Phase_5,37,9999,9999,9999,1247959108
42,6,23,Ticks_Phase_5,38,9999,9999,9999,1248459844
42,6,23,Ticks_Phase_5,39,9999,9999,9999,1248959600
42,6,23,Ticks_Phase_5,40,9999,9999,9999,1249459288
42,6,23,Ticks_Phase_5,41,9999,9999,9999,1249960028
42,6,23,Ticks_Phase_5,42,9999,9999,9999,1250459716
42,6,23,Ticks_Phase_5,43,9999,9999,9999,1250959480
42,6,23,Ticks_Phase_5,44,9999,9999,9999,1251459160
42,6,23,Ticks_Phase_5,45,9999,9999,9999,1251959900
42,6,23,Ticks_Phase_5,46,9999,9999,9999,1252459640
42,6,23,Ticks_Phase_5,47,9999,9999,9999,1252959328
42,6,23,Ticks_Phase_5,48,9999,9999,9999,1253469268
42,6,23,Ticks_Phase_5,49,9999,9999,9999,1253970008
42,6,23,Ticks_Phase_5,50,9999,9999,9999,1254469696
42,6,23,Ticks_Phase_5,51,9999,9999,9999,1254969460
42,6,23,Ticks_Phase_5,52,9999,9999,9999,1255469148
42,6,23,Ticks_Phase_5,53,9999,9999,9999,1255969884
42,6,23,Ticks_Phase_5,54,9999,9999,9999,1256469568
42,6,23,Ticks_Phase_5,55,9999,9999,9999,1256969332
42,6,23,Ticks_Phase_5,56,9999,9999,9999,1257470068
42,6,23,Ticks_Phase_5,57,9999,9999,9999,1257969752
42,6,23,Ticks_Phase_5,58,9999,9999,9999,1258469436
42,6,23,Ticks_Phase_5,59,9999,9999,9999,1258969196
42,6,23,Ticks_Phase_5,60,9999,9999,9999,1259469932
42,6,23,Ticks_Phase_5,61,9999,9999,9999,1259969620
42,6,23,Ticks_Phase_5,62,9999,9999,9999,1260469308
42,6,23,Ticks_Phase_5,63,9999,9999,9999,1260970048
42,6,23,Ticks_Phase_5,64,9999,9999,9999,1261489276
42,6,23,Ticks_Phase_5,65,9999,9999,9999,1261990012
42,6,23,Ticks_Phase_5,66,9999,9999,9999,1262489704
42,6,23,Ticks_Phase_5,67,9999,9999,9999,1262989392
42,6,23,Ticks_Phase_5,68,9999,9999,9999,1263489080
42,6,23,Ticks_Phase_5,69,9999,9999,9999,1263989816
42,6,23,Ticks_Phase_5,70,9999,9999,9999,1264489556
42,6,23,Ticks_Phase_5,71,9999,9999,9999,1264989248
42,6,23,Ticks_Phase_5,72,9999,9999,9999,1265489984
42,6,23,Ticks_Phase_5,73,9999,9999,9999,1265989744
42,6,23,Ticks_Phase_5,74,9999,9999,9999,1266489428
42,6,23,Ticks_Phase_5,75,9999,9999,9999,1266989116
42,6,23,Ticks_Phase_5,76,9999,9999,9999,1267489852
42,6,23,Ticks_Phase_5,77,9999,9999,9999,1267989616
42,6,23,Ticks_Phase_5,78,9999,9999,9999,1268489304
42,6,23,Ticks_Phase_5,79,9999,9999,9999,1268990040
42,6,23,Ticks_Phase_5,80,9999,9999,9999,1269489728
42,6,23,Ticks_Phase_5,81,9999,9999,9999,1269970024
42,6,23,Ticks_Phase_5,82,9999,9999,9999,1270469716
42,6,23,Ticks_Phase_5,83,9999,9999,9999,1270969404
42,6,23,Ticks_Phase_5,84,9999,9999,9999,1271469160
42,6,23,Ticks_Phase_5,85,9999,9999,9999,1271969896
42,6,23,Ticks_Phase_5,86,9999,9999,9999,1272469580
42,6,23,Ticks_Phase_5,87,9999,9999,9999,1272969272
42,6,23,Ticks_Phase_5,88,9999,9999,9999,1273470004
42,6,23,Ticks_Phase_5,89,9999,9999,9999,1273969768
42,6,23,Ticks_Phase_5,90,9999,9999,9999,1274469432
42,6,23,Ticks_Phase_5,91,9999,9999,9999,1274969192
42,6,23,Ticks_Phase_5,92,9999,9999,9999,1275469928
42,6,23,Ticks_Phase_5,93,9999,9999,9999,1275969616
42,6,23,Ticks_Phase_5,94,9999,9999,9999,1276469308
42,6,23,Ticks_Phase_5,95,9999,9999,9999,1276970040
42,6,23,Ticks_Phase_5,96,9999,9999,9999,1277469800
42,6,23,Ticks_Phase_5,97,9999,9999,9999,1277919324
42,6,23,Ticks_Phase_5,98,9999,9999,9999,1278420060
42,6,23,Ticks_Phase_5,99,9999,9999,9999,1278919740
42,6,23,Ticks_Phase_5,100,9999,9999,9999,1279419504
42,6,23,Ticks_Phase_5,101,9999,9999,9999,1279919192
42,6,23,Ticks_Phase_5,102,9999,9999,9999,1280419928
42,6,23,Ticks_Phase_5,103,9999,9999,9999,1280919616
42,6,23,Ticks_Phase_5,104,9999,9999,9999,1281419380
42,6,23,Ticks_Phase_5,105,9999,9999,9999,1281920112
42,6,23,Ticks_Phase_5,106,9999,9999,9999,1282430060
42,6,23,Ticks_Phase_5,107,9999,9999,9999,1282929748
42,6,23,Ticks_Phase_5,108,9999,9999,9999,1283429484
42,6,23,Ticks_Phase_5,109,9999,9999,9999,1283929176
42,6,23,Ticks_Phase_5,110,9999,9999,9999,1284429908
42,6,23,Ticks_Phase_5,111,9999,9999,9999,1284929596
42,6,23,Ticks_Phase_5,112,9999,9999,9999,1285429360
42,6,23,Ticks_Phase_5,113,9999,9999,9999,1285930096
42,6,23,Ticks_Phase_5,114,9999,9999,9999,1286479960
42,6,23,Ticks_Phase_5,115,9999,9999,9999,1286979648
42,6,23,Ticks_Phase_5,116,9999,9999,9999,1287479408
42,6,23,Ticks_Phase_5,117,9999,9999,9999,1287979104
42,6,23,Ticks_Phase_5,118,9999,9999,9999,1288479832
42,6,23,Ticks_Phase_5,119,9999,9999,9999,1288979520
42,6,23,Ticks_Phase_5,120,9999,9999,9999,1289479284
42,6,23,Ticks_Phase_5,121,9999,9999,9999,1289980020
42,6,23,Ticks_Phase_5,122,9999,9999,9999,1290479708
42,6,23,Ticks_Phase_5,123,9999,9999,9999,1290979396
42,6,23,Ticks_Phase_5,124,9999,9999,9999,1291479160
42,6,23,Ticks_Phase_5,125,9999,9999,9999,1291979900
42,6,23,Ticks_Phase_5,126,9999,9999,9999,1292479588
42,6,23,Ticks_Phase_5,127,9999,9999,9999,1292979272
42,6,23,Ticks_Phase_5,128,9999,9999,9999,1293480004
42,6,23,Ticks_Phase_5,129,9999,9999,9999,1293979768
42,6,23,Ticks_Phase_5,130,9999,9999,9999,1294479460
42,6,23,Ticks_Phase_5,131,9999,9999,9999,1295079480
42,6,23,Ticks_Phase_5,132,9999,9999,9999,1295579256
42,6,23,Ticks_Phase_5,133,9999,9999,9999,1296079992
42,6,23,Ticks_Phase_5,134,9999,9999,9999,1296579680
42,6,23,Ticks_Phase_5,135,9999,9999,9999,1297079368
42,6,23,Ticks_Phase_5,136,9999,9999,9999,1297579132
42,6,23,Ticks_Phase_5,137,9999,9999,9999,1298079864
42,6,23,Ticks_Phase_5,138,9999,9999,9999,1298579552
42,6,23,Ticks_Phase_5,139,9999,9999,9999,1299079240
42,6,23,Ticks_Phase_5,140,9999,9999,9999,1299579976
42,6,23,Ticks_Phase_5,141,9999,9999,9999,1300079736
42,6,23,Ticks_Phase_5,142,9999,9999,9999,1300579400
42,6,23,Ticks_Phase_5,143,9999,9999,9999,1301079164
42,6,23,Ticks_Phase_5,144,9999,9999,9999,1301579896
42,6,23,Ticks_Phase_5,145,9999,9999,9999,1302079584
42,6,23,Ticks_Phase_5,146,9999,9999,9999,1302579276
42,6,23,Ticks_Phase_5,147,9999,9999,9999,1303080008
42,6,23,Ticks_Phase_5,148,9999,9999,9999,1303579704
42,6,23,Ticks_Phase_5,149,9999,9999,9999,1304079464
42,6,23,Ticks_Phase_5,150,9999,9999,9999,1304479852
42,6,23,Ticks_Phase_5,151,9999,9999,9999,1304979540
42,6,23,Ticks_Phase_5,152,9999,9999,9999,1305479220
42,6,23,Ticks_Phase_5,153,9999,9999,9999,1305980032
42,6,23,Ticks_Phase_5,154,9999,9999,9999,1306479720
42,6,23,Ticks_Phase_5,155,9999,9999,9999,1306979384
42,6,23,Ticks_Phase_5,156,9999,9999,9999,1307479144
42,6,23,Ticks_Phase_5,157,9999,9999,9999,1307979880
42,6,23,Ticks_Phase_5,158,9999,9999,9999,1308479564
42,6,23,Ticks_Phase_5,159,9999,9999,9999,1308979252
42,6,23,Ticks_Phase_5,160,9999,9999,9999,1309480064
42,6,23,Ticks_Phase_5,161,9999,9999,9999,1309979752
42,6,23,Ticks_Phase_5,162,9999,9999,9999,1310479440
42,6,23,Ticks_Phase_5,163,9999,9999,9999,1310979128
42,6,23,Ticks_Phase_5,164,9999,9999,9999,1311479864
42,6,23,Ticks_Phase_5,165,9999,9999,9999,1311979624
42,6,23,Ticks_Phase_5,166,9999,9999,9999,1312479316
42,6,23,Ticks_Phase_5,167,9999,9999,9999,1312980052
42,6,23,Ticks_Phase_5,168,9999,9999,9999,1313479740
42,6,23,Ticks_Phase_5,169,9999,9999,9999,1313979500
42,7,20,Ticks_Linear_8,0,5,42,127,1325643316
42,7,20,Ticks_Linear_8,1,5,42,127,1326463308
42,7,20,Ticks_Linear_8,2,1,48,60,1327259552
42,7,20,Ticks_Linear_8,3,5,42,127,1327282668
42,7,20,Ticks_Linear_8,4,5,42,127,1328102692
42,7,20,Ticks_Linear_8,5,1,48,72,1328146172
42,7,20,Ticks_Linear_8,6,5,42,127,1328923232
42,7,20,Ticks_Linear_8,7,1,48,70,1328953164
42,7,20,Ticks_Linear_8,8,5,42,127,1329732916
42,7,20,Ticks_Linear_8,9,1,48,75,1329757004
42,7,20,Ticks_Linear_8,10,5,42,127,1330543372
42,7,20,Ticks_Linear_8,11,1,48,71,1330547612
42,7,20,Ticks_Linear_8,12,1,48,70,1331338704
42,7,20,Ticks_Linear_8,13,5,42,127,1331353048
42,7,20,Ticks_Linear_8,14,5,42,127,1332163112
42,7,20,Ticks_Linear_8,15,1,48,64,1332164080
42,7,20,Ticks_Linear_8,16,5,42,127,1332973096
42,7,20,Ticks_Linear_8,17,1,48,64,1333024000
42,7,20,Ticks_Linear_8,18,5,42,127,1333772524
42,7,20,Ticks_Linear_8,19,1,48,70,1333781488
42,7,20,Ticks_Linear_8,20,1,48,72,1334564708
42,7,20,Ticks_Linear_8,21,5,42,127,1334573364
42,7,20,Ticks_Linear_8,22,1,48,57,1335370492
42,7,20,Ticks_Linear_8,23,5,42,127,1335383272
42,7,20,Ticks_Linear_8,24,1,48,64,1336146924
42,7,20,Ticks_Linear_8,25,5,42,127,1336183172
42,7,20,Ticks_Linear_8,26,5,42,127,1336983052
42,7,20,Ticks_Linear_8,27,1,48,67,1336984016
42,7,20,Ticks_Linear_8,28,5,42,127,1337773340
42,7,20,Ticks_Linear_8,29,1,48,72,1337799072
42,7,20,Ticks_Linear_8,30,5,42,127,1338573136
42,7,20,Ticks_Linear_8,31,1,48,67,1338584200
42,7,20,Ticks_Linear_8,32,1,48,73,1339331480
42,7,20,Ticks_Linear_8,33,5,42,127,1339362972
42,7,20,Ticks_Linear_8,34,1,48,70,1340137864
42,7,20,Ticks_Linear_8,35,5,42,127,1340153332
42,7,20,Ticks_Linear_8,36,5,42,127,1340942952
42,7,20,Ticks_Linear_8,37,1,48,67,1340959548
42,7,20,Ticks_Linear_8,38,5,42,127,1341723056
42,7,20,Ticks_Linear_8,39,1,48,67,1341756880
42,7,20,Ticks_Linear_8,40,5,42,127,1342503232
42,7,20,Ticks_Linear_8,41,1,48,76,1342527772
42,7,20,Ticks_Linear_8,42,1,48,78,1343257828
42,7,20,Ticks_Linear_8,43,5,42,127,1343282656
42,7,20,Ticks_Linear_8,44,1,48,78,1343996884
42,7,20,Ticks_Linear_8,45,5,42,127,1344062908
42,7,20,Ticks_Linear_8,46,1,48,71,1344807544
42,7,20,Ticks_Linear_8,47,5,42,127,1344843088
42,7,20,Ticks_Linear_8,48,5,42,127,1345613236
42,7,20,Ticks_Linear_8,49,1,48,70,1345617848
42,7,20,Ticks_Linear_8,50,1,48,84,1346378312
42,7,20,Ticks_Linear_8,51,5,42,127,1346383224
42,7,20,Ticks_Linear_8,52,1,48,82,1347142696
42,7,20,Ticks_Linear_8,53,5,42,127,1347153292
42,7,20,Ticks_Linear_8,54,5,42,127,1347923512
42,7,20,Ticks_Linear_8,55,1,48,62,1347939884
42,7,20,Ticks_Linear_8,56,1,48,83,1348680724
42,7,20,Ticks_Linear_8,57,5,42,127,1348693576
42,7,20,Ticks_Linear_8,58,1,48,82,1349388040
42,7,20,Ticks_Linear_8,59,5,42,127,1349453164
42,7,20,Ticks_Linear_8,60,1,48,67,1350189116
42,7,20,Ticks_Linear_8,61,5,42,127,1350212972
42,7,20,Ticks_Linear_8,62,1,48,68,1350948844
42,7,20,Ticks_Linear_8,63,5,42,127,1350972780
42,7,20,Ticks_Linear_8,64,1,48,68,1351729848
42,7,20,Ticks_Linear_8,65,5,42,127,1351732592
42,7,20,Ticks_Linear_8,66,5,42,127,1352493528
42,7,20,Ticks_Linear_8,67,1,48,70,1352498816
42,7,20,Ticks_Linear_8,68,5,42,127,1353253112
42,7,20,Ticks_Linear_8,69,1,48,76,1353264992
42,7,20,Ticks_Linear_8,70,1,48,72,1353990788
42,7,20,Ticks_Linear_8,71,5,42,127,1354002880
42,7,20,Ticks_Linear_8,72,1,48,83,1354722960
42,7,20,Ticks_Linear_8,73,5,42,127,1354753476
42,7,20,Ticks_Linear_8,74,1,48,74,1355470856
42,7,20,Ticks_Linear_8,75,5,42,127,1355502952
42,7,20,Ticks_Linear_8,76,1,48,62,1356238600
42,7,20,Ticks_Linear_8,77,5,42,127,1356252428
42,7,20,Ticks_Linear_8,78,1,48,67,1356976844
42,7,20,Ticks_Linear_8,79,5,42,127,1356992840
42,7,20,Ticks_Linear_8,80,1,48,60,1357721232
42,7,20,Ticks_Linear_8,81,5,42,127,1357733476
42,7,20,Ticks_Linear_8,82,1,48,64,1358457224
42,7,20,Ticks_Linear_8,83,5,42,127,1358472544
42,7,20,Ticks_Linear_8,84,1,48,59,1359185476
42,7,20,Ticks_Linear_8,85,5,42,127,1359213028
42,7,20,Ticks_Linear_8,86,1,48,56,1359922072
42,7,20,Ticks_Linear_8,87,5,42,127,1359953564
42,7,20,Ticks_Linear_8,88,5,42,127,1360683352
42,7,20,Ticks_Linear_8,89,1,48,64,1360693292
42,7,20,Ticks_Linear_8,90,5,42,127,1361412460
42,7,20,Ticks_Linear_8,91,1,48,68,1361416996
42,7,20,Ticks_Linear_8,92,1,48,73,1362120464
42,7,20,Ticks_Linear_8,93,5,42,127,1362142680
42,7,20,Ticks_Linear_8,94,1,48,68,1362839308
42,7,20,Ticks_Linear_8,95,5,42,127,1362872680
42,7,20,Ticks_Linear_8,96,1,48,71,1363601636
42,7,20,Ticks_Linear_8,97,5,42,127,1363603508
42,7,20,Ticks_Linear_8,98,5,42,127,1364322636
42,7,20,Ticks_Linear_8,99,1,48,69,1364334168
42,7,20,Ticks_Linear_8,100,1,48,73,1365016564
42,7,20,Ticks_Linear_8,101,5,42,127,1365042596
42,7,20,Ticks_Linear_8,102,1,48,81,1365757356
42,7,20,Ticks_Linear_8,103,5,42,127,1365762416
42,7,20,Ticks_Linear_8,104,5,42,127,1366483216
42,7,20,Ticks_Linear_8,105,1,48,72,1366487828
42,7,20,Ticks_Linear_8,106,1,48,78,1367172288
42,7,20,Ticks_Linear_8,107,5,42,127,1367203324
42,7,20,Ticks_Linear_8,108,1,48,58,1367874324
42,7,20,Ticks_Linear_8,109,5,42,127,1367912960
42,7,20,Ticks_Linear_8,110,1,48,72,1368616904
42,7,20,Ticks_Linear_8,111,5,42,127,1368622420
42,7,20,Ticks_Linear_8,112,5,42,127,1369333036
42,7,20,Ticks_Linear_8,113,1,48,76,1369334000
42,7,20,Ticks_Linear_8,114,1,48,85,1370004580
42,7,20,Ticks_Linear_8,115,5,42,127,1370042660
42,7,20,Ticks_Linear_8,116,1,48,67,1370715756
42,7,20,Ticks_Linear_8,117,5,42,127,1370753344
42,7,20,Ticks_Linear_8,118,5,42,127,1371452924
42,7,20,Ticks_Linear_8,119,1,48,64,1371486376
42,7,20,Ticks_Linear_8,120,5,42,127,1372153348
42,7,20,Ticks_Linear_8,121,1,48,64,1372167700
42,7,20,Ticks_Linear_8,122,1,48,66,1372837996
42,7,20,Ticks_Linear_8,123,5,42,127,1372852716
42,7,20,Ticks_Linear_8,124,1,48,61,1373518172
42,7,20,Ticks_Linear_8,125,5,42,127,1373553212
42,7,20,Ticks_Linear_8,126,1,48,62,1374252116
42,7,20,Ticks_Linear_8,127,5,42,127,1374253984
42,7,20,Ticks_Linear_8,128,5,42,127,1374952920
42,7,20,Ticks_Linear_8,129,1,48,57,1374959704
42,7,20,Ticks_Linear_8,130,5,42,127,1375642856
42,7,20,Ticks_Linear_8,131,1,48,74,1375651744
42,7,20,Ticks_Linear_8,132,5,42,127,1376333296
42,7,20,Ticks_Linear_8,133,1,48,71,1376359052
42,7,20,Ticks_Linear_8,134,5,42,127,1377023384
42,7,20,Ticks_Linear_8,135,1,48,64,1377067092
42,7,20,Ticks_Linear_8,136,5,42,127,1377712648
42,7,20,Ticks_Linear_8,137,1,48,69,1377734192
42,7,20,Ticks_Linear_8,138,5,42,127,1378392304
42,7,20,Ticks_Linear_8,139,1,48,68,1378410880
42,7,20,Ticks_Linear_8,140,5,42,127,1379073480
42,7,20,Ticks_Linear_8,141,1,48,67,1379097792
42,7,20,Ticks_Linear_8,142,5,42,127,1379753236
42,7,20,Ticks_Linear_8,143,1,48,65,1379760408
42,7,20,Ticks_Linear_8,144,5,42,127,1380433264
42,7,20,Ticks_Linear_8,145,1,48,61,1380455952
42,7,20,Ticks_Linear_8,146,1,48,64,1381085180
42,7,20,Ticks_Linear_8,147,5,42,127,1381113236
42,7,20,Ticks_Linear_8,148,1,48,71,1381734612
42,7,20,Ticks_Linear_8,149,5,42,127,1381782808
42,7,20,Ticks_Linear_8,150,1,48,65,1382413068
42,7,20,Ticks_Linear_8,151,5,42,127,1382452800
42,7,20,Ticks_Linear_8,152,5,42,127,1383123348
42,7,20,Ticks_Linear_8,153,1,48,66,1383146236
42,7,20,Ticks_Linear_8,154,5,42,127,1383793144
42,7,20,Ticks_Linear_8,155,1,48,58,1383845916
42,7,20,Ticks_Linear_8,156,5,42,127,1384462836
42,7,20,Ticks_Linear_8,157,1,48,61,1384484232
42,7,20,Ticks_Linear_8,158,1,48,55,1385117080
42,7,20,Ticks_Linear_8,159,5,42,127,1385123188
42,7,20,Ticks_Linear_8,160,5,42,127,1385782852
42,7,20,Ticks_Linear_8,161,1,48,61,1385804396
42,7,20,Ticks_Linear_8,162,1,48,57,1386431936
42,7,20,Ticks_Linear_8,163,5,42,127,1386443132
42,7,20,Ticks_Linear_8,164,1,48,68,1387072724
42,7,20,Ticks_Linear_8,165,5,42,127,1387102788
42,7,20,Ticks_Linear_8,166,1,48,70,1387719820
42,7,20,Ticks_Linear_8,167,5,42,127,1387762924
42,7,20,Ticks_Linear_8,168,1,48,45,1388381732
42,7,20,Ticks_Linear_8,169,5,42,127,1388413320
42,7,20,Ticks_Linear_8,170,1,48,63,1389042764
42,7,20,Ticks_Linear_8,171,5,42,127,1389062572
42,7,20,Ticks_Linear_8,172,1,48,58,1389712976
42,7,20,Ticks_Linear_8,173,5,42,127,1389714616
42,7,20,Ticks_Linear_8,174,1,48,60,1390348696
42,7,20,Ticks_Linear_8,175,5,42,127,1390362968
42,7,20,Ticks_Linear_8,176,1,48,68,1390998340
42,7,20,Ticks_Linear_8,177,5,42,127,1391013216
42,7,20,Ticks_Linear_8,178,1,48,71,1391646544
42,7,20,Ticks_Linear_8,179,5,42,127,1391653108
42,7,20,Ticks_Linear_8,180,5,42,127,1392293104
42,7,20,Ticks_Linear_8,181,1,48,64,1392295844
42,7,20,Ticks_Linear_8,182,5,42,127,1392933364
42,7,20,Ticks_Linear_8,183,1,48,69,1392949516
42,7,20,Ticks_Linear_8,184,5,42,127,1393573352
42,7,20,Ticks_Linear_8,185,1,48,69,1393584488
42,7,20,Ticks_Linear_8,186,5,42,127,1394213320
42,7,20,Ticks_Linear_8,187,1,48,74,1394231724
42,7,20,Ticks_Linear_8,188,5,42,127,1394842976
42,7,20,Ticks_Linear_8,189,1,48,62,1394847740
42,7,20,Ticks_Linear_8,190,1,48,74,1395472756
42,7,20,Ticks_Linear_8,191,5,42,127,1395474472
42,7,20,Ticks_Linear_8,192,1,48,58,1396082748
42,7,20,Ticks_Linear_8,193,5,42,127,1396102556
42,7,20,Ticks_Linear_8,194,5,42,127,1396733316
42,7,20,Ticks_Linear_8,195,1,48,69,1396737408
42,7,20,Ticks_Linear_8,196,5,42,127,1397363120
42,7,20,Ticks_Linear_8,197,1,48,66,1397372536
42,7,20,Ticks_Linear_8,198,5,42,127,1397982568
42,7,20,Ticks_Linear_8,199,1,48,67,1397998040
42,7,20,Ticks_Linear_8,200,5,42,127,1398603132
42,7,20,Ticks_Linear_8,201,1,48,67,1398622880
42,7,20,Ticks_Linear_8,202,5,42,127,1399222604
42,7,20,Ticks_Linear_8,203,1,48,67,1399267208
42,7,20,Ticks_Linear_8,204,5,42,127,1399843320
42,7,20,Ticks_Linear_8,205,1,48,62,1399863668
42,7,20,Ticks_Linear_8,206,5,42,127,1400462568
42,7,20,Ticks_Linear_8,207,1,48,61,1400468904
42,7,20,Ticks_Linear_8,208,5,42,127,1401072876
42,7,20,Ticks_Linear_8,209,1,48,60,1401083856
42,7,20,Ticks_Linear_8,210,5,42,127,1401683480
42,7,20,Ticks_Linear_8,211,1,48,62,1401705724
42,7,20,Ticks_Linear_8,212,1,48,58,1402286880
42,7,20,Ticks_Linear_8,213,5,42,127,1402292468
42,7,20,Ticks_Linear_8,214,1,48,65,1402903004
42,7,20,Ticks_Linear_8,215,5,42,127,1402904564
42,7,20,Ticks_Linear_8,216,1,48,65,1403507072
42,7,20,Ticks_Linear_8,217,5,42,127,1403513404
42,7,20,Ticks_Linear_8,218,5,42,127,1404113160
42,7,20,Ticks_Linear_8,219,1,48,69,1404123020
42,7,20,Ticks_Linear_8,220,1,48,56,1404710988
42,7,20,Ticks_Linear_8,221,5,42,127,1404713428
42,7,20,Ticks_Linear_8,222,1,48,63,1405298256
42,7,20,Ticks_Linear_8,223,5,42,127,1405313428
42,7,20,Ticks_Linear_8,224,1,48,64,1405889840
42,7,20,Ticks_Linear_8,225,5,42,127,1405912504
42,7,20,Ticks_Linear_8,226,1,48,65,1406495360
42,7,20,Ticks_Linear_8,227,5,42,127,1406512404
42,7,20,Ticks_Linear_8,228,1,48,60,1407089660
42,7,20,Ticks_Linear_8,229,5,42,127,1407103416
42,7,20,Ticks_Linear_8,230,1,48,61,1407685220
42,7,20,Ticks_Linear_8,231,5,42,127,1407693428
42,7,20,Ticks_Linear_8,232,1,48,62,1408283296
42,7,20,Ticks_Linear_8,233,5,42,127,1408284864
42,7,20,Ticks_Linear_8,234,5,42,127,1408873036
42,7,20,Ticks_Linear_8,235,1,48,64,1408887092
42,7,20,Ticks_Linear_8,236,1,48,51,1409462456
42,7,20,Ticks_Linear_8,237,5,42,127,1409464092
42,7,20,Ticks_Linear_8,238,1,48,64,1410042500
42,7,20,Ticks_Linear_8,239,5,42,127,1410044368
42,7,20,Ticks_Linear_8,240,1,48,61,1410613900
42,7,20,Ticks_Linear_8,241,5,42,127,1410622780
42,7,20,Ticks_Linear_8,242,5,42,127,1411202416
42,7,20,Ticks_Linear_8,243,1,48,66,1411214076
42,7,20,Ticks_Linear_8,244,1,48,50,1411769540
42,7,20,Ticks_Linear_8,245,5,42,127,1411783212
42,7,20,Ticks_Linear_8,246,1,48,65,1412329524
42,7,20,Ticks_Linear_8,247,5,42,127,1412362596
42,7,20,Ticks_Linear_8,248,1,48,66,1412926128
42,7,20,Ticks_Linear_8,249,5,42,127,1412933064
42,7,20,Ticks_Linear_8,250,5,42,127,1413503340
42,7,20,Ticks_Linear_8,251,1,48,72,1413545252
42,7,20,Ticks_Linear_8,252,5,42,127,1414072832
42,7,20,Ticks_Linear_8,253,1,48,51,1414080516
42,7,20,Ticks_Linear_8,254,5,42,127,1414643076
42,7,20,Ticks_Linear_8,255,1,48,62,1414656160
42,7,20,Ticks_Linear_8,256,1,48,61,1415198144
42,7,20,Ticks_Linear_8,257,5,42,127,1415213540
42,7,20,Ticks_Linear_8,258,1,48,62,1415747344
42,7,20,Ticks_Linear_8,259,5,42,127,1415782984
42,7,20,Ticks_Linear_8,260,1,48,59,1416313876
42,7,20,Ticks_Linear_8,261,5,42,127,1416343044
42,7,20,Ticks_Linear_8,262,1,48,62,1416864120
42,7,20,Ticks_Linear_8,263,5,42,127,1416902952
42,7,20,Ticks_Linear_8,264,1,48,61,1417441408
42,7,20,Ticks_Linear_8,265,5,42,127,1417463160
42,7,20,Ticks_Linear_8,266,5,42,127,1418023376
42,7,20,Ticks_Linear_8,267,1,48,67,1418028068
42,7,20,Ticks_Linear_8,268,5,42,127,1418573324
42,7,20,Ticks_Linear_8,269,1,48,67,1418606124
42,7,20,Ticks_Linear_8,270,5,42,127,1419122928
42,7,20,Ticks_Linear_8,271,1,48,69,1419129864
42,7,20,Ticks_Linear_8,272,5,42,127,1419672948
42,7,20,Ticks_Linear_8,273,1,48,69,1419675468
42,7,20,Ticks_Linear_8,274,1,48,63,1420206228
42,7,20,Ticks_Linear_8,275,5,42,127,1420222968
42,7,20,Ticks_Linear_8,276,1,48,71,1420759616
42,7,20,Ticks_Linear_8,277,5,42,127,1420772768
42,7,20,Ticks_Linear_8,278,1,48,63,1421297140
42,7,20,Ticks_Linear_8,279,5,42,127,1421313432
42,7,20,Ticks_Linear_8,280,1,48,67,1421842452
42,7,20,Ticks_Linear_8,281,5,42,127,1421853048
42,7,20,Ticks_Linear_8,282,1,48,65,1422365212
42,7,20,Ticks_Linear_8,283,5,42,127,1422392812
42,7,20,Ticks_Linear_8,284,1,48,55,1422894040
42,7,20,Ticks_Linear_8,285,5,42,127,1422933252
42,7,20,Ticks_Linear_8,286,1,48,47,1423422356
42,7,20,Ticks_Linear_8,287,5,42,127,1423473116
42,7,20,Ticks_Linear_8,288,1,48,53,1423991356
42,7,20,Ticks_Linear_8,289,5,42,127,1424002624
42,7,20,Ticks_Linear_8,290,5,42,127,1424532736
42,7,20,Ticks_Linear_8,291,1,48,54,1424549932
42,7,20,Ticks_Linear_8,292,5,42,127,1425063360
42,7,20,Ticks_Linear_8,293,1,48,43,1425064400
42,7,20,Ticks_Linear_8,294,1,48,47,1425581888
42,7,20,Ticks_Linear_8,295,5,42,127,1425592788
42,7,20,Ticks_Linear_8,296,1,48,41,1426090712
42,7,20,Ticks_Linear_8,297,5,42,127,1426123044
42,7,20,Ticks_Linear_8,298,1,48,58,1426641448
42,7,20,Ticks_Linear_8,299,5,42,127,1426643260
42,7,20,Ticks_Linear_8,300,5,42,127,1427162736
42,7,20,Ticks_Linear_8,301,1,48,57,1427181512
42,7,20,Ticks_Linear_8,302,5,42,127,1427682732
42,7,20,Ticks_Linear_8,303,1,48,54,1427689068
42,7,20,Ticks_Linear_8,304,1,48,58,1428193920
42,7,20,Ticks_Linear_8,305,5,42,127,1428202872
42,7,20,Ticks_Linear_8,306,1,48,55,1428692720
42,7,20,Ticks_Linear_8,307,5,42,127,1428723016
42,7,20,Ticks_Linear_8,308,1,48,60,1429211596
42,7,20,Ticks_Linear_8,309,5,42,127,1429233124
42,7,20,Ticks_Linear_8,310,1,48,56,1429697504
42,7,20,Ticks_Linear_8,311,5,42,127,1429742932
42,7,20,Ticks_Linear_8,312,1,48,52,1430193244
42,7,20,Ticks_Linear_8,313,5,42,127,1430252820
42,7,20,Ticks_Linear_8,314,1,48,57,1430724992
42,7,20,Ticks_Linear_8,315,5,42,127,1430762776
42,7,20,Ticks_Linear_8,316,5,42,127,1431272820
42,7,20,Ticks_Linear_8,317,1,48,61,1431296756
42,7,20,Ticks_Linear_8,318,1,48,51,1431754572
42,7,20,Ticks_Linear_8,319,5,42,127,1431772512
42,7,20,Ticks_Linear_8,320,1,48,60,1432236600
42,7,20,Ticks_Linear_8,321,5,42,127,1432273484
42,7,20,Ticks_Linear_8,322,1,48,53,1432735776
42,7,20,Ticks_Linear_8,323,5,42,127,1432772960
42,7,20,Ticks_Linear_8,324,1,48,52,1433216604
42,7,20,Ticks_Linear_8,325,5,42,127,1433272588
42,7,20,Ticks_Linear_8,326,1,48,52,1433756892
42,7,20,Ticks_Linear_8,327,5,42,127,1433773336
42,7,20,Ticks_Linear_8,328,1,48,55,1434249324
42,7,20,Ticks_Linear_8,329,5,42,127,1434273556
42,7,20,Ticks_Linear_8,330,1,48,57,1434750144
42,7,20,Ticks_Linear_8,331,5,42,127,1434762696
42,7,20,Ticks_Linear_8,332,1,48,58,1435250664
42,7,20,Ticks_Linear_8,333,5,42,127,1435253336
42,7,20,Ticks_Linear_8,334,1,48,51,1435734476
42,7,20,Ticks_Linear_8,335,5,42,127,1435742604
42,7,20,Ticks_Linear_8,336,1,48,64,1436198300
42,7,20,Ticks_Linear_8,337,5,42,127,1436233240
42,7,20,Ticks_Linear_8,0,9999,9999,9999,1325640792
42,7,20,Ticks_Linear_8,1,9999,9999,9999,1326461008
42,7,20,Ticks_Linear_8,2,9999,9999,9999,1327280220
42,7,20,Ticks_Linear_8,3,9999,9999,9999,1328100468
42,7,20,Ticks_Linear_8,4,9999,9999,9999,1328920636
42,7,20,Ticks_Linear_8,5,9999,9999,9999,1329730620
42,7,20,Ticks_Linear_8,6,9999,9999,9999,1330540628
42,7,20,Ticks_Linear_8,7,9999,9999,9999,1331350604
42,7,20,Ticks_Linear_8,8,9999,9999,9999,1332160592
42,7,20,Ticks_Linear_8,9,9999,9999,9999,1332970576
42,7,20,Ticks_Linear_8,10,9999,9999,9999,1333770300
42,7,20,Ticks_Linear_8,11,9999,9999,9999,1334571064
42,7,20,Ticks_Linear_8,12,9999,9999,9999,1335381048
42,7,20,Ticks_Linear_8,13,9999,9999,9999,1336180796
42,7,20,Ticks_Linear_8,14,9999,9999,9999,1336980604
42,7,20,Ticks_Linear_8,15,9999,9999,9999,1337771116
42,7,20,Ticks_Linear_8,16,9999,9999,9999,1338570840
42,7,20,Ticks_Linear_8,17,9999,9999,9999,1339360376
42,7,20,Ticks_Linear_8,18,9999,9999,9999,1340150884
42,7,20,Ticks_Linear_8,19,9999,9999,9999,1340940356
42,7,20,Ticks_Linear_8,20,9999,9999,9999,1341720684
42,7,20,Ticks_Linear_8,21,9999,9999,9999,1342500936
42,7,20,Ticks_Linear_8,22,9999,9999,9999,1343280208
42,7,20,Ticks_Linear_8,23,9999,9999,9999,1344060536
42,7,20,Ticks_Linear_8,24,9999,9999,9999,1344840788
42,7,20,Ticks_Linear_8,25,9999,9999,9999,1345610864
42,7,20,Ticks_Linear_8,26,9999,9999,9999,1346380924
42,7,20,Ticks_Linear_8,27,9999,9999,9999,1347150916
42,7,20,Ticks_Linear_8,28,9999,9999,9999,1347920992
42,7,20,Ticks_Linear_8,29,9999,9999,9999,1348691056
42,7,20,Ticks_Linear_8,30,9999,9999,9999,1349450864
42,7,20,Ticks_Linear_8,31,9999,9999,9999,1350210676
42,7,20,Ticks_Linear_8,32,9999,9999,9999,1350970484
42,7,20,Ticks_Linear_8,33,9999,9999,9999,1351730292
42,7,20,Ticks_Linear_8,34,9999,9999,9999,1352491080
42,7,20,Ticks_Linear_8,35,9999,9999,9999,1353250888
42,7,20,Ticks_Linear_8,36,9999,9999,9999,1354000508
42,7,20,Ticks_Linear_8,37,9999,9999,9999,1354751032
42,7,20,Ticks_Linear_8,38,9999,9999,9999,1355500656
42,7,20,Ticks_Linear_8,39,9999,9999,9999,1356250204
42,7,20,Ticks_Linear_8,40,9999,9999,9999,1356990540
42,7,20,Ticks_Linear_8,41,9999,9999,9999,1357730880
42,7,20,Ticks_Linear_8,42,9999,9999,9999,1358470244
42,7,20,Ticks_Linear_8,43,9999,9999,9999,1359210580
42,7,20,Ticks_Linear_8,44,9999,9999,9999,1359950968
42,7,20,Ticks_Linear_8,45,9999,9999,9999,1360681052
42,7,20,Ticks_Linear_8,46,9999,9999,9999,1361410160
42,7,20,Ticks_Linear_8,47,9999,9999,9999,1362140232
42,7,20,Ticks_Linear_8,48,9999,9999,9999,1362870384
42,7,20,Ticks_Linear_8,49,9999,9999,9999,1363600468
42,7,20,Ticks_Linear_8,50,9999,9999,9999,1364320340
42,7,20,Ticks_Linear_8,51,9999,9999,9999,1365040224
42,7,20,Ticks_Linear_8,52,9999,9999,9999,1365760120
42,7,20,Ticks_Linear_8,53,9999,9999,9999,1366480992
42,7,20,Ticks_Linear_8,54,9999,9999,9999,1367200880
42,7,20,Ticks_Linear_8,55,9999,9999,9999,1367910512
42,7,20,Ticks_Linear_8,56,9999,9999,9999,1368620124
42,7,20,Ticks_Linear_8,57,9999,9999,9999,1369330812
42,7,20,Ticks_Linear_8,58,9999,9999,9999,1370040436
42,7,20,Ticks_Linear_8,59,9999,9999,9999,1370751044
42,7,20,Ticks_Linear_8,60,9999,9999,9999,1371450476
42,7,20,Ticks_Linear_8,61,9999,9999,9999,1372150900
42,7,20,Ticks_Linear_8,62,9999,9999,9999,1372850268
42,7,20,Ticks_Linear_8,63,9999,9999,9999,1373550688
42,7,20,Ticks_Linear_8,64,9999,9999,9999,1374251092
42,7,20,Ticks_Linear_8,65,9999,9999,9999,1374950472
42,7,20,Ticks_Linear_8,66,9999,9999,9999,1375640632
42,7,20,Ticks_Linear_8,67,9999,9999,9999,1376330848
42,7,20,Ticks_Linear_8,68,9999,9999,9999,1377021008
42,7,20,Ticks_Linear_8,69,9999,9999,9999,1377710200
42,7,20,Ticks_Linear_8,70,9999,9999,9999,1378390080
42,7,20,Ticks_Linear_8,71,9999,9999,9999,1379071032
42,7,20,Ticks_Linear_8,72,9999,9999,9999,1379751012
42,7,20,Ticks_Linear_8,73,9999,9999,9999,1380430964
42,7,20,Ticks_Linear_8,74,9999,9999,9999,1381110860
42,7,20,Ticks_Linear_8,75,9999,9999,9999,1381780584
42,7,20,Ticks_Linear_8,76,9999,9999,9999,1382450276
42,7,20,Ticks_Linear_8,77,9999,9999,9999,1383120976
42,7,20,Ticks_Linear_8,78,9999,9999,9999,1383790696
42,7,20,Ticks_Linear_8,79,9999,9999,9999,1384460388
42,7,20,Ticks_Linear_8,80,9999,9999,9999,1385120888
42,7,20,Ticks_Linear_8,81,9999,9999,9999,1385780332
42,7,20,Ticks_Linear_8,82,9999,9999,9999,1386440756
42,7,20,Ticks_Linear_8,83,9999,9999,9999,1387100268
42,7,20,Ticks_Linear_8,84,9999,9999,9999,1387760700
42,7,20,Ticks_Linear_8,85,9999,9999,9999,1388410948
42,7,20,Ticks_Linear_8,86,9999,9999,9999,1389060200
42,7,20,Ticks_Linear_8,87,9999,9999,9999,1389710452
42,7,20,Ticks_Linear_8,88,9999,9999,9999,1390360672
42,7,20,Ticks_Linear_8,89,9999,9999,9999,1391010916
42,7,20,Ticks_Linear_8,90,9999,9999,9999,1391650884
42,7,20,Ticks_Linear_8,91,9999,9999,9999,1392290880
42,7,20,Ticks_Linear_8,92,9999,9999,9999,1392930916
42,7,20,Ticks_Linear_8,93,9999,9999,9999,1393570908
42,7,20,Ticks_Linear_8,94,9999,9999,9999,1394210872
42,7,20,Ticks_Linear_8,95,9999,9999,9999,1394840676
42,7,20,Ticks_Linear_8,96,9999,9999,9999,1395470456
42,7,20,Ticks_Linear_8,97,9999,9999,9999,1396100184
42,7,20,Ticks_Linear_8,98,9999,9999,9999,1396730944
42,7,20,Ticks_Linear_8,99,9999,9999,9999,1397360748
42,7,20,Ticks_Linear_8,100,9999,9999,9999,1397980268
42,7,20,Ticks_Linear_8,101,9999,9999,9999,1398600760
42,7,20,Ticks_Linear_8,102,9999,9999,9999,1399220304
42,7,20,Ticks_Linear_8,103,9999,9999,9999,1399840872
42,7,20,Ticks_Linear_8,104,9999,9999,9999,1400460344
42,7,20,Ticks_Linear_8,105,9999,9999,9999,1401070652
42,7,20,Ticks_Linear_8,106,9999,9999,9999,1401680960
42,7,20,Ticks_Linear_8,107,9999,9999,9999,1402290244
42,7,20,Ticks_Linear_8,108,9999,9999,9999,1402900556
42,7,20,Ticks_Linear_8,109,9999,9999,9999,1403510880
42,7,20,Ticks_Linear_8,110,9999,9999,9999,1404110936
42,7,20,Ticks_Linear_8,111,9999,9999,9999,1404711056
42,7,20,Ticks_Linear_8,112,9999,9999,9999,1405311056
42,7,20,Ticks_Linear_8,113,9999,9999,9999,1405910128
42,7,20,Ticks_Linear_8,114,9999,9999,9999,1406510180
42,7,20,Ticks_Linear_8,115,9999,9999,9999,1407101040
42,7,20,Ticks_Linear_8,116,9999,9999,9999,1407690832
42,7,20,Ticks_Linear_8,117,9999,9999,9999,1408280700
42,7,20,Ticks_Linear_8,118,9999,9999,9999,1408870516
42,7,20,Ticks_Linear_8,119,9999,9999,9999,1409460304
42,7,20,Ticks_Linear_8,120,9999,9999,9999,1410040956
42,7,20,Ticks_Linear_8,121,9999,9999,9999,1410620480
42,7,20,Ticks_Linear_8,122,9999,9999,9999,1411200120
42,7,20,Ticks_Linear_8,123,9999,9999,9999,1411780692
42,7,20,Ticks_Linear_8,124,9999,9999,9999,1412360296
42,7,20,Ticks_Linear_8,125,9999,9999,9999,1412930616
42,7,20,Ticks_Linear_8,126,9999,9999,9999,1413501040
42,7,20,Ticks_Linear_8,127,9999,9999,9999,1414070384
42,7,20,Ticks_Linear_8,128,9999,9999,9999,1414640704
42,7,20,Ticks_Linear_8,129,9999,9999,9999,1415211092
42,7,20,Ticks_Linear_8,130,9999,9999,9999,1415780464
42,7,20,Ticks_Linear_8,131,9999,9999,9999,1416340596
42,7,20,Ticks_Linear_8,132,9999,9999,9999,1416900728
42,7,20,Ticks_Linear_8,133,9999,9999,9999,1417460864
42,7,20,Ticks_Linear_8,134,9999,9999,9999,1418020928
42,7,20,Ticks_Linear_8,135,9999,9999,9999,1418570876
42,7,20,Ticks_Linear_8,136,9999,9999,9999,1419120704
42,7,20,Ticks_Linear_8,137,9999,9999,9999,1419670652
42,7,20,Ticks_Linear_8,138,9999,9999,9999,1420220520
42,7,20,Ticks_Linear_8,139,9999,9999,9999,1420770396
42,7,20,Ticks_Linear_8,140,9999,9999,9999,1421311060
42,7,20,Ticks_Linear_8,141,9999,9999,9999,1421850748
42,7,20,Ticks_Linear_8,142,9999,9999,9999,1422390368
42,7,20,Ticks_Linear_8,143,9999,9999,9999,1422931028
42,7,20,Ticks_Linear_8,144,9999,9999,9999,1423470668
42,7,20,Ticks_Linear_8,145,9999,9999,9999,1424000104
42,7,20,Ticks_Linear_8,146,9999,9999,9999,1424530512
42,7,20,Ticks_Linear_8,147,9999,9999,9999,1425060988
42,7,20,Ticks_Linear_8,148,9999,9999,9999,1425590340
42,7,20,Ticks_Linear_8,149,9999,9999,9999,1426120816
42,7,20,Ticks_Linear_8,150,9999,9999,9999,1426640984
42,7,20,Ticks_Linear_8,151,9999,9999,9999,1427160140
42,7,20,Ticks_Linear_8,152,9999,9999,9999,1427680360
42,7,20,Ticks_Linear_8,153,9999,9999,9999,1428200572
42,7,20,Ticks_Linear_8,154,9999,9999,9999,1428720716
42,7,20,Ticks_Linear_8,155,9999,9999,9999,1429230676
42,7,20,Ticks_Linear_8,156,9999,9999,9999,1429740636
42,7,20,Ticks_Linear_8,157,9999,9999,9999,1430250596
42,7,20,Ticks_Linear_8,158,9999,9999,9999,1430760552
42,7,20,Ticks_Linear_8,159,9999,9999,9999,1431270520
42,7,20,Ticks_Linear_8,160,9999,9999,9999,1431770216
42,7,20,Ticks_Linear_8,161,9999,9999,9999,1432270964
42,7,20,Ticks_Linear_8,162,9999,9999,9999,1432770664
42,7,20,Ticks_Linear_8,163,9999,9999,9999,1433270364
42,7,20,Ticks_Linear_8,164,9999,9999,9999,1433771108
42,7,20,Ticks_Linear_8,165,9999,9999,9999,1434270812
42,7,20,Ticks_Linear_8,166,9999,9999,9999,1434760252
42,7,20,Ticks_Linear_8,167,9999,9999,9999,1435250812
42,7,20,Ticks_Linear_8,168,9999,9999,9999,1435740232
42,7,20,Ticks_Linear_8,169,9999,9999,9999,1436230716
42,8,21,Ticks_Linear_5,0,5,42,127,1447302540
42,8,21,Ticks_Linear_5,1,5,42,127,1447782716
42,8,21,Ticks_Linear_5,2,1,48,43,1448239448
42,8,21,Ticks_Linear_5,3,5,42,127,1448263156
42,8,21,Ticks_Linear_5,4,1,48,46,1448743020
42,8,21,Ticks_Linear_5,5,5,42,127,1448744656
42,8,21,Ticks_Linear_5,6,5,42,127,1449222424
42,8,21,Ticks_Linear_5,7,1,48,59,1449236176
42,8,21,Ticks_Linear_5,8,1,48,55,1449691156
42,8,21,Ticks_Linear_5,9,5,42,127,1449713204
42,8,21,Ticks_Linear_5,10,1,48,61,1450176240
42,8,21,Ticks_Linear_5,11,5,42,127,1450202500
42,8,21,Ticks_Linear_5,12,1,48,61,1450672128
42,8,21,Ticks_Linear_5,13,5,42,127,1450693060
42,8,21,Ticks_Linear_5,14,1,48,62,1451159764
42,8,21,Ticks_Linear_5,15,5,42,127,1451182428
42,8,21,Ticks_Linear_5,16,1,48,66,1451654972
42,8,21,Ticks_Linear_5,17,5,42,127,1451673060
42,8,21,Ticks_Linear_5,18,1,48,76,1452143144
42,8,21,Ticks_Linear_5,19,5,42,127,1452172764
42,8,21,Ticks_Linear_5,20,1,48,69,1452630320
42,8,21,Ticks_Linear_5,21,5,42,127,1452673288
42,8,21,Ticks_Linear_5,22,1,48,67,1453147680
42,8,21,Ticks_Linear_5,23,5,42,127,1453173136
42,8,21,Ticks_Linear_5,24,1,48,69,1453645136
42,8,21,Ticks_Linear_5,25,5,42,127,1453672836
42,8,21,Ticks_Linear_5,26,1,48,77,1454131212
42,8,21,Ticks_Linear_5,27,5,42,127,1454172660
42,8,21,Ticks_Linear_5,28,1,48,63,1454639660
42,8,21,Ticks_Linear_5,29,5,42,127,1454682392
42,8,21,Ticks_Linear_5,30,1,48,62,1455152400
42,8,21,Ticks_Linear_5,31,5,42,127,1455192504
42,8,21,Ticks_Linear_5,32,1,48,62,1455656212
42,8,21,Ticks_Linear_5,33,5,42,127,1455703360
42,8,21,Ticks_Linear_5,34,1,48,65,1456156356
42,8,21,Ticks_Linear_5,35,5,42,127,1456213244
42,8,21,Ticks_Linear_5,36,1,48,65,1456673436
42,8,21,Ticks_Linear_5,37,5,42,127,1456723276
42,8,21,Ticks_Linear_5,38,1,48,57,1457186608
42,8,21,Ticks_Linear_5,39,5,42,127,1457242520
42,8,21,Ticks_Linear_5,40,1,48,63,1457715296
42,8,21,Ticks_Linear_5,41,5,42,127,1457762840
42,8,21,Ticks_Linear_5,42,1,48,61,1458241136
42,8,21,Ticks_Linear_5,43,5,42,127,1458282908
42,8,21,Ticks_Linear_5,44,1,48,48,1458748688
42,8,21,Ticks_Linear_5,45,5,42,127,1458803052
42,8,21,Ticks_Linear_5,46,1,48,66,1459263148
42,8,21,Ticks_Linear_5,47,5,42,127,1459323120
42,8,21,Ticks_Linear_5,48,1,48,69,1459781492
42,8,21,Ticks_Linear_5,49,5,42,127,1459852624
42,8,21,Ticks_Linear_5,50,1,48,54,1460330480
42,8,21,Ticks_Linear_5,51,5,42,127,1460383028
42,8,21,Ticks_Linear_5,52,5,42,127,1460912540
42,8,21,Ticks_Linear_5,53,1,48,61,1460921360
42,8,21,Ticks_Linear_5,54,5,42,127,1461442796
42,8,21,Ticks_Linear_5,55,1,48,62,1461458564
42,8,21,Ticks_Linear_5,56,5,42,127,1461973420
42,8,21,Ticks_Linear_5,57,1,48,57,1461975940
42,8,21,Ticks_Linear_5,58,1,48,57,1462494268
42,8,21,Ticks_Linear_5,59,5,42,127,1462512880
42,8,21,Ticks_Linear_5,60,1,48,57,1463029752
42,8,21,Ticks_Linear_5,61,5,42,127,1463052644
42,8,21,Ticks_Linear_5,62,1,48,62,1463564436
42,8,21,Ticks_Linear_5,63,5,42,127,1463593304
42,8,21,Ticks_Linear_5,64,5,42,127,1464132928
42,8,21,Ticks_Linear_5,65,1,48,54,1464139788
42,8,21,Ticks_Linear_5,66,1,48,55,1464672544
42,8,21,Ticks_Linear_5,67,5,42,127,1464674104
42,8,21,Ticks_Linear_5,68,1,48,52,1465189112
42,8,21,Ticks_Linear_5,69,5,42,127,1465222708
42,8,21,Ticks_Linear_5,70,1,48,54,1465727680
42,8,21,Ticks_Linear_5,71,5,42,127,1465773404
42,8,21,Ticks_Linear_5,72,5,42,127,1466332648
42,8,21,Ticks_Linear_5,73,1,48,21,1466335544
42,8,21,Ticks_Linear_5,74,5,42,127,1466882520
42,8,21,Ticks_Linear_5,75,1,48,51,1466885040
42,8,21,Ticks_Linear_5,76,1,48,51,1467433664
42,8,21,Ticks_Linear_5,77,5,42,127,1467435156
42,8,21,Ticks_Linear_5,78,1,48,46,1467978324
42,8,21,Ticks_Linear_5,79,5,42,127,1467992672
42,8,21,Ticks_Linear_5,80,1,48,46,1468551708
42,8,21,Ticks_Linear_5,81,5,42,127,1468553504
42,8,21,Ticks_Linear_5,82,1,48,48,1469110296
42,8,21,Ticks_Linear_5,83,5,42,127,1469112736
42,8,21,Ticks_Linear_5,84,5,42,127,1469672804
42,8,21,Ticks_Linear_5,85,1,48,41,1469684384
42,8,21,Ticks_Linear_5,86,5,42,127,1470232936
42,8,21,Ticks_Linear_5,87,1,48,46,1470238976
42,8,21,Ticks_Linear_5,88,1,48,39,1470792572
42,8,21,Ticks_Linear_5,89,5,42,127,1470803468
42,8,21,Ticks_Linear_5,90,5,42,127,1471372624
42,8,21,Ticks_Linear_5,91,1,48,44,1471385548
42,8,21,Ticks_Linear_5,92,1,48,47,1471937952
42,8,21,Ticks_Linear_5,93,5,42,127,1471943084
42,8,21,Ticks_Linear_5,94,1,48,53,1472501836
42,8,21,Ticks_Linear_5,95,5,42,127,1472513552
42,8,21,Ticks_Linear_5,96,5,42,127,1473082680
42,8,21,Ticks_Linear_5,97,1,48,35,1473107292
42,8,21,Ticks_Linear_5,98,1,48,46,1473645260
42,8,21,Ticks_Linear_5,99,5,42,127,1473663348
42,8,21,Ticks_Linear_5,100,1,48,57,1474199472
42,8,21,Ticks_Linear_5,101,5,42,127,1474242804
42,8,21,Ticks_Linear_5,102,1,48,52,1474789260
42,8,21,Ticks_Linear_5,103,5,42,127,1474822484
42,8,21,Ticks_Linear_5,104,1,48,43,1475389308
42,8,21,Ticks_Linear_5,105,5,42,127,1475403136
42,8,21,Ticks_Linear_5,106,5,42,127,1475982624
42,8,21,Ticks_Linear_5,107,1,48,45,1476010004
42,8,21,Ticks_Linear_5,108,5,42,127,1476572488
42,8,21,Ticks_Linear_5,109,1,48,54,1476600612
42,8,21,Ticks_Linear_5,110,1,48,55,1477159452
42,8,21,Ticks_Linear_5,111,5,42,127,1477163616
42,8,21,Ticks_Linear_5,112,5,42,127,1477753212
42,8,21,Ticks_Linear_5,113,1,48,47,1477769436
42,8,21,Ticks_Linear_5,114,5,42,127,1478343152
42,8,21,Ticks_Linear_5,115,1,48,44,1478351520
42,8,21,Ticks_Linear_5,116,1,48,51,1478923388
42,8,21,Ticks_Linear_5,117,5,42,127,1478932712
42,8,21,Ticks_Linear_5,118,1,48,45,1479526148
42,8,21,Ticks_Linear_5,119,5,42,127,1479532860
42,8,21,Ticks_Linear_5,120,1,48,44,1480128440
42,8,21,Ticks_Linear_5,121,5,42,127,1480133132
42,8,21,Ticks_Linear_5,122,1,48,47,1480727520
42,8,21,Ticks_Linear_5,123,5,42,127,1480733180
42,8,21,Ticks_Linear_5,124,1,48,48,1481313448
42,8,21,Ticks_Linear_5,125,5,42,127,1481333404
42,8,21,Ticks_Linear_5,126,1,48,45,1481933680
42,8,21,Ticks_Linear_5,127,5,42,127,1481935024
42,8,21,Ticks_Linear_5,128,5,42,127,1482542420
42,8,21,Ticks_Linear_5,129,1,48,39,1482563592
42,8,21,Ticks_Linear_5,130,1,48,35,1483150708
42,8,21,Ticks_Linear_5,131,5,42,127,1483152600
42,8,21,Ticks_Linear_5,132,1,48,54,1483741900
42,8,21,Ticks_Linear_5,133,5,42,127,1483763280
42,8,21,Ticks_Linear_5,134,1,48,53,1484351908
42,8,21,Ticks_Linear_5,135,5,42,127,1484373360
42,8,21,Ticks_Linear_5,136,5,42,127,1484982508
42,8,21,Ticks_Linear_5,137,1,48,45,1484991320
42,8,21,Ticks_Linear_5,138,1,48,53,1485591124
42,8,21,Ticks_Linear_5,139,5,42,127,1485603216
42,8,21,Ticks_Linear_5,140,5,42,127,1486222620
42,8,21,Ticks_Linear_5,141,1,48,43,1486250444
42,8,21,Ticks_Linear_5,142,1,48,50,1486836688
42,8,21,Ticks_Linear_5,143,5,42,127,1486843252
42,8,21,Ticks_Linear_5,144,1,48,49,1487442288
42,8,21,Ticks_Linear_5,145,5,42,127,1487462648
42,8,21,Ticks_Linear_5,146,1,48,48,1488056364
42,8,21,Ticks_Linear_5,147,5,42,127,1488083288
42,8,21,Ticks_Linear_5,148,1,48,42,1488690864
42,8,21,Ticks_Linear_5,149,5,42,127,1488713068
42,8,21,Ticks_Linear_5,150,1,48,50,1489301648
42,8,21,Ticks_Linear_5,151,5,42,127,1489342872
42,8,21,Ticks_Linear_5,152,1,48,27,1489969532
42,8,21,Ticks_Linear_5,153,5,42,127,1489972724
42,8,21,Ticks_Linear_5,154,1,48,49,1490593428
42,8,21,Ticks_Linear_5,155,5,42,127,1490603276
42,8,21,Ticks_Linear_5,156,1,48,44,1491193776
42,8,21,Ticks_Linear_5,157,5,42,127,1491233132
42,8,21,Ticks_Linear_5,158,1,48,53,1491839528
42,8,21,Ticks_Linear_5,159,5,42,127,1491873048
42,8,21,Ticks_Linear_5,160,1,48,53,1492500156
42,8,21,Ticks_Linear_5,161,5,42,127,1492513084
42,8,21,Ticks_Linear_5,162,1,48,53,1493107728
42,8,21,Ticks_Linear_5,163,5,42,127,1493153000
42,8,21,Ticks_Linear_5,164,1,48,48,1493726424
42,8,21,Ticks_Linear_5,165,5,42,127,1493793112
42,8,21,Ticks_Linear_5,166,1,48,56,1494414716
42,8,21,Ticks_Linear_5,167,5,42,127,1494433176
42,8,21,Ticks_Linear_5,168,1,48,62,1495080356
42,8,21,Ticks_Linear_5,169,5,42,127,1495083400
42,8,21,Ticks_Linear_5,170,1,48,42,1495719076
42,8,21,Ticks_Linear_5,171,5,42,127,1495732824
42,8,21,Ticks_Linear_5,172,1,48,52,1496359784
42,8,21,Ticks_Linear_5,173,5,42,127,1496383044
42,8,21,Ticks_Linear_5,174,1,48,54,1496993784
42,8,21,Ticks_Linear_5,175,5,42,127,1497033068
42,8,21,Ticks_Linear_5,176,1,48,61,1497604768
42,8,21,Ticks_Linear_5,177,5,42,127,1497683368
42,8,21,Ticks_Linear_5,178,1,48,48,1498290968
42,8,21,Ticks_Linear_5,179,5,42,127,1498342976
42,8,21,Ticks_Linear_5,180,1,48,39,1498983372
42,8,21,Ticks_Linear_5,181,5,42,127,1499003184
42,8,21,Ticks_Linear_5,182,1,48,52,1499657708
42,8,21,Ticks_Linear_5,183,5,42,127,1499662692
42,8,21,Ticks_Linear_5,184,5,42,127,1500323208
42,8,21,Ticks_Linear_5,185,1,48,46,1500327300
42,8,21,Ticks_Linear_5,186,5,42,127,1500982644
42,8,21,Ticks_Linear_5,187,1,48,49,1500988828
42,8,21,Ticks_Linear_5,188,1,48,56,1501616144
42,8,21,Ticks_Linear_5,189,5,42,127,1501653252
42,8,21,Ticks_Linear_5,190,1,48,48,1502293552
42,8,21,Ticks_Linear_5,191,5,42,127,1502322972
42,8,21,Ticks_Linear_5,192,1,48,34,1502979736
42,8,21,Ticks_Linear_5,193,5,42,127,1502992740
42,8,21,Ticks_Linear_5,194,1,48,53,1503658740
42,8,21,Ticks_Linear_5,195,5,42,127,1503662680
42,8,21,Ticks_Linear_5,196,1,48,55,1504292876
42,8,21,Ticks_Linear_5,197,5,42,127,1504333124
42,8,21,Ticks_Linear_5,198,1,48,70,1504963640
42,8,21,Ticks_Linear_5,199,5,42,127,1505013180
42,8,21,Ticks_Linear_5,200,1,48,51,1505683232
42,8,21,Ticks_Linear_5,201,5,42,127,1505693008
42,8,21,Ticks_Linear_5,202,5,42,127,1506373040
42,8,21,Ticks_Linear_5,203,1,48,51,1506384400
42,8,21,Ticks_Linear_5,204,1,48,46,1507050120
42,8,21,Ticks_Linear_5,205,5,42,127,1507052788
42,8,21,Ticks_Linear_5,206,1,48,43,1507705612
42,8,21,Ticks_Linear_5,207,5,42,127,1507732768
42,8,21,Ticks_Linear_5,208,1,48,62,1508363104
42,8,21,Ticks_Linear_5,209,5,42,127,1508422904
42,8,21,Ticks_Linear_5,210,1,48,62,1509081652
42,8,21,Ticks_Linear_5,211,5,42,127,1509113068
42,8,21,Ticks_Linear_5,212,1,48,59,1509800712
42,8,21,Ticks_Linear_5,213,5,42,127,1509803680
42,8,21,Ticks_Linear_5,214,1,48,60,1510461584
42,8,21,Ticks_Linear_5,215,5,42,127,1510492400
42,8,21,Ticks_Linear_5,216,1,48,57,1511154576
42,8,21,Ticks_Linear_5,217,5,42,127,1511182704
42,8,21,Ticks_Linear_5,218,1,48,59,1511851264
42,8,21,Ticks_Linear_5,219,5,42,127,1511883272
42,8,21,Ticks_Linear_5,220,1,48,57,1512553104
42,8,21,Ticks_Linear_5,221,5,42,127,1512582500
42,8,21,Ticks_Linear_5,222,1,48,68,1513249452
42,8,21,Ticks_Linear_5,223,5,42,127,1513282896
42,8,21,Ticks_Linear_5,224,1,48,64,1513966572
42,8,21,Ticks_Linear_5,225,5,42,127,1513983468
42,8,21,Ticks_Linear_5,226,1,48,62,1514661164
42,8,21,Ticks_Linear_5,227,5,42,127,1514682768
42,8,21,Ticks_Linear_5,228,1,48,70,1515378280
42,8,21,Ticks_Linear_5,229,5,42,127,1515393600
42,8,21,Ticks_Linear_5,230,1,48,67,1516072840
42,8,21,Ticks_Linear_5,231,5,42,127,1516102912
42,8,21,Ticks_Linear_5,232,1,48,58,1516767044
42,8,21,Ticks_Linear_5,233,5,42,127,1516812692
42,8,21,Ticks_Linear_5,234,1,48,61,1517475184
42,8,21,Ticks_Linear_5,235,5,42,127,1517523228
42,8,21,Ticks_Linear_5,236,1,48,64,1518156628
42,8,21,Ticks_Linear_5,237,5,42,127,1518233384
42,8,21,Ticks_Linear_5,238,5,42,127,1518952688
42,8,21,Ticks_Linear_5,239,1,48,52,1518953652
42,8,21,Ticks_Linear_5,240,5,42,127,1519672776
42,8,21,Ticks_Linear_5,241,1,48,50,1519735160
42,8,21,Ticks_Linear_5,242,1,48,57,1520371136
42,8,21,Ticks_Linear_5,243,5,42,127,1520392444
42,8,21,Ticks_Linear_5,244,1,48,62,1521046992
42,8,21,Ticks_Linear_5,245,5,42,127,1521112408
42,8,21,Ticks_Linear_5,246,1,48,59,1521783888
42,8,21,Ticks_Linear_5,247,5,42,127,1521833200
42,8,21,Ticks_Linear_5,248,1,48,51,1522535080
42,8,21,Ticks_Linear_5,249,5,42,127,1522562456
42,8,21,Ticks_Linear_5,250,1,48,49,1523251212
42,8,21,Ticks_Linear_5,251,5,42,127,1523292512
42,8,21,Ticks_Linear_5,252,1,48,52,1523990876
42,8,21,Ticks_Linear_5,253,5,42,127,1524022588
42,8,21,Ticks_Linear_5,254,1,48,45,1524734800
42,8,21,Ticks_Linear_5,255,5,42,127,1524752888
42,8,21,Ticks_Linear_5,256,1,48,55,1525447204
42,8,21,Ticks_Linear_5,257,5,42,127,1525483116
42,8,21,Ticks_Linear_5,258,1,48,63,1526144036
42,8,21,Ticks_Linear_5,259,5,42,127,1526223304
42,8,21,Ticks_Linear_5,260,1,48,56,1526954912
42,8,21,Ticks_Linear_5,261,5,42,127,1526962520
42,8,21,Ticks_Linear_5,262,1,48,46,1527677572
42,8,21,Ticks_Linear_5,263,5,42,127,1527703156
42,8,21,Ticks_Linear_5,264,1,48,62,1528392356
42,8,21,Ticks_Linear_5,265,5,42,127,1528443192
42,8,21,Ticks_Linear_5,266,1,48,65,1529106556
42,8,21,Ticks_Linear_5,267,5,42,127,1529182556
42,8,21,Ticks_Linear_5,268,1,48,51,1529920960
42,8,21,Ticks_Linear_5,269,5,42,127,1529933200
42,8,21,Ticks_Linear_5,270,1,48,48,1530629684
42,8,21,Ticks_Linear_5,271,5,42,127,1530682824
42,8,21,Ticks_Linear_5,272,1,48,34,1531373396
42,8,21,Ticks_Linear_5,273,5,42,127,1531433276
42,8,21,Ticks_Linear_5,274,5,42,127,1532182980
42,8,21,Ticks_Linear_5,275,1,48,47,1532194940
42,8,21,Ticks_Linear_5,276,1,48,55,1532931324
42,8,21,Ticks_Linear_5,277,5,42,127,1532933116
42,8,21,Ticks_Linear_5,278,1,48,65,1533646752
42,8,21,Ticks_Linear_5,279,5,42,127,1533693304
42,8,21,Ticks_Linear_5,280,1,48,42,1534358188
42,8,21,Ticks_Linear_5,281,5,42,127,1534453096
42,8,21,Ticks_Linear_5,282,1,48,56,1535168620
42,8,21,Ticks_Linear_5,283,5,42,127,1535212920
42,8,21,Ticks_Linear_5,284,1,48,57,1535937484
42,8,21,Ticks_Linear_5,285,5,42,127,1535972952
42,8,21,Ticks_Linear_5,286,1,48,62,1536686588
42,8,21,Ticks_Linear_5,287,5,42,127,1536732464
42,8,21,Ticks_Linear_5,288,1,48,41,1537404240
42,8,21,Ticks_Linear_5,289,5,42,127,1537502740
42,8,21,Ticks_Linear_5,290,1,48,64,1538211008
42,8,21,Ticks_Linear_5,291,5,42,127,1538272600
42,8,21,Ticks_Linear_5,292,1,48,13,1539026076
42,8,21,Ticks_Linear_5,293,5,42,127,1539042816
42,8,21,Ticks_Linear_5,294,5,42,127,1539812816
42,8,21,Ticks_Linear_5,295,1,48,60,1539831892
42,8,21,Ticks_Linear_5,296,1,48,39,1540538724
42,8,21,Ticks_Linear_5,297,5,42,127,1540582876
42,8,21,Ticks_Linear_5,298,1,48,59,1541306400
42,8,21,Ticks_Linear_5,299,5,42,127,1541363204
42,8,21,Ticks_Linear_5,300,1,48,55,1542108140
42,8,21,Ticks_Linear_5,301,5,42,127,1542143232
42,8,21,Ticks_Linear_5,302,1,48,60,1542897156
42,8,21,Ticks_Linear_5,303,5,42,127,1542922588
42,8,21,Ticks_Linear_5,304,1,48,46,1543678084
42,8,21,Ticks_Linear_5,305,5,42,127,1543702988
42,8,21,Ticks_Linear_5,306,5,42,127,1544483100
42,8,21,Ticks_Linear_5,307,1,48,56,1544486588
42,8,21,Ticks_Linear_5,308,1,48,62,1545268320
42,8,21,Ticks_Linear_5,309,5,42,127,1545272628
42,8,21,Ticks_Linear_5,310,1,48,61,1546044976
42,8,21,Ticks_Linear_5,311,5,42,127,1546063512
42,8,21,Ticks_Linear_5,312,1,48,58,1546809724
42,8,21,Ticks_Linear_5,313,5,42,127,1546852704
42,8,21,Ticks_Linear_5,314,1,48,68,1547615912
42,8,21,Ticks_Linear_5,315,5,42,127,1547643440
42,8,21,Ticks_Linear_5,316,1,48,67,1548428964
42,8,21,Ticks_Linear_5,317,5,42,127,1548432680
42,8,21,Ticks_Linear_5,318,1,48,65,1549195068
42,8,21,Ticks_Linear_5,319,5,42,127,1549232556
42,8,21,Ticks_Linear_5,320,1,48,46,1549959444
42,8,21,Ticks_Linear_5,321,5,42,127,1550033324
42,8,21,Ticks_Linear_5,322,1,48,55,1550828508
42,8,21,Ticks_Linear_5,323,5,42,127,1550832976
42,8,21,Ticks_Linear_5,324,5,42,127,1551632704
42,8,21,Ticks_Linear_5,325,1,48,52,1551651552
42,8,21,Ticks_Linear_5,326,5,42,127,1552432652
42,8,21,Ticks_Linear_5,327,1,48,55,1552458384
42,8,21,Ticks_Linear_5,328,1,48,43,1553229696
42,8,21,Ticks_Linear_5,329,5,42,127,1553242480
42,8,21,Ticks_Linear_5,330,1,48,57,1554021820
42,8,21,Ticks_Linear_5,331,5,42,127,1554052484
42,8,21,Ticks_Linear_5,332,1,48,54,1554824536
42,8,21,Ticks_Linear_5,333,5,42,127,1554862392
42,8,21,Ticks_Linear_5,334,1,48,63,1555666412
42,8,21,Ticks_Linear_5,335,5,42,127,1555672300
42,8,21,Ticks_Linear_5,336,5,42,127,1556482364
42,8,21,Ticks_Linear_5,0,9999,9999,9999,1447300168
42,8,21,Ticks_Linear_5,1,9999,9999,9999,1447780416
42,8,21,Ticks_Linear_5,2,9999,9999,9999,1448260708
42,8,21,Ticks_Linear_5,3,9999,9999,9999,1448740944
42,8,21,Ticks_Linear_5,4,9999,9999,9999,1449220200
42,8,21,Ticks_Linear_5,5,9999,9999,9999,1449710684
42,8,21,Ticks_Linear_5,6,9999,9999,9999,1450200128
42,8,21,Ticks_Linear_5,7,9999,9999,9999,1450690616
42,8,21,Ticks_Linear_5,8,9999,9999,9999,1451180128
42,8,21,Ticks_Linear_5,9,9999,9999,9999,1451670616
42,8,21,Ticks_Linear_5,10,9999,9999,9999,1452170316
42,8,21,Ticks_Linear_5,11,9999,9999,9999,1452671064
42,8,21,Ticks_Linear_5,12,9999,9999,9999,1453170764
42,8,21,Ticks_Linear_5,13,9999,9999,9999,1453670460
42,8,21,Ticks_Linear_5,14,9999,9999,9999,1454170212
42,8,21,Ticks_Linear_5,15,9999,9999,9999,1454680168
42,8,21,Ticks_Linear_5,16,9999,9999,9999,1455190132
42,8,21,Ticks_Linear_5,17,9999,9999,9999,1455701060
42,8,21,Ticks_Linear_5,18,9999,9999,9999,1456211020
42,8,21,Ticks_Linear_5,19,9999,9999,9999,1456720980
42,8,21,Ticks_Linear_5,20,9999,9999,9999,1457240148
42,8,21,Ticks_Linear_5,21,9999,9999,9999,1457760368
42,8,21,Ticks_Linear_5,22,9999,9999,9999,1458280536
42,8,21,Ticks_Linear_5,23,9999,9999,9999,1458800752
42,8,21,Ticks_Linear_5,24,9999,9999,9999,1459320896
42,8,21,Ticks_Linear_5,25,9999,9999,9999,1459850328
42,8,21,Ticks_Linear_5,26,9999,9999,9999,1460380728
42,8,21,Ticks_Linear_5,27,9999,9999,9999,1460910168
42,8,21,Ticks_Linear_5,28,9999,9999,9999,1461440572
42,8,21,Ticks_Linear_5,29,9999,9999,9999,1461971048
42,8,21,Ticks_Linear_5,30,9999,9999,9999,1462510656
42,8,21,Ticks_Linear_5,31,9999,9999,9999,1463050348
42,8,21,Ticks_Linear_5,32,9999,9999,9999,1463591008
42,8,21,Ticks_Linear_5,33,9999,9999,9999,1464130628
42,8,21,Ticks_Linear_5,34,9999,9999,9999,1464670316
42,8,21,Ticks_Linear_5,35,9999,9999,9999,1465220184
42,8,21,Ticks_Linear_5,36,9999,9999,9999,1465771108
42,8,21,Ticks_Linear_5,37,9999,9999,9999,1466330200
42,8,21,Ticks_Linear_5,38,9999,9999,9999,1466880072
42,8,21,Ticks_Linear_5,39,9999,9999,9999,1467430992
42,8,21,Ticks_Linear_5,40,9999,9999,9999,1467990076
42,8,21,Ticks_Linear_5,41,9999,9999,9999,1468550240
42,8,21,Ticks_Linear_5,42,9999,9999,9999,1469110364
42,8,21,Ticks_Linear_5,43,9999,9999,9999,1469670504
42,8,21,Ticks_Linear_5,44,9999,9999,9999,1470230640
42,8,21,Ticks_Linear_5,45,9999,9999,9999,1470801024
42,8,21,Ticks_Linear_5,46,9999,9999,9999,1471370324
42,8,21,Ticks_Linear_5,47,9999,9999,9999,1471940712
42,8,21,Ticks_Linear_5,48,9999,9999,9999,1472511032
42,8,21,Ticks_Linear_5,49,9999,9999,9999,1473080380
42,8,21,Ticks_Linear_5,50,9999,9999,9999,1473661052
42,8,21,Ticks_Linear_5,51,9999,9999,9999,1474240580
42,8,21,Ticks_Linear_5,52,9999,9999,9999,1474820184
42,8,21,Ticks_Linear_5,53,9999,9999,9999,1475400764
42,8,21,Ticks_Linear_5,54,9999,9999,9999,1475980400
42,8,21,Ticks_Linear_5,55,9999,9999,9999,1476570188
42,8,21,Ticks_Linear_5,56,9999,9999,9999,1477161020
42,8,21,Ticks_Linear_5,57,9999,9999,9999,1477750840
42,8,21,Ticks_Linear_5,58,9999,9999,9999,1478340704
42,8,21,Ticks_Linear_5,59,9999,9999,9999,1478930488
42,8,21,Ticks_Linear_5,60,9999,9999,9999,1479530560
42,8,21,Ticks_Linear_5,61,9999,9999,9999,1480130684
42,8,21,Ticks_Linear_5,62,9999,9999,9999,1480730732
42,8,21,Ticks_Linear_5,63,9999,9999,9999,1481330808
42,8,21,Ticks_Linear_5,64,9999,9999,9999,1481930860
42,8,21,Ticks_Linear_5,65,9999,9999,9999,1482540124
42,8,21,Ticks_Linear_5,66,9999,9999,9999,1483150404
42,8,21,Ticks_Linear_5,67,9999,9999,9999,1483760756
42,8,21,Ticks_Linear_5,68,9999,9999,9999,1484371064
42,8,21,Ticks_Linear_5,69,9999,9999,9999,1484980280
42,8,21,Ticks_Linear_5,70,9999,9999,9999,1485600844
42,8,21,Ticks_Linear_5,71,9999,9999,9999,1486220396
42,8,21,Ticks_Linear_5,72,9999,9999,9999,1486840952
42,8,21,Ticks_Linear_5,73,9999,9999,9999,1487460424
42,8,21,Ticks_Linear_5,74,9999,9999,9999,1488080988
42,8,21,Ticks_Linear_5,75,9999,9999,9999,1488710768
42,8,21,Ticks_Linear_5,76,9999,9999,9999,1489340500
42,8,21,Ticks_Linear_5,77,9999,9999,9999,1489970276
42,8,21,Ticks_Linear_5,78,9999,9999,9999,1490601052
42,8,21,Ticks_Linear_5,79,9999,9999,9999,1491230836
42,8,21,Ticks_Linear_5,80,9999,9999,9999,1491870824
42,8,21,Ticks_Linear_5,81,9999,9999,9999,1492510788
42,8,21,Ticks_Linear_5,82,9999,9999,9999,1493150776
42,8,21,Ticks_Linear_5,83,9999,9999,9999,1493790816
42,8,21,Ticks_Linear_5,84,9999,9999,9999,1494430804
42,8,21,Ticks_Linear_5,85,9999,9999,9999,1495081028
42,8,21,Ticks_Linear_5,86,9999,9999,9999,1495730304
42,8,21,Ticks_Linear_5,87,9999,9999,9999,1496380524
42,8,21,Ticks_Linear_5,88,9999,9999,9999,1497030772
42,8,21,Ticks_Linear_5,89,9999,9999,9999,1497680992
42,8,21,Ticks_Linear_5,90,9999,9999,9999,1498340456
42,8,21,Ticks_Linear_5,91,9999,9999,9999,1499000888
42,8,21,Ticks_Linear_5,92,9999,9999,9999,1499660396
42,8,21,Ticks_Linear_5,93,9999,9999,9999,1500320836
42,8,21,Ticks_Linear_5,94,9999,9999,9999,1500980344
42,8,21,Ticks_Linear_5,95,9999,9999,9999,1501651028
42,8,21,Ticks_Linear_5,96,9999,9999,9999,1502320748
42,8,21,Ticks_Linear_5,97,9999,9999,9999,1502990444
42,8,21,Ticks_Linear_5,98,9999,9999,9999,1503660084
42,8,21,Ticks_Linear_5,99,9999,9999,9999,1504330828
42,8,21,Ticks_Linear_5,100,9999,9999,9999,1505010804
42,8,21,Ticks_Linear_5,101,9999,9999,9999,1505690708
42,8,21,Ticks_Linear_5,102,9999,9999,9999,1506370668
42,8,21,Ticks_Linear_5,103,9999,9999,9999,1507050564
42,8,21,Ticks_Linear_5,104,9999,9999,9999,1507730544
42,8,21,Ticks_Linear_5,105,9999,9999,9999,1508420680
42,8,21,Ticks_Linear_5,106,9999,9999,9999,1509110844
42,8,21,Ticks_Linear_5,107,9999,9999,9999,1509801084
42,8,21,Ticks_Linear_5,108,9999,9999,9999,1510490176
42,8,21,Ticks_Linear_5,109,9999,9999,9999,1511180404
42,8,21,Ticks_Linear_5,110,9999,9999,9999,1511880828
42,8,21,Ticks_Linear_5,111,9999,9999,9999,1512580204
42,8,21,Ticks_Linear_5,112,9999,9999,9999,1513280600
42,8,21,Ticks_Linear_5,113,9999,9999,9999,1513981020
42,8,21,Ticks_Linear_5,114,9999,9999,9999,1514680396
42,8,21,Ticks_Linear_5,115,9999,9999,9999,1515391076
42,8,21,Ticks_Linear_5,116,9999,9999,9999,1516100688
42,8,21,Ticks_Linear_5,117,9999,9999,9999,1516810320
42,8,21,Ticks_Linear_5,118,9999,9999,9999,1517521004
42,8,21,Ticks_Linear_5,119,9999,9999,9999,1518230636
42,8,21,Ticks_Linear_5,120,9999,9999,9999,1518950464
42,8,21,Ticks_Linear_5,121,9999,9999,9999,1519670328
42,8,21,Ticks_Linear_5,122,9999,9999,9999,1520390220
42,8,21,Ticks_Linear_5,123,9999,9999,9999,1521110112
42,8,21,Ticks_Linear_5,124,9999,9999,9999,1521830976
42,8,21,Ticks_Linear_5,125,9999,9999,9999,1522560084
42,8,21,Ticks_Linear_5,126,9999,9999,9999,1523290212
42,8,21,Ticks_Linear_5,127,9999,9999,9999,1524020288
42,8,21,Ticks_Linear_5,128,9999,9999,9999,1524750444
42,8,21,Ticks_Linear_5,129,9999,9999,9999,1525480520
42,8,21,Ticks_Linear_5,130,9999,9999,9999,1526220856
42,8,21,Ticks_Linear_5,131,9999,9999,9999,1526960220
42,8,21,Ticks_Linear_5,132,9999,9999,9999,1527700556
42,8,21,Ticks_Linear_5,133,9999,9999,9999,1528440892
42,8,21,Ticks_Linear_5,134,9999,9999,9999,1529180256
42,8,21,Ticks_Linear_5,135,9999,9999,9999,1529930828
42,8,21,Ticks_Linear_5,136,9999,9999,9999,1530680380
42,8,21,Ticks_Linear_5,137,9999,9999,9999,1531430976
42,8,21,Ticks_Linear_5,138,9999,9999,9999,1532180604
42,8,21,Ticks_Linear_5,139,9999,9999,9999,1532930156
42,8,21,Ticks_Linear_5,140,9999,9999,9999,1533690932
42,8,21,Ticks_Linear_5,141,9999,9999,9999,1534450800
42,8,21,Ticks_Linear_5,142,9999,9999,9999,1535210548
42,8,21,Ticks_Linear_5,143,9999,9999,9999,1535970432
42,8,21,Ticks_Linear_5,144,9999,9999,9999,1536730164
42,8,21,Ticks_Linear_5,145,9999,9999,9999,1537500220
42,8,21,Ticks_Linear_5,146,9999,9999,9999,1538270300
42,8,21,Ticks_Linear_5,147,9999,9999,9999,1539040368
42,8,21,Ticks_Linear_5,148,9999,9999,9999,1539810368
42,8,21,Ticks_Linear_5,149,9999,9999,9999,1540580428
42,8,21,Ticks_Linear_5,150,9999,9999,9999,1541360756
42,8,21,Ticks_Linear_5,151,9999,9999,9999,1542141008
42,8,21,Ticks_Linear_5,152,9999,9999,9999,1542920288
42,8,21,Ticks_Linear_5,153,9999,9999,9999,1543700540
42,8,21,Ticks_Linear_5,154,9999,9999,9999,1544480872
42,8,21,Ticks_Linear_5,155,9999,9999,9999,1545270332
42,8,21,Ticks_Linear_5,156,9999,9999,9999,1546060916
42,8,21,Ticks_Linear_5,157,9999,9999,9999,1546850408
42,8,21,Ticks_Linear_5,158,9999,9999,9999,1547640916
42,8,21,Ticks_Linear_5,159,9999,9999,9999,1548430456
42,8,21,Ticks_Linear_5,160,9999,9999,9999,1549230180
42,8,21,Ticks_Linear_5,161,9999,9999,9999,1550030952
42,8,21,Ticks_Linear_5,162,9999,9999,9999,1550830676
42,8,21,Ticks_Linear_5,163,9999,9999,9999,1551630404
42,8,21,Ticks_Linear_5,164,9999,9999,9999,1552430204
42,8,21,Ticks_Linear_5,165,9999,9999,9999,1553240180
42,8,21,Ticks_Linear_5,166,9999,9999,9999,1554050112
42,8,21,Ticks_Linear_5,167,9999,9999,9999,1554860096
42,8,21,Ticks_Linear_5,168,9999,9999,9999,1555670076
42,8,21,Ticks_Linear_5,169,9999,9999,9999,1556480064
42,9,9,Ticks_ISO_T2_8,0,5,42,127,1568924104
42,9,9,Ticks_ISO_T2_8,1,5,42,127,1569723788
42,9,9,Ticks_ISO_T2_8,2,1,48,56,1570481988
42,9,9,Ticks_ISO_T2_8,3,5,42,127,1570523608
42,9,9,Ticks_ISO_T2_8,4,5,42,127,1571324320
42,9,9,Ticks_ISO_T2_8,5,1,48,61,1571329008
42,9,9,Ticks_ISO_T2_8,6,5,42,127,1572123980
42,9,9,Ticks_ISO_T2_8,7,1,48,62,1572152384
42,9,9,Ticks_ISO_T2_8,8,5,42,127,1572923788
42,9,9,Ticks_ISO_T2_8,9,1,48,63,1572928928
42,9,9,Ticks_ISO_T2_8,10,5,42,127,1573723620
42,9,9,Ticks_ISO_T2_8,11,1,48,63,1573733024
42,9,9,Ticks_ISO_T2_8,12,1,48,59,1574476920
42,9,9,Ticks_ISO_T2_8,13,5,42,127,1574524320
42,9,9,Ticks_ISO_T2_8,14,1,48,66,1575322544
42,9,9,Ticks_ISO_T2_8,15,5,42,127,1575324204
42,9,9,Ticks_ISO_T2_8,16,5,42,127,1576123868
42,9,9,Ticks_ISO_T2_8,17,1,48,67,1576136116
42,9,9,Ticks_ISO_T2_8,18,5,42,127,1576923604
42,9,9,Ticks_ISO_T2_8,19,1,48,74,1576947368
42,9,9,Ticks_ISO_T2_8,20,1,48,56,1577723104
42,9,9,Ticks_ISO_T2_8,21,5,42,127,1577724896
42,9,9,Ticks_ISO_T2_8,22,1,48,63,1578507472
42,9,9,Ticks_ISO_T2_8,23,5,42,127,1578523884
42,9,9,Ticks_ISO_T2_8,24,1,48,57,1579260456
42,9,9,Ticks_ISO_T2_8,25,5,42,127,1579323768
42,9,9,Ticks_ISO_T2_8,26,1,48,64,1580073204
42,9,9,Ticks_ISO_T2_8,27,5,42,127,1580123676
42,9,9,Ticks_ISO_T2_8,28,1,48,53,1580881020
42,9,9,Ticks_ISO_T2_8,29,5,42,127,1580924308
42,9,9,Ticks_ISO_T2_8,30,1,48,53,1581686456
42,9,9,Ticks_ISO_T2_8,31,5,42,127,1581723968
42,9,9,Ticks_ISO_T2_8,32,1,48,59,1582492324
42,9,9,Ticks_ISO_T2_8,33,5,42,127,1582523700
42,9,9,Ticks_ISO_T2_8,34,1,48,53,1583291540
42,9,9,Ticks_ISO_T2_8,35,5,42,127,1583323436
42,9,9,Ticks_ISO_T2_8,36,1,48,55,1584118124
42,9,9,Ticks_ISO_T2_8,37,5,42,127,1584124216
42,9,9,Ticks_ISO_T2_8,38,1,48,49,1584922212
42,9,9,Ticks_ISO_T2_8,39,5,42,127,1584923948
42,9,9,Ticks_ISO_T2_8,40,1,48,45,1585715868
42,9,9,Ticks_ISO_T2_8,41,5,42,127,1585723684
42,9,9,Ticks_ISO_T2_8,42,1,48,51,1586504760
42,9,9,Ticks_ISO_T2_8,43,5,42,127,1586523588
42,9,9,Ticks_ISO_T2_8,44,1,48,59,1587282576
42,9,9,Ticks_ISO_T2_8,45,5,42,127,1587324592
42,9,9,Ticks_ISO_T2_8,46,1,48,53,1588112924
42,9,9,Ticks_ISO_T2_8,47,5,42,127,1588123952
42,9,9,Ticks_ISO_T2_8,48,1,48,59,1588911084
42,9,9,Ticks_ISO_T2_8,49,5,42,127,1588923688
42,9,9,Ticks_ISO_T2_8,50,1,48,51,1589714040
42,9,9,Ticks_ISO_T2_8,51,5,42,127,1589723420
42,9,9,Ticks_ISO_T2_8,52,1,48,66,1590499636
42,9,9,Ticks_ISO_T2_8,53,5,42,127,1590524572
42,9,9,Ticks_ISO_T2_8,54,1,48,58,1591296156
42,9,9,Ticks_ISO_T2_8,55,5,42,127,1591323860
42,9,9,Ticks_ISO_T2_8,56,1,48,63,1592121628
42,9,9,Ticks_ISO_T2_8,57,5,42,127,1592123668
42,9,9,Ticks_ISO_T2_8,58,1,48,61,1592915364
42,9,9,Ticks_ISO_T2_8,59,5,42,127,1592923652
42,9,9,Ticks_ISO_T2_8,60,1,48,58,1593721108
42,9,9,Ticks_ISO_T2_8,61,5,42,127,1593724356
42,9,9,Ticks_ISO_T2_8,62,1,48,63,1594492416
42,9,9,Ticks_ISO_T2_8,63,5,42,127,1594523864
42,9,9,Ticks_ISO_T2_8,64,1,48,58,1595301200
42,9,9,Ticks_ISO_T2_8,65,5,42,127,1595323748
42,9,9,Ticks_ISO_T2_8,66,1,48,56,1596098092
42,9,9,Ticks_ISO_T2_8,67,5,42,127,1596123556
42,9,9,Ticks_ISO_T2_8,68,1,48,55,1596864164
42,9,9,Ticks_ISO_T2_8,69,5,42,127,1596924264
42,9,9,Ticks_ISO_T2_8,70,1,48,52,1597708708
42,9,9,Ticks_ISO_T2_8,71,5,42,127,1597724296
42,9,9,Ticks_ISO_T2_8,72,1,48,49,1598515168
42,9,9,Ticks_ISO_T2_8,73,5,42,127,1598523804
42,9,9,Ticks_ISO_T2_8,74,1,48,53,1599302940
42,9,9,Ticks_ISO_T2_8,75,5,42,127,1599323564
42,9,9,Ticks_ISO_T2_8,76,5,42,127,1600124200
42,9,9,Ticks_ISO_T2_8,77,1,48,43,1600140336
42,9,9,Ticks_ISO_T2_8,78,5,42,127,1600924380
42,9,9,Ticks_ISO_T2_8,79,1,48,48,1600953460
42,9,9,Ticks_ISO_T2_8,80,1,48,58,1601702016
42,9,9,Ticks_ISO_T2_8,81,5,42,127,1601723884
42,9,9,Ticks_ISO_T2_8,82,1,48,61,1602488056
42,9,9,Ticks_ISO_T2_8,83,5,42,127,1602523468
42,9,9,Ticks_ISO_T2_8,84,1,48,59,1603273500
42,9,9,Ticks_ISO_T2_8,85,5,42,127,1603324176
42,9,9,Ticks_ISO_T2_8,86,5,42,127,1604123988
42,9,9,Ticks_ISO_T2_8,87,1,48,51,1604128832
42,9,9,Ticks_ISO_T2_8,88,5,42,127,1604924096
42,9,9,Ticks_ISO_T2_8,89,1,48,57,1604942324
42,9,9,Ticks_ISO_T2_8,90,1,48,61,1605704720
42,9,9,Ticks_ISO_T2_8,91,5,42,127,1605723548
42,9,9,Ticks_ISO_T2_8,92,1,48,56,1606474980
42,9,9,Ticks_ISO_T2_8,93,5,42,127,1606524252
42,9,9,Ticks_ISO_T2_8,94,5,42,127,1607323996
42,9,9,Ticks_ISO_T2_8,95,1,48,46,1607341400
42,9,9,Ticks_ISO_T2_8,96,5,42,127,1608123952
42,9,9,Ticks_ISO_T2_8,97,1,48,58,1608129016
42,9,9,Ticks_ISO_T2_8,98,1,48,62,1608899260
42,9,9,Ticks_ISO_T2_8,99,5,42,127,1608923528
42,9,9,Ticks_ISO_T2_8,100,1,48,51,1609698548
42,9,9,Ticks_ISO_T2_8,101,5,42,127,1609724236
42,9,9,Ticks_ISO_T2_8,102,5,42,127,1610523976
42,9,9,Ticks_ISO_T2_8,103,1,48,47,1610534052
42,9,9,Ticks_ISO_T2_8,104,5,42,127,1611323932
42,9,9,Ticks_ISO_T2_8,105,1,48,54,1611362976
42,9,9,Ticks_ISO_T2_8,106,1,48,55,1612103132
42,9,9,Ticks_ISO_T2_8,107,5,42,127,1612123460
42,9,9,Ticks_ISO_T2_8,108,1,48,54,1612877136
42,9,9,Ticks_ISO_T2_8,109,5,42,127,1612924316
42,9,9,Ticks_ISO_T2_8,110,1,48,52,1613713844
42,9,9,Ticks_ISO_T2_8,111,5,42,127,1613723976
42,9,9,Ticks_ISO_T2_8,112,1,48,54,1614520684
42,9,9,Ticks_ISO_T2_8,113,5,42,127,1614523708
42,9,9,Ticks_ISO_T2_8,114,1,48,56,1615313908
42,9,9,Ticks_ISO_T2_8,115,5,42,127,1615323664
42,9,9,Ticks_ISO_T2_8,116,5,42,127,1616124228
42,9,9,Ticks_ISO_T2_8,117,1,48,54,1616129072
42,9,9,Ticks_ISO_T2_8,118,5,42,127,1616923888
42,9,9,Ticks_ISO_T2_8,119,1,48,58,1616928648
42,9,9,Ticks_ISO_T2_8,120,1,48,48,1617720368
42,9,9,Ticks_ISO_T2_8,121,5,42,127,1617723688
42,9,9,Ticks_ISO_T2_8,122,1,48,51,1618503416
42,9,9,Ticks_ISO_T2_8,123,5,42,127,1618523668
42,9,9,Ticks_ISO_T2_8,124,1,48,53,1619317088
42,9,9,Ticks_ISO_T2_8,125,5,42,127,1619324228
42,9,9,Ticks_ISO_T2_8,126,1,48,57,1620113004
42,9,9,Ticks_ISO_T2_8,127,5,42,127,1620124108
42,9,9,Ticks_ISO_T2_8,128,1,48,58,1620917604
42,9,9,Ticks_ISO_T2_8,129,5,42,127,1620923620
42,9,9,Ticks_ISO_T2_8,130,1,48,55,1621685768
42,9,9,Ticks_ISO_T2_8,131,5,42,127,1621723576
42,9,9,Ticks_ISO_T2_8,132,1,48,58,1622506524
42,9,9,Ticks_ISO_T2_8,133,5,42,127,1622524428
42,9,9,Ticks_ISO_T2_8,134,5,42,127,1623323948
42,9,9,Ticks_ISO_T2_8,135,1,48,53,1623339856
42,9,9,Ticks_ISO_T2_8,136,1,48,60,1624103072
42,9,9,Ticks_ISO_T2_8,137,5,42,127,1624123676
42,9,9,Ticks_ISO_T2_8,138,1,48,52,1624902956
42,9,9,Ticks_ISO_T2_8,139,5,42,127,1624923432
42,9,9,Ticks_ISO_T2_8,140,1,48,43,1625685484
42,9,9,Ticks_ISO_T2_8,141,5,42,127,1625724364
42,9,9,Ticks_ISO_T2_8,142,1,48,58,1626508280
42,9,9,Ticks_ISO_T2_8,143,5,42,127,1626523872
42,9,9,Ticks_ISO_T2_8,144,5,42,127,1627323688
42,9,9,Ticks_ISO_T2_8,145,1,48,49,1627328608
42,9,9,Ticks_ISO_T2_8,146,1,48,57,1628114256
42,9,9,Ticks_ISO_T2_8,147,5,42,127,1628123488
42,9,9,Ticks_ISO_T2_8,148,1,48,50,1628887364
42,9,9,Ticks_ISO_T2_8,149,5,42,127,1628924416
42,9,9,Ticks_ISO_T2_8,150,1,48,48,1629708112
42,9,9,Ticks_ISO_T2_8,151,5,42,127,1629724004
42,9,9,Ticks_ISO_T2_8,152,1,48,48,1630502388
42,9,9,Ticks_ISO_T2_8,153,5,42,127,1630523664
42,9,9,Ticks_ISO_T2_8,154,1,48,51,1631300028
42,9,9,Ticks_ISO_T2_8,155,5,42,127,1631323348
42,9,9,Ticks_ISO_T2_8,156,1,48,51,1632119156
42,9,9,Ticks_ISO_T2_8,157,5,42,127,1632124424
42,9,9,Ticks_ISO_T2_8,158,1,48,51,1632897648
42,9,9,Ticks_ISO_T2_8,159,5,42,127,1632924084
42,9,9,Ticks_ISO_T2_8,160,1,48,55,1633691700
42,9,9,Ticks_ISO_T2_8,161,5,42,127,1633723820
42,9,9,Ticks_ISO_T2_8,162,5,42,127,1634523484
42,9,9,Ticks_ISO_T2_8,163,1,48,49,1634532284
42,9,9,Ticks_ISO_T2_8,164,1,48,50,1635322520
42,9,9,Ticks_ISO_T2_8,165,5,42,127,1635324260
42,9,9,Ticks_ISO_T2_8,166,1,48,51,1636099200
42,9,9,Ticks_ISO_T2_8,167,5,42,127,1636123992
42,9,9,Ticks_ISO_T2_8,168,5,42,127,1636924028
42,9,9,Ticks_ISO_T2_8,169,1,48,51,1636930068
42,9,9,Ticks_ISO_T2_8,170,1,48,41,1637723936
42,9,9,Ticks_ISO_T2_8,171,5,42,127,1637725204
42,9,9,Ticks_ISO_T2_8,172,1,48,54,1638518544
42,9,9,Ticks_ISO_T2_8,173,5,42,127,1638524260
42,9,9,Ticks_ISO_T2_8,174,1,48,54,1639320520
42,9,9,Ticks_ISO_T2_8,175,5,42,127,1639323996
42,9,9,Ticks_ISO_T2_8,176,1,48,57,1640092504
42,9,9,Ticks_ISO_T2_8,177,5,42,127,1640123876
42,9,9,Ticks_ISO_T2_8,178,1,48,49,1640905252
42,9,9,Ticks_ISO_T2_8,179,5,42,127,1640923464
42,9,9,Ticks_ISO_T2_8,180,5,42,127,1641724400
42,9,9,Ticks_ISO_T2_8,181,1,48,55,1641729544
42,9,9,Ticks_ISO_T2_8,182,1,48,53,1642517064
42,9,9,Ticks_ISO_T2_8,183,5,42,127,1642524128
42,9,9,Ticks_ISO_T2_8,184,1,48,54,1643296004
42,9,9,Ticks_ISO_T2_8,185,5,42,127,1643323712
42,9,9,Ticks_ISO_T2_8,186,5,42,127,1644123552
42,9,9,Ticks_ISO_T2_8,187,1,48,50,1644134224
42,9,9,Ticks_ISO_T2_8,188,5,42,127,1644924260
42,9,9,Ticks_ISO_T2_8,189,1,48,54,1644955952
42,9,9,Ticks_ISO_T2_8,190,5,42,127,1645723992
42,9,9,Ticks_ISO_T2_8,191,1,48,52,1645736460
42,9,9,Ticks_ISO_T2_8,192,5,42,127,1646523872
42,9,9,Ticks_ISO_T2_8,193,1,48,48,1646578528
42,9,9,Ticks_ISO_T2_8,194,5,42,127,1647323608
42,9,9,Ticks_ISO_T2_8,195,1,48,45,1647326804
42,9,9,Ticks_ISO_T2_8,196,1,48,53,1648114400
42,9,9,Ticks_ISO_T2_8,197,5,42,127,1648124160
42,9,9,Ticks_ISO_T2_8,198,1,48,51,1648888932
42,9,9,Ticks_ISO_T2_8,199,5,42,127,1648924116
42,9,9,Ticks_ISO_T2_8,200,1,48,56,1649685292
42,9,9,Ticks_ISO_T2_8,201,5,42,127,1649723704
42,9,9,Ticks_ISO_T2_8,202,1,48,56,1650514872
42,9,9,Ticks_ISO_T2_8,203,5,42,127,1650523684
42,9,9,Ticks_ISO_T2_8,204,1,48,62,1651313736
42,9,9,Ticks_ISO_T2_8,205,5,42,127,1651324312
42,9,9,Ticks_ISO_T2_8,206,1,48,58,1652110100
42,9,9,Ticks_ISO_T2_8,207,5,42,127,1652123900
42,9,9,Ticks_ISO_T2_8,208,5,42,127,1652923788
42,9,9,Ticks_ISO_T2_8,209,1,48,64,1652925124
42,9,9,Ticks_ISO_T2_8,210,5,42,127,1653723668
42,9,9,Ticks_ISO_T2_8,211,1,48,53,1653729336
42,9,9,Ticks_ISO_T2_8,212,1,48,62,1654484840
42,9,9,Ticks_ISO_T2_8,213,5,42,127,1654524144
42,9,9,Ticks_ISO_T2_8,214,1,48,53,1655295868
42,9,9,Ticks_ISO_T2_8,215,5,42,127,1655323956
42,9,9,Ticks_ISO_T2_8,216,1,48,58,1656112808
42,9,9,Ticks_ISO_T2_8,217,5,42,127,1656123688
42,9,9,Ticks_ISO_T2_8,218,5,42,127,1656923452
42,9,9,Ticks_ISO_T2_8,219,1,48,54,1656928668
42,9,9,Ticks_ISO_T2_8,220,1,48,55,1657713724
42,9,9,Ticks_ISO_T2_8,221,5,42,127,1657724452
42,9,9,Ticks_ISO_T2_8,222,1,48,57,1658479048
42,9,9,Ticks_ISO_T2_8,223,5,42,127,1658523960
42,9,9,Ticks_ISO_T2_8,224,1,48,57,1659303240
42,9,9,Ticks_ISO_T2_8,225,5,42,127,1659323696
42,9,9,Ticks_ISO_T2_8,226,1,48,61,1660116140
42,9,9,Ticks_ISO_T2_8,227,5,42,127,1660123352
42,9,9,Ticks_ISO_T2_8,228,5,42,127,1660924512
42,9,9,Ticks_ISO_T2_8,229,1,48,60,1660947376
42,9,9,Ticks_ISO_T2_8,230,1,48,64,1661712692
42,9,9,Ticks_ISO_T2_8,231,5,42,127,1661723868
42,9,9,Ticks_ISO_T2_8,232,1,48,62,1662507636
42,9,9,Ticks_ISO_T2_8,233,5,42,127,1662523752
42,9,9,Ticks_ISO_T2_8,234,1,48,60,1663300116
42,9,9,Ticks_ISO_T2_8,235,5,42,127,1663323584
42,9,9,Ticks_ISO_T2_8,236,1,48,57,1664100396
42,9,9,Ticks_ISO_T2_8,237,5,42,127,1664124512
42,9,9,Ticks_ISO_T2_8,238,1,48,60,1664903196
42,9,9,Ticks_ISO_T2_8,0,9999,9999,9999,1568921668
42,9,9,Ticks_ISO_T2_8,1,9999,9999,9999,1569721424
42,9,9,Ticks_ISO_T2_8,2,9999,9999,9999,1570521172
42,9,9,Ticks_ISO_T2_8,3,9999,9999,9999,1571321956
42,9,9,Ticks_ISO_T2_8,4,9999,9999,9999,1572121692
42,9,9,Ticks_ISO_T2_8,5,9999,9999,9999,1572921424
42,9,9,Ticks_ISO_T2_8,6,9999,9999,9999,1573721160
42,9,9,Ticks_ISO_T2_8,7,9999,9999,9999,1574521960
42,9,9,Ticks_ISO_T2_8,8,9999,9999,9999,1575321696
42,9,9,Ticks_ISO_T2_8,9,9999,9999,9999,1576121432
42,9,9,Ticks_ISO_T2_8,10,9999,9999,9999,1576921168
42,9,9,Ticks_ISO_T2_8,11,9999,9999,9999,1577721948
42,9,9,Ticks_ISO_T2_8,12,9999,9999,9999,1578521672
42,9,9,Ticks_ISO_T2_8,13,9999,9999,9999,1579321408
42,9,9,Ticks_ISO_T2_8,14,9999,9999,9999,1580121164
42,9,9,Ticks_ISO_T2_8,15,9999,9999,9999,1580921944
42,9,9,Ticks_ISO_T2_8,16,9999,9999,9999,1581721680
42,9,9,Ticks_ISO_T2_8,17,9999,9999,9999,1582521412
42,9,9,Ticks_ISO_T2_8,18,9999,9999,9999,1583321148
42,9,9,Ticks_ISO_T2_8,19,9999,9999,9999,1584121928
42,9,9,Ticks_ISO_T2_8,20,9999,9999,9999,1584921684
42,9,9,Ticks_ISO_T2_8,21,9999,9999,9999,1585721396
42,9,9,Ticks_ISO_T2_8,22,9999,9999,9999,1586521152
42,9,9,Ticks_ISO_T2_8,23,9999,9999,9999,1587321932
42,9,9,Ticks_ISO_T2_8,24,9999,9999,9999,1588121668
42,9,9,Ticks_ISO_T2_8,25,9999,9999,9999,1588921400
42,9,9,Ticks_ISO_T2_8,26,9999,9999,9999,1589721208
42,9,9,Ticks_ISO_T2_8,27,9999,9999,9999,1590521912
42,9,9,Ticks_ISO_T2_8,28,9999,9999,9999,1591321648
42,9,9,Ticks_ISO_T2_8,29,9999,9999,9999,1592121420
42,9,9,Ticks_ISO_T2_8,30,9999,9999,9999,1592921140
42,9,9,Ticks_ISO_T2_8,31,9999,9999,9999,1593721920
42,9,9,Ticks_ISO_T2_8,32,9999,9999,9999,1594521652
42,9,9,Ticks_ISO_T2_8,33,9999,9999,9999,1595321460
42,9,9,Ticks_ISO_T2_8,34,9999,9999,9999,1596121192
42,9,9,Ticks_ISO_T2_8,35,9999,9999,9999,1596921976
42,9,9,Ticks_ISO_T2_8,36,9999,9999,9999,1597721712
42,9,9,Ticks_ISO_T2_8,37,9999,9999,9999,1598521444
42,9,9,Ticks_ISO_T2_8,38,9999,9999,9999,1599321200
42,9,9,Ticks_ISO_T2_8,39,9999,9999,9999,1600121912
42,9,9,Ticks_ISO_T2_8,40,9999,9999,9999,1600921648
42,9,9,Ticks_ISO_T2_8,41,9999,9999,9999,1601721448
42,9,9,Ticks_ISO_T2_8,42,9999,9999,9999,1602521180
42,9,9,Ticks_ISO_T2_8,43,9999,9999,9999,1603321960
42,9,9,Ticks_ISO_T2_8,44,9999,9999,9999,1604121700
42,9,9,Ticks_ISO_T2_8,45,9999,9999,9999,1604921436
42,9,9,Ticks_ISO_T2_8,46,9999,9999,9999,1605721184
42,9,9,Ticks_ISO_T2_8,47,9999,9999,9999,1606521964
42,9,9,Ticks_ISO_T2_8,48,9999,9999,9999,1607321708
42,9,9,Ticks_ISO_T2_8,49,9999,9999,9999,1608121440
42,9,9,Ticks_ISO_T2_8,50,9999,9999,9999,1608921168
42,9,9,Ticks_ISO_T2_8,51,9999,9999,9999,1609721948
42,9,9,Ticks_ISO_T2_8,52,9999,9999,9999,1610521688
42,9,9,Ticks_ISO_T2_8,53,9999,9999,9999,1611321420
42,9,9,Ticks_ISO_T2_8,54,9999,9999,9999,1612121172
42,9,9,Ticks_ISO_T2_8,55,9999,9999,9999,1612921952
42,9,9,Ticks_ISO_T2_8,56,9999,9999,9999,1613721688
42,9,9,Ticks_ISO_T2_8,57,9999,9999,9999,1614521420
42,9,9,Ticks_ISO_T2_8,58,9999,9999,9999,1615321156
42,9,9,Ticks_ISO_T2_8,59,9999,9999,9999,1616121940
42,9,9,Ticks_ISO_T2_8,60,9999,9999,9999,1616921672
42,9,9,Ticks_ISO_T2_8,61,9999,9999,9999,1617721400
42,9,9,Ticks_ISO_T2_8,62,9999,9999,9999,1618521156
42,9,9,Ticks_ISO_T2_8,63,9999,9999,9999,1619321940
42,9,9,Ticks_ISO_T2_8,64,9999,9999,9999,1620121672
42,9,9,Ticks_ISO_T2_8,65,9999,9999,9999,1620921408
42,9,9,Ticks_ISO_T2_8,66,9999,9999,9999,1621721140
42,9,9,Ticks_ISO_T2_8,67,9999,9999,9999,1622521920
42,9,9,Ticks_ISO_T2_8,68,9999,9999,9999,1623321660
42,9,9,Ticks_ISO_T2_8,69,9999,9999,9999,1624121460
42,9,9,Ticks_ISO_T2_8,70,9999,9999,9999,1624921144
42,9,9,Ticks_ISO_T2_8,71,9999,9999,9999,1625721924
42,9,9,Ticks_ISO_T2_8,72,9999,9999,9999,1626521660
42,9,9,Ticks_ISO_T2_8,73,9999,9999,9999,1627321400
42,9,9,Ticks_ISO_T2_8,74,9999,9999,9999,1628121200
42,9,9,Ticks_ISO_T2_8,75,9999,9999,9999,1628921908
42,9,9,Ticks_ISO_T2_8,76,9999,9999,9999,1629721716
42,9,9,Ticks_ISO_T2_8,77,9999,9999,9999,1630521448
42,9,9,Ticks_ISO_T2_8,78,9999,9999,9999,1631321132
42,9,9,Ticks_ISO_T2_8,79,9999,9999,9999,1632121912
42,9,9,Ticks_ISO_T2_8,80,9999,9999,9999,1632921648
42,9,9,Ticks_ISO_T2_8,81,9999,9999,9999,1633721456
42,9,9,Ticks_ISO_T2_8,82,9999,9999,9999,1634521196
42,9,9,Ticks_ISO_T2_8,83,9999,9999,9999,1635321920
42,9,9,Ticks_ISO_T2_8,84,9999,9999,9999,1636121704
42,9,9,Ticks_ISO_T2_8,85,9999,9999,9999,1636921444
42,9,9,Ticks_ISO_T2_8,86,9999,9999,9999,1637721200
42,9,9,Ticks_ISO_T2_8,87,9999,9999,9999,1638521972
42,9,9,Ticks_ISO_T2_8,88,9999,9999,9999,1639321708
42,9,9,Ticks_ISO_T2_8,89,9999,9999,9999,1640121440
42,9,9,Ticks_ISO_T2_8,90,9999,9999,9999,1640921176
42,9,9,Ticks_ISO_T2_8,91,9999,9999,9999,1641721964
42,9,9,Ticks_ISO_T2_8,92,9999,9999,9999,1642521692
42,9,9,Ticks_ISO_T2_8,93,9999,9999,9999,1643321428
42,9,9,Ticks_ISO_T2_8,94,9999,9999,9999,1644121188
42,9,9,Ticks_ISO_T2_8,95,9999,9999,9999,1644921972
42,9,9,Ticks_ISO_T2_8,96,9999,9999,9999,1645721704
42,9,9,Ticks_ISO_T2_8,97,9999,9999,9999,1646521436
42,9,9,Ticks_ISO_T2_8,98,9999,9999,9999,1647321172
42,9,9,Ticks_ISO_T2_8,99,9999,9999,9999,1648121944
42,9,9,Ticks_ISO_T2_8,100,9999,9999,9999,1648921680
42,9,9,Ticks_ISO_T2_8,101,9999,9999,9999,1649721416
42,9,9,Ticks_ISO_T2_8,102,9999,9999,9999,1650521172
42,9,9,Ticks_ISO_T2_8,103,9999,9999,9999,1651321952
42,9,9,Ticks_ISO_T2_8,104,9999,9999,9999,1652121684
42,9,9,Ticks_ISO_T2_8,105,9999,9999,9999,1652921424
42,9,9,Ticks_ISO_T2_8,106,9999,9999,9999,1653721160
42,9,9,Ticks_ISO_T2_8,107,9999,9999,9999,1654521932
42,9,9,Ticks_ISO_T2_8,108,9999,9999,9999,1655321668
42,9,9,Ticks_ISO_T2_8,109,9999,9999,9999,1656121400
42,9,9,Ticks_ISO_T2_8,110,9999,9999,9999,1656921164
42,9,9,Ticks_ISO_T2_8,111,9999,9999,9999,1657721940
42,9,9,Ticks_ISO_T2_8,112,9999,9999,9999,1658521672
42,9,9,Ticks_ISO_T2_8,113,9999,9999,9999,1659321408
42,9,9,Ticks_ISO_T2_8,114,9999,9999,9999,1660121140
42,9,9,Ticks_ISO_T2_8,115,9999,9999,9999,1660921928
42,9,9,Ticks_ISO_T2_8,116,9999,9999,9999,1661721656
42,9,9,Ticks_ISO_T2_8,117,9999,9999,9999,1662521460
42,9,9,Ticks_ISO_T2_8,118,9999,9999,9999,1663321148
42,9,9,Ticks_ISO_T2_8,119,9999,9999,9999,1664121928
42,10,10,Ticks_ISO_T2_5,0,5,42,127,1675344268
42,10,10,Ticks_ISO_T2_5,1,5,42,127,1675844056
42,10,10,Ticks_ISO_T2_5,2,1,48,29,1675875772
42,10,10,Ticks_ISO_T2_5,3,5,42,127,1676343604
42,10,10,Ticks_ISO_T2_5,4,1,48,54,1676346872
42,10,10,Ticks_ISO_T2_5,5,5,42,127,1676844344
42,10,10,Ticks_ISO_T2_5,6,1,48,54,1676857336
42,10,10,Ticks_ISO_T2_5,7,5,42,127,1677344040
42,10,10,Ticks_ISO_T2_5,8,1,48,54,1677359724
42,10,10,Ticks_ISO_T2_5,9,5,42,127,1677843956
42,10,10,Ticks_ISO_T2_5,10,1,48,56,1677875196
42,10,10,Ticks_ISO_T2_5,11,5,42,127,1678343580
42,10,10,Ticks_ISO_T2_5,12,1,48,54,1678353276
42,10,10,Ticks_ISO_T2_5,13,5,42,127,1678844396
42,10,10,Ticks_ISO_T2_5,14,1,48,59,1678847888
42,10,10,Ticks_ISO_T2_5,15,5,42,127,1679343864
42,10,10,Ticks_ISO_T2_5,16,1,48,63,1679351696
42,10,10,Ticks_ISO_T2_5,17,5,42,127,1679843636
42,10,10,Ticks_ISO_T2_5,18,1,48,61,1679862384
42,10,10,Ticks_ISO_T2_5,19,5,42,127,1680344524
42,10,10,Ticks_ISO_T2_5,20,1,48,59,1680362976
42,10,10,Ticks_ISO_T2_5,21,5,42,127,1680844068
42,10,10,Ticks_ISO_T2_5,22,1,48,62,1680860504
42,10,10,Ticks_ISO_T2_5,23,5,42,127,1681343840
42,10,10,Ticks_ISO_T2_5,24,1,48,52,1681353388
42,10,10,Ticks_ISO_T2_5,25,5,42,127,1681843460
42,10,10,Ticks_ISO_T2_5,26,1,48,56,1681861464
42,10,10,Ticks_ISO_T2_5,27,5,42,127,1682344200
42,10,10,Ticks_ISO_T2_5,28,1,48,62,1682356892
42,10,10,Ticks_ISO_T2_5,29,1,48,61,1682839368
42,10,10,Ticks_ISO_T2_5,30,5,42,127,1682844116
42,10,10,Ticks_ISO_T2_5,31,1,48,67,1683341776
42,10,10,Ticks_ISO_T2_5,32,5,42,127,1683343884
42,10,10,Ticks_ISO_T2_5,33,5,42,127,1683843288
42,10,10,Ticks_ISO_T2_5,34,1,48,65,1683878792
42,10,10,Ticks_ISO_T2_5,35,5,42,127,1684344104
42,10,10,Ticks_ISO_T2_5,36,1,48,59,1684356124
42,10,10,Ticks_ISO_T2_5,37,5,42,127,1684843948
42,10,10,Ticks_ISO_T2_5,38,1,48,56,1684850208
42,10,10,Ticks_ISO_T2_5,39,1,48,61,1685330040
42,10,10,Ticks_ISO_T2_5,40,5,42,127,1685343708
42,10,10,Ticks_ISO_T2_5,41,1,48,68,1685844608
42,10,10,Ticks_ISO_T2_5,42,5,42,127,1685846100
42,10,10,Ticks_ISO_T2_5,43,5,42,127,1686343904
42,10,10,Ticks_ISO_T2_5,44,1,48,62,1686345916
42,10,10,Ticks_ISO_T2_5,45,1,48,65,1686830096
42,10,10,Ticks_ISO_T2_5,46,5,42,127,1686843964
42,10,10,Ticks_ISO_T2_5,47,1,48,69,1687315052
42,10,10,Ticks_ISO_T2_5,48,5,42,127,1687343584
42,10,10,Ticks_ISO_T2_5,49,1,48,59,1687835916
42,10,10,Ticks_ISO_T2_5,50,5,42,127,1687844176
42,10,10,Ticks_ISO_T2_5,51,5,42,127,1688343880
42,10,10,Ticks_ISO_T2_5,52,1,48,62,1688346544
42,10,10,Ticks_ISO_T2_5,53,5,42,127,1688843720
42,10,10,Ticks_ISO_T2_5,54,1,48,61,1688861204
42,10,10,Ticks_ISO_T2_5,55,1,48,63,1689318992
42,10,10,Ticks_ISO_T2_5,56,5,42,127,1689344308
42,10,10,Ticks_ISO_T2_5,57,1,48,55,1689815620
42,10,10,Ticks_ISO_T2_5,58,5,42,127,1689844076
42,10,10,Ticks_ISO_T2_5,59,1,48,54,1690334536
42,10,10,Ticks_ISO_T2_5,60,5,42,127,1690343768
42,10,10,Ticks_ISO_T2_5,61,5,42,127,1690843768
42,10,10,Ticks_ISO_T2_5,62,1,48,59,1690844736
42,10,10,Ticks_ISO_T2_5,63,5,42,127,1691344140
42,10,10,Ticks_ISO_T2_5,64,1,48,62,1691347780
42,10,10,Ticks_ISO_T2_5,65,5,42,127,1691844056
42,10,10,Ticks_ISO_T2_5,66,1,48,70,1691846648
42,10,10,Ticks_ISO_T2_5,67,5,42,127,1692343604
42,10,10,Ticks_ISO_T2_5,68,1,48,62,1692360336
42,10,10,Ticks_ISO_T2_5,69,1,48,66,1692833456
42,10,10,Ticks_ISO_T2_5,70,5,42,127,1692844488
42,10,10,Ticks_ISO_T2_5,71,1,48,59,1693334124
42,10,10,Ticks_ISO_T2_5,72,5,42,127,1693344108
42,10,10,Ticks_ISO_T2_5,73,1,48,61,1693831504
42,10,10,Ticks_ISO_T2_5,74,5,42,127,1693843728
42,10,10,Ticks_ISO_T2_5,75,1,48,66,1694333144
42,10,10,Ticks_ISO_T2_5,76,5,42,127,1694343644
42,10,10,Ticks_ISO_T2_5,77,1,48,55,1694836648
42,10,10,Ticks_ISO_T2_5,78,5,42,127,1694844684
42,10,10,Ticks_ISO_T2_5,79,1,48,60,1695318396
42,10,10,Ticks_ISO_T2_5,80,5,42,127,1695343936
42,10,10,Ticks_ISO_T2_5,81,1,48,64,1695813652
42,10,10,Ticks_ISO_T2_5,82,5,42,127,1695843704
42,10,10,Ticks_ISO_T2_5,83,1,48,65,1696337960
42,10,10,Ticks_ISO_T2_5,84,5,42,127,1696344720
42,10,10,Ticks_ISO_T2_5,85,5,42,127,1696844248
42,10,10,Ticks_ISO_T2_5,86,1,48,53,1696849988
42,10,10,Ticks_ISO_T2_5,87,1,48,67,1697328544
42,10,10,Ticks_ISO_T2_5,88,5,42,127,1697343908
42,10,10,Ticks_ISO_T2_5,89,1,48,55,1697843388
42,10,10,Ticks_ISO_T2_5,90,5,42,127,1697845024
42,10,10,Ticks_ISO_T2_5,91,5,42,127,1698344424
42,10,10,Ticks_ISO_T2_5,92,1,48,50,1698350764
42,10,10,Ticks_ISO_T2_5,93,1,48,55,1698838700
42,10,10,Ticks_ISO_T2_5,94,5,42,127,1698843964
42,10,10,Ticks_ISO_T2_5,95,1,48,48,1699338016
42,10,10,Ticks_ISO_T2_5,96,5,42,127,1699343588
42,10,10,Ticks_ISO_T2_5,97,1,48,56,1699838012
42,10,10,Ticks_ISO_T2_5,98,5,42,127,1699843580
42,10,10,Ticks_ISO_T2_5,99,5,42,127,1700344252
42,10,10,Ticks_ISO_T2_5,100,1,48,64,1700353508
42,10,10,Ticks_ISO_T2_5,101,5,42,127,1700843800
42,10,10,Ticks_ISO_T2_5,102,1,48,60,1700844764
42,10,10,Ticks_ISO_T2_5,103,1,48,59,1701340464
42,10,10,Ticks_ISO_T2_5,104,5,42,127,1701343564
42,10,10,Ticks_ISO_T2_5,105,5,42,127,1701844312
42,10,10,Ticks_ISO_T2_5,106,1,48,54,1701851844
42,10,10,Ticks_ISO_T2_5,107,5,42,127,1702343932
42,10,10,Ticks_ISO_T2_5,108,1,48,55,1702359096
42,10,10,Ticks_ISO_T2_5,109,5,42,127,1702843700
42,10,10,Ticks_ISO_T2_5,110,1,48,51,1702862676
42,10,10,Ticks_ISO_T2_5,111,1,48,61,1703334676
42,10,10,Ticks_ISO_T2_5,112,5,42,127,1703343388
42,10,10,Ticks_ISO_T2_5,113,1,48,57,1703828540
42,10,10,Ticks_ISO_T2_5,114,5,42,127,1703844280
42,10,10,Ticks_ISO_T2_5,115,1,48,54,1704326812
42,10,10,Ticks_ISO_T2_5,116,5,42,127,1704343828
42,10,10,Ticks_ISO_T2_5,117,1,48,58,1704838920
42,10,10,Ticks_ISO_T2_5,118,5,42,127,1704843596
42,10,10,Ticks_ISO_T2_5,119,1,48,62,1705314388
42,10,10,Ticks_ISO_T2_5,120,5,42,127,1705344484
42,10,10,Ticks_ISO_T2_5,121,1,48,54,1705822008
42,10,10,Ticks_ISO_T2_5,122,5,42,127,1705844332
42,10,10,Ticks_ISO_T2_5,123,5,42,127,1706343660
42,10,10,Ticks_ISO_T2_5,124,1,48,59,1706346324
42,10,10,Ticks_ISO_T2_5,125,1,48,58,1706827656
42,10,10,Ticks_ISO_T2_5,126,5,42,127,1706843500
42,10,10,Ticks_ISO_T2_5,127,1,48,58,1707316956
42,10,10,Ticks_ISO_T2_5,128,5,42,127,1707344440
42,10,10,Ticks_ISO_T2_5,129,1,48,62,1707828544
42,10,10,Ticks_ISO_T2_5,130,5,42,127,1707844056
42,10,10,Ticks_ISO_T2_5,131,1,48,58,1708344056
42,10,10,Ticks_ISO_T2_5,132,5,42,127,1708345400
42,10,10,Ticks_ISO_T2_5,133,5,42,127,1708844500
42,10,10,Ticks_ISO_T2_5,134,1,48,62,1708847176
42,10,10,Ticks_ISO_T2_5,135,1,48,57,1709326580
42,10,10,Ticks_ISO_T2_5,136,5,42,127,1709344336
42,10,10,Ticks_ISO_T2_5,137,1,48,50,1709793884
42,10,10,Ticks_ISO_T2_5,138,5,42,127,1709843812
42,10,10,Ticks_ISO_T2_5,139,1,48,52,1710333668
42,10,10,Ticks_ISO_T2_5,140,5,42,127,1710343428
42,10,10,Ticks_ISO_T2_5,141,5,42,127,1710844176
42,10,10,Ticks_ISO_T2_5,142,1,48,51,1710856352
42,10,10,Ticks_ISO_T2_5,143,1,48,70,1711332464
42,10,10,Ticks_ISO_T2_5,144,5,42,127,1711344164
42,10,10,Ticks_ISO_T2_5,145,1,48,55,1711801864
42,10,10,Ticks_ISO_T2_5,146,5,42,127,1711843784
42,10,10,Ticks_ISO_T2_5,147,1,48,67,1712308592
42,10,10,Ticks_ISO_T2_5,148,5,42,127,1712344376
42,10,10,Ticks_ISO_T2_5,149,1,48,69,1712833644
42,10,10,Ticks_ISO_T2_5,150,5,42,127,1712844148
42,10,10,Ticks_ISO_T2_5,151,1,48,60,1713327652
42,10,10,Ticks_ISO_T2_5,152,5,42,127,1713344064
42,10,10,Ticks_ISO_T2_5,153,1,48,58,1713833924
42,10,10,Ticks_ISO_T2_5,154,5,42,127,1713843464
42,10,10,Ticks_ISO_T2_5,155,1,48,64,1714328532
42,10,10,Ticks_ISO_T2_5,156,5,42,127,1714344276
42,10,10,Ticks_ISO_T2_5,157,1,48,57,1714829356
42,10,10,Ticks_ISO_T2_5,158,5,42,127,1714844196
42,10,10,Ticks_ISO_T2_5,159,1,48,71,1715341780
42,10,10,Ticks_ISO_T2_5,160,5,42,127,1715343668
42,10,10,Ticks_ISO_T2_5,161,5,42,127,1715843368
42,10,10,Ticks_ISO_T2_5,162,1,48,51,1715850748
42,10,10,Ticks_ISO_T2_5,163,1,48,55,1716335168
42,10,10,Ticks_ISO_T2_5,164,5,42,127,1716344104
42,10,10,Ticks_ISO_T2_5,165,5,42,127,1716844100
42,10,10,Ticks_ISO_T2_5,166,1,48,64,1716847444
42,10,10,Ticks_ISO_T2_5,167,1,48,63,1717318376
42,10,10,Ticks_ISO_T2_5,168,5,42,127,1717343568
42,10,10,Ticks_ISO_T2_5,169,1,48,55,1717814704
42,10,10,Ticks_ISO_T2_5,170,5,42,127,1717844308
42,10,10,Ticks_ISO_T2_5,171,1,48,65,1718321804
42,10,10,Ticks_ISO_T2_5,172,5,42,127,1718344128
42,10,10,Ticks_ISO_T2_5,173,1,48,59,1718819180
42,10,10,Ticks_ISO_T2_5,174,5,42,127,1718843896
42,10,10,Ticks_ISO_T2_5,175,1,48,66,1719293744
42,10,10,Ticks_ISO_T2_5,176,5,42,127,1719343520
42,10,10,Ticks_ISO_T2_5,177,1,48,53,1719809968
42,10,10,Ticks_ISO_T2_5,178,5,42,127,1719844188
42,10,10,Ticks_ISO_T2_5,179,1,48,59,1720313404
42,10,10,Ticks_ISO_T2_5,180,5,42,127,1720344032
42,10,10,Ticks_ISO_T2_5,181,1,48,63,1720797244
42,10,10,Ticks_ISO_T2_5,182,5,42,127,1720843724
42,10,10,Ticks_ISO_T2_5,183,1,48,55,1721298508
42,10,10,Ticks_ISO_T2_5,184,5,42,127,1721344392
42,10,10,Ticks_ISO_T2_5,185,1,48,71,1721803064
42,10,10,Ticks_ISO_T2_5,186,5,42,127,1721844012
42,10,10,Ticks_ISO_T2_5,187,1,48,59,1722328712
42,10,10,Ticks_ISO_T2_5,188,5,42,127,1722344004
42,10,10,Ticks_ISO_T2_5,189,1,48,60,1722825340
42,10,10,Ticks_ISO_T2_5,190,5,42,127,1722843476
42,10,10,Ticks_ISO_T2_5,191,1,48,66,1723312840
42,10,10,Ticks_ISO_T2_5,192,5,42,127,1723344216
42,10,10,Ticks_ISO_T2_5,193,1,48,62,1723809024
42,10,10,Ticks_ISO_T2_5,194,5,42,127,1723843984
42,10,10,Ticks_ISO_T2_5,195,1,48,56,1724325620
42,10,10,Ticks_ISO_T2_5,196,5,42,127,1724343680
42,10,10,Ticks_ISO_T2_5,197,1,48,69,1724801976
42,10,10,Ticks_ISO_T2_5,198,5,42,127,1724844348
42,10,10,Ticks_ISO_T2_5,199,1,48,66,1725298908
42,10,10,Ticks_ISO_T2_5,200,5,42,127,1725344120
42,10,10,Ticks_ISO_T2_5,201,1,48,71,1725798456
42,10,10,Ticks_ISO_T2_5,202,5,42,127,1725843740
42,10,10,Ticks_ISO_T2_5,203,1,48,67,1726318192
42,10,10,Ticks_ISO_T2_5,204,5,42,127,1726343804
42,10,10,Ticks_ISO_T2_5,205,1,48,59,1726811308
42,10,10,Ticks_ISO_T2_5,206,5,42,127,1726844172
42,10,10,Ticks_ISO_T2_5,207,1,48,70,1727299156
42,10,10,Ticks_ISO_T2_5,208,5,42,127,1727343944
42,10,10,Ticks_ISO_T2_5,209,1,48,53,1727802592
42,10,10,Ticks_ISO_T2_5,210,5,42,127,1727844084
42,10,10,Ticks_ISO_T2_5,211,1,48,63,1728305124
42,10,10,Ticks_ISO_T2_5,212,5,42,127,1728344600
42,10,10,Ticks_ISO_T2_5,213,1,48,54,1728832196
42,10,10,Ticks_ISO_T2_5,214,5,42,127,1728844196
42,10,10,Ticks_ISO_T2_5,215,1,48,71,1729340572
42,10,10,Ticks_ISO_T2_5,216,5,42,127,1729343744
42,10,10,Ticks_ISO_T2_5,217,5,42,127,1729843668
42,10,10,Ticks_ISO_T2_5,218,1,48,48,1729845008
42,10,10,Ticks_ISO_T2_5,219,1,48,57,1730341676
42,10,10,Ticks_ISO_T2_5,220,5,42,127,1730344404
42,10,10,Ticks_ISO_T2_5,221,1,48,68,1730836360
42,10,10,Ticks_ISO_T2_5,222,5,42,127,1730843952
42,10,10,Ticks_ISO_T2_5,223,1,48,62,1731343876
42,10,10,Ticks_ISO_T2_5,224,5,42,127,1731345440
42,10,10,Ticks_ISO_T2_5,225,1,48,62,1731837916
42,10,10,Ticks_ISO_T2_5,226,5,42,127,1731843636
42,10,10,Ticks_ISO_T2_5,227,5,42,127,1732344164
42,10,10,Ticks_ISO_T2_5,228,1,48,47,1732365228
42,10,10,Ticks_ISO_T2_5,229,1,48,41,1732828928
42,10,10,Ticks_ISO_T2_5,230,5,42,127,1732843924
42,10,10,Ticks_ISO_T2_5,231,1,48,71,1733308732
42,10,10,Ticks_ISO_T2_5,232,5,42,127,1733343620
42,10,10,Ticks_ISO_T2_5,233,1,48,80,1733804460
42,10,10,Ticks_ISO_T2_5,234,5,42,127,1733844436
42,10,10,Ticks_ISO_T2_5,235,1,48,60,1734342544
42,10,10,Ticks_ISO_T2_5,236,5,42,127,1734344500
42,10,10,Ticks_ISO_T2_5,237,5,42,127,1734843832
42,10,10,Ticks_ISO_T2_5,238,1,48,67,1734849720
42,10,10,Ticks_ISO_T2_5,239,1,48,62,1735338104
42,10,10,Ticks_ISO_T2_5,240,5,42,127,1735343444
42,10,10,Ticks_ISO_T2_5,241,1,48,61,1735836668
42,10,10,Ticks_ISO_T2_5,242,5,42,127,1735844408
42,10,10,Ticks_ISO_T2_5,243,1,48,65,1736341452
42,10,10,Ticks_ISO_T2_5,244,5,42,127,1736343956
42,10,10,Ticks_ISO_T2_5,245,1,48,67,1736832324
42,10,10,Ticks_ISO_T2_5,246,5,42,127,1736843576
42,10,10,Ticks_ISO_T2_5,247,1,48,68,1737327452
42,10,10,Ticks_ISO_T2_5,248,5,42,127,1737344392
42,10,10,Ticks_ISO_T2_5,249,1,48,59,1737828500
42,10,10,Ticks_ISO_T2_5,250,5,42,127,1737843940
42,10,10,Ticks_ISO_T2_5,251,5,42,127,1738343640
42,10,10,Ticks_ISO_T2_5,252,1,48,63,1738347280
42,10,10,Ticks_ISO_T2_5,253,1,48,64,1738835364
42,10,10,Ticks_ISO_T2_5,254,5,42,127,1738843624
42,10,10,Ticks_ISO_T2_5,255,1,48,58,1739327252
42,10,10,Ticks_ISO_T2_5,256,5,42,127,1739344512
42,10,10,Ticks_ISO_T2_5,257,1,48,61,1739821936
42,10,10,Ticks_ISO_T2_5,258,5,42,127,1739843812
42,10,10,Ticks_ISO_T2_5,0,9999,9999,9999,1675341904
42,10,10,Ticks_ISO_T2_5,1,9999,9999,9999,1675841624
42,10,10,Ticks_ISO_T2_5,2,9999,9999,9999,1676341316
42,10,10,Ticks_ISO_T2_5,3,9999,9999,9999,1676842060
42,10,10,Ticks_ISO_T2_5,4,9999,9999,9999,1677341752
42,10,10,Ticks_ISO_T2_5,5,9999,9999,9999,1677841524
42,10,10,Ticks_ISO_T2_5,6,9999,9999,9999,1678341216
42,10,10,Ticks_ISO_T2_5,7,9999,9999,9999,1678841960
42,10,10,Ticks_ISO_T2_5,8,9999,9999,9999,1679341652
42,10,10,Ticks_ISO_T2_5,9,9999,9999,9999,1679841348
42,10,10,Ticks_ISO_T2_5,10,9999,9999,9999,1680342088
42,10,10,Ticks_ISO_T2_5,11,9999,9999,9999,1680841784
42,10,10,Ticks_ISO_T2_5,12,9999,9999,9999,1681341552
42,10,10,Ticks_ISO_T2_5,13,9999,9999,9999,1681841248
42,10,10,Ticks_ISO_T2_5,14,9999,9999,9999,1682341988
42,10,10,Ticks_ISO_T2_5,15,9999,9999,9999,1682841680
42,10,10,Ticks_ISO_T2_5,16,9999,9999,9999,1683341404
42,10,10,Ticks_ISO_T2_5,17,9999,9999,9999,1683841076
42,10,10,Ticks_ISO_T2_5,18,9999,9999,9999,1684341816
42,10,10,Ticks_ISO_T2_5,19,9999,9999,9999,1684841584
42,10,10,Ticks_ISO_T2_5,20,9999,9999,9999,1685341276
42,10,10,Ticks_ISO_T2_5,21,9999,9999,9999,1685841996
42,10,10,Ticks_ISO_T2_5,22,9999,9999,9999,1686341692
42,10,10,Ticks_ISO_T2_5,23,9999,9999,9999,1686841456
42,10,10,Ticks_ISO_T2_5,24,9999,9999,9999,1687341152
42,10,10,Ticks_ISO_T2_5,25,9999,9999,9999,1687841892
42,10,10,Ticks_ISO_T2_5,26,9999,9999,9999,1688341592
42,10,10,Ticks_ISO_T2_5,27,9999,9999,9999,1688841284
42,10,10,Ticks_ISO_T2_5,28,9999,9999,9999,1689342020
42,10,10,Ticks_ISO_T2_5,29,9999,9999,9999,1689841716
42,10,10,Ticks_ISO_T2_5,30,9999,9999,9999,1690341484
42,10,10,Ticks_ISO_T2_5,31,9999,9999,9999,1690841184
42,10,10,Ticks_ISO_T2_5,32,9999,9999,9999,1691341928
42,10,10,Ticks_ISO_T2_5,33,9999,9999,9999,1691841620
42,10,10,Ticks_ISO_T2_5,34,9999,9999,9999,1692341316
42,10,10,Ticks_ISO_T2_5,35,9999,9999,9999,1692842052
42,10,10,Ticks_ISO_T2_5,36,9999,9999,9999,1693341748
42,10,10,Ticks_ISO_T2_5,37,9999,9999,9999,1693841516
42,10,10,Ticks_ISO_T2_5,38,9999,9999,9999,1694341212
42,10,10,Ticks_ISO_T2_5,39,9999,9999,9999,1694841952
42,10,10,Ticks_ISO_T2_5,40,9999,9999,9999,1695341648
42,10,10,Ticks_ISO_T2_5,41,9999,9999,9999,1695841344
42,10,10,Ticks_ISO_T2_5,42,9999,9999,9999,1696342136
42,10,10,Ticks_ISO_T2_5,43,9999,9999,9999,1696841812
42,10,10,Ticks_ISO_T2_5,44,9999,9999,9999,1697341548
42,10,10,Ticks_ISO_T2_5,45,9999,9999,9999,1697841252
42,10,10,Ticks_ISO_T2_5,46,9999,9999,9999,1698341992
42,10,10,Ticks_ISO_T2_5,47,9999,9999,9999,1698841680
42,10,10,Ticks_ISO_T2_5,48,9999,9999,9999,1699341376
42,10,10,Ticks_ISO_T2_5,49,9999,9999,9999,1699841144
42,10,10,Ticks_ISO_T2_5,50,9999,9999,9999,1700341816
42,10,10,Ticks_ISO_T2_5,51,9999,9999,9999,1700841588
42,10,10,Ticks_ISO_T2_5,52,9999,9999,9999,1701341276
42,10,10,Ticks_ISO_T2_5,53,9999,9999,9999,1701842024
42,10,10,Ticks_ISO_T2_5,54,9999,9999,9999,1702341720
42,10,10,Ticks_ISO_T2_5,55,9999,9999,9999,1702841416
42,10,10,Ticks_ISO_T2_5,56,9999,9999,9999,1703341104
42,10,10,Ticks_ISO_T2_5,57,9999,9999,9999,1703841844
42,10,10,Ticks_ISO_T2_5,58,9999,9999,9999,1704341616
42,10,10,Ticks_ISO_T2_5,59,9999,9999,9999,1704841308
42,10,10,Ticks_ISO_T2_5,60,9999,9999,9999,1705342052
42,10,10,Ticks_ISO_T2_5,61,9999,9999,9999,1705841748
42,10,10,Ticks_ISO_T2_5,62,9999,9999,9999,1706341448
42,10,10,Ticks_ISO_T2_5,63,9999,9999,9999,1706841136
42,10,10,Ticks_ISO_T2_5,64,9999,9999,9999,1707341928
42,10,10,Ticks_ISO_T2_5,65,9999,9999,9999,1707841624
42,10,10,Ticks_ISO_T2_5,66,9999,9999,9999,1708341324
42,10,10,Ticks_ISO_T2_5,67,9999,9999,9999,1708842064
42,10,10,Ticks_ISO_T2_5,68,9999,9999,9999,1709341752
42,10,10,Ticks_ISO_T2_5,69,9999,9999,9999,1709841524
42,10,10,Ticks_ISO_T2_5,70,9999,9999,9999,1710341220
42,10,10,Ticks_ISO_T2_5,71,9999,9999,9999,1710841964
42,10,10,Ticks_ISO_T2_5,72,9999,9999,9999,1711341652
42,10,10,Ticks_ISO_T2_5,73,9999,9999,9999,1711841348
42,10,10,Ticks_ISO_T2_5,74,9999,9999,9999,1712342092
42,10,10,Ticks_ISO_T2_5,75,9999,9999,9999,1712841784
42,10,10,Ticks_ISO_T2_5,76,9999,9999,9999,1713341556
42,10,10,Ticks_ISO_T2_5,77,9999,9999,9999,1713841252
42,10,10,Ticks_ISO_T2_5,78,9999,9999,9999,1714341992
42,10,10,Ticks_ISO_T2_5,79,9999,9999,9999,1714841684
42,10,10,Ticks_ISO_T2_5,80,9999,9999,9999,1715341404
42,10,10,Ticks_ISO_T2_5,81,9999,9999,9999,1715841080
42,10,10,Ticks_ISO_T2_5,82,9999,9999,9999,1716341816
42,10,10,Ticks_ISO_T2_5,83,9999,9999,9999,1716841592
42,10,10,Ticks_ISO_T2_5,84,9999,9999,9999,1717341280
42,10,10,Ticks_ISO_T2_5,85,9999,9999,9999,1717842020
42,10,10,Ticks_ISO_T2_5,86,9999,9999,9999,1718341692
42,10,10,Ticks_ISO_T2_5,87,9999,9999,9999,1718841460
42,10,10,Ticks_ISO_T2_5,88,9999,9999,9999,1719341160
42,10,10,Ticks_ISO_T2_5,89,9999,9999,9999,1719841900
42,10,10,Ticks_ISO_T2_5,90,9999,9999,9999,1720341596
42,10,10,Ticks_ISO_T2_5,91,9999,9999,9999,1720841288
42,10,10,Ticks_ISO_T2_5,92,9999,9999,9999,1721342032
42,10,10,Ticks_ISO_T2_5,93,9999,9999,9999,1721841724
42,10,10,Ticks_ISO_T2_5,94,9999,9999,9999,1722341492
42,10,10,Ticks_ISO_T2_5,95,9999,9999,9999,1722841188
42,10,10,Ticks_ISO_T2_5,96,9999,9999,9999,1723341932
42,10,10,Ticks_ISO_T2_5,97,9999,9999,9999,1723841624
42,10,10,Ticks_ISO_T2_5,98,9999,9999,9999,1724341320
42,10,10,Ticks_ISO_T2_5,99,9999,9999,9999,1724842064
42,10,10,Ticks_ISO_T2_5,100,9999,9999,9999,1725341760
42,10,10,Ticks_ISO_T2_5,101,9999,9999,9999,1725841528
42,10,10,Ticks_ISO_T2_5,102,9999,9999,9999,1726341220
42,10,10,Ticks_ISO_T2_5,103,9999,9999,9999,1726841964
42,10,10,Ticks_ISO_T2_5,104,9999,9999,9999,1727341656
42,10,10,Ticks_ISO_T2_5,105,9999,9999,9999,1727841352
42,10,10,Ticks_ISO_T2_5,106,9999,9999,9999,1728342092
42,10,10,Ticks_ISO_T2_5,107,9999,9999,9999,1728841836
42,10,10,Ticks_ISO_T2_5,108,9999,9999,9999,1729341532
42,10,10,Ticks_ISO_T2_5,109,9999,9999,9999,1729841236
42,10,10,Ticks_ISO_T2_5,110,9999,9999,9999,1730341968
42,10,10,Ticks_ISO_T2_5,111,9999,9999,9999,1730841664
42,10,10,Ticks_ISO_T2_5,112,9999,9999,9999,1731341364
42,10,10,Ticks_ISO_T2_5,113,9999,9999,9999,1731841128
42,10,10,Ticks_ISO_T2_5,114,9999,9999,9999,1732341876
42,10,10,Ticks_ISO_T2_5,115,9999,9999,9999,1732841564
42,10,10,Ticks_ISO_T2_5,116,9999,9999,9999,1733341256
42,10,10,Ticks_ISO_T2_5,117,9999,9999,9999,1733842000
42,10,10,Ticks_ISO_T2_5,118,9999,9999,9999,1734341700
42,10,10,Ticks_ISO_T2_5,119,9999,9999,9999,1734841396
42,10,10,Ticks_ISO_T2_5,120,9999,9999,9999,1735341160
42,10,10,Ticks_ISO_T2_5,121,9999,9999,9999,1735841900
42,10,10,Ticks_ISO_T2_5,122,9999,9999,9999,1736341596
42,10,10,Ticks_ISO_T2_5,123,9999,9999,9999,1736841288
42,10,10,Ticks_ISO_T2_5,124,9999,9999,9999,1737342032
42,10,10,Ticks_ISO_T2_5,125,9999,9999,9999,1737841728
42,10,10,Ticks_ISO_T2_5,126,9999,9999,9999,1738341428
42,10,10,Ticks_ISO_T2_5,127,9999,9999,9999,1738841188
42,10,10,Ticks_ISO_T2_5,128,9999,9999,9999,1739341904
42,10,10,Ticks_ISO_T2_5,129,9999,9999,9999,1739841600
42,11,25,Jits_Pract_5,0,5,56,103,1791835628
42,11,25,Jits_Pract_5,1,5,63,98,1791838576
42,11,25,Jits_Pract_5,2,5,80,127,1791841852
42,11,25,Jits_Pract_5,0,5,56,103,1792336100
42,11,25,Jits_Pract_5,1,5,63,98,1792339204
42,11,25,Jits_Pract_5,2,5,80,127,1792342328
42,11,25,Jits_Pract_5,0,5,56,103,1792835964
42,11,25,Jits_Pract_5,1,5,80,127,1792846332
42,11,25,Jits_Pract_5,2,5,63,98,1792865744
42,11,25,Jits_Pract_5,0,5,63,98,1793285584
42,11,25,Jits_Pract_5,1,5,80,127,1793316084
42,11,25,Jits_Pract_5,2,5,56,103,1793325456
42,11,25,Jits_Pract_5,0,5,80,127,1793845772
42,11,25,Jits_Pract_5,1,5,56,103,1793855968
42,11,25,Jits_Pract_5,2,5,63,98,1793885816
42,11,25,Jits_Pract_5,0,5,63,98,1794336228
42,11,25,Jits_Pract_5,1,5,56,103,1794365904
42,11,25,Jits_Pract_5,2,5,80,127,1794375952
42,11,25,Jits_Pract_5,0,5,56,103,1794785908
42,11,25,Jits_Pract_5,1,5,63,98,1794836040
42,11,25,Jits_Pract_5,2,5,80,127,1794856352
42,11,25,Jits_Pract_5,0,5,80,127,1795286328
42,11,25,Jits_Pract_5,1,5,63,98,1795335484
42,11,25,Jits_Pract_5,2,5,56,103,1795375424
42,11,25,Jits_Pract_5,0,5,56,103,1795796336
42,11,25,Jits_Pract_5,1,5,63,98,1795825936
42,11,25,Jits_Pract_5,2,5,80,127,1795895764
42,11,25,Jits_Pract_5,3,1,48,50,1795940488
42,11,25,Jits_Pract_5,0,5,56,103,1796296040
42,11,25,Jits_Pract_5,1,5,80,127,1796355460
42,11,25,Jits_Pract_5,2,5,63,98,1796386180
42,11,25,Jits_Pract_5,3,1,48,36,1796574592
42,11,25,Jits_Pract_5,0,5,56,103,1796806012
42,11,25,Jits_Pract_5,1,5,63,98,1796816208
42,11,25,Jits_Pract_5,2,1,48,40,1796845176
42,11,25,Jits_Pract_5,3,5,80,127,1796856064
42,11,25,Jits_Pract_5,0,5,63,98,1797295448
42,11,25,Jits_Pract_5,1,5,80,127,1797376220
42,11,25,Jits_Pract_5,2,5,56,103,1797385740
42,11,25,Jits_Pract_5,0,1,48,53,1797776792
42,11,25,Jits_Pract_5,1,5,63,98,1797846272
42,11,25,Jits_Pract_5,2,5,56,103,1797886188
42,11,25,Jits_Pract_5,3,5,80,127,1797889408
42,11,25,Jits_Pract_5,0,5,56,103,1798306028
42,11,25,Jits_Pract_5,1,5,63,98,1798316672
42,11,25,Jits_Pract_5,2,5,80,127,1798356460
42,11,25,Jits_Pract_5,3,1,48,50,1798535652
42,11,25,Jits_Pract_5,0,5,56,103,1798795688
42,11,25,Jits_Pract_5,1,5,63,98,1798798680
42,11,25,Jits_Pract_5,2,1,48,43,1798813628
42,11,25,Jits_Pract_5,3,5,80,127,1798816140
42,11,25,Jits_Pract_5,0,9999,9999,9999,1792084040
42,11,25,Jits_Pract_5,1,9999,9999,9999,1792583740
42,11,25,Jits_Pract_5,2,9999,9999,9999,1793083480
42,11,25,Jits_Pract_5,3,9999,9999,9999,1793583216
42,11,25,Jits_Pract_5,4,9999,9999,9999,1794083924
42,11,25,Jits_Pract_5,5,9999,9999,9999,1794583672
42,11,25,Jits_Pract_5,6,9999,9999,9999,1795083324
42,11,25,Jits_Pract_5,7,9999,9999,9999,1795584112
42,11,25,Jits_Pract_5,8,9999,9999,9999,1796094024
42,11,25,Jits_Pract_5,9,9999,9999,9999,1796593744
42,11,25,Jits_Pract_5,10,9999,9999,9999,1797093436
42,11,25,Jits_Pract_5,11,9999,9999,9999,1797593164
42,11,25,Jits_Pract_5,12,9999,9999,9999,1798093912
42,11,25,Jits_Pract_5,13,9999,9999,9999,1798593616
42,11,25,Jits_Pract_5,14,9999,9999,9999,1799093364
42,12,24,Jits_Pract_8,0,5,56,103,1854529032
42,12,24,Jits_Pract_8,1,5,63,98,1854532132
42,12,24,Jits_Pract_8,2,5,80,127,1854535400
42,12,24,Jits_Pract_8,0,5,56,103,1855328544
42,12,24,Jits_Pract_8,1,5,63,98,1855331572
42,12,24,Jits_Pract_8,2,5,80,127,1855334844
42,12,24,Jits_Pract_8,0,5,80,127,1856069068
42,12,24,Jits_Pract_8,1,1,48,60,1856127360
42,12,24,Jits_Pract_8,2,5,63,98,1856159072
42,12,24,Jits_Pract_8,3,5,56,103,1856169268
42,12,24,Jits_Pract_8,0,5,56,103,1856889164
42,12,24,Jits_Pract_8,1,5,63,98,1856898316
42,12,24,Jits_Pract_8,2,5,80,127,1856988520
42,12,24,Jits_Pract_8,3,1,48,65,1856989412
42,12,24,Jits_Pract_8,0,5,63,98,1857659340
42,12,24,Jits_Pract_8,1,5,80,127,1857688940
42,12,24,Jits_Pract_8,2,1,48,60,1857713780
42,12,24,Jits_Pract_8,3,5,56,103,1857718756
42,12,24,Jits_Pract_8,0,1,48,58,1858450596
42,12,24,Jits_Pract_8,1,5,56,103,1858459232
42,12,24,Jits_Pract_8,2,5,80,127,1858559316
42,12,24,Jits_Pract_8,3,5,63,98,1858608620
42,12,24,Jits_Pract_8,0,1,48,54,1859237540
42,12,24,Jits_Pract_8,1,5,56,103,1859258840
42,12,24,Jits_Pract_8,2,5,80,127,1859308896
42,12,24,Jits_Pract_8,3,5,63,98,1859348820
42,12,24,Jits_Pract_8,0,1,48,60,1860025068
42,12,24,Jits_Pract_8,1,5,80,127,1860089236
42,12,24,Jits_Pract_8,2,5,63,98,1860118836
42,12,24,Jits_Pract_8,3,5,56,103,1860188528
42,12,24,Jits_Pract_8,0,1,48,41,1860847020
42,12,24,Jits_Pract_8,1,5,63,98,1860918816
42,12,24,Jits_Pract_8,2,5,56,103,1860949400
42,12,24,Jits_Pract_8,3,5,80,127,1861008964
42,12,24,Jits_Pract_8,0,1,48,43,1861653432
42,12,24,Jits_Pract_8,1,5,56,103,1861659084
42,12,24,Jits_Pract_8,2,5,80,127,1861662152
42,12,24,Jits_Pract_8,3,5,63,98,1861778816
42,12,24,Jits_Pract_8,0,1,48,26,1862442168
42,12,24,Jits_Pract_8,1,5,56,103,1862538720
42,12,24,Jits_Pract_8,2,5,80,127,1862578720
42,12,24,Jits_Pract_8,3,5,63,98,1862589064
42,12,24,Jits_Pract_8,0,1,48,30,1863261584
42,12,24,Jits_Pract_8,1,5,56,103,1863298548
42,12,24,Jits_Pract_8,2,5,80,127,1863318860
42,12,24,Jits_Pract_8,3,5,63,98,1863398864
42,12,24,Jits_Pract_8,0,1,48,28,1864041940
42,12,24,Jits_Pract_8,1,5,80,127,1864088944
42,12,24,Jits_Pract_8,2,5,56,103,1864189252
42,12,24,Jits_Pract_8,3,5,63,98,1864198924
42,12,24,Jits_Pract_8,0,1,48,38,1864817880
42,12,24,Jits_Pract_8,1,5,63,98,1864858960
42,12,24,Jits_Pract_8,2,5,80,127,1864919484
42,12,24,Jits_Pract_8,3,5,56,103,1864928708
42,12,24,Jits_Pract_8,0,1,48,42,1865591932
42,12,24,Jits_Pract_8,1,5,56,103,1865658936
42,12,24,Jits_Pract_8,2,5,63,98,1865729272
42,12,24,Jits_Pract_8,3,5,80,127,1865732792
42,12,24,Jits_Pract_8,0,9999,9999,9999,1854926916
42,12,24,Jits_Pract_8,1,9999,9999,9999,1855726704
42,12,24,Jits_Pract_8,2,9999,9999,9999,1856526420
42,12,24,Jits_Pract_8,3,9999,9999,9999,1857326188
42,12,24,Jits_Pract_8,4,9999,9999,9999,1858126952
42,12,24,Jits_Pract_8,5,9999,9999,9999,1858926708
42,12,24,Jits_Pract_8,6,9999,9999,9999,1859726460
42,12,24,Jits_Pract_8,7,9999,9999,9999,1860526144
42,12,24,Jits_Pract_8,8,9999,9999,9999,1861326952
42,12,24,Jits_Pract_8,9,9999,9999,9999,1862126696
42,12,24,Jits_Pract_8,10,9999,9999,9999,1862926456
42,12,24,Jits_Pract_8,11,9999,9999,9999,1863726140
42,12,24,Jits_Pract_8,12,9999,9999,9999,1864526900
42,12,24,Jits_Pract_8,13,9999,9999,9999,1865326652
42,12,24,Jits_Pract_8,14,9999,9999,9999,1866126400
42,13,25,Jits_Pract_5,0,5,56,103,1874801968
42,13,25,Jits_Pract_5,1,5,63,98,1874805060
42,13,25,Jits_Pract_5,2,5,80,127,1874808408
42,13,25,Jits_Pract_5,0,5,56,103,1875301692
42,13,25,Jits_Pract_5,1,5,63,98,1875304860
42,13,25,Jits_Pract_5,2,5,80,127,1875308132
42,13,25,Jits_Pract_5,0,5,56,103,1875801584
42,13,25,Jits_Pract_5,1,5,80,127,1875811628
42,13,25,Jits_Pract_5,2,5,63,98,1875832312
42,13,25,Jits_Pract_5,0,5,63,98,1876251932
42,13,25,Jits_Pract_5,1,5,80,127,1876281756
42,13,25,Jits_Pract_5,2,5,56,103,1876291876
42,13,25,Jits_Pract_5,0,1,48,54,1876759400
42,13,25,Jits_Pract_5,1,5,80,127,1876812284
42,13,25,Jits_Pract_5,2,5,56,103,1876822408
42,13,25,Jits_Pract_5,3,5,63,98,1876852660
42,13,25,Jits_Pract_5,0,1,48,59,1877268768
42,13,25,Jits_Pract_5,1,5,63,98,1877301620
42,13,25,Jits_Pract_5,2,5,56,103,1877332516
42,13,25,Jits_Pract_5,3,5,80,127,1877341516
42,13,25,Jits_Pract_5,0,5,56,103,1877752320
42,13,25,Jits_Pract_5,1,1,48,61,1877767424
42,13,25,Jits_Pract_5,2,5,63,98,1877802440
42,13,25,Jits_Pract_5,3,5,80,127,1877821704
42,13,25,Jits_Pract_5,0,1,48,60,1878239860
42,13,25,Jits_Pract_5,1,5,80,127,1878251868
42,13,25,Jits_Pract_5,2,5,63,98,1878301924
42,13,25,Jits_Pract_5,3,5,56,103,1878341920
42,13,25,Jits_Pract_5,0,1,48,61,1878747632
42,13,25,Jits_Pract_5,1,5,56,103,1878751784
42,13,25,Jits_Pract_5,2,5,63,98,1878782508
42,13,25,Jits_Pract_5,3,5,80,127,1878851876
42,13,25,Jits_Pract_5,0,1,48,54,1879223580
42,13,25,Jits_Pract_5,1,5,56,103,1879252300
42,13,25,Jits_Pract_5,2,5,80,127,1879311720
42,13,25,Jits_Pract_5,3,5,63,98,1879341456
42,13,25,Jits_Pract_5,0,1,48,61,1879708276
42,13,25,Jits_Pract_5,1,5,56,103,1879762480
42,13,25,Jits_Pract_5,2,5,63,98,1879771408
42,13,25,Jits_Pract_5,3,5,80,127,1879811404
42,13,25,Jits_Pract_5,0,1,48,57,1880209856
42,13,25,Jits_Pract_5,1,5,63,98,1880251832
42,13,25,Jits_Pract_5,2,5,80,127,1880331540
42,13,25,Jits_Pract_5,3,5,56,103,1880341736
42,13,25,Jits_Pract_5,0,1,48,62,1880703472
42,13,25,Jits_Pract_5,1,5,63,98,1880801780
42,13,25,Jits_Pract_5,2,5,56,103,1880841572
42,13,25,Jits_Pract_5,3,5,80,127,1880844636
42,13,25,Jits_Pract_5,0,1,48,67,1881207424
42,13,25,Jits_Pract_5,1,5,56,103,1881261552
42,13,25,Jits_Pract_5,2,5,63,98,1881271672
42,13,25,Jits_Pract_5,3,5,80,127,1881311596
42,13,25,Jits_Pract_5,0,1,48,61,1881698496
42,13,25,Jits_Pract_5,1,5,56,103,1881752024
42,13,25,Jits_Pract_5,2,5,63,98,1881754868
42,13,25,Jits_Pract_5,3,5,80,127,1881772484
42,13,25,Jits_Pract_5,0,9999,9999,9999,1875049552
42,13,25,Jits_Pract_5,1,9999,9999,9999,1875549276
42,13,25,Jits_Pract_5,2,9999,9999,9999,1876049996
42,13,25,Jits_Pract_5,3,9999,9999,9999,1876549712
42,13,25,Jits_Pract_5,4,9999,9999,9999,1877049424
42,13,25,Jits_Pract_5,5,9999,9999,9999,1877549120
42,13,25,Jits_Pract_5,6,9999,9999,9999,1878049856
42,13,25,Jits_Pract_5,7,9999,9999,9999,1878549564
42,13,25,Jits_Pract_5,8,9999,9999,9999,1879049328
42,13,25,Jits_Pract_5,9,9999,9999,9999,1879550068
42,13,25,Jits_Pract_5,10,9999,9999,9999,1880049760
42,13,25,Jits_Pract_5,11,9999,9999,9999,1880549452
42,13,25,Jits_Pract_5,12,9999,9999,9999,1881049140
42,13,25,Jits_Pract_5,13,9999,9999,9999,1881549880
42,13,25,Jits_Pract_5,14,9999,9999,9999,1882049632
42,14,15,Jits_Phase_8,0,5,56,103,1911335376
42,14,15,Jits_Phase_8,1,5,63,98,1911338396
42,14,15,Jits_Phase_8,2,5,80,127,1911341448
42,14,15,Jits_Phase_8,0,5,56,103,1912134964
42,14,15,Jits_Phase_8,1,5,63,98,1912138368
42,14,15,Jits_Phase_8,2,5,80,127,1912141412
42,14,15,Jits_Phase_8,0,5,80,127,1912875340
42,14,15,Jits_Phase_8,1,1,48,62,1912932884
42,14,15,Jits_Phase_8,2,5,63,98,1912964448
42,14,15,Jits_Phase_8,3,5,56,103,1912974640
42,14,15,Jits_Phase_8,0,5,56,103,1913694696
42,14,15,Jits_Phase_8,1,5,63,98,1913704740
42,14,15,Jits_Phase_8,2,1,48,61,1913779848
42,14,15,Jits_Phase_8,3,5,80,127,1913794868
42,14,15,Jits_Phase_8,0,5,63,98,1914464576
42,14,15,Jits_Phase_8,1,5,80,127,1914495448
42,14,15,Jits_Phase_8,2,5,56,103,1914524900
42,14,15,Jits_Phase_8,3,1,48,58,1914542264
42,14,15,Jits_Phase_8,0,5,56,103,1915265376
42,14,15,Jits_Phase_8,1,1,48,55,1915270136
42,14,15,Jits_Phase_8,2,5,80,127,1915364572
42,14,15,Jits_Phase_8,3,5,63,98,1915414836
42,14,15,Jits_Phase_8,0,1,48,50,1916033732
42,14,15,Jits_Phase_8,1,5,56,103,1916065296
42,14,15,Jits_Phase_8,2,5,80,127,1916115424
42,14,15,Jits_Phase_8,3,5,63,98,1916155496
42,14,15,Jits_Phase_8,0,1,48,36,1916852524
42,14,15,Jits_Phase_8,1,5,80,127,1916894576
42,14,15,Jits_Phase_8,2,5,63,98,1916925224
42,14,15,Jits_Phase_8,3,5,56,103,1916994812
42,14,15,Jits_Phase_8,0,1,48,50,1917667108
42,14,15,Jits_Phase_8,1,5,63,98,1917725348
42,14,15,Jits_Phase_8,2,5,56,103,1917754804
42,14,15,Jits_Phase_8,3,5,80,127,1917815276
42,14,15,Jits_Phase_8,0,5,56,103,1918465252
42,14,15,Jits_Phase_8,1,1,48,25,1918468020
42,14,15,Jits_Phase_8,2,5,80,127,1918469884
42,14,15,Jits_Phase_8,3,5,63,98,1918585284
42,14,15,Jits_Phase_8,0,1,48,46,1919238164
42,14,15,Jits_Phase_8,1,5,56,103,1919345264
42,14,15,Jits_Phase_8,2,5,80,127,1919385200
42,14,15,Jits_Phase_8,3,5,63,98,1919395248
42,14,15,Jits_Phase_8,0,1,48,54,1920065800
42,14,15,Jits_Phase_8,1,5,56,103,1920104884
42,14,15,Jits_Phase_8,2,5,80,127,1920125268
42,14,15,Jits_Phase_8,3,5,63,98,1920205120
42,14,15,Jits_Phase_8,0,1,48,59,1920847076
42,14,15,Jits_Phase_8,1,5,80,127,1920895348
42,14,15,Jits_Phase_8,2,5,56,103,1920994612
42,14,15,Jits_Phase_8,3,5,63,98,1921005104
42,14,15,Jits_Phase_8,0,1,48,60,1921641060
42,14,15,Jits_Phase_8,1,5,63,98,1921665368
42,14,15,Jits_Phase_8,2,5,80,127,1921724640
42,14,15,Jits_Phase_8,3,5,56,103,1921735208
42,14,15,Jits_Phase_8,0,1,48,57,1922365948
42,14,15,Jits_Phase_8,1,5,56,103,1922465256
42,14,15,Jits_Phase_8,2,5,63,98,1922534632
42,14,15,Jits_Phase_8,3,5,80,127,1922538224
42,14,15,Jits_Phase_8,0,1,48,62,1923142480
42,14,15,Jits_Phase_8,1,5,63,98,1923294524
42,14,15,Jits_Phase_8,2,5,56,103,1923344800
42,14,15,Jits_Phase_8,3,5,80,127,1923347940
42,14,15,Jits_Phase_8,0,1,48,51,1923891784
42,14,15,Jits_Phase_8,1,5,56,103,1924055456
42,14,15,Jits_Phase_8,2,5,80,127,1924058520
42,14,15,Jits_Phase_8,3,5,63,98,1924144392
42,14,15,Jits_Phase_8,0,1,48,59,1924626948
42,14,15,Jits_Phase_8,1,5,63,98,1924894984
42,14,15,Jits_Phase_8,2,5,56,103,1924985220
42,14,15,Jits_Phase_8,3,5,80,127,1925015116
42,14,15,Jits_Phase_8,0,1,48,57,1925379656
42,14,15,Jits_Phase_8,1,5,56,103,1925684560
42,14,15,Jits_Phase_8,2,5,63,98,1925785060
42,14,15,Jits_Phase_8,3,5,80,127,1925814584
42,14,15,Jits_Phase_8,0,1,48,60,1926151696
42,14,15,Jits_Phase_8,1,5,63,98,1926504952
42,14,15,Jits_Phase_8,2,5,56,103,1926515148
42,14,15,Jits_Phase_8,3,5,80,127,1926605128
42,14,15,Jits_Phase_8,4,1,48,41,1926886424
42,14,15,Jits_Phase_8,0,5,63,98,1927324992
42,14,15,Jits_Phase_8,1,5,56,103,1927405012
42,14,15,Jits_Phase_8,2,5,80,127,1927408004
42,14,15,Jits_Phase_8,3,1,48,51,1927676116
42,14,15,Jits_Phase_8,0,5,80,127,1928085112
42,14,15,Jits_Phase_8,1,5,63,98,1928105420
42,14,15,Jits_Phase_8,2,5,56,103,1928164912
42,14,15,Jits_Phase_8,3,1,48,58,1928394824
42,14,15,Jits_Phase_8,0,5,56,103,1928924520
42,14,15,Jits_Phase_8,1,5,63,98,1928944896
42,14,15,Jits_Phase_8,2,5,80,127,1928948192
42,14,15,Jits_Phase_8,3,1,48,49,1929116444
42,14,15,Jits_Phase_8,0,5,63,98,1929665164
42,14,15,Jits_Phase_8,1,5,80,127,1929745036
42,14,15,Jits_Phase_8,2,5,56,103,1929755084
42,14,15,Jits_Phase_8,3,1,48,64,1929776636
42,14,15,Jits_Phase_8,0,1,48,72,1930469080
42,14,15,Jits_Phase_8,1,5,63,98,1930484996
42,14,15,Jits_Phase_8,2,5,56,103,1930504708
42,14,15,Jits_Phase_8,3,5,80,127,1930554836
42,14,15,Jits_Phase_8,0,1,48,65,1931210920
42,14,15,Jits_Phase_8,1,5,80,127,1931285048
42,14,15,Jits_Phase_8,2,5,63,98,1931324976
42,14,15,Jits_Phase_8,3,5,56,103,1931345312
42,14,15,Jits_Phase_8,0,1,48,61,1931979808
42,14,15,Jits_Phase_8,1,5,56,103,1932124604
42,14,15,Jits_Phase_8,2,5,63,98,1932134948
42,14,15,Jits_Phase_8,3,5,80,127,1932155108
42,14,15,Jits_Phase_8,0,1,48,56,1932737692
42,14,15,Jits_Phase_8,1,5,56,103,1932855104
42,14,15,Jits_Phase_8,2,5,63,98,1932944968
42,14,15,Jits_Phase_8,3,5,80,127,1933005136
42,14,15,Jits_Phase_8,0,1,48,46,1933473476
42,14,15,Jits_Phase_8,1,5,80,127,1933685088
42,14,15,Jits_Phase_8,2,5,56,103,1933695284
42,14,15,Jits_Phase_8,3,5,63,98,1933765112
42,14,15,Jits_Phase_8,0,1,48,53,1934197928
42,14,15,Jits_Phase_8,1,5,63,98,1934514664
42,14,15,Jits_Phase_8,2,5,80,127,1934604872
42,14,15,Jits_Phase_8,3,5,56,103,1934615068
42,14,15,Jits_Phase_8,0,1,48,52,1934994628
42,14,15,Jits_Phase_8,1,5,63,98,1935244752
42,14,15,Jits_Phase_8,2,5,80,127,1935294804
42,14,15,Jits_Phase_8,3,5,56,103,1935355344
42,14,15,Jits_Phase_8,0,1,48,69,1936021640
42,14,15,Jits_Phase_8,1,5,56,103,1936064976
42,14,15,Jits_Phase_8,2,5,80,127,1936114940
42,14,15,Jits_Phase_8,3,5,63,98,1936134648
42,14,15,Jits_Phase_8,0,1,48,65,1936726028
42,14,15,Jits_Phase_8,1,5,56,103,1936834896
42,14,15,Jits_Phase_8,2,5,80,127,1936895288
42,14,15,Jits_Phase_8,3,5,63,98,1936964920
42,14,15,Jits_Phase_8,0,1,48,63,1937398308
42,14,15,Jits_Phase_8,1,5,56,103,1937634876
42,14,15,Jits_Phase_8,2,5,80,127,1937665304
42,14,15,Jits_Phase_8,3,5,63,98,1937695276
42,14,15,Jits_Phase_8,4,1,48,62,1938073312
42,14,15,Jits_Phase_8,0,5,56,103,1938475368
42,14,15,Jits_Phase_8,1,5,80,127,1938494932
42,14,15,Jits_Phase_8,2,5,63,98,1938555120
42,14,15,Jits_Phase_8,0,1,48,59,1939317052
42,14,15,Jits_Phase_8,1,5,80,127,1939354916
42,14,15,Jits_Phase_8,2,5,56,103,1939365188
42,14,15,Jits_Phase_8,3,5,63,98,1939374636
42,14,15,Jits_Phase_8,0,1,48,56,1940078904
42,14,15,Jits_Phase_8,1,5,56,103,1940114748
42,14,15,Jits_Phase_8,2,5,80,127,1940154840
42,14,15,Jits_Phase_8,3,5,63,98,1940184648
42,14,15,Jits_Phase_8,0,1,48,66,1940857920
42,14,15,Jits_Phase_8,1,5,56,103,1940884844
42,14,15,Jits_Phase_8,2,5,63,98,1940914596
42,14,15,Jits_Phase_8,3,5,80,127,1940954592
42,14,15,Jits_Phase_8,0,5,80,127,1941634704
42,14,15,Jits_Phase_8,1,1,48,62,1941661564
42,14,15,Jits_Phase_8,2,5,63,98,1941684748
42,14,15,Jits_Phase_8,3,5,56,103,1941705060
42,14,15,Jits_Phase_8,0,1,48,68,1942398024
42,14,15,Jits_Phase_8,1,5,56,103,1942464808
42,14,15,Jits_Phase_8,2,5,80,127,1942534552
42,14,15,Jits_Phase_8,3,5,63,98,1942595112
42,14,15,Jits_Phase_8,0,1,48,58,1943145644
42,14,15,Jits_Phase_8,1,5,80,127,1943264852
42,14,15,Jits_Phase_8,2,5,63,98,1943354692
42,14,15,Jits_Phase_8,3,5,56,103,1943375176
42,14,15,Jits_Phase_8,0,1,48,61,1943906964
42,14,15,Jits_Phase_8,1,5,63,98,1944084768
42,14,15,Jits_Phase_8,2,5,56,103,1944105452
42,14,15,Jits_Phase_8,3,5,80,127,1944145340
42,14,15,Jits_Phase_8,0,1,48,56,1944667388
42,14,15,Jits_Phase_8,1,5,80,127,1944844668
42,14,15,Jits_Phase_8,2,5,63,98,1944865352
42,14,15,Jits_Phase_8,3,5,56,103,1944944948
42,14,15,Jits_Phase_8,0,1,48,57,1945464824
42,14,15,Jits_Phase_8,1,5,63,98,1945635060
42,14,15,Jits_Phase_8,2,5,56,103,1945744772
42,14,15,Jits_Phase_8,3,5,80,127,1945747760
42,14,15,Jits_Phase_8,0,1,48,57,1946213780
42,14,15,Jits_Phase_8,1,5,63,98,1946455512
42,14,15,Jits_Phase_8,2,5,56,103,1946464808
42,14,15,Jits_Phase_8,3,5,80,127,1946467724
42,14,15,Jits_Phase_8,0,1,48,63,1946958072
42,14,15,Jits_Phase_8,1,5,56,103,1947234648
42,14,15,Jits_Phase_8,2,5,80,127,1947354604
42,14,15,Jits_Phase_8,3,5,63,98,1947394616
42,14,15,Jits_Phase_8,4,1,48,66,1947705872
42,14,15,Jits_Phase_8,0,5,56,103,1948054836
42,14,15,Jits_Phase_8,1,5,80,127,1948134856
42,14,15,Jits_Phase_8,2,5,63,98,1948155536
42,14,15,Jits_Phase_8,0,1,48,55,1948656792
42,14,15,Jits_Phase_8,1,5,56,103,1948854552
42,14,15,Jits_Phase_8,2,5,63,98,1948965284
42,14,15,Jits_Phase_8,3,5,80,127,1948968648
42,14,15,Jits_Phase_8,0,1,48,45,1949334948
42,14,15,Jits_Phase_8,1,5,56,103,1949695508
42,14,15,Jits_Phase_8,2,5,80,127,1949725036
42,14,15,Jits_Phase_8,3,5,63,98,1949744520
42,14,15,Jits_Phase_8,0,1,48,67,1950420848
42,14,15,Jits_Phase_8,1,5,63,98,1950484868
42,14,15,Jits_Phase_8,2,5,56,103,1950495140
42,14,15,Jits_Phase_8,3,5,80,127,1950505336
42,14,15,Jits_Phase_8,0,1,48,68,1951110692
42,14,15,Jits_Phase_8,1,5,80,127,1951275760
42,14,15,Jits_Phase_8,2,5,56,103,1951324424
42,14,15,Jits_Phase_8,3,5,63,98,1951364508
42,14,15,Jits_Phase_8,0,1,48,61,1951851332
42,14,15,Jits_Phase_8,1,5,80,127,1952094504
42,14,15,Jits_Phase_8,2,5,63,98,1952115112
42,14,15,Jits_Phase_8,3,5,56,103,1952165460
42,14,15,Jits_Phase_8,0,1,48,61,1952567608
42,14,15,Jits_Phase_8,1,5,80,127,1952904672
42,14,15,Jits_Phase_8,2,5,56,103,1952935396
42,14,15,Jits_Phase_8,3,5,63,98,1953004928
42,14,15,Jits_Phase_8,0,1,48,67,1953345328
42,14,15,Jits_Phase_8,1,5,56,103,1953754408
42,14,15,Jits_Phase_8,2,5,80,127,1953764680
42,14,15,Jits_Phase_8,3,5,63,98,1953804616
42,14,15,Jits_Phase_8,4,1,48,58,1954104492
42,14,15,Jits_Phase_8,0,5,56,103,1954465284
42,14,15,Jits_Phase_8,1,5,63,98,1954484700
42,14,15,Jits_Phase_8,2,5,80,127,1954555352
42,14,15,Jits_Phase_8,0,1,48,52,1955210880
42,14,15,Jits_Phase_8,1,5,63,98,1955285388
42,14,15,Jits_Phase_8,2,5,80,127,1955344868
42,14,15,Jits_Phase_8,3,5,56,103,1955365548
42,14,15,Jits_Phase_8,0,1,48,51,1956028100
42,14,15,Jits_Phase_8,1,5,80,127,1956074956
42,14,15,Jits_Phase_8,2,5,56,103,1956104632
42,14,15,Jits_Phase_8,3,5,63,98,1956135192
42,14,15,Jits_Phase_8,0,1,48,48,1956843224
42,14,15,Jits_Phase_8,1,5,56,103,1956874564
42,14,15,Jits_Phase_8,2,5,63,98,1956935204
42,14,15,Jits_Phase_8,3,5,80,127,1956994528
42,14,15,Jits_Phase_8,0,1,48,54,1957654668
42,14,15,Jits_Phase_8,1,5,80,127,1957694924
42,14,15,Jits_Phase_8,2,5,56,103,1957715184
42,14,15,Jits_Phase_8,3,5,63,98,1957785144
42,14,15,Jits_Phase_8,0,1,48,57,1958477296
42,14,15,Jits_Phase_8,1,5,80,127,1958494708
42,14,15,Jits_Phase_8,2,5,63,98,1958515316
42,14,15,Jits_Phase_8,3,5,56,103,1958544696
42,14,15,Jits_Phase_8,0,1,48,69,1959243948
42,14,15,Jits_Phase_8,1,5,80,127,1959285244
42,14,15,Jits_Phase_8,2,5,63,98,1959304512
42,14,15,Jits_Phase_8,3,5,56,103,1959365184
42,14,15,Jits_Phase_8,0,1,48,59,1960031552
42,14,15,Jits_Phase_8,1,5,80,127,1960084708
42,14,15,Jits_Phase_8,2,5,56,103,1960185092
42,14,15,Jits_Phase_8,3,5,63,98,1960215064
42,14,15,Jits_Phase_8,0,1,48,64,1960839340
42,14,15,Jits_Phase_8,1,5,63,98,1960875404
42,14,15,Jits_Phase_8,2,5,80,127,1960924412
42,14,15,Jits_Phase_8,3,5,56,103,1960945152
42,14,15,Jits_Phase_8,0,1,48,62,1961667192
42,14,15,Jits_Phase_8,1,5,80,127,1961715316
42,14,15,Jits_Phase_8,2,5,56,103,1961744772
42,14,15,Jits_Phase_8,3,5,63,98,1961747836
42,14,15,Jits_Phase_8,0,1,48,64,1962462292
42,14,15,Jits_Phase_8,1,5,63,98,1962565280
42,14,15,Jits_Phase_8,2,5,56,103,1962605068
42,14,15,Jits_Phase_8,3,5,80,127,1962625456
42,14,15,Jits_Phase_8,0,1,48,63,1963276304
42,14,15,Jits_Phase_8,1,5,80,127,1963324804
42,14,15,Jits_Phase_8,2,5,63,98,1963404612
42,14,15,Jits_Phase_8,3,5,56,103,1963444476
42,14,15,Jits_Phase_8,0,1,48,69,1964089016
42,14,15,Jits_Phase_8,1,5,63,98,1964145192
42,14,15,Jits_Phase_8,2,5,80,127,1964225120
42,14,15,Jits_Phase_8,3,5,56,103,1964245432
42,14,15,Jits_Phase_8,0,1,48,68,1964914288
42,14,15,Jits_Phase_8,1,5,56,103,1964984740
42,14,15,Jits_Phase_8,2,5,63,98,1964995012
42,14,15,Jits_Phase_8,3,5,80,127,1965034860
42,14,15,Jits_Phase_8,0,5,56,103,1965704404
42,14,15,Jits_Phase_8,1,5,80,127,1965707624
42,14,15,Jits_Phase_8,2,1,48,57,1965718164
42,14,15,Jits_Phase_8,3,5,63,98,1965844936
42,14,15,Jits_Phase_8,0,1,48,55,1966481508
42,14,15,Jits_Phase_8,1,5,56,103,1966494952
42,14,15,Jits_Phase_8,2,5,63,98,1966585148
42,14,15,Jits_Phase_8,3,5,80,127,1966655048
42,14,15,Jits_Phase_8,0,1,48,50,1967309960
42,14,15,Jits_Phase_8,1,5,63,98,1967374948
42,14,15,Jits_Phase_8,2,5,80,127,1967378088
42,14,15,Jits_Phase_8,3,5,56,103,1967435196
42,14,15,Jits_Phase_8,0,1,48,64,1968133328
42,14,15,Jits_Phase_8,1,5,80,127,1968215260
42,14,15,Jits_Phase_8,2,5,56,103,1968235176
42,14,15,Jits_Phase_8,3,5,63,98,1968245076
42,14,15,Jits_Phase_8,0,1,48,70,1968887676
42,14,15,Jits_Phase_8,1,5,56,103,1968925020
42,14,15,Jits_Phase_8,2,5,63,98,1968935216
42,14,15,Jits_Phase_8,3,5,80,127,1969005056
42,14,15,Jits_Phase_8,0,1,48,54,1969658660
42,14,15,Jits_Phase_8,1,5,80,127,1969725000
42,14,15,Jits_Phase_8,2,5,56,103,1969774912
42,14,15,Jits_Phase_8,3,5,63,98,1969825112
42,14,15,Jits_Phase_8,0,1,48,74,1970416168
42,14,15,Jits_Phase_8,1,5,56,103,1970605308
42,14,15,Jits_Phase_8,2,5,63,98,1970614608
42,14,15,Jits_Phase_8,3,5,80,127,1970654472
42,14,15,Jits_Phase_8,0,1,48,79,1971223208
42,14,15,Jits_Phase_8,1,5,56,103,1971344692
42,14,15,Jits_Phase_8,2,5,63,98,1971384852
42,14,15,Jits_Phase_8,3,5,80,127,1971435052
42,14,15,Jits_Phase_8,0,1,48,75,1971986092
42,14,15,Jits_Phase_8,1,5,80,127,1972104880
42,14,15,Jits_Phase_8,2,5,56,103,1972154860
42,14,15,Jits_Phase_8,3,5,63,98,1972175172
42,14,15,Jits_Phase_8,0,1,48,76,1972718112
42,14,15,Jits_Phase_8,1,5,80,127,1972914452
42,14,15,Jits_Phase_8,2,5,63,98,1972974920
42,14,15,Jits_Phase_8,3,5,56,103,1973054936
42,14,15,Jits_Phase_8,0,1,48,56,1973560776
42,14,15,Jits_Phase_8,1,5,80,127,1973694928
42,14,15,Jits_Phase_8,2,5,56,103,1973734940
42,14,15,Jits_Phase_8,3,5,63,98,1973755176
42,14,15,Jits_Phase_8,0,1,48,70,1974322924
42,14,15,Jits_Phase_8,1,5,56,103,1974545024
42,14,15,Jits_Phase_8,2,5,80,127,1974555000
42,14,15,Jits_Phase_8,3,5,63,98,1974594960
42,14,15,Jits_Phase_8,0,1,48,72,1975160380
42,14,15,Jits_Phase_8,1,5,56,103,1975415160
42,14,15,Jits_Phase_8,2,5,63,98,1975455024
42,14,15,Jits_Phase_8,3,5,80,127,1975458460
42,14,15,Jits_Phase_8,0,1,48,70,1975985772
42,14,15,Jits_Phase_8,1,5,63,98,1976084828
42,14,15,Jits_Phase_8,2,5,80,127,1976124992
42,14,15,Jits_Phase_8,3,5,56,103,1976194476
42,14,15,Jits_Phase_8,0,1,48,64,1976738028
42,14,15,Jits_Phase_8,1,5,63,98,1976854920
42,14,15,Jits_Phase_8,2,5,56,103,1976934744
42,14,15,Jits_Phase_8,3,5,80,127,1976995132
42,14,15,Jits_Phase_8,0,1,48,76,1977469896
42,14,15,Jits_Phase_8,1,5,80,127,1977665040
42,14,15,Jits_Phase_8,2,5,63,98,1977715020
42,14,15,Jits_Phase_8,3,5,56,103,1977744920
42,14,15,Jits_Phase_8,0,1,48,65,1978281788
42,14,15,Jits_Phase_8,1,5,56,103,1978455356
42,14,15,Jits_Phase_8,2,5,63,98,1978504584
42,14,15,Jits_Phase_8,3,5,80,127,1978514780
42,14,15,Jits_Phase_8,0,1,48,51,1979056528
42,14,15,Jits_Phase_8,1,5,56,103,1979265520
42,14,15,Jits_Phase_8,2,5,63,98,1979374912
42,14,15,Jits_Phase_8,3,5,80,127,1979394400
42,14,15,Jits_Phase_8,0,1,48,55,1979867748
42,14,15,Jits_Phase_8,1,5,63,98,1980065284
42,14,15,Jits_Phase_8,2,5,80,127,1980115188
42,14,15,Jits_Phase_8,3,5,56,103,1980205540
42,14,15,Jits_Phase_8,0,1,48,56,1980657696
42,14,15,Jits_Phase_8,1,5,63,98,1980854776
42,14,15,Jits_Phase_8,2,5,80,127,1980885424
42,14,15,Jits_Phase_8,3,5,56,103,1980974584
42,14,15,Jits_Phase_8,0,1,48,62,1981416840
42,14,15,Jits_Phase_8,1,5,63,98,1981655576
42,14,15,Jits_Phase_8,2,5,56,103,1981664504
42,14,15,Jits_Phase_8,3,5,80,127,1981764996
42,14,15,Jits_Phase_8,0,1,48,57,1982155236
42,14,15,Jits_Phase_8,1,5,63,98,1982554560
42,14,15,Jits_Phase_8,2,5,80,127,1982585208
42,14,15,Jits_Phase_8,3,5,56,103,1982614956
42,14,15,Jits_Phase_8,0,1,48,51,1982943408
42,14,15,Jits_Phase_8,1,5,80,127,1983374692
42,14,15,Jits_Phase_8,2,5,63,98,1983384960
42,14,15,Jits_Phase_8,3,5,56,103,1983414708
42,14,15,Jits_Phase_8,0,1,48,53,1983755280
42,14,15,Jits_Phase_8,1,5,80,127,1984075108
42,14,15,Jits_Phase_8,2,5,63,98,1984094444
42,14,15,Jits_Phase_8,3,5,56,103,1984144648
42,14,15,Jits_Phase_8,4,1,48,52,1984510504
42,14,15,Jits_Phase_8,0,5,63,98,1984904508
42,14,15,Jits_Phase_8,1,5,80,127,1984964900
42,14,15,Jits_Phase_8,2,5,56,103,1984984684
42,14,15,Jits_Phase_8,3,1,48,59,1985274000
42,14,15,Jits_Phase_8,0,5,63,98,1985665604
42,14,15,Jits_Phase_8,1,5,56,103,1985714540
42,14,15,Jits_Phase_8,2,5,80,127,1985724884
42,14,15,Jits_Phase_8,3,1,48,57,1986011860
42,14,15,Jits_Phase_8,0,5,56,103,1986494808
42,14,15,Jits_Phase_8,1,5,80,127,1986505004
42,14,15,Jits_Phase_8,2,5,63,98,1986605396
42,14,15,Jits_Phase_8,3,1,48,63,1986809900
42,14,15,Jits_Phase_8,0,5,80,127,1987254572
42,14,15,Jits_Phase_8,1,5,63,98,1987264768
42,14,15,Jits_Phase_8,2,5,56,103,1987415604
42,14,15,Jits_Phase_8,3,1,48,56,1987608996
42,14,15,Jits_Phase_8,0,5,63,98,1988064604
42,14,15,Jits_Phase_8,1,5,80,127,1988104544
42,14,15,Jits_Phase_8,2,5,56,103,1988184436
42,14,15,Jits_Phase_8,3,1,48,57,1988398052
42,14,15,Jits_Phase_8,0,5,56,103,1988815584
42,14,15,Jits_Phase_8,1,5,80,127,1988914636
42,14,15,Jits_Phase_8,2,5,63,98,1988934972
42,14,15,Jits_Phase_8,3,1,48,56,1989166200
42,14,15,Jits_Phase_8,0,5,80,127,1989634604
42,14,15,Jits_Phase_8,1,5,56,103,1989644652
42,14,15,Jits_Phase_8,2,5,63,98,1989734732
42,14,15,Jits_Phase_8,3,1,48,57,1989971524
42,14,15,Jits_Phase_8,0,5,56,103,1990435428
42,14,15,Jits_Phase_8,1,5,63,98,1990454620
42,14,15,Jits_Phase_8,2,5,80,127,1990534436
42,14,15,Jits_Phase_8,3,1,48,44,1990801488
42,14,15,Jits_Phase_8,0,5,63,98,1991184636
42,14,15,Jits_Phase_8,1,5,56,103,1991274868
42,14,15,Jits_Phase_8,2,5,80,127,1991277860
42,14,15,Jits_Phase_8,3,1,48,53,1991535716
42,14,15,Jits_Phase_8,0,5,56,103,1992015424
42,14,15,Jits_Phase_8,1,5,80,127,1992074472
42,14,15,Jits_Phase_8,2,5,63,98,1992084892
42,14,15,Jits_Phase_8,3,1,48,57,1992368876
42,14,15,Jits_Phase_8,0,5,80,127,1992865100
42,14,15,Jits_Phase_8,1,5,56,103,1992875516
42,14,15,Jits_Phase_8,2,5,63,98,1992878432
42,14,15,Jits_Phase_8,3,1,48,50,1993126100
42,14,15,Jits_Phase_8,0,5,56,103,1993625300
42,14,15,Jits_Phase_8,1,5,80,127,1993635496
42,14,15,Jits_Phase_8,2,5,63,98,1993654536
42,14,15,Jits_Phase_8,3,1,48,49,1993889904
42,14,15,Jits_Phase_8,0,5,63,98,1994395180
42,14,15,Jits_Phase_8,1,5,80,127,1994455500
42,14,15,Jits_Phase_8,2,5,56,103,1994504504
42,14,15,Jits_Phase_8,3,1,48,57,1994779268
42,14,15,Jits_Phase_8,0,5,63,98,1995274508
42,14,15,Jits_Phase_8,1,5,56,103,1995284856
42,14,15,Jits_Phase_8,2,5,80,127,1995335156
42,14,15,Jits_Phase_8,3,1,48,57,1995648728
42,14,15,Jits_Phase_8,0,5,63,98,1995975152
42,14,15,Jits_Phase_8,1,5,80,127,1995994636
42,14,15,Jits_Phase_8,2,5,56,103,1996004760
42,14,15,Jits_Phase_8,3,1,48,70,1996446912
42,14,15,Jits_Phase_8,0,5,63,98,1996774752
42,14,15,Jits_Phase_8,1,5,80,127,1996778264
42,14,15,Jits_Phase_8,2,5,56,103,1996814692
42,14,15,Jits_Phase_8,3,1,48,75,1997196616
42,14,15,Jits_Phase_8,0,5,63,98,1997645320
42,14,15,Jits_Phase_8,1,5,80,127,1997675144
42,14,15,Jits_Phase_8,2,5,56,103,1997685268
42,14,15,Jits_Phase_8,3,1,48,71,1998000640
42,14,15,Jits_Phase_8,0,5,56,103,1998394636
42,14,15,Jits_Phase_8,1,5,80,127,1998424412
42,14,15,Jits_Phase_8,2,5,63,98,1998455204
42,14,15,Jits_Phase_8,3,1,48,67,1998797696
42,14,15,Jits_Phase_8,0,5,63,98,1999294824
42,14,15,Jits_Phase_8,1,5,56,103,1999334912
42,14,15,Jits_Phase_8,2,5,80,127,1999337828
42,14,15,Jits_Phase_8,3,1,48,70,1999623776
42,14,15,Jits_Phase_8,0,5,80,127,1999995312
42,14,15,Jits_Phase_8,1,5,56,103,2000075036
42,14,15,Jits_Phase_8,2,5,63,98,2000125236
42,14,15,Jits_Phase_8,0,1,48,58,2000464964
42,14,15,Jits_Phase_8,1,5,80,127,2000774500
42,14,15,Jits_Phase_8,2,5,56,103,2000795332
42,14,15,Jits_Phase_8,3,5,63,98,2000885388
42,14,15,Jits_Phase_8,4,1,48,58,2001239296
42,14,15,Jits_Phase_8,0,5,80,127,2001615212
42,14,15,Jits_Phase_8,1,5,63,98,2001655152
42,14,15,Jits_Phase_8,2,5,56,103,2001695016
42,14,15,Jits_Phase_8,3,1,48,60,2002016036
42,14,15,Jits_Phase_8,0,5,63,98,2002425180
42,14,15,Jits_Phase_8,1,5,80,127,2002484524
42,14,15,Jits_Phase_8,2,5,56,103,2002515268
42,14,15,Jits_Phase_8,3,1,48,62,2002814096
42,14,15,Jits_Phase_8,0,5,56,103,2003265036
42,14,15,Jits_Phase_8,1,5,80,127,2003294712
42,14,15,Jits_Phase_8,2,5,63,98,2003384696
42,14,15,Jits_Phase_8,3,1,48,63,2003653552
42,14,15,Jits_Phase_8,0,5,56,103,2004074996
42,14,15,Jits_Phase_8,1,5,80,127,2004184388
42,14,15,Jits_Phase_8,2,5,63,98,2004215032
42,14,15,Jits_Phase_8,3,1,48,51,2004492348
42,14,15,Jits_Phase_8,0,5,56,103,2004924740
42,14,15,Jits_Phase_8,1,5,63,98,2004985356
42,14,15,Jits_Phase_8,2,5,80,127,2005015028
42,14,15,Jits_Phase_8,3,1,48,55,2005264788
42,14,15,Jits_Phase_8,0,5,56,103,2005695072
42,14,15,Jits_Phase_8,1,5,63,98,2005764604
42,14,15,Jits_Phase_8,2,5,80,127,2005784916
42,14,15,Jits_Phase_8,3,1,48,48,2006072188
42,14,15,Jits_Phase_8,0,5,80,127,2006465104
42,14,15,Jits_Phase_8,1,5,63,98,2006485264
42,14,15,Jits_Phase_8,2,5,56,103,2006534492
42,14,15,Jits_Phase_8,3,1,48,51,2006888696
42,14,15,Jits_Phase_8,0,5,63,98,2007285100
42,14,15,Jits_Phase_8,1,5,80,127,2007295296
42,14,15,Jits_Phase_8,2,5,56,103,2007344600
42,14,15,Jits_Phase_8,3,1,48,51,2007721496
42,14,15,Jits_Phase_8,0,5,63,98,2008085004
42,14,15,Jits_Phase_8,1,5,80,127,2008154564
42,14,15,Jits_Phase_8,2,5,56,103,2008175024
42,14,15,Jits_Phase_8,3,1,48,52,2008493772
42,14,15,Jits_Phase_8,0,5,63,98,2008915280
42,14,15,Jits_Phase_8,1,5,80,127,2008918420
42,14,15,Jits_Phase_8,2,5,56,103,2008985032
42,14,15,Jits_Phase_8,3,1,48,53,2009306180
42,14,15,Jits_Phase_8,0,5,80,127,2009665056
42,14,15,Jits_Phase_8,1,5,56,103,2009685292
42,14,15,Jits_Phase_8,2,5,63,98,2009694440
42,14,15,Jits_Phase_8,3,1,48,60,2010052132
42,14,15,Jits_Phase_8,0,5,56,103,2010485048
42,14,15,Jits_Phase_8,1,5,63,98,2010575184
42,14,15,Jits_Phase_8,2,5,80,127,2010578544
42,14,15,Jits_Phase_8,3,1,48,56,2010847260
42,14,15,Jits_Phase_8,0,5,80,127,2011255212
42,14,15,Jits_Phase_8,1,5,56,103,2011265332
42,14,15,Jits_Phase_8,2,5,63,98,2011284968
42,14,15,Jits_Phase_8,3,1,48,57,2011661320
42,14,15,Jits_Phase_8,0,5,63,98,2012054828
42,14,15,Jits_Phase_8,1,5,80,127,2012115292
42,14,15,Jits_Phase_8,2,5,56,103,2012124516
42,14,15,Jits_Phase_8,3,1,48,55,2012429848
42,14,15,Jits_Phase_8,0,5,63,98,2012925232
42,14,15,Jits_Phase_8,1,5,80,127,2012954984
42,14,15,Jits_Phase_8,2,5,56,103,2012994796
42,14,15,Jits_Phase_8,3,1,48,65,2013206464
42,14,15,Jits_Phase_8,0,5,56,103,2013714952
42,14,15,Jits_Phase_8,1,5,80,127,2013725076
42,14,15,Jits_Phase_8,2,5,63,98,2013764964
42,14,15,Jits_Phase_8,3,1,48,54,2013984356
42,14,15,Jits_Phase_8,0,5,80,127,2014474644
42,14,15,Jits_Phase_8,1,5,56,103,2014554616
42,14,15,Jits_Phase_8,2,5,63,98,2014564740
42,14,15,Jits_Phase_8,3,1,48,55,2014788492
42,14,15,Jits_Phase_8,0,5,80,127,2015324936
42,14,15,Jits_Phase_8,1,5,56,103,2015405708
42,14,15,Jits_Phase_8,2,5,63,98,2015414708
42,14,15,Jits_Phase_8,3,1,48,61,2015548768
42,14,15,Jits_Phase_8,0,5,80,127,2016165176
42,14,15,Jits_Phase_8,1,5,56,103,2016215528
42,14,15,Jits_Phase_8,2,5,63,98,2016264756
42,14,15,Jits_Phase_8,3,1,48,55,2016312216
42,14,15,Jits_Phase_8,0,1,48,56,2017045148
42,14,15,Jits_Phase_8,1,5,56,103,2017105128
42,14,15,Jits_Phase_8,2,5,63,98,2017108276
42,14,15,Jits_Phase_8,3,5,80,127,2017154272
42,14,15,Jits_Phase_8,0,1,48,55,2017817776
42,14,15,Jits_Phase_8,1,5,56,103,2017924576
42,14,15,Jits_Phase_8,2,5,63,98,2017955076
42,14,15,Jits_Phase_8,3,5,80,127,2017965348
42,14,15,Jits_Phase_8,0,1,48,50,2018596712
42,14,15,Jits_Phase_8,1,5,63,98,2018634976
42,14,15,Jits_Phase_8,2,5,56,103,2018704644
42,14,15,Jits_Phase_8,3,5,80,127,2018754916
42,14,15,Jits_Phase_8,0,1,48,48,2019411696
42,14,15,Jits_Phase_8,1,5,63,98,2019464776
42,14,15,Jits_Phase_8,2,5,56,103,2019474748
42,14,15,Jits_Phase_8,3,5,80,127,2019477888
42,14,15,Jits_Phase_8,0,1,48,63,2020185968
42,14,15,Jits_Phase_8,1,5,80,127,2020215216
42,14,15,Jits_Phase_8,2,5,56,103,2020274484
42,14,15,Jits_Phase_8,3,5,63,98,2020364752
42,14,15,Jits_Phase_8,0,1,48,48,2020941068
42,14,15,Jits_Phase_8,1,5,80,127,2021014824
42,14,15,Jits_Phase_8,2,5,56,103,2021115280
42,14,15,Jits_Phase_8,3,5,63,98,2021155292
42,14,15,Jits_Phase_8,0,1,48,58,2021785936
42,14,15,Jits_Phase_8,1,5,56,103,2021864856
42,14,15,Jits_Phase_8,2,5,63,98,2021885224
42,14,15,Jits_Phase_8,3,5,80,127,2021925088
42,14,15,Jits_Phase_8,0,1,48,56,2022570104
42,14,15,Jits_Phase_8,1,5,63,98,2022634716
42,14,15,Jits_Phase_8,2,5,56,103,2022655548
42,14,15,Jits_Phase_8,3,5,80,127,2022754532
42,14,15,Jits_Phase_8,0,1,48,59,2023366636
42,14,15,Jits_Phase_8,1,5,63,98,2023425480
42,14,15,Jits_Phase_8,2,5,80,127,2023534956
42,14,15,Jits_Phase_8,3,5,56,103,2023564780
42,14,15,Jits_Phase_8,0,1,48,55,2024169768
42,14,15,Jits_Phase_8,1,5,56,103,2024244648
42,14,15,Jits_Phase_8,2,5,63,98,2024275528
42,14,15,Jits_Phase_8,3,5,80,127,2024324608
42,14,15,Jits_Phase_8,0,5,63,98,2025014668
42,14,15,Jits_Phase_8,1,1,48,56,2025021000
42,14,15,Jits_Phase_8,2,5,56,103,2025045332
42,14,15,Jits_Phase_8,3,5,80,127,2025094636
42,14,15,Jits_Phase_8,0,5,56,103,2025845160
42,14,15,Jits_Phase_8,1,1,48,60,2025849252
42,14,15,Jits_Phase_8,2,5,63,98,2025864568
42,14,15,Jits_Phase_8,3,5,80,127,2025944568
42,14,15,Jits_Phase_8,0,5,63,98,2026615036
42,14,15,Jits_Phase_8,1,1,48,55,2026674228
42,14,15,Jits_Phase_8,2,5,56,103,2026675864
42,14,15,Jits_Phase_8,3,5,80,127,2026705388
42,14,15,Jits_Phase_8,0,1,48,54,2027411900
42,14,15,Jits_Phase_8,1,5,56,103,2027454864
42,14,15,Jits_Phase_8,2,5,80,127,2027515392
42,14,15,Jits_Phase_8,3,5,63,98,2027555400
42,14,15,Jits_Phase_8,0,1,48,55,2028226428
42,14,15,Jits_Phase_8,1,5,63,98,2028235224
42,14,15,Jits_Phase_8,2,5,56,103,2028294492
42,14,15,Jits_Phase_8,3,5,80,127,2028365304
42,14,15,Jits_Phase_8,0,1,48,54,2029025816
42,14,15,Jits_Phase_8,1,5,56,103,2029114700
42,14,15,Jits_Phase_8,2,5,63,98,2029124876
42,14,15,Jits_Phase_8,3,5,80,127,2029128544
42,14,15,Jits_Phase_8,0,1,48,52,2029836032
42,14,15,Jits_Phase_8,1,5,63,98,2029855164
42,14,15,Jits_Phase_8,2,5,56,103,2029914532
42,14,15,Jits_Phase_8,3,5,80,127,2029917600
42,14,15,Jits_Phase_8,0,5,63,98,2030635440
42,14,15,Jits_Phase_8,1,5,80,127,2030665216
42,14,15,Jits_Phase_8,2,1,48,49,2030679348
42,14,15,Jits_Phase_8,3,5,56,103,2030684472
42,14,15,Jits_Phase_8,0,5,56,103,2031364472
42,14,15,Jits_Phase_8,1,5,63,98,2031414600
42,14,15,Jits_Phase_8,2,1,48,64,2031453112
42,14,15,Jits_Phase_8,3,5,80,127,2031494412
42,14,15,Jits_Phase_8,0,5,80,127,2032064912
42,14,15,Jits_Phase_8,1,5,63,98,2032104776
42,14,15,Jits_Phase_8,2,5,56,103,2032125460
42,14,15,Jits_Phase_8,3,1,48,51,2032191376
42,14,15,Jits_Phase_8,0,1,48,56,2032922548
42,14,15,Jits_Phase_8,1,5,56,103,2032935248
42,14,15,Jits_Phase_8,2,5,80,127,2032944548
42,14,15,Jits_Phase_8,3,5,63,98,2032965180
42,14,15,Jits_Phase_8,0,1,48,46,2033700212
42,14,15,Jits_Phase_8,1,5,56,103,2033714480
42,14,15,Jits_Phase_8,2,5,63,98,2033764784
42,14,15,Jits_Phase_8,3,5,80,127,2033794384
42,14,15,Jits_Phase_8,0,1,48,54,2034450372
42,14,15,Jits_Phase_8,1,5,56,103,2034465244
42,14,15,Jits_Phase_8,2,5,63,98,2034475292
42,14,15,Jits_Phase_8,3,5,80,127,2034524544
42,14,15,Jits_Phase_8,0,1,48,51,2035205032
42,14,15,Jits_Phase_8,1,5,56,103,2035254500
42,14,15,Jits_Phase_8,2,5,80,127,2035257944
42,14,15,Jits_Phase_8,3,5,63,98,2035415440
42,14,15,Jits_Phase_8,0,1,48,55,2035954432
42,14,15,Jits_Phase_8,1,5,63,98,2036074716
42,14,15,Jits_Phase_8,2,5,56,103,2036144552
42,14,15,Jits_Phase_8,3,5,80,127,2036184416
42,14,15,Jits_Phase_8,0,1,48,48,2036736724
42,14,15,Jits_Phase_8,1,5,63,98,2036914408
42,14,15,Jits_Phase_8,2,5,56,103,2037004692
42,14,15,Jits_Phase_8,3,5,80,127,2037007608
42,14,15,Jits_Phase_8,0,1,48,46,2037494904
42,14,15,Jits_Phase_8,1,5,56,103,2037694980
42,14,15,Jits_Phase_8,2,5,63,98,2037785116
42,14,15,Jits_Phase_8,3,5,80,127,2037795460
42,14,15,Jits_Phase_8,0,1,48,54,2038253764
42,14,15,Jits_Phase_8,1,5,56,103,2038464852
42,14,15,Jits_Phase_8,2,5,63,98,2038515276
42,14,15,Jits_Phase_8,3,5,80,127,2038544728
42,14,15,Jits_Phase_8,0,1,48,48,2039022108
42,14,15,Jits_Phase_8,1,5,63,98,2039344624
42,14,15,Jits_Phase_8,2,5,80,127,2039354596
42,14,15,Jits_Phase_8,3,5,56,103,2039415280
42,14,15,Jits_Phase_8,0,1,48,47,2039835796
42,14,15,Jits_Phase_8,1,5,63,98,2040065316
42,14,15,Jits_Phase_8,2,5,80,127,2040125136
42,14,15,Jits_Phase_8,3,5,56,103,2040164624
42,14,15,Jits_Phase_8,0,1,48,47,2040611564
42,14,15,Jits_Phase_8,1,5,56,103,2040964524
42,14,15,Jits_Phase_8,2,5,80,127,2040985132
42,14,15,Jits_Phase_8,3,5,63,98,2041005292
42,14,15,Jits_Phase_8,0,1,48,47,2041402188
42,14,15,Jits_Phase_8,1,5,63,98,2041685244
42,14,15,Jits_Phase_8,2,5,56,103,2041704956
42,14,15,Jits_Phase_8,3,5,80,127,2041744892
42,14,15,Jits_Phase_8,0,1,48,51,2042143440
42,14,15,Jits_Phase_8,1,5,63,98,2042495488
42,14,15,Jits_Phase_8,2,5,80,127,2042525168
42,14,15,Jits_Phase_8,3,5,56,103,2042544356
42,14,15,Jits_Phase_8,4,1,48,47,2042896440
42,14,15,Jits_Phase_8,0,5,80,127,2043265476
42,14,15,Jits_Phase_8,1,5,56,103,2043314556
42,14,15,Jits_Phase_8,2,5,63,98,2043375024
42,14,15,Jits_Phase_8,3,1,48,49,2043652652
42,14,15,Jits_Phase_8,0,5,63,98,2044054912
42,14,15,Jits_Phase_8,1,5,56,103,2044174936
42,14,15,Jits_Phase_8,2,5,80,127,2044205360
42,14,15,Jits_Phase_8,3,1,48,52,2044413916
42,14,15,Jits_Phase_8,0,5,80,127,2044894532
42,14,15,Jits_Phase_8,1,5,63,98,2044914992
42,14,15,Jits_Phase_8,2,5,56,103,2044984596
42,14,15,Jits_Phase_8,3,1,48,42,2045152628
42,14,15,Jits_Phase_8,0,5,63,98,2045715052
42,14,15,Jits_Phase_8,1,5,56,103,2045725028
42,14,15,Jits_Phase_8,2,5,80,127,2045804992
42,14,15,Jits_Phase_8,3,1,48,51,2045858672
42,14,15,Jits_Phase_8,0,5,56,103,2046575080
42,14,15,Jits_Phase_8,1,1,48,54,2046576044
42,14,15,Jits_Phase_8,2,5,80,127,2046604896
42,14,15,Jits_Phase_8,3,5,63,98,2046615240
42,14,15,Jits_Phase_8,0,9999,9999,9999,1911732288
42,14,15,Jits_Phase_8,1,9999,9999,9999,1912533052
42,14,15,Jits_Phase_8,2,9999,9999,9999,1913332844
42,14,15,Jits_Phase_8,3,9999,9999,9999,1914132544
42,14,15,Jits_Phase_8,4,9999,9999,9999,1914932312
42,14,15,Jits_Phase_8,5,9999,9999,9999,1915733072
42,14,15,Jits_Phase_8,6,9999,9999,9999,1916532844
42,14,15,Jits_Phase_8,7,9999,9999,9999,1917332604
42,14,15,Jits_Phase_8,8,9999,9999,9999,1918132296
42,14,15,Jits_Phase_8,9,9999,9999,9999,1918933088
42,14,15,Jits_Phase_8,10,9999,9999,9999,1919732792
42,14,15,Jits_Phase_8,11,9999,9999,9999,1920532552
42,14,15,Jits_Phase_8,12,9999,9999,9999,1921332312
42,14,15,Jits_Phase_8,13,9999,9999,9999,1922133064
42,14,15,Jits_Phase_8,14,9999,9999,9999,1922932808
42,14,15,Jits_Phase_8,15,9999,9999,9999,1923732556
42,14,15,Jits_Phase_8,16,9999,9999,9999,1924532300
42,14,15,Jits_Phase_8,17,9999,9999,9999,1925333108
42,14,15,Jits_Phase_8,18,9999,9999,9999,1926132800
42,14,15,Jits_Phase_8,19,9999,9999,9999,1926932556
42,14,15,Jits_Phase_8,20,9999,9999,9999,1927732288
42,14,15,Jits_Phase_8,21,9999,9999,9999,1928533100
42,14,15,Jits_Phase_8,22,9999,9999,9999,1929332860
42,14,15,Jits_Phase_8,23,9999,9999,9999,1930132560
42,14,15,Jits_Phase_8,24,9999,9999,9999,1930932316
42,14,15,Jits_Phase_8,25,9999,9999,9999,1931733120
42,14,15,Jits_Phase_8,26,9999,9999,9999,1932532804
42,14,15,Jits_Phase_8,27,9999,9999,9999,1933332564
42,14,15,Jits_Phase_8,28,9999,9999,9999,1934132324
42,14,15,Jits_Phase_8,29,9999,9999,9999,1934933088
42,14,15,Jits_Phase_8,30,9999,9999,9999,1935712316
42,14,15,Jits_Phase_8,31,9999,9999,9999,1936512072
42,14,15,Jits_Phase_8,32,9999,9999,9999,1937312876
42,14,15,Jits_Phase_8,33,9999,9999,9999,1938112624
42,14,15,Jits_Phase_8,34,9999,9999,9999,1938912368
42,14,15,Jits_Phase_8,35,9999,9999,9999,1939712088
42,14,15,Jits_Phase_8,36,9999,9999,9999,1940512828
42,14,15,Jits_Phase_8,37,9999,9999,9999,1941312584
42,14,15,Jits_Phase_8,38,9999,9999,9999,1942112360
42,14,15,Jits_Phase_8,39,9999,9999,9999,1942912060
42,14,15,Jits_Phase_8,40,9999,9999,9999,1943712868
42,14,15,Jits_Phase_8,41,9999,9999,9999,1944512624
42,14,15,Jits_Phase_8,42,9999,9999,9999,1945312380
42,14,15,Jits_Phase_8,43,9999,9999,9999,1946112056
42,14,15,Jits_Phase_8,44,9999,9999,9999,1946912844
42,14,15,Jits_Phase_8,45,9999,9999,9999,1947712600
42,14,15,Jits_Phase_8,46,9999,9999,9999,1948512360
42,14,15,Jits_Phase_8,47,9999,9999,9999,1949312068
42,14,15,Jits_Phase_8,48,9999,9999,9999,1950132280
42,14,15,Jits_Phase_8,49,9999,9999,9999,1950933084
42,14,15,Jits_Phase_8,50,9999,9999,9999,1951732840
42,14,15,Jits_Phase_8,51,9999,9999,9999,1952532596
42,14,15,Jits_Phase_8,52,9999,9999,9999,1953332284
42,14,15,Jits_Phase_8,53,9999,9999,9999,1954133112
42,14,15,Jits_Phase_8,54,9999,9999,9999,1954932848
42,14,15,Jits_Phase_8,55,9999,9999,9999,1955732560
42,14,15,Jits_Phase_8,56,9999,9999,9999,1956532316
42,14,15,Jits_Phase_8,57,9999,9999,9999,1957333044
42,14,15,Jits_Phase_8,58,9999,9999,9999,1958132804
42,14,15,Jits_Phase_8,59,9999,9999,9999,1958932564
42,14,15,Jits_Phase_8,60,9999,9999,9999,1959732320
42,14,15,Jits_Phase_8,61,9999,9999,9999,1960533080
42,14,15,Jits_Phase_8,62,9999,9999,9999,1961332836
42,14,15,Jits_Phase_8,63,9999,9999,9999,1962132592
42,14,15,Jits_Phase_8,64,9999,9999,9999,1962972216
42,14,15,Jits_Phase_8,65,9999,9999,9999,1963773024
42,14,15,Jits_Phase_8,66,9999,9999,9999,1964572788
42,14,15,Jits_Phase_8,67,9999,9999,9999,1965372480
42,14,15,Jits_Phase_8,68,9999,9999,9999,1966172244
42,14,15,Jits_Phase_8,69,9999,9999,9999,1966972992
42,14,15,Jits_Phase_8,70,9999,9999,9999,1967772740
42,14,15,Jits_Phase_8,71,9999,9999,9999,1968572508
42,14,15,Jits_Phase_8,72,9999,9999,9999,1969372264
42,14,15,Jits_Phase_8,73,9999,9999,9999,1970172996
42,14,15,Jits_Phase_8,74,9999,9999,9999,1970972764
42,14,15,Jits_Phase_8,75,9999,9999,9999,1971772520
42,14,15,Jits_Phase_8,76,9999,9999,9999,1972572220
42,14,15,Jits_Phase_8,77,9999,9999,9999,1973373000
42,14,15,Jits_Phase_8,78,9999,9999,9999,1974172752
42,14,15,Jits_Phase_8,79,9999,9999,9999,1974972508
42,14,15,Jits_Phase_8,80,9999,9999,9999,1975772264
42,14,15,Jits_Phase_8,81,9999,9999,9999,1976533064
42,14,15,Jits_Phase_8,82,9999,9999,9999,1977332824
42,14,15,Jits_Phase_8,83,9999,9999,9999,1978132580
42,14,15,Jits_Phase_8,84,9999,9999,9999,1978932332
42,14,15,Jits_Phase_8,85,9999,9999,9999,1979733088
42,14,15,Jits_Phase_8,86,9999,9999,9999,1980532848
42,14,15,Jits_Phase_8,87,9999,9999,9999,1981332604
42,14,15,Jits_Phase_8,88,9999,9999,9999,1982132280
42,14,15,Jits_Phase_8,89,9999,9999,9999,1982933100
42,14,15,Jits_Phase_8,90,9999,9999,9999,1983732848
42,14,15,Jits_Phase_8,91,9999,9999,9999,1984532596
42,14,15,Jits_Phase_8,92,9999,9999,9999,1985332336
42,14,15,Jits_Phase_8,93,9999,9999,9999,1986133072
42,14,15,Jits_Phase_8,94,9999,9999,9999,1986932832
42,14,15,Jits_Phase_8,95,9999,9999,9999,1987732600
42,14,15,Jits_Phase_8,96,9999,9999,9999,1988532296
42,14,15,Jits_Phase_8,97,9999,9999,9999,1989252208
42,14,15,Jits_Phase_8,98,9999,9999,9999,1990052944
42,14,15,Jits_Phase_8,99,9999,9999,9999,1990852720
42,14,15,Jits_Phase_8,100,9999,9999,9999,1991652468
42,14,15,Jits_Phase_8,101,9999,9999,9999,1992452172
42,14,15,Jits_Phase_8,102,9999,9999,9999,1993252968
42,14,15,Jits_Phase_8,103,9999,9999,9999,1994052688
42,14,15,Jits_Phase_8,104,9999,9999,9999,1994852476
42,14,15,Jits_Phase_8,105,9999,9999,9999,1995652168
42,14,15,Jits_Phase_8,106,9999,9999,9999,1996452968
42,14,15,Jits_Phase_8,107,9999,9999,9999,1997252708
42,14,15,Jits_Phase_8,108,9999,9999,9999,1998052472
42,14,15,Jits_Phase_8,109,9999,9999,9999,1998852152
42,14,15,Jits_Phase_8,110,9999,9999,9999,1999652972
42,14,15,Jits_Phase_8,111,9999,9999,9999,2000452692
42,14,15,Jits_Phase_8,112,9999,9999,9999,2001252472
42,14,15,Jits_Phase_8,113,9999,9999,9999,2002052208
42,14,15,Jits_Phase_8,114,9999,9999,9999,2002932796
42,14,15,Jits_Phase_8,115,9999,9999,9999,2003732568
42,14,15,Jits_Phase_8,116,9999,9999,9999,2004532344
42,14,15,Jits_Phase_8,117,9999,9999,9999,2005333112
42,14,15,Jits_Phase_8,118,9999,9999,9999,2006132816
42,14,15,Jits_Phase_8,119,9999,9999,9999,2006932584
42,14,15,Jits_Phase_8,120,9999,9999,9999,2007732280
42,14,15,Jits_Phase_8,121,9999,9999,9999,2008533084
42,14,15,Jits_Phase_8,122,9999,9999,9999,2009332832
42,14,15,Jits_Phase_8,123,9999,9999,9999,2010132584
42,14,15,Jits_Phase_8,124,9999,9999,9999,2010932348
42,14,15,Jits_Phase_8,125,9999,9999,9999,2011733100
42,14,15,Jits_Phase_8,126,9999,9999,9999,2012532852
42,14,15,Jits_Phase_8,127,9999,9999,9999,2013332540
42,14,15,Jits_Phase_8,128,9999,9999,9999,2014132300
42,14,15,Jits_Phase_8,129,9999,9999,9999,2014933048
42,14,15,Jits_Phase_8,130,9999,9999,9999,2015732824
42,14,15,Jits_Phase_8,131,9999,9999,9999,2016692348
42,14,15,Jits_Phase_8,132,9999,9999,9999,2017493088
42,14,15,Jits_Phase_8,133,9999,9999,9999,2018292852
42,14,15,Jits_Phase_8,134,9999,9999,9999,2019092536
42,14,15,Jits_Phase_8,135,9999,9999,9999,2019892284
42,14,15,Jits_Phase_8,136,9999,9999,9999,2020693104
42,14,15,Jits_Phase_8,137,9999,9999,9999,2021492860
42,14,15,Jits_Phase_8,138,9999,9999,9999,2022292544
42,14,15,Jits_Phase_8,139,9999,9999,9999,2023092300
42,14,15,Jits_Phase_8,140,9999,9999,9999,2023893108
42,14,15,Jits_Phase_8,141,9999,9999,9999,2024692792
42,14,15,Jits_Phase_8,142,9999,9999,9999,2025492544
42,14,15,Jits_Phase_8,143,9999,9999,9999,2026292300
42,14,15,Jits_Phase_8,144,9999,9999,9999,2027093060
42,14,15,Jits_Phase_8,145,9999,9999,9999,2027892824
42,14,15,Jits_Phase_8,146,9999,9999,9999,2028692584
42,14,15,Jits_Phase_8,147,9999,9999,9999,2029492316
42,14,15,Jits_Phase_8,148,9999,9999,9999,2030293112
42,14,15,Jits_Phase_8,149,9999,9999,9999,2031092792
42,14,15,Jits_Phase_8,150,9999,9999,9999,2031732832
42,14,15,Jits_Phase_8,151,9999,9999,9999,2032532600
42,14,15,Jits_Phase_8,152,9999,9999,9999,2033332300
42,14,15,Jits_Phase_8,153,9999,9999,9999,2034133112
42,14,15,Jits_Phase_8,154,9999,9999,9999,2034932864
42,14,15,Jits_Phase_8,155,9999,9999,9999,2035732536
42,14,15,Jits_Phase_8,156,9999,9999,9999,2036532296
42,14,15,Jits_Phase_8,157,9999,9999,9999,2037333116
42,14,15,Jits_Phase_8,158,9999,9999,9999,2038132808
42,14,15,Jits_Phase_8,159,9999,9999,9999,2038932564
42,14,15,Jits_Phase_8,160,9999,9999,9999,2039732300
42,14,15,Jits_Phase_8,161,9999,9999,9999,2040533104
42,14,15,Jits_Phase_8,162,9999,9999,9999,2041332796
42,14,15,Jits_Phase_8,163,9999,9999,9999,2042132556
42,14,15,Jits_Phase_8,164,9999,9999,9999,2042932308
42,14,15,Jits_Phase_8,165,9999,9999,9999,2043733108
42,14,15,Jits_Phase_8,166,9999,9999,9999,2044532796
42,14,15,Jits_Phase_8,167,9999,9999,9999,2045332552
42,14,15,Jits_Phase_8,168,9999,9999,9999,2046132328
42,14,15,Jits_Phase_8,169,9999,9999,9999,2046933072
42,15,17,Jits_Phase_5,0,5,56,103,2058301756
42,15,17,Jits_Phase_5,1,5,63,98,2058304924
42,15,17,Jits_Phase_5,2,5,80,127,2058308048
42,15,17,Jits_Phase_5,0,5,56,103,2058801580
42,15,17,Jits_Phase_5,1,5,63,98,2058804828
42,15,17,Jits_Phase_5,2,5,80,127,2058807796
42,15,17,Jits_Phase_5,0,5,56,103,2059302200
42,15,17,Jits_Phase_5,1,5,80,127,2059311424
42,15,17,Jits_Phase_5,2,5,63,98,2059331832
42,15,17,Jits_Phase_5,0,5,63,98,2059751660
42,15,17,Jits_Phase_5,1,5,80,127,2059781780
42,15,17,Jits_Phase_5,2,5,56,103,2059791680
42,15,17,Jits_Phase_5,0,1,48,64,2060265940
42,15,17,Jits_Phase_5,1,5,80,127,2060311900
42,15,17,Jits_Phase_5,2,5,56,103,2060322244
42,15,17,Jits_Phase_5,3,5,63,98,2060351868
42,15,17,Jits_Phase_5,0,1,48,56,2060778728
42,15,17,Jits_Phase_5,1,5,63,98,2060802436
42,15,17,Jits_Phase_5,2,5,56,103,2060832184
42,15,17,Jits_Phase_5,3,5,80,127,2060842680
42,15,17,Jits_Phase_5,0,5,56,103,2061251928
42,15,17,Jits_Phase_5,1,1,48,42,2061287480
42,15,17,Jits_Phase_5,2,5,63,98,2061302272
42,15,17,Jits_Phase_5,3,5,80,127,2061321684
42,15,17,Jits_Phase_5,0,5,80,127,2061751616
42,15,17,Jits_Phase_5,1,1,48,62,2061753252
42,15,17,Jits_Phase_5,2,5,63,98,2061801884
42,15,17,Jits_Phase_5,3,5,56,103,2061841748
42,15,17,Jits_Phase_5,0,1,48,47,2062248264
42,15,17,Jits_Phase_5,1,5,56,103,2062252344
42,15,17,Jits_Phase_5,2,5,63,98,2062282096
42,15,17,Jits_Phase_5,3,5,80,127,2062351608
42,15,17,Jits_Phase_5,0,1,48,74,2062755888
42,15,17,Jits_Phase_5,1,5,56,103,2062762508
42,15,17,Jits_Phase_5,2,5,80,127,2062821776
42,15,17,Jits_Phase_5,3,5,63,98,2062851880
42,15,17,Jits_Phase_5,0,1,48,71,2063256528
42,15,17,Jits_Phase_5,1,5,56,103,2063272368
42,15,17,Jits_Phase_5,2,5,63,98,2063281744
42,15,17,Jits_Phase_5,3,5,80,127,2063321604
42,15,17,Jits_Phase_5,0,1,48,76,2063752316
42,15,17,Jits_Phase_5,1,5,63,98,2063761632
42,15,17,Jits_Phase_5,2,5,80,127,2063841648
42,15,17,Jits_Phase_5,3,5,56,103,2063851904
42,15,17,Jits_Phase_5,0,1,48,74,2064251096
42,15,17,Jits_Phase_5,1,5,63,98,2064311652
42,15,17,Jits_Phase_5,2,5,56,103,2064351576
42,15,17,Jits_Phase_5,3,5,80,127,2064354640
42,15,17,Jits_Phase_5,0,1,48,72,2064761252
42,15,17,Jits_Phase_5,1,5,56,103,2064771388
42,15,17,Jits_Phase_5,2,5,63,98,2064781808
42,15,17,Jits_Phase_5,3,5,80,127,2064821748
42,15,17,Jits_Phase_5,0,1,48,65,2065259336
42,15,17,Jits_Phase_5,1,5,56,103,2065261920
42,15,17,Jits_Phase_5,2,5,63,98,2065264988
42,15,17,Jits_Phase_5,3,5,80,127,2065282600
42,15,17,Jits_Phase_5,0,1,48,63,2065741856
42,15,17,Jits_Phase_5,1,5,80,127,2065771920
42,15,17,Jits_Phase_5,2,5,56,103,2065782264
42,15,17,Jits_Phase_5,3,5,63,98,2065851780
42,15,17,Jits_Phase_5,0,1,48,65,2066255676
42,15,17,Jits_Phase_5,1,5,63,98,2066262524
42,15,17,Jits_Phase_5,2,5,56,103,2066281712
42,15,17,Jits_Phase_5,3,5,80,127,2066361712
42,15,17,Jits_Phase_5,0,1,48,73,2066754608
42,15,17,Jits_Phase_5,1,5,56,103,2066781604
42,15,17,Jits_Phase_5,2,5,80,127,2066821540
42,15,17,Jits_Phase_5,3,5,63,98,2066831736
42,15,17,Jits_Phase_5,0,1,48,73,2067259676
42,15,17,Jits_Phase_5,1,5,80,127,2067271984
42,15,17,Jits_Phase_5,2,5,63,98,2067301732
42,15,17,Jits_Phase_5,3,5,56,103,2067341820
42,15,17,Jits_Phase_5,0,1,48,68,2067773576
42,15,17,Jits_Phase_5,1,5,56,103,2067792552
42,15,17,Jits_Phase_5,2,5,63,98,2067821932
42,15,17,Jits_Phase_5,3,5,80,127,2067873088
42,15,17,Jits_Phase_5,0,1,48,79,2068288448
42,15,17,Jits_Phase_5,1,5,80,127,2068291932
42,15,17,Jits_Phase_5,2,5,56,103,2068331872
42,15,17,Jits_Phase_5,3,5,63,98,2068342292
42,15,17,Jits_Phase_5,0,5,80,127,2068772408
42,15,17,Jits_Phase_5,1,5,63,98,2068812296
42,15,17,Jits_Phase_5,2,1,48,74,2068813484
42,15,17,Jits_Phase_5,3,5,56,103,2068871480
42,15,17,Jits_Phase_5,0,5,56,103,2069271948
42,15,17,Jits_Phase_5,1,5,80,127,2069282292
42,15,17,Jits_Phase_5,2,1,48,72,2069318692
42,15,17,Jits_Phase_5,3,5,63,98,2069362324
42,15,17,Jits_Phase_5,0,5,80,127,2069771636
42,15,17,Jits_Phase_5,1,1,48,76,2069803376
42,15,17,Jits_Phase_5,2,5,63,98,2069832044
42,15,17,Jits_Phase_5,3,5,56,103,2069861868
42,15,17,Jits_Phase_5,0,5,56,103,2070272516
42,15,17,Jits_Phase_5,1,1,48,73,2070303280
42,15,17,Jits_Phase_5,2,5,80,127,2070331800
42,15,17,Jits_Phase_5,3,5,63,98,2070371736
42,15,17,Jits_Phase_5,0,5,56,103,2070822252
42,15,17,Jits_Phase_5,1,1,48,72,2070823216
42,15,17,Jits_Phase_5,2,5,63,98,2070831464
42,15,17,Jits_Phase_5,3,5,80,127,2070834904
42,15,17,Jits_Phase_5,0,5,80,127,2071271888
42,15,17,Jits_Phase_5,1,1,48,79,2071326544
42,15,17,Jits_Phase_5,2,5,63,98,2071362116
42,15,17,Jits_Phase_5,3,5,56,103,2071372160
42,15,17,Jits_Phase_5,0,5,56,103,2071771488
42,15,17,Jits_Phase_5,1,5,63,98,2071774664
42,15,17,Jits_Phase_5,2,5,80,127,2071777708
42,15,17,Jits_Phase_5,3,1,48,73,2071824808
42,15,17,Jits_Phase_5,0,1,48,77,2072290336
42,15,17,Jits_Phase_5,1,5,80,127,2072292136
42,15,17,Jits_Phase_5,2,5,63,98,2072341820
42,15,17,Jits_Phase_5,3,5,56,103,2072371716
42,15,17,Jits_Phase_5,0,5,56,103,2072772044
42,15,17,Jits_Phase_5,1,5,80,127,2072782164
42,15,17,Jits_Phase_5,2,1,48,73,2072806928
42,15,17,Jits_Phase_5,3,5,63,98,2072851764
42,15,17,Jits_Phase_5,0,5,56,103,2073281772
42,15,17,Jits_Phase_5,1,1,48,77,2073299192
42,15,17,Jits_Phase_5,2,5,63,98,2073302372
42,15,17,Jits_Phase_5,3,5,80,127,2073361864
42,15,17,Jits_Phase_5,0,5,80,127,2073762280
42,15,17,Jits_Phase_5,1,1,48,68,2073794540
42,15,17,Jits_Phase_5,2,5,63,98,2073831656
42,15,17,Jits_Phase_5,3,5,56,103,2073852340
42,15,17,Jits_Phase_5,0,5,80,127,2074282496
42,15,17,Jits_Phase_5,1,1,48,74,2074284060
42,15,17,Jits_Phase_5,2,5,56,103,2074291564
42,15,17,Jits_Phase_5,3,5,63,98,2074301760
42,15,17,Jits_Phase_5,0,5,80,127,2074772140
42,15,17,Jits_Phase_5,1,1,48,74,2074785300
42,15,17,Jits_Phase_5,2,5,56,103,2074792296
42,15,17,Jits_Phase_5,3,5,63,98,2074862124
42,15,17,Jits_Phase_5,0,5,56,103,2075281724
42,15,17,Jits_Phase_5,1,1,48,76,2075290168
42,15,17,Jits_Phase_5,2,5,80,127,2075311468
42,15,17,Jits_Phase_5,3,5,63,98,2075332300
42,15,17,Jits_Phase_5,0,5,63,98,2075772196
42,15,17,Jits_Phase_5,1,1,48,73,2075797332
42,15,17,Jits_Phase_5,2,5,56,103,2075831680
42,15,17,Jits_Phase_5,3,5,80,127,2075862328
42,15,17,Jits_Phase_5,0,5,63,98,2076261604
42,15,17,Jits_Phase_5,1,5,80,127,2076265196
42,15,17,Jits_Phase_5,2,1,48,65,2076277832
42,15,17,Jits_Phase_5,3,5,56,103,2076352028
42,15,17,Jits_Phase_5,0,1,48,68,2076752100
42,15,17,Jits_Phase_5,1,5,56,103,2076782016
42,15,17,Jits_Phase_5,2,5,63,98,2076811616
42,15,17,Jits_Phase_5,3,5,80,127,2076852732
42,15,17,Jits_Phase_5,0,1,48,80,2077255364
42,15,17,Jits_Phase_5,1,5,63,98,2077281692
42,15,17,Jits_Phase_5,2,5,56,103,2077321628
42,15,17,Jits_Phase_5,3,5,80,127,2077342164
42,15,17,Jits_Phase_5,0,1,48,71,2077766496
42,15,17,Jits_Phase_5,1,5,63,98,2077791484
42,15,17,Jits_Phase_5,2,5,56,103,2077831568
42,15,17,Jits_Phase_5,3,5,80,127,2077842064
42,15,17,Jits_Phase_5,0,5,80,127,2078271980
42,15,17,Jits_Phase_5,1,1,48,70,2078274500
42,15,17,Jits_Phase_5,2,5,63,98,2078341360
42,15,17,Jits_Phase_5,3,5,56,103,2078362040
42,15,17,Jits_Phase_5,0,1,48,64,2078756032
42,15,17,Jits_Phase_5,1,5,56,103,2078762280
42,15,17,Jits_Phase_5,2,5,80,127,2078782012
42,15,17,Jits_Phase_5,3,5,63,98,2078821728
42,15,17,Jits_Phase_5,0,1,48,79,2079247828
42,15,17,Jits_Phase_5,1,5,63,98,2079272212
42,15,17,Jits_Phase_5,2,5,80,127,2079291872
42,15,17,Jits_Phase_5,3,5,56,103,2079331588
42,15,17,Jits_Phase_5,0,1,48,65,2079756196
42,15,17,Jits_Phase_5,1,5,63,98,2079772112
42,15,17,Jits_Phase_5,2,5,56,103,2079791452
42,15,17,Jits_Phase_5,3,5,80,127,2079801720
42,15,17,Jits_Phase_5,0,1,48,64,2080262968
42,15,17,Jits_Phase_5,1,5,80,127,2080271760
42,15,17,Jits_Phase_5,2,5,56,103,2080292148
42,15,17,Jits_Phase_5,3,5,63,98,2080321920
42,15,17,Jits_Phase_5,0,1,48,65,2080756116
42,15,17,Jits_Phase_5,1,5,56,103,2080842028
42,15,17,Jits_Phase_5,2,5,80,127,2080845244
42,15,17,Jits_Phase_5,3,5,63,98,2080861500
42,15,17,Jits_Phase_5,0,5,63,98,2081261896
42,15,17,Jits_Phase_5,1,1,48,57,2081281204
42,15,17,Jits_Phase_5,2,5,56,103,2081291788
42,15,17,Jits_Phase_5,3,5,80,127,2081351976
42,15,17,Jits_Phase_5,0,1,48,67,2081772776
42,15,17,Jits_Phase_5,1,5,63,98,2081841504
42,15,17,Jits_Phase_5,2,5,56,103,2081851800
42,15,17,Jits_Phase_5,3,5,80,127,2081862144
42,15,17,Jits_Phase_5,0,1,48,66,2082291040
42,15,17,Jits_Phase_5,1,5,56,103,2082302224
42,15,17,Jits_Phase_5,2,5,80,127,2082332048
42,15,17,Jits_Phase_5,3,5,63,98,2082342244
42,15,17,Jits_Phase_5,0,1,48,58,2082782772
42,15,17,Jits_Phase_5,1,5,63,98,2082841984
42,15,17,Jits_Phase_5,2,5,56,103,2082852180
42,15,17,Jits_Phase_5,3,5,80,127,2082871592
42,15,17,Jits_Phase_5,0,5,56,103,2083271992
42,15,17,Jits_Phase_5,1,1,48,61,2083290328
42,15,17,Jits_Phase_5,2,5,63,98,2083331476
42,15,17,Jits_Phase_5,3,5,80,127,2083335064
42,15,17,Jits_Phase_5,0,1,48,70,2083781060
42,15,17,Jits_Phase_5,1,5,80,127,2083792092
42,15,17,Jits_Phase_5,2,5,56,103,2083801464
42,15,17,Jits_Phase_5,3,5,63,98,2083872116
42,15,17,Jits_Phase_5,0,1,48,65,2084269648
42,15,17,Jits_Phase_5,1,5,80,127,2084281876
42,15,17,Jits_Phase_5,2,5,56,103,2084352308
42,15,17,Jits_Phase_5,3,5,63,98,2084361680
42,15,17,Jits_Phase_5,0,1,48,47,2084784968
42,15,17,Jits_Phase_5,1,1,38,15,2084795960
42,15,17,Jits_Phase_5,2,5,63,98,2084822364
42,15,17,Jits_Phase_5,3,5,56,103,2084831812
42,15,17,Jits_Phase_5,4,5,80,127,2084852196
42,15,17,Jits_Phase_5,0,5,80,127,2085272028
42,15,17,Jits_Phase_5,1,1,48,61,2085287952
42,15,17,Jits_Phase_5,2,5,63,98,2085332408
42,15,17,Jits_Phase_5,3,5,56,103,2085372272
42,15,17,Jits_Phase_5,0,1,48,46,2085785164
42,15,17,Jits_Phase_5,1,1,38,16,2085796160
42,15,17,Jits_Phase_5,2,5,56,103,2085811772
42,15,17,Jits_Phase_5,3,5,63,98,2085821968
42,15,17,Jits_Phase_5,4,5,80,127,2085861832
42,15,17,Jits_Phase_5,0,5,56,103,2086272520
42,15,17,Jits_Phase_5,1,1,48,69,2086286352
42,15,17,Jits_Phase_5,2,5,80,127,2086302116
42,15,17,Jits_Phase_5,3,5,63,98,2086352388
42,15,17,Jits_Phase_5,0,1,48,76,2086769392
42,15,17,Jits_Phase_5,1,5,56,103,2086811984
42,15,17,Jits_Phase_5,2,5,63,98,2086851924
42,15,17,Jits_Phase_5,3,5,80,127,2086855288
42,15,17,Jits_Phase_5,0,1,48,74,2087278500
42,15,17,Jits_Phase_5,1,5,56,103,2087311952
42,15,17,Jits_Phase_5,2,5,63,98,2087321928
42,15,17,Jits_Phase_5,3,5,80,127,2087341712
42,15,17,Jits_Phase_5,0,5,56,103,2087771628
42,15,17,Jits_Phase_5,1,5,80,127,2087774768
42,15,17,Jits_Phase_5,2,1,48,76,2087782240
42,15,17,Jits_Phase_5,3,5,63,98,2087811336
42,15,17,Jits_Phase_5,0,1,48,73,2088260560
42,15,17,Jits_Phase_5,1,5,63,98,2088312132
42,15,17,Jits_Phase_5,2,5,56,103,2088341956
42,15,17,Jits_Phase_5,3,5,80,127,2088362248
42,15,17,Jits_Phase_5,0,1,48,60,2088780324
42,15,17,Jits_Phase_5,1,5,80,127,2088782060
42,15,17,Jits_Phase_5,2,5,56,103,2088792556
42,15,17,Jits_Phase_5,3,5,63,98,2088801852
42,15,17,Jits_Phase_5,0,5,56,103,2089281888
42,15,17,Jits_Phase_5,1,1,48,70,2089282856
42,15,17,Jits_Phase_5,2,5,80,127,2089321820
42,15,17,Jits_Phase_5,3,5,63,98,2089351720
42,15,17,Jits_Phase_5,0,1,48,73,2089772832
42,15,17,Jits_Phase_5,1,5,63,98,2089791764
42,15,17,Jits_Phase_5,2,5,80,127,2089802032
42,15,17,Jits_Phase_5,3,5,56,103,2089812300
42,15,17,Jits_Phase_5,0,1,48,89,2090279232
42,15,17,Jits_Phase_5,1,5,56,103,2090291556
42,15,17,Jits_Phase_5,2,5,63,98,2090362088
42,15,17,Jits_Phase_5,3,5,80,127,2090372492
42,15,17,Jits_Phase_5,0,1,48,71,2090786628
42,15,17,Jits_Phase_5,1,5,80,127,2090801796
42,15,17,Jits_Phase_5,2,5,56,103,2090811868
42,15,17,Jits_Phase_5,3,5,63,98,2090862140
42,15,17,Jits_Phase_5,0,1,48,62,2091306824
42,15,17,Jits_Phase_5,1,5,80,127,2091311656
42,15,17,Jits_Phase_5,2,5,56,103,2091371772
42,15,17,Jits_Phase_5,3,5,63,98,2091401892
42,15,17,Jits_Phase_5,0,1,48,65,2091810476
42,15,17,Jits_Phase_5,1,5,56,103,2091812228
42,15,17,Jits_Phase_5,2,5,80,127,2091815144
42,15,17,Jits_Phase_5,3,5,63,98,2091852116
42,15,17,Jits_Phase_5,0,1,48,69,2092309536
42,15,17,Jits_Phase_5,1,5,56,103,2092341860
42,15,17,Jits_Phase_5,2,5,63,98,2092372236
42,15,17,Jits_Phase_5,3,5,80,127,2092381832
42,15,17,Jits_Phase_5,0,1,48,67,2092799908
42,15,17,Jits_Phase_5,1,5,63,98,2092851648
42,15,17,Jits_Phase_5,2,5,80,127,2092861792
42,15,17,Jits_Phase_5,3,5,56,103,2092872060
42,15,17,Jits_Phase_5,0,5,80,127,2093302260
42,15,17,Jits_Phase_5,1,1,48,65,2093326356
42,15,17,Jits_Phase_5,2,5,56,103,2093352304
42,15,17,Jits_Phase_5,3,5,63,98,2093355296
42,15,17,Jits_Phase_5,0,1,48,62,2093818904
42,15,17,Jits_Phase_5,1,5,56,103,2093831676
42,15,17,Jits_Phase_5,2,5,80,127,2093851912
42,15,17,Jits_Phase_5,3,5,63,98,2093862404
42,15,17,Jits_Phase_5,0,1,48,65,2094306068
42,15,17,Jits_Phase_5,1,5,63,98,2094311720
42,15,17,Jits_Phase_5,2,5,56,103,2094341620
42,15,17,Jits_Phase_5,3,5,80,127,2094361852
42,15,17,Jits_Phase_5,0,1,48,77,2094779532
42,15,17,Jits_Phase_5,1,5,56,103,2094821656
42,15,17,Jits_Phase_5,2,5,80,127,2094832076
42,15,17,Jits_Phase_5,3,5,63,98,2094901740
42,15,17,Jits_Phase_5,0,1,48,82,2095303544
42,15,17,Jits_Phase_5,1,5,63,98,2095312340
42,15,17,Jits_Phase_5,2,5,80,127,2095352500
42,15,17,Jits_Phase_5,3,5,56,103,2095392064
42,15,17,Jits_Phase_5,0,5,56,103,2095822136
42,15,17,Jits_Phase_5,1,1,48,70,2095826820
42,15,17,Jits_Phase_5,2,5,63,98,2095832476
42,15,17,Jits_Phase_5,3,5,80,127,2095851960
42,15,17,Jits_Phase_5,0,1,48,78,2096339088
42,15,17,Jits_Phase_5,1,5,63,98,2096361900
42,15,17,Jits_Phase_5,2,5,80,127,2096382436
42,15,17,Jits_Phase_5,3,5,56,103,2096401772
42,15,17,Jits_Phase_5,0,5,56,103,2096802100
42,15,17,Jits_Phase_5,1,1,48,51,2096817944
42,15,17,Jits_Phase_5,2,5,80,127,2096882036
42,15,17,Jits_Phase_5,3,5,63,98,2096892532
42,15,17,Jits_Phase_5,0,1,48,79,2097299668
42,15,17,Jits_Phase_5,1,5,80,127,2097341944
42,15,17,Jits_Phase_5,2,5,63,98,2097351988
42,15,17,Jits_Phase_5,3,5,56,103,2097381736
42,15,17,Jits_Phase_5,0,5,63,98,2097801468
42,15,17,Jits_Phase_5,1,1,48,83,2097819256
42,15,17,Jits_Phase_5,2,5,80,127,2097841472
42,15,17,Jits_Phase_5,3,5,56,103,2097901932
42,15,17,Jits_Phase_5,0,5,63,98,2098311772
42,15,17,Jits_Phase_5,1,1,48,69,2098322836
42,15,17,Jits_Phase_5,2,5,56,103,2098361596
42,15,17,Jits_Phase_5,3,5,80,127,2098392388
42,15,17,Jits_Phase_5,0,5,80,127,2098812568
42,15,17,Jits_Phase_5,1,5,63,98,2098821420
42,15,17,Jits_Phase_5,2,1,48,67,2098829244
42,15,17,Jits_Phase_5,3,5,56,103,2098892064
42,15,17,Jits_Phase_5,0,1,48,80,2099350744
42,15,17,Jits_Phase_5,1,5,80,127,2099372488
42,15,17,Jits_Phase_5,2,5,56,103,2099381484
42,15,17,Jits_Phase_5,3,5,63,98,2099384704
42,15,17,Jits_Phase_5,0,5,56,103,2099811632
42,15,17,Jits_Phase_5,1,5,80,127,2099832388
42,15,17,Jits_Phase_5,2,5,63,98,2099842584
42,15,17,Jits_Phase_5,3,1,48,82,2099863688
42,15,17,Jits_Phase_5,0,5,63,98,2100321580
42,15,17,Jits_Phase_5,1,1,48,79,2100360152
42,15,17,Jits_Phase_5,2,5,56,103,2100361960
42,15,17,Jits_Phase_5,3,5,80,127,2100382196
42,15,17,Jits_Phase_5,0,5,63,98,2100822380
42,15,17,Jits_Phase_5,1,1,48,71,2100866024
42,15,17,Jits_Phase_5,2,5,56,103,2100881860
42,15,17,Jits_Phase_5,3,5,80,127,2100884852
42,15,17,Jits_Phase_5,0,5,56,103,2101282088
42,15,17,Jits_Phase_5,1,5,80,127,2101301576
42,15,17,Jits_Phase_5,2,5,63,98,2101341536
42,15,17,Jits_Phase_5,3,1,48,65,2101384880
42,15,17,Jits_Phase_5,0,5,56,103,2101811516
42,15,17,Jits_Phase_5,1,5,63,98,2101831924
42,15,17,Jits_Phase_5,2,5,80,127,2101842416
42,15,17,Jits_Phase_5,3,1,48,70,2101891012
42,15,17,Jits_Phase_5,0,5,80,127,2102281608
42,15,17,Jits_Phase_5,1,5,56,103,2102312624
42,15,17,Jits_Phase_5,2,5,63,98,2102352440
42,15,17,Jits_Phase_5,3,1,48,65,2102415712
42,15,17,Jits_Phase_5,0,5,80,127,2102791548
42,15,17,Jits_Phase_5,1,5,56,103,2102812008
42,15,17,Jits_Phase_5,2,5,63,98,2102872572
42,15,17,Jits_Phase_5,3,1,48,59,2102916960
42,15,17,Jits_Phase_5,0,5,56,103,2103301576
42,15,17,Jits_Phase_5,1,5,80,127,2103321888
42,15,17,Jits_Phase_5,2,5,63,98,2103382372
42,15,17,Jits_Phase_5,3,1,48,72,2103415600
42,15,17,Jits_Phase_5,0,5,80,127,2103781860
42,15,17,Jits_Phase_5,1,5,56,103,2103792428
42,15,17,Jits_Phase_5,2,5,63,98,2103831920
42,15,17,Jits_Phase_5,3,1,48,73,2103899180
42,15,17,Jits_Phase_5,0,5,63,98,2104281472
42,15,17,Jits_Phase_5,1,5,56,103,2104322528
42,15,17,Jits_Phase_5,2,5,80,127,2104325592
42,15,17,Jits_Phase_5,3,1,48,70,2104394068
42,15,17,Jits_Phase_5,0,5,63,98,2104801584
42,15,17,Jits_Phase_5,1,5,80,127,2104841600
42,15,17,Jits_Phase_5,2,5,56,103,2104872392
42,15,17,Jits_Phase_5,3,1,48,62,2104873432
42,15,17,Jits_Phase_5,0,5,56,103,2105292340
42,15,17,Jits_Phase_5,1,5,63,98,2105302312
42,15,17,Jits_Phase_5,2,5,80,127,2105332136
42,15,17,Jits_Phase_5,3,1,48,68,2105359292
42,15,17,Jits_Phase_5,0,5,80,127,2105781688
42,15,17,Jits_Phase_5,1,1,48,67,2105829452
42,15,17,Jits_Phase_5,2,5,63,98,2105852408
42,15,17,Jits_Phase_5,3,5,56,103,2105861408
42,15,17,Jits_Phase_5,0,5,63,98,2106282348
42,15,17,Jits_Phase_5,1,1,48,55,2106320236
42,15,17,Jits_Phase_5,2,5,56,103,2106351948
42,15,17,Jits_Phase_5,3,5,80,127,2106362592
42,15,17,Jits_Phase_5,0,5,63,98,2106761572
42,15,17,Jits_Phase_5,1,5,56,103,2106782032
42,15,17,Jits_Phase_5,2,1,48,77,2106808516
42,15,17,Jits_Phase_5,3,5,80,127,2106821960
42,15,17,Jits_Phase_5,0,5,56,103,2107241844
42,15,17,Jits_Phase_5,1,5,63,98,2107252484
42,15,17,Jits_Phase_5,2,1,48,72,2107288788
42,15,17,Jits_Phase_5,3,5,80,127,2107331824
42,15,17,Jits_Phase_5,0,5,63,98,2107732464
42,15,17,Jits_Phase_5,1,5,56,103,2107762140
42,15,17,Jits_Phase_5,2,1,48,65,2107764580
42,15,17,Jits_Phase_5,3,5,80,127,2107802068
42,15,17,Jits_Phase_5,0,5,56,103,2108232284
42,15,17,Jits_Phase_5,1,1,48,69,2108233248
42,15,17,Jits_Phase_5,2,5,63,98,2108271916
42,15,17,Jits_Phase_5,3,5,80,127,2108311780
42,15,17,Jits_Phase_5,0,1,48,69,2108710044
42,15,17,Jits_Phase_5,1,5,80,127,2108731740
42,15,17,Jits_Phase_5,2,5,56,103,2108811520
42,15,17,Jits_Phase_5,3,5,63,98,2108822084
42,15,17,Jits_Phase_5,0,1,48,68,2109233388
42,15,17,Jits_Phase_5,1,5,56,103,2109272468
42,15,17,Jits_Phase_5,2,5,63,98,2109275608
42,15,17,Jits_Phase_5,3,5,80,127,2109281764
42,15,17,Jits_Phase_5,0,1,48,59,2109745264
42,15,17,Jits_Phase_5,1,5,56,103,2109791540
42,15,17,Jits_Phase_5,2,5,63,98,2109812300
42,15,17,Jits_Phase_5,3,5,80,127,2109822272
42,15,17,Jits_Phase_5,0,1,48,76,2110233552
42,15,17,Jits_Phase_5,1,5,63,98,2110252460
42,15,17,Jits_Phase_5,2,5,80,127,2110261608
42,15,17,Jits_Phase_5,3,5,56,103,2110282240
42,15,17,Jits_Phase_5,0,1,48,69,2110718236
42,15,17,Jits_Phase_5,1,5,63,98,2110752284
42,15,17,Jits_Phase_5,2,5,56,103,2110832236
42,15,17,Jits_Phase_5,3,5,80,127,2110835228
42,15,17,Jits_Phase_5,0,1,48,74,2111212744
42,15,17,Jits_Phase_5,1,5,63,98,2111251948
42,15,17,Jits_Phase_5,2,5,56,103,2111272184
42,15,17,Jits_Phase_5,3,5,80,127,2111301956
42,15,17,Jits_Phase_5,0,1,48,79,2111720060
42,15,17,Jits_Phase_5,1,5,56,103,2111751476
42,15,17,Jits_Phase_5,2,5,63,98,2111772232
42,15,17,Jits_Phase_5,3,5,80,127,2111782352
42,15,17,Jits_Phase_5,0,1,48,70,2112220560
42,15,17,Jits_Phase_5,1,5,56,103,2112282160
42,15,17,Jits_Phase_5,2,5,63,98,2112311688
42,15,17,Jits_Phase_5,3,5,80,127,2112315200
42,15,17,Jits_Phase_5,0,1,48,69,2112731912
42,15,17,Jits_Phase_5,1,5,56,103,2112733332
42,15,17,Jits_Phase_5,2,5,63,98,2112771548
42,15,17,Jits_Phase_5,3,5,80,127,2112832092
42,15,17,Jits_Phase_5,0,1,48,67,2113222940
42,15,17,Jits_Phase_5,1,5,56,103,2113251884
42,15,17,Jits_Phase_5,2,5,63,98,2113262152
42,15,17,Jits_Phase_5,3,5,80,127,2113323052
42,15,17,Jits_Phase_5,0,1,48,70,2113711676
42,15,17,Jits_Phase_5,1,5,56,103,2113752456
42,15,17,Jits_Phase_5,2,5,80,127,2113771940
42,15,17,Jits_Phase_5,3,5,63,98,2113801688
42,15,17,Jits_Phase_5,0,1,48,61,2114218824
42,15,17,Jits_Phase_5,1,5,80,127,2114252276
42,15,17,Jits_Phase_5,2,5,56,103,2114262324
42,15,17,Jits_Phase_5,3,5,63,98,2114282108
42,15,17,Jits_Phase_5,0,1,48,74,2114711920
42,15,17,Jits_Phase_5,1,5,63,98,2114741536
42,15,17,Jits_Phase_5,2,5,80,127,2114821464
42,15,17,Jits_Phase_5,3,5,56,103,2114831660
42,15,17,Jits_Phase_5,0,1,48,62,2115215036
42,15,17,Jits_Phase_5,1,5,80,127,2115331404
42,15,17,Jits_Phase_5,2,5,56,103,2115351936
42,15,17,Jits_Phase_5,3,5,63,98,2115355076
42,15,17,Jits_Phase_5,0,1,48,67,2115709376
42,15,17,Jits_Phase_5,1,5,63,98,2115832264
42,15,17,Jits_Phase_5,2,5,80,127,2115835404
42,15,17,Jits_Phase_5,3,5,56,103,2115891532
42,15,17,Jits_Phase_5,0,1,48,69,2116205680
42,15,17,Jits_Phase_5,1,5,56,103,2116312456
42,15,17,Jits_Phase_5,2,5,80,127,2116321676
42,15,17,Jits_Phase_5,3,5,63,98,2116361688
42,15,17,Jits_Phase_5,0,1,48,60,2116720044
42,15,17,Jits_Phase_5,1,5,56,103,2116791760
42,15,17,Jits_Phase_5,2,5,63,98,2116852212
42,15,17,Jits_Phase_5,3,5,80,127,2116862260
42,15,17,Jits_Phase_5,0,1,48,71,2117214392
42,15,17,Jits_Phase_5,1,5,63,98,2117301476
42,15,17,Jits_Phase_5,2,5,80,127,2117341700
42,15,17,Jits_Phase_5,3,5,56,103,2117381560
42,15,17,Jits_Phase_5,0,1,48,76,2117730632
42,15,17,Jits_Phase_5,1,5,56,103,2117811788
42,15,17,Jits_Phase_5,2,5,63,98,2117891492
42,15,17,Jits_Phase_5,3,5,80,127,2117894856
42,15,17,Jits_Phase_5,0,1,48,72,2118246240
42,15,17,Jits_Phase_5,1,5,80,127,2118371900
42,15,17,Jits_Phase_5,2,5,56,103,2118402396
42,15,17,Jits_Phase_5,3,5,63,98,2118405688
42,15,17,Jits_Phase_5,0,1,48,72,2118776556
42,15,17,Jits_Phase_5,1,5,56,103,2118831432
42,15,17,Jits_Phase_5,2,5,80,127,2118851892
42,15,17,Jits_Phase_5,3,5,63,98,2118891888
42,15,17,Jits_Phase_5,0,1,48,53,2119286196
42,15,17,Jits_Phase_5,1,5,80,127,2119312072
42,15,17,Jits_Phase_5,2,5,63,98,2119332160
42,15,17,Jits_Phase_5,3,5,56,103,2119391784
42,15,17,Jits_Phase_5,0,1,48,42,2119804004
42,15,17,Jits_Phase_5,1,5,63,98,2119821788
42,15,17,Jits_Phase_5,2,5,56,103,2119831908
42,15,17,Jits_Phase_5,3,5,80,127,2119882032
42,15,17,Jits_Phase_5,0,5,56,103,2120312248
42,15,17,Jits_Phase_5,1,1,48,57,2120316412
42,15,17,Jits_Phase_5,2,5,63,98,2120331728
42,15,17,Jits_Phase_5,3,5,80,127,2120341924
42,15,17,Jits_Phase_5,0,5,56,103,2120801892
42,15,17,Jits_Phase_5,1,1,48,73,2120802880
42,15,17,Jits_Phase_5,2,5,63,98,2120806296
42,15,17,Jits_Phase_5,3,5,80,127,2120822120
42,15,17,Jits_Phase_5,0,1,48,56,2121308640
42,15,17,Jits_Phase_5,1,5,63,98,2121342468
42,15,17,Jits_Phase_5,2,5,56,103,2121372140
42,15,17,Jits_Phase_5,3,5,80,127,2121401876
42,15,17,Jits_Phase_5,0,5,80,127,2121812332
42,15,17,Jits_Phase_5,1,1,48,60,2121830668
42,15,17,Jits_Phase_5,2,5,56,103,2121901556
42,15,17,Jits_Phase_5,3,5,63,98,2121904548
42,15,17,Jits_Phase_5,0,5,56,103,2122312008
42,15,17,Jits_Phase_5,1,5,80,127,2122315076
42,15,17,Jits_Phase_5,2,1,48,62,2122329224
42,15,17,Jits_Phase_5,3,5,63,98,2122392164
42,15,17,Jits_Phase_5,0,5,80,127,2122811836
42,15,17,Jits_Phase_5,1,1,48,61,2122816972
42,15,17,Jits_Phase_5,2,5,63,98,2122872072
42,15,17,Jits_Phase_5,3,5,56,103,2122901744
42,15,17,Jits_Phase_5,0,5,63,98,2123311424
42,15,17,Jits_Phase_5,1,1,48,55,2123317684
42,15,17,Jits_Phase_5,2,5,80,127,2123321936
42,15,17,Jits_Phase_5,3,5,56,103,2123392288
42,15,17,Jits_Phase_5,0,1,48,62,2123808956
42,15,17,Jits_Phase_5,1,5,56,103,2123871652
42,15,17,Jits_Phase_5,2,5,80,127,2123902300
42,15,17,Jits_Phase_5,3,5,63,98,2123951360
42,15,17,Jits_Phase_5,0,1,48,58,2124352788
42,15,17,Jits_Phase_5,1,5,63,98,2124461360
42,15,17,Jits_Phase_5,2,5,56,103,2124492152
42,15,17,Jits_Phase_5,3,5,80,127,2124495216
42,15,17,Jits_Phase_5,0,1,48,56,2124875900
42,15,17,Jits_Phase_5,1,5,63,98,2124962088
42,15,17,Jits_Phase_5,2,5,80,127,2124981784
42,15,17,Jits_Phase_5,3,5,56,103,2124991828
42,15,17,Jits_Phase_5,0,1,48,57,2125435880
42,15,17,Jits_Phase_5,1,5,56,103,2125472172
42,15,17,Jits_Phase_5,2,5,63,98,2125475164
42,15,17,Jits_Phase_5,3,5,80,127,2125491660
42,15,17,Jits_Phase_5,0,5,56,103,2125921876
42,15,17,Jits_Phase_5,1,5,63,98,2125932000
42,15,17,Jits_Phase_5,2,5,80,127,2125961672
42,15,17,Jits_Phase_5,0,1,48,52,2126391128
42,15,17,Jits_Phase_5,1,5,63,98,2126441948
42,15,17,Jits_Phase_5,2,5,80,127,2126462256
42,15,17,Jits_Phase_5,3,5,56,103,2126502252
42,15,17,Jits_Phase_5,0,1,48,59,2126905408
42,15,17,Jits_Phase_5,1,5,56,103,2126972264
42,15,17,Jits_Phase_5,2,5,63,98,2127012184
42,15,17,Jits_Phase_5,3,5,80,127,2127015772
42,15,17,Jits_Phase_5,0,5,80,127,2127411828
42,15,17,Jits_Phase_5,1,1,48,61,2127436024
42,15,17,Jits_Phase_5,2,5,56,103,2127451712
42,15,17,Jits_Phase_5,3,5,63,98,2127501912
42,15,17,Jits_Phase_5,0,1,48,61,2127923400
42,15,17,Jits_Phase_5,1,5,56,103,2127971772
42,15,17,Jits_Phase_5,2,5,80,127,2127982044
42,15,17,Jits_Phase_5,3,5,63,98,2128011792
42,15,17,Jits_Phase_5,0,5,56,103,2128422136
42,15,17,Jits_Phase_5,1,1,48,59,2128452400
42,15,17,Jits_Phase_5,2,5,80,127,2128462240
42,15,17,Jits_Phase_5,3,5,63,98,2128512364
42,15,17,Jits_Phase_5,0,5,56,103,2128921900
42,15,17,Jits_Phase_5,1,1,48,60,2128959416
42,15,17,Jits_Phase_5,2,5,80,127,2128961928
42,15,17,Jits_Phase_5,3,5,63,98,2129012052
42,15,17,Jits_Phase_5,0,5,80,127,2129411696
42,15,17,Jits_Phase_5,1,1,48,67,2129450780
42,15,17,Jits_Phase_5,2,5,63,98,2129492332
42,15,17,Jits_Phase_5,3,5,56,103,2129501628
42,15,17,Jits_Phase_5,0,1,48,64,2129961268
42,15,17,Jits_Phase_5,1,5,80,127,2129962988
42,15,17,Jits_Phase_5,2,5,56,103,2129971840
42,15,17,Jits_Phase_5,3,5,63,98,2129992100
42,15,17,Jits_Phase_5,0,5,63,98,2130432328
42,15,17,Jits_Phase_5,1,1,48,64,2130468624
42,15,17,Jits_Phase_5,2,5,56,103,2130502024
42,15,17,Jits_Phase_5,3,5,80,127,2130505016
42,15,17,Jits_Phase_5,0,5,80,127,2130921804
42,15,17,Jits_Phase_5,1,1,48,63,2130951376
42,15,17,Jits_Phase_5,2,5,63,98,2130972000
42,15,17,Jits_Phase_5,3,5,56,103,2131011812
42,15,17,Jits_Phase_5,0,1,48,66,2131439428
42,15,17,Jits_Phase_5,1,5,63,98,2131461568
42,15,17,Jits_Phase_5,2,5,56,103,2131501432
42,15,17,Jits_Phase_5,3,5,80,127,2131511876
42,15,17,Jits_Phase_5,0,1,48,74,2131931256
42,15,17,Jits_Phase_5,1,5,63,98,2131951880
42,15,17,Jits_Phase_5,2,5,56,103,2131971516
42,15,17,Jits_Phase_5,3,5,80,127,2131991900
42,15,17,Jits_Phase_5,0,5,80,127,2132411772
42,15,17,Jits_Phase_5,1,1,48,68,2132422120
42,15,17,Jits_Phase_5,2,5,56,103,2132423760
42,15,17,Jits_Phase_5,3,5,63,98,2132441600
42,15,17,Jits_Phase_5,0,1,48,67,2132904008
42,15,17,Jits_Phase_5,1,5,63,98,2132942168
42,15,17,Jits_Phase_5,2,5,56,103,2132982108
42,15,17,Jits_Phase_5,3,5,80,127,2133011764
42,15,17,Jits_Phase_5,0,5,56,103,2133401992
42,15,17,Jits_Phase_5,1,1,48,70,2133428552
42,15,17,Jits_Phase_5,2,5,63,98,2133431660
42,15,17,Jits_Phase_5,3,5,80,127,2133462604
42,15,17,Jits_Phase_5,0,5,80,127,2133821828
42,15,17,Jits_Phase_5,1,5,56,103,2133891432
42,15,17,Jits_Phase_5,2,5,63,98,2133894648
42,15,17,Jits_Phase_5,3,1,48,67,2133913576
42,15,17,Jits_Phase_5,0,5,56,103,2134331620
42,15,17,Jits_Phase_5,1,1,48,68,2134354888
42,15,17,Jits_Phase_5,2,5,63,98,2134381892
42,15,17,Jits_Phase_5,3,5,80,127,2134411788
42,15,17,Jits_Phase_5,0,1,48,62,2134785476
42,15,17,Jits_Phase_5,1,5,63,98,2134812028
42,15,17,Jits_Phase_5,2,5,80,127,2134815392
42,15,17,Jits_Phase_5,3,5,56,103,2134872664
42,15,17,Jits_Phase_5,0,1,48,65,2135258008
42,15,17,Jits_Phase_5,1,5,56,103,2135341656
42,15,17,Jits_Phase_5,2,5,80,127,2135351840
42,15,17,Jits_Phase_5,3,5,63,98,2135401888
42,15,17,Jits_Phase_5,0,1,48,62,2135779628
42,15,17,Jits_Phase_5,1,5,63,98,2135811488
42,15,17,Jits_Phase_5,2,5,56,103,2135821608
42,15,17,Jits_Phase_5,3,5,80,127,2135852404
42,15,17,Jits_Phase_5,0,1,48,67,2136266388
42,15,17,Jits_Phase_5,1,5,63,98,2136341864
42,15,17,Jits_Phase_5,2,5,80,127,2136345304
42,15,17,Jits_Phase_5,3,5,56,103,2136371600
42,15,17,Jits_Phase_5,0,1,48,61,2136777964
42,15,17,Jits_Phase_5,1,5,63,98,2136862056
42,15,17,Jits_Phase_5,2,5,56,103,2136881676
42,15,17,Jits_Phase_5,3,5,80,127,2136884740
42,15,17,Jits_Phase_5,0,1,48,57,2137302192
42,15,17,Jits_Phase_5,1,5,63,98,2137321768
42,15,17,Jits_Phase_5,2,5,56,103,2137391524
42,15,17,Jits_Phase_5,3,5,80,127,2137411992
42,15,17,Jits_Phase_5,0,1,48,62,2137810112
42,15,17,Jits_Phase_5,1,5,56,103,2137812376
42,15,17,Jits_Phase_5,2,5,63,98,2137821524
42,15,17,Jits_Phase_5,3,5,80,127,2137911736
42,15,17,Jits_Phase_5,0,1,48,76,2138323040
42,15,17,Jits_Phase_5,1,5,56,103,2138331380
42,15,17,Jits_Phase_5,2,5,80,127,2138371392
42,15,17,Jits_Phase_5,3,5,63,98,2138381812
42,15,17,Jits_Phase_5,0,1,48,60,2138835440
42,15,17,Jits_Phase_5,1,5,56,103,2138851732
42,15,17,Jits_Phase_5,2,5,63,98,2138882528
42,15,17,Jits_Phase_5,3,5,80,127,2138911980
42,15,17,Jits_Phase_5,0,5,80,127,2139311408
42,15,17,Jits_Phase_5,1,1,48,56,2139352616
42,15,17,Jits_Phase_5,2,5,63,98,2139354256
42,15,17,Jits_Phase_5,3,5,56,103,2139372020
42,15,17,Jits_Phase_5,0,5,56,103,2139852148
42,15,17,Jits_Phase_5,1,5,80,127,2139871560
42,15,17,Jits_Phase_5,2,1,48,57,2139873120
42,15,17,Jits_Phase_5,3,5,63,98,2139892084
42,15,17,Jits_Phase_5,0,5,63,98,2140322316
42,15,17,Jits_Phase_5,1,5,56,103,2140332512
42,15,17,Jits_Phase_5,2,1,48,62,2140362532
42,15,17,Jits_Phase_5,3,5,80,127,2140391848
42,15,17,Jits_Phase_5,0,5,56,103,2140821768
42,15,17,Jits_Phase_5,1,1,48,56,2140846532
42,15,17,Jits_Phase_5,2,5,63,98,2140891592
42,15,17,Jits_Phase_5,3,5,80,127,2140911900
42,15,17,Jits_Phase_5,0,5,56,103,2141321608
42,15,17,Jits_Phase_5,1,1,48,60,2141339248
42,15,17,Jits_Phase_5,2,5,63,98,2141352396
42,15,17,Jits_Phase_5,3,5,80,127,2141392336
42,15,17,Jits_Phase_5,0,5,63,98,2141812304
42,15,17,Jits_Phase_5,1,1,48,67,2141827852
42,15,17,Jits_Phase_5,2,5,56,103,2141862352
42,15,17,Jits_Phase_5,3,5,80,127,2141871352
42,15,17,Jits_Phase_5,0,1,48,66,2142294632
42,15,17,Jits_Phase_5,1,5,56,103,2142351604
42,15,17,Jits_Phase_5,2,5,63,98,2142402016
42,15,17,Jits_Phase_5,3,5,80,127,2142412432
42,15,17,Jits_Phase_5,0,5,56,103,2142821696
42,15,17,Jits_Phase_5,1,5,63,98,2142832116
42,15,17,Jits_Phase_5,2,1,48,76,2142838300
42,15,17,Jits_Phase_5,3,5,80,127,2142911824
42,15,17,Jits_Phase_5,0,9999,9999,9999,2058549312
42,15,17,Jits_Phase_5,1,9999,9999,9999,2059050056
42,15,17,Jits_Phase_5,2,9999,9999,9999,2059549784
42,15,17,Jits_Phase_5,3,9999,9999,9999,2060049508
42,15,17,Jits_Phase_5,4,9999,9999,9999,2060549208
42,15,17,Jits_Phase_5,5,9999,9999,9999,2061049932
42,15,17,Jits_Phase_5,6,9999,9999,9999,2061549684
42,15,17,Jits_Phase_5,7,9999,9999,9999,2062049372
42,15,17,Jits_Phase_5,8,9999,9999,9999,2062550112
42,15,17,Jits_Phase_5,9,9999,9999,9999,2063060048
42,15,17,Jits_Phase_5,10,9999,9999,9999,2063559792
42,15,17,Jits_Phase_5,11,9999,9999,9999,2064059468
42,15,17,Jits_Phase_5,12,9999,9999,9999,2064559212
42,15,17,Jits_Phase_5,13,9999,9999,9999,2065059936
42,15,17,Jits_Phase_5,14,9999,9999,9999,2065559668
42,15,17,Jits_Phase_5,15,9999,9999,9999,2066059344
42,15,17,Jits_Phase_5,16,9999,9999,9999,2066560064
42,15,17,Jits_Phase_5,17,9999,9999,9999,2067070072
42,15,17,Jits_Phase_5,18,9999,9999,9999,2067569744
42,15,17,Jits_Phase_5,19,9999,9999,9999,2068069492
42,15,17,Jits_Phase_5,20,9999,9999,9999,2068569168
42,15,17,Jits_Phase_5,21,9999,9999,9999,2069069892
42,15,17,Jits_Phase_5,22,9999,9999,9999,2069569652
42,15,17,Jits_Phase_5,23,9999,9999,9999,2070069320
42,15,17,Jits_Phase_5,24,9999,9999,9999,2070570048
42,15,17,Jits_Phase_5,25,9999,9999,9999,2071069804
42,15,17,Jits_Phase_5,26,9999,9999,9999,2071569500
42,15,17,Jits_Phase_5,27,9999,9999,9999,2072069236
42,15,17,Jits_Phase_5,28,9999,9999,9999,2072569976
42,15,17,Jits_Phase_5,29,9999,9999,9999,2073069652
42,15,17,Jits_Phase_5,30,9999,9999,9999,2073559152
42,15,17,Jits_Phase_5,31,9999,9999,9999,2074059888
42,15,17,Jits_Phase_5,32,9999,9999,9999,2074559576
42,15,17,Jits_Phase_5,33,9999,9999,9999,2075059264
42,15,17,Jits_Phase_5,34,9999,9999,9999,2075560000
42,15,17,Jits_Phase_5,35,9999,9999,9999,2076059764
42,15,17,Jits_Phase_5,36,9999,9999,9999,2076559428
42,15,17,Jits_Phase_5,37,9999,9999,9999,2077059180
42,15,17,Jits_Phase_5,38,9999,9999,9999,2077559900
42,15,17,Jits_Phase_5,39,9999,9999,9999,2078059576
42,15,17,Jits_Phase_5,40,9999,9999,9999,2078559328
42,15,17,Jits_Phase_5,41,9999,9999,9999,2079060064
42,15,17,Jits_Phase_5,42,9999,9999,9999,2079559736
42,15,17,Jits_Phase_5,43,9999,9999,9999,2080059460
42,15,17,Jits_Phase_5,44,9999,9999,9999,2080559184
42,15,17,Jits_Phase_5,45,9999,9999,9999,2081059900
42,15,17,Jits_Phase_5,46,9999,9999,9999,2081559652
42,15,17,Jits_Phase_5,47,9999,9999,9999,2082059332
42,15,17,Jits_Phase_5,48,9999,9999,9999,2082569272
42,15,17,Jits_Phase_5,49,9999,9999,9999,2083070072
42,15,17,Jits_Phase_5,50,9999,9999,9999,2083569788
42,15,17,Jits_Phase_5,51,9999,9999,9999,2084069476
42,15,17,Jits_Phase_5,52,9999,9999,9999,2084569156
42,15,17,Jits_Phase_5,53,9999,9999,9999,2085069908
42,15,17,Jits_Phase_5,54,9999,9999,9999,2085569632
42,15,17,Jits_Phase_5,55,9999,9999,9999,2086069356
42,15,17,Jits_Phase_5,56,9999,9999,9999,2086570052
42,15,17,Jits_Phase_5,57,9999,9999,9999,2087069808
42,15,17,Jits_Phase_5,58,9999,9999,9999,2087569488
42,15,17,Jits_Phase_5,59,9999,9999,9999,2088069224
42,15,17,Jits_Phase_5,60,9999,9999,9999,2088569960
42,15,17,Jits_Phase_5,61,9999,9999,9999,2089069632
42,15,17,Jits_Phase_5,62,9999,9999,9999,2089569384
42,15,17,Jits_Phase_5,63,9999,9999,9999,2090070116
42,15,17,Jits_Phase_5,64,9999,9999,9999,2090599536
42,15,17,Jits_Phase_5,65,9999,9999,9999,2091099208
42,15,17,Jits_Phase_5,66,9999,9999,9999,2091599932
42,15,17,Jits_Phase_5,67,9999,9999,9999,2092099668
42,15,17,Jits_Phase_5,68,9999,9999,9999,2092599396
42,15,17,Jits_Phase_5,69,9999,9999,9999,2093099068
42,15,17,Jits_Phase_5,70,9999,9999,9999,2093599856
42,15,17,Jits_Phase_5,71,9999,9999,9999,2094099544
42,15,17,Jits_Phase_5,72,9999,9999,9999,2094599292
42,15,17,Jits_Phase_5,73,9999,9999,9999,2095100012
42,15,17,Jits_Phase_5,74,9999,9999,9999,2095599688
42,15,17,Jits_Phase_5,75,9999,9999,9999,2096099436
42,15,17,Jits_Phase_5,76,9999,9999,9999,2096599132
42,15,17,Jits_Phase_5,77,9999,9999,9999,2097099860
42,15,17,Jits_Phase_5,78,9999,9999,9999,2097599552
42,15,17,Jits_Phase_5,79,9999,9999,9999,2098099296
42,15,17,Jits_Phase_5,80,9999,9999,9999,2098600016
42,15,17,Jits_Phase_5,81,9999,9999,9999,2099079240
42,15,17,Jits_Phase_5,82,9999,9999,9999,2099579972
42,15,17,Jits_Phase_5,83,9999,9999,9999,2100079716
42,15,17,Jits_Phase_5,84,9999,9999,9999,2100579408
42,15,17,Jits_Phase_5,85,9999,9999,9999,2101079152
42,15,17,Jits_Phase_5,86,9999,9999,9999,2101579864
42,15,17,Jits_Phase_5,87,9999,9999,9999,2102079552
42,15,17,Jits_Phase_5,88,9999,9999,9999,2102579288
42,15,17,Jits_Phase_5,89,9999,9999,9999,2103080016
42,15,17,Jits_Phase_5,90,9999,9999,9999,2103579704
42,15,17,Jits_Phase_5,91,9999,9999,9999,2104079464
42,15,17,Jits_Phase_5,92,9999,9999,9999,2104579140
42,15,17,Jits_Phase_5,93,9999,9999,9999,2105079936
42,15,17,Jits_Phase_5,94,9999,9999,9999,2105579608
42,15,17,Jits_Phase_5,95,9999,9999,9999,2106079296
42,15,17,Jits_Phase_5,96,9999,9999,9999,2106580032
42,15,17,Jits_Phase_5,97,9999,9999,9999,2107029588
42,15,17,Jits_Phase_5,98,9999,9999,9999,2107529336
42,15,17,Jits_Phase_5,99,9999,9999,9999,2108030068
42,15,17,Jits_Phase_5,100,9999,9999,9999,2108529740
42,15,17,Jits_Phase_5,101,9999,9999,9999,2109029504
42,15,17,Jits_Phase_5,102,9999,9999,9999,2109529168
42,15,17,Jits_Phase_5,103,9999,9999,9999,2110029896
42,15,17,Jits_Phase_5,104,9999,9999,9999,2110529644
42,15,17,Jits_Phase_5,105,9999,9999,9999,2111029364
42,15,17,Jits_Phase_5,106,9999,9999,9999,2111530084
42,15,17,Jits_Phase_5,107,9999,9999,9999,2112029756
42,15,17,Jits_Phase_5,108,9999,9999,9999,2112529476
42,15,17,Jits_Phase_5,109,9999,9999,9999,2113029224
42,15,17,Jits_Phase_5,110,9999,9999,9999,2113529944
42,15,17,Jits_Phase_5,111,9999,9999,9999,2114029688
42,15,17,Jits_Phase_5,112,9999,9999,9999,2114529364
42,15,17,Jits_Phase_5,113,9999,9999,9999,2115030088
42,15,17,Jits_Phase_5,114,9999,9999,9999,2115589240
42,15,17,Jits_Phase_5,115,9999,9999,9999,2116089956
42,15,17,Jits_Phase_5,116,9999,9999,9999,2116589628
42,15,17,Jits_Phase_5,117,9999,9999,9999,2117089376
42,15,17,Jits_Phase_5,118,9999,9999,9999,2117590096
42,15,17,Jits_Phase_5,119,9999,9999,9999,2118100032
42,15,17,Jits_Phase_5,120,9999,9999,9999,2118599776
42,15,17,Jits_Phase_5,121,9999,9999,9999,2119099452
42,15,17,Jits_Phase_5,122,9999,9999,9999,2119599200
42,15,17,Jits_Phase_5,123,9999,9999,9999,2120099920
42,15,17,Jits_Phase_5,124,9999,9999,9999,2120599664
42,15,17,Jits_Phase_5,125,9999,9999,9999,2121099336
42,15,17,Jits_Phase_5,126,9999,9999,9999,2121600076
42,15,17,Jits_Phase_5,127,9999,9999,9999,2122110080
42,15,17,Jits_Phase_5,128,9999,9999,9999,2122609756
42,15,17,Jits_Phase_5,129,9999,9999,9999,2123109444
42,15,17,Jits_Phase_5,130,9999,9999,9999,2123609204
42,15,17,Jits_Phase_5,131,9999,9999,9999,2124209264
42,15,17,Jits_Phase_5,132,9999,9999,9999,2124709980
42,15,17,Jits_Phase_5,133,9999,9999,9999,2125209656
42,15,17,Jits_Phase_5,134,9999,9999,9999,2125709396
42,15,17,Jits_Phase_5,135,9999,9999,9999,2126209088
42,15,17,Jits_Phase_5,136,9999,9999,9999,2126709820
42,15,17,Jits_Phase_5,137,9999,9999,9999,2127209564
42,15,17,Jits_Phase_5,138,9999,9999,9999,2127709312
42,15,17,Jits_Phase_5,139,9999,9999,9999,2128209976
42,15,17,Jits_Phase_5,140,9999,9999,9999,2128709724
42,15,17,Jits_Phase_5,141,9999,9999,9999,2129209416
42,15,17,Jits_Phase_5,142,9999,9999,9999,2129709156
42,15,17,Jits_Phase_5,143,9999,9999,9999,2130209884
42,15,17,Jits_Phase_5,144,9999,9999,9999,2130709624
42,15,17,Jits_Phase_5,145,9999,9999,9999,2131209296
42,15,17,Jits_Phase_5,146,9999,9999,9999,2131710036
42,15,17,Jits_Phase_5,147,9999,9999,9999,2132209780
42,15,17,Jits_Phase_5,148,9999,9999,9999,2132709452
42,15,17,Jits_Phase_5,149,9999,9999,9999,2133209144
42,15,17,Jits_Phase_5,150,9999,9999,9999,2133609556
42,15,17,Jits_Phase_5,151,9999,9999,9999,2134109312
42,15,17,Jits_Phase_5,152,9999,9999,9999,2134609980
42,15,17,Jits_Phase_5,153,9999,9999,9999,2135109728
42,15,17,Jits_Phase_5,154,9999,9999,9999,2135609452
42,15,17,Jits_Phase_5,155,9999,9999,9999,2136109168
42,15,17,Jits_Phase_5,156,9999,9999,9999,2136609876
42,15,17,Jits_Phase_5,157,9999,9999,9999,2137109592
42,15,17,Jits_Phase_5,158,9999,9999,9999,2137609344
42,15,17,Jits_Phase_5,159,9999,9999,9999,2138110064
42,15,17,Jits_Phase_5,160,9999,9999,9999,2138609736
42,15,17,Jits_Phase_5,161,9999,9999,9999,2139109488
42,15,17,Jits_Phase_5,162,9999,9999,9999,2139609160
42,15,17,Jits_Phase_5,163,9999,9999,9999,2140109896
42,15,17,Jits_Phase_5,164,9999,9999,9999,2140609660
42,15,17,Jits_Phase_5,165,9999,9999,9999,2141109340
42,15,17,Jits_Phase_5,166,9999,9999,9999,2141610072
42,15,17,Jits_Phase_5,167,9999,9999,9999,2142109760
42,15,17,Jits_Phase_5,168,9999,9999,9999,2142609516
42,15,17,Jits_Phase_5,169,9999,9999,9999,2143109188
42,16,18,Jits_Linear_8,0,5,56,103,2154299956
42,16,18,Jits_Linear_8,1,5,63,98,2154303056
42,16,18,Jits_Linear_8,2,5,80,127,2154306176
42,16,18,Jits_Linear_8,0,5,56,103,2155120120
42,16,18,Jits_Linear_8,1,5,63,98,2155123220
42,16,18,Jits_Linear_8,2,5,80,127,2155126340
42,16,18,Jits_Linear_8,3,1,48,42,2155192400
42,16,18,Jits_Linear_8,0,5,80,127,2155879876
42,16,18,Jits_Linear_8,1,1,48,48,2155897444
42,16,18,Jits_Linear_8,2,5,63,98,2155970004
42,16,18,Jits_Linear_8,3,5,56,103,2155980124
42,16,18,Jits_Linear_8,0,5,56,103,2156719428
42,16,18,Jits_Linear_8,1,5,63,98,2156729848
42,16,18,Jits_Linear_8,2,1,48,65,2156731260
42,16,18,Jits_Linear_8,3,5,80,127,2156820048
42,16,18,Jits_Linear_8,0,5,63,98,2157509904
42,16,18,Jits_Linear_8,1,1,48,75,2157536164
42,16,18,Jits_Linear_8,2,5,80,127,2157539944
42,16,18,Jits_Linear_8,3,5,56,103,2157570296
42,16,18,Jits_Linear_8,0,5,56,103,2158330176
42,16,18,Jits_Linear_8,1,1,48,66,2158332844
42,16,18,Jits_Linear_8,2,5,80,127,2158429548
42,16,18,Jits_Linear_8,3,5,63,98,2158479884
42,16,18,Jits_Linear_8,0,5,56,103,2159140140
42,16,18,Jits_Linear_8,1,1,48,65,2159143408
42,16,18,Jits_Linear_8,2,5,80,127,2159190512
42,16,18,Jits_Linear_8,3,5,63,98,2159230448
42,16,18,Jits_Linear_8,0,5,80,127,2159979788
42,16,18,Jits_Linear_8,1,1,48,60,2159998796
42,16,18,Jits_Linear_8,2,5,63,98,2160009684
42,16,18,Jits_Linear_8,3,5,56,103,2160080188
42,16,18,Jits_Linear_8,0,1,48,67,2160813316
42,16,18,Jits_Linear_8,1,5,63,98,2160819712
42,16,18,Jits_Linear_8,2,5,56,103,2160850288
42,16,18,Jits_Linear_8,3,5,80,127,2160909692
42,16,18,Jits_Linear_8,0,5,56,103,2161570020
42,16,18,Jits_Linear_8,1,5,80,127,2161573016
42,16,18,Jits_Linear_8,2,1,48,79,2161605204
42,16,18,Jits_Linear_8,3,5,63,98,2161689968
42,16,18,Jits_Linear_8,0,1,48,75,2162399120
42,16,18,Jits_Linear_8,1,5,56,103,2162449796
42,16,18,Jits_Linear_8,2,5,80,127,2162489688
42,16,18,Jits_Linear_8,3,5,63,98,2162500016
42,16,18,Jits_Linear_8,0,5,56,103,2163209852
42,16,18,Jits_Linear_8,1,5,80,127,2163230012
42,16,18,Jits_Linear_8,2,1,48,53,2163240924
42,16,18,Jits_Linear_8,3,5,63,98,2163309900
42,16,18,Jits_Linear_8,0,5,80,127,2164000104
42,16,18,Jits_Linear_8,1,1,48,52,2164024452
42,16,18,Jits_Linear_8,2,5,56,103,2164099624
42,16,18,Jits_Linear_8,3,5,63,98,2164109896
42,16,18,Jits_Linear_8,0,5,63,98,2164780544
42,16,18,Jits_Linear_8,1,5,80,127,2164839764
42,16,18,Jits_Linear_8,2,5,56,103,2164850036
42,16,18,Jits_Linear_8,3,1,48,49,2164884544
42,16,18,Jits_Linear_8,0,5,56,103,2165590288
42,16,18,Jits_Linear_8,1,1,48,57,2165601944
42,16,18,Jits_Linear_8,2,5,63,98,2165659960
42,16,18,Jits_Linear_8,3,5,80,127,2165663176
42,16,18,Jits_Linear_8,0,1,48,64,2166396732
42,16,18,Jits_Linear_8,1,5,63,98,2166419776
42,16,18,Jits_Linear_8,2,5,56,103,2166469976
42,16,18,Jits_Linear_8,3,5,80,127,2166473192
42,16,18,Jits_Linear_8,0,5,56,103,2167170672
42,16,18,Jits_Linear_8,1,5,80,127,2167173588
42,16,18,Jits_Linear_8,2,1,48,63,2167225104
42,16,18,Jits_Linear_8,3,5,63,98,2167259672
42,16,18,Jits_Linear_8,0,1,48,62,2167997676
42,16,18,Jits_Linear_8,1,5,63,98,2167999792
42,16,18,Jits_Linear_8,2,5,56,103,2168089928
42,16,18,Jits_Linear_8,3,5,80,127,2168119616
42,16,18,Jits_Linear_8,0,1,48,57,2168778624
42,16,18,Jits_Linear_8,1,5,56,103,2168790560
42,16,18,Jits_Linear_8,2,5,63,98,2168889624
42,16,18,Jits_Linear_8,3,5,80,127,2168920644
42,16,18,Jits_Linear_8,0,5,63,98,2169600516
42,16,18,Jits_Linear_8,1,5,56,103,2169609664
42,16,18,Jits_Linear_8,2,1,48,60,2169655056
42,16,18,Jits_Linear_8,3,5,80,127,2169699592
42,16,18,Jits_Linear_8,0,5,63,98,2170400196
42,16,18,Jits_Linear_8,1,1,48,61,2170415896
42,16,18,Jits_Linear_8,2,5,56,103,2170480084
42,16,18,Jits_Linear_8,3,5,80,127,2170483004
42,16,18,Jits_Linear_8,0,5,80,127,2171139632
42,16,18,Jits_Linear_8,1,5,63,98,2171159796
42,16,18,Jits_Linear_8,2,1,48,57,2171201600
42,16,18,Jits_Linear_8,3,5,56,103,2171220500
42,16,18,Jits_Linear_8,0,1,48,61,2171946628
42,16,18,Jits_Linear_8,1,5,56,103,2171959724
42,16,18,Jits_Linear_8,2,5,63,98,2171980184
42,16,18,Jits_Linear_8,3,5,80,127,2171983696
42,16,18,Jits_Linear_8,0,5,63,98,2172679656
42,16,18,Jits_Linear_8,1,1,48,60,2172701212
42,16,18,Jits_Linear_8,2,5,80,127,2172760448
42,16,18,Jits_Linear_8,3,5,56,103,2172769520
42,16,18,Jits_Linear_8,0,1,48,57,2173467232
42,16,18,Jits_Linear_8,1,5,63,98,2173480452
42,16,18,Jits_Linear_8,2,5,56,103,2173499668
42,16,18,Jits_Linear_8,3,5,80,127,2173549944
42,16,18,Jits_Linear_8,0,1,48,59,2174241972
42,16,18,Jits_Linear_8,1,5,80,127,2174259528
42,16,18,Jits_Linear_8,2,5,63,98,2174299492
42,16,18,Jits_Linear_8,3,5,56,103,2174320100
42,16,18,Jits_Linear_8,0,1,48,69,2175012204
42,16,18,Jits_Linear_8,1,5,56,103,2175069496
42,16,18,Jits_Linear_8,2,5,63,98,2175079840
42,16,18,Jits_Linear_8,3,5,80,127,2175100228
42,16,18,Jits_Linear_8,0,5,56,103,2175769884
42,16,18,Jits_Linear_8,1,1,48,60,2175795700
42,16,18,Jits_Linear_8,2,5,63,98,2175859940
42,16,18,Jits_Linear_8,3,5,80,127,2175919420
42,16,18,Jits_Linear_8,0,1,48,62,2176567688
42,16,18,Jits_Linear_8,1,5,80,127,2176569656
42,16,18,Jits_Linear_8,2,5,56,103,2176579924
42,16,18,Jits_Linear_8,3,5,63,98,2176649532
42,16,18,Jits_Linear_8,0,5,63,98,2177369416
42,16,18,Jits_Linear_8,1,1,48,70,2177375452
42,16,18,Jits_Linear_8,2,5,80,127,2177459548
42,16,18,Jits_Linear_8,3,5,56,103,2177469744
42,16,18,Jits_Linear_8,0,5,63,98,2178069880
42,16,18,Jits_Linear_8,1,5,80,127,2178120184
42,16,18,Jits_Linear_8,2,1,48,51,2178160536
42,16,18,Jits_Linear_8,3,5,56,103,2178179444
42,16,18,Jits_Linear_8,0,1,48,72,2178847112
42,16,18,Jits_Linear_8,1,5,56,103,2178860484
42,16,18,Jits_Linear_8,2,5,80,127,2178909516
42,16,18,Jits_Linear_8,3,5,63,98,2178930124
42,16,18,Jits_Linear_8,0,5,56,103,2179589520
42,16,18,Jits_Linear_8,1,1,48,67,2179599540
42,16,18,Jits_Linear_8,2,5,80,127,2179649856
42,16,18,Jits_Linear_8,3,5,63,98,2179719668
42,16,18,Jits_Linear_8,0,5,56,103,2180350472
42,16,18,Jits_Linear_8,1,5,80,127,2180380300
42,16,18,Jits_Linear_8,2,1,48,48,2180385140
42,16,18,Jits_Linear_8,3,5,63,98,2180409692
42,16,18,Jits_Linear_8,0,1,48,58,2181098664
42,16,18,Jits_Linear_8,1,5,56,103,2181150156
42,16,18,Jits_Linear_8,2,5,80,127,2181169420
42,16,18,Jits_Linear_8,3,5,63,98,2181230044
42,16,18,Jits_Linear_8,0,1,48,73,2181903508
42,16,18,Jits_Linear_8,1,5,80,127,2181989800
42,16,18,Jits_Linear_8,2,5,56,103,2181999920
42,16,18,Jits_Linear_8,3,5,63,98,2182010324
42,16,18,Jits_Linear_8,0,5,56,103,2182700460
42,16,18,Jits_Linear_8,1,5,80,127,2182740424
42,16,18,Jits_Linear_8,2,1,48,73,2182759352
42,16,18,Jits_Linear_8,3,5,63,98,2182770016
42,16,18,Jits_Linear_8,0,5,56,103,2183420216
42,16,18,Jits_Linear_8,1,5,63,98,2183449968
42,16,18,Jits_Linear_8,2,5,80,127,2183490156
42,16,18,Jits_Linear_8,3,1,48,62,2183514700
42,16,18,Jits_Linear_8,0,5,80,127,2184119744
42,16,18,Jits_Linear_8,1,5,63,98,2184169724
42,16,18,Jits_Linear_8,2,5,56,103,2184190256
42,16,18,Jits_Linear_8,3,1,48,45,2184207000
42,16,18,Jits_Linear_8,0,1,48,55,2184897136
42,16,18,Jits_Linear_8,1,5,56,103,2184900172
42,16,18,Jits_Linear_8,2,5,80,127,2184969560
42,16,18,Jits_Linear_8,3,5,63,98,2185030108
42,16,18,Jits_Linear_8,0,5,80,127,2185640300
42,16,18,Jits_Linear_8,1,1,48,59,2185651440
42,16,18,Jits_Linear_8,2,5,63,98,2185730432
42,16,18,Jits_Linear_8,3,5,56,103,2185749840
42,16,18,Jits_Linear_8,0,5,63,98,2186400212
42,16,18,Jits_Linear_8,1,5,56,103,2186419552
42,16,18,Jits_Linear_8,2,1,48,41,2186439604
42,16,18,Jits_Linear_8,3,5,80,127,2186459556
42,16,18,Jits_Linear_8,0,5,80,127,2187099492
42,16,18,Jits_Linear_8,1,5,63,98,2187120024
42,16,18,Jits_Linear_8,2,1,48,49,2187155876
42,16,18,Jits_Linear_8,3,5,56,103,2187199960
42,16,18,Jits_Linear_8,0,5,63,98,2187829504
42,16,18,Jits_Linear_8,1,1,48,70,2187872708
42,16,18,Jits_Linear_8,2,5,56,103,2187940164
42,16,18,Jits_Linear_8,3,5,80,127,2187943156
42,16,18,Jits_Linear_8,0,5,63,98,2188589520
42,16,18,Jits_Linear_8,1,5,56,103,2188599588
42,16,18,Jits_Linear_8,2,5,80,127,2188602508
42,16,18,Jits_Linear_8,3,1,48,64,2188612372
42,16,18,Jits_Linear_8,0,5,56,103,2189310288
42,16,18,Jits_Linear_8,1,1,48,66,2189323072
42,16,18,Jits_Linear_8,2,5,80,127,2189430248
42,16,18,Jits_Linear_8,3,5,63,98,2189470260
42,16,18,Jits_Linear_8,0,5,56,103,2190059868
42,16,18,Jits_Linear_8,1,1,48,81,2190060836
42,16,18,Jits_Linear_8,2,5,80,127,2190140056
42,16,18,Jits_Linear_8,3,5,63,98,2190160128
42,16,18,Jits_Linear_8,0,5,56,103,2190790188
42,16,18,Jits_Linear_8,1,1,48,59,2190829272
42,16,18,Jits_Linear_8,2,5,63,98,2190899672
42,16,18,Jits_Linear_8,3,5,80,127,2190903036
42,16,18,Jits_Linear_8,0,5,56,103,2191549948
42,16,18,Jits_Linear_8,1,5,80,127,2191579476
42,16,18,Jits_Linear_8,2,1,48,58,2191591812
42,16,18,Jits_Linear_8,3,5,63,98,2191600000
42,16,18,Jits_Linear_8,0,5,63,98,2192259588
42,16,18,Jits_Linear_8,1,5,56,103,2192269784
42,16,18,Jits_Linear_8,2,5,80,127,2192279832
42,16,18,Jits_Linear_8,3,1,48,61,2192325872
42,16,18,Jits_Linear_8,0,5,80,127,2192970032
42,16,18,Jits_Linear_8,1,1,48,61,2192991808
42,16,18,Jits_Linear_8,2,5,56,103,2193020304
42,16,18,Jits_Linear_8,3,5,63,98,2193060168
42,16,18,Jits_Linear_8,0,1,48,70,2193698120
42,16,18,Jits_Linear_8,1,5,80,127,2193709308
42,16,18,Jits_Linear_8,2,5,63,98,2193729944
42,16,18,Jits_Linear_8,3,5,56,103,2193780144
42,16,18,Jits_Linear_8,0,1,48,71,2194405860
42,16,18,Jits_Linear_8,1,1,38,17,2194415956
42,16,18,Jits_Linear_8,2,5,80,127,2194439516
42,16,18,Jits_Linear_8,3,5,56,103,2194470388
42,16,18,Jits_Linear_8,4,5,63,98,2194540052
42,16,18,Jits_Linear_8,0,1,48,86,2195107636
42,16,18,Jits_Linear_8,1,5,56,103,2195209560
42,16,18,Jits_Linear_8,2,5,80,127,2195220052
42,16,18,Jits_Linear_8,3,5,63,98,2195259868
42,16,18,Jits_Linear_8,0,5,56,103,2195840396
42,16,18,Jits_Linear_8,1,5,63,98,2195860032
42,16,18,Jits_Linear_8,2,1,48,64,2195904580
42,16,18,Jits_Linear_8,3,5,80,127,2195929332
42,16,18,Jits_Linear_8,0,1,48,59,2196526876
42,16,18,Jits_Linear_8,1,5,63,98,2196579912
42,16,18,Jits_Linear_8,2,5,80,127,2196640064
42,16,18,Jits_Linear_8,3,5,56,103,2196659776
42,16,18,Jits_Linear_8,0,1,48,64,2197245128
42,16,18,Jits_Linear_8,1,5,80,127,2197280072
42,16,18,Jits_Linear_8,2,5,56,103,2197309776
42,16,18,Jits_Linear_8,3,5,63,98,2197339584
42,16,18,Jits_Linear_8,0,1,48,50,2197946660
42,16,18,Jits_Linear_8,1,5,56,103,2197989924
42,16,18,Jits_Linear_8,2,5,63,98,2198050080
42,16,18,Jits_Linear_8,3,5,80,127,2198109668
42,16,18,Jits_Linear_8,0,1,48,57,2198677564
42,16,18,Jits_Linear_8,1,5,80,127,2198720004
42,16,18,Jits_Linear_8,2,5,56,103,2198740316
42,16,18,Jits_Linear_8,3,5,63,98,2198809908
42,16,18,Jits_Linear_8,0,1,48,63,2199429196
42,16,18,Jits_Linear_8,1,5,80,127,2199430908
42,16,18,Jits_Linear_8,2,5,63,98,2199449876
42,16,18,Jits_Linear_8,3,5,56,103,2199479624
42,16,18,Jits_Linear_8,0,1,48,62,2200113060
42,16,18,Jits_Linear_8,1,5,80,127,2200119708
42,16,18,Jits_Linear_8,2,5,63,98,2200140168
42,16,18,Jits_Linear_8,3,5,56,103,2200199736
42,16,18,Jits_Linear_8,0,1,48,60,2200815336
42,16,18,Jits_Linear_8,1,5,80,127,2200820168
42,16,18,Jits_Linear_8,2,5,56,103,2200920652
42,16,18,Jits_Linear_8,3,5,63,98,2200950256
42,16,18,Jits_Linear_8,0,5,63,98,2201510404
42,16,18,Jits_Linear_8,1,5,80,127,2201560384
42,16,18,Jits_Linear_8,2,5,56,103,2201579868
42,16,18,Jits_Linear_8,3,1,48,53,2201606432
42,16,18,Jits_Linear_8,0,1,48,44,2202225308
42,16,18,Jits_Linear_8,1,5,80,127,2202249692
42,16,18,Jits_Linear_8,2,5,56,103,2202280264
42,16,18,Jits_Linear_8,3,5,63,98,2202283408
42,16,18,Jits_Linear_8,0,1,48,28,2202921500
42,16,18,Jits_Linear_8,1,5,63,98,2202979616
42,16,18,Jits_Linear_8,2,5,56,103,2203020364
42,16,18,Jits_Linear_8,3,5,80,127,2203040076
42,16,18,Jits_Linear_8,0,5,80,127,2203619552
42,16,18,Jits_Linear_8,1,1,48,60,2203637420
42,16,18,Jits_Linear_8,2,5,63,98,2203699892
42,16,18,Jits_Linear_8,3,5,56,103,2203739740
42,16,18,Jits_Linear_8,0,5,63,98,2204330320
42,16,18,Jits_Linear_8,1,1,48,70,2204355460
42,16,18,Jits_Linear_8,2,5,80,127,2204410188
42,16,18,Jits_Linear_8,3,5,56,103,2204429824
42,16,18,Jits_Linear_8,0,1,48,62,2205034968
42,16,18,Jits_Linear_8,1,5,56,103,2205059576
42,16,18,Jits_Linear_8,2,5,63,98,2205069624
42,16,18,Jits_Linear_8,3,5,80,127,2205109636
42,16,18,Jits_Linear_8,0,5,56,103,2205669764
42,16,18,Jits_Linear_8,1,5,80,127,2205672832
42,16,18,Jits_Linear_8,2,1,48,57,2205734684
42,16,18,Jits_Linear_8,3,5,63,98,2205809888
42,16,18,Jits_Linear_8,0,5,56,103,2206349580
42,16,18,Jits_Linear_8,1,1,48,69,2206377112
42,16,18,Jits_Linear_8,2,5,63,98,2206439784
42,16,18,Jits_Linear_8,3,5,80,127,2206509596
42,16,18,Jits_Linear_8,0,1,48,69,2207020276
42,16,18,Jits_Linear_8,1,5,63,98,2207109704
42,16,18,Jits_Linear_8,2,5,80,127,2207112844
42,16,18,Jits_Linear_8,3,5,56,103,2207169856
42,16,18,Jits_Linear_8,0,1,48,64,2207732440
42,16,18,Jits_Linear_8,1,1,38,17,2207742236
42,16,18,Jits_Linear_8,2,5,80,127,2207830904
42,16,18,Jits_Linear_8,3,5,56,103,2207849932
42,16,18,Jits_Linear_8,4,5,63,98,2207860128
42,16,18,Jits_Linear_8,0,1,48,55,2208412220
42,16,18,Jits_Linear_8,1,5,56,103,2208429628
42,16,18,Jits_Linear_8,2,5,63,98,2208439600
42,16,18,Jits_Linear_8,3,5,80,127,2208510552
42,16,18,Jits_Linear_8,0,1,48,54,2209076876
42,16,18,Jits_Linear_8,1,5,80,127,2209110556
42,16,18,Jits_Linear_8,2,5,56,103,2209159488
42,16,18,Jits_Linear_8,3,5,63,98,2209209748
42,16,18,Jits_Linear_8,0,1,48,55,2209801700
42,16,18,Jits_Linear_8,1,5,56,103,2209870456
42,16,18,Jits_Linear_8,2,5,63,98,2209880508
42,16,18,Jits_Linear_8,3,5,80,127,2209920580
42,16,18,Jits_Linear_8,0,5,56,103,2210489868
42,16,18,Jits_Linear_8,1,1,48,61,2210521612
42,16,18,Jits_Linear_8,2,5,63,98,2210529728
42,16,18,Jits_Linear_8,3,5,80,127,2210579780
42,16,18,Jits_Linear_8,0,5,80,127,2211119396
42,16,18,Jits_Linear_8,1,1,48,80,2211156916
42,16,18,Jits_Linear_8,2,5,56,103,2211169616
42,16,18,Jits_Linear_8,3,5,63,98,2211190076
42,16,18,Jits_Linear_8,0,5,80,127,2211800344
42,16,18,Jits_Linear_8,1,1,48,68,2211832528
42,16,18,Jits_Linear_8,2,5,63,98,2211859756
42,16,18,Jits_Linear_8,3,5,56,103,2211939636
42,16,18,Jits_Linear_8,0,5,80,127,2212449604
42,16,18,Jits_Linear_8,1,1,48,65,2212489844
42,16,18,Jits_Linear_8,2,5,56,103,2212491412
42,16,18,Jits_Linear_8,3,5,63,98,2212509996
42,16,18,Jits_Linear_8,0,1,48,65,2213144044
42,16,18,Jits_Linear_8,1,5,56,103,2213169476
42,16,18,Jits_Linear_8,2,5,80,127,2213179744
42,16,18,Jits_Linear_8,3,5,63,98,2213219608
42,16,18,Jits_Linear_8,0,1,48,67,2213797900
42,16,18,Jits_Linear_8,1,5,56,103,2213899520
42,16,18,Jits_Linear_8,2,5,63,98,2213939560
42,16,18,Jits_Linear_8,3,5,80,127,2213942848
42,16,18,Jits_Linear_8,0,5,63,98,2214449480
42,16,18,Jits_Linear_8,1,5,80,127,2214489344
42,16,18,Jits_Linear_8,2,5,56,103,2214560372
42,16,18,Jits_Linear_8,3,1,48,54,2214611364
42,16,18,Jits_Linear_8,0,5,63,98,2215099740
42,16,18,Jits_Linear_8,1,5,56,103,2215179540
42,16,18,Jits_Linear_8,2,5,80,127,2215240176
42,16,18,Jits_Linear_8,3,1,48,57,2215241068
42,16,18,Jits_Linear_8,0,5,80,127,2215769364
42,16,18,Jits_Linear_8,1,5,63,98,2215819640
42,16,18,Jits_Linear_8,2,5,56,103,2215850440
42,16,18,Jits_Linear_8,3,1,48,54,2215893040
42,16,18,Jits_Linear_8,0,5,56,103,2216419712
42,16,18,Jits_Linear_8,1,5,63,98,2216469840
42,16,18,Jits_Linear_8,2,5,80,127,2216480412
42,16,18,Jits_Linear_8,3,1,48,62,2216513968
42,16,18,Jits_Linear_8,0,5,56,103,2217090540
42,16,18,Jits_Linear_8,1,1,48,50,2217129476
42,16,18,Jits_Linear_8,2,5,63,98,2217200000
42,16,18,Jits_Linear_8,3,5,80,127,2217219488
42,16,18,Jits_Linear_8,0,5,63,98,2217739624
42,16,18,Jits_Linear_8,1,5,80,127,2217789780
42,16,18,Jits_Linear_8,2,1,48,77,2217830060
42,16,18,Jits_Linear_8,3,5,56,103,2217880056
42,16,18,Jits_Linear_8,0,5,63,98,2218379576
42,16,18,Jits_Linear_8,1,5,80,127,2218410300
42,16,18,Jits_Linear_8,2,1,48,65,2218484812
42,16,18,Jits_Linear_8,3,5,56,103,2218499376
42,16,18,Jits_Linear_8,0,5,63,98,2219029764
42,16,18,Jits_Linear_8,1,5,56,103,2219040256
42,16,18,Jits_Linear_8,2,5,80,127,2219139556
42,16,18,Jits_Linear_8,3,1,48,59,2219149048
42,16,18,Jits_Linear_8,0,5,63,98,2219779328
42,16,18,Jits_Linear_8,1,1,48,53,2219790764
42,16,18,Jits_Linear_8,2,5,80,127,2219810340
42,16,18,Jits_Linear_8,3,5,56,103,2219839964
42,16,18,Jits_Linear_8,0,5,80,127,2220439884
42,16,18,Jits_Linear_8,1,5,63,98,2220450304
42,16,18,Jits_Linear_8,2,1,48,48,2220469984
42,16,18,Jits_Linear_8,3,5,56,103,2220480048
42,16,18,Jits_Linear_8,4,1,38,13,2220485332
42,16,18,Jits_Linear_8,0,5,80,127,2220979476
42,16,18,Jits_Linear_8,1,5,63,98,2221000156
42,16,18,Jits_Linear_8,2,5,56,103,2221050136
42,16,18,Jits_Linear_8,3,1,48,70,2221093704
42,16,18,Jits_Linear_8,0,5,63,98,2221650220
42,16,18,Jits_Linear_8,1,5,80,127,2221709716
42,16,18,Jits_Linear_8,2,1,48,73,2221726164
42,16,18,Jits_Linear_8,3,5,56,103,2221730392
42,16,18,Jits_Linear_8,0,5,63,98,2222250364
42,16,18,Jits_Linear_8,1,5,56,103,2222299372
42,16,18,Jits_Linear_8,2,5,80,127,2222309868
42,16,18,Jits_Linear_8,3,1,48,66,2222343256
42,16,18,Jits_Linear_8,0,5,56,103,2222920128
42,16,18,Jits_Linear_8,1,5,80,127,2222930176
42,16,18,Jits_Linear_8,2,1,48,45,2222949708
42,16,18,Jits_Linear_8,3,5,63,98,2223029516
42,16,18,Jits_Linear_8,0,5,80,127,2223520136
42,16,18,Jits_Linear_8,1,5,63,98,2223530480
42,16,18,Jits_Linear_8,2,1,48,65,2223586860
42,16,18,Jits_Linear_8,3,5,56,103,2223680040
42,16,18,Jits_Linear_8,0,5,63,98,2224160072
42,16,18,Jits_Linear_8,1,5,80,127,2224200040
42,16,18,Jits_Linear_8,2,1,48,57,2224225852
42,16,18,Jits_Linear_8,3,5,56,103,2224280200
42,16,18,Jits_Linear_8,0,5,56,103,2224779496
42,16,18,Jits_Linear_8,1,1,48,58,2224837764
42,16,18,Jits_Linear_8,2,5,80,127,2224880184
42,16,18,Jits_Linear_8,3,5,63,98,2224899300
42,16,18,Jits_Linear_8,0,5,80,127,2225469664
42,16,18,Jits_Linear_8,1,5,56,103,2225480084
42,16,18,Jits_Linear_8,2,1,48,68,2225521864
42,16,18,Jits_Linear_8,3,5,63,98,2225570136
42,16,18,Jits_Linear_8,0,5,56,103,2226099496
42,16,18,Jits_Linear_8,1,5,63,98,2226120180
42,16,18,Jits_Linear_8,2,1,48,58,2226153492
42,16,18,Jits_Linear_8,3,5,80,127,2226200188
42,16,18,Jits_Linear_8,0,5,63,98,2226670060
42,16,18,Jits_Linear_8,1,5,56,103,2226760144
42,16,18,Jits_Linear_8,2,5,80,127,2226763212
42,16,18,Jits_Linear_8,3,1,48,74,2226782820
42,16,18,Jits_Linear_8,0,5,56,103,2227320268
42,16,18,Jits_Linear_8,1,5,80,127,2227379692
42,16,18,Jits_Linear_8,2,5,63,98,2227390036
42,16,18,Jits_Linear_8,3,1,48,59,2227412188
42,16,18,Jits_Linear_8,0,5,80,127,2227989960
42,16,18,Jits_Linear_8,1,5,56,103,2228000080
42,16,18,Jits_Linear_8,2,5,63,98,2228003148
42,16,18,Jits_Linear_8,3,1,48,57,2228020460
42,16,18,Jits_Linear_8,0,5,56,103,2228569384
42,16,18,Jits_Linear_8,1,5,80,127,2228579656
42,16,18,Jits_Linear_8,2,5,63,98,2228600116
42,16,18,Jits_Linear_8,3,1,48,59,2228634772
42,16,18,Jits_Linear_8,0,5,63,98,2229160248
42,16,18,Jits_Linear_8,1,1,48,62,2229215056
42,16,18,Jits_Linear_8,2,5,80,127,2229219884
42,16,18,Jits_Linear_8,3,5,56,103,2229269860
42,16,18,Jits_Linear_8,0,1,48,59,2229829844
42,16,18,Jits_Linear_8,1,5,63,98,2229859908
42,16,18,Jits_Linear_8,2,5,56,103,2229870032
42,16,18,Jits_Linear_8,3,5,80,127,2229920084
42,16,18,Jits_Linear_8,0,5,63,98,2230369784
42,16,18,Jits_Linear_8,1,5,80,127,2230390244
42,16,18,Jits_Linear_8,2,5,56,103,2230400440
42,16,18,Jits_Linear_8,3,1,48,59,2230443264
42,16,18,Jits_Linear_8,0,5,63,98,2230980032
42,16,18,Jits_Linear_8,1,5,80,127,2230983468
42,16,18,Jits_Linear_8,2,5,56,103,2231019968
42,16,18,Jits_Linear_8,3,1,48,56,2231032452
42,16,18,Jits_Linear_8,0,1,48,53,2231626296
42,16,18,Jits_Linear_8,1,5,63,98,2231659820
42,16,18,Jits_Linear_8,2,5,80,127,2231689572
42,16,18,Jits_Linear_8,3,5,56,103,2231699916
42,16,18,Jits_Linear_8,0,5,56,103,2232220116
42,16,18,Jits_Linear_8,1,5,80,127,2232249644
42,16,18,Jits_Linear_8,2,1,48,56,2232262128
42,16,18,Jits_Linear_8,3,5,63,98,2232280360
42,16,18,Jits_Linear_8,0,1,48,51,2232884844
42,16,18,Jits_Linear_8,1,5,63,98,2232920616
42,16,18,Jits_Linear_8,2,5,56,103,2232960252
42,16,18,Jits_Linear_8,3,5,80,127,2232963324
42,16,18,Jits_Linear_8,0,5,80,127,2233420144
42,16,18,Jits_Linear_8,1,5,56,103,2233500092
42,16,18,Jits_Linear_8,2,1,48,58,2233505752
42,16,18,Jits_Linear_8,3,5,63,98,2233550288
42,16,18,Jits_Linear_8,0,5,80,127,2233999852
42,16,18,Jits_Linear_8,1,5,56,103,2234020164
42,16,18,Jits_Linear_8,2,5,63,98,2234110296
42,16,18,Jits_Linear_8,3,1,48,57,2234137228
42,16,18,Jits_Linear_8,0,5,80,127,2234640016
42,16,18,Jits_Linear_8,1,5,63,98,2234679908
42,16,18,Jits_Linear_8,2,5,56,103,2234719772
42,16,18,Jits_Linear_8,3,1,48,66,2234772260
42,16,18,Jits_Linear_8,0,5,63,98,2235210084
42,16,18,Jits_Linear_8,1,5,80,127,2235269356
42,16,18,Jits_Linear_8,2,5,56,103,2235300300
42,16,18,Jits_Linear_8,3,1,48,60,2235357816
42,16,18,Jits_Linear_8,0,5,56,103,2235810076
42,16,18,Jits_Linear_8,1,5,80,127,2235839828
42,16,18,Jits_Linear_8,2,1,48,57,2235919816
42,16,18,Jits_Linear_8,3,5,63,98,2235929880
42,16,18,Jits_Linear_8,0,5,56,103,2236410236
42,16,18,Jits_Linear_8,1,1,48,56,2236487616
42,16,18,Jits_Linear_8,2,5,80,127,2236519724
42,16,18,Jits_Linear_8,3,5,63,98,2236549772
42,16,18,Jits_Linear_8,0,5,56,103,2237050288
42,16,18,Jits_Linear_8,1,1,48,57,2237078140
42,16,18,Jits_Linear_8,2,5,63,98,2237109704
42,16,18,Jits_Linear_8,3,5,80,127,2237140276
42,16,18,Jits_Linear_8,0,5,56,103,2237619736
42,16,18,Jits_Linear_8,1,1,48,50,2237681076
42,16,18,Jits_Linear_8,2,5,63,98,2237690236
42,16,18,Jits_Linear_8,3,5,80,127,2237709652
42,16,18,Jits_Linear_8,0,5,80,127,2238179888
42,16,18,Jits_Linear_8,1,5,63,98,2238200052
42,16,18,Jits_Linear_8,2,5,56,103,2238250404
42,16,18,Jits_Linear_8,3,1,48,61,2238289364
42,16,18,Jits_Linear_8,0,5,63,98,2238779848
42,16,18,Jits_Linear_8,1,5,80,127,2238789896
42,16,18,Jits_Linear_8,2,5,56,103,2238840172
42,16,18,Jits_Linear_8,3,1,48,63,2238849068
42,16,18,Jits_Linear_8,0,5,63,98,2239360364
42,16,18,Jits_Linear_8,1,1,48,57,2239425284
42,16,18,Jits_Linear_8,2,5,80,127,2239429964
42,16,18,Jits_Linear_8,3,5,56,103,2239449748
42,16,18,Jits_Linear_8,0,5,63,98,2239969576
42,16,18,Jits_Linear_8,1,5,80,127,2239972940
42,16,18,Jits_Linear_8,2,1,48,54,2239992768
42,16,18,Jits_Linear_8,3,5,56,103,2240040220
42,16,18,Jits_Linear_8,0,5,80,127,2240499964
42,16,18,Jits_Linear_8,1,5,56,103,2240519672
42,16,18,Jits_Linear_8,2,5,63,98,2240529720
42,16,18,Jits_Linear_8,3,1,48,56,2240566420
42,16,18,Jits_Linear_8,0,5,56,103,2241100140
42,16,18,Jits_Linear_8,1,1,48,53,2241133004
42,16,18,Jits_Linear_8,2,5,63,98,2241190344
42,16,18,Jits_Linear_8,3,5,80,127,2241193708
42,16,18,Jits_Linear_8,0,5,80,127,2241650020
42,16,18,Jits_Linear_8,1,5,56,103,2241660144
42,16,18,Jits_Linear_8,2,1,48,46,2241677508
42,16,18,Jits_Linear_8,3,5,63,98,2241679696
42,16,18,Jits_Linear_8,0,5,63,98,2242220500
42,16,18,Jits_Linear_8,1,1,48,41,2242247436
42,16,18,Jits_Linear_8,2,5,80,127,2242279768
42,16,18,Jits_Linear_8,3,5,56,103,2242289964
42,16,18,Jits_Linear_8,0,1,48,53,2242816932
42,16,18,Jits_Linear_8,1,5,63,98,2242860352
42,16,18,Jits_Linear_8,2,5,80,127,2242890052
42,16,18,Jits_Linear_8,3,5,56,103,2242930052
42,16,18,Jits_Linear_8,0,5,56,103,2243419624
42,16,18,Jits_Linear_8,1,5,80,127,2243429820
42,16,18,Jits_Linear_8,2,1,48,57,2243438864
42,16,18,Jits_Linear_8,3,5,63,98,2243469752
42,16,18,Jits_Linear_8,0,5,80,127,2243950032
42,16,18,Jits_Linear_8,1,1,48,67,2243983792
42,16,18,Jits_Linear_8,2,5,56,103,2244029824
42,16,18,Jits_Linear_8,3,5,63,98,2244039944
42,16,18,Jits_Linear_8,0,1,48,66,2244559408
42,16,18,Jits_Linear_8,1,5,80,127,2244561204
42,16,18,Jits_Linear_8,2,1,38,17,2244569648
42,16,18,Jits_Linear_8,3,5,56,103,2244640096
42,16,18,Jits_Linear_8,4,5,63,98,2244650292
42,16,18,Jits_Linear_8,0,5,80,127,2245080496
42,16,18,Jits_Linear_8,1,5,56,103,2245129652
42,16,18,Jits_Linear_8,2,1,48,68,2245169808
42,16,18,Jits_Linear_8,3,5,63,98,2245179648
42,16,18,Jits_Linear_8,0,5,56,103,2245699856
42,16,18,Jits_Linear_8,1,5,63,98,2245703004
42,16,18,Jits_Linear_8,2,1,48,51,2245712948
42,16,18,Jits_Linear_8,3,5,80,127,2245750060
42,16,18,Jits_Linear_8,0,1,48,44,2246251284
42,16,18,Jits_Linear_8,1,5,56,103,2246279488
42,16,18,Jits_Linear_8,2,5,63,98,2246310356
42,16,18,Jits_Linear_8,3,5,80,127,2246319732
42,16,18,Jits_Linear_8,0,5,63,98,2246759768
42,16,18,Jits_Linear_8,1,1,48,52,2246798708
42,16,18,Jits_Linear_8,2,5,56,103,2246829448
42,16,18,Jits_Linear_8,3,5,80,127,2246879572
42,16,18,Jits_Linear_8,0,1,48,56,2247334928
42,16,18,Jits_Linear_8,1,5,63,98,2247349720
42,16,18,Jits_Linear_8,2,5,56,103,2247359840
42,16,18,Jits_Linear_8,3,5,80,127,2247362908
42,16,18,Jits_Linear_8,0,5,80,127,2247850288
42,16,18,Jits_Linear_8,1,1,48,54,2247888032
42,16,18,Jits_Linear_8,2,5,56,103,2247909704
42,16,18,Jits_Linear_8,3,5,63,98,2247999920
42,16,18,Jits_Linear_8,0,5,80,127,2248400400
42,16,18,Jits_Linear_8,1,5,56,103,2248499632
42,16,18,Jits_Linear_8,2,1,48,65,2248539348
42,16,18,Jits_Linear_8,3,5,63,98,2248541056
42,16,18,Jits_Linear_8,0,5,56,103,2249000708
42,16,18,Jits_Linear_8,1,5,63,98,2249019624
42,16,18,Jits_Linear_8,2,5,80,127,2249059564
42,16,18,Jits_Linear_8,3,1,48,45,2249083508
42,16,18,Jits_Linear_8,0,5,63,98,2249519972
42,16,18,Jits_Linear_8,1,5,56,103,2249539988
42,16,18,Jits_Linear_8,2,1,48,34,2249597560
42,16,18,Jits_Linear_8,3,5,80,127,2249640524
42,16,18,Jits_Linear_8,0,5,63,98,2250049776
42,16,18,Jits_Linear_8,1,1,48,59,2250095892
42,16,18,Jits_Linear_8,2,5,80,127,2250159536
42,16,18,Jits_Linear_8,3,5,56,103,2250190256
42,16,18,Jits_Linear_8,0,5,56,103,2250609916
42,16,18,Jits_Linear_8,1,5,63,98,2250639668
42,16,18,Jits_Linear_8,2,1,48,53,2250666380
42,16,18,Jits_Linear_8,3,5,80,127,2250689936
42,16,18,Jits_Linear_8,0,5,63,98,2251120096
42,16,18,Jits_Linear_8,1,5,56,103,2251149696
42,16,18,Jits_Linear_8,2,1,48,47,2251182264
42,16,18,Jits_Linear_8,3,5,80,127,2251199892
42,16,18,Jits_Linear_8,0,5,56,103,2251690344
42,16,18,Jits_Linear_8,1,1,48,46,2251704024
42,16,18,Jits_Linear_8,2,5,63,98,2251709752
42,16,18,Jits_Linear_8,3,5,80,127,2251789620
42,16,18,Jits_Linear_8,0,5,63,98,2252200452
42,16,18,Jits_Linear_8,1,1,48,50,2252228376
42,16,18,Jits_Linear_8,2,5,56,103,2252259568
42,16,18,Jits_Linear_8,3,5,80,127,2252290364
42,16,18,Jits_Linear_8,0,1,48,44,2252752164
42,16,18,Jits_Linear_8,1,5,56,103,2252779836
42,16,18,Jits_Linear_8,2,5,80,127,2252840452
42,16,18,Jits_Linear_8,3,5,63,98,2252880180
42,16,18,Jits_Linear_8,0,5,63,98,2253289792
42,16,18,Jits_Linear_8,1,1,48,51,2253325496
42,16,18,Jits_Linear_8,2,5,56,103,2253350476
42,16,18,Jits_Linear_8,3,5,80,127,2253421140
42,16,18,Jits_Linear_8,0,1,48,46,2253854604
42,16,18,Jits_Linear_8,1,5,56,103,2253900216
42,16,18,Jits_Linear_8,2,5,63,98,2253910340
42,16,18,Jits_Linear_8,3,5,80,127,2253913704
42,16,18,Jits_Linear_8,0,5,63,98,2254370352
42,16,18,Jits_Linear_8,1,1,48,49,2254399800
42,16,18,Jits_Linear_8,2,5,56,103,2254429564
42,16,18,Jits_Linear_8,3,5,80,127,2254432556
42,16,18,Jits_Linear_8,0,5,63,98,2254880284
42,16,18,Jits_Linear_8,1,5,80,127,2254909836
42,16,18,Jits_Linear_8,2,1,48,47,2254911400
42,16,18,Jits_Linear_8,3,5,56,103,2254930440
42,16,18,Jits_Linear_8,0,5,56,103,2255409504
42,16,18,Jits_Linear_8,1,1,48,57,2255426544
42,16,18,Jits_Linear_8,2,5,63,98,2255459552
42,16,18,Jits_Linear_8,3,5,80,127,2255539552
42,16,18,Jits_Linear_8,0,5,80,127,2255910364
42,16,18,Jits_Linear_8,1,5,63,98,2255950404
42,16,18,Jits_Linear_8,2,1,48,50,2255958776
42,16,18,Jits_Linear_8,3,5,56,103,2255969588
42,16,18,Jits_Linear_8,0,1,48,53,2256481676
42,16,18,Jits_Linear_8,1,5,56,103,2256500280
42,16,18,Jits_Linear_8,2,5,80,127,2256510404
42,16,18,Jits_Linear_8,3,5,63,98,2256529816
42,16,18,Jits_Linear_8,0,1,48,55,2256999968
42,16,18,Jits_Linear_8,1,5,56,103,2257001456
42,16,18,Jits_Linear_8,2,5,63,98,2257050092
42,16,18,Jits_Linear_8,3,5,80,127,2257079616
42,16,18,Jits_Linear_8,0,5,56,103,2257469680
42,16,18,Jits_Linear_8,1,5,63,98,2257480320
42,16,18,Jits_Linear_8,2,1,48,52,2257512812
42,16,18,Jits_Linear_8,3,5,80,127,2257530368
42,16,18,Jits_Linear_8,0,5,56,103,2257979620
42,16,18,Jits_Linear_8,1,5,80,127,2257982844
42,16,18,Jits_Linear_8,2,1,48,56,2258010692
42,16,18,Jits_Linear_8,3,5,63,98,2258139412
42,16,18,Jits_Linear_8,0,5,63,98,2258510176
42,16,18,Jits_Linear_8,1,1,48,46,2258546328
42,16,18,Jits_Linear_8,2,5,56,103,2258579852
42,16,18,Jits_Linear_8,3,5,80,127,2258619720
42,16,18,Jits_Linear_8,0,5,63,98,2259060352
42,16,18,Jits_Linear_8,1,1,48,57,2259070520
42,16,18,Jits_Linear_8,2,5,56,103,2259150184
42,16,18,Jits_Linear_8,3,5,80,127,2259153324
42,16,18,Jits_Linear_8,0,5,56,103,2259549468
42,16,18,Jits_Linear_8,1,1,48,53,2259599040
42,16,18,Jits_Linear_8,2,5,63,98,2259639596
42,16,18,Jits_Linear_8,3,5,80,127,2259650092
42,16,18,Jits_Linear_8,0,5,56,103,2260040244
42,16,18,Jits_Linear_8,1,5,63,98,2260090148
42,16,18,Jits_Linear_8,2,1,48,52,2260112452
42,16,18,Jits_Linear_8,3,5,80,127,2260120040
42,16,18,Jits_Linear_8,0,5,63,98,2260619580
42,16,18,Jits_Linear_8,1,1,48,53,2260628408
42,16,18,Jits_Linear_8,2,5,80,127,2260630140
42,16,18,Jits_Linear_8,3,5,56,103,2260690380
42,16,18,Jits_Linear_8,0,5,63,98,2261039396
42,16,18,Jits_Linear_8,1,5,80,127,2261100012
42,16,18,Jits_Linear_8,2,1,48,45,2261134068
42,16,18,Jits_Linear_8,3,5,56,103,2261139944
42,16,18,Jits_Linear_8,0,5,56,103,2261639468
42,16,18,Jits_Linear_8,1,1,48,48,2261646848
42,16,18,Jits_Linear_8,2,5,80,127,2261660144
42,16,18,Jits_Linear_8,3,5,63,98,2261679408
42,16,18,Jits_Linear_8,0,5,63,98,2262060324
42,16,18,Jits_Linear_8,1,5,56,103,2262080032
42,16,18,Jits_Linear_8,2,5,80,127,2262119896
42,16,18,Jits_Linear_8,3,1,48,43,2262196500
42,16,18,Jits_Linear_8,0,5,63,98,2262579480
42,16,18,Jits_Linear_8,1,5,80,127,2262610424
42,16,18,Jits_Linear_8,2,5,56,103,2262629616
42,16,18,Jits_Linear_8,3,1,48,43,2262759188
42,16,18,Jits_Linear_8,0,5,80,127,2263049532
42,16,18,Jits_Linear_8,1,5,56,103,2263099836
42,16,18,Jits_Linear_8,2,5,63,98,2263160152
42,16,18,Jits_Linear_8,3,1,48,54,2263285672
42,16,18,Jits_Linear_8,0,5,63,98,2263530116
42,16,18,Jits_Linear_8,1,5,56,103,2263649724
42,16,18,Jits_Linear_8,2,5,80,127,2263680372
42,16,18,Jits_Linear_8,3,1,48,52,2263824624
42,16,18,Jits_Linear_8,0,5,80,127,2264060360
42,16,18,Jits_Linear_8,1,5,63,98,2264079924
42,16,18,Jits_Linear_8,2,5,56,103,2264150528
42,16,18,Jits_Linear_8,0,1,48,52,2264386448
42,16,18,Jits_Linear_8,1,5,63,98,2264570260
42,16,18,Jits_Linear_8,2,5,56,103,2264579408
42,16,18,Jits_Linear_8,3,5,80,127,2264660200
42,16,18,Jits_Linear_8,0,1,48,57,2264964952
42,16,18,Jits_Linear_8,1,5,56,103,2265120064
42,16,18,Jits_Linear_8,2,5,80,127,2265149916
42,16,18,Jits_Linear_8,3,5,63,98,2265159964
42,16,18,Jits_Linear_8,0,9999,9999,9999,2154708088
42,16,18,Jits_Linear_8,1,9999,9999,9999,2155527260
42,16,18,Jits_Linear_8,2,9999,9999,9999,2156347504
42,16,18,Jits_Linear_8,3,9999,9999,9999,2157167724
42,16,18,Jits_Linear_8,4,9999,9999,9999,2157987936
42,16,18,Jits_Linear_8,5,9999,9999,9999,2158797884
42,16,18,Jits_Linear_8,6,9999,9999,9999,2159607912
42,16,18,Jits_Linear_8,7,9999,9999,9999,2160417872
42,16,18,Jits_Linear_8,8,9999,9999,9999,2161227864
42,16,18,Jits_Linear_8,9,9999,9999,9999,2162037868
42,16,18,Jits_Linear_8,10,9999,9999,9999,2162837568
42,16,18,Jits_Linear_8,11,9999,9999,9999,2163637324
42,16,18,Jits_Linear_8,12,9999,9999,9999,2164438068
42,16,18,Jits_Linear_8,13,9999,9999,9999,2165248096
42,16,18,Jits_Linear_8,14,9999,9999,9999,2166058100
42,16,18,Jits_Linear_8,15,9999,9999,9999,2166847544
42,16,18,Jits_Linear_8,16,9999,9999,9999,2167638140
42,16,18,Jits_Linear_8,17,9999,9999,9999,2168437836
42,16,18,Jits_Linear_8,18,9999,9999,9999,2169227332
42,16,18,Jits_Linear_8,19,9999,9999,9999,2170017876
42,16,18,Jits_Linear_8,20,9999,9999,9999,2170797172
42,16,18,Jits_Linear_8,21,9999,9999,9999,2171577444
42,16,18,Jits_Linear_8,22,9999,9999,9999,2172357724
42,16,18,Jits_Linear_8,23,9999,9999,9999,2173137996
42,16,18,Jits_Linear_8,24,9999,9999,9999,2173917296
42,16,18,Jits_Linear_8,25,9999,9999,9999,2174687304
42,16,18,Jits_Linear_8,26,9999,9999,9999,2175457392
42,16,18,Jits_Linear_8,27,9999,9999,9999,2176227456
42,16,18,Jits_Linear_8,28,9999,9999,9999,2176997480
42,16,18,Jits_Linear_8,29,9999,9999,9999,2177767500
42,16,18,Jits_Linear_8,30,9999,9999,9999,2178527320
42,16,18,Jits_Linear_8,31,9999,9999,9999,2179287140
42,16,18,Jits_Linear_8,32,9999,9999,9999,2180047932
42,16,18,Jits_Linear_8,33,9999,9999,9999,2180807760
42,16,18,Jits_Linear_8,34,9999,9999,9999,2181567596
42,16,18,Jits_Linear_8,35,9999,9999,9999,2182317164
42,16,18,Jits_Linear_8,36,9999,9999,9999,2183067772
42,16,18,Jits_Linear_8,37,9999,9999,9999,2183817276
42,16,18,Jits_Linear_8,38,9999,9999,9999,2184567888
42,16,18,Jits_Linear_8,39,9999,9999,9999,2185317464
42,16,18,Jits_Linear_8,40,9999,9999,9999,2186057812
42,16,18,Jits_Linear_8,41,9999,9999,9999,2186797168
42,16,18,Jits_Linear_8,42,9999,9999,9999,2187537500
42,16,18,Jits_Linear_8,43,9999,9999,9999,2188277848
42,16,18,Jits_Linear_8,44,9999,9999,9999,2189017204
42,16,18,Jits_Linear_8,45,9999,9999,9999,2189747284
42,16,18,Jits_Linear_8,46,9999,9999,9999,2190477380
42,16,18,Jits_Linear_8,47,9999,9999,9999,2191207544
42,16,18,Jits_Linear_8,48,9999,9999,9999,2191937640
42,16,18,Jits_Linear_8,49,9999,9999,9999,2192667700
42,16,18,Jits_Linear_8,50,9999,9999,9999,2193387588
42,16,18,Jits_Linear_8,51,9999,9999,9999,2194107492
42,16,18,Jits_Linear_8,52,9999,9999,9999,2194827336
42,16,18,Jits_Linear_8,53,9999,9999,9999,2195547232
42,16,18,Jits_Linear_8,54,9999,9999,9999,2196267092
42,16,18,Jits_Linear_8,55,9999,9999,9999,2196977776
42,16,18,Jits_Linear_8,56,9999,9999,9999,2197687400
42,16,18,Jits_Linear_8,57,9999,9999,9999,2198398076
42,16,18,Jits_Linear_8,58,9999,9999,9999,2199107704
42,16,18,Jits_Linear_8,59,9999,9999,9999,2199817308
42,16,18,Jits_Linear_8,60,9999,9999,9999,2200517720
42,16,18,Jits_Linear_8,61,9999,9999,9999,2201217088
42,16,18,Jits_Linear_8,62,9999,9999,9999,2201917500
42,16,18,Jits_Linear_8,63,9999,9999,9999,2202617956
42,16,18,Jits_Linear_8,64,9999,9999,9999,2203317320
42,16,18,Jits_Linear_8,65,9999,9999,9999,2204007548
42,16,18,Jits_Linear_8,66,9999,9999,9999,2204697688
42,16,18,Jits_Linear_8,67,9999,9999,9999,2205387844
42,16,18,Jits_Linear_8,68,9999,9999,9999,2206078052
42,16,18,Jits_Linear_8,69,9999,9999,9999,2206767216
42,16,18,Jits_Linear_8,70,9999,9999,9999,2207447104
42,16,18,Jits_Linear_8,71,9999,9999,9999,2208128084
42,16,18,Jits_Linear_8,72,9999,9999,9999,2208817224
42,16,18,Jits_Linear_8,73,9999,9999,9999,2209497184
42,16,18,Jits_Linear_8,74,9999,9999,9999,2210177148
42,16,18,Jits_Linear_8,75,9999,9999,9999,2210847868
42,16,18,Jits_Linear_8,76,9999,9999,9999,2211517504
42,16,18,Jits_Linear_8,77,9999,9999,9999,2212187216
42,16,18,Jits_Linear_8,78,9999,9999,9999,2212857944
42,16,18,Jits_Linear_8,79,9999,9999,9999,2213527632
42,16,18,Jits_Linear_8,80,9999,9999,9999,2214187112
42,16,18,Jits_Linear_8,81,9999,9999,9999,2214847560
42,16,18,Jits_Linear_8,82,9999,9999,9999,2215508040
42,16,18,Jits_Linear_8,83,9999,9999,9999,2216167516
42,16,18,Jits_Linear_8,84,9999,9999,9999,2216828004
42,16,18,Jits_Linear_8,85,9999,9999,9999,2217477244
42,16,18,Jits_Linear_8,86,9999,9999,9999,2218127472
42,16,18,Jits_Linear_8,87,9999,9999,9999,2218777656
42,16,18,Jits_Linear_8,88,9999,9999,9999,2219427944
42,16,18,Jits_Linear_8,89,9999,9999,9999,2220077168
42,16,18,Jits_Linear_8,90,9999,9999,9999,2220717164
42,16,18,Jits_Linear_8,91,9999,9999,9999,2221357176
42,16,18,Jits_Linear_8,92,9999,9999,9999,2221997136
42,16,18,Jits_Linear_8,93,9999,9999,9999,2222637136
42,16,18,Jits_Linear_8,94,9999,9999,9999,2223277156
42,16,18,Jits_Linear_8,95,9999,9999,9999,2223907956
42,16,18,Jits_Linear_8,96,9999,9999,9999,2224537656
42,16,18,Jits_Linear_8,97,9999,9999,9999,2225167468
42,16,18,Jits_Linear_8,98,9999,9999,9999,2225797176
42,16,18,Jits_Linear_8,99,9999,9999,9999,2226427980
42,16,18,Jits_Linear_8,100,9999,9999,9999,2227047484
42,16,18,Jits_Linear_8,101,9999,9999,9999,2227668084
42,16,18,Jits_Linear_8,102,9999,9999,9999,2228287592
42,16,18,Jits_Linear_8,103,9999,9999,9999,2228907084
42,16,18,Jits_Linear_8,104,9999,9999,9999,2229527616
42,16,18,Jits_Linear_8,105,9999,9999,9999,2230137984
42,16,18,Jits_Linear_8,106,9999,9999,9999,2230747260
42,16,18,Jits_Linear_8,107,9999,9999,9999,2231357524
42,16,18,Jits_Linear_8,108,9999,9999,9999,2231967860
42,16,18,Jits_Linear_8,109,9999,9999,9999,2232577144
42,16,18,Jits_Linear_8,110,9999,9999,9999,2233177180
42,16,18,Jits_Linear_8,111,9999,9999,9999,2233777252
42,16,18,Jits_Linear_8,112,9999,9999,9999,2234377336
42,16,18,Jits_Linear_8,113,9999,9999,9999,2234977372
42,16,18,Jits_Linear_8,114,9999,9999,9999,2235577452
42,16,18,Jits_Linear_8,115,9999,9999,9999,2236167256
42,16,18,Jits_Linear_8,116,9999,9999,9999,2236758080
42,16,18,Jits_Linear_8,117,9999,9999,9999,2237357128
42,16,18,Jits_Linear_8,118,9999,9999,9999,2237948000
42,16,18,Jits_Linear_8,119,9999,9999,9999,2238537844
42,16,18,Jits_Linear_8,120,9999,9999,9999,2239117396
42,16,18,Jits_Linear_8,121,9999,9999,9999,2239697988
42,16,18,Jits_Linear_8,122,9999,9999,9999,2240277600
42,16,18,Jits_Linear_8,123,9999,9999,9999,2240857164
42,16,18,Jits_Linear_8,124,9999,9999,9999,2241437760
42,16,18,Jits_Linear_8,125,9999,9999,9999,2242007120
42,16,18,Jits_Linear_8,126,9999,9999,9999,2242577536
42,16,18,Jits_Linear_8,127,9999,9999,9999,2243147888
42,16,18,Jits_Linear_8,128,9999,9999,9999,2243717244
42,16,18,Jits_Linear_8,129,9999,9999,9999,2244287584
42,16,18,Jits_Linear_8,130,9999,9999,9999,2244847728
42,16,18,Jits_Linear_8,131,9999,9999,9999,2245407860
42,16,18,Jits_Linear_8,132,9999,9999,9999,2245967956
42,16,18,Jits_Linear_8,133,9999,9999,9999,2246528120
42,16,18,Jits_Linear_8,134,9999,9999,9999,2247097396
42,16,18,Jits_Linear_8,135,9999,9999,9999,2247647336
42,16,18,Jits_Linear_8,136,9999,9999,9999,2248197208
42,16,18,Jits_Linear_8,137,9999,9999,9999,2248747100
42,16,18,Jits_Linear_8,138,9999,9999,9999,2249297980
42,16,18,Jits_Linear_8,139,9999,9999,9999,2249847864
42,16,18,Jits_Linear_8,140,9999,9999,9999,2250387556
42,16,18,Jits_Linear_8,141,9999,9999,9999,2250927168
42,16,18,Jits_Linear_8,142,9999,9999,9999,2251467836
42,16,18,Jits_Linear_8,143,9999,9999,9999,2252007520
42,16,18,Jits_Linear_8,144,9999,9999,9999,2252547144
42,16,18,Jits_Linear_8,145,9999,9999,9999,2253077616
42,16,18,Jits_Linear_8,146,9999,9999,9999,2253608016
42,16,18,Jits_Linear_8,147,9999,9999,9999,2254137452
42,16,18,Jits_Linear_8,148,9999,9999,9999,2254667840
42,16,18,Jits_Linear_8,149,9999,9999,9999,2255197256
42,16,18,Jits_Linear_8,150,9999,9999,9999,2255717464
42,16,18,Jits_Linear_8,151,9999,9999,9999,2256237680
42,16,18,Jits_Linear_8,152,9999,9999,9999,2256757828
42,16,18,Jits_Linear_8,153,9999,9999,9999,2257278036
42,16,18,Jits_Linear_8,154,9999,9999,9999,2257797188
42,16,18,Jits_Linear_8,155,9999,9999,9999,2258307132
42,16,18,Jits_Linear_8,156,9999,9999,9999,2258817092
42,16,18,Jits_Linear_8,157,9999,9999,9999,2259328080
42,16,18,Jits_Linear_8,158,9999,9999,9999,2259847244
42,16,18,Jits_Linear_8,159,9999,9999,9999,2260357196
42,16,18,Jits_Linear_8,160,9999,9999,9999,2260857940
42,16,18,Jits_Linear_8,161,9999,9999,9999,2261357692
42,16,18,Jits_Linear_8,162,9999,9999,9999,2261857380
42,16,18,Jits_Linear_8,163,9999,9999,9999,2262358092
42,16,18,Jits_Linear_8,164,9999,9999,9999,2262868032
42,16,18,Jits_Linear_8,165,9999,9999,9999,2263357536
42,16,18,Jits_Linear_8,166,9999,9999,9999,2263848064
42,16,18,Jits_Linear_8,167,9999,9999,9999,2264337480
42,16,18,Jits_Linear_8,168,9999,9999,9999,2264827972
42,16,18,Jits_Linear_8,169,9999,9999,9999,2265317472
42,17,19,Jits_Linear_5,0,5,56,103,2275348876
42,17,19,Jits_Linear_5,1,5,63,98,2275351824
42,17,19,Jits_Linear_5,2,5,80,127,2275355024
42,17,19,Jits_Linear_5,0,5,56,103,2275829188
42,17,19,Jits_Linear_5,1,5,63,98,2275832212
42,17,19,Jits_Linear_5,2,5,80,127,2275835408
42,17,19,Jits_Linear_5,0,1,48,53,2276301320
42,17,19,Jits_Linear_5,1,5,56,103,2276309288
42,17,19,Jits_Linear_5,2,5,80,127,2276318808
42,17,19,Jits_Linear_5,3,5,63,98,2276339044
42,17,19,Jits_Linear_5,0,5,63,98,2276738556
42,17,19,Jits_Linear_5,1,5,80,127,2276769132
42,17,19,Jits_Linear_5,2,5,56,103,2276779328
42,17,19,Jits_Linear_5,3,1,48,70,2276806632
42,17,19,Jits_Linear_5,0,1,48,68,2277250720
42,17,19,Jits_Linear_5,1,5,80,127,2277279144
42,17,19,Jits_Linear_5,2,5,56,103,2277289416
42,17,19,Jits_Linear_5,3,5,63,98,2277318940
42,17,19,Jits_Linear_5,0,1,48,63,2277734828
42,17,19,Jits_Linear_5,1,5,63,98,2277759284
42,17,19,Jits_Linear_5,2,5,56,103,2277789112
42,17,19,Jits_Linear_5,3,5,80,127,2277799456
42,17,19,Jits_Linear_5,0,5,56,103,2278198744
42,17,19,Jits_Linear_5,1,1,48,59,2278228540
42,17,19,Jits_Linear_5,2,5,63,98,2278248720
42,17,19,Jits_Linear_5,3,5,80,127,2278269252
42,17,19,Jits_Linear_5,0,5,80,127,2278689132
42,17,19,Jits_Linear_5,1,1,48,58,2278702164
42,17,19,Jits_Linear_5,2,5,63,98,2278739420
42,17,19,Jits_Linear_5,3,5,56,103,2278779212
42,17,19,Jits_Linear_5,0,5,56,103,2279178636
42,17,19,Jits_Linear_5,1,1,48,43,2279179604
42,17,19,Jits_Linear_5,2,5,63,98,2279209576
42,17,19,Jits_Linear_5,3,5,80,127,2279278972
42,17,19,Jits_Linear_5,0,5,56,103,2279669044
42,17,19,Jits_Linear_5,1,1,48,45,2279671640
42,17,19,Jits_Linear_5,2,5,80,127,2279728708
42,17,19,Jits_Linear_5,3,5,63,98,2279759208
42,17,19,Jits_Linear_5,0,1,48,54,2280156884
42,17,19,Jits_Linear_5,1,5,56,103,2280179156
42,17,19,Jits_Linear_5,2,5,63,98,2280189800
42,17,19,Jits_Linear_5,3,5,80,127,2280229516
42,17,19,Jits_Linear_5,0,1,48,75,2280653708
42,17,19,Jits_Linear_5,1,5,63,98,2280668728
42,17,19,Jits_Linear_5,2,5,80,127,2280749648
42,17,19,Jits_Linear_5,3,5,56,103,2280758708
42,17,19,Jits_Linear_5,0,1,48,76,2281153520
42,17,19,Jits_Linear_5,1,5,63,98,2281218368
42,17,19,Jits_Linear_5,2,5,56,103,2281259488
42,17,19,Jits_Linear_5,3,5,80,127,2281262556
42,17,19,Jits_Linear_5,0,5,56,103,2281679140
42,17,19,Jits_Linear_5,1,1,48,76,2281680852
42,17,19,Jits_Linear_5,2,5,63,98,2281688656
42,17,19,Jits_Linear_5,3,5,80,127,2281729572
42,17,19,Jits_Linear_5,0,5,56,103,2282168652
42,17,19,Jits_Linear_5,1,5,63,98,2282171644
42,17,19,Jits_Linear_5,2,5,80,127,2282189332
42,17,19,Jits_Linear_5,3,1,48,67,2282193956
42,17,19,Jits_Linear_5,0,1,48,68,2282683668
42,17,19,Jits_Linear_5,1,5,80,127,2282688864
42,17,19,Jits_Linear_5,2,5,56,103,2282698988
42,17,19,Jits_Linear_5,3,5,63,98,2282768668
42,17,19,Jits_Linear_5,0,1,48,66,2283176896
42,17,19,Jits_Linear_5,1,5,63,98,2283188628
42,17,19,Jits_Linear_5,2,5,56,103,2283209160
42,17,19,Jits_Linear_5,3,5,80,127,2283288944
42,17,19,Jits_Linear_5,0,1,48,64,2283671584
42,17,19,Jits_Linear_5,1,5,56,103,2283708696
42,17,19,Jits_Linear_5,2,5,80,127,2283748788
42,17,19,Jits_Linear_5,3,5,63,98,2283759132
42,17,19,Jits_Linear_5,0,1,48,64,2284187012
42,17,19,Jits_Linear_5,1,5,80,127,2284208608
42,17,19,Jits_Linear_5,2,5,63,98,2284239408
42,17,19,Jits_Linear_5,3,5,56,103,2284279032
42,17,19,Jits_Linear_5,0,1,48,75,2284680920
42,17,19,Jits_Linear_5,1,5,56,103,2284739012
42,17,19,Jits_Linear_5,2,5,63,98,2284768616
42,17,19,Jits_Linear_5,3,5,80,127,2284818804
42,17,19,Jits_Linear_5,0,1,48,75,2285178664
42,17,19,Jits_Linear_5,1,5,80,127,2285248968
42,17,19,Jits_Linear_5,2,5,56,103,2285288744
42,17,19,Jits_Linear_5,3,5,63,98,2285298940
42,17,19,Jits_Linear_5,0,1,48,73,2285695424
42,17,19,Jits_Linear_5,1,5,80,127,2285748732
42,17,19,Jits_Linear_5,2,5,63,98,2285788672
42,17,19,Jits_Linear_5,3,5,56,103,2285848828
42,17,19,Jits_Linear_5,0,1,48,76,2286230864
42,17,19,Jits_Linear_5,1,5,56,103,2286268724
42,17,19,Jits_Linear_5,2,5,80,127,2286279220
42,17,19,Jits_Linear_5,3,5,63,98,2286358928
42,17,19,Jits_Linear_5,0,1,48,74,2286763136
42,17,19,Jits_Linear_5,1,5,80,127,2286788940
42,17,19,Jits_Linear_5,2,5,63,98,2286849560
42,17,19,Jits_Linear_5,3,5,56,103,2286879220
42,17,19,Jits_Linear_5,0,1,48,74,2287297824
42,17,19,Jits_Linear_5,1,5,56,103,2287309304
42,17,19,Jits_Linear_5,2,5,80,127,2287368580
42,17,19,Jits_Linear_5,3,5,63,98,2287408528
42,17,19,Jits_Linear_5,0,1,48,64,2287823796
42,17,19,Jits_Linear_5,1,5,56,103,2287888868
42,17,19,Jits_Linear_5,2,5,63,98,2287899060
42,17,19,Jits_Linear_5,3,5,80,127,2287902352
42,17,19,Jits_Linear_5,0,1,48,46,2288333072
42,17,19,Jits_Linear_5,1,5,80,127,2288369068
42,17,19,Jits_Linear_5,2,5,63,98,2288459064
42,17,19,Jits_Linear_5,3,5,56,103,2288469264
42,17,19,Jits_Linear_5,0,1,48,62,2288845412
42,17,19,Jits_Linear_5,1,5,56,103,2288898552
42,17,19,Jits_Linear_5,2,5,63,98,2288901728
42,17,19,Jits_Linear_5,3,5,80,127,2288904772
42,17,19,Jits_Linear_5,0,1,48,72,2289363432
42,17,19,Jits_Linear_5,1,5,80,127,2289449400
42,17,19,Jits_Linear_5,2,5,63,98,2289498420
42,17,19,Jits_Linear_5,3,5,56,103,2289529444
42,17,19,Jits_Linear_5,0,1,48,78,2289873536
42,17,19,Jits_Linear_5,1,5,56,103,2289959504
42,17,19,Jits_Linear_5,2,5,80,127,2289968460
42,17,19,Jits_Linear_5,3,5,63,98,2290039248
42,17,19,Jits_Linear_5,0,1,48,73,2290355836
42,17,19,Jits_Linear_5,1,5,56,103,2290498988
42,17,19,Jits_Linear_5,2,5,63,98,2290519452
42,17,19,Jits_Linear_5,3,5,80,127,2290578868
42,17,19,Jits_Linear_5,0,1,48,53,2290911800
42,17,19,Jits_Linear_5,1,5,80,127,2291029320
42,17,19,Jits_Linear_5,2,5,63,98,2291098856
42,17,19,Jits_Linear_5,3,5,56,103,2291118420
42,17,19,Jits_Linear_5,0,1,48,41,2291582272
42,17,19,Jits_Linear_5,1,5,80,127,2291588368
42,17,19,Jits_Linear_5,2,1,38,18,2291591036
42,17,19,Jits_Linear_5,3,5,56,103,2291598556
42,17,19,Jits_Linear_5,4,5,63,98,2291609052
42,17,19,Jits_Linear_5,0,5,80,127,2292119256
42,17,19,Jits_Linear_5,1,1,48,65,2292134068
42,17,19,Jits_Linear_5,2,5,56,103,2292139488
42,17,19,Jits_Linear_5,3,5,63,98,2292209244
42,17,19,Jits_Linear_5,0,5,56,103,2292668640
42,17,19,Jits_Linear_5,1,1,48,72,2292678652
42,17,19,Jits_Linear_5,2,5,80,127,2292698532
42,17,19,Jits_Linear_5,3,5,63,98,2292719140
42,17,19,Jits_Linear_5,0,1,48,76,2293183888
42,17,19,Jits_Linear_5,1,5,63,98,2293208420
42,17,19,Jits_Linear_5,2,5,56,103,2293268812
42,17,19,Jits_Linear_5,3,5,80,127,2293298500
42,17,19,Jits_Linear_5,0,1,48,82,2293739780
42,17,19,Jits_Linear_5,1,5,63,98,2293749316
42,17,19,Jits_Linear_5,2,5,80,127,2293752604
42,17,19,Jits_Linear_5,3,5,56,103,2293840132
42,17,19,Jits_Linear_5,0,1,48,72,2294276252
42,17,19,Jits_Linear_5,1,5,56,103,2294318476
42,17,19,Jits_Linear_5,2,5,63,98,2294349348
42,17,19,Jits_Linear_5,3,5,80,127,2294389348
42,17,19,Jits_Linear_5,0,1,48,70,2294817888
42,17,19,Jits_Linear_5,1,5,63,98,2294869332
42,17,19,Jits_Linear_5,2,5,56,103,2294909272
42,17,19,Jits_Linear_5,3,5,80,127,2294928820
42,17,19,Jits_Linear_5,0,1,48,76,2295348544
42,17,19,Jits_Linear_5,1,5,63,98,2295428436
42,17,19,Jits_Linear_5,2,5,56,103,2295469408
42,17,19,Jits_Linear_5,3,5,80,127,2295478708
42,17,19,Jits_Linear_5,0,1,48,87,2295938216
42,17,19,Jits_Linear_5,1,5,80,127,2295958840
42,17,19,Jits_Linear_5,2,5,63,98,2296028676
42,17,19,Jits_Linear_5,3,5,56,103,2296049120
42,17,19,Jits_Linear_5,0,5,56,103,2296508660
42,17,19,Jits_Linear_5,1,1,48,69,2296509628
42,17,19,Jits_Linear_5,2,5,80,127,2296529188
42,17,19,Jits_Linear_5,3,5,63,98,2296569276
42,17,19,Jits_Linear_5,0,1,48,75,2297043012
42,17,19,Jits_Linear_5,1,5,63,98,2297079076
42,17,19,Jits_Linear_5,2,5,80,127,2297098564
42,17,19,Jits_Linear_5,3,5,56,103,2297138516
42,17,19,Jits_Linear_5,0,1,48,65,2297586064
42,17,19,Jits_Linear_5,1,5,63,98,2297639224
42,17,19,Jits_Linear_5,2,5,56,103,2297658884
42,17,19,Jits_Linear_5,3,5,80,127,2297669080
42,17,19,Jits_Linear_5,0,1,48,61,2298109880
42,17,19,Jits_Linear_5,1,5,80,127,2298199396
42,17,19,Jits_Linear_5,2,5,56,103,2298219016
42,17,19,Jits_Linear_5,3,5,63,98,2298248692
42,17,19,Jits_Linear_5,0,1,48,72,2298643124
42,17,19,Jits_Linear_5,1,5,56,103,2298839396
42,17,19,Jits_Linear_5,2,5,80,127,2298842684
42,17,19,Jits_Linear_5,3,5,63,98,2298858880
42,17,19,Jits_Linear_5,0,5,63,98,2299328984
42,17,19,Jits_Linear_5,1,5,56,103,2299358588
42,17,19,Jits_Linear_5,2,1,48,61,2299400220
42,17,19,Jits_Linear_5,3,5,80,127,2299419196
42,17,19,Jits_Linear_5,0,1,48,61,2299918172
42,17,19,Jits_Linear_5,1,5,63,98,2299979136
42,17,19,Jits_Linear_5,2,5,56,103,2299989408
42,17,19,Jits_Linear_5,3,5,80,127,2299998556
42,17,19,Jits_Linear_5,0,5,56,103,2300499212
42,17,19,Jits_Linear_5,1,1,48,62,2300512748
42,17,19,Jits_Linear_5,2,5,80,127,2300528960
42,17,19,Jits_Linear_5,3,5,63,98,2300539380
42,17,19,Jits_Linear_5,0,1,48,61,2301038444
42,17,19,Jits_Linear_5,1,5,63,98,2301108524
42,17,19,Jits_Linear_5,2,5,56,103,2301118872
42,17,19,Jits_Linear_5,3,5,80,127,2301139164
42,17,19,Jits_Linear_5,0,1,48,70,2301582636
42,17,19,Jits_Linear_5,1,5,56,103,2301609188
42,17,19,Jits_Linear_5,2,5,63,98,2301668684
42,17,19,Jits_Linear_5,3,5,80,127,2301672200
42,17,19,Jits_Linear_5,0,1,48,43,2302129668
42,17,19,Jits_Linear_5,1,5,80,127,2302209340
42,17,19,Jits_Linear_5,2,5,56,103,2302218488
42,17,19,Jits_Linear_5,3,5,63,98,2302289152
42,17,19,Jits_Linear_5,0,1,48,70,2302734540
42,17,19,Jits_Linear_5,1,5,80,127,2302778804
42,17,19,Jits_Linear_5,2,5,56,103,2302849300
42,17,19,Jits_Linear_5,3,5,63,98,2302858744
42,17,19,Jits_Linear_5,0,1,48,87,2303326796
42,17,19,Jits_Linear_5,1,5,63,98,2303399272
42,17,19,Jits_Linear_5,2,5,56,103,2303408716
42,17,19,Jits_Linear_5,3,5,80,127,2303429088
42,17,19,Jits_Linear_5,0,1,48,67,2303863936
42,17,19,Jits_Linear_5,1,5,80,127,2303928628
42,17,19,Jits_Linear_5,2,5,63,98,2303989080
42,17,19,Jits_Linear_5,3,5,56,103,2304029020
42,17,19,Jits_Linear_5,0,1,48,69,2304409108
42,17,19,Jits_Linear_5,1,5,56,103,2304558468
42,17,19,Jits_Linear_5,2,5,63,98,2304568816
42,17,19,Jits_Linear_5,3,5,80,127,2304608756
42,17,19,Jits_Linear_5,0,1,48,85,2305041108
42,17,19,Jits_Linear_5,1,5,56,103,2305109492
42,17,19,Jits_Linear_5,2,5,80,127,2305139004
42,17,19,Jits_Linear_5,3,5,63,98,2305189132
42,17,19,Jits_Linear_5,0,1,48,91,2305609448
42,17,19,Jits_Linear_5,1,5,56,103,2305739080
42,17,19,Jits_Linear_5,2,5,63,98,2305778940
42,17,19,Jits_Linear_5,3,5,80,127,2305782532
42,17,19,Jits_Linear_5,0,1,48,76,2306203444
42,17,19,Jits_Linear_5,1,5,56,103,2306328888
42,17,19,Jits_Linear_5,2,5,63,98,2306339084
42,17,19,Jits_Linear_5,3,5,80,127,2306358896
42,17,19,Jits_Linear_5,0,1,48,64,2306811404
42,17,19,Jits_Linear_5,1,5,56,103,2306878884
42,17,19,Jits_Linear_5,2,5,80,127,2306881804
42,17,19,Jits_Linear_5,3,5,63,98,2306918960
42,17,19,Jits_Linear_5,0,1,48,71,2307442744
42,17,19,Jits_Linear_5,1,5,63,98,2307508704
42,17,19,Jits_Linear_5,2,5,56,103,2307540236
42,17,19,Jits_Linear_5,3,5,80,127,2307559120
42,17,19,Jits_Linear_5,0,1,48,83,2307965860
42,17,19,Jits_Linear_5,1,5,80,127,2308079096
42,17,19,Jits_Linear_5,2,5,56,103,2308089068
42,17,19,Jits_Linear_5,3,5,63,98,2308098440
42,17,19,Jits_Linear_5,0,1,48,72,2308523316
42,17,19,Jits_Linear_5,1,5,56,103,2308679124
42,17,19,Jits_Linear_5,2,5,80,127,2308718916
42,17,19,Jits_Linear_5,3,5,63,98,2308748740
42,17,19,Jits_Linear_5,0,1,48,72,2309106376
42,17,19,Jits_Linear_5,1,5,63,98,2309289316
42,17,19,Jits_Linear_5,2,5,80,127,2309298616
42,17,19,Jits_Linear_5,3,5,56,103,2309308736
42,17,19,Jits_Linear_5,0,1,48,83,2309736080
42,17,19,Jits_Linear_5,1,5,56,103,2309868796
42,17,19,Jits_Linear_5,2,5,63,98,2309938656
42,17,19,Jits_Linear_5,3,5,80,127,2309948780
42,17,19,Jits_Linear_5,0,1,48,71,2310340220
42,17,19,Jits_Linear_5,1,5,80,127,2310479240
42,17,19,Jits_Linear_5,2,5,56,103,2310488464
42,17,19,Jits_Linear_5,3,5,63,98,2310538596
42,17,19,Jits_Linear_5,0,1,48,78,2310968048
42,17,19,Jits_Linear_5,1,5,80,127,2311098876
42,17,19,Jits_Linear_5,2,5,56,103,2311159268
42,17,19,Jits_Linear_5,3,5,63,98,2311188796
42,17,19,Jits_Linear_5,0,1,48,61,2311716168
42,17,19,Jits_Linear_5,1,5,56,103,2311719420
42,17,19,Jits_Linear_5,2,5,80,127,2311722340
42,17,19,Jits_Linear_5,3,5,63,98,2311759308
42,17,19,Jits_Linear_5,0,1,48,52,2312350508
42,17,19,Jits_Linear_5,1,5,56,103,2312359228
42,17,19,Jits_Linear_5,2,5,63,98,2312388828
42,17,19,Jits_Linear_5,3,5,80,127,2312399248
42,17,19,Jits_Linear_5,0,1,48,73,2312859860
42,17,19,Jits_Linear_5,1,5,63,98,2312978700
42,17,19,Jits_Linear_5,2,5,80,127,2312988972
42,17,19,Jits_Linear_5,3,5,56,103,2312999464
42,17,19,Jits_Linear_5,0,1,48,65,2313410192
42,17,19,Jits_Linear_5,1,5,80,127,2313538800
42,17,19,Jits_Linear_5,2,5,56,103,2313589076
42,17,19,Jits_Linear_5,3,5,63,98,2313592144
42,17,19,Jits_Linear_5,0,1,48,58,2313998872
42,17,19,Jits_Linear_5,1,5,56,103,2314189216
42,17,19,Jits_Linear_5,2,5,80,127,2314208780
42,17,19,Jits_Linear_5,3,5,63,98,2314218752
42,17,19,Jits_Linear_5,0,1,48,63,2314784860
42,17,19,Jits_Linear_5,1,5,63,98,2314789088
42,17,19,Jits_Linear_5,2,5,56,103,2314818792
42,17,19,Jits_Linear_5,3,5,80,127,2314839476
42,17,19,Jits_Linear_5,0,1,48,72,2315348036
42,17,19,Jits_Linear_5,1,5,56,103,2315419012
42,17,19,Jits_Linear_5,2,5,80,127,2315429504
42,17,19,Jits_Linear_5,3,5,63,98,2315498800
42,17,19,Jits_Linear_5,0,1,48,69,2315946824
42,17,19,Jits_Linear_5,1,5,63,98,2316029504
42,17,19,Jits_Linear_5,2,5,80,127,2316069280
42,17,19,Jits_Linear_5,3,5,56,103,2316109244
42,17,19,Jits_Linear_5,0,1,48,65,2316520244
42,17,19,Jits_Linear_5,1,5,56,103,2316669456
42,17,19,Jits_Linear_5,2,5,63,98,2316678752
42,17,19,Jits_Linear_5,3,5,80,127,2316698916
42,17,19,Jits_Linear_5,0,1,48,67,2317141772
42,17,19,Jits_Linear_5,1,5,63,98,2317339064
42,17,19,Jits_Linear_5,2,5,80,127,2317358652
42,17,19,Jits_Linear_5,3,5,56,103,2317378888
42,17,19,Jits_Linear_5,0,5,56,103,2317909528
42,17,19,Jits_Linear_5,1,1,48,51,2317975352
42,17,19,Jits_Linear_5,2,5,80,127,2317989172
42,17,19,Jits_Linear_5,3,5,63,98,2317998620
42,17,19,Jits_Linear_5,0,5,80,127,2318579080
42,17,19,Jits_Linear_5,1,1,48,54,2318582276
42,17,19,Jits_Linear_5,2,5,63,98,2318589496
42,17,19,Jits_Linear_5,3,5,56,103,2318618872
42,17,19,Jits_Linear_5,0,5,63,98,2319168864
42,17,19,Jits_Linear_5,1,1,48,56,2319189592
42,17,19,Jits_Linear_5,2,5,80,127,2319208724
42,17,19,Jits_Linear_5,3,5,56,103,2319269412
42,17,19,Jits_Linear_5,0,5,63,98,2319809028
42,17,19,Jits_Linear_5,1,1,48,59,2319815892
42,17,19,Jits_Linear_5,2,5,56,103,2319859152
42,17,19,Jits_Linear_5,3,5,80,127,2319888604
42,17,19,Jits_Linear_5,0,1,48,71,2320434936
42,17,19,Jits_Linear_5,1,5,80,127,2320459248
42,17,19,Jits_Linear_5,2,5,63,98,2320469368
42,17,19,Jits_Linear_5,3,5,56,103,2320539112
42,17,19,Jits_Linear_5,0,1,48,65,2321070396
42,17,19,Jits_Linear_5,1,5,80,127,2321168720
42,17,19,Jits_Linear_5,2,5,56,103,2321179196
42,17,19,Jits_Linear_5,3,5,63,98,2321182116
42,17,19,Jits_Linear_5,0,1,48,59,2321738976
42,17,19,Jits_Linear_5,1,5,56,103,2321749484
42,17,19,Jits_Linear_5,2,5,80,127,2321768676
42,17,19,Jits_Linear_5,3,5,63,98,2321779092
42,17,19,Jits_Linear_5,0,1,48,59,2322370672
42,17,19,Jits_Linear_5,1,5,63,98,2322398640
42,17,19,Jits_Linear_5,2,5,56,103,2322438584
42,17,19,Jits_Linear_5,3,5,80,127,2322458968
42,17,19,Jits_Linear_5,0,1,48,54,2323013400
42,17,19,Jits_Linear_5,1,5,63,98,2323048796
42,17,19,Jits_Linear_5,2,5,56,103,2323109484
42,17,19,Jits_Linear_5,3,5,80,127,2323112332
42,17,19,Jits_Linear_5,0,5,56,103,2323659064
42,17,19,Jits_Linear_5,1,1,48,59,2323670504
42,17,19,Jits_Linear_5,2,5,80,127,2323678696
42,17,19,Jits_Linear_5,3,5,63,98,2323718560
42,17,19,Jits_Linear_5,0,1,48,67,2324303648
42,17,19,Jits_Linear_5,1,5,56,103,2324339192
42,17,19,Jits_Linear_5,2,5,63,98,2324358684
42,17,19,Jits_Linear_5,3,5,80,127,2324368880
42,17,19,Jits_Linear_5,0,1,48,64,2324953852
42,17,19,Jits_Linear_5,1,5,80,127,2324958680
42,17,19,Jits_Linear_5,2,5,56,103,2324989552
42,17,19,Jits_Linear_5,3,5,63,98,2325029492
42,17,19,Jits_Linear_5,0,1,48,52,2325606792
42,17,19,Jits_Linear_5,1,5,80,127,2325618948
42,17,19,Jits_Linear_5,2,5,56,103,2325638660
42,17,19,Jits_Linear_5,3,5,63,98,2325700160
42,17,19,Jits_Linear_5,0,1,48,71,2326237736
42,17,19,Jits_Linear_5,1,5,56,103,2326278444
42,17,19,Jits_Linear_5,2,5,80,127,2326299276
42,17,19,Jits_Linear_5,3,5,63,98,2326359380
42,17,19,Jits_Linear_5,0,5,80,127,2326918492
42,17,19,Jits_Linear_5,1,5,56,103,2326928688
42,17,19,Jits_Linear_5,2,1,48,65,2326947324
42,17,19,Jits_Linear_5,3,5,63,98,2326968620
42,17,19,Jits_Linear_5,0,5,63,98,2327578968
42,17,19,Jits_Linear_5,1,1,48,68,2327583136
42,17,19,Jits_Linear_5,2,5,56,103,2327618924
42,17,19,Jits_Linear_5,3,5,80,127,2327622288
42,17,19,Jits_Linear_5,0,1,48,51,2328229376
42,17,19,Jits_Linear_5,1,5,63,98,2328258920
42,17,19,Jits_Linear_5,2,5,80,127,2328298784
42,17,19,Jits_Linear_5,3,5,56,103,2328328596
42,17,19,Jits_Linear_5,0,1,48,57,2328895028
42,17,19,Jits_Linear_5,1,5,56,103,2328909372
42,17,19,Jits_Linear_5,2,5,63,98,2328919344
42,17,19,Jits_Linear_5,3,5,80,127,2328949320
42,17,19,Jits_Linear_5,0,1,48,60,2329542164
42,17,19,Jits_Linear_5,1,5,80,127,2329568564
42,17,19,Jits_Linear_5,2,5,63,98,2329639208
42,17,19,Jits_Linear_5,3,5,56,103,2329648532
42,17,19,Jits_Linear_5,0,5,63,98,2330239332
42,17,19,Jits_Linear_5,1,1,48,56,2330260208
42,17,19,Jits_Linear_5,2,5,56,103,2330309156
42,17,19,Jits_Linear_5,3,5,80,127,2330319204
42,17,19,Jits_Linear_5,0,5,63,98,2330909020
42,17,19,Jits_Linear_5,1,1,48,54,2330913556
42,17,19,Jits_Linear_5,2,5,56,103,2330928448
42,17,19,Jits_Linear_5,3,5,80,127,2330968536
42,17,19,Jits_Linear_5,0,1,48,56,2331517704
42,17,19,Jits_Linear_5,1,5,56,103,2331589204
42,17,19,Jits_Linear_5,2,5,63,98,2331599400
42,17,19,Jits_Linear_5,3,5,80,127,2331679328
42,17,19,Jits_Linear_5,0,1,48,59,2332194344
42,17,19,Jits_Linear_5,1,5,63,98,2332248500
42,17,19,Jits_Linear_5,2,5,56,103,2332279148
42,17,19,Jits_Linear_5,3,5,80,127,2332319296
42,17,19,Jits_Linear_5,0,1,48,58,2332870204
42,17,19,Jits_Linear_5,1,5,56,103,2332919228
42,17,19,Jits_Linear_5,2,5,63,98,2332959244
42,17,19,Jits_Linear_5,3,5,80,127,2332999120
42,17,19,Jits_Linear_5,0,1,48,53,2333570256
42,17,19,Jits_Linear_5,1,5,80,127,2333599348
42,17,19,Jits_Linear_5,2,5,56,103,2333678984
42,17,19,Jits_Linear_5,3,5,63,98,2333689180
42,17,19,Jits_Linear_5,0,1,48,54,2334287016
42,17,19,Jits_Linear_5,1,5,56,103,2334319024
42,17,19,Jits_Linear_5,2,5,63,98,2334322092
42,17,19,Jits_Linear_5,3,5,80,127,2334329072
42,17,19,Jits_Linear_5,0,1,48,69,2334942964
42,17,19,Jits_Linear_5,1,5,56,103,2335019444
42,17,19,Jits_Linear_5,2,5,63,98,2335038708
42,17,19,Jits_Linear_5,3,5,80,127,2335049036
42,17,19,Jits_Linear_5,0,1,48,65,2335645940
42,17,19,Jits_Linear_5,1,5,63,98,2335659236
42,17,19,Jits_Linear_5,2,5,80,127,2335668536
42,17,19,Jits_Linear_5,3,5,56,103,2335689216
42,17,19,Jits_Linear_5,0,1,48,51,2336298028
42,17,19,Jits_Linear_5,1,5,63,98,2336348552
42,17,19,Jits_Linear_5,2,5,56,103,2336429456
42,17,19,Jits_Linear_5,3,5,80,127,2336432596
42,17,19,Jits_Linear_5,0,1,48,48,2337012576
42,17,19,Jits_Linear_5,1,5,63,98,2337038604
42,17,19,Jits_Linear_5,2,5,56,103,2337059216
42,17,19,Jits_Linear_5,3,5,80,127,2337088988
42,17,19,Jits_Linear_5,0,1,48,52,2337718704
42,17,19,Jits_Linear_5,1,5,56,103,2337728840
42,17,19,Jits_Linear_5,2,5,63,98,2337749452
42,17,19,Jits_Linear_5,3,5,80,127,2337758524
42,17,19,Jits_Linear_5,0,1,48,58,2338392896
42,17,19,Jits_Linear_5,1,5,56,103,2338448968
42,17,19,Jits_Linear_5,2,5,63,98,2338478424
42,17,19,Jits_Linear_5,3,5,80,127,2338481712
42,17,19,Jits_Linear_5,0,1,48,58,2339083480
42,17,19,Jits_Linear_5,1,5,56,103,2339088828
42,17,19,Jits_Linear_5,2,5,63,98,2339128792
42,17,19,Jits_Linear_5,3,5,80,127,2339189240
42,17,19,Jits_Linear_5,0,1,48,41,2339786988
42,17,19,Jits_Linear_5,1,5,56,103,2339799368
42,17,19,Jits_Linear_5,2,5,63,98,2339808592
42,17,19,Jits_Linear_5,3,5,80,127,2339869060
42,17,19,Jits_Linear_5,0,1,48,55,2340455932
42,17,19,Jits_Linear_5,1,5,56,103,2340498972
42,17,19,Jits_Linear_5,2,5,80,127,2340519284
42,17,19,Jits_Linear_5,3,5,63,98,2340549032
42,17,19,Jits_Linear_5,0,1,48,62,2341173592
42,17,19,Jits_Linear_5,1,5,80,127,2341199172
42,17,19,Jits_Linear_5,2,5,56,103,2341208468
42,17,19,Jits_Linear_5,3,5,63,98,2341228780
42,17,19,Jits_Linear_5,0,1,48,56,2341849720
42,17,19,Jits_Linear_5,1,5,63,98,2341889308
42,17,19,Jits_Linear_5,2,5,80,127,2341969192
42,17,19,Jits_Linear_5,3,5,56,103,2341978416
42,17,19,Jits_Linear_5,0,1,48,65,2342589332
42,17,19,Jits_Linear_5,1,5,80,127,2342649224
42,17,19,Jits_Linear_5,2,5,56,103,2342668932
42,17,19,Jits_Linear_5,3,5,63,98,2342671852
42,17,19,Jits_Linear_5,0,5,63,98,2343329120
42,17,19,Jits_Linear_5,1,5,80,127,2343332340
42,17,19,Jits_Linear_5,2,1,48,58,2343354336
42,17,19,Jits_Linear_5,3,5,56,103,2343388684
42,17,19,Jits_Linear_5,0,5,56,103,2344019276
42,17,19,Jits_Linear_5,1,1,48,72,2344026056
42,17,19,Jits_Linear_5,2,5,80,127,2344028716
42,17,19,Jits_Linear_5,3,1,38,18,2344036404
42,17,19,Jits_Linear_5,4,5,63,98,2344068428
42,17,19,Jits_Linear_5,0,1,48,67,2344667252
42,17,19,Jits_Linear_5,1,5,56,103,2344708404
42,17,19,Jits_Linear_5,2,5,63,98,2344768736
42,17,19,Jits_Linear_5,3,5,80,127,2344779080
42,17,19,Jits_Linear_5,0,1,48,55,2345413896
42,17,19,Jits_Linear_5,1,5,63,98,2345429284
42,17,19,Jits_Linear_5,2,5,80,127,2345469228
42,17,19,Jits_Linear_5,3,5,56,103,2345509164
42,17,19,Jits_Linear_5,0,5,56,103,2346138932
42,17,19,Jits_Linear_5,1,1,48,58,2346148128
42,17,19,Jits_Linear_5,2,5,63,98,2346218872
42,17,19,Jits_Linear_5,3,5,80,127,2346222316
42,17,19,Jits_Linear_5,0,1,48,69,2346824864
42,17,19,Jits_Linear_5,1,5,80,127,2346909040
42,17,19,Jits_Linear_5,2,5,56,103,2346938772
42,17,19,Jits_Linear_5,3,5,63,98,2346941768
42,17,19,Jits_Linear_5,0,1,48,49,2347565444
42,17,19,Jits_Linear_5,1,5,56,103,2347588932
42,17,19,Jits_Linear_5,2,5,80,127,2347608492
42,17,19,Jits_Linear_5,3,5,63,98,2347649332
42,17,19,Jits_Linear_5,0,5,80,127,2348289340
42,17,19,Jits_Linear_5,1,5,63,98,2348308972
42,17,19,Jits_Linear_5,2,1,48,52,2348342316
42,17,19,Jits_Linear_5,3,5,56,103,2348369308
42,17,19,Jits_Linear_5,0,1,48,70,2349015064
42,17,19,Jits_Linear_5,1,5,63,98,2349018764
42,17,19,Jits_Linear_5,2,5,56,103,2349028884
42,17,19,Jits_Linear_5,3,5,80,127,2349078864
42,17,19,Jits_Linear_5,0,1,48,64,2349714356
42,17,19,Jits_Linear_5,1,5,56,103,2349729224
42,17,19,Jits_Linear_5,2,5,63,98,2349748716
42,17,19,Jits_Linear_5,3,5,80,127,2349758836
42,17,19,Jits_Linear_5,0,1,48,60,2350390664
42,17,19,Jits_Linear_5,1,5,56,103,2350449124
42,17,19,Jits_Linear_5,2,5,63,98,2350452044
42,17,19,Jits_Linear_5,3,5,80,127,2350468540
42,17,19,Jits_Linear_5,0,1,48,63,2351126792
42,17,19,Jits_Linear_5,1,5,63,98,2351218992
42,17,19,Jits_Linear_5,2,5,56,103,2351248732
42,17,19,Jits_Linear_5,3,5,80,127,2351278556
42,17,19,Jits_Linear_5,0,5,80,127,2351909140
42,17,19,Jits_Linear_5,1,1,48,48,2351911808
42,17,19,Jits_Linear_5,2,5,56,103,2351999520
42,17,19,Jits_Linear_5,3,5,63,98,2352002660
42,17,19,Jits_Linear_5,0,5,56,103,2352639464
42,17,19,Jits_Linear_5,1,5,80,127,2352642608
42,17,19,Jits_Linear_5,2,1,48,58,2352702844
42,17,19,Jits_Linear_5,3,5,63,98,2352719204
42,17,19,Jits_Linear_5,0,1,48,64,2353337548
42,17,19,Jits_Linear_5,1,5,80,127,2353368588
42,17,19,Jits_Linear_5,2,5,63,98,2353428980
42,17,19,Jits_Linear_5,3,5,56,103,2353458444
42,17,19,Jits_Linear_5,0,1,48,61,2354086060
42,17,19,Jits_Linear_5,1,5,63,98,2354098536
42,17,19,Jits_Linear_5,2,5,80,127,2354108880
42,17,19,Jits_Linear_5,3,5,56,103,2354178560
42,17,19,Jits_Linear_5,0,1,48,65,2354845152
42,17,19,Jits_Linear_5,1,5,56,103,2354849080
42,17,19,Jits_Linear_5,2,5,80,127,2354878756
42,17,19,Jits_Linear_5,3,5,63,98,2354928960
42,17,19,Jits_Linear_5,0,1,48,67,2355598180
42,17,19,Jits_Linear_5,1,5,63,98,2355629448
42,17,19,Jits_Linear_5,2,5,56,103,2355659124
42,17,19,Jits_Linear_5,3,5,80,127,2355662340
42,17,19,Jits_Linear_5,0,1,48,69,2356316116
42,17,19,Jits_Linear_5,1,5,63,98,2356368680
42,17,19,Jits_Linear_5,2,5,80,127,2356389508
42,17,19,Jits_Linear_5,3,5,56,103,2356398512
42,17,19,Jits_Linear_5,0,1,48,57,2357063976
42,17,19,Jits_Linear_5,1,5,56,103,2357119524
42,17,19,Jits_Linear_5,2,5,63,98,2357122516
42,17,19,Jits_Linear_5,3,5,80,127,2357138712
42,17,19,Jits_Linear_5,0,5,56,103,2357818676
42,17,19,Jits_Linear_5,1,1,48,78,2357826208
42,17,19,Jits_Linear_5,2,5,63,98,2357828868
42,17,19,Jits_Linear_5,3,1,38,18,2357837016
42,17,19,Jits_Linear_5,4,5,80,127,2357858760
42,17,19,Jits_Linear_5,0,1,48,63,2358540820
42,17,19,Jits_Linear_5,1,5,63,98,2358588672
42,17,19,Jits_Linear_5,2,5,80,127,2358609428
42,17,19,Jits_Linear_5,3,5,56,103,2358649280
42,17,19,Jits_Linear_5,0,1,48,61,2359237496
42,17,19,Jits_Linear_5,1,5,56,103,2359369172
42,17,19,Jits_Linear_5,2,5,63,98,2359409184
42,17,19,Jits_Linear_5,3,5,80,127,2359412404
42,17,19,Jits_Linear_5,0,5,80,127,2360059396
42,17,19,Jits_Linear_5,1,1,48,61,2360087248
42,17,19,Jits_Linear_5,2,5,56,103,2360099404
42,17,19,Jits_Linear_5,3,5,63,98,2360149560
42,17,19,Jits_Linear_5,0,1,48,52,2360819820
42,17,19,Jits_Linear_5,1,5,56,103,2360869220
42,17,19,Jits_Linear_5,2,5,80,127,2360878392
42,17,19,Jits_Linear_5,3,5,63,98,2360909264
42,17,19,Jits_Linear_5,0,5,56,103,2361568676
42,17,19,Jits_Linear_5,1,5,80,127,2361608468
42,17,19,Jits_Linear_5,2,1,48,57,2361609436
42,17,19,Jits_Linear_5,3,5,63,98,2361658616
42,17,19,Jits_Linear_5,0,1,48,47,2362321080
42,17,19,Jits_Linear_5,1,5,56,103,2362328520
42,17,19,Jits_Linear_5,2,5,80,127,2362369436
42,17,19,Jits_Linear_5,3,5,63,98,2362418544
42,17,19,Jits_Linear_5,0,5,80,127,2363079148
42,17,19,Jits_Linear_5,1,1,48,64,2363110820
42,17,19,Jits_Linear_5,2,5,63,98,2363158868
42,17,19,Jits_Linear_5,3,5,56,103,2363169140
42,17,19,Jits_Linear_5,0,1,48,59,2363855000
42,17,19,Jits_Linear_5,1,5,80,127,2363889196
42,17,19,Jits_Linear_5,2,5,56,103,2363899544
42,17,19,Jits_Linear_5,3,5,63,98,2363918584
42,17,19,Jits_Linear_5,0,5,63,98,2364619224
42,17,19,Jits_Linear_5,1,1,48,74,2364625260
42,17,19,Jits_Linear_5,2,5,56,103,2364688752
42,17,19,Jits_Linear_5,3,5,80,127,2364691820
42,17,19,Jits_Linear_5,0,1,48,68,2365361640
42,17,19,Jits_Linear_5,1,5,80,127,2365379048
42,17,19,Jits_Linear_5,2,5,63,98,2365429328
42,17,19,Jits_Linear_5,3,5,56,103,2365469248
42,17,19,Jits_Linear_5,0,1,48,77,2366148304
42,17,19,Jits_Linear_5,1,5,63,98,2366188864
42,17,19,Jits_Linear_5,2,5,56,103,2366228880
42,17,19,Jits_Linear_5,3,5,80,127,2366239296
42,17,19,Jits_Linear_5,0,5,63,98,2366948632
42,17,19,Jits_Linear_5,1,1,48,67,2366961120
42,17,19,Jits_Linear_5,2,5,56,103,2366969308
42,17,19,Jits_Linear_5,3,5,80,127,2366988648
42,17,19,Jits_Linear_5,0,5,80,127,2367678800
42,17,19,Jits_Linear_5,1,5,56,103,2367689368
42,17,19,Jits_Linear_5,2,5,63,98,2367708484
42,17,19,Jits_Linear_5,3,1,48,74,2367733176
42,17,19,Jits_Linear_5,0,1,48,58,2368427064
42,17,19,Jits_Linear_5,1,5,63,98,2368478724
42,17,19,Jits_Linear_5,2,5,56,103,2368518368
42,17,19,Jits_Linear_5,3,5,80,127,2368549224
42,17,19,Jits_Linear_5,0,1,48,64,2369164280
42,17,19,Jits_Linear_5,1,5,56,103,2369259076
42,17,19,Jits_Linear_5,2,5,63,98,2369288460
42,17,19,Jits_Linear_5,3,5,80,127,2369319256
42,17,19,Jits_Linear_5,0,1,48,67,2369977928
42,17,19,Jits_Linear_5,1,5,80,127,2370008444
42,17,19,Jits_Linear_5,2,5,56,103,2370079004
42,17,19,Jits_Linear_5,3,5,63,98,2370082004
42,17,19,Jits_Linear_5,0,5,56,103,2370799292
42,17,19,Jits_Linear_5,1,1,48,64,2370808940
42,17,19,Jits_Linear_5,2,5,63,98,2370849344
42,17,19,Jits_Linear_5,3,5,80,127,2370879116
42,17,19,Jits_Linear_5,0,5,63,98,2371558772
42,17,19,Jits_Linear_5,1,5,80,127,2371562284
42,17,19,Jits_Linear_5,2,1,48,63,2371589392
42,17,19,Jits_Linear_5,3,5,56,103,2371619080
42,17,19,Jits_Linear_5,0,1,48,65,2372312564
42,17,19,Jits_Linear_5,1,5,56,103,2372369012
42,17,19,Jits_Linear_5,2,5,80,127,2372379356
42,17,19,Jits_Linear_5,3,5,63,98,2372429124
42,17,19,Jits_Linear_5,0,1,48,50,2373116976
42,17,19,Jits_Linear_5,1,5,63,98,2373128700
42,17,19,Jits_Linear_5,2,5,56,103,2373138748
42,17,19,Jits_Linear_5,3,5,80,127,2373168448
42,17,19,Jits_Linear_5,0,1,48,65,2373885796
42,17,19,Jits_Linear_5,1,5,63,98,2373949100
42,17,19,Jits_Linear_5,2,5,80,127,2373952236
42,17,19,Jits_Linear_5,3,5,56,103,2373978548
42,17,19,Jits_Linear_5,0,1,48,49,2374720064
42,17,19,Jits_Linear_5,1,5,63,98,2374758824
42,17,19,Jits_Linear_5,2,5,56,103,2374779356
42,17,19,Jits_Linear_5,3,5,80,127,2374782352
42,17,19,Jits_Linear_5,0,5,63,98,2375509368
42,17,19,Jits_Linear_5,1,1,48,61,2375543128
42,17,19,Jits_Linear_5,2,1,38,16,2375552996
42,17,19,Jits_Linear_5,3,5,56,103,2375579248
42,17,19,Jits_Linear_5,4,5,80,127,2375598436
42,17,19,Jits_Linear_5,0,5,56,103,2376288708
42,17,19,Jits_Linear_5,1,5,63,98,2376298980
42,17,19,Jits_Linear_5,2,1,48,67,2376306212
42,17,19,Jits_Linear_5,3,1,38,17,2376316604
42,17,19,Jits_Linear_5,4,5,80,127,2376389088
42,17,19,Jits_Linear_5,0,1,48,78,2377028920
42,17,19,Jits_Linear_5,1,5,56,103,2377098476
42,17,19,Jits_Linear_5,2,5,80,127,2377138552
42,17,19,Jits_Linear_5,3,5,63,98,2377149120
42,17,19,Jits_Linear_5,0,1,48,69,2377824856
42,17,19,Jits_Linear_5,1,5,56,103,2377918924
42,17,19,Jits_Linear_5,2,5,63,98,2377948512
42,17,19,Jits_Linear_5,3,5,80,127,2377979232
42,17,19,Jits_Linear_5,0,1,48,60,2378643140
42,17,19,Jits_Linear_5,1,5,80,127,2378679056
42,17,19,Jits_Linear_5,2,5,63,98,2378718924
42,17,19,Jits_Linear_5,3,5,56,103,2378738996
42,17,19,Jits_Linear_5,0,1,48,56,2379434364
42,17,19,Jits_Linear_5,1,5,56,103,2379519284
42,17,19,Jits_Linear_5,2,5,80,127,2379538832
42,17,19,Jits_Linear_5,3,5,63,98,2379559216
42,17,19,Jits_Linear_5,0,5,63,98,2380289296
42,17,19,Jits_Linear_5,1,1,48,51,2380294952
42,17,19,Jits_Linear_5,2,5,56,103,2380299180
42,17,19,Jits_Linear_5,3,5,80,127,2380359004
42,17,19,Jits_Linear_5,0,5,56,103,2381099276
42,17,19,Jits_Linear_5,1,1,48,52,2381113104
42,17,19,Jits_Linear_5,2,5,63,98,2381168952
42,17,19,Jits_Linear_5,3,5,80,127,2381188516
42,17,19,Jits_Linear_5,0,5,56,103,2381909324
42,17,19,Jits_Linear_5,1,5,63,98,2381938928
42,17,19,Jits_Linear_5,2,1,48,66,2381945192
42,17,19,Jits_Linear_5,3,5,80,127,2381979012
42,17,19,Jits_Linear_5,0,1,48,62,2382684572
42,17,19,Jits_Linear_5,1,5,63,98,2382709028
42,17,19,Jits_Linear_5,2,5,56,103,2382759232
42,17,19,Jits_Linear_5,3,5,80,127,2382768456
42,17,19,Jits_Linear_5,0,1,48,45,2383476020
42,17,19,Jits_Linear_5,1,5,56,103,2383558920
42,17,19,Jits_Linear_5,2,5,63,98,2383609112
42,17,19,Jits_Linear_5,3,5,80,127,2383618560
42,17,19,Jits_Linear_5,0,1,48,61,2384300080
42,17,19,Jits_Linear_5,1,5,56,103,2384339288
42,17,19,Jits_Linear_5,2,5,63,98,2384348812
42,17,19,Jits_Linear_5,3,5,80,127,2384429368
42,17,19,Jits_Linear_5,0,9999,9999,9999,2275586140
42,17,19,Jits_Linear_5,1,9999,9999,9999,2276066376
42,17,19,Jits_Linear_5,2,9999,9999,9999,2276546688
42,17,19,Jits_Linear_5,3,9999,9999,9999,2277026892
42,17,19,Jits_Linear_5,4,9999,9999,9999,2277506132
42,17,19,Jits_Linear_5,5,9999,9999,9999,2277996612
42,17,19,Jits_Linear_5,6,9999,9999,9999,2278486112
42,17,19,Jits_Linear_5,7,9999,9999,9999,2278976592
42,17,19,Jits_Linear_5,8,9999,9999,9999,2279467128
42,17,19,Jits_Linear_5,9,9999,9999,9999,2279966824
42,17,19,Jits_Linear_5,10,9999,9999,9999,2280466528
42,17,19,Jits_Linear_5,11,9999,9999,9999,2280966268
42,17,19,Jits_Linear_5,12,9999,9999,9999,2281466968
42,17,19,Jits_Linear_5,13,9999,9999,9999,2281966656
42,17,19,Jits_Linear_5,14,9999,9999,9999,2282466420
42,17,19,Jits_Linear_5,15,9999,9999,9999,2282976312
42,17,19,Jits_Linear_5,16,9999,9999,9999,2283486264
42,17,19,Jits_Linear_5,17,9999,9999,9999,2283996216
42,17,19,Jits_Linear_5,18,9999,9999,9999,2284506168
42,17,19,Jits_Linear_5,19,9999,9999,9999,2285016124
42,17,19,Jits_Linear_5,20,9999,9999,9999,2285536340
42,17,19,Jits_Linear_5,21,9999,9999,9999,2286056560
42,17,19,Jits_Linear_5,22,9999,9999,9999,2286576700
42,17,19,Jits_Linear_5,23,9999,9999,9999,2287096912
42,17,19,Jits_Linear_5,24,9999,9999,9999,2287616084
42,17,19,Jits_Linear_5,25,9999,9999,9999,2288146560
42,17,19,Jits_Linear_5,26,9999,9999,9999,2288676968
42,17,19,Jits_Linear_5,27,9999,9999,9999,2289206396
42,17,19,Jits_Linear_5,28,9999,9999,9999,2289736800
42,17,19,Jits_Linear_5,29,9999,9999,9999,2290266232
42,17,19,Jits_Linear_5,30,9999,9999,9999,2290806900
42,17,19,Jits_Linear_5,31,9999,9999,9999,2291346528
42,17,19,Jits_Linear_5,32,9999,9999,9999,2291886188
42,17,19,Jits_Linear_5,33,9999,9999,9999,2292426852
42,17,19,Jits_Linear_5,34,9999,9999,9999,2292966492
42,17,19,Jits_Linear_5,35,9999,9999,9999,2293516392
42,17,19,Jits_Linear_5,36,9999,9999,9999,2294066296
42,17,19,Jits_Linear_5,37,9999,9999,9999,2294616184
42,17,19,Jits_Linear_5,38,9999,9999,9999,2295167040
42,17,19,Jits_Linear_5,39,9999,9999,9999,2295716928
42,17,19,Jits_Linear_5,40,9999,9999,9999,2296277076
42,17,19,Jits_Linear_5,41,9999,9999,9999,2296836176
42,17,19,Jits_Linear_5,42,9999,9999,9999,2297396288
42,17,19,Jits_Linear_5,43,9999,9999,9999,2297956432
42,17,19,Jits_Linear_5,44,9999,9999,9999,2298516580
42,17,19,Jits_Linear_5,45,9999,9999,9999,2299086912
42,17,19,Jits_Linear_5,46,9999,9999,9999,2299656280
42,17,19,Jits_Linear_5,47,9999,9999,9999,2300226648
42,17,19,Jits_Linear_5,48,9999,9999,9999,2300796988
42,17,19,Jits_Linear_5,49,9999,9999,9999,2301366376
42,17,19,Jits_Linear_5,50,9999,9999,9999,2301946972
42,17,19,Jits_Linear_5,51,9999,9999,9999,2302526552
42,17,19,Jits_Linear_5,52,9999,9999,9999,2303106108
42,17,19,Jits_Linear_5,53,9999,9999,9999,2303686712
42,17,19,Jits_Linear_5,54,9999,9999,9999,2304266344
42,17,19,Jits_Linear_5,55,9999,9999,9999,2304856120
42,17,19,Jits_Linear_5,56,9999,9999,9999,2305446984
42,17,19,Jits_Linear_5,57,9999,9999,9999,2306036792
42,17,19,Jits_Linear_5,58,9999,9999,9999,2306626636
42,17,19,Jits_Linear_5,59,9999,9999,9999,2307216440
42,17,19,Jits_Linear_5,60,9999,9999,9999,2307816524
42,17,19,Jits_Linear_5,61,9999,9999,9999,2308416624
42,17,19,Jits_Linear_5,62,9999,9999,9999,2309016628
42,17,19,Jits_Linear_5,63,9999,9999,9999,2309616704
42,17,19,Jits_Linear_5,64,9999,9999,9999,2310216816
42,17,19,Jits_Linear_5,65,9999,9999,9999,2310827084
42,17,19,Jits_Linear_5,66,9999,9999,9999,2311446644
42,17,19,Jits_Linear_5,67,9999,9999,9999,2312056924
42,17,19,Jits_Linear_5,68,9999,9999,9999,2312666224
42,17,19,Jits_Linear_5,69,9999,9999,9999,2313276520
42,17,19,Jits_Linear_5,70,9999,9999,9999,2313897044
42,17,19,Jits_Linear_5,71,9999,9999,9999,2314516604
42,17,19,Jits_Linear_5,72,9999,9999,9999,2315136116
42,17,19,Jits_Linear_5,73,9999,9999,9999,2315756648
42,17,19,Jits_Linear_5,74,9999,9999,9999,2316376160
42,17,19,Jits_Linear_5,75,9999,9999,9999,2317006956
42,17,19,Jits_Linear_5,76,9999,9999,9999,2317636664
42,17,19,Jits_Linear_5,77,9999,9999,9999,2318266492
42,17,19,Jits_Linear_5,78,9999,9999,9999,2318896212
42,17,19,Jits_Linear_5,79,9999,9999,9999,2319527024
42,17,19,Jits_Linear_5,80,9999,9999,9999,2320167040
42,17,19,Jits_Linear_5,81,9999,9999,9999,2320807000
42,17,19,Jits_Linear_5,82,9999,9999,9999,2321447012
42,17,19,Jits_Linear_5,83,9999,9999,9999,2322086972
42,17,19,Jits_Linear_5,84,9999,9999,9999,2322726992
42,17,19,Jits_Linear_5,85,9999,9999,9999,2323376240
42,17,19,Jits_Linear_5,86,9999,9999,9999,2324026464
42,17,19,Jits_Linear_5,87,9999,9999,9999,2324676680
42,17,19,Jits_Linear_5,88,9999,9999,9999,2325326908
42,17,19,Jits_Linear_5,89,9999,9999,9999,2325976144
42,17,19,Jits_Linear_5,90,9999,9999,9999,2326636632
42,17,19,Jits_Linear_5,91,9999,9999,9999,2327296124
42,17,19,Jits_Linear_5,92,9999,9999,9999,2327956540
42,17,19,Jits_Linear_5,93,9999,9999,9999,2328617084
42,17,19,Jits_Linear_5,94,9999,9999,9999,2329276524
42,17,19,Jits_Linear_5,95,9999,9999,9999,2329946236
42,17,19,Jits_Linear_5,96,9999,9999,9999,2330616896
42,17,19,Jits_Linear_5,97,9999,9999,9999,2331286600
42,17,19,Jits_Linear_5,98,9999,9999,9999,2331956308
42,17,19,Jits_Linear_5,99,9999,9999,9999,2332627040
42,17,19,Jits_Linear_5,100,9999,9999,9999,2333306936
42,17,19,Jits_Linear_5,101,9999,9999,9999,2333986884
42,17,19,Jits_Linear_5,102,9999,9999,9999,2334666840
42,17,19,Jits_Linear_5,103,9999,9999,9999,2335346744
42,17,19,Jits_Linear_5,104,9999,9999,9999,2336026688
42,17,19,Jits_Linear_5,105,9999,9999,9999,2336716896
42,17,19,Jits_Linear_5,106,9999,9999,9999,2337407056
42,17,19,Jits_Linear_5,107,9999,9999,9999,2338096244
42,17,19,Jits_Linear_5,108,9999,9999,9999,2338786376
42,17,19,Jits_Linear_5,109,9999,9999,9999,2339476536
42,17,19,Jits_Linear_5,110,9999,9999,9999,2340176964
42,17,19,Jits_Linear_5,111,9999,9999,9999,2340876388
42,17,19,Jits_Linear_5,112,9999,9999,9999,2341576812
42,17,19,Jits_Linear_5,113,9999,9999,9999,2342276192
42,17,19,Jits_Linear_5,114,9999,9999,9999,2342976612
42,17,19,Jits_Linear_5,115,9999,9999,9999,2343686224
42,17,19,Jits_Linear_5,116,9999,9999,9999,2344396876
42,17,19,Jits_Linear_5,117,9999,9999,9999,2345106528
42,17,19,Jits_Linear_5,118,9999,9999,9999,2345816168
42,17,19,Jits_Linear_5,119,9999,9999,9999,2346526828
42,17,19,Jits_Linear_5,120,9999,9999,9999,2347246664
42,17,19,Jits_Linear_5,121,9999,9999,9999,2347966572
42,17,19,Jits_Linear_5,122,9999,9999,9999,2348686400
42,17,19,Jits_Linear_5,123,9999,9999,9999,2349406320
42,17,19,Jits_Linear_5,124,9999,9999,9999,2350126148
42,17,19,Jits_Linear_5,125,9999,9999,9999,2350856276
42,17,19,Jits_Linear_5,126,9999,9999,9999,2351586376
42,17,19,Jits_Linear_5,127,9999,9999,9999,2352316536
42,17,19,Jits_Linear_5,128,9999,9999,9999,2353046636
42,17,19,Jits_Linear_5,129,9999,9999,9999,2353776748
42,17,19,Jits_Linear_5,130,9999,9999,9999,2354517104
42,17,19,Jits_Linear_5,131,9999,9999,9999,2355256412
42,17,19,Jits_Linear_5,132,9999,9999,9999,2355996740
42,17,19,Jits_Linear_5,133,9999,9999,9999,2356736056
42,17,19,Jits_Linear_5,134,9999,9999,9999,2357476404
42,17,19,Jits_Linear_5,135,9999,9999,9999,2358227064
42,17,19,Jits_Linear_5,136,9999,9999,9999,2358976576
42,17,19,Jits_Linear_5,137,9999,9999,9999,2359726144
42,17,19,Jits_Linear_5,138,9999,9999,9999,2360476768
42,17,19,Jits_Linear_5,139,9999,9999,9999,2361226356
42,17,19,Jits_Linear_5,140,9999,9999,9999,2361986120
42,17,19,Jits_Linear_5,141,9999,9999,9999,2362746944
42,17,19,Jits_Linear_5,142,9999,9999,9999,2363506784
42,17,19,Jits_Linear_5,143,9999,9999,9999,2364266564
42,17,19,Jits_Linear_5,144,9999,9999,9999,2365026396
42,17,19,Jits_Linear_5,145,9999,9999,9999,2365796424
42,17,19,Jits_Linear_5,146,9999,9999,9999,2366566524
42,17,19,Jits_Linear_5,147,9999,9999,9999,2367336552
42,17,19,Jits_Linear_5,148,9999,9999,9999,2368106576
42,17,19,Jits_Linear_5,149,9999,9999,9999,2368876620
42,17,19,Jits_Linear_5,150,9999,9999,9999,2369656912
42,17,19,Jits_Linear_5,151,9999,9999,9999,2370436220
42,17,19,Jits_Linear_5,152,9999,9999,9999,2371216436
42,17,19,Jits_Linear_5,153,9999,9999,9999,2371996728
42,17,19,Jits_Linear_5,154,9999,9999,9999,2372777020
42,17,19,Jits_Linear_5,155,9999,9999,9999,2373566524
42,17,19,Jits_Linear_5,156,9999,9999,9999,2374357068
42,17,19,Jits_Linear_5,157,9999,9999,9999,2375146568
42,17,19,Jits_Linear_5,158,9999,9999,9999,2375936104
42,17,19,Jits_Linear_5,159,9999,9999,9999,2376726604
42,17,19,Jits_Linear_5,160,9999,9999,9999,2377526336
42,17,19,Jits_Linear_5,161,9999,9999,9999,2378326108
42,17,19,Jits_Linear_5,162,9999,9999,9999,2379126848
42,17,19,Jits_Linear_5,163,9999,9999,9999,2379926592
42,17,19,Jits_Linear_5,164,9999,9999,9999,2380726360
42,17,19,Jits_Linear_5,165,9999,9999,9999,2381536324
42,17,19,Jits_Linear_5,166,9999,9999,9999,2382346296
42,17,19,Jits_Linear_5,167,9999,9999,9999,2383156292
42,17,19,Jits_Linear_5,168,9999,9999,9999,2383966332
42,17,19,Jits_Linear_5,169,9999,9999,9999,2384776288
42,18,7,Jits_ISO_8,0,5,56,103,2396107252
42,18,7,Jits_ISO_8,1,5,63,98,2396110272
42,18,7,Jits_ISO_8,2,5,80,127,2396113320
42,18,7,Jits_ISO_8,0,5,56,103,2396906880
42,18,7,Jits_ISO_8,1,5,63,98,2396909828
42,18,7,Jits_ISO_8,2,5,80,127,2396913024
42,18,7,Jits_ISO_8,0,5,80,127,2397647404
42,18,7,Jits_ISO_8,1,1,48,53,2397665296
42,18,7,Jits_ISO_8,2,5,63,98,2397737560
42,18,7,Jits_ISO_8,3,5,56,103,2397746488
42,18,7,Jits_ISO_8,0,5,56,103,2398466536
42,18,7,Jits_ISO_8,1,5,63,98,2398476584
42,18,7,Jits_ISO_8,2,1,48,55,2398479556
42,18,7,Jits_ISO_8,3,5,80,127,2398566660
42,18,7,Jits_ISO_8,0,5,63,98,2399236440
42,18,7,Jits_ISO_8,1,5,80,127,2399267164
42,18,7,Jits_ISO_8,2,5,56,103,2399296940
42,18,7,Jits_ISO_8,3,1,48,63,2399300660
42,18,7,Jits_ISO_8,0,1,48,61,2400033556
42,18,7,Jits_ISO_8,1,5,56,103,2400037484
42,18,7,Jits_ISO_8,2,5,80,127,2400136552
42,18,7,Jits_ISO_8,3,5,63,98,2400186828
42,18,7,Jits_ISO_8,0,1,48,62,2400807156
42,18,7,Jits_ISO_8,1,5,56,103,2400836924
42,18,7,Jits_ISO_8,2,5,80,127,2400887500
42,18,7,Jits_ISO_8,3,5,63,98,2400927348
42,18,7,Jits_ISO_8,0,1,48,62,2401648668
42,18,7,Jits_ISO_8,1,5,80,127,2401666372
42,18,7,Jits_ISO_8,2,5,63,98,2401697244
42,18,7,Jits_ISO_8,3,5,56,103,2401766764
42,18,7,Jits_ISO_8,0,1,48,65,2402459160
42,18,7,Jits_ISO_8,1,5,63,98,2402497248
42,18,7,Jits_ISO_8,2,5,56,103,2402526552
42,18,7,Jits_ISO_8,3,5,80,127,2402586852
42,18,7,Jits_ISO_8,0,5,56,103,2403237176
42,18,7,Jits_ISO_8,1,5,80,127,2403240392
42,18,7,Jits_ISO_8,2,1,48,54,2403286824
42,18,7,Jits_ISO_8,3,5,63,98,2403357048
42,18,7,Jits_ISO_8,0,1,48,53,2404009656
42,18,7,Jits_ISO_8,1,5,56,103,2404116736
42,18,7,Jits_ISO_8,2,5,80,127,2404156704
42,18,7,Jits_ISO_8,3,5,63,98,2404167196
42,18,7,Jits_ISO_8,0,1,48,62,2404848484
42,18,7,Jits_ISO_8,1,5,56,103,2404876608
42,18,7,Jits_ISO_8,2,5,80,127,2404897068
42,18,7,Jits_ISO_8,3,5,63,98,2404977096
42,18,7,Jits_ISO_8,0,1,48,74,2405663396
42,18,7,Jits_ISO_8,1,5,80,127,2405667176
42,18,7,Jits_ISO_8,2,5,56,103,2405766392
42,18,7,Jits_ISO_8,3,5,63,98,2405776736
42,18,7,Jits_ISO_8,0,5,63,98,2406437228
42,18,7,Jits_ISO_8,1,5,80,127,2406496500
42,18,7,Jits_ISO_8,2,1,48,59,2406503880
42,18,7,Jits_ISO_8,3,5,56,103,2406507060
42,18,7,Jits_ISO_8,0,1,48,64,2407212616
42,18,7,Jits_ISO_8,1,5,56,103,2407237224
42,18,7,Jits_ISO_8,2,5,63,98,2407306536
42,18,7,Jits_ISO_8,3,5,80,127,2407310932
42,18,7,Jits_ISO_8,0,1,48,76,2407993436
42,18,7,Jits_ISO_8,1,5,63,98,2408066372
42,18,7,Jits_ISO_8,2,5,56,103,2408116632
42,18,7,Jits_ISO_8,3,5,80,127,2408119848
42,18,7,Jits_ISO_8,0,1,48,58,2408797864
42,18,7,Jits_ISO_8,1,5,56,103,2408827184
42,18,7,Jits_ISO_8,2,5,80,127,2408830176
42,18,7,Jits_ISO_8,3,5,63,98,2408917304
42,18,7,Jits_ISO_8,0,1,48,57,2409636900
42,18,7,Jits_ISO_8,1,5,63,98,2409667040
42,18,7,Jits_ISO_8,2,5,56,103,2409757164
42,18,7,Jits_ISO_8,3,5,80,127,2409786712
42,18,7,Jits_ISO_8,0,1,48,67,2410445980
42,18,7,Jits_ISO_8,1,5,56,103,2410456492
42,18,7,Jits_ISO_8,2,5,63,98,2410556900
42,18,7,Jits_ISO_8,3,5,80,127,2410586352
42,18,7,Jits_ISO_8,0,1,48,37,2411265844
42,18,7,Jits_ISO_8,1,5,63,98,2411276660
42,18,7,Jits_ISO_8,2,5,56,103,2411287080
42,18,7,Jits_ISO_8,3,5,80,127,2411377072
42,18,7,Jits_ISO_8,0,1,48,51,2412038056
42,18,7,Jits_ISO_8,1,5,63,98,2412096996
42,18,7,Jits_ISO_8,2,5,56,103,2412176704
42,18,7,Jits_ISO_8,3,5,80,127,2412179844
42,18,7,Jits_ISO_8,0,1,48,70,2412828848
42,18,7,Jits_ISO_8,1,5,80,127,2412857068
42,18,7,Jits_ISO_8,2,5,63,98,2412877080
42,18,7,Jits_ISO_8,3,5,56,103,2412936708
42,18,7,Jits_ISO_8,0,1,48,64,2413639888
42,18,7,Jits_ISO_8,1,5,56,103,2413697384
42,18,7,Jits_ISO_8,2,5,63,98,2413716792
42,18,7,Jits_ISO_8,3,5,80,127,2413720084
42,18,7,Jits_ISO_8,0,5,63,98,2414436928
42,18,7,Jits_ISO_8,1,1,48,67,2414455936
42,18,7,Jits_ISO_8,2,5,80,127,2414516792
42,18,7,Jits_ISO_8,3,5,56,103,2414526988
42,18,7,Jits_ISO_8,0,5,63,98,2415256936
42,18,7,Jits_ISO_8,1,1,48,52,2415272936
42,18,7,Jits_ISO_8,2,5,56,103,2415277540
42,18,7,Jits_ISO_8,3,5,80,127,2415326696
42,18,7,Jits_ISO_8,0,1,48,63,2416034648
42,18,7,Jits_ISO_8,1,5,80,127,2416057012
42,18,7,Jits_ISO_8,2,5,63,98,2416096952
42,18,7,Jits_ISO_8,3,5,56,103,2416116964
42,18,7,Jits_ISO_8,0,1,48,64,2416876104
42,18,7,Jits_ISO_8,1,5,56,103,2416897332
42,18,7,Jits_ISO_8,2,5,63,98,2416906628
42,18,7,Jits_ISO_8,3,5,80,127,2416927016
42,18,7,Jits_ISO_8,0,5,56,103,2417626468
42,18,7,Jits_ISO_8,1,1,48,64,2417663892
42,18,7,Jits_ISO_8,2,5,63,98,2417716700
42,18,7,Jits_ISO_8,3,5,80,127,2417777000
42,18,7,Jits_ISO_8,0,1,48,56,2418439864
42,18,7,Jits_ISO_8,1,5,80,127,2418456980
42,18,7,Jits_ISO_8,2,5,56,103,2418467248
42,18,7,Jits_ISO_8,3,5,63,98,2418536988
42,18,7,Jits_ISO_8,0,1,48,54,2419239948
42,18,7,Jits_ISO_8,1,5,63,98,2419287700
42,18,7,Jits_ISO_8,2,5,80,127,2419376700
42,18,7,Jits_ISO_8,3,5,56,103,2419386676
42,18,7,Jits_ISO_8,0,5,63,98,2420026736
42,18,7,Jits_ISO_8,1,1,48,69,2420054440
42,18,7,Jits_ISO_8,2,5,80,127,2420076860
42,18,7,Jits_ISO_8,3,5,56,103,2420137252
42,18,7,Jits_ISO_8,0,5,56,103,2420857236
42,18,7,Jits_ISO_8,1,1,48,62,2420875120
42,18,7,Jits_ISO_8,2,1,38,16,2420885520
42,18,7,Jits_ISO_8,3,5,80,127,2420907488
42,18,7,Jits_ISO_8,4,5,63,98,2420926752
42,18,7,Jits_ISO_8,0,1,48,56,2421627484
42,18,7,Jits_ISO_8,1,5,56,103,2421628976
42,18,7,Jits_ISO_8,2,5,80,127,2421686824
42,18,7,Jits_ISO_8,3,5,63,98,2421757240
42,18,7,Jits_ISO_8,0,5,56,103,2422426896
42,18,7,Jits_ISO_8,1,5,80,127,2422456572
42,18,7,Jits_ISO_8,2,1,48,73,2422481856
42,18,7,Jits_ISO_8,3,5,63,98,2422487808
42,18,7,Jits_ISO_8,0,5,56,103,2423266768
42,18,7,Jits_ISO_8,1,5,80,127,2423287152
42,18,7,Jits_ISO_8,2,1,48,63,2423303748
42,18,7,Jits_ISO_8,3,5,63,98,2423346740
42,18,7,Jits_ISO_8,0,5,80,127,2424147432
42,18,7,Jits_ISO_8,1,1,48,51,2424149000
42,18,7,Jits_ISO_8,2,5,56,103,2424156652
42,18,7,Jits_ISO_8,3,5,63,98,2424166624
42,18,7,Jits_ISO_8,0,5,56,103,2424907084
42,18,7,Jits_ISO_8,1,5,80,127,2424947028
42,18,7,Jits_ISO_8,2,5,63,98,2424976700
42,18,7,Jits_ISO_8,3,1,48,71,2424980568
42,18,7,Jits_ISO_8,4,1,38,18,2424990964
42,18,7,Jits_ISO_8,0,5,56,103,2425677116
42,18,7,Jits_ISO_8,1,5,63,98,2425706720
42,18,7,Jits_ISO_8,2,5,80,127,2425746880
42,18,7,Jits_ISO_8,3,1,48,65,2425803256
42,18,7,Jits_ISO_8,4,1,38,17,2425813648
42,18,7,Jits_ISO_8,0,5,80,127,2426426688
42,18,7,Jits_ISO_8,1,5,63,98,2426476892
42,18,7,Jits_ISO_8,2,5,56,103,2426497500
42,18,7,Jits_ISO_8,3,1,48,67,2426590520
42,18,7,Jits_ISO_8,4,1,38,17,2426600984
42,18,7,Jits_ISO_8,0,5,56,103,2427257464
42,18,7,Jits_ISO_8,1,5,80,127,2427326852
42,18,7,Jits_ISO_8,2,1,48,74,2427327892
42,18,7,Jits_ISO_8,3,1,38,18,2427338580
42,18,7,Jits_ISO_8,4,5,63,98,2427387456
42,18,7,Jits_ISO_8,0,5,80,127,2428056896
42,18,7,Jits_ISO_8,1,1,48,73,2428085496
42,18,7,Jits_ISO_8,2,5,63,98,2428147028
42,18,7,Jits_ISO_8,3,5,56,103,2428166440
42,18,7,Jits_ISO_8,0,5,63,98,2428877152
42,18,7,Jits_ISO_8,1,1,48,70,2428893452
42,18,7,Jits_ISO_8,2,5,56,103,2428896556
42,18,7,Jits_ISO_8,3,5,80,127,2428936496
42,18,7,Jits_ISO_8,0,5,80,127,2429636852
42,18,7,Jits_ISO_8,1,5,63,98,2429656708
42,18,7,Jits_ISO_8,2,1,48,68,2429680132
42,18,7,Jits_ISO_8,3,5,56,103,2429737496
42,18,7,Jits_ISO_8,0,5,63,98,2430426384
42,18,7,Jits_ISO_8,1,1,48,68,2430468760
42,18,7,Jits_ISO_8,2,5,56,103,2430537140
42,18,7,Jits_ISO_8,3,5,80,127,2430540276
42,18,7,Jits_ISO_8,0,1,48,74,2431214964
42,18,7,Jits_ISO_8,1,5,63,98,2431246752
42,18,7,Jits_ISO_8,2,5,56,103,2431256948
42,18,7,Jits_ISO_8,3,5,80,127,2431260160
42,18,7,Jits_ISO_8,0,1,48,62,2432006564
42,18,7,Jits_ISO_8,1,1,38,17,2432016512
42,18,7,Jits_ISO_8,2,5,56,103,2432026872
42,18,7,Jits_ISO_8,3,5,80,127,2432146884
42,18,7,Jits_ISO_8,4,5,63,98,2432186676
42,18,7,Jits_ISO_8,0,1,48,65,2432779492
42,18,7,Jits_ISO_8,1,1,38,17,2432790036
42,18,7,Jits_ISO_8,2,5,56,103,2432847556
42,18,7,Jits_ISO_8,3,5,80,127,2432927016
42,18,7,Jits_ISO_8,4,5,63,98,2432946500
42,18,7,Jits_ISO_8,0,1,48,65,2433587292
42,18,7,Jits_ISO_8,1,5,56,103,2433647100
42,18,7,Jits_ISO_8,2,5,63,98,2433756704
42,18,7,Jits_ISO_8,3,5,80,127,2433759844
42,18,7,Jits_ISO_8,0,1,48,75,2434450072
42,18,7,Jits_ISO_8,1,1,38,18,2434459944
42,18,7,Jits_ISO_8,2,5,56,103,2434477504
42,18,7,Jits_ISO_8,3,5,80,127,2434507328
42,18,7,Jits_ISO_8,4,5,63,98,2434526516
42,18,7,Jits_ISO_8,0,5,63,98,2435256608
42,18,7,Jits_ISO_8,1,5,56,103,2435266952
42,18,7,Jits_ISO_8,2,1,48,68,2435272768
42,18,7,Jits_ISO_8,3,5,80,127,2435277440
42,18,7,Jits_ISO_8,0,5,80,127,2436047392
42,18,7,Jits_ISO_8,1,1,48,71,2436054492
42,18,7,Jits_ISO_8,2,1,38,19,2436065036
42,18,7,Jits_ISO_8,3,5,56,103,2436097348
42,18,7,Jits_ISO_8,4,5,63,98,2436137312
42,18,7,Jits_ISO_8,0,5,80,127,2436866424
42,18,7,Jits_ISO_8,1,5,63,98,2436886884
42,18,7,Jits_ISO_8,2,1,48,74,2436887776
42,18,7,Jits_ISO_8,3,5,56,103,2436937252
42,18,7,Jits_ISO_8,0,5,80,127,2437677408
42,18,7,Jits_ISO_8,1,1,48,69,2437699032
42,18,7,Jits_ISO_8,2,5,56,103,2437707300
42,18,7,Jits_ISO_8,3,1,38,18,2437709820
42,18,7,Jits_ISO_8,4,5,63,98,2437776680
42,18,7,Jits_ISO_8,0,1,48,78,2438509228
42,18,7,Jits_ISO_8,1,5,56,103,2438527536
42,18,7,Jits_ISO_8,2,5,80,127,2438536540
42,18,7,Jits_ISO_8,3,5,63,98,2438576404
42,18,7,Jits_ISO_8,0,5,56,103,2439237272
42,18,7,Jits_ISO_8,1,5,63,98,2439256388
42,18,7,Jits_ISO_8,2,1,48,69,2439315100
42,18,7,Jits_ISO_8,3,1,38,19,2439324976
42,18,7,Jits_ISO_8,4,5,80,127,2439327464
42,18,7,Jits_ISO_8,0,5,63,98,2440057264
42,18,7,Jits_ISO_8,1,1,48,74,2440087664
42,18,7,Jits_ISO_8,2,1,38,19,2440097676
42,18,7,Jits_ISO_8,3,5,80,127,2440116660
42,18,7,Jits_ISO_8,4,5,56,103,2440137192
42,18,7,Jits_ISO_8,0,5,80,127,2440846760
42,18,7,Jits_ISO_8,1,1,48,60,2440869732
42,18,7,Jits_ISO_8,2,5,56,103,2440877476
42,18,7,Jits_ISO_8,3,1,38,17,2440880224
42,18,7,Jits_ISO_8,4,5,63,98,2440907148
42,18,7,Jits_ISO_8,0,1,48,55,2441628004
42,18,7,Jits_ISO_8,1,5,56,103,2441646460
42,18,7,Jits_ISO_8,2,5,63,98,2441707076
42,18,7,Jits_ISO_8,3,5,80,127,2441767400
42,18,7,Jits_ISO_8,0,1,48,70,2442413912
42,18,7,Jits_ISO_8,1,1,38,19,2442423784
42,18,7,Jits_ISO_8,2,5,80,127,2442466604
42,18,7,Jits_ISO_8,3,5,56,103,2442487212
42,18,7,Jits_ISO_8,4,5,63,98,2442556724
42,18,7,Jits_ISO_8,0,1,48,63,2443210156
42,18,7,Jits_ISO_8,1,5,80,127,2443266380
42,18,7,Jits_ISO_8,2,5,63,98,2443287136
42,18,7,Jits_ISO_8,3,5,56,103,2443316600
42,18,7,Jits_ISO_8,0,1,48,66,2444019828
42,18,7,Jits_ISO_8,1,5,80,127,2444056944
42,18,7,Jits_ISO_8,2,5,63,98,2444077356
42,18,7,Jits_ISO_8,3,5,56,103,2444136984
42,18,7,Jits_ISO_8,0,1,48,55,2444828232
42,18,7,Jits_ISO_8,1,1,38,16,2444838436
42,18,7,Jits_ISO_8,2,5,80,127,2444856600
42,18,7,Jits_ISO_8,3,5,56,103,2444957032
42,18,7,Jits_ISO_8,4,5,63,98,2444986704
42,18,7,Jits_ISO_8,0,1,48,59,2445640012
42,18,7,Jits_ISO_8,1,5,63,98,2445647160
42,18,7,Jits_ISO_8,2,1,38,17,2445650280
42,18,7,Jits_ISO_8,3,5,80,127,2445697508
42,18,7,Jits_ISO_8,4,5,56,103,2445716992
42,18,7,Jits_ISO_8,0,1,48,73,2446450040
42,18,7,Jits_ISO_8,1,1,38,18,2446459912
42,18,7,Jits_ISO_8,2,5,80,127,2446487060
42,18,7,Jits_ISO_8,3,5,56,103,2446516588
42,18,7,Jits_ISO_8,4,5,63,98,2446519728
42,18,7,Jits_ISO_8,0,1,48,38,2447254052
42,18,7,Jits_ISO_8,1,5,63,98,2447317324
42,18,7,Jits_ISO_8,2,5,56,103,2447357400
42,18,7,Jits_ISO_8,3,5,80,127,2447377032
42,18,7,Jits_ISO_8,0,5,80,127,2448056884
42,18,7,Jits_ISO_8,1,1,48,71,2448104592
42,18,7,Jits_ISO_8,2,1,38,19,2448114664
42,18,7,Jits_ISO_8,3,5,63,98,2448136508
42,18,7,Jits_ISO_8,4,5,56,103,2448176472
42,18,7,Jits_ISO_8,0,5,63,98,2448876968
42,18,7,Jits_ISO_8,1,1,48,58,2448909304
42,18,7,Jits_ISO_8,2,1,38,16,2448919176
42,18,7,Jits_ISO_8,3,5,80,127,2448957136
42,18,7,Jits_ISO_8,4,5,56,103,2448977300
42,18,7,Jits_ISO_8,0,1,48,65,2449713280
42,18,7,Jits_ISO_8,1,5,56,103,2449716684
42,18,7,Jits_ISO_8,2,5,63,98,2449726956
42,18,7,Jits_ISO_8,3,5,80,127,2449766892
42,18,7,Jits_ISO_8,0,5,56,103,2450436508
42,18,7,Jits_ISO_8,1,5,80,127,2450439500
42,18,7,Jits_ISO_8,2,1,48,50,2450473956
42,18,7,Jits_ISO_8,3,5,63,98,2450576988
42,18,7,Jits_ISO_8,0,5,56,103,2451226856
42,18,7,Jits_ISO_8,1,1,48,72,2451278104
42,18,7,Jits_ISO_8,2,5,63,98,2451317084
42,18,7,Jits_ISO_8,3,5,80,127,2451386904
42,18,7,Jits_ISO_8,0,1,48,46,2452043052
42,18,7,Jits_ISO_8,1,5,63,98,2452106544
42,18,7,Jits_ISO_8,2,5,80,127,2452110056
42,18,7,Jits_ISO_8,3,5,56,103,2452166996
42,18,7,Jits_ISO_8,0,1,48,68,2452857976
42,18,7,Jits_ISO_8,1,5,80,127,2452947308
42,18,7,Jits_ISO_8,2,5,56,103,2452966708
42,18,7,Jits_ISO_8,3,5,63,98,2452976976
42,18,7,Jits_ISO_8,0,1,48,58,2453644044
42,18,7,Jits_ISO_8,1,1,38,16,2453654436
42,18,7,Jits_ISO_8,2,5,56,103,2453656872
42,18,7,Jits_ISO_8,3,5,63,98,2453667292
42,18,7,Jits_ISO_8,4,5,80,127,2453736900
42,18,7,Jits_ISO_8,0,1,48,70,2454432864
42,18,7,Jits_ISO_8,1,5,80,127,2454456800
42,18,7,Jits_ISO_8,2,5,56,103,2454506852
42,18,7,Jits_ISO_8,3,5,63,98,2454556964
42,18,7,Jits_ISO_8,0,1,48,70,2455233696
42,18,7,Jits_ISO_8,1,1,38,18,2455244164
42,18,7,Jits_ISO_8,2,5,56,103,2455337192
42,18,7,Jits_ISO_8,3,5,63,98,2455346776
42,18,7,Jits_ISO_8,4,5,80,127,2455386640
42,18,7,Jits_ISO_8,0,1,48,69,2456060452
42,18,7,Jits_ISO_8,1,1,38,19,2456070400
42,18,7,Jits_ISO_8,2,5,56,103,2456076644
42,18,7,Jits_ISO_8,3,5,63,98,2456116612
42,18,7,Jits_ISO_8,4,5,80,127,2456167520
42,18,7,Jits_ISO_8,0,5,80,127,2456836720
42,18,7,Jits_ISO_8,1,1,48,73,2456866444
42,18,7,Jits_ISO_8,2,5,56,103,2456886844
42,18,7,Jits_ISO_8,3,5,63,98,2456907156
42,18,7,Jits_ISO_8,0,5,80,127,2457646560
42,18,7,Jits_ISO_8,1,1,48,61,2457660840
42,18,7,Jits_ISO_8,2,5,63,98,2457706948
42,18,7,Jits_ISO_8,3,5,56,103,2457786876
42,18,7,Jits_ISO_8,0,5,80,127,2458426800
42,18,7,Jits_ISO_8,1,1,48,78,2458443176
42,18,7,Jits_ISO_8,2,5,56,103,2458466660
42,18,7,Jits_ISO_8,3,5,63,98,2458487268
42,18,7,Jits_ISO_8,0,1,48,61,2459217644
42,18,7,Jits_ISO_8,1,1,38,17,2459228112
42,18,7,Jits_ISO_8,2,5,56,103,2459276540
42,18,7,Jits_ISO_8,3,5,80,127,2459287036
42,18,7,Jits_ISO_8,4,5,63,98,2459326932
42,18,7,Jits_ISO_8,0,1,48,78,2460024204
42,18,7,Jits_ISO_8,1,1,38,20,2460034616
42,18,7,Jits_ISO_8,2,5,56,103,2460147056
42,18,7,Jits_ISO_8,3,5,63,98,2460186920
42,18,7,Jits_ISO_8,4,5,80,127,2460190508
42,18,7,Jits_ISO_8,0,5,63,98,2460837192
42,18,7,Jits_ISO_8,1,1,48,72,2460857476
42,18,7,Jits_ISO_8,2,1,38,19,2460867944
42,18,7,Jits_ISO_8,3,5,80,127,2460877180
42,18,7,Jits_ISO_8,4,5,56,103,2460946788
42,18,7,Jits_ISO_8,0,5,63,98,2461626696
42,18,7,Jits_ISO_8,1,1,48,79,2461658436
42,18,7,Jits_ISO_8,2,1,38,20,2461668384
42,18,7,Jits_ISO_8,3,5,56,103,2461706616
42,18,7,Jits_ISO_8,4,5,80,127,2461767016
42,18,7,Jits_ISO_8,0,1,48,78,2462436128
42,18,7,Jits_ISO_8,1,5,80,127,2462437844
42,18,7,Jits_ISO_8,2,5,63,98,2462486776
42,18,7,Jits_ISO_8,3,5,56,103,2462516700
42,18,7,Jits_ISO_8,0,5,56,103,2463227512
42,18,7,Jits_ISO_8,1,1,48,79,2463235060
42,18,7,Jits_ISO_8,2,1,38,18,2463245460
42,18,7,Jits_ISO_8,3,5,63,98,2463277640
42,18,7,Jits_ISO_8,4,5,80,127,2463286568
42,18,7,Jits_ISO_8,0,5,56,103,2464037196
42,18,7,Jits_ISO_8,1,1,48,68,2464040240
42,18,7,Jits_ISO_8,2,1,38,18,2464050636
42,18,7,Jits_ISO_8,3,5,63,98,2464146672
42,18,7,Jits_ISO_8,4,5,80,127,2464167500
42,18,7,Jits_ISO_8,0,1,48,74,2464827124
42,18,7,Jits_ISO_8,1,5,63,98,2464837036
42,18,7,Jits_ISO_8,2,1,38,20,2464838004
42,18,7,Jits_ISO_8,3,5,80,127,2464887084
42,18,7,Jits_ISO_8,4,5,56,103,2464977472
42,18,7,Jits_ISO_8,0,5,63,98,2465626764
42,18,7,Jits_ISO_8,1,1,48,67,2465628480
42,18,7,Jits_ISO_8,2,5,80,127,2465657108
42,18,7,Jits_ISO_8,3,5,56,103,2465747524
42,18,7,Jits_ISO_8,0,5,63,98,2466427444
42,18,7,Jits_ISO_8,1,5,56,103,2466436444
42,18,7,Jits_ISO_8,2,1,48,74,2466447656
42,18,7,Jits_ISO_8,3,1,38,19,2466458124
42,18,7,Jits_ISO_8,4,5,80,127,2466536812
42,18,7,Jits_ISO_8,0,1,48,55,2467253972
42,18,7,Jits_ISO_8,1,5,63,98,2467327584
42,18,7,Jits_ISO_8,2,5,80,127,2467357024
42,18,7,Jits_ISO_8,3,5,56,103,2467386876
42,18,7,Jits_ISO_8,0,1,48,73,2468053244
42,18,7,Jits_ISO_8,1,1,38,19,2468063640
42,18,7,Jits_ISO_8,2,5,80,127,2468146492
42,18,7,Jits_ISO_8,3,5,63,98,2468156748
42,18,7,Jits_ISO_8,4,5,56,103,2468186556
42,18,7,Jits_ISO_8,0,5,80,127,2468847072
42,18,7,Jits_ISO_8,1,5,63,98,2468866408
42,18,7,Jits_ISO_8,2,1,48,80,2468874408
42,18,7,Jits_ISO_8,3,1,38,20,2468884328
42,18,7,Jits_ISO_8,4,5,56,103,2468916532
42,18,7,Jits_ISO_8,0,1,48,70,2469629640
42,18,7,Jits_ISO_8,1,5,63,98,2469677424
42,18,7,Jits_ISO_8,2,5,80,127,2469736756
42,18,7,Jits_ISO_8,3,5,56,103,2469757512
42,18,7,Jits_ISO_8,0,1,48,70,2470413392
42,18,7,Jits_ISO_8,1,5,63,98,2470437720
42,18,7,Jits_ISO_8,2,5,56,103,2470487552
42,18,7,Jits_ISO_8,3,5,80,127,2470496700
42,18,7,Jits_ISO_8,0,1,48,68,2471232148
42,18,7,Jits_ISO_8,1,5,56,103,2471266576
42,18,7,Jits_ISO_8,2,5,80,127,2471276992
42,18,7,Jits_ISO_8,3,5,63,98,2471377228
42,18,7,Jits_ISO_8,0,5,80,127,2472026424
42,18,7,Jits_ISO_8,1,1,48,68,2472036692
42,18,7,Jits_ISO_8,2,5,63,98,2472038328
42,18,7,Jits_ISO_8,3,5,56,103,2472187336
42,18,7,Jits_ISO_8,0,5,63,98,2472836332
42,18,7,Jits_ISO_8,1,1,48,42,2472858636
42,18,7,Jits_ISO_8,2,5,80,127,2472877388
42,18,7,Jits_ISO_8,3,5,56,103,2472957392
42,18,7,Jits_ISO_8,0,5,56,103,2473627196
42,18,7,Jits_ISO_8,1,1,48,71,2473644632
42,18,7,Jits_ISO_8,2,1,38,18,2473655024
42,18,7,Jits_ISO_8,3,5,80,127,2473727272
42,18,7,Jits_ISO_8,4,5,63,98,2473746672
42,18,7,Jits_ISO_8,0,1,48,61,2474435492
42,18,7,Jits_ISO_8,1,5,80,127,2474487360
42,18,7,Jits_ISO_8,2,5,56,103,2474497336
42,18,7,Jits_ISO_8,3,5,63,98,2474586580
42,18,7,Jits_ISO_8,0,5,56,103,2475287080
42,18,7,Jits_ISO_8,1,1,48,54,2475292820
42,18,7,Jits_ISO_8,2,5,63,98,2475307336
42,18,7,Jits_ISO_8,3,5,80,127,2475387208
42,18,7,Jits_ISO_8,0,5,63,98,2476036460
42,18,7,Jits_ISO_8,1,1,48,57,2476110856
42,18,7,Jits_ISO_8,2,5,56,103,2476126688
42,18,7,Jits_ISO_8,3,5,80,127,2476129976
42,18,7,Jits_ISO_8,0,5,56,103,2476866976
42,18,7,Jits_ISO_8,1,1,48,58,2476900960
42,18,7,Jits_ISO_8,2,1,38,16,2476910984
42,18,7,Jits_ISO_8,3,5,80,127,2476927196
42,18,7,Jits_ISO_8,4,5,63,98,2476936572
42,18,7,Jits_ISO_8,0,1,48,58,2477693232
42,18,7,Jits_ISO_8,1,1,38,16,2477703100
42,18,7,Jits_ISO_8,2,5,80,127,2477717144
42,18,7,Jits_ISO_8,3,5,56,103,2477727348
42,18,7,Jits_ISO_8,4,5,63,98,2477730408
42,18,7,Jits_ISO_8,0,5,56,103,2478476540
42,18,7,Jits_ISO_8,1,5,80,127,2478487108
42,18,7,Jits_ISO_8,2,1,48,61,2478505596
42,18,7,Jits_ISO_8,3,5,63,98,2478507336
42,18,7,Jits_ISO_8,4,1,38,17,2478515780
42,18,7,Jits_ISO_8,0,5,63,98,2479246800
42,18,7,Jits_ISO_8,1,1,48,62,2479281604
42,18,7,Jits_ISO_8,2,1,38,17,2479292072
42,18,7,Jits_ISO_8,3,5,80,127,2479307312
42,18,7,Jits_ISO_8,4,5,56,103,2479357292
42,18,7,Jits_ISO_8,0,1,48,64,2480059108
42,18,7,Jits_ISO_8,1,1,38,17,2480069052
42,18,7,Jits_ISO_8,2,5,63,98,2480127300
42,18,7,Jits_ISO_8,3,5,56,103,2480136448
42,18,7,Jits_ISO_8,4,5,80,127,2480186716
42,18,7,Jits_ISO_8,0,5,63,98,2480826700
42,18,7,Jits_ISO_8,1,5,80,127,2480847088
42,18,7,Jits_ISO_8,2,5,56,103,2480856460
42,18,7,Jits_ISO_8,3,1,48,78,2480867220
42,18,7,Jits_ISO_8,4,1,38,19,2480877016
42,18,7,Jits_ISO_8,0,5,63,98,2481626524
42,18,7,Jits_ISO_8,1,5,80,127,2481630032
42,18,7,Jits_ISO_8,2,1,48,54,2481635716
42,18,7,Jits_ISO_8,3,1,38,16,2481645736
42,18,7,Jits_ISO_8,4,5,56,103,2481666284
42,18,7,Jits_ISO_8,0,1,48,69,2482423824
42,18,7,Jits_ISO_8,1,1,38,18,2482433768
42,18,7,Jits_ISO_8,2,5,63,98,2482497064
42,18,7,Jits_ISO_8,3,5,80,127,2482526504
42,18,7,Jits_ISO_8,4,5,56,103,2482536984
42,18,7,Jits_ISO_8,0,1,48,66,2483229000
42,18,7,Jits_ISO_8,1,1,38,18,2483239800
42,18,7,Jits_ISO_8,2,5,56,103,2483246576
42,18,7,Jits_ISO_8,3,5,80,127,2483277148
42,18,7,Jits_ISO_8,4,5,63,98,2483306900
42,18,7,Jits_ISO_8,0,1,48,57,2484008704
42,18,7,Jits_ISO_8,1,1,38,17,2484018652
42,18,7,Jits_ISO_8,2,5,63,98,2484146536
42,18,7,Jits_ISO_8,3,5,56,103,2484186392
42,18,7,Jits_ISO_8,4,5,80,127,2484189612
42,18,7,Jits_ISO_8,0,1,48,66,2484806584
42,18,7,Jits_ISO_8,1,1,38,18,2484816532
42,18,7,Jits_ISO_8,2,5,80,127,2484846904
42,18,7,Jits_ISO_8,3,5,56,103,2484927032
42,18,7,Jits_ISO_8,4,5,63,98,2484977084
42,18,7,Jits_ISO_8,0,5,80,127,2485627204
42,18,7,Jits_ISO_8,1,5,56,103,2485646916
42,18,7,Jits_ISO_8,2,1,48,69,2485685176
42,18,7,Jits_ISO_8,3,5,63,98,2485736744
42,18,7,Jits_ISO_8,0,5,80,127,2486466860
42,18,7,Jits_ISO_8,1,1,48,57,2486482556
42,18,7,Jits_ISO_8,2,1,38,16,2486493024
42,18,7,Jits_ISO_8,3,5,63,98,2486507144
42,18,7,Jits_ISO_8,4,5,56,103,2486547012
42,18,7,Jits_ISO_8,0,5,63,98,2487236960
42,18,7,Jits_ISO_8,1,5,80,127,2487297280
42,18,7,Jits_ISO_8,2,1,48,57,2487298244
42,18,7,Jits_ISO_8,3,1,38,16,2487308932
42,18,7,Jits_ISO_8,4,5,56,103,2487327016
42,18,7,Jits_ISO_8,0,5,56,103,2488036648
42,18,7,Jits_ISO_8,1,5,80,127,2488066328
42,18,7,Jits_ISO_8,2,1,48,80,2488072512
42,18,7,Jits_ISO_8,3,5,63,98,2488156476
42,18,7,Jits_ISO_8,0,5,56,103,2488846712
42,18,7,Jits_ISO_8,1,1,48,65,2488885748
42,18,7,Jits_ISO_8,2,1,38,17,2488896216
42,18,7,Jits_ISO_8,3,5,80,127,2488957152
42,18,7,Jits_ISO_8,4,5,63,98,2488987036
42,18,7,Jits_ISO_8,0,5,56,103,2489696872
42,18,7,Jits_ISO_8,1,1,48,70,2489704724
42,18,7,Jits_ISO_8,2,1,38,17,2489715264
42,18,7,Jits_ISO_8,3,5,63,98,2489757092
42,18,7,Jits_ISO_8,4,5,80,127,2489786840
42,18,7,Jits_ISO_8,0,5,56,103,2490466612
42,18,7,Jits_ISO_8,1,1,48,47,2490513400
42,18,7,Jits_ISO_8,2,5,63,98,2490537336
42,18,7,Jits_ISO_8,3,5,80,127,2490556824
42,18,7,Jits_ISO_8,0,5,80,127,2491236960
42,18,7,Jits_ISO_8,1,5,63,98,2491257196
42,18,7,Jits_ISO_8,2,1,48,69,2491270504
42,18,7,Jits_ISO_8,3,1,38,18,2491280448
42,18,7,Jits_ISO_8,4,5,56,103,2491307296
42,18,7,Jits_ISO_8,0,9999,9999,9999,2396504172
42,18,7,Jits_ISO_8,1,9999,9999,9999,2397304920
42,18,7,Jits_ISO_8,2,9999,9999,9999,2398104696
42,18,7,Jits_ISO_8,3,9999,9999,9999,2398904416
42,18,7,Jits_ISO_8,4,9999,9999,9999,2399704140
42,18,7,Jits_ISO_8,5,9999,9999,9999,2400504896
42,18,7,Jits_ISO_8,6,9999,9999,9999,2401304676
42,18,7,Jits_ISO_8,7,9999,9999,9999,2402104412
42,18,7,Jits_ISO_8,8,9999,9999,9999,2402904124
42,18,7,Jits_ISO_8,9,9999,9999,9999,2403704940
42,18,7,Jits_ISO_8,10,9999,9999,9999,2404504672
42,18,7,Jits_ISO_8,11,9999,9999,9999,2405304384
42,18,7,Jits_ISO_8,12,9999,9999,9999,2406104172
42,18,7,Jits_ISO_8,13,9999,9999,9999,2406904900
42,18,7,Jits_ISO_8,14,9999,9999,9999,2407704672
42,18,7,Jits_ISO_8,15,9999,9999,9999,2408504400
42,18,7,Jits_ISO_8,16,9999,9999,9999,2409304168
42,18,7,Jits_ISO_8,17,9999,9999,9999,2410104932
42,18,7,Jits_ISO_8,18,9999,9999,9999,2410904648
42,18,7,Jits_ISO_8,19,9999,9999,9999,2411704432
42,18,7,Jits_ISO_8,20,9999,9999,9999,2412504140
42,18,7,Jits_ISO_8,21,9999,9999,9999,2413304896
42,18,7,Jits_ISO_8,22,9999,9999,9999,2414104668
42,18,7,Jits_ISO_8,23,9999,9999,9999,2414904400
42,18,7,Jits_ISO_8,24,9999,9999,9999,2415704184
42,18,7,Jits_ISO_8,25,9999,9999,9999,2416504940
42,18,7,Jits_ISO_8,26,9999,9999,9999,2417304648
42,18,7,Jits_ISO_8,27,9999,9999,9999,2418104436
42,18,7,Jits_ISO_8,28,9999,9999,9999,2418904132
42,18,7,Jits_ISO_8,29,9999,9999,9999,2419704892
42,18,7,Jits_ISO_8,30,9999,9999,9999,2420504676
42,18,7,Jits_ISO_8,31,9999,9999,9999,2421304432
42,18,7,Jits_ISO_8,32,9999,9999,9999,2422104176
42,18,7,Jits_ISO_8,33,9999,9999,9999,2422904928
42,18,7,Jits_ISO_8,34,9999,9999,9999,2423704648
42,18,7,Jits_ISO_8,35,9999,9999,9999,2424504384
42,18,7,Jits_ISO_8,36,9999,9999,9999,2425304140
42,18,7,Jits_ISO_8,37,9999,9999,9999,2426104884
42,18,7,Jits_ISO_8,38,9999,9999,9999,2426904652
42,18,7,Jits_ISO_8,39,9999,9999,9999,2427704396
42,18,7,Jits_ISO_8,40,9999,9999,9999,2428504144
42,18,7,Jits_ISO_8,41,9999,9999,9999,2429304916
42,18,7,Jits_ISO_8,42,9999,9999,9999,2430104696
42,18,7,Jits_ISO_8,43,9999,9999,9999,2430904412
42,18,7,Jits_ISO_8,44,9999,9999,9999,2431704180
42,18,7,Jits_ISO_8,45,9999,9999,9999,2432504892
42,18,7,Jits_ISO_8,46,9999,9999,9999,2433304648
42,18,7,Jits_ISO_8,47,9999,9999,9999,2434104388
42,18,7,Jits_ISO_8,48,9999,9999,9999,2434904124
42,18,7,Jits_ISO_8,49,9999,9999,9999,2435704896
42,18,7,Jits_ISO_8,50,9999,9999,9999,2436504632
42,18,7,Jits_ISO_8,51,9999,9999,9999,2437304376
42,18,7,Jits_ISO_8,52,9999,9999,9999,2438104144
42,18,7,Jits_ISO_8,53,9999,9999,9999,2438904944
42,18,7,Jits_ISO_8,54,9999,9999,9999,2439704676
42,18,7,Jits_ISO_8,55,9999,9999,9999,2440504392
42,18,7,Jits_ISO_8,56,9999,9999,9999,2441304160
42,18,7,Jits_ISO_8,57,9999,9999,9999,2442104952
42,18,7,Jits_ISO_8,58,9999,9999,9999,2442904684
42,18,7,Jits_ISO_8,59,9999,9999,9999,2443704412
42,18,7,Jits_ISO_8,60,9999,9999,9999,2444504124
42,18,7,Jits_ISO_8,61,9999,9999,9999,2445304924
42,18,7,Jits_ISO_8,62,9999,9999,9999,2446104692
42,18,7,Jits_ISO_8,63,9999,9999,9999,2446904384
42,18,7,Jits_ISO_8,64,9999,9999,9999,2447704120
42,18,7,Jits_ISO_8,65,9999,9999,9999,2448504912
42,18,7,Jits_ISO_8,66,9999,9999,9999,2449304692
42,18,7,Jits_ISO_8,67,9999,9999,9999,2450104428
42,18,7,Jits_ISO_8,68,9999,9999,9999,2450904128
42,18,7,Jits_ISO_8,69,9999,9999,9999,2451704900
42,18,7,Jits_ISO_8,70,9999,9999,9999,2452504692
42,18,7,Jits_ISO_8,71,9999,9999,9999,2453304436
42,18,7,Jits_ISO_8,72,9999,9999,9999,2454104172
42,18,7,Jits_ISO_8,73,9999,9999,9999,2454904948
42,18,7,Jits_ISO_8,74,9999,9999,9999,2455704632
42,18,7,Jits_ISO_8,75,9999,9999,9999,2456504392
42,18,7,Jits_ISO_8,76,9999,9999,9999,2457304172
42,18,7,Jits_ISO_8,77,9999,9999,9999,2458104944
42,18,7,Jits_ISO_8,78,9999,9999,9999,2458904660
42,18,7,Jits_ISO_8,79,9999,9999,9999,2459704436
42,18,7,Jits_ISO_8,80,9999,9999,9999,2460504120
42,18,7,Jits_ISO_8,81,9999,9999,9999,2461304932
42,18,7,Jits_ISO_8,82,9999,9999,9999,2462104700
42,18,7,Jits_ISO_8,83,9999,9999,9999,2462904424
42,18,7,Jits_ISO_8,84,9999,9999,9999,2463704156
42,18,7,Jits_ISO_8,85,9999,9999,9999,2464504900
42,18,7,Jits_ISO_8,86,9999,9999,9999,2465304684
42,18,7,Jits_ISO_8,87,9999,9999,9999,2466104428
42,18,7,Jits_ISO_8,88,9999,9999,9999,2466904160
42,18,7,Jits_ISO_8,89,9999,9999,9999,2467704944
42,18,7,Jits_ISO_8,90,9999,9999,9999,2468504628
42,18,7,Jits_ISO_8,91,9999,9999,9999,2469304380
42,18,7,Jits_ISO_8,92,9999,9999,9999,2470104128
42,18,7,Jits_ISO_8,93,9999,9999,9999,2470904952
42,18,7,Jits_ISO_8,94,9999,9999,9999,2471704660
42,18,7,Jits_ISO_8,95,9999,9999,9999,2472504384
42,18,7,Jits_ISO_8,96,9999,9999,9999,2473304180
42,18,7,Jits_ISO_8,97,9999,9999,9999,2474104904
42,18,7,Jits_ISO_8,98,9999,9999,9999,2474904652
42,18,7,Jits_ISO_8,99,9999,9999,9999,2475704436
42,18,7,Jits_ISO_8,100,9999,9999,9999,2476504152
42,18,7,Jits_ISO_8,101,9999,9999,9999,2477304936
42,18,7,Jits_ISO_8,102,9999,9999,9999,2478104628
42,18,7,Jits_ISO_8,103,9999,9999,9999,2478904416
42,18,7,Jits_ISO_8,104,9999,9999,9999,2479704188
42,18,7,Jits_ISO_8,105,9999,9999,9999,2480504936
42,18,7,Jits_ISO_8,106,9999,9999,9999,2481304684
42,18,7,Jits_ISO_8,107,9999,9999,9999,2482104424
42,18,7,Jits_ISO_8,108,9999,9999,9999,2482904124
42,18,7,Jits_ISO_8,109,9999,9999,9999,2483704936
42,18,7,Jits_ISO_8,110,9999,9999,9999,2484504692
42,18,7,Jits_ISO_8,111,9999,9999,9999,2485304396
42,18,7,Jits_ISO_8,112,9999,9999,9999,2486104120
42,18,7,Jits_ISO_8,113,9999,9999,9999,2486904920
42,18,7,Jits_ISO_8,114,9999,9999,9999,2487704692
42,18,7,Jits_ISO_8,115,9999,9999,9999,2488504424
42,18,7,Jits_ISO_8,116,9999,9999,9999,2489304116
42,18,7,Jits_ISO_8,117,9999,9999,9999,2490104944
42,18,7,Jits_ISO_8,118,9999,9999,9999,2490904696
42,18,7,Jits_ISO_8,119,9999,9999,9999,2491704388
42,19,16,Jits_ISO_5,0,5,56,103,2501377512
42,19,16,Jits_ISO_5,1,5,63,98,2501380532
42,19,16,Jits_ISO_5,2,5,80,127,2501383656
42,19,16,Jits_ISO_5,0,5,56,103,2501877156
42,19,16,Jits_ISO_5,1,5,63,98,2501880480
42,19,16,Jits_ISO_5,2,5,80,127,2501883524
42,19,16,Jits_ISO_5,0,1,48,43,2502353252
42,19,16,Jits_ISO_5,1,5,56,103,2502376812
42,19,16,Jits_ISO_5,2,5,80,127,2502387008
42,19,16,Jits_ISO_5,3,5,63,98,2502406640
42,19,16,Jits_ISO_5,0,5,63,98,2502827556
42,19,16,Jits_ISO_5,1,5,80,127,2502857008
42,19,16,Jits_ISO_5,2,5,56,103,2502867500
42,19,16,Jits_ISO_5,3,1,48,45,2502906960
42,19,16,Jits_ISO_5,0,1,48,68,2503383364
42,19,16,Jits_ISO_5,1,5,80,127,2503386616
42,19,16,Jits_ISO_5,2,5,56,103,2503396664
42,19,16,Jits_ISO_5,3,5,63,98,2503426412
42,19,16,Jits_ISO_5,0,5,63,98,2503876924
42,19,16,Jits_ISO_5,1,1,48,56,2503896080
42,19,16,Jits_ISO_5,2,5,56,103,2503906812
42,19,16,Jits_ISO_5,3,5,80,127,2503916860
42,19,16,Jits_ISO_5,0,5,56,103,2504326464
42,19,16,Jits_ISO_5,1,5,63,98,2504376668
42,19,16,Jits_ISO_5,2,1,48,60,2504390196
42,19,16,Jits_ISO_5,3,5,80,127,2504397340
42,19,16,Jits_ISO_5,0,5,80,127,2504827408
42,19,16,Jits_ISO_5,1,1,48,63,2504876104
42,19,16,Jits_ISO_5,2,5,63,98,2504877900
42,19,16,Jits_ISO_5,3,5,56,103,2504917612
42,19,16,Jits_ISO_5,0,5,56,103,2505326932
42,19,16,Jits_ISO_5,1,5,63,98,2505356536
42,19,16,Jits_ISO_5,2,1,48,68,2505394100
42,19,16,Jits_ISO_5,3,5,80,127,2505427400
42,19,16,Jits_ISO_5,0,5,56,103,2505826608
42,19,16,Jits_ISO_5,1,5,80,127,2505887444
42,19,16,Jits_ISO_5,2,1,48,66,2505891832
42,19,16,Jits_ISO_5,3,5,63,98,2505916812
42,19,16,Jits_ISO_5,0,5,56,103,2506336620
42,19,16,Jits_ISO_5,1,5,63,98,2506346820
42,19,16,Jits_ISO_5,2,5,80,127,2506386752
42,19,16,Jits_ISO_5,3,1,48,66,2506394900
42,19,16,Jits_ISO_5,0,5,63,98,2506827524
42,19,16,Jits_ISO_5,1,1,48,64,2506880168
42,19,16,Jits_ISO_5,2,5,80,127,2506907088
42,19,16,Jits_ISO_5,3,5,56,103,2506917284
42,19,16,Jits_ISO_5,0,5,63,98,2507377012
42,19,16,Jits_ISO_5,1,1,48,55,2507379096
42,19,16,Jits_ISO_5,2,5,56,103,2507417016
42,19,16,Jits_ISO_5,3,5,80,127,2507420304
42,19,16,Jits_ISO_5,0,5,56,103,2507836808
42,19,16,Jits_ISO_5,1,5,63,98,2507847452
42,19,16,Jits_ISO_5,2,1,48,65,2507868028
42,19,16,Jits_ISO_5,3,5,80,127,2507887156
42,19,16,Jits_ISO_5,0,5,56,103,2508327180
42,19,16,Jits_ISO_5,1,5,63,98,2508330328
42,19,16,Jits_ISO_5,2,5,80,127,2508346748
42,19,16,Jits_ISO_5,3,1,48,65,2508359452
42,19,16,Jits_ISO_5,0,1,48,67,2508835212
42,19,16,Jits_ISO_5,1,5,80,127,2508837180
42,19,16,Jits_ISO_5,2,5,56,103,2508846404
42,19,16,Jits_ISO_5,3,5,63,98,2508917128
42,19,16,Jits_ISO_5,0,5,63,98,2509326852
42,19,16,Jits_ISO_5,1,1,48,62,2509337464
42,19,16,Jits_ISO_5,2,5,56,103,2509347404
42,19,16,Jits_ISO_5,3,5,80,127,2509427344
42,19,16,Jits_ISO_5,0,5,56,103,2509836624
42,19,16,Jits_ISO_5,1,1,48,56,2509841840
42,19,16,Jits_ISO_5,2,5,80,127,2509876584
42,19,16,Jits_ISO_5,3,5,63,98,2509886704
42,19,16,Jits_ISO_5,0,5,80,127,2510327380
42,19,16,Jits_ISO_5,1,1,48,59,2510346468
42,19,16,Jits_ISO_5,2,5,63,98,2510356828
42,19,16,Jits_ISO_5,3,5,56,103,2510396640
42,19,16,Jits_ISO_5,0,1,48,63,2510844472
42,19,16,Jits_ISO_5,1,5,56,103,2510847280
42,19,16,Jits_ISO_5,2,5,63,98,2510877252
42,19,16,Jits_ISO_5,3,5,80,127,2510927472
42,19,16,Jits_ISO_5,0,5,80,127,2511347020
42,19,16,Jits_ISO_5,1,1,48,64,2511347988
42,19,16,Jits_ISO_5,2,5,56,103,2511387100
42,19,16,Jits_ISO_5,3,5,63,98,2511397320
42,19,16,Jits_ISO_5,0,5,80,127,2511827288
42,19,16,Jits_ISO_5,1,5,63,98,2511867228
42,19,16,Jits_ISO_5,2,1,48,61,2511874404
42,19,16,Jits_ISO_5,3,5,56,103,2511926660
42,19,16,Jits_ISO_5,0,5,56,103,2512326964
42,19,16,Jits_ISO_5,1,5,80,127,2512337160
42,19,16,Jits_ISO_5,2,1,48,67,2512382156
42,19,16,Jits_ISO_5,3,5,63,98,2512417192
42,19,16,Jits_ISO_5,0,5,80,127,2512826708
42,19,16,Jits_ISO_5,1,1,48,63,2512871180
42,19,16,Jits_ISO_5,2,5,63,98,2512887244
42,19,16,Jits_ISO_5,3,5,56,103,2512916992
42,19,16,Jits_ISO_5,0,5,56,103,2513326460
42,19,16,Jits_ISO_5,1,5,80,127,2513387000
42,19,16,Jits_ISO_5,2,1,48,66,2513396944
42,19,16,Jits_ISO_5,3,5,63,98,2513426928
42,19,16,Jits_ISO_5,0,5,56,103,2513877308
42,19,16,Jits_ISO_5,1,1,48,51,2513881472
42,19,16,Jits_ISO_5,2,5,63,98,2513886672
42,19,16,Jits_ISO_5,3,5,80,127,2513890256
42,19,16,Jits_ISO_5,0,5,80,127,2514327076
42,19,16,Jits_ISO_5,1,1,48,51,2514372968
42,19,16,Jits_ISO_5,2,5,63,98,2514417276
42,19,16,Jits_ISO_5,3,5,56,103,2514427248
42,19,16,Jits_ISO_5,0,5,56,103,2514826588
42,19,16,Jits_ISO_5,1,5,63,98,2514829608
42,19,16,Jits_ISO_5,2,5,80,127,2514832660
42,19,16,Jits_ISO_5,3,1,48,61,2514889872
42,19,16,Jits_ISO_5,0,1,48,54,2515342848
42,19,16,Jits_ISO_5,1,5,80,127,2515346776
42,19,16,Jits_ISO_5,2,5,63,98,2515397124
42,19,16,Jits_ISO_5,3,5,56,103,2515426800
42,19,16,Jits_ISO_5,0,5,56,103,2515827188
42,19,16,Jits_ISO_5,1,5,80,127,2515837384
42,19,16,Jits_ISO_5,2,1,48,53,2515864620
42,19,16,Jits_ISO_5,3,5,63,98,2515907052
42,19,16,Jits_ISO_5,0,5,56,103,2516337276
42,19,16,Jits_ISO_5,1,1,48,68,2516353724
42,19,16,Jits_ISO_5,2,5,63,98,2516356384
42,19,16,Jits_ISO_5,3,5,80,127,2516416992
42,19,16,Jits_ISO_5,0,5,80,127,2516826464
42,19,16,Jits_ISO_5,1,1,48,53,2516864428
42,19,16,Jits_ISO_5,2,5,63,98,2516897108
42,19,16,Jits_ISO_5,3,5,56,103,2516916448
42,19,16,Jits_ISO_5,0,5,80,127,2517346816
42,19,16,Jits_ISO_5,1,5,56,103,2517357084
42,19,16,Jits_ISO_5,2,5,63,98,2517367132
42,19,16,Jits_ISO_5,3,1,48,51,2517388080
42,19,16,Jits_ISO_5,0,5,80,127,2517837120
42,19,16,Jits_ISO_5,1,1,48,65,2517845120
42,19,16,Jits_ISO_5,2,1,38,17,2517854844
42,19,16,Jits_ISO_5,3,5,56,103,2517857408
42,19,16,Jits_ISO_5,4,5,63,98,2517927232
42,19,16,Jits_ISO_5,0,5,56,103,2518347048
42,19,16,Jits_ISO_5,1,1,48,72,2518351808
42,19,16,Jits_ISO_5,2,5,80,127,2518376940
42,19,16,Jits_ISO_5,3,5,63,98,2518397324
42,19,16,Jits_ISO_5,0,5,63,98,2518836532
42,19,16,Jits_ISO_5,1,1,48,43,2518868792
42,19,16,Jits_ISO_5,2,5,56,103,2518896988
42,19,16,Jits_ISO_5,3,5,80,127,2518926664
42,19,16,Jits_ISO_5,0,5,63,98,2519327048
42,19,16,Jits_ISO_5,1,5,80,127,2519330264
42,19,16,Jits_ISO_5,2,1,48,63,2519387104
42,19,16,Jits_ISO_5,3,5,56,103,2519417168
42,19,16,Jits_ISO_5,0,5,56,103,2519847224
42,19,16,Jits_ISO_5,1,5,63,98,2519877196
42,19,16,Jits_ISO_5,2,1,48,41,2519878088
42,19,16,Jits_ISO_5,3,5,80,127,2519917124
42,19,16,Jits_ISO_5,0,5,63,98,2520347172
42,19,16,Jits_ISO_5,1,1,48,63,2520348140
42,19,16,Jits_ISO_5,2,5,56,103,2520387176
42,19,16,Jits_ISO_5,3,5,80,127,2520407412
42,19,16,Jits_ISO_5,0,1,48,66,2520837708
42,19,16,Jits_ISO_5,1,5,63,98,2520856916
42,19,16,Jits_ISO_5,2,5,56,103,2520896952
42,19,16,Jits_ISO_5,3,5,80,127,2520907072
42,19,16,Jits_ISO_5,0,5,80,127,2521337324
42,19,16,Jits_ISO_5,1,1,48,68,2521361424
42,19,16,Jits_ISO_5,2,5,63,98,2521407024
42,19,16,Jits_ISO_5,3,5,56,103,2521427260
42,19,16,Jits_ISO_5,0,5,56,103,2521826732
42,19,16,Jits_ISO_5,1,5,80,127,2521847192
42,19,16,Jits_ISO_5,2,1,48,68,2521882072
42,19,16,Jits_ISO_5,3,5,63,98,2521887072
42,19,16,Jits_ISO_5,4,1,38,17,2521892284
42,19,16,Jits_ISO_5,0,5,63,98,2522336964
42,19,16,Jits_ISO_5,1,5,80,127,2522357052
42,19,16,Jits_ISO_5,2,1,48,53,2522366692
42,19,16,Jits_ISO_5,3,5,56,103,2522396908
42,19,16,Jits_ISO_5,0,5,63,98,2522837444
42,19,16,Jits_ISO_5,1,5,56,103,2522857008
42,19,16,Jits_ISO_5,2,5,80,127,2522866980
42,19,16,Jits_ISO_5,3,1,48,52,2522867944
42,19,16,Jits_ISO_5,0,5,80,127,2523336952
42,19,16,Jits_ISO_5,1,1,48,71,2523338292
42,19,16,Jits_ISO_5,2,5,56,103,2523356508
42,19,16,Jits_ISO_5,3,5,63,98,2523387228
42,19,16,Jits_ISO_5,0,1,48,54,2523826852
42,19,16,Jits_ISO_5,1,5,56,103,2523906288
42,19,16,Jits_ISO_5,2,5,80,127,2523909436
42,19,16,Jits_ISO_5,3,5,63,98,2523926888
42,19,16,Jits_ISO_5,0,1,48,70,2524323428
42,19,16,Jits_ISO_5,1,5,63,98,2524327136
42,19,16,Jits_ISO_5,2,1,38,17,2524333768
42,19,16,Jits_ISO_5,3,5,56,103,2524356956
42,19,16,Jits_ISO_5,4,5,80,127,2524417328
42,19,16,Jits_ISO_5,0,1,48,68,2524830828
42,19,16,Jits_ISO_5,1,5,63,98,2524906824
42,19,16,Jits_ISO_5,2,5,56,103,2524917244
42,19,16,Jits_ISO_5,3,5,80,127,2524928472
42,19,16,Jits_ISO_5,0,5,56,103,2525357424
42,19,16,Jits_ISO_5,1,1,48,66,2525361064
42,19,16,Jits_ISO_5,2,5,80,127,2525387312
42,19,16,Jits_ISO_5,3,5,63,98,2525397360
42,19,16,Jits_ISO_5,0,1,48,24,2525865460
42,19,16,Jits_ISO_5,1,1,38,16,2525877504
42,19,16,Jits_ISO_5,2,5,63,98,2525896932
42,19,16,Jits_ISO_5,3,5,56,103,2525907200
42,19,16,Jits_ISO_5,4,5,80,127,2525926760
42,19,16,Jits_ISO_5,0,5,56,103,2526327232
42,19,16,Jits_ISO_5,1,1,48,58,2526366920
42,19,16,Jits_ISO_5,2,5,63,98,2526386796
42,19,16,Jits_ISO_5,3,5,80,127,2526390004
42,19,16,Jits_ISO_5,0,5,80,127,2526847276
42,19,16,Jits_ISO_5,1,5,56,103,2526856576
42,19,16,Jits_ISO_5,2,1,48,54,2526865316
42,19,16,Jits_ISO_5,3,5,63,98,2526927144
42,19,16,Jits_ISO_5,0,5,80,127,2527336912
42,19,16,Jits_ISO_5,1,1,48,50,2527378840
42,19,16,Jits_ISO_5,2,5,56,103,2527406584
42,19,16,Jits_ISO_5,3,5,63,98,2527416708
42,19,16,Jits_ISO_5,0,1,48,67,2527873332
42,19,16,Jits_ISO_5,1,5,63,98,2527876660
42,19,16,Jits_ISO_5,2,1,38,17,2527883596
42,19,16,Jits_ISO_5,3,5,56,103,2527886852
42,19,16,Jits_ISO_5,4,5,80,127,2527907084
42,19,16,Jits_ISO_5,0,5,80,127,2528326960
42,19,16,Jits_ISO_5,1,5,63,98,2528386304
42,19,16,Jits_ISO_5,2,1,48,65,2528387268
42,19,16,Jits_ISO_5,3,1,38,17,2528397508
42,19,16,Jits_ISO_5,4,5,56,103,2528427496
42,19,16,Jits_ISO_5,0,5,56,103,2528866944
42,19,16,Jits_ISO_5,1,5,63,98,2528876992
42,19,16,Jits_ISO_5,2,1,48,55,2528881084
42,19,16,Jits_ISO_5,3,5,80,127,2528917068
42,19,16,Jits_ISO_5,0,5,56,103,2529326540
42,19,16,Jits_ISO_5,1,5,80,127,2529357116
42,19,16,Jits_ISO_5,2,1,48,60,2529382176
42,19,16,Jits_ISO_5,3,5,63,98,2529407452
42,19,16,Jits_ISO_5,0,5,56,103,2529867044
42,19,16,Jits_ISO_5,1,1,48,64,2529890160
42,19,16,Jits_ISO_5,2,5,63,98,2529906968
42,19,16,Jits_ISO_5,3,5,80,127,2529910632
42,19,16,Jits_ISO_5,0,5,56,103,2530366860
42,19,16,Jits_ISO_5,1,5,63,98,2530377204
42,19,16,Jits_ISO_5,2,1,48,55,2530382416
42,19,16,Jits_ISO_5,3,5,80,127,2530396608
42,19,16,Jits_ISO_5,0,5,56,103,2530826796
42,19,16,Jits_ISO_5,1,5,80,127,2530829640
42,19,16,Jits_ISO_5,2,1,48,66,2530865632
42,19,16,Jits_ISO_5,3,5,63,98,2530867280
42,19,16,Jits_ISO_5,0,1,48,53,2531355204
42,19,16,Jits_ISO_5,1,5,63,98,2531367312
42,19,16,Jits_ISO_5,2,5,56,103,2531396840
42,19,16,Jits_ISO_5,3,5,80,127,2531416396
42,19,16,Jits_ISO_5,0,5,80,127,2531837284
42,19,16,Jits_ISO_5,1,5,56,103,2531846660
42,19,16,Jits_ISO_5,2,5,63,98,2531856852
42,19,16,Jits_ISO_5,3,1,48,64,2531870480
42,19,16,Jits_ISO_5,0,5,56,103,2532336956
42,19,16,Jits_ISO_5,1,5,80,127,2532376896
42,19,16,Jits_ISO_5,2,1,48,54,2532378760
42,19,16,Jits_ISO_5,3,5,63,98,2532406808
42,19,16,Jits_ISO_5,0,5,63,98,2532846896
42,19,16,Jits_ISO_5,1,5,80,127,2532857092
42,19,16,Jits_ISO_5,2,1,48,69,2532858500
42,19,16,Jits_ISO_5,3,5,56,103,2532866604
42,19,16,Jits_ISO_5,4,1,38,17,2532868972
42,19,16,Jits_ISO_5,0,5,56,103,2533327220
42,19,16,Jits_ISO_5,1,1,48,71,2533350868
42,19,16,Jits_ISO_5,2,5,63,98,2533396824
42,19,16,Jits_ISO_5,3,5,80,127,2533407044
42,19,16,Jits_ISO_5,0,5,80,127,2533826896
42,19,16,Jits_ISO_5,1,5,56,103,2533837316
42,19,16,Jits_ISO_5,2,1,48,61,2533882608
42,19,16,Jits_ISO_5,3,5,63,98,2533887436
42,19,16,Jits_ISO_5,0,5,80,127,2534336904
42,19,16,Jits_ISO_5,1,1,48,57,2534366100
42,19,16,Jits_ISO_5,2,5,56,103,2534397512
42,19,16,Jits_ISO_5,3,5,63,98,2534426960
42,19,16,Jits_ISO_5,0,1,48,58,2534833988
42,19,16,Jits_ISO_5,1,5,56,103,2534836648
42,19,16,Jits_ISO_5,2,5,80,127,2534839788
42,19,16,Jits_ISO_5,3,5,63,98,2534876660
42,19,16,Jits_ISO_5,0,1,48,52,2535319712
42,19,16,Jits_ISO_5,1,5,56,103,2535366940
42,19,16,Jits_ISO_5,2,5,63,98,2535396616
42,19,16,Jits_ISO_5,3,5,80,127,2535406812
42,19,16,Jits_ISO_5,0,1,48,53,2535805816
42,19,16,Jits_ISO_5,1,5,63,98,2535876940
42,19,16,Jits_ISO_5,2,5,80,127,2535887212
42,19,16,Jits_ISO_5,3,5,56,103,2535896508
42,19,16,Jits_ISO_5,0,5,80,127,2536326488
42,19,16,Jits_ISO_5,1,1,48,54,2536340844
42,19,16,Jits_ISO_5,2,5,56,103,2536376684
42,19,16,Jits_ISO_5,3,5,63,98,2536379824
42,19,16,Jits_ISO_5,0,1,48,47,2536849564
42,19,16,Jits_ISO_5,1,5,56,103,2536856936
42,19,16,Jits_ISO_5,2,1,38,14,2536859828
42,19,16,Jits_ISO_5,3,5,80,127,2536877608
42,19,16,Jits_ISO_5,4,5,63,98,2536886684
42,19,16,Jits_ISO_5,0,5,63,98,2537337348
42,19,16,Jits_ISO_5,1,1,48,73,2537364060
42,19,16,Jits_ISO_5,2,5,56,103,2537366796
42,19,16,Jits_ISO_5,3,1,38,19,2537374620
42,19,16,Jits_ISO_5,4,5,80,127,2537387468
42,19,16,Jits_ISO_5,0,1,48,57,2537845536
42,19,16,Jits_ISO_5,1,5,56,103,2537847196
42,19,16,Jits_ISO_5,2,5,80,127,2537857688
42,19,16,Jits_ISO_5,3,5,63,98,2537926992
42,19,16,Jits_ISO_5,0,5,63,98,2538336672
42,19,16,Jits_ISO_5,1,1,48,54,2538338608
42,19,16,Jits_ISO_5,2,5,80,127,2538376676
42,19,16,Jits_ISO_5,3,5,56,103,2538416612
42,19,16,Jits_ISO_5,0,1,48,58,2538843184
42,19,16,Jits_ISO_5,1,5,56,103,2538846440
42,19,16,Jits_ISO_5,2,5,63,98,2538856932
42,19,16,Jits_ISO_5,3,5,80,127,2538877392
42,19,16,Jits_ISO_5,0,1,48,54,2539338204
42,19,16,Jits_ISO_5,1,5,63,98,2539387452
42,19,16,Jits_ISO_5,2,5,80,127,2539406640
42,19,16,Jits_ISO_5,3,5,56,103,2539427396
42,19,16,Jits_ISO_5,0,5,56,103,2539826516
42,19,16,Jits_ISO_5,1,1,48,62,2539880348
42,19,16,Jits_ISO_5,2,5,80,127,2539906600
42,19,16,Jits_ISO_5,3,5,63,98,2539916648
42,19,16,Jits_ISO_5,0,1,48,46,2540351324
42,19,16,Jits_ISO_5,1,5,80,127,2540367388
42,19,16,Jits_ISO_5,2,5,63,98,2540376464
42,19,16,Jits_ISO_5,3,5,56,103,2540407408
42,19,16,Jits_ISO_5,0,5,63,98,2540827024
42,19,16,Jits_ISO_5,1,1,48,27,2540857192
42,19,16,Jits_ISO_5,2,5,80,127,2540866808
42,19,16,Jits_ISO_5,3,5,56,103,2540927420
42,19,16,Jits_ISO_5,0,1,48,52,2541336320
42,19,16,Jits_ISO_5,1,5,63,98,2541338112
42,19,16,Jits_ISO_5,2,5,56,103,2541387140
42,19,16,Jits_ISO_5,3,5,80,127,2541416816
42,19,16,Jits_ISO_5,0,5,80,127,2541846996
42,19,16,Jits_ISO_5,1,1,48,54,2541850484
42,19,16,Jits_ISO_5,2,5,63,98,2541857356
42,19,16,Jits_ISO_5,3,5,56,103,2541926812
42,19,16,Jits_ISO_5,0,1,48,54,2542340712
42,19,16,Jits_ISO_5,1,5,80,127,2542417264
42,19,16,Jits_ISO_5,2,5,56,103,2542426412
42,19,16,Jits_ISO_5,3,5,63,98,2542429552
42,19,16,Jits_ISO_5,0,1,48,45,2542828988
42,19,16,Jits_ISO_5,1,5,56,103,2542856440
42,19,16,Jits_ISO_5,2,5,80,127,2542877044
42,19,16,Jits_ISO_5,3,5,63,98,2542887536
42,19,16,Jits_ISO_5,0,1,48,39,2543326596
42,19,16,Jits_ISO_5,1,5,63,98,2543366628
42,19,16,Jits_ISO_5,2,5,56,103,2543406516
42,19,16,Jits_ISO_5,3,5,80,127,2543426884
42,19,16,Jits_ISO_5,0,1,48,56,2543850756
42,19,16,Jits_ISO_5,1,5,63,98,2543867412
42,19,16,Jits_ISO_5,2,5,56,103,2543926632
42,19,16,Jits_ISO_5,3,5,80,127,2543929772
42,19,16,Jits_ISO_5,0,5,56,103,2544326920
42,19,16,Jits_ISO_5,1,5,80,127,2544346408
42,19,16,Jits_ISO_5,2,1,48,56,2544356872
42,19,16,Jits_ISO_5,3,5,63,98,2544386412
42,19,16,Jits_ISO_5,0,1,48,47,2544830372
42,19,16,Jits_ISO_5,1,5,56,103,2544856328
42,19,16,Jits_ISO_5,2,5,63,98,2544876936
42,19,16,Jits_ISO_5,3,5,80,127,2544887280
42,19,16,Jits_ISO_5,0,5,80,127,2545326548
42,19,16,Jits_ISO_5,1,1,48,57,2545334992
42,19,16,Jits_ISO_5,2,5,56,103,2545357340
42,19,16,Jits_ISO_5,3,5,63,98,2545397276
42,19,16,Jits_ISO_5,0,1,48,56,2545835260
42,19,16,Jits_ISO_5,1,5,80,127,2545837376
42,19,16,Jits_ISO_5,2,5,56,103,2545857012
42,19,16,Jits_ISO_5,3,5,63,98,2545917324
42,19,16,Jits_ISO_5,0,1,48,43,2546314388
42,19,16,Jits_ISO_5,1,5,56,103,2546347372
42,19,16,Jits_ISO_5,2,5,80,127,2546366784
42,19,16,Jits_ISO_5,3,5,63,98,2546427376
42,19,16,Jits_ISO_5,0,5,80,127,2546826584
42,19,16,Jits_ISO_5,1,5,56,103,2546836856
42,19,16,Jits_ISO_5,2,1,48,73,2546840124
42,19,16,Jits_ISO_5,3,5,63,98,2546876712
42,19,16,Jits_ISO_5,0,5,63,98,2547327452
42,19,16,Jits_ISO_5,1,1,48,73,2547350124
42,19,16,Jits_ISO_5,2,5,56,103,2547367236
42,19,16,Jits_ISO_5,3,5,80,127,2547370448
42,19,16,Jits_ISO_5,0,5,63,98,2547846508
42,19,16,Jits_ISO_5,1,1,48,48,2547876004
42,19,16,Jits_ISO_5,2,5,80,127,2547886436
42,19,16,Jits_ISO_5,3,5,56,103,2547917380
42,19,16,Jits_ISO_5,0,5,56,103,2548337100
42,19,16,Jits_ISO_5,1,5,63,98,2548347148
42,19,16,Jits_ISO_5,2,1,48,57,2548359184
42,19,16,Jits_ISO_5,3,5,80,127,2548377036
42,19,16,Jits_ISO_5,0,5,80,127,2548826508
42,19,16,Jits_ISO_5,1,1,48,54,2548842356
42,19,16,Jits_ISO_5,2,5,63,98,2548897376
42,19,16,Jits_ISO_5,3,5,56,103,2548907348
42,19,16,Jits_ISO_5,0,5,63,98,2549327152
42,19,16,Jits_ISO_5,1,1,48,61,2549353412
42,19,16,Jits_ISO_5,2,5,56,103,2549396976
42,19,16,Jits_ISO_5,3,5,80,127,2549407320
42,19,16,Jits_ISO_5,0,5,63,98,2549827188
42,19,16,Jits_ISO_5,1,5,56,103,2549847276
42,19,16,Jits_ISO_5,2,1,48,63,2549865232
42,19,16,Jits_ISO_5,3,1,38,17,2549875104
42,19,16,Jits_ISO_5,4,5,80,127,2549887336
42,19,16,Jits_ISO_5,0,1,48,70,2550320804
42,19,16,Jits_ISO_5,1,5,56,103,2550336868
42,19,16,Jits_ISO_5,2,5,63,98,2550347064
42,19,16,Jits_ISO_5,3,5,80,127,2550427284
42,19,16,Jits_ISO_5,0,1,48,65,2550824724
42,19,16,Jits_ISO_5,1,5,63,98,2550827312
42,19,16,Jits_ISO_5,2,1,38,18,2550835004
42,19,16,Jits_ISO_5,3,5,56,103,2550857204
42,19,16,Jits_ISO_5,4,5,80,127,2550896992
42,19,16,Jits_ISO_5,0,5,56,103,2551327276
42,19,16,Jits_ISO_5,1,1,48,61,2551361036
42,19,16,Jits_ISO_5,2,5,63,98,2551367208
42,19,16,Jits_ISO_5,3,1,38,16,2551371224
42,19,16,Jits_ISO_5,4,5,80,127,2551407212
42,19,16,Jits_ISO_5,0,5,80,127,2551826928
42,19,16,Jits_ISO_5,1,1,48,73,2551872624
42,19,16,Jits_ISO_5,2,5,56,103,2551906668
42,19,16,Jits_ISO_5,3,5,63,98,2551917084
42,19,16,Jits_ISO_5,0,5,56,103,2552366332
42,19,16,Jits_ISO_5,1,5,63,98,2552369552
42,19,16,Jits_ISO_5,2,1,48,44,2552376304
42,19,16,Jits_ISO_5,3,5,80,127,2552378168
42,19,16,Jits_ISO_5,0,1,48,64,2552854244
42,19,16,Jits_ISO_5,1,5,56,103,2552886596
42,19,16,Jits_ISO_5,2,5,63,98,2552907280
42,19,16,Jits_ISO_5,3,5,80,127,2552917400
42,19,16,Jits_ISO_5,0,5,63,98,2553346312
42,19,16,Jits_ISO_5,1,5,80,127,2553356508
42,19,16,Jits_ISO_5,2,1,48,50,2553370484
42,19,16,Jits_ISO_5,3,5,56,103,2553377132
42,19,16,Jits_ISO_5,0,1,48,67,2553839184
42,19,16,Jits_ISO_5,1,5,63,98,2553847152
42,19,16,Jits_ISO_5,2,5,56,103,2553927192
42,19,16,Jits_ISO_5,3,5,80,127,2553930108
42,19,16,Jits_ISO_5,0,5,63,98,2554346964
42,19,16,Jits_ISO_5,1,1,48,67,2554357132
42,19,16,Jits_ISO_5,2,5,56,103,2554367268
42,19,16,Jits_ISO_5,3,1,38,18,2554368232
42,19,16,Jits_ISO_5,4,5,80,127,2554396960
42,19,16,Jits_ISO_5,0,5,56,103,2554846704
42,19,16,Jits_ISO_5,1,1,48,55,2554853112
42,19,16,Jits_ISO_5,2,1,38,15,2554862984
42,19,16,Jits_ISO_5,3,5,63,98,2554867136
42,19,16,Jits_ISO_5,4,5,80,127,2554877184
42,19,16,Jits_ISO_5,0,1,48,73,2555352624
42,19,16,Jits_ISO_5,1,5,56,103,2555376932
42,19,16,Jits_ISO_5,2,5,63,98,2555406676
42,19,16,Jits_ISO_5,3,5,80,127,2555410040
42,19,16,Jits_ISO_5,0,5,56,103,2555826620
42,19,16,Jits_ISO_5,1,1,48,44,2555864592
42,19,16,Jits_ISO_5,2,5,63,98,2555866404
42,19,16,Jits_ISO_5,3,5,80,127,2555927012
42,19,16,Jits_ISO_5,0,5,56,103,2556346828
42,19,16,Jits_ISO_5,1,1,48,57,2556348468
42,19,16,Jits_ISO_5,2,5,63,98,2556356940
42,19,16,Jits_ISO_5,3,5,80,127,2556417476
42,19,16,Jits_ISO_5,0,5,56,103,2556846352
42,19,16,Jits_ISO_5,1,1,48,48,2556857936
42,19,16,Jits_ISO_5,2,5,80,127,2556866880
42,19,16,Jits_ISO_5,3,5,63,98,2556896552
42,19,16,Jits_ISO_5,0,5,80,127,2557347148
42,19,16,Jits_ISO_5,1,1,48,57,2557353780
42,19,16,Jits_ISO_5,2,5,56,103,2557357560
42,19,16,Jits_ISO_5,3,5,63,98,2557377048
42,19,16,Jits_ISO_5,0,5,63,98,2557836784
42,19,16,Jits_ISO_5,1,1,48,46,2557854648
42,19,16,Jits_ISO_5,2,5,80,127,2557916496
42,19,16,Jits_ISO_5,3,5,56,103,2557926916
42,19,16,Jits_ISO_5,0,1,48,44,2558366388
42,19,16,Jits_ISO_5,1,5,80,127,2558396904
42,19,16,Jits_ISO_5,2,5,56,103,2558417212
42,19,16,Jits_ISO_5,3,5,63,98,2558420352
42,19,16,Jits_ISO_5,0,5,63,98,2558866896
42,19,16,Jits_ISO_5,1,5,80,127,2558869964
42,19,16,Jits_ISO_5,2,1,48,58,2558877212
42,19,16,Jits_ISO_5,3,5,56,103,2558927200
42,19,16,Jits_ISO_5,0,5,56,103,2559346924
42,19,16,Jits_ISO_5,1,5,80,127,2559357492
42,19,16,Jits_ISO_5,2,5,63,98,2559397280
42,19,16,Jits_ISO_5,3,1,48,50,2559402344
42,19,16,Jits_ISO_5,0,5,56,103,2559827264
42,19,16,Jits_ISO_5,1,1,48,60,2559884092
42,19,16,Jits_ISO_5,2,5,63,98,2559886900
42,19,16,Jits_ISO_5,3,5,80,127,2559897020
42,19,16,Jits_ISO_5,0,5,63,98,2560337204
42,19,16,Jits_ISO_5,1,1,48,73,2560369464
42,19,16,Jits_ISO_5,2,5,80,127,2560377136
42,19,16,Jits_ISO_5,3,5,56,103,2560417072
42,19,16,Jits_ISO_5,0,5,56,103,2560837084
42,19,16,Jits_ISO_5,1,1,48,86,2560879912
42,19,16,Jits_ISO_5,2,5,63,98,2560916796
42,19,16,Jits_ISO_5,3,5,80,127,2560920236
42,19,16,Jits_ISO_5,0,9999,9999,9999,2501624936
42,19,16,Jits_ISO_5,1,9999,9999,9999,2502124656
42,19,16,Jits_ISO_5,2,9999,9999,9999,2502624376
42,19,16,Jits_ISO_5,3,9999,9999,9999,2503125080
42,19,16,Jits_ISO_5,4,9999,9999,9999,2503624816
42,19,16,Jits_ISO_5,5,9999,9999,9999,2504124484
42,19,16,Jits_ISO_5,6,9999,9999,9999,2504624216
42,19,16,Jits_ISO_5,7,9999,9999,9999,2505124936
42,19,16,Jits_ISO_5,8,9999,9999,9999,2505624684
42,19,16,Jits_ISO_5,9,9999,9999,9999,2506124360
42,19,16,Jits_ISO_5,10,9999,9999,9999,2506624108
42,19,16,Jits_ISO_5,11,9999,9999,9999,2507124832
42,19,16,Jits_ISO_5,12,9999,9999,9999,2507624560
42,19,16,Jits_ISO_5,13,9999,9999,9999,2508124220
42,19,16,Jits_ISO_5,14,9999,9999,9999,2508625000
42,19,16,Jits_ISO_5,15,9999,9999,9999,2509124676
42,19,16,Jits_ISO_5,16,9999,9999,9999,2509624404
42,19,16,Jits_ISO_5,17,9999,9999,9999,2510124140
42,19,16,Jits_ISO_5,18,9999,9999,9999,2510624860
42,19,16,Jits_ISO_5,19,9999,9999,9999,2511124580
42,19,16,Jits_ISO_5,20,9999,9999,9999,2511624244
42,19,16,Jits_ISO_5,21,9999,9999,9999,2512125044
42,19,16,Jits_ISO_5,22,9999,9999,9999,2512624712
42,19,16,Jits_ISO_5,23,9999,9999,9999,2513124464
42,19,16,Jits_ISO_5,24,9999,9999,9999,2513624140
42,19,16,Jits_ISO_5,25,9999,9999,9999,2514124852
42,19,16,Jits_ISO_5,26,9999,9999,9999,2514624608
42,19,16,Jits_ISO_5,27,9999,9999,9999,2515124332
42,19,16,Jits_ISO_5,28,9999,9999,9999,2515625056
42,19,16,Jits_ISO_5,29,9999,9999,9999,2516124788
42,19,16,Jits_ISO_5,30,9999,9999,9999,2516624464
42,19,16,Jits_ISO_5,31,9999,9999,9999,2517124216
42,19,16,Jits_ISO_5,32,9999,9999,9999,2517624932
42,19,16,Jits_ISO_5,33,9999,9999,9999,2518124636
42,19,16,Jits_ISO_5,34,9999,9999,9999,2518624348
42,19,16,Jits_ISO_5,35,9999,9999,9999,2519125068
42,19,16,Jits_ISO_5,36,9999,9999,9999,2519624792
42,19,16,Jits_ISO_5,37,9999,9999,9999,2520124524
42,19,16,Jits_ISO_5,38,9999,9999,9999,2520624248
42,19,16,Jits_ISO_5,39,9999,9999,9999,2521124956
42,19,16,Jits_ISO_5,40,9999,9999,9999,2521624668
42,19,16,Jits_ISO_5,41,9999,9999,9999,2522124372
42,19,16,Jits_ISO_5,42,9999,9999,9999,2522624080
42,19,16,Jits_ISO_5,43,9999,9999,9999,2523124856
42,19,16,Jits_ISO_5,44,9999,9999,9999,2523624516
42,19,16,Jits_ISO_5,45,9999,9999,9999,2524124264
42,19,16,Jits_ISO_5,46,9999,9999,9999,2524624948
42,19,16,Jits_ISO_5,47,9999,9999,9999,2525124724
42,19,16,Jits_ISO_5,48,9999,9999,9999,2525624384
42,19,16,Jits_ISO_5,49,9999,9999,9999,2526124092
42,19,16,Jits_ISO_5,50,9999,9999,9999,2526624824
42,19,16,Jits_ISO_5,51,9999,9999,9999,2527124576
42,19,16,Jits_ISO_5,52,9999,9999,9999,2527624252
42,19,16,Jits_ISO_5,53,9999,9999,9999,2528125016
42,19,16,Jits_ISO_5,54,9999,9999,9999,2528624752
42,19,16,Jits_ISO_5,55,9999,9999,9999,2529124468
42,19,16,Jits_ISO_5,56,9999,9999,9999,2529624140
42,19,16,Jits_ISO_5,57,9999,9999,9999,2530124856
42,19,16,Jits_ISO_5,58,9999,9999,9999,2530624608
42,19,16,Jits_ISO_5,59,9999,9999,9999,2531124340
42,19,16,Jits_ISO_5,60,9999,9999,9999,2531625064
42,19,16,Jits_ISO_5,61,9999,9999,9999,2532124768
42,19,16,Jits_ISO_5,62,9999,9999,9999,2532624444
42,19,16,Jits_ISO_5,63,9999,9999,9999,2533124156
42,19,16,Jits_ISO_5,64,9999,9999,9999,2533624900
42,19,16,Jits_ISO_5,65,9999,9999,9999,2534124648
42,19,16,Jits_ISO_5,66,9999,9999,9999,2534624320
42,19,16,Jits_ISO_5,67,9999,9999,9999,2535125104
42,19,16,Jits_ISO_5,68,9999,9999,9999,2535624768
42,19,16,Jits_ISO_5,69,9999,9999,9999,2536124508
42,19,16,Jits_ISO_5,70,9999,9999,9999,2536624232
42,19,16,Jits_ISO_5,71,9999,9999,9999,2537124916
42,19,16,Jits_ISO_5,72,9999,9999,9999,2537624652
42,19,16,Jits_ISO_5,73,9999,9999,9999,2538124352
42,19,16,Jits_ISO_5,74,9999,9999,9999,2538624088
42,19,16,Jits_ISO_5,75,9999,9999,9999,2539124788
42,19,16,Jits_ISO_5,76,9999,9999,9999,2539624532
42,19,16,Jits_ISO_5,77,9999,9999,9999,2540124268
42,19,16,Jits_ISO_5,78,9999,9999,9999,2540624992
42,19,16,Jits_ISO_5,79,9999,9999,9999,2541124704
42,19,16,Jits_ISO_5,80,9999,9999,9999,2541624436
42,19,16,Jits_ISO_5,81,9999,9999,9999,2542124096
42,19,16,Jits_ISO_5,82,9999,9999,9999,2542624892
42,19,16,Jits_ISO_5,83,9999,9999,9999,2543124576
42,19,16,Jits_ISO_5,84,9999,9999,9999,2543624308
42,19,16,Jits_ISO_5,85,9999,9999,9999,2544125012
42,19,16,Jits_ISO_5,86,9999,9999,9999,2544624744
42,19,16,Jits_ISO_5,87,9999,9999,9999,2545124420
42,19,16,Jits_ISO_5,88,9999,9999,9999,2545624148
42,19,16,Jits_ISO_5,89,9999,9999,9999,2546124868
42,19,16,Jits_ISO_5,90,9999,9999,9999,2546624604
42,19,16,Jits_ISO_5,91,9999,9999,9999,2547124336
42,19,16,Jits_ISO_5,92,9999,9999,9999,2547625044
42,19,16,Jits_ISO_5,93,9999,9999,9999,2548124780
42,19,16,Jits_ISO_5,94,9999,9999,9999,2548624436
42,19,16,Jits_ISO_5,95,9999,9999,9999,2549124188
42,19,16,Jits_ISO_5,96,9999,9999,9999,2549624908
42,19,16,Jits_ISO_5,97,9999,9999,9999,2550124668
42,19,16,Jits_ISO_5,98,9999,9999,9999,2550624364
42,19,16,Jits_ISO_5,99,9999,9999,9999,2551125108
42,19,16,Jits_ISO_5,100,9999,9999,9999,2551624772
42,19,16,Jits_ISO_5,101,9999,9999,9999,2552124484
42,19,16,Jits_ISO_5,102,9999,9999,9999,2552624224
42,19,16,Jits_ISO_5,103,9999,9999,9999,2553124948
42,19,16,Jits_ISO_5,104,9999,9999,9999,2553624656
42,19,16,Jits_ISO_5,105,9999,9999,9999,2554124380
42,19,16,Jits_ISO_5,106,9999,9999,9999,2554624080
42,19,16,Jits_ISO_5,107,9999,9999,9999,2555124852
42,19,16,Jits_ISO_5,108,9999,9999,9999,2555624560
42,19,16,Jits_ISO_5,109,9999,9999,9999,2556124228
42,19,16,Jits_ISO_5,110,9999,9999,9999,2556624948
42,19,16,Jits_ISO_5,111,9999,9999,9999,2557124696
42,19,16,Jits_ISO_5,112,9999,9999,9999,2557624372
42,19,16,Jits_ISO_5,113,9999,9999,9999,2558124128
42,19,16,Jits_ISO_5,114,9999,9999,9999,2558624832
42,19,16,Jits_ISO_5,115,9999,9999,9999,2559124560
42,19,16,Jits_ISO_5,116,9999,9999,9999,2559624296
42,19,16,Jits_ISO_5,117,9999,9999,9999,2560125020
42,19,16,Jits_ISO_5,118,9999,9999,9999,2560624696
42,19,16,Jits_ISO_5,119,9999,9999,9999,2561124420
42,20,3,ISIP_8,0,5,42,127,2618106220
42,20,3,ISIP_8,1,5,42,127,2618906224
42,20,3,ISIP_8,2,5,42,127,2619705756
42,20,3,ISIP_8,3,1,48,64,2619739320
42,20,3,ISIP_8,4,5,42,127,2620505416
42,20,3,ISIP_8,5,1,48,61,2620528204
42,20,3,ISIP_8,6,5,42,127,2621306272
42,20,3,ISIP_8,7,1,48,59,2621329884
42,20,3,ISIP_8,8,5,42,127,2622106152
42,20,3,ISIP_8,9,1,48,66,2622119520
42,20,3,ISIP_8,10,5,42,127,2622905736
42,20,3,ISIP_8,11,1,48,73,2622926508
42,20,3,ISIP_8,12,5,42,127,2623705468
42,20,3,ISIP_8,13,1,48,79,2623715396
42,20,3,ISIP_8,14,5,42,127,2624506324
42,20,3,ISIP_8,15,1,48,72,2624517820
42,20,3,ISIP_8,16,5,42,127,2625306080
42,20,3,ISIP_8,17,1,48,79,2625320420
42,20,3,ISIP_8,18,1,48,74,2626104984
42,20,3,ISIP_8,19,5,42,127,2626106856
42,20,3,ISIP_8,20,1,48,67,2626888304
42,20,3,ISIP_8,21,5,42,127,2626905320
42,20,3,ISIP_8,22,1,48,54,2627696716
42,20,3,ISIP_8,23,5,42,127,2627706320
42,20,3,ISIP_8,24,1,48,59,2628484480
42,20,3,ISIP_8,25,5,42,127,2628505908
42,20,3,ISIP_8,26,1,48,67,2629275460
42,20,3,ISIP_8,27,5,42,127,2629306008
42,20,3,ISIP_8,28,1,48,75,2630055976
42,20,3,ISIP_8,29,5,42,127,2630105372
42,20,3,ISIP_8,30,1,48,52,2630891836
42,20,3,ISIP_8,31,5,42,127,2630906228
42,20,3,ISIP_8,32,1,48,70,2631687900
42,20,3,ISIP_8,33,5,42,127,2631705908
42,20,3,ISIP_8,34,5,42,127,2632505876
42,20,3,ISIP_8,35,1,48,72,2632507140
42,20,3,ISIP_8,36,5,42,127,2633305608
42,20,3,ISIP_8,37,1,48,65,2633311276
42,20,3,ISIP_8,38,1,48,72,2634101560
42,20,3,ISIP_8,39,5,42,127,2634106232
42,20,3,ISIP_8,40,1,48,58,2634902720
42,20,3,ISIP_8,41,5,42,127,2634905892
42,20,3,ISIP_8,42,1,48,68,2635690704
42,20,3,ISIP_8,43,5,42,127,2635705624
42,20,3,ISIP_8,44,1,48,73,2636485804
42,20,3,ISIP_8,45,5,42,127,2636505732
42,20,3,ISIP_8,46,5,42,127,2637306292
42,20,3,ISIP_8,47,1,48,56,2637320632
42,20,3,ISIP_8,48,1,48,53,2638088412
42,20,3,ISIP_8,49,5,42,127,2638105968
42,20,3,ISIP_8,50,1,48,60,2638881360
42,20,3,ISIP_8,51,5,42,127,2638905776
42,20,3,ISIP_8,52,1,48,73,2639687828
42,20,3,ISIP_8,53,5,42,127,2639705660
42,20,3,ISIP_8,54,5,42,127,2640506076
42,20,3,ISIP_8,55,1,48,61,2640515404
42,20,3,ISIP_8,56,5,42,127,2641305884
42,20,3,ISIP_8,57,1,48,67,2641308852
42,20,3,ISIP_8,58,1,48,72,2642099740
42,20,3,ISIP_8,59,1,48,68,2642903448
42,20,3,ISIP_8,60,1,48,67,2643687156
42,20,3,ISIP_8,61,1,48,68,2644450760
42,20,3,ISIP_8,62,1,48,75,2645264548
42,20,3,ISIP_8,63,1,48,65,2646028524
42,20,3,ISIP_8,64,1,48,58,2646840396
42,20,3,ISIP_8,65,1,48,67,2647626136
42,20,3,ISIP_8,66,1,48,78,2648414424
42,20,3,ISIP_8,67,1,48,53,2649223948
42,20,3,ISIP_8,68,1,48,68,2649968624
42,20,3,ISIP_8,69,1,48,67,2650744716
42,20,3,ISIP_8,70,1,48,65,2651521116
42,20,3,ISIP_8,71,1,48,79,2652299748
42,20,3,ISIP_8,72,1,48,75,2653081152
42,20,3,ISIP_8,73,1,48,84,2653851788
42,20,3,ISIP_8,74,1,48,65,2654666320
42,20,3,ISIP_8,75,1,48,69,2655435908
42,20,3,ISIP_8,76,1,48,63,2656195468
42,20,3,ISIP_8,77,1,48,62,2656959368
42,20,3,ISIP_8,78,1,48,75,2657718708
42,20,3,ISIP_8,79,1,48,74,2658487244
42,20,3,ISIP_8,80,1,48,59,2659286600
42,20,3,ISIP_8,81,1,48,69,2660042272
42,20,3,ISIP_8,82,1,48,69,2660803332
42,20,3,ISIP_8,83,1,48,67,2661569028
42,20,3,ISIP_8,84,1,48,68,2662317968
42,20,3,ISIP_8,85,1,48,75,2663074316
42,20,3,ISIP_8,86,1,48,66,2663850560
42,20,3,ISIP_8,87,1,48,67,2664603540
42,20,3,ISIP_8,88,1,48,73,2665357348
42,20,3,ISIP_8,89,1,48,68,2666125660
42,20,3,ISIP_8,90,1,48,68,2666875116
42,20,3,ISIP_8,91,1,48,71,2667653672
42,20,3,ISIP_8,92,1,48,67,2668403064
42,20,3,ISIP_8,93,1,48,56,2669170780
42,20,3,ISIP_8,94,1,48,68,2669919944
42,20,3,ISIP_8,95,1,48,71,2670703068
42,20,3,ISIP_8,96,1,48,70,2671476172
42,20,3,ISIP_8,97,1,48,64,2672246652
42,20,3,ISIP_8,98,1,48,67,2672951240
42,20,3,ISIP_8,99,1,48,68,2673733692
42,20,3,ISIP_8,100,1,48,69,2674487720
42,20,3,ISIP_8,101,1,48,53,2675250120
42,20,3,ISIP_8,102,1,48,60,2676006468
42,20,3,ISIP_8,103,1,48,61,2676764308
42,20,3,ISIP_8,104,1,48,62,2677521684
42,20,3,ISIP_8,105,1,48,70,2678277356
42,20,3,ISIP_8,106,1,48,78,2679032800
42,20,3,ISIP_8,107,1,48,68,2679797376
42,20,3,ISIP_8,108,1,48,72,2680584160
42,20,3,ISIP_8,109,1,48,67,2681372548
42,20,3,ISIP_8,110,1,48,70,2682133456
42,20,3,ISIP_8,111,1,48,67,2682894028
42,20,3,ISIP_8,112,1,48,66,2683660476
42,20,3,ISIP_8,113,1,48,61,2684429236
42,20,3,ISIP_8,114,1,48,61,2685170852
42,20,3,ISIP_8,115,1,48,55,2685909916
42,20,3,ISIP_8,116,1,48,53,2686655412
42,20,3,ISIP_8,117,1,48,57,2687408252
42,20,3,ISIP_8,118,1,48,71,2688158608
42,20,3,ISIP_8,119,1,48,60,2688906656
42,20,3,ISIP_8,120,1,48,53,2689655372
42,20,3,ISIP_8,121,1,48,63,2690424356
42,20,3,ISIP_8,122,1,48,66,2691145324
42,20,3,ISIP_8,123,1,48,69,2691871228
42,20,3,ISIP_8,124,1,48,58,2692631240
42,20,3,ISIP_8,125,1,48,74,2693363548
42,20,3,ISIP_8,126,1,48,67,2694091164
42,20,3,ISIP_8,127,1,48,71,2694831352
42,20,3,ISIP_8,128,1,48,67,2695615196
42,20,3,ISIP_8,129,1,48,63,2696360772
42,20,3,ISIP_8,130,1,48,67,2697060272
42,20,3,ISIP_8,131,1,48,67,2697795304
42,20,3,ISIP_8,132,1,48,58,2698541628
42,20,3,ISIP_8,133,1,48,68,2699264664
42,20,3,ISIP_8,134,1,48,67,2700008596
42,20,3,ISIP_8,135,1,48,66,2700748780
42,20,3,ISIP_8,136,1,48,61,2701474388
42,20,3,ISIP_8,137,1,48,64,2702214356
42,20,3,ISIP_8,138,1,48,62,2702928884
42,20,3,ISIP_8,139,1,48,66,2703659044
42,20,3,ISIP_8,140,1,48,74,2704382676
42,20,3,ISIP_8,141,1,48,71,2705082700
42,20,3,ISIP_8,142,1,48,59,2705829996
42,20,3,ISIP_8,143,1,48,61,2706579908
42,20,3,ISIP_8,144,1,48,66,2707304992
42,20,3,ISIP_8,145,1,48,63,2708044960
42,20,3,ISIP_8,146,1,48,60,2708810804
42,20,3,ISIP_8,147,1,48,60,2709553240
42,20,3,ISIP_8,148,1,48,60,2710342872
42,20,3,ISIP_8,149,1,48,65,2711113876
42,20,3,ISIP_8,150,1,48,61,2711879724
42,20,3,ISIP_8,151,1,48,42,2712639428
42,20,3,ISIP_8,152,1,48,60,2713409992
42,20,3,ISIP_8,153,1,48,59,2714148912
42,20,3,ISIP_8,154,1,48,80,2714911536
42,20,3,ISIP_8,155,1,48,48,2715639720
42,20,3,ISIP_8,156,1,48,40,2716502456
42,20,3,ISIP_8,157,1,48,68,2717201332
42,20,3,ISIP_8,158,1,48,70,2717905996
42,20,3,ISIP_8,159,1,48,80,2718660696
42,20,3,ISIP_8,160,1,48,70,2719373284
42,20,3,ISIP_8,161,1,48,62,2720101732
42,20,3,ISIP_8,162,1,48,71,2720852396
42,20,3,ISIP_8,163,1,48,68,2721573508
42,20,3,ISIP_8,164,1,48,67,2722289588
42,20,3,ISIP_8,165,1,48,56,2723029408
42,20,3,ISIP_8,166,1,48,54,2723790388
42,20,3,ISIP_8,167,1,48,55,2724518164
42,20,3,ISIP_8,168,1,48,48,2725268136
42,20,3,ISIP_8,169,1,48,57,2726022468
42,20,3,ISIP_8,170,1,48,61,2726771704
42,20,3,ISIP_8,171,1,48,62,2727541736
42,20,3,ISIP_8,172,1,48,61,2728328004
42,20,3,ISIP_8,173,1,48,59,2729129380
42,20,3,ISIP_8,174,1,48,58,2729889688
42,20,3,ISIP_8,175,1,48,64,2730656960
42,20,3,ISIP_8,176,1,48,61,2731404480
42,20,3,ISIP_8,177,1,48,52,2732162248
42,20,3,ISIP_8,178,1,48,47,2732903484
42,20,3,ISIP_8,179,1,48,63,2733709120
42,20,3,ISIP_8,180,1,48,60,2734496064
42,20,3,ISIP_8,181,1,48,57,2735243128
42,20,3,ISIP_8,182,1,48,57,2736000228
42,20,3,ISIP_8,183,1,48,39,2736393140
42,20,3,ISIP_8,184,1,48,56,2736800008
42,20,3,ISIP_8,185,1,48,49,2737546484
42,20,3,ISIP_8,0,9999,9999,9999,2618103856
42,20,3,ISIP_8,1,9999,9999,9999,2618903612
42,20,3,ISIP_8,2,9999,9999,9999,2619703392
42,20,3,ISIP_8,3,9999,9999,9999,2620503128
42,20,3,ISIP_8,4,9999,9999,9999,2621303908
42,20,3,ISIP_8,5,9999,9999,9999,2622103640
42,20,3,ISIP_8,6,9999,9999,9999,2622903376
42,20,3,ISIP_8,7,9999,9999,9999,2623703104
42,20,3,ISIP_8,8,9999,9999,9999,2624503884
42,20,3,ISIP_8,9,9999,9999,9999,2625303644
42,20,3,ISIP_8,10,9999,9999,9999,2626103376
42,20,3,ISIP_8,11,9999,9999,9999,2626903104
42,20,3,ISIP_8,12,9999,9999,9999,2627703884
42,20,3,ISIP_8,13,9999,9999,9999,2628503616
42,20,3,ISIP_8,14,9999,9999,9999,2629303348
42,20,3,ISIP_8,15,9999,9999,9999,2630103160
42,20,3,ISIP_8,16,9999,9999,9999,2630903864
42,20,3,ISIP_8,17,9999,9999,9999,2631703620
42,20,3,ISIP_8,18,9999,9999,9999,2632503360
42,20,3,ISIP_8,19,9999,9999,9999,2633303096
42,20,3,ISIP_8,20,9999,9999,9999,2634103872
42,20,3,ISIP_8,21,9999,9999,9999,2634903604
42,20,3,ISIP_8,22,9999,9999,9999,2635703412
42,20,3,ISIP_8,23,9999,9999,9999,2636503144
42,20,3,ISIP_8,24,9999,9999,9999,2637303856
42,20,3,ISIP_8,25,9999,9999,9999,2638103608
42,20,3,ISIP_8,26,9999,9999,9999,2638903412
42,20,3,ISIP_8,27,9999,9999,9999,2639703148
42,20,3,ISIP_8,28,9999,9999,9999,2640503860
42,20,3,ISIP_8,29,9999,9999,9999,2641303668
42,20,3,ISIP_8,30,9999,9999,9999,2642103396
42,20,3,ISIP_8,31,9999,9999,9999,2642903164
42,20,3,ISIP_8,32,9999,9999,9999,2643703900
42,20,3,ISIP_8,33,9999,9999,9999,2644503652
42,20,3,ISIP_8,34,9999,9999,9999,2645303380
42,20,3,ISIP_8,35,9999,9999,9999,2646103108
42,20,3,ISIP_8,36,9999,9999,9999,2646903884
42,20,3,ISIP_8,37,9999,9999,9999,2647703612
42,20,3,ISIP_8,38,9999,9999,9999,2648503344
42,20,3,ISIP_8,39,9999,9999,9999,2649303148
42,20,3,ISIP_8,40,9999,9999,9999,2650103908
42,20,3,ISIP_8,41,9999,9999,9999,2650903664
42,20,3,ISIP_8,42,9999,9999,9999,2651703392
42,20,3,ISIP_8,43,9999,9999,9999,2652503120
42,20,3,ISIP_8,44,9999,9999,9999,2653303896
42,20,3,ISIP_8,45,9999,9999,9999,2654103624
42,20,3,ISIP_8,46,9999,9999,9999,2654903356
42,20,3,ISIP_8,47,9999,9999,9999,2655703156
42,20,3,ISIP_8,48,9999,9999,9999,2656503860
42,20,3,ISIP_8,49,9999,9999,9999,2657303612
42,20,3,ISIP_8,50,9999,9999,9999,2658103416
42,20,3,ISIP_8,51,9999,9999,9999,2658903144
42,20,3,ISIP_8,52,9999,9999,9999,2659703920
42,20,3,ISIP_8,53,9999,9999,9999,2660503648
42,20,3,ISIP_8,54,9999,9999,9999,2661303376
42,20,3,ISIP_8,55,9999,9999,9999,2662103108
42,20,3,ISIP_8,56,9999,9999,9999,2662903884
42,20,3,ISIP_8,57,9999,9999,9999,2663703640
42,20,3,ISIP_8,58,9999,9999,9999,2664503368
42,20,3,ISIP_8,59,9999,9999,9999,2665303096
42,20,3,ISIP_8,60,9999,9999,9999,2666103872
42,20,3,ISIP_8,61,9999,9999,9999,2666903600
42,20,3,ISIP_8,62,9999,9999,9999,2667703404
42,20,3,ISIP_8,63,9999,9999,9999,2668503096
42,20,3,ISIP_8,64,9999,9999,9999,2669303892
42,20,3,ISIP_8,65,9999,9999,9999,2670103648
42,20,3,ISIP_8,66,9999,9999,9999,2670903376
42,20,3,ISIP_8,67,9999,9999,9999,2671703104
42,20,3,ISIP_8,68,9999,9999,9999,2672503880
42,20,3,ISIP_8,69,9999,9999,9999,2673303612
42,20,3,ISIP_8,70,9999,9999,9999,2674103416
42,20,3,ISIP_8,71,9999,9999,9999,2674903144
42,20,3,ISIP_8,72,9999,9999,9999,2675703920
42,20,3,ISIP_8,73,9999,9999,9999,2676503600
42,20,3,ISIP_8,74,9999,9999,9999,2677303400
42,20,3,ISIP_8,75,9999,9999,9999,2678103132
42,20,3,ISIP_8,76,9999,9999,9999,2678903908
42,20,3,ISIP_8,77,9999,9999,9999,2679703636
42,20,3,ISIP_8,78,9999,9999,9999,2680503364
42,20,3,ISIP_8,79,9999,9999,9999,2681303096
42,20,3,ISIP_8,80,9999,9999,9999,2682103872
42,20,3,ISIP_8,81,9999,9999,9999,2682903620
42,20,3,ISIP_8,82,9999,9999,9999,2683703344
42,20,3,ISIP_8,83,9999,9999,9999,2684503152
42,20,3,ISIP_8,84,9999,9999,9999,2685303912
42,20,3,ISIP_8,85,9999,9999,9999,2686103640
42,20,3,ISIP_8,86,9999,9999,9999,2686903368
42,20,3,ISIP_8,87,9999,9999,9999,2687703096
42,20,3,ISIP_8,88,9999,9999,9999,2688503876
42,20,3,ISIP_8,89,9999,9999,9999,2689303628
42,20,3,ISIP_8,90,9999,9999,9999,2690103356
42,20,3,ISIP_8,91,9999,9999,9999,2690903088
42,20,3,ISIP_8,92,9999,9999,9999,2691703864
42,20,3,ISIP_8,93,9999,9999,9999,2692503668
42,20,3,ISIP_8,94,9999,9999,9999,2693303396
42,20,3,ISIP_8,95,9999,9999,9999,2694103120
42,20,3,ISIP_8,96,9999,9999,9999,2694903896
42,20,3,ISIP_8,97,9999,9999,9999,2695703624
42,20,3,ISIP_8,98,9999,9999,9999,2696503412
42,20,3,ISIP_8,99,9999,9999,9999,2697303140
42,20,3,ISIP_8,100,9999,9999,9999,2698103916
42,20,3,ISIP_8,101,9999,9999,9999,2698903648
42,20,3,ISIP_8,102,9999,9999,9999,2699703376
42,20,3,ISIP_8,103,9999,9999,9999,2700503104
42,20,3,ISIP_8,104,9999,9999,9999,2701303880
42,20,3,ISIP_8,105,9999,9999,9999,2702103636
42,20,3,ISIP_8,106,9999,9999,9999,2702903364
42,20,3,ISIP_8,107,9999,9999,9999,2703703084
42,20,3,ISIP_8,108,9999,9999,9999,2704503920
42,20,3,ISIP_8,109,9999,9999,9999,2705303648
42,20,3,ISIP_8,110,9999,9999,9999,2706103380
42,20,3,ISIP_8,111,9999,9999,9999,2706903108
42,20,3,ISIP_8,112,9999,9999,9999,2707703884
42,20,3,ISIP_8,113,9999,9999,9999,2708503640
42,20,3,ISIP_8,114,9999,9999,9999,2709303368
42,20,3,ISIP_8,115,9999,9999,9999,2710103100
42,20,3,ISIP_8,116,9999,9999,9999,2710903876
42,20,3,ISIP_8,117,9999,9999,9999,2711703604
42,20,3,ISIP_8,118,9999,9999,9999,2712503408
42,20,3,ISIP_8,119,9999,9999,9999,2713303136
42,20,3,ISIP_8,120,9999,9999,9999,2714103912
42,20,3,ISIP_8,121,9999,9999,9999,2714903664
42,20,3,ISIP_8,122,9999,9999,9999,2715703388
42,20,3,ISIP_8,123,9999,9999,9999,2716503120
42,20,3,ISIP_8,124,9999,9999,9999,2717303876
42,20,3,ISIP_8,125,9999,9999,9999,2718103608
42,20,3,ISIP_8,126,9999,9999,9999,2718903412
42,20,3,ISIP_8,127,9999,9999,9999,2719703140
42,20,3,ISIP_8,128,9999,9999,9999,2720503916
42,20,3,ISIP_8,129,9999,9999,9999,2721303672
42,20,3,ISIP_8,130,9999,9999,9999,2722103400
42,20,3,ISIP_8,131,9999,9999,9999,2722903132
42,20,3,ISIP_8,132,9999,9999,9999,2723703904
42,20,3,ISIP_8,133,9999,9999,9999,2724503636
42,20,3,ISIP_8,134,9999,9999,9999,2725303356
42,20,3,ISIP_8,135,9999,9999,9999,2726103088
42,20,3,ISIP_8,136,9999,9999,9999,2726903920
42,20,3,ISIP_8,137,9999,9999,9999,2727703600
42,20,3,ISIP_8,138,9999,9999,9999,2728503404
42,20,3,ISIP_8,139,9999,9999,9999,2729303132
42,20,3,ISIP_8,140,9999,9999,9999,2730103908
42,20,3,ISIP_8,141,9999,9999,9999,2730903640
42,20,3,ISIP_8,142,9999,9999,9999,2731703368
42,20,3,ISIP_8,143,9999,9999,9999,2732503100
42,20,3,ISIP_8,144,9999,9999,9999,2733303872
42,20,3,ISIP_8,145,9999,9999,9999,2734103628
42,20,3,ISIP_8,146,9999,9999,9999,2734903360
42,20,3,ISIP_8,147,9999,9999,9999,2735703088
42,20,3,ISIP_8,148,9999,9999,9999,2736503916
42,20,3,ISIP_8,149,9999,9999,9999,2737303644
42,21,5,ISIP_5,0,5,42,127,2759971408
42,21,5,ISIP_5,1,5,42,127,2760470976
42,21,5,ISIP_5,2,5,42,127,2760970520
42,21,5,ISIP_5,3,1,48,47,2761017340
42,21,5,ISIP_5,4,5,42,127,2761471408
42,21,5,ISIP_5,5,1,48,69,2761480960
42,21,5,ISIP_5,6,1,48,73,2761969512
42,21,5,ISIP_5,7,5,42,127,2761971244
42,21,5,ISIP_5,8,1,48,69,2762459836
42,21,5,ISIP_5,9,5,42,127,2762470792
42,21,5,ISIP_5,10,1,48,66,2762963048
42,21,5,ISIP_5,11,5,42,127,2762970412
42,21,5,ISIP_5,12,1,48,64,2763461392
42,21,5,ISIP_5,13,5,42,127,2763471304
42,21,5,ISIP_5,14,1,48,69,2763944484
42,21,5,ISIP_5,15,5,42,127,2763971296
42,21,5,ISIP_5,16,1,48,62,2764452776
42,21,5,ISIP_5,17,5,42,127,2764470616
42,21,5,ISIP_5,18,1,48,61,2764955540
42,21,5,ISIP_5,19,5,42,127,2764971360
42,21,5,ISIP_5,20,1,48,54,2765441624
42,21,5,ISIP_5,21,5,42,127,2765471132
42,21,5,ISIP_5,22,1,48,62,2765931520
42,21,5,ISIP_5,23,5,42,127,2765970752
42,21,5,ISIP_5,24,1,48,64,2766451636
42,21,5,ISIP_5,25,5,42,127,2766470596
42,21,5,ISIP_5,26,1,48,59,2766963524
42,21,5,ISIP_5,27,5,42,127,2766971188
42,21,5,ISIP_5,28,1,48,57,2767456936
42,21,5,ISIP_5,29,5,42,127,2767471180
42,21,5,ISIP_5,30,1,48,59,2767967704
42,21,5,ISIP_5,31,5,42,127,2767970876
42,21,5,ISIP_5,32,1,48,61,2768467840
42,21,5,ISIP_5,33,5,42,127,2768471616
42,21,5,ISIP_5,34,1,48,59,2768970948
42,21,5,ISIP_5,35,5,42,127,2768972432
42,21,5,ISIP_5,36,5,42,127,2769470940
42,21,5,ISIP_5,37,1,48,59,2769473984
42,21,5,ISIP_5,38,5,42,127,2769970636
42,21,5,ISIP_5,39,1,48,66,2769971900
42,21,5,ISIP_5,40,5,42,127,2770471304
42,21,5,ISIP_5,41,1,48,57,2770475472
42,21,5,ISIP_5,42,1,48,52,2770967596
42,21,5,ISIP_5,43,5,42,127,2770971216
42,21,5,ISIP_5,44,5,42,127,2771470984
42,21,5,ISIP_5,45,1,48,61,2771471952
42,21,5,ISIP_5,46,5,42,127,2771970584
42,21,5,ISIP_5,47,1,48,64,2771971472
42,21,5,ISIP_5,48,5,42,127,2772471100
42,21,5,ISIP_5,49,1,48,52,2772956640
42,21,5,ISIP_5,50,5,42,127,2772970960
42,21,5,ISIP_5,51,1,48,67,2773433144
42,21,5,ISIP_5,52,5,42,127,2773470432
42,21,5,ISIP_5,53,1,48,71,2773917808
42,21,5,ISIP_5,54,1,38,17,2773928184
42,21,5,ISIP_5,55,5,42,127,2773971300
42,21,5,ISIP_5,56,1,48,65,2774443260
42,21,5,ISIP_5,57,1,38,17,2774453108
42,21,5,ISIP_5,58,5,42,127,2774470948
42,21,5,ISIP_5,59,1,48,66,2774952344
42,21,5,ISIP_5,60,5,42,127,2774970928
42,21,5,ISIP_5,61,1,48,59,2775443888
42,21,5,ISIP_5,62,5,42,127,2775470400
42,21,5,ISIP_5,63,1,48,73,2775944928
42,21,5,ISIP_5,64,5,42,127,2775971216
42,21,5,ISIP_5,65,1,48,70,2776450384
42,21,5,ISIP_5,66,5,42,127,2776470984
42,21,5,ISIP_5,67,1,48,69,2776947760
42,21,5,ISIP_5,68,5,42,127,2776970976
42,21,5,ISIP_5,69,1,48,71,2777460616
42,21,5,ISIP_5,70,5,42,127,2777471200
42,21,5,ISIP_5,71,1,48,64,2777959712
42,21,5,ISIP_5,72,5,42,127,2777970968
42,21,5,ISIP_5,73,1,48,59,2778462624
42,21,5,ISIP_5,74,5,42,127,2778470960
42,21,5,ISIP_5,75,1,48,66,2778965164
42,21,5,ISIP_5,76,5,42,127,2778970508
42,21,5,ISIP_5,77,1,48,67,2779449296
42,21,5,ISIP_5,78,5,42,127,2779471100
42,21,5,ISIP_5,79,1,48,70,2779942188
42,21,5,ISIP_5,80,1,48,67,2780466784
42,21,5,ISIP_5,81,1,48,58,2780978756
42,21,5,ISIP_5,82,1,48,57,2781487724
42,21,5,ISIP_5,83,1,48,63,2782005064
42,21,5,ISIP_5,84,1,48,56,2782510812
42,21,5,ISIP_5,85,1,48,59,2783029200
42,21,5,ISIP_5,86,1,48,53,2783541160
42,21,5,ISIP_5,87,1,48,64,2784043172
42,21,5,ISIP_5,88,1,48,62,2784562908
42,21,5,ISIP_5,89,1,48,60,2785058036
42,21,5,ISIP_5,90,1,48,56,2785559600
42,21,5,ISIP_5,91,1,48,51,2786074996
42,21,5,ISIP_5,92,1,48,56,2786608868
42,21,5,ISIP_5,93,1,48,57,2787113048
42,21,5,ISIP_5,94,1,48,65,2787623432
42,21,5,ISIP_5,95,1,48,65,2788128136
42,21,5,ISIP_5,96,1,48,53,2788654456
42,21,5,ISIP_5,97,1,48,62,2789134020
42,21,5,ISIP_5,98,1,48,48,2789638328
42,21,5,ISIP_5,99,1,48,67,2790163848
42,21,5,ISIP_5,100,1,48,64,2790687696
42,21,5,ISIP_5,101,1,48,58,2791201300
42,21,5,ISIP_5,102,1,48,68,2791689820
42,21,5,ISIP_5,103,1,48,67,2792198712
42,21,5,ISIP_5,104,1,48,49,2792752212
42,21,5,ISIP_5,105,1,48,49,2793255340
42,21,5,ISIP_5,106,1,48,43,2793748444
42,21,5,ISIP_5,107,1,48,52,2794240484
42,21,5,ISIP_5,108,1,48,56,2794741444
42,21,5,ISIP_5,109,1,48,54,2795233128
42,21,5,ISIP_5,110,1,48,60,2795727140
42,21,5,ISIP_5,111,1,48,65,2796206856
42,21,5,ISIP_5,112,1,48,58,2796709312
42,21,5,ISIP_5,113,1,48,57,2797206760
42,21,5,ISIP_5,114,1,48,54,2797692312
42,21,5,ISIP_5,115,1,48,57,2798179960
42,21,5,ISIP_5,116,1,48,58,2798687804
42,21,5,ISIP_5,117,1,48,61,2799190116
42,21,5,ISIP_5,118,1,48,61,2799695412
42,21,5,ISIP_5,119,1,48,57,2800183736
42,21,5,ISIP_5,120,1,48,62,2800687912
42,21,5,ISIP_5,121,1,48,60,2801183188
42,21,5,ISIP_5,122,1,48,60,2801683104
42,21,5,ISIP_5,123,1,48,60,2802178956
42,21,5,ISIP_5,124,1,48,50,2802688964
42,21,5,ISIP_5,125,1,48,53,2803186192
42,21,5,ISIP_5,126,1,48,63,2803681016
42,21,5,ISIP_5,127,1,48,64,2804175324
42,21,5,ISIP_5,128,1,48,53,2804687884
42,21,5,ISIP_5,129,1,48,60,2805196764
42,21,5,ISIP_5,130,1,48,55,2805682696
42,21,5,ISIP_5,131,1,48,58,2806175504
42,21,5,ISIP_5,132,1,48,49,2806685968
42,21,5,ISIP_5,133,1,48,48,2807188200
42,21,5,ISIP_5,134,1,48,47,2807683404
42,21,5,ISIP_5,135,1,48,54,2808189748
42,21,5,ISIP_5,136,1,48,57,2808712104
42,21,5,ISIP_5,137,1,48,56,2809211568
42,21,5,ISIP_5,138,1,48,59,2809718516
42,21,5,ISIP_5,139,1,48,62,2810209756
42,21,5,ISIP_5,140,1,48,57,2810714756
42,21,5,ISIP_5,141,1,48,62,2811209888
42,21,5,ISIP_5,142,1,48,61,2811697008
42,21,5,ISIP_5,143,1,48,62,2812188248
42,21,5,ISIP_5,144,1,48,54,2812694444
42,21,5,ISIP_5,145,1,48,53,2813168980
42,21,5,ISIP_5,146,1,48,52,2813670388
42,21,5,ISIP_5,147,1,48,56,2814183916
42,21,5,ISIP_5,148,1,48,50,2814682636
42,21,5,ISIP_5,149,1,48,60,2815156896
42,21,5,ISIP_5,150,1,48,51,2815642296
42,21,5,ISIP_5,151,1,48,65,2816125532
42,21,5,ISIP_5,152,1,48,59,2816630912
42,21,5,ISIP_5,153,1,48,61,2817121772
42,21,5,ISIP_5,154,1,48,68,2817599320
42,21,5,ISIP_5,155,1,48,57,2818076124
42,21,5,ISIP_5,156,1,48,65,2818572600
42,21,5,ISIP_5,157,1,48,63,2819080868
42,21,5,ISIP_5,158,1,48,66,2819574648
42,21,5,ISIP_5,159,1,48,61,2820080396
42,21,5,ISIP_5,160,1,48,59,2820579644
42,21,5,ISIP_5,161,1,48,64,2821074468
42,21,5,ISIP_5,162,1,48,63,2821580068
42,21,5,ISIP_5,163,1,48,63,2822087016
42,21,5,ISIP_5,164,1,48,60,2822592016
42,21,5,ISIP_5,165,1,48,52,2823107336
42,21,5,ISIP_5,166,1,48,62,2823604264
42,21,5,ISIP_5,167,1,48,61,2824118316
42,21,5,ISIP_5,168,1,48,43,2824624140
42,21,5,ISIP_5,169,1,48,55,2825110508
42,21,5,ISIP_5,170,1,48,59,2825610580
42,21,5,ISIP_5,171,1,48,64,2826084540
42,21,5,ISIP_5,172,1,48,60,2826568972
42,21,5,ISIP_5,173,1,48,54,2827061104
42,21,5,ISIP_5,174,1,48,67,2827586000
42,21,5,ISIP_5,175,1,48,54,2828085168
42,21,5,ISIP_5,176,1,48,58,2828574240
42,21,5,ISIP_5,177,1,48,48,2829077072
42,21,5,ISIP_5,178,1,48,67,2829547340
42,21,5,ISIP_5,179,1,48,57,2830042988
42,21,5,ISIP_5,180,1,48,68,2830572300
42,21,5,ISIP_5,181,1,48,52,2831058900
42,21,5,ISIP_5,182,1,48,61,2831535856
42,21,5,ISIP_5,183,1,48,54,2832056492
42,21,5,ISIP_5,184,1,48,51,2832588416
42,21,5,ISIP_5,185,1,48,45,2833083696
42,21,5,ISIP_5,186,1,48,54,2833558776
42,21,5,ISIP_5,187,1,48,60,2834022112
42,21,5,ISIP_5,188,1,48,58,2834509388
42,21,5,ISIP_5,189,1,48,55,2835003696
42,21,5,ISIP_5,190,1,48,51,2835515580
42,21,5,ISIP_5,191,1,48,50,2836007640
42,21,5,ISIP_5,192,1,48,58,2836461216
42,21,5,ISIP_5,193,1,48,56,2836956040
42,21,5,ISIP_5,194,1,48,46,2837478416
42,21,5,ISIP_5,195,1,48,50,2837965972
42,21,5,ISIP_5,196,1,48,49,2838450100
42,21,5,ISIP_5,197,1,48,48,2838963260
42,21,5,ISIP_5,198,1,48,48,2839464812
42,21,5,ISIP_5,0,9999,9999,9999,2759968824
42,21,5,ISIP_5,1,9999,9999,9999,2760468540
42,21,5,ISIP_5,2,9999,9999,9999,2760968304
42,21,5,ISIP_5,3,9999,9999,9999,2761469048
42,21,5,ISIP_5,4,9999,9999,9999,2761968740
42,21,5,ISIP_5,5,9999,9999,9999,2762468428
42,21,5,ISIP_5,6,9999,9999,9999,2762968124
42,21,5,ISIP_5,7,9999,9999,9999,2763468868
42,21,5,ISIP_5,8,9999,9999,9999,2763968560
42,21,5,ISIP_5,9,9999,9999,9999,2764468328
42,21,5,ISIP_5,10,9999,9999,9999,2764969072
42,21,5,ISIP_5,11,9999,9999,9999,2765468768
42,21,5,ISIP_5,12,9999,9999,9999,2765968464
42,21,5,ISIP_5,13,9999,9999,9999,2766468160
42,21,5,ISIP_5,14,9999,9999,9999,2766968900
42,21,5,ISIP_5,15,9999,9999,9999,2767468596
42,21,5,ISIP_5,16,9999,9999,9999,2767968368
42,21,5,ISIP_5,17,9999,9999,9999,2768469108
42,21,5,ISIP_5,18,9999,9999,9999,2768968808
42,21,5,ISIP_5,19,9999,9999,9999,2769468504
42,21,5,ISIP_5,20,9999,9999,9999,2769968200
42,21,5,ISIP_5,21,9999,9999,9999,2770468940
42,21,5,ISIP_5,22,9999,9999,9999,2770968632
42,21,5,ISIP_5,23,9999,9999,9999,2771468380
42,21,5,ISIP_5,24,9999,9999,9999,2771968072
42,21,5,ISIP_5,25,9999,9999,9999,2772468812
42,21,5,ISIP_5,26,9999,9999,9999,2772968524
42,21,5,ISIP_5,27,9999,9999,9999,2773468216
42,21,5,ISIP_5,28,9999,9999,9999,2773969012
42,21,5,ISIP_5,29,9999,9999,9999,2774468660
42,21,5,ISIP_5,30,9999,9999,9999,2774968416
42,21,5,ISIP_5,31,9999,9999,9999,2775468112
42,21,5,ISIP_5,32,9999,9999,9999,2775968856
42,21,5,ISIP_5,33,9999,9999,9999,2776468548
42,21,5,ISIP_5,34,9999,9999,9999,2776968244
42,21,5,ISIP_5,35,9999,9999,9999,2777468988
42,21,5,ISIP_5,36,9999,9999,9999,2777968756
42,21,5,ISIP_5,37,9999,9999,9999,2778468448
42,21,5,ISIP_5,38,9999,9999,9999,2778968144
42,21,5,ISIP_5,39,9999,9999,9999,2779468884
42,21,5,ISIP_5,40,9999,9999,9999,2779968580
42,21,5,ISIP_5,41,9999,9999,9999,2780468272
42,21,5,ISIP_5,42,9999,9999,9999,2780969016
42,21,5,ISIP_5,43,9999,9999,9999,2781468780
42,21,5,ISIP_5,44,9999,9999,9999,2781968472
42,21,5,ISIP_5,45,9999,9999,9999,2782468212
42,21,5,ISIP_5,46,9999,9999,9999,2782968952
42,21,5,ISIP_5,47,9999,9999,9999,2783468640
42,21,5,ISIP_5,48,9999,9999,9999,2783968332
42,21,5,ISIP_5,49,9999,9999,9999,2784469068
42,21,5,ISIP_5,50,9999,9999,9999,2784968760
42,21,5,ISIP_5,51,9999,9999,9999,2785468524
42,21,5,ISIP_5,52,9999,9999,9999,2785968216
42,21,5,ISIP_5,53,9999,9999,9999,2786468956
42,21,5,ISIP_5,54,9999,9999,9999,2786968644
42,21,5,ISIP_5,55,9999,9999,9999,2787468336
42,21,5,ISIP_5,56,9999,9999,9999,2787968100
42,21,5,ISIP_5,57,9999,9999,9999,2788468840
42,21,5,ISIP_5,58,9999,9999,9999,2788968528
42,21,5,ISIP_5,59,9999,9999,9999,2789468220
42,21,5,ISIP_5,60,9999,9999,9999,2789968956
42,21,5,ISIP_5,61,9999,9999,9999,2790468724
42,21,5,ISIP_5,62,9999,9999,9999,2790968416
42,21,5,ISIP_5,63,9999,9999,9999,2791468104
42,21,5,ISIP_5,64,9999,9999,9999,2791968844
42,21,5,ISIP_5,65,9999,9999,9999,2792468532
42,21,5,ISIP_5,66,9999,9999,9999,2792968276
42,21,5,ISIP_5,67,9999,9999,9999,2793469012
42,21,5,ISIP_5,68,9999,9999,9999,2793968700
42,21,5,ISIP_5,69,9999,9999,9999,2794468468
42,21,5,ISIP_5,70,9999,9999,9999,2794968156
42,21,5,ISIP_5,71,9999,9999,9999,2795468892
42,21,5,ISIP_5,72,9999,9999,9999,2795968584
42,21,5,ISIP_5,73,9999,9999,9999,2796468272
42,21,5,ISIP_5,74,9999,9999,9999,2796969012
42,21,5,ISIP_5,75,9999,9999,9999,2797468776
42,21,5,ISIP_5,76,9999,9999,9999,2797968468
42,21,5,ISIP_5,77,9999,9999,9999,2798468160
42,21,5,ISIP_5,78,9999,9999,9999,2798968896
42,21,5,ISIP_5,79,9999,9999,9999,2799468660
42,21,5,ISIP_5,80,9999,9999,9999,2799968352
42,21,5,ISIP_5,81,9999,9999,9999,2800469088
42,21,5,ISIP_5,82,9999,9999,9999,2800968780
42,21,5,ISIP_5,83,9999,9999,9999,2801468472
42,21,5,ISIP_5,84,9999,9999,9999,2801968236
42,21,5,ISIP_5,85,9999,9999,9999,2802468972
42,21,5,ISIP_5,86,9999,9999,9999,2802968664
42,21,5,ISIP_5,87,9999,9999,9999,2803468352
42,21,5,ISIP_5,88,9999,9999,9999,2803968092
42,21,5,ISIP_5,89,9999,9999,9999,2804468828
42,21,5,ISIP_5,90,9999,9999,9999,2804968520
42,21,5,ISIP_5,91,9999,9999,9999,2805468212
42,21,5,ISIP_5,92,9999,9999,9999,2805968948
42,21,5,ISIP_5,93,9999,9999,9999,2806468712
42,21,5,ISIP_5,94,9999,9999,9999,2806968404
42,21,5,ISIP_5,95,9999,9999,9999,2807468096
42,21,5,ISIP_5,96,9999,9999,9999,2807968832
42,21,5,ISIP_5,97,9999,9999,9999,2808468596
42,21,5,ISIP_5,98,9999,9999,9999,2808968288
42,21,5,ISIP_5,99,9999,9999,9999,2809469024
42,21,5,ISIP_5,100,9999,9999,9999,2809968716
42,21,5,ISIP_5,101,9999,9999,9999,2810468408
42,21,5,ISIP_5,102,9999,9999,9999,2810968172
42,21,5,ISIP_5,103,9999,9999,9999,2811468908
42,21,5,ISIP_5,104,9999,9999,9999,2811968600
42,21,5,ISIP_5,105,9999,9999,9999,2812468292
42,21,5,ISIP_5,106,9999,9999,9999,2812969028
42,21,5,ISIP_5,107,9999,9999,9999,2813468720
42,21,5,ISIP_5,108,9999,9999,9999,2813968484
42,21,5,ISIP_5,109,9999,9999,9999,2814468148
42,21,5,ISIP_5,110,9999,9999,9999,2814968888
42,21,5,ISIP_5,111,9999,9999,9999,2815468652
42,21,5,ISIP_5,112,9999,9999,9999,2815968344
42,21,5,ISIP_5,113,9999,9999,9999,2816469080
42,21,5,ISIP_5,114,9999,9999,9999,2816968772
42,21,5,ISIP_5,115,9999,9999,9999,2817468536
42,21,5,ISIP_5,116,9999,9999,9999,2817968228
42,21,5,ISIP_5,117,9999,9999,9999,2818468964
42,21,5,ISIP_5,118,9999,9999,9999,2818968656
42,21,5,ISIP_5,119,9999,9999,9999,2819468348
42,21,5,ISIP_5,120,9999,9999,9999,2819968112
42,21,5,ISIP_5,121,9999,9999,9999,2820468848
42,21,5,ISIP_5,122,9999,9999,9999,2820968540
42,21,5,ISIP_5,123,9999,9999,9999,2821468232
42,21,5,ISIP_5,124,9999,9999,9999,2821968968
42,21,5,ISIP_5,125,9999,9999,9999,2822468656
42,21,5,ISIP_5,126,9999,9999,9999,2822968424
42,21,5,ISIP_5,127,9999,9999,9999,2823468112
42,21,5,ISIP_5,128,9999,9999,9999,2823968852
42,21,5,ISIP_5,129,9999,9999,9999,2824468540
42,21,5,ISIP_5,130,9999,9999,9999,2824968280
42,21,5,ISIP_5,131,9999,9999,9999,2825469020
42,21,5,ISIP_5,132,9999,9999,9999,2825968708
42,21,5,ISIP_5,133,9999,9999,9999,2826468400
42,21,5,ISIP_5,134,9999,9999,9999,2826968164
42,21,5,ISIP_5,135,9999,9999,9999,2827468900
42,21,5,ISIP_5,136,9999,9999,9999,2827968592
42,21,5,ISIP_5,137,9999,9999,9999,2828468284
42,21,5,ISIP_5,138,9999,9999,9999,2828969020
42,21,5,ISIP_5,139,9999,9999,9999,2829468788
42,21,5,ISIP_5,140,9999,9999,9999,2829968476
42,21,5,ISIP_5,141,9999,9999,9999,2830468168
42,21,5,ISIP_5,142,9999,9999,9999,2830968904
42,21,5,ISIP_5,143,9999,9999,9999,2831468596
42,21,5,ISIP_5,144,9999,9999,9999,2831968360
42,21,5,ISIP_5,145,9999,9999,9999,2832469096
42,21,5,ISIP_5,146,9999,9999,9999,2832968788
42,21,5,ISIP_5,147,9999,9999,9999,2833468480
42,21,5,ISIP_5,148,9999,9999,9999,2833968244
42,21,5,ISIP_5,149,9999,9999,9999,2834468980
42,21,5,ISIP_5,150,9999,9999,9999,2834968672
42,21,5,ISIP_5,151,9999,9999,9999,2835468364
42,21,5,ISIP_5,152,9999,9999,9999,2835968104
42,21,5,ISIP_5,153,9999,9999,9999,2836468836
42,21,5,ISIP_5,154,9999,9999,9999,2836968524
42,21,5,ISIP_5,155,9999,9999,9999,2837468224
42,21,5,ISIP_5,156,9999,9999,9999,2837968952
42,21,5,ISIP_5,157,9999,9999,9999,2838468716
42,21,5,ISIP_5,158,9999,9999,9999,2838968408
42,21,5,ISIP_5,159,9999,9999,9999,2839468100
42,22,11,Pattern_Practice,0,1,48,35,2950636844
42,22,11,Pattern_Practice,1,1,38,43,2950637044
42,22,11,Pattern_Practice,2,1,48,33,2950637904
42,22,11,Pattern_Practice,3,1,38,55,2950638560
42,22,11,Pattern_Practice,4,1,48,41,2950638768
42,22,11,Pattern_Practice,5,5,42,127,2951137624
42,22,11,Pattern_Practice,6,5,42,127,2951638240
42,22,11,Pattern_Practice,7,5,42,127,2952138180
42,22,11,Pattern_Practice,8,5,42,127,2952637972
42,22,11,Pattern_Practice,9,1,38,50,2952882560
42,22,11,Pattern_Practice,10,1,48,16,2952892936
42,22,11,Pattern_Practice,11,1,38,58,2953018424
42,22,11,Pattern_Practice,12,1,38,51,2953123340
42,22,11,Pattern_Practice,13,5,42,127,2953137512
42,22,11,Pattern_Practice,14,1,38,53,2953610020
42,22,11,Pattern_Practice,15,5,42,127,2953638256
42,22,11,Pattern_Practice,16,1,38,59,2954109120
42,22,11,Pattern_Practice,17,5,42,127,2954138024
42,22,11,Pattern_Practice,18,1,38,59,2954608140
42,22,11,Pattern_Practice,19,5,42,127,2954637572
42,22,11,Pattern_Practice,20,1,38,60,2954878480
42,22,11,Pattern_Practice,21,1,38,63,2954968812
42,22,11,Pattern_Practice,22,1,38,66,2955124396
42,22,11,Pattern_Practice,23,5,42,127,2955138268
42,22,11,Pattern_Practice,24,1,38,54,2955623116
42,22,11,Pattern_Practice,25,5,42,127,2955638184
42,22,11,Pattern_Practice,26,5,42,127,2956137812
42,22,11,Pattern_Practice,27,1,38,58,2956139300
42,22,11,Pattern_Practice,28,1,38,61,2956615104
42,22,11,Pattern_Practice,29,5,42,127,2956637576
42,22,11,Pattern_Practice,30,1,38,70,2956869360
42,22,11,Pattern_Practice,31,1,38,66,2956993804
42,22,11,Pattern_Practice,32,1,38,67,2957088644
42,22,11,Pattern_Practice,33,5,42,127,2957138348
42,22,11,Pattern_Practice,34,1,38,55,2957638272
42,22,11,Pattern_Practice,35,5,42,127,2957640960
42,22,11,Pattern_Practice,36,5,42,127,2958137668
42,22,11,Pattern_Practice,37,1,38,61,2958143032
42,22,11,Pattern_Practice,38,1,38,57,2958612260
42,22,11,Pattern_Practice,39,5,42,127,2958637652
42,22,11,Pattern_Practice,40,1,38,60,2958873104
42,22,11,Pattern_Practice,41,1,38,73,2958949076
42,22,11,Pattern_Practice,42,1,38,64,2959118872
42,22,11,Pattern_Practice,43,5,42,127,2959138056
42,22,11,Pattern_Practice,44,1,38,54,2959627092
42,22,11,Pattern_Practice,45,5,42,127,2959637900
42,22,11,Pattern_Practice,46,1,38,59,2960118388
42,22,11,Pattern_Practice,47,5,42,127,2960137668
42,22,11,Pattern_Practice,48,1,38,53,2960607084
42,22,11,Pattern_Practice,49,5,42,127,2960638608
42,22,11,Pattern_Practice,50,1,38,66,2960889320
42,22,11,Pattern_Practice,51,1,38,77,2961007056
42,22,11,Pattern_Practice,52,5,42,127,2961137968
42,22,11,Pattern_Practice,53,1,48,57,2961147520
42,22,11,Pattern_Practice,54,1,38,69,2961599628
42,22,11,Pattern_Practice,55,1,38,67,2961621520
42,22,11,Pattern_Practice,56,5,42,127,2961637712
42,22,11,Pattern_Practice,57,1,48,47,2961867552
42,22,11,Pattern_Practice,58,5,42,127,2962137540
42,22,11,Pattern_Practice,59,1,38,35,2962371136
42,22,11,Pattern_Practice,60,1,48,75,2962592840
42,22,11,Pattern_Practice,61,1,38,18,2962602692
42,22,11,Pattern_Practice,62,1,38,63,2962614416
42,22,11,Pattern_Practice,63,5,42,127,2962638380
42,22,11,Pattern_Practice,64,1,38,67,2963077196
42,22,11,Pattern_Practice,65,5,42,127,2963137888
42,22,11,Pattern_Practice,66,1,48,62,2963567088
42,22,11,Pattern_Practice,67,1,38,17,2963577020
42,22,11,Pattern_Practice,68,1,38,70,2963619108
42,22,11,Pattern_Practice,69,5,42,127,2963637616
42,22,11,Pattern_Practice,70,1,38,66,2963823676
42,22,11,Pattern_Practice,71,5,42,127,2964138540
42,22,11,Pattern_Practice,72,1,48,48,2964299728
42,22,11,Pattern_Practice,73,1,38,69,2964562720
42,22,11,Pattern_Practice,74,1,48,18,2964572800
42,22,11,Pattern_Practice,75,1,38,70,2964589380
42,22,11,Pattern_Practice,76,5,42,127,2964637964
42,22,11,Pattern_Practice,77,1,38,38,2965087332
42,22,11,Pattern_Practice,78,5,42,127,2965137704
42,22,11,Pattern_Practice,79,1,38,67,2965574384
42,22,11,Pattern_Practice,80,1,48,21,2965584684
42,22,11,Pattern_Practice,81,5,42,127,2965637604
42,22,11,Pattern_Practice,82,1,38,51,2965856272
42,22,11,Pattern_Practice,83,5,42,127,2966138376
42,22,11,Pattern_Practice,84,1,38,41,2966314600
42,22,11,Pattern_Practice,85,1,38,57,2966561140
42,22,11,Pattern_Practice,86,5,42,127,2966637916
42,22,11,Pattern_Practice,87,1,38,45,2966848156
42,22,11,Pattern_Practice,88,1,38,48,2967095144
42,22,11,Pattern_Practice,89,5,42,127,2967137740
42,22,11,Pattern_Practice,90,1,38,44,2967330624
42,22,11,Pattern_Practice,91,1,38,59,2967577016
42,22,11,Pattern_Practice,92,5,42,127,2967638308
42,22,11,Pattern_Practice,93,1,38,52,2967828732
42,22,11,Pattern_Practice,94,1,38,50,2968079608
42,22,11,Pattern_Practice,95,5,42,127,2968138280
42,22,11,Pattern_Practice,96,1,38,49,2968318428
42,22,11,Pattern_Practice,97,1,38,73,2968560856
42,22,11,Pattern_Practice,98,1,38,57,2968580676
42,22,11,Pattern_Practice,99,5,42,127,2968637780
42,22,11,Pattern_Practice,100,1,48,65,2969055588
42,22,11,Pattern_Practice,101,5,42,127,2969137400
42,22,11,Pattern_Practice,102,1,38,60,2969559620
42,22,11,Pattern_Practice,103,5,42,127,2969638140
42,22,11,Pattern_Practice,104,1,38,49,2969804004
42,22,11,Pattern_Practice,105,1,38,46,2970053528
42,22,11,Pattern_Practice,106,5,42,127,2970137888
42,22,11,Pattern_Practice,107,1,38,42,2970289088
42,22,11,Pattern_Practice,108,1,38,63,2970528444
42,22,11,Pattern_Practice,109,1,38,85,2970537476
42,22,11,Pattern_Practice,110,5,42,127,2970637672
42,22,11,Pattern_Practice,111,1,38,29,2970797416
42,22,11,Pattern_Practice,112,1,38,27,2971061756
42,22,11,Pattern_Practice,113,5,42,127,2971138480
42,22,11,Pattern_Practice,114,1,38,40,2971297460
42,22,11,Pattern_Practice,115,1,38,66,2971527092
42,22,11,Pattern_Practice,116,1,38,76,2971545396
42,22,11,Pattern_Practice,117,5,42,127,2971638328
42,22,11,Pattern_Practice,118,1,38,47,2972078976
42,22,11,Pattern_Practice,119,5,42,127,2972137804
42,22,11,Pattern_Practice,120,1,38,32,2972330988
42,22,11,Pattern_Practice,121,1,38,59,2972565408
42,22,11,Pattern_Practice,122,1,48,16,2972574820
42,22,11,Pattern_Practice,123,5,42,127,2972637532
42,22,11,Pattern_Practice,124,1,38,80,2972798232
42,22,11,Pattern_Practice,125,1,38,74,2972892076
42,22,11,Pattern_Practice,126,1,38,68,2972932020
42,22,11,Pattern_Practice,127,5,42,127,2973138260
42,22,11,Pattern_Practice,128,1,48,72,2973481160
42,22,11,Pattern_Practice,129,1,38,21,2973491084
42,22,11,Pattern_Practice,130,1,48,66,2973504452
42,22,11,Pattern_Practice,131,5,42,127,2973638108
42,22,11,Pattern_Practice,132,5,42,127,2974137676
42,22,11,Pattern_Practice,133,1,38,62,2974457512
42,22,11,Pattern_Practice,134,1,38,67,2974479804
42,22,11,Pattern_Practice,135,5,42,127,2974637348
42,22,11,Pattern_Practice,136,5,42,127,2975138336
42,22,11,Pattern_Practice,137,1,48,40,2975182972
42,22,11,Pattern_Practice,138,1,38,70,2975427184
42,22,11,Pattern_Practice,139,1,48,53,2975435688
42,22,11,Pattern_Practice,140,5,42,127,2975637960
42,22,11,Pattern_Practice,141,1,48,42,2975693964
42,22,11,Pattern_Practice,142,1,48,31,2975948128
42,22,11,Pattern_Practice,143,5,42,127,2976137632
42,22,11,Pattern_Practice,144,1,48,41,2976155412
42,22,11,Pattern_Practice,145,1,48,60,2976396036
42,22,11,Pattern_Practice,146,1,38,76,2976405892
42,22,11,Pattern_Practice,147,1,48,65,2976638752
42,22,11,Pattern_Practice,148,5,42,127,2976640096
42,22,11,Pattern_Practice,149,1,38,18,2976648820
42,22,11,Pattern_Practice,150,1,48,73,2976730332
42,22,11,Pattern_Practice,151,1,38,18,2976740856
42,22,11,Pattern_Practice,152,1,48,74,2976815432
42,22,11,Pattern_Practice,153,1,38,20,2976825360
42,22,11,Pattern_Practice,154,1,48,57,2976903868
42,22,11,Pattern_Practice,155,5,42,127,2977138152
42,22,11,Pattern_Practice,156,1,38,78,2977331512
42,22,11,Pattern_Practice,157,1,48,20,2977341516
42,22,11,Pattern_Practice,158,1,38,75,2977350168
42,22,11,Pattern_Practice,159,5,42,127,2977637708
42,22,11,Pattern_Practice,160,1,48,49,2977792368
42,22,11,Pattern_Practice,161,1,48,35,2978050148
42,22,11,Pattern_Practice,162,5,42,127,2978137396
42,22,11,Pattern_Practice,163,1,48,72,2978284560
42,22,11,Pattern_Practice,164,1,38,89,2978289928
42,22,11,Pattern_Practice,165,5,42,127,2978638148
42,22,11,Pattern_Practice,166,1,48,45,2978763484
42,22,11,Pattern_Practice,167,1,48,47,2979008152
42,22,11,Pattern_Practice,168,5,42,127,2979138044
42,22,11,Pattern_Practice,169,1,48,77,2979238176
42,22,11,Pattern_Practice,170,1,38,92,2979241968
42,22,11,Pattern_Practice,171,5,42,127,2979637540
42,22,11,Pattern_Practice,172,1,48,43,2979770884
42,22,11,Pattern_Practice,173,1,48,42,2979996928
42,22,11,Pattern_Practice,174,5,42,127,2980138336
42,22,11,Pattern_Practice,175,1,48,70,2980227996
42,22,11,Pattern_Practice,176,1,38,71,2980234488
42,22,11,Pattern_Practice,177,1,48,77,2980467456
42,22,11,Pattern_Practice,178,1,38,18,2980477904
42,22,11,Pattern_Practice,179,1,48,71,2980567048
42,22,11,Pattern_Practice,180,5,42,127,2980637924
42,22,11,Pattern_Practice,181,1,48,71,2980654036
42,22,11,Pattern_Practice,182,1,38,19,2980663068
42,22,11,Pattern_Practice,183,1,38,81,2981125324
42,22,11,Pattern_Practice,184,5,42,127,2981137996
42,22,11,Pattern_Practice,185,1,48,54,2981590436
42,22,11,Pattern_Practice,186,5,42,127,2981637616
42,22,11,Pattern_Practice,187,1,48,51,2981837440
42,22,11,Pattern_Practice,188,1,38,87,2982081956
42,22,11,Pattern_Practice,189,1,48,20,2982091812
42,22,11,Pattern_Practice,190,1,38,71,2982102636
42,22,11,Pattern_Practice,191,5,42,127,2982138276
42,22,11,Pattern_Practice,192,1,48,60,2982555780
42,22,11,Pattern_Practice,193,5,42,127,2982638016
42,22,11,Pattern_Practice,194,1,48,51,2982804952
42,22,11,Pattern_Practice,195,1,38,91,2983038548
42,22,11,Pattern_Practice,196,1,48,21,2983049072
42,22,11,Pattern_Practice,197,5,42,127,2983137728
42,22,11,Pattern_Practice,198,1,48,58,2983510236
42,22,11,Pattern_Practice,199,5,42,127,2983638304
42,22,11,Pattern_Practice,200,1,48,51,2983752900
42,22,11,Pattern_Practice,201,1,38,97,2983981856
42,22,11,Pattern_Practice,202,1,48,21,2983991712
42,22,11,Pattern_Practice,203,1,38,77,2983998648
42,22,11,Pattern_Practice,204,5,42,127,2984137984
42,22,11,Pattern_Practice,205,1,48,66,2984239188
42,22,11,Pattern_Practice,206,1,48,22,2984339092
42,22,11,Pattern_Practice,207,1,48,79,2984363532
42,22,11,Pattern_Practice,208,1,48,55,2984472888
42,22,11,Pattern_Practice,209,1,38,18,2984482220
42,22,11,Pattern_Practice,210,5,42,127,2984637864
42,22,11,Pattern_Practice,211,1,38,88,2984931972
42,22,11,Pattern_Practice,212,1,38,81,2984945560
42,22,11,Pattern_Practice,213,5,42,127,2985137464
42,22,11,Pattern_Practice,214,1,48,69,2985402772
42,22,11,Pattern_Practice,215,5,42,127,2985638204
42,22,11,Pattern_Practice,216,1,48,53,2985651572
42,22,11,Pattern_Practice,217,1,38,74,2985902296
42,22,11,Pattern_Practice,218,1,48,20,2985911552
42,22,11,Pattern_Practice,219,1,38,71,2985920128
42,22,11,Pattern_Practice,220,5,42,127,2986137956
42,22,11,Pattern_Practice,221,1,48,71,2986372000
42,22,11,Pattern_Practice,222,1,48,33,2986622424
42,22,11,Pattern_Practice,223,5,42,127,2986637644
42,22,11,Pattern_Practice,224,1,38,80,2986858884
42,22,11,Pattern_Practice,225,1,48,24,2986869332
42,22,11,Pattern_Practice,226,5,42,127,2987138548
42,22,11,Pattern_Practice,227,1,48,66,2987333544
42,22,11,Pattern_Practice,228,1,38,18,2987343476
42,22,11,Pattern_Practice,229,1,48,47,2987565896
42,22,11,Pattern_Practice,230,5,42,127,2987638112
42,22,11,Pattern_Practice,231,1,38,82,2987806024
42,22,11,Pattern_Practice,232,1,48,20,2987815872
42,22,11,Pattern_Practice,233,1,48,68,2988055500
42,22,11,Pattern_Practice,234,5,42,127,2988137740
42,22,11,Pattern_Practice,235,1,48,24,2988155280
42,22,11,Pattern_Practice,236,1,48,101,2988186220
42,22,11,Pattern_Practice,237,1,48,49,2988348464
42,22,11,Pattern_Practice,238,5,42,127,2988637748
42,22,11,Pattern_Practice,239,1,38,99,2988764288
42,22,11,Pattern_Practice,240,1,48,28,2988774736
42,22,11,Pattern_Practice,241,5,42,127,2989138144
42,22,11,Pattern_Practice,242,1,48,62,2989233712
42,22,11,Pattern_Practice,243,1,48,39,2989467684
42,22,11,Pattern_Practice,244,5,42,127,2989638040
42,22,11,Pattern_Practice,245,1,38,60,2989715956
42,22,11,Pattern_Practice,246,5,42,127,2990137660
42,22,11,Pattern_Practice,247,1,48,59,2990190968
42,22,11,Pattern_Practice,248,1,48,48,2990412824
42,22,11,Pattern_Practice,249,5,42,127,2990637480
42,22,11,Pattern_Practice,250,1,38,74,2990650700
42,22,11,Pattern_Practice,251,1,48,18,2990660324
42,22,11,Pattern_Practice,252,1,38,83,2990666816
42,22,11,Pattern_Practice,253,1,48,62,2991125172
42,22,11,Pattern_Practice,0,9999,9999,9999,2951135336
42,22,11,Pattern_Practice,1,9999,9999,9999,2951636024
42,22,11,Pattern_Practice,2,9999,9999,9999,2952135744
42,22,11,Pattern_Practice,3,9999,9999,9999,2952635460
42,22,11,Pattern_Practice,4,9999,9999,9999,2953135152
42,22,11,Pattern_Practice,5,9999,9999,9999,2953635892
42,22,11,Pattern_Practice,6,9999,9999,9999,2954135664
42,22,11,Pattern_Practice,7,9999,9999,9999,2954635360
42,22,11,Pattern_Practice,8,9999,9999,9999,2955136056
42,22,11,Pattern_Practice,9,9999,9999,9999,2955635824
42,22,11,Pattern_Practice,10,9999,9999,9999,2956135524
42,22,11,Pattern_Practice,11,9999,9999,9999,2956635216
42,22,11,Pattern_Practice,12,9999,9999,9999,2957135984
42,22,11,Pattern_Practice,13,9999,9999,9999,2957635684
42,22,11,Pattern_Practice,14,9999,9999,9999,2958135380
42,22,11,Pattern_Practice,15,9999,9999,9999,2958635068
42,22,11,Pattern_Practice,16,9999,9999,9999,2959135840
42,22,11,Pattern_Practice,17,9999,9999,9999,2959635536
42,22,11,Pattern_Practice,18,9999,9999,9999,2960135232
42,22,11,Pattern_Practice,19,9999,9999,9999,2960636024
42,22,11,Pattern_Practice,20,9999,9999,9999,2961135680
42,22,11,Pattern_Practice,21,9999,9999,9999,2961635424
42,22,11,Pattern_Practice,22,9999,9999,9999,2962135104
42,22,11,Pattern_Practice,23,9999,9999,9999,2962635872
42,22,11,Pattern_Practice,24,9999,9999,9999,2963135600
42,22,11,Pattern_Practice,25,9999,9999,9999,2963635252
42,22,11,Pattern_Practice,26,9999,9999,9999,2964136028
42,22,11,Pattern_Practice,27,9999,9999,9999,2964635748
42,22,11,Pattern_Practice,28,9999,9999,9999,2965135416
42,22,11,Pattern_Practice,29,9999,9999,9999,2965635168
42,22,11,Pattern_Practice,30,9999,9999,9999,2966135864
42,22,11,Pattern_Practice,31,9999,9999,9999,2966635628
42,22,11,Pattern_Practice,32,9999,9999,9999,2967135300
42,22,11,Pattern_Practice,33,9999,9999,9999,2967636020
42,22,11,Pattern_Practice,34,9999,9999,9999,2968135768
42,22,11,Pattern_Practice,35,9999,9999,9999,2968635492
42,22,11,Pattern_Practice,36,9999,9999,9999,2969135188
42,22,11,Pattern_Practice,37,9999,9999,9999,2969635928
42,22,11,Pattern_Practice,38,9999,9999,9999,2970135600
42,22,11,Pattern_Practice,39,9999,9999,9999,2970635384
42,22,11,Pattern_Practice,40,9999,9999,9999,2971136096
42,22,11,Pattern_Practice,41,9999,9999,9999,2971635820
42,22,11,Pattern_Practice,42,9999,9999,9999,2972135516
42,22,11,Pattern_Practice,43,9999,9999,9999,2972635244
42,22,11,Pattern_Practice,44,9999,9999,9999,2973135972
42,22,11,Pattern_Practice,45,9999,9999,9999,2973635672
42,22,11,Pattern_Practice,46,9999,9999,9999,2974135388
42,22,11,Pattern_Practice,47,9999,9999,9999,2974635060
42,22,11,Pattern_Practice,48,9999,9999,9999,2975135824
42,22,11,Pattern_Practice,49,9999,9999,9999,2975635524
42,22,11,Pattern_Practice,50,9999,9999,9999,2976135272
42,22,11,Pattern_Practice,51,9999,9999,9999,2976636020
42,22,11,Pattern_Practice,52,9999,9999,9999,2977135716
42,22,11,Pattern_Practice,53,9999,9999,9999,2977635420
42,22,11,Pattern_Practice,54,9999,9999,9999,2978135108
42,22,11,Pattern_Practice,55,9999,9999,9999,2978635860
42,22,11,Pattern_Practice,56,9999,9999,9999,2979135608
42,22,11,Pattern_Practice,57,9999,9999,9999,2979635252
42,22,11,Pattern_Practice,58,9999,9999,9999,2980136052
42,22,11,Pattern_Practice,59,9999,9999,9999,2980635712
42,22,11,Pattern_Practice,60,9999,9999,9999,2981135412
42,22,11,Pattern_Practice,61,9999,9999,9999,2981635180
42,22,11,Pattern_Practice,62,9999,9999,9999,2982135912
42,22,11,Pattern_Practice,63,9999,9999,9999,2982635580
42,22,11,Pattern_Practice,64,9999,9999,9999,2983135292
42,22,11,Pattern_Practice,65,9999,9999,9999,2983636016
42,22,11,Pattern_Practice,66,9999,9999,9999,2984135772
42,22,11,Pattern_Practice,67,9999,9999,9999,2984635500
42,22,11,Pattern_Practice,68,9999,9999,9999,2985135176
42,22,11,Pattern_Practice,69,9999,9999,9999,2985635916
42,22,11,Pattern_Practice,70,9999,9999,9999,2986135668
42,22,11,Pattern_Practice,71,9999,9999,9999,2986635356
42,22,11,Pattern_Practice,72,9999,9999,9999,2987136112
42,22,11,Pattern_Practice,73,9999,9999,9999,2987635828
42,22,11,Pattern_Practice,74,9999,9999,9999,2988135528
42,22,11,Pattern_Practice,75,9999,9999,9999,2988635236
42,22,11,Pattern_Practice,76,9999,9999,9999,2989135932
42,22,11,Pattern_Practice,77,9999,9999,9999,2989635680
42,22,11,Pattern_Practice,78,9999,9999,9999,2990135372
42,22,11,Pattern_Practice,79,9999,9999,9999,2990635120
42,23,13,Improv_Metronome,0,5,42,127,3017815272
42,23,13,Improv_Metronome,1,5,42,127,3018315060
42,23,13,Improv_Metronome,2,5,42,127,3018814776
42,23,13,Improv_Metronome,3,5,42,127,3019314940
42,23,13,Improv_Metronome,4,5,42,127,3019815404
42,23,13,Improv_Metronome,5,1,38,57,3019822116
42,23,13,Improv_Metronome,6,1,48,58,3020308252
42,23,13,Improv_Metronome,7,5,42,127,3020314944
42,23,13,Improv_Metronome,8,1,38,73,3020796328
42,23,13,Improv_Metronome,9,5,42,127,3020814936
42,23,13,Improv_Metronome,10,1,48,59,3021298716
42,23,13,Improv_Metronome,11,5,42,127,3021314632
42,23,13,Improv_Metronome,12,1,38,85,3021792500
42,23,13,Improv_Metronome,13,5,42,127,3021815124
42,23,13,Improv_Metronome,14,1,38,65,3021819424
42,23,13,Improv_Metronome,15,1,48,60,3022307660
42,23,13,Improv_Metronome,16,5,42,127,3022314796
42,23,13,Improv_Metronome,17,1,38,16,3022318512
42,23,13,Improv_Metronome,18,1,38,73,3022810608
42,23,13,Improv_Metronome,19,5,42,127,3022814680
42,23,13,Improv_Metronome,20,1,38,64,3022836628
42,23,13,Improv_Metronome,21,1,48,67,3023290608
42,23,13,Improv_Metronome,22,1,38,17,3023300984
42,23,13,Improv_Metronome,23,5,42,127,3023315228
42,23,13,Improv_Metronome,24,1,38,65,3023552748
42,23,13,Improv_Metronome,25,1,38,72,3023577708
42,23,13,Improv_Metronome,26,1,38,94,3023786696
42,23,13,Improv_Metronome,27,1,48,20,3023796700
42,23,13,Improv_Metronome,28,1,38,83,3023806400
42,23,13,Improv_Metronome,29,5,42,127,3023814888
42,23,13,Improv_Metronome,30,1,48,75,3024276824
42,23,13,Improv_Metronome,31,1,38,20,3024286976
42,23,13,Improv_Metronome,32,5,42,127,3024314760
42,23,13,Improv_Metronome,33,1,38,75,3024767584
42,23,13,Improv_Metronome,34,1,48,18,3024777960
42,23,13,Improv_Metronome,35,1,38,63,3024793420
42,23,13,Improv_Metronome,36,5,42,127,3024814548
42,23,13,Improv_Metronome,37,1,48,74,3025285536
42,23,13,Improv_Metronome,38,1,38,19,3025295984
42,23,13,Improv_Metronome,39,5,42,127,3025315096
42,23,13,Improv_Metronome,40,1,38,73,3025789224
42,23,13,Improv_Metronome,41,1,38,68,3025809096
42,23,13,Improv_Metronome,42,5,42,127,3025814816
42,23,13,Improv_Metronome,43,5,42,127,3026314516
42,23,13,Improv_Metronome,44,1,48,77,3026318008
42,23,13,Improv_Metronome,45,1,38,18,3026328532
42,23,13,Improv_Metronome,46,5,42,127,3026815436
42,23,13,Improv_Metronome,47,1,38,65,3026818184
42,23,13,Improv_Metronome,48,1,38,81,3026824964
42,23,13,Improv_Metronome,49,1,48,66,3027297788
42,23,13,Improv_Metronome,50,1,38,17,3027307720
42,23,13,Improv_Metronome,51,5,42,127,3027315008
42,23,13,Improv_Metronome,52,1,38,67,3027554768
42,23,13,Improv_Metronome,53,1,38,66,3027573896
42,23,13,Improv_Metronome,54,1,38,100,3027776752
42,23,13,Improv_Metronome,55,1,48,21,3027786604
42,23,13,Improv_Metronome,56,1,38,92,3027806928
42,23,13,Improv_Metronome,57,5,42,127,3027814816
42,23,13,Improv_Metronome,58,1,48,61,3028070512
42,23,13,Improv_Metronome,59,1,38,16,3028080664
42,23,13,Improv_Metronome,60,1,48,49,3028260900
42,23,13,Improv_Metronome,61,5,42,127,3028314636
42,23,13,Improv_Metronome,62,1,38,74,3028734936
42,23,13,Improv_Metronome,63,1,38,69,3028759900
42,23,13,Improv_Metronome,64,5,42,127,3028815508
42,23,13,Improv_Metronome,65,1,48,63,3029286892
42,23,13,Improv_Metronome,66,1,38,16,3029296900
42,23,13,Improv_Metronome,67,5,42,127,3029314888
42,23,13,Improv_Metronome,68,1,38,62,3029795816
42,23,13,Improv_Metronome,69,5,42,127,3029814552
42,23,13,Improv_Metronome,70,5,42,127,3030315376
42,23,13,Improv_Metronome,71,1,48,69,3030332104
42,23,13,Improv_Metronome,72,1,38,17,3030342112
42,23,13,Improv_Metronome,73,5,42,127,3030815024
42,23,13,Improv_Metronome,74,1,38,76,3030819336
42,23,13,Improv_Metronome,75,5,42,127,3031314792
42,23,13,Improv_Metronome,76,1,48,75,3031316204
42,23,13,Improv_Metronome,77,1,38,18,3031326956
42,23,13,Improv_Metronome,78,1,38,70,3031564184
42,23,13,Improv_Metronome,79,1,48,18,3031573440
42,23,13,Improv_Metronome,80,1,38,71,3031783948
42,23,13,Improv_Metronome,81,1,38,82,3031810580
42,23,13,Improv_Metronome,82,5,42,127,3031814504
42,23,13,Improv_Metronome,83,1,38,72,3032026372
42,23,13,Improv_Metronome,84,1,48,18,3032036672
42,23,13,Improv_Metronome,85,1,38,50,3032126880
42,23,13,Improv_Metronome,86,1,38,75,3032288764
42,23,13,Improv_Metronome,87,1,48,62,3032306620
42,23,13,Improv_Metronome,88,5,42,127,3032315480
42,23,13,Improv_Metronome,89,1,38,69,3032752880
42,23,13,Improv_Metronome,90,1,48,18,3032762812
42,23,13,Improv_Metronome,91,1,38,79,3032772064
42,23,13,Improv_Metronome,92,5,42,127,3032814956
42,23,13,Improv_Metronome,93,1,48,67,3033250116
42,23,13,Improv_Metronome,94,1,38,18,3033260196
42,23,13,Improv_Metronome,95,5,42,127,3033314604
42,23,13,Improv_Metronome,96,1,38,73,3033741608
42,23,13,Improv_Metronome,97,1,48,21,3033751912
42,23,13,Improv_Metronome,98,5,42,127,3033815372
42,23,13,Improv_Metronome,99,1,48,66,3034242900
42,23,13,Improv_Metronome,100,1,38,18,3034253652
42,23,13,Improv_Metronome,101,5,42,127,3034315168
42,23,13,Improv_Metronome,102,1,38,72,3034739032
42,23,13,Improv_Metronome,103,5,42,127,3034814688
42,23,13,Improv_Metronome,104,1,48,71,3035219576
42,23,13,Improv_Metronome,105,1,38,20,3035229432
42,23,13,Improv_Metronome,106,5,42,127,3035314660
42,23,13,Improv_Metronome,107,1,38,60,3035488000
42,23,13,Improv_Metronome,108,1,38,58,3035533004
42,23,13,Improv_Metronome,109,1,38,69,3035598580
42,23,13,Improv_Metronome,110,1,38,90,3035643364
42,23,13,Improv_Metronome,111,5,42,127,3035815440
42,23,13,Improv_Metronome,112,1,48,92,3036190648
42,23,13,Improv_Metronome,113,1,38,23,3036200580
42,23,13,Improv_Metronome,114,5,42,127,3036315088
42,23,13,Improv_Metronome,115,1,38,77,3036676688
42,23,13,Improv_Metronome,116,5,42,127,3036814708
42,23,13,Improv_Metronome,117,1,48,68,3037195384
42,23,13,Improv_Metronome,118,1,38,18,3037205232
42,23,13,Improv_Metronome,119,5,42,127,3037314356
42,23,13,Improv_Metronome,120,1,38,58,3037680792
42,23,13,Improv_Metronome,121,1,48,20,3037691020
42,23,13,Improv_Metronome,122,5,42,127,3037815348
42,23,13,Improv_Metronome,123,1,48,62,3038209188
42,23,13,Improv_Metronome,124,1,38,18,3038219036
42,23,13,Improv_Metronome,125,5,42,127,3038314724
42,23,13,Improv_Metronome,126,1,38,55,3038748936
42,23,13,Improv_Metronome,127,5,42,127,3038814492
42,23,13,Improv_Metronome,128,1,48,70,3039241676
42,23,13,Improv_Metronome,129,1,38,18,3039251680
42,23,13,Improv_Metronome,130,5,42,127,3039315216
42,23,13,Improv_Metronome,131,1,48,79,3039493936
42,23,13,Improv_Metronome,132,1,38,20,3039504240
42,23,13,Improv_Metronome,133,1,48,66,3039602624
42,23,13,Improv_Metronome,134,1,48,83,3039695132
42,23,13,Improv_Metronome,135,1,38,20,3039704312
42,23,13,Improv_Metronome,136,5,42,127,3039815252
42,23,13,Improv_Metronome,137,1,38,70,3040159172
42,23,13,Improv_Metronome,138,1,48,18,3040169624
42,23,13,Improv_Metronome,139,1,38,84,3040174392
42,23,13,Improv_Metronome,140,5,42,127,3040314800
42,23,13,Improv_Metronome,141,1,48,69,3040649000
42,23,13,Improv_Metronome,142,1,38,18,3040659076
42,23,13,Improv_Metronome,143,5,42,127,3040814448
42,23,13,Improv_Metronome,144,1,38,87,3041121572
42,23,13,Improv_Metronome,145,1,48,21,3041132024
42,23,13,Improv_Metronome,146,5,42,127,3041315144
42,23,13,Improv_Metronome,147,1,48,77,3041607080
42,23,13,Improv_Metronome,148,5,42,127,3041815136
42,23,13,Improv_Metronome,149,1,38,77,3042078056
42,23,13,Improv_Metronome,150,5,42,127,3042314612
42,23,13,Improv_Metronome,151,1,48,66,3042543392
42,23,13,Improv_Metronome,152,1,38,18,3042553324
42,23,13,Improv_Metronome,153,5,42,127,3042815304
42,23,13,Improv_Metronome,154,1,38,65,3042998088
42,23,13,Improv_Metronome,155,1,38,71,3043009436
42,23,13,Improv_Metronome,156,1,38,87,3043236524
42,23,13,Improv_Metronome,157,1,48,20,3043247052
42,23,13,Improv_Metronome,158,5,42,127,3043315228
42,23,13,Improv_Metronome,159,1,38,126,3043353480
42,23,13,Improv_Metronome,160,5,42,127,3043814880
42,23,13,Improv_Metronome,161,1,48,75,3043881748
42,23,13,Improv_Metronome,162,5,42,127,3044314572
42,23,13,Improv_Metronome,163,1,38,71,3044355492
42,23,13,Improv_Metronome,164,1,48,19,3044365348
42,23,13,Improv_Metronome,165,5,42,127,3044815120
42,23,13,Improv_Metronome,166,1,48,58,3044822872
42,23,13,Improv_Metronome,167,1,38,88,3045270868
42,23,13,Improv_Metronome,168,1,48,22,3045280716
42,23,13,Improv_Metronome,169,1,38,67,3045312564
42,23,13,Improv_Metronome,170,5,42,127,3045315284
42,23,13,Improv_Metronome,171,1,48,58,3045749860
42,23,13,Improv_Metronome,172,1,38,16,3045759264
42,23,13,Improv_Metronome,173,5,42,127,3045814572
42,23,13,Improv_Metronome,174,1,38,80,3046221532
42,23,13,Improv_Metronome,175,1,48,21,3046231388
42,23,13,Improv_Metronome,176,1,38,68,3046245800
42,23,13,Improv_Metronome,177,5,42,127,3046315320
42,23,13,Improv_Metronome,178,1,48,57,3046706200
42,23,13,Improv_Metronome,179,1,38,18,3046716196
42,23,13,Improv_Metronome,180,5,42,127,3046815972
42,23,13,Improv_Metronome,181,1,38,61,3047163780
42,23,13,Improv_Metronome,182,1,38,69,3047173284
42,23,13,Improv_Metronome,183,5,42,127,3047314892
42,23,13,Improv_Metronome,184,1,38,77,3047410460
42,23,13,Improv_Metronome,185,1,48,19,3047420392
42,23,13,Improv_Metronome,186,1,38,98,3047509900
42,23,13,Improv_Metronome,187,1,38,55,3047552784
42,23,13,Improv_Metronome,188,5,42,127,3047814548
42,23,13,Improv_Metronome,189,1,48,86,3048060704
42,23,13,Improv_Metronome,190,5,42,127,3048315364
42,23,13,Improv_Metronome,191,1,38,71,3048538636
42,23,13,Improv_Metronome,192,1,48,19,3048548940
42,23,13,Improv_Metronome,193,5,42,127,3048814860
42,23,13,Improv_Metronome,194,1,48,55,3048991236
42,23,13,Improv_Metronome,195,1,38,16,3049000564
42,23,13,Improv_Metronome,196,1,48,62,3049013932
42,23,13,Improv_Metronome,197,5,42,127,3049314640
42,23,13,Improv_Metronome,198,1,38,70,3049468028
42,23,13,Improv_Metronome,199,1,48,20,3049478220
42,23,13,Improv_Metronome,200,1,38,72,3049485376
42,23,13,Improv_Metronome,201,5,42,127,3049815324
42,23,13,Improv_Metronome,202,1,48,56,3049954500
42,23,13,Improv_Metronome,203,5,42,127,3050315092
42,23,13,Improv_Metronome,204,1,38,66,3050415968
42,23,13,Improv_Metronome,205,1,48,18,3050425452
42,23,13,Improv_Metronome,206,1,38,70,3050449216
42,23,13,Improv_Metronome,207,5,42,127,3050815016
42,23,13,Improv_Metronome,208,1,48,65,3050877900
42,23,13,Improv_Metronome,209,1,38,18,3050888280
42,23,13,Improv_Metronome,210,1,48,61,3051100904
42,23,13,Improv_Metronome,211,1,38,16,3051111352
42,23,13,Improv_Metronome,212,5,42,127,3051314748
42,23,13,Improv_Metronome,213,1,48,76,3051318236
42,23,13,Improv_Metronome,214,1,38,97,3051326676
42,23,13,Improv_Metronome,215,1,48,38,3051571160
42,23,13,Improv_Metronome,216,1,48,46,3051784112
42,23,13,Improv_Metronome,217,5,42,127,3051815336
42,23,13,Improv_Metronome,218,1,48,40,3052010896
42,23,13,Improv_Metronome,219,1,48,80,3052224072
42,23,13,Improv_Metronome,220,1,38,19,3052233928
42,23,13,Improv_Metronome,221,1,38,81,3052241384
42,23,13,Improv_Metronome,222,5,42,127,3052314896
42,23,13,Improv_Metronome,223,1,48,59,3052469956
42,23,13,Improv_Metronome,224,1,48,55,3052704300
42,23,13,Improv_Metronome,225,5,42,127,3052814896
42,23,13,Improv_Metronome,226,1,48,50,3052906052
42,23,13,Improv_Metronome,227,1,48,80,3053131872
42,23,13,Improv_Metronome,228,1,38,86,3053146288
42,23,13,Improv_Metronome,229,5,42,127,3053314372
42,23,13,Improv_Metronome,230,1,48,62,3053382044
42,23,13,Improv_Metronome,231,1,48,65,3053614960
42,23,13,Improv_Metronome,232,5,42,127,3053815140
42,23,13,Improv_Metronome,233,1,48,50,3053836908
42,23,13,Improv_Metronome,234,1,48,69,3054030240
42,23,13,Improv_Metronome,235,1,38,82,3054062908
42,23,13,Improv_Metronome,236,1,38,72,3054314316
42,23,13,Improv_Metronome,237,5,42,127,3054317080
42,23,13,Improv_Metronome,238,1,48,18,3054324536
42,23,13,Improv_Metronome,239,1,38,40,3054420876
42,23,13,Improv_Metronome,240,1,38,97,3054433172
42,23,13,Improv_Metronome,241,5,42,127,3054814684
42,23,13,Improv_Metronome,242,1,48,87,3054930772
42,23,13,Improv_Metronome,243,1,38,62,3054938312
42,23,13,Improv_Metronome,244,5,42,127,3055315304
42,23,13,Improv_Metronome,245,1,38,78,3055377088
42,23,13,Improv_Metronome,246,1,48,18,3055387540
42,23,13,Improv_Metronome,247,1,38,40,3055531480
42,23,13,Improv_Metronome,248,1,48,65,3055797160
42,23,13,Improv_Metronome,249,5,42,127,3055815000
42,23,13,Improv_Metronome,250,1,38,91,3055827840
42,23,13,Improv_Metronome,251,1,38,67,3056279992
42,23,13,Improv_Metronome,252,1,48,16,3056290440
42,23,13,Improv_Metronome,253,5,42,127,3056314860
42,23,13,Improv_Metronome,254,1,48,65,3056725128
42,23,13,Improv_Metronome,255,1,38,71,3056755996
42,23,13,Improv_Metronome,256,5,42,127,3056814372
42,23,13,Improv_Metronome,257,1,38,53,3057226636
42,23,13,Improv_Metronome,258,5,42,127,3057315160
42,23,13,Improv_Metronome,259,1,38,56,3057700452
42,23,13,Improv_Metronome,260,1,38,60,3057717784
42,23,13,Improv_Metronome,261,5,42,127,3057814892
42,23,13,Improv_Metronome,262,1,38,46,3057910836
42,23,13,Improv_Metronome,263,1,38,41,3058124756
42,23,13,Improv_Metronome,264,5,42,127,3058314564
42,23,13,Improv_Metronome,265,1,38,52,3058340568
42,23,13,Improv_Metronome,266,1,38,67,3058378472
42,23,13,Improv_Metronome,267,1,38,44,3058585364
42,23,13,Improv_Metronome,268,1,38,43,3058789716
42,23,13,Improv_Metronome,269,5,42,127,3058815776
42,23,13,Improv_Metronome,270,1,38,43,3059026840
42,23,13,Improv_Metronome,271,1,38,27,3059244656
42,23,13,Improv_Metronome,272,5,42,127,3059315076
42,23,13,Improv_Metronome,273,1,38,52,3059487396
42,23,13,Improv_Metronome,274,1,48,14,3059497328
42,23,13,Improv_Metronome,275,1,38,57,3059507480
42,23,13,Improv_Metronome,276,1,38,29,3059746136
42,23,13,Improv_Metronome,277,5,42,127,3059814684
42,23,13,Improv_Metronome,278,1,38,34,3059930508
42,23,13,Improv_Metronome,279,1,38,49,3060181604
42,23,13,Improv_Metronome,280,1,38,58,3060212924
42,23,13,Improv_Metronome,281,5,42,127,3060314764
42,23,13,Improv_Metronome,282,1,38,34,3060417288
42,23,13,Improv_Metronome,283,1,38,46,3060640116
42,23,13,Improv_Metronome,284,5,42,127,3060815332
42,23,13,Improv_Metronome,285,1,38,48,3060858996
42,23,13,Improv_Metronome,286,1,48,14,3060869372
42,23,13,Improv_Metronome,287,1,38,35,3060953720
42,23,13,Improv_Metronome,288,1,38,61,3061122824
42,23,13,Improv_Metronome,289,1,48,16,3061132680
42,23,13,Improv_Metronome,290,1,38,75,3061235104
42,23,13,Improv_Metronome,291,1,38,41,3061297860
42,23,13,Improv_Metronome,292,5,42,127,3061314876
42,23,13,Improv_Metronome,293,1,48,82,3061768156
42,23,13,Improv_Metronome,294,1,38,20,3061778384
42,23,13,Improv_Metronome,295,5,42,127,3061814548
42,23,13,Improv_Metronome,296,1,38,57,3062249832
42,23,13,Improv_Metronome,297,1,48,17,3062259532
42,23,13,Improv_Metronome,298,1,38,53,3062278684
42,23,13,Improv_Metronome,299,5,42,127,3062315520
42,23,13,Improv_Metronome,300,1,48,69,3062745268
42,23,13,Improv_Metronome,301,1,38,17,3062755716
42,23,13,Improv_Metronome,302,5,42,127,3062815016
42,23,13,Improv_Metronome,303,1,38,61,3063245804
42,23,13,Improv_Metronome,304,1,38,62,3063270020
42,23,13,Improv_Metronome,305,5,42,127,3063314736
42,23,13,Improv_Metronome,306,1,48,65,3063738676
42,23,13,Improv_Metronome,307,1,38,19,3063749052
42,23,13,Improv_Metronome,308,5,42,127,3063814636
42,23,13,Improv_Metronome,309,1,38,71,3064230840
42,23,13,Improv_Metronome,310,1,48,19,3064240696
42,23,13,Improv_Metronome,311,1,38,63,3064267828
42,23,13,Improv_Metronome,312,5,42,127,3064315136
42,23,13,Improv_Metronome,313,1,48,68,3064705264
42,23,13,Improv_Metronome,314,5,42,127,3064814936
42,23,13,Improv_Metronome,315,1,38,64,3064977024
42,23,13,Improv_Metronome,316,1,48,19,3064986952
42,23,13,Improv_Metronome,317,1,38,84,3065096964
42,23,13,Improv_Metronome,318,1,38,59,3065151848
42,23,13,Improv_Metronome,319,5,42,127,3065314628
42,23,13,Improv_Metronome,320,1,48,88,3065694480
42,23,13,Improv_Metronome,321,1,38,21,3065704404
42,23,13,Improv_Metronome,322,5,42,127,3065815696
42,23,13,Improv_Metronome,323,1,38,62,3066181184
42,23,13,Improv_Metronome,324,1,48,16,3066191040
42,23,13,Improv_Metronome,325,1,38,71,3066202760
42,23,13,Improv_Metronome,326,5,42,127,3066315244
42,23,13,Improv_Metronome,327,1,48,66,3066687692
42,23,13,Improv_Metronome,328,5,42,127,3066814940
42,23,13,Improv_Metronome,329,1,38,65,3067163524
42,23,13,Improv_Metronome,330,1,48,18,3067173232
42,23,13,Improv_Metronome,331,1,38,64,3067191312
42,23,13,Improv_Metronome,332,5,42,127,3067314568
42,23,13,Improv_Metronome,333,1,48,70,3067671976
42,23,13,Improv_Metronome,334,1,38,18,3067681908
42,23,13,Improv_Metronome,335,5,42,127,3067815484
42,23,13,Improv_Metronome,336,1,38,79,3068160928
42,23,13,Improv_Metronome,337,1,48,19,3068171312
42,23,13,Improv_Metronome,338,1,38,59,3068190960
42,23,13,Improv_Metronome,339,5,42,127,3068315040
42,23,13,Improv_Metronome,340,1,48,65,3068655368
42,23,13,Improv_Metronome,341,1,38,17,3068665900
42,23,13,Improv_Metronome,342,5,42,127,3068814684
42,23,13,Improv_Metronome,343,1,38,63,3068931448
42,23,13,Improv_Metronome,344,1,48,18,3068941224
42,23,13,Improv_Metronome,345,1,38,76,3069053820
42,23,13,Improv_Metronome,346,5,42,127,3069314388
42,23,13,Improv_Metronome,347,1,38,73,3069654492
42,23,13,Improv_Metronome,348,1,48,18,3069664348
42,23,13,Improv_Metronome,349,5,42,127,3069815304
42,23,13,Improv_Metronome,350,1,38,57,3070170820
42,23,13,Improv_Metronome,351,1,38,68,3070187328
42,23,13,Improv_Metronome,352,5,42,127,3070314828
42,23,13,Improv_Metronome,353,1,38,62,3070659124
42,23,13,Improv_Metronome,354,5,42,127,3070814520
42,23,13,Improv_Metronome,355,1,38,62,3071140044
42,23,13,Improv_Metronome,356,1,48,17,3071149820
42,23,13,Improv_Metronome,357,1,38,67,3071157728
42,23,13,Improv_Metronome,358,5,42,127,3071315268
42,23,13,Improv_Metronome,359,1,38,62,3071640560
42,23,13,Improv_Metronome,360,1,48,16,3071650416
42,23,13,Improv_Metronome,361,5,42,127,3071814988
42,23,13,Improv_Metronome,362,1,38,56,3072135352
42,23,13,Improv_Metronome,363,5,42,127,3072314756
42,23,13,Improv_Metronome,364,1,38,67,3072627708
42,23,13,Improv_Metronome,365,5,42,127,3072814524
42,23,13,Improv_Metronome,366,1,48,78,3073081032
42,23,13,Improv_Metronome,367,1,38,19,3073091036
42,23,13,Improv_Metronome,368,1,48,57,3073310464
42,23,13,Improv_Metronome,369,5,42,127,3073315288
42,23,13,Improv_Metronome,370,1,38,15,3073321104
42,23,13,Improv_Metronome,371,1,48,78,3073531632
42,23,13,Improv_Metronome,372,1,38,19,3073541860
42,23,13,Improv_Metronome,373,1,48,50,3073582972
42,23,13,Improv_Metronome,374,1,48,65,3073790440
42,23,13,Improv_Metronome,375,5,42,127,3073814784
42,23,13,Improv_Metronome,376,1,48,67,3074025824
42,23,13,Improv_Metronome,377,1,48,44,3074239972
42,23,13,Improv_Metronome,378,5,42,127,3074314532
42,23,13,Improv_Metronome,379,1,48,70,3074463336
42,23,13,Improv_Metronome,380,1,48,57,3074483736
42,23,13,Improv_Metronome,381,1,48,64,3074735212
42,23,13,Improv_Metronome,382,5,42,127,3074815376
42,23,13,Improv_Metronome,383,1,48,88,3074971892
42,23,13,Improv_Metronome,384,1,48,64,3074999092
42,23,13,Improv_Metronome,385,1,48,74,3075306592
42,23,13,Improv_Metronome,386,5,42,127,3075315224
42,23,13,Improv_Metronome,387,1,38,20,3075317596
42,23,13,Improv_Metronome,388,1,48,64,3075431864
42,23,13,Improv_Metronome,389,1,48,86,3075655656
42,23,13,Improv_Metronome,390,1,38,21,3075666188
42,23,13,Improv_Metronome,391,1,48,71,3075773244
42,23,13,Improv_Metronome,392,5,42,127,3075814720
42,23,13,Improv_Metronome,393,1,48,80,3075976116
42,23,13,Improv_Metronome,394,1,38,19,3075985824
42,23,13,Improv_Metronome,395,1,48,71,3076077128
42,23,13,Improv_Metronome,396,5,42,127,3076314416
42,23,13,Improv_Metronome,397,1,38,74,3076344384
42,23,13,Improv_Metronome,398,1,48,19,3076354724
42,23,13,Improv_Metronome,399,5,42,127,3076815196
42,23,13,Improv_Metronome,400,1,48,43,3076832824
42,23,13,Improv_Metronome,401,1,38,19,3076842832
42,23,13,Improv_Metronome,402,1,48,43,3077064648
42,23,13,Improv_Metronome,403,1,38,70,3077272292
42,23,13,Improv_Metronome,404,1,48,70,3077284316
42,23,13,Improv_Metronome,405,5,42,127,3077314944
42,23,13,Improv_Metronome,406,1,48,51,3077533912
42,23,13,Improv_Metronome,407,1,48,42,3077773940
42,23,13,Improv_Metronome,408,5,42,127,3077814588
42,23,13,Improv_Metronome,409,1,48,52,3077998428
42,23,13,Improv_Metronome,410,1,48,68,3078219016
42,23,13,Improv_Metronome,411,1,38,18,3078228788
42,23,13,Improv_Metronome,412,1,38,83,3078233556
42,23,13,Improv_Metronome,413,5,42,127,3078315328
42,23,13,Improv_Metronome,414,1,48,59,3078464540
42,23,13,Improv_Metronome,415,1,38,16,3078474688
42,23,13,Improv_Metronome,416,1,48,45,3078709460
42,23,13,Improv_Metronome,417,5,42,127,3078815388
42,23,13,Improv_Metronome,418,1,48,51,3078918168
42,23,13,Improv_Metronome,419,1,48,65,3079146576
42,23,13,Improv_Metronome,420,1,38,18,3079156500
42,23,13,Improv_Metronome,421,1,38,92,3079165036
42,23,13,Improv_Metronome,422,5,42,127,3079315068
42,23,13,Improv_Metronome,423,1,48,57,3079406000
42,23,13,Improv_Metronome,424,1,38,15,3079416300
42,23,13,Improv_Metronome,425,1,48,57,3079646728
42,23,13,Improv_Metronome,426,5,42,127,3079814468
42,23,13,Improv_Metronome,427,1,48,55,3079841300
42,23,13,Improv_Metronome,428,1,48,84,3080079536
42,23,13,Improv_Metronome,429,1,38,80,3080082804
42,23,13,Improv_Metronome,430,1,48,59,3080307544
42,23,13,Improv_Metronome,431,5,42,127,3080315208
42,23,13,Improv_Metronome,432,1,38,16,3080318108
42,23,13,Improv_Metronome,433,1,48,54,3080402156
42,23,13,Improv_Metronome,434,1,38,85,3080437436
42,23,13,Improv_Metronome,435,1,48,49,3080795044
42,23,13,Improv_Metronome,436,5,42,127,3080814976
42,23,13,Improv_Metronome,437,1,48,90,3081015944
42,23,13,Improv_Metronome,438,1,38,21,3081025948
42,23,13,Improv_Metronome,439,1,38,86,3081037668
42,23,13,Improv_Metronome,440,1,48,51,3081273180
42,23,13,Improv_Metronome,441,5,42,127,3081315100
42,23,13,Improv_Metronome,442,1,48,46,3081484808
42,23,13,Improv_Metronome,443,1,48,43,3081706036
42,23,13,Improv_Metronome,444,5,42,127,3081815432
42,23,13,Improv_Metronome,445,1,48,87,3081927908
42,23,13,Improv_Metronome,446,1,38,20,3081938284
42,23,13,Improv_Metronome,447,1,38,76,3081965040
42,23,13,Improv_Metronome,448,1,48,51,3082167044
42,23,13,Improv_Metronome,449,5,42,127,3082315112
42,23,13,Improv_Metronome,450,1,48,51,3082411056
42,23,13,Improv_Metronome,451,1,48,53,3082613684
42,23,13,Improv_Metronome,452,5,42,127,3082815008
42,23,13,Improv_Metronome,453,1,48,76,3082855976
42,23,13,Improv_Metronome,454,1,38,20,3082865904
42,23,13,Improv_Metronome,455,1,38,74,3082883312
42,23,13,Improv_Metronome,456,1,48,47,3083090028
42,23,13,Improv_Metronome,457,5,42,127,3083314464
42,23,13,Improv_Metronome,458,1,48,51,3083326108
42,23,13,Improv_Metronome,459,1,48,48,3083537420
42,23,13,Improv_Metronome,460,1,48,72,3083757604
42,23,13,Improv_Metronome,461,1,38,79,3083782304
42,23,13,Improv_Metronome,462,5,42,127,3083815248
42,23,13,Improv_Metronome,463,1,48,71,3083995444
42,23,13,Improv_Metronome,464,1,38,19,3084005896
42,23,13,Improv_Metronome,465,1,38,91,3084128764
42,23,13,Improv_Metronome,466,1,48,66,3084251188
42,23,13,Improv_Metronome,467,1,38,18,3084261416
42,23,13,Improv_Metronome,468,5,42,127,3084315024
42,23,13,Improv_Metronome,469,1,48,62,3084500012
42,23,13,Improv_Metronome,470,1,38,18,3084510612
42,23,13,Improv_Metronome,471,1,48,82,3084727428
42,23,13,Improv_Metronome,472,1,38,19,3084737424
42,23,13,Improv_Metronome,473,1,38,100,3084757080
42,23,13,Improv_Metronome,474,5,42,127,3084814656
42,23,13,Improv_Metronome,475,1,48,55,3084960896
42,23,13,Improv_Metronome,476,1,48,57,3085181328
42,23,13,Improv_Metronome,477,5,42,127,3085314288
42,23,13,Improv_Metronome,478,1,48,44,3085400132
42,23,13,Improv_Metronome,479,1,48,96,3085616600
42,23,13,Improv_Metronome,480,1,38,21,3085626604
42,23,13,Improv_Metronome,481,1,38,94,3085642660
42,23,13,Improv_Metronome,482,5,42,127,3085815064
42,23,13,Improv_Metronome,483,1,48,51,3085857548
42,23,13,Improv_Metronome,484,1,48,67,3086085464
42,23,13,Improv_Metronome,485,1,48,51,3086292184
42,23,13,Improv_Metronome,486,5,42,127,3086315028
42,23,13,Improv_Metronome,487,1,48,81,3086520032
42,23,13,Improv_Metronome,488,1,38,86,3086544620
42,23,13,Improv_Metronome,489,1,48,62,3086770712
42,23,13,Improv_Metronome,490,5,42,127,3086814576
42,23,13,Improv_Metronome,491,1,48,60,3086996396
42,23,13,Improv_Metronome,492,1,48,61,3087235084
42,23,13,Improv_Metronome,493,5,42,127,3087315300
42,23,13,Improv_Metronome,494,1,48,79,3087437428
42,23,13,Improv_Metronome,495,1,38,78,3087481168
42,23,13,Improv_Metronome,496,1,48,96,3087675164
42,23,13,Improv_Metronome,497,1,38,21,3087685468
42,23,13,Improv_Metronome,498,1,48,55,3087766380
42,23,13,Improv_Metronome,0,9999,9999,9999,3017813056
42,23,13,Improv_Metronome,1,9999,9999,9999,3018312772
42,23,13,Improv_Metronome,2,9999,9999,9999,3018812488
42,23,13,Improv_Metronome,3,9999,9999,9999,3019312204
42,23,13,Improv_Metronome,4,9999,9999,9999,3019812968
42,23,13,Improv_Metronome,5,9999,9999,9999,3020312656
42,23,13,Improv_Metronome,6,9999,9999,9999,3020812352
42,23,13,Improv_Metronome,7,9999,9999,9999,3021312120
42,23,13,Improv_Metronome,8,9999,9999,9999,3021812836
42,23,13,Improv_Metronome,9,9999,9999,9999,3022312512
42,23,13,Improv_Metronome,10,9999,9999,9999,3022812244
42,23,13,Improv_Metronome,11,9999,9999,9999,3023313016
42,23,13,Improv_Metronome,12,9999,9999,9999,3023812676
42,23,13,Improv_Metronome,13,9999,9999,9999,3024312400
42,23,13,Improv_Metronome,14,9999,9999,9999,3024812112
42,23,13,Improv_Metronome,15,9999,9999,9999,3025312880
42,23,13,Improv_Metronome,16,9999,9999,9999,3025812528
42,23,13,Improv_Metronome,17,9999,9999,9999,3026312304
42,23,13,Improv_Metronome,18,9999,9999,9999,3026813000
42,23,13,Improv_Metronome,19,9999,9999,9999,3027312720
42,23,13,Improv_Metronome,20,9999,9999,9999,3027812452
42,23,13,Improv_Metronome,21,9999,9999,9999,3028312128
42,23,13,Improv_Metronome,22,9999,9999,9999,3028812848
42,23,13,Improv_Metronome,23,9999,9999,9999,3029312600
42,23,13,Improv_Metronome,24,9999,9999,9999,3029812340
42,23,13,Improv_Metronome,25,9999,9999,9999,3030313012
42,23,13,Improv_Metronome,26,9999,9999,9999,3030812732
42,23,13,Improv_Metronome,27,9999,9999,9999,3031312504
42,23,13,Improv_Metronome,28,9999,9999,9999,3031812216
42,23,13,Improv_Metronome,29,9999,9999,9999,3032312896
42,23,13,Improv_Metronome,30,9999,9999,9999,3032812596
42,23,13,Improv_Metronome,31,9999,9999,9999,3033312320
42,23,13,Improv_Metronome,32,9999,9999,9999,3033813084
42,23,13,Improv_Metronome,33,9999,9999,9999,3034312808
42,23,13,Improv_Metronome,34,9999,9999,9999,3034812472
42,23,13,Improv_Metronome,35,9999,9999,9999,3035312224
42,23,13,Improv_Metronome,36,9999,9999,9999,3035812928
42,23,13,Improv_Metronome,37,9999,9999,9999,3036312652
42,23,13,Improv_Metronome,38,9999,9999,9999,3036812344
42,23,13,Improv_Metronome,39,9999,9999,9999,3037312068
42,23,13,Improv_Metronome,40,9999,9999,9999,3037812836
42,23,13,Improv_Metronome,41,9999,9999,9999,3038312512
42,23,13,Improv_Metronome,42,9999,9999,9999,3038812280
42,23,13,Improv_Metronome,43,9999,9999,9999,3039313004
42,23,13,Improv_Metronome,44,9999,9999,9999,3039812664
42,23,13,Improv_Metronome,45,9999,9999,9999,3040312440
42,23,13,Improv_Metronome,46,9999,9999,9999,3040812088
42,23,13,Improv_Metronome,47,9999,9999,9999,3041312856
42,23,13,Improv_Metronome,48,9999,9999,9999,3041812552
42,23,13,Improv_Metronome,49,9999,9999,9999,3042312248
42,23,13,Improv_Metronome,50,9999,9999,9999,3042813016
42,23,13,Improv_Metronome,51,9999,9999,9999,3043312716
42,23,13,Improv_Metronome,52,9999,9999,9999,3043812444
42,23,13,Improv_Metronome,53,9999,9999,9999,3044312136
42,23,13,Improv_Metronome,54,9999,9999,9999,3044812904
42,23,13,Improv_Metronome,55,9999,9999,9999,3045312628
42,23,13,Improv_Metronome,56,9999,9999,9999,3045812284
42,23,13,Improv_Metronome,57,9999,9999,9999,3046313032
42,23,13,Improv_Metronome,58,9999,9999,9999,3046812736
42,23,13,Improv_Metronome,59,9999,9999,9999,3047312456
42,23,13,Improv_Metronome,60,9999,9999,9999,3047812184
42,23,13,Improv_Metronome,61,9999,9999,9999,3048312924
42,23,13,Improv_Metronome,62,9999,9999,9999,3048812648
42,23,13,Improv_Metronome,63,9999,9999,9999,3049312348
42,23,13,Improv_Metronome,64,9999,9999,9999,3049813108
42,23,13,Improv_Metronome,65,9999,9999,9999,3050312804
42,23,13,Improv_Metronome,66,9999,9999,9999,3050812504
42,23,13,Improv_Metronome,67,9999,9999,9999,3051312236
42,23,13,Improv_Metronome,68,9999,9999,9999,3051812976
42,23,13,Improv_Metronome,69,9999,9999,9999,3052312680
42,23,13,Improv_Metronome,70,9999,9999,9999,3052812384
42,23,13,Improv_Metronome,71,9999,9999,9999,3053312084
42,23,13,Improv_Metronome,72,9999,9999,9999,3053812852
42,23,13,Improv_Metronome,73,9999,9999,9999,3054312556
42,23,13,Improv_Metronome,74,9999,9999,9999,3054812248
42,23,13,Improv_Metronome,75,9999,9999,9999,3055313016
42,23,13,Improv_Metronome,76,9999,9999,9999,3055812712
42,23,13,Improv_Metronome,77,9999,9999,9999,3056312424
42,23,13,Improv_Metronome,78,9999,9999,9999,3056812084
42,23,13,Improv_Metronome,79,9999,9999,9999,3057312872
42,23,13,Improv_Metronome,80,9999,9999,9999,3057812528
42,23,13,Improv_Metronome,81,9999,9999,9999,3058312276
42,23,13,Improv_Metronome,82,9999,9999,9999,3058813040
42,23,13,Improv_Metronome,83,9999,9999,9999,3059312716
42,23,13,Improv_Metronome,84,9999,9999,9999,3059812468
42,23,13,Improv_Metronome,85,9999,9999,9999,3060312180
42,23,13,Improv_Metronome,86,9999,9999,9999,3060812896
42,23,13,Improv_Metronome,87,9999,9999,9999,3061312588
42,23,13,Improv_Metronome,88,9999,9999,9999,3061812336
42,23,13,Improv_Metronome,89,9999,9999,9999,3062313008
42,23,13,Improv_Metronome,90,9999,9999,9999,3062812728
42,23,13,Improv_Metronome,91,9999,9999,9999,3063312448
42,23,13,Improv_Metronome,92,9999,9999,9999,3063812200
42,23,13,Improv_Metronome,93,9999,9999,9999,3064312920
42,23,13,Improv_Metronome,94,9999,9999,9999,3064812648
42,23,13,Improv_Metronome,95,9999,9999,9999,3065312340
42,23,13,Improv_Metronome,96,9999,9999,9999,3065813108
42,23,13,Improv_Metronome,97,9999,9999,9999,3066312808
42,23,13,Improv_Metronome,98,9999,9999,9999,3066812504
42,23,13,Improv_Metronome,99,9999,9999,9999,3067312204
42,23,13,Improv_Metronome,100,9999,9999,9999,3067812972
42,23,13,Improv_Metronome,101,9999,9999,9999,3068312676
42,23,13,Improv_Metronome,102,9999,9999,9999,3068812400
42,23,13,Improv_Metronome,103,9999,9999,9999,3069312100
42,23,13,Improv_Metronome,104,9999,9999,9999,3069812792
42,23,13,Improv_Metronome,105,9999,9999,9999,3070312540
42,23,13,Improv_Metronome,106,9999,9999,9999,3070812232
42,23,13,Improv_Metronome,107,9999,9999,9999,3071312980
42,23,13,Improv_Metronome,108,9999,9999,9999,3071812700
42,23,13,Improv_Metronome,109,9999,9999,9999,3072312396
42,23,13,Improv_Metronome,110,9999,9999,9999,3072812088
42,23,13,Improv_Metronome,111,9999,9999,9999,3073312852
42,23,13,Improv_Metronome,112,9999,9999,9999,3073812572
42,23,13,Improv_Metronome,113,9999,9999,9999,3074312244
42,23,13,Improv_Metronome,114,9999,9999,9999,3074813012
42,23,13,Improv_Metronome,115,9999,9999,9999,3075312716
42,23,13,Improv_Metronome,116,9999,9999,9999,3075812432
42,23,13,Improv_Metronome,117,9999,9999,9999,3076312128
42,23,13,Improv_Metronome,118,9999,9999,9999,3076812908
42,23,13,Improv_Metronome,119,9999,9999,9999,3077312584
42,23,13,Improv_Metronome,120,9999,9999,9999,3077812300
42,23,13,Improv_Metronome,121,9999,9999,9999,3078313056
42,23,13,Improv_Metronome,122,9999,9999,9999,3078812728
42,23,13,Improv_Metronome,123,9999,9999,9999,3079312480
42,23,13,Improv_Metronome,124,9999,9999,9999,3079812180
42,23,13,Improv_Metronome,125,9999,9999,9999,3080312924
42,23,13,Improv_Metronome,126,9999,9999,9999,3080812612
42,23,13,Improv_Metronome,127,9999,9999,9999,3081312368
42,23,13,Improv_Metronome,128,9999,9999,9999,3081813072
42,23,13,Improv_Metronome,129,9999,9999,9999,3082312824
42,23,13,Improv_Metronome,130,9999,9999,9999,3082812496
42,23,13,Improv_Metronome,131,9999,9999,9999,3083312176
42,23,13,Improv_Metronome,132,9999,9999,9999,3083812960
42,23,13,Improv_Metronome,133,9999,9999,9999,3084312664
42,23,13,Improv_Metronome,134,9999,9999,9999,3084812368
42,23,13,Improv_Metronome,135,9999,9999,9999,3085312076
42,23,13,Improv_Metronome,136,9999,9999,9999,3085812848
42,23,13,Improv_Metronome,137,9999,9999,9999,3086312516
42,23,13,Improv_Metronome,138,9999,9999,9999,3086812216
42,23,13,Improv_Metronome,139,9999,9999,9999,3087313012
42,24,14,Improv_Melody,0,1,38,17,3138192240
42,24,14,Improv_Melody,1,2,48,80,3138691500
42,24,14,Improv_Melody,2,2,72,80,3138693584
42,24,14,Improv_Melody,3,5,42,127,3138696424
42,24,14,Improv_Melody,4,1,38,17,3138889252
42,24,14,Improv_Melody,5,5,42,110,3139189088
42,24,14,Improv_Melody,6,5,42,110,3139688960
42,24,14,Improv_Melody,7,5,42,110,3140188460
42,24,14,Improv_Melody,8,5,42,127,3140689228
42,24,14,Improv_Melody,9,5,42,110,3141188948
42,24,14,Improv_Melody,10,5,42,110,3141688744
42,24,14,Improv_Melody,11,5,42,110,3142189364
42,24,14,Improv_Melody,12,2,43,80,3142691664
42,24,14,Improv_Melody,13,2,67,80,3142693740
42,24,14,Improv_Melody,14,5,42,127,3142696428
42,24,14,Improv_Melody,15,5,42,110,3143188896
42,24,14,Improv_Melody,16,5,42,110,3143688692
42,24,14,Improv_Melody,17,5,42,110,3144189240
42,24,14,Improv_Melody,18,5,42,127,3144689160
42,24,14,Improv_Melody,19,5,42,110,3145188880
42,24,14,Improv_Melody,20,5,42,110,3145688380
42,24,14,Improv_Melody,21,5,42,110,3146189224
42,24,14,Improv_Melody,22,2,45,80,3146691452
42,24,14,Improv_Melody,23,2,69,80,3146693680
42,24,14,Improv_Melody,24,5,42,127,3146696288
42,24,14,Improv_Melody,25,5,42,110,3147188532
42,24,14,Improv_Melody,26,5,42,110,3147689372
42,24,14,Improv_Melody,27,5,42,110,3148189168
42,24,14,Improv_Melody,28,5,42,127,3148688892
42,24,14,Improv_Melody,29,5,42,110,3149188388
42,24,14,Improv_Melody,30,5,42,110,3149689308
42,24,14,Improv_Melody,31,5,42,110,3150189104
42,24,14,Improv_Melody,32,2,41,80,3150691180
42,24,14,Improv_Melody,33,2,65,80,3150693256
42,24,14,Improv_Melody,34,5,42,127,3150695796
42,24,14,Improv_Melody,35,5,42,110,3151189308
42,24,14,Improv_Melody,36,5,42,110,3151689032
42,24,14,Improv_Melody,37,5,42,110,3152188752
42,24,14,Improv_Melody,38,5,42,127,3152688624
42,24,14,Improv_Melody,39,5,42,110,3153189096
42,24,14,Improv_Melody,40,5,42,110,3153688964
42,24,14,Improv_Melody,41,1,38,64,3153959808
42,24,14,Improv_Melody,42,1,38,72,3154055828
42,24,14,Improv_Melody,43,1,38,69,3154178500
42,24,14,Improv_Melody,44,5,42,110,3154188936
42,24,14,Improv_Melody,45,1,38,74,3154438896
42,24,14,Improv_Melody,46,1,48,90,3154685060
42,24,14,Improv_Melody,47,2,48,80,3154692092
42,24,14,Improv_Melody,48,2,72,80,3154694172
42,24,14,Improv_Melody,49,5,42,127,3154696928
42,24,14,Improv_Melody,50,5,42,110,3155188984
42,24,14,Improv_Melody,51,1,38,80,3155194744
42,24,14,Improv_Melody,52,1,48,24,3155204524
42,24,14,Improv_Melody,53,5,42,110,3155689008
42,24,14,Improv_Melody,54,1,48,64,3155708904
42,24,14,Improv_Melody,55,1,38,18,3155717788
42,24,14,Improv_Melody,56,5,42,110,3156188588
42,24,14,Improv_Melody,57,1,38,102,3156192152
42,24,14,Improv_Melody,58,5,42,127,3156689260
42,24,14,Improv_Melody,59,1,48,71,3156710704
42,24,14,Improv_Melody,60,1,38,19,3156720108
42,24,14,Improv_Melody,61,5,42,110,3157188836
42,24,14,Improv_Melody,62,1,38,101,3157197264
42,24,14,Improv_Melody,63,1,48,26,3157206596
42,24,14,Improv_Melody,64,5,42,110,3157688784
42,24,14,Improv_Melody,65,1,48,86,3157720628
42,24,14,Improv_Melody,66,1,38,19,3157730484
42,24,14,Improv_Melody,67,1,38,92,3158184948
42,24,14,Improv_Melody,68,5,42,110,3158189700
42,24,14,Improv_Melody,69,1,48,81,3158443776
42,24,14,Improv_Melody,70,1,48,105,3158566596
42,24,14,Improv_Melody,71,2,43,80,3158691720
42,24,14,Improv_Melody,72,2,67,80,3158693720
42,24,14,Improv_Melody,73,5,42,127,3158696188
42,24,14,Improv_Melody,74,1,38,86,3159178808
42,24,14,Improv_Melody,75,5,42,110,3159188796
42,24,14,Improv_Melody,76,1,48,89,3159678880
42,24,14,Improv_Melody,77,5,42,110,3159688572
42,24,14,Improv_Melody,78,1,38,57,3160169684
42,24,14,Improv_Melody,79,1,38,94,3160174752
42,24,14,Improv_Melody,80,5,42,110,3160189148
42,24,14,Improv_Melody,81,1,48,96,3160688324
42,24,14,Improv_Melody,82,5,42,127,3160689972
42,24,14,Improv_Melody,83,5,42,110,3161188856
42,24,14,Improv_Melody,84,1,38,87,3161191900
42,24,14,Improv_Melody,85,5,42,110,3161688704
42,24,14,Improv_Melody,86,1,48,100,3161716728
42,24,14,Improv_Melody,87,1,38,82,3162161128
42,24,14,Improv_Melody,88,5,42,110,3162189144
42,24,14,Improv_Melody,89,1,38,85,3162415324
42,24,14,Improv_Melody,90,1,48,19,3162425400
42,24,14,Improv_Melody,91,1,38,71,3162522584
42,24,14,Improv_Melody,92,1,38,106,3162609104
42,24,14,Improv_Melody,93,2,45,80,3162691328
42,24,14,Improv_Melody,94,2,69,80,3162693712
42,24,14,Improv_Melody,95,5,42,127,3162696096
42,24,14,Improv_Melody,96,1,48,115,3163174068
42,24,14,Improv_Melody,97,1,38,24,3163184148
42,24,14,Improv_Melody,98,5,42,110,3163188596
42,24,14,Improv_Melody,99,1,38,78,3163192072
42,24,14,Improv_Melody,100,1,38,93,3163688020
42,24,14,Improv_Melody,101,5,42,110,3163691016
42,24,14,Improv_Melody,102,5,42,110,3164189000
42,24,14,Improv_Melody,103,1,38,72,3164201996
42,24,14,Improv_Melody,104,1,48,76,3164209676
42,24,14,Improv_Melody,105,1,38,84,3164684192
42,24,14,Improv_Melody,106,5,42,127,3164688796
42,24,14,Improv_Melody,107,5,42,110,3165188652
42,24,14,Improv_Melody,108,1,38,75,3165191248
42,24,14,Improv_Melody,109,1,48,87,3165196012
42,24,14,Improv_Melody,110,1,38,25,3165264356
42,24,14,Improv_Melody,111,1,38,82,3165682900
42,24,14,Improv_Melody,112,5,42,110,3165689172
42,24,14,Improv_Melody,113,1,48,110,3166176320
42,24,14,Improv_Melody,114,1,38,22,3166186244
42,24,14,Improv_Melody,115,5,42,110,3166188976
42,24,14,Improv_Melody,116,1,38,79,3166661984
42,24,14,Improv_Melody,117,2,41,80,3166691076
42,24,14,Improv_Melody,118,2,65,80,3166693304
42,24,14,Improv_Melody,119,5,42,127,3166695844
42,24,14,Improv_Melody,120,1,38,82,3166901748
42,24,14,Improv_Melody,121,1,38,77,3167169448
42,24,14,Improv_Melody,122,5,42,110,3167189608
42,24,14,Improv_Melody,123,1,38,61,3167434036
42,24,14,Improv_Melody,124,1,38,86,3167657760
42,24,14,Improv_Melody,125,5,42,110,3167688992
42,24,14,Improv_Melody,126,1,38,60,3167926464
42,24,14,Improv_Melody,127,1,38,86,3168154148
42,24,14,Improv_Melody,128,5,42,110,3168188744
42,24,14,Improv_Melody,129,1,38,74,3168411252
42,24,14,Improv_Melody,130,1,38,94,3168654948
42,24,14,Improv_Melody,131,1,38,78,3168674900
42,24,14,Improv_Melody,132,5,42,127,3168688624
42,24,14,Improv_Melody,133,1,38,90,3168887876
42,24,14,Improv_Melody,134,1,38,76,3169054372
42,24,14,Improv_Melody,135,1,38,86,3169139100
42,24,14,Improv_Melody,136,5,42,110,3169189328
42,24,14,Improv_Melody,137,1,38,86,3169266552
42,24,14,Improv_Melody,138,1,38,48,3169377560
42,24,14,Improv_Melody,139,1,38,86,3169452780
42,24,14,Improv_Melody,140,1,38,68,3169604776
42,24,14,Improv_Melody,141,5,42,110,3169688812
42,24,14,Improv_Melody,142,1,38,52,3169811468
42,24,14,Improv_Melody,143,1,38,68,3170094052
42,24,14,Improv_Melody,144,1,38,77,3170108316
42,24,14,Improv_Melody,145,5,42,110,3170188692
42,24,14,Improv_Melody,146,1,38,98,3170364976
42,24,14,Improv_Melody,147,1,48,90,3170632304
42,24,14,Improv_Melody,148,1,38,21,3170641708
42,24,14,Improv_Melody,149,2,48,80,3170691824
42,24,14,Improv_Melody,150,2,72,80,3170694208
42,24,14,Improv_Melody,151,5,42,127,3170696592
42,24,14,Improv_Melody,152,1,38,111,3171126812
42,24,14,Improv_Melody,153,5,42,110,3171189308
42,24,14,Improv_Melody,154,1,48,40,3171407332
42,24,14,Improv_Melody,155,1,48,65,3171620208
42,24,14,Improv_Melody,156,5,42,110,3171688836
42,24,14,Improv_Melody,157,1,48,72,3171848296
42,24,14,Improv_Melody,158,1,38,127,3172119812
42,24,14,Improv_Melody,159,1,48,24,3172129816
42,24,14,Improv_Melody,160,1,38,51,3172152832
42,24,14,Improv_Melody,161,5,42,110,3172188476
42,24,14,Improv_Melody,162,1,48,68,3172401236
42,24,14,Improv_Melody,163,1,48,80,3172644928
42,24,14,Improv_Melody,164,5,42,127,3172689320
42,24,14,Improv_Melody,165,1,48,59,3172864632
42,24,14,Improv_Melody,166,1,38,100,3173125756
42,24,14,Improv_Melody,167,1,48,21,3173135684
42,24,14,Improv_Melody,168,1,48,28,3173161320
42,24,14,Improv_Melody,169,5,42,110,3173188884
42,24,14,Improv_Melody,170,1,48,56,3173427228
42,24,14,Improv_Melody,171,1,48,69,3173678620
42,24,14,Improv_Melody,172,1,38,18,3173688372
42,24,14,Improv_Melody,173,5,42,110,3173690608
42,24,14,Improv_Melody,174,1,48,59,3173887956
42,24,14,Improv_Melody,175,1,38,91,3174152144
42,24,14,Improv_Melody,176,1,48,20,3174162072
42,24,14,Improv_Melody,177,1,38,79,3174177088
42,24,14,Improv_Melody,178,5,42,110,3174189468
42,24,14,Improv_Melody,179,1,38,109,3174398264
42,24,14,Improv_Melody,180,1,38,100,3174537888
42,24,14,Improv_Melody,181,2,43,80,3174691528
42,24,14,Improv_Melody,182,2,67,80,3174693532
42,24,14,Improv_Melody,183,5,42,127,3174696444
42,24,14,Improv_Melody,184,1,48,94,3174743916
42,24,14,Improv_Melody,185,1,48,124,3175159076
42,24,14,Improv_Melody,186,1,38,107,3175188872
42,24,14,Improv_Melody,187,5,42,110,3175191784
42,24,14,Improv_Melody,188,1,38,81,3175656160
42,24,14,Improv_Melody,189,5,42,110,3175688540
42,24,14,Improv_Melody,190,1,48,116,3176142696
42,24,14,Improv_Melody,191,1,38,99,3176173268
42,24,14,Improv_Melody,192,5,42,110,3176189268
42,24,14,Improv_Melody,193,1,38,88,3176667336
42,24,14,Improv_Melody,194,5,42,127,3176689288
42,24,14,Improv_Melody,195,1,48,106,3177169796
42,24,14,Improv_Melody,196,5,42,110,3177188688
42,24,14,Improv_Melody,197,1,38,127,3177205520
42,24,14,Improv_Melody,198,1,38,90,3177686996
42,24,14,Improv_Melody,199,5,42,110,3177690152
42,24,14,Improv_Melody,200,1,48,91,3178180616
42,24,14,Improv_Melody,201,5,42,110,3178189328
42,24,14,Improv_Melody,202,1,38,77,3178215184
42,24,14,Improv_Melody,203,1,38,80,3178499716
42,24,14,Improv_Melody,204,1,38,73,3178599476
42,24,14,Improv_Melody,205,2,45,80,3178691248
42,24,14,Improv_Melody,206,2,69,80,3178693252
42,24,14,Improv_Melody,207,1,38,70,3178695624
42,24,14,Improv_Melody,208,5,42,127,3178699208
42,24,14,Improv_Melody,209,1,48,18,3178705544
42,24,14,Improv_Melody,210,5,42,110,3179188560
42,24,14,Improv_Melody,211,1,48,103,3179215092
42,24,14,Improv_Melody,212,1,38,72,3179676168
42,24,14,Improv_Melody,213,5,42,110,3179689296
42,24,14,Improv_Melody,214,1,38,73,3179695988
42,24,14,Improv_Melody,215,5,42,110,3180189056
42,24,14,Improv_Melody,216,1,48,97,3180209232
42,24,14,Improv_Melody,217,1,38,85,3180673524
42,24,14,Improv_Melody,218,5,42,127,3180689048
42,24,14,Improv_Melody,219,1,38,78,3180694320
42,24,14,Improv_Melody,220,1,48,105,3181187832
42,24,14,Improv_Melody,221,5,42,110,3181189548
42,24,14,Improv_Melody,222,1,38,93,3181684052
42,24,14,Improv_Melody,223,5,42,110,3181689248
42,24,14,Improv_Melody,224,1,38,76,3181707764
42,24,14,Improv_Melody,225,5,42,110,3182189008
42,24,14,Improv_Melody,226,1,48,87,3182203128
42,24,14,Improv_Melody,227,1,38,89,3182483096
42,24,14,Improv_Melody,228,1,48,20,3182493024
42,24,14,Improv_Melody,229,1,38,79,3182591460
42,24,14,Improv_Melody,230,1,48,19,3182601012
42,24,14,Improv_Melody,231,1,38,100,3182656940
42,24,14,Improv_Melody,232,1,48,21,3182667316
42,24,14,Improv_Melody,233,2,41,80,3182691180
42,24,14,Improv_Melody,234,2,65,80,3182693252
42,24,14,Improv_Melody,235,5,42,127,3182696016
42,24,14,Improv_Melody,236,5,42,110,3183189412
42,24,14,Improv_Melody,237,1,48,86,3183203452
42,24,14,Improv_Melody,238,1,38,94,3183674484
42,24,14,Improv_Melody,239,5,42,110,3183689032
42,24,14,Improv_Melody,240,1,38,81,3183690880
42,24,14,Improv_Melody,241,5,42,110,3184189012
42,24,14,Improv_Melody,242,1,48,62,3184222576
42,24,14,Improv_Melody,243,5,42,127,3184688492
42,24,14,Improv_Melody,244,1,38,75,3184697816
42,24,14,Improv_Melody,245,5,42,110,3185189236
42,24,14,Improv_Melody,246,1,38,62,3185219956
42,24,14,Improv_Melody,247,5,42,110,3185688936
42,24,14,Improv_Melody,248,1,38,75,3185701628
42,24,14,Improv_Melody,249,1,38,60,3186187884
42,24,14,Improv_Melody,250,5,42,110,3186190648
42,24,14,Improv_Melody,251,1,38,95,3186687288
42,24,14,Improv_Melody,252,2,48,80,3186692856
42,24,14,Improv_Melody,253,2,72,80,3186694780
42,24,14,Improv_Melody,254,5,42,127,3186697396
42,24,14,Improv_Melody,255,1,38,82,3186700948
42,24,14,Improv_Melody,256,5,42,110,3187189224
42,24,14,Improv_Melody,257,1,38,80,3187667856
42,24,14,Improv_Melody,258,1,48,20,3187677564
42,24,14,Improv_Melody,259,1,38,81,3187683896
42,24,14,Improv_Melody,260,5,42,110,3187689020
42,24,14,Improv_Melody,261,5,42,110,3188188628
42,24,14,Improv_Melody,262,1,38,95,3188668404
42,24,14,Improv_Melody,263,5,42,127,3188689240
42,24,14,Improv_Melody,264,5,42,110,3189189020
42,24,14,Improv_Melody,265,1,38,79,3189675532
42,24,14,Improv_Melody,266,5,42,110,3189688884
42,24,14,Improv_Melody,267,1,38,59,3189698272
42,24,14,Improv_Melody,268,1,38,86,3190174312
42,24,14,Improv_Melody,269,1,48,20,3190184316
42,24,14,Improv_Melody,270,5,42,110,3190189444
42,24,14,Improv_Melody,271,1,38,80,3190462864
42,24,14,Improv_Melody,272,1,48,19,3190472268
42,24,14,Improv_Melody,273,1,38,87,3190526944
42,24,14,Improv_Melody,274,1,48,19,3190537252
42,24,14,Improv_Melody,275,1,38,102,3190665480
42,24,14,Improv_Melody,276,2,43,80,3190691888
42,24,14,Improv_Melody,277,2,67,80,3190694184
42,24,14,Improv_Melody,278,5,42,127,3190696792
42,24,14,Improv_Melody,279,5,42,110,3191189020
42,24,14,Improv_Melody,280,1,48,88,3191221688
42,24,14,Improv_Melody,281,1,38,90,3191666384
42,24,14,Improv_Melody,282,1,48,21,3191675716
42,24,14,Improv_Melody,283,5,42,110,3191688696
42,24,14,Improv_Melody,284,1,48,83,3192172248
42,24,14,Improv_Melody,285,5,42,110,3192189268
42,24,14,Improv_Melody,286,1,38,105,3192678080
42,24,14,Improv_Melody,287,1,48,21,3192687896
42,24,14,Improv_Melody,288,5,42,127,3192689996
42,24,14,Improv_Melody,289,1,38,88,3192694820
42,24,14,Improv_Melody,290,5,42,110,3193188756
42,24,14,Improv_Melody,291,1,48,76,3193197036
42,24,14,Improv_Melody,292,5,42,110,3193688304
42,24,14,Improv_Melody,293,1,38,101,3193693520
42,24,14,Improv_Melody,294,1,48,21,3193703524
42,24,14,Improv_Melody,295,1,38,85,3193709860
42,24,14,Improv_Melody,296,1,48,94,3194184976
42,24,14,Improv_Melody,297,5,42,110,3194189204
42,24,14,Improv_Melody,298,1,38,96,3194467212
42,24,14,Improv_Melody,299,1,48,21,3194477144
42,24,14,Improv_Melody,300,1,38,83,3194583976
42,24,14,Improv_Melody,301,1,38,127,3194662968
42,24,14,Improv_Melody,302,2,45,80,3194691696
42,24,14,Improv_Melody,303,2,69,80,3194693540
42,24,14,Improv_Melody,304,5,42,127,3194696004
42,24,14,Improv_Melody,305,5,42,110,3195188756
42,24,14,Improv_Melody,306,1,48,106,3195231964
42,24,14,Improv_Melody,307,1,38,21,3195242044
42,24,14,Improv_Melody,308,1,38,103,3195677660
42,24,14,Improv_Melody,309,1,48,22,3195688004
42,24,14,Improv_Melody,310,5,42,110,3195690100
42,24,14,Improv_Melody,311,1,48,80,3196186516
42,24,14,Improv_Melody,312,5,42,110,3196189024
42,24,14,Improv_Melody,313,5,42,127,3196688732
42,24,14,Improv_Melody,314,1,38,119,3196692372
42,24,14,Improv_Melody,315,1,38,86,3196709184
42,24,14,Improv_Melody,316,5,42,110,3197188636
42,24,14,Improv_Melody,317,1,48,85,3197210756
42,24,14,Improv_Melody,318,5,42,110,3197689160
42,24,14,Improv_Melody,319,1,38,111,3197694224
42,24,14,Improv_Melody,320,1,38,80,3197710508
42,24,14,Improv_Melody,321,1,48,84,3198172388
42,24,14,Improv_Melody,322,5,42,110,3198188880
42,24,14,Improv_Melody,323,1,38,107,3198467440
42,24,14,Improv_Melody,324,1,48,22,3198477292
42,24,14,Improv_Melody,325,1,38,65,3198584724
42,24,14,Improv_Melody,326,1,38,104,3198671620
42,24,14,Improv_Melody,327,1,48,21,3198680728
42,24,14,Improv_Melody,328,2,41,80,3198691504
42,24,14,Improv_Melody,329,2,65,80,3198693504
42,24,14,Improv_Melody,330,5,42,127,3198695888
42,24,14,Improv_Melody,331,1,48,98,3199177872
42,24,14,Improv_Melody,332,1,38,21,3199187980
42,24,14,Improv_Melody,333,5,42,110,3199190680
42,24,14,Improv_Melody,334,1,38,96,3199664208
42,24,14,Improv_Melody,335,5,42,110,3199689004
42,24,14,Improv_Melody,336,1,48,75,3200177968
42,24,14,Improv_Melody,337,5,42,110,3200188704
42,24,14,Improv_Melody,338,1,38,83,3200663980
42,24,14,Improv_Melody,339,5,42,127,3200688552
42,24,14,Improv_Melody,340,1,38,72,3200697940
42,24,14,Improv_Melody,341,1,38,81,3201177196
42,24,14,Improv_Melody,342,5,42,110,3201189352
42,24,14,Improv_Melody,343,1,38,94,3201680488
42,24,14,Improv_Melody,344,5,42,110,3201688828
42,24,14,Improv_Melody,345,5,42,110,3202188536
42,24,14,Improv_Melody,346,1,38,90,3202206612
42,24,14,Improv_Melody,347,1,38,77,3202228804
42,24,14,Improv_Melody,348,2,48,80,3202691760
42,24,14,Improv_Melody,349,2,72,80,3202694064
42,24,14,Improv_Melody,350,5,42,127,3202696604
42,24,14,Improv_Melody,351,1,48,91,3202709672
42,24,14,Improv_Melody,352,1,38,23,3202719000
42,24,14,Improv_Melody,353,1,38,110,3203189668
42,24,14,Improv_Melody,354,5,42,110,3203192060
42,24,14,Improv_Melody,355,1,48,23,3203199740
42,24,14,Improv_Melody,356,1,38,76,3203212364
42,24,14,Improv_Melody,357,1,48,89,3203672220
42,24,14,Improv_Melody,358,1,38,22,3203681772
42,24,14,Improv_Melody,359,5,42,110,3203688840
42,24,14,Improv_Melody,360,1,38,108,3204188068
42,24,14,Improv_Melody,361,5,42,110,3204191052
42,24,14,Improv_Melody,362,1,48,22,3204198212
42,24,14,Improv_Melody,363,1,38,90,3204205520
42,24,14,Improv_Melody,364,5,42,127,3204689288
42,24,14,Improv_Melody,365,1,48,104,3204694500
42,24,14,Improv_Melody,366,1,38,24,3204703904
42,24,14,Improv_Melody,367,5,42,110,3205188940
42,24,14,Improv_Melody,368,1,38,101,3205206048
42,24,14,Improv_Melody,369,1,48,21,3205215676
42,24,14,Improv_Melody,370,5,42,110,3205688820
42,24,14,Improv_Melody,371,1,48,92,3205704500
42,24,14,Improv_Melody,372,1,38,20,3205713988
42,24,14,Improv_Melody,373,5,42,110,3206189372
42,24,14,Improv_Melody,374,1,38,79,3206196604
42,24,14,Improv_Melody,375,1,38,75,3206220968
42,24,14,Improv_Melody,376,1,48,108,3206433020
42,24,14,Improv_Melody,377,1,38,22,3206442944
42,24,14,Improv_Melody,378,1,38,101,3206668364
42,24,14,Improv_Melody,379,1,48,22,3206678288
42,24,14,Improv_Melody,380,2,43,80,3206691912
42,24,14,Improv_Melody,381,2,67,80,3206694280
42,24,14,Improv_Melody,382,5,42,127,3206696740
42,24,14,Improv_Melody,383,5,42,110,3207188720
42,24,14,Improv_Melody,384,1,38,85,3207207840
42,24,14,Improv_Melody,385,1,48,20,3207217252
42,24,14,Improv_Melody,386,1,38,90,3207224708
42,24,14,Improv_Melody,387,5,42,110,3207688496
42,24,14,Improv_Melody,388,1,48,86,3207700140
42,24,14,Improv_Melody,389,5,42,110,3208189392
42,24,14,Improv_Melody,390,1,38,108,3208215252
42,24,14,Improv_Melody,391,1,48,22,3208225104
42,24,14,Improv_Melody,392,1,38,90,3208234208
42,24,14,Improv_Melody,393,1,48,100,3208688172
42,24,14,Improv_Melody,394,5,42,127,3208689816
42,24,14,Improv_Melody,395,5,42,110,3209188848
42,24,14,Improv_Melody,396,1,38,108,3209201168
42,24,14,Improv_Melody,397,1,38,74,3209222636
42,24,14,Improv_Melody,398,5,42,110,3209688376
42,24,14,Improv_Melody,399,1,48,93,3209703088
42,24,14,Improv_Melody,400,5,42,110,3210189344
42,24,14,Improv_Melody,401,1,38,67,3210192020
42,24,14,Improv_Melody,402,1,38,82,3210209868
42,24,14,Improv_Melody,403,1,38,109,3210443612
42,24,14,Improv_Melody,404,1,38,85,3210686184
42,24,14,Improv_Melody,405,2,45,80,3210691344
42,24,14,Improv_Melody,406,2,69,80,3210693424
42,24,14,Improv_Melody,407,5,42,127,3210696112
42,24,14,Improv_Melody,408,1,48,105,3211161892
42,24,14,Improv_Melody,409,1,38,99,3211177576
42,24,14,Improv_Melody,410,5,42,110,3211188612
42,24,14,Improv_Melody,411,1,38,48,3211683160
42,24,14,Improv_Melody,412,5,42,110,3211689256
42,24,14,Improv_Melody,413,1,48,105,3212163188
42,24,14,Improv_Melody,414,5,42,110,3212189032
42,24,14,Improv_Melody,415,1,38,115,3212200672
42,24,14,Improv_Melody,416,1,38,76,3212679020
42,24,14,Improv_Melody,417,5,42,127,3212688636
42,24,14,Improv_Melody,418,1,48,112,3213166080
42,24,14,Improv_Melody,419,5,42,110,3213188484
42,24,14,Improv_Melody,420,1,38,125,3213207760
42,24,14,Improv_Melody,421,1,38,76,3213681916
42,24,14,Improv_Melody,422,5,42,110,3213689132
42,24,14,Improv_Melody,423,5,42,110,3214188988
42,24,14,Improv_Melody,424,1,48,121,3214190548
42,24,14,Improv_Melody,425,1,38,122,3214230472
42,24,14,Improv_Melody,426,1,38,100,3214686948
42,24,14,Improv_Melody,427,2,41,80,3214692812
42,24,14,Improv_Melody,428,2,65,80,3214694888
42,24,14,Improv_Melody,429,1,48,21,3214697276
42,24,14,Improv_Melody,430,5,42,127,3214698916
42,24,14,Improv_Melody,431,1,38,106,3214712116
42,24,14,Improv_Melody,432,5,42,110,3215189224
42,24,14,Improv_Melody,433,1,38,72,3215197208
42,24,14,Improv_Melody,434,1,38,91,3215210344
42,24,14,Improv_Melody,435,1,38,98,3215687232
42,24,14,Improv_Melody,436,5,42,110,3215690460
42,24,14,Improv_Melody,437,1,48,21,3215696948
42,24,14,Improv_Melody,438,1,38,85,3215704704
42,24,14,Improv_Melody,439,1,38,97,3216181320
42,24,14,Improv_Melody,440,5,42,110,3216188984
42,24,14,Improv_Melody,441,1,48,21,3216191428
42,24,14,Improv_Melody,442,1,38,84,3216205392
42,24,14,Improv_Melody,443,1,38,83,3216612720
42,24,14,Improv_Melody,444,1,48,20,3216622724
42,24,14,Improv_Melody,445,5,42,127,3216688384
42,24,14,Improv_Melody,446,1,38,73,3216741196
42,24,14,Improv_Melody,447,1,38,68,3216857932
42,24,14,Improv_Melody,448,1,38,76,3216999680
42,24,14,Improv_Melody,449,1,38,88,3217095172
42,24,14,Improv_Melody,450,5,42,110,3217190364
42,24,14,Improv_Melody,451,1,38,85,3217233724
42,24,14,Improv_Melody,452,1,48,20,3217242308
42,24,14,Improv_Melody,453,1,38,84,3217319700
42,24,14,Improv_Melody,454,1,48,20,3217329480
42,24,14,Improv_Melody,455,1,38,84,3217451748
42,24,14,Improv_Melody,456,1,48,21,3217460176
42,24,14,Improv_Melody,457,1,38,101,3217546924
42,24,14,Improv_Melody,458,1,48,21,3217557148
42,24,14,Improv_Melody,459,1,38,101,3217654900
42,24,14,Improv_Melody,460,1,48,23,3217663776
42,24,14,Improv_Melody,461,5,42,110,3217689172
42,24,14,Improv_Melody,462,1,38,103,3217781184
42,24,14,Improv_Melody,463,1,48,22,3217791116
42,24,14,Improv_Melody,464,1,38,93,3217895484
42,24,14,Improv_Melody,465,1,48,22,3217904888
42,24,14,Improv_Melody,466,1,38,124,3217984924
42,24,14,Improv_Melody,467,1,48,24,3217995372
42,24,14,Improv_Melody,468,1,38,95,3218102956
42,24,14,Improv_Melody,469,1,48,24,3218111840
42,24,14,Improv_Melody,470,5,42,110,3218188720
42,24,14,Improv_Melody,471,1,38,126,3218196984
42,24,14,Improv_Melody,472,1,48,24,3218207580
42,24,14,Improv_Melody,473,1,38,112,3218277428
42,24,14,Improv_Melody,474,1,48,127,3218502168
42,24,14,Improv_Melody,475,2,48,80,3218692088
42,24,14,Improv_Melody,476,2,72,80,3218694168
42,24,14,Improv_Melody,477,5,42,127,3218696776
42,24,14,Improv_Melody,478,1,38,127,3219002252
42,24,14,Improv_Melody,479,5,42,110,3219189148
42,24,14,Improv_Melody,480,1,48,86,3219492752
42,24,14,Improv_Melody,0,9999,9999,9999,3138687044
42,24,14,Improv_Melody,1,9999,9999,9999,3139186800
42,24,14,Improv_Melody,2,9999,9999,9999,3139686520
42,24,14,Improv_Melody,3,9999,9999,9999,3140186168
42,24,14,Improv_Melody,4,9999,9999,9999,3140686936
42,24,14,Improv_Melody,5,9999,9999,9999,3141186656
42,24,14,Improv_Melody,6,9999,9999,9999,3141686380
42,24,14,Improv_Melody,7,9999,9999,9999,3142187072
42,24,14,Improv_Melody,8,9999,9999,9999,3142686796
42,24,14,Improv_Melody,9,9999,9999,9999,3143186528
42,24,14,Improv_Melody,10,9999,9999,9999,3143686252
42,24,14,Improv_Melody,11,9999,9999,9999,3144186948
42,24,14,Improv_Melody,12,9999,9999,9999,3144686648
42,24,14,Improv_Melody,13,9999,9999,9999,3145186368
42,24,14,Improv_Melody,14,9999,9999,9999,3145686088
42,24,14,Improv_Melody,15,9999,9999,9999,3146186856
42,24,14,Improv_Melody,16,9999,9999,9999,3146686580
42,24,14,Improv_Melody,17,9999,9999,9999,3147186240
42,24,14,Improv_Melody,18,9999,9999,9999,3147687008
42,24,14,Improv_Melody,19,9999,9999,9999,3148186728
42,24,14,Improv_Melody,20,9999,9999,9999,3148686452
42,24,14,Improv_Melody,21,9999,9999,9999,3149186096
42,24,14,Improv_Melody,22,9999,9999,9999,3149686868
42,24,14,Improv_Melody,23,9999,9999,9999,3150186588
42,24,14,Improv_Melody,24,9999,9999,9999,3150686308
42,24,14,Improv_Melody,25,9999,9999,9999,3151187016
42,24,14,Improv_Melody,26,9999,9999,9999,3151686740
42,24,14,Improv_Melody,27,9999,9999,9999,3152186460
42,24,14,Improv_Melody,28,9999,9999,9999,3152686184
42,24,14,Improv_Melody,29,9999,9999,9999,3153186876
42,24,14,Improv_Melody,30,9999,9999,9999,3153686600
42,24,14,Improv_Melody,31,9999,9999,9999,3154186348
42,24,14,Improv_Melody,32,9999,9999,9999,3154687072
42,24,14,Improv_Melody,33,9999,9999,9999,3155186768
42,24,14,Improv_Melody,34,9999,9999,9999,3155686492
42,24,14,Improv_Melody,35,9999,9999,9999,3156186220
42,24,14,Improv_Melody,36,9999,9999,9999,3156686968
42,24,14,Improv_Melody,37,9999,9999,9999,3157186620
42,24,14,Improv_Melody,38,9999,9999,9999,3157686344
42,24,14,Improv_Melody,39,9999,9999,9999,3158187112
42,24,14,Improv_Melody,40,9999,9999,9999,3158686776
42,24,14,Improv_Melody,41,9999,9999,9999,3159186504
42,24,14,Improv_Melody,42,9999,9999,9999,3159686204
42,24,14,Improv_Melody,43,9999,9999,9999,3160186932
42,24,14,Improv_Melody,44,9999,9999,9999,3160686712
42,24,14,Improv_Melody,45,9999,9999,9999,3161186412
42,24,14,Improv_Melody,46,9999,9999,9999,3161686112
42,24,14,Improv_Melody,47,9999,9999,9999,3162186856
42,24,14,Improv_Melody,48,9999,9999,9999,3162686536
42,24,14,Improv_Melody,49,9999,9999,9999,3163186232
42,24,14,Improv_Melody,50,9999,9999,9999,3163687008
42,24,14,Improv_Melody,51,9999,9999,9999,3164186708
42,24,14,Improv_Melody,52,9999,9999,9999,3164686432
42,24,14,Improv_Melody,53,9999,9999,9999,3165186136
42,24,14,Improv_Melody,54,9999,9999,9999,3165686880
42,24,14,Improv_Melody,55,9999,9999,9999,3166186612
42,24,14,Improv_Melody,56,9999,9999,9999,3166686284
42,24,14,Improv_Melody,57,9999,9999,9999,3167187020
42,24,14,Improv_Melody,58,9999,9999,9999,3167686776
42,24,14,Improv_Melody,59,9999,9999,9999,3168186452
42,24,14,Improv_Melody,60,9999,9999,9999,3168686184
42,24,14,Improv_Melody,61,9999,9999,9999,3169186888
42,24,14,Improv_Melody,62,9999,9999,9999,3169686596
42,24,14,Improv_Melody,63,9999,9999,9999,3170186324
42,24,14,Improv_Melody,64,9999,9999,9999,3170687032
42,24,14,Improv_Melody,65,9999,9999,9999,3171186792
42,24,14,Improv_Melody,66,9999,9999,9999,3171686468
42,24,14,Improv_Melody,67,9999,9999,9999,3172186184
42,24,14,Improv_Melody,68,9999,9999,9999,3172686956
42,24,14,Improv_Melody,69,9999,9999,9999,3173186664
42,24,14,Improv_Melody,70,9999,9999,9999,3173686392
42,24,14,Improv_Melody,71,9999,9999,9999,3174187100
42,24,14,Improv_Melody,72,9999,9999,9999,3174686812
42,24,14,Improv_Melody,73,9999,9999,9999,3175186520
42,24,14,Improv_Melody,74,9999,9999,9999,3175686244
42,24,14,Improv_Melody,75,9999,9999,9999,3176186976
42,24,14,Improv_Melody,76,9999,9999,9999,3176686700
42,24,14,Improv_Melody,77,9999,9999,9999,3177186396
42,24,14,Improv_Melody,78,9999,9999,9999,3177686072
42,24,14,Improv_Melody,79,9999,9999,9999,3178186812
42,24,14,Improv_Melody,80,9999,9999,9999,3178686532
42,24,14,Improv_Melody,81,9999,9999,9999,3179186268
42,24,14,Improv_Melody,82,9999,9999,9999,3179687008
42,24,14,Improv_Melody,83,9999,9999,9999,3180186692
42,24,14,Improv_Melody,84,9999,9999,9999,3180686456
42,24,14,Improv_Melody,85,9999,9999,9999,3181186140
42,24,14,Improv_Melody,86,9999,9999,9999,3181686884
42,24,14,Improv_Melody,87,9999,9999,9999,3182186568
42,24,14,Improv_Melody,88,9999,9999,9999,3182686308
42,24,14,Improv_Melody,89,9999,9999,9999,3183187044
42,24,14,Improv_Melody,90,9999,9999,9999,3183686740
42,24,14,Improv_Melody,91,9999,9999,9999,3184186424
42,24,14,Improv_Melody,92,9999,9999,9999,3184686200
42,24,14,Improv_Melody,93,9999,9999,9999,3185186868
42,24,14,Improv_Melody,94,9999,9999,9999,3185686644
42,24,14,Improv_Melody,95,9999,9999,9999,3186186344
42,24,14,Improv_Melody,96,9999,9999,9999,3186687048
42,24,14,Improv_Melody,97,9999,9999,9999,3187186760
42,24,14,Improv_Melody,98,9999,9999,9999,3187686508
42,24,14,Improv_Melody,99,9999,9999,9999,3188186188
42,24,14,Improv_Melody,100,9999,9999,9999,3188686948
42,24,14,Improv_Melody,101,9999,9999,9999,3189186656
42,24,14,Improv_Melody,102,9999,9999,9999,3189686372
42,24,14,Improv_Melody,103,9999,9999,9999,3190187076
42,24,14,Improv_Melody,104,9999,9999,9999,3190686788
42,24,14,Improv_Melody,105,9999,9999,9999,3191186508
42,24,14,Improv_Melody,106,9999,9999,9999,3191686256
42,24,14,Improv_Melody,107,9999,9999,9999,3192186976
42,24,14,Improv_Melody,108,9999,9999,9999,3192686676
42,24,14,Improv_Melody,109,9999,9999,9999,3193186388
42,24,14,Improv_Melody,110,9999,9999,9999,3193686088
42,24,14,Improv_Melody,111,9999,9999,9999,3194186836
42,24,14,Improv_Melody,112,9999,9999,9999,3194686520
42,24,14,Improv_Melody,113,9999,9999,9999,3195186240
42,24,14,Improv_Melody,114,9999,9999,9999,3195687004
42,24,14,Improv_Melody,115,9999,9999,9999,3196186736
42,24,14,Improv_Melody,116,9999,9999,9999,3196686440
42,24,14,Improv_Melody,117,9999,9999,9999,3197186120
42,24,14,Improv_Melody,118,9999,9999,9999,3197686868
42,24,14,Improv_Melody,119,9999,9999,9999,3198186592
42,24,14,Improv_Melody,120,9999,9999,9999,3198686328
42,24,14,Improv_Melody,121,9999,9999,9999,3199187060
42,24,14,Improv_Melody,122,9999,9999,9999,3199686712
42,24,14,Improv_Melody,123,9999,9999,9999,3200186488
42,24,14,Improv_Melody,124,9999,9999,9999,3200686188
42,24,14,Improv_Melody,125,9999,9999,9999,3201186912
42,24,14,Improv_Melody,126,9999,9999,9999,3201686612
42,24,14,Improv_Melody,127,9999,9999,9999,3202186320
42,24,14,Improv_Melody,128,9999,9999,9999,3202687044
42,24,14,Improv_Melody,129,9999,9999,9999,3203186784
42,24,14,Improv_Melody,130,9999,9999,9999,3203686476
42,24,14,Improv_Melody,131,9999,9999,9999,3204186228
42,24,14,Improv_Melody,132,9999,9999,9999,3204686920
42,24,14,Improv_Melody,133,9999,9999,9999,3205186648
42,24,14,Improv_Melody,134,9999,9999,9999,3205686376
42,24,14,Improv_Melody,135,9999,9999,9999,3206187080
42,24,14,Improv_Melody,136,9999,9999,9999,3206686808
42,24,14,Improv_Melody,137,9999,9999,9999,3207186500
42,24,14,Improv_Melody,138,9999,9999,9999,3207686204
42,24,14,Improv_Melody,139,9999,9999,9999,3208186952
42,24,14,Improv_Melody,140,9999,9999,9999,3208686708
42,24,14,Improv_Melody,141,9999,9999,9999,3209186408
42,24,14,Improv_Melody,142,9999,9999,9999,3209686084
42,24,14,Improv_Melody,143,9999,9999,9999,3210186832
42,24,14,Improv_Melody,144,9999,9999,9999,3210686552
42,24,14,Improv_Melody,145,9999,9999,9999,3211186248
42,24,14,Improv_Melody,146,9999,9999,9999,3211686964
42,24,14,Improv_Melody,147,9999,9999,9999,3212186740
42,24,14,Improv_Melody,148,9999,9999,9999,3212686420
42,24,14,Improv_Melody,149,9999,9999,9999,3213186116
42,24,14,Improv_Melody,150,9999,9999,9999,3213686840
42,24,14,Improv_Melody,151,9999,9999,9999,3214186548
42,24,14,Improv_Melody,152,9999,9999,9999,3214686308
42,24,14,Improv_Melody,153,9999,9999,9999,3215187004
42,24,14,Improv_Melody,154,9999,9999,9999,3215686776
42,24,14,Improv_Melody,155,9999,9999,9999,3216186468
42,24,14,Improv_Melody,156,9999,9999,9999,3216686168
42,24,14,Improv_Melody,157,9999,9999,9999,3217186892
42,24,14,Improv_Melody,158,9999,9999,9999,3217686584
42,24,14,Improv_Melody,159,9999,9999,9999,3218186356
42,24,14,Improv_Melody,160,9999,9999,9999,3218687068
42,24,14,Improv_Melody,161,9999,9999,9999,3219186780
