pid,taskRunCount,taskID,taskName,i,channel,pitch,velocity,microseconds
1,0,Ticks_Pract_8,0,5,42,127,9631008
551,0,Ticks_Pract_8,1,5,42,127,10430836
551,0,Ticks_Pract_8,2,5,42,127,11230816
551,0,Ticks_Pract_8,3,5,42,127,12031468
551,0,Ticks_Pract_8,4,1,48,60,12783460
551,0,Ticks_Pract_8,5,5,42,127,12830996
551,0,Ticks_Pract_8,6,1,48,61,13576240
551,0,Ticks_Pract_8,7,5,42,127,13630676
551,0,Ticks_Pract_8,8,1,48,71,14421548
551,0,Ticks_Pract_8,9,5,42,127,14430784
551,0,Ticks_Pract_8,10,1,48,48,14452584
551,0,Ticks_Pract_8,11,5,42,127,15231400
551,0,Ticks_Pract_8,12,1,48,65,15249852
551,0,Ticks_Pract_8,13,1,48,43,15286632
551,0,Ticks_Pract_8,14,5,42,127,16031036
551,0,Ticks_Pract_8,15,1,48,59,16042904
551,0,Ticks_Pract_8,16,1,48,39,16085444
551,0,Ticks_Pract_8,17,5,42,127,16830820
551,0,Ticks_Pract_8,18,1,48,65,16841568
551,0,Ticks_Pract_8,19,1,48,48,16876708
551,0,Ticks_Pract_8,20,5,42,127,17630532
551,0,Ticks_Pract_8,21,1,48,69,17678680
551,0,Ticks_Pract_8,22,1,48,47,17716232
551,0,Ticks_Pract_8,23,1,48,71,18418912
551,0,Ticks_Pract_8,24,5,42,127,18431432
551,0,Ticks_Pract_8,25,1,48,46,18455400
551,0,Ticks_Pract_8,26,5,42,127,19231076
551,0,Ticks_Pract_8,27,1,48,63,19285900
551,0,Ticks_Pract_8,28,1,48,47,19316100
551,0,Ticks_Pract_8,29,1,48,63,20019256
551,0,Ticks_Pract_8,30,5,42,127,20030804
551,0,Ticks_Pract_8,31,1,48,43,20062556
551,0,Ticks_Pract_8,32,1,48,60,20817396
551,0,Ticks_Pract_8,33,5,42,127,20830520
551,0,Ticks_Pract_8,34,1,48,34,20871248
551,0,Ticks_Pract_8,35,1,48,57,21526348
551,0,Ticks_Pract_8,36,5,42,127,21631412
551,0,Ticks_Pract_8,37,1,48,43,22372256
551,0,Ticks_Pract_8,38,5,42,127,22430936
551,0,Ticks_Pract_8,39,1,48,49,23147836
551,0,Ticks_Pract_8,40,1,48,33,23185284
551,0,Ticks_Pract_8,41,5,42,127,23230872
551,0,Ticks_Pract_8,42,1,48,63,23916500
551,0,Ticks_Pract_8,43,1,48,39,23964428
551,0,Ticks_Pract_8,44,5,42,127,24030512
551,0,Ticks_Pract_8,45,1,48,58,24745388
551,0,Ticks_Pract_8,46,1,48,39,24786956
551,0,Ticks_Pract_8,47,5,42,127,24831492
551,0,Ticks_Pract_8,48,1,48,65,25543980
551,0,Ticks_Pract_8,49,1,48,42,25584652
551,0,Ticks_Pract_8,50,5,42,127,25631208
551,0,Ticks_Pract_8,51,1,48,70,26329112
551,0,Ticks_Pract_8,52,1,48,44,26371644
551,0,Ticks_Pract_8,53,5,42,127,26430796
551,0,Ticks_Pract_8,54,1,48,56,27163152
551,0,Ticks_Pract_8,55,1,48,37,27200032
551,0,Ticks_Pract_8,56,5,42,127,27230508
551,0,Ticks_Pract_8,57,1,48,63,27940200
551,0,Ticks_Pract_8,58,1,48,44,27978052
551,0,Ticks_Pract_8,59,5,42,127,28031416
551,0,Ticks_Pract_8,60,1,48,72,28782872
551,0,Ticks_Pract_8,61,1,48,46,28823460
551,0,Ticks_Pract_8,62,5,42,127,28831200
551,0,Ticks_Pract_8,63,1,48,59,29626864
551,0,Ticks_Pract_8,64,5,42,127,29630784
551,0,Ticks_Pract_8,65,1,48,39,29667320
551,0,Ticks_Pract_8,66,1,48,56,30403160
551,0,Ticks_Pract_8,67,5,42,127,30430644
551,0,Ticks_Pract_8,68,1,48,38,30437792
551,0,Ticks_Pract_8,69,1,48,62,31208636
551,0,Ticks_Pract_8,70,5,42,127,31231404
551,0,Ticks_Pract_8,71,1,48,40,31251336
551,0,Ticks_Pract_8,72,1,48,60,32016424
551,0,Ticks_Pract_8,73,5,42,127,32031264
551,0,Ticks_Pract_8,74,1,48,40,32053768
551,0,Ticks_Pract_8,75,1,48,56,32767220
551,0,Ticks_Pract_8,76,1,48,38,32805192
551,0,Ticks_Pract_8,77,5,42,127,32830828
551,0,Ticks_Pract_8,78,1,48,54,33584900
551,0,Ticks_Pract_8,0,9999,9999,9999,9628720
551,0,Ticks_Pract_8,1,9999,9999,9999,10428476
551,0,Ticks_Pract_8,2,9999,9999,9999,11228228
551,0,Ticks_Pract_8,3,9999,9999,9999,12029032
551,0,Ticks_Pract_8,4,9999,9999,9999,12828780
551,0,Ticks_Pract_8,5,9999,9999,9999,13628464
551,0,Ticks_Pract_8,6,9999,9999,9999,14428272
551,0,Ticks_Pract_8,7,9999,9999,9999,15229036
551,0,Ticks_Pract_8,8,9999,9999,9999,16028748
551,0,Ticks_Pract_8,9,9999,9999,9999,16828532
551,0,Ticks_Pract_8,10,9999,9999,9999,17628244
551,0,Ticks_Pract_8,11,9999,9999,9999,18428996
551,0,Ticks_Pract_8,12,9999,9999,9999,19228788
551,0,Ticks_Pract_8,13,9999,9999,9999,20028516
551,0,Ticks_Pract_8,14,9999,9999,9999,20828232
551,0,Ticks_Pract_8,15,9999,9999,9999,21628972
551,0,Ticks_Pract_8,16,9999,9999,9999,22428724
551,0,Ticks_Pract_8,17,9999,9999,9999,23228508
551,0,Ticks_Pract_8,18,9999,9999,9999,24028224
551,0,Ticks_Pract_8,19,9999,9999,9999,24828980
551,0,Ticks_Pract_8,20,9999,9999,9999,25628768
551,0,Ticks_Pract_8,21,9999,9999,9999,26428508
551,0,Ticks_Pract_8,22,9999,9999,9999,27228220
551,0,Ticks_Pract_8,23,9999,9999,9999,28028980
551,0,Ticks_Pract_8,24,9999,9999,9999,28828764
551,0,Ticks_Pract_8,25,9999,9999,9999,29628500
551,0,Ticks_Pract_8,26,9999,9999,9999,30428208
551,0,Ticks_Pract_8,27,9999,9999,9999,31229044
551,0,Ticks_Pract_8,28,9999,9999,9999,32028756
551,0,Ticks_Pract_8,29,9999,9999,9999,32828468
552,4,T1_SMS_5,0,5,42,127,121755036
552,4,T1_SMS_5,1,5,42,127,122254824
552,4,T1_SMS_5,2,1,48,54,122710152
552,4,T1_SMS_5,3,5,42,127,122754612
552,4,T1_SMS_5,4,1,48,70,123166816
552,4,T1_SMS_5,5,1,48,38,123213560
552,4,T1_SMS_5,6,5,42,127,123255112
552,4,T1_SMS_5,7,1,48,83,123656240
552,4,T1_SMS_5,8,5,42,127,123754804
552,4,T1_SMS_5,9,1,48,68,124138428
552,4,T1_SMS_5,10,5,42,127,124254632
552,4,T1_SMS_5,11,1,48,80,124606256
552,4,T1_SMS_5,12,1,48,54,124643260
552,4,T1_SMS_5,13,5,42,127,124755352
552,4,T1_SMS_5,14,1,48,82,125096508
552,4,T1_SMS_5,15,1,48,51,125131868
552,4,T1_SMS_5,16,5,42,127,125254952
552,4,T1_SMS_5,17,1,48,65,125643160
552,4,T1_SMS_5,18,5,42,127,125754800
552,4,T1_SMS_5,19,1,48,79,126110536
552,4,T1_SMS_5,20,1,48,55,126141488
552,4,T1_SMS_5,21,5,42,127,126254324
552,4,T1_SMS_5,22,1,48,73,126608796
552,4,T1_SMS_5,23,1,48,46,126649464
552,4,T1_SMS_5,24,5,42,127,126755632
552,4,T1_SMS_5,25,1,48,83,127103820
552,4,T1_SMS_5,26,1,48,51,127139628
552,4,T1_SMS_5,27,5,42,127,127254840
552,4,T1_SMS_5,28,1,48,74,127568268
552,4,T1_SMS_5,29,1,48,55,127599288
552,4,T1_SMS_5,30,5,42,127,127754588
552,4,T1_SMS_5,31,1,48,81,128051036
552,4,T1_SMS_5,32,1,48,51,128082656
552,4,T1_SMS_5,33,5,42,127,128255232
552,4,T1_SMS_5,34,1,48,78,128519348
552,4,T1_SMS_5,35,1,48,51,128548744
552,4,T1_SMS_5,36,5,42,127,128754980
552,4,T1_SMS_5,37,1,48,66,128976680
552,4,T1_SMS_5,38,1,48,43,129008152
552,4,T1_SMS_5,39,5,42,127,129254800
552,4,T1_SMS_5,40,1,48,69,129472240
552,4,T1_SMS_5,41,1,48,47,129501016
552,4,T1_SMS_5,42,5,42,127,129754324
552,4,T1_SMS_5,43,1,48,73,129945060
552,4,T1_SMS_5,44,1,48,48,129975484
552,4,T1_SMS_5,45,5,42,127,130255268
552,4,T1_SMS_5,46,1,48,76,130444808
552,4,T1_SMS_5,47,5,42,127,130755036
552,4,T1_SMS_5,48,1,48,77,130871276
552,4,T1_SMS_5,49,1,48,55,130898484
552,4,T1_SMS_5,50,5,42,127,131254488
552,4,T1_SMS_5,51,1,48,77,131393092
552,4,T1_SMS_5,52,1,48,49,131423588
552,4,T1_SMS_5,53,5,42,127,131755356
552,4,T1_SMS_5,54,1,48,75,131870372
552,4,T1_SMS_5,55,1,48,53,131900524
552,4,T1_SMS_5,56,5,42,127,132255176
552,4,T1_SMS_5,57,1,48,86,132364960
552,4,T1_SMS_5,58,1,48,56,132391144
552,4,T1_SMS_5,59,5,42,127,132754704
552,4,T1_SMS_5,60,1,48,67,132836360
552,4,T1_SMS_5,61,5,42,127,133254544
552,4,T1_SMS_5,62,1,48,78,133313912
552,4,T1_SMS_5,63,1,48,51,133342244
552,4,T1_SMS_5,64,5,42,127,133755264
552,4,T1_SMS_5,65,1,48,59,133787480
552,4,T1_SMS_5,66,1,48,45,133816332
552,4,T1_SMS_5,67,5,42,127,134255236
552,4,T1_SMS_5,68,1,48,80,134264340
552,4,T1_SMS_5,69,1,48,55,134287956
552,4,T1_SMS_5,70,1,48,65,134715148
552,4,T1_SMS_5,71,1,48,48,134740936
552,4,T1_SMS_5,72,5,42,127,134754732
552,4,T1_SMS_5,73,1,48,70,135231280
552,4,T1_SMS_5,74,5,42,127,135255324
552,4,T1_SMS_5,75,1,48,47,135261424
552,4,T1_SMS_5,76,1,48,63,135699740
552,4,T1_SMS_5,77,1,48,45,135728912
552,4,T1_SMS_5,78,5,42,127,135755272
552,4,T1_SMS_5,79,1,48,70,136198140
552,4,T1_SMS_5,80,1,48,36,136251100
552,4,T1_SMS_5,81,5,42,127,136255096
552,4,T1_SMS_5,82,1,48,63,136665348
552,4,T1_SMS_5,83,1,48,23,136740004
552,4,T1_SMS_5,84,5,42,127,136754616
552,4,T1_SMS_5,85,1,48,81,137186112
552,4,T1_SMS_5,86,1,48,42,137242940
552,4,T1_SMS_5,87,5,42,127,137255412
552,4,T1_SMS_5,88,1,48,68,137675092
552,4,T1_SMS_5,89,1,48,35,137725332
552,4,T1_SMS_5,90,5,42,127,137755136
552,4,T1_SMS_5,91,1,48,64,138181124
552,4,T1_SMS_5,92,1,48,24,138250960
552,4,T1_SMS_5,93,5,42,127,138254584
552,4,T1_SMS_5,94,1,48,77,138672940
552,4,T1_SMS_5,95,5,42,127,138754356
552,4,T1_SMS_5,96,1,48,26,138769728
552,4,T1_SMS_5,97,1,48,61,139159224
552,4,T1_SMS_5,98,5,42,127,139255136
552,4,T1_SMS_5,99,1,48,67,139631244
552,4,T1_SMS_5,100,5,42,127,139755128
552,4,T1_SMS_5,101,1,48,61,140117332
552,4,T1_SMS_5,102,5,42,127,140254896
552,4,T1_SMS_5,103,1,48,76,140632208
552,4,T1_SMS_5,104,1,48,32,140693816
552,4,T1_SMS_5,105,5,42,127,140755408
552,4,T1_SMS_5,106,1,48,71,141119988
552,4,T1_SMS_5,107,1,48,29,141206884
552,4,T1_SMS_5,108,5,42,127,141255008
552,4,T1_SMS_5,109,1,48,65,141606268
552,4,T1_SMS_5,110,5,42,127,141754912
552,4,T1_SMS_5,111,1,48,65,142110132
552,4,T1_SMS_5,112,5,42,127,142254380
552,4,T1_SMS_5,113,1,48,85,142556644
552,4,T1_SMS_5,114,1,48,44,142608380
552,4,T1_SMS_5,115,5,42,127,142755252
552,4,T1_SMS_5,116,1,48,71,143072844
552,4,T1_SMS_5,117,1,48,35,143139640
552,4,T1_SMS_5,118,5,42,127,143255000
552,4,T1_SMS_5,119,1,48,74,143561152
552,4,T1_SMS_5,120,5,42,127,143754844
552,4,T1_SMS_5,121,1,48,63,144055312
552,4,T1_SMS_5,122,5,42,127,144255288
552,4,T1_SMS_5,123,1,48,63,144518732
552,4,T1_SMS_5,124,5,42,127,144754984
552,4,T1_SMS_5,125,1,48,73,145029420
552,4,T1_SMS_5,126,5,42,127,145254976
552,4,T1_SMS_5,127,1,48,66,145484680
552,4,T1_SMS_5,128,5,42,127,145754372
552,4,T1_SMS_5,129,1,48,77,146006148
552,4,T1_SMS_5,130,5,42,127,146255264
552,4,T1_SMS_5,131,1,48,68,146449120
552,4,T1_SMS_5,132,5,42,127,146755032
552,4,T1_SMS_5,133,1,48,44,146961828
552,4,T1_SMS_5,134,5,42,127,147254876
552,4,T1_SMS_5,135,1,48,76,147431756
552,4,T1_SMS_5,136,5,42,127,147755320
552,4,T1_SMS_5,137,1,48,60,147948580
552,4,T1_SMS_5,138,5,42,127,148255064
552,4,T1_SMS_5,139,1,48,70,148424628
552,4,T1_SMS_5,140,1,48,27,148533016
552,4,T1_SMS_5,141,5,42,127,148754884
552,4,T1_SMS_5,142,1,48,75,148947344
552,4,T1_SMS_5,143,5,42,127,149254432
552,4,T1_SMS_5,144,1,48,73,149443748
552,4,T1_SMS_5,145,1,48,34,149537372
552,4,T1_SMS_5,146,5,42,127,149755352
552,4,T1_SMS_5,147,1,48,70,149940480
552,4,T1_SMS_5,148,5,42,127,150254972
552,4,T1_SMS_5,149,1,48,72,150402548
552,4,T1_SMS_5,150,5,42,127,150754740
552,4,T1_SMS_5,151,1,48,66,150926704
552,4,T1_SMS_5,152,5,42,127,151255260
552,4,T1_SMS_5,153,1,48,55,151446672
552,4,T1_SMS_5,154,5,42,127,151755252
552,4,T1_SMS_5,155,1,48,58,151940680
552,4,T1_SMS_5,156,5,42,127,152254724
552,4,T1_SMS_5,157,1,48,59,152437532
552,4,T1_SMS_5,158,5,42,127,152754640
552,4,T1_SMS_5,159,1,48,66,152934380
552,4,T1_SMS_5,160,5,42,127,153255232
552,4,T1_SMS_5,161,1,48,59,153426520
552,4,T1_SMS_5,162,5,42,127,153754856
552,4,T1_SMS_5,163,1,48,64,153920308
552,4,T1_SMS_5,164,5,42,127,154254548
552,4,T1_SMS_5,165,1,48,58,154392524
552,4,T1_SMS_5,166,5,42,127,154754544
552,4,T1_SMS_5,167,1,48,54,154888856
552,4,T1_SMS_5,168,5,42,127,155255136
552,4,T1_SMS_5,169,1,48,56,155368356
552,4,T1_SMS_5,170,5,42,127,155754904
552,4,T1_SMS_5,171,1,48,56,155834916
552,4,T1_SMS_5,172,5,42,127,156254524
552,4,T1_SMS_5,173,1,48,53,156363408
552,4,T1_SMS_5,174,5,42,127,156755488
552,4,T1_SMS_5,175,1,48,59,156828620
552,4,T1_SMS_5,176,5,42,127,157255036
552,4,T1_SMS_5,177,1,48,66,157326372
552,4,T1_SMS_5,178,5,42,127,157754732
552,4,T1_SMS_5,179,1,48,66,157796072
552,4,T1_SMS_5,180,5,42,127,158254428
552,4,T1_SMS_5,181,1,48,68,158292400
552,4,T1_SMS_5,182,5,42,127,158755168
552,4,T1_SMS_5,183,1,48,70,158782148
552,4,T1_SMS_5,184,1,48,70,159252720
552,4,T1_SMS_5,185,5,42,127,159254832
552,4,T1_SMS_5,186,5,42,127,159754536
552,4,T1_SMS_5,187,1,48,67,159776648
552,4,T1_SMS_5,188,1,48,78,160240476
552,4,T1_SMS_5,189,5,42,127,160255540
552,4,T1_SMS_5,190,1,48,77,160749296
552,4,T1_SMS_5,191,5,42,127,160755164
552,4,T1_SMS_5,192,1,48,71,161210772
552,4,T1_SMS_5,193,5,42,127,161254636
552,4,T1_SMS_5,194,1,48,75,161719964
552,4,T1_SMS_5,195,5,42,127,161754332
552,4,T1_SMS_5,196,1,48,67,162183008
552,4,T1_SMS_5,197,5,42,127,162255368
552,4,T1_SMS_5,198,1,48,78,162692652
552,4,T1_SMS_5,199,5,42,127,162754992
552,4,T1_SMS_5,200,1,48,76,163156816
552,4,T1_SMS_5,201,1,48,44,163212892
552,4,T1_SMS_5,202,5,42,127,163254740
552,4,T1_SMS_5,203,1,48,72,163681848
552,4,T1_SMS_5,204,1,48,33,163750564
552,4,T1_SMS_5,205,5,42,127,163755536
552,4,T1_SMS_5,206,1,48,76,164163344
552,4,T1_SMS_5,207,1,48,47,164206552
552,4,T1_SMS_5,208,5,42,127,164255356
552,4,T1_SMS_5,209,1,48,76,164688152
552,4,T1_SMS_5,210,1,48,41,164730688
552,4,T1_SMS_5,211,5,42,127,164754804
552,4,T1_SMS_5,212,1,48,77,165193736
552,4,T1_SMS_5,213,1,48,46,165232684
552,4,T1_SMS_5,214,5,42,127,165254480
552,4,T1_SMS_5,215,1,48,73,165691912
552,4,T1_SMS_5,216,1,48,37,165742828
552,4,T1_SMS_5,217,5,42,127,165755424
552,4,T1_SMS_5,218,1,48,70,166233768
552,4,T1_SMS_5,219,5,42,127,166255192
552,4,T1_SMS_5,220,1,48,31,166295924
552,4,T1_SMS_5,221,5,42,127,166754800
552,4,T1_SMS_5,222,1,48,60,166761060
552,4,T1_SMS_5,223,5,42,127,167255540
552,4,T1_SMS_5,224,1,48,65,167264572
552,4,T1_SMS_5,225,1,48,65,167715928
552,4,T1_SMS_5,226,5,42,127,167755304
552,4,T1_SMS_5,227,1,48,36,167767688
552,4,T1_SMS_5,228,1,48,53,168244776
552,4,T1_SMS_5,229,5,42,127,168254832
552,4,T1_SMS_5,230,1,48,67,168739608
552,4,T1_SMS_5,231,5,42,127,168754452
552,4,T1_SMS_5,232,1,48,62,169233292
552,4,T1_SMS_5,233,5,42,127,169255268
552,4,T1_SMS_5,234,1,48,43,169287396
552,4,T1_SMS_5,235,1,48,77,169739328
552,4,T1_SMS_5,236,5,42,127,169754844
552,4,T1_SMS_5,237,1,48,43,169798288
552,4,T1_SMS_5,238,5,42,127,170254744
552,4,T1_SMS_5,239,1,48,70,170263320
552,4,T1_SMS_5,240,5,42,127,170754288
552,4,T1_SMS_5,241,1,48,69,170768328
552,4,T1_SMS_5,242,5,42,127,171255328
552,4,T1_SMS_5,243,1,48,62,171261068
552,4,T1_SMS_5,244,5,42,127,171754724
552,4,T1_SMS_5,245,1,48,54,171771604
552,4,T1_SMS_5,246,1,48,60,172240540
552,4,T1_SMS_5,247,5,42,127,172254564
552,4,T1_SMS_5,248,1,48,69,172741356
552,4,T1_SMS_5,249,5,42,127,172755304
552,4,T1_SMS_5,250,1,48,43,172782644
552,4,T1_SMS_5,251,1,48,74,173239984
552,4,T1_SMS_5,252,5,42,127,173255200
552,4,T1_SMS_5,253,1,48,40,173301916
552,4,T1_SMS_5,254,1,48,70,173741004
552,4,T1_SMS_5,255,5,42,127,173755100
552,4,T1_SMS_5,256,1,48,37,173803308
552,4,T1_SMS_5,257,1,48,67,174234996
552,4,T1_SMS_5,258,5,42,127,174254476
552,4,T1_SMS_5,259,1,48,38,174285776
552,4,T1_SMS_5,260,1,48,67,174750376
552,4,T1_SMS_5,261,5,42,127,174755124
552,4,T1_SMS_5,262,1,48,35,174807820
552,4,T1_SMS_5,263,1,48,61,175241452
552,4,T1_SMS_5,264,5,42,127,175254948
552,4,T1_SMS_5,265,1,48,30,175323204
552,4,T1_SMS_5,266,5,42,127,175754552
552,4,T1_SMS_5,267,1,48,65,175763052
552,4,T1_SMS_5,268,1,48,24,175860716
552,4,T1_SMS_5,269,5,42,127,176255272
552,4,T1_SMS_5,270,1,48,65,176262284
552,4,T1_SMS_5,271,1,48,67,176744676
552,4,T1_SMS_5,272,5,42,127,176755180
552,4,T1_SMS_5,273,1,48,41,176799128
552,4,T1_SMS_5,274,1,48,66,177225424
552,4,T1_SMS_5,275,5,42,127,177254856
552,4,T1_SMS_5,276,1,48,41,177278456
552,4,T1_SMS_5,277,1,48,55,177744924
552,4,T1_SMS_5,278,5,42,127,177754452
552,4,T1_SMS_5,279,1,48,62,178220752
552,4,T1_SMS_5,280,5,42,127,178255268
552,4,T1_SMS_5,281,1,48,34,178277676
552,4,T1_SMS_5,282,1,48,61,178733444
552,4,T1_SMS_5,283,5,42,127,178755016
552,4,T1_SMS_5,284,1,48,34,178785796
552,4,T1_SMS_5,285,1,48,62,179243660
552,4,T1_SMS_5,286,5,42,127,179254764
552,4,T1_SMS_5,287,1,48,38,179296316
552,4,T1_SMS_5,288,1,48,78,179749168
552,4,T1_SMS_5,289,5,42,127,179755260
552,4,T1_SMS_5,290,1,48,33,179814384
552,4,T1_SMS_5,291,1,48,68,180228020
552,4,T1_SMS_5,292,5,42,127,180255056
552,4,T1_SMS_5,293,1,48,40,180268064
552,4,T1_SMS_5,294,1,48,64,180735620
552,4,T1_SMS_5,295,5,42,127,180754804
552,4,T1_SMS_5,296,1,48,38,180780372
552,4,T1_SMS_5,297,1,48,71,181229160
552,4,T1_SMS_5,298,5,42,127,181254476
552,4,T1_SMS_5,299,1,48,41,181271720
552,4,T1_SMS_5,300,1,48,62,181713276
552,4,T1_SMS_5,301,5,42,127,181755272
552,4,T1_SMS_5,302,1,48,35,181765104
552,4,T1_SMS_5,303,1,48,74,182203676
552,4,T1_SMS_5,304,1,48,46,182249728
552,4,T1_SMS_5,305,5,42,127,182254920
552,4,T1_SMS_5,306,1,48,65,182694296
552,4,T1_SMS_5,307,1,48,40,182742892
552,4,T1_SMS_5,308,5,42,127,182754744
552,4,T1_SMS_5,309,1,48,72,183192248
552,4,T1_SMS_5,310,1,48,48,183230224
552,4,T1_SMS_5,311,5,42,127,183255540
552,4,T1_SMS_5,312,1,48,70,183704788
552,4,T1_SMS_5,313,1,48,41,183746956
552,4,T1_SMS_5,314,5,42,127,183754988
552,4,T1_SMS_5,315,1,48,74,184210524
552,4,T1_SMS_5,316,1,48,46,184249468
552,4,T1_SMS_5,317,5,42,127,184254812
552,4,T1_SMS_5,318,1,48,91,184744372
552,4,T1_SMS_5,319,5,42,127,184754504
552,4,T1_SMS_5,320,1,48,44,184790372
552,4,T1_SMS_5,321,1,48,76,185243824
552,4,T1_SMS_5,322,5,42,127,185255224
552,4,T1_SMS_5,323,1,48,44,185286676
552,4,T1_SMS_5,324,5,42,127,185754976
552,4,T1_SMS_5,325,1,48,68,185774624
552,4,T1_SMS_5,326,1,48,33,185836768
552,4,T1_SMS_5,327,5,42,127,186254800
552,4,T1_SMS_5,328,1,48,76,186264428
552,4,T1_SMS_5,0,9999,9999,9999,121752676
552,4,T1_SMS_5,1,9999,9999,9999,122252392
552,4,T1_SMS_5,2,9999,9999,9999,122752100
552,4,T1_SMS_5,3,9999,9999,9999,123252824
552,4,T1_SMS_5,4,9999,9999,9999,123752516
552,4,T1_SMS_5,5,9999,9999,9999,124252272
552,4,T1_SMS_5,6,9999,9999,9999,124752992
552,4,T1_SMS_5,7,9999,9999,9999,125252664
552,4,T1_SMS_5,8,9999,9999,9999,125752436
552,4,T1_SMS_5,9,9999,9999,9999,126252112
552,4,T1_SMS_5,10,9999,9999,9999,126752880
552,4,T1_SMS_5,11,9999,9999,9999,127252548
552,4,T1_SMS_5,12,9999,9999,9999,127752300
552,4,T1_SMS_5,13,9999,9999,9999,128253020
552,4,T1_SMS_5,14,9999,9999,9999,128752692
552,4,T1_SMS_5,15,9999,9999,9999,129252440
552,4,T1_SMS_5,16,9999,9999,9999,129752112
552,4,T1_SMS_5,17,9999,9999,9999,130252908
552,4,T1_SMS_5,18,9999,9999,9999,130752600
552,4,T1_SMS_5,19,9999,9999,9999,131252276
552,4,T1_SMS_5,20,9999,9999,9999,131753068
552,4,T1_SMS_5,21,9999,9999,9999,132252744
552,4,T1_SMS_5,22,9999,9999,9999,132752492
552,4,T1_SMS_5,23,9999,9999,9999,133252184
552,4,T1_SMS_5,24,9999,9999,9999,133752904
552,4,T1_SMS_5,25,9999,9999,9999,134252652
552,4,T1_SMS_5,26,9999,9999,9999,134752372
552,4,T1_SMS_5,27,9999,9999,9999,135253040
552,4,T1_SMS_5,28,9999,9999,9999,135752764
552,4,T1_SMS_5,29,9999,9999,9999,136252512
552,4,T1_SMS_5,30,9999,9999,9999,136752184
552,4,T1_SMS_5,31,9999,9999,9999,137252976
552,4,T1_SMS_5,32,9999,9999,9999,137752628
552,4,T1_SMS_5,33,9999,9999,9999,138252372
552,4,T1_SMS_5,34,9999,9999,9999,138752068
552,4,T1_SMS_5,35,9999,9999,9999,139252848
552,4,T1_SMS_5,36,9999,9999,9999,139752544
552,4,T1_SMS_5,37,9999,9999,9999,140252240
552,4,T1_SMS_5,38,9999,9999,9999,140752972
552,4,T1_SMS_5,39,9999,9999,9999,141252724
552,4,T1_SMS_5,40,9999,9999,9999,141752400
552,4,T1_SMS_5,41,9999,9999,9999,142252096
552,4,T1_SMS_5,42,9999,9999,9999,142752888
552,4,T1_SMS_5,43,9999,9999,9999,143252564
552,4,T1_SMS_5,44,9999,9999,9999,143752260
552,4,T1_SMS_5,45,9999,9999,9999,144253000
552,4,T1_SMS_5,46,9999,9999,9999,144752696
552,4,T1_SMS_5,47,9999,9999,9999,145252464
552,4,T1_SMS_5,48,9999,9999,9999,145752160
552,4,T1_SMS_5,49,9999,9999,9999,146252900
552,4,T1_SMS_5,50,9999,9999,9999,146752596
552,4,T1_SMS_5,51,9999,9999,9999,147252292
552,4,T1_SMS_5,52,9999,9999,9999,147753032
552,4,T1_SMS_5,53,9999,9999,9999,148252776
552,4,T1_SMS_5,54,9999,9999,9999,148752448
552,4,T1_SMS_5,55,9999,9999,9999,149252144
552,4,T1_SMS_5,56,9999,9999,9999,149752916
552,4,T1_SMS_5,57,9999,9999,9999,150252608
552,4,T1_SMS_5,58,9999,9999,9999,150752304
552,4,T1_SMS_5,59,9999,9999,9999,151253048
552,4,T1_SMS_5,60,9999,9999,9999,151752816
552,4,T1_SMS_5,61,9999,9999,9999,152252512
552,4,T1_SMS_5,62,9999,9999,9999,152752204
552,4,T1_SMS_5,63,9999,9999,9999,153252948
552,4,T1_SMS_5,64,9999,9999,9999,153752644
552,4,T1_SMS_5,65,9999,9999,9999,154252336
552,4,T1_SMS_5,66,9999,9999,9999,154752108
552,4,T1_SMS_5,67,9999,9999,9999,155252848
552,4,T1_SMS_5,68,9999,9999,9999,155752544
552,4,T1_SMS_5,69,9999,9999,9999,156252240
552,4,T1_SMS_5,70,9999,9999,9999,156752980
552,4,T1_SMS_5,71,9999,9999,9999,157252676
552,4,T1_SMS_5,72,9999,9999,9999,157752372
552,4,T1_SMS_5,73,9999,9999,9999,158252140
552,4,T1_SMS_5,74,9999,9999,9999,158752884
552,4,T1_SMS_5,75,9999,9999,9999,159252584
552,4,T1_SMS_5,76,9999,9999,9999,159752248
552,4,T1_SMS_5,77,9999,9999,9999,160253032
552,4,T1_SMS_5,78,9999,9999,9999,160752728
552,4,T1_SMS_5,79,9999,9999,9999,161252424
552,4,T1_SMS_5,80,9999,9999,9999,161752120
552,4,T1_SMS_5,81,9999,9999,9999,162252860
552,4,T1_SMS_5,82,9999,9999,9999,162752628
552,4,T1_SMS_5,83,9999,9999,9999,163252304
552,4,T1_SMS_5,84,9999,9999,9999,163753024
552,4,T1_SMS_5,85,9999,9999,9999,164252772
552,4,T1_SMS_5,86,9999,9999,9999,164752444
552,4,T1_SMS_5,87,9999,9999,9999,165252196
552,4,T1_SMS_5,88,9999,9999,9999,165752916
552,4,T1_SMS_5,89,9999,9999,9999,166252608
552,4,T1_SMS_5,90,9999,9999,9999,166752364
552,4,T1_SMS_5,91,9999,9999,9999,167253108
552,4,T1_SMS_5,92,9999,9999,9999,167752792
552,4,T1_SMS_5,93,9999,9999,9999,168252472
552,4,T1_SMS_5,94,9999,9999,9999,168752240
552,4,T1_SMS_5,95,9999,9999,9999,169252984
552,4,T1_SMS_5,96,9999,9999,9999,169752632
552,4,T1_SMS_5,97,9999,9999,9999,170252384
552,4,T1_SMS_5,98,9999,9999,9999,170752076
552,4,T1_SMS_5,99,9999,9999,9999,171252820
552,4,T1_SMS_5,100,9999,9999,9999,171752512
552,4,T1_SMS_5,101,9999,9999,9999,172252276
552,4,T1_SMS_5,102,9999,9999,9999,172753016
552,4,T1_SMS_5,103,9999,9999,9999,173252692
552,4,T1_SMS_5,104,9999,9999,9999,173752440
552,4,T1_SMS_5,105,9999,9999,9999,174252116
552,4,T1_SMS_5,106,9999,9999,9999,174752836
552,4,T1_SMS_5,107,9999,9999,9999,175252584
552,4,T1_SMS_5,108,9999,9999,9999,175752264
552,4,T1_SMS_5,109,9999,9999,9999,176252984
552,4,T1_SMS_5,110,9999,9999,9999,176752744
552,4,T1_SMS_5,111,9999,9999,9999,177252420
552,4,T1_SMS_5,112,9999,9999,9999,177752168
552,4,T1_SMS_5,113,9999,9999,9999,178252908
552,4,T1_SMS_5,114,9999,9999,9999,178752580
552,4,T1_SMS_5,115,9999,9999,9999,179252328
552,4,T1_SMS_5,116,9999,9999,9999,179753048
552,4,T1_SMS_5,117,9999,9999,9999,180252772
552,4,T1_SMS_5,118,9999,9999,9999,180752440
552,4,T1_SMS_5,119,9999,9999,9999,181252188
552,4,T1_SMS_5,120,9999,9999,9999,181752908
552,4,T1_SMS_5,121,9999,9999,9999,182252636
552,4,T1_SMS_5,122,9999,9999,9999,182752312
552,4,T1_SMS_5,123,9999,9999,9999,183253104
552,4,T1_SMS_5,124,9999,9999,9999,183752776
552,4,T1_SMS_5,125,9999,9999,9999,184252524
552,4,T1_SMS_5,126,9999,9999,9999,184752216
552,4,T1_SMS_5,127,9999,9999,9999,185252936
552,4,T1_SMS_5,128,9999,9999,9999,185752692
552,4,T1_SMS_5,129,9999,9999,9999,186252364
553,2,T1_SMS_8,0,5,42,127,241500408
553,2,T1_SMS_8,1,1,48,43,242100240
553,2,T1_SMS_8,2,5,42,127,242301264
553,2,T1_SMS_8,3,1,48,48,242915528
553,2,T1_SMS_8,4,5,42,127,243101220
553,2,T1_SMS_8,5,1,48,51,243771012
553,2,T1_SMS_8,6,5,42,127,243900952
553,2,T1_SMS_8,7,1,48,51,244587424
553,2,T1_SMS_8,8,5,42,127,244700464
553,2,T1_SMS_8,9,1,48,52,245417156
553,2,T1_SMS_8,10,5,42,127,245501332
553,2,T1_SMS_8,11,1,48,55,246229600
553,2,T1_SMS_8,12,5,42,127,246301016
553,2,T1_SMS_8,13,1,48,51,247071392
553,2,T1_SMS_8,14,5,42,127,247100896
553,2,T1_SMS_8,15,1,48,57,247853996
553,2,T1_SMS_8,16,5,42,127,247900484
553,2,T1_SMS_8,17,1,48,49,248676920
553,2,T1_SMS_8,18,5,42,127,248701264
553,2,T1_SMS_8,19,5,42,127,249501004
553,2,T1_SMS_8,20,1,48,50,249503668
553,2,T1_SMS_8,21,1,48,57,250258284
553,2,T1_SMS_8,22,5,42,127,250300728
553,2,T1_SMS_8,23,5,42,127,251100396
553,2,T1_SMS_8,24,1,48,57,251127824
553,2,T1_SMS_8,25,5,42,127,251901172
553,2,T1_SMS_8,26,1,48,59,251904216
553,2,T1_SMS_8,27,5,42,127,252700932
553,2,T1_SMS_8,28,1,48,63,252705020
553,2,T1_SMS_8,29,1,48,66,253477436
553,2,T1_SMS_8,30,5,42,127,253500880
553,2,T1_SMS_8,31,1,48,66,254209000
553,2,T1_SMS_8,32,5,42,127,254300392
553,2,T1_SMS_8,33,1,48,62,254998720
553,2,T1_SMS_8,34,5,42,127,255101156
553,2,T1_SMS_8,35,1,48,58,255794288
553,2,T1_SMS_8,36,5,42,127,255900968
553,2,T1_SMS_8,37,1,48,55,256562752
553,2,T1_SMS_8,38,5,42,127,256700772
553,2,T1_SMS_8,39,1,48,59,257393828
553,2,T1_SMS_8,40,5,42,127,257500656
553,2,T1_SMS_8,41,1,48,58,258149656
553,2,T1_SMS_8,42,5,42,127,258301288
553,2,T1_SMS_8,43,1,48,63,258995388
553,2,T1_SMS_8,44,5,42,127,259100968
553,2,T1_SMS_8,45,1,48,59,259820852
553,2,T1_SMS_8,46,5,42,127,259900792
553,2,T1_SMS_8,47,1,48,63,260581988
553,2,T1_SMS_8,48,5,42,127,260700736
553,2,T1_SMS_8,49,1,48,53,261347988
553,2,T1_SMS_8,50,5,42,127,261501216
553,2,T1_SMS_8,51,1,48,55,262194348
553,2,T1_SMS_8,52,5,42,127,262301028
553,2,T1_SMS_8,53,1,48,48,262978972
553,2,T1_SMS_8,54,5,42,127,263100760
553,2,T1_SMS_8,55,1,48,42,263749532
553,2,T1_SMS_8,56,5,42,127,263900568
553,2,T1_SMS_8,57,1,48,43,264561456
553,2,T1_SMS_8,58,5,42,127,264701572
553,2,T1_SMS_8,59,1,48,46,265398668
553,2,T1_SMS_8,60,5,42,127,265500884
553,2,T1_SMS_8,61,1,48,48,266177084
553,2,T1_SMS_8,62,5,42,127,266300692
553,2,T1_SMS_8,63,1,48,49,266941736
553,2,T1_SMS_8,64,5,42,127,267100724
553,2,T1_SMS_8,65,1,48,50,267770120
553,2,T1_SMS_8,66,5,42,127,267901280
553,2,T1_SMS_8,67,1,48,51,268613108
553,2,T1_SMS_8,68,5,42,127,268701104
553,2,T1_SMS_8,69,1,48,57,269369308
553,2,T1_SMS_8,70,1,48,40,269408636
553,2,T1_SMS_8,71,5,42,127,269500744
553,2,T1_SMS_8,72,1,48,55,270164236
553,2,T1_SMS_8,73,5,42,127,270300460
553,2,T1_SMS_8,74,1,48,56,270927096
553,2,T1_SMS_8,75,1,48,37,270975092
553,2,T1_SMS_8,76,5,42,127,271101440
553,2,T1_SMS_8,77,1,48,60,271693588
553,2,T1_SMS_8,78,1,48,36,271783180
553,2,T1_SMS_8,79,5,42,127,271900952
553,2,T1_SMS_8,80,1,48,60,272514100
553,2,T1_SMS_8,81,5,42,127,272700760
553,2,T1_SMS_8,82,1,48,59,273364692
553,2,T1_SMS_8,83,5,42,127,273500496
553,2,T1_SMS_8,84,1,48,48,274161808
553,2,T1_SMS_8,85,5,42,127,274301276
553,2,T1_SMS_8,86,1,48,54,274929528
553,2,T1_SMS_8,87,5,42,127,275101156
553,2,T1_SMS_8,88,1,48,50,275701432
553,2,T1_SMS_8,89,5,42,127,275900664
553,2,T1_SMS_8,90,1,48,57,276558564
553,2,T1_SMS_8,91,5,42,127,276700472
553,2,T1_SMS_8,92,1,48,59,277311472
553,2,T1_SMS_8,93,5,42,127,277501328
553,2,T1_SMS_8,94,1,48,26,278145908
553,2,T1_SMS_8,95,5,42,127,278301084
553,2,T1_SMS_8,96,1,48,68,278956568
553,2,T1_SMS_8,97,5,42,127,279100668
553,2,T1_SMS_8,98,1,48,70,279716352
553,2,T1_SMS_8,99,5,42,127,279900404
553,2,T1_SMS_8,100,1,48,68,280527832
553,2,T1_SMS_8,101,5,42,127,280701404
553,2,T1_SMS_8,102,1,48,68,281299220
553,2,T1_SMS_8,103,5,42,127,281501136
553,2,T1_SMS_8,104,1,48,64,282141760
553,2,T1_SMS_8,105,5,42,127,282300648
553,2,T1_SMS_8,106,1,48,57,282973580
553,2,T1_SMS_8,107,5,42,127,283100380
553,2,T1_SMS_8,108,1,48,66,283709660
553,2,T1_SMS_8,109,5,42,127,283901308
553,2,T1_SMS_8,110,1,48,64,284487928
553,2,T1_SMS_8,111,5,42,127,284701068
553,2,T1_SMS_8,112,1,48,63,285265968
553,2,T1_SMS_8,113,5,42,127,285500876
553,2,T1_SMS_8,114,1,48,58,286060536
553,2,T1_SMS_8,115,5,42,127,286300460
553,2,T1_SMS_8,116,1,48,64,286804548
553,2,T1_SMS_8,117,5,42,127,287101164
553,2,T1_SMS_8,118,1,48,41,287690000
553,2,T1_SMS_8,119,5,42,127,287900972
553,2,T1_SMS_8,120,1,48,68,288460112
553,2,T1_SMS_8,121,5,42,127,288700928
553,2,T1_SMS_8,122,1,48,65,289220952
553,2,T1_SMS_8,123,5,42,127,289500664
553,2,T1_SMS_8,124,1,48,64,289984032
553,2,T1_SMS_8,125,5,42,127,290301148
553,2,T1_SMS_8,126,1,48,57,290768964
553,2,T1_SMS_8,127,5,42,127,291100980
553,2,T1_SMS_8,128,1,48,66,291655256
553,2,T1_SMS_8,129,5,42,127,291900788
553,2,T1_SMS_8,130,1,48,66,292466360
553,2,T1_SMS_8,131,5,42,127,292700596
553,2,T1_SMS_8,132,1,48,67,293229144
553,2,T1_SMS_8,133,5,42,127,293501152
553,2,T1_SMS_8,134,1,48,58,294056400
553,2,T1_SMS_8,135,5,42,127,294301036
553,2,T1_SMS_8,136,1,48,68,294827344
553,2,T1_SMS_8,137,5,42,127,295100916
553,2,T1_SMS_8,138,1,48,71,295648468
553,2,T1_SMS_8,139,5,42,127,295900652
553,2,T1_SMS_8,140,1,48,63,296421868
553,2,T1_SMS_8,141,5,42,127,296701280
553,2,T1_SMS_8,142,1,48,67,297242796
553,2,T1_SMS_8,143,5,42,127,297500892
553,2,T1_SMS_8,144,1,48,54,298111564
553,2,T1_SMS_8,145,5,42,127,298300772
553,2,T1_SMS_8,146,1,48,62,298877640
553,2,T1_SMS_8,147,5,42,127,299100508
553,2,T1_SMS_8,148,1,48,58,299662788
553,2,T1_SMS_8,149,5,42,127,299901364
553,2,T1_SMS_8,150,1,48,72,300431856
553,2,T1_SMS_8,151,5,42,127,300700948
553,2,T1_SMS_8,152,1,48,56,301281928
553,2,T1_SMS_8,153,5,42,127,301500680
553,2,T1_SMS_8,154,1,48,54,302074256
553,2,T1_SMS_8,155,5,42,127,302300712
553,2,T1_SMS_8,156,1,48,66,302793956
553,2,T1_SMS_8,157,5,42,127,303101344
553,2,T1_SMS_8,158,1,48,38,303696336
553,2,T1_SMS_8,159,5,42,127,303900952
553,2,T1_SMS_8,160,1,48,56,304466976
553,2,T1_SMS_8,161,5,42,127,304700912
553,2,T1_SMS_8,162,1,48,61,305234916
553,2,T1_SMS_8,163,5,42,127,305500644
553,2,T1_SMS_8,164,1,48,60,306018872
553,2,T1_SMS_8,165,5,42,127,306301276
553,2,T1_SMS_8,166,1,48,58,306848448
553,2,T1_SMS_8,167,5,42,127,307101232
553,2,T1_SMS_8,168,1,48,51,307570844
553,2,T1_SMS_8,169,5,42,127,307900820
553,2,T1_SMS_8,170,1,48,54,308467288
553,2,T1_SMS_8,171,5,42,127,308700628
553,2,T1_SMS_8,172,1,48,49,309223492
553,2,T1_SMS_8,173,5,42,127,309501408
553,2,T1_SMS_8,174,1,48,55,310064312
553,2,T1_SMS_8,175,5,42,127,310301016
553,2,T1_SMS_8,176,1,48,54,310821488
553,2,T1_SMS_8,177,5,42,127,311100828
553,2,T1_SMS_8,178,1,48,62,311649868
553,2,T1_SMS_8,179,5,42,127,311900560
553,2,T1_SMS_8,180,1,48,63,312425216
553,2,T1_SMS_8,181,5,42,127,312701412
553,2,T1_SMS_8,182,1,48,58,313267136
553,2,T1_SMS_8,183,5,42,127,313501076
553,2,T1_SMS_8,184,1,48,59,314080340
553,2,T1_SMS_8,185,5,42,127,314300736
553,2,T1_SMS_8,186,1,48,41,314858532
553,2,T1_SMS_8,187,5,42,127,315100468
553,2,T1_SMS_8,188,1,48,54,315654444
553,2,T1_SMS_8,189,5,42,127,315901248
553,2,T1_SMS_8,190,1,48,54,316390224
553,2,T1_SMS_8,191,5,42,127,316701152
553,2,T1_SMS_8,192,1,48,60,317229108
553,2,T1_SMS_8,193,5,42,127,317500664
553,2,T1_SMS_8,194,1,48,56,317999592
553,2,T1_SMS_8,195,5,42,127,318300472
553,2,T1_SMS_8,196,1,48,56,318778156
553,2,T1_SMS_8,197,5,42,127,319101324
553,2,T1_SMS_8,198,1,48,60,319593444
553,2,T1_SMS_8,199,5,42,127,319901136
553,2,T1_SMS_8,200,1,48,52,320366708
553,2,T1_SMS_8,201,5,42,127,320700868
553,2,T1_SMS_8,202,1,48,63,321136588
553,2,T1_SMS_8,203,5,42,127,321500452
553,2,T1_SMS_8,204,1,48,53,321890924
553,2,T1_SMS_8,205,5,42,127,322301160
553,2,T1_SMS_8,206,5,42,127,323101012
553,2,T1_SMS_8,207,1,48,75,323175260
553,2,T1_SMS_8,208,1,48,51,323896288
553,2,T1_SMS_8,209,5,42,127,323900964
553,2,T1_SMS_8,210,1,48,56,324671496
553,2,T1_SMS_8,211,5,42,127,324700472
553,2,T1_SMS_8,212,1,48,64,325415352
553,2,T1_SMS_8,213,5,42,127,325501328
553,2,T1_SMS_8,214,1,48,55,326149464
553,2,T1_SMS_8,215,5,42,127,326300972
553,2,T1_SMS_8,216,1,48,58,326895864
553,2,T1_SMS_8,217,1,48,30,326954060
553,2,T1_SMS_8,218,5,42,127,327100904
553,2,T1_SMS_8,219,1,48,65,327667752
553,2,T1_SMS_8,220,1,48,35,327729836
553,2,T1_SMS_8,221,5,42,127,327900544
553,2,T1_SMS_8,222,1,48,55,328440236
553,2,T1_SMS_8,223,5,42,127,328701172
553,2,T1_SMS_8,224,1,48,54,329234956
553,2,T1_SMS_8,225,5,42,127,329501004
553,2,T1_SMS_8,226,1,48,55,330002824
553,2,T1_SMS_8,227,1,48,40,330059376
553,2,T1_SMS_8,228,5,42,127,330300792
553,2,T1_SMS_8,229,1,48,49,330852604
553,2,T1_SMS_8,230,1,48,31,330896712
553,2,T1_SMS_8,231,5,42,127,331100504
553,2,T1_SMS_8,232,1,48,46,331656580
553,2,T1_SMS_8,233,5,42,127,331901284
553,2,T1_SMS_8,234,1,48,70,332498420
553,2,T1_SMS_8,235,5,42,127,332700940
553,2,T1_SMS_8,236,1,48,52,333304360
553,2,T1_SMS_8,237,5,42,127,333500896
553,2,T1_SMS_8,238,1,48,67,334098636
553,2,T1_SMS_8,239,5,42,127,334300632
553,2,T1_SMS_8,240,1,48,60,334930256
553,2,T1_SMS_8,241,1,48,38,334997556
553,2,T1_SMS_8,242,5,42,127,335101240
553,2,T1_SMS_8,243,1,48,62,335686208
553,2,T1_SMS_8,244,1,48,40,335758448
553,2,T1_SMS_8,245,5,42,127,335900904
553,2,T1_SMS_8,246,1,48,57,336400632
553,2,T1_SMS_8,247,1,48,36,336481260
553,2,T1_SMS_8,248,5,42,127,336700764
553,2,T1_SMS_8,249,1,48,57,337224148
553,2,T1_SMS_8,0,9999,9999,9999,241498196
553,2,T1_SMS_8,1,9999,9999,9999,242298976
553,2,T1_SMS_8,2,9999,9999,9999,243098708
553,2,T1_SMS_8,3,9999,9999,9999,243898440
553,2,T1_SMS_8,4,9999,9999,9999,244698176
553,2,T1_SMS_8,5,9999,9999,9999,245498968
553,2,T1_SMS_8,6,9999,9999,9999,246298704
553,2,T1_SMS_8,7,9999,9999,9999,247098460
553,2,T1_SMS_8,8,9999,9999,9999,247898196
553,2,T1_SMS_8,9,9999,9999,9999,248698976
553,2,T1_SMS_8,10,9999,9999,9999,249498716
553,2,T1_SMS_8,11,9999,9999,9999,250298440
553,2,T1_SMS_8,12,9999,9999,9999,251098180
553,2,T1_SMS_8,13,9999,9999,9999,251898960
553,2,T1_SMS_8,14,9999,9999,9999,252698692
553,2,T1_SMS_8,15,9999,9999,9999,253498444
553,2,T1_SMS_8,16,9999,9999,9999,254298180
553,2,T1_SMS_8,17,9999,9999,9999,255098944
553,2,T1_SMS_8,18,9999,9999,9999,255898680
553,2,T1_SMS_8,19,9999,9999,9999,256698484
553,2,T1_SMS_8,20,9999,9999,9999,257498220
553,2,T1_SMS_8,21,9999,9999,9999,258298996
553,2,T1_SMS_8,22,9999,9999,9999,259098680
553,2,T1_SMS_8,23,9999,9999,9999,259898432
553,2,T1_SMS_8,24,9999,9999,9999,260698224
553,2,T1_SMS_8,25,9999,9999,9999,261498928
553,2,T1_SMS_8,26,9999,9999,9999,262298740
553,2,T1_SMS_8,27,9999,9999,9999,263098472
553,2,T1_SMS_8,28,9999,9999,9999,263898208
553,2,T1_SMS_8,29,9999,9999,9999,264698984
553,2,T1_SMS_8,30,9999,9999,9999,265498668
553,2,T1_SMS_8,31,9999,9999,9999,266298480
553,2,T1_SMS_8,32,9999,9999,9999,267098212
553,2,T1_SMS_8,33,9999,9999,9999,267898992
553,2,T1_SMS_8,34,9999,9999,9999,268698740
553,2,T1_SMS_8,35,9999,9999,9999,269498456
553,2,T1_SMS_8,36,9999,9999,9999,270298172
553,2,T1_SMS_8,37,9999,9999,9999,271098928
553,2,T1_SMS_8,38,9999,9999,9999,271898740
553,2,T1_SMS_8,39,9999,9999,9999,272698472
553,2,T1_SMS_8,40,9999,9999,9999,273498208
553,2,T1_SMS_8,41,9999,9999,9999,274298988
553,2,T1_SMS_8,42,9999,9999,9999,275098720
553,2,T1_SMS_8,43,9999,9999,9999,275898452
553,2,T1_SMS_8,44,9999,9999,9999,276698184
553,2,T1_SMS_8,45,9999,9999,9999,277498964
553,2,T1_SMS_8,46,9999,9999,9999,278298724
553,2,T1_SMS_8,47,9999,9999,9999,279098456
553,2,T1_SMS_8,48,9999,9999,9999,279898188
553,2,T1_SMS_8,49,9999,9999,9999,280698968
553,2,T1_SMS_8,50,9999,9999,9999,281498700
553,2,T1_SMS_8,51,9999,9999,9999,282298436
553,2,T1_SMS_8,52,9999,9999,9999,283098168
553,2,T1_SMS_8,53,9999,9999,9999,283898948
553,2,T1_SMS_8,54,9999,9999,9999,284698704
553,2,T1_SMS_8,55,9999,9999,9999,285498440
553,2,T1_SMS_8,56,9999,9999,9999,286298172
553,2,T1_SMS_8,57,9999,9999,9999,287098952
553,2,T1_SMS_8,58,9999,9999,9999,287898684
553,2,T1_SMS_8,59,9999,9999,9999,288698416
553,2,T1_SMS_8,60,9999,9999,9999,289498228
553,2,T1_SMS_8,61,9999,9999,9999,290298936
553,2,T1_SMS_8,62,9999,9999,9999,291098692
553,2,T1_SMS_8,63,9999,9999,9999,291898428
553,2,T1_SMS_8,64,9999,9999,9999,292698160
553,2,T1_SMS_8,65,9999,9999,9999,293498940
553,2,T1_SMS_8,66,9999,9999,9999,294298672
553,2,T1_SMS_8,67,9999,9999,9999,295098480
553,2,T1_SMS_8,68,9999,9999,9999,295898212
553,2,T1_SMS_8,69,9999,9999,9999,296698992
553,2,T1_SMS_8,70,9999,9999,9999,297498676
553,2,T1_SMS_8,71,9999,9999,9999,298298484
553,2,T1_SMS_8,72,9999,9999,9999,299098220
553,2,T1_SMS_8,73,9999,9999,9999,299898928
553,2,T1_SMS_8,74,9999,9999,9999,300698736
553,2,T1_SMS_8,75,9999,9999,9999,301498468
553,2,T1_SMS_8,76,9999,9999,9999,302298200
553,2,T1_SMS_8,77,9999,9999,9999,303098980
553,2,T1_SMS_8,78,9999,9999,9999,303898740
553,2,T1_SMS_8,79,9999,9999,9999,304698476
553,2,T1_SMS_8,80,9999,9999,9999,305498208
553,2,T1_SMS_8,81,9999,9999,9999,306298988
553,2,T1_SMS_8,82,9999,9999,9999,307098720
553,2,T1_SMS_8,83,9999,9999,9999,307898456
553,2,T1_SMS_8,84,9999,9999,9999,308698188
553,2,T1_SMS_8,85,9999,9999,9999,309498968
553,2,T1_SMS_8,86,9999,9999,9999,310298728
553,2,T1_SMS_8,87,9999,9999,9999,311098464
553,2,T1_SMS_8,88,9999,9999,9999,311898196
553,2,T1_SMS_8,89,9999,9999,9999,312698976
553,2,T1_SMS_8,90,9999,9999,9999,313498712
553,2,T1_SMS_8,91,9999,9999,9999,314298448
553,2,T1_SMS_8,92,9999,9999,9999,315098180
553,2,T1_SMS_8,93,9999,9999,9999,315898960
553,2,T1_SMS_8,94,9999,9999,9999,316698716
553,2,T1_SMS_8,95,9999,9999,9999,317498448
553,2,T1_SMS_8,96,9999,9999,9999,318298184
553,2,T1_SMS_8,97,9999,9999,9999,319098960
553,2,T1_SMS_8,98,9999,9999,9999,319898696
553,2,T1_SMS_8,99,9999,9999,9999,320698428
553,2,T1_SMS_8,100,9999,9999,9999,321498164
553,2,T1_SMS_8,101,9999,9999,9999,322298944
553,2,T1_SMS_8,102,9999,9999,9999,323098724
553,2,T1_SMS_8,103,9999,9999,9999,323898452
553,2,T1_SMS_8,104,9999,9999,9999,324698184
553,2,T1_SMS_8,105,9999,9999,9999,325498964
553,2,T1_SMS_8,106,9999,9999,9999,326298684
553,2,T1_SMS_8,107,9999,9999,9999,327098468
553,2,T1_SMS_8,108,9999,9999,9999,327898180
553,2,T1_SMS_8,109,9999,9999,9999,328698960
553,2,T1_SMS_8,110,9999,9999,9999,329498716
553,2,T1_SMS_8,111,9999,9999,9999,330298428
553,2,T1_SMS_8,112,9999,9999,9999,331098216
553,2,T1_SMS_8,113,9999,9999,9999,331898996
553,2,T1_SMS_8,114,9999,9999,9999,332698728
553,2,T1_SMS_8,115,9999,9999,9999,333498460
553,2,T1_SMS_8,116,9999,9999,9999,334298196
553,2,T1_SMS_8,117,9999,9999,9999,335098952
553,2,T1_SMS_8,118,9999,9999,9999,335898688
553,2,T1_SMS_8,119,9999,9999,9999,336698476
551,21,Ticks_Linear_5,0,5,42,127,8675836
551,21,Ticks_Linear_5,1,5,42,127,9155940
551,21,Ticks_Linear_5,2,1,48,50,9418344
551,21,Ticks_Linear_5,3,5,42,127,9636316
551,21,Ticks_Linear_5,4,1,48,51,9983860
551,21,Ticks_Linear_5,5,5,42,127,10115720
551,21,Ticks_Linear_5,6,1,48,58,10519436
551,21,Ticks_Linear_5,7,1,48,37,10594872
551,21,Ticks_Linear_5,8,5,42,127,10595992
551,21,Ticks_Linear_5,9,1,48,67,11007216
551,21,Ticks_Linear_5,10,5,42,127,11086480
551,21,Ticks_Linear_5,11,1,48,70,11538360
551,21,Ticks_Linear_5,12,5,42,127,11575700
551,21,Ticks_Linear_5,13,1,48,73,12027136
551,21,Ticks_Linear_5,14,5,42,127,12066112
551,21,Ticks_Linear_5,15,5,42,127,12555632
551,21,Ticks_Linear_5,16,1,48,73,12583384
551,21,Ticks_Linear_5,17,1,48,70,13002332
551,21,Ticks_Linear_5,18,5,42,127,13046188
551,21,Ticks_Linear_5,19,1,48,50,13541428
551,21,Ticks_Linear_5,20,5,42,127,13545740
551,21,Ticks_Linear_5,21,1,48,68,14008180
551,21,Ticks_Linear_5,22,5,42,127,14045440
551,21,Ticks_Linear_5,23,1,48,63,14500612
551,21,Ticks_Linear_5,24,5,42,127,14546484
551,21,Ticks_Linear_5,25,1,48,68,15001432
551,21,Ticks_Linear_5,26,5,42,127,15045960
551,21,Ticks_Linear_5,27,1,48,62,15468688
551,21,Ticks_Linear_5,28,1,48,38,15514520
551,21,Ticks_Linear_5,29,5,42,127,15545640
551,21,Ticks_Linear_5,30,1,48,61,15970756
551,21,Ticks_Linear_5,31,1,48,35,16023788
551,21,Ticks_Linear_5,32,5,42,127,16055724
551,21,Ticks_Linear_5,33,1,48,66,16470880
551,21,Ticks_Linear_5,34,1,48,44,16517916
551,21,Ticks_Linear_5,35,5,42,127,16565512
551,21,Ticks_Linear_5,36,1,48,61,16962320
551,21,Ticks_Linear_5,37,1,48,37,17004696
551,21,Ticks_Linear_5,38,5,42,127,17075672
551,21,Ticks_Linear_5,39,1,48,67,17482512
551,21,Ticks_Linear_5,40,1,48,40,17550596
551,21,Ticks_Linear_5,41,5,42,127,17585388
551,21,Ticks_Linear_5,42,1,48,49,18026308
551,21,Ticks_Linear_5,43,5,42,127,18095348
551,21,Ticks_Linear_5,44,1,48,64,18580028
551,21,Ticks_Linear_5,45,5,42,127,18615644
551,21,Ticks_Linear_5,46,1,48,32,18656116
551,21,Ticks_Linear_5,47,1,48,72,19062376
551,21,Ticks_Linear_5,48,5,42,127,19135836
551,21,Ticks_Linear_5,49,1,48,78,19607716
551,21,Ticks_Linear_5,50,5,42,127,19656276
551,21,Ticks_Linear_5,51,1,48,70,20114604
551,21,Ticks_Linear_5,52,5,42,127,20176272
551,21,Ticks_Linear_5,53,1,48,62,20608136
551,21,Ticks_Linear_5,54,1,48,38,20677708
551,21,Ticks_Linear_5,55,5,42,127,20696468
551,21,Ticks_Linear_5,56,1,48,63,21136524
551,21,Ticks_Linear_5,57,5,42,127,21236364
551,21,Ticks_Linear_5,58,1,48,71,21643560
551,21,Ticks_Linear_5,59,5,42,127,21765572
551,21,Ticks_Linear_5,60,1,48,66,22212220
551,21,Ticks_Linear_5,61,5,42,127,22296212
551,21,Ticks_Linear_5,62,1,48,73,22777232
551,21,Ticks_Linear_5,63,5,42,127,22826244
551,21,Ticks_Linear_5,64,1,48,71,23316544
551,21,Ticks_Linear_5,65,5,42,127,23355748
551,21,Ticks_Linear_5,66,1,48,32,23375852
551,21,Ticks_Linear_5,67,1,48,56,23864076
551,21,Ticks_Linear_5,68,5,42,127,23896464
551,21,Ticks_Linear_5,69,1,48,70,24317048
551,21,Ticks_Linear_5,70,5,42,127,24446396
551,21,Ticks_Linear_5,71,1,48,68,24899616
551,21,Ticks_Linear_5,72,5,42,127,24986252
551,21,Ticks_Linear_5,73,1,48,67,25433768
551,21,Ticks_Linear_5,74,1,48,39,25499516
551,21,Ticks_Linear_5,75,5,42,127,25525544
551,21,Ticks_Linear_5,76,1,48,68,25930968
551,21,Ticks_Linear_5,77,5,42,127,26066340
551,21,Ticks_Linear_5,78,1,48,64,26464524
551,21,Ticks_Linear_5,79,1,48,38,26536488
551,21,Ticks_Linear_5,80,5,42,127,26616132
551,21,Ticks_Linear_5,81,1,48,67,26996100
551,21,Ticks_Linear_5,82,1,48,40,27067168
551,21,Ticks_Linear_5,83,5,42,127,27166192
551,21,Ticks_Linear_5,84,1,48,69,27528972
551,21,Ticks_Linear_5,85,1,48,30,27610204
551,21,Ticks_Linear_5,86,5,42,127,27716044
551,21,Ticks_Linear_5,87,1,48,66,28129148
551,21,Ticks_Linear_5,88,5,42,127,28265920
551,21,Ticks_Linear_5,89,1,48,71,28679992
551,21,Ticks_Linear_5,90,5,42,127,28815596
551,21,Ticks_Linear_5,91,1,48,71,29256232
551,21,Ticks_Linear_5,92,1,48,22,29335392
551,21,Ticks_Linear_5,93,5,42,127,29375944
551,21,Ticks_Linear_5,94,1,48,75,29877776
551,21,Ticks_Linear_5,95,5,42,127,29936152
551,21,Ticks_Linear_5,96,1,48,34,29945624
551,21,Ticks_Linear_5,97,1,48,69,30404044
551,21,Ticks_Linear_5,98,1,48,36,30461152
551,21,Ticks_Linear_5,99,5,42,127,30496092
551,21,Ticks_Linear_5,100,1,48,62,30972012
551,21,Ticks_Linear_5,101,1,48,45,31015056
551,21,Ticks_Linear_5,102,5,42,127,31056132
551,21,Ticks_Linear_5,103,1,48,62,31520964
551,21,Ticks_Linear_5,104,1,48,36,31563248
551,21,Ticks_Linear_5,105,5,42,127,31616492
551,21,Ticks_Linear_5,106,1,48,62,32071336
551,21,Ticks_Linear_5,107,5,42,127,32185896
551,21,Ticks_Linear_5,108,1,48,58,32614780
551,21,Ticks_Linear_5,109,1,48,37,32657388
551,21,Ticks_Linear_5,110,5,42,127,32756636
551,21,Ticks_Linear_5,111,1,48,67,33193476
551,21,Ticks_Linear_5,112,1,48,44,33234576
551,21,Ticks_Linear_5,113,5,42,127,33325380
551,21,Ticks_Linear_5,114,1,48,71,33715556
551,21,Ticks_Linear_5,115,1,48,43,33780980
551,21,Ticks_Linear_5,116,5,42,127,33895960
551,21,Ticks_Linear_5,117,1,48,67,34300300
551,21,Ticks_Linear_5,118,5,42,127,34466228
551,21,Ticks_Linear_5,119,1,48,64,34878256
551,21,Ticks_Linear_5,120,5,42,127,35045980
551,21,Ticks_Linear_5,121,1,48,58,35410676
551,21,Ticks_Linear_5,122,1,48,38,35465284
551,21,Ticks_Linear_5,123,5,42,127,35626312
551,21,Ticks_Linear_5,124,1,48,60,35964804
551,21,Ticks_Linear_5,125,1,48,42,36018352
551,21,Ticks_Linear_5,126,5,42,127,36205968
551,21,Ticks_Linear_5,127,1,48,63,36538120
551,21,Ticks_Linear_5,128,1,48,40,36594044
551,21,Ticks_Linear_5,129,5,42,127,36785652
551,21,Ticks_Linear_5,130,1,48,61,37098832
551,21,Ticks_Linear_5,131,1,48,39,37156104
551,21,Ticks_Linear_5,132,5,42,127,37366132
551,21,Ticks_Linear_5,133,1,48,63,37631828
551,21,Ticks_Linear_5,134,1,48,41,37684908
551,21,Ticks_Linear_5,135,5,42,127,37955900
551,21,Ticks_Linear_5,136,1,48,57,38222788
551,21,Ticks_Linear_5,137,5,42,127,38545640
551,21,Ticks_Linear_5,138,1,48,59,38770948
551,21,Ticks_Linear_5,139,1,48,36,38832504
551,21,Ticks_Linear_5,140,5,42,127,39135852
551,21,Ticks_Linear_5,141,1,48,59,39351824
551,21,Ticks_Linear_5,142,1,48,32,39411712
551,21,Ticks_Linear_5,143,5,42,127,39725620
551,21,Ticks_Linear_5,144,1,48,59,39981508
551,21,Ticks_Linear_5,145,5,42,127,40316236
551,21,Ticks_Linear_5,146,1,48,68,40537232
551,21,Ticks_Linear_5,147,5,42,127,40916232
551,21,Ticks_Linear_5,148,1,48,64,41104952
551,21,Ticks_Linear_5,149,5,42,127,41516284
551,21,Ticks_Linear_5,150,1,48,65,41668976
551,21,Ticks_Linear_5,151,5,42,127,42115532
551,21,Ticks_Linear_5,152,1,48,54,42213076
551,21,Ticks_Linear_5,153,5,42,127,42715728
551,21,Ticks_Linear_5,154,1,48,60,42795536
551,21,Ticks_Linear_5,155,5,42,127,43315700
551,21,Ticks_Linear_5,156,1,48,65,43339792
551,21,Ticks_Linear_5,157,1,48,58,43863216
551,21,Ticks_Linear_5,158,5,42,127,43926028
551,21,Ticks_Linear_5,159,1,48,66,44405076
551,21,Ticks_Linear_5,160,1,48,24,44474124
551,21,Ticks_Linear_5,161,5,42,127,44536240
551,21,Ticks_Linear_5,162,1,48,60,44985276
551,21,Ticks_Linear_5,163,5,42,127,45145636
551,21,Ticks_Linear_5,164,1,48,63,45531328
551,21,Ticks_Linear_5,165,5,42,127,45755820
551,21,Ticks_Linear_5,166,1,48,67,46101572
551,21,Ticks_Linear_5,167,5,42,127,46366200
551,21,Ticks_Linear_5,168,1,48,70,46686276
551,21,Ticks_Linear_5,169,5,42,127,46985452
551,21,Ticks_Linear_5,170,1,48,72,47231748
551,21,Ticks_Linear_5,171,5,42,127,47606092
551,21,Ticks_Linear_5,172,1,48,60,47894864
551,21,Ticks_Linear_5,173,5,42,127,48225612
551,21,Ticks_Linear_5,174,1,48,56,48401068
551,21,Ticks_Linear_5,175,5,42,127,48846352
551,21,Ticks_Linear_5,176,1,48,73,49012128
551,21,Ticks_Linear_5,177,5,42,127,49465576
551,21,Ticks_Linear_5,178,1,48,67,49594760
551,21,Ticks_Linear_5,179,5,42,127,50095604
551,21,Ticks_Linear_5,180,1,48,59,50151668
551,21,Ticks_Linear_5,181,1,48,62,50696360
551,21,Ticks_Linear_5,182,5,42,127,50726424
551,21,Ticks_Linear_5,183,1,48,65,51257760
551,21,Ticks_Linear_5,184,5,42,127,51355928
551,21,Ticks_Linear_5,185,1,48,62,51825532
551,21,Ticks_Linear_5,186,1,48,33,51895556
551,21,Ticks_Linear_5,187,5,42,127,51985760
551,21,Ticks_Linear_5,188,1,48,52,52424612
551,21,Ticks_Linear_5,189,5,42,127,52615476
551,21,Ticks_Linear_5,190,1,48,64,53039856
551,21,Ticks_Linear_5,191,5,42,127,53255512
551,21,Ticks_Linear_5,192,1,48,62,53664644
551,21,Ticks_Linear_5,193,5,42,127,53895500
551,21,Ticks_Linear_5,194,1,48,72,54235040
551,21,Ticks_Linear_5,195,5,42,127,54535540
551,21,Ticks_Linear_5,196,1,48,67,54951112
551,21,Ticks_Linear_5,197,5,42,127,55175600
551,21,Ticks_Linear_5,198,1,48,56,55607556
551,21,Ticks_Linear_5,199,5,42,127,55815492
551,21,Ticks_Linear_5,200,1,48,64,56244552
551,21,Ticks_Linear_5,201,5,42,127,56465664
551,21,Ticks_Linear_5,202,1,48,62,56943828
551,21,Ticks_Linear_5,203,5,42,127,57116260
551,21,Ticks_Linear_5,204,1,48,64,57654356
551,21,Ticks_Linear_5,205,5,42,127,57766280
551,21,Ticks_Linear_5,206,1,48,55,58354472
551,21,Ticks_Linear_5,207,5,42,127,58415396
551,21,Ticks_Linear_5,208,1,48,65,59028160
551,21,Ticks_Linear_5,209,5,42,127,59065644
551,21,Ticks_Linear_5,210,1,48,44,59089268
551,21,Ticks_Linear_5,211,1,48,59,59711832
551,21,Ticks_Linear_5,212,5,42,127,59726252
551,21,Ticks_Linear_5,213,5,42,127,60385720
551,21,Ticks_Linear_5,214,1,48,63,60403284
551,21,Ticks_Linear_5,215,1,48,40,60462052
551,21,Ticks_Linear_5,216,5,42,127,61046104
551,21,Ticks_Linear_5,217,1,48,62,61058240
551,21,Ticks_Linear_5,218,1,48,61,61680128
551,21,Ticks_Linear_5,219,5,42,127,61705484
551,21,Ticks_Linear_5,220,1,48,33,61749552
551,21,Ticks_Linear_5,221,1,48,56,62342104
551,21,Ticks_Linear_5,222,5,42,127,62366340
551,21,Ticks_Linear_5,223,1,48,27,62412648
551,21,Ticks_Linear_5,224,1,48,65,62984680
551,21,Ticks_Linear_5,225,5,42,127,63035640
551,21,Ticks_Linear_5,226,1,48,33,63056644
551,21,Ticks_Linear_5,227,1,48,67,63616036
551,21,Ticks_Linear_5,228,1,48,42,63665588
551,21,Ticks_Linear_5,229,5,42,127,63705468
551,21,Ticks_Linear_5,230,1,48,59,64279112
551,21,Ticks_Linear_5,231,1,48,43,64324780
551,21,Ticks_Linear_5,232,5,42,127,64376336
551,21,Ticks_Linear_5,233,1,48,64,64941396
551,21,Ticks_Linear_5,234,1,48,46,64984812
551,21,Ticks_Linear_5,235,5,42,127,65045960
551,21,Ticks_Linear_5,236,1,48,66,65615044
551,21,Ticks_Linear_5,237,1,48,43,65660616
551,21,Ticks_Linear_5,238,5,42,127,65715508
551,21,Ticks_Linear_5,239,1,48,58,66267736
551,21,Ticks_Linear_5,240,1,48,42,66311520
551,21,Ticks_Linear_5,241,5,42,127,66395436
551,21,Ticks_Linear_5,242,1,48,62,66915396
551,21,Ticks_Linear_5,243,1,48,40,66958076
551,21,Ticks_Linear_5,244,5,42,127,67075456
551,21,Ticks_Linear_5,245,1,48,64,67618340
551,21,Ticks_Linear_5,246,5,42,127,67756408
551,21,Ticks_Linear_5,247,1,48,61,68328420
551,21,Ticks_Linear_5,248,5,42,127,68436360
551,21,Ticks_Linear_5,249,1,48,51,69017016
551,21,Ticks_Linear_5,250,5,42,127,69116560
551,21,Ticks_Linear_5,251,1,48,61,69655556
551,21,Ticks_Linear_5,252,1,48,32,69721204
551,21,Ticks_Linear_5,253,5,42,127,69805372
551,21,Ticks_Linear_5,254,1,48,44,70343660
551,21,Ticks_Linear_5,255,5,42,127,70495716
551,21,Ticks_Linear_5,256,1,48,67,70993660
551,21,Ticks_Linear_5,257,5,42,127,71185880
551,21,Ticks_Linear_5,258,1,48,79,71618156
551,21,Ticks_Linear_5,259,1,48,48,71669808
551,21,Ticks_Linear_5,260,5,42,127,71875872
551,21,Ticks_Linear_5,261,1,48,81,72306552
551,21,Ticks_Linear_5,262,1,48,48,72360400
551,21,Ticks_Linear_5,263,5,42,127,72566144
551,21,Ticks_Linear_5,264,1,48,72,72990252
551,21,Ticks_Linear_5,265,1,48,47,73042648
551,21,Ticks_Linear_5,266,5,42,127,73265792
551,21,Ticks_Linear_5,267,1,48,75,73667968
551,21,Ticks_Linear_5,268,5,42,127,73966068
551,21,Ticks_Linear_5,269,1,48,70,74345676
551,21,Ticks_Linear_5,270,5,42,127,74666340
551,21,Ticks_Linear_5,271,1,48,51,75020632
551,21,Ticks_Linear_5,272,5,42,127,75365764
551,21,Ticks_Linear_5,273,1,48,91,75712288
551,21,Ticks_Linear_5,274,5,42,127,76066036
551,21,Ticks_Linear_5,275,1,48,95,76393136
551,21,Ticks_Linear_5,276,1,48,30,76475976
551,21,Ticks_Linear_5,277,5,42,127,76775800
551,21,Ticks_Linear_5,278,1,48,77,77117064
551,21,Ticks_Linear_5,279,5,42,127,77485584
551,21,Ticks_Linear_5,280,1,48,65,77866312
551,21,Ticks_Linear_5,281,5,42,127,78196088
551,21,Ticks_Linear_5,282,1,48,54,78519176
551,21,Ticks_Linear_5,283,5,42,127,78905796
551,21,Ticks_Linear_5,284,1,48,62,79238844
551,21,Ticks_Linear_5,285,5,42,127,79616704
551,21,Ticks_Linear_5,286,1,48,68,79936776
551,21,Ticks_Linear_5,287,5,42,127,80336220
551,21,Ticks_Linear_5,288,1,48,71,80616608
551,21,Ticks_Linear_5,289,1,48,44,80675292
551,21,Ticks_Linear_5,290,5,42,127,81056020
551,21,Ticks_Linear_5,291,1,48,70,81355872
551,21,Ticks_Linear_5,292,5,42,127,81776108
551,21,Ticks_Linear_5,293,1,48,71,82065128
551,21,Ticks_Linear_5,294,5,42,127,82495852
551,21,Ticks_Linear_5,295,1,48,73,82776612
551,21,Ticks_Linear_5,296,5,42,127,83215748
551,21,Ticks_Linear_5,297,1,48,73,83472232
551,21,Ticks_Linear_5,298,1,48,26,83537892
551,21,Ticks_Linear_5,299,5,42,127,83945876
551,21,Ticks_Linear_5,300,1,48,75,84204620
551,21,Ticks_Linear_5,301,5,42,127,84675880
551,21,Ticks_Linear_5,302,1,48,75,84870956
551,21,Ticks_Linear_5,303,1,48,34,84933692
551,21,Ticks_Linear_5,304,5,42,127,85406012
551,21,Ticks_Linear_5,305,1,48,66,85535772
551,21,Ticks_Linear_5,306,5,42,127,86136064
551,21,Ticks_Linear_5,307,1,48,62,86230196
551,21,Ticks_Linear_5,308,5,42,127,86866512
551,21,Ticks_Linear_5,309,1,48,82,86883032
551,21,Ticks_Linear_5,310,1,48,86,87523984
551,21,Ticks_Linear_5,311,5,42,127,87605576
551,21,Ticks_Linear_5,312,1,48,83,88194000
551,21,Ticks_Linear_5,313,5,42,127,88345972
551,21,Ticks_Linear_5,314,1,48,78,88914692
551,21,Ticks_Linear_5,315,1,48,43,88959400
551,21,Ticks_Linear_5,316,5,42,127,89086436
551,21,Ticks_Linear_5,317,1,48,73,89622648
551,21,Ticks_Linear_5,318,5,42,127,89825648
551,21,Ticks_Linear_5,319,1,48,75,90271548
551,21,Ticks_Linear_5,320,5,42,127,90566064
551,21,Ticks_Linear_5,321,1,48,72,91031812
551,21,Ticks_Linear_5,322,5,42,127,91315464
551,21,Ticks_Linear_5,323,1,48,74,91721800
551,21,Ticks_Linear_5,324,5,42,127,92066360
551,21,Ticks_Linear_5,325,1,48,72,92359616
551,21,Ticks_Linear_5,326,5,42,127,92815608
551,21,Ticks_Linear_5,327,1,48,61,93235656
551,21,Ticks_Linear_5,328,5,42,127,93566504
551,21,Ticks_Linear_5,329,1,48,64,93910388
551,21,Ticks_Linear_5,330,5,42,127,94315808
551,21,Ticks_Linear_5,331,1,48,65,94580380
551,21,Ticks_Linear_5,332,5,42,127,95075616
551,21,Ticks_Linear_5,333,1,48,72,95240064
551,21,Ticks_Linear_5,334,5,42,127,95835500
551,21,Ticks_Linear_5,335,1,48,70,95850372
551,21,Ticks_Linear_5,336,1,48,43,95909240
551,21,Ticks_Linear_5,337,1,48,65,96511584
551,21,Ticks_Linear_5,338,1,48,30,96577024
551,21,Ticks_Linear_5,339,5,42,127,96596232
551,21,Ticks_Linear_5,340,1,48,75,97208696
551,21,Ticks_Linear_5,341,1,48,40,97266340
551,21,Ticks_Linear_5,342,5,42,127,97356244
551,21,Ticks_Linear_5,343,1,48,71,97895524
551,21,Ticks_Linear_5,344,1,48,32,97954760
551,21,Ticks_Linear_5,345,5,42,127,98116088
551,21,Ticks_Linear_5,346,1,48,67,98569932
551,21,Ticks_Linear_5,347,5,42,127,98886232
551,21,Ticks_Linear_5,348,1,48,61,99225948
551,21,Ticks_Linear_5,349,5,42,127,99656076
551,21,Ticks_Linear_5,350,1,48,58,99941916
551,21,Ticks_Linear_5,351,5,42,127,100426068
551,21,Ticks_Linear_5,352,1,48,65,100698056
551,21,Ticks_Linear_5,353,5,42,127,101196284
551,21,Ticks_Linear_5,354,1,48,74,101482876
551,21,Ticks_Linear_5,355,1,48,42,101534484
551,21,Ticks_Linear_5,356,5,42,127,101966108
551,21,Ticks_Linear_5,357,1,48,70,102173088
551,21,Ticks_Linear_5,358,1,48,33,102237332
551,21,Ticks_Linear_5,359,5,42,127,102745368
551,21,Ticks_Linear_5,360,1,48,69,102846616
551,21,Ticks_Linear_5,361,1,48,42,102906956
551,21,Ticks_Linear_5,362,5,42,127,103525748
551,21,Ticks_Linear_5,363,1,48,69,103533892
551,21,Ticks_Linear_5,364,1,48,47,103590572
551,21,Ticks_Linear_5,365,1,48,70,104246476
551,21,Ticks_Linear_5,366,1,48,49,104304064
551,21,Ticks_Linear_5,367,5,42,127,104306096
551,21,Ticks_Linear_5,368,1,48,67,104979892
551,21,Ticks_Linear_5,369,1,48,35,105040380
551,21,Ticks_Linear_5,370,5,42,127,105086428
551,21,Ticks_Linear_5,371,1,48,70,105681636
551,21,Ticks_Linear_5,372,1,48,46,105735396
551,21,Ticks_Linear_5,373,5,42,127,105865744
551,21,Ticks_Linear_5,374,1,48,72,106363916
551,21,Ticks_Linear_5,375,1,48,38,106426884
551,21,Ticks_Linear_5,376,5,42,127,106656088
551,21,Ticks_Linear_5,377,1,48,71,107155236
551,21,Ticks_Linear_5,378,1,48,39,107223816
551,21,Ticks_Linear_5,379,5,42,127,107445752
551,21,Ticks_Linear_5,380,1,48,70,107980024
551,21,Ticks_Linear_5,381,1,48,42,108040884
551,21,Ticks_Linear_5,382,5,42,127,108236096
551,21,Ticks_Linear_5,383,1,48,73,108649696
551,21,Ticks_Linear_5,384,1,48,46,108703764
551,21,Ticks_Linear_5,385,5,42,127,109025908
551,21,Ticks_Linear_5,386,1,48,68,109385444
551,21,Ticks_Linear_5,387,1,48,45,109438840
551,21,Ticks_Linear_5,388,5,42,127,109816176
551,21,Ticks_Linear_5,389,1,48,65,110077164
551,21,Ticks_Linear_5,390,1,48,48,110132328
551,21,Ticks_Linear_5,391,5,42,127,110615804
551,21,Ticks_Linear_5,392,1,48,60,110810584
551,21,Ticks_Linear_5,393,5,42,127,111415824
551,21,Ticks_Linear_5,394,1,48,72,111559984
551,21,Ticks_Linear_5,395,1,48,42,111616580
551,21,Ticks_Linear_5,396,5,42,127,112216352
551,21,Ticks_Linear_5,397,1,48,69,112266528
551,21,Ticks_Linear_5,398,1,48,54,112305520
551,21,Ticks_Linear_5,399,1,48,69,112971588
551,21,Ticks_Linear_5,400,5,42,127,113026332
551,21,Ticks_Linear_5,401,1,48,42,113030028
551,21,Ticks_Linear_5,402,1,48,71,113672516
551,21,Ticks_Linear_5,403,1,48,52,113729188
551,21,Ticks_Linear_5,404,5,42,127,113836328
551,21,Ticks_Linear_5,405,1,48,67,114432304
551,21,Ticks_Linear_5,406,1,48,43,114494292
551,21,Ticks_Linear_5,407,5,42,127,114646292
551,21,Ticks_Linear_5,408,1,48,62,115110460
551,21,Ticks_Linear_5,409,1,48,42,115152596
551,21,Ticks_Linear_5,410,5,42,127,115456324
551,21,Ticks_Linear_5,411,1,48,71,115951348
551,21,Ticks_Linear_5,412,1,48,50,116003592
551,21,Ticks_Linear_5,413,5,42,127,116266432
551,21,Ticks_Linear_5,414,1,48,67,116741168
551,21,Ticks_Linear_5,415,5,42,127,117076412
551,21,Ticks_Linear_5,416,1,48,70,117524120
551,21,Ticks_Linear_5,417,1,48,33,117598312
551,21,Ticks_Linear_5,418,5,42,127,117886772
551,21,Ticks_Linear_5,0,9999,9999,9999,8673392
551,21,Ticks_Linear_5,1,9999,9999,9999,9153640
551,21,Ticks_Linear_5,2,9999,9999,9999,9633868
551,21,Ticks_Linear_5,3,9999,9999,9999,10113124
551,21,Ticks_Linear_5,4,9999,9999,9999,10593364
551,21,Ticks_Linear_5,5,9999,9999,9999,11083884
551,21,Ticks_Linear_5,6,9999,9999,9999,11573324
551,21,Ticks_Linear_5,7,9999,9999,9999,12063812
551,21,Ticks_Linear_5,8,9999,9999,9999,12553336
551,21,Ticks_Linear_5,9,9999,9999,9999,13043816
551,21,Ticks_Linear_5,10,9999,9999,9999,13543516
551,21,Ticks_Linear_5,11,9999,9999,9999,14043216
551,21,Ticks_Linear_5,12,9999,9999,9999,14543964
551,21,Ticks_Linear_5,13,9999,9999,9999,15043664
551,21,Ticks_Linear_5,14,9999,9999,9999,15543416
551,21,Ticks_Linear_5,15,9999,9999,9999,16053352
551,21,Ticks_Linear_5,16,9999,9999,9999,16563288
551,21,Ticks_Linear_5,17,9999,9999,9999,17073228
551,21,Ticks_Linear_5,18,9999,9999,9999,17583164
551,21,Ticks_Linear_5,19,9999,9999,9999,18093124
551,21,Ticks_Linear_5,20,9999,9999,9999,18613344
551,21,Ticks_Linear_5,21,9999,9999,9999,19133540
551,21,Ticks_Linear_5,22,9999,9999,9999,19653756
551,21,Ticks_Linear_5,23,9999,9999,9999,20173900
551,21,Ticks_Linear_5,24,9999,9999,9999,20694096
551,21,Ticks_Linear_5,25,9999,9999,9999,21233768
551,21,Ticks_Linear_5,26,9999,9999,9999,21763200
551,21,Ticks_Linear_5,27,9999,9999,9999,22293616
551,21,Ticks_Linear_5,28,9999,9999,9999,22824020
551,21,Ticks_Linear_5,29,9999,9999,9999,23353452
551,21,Ticks_Linear_5,30,9999,9999,9999,23894092
551,21,Ticks_Linear_5,31,9999,9999,9999,24444024
551,21,Ticks_Linear_5,32,9999,9999,9999,24983656
551,21,Ticks_Linear_5,33,9999,9999,9999,25523320
551,21,Ticks_Linear_5,34,9999,9999,9999,26063968
551,21,Ticks_Linear_5,35,9999,9999,9999,26613836
551,21,Ticks_Linear_5,36,9999,9999,9999,27163748
551,21,Ticks_Linear_5,37,9999,9999,9999,27713600
551,21,Ticks_Linear_5,38,9999,9999,9999,28263548
551,21,Ticks_Linear_5,39,9999,9999,9999,28813372
551,21,Ticks_Linear_5,40,9999,9999,9999,29373496
551,21,Ticks_Linear_5,41,9999,9999,9999,29933632
551,21,Ticks_Linear_5,42,9999,9999,9999,30493796
551,21,Ticks_Linear_5,43,9999,9999,9999,31053908
551,21,Ticks_Linear_5,44,9999,9999,9999,31614016
551,21,Ticks_Linear_5,45,9999,9999,9999,32183372
551,21,Ticks_Linear_5,46,9999,9999,9999,32753756
551,21,Ticks_Linear_5,47,9999,9999,9999,33323080
551,21,Ticks_Linear_5,48,9999,9999,9999,33893436
551,21,Ticks_Linear_5,49,9999,9999,9999,34463852
551,21,Ticks_Linear_5,50,9999,9999,9999,35043384
551,21,Ticks_Linear_5,51,9999,9999,9999,35624016
551,21,Ticks_Linear_5,52,9999,9999,9999,36203596
551,21,Ticks_Linear_5,53,9999,9999,9999,36783204
551,21,Ticks_Linear_5,54,9999,9999,9999,37363832
551,21,Ticks_Linear_5,55,9999,9999,9999,37953604
551,21,Ticks_Linear_5,56,9999,9999,9999,38543416
551,21,Ticks_Linear_5,57,9999,9999,9999,39133256
551,21,Ticks_Linear_5,58,9999,9999,9999,39723100
551,21,Ticks_Linear_5,59,9999,9999,9999,40313936
551,21,Ticks_Linear_5,60,9999,9999,9999,40914008
551,21,Ticks_Linear_5,61,9999,9999,9999,41514056
551,21,Ticks_Linear_5,62,9999,9999,9999,42113084
551,21,Ticks_Linear_5,63,9999,9999,9999,42713208
551,21,Ticks_Linear_5,64,9999,9999,9999,43313256
551,21,Ticks_Linear_5,65,9999,9999,9999,43923580
551,21,Ticks_Linear_5,66,9999,9999,9999,44533868
551,21,Ticks_Linear_5,67,9999,9999,9999,45143112
551,21,Ticks_Linear_5,68,9999,9999,9999,45753448
551,21,Ticks_Linear_5,69,9999,9999,9999,46363752
551,21,Ticks_Linear_5,70,9999,9999,9999,46983228
551,21,Ticks_Linear_5,71,9999,9999,9999,47603796
551,21,Ticks_Linear_5,72,9999,9999,9999,48223316
551,21,Ticks_Linear_5,73,9999,9999,9999,48843828
551,21,Ticks_Linear_5,74,9999,9999,9999,49463352
551,21,Ticks_Linear_5,75,9999,9999,9999,50093156
551,21,Ticks_Linear_5,76,9999,9999,9999,50723900
551,21,Ticks_Linear_5,77,9999,9999,9999,51353704
551,21,Ticks_Linear_5,78,9999,9999,9999,51983460
551,21,Ticks_Linear_5,79,9999,9999,9999,52613176
551,21,Ticks_Linear_5,80,9999,9999,9999,53253212
551,21,Ticks_Linear_5,81,9999,9999,9999,53893200
551,21,Ticks_Linear_5,82,9999,9999,9999,54533240
551,21,Ticks_Linear_5,83,9999,9999,9999,55173228
551,21,Ticks_Linear_5,84,9999,9999,9999,55813192
551,21,Ticks_Linear_5,85,9999,9999,9999,56463440
551,21,Ticks_Linear_5,86,9999,9999,9999,57113660
551,21,Ticks_Linear_5,87,9999,9999,9999,57763908
551,21,Ticks_Linear_5,88,9999,9999,9999,58413172
551,21,Ticks_Linear_5,89,9999,9999,9999,59063420
551,21,Ticks_Linear_5,90,9999,9999,9999,59723880
551,21,Ticks_Linear_5,91,9999,9999,9999,60383348
551,21,Ticks_Linear_5,92,9999,9999,9999,61043808
551,21,Ticks_Linear_5,93,9999,9999,9999,61703260
551,21,Ticks_Linear_5,94,9999,9999,9999,62363744
551,21,Ticks_Linear_5,95,9999,9999,9999,63033416
551,21,Ticks_Linear_5,96,9999,9999,9999,63703096
551,21,Ticks_Linear_5,97,9999,9999,9999,64373812
551,21,Ticks_Linear_5,98,9999,9999,9999,65043512
551,21,Ticks_Linear_5,99,9999,9999,9999,65713208
551,21,Ticks_Linear_5,100,9999,9999,9999,66393212
551,21,Ticks_Linear_5,101,9999,9999,9999,67073080
551,21,Ticks_Linear_5,102,9999,9999,9999,67754104
551,21,Ticks_Linear_5,103,9999,9999,9999,68433984
551,21,Ticks_Linear_5,104,9999,9999,9999,69113980
551,21,Ticks_Linear_5,105,9999,9999,9999,69803072
551,21,Ticks_Linear_5,106,9999,9999,9999,70493268
551,21,Ticks_Linear_5,107,9999,9999,9999,71183432
551,21,Ticks_Linear_5,108,9999,9999,9999,71873648
551,21,Ticks_Linear_5,109,9999,9999,9999,72563768
551,21,Ticks_Linear_5,110,9999,9999,9999,73263196
551,21,Ticks_Linear_5,111,9999,9999,9999,73963620
551,21,Ticks_Linear_5,112,9999,9999,9999,74664044
551,21,Ticks_Linear_5,113,9999,9999,9999,75363392
551,21,Ticks_Linear_5,114,9999,9999,9999,76063812
551,21,Ticks_Linear_5,115,9999,9999,9999,76773500
551,21,Ticks_Linear_5,116,9999,9999,9999,77483136
551,21,Ticks_Linear_5,117,9999,9999,9999,78193788
551,21,Ticks_Linear_5,118,9999,9999,9999,78903424
551,21,Ticks_Linear_5,119,9999,9999,9999,79614028
551,21,Ticks_Linear_5,120,9999,9999,9999,80333924
551,21,Ticks_Linear_5,121,9999,9999,9999,81053796
551,21,Ticks_Linear_5,122,9999,9999,9999,81773664
551,21,Ticks_Linear_5,123,9999,9999,9999,82493556
551,21,Ticks_Linear_5,124,9999,9999,9999,83213372
551,21,Ticks_Linear_5,125,9999,9999,9999,83943504
551,21,Ticks_Linear_5,126,9999,9999,9999,84673656
551,21,Ticks_Linear_5,127,9999,9999,9999,85403712
551,21,Ticks_Linear_5,128,9999,9999,9999,86133840
551,21,Ticks_Linear_5,129,9999,9999,9999,86863988
551,21,Ticks_Linear_5,130,9999,9999,9999,87603276
551,21,Ticks_Linear_5,131,9999,9999,9999,88343672
551,21,Ticks_Linear_5,132,9999,9999,9999,89083988
551,21,Ticks_Linear_5,133,9999,9999,9999,89823352
551,21,Ticks_Linear_5,134,9999,9999,9999,90563692
551,21,Ticks_Linear_5,135,9999,9999,9999,91313240
551,21,Ticks_Linear_5,136,9999,9999,9999,92063836
551,21,Ticks_Linear_5,137,9999,9999,9999,92813384
551,21,Ticks_Linear_5,138,9999,9999,9999,93563980
551,21,Ticks_Linear_5,139,9999,9999,9999,94313584
551,21,Ticks_Linear_5,140,9999,9999,9999,95073392
551,21,Ticks_Linear_5,141,9999,9999,9999,95833200
551,21,Ticks_Linear_5,142,9999,9999,9999,96594008
551,21,Ticks_Linear_5,143,9999,9999,9999,97353796
551,21,Ticks_Linear_5,144,9999,9999,9999,98113640
551,21,Ticks_Linear_5,145,9999,9999,9999,98883708
551,21,Ticks_Linear_5,146,9999,9999,9999,99653700
551,21,Ticks_Linear_5,147,9999,9999,9999,100423768
551,21,Ticks_Linear_5,148,9999,9999,9999,101193836
551,21,Ticks_Linear_5,149,9999,9999,9999,101963884
551,21,Ticks_Linear_5,150,9999,9999,9999,102743144
551,21,Ticks_Linear_5,151,9999,9999,9999,103523448
551,21,Ticks_Linear_5,152,9999,9999,9999,104303676
551,21,Ticks_Linear_5,153,9999,9999,9999,105083980
551,21,Ticks_Linear_5,154,9999,9999,9999,105863220
551,21,Ticks_Linear_5,155,9999,9999,9999,106653788
551,21,Ticks_Linear_5,156,9999,9999,9999,107443308
551,21,Ticks_Linear_5,157,9999,9999,9999,108233796
551,21,Ticks_Linear_5,158,9999,9999,9999,109023312
551,21,Ticks_Linear_5,159,9999,9999,9999,109813876
551,21,Ticks_Linear_5,160,9999,9999,9999,110613580
551,21,Ticks_Linear_5,161,9999,9999,9999,111413304
551,21,Ticks_Linear_5,162,9999,9999,9999,112214124
551,21,Ticks_Linear_5,163,9999,9999,9999,113024104
551,21,Ticks_Linear_5,164,9999,9999,9999,113834104
551,21,Ticks_Linear_5,165,9999,9999,9999,114644064
551,21,Ticks_Linear_5,166,9999,9999,9999,115454024
551,21,Ticks_Linear_5,167,9999,9999,9999,116264056
551,21,Ticks_Linear_5,168,9999,9999,9999,117074040
551,21,Ticks_Linear_5,169,9999,9999,9999,117884024
552,20,Ticks_Linear_8,0,5,42,127,128758316
552,20,Ticks_Linear_8,1,1,48,45,129086104
552,20,Ticks_Linear_8,2,5,42,127,129578632
552,20,Ticks_Linear_8,3,1,48,49,129782252
552,20,Ticks_Linear_8,4,5,42,127,130397532
552,20,Ticks_Linear_8,5,1,48,58,130467700
552,20,Ticks_Linear_8,6,1,48,60,131129584
552,20,Ticks_Linear_8,7,1,48,43,131161084
552,20,Ticks_Linear_8,8,5,42,127,131217992
552,20,Ticks_Linear_8,9,1,48,61,131801072
552,20,Ticks_Linear_8,10,1,48,43,131830556
552,20,Ticks_Linear_8,11,5,42,127,132037976
552,20,Ticks_Linear_8,12,1,48,58,132505140
552,20,Ticks_Linear_8,13,5,42,127,132847956
552,20,Ticks_Linear_8,14,1,48,54,133325008
552,20,Ticks_Linear_8,15,5,42,127,133658016
552,20,Ticks_Linear_8,16,1,48,63,134043032
552,20,Ticks_Linear_8,17,5,42,127,134468072
552,20,Ticks_Linear_8,18,1,48,52,134776612
552,20,Ticks_Linear_8,19,5,42,127,135278128
552,20,Ticks_Linear_8,20,1,48,58,135579204
552,20,Ticks_Linear_8,21,5,42,127,136088140
552,20,Ticks_Linear_8,22,1,48,56,136345368
552,20,Ticks_Linear_8,23,5,42,127,136887568
552,20,Ticks_Linear_8,24,1,48,59,137128480
552,20,Ticks_Linear_8,25,5,42,127,137688412
552,20,Ticks_Linear_8,26,1,48,61,137888288
552,20,Ticks_Linear_8,27,5,42,127,138498468
552,20,Ticks_Linear_8,28,1,48,55,138737288
552,20,Ticks_Linear_8,29,5,42,127,139308376
552,20,Ticks_Linear_8,30,1,48,55,139563144
552,20,Ticks_Linear_8,31,5,42,127,140108028
552,20,Ticks_Linear_8,32,1,48,51,140378300
552,20,Ticks_Linear_8,33,5,42,127,140897568
552,20,Ticks_Linear_8,34,1,48,55,141188976
552,20,Ticks_Linear_8,35,5,42,127,141688152
552,20,Ticks_Linear_8,36,1,48,56,141982480
552,20,Ticks_Linear_8,37,5,42,127,142477792
552,20,Ticks_Linear_8,38,1,48,54,142785048
552,20,Ticks_Linear_8,39,5,42,127,143268152
552,20,Ticks_Linear_8,40,1,48,57,143548384
552,20,Ticks_Linear_8,41,5,42,127,144057844
552,20,Ticks_Linear_8,42,1,48,46,144353868
552,20,Ticks_Linear_8,43,5,42,127,144838096
552,20,Ticks_Linear_8,44,1,48,59,145115932
552,20,Ticks_Linear_8,45,5,42,127,145618276
552,20,Ticks_Linear_8,46,1,48,66,145870272
552,20,Ticks_Linear_8,47,1,48,42,145906496
552,20,Ticks_Linear_8,48,5,42,127,146397456
552,20,Ticks_Linear_8,49,1,48,67,146657168
552,20,Ticks_Linear_8,50,1,48,43,146705824
552,20,Ticks_Linear_8,51,5,42,127,147177912
552,20,Ticks_Linear_8,52,1,48,55,147538644
552,20,Ticks_Linear_8,53,5,42,127,147958016
552,20,Ticks_Linear_8,54,1,48,64,148312232
552,20,Ticks_Linear_8,55,1,48,34,148374612
552,20,Ticks_Linear_8,56,5,42,127,148728136
552,20,Ticks_Linear_8,57,1,48,53,148971364
552,20,Ticks_Linear_8,58,5,42,127,149498204
552,20,Ticks_Linear_8,59,1,48,51,149870844
552,20,Ticks_Linear_8,60,1,48,23,149940344
552,20,Ticks_Linear_8,61,5,42,127,150268172
552,20,Ticks_Linear_8,62,1,48,52,150630252
552,20,Ticks_Linear_8,63,1,48,20,150711584
552,20,Ticks_Linear_8,64,5,42,127,151038292
552,20,Ticks_Linear_8,65,1,48,53,151494828
552,20,Ticks_Linear_8,66,5,42,127,151808364
552,20,Ticks_Linear_8,67,5,42,127,152568044
552,20,Ticks_Linear_8,68,1,48,49,152593552
552,20,Ticks_Linear_8,69,1,48,53,153203684
552,20,Ticks_Linear_8,70,5,42,127,153327908
552,20,Ticks_Linear_8,71,1,48,69,153924328
552,20,Ticks_Linear_8,72,5,42,127,154087792
552,20,Ticks_Linear_8,73,1,48,67,154596384
552,20,Ticks_Linear_8,74,5,42,127,154847600
552,20,Ticks_Linear_8,75,1,48,59,155302112
552,20,Ticks_Linear_8,76,1,48,19,155403560
552,20,Ticks_Linear_8,77,5,42,127,155608584
552,20,Ticks_Linear_8,78,1,48,36,156028876
552,20,Ticks_Linear_8,79,5,42,127,156368168
552,20,Ticks_Linear_8,80,1,48,78,156736544
552,20,Ticks_Linear_8,81,5,42,127,157117792
552,20,Ticks_Linear_8,82,1,48,68,157353752
552,20,Ticks_Linear_8,83,5,42,127,157868540
552,20,Ticks_Linear_8,84,1,48,43,158011920
552,20,Ticks_Linear_8,85,5,42,127,158618012
552,20,Ticks_Linear_8,86,5,42,127,159367808
552,20,Ticks_Linear_8,87,5,42,127,160107844
552,20,Ticks_Linear_8,88,1,48,61,160117704
552,20,Ticks_Linear_8,89,1,48,73,160815264
552,20,Ticks_Linear_8,90,5,42,127,160848324
552,20,Ticks_Linear_8,91,1,48,80,161469776
552,20,Ticks_Linear_8,92,5,42,127,161587676
552,20,Ticks_Linear_8,93,1,48,62,162105700
552,20,Ticks_Linear_8,94,5,42,127,162327788
552,20,Ticks_Linear_8,95,1,48,58,162737380
552,20,Ticks_Linear_8,96,1,48,44,162790220
552,20,Ticks_Linear_8,97,5,42,127,163068256
552,20,Ticks_Linear_8,98,1,48,55,163494012
552,20,Ticks_Linear_8,99,1,48,32,163560192
552,20,Ticks_Linear_8,100,5,42,127,163798384
552,20,Ticks_Linear_8,101,1,48,54,164170876
552,20,Ticks_Linear_8,102,1,48,21,164253924
552,20,Ticks_Linear_8,103,5,42,127,164527544
552,20,Ticks_Linear_8,104,1,48,56,164872844
552,20,Ticks_Linear_8,105,5,42,127,165257624
552,20,Ticks_Linear_8,106,1,48,75,165669280
552,20,Ticks_Linear_8,107,5,42,127,165987600
552,20,Ticks_Linear_8,108,1,48,66,166385416
552,20,Ticks_Linear_8,109,5,42,127,166717904
552,20,Ticks_Linear_8,110,1,48,78,167091464
552,20,Ticks_Linear_8,111,5,42,127,167437724
552,20,Ticks_Linear_8,112,1,48,77,167795668
552,20,Ticks_Linear_8,113,5,42,127,168157540
552,20,Ticks_Linear_8,114,1,48,67,168563496
552,20,Ticks_Linear_8,115,5,42,127,168877432
552,20,Ticks_Linear_8,116,1,48,61,169222808
552,20,Ticks_Linear_8,117,1,48,44,169274680
552,20,Ticks_Linear_8,118,5,42,127,169598500
552,20,Ticks_Linear_8,119,1,48,63,169932420
552,20,Ticks_Linear_8,120,1,48,45,169987968
552,20,Ticks_Linear_8,121,5,42,127,170318348
552,20,Ticks_Linear_8,122,1,48,70,170645788
552,20,Ticks_Linear_8,123,1,48,32,170717432
552,20,Ticks_Linear_8,124,5,42,127,171027736
552,20,Ticks_Linear_8,125,1,48,78,171390216
552,20,Ticks_Linear_8,126,1,48,51,171451300
552,20,Ticks_Linear_8,127,5,42,127,171737576
552,20,Ticks_Linear_8,128,1,48,65,172052244
552,20,Ticks_Linear_8,129,1,48,52,172090048
552,20,Ticks_Linear_8,130,5,42,127,172448236
552,20,Ticks_Linear_8,131,1,48,71,172863104
552,20,Ticks_Linear_8,132,5,42,127,173157620
552,20,Ticks_Linear_8,133,1,48,66,173572368
552,20,Ticks_Linear_8,134,1,48,46,173623640
552,20,Ticks_Linear_8,135,5,42,127,173868356
552,20,Ticks_Linear_8,136,1,48,69,174288128
552,20,Ticks_Linear_8,137,1,48,45,174344708
552,20,Ticks_Linear_8,138,5,42,127,174567856
552,20,Ticks_Linear_8,139,1,48,58,175114700
552,20,Ticks_Linear_8,140,1,48,39,175176096
552,20,Ticks_Linear_8,141,5,42,127,175268196
552,20,Ticks_Linear_8,142,1,48,60,175882948
552,20,Ticks_Linear_8,143,1,48,44,175936328
552,20,Ticks_Linear_8,144,5,42,127,175967524
552,20,Ticks_Linear_8,145,1,48,68,176578264
552,20,Ticks_Linear_8,146,1,48,41,176640176
552,20,Ticks_Linear_8,147,5,42,127,176668220
552,20,Ticks_Linear_8,148,1,48,61,177263956
552,20,Ticks_Linear_8,149,1,48,36,177326576
552,20,Ticks_Linear_8,150,5,42,127,177368324
552,20,Ticks_Linear_8,151,1,48,64,177931412
552,20,Ticks_Linear_8,152,1,48,38,177993240
552,20,Ticks_Linear_8,153,5,42,127,178067752
552,20,Ticks_Linear_8,154,1,48,59,178586060
552,20,Ticks_Linear_8,155,1,48,33,178643244
552,20,Ticks_Linear_8,156,5,42,127,178758076
552,20,Ticks_Linear_8,157,1,48,65,179362240
552,20,Ticks_Linear_8,158,5,42,127,179448404
552,20,Ticks_Linear_8,159,1,48,61,180034924
552,20,Ticks_Linear_8,160,1,48,26,180111092
552,20,Ticks_Linear_8,161,5,42,127,180138324
552,20,Ticks_Linear_8,162,1,48,70,180674596
552,20,Ticks_Linear_8,163,1,48,33,180747448
552,20,Ticks_Linear_8,164,5,42,127,180827392
552,20,Ticks_Linear_8,165,1,48,55,181320980
552,20,Ticks_Linear_8,166,5,42,127,181507356
552,20,Ticks_Linear_8,167,1,48,64,182067392
552,20,Ticks_Linear_8,168,5,42,127,182188304
552,20,Ticks_Linear_8,169,1,48,51,182750204
552,20,Ticks_Linear_8,170,5,42,127,182868332
552,20,Ticks_Linear_8,171,1,48,54,183458200
552,20,Ticks_Linear_8,172,5,42,127,183548324
552,20,Ticks_Linear_8,173,1,48,73,184176416
552,20,Ticks_Linear_8,174,5,42,127,184228228
552,20,Ticks_Linear_8,175,1,48,59,184866132
552,20,Ticks_Linear_8,176,5,42,127,184897924
552,20,Ticks_Linear_8,177,1,48,27,184950904
552,20,Ticks_Linear_8,178,1,48,63,185546816
552,20,Ticks_Linear_8,179,5,42,127,185567896
552,20,Ticks_Linear_8,180,5,42,127,186238444
552,20,Ticks_Linear_8,181,1,48,71,186269052
552,20,Ticks_Linear_8,182,1,48,29,186348860
552,20,Ticks_Linear_8,183,5,42,127,186907968
552,20,Ticks_Linear_8,184,1,48,69,186913180
552,20,Ticks_Linear_8,185,1,48,35,186982656
552,20,Ticks_Linear_8,186,5,42,127,187577740
552,20,Ticks_Linear_8,187,1,48,71,187604964
552,20,Ticks_Linear_8,188,1,48,38,187672872
552,20,Ticks_Linear_8,189,1,48,71,188236612
552,20,Ticks_Linear_8,190,5,42,127,188238196
552,20,Ticks_Linear_8,191,1,48,43,188299516
552,20,Ticks_Linear_8,192,1,48,75,188881340
552,20,Ticks_Linear_8,193,5,42,127,188897856
552,20,Ticks_Linear_8,194,1,48,33,189052704
552,20,Ticks_Linear_8,195,5,42,127,189558104
552,20,Ticks_Linear_8,196,5,42,127,190217560
552,20,Ticks_Linear_8,197,1,48,61,190218524
552,20,Ticks_Linear_8,198,1,48,43,190267468
552,20,Ticks_Linear_8,199,5,42,127,190878044
552,20,Ticks_Linear_8,200,1,48,61,190978744
552,20,Ticks_Linear_8,201,5,42,127,191528268
552,20,Ticks_Linear_8,202,1,48,70,191643440
552,20,Ticks_Linear_8,203,5,42,127,192177692
552,20,Ticks_Linear_8,204,1,48,65,192373044
552,20,Ticks_Linear_8,205,5,42,127,192827988
552,20,Ticks_Linear_8,206,1,48,65,193006004
552,20,Ticks_Linear_8,207,1,48,37,193065208
552,20,Ticks_Linear_8,208,5,42,127,193477920
552,20,Ticks_Linear_8,209,1,48,56,193712388
552,20,Ticks_Linear_8,210,5,42,127,194128216
552,20,Ticks_Linear_8,211,1,48,51,194464856
552,20,Ticks_Linear_8,212,5,42,127,194768132
552,20,Ticks_Linear_8,213,1,48,68,195138148
552,20,Ticks_Linear_8,214,5,42,127,195408316
552,20,Ticks_Linear_8,215,1,48,72,195797536
552,20,Ticks_Linear_8,216,5,42,127,196048304
552,20,Ticks_Linear_8,217,1,48,73,196468876
552,20,Ticks_Linear_8,218,5,42,127,196688192
552,20,Ticks_Linear_8,219,1,48,67,197122560
552,20,Ticks_Linear_8,220,5,42,127,197328184
552,20,Ticks_Linear_8,221,1,48,65,197749648
552,20,Ticks_Linear_8,222,5,42,127,197957864
552,20,Ticks_Linear_8,223,1,48,60,198496780
552,20,Ticks_Linear_8,224,5,42,127,198587832
552,20,Ticks_Linear_8,225,1,48,65,199112276
552,20,Ticks_Linear_8,226,5,42,127,199217748
552,20,Ticks_Linear_8,227,1,48,72,199782720
552,20,Ticks_Linear_8,228,5,42,127,199848612
552,20,Ticks_Linear_8,229,1,48,67,200415604
552,20,Ticks_Linear_8,230,5,42,127,200478096
552,20,Ticks_Linear_8,231,1,48,74,201032568
552,20,Ticks_Linear_8,232,5,42,127,201097568
552,20,Ticks_Linear_8,233,5,42,127,201717992
552,20,Ticks_Linear_8,234,1,48,73,201718960
552,20,Ticks_Linear_8,235,5,42,127,202337588
552,20,Ticks_Linear_8,236,1,48,71,202366040
552,20,Ticks_Linear_8,237,1,48,71,202955576
552,20,Ticks_Linear_8,238,5,42,127,202958324
552,20,Ticks_Linear_8,239,5,42,127,203577704
552,20,Ticks_Linear_8,240,1,48,74,203626660
552,20,Ticks_Linear_8,241,5,42,127,204187888
552,20,Ticks_Linear_8,242,1,48,73,204237968
552,20,Ticks_Linear_8,243,5,42,127,204798568
552,20,Ticks_Linear_8,244,1,48,57,204882488
552,20,Ticks_Linear_8,245,5,42,127,205407604
552,20,Ticks_Linear_8,246,1,48,63,205497476
552,20,Ticks_Linear_8,247,5,42,127,206017864
552,20,Ticks_Linear_8,248,1,48,62,206152408
552,20,Ticks_Linear_8,249,5,42,127,206628620
552,20,Ticks_Linear_8,250,1,48,60,206746496
552,20,Ticks_Linear_8,251,1,48,37,206787668
552,20,Ticks_Linear_8,252,5,42,127,207228372
552,20,Ticks_Linear_8,253,1,48,67,207361720
552,20,Ticks_Linear_8,254,5,42,127,207828276
552,20,Ticks_Linear_8,255,1,48,66,207964612
552,20,Ticks_Linear_8,256,5,42,127,208428400
552,20,Ticks_Linear_8,257,1,48,72,208625720
552,20,Ticks_Linear_8,258,1,48,34,208696100
552,20,Ticks_Linear_8,259,5,42,127,209027404
552,20,Ticks_Linear_8,260,1,48,73,209215948
552,20,Ticks_Linear_8,261,1,48,39,209283936
552,20,Ticks_Linear_8,262,5,42,127,209627580
552,20,Ticks_Linear_8,263,1,48,73,209903908
552,20,Ticks_Linear_8,264,1,48,22,209988440
552,20,Ticks_Linear_8,265,5,42,127,210218320
552,20,Ticks_Linear_8,266,1,48,67,210556168
552,20,Ticks_Linear_8,267,5,42,127,210808356
552,20,Ticks_Linear_8,268,1,48,71,211155228
552,20,Ticks_Linear_8,269,5,42,127,211398148
552,20,Ticks_Linear_8,270,1,48,69,211800816
552,20,Ticks_Linear_8,271,5,42,127,211987936
552,20,Ticks_Linear_8,272,1,48,72,212362396
552,20,Ticks_Linear_8,273,5,42,127,212577656
552,20,Ticks_Linear_8,274,1,48,64,212941404
552,20,Ticks_Linear_8,275,5,42,127,213158256
552,20,Ticks_Linear_8,276,1,48,71,213549916
552,20,Ticks_Linear_8,277,5,42,127,213737788
552,20,Ticks_Linear_8,278,1,48,67,214105340
552,20,Ticks_Linear_8,279,5,42,127,214317540
552,20,Ticks_Linear_8,280,1,48,71,214656880
552,20,Ticks_Linear_8,281,5,42,127,214898192
552,20,Ticks_Linear_8,282,1,48,76,215214756
552,20,Ticks_Linear_8,283,5,42,127,215477824
552,20,Ticks_Linear_8,284,1,48,72,215784628
552,20,Ticks_Linear_8,285,5,42,127,216048140
552,20,Ticks_Linear_8,286,1,48,72,216360568
552,20,Ticks_Linear_8,287,5,42,127,216618236
552,20,Ticks_Linear_8,288,1,48,72,216998240
552,20,Ticks_Linear_8,289,5,42,127,217187728
552,20,Ticks_Linear_8,290,1,48,73,217576796
552,20,Ticks_Linear_8,291,5,42,127,217758220
552,20,Ticks_Linear_8,292,1,48,74,218151748
552,20,Ticks_Linear_8,293,5,42,127,218328316
552,20,Ticks_Linear_8,294,1,48,67,218708000
552,20,Ticks_Linear_8,295,5,42,127,218897808
552,20,Ticks_Linear_8,296,1,48,71,219275252
552,20,Ticks_Linear_8,297,5,42,127,219458240
552,20,Ticks_Linear_8,298,1,48,66,219850152
552,20,Ticks_Linear_8,299,5,42,127,220018224
552,20,Ticks_Linear_8,300,1,48,62,220431700
552,20,Ticks_Linear_8,301,5,42,127,220578084
552,20,Ticks_Linear_8,302,1,48,68,220953716
552,20,Ticks_Linear_8,303,5,42,127,221138296
552,20,Ticks_Linear_8,304,1,48,75,221594376
552,20,Ticks_Linear_8,305,5,42,127,221688256
552,20,Ticks_Linear_8,306,1,48,56,222116104
552,20,Ticks_Linear_8,307,5,42,127,222238116
552,20,Ticks_Linear_8,308,1,48,73,222708508
552,20,Ticks_Linear_8,309,5,42,127,222787856
552,20,Ticks_Linear_8,310,1,48,70,223295608
552,20,Ticks_Linear_8,311,5,42,127,223338028
552,20,Ticks_Linear_8,312,1,48,28,223364220
552,20,Ticks_Linear_8,313,5,42,127,223887916
552,20,Ticks_Linear_8,314,1,48,77,223904284
552,20,Ticks_Linear_8,315,5,42,127,224428356
552,20,Ticks_Linear_8,316,1,48,67,224471164
552,20,Ticks_Linear_8,317,5,42,127,224968044
552,20,Ticks_Linear_8,318,1,48,65,225020068
552,20,Ticks_Linear_8,319,5,42,127,225507660
552,20,Ticks_Linear_8,320,1,48,58,225520288
552,20,Ticks_Linear_8,321,1,48,66,226024300
552,20,Ticks_Linear_8,322,5,42,127,226048240
552,20,Ticks_Linear_8,323,1,48,68,226556660
552,20,Ticks_Linear_8,324,5,42,127,226588004
552,20,Ticks_Linear_8,325,1,48,66,227021312
552,20,Ticks_Linear_8,326,5,42,127,227117500
552,20,Ticks_Linear_8,327,1,48,63,227604956
552,20,Ticks_Linear_8,328,5,42,127,227648064
552,20,Ticks_Linear_8,329,1,48,68,228108036
552,20,Ticks_Linear_8,330,5,42,127,228178248
552,20,Ticks_Linear_8,331,1,48,60,228621288
552,20,Ticks_Linear_8,332,5,42,127,228707904
552,20,Ticks_Linear_8,333,1,48,66,229178132
552,20,Ticks_Linear_8,334,5,42,127,229238184
552,20,Ticks_Linear_8,335,1,48,61,229706968
552,20,Ticks_Linear_8,336,5,42,127,229758548
552,20,Ticks_Linear_8,337,1,48,62,230260756
552,20,Ticks_Linear_8,338,5,42,127,230277796
552,20,Ticks_Linear_8,339,1,48,28,230330248
552,20,Ticks_Linear_8,340,1,48,73,230791132
552,20,Ticks_Linear_8,341,5,42,127,230797768
552,20,Ticks_Linear_8,342,5,42,127,231317844
552,20,Ticks_Linear_8,343,1,48,62,231323732
552,20,Ticks_Linear_8,344,1,48,75,231803408
552,20,Ticks_Linear_8,345,5,42,127,231837980
552,20,Ticks_Linear_8,346,1,48,62,232319888
552,20,Ticks_Linear_8,347,5,42,127,232348016
552,20,Ticks_Linear_8,348,1,48,64,232833144
552,20,Ticks_Linear_8,349,5,42,127,232858124
552,20,Ticks_Linear_8,350,1,48,48,233317624
552,20,Ticks_Linear_8,351,5,42,127,233367860
552,20,Ticks_Linear_8,352,1,48,65,233774328
552,20,Ticks_Linear_8,353,1,48,28,233846752
552,20,Ticks_Linear_8,354,5,42,127,233877948
552,20,Ticks_Linear_8,355,1,48,67,234266520
552,20,Ticks_Linear_8,356,5,42,127,234387740
552,20,Ticks_Linear_8,357,1,48,75,234681748
552,20,Ticks_Linear_8,358,5,42,127,234887592
552,20,Ticks_Linear_8,359,1,48,48,235150444
552,20,Ticks_Linear_8,360,5,42,127,235388412
552,20,Ticks_Linear_8,361,1,48,56,235597700
552,20,Ticks_Linear_8,362,5,42,127,235887936
552,20,Ticks_Linear_8,363,1,48,58,236139112
552,20,Ticks_Linear_8,364,5,42,127,236387788
552,20,Ticks_Linear_8,365,1,48,60,236552084
552,20,Ticks_Linear_8,366,1,48,22,236629576
552,20,Ticks_Linear_8,367,5,42,127,236888512
552,20,Ticks_Linear_8,368,1,48,65,237046380
552,20,Ticks_Linear_8,369,5,42,127,237388288
552,20,Ticks_Linear_8,370,1,48,51,237493800
552,20,Ticks_Linear_8,371,5,42,127,237877508
552,20,Ticks_Linear_8,372,1,48,64,237971040
552,20,Ticks_Linear_8,373,5,42,127,238368144
552,20,Ticks_Linear_8,374,1,48,67,238424280
552,20,Ticks_Linear_8,375,1,48,39,238495424
552,20,Ticks_Linear_8,376,5,42,127,238857712
552,20,Ticks_Linear_8,377,1,48,77,238911380
552,20,Ticks_Linear_8,378,5,42,127,239348204
552,20,Ticks_Linear_8,0,9999,9999,9999,128755792
552,20,Ticks_Linear_8,1,9999,9999,9999,129576036
552,20,Ticks_Linear_8,2,9999,9999,9999,130395228
552,20,Ticks_Linear_8,3,9999,9999,9999,131215468
552,20,Ticks_Linear_8,4,9999,9999,9999,132035672
552,20,Ticks_Linear_8,5,9999,9999,9999,132845656
552,20,Ticks_Linear_8,6,9999,9999,9999,133655640
552,20,Ticks_Linear_8,7,9999,9999,9999,134465624
552,20,Ticks_Linear_8,8,9999,9999,9999,135275604
552,20,Ticks_Linear_8,9,9999,9999,9999,136085612
552,20,Ticks_Linear_8,10,9999,9999,9999,136885340
552,20,Ticks_Linear_8,11,9999,9999,9999,137686112
552,20,Ticks_Linear_8,12,9999,9999,9999,138496096
552,20,Ticks_Linear_8,13,9999,9999,9999,139306076
552,20,Ticks_Linear_8,14,9999,9999,9999,140105800
552,20,Ticks_Linear_8,15,9999,9999,9999,140895340
552,20,Ticks_Linear_8,16,9999,9999,9999,141685852
552,20,Ticks_Linear_8,17,9999,9999,9999,142475340
552,20,Ticks_Linear_8,18,9999,9999,9999,143265852
552,20,Ticks_Linear_8,19,9999,9999,9999,144055392
552,20,Ticks_Linear_8,20,9999,9999,9999,144835648
552,20,Ticks_Linear_8,21,9999,9999,9999,145615972
552,20,Ticks_Linear_8,22,9999,9999,9999,146395232
552,20,Ticks_Linear_8,23,9999,9999,9999,147175536
552,20,Ticks_Linear_8,24,9999,9999,9999,147955788
552,20,Ticks_Linear_8,25,9999,9999,9999,148725836
552,20,Ticks_Linear_8,26,9999,9999,9999,149495904
552,20,Ticks_Linear_8,27,9999,9999,9999,150265948
552,20,Ticks_Linear_8,28,9999,9999,9999,151035992
552,20,Ticks_Linear_8,29,9999,9999,9999,151806060
552,20,Ticks_Linear_8,30,9999,9999,9999,152565816
552,20,Ticks_Linear_8,31,9999,9999,9999,153325680
552,20,Ticks_Linear_8,32,9999,9999,9999,154085492
552,20,Ticks_Linear_8,33,9999,9999,9999,154845300
552,20,Ticks_Linear_8,34,9999,9999,9999,155606136
552,20,Ticks_Linear_8,35,9999,9999,9999,156365940
552,20,Ticks_Linear_8,36,9999,9999,9999,157115492
552,20,Ticks_Linear_8,37,9999,9999,9999,157866088
552,20,Ticks_Linear_8,38,9999,9999,9999,158615640
552,20,Ticks_Linear_8,39,9999,9999,9999,159365208
552,20,Ticks_Linear_8,40,9999,9999,9999,160105544
552,20,Ticks_Linear_8,41,9999,9999,9999,160845948
552,20,Ticks_Linear_8,42,9999,9999,9999,161585224
552,20,Ticks_Linear_8,43,9999,9999,9999,162325560
552,20,Ticks_Linear_8,44,9999,9999,9999,163065952
552,20,Ticks_Linear_8,45,9999,9999,9999,163796084
552,20,Ticks_Linear_8,46,9999,9999,9999,164525168
552,20,Ticks_Linear_8,47,9999,9999,9999,165255248
552,20,Ticks_Linear_8,48,9999,9999,9999,165985376
552,20,Ticks_Linear_8,49,9999,9999,9999,166715452
552,20,Ticks_Linear_8,50,9999,9999,9999,167435348
552,20,Ticks_Linear_8,51,9999,9999,9999,168155240
552,20,Ticks_Linear_8,52,9999,9999,9999,168875132
552,20,Ticks_Linear_8,53,9999,9999,9999,169595976
552,20,Ticks_Linear_8,54,9999,9999,9999,170315896
552,20,Ticks_Linear_8,55,9999,9999,9999,171025512
552,20,Ticks_Linear_8,56,9999,9999,9999,171735124
552,20,Ticks_Linear_8,57,9999,9999,9999,172445784
552,20,Ticks_Linear_8,58,9999,9999,9999,173155396
552,20,Ticks_Linear_8,59,9999,9999,9999,173866052
552,20,Ticks_Linear_8,60,9999,9999,9999,174565480
552,20,Ticks_Linear_8,61,9999,9999,9999,175265896
552,20,Ticks_Linear_8,62,9999,9999,9999,175965300
552,20,Ticks_Linear_8,63,9999,9999,9999,176665696
552,20,Ticks_Linear_8,64,9999,9999,9999,177366100
552,20,Ticks_Linear_8,65,9999,9999,9999,178065524
552,20,Ticks_Linear_8,66,9999,9999,9999,178755700
552,20,Ticks_Linear_8,67,9999,9999,9999,179445880
552,20,Ticks_Linear_8,68,9999,9999,9999,180136020
552,20,Ticks_Linear_8,69,9999,9999,9999,180825164
552,20,Ticks_Linear_8,70,9999,9999,9999,181505128
552,20,Ticks_Linear_8,71,9999,9999,9999,182186076
552,20,Ticks_Linear_8,72,9999,9999,9999,182866032
552,20,Ticks_Linear_8,73,9999,9999,9999,183545952
552,20,Ticks_Linear_8,74,9999,9999,9999,184225852
552,20,Ticks_Linear_8,75,9999,9999,9999,184895548
552,20,Ticks_Linear_8,76,9999,9999,9999,185565296
552,20,Ticks_Linear_8,77,9999,9999,9999,186235992
552,20,Ticks_Linear_8,78,9999,9999,9999,186905664
552,20,Ticks_Linear_8,79,9999,9999,9999,187575364
552,20,Ticks_Linear_8,80,9999,9999,9999,188235904
552,20,Ticks_Linear_8,81,9999,9999,9999,188895332
552,20,Ticks_Linear_8,82,9999,9999,9999,189555800
552,20,Ticks_Linear_8,83,9999,9999,9999,190215260
552,20,Ticks_Linear_8,84,9999,9999,9999,190875744
552,20,Ticks_Linear_8,85,9999,9999,9999,191525968
552,20,Ticks_Linear_8,86,9999,9999,9999,192175168
552,20,Ticks_Linear_8,87,9999,9999,9999,192825464
552,20,Ticks_Linear_8,88,9999,9999,9999,193475692
552,20,Ticks_Linear_8,89,9999,9999,9999,194125916
552,20,Ticks_Linear_8,90,9999,9999,9999,194765904
552,20,Ticks_Linear_8,91,9999,9999,9999,195405940
552,20,Ticks_Linear_8,92,9999,9999,9999,196045928
552,20,Ticks_Linear_8,93,9999,9999,9999,196685892
552,20,Ticks_Linear_8,94,9999,9999,9999,197325880
552,20,Ticks_Linear_8,95,9999,9999,9999,197955636
552,20,Ticks_Linear_8,96,9999,9999,9999,198585456
552,20,Ticks_Linear_8,97,9999,9999,9999,199215220
552,20,Ticks_Linear_8,98,9999,9999,9999,199846012
552,20,Ticks_Linear_8,99,9999,9999,9999,200475720
552,20,Ticks_Linear_8,100,9999,9999,9999,201095268
552,20,Ticks_Linear_8,101,9999,9999,9999,201715768
552,20,Ticks_Linear_8,102,9999,9999,9999,202335288
552,20,Ticks_Linear_8,103,9999,9999,9999,202955876
552,20,Ticks_Linear_8,104,9999,9999,9999,203575400
552,20,Ticks_Linear_8,105,9999,9999,9999,204185660
552,20,Ticks_Linear_8,106,9999,9999,9999,204795968
552,20,Ticks_Linear_8,107,9999,9999,9999,205405304
552,20,Ticks_Linear_8,108,9999,9999,9999,206015564
552,20,Ticks_Linear_8,109,9999,9999,9999,206625872
552,20,Ticks_Linear_8,110,9999,9999,9999,207225924
552,20,Ticks_Linear_8,111,9999,9999,9999,207825972
552,20,Ticks_Linear_8,112,9999,9999,9999,208426096
552,20,Ticks_Linear_8,113,9999,9999,9999,209025104
552,20,Ticks_Linear_8,114,9999,9999,9999,209625204
552,20,Ticks_Linear_8,115,9999,9999,9999,210216020
552,20,Ticks_Linear_8,116,9999,9999,9999,210805832
552,20,Ticks_Linear_8,117,9999,9999,9999,211395696
552,20,Ticks_Linear_8,118,9999,9999,9999,211985488
552,20,Ticks_Linear_8,119,9999,9999,9999,212575352
552,20,Ticks_Linear_8,120,9999,9999,9999,213155956
552,20,Ticks_Linear_8,121,9999,9999,9999,213735484
552,20,Ticks_Linear_8,122,9999,9999,9999,214315088
552,20,Ticks_Linear_8,123,9999,9999,9999,214895740
552,20,Ticks_Linear_8,124,9999,9999,9999,215475296
552,20,Ticks_Linear_8,125,9999,9999,9999,216045688
552,20,Ticks_Linear_8,126,9999,9999,9999,216616008
552,20,Ticks_Linear_8,127,9999,9999,9999,217185352
552,20,Ticks_Linear_8,128,9999,9999,9999,217755768
552,20,Ticks_Linear_8,129,9999,9999,9999,218326088
552,20,Ticks_Linear_8,130,9999,9999,9999,218895432
552,20,Ticks_Linear_8,131,9999,9999,9999,219455568
552,20,Ticks_Linear_8,132,9999,9999,9999,220015700
552,20,Ticks_Linear_8,133,9999,9999,9999,220575856
552,20,Ticks_Linear_8,134,9999,9999,9999,221135992
552,20,Ticks_Linear_8,135,9999,9999,9999,221685884
552,20,Ticks_Linear_8,136,9999,9999,9999,222235740
552,20,Ticks_Linear_8,137,9999,9999,9999,222785632
552,20,Ticks_Linear_8,138,9999,9999,9999,223335504
552,20,Ticks_Linear_8,139,9999,9999,9999,223885388
552,20,Ticks_Linear_8,140,9999,9999,9999,224426052
552,20,Ticks_Linear_8,141,9999,9999,9999,224965744
552,20,Ticks_Linear_8,142,9999,9999,9999,225505356
552,20,Ticks_Linear_8,143,9999,9999,9999,226046012
552,20,Ticks_Linear_8,144,9999,9999,9999,226585704
552,20,Ticks_Linear_8,145,9999,9999,9999,227115124
552,20,Ticks_Linear_8,146,9999,9999,9999,227645540
552,20,Ticks_Linear_8,147,9999,9999,9999,228175948
552,20,Ticks_Linear_8,148,9999,9999,9999,228705380
552,20,Ticks_Linear_8,149,9999,9999,9999,229235804
552,20,Ticks_Linear_8,150,9999,9999,9999,229756024
552,20,Ticks_Linear_8,151,9999,9999,9999,230275196
552,20,Ticks_Linear_8,152,9999,9999,9999,230795320
552,20,Ticks_Linear_8,153,9999,9999,9999,231315544
552,20,Ticks_Linear_8,154,9999,9999,9999,231835756
552,20,Ticks_Linear_8,155,9999,9999,9999,232345716
552,20,Ticks_Linear_8,156,9999,9999,9999,232855672
552,20,Ticks_Linear_8,157,9999,9999,9999,233365560
552,20,Ticks_Linear_8,158,9999,9999,9999,233875572
552,20,Ticks_Linear_8,159,9999,9999,9999,234385516
552,20,Ticks_Linear_8,160,9999,9999,9999,234885216
552,20,Ticks_Linear_8,161,9999,9999,9999,235385960
552,20,Ticks_Linear_8,162,9999,9999,9999,235885636
552,20,Ticks_Linear_8,163,9999,9999,9999,236385336
552,20,Ticks_Linear_8,164,9999,9999,9999,236886140
552,20,Ticks_Linear_8,165,9999,9999,9999,237385840
552,20,Ticks_Linear_8,166,9999,9999,9999,237875284
552,20,Ticks_Linear_8,167,9999,9999,9999,238365768
552,20,Ticks_Linear_8,168,9999,9999,9999,238855264
552,20,Ticks_Linear_8,169,9999,9999,9999,239345752
553,10,Ticks_ISO_T2_5,0,5,42,127,249291388
553,10,Ticks_ISO_T2_5,1,5,42,127,249790808
553,10,Ticks_ISO_T2_5,2,1,48,29,249967908
553,10,Ticks_ISO_T2_5,3,5,42,127,250290500
553,10,Ticks_ISO_T2_5,4,1,48,62,250334904
553,10,Ticks_ISO_T2_5,5,1,48,64,250764796
553,10,Ticks_ISO_T2_5,6,5,42,127,250791384
553,10,Ticks_ISO_T2_5,7,1,48,54,251224376
553,10,Ticks_ISO_T2_5,8,5,42,127,251291228
553,10,Ticks_ISO_T2_5,9,1,48,58,251668120
553,10,Ticks_ISO_T2_5,10,5,42,127,251790760
553,10,Ticks_ISO_T2_5,11,1,48,64,252157572
553,10,Ticks_ISO_T2_5,12,1,48,38,252204224
553,10,Ticks_ISO_T2_5,13,5,42,127,252290448
553,10,Ticks_ISO_T2_5,14,1,48,68,252627472
553,10,Ticks_ISO_T2_5,15,1,48,42,252679732
553,10,Ticks_ISO_T2_5,16,5,42,127,252791376
553,10,Ticks_ISO_T2_5,17,1,48,67,253116752
553,10,Ticks_ISO_T2_5,18,1,48,41,253171328
553,10,Ticks_ISO_T2_5,19,5,42,127,253291244
553,10,Ticks_ISO_T2_5,20,1,48,67,253581788
553,10,Ticks_ISO_T2_5,21,1,48,32,253649680
553,10,Ticks_ISO_T2_5,22,5,42,127,253790472
553,10,Ticks_ISO_T2_5,23,1,48,64,254054436
553,10,Ticks_ISO_T2_5,24,1,48,37,254119212
553,10,Ticks_ISO_T2_5,25,5,42,127,254291340
553,10,Ticks_ISO_T2_5,26,1,48,47,254549992
553,10,Ticks_ISO_T2_5,27,5,42,127,254791184
553,10,Ticks_ISO_T2_5,28,1,48,60,255055896
553,10,Ticks_ISO_T2_5,29,5,42,127,255290804
553,10,Ticks_ISO_T2_5,30,1,48,60,255536444
553,10,Ticks_ISO_T2_5,31,5,42,127,255790424
553,10,Ticks_ISO_T2_5,32,1,48,54,256058052
553,10,Ticks_ISO_T2_5,33,5,42,127,256291164
553,10,Ticks_ISO_T2_5,34,1,48,62,256510252
553,10,Ticks_ISO_T2_5,35,5,42,127,256791156
553,10,Ticks_ISO_T2_5,36,1,48,57,257018100
553,10,Ticks_ISO_T2_5,37,5,42,127,257290556
553,10,Ticks_ISO_T2_5,38,1,48,69,257508968
553,10,Ticks_ISO_T2_5,39,5,42,127,257791300
553,10,Ticks_ISO_T2_5,40,1,48,63,257994004
553,10,Ticks_ISO_T2_5,41,1,48,33,258063396
553,10,Ticks_ISO_T2_5,42,5,42,127,258291172
553,10,Ticks_ISO_T2_5,43,1,48,71,258482504
553,10,Ticks_ISO_T2_5,44,5,42,127,258791012
553,10,Ticks_ISO_T2_5,45,1,48,68,258960512
553,10,Ticks_ISO_T2_5,46,1,48,35,259045684
553,10,Ticks_ISO_T2_5,47,5,42,127,259290540
553,10,Ticks_ISO_T2_5,48,1,48,53,259461976
553,10,Ticks_ISO_T2_5,49,5,42,127,259791280
553,10,Ticks_ISO_T2_5,50,1,48,70,259965780
553,10,Ticks_ISO_T2_5,51,5,42,127,260291124
553,10,Ticks_ISO_T2_5,52,1,48,76,260472888
553,10,Ticks_ISO_T2_5,53,5,42,127,260790892
553,10,Ticks_ISO_T2_5,54,1,48,78,260960664
553,10,Ticks_ISO_T2_5,55,5,42,127,261291484
553,10,Ticks_ISO_T2_5,56,1,48,70,261442780
553,10,Ticks_ISO_T2_5,57,5,42,127,261791104
553,10,Ticks_ISO_T2_5,58,1,48,70,261896848
553,10,Ticks_ISO_T2_5,59,5,42,127,262291020
553,10,Ticks_ISO_T2_5,60,1,48,71,262388236
553,10,Ticks_ISO_T2_5,61,5,42,127,262790644
553,10,Ticks_ISO_T2_5,62,1,48,56,262875440
553,10,Ticks_ISO_T2_5,63,5,42,127,263291236
553,10,Ticks_ISO_T2_5,64,1,48,73,263369976
553,10,Ticks_ISO_T2_5,65,5,42,127,263790904
553,10,Ticks_ISO_T2_5,66,1,48,66,263843636
553,10,Ticks_ISO_T2_5,67,1,48,65,264275224
553,10,Ticks_ISO_T2_5,68,5,42,127,264290668
553,10,Ticks_ISO_T2_5,69,1,48,33,264344132
553,10,Ticks_ISO_T2_5,70,1,48,58,264768616
553,10,Ticks_ISO_T2_5,71,5,42,127,264791460
553,10,Ticks_ISO_T2_5,72,1,48,33,264831760
553,10,Ticks_ISO_T2_5,73,1,48,67,265263200
553,10,Ticks_ISO_T2_5,74,5,42,127,265291132
553,10,Ticks_ISO_T2_5,75,1,48,67,265720332
553,10,Ticks_ISO_T2_5,76,5,42,127,265790752
553,10,Ticks_ISO_T2_5,77,1,48,27,265800436
553,10,Ticks_ISO_T2_5,78,1,48,70,266221652
553,10,Ticks_ISO_T2_5,79,5,42,127,266290648
553,10,Ticks_ISO_T2_5,80,1,48,67,266693368
553,10,Ticks_ISO_T2_5,81,1,48,27,266767028
553,10,Ticks_ISO_T2_5,82,5,42,127,266791220
553,10,Ticks_ISO_T2_5,83,1,48,72,267192820
553,10,Ticks_ISO_T2_5,84,5,42,127,267290988
553,10,Ticks_ISO_T2_5,85,1,48,81,267678080
553,10,Ticks_ISO_T2_5,86,5,42,127,267790744
553,10,Ticks_ISO_T2_5,87,1,48,73,268186904
553,10,Ticks_ISO_T2_5,88,1,48,24,268259732
553,10,Ticks_ISO_T2_5,89,5,42,127,268290508
553,10,Ticks_ISO_T2_5,90,1,48,71,268685972
553,10,Ticks_ISO_T2_5,91,1,48,37,268749456
553,10,Ticks_ISO_T2_5,92,5,42,127,268791080
553,10,Ticks_ISO_T2_5,93,1,48,70,269160644
553,10,Ticks_ISO_T2_5,94,1,48,30,269231848
553,10,Ticks_ISO_T2_5,95,5,42,127,269290900
553,10,Ticks_ISO_T2_5,96,1,48,69,269663676
553,10,Ticks_ISO_T2_5,97,1,48,47,269724636
553,10,Ticks_ISO_T2_5,98,5,42,127,269790572
553,10,Ticks_ISO_T2_5,99,1,48,69,270168660
553,10,Ticks_ISO_T2_5,100,5,42,127,270291520
553,10,Ticks_ISO_T2_5,101,1,48,65,270681592
553,10,Ticks_ISO_T2_5,102,5,42,127,270790992
553,10,Ticks_ISO_T2_5,103,1,48,63,271166856
553,10,Ticks_ISO_T2_5,104,5,42,127,271290612
553,10,Ticks_ISO_T2_5,105,1,48,65,271666696
553,10,Ticks_ISO_T2_5,106,5,42,127,271790380
553,10,Ticks_ISO_T2_5,107,1,48,68,272184188
553,10,Ticks_ISO_T2_5,108,5,42,127,272291120
553,10,Ticks_ISO_T2_5,109,1,48,61,272656132
553,10,Ticks_ISO_T2_5,110,1,48,50,272693808
553,10,Ticks_ISO_T2_5,111,5,42,127,272790940
553,10,Ticks_ISO_T2_5,112,1,48,63,273242724
553,10,Ticks_ISO_T2_5,113,1,48,41,273288820
553,10,Ticks_ISO_T2_5,114,5,42,127,273290556
553,10,Ticks_ISO_T2_5,115,1,48,67,273745016
553,10,Ticks_ISO_T2_5,116,1,48,39,273791432
553,10,Ticks_ISO_T2_5,117,5,42,127,273792624
553,10,Ticks_ISO_T2_5,118,1,48,71,274258080
553,10,Ticks_ISO_T2_5,119,5,42,127,274291044
553,10,Ticks_ISO_T2_5,120,1,48,40,274300360
553,10,Ticks_ISO_T2_5,121,1,48,71,274775700
553,10,Ticks_ISO_T2_5,122,5,42,127,274790620
553,10,Ticks_ISO_T2_5,123,1,48,45,274813420
553,10,Ticks_ISO_T2_5,124,5,42,127,275290596
553,10,Ticks_ISO_T2_5,125,1,48,67,275333684
553,10,Ticks_ISO_T2_5,126,1,48,43,275368372
553,10,Ticks_ISO_T2_5,127,5,42,127,275791316
553,10,Ticks_ISO_T2_5,128,1,48,74,275824732
553,10,Ticks_ISO_T2_5,129,1,48,47,275853580
553,10,Ticks_ISO_T2_5,130,5,42,127,276290816
553,10,Ticks_ISO_T2_5,131,1,48,80,276345568
553,10,Ticks_ISO_T2_5,132,1,48,46,276375992
553,10,Ticks_ISO_T2_5,133,5,42,127,276790640
553,10,Ticks_ISO_T2_5,134,1,48,74,276838936
553,10,Ticks_ISO_T2_5,135,1,48,58,276862944
553,10,Ticks_ISO_T2_5,136,5,42,127,277291804
553,10,Ticks_ISO_T2_5,137,1,48,72,277338980
553,10,Ticks_ISO_T2_5,138,1,48,52,277368604
553,10,Ticks_ISO_T2_5,139,5,42,127,277791032
553,10,Ticks_ISO_T2_5,140,1,48,77,277831472
553,10,Ticks_ISO_T2_5,141,1,48,51,277860320
553,10,Ticks_ISO_T2_5,142,5,42,127,278290704
553,10,Ticks_ISO_T2_5,143,1,48,74,278303844
553,10,Ticks_ISO_T2_5,144,1,48,54,278339204
553,10,Ticks_ISO_T2_5,145,5,42,127,278790380
553,10,Ticks_ISO_T2_5,146,1,48,72,278824164
553,10,Ticks_ISO_T2_5,147,1,48,54,278857500
553,10,Ticks_ISO_T2_5,148,5,42,127,279291468
553,10,Ticks_ISO_T2_5,149,1,48,76,279309248
553,10,Ticks_ISO_T2_5,150,1,48,54,279345052
553,10,Ticks_ISO_T2_5,151,5,42,127,279790992
553,10,Ticks_ISO_T2_5,152,1,48,67,279796204
553,10,Ticks_ISO_T2_5,153,1,48,48,279832160
553,10,Ticks_ISO_T2_5,154,1,48,74,280270356
553,10,Ticks_ISO_T2_5,155,5,42,127,280290588
553,10,Ticks_ISO_T2_5,156,1,48,53,280296612
553,10,Ticks_ISO_T2_5,157,1,48,78,280786856
553,10,Ticks_ISO_T2_5,158,5,42,127,280791604
553,10,Ticks_ISO_T2_5,159,1,48,53,280815424
553,10,Ticks_ISO_T2_5,160,1,48,73,281250404
553,10,Ticks_ISO_T2_5,161,1,48,52,281276184
553,10,Ticks_ISO_T2_5,162,5,42,127,281291108
553,10,Ticks_ISO_T2_5,163,1,48,77,281739680
553,10,Ticks_ISO_T2_5,164,1,48,57,281767412
553,10,Ticks_ISO_T2_5,165,5,42,127,281790708
553,10,Ticks_ISO_T2_5,166,1,48,72,282233896
553,10,Ticks_ISO_T2_5,167,1,48,52,282266108
553,10,Ticks_ISO_T2_5,168,5,42,127,282290604
553,10,Ticks_ISO_T2_5,169,1,48,77,282724864
553,10,Ticks_ISO_T2_5,170,1,48,51,282772140
553,10,Ticks_ISO_T2_5,171,5,42,127,282791548
553,10,Ticks_ISO_T2_5,172,1,48,70,283242940
553,10,Ticks_ISO_T2_5,173,1,48,42,283283708
553,10,Ticks_ISO_T2_5,174,5,42,127,283290920
553,10,Ticks_ISO_T2_5,175,1,48,85,283710148
553,10,Ticks_ISO_T2_5,176,1,48,67,283739228
553,10,Ticks_ISO_T2_5,177,5,42,127,283790596
553,10,Ticks_ISO_T2_5,178,1,48,85,284224780
553,10,Ticks_ISO_T2_5,179,1,48,61,284256404
553,10,Ticks_ISO_T2_5,180,5,42,127,284290416
553,10,Ticks_ISO_T2_5,181,1,48,77,284729692
553,10,Ticks_ISO_T2_5,182,1,48,57,284760780
553,10,Ticks_ISO_T2_5,183,5,42,127,284791356
553,10,Ticks_ISO_T2_5,184,1,48,77,285233180
553,10,Ticks_ISO_T2_5,185,1,48,62,285258816
553,10,Ticks_ISO_T2_5,186,5,42,127,285290860
553,10,Ticks_ISO_T2_5,187,1,48,85,285742276
553,10,Ticks_ISO_T2_5,188,1,48,61,285771200
553,10,Ticks_ISO_T2_5,189,5,42,127,285790456
553,10,Ticks_ISO_T2_5,190,1,48,95,286271268
553,10,Ticks_ISO_T2_5,191,5,42,127,286291420
553,10,Ticks_ISO_T2_5,192,1,48,68,286301412
553,10,Ticks_ISO_T2_5,193,1,48,87,286788836
553,10,Ticks_ISO_T2_5,194,5,42,127,286791320
553,10,Ticks_ISO_T2_5,195,1,48,59,286820908
553,10,Ticks_ISO_T2_5,196,5,42,127,287290780
553,10,Ticks_ISO_T2_5,197,1,48,83,287293748
553,10,Ticks_ISO_T2_5,198,1,48,56,287324392
553,10,Ticks_ISO_T2_5,199,1,48,80,287749796
553,10,Ticks_ISO_T2_5,200,1,48,61,287779764
553,10,Ticks_ISO_T2_5,201,5,42,127,287790496
553,10,Ticks_ISO_T2_5,202,1,48,75,288269444
553,10,Ticks_ISO_T2_5,203,5,42,127,288291388
553,10,Ticks_ISO_T2_5,204,1,48,51,288302200
553,10,Ticks_ISO_T2_5,205,1,48,81,288774496
553,10,Ticks_ISO_T2_5,206,5,42,127,288790912
553,10,Ticks_ISO_T2_5,207,1,48,59,288800372
553,10,Ticks_ISO_T2_5,208,1,48,95,289236472
553,10,Ticks_ISO_T2_5,209,1,48,69,289260612
553,10,Ticks_ISO_T2_5,210,5,42,127,289290564
553,10,Ticks_ISO_T2_5,211,1,48,91,289755372
553,10,Ticks_ISO_T2_5,212,1,48,60,289782272
553,10,Ticks_ISO_T2_5,213,5,42,127,289791284
553,10,Ticks_ISO_T2_5,214,1,48,84,290247040
553,10,Ticks_ISO_T2_5,215,1,48,57,290270128
553,10,Ticks_ISO_T2_5,216,5,42,127,290291180
553,10,Ticks_ISO_T2_5,217,1,48,90,290759648
553,10,Ticks_ISO_T2_5,218,1,48,63,290777956
553,10,Ticks_ISO_T2_5,219,5,42,127,290790632
553,10,Ticks_ISO_T2_5,220,1,48,86,291243840
553,10,Ticks_ISO_T2_5,221,5,42,127,291290476
553,10,Ticks_ISO_T2_5,222,1,48,84,291708308
553,10,Ticks_ISO_T2_5,223,5,42,127,291791068
553,10,Ticks_ISO_T2_5,224,1,48,92,292203640
553,10,Ticks_ISO_T2_5,225,1,48,73,292219796
553,10,Ticks_ISO_T2_5,226,5,42,127,292290964
553,10,Ticks_ISO_T2_5,227,1,48,87,292673240
553,10,Ticks_ISO_T2_5,228,5,42,127,292790644
553,10,Ticks_ISO_T2_5,229,1,48,92,293185876
553,10,Ticks_ISO_T2_5,230,1,48,72,293203060
553,10,Ticks_ISO_T2_5,231,5,42,127,293291380
553,10,Ticks_ISO_T2_5,232,1,48,95,293667224
553,10,Ticks_ISO_T2_5,233,1,48,71,293685304
553,10,Ticks_ISO_T2_5,234,5,42,127,293791036
553,10,Ticks_ISO_T2_5,235,1,48,104,294161516
553,10,Ticks_ISO_T2_5,236,1,48,80,294180784
553,10,Ticks_ISO_T2_5,237,5,42,127,294291008
553,10,Ticks_ISO_T2_5,238,1,48,96,294670836
553,10,Ticks_ISO_T2_5,239,1,48,66,294689216
553,10,Ticks_ISO_T2_5,240,5,42,127,294790532
553,10,Ticks_ISO_T2_5,241,1,48,92,295178660
553,10,Ticks_ISO_T2_5,242,1,48,77,295198160
553,10,Ticks_ISO_T2_5,243,5,42,127,295291116
553,10,Ticks_ISO_T2_5,244,1,48,103,295684760
553,10,Ticks_ISO_T2_5,245,1,48,76,295705684
553,10,Ticks_ISO_T2_5,246,5,42,127,295790912
553,10,Ticks_ISO_T2_5,247,1,48,104,296203808
553,10,Ticks_ISO_T2_5,248,1,48,72,296225328
553,10,Ticks_ISO_T2_5,249,5,42,127,296290660
553,10,Ticks_ISO_T2_5,250,1,48,116,296740356
553,10,Ticks_ISO_T2_5,251,1,48,82,296762400
553,10,Ticks_ISO_T2_5,252,5,42,127,296791528
553,10,Ticks_ISO_T2_5,253,1,48,120,297223944
553,10,Ticks_ISO_T2_5,254,1,48,88,297242924
553,10,Ticks_ISO_T2_5,255,5,42,127,297291128
553,10,Ticks_ISO_T2_5,256,1,48,83,297719580
553,10,Ticks_ISO_T2_5,257,1,48,68,297740052
553,10,Ticks_ISO_T2_5,258,5,42,127,297791024
553,10,Ticks_ISO_T2_5,259,1,48,100,298230624
553,10,Ticks_ISO_T2_5,260,1,48,75,298251020
553,10,Ticks_ISO_T2_5,261,5,42,127,298290400
553,10,Ticks_ISO_T2_5,262,1,48,89,298748176
553,10,Ticks_ISO_T2_5,263,1,48,67,298771264
553,10,Ticks_ISO_T2_5,264,5,42,127,298791268
553,10,Ticks_ISO_T2_5,265,1,48,103,299230496
553,10,Ticks_ISO_T2_5,266,1,48,82,299249848
553,10,Ticks_ISO_T2_5,267,5,42,127,299290868
553,10,Ticks_ISO_T2_5,268,1,48,88,299725832
553,10,Ticks_ISO_T2_5,269,1,48,71,299746828
553,10,Ticks_ISO_T2_5,270,5,42,127,299790764
553,10,Ticks_ISO_T2_5,271,1,48,108,300219668
553,10,Ticks_ISO_T2_5,272,1,48,86,300239764
553,10,Ticks_ISO_T2_5,273,5,42,127,300290364
553,10,Ticks_ISO_T2_5,274,1,48,103,300681716
553,10,Ticks_ISO_T2_5,275,1,48,82,300704132
553,10,Ticks_ISO_T2_5,276,5,42,127,300791084
553,10,Ticks_ISO_T2_5,277,1,48,106,301188424
553,10,Ticks_ISO_T2_5,278,1,48,87,301210840
553,10,Ticks_ISO_T2_5,279,5,42,127,301290980
553,10,Ticks_ISO_T2_5,280,1,48,96,301704768
553,10,Ticks_ISO_T2_5,281,1,48,77,301727340
553,10,Ticks_ISO_T2_5,282,5,42,127,301790504
553,10,Ticks_ISO_T2_5,283,1,48,82,302217012
553,10,Ticks_ISO_T2_5,284,1,48,67,302239808
553,10,Ticks_ISO_T2_5,285,5,42,127,302291372
553,10,Ticks_ISO_T2_5,286,1,48,93,302724912
553,10,Ticks_ISO_T2_5,287,1,48,74,302746060
553,10,Ticks_ISO_T2_5,288,5,42,127,302790972
553,10,Ticks_ISO_T2_5,289,1,48,93,303244928
553,10,Ticks_ISO_T2_5,290,1,48,71,303265928
553,10,Ticks_ISO_T2_5,291,5,42,127,303290944
553,10,Ticks_ISO_T2_5,292,1,48,98,303716608
553,10,Ticks_ISO_T2_5,293,1,48,75,303737032
553,10,Ticks_ISO_T2_5,294,5,42,127,303790320
553,10,Ticks_ISO_T2_5,295,1,48,82,304226604
553,10,Ticks_ISO_T2_5,296,1,48,67,304247028
553,10,Ticks_ISO_T2_5,297,5,42,127,304291112
553,10,Ticks_ISO_T2_5,298,1,48,102,304703760
553,10,Ticks_ISO_T2_5,299,1,48,81,304723556
553,10,Ticks_ISO_T2_5,300,5,42,127,304790860
553,10,Ticks_ISO_T2_5,301,1,48,103,305190860
553,10,Ticks_ISO_T2_5,302,1,48,75,305209692
553,10,Ticks_ISO_T2_5,303,5,42,127,305290680
553,10,Ticks_ISO_T2_5,304,1,48,95,305673032
553,10,Ticks_ISO_T2_5,305,1,48,78,305692532
553,10,Ticks_ISO_T2_5,306,5,42,127,305791312
553,10,Ticks_ISO_T2_5,307,1,48,94,306143156
553,10,Ticks_ISO_T2_5,308,1,48,78,306163036
553,10,Ticks_ISO_T2_5,309,5,42,127,306290984
553,10,Ticks_ISO_T2_5,310,1,48,115,306650688
553,10,Ticks_ISO_T2_5,311,1,48,89,306669140
553,10,Ticks_ISO_T2_5,312,5,42,127,306790708
553,10,Ticks_ISO_T2_5,313,1,48,90,307151184
553,10,Ticks_ISO_T2_5,314,1,48,77,307169936
553,10,Ticks_ISO_T2_5,315,5,42,127,307290380
553,10,Ticks_ISO_T2_5,316,1,48,96,307647568
553,10,Ticks_ISO_T2_5,317,1,48,83,307666912
553,10,Ticks_ISO_T2_5,318,5,42,127,307791172
553,10,Ticks_ISO_T2_5,319,1,48,99,308144172
553,10,Ticks_ISO_T2_5,320,1,48,75,308164564
553,10,Ticks_ISO_T2_5,321,5,42,127,308290848
553,10,Ticks_ISO_T2_5,322,1,48,105,308628960
553,10,Ticks_ISO_T2_5,323,1,48,78,308649208
553,10,Ticks_ISO_T2_5,324,5,42,127,308790668
553,10,Ticks_ISO_T2_5,325,1,48,111,309113816
553,10,Ticks_ISO_T2_5,326,1,48,76,309135188
553,10,Ticks_ISO_T2_5,327,5,42,127,309291240
553,10,Ticks_ISO_T2_5,328,1,48,112,309596492
553,10,Ticks_ISO_T2_5,329,1,48,85,309618332
553,10,Ticks_ISO_T2_5,330,5,42,127,309791060
553,10,Ticks_ISO_T2_5,331,1,48,94,310091596
553,10,Ticks_ISO_T2_5,332,1,48,65,310114540
553,10,Ticks_ISO_T2_5,333,5,42,127,310290732
553,10,Ticks_ISO_T2_5,334,1,48,90,310610496
553,10,Ticks_ISO_T2_5,335,1,48,62,310633664
553,10,Ticks_ISO_T2_5,336,5,42,127,310790708
553,10,Ticks_ISO_T2_5,337,1,48,89,311106056
553,10,Ticks_ISO_T2_5,338,1,48,55,311131840
553,10,Ticks_ISO_T2_5,339,5,42,127,311291128
553,10,Ticks_ISO_T2_5,340,1,48,86,311623832
553,10,Ticks_ISO_T2_5,341,1,48,50,311659188
553,10,Ticks_ISO_T2_5,342,5,42,127,311791024
553,10,Ticks_ISO_T2_5,343,1,48,119,312064188
553,10,Ticks_ISO_T2_5,344,1,48,75,312087428
553,10,Ticks_ISO_T2_5,345,5,42,127,312290772
553,10,Ticks_ISO_T2_5,346,1,48,91,312595800
553,10,Ticks_ISO_T2_5,347,1,48,49,312633700
553,10,Ticks_ISO_T2_5,348,5,42,127,312791640
553,10,Ticks_ISO_T2_5,349,1,48,86,313089044
553,10,Ticks_ISO_T2_5,350,5,42,127,313290964
553,10,Ticks_ISO_T2_5,351,1,48,84,313576092
553,10,Ticks_ISO_T2_5,352,1,48,63,313603600
553,10,Ticks_ISO_T2_5,353,5,42,127,313790788
553,10,Ticks_ISO_T2_5,354,1,48,84,314110624
553,10,Ticks_ISO_T2_5,355,1,48,47,314144112
553,10,Ticks_ISO_T2_5,0,9999,9999,9999,249288804
553,10,Ticks_ISO_T2_5,1,9999,9999,9999,249788520
553,10,Ticks_ISO_T2_5,2,9999,9999,9999,250288216
553,10,Ticks_ISO_T2_5,3,9999,9999,9999,250788952
553,10,Ticks_ISO_T2_5,4,9999,9999,9999,251288644
553,10,Ticks_ISO_T2_5,5,9999,9999,9999,251788400
553,10,Ticks_ISO_T2_5,6,9999,9999,9999,252288088
553,10,Ticks_ISO_T2_5,7,9999,9999,9999,252788788
553,10,Ticks_ISO_T2_5,8,9999,9999,9999,253288512
553,10,Ticks_ISO_T2_5,9,9999,9999,9999,253788260
553,10,Ticks_ISO_T2_5,10,9999,9999,9999,254288980
553,10,Ticks_ISO_T2_5,11,9999,9999,9999,254788676
553,10,Ticks_ISO_T2_5,12,9999,9999,9999,255288368
553,10,Ticks_ISO_T2_5,13,9999,9999,9999,255788136
553,10,Ticks_ISO_T2_5,14,9999,9999,9999,256288880
553,10,Ticks_ISO_T2_5,15,9999,9999,9999,256788572
553,10,Ticks_ISO_T2_5,16,9999,9999,9999,257288268
553,10,Ticks_ISO_T2_5,17,9999,9999,9999,257789012
553,10,Ticks_ISO_T2_5,18,9999,9999,9999,258288736
553,10,Ticks_ISO_T2_5,19,9999,9999,9999,258788428
553,10,Ticks_ISO_T2_5,20,9999,9999,9999,259288176
553,10,Ticks_ISO_T2_5,21,9999,9999,9999,259788920
553,10,Ticks_ISO_T2_5,22,9999,9999,9999,260288616
553,10,Ticks_ISO_T2_5,23,9999,9999,9999,260788308
553,10,Ticks_ISO_T2_5,24,9999,9999,9999,261289048
553,10,Ticks_ISO_T2_5,25,9999,9999,9999,261788744
553,10,Ticks_ISO_T2_5,26,9999,9999,9999,262288436
553,10,Ticks_ISO_T2_5,27,9999,9999,9999,262788208
553,10,Ticks_ISO_T2_5,28,9999,9999,9999,263288948
553,10,Ticks_ISO_T2_5,29,9999,9999,9999,263788616
553,10,Ticks_ISO_T2_5,30,9999,9999,9999,264288308
553,10,Ticks_ISO_T2_5,31,9999,9999,9999,264789100
553,10,Ticks_ISO_T2_5,32,9999,9999,9999,265288772
553,10,Ticks_ISO_T2_5,33,9999,9999,9999,265788468
553,10,Ticks_ISO_T2_5,34,9999,9999,9999,266288212
553,10,Ticks_ISO_T2_5,35,9999,9999,9999,266788932
553,10,Ticks_ISO_T2_5,36,9999,9999,9999,267288628
553,10,Ticks_ISO_T2_5,37,9999,9999,9999,267788384
553,10,Ticks_ISO_T2_5,38,9999,9999,9999,268288072
553,10,Ticks_ISO_T2_5,39,9999,9999,9999,268788792
553,10,Ticks_ISO_T2_5,40,9999,9999,9999,269288540
553,10,Ticks_ISO_T2_5,41,9999,9999,9999,269788212
553,10,Ticks_ISO_T2_5,42,9999,9999,9999,270289008
553,10,Ticks_ISO_T2_5,43,9999,9999,9999,270788704
553,10,Ticks_ISO_T2_5,44,9999,9999,9999,271288400
553,10,Ticks_ISO_T2_5,45,9999,9999,9999,271788092
553,10,Ticks_ISO_T2_5,46,9999,9999,9999,272288836
553,10,Ticks_ISO_T2_5,47,9999,9999,9999,272788580
553,10,Ticks_ISO_T2_5,48,9999,9999,9999,273288296
553,10,Ticks_ISO_T2_5,49,9999,9999,9999,273789012
553,10,Ticks_ISO_T2_5,50,9999,9999,9999,274288760
553,10,Ticks_ISO_T2_5,51,9999,9999,9999,274788408
553,10,Ticks_ISO_T2_5,52,9999,9999,9999,275288160
553,10,Ticks_ISO_T2_5,53,9999,9999,9999,275788884
553,10,Ticks_ISO_T2_5,54,9999,9999,9999,276288604
553,10,Ticks_ISO_T2_5,55,9999,9999,9999,276788276
553,10,Ticks_ISO_T2_5,56,9999,9999,9999,277289072
553,10,Ticks_ISO_T2_5,57,9999,9999,9999,277788744
553,10,Ticks_ISO_T2_5,58,9999,9999,9999,278288492
553,10,Ticks_ISO_T2_5,59,9999,9999,9999,278788164
553,10,Ticks_ISO_T2_5,60,9999,9999,9999,279288884
553,10,Ticks_ISO_T2_5,61,9999,9999,9999,279788632
553,10,Ticks_ISO_T2_5,62,9999,9999,9999,280288376
553,10,Ticks_ISO_T2_5,63,9999,9999,9999,280789096
553,10,Ticks_ISO_T2_5,64,9999,9999,9999,281288820
553,10,Ticks_ISO_T2_5,65,9999,9999,9999,281788496
553,10,Ticks_ISO_T2_5,66,9999,9999,9999,282288244
553,10,Ticks_ISO_T2_5,67,9999,9999,9999,282788964
553,10,Ticks_ISO_T2_5,68,9999,9999,9999,283288636
553,10,Ticks_ISO_T2_5,69,9999,9999,9999,283788384
553,10,Ticks_ISO_T2_5,70,9999,9999,9999,284288056
553,10,Ticks_ISO_T2_5,71,9999,9999,9999,284788848
553,10,Ticks_ISO_T2_5,72,9999,9999,9999,285288496
553,10,Ticks_ISO_T2_5,73,9999,9999,9999,285788244
553,10,Ticks_ISO_T2_5,74,9999,9999,9999,286288988
553,10,Ticks_ISO_T2_5,75,9999,9999,9999,286788708
553,10,Ticks_ISO_T2_5,76,9999,9999,9999,287288416
553,10,Ticks_ISO_T2_5,77,9999,9999,9999,287788136
553,10,Ticks_ISO_T2_5,78,9999,9999,9999,288288880
553,10,Ticks_ISO_T2_5,79,9999,9999,9999,288788552
553,10,Ticks_ISO_T2_5,80,9999,9999,9999,289288276
553,10,Ticks_ISO_T2_5,81,9999,9999,9999,289788996
553,10,Ticks_ISO_T2_5,82,9999,9999,9999,290288744
553,10,Ticks_ISO_T2_5,83,9999,9999,9999,290788420
553,10,Ticks_ISO_T2_5,84,9999,9999,9999,291288116
553,10,Ticks_ISO_T2_5,85,9999,9999,9999,291788856
553,10,Ticks_ISO_T2_5,86,9999,9999,9999,292288604
553,10,Ticks_ISO_T2_5,87,9999,9999,9999,292788284
553,10,Ticks_ISO_T2_5,88,9999,9999,9999,293289016
553,10,Ticks_ISO_T2_5,89,9999,9999,9999,293788752
553,10,Ticks_ISO_T2_5,90,9999,9999,9999,294288496
553,10,Ticks_ISO_T2_5,91,9999,9999,9999,294788172
553,10,Ticks_ISO_T2_5,92,9999,9999,9999,295288904
553,10,Ticks_ISO_T2_5,93,9999,9999,9999,295788628
553,10,Ticks_ISO_T2_5,94,9999,9999,9999,296288376
553,10,Ticks_ISO_T2_5,95,9999,9999,9999,296789092
553,10,Ticks_ISO_T2_5,96,9999,9999,9999,297288768
553,10,Ticks_ISO_T2_5,97,9999,9999,9999,297788516
553,10,Ticks_ISO_T2_5,98,9999,9999,9999,298288188
553,10,Ticks_ISO_T2_5,99,9999,9999,9999,298788984
553,10,Ticks_ISO_T2_5,100,9999,9999,9999,299288656
553,10,Ticks_ISO_T2_5,101,9999,9999,9999,299788404
553,10,Ticks_ISO_T2_5,102,9999,9999,9999,300288076
553,10,Ticks_ISO_T2_5,103,9999,9999,9999,300788796
553,10,Ticks_ISO_T2_5,104,9999,9999,9999,301288544
553,10,Ticks_ISO_T2_5,105,9999,9999,9999,301788216
553,10,Ticks_ISO_T2_5,106,9999,9999,9999,302289012
553,10,Ticks_ISO_T2_5,107,9999,9999,9999,302788688
553,10,Ticks_ISO_T2_5,108,9999,9999,9999,303288436
553,10,Ticks_ISO_T2_5,109,9999,9999,9999,303788108
553,10,Ticks_ISO_T2_5,110,9999,9999,9999,304288828
553,10,Ticks_ISO_T2_5,111,9999,9999,9999,304788572
553,10,Ticks_ISO_T2_5,112,9999,9999,9999,305288248
553,10,Ticks_ISO_T2_5,113,9999,9999,9999,305789024
553,10,Ticks_ISO_T2_5,114,9999,9999,9999,306288696
553,10,Ticks_ISO_T2_5,115,9999,9999,9999,306788420
553,10,Ticks_ISO_T2_5,116,9999,9999,9999,307288164
553,10,Ticks_ISO_T2_5,117,9999,9999,9999,307788884
553,10,Ticks_ISO_T2_5,118,9999,9999,9999,308288560
553,10,Ticks_ISO_T2_5,119,9999,9999,9999,308788308
553,10,Ticks_ISO_T2_5,120,9999,9999,9999,309289028
553,10,Ticks_ISO_T2_5,121,9999,9999,9999,309788776
553,10,Ticks_ISO_T2_5,122,9999,9999,9999,310288444
553,10,Ticks_ISO_T2_5,123,9999,9999,9999,310788196
553,10,Ticks_ISO_T2_5,124,9999,9999,9999,311288916
553,10,Ticks_ISO_T2_5,125,9999,9999,9999,311788664
553,10,Ticks_ISO_T2_5,126,9999,9999,9999,312288336
553,10,Ticks_ISO_T2_5,127,9999,9999,9999,312789056
553,10,Ticks_ISO_T2_5,128,9999,9999,9999,313288752
553,10,Ticks_ISO_T2_5,129,9999,9999,9999,313788500
555,9,Ticks_ISO_T2_8,0,5,42,127,475967724
555,9,Ticks_ISO_T2_8,1,5,42,127,476767476
555,9,Ticks_ISO_T2_8,2,1,48,49,476938840
555,9,Ticks_ISO_T2_8,3,5,42,127,477568356
555,9,Ticks_ISO_T2_8,4,1,48,62,477623680
555,9,Ticks_ISO_T2_8,5,1,48,53,478307664
555,9,Ticks_ISO_T2_8,6,1,48,43,478332868
555,9,Ticks_ISO_T2_8,7,5,42,127,478368208
555,9,Ticks_ISO_T2_8,8,1,48,61,479089520
555,9,Ticks_ISO_T2_8,9,5,42,127,479167944
555,9,Ticks_ISO_T2_8,10,1,48,60,479882144
555,9,Ticks_ISO_T2_8,11,1,48,47,479907188
555,9,Ticks_ISO_T2_8,12,5,42,127,479967508
555,9,Ticks_ISO_T2_8,13,1,48,54,480671460
555,9,Ticks_ISO_T2_8,14,1,48,43,480698744
555,9,Ticks_ISO_T2_8,15,5,42,127,480768488
555,9,Ticks_ISO_T2_8,16,1,48,61,481523380
555,9,Ticks_ISO_T2_8,17,1,48,42,481552608
555,9,Ticks_ISO_T2_8,18,5,42,127,481568200
555,9,Ticks_ISO_T2_8,19,1,48,83,482308220
555,9,Ticks_ISO_T2_8,20,1,48,58,482336168
555,9,Ticks_ISO_T2_8,21,5,42,127,482367988
555,9,Ticks_ISO_T2_8,22,1,48,70,483068136
555,9,Ticks_ISO_T2_8,23,5,42,127,483168004
555,9,Ticks_ISO_T2_8,24,1,48,83,483887984
555,9,Ticks_ISO_T2_8,25,5,42,127,483968528
555,9,Ticks_ISO_T2_8,26,1,48,69,484650472
555,9,Ticks_ISO_T2_8,27,5,42,127,484768244
555,9,Ticks_ISO_T2_8,28,1,48,65,485414152
555,9,Ticks_ISO_T2_8,29,1,48,48,485441952
555,9,Ticks_ISO_T2_8,30,5,42,127,485567956
555,9,Ticks_ISO_T2_8,31,1,48,71,486213788
555,9,Ticks_ISO_T2_8,32,1,48,53,486237404
555,9,Ticks_ISO_T2_8,33,5,42,127,486367816
555,9,Ticks_ISO_T2_8,34,1,48,73,486946776
555,9,Ticks_ISO_T2_8,35,1,48,58,486970844
555,9,Ticks_ISO_T2_8,36,5,42,127,487168352
555,9,Ticks_ISO_T2_8,37,1,48,73,487742076
555,9,Ticks_ISO_T2_8,38,5,42,127,487968088
555,9,Ticks_ISO_T2_8,39,1,48,61,488545172
555,9,Ticks_ISO_T2_8,40,5,42,127,488767968
555,9,Ticks_ISO_T2_8,41,1,48,67,489300556
555,9,Ticks_ISO_T2_8,42,5,42,127,489567628
555,9,Ticks_ISO_T2_8,43,1,48,67,490074108
555,9,Ticks_ISO_T2_8,44,5,42,127,490368360
555,9,Ticks_ISO_T2_8,45,1,48,69,490863024
555,9,Ticks_ISO_T2_8,46,5,42,127,491168096
555,9,Ticks_ISO_T2_8,47,1,48,73,491628728
555,9,Ticks_ISO_T2_8,48,5,42,127,491968052
555,9,Ticks_ISO_T2_8,49,1,48,68,492391884
555,9,Ticks_ISO_T2_8,50,5,42,127,492767488
555,9,Ticks_ISO_T2_8,51,1,48,73,493174708
555,9,Ticks_ISO_T2_8,52,5,42,127,493568416
555,9,Ticks_ISO_T2_8,53,1,48,76,493897676
555,9,Ticks_ISO_T2_8,54,5,42,127,494368076
555,9,Ticks_ISO_T2_8,55,1,48,86,494699084
555,9,Ticks_ISO_T2_8,56,5,42,127,495168108
555,9,Ticks_ISO_T2_8,57,1,48,71,495525968
555,9,Ticks_ISO_T2_8,58,5,42,127,495967840
555,9,Ticks_ISO_T2_8,59,1,48,63,496270576
555,9,Ticks_ISO_T2_8,60,5,42,127,496768424
555,9,Ticks_ISO_T2_8,61,1,48,51,497072552
555,9,Ticks_ISO_T2_8,62,5,42,127,497568084
555,9,Ticks_ISO_T2_8,63,1,48,51,497852988
555,9,Ticks_ISO_T2_8,64,5,42,127,498367820
555,9,Ticks_ISO_T2_8,65,1,48,56,498656468
555,9,Ticks_ISO_T2_8,66,5,42,127,499167848
555,9,Ticks_ISO_T2_8,67,1,48,86,499453652
555,9,Ticks_ISO_T2_8,68,5,42,127,499968332
555,9,Ticks_ISO_T2_8,69,1,48,78,500268052
555,9,Ticks_ISO_T2_8,70,5,42,127,500768064
555,9,Ticks_ISO_T2_8,71,1,48,71,501064864
555,9,Ticks_ISO_T2_8,72,1,48,54,501089528
555,9,Ticks_ISO_T2_8,73,5,42,127,501567776
555,9,Ticks_ISO_T2_8,74,1,48,64,501863852
555,9,Ticks_ISO_T2_8,75,1,48,48,501899660
555,9,Ticks_ISO_T2_8,76,5,42,127,502367788
555,9,Ticks_ISO_T2_8,77,1,48,65,502699020
555,9,Ticks_ISO_T2_8,78,1,48,41,502750532
555,9,Ticks_ISO_T2_8,79,5,42,127,503168496
555,9,Ticks_ISO_T2_8,80,1,48,73,503482648
555,9,Ticks_ISO_T2_8,81,1,48,43,503523840
555,9,Ticks_ISO_T2_8,82,5,42,127,503967984
555,9,Ticks_ISO_T2_8,83,1,48,73,504341448
555,9,Ticks_ISO_T2_8,84,1,48,39,504393940
555,9,Ticks_ISO_T2_8,85,5,42,127,504767844
555,9,Ticks_ISO_T2_8,86,1,48,77,505137424
555,9,Ticks_ISO_T2_8,87,1,48,56,505166792
555,9,Ticks_ISO_T2_8,88,5,42,127,505567632
555,9,Ticks_ISO_T2_8,89,1,48,83,505974032
555,9,Ticks_ISO_T2_8,90,1,48,53,506009536
555,9,Ticks_ISO_T2_8,91,5,42,127,506368464
555,9,Ticks_ISO_T2_8,92,1,48,69,506737020
555,9,Ticks_ISO_T2_8,93,1,48,54,506762280
555,9,Ticks_ISO_T2_8,94,5,42,127,507168100
555,9,Ticks_ISO_T2_8,95,1,48,67,507548396
555,9,Ticks_ISO_T2_8,96,5,42,127,507967760
555,9,Ticks_ISO_T2_8,97,1,48,78,508325464
555,9,Ticks_ISO_T2_8,98,1,48,58,508349980
555,9,Ticks_ISO_T2_8,99,5,42,127,508767624
555,9,Ticks_ISO_T2_8,100,1,48,69,509129296
555,9,Ticks_ISO_T2_8,101,1,48,51,509155148
555,9,Ticks_ISO_T2_8,102,5,42,127,509568480
555,9,Ticks_ISO_T2_8,103,1,48,67,509926544
555,9,Ticks_ISO_T2_8,104,5,42,127,510368064
555,9,Ticks_ISO_T2_8,105,1,48,73,510764716
555,9,Ticks_ISO_T2_8,106,1,48,54,510788784
555,9,Ticks_ISO_T2_8,107,5,42,127,511167852
555,9,Ticks_ISO_T2_8,108,1,48,64,511590184
555,9,Ticks_ISO_T2_8,109,1,48,51,511614916
555,9,Ticks_ISO_T2_8,110,5,42,127,511967488
555,9,Ticks_ISO_T2_8,111,1,48,73,512377932
555,9,Ticks_ISO_T2_8,112,1,48,54,512402068
555,9,Ticks_ISO_T2_8,113,5,42,127,512768544
555,9,Ticks_ISO_T2_8,114,1,48,73,513157448
555,9,Ticks_ISO_T2_8,115,1,48,51,513184644
555,9,Ticks_ISO_T2_8,116,5,42,127,513568256
555,9,Ticks_ISO_T2_8,117,1,48,68,513958356
555,9,Ticks_ISO_T2_8,118,5,42,127,514367844
555,9,Ticks_ISO_T2_8,119,1,48,76,514743724
555,9,Ticks_ISO_T2_8,120,5,42,127,515167576
555,9,Ticks_ISO_T2_8,121,1,48,64,515513236
555,9,Ticks_ISO_T2_8,122,5,42,127,515968456
555,9,Ticks_ISO_T2_8,123,1,48,71,516266076
555,9,Ticks_ISO_T2_8,124,1,48,55,516285348
555,9,Ticks_ISO_T2_8,125,5,42,127,516768164
555,9,Ticks_ISO_T2_8,126,1,48,59,517069528
555,9,Ticks_ISO_T2_8,127,5,42,127,517567824
555,9,Ticks_ISO_T2_8,128,1,48,59,517876292
555,9,Ticks_ISO_T2_8,129,5,42,127,518367632
555,9,Ticks_ISO_T2_8,130,1,48,72,518677148
555,9,Ticks_ISO_T2_8,131,1,48,50,518701284
555,9,Ticks_ISO_T2_8,132,5,42,127,519168316
555,9,Ticks_ISO_T2_8,133,1,48,73,519466460
555,9,Ticks_ISO_T2_8,134,1,48,47,519494560
555,9,Ticks_ISO_T2_8,135,5,42,127,519968324
555,9,Ticks_ISO_T2_8,136,1,48,65,520272528
555,9,Ticks_ISO_T2_8,137,5,42,127,520767984
555,9,Ticks_ISO_T2_8,138,1,48,77,521074756
555,9,Ticks_ISO_T2_8,139,1,48,43,521135692
555,9,Ticks_ISO_T2_8,140,5,42,127,521567624
555,9,Ticks_ISO_T2_8,141,1,48,71,521938424
555,9,Ticks_ISO_T2_8,142,5,42,127,522368356
555,9,Ticks_ISO_T2_8,143,1,48,89,522724764
555,9,Ticks_ISO_T2_8,144,1,48,55,522760044
555,9,Ticks_ISO_T2_8,145,5,42,127,523168288
555,9,Ticks_ISO_T2_8,146,1,48,68,523524024
555,9,Ticks_ISO_T2_8,147,5,42,127,523967948
555,9,Ticks_ISO_T2_8,148,1,48,90,524314556
555,9,Ticks_ISO_T2_8,149,1,48,55,524346324
555,9,Ticks_ISO_T2_8,150,5,42,127,524767580
555,9,Ticks_ISO_T2_8,151,1,48,84,525104176
555,9,Ticks_ISO_T2_8,152,1,48,61,525135784
555,9,Ticks_ISO_T2_8,153,5,42,127,525568340
555,9,Ticks_ISO_T2_8,154,1,48,78,525905528
555,9,Ticks_ISO_T2_8,155,1,48,54,525937848
555,9,Ticks_ISO_T2_8,156,5,42,127,526368276
555,9,Ticks_ISO_T2_8,157,1,48,90,526703996
555,9,Ticks_ISO_T2_8,158,1,48,62,526733740
555,9,Ticks_ISO_T2_8,159,5,42,127,527168136
555,9,Ticks_ISO_T2_8,160,1,48,71,527507524
555,9,Ticks_ISO_T2_8,161,1,48,50,527534504
555,9,Ticks_ISO_T2_8,162,5,42,127,527967628
555,9,Ticks_ISO_T2_8,163,1,48,76,528316108
555,9,Ticks_ISO_T2_8,164,1,48,52,528343984
555,9,Ticks_ISO_T2_8,165,5,42,127,528768384
555,9,Ticks_ISO_T2_8,166,1,48,71,529129136
555,9,Ticks_ISO_T2_8,167,1,48,49,529160308
555,9,Ticks_ISO_T2_8,168,5,42,127,529568020
555,9,Ticks_ISO_T2_8,169,1,48,75,529917924
555,9,Ticks_ISO_T2_8,170,1,48,58,529943036
555,9,Ticks_ISO_T2_8,171,5,42,127,530368104
555,9,Ticks_ISO_T2_8,172,1,48,84,530736636
555,9,Ticks_ISO_T2_8,173,5,42,127,531167464
555,9,Ticks_ISO_T2_8,174,1,48,78,531523876
555,9,Ticks_ISO_T2_8,175,1,48,62,531548836
555,9,Ticks_ISO_T2_8,176,5,42,127,531968224
555,9,Ticks_ISO_T2_8,177,1,48,80,532330648
555,9,Ticks_ISO_T2_8,178,1,48,63,532354852
555,9,Ticks_ISO_T2_8,179,5,42,127,532768084
555,9,Ticks_ISO_T2_8,180,1,48,71,533155188
555,9,Ticks_ISO_T2_8,181,1,48,55,533176256
555,9,Ticks_ISO_T2_8,182,5,42,127,533568168
555,9,Ticks_ISO_T2_8,183,1,48,54,533946972
555,9,Ticks_ISO_T2_8,184,5,42,127,534367528
555,9,Ticks_ISO_T2_8,185,1,48,69,534763504
555,9,Ticks_ISO_T2_8,186,5,42,127,535168236
555,9,Ticks_ISO_T2_8,187,1,48,65,535562792
555,9,Ticks_ISO_T2_8,188,5,42,127,535968044
555,9,Ticks_ISO_T2_8,189,1,48,53,536380328
555,9,Ticks_ISO_T2_8,190,5,42,127,536767924
555,9,Ticks_ISO_T2_8,191,1,48,56,537200956
555,9,Ticks_ISO_T2_8,192,5,42,127,537567804
555,9,Ticks_ISO_T2_8,193,1,48,58,537994028
555,9,Ticks_ISO_T2_8,194,5,42,127,538368364
555,9,Ticks_ISO_T2_8,195,1,48,59,538831164
555,9,Ticks_ISO_T2_8,196,5,42,127,539168244
555,9,Ticks_ISO_T2_8,197,1,48,55,539606512
555,9,Ticks_ISO_T2_8,198,5,42,127,539967828
555,9,Ticks_ISO_T2_8,199,1,48,54,540465560
555,9,Ticks_ISO_T2_8,200,5,42,127,540767856
555,9,Ticks_ISO_T2_8,201,1,48,52,541276736
555,9,Ticks_ISO_T2_8,202,5,42,127,541568368
555,9,Ticks_ISO_T2_8,203,1,48,55,542070888
555,9,Ticks_ISO_T2_8,204,5,42,127,542368176
555,9,Ticks_ISO_T2_8,205,1,48,52,542818184
555,9,Ticks_ISO_T2_8,206,5,42,127,543167760
555,9,Ticks_ISO_T2_8,207,1,48,60,543627940
555,9,Ticks_ISO_T2_8,208,5,42,127,543967644
555,9,Ticks_ISO_T2_8,209,1,48,54,544427156
555,9,Ticks_ISO_T2_8,210,5,42,127,544768496
555,9,Ticks_ISO_T2_8,211,1,48,56,545241472
555,9,Ticks_ISO_T2_8,212,5,42,127,545568080
555,9,Ticks_ISO_T2_8,213,1,48,54,546069324
555,9,Ticks_ISO_T2_8,214,5,42,127,546367888
555,9,Ticks_ISO_T2_8,215,1,48,60,546867788
555,9,Ticks_ISO_T2_8,216,5,42,127,547167548
555,9,Ticks_ISO_T2_8,217,1,48,74,547656300
555,9,Ticks_ISO_T2_8,218,1,48,57,547675124
555,9,Ticks_ISO_T2_8,219,5,42,127,547968480
555,9,Ticks_ISO_T2_8,220,1,48,69,548518272
555,9,Ticks_ISO_T2_8,221,5,42,127,548768288
555,9,Ticks_ISO_T2_8,222,1,48,72,549407536
555,9,Ticks_ISO_T2_8,223,5,42,127,549567872
555,9,Ticks_ISO_T2_8,224,1,48,70,550175700
555,9,Ticks_ISO_T2_8,225,5,42,127,550367532
555,9,Ticks_ISO_T2_8,226,1,48,73,550972672
555,9,Ticks_ISO_T2_8,227,5,42,127,551168608
555,9,Ticks_ISO_T2_8,228,1,48,68,551758116
555,9,Ticks_ISO_T2_8,229,5,42,127,551968192
555,9,Ticks_ISO_T2_8,230,1,48,67,552478116
555,9,Ticks_ISO_T2_8,231,5,42,127,552767704
555,9,Ticks_ISO_T2_8,232,1,48,63,553323500
555,9,Ticks_ISO_T2_8,233,5,42,127,553567736
555,9,Ticks_ISO_T2_8,234,1,48,58,554095308
555,9,Ticks_ISO_T2_8,235,5,42,127,554368516
555,9,Ticks_ISO_T2_8,236,1,48,64,554926316
555,9,Ticks_ISO_T2_8,237,1,48,47,554951420
555,9,Ticks_ISO_T2_8,238,5,42,127,555168080
555,9,Ticks_ISO_T2_8,239,1,48,74,555654664
555,9,Ticks_ISO_T2_8,240,5,42,127,555967812
555,9,Ticks_ISO_T2_8,241,1,48,69,556467864
555,9,Ticks_ISO_T2_8,242,1,48,42,556500528
555,9,Ticks_ISO_T2_8,243,5,42,127,556767524
555,9,Ticks_ISO_T2_8,244,1,48,63,557285148
555,9,Ticks_ISO_T2_8,245,5,42,127,557568452
555,9,Ticks_ISO_T2_8,246,1,48,67,558067008
555,9,Ticks_ISO_T2_8,247,1,48,36,558109920
555,9,Ticks_ISO_T2_8,248,5,42,127,558368312
555,9,Ticks_ISO_T2_8,249,1,48,72,558893200
555,9,Ticks_ISO_T2_8,250,5,42,127,559167824
555,9,Ticks_ISO_T2_8,251,1,48,69,559703252
555,9,Ticks_ISO_T2_8,252,5,42,127,559967556
555,9,Ticks_ISO_T2_8,253,1,48,72,560455912
555,9,Ticks_ISO_T2_8,254,5,42,127,560768484
555,9,Ticks_ISO_T2_8,255,1,48,77,561298156
555,9,Ticks_ISO_T2_8,256,1,48,52,561321692
555,9,Ticks_ISO_T2_8,257,5,42,127,561568272
555,9,Ticks_ISO_T2_8,258,1,48,79,562100488
555,9,Ticks_ISO_T2_8,259,1,48,48,562137492
555,9,Ticks_ISO_T2_8,260,5,42,127,562367984
555,9,Ticks_ISO_T2_8,261,1,48,70,562907680
555,9,Ticks_ISO_T2_8,262,5,42,127,563167568
555,9,Ticks_ISO_T2_8,263,1,48,76,563665372
555,9,Ticks_ISO_T2_8,264,1,48,46,563708732
555,9,Ticks_ISO_T2_8,265,5,42,127,563968252
555,9,Ticks_ISO_T2_8,266,1,48,76,564464112
555,9,Ticks_ISO_T2_8,267,1,48,54,564494160
555,9,Ticks_ISO_T2_8,268,5,42,127,564768264
555,9,Ticks_ISO_T2_8,269,1,48,72,565276844
555,9,Ticks_ISO_T2_8,270,1,48,41,565314216
555,9,Ticks_ISO_T2_8,271,5,42,127,565568344
555,9,Ticks_ISO_T2_8,272,1,48,89,566052316
555,9,Ticks_ISO_T2_8,273,1,48,55,566078024
555,9,Ticks_ISO_T2_8,274,5,42,127,566367712
555,9,Ticks_ISO_T2_8,275,1,48,81,566876936
555,9,Ticks_ISO_T2_8,276,1,48,57,566897960
555,9,Ticks_ISO_T2_8,277,5,42,127,567168392
555,9,Ticks_ISO_T2_8,278,1,48,93,567672108
555,9,Ticks_ISO_T2_8,279,1,48,67,567694600
555,9,Ticks_ISO_T2_8,280,5,42,127,567968104
555,9,Ticks_ISO_T2_8,281,1,48,74,568420956
555,9,Ticks_ISO_T2_8,282,5,42,127,568768136
555,9,Ticks_ISO_T2_8,283,1,48,84,569239912
555,9,Ticks_ISO_T2_8,284,1,48,49,569268764
555,9,Ticks_ISO_T2_8,285,5,42,127,569567476
555,9,Ticks_ISO_T2_8,286,1,48,79,569960940
555,9,Ticks_ISO_T2_8,287,1,48,54,569986572
555,9,Ticks_ISO_T2_8,288,5,42,127,570368236
555,9,Ticks_ISO_T2_8,289,1,48,80,570784960
555,9,Ticks_ISO_T2_8,290,1,48,52,570810672
555,9,Ticks_ISO_T2_8,291,5,42,127,571168172
555,9,Ticks_ISO_T2_8,292,1,48,71,571610776
555,9,Ticks_ISO_T2_8,0,9999,9999,9999,475965504
555,9,Ticks_ISO_T2_8,1,9999,9999,9999,476765260
555,9,Ticks_ISO_T2_8,2,9999,9999,9999,477566064
555,9,Ticks_ISO_T2_8,3,9999,9999,9999,478365772
555,9,Ticks_ISO_T2_8,4,9999,9999,9999,479165504
555,9,Ticks_ISO_T2_8,5,9999,9999,9999,479965292
555,9,Ticks_ISO_T2_8,6,9999,9999,9999,480766048
555,9,Ticks_ISO_T2_8,7,9999,9999,9999,481565760
555,9,Ticks_ISO_T2_8,8,9999,9999,9999,482365552
555,9,Ticks_ISO_T2_8,9,9999,9999,9999,483165284
555,9,Ticks_ISO_T2_8,10,9999,9999,9999,483966012
555,9,Ticks_ISO_T2_8,11,9999,9999,9999,484765804
555,9,Ticks_ISO_T2_8,12,9999,9999,9999,485565516
555,9,Ticks_ISO_T2_8,13,9999,9999,9999,486365304
555,9,Ticks_ISO_T2_8,14,9999,9999,9999,487166064
555,9,Ticks_ISO_T2_8,15,9999,9999,9999,487965796
555,9,Ticks_ISO_T2_8,16,9999,9999,9999,488765528
555,9,Ticks_ISO_T2_8,17,9999,9999,9999,489565264
555,9,Ticks_ISO_T2_8,18,9999,9999,9999,490366072
555,9,Ticks_ISO_T2_8,19,9999,9999,9999,491165804
555,9,Ticks_ISO_T2_8,20,9999,9999,9999,491965540
555,9,Ticks_ISO_T2_8,21,9999,9999,9999,492765272
555,9,Ticks_ISO_T2_8,22,9999,9999,9999,493566052
555,9,Ticks_ISO_T2_8,23,9999,9999,9999,494365784
555,9,Ticks_ISO_T2_8,24,9999,9999,9999,495165520
555,9,Ticks_ISO_T2_8,25,9999,9999,9999,495965256
555,9,Ticks_ISO_T2_8,26,9999,9999,9999,496766056
555,9,Ticks_ISO_T2_8,27,9999,9999,9999,497565792
555,9,Ticks_ISO_T2_8,28,9999,9999,9999,498365528
555,9,Ticks_ISO_T2_8,29,9999,9999,9999,499165260
555,9,Ticks_ISO_T2_8,30,9999,9999,9999,499966044
555,9,Ticks_ISO_T2_8,31,9999,9999,9999,500765776
555,9,Ticks_ISO_T2_8,32,9999,9999,9999,501565560
555,9,Ticks_ISO_T2_8,33,9999,9999,9999,502365272
555,9,Ticks_ISO_T2_8,34,9999,9999,9999,503166056
555,9,Ticks_ISO_T2_8,35,9999,9999,9999,503965768
555,9,Ticks_ISO_T2_8,36,9999,9999,9999,504765556
555,9,Ticks_ISO_T2_8,37,9999,9999,9999,505565264
555,9,Ticks_ISO_T2_8,38,9999,9999,9999,506366024
555,9,Ticks_ISO_T2_8,39,9999,9999,9999,507165808
555,9,Ticks_ISO_T2_8,40,9999,9999,9999,507965544
555,9,Ticks_ISO_T2_8,41,9999,9999,9999,508765256
555,9,Ticks_ISO_T2_8,42,9999,9999,9999,509566040
555,9,Ticks_ISO_T2_8,43,9999,9999,9999,510365776
555,9,Ticks_ISO_T2_8,44,9999,9999,9999,511165560
555,9,Ticks_ISO_T2_8,45,9999,9999,9999,511965272
555,9,Ticks_ISO_T2_8,46,9999,9999,9999,512766032
555,9,Ticks_ISO_T2_8,47,9999,9999,9999,513565816
555,9,Ticks_ISO_T2_8,48,9999,9999,9999,514365552
555,9,Ticks_ISO_T2_8,49,9999,9999,9999,515165284
555,9,Ticks_ISO_T2_8,50,9999,9999,9999,515966016
555,9,Ticks_ISO_T2_8,51,9999,9999,9999,516765800
555,9,Ticks_ISO_T2_8,52,9999,9999,9999,517565532
555,9,Ticks_ISO_T2_8,53,9999,9999,9999,518365268
555,9,Ticks_ISO_T2_8,54,9999,9999,9999,519166024
555,9,Ticks_ISO_T2_8,55,9999,9999,9999,519965812
555,9,Ticks_ISO_T2_8,56,9999,9999,9999,520765544
555,9,Ticks_ISO_T2_8,57,9999,9999,9999,521565256
555,9,Ticks_ISO_T2_8,58,9999,9999,9999,522366064
555,9,Ticks_ISO_T2_8,59,9999,9999,9999,523165772
555,9,Ticks_ISO_T2_8,60,9999,9999,9999,523965508
555,9,Ticks_ISO_T2_8,61,9999,9999,9999,524765292
555,9,Ticks_ISO_T2_8,62,9999,9999,9999,525566052
555,9,Ticks_ISO_T2_8,63,9999,9999,9999,526365764
555,9,Ticks_ISO_T2_8,64,9999,9999,9999,527165548
555,9,Ticks_ISO_T2_8,65,9999,9999,9999,527965260
555,9,Ticks_ISO_T2_8,66,9999,9999,9999,528766020
555,9,Ticks_ISO_T2_8,67,9999,9999,9999,529565804
555,9,Ticks_ISO_T2_8,68,9999,9999,9999,530365516
555,9,Ticks_ISO_T2_8,69,9999,9999,9999,531165248
555,9,Ticks_ISO_T2_8,70,9999,9999,9999,531966008
555,9,Ticks_ISO_T2_8,71,9999,9999,9999,532765792
555,9,Ticks_ISO_T2_8,72,9999,9999,9999,533565504
555,9,Ticks_ISO_T2_8,73,9999,9999,9999,534365240
555,9,Ticks_ISO_T2_8,74,9999,9999,9999,535166020
555,9,Ticks_ISO_T2_8,75,9999,9999,9999,535965752
555,9,Ticks_ISO_T2_8,76,9999,9999,9999,536765560
555,9,Ticks_ISO_T2_8,77,9999,9999,9999,537565292
555,9,Ticks_ISO_T2_8,78,9999,9999,9999,538366072
555,9,Ticks_ISO_T2_8,79,9999,9999,9999,539165804
555,9,Ticks_ISO_T2_8,80,9999,9999,9999,539965536
555,9,Ticks_ISO_T2_8,81,9999,9999,9999,540765268
555,9,Ticks_ISO_T2_8,82,9999,9999,9999,541566000
555,9,Ticks_ISO_T2_8,83,9999,9999,9999,542365812
555,9,Ticks_ISO_T2_8,84,9999,9999,9999,543165544
555,9,Ticks_ISO_T2_8,85,9999,9999,9999,543965276
555,9,Ticks_ISO_T2_8,86,9999,9999,9999,544766056
555,9,Ticks_ISO_T2_8,87,9999,9999,9999,545565792
555,9,Ticks_ISO_T2_8,88,9999,9999,9999,546365524
555,9,Ticks_ISO_T2_8,89,9999,9999,9999,547165256
555,9,Ticks_ISO_T2_8,90,9999,9999,9999,547966040
555,9,Ticks_ISO_T2_8,91,9999,9999,9999,548765772
555,9,Ticks_ISO_T2_8,92,9999,9999,9999,549565508
555,9,Ticks_ISO_T2_8,93,9999,9999,9999,550365240
555,9,Ticks_ISO_T2_8,94,9999,9999,9999,551166020
555,9,Ticks_ISO_T2_8,95,9999,9999,9999,551965752
555,9,Ticks_ISO_T2_8,96,9999,9999,9999,552765488
555,9,Ticks_ISO_T2_8,97,9999,9999,9999,553565296
555,9,Ticks_ISO_T2_8,98,9999,9999,9999,554366004
555,9,Ticks_ISO_T2_8,99,9999,9999,9999,555165788
555,9,Ticks_ISO_T2_8,100,9999,9999,9999,555965524
555,9,Ticks_ISO_T2_8,101,9999,9999,9999,556765232
555,9,Ticks_ISO_T2_8,102,9999,9999,9999,557566016
555,9,Ticks_ISO_T2_8,103,9999,9999,9999,558365800
555,9,Ticks_ISO_T2_8,104,9999,9999,9999,559165532
555,9,Ticks_ISO_T2_8,105,9999,9999,9999,559965268
555,9,Ticks_ISO_T2_8,106,9999,9999,9999,560766044
555,9,Ticks_ISO_T2_8,107,9999,9999,9999,561565760
555,9,Ticks_ISO_T2_8,108,9999,9999,9999,562365544
555,9,Ticks_ISO_T2_8,109,9999,9999,9999,563165280
555,9,Ticks_ISO_T2_8,110,9999,9999,9999,563966036
555,9,Ticks_ISO_T2_8,111,9999,9999,9999,564765748
555,9,Ticks_ISO_T2_8,112,9999,9999,9999,565565536
555,9,Ticks_ISO_T2_8,113,9999,9999,9999,566365248
555,9,Ticks_ISO_T2_8,114,9999,9999,9999,567166028
555,9,Ticks_ISO_T2_8,115,9999,9999,9999,567965812
555,9,Ticks_ISO_T2_8,116,9999,9999,9999,568765548
555,9,Ticks_ISO_T2_8,117,9999,9999,9999,569565260
555,9,Ticks_ISO_T2_8,118,9999,9999,9999,570366020
555,9,Ticks_ISO_T2_8,119,9999,9999,9999,571165808
556,23,Ticks_Phase_5,0,5,42,127,583626044
556,23,Ticks_Phase_5,1,5,42,127,584125752
556,23,Ticks_Phase_5,2,1,48,54,584158308
556,23,Ticks_Phase_5,3,1,48,67,584579044
556,23,Ticks_Phase_5,4,1,48,48,584604720
556,23,Ticks_Phase_5,5,5,42,127,584625560
556,23,Ticks_Phase_5,6,1,48,73,585038624
556,23,Ticks_Phase_5,7,1,48,53,585068060
556,23,Ticks_Phase_5,8,5,42,127,585126200
556,23,Ticks_Phase_5,9,1,48,73,585487668
556,23,Ticks_Phase_5,10,1,48,51,585513100
556,23,Ticks_Phase_5,11,5,42,127,585625924
556,23,Ticks_Phase_5,12,1,48,78,585994748
556,23,Ticks_Phase_5,13,1,48,23,586083412
556,23,Ticks_Phase_5,14,5,42,127,586125608
556,23,Ticks_Phase_5,15,1,48,61,586478236
556,23,Ticks_Phase_5,16,1,48,21,586560508
556,23,Ticks_Phase_5,17,5,42,127,586626544
556,23,Ticks_Phase_5,18,1,48,74,586933108
556,23,Ticks_Phase_5,19,1,48,43,586989408
556,23,Ticks_Phase_5,20,5,42,127,587136604
556,23,Ticks_Phase_5,21,1,48,80,587422896
556,23,Ticks_Phase_5,22,1,48,33,587492064
556,23,Ticks_Phase_5,23,5,42,127,587636192
556,23,Ticks_Phase_5,24,1,48,81,587893424
556,23,Ticks_Phase_5,25,1,48,42,587951964
556,23,Ticks_Phase_5,26,5,42,127,588135860
556,23,Ticks_Phase_5,27,1,48,89,588381084
556,23,Ticks_Phase_5,28,1,48,50,588430816
556,23,Ticks_Phase_5,29,5,42,127,588635500
556,23,Ticks_Phase_5,30,1,48,67,588922636
556,23,Ticks_Phase_5,31,1,48,40,588978488
556,23,Ticks_Phase_5,32,5,42,127,589136436
556,23,Ticks_Phase_5,33,1,48,69,589447472
556,23,Ticks_Phase_5,34,5,42,127,589635900
556,23,Ticks_Phase_5,35,1,48,77,589935180
556,23,Ticks_Phase_5,36,5,42,127,590135740
556,23,Ticks_Phase_5,37,1,48,71,590463392
556,23,Ticks_Phase_5,38,5,42,127,590636700
556,23,Ticks_Phase_5,39,1,48,84,590980236
556,23,Ticks_Phase_5,40,5,42,127,591136088
556,23,Ticks_Phase_5,41,1,48,72,591471600
556,23,Ticks_Phase_5,42,5,42,127,591635852
556,23,Ticks_Phase_5,43,1,48,76,591981252
556,23,Ticks_Phase_5,44,1,48,33,592043400
556,23,Ticks_Phase_5,45,5,42,127,592135608
556,23,Ticks_Phase_5,46,1,48,82,592489456
556,23,Ticks_Phase_5,47,1,48,48,592533776
556,23,Ticks_Phase_5,48,5,42,127,592636380
556,23,Ticks_Phase_5,49,1,48,93,592993776
556,23,Ticks_Phase_5,50,1,48,50,593037632
556,23,Ticks_Phase_5,51,5,42,127,593135896
556,23,Ticks_Phase_5,52,1,48,71,593497076
556,23,Ticks_Phase_5,53,1,48,44,593541108
556,23,Ticks_Phase_5,54,5,42,127,593635580
556,23,Ticks_Phase_5,55,1,48,62,593981688
556,23,Ticks_Phase_5,56,1,48,47,594012516
556,23,Ticks_Phase_5,57,5,42,127,594136424
556,23,Ticks_Phase_5,58,1,48,62,594485028
556,23,Ticks_Phase_5,59,1,48,41,594523724
556,23,Ticks_Phase_5,60,5,42,127,594646500
556,23,Ticks_Phase_5,61,1,48,58,594981464
556,23,Ticks_Phase_5,62,1,48,40,595028552
556,23,Ticks_Phase_5,63,5,42,127,595146312
556,23,Ticks_Phase_5,64,1,48,65,595483916
556,23,Ticks_Phase_5,65,1,48,41,595539452
556,23,Ticks_Phase_5,66,5,42,127,595645756
556,23,Ticks_Phase_5,67,1,48,69,595998400
556,23,Ticks_Phase_5,68,1,48,44,596048032
556,23,Ticks_Phase_5,69,5,42,127,596146696
556,23,Ticks_Phase_5,70,1,48,76,596501280
556,23,Ticks_Phase_5,71,5,42,127,596646452
556,23,Ticks_Phase_5,72,1,48,71,596981496
556,23,Ticks_Phase_5,73,1,48,42,597027536
556,23,Ticks_Phase_5,74,5,42,127,597146044
556,23,Ticks_Phase_5,75,1,48,78,597480116
556,23,Ticks_Phase_5,76,1,48,36,597532436
556,23,Ticks_Phase_5,77,5,42,127,597645712
556,23,Ticks_Phase_5,78,1,48,79,598011160
556,23,Ticks_Phase_5,79,1,48,50,598062136
556,23,Ticks_Phase_5,80,5,42,127,598146444
556,23,Ticks_Phase_5,81,1,48,80,598508588
556,23,Ticks_Phase_5,82,5,42,127,598646116
556,23,Ticks_Phase_5,83,1,48,75,598980260
556,23,Ticks_Phase_5,84,1,48,38,599041344
556,23,Ticks_Phase_5,85,5,42,127,599145780
556,23,Ticks_Phase_5,86,1,48,88,599483680
556,23,Ticks_Phase_5,87,5,42,127,599645692
556,23,Ticks_Phase_5,88,1,48,93,600002004
556,23,Ticks_Phase_5,89,1,48,58,600045196
556,23,Ticks_Phase_5,90,5,42,127,600146232
556,23,Ticks_Phase_5,91,1,48,67,600504896
556,23,Ticks_Phase_5,92,5,42,127,600646140
556,23,Ticks_Phase_5,93,1,48,95,600998220
556,23,Ticks_Phase_5,94,5,42,127,601145684
556,23,Ticks_Phase_5,95,1,48,80,601490408
556,23,Ticks_Phase_5,96,5,42,127,601645448
556,23,Ticks_Phase_5,97,1,48,81,601998496
556,23,Ticks_Phase_5,98,1,48,24,602078452
556,23,Ticks_Phase_5,99,5,42,127,602146248
556,23,Ticks_Phase_5,100,1,48,85,602478460
556,23,Ticks_Phase_5,101,1,48,41,602545244
556,23,Ticks_Phase_5,102,5,42,127,602645752
556,23,Ticks_Phase_5,103,1,48,83,602955792
556,23,Ticks_Phase_5,104,1,48,55,603012620
556,23,Ticks_Phase_5,105,5,42,127,603145492
556,23,Ticks_Phase_5,106,1,48,95,603458296
556,23,Ticks_Phase_5,107,1,48,41,603527872
556,23,Ticks_Phase_5,108,5,42,127,603646280
556,23,Ticks_Phase_5,109,1,48,87,603948452
556,23,Ticks_Phase_5,110,5,42,127,604146116
556,23,Ticks_Phase_5,111,1,48,82,604432180
556,23,Ticks_Phase_5,112,5,42,127,604645952
556,23,Ticks_Phase_5,113,1,48,76,604962200
556,23,Ticks_Phase_5,114,5,42,127,605145568
556,23,Ticks_Phase_5,115,1,48,67,605447220
556,23,Ticks_Phase_5,116,5,42,127,605646376
556,23,Ticks_Phase_5,117,1,48,72,605952960
556,23,Ticks_Phase_5,118,5,42,127,606145916
556,23,Ticks_Phase_5,119,1,48,68,606429220
556,23,Ticks_Phase_5,120,5,42,127,606645680
556,23,Ticks_Phase_5,121,1,48,64,606929652
556,23,Ticks_Phase_5,122,5,42,127,607146416
556,23,Ticks_Phase_5,123,1,48,81,607395124
556,23,Ticks_Phase_5,124,5,42,127,607656292
556,23,Ticks_Phase_5,125,1,48,69,607879532
556,23,Ticks_Phase_5,126,5,42,127,608155980
556,23,Ticks_Phase_5,127,1,48,69,608357276
556,23,Ticks_Phase_5,128,5,42,127,608655816
556,23,Ticks_Phase_5,129,1,48,61,608811180
556,23,Ticks_Phase_5,130,5,42,127,609155428
556,23,Ticks_Phase_5,131,1,48,61,609305784
556,23,Ticks_Phase_5,132,5,42,127,609656164
556,23,Ticks_Phase_5,133,1,48,62,609790636
556,23,Ticks_Phase_5,134,5,42,127,610155852
556,23,Ticks_Phase_5,135,1,48,72,610271748
556,23,Ticks_Phase_5,136,5,42,127,610655540
556,23,Ticks_Phase_5,137,1,48,66,610750472
556,23,Ticks_Phase_5,138,5,42,127,611156400
556,23,Ticks_Phase_5,139,1,48,61,611230016
556,23,Ticks_Phase_5,140,5,42,127,611655940
556,23,Ticks_Phase_5,141,1,48,54,611679680
556,23,Ticks_Phase_5,142,1,48,57,612116352
556,23,Ticks_Phase_5,143,5,42,127,612155844
556,23,Ticks_Phase_5,144,1,48,63,612594028
556,23,Ticks_Phase_5,145,1,48,46,612624412
556,23,Ticks_Phase_5,146,5,42,127,612655364
556,23,Ticks_Phase_5,147,1,48,65,613068976
556,23,Ticks_Phase_5,148,1,48,55,613093672
556,23,Ticks_Phase_5,149,5,42,127,613156152
556,23,Ticks_Phase_5,150,1,48,75,613530224
556,23,Ticks_Phase_5,151,5,42,127,613656048
556,23,Ticks_Phase_5,152,1,48,71,614036584
556,23,Ticks_Phase_5,153,1,48,59,614063300
556,23,Ticks_Phase_5,154,5,42,127,614156392
556,23,Ticks_Phase_5,155,1,48,84,614530104
556,23,Ticks_Phase_5,156,1,48,59,614562276
556,23,Ticks_Phase_5,157,5,42,127,614657404
556,23,Ticks_Phase_5,158,1,48,89,615001728
556,23,Ticks_Phase_5,159,1,48,57,615045772
556,23,Ticks_Phase_5,160,5,42,127,615156096
556,23,Ticks_Phase_5,161,1,48,79,615536100
556,23,Ticks_Phase_5,162,1,48,50,615585280
556,23,Ticks_Phase_5,163,5,42,127,615676220
556,23,Ticks_Phase_5,164,1,48,76,616036672
556,23,Ticks_Phase_5,165,5,42,127,616176120
556,23,Ticks_Phase_5,166,1,48,73,616519548
556,23,Ticks_Phase_5,167,5,42,127,616675880
556,23,Ticks_Phase_5,168,1,48,64,617010848
556,23,Ticks_Phase_5,169,5,42,127,617176616
556,23,Ticks_Phase_5,170,1,48,65,617507848
556,23,Ticks_Phase_5,171,5,42,127,617686416
556,23,Ticks_Phase_5,172,1,48,65,617981168
556,23,Ticks_Phase_5,173,5,42,127,618186028
556,23,Ticks_Phase_5,174,1,48,56,618426116
556,23,Ticks_Phase_5,175,5,42,127,618685940
556,23,Ticks_Phase_5,176,1,48,66,618923028
556,23,Ticks_Phase_5,177,5,42,127,619185776
556,23,Ticks_Phase_5,178,1,48,63,619401452
556,23,Ticks_Phase_5,179,5,42,127,619686288
556,23,Ticks_Phase_5,180,1,48,64,619886916
556,23,Ticks_Phase_5,181,5,42,127,620185900
556,23,Ticks_Phase_5,182,1,48,65,620398956
556,23,Ticks_Phase_5,183,5,42,127,620685884
556,23,Ticks_Phase_5,184,1,48,69,620844256
556,23,Ticks_Phase_5,185,5,42,127,621186476
556,23,Ticks_Phase_5,186,1,48,59,621374572
556,23,Ticks_Phase_5,187,5,42,127,621696496
556,23,Ticks_Phase_5,188,1,48,61,621879424
556,23,Ticks_Phase_5,189,5,42,127,622196032
556,23,Ticks_Phase_5,190,1,48,58,622462328
556,23,Ticks_Phase_5,191,5,42,127,622695796
556,23,Ticks_Phase_5,192,1,48,69,622999616
556,23,Ticks_Phase_5,193,5,42,127,623195832
556,23,Ticks_Phase_5,194,1,48,76,623509236
556,23,Ticks_Phase_5,195,1,48,49,623539468
556,23,Ticks_Phase_5,196,5,42,127,623696372
556,23,Ticks_Phase_5,197,1,48,75,624080120
556,23,Ticks_Phase_5,198,1,48,47,624113720
556,23,Ticks_Phase_5,199,5,42,127,624175612
556,23,Ticks_Phase_5,200,1,48,57,624600900
556,23,Ticks_Phase_5,201,5,42,127,624676344
556,23,Ticks_Phase_5,202,1,48,68,625081120
556,23,Ticks_Phase_5,203,1,48,43,625112252
556,23,Ticks_Phase_5,204,5,42,127,625175864
556,23,Ticks_Phase_5,205,1,48,66,625599960
556,23,Ticks_Phase_5,206,5,42,127,625675628
556,23,Ticks_Phase_5,207,1,48,73,626097404
556,23,Ticks_Phase_5,208,5,42,127,626176512
556,23,Ticks_Phase_5,209,1,48,71,626601280
556,23,Ticks_Phase_5,210,5,42,127,626676196
556,23,Ticks_Phase_5,211,1,48,62,627089440
556,23,Ticks_Phase_5,212,5,42,127,627175812
556,23,Ticks_Phase_5,213,1,48,73,627658172
556,23,Ticks_Phase_5,214,5,42,127,627675648
556,23,Ticks_Phase_5,215,1,48,75,628149620
556,23,Ticks_Phase_5,216,5,42,127,628176236
556,23,Ticks_Phase_5,217,5,42,127,628675856
556,23,Ticks_Phase_5,218,1,48,75,628680468
556,23,Ticks_Phase_5,219,1,48,70,629166600
556,23,Ticks_Phase_5,220,5,42,127,629175760
556,23,Ticks_Phase_5,221,1,48,76,629632876
556,23,Ticks_Phase_5,222,5,42,127,629676648
556,23,Ticks_Phase_5,223,1,48,76,630153916
556,23,Ticks_Phase_5,224,5,42,127,630176184
556,23,Ticks_Phase_5,225,1,48,68,630648508
556,23,Ticks_Phase_5,226,5,42,127,630675724
556,23,Ticks_Phase_5,227,1,48,65,631130124
556,23,Ticks_Phase_5,228,5,42,127,631175412
556,23,Ticks_Phase_5,229,1,48,63,631613940
556,23,Ticks_Phase_5,230,5,42,127,631676516
556,23,Ticks_Phase_5,231,1,48,70,632051016
556,23,Ticks_Phase_5,232,5,42,127,632125860
556,23,Ticks_Phase_5,233,1,48,70,632519928
556,23,Ticks_Phase_5,234,5,42,127,632625532
556,23,Ticks_Phase_5,235,1,48,73,633034972
556,23,Ticks_Phase_5,236,5,42,127,633126356
556,23,Ticks_Phase_5,237,1,48,71,633505744
556,23,Ticks_Phase_5,238,5,42,127,633626028
556,23,Ticks_Phase_5,239,1,48,73,633994880
556,23,Ticks_Phase_5,240,5,42,127,634125720
556,23,Ticks_Phase_5,241,1,48,89,634467008
556,23,Ticks_Phase_5,242,5,42,127,634626308
556,23,Ticks_Phase_5,243,1,48,71,634976128
556,23,Ticks_Phase_5,244,5,42,127,635136404
556,23,Ticks_Phase_5,245,1,48,78,635436556
556,23,Ticks_Phase_5,246,5,42,127,635636016
556,23,Ticks_Phase_5,247,1,48,70,635945600
556,23,Ticks_Phase_5,248,5,42,127,636135704
556,23,Ticks_Phase_5,249,1,48,71,636416384
556,23,Ticks_Phase_5,250,5,42,127,636635388
556,23,Ticks_Phase_5,251,1,48,68,636921676
556,23,Ticks_Phase_5,252,5,42,127,637136272
556,23,Ticks_Phase_5,253,1,48,72,637408568
556,23,Ticks_Phase_5,254,5,42,127,637635888
556,23,Ticks_Phase_5,255,1,48,71,637880544
556,23,Ticks_Phase_5,256,5,42,127,638135576
556,23,Ticks_Phase_5,257,1,48,73,638409288
556,23,Ticks_Phase_5,258,5,42,127,638636460
556,23,Ticks_Phase_5,259,1,48,77,638928972
556,23,Ticks_Phase_5,260,5,42,127,639136220
556,23,Ticks_Phase_5,261,1,48,78,639417356
556,23,Ticks_Phase_5,262,5,42,127,639635760
556,23,Ticks_Phase_5,263,1,48,74,639920628
556,23,Ticks_Phase_5,264,5,42,127,640135524
556,23,Ticks_Phase_5,265,1,48,88,640407440
556,23,Ticks_Phase_5,266,5,42,127,640685460
556,23,Ticks_Phase_5,267,1,48,74,640963824
556,23,Ticks_Phase_5,268,5,42,127,641186344
556,23,Ticks_Phase_5,269,1,48,71,641460880
556,23,Ticks_Phase_5,270,5,42,127,641686256
556,23,Ticks_Phase_5,271,1,48,78,641941024
556,23,Ticks_Phase_5,272,5,42,127,642185572
556,23,Ticks_Phase_5,273,1,48,77,642445588
556,23,Ticks_Phase_5,274,5,42,127,642686308
556,23,Ticks_Phase_5,275,1,48,71,642969980
556,23,Ticks_Phase_5,276,5,42,127,643186220
556,23,Ticks_Phase_5,277,1,48,70,643466604
556,23,Ticks_Phase_5,278,5,42,127,643685760
556,23,Ticks_Phase_5,279,1,48,84,643938656
556,23,Ticks_Phase_5,280,5,42,127,644185424
556,23,Ticks_Phase_5,281,1,48,67,644481176
556,23,Ticks_Phase_5,282,5,42,127,644686380
556,23,Ticks_Phase_5,283,1,48,84,644977800
556,23,Ticks_Phase_5,284,5,42,127,645186068
556,23,Ticks_Phase_5,285,1,48,84,645467972
556,23,Ticks_Phase_5,286,5,42,127,645685684
556,23,Ticks_Phase_5,287,1,48,75,645986312
556,23,Ticks_Phase_5,288,5,42,127,646186416
556,23,Ticks_Phase_5,289,1,48,82,646474216
556,23,Ticks_Phase_5,290,5,42,127,646686256
556,23,Ticks_Phase_5,291,1,48,85,646968132
556,23,Ticks_Phase_5,292,5,42,127,647186016
556,23,Ticks_Phase_5,293,1,48,87,647449920
556,23,Ticks_Phase_5,294,5,42,127,647685628
556,23,Ticks_Phase_5,295,1,48,80,647979192
556,23,Ticks_Phase_5,296,5,42,127,648186288
556,23,Ticks_Phase_5,297,1,48,66,648466072
556,23,Ticks_Phase_5,298,5,42,127,648686276
556,23,Ticks_Phase_5,299,1,48,83,648948308
556,23,Ticks_Phase_5,300,1,48,64,648964988
556,23,Ticks_Phase_5,301,5,42,127,649286068
556,23,Ticks_Phase_5,302,1,48,85,649664580
556,23,Ticks_Phase_5,303,1,48,62,649684104
556,23,Ticks_Phase_5,304,5,42,127,649785660
556,23,Ticks_Phase_5,305,5,42,127,650285368
556,23,Ticks_Phase_5,306,1,48,61,650414184
556,23,Ticks_Phase_5,307,5,42,127,650786180
556,23,Ticks_Phase_5,308,1,48,64,651100504
556,23,Ticks_Phase_5,309,5,42,127,651286016
556,23,Ticks_Phase_5,310,1,48,59,651712148
556,23,Ticks_Phase_5,311,5,42,127,651785644
556,23,Ticks_Phase_5,312,1,48,63,652186684
556,23,Ticks_Phase_5,313,5,42,127,652286292
556,23,Ticks_Phase_5,314,1,48,60,652666820
556,23,Ticks_Phase_5,315,5,42,127,652785980
556,23,Ticks_Phase_5,316,1,48,59,653103956
556,23,Ticks_Phase_5,317,5,42,127,653285892
556,23,Ticks_Phase_5,318,1,48,58,653565376
556,23,Ticks_Phase_5,319,5,42,127,653785656
556,23,Ticks_Phase_5,320,1,48,57,654016988
556,23,Ticks_Phase_5,321,5,42,127,654286168
556,23,Ticks_Phase_5,322,1,48,57,654515404
556,23,Ticks_Phase_5,323,5,42,127,654785932
556,23,Ticks_Phase_5,324,1,48,53,655009096
556,23,Ticks_Phase_5,325,5,42,127,655285768
556,23,Ticks_Phase_5,326,1,48,64,655500400
556,23,Ticks_Phase_5,327,5,42,127,655786280
556,23,Ticks_Phase_5,328,1,48,65,656016640
556,23,Ticks_Phase_5,329,5,42,127,656286116
556,23,Ticks_Phase_5,330,1,48,69,656496784
556,23,Ticks_Phase_5,331,5,42,127,656785732
556,23,Ticks_Phase_5,332,1,48,62,657009048
556,23,Ticks_Phase_5,333,5,42,127,657285420
556,23,Ticks_Phase_5,334,1,48,69,657472608
556,23,Ticks_Phase_5,335,5,42,127,657786156
556,23,Ticks_Phase_5,336,1,48,66,658032080
556,23,Ticks_Phase_5,337,5,42,127,658285916
556,23,Ticks_Phase_5,338,1,48,67,658517524
556,23,Ticks_Phase_5,339,5,42,127,658686280
556,23,Ticks_Phase_5,340,1,48,57,659048088
556,23,Ticks_Phase_5,341,5,42,127,659186048
556,23,Ticks_Phase_5,342,1,48,57,659573832
556,23,Ticks_Phase_5,343,5,42,127,659685660
556,23,Ticks_Phase_5,344,1,48,62,660043092
556,23,Ticks_Phase_5,345,5,42,127,660185644
556,23,Ticks_Phase_5,346,1,48,62,660537768
556,23,Ticks_Phase_5,347,5,42,127,660686232
556,23,Ticks_Phase_5,348,1,48,63,661018060
556,23,Ticks_Phase_5,349,5,42,127,661185844
556,23,Ticks_Phase_5,350,1,48,60,661521564
556,23,Ticks_Phase_5,351,5,42,127,661685756
556,23,Ticks_Phase_5,352,1,48,63,662012560
556,23,Ticks_Phase_5,353,5,42,127,662186564
556,23,Ticks_Phase_5,354,1,48,65,662500792
556,23,Ticks_Phase_5,355,5,42,127,662685956
556,23,Ticks_Phase_5,356,1,48,61,662998612
556,23,Ticks_Phase_5,357,5,42,127,663185720
556,23,Ticks_Phase_5,358,1,48,71,663478228
556,23,Ticks_Phase_5,359,5,42,127,663685480
556,23,Ticks_Phase_5,360,1,48,66,664016336
556,23,Ticks_Phase_5,361,5,42,127,664186364
556,23,Ticks_Phase_5,362,1,48,57,664480824
556,23,Ticks_Phase_5,363,5,42,127,664685904
556,23,Ticks_Phase_5,364,1,48,58,664997884
556,23,Ticks_Phase_5,365,5,42,127,665185668
556,23,Ticks_Phase_5,366,1,48,59,665489336
556,23,Ticks_Phase_5,367,5,42,127,665686608
556,23,Ticks_Phase_5,368,1,48,62,665993752
556,23,Ticks_Phase_5,369,5,42,127,666186144
556,23,Ticks_Phase_5,370,1,48,60,666513960
556,23,Ticks_Phase_5,371,5,42,127,666685832
556,23,Ticks_Phase_5,372,1,48,61,666983152
556,23,Ticks_Phase_5,373,5,42,127,667185448
556,23,Ticks_Phase_5,374,1,48,67,667478260
556,23,Ticks_Phase_5,375,5,42,127,667686256
556,23,Ticks_Phase_5,376,1,48,62,668005608
556,23,Ticks_Phase_5,377,5,42,127,668185944
556,23,Ticks_Phase_5,0,9999,9999,9999,583623756
556,23,Ticks_Phase_5,1,9999,9999,9999,584123468
556,23,Ticks_Phase_5,2,9999,9999,9999,584623200
556,23,Ticks_Phase_5,3,9999,9999,9999,585123912
556,23,Ticks_Phase_5,4,9999,9999,9999,585623640
556,23,Ticks_Phase_5,5,9999,9999,9999,586123320
556,23,Ticks_Phase_5,6,9999,9999,9999,586624108
556,23,Ticks_Phase_5,7,9999,9999,9999,587134016
556,23,Ticks_Phase_5,8,9999,9999,9999,587633756
556,23,Ticks_Phase_5,9,9999,9999,9999,588133500
556,23,Ticks_Phase_5,10,9999,9999,9999,588633212
556,23,Ticks_Phase_5,11,9999,9999,9999,589133924
556,23,Ticks_Phase_5,12,9999,9999,9999,589633616
556,23,Ticks_Phase_5,13,9999,9999,9999,590133304
556,23,Ticks_Phase_5,14,9999,9999,9999,590634040
556,23,Ticks_Phase_5,15,9999,9999,9999,591133800
556,23,Ticks_Phase_5,16,9999,9999,9999,591633488
556,23,Ticks_Phase_5,17,9999,9999,9999,592133248
556,23,Ticks_Phase_5,18,9999,9999,9999,592633944
556,23,Ticks_Phase_5,19,9999,9999,9999,593133684
556,23,Ticks_Phase_5,20,9999,9999,9999,593633368
556,23,Ticks_Phase_5,21,9999,9999,9999,594134136
556,23,Ticks_Phase_5,22,9999,9999,9999,594644060
556,23,Ticks_Phase_5,23,9999,9999,9999,595143804
556,23,Ticks_Phase_5,24,9999,9999,9999,595643468
556,23,Ticks_Phase_5,25,9999,9999,9999,596143224
556,23,Ticks_Phase_5,26,9999,9999,9999,596643944
556,23,Ticks_Phase_5,27,9999,9999,9999,597143608
556,23,Ticks_Phase_5,28,9999,9999,9999,597643352
556,23,Ticks_Phase_5,29,9999,9999,9999,598144080
556,23,Ticks_Phase_5,30,9999,9999,9999,598643828
556,23,Ticks_Phase_5,31,9999,9999,9999,599143492
556,23,Ticks_Phase_5,32,9999,9999,9999,599643232
556,23,Ticks_Phase_5,33,9999,9999,9999,600143944
556,23,Ticks_Phase_5,34,9999,9999,9999,600643704
556,23,Ticks_Phase_5,35,9999,9999,9999,601143396
556,23,Ticks_Phase_5,36,9999,9999,9999,601643084
556,23,Ticks_Phase_5,37,9999,9999,9999,602143816
556,23,Ticks_Phase_5,38,9999,9999,9999,602643540
556,23,Ticks_Phase_5,39,9999,9999,9999,603143280
556,23,Ticks_Phase_5,40,9999,9999,9999,603643992
556,23,Ticks_Phase_5,41,9999,9999,9999,604143680
556,23,Ticks_Phase_5,42,9999,9999,9999,604643440
556,23,Ticks_Phase_5,43,9999,9999,9999,605143132
556,23,Ticks_Phase_5,44,9999,9999,9999,605643868
556,23,Ticks_Phase_5,45,9999,9999,9999,606143556
556,23,Ticks_Phase_5,46,9999,9999,9999,606643320
556,23,Ticks_Phase_5,47,9999,9999,9999,607144056
556,23,Ticks_Phase_5,48,9999,9999,9999,607654004
556,23,Ticks_Phase_5,49,9999,9999,9999,608153692
556,23,Ticks_Phase_5,50,9999,9999,9999,608653380
556,23,Ticks_Phase_5,51,9999,9999,9999,609153140
556,23,Ticks_Phase_5,52,9999,9999,9999,609653876
556,23,Ticks_Phase_5,53,9999,9999,9999,610153564
556,23,Ticks_Phase_5,54,9999,9999,9999,610653256
556,23,Ticks_Phase_5,55,9999,9999,9999,611154040
556,23,Ticks_Phase_5,56,9999,9999,9999,611653728
556,23,Ticks_Phase_5,57,9999,9999,9999,612153412
556,23,Ticks_Phase_5,58,9999,9999,9999,612653152
556,23,Ticks_Phase_5,59,9999,9999,9999,613153864
556,23,Ticks_Phase_5,60,9999,9999,9999,613653612
556,23,Ticks_Phase_5,61,9999,9999,9999,614153296
556,23,Ticks_Phase_5,62,9999,9999,9999,614654008
556,23,Ticks_Phase_5,63,9999,9999,9999,615153732
556,23,Ticks_Phase_5,64,9999,9999,9999,615673932
556,23,Ticks_Phase_5,65,9999,9999,9999,616173684
556,23,Ticks_Phase_5,66,9999,9999,9999,616673368
556,23,Ticks_Phase_5,67,9999,9999,9999,617174104
556,23,Ticks_Phase_5,68,9999,9999,9999,617684052
556,23,Ticks_Phase_5,69,9999,9999,9999,618183740
556,23,Ticks_Phase_5,70,9999,9999,9999,618683504
556,23,Ticks_Phase_5,71,9999,9999,9999,619183192
556,23,Ticks_Phase_5,72,9999,9999,9999,619683928
556,23,Ticks_Phase_5,73,9999,9999,9999,620183616
556,23,Ticks_Phase_5,74,9999,9999,9999,620683376
556,23,Ticks_Phase_5,75,9999,9999,9999,621184112
556,23,Ticks_Phase_5,76,9999,9999,9999,621694060
556,23,Ticks_Phase_5,77,9999,9999,9999,622193744
556,23,Ticks_Phase_5,78,9999,9999,9999,622693432
556,23,Ticks_Phase_5,79,9999,9999,9999,623193172
556,23,Ticks_Phase_5,80,9999,9999,9999,623693936
556,23,Ticks_Phase_5,81,9999,9999,9999,624173176
556,23,Ticks_Phase_5,82,9999,9999,9999,624673908
556,23,Ticks_Phase_5,83,9999,9999,9999,625173576
556,23,Ticks_Phase_5,84,9999,9999,9999,625673340
556,23,Ticks_Phase_5,85,9999,9999,9999,626174076
556,23,Ticks_Phase_5,86,9999,9999,9999,626673764
556,23,Ticks_Phase_5,87,9999,9999,9999,627173452
556,23,Ticks_Phase_5,88,9999,9999,9999,627673212
556,23,Ticks_Phase_5,89,9999,9999,9999,628173948
556,23,Ticks_Phase_5,90,9999,9999,9999,628673644
556,23,Ticks_Phase_5,91,9999,9999,9999,629173324
556,23,Ticks_Phase_5,92,9999,9999,9999,629674060
556,23,Ticks_Phase_5,93,9999,9999,9999,630173824
556,23,Ticks_Phase_5,94,9999,9999,9999,630673512
556,23,Ticks_Phase_5,95,9999,9999,9999,631173200
556,23,Ticks_Phase_5,96,9999,9999,9999,631673932
556,23,Ticks_Phase_5,97,9999,9999,9999,632123500
556,23,Ticks_Phase_5,98,9999,9999,9999,632623172
556,23,Ticks_Phase_5,99,9999,9999,9999,633123920
556,23,Ticks_Phase_5,100,9999,9999,9999,633623668
556,23,Ticks_Phase_5,101,9999,9999,9999,634123356
556,23,Ticks_Phase_5,102,9999,9999,9999,634624092
556,23,Ticks_Phase_5,103,9999,9999,9999,635134040
556,23,Ticks_Phase_5,104,9999,9999,9999,635633728
556,23,Ticks_Phase_5,105,9999,9999,9999,636133492
556,23,Ticks_Phase_5,106,9999,9999,9999,636633176
556,23,Ticks_Phase_5,107,9999,9999,9999,637133912
556,23,Ticks_Phase_5,108,9999,9999,9999,637633600
556,23,Ticks_Phase_5,109,9999,9999,9999,638133364
556,23,Ticks_Phase_5,110,9999,9999,9999,638634096
556,23,Ticks_Phase_5,111,9999,9999,9999,639133784
556,23,Ticks_Phase_5,112,9999,9999,9999,639633472
556,23,Ticks_Phase_5,113,9999,9999,9999,640133236
556,23,Ticks_Phase_5,114,9999,9999,9999,640683100
556,23,Ticks_Phase_5,115,9999,9999,9999,641183836
556,23,Ticks_Phase_5,116,9999,9999,9999,641683524
556,23,Ticks_Phase_5,117,9999,9999,9999,642183284
556,23,Ticks_Phase_5,118,9999,9999,9999,642684020
556,23,Ticks_Phase_5,119,9999,9999,9999,643183712
556,23,Ticks_Phase_5,120,9999,9999,9999,643683396
556,23,Ticks_Phase_5,121,9999,9999,9999,644183136
556,23,Ticks_Phase_5,122,9999,9999,9999,644683872
556,23,Ticks_Phase_5,123,9999,9999,9999,645183560
556,23,Ticks_Phase_5,124,9999,9999,9999,645683320
556,23,Ticks_Phase_5,125,9999,9999,9999,646184056
556,23,Ticks_Phase_5,126,9999,9999,9999,646683744
556,23,Ticks_Phase_5,127,9999,9999,9999,647183432
556,23,Ticks_Phase_5,128,9999,9999,9999,647683196
556,23,Ticks_Phase_5,129,9999,9999,9999,648183928
556,23,Ticks_Phase_5,130,9999,9999,9999,648683616
556,23,Ticks_Phase_5,131,9999,9999,9999,649283704
556,23,Ticks_Phase_5,132,9999,9999,9999,649783372
556,23,Ticks_Phase_5,133,9999,9999,9999,650283080
556,23,Ticks_Phase_5,134,9999,9999,9999,650783816
556,23,Ticks_Phase_5,135,9999,9999,9999,651283580
556,23,Ticks_Phase_5,136,9999,9999,9999,651783284
556,23,Ticks_Phase_5,137,9999,9999,9999,652284004
556,23,Ticks_Phase_5,138,9999,9999,9999,652783696
556,23,Ticks_Phase_5,139,9999,9999,9999,653283384
556,23,Ticks_Phase_5,140,9999,9999,9999,653783148
556,23,Ticks_Phase_5,141,9999,9999,9999,654283880
556,23,Ticks_Phase_5,142,9999,9999,9999,654783572
556,23,Ticks_Phase_5,143,9999,9999,9999,655283260
556,23,Ticks_Phase_5,144,9999,9999,9999,655783992
556,23,Ticks_Phase_5,145,9999,9999,9999,656283756
556,23,Ticks_Phase_5,146,9999,9999,9999,656783448
556,23,Ticks_Phase_5,147,9999,9999,9999,657283132
556,23,Ticks_Phase_5,148,9999,9999,9999,657783868
556,23,Ticks_Phase_5,149,9999,9999,9999,658283628
556,23,Ticks_Phase_5,150,9999,9999,9999,658683992
556,23,Ticks_Phase_5,151,9999,9999,9999,659183684
556,23,Ticks_Phase_5,152,9999,9999,9999,659683448
556,23,Ticks_Phase_5,153,9999,9999,9999,660183136
556,23,Ticks_Phase_5,154,9999,9999,9999,660683872
556,23,Ticks_Phase_5,155,9999,9999,9999,661183560
556,23,Ticks_Phase_5,156,9999,9999,9999,661683320
556,23,Ticks_Phase_5,157,9999,9999,9999,662184056
556,23,Ticks_Phase_5,158,9999,9999,9999,662683744
556,23,Ticks_Phase_5,159,9999,9999,9999,663183432
556,23,Ticks_Phase_5,160,9999,9999,9999,663683196
556,23,Ticks_Phase_5,161,9999,9999,9999,664183928
556,23,Ticks_Phase_5,162,9999,9999,9999,664683616
556,23,Ticks_Phase_5,163,9999,9999,9999,665183308
556,23,Ticks_Phase_5,164,9999,9999,9999,665684096
556,23,Ticks_Phase_5,165,9999,9999,9999,666183784
556,23,Ticks_Phase_5,166,9999,9999,9999,666683472
556,23,Ticks_Phase_5,167,9999,9999,9999,667183160
556,23,Ticks_Phase_5,168,9999,9999,9999,667683896
556,23,Ticks_Phase_5,169,9999,9999,9999,668183660
557,22,Ticks_Phase_8,0,5,42,127,679554448
557,22,Ticks_Phase_8,1,1,48,48,679907092
557,22,Ticks_Phase_8,2,5,42,127,680355208
557,22,Ticks_Phase_8,3,1,48,42,680723584
557,22,Ticks_Phase_8,4,5,42,127,681154916
557,22,Ticks_Phase_8,5,1,48,51,681468692
557,22,Ticks_Phase_8,6,5,42,127,681954628
557,22,Ticks_Phase_8,7,1,48,48,682257772
557,22,Ticks_Phase_8,8,5,42,127,682754488
557,22,Ticks_Phase_8,9,1,48,51,683115848
557,22,Ticks_Phase_8,10,5,42,127,683555248
557,22,Ticks_Phase_8,11,1,48,49,683908520
557,22,Ticks_Phase_8,12,5,42,127,684355036
557,22,Ticks_Phase_8,13,1,48,51,684697824
557,22,Ticks_Phase_8,14,5,42,127,685154624
557,22,Ticks_Phase_8,15,1,48,50,685534680
557,22,Ticks_Phase_8,16,5,42,127,685954336
557,22,Ticks_Phase_8,17,1,48,43,686281740
557,22,Ticks_Phase_8,18,5,42,127,686755392
557,22,Ticks_Phase_8,19,1,48,51,687089840
557,22,Ticks_Phase_8,20,5,42,127,687555032
557,22,Ticks_Phase_8,21,1,48,53,687845600
557,22,Ticks_Phase_8,22,5,42,127,688354816
557,22,Ticks_Phase_8,23,1,48,44,688662072
557,22,Ticks_Phase_8,24,5,42,127,689154380
557,22,Ticks_Phase_8,25,1,48,48,689422484
557,22,Ticks_Phase_8,26,5,42,127,689955212
557,22,Ticks_Phase_8,27,1,48,41,690214104
557,22,Ticks_Phase_8,28,5,42,127,690755072
557,22,Ticks_Phase_8,29,1,48,39,691036900
557,22,Ticks_Phase_8,30,5,42,127,691554812
557,22,Ticks_Phase_8,31,1,48,42,691854964
557,22,Ticks_Phase_8,32,5,42,127,692354448
557,22,Ticks_Phase_8,33,1,48,45,692650472
557,22,Ticks_Phase_8,34,5,42,127,693155132
557,22,Ticks_Phase_8,35,1,48,52,693465172
557,22,Ticks_Phase_8,36,1,48,27,693561068
557,22,Ticks_Phase_8,37,5,42,127,693955044
557,22,Ticks_Phase_8,38,1,48,56,694276240
557,22,Ticks_Phase_8,39,5,42,127,694754980
557,22,Ticks_Phase_8,40,1,48,46,695074524
557,22,Ticks_Phase_8,41,5,42,127,695554616
557,22,Ticks_Phase_8,42,1,48,49,695873940
557,22,Ticks_Phase_8,43,5,42,127,696355152
557,22,Ticks_Phase_8,44,1,48,52,696651696
557,22,Ticks_Phase_8,45,5,42,127,697154936
557,22,Ticks_Phase_8,46,1,48,55,697449644
557,22,Ticks_Phase_8,47,5,42,127,697954896
557,22,Ticks_Phase_8,48,1,48,44,698276164
557,22,Ticks_Phase_8,49,5,42,127,698754384
557,22,Ticks_Phase_8,50,1,48,50,699047788
557,22,Ticks_Phase_8,51,5,42,127,699555068
557,22,Ticks_Phase_8,52,1,48,41,699839260
557,22,Ticks_Phase_8,53,5,42,127,700354856
557,22,Ticks_Phase_8,54,1,48,51,700605580
557,22,Ticks_Phase_8,55,5,42,127,701154864
557,22,Ticks_Phase_8,56,1,48,48,701409028
557,22,Ticks_Phase_8,57,5,42,127,701954428
557,22,Ticks_Phase_8,58,1,48,53,702219300
557,22,Ticks_Phase_8,59,5,42,127,702755108
557,22,Ticks_Phase_8,60,1,48,52,703160572
557,22,Ticks_Phase_8,61,5,42,127,703534604
557,22,Ticks_Phase_8,62,1,48,52,704104552
557,22,Ticks_Phase_8,63,5,42,127,704335212
557,22,Ticks_Phase_8,64,1,48,54,704887704
557,22,Ticks_Phase_8,65,1,48,34,704929920
557,22,Ticks_Phase_8,66,5,42,127,705135000
557,22,Ticks_Phase_8,67,1,48,51,705731724
557,22,Ticks_Phase_8,68,5,42,127,705934564
557,22,Ticks_Phase_8,69,1,48,52,706527996
557,22,Ticks_Phase_8,70,5,42,127,706734424
557,22,Ticks_Phase_8,71,1,48,51,707372868
557,22,Ticks_Phase_8,72,5,42,127,707535332
557,22,Ticks_Phase_8,73,1,48,48,708113116
557,22,Ticks_Phase_8,74,5,42,127,708334896
557,22,Ticks_Phase_8,75,1,48,51,708903024
557,22,Ticks_Phase_8,76,5,42,127,709134680
557,22,Ticks_Phase_8,77,1,48,46,709647684
557,22,Ticks_Phase_8,78,5,42,127,709934540
557,22,Ticks_Phase_8,79,1,48,50,710490476
557,22,Ticks_Phase_8,80,5,42,127,710735300
557,22,Ticks_Phase_8,81,1,48,46,711271764
557,22,Ticks_Phase_8,82,5,42,127,711534964
557,22,Ticks_Phase_8,83,1,48,44,712040552
557,22,Ticks_Phase_8,84,5,42,127,712334600
557,22,Ticks_Phase_8,85,1,48,50,712843188
557,22,Ticks_Phase_8,86,5,42,127,713134388
557,22,Ticks_Phase_8,87,1,48,60,713640792
557,22,Ticks_Phase_8,88,5,42,127,713935440
557,22,Ticks_Phase_8,89,1,48,61,714406436
557,22,Ticks_Phase_8,90,5,42,127,714734932
557,22,Ticks_Phase_8,91,1,48,60,715246064
557,22,Ticks_Phase_8,92,5,42,127,715534568
557,22,Ticks_Phase_8,93,1,48,60,716054764
557,22,Ticks_Phase_8,94,5,42,127,716334356
557,22,Ticks_Phase_8,95,1,48,60,716890364
557,22,Ticks_Phase_8,96,5,42,127,717135412
557,22,Ticks_Phase_8,97,1,48,57,717735908
557,22,Ticks_Phase_8,98,1,48,32,717790256
557,22,Ticks_Phase_8,99,5,42,127,717954524
557,22,Ticks_Phase_8,100,1,48,61,718501972
557,22,Ticks_Phase_8,101,5,42,127,718755580
557,22,Ticks_Phase_8,102,1,48,61,719293376
557,22,Ticks_Phase_8,103,1,48,37,719330348
557,22,Ticks_Phase_8,104,5,42,127,719554824
557,22,Ticks_Phase_8,105,1,48,58,720078532
557,22,Ticks_Phase_8,106,5,42,127,720354536
557,22,Ticks_Phase_8,107,1,48,65,720851136
557,22,Ticks_Phase_8,108,5,42,127,721154324
557,22,Ticks_Phase_8,109,1,48,59,721762376
557,22,Ticks_Phase_8,110,5,42,127,721955304
557,22,Ticks_Phase_8,111,1,48,55,722478792
557,22,Ticks_Phase_8,112,5,42,127,722754940
557,22,Ticks_Phase_8,113,1,48,60,723322556
557,22,Ticks_Phase_8,114,5,42,127,723554676
557,22,Ticks_Phase_8,115,1,48,57,724082056
557,22,Ticks_Phase_8,116,5,42,127,724354392
557,22,Ticks_Phase_8,117,1,48,59,724867396
557,22,Ticks_Phase_8,118,5,42,127,725155296
557,22,Ticks_Phase_8,119,1,48,57,725669720
557,22,Ticks_Phase_8,120,5,42,127,725955084
557,22,Ticks_Phase_8,121,1,48,44,726493256
557,22,Ticks_Phase_8,122,5,42,127,726754572
557,22,Ticks_Phase_8,123,1,48,43,727326656
557,22,Ticks_Phase_8,124,5,42,127,727554356
557,22,Ticks_Phase_8,125,1,48,54,728153360
557,22,Ticks_Phase_8,126,5,42,127,728355044
557,22,Ticks_Phase_8,127,1,48,55,728908036
557,22,Ticks_Phase_8,128,1,48,22,728997304
557,22,Ticks_Phase_8,129,5,42,127,729155104
557,22,Ticks_Phase_8,130,1,48,47,729683092
557,22,Ticks_Phase_8,131,1,48,29,729737904
557,22,Ticks_Phase_8,132,5,42,127,729954820
557,22,Ticks_Phase_8,133,1,48,62,730511852
557,22,Ticks_Phase_8,134,1,48,22,730588444
557,22,Ticks_Phase_8,135,5,42,127,730795248
557,22,Ticks_Phase_8,136,1,48,54,731335064
557,22,Ticks_Phase_8,137,1,48,36,731383944
557,22,Ticks_Phase_8,138,5,42,127,731595084
557,22,Ticks_Phase_8,139,1,48,57,732107192
557,22,Ticks_Phase_8,140,5,42,127,732394948
557,22,Ticks_Phase_8,141,1,48,56,732981180
557,22,Ticks_Phase_8,142,5,42,127,733194584
557,22,Ticks_Phase_8,143,1,48,63,733739784
557,22,Ticks_Phase_8,144,5,42,127,733995268
557,22,Ticks_Phase_8,145,1,48,60,734568280
557,22,Ticks_Phase_8,146,5,42,127,734795056
557,22,Ticks_Phase_8,147,1,48,59,735359156
557,22,Ticks_Phase_8,148,5,42,127,735595016
557,22,Ticks_Phase_8,149,1,48,60,736152648
557,22,Ticks_Phase_8,150,5,42,127,736394652
557,22,Ticks_Phase_8,151,1,48,52,736938508
557,22,Ticks_Phase_8,152,5,42,127,737195408
557,22,Ticks_Phase_8,153,1,48,69,737624320
557,22,Ticks_Phase_8,154,5,42,127,737995048
557,22,Ticks_Phase_8,155,1,48,55,738569156
557,22,Ticks_Phase_8,156,5,42,127,738794912
557,22,Ticks_Phase_8,157,1,48,62,739289864
557,22,Ticks_Phase_8,158,5,42,127,739594696
557,22,Ticks_Phase_8,159,1,48,50,740063672
557,22,Ticks_Phase_8,160,5,42,127,740395308
557,22,Ticks_Phase_8,161,1,48,68,740949224
557,22,Ticks_Phase_8,162,5,42,127,741195168
557,22,Ticks_Phase_8,163,1,48,54,741670200
557,22,Ticks_Phase_8,164,5,42,127,741994828
557,22,Ticks_Phase_8,165,1,48,50,742549240
557,22,Ticks_Phase_8,166,5,42,127,742794840
557,22,Ticks_Phase_8,167,1,48,58,743279232
557,22,Ticks_Phase_8,168,5,42,127,743595376
557,22,Ticks_Phase_8,169,1,48,58,743990104
557,22,Ticks_Phase_8,170,5,42,127,744355172
557,22,Ticks_Phase_8,171,1,48,57,744691336
557,22,Ticks_Phase_8,172,5,42,127,745154884
557,22,Ticks_Phase_8,173,1,48,41,745446048
557,22,Ticks_Phase_8,174,5,42,127,745954524
557,22,Ticks_Phase_8,175,1,48,43,746252040
557,22,Ticks_Phase_8,176,5,42,127,746754604
557,22,Ticks_Phase_8,177,1,48,57,747011168
557,22,Ticks_Phase_8,178,5,42,127,747555140
557,22,Ticks_Phase_8,179,1,48,48,747821508
557,22,Ticks_Phase_8,180,5,42,127,748354852
557,22,Ticks_Phase_8,181,1,48,51,748607596
557,22,Ticks_Phase_8,182,5,42,127,749154588
557,22,Ticks_Phase_8,183,1,48,60,749411072
557,22,Ticks_Phase_8,184,5,42,127,749954524
557,22,Ticks_Phase_8,185,1,48,64,750225092
557,22,Ticks_Phase_8,186,5,42,127,750755280
557,22,Ticks_Phase_8,187,1,48,65,751021724
557,22,Ticks_Phase_8,188,5,42,127,751554992
557,22,Ticks_Phase_8,189,1,48,62,751746028
557,22,Ticks_Phase_8,190,5,42,127,752354632
557,22,Ticks_Phase_8,191,1,48,64,752515040
557,22,Ticks_Phase_8,192,5,42,127,753154344
557,22,Ticks_Phase_8,193,1,48,64,753350168
557,22,Ticks_Phase_8,194,5,42,127,753955324
557,22,Ticks_Phase_8,195,1,48,62,754188448
557,22,Ticks_Phase_8,196,5,42,127,754754884
557,22,Ticks_Phase_8,197,1,48,63,754974236
557,22,Ticks_Phase_8,198,5,42,127,755554772
557,22,Ticks_Phase_8,199,1,48,66,755720472
557,22,Ticks_Phase_8,200,5,42,127,756354336
557,22,Ticks_Phase_8,201,1,48,72,756412880
557,22,Ticks_Phase_8,202,1,48,67,757011168
557,22,Ticks_Phase_8,203,5,42,127,757075308
557,22,Ticks_Phase_8,204,1,48,59,757675392
557,22,Ticks_Phase_8,205,5,42,127,757875152
557,22,Ticks_Phase_8,206,1,48,56,758459824
557,22,Ticks_Phase_8,207,5,42,127,758674864
557,22,Ticks_Phase_8,208,1,48,58,759381176
557,22,Ticks_Phase_8,209,5,42,127,759474592
557,22,Ticks_Phase_8,210,1,48,51,760180288
557,22,Ticks_Phase_8,211,5,42,127,760275276
557,22,Ticks_Phase_8,212,1,48,53,760889208
557,22,Ticks_Phase_8,213,5,42,127,761075120
557,22,Ticks_Phase_8,214,1,48,51,761682328
557,22,Ticks_Phase_8,215,5,42,127,761874908
557,22,Ticks_Phase_8,216,1,48,57,762465596
557,22,Ticks_Phase_8,217,5,42,127,762674472
557,22,Ticks_Phase_8,218,1,48,57,763234004
557,22,Ticks_Phase_8,219,5,42,127,763475380
557,22,Ticks_Phase_8,220,1,48,59,764013848
557,22,Ticks_Phase_8,221,5,42,127,764275088
557,22,Ticks_Phase_8,222,1,48,58,764801344
557,22,Ticks_Phase_8,223,5,42,127,765074952
557,22,Ticks_Phase_8,224,1,48,59,765584960
557,22,Ticks_Phase_8,225,5,42,127,765874588
557,22,Ticks_Phase_8,226,1,48,63,766357936
557,22,Ticks_Phase_8,227,5,42,127,766675272
557,22,Ticks_Phase_8,228,1,48,60,767224372
557,22,Ticks_Phase_8,229,5,42,127,767474984
557,22,Ticks_Phase_8,230,1,48,57,768003940
557,22,Ticks_Phase_8,231,5,42,127,768274916
557,22,Ticks_Phase_8,232,1,48,58,768723448
557,22,Ticks_Phase_8,233,5,42,127,769074480
557,22,Ticks_Phase_8,234,1,48,62,769475452
557,22,Ticks_Phase_8,235,5,42,127,769875488
557,22,Ticks_Phase_8,236,1,48,63,770397484
557,22,Ticks_Phase_8,237,5,42,127,770755104
557,22,Ticks_Phase_8,238,1,48,54,771270056
557,22,Ticks_Phase_8,239,5,42,127,771554668
557,22,Ticks_Phase_8,240,1,48,64,772067528
557,22,Ticks_Phase_8,241,5,42,127,772354384
557,22,Ticks_Phase_8,242,1,48,59,772816684
557,22,Ticks_Phase_8,243,5,42,127,773155212
557,22,Ticks_Phase_8,244,1,48,54,773539112
557,22,Ticks_Phase_8,245,5,42,127,773955000
557,22,Ticks_Phase_8,246,1,48,57,774477968
557,22,Ticks_Phase_8,247,5,42,127,774754960
557,22,Ticks_Phase_8,248,1,48,61,775202256
557,22,Ticks_Phase_8,249,5,42,127,775554372
557,22,Ticks_Phase_8,250,1,48,53,775967976
557,22,Ticks_Phase_8,251,5,42,127,776355280
557,22,Ticks_Phase_8,252,1,48,52,776881460
557,22,Ticks_Phase_8,253,5,42,127,777154916
557,22,Ticks_Phase_8,254,1,48,58,777623144
557,22,Ticks_Phase_8,255,1,48,40,777655324
557,22,Ticks_Phase_8,256,5,42,127,777954608
557,22,Ticks_Phase_8,257,1,48,53,778317732
557,22,Ticks_Phase_8,258,5,42,127,778754392
557,22,Ticks_Phase_8,259,1,48,51,779251964
557,22,Ticks_Phase_8,260,5,42,127,779555152
557,22,Ticks_Phase_8,261,1,48,46,780140592
557,22,Ticks_Phase_8,262,5,42,127,780355012
557,22,Ticks_Phase_8,263,1,48,53,780938056
557,22,Ticks_Phase_8,264,5,42,127,781154672
557,22,Ticks_Phase_8,265,1,48,50,781688872
557,22,Ticks_Phase_8,266,5,42,127,781954384
557,22,Ticks_Phase_8,267,1,48,50,782497564
557,22,Ticks_Phase_8,268,5,42,127,782755140
557,22,Ticks_Phase_8,269,1,48,54,783316968
557,22,Ticks_Phase_8,270,5,42,127,783554780
557,22,Ticks_Phase_8,271,1,48,57,784106652
557,22,Ticks_Phase_8,272,5,42,127,784514700
557,22,Ticks_Phase_8,273,5,42,127,785315184
557,22,Ticks_Phase_8,274,1,48,54,785319276
557,22,Ticks_Phase_8,275,1,48,51,786093744
557,22,Ticks_Phase_8,276,5,42,127,786114888
557,22,Ticks_Phase_8,277,1,48,50,786792812
557,22,Ticks_Phase_8,278,5,42,127,786914732
557,22,Ticks_Phase_8,279,1,48,48,787495436
557,22,Ticks_Phase_8,280,5,42,127,787714668
557,22,Ticks_Phase_8,281,1,48,50,788295668
557,22,Ticks_Phase_8,282,5,42,127,788515128
557,22,Ticks_Phase_8,283,1,48,50,789063036
557,22,Ticks_Phase_8,284,5,42,127,789314916
557,22,Ticks_Phase_8,285,1,48,44,789815416
557,22,Ticks_Phase_8,286,5,42,127,790114648
557,22,Ticks_Phase_8,287,1,48,38,790537012
557,22,Ticks_Phase_8,288,5,42,127,790914584
557,22,Ticks_Phase_8,289,1,48,40,791383408
557,22,Ticks_Phase_8,290,5,42,127,791715044
557,22,Ticks_Phase_8,291,1,48,46,792150008
557,22,Ticks_Phase_8,292,5,42,127,792514904
557,22,Ticks_Phase_8,293,1,48,53,792978484
557,22,Ticks_Phase_8,294,5,42,127,793314616
557,22,Ticks_Phase_8,295,1,48,49,793686312
557,22,Ticks_Phase_8,296,5,42,127,794114552
557,22,Ticks_Phase_8,297,1,48,41,794569964
557,22,Ticks_Phase_8,298,5,42,127,794915384
557,22,Ticks_Phase_8,299,1,48,51,795288800
557,22,Ticks_Phase_8,300,5,42,127,795714796
557,22,Ticks_Phase_8,301,1,48,48,795996924
557,22,Ticks_Phase_8,302,5,42,127,796514608
557,22,Ticks_Phase_8,303,1,48,44,796846136
557,22,Ticks_Phase_8,304,5,42,127,797314320
557,22,Ticks_Phase_8,305,1,48,47,797608400
557,22,Ticks_Phase_8,306,5,42,127,798115600
557,22,Ticks_Phase_8,307,1,48,45,798345436
557,22,Ticks_Phase_8,308,5,42,127,798914792
557,22,Ticks_Phase_8,309,1,48,44,799139304
557,22,Ticks_Phase_8,310,5,42,127,799555044
557,22,Ticks_Phase_8,311,1,48,47,799852288
557,22,Ticks_Phase_8,312,5,42,127,800354708
557,22,Ticks_Phase_8,313,1,48,46,800602740
557,22,Ticks_Phase_8,314,5,42,127,801154344
557,22,Ticks_Phase_8,315,1,48,46,801371660
557,22,Ticks_Phase_8,316,5,42,127,801955328
557,22,Ticks_Phase_8,317,1,48,50,802169280
557,22,Ticks_Phase_8,318,5,42,127,802755112
557,22,Ticks_Phase_8,319,1,48,46,802949668
557,22,Ticks_Phase_8,320,5,42,127,803554600
557,22,Ticks_Phase_8,321,1,48,44,803806524
557,22,Ticks_Phase_8,322,5,42,127,804354460
557,22,Ticks_Phase_8,323,1,48,48,804650708
557,22,Ticks_Phase_8,324,5,42,127,805155144
557,22,Ticks_Phase_8,325,1,48,50,805346932
557,22,Ticks_Phase_8,326,5,42,127,805955080
557,22,Ticks_Phase_8,327,1,48,45,806133388
557,22,Ticks_Phase_8,328,5,42,127,806754664
557,22,Ticks_Phase_8,329,1,48,45,806893112
557,22,Ticks_Phase_8,330,5,42,127,807554452
557,22,Ticks_Phase_8,331,1,48,36,807715888
557,22,Ticks_Phase_8,332,5,42,127,808355060
557,22,Ticks_Phase_8,333,1,48,38,808550960
557,22,Ticks_Phase_8,334,5,42,127,809155068
557,22,Ticks_Phase_8,335,1,48,47,809420172
557,22,Ticks_Phase_8,336,5,42,127,809954560
557,22,Ticks_Phase_8,337,1,48,49,810165668
557,22,Ticks_Phase_8,338,5,42,127,810754348
557,22,Ticks_Phase_8,339,1,48,41,810891160
557,22,Ticks_Phase_8,340,5,42,127,811555180
557,22,Ticks_Phase_8,341,1,48,46,811581516
557,22,Ticks_Phase_8,342,1,48,44,812280488
557,22,Ticks_Phase_8,343,5,42,127,812354960
557,22,Ticks_Phase_8,344,1,48,39,813002168
557,22,Ticks_Phase_8,345,5,42,127,813154532
557,22,Ticks_Phase_8,346,1,48,39,813701752
557,22,Ticks_Phase_8,347,5,42,127,813954468
557,22,Ticks_Phase_8,348,1,48,40,814472720
557,22,Ticks_Phase_8,349,5,42,127,814755080
557,22,Ticks_Phase_8,0,9999,9999,9999,679552084
557,22,Ticks_Phase_8,1,9999,9999,9999,680352844
557,22,Ticks_Phase_8,2,9999,9999,9999,681152632
557,22,Ticks_Phase_8,3,9999,9999,9999,681952344
557,22,Ticks_Phase_8,4,9999,9999,9999,682752056
557,22,Ticks_Phase_8,5,9999,9999,9999,683552888
557,22,Ticks_Phase_8,6,9999,9999,9999,684352600
557,22,Ticks_Phase_8,7,9999,9999,9999,685152336
557,22,Ticks_Phase_8,8,9999,9999,9999,685952124
557,22,Ticks_Phase_8,9,9999,9999,9999,686752884
557,22,Ticks_Phase_8,10,9999,9999,9999,687552596
557,22,Ticks_Phase_8,11,9999,9999,9999,688352384
557,22,Ticks_Phase_8,12,9999,9999,9999,689152092
557,22,Ticks_Phase_8,13,9999,9999,9999,689952852
557,22,Ticks_Phase_8,14,9999,9999,9999,690752640
557,22,Ticks_Phase_8,15,9999,9999,9999,691552376
557,22,Ticks_Phase_8,16,9999,9999,9999,692352088
557,22,Ticks_Phase_8,17,9999,9999,9999,693152844
557,22,Ticks_Phase_8,18,9999,9999,9999,693952608
557,22,Ticks_Phase_8,19,9999,9999,9999,694752320
557,22,Ticks_Phase_8,20,9999,9999,9999,695552108
557,22,Ticks_Phase_8,21,9999,9999,9999,696352864
557,22,Ticks_Phase_8,22,9999,9999,9999,697152576
557,22,Ticks_Phase_8,23,9999,9999,9999,697952312
557,22,Ticks_Phase_8,24,9999,9999,9999,698752096
557,22,Ticks_Phase_8,25,9999,9999,9999,699552856
557,22,Ticks_Phase_8,26,9999,9999,9999,700352568
557,22,Ticks_Phase_8,27,9999,9999,9999,701152352
557,22,Ticks_Phase_8,28,9999,9999,9999,701952064
557,22,Ticks_Phase_8,29,9999,9999,9999,702752820
557,22,Ticks_Phase_8,30,9999,9999,9999,703532092
557,22,Ticks_Phase_8,31,9999,9999,9999,704332924
557,22,Ticks_Phase_8,32,9999,9999,9999,705132640
557,22,Ticks_Phase_8,33,9999,9999,9999,705932352
557,22,Ticks_Phase_8,34,9999,9999,9999,706732140
557,22,Ticks_Phase_8,35,9999,9999,9999,707532896
557,22,Ticks_Phase_8,36,9999,9999,9999,708332608
557,22,Ticks_Phase_8,37,9999,9999,9999,709132392
557,22,Ticks_Phase_8,38,9999,9999,9999,709932104
557,22,Ticks_Phase_8,39,9999,9999,9999,710732864
557,22,Ticks_Phase_8,40,9999,9999,9999,711532600
557,22,Ticks_Phase_8,41,9999,9999,9999,712332388
557,22,Ticks_Phase_8,42,9999,9999,9999,713132100
557,22,Ticks_Phase_8,43,9999,9999,9999,713932860
557,22,Ticks_Phase_8,44,9999,9999,9999,714732644
557,22,Ticks_Phase_8,45,9999,9999,9999,715532356
557,22,Ticks_Phase_8,46,9999,9999,9999,716332144
557,22,Ticks_Phase_8,47,9999,9999,9999,717132900
557,22,Ticks_Phase_8,48,9999,9999,9999,717952088
557,22,Ticks_Phase_8,49,9999,9999,9999,718752844
557,22,Ticks_Phase_8,50,9999,9999,9999,719552612
557,22,Ticks_Phase_8,51,9999,9999,9999,720352324
557,22,Ticks_Phase_8,52,9999,9999,9999,721152112
557,22,Ticks_Phase_8,53,9999,9999,9999,721952868
557,22,Ticks_Phase_8,54,9999,9999,9999,722752580
557,22,Ticks_Phase_8,55,9999,9999,9999,723552316
557,22,Ticks_Phase_8,56,9999,9999,9999,724352104
557,22,Ticks_Phase_8,57,9999,9999,9999,725152860
557,22,Ticks_Phase_8,58,9999,9999,9999,725952572
557,22,Ticks_Phase_8,59,9999,9999,9999,726752360
557,22,Ticks_Phase_8,60,9999,9999,9999,727552072
557,22,Ticks_Phase_8,61,9999,9999,9999,728352832
557,22,Ticks_Phase_8,62,9999,9999,9999,729152592
557,22,Ticks_Phase_8,63,9999,9999,9999,729952380
557,22,Ticks_Phase_8,64,9999,9999,9999,730793036
557,22,Ticks_Phase_8,65,9999,9999,9999,731592800
557,22,Ticks_Phase_8,66,9999,9999,9999,732392512
557,22,Ticks_Phase_8,67,9999,9999,9999,733192296
557,22,Ticks_Phase_8,68,9999,9999,9999,733993056
557,22,Ticks_Phase_8,69,9999,9999,9999,734792768
557,22,Ticks_Phase_8,70,9999,9999,9999,735592504
557,22,Ticks_Phase_8,71,9999,9999,9999,736392292
557,22,Ticks_Phase_8,72,9999,9999,9999,737193048
557,22,Ticks_Phase_8,73,9999,9999,9999,737992760
557,22,Ticks_Phase_8,74,9999,9999,9999,738792552
557,22,Ticks_Phase_8,75,9999,9999,9999,739592260
557,22,Ticks_Phase_8,76,9999,9999,9999,740393020
557,22,Ticks_Phase_8,77,9999,9999,9999,741192804
557,22,Ticks_Phase_8,78,9999,9999,9999,741992544
557,22,Ticks_Phase_8,79,9999,9999,9999,742792256
557,22,Ticks_Phase_8,80,9999,9999,9999,743593088
557,22,Ticks_Phase_8,81,9999,9999,9999,744352884
557,22,Ticks_Phase_8,82,9999,9999,9999,745152596
557,22,Ticks_Phase_8,83,9999,9999,9999,745952312
557,22,Ticks_Phase_8,84,9999,9999,9999,746752096
557,22,Ticks_Phase_8,85,9999,9999,9999,747552852
557,22,Ticks_Phase_8,86,9999,9999,9999,748352564
557,22,Ticks_Phase_8,87,9999,9999,9999,749152376
557,22,Ticks_Phase_8,88,9999,9999,9999,749952088
557,22,Ticks_Phase_8,89,9999,9999,9999,750752844
557,22,Ticks_Phase_8,90,9999,9999,9999,751552632
557,22,Ticks_Phase_8,91,9999,9999,9999,752352344
557,22,Ticks_Phase_8,92,9999,9999,9999,753152056
557,22,Ticks_Phase_8,93,9999,9999,9999,753952888
557,22,Ticks_Phase_8,94,9999,9999,9999,754752600
557,22,Ticks_Phase_8,95,9999,9999,9999,755552336
557,22,Ticks_Phase_8,96,9999,9999,9999,756352124
557,22,Ticks_Phase_8,97,9999,9999,9999,757073020
557,22,Ticks_Phase_8,98,9999,9999,9999,757872720
557,22,Ticks_Phase_8,99,9999,9999,9999,758672504
557,22,Ticks_Phase_8,100,9999,9999,9999,759472232
557,22,Ticks_Phase_8,101,9999,9999,9999,760272988
557,22,Ticks_Phase_8,102,9999,9999,9999,761072760
557,22,Ticks_Phase_8,103,9999,9999,9999,761872472
557,22,Ticks_Phase_8,104,9999,9999,9999,762672184
557,22,Ticks_Phase_8,105,9999,9999,9999,763473016
557,22,Ticks_Phase_8,106,9999,9999,9999,764272728
557,22,Ticks_Phase_8,107,9999,9999,9999,765072440
557,22,Ticks_Phase_8,108,9999,9999,9999,765872228
557,22,Ticks_Phase_8,109,9999,9999,9999,766672984
557,22,Ticks_Phase_8,110,9999,9999,9999,767472696
557,22,Ticks_Phase_8,111,9999,9999,9999,768272480
557,22,Ticks_Phase_8,112,9999,9999,9999,769072192
557,22,Ticks_Phase_8,113,9999,9999,9999,769872952
557,22,Ticks_Phase_8,114,9999,9999,9999,770752592
557,22,Ticks_Phase_8,115,9999,9999,9999,771552384
557,22,Ticks_Phase_8,116,9999,9999,9999,772352096
557,22,Ticks_Phase_8,117,9999,9999,9999,773152852
557,22,Ticks_Phase_8,118,9999,9999,9999,773952640
557,22,Ticks_Phase_8,119,9999,9999,9999,774752376
557,22,Ticks_Phase_8,120,9999,9999,9999,775552088
557,22,Ticks_Phase_8,121,9999,9999,9999,776352844
557,22,Ticks_Phase_8,122,9999,9999,9999,777152632
557,22,Ticks_Phase_8,123,9999,9999,9999,777952320
557,22,Ticks_Phase_8,124,9999,9999,9999,778752104
557,22,Ticks_Phase_8,125,9999,9999,9999,779552864
557,22,Ticks_Phase_8,126,9999,9999,9999,780352576
557,22,Ticks_Phase_8,127,9999,9999,9999,781152312
557,22,Ticks_Phase_8,128,9999,9999,9999,781952100
557,22,Ticks_Phase_8,129,9999,9999,9999,782752856
557,22,Ticks_Phase_8,130,9999,9999,9999,783552568
557,22,Ticks_Phase_8,131,9999,9999,9999,784512116
557,22,Ticks_Phase_8,132,9999,9999,9999,785312820
557,22,Ticks_Phase_8,133,9999,9999,9999,786112600
557,22,Ticks_Phase_8,134,9999,9999,9999,786912372
557,22,Ticks_Phase_8,135,9999,9999,9999,787712084
557,22,Ticks_Phase_8,136,9999,9999,9999,788512840
557,22,Ticks_Phase_8,137,9999,9999,9999,789312628
557,22,Ticks_Phase_8,138,9999,9999,9999,790112364
557,22,Ticks_Phase_8,139,9999,9999,9999,790912072
557,22,Ticks_Phase_8,140,9999,9999,9999,791712832
557,22,Ticks_Phase_8,141,9999,9999,9999,792512616
557,22,Ticks_Phase_8,142,9999,9999,9999,793312328
557,22,Ticks_Phase_8,143,9999,9999,9999,794112116
557,22,Ticks_Phase_8,144,9999,9999,9999,794912872
557,22,Ticks_Phase_8,145,9999,9999,9999,795712584
557,22,Ticks_Phase_8,146,9999,9999,9999,796512320
557,22,Ticks_Phase_8,147,9999,9999,9999,797312108
557,22,Ticks_Phase_8,148,9999,9999,9999,798112864
557,22,Ticks_Phase_8,149,9999,9999,9999,798912580
557,22,Ticks_Phase_8,150,9999,9999,9999,799552608
557,22,Ticks_Phase_8,151,9999,9999,9999,800352348
557,22,Ticks_Phase_8,152,9999,9999,9999,801152060
557,22,Ticks_Phase_8,153,9999,9999,9999,801952892
557,22,Ticks_Phase_8,154,9999,9999,9999,802752600
557,22,Ticks_Phase_8,155,9999,9999,9999,803552312
557,22,Ticks_Phase_8,156,9999,9999,9999,804352100
557,22,Ticks_Phase_8,157,9999,9999,9999,805152856
557,22,Ticks_Phase_8,158,9999,9999,9999,805952568
557,22,Ticks_Phase_8,159,9999,9999,9999,806752380
557,22,Ticks_Phase_8,160,9999,9999,9999,807552092
557,22,Ticks_Phase_8,161,9999,9999,9999,808352848
557,22,Ticks_Phase_8,162,9999,9999,9999,809152632
557,22,Ticks_Phase_8,163,9999,9999,9999,809952348
557,22,Ticks_Phase_8,164,9999,9999,9999,810752060
557,22,Ticks_Phase_8,165,9999,9999,9999,811552896
557,22,Ticks_Phase_8,166,9999,9999,9999,812352600
557,22,Ticks_Phase_8,167,9999,9999,9999,813152320
557,22,Ticks_Phase_8,168,9999,9999,9999,813952108
557,22,Ticks_Phase_8,169,9999,9999,9999,814752868
558,25,Jits_Pract_5,0,5,56,103,873695608
558,25,Jits_Pract_5,1,5,63,98,873698704
558,25,Jits_Pract_5,2,5,80,127,873701680
558,25,Jits_Pract_5,0,5,56,103,874196488
558,25,Jits_Pract_5,1,5,63,98,874199740
558,25,Jits_Pract_5,2,5,80,127,874202784
558,25,Jits_Pract_5,0,5,56,103,874695968
558,25,Jits_Pract_5,1,5,80,127,874706388
558,25,Jits_Pract_5,2,5,63,98,874725724
558,25,Jits_Pract_5,0,5,63,98,875145552
558,25,Jits_Pract_5,1,5,80,127,875176424
558,25,Jits_Pract_5,2,5,56,103,875185500
558,25,Jits_Pract_5,0,5,80,127,875705776
558,25,Jits_Pract_5,1,5,56,103,875716120
558,25,Jits_Pract_5,2,5,63,98,875745572
558,25,Jits_Pract_5,0,5,63,98,876196416
558,25,Jits_Pract_5,1,5,56,103,876225868
558,25,Jits_Pract_5,2,5,80,127,876236288
558,25,Jits_Pract_5,0,5,56,103,876645688
558,25,Jits_Pract_5,1,5,63,98,876695964
558,25,Jits_Pract_5,2,5,80,127,876716424
558,25,Jits_Pract_5,0,5,80,127,877145464
558,25,Jits_Pract_5,1,5,63,98,877195596
558,25,Jits_Pract_5,2,5,56,103,877235532
558,25,Jits_Pract_5,0,5,56,103,877646292
558,25,Jits_Pract_5,1,5,63,98,877675820
558,25,Jits_Pract_5,2,5,80,127,877745424
558,25,Jits_Pract_5,0,5,56,103,878145972
558,25,Jits_Pract_5,1,5,80,127,878206464
558,25,Jits_Pract_5,2,5,63,98,878236140
558,25,Jits_Pract_5,0,5,56,103,878655868
558,25,Jits_Pract_5,1,5,63,98,878666212
558,25,Jits_Pract_5,2,5,80,127,878706224
558,25,Jits_Pract_5,0,5,63,98,879146400
558,25,Jits_Pract_5,1,5,80,127,879226152
558,25,Jits_Pract_5,2,5,56,103,879235372
558,25,Jits_Pract_5,0,5,63,98,879696464
558,25,Jits_Pract_5,1,5,56,103,879736252
558,25,Jits_Pract_5,2,5,80,127,879739244
558,25,Jits_Pract_5,0,5,56,103,880156112
558,25,Jits_Pract_5,1,5,63,98,880166384
558,25,Jits_Pract_5,2,5,80,127,880206420
558,25,Jits_Pract_5,0,5,56,103,880645544
558,25,Jits_Pract_5,1,5,63,98,880648388
558,25,Jits_Pract_5,2,5,80,127,880665928
558,25,Jits_Pract_5,0,9999,9999,9999,873943120
558,25,Jits_Pract_5,1,9999,9999,9999,874443856
558,25,Jits_Pract_5,2,9999,9999,9999,874943560
558,25,Jits_Pract_5,3,9999,9999,9999,875443260
558,25,Jits_Pract_5,4,9999,9999,9999,875944004
558,25,Jits_Pract_5,5,9999,9999,9999,876443708
558,25,Jits_Pract_5,6,9999,9999,9999,876943472
558,25,Jits_Pract_5,7,9999,9999,9999,877443176
558,25,Jits_Pract_5,8,9999,9999,9999,877943932
558,25,Jits_Pract_5,9,9999,9999,9999,878443640
558,25,Jits_Pract_5,10,9999,9999,9999,878943312
558,25,Jits_Pract_5,11,9999,9999,9999,879444064
558,25,Jits_Pract_5,12,9999,9999,9999,879943800
558,25,Jits_Pract_5,13,9999,9999,9999,880443484
558,25,Jits_Pract_5,14,9999,9999,9999,880943172
559,25,Jits_Pract_5,0,5,56,103,920708432
559,25,Jits_Pract_5,1,5,63,98,920711528
559,25,Jits_Pract_5,2,5,80,127,920714728
559,25,Jits_Pract_5,0,1,48,47,921090224
559,25,Jits_Pract_5,1,5,56,103,921209144
559,25,Jits_Pract_5,2,5,63,98,921212468
559,25,Jits_Pract_5,3,5,80,127,921215588
559,25,Jits_Pract_5,0,1,48,55,921641524
559,25,Jits_Pract_5,1,5,56,103,921709008
559,25,Jits_Pract_5,2,5,80,127,921719276
559,25,Jits_Pract_5,3,5,63,98,921738600
559,25,Jits_Pract_5,0,5,63,98,922158416
559,25,Jits_Pract_5,1,1,48,59,922161384
559,25,Jits_Pract_5,2,5,80,127,922189080
559,25,Jits_Pract_5,3,5,56,103,922199276
559,25,Jits_Pract_5,0,5,80,127,922718596
559,25,Jits_Pract_5,1,1,48,62,922720228
559,25,Jits_Pract_5,2,5,56,103,922728784
559,25,Jits_Pract_5,3,1,48,44,922747700
559,25,Jits_Pract_5,4,5,63,98,922758364
559,25,Jits_Pract_5,0,5,63,98,923209012
559,25,Jits_Pract_5,1,1,48,64,923212080
559,25,Jits_Pract_5,2,5,56,103,923238704
559,25,Jits_Pract_5,3,5,80,127,923249124
559,25,Jits_Pract_5,0,5,56,103,923658656
559,25,Jits_Pract_5,1,1,48,63,923703052
559,25,Jits_Pract_5,2,5,63,98,923709000
559,25,Jits_Pract_5,3,5,80,127,923729260
559,25,Jits_Pract_5,0,5,80,127,924159340
559,25,Jits_Pract_5,1,1,48,65,924174740
559,25,Jits_Pract_5,2,5,63,98,924208416
559,25,Jits_Pract_5,3,5,56,103,924248376
559,25,Jits_Pract_5,0,5,56,103,924659128
559,25,Jits_Pract_5,1,1,48,64,924675048
559,25,Jits_Pract_5,2,5,63,98,924688872
559,25,Jits_Pract_5,3,5,80,127,924759548
559,25,Jits_Pract_5,0,5,56,103,925158916
559,25,Jits_Pract_5,1,1,48,59,925186000
559,25,Jits_Pract_5,2,5,80,127,925219300
559,25,Jits_Pract_5,3,5,63,98,925249200
559,25,Jits_Pract_5,0,1,48,66,925665184
559,25,Jits_Pract_5,1,5,56,103,925668888
559,25,Jits_Pract_5,2,5,63,98,925679160
559,25,Jits_Pract_5,3,5,80,127,925718948
559,25,Jits_Pract_5,0,1,48,74,926148636
559,25,Jits_Pract_5,1,5,63,98,926159144
559,25,Jits_Pract_5,2,5,80,127,926239164
559,25,Jits_Pract_5,3,5,56,103,926249272
559,25,Jits_Pract_5,0,1,48,64,926674396
559,25,Jits_Pract_5,1,5,63,98,926709044
559,25,Jits_Pract_5,2,5,56,103,926749128
559,25,Jits_Pract_5,3,5,80,127,926752120
559,25,Jits_Pract_5,0,5,56,103,927169032
559,25,Jits_Pract_5,1,5,63,98,927179080
559,25,Jits_Pract_5,2,1,48,64,927182124
559,25,Jits_Pract_5,3,5,80,127,927219012
559,25,Jits_Pract_5,0,5,56,103,927659304
559,25,Jits_Pract_5,1,5,63,98,927662444
559,25,Jits_Pract_5,2,1,48,64,927664004
559,25,Jits_Pract_5,3,5,80,127,927679008
559,25,Jits_Pract_5,0,9999,9999,9999,920956992
559,25,Jits_Pract_5,1,9999,9999,9999,921456732
559,25,Jits_Pract_5,2,9999,9999,9999,921956432
559,25,Jits_Pract_5,3,9999,9999,9999,922456124
559,25,Jits_Pract_5,4,9999,9999,9999,922956852
559,25,Jits_Pract_5,5,9999,9999,9999,923456580
559,25,Jits_Pract_5,6,9999,9999,9999,923956344
559,25,Jits_Pract_5,7,9999,9999,9999,924457028
559,25,Jits_Pract_5,8,9999,9999,9999,924956744
559,25,Jits_Pract_5,9,9999,9999,9999,925456460
559,25,Jits_Pract_5,10,9999,9999,9999,925956172
559,25,Jits_Pract_5,11,9999,9999,9999,926456920
559,25,Jits_Pract_5,12,9999,9999,9999,926956612
559,25,Jits_Pract_5,13,9999,9999,9999,927456308
559,25,Jits_Pract_5,14,9999,9999,9999,927957056
5510,24,Jits_Pract_8,0,5,56,103,936620420
5510,24,Jits_Pract_8,1,5,63,98,936623596
5510,24,Jits_Pract_8,2,5,80,127,936626788
5510,24,Jits_Pract_8,3,1,48,29,936980456
5510,24,Jits_Pract_8,0,5,56,103,937420088
5510,24,Jits_Pract_8,1,5,63,98,937423184
5510,24,Jits_Pract_8,2,5,80,127,937426308
5510,24,Jits_Pract_8,0,1,48,39,937901868
5510,24,Jits_Pract_8,1,5,80,127,938159716
5510,24,Jits_Pract_8,2,5,63,98,938249772
5510,24,Jits_Pract_8,3,5,56,103,938259820
5510,24,Jits_Pract_8,0,1,48,43,938768008
5510,24,Jits_Pract_8,1,5,56,103,938979844
5510,24,Jits_Pract_8,2,5,63,98,938989964
5510,24,Jits_Pract_8,3,5,80,127,939080096
5510,24,Jits_Pract_8,0,1,48,45,939617456
5510,24,Jits_Pract_8,1,5,63,98,939749696
5510,24,Jits_Pract_8,2,5,80,127,939779668
5510,24,Jits_Pract_8,3,5,56,103,939810096
5510,24,Jits_Pract_8,0,1,48,42,940387604
5510,24,Jits_Pract_8,1,5,56,103,940549664
5510,24,Jits_Pract_8,2,5,80,127,940649788
5510,24,Jits_Pract_8,3,5,63,98,940699916
5510,24,Jits_Pract_8,0,1,48,54,941215508
5510,24,Jits_Pract_8,1,5,56,103,941350388
5510,24,Jits_Pract_8,2,5,80,127,941400540
5510,24,Jits_Pract_8,3,5,63,98,941440628
5510,24,Jits_Pract_8,0,1,48,51,941918696
5510,24,Jits_Pract_8,1,5,80,127,942179760
5510,24,Jits_Pract_8,2,5,63,98,942210480
5510,24,Jits_Pract_8,3,5,56,103,942279936
5510,24,Jits_Pract_8,0,1,48,54,942803328
5510,24,Jits_Pract_8,1,5,63,98,943010452
5510,24,Jits_Pract_8,2,5,56,103,943039832
5510,24,Jits_Pract_8,3,5,80,127,943100368
5510,24,Jits_Pract_8,0,1,48,54,943502464
5510,24,Jits_Pract_8,1,5,56,103,943749588
5510,24,Jits_Pract_8,2,5,80,127,943752656
5510,24,Jits_Pract_8,3,5,63,98,943870508
5510,24,Jits_Pract_8,0,1,48,52,944271480
5510,24,Jits_Pract_8,1,5,56,103,944630096
5510,24,Jits_Pract_8,2,5,80,127,944670108
5510,24,Jits_Pract_8,3,5,63,98,944680452
5510,24,Jits_Pract_8,0,1,48,50,945151472
5510,24,Jits_Pract_8,1,5,56,103,945389988
5510,24,Jits_Pract_8,2,5,80,127,945410372
5510,24,Jits_Pract_8,3,5,63,98,945490488
5510,24,Jits_Pract_8,0,1,48,48,945886484
5510,24,Jits_Pract_8,1,5,80,127,946179700
5510,24,Jits_Pract_8,2,5,56,103,946279676
5510,24,Jits_Pract_8,3,5,63,98,946290168
5510,24,Jits_Pract_8,0,1,48,51,946818884
5510,24,Jits_Pract_8,1,5,63,98,946949484
5510,24,Jits_Pract_8,2,5,80,127,947009800
5510,24,Jits_Pract_8,3,5,56,103,947020020
5510,24,Jits_Pract_8,0,1,48,54,947577628
5510,24,Jits_Pract_8,1,5,56,103,947750496
5510,24,Jits_Pract_8,2,5,63,98,947819980
5510,24,Jits_Pract_8,3,5,80,127,947823416
5510,24,Jits_Pract_8,0,9999,9999,9999,937017448
5510,24,Jits_Pract_8,1,9999,9999,9999,937817152
5510,24,Jits_Pract_8,2,9999,9999,9999,938617912
5510,24,Jits_Pract_8,3,9999,9999,9999,939417664
5510,24,Jits_Pract_8,4,9999,9999,9999,940217404
5510,24,Jits_Pract_8,5,9999,9999,9999,941017156
5510,24,Jits_Pract_8,6,9999,9999,9999,941817948
5510,24,Jits_Pract_8,7,9999,9999,9999,942617704
5510,24,Jits_Pract_8,8,9999,9999,9999,943417460
5510,24,Jits_Pract_8,9,9999,9999,9999,944217144
5510,24,Jits_Pract_8,10,9999,9999,9999,945017944
5510,24,Jits_Pract_8,11,9999,9999,9999,945817692
5510,24,Jits_Pract_8,12,9999,9999,9999,946617448
5510,24,Jits_Pract_8,13,9999,9999,9999,947417192
5510,24,Jits_Pract_8,14,9999,9999,9999,948217972
5511,19,Jits_Linear_5,0,5,56,103,986147416
5511,19,Jits_Linear_5,1,5,63,98,986150368
5511,19,Jits_Linear_5,2,5,80,127,986153488
5511,19,Jits_Linear_5,0,5,56,103,986626460
5511,19,Jits_Linear_5,1,5,63,98,986629484
5511,19,Jits_Linear_5,2,5,80,127,986632532
5511,19,Jits_Linear_5,3,1,48,36,986862600
5511,19,Jits_Linear_5,0,5,56,103,987106528
5511,19,Jits_Linear_5,1,5,80,127,987116952
5511,19,Jits_Linear_5,2,5,63,98,987137484
5511,19,Jits_Linear_5,0,1,48,48,987375596
5511,19,Jits_Linear_5,1,5,63,98,987536644
5511,19,Jits_Linear_5,2,5,80,127,987566544
5511,19,Jits_Linear_5,3,5,56,103,987576668
5511,19,Jits_Linear_5,0,1,48,54,987898872
5511,19,Jits_Linear_5,1,5,80,127,988077460
5511,19,Jits_Linear_5,2,5,56,103,988086608
5511,19,Jits_Linear_5,3,5,63,98,988117480
5511,19,Jits_Linear_5,0,1,48,64,988449292
5511,19,Jits_Linear_5,1,5,63,98,988556624
5511,19,Jits_Linear_5,2,5,56,103,988587496
5511,19,Jits_Linear_5,3,5,80,127,988596572
5511,19,Jits_Linear_5,0,1,48,53,988961708
5511,19,Jits_Linear_5,1,5,56,103,988997108
5511,19,Jits_Linear_5,2,5,63,98,989047240
5511,19,Jits_Linear_5,3,5,80,127,989066636
5511,19,Jits_Linear_5,0,1,48,59,989440620
5511,19,Jits_Linear_5,1,5,80,127,989486428
5511,19,Jits_Linear_5,2,5,63,98,989536644
5511,19,Jits_Linear_5,3,5,56,103,989576436
5511,19,Jits_Linear_5,0,1,48,63,989965864
5511,19,Jits_Linear_5,1,5,56,103,989976972
5511,19,Jits_Linear_5,2,5,63,98,990006652
5511,19,Jits_Linear_5,3,5,80,127,990077464
5511,19,Jits_Linear_5,0,1,48,64,990448764
5511,19,Jits_Linear_5,1,5,56,103,990466396
5511,19,Jits_Linear_5,2,5,80,127,990526716
5511,19,Jits_Linear_5,3,5,63,98,990556556
5511,19,Jits_Linear_5,0,1,48,61,990952496
5511,19,Jits_Linear_5,1,5,56,103,990967360
5511,19,Jits_Linear_5,2,5,63,98,990977408
5511,19,Jits_Linear_5,3,5,80,127,991017420
5511,19,Jits_Linear_5,0,1,48,61,991455168
5511,19,Jits_Linear_5,1,5,63,98,991456528
5511,19,Jits_Linear_5,2,5,80,127,991536552
5511,19,Jits_Linear_5,3,5,56,103,991547252
5511,19,Jits_Linear_5,0,1,48,60,991932200
5511,19,Jits_Linear_5,1,5,63,98,992006640
5511,19,Jits_Linear_5,2,5,56,103,992046416
5511,19,Jits_Linear_5,3,5,80,127,992049556
5511,19,Jits_Linear_5,0,1,48,59,992455424
5511,19,Jits_Linear_5,1,5,56,103,992467356
5511,19,Jits_Linear_5,2,5,63,98,992476580
5511,19,Jits_Linear_5,3,5,80,127,992516444
5511,19,Jits_Linear_5,0,5,56,103,992956856
5511,19,Jits_Linear_5,1,5,63,98,992960072
5511,19,Jits_Linear_5,2,1,48,59,992977168
5511,19,Jits_Linear_5,3,5,80,127,992978580
5511,19,Jits_Linear_5,0,5,80,127,993476924
5511,19,Jits_Linear_5,1,1,48,54,993479592
5511,19,Jits_Linear_5,2,5,56,103,993487188
5511,19,Jits_Linear_5,3,5,63,98,993556944
5511,19,Jits_Linear_5,0,1,48,57,993958756
5511,19,Jits_Linear_5,1,5,63,98,993976692
5511,19,Jits_Linear_5,2,5,56,103,993997300
5511,19,Jits_Linear_5,3,5,80,127,994077156
5511,19,Jits_Linear_5,0,1,48,65,994425852
5511,19,Jits_Linear_5,1,5,56,103,994496980
5511,19,Jits_Linear_5,2,5,80,127,994536756
5511,19,Jits_Linear_5,3,5,63,98,994547176
5511,19,Jits_Linear_5,0,1,48,59,994955364
5511,19,Jits_Linear_5,1,5,80,127,994996444
5511,19,Jits_Linear_5,2,5,63,98,995027240
5511,19,Jits_Linear_5,3,5,56,103,995067240
5511,19,Jits_Linear_5,0,1,48,65,995439680
5511,19,Jits_Linear_5,1,5,56,103,995527216
5511,19,Jits_Linear_5,2,5,63,98,995556656
5511,19,Jits_Linear_5,3,5,80,127,995607084
5511,19,Jits_Linear_5,0,1,48,60,995969340
5511,19,Jits_Linear_5,1,5,80,127,996037244
5511,19,Jits_Linear_5,2,5,56,103,996076872
5511,19,Jits_Linear_5,3,5,63,98,996087368
5511,19,Jits_Linear_5,0,1,48,69,996478688
5511,19,Jits_Linear_5,1,5,80,127,996536632
5511,19,Jits_Linear_5,2,5,63,98,996576500
5511,19,Jits_Linear_5,3,5,56,103,996637248
5511,19,Jits_Linear_5,0,1,48,69,996975380
5511,19,Jits_Linear_5,1,5,56,103,997056996
5511,19,Jits_Linear_5,2,5,80,127,997067116
5511,19,Jits_Linear_5,3,5,63,98,997147196
5511,19,Jits_Linear_5,0,1,48,65,997508920
5511,19,Jits_Linear_5,1,5,80,127,997577060
5511,19,Jits_Linear_5,2,5,63,98,997636392
5511,19,Jits_Linear_5,3,5,56,103,997667260
5511,19,Jits_Linear_5,0,1,48,75,998069672
5511,19,Jits_Linear_5,1,5,56,103,998097196
5511,19,Jits_Linear_5,2,5,80,127,998156692
5511,19,Jits_Linear_5,3,5,63,98,998196616
5511,19,Jits_Linear_5,0,1,48,70,998590112
5511,19,Jits_Linear_5,1,5,56,103,998676980
5511,19,Jits_Linear_5,2,5,63,98,998687232
5511,19,Jits_Linear_5,3,5,80,127,998690524
5511,19,Jits_Linear_5,0,1,48,71,999091132
5511,19,Jits_Linear_5,1,5,80,127,999157172
5511,19,Jits_Linear_5,2,5,63,98,999247324
5511,19,Jits_Linear_5,3,5,56,103,999256472
5511,19,Jits_Linear_5,0,1,48,78,999653008
5511,19,Jits_Linear_5,1,5,56,103,999686364
5511,19,Jits_Linear_5,2,5,63,98,999689540
5511,19,Jits_Linear_5,3,5,80,127,999692740
5511,19,Jits_Linear_5,0,1,48,71,1000184052
5511,19,Jits_Linear_5,1,1,48,57,1000208916
5511,19,Jits_Linear_5,2,5,80,127,1000237488
5511,19,Jits_Linear_5,3,5,63,98,1000286520
5511,19,Jits_Linear_5,4,5,56,103,1000317304
5511,19,Jits_Linear_5,0,1,48,81,1000683936
5511,19,Jits_Linear_5,1,1,48,62,1000704908
5511,19,Jits_Linear_5,2,5,56,103,1000747412
5511,19,Jits_Linear_5,3,5,80,127,1000756708
5511,19,Jits_Linear_5,4,5,63,98,1000827152
5511,19,Jits_Linear_5,0,1,48,76,1001236128
5511,19,Jits_Linear_5,1,1,48,55,1001259332
5511,19,Jits_Linear_5,2,5,56,103,1001287252
5511,19,Jits_Linear_5,3,5,63,98,1001306444
5511,19,Jits_Linear_5,4,5,80,127,1001367040
5511,19,Jits_Linear_5,0,1,48,78,1001756164
5511,19,Jits_Linear_5,1,5,80,127,1001816304
5511,19,Jits_Linear_5,2,5,63,98,1001887096
5511,19,Jits_Linear_5,3,5,56,103,1001906508
5511,19,Jits_Linear_5,0,1,48,83,1002321200
5511,19,Jits_Linear_5,1,1,48,62,1002345840
5511,19,Jits_Linear_5,2,5,80,127,1002376656
5511,19,Jits_Linear_5,3,5,56,103,1002387000
5511,19,Jits_Linear_5,4,5,63,98,1002397196
5511,19,Jits_Linear_5,0,1,48,86,1002841388
5511,19,Jits_Linear_5,1,1,48,59,1002868868
5511,19,Jits_Linear_5,2,5,80,127,1002907028
5511,19,Jits_Linear_5,3,5,56,103,1002926592
5511,19,Jits_Linear_5,4,5,63,98,1002997008
5511,19,Jits_Linear_5,0,1,48,82,1003365484
5511,19,Jits_Linear_5,1,1,48,62,1003388308
5511,19,Jits_Linear_5,2,5,56,103,1003456816
5511,19,Jits_Linear_5,3,5,80,127,1003486552
5511,19,Jits_Linear_5,4,5,63,98,1003507012
5511,19,Jits_Linear_5,0,1,48,89,1003917060
5511,19,Jits_Linear_5,1,1,38,19,1003927004
5511,19,Jits_Linear_5,2,1,48,59,1003940316
5511,19,Jits_Linear_5,3,5,63,98,1003996464
5511,19,Jits_Linear_5,4,5,56,103,1004057112
5511,19,Jits_Linear_5,5,5,80,127,1004086568
5511,19,Jits_Linear_5,0,1,48,76,1004451640
5511,19,Jits_Linear_5,1,1,48,59,1004472072
5511,19,Jits_Linear_5,2,5,63,98,1004537216
5511,19,Jits_Linear_5,3,5,80,127,1004540504
5511,19,Jits_Linear_5,4,5,56,103,1004627284
5511,19,Jits_Linear_5,0,1,48,89,1004975568
5511,19,Jits_Linear_5,1,1,48,67,1004995928
5511,19,Jits_Linear_5,2,5,56,103,1005106448
5511,19,Jits_Linear_5,3,5,63,98,1005137272
5511,19,Jits_Linear_5,4,5,80,127,1005177064
5511,19,Jits_Linear_5,0,1,48,80,1005535840
5511,19,Jits_Linear_5,1,1,48,60,1005554088
5511,19,Jits_Linear_5,2,5,63,98,1005656336
5511,19,Jits_Linear_5,3,5,56,103,1005697396
5511,19,Jits_Linear_5,4,5,80,127,1005716808
5511,19,Jits_Linear_5,0,1,48,79,1006096112
5511,19,Jits_Linear_5,1,1,48,62,1006123576
5511,19,Jits_Linear_5,2,5,63,98,1006216472
5511,19,Jits_Linear_5,3,5,56,103,1006256472
5511,19,Jits_Linear_5,4,5,80,127,1006266816
5511,19,Jits_Linear_5,0,1,48,74,1006682628
5511,19,Jits_Linear_5,1,5,80,127,1006747020
5511,19,Jits_Linear_5,2,5,63,98,1006816840
5511,19,Jits_Linear_5,3,5,56,103,1006837000
5511,19,Jits_Linear_5,0,1,48,86,1007243304
5511,19,Jits_Linear_5,1,1,48,58,1007265920
5511,19,Jits_Linear_5,2,5,56,103,1007297036
5511,19,Jits_Linear_5,3,5,80,127,1007317348
5511,19,Jits_Linear_5,4,5,63,98,1007357288
5511,19,Jits_Linear_5,0,1,48,95,1007762064
5511,19,Jits_Linear_5,1,1,48,65,1007784068
5511,19,Jits_Linear_5,2,5,63,98,1007867196
5511,19,Jits_Linear_5,3,5,80,127,1007886816
5511,19,Jits_Linear_5,4,5,56,103,1007926904
5511,19,Jits_Linear_5,0,1,48,94,1008283664
5511,19,Jits_Linear_5,1,1,48,63,1008305832
5511,19,Jits_Linear_5,2,5,63,98,1008427368
5511,19,Jits_Linear_5,3,5,56,103,1008446780
5511,19,Jits_Linear_5,4,5,80,127,1008456928
5511,19,Jits_Linear_5,0,1,48,99,1008864156
5511,19,Jits_Linear_5,1,1,48,67,1008883172
5511,19,Jits_Linear_5,2,5,80,127,1008986388
5511,19,Jits_Linear_5,3,5,56,103,1009007072
5511,19,Jits_Linear_5,4,5,63,98,1009036672
5511,19,Jits_Linear_5,0,1,48,84,1009395220
5511,19,Jits_Linear_5,1,5,56,103,1009626392
5511,19,Jits_Linear_5,2,5,80,127,1009629540
5511,19,Jits_Linear_5,3,5,63,98,1009646932
5511,19,Jits_Linear_5,0,1,48,83,1010036304
5511,19,Jits_Linear_5,1,5,63,98,1010117024
5511,19,Jits_Linear_5,2,5,56,103,1010146612
5511,19,Jits_Linear_5,3,5,80,127,1010207076
5511,19,Jits_Linear_5,0,1,48,79,1010629116
5511,19,Jits_Linear_5,1,5,63,98,1010767092
5511,19,Jits_Linear_5,2,5,56,103,1010776612
5511,19,Jits_Linear_5,3,5,80,127,1010786808
5511,19,Jits_Linear_5,0,1,48,82,1011245248
5511,19,Jits_Linear_5,1,5,56,103,1011287328
5511,19,Jits_Linear_5,2,5,80,127,1011317228
5511,19,Jits_Linear_5,3,5,63,98,1011327276
5511,19,Jits_Linear_5,0,1,48,80,1011800912
5511,19,Jits_Linear_5,1,5,63,98,1011896836
5511,19,Jits_Linear_5,2,5,56,103,1011907032
5511,19,Jits_Linear_5,3,5,80,127,1011927344
5511,19,Jits_Linear_5,0,5,56,103,1012397372
5511,19,Jits_Linear_5,1,1,48,78,1012412476
5511,19,Jits_Linear_5,2,5,63,98,1012456860
5511,19,Jits_Linear_5,3,5,80,127,1012460076
5511,19,Jits_Linear_5,0,1,48,78,1012941904
5511,19,Jits_Linear_5,1,5,80,127,1012996404
5511,19,Jits_Linear_5,2,5,56,103,1013007048
5511,19,Jits_Linear_5,3,5,63,98,1013077340
5511,19,Jits_Linear_5,0,1,48,78,1013489764
5511,19,Jits_Linear_5,1,5,80,127,1013566888
5511,19,Jits_Linear_5,2,5,56,103,1013636440
5511,19,Jits_Linear_5,3,5,63,98,1013646784
5511,19,Jits_Linear_5,0,1,48,77,1014091296
5511,19,Jits_Linear_5,1,5,63,98,1014187440
5511,19,Jits_Linear_5,2,5,56,103,1014196888
5511,19,Jits_Linear_5,3,5,80,127,1014217048
5511,19,Jits_Linear_5,0,1,48,85,1014677604
5511,19,Jits_Linear_5,1,5,80,127,1014716736
5511,19,Jits_Linear_5,2,5,63,98,1014777056
5511,19,Jits_Linear_5,3,5,56,103,1014817056
5511,19,Jits_Linear_5,0,1,48,83,1015223428
5511,19,Jits_Linear_5,1,5,56,103,1015346624
5511,19,Jits_Linear_5,2,5,63,98,1015356748
5511,19,Jits_Linear_5,3,5,80,127,1015396712
5511,19,Jits_Linear_5,0,1,48,76,1015809584
5511,19,Jits_Linear_5,1,5,56,103,1015896400
5511,19,Jits_Linear_5,2,5,80,127,1015927036
5511,19,Jits_Linear_5,3,5,63,98,1015977240
5511,19,Jits_Linear_5,0,1,48,81,1016379472
5511,19,Jits_Linear_5,1,5,56,103,1016527332
5511,19,Jits_Linear_5,2,5,63,98,1016567272
5511,19,Jits_Linear_5,3,5,80,127,1016570560
5511,19,Jits_Linear_5,0,1,48,73,1017006472
5511,19,Jits_Linear_5,1,5,56,103,1017127260
5511,19,Jits_Linear_5,2,5,63,98,1017136784
5511,19,Jits_Linear_5,3,5,80,127,1017156896
5511,19,Jits_Linear_5,0,1,48,79,1017583392
5511,19,Jits_Linear_5,1,5,56,103,1017677168
5511,19,Jits_Linear_5,2,5,80,127,1017680160
5511,19,Jits_Linear_5,3,5,63,98,1017717180
5511,19,Jits_Linear_5,0,1,48,80,1018148704
5511,19,Jits_Linear_5,1,5,63,98,1018306836
5511,19,Jits_Linear_5,2,5,56,103,1018336664
5511,19,Jits_Linear_5,3,5,80,127,1018357120
5511,19,Jits_Linear_5,0,1,48,81,1018779308
5511,19,Jits_Linear_5,1,5,80,127,1018877620
5511,19,Jits_Linear_5,2,5,56,103,1018886772
5511,19,Jits_Linear_5,3,5,63,98,1018896668
5511,19,Jits_Linear_5,0,1,48,81,1019377892
5511,19,Jits_Linear_5,1,5,56,103,1019477292
5511,19,Jits_Linear_5,2,5,80,127,1019517288
5511,19,Jits_Linear_5,3,5,63,98,1019546964
5511,19,Jits_Linear_5,0,1,48,78,1019987064
5511,19,Jits_Linear_5,1,5,63,98,1020086648
5511,19,Jits_Linear_5,2,5,80,127,1020096920
5511,19,Jits_Linear_5,3,5,56,103,1020107116
5511,19,Jits_Linear_5,0,1,48,85,1020556424
5511,19,Jits_Linear_5,1,5,56,103,1020667168
5511,19,Jits_Linear_5,2,5,63,98,1020736928
5511,19,Jits_Linear_5,3,5,80,127,1020747152
5511,19,Jits_Linear_5,0,1,48,96,1021138148
5511,19,Jits_Linear_5,1,5,80,127,1021276496
5511,19,Jits_Linear_5,2,5,56,103,1021286916
5511,19,Jits_Linear_5,3,5,63,98,1021336896
5511,19,Jits_Linear_5,0,1,48,99,1021760096
5511,19,Jits_Linear_5,1,1,48,69,1021784836
5511,19,Jits_Linear_5,2,5,80,127,1021897080
5511,19,Jits_Linear_5,3,5,56,103,1021956648
5511,19,Jits_Linear_5,4,5,63,98,1021987296
5511,19,Jits_Linear_5,0,1,48,81,1022396452
5511,19,Jits_Linear_5,1,1,48,62,1022418376
5511,19,Jits_Linear_5,2,5,56,103,1022507484
5511,19,Jits_Linear_5,3,5,80,127,1022510404
5511,19,Jits_Linear_5,4,5,63,98,1022547656
5511,19,Jits_Linear_5,0,1,48,86,1022962912
5511,19,Jits_Linear_5,1,1,48,58,1022982968
5511,19,Jits_Linear_5,2,5,56,103,1023147400
5511,19,Jits_Linear_5,3,5,63,98,1023176932
5511,19,Jits_Linear_5,4,5,80,127,1023187276
5511,19,Jits_Linear_5,0,1,48,73,1023584044
5511,19,Jits_Linear_5,1,5,63,98,1023766888
5511,19,Jits_Linear_5,2,5,80,127,1023777232
5511,19,Jits_Linear_5,3,5,56,103,1023787656
5511,19,Jits_Linear_5,0,1,48,79,1024252832
5511,19,Jits_Linear_5,1,5,80,127,1024326924
5511,19,Jits_Linear_5,2,5,56,103,1024377104
5511,19,Jits_Linear_5,3,5,63,98,1024380328
5511,19,Jits_Linear_5,0,1,48,60,1024838248
5511,19,Jits_Linear_5,1,5,56,103,1024977544
5511,19,Jits_Linear_5,2,5,80,127,1024996736
5511,19,Jits_Linear_5,3,5,63,98,1025006856
5511,19,Jits_Linear_5,0,1,48,71,1025417796
5511,19,Jits_Linear_5,1,5,63,98,1025577396
5511,19,Jits_Linear_5,2,5,56,103,1025606876
5511,19,Jits_Linear_5,3,5,80,127,1025626440
5511,19,Jits_Linear_5,0,1,48,68,1026033748
5511,19,Jits_Linear_5,1,5,56,103,1026207020
5511,19,Jits_Linear_5,2,5,80,127,1026217440
5511,19,Jits_Linear_5,3,5,63,98,1026286824
5511,19,Jits_Linear_5,0,1,48,73,1026709980
5511,19,Jits_Linear_5,1,5,63,98,1026817512
5511,19,Jits_Linear_5,2,5,80,127,1026857600
5511,19,Jits_Linear_5,3,5,56,103,1026897416
5511,19,Jits_Linear_5,0,1,48,67,1027323688
5511,19,Jits_Linear_5,1,5,56,103,1027457404
5511,19,Jits_Linear_5,2,5,63,98,1027466552
5511,19,Jits_Linear_5,3,5,80,127,1027487456
5511,19,Jits_Linear_5,0,1,48,74,1027930168
5511,19,Jits_Linear_5,1,5,63,98,1028127084
5511,19,Jits_Linear_5,2,5,80,127,1028146496
5511,19,Jits_Linear_5,3,5,56,103,1028166980
5511,19,Jits_Linear_5,0,1,48,74,1028613856
5511,19,Jits_Linear_5,1,5,56,103,1028696340
5511,19,Jits_Linear_5,2,5,80,127,1028777468
5511,19,Jits_Linear_5,3,5,63,98,1028786620
5511,19,Jits_Linear_5,0,1,48,76,1029242436
5511,19,Jits_Linear_5,1,5,80,127,1029367428
5511,19,Jits_Linear_5,2,5,63,98,1029377328
5511,19,Jits_Linear_5,3,5,56,103,1029407228
5511,19,Jits_Linear_5,0,1,48,71,1029852708
5511,19,Jits_Linear_5,1,5,63,98,1029956972
5511,19,Jits_Linear_5,2,5,80,127,1029996840
5511,19,Jits_Linear_5,3,5,56,103,1030057528
5511,19,Jits_Linear_5,0,1,48,81,1030524288
5511,19,Jits_Linear_5,1,5,63,98,1030607416
5511,19,Jits_Linear_5,2,5,56,103,1030657384
5511,19,Jits_Linear_5,3,5,80,127,1030687132
5511,19,Jits_Linear_5,0,1,48,78,1031158468
5511,19,Jits_Linear_5,1,5,80,127,1031256432
5511,19,Jits_Linear_5,2,5,63,98,1031266780
5511,19,Jits_Linear_5,3,5,56,103,1031337284
5511,19,Jits_Linear_5,0,1,48,86,1031769288
5511,19,Jits_Linear_5,1,5,80,127,1031966956
5511,19,Jits_Linear_5,2,5,56,103,1031977520
5511,19,Jits_Linear_5,3,5,63,98,1031980440
5511,19,Jits_Linear_5,0,1,48,89,1032446992
5511,19,Jits_Linear_5,1,5,56,103,1032547576
5511,19,Jits_Linear_5,2,5,80,127,1032567284
5511,19,Jits_Linear_5,3,5,63,98,1032577336
5511,19,Jits_Linear_5,0,1,48,82,1033074056
5511,19,Jits_Linear_5,1,5,63,98,1033196880
5511,19,Jits_Linear_5,2,5,56,103,1033236748
5511,19,Jits_Linear_5,3,5,80,127,1033257356
5511,19,Jits_Linear_5,0,1,48,84,1033709284
5511,19,Jits_Linear_5,1,5,63,98,1033836924
5511,19,Jits_Linear_5,2,5,56,103,1033897388
5511,19,Jits_Linear_5,3,5,80,127,1033900380
5511,19,Jits_Linear_5,0,1,48,75,1034365580
5511,19,Jits_Linear_5,1,5,56,103,1034456340
5511,19,Jits_Linear_5,2,5,80,127,1034476784
5511,19,Jits_Linear_5,3,5,63,98,1034516800
5511,19,Jits_Linear_5,0,1,48,76,1034996004
5511,19,Jits_Linear_5,1,5,56,103,1035137268
5511,19,Jits_Linear_5,2,5,63,98,1035156904
5511,19,Jits_Linear_5,3,5,80,127,1035167176
5511,19,Jits_Linear_5,0,1,48,67,1035649820
5511,19,Jits_Linear_5,1,5,80,127,1035757052
5511,19,Jits_Linear_5,2,5,56,103,1035786580
5511,19,Jits_Linear_5,3,5,63,98,1035826520
5511,19,Jits_Linear_5,0,1,48,75,1036323540
5511,19,Jits_Linear_5,1,5,80,127,1036417320
5511,19,Jits_Linear_5,2,5,56,103,1036436956
5511,19,Jits_Linear_5,3,5,63,98,1036497348
5511,19,Jits_Linear_5,0,1,48,81,1036953168
5511,19,Jits_Linear_5,1,5,56,103,1037077036
5511,19,Jits_Linear_5,2,5,80,127,1037097272
5511,19,Jits_Linear_5,3,5,63,98,1037156716
5511,19,Jits_Linear_5,0,1,48,71,1037573020
5511,19,Jits_Linear_5,1,5,80,127,1037716776
5511,19,Jits_Linear_5,2,5,56,103,1037727268
5511,19,Jits_Linear_5,3,5,63,98,1037767136
5511,19,Jits_Linear_5,0,1,48,76,1038209836
5511,19,Jits_Linear_5,1,5,63,98,1038377388
5511,19,Jits_Linear_5,2,5,56,103,1038417200
5511,19,Jits_Linear_5,3,5,80,127,1038420268
5511,19,Jits_Linear_5,0,1,48,73,1038889696
5511,19,Jits_Linear_5,1,5,63,98,1039057344
5511,19,Jits_Linear_5,2,5,80,127,1039097136
5511,19,Jits_Linear_5,3,5,56,103,1039127184
5511,19,Jits_Linear_5,0,1,48,72,1039587204
5511,19,Jits_Linear_5,1,5,56,103,1039706500
5511,19,Jits_Linear_5,2,5,63,98,1039716920
5511,19,Jits_Linear_5,3,5,80,127,1039746520
5511,19,Jits_Linear_5,0,1,48,75,1040270444
5511,19,Jits_Linear_5,1,5,80,127,1040367112
5511,19,Jits_Linear_5,2,5,63,98,1040436724
5511,19,Jits_Linear_5,3,5,56,103,1040447068
5511,19,Jits_Linear_5,0,1,48,76,1040942816
5511,19,Jits_Linear_5,1,1,48,58,1040962204
5511,19,Jits_Linear_5,2,5,63,98,1041036640
5511,19,Jits_Linear_5,3,5,56,103,1041107280
5511,19,Jits_Linear_5,4,5,80,127,1041116432
5511,19,Jits_Linear_5,0,1,48,72,1041673984
5511,19,Jits_Linear_5,1,5,63,98,1041707440
5511,19,Jits_Linear_5,2,5,56,103,1041726924
5511,19,Jits_Linear_5,3,5,80,127,1041767996
5511,19,Jits_Linear_5,0,1,48,79,1042266156
5511,19,Jits_Linear_5,1,1,48,61,1042285312
5511,19,Jits_Linear_5,2,5,56,103,1042387296
5511,19,Jits_Linear_5,3,5,63,98,1042396444
5511,19,Jits_Linear_5,4,5,80,127,1042477512
5511,19,Jits_Linear_5,0,1,48,74,1042922764
5511,19,Jits_Linear_5,1,5,63,98,1043046732
5511,19,Jits_Linear_5,2,5,56,103,1043076336
5511,19,Jits_Linear_5,3,5,80,127,1043117544
5511,19,Jits_Linear_5,0,1,48,79,1043583324
5511,19,Jits_Linear_5,1,1,48,55,1043604824
5511,19,Jits_Linear_5,2,5,56,103,1043716392
5511,19,Jits_Linear_5,3,5,63,98,1043757308
5511,19,Jits_Linear_5,4,5,80,127,1043797420
5511,19,Jits_Linear_5,0,1,48,77,1044300584
5511,19,Jits_Linear_5,1,1,48,60,1044319968
5511,19,Jits_Linear_5,2,5,80,127,1044397400
5511,19,Jits_Linear_5,3,5,56,103,1044477256
5511,19,Jits_Linear_5,4,5,63,98,1044486480
5511,19,Jits_Linear_5,0,1,48,79,1044938780
5511,19,Jits_Linear_5,1,1,48,59,1044958612
5511,19,Jits_Linear_5,2,5,56,103,1045117184
5511,19,Jits_Linear_5,3,5,63,98,1045120332
5511,19,Jits_Linear_5,4,5,80,127,1045126412
5511,19,Jits_Linear_5,0,1,48,74,1045642228
5511,19,Jits_Linear_5,1,5,56,103,1045817124
5511,19,Jits_Linear_5,2,5,63,98,1045837164
5511,19,Jits_Linear_5,3,5,80,127,1045847360
5511,19,Jits_Linear_5,0,1,48,76,1046333648
5511,19,Jits_Linear_5,1,5,63,98,1046457092
5511,19,Jits_Linear_5,2,5,80,127,1046467136
5511,19,Jits_Linear_5,3,5,56,103,1046487376
5511,19,Jits_Linear_5,0,1,48,79,1047007484
5511,19,Jits_Linear_5,1,1,48,59,1047027312
5511,19,Jits_Linear_5,2,5,63,98,1047147152
5511,19,Jits_Linear_5,3,5,56,103,1047226876
5511,19,Jits_Linear_5,4,5,80,127,1047229944
5511,19,Jits_Linear_5,0,1,48,77,1047709968
5511,19,Jits_Linear_5,1,5,63,98,1047837132
5511,19,Jits_Linear_5,2,5,56,103,1047856620
5511,19,Jits_Linear_5,3,5,80,127,1047887144
5511,19,Jits_Linear_5,0,1,48,77,1048399828
5511,19,Jits_Linear_5,1,5,56,103,1048527292
5511,19,Jits_Linear_5,2,5,63,98,1048546632
5511,19,Jits_Linear_5,3,5,80,127,1048556976
5511,19,Jits_Linear_5,0,1,48,76,1049109744
5511,19,Jits_Linear_5,1,5,56,103,1049246968
5511,19,Jits_Linear_5,2,5,63,98,1049276868
5511,19,Jits_Linear_5,3,5,80,127,1049280308
5511,19,Jits_Linear_5,0,1,48,69,1049753956
5511,19,Jits_Linear_5,1,5,56,103,1049887048
5511,19,Jits_Linear_5,2,5,63,98,1049927012
5511,19,Jits_Linear_5,3,5,80,127,1049986356
5511,19,Jits_Linear_5,0,1,48,89,1050454620
5511,19,Jits_Linear_5,1,1,48,64,1050474288
5511,19,Jits_Linear_5,2,5,56,103,1050596888
5511,19,Jits_Linear_5,3,5,63,98,1050607084
5511,19,Jits_Linear_5,4,5,80,127,1050667404
5511,19,Jits_Linear_5,0,1,48,78,1051172064
5511,19,Jits_Linear_5,1,5,56,103,1051297008
5511,19,Jits_Linear_5,2,5,80,127,1051316720
5511,19,Jits_Linear_5,3,5,63,98,1051347296
5511,19,Jits_Linear_5,0,1,48,79,1051851656
5511,19,Jits_Linear_5,1,5,80,127,1051996680
5511,19,Jits_Linear_5,2,5,56,103,1052006804
5511,19,Jits_Linear_5,3,5,63,98,1052027192
5511,19,Jits_Linear_5,0,1,48,77,1052525564
5511,19,Jits_Linear_5,1,5,63,98,1052686812
5511,19,Jits_Linear_5,2,5,80,127,1052766564
5511,19,Jits_Linear_5,3,5,56,103,1052776984
5511,19,Jits_Linear_5,0,1,48,77,1053331852
5511,19,Jits_Linear_5,1,5,80,127,1053446732
5511,19,Jits_Linear_5,2,5,56,103,1053467040
5511,19,Jits_Linear_5,3,5,63,98,1053470108
5511,19,Jits_Linear_5,0,1,48,87,1054067268
5511,19,Jits_Linear_5,1,1,48,62,1054087704
5511,19,Jits_Linear_5,2,5,63,98,1054126460
5511,19,Jits_Linear_5,3,5,80,127,1054129828
5511,19,Jits_Linear_5,4,5,56,103,1054186836
5511,19,Jits_Linear_5,0,1,48,86,1054789908
5511,19,Jits_Linear_5,1,1,48,60,1054811464
5511,19,Jits_Linear_5,2,5,56,103,1054816812
5511,19,Jits_Linear_5,3,5,80,127,1054826860
5511,19,Jits_Linear_5,4,5,63,98,1054866876
5511,19,Jits_Linear_5,0,1,48,90,1055426896
5511,19,Jits_Linear_5,1,1,48,65,1055445832
5511,19,Jits_Linear_5,2,5,56,103,1055506768
5511,19,Jits_Linear_5,3,5,63,98,1055567320
5511,19,Jits_Linear_5,4,5,80,127,1055576396
5511,19,Jits_Linear_5,0,1,48,85,1056084568
5511,19,Jits_Linear_5,1,1,48,55,1056108532
5511,19,Jits_Linear_5,2,5,63,98,1056226780
5511,19,Jits_Linear_5,3,5,80,127,1056266868
5511,19,Jits_Linear_5,4,5,56,103,1056306660
5511,19,Jits_Linear_5,0,1,48,78,1056776036
5511,19,Jits_Linear_5,1,1,48,55,1056805540
5511,19,Jits_Linear_5,2,5,56,103,1056937440
5511,19,Jits_Linear_5,3,5,63,98,1057017164
5511,19,Jits_Linear_5,4,5,80,127,1057020600
5511,19,Jits_Linear_5,0,1,48,90,1057428244
5511,19,Jits_Linear_5,1,1,48,59,1057449276
5511,19,Jits_Linear_5,2,5,80,127,1057707360
5511,19,Jits_Linear_5,3,5,56,103,1057737108
5511,19,Jits_Linear_5,4,5,63,98,1057740028
5511,19,Jits_Linear_5,0,1,48,90,1058196600
5511,19,Jits_Linear_5,1,5,56,103,1058387316
5511,19,Jits_Linear_5,2,5,80,127,1058406880
5511,19,Jits_Linear_5,3,5,63,98,1058446596
5511,19,Jits_Linear_5,0,1,48,87,1058885712
5511,19,Jits_Linear_5,1,1,48,64,1058913096
5511,19,Jits_Linear_5,2,5,80,127,1059086868
5511,19,Jits_Linear_5,3,5,63,98,1059107180
5511,19,Jits_Linear_5,4,5,56,103,1059166772
5511,19,Jits_Linear_5,0,1,48,77,1059579848
5511,19,Jits_Linear_5,1,1,48,59,1059602456
5511,19,Jits_Linear_5,2,5,63,98,1059816860
5511,19,Jits_Linear_5,3,5,56,103,1059826980
5511,19,Jits_Linear_5,4,5,80,127,1059877256
5511,19,Jits_Linear_5,0,1,48,80,1060248928
5511,19,Jits_Linear_5,1,1,48,61,1060270852
5511,19,Jits_Linear_5,2,5,56,103,1060526396
5511,19,Jits_Linear_5,3,5,63,98,1060546928
5511,19,Jits_Linear_5,4,5,80,127,1060557200
5511,19,Jits_Linear_5,0,1,48,68,1060949168
5511,19,Jits_Linear_5,1,5,56,103,1061247248
5511,19,Jits_Linear_5,2,5,63,98,1061250692
5511,19,Jits_Linear_5,3,5,80,127,1061266888
5511,19,Jits_Linear_5,0,1,48,62,1061694956
5511,19,Jits_Linear_5,1,5,63,98,1062017344
5511,19,Jits_Linear_5,2,5,56,103,1062047092
5511,19,Jits_Linear_5,3,5,80,127,1062076696
5511,19,Jits_Linear_5,0,1,48,90,1062395388
5511,19,Jits_Linear_5,1,1,48,67,1062418564
5511,19,Jits_Linear_5,2,5,80,127,1062706612
5511,19,Jits_Linear_5,3,5,56,103,1062796772
5511,19,Jits_Linear_5,4,5,63,98,1062799764
5511,19,Jits_Linear_5,5,1,48,87,1063096884
5511,19,Jits_Linear_5,0,1,48,65,1063133096
5511,19,Jits_Linear_5,1,5,56,103,1063436544
5511,19,Jits_Linear_5,2,5,80,127,1063439692
5511,19,Jits_Linear_5,3,5,63,98,1063516520
5511,19,Jits_Linear_5,4,1,48,88,1063756772
5511,19,Jits_Linear_5,5,1,48,59,1063782888
5511,19,Jits_Linear_5,0,5,80,127,1064166744
5511,19,Jits_Linear_5,1,5,63,98,1064227288
5511,19,Jits_Linear_5,2,5,56,103,1064256964
5511,19,Jits_Linear_5,3,1,48,76,1064531520
5511,19,Jits_Linear_5,4,1,48,58,1064556232
5511,19,Jits_Linear_5,0,5,63,98,1064896804
5511,19,Jits_Linear_5,1,5,80,127,1064907072
5511,19,Jits_Linear_5,2,5,56,103,1064976680
5511,19,Jits_Linear_5,3,1,48,85,1065300184
5511,19,Jits_Linear_5,0,1,48,60,1065326988
5511,19,Jits_Linear_5,1,5,56,103,1065646572
5511,19,Jits_Linear_5,2,5,80,127,1065677220
5511,19,Jits_Linear_5,3,5,63,98,1065727276
5511,19,Jits_Linear_5,4,1,48,81,1066015552
5511,19,Jits_Linear_5,5,1,48,53,1066052176
5511,19,Jits_Linear_5,0,5,63,98,1066426676
5511,19,Jits_Linear_5,1,5,56,103,1066456572
5511,19,Jits_Linear_5,2,5,80,127,1066459492
5511,19,Jits_Linear_5,3,1,48,79,1066718700
5511,19,Jits_Linear_5,4,1,48,56,1066747892
5511,19,Jits_Linear_5,0,5,63,98,1067177412
5511,19,Jits_Linear_5,1,5,80,127,1067196748
5511,19,Jits_Linear_5,2,5,56,103,1067207020
5511,19,Jits_Linear_5,3,1,48,59,1067470564
5511,19,Jits_Linear_5,0,5,56,103,1067926832
5511,19,Jits_Linear_5,1,5,63,98,1067929752
5511,19,Jits_Linear_5,2,5,80,127,1067947664
5511,19,Jits_Linear_5,3,1,48,79,1068201920
5511,19,Jits_Linear_5,4,1,48,59,1068222504
5511,19,Jits_Linear_5,0,5,56,103,1068627608
5511,19,Jits_Linear_5,1,5,63,98,1068636464
5511,19,Jits_Linear_5,2,5,80,127,1068667260
5511,19,Jits_Linear_5,3,1,48,62,1068913872
5511,19,Jits_Linear_5,0,5,63,98,1069397572
5511,19,Jits_Linear_5,1,5,80,127,1069416764
5511,19,Jits_Linear_5,2,5,56,103,1069456704
5511,19,Jits_Linear_5,3,1,48,72,1069706324
5511,19,Jits_Linear_5,4,1,48,54,1069727200
5511,19,Jits_Linear_5,0,5,56,103,1070176716
5511,19,Jits_Linear_5,1,5,63,98,1070216508
5511,19,Jits_Linear_5,2,5,80,127,1070219872
5511,19,Jits_Linear_5,3,1,48,79,1070522300
5511,19,Jits_Linear_5,0,1,48,61,1070545684
5511,19,Jits_Linear_5,1,5,80,127,1070866732
5511,19,Jits_Linear_5,2,5,56,103,1070906672
5511,19,Jits_Linear_5,3,5,63,98,1070956900
5511,19,Jits_Linear_5,4,1,48,81,1071259476
5511,19,Jits_Linear_5,5,1,48,63,1071280508
5511,19,Jits_Linear_5,0,5,56,103,1071676728
5511,19,Jits_Linear_5,1,5,80,127,1071686876
5511,19,Jits_Linear_5,2,5,63,98,1071716700
5511,19,Jits_Linear_5,0,1,48,73,1072055420
5511,19,Jits_Linear_5,1,1,48,58,1072075696
5511,19,Jits_Linear_5,2,5,56,103,1072377380
5511,19,Jits_Linear_5,3,5,80,127,1072417100
5511,19,Jits_Linear_5,4,5,63,98,1072467476
5511,19,Jits_Linear_5,0,1,48,67,1072852232
5511,19,Jits_Linear_5,1,5,56,103,1073136916
5511,19,Jits_Linear_5,2,5,80,127,1073176932
5511,19,Jits_Linear_5,3,5,63,98,1073227084
5511,19,Jits_Linear_5,0,1,48,74,1073682192
5511,19,Jits_Linear_5,1,5,80,127,1073886488
5511,19,Jits_Linear_5,2,5,63,98,1073966436
5511,19,Jits_Linear_5,3,5,56,103,1073976632
5511,19,Jits_Linear_5,0,1,48,63,1074600304
5511,19,Jits_Linear_5,1,1,48,47,1074624944
5511,19,Jits_Linear_5,2,5,80,127,1074696440
5511,19,Jits_Linear_5,3,5,56,103,1074706712
5511,19,Jits_Linear_5,4,5,63,98,1074727380
5511,19,Jits_Linear_5,0,1,48,64,1075364084
5511,19,Jits_Linear_5,1,5,63,98,1075426608
5511,19,Jits_Linear_5,2,5,56,103,1075497320
5511,19,Jits_Linear_5,3,5,80,127,1075500388
5511,19,Jits_Linear_5,0,1,48,65,1076122184
5511,19,Jits_Linear_5,1,5,80,127,1076186432
5511,19,Jits_Linear_5,2,5,63,98,1076236624
5511,19,Jits_Linear_5,3,5,56,103,1076276560
5511,19,Jits_Linear_5,0,5,63,98,1076996400
5511,19,Jits_Linear_5,1,5,56,103,1077037388
5511,19,Jits_Linear_5,2,5,80,127,1077046612
5511,19,Jits_Linear_5,3,1,48,64,1077200628
5511,19,Jits_Linear_5,0,5,63,98,1077757360
5511,19,Jits_Linear_5,1,1,48,67,1077763020
5511,19,Jits_Linear_5,2,5,56,103,1077776696
5511,19,Jits_Linear_5,3,1,48,52,1077784432
5511,19,Jits_Linear_5,4,5,80,127,1077797284
5511,19,Jits_Linear_5,0,1,48,71,1078392608
5511,19,Jits_Linear_5,1,5,80,127,1078487348
5511,19,Jits_Linear_5,2,5,56,103,1078496556
5511,19,Jits_Linear_5,3,5,63,98,1078517312
5511,19,Jits_Linear_5,0,1,48,75,1079033208
5511,19,Jits_Linear_5,1,1,48,61,1079050348
5511,19,Jits_Linear_5,2,5,63,98,1079287152
5511,19,Jits_Linear_5,3,5,56,103,1079327244
5511,19,Jits_Linear_5,4,5,80,127,1079356696
5511,19,Jits_Linear_5,0,1,48,65,1079807488
5511,19,Jits_Linear_5,1,5,56,103,1080066392
5511,19,Jits_Linear_5,2,5,63,98,1080097416
5511,19,Jits_Linear_5,3,5,80,127,1080126792
5511,19,Jits_Linear_5,0,1,48,62,1080541248
5511,19,Jits_Linear_5,1,5,80,127,1080817164
5511,19,Jits_Linear_5,2,5,56,103,1080886700
5511,19,Jits_Linear_5,3,5,63,98,1080889616
5511,19,Jits_Linear_5,0,1,48,61,1081342724
5511,19,Jits_Linear_5,1,5,56,103,1081606588
5511,19,Jits_Linear_5,2,5,63,98,1081656716
5511,19,Jits_Linear_5,3,5,80,127,1081687464
5511,19,Jits_Linear_5,0,1,48,59,1082132984
5511,19,Jits_Linear_5,1,5,63,98,1082367468
5511,19,Jits_Linear_5,2,5,80,127,1082370612
5511,19,Jits_Linear_5,3,5,56,103,1082426740
5511,19,Jits_Linear_5,0,1,48,62,1082841112
5511,19,Jits_Linear_5,1,5,56,103,1083177268
5511,19,Jits_Linear_5,2,5,80,127,1083186492
5511,19,Jits_Linear_5,3,5,63,98,1083236644
5511,19,Jits_Linear_5,0,1,48,66,1083613824
5511,19,Jits_Linear_5,1,1,48,46,1083660788
5511,19,Jits_Linear_5,2,5,63,98,1083937080
5511,19,Jits_Linear_5,3,5,56,103,1083947428
5511,19,Jits_Linear_5,4,5,80,127,1083977352
5511,19,Jits_Linear_5,0,1,48,51,1084388412
5511,19,Jits_Linear_5,1,5,63,98,1084757300
5511,19,Jits_Linear_5,2,5,80,127,1084760668
5511,19,Jits_Linear_5,3,5,56,103,1084787200
5511,19,Jits_Linear_5,0,1,48,61,1085243804
5511,19,Jits_Linear_5,1,1,48,22,1085321584
5511,19,Jits_Linear_5,2,5,63,98,1085567308
5511,19,Jits_Linear_5,3,5,56,103,1085586868
5511,19,Jits_Linear_5,4,5,80,127,1085590156
5511,19,Jits_Linear_5,0,1,48,59,1086040572
5511,19,Jits_Linear_5,1,5,63,98,1086317088
5511,19,Jits_Linear_5,2,5,56,103,1086386628
5511,19,Jits_Linear_5,3,5,80,127,1086407236
5511,19,Jits_Linear_5,0,1,48,61,1086844908
5511,19,Jits_Linear_5,1,5,56,103,1087097156
5511,19,Jits_Linear_5,2,5,63,98,1087106308
5511,19,Jits_Linear_5,3,5,80,127,1087196444
5511,19,Jits_Linear_5,0,1,48,59,1087574344
5511,19,Jits_Linear_5,1,5,56,103,1087907264
5511,19,Jits_Linear_5,2,5,80,127,1087947132
5511,19,Jits_Linear_5,3,5,63,98,1087957328
5511,19,Jits_Linear_5,0,1,48,60,1088377772
5511,19,Jits_Linear_5,1,1,48,30,1088452972
5511,19,Jits_Linear_5,2,5,56,103,1088727468
5511,19,Jits_Linear_5,3,5,63,98,1088757072
5511,19,Jits_Linear_5,4,5,80,127,1088787044
5511,19,Jits_Linear_5,5,1,48,55,1089061304
5511,19,Jits_Linear_5,6,1,48,32,1089122512
5511,19,Jits_Linear_5,0,5,80,127,1089487188
5511,19,Jits_Linear_5,1,5,63,98,1089527128
5511,19,Jits_Linear_5,2,5,56,103,1089546540
5511,19,Jits_Linear_5,3,1,48,60,1089863220
5511,19,Jits_Linear_5,0,5,56,103,1090326976
5511,19,Jits_Linear_5,1,5,80,127,1090347512
5511,19,Jits_Linear_5,2,5,63,98,1090366928
5511,19,Jits_Linear_5,3,1,48,59,1090637172
5511,19,Jits_Linear_5,4,1,48,42,1090669812
5511,19,Jits_Linear_5,0,5,63,98,1091097068
5511,19,Jits_Linear_5,1,5,56,103,1091107116
5511,19,Jits_Linear_5,2,5,80,127,1091166708
5511,19,Jits_Linear_5,3,1,48,61,1091389632
5511,19,Jits_Linear_5,0,5,56,103,1091907124
5511,19,Jits_Linear_5,1,5,63,98,1091976588
5511,19,Jits_Linear_5,2,5,80,127,1091996976
5511,19,Jits_Linear_5,3,1,48,63,1092211076
5511,19,Jits_Linear_5,0,5,56,103,1092716876
5511,19,Jits_Linear_5,1,5,63,98,1092746552
5511,19,Jits_Linear_5,2,5,80,127,1092786496
5511,19,Jits_Linear_5,3,1,48,56,1093034452
5511,19,Jits_Linear_5,0,5,63,98,1093516588
5511,19,Jits_Linear_5,1,5,56,103,1093566940
5511,19,Jits_Linear_5,2,5,80,127,1093576988
5511,19,Jits_Linear_5,3,1,48,69,1093790712
5511,19,Jits_Linear_5,4,1,48,28,1093874072
5511,19,Jits_Linear_5,0,5,56,103,1094366660
5511,19,Jits_Linear_5,1,5,63,98,1094416940
5511,19,Jits_Linear_5,2,5,80,127,1094426988
5511,19,Jits_Linear_5,3,1,48,60,1094685592
5511,19,Jits_Linear_5,0,5,56,103,1095146948
5511,19,Jits_Linear_5,1,5,63,98,1095157296
5511,19,Jits_Linear_5,2,5,80,127,1095237116
5511,19,Jits_Linear_5,3,1,48,57,1095513620
5511,19,Jits_Linear_5,0,9999,9999,9999,986384456
5511,19,Jits_Linear_5,1,9999,9999,9999,986864760
5511,19,Jits_Linear_5,2,9999,9999,9999,987344992
5511,19,Jits_Linear_5,3,9999,9999,9999,987824252
5511,19,Jits_Linear_5,4,9999,9999,9999,988304464
5511,19,Jits_Linear_5,5,9999,9999,9999,988794940
5511,19,Jits_Linear_5,6,9999,9999,9999,989284408
5511,19,Jits_Linear_5,7,9999,9999,9999,989774948
5511,19,Jits_Linear_5,8,9999,9999,9999,990264420
5511,19,Jits_Linear_5,9,9999,9999,9999,990754896
5511,19,Jits_Linear_5,10,9999,9999,9999,991254628
5511,19,Jits_Linear_5,11,9999,9999,9999,991754316
5511,19,Jits_Linear_5,12,9999,9999,9999,992255044
5511,19,Jits_Linear_5,13,9999,9999,9999,992754800
5511,19,Jits_Linear_5,14,9999,9999,9999,993254472
5511,19,Jits_Linear_5,15,9999,9999,9999,993764440
5511,19,Jits_Linear_5,16,9999,9999,9999,994274404
5511,19,Jits_Linear_5,17,9999,9999,9999,994784352
5511,19,Jits_Linear_5,18,9999,9999,9999,995294304
5511,19,Jits_Linear_5,19,9999,9999,9999,995804252
5511,19,Jits_Linear_5,20,9999,9999,9999,996324468
5511,19,Jits_Linear_5,21,9999,9999,9999,996844608
5511,19,Jits_Linear_5,22,9999,9999,9999,997364820
5511,19,Jits_Linear_5,23,9999,9999,9999,997885032
5511,19,Jits_Linear_5,24,9999,9999,9999,998404200
5511,19,Jits_Linear_5,25,9999,9999,9999,998934596
5511,19,Jits_Linear_5,26,9999,9999,9999,999465076
5511,19,Jits_Linear_5,27,9999,9999,9999,999994484
5511,19,Jits_Linear_5,28,9999,9999,9999,1000524884
5511,19,Jits_Linear_5,29,9999,9999,9999,1001054288
5511,19,Jits_Linear_5,30,9999,9999,9999,1001595000
5511,19,Jits_Linear_5,31,9999,9999,9999,1002134616
5511,19,Jits_Linear_5,32,9999,9999,9999,1002674288
5511,19,Jits_Linear_5,33,9999,9999,9999,1003214928
5511,19,Jits_Linear_5,34,9999,9999,9999,1003754596
5511,19,Jits_Linear_5,35,9999,9999,9999,1004304484
5511,19,Jits_Linear_5,36,9999,9999,9999,1004854396
5511,19,Jits_Linear_5,37,9999,9999,9999,1005404272
5511,19,Jits_Linear_5,38,9999,9999,9999,1005954132
5511,19,Jits_Linear_5,39,9999,9999,9999,1006505040
5511,19,Jits_Linear_5,40,9999,9999,9999,1007064136
5511,19,Jits_Linear_5,41,9999,9999,9999,1007624264
5511,19,Jits_Linear_5,42,9999,9999,9999,1008184384
5511,19,Jits_Linear_5,43,9999,9999,9999,1008744516
5511,19,Jits_Linear_5,44,9999,9999,9999,1009304636
5511,19,Jits_Linear_5,45,9999,9999,9999,1009875040
5511,19,Jits_Linear_5,46,9999,9999,9999,1010444400
5511,19,Jits_Linear_5,47,9999,9999,9999,1011014768
5511,19,Jits_Linear_5,48,9999,9999,9999,1011584060
5511,19,Jits_Linear_5,49,9999,9999,9999,1012154476
5511,19,Jits_Linear_5,50,9999,9999,9999,1012735068
5511,19,Jits_Linear_5,51,9999,9999,9999,1013314640
5511,19,Jits_Linear_5,52,9999,9999,9999,1013894220
5511,19,Jits_Linear_5,53,9999,9999,9999,1014474824
5511,19,Jits_Linear_5,54,9999,9999,9999,1015054452
5511,19,Jits_Linear_5,55,9999,9999,9999,1015644224
5511,19,Jits_Linear_5,56,9999,9999,9999,1016235088
5511,19,Jits_Linear_5,57,9999,9999,9999,1016834116
5511,19,Jits_Linear_5,58,9999,9999,9999,1017425008
5511,19,Jits_Linear_5,59,9999,9999,9999,1018014812
5511,19,Jits_Linear_5,60,9999,9999,9999,1018614896
5511,19,Jits_Linear_5,61,9999,9999,9999,1019214924
5511,19,Jits_Linear_5,62,9999,9999,9999,1019815004
5511,19,Jits_Linear_5,63,9999,9999,9999,1020415084
5511,19,Jits_Linear_5,64,9999,9999,9999,1021014144
5511,19,Jits_Linear_5,65,9999,9999,9999,1021624412
5511,19,Jits_Linear_5,66,9999,9999,9999,1022234736
5511,19,Jits_Linear_5,67,9999,9999,9999,1022844992
5511,19,Jits_Linear_5,68,9999,9999,9999,1023454264
5511,19,Jits_Linear_5,69,9999,9999,9999,1024064608
5511,19,Jits_Linear_5,70,9999,9999,9999,1024684104
5511,19,Jits_Linear_5,71,9999,9999,9999,1025304636
5511,19,Jits_Linear_5,72,9999,9999,9999,1025924216
5511,19,Jits_Linear_5,73,9999,9999,9999,1026544748
5511,19,Jits_Linear_5,74,9999,9999,9999,1027164256
5511,19,Jits_Linear_5,75,9999,9999,9999,1027795052
5511,19,Jits_Linear_5,76,9999,9999,9999,1028424832
5511,19,Jits_Linear_5,77,9999,9999,9999,1029054584
5511,19,Jits_Linear_5,78,9999,9999,9999,1029684332
5511,19,Jits_Linear_5,79,9999,9999,9999,1030315080
5511,19,Jits_Linear_5,80,9999,9999,9999,1030955096
5511,19,Jits_Linear_5,81,9999,9999,9999,1031595132
5511,19,Jits_Linear_5,82,9999,9999,9999,1032235072
5511,19,Jits_Linear_5,83,9999,9999,9999,1032875112
5511,19,Jits_Linear_5,84,9999,9999,9999,1033515128
5511,19,Jits_Linear_5,85,9999,9999,9999,1034174564
5511,19,Jits_Linear_5,86,9999,9999,9999,1034824792
5511,19,Jits_Linear_5,87,9999,9999,9999,1035475072
5511,19,Jits_Linear_5,88,9999,9999,9999,1036124252
5511,19,Jits_Linear_5,89,9999,9999,9999,1036774528
5511,19,Jits_Linear_5,90,9999,9999,9999,1037434944
5511,19,Jits_Linear_5,91,9999,9999,9999,1038094432
5511,19,Jits_Linear_5,92,9999,9999,9999,1038754908
5511,19,Jits_Linear_5,93,9999,9999,9999,1039414332
5511,19,Jits_Linear_5,94,9999,9999,9999,1040074864
5511,19,Jits_Linear_5,95,9999,9999,9999,1040744572
5511,19,Jits_Linear_5,96,9999,9999,9999,1041414208
5511,19,Jits_Linear_5,97,9999,9999,9999,1042084956
5511,19,Jits_Linear_5,98,9999,9999,9999,1042754640
5511,19,Jits_Linear_5,99,9999,9999,9999,1043424316
5511,19,Jits_Linear_5,100,9999,9999,9999,1044104264
5511,19,Jits_Linear_5,101,9999,9999,9999,1044784184
5511,19,Jits_Linear_5,102,9999,9999,9999,1045464120
5511,19,Jits_Linear_5,103,9999,9999,9999,1046144092
5511,19,Jits_Linear_5,104,9999,9999,9999,1046825084
5511,19,Jits_Linear_5,105,9999,9999,9999,1047514168
5511,19,Jits_Linear_5,106,9999,9999,9999,1048204400
5511,19,Jits_Linear_5,107,9999,9999,9999,1048894536
5511,19,Jits_Linear_5,108,9999,9999,9999,1049584760
5511,19,Jits_Linear_5,109,9999,9999,9999,1050274920
5511,19,Jits_Linear_5,110,9999,9999,9999,1050974272
5511,19,Jits_Linear_5,111,9999,9999,9999,1051674740
5511,19,Jits_Linear_5,112,9999,9999,9999,1052374116
5511,19,Jits_Linear_5,113,9999,9999,9999,1053074540
5511,19,Jits_Linear_5,114,9999,9999,9999,1053774956
5511,19,Jits_Linear_5,115,9999,9999,9999,1054484544
5511,19,Jits_Linear_5,116,9999,9999,9999,1055194232
5511,19,Jits_Linear_5,117,9999,9999,9999,1055904888
5511,19,Jits_Linear_5,118,9999,9999,9999,1056614504
5511,19,Jits_Linear_5,119,9999,9999,9999,1057324156
5511,19,Jits_Linear_5,120,9999,9999,9999,1058045000
5511,19,Jits_Linear_5,121,9999,9999,9999,1058764900
5511,19,Jits_Linear_5,122,9999,9999,9999,1059484780
5511,19,Jits_Linear_5,123,9999,9999,9999,1060204652
5511,19,Jits_Linear_5,124,9999,9999,9999,1060924500
5511,19,Jits_Linear_5,125,9999,9999,9999,1061654644
5511,19,Jits_Linear_5,126,9999,9999,9999,1062384736
5511,19,Jits_Linear_5,127,9999,9999,9999,1063114848
5511,19,Jits_Linear_5,128,9999,9999,9999,1063844988
5511,19,Jits_Linear_5,129,9999,9999,9999,1064575092
5511,19,Jits_Linear_5,130,9999,9999,9999,1065314408
5511,19,Jits_Linear_5,131,9999,9999,9999,1066054716
5511,19,Jits_Linear_5,132,9999,9999,9999,1066795080
5511,19,Jits_Linear_5,133,9999,9999,9999,1067544648
5511,19,Jits_Linear_5,134,9999,9999,9999,1068285048
5511,19,Jits_Linear_5,135,9999,9999,9999,1069034612
5511,19,Jits_Linear_5,136,9999,9999,9999,1069784120
5511,19,Jits_Linear_5,137,9999,9999,9999,1070534732
5511,19,Jits_Linear_5,138,9999,9999,9999,1071284316
5511,19,Jits_Linear_5,139,9999,9999,9999,1072034932
5511,19,Jits_Linear_5,140,9999,9999,9999,1072794700
5511,19,Jits_Linear_5,141,9999,9999,9999,1073554528
5511,19,Jits_Linear_5,142,9999,9999,9999,1074314364
5511,19,Jits_Linear_5,143,9999,9999,9999,1075074108
5511,19,Jits_Linear_5,144,9999,9999,9999,1075834980
5511,19,Jits_Linear_5,145,9999,9999,9999,1076605004
5511,19,Jits_Linear_5,146,9999,9999,9999,1077375036
5511,19,Jits_Linear_5,147,9999,9999,9999,1078144068
5511,19,Jits_Linear_5,148,9999,9999,9999,1078914160
5511,19,Jits_Linear_5,149,9999,9999,9999,1079684164
5511,19,Jits_Linear_5,150,9999,9999,9999,1080464452
5511,19,Jits_Linear_5,151,9999,9999,9999,1081244732
5511,19,Jits_Linear_5,152,9999,9999,9999,1082025024
5511,19,Jits_Linear_5,153,9999,9999,9999,1082804328
5511,19,Jits_Linear_5,154,9999,9999,9999,1083584616
5511,19,Jits_Linear_5,155,9999,9999,9999,1084374096
5511,19,Jits_Linear_5,156,9999,9999,9999,1085164616
5511,19,Jits_Linear_5,157,9999,9999,9999,1085954168
5511,19,Jits_Linear_5,158,9999,9999,9999,1086744644
5511,19,Jits_Linear_5,159,9999,9999,9999,1087534152
5511,19,Jits_Linear_5,160,9999,9999,9999,1088334916
5511,19,Jits_Linear_5,161,9999,9999,9999,1089134716
5511,19,Jits_Linear_5,162,9999,9999,9999,1089934460
5511,19,Jits_Linear_5,163,9999,9999,9999,1090734152
5511,19,Jits_Linear_5,164,9999,9999,9999,1091534960
5511,19,Jits_Linear_5,165,9999,9999,9999,1092344924
5511,19,Jits_Linear_5,166,9999,9999,9999,1093154896
5511,19,Jits_Linear_5,167,9999,9999,9999,1093964888
5511,19,Jits_Linear_5,168,9999,9999,9999,1094774900
5511,19,Jits_Linear_5,169,9999,9999,9999,1095584860
5512,18,Jits_Linear_8,0,5,56,103,1105451532
5512,18,Jits_Linear_8,1,5,63,98,1105454708
5512,18,Jits_Linear_8,2,5,80,127,1105457828
5512,18,Jits_Linear_8,0,1,48,27,1106219316
5512,18,Jits_Linear_8,1,5,56,103,1106270592
5512,18,Jits_Linear_8,2,5,63,98,1106273612
5512,18,Jits_Linear_8,3,5,80,127,1106276660
5512,18,Jits_Linear_8,0,1,48,52,1106961200
5512,18,Jits_Linear_8,1,5,80,127,1107031528
5512,18,Jits_Linear_8,2,5,63,98,1107120452
5512,18,Jits_Linear_8,3,5,56,103,1107130724
5512,18,Jits_Linear_8,0,1,48,48,1107754352
5512,18,Jits_Linear_8,1,5,56,103,1107881536
5512,18,Jits_Linear_8,2,5,63,98,1107890536
5512,18,Jits_Linear_8,3,5,80,127,1107980744
5512,18,Jits_Linear_8,0,1,48,62,1108510804
5512,18,Jits_Linear_8,1,5,63,98,1108670724
5512,18,Jits_Linear_8,2,5,80,127,1108700476
5512,18,Jits_Linear_8,3,5,56,103,1108731196
5512,18,Jits_Linear_8,0,1,48,53,1109366456
5512,18,Jits_Linear_8,1,5,56,103,1109491000
5512,18,Jits_Linear_8,2,5,80,127,1109591572
5512,18,Jits_Linear_8,3,5,63,98,1109640580
5512,18,Jits_Linear_8,0,1,48,55,1110174232
5512,18,Jits_Linear_8,1,1,48,33,1110216840
5512,18,Jits_Linear_8,2,5,56,103,1110300936
5512,18,Jits_Linear_8,3,5,80,127,1110351300
5512,18,Jits_Linear_8,4,5,63,98,1110391240
5512,18,Jits_Linear_8,0,1,48,56,1110963468
5512,18,Jits_Linear_8,1,5,80,127,1111140700
5512,18,Jits_Linear_8,2,5,63,98,1111170604
5512,18,Jits_Linear_8,3,5,56,103,1111241108
5512,18,Jits_Linear_8,0,1,48,42,1111827348
5512,18,Jits_Linear_8,1,5,63,98,1111981516
5512,18,Jits_Linear_8,2,5,56,103,1112011340
5512,18,Jits_Linear_8,3,5,80,127,1112070384
5512,18,Jits_Linear_8,0,1,48,36,1112562528
5512,18,Jits_Linear_8,1,5,56,103,1112730996
5512,18,Jits_Linear_8,2,5,80,127,1112734136
5512,18,Jits_Linear_8,3,5,63,98,1112850796
5512,18,Jits_Linear_8,0,1,48,47,1113387884
5512,18,Jits_Linear_8,1,5,56,103,1113610536
5512,18,Jits_Linear_8,2,5,80,127,1113650476
5512,18,Jits_Linear_8,3,5,63,98,1113660744
5512,18,Jits_Linear_8,0,1,48,56,1114270324
5512,18,Jits_Linear_8,1,5,56,103,1114370584
5512,18,Jits_Linear_8,2,5,80,127,1114390896
5512,18,Jits_Linear_8,3,5,63,98,1114470716
5512,18,Jits_Linear_8,0,1,48,53,1115115324
5512,18,Jits_Linear_8,1,5,80,127,1115160988
5512,18,Jits_Linear_8,2,1,48,25,1115175552
5512,18,Jits_Linear_8,3,5,56,103,1115261464
5512,18,Jits_Linear_8,4,5,63,98,1115270452
5512,18,Jits_Linear_8,0,1,48,53,1115896928
5512,18,Jits_Linear_8,1,5,63,98,1115930976
5512,18,Jits_Linear_8,2,5,80,127,1115991604
5512,18,Jits_Linear_8,3,5,56,103,1116000604
5512,18,Jits_Linear_8,0,1,48,65,1116658532
5512,18,Jits_Linear_8,1,5,56,103,1116730872
5512,18,Jits_Linear_8,2,1,48,19,1116751388
5512,18,Jits_Linear_8,3,5,63,98,1116801384
5512,18,Jits_Linear_8,4,5,80,127,1116804824
5512,18,Jits_Linear_8,0,1,48,65,1117466568
5512,18,Jits_Linear_8,1,1,48,31,1117560340
5512,18,Jits_Linear_8,2,5,63,98,1117561608
5512,18,Jits_Linear_8,3,5,56,103,1117611440
5512,18,Jits_Linear_8,4,5,80,127,1117614580
5512,18,Jits_Linear_8,0,1,48,65,1118248524
5512,18,Jits_Linear_8,1,5,56,103,1118310700
5512,18,Jits_Linear_8,2,5,80,127,1118313768
5512,18,Jits_Linear_8,3,5,63,98,1118400816
5512,18,Jits_Linear_8,0,1,48,65,1118986596
5512,18,Jits_Linear_8,1,5,63,98,1119141432
5512,18,Jits_Linear_8,2,5,56,103,1119231420
5512,18,Jits_Linear_8,3,5,80,127,1119261244
5512,18,Jits_Linear_8,0,1,48,65,1119855312
5512,18,Jits_Linear_8,1,5,56,103,1119920532
5512,18,Jits_Linear_8,2,5,63,98,1120020844
5512,18,Jits_Linear_8,3,5,80,127,1120050444
5512,18,Jits_Linear_8,0,1,48,66,1120675452
5512,18,Jits_Linear_8,1,5,63,98,1120730556
5512,18,Jits_Linear_8,2,5,56,103,1120740900
5512,18,Jits_Linear_8,3,5,80,127,1120830820
5512,18,Jits_Linear_8,0,1,48,69,1121530764
5512,18,Jits_Linear_8,1,5,63,98,1121532404
5512,18,Jits_Linear_8,2,5,56,103,1121611328
5512,18,Jits_Linear_8,3,5,80,127,1121614396
5512,18,Jits_Linear_8,0,5,80,127,1122270504
5512,18,Jits_Linear_8,1,5,63,98,1122291188
5512,18,Jits_Linear_8,2,1,48,66,1122350384
5512,18,Jits_Linear_8,3,5,56,103,1122351720
5512,18,Jits_Linear_8,0,1,48,66,1123058316
5512,18,Jits_Linear_8,1,5,56,103,1123090720
5512,18,Jits_Linear_8,2,5,63,98,1123111328
5512,18,Jits_Linear_8,3,5,80,127,1123114540
5512,18,Jits_Linear_8,4,1,48,32,1123134132
5512,18,Jits_Linear_8,0,1,48,71,1123784744
5512,18,Jits_Linear_8,1,5,63,98,1123810700
5512,18,Jits_Linear_8,2,5,80,127,1123890632
5512,18,Jits_Linear_8,3,5,56,103,1123901200
5512,18,Jits_Linear_8,0,1,48,68,1124482360
5512,18,Jits_Linear_8,1,5,63,98,1124610416
5512,18,Jits_Linear_8,2,5,56,103,1124631024
5512,18,Jits_Linear_8,3,5,80,127,1124681100
5512,18,Jits_Linear_8,0,1,48,77,1125227404
5512,18,Jits_Linear_8,1,5,80,127,1125390912
5512,18,Jits_Linear_8,2,5,63,98,1125430628
5512,18,Jits_Linear_8,3,5,56,103,1125451260
5512,18,Jits_Linear_8,0,1,48,71,1125997268
5512,18,Jits_Linear_8,1,5,56,103,1126200708
5512,18,Jits_Linear_8,2,5,63,98,1126211300
5512,18,Jits_Linear_8,3,5,80,127,1126231388
5512,18,Jits_Linear_8,0,1,48,69,1126816208
5512,18,Jits_Linear_8,1,5,56,103,1126901280
5512,18,Jits_Linear_8,2,5,63,98,1126991128
5512,18,Jits_Linear_8,3,5,80,127,1127050620
5512,18,Jits_Linear_8,0,1,48,62,1127612368
5512,18,Jits_Linear_8,1,5,80,127,1127700808
5512,18,Jits_Linear_8,2,5,56,103,1127711288
5512,18,Jits_Linear_8,3,5,63,98,1127780848
5512,18,Jits_Linear_8,0,1,48,63,1128361852
5512,18,Jits_Linear_8,1,1,48,28,1128437568
5512,18,Jits_Linear_8,2,5,63,98,1128500468
5512,18,Jits_Linear_8,3,5,80,127,1128590764
5512,18,Jits_Linear_8,4,5,56,103,1128601332
5512,18,Jits_Linear_8,0,1,48,57,1129176268
5512,18,Jits_Linear_8,1,5,63,98,1129201176
5512,18,Jits_Linear_8,2,1,48,38,1129237164
5512,18,Jits_Linear_8,3,5,80,127,1129251132
5512,18,Jits_Linear_8,4,5,56,103,1129310652
5512,18,Jits_Linear_8,0,1,48,54,1129939368
5512,18,Jits_Linear_8,1,1,48,34,1129982272
5512,18,Jits_Linear_8,2,5,56,103,1129990392
5512,18,Jits_Linear_8,3,5,80,127,1130040596
5512,18,Jits_Linear_8,4,5,63,98,1130061228
5512,18,Jits_Linear_8,0,1,48,66,1130695704
5512,18,Jits_Linear_8,1,5,56,103,1130721128
5512,18,Jits_Linear_8,2,1,48,43,1130734728
5512,18,Jits_Linear_8,3,5,80,127,1130781128
5512,18,Jits_Linear_8,4,5,63,98,1130850596
5512,18,Jits_Linear_8,0,5,56,103,1131490600
5512,18,Jits_Linear_8,1,1,48,63,1131494544
5512,18,Jits_Linear_8,2,5,80,127,1131521392
5512,18,Jits_Linear_8,3,1,48,46,1131540832
5512,18,Jits_Linear_8,4,5,63,98,1131551044
5512,18,Jits_Linear_8,0,1,48,57,1132232984
5512,18,Jits_Linear_8,1,1,48,38,1132288268
5512,18,Jits_Linear_8,2,5,56,103,1132290384
5512,18,Jits_Linear_8,3,5,80,127,1132310916
5512,18,Jits_Linear_8,4,5,63,98,1132371184
5512,18,Jits_Linear_8,0,1,48,64,1133049952
5512,18,Jits_Linear_8,1,1,48,37,1133116296
5512,18,Jits_Linear_8,2,5,80,127,1133131116
5512,18,Jits_Linear_8,3,5,56,103,1133141312
5512,18,Jits_Linear_8,4,5,63,98,1133150464
5512,18,Jits_Linear_8,0,1,48,65,1133823832
5512,18,Jits_Linear_8,1,5,56,103,1133840944
5512,18,Jits_Linear_8,2,1,48,40,1133881092
5512,18,Jits_Linear_8,3,5,80,127,1133882280
5512,18,Jits_Linear_8,4,5,63,98,1133911384
5512,18,Jits_Linear_8,0,5,56,103,1134560744
5512,18,Jits_Linear_8,1,5,63,98,1134591540
5512,18,Jits_Linear_8,2,1,48,70,1134595708
5512,18,Jits_Linear_8,3,5,80,127,1134631176
5512,18,Jits_Linear_8,0,5,80,127,1135260944
5512,18,Jits_Linear_8,1,5,63,98,1135311148
5512,18,Jits_Linear_8,2,5,56,103,1135330632
5512,18,Jits_Linear_8,3,1,48,67,1135336668
5512,18,Jits_Linear_8,0,5,56,103,1136041304
5512,18,Jits_Linear_8,1,1,48,62,1136050868
5512,18,Jits_Linear_8,2,5,80,127,1136111056
5512,18,Jits_Linear_8,3,5,63,98,1136171280
5512,18,Jits_Linear_8,0,5,80,127,1136780840
5512,18,Jits_Linear_8,1,1,48,62,1136809144
5512,18,Jits_Linear_8,2,5,63,98,1136870972
5512,18,Jits_Linear_8,3,5,56,103,1136891132
5512,18,Jits_Linear_8,0,5,63,98,1137540380
5512,18,Jits_Linear_8,1,5,56,103,1137560916
5512,18,Jits_Linear_8,2,1,48,70,1137582244
5512,18,Jits_Linear_8,3,5,80,127,1137601072
5512,18,Jits_Linear_8,0,5,80,127,1138241012
5512,18,Jits_Linear_8,1,5,63,98,1138261396
5512,18,Jits_Linear_8,2,1,48,71,1138273956
5512,18,Jits_Linear_8,3,5,56,103,1138341112
5512,18,Jits_Linear_8,0,1,48,67,1138950888
5512,18,Jits_Linear_8,1,5,63,98,1138971144
5512,18,Jits_Linear_8,2,5,56,103,1139080544
5512,18,Jits_Linear_8,3,5,80,127,1139083612
5512,18,Jits_Linear_8,0,1,48,59,1139708740
5512,18,Jits_Linear_8,1,5,63,98,1139730956
5512,18,Jits_Linear_8,2,5,56,103,1139741000
5512,18,Jits_Linear_8,3,5,80,127,1139744068
5512,18,Jits_Linear_8,0,1,48,62,1140424352
5512,18,Jits_Linear_8,1,5,56,103,1140450756
5512,18,Jits_Linear_8,2,5,80,127,1140570420
5512,18,Jits_Linear_8,3,5,63,98,1140610584
5512,18,Jits_Linear_8,0,1,48,70,1141182908
5512,18,Jits_Linear_8,1,5,56,103,1141201216
5512,18,Jits_Linear_8,2,5,80,127,1141281072
5512,18,Jits_Linear_8,3,5,63,98,1141300860
5512,18,Jits_Linear_8,0,5,56,103,1141931304
5512,18,Jits_Linear_8,1,1,48,70,1141940048
5512,18,Jits_Linear_8,2,5,63,98,1142040896
5512,18,Jits_Linear_8,3,5,80,127,1142044184
5512,18,Jits_Linear_8,0,5,56,103,1142691136
5512,18,Jits_Linear_8,1,1,48,68,1142713736
5512,18,Jits_Linear_8,2,5,80,127,1142720804
5512,18,Jits_Linear_8,3,5,63,98,1142741264
5512,18,Jits_Linear_8,4,1,48,28,1142805420
5512,18,Jits_Linear_8,0,5,63,98,1143400976
5512,18,Jits_Linear_8,1,5,56,103,1143411024
5512,18,Jits_Linear_8,2,5,80,127,1143421292
5512,18,Jits_Linear_8,3,1,48,58,1143429064
5512,18,Jits_Linear_8,0,5,80,127,1144110644
5512,18,Jits_Linear_8,1,5,56,103,1144160576
5512,18,Jits_Linear_8,2,5,63,98,1144200660
5512,18,Jits_Linear_8,3,1,48,61,1144219748
5512,18,Jits_Linear_8,0,5,80,127,1144850924
5512,18,Jits_Linear_8,1,5,63,98,1144871236
5512,18,Jits_Linear_8,2,1,48,56,1144898576
5512,18,Jits_Linear_8,3,5,56,103,1144920412
5512,18,Jits_Linear_8,0,5,80,127,1145580872
5512,18,Jits_Linear_8,1,5,56,103,1145610624
5512,18,Jits_Linear_8,2,1,48,56,1145626848
5512,18,Jits_Linear_8,3,5,63,98,1145681220
5512,18,Jits_Linear_8,4,1,48,25,1145744480
5512,18,Jits_Linear_8,0,5,56,103,1146350952
5512,18,Jits_Linear_8,1,1,48,59,1146352512
5512,18,Jits_Linear_8,2,5,80,127,1146361216
5512,18,Jits_Linear_8,3,5,63,98,1146401080
5512,18,Jits_Linear_8,4,1,48,14,1146482492
5512,18,Jits_Linear_8,0,5,56,103,1146980704
5512,18,Jits_Linear_8,1,5,63,98,1147001240
5512,18,Jits_Linear_8,2,5,80,127,1147070844
5512,18,Jits_Linear_8,3,1,48,56,1147075012
5512,18,Jits_Linear_8,0,5,63,98,1147721132
5512,18,Jits_Linear_8,1,5,80,127,1147780628
5512,18,Jits_Linear_8,2,5,56,103,1147800940
5512,18,Jits_Linear_8,3,1,48,60,1147821144
5512,18,Jits_Linear_8,4,1,48,20,1147934012
5512,18,Jits_Linear_8,0,5,80,127,1148420592
5512,18,Jits_Linear_8,1,5,56,103,1148451168
5512,18,Jits_Linear_8,2,5,63,98,1148480868
5512,18,Jits_Linear_8,3,1,48,52,1148516424
5512,18,Jits_Linear_8,4,1,48,29,1148583672
5512,18,Jits_Linear_8,0,5,56,103,1149131028
5512,18,Jits_Linear_8,1,5,63,98,1149190744
5512,18,Jits_Linear_8,2,5,80,127,1149250860
5512,18,Jits_Linear_8,3,1,48,55,1149267756
5512,18,Jits_Linear_8,0,5,80,127,1149861124
5512,18,Jits_Linear_8,1,5,56,103,1149880836
5512,18,Jits_Linear_8,2,5,63,98,1149951488
5512,18,Jits_Linear_8,3,1,48,56,1149956552
5512,18,Jits_Linear_8,0,5,80,127,1150570840
5512,18,Jits_Linear_8,1,5,63,98,1150591596
5512,18,Jits_Linear_8,2,5,56,103,1150620976
5512,18,Jits_Linear_8,3,1,48,60,1150706796
5512,18,Jits_Linear_8,4,1,48,34,1150781416
5512,18,Jits_Linear_8,0,5,80,127,1151261020
5512,18,Jits_Linear_8,1,5,63,98,1151280584
5512,18,Jits_Linear_8,2,5,56,103,1151340776
5512,18,Jits_Linear_8,3,1,48,70,1151384796
5512,18,Jits_Linear_8,0,5,80,127,1151970736
5512,18,Jits_Linear_8,1,5,56,103,1152070940
5512,18,Jits_Linear_8,2,5,63,98,1152100612
5512,18,Jits_Linear_8,3,1,48,62,1152108596
5512,18,Jits_Linear_8,4,1,48,32,1152186184
5512,18,Jits_Linear_8,0,5,63,98,1152660948
5512,18,Jits_Linear_8,1,5,80,127,1152710932
5512,18,Jits_Linear_8,2,5,56,103,1152730568
5512,18,Jits_Linear_8,3,1,48,72,1152804328
5512,18,Jits_Linear_8,0,5,80,127,1153401216
5512,18,Jits_Linear_8,1,5,56,103,1153430964
5512,18,Jits_Linear_8,2,5,63,98,1153433884
5512,18,Jits_Linear_8,3,1,48,60,1153502780
5512,18,Jits_Linear_8,0,5,63,98,1154131452
5512,18,Jits_Linear_8,1,1,48,61,1154163268
5512,18,Jits_Linear_8,2,5,56,103,1154171460
5512,18,Jits_Linear_8,3,5,80,127,1154190648
5512,18,Jits_Linear_8,0,5,80,127,1154771452
5512,18,Jits_Linear_8,1,1,48,64,1154843056
5512,18,Jits_Linear_8,2,5,63,98,1154851468
5512,18,Jits_Linear_8,3,5,56,103,1154890988
5512,18,Jits_Linear_8,0,5,63,98,1155480876
5512,18,Jits_Linear_8,1,1,48,66,1155538604
5512,18,Jits_Linear_8,2,5,80,127,1155560668
5512,18,Jits_Linear_8,3,5,56,103,1155581424
5512,18,Jits_Linear_8,4,1,48,24,1155661716
5512,18,Jits_Linear_8,0,5,56,103,1156211012
5512,18,Jits_Linear_8,1,5,63,98,1156221656
5512,18,Jits_Linear_8,2,5,80,127,1156261368
5512,18,Jits_Linear_8,3,1,48,67,1156269368
5512,18,Jits_Linear_8,0,5,56,103,1156821356
5512,18,Jits_Linear_8,1,5,80,127,1156824424
5512,18,Jits_Linear_8,2,5,63,98,1156960812
5512,18,Jits_Linear_8,3,1,48,62,1156981768
5512,18,Jits_Linear_8,0,5,56,103,1157501320
5512,18,Jits_Linear_8,1,5,63,98,1157591384
5512,18,Jits_Linear_8,2,1,48,60,1157637944
5512,18,Jits_Linear_8,3,5,80,127,1157661128
5512,18,Jits_Linear_8,4,1,48,31,1157715276
5512,18,Jits_Linear_8,0,5,63,98,1158261208
5512,18,Jits_Linear_8,1,5,80,127,1158264572
5512,18,Jits_Linear_8,2,5,56,103,1158320628
5512,18,Jits_Linear_8,3,1,48,62,1158323300
5512,18,Jits_Linear_8,4,1,48,27,1158409132
5512,18,Jits_Linear_8,0,5,80,127,1158981296
5512,18,Jits_Linear_8,1,1,48,70,1158985388
5512,18,Jits_Linear_8,2,5,56,103,1159000408
5512,18,Jits_Linear_8,3,5,63,98,1159010752
5512,18,Jits_Linear_8,0,5,56,103,1159570748
5512,18,Jits_Linear_8,1,5,63,98,1159581168
5512,18,Jits_Linear_8,2,1,48,71,1159640704
5512,18,Jits_Linear_8,3,5,80,127,1159650616
5512,18,Jits_Linear_8,0,5,80,127,1160250840
5512,18,Jits_Linear_8,1,1,48,73,1160259016
5512,18,Jits_Linear_8,2,5,56,103,1160300844
5512,18,Jits_Linear_8,3,5,63,98,1160351340
5512,18,Jits_Linear_8,0,1,48,68,1160899696
5512,18,Jits_Linear_8,1,5,56,103,1161010512
5512,18,Jits_Linear_8,2,5,63,98,1161020808
5512,18,Jits_Linear_8,3,5,80,127,1161060824
5512,18,Jits_Linear_8,0,5,56,103,1161631236
5512,18,Jits_Linear_8,1,1,48,58,1161635104
5512,18,Jits_Linear_8,2,5,63,98,1161671540
5512,18,Jits_Linear_8,3,5,80,127,1161721296
5512,18,Jits_Linear_8,0,5,80,127,1162260764
5512,18,Jits_Linear_8,1,5,56,103,1162311144
5512,18,Jits_Linear_8,2,5,63,98,1162330408
5512,18,Jits_Linear_8,3,1,48,76,1162341316
5512,18,Jits_Linear_8,0,5,80,127,1162940660
5512,18,Jits_Linear_8,1,1,48,64,1162967520
5512,18,Jits_Linear_8,2,5,63,98,1163001344
5512,18,Jits_Linear_8,3,5,56,103,1163081220
5512,18,Jits_Linear_8,0,5,80,127,1163591188
5512,18,Jits_Linear_8,1,1,48,77,1163618668
5512,18,Jits_Linear_8,2,5,56,103,1163630900
5512,18,Jits_Linear_8,3,5,63,98,1163650460
5512,18,Jits_Linear_8,0,1,48,70,1164245324
5512,18,Jits_Linear_8,1,5,56,103,1164311136
5512,18,Jits_Linear_8,2,5,80,127,1164321184
5512,18,Jits_Linear_8,3,5,63,98,1164361280
5512,18,Jits_Linear_8,0,1,48,76,1164925580
5512,18,Jits_Linear_8,1,5,56,103,1165041204
5512,18,Jits_Linear_8,2,5,63,98,1165080920
5512,18,Jits_Linear_8,3,5,80,127,1165084208
5512,18,Jits_Linear_8,0,5,63,98,1165590868
5512,18,Jits_Linear_8,1,5,80,127,1165630908
5512,18,Jits_Linear_8,2,1,48,67,1165656872
5512,18,Jits_Linear_8,3,5,56,103,1165700360
5512,18,Jits_Linear_8,0,5,63,98,1166241528
5512,18,Jits_Linear_8,1,1,48,78,1166295072
5512,18,Jits_Linear_8,2,5,56,103,1166321096
5512,18,Jits_Linear_8,3,5,80,127,1166381412
5512,18,Jits_Linear_8,0,5,80,127,1166910916
5512,18,Jits_Linear_8,1,1,48,45,1166946172
5512,18,Jits_Linear_8,2,5,63,98,1166961112
5512,18,Jits_Linear_8,3,5,56,103,1166990716
5512,18,Jits_Linear_8,0,5,56,103,1167561264
5512,18,Jits_Linear_8,1,1,48,76,1167572328
5512,18,Jits_Linear_8,2,5,63,98,1167611240
5512,18,Jits_Linear_8,3,5,80,127,1167620612
5512,18,Jits_Linear_8,0,1,48,69,1168190108
5512,18,Jits_Linear_8,1,5,56,103,1168230892
5512,18,Jits_Linear_8,2,5,63,98,1168341316
5512,18,Jits_Linear_8,3,5,80,127,1168361100
5512,18,Jits_Linear_8,0,5,63,98,1168881236
5512,18,Jits_Linear_8,1,5,80,127,1168931292
5512,18,Jits_Linear_8,2,1,48,66,1168932260
5512,18,Jits_Linear_8,3,5,56,103,1169021444
5512,18,Jits_Linear_8,0,5,63,98,1169521112
5512,18,Jits_Linear_8,1,1,48,66,1169532848
5512,18,Jits_Linear_8,2,5,80,127,1169550780
5512,18,Jits_Linear_8,3,5,56,103,1169640824
5512,18,Jits_Linear_8,0,1,48,68,1170169712
5512,18,Jits_Linear_8,1,5,63,98,1170171368
5512,18,Jits_Linear_8,2,5,56,103,1170180368
5512,18,Jits_Linear_8,3,5,80,127,1170280920
5512,18,Jits_Linear_8,0,1,48,77,1170834664
5512,18,Jits_Linear_8,1,5,63,98,1170920928
5512,18,Jits_Linear_8,2,5,80,127,1170950444
5512,18,Jits_Linear_8,3,5,56,103,1170981164
5512,18,Jits_Linear_8,0,1,48,79,1171578760
5512,18,Jits_Linear_8,1,5,80,127,1171581420
5512,18,Jits_Linear_8,2,5,63,98,1171590496
5512,18,Jits_Linear_8,3,5,56,103,1171621364
5512,18,Jits_Linear_8,0,5,80,127,1172121112
5512,18,Jits_Linear_8,1,5,63,98,1172141496
5512,18,Jits_Linear_8,2,5,56,103,1172190504
5512,18,Jits_Linear_8,3,1,48,80,1172196016
5512,18,Jits_Linear_8,0,5,63,98,1172790500
5512,18,Jits_Linear_8,1,1,48,65,1172838208
5512,18,Jits_Linear_8,2,5,80,127,1172850908
5512,18,Jits_Linear_8,3,5,56,103,1172870544
5512,18,Jits_Linear_8,0,5,63,98,1173390592
5512,18,Jits_Linear_8,1,1,48,54,1173429080
5512,18,Jits_Linear_8,2,5,56,103,1173441160
5512,18,Jits_Linear_8,3,5,80,127,1173451208
5512,18,Jits_Linear_8,0,1,48,56,1173996084
5512,18,Jits_Linear_8,1,5,56,103,1174061300
5512,18,Jits_Linear_8,2,5,80,127,1174070524
5512,18,Jits_Linear_8,3,5,63,98,1174171080
5512,18,Jits_Linear_8,0,1,48,62,1174596028
5512,18,Jits_Linear_8,1,5,80,127,1174660348
5512,18,Jits_Linear_8,2,5,63,98,1174670692
5512,18,Jits_Linear_8,3,5,56,103,1174821268
5512,18,Jits_Linear_8,0,1,48,63,1175162012
5512,18,Jits_Linear_8,1,5,63,98,1175300408
5512,18,Jits_Linear_8,2,5,80,127,1175341396
5512,18,Jits_Linear_8,3,5,56,103,1175421436
5512,18,Jits_Linear_8,0,1,48,67,1175801336
5512,18,Jits_Linear_8,1,5,56,103,1175921024
5512,18,Jits_Linear_8,2,5,80,127,1176021500
5512,18,Jits_Linear_8,3,5,63,98,1176040912
5512,18,Jits_Linear_8,0,1,48,57,1176457760
5512,18,Jits_Linear_8,1,5,80,127,1176611300
5512,18,Jits_Linear_8,2,5,56,103,1176621420
5512,18,Jits_Linear_8,3,5,63,98,1176710456
5512,18,Jits_Linear_8,0,1,48,59,1177085108
5512,18,Jits_Linear_8,1,5,56,103,1177240916
5512,18,Jits_Linear_8,2,5,63,98,1177261300
5512,18,Jits_Linear_8,3,5,80,127,1177341172
5512,18,Jits_Linear_8,0,1,48,56,1177778648
5512,18,Jits_Linear_8,1,5,63,98,1177811188
5512,18,Jits_Linear_8,2,5,56,103,1177901304
5512,18,Jits_Linear_8,3,5,80,127,1177904524
5512,18,Jits_Linear_8,0,1,48,63,1178443680
5512,18,Jits_Linear_8,1,5,56,103,1178460644
5512,18,Jits_Linear_8,2,5,80,127,1178521036
5512,18,Jits_Linear_8,3,5,63,98,1178531160
5512,18,Jits_Linear_8,0,1,48,66,1179045840
5512,18,Jits_Linear_8,1,5,80,127,1179131140
5512,18,Jits_Linear_8,2,5,56,103,1179140948
5512,18,Jits_Linear_8,3,5,63,98,1179143936
5512,18,Jits_Linear_8,0,1,48,65,1179688384
5512,18,Jits_Linear_8,1,5,56,103,1179711072
5512,18,Jits_Linear_8,2,5,80,127,1179720968
5512,18,Jits_Linear_8,3,5,63,98,1179740532
5512,18,Jits_Linear_8,0,5,63,98,1180300804
5512,18,Jits_Linear_8,1,1,48,53,1180335388
5512,18,Jits_Linear_8,2,5,80,127,1180360968
5512,18,Jits_Linear_8,3,5,56,103,1180411316
5512,18,Jits_Linear_8,0,1,48,64,1180920620
5512,18,Jits_Linear_8,1,5,63,98,1181001060
5512,18,Jits_Linear_8,2,5,56,103,1181011332
5512,18,Jits_Linear_8,3,5,80,127,1181060472
5512,18,Jits_Linear_8,0,5,63,98,1181510936
5512,18,Jits_Linear_8,1,5,80,127,1181530348
5512,18,Jits_Linear_8,2,5,56,103,1181540768
5512,18,Jits_Linear_8,3,1,48,59,1181563812
5512,18,Jits_Linear_8,0,5,63,98,1182121332
5512,18,Jits_Linear_8,1,5,80,127,1182124848
5512,18,Jits_Linear_8,2,5,56,103,1182161344
5512,18,Jits_Linear_8,3,1,48,57,1182220804
5512,18,Jits_Linear_8,0,5,63,98,1182801204
5512,18,Jits_Linear_8,1,1,48,63,1182805372
5512,18,Jits_Linear_8,2,5,80,127,1182830952
5512,18,Jits_Linear_8,3,5,56,103,1182841072
5512,18,Jits_Linear_8,0,5,56,103,1183361340
5512,18,Jits_Linear_8,1,5,80,127,1183391016
5512,18,Jits_Linear_8,2,5,63,98,1183420768
5512,18,Jits_Linear_8,3,1,48,66,1183434076
5512,18,Jits_Linear_8,0,1,48,65,1184059516
5512,18,Jits_Linear_8,1,5,63,98,1184061012
5512,18,Jits_Linear_8,2,5,56,103,1184100652
5512,18,Jits_Linear_8,3,5,80,127,1184103868
5512,18,Jits_Linear_8,0,5,80,127,1184560588
5512,18,Jits_Linear_8,1,5,56,103,1184641608
5512,18,Jits_Linear_8,2,1,48,69,1184675368
5512,18,Jits_Linear_8,3,5,63,98,1184690680
5512,18,Jits_Linear_8,0,5,80,127,1185140996
5512,18,Jits_Linear_8,1,5,56,103,1185160704
5512,18,Jits_Linear_8,2,5,63,98,1185250764
5512,18,Jits_Linear_8,3,1,48,47,1185294332
5512,18,Jits_Linear_8,0,5,80,127,1185781156
5512,18,Jits_Linear_8,1,5,63,98,1185821024
5512,18,Jits_Linear_8,2,1,48,62,1185849848
5512,18,Jits_Linear_8,3,5,56,103,1185860956
5512,18,Jits_Linear_8,0,5,63,98,1186350648
5512,18,Jits_Linear_8,1,5,80,127,1186410844
5512,18,Jits_Linear_8,2,5,56,103,1186440668
5512,18,Jits_Linear_8,3,1,48,59,1186476224
5512,18,Jits_Linear_8,0,5,56,103,1186950668
5512,18,Jits_Linear_8,1,5,80,127,1186981316
5512,18,Jits_Linear_8,2,5,63,98,1187071372
5512,18,Jits_Linear_8,3,1,48,45,1187076140
5512,18,Jits_Linear_8,0,5,56,103,1187550676
5512,18,Jits_Linear_8,1,1,48,69,1187635456
5512,18,Jits_Linear_8,2,5,80,127,1187661132
5512,18,Jits_Linear_8,3,5,63,98,1187690956
5512,18,Jits_Linear_8,0,5,56,103,1188190652
5512,18,Jits_Linear_8,1,5,63,98,1188251044
5512,18,Jits_Linear_8,2,1,48,61,1188273864
5512,18,Jits_Linear_8,3,5,80,127,1188280860
5512,18,Jits_Linear_8,0,5,56,103,1188750732
5512,18,Jits_Linear_8,1,5,63,98,1188821392
5512,18,Jits_Linear_8,2,5,80,127,1188840952
5512,18,Jits_Linear_8,3,1,48,44,1188845564
5512,18,Jits_Linear_8,0,5,80,127,1189310960
5512,18,Jits_Linear_8,1,5,63,98,1189331196
5512,18,Jits_Linear_8,2,5,56,103,1189380576
5512,18,Jits_Linear_8,3,1,48,35,1189473320
5512,18,Jits_Linear_8,4,1,38,19,1189481240
5512,18,Jits_Linear_8,0,5,63,98,1189910844
5512,18,Jits_Linear_8,1,5,80,127,1189921112
5512,18,Jits_Linear_8,2,5,56,103,1189971268
5512,18,Jits_Linear_8,3,1,48,41,1190191784
5512,18,Jits_Linear_8,0,5,63,98,1190490628
5512,18,Jits_Linear_8,1,5,80,127,1190561064
5512,18,Jits_Linear_8,2,5,56,103,1190580848
5512,18,Jits_Linear_8,3,1,48,62,1190780120
5512,18,Jits_Linear_8,0,5,63,98,1191100888
5512,18,Jits_Linear_8,1,5,80,127,1191104028
5512,18,Jits_Linear_8,2,5,56,103,1191170568
5512,18,Jits_Linear_8,3,1,48,57,1191355148
5512,18,Jits_Linear_8,0,5,80,127,1191631344
5512,18,Jits_Linear_8,1,5,56,103,1191650684
5512,18,Jits_Linear_8,2,5,63,98,1191661028
5512,18,Jits_Linear_8,3,1,48,63,1191981140
5512,18,Jits_Linear_8,0,5,56,103,1192231492
5512,18,Jits_Linear_8,1,5,63,98,1192321504
5512,18,Jits_Linear_8,2,5,80,127,1192324944
5512,18,Jits_Linear_8,0,1,48,59,1192612792
5512,18,Jits_Linear_8,1,5,80,127,1192781260
5512,18,Jits_Linear_8,2,5,56,103,1192791608
5512,18,Jits_Linear_8,3,5,63,98,1192810796
5512,18,Jits_Linear_8,0,1,48,53,1193210240
5512,18,Jits_Linear_8,1,5,63,98,1193350680
5512,18,Jits_Linear_8,2,5,80,127,1193411072
5512,18,Jits_Linear_8,3,5,56,103,1193421568
5512,18,Jits_Linear_8,0,1,48,57,1193869152
5512,18,Jits_Linear_8,1,5,63,98,1193990464
5512,18,Jits_Linear_8,2,5,80,127,1194021332
5512,18,Jits_Linear_8,3,5,56,103,1194061148
5512,18,Jits_Linear_8,0,1,48,59,1194490876
5512,18,Jits_Linear_8,1,5,56,103,1194550544
5512,18,Jits_Linear_8,2,5,80,127,1194560988
5512,18,Jits_Linear_8,3,5,63,98,1194600840
5512,18,Jits_Linear_8,0,5,80,127,1195080968
5512,18,Jits_Linear_8,1,1,48,57,1195087752
5512,18,Jits_Linear_8,2,5,56,103,1195160912
5512,18,Jits_Linear_8,3,5,63,98,1195171108
5512,18,Jits_Linear_8,0,1,48,56,1195671508
5512,18,Jits_Linear_8,1,5,80,127,1195691612
5512,18,Jits_Linear_8,2,5,56,103,1195771396
5512,18,Jits_Linear_8,3,5,63,98,1195780620
5512,18,Jits_Linear_8,0,5,80,127,1196210488
5512,18,Jits_Linear_8,1,5,56,103,1196260616
5512,18,Jits_Linear_8,2,1,48,64,1196279176
5512,18,Jits_Linear_8,3,5,63,98,1196310888
5512,18,Jits_Linear_8,4,1,48,34,1196356788
5512,18,Jits_Linear_8,0,5,56,103,1196831072
5512,18,Jits_Linear_8,1,5,63,98,1196834064
5512,18,Jits_Linear_8,2,5,80,127,1196881520
5512,18,Jits_Linear_8,3,1,48,55,1196933564
5512,18,Jits_Linear_8,0,5,56,103,1197420916
5512,18,Jits_Linear_8,1,1,48,60,1197449388
5512,18,Jits_Linear_8,2,5,63,98,1197451032
5512,18,Jits_Linear_8,3,5,80,127,1197460784
5512,18,Jits_Linear_8,4,1,48,34,1197538736
5512,18,Jits_Linear_8,0,5,63,98,1197890992
5512,18,Jits_Linear_8,1,5,56,103,1197960604
5512,18,Jits_Linear_8,2,5,80,127,1198010732
5512,18,Jits_Linear_8,3,1,48,61,1198044412
5512,18,Jits_Linear_8,0,5,63,98,1198480876
5512,18,Jits_Linear_8,1,5,56,103,1198490924
5512,18,Jits_Linear_8,2,5,80,127,1198494288
5512,18,Jits_Linear_8,3,1,48,60,1198613832
5512,18,Jits_Linear_8,0,5,80,127,1198980616
5512,18,Jits_Linear_8,1,5,56,103,1199040936
5512,18,Jits_Linear_8,2,5,63,98,1199130920
5512,18,Jits_Linear_8,3,1,48,61,1199246280
5512,18,Jits_Linear_8,4,1,48,36,1199299308
5512,18,Jits_Linear_8,0,5,80,127,1199531304
5512,18,Jits_Linear_8,1,5,56,103,1199630808
5512,18,Jits_Linear_8,2,5,63,98,1199670744
5512,18,Jits_Linear_8,0,1,48,66,1199956812
5512,18,Jits_Linear_8,1,1,48,32,1200038012
5512,18,Jits_Linear_8,2,5,56,103,1200130352
5512,18,Jits_Linear_8,3,5,63,98,1200150872
5512,18,Jits_Linear_8,4,5,80,127,1200190836
5512,18,Jits_Linear_8,0,1,48,59,1200602940
5512,18,Jits_Linear_8,1,5,63,98,1200650544
5512,18,Jits_Linear_8,2,5,56,103,1200671304
5512,18,Jits_Linear_8,3,1,48,36,1200675232
5512,18,Jits_Linear_8,4,5,80,127,1200770416
5512,18,Jits_Linear_8,0,5,63,98,1201181144
5512,18,Jits_Linear_8,1,1,48,48,1201286624
5512,18,Jits_Linear_8,2,5,80,127,1201290704
5512,18,Jits_Linear_8,3,5,56,103,1201321576
5512,18,Jits_Linear_8,0,5,56,103,1201741308
5512,18,Jits_Linear_8,1,5,63,98,1201770764
5512,18,Jits_Linear_8,2,5,80,127,1201820892
5512,18,Jits_Linear_8,3,1,48,48,1202024504
5512,18,Jits_Linear_8,0,5,63,98,1202251412
5512,18,Jits_Linear_8,1,5,56,103,1202280788
5512,18,Jits_Linear_8,2,5,80,127,1202330916
5512,18,Jits_Linear_8,0,1,48,50,1202686612
5512,18,Jits_Linear_8,1,5,56,103,1202820400
5512,18,Jits_Linear_8,2,5,63,98,1202840936
5512,18,Jits_Linear_8,3,5,80,127,1202920952
5512,18,Jits_Linear_8,0,1,48,49,1203297200
5512,18,Jits_Linear_8,1,5,63,98,1203330360
5512,18,Jits_Linear_8,2,5,56,103,1203390824
5512,18,Jits_Linear_8,3,5,80,127,1203420484
5512,18,Jits_Linear_8,0,1,48,57,1203800704
5512,18,Jits_Linear_8,1,1,48,34,1203845104
5512,18,Jits_Linear_8,2,5,56,103,1203911220
5512,18,Jits_Linear_8,3,5,80,127,1203970328
5512,18,Jits_Linear_8,4,5,63,98,1204011460
5512,18,Jits_Linear_8,0,1,48,55,1204326196
5512,18,Jits_Linear_8,1,1,48,35,1204370240
5512,18,Jits_Linear_8,2,5,63,98,1204420840
5512,18,Jits_Linear_8,3,5,56,103,1204481440
5512,18,Jits_Linear_8,4,5,80,127,1204550996
5512,18,Jits_Linear_8,0,1,48,40,1204906764
5512,18,Jits_Linear_8,1,5,56,103,1205031384
5512,18,Jits_Linear_8,2,5,63,98,1205040532
5512,18,Jits_Linear_8,3,5,80,127,1205043672
5512,18,Jits_Linear_8,0,1,48,51,1205424352
5512,18,Jits_Linear_8,1,5,63,98,1205501176
5512,18,Jits_Linear_8,2,5,56,103,1205560576
5512,18,Jits_Linear_8,3,5,80,127,1205563724
5512,18,Jits_Linear_8,0,1,48,48,1205931640
5512,18,Jits_Linear_8,1,5,63,98,1206011460
5512,18,Jits_Linear_8,2,5,80,127,1206040972
5512,18,Jits_Linear_8,3,5,56,103,1206061356
5512,18,Jits_Linear_8,0,1,48,44,1206432284
5512,18,Jits_Linear_8,1,5,56,103,1206540636
5512,18,Jits_Linear_8,2,5,63,98,1206590716
5512,18,Jits_Linear_8,3,5,80,127,1206670660
5512,18,Jits_Linear_8,0,1,48,38,1206947384
5512,18,Jits_Linear_8,1,5,80,127,1207042260
5512,18,Jits_Linear_8,2,5,63,98,1207081448
5512,18,Jits_Linear_8,3,5,56,103,1207100740
5512,18,Jits_Linear_8,0,1,48,48,1207482280
5512,18,Jits_Linear_8,1,5,56,103,1207631416
5512,18,Jits_Linear_8,2,5,80,127,1207640564
5512,18,Jits_Linear_8,3,5,63,98,1207660876
5512,18,Jits_Linear_8,0,1,48,75,1208037096
5512,18,Jits_Linear_8,1,1,48,51,1208069160
5512,18,Jits_Linear_8,2,5,56,103,1208131088
5512,18,Jits_Linear_8,3,5,63,98,1208181204
5512,18,Jits_Linear_8,4,5,80,127,1208210728
5512,18,Jits_Linear_8,0,1,48,70,1208573696
5512,18,Jits_Linear_8,1,5,56,103,1208601072
5512,18,Jits_Linear_8,2,1,48,49,1208605972
5512,18,Jits_Linear_8,3,5,63,98,1208611392
5512,18,Jits_Linear_8,4,5,80,127,1208661472
5512,18,Jits_Linear_8,0,5,56,103,1209110756
5512,18,Jits_Linear_8,1,5,80,127,1209113976
5512,18,Jits_Linear_8,2,1,48,73,1209114940
5512,18,Jits_Linear_8,3,1,48,50,1209149172
5512,18,Jits_Linear_8,4,5,63,98,1209270696
5512,18,Jits_Linear_8,0,1,48,74,1209610160
5512,18,Jits_Linear_8,1,5,63,98,1209641276
5512,18,Jits_Linear_8,2,1,48,51,1209643128
5512,18,Jits_Linear_8,3,5,56,103,1209710888
5512,18,Jits_Linear_8,4,5,80,127,1209750960
5512,18,Jits_Linear_8,0,1,48,72,1210106056
5512,18,Jits_Linear_8,1,1,48,56,1210131140
5512,18,Jits_Linear_8,2,5,63,98,1210191204
5512,18,Jits_Linear_8,3,5,56,103,1210281320
5512,18,Jits_Linear_8,4,5,80,127,1210284464
5512,18,Jits_Linear_8,0,1,48,76,1210665420
5512,18,Jits_Linear_8,1,5,56,103,1210681056
5512,18,Jits_Linear_8,2,1,48,51,1210693452
5512,18,Jits_Linear_8,3,5,63,98,1210770652
5512,18,Jits_Linear_8,4,5,80,127,1210781216
5512,18,Jits_Linear_8,0,5,56,103,1211161064
5512,18,Jits_Linear_8,1,1,48,76,1211186880
5512,18,Jits_Linear_8,2,5,63,98,1211211288
5512,18,Jits_Linear_8,3,1,48,54,1211215068
5512,18,Jits_Linear_8,4,5,80,127,1211240720
5512,18,Jits_Linear_8,0,1,48,69,1211684368
5512,18,Jits_Linear_8,1,1,48,48,1211710152
5512,18,Jits_Linear_8,2,5,63,98,1211740448
5512,18,Jits_Linear_8,3,5,80,127,1211750644
5512,18,Jits_Linear_8,4,5,56,103,1211811316
5512,18,Jits_Linear_8,0,5,63,98,1212161360
5512,18,Jits_Linear_8,1,1,48,81,1212186352
5512,18,Jits_Linear_8,2,1,48,59,1212210988
5512,18,Jits_Linear_8,3,5,80,127,1212220704
5512,18,Jits_Linear_8,4,5,56,103,1212260640
5512,18,Jits_Linear_8,0,1,48,80,1212687416
5512,18,Jits_Linear_8,1,1,48,54,1212713104
5512,18,Jits_Linear_8,2,5,56,103,1212760356
5512,18,Jits_Linear_8,3,5,80,127,1212781112
5512,18,Jits_Linear_8,4,5,63,98,1212801424
5512,18,Jits_Linear_8,0,5,63,98,1213181264
5512,18,Jits_Linear_8,1,1,48,78,1213194724
5512,18,Jits_Linear_8,2,5,56,103,1213200968
5512,18,Jits_Linear_8,3,1,48,50,1213226396
5512,18,Jits_Linear_8,4,5,80,127,1213240908
5512,18,Jits_Linear_8,0,1,48,71,1213678720
5512,18,Jits_Linear_8,1,5,63,98,1213691248
5512,18,Jits_Linear_8,2,1,48,53,1213708968
5512,18,Jits_Linear_8,3,5,80,127,1213721200
5512,18,Jits_Linear_8,4,5,56,103,1213741360
5512,18,Jits_Linear_8,0,5,80,127,1214161232
5512,18,Jits_Linear_8,1,1,48,71,1214178200
5512,18,Jits_Linear_8,2,5,56,103,1214210456
5512,18,Jits_Linear_8,3,5,63,98,1214270796
5512,18,Jits_Linear_8,0,5,63,98,1214640472
5512,18,Jits_Linear_8,1,1,48,74,1214686740
5512,18,Jits_Linear_8,2,1,48,52,1214709656
5512,18,Jits_Linear_8,3,5,56,103,1214761224
5512,18,Jits_Linear_8,4,5,80,127,1214790996
5512,18,Jits_Linear_8,0,5,80,127,1215171144
5512,18,Jits_Linear_8,1,1,48,79,1215180712
5512,18,Jits_Linear_8,2,5,63,98,1215191300
5512,18,Jits_Linear_8,3,1,48,54,1215204372
5512,18,Jits_Linear_8,4,5,56,103,1215261032
5512,18,Jits_Linear_8,0,1,48,82,1215674824
5512,18,Jits_Linear_8,1,5,63,98,1215680996
5512,18,Jits_Linear_8,2,5,56,103,1215691120
5512,18,Jits_Linear_8,3,1,48,57,1215698932
5512,18,Jits_Linear_8,4,5,80,127,1215771188
5512,18,Jits_Linear_8,0,1,48,73,1216185720
5512,18,Jits_Linear_8,1,5,56,103,1216230704
5512,18,Jits_Linear_8,2,5,80,127,1216260380
5512,18,Jits_Linear_8,3,5,63,98,1216270576
5512,18,Jits_Linear_8,0,9999,9999,9999,1105858648
5512,18,Jits_Linear_8,1,9999,9999,9999,1106678860
5512,18,Jits_Linear_8,2,9999,9999,9999,1107499064
5512,18,Jits_Linear_8,3,9999,9999,9999,1108328512
5512,18,Jits_Linear_8,4,9999,9999,9999,1109148784
5512,18,Jits_Linear_8,5,9999,9999,9999,1109958728
5512,18,Jits_Linear_8,6,9999,9999,9999,1110768720
5512,18,Jits_Linear_8,7,9999,9999,9999,1111578736
5512,18,Jits_Linear_8,8,9999,9999,9999,1112388708
5512,18,Jits_Linear_8,9,9999,9999,9999,1113198712
5512,18,Jits_Linear_8,10,9999,9999,9999,1113998396
5512,18,Jits_Linear_8,11,9999,9999,9999,1114798156
5512,18,Jits_Linear_8,12,9999,9999,9999,1115598940
5512,18,Jits_Linear_8,13,9999,9999,9999,1116398684
5512,18,Jits_Linear_8,14,9999,9999,9999,1117198404
5512,18,Jits_Linear_8,15,9999,9999,9999,1117988980
5512,18,Jits_Linear_8,16,9999,9999,9999,1118778448
5512,18,Jits_Linear_8,17,9999,9999,9999,1119569008
5512,18,Jits_Linear_8,18,9999,9999,9999,1120358504
5512,18,Jits_Linear_8,19,9999,9999,9999,1121149044
5512,18,Jits_Linear_8,20,9999,9999,9999,1121928268
5512,18,Jits_Linear_8,21,9999,9999,9999,1122708540
5512,18,Jits_Linear_8,22,9999,9999,9999,1123488848
5512,18,Jits_Linear_8,23,9999,9999,9999,1124268124
5512,18,Jits_Linear_8,24,9999,9999,9999,1125048396
5512,18,Jits_Linear_8,25,9999,9999,9999,1125818484
5512,18,Jits_Linear_8,26,9999,9999,9999,1126588496
5512,18,Jits_Linear_8,27,9999,9999,9999,1127358580
5512,18,Jits_Linear_8,28,9999,9999,9999,1128128588
5512,18,Jits_Linear_8,29,9999,9999,9999,1128898660
5512,18,Jits_Linear_8,30,9999,9999,9999,1129658452
5512,18,Jits_Linear_8,31,9999,9999,9999,1130418248
5512,18,Jits_Linear_8,32,9999,9999,9999,1131179084
5512,18,Jits_Linear_8,33,9999,9999,9999,1131948088
5512,18,Jits_Linear_8,34,9999,9999,9999,1132708944
5512,18,Jits_Linear_8,35,9999,9999,9999,1133458560
5512,18,Jits_Linear_8,36,9999,9999,9999,1134208096
5512,18,Jits_Linear_8,37,9999,9999,9999,1134958700
5512,18,Jits_Linear_8,38,9999,9999,9999,1135708268
5512,18,Jits_Linear_8,39,9999,9999,9999,1136458816
5512,18,Jits_Linear_8,40,9999,9999,9999,1137198180
5512,18,Jits_Linear_8,41,9999,9999,9999,1137938532
5512,18,Jits_Linear_8,42,9999,9999,9999,1138678872
5512,18,Jits_Linear_8,43,9999,9999,9999,1139418172
5512,18,Jits_Linear_8,44,9999,9999,9999,1140158572
5512,18,Jits_Linear_8,45,9999,9999,9999,1140888656
5512,18,Jits_Linear_8,46,9999,9999,9999,1141618808
5512,18,Jits_Linear_8,47,9999,9999,9999,1142348884
5512,18,Jits_Linear_8,48,9999,9999,9999,1143079004
5512,18,Jits_Linear_8,49,9999,9999,9999,1143808116
5512,18,Jits_Linear_8,50,9999,9999,9999,1144528976
5512,18,Jits_Linear_8,51,9999,9999,9999,1145248884
5512,18,Jits_Linear_8,52,9999,9999,9999,1145968692
5512,18,Jits_Linear_8,53,9999,9999,9999,1146688576
5512,18,Jits_Linear_8,54,9999,9999,9999,1147408452
5512,18,Jits_Linear_8,55,9999,9999,9999,1148118072
5512,18,Jits_Linear_8,56,9999,9999,9999,1148828792
5512,18,Jits_Linear_8,57,9999,9999,9999,1149538424
5512,18,Jits_Linear_8,58,9999,9999,9999,1150249016
5512,18,Jits_Linear_8,59,9999,9999,9999,1150958708
5512,18,Jits_Linear_8,60,9999,9999,9999,1151659124
5512,18,Jits_Linear_8,61,9999,9999,9999,1152368752
5512,18,Jits_Linear_8,62,9999,9999,9999,1153068100
5512,18,Jits_Linear_8,63,9999,9999,9999,1153768572
5512,18,Jits_Linear_8,64,9999,9999,9999,1154468928
5512,18,Jits_Linear_8,65,9999,9999,9999,1155158104
5512,18,Jits_Linear_8,66,9999,9999,9999,1155848300
5512,18,Jits_Linear_8,67,9999,9999,9999,1156538448
5512,18,Jits_Linear_8,68,9999,9999,9999,1157228600
5512,18,Jits_Linear_8,69,9999,9999,9999,1157918788
5512,18,Jits_Linear_8,70,9999,9999,9999,1158598732
5512,18,Jits_Linear_8,71,9999,9999,9999,1159278696
5512,18,Jits_Linear_8,72,9999,9999,9999,1159958636
5512,18,Jits_Linear_8,73,9999,9999,9999,1160638536
5512,18,Jits_Linear_8,74,9999,9999,9999,1161318520
5512,18,Jits_Linear_8,75,9999,9999,9999,1161988196
5512,18,Jits_Linear_8,76,9999,9999,9999,1162658872
5512,18,Jits_Linear_8,77,9999,9999,9999,1163328584
5512,18,Jits_Linear_8,78,9999,9999,9999,1163998264
5512,18,Jits_Linear_8,79,9999,9999,9999,1164669020
5512,18,Jits_Linear_8,80,9999,9999,9999,1165328500
5512,18,Jits_Linear_8,81,9999,9999,9999,1165988976
5512,18,Jits_Linear_8,82,9999,9999,9999,1166648380
5512,18,Jits_Linear_8,83,9999,9999,9999,1167308924
5512,18,Jits_Linear_8,84,9999,9999,9999,1167968364
5512,18,Jits_Linear_8,85,9999,9999,9999,1168618572
5512,18,Jits_Linear_8,86,9999,9999,9999,1169268860
5512,18,Jits_Linear_8,87,9999,9999,9999,1169919048
5512,18,Jits_Linear_8,88,9999,9999,9999,1170568284
5512,18,Jits_Linear_8,89,9999,9999,9999,1171218556
5512,18,Jits_Linear_8,90,9999,9999,9999,1171858520
5512,18,Jits_Linear_8,91,9999,9999,9999,1172498516
5512,18,Jits_Linear_8,92,9999,9999,9999,1173138488
5512,18,Jits_Linear_8,93,9999,9999,9999,1173778560
5512,18,Jits_Linear_8,94,9999,9999,9999,1174418512
5512,18,Jits_Linear_8,95,9999,9999,9999,1175048248
5512,18,Jits_Linear_8,96,9999,9999,9999,1175679056
5512,18,Jits_Linear_8,97,9999,9999,9999,1176308796
5512,18,Jits_Linear_8,98,9999,9999,9999,1176938560
5512,18,Jits_Linear_8,99,9999,9999,9999,1177568376
5512,18,Jits_Linear_8,100,9999,9999,9999,1178188916
5512,18,Jits_Linear_8,101,9999,9999,9999,1178808392
5512,18,Jits_Linear_8,102,9999,9999,9999,1179428980
5512,18,Jits_Linear_8,103,9999,9999,9999,1180048476
5512,18,Jits_Linear_8,104,9999,9999,9999,1180668996
5512,18,Jits_Linear_8,105,9999,9999,9999,1181278312
5512,18,Jits_Linear_8,106,9999,9999,9999,1181888640
5512,18,Jits_Linear_8,107,9999,9999,9999,1182498876
5512,18,Jits_Linear_8,108,9999,9999,9999,1183108192
5512,18,Jits_Linear_8,109,9999,9999,9999,1183718516
5512,18,Jits_Linear_8,110,9999,9999,9999,1184318552
5512,18,Jits_Linear_8,111,9999,9999,9999,1184918624
5512,18,Jits_Linear_8,112,9999,9999,9999,1185518700
5512,18,Jits_Linear_8,113,9999,9999,9999,1186118708
5512,18,Jits_Linear_8,114,9999,9999,9999,1186718792
5512,18,Jits_Linear_8,115,9999,9999,9999,1187308596
5512,18,Jits_Linear_8,116,9999,9999,9999,1187898448
5512,18,Jits_Linear_8,117,9999,9999,9999,1188488276
5512,18,Jits_Linear_8,118,9999,9999,9999,1189078100
5512,18,Jits_Linear_8,119,9999,9999,9999,1189668916
5512,18,Jits_Linear_8,120,9999,9999,9999,1190248508
5512,18,Jits_Linear_8,121,9999,9999,9999,1190828124
5512,18,Jits_Linear_8,122,9999,9999,9999,1191408704
5512,18,Jits_Linear_8,123,9999,9999,9999,1191988316
5512,18,Jits_Linear_8,124,9999,9999,9999,1192568936
5512,18,Jits_Linear_8,125,9999,9999,9999,1193138236
5512,18,Jits_Linear_8,126,9999,9999,9999,1193708632
5512,18,Jits_Linear_8,127,9999,9999,9999,1194279040
5512,18,Jits_Linear_8,128,9999,9999,9999,1194848348
5512,18,Jits_Linear_8,129,9999,9999,9999,1195418748
5512,18,Jits_Linear_8,130,9999,9999,9999,1195978832
5512,18,Jits_Linear_8,131,9999,9999,9999,1196538952
5512,18,Jits_Linear_8,132,9999,9999,9999,1197099092
5512,18,Jits_Linear_8,133,9999,9999,9999,1197668476
5512,18,Jits_Linear_8,134,9999,9999,9999,1198228548
5512,18,Jits_Linear_8,135,9999,9999,9999,1198778488
5512,18,Jits_Linear_8,136,9999,9999,9999,1199328360
5512,18,Jits_Linear_8,137,9999,9999,9999,1199878248
5512,18,Jits_Linear_8,138,9999,9999,9999,1200428128
5512,18,Jits_Linear_8,139,9999,9999,9999,1200979044
5512,18,Jits_Linear_8,140,9999,9999,9999,1201518652
5512,18,Jits_Linear_8,141,9999,9999,9999,1202058352
5512,18,Jits_Linear_8,142,9999,9999,9999,1202599024
5512,18,Jits_Linear_8,143,9999,9999,9999,1203138644
5512,18,Jits_Linear_8,144,9999,9999,9999,1203678328
5512,18,Jits_Linear_8,145,9999,9999,9999,1204208704
5512,18,Jits_Linear_8,146,9999,9999,9999,1204738176
5512,18,Jits_Linear_8,147,9999,9999,9999,1205268560
5512,18,Jits_Linear_8,148,9999,9999,9999,1205798996
5512,18,Jits_Linear_8,149,9999,9999,9999,1206328440
5512,18,Jits_Linear_8,150,9999,9999,9999,1206848572
5512,18,Jits_Linear_8,151,9999,9999,9999,1207368772
5512,18,Jits_Linear_8,152,9999,9999,9999,1207888980
5512,18,Jits_Linear_8,153,9999,9999,9999,1208408120
5512,18,Jits_Linear_8,154,9999,9999,9999,1208928368
5512,18,Jits_Linear_8,155,9999,9999,9999,1209438272
5512,18,Jits_Linear_8,156,9999,9999,9999,1209948276
5512,18,Jits_Linear_8,157,9999,9999,9999,1210458188
5512,18,Jits_Linear_8,158,9999,9999,9999,1210968184
5512,18,Jits_Linear_8,159,9999,9999,9999,1211478096
5512,18,Jits_Linear_8,160,9999,9999,9999,1211978816
5512,18,Jits_Linear_8,161,9999,9999,9999,1212478540
5512,18,Jits_Linear_8,162,9999,9999,9999,1212978248
5512,18,Jits_Linear_8,163,9999,9999,9999,1213479012
5512,18,Jits_Linear_8,164,9999,9999,9999,1213978740
5512,18,Jits_Linear_8,165,9999,9999,9999,1214468224
5512,18,Jits_Linear_8,166,9999,9999,9999,1214958680
5512,18,Jits_Linear_8,167,9999,9999,9999,1215448144
5512,18,Jits_Linear_8,168,9999,9999,9999,1215938676
5512,18,Jits_Linear_8,169,9999,9999,9999,1216428100
5513,16,Jits_ISO_5,0,5,56,103,1226145068
5513,16,Jits_ISO_5,1,5,63,98,1226148088
5513,16,Jits_ISO_5,2,5,80,127,1226151288
5513,16,Jits_ISO_5,0,1,48,39,1226611800
5513,16,Jits_ISO_5,1,5,56,103,1226645008
5513,16,Jits_ISO_5,2,5,63,98,1226648108
5513,16,Jits_ISO_5,3,5,80,127,1226651300
5513,16,Jits_ISO_5,0,1,48,57,1227111444
5513,16,Jits_ISO_5,1,5,56,103,1227144816
5513,16,Jits_ISO_5,2,1,48,38,1227152576
5513,16,Jits_ISO_5,3,5,80,127,1227154916
5513,16,Jits_ISO_5,4,5,63,98,1227175372
5513,16,Jits_ISO_5,0,5,63,98,1227595204
5513,16,Jits_ISO_5,1,1,48,72,1227613612
5513,16,Jits_ISO_5,2,5,80,127,1227624724
5513,16,Jits_ISO_5,3,5,56,103,1227635216
5513,16,Jits_ISO_5,0,1,48,66,1228093256
5513,16,Jits_ISO_5,1,5,80,127,1228155236
5513,16,Jits_ISO_5,2,1,48,39,1228164148
5513,16,Jits_ISO_5,3,5,56,103,1228165188
5513,16,Jits_ISO_5,4,5,63,98,1228195160
5513,16,Jits_ISO_5,0,1,48,64,1228596652
5513,16,Jits_ISO_5,1,5,63,98,1228644952
5513,16,Jits_ISO_5,2,5,56,103,1228674552
5513,16,Jits_ISO_5,3,5,80,127,1228684748
5513,16,Jits_ISO_5,0,5,56,103,1229095224
5513,16,Jits_ISO_5,1,1,48,65,1229097744
5513,16,Jits_ISO_5,2,5,63,98,1229144692
5513,16,Jits_ISO_5,3,5,80,127,1229164852
5513,16,Jits_ISO_5,0,1,48,56,1229581444
5513,16,Jits_ISO_5,1,5,80,127,1229595112
5513,16,Jits_ISO_5,2,5,63,98,1229645188
5513,16,Jits_ISO_5,3,1,48,38,1229648232
5513,16,Jits_ISO_5,4,5,56,103,1229685104
5513,16,Jits_ISO_5,0,1,48,51,1230085172
5513,16,Jits_ISO_5,1,5,56,103,1230094860
5513,16,Jits_ISO_5,2,5,63,98,1230125284
5513,16,Jits_ISO_5,3,5,80,127,1230195192
5513,16,Jits_ISO_5,0,1,48,49,1230580396
5513,16,Jits_ISO_5,1,5,56,103,1230594368
5513,16,Jits_ISO_5,2,5,80,127,1230654780
5513,16,Jits_ISO_5,3,5,63,98,1230684660
5513,16,Jits_ISO_5,0,1,48,51,1231032720
5513,16,Jits_ISO_5,1,5,56,103,1231105260
5513,16,Jits_ISO_5,2,5,63,98,1231114708
5513,16,Jits_ISO_5,3,5,80,127,1231154776
5513,16,Jits_ISO_5,0,1,48,60,1231547800
5513,16,Jits_ISO_5,1,1,48,43,1231589128
5513,16,Jits_ISO_5,2,5,63,98,1231595152
5513,16,Jits_ISO_5,3,5,80,127,1231674600
5513,16,Jits_ISO_5,4,5,56,103,1231684872
5513,16,Jits_ISO_5,0,1,48,70,1232078868
5513,16,Jits_ISO_5,1,1,48,42,1232128144
5513,16,Jits_ISO_5,2,5,63,98,1232144728
5513,16,Jits_ISO_5,3,5,56,103,1232184688
5513,16,Jits_ISO_5,4,5,80,127,1232187828
5513,16,Jits_ISO_5,0,1,48,66,1232578380
5513,16,Jits_ISO_5,1,5,56,103,1232604484
5513,16,Jits_ISO_5,2,5,63,98,1232614756
5513,16,Jits_ISO_5,3,5,80,127,1232654768
5513,16,Jits_ISO_5,0,1,48,61,1233021540
5513,16,Jits_ISO_5,1,1,48,45,1233059432
5513,16,Jits_ISO_5,2,5,56,103,1233094976
5513,16,Jits_ISO_5,3,5,63,98,1233098188
5513,16,Jits_ISO_5,4,5,80,127,1233114608
5513,16,Jits_ISO_5,0,1,48,57,1233548172
5513,16,Jits_ISO_5,1,5,80,127,1233604996
5513,16,Jits_ISO_5,2,5,56,103,1233615196
5513,16,Jits_ISO_5,3,5,63,98,1233684780
5513,16,Jits_ISO_5,0,1,48,59,1234061092
5513,16,Jits_ISO_5,1,5,63,98,1234094616
5513,16,Jits_ISO_5,2,5,56,103,1234114852
5513,16,Jits_ISO_5,3,5,80,127,1234194852
5513,16,Jits_ISO_5,0,1,48,58,1234544952
5513,16,Jits_ISO_5,1,1,48,38,1234579384
5513,16,Jits_ISO_5,2,5,56,103,1234605636
5513,16,Jits_ISO_5,3,5,80,127,1234645572
5513,16,Jits_ISO_5,4,5,63,98,1234654724
5513,16,Jits_ISO_5,0,1,48,57,1235014956
5513,16,Jits_ISO_5,1,5,80,127,1235094844
5513,16,Jits_ISO_5,2,5,63,98,1235124724
5513,16,Jits_ISO_5,3,5,56,103,1235164736
5513,16,Jits_ISO_5,0,1,48,59,1235513040
5513,16,Jits_ISO_5,1,5,56,103,1235615084
5513,16,Jits_ISO_5,2,5,63,98,1235644908
5513,16,Jits_ISO_5,3,5,80,127,1235695108
5513,16,Jits_ISO_5,0,1,48,59,1236042896
5513,16,Jits_ISO_5,1,5,80,127,1236114912
5513,16,Jits_ISO_5,2,5,56,103,1236154684
5513,16,Jits_ISO_5,3,5,63,98,1236164956
5513,16,Jits_ISO_5,0,1,48,62,1236552124
5513,16,Jits_ISO_5,1,1,48,46,1236594924
5513,16,Jits_ISO_5,2,5,80,127,1236596412
5513,16,Jits_ISO_5,3,5,63,98,1236635004
5513,16,Jits_ISO_5,4,5,56,103,1236695672
5513,16,Jits_ISO_5,0,1,48,59,1237063500
5513,16,Jits_ISO_5,1,5,56,103,1237094764
5513,16,Jits_ISO_5,2,5,80,127,1237104960
5513,16,Jits_ISO_5,3,5,63,98,1237184808
5513,16,Jits_ISO_5,0,5,80,127,1237594724
5513,16,Jits_ISO_5,1,1,48,59,1237597844
5513,16,Jits_ISO_5,2,1,48,44,1237625248
5513,16,Jits_ISO_5,3,5,63,98,1237654936
5513,16,Jits_ISO_5,4,5,56,103,1237684536
5513,16,Jits_ISO_5,0,5,56,103,1238095088
5513,16,Jits_ISO_5,1,1,48,60,1238111316
5513,16,Jits_ISO_5,2,5,80,127,1238154572
5513,16,Jits_ISO_5,3,5,63,98,1238194584
5513,16,Jits_ISO_5,0,1,48,57,1238618096
5513,16,Jits_ISO_5,1,5,56,103,1238645100
5513,16,Jits_ISO_5,2,5,63,98,1238655368
5513,16,Jits_ISO_5,3,5,80,127,1238658732
5513,16,Jits_ISO_5,0,5,80,127,1239094616
5513,16,Jits_ISO_5,1,1,48,64,1239097436
5513,16,Jits_ISO_5,2,1,48,48,1239121600
5513,16,Jits_ISO_5,3,5,63,98,1239184716
5513,16,Jits_ISO_5,4,5,56,103,1239195060
5513,16,Jits_ISO_5,0,1,48,68,1239591464
5513,16,Jits_ISO_5,1,5,56,103,1239595452
5513,16,Jits_ISO_5,2,5,63,98,1239598628
5513,16,Jits_ISO_5,3,5,80,127,1239601672
5513,16,Jits_ISO_5,0,1,48,70,1240091472
5513,16,Jits_ISO_5,1,5,80,127,1240114584
5513,16,Jits_ISO_5,2,5,63,98,1240164736
5513,16,Jits_ISO_5,3,5,56,103,1240194544
5513,16,Jits_ISO_5,0,1,48,69,1240569864
5513,16,Jits_ISO_5,1,5,56,103,1240594916
5513,16,Jits_ISO_5,2,5,80,127,1240605408
5513,16,Jits_ISO_5,3,5,63,98,1240674800
5513,16,Jits_ISO_5,0,1,48,74,1241070720
5513,16,Jits_ISO_5,1,1,48,54,1241091668
5513,16,Jits_ISO_5,2,5,56,103,1241104744
5513,16,Jits_ISO_5,3,5,63,98,1241125572
5513,16,Jits_ISO_5,4,5,80,127,1241184492
5513,16,Jits_ISO_5,0,1,48,68,1241574816
5513,16,Jits_ISO_5,1,5,80,127,1241595364
5513,16,Jits_ISO_5,2,5,63,98,1241664920
5513,16,Jits_ISO_5,3,5,56,103,1241685512
5513,16,Jits_ISO_5,0,5,80,127,1242114664
5513,16,Jits_ISO_5,1,1,48,69,1242118604
5513,16,Jits_ISO_5,2,5,56,103,1242124776
5513,16,Jits_ISO_5,3,5,63,98,1242134896
5513,16,Jits_ISO_5,0,5,80,127,1242604816
5513,16,Jits_ISO_5,1,1,48,76,1242612272
5513,16,Jits_ISO_5,2,5,56,103,1242625644
5513,16,Jits_ISO_5,3,5,63,98,1242695344
5513,16,Jits_ISO_5,0,1,48,70,1243108948
5513,16,Jits_ISO_5,1,5,56,103,1243114820
5513,16,Jits_ISO_5,2,5,80,127,1243144496
5513,16,Jits_ISO_5,3,5,63,98,1243165028
5513,16,Jits_ISO_5,0,1,48,70,1243593484
5513,16,Jits_ISO_5,1,5,63,98,1243605268
5513,16,Jits_ISO_5,2,5,56,103,1243664756
5513,16,Jits_ISO_5,3,5,80,127,1243694340
5513,16,Jits_ISO_5,0,1,48,67,1244081444
5513,16,Jits_ISO_5,1,5,63,98,1244094732
5513,16,Jits_ISO_5,2,5,80,127,1244098024
5513,16,Jits_ISO_5,3,5,56,103,1244184924
5513,16,Jits_ISO_5,0,1,48,73,1244585668
5513,16,Jits_ISO_5,1,5,56,103,1244615060
5513,16,Jits_ISO_5,2,5,63,98,1244644660
5513,16,Jits_ISO_5,3,5,80,127,1244685252
5513,16,Jits_ISO_5,0,1,48,78,1245080752
5513,16,Jits_ISO_5,1,5,63,98,1245114796
5513,16,Jits_ISO_5,2,5,56,103,1245154660
5513,16,Jits_ISO_5,3,5,80,127,1245176224
5513,16,Jits_ISO_5,0,1,48,78,1245568132
5513,16,Jits_ISO_5,1,1,48,59,1245590804
5513,16,Jits_ISO_5,2,5,63,98,1245624628
5513,16,Jits_ISO_5,3,5,56,103,1245664640
5513,16,Jits_ISO_5,4,5,80,127,1245674832
5513,16,Jits_ISO_5,0,1,48,85,1246077096
5513,16,Jits_ISO_5,1,1,48,65,1246096480
5513,16,Jits_ISO_5,2,5,80,127,1246105044
5513,16,Jits_ISO_5,3,5,63,98,1246174576
5513,16,Jits_ISO_5,4,5,56,103,1246195164
5513,16,Jits_ISO_5,0,5,56,103,1246594560
5513,16,Jits_ISO_5,1,1,48,81,1246595528
5513,16,Jits_ISO_5,2,5,80,127,1246614940
5513,16,Jits_ISO_5,3,1,48,62,1246617532
5513,16,Jits_ISO_5,4,5,63,98,1246654852
5513,16,Jits_ISO_5,0,5,63,98,1247105336
5513,16,Jits_ISO_5,1,1,48,80,1247112268
5513,16,Jits_ISO_5,2,5,80,127,1247124812
5513,16,Jits_ISO_5,3,1,48,61,1247132104
5513,16,Jits_ISO_5,4,5,56,103,1247164656
5513,16,Jits_ISO_5,0,1,48,76,1247584304
5513,16,Jits_ISO_5,1,1,48,59,1247605728
5513,16,Jits_ISO_5,2,5,63,98,1247606848
5513,16,Jits_ISO_5,3,5,56,103,1247624616
5513,16,Jits_ISO_5,4,5,80,127,1247634736
5513,16,Jits_ISO_5,0,1,48,67,1248070400
5513,16,Jits_ISO_5,1,1,48,55,1248097132
5513,16,Jits_ISO_5,2,5,80,127,1248104804
5513,16,Jits_ISO_5,3,5,56,103,1248125260
5513,16,Jits_ISO_5,4,5,63,98,1248154860
5513,16,Jits_ISO_5,0,1,48,73,1248588728
5513,16,Jits_ISO_5,1,1,48,54,1248624976
5513,16,Jits_ISO_5,2,5,56,103,1248675268
5513,16,Jits_ISO_5,3,5,80,127,1248678332
5513,16,Jits_ISO_5,4,5,63,98,1248694528
5513,16,Jits_ISO_5,0,1,48,69,1249066576
5513,16,Jits_ISO_5,1,5,63,98,1249095172
5513,16,Jits_ISO_5,2,5,56,103,1249124624
5513,16,Jits_ISO_5,3,1,48,44,1249129596
5513,16,Jits_ISO_5,4,5,80,127,1249185060
5513,16,Jits_ISO_5,0,1,48,65,1249566696
5513,16,Jits_ISO_5,1,1,48,43,1249616972
5513,16,Jits_ISO_5,2,5,63,98,1249674536
5513,16,Jits_ISO_5,3,5,56,103,1249684736
5513,16,Jits_ISO_5,4,5,80,127,1249695376
5513,16,Jits_ISO_5,0,1,48,72,1250041272
5513,16,Jits_ISO_5,1,1,48,55,1250081932
5513,16,Jits_ISO_5,2,5,56,103,1250125144
5513,16,Jits_ISO_5,3,5,80,127,1250154820
5513,16,Jits_ISO_5,4,5,63,98,1250165088
5513,16,Jits_ISO_5,0,1,48,77,1250583592
5513,16,Jits_ISO_5,1,1,48,54,1250611576
5513,16,Jits_ISO_5,2,5,63,98,1250664680
5513,16,Jits_ISO_5,3,5,56,103,1250675172
5513,16,Jits_ISO_5,4,5,80,127,1250694656
5513,16,Jits_ISO_5,0,1,48,84,1251077940
5513,16,Jits_ISO_5,1,5,56,103,1251094900
5513,16,Jits_ISO_5,2,1,48,65,1251110512
5513,16,Jits_ISO_5,3,5,63,98,1251155292
5513,16,Jits_ISO_5,4,5,80,127,1251158656
5513,16,Jits_ISO_5,0,1,48,94,1251572724
5513,16,Jits_ISO_5,1,1,48,69,1251602620
5513,16,Jits_ISO_5,2,5,80,127,1251615072
5513,16,Jits_ISO_5,3,5,56,103,1251625268
5513,16,Jits_ISO_5,4,5,63,98,1251694896
5513,16,Jits_ISO_5,0,5,80,127,1252104584
5513,16,Jits_ISO_5,1,1,48,78,1252108748
5513,16,Jits_ISO_5,2,1,48,62,1252138320
5513,16,Jits_ISO_5,3,5,56,103,1252175232
5513,16,Jits_ISO_5,4,5,63,98,1252184380
5513,16,Jits_ISO_5,0,1,48,84,1252600256
5513,16,Jits_ISO_5,1,1,48,69,1252626612
5513,16,Jits_ISO_5,2,5,63,98,1252645216
5513,16,Jits_ISO_5,3,5,56,103,1252654440
5513,16,Jits_ISO_5,4,5,80,127,1252675072
5513,16,Jits_ISO_5,0,5,80,127,1253094652
5513,16,Jits_ISO_5,1,1,48,73,1253110352
5513,16,Jits_ISO_5,2,1,48,60,1253138800
5513,16,Jits_ISO_5,3,5,63,98,1253155308
5513,16,Jits_ISO_5,4,5,56,103,1253195196
5513,16,Jits_ISO_5,0,1,48,70,1253634348
5513,16,Jits_ISO_5,1,5,56,103,1253635760
5513,16,Jits_ISO_5,2,5,63,98,1253644612
5513,16,Jits_ISO_5,3,1,48,58,1253655884
5513,16,Jits_ISO_5,4,5,80,127,1253684528
5513,16,Jits_ISO_5,0,5,56,103,1254095288
5513,16,Jits_ISO_5,1,5,80,127,1254124960
5513,16,Jits_ISO_5,2,1,48,82,1254132640
5513,16,Jits_ISO_5,3,1,48,63,1254152416
5513,16,Jits_ISO_5,4,5,63,98,1254175204
5513,16,Jits_ISO_5,0,1,48,94,1254612836
5513,16,Jits_ISO_5,1,1,48,73,1254632220
5513,16,Jits_ISO_5,2,5,56,103,1254634952
5513,16,Jits_ISO_5,3,5,63,98,1254674740
5513,16,Jits_ISO_5,4,5,80,127,1254678104
5513,16,Jits_ISO_5,0,1,48,98,1255089880
5513,16,Jits_ISO_5,1,1,48,72,1255108592
5513,16,Jits_ISO_5,2,5,56,103,1255134548
5513,16,Jits_ISO_5,3,5,63,98,1255144744
5513,16,Jits_ISO_5,4,5,80,127,1255165352
5513,16,Jits_ISO_5,0,1,48,94,1255563352
5513,16,Jits_ISO_5,1,1,48,70,1255581592
5513,16,Jits_ISO_5,2,5,56,103,1255595412
5513,16,Jits_ISO_5,3,5,80,127,1255598404
5513,16,Jits_ISO_5,4,5,63,98,1255635196
5513,16,Jits_ISO_5,0,1,48,80,1256032052
5513,16,Jits_ISO_5,1,1,48,68,1256051288
5513,16,Jits_ISO_5,2,5,63,98,1256135008
5513,16,Jits_ISO_5,3,5,56,103,1256164816
5513,16,Jits_ISO_5,4,5,80,127,1256185128
5513,16,Jits_ISO_5,0,1,48,83,1256537432
5513,16,Jits_ISO_5,1,1,48,68,1256557412
5513,16,Jits_ISO_5,2,5,80,127,1256604944
5513,16,Jits_ISO_5,3,5,56,103,1256615136
5513,16,Jits_ISO_5,4,5,63,98,1256624436
5513,16,Jits_ISO_5,0,1,48,96,1257015684
5513,16,Jits_ISO_5,1,1,48,82,1257032280
5513,16,Jits_ISO_5,2,5,56,103,1257104916
5513,16,Jits_ISO_5,3,5,80,127,1257144764
5513,16,Jits_ISO_5,4,5,63,98,1257175408
5513,16,Jits_ISO_5,0,1,48,90,1257492392
5513,16,Jits_ISO_5,1,1,48,74,1257512152
5513,16,Jits_ISO_5,2,5,63,98,1257614688
5513,16,Jits_ISO_5,3,5,80,127,1257625032
5513,16,Jits_ISO_5,4,5,56,103,1257635080
5513,16,Jits_ISO_5,0,1,48,96,1258072868
5513,16,Jits_ISO_5,1,1,48,77,1258095052
5513,16,Jits_ISO_5,2,5,56,103,1258096240
5513,16,Jits_ISO_5,3,5,63,98,1258164648
5513,16,Jits_ISO_5,4,5,80,127,1258174844
5513,16,Jits_ISO_5,0,5,80,127,1258594600
5513,16,Jits_ISO_5,1,5,56,103,1258605172
5513,16,Jits_ISO_5,2,1,48,84,1258616908
5513,16,Jits_ISO_5,3,1,48,71,1258638460
5513,16,Jits_ISO_5,4,5,63,98,1258655264
5513,16,Jits_ISO_5,0,5,80,127,1259104548
5513,16,Jits_ISO_5,1,1,48,83,1259114484
5513,16,Jits_ISO_5,2,1,48,71,1259136044
5513,16,Jits_ISO_5,3,5,56,103,1259165204
5513,16,Jits_ISO_5,4,5,63,98,1259194880
5513,16,Jits_ISO_5,0,5,56,103,1259605356
5513,16,Jits_ISO_5,1,1,48,88,1259606416
5513,16,Jits_ISO_5,2,5,80,127,1259609760
5513,16,Jits_ISO_5,3,1,48,73,1259627932
5513,16,Jits_ISO_5,4,5,63,98,1259645264
5513,16,Jits_ISO_5,0,1,48,77,1260095484
5513,16,Jits_ISO_5,1,1,48,64,1260118008
5513,16,Jits_ISO_5,2,5,56,103,1260134896
5513,16,Jits_ISO_5,3,5,63,98,1260164348
5513,16,Jits_ISO_5,4,5,80,127,1260174768
5513,16,Jits_ISO_5,0,1,48,79,1260596032
5513,16,Jits_ISO_5,1,1,48,67,1260616416
5513,16,Jits_ISO_5,2,5,63,98,1260644836
5513,16,Jits_ISO_5,3,5,80,127,1260655104
5513,16,Jits_ISO_5,4,5,56,103,1260665152
5513,16,Jits_ISO_5,0,5,80,127,1261095144
5513,16,Jits_ISO_5,1,1,48,73,1261125484
5513,16,Jits_ISO_5,2,5,56,103,1261144308
5513,16,Jits_ISO_5,3,1,48,62,1261146256
5513,16,Jits_ISO_5,4,5,63,98,1261149072
5513,16,Jits_ISO_5,0,1,48,67,1261591784
5513,16,Jits_ISO_5,1,1,48,54,1261614696
5513,16,Jits_ISO_5,2,5,56,103,1261624708
5513,16,Jits_ISO_5,3,5,80,127,1261645168
5513,16,Jits_ISO_5,4,5,63,98,1261655364
5513,16,Jits_ISO_5,0,1,48,70,1262064268
5513,16,Jits_ISO_5,1,1,48,54,1262087912
5513,16,Jits_ISO_5,2,5,63,98,1262105100
5513,16,Jits_ISO_5,3,5,56,103,1262134800
5513,16,Jits_ISO_5,4,5,80,127,1262155108
5513,16,Jits_ISO_5,0,1,48,79,1262546108
5513,16,Jits_ISO_5,1,1,48,65,1262567356
5513,16,Jits_ISO_5,2,5,56,103,1262614888
5513,16,Jits_ISO_5,3,5,80,127,1262625308
5513,16,Jits_ISO_5,4,5,63,98,1262694696
5513,16,Jits_ISO_5,0,1,48,95,1263027788
5513,16,Jits_ISO_5,1,1,48,76,1263046496
5513,16,Jits_ISO_5,2,5,63,98,1263105264
5513,16,Jits_ISO_5,3,5,80,127,1263145856
5513,16,Jits_ISO_5,4,5,56,103,1263185224
5513,16,Jits_ISO_5,0,1,48,90,1263533016
5513,16,Jits_ISO_5,1,1,48,69,1263553972
5513,16,Jits_ISO_5,2,5,56,103,1263615200
5513,16,Jits_ISO_5,3,5,63,98,1263624648
5513,16,Jits_ISO_5,4,5,80,127,1263645032
5513,16,Jits_ISO_5,0,1,48,85,1264058152
5513,16,Jits_ISO_5,1,1,48,65,1264079036
5513,16,Jits_ISO_5,2,5,63,98,1264154956
5513,16,Jits_ISO_5,3,5,80,127,1264174444
5513,16,Jits_ISO_5,4,5,56,103,1264194912
5513,16,Jits_ISO_5,0,1,48,81,1264547716
5513,16,Jits_ISO_5,1,1,48,66,1264568072
5513,16,Jits_ISO_5,2,5,56,103,1264595300
5513,16,Jits_ISO_5,3,5,80,127,1264675300
5513,16,Jits_ISO_5,4,5,63,98,1264685420
5513,16,Jits_ISO_5,0,1,48,81,1265040872
5513,16,Jits_ISO_5,1,1,48,71,1265062348
5513,16,Jits_ISO_5,2,5,80,127,1265134980
5513,16,Jits_ISO_5,3,5,63,98,1265145176
5513,16,Jits_ISO_5,4,5,56,103,1265175060
5513,16,Jits_ISO_5,0,1,48,87,1265537552
5513,16,Jits_ISO_5,1,1,48,72,1265558660
5513,16,Jits_ISO_5,2,5,63,98,1265594948
5513,16,Jits_ISO_5,3,5,80,127,1265634812
5513,16,Jits_ISO_5,4,5,56,103,1265695108
5513,16,Jits_ISO_5,0,1,48,92,1266053348
5513,16,Jits_ISO_5,1,1,48,77,1266075196
5513,16,Jits_ISO_5,2,5,63,98,1266104960
5513,16,Jits_ISO_5,3,5,56,103,1266154788
5513,16,Jits_ISO_5,4,5,80,127,1266184672
5513,16,Jits_ISO_5,0,1,48,88,1266564256
5513,16,Jits_ISO_5,1,1,48,68,1266588420
5513,16,Jits_ISO_5,2,5,80,127,1266614900
5513,16,Jits_ISO_5,3,5,63,98,1266625020
5513,16,Jits_ISO_5,4,5,56,103,1266694608
5513,16,Jits_ISO_5,0,1,48,80,1267097712
5513,16,Jits_ISO_5,1,1,48,67,1267119116
5513,16,Jits_ISO_5,2,5,80,127,1267185072
5513,16,Jits_ISO_5,3,5,56,103,1267195192
5513,16,Jits_ISO_5,4,5,63,98,1267198332
5513,16,Jits_ISO_5,0,1,48,73,1267602388
5513,16,Jits_ISO_5,1,1,48,57,1267622892
5513,16,Jits_ISO_5,2,5,56,103,1267625404
5513,16,Jits_ISO_5,3,5,80,127,1267644744
5513,16,Jits_ISO_5,4,5,63,98,1267655088
5513,16,Jits_ISO_5,0,1,48,67,1268104848
5513,16,Jits_ISO_5,1,1,48,54,1268124160
5513,16,Jits_ISO_5,2,5,63,98,1268135344
5513,16,Jits_ISO_5,3,5,56,103,1268175208
5513,16,Jits_ISO_5,4,5,80,127,1268194768
5513,16,Jits_ISO_5,0,1,48,70,1268627296
5513,16,Jits_ISO_5,1,5,63,98,1268634896
5513,16,Jits_ISO_5,2,1,48,56,1268647660
5513,16,Jits_ISO_5,3,5,56,103,1268695408
5513,16,Jits_ISO_5,4,5,80,127,1268698552
5513,16,Jits_ISO_5,0,1,48,78,1269089360
5513,16,Jits_ISO_5,1,5,56,103,1269094928
5513,16,Jits_ISO_5,2,1,48,65,1269111512
5513,16,Jits_ISO_5,3,5,80,127,1269115216
5513,16,Jits_ISO_5,4,5,63,98,1269155152
5513,16,Jits_ISO_5,0,1,48,70,1269593980
5513,16,Jits_ISO_5,1,1,48,57,1269614860
5513,16,Jits_ISO_5,2,5,56,103,1269625072
5513,16,Jits_ISO_5,3,5,63,98,1269644780
5513,16,Jits_ISO_5,4,5,80,127,1269654904
5513,16,Jits_ISO_5,0,1,48,75,1270047472
5513,16,Jits_ISO_5,1,1,48,66,1270068952
5513,16,Jits_ISO_5,2,5,80,127,1270095204
5513,16,Jits_ISO_5,3,5,56,103,1270125028
5513,16,Jits_ISO_5,4,5,63,98,1270165024
5513,16,Jits_ISO_5,0,1,48,80,1270544952
5513,16,Jits_ISO_5,1,1,48,65,1270567400
5513,16,Jits_ISO_5,2,5,80,127,1270605140
5513,16,Jits_ISO_5,3,5,56,103,1270624700
5513,16,Jits_ISO_5,4,5,63,98,1270684996
5513,16,Jits_ISO_5,0,1,48,96,1271041688
5513,16,Jits_ISO_5,1,1,48,71,1271059352
5513,16,Jits_ISO_5,2,5,56,103,1271115148
5513,16,Jits_ISO_5,3,5,80,127,1271134560
5513,16,Jits_ISO_5,4,5,63,98,1271194936
5513,16,Jits_ISO_5,0,1,48,100,1271546392
5513,16,Jits_ISO_5,1,1,48,70,1271564656
5513,16,Jits_ISO_5,2,5,80,127,1271595320
5513,16,Jits_ISO_5,3,5,56,103,1271604764
5513,16,Jits_ISO_5,4,5,63,98,1271644628
5513,16,Jits_ISO_5,0,1,48,104,1272050552
5513,16,Jits_ISO_5,1,1,48,81,1272070536
5513,16,Jits_ISO_5,2,5,63,98,1272095068
5513,16,Jits_ISO_5,3,5,56,103,1272134952
5513,16,Jits_ISO_5,4,5,80,127,1272138240
5513,16,Jits_ISO_5,0,1,48,94,1272580212
5513,16,Jits_ISO_5,1,1,48,78,1272599744
5513,16,Jits_ISO_5,2,5,63,98,1272615132
5513,16,Jits_ISO_5,3,5,80,127,1272655168
5513,16,Jits_ISO_5,4,5,56,103,1272684844
5513,16,Jits_ISO_5,0,1,48,92,1273043708
5513,16,Jits_ISO_5,1,1,48,74,1273063988
5513,16,Jits_ISO_5,2,5,56,103,1273104768
5513,16,Jits_ISO_5,3,5,63,98,1273114888
5513,16,Jits_ISO_5,4,5,80,127,1273144660
5513,16,Jits_ISO_5,0,1,48,106,1273547932
5513,16,Jits_ISO_5,1,1,48,83,1273568212
5513,16,Jits_ISO_5,2,5,80,127,1273595364
5513,16,Jits_ISO_5,3,5,63,98,1273664828
5513,16,Jits_ISO_5,4,5,56,103,1273675024
5513,16,Jits_ISO_5,0,1,48,100,1274059392
5513,16,Jits_ISO_5,1,1,48,80,1274079452
5513,16,Jits_ISO_5,2,5,63,98,1274094840
5513,16,Jits_ISO_5,3,5,56,103,1274164668
5513,16,Jits_ISO_5,4,5,80,127,1274174776
5513,16,Jits_ISO_5,0,1,48,100,1274561460
5513,16,Jits_ISO_5,1,1,48,80,1274581072
5513,16,Jits_ISO_5,2,5,63,98,1274594664
5513,16,Jits_ISO_5,3,5,56,103,1274615124
5513,16,Jits_ISO_5,4,5,80,127,1274655136
5513,16,Jits_ISO_5,0,1,48,93,1275060264
5513,16,Jits_ISO_5,1,1,48,72,1275080768
5513,16,Jits_ISO_5,2,5,56,103,1275104552
5513,16,Jits_ISO_5,3,5,63,98,1275114820
5513,16,Jits_ISO_5,4,5,80,127,1275194696
5513,16,Jits_ISO_5,0,1,48,94,1275582652
5513,16,Jits_ISO_5,1,5,63,98,1275595180
5513,16,Jits_ISO_5,2,1,48,76,1275604136
5513,16,Jits_ISO_5,3,5,56,103,1275624760
5513,16,Jits_ISO_5,4,5,80,127,1275664620
5513,16,Jits_ISO_5,0,1,48,79,1276049944
5513,16,Jits_ISO_5,1,1,48,62,1276071644
5513,16,Jits_ISO_5,2,5,56,103,1276094904
5513,16,Jits_ISO_5,3,5,63,98,1276134768
5513,16,Jits_ISO_5,4,5,80,127,1276174764
5513,16,Jits_ISO_5,0,1,48,96,1276549172
5513,16,Jits_ISO_5,1,1,48,72,1276569748
5513,16,Jits_ISO_5,2,5,80,127,1276594652
5513,16,Jits_ISO_5,3,5,56,103,1276674804
5513,16,Jits_ISO_5,4,5,63,98,1276684776
5513,16,Jits_ISO_5,0,1,48,95,1277047348
5513,16,Jits_ISO_5,1,1,48,80,1277068900
5513,16,Jits_ISO_5,2,5,56,103,1277135080
5513,16,Jits_ISO_5,3,5,63,98,1277138372
5513,16,Jits_ISO_5,4,5,80,127,1277144532
5513,16,Jits_ISO_5,0,1,48,95,1277547616
5513,16,Jits_ISO_5,1,1,48,76,1277570664
5513,16,Jits_ISO_5,2,5,56,103,1277655728
5513,16,Jits_ISO_5,3,5,63,98,1277674828
5513,16,Jits_ISO_5,4,5,80,127,1277685020
5513,16,Jits_ISO_5,0,1,48,104,1278043852
5513,16,Jits_ISO_5,1,1,48,83,1278066300
5513,16,Jits_ISO_5,2,5,63,98,1278115324
5513,16,Jits_ISO_5,3,5,80,127,1278125596
5513,16,Jits_ISO_5,4,5,56,103,1278144784
5513,16,Jits_ISO_5,0,1,48,98,1278535756
5513,16,Jits_ISO_5,1,1,48,84,1278560452
5513,16,Jits_ISO_5,2,5,63,98,1278614872
5513,16,Jits_ISO_5,3,5,56,103,1278694724
5513,16,Jits_ISO_5,4,5,80,127,1278697792
5513,16,Jits_ISO_5,0,1,48,91,1279055724
5513,16,Jits_ISO_5,1,1,48,73,1279082064
5513,16,Jits_ISO_5,2,5,63,98,1279114692
5513,16,Jits_ISO_5,3,5,56,103,1279135004
5513,16,Jits_ISO_5,4,5,80,127,1279164900
5513,16,Jits_ISO_5,0,1,48,93,1279532532
5513,16,Jits_ISO_5,1,1,48,75,1279559796
5513,16,Jits_ISO_5,2,5,56,103,1279615340
5513,16,Jits_ISO_5,3,5,63,98,1279634752
5513,16,Jits_ISO_5,4,5,80,127,1279644948
5513,16,Jits_ISO_5,0,1,48,83,1280038940
5513,16,Jits_ISO_5,1,1,48,68,1280063528
5513,16,Jits_ISO_5,2,5,56,103,1280144684
5513,16,Jits_ISO_5,3,5,63,98,1280174564
5513,16,Jits_ISO_5,4,5,80,127,1280177704
5513,16,Jits_ISO_5,0,1,48,107,1280540468
5513,16,Jits_ISO_5,1,1,48,83,1280563316
5513,16,Jits_ISO_5,2,5,56,103,1280595496
5513,16,Jits_ISO_5,3,5,63,98,1280635136
5513,16,Jits_ISO_5,4,5,80,127,1280694608
5513,16,Jits_ISO_5,0,1,48,94,1281079380
5513,16,Jits_ISO_5,1,1,48,78,1281102876
5513,16,Jits_ISO_5,2,5,56,103,1281114600
5513,16,Jits_ISO_5,3,5,63,98,1281124796
5513,16,Jits_ISO_5,4,5,80,127,1281185180
5513,16,Jits_ISO_5,0,1,48,101,1281591180
5513,16,Jits_ISO_5,1,1,48,86,1281613432
5513,16,Jits_ISO_5,2,5,56,103,1281615392
5513,16,Jits_ISO_5,3,5,80,127,1281634656
5513,16,Jits_ISO_5,4,5,63,98,1281665672
5513,16,Jits_ISO_5,0,1,48,103,1282112848
5513,16,Jits_ISO_5,1,5,80,127,1282114888
5513,16,Jits_ISO_5,2,5,56,103,1282125084
5513,16,Jits_ISO_5,3,1,48,85,1282137552
5513,16,Jits_ISO_5,4,5,63,98,1282144548
5513,16,Jits_ISO_5,0,5,63,98,1282605424
5513,16,Jits_ISO_5,1,5,80,127,1282685392
5513,16,Jits_ISO_5,2,5,56,103,1282694612
5513,16,Jits_ISO_5,3,1,48,71,1282892660
5513,16,Jits_ISO_5,0,1,48,44,1282932420
5513,16,Jits_ISO_5,1,5,80,127,1283164496
5513,16,Jits_ISO_5,2,5,56,103,1283184876
5513,16,Jits_ISO_5,3,5,63,98,1283187944
5513,16,Jits_ISO_5,0,1,48,88,1283510816
5513,16,Jits_ISO_5,1,1,48,65,1283538668
5513,16,Jits_ISO_5,2,5,63,98,1283634508
5513,16,Jits_ISO_5,3,5,80,127,1283637820
5513,16,Jits_ISO_5,4,5,56,103,1283694992
5513,16,Jits_ISO_5,0,1,48,81,1284027268
5513,16,Jits_ISO_5,1,1,48,65,1284051368
5513,16,Jits_ISO_5,2,5,56,103,1284114708
5513,16,Jits_ISO_5,3,5,80,127,1284125128
5513,16,Jits_ISO_5,4,5,63,98,1284165076
5513,16,Jits_ISO_5,0,1,48,84,1284551572
5513,16,Jits_ISO_5,1,1,48,62,1284574716
5513,16,Jits_ISO_5,2,5,56,103,1284594968
5513,16,Jits_ISO_5,3,5,63,98,1284654460
5513,16,Jits_ISO_5,4,5,80,127,1284664680
5513,16,Jits_ISO_5,0,1,48,79,1285057172
5513,16,Jits_ISO_5,1,1,48,57,1285081420
5513,16,Jits_ISO_5,2,5,63,98,1285104980
5513,16,Jits_ISO_5,3,5,80,127,1285144992
5513,16,Jits_ISO_5,4,5,56,103,1285184936
5513,16,Jits_ISO_5,0,1,48,84,1285527252
5513,16,Jits_ISO_5,1,1,48,61,1285550228
5513,16,Jits_ISO_5,2,5,56,103,1285604656
5513,16,Jits_ISO_5,3,5,63,98,1285684608
5513,16,Jits_ISO_5,4,5,80,127,1285687824
5513,16,Jits_ISO_5,0,9999,9999,9999,1226392648
5513,16,Jits_ISO_5,1,9999,9999,9999,1226892348
5513,16,Jits_ISO_5,2,9999,9999,9999,1227392064
5513,16,Jits_ISO_5,3,9999,9999,9999,1227892804
5513,16,Jits_ISO_5,4,9999,9999,9999,1228392520
5513,16,Jits_ISO_5,5,9999,9999,9999,1228892224
5513,16,Jits_ISO_5,6,9999,9999,9999,1229393004
5513,16,Jits_ISO_5,7,9999,9999,9999,1229892728
5513,16,Jits_ISO_5,8,9999,9999,9999,1230392420
5513,16,Jits_ISO_5,9,9999,9999,9999,1230892128
5513,16,Jits_ISO_5,10,9999,9999,9999,1231392828
5513,16,Jits_ISO_5,11,9999,9999,9999,1231892544
5513,16,Jits_ISO_5,12,9999,9999,9999,1232392288
5513,16,Jits_ISO_5,13,9999,9999,9999,1232893028
5513,16,Jits_ISO_5,14,9999,9999,9999,1233392724
5513,16,Jits_ISO_5,15,9999,9999,9999,1233892420
5513,16,Jits_ISO_5,16,9999,9999,9999,1234392152
5513,16,Jits_ISO_5,17,9999,9999,9999,1234892908
5513,16,Jits_ISO_5,18,9999,9999,9999,1235392600
5513,16,Jits_ISO_5,19,9999,9999,9999,1235892336
5513,16,Jits_ISO_5,20,9999,9999,9999,1236393040
5513,16,Jits_ISO_5,21,9999,9999,9999,1236892752
5513,16,Jits_ISO_5,22,9999,9999,9999,1237392444
5513,16,Jits_ISO_5,23,9999,9999,9999,1237892160
5513,16,Jits_ISO_5,24,9999,9999,9999,1238392920
5513,16,Jits_ISO_5,25,9999,9999,9999,1238892660
5513,16,Jits_ISO_5,26,9999,9999,9999,1239392348
5513,16,Jits_ISO_5,27,9999,9999,9999,1239893080
5513,16,Jits_ISO_5,28,9999,9999,9999,1240392820
5513,16,Jits_ISO_5,29,9999,9999,9999,1240892476
5513,16,Jits_ISO_5,30,9999,9999,9999,1241392236
5513,16,Jits_ISO_5,31,9999,9999,9999,1241892980
5513,16,Jits_ISO_5,32,9999,9999,9999,1242392636
5513,16,Jits_ISO_5,33,9999,9999,9999,1242892384
5513,16,Jits_ISO_5,34,9999,9999,9999,1243392056
5513,16,Jits_ISO_5,35,9999,9999,9999,1243892840
5513,16,Jits_ISO_5,36,9999,9999,9999,1244392560
5513,16,Jits_ISO_5,37,9999,9999,9999,1244892220
5513,16,Jits_ISO_5,38,9999,9999,9999,1245393004
5513,16,Jits_ISO_5,39,9999,9999,9999,1245892720
5513,16,Jits_ISO_5,40,9999,9999,9999,1246392396
5513,16,Jits_ISO_5,41,9999,9999,9999,1246892144
5513,16,Jits_ISO_5,42,9999,9999,9999,1247392876
5513,16,Jits_ISO_5,43,9999,9999,9999,1247892548
5513,16,Jits_ISO_5,44,9999,9999,9999,1248392296
5513,16,Jits_ISO_5,45,9999,9999,9999,1248893012
5513,16,Jits_ISO_5,46,9999,9999,9999,1249392760
5513,16,Jits_ISO_5,47,9999,9999,9999,1249892440
5513,16,Jits_ISO_5,48,9999,9999,9999,1250392116
5513,16,Jits_ISO_5,49,9999,9999,9999,1250892916
5513,16,Jits_ISO_5,50,9999,9999,9999,1251392580
5513,16,Jits_ISO_5,51,9999,9999,9999,1251892308
5513,16,Jits_ISO_5,52,9999,9999,9999,1252393024
5513,16,Jits_ISO_5,53,9999,9999,9999,1252892784
5513,16,Jits_ISO_5,54,9999,9999,9999,1253392460
5513,16,Jits_ISO_5,55,9999,9999,9999,1253892148
5513,16,Jits_ISO_5,56,9999,9999,9999,1254392944
5513,16,Jits_ISO_5,57,9999,9999,9999,1254892624
5513,16,Jits_ISO_5,58,9999,9999,9999,1255392380
5513,16,Jits_ISO_5,59,9999,9999,9999,1255893084
5513,16,Jits_ISO_5,60,9999,9999,9999,1256392764
5513,16,Jits_ISO_5,61,9999,9999,9999,1256892512
5513,16,Jits_ISO_5,62,9999,9999,9999,1257392188
5513,16,Jits_ISO_5,63,9999,9999,9999,1257892980
5513,16,Jits_ISO_5,64,9999,9999,9999,1258392656
5513,16,Jits_ISO_5,65,9999,9999,9999,1258892404
5513,16,Jits_ISO_5,66,9999,9999,9999,1259392092
5513,16,Jits_ISO_5,67,9999,9999,9999,1259892812
5513,16,Jits_ISO_5,68,9999,9999,9999,1260392504
5513,16,Jits_ISO_5,69,9999,9999,9999,1260892256
5513,16,Jits_ISO_5,70,9999,9999,9999,1261392964
5513,16,Jits_ISO_5,71,9999,9999,9999,1261892724
5513,16,Jits_ISO_5,72,9999,9999,9999,1262392396
5513,16,Jits_ISO_5,73,9999,9999,9999,1262892120
5513,16,Jits_ISO_5,74,9999,9999,9999,1263392836
5513,16,Jits_ISO_5,75,9999,9999,9999,1263892580
5513,16,Jits_ISO_5,76,9999,9999,9999,1264392264
5513,16,Jits_ISO_5,77,9999,9999,9999,1264892984
5513,16,Jits_ISO_5,78,9999,9999,9999,1265392736
5513,16,Jits_ISO_5,79,9999,9999,9999,1265892412
5513,16,Jits_ISO_5,80,9999,9999,9999,1266392160
5513,16,Jits_ISO_5,81,9999,9999,9999,1266892880
5513,16,Jits_ISO_5,82,9999,9999,9999,1267392628
5513,16,Jits_ISO_5,83,9999,9999,9999,1267892300
5513,16,Jits_ISO_5,84,9999,9999,9999,1268393028
5513,16,Jits_ISO_5,85,9999,9999,9999,1268892772
5513,16,Jits_ISO_5,86,9999,9999,9999,1269392440
5513,16,Jits_ISO_5,87,9999,9999,9999,1269892192
5513,16,Jits_ISO_5,88,9999,9999,9999,1270392888
5513,16,Jits_ISO_5,89,9999,9999,9999,1270892636
5513,16,Jits_ISO_5,90,9999,9999,9999,1271392312
5513,16,Jits_ISO_5,91,9999,9999,9999,1271893076
5513,16,Jits_ISO_5,92,9999,9999,9999,1272392764
5513,16,Jits_ISO_5,93,9999,9999,9999,1272892540
5513,16,Jits_ISO_5,94,9999,9999,9999,1273392184
5513,16,Jits_ISO_5,95,9999,9999,9999,1273892972
5513,16,Jits_ISO_5,96,9999,9999,9999,1274392652
5513,16,Jits_ISO_5,97,9999,9999,9999,1274892348
5513,16,Jits_ISO_5,98,9999,9999,9999,1275392124
5513,16,Jits_ISO_5,99,9999,9999,9999,1275892840
5513,16,Jits_ISO_5,100,9999,9999,9999,1276392516
5513,16,Jits_ISO_5,101,9999,9999,9999,1276892268
5513,16,Jits_ISO_5,102,9999,9999,9999,1277392980
5513,16,Jits_ISO_5,103,9999,9999,9999,1277892660
5513,16,Jits_ISO_5,104,9999,9999,9999,1278392408
5513,16,Jits_ISO_5,105,9999,9999,9999,1278892100
5513,16,Jits_ISO_5,106,9999,9999,9999,1279392824
5513,16,Jits_ISO_5,107,9999,9999,9999,1279892572
5513,16,Jits_ISO_5,108,9999,9999,9999,1280392316
5513,16,Jits_ISO_5,109,9999,9999,9999,1280893036
5513,16,Jits_ISO_5,110,9999,9999,9999,1281392728
5513,16,Jits_ISO_5,111,9999,9999,9999,1281892476
5513,16,Jits_ISO_5,112,9999,9999,9999,1282392176
5513,16,Jits_ISO_5,113,9999,9999,9999,1282892880
5513,16,Jits_ISO_5,114,9999,9999,9999,1283392592
5513,16,Jits_ISO_5,115,9999,9999,9999,1283892292
5513,16,Jits_ISO_5,116,9999,9999,9999,1284393064
5513,16,Jits_ISO_5,117,9999,9999,9999,1284892728
5513,16,Jits_ISO_5,118,9999,9999,9999,1285392476
5513,16,Jits_ISO_5,119,9999,9999,9999,1285892148
5514,7,Jits_ISO_8,0,5,56,103,1296979264
5514,7,Jits_ISO_8,1,5,63,98,1296982588
5514,7,Jits_ISO_8,2,5,80,127,1296985556
5514,7,Jits_ISO_8,3,1,48,48,1297342448
5514,7,Jits_ISO_8,0,5,56,103,1297779264
5514,7,Jits_ISO_8,1,5,63,98,1297782360
5514,7,Jits_ISO_8,2,5,80,127,1297785408
5514,7,Jits_ISO_8,3,1,48,56,1298005732
5514,7,Jits_ISO_8,0,5,80,127,1298519344
5514,7,Jits_ISO_8,1,5,63,98,1298608436
5514,7,Jits_ISO_8,2,5,56,103,1298618928
5514,7,Jits_ISO_8,3,1,48,75,1298629244
5514,7,Jits_ISO_8,4,1,48,54,1298652064
5514,7,Jits_ISO_8,0,5,56,103,1299338700
5514,7,Jits_ISO_8,1,5,63,98,1299349344
5514,7,Jits_ISO_8,2,1,48,71,1299356128
5514,7,Jits_ISO_8,3,5,80,127,1299439020
5514,7,Jits_ISO_8,0,5,63,98,1300108752
5514,7,Jits_ISO_8,1,1,48,75,1300123032
5514,7,Jits_ISO_8,2,5,80,127,1300139320
5514,7,Jits_ISO_8,3,1,48,56,1300147076
5514,7,Jits_ISO_8,4,5,56,103,1300169048
5514,7,Jits_ISO_8,0,1,48,67,1300851256
5514,7,Jits_ISO_8,1,1,48,54,1300873484
5514,7,Jits_ISO_8,2,5,56,103,1300909404
5514,7,Jits_ISO_8,3,5,80,127,1301008888
5514,7,Jits_ISO_8,4,5,63,98,1301059116
5514,7,Jits_ISO_8,0,1,48,81,1301698920
5514,7,Jits_ISO_8,1,5,56,103,1301709132
5514,7,Jits_ISO_8,2,1,48,59,1301721972
5514,7,Jits_ISO_8,3,5,80,127,1301759388
5514,7,Jits_ISO_8,4,5,63,98,1301799180
5514,7,Jits_ISO_8,0,1,48,72,1302494344
5514,7,Jits_ISO_8,1,1,48,55,1302515900
5514,7,Jits_ISO_8,2,5,80,127,1302538560
5514,7,Jits_ISO_8,3,5,63,98,1302569212
5514,7,Jits_ISO_8,4,5,56,103,1302639048
5514,7,Jits_ISO_8,0,1,48,69,1303258176
5514,7,Jits_ISO_8,1,5,63,98,1303369020
5514,7,Jits_ISO_8,2,5,56,103,1303398920
5514,7,Jits_ISO_8,3,5,80,127,1303459164
5514,7,Jits_ISO_8,0,1,48,59,1304101340
5514,7,Jits_ISO_8,1,5,56,103,1304109456
5514,7,Jits_ISO_8,2,5,80,127,1304112448
5514,7,Jits_ISO_8,3,5,63,98,1304229268
5514,7,Jits_ISO_8,0,1,48,65,1304841400
5514,7,Jits_ISO_8,1,5,56,103,1304989036
5514,7,Jits_ISO_8,2,5,80,127,1305028976
5514,7,Jits_ISO_8,3,5,63,98,1305039172
5514,7,Jits_ISO_8,0,1,48,58,1305683096
5514,7,Jits_ISO_8,1,5,56,103,1305748832
5514,7,Jits_ISO_8,2,5,80,127,1305769368
5514,7,Jits_ISO_8,3,5,63,98,1305849220
5514,7,Jits_ISO_8,0,1,48,48,1306410256
5514,7,Jits_ISO_8,1,5,80,127,1306539384
5514,7,Jits_ISO_8,2,5,56,103,1306638664
5514,7,Jits_ISO_8,3,5,63,98,1306648860
5514,7,Jits_ISO_8,0,1,48,65,1307243632
5514,7,Jits_ISO_8,1,5,63,98,1307309444
5514,7,Jits_ISO_8,2,5,80,127,1307368700
5514,7,Jits_ISO_8,3,5,56,103,1307379044
5514,7,Jits_ISO_8,0,5,56,103,1308109156
5514,7,Jits_ISO_8,1,1,48,59,1308119620
5514,7,Jits_ISO_8,2,1,48,43,1308147324
5514,7,Jits_ISO_8,3,5,63,98,1308179032
5514,7,Jits_ISO_8,4,5,80,127,1308182248
5514,7,Jits_ISO_8,0,1,48,51,1308841028
5514,7,Jits_ISO_8,1,5,63,98,1308938736
5514,7,Jits_ISO_8,2,5,56,103,1308988964
5514,7,Jits_ISO_8,3,5,80,127,1308991956
5514,7,Jits_ISO_8,0,1,48,60,1309637352
5514,7,Jits_ISO_8,1,5,56,103,1309698440
5514,7,Jits_ISO_8,2,5,80,127,1309701356
5514,7,Jits_ISO_8,3,5,63,98,1309788880
5514,7,Jits_ISO_8,0,1,48,57,1310444904
5514,7,Jits_ISO_8,1,5,63,98,1310540248
5514,7,Jits_ISO_8,2,5,56,103,1310629336
5514,7,Jits_ISO_8,3,5,80,127,1310658792
5514,7,Jits_ISO_8,0,1,48,66,1311261108
5514,7,Jits_ISO_8,1,1,48,50,1311291608
5514,7,Jits_ISO_8,2,5,56,103,1311328720
5514,7,Jits_ISO_8,3,5,63,98,1311429108
5514,7,Jits_ISO_8,4,5,80,127,1311458784
5514,7,Jits_ISO_8,0,1,48,57,1312077936
5514,7,Jits_ISO_8,1,1,48,43,1312108556
5514,7,Jits_ISO_8,2,5,63,98,1312148812
5514,7,Jits_ISO_8,3,5,56,103,1312159084
5514,7,Jits_ISO_8,4,5,80,127,1312249276
5514,7,Jits_ISO_8,0,1,48,55,1312965664
5514,7,Jits_ISO_8,1,5,63,98,1312969068
5514,7,Jits_ISO_8,2,5,56,103,1313048860
5514,7,Jits_ISO_8,3,5,80,127,1313052004
5514,7,Jits_ISO_8,0,5,80,127,1313728844
5514,7,Jits_ISO_8,1,5,63,98,1313749376
5514,7,Jits_ISO_8,2,5,56,103,1313808796
5514,7,Jits_ISO_8,3,1,48,52,1313821352
5514,7,Jits_ISO_8,0,1,48,57,1314535112
5514,7,Jits_ISO_8,1,5,56,103,1314568568
5514,7,Jits_ISO_8,2,5,63,98,1314588944
5514,7,Jits_ISO_8,3,5,80,127,1314592312
5514,7,Jits_ISO_8,0,1,48,51,1315266328
5514,7,Jits_ISO_8,1,5,63,98,1315308852
5514,7,Jits_ISO_8,2,5,80,127,1315388732
5514,7,Jits_ISO_8,3,5,56,103,1315398928
5514,7,Jits_ISO_8,0,1,48,49,1316070916
5514,7,Jits_ISO_8,1,5,63,98,1316129084
5514,7,Jits_ISO_8,2,5,56,103,1316148600
5514,7,Jits_ISO_8,3,5,80,127,1316198636
5514,7,Jits_ISO_8,0,1,48,50,1316858116
5514,7,Jits_ISO_8,1,5,80,127,1316928964
5514,7,Jits_ISO_8,2,5,63,98,1316968888
5514,7,Jits_ISO_8,3,5,56,103,1316989348
5514,7,Jits_ISO_8,0,1,48,47,1317673692
5514,7,Jits_ISO_8,1,5,56,103,1317768516
5514,7,Jits_ISO_8,2,5,63,98,1317778712
5514,7,Jits_ISO_8,3,5,80,127,1317799172
5514,7,Jits_ISO_8,0,1,48,36,1318474400
5514,7,Jits_ISO_8,1,5,56,103,1318498636
5514,7,Jits_ISO_8,2,5,63,98,1318588756
5514,7,Jits_ISO_8,3,5,80,127,1318649220
5514,7,Jits_ISO_8,0,5,80,127,1319329068
5514,7,Jits_ISO_8,1,5,56,103,1319339712
5514,7,Jits_ISO_8,2,1,48,42,1319342980
5514,7,Jits_ISO_8,3,5,63,98,1319408864
5514,7,Jits_ISO_8,0,1,48,43,1320078488
5514,7,Jits_ISO_8,1,5,63,98,1320158452
5514,7,Jits_ISO_8,2,5,80,127,1320248824
5514,7,Jits_ISO_8,3,5,56,103,1320258868
5514,7,Jits_ISO_8,0,1,48,58,1320882084
5514,7,Jits_ISO_8,1,5,63,98,1320898976
5514,7,Jits_ISO_8,2,5,80,127,1320949252
5514,7,Jits_ISO_8,3,5,56,103,1321008656
5514,7,Jits_ISO_8,0,1,48,68,1321640880
5514,7,Jits_ISO_8,1,5,56,103,1321729544
5514,7,Jits_ISO_8,2,5,80,127,1321778564
5514,7,Jits_ISO_8,3,5,63,98,1321799024
5514,7,Jits_ISO_8,0,1,48,77,1322404768
5514,7,Jits_ISO_8,1,1,48,62,1322424080
5514,7,Jits_ISO_8,2,5,56,103,1322498588
5514,7,Jits_ISO_8,3,5,80,127,1322558916
5514,7,Jits_ISO_8,4,5,63,98,1322628744
5514,7,Jits_ISO_8,0,1,48,65,1323172336
5514,7,Jits_ISO_8,1,5,56,103,1323299272
5514,7,Jits_ISO_8,2,5,80,127,1323328748
5514,7,Jits_ISO_8,3,5,63,98,1323358576
5514,7,Jits_ISO_8,0,1,48,64,1323947768
5514,7,Jits_ISO_8,1,5,56,103,1324138860
5514,7,Jits_ISO_8,2,5,80,127,1324159544
5514,7,Jits_ISO_8,3,5,63,98,1324218664
5514,7,Jits_ISO_8,0,1,48,60,1324738184
5514,7,Jits_ISO_8,1,5,80,127,1325018588
5514,7,Jits_ISO_8,2,5,56,103,1325028784
5514,7,Jits_ISO_8,3,5,63,98,1325038904
5514,7,Jits_ISO_8,0,1,48,63,1325574380
5514,7,Jits_ISO_8,1,5,56,103,1325779488
5514,7,Jits_ISO_8,2,5,80,127,1325819208
5514,7,Jits_ISO_8,3,5,63,98,1325848884
5514,7,Jits_ISO_8,0,1,48,64,1326338960
5514,7,Jits_ISO_8,1,5,56,103,1326549308
5514,7,Jits_ISO_8,2,5,63,98,1326579060
5514,7,Jits_ISO_8,3,5,80,127,1326619000
5514,7,Jits_ISO_8,0,1,48,57,1327112368
5514,7,Jits_ISO_8,1,5,80,127,1327298896
5514,7,Jits_ISO_8,2,5,63,98,1327349396
5514,7,Jits_ISO_8,3,5,56,103,1327368512
5514,7,Jits_ISO_8,0,1,48,56,1327836852
5514,7,Jits_ISO_8,1,5,56,103,1328129392
5514,7,Jits_ISO_8,2,5,80,127,1328199024
5514,7,Jits_ISO_8,3,5,63,98,1328258588
5514,7,Jits_ISO_8,0,1,48,65,1328636548
5514,7,Jits_ISO_8,1,5,80,127,1328929248
5514,7,Jits_ISO_8,2,5,63,98,1329019264
5514,7,Jits_ISO_8,3,5,56,103,1329038824
5514,7,Jits_ISO_8,0,1,48,55,1329476988
5514,7,Jits_ISO_8,1,5,63,98,1329749292
5514,7,Jits_ISO_8,2,5,56,103,1329768704
5514,7,Jits_ISO_8,3,5,80,127,1329808644
5514,7,Jits_ISO_8,0,1,48,60,1330288228
5514,7,Jits_ISO_8,1,5,80,127,1330509292
5514,7,Jits_ISO_8,2,5,63,98,1330528628
5514,7,Jits_ISO_8,3,5,56,103,1330608424
5514,7,Jits_ISO_8,0,1,48,57,1331032784
5514,7,Jits_ISO_8,1,5,63,98,1331298732
5514,7,Jits_ISO_8,2,5,56,103,1331409392
5514,7,Jits_ISO_8,3,5,80,127,1331412460
5514,7,Jits_ISO_8,0,1,48,58,1331916768
5514,7,Jits_ISO_8,1,5,63,98,1332119040
5514,7,Jits_ISO_8,2,5,56,103,1332129308
5514,7,Jits_ISO_8,3,5,80,127,1332132300
5514,7,Jits_ISO_8,0,1,48,52,1332619300
5514,7,Jits_ISO_8,1,5,56,103,1332899252
5514,7,Jits_ISO_8,2,5,80,127,1333019204
5514,7,Jits_ISO_8,3,5,63,98,1333058796
5514,7,Jits_ISO_8,4,1,48,54,1333374100
5514,7,Jits_ISO_8,0,5,56,103,1333719360
5514,7,Jits_ISO_8,1,5,80,127,1333799384
5514,7,Jits_ISO_8,2,5,63,98,1333818672
5514,7,Jits_ISO_8,0,1,48,49,1334232136
5514,7,Jits_ISO_8,1,5,56,103,1334519208
5514,7,Jits_ISO_8,2,5,63,98,1334628772
5514,7,Jits_ISO_8,3,5,80,127,1334632360
5514,7,Jits_ISO_8,0,1,48,45,1335072292
5514,7,Jits_ISO_8,1,5,56,103,1335348608
5514,7,Jits_ISO_8,2,5,80,127,1335379404
5514,7,Jits_ISO_8,3,5,63,98,1335398672
5514,7,Jits_ISO_8,4,1,48,49,1335762888
5514,7,Jits_ISO_8,0,5,63,98,1336129004
5514,7,Jits_ISO_8,1,5,56,103,1336139200
5514,7,Jits_ISO_8,2,5,80,127,1336149396
5514,7,Jits_ISO_8,3,1,48,51,1336486568
5514,7,Jits_ISO_8,0,5,80,127,1336919416
5514,7,Jits_ISO_8,1,5,56,103,1336968572
5514,7,Jits_ISO_8,2,5,63,98,1337008512
5514,7,Jits_ISO_8,3,1,48,48,1337202604
5514,7,Jits_ISO_8,0,5,80,127,1337738696
5514,7,Jits_ISO_8,1,5,63,98,1337759080
5514,7,Jits_ISO_8,2,5,56,103,1337809356
5514,7,Jits_ISO_8,0,1,48,54,1338252884
5514,7,Jits_ISO_8,1,5,80,127,1338548580
5514,7,Jits_ISO_8,2,5,56,103,1338579232
5514,7,Jits_ISO_8,3,5,63,98,1338649060
5514,7,Jits_ISO_8,4,1,48,58,1338947620
5514,7,Jits_ISO_8,0,5,56,103,1339398512
5514,7,Jits_ISO_8,1,5,80,127,1339408632
5514,7,Jits_ISO_8,2,5,63,98,1339448668
5514,7,Jits_ISO_8,3,1,48,53,1339664464
5514,7,Jits_ISO_8,0,5,56,103,1340109224
5514,7,Jits_ISO_8,1,5,63,98,1340128492
5514,7,Jits_ISO_8,2,5,80,127,1340199216
5514,7,Jits_ISO_8,3,1,48,49,1340449652
5514,7,Jits_ISO_8,0,5,63,98,1340929324
5514,7,Jits_ISO_8,1,5,80,127,1340988772
5514,7,Jits_ISO_8,2,5,56,103,1341009304
5514,7,Jits_ISO_8,3,1,48,40,1341271720
5514,7,Jits_ISO_8,0,5,80,127,1341718992
5514,7,Jits_ISO_8,1,5,56,103,1341748620
5514,7,Jits_ISO_8,2,5,63,98,1341779344
5514,7,Jits_ISO_8,3,1,48,38,1342029180
5514,7,Jits_ISO_8,0,5,56,103,1342518812
5514,7,Jits_ISO_8,1,5,63,98,1342578908
5514,7,Jits_ISO_8,2,5,80,127,1342638476
5514,7,Jits_ISO_8,3,1,48,36,1342791592
5514,7,Jits_ISO_8,0,5,80,127,1343338988
5514,7,Jits_ISO_8,1,5,56,103,1343359300
5514,7,Jits_ISO_8,2,5,63,98,1343429204
5514,7,Jits_ISO_8,3,1,48,36,1343601056
5514,7,Jits_ISO_8,0,5,80,127,1344138564
5514,7,Jits_ISO_8,1,5,63,98,1344159096
5514,7,Jits_ISO_8,2,5,56,103,1344188996
5514,7,Jits_ISO_8,3,1,48,35,1344400552
5514,7,Jits_ISO_8,0,5,80,127,1344929212
5514,7,Jits_ISO_8,1,5,63,98,1344948624
5514,7,Jits_ISO_8,2,5,56,103,1345009088
5514,7,Jits_ISO_8,3,1,48,36,1345207160
5514,7,Jits_ISO_8,0,5,80,127,1345728856
5514,7,Jits_ISO_8,1,5,56,103,1345829108
5514,7,Jits_ISO_8,2,5,63,98,1345858884
5514,7,Jits_ISO_8,3,1,48,42,1346003956
5514,7,Jits_ISO_8,0,5,63,98,1346519364
5514,7,Jits_ISO_8,1,5,80,127,1346568968
5514,7,Jits_ISO_8,2,5,56,103,1346588980
5514,7,Jits_ISO_8,3,1,48,54,1346845472
5514,7,Jits_ISO_8,0,5,80,127,1347359080
5514,7,Jits_ISO_8,1,5,56,103,1347389000
5514,7,Jits_ISO_8,2,5,63,98,1347391992
5514,7,Jits_ISO_8,3,1,48,73,1347651196
5514,7,Jits_ISO_8,4,1,48,57,1347678524
5514,7,Jits_ISO_8,0,5,63,98,1348188412
5514,7,Jits_ISO_8,1,5,56,103,1348228428
5514,7,Jits_ISO_8,2,5,80,127,1348249032
5514,7,Jits_ISO_8,3,1,48,64,1348469956
5514,7,Jits_ISO_8,4,1,48,52,1348493900
5514,7,Jits_ISO_8,0,5,80,127,1348928932
5514,7,Jits_ISO_8,1,5,63,98,1349009028
5514,7,Jits_ISO_8,2,5,56,103,1349048896
5514,7,Jits_ISO_8,3,1,48,70,1349262844
5514,7,Jits_ISO_8,4,1,48,53,1349297068
5514,7,Jits_ISO_8,0,5,63,98,1349749188
5514,7,Jits_ISO_8,1,5,80,127,1349828912
5514,7,Jits_ISO_8,2,5,56,103,1349848400
5514,7,Jits_ISO_8,0,1,48,64,1350188876
5514,7,Jits_ISO_8,1,1,48,52,1350221688
5514,7,Jits_ISO_8,2,5,56,103,1350588864
5514,7,Jits_ISO_8,3,5,63,98,1350599060
5514,7,Jits_ISO_8,4,5,80,127,1350638924
5514,7,Jits_ISO_8,5,1,48,82,1350946428
5514,7,Jits_ISO_8,6,1,48,59,1350975348
5514,7,Jits_ISO_8,0,5,56,103,1351308828
5514,7,Jits_ISO_8,1,5,80,127,1351311896
5514,7,Jits_ISO_8,2,5,63,98,1351448932
5514,7,Jits_ISO_8,3,1,48,74,1351695160
5514,7,Jits_ISO_8,4,1,48,60,1351724060
5514,7,Jits_ISO_8,0,5,56,103,1352099100
5514,7,Jits_ISO_8,1,5,63,98,1352189312
5514,7,Jits_ISO_8,2,5,80,127,1352259020
5514,7,Jits_ISO_8,3,1,48,69,1352555892
5514,7,Jits_ISO_8,0,1,48,56,1352585748
5514,7,Jits_ISO_8,1,5,63,98,1352978724
5514,7,Jits_ISO_8,2,5,80,127,1352981940
5514,7,Jits_ISO_8,3,5,56,103,1353039140
5514,7,Jits_ISO_8,4,1,48,72,1353350928
5514,7,Jits_ISO_8,5,1,48,56,1353375096
5514,7,Jits_ISO_8,0,5,80,127,1353818640
5514,7,Jits_ISO_8,1,5,56,103,1353838876
5514,7,Jits_ISO_8,2,5,63,98,1353849072
5514,7,Jits_ISO_8,3,1,48,67,1354163476
5514,7,Jits_ISO_8,0,1,48,53,1354186116
5514,7,Jits_ISO_8,1,5,56,103,1354529200
5514,7,Jits_ISO_8,2,5,63,98,1354539324
5514,7,Jits_ISO_8,3,5,80,127,1354608880
5514,7,Jits_ISO_8,4,1,48,68,1354919840
5514,7,Jits_ISO_8,5,1,48,52,1354942216
5514,7,Jits_ISO_8,0,5,80,127,1355328884
5514,7,Jits_ISO_8,1,5,56,103,1355378936
5514,7,Jits_ISO_8,2,5,63,98,1355429140
5514,7,Jits_ISO_8,3,1,48,69,1355650652
5514,7,Jits_ISO_8,4,1,48,55,1355671608
5514,7,Jits_ISO_8,0,5,56,103,1356208768
5514,7,Jits_ISO_8,1,5,63,98,1356218668
5514,7,Jits_ISO_8,2,5,80,127,1356258828
5514,7,Jits_ISO_8,3,1,48,66,1356534576
5514,7,Jits_ISO_8,4,1,48,50,1356557496
5514,7,Jits_ISO_8,0,5,56,103,1356948712
5514,7,Jits_ISO_8,1,5,63,98,1356988724
5514,7,Jits_ISO_8,2,5,80,127,1357038852
5514,7,Jits_ISO_8,3,1,48,59,1357281716
5514,7,Jits_ISO_8,0,5,80,127,1357708796
5514,7,Jits_ISO_8,1,5,56,103,1357758848
5514,7,Jits_ISO_8,2,5,63,98,1357779532
5514,7,Jits_ISO_8,3,1,48,59,1358030196
5514,7,Jits_ISO_8,4,1,48,45,1358055856
5514,7,Jits_ISO_8,0,5,80,127,1358518780
5514,7,Jits_ISO_8,1,5,63,98,1358579024
5514,7,Jits_ISO_8,2,5,56,103,1358658916
5514,7,Jits_ISO_8,3,1,48,54,1358829696
5514,7,Jits_ISO_8,0,5,80,127,1359298800
5514,7,Jits_ISO_8,1,5,56,103,1359338960
5514,7,Jits_ISO_8,2,5,63,98,1359359196
5514,7,Jits_ISO_8,3,1,48,62,1359619068
5514,7,Jits_ISO_8,0,5,56,103,1360148936
5514,7,Jits_ISO_8,1,5,80,127,1360159204
5514,7,Jits_ISO_8,2,5,63,98,1360199020
5514,7,Jits_ISO_8,3,1,48,60,1360440764
5514,7,Jits_ISO_8,4,1,48,40,1360480376
5514,7,Jits_ISO_8,0,5,56,103,1361019464
5514,7,Jits_ISO_8,1,5,63,98,1361059180
5514,7,Jits_ISO_8,2,5,80,127,1361062764
5514,7,Jits_ISO_8,3,1,48,64,1361330812
5514,7,Jits_ISO_8,4,1,48,49,1361357540
5514,7,Jits_ISO_8,0,5,63,98,1361709548
5514,7,Jits_ISO_8,1,5,80,127,1361749488
5514,7,Jits_ISO_8,2,5,56,103,1361818944
5514,7,Jits_ISO_8,3,1,48,76,1362047880
5514,7,Jits_ISO_8,4,1,48,58,1362068308
5514,7,Jits_ISO_8,0,5,63,98,1362498840
5514,7,Jits_ISO_8,1,5,56,103,1362578788
5514,7,Jits_ISO_8,2,5,80,127,1362639328
5514,7,Jits_ISO_8,3,1,48,77,1362856492
5514,7,Jits_ISO_8,4,1,48,63,1362876320
5514,7,Jits_ISO_8,0,5,80,127,1363308884
5514,7,Jits_ISO_8,1,5,63,98,1363359088
5514,7,Jits_ISO_8,2,5,56,103,1363388836
5514,7,Jits_ISO_8,3,1,48,68,1363632528
5514,7,Jits_ISO_8,4,1,48,54,1363654300
5514,7,Jits_ISO_8,0,5,56,103,1364098708
5514,7,Jits_ISO_8,1,5,63,98,1364148612
5514,7,Jits_ISO_8,2,5,80,127,1364158808
5514,7,Jits_ISO_8,3,1,48,69,1364412236
5514,7,Jits_ISO_8,4,1,48,55,1364433564
5514,7,Jits_ISO_8,0,5,56,103,1364909584
5514,7,Jits_ISO_8,1,5,63,98,1365019276
5514,7,Jits_ISO_8,2,5,80,127,1365038612
5514,7,Jits_ISO_8,3,1,48,82,1365233904
5514,7,Jits_ISO_8,4,1,48,63,1365258540
5514,7,Jits_ISO_8,0,5,63,98,1365709156
5514,7,Jits_ISO_8,1,5,80,127,1365759360
5514,7,Jits_ISO_8,2,5,56,103,1365848620
5514,7,Jits_ISO_8,3,1,48,69,1366011008
5514,7,Jits_ISO_8,0,5,63,98,1366498600
5514,7,Jits_ISO_8,1,5,80,127,1366529548
5514,7,Jits_ISO_8,2,5,56,103,1366618508
5514,7,Jits_ISO_8,3,1,48,62,1366831708
5514,7,Jits_ISO_8,0,5,63,98,1367298452
5514,7,Jits_ISO_8,1,5,56,103,1367308648
5514,7,Jits_ISO_8,2,5,80,127,1367408992
5514,7,Jits_ISO_8,3,1,48,66,1367657784
5514,7,Jits_ISO_8,0,5,63,98,1368198500
5514,7,Jits_ISO_8,1,5,80,127,1368229372
5514,7,Jits_ISO_8,2,5,56,103,1368258900
5514,7,Jits_ISO_8,3,1,48,60,1368342324
5514,7,Jits_ISO_8,0,1,48,59,1369012420
5514,7,Jits_ISO_8,1,5,80,127,1369018664
5514,7,Jits_ISO_8,2,5,63,98,1369028936
5514,7,Jits_ISO_8,3,5,56,103,1369058760
5514,7,Jits_ISO_8,0,5,80,127,1369719260
5514,7,Jits_ISO_8,1,1,48,61,1369724472
5514,7,Jits_ISO_8,2,5,63,98,1369738668
5514,7,Jits_ISO_8,3,5,56,103,1369788796
5514,7,Jits_ISO_8,0,1,48,60,1370396408
5514,7,Jits_ISO_8,1,5,63,98,1370548552
5514,7,Jits_ISO_8,2,5,80,127,1370608944
5514,7,Jits_ISO_8,3,5,56,103,1370628356
5514,7,Jits_ISO_8,0,1,48,58,1371255036
5514,7,Jits_ISO_8,1,5,63,98,1371309388
5514,7,Jits_ISO_8,2,5,56,103,1371358532
5514,7,Jits_ISO_8,3,5,80,127,1371368952
5514,7,Jits_ISO_8,0,1,48,60,1371992856
5514,7,Jits_ISO_8,1,5,56,103,1372138748
5514,7,Jits_ISO_8,2,5,80,127,1372149244
5514,7,Jits_ISO_8,3,5,63,98,1372248320
5514,7,Jits_ISO_8,0,1,48,55,1372833252
5514,7,Jits_ISO_8,1,5,80,127,1372898692
5514,7,Jits_ISO_8,2,5,63,98,1372909036
5514,7,Jits_ISO_8,3,5,56,103,1373058516
5514,7,Jits_ISO_8,0,1,48,57,1373590628
5514,7,Jits_ISO_8,1,5,63,98,1373708572
5514,7,Jits_ISO_8,2,5,80,127,1373748536
5514,7,Jits_ISO_8,3,5,56,103,1373828332
5514,7,Jits_ISO_8,0,1,48,51,1374366968
5514,7,Jits_ISO_8,1,5,56,103,1374499432
5514,7,Jits_ISO_8,2,5,80,127,1374598440
5514,7,Jits_ISO_8,3,5,63,98,1374618972
5514,7,Jits_ISO_8,0,1,48,51,1375233196
5514,7,Jits_ISO_8,1,5,80,127,1375359332
5514,7,Jits_ISO_8,2,5,56,103,1375368628
5514,7,Jits_ISO_8,3,5,63,98,1375458612
5514,7,Jits_ISO_8,0,1,48,46,1376023012
5514,7,Jits_ISO_8,1,5,56,103,1376159116
5514,7,Jits_ISO_8,2,5,63,98,1376178604
5514,7,Jits_ISO_8,3,5,80,127,1376258400
5514,7,Jits_ISO_8,0,1,48,52,1376839016
5514,7,Jits_ISO_8,1,5,63,98,1376908572
5514,7,Jits_ISO_8,2,5,56,103,1376998684
5514,7,Jits_ISO_8,3,5,80,127,1377001980
5514,7,Jits_ISO_8,0,1,48,48,1377656232
5514,7,Jits_ISO_8,1,1,48,39,1377685732
5514,7,Jits_ISO_8,2,5,56,103,1377739112
5514,7,Jits_ISO_8,3,5,80,127,1377798444
5514,7,Jits_ISO_8,4,5,63,98,1377808864
5514,7,Jits_ISO_8,0,1,48,41,1378412412
5514,7,Jits_ISO_8,1,5,80,127,1378589172
5514,7,Jits_ISO_8,2,5,56,103,1378599220
5514,7,Jits_ISO_8,3,5,63,98,1378602360
5514,7,Jits_ISO_8,0,1,48,42,1379211064
5514,7,Jits_ISO_8,1,5,56,103,1379348716
5514,7,Jits_ISO_8,2,5,80,127,1379359212
5514,7,Jits_ISO_8,3,5,63,98,1379378648
5514,7,Jits_ISO_8,0,1,48,49,1379952548
5514,7,Jits_ISO_8,1,1,48,43,1379977268
5514,7,Jits_ISO_8,2,5,63,98,1380119028
5514,7,Jits_ISO_8,3,5,80,127,1380179220
5514,7,Jits_ISO_8,4,5,56,103,1380228376
5514,7,Jits_ISO_8,0,1,48,44,1380748964
5514,7,Jits_ISO_8,1,5,63,98,1380998428
5514,7,Jits_ISO_8,2,5,56,103,1381008624
5514,7,Jits_ISO_8,3,5,80,127,1381059048
5514,7,Jits_ISO_8,0,1,48,43,1381557304
5514,7,Jits_ISO_8,1,5,63,98,1381699164
5514,7,Jits_ISO_8,2,5,80,127,1381719328
5514,7,Jits_ISO_8,3,5,56,103,1381728552
5514,7,Jits_ISO_8,0,1,48,42,1382321704
5514,7,Jits_ISO_8,1,5,63,98,1382498560
5514,7,Jits_ISO_8,2,5,80,127,1382501856
5514,7,Jits_ISO_8,3,5,56,103,1382538580
5514,7,Jits_ISO_8,0,1,48,47,1383118856
5514,7,Jits_ISO_8,1,5,63,98,1383369208
5514,7,Jits_ISO_8,2,5,80,127,1383398736
5514,7,Jits_ISO_8,3,5,56,103,1383409156
5514,7,Jits_ISO_8,0,1,48,49,1383906184
5514,7,Jits_ISO_8,1,5,56,103,1384118496
5514,7,Jits_ISO_8,2,5,80,127,1384149368
5514,7,Jits_ISO_8,3,5,63,98,1384178968
5514,7,Jits_ISO_8,0,1,48,41,1384686332
5514,7,Jits_ISO_8,1,5,63,98,1385018696
5514,7,Jits_ISO_8,2,5,56,103,1385058556
5514,7,Jits_ISO_8,3,5,80,127,1385061700
5514,7,Jits_ISO_8,0,1,48,54,1385589324
5514,7,Jits_ISO_8,1,1,48,43,1385614696
5514,7,Jits_ISO_8,2,5,80,127,1385719232
5514,7,Jits_ISO_8,3,5,56,103,1385799132
5514,7,Jits_ISO_8,4,5,63,98,1385849256
5514,7,Jits_ISO_8,0,1,48,59,1386411508
5514,7,Jits_ISO_8,1,5,80,127,1386498376
5514,7,Jits_ISO_8,2,5,56,103,1386519120
5514,7,Jits_ISO_8,3,5,63,98,1386608904
5514,7,Jits_ISO_8,0,1,48,60,1387157492
5514,7,Jits_ISO_8,1,1,48,47,1387185264
5514,7,Jits_ISO_8,2,5,80,127,1387339200
5514,7,Jits_ISO_8,3,5,63,98,1387379068
5514,7,Jits_ISO_8,4,5,56,103,1387419080
5514,7,Jits_ISO_8,0,1,48,57,1388003272
5514,7,Jits_ISO_8,1,1,48,47,1388035392
5514,7,Jits_ISO_8,2,5,63,98,1388109104
5514,7,Jits_ISO_8,3,5,80,127,1388168508
5514,7,Jits_ISO_8,4,5,56,103,1388199232
5514,7,Jits_ISO_8,0,1,48,60,1388755844
5514,7,Jits_ISO_8,1,1,48,46,1388792244
5514,7,Jits_ISO_8,2,5,56,103,1388909092
5514,7,Jits_ISO_8,3,5,80,127,1388938544
5514,7,Jits_ISO_8,4,5,63,98,1389028900
5514,7,Jits_ISO_8,0,1,48,61,1389498244
5514,7,Jits_ISO_8,1,5,56,103,1389719080
5514,7,Jits_ISO_8,2,5,80,127,1389828400
5514,7,Jits_ISO_8,3,5,63,98,1389859268
5514,7,Jits_ISO_8,0,1,48,60,1390391484
5514,7,Jits_ISO_8,1,5,56,103,1390568916
5514,7,Jits_ISO_8,2,5,63,98,1390629088
5514,7,Jits_ISO_8,3,5,80,127,1390659008
5514,7,Jits_ISO_8,0,1,48,59,1391176428
5514,7,Jits_ISO_8,1,5,56,103,1391339036
5514,7,Jits_ISO_8,2,5,63,98,1391408448
5514,7,Jits_ISO_8,3,5,80,127,1391428908
5514,7,Jits_ISO_8,0,1,48,56,1392041708
5514,7,Jits_ISO_8,1,5,80,127,1392109020
5514,7,Jits_ISO_8,2,5,63,98,1392129256
5514,7,Jits_ISO_8,3,5,56,103,1392178420
5514,7,Jits_ISO_8,0,9999,9999,9999,1297376372
5514,7,Jits_ISO_8,1,9999,9999,9999,1298176060
5514,7,Jits_ISO_8,2,9999,9999,9999,1298976884
5514,7,Jits_ISO_8,3,9999,9999,9999,1299776580
5514,7,Jits_ISO_8,4,9999,9999,9999,1300576352
5514,7,Jits_ISO_8,5,9999,9999,9999,1301376064
5514,7,Jits_ISO_8,6,9999,9999,9999,1302176888
5514,7,Jits_ISO_8,7,9999,9999,9999,1302976600
5514,7,Jits_ISO_8,8,9999,9999,9999,1303776336
5514,7,Jits_ISO_8,9,9999,9999,9999,1304576104
5514,7,Jits_ISO_8,10,9999,9999,9999,1305376868
5514,7,Jits_ISO_8,11,9999,9999,9999,1306176608
5514,7,Jits_ISO_8,12,9999,9999,9999,1306976320
5514,7,Jits_ISO_8,13,9999,9999,9999,1307776100
5514,7,Jits_ISO_8,14,9999,9999,9999,1308576820
5514,7,Jits_ISO_8,15,9999,9999,9999,1309376628
5514,7,Jits_ISO_8,16,9999,9999,9999,1310176324
5514,7,Jits_ISO_8,17,9999,9999,9999,1310976112
5514,7,Jits_ISO_8,18,9999,9999,9999,1311776852
5514,7,Jits_ISO_8,19,9999,9999,9999,1312576584
5514,7,Jits_ISO_8,20,9999,9999,9999,1313376308
5514,7,Jits_ISO_8,21,9999,9999,9999,1314176088
5514,7,Jits_ISO_8,22,9999,9999,9999,1314976848
5514,7,Jits_ISO_8,23,9999,9999,9999,1315776628
5514,7,Jits_ISO_8,24,9999,9999,9999,1316576336
5514,7,Jits_ISO_8,25,9999,9999,9999,1317376116
5514,7,Jits_ISO_8,26,9999,9999,9999,1318176872
5514,7,Jits_ISO_8,27,9999,9999,9999,1318976604
5514,7,Jits_ISO_8,28,9999,9999,9999,1319776312
5514,7,Jits_ISO_8,29,9999,9999,9999,1320576116
5514,7,Jits_ISO_8,30,9999,9999,9999,1321376868
5514,7,Jits_ISO_8,31,9999,9999,9999,1322176572
5514,7,Jits_ISO_8,32,9999,9999,9999,1322976332
5514,7,Jits_ISO_8,33,9999,9999,9999,1323776056
5514,7,Jits_ISO_8,34,9999,9999,9999,1324576884
5514,7,Jits_ISO_8,35,9999,9999,9999,1325376628
5514,7,Jits_ISO_8,36,9999,9999,9999,1326176340
5514,7,Jits_ISO_8,37,9999,9999,9999,1326976052
5514,7,Jits_ISO_8,38,9999,9999,9999,1327776872
5514,7,Jits_ISO_8,39,9999,9999,9999,1328576584
5514,7,Jits_ISO_8,40,9999,9999,9999,1329376372
5514,7,Jits_ISO_8,41,9999,9999,9999,1330176080
5514,7,Jits_ISO_8,42,9999,9999,9999,1330976836
5514,7,Jits_ISO_8,43,9999,9999,9999,1331776636
5514,7,Jits_ISO_8,44,9999,9999,9999,1332576332
5514,7,Jits_ISO_8,45,9999,9999,9999,1333376112
5514,7,Jits_ISO_8,46,9999,9999,9999,1334176820
5514,7,Jits_ISO_8,47,9999,9999,9999,1334976584
5514,7,Jits_ISO_8,48,9999,9999,9999,1335776364
5514,7,Jits_ISO_8,49,9999,9999,9999,1336576088
5514,7,Jits_ISO_8,50,9999,9999,9999,1337376824
5514,7,Jits_ISO_8,51,9999,9999,9999,1338176596
5514,7,Jits_ISO_8,52,9999,9999,9999,1338976364
5514,7,Jits_ISO_8,53,9999,9999,9999,1339776080
5514,7,Jits_ISO_8,54,9999,9999,9999,1340576848
5514,7,Jits_ISO_8,55,9999,9999,9999,1341376572
5514,7,Jits_ISO_8,56,9999,9999,9999,1342176352
5514,7,Jits_ISO_8,57,9999,9999,9999,1342976076
5514,7,Jits_ISO_8,58,9999,9999,9999,1343776844
5514,7,Jits_ISO_8,59,9999,9999,9999,1344576588
5514,7,Jits_ISO_8,60,9999,9999,9999,1345376308
5514,7,Jits_ISO_8,61,9999,9999,9999,1346176108
5514,7,Jits_ISO_8,62,9999,9999,9999,1346976872
5514,7,Jits_ISO_8,63,9999,9999,9999,1347776624
5514,7,Jits_ISO_8,64,9999,9999,9999,1348576368
5514,7,Jits_ISO_8,65,9999,9999,9999,1349376080
5514,7,Jits_ISO_8,66,9999,9999,9999,1350176880
5514,7,Jits_ISO_8,67,9999,9999,9999,1350976616
5514,7,Jits_ISO_8,68,9999,9999,9999,1351776360
5514,7,Jits_ISO_8,69,9999,9999,9999,1352576112
5514,7,Jits_ISO_8,70,9999,9999,9999,1353376884
5514,7,Jits_ISO_8,71,9999,9999,9999,1354176572
5514,7,Jits_ISO_8,72,9999,9999,9999,1354976364
5514,7,Jits_ISO_8,73,9999,9999,9999,1355776080
5514,7,Jits_ISO_8,74,9999,9999,9999,1356576872
5514,7,Jits_ISO_8,75,9999,9999,9999,1357376624
5514,7,Jits_ISO_8,76,9999,9999,9999,1358176320
5514,7,Jits_ISO_8,77,9999,9999,9999,1358976068
5514,7,Jits_ISO_8,78,9999,9999,9999,1359776828
5514,7,Jits_ISO_8,79,9999,9999,9999,1360576620
5514,7,Jits_ISO_8,80,9999,9999,9999,1361376324
5514,7,Jits_ISO_8,81,9999,9999,9999,1362176076
5514,7,Jits_ISO_8,82,9999,9999,9999,1362976832
5514,7,Jits_ISO_8,83,9999,9999,9999,1363776632
5514,7,Jits_ISO_8,84,9999,9999,9999,1364576344
5514,7,Jits_ISO_8,85,9999,9999,9999,1365376068
5514,7,Jits_ISO_8,86,9999,9999,9999,1366176856
5514,7,Jits_ISO_8,87,9999,9999,9999,1366976632
5514,7,Jits_ISO_8,88,9999,9999,9999,1367776336
5514,7,Jits_ISO_8,89,9999,9999,9999,1368576052
5514,7,Jits_ISO_8,90,9999,9999,9999,1369376888
5514,7,Jits_ISO_8,91,9999,9999,9999,1370176616
5514,7,Jits_ISO_8,92,9999,9999,9999,1370976340
5514,7,Jits_ISO_8,93,9999,9999,9999,1371776116
5514,7,Jits_ISO_8,94,9999,9999,9999,1372576876
5514,7,Jits_ISO_8,95,9999,9999,9999,1373376584
5514,7,Jits_ISO_8,96,9999,9999,9999,1374176364
5514,7,Jits_ISO_8,97,9999,9999,9999,1374976072
5514,7,Jits_ISO_8,98,9999,9999,9999,1375776828
5514,7,Jits_ISO_8,99,9999,9999,9999,1376576568
5514,7,Jits_ISO_8,100,9999,9999,9999,1377376340
5514,7,Jits_ISO_8,101,9999,9999,9999,1378176104
5514,7,Jits_ISO_8,102,9999,9999,9999,1378976868
5514,7,Jits_ISO_8,103,9999,9999,9999,1379776572
5514,7,Jits_ISO_8,104,9999,9999,9999,1380576336
5514,7,Jits_ISO_8,105,9999,9999,9999,1381376072
5514,7,Jits_ISO_8,106,9999,9999,9999,1382176820
5514,7,Jits_ISO_8,107,9999,9999,9999,1382976608
5514,7,Jits_ISO_8,108,9999,9999,9999,1383776320
5514,7,Jits_ISO_8,109,9999,9999,9999,1384576096
5514,7,Jits_ISO_8,110,9999,9999,9999,1385376856
5514,7,Jits_ISO_8,111,9999,9999,9999,1386176616
5514,7,Jits_ISO_8,112,9999,9999,9999,1386976340
5514,7,Jits_ISO_8,113,9999,9999,9999,1387776104
5514,7,Jits_ISO_8,114,9999,9999,9999,1388576856
5514,7,Jits_ISO_8,115,9999,9999,9999,1389376584
5514,7,Jits_ISO_8,116,9999,9999,9999,1390176320
5514,7,Jits_ISO_8,117,9999,9999,9999,1390976108
5514,7,Jits_ISO_8,118,9999,9999,9999,1391776868
5514,7,Jits_ISO_8,119,9999,9999,9999,1392576572
5515,17,Jits_Phase_5,0,5,56,103,1402810668
5515,17,Jits_Phase_5,1,5,63,98,1402813840
5515,17,Jits_Phase_5,2,5,80,127,1402817036
5515,17,Jits_Phase_5,0,1,48,35,1403305560
5515,17,Jits_Phase_5,1,5,56,103,1403310444
5515,17,Jits_Phase_5,2,5,63,98,1403313620
5515,17,Jits_Phase_5,3,5,80,127,1403316812
5515,17,Jits_Phase_5,0,1,48,50,1403779152
5515,17,Jits_Phase_5,1,5,56,103,1403811160
5515,17,Jits_Phase_5,2,5,80,127,1403821652
5515,17,Jits_Phase_5,3,5,63,98,1403840992
5515,17,Jits_Phase_5,0,5,63,98,1404260652
5515,17,Jits_Phase_5,1,1,48,56,1404282204
5515,17,Jits_Phase_5,2,5,80,127,1404290840
5515,17,Jits_Phase_5,3,5,56,103,1404300740
5515,17,Jits_Phase_5,0,1,48,62,1404778108
5515,17,Jits_Phase_5,1,5,80,127,1404820776
5515,17,Jits_Phase_5,2,5,56,103,1404830972
5515,17,Jits_Phase_5,3,5,63,98,1404860720
5515,17,Jits_Phase_5,0,1,48,80,1405277040
5515,17,Jits_Phase_5,1,1,48,62,1405299060
5515,17,Jits_Phase_5,2,5,63,98,1405311588
5515,17,Jits_Phase_5,3,5,56,103,1405341192
5515,17,Jits_Phase_5,4,5,80,127,1405351460
5515,17,Jits_Phase_5,0,5,56,103,1405760832
5515,17,Jits_Phase_5,1,1,48,69,1405789584
5515,17,Jits_Phase_5,2,5,63,98,1405811028
5515,17,Jits_Phase_5,3,1,48,50,1405814956
5515,17,Jits_Phase_5,4,5,80,127,1405830492
5515,17,Jits_Phase_5,0,5,80,127,1406260476
5515,17,Jits_Phase_5,1,1,48,80,1406310072
5515,17,Jits_Phase_5,2,5,63,98,1406311716
5515,17,Jits_Phase_5,3,1,48,48,1406348620
5515,17,Jits_Phase_5,4,5,56,103,1406350732
5515,17,Jits_Phase_5,0,5,56,103,1406761512
5515,17,Jits_Phase_5,1,5,63,98,1406791140
5515,17,Jits_Phase_5,2,1,48,61,1406813588
5515,17,Jits_Phase_5,3,1,48,46,1406844504
5515,17,Jits_Phase_5,4,5,80,127,1406860640
5515,17,Jits_Phase_5,0,5,56,103,1407261012
5515,17,Jits_Phase_5,1,1,48,62,1407271624
5515,17,Jits_Phase_5,2,5,80,127,1407320520
5515,17,Jits_Phase_5,3,5,63,98,1407351016
5515,17,Jits_Phase_5,0,1,48,61,1407743808
5515,17,Jits_Phase_5,1,5,56,103,1407771104
5515,17,Jits_Phase_5,2,1,48,46,1407774656
5515,17,Jits_Phase_5,3,5,63,98,1407781504
5515,17,Jits_Phase_5,4,5,80,127,1407821020
5515,17,Jits_Phase_5,0,1,48,54,1408223212
5515,17,Jits_Phase_5,1,5,63,98,1408260624
5515,17,Jits_Phase_5,2,5,80,127,1408341476
5515,17,Jits_Phase_5,3,5,56,103,1408350628
5515,17,Jits_Phase_5,0,1,48,49,1408714416
5515,17,Jits_Phase_5,1,5,63,98,1408811528
5515,17,Jits_Phase_5,2,5,56,103,1408851340
5515,17,Jits_Phase_5,3,5,80,127,1408854332
5515,17,Jits_Phase_5,0,1,48,60,1409225540
5515,17,Jits_Phase_5,1,5,56,103,1409271272
5515,17,Jits_Phase_5,2,5,63,98,1409281320
5515,17,Jits_Phase_5,3,5,80,127,1409321464
5515,17,Jits_Phase_5,0,1,48,52,1409694496
5515,17,Jits_Phase_5,1,5,56,103,1409760752
5515,17,Jits_Phase_5,2,5,63,98,1409763672
5515,17,Jits_Phase_5,3,5,80,127,1409781060
5515,17,Jits_Phase_5,0,1,48,69,1410170184
5515,17,Jits_Phase_5,1,1,48,51,1410195852
5515,17,Jits_Phase_5,2,5,80,127,1410270576
5515,17,Jits_Phase_5,3,5,56,103,1410280848
5515,17,Jits_Phase_5,4,5,63,98,1410350608
5515,17,Jits_Phase_5,0,1,48,67,1410654748
5515,17,Jits_Phase_5,1,1,48,47,1410681328
5515,17,Jits_Phase_5,2,5,63,98,1410761364
5515,17,Jits_Phase_5,3,5,56,103,1410781216
5515,17,Jits_Phase_5,4,5,80,127,1410861400
5515,17,Jits_Phase_5,0,1,48,72,1411125456
5515,17,Jits_Phase_5,1,1,48,59,1411147308
5515,17,Jits_Phase_5,2,5,56,103,1411271392
5515,17,Jits_Phase_5,3,5,80,127,1411311180
5515,17,Jits_Phase_5,4,5,63,98,1411321524
5515,17,Jits_Phase_5,0,1,48,74,1411608344
5515,17,Jits_Phase_5,1,1,48,52,1411631364
5515,17,Jits_Phase_5,2,5,80,127,1411760460
5515,17,Jits_Phase_5,3,5,63,98,1411791332
5515,17,Jits_Phase_5,4,5,56,103,1411831416
5515,17,Jits_Phase_5,0,1,48,73,1412088124
5515,17,Jits_Phase_5,1,5,56,103,1412280636
5515,17,Jits_Phase_5,2,5,63,98,1412311360
5515,17,Jits_Phase_5,3,5,80,127,1412360660
5515,17,Jits_Phase_5,0,1,48,73,1412569244
5515,17,Jits_Phase_5,1,5,80,127,1412781492
5515,17,Jits_Phase_5,2,5,56,103,1412821580
5515,17,Jits_Phase_5,3,5,63,98,1412830504
5515,17,Jits_Phase_5,0,1,48,78,1413069392
5515,17,Jits_Phase_5,1,5,80,127,1413260640
5515,17,Jits_Phase_5,2,5,63,98,1413300580
5515,17,Jits_Phase_5,3,5,56,103,1413360892
5515,17,Jits_Phase_5,4,1,48,77,1413556624
5515,17,Jits_Phase_5,0,5,56,103,1413761492
5515,17,Jits_Phase_5,1,5,80,127,1413770564
5515,17,Jits_Phase_5,2,5,63,98,1413850580
5515,17,Jits_Phase_5,3,1,48,73,1414047580
5515,17,Jits_Phase_5,0,5,80,127,1414271512
5515,17,Jits_Phase_5,1,5,63,98,1414330860
5515,17,Jits_Phase_5,2,5,56,103,1414360532
5515,17,Jits_Phase_5,3,1,48,73,1414529384
5515,17,Jits_Phase_5,0,5,56,103,1414770908
5515,17,Jits_Phase_5,1,5,80,127,1414830552
5515,17,Jits_Phase_5,2,5,63,98,1414871460
5515,17,Jits_Phase_5,3,1,48,72,1415056928
5515,17,Jits_Phase_5,0,5,56,103,1415320872
5515,17,Jits_Phase_5,1,5,63,98,1415331436
5515,17,Jits_Phase_5,2,5,80,127,1415334728
5515,17,Jits_Phase_5,0,1,48,67,1415590160
5515,17,Jits_Phase_5,1,5,80,127,1415770448
5515,17,Jits_Phase_5,2,5,63,98,1415860656
5515,17,Jits_Phase_5,3,5,56,103,1415870852
5515,17,Jits_Phase_5,0,1,48,69,1416094396
5515,17,Jits_Phase_5,1,5,56,103,1416271532
5515,17,Jits_Phase_5,2,5,63,98,1416274556
5515,17,Jits_Phase_5,3,5,80,127,1416277600
5515,17,Jits_Phase_5,0,1,48,69,1416632932
5515,17,Jits_Phase_5,1,5,80,127,1416791276
5515,17,Jits_Phase_5,2,5,63,98,1416840504
5515,17,Jits_Phase_5,3,5,56,103,1416871376
5515,17,Jits_Phase_5,0,1,48,80,1417165048
5515,17,Jits_Phase_5,1,5,56,103,1417270572
5515,17,Jits_Phase_5,2,5,80,127,1417280768
5515,17,Jits_Phase_5,3,5,63,98,1417350448
5515,17,Jits_Phase_5,0,1,48,85,1417686664
5515,17,Jits_Phase_5,1,5,56,103,1417780600
5515,17,Jits_Phase_5,2,5,63,98,1417801116
5515,17,Jits_Phase_5,3,5,80,127,1417860460
5515,17,Jits_Phase_5,0,1,48,81,1418234220
5515,17,Jits_Phase_5,1,1,48,57,1418254576
5515,17,Jits_Phase_5,2,5,80,127,1418260820
5515,17,Jits_Phase_5,3,5,63,98,1418330456
5515,17,Jits_Phase_5,4,5,56,103,1418351044
5515,17,Jits_Phase_5,0,1,48,67,1418741872
5515,17,Jits_Phase_5,1,5,80,127,1418781228
5515,17,Jits_Phase_5,2,5,56,103,1418791348
5515,17,Jits_Phase_5,3,5,63,98,1418800524
5515,17,Jits_Phase_5,0,1,48,68,1419232700
5515,17,Jits_Phase_5,1,5,80,127,1419270560
5515,17,Jits_Phase_5,2,5,56,103,1419291096
5515,17,Jits_Phase_5,3,5,63,98,1419360560
5515,17,Jits_Phase_5,0,1,48,66,1419729376
5515,17,Jits_Phase_5,1,5,56,103,1419780420
5515,17,Jits_Phase_5,2,5,80,127,1419811144
5515,17,Jits_Phase_5,3,5,63,98,1419830612
5515,17,Jits_Phase_5,0,1,48,69,1420246544
5515,17,Jits_Phase_5,1,1,48,51,1420269168
5515,17,Jits_Phase_5,2,5,63,98,1420271204
5515,17,Jits_Phase_5,3,5,56,103,1420331520
5515,17,Jits_Phase_5,4,5,80,127,1420362252
5515,17,Jits_Phase_5,0,1,48,71,1420733296
5515,17,Jits_Phase_5,1,5,63,98,1420760444
5515,17,Jits_Phase_5,2,5,80,127,1420763736
5515,17,Jits_Phase_5,3,5,56,103,1420850508
5515,17,Jits_Phase_5,0,1,48,67,1421204720
5515,17,Jits_Phase_5,1,1,48,51,1421226640
5515,17,Jits_Phase_5,2,5,56,103,1421280544
5515,17,Jits_Phase_5,3,5,63,98,1421311416
5515,17,Jits_Phase_5,4,5,80,127,1421351412
5515,17,Jits_Phase_5,0,1,48,63,1421725248
5515,17,Jits_Phase_5,1,5,63,98,1421781392
5515,17,Jits_Phase_5,2,5,56,103,1421821332
5515,17,Jits_Phase_5,3,5,80,127,1421840728
5515,17,Jits_Phase_5,0,1,48,64,1422224996
5515,17,Jits_Phase_5,1,5,63,98,1422291260
5515,17,Jits_Phase_5,2,5,56,103,1422331332
5515,17,Jits_Phase_5,3,5,80,127,1422340404
5515,17,Jits_Phase_5,0,1,48,58,1422729632
5515,17,Jits_Phase_5,1,5,80,127,1422770484
5515,17,Jits_Phase_5,2,5,63,98,1422841196
5515,17,Jits_Phase_5,3,5,56,103,1422860532
5515,17,Jits_Phase_5,0,1,48,69,1423207192
5515,17,Jits_Phase_5,1,5,56,103,1423261240
5515,17,Jits_Phase_5,2,5,80,127,1423280428
5515,17,Jits_Phase_5,3,5,63,98,1423320500
5515,17,Jits_Phase_5,0,1,48,68,1423709944
5515,17,Jits_Phase_5,1,5,63,98,1423771248
5515,17,Jits_Phase_5,2,5,80,127,1423790440
5515,17,Jits_Phase_5,3,5,56,103,1423831332
5515,17,Jits_Phase_5,0,1,48,77,1424186460
5515,17,Jits_Phase_5,1,5,63,98,1424270848
5515,17,Jits_Phase_5,2,5,56,103,1424291220
5515,17,Jits_Phase_5,3,5,80,127,1424301564
5515,17,Jits_Phase_5,0,1,48,78,1424687920
5515,17,Jits_Phase_5,1,5,80,127,1424770372
5515,17,Jits_Phase_5,2,5,56,103,1424791412
5515,17,Jits_Phase_5,3,5,63,98,1424820492
5515,17,Jits_Phase_5,0,1,48,79,1425176260
5515,17,Jits_Phase_5,1,5,56,103,1425341052
5515,17,Jits_Phase_5,2,5,80,127,1425344192
5515,17,Jits_Phase_5,3,5,63,98,1425361212
5515,17,Jits_Phase_5,0,1,48,82,1425718900
5515,17,Jits_Phase_5,1,5,63,98,1425760504
5515,17,Jits_Phase_5,2,5,56,103,1425791300
5515,17,Jits_Phase_5,3,5,80,127,1425850848
5515,17,Jits_Phase_5,0,1,48,94,1426229884
5515,17,Jits_Phase_5,1,5,63,98,1426341224
5515,17,Jits_Phase_5,2,5,56,103,1426350372
5515,17,Jits_Phase_5,3,5,80,127,1426360644
5515,17,Jits_Phase_5,0,1,48,95,1426753012
5515,17,Jits_Phase_5,1,5,56,103,1426801060
5515,17,Jits_Phase_5,2,5,80,127,1426830588
5515,17,Jits_Phase_5,3,5,63,98,1426841232
5515,17,Jits_Phase_5,0,1,48,98,1427256800
5515,17,Jits_Phase_5,1,1,48,70,1427276108
5515,17,Jits_Phase_5,2,5,63,98,1427341020
5515,17,Jits_Phase_5,3,5,56,103,1427351216
5515,17,Jits_Phase_5,4,5,80,127,1427371436
5515,17,Jits_Phase_5,0,1,48,99,1427763032
5515,17,Jits_Phase_5,1,5,56,103,1427770852
5515,17,Jits_Phase_5,2,1,48,67,1427784588
5515,17,Jits_Phase_5,3,5,63,98,1427831144
5515,17,Jits_Phase_5,4,5,80,127,1427834432
5515,17,Jits_Phase_5,0,1,48,100,1428259040
5515,17,Jits_Phase_5,1,1,48,73,1428278896
5515,17,Jits_Phase_5,2,5,80,127,1428291128
5515,17,Jits_Phase_5,3,5,56,103,1428301176
5515,17,Jits_Phase_5,4,5,63,98,1428370836
5515,17,Jits_Phase_5,0,1,48,86,1428762960
5515,17,Jits_Phase_5,1,5,80,127,1428781512
5515,17,Jits_Phase_5,2,1,48,64,1428785140
5515,17,Jits_Phase_5,3,5,56,103,1428851100
5515,17,Jits_Phase_5,4,5,63,98,1428861220
5515,17,Jits_Phase_5,0,1,48,78,1429263788
5515,17,Jits_Phase_5,1,1,48,59,1429285860
5515,17,Jits_Phase_5,2,5,63,98,1429320984
5515,17,Jits_Phase_5,3,5,56,103,1429331180
5515,17,Jits_Phase_5,4,5,80,127,1429351036
5515,17,Jits_Phase_5,0,5,80,127,1429770496
5515,17,Jits_Phase_5,1,1,48,71,1429790400
5515,17,Jits_Phase_5,2,1,48,53,1429812948
5515,17,Jits_Phase_5,3,5,63,98,1429830956
5515,17,Jits_Phase_5,4,5,56,103,1429871044
5515,17,Jits_Phase_5,0,1,48,73,1430284492
5515,17,Jits_Phase_5,1,5,56,103,1430311264
5515,17,Jits_Phase_5,2,5,63,98,1430320364
5515,17,Jits_Phase_5,3,5,80,127,1430360376
5515,17,Jits_Phase_5,0,5,56,103,1430771008
5515,17,Jits_Phase_5,1,1,48,75,1430793980
5515,17,Jits_Phase_5,2,5,80,127,1430800976
5515,17,Jits_Phase_5,3,1,48,56,1430815316
5515,17,Jits_Phase_5,4,5,63,98,1430851104
5515,17,Jits_Phase_5,0,1,48,70,1431276084
5515,17,Jits_Phase_5,1,1,48,54,1431297344
5515,17,Jits_Phase_5,2,5,56,103,1431310788
5515,17,Jits_Phase_5,3,5,63,98,1431350896
5515,17,Jits_Phase_5,4,5,80,127,1431354112
5515,17,Jits_Phase_5,0,1,48,75,1431782084
5515,17,Jits_Phase_5,1,1,48,52,1431805136
5515,17,Jits_Phase_5,2,5,56,103,1431810412
5515,17,Jits_Phase_5,3,5,63,98,1431820608
5515,17,Jits_Phase_5,4,5,80,127,1431841064
5515,17,Jits_Phase_5,0,1,48,77,1432269656
5515,17,Jits_Phase_5,1,5,56,103,1432271176
5515,17,Jits_Phase_5,2,5,80,127,1432274244
5515,17,Jits_Phase_5,3,1,48,59,1432293764
5515,17,Jits_Phase_5,4,5,63,98,1432311244
5515,17,Jits_Phase_5,0,1,48,70,1432750472
5515,17,Jits_Phase_5,1,5,63,98,1432810884
5515,17,Jits_Phase_5,2,5,56,103,1432840556
5515,17,Jits_Phase_5,3,5,80,127,1432861000
5515,17,Jits_Phase_5,0,1,48,81,1433272328
5515,17,Jits_Phase_5,1,5,80,127,1433280964
5515,17,Jits_Phase_5,2,5,56,103,1433291236
5515,17,Jits_Phase_5,3,1,48,55,1433293384
5515,17,Jits_Phase_5,4,5,63,98,1433301412
5515,17,Jits_Phase_5,0,1,48,83,1433736360
5515,17,Jits_Phase_5,1,1,48,62,1433756188
5515,17,Jits_Phase_5,2,5,56,103,1433780796
5515,17,Jits_Phase_5,3,5,80,127,1433820808
5515,17,Jits_Phase_5,4,5,63,98,1433852040
5515,17,Jits_Phase_5,0,1,48,83,1434212840
5515,17,Jits_Phase_5,1,5,63,98,1434290488
5515,17,Jits_Phase_5,2,5,80,127,1434301052
5515,17,Jits_Phase_5,3,5,56,103,1434311024
5515,17,Jits_Phase_5,0,1,48,90,1434728704
5515,17,Jits_Phase_5,1,1,48,64,1434750256
5515,17,Jits_Phase_5,2,5,56,103,1434781068
5515,17,Jits_Phase_5,3,5,63,98,1434850884
5515,17,Jits_Phase_5,4,5,80,127,1434861004
5515,17,Jits_Phase_5,0,1,48,83,1435218572
5515,17,Jits_Phase_5,1,5,80,127,1435290984
5515,17,Jits_Phase_5,2,5,56,103,1435301180
5515,17,Jits_Phase_5,3,5,63,98,1435351436
5515,17,Jits_Phase_5,0,1,48,74,1435751596
5515,17,Jits_Phase_5,1,1,48,54,1435773596
5515,17,Jits_Phase_5,2,5,80,127,1435801048
5515,17,Jits_Phase_5,3,5,56,103,1435861212
5515,17,Jits_Phase_5,4,5,63,98,1435891020
5515,17,Jits_Phase_5,0,1,48,87,1436268000
5515,17,Jits_Phase_5,1,1,48,60,1436289500
5515,17,Jits_Phase_5,2,5,56,103,1436300828
5515,17,Jits_Phase_5,3,5,80,127,1436303896
5515,17,Jits_Phase_5,4,5,63,98,1436340688
5515,17,Jits_Phase_5,0,1,48,81,1436772424
5515,17,Jits_Phase_5,1,1,48,62,1436796740
5515,17,Jits_Phase_5,2,5,56,103,1436831016
5515,17,Jits_Phase_5,3,5,63,98,1436860912
5515,17,Jits_Phase_5,4,5,80,127,1436870960
5515,17,Jits_Phase_5,0,1,48,88,1437279700
5515,17,Jits_Phase_5,1,1,48,60,1437302744
5515,17,Jits_Phase_5,2,5,63,98,1437341132
5515,17,Jits_Phase_5,3,5,80,127,1437351404
5515,17,Jits_Phase_5,4,5,56,103,1437360476
5515,17,Jits_Phase_5,0,5,80,127,1437790824
5515,17,Jits_Phase_5,1,1,48,80,1437811252
5515,17,Jits_Phase_5,2,1,48,60,1437836472
5515,17,Jits_Phase_5,3,5,56,103,1437840844
5515,17,Jits_Phase_5,4,5,63,98,1437843836
5515,17,Jits_Phase_5,0,5,56,103,1438320948
5515,17,Jits_Phase_5,1,5,80,127,1438340436
5515,17,Jits_Phase_5,2,1,48,89,1438346916
5515,17,Jits_Phase_5,3,5,63,98,1438350844
5515,17,Jits_Phase_5,4,1,48,67,1438368548
5515,17,Jits_Phase_5,0,5,63,98,1438801412
5515,17,Jits_Phase_5,1,5,56,103,1438830936
5515,17,Jits_Phase_5,2,1,48,81,1438844544
5515,17,Jits_Phase_5,3,5,80,127,1438850268
5515,17,Jits_Phase_5,4,1,48,61,1438866552
5515,17,Jits_Phase_5,0,1,48,80,1439293520
5515,17,Jits_Phase_5,1,5,56,103,1439311076
5515,17,Jits_Phase_5,2,5,80,127,1439320300
5515,17,Jits_Phase_5,3,5,63,98,1439391172
5515,17,Jits_Phase_5,0,5,63,98,1439800868
5515,17,Jits_Phase_5,1,1,48,76,1439812756
5515,17,Jits_Phase_5,2,1,48,54,1439841152
5515,17,Jits_Phase_5,3,5,80,127,1439842268
5515,17,Jits_Phase_5,4,5,56,103,1439880636
5515,17,Jits_Phase_5,0,5,56,103,1440310912
5515,17,Jits_Phase_5,1,5,63,98,1440320884
5515,17,Jits_Phase_5,2,5,80,127,1440341344
5515,17,Jits_Phase_5,3,1,48,90,1440358312
5515,17,Jits_Phase_5,4,1,48,62,1440379428
5515,17,Jits_Phase_5,0,1,48,70,1440850712
5515,17,Jits_Phase_5,1,5,63,98,1440852128
5515,17,Jits_Phase_5,2,5,80,127,1440870940
5515,17,Jits_Phase_5,3,1,48,51,1440874416
5515,17,Jits_Phase_5,4,5,56,103,1440891228
5515,17,Jits_Phase_5,0,5,56,103,1441290688
5515,17,Jits_Phase_5,1,1,48,86,1441339540
5515,17,Jits_Phase_5,2,5,80,127,1441370720
5515,17,Jits_Phase_5,3,5,63,98,1441380844
5515,17,Jits_Phase_5,0,1,48,81,1441804872
5515,17,Jits_Phase_5,1,1,48,60,1441824628
5515,17,Jits_Phase_5,2,5,80,127,1441831400
5515,17,Jits_Phase_5,3,5,63,98,1441840652
5515,17,Jits_Phase_5,4,5,56,103,1441871072
5515,17,Jits_Phase_5,0,1,48,84,1442278112
5515,17,Jits_Phase_5,1,5,63,98,1442291112
5515,17,Jits_Phase_5,2,1,48,58,1442298404
5515,17,Jits_Phase_5,3,5,80,127,1442330956
5515,17,Jits_Phase_5,4,5,56,103,1442391652
5515,17,Jits_Phase_5,0,1,48,83,1442791016
5515,17,Jits_Phase_5,1,5,63,98,1442801004
5515,17,Jits_Phase_5,2,1,48,58,1442813620
5515,17,Jits_Phase_5,3,5,56,103,1442851328
5515,17,Jits_Phase_5,4,5,80,127,1442880804
5515,17,Jits_Phase_5,0,1,48,76,1443297528
5515,17,Jits_Phase_5,1,5,80,127,1443300708
5515,17,Jits_Phase_5,2,5,63,98,1443310828
5515,17,Jits_Phase_5,3,5,56,103,1443380828
5515,17,Jits_Phase_5,0,1,48,75,1443798716
5515,17,Jits_Phase_5,1,1,48,57,1443818624
5515,17,Jits_Phase_5,2,5,80,127,1443860896
5515,17,Jits_Phase_5,3,5,56,103,1443871016
5515,17,Jits_Phase_5,4,5,63,98,1443874156
5515,17,Jits_Phase_5,0,5,56,103,1444301068
5515,17,Jits_Phase_5,1,1,48,58,1444318580
5515,17,Jits_Phase_5,2,5,80,127,1444320696
5515,17,Jits_Phase_5,3,5,63,98,1444330740
5515,17,Jits_Phase_5,0,1,48,65,1444764832
5515,17,Jits_Phase_5,1,5,63,98,1444811012
5515,17,Jits_Phase_5,2,5,56,103,1444851024
5515,17,Jits_Phase_5,3,5,80,127,1444870792
5515,17,Jits_Phase_5,0,1,48,78,1445266372
5515,17,Jits_Phase_5,1,1,48,58,1445285832
5515,17,Jits_Phase_5,2,5,63,98,1445310816
5515,17,Jits_Phase_5,3,5,56,103,1445371276
5515,17,Jits_Phase_5,4,5,80,127,1445374344
5515,17,Jits_Phase_5,0,1,48,73,1445767352
5515,17,Jits_Phase_5,1,5,56,103,1445770756
5515,17,Jits_Phase_5,2,1,48,55,1445787636
5515,17,Jits_Phase_5,3,5,80,127,1445791192
5515,17,Jits_Phase_5,4,5,63,98,1445830904
5515,17,Jits_Phase_5,0,1,48,73,1446267052
5515,17,Jits_Phase_5,1,1,48,55,1446288004
5515,17,Jits_Phase_5,2,5,56,103,1446300928
5515,17,Jits_Phase_5,3,5,63,98,1446320712
5515,17,Jits_Phase_5,4,5,80,127,1446330684
5515,17,Jits_Phase_5,0,5,80,127,1446771140
5515,17,Jits_Phase_5,1,1,48,74,1446773732
5515,17,Jits_Phase_5,2,5,56,103,1446800736
5515,17,Jits_Phase_5,3,5,63,98,1446840748
5515,17,Jits_Phase_5,0,5,80,127,1447280868
5515,17,Jits_Phase_5,1,1,48,71,1447286080
5515,17,Jits_Phase_5,2,5,56,103,1447300648
5515,17,Jits_Phase_5,3,5,63,98,1447360884
5515,17,Jits_Phase_5,0,1,48,73,1447770560
5515,17,Jits_Phase_5,1,1,48,55,1447790420
5515,17,Jits_Phase_5,2,5,56,103,1447791840
5515,17,Jits_Phase_5,3,5,80,127,1447810576
5515,17,Jits_Phase_5,4,5,63,98,1447870816
5515,17,Jits_Phase_5,0,1,48,72,1448263072
5515,17,Jits_Phase_5,1,5,80,127,1448271116
5515,17,Jits_Phase_5,2,5,56,103,1448280488
5515,17,Jits_Phase_5,3,5,63,98,1448321544
5515,17,Jits_Phase_5,0,1,48,86,1448722404
5515,17,Jits_Phase_5,1,1,48,64,1448742168
5515,17,Jits_Phase_5,2,5,63,98,1448770840
5515,17,Jits_Phase_5,3,5,56,103,1448810772
5515,17,Jits_Phase_5,4,5,80,127,1448813992
5515,17,Jits_Phase_5,0,1,48,74,1449224272
5515,17,Jits_Phase_5,1,5,63,98,1449291080
5515,17,Jits_Phase_5,2,5,80,127,1449331004
5515,17,Jits_Phase_5,3,5,56,103,1449360824
5515,17,Jits_Phase_5,0,1,48,83,1449740660
5515,17,Jits_Phase_5,1,1,48,65,1449762656
5515,17,Jits_Phase_5,2,5,56,103,1449780544
5515,17,Jits_Phase_5,3,5,63,98,1449790964
5515,17,Jits_Phase_5,4,5,80,127,1449820636
5515,17,Jits_Phase_5,0,1,48,87,1450241852
5515,17,Jits_Phase_5,1,1,48,65,1450262284
5515,17,Jits_Phase_5,2,5,80,127,1450271152
5515,17,Jits_Phase_5,3,5,63,98,1450340632
5515,17,Jits_Phase_5,4,5,56,103,1450350904
5515,17,Jits_Phase_5,0,1,48,89,1450750476
5515,17,Jits_Phase_5,1,1,48,62,1450769272
5515,17,Jits_Phase_5,2,5,63,98,1450770708
5515,17,Jits_Phase_5,3,5,56,103,1450840336
5515,17,Jits_Phase_5,4,5,80,127,1450850532
5515,17,Jits_Phase_5,0,5,63,98,1451251036
5515,17,Jits_Phase_5,1,1,48,89,1451270672
5515,17,Jits_Phase_5,2,5,56,103,1451272312
5515,17,Jits_Phase_5,3,1,48,65,1451293248
5515,17,Jits_Phase_5,4,5,80,127,1451310384
5515,17,Jits_Phase_5,0,5,56,103,1451731564
5515,17,Jits_Phase_5,1,5,63,98,1451740564
5515,17,Jits_Phase_5,2,1,48,80,1451764884
5515,17,Jits_Phase_5,3,5,80,127,1451821568
5515,17,Jits_Phase_5,0,5,63,98,1452220844
5515,17,Jits_Phase_5,1,1,48,83,1452245164
5515,17,Jits_Phase_5,2,5,56,103,1452250660
5515,17,Jits_Phase_5,3,1,48,66,1452264400
5515,17,Jits_Phase_5,4,5,80,127,1452290504
5515,17,Jits_Phase_5,0,5,56,103,1452720396
5515,17,Jits_Phase_5,1,1,48,83,1452734528
5515,17,Jits_Phase_5,2,1,48,65,1452754432
5515,17,Jits_Phase_5,3,5,63,98,1452760604
5515,17,Jits_Phase_5,4,5,80,127,1452801368
5515,17,Jits_Phase_5,0,5,80,127,1453221460
5515,17,Jits_Phase_5,1,1,48,79,1453245404
5515,17,Jits_Phase_5,2,1,48,58,1453265760
5515,17,Jits_Phase_5,3,5,56,103,1453301004
5515,17,Jits_Phase_5,4,5,63,98,1453311348
5515,17,Jits_Phase_5,0,1,48,84,1453736352
5515,17,Jits_Phase_5,1,1,48,59,1453759416
5515,17,Jits_Phase_5,2,5,56,103,1453760860
5515,17,Jits_Phase_5,3,5,63,98,1453763780
5515,17,Jits_Phase_5,4,5,80,127,1453770984
5515,17,Jits_Phase_5,0,1,48,81,1454229092
5515,17,Jits_Phase_5,1,1,48,56,1454253264
5515,17,Jits_Phase_5,2,5,56,103,1454281008
5515,17,Jits_Phase_5,3,5,63,98,1454300424
5515,17,Jits_Phase_5,4,5,80,127,1454310840
5515,17,Jits_Phase_5,0,1,48,67,1454718672
5515,17,Jits_Phase_5,1,5,63,98,1454740884
5515,17,Jits_Phase_5,2,1,48,48,1454745036
5515,17,Jits_Phase_5,3,5,80,127,1454751060
5515,17,Jits_Phase_5,4,5,56,103,1454770620
5515,17,Jits_Phase_5,0,1,48,76,1455226320
5515,17,Jits_Phase_5,1,1,48,61,1455245632
5515,17,Jits_Phase_5,2,5,63,98,1455250904
5515,17,Jits_Phase_5,3,5,56,103,1455330700
5515,17,Jits_Phase_5,4,5,80,127,1455333764
5515,17,Jits_Phase_5,0,1,48,79,1455734636
5515,17,Jits_Phase_5,1,5,63,98,1455750476
5515,17,Jits_Phase_5,2,1,48,58,1455755148
5515,17,Jits_Phase_5,3,5,56,103,1455771136
5515,17,Jits_Phase_5,4,5,80,127,1455800740
5515,17,Jits_Phase_5,0,1,48,58,1456228812
5515,17,Jits_Phase_5,1,5,56,103,1456251304
5515,17,Jits_Phase_5,2,5,63,98,1456270644
5515,17,Jits_Phase_5,3,5,80,127,1456280988
5515,17,Jits_Phase_5,0,1,48,57,1456697296
5515,17,Jits_Phase_5,1,5,56,103,1456780720
5515,17,Jits_Phase_5,2,5,63,98,1456811352
5515,17,Jits_Phase_5,3,5,80,127,1456814716
5515,17,Jits_Phase_5,0,1,48,63,1457163388
5515,17,Jits_Phase_5,1,5,56,103,1457231464
5515,17,Jits_Phase_5,2,5,63,98,1457271236
5515,17,Jits_Phase_5,3,5,80,127,1457330580
5515,17,Jits_Phase_5,0,1,48,69,1457650628
5515,17,Jits_Phase_5,1,5,56,103,1457751504
5515,17,Jits_Phase_5,2,5,63,98,1457760580
5515,17,Jits_Phase_5,3,5,80,127,1457820968
5515,17,Jits_Phase_5,0,1,48,69,1458159368
5515,17,Jits_Phase_5,1,5,56,103,1458251192
5515,17,Jits_Phase_5,2,5,80,127,1458270516
5515,17,Jits_Phase_5,3,5,63,98,1458301532
5515,17,Jits_Phase_5,0,1,48,67,1458682340
5515,17,Jits_Phase_5,1,5,80,127,1458750792
5515,17,Jits_Phase_5,2,5,56,103,1458761288
5515,17,Jits_Phase_5,3,5,63,98,1458780460
5515,17,Jits_Phase_5,0,1,48,62,1459202096
5515,17,Jits_Phase_5,1,5,63,98,1459241448
5515,17,Jits_Phase_5,2,5,80,127,1459321304
5515,17,Jits_Phase_5,3,5,56,103,1459330528
5515,17,Jits_Phase_5,0,1,48,75,1459715300
5515,17,Jits_Phase_5,1,5,80,127,1459831240
5515,17,Jits_Phase_5,2,5,56,103,1459850648
5515,17,Jits_Phase_5,3,5,63,98,1459853788
5515,17,Jits_Phase_5,0,1,48,74,1460223136
5515,17,Jits_Phase_5,1,5,63,98,1460320716
5515,17,Jits_Phase_5,2,5,80,127,1460323932
5515,17,Jits_Phase_5,3,5,56,103,1460381104
5515,17,Jits_Phase_5,0,1,48,67,1460727288
5515,17,Jits_Phase_5,1,5,56,103,1460800772
5515,17,Jits_Phase_5,2,5,80,127,1460811416
5515,17,Jits_Phase_5,3,5,63,98,1460851264
5515,17,Jits_Phase_5,0,1,48,66,1461259040
5515,17,Jits_Phase_5,1,5,56,103,1461281388
5515,17,Jits_Phase_5,2,5,63,98,1461340532
5515,17,Jits_Phase_5,3,5,80,127,1461350652
5515,17,Jits_Phase_5,0,1,48,55,1461774064
5515,17,Jits_Phase_5,1,5,63,98,1461791324
5515,17,Jits_Phase_5,2,5,80,127,1461831140
5515,17,Jits_Phase_5,3,5,56,103,1461871076
5515,17,Jits_Phase_5,0,1,48,68,1462280416
5515,17,Jits_Phase_5,1,5,56,103,1462290924
5515,17,Jits_Phase_5,2,5,63,98,1462370668
5515,17,Jits_Phase_5,3,5,80,127,1462374988
5515,17,Jits_Phase_5,0,1,48,58,1462773256
5515,17,Jits_Phase_5,1,5,80,127,1462851076
5515,17,Jits_Phase_5,2,5,56,103,1462880504
5515,17,Jits_Phase_5,3,5,63,98,1462883576
5515,17,Jits_Phase_5,0,1,48,61,1463291504
5515,17,Jits_Phase_5,1,5,56,103,1463310564
5515,17,Jits_Phase_5,2,5,80,127,1463331244
5515,17,Jits_Phase_5,3,5,63,98,1463371352
5515,17,Jits_Phase_5,0,1,48,58,1463750500
5515,17,Jits_Phase_5,1,5,80,127,1463791056
5515,17,Jits_Phase_5,2,5,63,98,1463810544
5515,17,Jits_Phase_5,3,5,56,103,1463870868
5515,17,Jits_Phase_5,0,1,48,52,1464263360
5515,17,Jits_Phase_5,1,5,63,98,1464300848
5515,17,Jits_Phase_5,2,5,56,103,1464311344
5515,17,Jits_Phase_5,3,5,80,127,1464361304
5515,17,Jits_Phase_5,0,1,48,48,1464762936
5515,17,Jits_Phase_5,1,5,56,103,1464791508
5515,17,Jits_Phase_5,2,5,63,98,1464810844
5515,17,Jits_Phase_5,3,5,80,127,1464821188
5515,17,Jits_Phase_5,0,1,48,39,1465273844
5515,17,Jits_Phase_5,1,5,56,103,1465280988
5515,17,Jits_Phase_5,2,5,63,98,1465283980
5515,17,Jits_Phase_5,3,5,80,127,1465301372
5515,17,Jits_Phase_5,0,1,48,45,1465755148
5515,17,Jits_Phase_5,1,5,63,98,1465820508
5515,17,Jits_Phase_5,2,5,56,103,1465852412
5515,17,Jits_Phase_5,3,5,80,127,1465881188
5515,17,Jits_Phase_5,0,1,48,46,1466246432
5515,17,Jits_Phase_5,1,5,80,127,1466281300
5515,17,Jits_Phase_5,2,5,56,103,1466370368
5515,17,Jits_Phase_5,3,5,63,98,1466373584
5515,17,Jits_Phase_5,0,5,56,103,1466781120
5515,17,Jits_Phase_5,1,5,80,127,1466784188
5515,17,Jits_Phase_5,2,1,48,57,1466796596
5515,17,Jits_Phase_5,3,5,63,98,1466861276
5515,17,Jits_Phase_5,0,1,48,57,1467265776
5515,17,Jits_Phase_5,1,5,80,127,1467280644
5515,17,Jits_Phase_5,2,5,63,98,1467341112
5515,17,Jits_Phase_5,3,5,56,103,1467371068
5515,17,Jits_Phase_5,0,1,48,57,1467768444
5515,17,Jits_Phase_5,1,5,63,98,1467780468
5515,17,Jits_Phase_5,2,5,80,127,1467790668
5515,17,Jits_Phase_5,3,5,56,103,1467861316
5515,17,Jits_Phase_5,0,1,48,60,1468246324
5515,17,Jits_Phase_5,1,5,56,103,1468340444
5515,17,Jits_Phase_5,2,5,80,127,1468371240
5515,17,Jits_Phase_5,3,5,63,98,1468420392
5515,17,Jits_Phase_5,0,1,48,65,1468772668
5515,17,Jits_Phase_5,1,1,48,47,1468798336
5515,17,Jits_Phase_5,2,5,63,98,1468930440
5515,17,Jits_Phase_5,3,5,56,103,1468961004
5515,17,Jits_Phase_5,4,5,80,127,1468964152
5515,17,Jits_Phase_5,0,1,48,67,1469280832
5515,17,Jits_Phase_5,1,5,63,98,1469431208
5515,17,Jits_Phase_5,2,5,80,127,1469450472
5515,17,Jits_Phase_5,3,5,56,103,1469461040
5515,17,Jits_Phase_5,0,1,48,66,1469806876
5515,17,Jits_Phase_5,1,5,56,103,1469941296
5515,17,Jits_Phase_5,2,5,63,98,1469944288
5515,17,Jits_Phase_5,3,5,80,127,1469960556
5515,17,Jits_Phase_5,0,1,48,65,1470288256
5515,17,Jits_Phase_5,1,5,56,103,1470390848
5515,17,Jits_Phase_5,2,5,63,98,1470400968
5515,17,Jits_Phase_5,3,5,80,127,1470430716
5515,17,Jits_Phase_5,0,1,48,62,1470788376
5515,17,Jits_Phase_5,1,5,63,98,1470910968
5515,17,Jits_Phase_5,2,5,80,127,1470931428
5515,17,Jits_Phase_5,3,5,56,103,1470971140
5515,17,Jits_Phase_5,0,1,48,54,1471259500
5515,17,Jits_Phase_5,1,5,56,103,1471441288
5515,17,Jits_Phase_5,2,5,63,98,1471481296
5515,17,Jits_Phase_5,3,5,80,127,1471484588
5515,17,Jits_Phase_5,0,1,48,51,1471729352
5515,17,Jits_Phase_5,1,5,80,127,1471880500
5515,17,Jits_Phase_5,2,5,56,103,1471920512
5515,17,Jits_Phase_5,3,5,63,98,1471970784
5515,17,Jits_Phase_5,0,1,48,63,1472266096
5515,17,Jits_Phase_5,1,5,56,103,1472440708
5515,17,Jits_Phase_5,2,5,80,127,1472451128
5515,17,Jits_Phase_5,3,5,63,98,1472480576
5515,17,Jits_Phase_5,0,1,48,70,1472738276
5515,17,Jits_Phase_5,1,5,56,103,1472891164
5515,17,Jits_Phase_5,2,5,80,127,1472931100
5515,17,Jits_Phase_5,3,5,63,98,1472981300
5515,17,Jits_Phase_5,0,1,48,67,1473256984
5515,17,Jits_Phase_5,1,5,56,103,1473391064
5515,17,Jits_Phase_5,2,5,80,127,1473431000
5515,17,Jits_Phase_5,3,5,63,98,1473481124
5515,17,Jits_Phase_5,0,1,48,66,1473772852
5515,17,Jits_Phase_5,1,5,80,127,1473880548
5515,17,Jits_Phase_5,2,5,63,98,1473961240
5515,17,Jits_Phase_5,3,5,56,103,1473970688
5515,17,Jits_Phase_5,0,1,48,73,1474272220
5515,17,Jits_Phase_5,1,5,80,127,1474431316
5515,17,Jits_Phase_5,2,5,56,103,1474440540
5515,17,Jits_Phase_5,3,5,63,98,1474460996
5515,17,Jits_Phase_5,0,1,48,79,1474804484
5515,17,Jits_Phase_5,1,5,63,98,1474902520
5515,17,Jits_Phase_5,2,5,56,103,1474970848
5515,17,Jits_Phase_5,3,5,80,127,1474973920
5515,17,Jits_Phase_5,0,1,48,77,1475312776
5515,17,Jits_Phase_5,1,5,80,127,1475391040
5515,17,Jits_Phase_5,2,5,63,98,1475441076
5515,17,Jits_Phase_5,3,5,56,103,1475480936
5515,17,Jits_Phase_5,0,1,48,82,1475834840
5515,17,Jits_Phase_5,1,1,48,66,1475856320
5515,17,Jits_Phase_5,2,5,63,98,1475930700
5515,17,Jits_Phase_5,3,5,56,103,1475970548
5515,17,Jits_Phase_5,4,5,80,127,1475980820
5515,17,Jits_Phase_5,0,1,48,84,1476355088
5515,17,Jits_Phase_5,1,1,48,64,1476374992
5515,17,Jits_Phase_5,2,5,63,98,1476420972
5515,17,Jits_Phase_5,3,5,56,103,1476440308
5515,17,Jits_Phase_5,4,5,80,127,1476460768
5515,17,Jits_Phase_5,0,5,80,127,1476880972
5515,17,Jits_Phase_5,1,1,48,84,1476881936
5515,17,Jits_Phase_5,2,5,56,103,1476891012
5515,17,Jits_Phase_5,3,1,48,60,1476902208
5515,17,Jits_Phase_5,4,5,63,98,1476910576
5515,17,Jits_Phase_5,0,5,63,98,1477411324
5515,17,Jits_Phase_5,1,5,56,103,1477451212
5515,17,Jits_Phase_5,2,1,48,61,1477479140
5515,17,Jits_Phase_5,3,5,80,127,1477480804
5515,17,Jits_Phase_5,0,5,56,103,1477870996
5515,17,Jits_Phase_5,1,5,63,98,1477900672
5515,17,Jits_Phase_5,2,5,80,127,1477931344
5515,17,Jits_Phase_5,3,1,48,86,1477962856
5515,17,Jits_Phase_5,0,5,80,127,1478290832
5515,17,Jits_Phase_5,1,5,56,103,1478360360
5515,17,Jits_Phase_5,2,5,63,98,1478363428
5515,17,Jits_Phase_5,3,1,48,75,1478440564
5515,17,Jits_Phase_5,4,1,48,55,1478462040
5515,17,Jits_Phase_5,0,5,56,103,1478800856
5515,17,Jits_Phase_5,1,5,63,98,1478851056
5515,17,Jits_Phase_5,2,5,80,127,1478880804
5515,17,Jits_Phase_5,3,1,48,84,1478895532
5515,17,Jits_Phase_5,4,1,48,63,1478917312
5515,17,Jits_Phase_5,0,5,63,98,1479281168
5515,17,Jits_Phase_5,1,5,80,127,1479284460
5515,17,Jits_Phase_5,2,5,56,103,1479341408
5515,17,Jits_Phase_5,3,1,48,74,1479362208
5515,17,Jits_Phase_5,4,1,48,53,1479384136
5515,17,Jits_Phase_5,0,5,56,103,1479810312
5515,17,Jits_Phase_5,1,5,80,127,1479820952
5515,17,Jits_Phase_5,2,1,48,65,1479853740
5515,17,Jits_Phase_5,3,5,63,98,1479870772
5515,17,Jits_Phase_5,4,1,48,51,1479878668
5515,17,Jits_Phase_5,0,5,63,98,1480280288
5515,17,Jits_Phase_5,1,5,56,103,1480290632
5515,17,Jits_Phase_5,2,5,80,127,1480321352
5515,17,Jits_Phase_5,3,1,48,68,1480335928
5515,17,Jits_Phase_5,0,1,48,68,1480783664
5515,17,Jits_Phase_5,1,1,48,51,1480805968
5515,17,Jits_Phase_5,2,5,63,98,1480810792
5515,17,Jits_Phase_5,3,5,80,127,1480814156
5515,17,Jits_Phase_5,4,5,56,103,1480840764
5515,17,Jits_Phase_5,0,1,48,65,1481251948
5515,17,Jits_Phase_5,1,5,63,98,1481331112
5515,17,Jits_Phase_5,2,5,56,103,1481350436
5515,17,Jits_Phase_5,3,5,80,127,1481353428
5515,17,Jits_Phase_5,0,1,48,60,1481762252
5515,17,Jits_Phase_5,1,5,63,98,1481790776
5515,17,Jits_Phase_5,2,5,56,103,1481860588
5515,17,Jits_Phase_5,3,5,80,127,1481880896
5515,17,Jits_Phase_5,0,1,48,67,1482262676
5515,17,Jits_Phase_5,1,5,56,103,1482281304
5515,17,Jits_Phase_5,2,5,63,98,1482290532
5515,17,Jits_Phase_5,3,5,80,127,1482380792
5515,17,Jits_Phase_5,0,1,48,62,1482768252
5515,17,Jits_Phase_5,1,5,56,103,1482800608
5515,17,Jits_Phase_5,2,5,80,127,1482840692
5515,17,Jits_Phase_5,3,5,63,98,1482850740
5515,17,Jits_Phase_5,0,1,48,53,1483274004
5515,17,Jits_Phase_5,1,5,56,103,1483320808
5515,17,Jits_Phase_5,2,5,63,98,1483351380
5515,17,Jits_Phase_5,3,5,80,127,1483381040
5515,17,Jits_Phase_5,0,5,80,127,1483780828
5515,17,Jits_Phase_5,1,1,48,59,1483783652
5515,17,Jits_Phase_5,2,5,63,98,1483821536
5515,17,Jits_Phase_5,3,5,56,103,1483841020
5515,17,Jits_Phase_5,0,1,48,52,1484291500
5515,17,Jits_Phase_5,1,5,56,103,1484321192
5515,17,Jits_Phase_5,2,5,80,127,1484340852
5515,17,Jits_Phase_5,3,5,63,98,1484361088
5515,17,Jits_Phase_5,0,1,48,54,1484791124
5515,17,Jits_Phase_5,1,5,63,98,1484792536
5515,17,Jits_Phase_5,2,5,56,103,1484801388
5515,17,Jits_Phase_5,3,5,80,127,1484860904
5515,17,Jits_Phase_5,0,1,48,51,1485270840
5515,17,Jits_Phase_5,1,5,56,103,1485290792
5515,17,Jits_Phase_5,2,5,63,98,1485360424
5515,17,Jits_Phase_5,3,5,80,127,1485381088
5515,17,Jits_Phase_5,0,1,48,53,1485754404
5515,17,Jits_Phase_5,1,5,56,103,1485790692
5515,17,Jits_Phase_5,2,5,63,98,1485821416
5515,17,Jits_Phase_5,3,5,80,127,1485861264
5515,17,Jits_Phase_5,0,1,48,51,1486276320
5515,17,Jits_Phase_5,1,5,63,98,1486281076
5515,17,Jits_Phase_5,2,5,56,103,1486331352
5515,17,Jits_Phase_5,3,5,80,127,1486340724
5515,17,Jits_Phase_5,0,1,48,51,1486759896
5515,17,Jits_Phase_5,1,5,56,103,1486820684
5515,17,Jits_Phase_5,2,5,63,98,1486871016
5515,17,Jits_Phase_5,3,5,80,127,1486881212
5515,17,Jits_Phase_5,0,1,48,48,1487254852
5515,17,Jits_Phase_5,1,5,56,103,1487290692
5515,17,Jits_Phase_5,2,5,63,98,1487301112
5515,17,Jits_Phase_5,3,5,80,127,1487380812
5515,17,Jits_Phase_5,0,9999,9999,9999,1403058248
5515,17,Jits_Phase_5,1,9999,9999,9999,1403558980
5515,17,Jits_Phase_5,2,9999,9999,9999,1404058732
5515,17,Jits_Phase_5,3,9999,9999,9999,1404558404
5515,17,Jits_Phase_5,4,9999,9999,9999,1405058160
5515,17,Jits_Phase_5,5,9999,9999,9999,1405558864
5515,17,Jits_Phase_5,6,9999,9999,9999,1406058568
5515,17,Jits_Phase_5,7,9999,9999,9999,1406558284
5515,17,Jits_Phase_5,8,9999,9999,9999,1407059048
5515,17,Jits_Phase_5,9,9999,9999,9999,1407558720
5515,17,Jits_Phase_5,10,9999,9999,9999,1408058460
5515,17,Jits_Phase_5,11,9999,9999,9999,1408558192
5515,17,Jits_Phase_5,12,9999,9999,9999,1409058884
5515,17,Jits_Phase_5,13,9999,9999,9999,1409558620
5515,17,Jits_Phase_5,14,9999,9999,9999,1410058352
5515,17,Jits_Phase_5,15,9999,9999,9999,1410559052
5515,17,Jits_Phase_5,16,9999,9999,9999,1411058756
5515,17,Jits_Phase_5,17,9999,9999,9999,1411558460
5515,17,Jits_Phase_5,18,9999,9999,9999,1412058236
5515,17,Jits_Phase_5,19,9999,9999,9999,1412558936
5515,17,Jits_Phase_5,20,9999,9999,9999,1413058672
5515,17,Jits_Phase_5,21,9999,9999,9999,1413558340
5515,17,Jits_Phase_5,22,9999,9999,9999,1414059112
5515,17,Jits_Phase_5,23,9999,9999,9999,1414569068
5515,17,Jits_Phase_5,24,9999,9999,9999,1415068756
5515,17,Jits_Phase_5,25,9999,9999,9999,1415568448
5515,17,Jits_Phase_5,26,9999,9999,9999,1416068156
5515,17,Jits_Phase_5,27,9999,9999,9999,1416568924
5515,17,Jits_Phase_5,28,9999,9999,9999,1417068604
5515,17,Jits_Phase_5,29,9999,9999,9999,1417568352
5515,17,Jits_Phase_5,30,9999,9999,9999,1418058808
5515,17,Jits_Phase_5,31,9999,9999,9999,1418558540
5515,17,Jits_Phase_5,32,9999,9999,9999,1419058264
5515,17,Jits_Phase_5,33,9999,9999,9999,1419559032
5515,17,Jits_Phase_5,34,9999,9999,9999,1420058680
5515,17,Jits_Phase_5,35,9999,9999,9999,1420558408
5515,17,Jits_Phase_5,36,9999,9999,9999,1421058128
5515,17,Jits_Phase_5,37,9999,9999,9999,1421558904
5515,17,Jits_Phase_5,38,9999,9999,9999,1422058556
5515,17,Jits_Phase_5,39,9999,9999,9999,1422558308
5515,17,Jits_Phase_5,40,9999,9999,9999,1423059032
5515,17,Jits_Phase_5,41,9999,9999,9999,1423558776
5515,17,Jits_Phase_5,42,9999,9999,9999,1424058452
5515,17,Jits_Phase_5,43,9999,9999,9999,1424558196
5515,17,Jits_Phase_5,44,9999,9999,9999,1425058920
5515,17,Jits_Phase_5,45,9999,9999,9999,1425558592
5515,17,Jits_Phase_5,46,9999,9999,9999,1426058340
5515,17,Jits_Phase_5,47,9999,9999,9999,1426559068
5515,17,Jits_Phase_5,48,9999,9999,9999,1427069008
5515,17,Jits_Phase_5,49,9999,9999,9999,1427568740
5515,17,Jits_Phase_5,50,9999,9999,9999,1428068436
5515,17,Jits_Phase_5,51,9999,9999,9999,1428568140
5515,17,Jits_Phase_5,52,9999,9999,9999,1429068920
5515,17,Jits_Phase_5,53,9999,9999,9999,1429568628
5515,17,Jits_Phase_5,54,9999,9999,9999,1430068332
5515,17,Jits_Phase_5,55,9999,9999,9999,1430569024
5515,17,Jits_Phase_5,56,9999,9999,9999,1431068744
5515,17,Jits_Phase_5,57,9999,9999,9999,1431568460
5515,17,Jits_Phase_5,58,9999,9999,9999,1432068168
5515,17,Jits_Phase_5,59,9999,9999,9999,1432568908
5515,17,Jits_Phase_5,60,9999,9999,9999,1433068640
5515,17,Jits_Phase_5,61,9999,9999,9999,1433568368
5515,17,Jits_Phase_5,62,9999,9999,9999,1434069120
5515,17,Jits_Phase_5,63,9999,9999,9999,1434568764
5515,17,Jits_Phase_5,64,9999,9999,9999,1435089020
5515,17,Jits_Phase_5,65,9999,9999,9999,1435588668
5515,17,Jits_Phase_5,66,9999,9999,9999,1436088400
5515,17,Jits_Phase_5,67,9999,9999,9999,1436588092
5515,17,Jits_Phase_5,68,9999,9999,9999,1437088848
5515,17,Jits_Phase_5,69,9999,9999,9999,1437588552
5515,17,Jits_Phase_5,70,9999,9999,9999,1438088248
5515,17,Jits_Phase_5,71,9999,9999,9999,1438589012
5515,17,Jits_Phase_5,72,9999,9999,9999,1439088732
5515,17,Jits_Phase_5,73,9999,9999,9999,1439588460
5515,17,Jits_Phase_5,74,9999,9999,9999,1440088188
5515,17,Jits_Phase_5,75,9999,9999,9999,1440588868
5515,17,Jits_Phase_5,76,9999,9999,9999,1441088592
5515,17,Jits_Phase_5,77,9999,9999,9999,1441588320
5515,17,Jits_Phase_5,78,9999,9999,9999,1442089084
5515,17,Jits_Phase_5,79,9999,9999,9999,1442588780
5515,17,Jits_Phase_5,80,9999,9999,9999,1443088480
5515,17,Jits_Phase_5,81,9999,9999,9999,1443568728
5515,17,Jits_Phase_5,82,9999,9999,9999,1444068456
5515,17,Jits_Phase_5,83,9999,9999,9999,1444568180
5515,17,Jits_Phase_5,84,9999,9999,9999,1445068920
5515,17,Jits_Phase_5,85,9999,9999,9999,1445568568
5515,17,Jits_Phase_5,86,9999,9999,9999,1446068344
5515,17,Jits_Phase_5,87,9999,9999,9999,1446569024
5515,17,Jits_Phase_5,88,9999,9999,9999,1447068748
5515,17,Jits_Phase_5,89,9999,9999,9999,1447568440
5515,17,Jits_Phase_5,90,9999,9999,9999,1448068180
5515,17,Jits_Phase_5,91,9999,9999,9999,1448568948
5515,17,Jits_Phase_5,92,9999,9999,9999,1449068664
5515,17,Jits_Phase_5,93,9999,9999,9999,1449568320
5515,17,Jits_Phase_5,94,9999,9999,9999,1450069088
5515,17,Jits_Phase_5,95,9999,9999,9999,1450568792
5515,17,Jits_Phase_5,96,9999,9999,9999,1451068496
5515,17,Jits_Phase_5,97,9999,9999,9999,1451519032
5515,17,Jits_Phase_5,98,9999,9999,9999,1452018764
5515,17,Jits_Phase_5,99,9999,9999,9999,1452518504
5515,17,Jits_Phase_5,100,9999,9999,9999,1453018208
5515,17,Jits_Phase_5,101,9999,9999,9999,1453518976
5515,17,Jits_Phase_5,102,9999,9999,9999,1454018684
5515,17,Jits_Phase_5,103,9999,9999,9999,1454518396
5515,17,Jits_Phase_5,104,9999,9999,9999,1455019068
5515,17,Jits_Phase_5,105,9999,9999,9999,1455529032
5515,17,Jits_Phase_5,106,9999,9999,9999,1456028740
5515,17,Jits_Phase_5,107,9999,9999,9999,1456528464
5515,17,Jits_Phase_5,108,9999,9999,9999,1457028208
5515,17,Jits_Phase_5,109,9999,9999,9999,1457528928
5515,17,Jits_Phase_5,110,9999,9999,9999,1458028608
5515,17,Jits_Phase_5,111,9999,9999,9999,1458528356
5515,17,Jits_Phase_5,112,9999,9999,9999,1459029076
5515,17,Jits_Phase_5,113,9999,9999,9999,1459528804
5515,17,Jits_Phase_5,114,9999,9999,9999,1460078664
5515,17,Jits_Phase_5,115,9999,9999,9999,1460578408
5515,17,Jits_Phase_5,116,9999,9999,9999,1461078084
5515,17,Jits_Phase_5,117,9999,9999,9999,1461578876
5515,17,Jits_Phase_5,118,9999,9999,9999,1462078552
5515,17,Jits_Phase_5,119,9999,9999,9999,1462578292
5515,17,Jits_Phase_5,120,9999,9999,9999,1463078984
5515,17,Jits_Phase_5,121,9999,9999,9999,1463578732
5515,17,Jits_Phase_5,122,9999,9999,9999,1464078412
5515,17,Jits_Phase_5,123,9999,9999,9999,1464578136
5515,17,Jits_Phase_5,124,9999,9999,9999,1465078856
5515,17,Jits_Phase_5,125,9999,9999,9999,1465578588
5515,17,Jits_Phase_5,126,9999,9999,9999,1466078268
5515,17,Jits_Phase_5,127,9999,9999,9999,1466579056
5515,17,Jits_Phase_5,128,9999,9999,9999,1467078716
5515,17,Jits_Phase_5,129,9999,9999,9999,1467578484
5515,17,Jits_Phase_5,130,9999,9999,9999,1468078156
5515,17,Jits_Phase_5,131,9999,9999,9999,1468678220
5515,17,Jits_Phase_5,132,9999,9999,9999,1469178988
5515,17,Jits_Phase_5,133,9999,9999,9999,1469678644
5515,17,Jits_Phase_5,134,9999,9999,9999,1470178384
5515,17,Jits_Phase_5,135,9999,9999,9999,1470678132
5515,17,Jits_Phase_5,136,9999,9999,9999,1471178856
5515,17,Jits_Phase_5,137,9999,9999,9999,1471678528
5515,17,Jits_Phase_5,138,9999,9999,9999,1472178276
5515,17,Jits_Phase_5,139,9999,9999,9999,1472679004
5515,17,Jits_Phase_5,140,9999,9999,9999,1473178680
5515,17,Jits_Phase_5,141,9999,9999,9999,1473678428
5515,17,Jits_Phase_5,142,9999,9999,9999,1474178104
5515,17,Jits_Phase_5,143,9999,9999,9999,1474678900
5515,17,Jits_Phase_5,144,9999,9999,9999,1475178568
5515,17,Jits_Phase_5,145,9999,9999,9999,1475678316
5515,17,Jits_Phase_5,146,9999,9999,9999,1476179020
5515,17,Jits_Phase_5,147,9999,9999,9999,1476678728
5515,17,Jits_Phase_5,148,9999,9999,9999,1477178428
5515,17,Jits_Phase_5,149,9999,9999,9999,1477678172
5515,17,Jits_Phase_5,150,9999,9999,9999,1478078560
5515,17,Jits_Phase_5,151,9999,9999,9999,1478578272
5515,17,Jits_Phase_5,152,9999,9999,9999,1479078968
5515,17,Jits_Phase_5,153,9999,9999,9999,1479578748
5515,17,Jits_Phase_5,154,9999,9999,9999,1480078452
5515,17,Jits_Phase_5,155,9999,9999,9999,1480578112
5515,17,Jits_Phase_5,156,9999,9999,9999,1481078876
5515,17,Jits_Phase_5,157,9999,9999,9999,1481578600
5515,17,Jits_Phase_5,158,9999,9999,9999,1482078276
5515,17,Jits_Phase_5,159,9999,9999,9999,1482579068
5515,17,Jits_Phase_5,160,9999,9999,9999,1483078740
5515,17,Jits_Phase_5,161,9999,9999,9999,1483578492
5515,17,Jits_Phase_5,162,9999,9999,9999,1484078164
5515,17,Jits_Phase_5,163,9999,9999,9999,1484578876
5515,17,Jits_Phase_5,164,9999,9999,9999,1485078616
5515,17,Jits_Phase_5,165,9999,9999,9999,1485578296
5515,17,Jits_Phase_5,166,9999,9999,9999,1486079092
5515,17,Jits_Phase_5,167,9999,9999,9999,1486578764
5515,17,Jits_Phase_5,168,9999,9999,9999,1487078516
5515,17,Jits_Phase_5,169,9999,9999,9999,1487578192
5516,15,Jits_Phase_8,0,5,56,103,1498336652
5516,15,Jits_Phase_8,1,5,63,98,1498339824
5516,15,Jits_Phase_8,2,5,80,127,1498342944
5516,15,Jits_Phase_8,0,1,48,50,1498780512
5516,15,Jits_Phase_8,1,5,56,103,1499137240
5516,15,Jits_Phase_8,2,5,63,98,1499140488
5516,15,Jits_Phase_8,3,5,80,127,1499143392
5516,15,Jits_Phase_8,0,1,48,59,1499573360
5516,15,Jits_Phase_8,1,5,80,127,1499876616
5516,15,Jits_Phase_8,2,5,63,98,1499966700
5516,15,Jits_Phase_8,3,5,56,103,1499976972
5516,15,Jits_Phase_8,4,1,48,66,1500308152
5516,15,Jits_Phase_8,5,1,48,51,1500330080
5516,15,Jits_Phase_8,0,5,56,103,1500696988
5516,15,Jits_Phase_8,1,5,63,98,1500707408
5516,15,Jits_Phase_8,2,5,80,127,1500797568
5516,15,Jits_Phase_8,3,1,48,71,1501108072
5516,15,Jits_Phase_8,0,5,63,98,1501467244
5516,15,Jits_Phase_8,1,5,80,127,1501496644
5516,15,Jits_Phase_8,2,5,56,103,1501527368
5516,15,Jits_Phase_8,3,1,48,76,1501832252
5516,15,Jits_Phase_8,4,1,48,49,1501860248
5516,15,Jits_Phase_8,0,5,56,103,1502266676
5516,15,Jits_Phase_8,1,5,80,127,1502367076
5516,15,Jits_Phase_8,2,5,63,98,1502417424
5516,15,Jits_Phase_8,3,1,48,80,1502662452
5516,15,Jits_Phase_8,4,1,48,55,1502693892
5516,15,Jits_Phase_8,0,5,56,103,1503066408
5516,15,Jits_Phase_8,1,5,80,127,1503116612
5516,15,Jits_Phase_8,2,5,63,98,1503156548
5516,15,Jits_Phase_8,3,1,48,85,1503411244
5516,15,Jits_Phase_8,4,1,48,60,1503438716
5516,15,Jits_Phase_8,0,5,80,127,1503896928
5516,15,Jits_Phase_8,1,5,63,98,1503926676
5516,15,Jits_Phase_8,2,5,56,103,1503997256
5516,15,Jits_Phase_8,3,1,48,76,1504233964
5516,15,Jits_Phase_8,4,1,48,51,1504262340
5516,15,Jits_Phase_8,0,5,63,98,1504727372
5516,15,Jits_Phase_8,1,5,56,103,1504757196
5516,15,Jits_Phase_8,2,5,80,127,1504816420
5516,15,Jits_Phase_8,3,1,48,79,1505006440
5516,15,Jits_Phase_8,0,5,56,103,1505466672
5516,15,Jits_Phase_8,1,5,80,127,1505469736
5516,15,Jits_Phase_8,2,5,63,98,1505586568
5516,15,Jits_Phase_8,3,1,48,77,1505777640
5516,15,Jits_Phase_8,0,5,56,103,1506347372
5516,15,Jits_Phase_8,1,5,80,127,1506387312
5516,15,Jits_Phase_8,2,5,63,98,1506396536
5516,15,Jits_Phase_8,3,1,48,67,1506713176
5516,15,Jits_Phase_8,0,1,48,48,1506744748
5516,15,Jits_Phase_8,1,5,56,103,1507107288
5516,15,Jits_Phase_8,2,5,80,127,1507126504
5516,15,Jits_Phase_8,3,5,63,98,1507206520
5516,15,Jits_Phase_8,4,1,48,66,1507453716
5516,15,Jits_Phase_8,5,1,48,50,1507489584
5516,15,Jits_Phase_8,0,5,80,127,1507896752
5516,15,Jits_Phase_8,1,5,56,103,1507997224
5516,15,Jits_Phase_8,2,5,63,98,1508007272
5516,15,Jits_Phase_8,3,1,48,63,1508222556
5516,15,Jits_Phase_8,4,1,48,44,1508254296
5516,15,Jits_Phase_8,0,5,63,98,1508666800
5516,15,Jits_Phase_8,1,5,80,127,1508727264
5516,15,Jits_Phase_8,2,5,56,103,1508737384
5516,15,Jits_Phase_8,3,1,48,64,1508987144
5516,15,Jits_Phase_8,4,1,48,45,1509024192
5516,15,Jits_Phase_8,0,5,56,103,1509466508
5516,15,Jits_Phase_8,1,5,63,98,1509537236
5516,15,Jits_Phase_8,2,5,80,127,1509540600
5516,15,Jits_Phase_8,3,1,48,45,1509734472
5516,15,Jits_Phase_8,4,1,48,37,1509767044
5516,15,Jits_Phase_8,0,5,63,98,1510297168
5516,15,Jits_Phase_8,1,5,56,103,1510347068
5516,15,Jits_Phase_8,2,5,80,127,1510350360
5516,15,Jits_Phase_8,3,1,48,64,1510623184
5516,15,Jits_Phase_8,4,1,48,48,1510655240
5516,15,Jits_Phase_8,0,5,56,103,1511056712
5516,15,Jits_Phase_8,1,5,80,127,1511060004
5516,15,Jits_Phase_8,2,5,63,98,1511146992
5516,15,Jits_Phase_8,3,1,48,65,1511378768
5516,15,Jits_Phase_8,4,1,48,48,1511417932
5516,15,Jits_Phase_8,0,5,63,98,1511896436
5516,15,Jits_Phase_8,1,5,56,103,1511986524
5516,15,Jits_Phase_8,2,5,80,127,1512017320
5516,15,Jits_Phase_8,3,1,48,65,1512245656
5516,15,Jits_Phase_8,4,1,48,53,1512275668
5516,15,Jits_Phase_8,0,5,56,103,1512687164
5516,15,Jits_Phase_8,1,5,63,98,1512787288
5516,15,Jits_Phase_8,2,5,80,127,1512817040
5516,15,Jits_Phase_8,3,1,48,66,1513015560
5516,15,Jits_Phase_8,4,1,48,49,1513044884
5516,15,Jits_Phase_8,0,5,63,98,1513507200
5516,15,Jits_Phase_8,1,5,56,103,1513517420
5516,15,Jits_Phase_8,2,5,80,127,1513606652
5516,15,Jits_Phase_8,3,1,48,65,1513787340
5516,15,Jits_Phase_8,4,1,48,49,1513810988
5516,15,Jits_Phase_8,0,5,63,98,1514327396
5516,15,Jits_Phase_8,1,5,56,103,1514407184
5516,15,Jits_Phase_8,2,5,80,127,1514410404
5516,15,Jits_Phase_8,3,1,48,62,1514639184
5516,15,Jits_Phase_8,4,1,48,50,1514667412
5516,15,Jits_Phase_8,0,5,80,127,1515087172
5516,15,Jits_Phase_8,1,5,63,98,1515106808
5516,15,Jits_Phase_8,2,5,56,103,1515167048
5516,15,Jits_Phase_8,3,1,48,52,1515389756
5516,15,Jits_Phase_8,0,5,56,103,1515927028
5516,15,Jits_Phase_8,1,5,63,98,1515947256
5516,15,Jits_Phase_8,2,5,80,127,1515950624
5516,15,Jits_Phase_8,3,1,48,62,1516264348
5516,15,Jits_Phase_8,4,1,48,48,1516288464
5516,15,Jits_Phase_8,0,5,63,98,1516667260
5516,15,Jits_Phase_8,1,5,80,127,1516747204
5516,15,Jits_Phase_8,2,5,56,103,1516757476
5516,15,Jits_Phase_8,3,1,48,70,1517114452
5516,15,Jits_Phase_8,0,1,48,55,1517145556
5516,15,Jits_Phase_8,1,5,63,98,1517486520
5516,15,Jits_Phase_8,2,5,56,103,1517506980
5516,15,Jits_Phase_8,3,5,80,127,1517557104
5516,15,Jits_Phase_8,4,1,48,59,1517873548
5516,15,Jits_Phase_8,5,1,48,46,1517898552
5516,15,Jits_Phase_8,0,5,80,127,1518287116
5516,15,Jits_Phase_8,1,5,63,98,1518327204
5516,15,Jits_Phase_8,2,5,56,103,1518346468
5516,15,Jits_Phase_8,3,1,48,53,1518679020
5516,15,Jits_Phase_8,4,1,48,41,1518706344
5516,15,Jits_Phase_8,0,5,56,103,1519127000
5516,15,Jits_Phase_8,1,5,63,98,1519137120
5516,15,Jits_Phase_8,2,5,80,127,1519156708
5516,15,Jits_Phase_8,3,1,48,46,1519464900
5516,15,Jits_Phase_8,0,5,56,103,1519857096
5516,15,Jits_Phase_8,1,5,63,98,1519947032
5516,15,Jits_Phase_8,2,5,80,127,1520006820
5516,15,Jits_Phase_8,3,1,48,47,1520257180
5516,15,Jits_Phase_8,0,5,80,127,1520686416
5516,15,Jits_Phase_8,1,5,56,103,1520697056
5516,15,Jits_Phase_8,2,5,63,98,1520767412
5516,15,Jits_Phase_8,3,1,48,49,1520995148
5516,15,Jits_Phase_8,0,5,63,98,1521516976
5516,15,Jits_Phase_8,1,5,80,127,1521606960
5516,15,Jits_Phase_8,2,5,56,103,1521617304
5516,15,Jits_Phase_8,3,1,48,41,1521875752
5516,15,Jits_Phase_8,0,5,63,98,1522247136
5516,15,Jits_Phase_8,1,5,80,127,1522297188
5516,15,Jits_Phase_8,2,5,56,103,1522356752
5516,15,Jits_Phase_8,3,1,48,43,1522620288
5516,15,Jits_Phase_8,0,5,56,103,1523067180
5516,15,Jits_Phase_8,1,5,80,127,1523117604
5516,15,Jits_Phase_8,2,5,63,98,1523136868
5516,15,Jits_Phase_8,3,1,48,54,1523385580
5516,15,Jits_Phase_8,0,5,56,103,1523837280
5516,15,Jits_Phase_8,1,5,80,127,1523896776
5516,15,Jits_Phase_8,2,5,63,98,1523967428
5516,15,Jits_Phase_8,3,1,48,57,1524137252
5516,15,Jits_Phase_8,0,5,56,103,1524637048
5516,15,Jits_Phase_8,1,5,80,127,1524666800
5516,15,Jits_Phase_8,2,5,63,98,1524696624
5516,15,Jits_Phase_8,3,1,48,48,1524901204
5516,15,Jits_Phase_8,0,5,56,103,1525476824
5516,15,Jits_Phase_8,1,5,80,127,1525497136
5516,15,Jits_Phase_8,2,5,63,98,1525556652
5516,15,Jits_Phase_8,3,1,48,49,1525708248
5516,15,Jits_Phase_8,0,5,80,127,1526357460
5516,15,Jits_Phase_8,1,5,56,103,1526366540
5516,15,Jits_Phase_8,2,5,63,98,1526376808
5516,15,Jits_Phase_8,3,1,48,48,1526581832
5516,15,Jits_Phase_8,0,5,56,103,1527117232
5516,15,Jits_Phase_8,1,5,80,127,1527157172
5516,15,Jits_Phase_8,2,5,63,98,1527186772
5516,15,Jits_Phase_8,3,1,48,50,1527374120
5516,15,Jits_Phase_8,0,5,56,103,1527887192
5516,15,Jits_Phase_8,1,5,63,98,1527916944
5516,15,Jits_Phase_8,2,5,80,127,1527956880
5516,15,Jits_Phase_8,3,1,48,45,1528140408
5516,15,Jits_Phase_8,0,5,80,127,1528636844
5516,15,Jits_Phase_8,1,5,63,98,1528686972
5516,15,Jits_Phase_8,2,5,56,103,1528706680
5516,15,Jits_Phase_8,3,1,48,25,1529030516
5516,15,Jits_Phase_8,0,5,56,103,1529467308
5516,15,Jits_Phase_8,1,5,80,127,1529536768
5516,15,Jits_Phase_8,2,5,63,98,1529597604
5516,15,Jits_Phase_8,3,1,48,51,1529881892
5516,15,Jits_Phase_8,0,5,80,127,1530266936
5516,15,Jits_Phase_8,1,5,63,98,1530357000
5516,15,Jits_Phase_8,2,5,56,103,1530376636
5516,15,Jits_Phase_8,3,1,48,54,1530589532
5516,15,Jits_Phase_8,0,5,63,98,1531087168
5516,15,Jits_Phase_8,1,5,56,103,1531106652
5516,15,Jits_Phase_8,2,5,80,127,1531146664
5516,15,Jits_Phase_8,3,1,48,59,1531397768
5516,15,Jits_Phase_8,4,1,48,43,1531434616
5516,15,Jits_Phase_8,0,5,80,127,1531847004
5516,15,Jits_Phase_8,1,5,63,98,1531866564
5516,15,Jits_Phase_8,2,5,56,103,1531947428
5516,15,Jits_Phase_8,3,1,48,73,1532178956
5516,15,Jits_Phase_8,4,1,48,49,1532221652
5516,15,Jits_Phase_8,0,5,63,98,1532636748
5516,15,Jits_Phase_8,1,5,56,103,1532747056
5516,15,Jits_Phase_8,2,5,80,127,1532750124
5516,15,Jits_Phase_8,3,1,48,61,1532998088
5516,15,Jits_Phase_8,4,1,48,43,1533040688
5516,15,Jits_Phase_8,0,5,63,98,1533456684
5516,15,Jits_Phase_8,1,5,56,103,1533466952
5516,15,Jits_Phase_8,2,5,80,127,1533470016
5516,15,Jits_Phase_8,3,1,48,57,1533774400
5516,15,Jits_Phase_8,4,1,48,42,1533808548
5516,15,Jits_Phase_8,0,5,56,103,1534236972
5516,15,Jits_Phase_8,1,5,80,127,1534356804
5516,15,Jits_Phase_8,2,5,63,98,1534396668
5516,15,Jits_Phase_8,3,1,48,54,1534535036
5516,15,Jits_Phase_8,0,5,56,103,1535057232
5516,15,Jits_Phase_8,1,5,80,127,1535137252
5516,15,Jits_Phase_8,2,5,63,98,1535156588
5516,15,Jits_Phase_8,3,1,48,59,1535361912
5516,15,Jits_Phase_8,0,5,56,103,1535857004
5516,15,Jits_Phase_8,1,5,63,98,1535966692
5516,15,Jits_Phase_8,2,5,80,127,1535969908
5516,15,Jits_Phase_8,3,1,48,63,1536181756
5516,15,Jits_Phase_8,4,1,48,43,1536213272
5516,15,Jits_Phase_8,0,5,56,103,1536696664
5516,15,Jits_Phase_8,1,5,80,127,1536727608
5516,15,Jits_Phase_8,2,5,63,98,1536746796
5516,15,Jits_Phase_8,3,1,48,59,1536962840
5516,15,Jits_Phase_8,4,1,48,47,1536987472
5516,15,Jits_Phase_8,0,5,63,98,1537487472
5516,15,Jits_Phase_8,1,5,56,103,1537496476
5516,15,Jits_Phase_8,2,5,80,127,1537506668
5516,15,Jits_Phase_8,3,1,48,57,1537759192
5516,15,Jits_Phase_8,4,1,48,44,1537786144
5516,15,Jits_Phase_8,0,5,80,127,1538276692
5516,15,Jits_Phase_8,1,5,56,103,1538326748
5516,15,Jits_Phase_8,2,5,63,98,1538366712
5516,15,Jits_Phase_8,3,1,48,50,1538533128
5516,15,Jits_Phase_8,0,5,80,127,1539096844
5516,15,Jits_Phase_8,1,5,63,98,1539117628
5516,15,Jits_Phase_8,2,5,56,103,1539166632
5516,15,Jits_Phase_8,3,1,48,50,1539377056
5516,15,Jits_Phase_8,0,5,80,127,1539906980
5516,15,Jits_Phase_8,1,5,56,103,1539936580
5516,15,Jits_Phase_8,2,5,63,98,1540007380
5516,15,Jits_Phase_8,3,1,48,41,1540226428
5516,15,Jits_Phase_8,0,5,56,103,1540756804
5516,15,Jits_Phase_8,1,5,80,127,1540767076
5516,15,Jits_Phase_8,2,5,63,98,1540807088
5516,15,Jits_Phase_8,3,1,48,46,1541076916
5516,15,Jits_Phase_8,0,5,56,103,1541466452
5516,15,Jits_Phase_8,1,5,63,98,1541486836
5516,15,Jits_Phase_8,2,5,80,127,1541556588
5516,15,Jits_Phase_8,3,1,48,41,1541776152
5516,15,Jits_Phase_8,0,5,63,98,1542286596
5516,15,Jits_Phase_8,1,5,80,127,1542347208
5516,15,Jits_Phase_8,2,5,56,103,1542366548
5516,15,Jits_Phase_8,3,1,48,51,1542655184
5516,15,Jits_Phase_8,0,5,80,127,1543077356
5516,15,Jits_Phase_8,1,5,56,103,1543106884
5516,15,Jits_Phase_8,2,5,63,98,1543136632
5516,15,Jits_Phase_8,3,1,48,54,1543405344
5516,15,Jits_Phase_8,4,1,48,41,1543441196
5516,15,Jits_Phase_8,0,5,56,103,1543876936
5516,15,Jits_Phase_8,1,5,63,98,1543937476
5516,15,Jits_Phase_8,2,5,80,127,1543996768
5516,15,Jits_Phase_8,3,1,48,56,1544177056
5516,15,Jits_Phase_8,0,5,80,127,1544697532
5516,15,Jits_Phase_8,1,5,56,103,1544716648
5516,15,Jits_Phase_8,2,5,63,98,1544787252
5516,15,Jits_Phase_8,3,1,48,59,1544975032
5516,15,Jits_Phase_8,0,5,80,127,1545497232
5516,15,Jits_Phase_8,1,5,63,98,1545517420
5516,15,Jits_Phase_8,2,5,56,103,1545547244
5516,15,Jits_Phase_8,3,1,48,56,1545760412
5516,15,Jits_Phase_8,0,5,80,127,1546286392
5516,15,Jits_Phase_8,1,5,63,98,1546306928
5516,15,Jits_Phase_8,2,5,56,103,1546367392
5516,15,Jits_Phase_8,3,1,48,53,1546586660
5516,15,Jits_Phase_8,0,5,80,127,1547087288
5516,15,Jits_Phase_8,1,5,56,103,1547186488
5516,15,Jits_Phase_8,2,5,63,98,1547217288
5516,15,Jits_Phase_8,3,1,48,50,1547365468
5516,15,Jits_Phase_8,0,5,63,98,1547876580
5516,15,Jits_Phase_8,1,5,80,127,1547926856
5516,15,Jits_Phase_8,2,5,56,103,1547947240
5516,15,Jits_Phase_8,3,1,48,52,1548195128
5516,15,Jits_Phase_8,0,5,80,127,1548717316
5516,15,Jits_Phase_8,1,5,56,103,1548747288
5516,15,Jits_Phase_8,2,5,63,98,1548750276
5516,15,Jits_Phase_8,3,1,48,51,1548993288
5516,15,Jits_Phase_8,4,1,48,37,1549026840
5516,15,Jits_Phase_8,0,5,63,98,1549567460
5516,15,Jits_Phase_8,1,5,56,103,1549607424
5516,15,Jits_Phase_8,2,5,80,127,1549626688
5516,15,Jits_Phase_8,3,1,48,53,1549899064
5516,15,Jits_Phase_8,4,1,48,36,1549946916
5516,15,Jits_Phase_8,0,5,80,127,1550327396
5516,15,Jits_Phase_8,1,5,63,98,1550407068
5516,15,Jits_Phase_8,2,5,56,103,1550447156
5516,15,Jits_Phase_8,3,1,48,49,1550668444
5516,15,Jits_Phase_8,4,1,48,38,1550719808
5516,15,Jits_Phase_8,0,5,63,98,1551147312
5516,15,Jits_Phase_8,1,5,80,127,1551227108
5516,15,Jits_Phase_8,2,5,56,103,1551246668
5516,15,Jits_Phase_8,3,1,48,56,1551547812
5516,15,Jits_Phase_8,0,1,48,38,1551621820
5516,15,Jits_Phase_8,1,5,56,103,1551987136
5516,15,Jits_Phase_8,2,5,63,98,1551997260
5516,15,Jits_Phase_8,3,5,80,127,1552037196
5516,15,Jits_Phase_8,4,1,48,51,1552365016
5516,15,Jits_Phase_8,0,1,48,37,1552425844
5516,15,Jits_Phase_8,1,5,56,103,1552707136
5516,15,Jits_Phase_8,2,5,80,127,1552710200
5516,15,Jits_Phase_8,3,5,63,98,1552847088
5516,15,Jits_Phase_8,4,1,48,56,1553147112
5516,15,Jits_Phase_8,0,1,48,43,1553202456
5516,15,Jits_Phase_8,1,5,56,103,1553496568
5516,15,Jits_Phase_8,2,5,63,98,1553586480
5516,15,Jits_Phase_8,3,5,80,127,1553657056
5516,15,Jits_Phase_8,0,1,48,47,1554002660
5516,15,Jits_Phase_8,1,1,48,35,1554045732
5516,15,Jits_Phase_8,2,5,63,98,1554377000
5516,15,Jits_Phase_8,3,5,80,127,1554380288
5516,15,Jits_Phase_8,4,5,56,103,1554436564
5516,15,Jits_Phase_8,5,1,48,57,1554767924
5516,15,Jits_Phase_8,0,1,48,49,1554811548
5516,15,Jits_Phase_8,1,5,80,127,1555216996
5516,15,Jits_Phase_8,2,5,56,103,1555237108
5516,15,Jits_Phase_8,3,5,63,98,1555246408
5516,15,Jits_Phase_8,0,1,48,53,1555591160
5516,15,Jits_Phase_8,1,1,48,42,1555627040
5516,15,Jits_Phase_8,2,5,56,103,1555927436
5516,15,Jits_Phase_8,3,5,63,98,1555936584
5516,15,Jits_Phase_8,4,5,80,127,1556007336
5516,15,Jits_Phase_8,5,1,48,46,1556349532
5516,15,Jits_Phase_8,0,5,80,127,1556727080
5516,15,Jits_Phase_8,1,5,56,103,1556777236
5516,15,Jits_Phase_8,2,5,63,98,1556826388
5516,15,Jits_Phase_8,3,1,48,67,1557105584
5516,15,Jits_Phase_8,4,1,48,53,1557138896
5516,15,Jits_Phase_8,0,5,56,103,1557606928
5516,15,Jits_Phase_8,1,5,63,98,1557617048
5516,15,Jits_Phase_8,2,5,80,127,1557657060
5516,15,Jits_Phase_8,3,1,48,57,1557941792
5516,15,Jits_Phase_8,4,1,48,46,1557967248
5516,15,Jits_Phase_8,0,5,56,103,1558347172
5516,15,Jits_Phase_8,1,5,63,98,1558387112
5516,15,Jits_Phase_8,2,5,80,127,1558437236
5516,15,Jits_Phase_8,3,1,48,48,1558735612
5516,15,Jits_Phase_8,4,1,48,40,1558763148
5516,15,Jits_Phase_8,0,5,80,127,1559107044
5516,15,Jits_Phase_8,1,5,56,103,1559157172
5516,15,Jits_Phase_8,2,5,63,98,1559176512
5516,15,Jits_Phase_8,3,1,48,51,1559561256
5516,15,Jits_Phase_8,0,5,80,127,1559916932
5516,15,Jits_Phase_8,1,5,63,98,1559977248
5516,15,Jits_Phase_8,2,5,56,103,1560057412
5516,15,Jits_Phase_8,3,1,48,59,1560292928
5516,15,Jits_Phase_8,4,1,48,48,1560319656
5516,15,Jits_Phase_8,0,5,80,127,1560697256
5516,15,Jits_Phase_8,1,5,56,103,1560737196
5516,15,Jits_Phase_8,2,5,63,98,1560756536
5516,15,Jits_Phase_8,3,1,48,59,1561079472
5516,15,Jits_Phase_8,4,1,48,47,1561112712
5516,15,Jits_Phase_8,0,5,56,103,1561547104
5516,15,Jits_Phase_8,1,5,80,127,1561557300
5516,15,Jits_Phase_8,2,5,63,98,1561597236
5516,15,Jits_Phase_8,3,1,48,53,1561939084
5516,15,Jits_Phase_8,4,1,48,41,1561972536
5516,15,Jits_Phase_8,0,5,56,103,1562416388
5516,15,Jits_Phase_8,1,5,63,98,1562456320
5516,15,Jits_Phase_8,2,5,80,127,1562459692
5516,15,Jits_Phase_8,0,1,48,49,1562810704
5516,15,Jits_Phase_8,1,1,48,38,1562844088
5516,15,Jits_Phase_8,2,5,63,98,1563087188
5516,15,Jits_Phase_8,3,5,80,127,1563127128
5516,15,Jits_Phase_8,4,5,56,103,1563196908
5516,15,Jits_Phase_8,0,1,48,49,1563584960
5516,15,Jits_Phase_8,1,1,48,38,1563622612
5516,15,Jits_Phase_8,2,5,63,98,1563857384
5516,15,Jits_Phase_8,3,5,56,103,1563937184
5516,15,Jits_Phase_8,4,5,80,127,1563996624
5516,15,Jits_Phase_8,0,1,48,40,1564377700
5516,15,Jits_Phase_8,1,5,80,127,1564667384
5516,15,Jits_Phase_8,2,5,63,98,1564717464
5516,15,Jits_Phase_8,3,5,56,103,1564747140
5516,15,Jits_Phase_8,4,1,48,62,1565134196
5516,15,Jits_Phase_8,0,1,48,51,1565169768
5516,15,Jits_Phase_8,1,5,56,103,1565456904
5516,15,Jits_Phase_8,2,5,63,98,1565507060
5516,15,Jits_Phase_8,3,5,80,127,1565517180
5516,15,Jits_Phase_8,4,1,48,54,1565882520
5516,15,Jits_Phase_8,5,1,48,45,1565918460
5516,15,Jits_Phase_8,0,5,56,103,1566266812
5516,15,Jits_Phase_8,1,5,63,98,1566377252
5516,15,Jits_Phase_8,2,5,80,127,1566396812
5516,15,Jits_Phase_8,3,1,48,47,1566703560
5516,15,Jits_Phase_8,0,1,48,38,1566745032
5516,15,Jits_Phase_8,1,5,63,98,1567066464
5516,15,Jits_Phase_8,2,5,80,127,1567116740
5516,15,Jits_Phase_8,3,5,56,103,1567206648
5516,15,Jits_Phase_8,4,1,48,47,1567476032
5516,15,Jits_Phase_8,0,5,63,98,1567856984
5516,15,Jits_Phase_8,1,5,80,127,1567886660
5516,15,Jits_Phase_8,2,5,56,103,1567976792
5516,15,Jits_Phase_8,3,1,48,54,1568254772
5516,15,Jits_Phase_8,4,1,48,44,1568283144
5516,15,Jits_Phase_8,0,5,63,98,1568656840
5516,15,Jits_Phase_8,1,5,56,103,1568666964
5516,15,Jits_Phase_8,2,5,80,127,1568767208
5516,15,Jits_Phase_8,3,1,48,60,1569023024
5516,15,Jits_Phase_8,4,1,48,49,1569054680
5516,15,Jits_Phase_8,0,5,63,98,1569556796
5516,15,Jits_Phase_8,1,5,80,127,1569586648
5516,15,Jits_Phase_8,2,5,56,103,1569617292
5516,15,Jits_Phase_8,0,1,48,60,1569968964
5516,15,Jits_Phase_8,1,1,48,50,1569996372
5516,15,Jits_Phase_8,2,5,80,127,1570377184
5516,15,Jits_Phase_8,3,5,63,98,1570387380
5516,15,Jits_Phase_8,4,5,56,103,1570417132
5516,15,Jits_Phase_8,0,1,48,54,1570758728
5516,15,Jits_Phase_8,1,5,80,127,1571076584
5516,15,Jits_Phase_8,2,5,63,98,1571096820
5516,15,Jits_Phase_8,3,5,56,103,1571147120
5516,15,Jits_Phase_8,0,1,48,53,1571546532
5516,15,Jits_Phase_8,1,1,48,44,1571581600
5516,15,Jits_Phase_8,2,5,63,98,1571906908
5516,15,Jits_Phase_8,3,5,80,127,1571967376
5516,15,Jits_Phase_8,4,5,56,103,1571986936
5516,15,Jits_Phase_8,0,1,48,31,1572348540
5516,15,Jits_Phase_8,1,5,63,98,1572666772
5516,15,Jits_Phase_8,2,5,56,103,1572716900
5516,15,Jits_Phase_8,3,5,80,127,1572727020
5516,15,Jits_Phase_8,4,1,48,47,1573074448
5516,15,Jits_Phase_8,0,5,56,103,1573497148
5516,15,Jits_Phase_8,1,5,80,127,1573506520
5516,15,Jits_Phase_8,2,5,63,98,1573606916
5516,15,Jits_Phase_8,3,1,48,57,1573855328
5516,15,Jits_Phase_8,0,5,80,127,1574257060
5516,15,Jits_Phase_8,1,5,63,98,1574267256
5516,15,Jits_Phase_8,2,5,56,103,1574416724
5516,15,Jits_Phase_8,3,1,48,53,1574671716
5516,15,Jits_Phase_8,0,5,63,98,1575067020
5516,15,Jits_Phase_8,1,5,80,127,1575106960
5516,15,Jits_Phase_8,2,5,56,103,1575186752
5516,15,Jits_Phase_8,3,1,48,56,1575468964
5516,15,Jits_Phase_8,4,1,48,44,1575496292
5516,15,Jits_Phase_8,0,5,56,103,1575816612
5516,15,Jits_Phase_8,1,5,80,127,1575916860
5516,15,Jits_Phase_8,2,5,63,98,1575937616
5516,15,Jits_Phase_8,0,1,48,51,1576305968
5516,15,Jits_Phase_8,1,1,48,41,1576333052
5516,15,Jits_Phase_8,2,5,80,127,1576636908
5516,15,Jits_Phase_8,3,5,56,103,1576647032
5516,15,Jits_Phase_8,4,5,63,98,1576737084
5516,15,Jits_Phase_8,0,1,48,62,1577092312
5516,15,Jits_Phase_8,1,1,48,49,1577117540
5516,15,Jits_Phase_8,2,5,56,103,1577436676
5516,15,Jits_Phase_8,3,5,63,98,1577457060
5516,15,Jits_Phase_8,4,5,80,127,1577536804
5516,15,Jits_Phase_8,0,1,48,40,1577907988
5516,15,Jits_Phase_8,1,5,63,98,1578187260
5516,15,Jits_Phase_8,2,5,56,103,1578277344
5516,15,Jits_Phase_8,3,5,80,127,1578280632
5516,15,Jits_Phase_8,0,1,48,73,1578909300
5516,15,Jits_Phase_8,1,1,48,58,1578931604
5516,15,Jits_Phase_8,2,5,56,103,1579016676
5516,15,Jits_Phase_8,3,5,80,127,1579076852
5516,15,Jits_Phase_8,4,5,63,98,1579087196
5516,15,Jits_Phase_8,0,1,48,70,1579681968
5516,15,Jits_Phase_8,1,1,48,56,1579706152
5516,15,Jits_Phase_8,2,5,80,127,1579866672
5516,15,Jits_Phase_8,3,5,56,103,1579876792
5516,15,Jits_Phase_8,4,5,63,98,1579879784
5516,15,Jits_Phase_8,0,1,48,70,1580537424
5516,15,Jits_Phase_8,1,1,48,56,1580564680
5516,15,Jits_Phase_8,2,5,56,103,1580627280
5516,15,Jits_Phase_8,3,5,80,127,1580636508
5516,15,Jits_Phase_8,4,5,63,98,1580656948
5516,15,Jits_Phase_8,0,1,48,72,1581302364
5516,15,Jits_Phase_8,1,1,48,61,1581326928
5516,15,Jits_Phase_8,2,5,63,98,1581397548
5516,15,Jits_Phase_8,3,5,80,127,1581456732
5516,15,Jits_Phase_8,4,5,56,103,1581506784
5516,15,Jits_Phase_8,0,1,48,67,1582082144
5516,15,Jits_Phase_8,1,1,48,56,1582105736
5516,15,Jits_Phase_8,2,5,63,98,1582276964
5516,15,Jits_Phase_8,3,5,56,103,1582287308
5516,15,Jits_Phase_8,4,5,80,127,1582337512
5516,15,Jits_Phase_8,0,1,48,64,1582868908
5516,15,Jits_Phase_8,1,1,48,49,1582895216
5516,15,Jits_Phase_8,2,5,63,98,1582977352
5516,15,Jits_Phase_8,3,5,80,127,1582996748
5516,15,Jits_Phase_8,4,5,56,103,1583007020
5516,15,Jits_Phase_8,0,1,48,64,1583633236
5516,15,Jits_Phase_8,1,1,48,48,1583659396
5516,15,Jits_Phase_8,2,5,63,98,1583777332
5516,15,Jits_Phase_8,3,5,80,127,1583780548
5516,15,Jits_Phase_8,4,5,56,103,1583817048
5516,15,Jits_Phase_8,0,1,48,51,1584412480
5516,15,Jits_Phase_8,1,1,48,37,1584446208
5516,15,Jits_Phase_8,2,5,63,98,1584646412
5516,15,Jits_Phase_8,3,5,80,127,1584677308
5516,15,Jits_Phase_8,4,5,56,103,1584686532
5516,15,Jits_Phase_8,0,1,48,59,1585226244
5516,15,Jits_Phase_8,1,1,48,45,1585254004
5516,15,Jits_Phase_8,2,5,56,103,1585397276
5516,15,Jits_Phase_8,3,5,80,127,1585426656
5516,15,Jits_Phase_8,4,5,63,98,1585456504
5516,15,Jits_Phase_8,0,1,48,60,1586032308
5516,15,Jits_Phase_8,1,1,48,48,1586056428
5516,15,Jits_Phase_8,2,5,63,98,1586297332
5516,15,Jits_Phase_8,3,5,56,103,1586337344
5516,15,Jits_Phase_8,4,5,80,127,1586340484
5516,15,Jits_Phase_8,0,1,48,47,1586921636
5516,15,Jits_Phase_8,1,5,80,127,1586996540
5516,15,Jits_Phase_8,2,5,56,103,1587076472
5516,15,Jits_Phase_8,3,5,63,98,1587126596
5516,15,Jits_Phase_8,0,1,48,46,1587679816
5516,15,Jits_Phase_8,1,5,80,127,1587777028
5516,15,Jits_Phase_8,2,5,56,103,1587797340
5516,15,Jits_Phase_8,3,5,63,98,1587886572
5516,15,Jits_Phase_8,0,1,48,53,1588521996
5516,15,Jits_Phase_8,1,1,48,41,1588557196
5516,15,Jits_Phase_8,2,5,80,127,1588616632
5516,15,Jits_Phase_8,3,5,63,98,1588656480
5516,15,Jits_Phase_8,4,5,56,103,1588696496
5516,15,Jits_Phase_8,0,1,48,65,1589332276
5516,15,Jits_Phase_8,1,1,48,54,1589356988
5516,15,Jits_Phase_8,2,5,63,98,1589426616
5516,15,Jits_Phase_8,3,5,80,127,1589486916
5516,15,Jits_Phase_8,4,5,56,103,1589516664
5516,15,Jits_Phase_8,0,1,48,73,1590184572
5516,15,Jits_Phase_8,1,1,48,55,1590217452
5516,15,Jits_Phase_8,2,5,56,103,1590267228
5516,15,Jits_Phase_8,3,5,80,127,1590297052
5516,15,Jits_Phase_8,4,5,63,98,1590387120
5516,15,Jits_Phase_8,0,1,48,72,1590982636
5516,15,Jits_Phase_8,1,1,48,55,1591014700
5516,15,Jits_Phase_8,2,5,56,103,1591077376
5516,15,Jits_Phase_8,3,5,80,127,1591186752
5516,15,Jits_Phase_8,4,5,63,98,1591216576
5516,15,Jits_Phase_8,0,1,48,69,1591816760
5516,15,Jits_Phase_8,1,1,48,51,1591843420
5516,15,Jits_Phase_8,2,5,56,103,1591927072
5516,15,Jits_Phase_8,3,5,63,98,1591986548
5516,15,Jits_Phase_8,4,5,80,127,1592017124
5516,15,Jits_Phase_8,0,1,48,71,1592629980
5516,15,Jits_Phase_8,1,1,48,54,1592657536
5516,15,Jits_Phase_8,2,5,56,103,1592697120
5516,15,Jits_Phase_8,3,5,63,98,1592766716
5516,15,Jits_Phase_8,4,5,80,127,1592787396
5516,15,Jits_Phase_8,0,5,80,127,1593467348
5516,15,Jits_Phase_8,1,5,63,98,1593486688
5516,15,Jits_Phase_8,2,1,48,50,1593489728
5516,15,Jits_Phase_8,3,5,56,103,1593537100
5516,15,Jits_Phase_8,0,1,48,47,1594250448
5516,15,Jits_Phase_8,1,5,63,98,1594286516
5516,15,Jits_Phase_8,2,5,80,127,1594296784
5516,15,Jits_Phase_8,3,5,56,103,1594346820
5516,15,Jits_Phase_8,0,1,48,58,1594974912
5516,15,Jits_Phase_8,1,1,48,44,1595002596
5516,15,Jits_Phase_8,2,5,63,98,1595087144
5516,15,Jits_Phase_8,3,5,80,127,1595157036
5516,15,Jits_Phase_8,4,5,56,103,1595177296
5516,15,Jits_Phase_8,0,1,48,41,1595788784
5516,15,Jits_Phase_8,1,5,63,98,1595916612
5516,15,Jits_Phase_8,2,5,80,127,1595920200
5516,15,Jits_Phase_8,3,5,56,103,1595987292
5516,15,Jits_Phase_8,0,1,48,32,1596571972
5516,15,Jits_Phase_8,1,5,80,127,1596667380
5516,15,Jits_Phase_8,2,5,56,103,1596686628
5516,15,Jits_Phase_8,3,5,63,98,1596697048
5516,15,Jits_Phase_8,0,1,48,54,1597307448
5516,15,Jits_Phase_8,1,5,56,103,1597486548
5516,15,Jits_Phase_8,2,5,63,98,1597576608
5516,15,Jits_Phase_8,3,5,80,127,1597579972
5516,15,Jits_Phase_8,0,1,48,59,1598156576
5516,15,Jits_Phase_8,1,1,48,44,1598186604
5516,15,Jits_Phase_8,2,5,80,127,1598256404
5516,15,Jits_Phase_8,3,5,56,103,1598266600
5516,15,Jits_Phase_8,4,5,63,98,1598287192
5516,15,Jits_Phase_8,0,1,48,46,1598980332
5516,15,Jits_Phase_8,1,5,63,98,1599057328
5516,15,Jits_Phase_8,2,5,80,127,1599116508
5516,15,Jits_Phase_8,3,5,56,103,1599126928
5516,15,Jits_Phase_8,0,1,48,59,1599774156
5516,15,Jits_Phase_8,1,1,48,45,1599800312
5516,15,Jits_Phase_8,2,5,63,98,1599926724
5516,15,Jits_Phase_8,3,5,80,127,1599957296
5516,15,Jits_Phase_8,4,5,56,103,1599997236
5516,15,Jits_Phase_8,0,1,48,65,1600597960
5516,15,Jits_Phase_8,1,1,48,53,1600624680
5516,15,Jits_Phase_8,2,5,56,103,1600717316
5516,15,Jits_Phase_8,3,5,80,127,1600727496
5516,15,Jits_Phase_8,4,5,63,98,1600767212
5516,15,Jits_Phase_8,0,1,48,66,1601395808
5516,15,Jits_Phase_8,1,1,48,50,1601422144
5516,15,Jits_Phase_8,2,5,80,127,1601477172
5516,15,Jits_Phase_8,3,5,56,103,1601557104
5516,15,Jits_Phase_8,4,5,63,98,1601567004
5516,15,Jits_Phase_8,0,1,48,59,1602229128
5516,15,Jits_Phase_8,1,1,48,49,1602256384
5516,15,Jits_Phase_8,2,5,80,127,1602326988
5516,15,Jits_Phase_8,3,5,56,103,1602406868
5516,15,Jits_Phase_8,4,5,63,98,1602416992
5516,15,Jits_Phase_8,0,1,48,62,1603065420
5516,15,Jits_Phase_8,1,1,48,48,1603095892
5516,15,Jits_Phase_8,2,5,80,127,1603166444
5516,15,Jits_Phase_8,3,5,56,103,1603216856
5516,15,Jits_Phase_8,4,5,63,98,1603266980
5516,15,Jits_Phase_8,0,1,48,49,1603909872
5516,15,Jits_Phase_8,1,1,48,37,1603947164
5516,15,Jits_Phase_8,2,5,56,103,1604106612
5516,15,Jits_Phase_8,3,5,63,98,1604109824
5516,15,Jits_Phase_8,4,5,80,127,1604156912
5516,15,Jits_Phase_8,0,1,48,56,1604744432
5516,15,Jits_Phase_8,1,1,48,43,1604776100
5516,15,Jits_Phase_8,2,5,56,103,1604927100
5516,15,Jits_Phase_8,3,5,63,98,1604956628
5516,15,Jits_Phase_8,4,5,80,127,1604966972
5516,15,Jits_Phase_8,0,1,48,49,1605555540
5516,15,Jits_Phase_8,1,1,48,38,1605586608
5516,15,Jits_Phase_8,2,5,63,98,1605636608
5516,15,Jits_Phase_8,3,5,56,103,1605707048
5516,15,Jits_Phase_8,4,5,80,127,1605757248
5516,15,Jits_Phase_8,0,1,48,38,1606390984
5516,15,Jits_Phase_8,1,1,48,29,1606431120
5516,15,Jits_Phase_8,2,5,63,98,1606466916
5516,15,Jits_Phase_8,3,5,56,103,1606477108
5516,15,Jits_Phase_8,4,5,80,127,1606480176
5516,15,Jits_Phase_8,0,1,48,39,1607137348
5516,15,Jits_Phase_8,1,5,80,127,1607216588
5516,15,Jits_Phase_8,2,5,56,103,1607276964
5516,15,Jits_Phase_8,3,5,63,98,1607367024
5516,15,Jits_Phase_8,0,1,48,41,1607859628
5516,15,Jits_Phase_8,1,5,80,127,1608017156
5516,15,Jits_Phase_8,2,5,56,103,1608116880
5516,15,Jits_Phase_8,3,5,63,98,1608156740
5516,15,Jits_Phase_8,0,1,48,60,1608723736
5516,15,Jits_Phase_8,1,1,48,46,1608750716
5516,15,Jits_Phase_8,2,5,56,103,1608867164
5516,15,Jits_Phase_8,3,5,63,98,1608886800
5516,15,Jits_Phase_8,4,5,80,127,1608926812
5516,15,Jits_Phase_8,0,1,48,72,1609478432
5516,15,Jits_Phase_8,1,1,48,54,1609503800
5516,15,Jits_Phase_8,2,5,63,98,1609637208
5516,15,Jits_Phase_8,3,5,56,103,1609656620
5516,15,Jits_Phase_8,4,5,80,127,1609756940
5516,15,Jits_Phase_8,0,1,48,71,1610316160
5516,15,Jits_Phase_8,1,1,48,55,1610340780
5516,15,Jits_Phase_8,2,5,63,98,1610426896
5516,15,Jits_Phase_8,3,5,80,127,1610537196
5516,15,Jits_Phase_8,4,5,56,103,1610567092
5516,15,Jits_Phase_8,0,1,48,74,1611127336
5516,15,Jits_Phase_8,1,1,48,54,1611160948
5516,15,Jits_Phase_8,2,5,56,103,1611246920
5516,15,Jits_Phase_8,3,5,63,98,1611276732
5516,15,Jits_Phase_8,4,5,80,127,1611326808
5516,15,Jits_Phase_8,0,1,48,64,1611984656
5516,15,Jits_Phase_8,1,5,63,98,1612017136
5516,15,Jits_Phase_8,2,1,48,43,1612019060
5516,15,Jits_Phase_8,3,5,56,103,1612046644
5516,15,Jits_Phase_8,4,5,80,127,1612096868
5516,15,Jits_Phase_8,0,1,48,69,1612698892
5516,15,Jits_Phase_8,1,1,48,48,1612735812
5516,15,Jits_Phase_8,2,5,56,103,1612846504
5516,15,Jits_Phase_8,3,5,63,98,1612866964
5516,15,Jits_Phase_8,4,5,80,127,1612946756
5516,15,Jits_Phase_8,0,1,48,55,1613465116
5516,15,Jits_Phase_8,1,1,48,41,1613498352
5516,15,Jits_Phase_8,2,5,63,98,1613616472
5516,15,Jits_Phase_8,3,5,56,103,1613677012
5516,15,Jits_Phase_8,4,5,80,127,1613706612
5516,15,Jits_Phase_8,0,1,48,63,1614248784
5516,15,Jits_Phase_8,1,1,48,46,1614300832
5516,15,Jits_Phase_8,2,5,56,103,1614457312
5516,15,Jits_Phase_8,3,5,80,127,1614516732
5516,15,Jits_Phase_8,4,5,63,98,1614556596
5516,15,Jits_Phase_8,0,1,48,64,1615050152
5516,15,Jits_Phase_8,1,1,48,50,1615085424
5516,15,Jits_Phase_8,2,5,63,98,1615236576
5516,15,Jits_Phase_8,3,5,56,103,1615296972
5516,15,Jits_Phase_8,4,5,80,127,1615366576
5516,15,Jits_Phase_8,0,1,48,55,1615863792
5516,15,Jits_Phase_8,1,1,48,41,1615896452
5516,15,Jits_Phase_8,2,5,56,103,1616116984
5516,15,Jits_Phase_8,3,5,63,98,1616127328
5516,15,Jits_Phase_8,4,5,80,127,1616130692
5516,15,Jits_Phase_8,0,1,48,65,1616678152
5516,15,Jits_Phase_8,1,1,48,49,1616707728
5516,15,Jits_Phase_8,2,5,63,98,1616856532
5516,15,Jits_Phase_8,3,5,56,103,1616916772
5516,15,Jits_Phase_8,4,5,80,127,1616919840
5516,15,Jits_Phase_8,0,1,48,57,1617619012
5516,15,Jits_Phase_8,1,5,63,98,1617636868
5516,15,Jits_Phase_8,2,1,48,43,1617649412
5516,15,Jits_Phase_8,3,5,80,127,1617666596
5516,15,Jits_Phase_8,4,5,56,103,1617686832
5516,15,Jits_Phase_8,0,1,48,62,1618339672
5516,15,Jits_Phase_8,1,1,48,48,1618365068
5516,15,Jits_Phase_8,2,5,56,103,1618366808
5516,15,Jits_Phase_8,3,5,63,98,1618416936
5516,15,Jits_Phase_8,4,5,80,127,1618496812
5516,15,Jits_Phase_8,0,5,80,127,1619067216
5516,15,Jits_Phase_8,1,5,63,98,1619107452
5516,15,Jits_Phase_8,2,1,48,60,1619122184
5516,15,Jits_Phase_8,3,5,56,103,1619126708
5516,15,Jits_Phase_8,4,1,48,43,1619150936
5516,15,Jits_Phase_8,0,1,48,52,1619877996
5516,15,Jits_Phase_8,1,5,56,103,1619936536
5516,15,Jits_Phase_8,2,5,80,127,1619946804
5516,15,Jits_Phase_8,3,5,63,98,1619967636
5516,15,Jits_Phase_8,0,1,48,62,1620674912
5516,15,Jits_Phase_8,1,5,56,103,1620716888
5516,15,Jits_Phase_8,2,5,63,98,1620766944
5516,15,Jits_Phase_8,3,5,80,127,1620796704
5516,15,Jits_Phase_8,0,1,48,71,1621429416
5516,15,Jits_Phase_8,1,1,48,55,1621454556
5516,15,Jits_Phase_8,2,5,56,103,1621466656
5516,15,Jits_Phase_8,3,5,63,98,1621476704
5516,15,Jits_Phase_8,4,5,80,127,1621526904
5516,15,Jits_Phase_8,0,1,48,68,1622193600
5516,15,Jits_Phase_8,1,5,56,103,1622256944
5516,15,Jits_Phase_8,2,5,80,127,1622260008
5516,15,Jits_Phase_8,3,5,63,98,1622416608
5516,15,Jits_Phase_8,0,1,48,64,1622985488
5516,15,Jits_Phase_8,1,1,48,52,1623009884
5516,15,Jits_Phase_8,2,5,63,98,1623077292
5516,15,Jits_Phase_8,3,5,56,103,1623146812
5516,15,Jits_Phase_8,4,5,80,127,1623186752
5516,15,Jits_Phase_8,0,1,48,57,1623775764
5516,15,Jits_Phase_8,1,5,63,98,1623916952
5516,15,Jits_Phase_8,2,5,56,103,1624007084
5516,15,Jits_Phase_8,3,5,80,127,1624010300
5516,15,Jits_Phase_8,0,1,48,48,1624645520
5516,15,Jits_Phase_8,1,5,56,103,1624697240
5516,15,Jits_Phase_8,2,5,63,98,1624787584
5516,15,Jits_Phase_8,3,5,80,127,1624796664
5516,15,Jits_Phase_8,0,1,48,46,1625413356
5516,15,Jits_Phase_8,1,5,56,103,1625467260
5516,15,Jits_Phase_8,2,5,63,98,1625517300
5516,15,Jits_Phase_8,3,5,80,127,1625547348
5516,15,Jits_Phase_8,0,1,48,15,1626191684
5516,15,Jits_Phase_8,1,5,63,98,1626346724
5516,15,Jits_Phase_8,2,5,80,127,1626357068
5516,15,Jits_Phase_8,3,5,56,103,1626416436
5516,15,Jits_Phase_8,0,5,63,98,1627066860
5516,15,Jits_Phase_8,1,5,80,127,1627127252
5516,15,Jits_Phase_8,2,5,56,103,1627167044
5516,15,Jits_Phase_8,0,1,48,89,1627593344
5516,15,Jits_Phase_8,1,1,48,64,1627617760
5516,15,Jits_Phase_8,2,5,56,103,1627966960
5516,15,Jits_Phase_8,3,5,80,127,1627987568
5516,15,Jits_Phase_8,4,5,63,98,1628006908
5516,15,Jits_Phase_8,0,1,48,88,1628366784
5516,15,Jits_Phase_8,1,1,48,67,1628386620
5516,15,Jits_Phase_8,2,5,63,98,1628686644
5516,15,Jits_Phase_8,3,5,56,103,1628707276
5516,15,Jits_Phase_8,4,5,80,127,1628747364
5516,15,Jits_Phase_8,5,1,48,84,1629087612
5516,15,Jits_Phase_8,6,1,48,64,1629106696
5516,15,Jits_Phase_8,0,5,63,98,1629496756
5516,15,Jits_Phase_8,1,5,80,127,1629527476
5516,15,Jits_Phase_8,2,5,56,103,1629546964
5516,15,Jits_Phase_8,3,1,48,67,1629832668
5516,15,Jits_Phase_8,4,1,48,48,1629862088
5516,15,Jits_Phase_8,0,5,80,127,1630266868
5516,15,Jits_Phase_8,1,5,56,103,1630316852
5516,15,Jits_Phase_8,2,5,63,98,1630377312
5516,15,Jits_Phase_8,0,1,48,70,1630742432
5516,15,Jits_Phase_8,1,1,48,51,1630768632
5516,15,Jits_Phase_8,2,5,63,98,1631057492
5516,15,Jits_Phase_8,3,5,56,103,1631177296
5516,15,Jits_Phase_8,4,5,80,127,1631206896
5516,15,Jits_Phase_8,0,1,48,67,1631649580
5516,15,Jits_Phase_8,1,1,48,49,1631693680
5516,15,Jits_Phase_8,2,5,80,127,1631896920
5516,15,Jits_Phase_8,3,5,63,98,1631917380
5516,15,Jits_Phase_8,4,5,56,103,1631987280
5516,15,Jits_Phase_8,0,1,48,82,1632444340
5516,15,Jits_Phase_8,1,1,48,59,1632473396
5516,15,Jits_Phase_8,2,5,63,98,1632717088
5516,15,Jits_Phase_8,3,5,56,103,1632727356
5516,15,Jits_Phase_8,4,5,80,127,1632807400
5516,15,Jits_Phase_8,0,1,48,81,1633181352
5516,15,Jits_Phase_8,1,1,48,57,1633210704
5516,15,Jits_Phase_8,2,5,56,103,1633577440
5516,15,Jits_Phase_8,3,5,80,127,1633607116
5516,15,Jits_Phase_8,4,5,63,98,1633617460
5516,15,Jits_Phase_8,0,9999,9999,9999,1498734684
5516,15,Jits_Phase_8,1,9999,9999,9999,1499534456
5516,15,Jits_Phase_8,2,9999,9999,9999,1500334188
5516,15,Jits_Phase_8,3,9999,9999,9999,1501134952
5516,15,Jits_Phase_8,4,9999,9999,9999,1501934700
5516,15,Jits_Phase_8,5,9999,9999,9999,1502734416
5516,15,Jits_Phase_8,6,9999,9999,9999,1503534196
5516,15,Jits_Phase_8,7,9999,9999,9999,1504334944
5516,15,Jits_Phase_8,8,9999,9999,9999,1505134684
5516,15,Jits_Phase_8,9,9999,9999,9999,1505934428
5516,15,Jits_Phase_8,10,9999,9999,9999,1506734148
5516,15,Jits_Phase_8,11,9999,9999,9999,1507534968
5516,15,Jits_Phase_8,12,9999,9999,9999,1508334676
5516,15,Jits_Phase_8,13,9999,9999,9999,1509134440
5516,15,Jits_Phase_8,14,9999,9999,9999,1509934168
5516,15,Jits_Phase_8,15,9999,9999,9999,1510734948
5516,15,Jits_Phase_8,16,9999,9999,9999,1511534708
5516,15,Jits_Phase_8,17,9999,9999,9999,1512334460
5516,15,Jits_Phase_8,18,9999,9999,9999,1513134180
5516,15,Jits_Phase_8,19,9999,9999,9999,1513934940
5516,15,Jits_Phase_8,20,9999,9999,9999,1514734664
5516,15,Jits_Phase_8,21,9999,9999,9999,1515534460
5516,15,Jits_Phase_8,22,9999,9999,9999,1516334172
5516,15,Jits_Phase_8,23,9999,9999,9999,1517134968
5516,15,Jits_Phase_8,24,9999,9999,9999,1517934648
5516,15,Jits_Phase_8,25,9999,9999,9999,1518734420
5516,15,Jits_Phase_8,26,9999,9999,9999,1519534172
5516,15,Jits_Phase_8,27,9999,9999,9999,1520334920
5516,15,Jits_Phase_8,28,9999,9999,9999,1521134676
5516,15,Jits_Phase_8,29,9999,9999,9999,1521934392
5516,15,Jits_Phase_8,30,9999,9999,9999,1522714740
5516,15,Jits_Phase_8,31,9999,9999,9999,1523514492
5516,15,Jits_Phase_8,32,9999,9999,9999,1524314188
5516,15,Jits_Phase_8,33,9999,9999,9999,1525115000
5516,15,Jits_Phase_8,34,9999,9999,9999,1525914696
5516,15,Jits_Phase_8,35,9999,9999,9999,1526714476
5516,15,Jits_Phase_8,36,9999,9999,9999,1527514180
5516,15,Jits_Phase_8,37,9999,9999,9999,1528315000
5516,15,Jits_Phase_8,38,9999,9999,9999,1529114708
5516,15,Jits_Phase_8,39,9999,9999,9999,1529914492
5516,15,Jits_Phase_8,40,9999,9999,9999,1530714180
5516,15,Jits_Phase_8,41,9999,9999,9999,1531514992
5516,15,Jits_Phase_8,42,9999,9999,9999,1532314684
5516,15,Jits_Phase_8,43,9999,9999,9999,1533114464
5516,15,Jits_Phase_8,44,9999,9999,9999,1533914224
5516,15,Jits_Phase_8,45,9999,9999,9999,1534714936
5516,15,Jits_Phase_8,46,9999,9999,9999,1535514708
5516,15,Jits_Phase_8,47,9999,9999,9999,1536314480
5516,15,Jits_Phase_8,48,9999,9999,9999,1537134664
5516,15,Jits_Phase_8,49,9999,9999,9999,1537934460
5516,15,Jits_Phase_8,50,9999,9999,9999,1538734196
5516,15,Jits_Phase_8,51,9999,9999,9999,1539534940
5516,15,Jits_Phase_8,52,9999,9999,9999,1540334716
5516,15,Jits_Phase_8,53,9999,9999,9999,1541134436
5516,15,Jits_Phase_8,54,9999,9999,9999,1541934140
5516,15,Jits_Phase_8,55,9999,9999,9999,1542734968
5516,15,Jits_Phase_8,56,9999,9999,9999,1543534688
5516,15,Jits_Phase_8,57,9999,9999,9999,1544334440
5516,15,Jits_Phase_8,58,9999,9999,9999,1545134136
5516,15,Jits_Phase_8,59,9999,9999,9999,1545934956
5516,15,Jits_Phase_8,60,9999,9999,9999,1546734652
5516,15,Jits_Phase_8,61,9999,9999,9999,1547534432
5516,15,Jits_Phase_8,62,9999,9999,9999,1548334152
5516,15,Jits_Phase_8,63,9999,9999,9999,1549134928
5516,15,Jits_Phase_8,64,9999,9999,9999,1549974612
5516,15,Jits_Phase_8,65,9999,9999,9999,1550774336
5516,15,Jits_Phase_8,66,9999,9999,9999,1551574092
5516,15,Jits_Phase_8,67,9999,9999,9999,1552374884
5516,15,Jits_Phase_8,68,9999,9999,9999,1553174584
5516,15,Jits_Phase_8,69,9999,9999,9999,1553974324
5516,15,Jits_Phase_8,70,9999,9999,9999,1554774124
5516,15,Jits_Phase_8,71,9999,9999,9999,1555574884
5516,15,Jits_Phase_8,72,9999,9999,9999,1556374616
5516,15,Jits_Phase_8,73,9999,9999,9999,1557174388
5516,15,Jits_Phase_8,74,9999,9999,9999,1557974124
5516,15,Jits_Phase_8,75,9999,9999,9999,1558774904
5516,15,Jits_Phase_8,76,9999,9999,9999,1559574652
5516,15,Jits_Phase_8,77,9999,9999,9999,1560374356
5516,15,Jits_Phase_8,78,9999,9999,9999,1561174080
5516,15,Jits_Phase_8,79,9999,9999,9999,1561974856
5516,15,Jits_Phase_8,80,9999,9999,9999,1562774616
5516,15,Jits_Phase_8,81,9999,9999,9999,1563534452
5516,15,Jits_Phase_8,82,9999,9999,9999,1564334168
5516,15,Jits_Phase_8,83,9999,9999,9999,1565134940
5516,15,Jits_Phase_8,84,9999,9999,9999,1565934700
5516,15,Jits_Phase_8,85,9999,9999,9999,1566734420
5516,15,Jits_Phase_8,86,9999,9999,9999,1567534172
5516,15,Jits_Phase_8,87,9999,9999,9999,1568334928
5516,15,Jits_Phase_8,88,9999,9999,9999,1569134712
5516,15,Jits_Phase_8,89,9999,9999,9999,1569934460
5516,15,Jits_Phase_8,90,9999,9999,9999,1570734148
5516,15,Jits_Phase_8,91,9999,9999,9999,1571534928
5516,15,Jits_Phase_8,92,9999,9999,9999,1572334668
5516,15,Jits_Phase_8,93,9999,9999,9999,1573134452
5516,15,Jits_Phase_8,94,9999,9999,9999,1573934140
5516,15,Jits_Phase_8,95,9999,9999,9999,1574734956
5516,15,Jits_Phase_8,96,9999,9999,9999,1575534704
5516,15,Jits_Phase_8,97,9999,9999,9999,1576254584
5516,15,Jits_Phase_8,98,9999,9999,9999,1577054328
5516,15,Jits_Phase_8,99,9999,9999,9999,1577855092
5516,15,Jits_Phase_8,100,9999,9999,9999,1578654816
5516,15,Jits_Phase_8,101,9999,9999,9999,1579454556
5516,15,Jits_Phase_8,102,9999,9999,9999,1580254264
5516,15,Jits_Phase_8,103,9999,9999,9999,1581055096
5516,15,Jits_Phase_8,104,9999,9999,9999,1581854812
5516,15,Jits_Phase_8,105,9999,9999,9999,1582654552
5516,15,Jits_Phase_8,106,9999,9999,9999,1583454332
5516,15,Jits_Phase_8,107,9999,9999,9999,1584255072
5516,15,Jits_Phase_8,108,9999,9999,9999,1585054788
5516,15,Jits_Phase_8,109,9999,9999,9999,1585854576
5516,15,Jits_Phase_8,110,9999,9999,9999,1586654292
5516,15,Jits_Phase_8,111,9999,9999,9999,1587455076
5516,15,Jits_Phase_8,112,9999,9999,9999,1588254828
5516,15,Jits_Phase_8,113,9999,9999,9999,1589054588
5516,15,Jits_Phase_8,114,9999,9999,9999,1589934164
5516,15,Jits_Phase_8,115,9999,9999,9999,1590734924
5516,15,Jits_Phase_8,116,9999,9999,9999,1591534716
5516,15,Jits_Phase_8,117,9999,9999,9999,1592334440
5516,15,Jits_Phase_8,118,9999,9999,9999,1593134184
5516,15,Jits_Phase_8,119,9999,9999,9999,1593934960
5516,15,Jits_Phase_8,120,9999,9999,9999,1594734656
5516,15,Jits_Phase_8,121,9999,9999,9999,1595534392
5516,15,Jits_Phase_8,122,9999,9999,9999,1596334200
5516,15,Jits_Phase_8,123,9999,9999,9999,1597134924
5516,15,Jits_Phase_8,124,9999,9999,9999,1597934676
5516,15,Jits_Phase_8,125,9999,9999,9999,1598734408
5516,15,Jits_Phase_8,126,9999,9999,9999,1599534164
5516,15,Jits_Phase_8,127,9999,9999,9999,1600334952
5516,15,Jits_Phase_8,128,9999,9999,9999,1601134672
5516,15,Jits_Phase_8,129,9999,9999,9999,1601934436
5516,15,Jits_Phase_8,130,9999,9999,9999,1602734156
5516,15,Jits_Phase_8,131,9999,9999,9999,1603694668
5516,15,Jits_Phase_8,132,9999,9999,9999,1604494452
5516,15,Jits_Phase_8,133,9999,9999,9999,1605294180
5516,15,Jits_Phase_8,134,9999,9999,9999,1606094940
5516,15,Jits_Phase_8,135,9999,9999,9999,1606894716
5516,15,Jits_Phase_8,136,9999,9999,9999,1607694452
5516,15,Jits_Phase_8,137,9999,9999,9999,1608494160
5516,15,Jits_Phase_8,138,9999,9999,9999,1609294944
5516,15,Jits_Phase_8,139,9999,9999,9999,1610094656
5516,15,Jits_Phase_8,140,9999,9999,9999,1610894452
5516,15,Jits_Phase_8,141,9999,9999,9999,1611694168
5516,15,Jits_Phase_8,142,9999,9999,9999,1612494924
5516,15,Jits_Phase_8,143,9999,9999,9999,1613294712
5516,15,Jits_Phase_8,144,9999,9999,9999,1614094420
5516,15,Jits_Phase_8,145,9999,9999,9999,1614894164
5516,15,Jits_Phase_8,146,9999,9999,9999,1615694928
5516,15,Jits_Phase_8,147,9999,9999,9999,1616494712
5516,15,Jits_Phase_8,148,9999,9999,9999,1617294420
5516,15,Jits_Phase_8,149,9999,9999,9999,1618094204
5516,15,Jits_Phase_8,150,9999,9999,9999,1618734200
5516,15,Jits_Phase_8,151,9999,9999,9999,1619534956
5516,15,Jits_Phase_8,152,9999,9999,9999,1620334708
5516,15,Jits_Phase_8,153,9999,9999,9999,1621134396
5516,15,Jits_Phase_8,154,9999,9999,9999,1621934200
5516,15,Jits_Phase_8,155,9999,9999,9999,1622734968
5516,15,Jits_Phase_8,156,9999,9999,9999,1623534704
5516,15,Jits_Phase_8,157,9999,9999,9999,1624334440
5516,15,Jits_Phase_8,158,9999,9999,9999,1625134156
5516,15,Jits_Phase_8,159,9999,9999,9999,1625934960
5516,15,Jits_Phase_8,160,9999,9999,9999,1626734648
5516,15,Jits_Phase_8,161,9999,9999,9999,1627534424
5516,15,Jits_Phase_8,162,9999,9999,9999,1628334192
5516,15,Jits_Phase_8,163,9999,9999,9999,1629134920
5516,15,Jits_Phase_8,164,9999,9999,9999,1629934668
5516,15,Jits_Phase_8,165,9999,9999,9999,1630734408
5516,15,Jits_Phase_8,166,9999,9999,9999,1631534204
5516,15,Jits_Phase_8,167,9999,9999,9999,1632334964
5516,15,Jits_Phase_8,168,9999,9999,9999,1633134680
5516,15,Jits_Phase_8,169,9999,9999,9999,1633934408
5517,5,ISIP_5,0,5,42,127,1710142812
5517,5,ISIP_5,1,5,42,127,1710642676
5517,5,ISIP_5,2,5,42,127,1711143216
5517,5,ISIP_5,3,1,48,79,1711575252
5517,5,ISIP_5,4,5,42,127,1711643224
5517,5,ISIP_5,5,1,48,82,1712053700
5517,5,ISIP_5,6,1,48,54,1712090556
5517,5,ISIP_5,7,5,42,127,1712142576
5517,5,ISIP_5,8,1,48,76,1712531084
5517,5,ISIP_5,9,1,48,54,1712568308
5517,5,ISIP_5,10,5,42,127,1712642320
5517,5,ISIP_5,11,1,48,64,1712947056
5517,5,ISIP_5,12,1,48,41,1712986532
5517,5,ISIP_5,13,5,42,127,1713143396
5517,5,ISIP_5,14,1,48,69,1713462960
5517,5,ISIP_5,15,1,48,51,1713494208
5517,5,ISIP_5,16,5,42,127,1713643144
5517,5,ISIP_5,17,1,48,73,1713958892
5517,5,ISIP_5,18,1,48,51,1713997020
5517,5,ISIP_5,19,5,42,127,1714142448
5517,5,ISIP_5,20,1,48,75,1714467172
5517,5,ISIP_5,21,1,48,56,1714501180
5517,5,ISIP_5,22,5,42,127,1714643240
5517,5,ISIP_5,23,1,48,76,1714971256
5517,5,ISIP_5,24,1,48,52,1715012896
5517,5,ISIP_5,25,5,42,127,1715143436
5517,5,ISIP_5,26,1,48,79,1715473820
5517,5,ISIP_5,27,1,48,58,1715510172
5517,5,ISIP_5,28,5,42,127,1715642812
5517,5,ISIP_5,29,1,48,72,1715948212
5517,5,ISIP_5,30,1,48,57,1715977812
5517,5,ISIP_5,31,5,42,127,1716142412
5517,5,ISIP_5,32,1,48,74,1716523160
5517,5,ISIP_5,33,1,48,52,1716562848
5517,5,ISIP_5,34,5,42,127,1716643144
5517,5,ISIP_5,35,1,48,69,1717098528
5517,5,ISIP_5,36,1,48,49,1717136124
5517,5,ISIP_5,37,5,42,127,1717143116
5517,5,ISIP_5,38,1,48,64,1717594312
5517,5,ISIP_5,39,1,48,44,1717634900
5517,5,ISIP_5,40,5,42,127,1717642492
5517,5,ISIP_5,41,1,48,79,1718082988
5517,5,ISIP_5,42,1,48,50,1718129940
5517,5,ISIP_5,43,5,42,127,1718143436
5517,5,ISIP_5,44,1,48,81,1718585804
5517,5,ISIP_5,45,1,48,52,1718633276
5517,5,ISIP_5,46,5,42,127,1718643184
5517,5,ISIP_5,47,1,48,65,1719050448
5517,5,ISIP_5,48,1,48,49,1719088448
5517,5,ISIP_5,49,5,42,127,1719142932
5517,5,ISIP_5,50,1,48,68,1719599360
5517,5,ISIP_5,51,5,42,127,1719642476
5517,5,ISIP_5,52,1,48,67,1720088408
5517,5,ISIP_5,53,1,48,51,1720126488
5517,5,ISIP_5,54,5,42,127,1720143200
5517,5,ISIP_5,55,1,48,69,1720567736
5517,5,ISIP_5,56,1,48,50,1720603720
5517,5,ISIP_5,57,5,42,127,1720643092
5517,5,ISIP_5,58,1,48,81,1721071520
5517,5,ISIP_5,59,1,48,48,1721117228
5517,5,ISIP_5,60,5,42,127,1721142544
5517,5,ISIP_5,61,1,48,71,1721605900
5517,5,ISIP_5,62,5,42,127,1721643284
5517,5,ISIP_5,63,1,48,40,1721654764
5517,5,ISIP_5,64,1,48,75,1722141144
5517,5,ISIP_5,65,5,42,127,1722143032
5517,5,ISIP_5,66,1,48,46,1722191832
5517,5,ISIP_5,67,5,42,127,1722642984
5517,5,ISIP_5,68,1,48,65,1722682408
5517,5,ISIP_5,69,1,48,45,1722724648
5517,5,ISIP_5,70,5,42,127,1723142436
5517,5,ISIP_5,71,1,48,77,1723183576
5517,5,ISIP_5,72,1,48,53,1723223124
5517,5,ISIP_5,73,5,42,127,1723643228
5517,5,ISIP_5,74,1,48,72,1723647620
5517,5,ISIP_5,75,1,48,53,1723681356
5517,5,ISIP_5,76,1,48,57,1724098504
5517,5,ISIP_5,77,5,42,127,1724142896
5517,5,ISIP_5,78,1,48,39,1724146824
5517,5,ISIP_5,79,5,42,127,1724642948
5517,5,ISIP_5,80,1,48,74,1724659008
5517,5,ISIP_5,81,1,48,55,1724693388
5517,5,ISIP_5,82,5,42,127,1725143368
5517,5,ISIP_5,83,1,48,60,1725211664
5517,5,ISIP_5,84,1,48,38,1725258240
5517,5,ISIP_5,85,5,42,127,1725643040
5517,5,ISIP_5,86,1,48,64,1725714676
5517,5,ISIP_5,87,1,48,46,1725753272
5517,5,ISIP_5,88,5,42,127,1726143012
5517,5,ISIP_5,89,1,48,61,1726225192
5517,5,ISIP_5,90,1,48,41,1726267232
5517,5,ISIP_5,91,5,42,127,1726642536
5517,5,ISIP_5,92,1,48,49,1726722992
5517,5,ISIP_5,93,5,42,127,1727143200
5517,5,ISIP_5,94,1,48,86,1727226132
5517,5,ISIP_5,95,1,48,59,1727264504
5517,5,ISIP_5,96,5,42,127,1727642876
5517,5,ISIP_5,97,5,42,127,1728142892
5517,5,ISIP_5,98,1,48,75,1728250204
5517,5,ISIP_5,99,1,48,55,1728286936
5517,5,ISIP_5,100,5,42,127,1728642340
5517,5,ISIP_5,101,1,48,69,1728732300
5517,5,ISIP_5,102,1,48,45,1728779848
5517,5,ISIP_5,103,5,42,127,1729143208
5517,5,ISIP_5,104,1,48,76,1729227260
5517,5,ISIP_5,105,1,48,49,1729276232
5517,5,ISIP_5,106,5,42,127,1729642808
5517,5,ISIP_5,107,1,48,80,1729675552
5517,5,ISIP_5,108,1,48,49,1729724216
5517,5,ISIP_5,109,1,48,81,1730153676
5517,5,ISIP_5,110,1,48,50,1730199876
5517,5,ISIP_5,111,1,48,80,1730628796
5517,5,ISIP_5,112,1,48,57,1730664916
5517,5,ISIP_5,113,1,48,65,1732756792
5517,5,ISIP_5,114,1,48,51,1732790128
5517,5,ISIP_5,115,1,48,88,1733174484
5517,5,ISIP_5,116,1,48,60,1733222708
5517,5,ISIP_5,117,1,48,87,1733628264
5517,5,ISIP_5,118,1,48,53,1733682880
5517,5,ISIP_5,119,1,48,82,1734103016
5517,5,ISIP_5,120,1,48,52,1734154328
5517,5,ISIP_5,121,1,48,76,1734594460
5517,5,ISIP_5,122,1,48,61,1734631988
5517,5,ISIP_5,123,1,48,70,1735060468
5517,5,ISIP_5,124,1,48,50,1735104280
5517,5,ISIP_5,125,1,48,64,1735558120
5517,5,ISIP_5,126,1,48,52,1735593328
5517,5,ISIP_5,127,1,48,54,1736072748
5517,5,ISIP_5,128,1,48,46,1736106608
5517,5,ISIP_5,129,1,48,74,1736565836
5517,5,ISIP_5,130,1,48,54,1736604256
5517,5,ISIP_5,131,1,48,75,1737178084
5517,5,ISIP_5,132,1,48,64,1737204848
5517,5,ISIP_5,133,1,48,76,1738085532
5517,5,ISIP_5,134,1,48,66,1738110116
5517,5,ISIP_5,135,1,48,72,1738631120
5517,5,ISIP_5,136,1,48,58,1738656776
5517,5,ISIP_5,137,1,48,71,1739140532
5517,5,ISIP_5,138,1,48,57,1739166840
5517,5,ISIP_5,139,1,48,73,1739618944
5517,5,ISIP_5,140,1,48,54,1739642048
5517,5,ISIP_5,141,1,48,75,1740106948
5517,5,ISIP_5,142,1,48,56,1740130408
5517,5,ISIP_5,143,1,48,70,1740599804
5517,5,ISIP_5,144,1,48,53,1740623416
5517,5,ISIP_5,145,1,48,69,1741093340
5517,5,ISIP_5,146,1,48,54,1741115980
5517,5,ISIP_5,147,1,48,76,1741568376
5517,5,ISIP_5,148,1,48,62,1741588776
5517,5,ISIP_5,149,1,48,72,1742040888
5517,5,ISIP_5,150,1,48,70,1742535120
5517,5,ISIP_5,151,1,48,57,1742557688
5517,5,ISIP_5,152,1,48,66,1743039200
5517,5,ISIP_5,153,1,48,58,1743061768
5517,5,ISIP_5,154,1,48,70,1743502220
5517,5,ISIP_5,155,1,48,60,1743523368
5517,5,ISIP_5,156,1,48,71,1744014460
5517,5,ISIP_5,157,1,48,59,1744034856
5517,5,ISIP_5,158,1,48,70,1744490264
5517,5,ISIP_5,159,1,48,58,1744509540
5517,5,ISIP_5,160,1,48,67,1744967492
5517,5,ISIP_5,161,1,48,60,1744984600
5517,5,ISIP_5,162,1,48,71,1745437540
5517,5,ISIP_5,163,1,48,57,1745455772
5517,5,ISIP_5,164,1,48,69,1745901132
5517,5,ISIP_5,165,1,48,60,1745918244
5517,5,ISIP_5,166,1,48,68,1746369164
5517,5,ISIP_5,167,1,48,82,1746852324
5517,5,ISIP_5,168,1,48,64,1746871524
5517,5,ISIP_5,169,1,48,73,1747338456
5517,5,ISIP_5,170,1,48,63,1747357884
5517,5,ISIP_5,171,1,48,71,1747789428
5517,5,ISIP_5,172,1,48,62,1747808708
5517,5,ISIP_5,173,1,48,63,1748249528
5517,5,ISIP_5,174,1,48,52,1748270452
5517,5,ISIP_5,175,1,48,71,1748760620
5517,5,ISIP_5,176,1,48,66,1749233732
5517,5,ISIP_5,177,1,48,64,1749719360
5517,5,ISIP_5,178,1,48,62,1750209100
5517,5,ISIP_5,179,1,48,56,1750228376
5517,5,ISIP_5,180,1,48,69,1750687600
5517,5,ISIP_5,181,1,48,59,1750706804
5517,5,ISIP_5,182,1,48,72,1751188768
5517,5,ISIP_5,183,1,48,67,1751653528
5517,5,ISIP_5,184,1,48,54,1751673772
5517,5,ISIP_5,185,1,48,61,1752099328
5517,5,ISIP_5,186,1,48,75,1752591588
5517,5,ISIP_5,187,1,48,63,1752611560
5517,5,ISIP_5,188,1,48,68,1753039572
5517,5,ISIP_5,189,1,48,59,1753500588
5517,5,ISIP_5,190,1,48,65,1753965052
5517,5,ISIP_5,191,1,48,56,1753983208
5517,5,ISIP_5,192,1,48,70,1754401516
5517,5,ISIP_5,193,1,48,65,1754420344
5517,5,ISIP_5,194,1,48,60,1754875132
5517,5,ISIP_5,195,1,48,52,1754894484
5517,5,ISIP_5,196,1,48,67,1755331264
5517,5,ISIP_5,197,1,48,57,1755350172
5517,5,ISIP_5,198,1,48,61,1755793984
5517,5,ISIP_5,199,1,48,54,1755812888
5517,5,ISIP_5,200,1,48,67,1756237628
5517,5,ISIP_5,201,1,48,56,1756257056
5517,5,ISIP_5,202,1,48,76,1756697880
5517,5,ISIP_5,203,1,48,59,1756716112
5517,5,ISIP_5,204,1,48,81,1757151000
5517,5,ISIP_5,205,1,48,67,1757172896
5517,5,ISIP_5,206,1,48,74,1757612288
5517,5,ISIP_5,207,1,48,60,1757634252
5517,5,ISIP_5,208,1,48,62,1758036852
5517,5,ISIP_5,209,1,48,81,1758492940
5517,5,ISIP_5,210,1,48,59,1758520292
5517,5,ISIP_5,211,1,48,76,1758938580
5517,5,ISIP_5,212,1,48,55,1758961592
5517,5,ISIP_5,213,1,48,70,1759382300
5517,5,ISIP_5,214,1,48,53,1759403148
5517,5,ISIP_5,215,1,48,79,1759831556
5517,5,ISIP_5,216,1,48,76,1760275048
5517,5,ISIP_5,217,1,48,62,1760292180
5517,5,ISIP_5,218,1,48,74,1760718320
5517,5,ISIP_5,219,1,48,73,1761145008
5517,5,ISIP_5,220,1,48,80,1761566824
5517,5,ISIP_5,221,1,48,85,1761971188
5517,5,ISIP_5,222,1,48,78,1762362728
5517,5,ISIP_5,223,1,48,60,1762777796
5517,5,ISIP_5,224,1,48,73,1763203660
5517,5,ISIP_5,225,1,48,50,1763242832
5517,5,ISIP_5,226,1,48,71,1763624404
5517,5,ISIP_5,227,1,48,75,1764021304
5517,5,ISIP_5,228,1,48,80,1764417244
5517,5,ISIP_5,229,1,48,70,1764815784
5517,5,ISIP_5,230,1,48,63,1765205672
5517,5,ISIP_5,231,1,48,59,1765582132
5517,5,ISIP_5,232,1,48,62,1765979796
5517,5,ISIP_5,233,1,48,52,1765999592
5517,5,ISIP_5,234,1,48,61,1766434364
5517,5,ISIP_5,235,1,48,63,1766936520
5517,5,ISIP_5,236,1,48,53,1766957372
5517,5,ISIP_5,237,1,48,63,1767451828
5517,5,ISIP_5,238,1,48,54,1767473272
5517,5,ISIP_5,239,1,48,72,1768025396
5517,5,ISIP_5,240,1,48,57,1768046768
5517,5,ISIP_5,241,1,48,67,1768578468
5517,5,ISIP_5,242,1,48,73,1769105536
5517,5,ISIP_5,243,1,48,56,1769129004
5517,5,ISIP_5,244,1,48,76,1769634900
5517,5,ISIP_5,245,1,48,58,1769658532
5517,5,ISIP_5,246,1,48,74,1770175696
5517,5,ISIP_5,247,1,48,60,1770194448
5517,5,ISIP_5,248,1,48,78,1770730264
5517,5,ISIP_5,249,1,48,66,1770749540
5517,5,ISIP_5,250,1,48,74,1771275860
5517,5,ISIP_5,251,1,48,57,1771296808
5517,5,ISIP_5,252,1,48,66,1771824772
5517,5,ISIP_5,253,1,48,56,1771847188
5517,5,ISIP_5,254,1,48,68,1772359072
5517,5,ISIP_5,255,1,48,58,1772380964
5517,5,ISIP_5,256,1,48,67,1772881480
5517,5,ISIP_5,257,1,48,53,1772904648
5517,5,ISIP_5,258,1,48,69,1773409724
5517,5,ISIP_5,259,1,48,58,1773432288
5517,5,ISIP_5,260,1,48,70,1773923680
5517,5,ISIP_5,261,1,48,56,1773946692
5517,5,ISIP_5,262,1,48,73,1774448856
5517,5,ISIP_5,263,1,48,60,1774471572
5517,5,ISIP_5,264,1,48,70,1774958024
5517,5,ISIP_5,265,1,48,62,1774979988
5517,5,ISIP_5,266,1,48,72,1775465920
5517,5,ISIP_5,267,1,48,60,1775488488
5517,5,ISIP_5,268,1,48,75,1775979952
5517,5,ISIP_5,269,1,48,59,1776000872
5517,5,ISIP_5,270,1,48,69,1776485680
5517,5,ISIP_5,271,1,48,58,1776503984
5517,5,ISIP_5,272,1,48,79,1777009736
5517,5,ISIP_5,273,1,48,66,1777029008
5517,5,ISIP_5,274,1,48,74,1777522412
5517,5,ISIP_5,275,1,48,64,1777541692
5517,5,ISIP_5,276,1,48,70,1778037196
5517,5,ISIP_5,277,1,48,57,1778058268
5517,5,ISIP_5,278,1,48,65,1778563268
5517,5,ISIP_5,279,1,48,56,1778585160
5517,5,ISIP_5,280,1,48,68,1779068024
5517,5,ISIP_5,281,1,48,54,1779091332
5517,5,ISIP_5,282,1,48,68,1779571652
5517,5,ISIP_5,283,1,48,58,1779596320
5517,5,ISIP_5,284,1,48,80,1780094140
5517,5,ISIP_5,285,1,48,61,1780119848
5517,5,ISIP_5,286,1,48,66,1780622004
5517,5,ISIP_5,287,1,48,53,1780647204
5517,5,ISIP_5,288,1,48,74,1781148916
5517,5,ISIP_5,289,1,48,57,1781174328
5517,5,ISIP_5,290,1,48,72,1781681272
5517,5,ISIP_5,291,1,48,55,1781705484
5517,5,ISIP_5,292,1,48,70,1782209812
5517,5,ISIP_5,293,1,48,55,1782235596
5517,5,ISIP_5,294,1,48,75,1782736108
5517,5,ISIP_5,295,1,48,62,1782763460
5517,5,ISIP_5,296,1,48,77,1783236524
5517,5,ISIP_5,297,1,48,64,1783262904
5517,5,ISIP_5,298,1,48,72,1783750856
5517,5,ISIP_5,299,1,48,55,1783777084
5517,5,ISIP_5,300,1,48,70,1784250972
5517,5,ISIP_5,301,1,48,58,1784270844
5517,5,ISIP_5,302,1,48,65,1784766872
5517,5,ISIP_5,303,1,48,54,1784792432
5517,5,ISIP_5,304,1,48,69,1785263992
5517,5,ISIP_5,305,1,48,57,1785291876
5517,5,ISIP_5,306,1,48,72,1785784980
5517,5,ISIP_5,307,1,48,59,1785810392
5517,5,ISIP_5,308,1,48,69,1786281656
5517,5,ISIP_5,309,1,48,53,1786307440
5517,5,ISIP_5,310,1,48,65,1786797260
5517,5,ISIP_5,311,1,48,49,1786825580
5517,5,ISIP_5,312,1,48,70,1787330664
5517,5,ISIP_5,313,1,48,54,1787357344
5517,5,ISIP_5,314,1,48,69,1787852992
5517,5,ISIP_5,315,1,48,56,1787883188
5517,5,ISIP_5,316,1,48,66,1788365152
5517,5,ISIP_5,317,1,48,57,1788394148
5517,5,ISIP_5,318,1,48,70,1788869604
5517,5,ISIP_5,319,1,48,58,1788900252
5517,5,ISIP_5,320,1,48,72,1789369428
5517,5,ISIP_5,321,1,48,59,1789397380
5517,5,ISIP_5,322,1,48,70,1789879792
5517,5,ISIP_5,323,1,48,58,1789906620
5517,5,ISIP_5,0,9999,9999,9999,1710140524
5517,5,ISIP_5,1,9999,9999,9999,1710640240
5517,5,ISIP_5,2,9999,9999,9999,1711140928
5517,5,ISIP_5,3,9999,9999,9999,1711640688
5517,5,ISIP_5,4,9999,9999,9999,1712140360
5517,5,ISIP_5,5,9999,9999,9999,1712640108
5517,5,ISIP_5,6,9999,9999,9999,1713140812
5517,5,ISIP_5,7,9999,9999,9999,1713640560
5517,5,ISIP_5,8,9999,9999,9999,1714140232
5517,5,ISIP_5,9,9999,9999,9999,1714640952
5517,5,ISIP_5,10,9999,9999,9999,1715140700
5517,5,ISIP_5,11,9999,9999,9999,1715640376
5517,5,ISIP_5,12,9999,9999,9999,1716140124
5517,5,ISIP_5,13,9999,9999,9999,1716640856
5517,5,ISIP_5,14,9999,9999,9999,1717140532
5517,5,ISIP_5,15,9999,9999,9999,1717640280
5517,5,ISIP_5,16,9999,9999,9999,1718141000
5517,5,ISIP_5,17,9999,9999,9999,1718640748
5517,5,ISIP_5,18,9999,9999,9999,1719140420
5517,5,ISIP_5,19,9999,9999,9999,1719640116
5517,5,ISIP_5,20,9999,9999,9999,1720140912
5517,5,ISIP_5,21,9999,9999,9999,1720640584
5517,5,ISIP_5,22,9999,9999,9999,1721140328
5517,5,ISIP_5,23,9999,9999,9999,1721641072
5517,5,ISIP_5,24,9999,9999,9999,1722140776
5517,5,ISIP_5,25,9999,9999,9999,1722640472
5517,5,ISIP_5,26,9999,9999,9999,1723140148
5517,5,ISIP_5,27,9999,9999,9999,1723640940
5517,5,ISIP_5,28,9999,9999,9999,1724140608
5517,5,ISIP_5,29,9999,9999,9999,1724640360
5517,5,ISIP_5,30,9999,9999,9999,1725141080
5517,5,ISIP_5,31,9999,9999,9999,1725640756
5517,5,ISIP_5,32,9999,9999,9999,1726140500
5517,5,ISIP_5,33,9999,9999,9999,1726640248
5517,5,ISIP_5,34,9999,9999,9999,1727140912
5517,5,ISIP_5,35,9999,9999,9999,1727640664
5517,5,ISIP_5,36,9999,9999,9999,1728140380
5517,5,ISIP_5,37,9999,9999,9999,1728640052
5517,5,ISIP_5,38,9999,9999,9999,1729140844
5517,5,ISIP_5,39,9999,9999,9999,1729640520
5517,5,ISIP_5,40,9999,9999,9999,1730140268
5517,5,ISIP_5,41,9999,9999,9999,1730640976
5517,5,ISIP_5,42,9999,9999,9999,1731140728
5517,5,ISIP_5,43,9999,9999,9999,1731640440
5517,5,ISIP_5,44,9999,9999,9999,1732140152
5517,5,ISIP_5,45,9999,9999,9999,1732640836
5517,5,ISIP_5,46,9999,9999,9999,1733140556
5517,5,ISIP_5,47,9999,9999,9999,1733640296
5517,5,ISIP_5,48,9999,9999,9999,1734141008
5517,5,ISIP_5,49,9999,9999,9999,1734640732
5517,5,ISIP_5,50,9999,9999,9999,1735140400
5517,5,ISIP_5,51,9999,9999,9999,1735640144
5517,5,ISIP_5,52,9999,9999,9999,1736140860
5517,5,ISIP_5,53,9999,9999,9999,1736640600
5517,5,ISIP_5,54,9999,9999,9999,1737140300
5517,5,ISIP_5,55,9999,9999,9999,1737641016
5517,5,ISIP_5,56,9999,9999,9999,1738140772
5517,5,ISIP_5,57,9999,9999,9999,1738640464
5517,5,ISIP_5,58,9999,9999,9999,1739140164
5517,5,ISIP_5,59,9999,9999,9999,1739640880
5517,5,ISIP_5,60,9999,9999,9999,1740140644
5517,5,ISIP_5,61,9999,9999,9999,1740640312
5517,5,ISIP_5,62,9999,9999,9999,1741141104
5517,5,ISIP_5,63,9999,9999,9999,1741640772
5517,5,ISIP_5,64,9999,9999,9999,1742140520
5517,5,ISIP_5,65,9999,9999,9999,1742640204
5517,5,ISIP_5,66,9999,9999,9999,1743140924
5517,5,ISIP_5,67,9999,9999,9999,1743640652
5517,5,ISIP_5,68,9999,9999,9999,1744140372
5517,5,ISIP_5,69,9999,9999,9999,1744640112
5517,5,ISIP_5,70,9999,9999,9999,1745140828
5517,5,ISIP_5,71,9999,9999,9999,1745640500
5517,5,ISIP_5,72,9999,9999,9999,1746140240
5517,5,ISIP_5,73,9999,9999,9999,1746640980
5517,5,ISIP_5,74,9999,9999,9999,1747140720
5517,5,ISIP_5,75,9999,9999,9999,1747640392
5517,5,ISIP_5,76,9999,9999,9999,1748140136
5517,5,ISIP_5,77,9999,9999,9999,1748640852
5517,5,ISIP_5,78,9999,9999,9999,1749140592
5517,5,ISIP_5,79,9999,9999,9999,1749640280
5517,5,ISIP_5,80,9999,9999,9999,1750141020
5517,5,ISIP_5,81,9999,9999,9999,1750640760
5517,5,ISIP_5,82,9999,9999,9999,1751140428
5517,5,ISIP_5,83,9999,9999,9999,1751640120
5517,5,ISIP_5,84,9999,9999,9999,1752140904
5517,5,ISIP_5,85,9999,9999,9999,1752640572
5517,5,ISIP_5,86,9999,9999,9999,1753140324
5517,5,ISIP_5,87,9999,9999,9999,1753641060
5517,5,ISIP_5,88,9999,9999,9999,1754140728
5517,5,ISIP_5,89,9999,9999,9999,1754640448
5517,5,ISIP_5,90,9999,9999,9999,1755140192
5517,5,ISIP_5,91,9999,9999,9999,1755640904
5517,5,ISIP_5,92,9999,9999,9999,1756140648
5517,5,ISIP_5,93,9999,9999,9999,1756640320
5517,5,ISIP_5,94,9999,9999,9999,1757141108
5517,5,ISIP_5,95,9999,9999,9999,1757640752
5517,5,ISIP_5,96,9999,9999,9999,1758140500
5517,5,ISIP_5,97,9999,9999,9999,1758640244
5517,5,ISIP_5,98,9999,9999,9999,1759140960
5517,5,ISIP_5,99,9999,9999,9999,1759640628
5517,5,ISIP_5,100,9999,9999,9999,1760140396
5517,5,ISIP_5,101,9999,9999,9999,1760640064
5517,5,ISIP_5,102,9999,9999,9999,1761140800
5517,5,ISIP_5,103,9999,9999,9999,1761640560
5517,5,ISIP_5,104,9999,9999,9999,1762140236
5517,5,ISIP_5,105,9999,9999,9999,1762640976
5517,5,ISIP_5,106,9999,9999,9999,1763140664
5517,5,ISIP_5,107,9999,9999,9999,1763640404
5517,5,ISIP_5,108,9999,9999,9999,1764140080
5517,5,ISIP_5,109,9999,9999,9999,1764640816
5517,5,ISIP_5,110,9999,9999,9999,1765140556
5517,5,ISIP_5,111,9999,9999,9999,1765640240
5517,5,ISIP_5,112,9999,9999,9999,1766141016
5517,5,ISIP_5,113,9999,9999,9999,1766640708
5517,5,ISIP_5,114,9999,9999,9999,1767140452
5517,5,ISIP_5,115,9999,9999,9999,1767640120
5517,5,ISIP_5,116,9999,9999,9999,1768140912
5517,5,ISIP_5,117,9999,9999,9999,1768640616
5517,5,ISIP_5,118,9999,9999,9999,1769140288
5517,5,ISIP_5,119,9999,9999,9999,1769641024
5517,5,ISIP_5,120,9999,9999,9999,1770140748
5517,5,ISIP_5,121,9999,9999,9999,1770640492
5517,5,ISIP_5,122,9999,9999,9999,1771140160
5517,5,ISIP_5,123,9999,9999,9999,1771640952
5517,5,ISIP_5,124,9999,9999,9999,1772140620
5517,5,ISIP_5,125,9999,9999,9999,1772640364
5517,5,ISIP_5,126,9999,9999,9999,1773141080
5517,5,ISIP_5,127,9999,9999,9999,1773640824
5517,5,ISIP_5,128,9999,9999,9999,1774140496
5517,5,ISIP_5,129,9999,9999,9999,1774640240
5517,5,ISIP_5,130,9999,9999,9999,1775140956
5517,5,ISIP_5,131,9999,9999,9999,1775640628
5517,5,ISIP_5,132,9999,9999,9999,1776140348
5517,5,ISIP_5,133,9999,9999,9999,1776640088
5517,5,ISIP_5,134,9999,9999,9999,1777140808
5517,5,ISIP_5,135,9999,9999,9999,1777640552
5517,5,ISIP_5,136,9999,9999,9999,1778140232
5517,5,ISIP_5,137,9999,9999,9999,1778640948
5517,5,ISIP_5,138,9999,9999,9999,1779140692
5517,5,ISIP_5,139,9999,9999,9999,1779640436
5517,5,ISIP_5,140,9999,9999,9999,1780140108
5517,5,ISIP_5,141,9999,9999,9999,1780640844
5517,5,ISIP_5,142,9999,9999,9999,1781140596
5517,5,ISIP_5,143,9999,9999,9999,1781640264
5517,5,ISIP_5,144,9999,9999,9999,1782140980
5517,5,ISIP_5,145,9999,9999,9999,1782640724
5517,5,ISIP_5,146,9999,9999,9999,1783140468
5517,5,ISIP_5,147,9999,9999,9999,1783640136
5517,5,ISIP_5,148,9999,9999,9999,1784140852
5517,5,ISIP_5,149,9999,9999,9999,1784640596
5517,5,ISIP_5,150,9999,9999,9999,1785140340
5517,5,ISIP_5,151,9999,9999,9999,1785641056
5517,5,ISIP_5,152,9999,9999,9999,1786140724
5517,5,ISIP_5,153,9999,9999,9999,1786640440
5517,5,ISIP_5,154,9999,9999,9999,1787140184
5517,5,ISIP_5,155,9999,9999,9999,1787640900
5517,5,ISIP_5,156,9999,9999,9999,1788140640
5517,5,ISIP_5,157,9999,9999,9999,1788640308
5517,5,ISIP_5,158,9999,9999,9999,1789141100
5517,5,ISIP_5,159,9999,9999,9999,1789640772
5518,3,ISIP_8,0,5,42,127,1812459812
5518,3,ISIP_8,1,1,48,43,1813178376
5518,3,ISIP_8,2,5,42,127,1813259860
5518,3,ISIP_8,3,1,48,62,1813929560
5518,3,ISIP_8,4,1,48,50,1813961780
5518,3,ISIP_8,5,5,42,127,1814060476
5518,3,ISIP_8,6,1,48,61,1814697932
5518,3,ISIP_8,7,1,48,44,1814731716
5518,3,ISIP_8,8,5,42,127,1814860336
5518,3,ISIP_8,9,1,48,67,1815463536
5518,3,ISIP_8,10,1,48,52,1815488724
5518,3,ISIP_8,11,5,42,127,1815659828
5518,3,ISIP_8,12,1,48,61,1816228688
5518,3,ISIP_8,13,1,48,47,1816254172
5518,3,ISIP_8,14,5,42,127,1816459908
5518,3,ISIP_8,15,1,48,57,1816900492
5518,3,ISIP_8,16,5,42,127,1817260392
5518,3,ISIP_8,17,1,48,70,1817806740
5518,3,ISIP_8,18,1,48,49,1817844868
5518,3,ISIP_8,19,5,42,127,1818060100
5518,3,ISIP_8,20,1,48,74,1818585432
5518,3,ISIP_8,21,1,48,55,1818619664
5518,3,ISIP_8,22,5,42,127,1818859812
5518,3,ISIP_8,23,1,48,61,1819392400
5518,3,ISIP_8,24,1,48,44,1819424712
5518,3,ISIP_8,25,5,42,127,1819659748
5518,3,ISIP_8,26,1,48,67,1820107364
5518,3,ISIP_8,27,5,42,127,1820460476
5518,3,ISIP_8,28,1,48,72,1820916596
5518,3,ISIP_8,29,1,48,58,1820942460
5518,3,ISIP_8,30,5,42,127,1821260264
5518,3,ISIP_8,31,1,48,66,1821723588
5518,3,ISIP_8,32,1,48,54,1821745032
5518,3,ISIP_8,33,5,42,127,1822059828
5518,3,ISIP_8,34,1,48,70,1822490240
5518,3,ISIP_8,35,1,48,59,1822517596
5518,3,ISIP_8,36,5,42,127,1822859612
5518,3,ISIP_8,37,1,48,73,1823250808
5518,3,ISIP_8,38,1,48,55,1823280208
5518,3,ISIP_8,39,5,42,127,1823660520
5518,3,ISIP_8,40,1,48,67,1824016712
5518,3,ISIP_8,41,1,48,52,1824045064
5518,3,ISIP_8,42,5,42,127,1824460228
5518,3,ISIP_8,43,1,48,65,1824794904
5518,3,ISIP_8,44,1,48,53,1824824052
5518,3,ISIP_8,45,5,42,127,1825259868
5518,3,ISIP_8,46,1,48,67,1825575020
5518,3,ISIP_8,47,1,48,56,1825602292
5518,3,ISIP_8,48,5,42,127,1826059504
5518,3,ISIP_8,49,1,48,66,1826416464
5518,3,ISIP_8,50,1,48,51,1826442252
5518,3,ISIP_8,51,5,42,127,1826860584
5518,3,ISIP_8,52,1,48,71,1827194336
5518,3,ISIP_8,53,1,48,51,1827223408
5518,3,ISIP_8,54,5,42,127,1827660076
5518,3,ISIP_8,55,1,48,57,1827979464
5518,3,ISIP_8,56,5,42,127,1828459884
5518,3,ISIP_8,57,1,48,52,1828782036
5518,3,ISIP_8,58,5,42,127,1829259540
5518,3,ISIP_8,59,1,48,55,1829550804
5518,3,ISIP_8,60,5,42,127,1830060620
5518,3,ISIP_8,61,1,48,57,1830345156
5518,3,ISIP_8,62,5,42,127,1830860428
5518,3,ISIP_8,63,1,48,58,1831103972
5518,3,ISIP_8,64,1,48,46,1831131624
5518,3,ISIP_8,65,5,42,127,1831659840
5518,3,ISIP_8,66,1,48,58,1831888872
5518,3,ISIP_8,67,1,48,44,1831916300
5518,3,ISIP_8,68,5,42,127,1832459552
5518,3,ISIP_8,69,1,48,55,1832700104
5518,3,ISIP_8,70,5,42,127,1833260504
5518,3,ISIP_8,71,1,48,57,1833524992
5518,3,ISIP_8,72,1,48,42,1833552496
5518,3,ISIP_8,73,5,42,127,1834060364
5518,3,ISIP_8,74,1,48,66,1834324556
5518,3,ISIP_8,75,1,48,51,1834346604
5518,3,ISIP_8,76,5,42,127,1834860008
5518,3,ISIP_8,77,1,48,63,1835170420
5518,3,ISIP_8,78,5,42,127,1835659516
5518,3,ISIP_8,79,1,48,59,1836070036
5518,3,ISIP_8,80,1,48,56,1836808776
5518,3,ISIP_8,81,1,48,60,1837543880
5518,3,ISIP_8,82,1,48,46,1838332464
5518,3,ISIP_8,83,1,48,55,1839129596
5518,3,ISIP_8,84,1,48,58,1839926640
5518,3,ISIP_8,85,1,48,60,1840697268
5518,3,ISIP_8,86,1,48,60,1841519664
5518,3,ISIP_8,87,1,48,76,1842322156
5518,3,ISIP_8,88,1,48,70,1843119124
5518,3,ISIP_8,89,1,48,69,1843906060
5518,3,ISIP_8,90,1,48,93,1844703916
5518,3,ISIP_8,91,1,48,80,1844722148
5518,3,ISIP_8,92,1,48,80,1845450440
5518,3,ISIP_8,93,1,48,69,1846201176
5518,3,ISIP_8,94,1,48,57,1846222028
5518,3,ISIP_8,95,1,48,75,1846951296
5518,3,ISIP_8,96,1,48,64,1846972740
5518,3,ISIP_8,97,1,48,67,1847692364
5518,3,ISIP_8,98,1,48,57,1847713284
5518,3,ISIP_8,99,1,48,82,1848423240
5518,3,ISIP_8,100,1,48,68,1848445804
5518,3,ISIP_8,101,1,48,72,1849195420
5518,3,ISIP_8,102,1,48,62,1849215668
5518,3,ISIP_8,103,1,48,68,1849895720
5518,3,ISIP_8,104,1,48,59,1849915972
5518,3,ISIP_8,105,1,48,80,1850679124
5518,3,ISIP_8,106,1,48,67,1850699076
5518,3,ISIP_8,107,1,48,81,1851462828
5518,3,ISIP_8,108,1,48,67,1851485392
5518,3,ISIP_8,109,1,48,71,1852230516
5518,3,ISIP_8,110,1,48,61,1852252860
5518,3,ISIP_8,111,1,48,70,1852973084
5518,3,ISIP_8,112,1,48,58,1852993328
5518,3,ISIP_8,113,1,48,83,1853735244
5518,3,ISIP_8,114,1,48,69,1853755040
5518,3,ISIP_8,115,1,48,69,1854471868
5518,3,ISIP_8,116,1,48,58,1854490720
5518,3,ISIP_8,117,1,48,81,1855186156
5518,3,ISIP_8,118,1,48,70,1855205956
5518,3,ISIP_8,119,1,48,91,1855879280
5518,3,ISIP_8,120,1,48,73,1855899300
5518,3,ISIP_8,121,1,48,74,1856577484
5518,3,ISIP_8,122,1,48,59,1856595788
5518,3,ISIP_8,123,1,48,72,1857321912
5518,3,ISIP_8,124,1,48,59,1857342764
5518,3,ISIP_8,125,1,48,63,1858050156
5518,3,ISIP_8,126,1,48,58,1858074708
5518,3,ISIP_8,127,1,48,65,1858751352
5518,3,ISIP_8,128,1,48,63,1859432756
5518,3,ISIP_8,129,1,48,74,1860110836
5518,3,ISIP_8,130,1,48,66,1860818416
5518,3,ISIP_8,131,1,48,54,1860837768
5518,3,ISIP_8,132,1,48,57,1861532780
5518,3,ISIP_8,133,1,48,60,1862285756
5518,3,ISIP_8,134,1,48,67,1862976204
5518,3,ISIP_8,135,1,48,56,1863652104
5518,3,ISIP_8,136,1,48,61,1864342784
5518,3,ISIP_8,137,1,48,54,1864373280
5518,3,ISIP_8,138,1,48,66,1865100824
5518,3,ISIP_8,139,1,48,55,1865134464
5518,3,ISIP_8,140,1,48,74,1865735880
5518,3,ISIP_8,141,1,48,59,1865766924
5518,3,ISIP_8,142,1,48,66,1866456524
5518,3,ISIP_8,143,1,48,56,1866482232
5518,3,ISIP_8,144,1,48,58,1867151740
5518,3,ISIP_8,145,1,48,48,1867177748
5518,3,ISIP_8,146,1,48,63,1867869696
5518,3,ISIP_8,147,1,48,51,1867894356
5518,3,ISIP_8,148,1,48,68,1868568728
5518,3,ISIP_8,149,1,48,58,1868595480
5518,3,ISIP_8,150,1,48,67,1869293384
5518,3,ISIP_8,151,1,48,57,1869318572
5518,3,ISIP_8,152,1,48,64,1870006236
5518,3,ISIP_8,153,1,48,52,1870030300
5518,3,ISIP_8,154,1,48,65,1870754408
5518,3,ISIP_8,155,1,48,54,1870780044
5518,3,ISIP_8,156,1,48,68,1871523976
5518,3,ISIP_8,157,1,48,55,1871555592
5518,3,ISIP_8,158,1,48,74,1872249556
5518,3,ISIP_8,159,1,48,59,1872276236
5518,3,ISIP_8,160,1,48,71,1872980448
5518,3,ISIP_8,161,1,48,60,1873005036
5518,3,ISIP_8,162,1,48,71,1873684716
5518,3,ISIP_8,163,1,48,53,1873708700
5518,3,ISIP_8,164,1,48,66,1874374144
5518,3,ISIP_8,165,1,48,55,1874398804
5518,3,ISIP_8,166,1,48,58,1875126952
5518,3,ISIP_8,167,1,48,47,1875152288
5518,3,ISIP_8,168,1,48,65,1875842440
5518,3,ISIP_8,169,1,48,52,1875868220
5518,3,ISIP_8,170,1,48,58,1876577744
5518,3,ISIP_8,171,1,48,48,1876612504
5518,3,ISIP_8,172,1,48,65,1877324344
5518,3,ISIP_8,173,1,48,53,1877357908
5518,3,ISIP_8,174,1,48,70,1878048564
5518,3,ISIP_8,175,1,48,58,1878079000
5518,3,ISIP_8,176,1,48,65,1878763276
5518,3,ISIP_8,177,1,48,52,1878797368
5518,3,ISIP_8,178,1,48,70,1879486020
5518,3,ISIP_8,179,1,48,57,1879518156
5518,3,ISIP_8,180,1,48,67,1880205844
5518,3,ISIP_8,181,1,48,57,1880237388
5518,3,ISIP_8,182,1,48,64,1880913252
5518,3,ISIP_8,183,1,48,55,1880942776
5518,3,ISIP_8,184,1,48,58,1881610312
5518,3,ISIP_8,185,1,48,48,1881641056
5518,3,ISIP_8,186,1,48,66,1882348008
5518,3,ISIP_8,187,1,48,55,1882375812
5518,3,ISIP_8,188,1,48,60,1883074864
5518,3,ISIP_8,189,1,48,43,1883120840
5518,3,ISIP_8,190,1,48,67,1883816452
5518,3,ISIP_8,191,1,48,49,1883859512
5518,3,ISIP_8,192,1,48,65,1884584368
5518,3,ISIP_8,193,1,48,47,1884626084
5518,3,ISIP_8,194,1,48,68,1885312944
5518,3,ISIP_8,195,1,48,55,1885348824
5518,3,ISIP_8,196,1,48,65,1886054600
5518,3,ISIP_8,197,1,48,54,1886085928
5518,3,ISIP_8,198,1,48,68,1886764472
5518,3,ISIP_8,199,1,48,54,1886791228
5518,3,ISIP_8,200,1,48,63,1887527676
5518,3,ISIP_8,201,1,48,52,1887561016
5518,3,ISIP_8,202,1,48,58,1888261984
5518,3,ISIP_8,203,1,48,51,1888297372
5518,3,ISIP_8,204,1,48,67,1889029160
5518,3,ISIP_8,205,1,48,55,1889061172
5518,3,ISIP_8,206,1,48,66,1889762892
5518,3,ISIP_8,207,1,48,55,1889790692
5518,3,ISIP_8,208,1,48,56,1890535144
5518,3,ISIP_8,209,1,48,48,1890568264
5518,3,ISIP_8,210,1,48,67,1891354176
5518,3,ISIP_8,211,1,48,54,1891384748
5518,3,ISIP_8,212,1,48,69,1892090356
5518,3,ISIP_8,213,1,48,58,1892117664
5518,3,ISIP_8,214,1,48,66,1892827980
5518,3,ISIP_8,215,1,48,57,1892854892
5518,3,ISIP_8,216,1,48,62,1893560896
5518,3,ISIP_8,217,1,48,50,1893587800
5518,3,ISIP_8,218,1,48,64,1894277432
5518,3,ISIP_8,219,1,48,52,1894299472
5518,3,ISIP_8,220,1,48,67,1895009524
5518,3,ISIP_8,221,1,48,51,1895035304
5518,3,ISIP_8,222,1,48,60,1895748120
5518,3,ISIP_8,223,1,48,47,1895774352
5518,3,ISIP_8,224,1,48,65,1896498684
5518,3,ISIP_8,225,1,48,49,1896531792
5518,3,ISIP_8,226,1,48,63,1897257312
5518,3,ISIP_8,227,1,48,49,1897286252
5518,3,ISIP_8,228,1,48,64,1897961852
5518,3,ISIP_8,229,1,48,49,1897987712
5518,3,ISIP_8,230,1,48,67,1898698208
5518,3,ISIP_8,231,1,48,54,1898725636
5518,3,ISIP_8,232,1,48,62,1899474720
5518,3,ISIP_8,233,1,48,51,1899498936
5518,3,ISIP_8,234,1,48,60,1900235092
5518,3,ISIP_8,235,1,48,65,1900994128
5518,3,ISIP_8,236,1,48,54,1901013928
5518,3,ISIP_8,237,1,48,71,1901749180
5518,3,ISIP_8,238,1,48,58,1901770624
5518,3,ISIP_8,239,1,48,73,1902520764
5518,3,ISIP_8,240,1,48,62,1902545428
5518,3,ISIP_8,241,1,48,66,1903263180
5518,3,ISIP_8,242,1,48,57,1903284624
5518,3,ISIP_8,243,1,48,68,1904043560
5518,3,ISIP_8,244,1,48,52,1904066656
5518,3,ISIP_8,245,1,48,64,1904776700
5518,3,ISIP_8,246,1,48,51,1904799712
5518,3,ISIP_8,247,1,48,57,1905548360
5518,3,ISIP_8,248,1,48,61,1906313152
5518,3,ISIP_8,249,1,48,61,1907082592
5518,3,ISIP_8,250,1,48,61,1907816272
5518,3,ISIP_8,251,1,48,65,1908542028
5518,3,ISIP_8,252,1,48,57,1909276456
5518,3,ISIP_8,253,1,48,67,1910023268
5518,3,ISIP_8,254,1,48,56,1910748572
5518,3,ISIP_8,255,1,48,48,1910771064
5518,3,ISIP_8,256,1,48,58,1911492928
5518,3,ISIP_8,257,1,48,50,1911521252
5518,3,ISIP_8,258,1,48,60,1912238780
5518,3,ISIP_8,259,1,48,69,1912986372
5518,3,ISIP_8,260,1,48,56,1913019040
5518,3,ISIP_8,261,1,48,69,1913715696
5518,3,ISIP_8,262,1,48,55,1913746940
5518,3,ISIP_8,263,1,48,73,1914464544
5518,3,ISIP_8,264,1,48,54,1914496684
5518,3,ISIP_8,265,1,48,65,1915200368
5518,3,ISIP_8,266,1,48,51,1915228924
5518,3,ISIP_8,267,1,48,66,1915945848
5518,3,ISIP_8,268,1,48,53,1915974252
5518,3,ISIP_8,269,1,48,59,1916720800
5518,3,ISIP_8,270,1,48,72,1917464584
5518,3,ISIP_8,271,1,48,54,1917486996
5518,3,ISIP_8,272,1,48,64,1918183632
5518,3,ISIP_8,273,1,48,51,1918204552
5518,3,ISIP_8,274,1,48,67,1918868296
5518,3,ISIP_8,275,1,48,59,1919629268
5518,3,ISIP_8,276,1,48,48,1919652888
5518,3,ISIP_8,277,1,48,56,1920345052
5518,3,ISIP_8,278,1,48,61,1921039472
5518,3,ISIP_8,279,1,48,47,1921064652
5518,3,ISIP_8,280,1,48,54,1921781032
5518,3,ISIP_8,281,1,48,45,1921813576
5518,3,ISIP_8,282,1,48,54,1922511324
5518,3,ISIP_8,283,1,48,43,1922546984
5518,3,ISIP_8,284,1,48,59,1923288076
5518,3,ISIP_8,285,1,48,44,1923321632
5518,3,ISIP_8,286,1,48,73,1924021360
5518,3,ISIP_8,287,1,48,58,1924052004
5518,3,ISIP_8,288,1,48,79,1924758612
5518,3,ISIP_8,289,1,48,55,1924790152
5518,3,ISIP_8,290,1,48,69,1925493244
5518,3,ISIP_8,291,1,48,52,1925520076
5518,3,ISIP_8,292,1,48,62,1926298188
5518,3,ISIP_8,293,1,48,54,1926322852
5518,3,ISIP_8,294,1,48,64,1927034316
5518,3,ISIP_8,295,1,48,54,1927059056
5518,3,ISIP_8,296,1,48,63,1927762072
5518,3,ISIP_8,297,1,48,48,1927786060
5518,3,ISIP_8,298,1,48,55,1928474644
5518,3,ISIP_8,299,1,48,46,1928499452
5518,3,ISIP_8,300,1,48,49,1929178568
5518,3,ISIP_8,301,1,48,42,1929203756
5518,3,ISIP_8,302,1,48,60,1929963616
5518,3,ISIP_8,303,1,48,49,1929993060
5518,3,ISIP_8,304,1,48,69,1930679848
5518,3,ISIP_8,305,1,48,54,1930709896
5518,3,ISIP_8,306,1,48,62,1931393912
5518,3,ISIP_8,307,1,48,50,1931420144
5518,3,ISIP_8,308,1,48,70,1932135800
5518,3,ISIP_8,309,1,48,57,1932160908
5518,3,ISIP_8,0,9999,9999,9999,1812457524
5518,3,ISIP_8,1,9999,9999,9999,1813257272
5518,3,ISIP_8,2,9999,9999,9999,1814058076
5518,3,ISIP_8,3,9999,9999,9999,1814857828
5518,3,ISIP_8,4,9999,9999,9999,1815657540
5518,3,ISIP_8,5,9999,9999,9999,1816457324
5518,3,ISIP_8,6,9999,9999,9999,1817258104
5518,3,ISIP_8,7,9999,9999,9999,1818057812
5518,3,ISIP_8,8,9999,9999,9999,1818857524
5518,3,ISIP_8,9,9999,9999,9999,1819657312
5518,3,ISIP_8,10,9999,9999,9999,1820458040
5518,3,ISIP_8,11,9999,9999,9999,1821257828
5518,3,ISIP_8,12,9999,9999,9999,1822057540
5518,3,ISIP_8,13,9999,9999,9999,1822857324
5518,3,ISIP_8,14,9999,9999,9999,1823658084
5518,3,ISIP_8,15,9999,9999,9999,1824457792
5518,3,ISIP_8,16,9999,9999,9999,1825257580
5518,3,ISIP_8,17,9999,9999,9999,1826057292
5518,3,ISIP_8,18,9999,9999,9999,1826858072
5518,3,ISIP_8,19,9999,9999,9999,1827657788
5518,3,ISIP_8,20,9999,9999,9999,1828457520
5518,3,ISIP_8,21,9999,9999,9999,1829257328
5518,3,ISIP_8,22,9999,9999,9999,1830058032
5518,3,ISIP_8,23,9999,9999,9999,1830857844
5518,3,ISIP_8,24,9999,9999,9999,1831657552
5518,3,ISIP_8,25,9999,9999,9999,1832457264
5518,3,ISIP_8,26,9999,9999,9999,1833258068
5518,3,ISIP_8,27,9999,9999,9999,1834057780
5518,3,ISIP_8,28,9999,9999,9999,1834857568
5518,3,ISIP_8,29,9999,9999,9999,1835657304
5518,3,ISIP_8,30,9999,9999,9999,1836458084
5518,3,ISIP_8,31,9999,9999,9999,1837257812
5518,3,ISIP_8,32,9999,9999,9999,1838057540
5518,3,ISIP_8,33,9999,9999,9999,1838857268
5518,3,ISIP_8,34,9999,9999,9999,1839658072
5518,3,ISIP_8,35,9999,9999,9999,1840457800
5518,3,ISIP_8,36,9999,9999,9999,1841257528
5518,3,ISIP_8,37,9999,9999,9999,1842057332
5518,3,ISIP_8,38,9999,9999,9999,1842858036
5518,3,ISIP_8,39,9999,9999,9999,1843657840
5518,3,ISIP_8,40,9999,9999,9999,1844457568
5518,3,ISIP_8,41,9999,9999,9999,1845257276
5518,3,ISIP_8,42,9999,9999,9999,1846058072
5518,3,ISIP_8,43,9999,9999,9999,1846857780
5518,3,ISIP_8,44,9999,9999,9999,1847657564
5518,3,ISIP_8,45,9999,9999,9999,1848457316
5518,3,ISIP_8,46,9999,9999,9999,1849258072
5518,3,ISIP_8,47,9999,9999,9999,1850057836
5518,3,ISIP_8,48,9999,9999,9999,1850857544
5518,3,ISIP_8,49,9999,9999,9999,1851657328
5518,3,ISIP_8,50,9999,9999,9999,1852458032
5518,3,ISIP_8,51,9999,9999,9999,1853257812
5518,3,ISIP_8,52,9999,9999,9999,1854057520
5518,3,ISIP_8,53,9999,9999,9999,1854857304
5518,3,ISIP_8,54,9999,9999,9999,1855658056
5518,3,ISIP_8,55,9999,9999,9999,1856457840
5518,3,ISIP_8,56,9999,9999,9999,1857257548
5518,3,ISIP_8,57,9999,9999,9999,1858057324
5518,3,ISIP_8,58,9999,9999,9999,1858858092
5518,3,ISIP_8,59,9999,9999,9999,1859657820
5518,3,ISIP_8,60,9999,9999,9999,1860457548
5518,3,ISIP_8,61,9999,9999,9999,1861257328
5518,3,ISIP_8,62,9999,9999,9999,1862058028
5518,3,ISIP_8,63,9999,9999,9999,1862857832
5518,3,ISIP_8,64,9999,9999,9999,1863657560
5518,3,ISIP_8,65,9999,9999,9999,1864457264
5518,3,ISIP_8,66,9999,9999,9999,1865258028
5518,3,ISIP_8,67,9999,9999,9999,1866057808
5518,3,ISIP_8,68,9999,9999,9999,1866857520
5518,3,ISIP_8,69,9999,9999,9999,1867657304
5518,3,ISIP_8,70,9999,9999,9999,1868458056
5518,3,ISIP_8,71,9999,9999,9999,1869257840
5518,3,ISIP_8,72,9999,9999,9999,1870057520
5518,3,ISIP_8,73,9999,9999,9999,1870857300
5518,3,ISIP_8,74,9999,9999,9999,1871658064
5518,3,ISIP_8,75,9999,9999,9999,1872457844
5518,3,ISIP_8,76,9999,9999,9999,1873257552
5518,3,ISIP_8,77,9999,9999,9999,1874057332
5518,3,ISIP_8,78,9999,9999,9999,1874858088
5518,3,ISIP_8,79,9999,9999,9999,1875657796
5518,3,ISIP_8,80,9999,9999,9999,1876457576
5518,3,ISIP_8,81,9999,9999,9999,1877257284
5518,3,ISIP_8,82,9999,9999,9999,1878058056
5518,3,ISIP_8,83,9999,9999,9999,1878857816
5518,3,ISIP_8,84,9999,9999,9999,1879657584
5518,3,ISIP_8,85,9999,9999,9999,1880457292
5518,3,ISIP_8,86,9999,9999,9999,1881258044
5518,3,ISIP_8,87,9999,9999,9999,1882057824
5518,3,ISIP_8,88,9999,9999,9999,1882857532
5518,3,ISIP_8,89,9999,9999,9999,1883657316
5518,3,ISIP_8,90,9999,9999,9999,1884458092
5518,3,ISIP_8,91,9999,9999,9999,1885257800
5518,3,ISIP_8,92,9999,9999,9999,1886057580
5518,3,ISIP_8,93,9999,9999,9999,1886857264
5518,3,ISIP_8,94,9999,9999,9999,1887658080
5518,3,ISIP_8,95,9999,9999,9999,1888457784
5518,3,ISIP_8,96,9999,9999,9999,1889257568
5518,3,ISIP_8,97,9999,9999,9999,1890057272
5518,3,ISIP_8,98,9999,9999,9999,1890858052
5518,3,ISIP_8,99,9999,9999,9999,1891657836
5518,3,ISIP_8,100,9999,9999,9999,1892457540
5518,3,ISIP_8,101,9999,9999,9999,1893257324
5518,3,ISIP_8,102,9999,9999,9999,1894058080
5518,3,ISIP_8,103,9999,9999,9999,1894857788
5518,3,ISIP_8,104,9999,9999,9999,1895657572
5518,3,ISIP_8,105,9999,9999,9999,1896457276
5518,3,ISIP_8,106,9999,9999,9999,1897258048
5518,3,ISIP_8,107,9999,9999,9999,1898057808
5518,3,ISIP_8,108,9999,9999,9999,1898857576
5518,3,ISIP_8,109,9999,9999,9999,1899657284
5518,3,ISIP_8,110,9999,9999,9999,1900458060
5518,3,ISIP_8,111,9999,9999,9999,1901257844
5518,3,ISIP_8,112,9999,9999,9999,1902057552
5518,3,ISIP_8,113,9999,9999,9999,1902857332
5518,3,ISIP_8,114,9999,9999,9999,1903658088
5518,3,ISIP_8,115,9999,9999,9999,1904457792
5518,3,ISIP_8,116,9999,9999,9999,1905257576
5518,3,ISIP_8,117,9999,9999,9999,1906057304
5518,3,ISIP_8,118,9999,9999,9999,1906858080
5518,3,ISIP_8,119,9999,9999,9999,1907657812
5518,3,ISIP_8,120,9999,9999,9999,1908457540
5518,3,ISIP_8,121,9999,9999,9999,1909257268
5518,3,ISIP_8,122,9999,9999,9999,1910058060
5518,3,ISIP_8,123,9999,9999,9999,1910857844
5518,3,ISIP_8,124,9999,9999,9999,1911657536
5518,3,ISIP_8,125,9999,9999,9999,1912457264
5518,3,ISIP_8,126,9999,9999,9999,1913258092
5518,3,ISIP_8,127,9999,9999,9999,1914057800
5518,3,ISIP_8,128,9999,9999,9999,1914857580
5518,3,ISIP_8,129,9999,9999,9999,1915657288
5518,3,ISIP_8,130,9999,9999,9999,1916458068
5518,3,ISIP_8,131,9999,9999,9999,1917257796
5518,3,ISIP_8,132,9999,9999,9999,1918057580
5518,3,ISIP_8,133,9999,9999,9999,1918857288
5518,3,ISIP_8,134,9999,9999,9999,1919658036
5518,3,ISIP_8,135,9999,9999,9999,1920457824
5518,3,ISIP_8,136,9999,9999,9999,1921257532
5518,3,ISIP_8,137,9999,9999,9999,1922057312
5518,3,ISIP_8,138,9999,9999,9999,1922858092
5518,3,ISIP_8,139,9999,9999,9999,1923657800
5518,3,ISIP_8,140,9999,9999,9999,1924457580
5518,3,ISIP_8,141,9999,9999,9999,1925257288
5518,3,ISIP_8,142,9999,9999,9999,1926058044
5518,3,ISIP_8,143,9999,9999,9999,1926857828
5518,3,ISIP_8,144,9999,9999,9999,1927657536
5518,3,ISIP_8,145,9999,9999,9999,1928457320
5518,3,ISIP_8,146,9999,9999,9999,1929258072
5518,3,ISIP_8,147,9999,9999,9999,1930057776
5518,3,ISIP_8,148,9999,9999,9999,1930857548
5518,3,ISIP_8,149,9999,9999,9999,1931657328
5519,11,Pattern_Practice,0,5,42,127,2038609352
5519,11,Pattern_Practice,1,5,42,127,2039109220
5519,11,Pattern_Practice,2,1,38,67,2039544544
5519,11,Pattern_Practice,3,1,38,41,2039603036
5519,11,Pattern_Practice,4,5,42,127,2039608536
5519,11,Pattern_Practice,5,1,38,35,2039647912
5519,11,Pattern_Practice,6,1,38,63,2039949432
5519,11,Pattern_Practice,7,1,38,73,2040009168
5519,11,Pattern_Practice,8,5,42,127,2040109516
5519,11,Pattern_Practice,9,1,38,75,2040138292
5519,11,Pattern_Practice,10,1,38,74,2040150008
5519,11,Pattern_Practice,11,1,38,84,2040282456
5519,11,Pattern_Practice,12,1,38,79,2040309656
5519,11,Pattern_Practice,13,1,38,56,2040333524
5519,11,Pattern_Practice,14,1,38,94,2040405976
5519,11,Pattern_Practice,15,1,38,78,2040496168
5519,11,Pattern_Practice,16,1,38,103,2040530476
5519,11,Pattern_Practice,17,1,38,56,2040555360
5519,11,Pattern_Practice,18,5,42,127,2040609348
5519,11,Pattern_Practice,19,1,38,78,2040896408
5519,11,Pattern_Practice,20,5,42,127,2041108732
5519,11,Pattern_Practice,21,1,38,62,2041219484
5519,11,Pattern_Practice,22,1,48,20,2041226868
5519,11,Pattern_Practice,23,1,38,61,2041364696
5519,11,Pattern_Practice,24,1,48,19,2041371856
5519,11,Pattern_Practice,25,5,42,127,2041608456
5519,11,Pattern_Practice,26,1,38,61,2041638504
5519,11,Pattern_Practice,27,1,48,19,2041645736
5519,11,Pattern_Practice,28,1,38,53,2041834252
5519,11,Pattern_Practice,29,1,38,78,2041848292
5519,11,Pattern_Practice,30,5,42,127,2042109304
5519,11,Pattern_Practice,31,1,38,54,2042181484
5519,11,Pattern_Practice,32,1,48,19,2042188720
5519,11,Pattern_Practice,33,1,38,71,2042201564
5519,11,Pattern_Practice,34,1,38,65,2042342884
5519,11,Pattern_Practice,35,1,38,90,2042550224
5519,11,Pattern_Practice,36,1,38,60,2042594488
5519,11,Pattern_Practice,37,5,42,127,2042609180
5519,11,Pattern_Practice,38,1,38,123,2042733328
5519,11,Pattern_Practice,39,1,38,57,2042765848
5519,11,Pattern_Practice,40,5,42,127,2043108616
5519,11,Pattern_Practice,41,1,38,124,2043113228
5519,11,Pattern_Practice,42,1,38,67,2043135048
5519,11,Pattern_Practice,43,1,38,68,2043289956
5519,11,Pattern_Practice,44,1,48,19,2043297192
5519,11,Pattern_Practice,45,1,38,112,2043324696
5519,11,Pattern_Practice,46,1,38,51,2043356088
5519,11,Pattern_Practice,47,5,42,127,2043608336
5519,11,Pattern_Practice,48,1,38,104,2043642272
5519,11,Pattern_Practice,49,1,48,20,2043652204
5519,11,Pattern_Practice,50,1,38,89,2043788608
5519,11,Pattern_Practice,51,1,38,119,2044063868
5519,11,Pattern_Practice,52,5,42,127,2044109300
5519,11,Pattern_Practice,53,1,38,111,2044203312
5519,11,Pattern_Practice,54,1,38,70,2044336804
5519,11,Pattern_Practice,55,1,38,59,2044468752
5519,11,Pattern_Practice,56,1,38,57,2044593196
5519,11,Pattern_Practice,57,1,48,23,2044600800
5519,11,Pattern_Practice,58,5,42,127,2044609060
5519,11,Pattern_Practice,59,1,38,127,2044917264
5519,11,Pattern_Practice,60,1,38,127,2045052052
5519,11,Pattern_Practice,61,5,42,127,2045108484
5519,11,Pattern_Practice,62,1,38,107,2045338248
5519,11,Pattern_Practice,63,1,38,127,2045472584
5519,11,Pattern_Practice,64,5,42,127,2045609260
5519,11,Pattern_Practice,65,1,38,107,2045624196
5519,11,Pattern_Practice,66,1,38,105,2045764148
5519,11,Pattern_Practice,67,1,38,127,2045897120
5519,11,Pattern_Practice,68,5,42,127,2046109288
5519,11,Pattern_Practice,69,1,38,73,2046127888
5519,11,Pattern_Practice,70,1,38,86,2046242184
5519,11,Pattern_Practice,71,1,48,22,2046249716
5519,11,Pattern_Practice,72,1,38,92,2046339976
5519,11,Pattern_Practice,73,1,38,65,2046355712
5519,11,Pattern_Practice,74,1,38,99,2046432508
5519,11,Pattern_Practice,75,1,38,89,2046580604
5519,11,Pattern_Practice,76,1,38,60,2046599808
5519,11,Pattern_Practice,77,5,42,127,2046608968
5519,11,Pattern_Practice,78,1,48,95,2046767156
5519,11,Pattern_Practice,79,1,48,114,2046929292
5519,11,Pattern_Practice,80,1,48,92,2047079412
5519,11,Pattern_Practice,81,5,42,127,2047108320
5519,11,Pattern_Practice,82,1,48,100,2047218308
5519,11,Pattern_Practice,83,1,48,77,2047337388
5519,11,Pattern_Practice,84,1,38,108,2047595220
5519,11,Pattern_Practice,85,5,42,127,2047609092
5519,11,Pattern_Practice,86,1,38,109,2047752692
5519,11,Pattern_Practice,87,1,48,125,2048044628
5519,11,Pattern_Practice,88,5,42,127,2048109140
5519,11,Pattern_Practice,89,1,48,92,2048189432
5519,11,Pattern_Practice,90,1,38,57,2048469776
5519,11,Pattern_Practice,91,5,42,127,2048608572
5519,11,Pattern_Practice,92,1,48,113,2048932896
5519,11,Pattern_Practice,93,1,48,70,2049025996
5519,11,Pattern_Practice,94,5,42,127,2049109304
5519,11,Pattern_Practice,95,1,48,79,2049197900
5519,11,Pattern_Practice,96,1,48,59,2049410256
5519,11,Pattern_Practice,97,1,48,65,2049514728
5519,11,Pattern_Practice,98,5,42,127,2049609240
5519,11,Pattern_Practice,99,1,48,58,2049658432
5519,11,Pattern_Practice,100,1,48,48,2049769936
5519,11,Pattern_Practice,101,1,48,33,2049816836
5519,11,Pattern_Practice,102,1,48,43,2049908964
5519,11,Pattern_Practice,103,1,48,65,2050044844
5519,11,Pattern_Practice,104,5,42,127,2050108932
5519,11,Pattern_Practice,105,1,48,64,2050372356
5519,11,Pattern_Practice,106,1,48,67,2050470920
5519,11,Pattern_Practice,107,1,48,41,2050591048
5519,11,Pattern_Practice,108,1,48,68,2050601940
5519,11,Pattern_Practice,109,5,42,127,2050608488
5519,11,Pattern_Practice,110,1,48,57,2050904824
5519,11,Pattern_Practice,111,1,48,73,2050943324
5519,11,Pattern_Practice,112,1,48,69,2051098980
5519,11,Pattern_Practice,113,5,42,127,2051109260
5519,11,Pattern_Practice,114,1,48,75,2051114456
5519,11,Pattern_Practice,115,1,48,81,2051462940
5519,11,Pattern_Practice,116,1,48,92,2051481772
5519,11,Pattern_Practice,117,1,48,53,2051507104
5519,11,Pattern_Practice,118,5,42,127,2051609172
5519,11,Pattern_Practice,119,1,48,90,2051647372
5519,11,Pattern_Practice,120,1,38,19,2051657300
5519,11,Pattern_Practice,121,1,48,82,2051893036
5519,11,Pattern_Practice,122,1,48,47,2051926900
5519,11,Pattern_Practice,123,1,48,83,2052032792
5519,11,Pattern_Practice,124,5,42,127,2052108624
5519,11,Pattern_Practice,125,1,48,95,2052129152
5519,11,Pattern_Practice,126,1,48,59,2052153140
5519,11,Pattern_Practice,127,1,48,66,2052178328
5519,11,Pattern_Practice,128,1,48,81,2052482756
5519,11,Pattern_Practice,129,5,42,127,2052609408
5519,11,Pattern_Practice,130,1,48,73,2052637312
5519,11,Pattern_Practice,131,1,48,69,2052664444
5519,11,Pattern_Practice,132,1,38,70,2053029828
5519,11,Pattern_Practice,133,5,42,127,2053109072
5519,11,Pattern_Practice,134,1,38,84,2053201064
5519,11,Pattern_Practice,135,1,38,98,2053229536
5519,11,Pattern_Practice,136,1,38,62,2053248520
5519,11,Pattern_Practice,137,1,38,68,2053366904
5519,11,Pattern_Practice,138,1,38,79,2053423076
5519,11,Pattern_Practice,139,1,38,69,2053554024
5519,11,Pattern_Practice,140,5,42,127,2053608812
5519,11,Pattern_Practice,141,1,48,101,2053785848
5519,11,Pattern_Practice,142,1,48,96,2053953468
5519,11,Pattern_Practice,143,1,48,70,2054095116
5519,11,Pattern_Practice,144,5,42,127,2054108536
5519,11,Pattern_Practice,145,1,38,76,2054321476
5519,11,Pattern_Practice,146,1,38,67,2054341196
5519,11,Pattern_Practice,147,1,38,28,2054519368
5519,11,Pattern_Practice,148,1,48,15,2054527132
5519,11,Pattern_Practice,149,5,42,127,2054609216
5519,11,Pattern_Practice,150,1,48,83,2054710304
5519,11,Pattern_Practice,151,1,38,82,2054842376
5519,11,Pattern_Practice,152,1,38,60,2054864196
5519,11,Pattern_Practice,153,1,48,94,2054961660
5519,11,Pattern_Practice,154,1,38,55,2055093284
5519,11,Pattern_Practice,155,5,42,127,2055108876
5519,11,Pattern_Practice,156,1,48,76,2055216276
5519,11,Pattern_Practice,157,1,38,61,2055403092
5519,11,Pattern_Practice,158,1,48,78,2055505344
5519,11,Pattern_Practice,159,5,42,127,2055608808
5519,11,Pattern_Practice,160,1,38,70,2055839864
5519,11,Pattern_Practice,161,1,48,107,2055867964
5519,11,Pattern_Practice,162,5,42,127,2056109516
5519,11,Pattern_Practice,163,1,38,96,2056344608
5519,11,Pattern_Practice,164,5,42,127,2056609208
5519,11,Pattern_Practice,165,1,38,66,2056800324
5519,11,Pattern_Practice,166,1,48,23,2056808152
5519,11,Pattern_Practice,167,1,38,60,2056915736
5519,11,Pattern_Practice,168,5,42,127,2057108836
5519,11,Pattern_Practice,169,1,38,104,2057295912
5519,11,Pattern_Practice,170,1,38,108,2057417808
5519,11,Pattern_Practice,171,5,42,127,2057608732
5519,11,Pattern_Practice,172,1,48,120,2057799616
5519,11,Pattern_Practice,173,1,48,127,2057939916
5519,11,Pattern_Practice,174,5,42,127,2058109232
5519,11,Pattern_Practice,175,1,48,101,2058199936
5519,11,Pattern_Practice,176,1,48,119,2058456944
5519,11,Pattern_Practice,177,5,42,127,2058609128
5519,11,Pattern_Practice,178,1,38,62,2058765008
5519,11,Pattern_Practice,179,1,48,21,2058772240
5519,11,Pattern_Practice,180,1,38,88,2058907504
5519,11,Pattern_Practice,181,1,48,21,2058915044
5519,11,Pattern_Practice,182,5,42,127,2059108708
5519,11,Pattern_Practice,183,1,38,85,2059176600
5519,11,Pattern_Practice,184,1,48,21,2059183912
5519,11,Pattern_Practice,185,1,38,65,2059426920
5519,11,Pattern_Practice,186,1,48,18,2059434380
5519,11,Pattern_Practice,187,1,38,92,2059536312
5519,11,Pattern_Practice,188,5,42,127,2059608304
5519,11,Pattern_Practice,189,1,48,90,2059945332
5519,11,Pattern_Practice,190,5,42,127,2060109104
5519,11,Pattern_Practice,191,1,48,116,2060188068
5519,11,Pattern_Practice,192,1,38,97,2060445524
5519,11,Pattern_Practice,193,5,42,127,2060608852
5519,11,Pattern_Practice,194,1,48,111,2060789540
5519,11,Pattern_Practice,195,1,38,71,2060844088
5519,11,Pattern_Practice,196,1,38,51,2060868900
5519,11,Pattern_Practice,197,1,38,20,2061104560
5519,11,Pattern_Practice,198,1,38,35,2061109140
5519,11,Pattern_Practice,199,5,42,127,2061111076
5519,11,Pattern_Practice,200,1,48,16,2061115168
5519,11,Pattern_Practice,201,1,38,86,2061464004
5519,11,Pattern_Practice,202,1,38,64,2061486424
5519,11,Pattern_Practice,203,5,42,127,2061609356
5519,11,Pattern_Practice,204,1,38,116,2061841532
5519,11,Pattern_Practice,205,1,38,83,2061958716
5519,11,Pattern_Practice,206,5,42,127,2062109176
5519,11,Pattern_Practice,207,1,38,66,2062118728
5519,11,Pattern_Practice,208,1,38,100,2062301292
5519,11,Pattern_Practice,209,1,38,77,2062455448
5519,11,Pattern_Practice,210,5,42,127,2062608756
5519,11,Pattern_Practice,211,1,48,111,2062696844
5519,11,Pattern_Practice,212,1,48,100,2062844768
5519,11,Pattern_Practice,213,1,48,92,2063105744
5519,11,Pattern_Practice,214,5,42,127,2063108544
5519,11,Pattern_Practice,215,1,48,59,2063126784
5519,11,Pattern_Practice,216,1,48,82,2063330060
5519,11,Pattern_Practice,217,1,38,97,2063606980
5519,11,Pattern_Practice,218,5,42,127,2063610212
5519,11,Pattern_Practice,219,1,38,77,2063662116
5519,11,Pattern_Practice,220,1,38,45,2063691788
5519,11,Pattern_Practice,221,1,38,127,2063793112
5519,11,Pattern_Practice,222,1,38,77,2063889080
5519,11,Pattern_Practice,223,5,42,127,2064109080
5519,11,Pattern_Practice,224,1,38,95,2064120500
5519,11,Pattern_Practice,225,1,48,22,2064128188
5519,11,Pattern_Practice,226,1,38,126,2064360708
5519,11,Pattern_Practice,227,1,38,34,2064414712
5519,11,Pattern_Practice,228,5,42,127,2064608612
5519,11,Pattern_Practice,229,1,48,127,2064656108
5519,11,Pattern_Practice,230,1,48,107,2064821088
5519,11,Pattern_Practice,231,1,48,119,2065100840
5519,11,Pattern_Practice,232,5,42,127,2065109620
5519,11,Pattern_Practice,233,1,38,75,2065373868
5519,11,Pattern_Practice,234,1,38,78,2065539548
5519,11,Pattern_Practice,235,1,38,48,2065571168
5519,11,Pattern_Practice,236,5,42,127,2065609124
5519,11,Pattern_Practice,237,1,48,115,2065686680
5519,11,Pattern_Practice,238,1,38,89,2065800276
5519,11,Pattern_Practice,239,1,38,61,2065818952
5519,11,Pattern_Practice,240,1,48,59,2065840324
5519,11,Pattern_Practice,241,1,38,127,2066098588
5519,11,Pattern_Practice,242,5,42,127,2066108868
5519,11,Pattern_Practice,243,1,38,112,2066361072
5519,11,Pattern_Practice,244,5,42,127,2066608624
5519,11,Pattern_Practice,245,1,48,105,2066679508
5519,11,Pattern_Practice,246,1,48,113,2066820504
5519,11,Pattern_Practice,247,1,38,127,2067084620
5519,11,Pattern_Practice,248,5,42,127,2067109632
5519,11,Pattern_Practice,249,1,38,114,2067331396
5519,11,Pattern_Practice,250,1,48,25,2067338632
5519,11,Pattern_Practice,251,1,38,127,2067605036
5519,11,Pattern_Practice,252,5,42,127,2067609032
5519,11,Pattern_Practice,253,1,38,127,2067859440
5519,11,Pattern_Practice,254,1,38,127,2068107280
5519,11,Pattern_Practice,255,5,42,127,2068109828
5519,11,Pattern_Practice,256,1,38,90,2068359788
5519,11,Pattern_Practice,257,1,38,61,2068382356
5519,11,Pattern_Practice,258,1,48,97,2068453620
5519,11,Pattern_Practice,259,1,38,90,2068576124
5519,11,Pattern_Practice,260,5,42,127,2068609668
5519,11,Pattern_Practice,261,1,48,105,2068722880
5519,11,Pattern_Practice,262,1,38,22,2068732580
5519,11,Pattern_Practice,263,1,38,94,2068840716
5519,11,Pattern_Practice,264,5,42,127,2069109132
5519,11,Pattern_Practice,265,1,38,127,2069113444
5519,11,Pattern_Practice,266,1,38,57,2069153892
5519,11,Pattern_Practice,267,1,38,98,2069354424
5519,11,Pattern_Practice,268,1,38,68,2069372056
5519,11,Pattern_Practice,269,5,42,127,2069608836
5519,11,Pattern_Practice,270,1,48,55,2069637164
5519,11,Pattern_Practice,271,1,48,78,2069756588
5519,11,Pattern_Practice,272,1,48,91,2069971784
5519,11,Pattern_Practice,273,1,48,49,2070007968
5519,11,Pattern_Practice,274,5,42,127,2070108464
5519,11,Pattern_Practice,275,1,38,76,2070249736
5519,11,Pattern_Practice,276,1,38,68,2070475472
5519,11,Pattern_Practice,277,5,42,127,2070609552
5519,11,Pattern_Practice,278,1,38,82,2070709984
5519,11,Pattern_Practice,279,1,48,26,2070717220
5519,11,Pattern_Practice,280,1,38,100,2070936500
5519,11,Pattern_Practice,281,5,42,127,2071109104
5519,11,Pattern_Practice,282,1,38,118,2071133016
5519,11,Pattern_Practice,283,1,38,127,2071305432
5519,11,Pattern_Practice,284,1,38,127,2071474304
5519,11,Pattern_Practice,285,5,42,127,2071608756
5519,11,Pattern_Practice,286,1,38,108,2071647332
5519,11,Pattern_Practice,287,1,38,102,2071782468
5519,11,Pattern_Practice,288,1,38,50,2071906564
5519,11,Pattern_Practice,289,5,42,127,2072109604
5519,11,Pattern_Practice,290,1,38,90,2072111972
5519,11,Pattern_Practice,291,1,38,43,2072154884
5519,11,Pattern_Practice,292,1,38,62,2072176180
5519,11,Pattern_Practice,293,1,38,45,2072205928
5519,11,Pattern_Practice,294,1,38,71,2072348496
5519,11,Pattern_Practice,295,1,38,51,2072383928
5519,11,Pattern_Practice,296,1,38,67,2072557068
5519,11,Pattern_Practice,297,5,42,127,2072609332
5519,11,Pattern_Practice,298,1,38,67,2072740412
5519,11,Pattern_Practice,299,1,38,46,2072767772
5519,11,Pattern_Practice,300,1,38,61,2072933748
5519,11,Pattern_Practice,301,1,38,62,2073089676
5519,11,Pattern_Practice,302,5,42,127,2073108812
5519,11,Pattern_Practice,303,1,38,48,2073154024
5519,11,Pattern_Practice,304,1,38,61,2073270764
5519,11,Pattern_Practice,305,1,38,71,2073467408
5519,11,Pattern_Practice,306,5,42,127,2073608448
5519,11,Pattern_Practice,307,1,48,73,2073716280
5519,11,Pattern_Practice,308,1,48,79,2073891608
5519,11,Pattern_Practice,309,1,48,89,2074053900
5519,11,Pattern_Practice,310,5,42,127,2074109584
5519,11,Pattern_Practice,311,1,38,42,2074300376
5519,11,Pattern_Practice,312,1,38,63,2074367748
5519,11,Pattern_Practice,313,1,38,56,2074515328
5519,11,Pattern_Practice,314,5,42,127,2074608936
5519,11,Pattern_Practice,315,1,38,95,2074636220
5519,11,Pattern_Practice,316,1,38,85,2074822748
5519,11,Pattern_Practice,317,1,38,66,2075008028
5519,11,Pattern_Practice,318,5,42,127,2075108648
5519,11,Pattern_Practice,319,1,38,62,2075189432
5519,11,Pattern_Practice,320,1,38,48,2075403504
5519,11,Pattern_Practice,321,5,42,127,2075608392
5519,11,Pattern_Practice,322,1,38,45,2075616376
5519,11,Pattern_Practice,323,1,38,46,2075829920
5519,11,Pattern_Practice,324,1,38,42,2076058284
5519,11,Pattern_Practice,325,5,42,127,2076109328
5519,11,Pattern_Practice,326,1,38,44,2076280748
5519,11,Pattern_Practice,327,1,38,36,2076555788
5519,11,Pattern_Practice,328,5,42,127,2076609000
5519,11,Pattern_Practice,329,1,38,38,2076793068
5519,11,Pattern_Practice,330,5,42,127,2077108456
5519,11,Pattern_Practice,331,1,38,50,2077146284
5519,11,Pattern_Practice,332,1,38,41,2077501452
5519,11,Pattern_Practice,333,5,42,127,2077609400
5519,11,Pattern_Practice,334,1,38,29,2077851520
5519,11,Pattern_Practice,335,1,38,27,2077988032
5519,11,Pattern_Practice,336,5,42,127,2078108924
5519,11,Pattern_Practice,337,1,38,82,2078263460
5519,11,Pattern_Practice,338,1,38,86,2078539988
5519,11,Pattern_Practice,339,1,38,57,2078565244
5519,11,Pattern_Practice,0,9999,9999,9999,2038606916
5519,11,Pattern_Practice,1,9999,9999,9999,2039106636
5519,11,Pattern_Practice,2,9999,9999,9999,2039606324
5519,11,Pattern_Practice,3,9999,9999,9999,2040107080
5519,11,Pattern_Practice,4,9999,9999,9999,2040606840
5519,11,Pattern_Practice,5,9999,9999,9999,2041106520
5519,11,Pattern_Practice,6,9999,9999,9999,2041606220
5519,11,Pattern_Practice,7,9999,9999,9999,2042106944
5519,11,Pattern_Practice,8,9999,9999,9999,2042606668
5519,11,Pattern_Practice,9,9999,9999,9999,2043106404
5519,11,Pattern_Practice,10,9999,9999,9999,2043606124
5519,11,Pattern_Practice,11,9999,9999,9999,2044106868
5519,11,Pattern_Practice,12,9999,9999,9999,2044606552
5519,11,Pattern_Practice,13,9999,9999,9999,2045106272
5519,11,Pattern_Practice,14,9999,9999,9999,2045606976
5519,11,Pattern_Practice,15,9999,9999,9999,2046106704
5519,11,Pattern_Practice,16,9999,9999,9999,2046606460
5519,11,Pattern_Practice,17,9999,9999,9999,2047106108
5519,11,Pattern_Practice,18,9999,9999,9999,2047606880
5519,11,Pattern_Practice,19,9999,9999,9999,2048106556
5519,11,Pattern_Practice,20,9999,9999,9999,2048606288
5519,11,Pattern_Practice,21,9999,9999,9999,2049107020
5519,11,Pattern_Practice,22,9999,9999,9999,2049606764
5519,11,Pattern_Practice,23,9999,9999,9999,2050106424
5519,11,Pattern_Practice,24,9999,9999,9999,2050606200
5519,11,Pattern_Practice,25,9999,9999,9999,2051106900
5519,11,Pattern_Practice,26,9999,9999,9999,2051606588
5519,11,Pattern_Practice,27,9999,9999,9999,2052106336
5519,11,Pattern_Practice,28,9999,9999,9999,2052607048
5519,11,Pattern_Practice,29,9999,9999,9999,2053106788
5519,11,Pattern_Practice,30,9999,9999,9999,2053606452
5519,11,Pattern_Practice,31,9999,9999,9999,2054106176
5519,11,Pattern_Practice,32,9999,9999,9999,2054606932
5519,11,Pattern_Practice,33,9999,9999,9999,2055106664
5519,11,Pattern_Practice,34,9999,9999,9999,2055606372
5519,11,Pattern_Practice,35,9999,9999,9999,2056107080
5519,11,Pattern_Practice,36,9999,9999,9999,2056606776
5519,11,Pattern_Practice,37,9999,9999,9999,2057106548
5519,11,Pattern_Practice,38,9999,9999,9999,2057606224
5519,11,Pattern_Practice,39,9999,9999,9999,2058106944
5519,11,Pattern_Practice,40,9999,9999,9999,2058606692
5519,11,Pattern_Practice,41,9999,9999,9999,2059106424
5519,11,Pattern_Practice,42,9999,9999,9999,2059606092
5519,11,Pattern_Practice,43,9999,9999,9999,2060106820
5519,11,Pattern_Practice,44,9999,9999,9999,2060606568
5519,11,Pattern_Practice,45,9999,9999,9999,2061106272
5519,11,Pattern_Practice,46,9999,9999,9999,2061606996
5519,11,Pattern_Practice,47,9999,9999,9999,2062106744
5519,11,Pattern_Practice,48,9999,9999,9999,2062606392
5519,11,Pattern_Practice,49,9999,9999,9999,2063106112
5519,11,Pattern_Practice,50,9999,9999,9999,2063606844
5519,11,Pattern_Practice,51,9999,9999,9999,2064106572
5519,11,Pattern_Practice,52,9999,9999,9999,2064606324
5519,11,Pattern_Practice,53,9999,9999,9999,2065107036
5519,11,Pattern_Practice,54,9999,9999,9999,2065606764
5519,11,Pattern_Practice,55,9999,9999,9999,2066106436
5519,11,Pattern_Practice,56,9999,9999,9999,2066606188
5519,11,Pattern_Practice,57,9999,9999,9999,2067106900
5519,11,Pattern_Practice,58,9999,9999,9999,2067606600
5519,11,Pattern_Practice,59,9999,9999,9999,2068106352
5519,11,Pattern_Practice,60,9999,9999,9999,2068607084
5519,11,Pattern_Practice,61,9999,9999,9999,2069106768
5519,11,Pattern_Practice,62,9999,9999,9999,2069606472
5519,11,Pattern_Practice,63,9999,9999,9999,2070106176
5519,11,Pattern_Practice,64,9999,9999,9999,2070606968
5519,11,Pattern_Practice,65,9999,9999,9999,2071106668
5519,11,Pattern_Practice,66,9999,9999,9999,2071606396
5519,11,Pattern_Practice,67,9999,9999,9999,2072107092
5519,11,Pattern_Practice,68,9999,9999,9999,2072606824
5519,11,Pattern_Practice,69,9999,9999,9999,2073106524
5519,11,Pattern_Practice,70,9999,9999,9999,2073606236
5519,11,Pattern_Practice,71,9999,9999,9999,2074106996
5519,11,Pattern_Practice,72,9999,9999,9999,2074606648
5519,11,Pattern_Practice,73,9999,9999,9999,2075106360
5519,11,Pattern_Practice,74,9999,9999,9999,2075606104
5519,11,Pattern_Practice,75,9999,9999,9999,2076106820
5519,11,Pattern_Practice,76,9999,9999,9999,2076606568
5519,11,Pattern_Practice,77,9999,9999,9999,2077106244
5519,11,Pattern_Practice,78,9999,9999,9999,2077606964
5519,11,Pattern_Practice,79,9999,9999,9999,2078106712
5520,13,Improv_Metronome,0,5,42,127,2150133008
5520,13,Improv_Metronome,1,5,42,127,2150632872
5520,13,Improv_Metronome,2,1,38,46,2150775292
5520,13,Improv_Metronome,3,5,42,127,2151132420
5520,13,Improv_Metronome,4,1,38,71,2151185900
5520,13,Improv_Metronome,5,1,38,73,2151573280
5520,13,Improv_Metronome,6,5,42,127,2151633524
5520,13,Improv_Metronome,7,1,38,40,2151936836
5520,13,Improv_Metronome,8,1,48,15,2151944084
5520,13,Improv_Metronome,9,1,38,31,2152063340
5520,13,Improv_Metronome,10,5,42,127,2152132860
5520,13,Improv_Metronome,11,1,38,61,2152312436
5520,13,Improv_Metronome,12,1,38,39,2152349364
5520,13,Improv_Metronome,13,1,38,47,2152469340
5520,13,Improv_Metronome,14,1,38,73,2152612936
5520,13,Improv_Metronome,15,5,42,127,2152632716
5520,13,Improv_Metronome,16,1,38,51,2152637840
5520,13,Improv_Metronome,17,1,38,94,2152897544
5520,13,Improv_Metronome,18,5,42,127,2153133568
5520,13,Improv_Metronome,19,1,38,78,2153185680
5520,13,Improv_Metronome,20,1,38,71,2153607792
5520,13,Improv_Metronome,21,5,42,127,2153633108
5520,13,Improv_Metronome,22,1,38,60,2153992372
5520,13,Improv_Metronome,23,1,38,55,2154019952
5520,13,Improv_Metronome,24,5,42,127,2154132912
5520,13,Improv_Metronome,25,1,38,76,2154193476
5520,13,Improv_Metronome,26,1,38,59,2154473896
5520,13,Improv_Metronome,27,1,38,35,2154517204
5520,13,Improv_Metronome,28,5,42,127,2154632488
5520,13,Improv_Metronome,29,1,38,33,2154655428
5520,13,Improv_Metronome,30,1,48,14,2154662884
5520,13,Improv_Metronome,31,1,38,69,2154769540
5520,13,Improv_Metronome,32,1,38,50,2154792404
5520,13,Improv_Metronome,33,1,38,87,2155029364
5520,13,Improv_Metronome,34,5,42,127,2155133580
5520,13,Improv_Metronome,35,1,38,77,2155279212
5520,13,Improv_Metronome,36,1,38,49,2155311580
5520,13,Improv_Metronome,37,1,38,62,2155488228
5520,13,Improv_Metronome,38,1,48,20,2155495840
5520,13,Improv_Metronome,39,5,42,127,2155632884
5520,13,Improv_Metronome,40,1,38,47,2155650440
5520,13,Improv_Metronome,41,1,48,18,2155657972
5520,13,Improv_Metronome,42,1,48,60,2155970976
5520,13,Improv_Metronome,43,5,42,127,2156132660
5520,13,Improv_Metronome,44,1,48,112,2156219480
5520,13,Improv_Metronome,45,1,48,102,2156362564
5520,13,Improv_Metronome,46,1,48,109,2156629448
5520,13,Improv_Metronome,47,5,42,127,2156632472
5520,13,Improv_Metronome,48,1,48,109,2156881088
5520,13,Improv_Metronome,49,5,42,127,2157133424
5520,13,Improv_Metronome,50,1,38,53,2157253752
5520,13,Improv_Metronome,51,1,38,49,2157380912
5520,13,Improv_Metronome,52,1,48,21,2157388520
5520,13,Improv_Metronome,53,5,42,127,2157632752
5520,13,Improv_Metronome,54,1,38,108,2157682316
5520,13,Improv_Metronome,55,1,38,108,2157952712
5520,13,Improv_Metronome,56,5,42,127,2158132572
5520,13,Improv_Metronome,57,1,38,116,2158229412
5520,13,Improv_Metronome,58,1,38,66,2158252728
5520,13,Improv_Metronome,59,1,38,58,2158335580
5520,13,Improv_Metronome,60,1,38,91,2158465708
5520,13,Improv_Metronome,61,5,42,127,2158633448
5520,13,Improv_Metronome,62,1,38,127,2158707780
5520,13,Improv_Metronome,63,1,38,109,2159020064
5520,13,Improv_Metronome,64,5,42,127,2159132972
5520,13,Improv_Metronome,65,1,48,117,2159444136
5520,13,Improv_Metronome,66,1,48,85,2159583608
5520,13,Improv_Metronome,67,5,42,127,2159632808
5520,13,Improv_Metronome,68,1,48,54,2159722976
5520,13,Improv_Metronome,69,1,48,80,2159900852
5520,13,Improv_Metronome,70,5,42,127,2160132396
5520,13,Improv_Metronome,71,1,38,105,2160190412
5520,13,Improv_Metronome,72,1,38,62,2160462984
5520,13,Improv_Metronome,73,1,48,69,2160520632
5520,13,Improv_Metronome,74,5,42,127,2160633264
5520,13,Improv_Metronome,75,1,48,54,2160689220
5520,13,Improv_Metronome,76,1,38,73,2160768412
5520,13,Improv_Metronome,77,1,38,114,2161002052
5520,13,Improv_Metronome,78,5,42,127,2161133188
5520,13,Improv_Metronome,79,1,48,73,2161330588
5520,13,Improv_Metronome,80,1,48,79,2161571508
5520,13,Improv_Metronome,81,5,42,127,2161632580
5520,13,Improv_Metronome,82,1,48,73,2161780968
5520,13,Improv_Metronome,83,1,48,45,2161976868
5520,13,Improv_Metronome,84,1,48,68,2161997560
5520,13,Improv_Metronome,85,5,42,127,2162133264
5520,13,Improv_Metronome,86,1,48,43,2162155456
5520,13,Improv_Metronome,87,1,48,73,2162202884
5520,13,Improv_Metronome,88,1,48,47,2162360384
5520,13,Improv_Metronome,89,1,48,69,2162369788
5520,13,Improv_Metronome,90,1,48,20,2162551472
5520,13,Improv_Metronome,91,5,42,127,2162633108
5520,13,Improv_Metronome,92,1,48,49,2162660600
5520,13,Improv_Metronome,93,1,48,26,2162717072
5520,13,Improv_Metronome,94,1,48,42,2162799476
5520,13,Improv_Metronome,95,1,48,20,2162880160
5520,13,Improv_Metronome,96,1,48,44,2162942520
5520,13,Improv_Metronome,97,1,48,28,2163025028
5520,13,Improv_Metronome,98,1,48,28,2163093292
5520,13,Improv_Metronome,99,5,42,127,2163132896
5520,13,Improv_Metronome,100,1,48,33,2163216884
5520,13,Improv_Metronome,101,1,48,32,2163339156
5520,13,Improv_Metronome,102,1,48,34,2163367336
5520,13,Improv_Metronome,103,1,48,38,2163490232
5520,13,Improv_Metronome,104,1,48,18,2163583108
5520,13,Improv_Metronome,105,1,48,35,2163632040
5520,13,Improv_Metronome,106,5,42,127,2163633312
5520,13,Improv_Metronome,107,1,48,31,2163768384
5520,13,Improv_Metronome,108,1,48,33,2163907712
5520,13,Improv_Metronome,109,1,48,43,2164048108
5520,13,Improv_Metronome,110,5,42,127,2164133332
5520,13,Improv_Metronome,111,1,48,52,2164196800
5520,13,Improv_Metronome,112,1,48,40,2164276160
5520,13,Improv_Metronome,113,1,48,52,2164362608
5520,13,Improv_Metronome,114,1,48,47,2164445008
5520,13,Improv_Metronome,115,1,48,52,2164488844
5520,13,Improv_Metronome,116,1,48,46,2164605284
5520,13,Improv_Metronome,117,5,42,127,2164633064
5520,13,Improv_Metronome,118,1,48,54,2164641552
5520,13,Improv_Metronome,119,1,48,58,2164760640
5520,13,Improv_Metronome,120,1,48,62,2164777076
5520,13,Improv_Metronome,121,1,48,66,2164918940
5520,13,Improv_Metronome,122,1,48,65,2165066664
5520,13,Improv_Metronome,123,5,42,127,2165132524
5520,13,Improv_Metronome,124,1,48,59,2165208184
5520,13,Improv_Metronome,125,1,38,63,2165579280
5520,13,Improv_Metronome,126,5,42,127,2165633244
5520,13,Improv_Metronome,127,1,38,83,2165784096
5520,13,Improv_Metronome,128,1,38,76,2166008848
5520,13,Improv_Metronome,129,5,42,127,2166133052
5520,13,Improv_Metronome,130,1,38,61,2166251432
5520,13,Improv_Metronome,131,1,38,51,2166332596
5520,13,Improv_Metronome,132,1,38,69,2166478428
5520,13,Improv_Metronome,133,1,38,43,2166549188
5520,13,Improv_Metronome,134,5,42,127,2166632696
5520,13,Improv_Metronome,135,1,38,59,2166747476
5520,13,Improv_Metronome,136,1,38,43,2166789512
5520,13,Improv_Metronome,137,1,38,64,2166974092
5520,13,Improv_Metronome,138,5,42,127,2167132484
5520,13,Improv_Metronome,139,1,38,53,2167201124
5520,13,Improv_Metronome,140,1,38,27,2167434720
5520,13,Improv_Metronome,141,5,42,127,2167633200
5520,13,Improv_Metronome,142,1,38,24,2167670352
5520,13,Improv_Metronome,143,1,38,53,2167904024
5520,13,Improv_Metronome,144,5,42,127,2168133100
5520,13,Improv_Metronome,145,1,38,54,2168146760
5520,13,Improv_Metronome,146,1,48,48,2168442068
5520,13,Improv_Metronome,147,5,42,127,2168632624
5520,13,Improv_Metronome,148,1,48,59,2168664688
5520,13,Improv_Metronome,149,1,38,58,2168920352
5520,13,Improv_Metronome,150,5,42,127,2169133416
5520,13,Improv_Metronome,151,1,38,51,2169152620
5520,13,Improv_Metronome,152,1,38,40,2169410152
5520,13,Improv_Metronome,153,5,42,127,2169633016
5520,13,Improv_Metronome,154,1,38,56,2169635460
5520,13,Improv_Metronome,155,1,38,59,2169915436
5520,13,Improv_Metronome,156,1,38,46,2170090136
5520,13,Improv_Metronome,157,5,42,127,2170132980
5520,13,Improv_Metronome,158,1,38,39,2170213428
5520,13,Improv_Metronome,159,1,38,65,2170296436
5520,13,Improv_Metronome,160,1,38,42,2170463156
5520,13,Improv_Metronome,161,5,42,127,2170632544
5520,13,Improv_Metronome,162,1,38,77,2170701936
5520,13,Improv_Metronome,163,1,38,84,2170972104
5520,13,Improv_Metronome,164,5,42,127,2171133240
5520,13,Improv_Metronome,165,1,38,46,2171226344
5520,13,Improv_Metronome,166,1,48,18,2171234096
5520,13,Improv_Metronome,167,1,38,93,2171493548
5520,13,Improv_Metronome,168,5,42,127,2171633064
5520,13,Improv_Metronome,169,1,48,75,2171780792
5520,13,Improv_Metronome,170,1,48,68,2172057320
5520,13,Improv_Metronome,171,5,42,127,2172132604
5520,13,Improv_Metronome,172,1,48,59,2172307092
5520,13,Improv_Metronome,173,1,48,69,2172555800
5520,13,Improv_Metronome,174,5,42,127,2172632352
5520,13,Improv_Metronome,175,1,38,83,2172843492
5520,13,Improv_Metronome,176,1,38,85,2173095636
5520,13,Improv_Metronome,177,5,42,127,2173133072
5520,13,Improv_Metronome,178,1,38,62,2173345336
5520,13,Improv_Metronome,179,1,48,20,2173352568
5520,13,Improv_Metronome,180,1,48,78,2173611272
5520,13,Improv_Metronome,181,5,42,127,2173632996
5520,13,Improv_Metronome,182,1,48,93,2173863508
5520,13,Improv_Metronome,183,5,42,127,2174132452
5520,13,Improv_Metronome,184,1,38,76,2174166536
5520,13,Improv_Metronome,185,1,48,19,2174173696
5520,13,Improv_Metronome,186,1,38,45,2174413768
5520,13,Improv_Metronome,187,1,48,20,2174421308
5520,13,Improv_Metronome,188,5,42,127,2174633296
5520,13,Improv_Metronome,189,1,48,81,2174673812
5520,13,Improv_Metronome,190,1,48,85,2174906964
5520,13,Improv_Metronome,191,5,42,127,2175132972
5520,13,Improv_Metronome,192,1,38,93,2175160248
5520,13,Improv_Metronome,193,1,38,90,2175399156
5520,13,Improv_Metronome,194,5,42,127,2175632864
5520,13,Improv_Metronome,195,1,48,96,2175661344
5520,13,Improv_Metronome,196,1,48,62,2175878780
5520,13,Improv_Metronome,197,1,38,87,2176104000
5520,13,Improv_Metronome,198,5,42,127,2176132532
5520,13,Improv_Metronome,199,1,38,47,2176208340
5520,13,Improv_Metronome,200,1,38,71,2176336320
5520,13,Improv_Metronome,201,1,38,46,2176413560
5520,13,Improv_Metronome,202,1,38,65,2176555908
5520,13,Improv_Metronome,203,5,42,127,2176633132
5520,13,Improv_Metronome,204,1,38,37,2176654112
5520,13,Improv_Metronome,205,1,38,51,2176781796
5520,13,Improv_Metronome,206,1,38,24,2176894196
5520,13,Improv_Metronome,207,1,38,27,2176947128
5520,13,Improv_Metronome,208,1,38,24,2177085208
5520,13,Improv_Metronome,209,1,38,40,2177109496
5520,13,Improv_Metronome,210,5,42,127,2177133016
5520,13,Improv_Metronome,211,1,38,25,2177261180
5520,13,Improv_Metronome,212,1,38,16,2177370616
5520,13,Improv_Metronome,213,1,38,16,2177497824
5520,13,Improv_Metronome,214,5,42,127,2177632504
5520,13,Improv_Metronome,215,1,38,18,2177638692
5520,13,Improv_Metronome,216,1,38,31,2177784224
5520,13,Improv_Metronome,217,1,38,21,2177921036
5520,13,Improv_Metronome,218,1,38,38,2178073396
5520,13,Improv_Metronome,219,5,42,127,2178133272
5520,13,Improv_Metronome,220,1,38,15,2178249616
5520,13,Improv_Metronome,221,1,38,26,2178267552
5520,13,Improv_Metronome,222,1,38,20,2178480576
5520,13,Improv_Metronome,223,1,38,37,2178492524
5520,13,Improv_Metronome,224,5,42,127,2178633112
5520,13,Improv_Metronome,225,1,38,28,2178651712
5520,13,Improv_Metronome,226,1,38,27,2178797172
5520,13,Improv_Metronome,227,1,38,26,2178939220
5520,13,Improv_Metronome,228,1,38,29,2178991700
5520,13,Improv_Metronome,229,1,38,33,2179104052
5520,13,Improv_Metronome,230,5,42,127,2179132732
5520,13,Improv_Metronome,231,1,38,21,2179179068
5520,13,Improv_Metronome,232,1,38,35,2179266860
5520,13,Improv_Metronome,233,1,38,42,2179373524
5520,13,Improv_Metronome,234,1,38,38,2179510828
5520,13,Improv_Metronome,235,5,42,127,2179632420
5520,13,Improv_Metronome,236,1,38,46,2179683564
5520,13,Improv_Metronome,237,1,38,54,2179784216
5520,13,Improv_Metronome,238,1,38,54,2179935316
5520,13,Improv_Metronome,239,1,38,66,2180121332
5520,13,Improv_Metronome,240,5,42,127,2180133188
5520,13,Improv_Metronome,241,1,38,55,2180143248
5520,13,Improv_Metronome,242,1,38,32,2180353952
5520,13,Improv_Metronome,243,1,38,53,2180542048
5520,13,Improv_Metronome,244,1,38,48,2180571796
5520,13,Improv_Metronome,245,5,42,127,2180632892
5520,13,Improv_Metronome,246,1,38,58,2180741236
5520,13,Improv_Metronome,247,1,38,44,2180945964
5520,13,Improv_Metronome,248,1,38,55,2180974812
5520,13,Improv_Metronome,249,5,42,127,2181132752
5520,13,Improv_Metronome,250,1,38,47,2181135272
5520,13,Improv_Metronome,251,1,38,60,2181238924
5520,13,Improv_Metronome,252,1,38,33,2181355736
5520,13,Improv_Metronome,253,1,38,58,2181445796
5520,13,Improv_Metronome,254,1,38,28,2181501048
5520,13,Improv_Metronome,255,5,42,127,2181633332
5520,13,Improv_Metronome,256,1,38,43,2181650960
5520,13,Improv_Metronome,257,1,38,59,2181680708
5520,13,Improv_Metronome,258,1,38,52,2181839256
5520,13,Improv_Metronome,259,1,38,35,2181875740
5520,13,Improv_Metronome,260,1,38,62,2181901620
5520,13,Improv_Metronome,261,1,38,44,2182037508
5520,13,Improv_Metronome,262,1,38,55,2182064784
5520,13,Improv_Metronome,263,5,42,127,2182133108
5520,13,Improv_Metronome,264,1,38,17,2182267212
5520,13,Improv_Metronome,265,1,48,57,2182429448
5520,13,Improv_Metronome,266,1,48,51,2182589572
5520,13,Improv_Metronome,267,5,42,127,2182632684
5520,13,Improv_Metronome,268,1,48,54,2182713828
5520,13,Improv_Metronome,269,1,38,70,2183002476
5520,13,Improv_Metronome,270,5,42,127,2183132644
5520,13,Improv_Metronome,271,1,38,47,2183196076
5520,13,Improv_Metronome,272,1,38,85,2183230008
5520,13,Improv_Metronome,273,1,38,44,2183392748
5520,13,Improv_Metronome,274,1,38,72,2183455956
5520,13,Improv_Metronome,275,5,42,127,2183633244
5520,13,Improv_Metronome,276,1,38,49,2183684112
5520,13,Improv_Metronome,277,1,38,85,2183696200
5520,13,Improv_Metronome,278,1,38,127,2184011772
5520,13,Improv_Metronome,279,5,42,127,2184132968
5520,13,Improv_Metronome,280,1,38,127,2184478636
5520,13,Improv_Metronome,281,5,42,127,2184632664
5520,13,Improv_Metronome,282,1,38,127,2185014608
5520,13,Improv_Metronome,283,5,42,127,2185133404
5520,13,Improv_Metronome,284,1,48,103,2185512652
5520,13,Improv_Metronome,285,5,42,127,2185633024
5520,13,Improv_Metronome,286,1,48,106,2185951740
5520,13,Improv_Metronome,287,1,38,22,2185961216
5520,13,Improv_Metronome,288,5,42,127,2186132820
5520,13,Improv_Metronome,289,1,48,116,2186403964
5520,13,Improv_Metronome,290,5,42,127,2186632960
5520,13,Improv_Metronome,291,1,38,127,2186921684
5520,13,Improv_Metronome,292,5,42,127,2187133332
5520,13,Improv_Metronome,293,1,38,125,2187595532
5520,13,Improv_Metronome,294,5,42,127,2187632892
5520,13,Improv_Metronome,295,5,42,127,2188132816
5520,13,Improv_Metronome,296,1,38,124,2188217316
5520,13,Improv_Metronome,297,1,38,65,2188461536
5520,13,Improv_Metronome,298,1,38,127,2188572236
5520,13,Improv_Metronome,299,5,42,127,2188632708
5520,13,Improv_Metronome,300,1,38,89,2188637908
5520,13,Improv_Metronome,301,1,38,97,2188755096
5520,13,Improv_Metronome,302,1,38,84,2188834604
5520,13,Improv_Metronome,303,1,38,84,2188993680
5520,13,Improv_Metronome,304,1,38,79,2189036364
5520,13,Improv_Metronome,305,5,42,127,2189133136
5520,13,Improv_Metronome,306,1,38,82,2189176556
5520,13,Improv_Metronome,307,1,38,88,2189226128
5520,13,Improv_Metronome,308,1,38,97,2189369892
5520,13,Improv_Metronome,309,1,38,57,2189401436
5520,13,Improv_Metronome,310,1,38,81,2189504708
5520,13,Improv_Metronome,311,1,38,34,2189572256
5520,13,Improv_Metronome,312,5,42,127,2189632948
5520,13,Improv_Metronome,313,1,48,50,2189862708
5520,13,Improv_Metronome,314,1,48,37,2189921704
5520,13,Improv_Metronome,315,1,38,65,2190059460
5520,13,Improv_Metronome,316,1,48,70,2190089776
5520,13,Improv_Metronome,317,5,42,127,2190132740
5520,13,Improv_Metronome,318,1,38,54,2190249064
5520,13,Improv_Metronome,319,1,48,73,2190260336
5520,13,Improv_Metronome,320,1,48,65,2190395548
5520,13,Improv_Metronome,321,1,38,52,2190426864
5520,13,Improv_Metronome,322,1,48,62,2190541932
5520,13,Improv_Metronome,323,1,38,19,2190576464
5520,13,Improv_Metronome,324,5,42,127,2190633520
5520,13,Improv_Metronome,325,1,38,70,2190808032
5520,13,Improv_Metronome,326,1,38,75,2190997496
5520,13,Improv_Metronome,327,1,38,36,2191092096
5520,13,Improv_Metronome,328,5,42,127,2191133068
5520,13,Improv_Metronome,329,1,38,64,2191206856
5520,13,Improv_Metronome,330,1,38,34,2191259192
5520,13,Improv_Metronome,331,1,38,33,2191304724
5520,13,Improv_Metronome,332,1,38,69,2191437492
5520,13,Improv_Metronome,333,1,38,39,2191477336
5520,13,Improv_Metronome,334,5,42,127,2191632732
5520,13,Improv_Metronome,335,1,38,45,2191691724
5520,13,Improv_Metronome,336,1,38,82,2191757304
5520,13,Improv_Metronome,337,1,38,49,2192078564
5520,13,Improv_Metronome,338,5,42,127,2192132624
5520,13,Improv_Metronome,339,1,38,62,2192166620
5520,13,Improv_Metronome,340,1,38,48,2192587732
5520,13,Improv_Metronome,341,5,42,127,2192633392
5520,13,Improv_Metronome,342,1,38,91,2192638000
5520,13,Improv_Metronome,343,1,38,63,2192977876
5520,13,Improv_Metronome,344,1,38,102,2193038140
5520,13,Improv_Metronome,345,5,42,127,2193132872
5520,13,Improv_Metronome,346,1,38,66,2193425644
5520,13,Improv_Metronome,347,5,42,127,2193632552
5520,13,Improv_Metronome,348,1,38,61,2193640756
5520,13,Improv_Metronome,349,1,38,53,2193780780
5520,13,Improv_Metronome,350,1,38,54,2193810528
5520,13,Improv_Metronome,351,1,38,44,2193936260
5520,13,Improv_Metronome,352,1,38,35,2193968184
5520,13,Improv_Metronome,353,1,38,51,2194070408
5520,13,Improv_Metronome,354,1,38,46,2194105692
5520,13,Improv_Metronome,355,5,42,127,2194133324
5520,13,Improv_Metronome,356,1,38,104,2194369076
5520,13,Improv_Metronome,357,1,38,64,2194396656
5520,13,Improv_Metronome,358,5,42,127,2194633204
5520,13,Improv_Metronome,359,1,38,105,2194677768
5520,13,Improv_Metronome,360,1,38,95,2194802304
5520,13,Improv_Metronome,361,1,38,67,2195128948
5520,13,Improv_Metronome,362,5,42,127,2195132724
5520,13,Improv_Metronome,363,1,38,73,2195228004
5520,13,Improv_Metronome,364,1,38,50,2195424776
5520,13,Improv_Metronome,365,1,38,61,2195492764
5520,13,Improv_Metronome,366,5,42,127,2195632508
5520,13,Improv_Metronome,367,1,38,38,2195685448
5520,13,Improv_Metronome,368,1,38,60,2195705692
5520,13,Improv_Metronome,369,1,38,56,2195827020
5520,13,Improv_Metronome,370,5,42,127,2196133428
5520,13,Improv_Metronome,371,1,38,127,2196173952
5520,13,Improv_Metronome,372,1,38,93,2196404332
5520,13,Improv_Metronome,373,1,38,100,2196538144
5520,13,Improv_Metronome,374,5,42,127,2196632856
5520,13,Improv_Metronome,375,1,38,60,2196878044
5520,13,Improv_Metronome,376,1,38,89,2197004756
5520,13,Improv_Metronome,377,1,38,43,2197043776
5520,13,Improv_Metronome,378,5,42,127,2197132744
5520,13,Improv_Metronome,379,1,38,48,2197216032
5520,13,Improv_Metronome,380,1,38,61,2197244356
5520,13,Improv_Metronome,381,1,38,60,2197485884
5520,13,Improv_Metronome,382,5,42,127,2197633500
5520,13,Improv_Metronome,383,1,38,79,2197636252
5520,13,Improv_Metronome,384,1,38,127,2198012628
5520,13,Improv_Metronome,385,5,42,127,2198133028
5520,13,Improv_Metronome,386,1,38,101,2198221116
5520,13,Improv_Metronome,387,1,38,113,2198356796
5520,13,Improv_Metronome,388,5,42,127,2198632920
5520,13,Improv_Metronome,389,1,38,70,2198658556
5520,13,Improv_Metronome,390,1,38,91,2198824604
5520,13,Improv_Metronome,391,1,38,51,2199019208
5520,13,Improv_Metronome,392,1,38,86,2199132644
5520,13,Improv_Metronome,393,5,42,127,2199135408
5520,13,Improv_Metronome,394,1,38,56,2199313260
5520,13,Improv_Metronome,395,1,38,40,2199459920
5520,13,Improv_Metronome,396,5,42,127,2199633416
5520,13,Improv_Metronome,397,1,38,68,2199836196
5520,13,Improv_Metronome,398,1,38,74,2200033040
5520,13,Improv_Metronome,399,5,42,127,2200132868
5520,13,Improv_Metronome,400,1,38,69,2200174352
5520,13,Improv_Metronome,401,1,38,81,2200480652
5520,13,Improv_Metronome,402,5,42,127,2200632540
5520,13,Improv_Metronome,403,1,38,74,2200680384
5520,13,Improv_Metronome,404,1,38,100,2200804228
5520,13,Improv_Metronome,405,1,38,64,2200826496
5520,13,Improv_Metronome,406,1,38,48,2201106340
5520,13,Improv_Metronome,407,1,38,67,2201128236
5520,13,Improv_Metronome,408,5,42,127,2201133432
5520,13,Improv_Metronome,409,1,38,63,2201363868
5520,13,Improv_Metronome,410,1,38,62,2201533188
5520,13,Improv_Metronome,411,5,42,127,2201633460
5520,13,Improv_Metronome,412,1,38,51,2201712124
5520,13,Improv_Metronome,413,1,38,55,2201814576
5520,13,Improv_Metronome,414,1,38,46,2201925656
5520,13,Improv_Metronome,415,1,38,48,2201969912
5520,13,Improv_Metronome,416,1,38,55,2202111432
5520,13,Improv_Metronome,417,1,38,58,2202125772
5520,13,Improv_Metronome,418,5,42,127,2202132840
5520,13,Improv_Metronome,419,1,38,127,2202458420
5520,13,Improv_Metronome,420,5,42,127,2202632520
5520,13,Improv_Metronome,421,1,38,114,2202695624
5520,13,Improv_Metronome,422,1,38,99,2202832852
5520,13,Improv_Metronome,423,5,42,127,2203133364
5520,13,Improv_Metronome,424,1,38,92,2203225120
5520,13,Improv_Metronome,425,1,38,45,2203463800
5520,13,Improv_Metronome,426,5,42,127,2203633084
5520,13,Improv_Metronome,427,1,38,64,2203643756
5520,13,Improv_Metronome,428,1,38,42,2203767772
5520,13,Improv_Metronome,429,1,38,54,2203837544
5520,13,Improv_Metronome,430,1,38,42,2203970908
5520,13,Improv_Metronome,431,1,38,45,2203999980
5520,13,Improv_Metronome,432,5,42,127,2204132764
5520,13,Improv_Metronome,433,1,38,108,2204368528
5520,13,Improv_Metronome,434,1,38,47,2204411368
5520,13,Improv_Metronome,435,1,38,97,2204609808
5520,13,Improv_Metronome,436,5,42,127,2204632284
5520,13,Improv_Metronome,437,1,38,87,2204734140
5520,13,Improv_Metronome,438,1,48,77,2205078512
5520,13,Improv_Metronome,439,5,42,127,2205133224
5520,13,Improv_Metronome,440,1,48,72,2205329184
5520,13,Improv_Metronome,441,1,48,68,2205599356
5520,13,Improv_Metronome,442,5,42,127,2205633048
5520,13,Improv_Metronome,443,1,48,89,2205741040
5520,13,Improv_Metronome,444,5,42,127,2206132580
5520,13,Improv_Metronome,445,1,38,127,2206199796
5520,13,Improv_Metronome,446,1,38,116,2206445284
5520,13,Improv_Metronome,447,1,38,95,2206588600
5520,13,Improv_Metronome,448,5,42,127,2206633288
5520,13,Improv_Metronome,449,1,48,91,2206968740
5520,13,Improv_Metronome,450,5,42,127,2207133192
5520,13,Improv_Metronome,451,1,48,101,2207194360
5520,13,Improv_Metronome,452,1,48,88,2207417252
5520,13,Improv_Metronome,453,1,38,19,2207426812
5520,13,Improv_Metronome,454,1,48,53,2207539804
5520,13,Improv_Metronome,455,1,48,38,2207614132
5520,13,Improv_Metronome,456,5,42,127,2207632864
5520,13,Improv_Metronome,457,1,38,109,2207964052
5520,13,Improv_Metronome,458,5,42,127,2208132468
5520,13,Improv_Metronome,459,1,38,80,2208211132
5520,13,Improv_Metronome,460,1,38,76,2208327296
5520,13,Improv_Metronome,461,1,38,41,2208565828
5520,13,Improv_Metronome,462,5,42,127,2208633180
5520,13,Improv_Metronome,463,1,38,58,2208695972
5520,13,Improv_Metronome,464,1,38,26,2208776080
5520,13,Improv_Metronome,465,1,38,43,2208895440
5520,13,Improv_Metronome,466,1,38,27,2208974108
5520,13,Improv_Metronome,467,5,42,127,2209133168
5520,13,Improv_Metronome,468,1,38,50,2209151844
5520,13,Improv_Metronome,469,1,38,40,2209363228
5520,13,Improv_Metronome,470,1,38,58,2209423720
5520,13,Improv_Metronome,471,5,42,127,2209632672
5520,13,Improv_Metronome,472,1,38,47,2209642148
5520,13,Improv_Metronome,473,1,38,49,2209845148
5520,13,Improv_Metronome,474,1,38,59,2209905268
5520,13,Improv_Metronome,475,1,38,44,2210121212
5520,13,Improv_Metronome,476,5,42,127,2210133364
5520,13,Improv_Metronome,477,1,38,62,2210140284
5520,13,Improv_Metronome,478,1,38,60,2210278860
5520,13,Improv_Metronome,479,1,38,57,2210295444
5520,13,Improv_Metronome,480,1,48,127,2210574692
5520,13,Improv_Metronome,481,5,42,127,2210633288
5520,13,Improv_Metronome,482,1,48,127,2210771776
5520,13,Improv_Metronome,483,1,48,57,2210992056
5520,13,Improv_Metronome,484,5,42,127,2211132872
5520,13,Improv_Metronome,485,1,48,87,2211155140
5520,13,Improv_Metronome,486,1,38,89,2211494720
5520,13,Improv_Metronome,487,5,42,127,2211632472
5520,13,Improv_Metronome,488,1,38,64,2211749208
5520,13,Improv_Metronome,489,1,38,86,2211815008
5520,13,Improv_Metronome,490,1,38,56,2212015544
5520,13,Improv_Metronome,491,1,38,86,2212098276
5520,13,Improv_Metronome,492,5,42,127,2212133312
5520,13,Improv_Metronome,493,1,38,36,2212150248
5520,13,Improv_Metronome,494,1,38,44,2212285312
5520,13,Improv_Metronome,495,1,48,89,2212510384
5520,13,Improv_Metronome,496,1,38,19,2212519860
5520,13,Improv_Metronome,497,5,42,127,2212633120
5520,13,Improv_Metronome,498,1,48,109,2212759732
5520,13,Improv_Metronome,499,1,48,124,2212967676
5520,13,Improv_Metronome,500,5,42,127,2213132644
5520,13,Improv_Metronome,501,1,38,89,2213303232
5520,13,Improv_Metronome,502,1,38,63,2213365444
5520,13,Improv_Metronome,503,1,38,92,2213535164
5520,13,Improv_Metronome,504,1,38,58,2213626096
5520,13,Improv_Metronome,505,5,42,127,2213633336
5520,13,Improv_Metronome,506,1,38,72,2213752372
5520,13,Improv_Metronome,507,1,38,22,2213901076
5520,13,Improv_Metronome,508,1,48,111,2214089248
5520,13,Improv_Metronome,509,5,42,127,2214133260
5520,13,Improv_Metronome,510,1,48,78,2214325028
5520,13,Improv_Metronome,511,1,48,65,2214571416
5520,13,Improv_Metronome,512,5,42,127,2214633080
5520,13,Improv_Metronome,513,1,48,54,2214640676
5520,13,Improv_Metronome,514,1,48,91,2214792816
5520,13,Improv_Metronome,515,1,48,62,2214901252
5520,13,Improv_Metronome,516,1,48,63,2215045088
5520,13,Improv_Metronome,517,1,48,57,2215096228
5520,13,Improv_Metronome,518,5,42,127,2215132392
5520,13,Improv_Metronome,519,1,48,66,2215251380
5520,13,Improv_Metronome,520,1,48,61,2215448628
5520,13,Improv_Metronome,521,5,42,127,2215633320
5520,13,Improv_Metronome,522,1,48,30,2215771772
5520,13,Improv_Metronome,523,1,48,71,2216058928
5520,13,Improv_Metronome,524,5,42,127,2216133080
5520,13,Improv_Metronome,525,1,38,65,2216430912
5520,13,Improv_Metronome,526,1,38,63,2216558896
5520,13,Improv_Metronome,527,5,42,127,2216632680
5520,13,Improv_Metronome,528,1,38,94,2216915104
5520,13,Improv_Metronome,529,1,38,46,2216953152
5520,13,Improv_Metronome,530,5,42,127,2217133456
5520,13,Improv_Metronome,531,1,38,74,2217247304
5520,13,Improv_Metronome,532,1,38,47,2217276304
5520,13,Improv_Metronome,533,1,38,94,2217280392
5520,13,Improv_Metronome,534,5,42,127,2217633184
5520,13,Improv_Metronome,535,1,38,113,2217785028
5520,13,Improv_Metronome,536,5,42,127,2218133028
5520,13,Improv_Metronome,537,1,38,111,2218349048
5520,13,Improv_Metronome,538,5,42,127,2218632428
5520,13,Improv_Metronome,539,1,38,127,2218899904
5520,13,Improv_Metronome,540,1,38,85,2218916708
5520,13,Improv_Metronome,541,5,42,127,2219133144
5520,13,Improv_Metronome,542,1,48,103,2219425008
5520,13,Improv_Metronome,543,5,42,127,2219633136
5520,13,Improv_Metronome,544,1,48,118,2219753088
5520,13,Improv_Metronome,545,1,48,59,2220019896
5520,13,Improv_Metronome,0,9999,9999,9999,2150130792
5520,13,Improv_Metronome,1,9999,9999,9999,2150630512
5520,13,Improv_Metronome,2,9999,9999,9999,2151130204
5520,13,Improv_Metronome,3,9999,9999,9999,2151630940
5520,13,Improv_Metronome,4,9999,9999,9999,2152130648
5520,13,Improv_Metronome,5,9999,9999,9999,2152630352
5520,13,Improv_Metronome,6,9999,9999,9999,2153131056
5520,13,Improv_Metronome,7,9999,9999,9999,2153630820
5520,13,Improv_Metronome,8,9999,9999,9999,2154130552
5520,13,Improv_Metronome,9,9999,9999,9999,2154630200
5520,13,Improv_Metronome,10,9999,9999,9999,2155130992
5520,13,Improv_Metronome,11,9999,9999,9999,2155630672
5520,13,Improv_Metronome,12,9999,9999,9999,2156130372
5520,13,Improv_Metronome,13,9999,9999,9999,2156630112
5520,13,Improv_Metronome,14,9999,9999,9999,2157130836
5520,13,Improv_Metronome,15,9999,9999,9999,2157630536
5520,13,Improv_Metronome,16,9999,9999,9999,2158130284
5520,13,Improv_Metronome,17,9999,9999,9999,2158631012
5520,13,Improv_Metronome,18,9999,9999,9999,2159130684
5520,13,Improv_Metronome,19,9999,9999,9999,2159630448
5520,13,Improv_Metronome,20,9999,9999,9999,2160130108
5520,13,Improv_Metronome,21,9999,9999,9999,2160630904
5520,13,Improv_Metronome,22,9999,9999,9999,2161130604
5520,13,Improv_Metronome,23,9999,9999,9999,2161630292
5520,13,Improv_Metronome,24,9999,9999,9999,2162131052
5520,13,Improv_Metronome,25,9999,9999,9999,2162630748
5520,13,Improv_Metronome,26,9999,9999,9999,2163130460
5520,13,Improv_Metronome,27,9999,9999,9999,2163630144
5520,13,Improv_Metronome,28,9999,9999,9999,2164130896
5520,13,Improv_Metronome,29,9999,9999,9999,2164630628
5520,13,Improv_Metronome,30,9999,9999,9999,2165130312
5520,13,Improv_Metronome,31,9999,9999,9999,2165631032
5520,13,Improv_Metronome,32,9999,9999,9999,2166130764
5520,13,Improv_Metronome,33,9999,9999,9999,2166630484
5520,13,Improv_Metronome,34,9999,9999,9999,2167130196
5520,13,Improv_Metronome,35,9999,9999,9999,2167630912
5520,13,Improv_Metronome,36,9999,9999,9999,2168130660
5520,13,Improv_Metronome,37,9999,9999,9999,2168630336
5520,13,Improv_Metronome,38,9999,9999,9999,2169131128
5520,13,Improv_Metronome,39,9999,9999,9999,2169630804
5520,13,Improv_Metronome,40,9999,9999,9999,2170130544
5520,13,Improv_Metronome,41,9999,9999,9999,2170630256
5520,13,Improv_Metronome,42,9999,9999,9999,2171130952
5520,13,Improv_Metronome,43,9999,9999,9999,2171630700
5520,13,Improv_Metronome,44,9999,9999,9999,2172130392
5520,13,Improv_Metronome,45,9999,9999,9999,2172630064
5520,13,Improv_Metronome,46,9999,9999,9999,2173130860
5520,13,Improv_Metronome,47,9999,9999,9999,2173630560
5520,13,Improv_Metronome,48,9999,9999,9999,2174130240
5520,13,Improv_Metronome,49,9999,9999,9999,2174631012
5520,13,Improv_Metronome,50,9999,9999,9999,2175130684
5520,13,Improv_Metronome,51,9999,9999,9999,2175630428
5520,13,Improv_Metronome,52,9999,9999,9999,2176130168
5520,13,Improv_Metronome,53,9999,9999,9999,2176630848
5520,13,Improv_Metronome,54,9999,9999,9999,2177130580
5520,13,Improv_Metronome,55,9999,9999,9999,2177630292
5520,13,Improv_Metronome,56,9999,9999,9999,2178131060
5520,13,Improv_Metronome,57,9999,9999,9999,2178630748
5520,13,Improv_Metronome,58,9999,9999,9999,2179130444
5520,13,Improv_Metronome,59,9999,9999,9999,2179630132
5520,13,Improv_Metronome,60,9999,9999,9999,2180130900
5520,13,Improv_Metronome,61,9999,9999,9999,2180630604
5520,13,Improv_Metronome,62,9999,9999,9999,2181130316
5520,13,Improv_Metronome,63,9999,9999,9999,2181631044
5520,13,Improv_Metronome,64,9999,9999,9999,2182130748
5520,13,Improv_Metronome,65,9999,9999,9999,2182630472
5520,13,Improv_Metronome,66,9999,9999,9999,2183130208
5520,13,Improv_Metronome,67,9999,9999,9999,2183630956
5520,13,Improv_Metronome,68,9999,9999,9999,2184130680
5520,13,Improv_Metronome,69,9999,9999,9999,2184630376
5520,13,Improv_Metronome,70,9999,9999,9999,2185131116
5520,13,Improv_Metronome,71,9999,9999,9999,2185630812
5520,13,Improv_Metronome,72,9999,9999,9999,2186130532
5520,13,Improv_Metronome,73,9999,9999,9999,2186630228
5520,13,Improv_Metronome,74,9999,9999,9999,2187130968
5520,13,Improv_Metronome,75,9999,9999,9999,2187630676
5520,13,Improv_Metronome,76,9999,9999,9999,2188130380
5520,13,Improv_Metronome,77,9999,9999,9999,2188630124
5520,13,Improv_Metronome,78,9999,9999,9999,2189130848
5520,13,Improv_Metronome,79,9999,9999,9999,2189630584
5520,13,Improv_Metronome,80,9999,9999,9999,2190130232
5520,13,Improv_Metronome,81,9999,9999,9999,2190631008
5520,13,Improv_Metronome,82,9999,9999,9999,2191130708
5520,13,Improv_Metronome,83,9999,9999,9999,2191630448
5520,13,Improv_Metronome,84,9999,9999,9999,2192130116
5520,13,Improv_Metronome,85,9999,9999,9999,2192630884
5520,13,Improv_Metronome,86,9999,9999,9999,2193130584
5520,13,Improv_Metronome,87,9999,9999,9999,2193630264
5520,13,Improv_Metronome,88,9999,9999,9999,2194131040
5520,13,Improv_Metronome,89,9999,9999,9999,2194630768
5520,13,Improv_Metronome,90,9999,9999,9999,2195130436
5520,13,Improv_Metronome,91,9999,9999,9999,2195630148
5520,13,Improv_Metronome,92,9999,9999,9999,2196130920
5520,13,Improv_Metronome,93,9999,9999,9999,2196630584
5520,13,Improv_Metronome,94,9999,9999,9999,2197130308
5520,13,Improv_Metronome,95,9999,9999,9999,2197631064
5520,13,Improv_Metronome,96,9999,9999,9999,2198130736
5520,13,Improv_Metronome,97,9999,9999,9999,2198630484
5520,13,Improv_Metronome,98,9999,9999,9999,2199130208
5520,13,Improv_Metronome,99,9999,9999,9999,2199630904
5520,13,Improv_Metronome,100,9999,9999,9999,2200130652
5520,13,Improv_Metronome,101,9999,9999,9999,2200630324
5520,13,Improv_Metronome,102,9999,9999,9999,2201131068
5520,13,Improv_Metronome,103,9999,9999,9999,2201630816
5520,13,Improv_Metronome,104,9999,9999,9999,2202130552
5520,13,Improv_Metronome,105,9999,9999,9999,2202630232
5520,13,Improv_Metronome,106,9999,9999,9999,2203131000
5520,13,Improv_Metronome,107,9999,9999,9999,2203630648
5520,13,Improv_Metronome,108,9999,9999,9999,2204130404
5520,13,Improv_Metronome,109,9999,9999,9999,2204630068
5520,13,Improv_Metronome,110,9999,9999,9999,2205130864
5520,13,Improv_Metronome,111,9999,9999,9999,2205630536
5520,13,Improv_Metronome,112,9999,9999,9999,2206130292
5520,13,Improv_Metronome,113,9999,9999,9999,2206631000
5520,13,Improv_Metronome,114,9999,9999,9999,2207130680
5520,13,Improv_Metronome,115,9999,9999,9999,2207630428
5520,13,Improv_Metronome,116,9999,9999,9999,2208130108
5520,13,Improv_Metronome,117,9999,9999,9999,2208630896
5520,13,Improv_Metronome,118,9999,9999,9999,2209130580
5520,13,Improv_Metronome,119,9999,9999,9999,2209630308
5520,13,Improv_Metronome,120,9999,9999,9999,2210131004
5520,13,Improv_Metronome,121,9999,9999,9999,2210630704
5520,13,Improv_Metronome,122,9999,9999,9999,2211130436
5520,13,Improv_Metronome,123,9999,9999,9999,2211630184
5520,13,Improv_Metronome,124,9999,9999,9999,2212130876
5520,13,Improv_Metronome,125,9999,9999,9999,2212630612
5520,13,Improv_Metronome,126,9999,9999,9999,2213130356
5520,13,Improv_Metronome,127,9999,9999,9999,2213631048
5520,13,Improv_Metronome,128,9999,9999,9999,2214130752
5520,13,Improv_Metronome,129,9999,9999,9999,2214630496
5520,13,Improv_Metronome,130,9999,9999,9999,2215130180
5520,13,Improv_Metronome,131,9999,9999,9999,2215630956
5520,13,Improv_Metronome,132,9999,9999,9999,2216130644
5520,13,Improv_Metronome,133,9999,9999,9999,2216630392
5520,13,Improv_Metronome,134,9999,9999,9999,2217131096
5520,13,Improv_Metronome,135,9999,9999,9999,2217630824
5520,13,Improv_Metronome,136,9999,9999,9999,2218130520
5520,13,Improv_Metronome,137,9999,9999,9999,2218630212
5520,13,Improv_Metronome,138,9999,9999,9999,2219130932
5520,13,Improv_Metronome,139,9999,9999,9999,2219630700
5521,14,Improv_Melody,0,2,48,80,2282672476
5521,14,Improv_Melody,1,2,72,80,2282675300
5521,14,Improv_Melody,2,5,42,127,2282676784
5521,14,Improv_Melody,3,5,42,110,2283170300
5521,14,Improv_Melody,4,5,42,110,2283670020
5521,14,Improv_Melody,5,5,42,110,2284169520
5521,14,Improv_Melody,6,5,42,127,2284670288
5521,14,Improv_Melody,7,5,42,110,2285170156
5521,14,Improv_Melody,8,5,42,110,2285669732
5521,14,Improv_Melody,9,5,42,110,2286169452
5521,14,Improv_Melody,10,2,43,80,2286672572
5521,14,Improv_Melody,11,2,67,80,2286674800
5521,14,Improv_Melody,12,5,42,127,2286677492
5521,14,Improv_Melody,13,5,42,110,2287169808
5521,14,Improv_Melody,14,5,42,110,2287669680
5521,14,Improv_Melody,15,5,42,110,2288170300
5521,14,Improv_Melody,16,5,42,127,2288670020
5521,14,Improv_Melody,17,5,42,110,2289169668
5521,14,Improv_Melody,18,5,42,110,2289669388
5521,14,Improv_Melody,19,5,42,110,2290170084
5521,14,Improv_Melody,20,2,45,80,2290672428
5521,14,Improv_Melody,21,2,69,80,2290674580
5521,14,Improv_Melody,22,5,42,127,2290677124
5521,14,Improv_Melody,23,5,42,110,2291169736
5521,14,Improv_Melody,24,5,42,110,2291670432
5521,14,Improv_Melody,25,5,42,110,2292170076
5521,14,Improv_Melody,26,5,42,127,2292669800
5521,14,Improv_Melody,27,5,42,110,2293169596
5521,14,Improv_Melody,28,5,42,110,2293670288
5521,14,Improv_Melody,29,5,42,110,2294170088
5521,14,Improv_Melody,30,2,41,80,2294672084
5521,14,Improv_Melody,31,2,65,80,2294674088
5521,14,Improv_Melody,32,5,42,127,2294676628
5521,14,Improv_Melody,33,5,42,110,2295170364
5521,14,Improv_Melody,34,5,42,110,2295670164
5521,14,Improv_Melody,35,5,42,110,2296170032
5521,14,Improv_Melody,36,5,42,127,2296669608
5521,14,Improv_Melody,37,5,42,110,2297170300
5521,14,Improv_Melody,38,5,42,110,2297669948
5521,14,Improv_Melody,39,5,42,110,2298170040
5521,14,Improv_Melody,40,1,38,32,2298578664
5521,14,Improv_Melody,41,2,48,80,2298671964
5521,14,Improv_Melody,42,2,72,80,2298674112
5521,14,Improv_Melody,43,1,38,43,2298677684
5521,14,Improv_Melody,44,5,42,127,2298679696
5521,14,Improv_Melody,45,1,38,32,2298900864
5521,14,Improv_Melody,46,1,38,45,2299077512
5521,14,Improv_Melody,47,5,42,110,2299170100
5521,14,Improv_Melody,48,1,38,46,2299241496
5521,14,Improv_Melody,49,1,38,39,2299398720
5521,14,Improv_Melody,50,1,38,41,2299655432
5521,14,Improv_Melody,51,5,42,110,2299669980
5521,14,Improv_Melody,52,1,38,52,2299739580
5521,14,Improv_Melody,53,1,38,55,2300002648
5521,14,Improv_Melody,54,5,42,110,2300169792
5521,14,Improv_Melody,55,1,38,49,2300254664
5521,14,Improv_Melody,56,1,38,29,2300633964
5521,14,Improv_Melody,57,5,42,127,2300670308
5521,14,Improv_Melody,58,1,38,46,2300701984
5521,14,Improv_Melody,59,1,38,44,2300932140
5521,14,Improv_Melody,60,1,38,52,2301132952
5521,14,Improv_Melody,61,5,42,110,2301169936
5521,14,Improv_Melody,62,1,38,21,2301204104
5521,14,Improv_Melody,63,1,38,51,2301273128
5521,14,Improv_Melody,64,1,38,56,2301559600
5521,14,Improv_Melody,65,5,42,110,2301669880
5521,14,Improv_Melody,66,1,38,46,2301676668
5521,14,Improv_Melody,67,1,38,58,2301921252
5521,14,Improv_Melody,68,1,38,35,2301977056
5521,14,Improv_Melody,69,1,38,48,2302153184
5521,14,Improv_Melody,70,5,42,110,2302169380
5521,14,Improv_Melody,71,1,38,46,2302580780
5521,14,Improv_Melody,72,2,43,80,2302672704
5521,14,Improv_Melody,73,2,67,80,2302675980
5521,14,Improv_Melody,74,5,42,127,2302678216
5521,14,Improv_Melody,75,1,38,43,2302833800
5521,14,Improv_Melody,76,1,38,51,2303067916
5521,14,Improv_Melody,77,5,42,110,2303169892
5521,14,Improv_Melody,78,1,38,47,2303242748
5521,14,Improv_Melody,79,1,38,56,2303550916
5521,14,Improv_Melody,80,5,42,110,2303669944
5521,14,Improv_Melody,81,1,38,51,2303719440
5521,14,Improv_Melody,82,1,38,57,2303920120
5521,14,Improv_Melody,83,1,38,53,2304146160
5521,14,Improv_Melody,84,5,42,110,2304170288
5521,14,Improv_Melody,85,1,38,47,2304270128
5521,14,Improv_Melody,86,1,48,54,2304563188
5521,14,Improv_Melody,87,5,42,127,2304670100
5521,14,Improv_Melody,88,1,48,53,2304715628
5521,14,Improv_Melody,89,1,48,61,2304976904
5521,14,Improv_Melody,90,5,42,110,2305169852
5521,14,Improv_Melody,91,1,48,53,2305232212
5521,14,Improv_Melody,92,1,48,20,2305391236
5521,14,Improv_Melody,93,5,42,110,2305669756
5521,14,Improv_Melody,94,1,48,42,2305676320
5521,14,Improv_Melody,95,1,48,22,2305816116
5521,14,Improv_Melody,96,1,48,51,2306045524
5521,14,Improv_Melody,97,5,42,110,2306170160
5521,14,Improv_Melody,98,1,48,51,2306289816
5521,14,Improv_Melody,99,2,45,80,2306672284
5521,14,Improv_Melody,100,2,69,80,2306674512
5521,14,Improv_Melody,101,1,38,49,2306675860
5521,14,Improv_Melody,102,5,42,127,2306679660
5521,14,Improv_Melody,103,1,38,43,2306763324
5521,14,Improv_Melody,104,1,38,51,2306955708
5521,14,Improv_Melody,105,5,42,110,2307169828
5521,14,Improv_Melody,106,1,38,52,2307171088
5521,14,Improv_Melody,107,1,38,56,2307305316
5521,14,Improv_Melody,108,1,38,36,2307581124
5521,14,Improv_Melody,109,5,42,110,2307670248
5521,14,Improv_Melody,110,1,38,62,2307685168
5521,14,Improv_Melody,111,1,38,44,2307714616
5521,14,Improv_Melody,112,1,38,49,2307949784
5521,14,Improv_Melody,113,5,42,110,2308170036
5521,14,Improv_Melody,114,1,38,68,2308219380
5521,14,Improv_Melody,115,1,38,51,2308595844
5521,14,Improv_Melody,116,5,42,127,2308669732
5521,14,Improv_Melody,117,1,38,49,2308719956
5521,14,Improv_Melody,118,1,38,55,2308998356
5521,14,Improv_Melody,119,5,42,110,2309169468
5521,14,Improv_Melody,120,1,38,40,2309241248
5521,14,Improv_Melody,121,1,38,50,2309328144
5521,14,Improv_Melody,122,5,42,110,2309670264
5521,14,Improv_Melody,123,1,38,51,2309685356
5521,14,Improv_Melody,124,1,38,63,2309808672
5521,14,Improv_Melody,125,1,38,35,2310037328
5521,14,Improv_Melody,126,5,42,110,2310169996
5521,14,Improv_Melody,127,1,38,70,2310268856
5521,14,Improv_Melody,128,1,48,56,2310645464
5521,14,Improv_Melody,129,2,41,80,2310671964
5521,14,Improv_Melody,130,2,65,80,2310674268
5521,14,Improv_Melody,131,5,42,127,2310676956
5521,14,Improv_Melody,132,1,48,30,2310794504
5521,14,Improv_Melody,133,1,48,57,2311060492
5521,14,Improv_Melody,134,5,42,110,2311170488
5521,14,Improv_Melody,135,1,48,59,2311313632
5521,14,Improv_Melody,136,1,48,46,2311443180
5521,14,Improv_Melody,137,5,42,110,2311670216
5521,14,Improv_Melody,138,1,48,50,2311713748
5521,14,Improv_Melody,139,1,48,41,2311857864
5521,14,Improv_Melody,140,1,48,58,2312098120
5521,14,Improv_Melody,141,5,42,110,2312169812
5521,14,Improv_Melody,142,1,48,52,2312341384
5521,14,Improv_Melody,143,1,38,33,2312587700
5521,14,Improv_Melody,144,5,42,127,2312669568
5521,14,Improv_Melody,145,1,38,49,2312738968
5521,14,Improv_Melody,146,1,38,36,2312842836
5521,14,Improv_Melody,147,1,38,57,2313068204
5521,14,Improv_Melody,148,1,38,43,2313095336
5521,14,Improv_Melody,149,5,42,110,2313170244
5521,14,Improv_Melody,150,1,38,42,2313310556
5521,14,Improv_Melody,151,1,38,58,2313645652
5521,14,Improv_Melody,152,5,42,110,2313670000
5521,14,Improv_Melody,153,1,38,46,2313740820
5521,14,Improv_Melody,154,1,38,48,2313840204
5521,14,Improv_Melody,155,1,38,54,2314077092
5521,14,Improv_Melody,156,5,42,110,2314169732
5521,14,Improv_Melody,157,1,38,62,2314320212
5521,14,Improv_Melody,158,1,38,40,2314629352
5521,14,Improv_Melody,159,2,48,80,2314671988
5521,14,Improv_Melody,160,2,72,80,2314674216
5521,14,Improv_Melody,161,5,42,127,2314676752
5521,14,Improv_Melody,162,1,38,51,2314723984
5521,14,Improv_Melody,163,1,38,43,2314851140
5521,14,Improv_Melody,164,1,38,36,2314886124
5521,14,Improv_Melody,165,1,38,61,2315145604
5521,14,Improv_Melody,166,5,42,110,2315170104
5521,14,Improv_Melody,167,1,38,49,2315363444
5521,14,Improv_Melody,168,1,38,60,2315454824
5521,14,Improv_Melody,169,5,42,110,2315669916
5521,14,Improv_Melody,170,1,38,50,2315747612
5521,14,Improv_Melody,171,1,38,57,2315860852
5521,14,Improv_Melody,172,1,38,51,2316123620
5521,14,Improv_Melody,173,5,42,110,2316169436
5521,14,Improv_Melody,174,1,38,66,2316354320
5521,14,Improv_Melody,175,5,42,127,2316670392
5521,14,Improv_Melody,176,1,48,51,2316710460
5521,14,Improv_Melody,177,1,48,38,2316855196
5521,14,Improv_Melody,178,1,48,55,2317095080
5521,14,Improv_Melody,179,5,42,110,2317169988
5521,14,Improv_Melody,180,1,48,66,2317368564
5521,14,Improv_Melody,181,5,42,110,2317669672
5521,14,Improv_Melody,182,1,48,33,2317733528
5521,14,Improv_Melody,183,1,48,67,2317814212
5521,14,Improv_Melody,184,1,48,41,2318008288
5521,14,Improv_Melody,185,5,42,110,2318169304
5521,14,Improv_Melody,186,1,48,72,2318229644
5521,14,Improv_Melody,187,2,43,80,2318672704
5521,14,Improv_Melody,188,2,67,80,2318674928
5521,14,Improv_Melody,189,5,42,127,2318677468
5521,14,Improv_Melody,190,1,38,54,2318689344
5521,14,Improv_Melody,191,1,38,68,2318793812
5521,14,Improv_Melody,192,1,38,32,2318846844
5521,14,Improv_Melody,193,1,38,49,2318997768
5521,14,Improv_Melody,194,5,42,110,2319169852
5521,14,Improv_Melody,195,1,38,70,2319210892
5521,14,Improv_Melody,196,1,38,58,2319233164
5521,14,Improv_Melody,197,1,38,50,2319414772
5521,14,Improv_Melody,198,5,42,110,2319669660
5521,14,Improv_Melody,199,1,38,62,2319763428
5521,14,Improv_Melody,200,1,38,45,2319791980
5521,14,Improv_Melody,201,1,38,51,2320069860
5521,14,Improv_Melody,202,5,42,110,2320170432
5521,14,Improv_Melody,203,1,38,72,2320343864
5521,14,Improv_Melody,204,1,38,48,2320372416
5521,14,Improv_Melody,205,1,38,56,2320666628
5521,14,Improv_Melody,206,5,42,127,2320670032
5521,14,Improv_Melody,207,1,38,59,2320772616
5521,14,Improv_Melody,208,1,38,43,2320799972
5521,14,Improv_Melody,209,1,38,52,2320859936
5521,14,Improv_Melody,210,1,38,60,2321102432
5521,14,Improv_Melody,211,5,42,110,2321169740
5521,14,Improv_Melody,212,1,38,55,2321350264
5521,14,Improv_Melody,213,5,42,110,2321669352
5521,14,Improv_Melody,214,1,38,53,2321702464
5521,14,Improv_Melody,215,1,38,49,2321847028
5521,14,Improv_Melody,216,1,38,57,2321943820
5521,14,Improv_Melody,217,5,42,110,2322170428
5521,14,Improv_Melody,218,1,38,58,2322172068
5521,14,Improv_Melody,219,1,38,64,2322409516
5521,14,Improv_Melody,220,2,45,80,2322672360
5521,14,Improv_Melody,221,2,69,80,2322674440
5521,14,Improv_Melody,222,5,42,127,2322677128
5521,14,Improv_Melody,223,1,38,50,2322749536
5521,14,Improv_Melody,224,1,38,54,2322870008
5521,14,Improv_Melody,225,1,38,59,2323165392
5521,14,Improv_Melody,226,5,42,110,2323169620
5521,14,Improv_Melody,227,1,38,54,2323398716
5521,14,Improv_Melody,228,1,38,50,2323472088
5521,14,Improv_Melody,229,5,42,110,2323670328
5521,14,Improv_Melody,230,1,38,43,2323753804
5521,14,Improv_Melody,231,1,38,51,2323853788
5521,14,Improv_Melody,232,5,42,110,2324170304
5521,14,Improv_Melody,233,1,38,55,2324181428
5521,14,Improv_Melody,234,1,38,56,2324427292
5521,14,Improv_Melody,235,5,42,127,2324669760
5521,14,Improv_Melody,236,1,38,49,2324756756
5521,14,Improv_Melody,237,1,38,45,2324871544
5521,14,Improv_Melody,238,1,38,45,2324958292
5521,14,Improv_Melody,239,5,42,110,2325169420
5521,14,Improv_Melody,240,1,38,54,2325219280
5521,14,Improv_Melody,241,1,38,47,2325446148
5521,14,Improv_Melody,242,5,42,110,2325670216
5521,14,Improv_Melody,243,1,38,55,2325830664
5521,14,Improv_Melody,244,1,38,53,2325922340
5521,14,Improv_Melody,245,1,38,52,2326032292
5521,14,Improv_Melody,246,5,42,110,2326170248
5521,14,Improv_Melody,247,1,38,56,2326277660
5521,14,Improv_Melody,248,1,38,64,2326552996
5521,14,Improv_Melody,249,2,41,80,2326672128
5521,14,Improv_Melody,250,2,65,80,2326674060
5521,14,Improv_Melody,251,5,42,127,2326676600
5521,14,Improv_Melody,252,1,38,46,2326833076
5521,14,Improv_Melody,253,1,38,50,2326965452
5521,14,Improv_Melody,254,1,38,43,2327068448
5521,14,Improv_Melody,255,5,42,110,2327170496
5521,14,Improv_Melody,256,1,38,54,2327297284
5521,14,Improv_Melody,257,1,38,51,2327537580
5521,14,Improv_Melody,258,1,38,51,2327639908
5521,14,Improv_Melody,259,5,42,110,2327670316
5521,14,Improv_Melody,260,1,38,47,2327941816
5521,14,Improv_Melody,261,1,38,56,2328078100
5521,14,Improv_Melody,262,5,42,110,2328169844
5521,14,Improv_Melody,263,1,38,47,2328318604
5521,14,Improv_Melody,264,1,38,60,2328556668
5521,14,Improv_Melody,265,5,42,127,2328669508
5521,14,Improv_Melody,266,1,38,49,2328918216
5521,14,Improv_Melody,267,1,38,55,2329048564
5521,14,Improv_Melody,268,1,38,32,2329106836
5521,14,Improv_Melody,269,5,42,110,2329170300
5521,14,Improv_Melody,270,1,38,48,2329358556
5521,14,Improv_Melody,271,1,38,43,2329609052
5521,14,Improv_Melody,272,5,42,110,2329670204
5521,14,Improv_Melody,273,1,38,44,2329814304
5521,14,Improv_Melody,274,1,38,26,2330105068
5521,14,Improv_Melody,275,5,42,110,2330169584
5521,14,Improv_Melody,276,1,38,33,2330317048
5521,14,Improv_Melody,277,1,38,44,2330560512
5521,14,Improv_Melody,278,2,48,80,2330672200
5521,14,Improv_Melody,279,2,72,80,2330674120
5521,14,Improv_Melody,280,5,42,127,2330676736
5521,14,Improv_Melody,281,1,38,55,2330820628
5521,14,Improv_Melody,282,1,38,44,2331166144
5521,14,Improv_Melody,283,5,42,110,2331170296
5521,14,Improv_Melody,284,1,38,54,2331270784
5521,14,Improv_Melody,285,1,38,34,2331348924
5521,14,Improv_Melody,286,1,38,54,2331616180
5521,14,Improv_Melody,287,5,42,110,2331670024
5521,14,Improv_Melody,288,1,38,41,2331816072
5521,14,Improv_Melody,289,1,38,57,2331928268
5521,14,Improv_Melody,290,5,42,110,2332169764
5521,14,Improv_Melody,291,1,38,44,2332243492
5521,14,Improv_Melody,292,1,38,44,2332332028
5521,14,Improv_Melody,293,1,38,48,2332557924
5521,14,Improv_Melody,294,1,38,24,2332620136
5521,14,Improv_Melody,295,5,42,127,2332670460
5521,14,Improv_Melody,296,1,38,56,2332812164
5521,14,Improv_Melody,297,1,38,38,2332847972
5521,14,Improv_Melody,298,1,38,40,2333164516
5521,14,Improv_Melody,299,5,42,110,2333170092
5521,14,Improv_Melody,300,1,38,57,2333259168
5521,14,Improv_Melody,301,1,38,43,2333287644
5521,14,Improv_Melody,302,1,38,44,2333424200
5521,14,Improv_Melody,303,5,42,110,2333669956
5521,14,Improv_Melody,304,1,38,51,2333700404
5521,14,Improv_Melody,305,1,38,43,2333955616
5521,14,Improv_Melody,306,1,38,38,2334129724
5521,14,Improv_Melody,307,5,42,110,2334169332
5521,14,Improv_Melody,308,1,38,45,2334407620
5521,14,Improv_Melody,309,1,38,33,2334528724
5521,14,Improv_Melody,310,2,43,80,2334672924
5521,14,Improv_Melody,311,2,67,80,2334674920
5521,14,Improv_Melody,312,5,42,127,2334677460
5521,14,Improv_Melody,313,1,38,20,2334848228
5521,14,Improv_Melody,314,1,38,44,2335055640
5521,14,Improv_Melody,315,5,42,110,2335170032
5521,14,Improv_Melody,316,1,38,46,2335397716
5521,14,Improv_Melody,317,1,38,48,2335502664
5521,14,Improv_Melody,318,1,38,46,2335638996
5521,14,Improv_Melody,319,5,42,110,2335669480
5521,14,Improv_Melody,320,1,38,53,2335895732
5521,14,Improv_Melody,321,1,38,31,2335952180
5521,14,Improv_Melody,322,1,38,52,2336153760
5521,14,Improv_Melody,323,5,42,110,2336170328
5521,14,Improv_Melody,324,1,38,47,2336259924
5521,14,Improv_Melody,325,1,38,52,2336548952
5521,14,Improv_Melody,326,1,38,37,2336582284
5521,14,Improv_Melody,327,1,38,48,2336634772
5521,14,Improv_Melody,328,5,42,127,2336669968
5521,14,Improv_Melody,329,1,38,41,2336799056
5521,14,Improv_Melody,330,1,38,52,2336992388
5521,14,Improv_Melody,331,1,38,28,2337048484
5521,14,Improv_Melody,332,5,42,110,2337169908
5521,14,Improv_Melody,333,1,38,41,2337216636
5521,14,Improv_Melody,334,1,38,43,2337272212
5521,14,Improv_Melody,335,1,48,35,2337642460
5521,14,Improv_Melody,336,5,42,110,2337669428
5521,14,Improv_Melody,337,1,48,18,2337746060
5521,14,Improv_Melody,338,1,48,42,2338052976
5521,14,Improv_Melody,339,5,42,110,2338170212
5521,14,Improv_Melody,340,1,48,36,2338319212
5521,14,Improv_Melody,341,1,38,35,2338632920
5521,14,Improv_Melody,342,2,45,80,2338672404
5521,14,Improv_Melody,343,2,69,80,2338674636
5521,14,Improv_Melody,344,5,42,127,2338677176
5521,14,Improv_Melody,345,1,48,42,2338710284
5521,14,Improv_Melody,346,1,38,44,2338866140
5521,14,Improv_Melody,347,1,48,47,2339102580
5521,14,Improv_Melody,348,1,48,29,2339158064
5521,14,Improv_Melody,349,5,42,110,2339169768
5521,14,Improv_Melody,350,1,38,49,2339598072
5521,14,Improv_Melody,351,5,42,110,2339670368
5521,14,Improv_Melody,352,1,38,42,2339869392
5521,14,Improv_Melody,353,1,38,50,2340077160
5521,14,Improv_Melody,354,1,38,32,2340135352
5521,14,Improv_Melody,355,5,42,110,2340169948
5521,14,Improv_Melody,356,1,38,44,2340289064
5521,14,Improv_Melody,357,1,38,50,2340374712
5521,14,Improv_Melody,358,1,38,28,2340432800
5521,14,Improv_Melody,359,1,38,41,2340623916
5521,14,Improv_Melody,360,5,42,127,2340669884
5521,14,Improv_Melody,361,1,38,51,2340827520
5521,14,Improv_Melody,362,1,38,24,2340957820
5521,14,Improv_Melody,363,1,38,46,2340962808
5521,14,Improv_Melody,364,5,42,110,2341169596
5521,14,Improv_Melody,365,1,38,51,2341298972
5521,14,Improv_Melody,366,1,38,53,2341486872
5521,14,Improv_Melody,367,5,42,110,2341670248
5521,14,Improv_Melody,368,1,38,50,2341724228
5521,14,Improv_Melody,369,1,38,55,2341934784
5521,14,Improv_Melody,370,5,42,110,2342170072
5521,14,Improv_Melody,371,1,38,46,2342272896
5521,14,Improv_Melody,372,1,38,48,2342352088
5521,14,Improv_Melody,373,1,38,44,2342493608
5521,14,Improv_Melody,374,2,41,80,2342672080
5521,14,Improv_Melody,375,2,65,80,2342674464
5521,14,Improv_Melody,376,5,42,127,2342677220
5521,14,Improv_Melody,377,1,38,52,2342717364
5521,14,Improv_Melody,378,1,38,32,2342771048
5521,14,Improv_Melody,379,1,38,48,2342995816
5521,14,Improv_Melody,380,5,42,110,2343170668
5521,14,Improv_Melody,381,1,38,46,2343311716
5521,14,Improv_Melody,382,1,38,43,2343420476
5521,14,Improv_Melody,383,1,38,46,2343662496
5521,14,Improv_Melody,384,5,42,110,2343670192
5521,14,Improv_Melody,385,1,38,51,2343942140
5521,14,Improv_Melody,386,5,42,110,2344169852
5521,14,Improv_Melody,387,1,38,31,2344303588
5521,14,Improv_Melody,388,1,38,47,2344430652
5521,14,Improv_Melody,389,1,38,50,2344636048
5521,14,Improv_Melody,390,5,42,127,2344669524
5521,14,Improv_Melody,391,1,38,40,2344892632
5521,14,Improv_Melody,392,1,38,46,2344954344
5521,14,Improv_Melody,393,5,42,110,2345170232
5521,14,Improv_Melody,394,1,38,20,2345282808
5521,14,Improv_Melody,395,1,38,51,2345321228
5521,14,Improv_Melody,396,1,38,42,2345585268
5521,14,Improv_Melody,397,1,38,40,2345652640
5521,14,Improv_Melody,398,5,42,110,2345669880
5521,14,Improv_Melody,399,1,38,33,2345787900
5521,14,Improv_Melody,400,1,38,51,2345846368
5521,14,Improv_Melody,401,5,42,110,2346169696
5521,14,Improv_Melody,402,1,38,38,2346247488
5521,14,Improv_Melody,403,1,38,51,2346258084
5521,14,Improv_Melody,404,2,48,80,2346672100
5521,14,Improv_Melody,405,2,72,80,2346674256
5521,14,Improv_Melody,406,5,42,127,2346676792
5521,14,Improv_Melody,407,1,38,45,2346705640
5521,14,Improv_Melody,408,1,38,38,2347110920
5521,14,Improv_Melody,409,1,38,51,2347143512
5521,14,Improv_Melody,410,5,42,110,2347170104
5521,14,Improv_Melody,411,1,38,28,2347195048
5521,14,Improv_Melody,412,1,38,25,2347254968
5521,14,Improv_Melody,413,1,38,27,2347349636
5521,14,Improv_Melody,414,5,42,110,2347669820
5521,14,Improv_Melody,415,1,38,49,2347701208
5521,14,Improv_Melody,416,1,38,52,2348059144
5521,14,Improv_Melody,417,1,38,23,2348123748
5521,14,Improv_Melody,418,1,38,46,2348169476
5521,14,Improv_Melody,419,5,42,110,2348171636
5521,14,Improv_Melody,420,1,38,50,2348400804
5521,14,Improv_Melody,421,1,38,35,2348437584
5521,14,Improv_Melody,422,1,38,46,2348528512
5521,14,Improv_Melody,423,5,42,127,2348670304
5521,14,Improv_Melody,424,1,38,54,2348700876
5521,14,Improv_Melody,425,1,38,46,2348938512
5521,14,Improv_Melody,426,1,38,54,2349044472
5521,14,Improv_Melody,427,5,42,110,2349170008
5521,14,Improv_Melody,428,1,38,54,2349203420
5521,14,Improv_Melody,429,5,42,110,2349669636
5521,14,Improv_Melody,430,1,38,48,2349881012
5521,14,Improv_Melody,431,1,38,49,2350007552
5521,14,Improv_Melody,432,1,38,45,2350055100
5521,14,Improv_Melody,433,5,42,110,2350169440
5521,14,Improv_Melody,434,1,38,43,2350370644
5521,14,Improv_Melody,435,1,38,46,2350409072
5521,14,Improv_Melody,436,1,38,48,2350576368
5521,14,Improv_Melody,437,1,38,41,2350608088
5521,14,Improv_Melody,438,2,43,80,2350672716
5521,14,Improv_Melody,439,2,67,80,2350675168
5521,14,Improv_Melody,440,5,42,127,2350677552
5521,14,Improv_Melody,441,1,38,50,2350974264
5521,14,Improv_Melody,442,1,38,54,2351146008
5521,14,Improv_Melody,443,5,42,110,2351169828
5521,14,Improv_Melody,444,1,38,52,2351454044
5521,14,Improv_Melody,445,1,38,27,2351513936
5521,14,Improv_Melody,446,5,42,110,2351669568
5521,14,Improv_Melody,447,1,38,47,2351670904
5521,14,Improv_Melody,448,1,38,51,2351781788
5521,14,Improv_Melody,449,1,38,40,2351817224
5521,14,Improv_Melody,450,1,38,40,2352128188
5521,14,Improv_Melody,451,5,42,110,2352170560
5521,14,Improv_Melody,452,1,38,54,2352201712
5521,14,Improv_Melody,453,1,38,33,2352248588
5521,14,Improv_Melody,454,1,38,42,2352498416
5521,14,Improv_Melody,455,1,38,39,2352643976
5521,14,Improv_Melody,456,5,42,127,2352670120
5521,14,Improv_Melody,457,1,38,47,2353057864
5521,14,Improv_Melody,458,1,38,57,2353090148
5521,14,Improv_Melody,459,5,42,110,2353169648
5521,14,Improv_Melody,460,1,38,61,2353547444
5521,14,Improv_Melody,461,1,38,36,2353589756
5521,14,Improv_Melody,462,5,42,110,2353669476
5521,14,Improv_Melody,463,1,38,42,2353932828
5521,14,Improv_Melody,464,1,38,52,2353948364
5521,14,Improv_Melody,465,5,42,110,2354170412
5521,14,Improv_Melody,466,1,38,51,2354240924
5521,14,Improv_Melody,467,1,38,36,2354281068
5521,14,Improv_Melody,468,1,38,51,2354528876
5521,14,Improv_Melody,469,1,38,38,2354564008
5521,14,Improv_Melody,470,2,45,80,2354672680
5521,14,Improv_Melody,471,2,69,80,2354674528
5521,14,Improv_Melody,472,5,42,127,2354677240
5521,14,Improv_Melody,473,1,38,39,2354703320
5521,14,Improv_Melody,474,1,38,40,2355056000
5521,14,Improv_Melody,475,1,38,54,2355144384
5521,14,Improv_Melody,476,5,42,110,2355169632
5521,14,Improv_Melody,477,1,38,39,2355182380
5521,14,Improv_Melody,478,1,38,41,2355388156
5521,14,Improv_Melody,479,1,38,54,2355616512
5521,14,Improv_Melody,480,1,38,44,2355651796
5521,14,Improv_Melody,481,5,42,110,2355670460
5521,14,Improv_Melody,482,1,38,39,2356005416
5521,14,Improv_Melody,483,1,38,47,2356092088
5521,14,Improv_Melody,484,5,42,110,2356170288
5521,14,Improv_Melody,485,1,38,46,2356366316
5521,14,Improv_Melody,486,1,38,42,2356534916
5521,14,Improv_Melody,487,1,38,48,2356666468
5521,14,Improv_Melody,488,5,42,127,2356669796
5521,14,Improv_Melody,489,1,38,46,2356980588
5521,14,Improv_Melody,490,1,38,43,2357088580
5521,14,Improv_Melody,491,5,42,110,2357169472
5521,14,Improv_Melody,492,1,38,51,2357328852
5521,14,Improv_Melody,493,1,38,38,2357568736
5521,14,Improv_Melody,494,5,42,110,2357670480
5521,14,Improv_Melody,495,1,38,46,2357937812
5521,14,Improv_Melody,496,1,38,44,2358026380
5521,14,Improv_Melody,497,5,42,110,2358169860
5521,14,Improv_Melody,498,1,38,52,2358297772
5521,14,Improv_Melody,499,1,38,42,2358322728
5521,14,Improv_Melody,500,1,38,46,2358530444
5521,14,Improv_Melody,501,2,41,80,2358672476
5521,14,Improv_Melody,502,2,65,80,2358674396
5521,14,Improv_Melody,503,5,42,127,2358677012
5521,14,Improv_Melody,504,1,48,39,2358949352
5521,14,Improv_Melody,505,1,48,31,2359077112
5521,14,Improv_Melody,506,5,42,110,2359170408
5521,14,Improv_Melody,507,1,48,53,2359355608
5521,14,Improv_Melody,508,1,48,47,2359609400
5521,14,Improv_Melody,509,5,42,110,2359670248
5521,14,Improv_Melody,510,1,38,30,2359945496
5521,14,Improv_Melody,511,1,38,52,2360037096
5521,14,Improv_Melody,512,5,42,110,2360169764
5521,14,Improv_Melody,513,1,38,33,2360175124
5521,14,Improv_Melody,514,1,38,53,2360386056
5521,14,Improv_Melody,515,1,38,41,2360601780
5521,14,Improv_Melody,516,5,42,127,2360669508
5521,14,Improv_Melody,517,1,38,49,2360689144
5521,14,Improv_Melody,518,1,38,34,2361028276
5521,14,Improv_Melody,519,1,38,54,2361065732
5521,14,Improv_Melody,520,5,42,110,2361170268
5521,14,Improv_Melody,521,1,38,49,2361250504
5521,14,Improv_Melody,522,1,38,55,2361537660
5521,14,Improv_Melody,523,5,42,110,2361670020
5521,14,Improv_Melody,524,1,38,49,2361756692
5521,14,Improv_Melody,525,1,38,57,2362151424
5521,14,Improv_Melody,526,5,42,110,2362169716
5521,14,Improv_Melody,527,1,38,48,2362632500
5521,14,Improv_Melody,528,2,48,80,2362671764
5521,14,Improv_Melody,529,2,72,80,2362674144
5521,14,Improv_Melody,530,5,42,127,2362676460
5521,14,Improv_Melody,531,1,38,54,2363168216
5521,14,Improv_Melody,532,5,42,110,2363171072
5521,14,Improv_Melody,533,1,38,49,2363551476
5521,14,Improv_Melody,534,1,38,54,2363584216
5521,14,Improv_Melody,0,9999,9999,9999,2282667124
5521,14,Improv_Melody,1,9999,9999,9999,2283167856
5521,14,Improv_Melody,2,9999,9999,9999,2283667504
5521,14,Improv_Melody,3,9999,9999,9999,2284167228
5521,14,Improv_Melody,4,9999,9999,9999,2284667996
5521,14,Improv_Melody,5,9999,9999,9999,2285167716
5521,14,Improv_Melody,6,9999,9999,9999,2285667440
5521,14,Improv_Melody,7,9999,9999,9999,2286167160
5521,14,Improv_Melody,8,9999,9999,9999,2286667856
5521,14,Improv_Melody,9,9999,9999,9999,2287167592
5521,14,Improv_Melody,10,9999,9999,9999,2287667312
5521,14,Improv_Melody,11,9999,9999,9999,2288168008
5521,14,Improv_Melody,12,9999,9999,9999,2288667728
5521,14,Improv_Melody,13,9999,9999,9999,2289167448
5521,14,Improv_Melody,14,9999,9999,9999,2289667172
5521,14,Improv_Melody,15,9999,9999,9999,2290167864
5521,14,Improv_Melody,16,9999,9999,9999,2290667636
5521,14,Improv_Melody,17,9999,9999,9999,2291167296
5521,14,Improv_Melody,18,9999,9999,9999,2291668064
5521,14,Improv_Melody,19,9999,9999,9999,2292167784
5521,14,Improv_Melody,20,9999,9999,9999,2292667508
5521,14,Improv_Melody,21,9999,9999,9999,2293167156
5521,14,Improv_Melody,22,9999,9999,9999,2293667924
5521,14,Improv_Melody,23,9999,9999,9999,2294167644
5521,14,Improv_Melody,24,9999,9999,9999,2294667368
5521,14,Improv_Melody,25,9999,9999,9999,2295168072
5521,14,Improv_Melody,26,9999,9999,9999,2295667796
5521,14,Improv_Melody,27,9999,9999,9999,2296167516
5521,14,Improv_Melody,28,9999,9999,9999,2296667240
5521,14,Improv_Melody,29,9999,9999,9999,2297167932
5521,14,Improv_Melody,30,9999,9999,9999,2297667656
5521,14,Improv_Melody,31,9999,9999,9999,2298167376
5521,14,Improv_Melody,32,9999,9999,9999,2298667092
5521,14,Improv_Melody,33,9999,9999,9999,2299167808
5521,14,Improv_Melody,34,9999,9999,9999,2299667540
5521,14,Improv_Melody,35,9999,9999,9999,2300167276
5521,14,Improv_Melody,36,9999,9999,9999,2300668016
5521,14,Improv_Melody,37,9999,9999,9999,2301167720
5521,14,Improv_Melody,38,9999,9999,9999,2301667436
5521,14,Improv_Melody,39,9999,9999,9999,2302167088
5521,14,Improv_Melody,40,9999,9999,9999,2302667836
5521,14,Improv_Melody,41,9999,9999,9999,2303167600
5521,14,Improv_Melody,42,9999,9999,9999,2303667280
5521,14,Improv_Melody,43,9999,9999,9999,2304167996
5521,14,Improv_Melody,44,9999,9999,9999,2304667736
5521,14,Improv_Melody,45,9999,9999,9999,2305167412
5521,14,Improv_Melody,46,9999,9999,9999,2305667164
5521,14,Improv_Melody,47,9999,9999,9999,2306167868
5521,14,Improv_Melody,48,9999,9999,9999,2306667568
5521,14,Improv_Melody,49,9999,9999,9999,2307167312
5521,14,Improv_Melody,50,9999,9999,9999,2307668032
5521,14,Improv_Melody,51,9999,9999,9999,2308167744
5521,14,Improv_Melody,52,9999,9999,9999,2308667512
5521,14,Improv_Melody,53,9999,9999,9999,2309167176
5521,14,Improv_Melody,54,9999,9999,9999,2309667900
5521,14,Improv_Melody,55,9999,9999,9999,2310167632
5521,14,Improv_Melody,56,9999,9999,9999,2310667324
5521,14,Improv_Melody,57,9999,9999,9999,2311168048
5521,14,Improv_Melody,58,9999,9999,9999,2311667776
5521,14,Improv_Melody,59,9999,9999,9999,2312167520
5521,14,Improv_Melody,60,9999,9999,9999,2312667200
5521,14,Improv_Melody,61,9999,9999,9999,2313167956
5521,14,Improv_Melody,62,9999,9999,9999,2313667632
5521,14,Improv_Melody,63,9999,9999,9999,2314167364
5521,14,Improv_Melody,64,9999,9999,9999,2314667116
5521,14,Improv_Melody,65,9999,9999,9999,2315167812
5521,14,Improv_Melody,66,9999,9999,9999,2315667548
5521,14,Improv_Melody,67,9999,9999,9999,2316167220
5521,14,Improv_Melody,68,9999,9999,9999,2316667952
5521,14,Improv_Melody,69,9999,9999,9999,2317167696
5521,14,Improv_Melody,70,9999,9999,9999,2317667380
5521,14,Improv_Melody,71,9999,9999,9999,2318167088
5521,14,Improv_Melody,72,9999,9999,9999,2318667832
5521,14,Improv_Melody,73,9999,9999,9999,2319167560
5521,14,Improv_Melody,74,9999,9999,9999,2319667292
5521,14,Improv_Melody,75,9999,9999,9999,2320167992
5521,14,Improv_Melody,76,9999,9999,9999,2320667740
5521,14,Improv_Melody,77,9999,9999,9999,2321167452
5521,14,Improv_Melody,78,9999,9999,9999,2321667136
5521,14,Improv_Melody,79,9999,9999,9999,2322167916
5521,14,Improv_Melody,80,9999,9999,9999,2322667640
5521,14,Improv_Melody,81,9999,9999,9999,2323167328
5521,14,Improv_Melody,82,9999,9999,9999,2323668036
5521,14,Improv_Melody,83,9999,9999,9999,2324167792
5521,14,Improv_Melody,84,9999,9999,9999,2324667468
5521,14,Improv_Melody,85,9999,9999,9999,2325167200
5521,14,Improv_Melody,86,9999,9999,9999,2325667924
5521,14,Improv_Melody,87,9999,9999,9999,2326167660
5521,14,Improv_Melody,88,9999,9999,9999,2326667336
5521,14,Improv_Melody,89,9999,9999,9999,2327168056
5521,14,Improv_Melody,90,9999,9999,9999,2327667800
5521,14,Improv_Melody,91,9999,9999,9999,2328167480
5521,14,Improv_Melody,92,9999,9999,9999,2328667216
5521,14,Improv_Melody,93,9999,9999,9999,2329167936
5521,14,Improv_Melody,94,9999,9999,9999,2329667688
5521,14,Improv_Melody,95,9999,9999,9999,2330167364
5521,14,Improv_Melody,96,9999,9999,9999,2330667100
5521,14,Improv_Melody,97,9999,9999,9999,2331167856
5521,14,Improv_Melody,98,9999,9999,9999,2331667512
5521,14,Improv_Melody,99,9999,9999,9999,2332167248
5521,14,Improv_Melody,100,9999,9999,9999,2332668020
5521,14,Improv_Melody,101,9999,9999,9999,2333167728
5521,14,Improv_Melody,102,9999,9999,9999,2333667444
5521,14,Improv_Melody,103,9999,9999,9999,2334167116
5521,14,Improv_Melody,104,9999,9999,9999,2334667896
5521,14,Improv_Melody,105,9999,9999,9999,2335167592
5521,14,Improv_Melody,106,9999,9999,9999,2335667260
5521,14,Improv_Melody,107,9999,9999,9999,2336168040
5521,14,Improv_Melody,108,9999,9999,9999,2336667752
5521,14,Improv_Melody,109,9999,9999,9999,2337167468
5521,14,Improv_Melody,110,9999,9999,9999,2337667140
5521,14,Improv_Melody,111,9999,9999,9999,2338167920
5521,14,Improv_Melody,112,9999,9999,9999,2338667616
5521,14,Improv_Melody,113,9999,9999,9999,2339167328
5521,14,Improv_Melody,114,9999,9999,9999,2339668076
5521,14,Improv_Melody,115,9999,9999,9999,2340167732
5521,14,Improv_Melody,116,9999,9999,9999,2340667440
5521,14,Improv_Melody,117,9999,9999,9999,2341167156
5521,14,Improv_Melody,118,9999,9999,9999,2341667956
5521,14,Improv_Melody,119,9999,9999,9999,2342167632
5521,14,Improv_Melody,120,9999,9999,9999,2342667364
5521,14,Improv_Melody,121,9999,9999,9999,2343168080
5521,14,Improv_Melody,122,9999,9999,9999,2343667800
5521,14,Improv_Melody,123,9999,9999,9999,2344167484
5521,14,Improv_Melody,124,9999,9999,9999,2344667232
5521,14,Improv_Melody,125,9999,9999,9999,2345167940
5521,14,Improv_Melody,126,9999,9999,9999,2345667664
5521,14,Improv_Melody,127,9999,9999,9999,2346167404
5521,14,Improv_Melody,128,9999,9999,9999,2346667080
5521,14,Improv_Melody,129,9999,9999,9999,2347167812
5521,14,Improv_Melody,130,9999,9999,9999,2347667528
5521,14,Improv_Melody,131,9999,9999,9999,2348167272
5521,14,Improv_Melody,132,9999,9999,9999,2348668012
5521,14,Improv_Melody,133,9999,9999,9999,2349167716
5521,14,Improv_Melody,134,9999,9999,9999,2349667416
5521,14,Improv_Melody,135,9999,9999,9999,2350167148
5521,14,Improv_Melody,136,9999,9999,9999,2350667844
5521,14,Improv_Melody,137,9999,9999,9999,2351167536
5521,14,Improv_Melody,138,9999,9999,9999,2351667276
5521,14,Improv_Melody,139,9999,9999,9999,2352168044
5521,14,Improv_Melody,140,9999,9999,9999,2352667756
5521,14,Improv_Melody,141,9999,9999,9999,2353167432
5521,14,Improv_Melody,142,9999,9999,9999,2353667188
5521,14,Improv_Melody,143,9999,9999,9999,2354167896
5521,14,Improv_Melody,144,9999,9999,9999,2354667580
5521,14,Improv_Melody,145,9999,9999,9999,2355167340
5521,14,Improv_Melody,146,9999,9999,9999,2355668020
5521,14,Improv_Melody,147,9999,9999,9999,2356167772
5521,14,Improv_Melody,148,9999,9999,9999,2356667504
5521,14,Improv_Melody,149,9999,9999,9999,2357167180
5521,14,Improv_Melody,150,9999,9999,9999,2357667892
5521,14,Improv_Melody,151,9999,9999,9999,2358167644
5521,14,Improv_Melody,152,9999,9999,9999,2358667376
5521,14,Improv_Melody,153,9999,9999,9999,2359168056
5521,14,Improv_Melody,154,9999,9999,9999,2359667808
5521,14,Improv_Melody,155,9999,9999,9999,2360167544
5521,14,Improv_Melody,156,9999,9999,9999,2360667216
5521,14,Improv_Melody,157,9999,9999,9999,2361167976
5521,14,Improv_Melody,158,9999,9999,9999,2361667656
5521,14,Improv_Melody,159,9999,9999,9999,2362167348
5521,14,Improv_Melody,160,9999,9999,9999,2362667124
5521,14,Improv_Melody,161,9999,9999,9999,2363167840
55