pid,taskRunCount,taskID,taskName,i,channel,pitch,velocity,microseconds
50,1,1,Ticks_Pract_5,0,5,42,127,275665220
50,1,1,Ticks_Pract_5,1,5,42,127,276165060
50,1,1,Ticks_Pract_5,2,1,38,49,276602208
50,1,1,Ticks_Pract_5,3,5,42,127,276664768
50,1,1,Ticks_Pract_5,4,1,38,56,276987684
50,1,1,Ticks_Pract_5,5,5,42,127,277165496
50,1,1,Ticks_Pract_5,6,1,38,48,277475184
50,1,1,Ticks_Pract_5,7,5,42,127,277665412
50,1,1,Ticks_Pract_5,8,1,38,53,278051696
50,1,1,Ticks_Pract_5,9,5,42,127,278164960
50,1,1,Ticks_Pract_5,10,1,38,66,278548252
50,1,1,Ticks_Pract_5,11,5,42,127,278664432
50,1,1,Ticks_Pract_5,12,1,38,49,279108308
50,1,1,Ticks_Pract_5,13,5,42,127,279165408
50,1,1,Ticks_Pract_5,14,1,38,50,279615180
50,1,1,Ticks_Pract_5,15,5,42,127,279665404
50,1,1,Ticks_Pract_5,16,1,38,52,280132528
50,1,1,Ticks_Pract_5,17,5,42,127,280164652
50,1,1,Ticks_Pract_5,18,5,42,127,280664280
50,1,1,Ticks_Pract_5,19,1,38,41,280665320
50,1,1,Ticks_Pract_5,20,5,42,127,281165244
50,1,1,Ticks_Pract_5,21,1,38,27,281229328
50,1,1,Ticks_Pract_5,22,1,38,50,281642904
50,1,1,Ticks_Pract_5,23,5,42,127,281665228
50,1,1,Ticks_Pract_5,24,5,42,127,282164708
50,1,1,Ticks_Pract_5,25,1,38,40,282191164
50,1,1,Ticks_Pract_5,26,5,42,127,282665372
50,1,1,Ticks_Pract_5,27,1,38,48,282678068
50,1,1,Ticks_Pract_5,28,5,42,127,283165216
50,1,1,Ticks_Pract_5,29,1,38,43,283181128
50,1,1,Ticks_Pract_5,30,5,42,127,283664612
50,1,1,Ticks_Pract_5,31,1,38,28,283724880
50,1,1,Ticks_Pract_5,32,1,38,38,284154172
50,1,1,Ticks_Pract_5,33,5,42,127,284164528
50,1,1,Ticks_Pract_5,34,1,38,28,284660224
50,1,1,Ticks_Pract_5,35,5,42,127,284665416
50,1,1,Ticks_Pract_5,36,1,38,31,285159096
50,1,1,Ticks_Pract_5,37,5,42,127,285165336
50,1,1,Ticks_Pract_5,38,1,38,33,285652804
50,1,1,Ticks_Pract_5,39,5,42,127,285664732
50,1,1,Ticks_Pract_5,40,1,38,30,286143200
50,1,1,Ticks_Pract_5,41,5,42,127,286165400
50,1,1,Ticks_Pract_5,42,5,42,127,286665148
50,1,1,Ticks_Pract_5,43,1,38,29,286668148
50,1,1,Ticks_Pract_5,44,1,38,29,287142140
50,1,1,Ticks_Pract_5,45,5,42,127,287165132
50,1,1,Ticks_Pract_5,46,1,38,35,287620148
50,1,1,Ticks_Pract_5,47,5,42,127,287664532
50,1,1,Ticks_Pract_5,48,1,38,34,288153344
50,1,1,Ticks_Pract_5,49,5,42,127,288165196
50,1,1,Ticks_Pract_5,50,1,38,45,288588340
50,1,1,Ticks_Pract_5,51,5,42,127,288665112
50,1,1,Ticks_Pract_5,52,5,42,127,289164592
50,1,1,Ticks_Pract_5,53,1,38,18,289235280
50,1,1,Ticks_Pract_5,54,1,38,40,289650484
50,1,1,Ticks_Pract_5,55,5,42,127,289665400
50,1,1,Ticks_Pract_5,56,1,38,35,290105000
50,1,1,Ticks_Pract_5,57,5,42,127,290165096
50,1,1,Ticks_Pract_5,58,1,38,46,290593696
50,1,1,Ticks_Pract_5,59,5,42,127,290665012
50,1,1,Ticks_Pract_5,60,1,38,51,291040664
50,1,1,Ticks_Pract_5,61,5,42,127,291164544
50,1,1,Ticks_Pract_5,62,1,38,46,291444588
50,1,1,Ticks_Pract_5,63,5,42,127,291665212
50,1,1,Ticks_Pract_5,64,1,38,33,291950720
50,1,1,Ticks_Pract_5,65,5,42,127,292165128
50,1,1,Ticks_Pract_5,66,1,38,37,292597940
50,1,1,Ticks_Pract_5,67,5,42,127,292664540
50,1,1,Ticks_Pract_5,68,1,38,43,293088732
50,1,1,Ticks_Pract_5,69,5,42,127,293165356
50,1,1,Ticks_Pract_5,70,1,38,51,293577032
50,1,1,Ticks_Pract_5,71,5,42,127,293665196
50,1,1,Ticks_Pract_5,72,1,38,46,294081508
50,1,1,Ticks_Pract_5,73,5,42,127,294164816
50,1,1,Ticks_Pract_5,74,1,38,40,294570732
50,1,1,Ticks_Pract_5,75,5,42,127,294665768
50,1,1,Ticks_Pract_5,76,1,38,36,295078284
50,1,1,Ticks_Pract_5,77,5,42,127,295165252
50,1,1,Ticks_Pract_5,78,1,38,43,295581720
50,1,1,Ticks_Pract_5,0,9999,9999,9999,275662932
50,1,1,Ticks_Pract_5,1,9999,9999,9999,276162624
50,1,1,Ticks_Pract_5,2,9999,9999,9999,276662332
50,1,1,Ticks_Pract_5,3,9999,9999,9999,277163060
50,1,1,Ticks_Pract_5,4,9999,9999,9999,277662828
50,1,1,Ticks_Pract_5,5,9999,9999,9999,278162524
50,1,1,Ticks_Pract_5,6,9999,9999,9999,278662220
50,1,1,Ticks_Pract_5,7,9999,9999,9999,279162976
50,1,1,Ticks_Pract_5,8,9999,9999,9999,279662672
50,1,1,Ticks_Pract_5,9,9999,9999,9999,280162364
50,1,1,Ticks_Pract_5,10,9999,9999,9999,280662068
50,1,1,Ticks_Pract_5,11,9999,9999,9999,281162808
50,1,1,Ticks_Pract_5,12,9999,9999,9999,281662572
50,1,1,Ticks_Pract_5,13,9999,9999,9999,282162272
50,1,1,Ticks_Pract_5,14,9999,9999,9999,282663012
50,1,1,Ticks_Pract_5,15,9999,9999,9999,283162708
50,1,1,Ticks_Pract_5,16,9999,9999,9999,283662400
50,1,1,Ticks_Pract_5,17,9999,9999,9999,284162168
50,1,1,Ticks_Pract_5,18,9999,9999,9999,284662832
50,1,1,Ticks_Pract_5,19,9999,9999,9999,285162604
50,1,1,Ticks_Pract_5,20,9999,9999,9999,285662296
50,1,1,Ticks_Pract_5,21,9999,9999,9999,286163040
50,1,1,Ticks_Pract_5,22,9999,9999,9999,286662716
50,1,1,Ticks_Pract_5,23,9999,9999,9999,287162476
50,1,1,Ticks_Pract_5,24,9999,9999,9999,287662168
50,1,1,Ticks_Pract_5,25,9999,9999,9999,288162912
50,1,1,Ticks_Pract_5,26,9999,9999,9999,288662604
50,1,1,Ticks_Pract_5,27,9999,9999,9999,289162304
50,1,1,Ticks_Pract_5,28,9999,9999,9999,289663040
50,1,1,Ticks_Pract_5,29,9999,9999,9999,290162808
50,1,1,Ticks_Pract_5,30,9999,9999,9999,290662504
50,1,1,Ticks_Pract_5,31,9999,9999,9999,291162184
50,1,1,Ticks_Pract_5,32,9999,9999,9999,291662924
50,1,1,Ticks_Pract_5,33,9999,9999,9999,292162620
50,1,1,Ticks_Pract_5,34,9999,9999,9999,292662328
50,1,1,Ticks_Pract_5,35,9999,9999,9999,293163072
50,1,1,Ticks_Pract_5,36,9999,9999,9999,293662836
50,1,1,Ticks_Pract_5,37,9999,9999,9999,294162532
50,1,1,Ticks_Pract_5,38,9999,9999,9999,294662228
50,1,1,Ticks_Pract_5,39,9999,9999,9999,295162968
50,2,0,Ticks_Pract_8,0,5,42,127,311978308
50,2,0,Ticks_Pract_8,1,1,38,16,312507304
50,2,0,Ticks_Pract_8,2,5,42,127,312778216
50,2,0,Ticks_Pract_8,3,1,38,50,312926372
50,2,0,Ticks_Pract_8,4,1,38,43,313337860
50,2,0,Ticks_Pract_8,5,5,42,127,313577776
50,2,0,Ticks_Pract_8,6,5,42,127,314377532
50,2,0,Ticks_Pract_8,7,1,38,44,314501152
50,2,0,Ticks_Pract_8,8,5,42,127,315178536
50,2,0,Ticks_Pract_8,9,1,38,45,315184720
50,2,0,Ticks_Pract_8,10,5,42,127,315978120
50,2,0,Ticks_Pract_8,11,1,38,42,315996428
50,2,0,Ticks_Pract_8,12,1,38,45,316736448
50,2,0,Ticks_Pract_8,13,5,42,127,316777776
50,2,0,Ticks_Pract_8,14,1,38,52,317523172
50,2,0,Ticks_Pract_8,15,5,42,127,317577580
50,2,0,Ticks_Pract_8,16,1,38,46,318329940
50,2,0,Ticks_Pract_8,17,5,42,127,318378588
50,2,0,Ticks_Pract_8,18,1,38,49,319088832
50,2,0,Ticks_Pract_8,19,5,42,127,319178124
50,2,0,Ticks_Pract_8,20,1,38,50,319939876
50,2,0,Ticks_Pract_8,21,5,42,127,319977784
50,2,0,Ticks_Pract_8,22,5,42,127,320777524
50,2,0,Ticks_Pract_8,23,5,42,127,321578548
50,2,0,Ticks_Pract_8,24,1,48,45,321674420
50,2,0,Ticks_Pract_8,25,5,42,127,322378284
50,2,0,Ticks_Pract_8,26,1,48,44,322398312
50,2,0,Ticks_Pract_8,27,1,48,54,323172740
50,2,0,Ticks_Pract_8,28,5,42,127,323177936
50,2,0,Ticks_Pract_8,29,1,48,55,323882120
50,2,0,Ticks_Pract_8,30,5,42,127,323977520
50,2,0,Ticks_Pract_8,31,1,48,54,324705860
50,2,0,Ticks_Pract_8,32,5,42,127,324778300
50,2,0,Ticks_Pract_8,33,1,48,57,325494000
50,2,0,Ticks_Pract_8,34,5,42,127,325578280
50,2,0,Ticks_Pract_8,35,1,48,55,326235168
50,2,0,Ticks_Pract_8,36,5,42,127,326377928
50,2,0,Ticks_Pract_8,37,1,48,64,327087412
50,2,0,Ticks_Pract_8,38,5,42,127,327177528
50,2,0,Ticks_Pract_8,39,1,48,19,327196556
50,2,0,Ticks_Pract_8,40,1,48,62,327868724
50,2,0,Ticks_Pract_8,41,5,42,127,327978416
50,2,0,Ticks_Pract_8,42,1,48,68,328650448
50,2,0,Ticks_Pract_8,43,5,42,127,328778300
50,2,0,Ticks_Pract_8,44,1,48,70,329437696
50,2,0,Ticks_Pract_8,45,5,42,127,329577736
50,2,0,Ticks_Pract_8,46,1,48,71,330204664
50,2,0,Ticks_Pract_8,47,5,42,127,330377544
50,2,0,Ticks_Pract_8,48,1,48,62,331030728
50,2,0,Ticks_Pract_8,49,5,42,127,331178396
50,2,0,Ticks_Pract_8,50,1,48,68,331751552
50,2,0,Ticks_Pract_8,51,5,42,127,331978080
50,2,0,Ticks_Pract_8,52,1,48,74,332602968
50,2,0,Ticks_Pract_8,53,5,42,127,332778040
50,2,0,Ticks_Pract_8,54,1,48,54,333408464
50,2,0,Ticks_Pract_8,55,5,42,127,333577548
50,2,0,Ticks_Pract_8,56,1,48,64,334189196
50,2,0,Ticks_Pract_8,57,5,42,127,334378404
50,2,0,Ticks_Pract_8,58,1,48,71,334954292
50,2,0,Ticks_Pract_8,59,5,42,127,335178064
50,2,0,Ticks_Pract_8,60,1,48,62,335858996
50,2,0,Ticks_Pract_8,0,9999,9999,9999,311976016
50,2,0,Ticks_Pract_8,1,9999,9999,9999,312775748
50,2,0,Ticks_Pract_8,2,9999,9999,9999,313575484
50,2,0,Ticks_Pract_8,3,9999,9999,9999,314375240
50,2,0,Ticks_Pract_8,4,9999,9999,9999,315176020
50,2,0,Ticks_Pract_8,5,9999,9999,9999,315975756
50,2,0,Ticks_Pract_8,6,9999,9999,9999,316775484
50,2,0,Ticks_Pract_8,7,9999,9999,9999,317575216
50,2,0,Ticks_Pract_8,8,9999,9999,9999,318376000
50,2,0,Ticks_Pract_8,9,9999,9999,9999,319175732
50,2,0,Ticks_Pract_8,10,9999,9999,9999,319975488
50,2,0,Ticks_Pract_8,11,9999,9999,9999,320775232
50,2,0,Ticks_Pract_8,12,9999,9999,9999,321576032
50,2,0,Ticks_Pract_8,13,9999,9999,9999,322375768
50,2,0,Ticks_Pract_8,14,9999,9999,9999,323175496
50,2,0,Ticks_Pract_8,15,9999,9999,9999,323975228
50,2,0,Ticks_Pract_8,16,9999,9999,9999,324776008
50,2,0,Ticks_Pract_8,17,9999,9999,9999,325575740
50,2,0,Ticks_Pract_8,18,9999,9999,9999,326375484
50,2,0,Ticks_Pract_8,19,9999,9999,9999,327175236
50,2,0,Ticks_Pract_8,20,9999,9999,9999,327976052
50,2,0,Ticks_Pract_8,21,9999,9999,9999,328775784
50,2,0,Ticks_Pract_8,22,9999,9999,9999,329575516
50,2,0,Ticks_Pract_8,23,9999,9999,9999,330375252
50,2,0,Ticks_Pract_8,24,9999,9999,9999,331176032
50,2,0,Ticks_Pract_8,25,9999,9999,9999,331975788
50,2,0,Ticks_Pract_8,26,9999,9999,9999,332775524
50,2,0,Ticks_Pract_8,27,9999,9999,9999,333575256
50,2,0,Ticks_Pract_8,28,9999,9999,9999,334376036
50,2,0,Ticks_Pract_8,29,9999,9999,9999,335175772
50,4,4,T1_SMS_5,0,5,42,127,499026320
50,4,4,T1_SMS_5,1,5,42,127,499525888
50,4,4,T1_SMS_5,2,1,48,48,499935284
50,4,4,T1_SMS_5,3,5,42,127,500025748
50,4,4,T1_SMS_5,4,1,48,55,500373696
50,4,4,T1_SMS_5,5,5,42,127,500525504
50,4,4,T1_SMS_5,6,1,48,73,500909296
50,4,4,T1_SMS_5,7,5,42,127,501026020
50,4,4,T1_SMS_5,8,1,48,78,501407716
50,4,4,T1_SMS_5,9,5,42,127,501525864
50,4,4,T1_SMS_5,10,1,48,68,501913844
50,4,4,T1_SMS_5,11,5,42,127,502025632
50,4,4,T1_SMS_5,12,1,48,51,502405460
50,4,4,T1_SMS_5,13,5,42,127,502526300
50,4,4,T1_SMS_5,14,1,48,60,502862072
50,4,4,T1_SMS_5,15,5,42,127,503025996
50,4,4,T1_SMS_5,16,1,48,72,503290484
50,4,4,T1_SMS_5,17,5,42,127,503525692
50,4,4,T1_SMS_5,18,1,48,70,503697784
50,4,4,T1_SMS_5,19,5,42,127,504025536
50,4,4,T1_SMS_5,20,1,48,61,504153420
50,4,4,T1_SMS_5,21,5,42,127,504526204
50,4,4,T1_SMS_5,22,1,48,51,504580636
50,4,4,T1_SMS_5,23,1,48,50,505012300
50,4,4,T1_SMS_5,24,5,42,127,505025892
50,4,4,T1_SMS_5,25,1,48,62,505422908
50,4,4,T1_SMS_5,26,5,42,127,505525696
50,4,4,T1_SMS_5,27,1,48,76,505940924
50,4,4,T1_SMS_5,28,5,42,127,506026452
50,4,4,T1_SMS_5,29,1,48,62,506397388
50,4,4,T1_SMS_5,30,5,42,127,506525984
50,4,4,T1_SMS_5,31,1,48,60,506862680
50,4,4,T1_SMS_5,32,5,42,127,507025752
50,4,4,T1_SMS_5,33,1,48,73,507380400
50,4,4,T1_SMS_5,34,5,42,127,507525672
50,4,4,T1_SMS_5,35,1,48,63,507898268
50,4,4,T1_SMS_5,36,5,42,127,508026116
50,4,4,T1_SMS_5,37,1,48,73,508438128
50,4,4,T1_SMS_5,38,1,38,18,508448060
50,4,4,T1_SMS_5,39,5,42,127,508525880
50,4,4,T1_SMS_5,40,1,48,57,508937028
50,4,4,T1_SMS_5,41,5,42,127,509025548
50,4,4,T1_SMS_5,42,1,48,64,509456624
50,4,4,T1_SMS_5,43,5,42,127,509526588
50,4,4,T1_SMS_5,44,1,48,59,509926472
50,4,4,T1_SMS_5,45,5,42,127,510026044
50,4,4,T1_SMS_5,46,1,48,67,510464092
50,4,4,T1_SMS_5,47,5,42,127,510525828
50,4,4,T1_SMS_5,48,1,48,71,510935436
50,4,4,T1_SMS_5,49,5,42,127,511025524
50,4,4,T1_SMS_5,50,1,48,80,511397332
50,4,4,T1_SMS_5,51,5,42,127,511526176
50,4,4,T1_SMS_5,52,1,48,64,511864564
50,4,4,T1_SMS_5,53,5,42,127,512025872
50,4,4,T1_SMS_5,54,1,48,81,512395224
50,4,4,T1_SMS_5,55,5,42,127,512525568
50,4,4,T1_SMS_5,56,1,48,68,512939428
50,4,4,T1_SMS_5,57,5,42,127,513026624
50,4,4,T1_SMS_5,58,1,48,63,513441816
50,4,4,T1_SMS_5,59,5,42,127,513526464
50,4,4,T1_SMS_5,60,1,48,71,513949888
50,4,4,T1_SMS_5,61,5,42,127,514025864
50,4,4,T1_SMS_5,62,1,48,59,514416444
50,4,4,T1_SMS_5,63,5,42,127,514525544
50,4,4,T1_SMS_5,64,1,48,68,514915840
50,4,4,T1_SMS_5,65,5,42,127,515026360
50,4,4,T1_SMS_5,66,1,48,57,515428100
50,4,4,T1_SMS_5,67,5,42,127,515525980
50,4,4,T1_SMS_5,68,1,48,63,515878876
50,4,4,T1_SMS_5,69,5,42,127,516025800
50,4,4,T1_SMS_5,70,1,48,78,516307368
50,4,4,T1_SMS_5,71,5,42,127,516525568
50,4,4,T1_SMS_5,72,1,48,82,516787220
50,4,4,T1_SMS_5,73,5,42,127,517026084
50,4,4,T1_SMS_5,74,1,48,83,517216676
50,4,4,T1_SMS_5,75,5,42,127,517525780
50,4,4,T1_SMS_5,76,1,48,78,517661916
50,4,4,T1_SMS_5,77,5,42,127,518025700
50,4,4,T1_SMS_5,78,1,48,76,518119800
50,4,4,T1_SMS_5,79,5,42,127,518526292
50,4,4,T1_SMS_5,80,1,48,71,518618376
50,4,4,T1_SMS_5,81,5,42,127,519026136
50,4,4,T1_SMS_5,82,1,48,70,519104604
50,4,4,T1_SMS_5,83,5,42,127,519525760
50,4,4,T1_SMS_5,84,1,48,68,519641548
50,4,4,T1_SMS_5,85,5,42,127,520025452
50,4,4,T1_SMS_5,86,1,48,68,520163536
50,4,4,T1_SMS_5,87,5,42,127,520526120
50,4,4,T1_SMS_5,88,1,48,76,520653576
50,4,4,T1_SMS_5,89,5,42,127,521025816
50,4,4,T1_SMS_5,90,1,48,62,521176388
50,4,4,T1_SMS_5,91,5,42,127,521525584
50,4,4,T1_SMS_5,92,1,48,71,521665684
50,4,4,T1_SMS_5,93,5,42,127,522026324
50,4,4,T1_SMS_5,94,1,48,79,522170740
50,4,4,T1_SMS_5,95,5,42,127,522526244
50,4,4,T1_SMS_5,96,1,48,63,522681952
50,4,4,T1_SMS_5,97,5,42,127,523025716
50,4,4,T1_SMS_5,98,1,48,64,523139612
50,4,4,T1_SMS_5,99,5,42,127,523525408
50,4,4,T1_SMS_5,100,1,48,77,523550220
50,4,4,T1_SMS_5,101,1,48,61,524007492
50,4,4,T1_SMS_5,102,5,42,127,524026144
50,4,4,T1_SMS_5,103,1,48,72,524479660
50,4,4,T1_SMS_5,104,5,42,127,524525912
50,4,4,T1_SMS_5,105,1,48,60,524944396
50,4,4,T1_SMS_5,106,5,42,127,525025608
50,4,4,T1_SMS_5,107,1,48,71,525455904
50,4,4,T1_SMS_5,108,5,42,127,525526352
50,4,4,T1_SMS_5,109,1,48,81,525917904
50,4,4,T1_SMS_5,110,5,42,127,526026104
50,4,4,T1_SMS_5,111,1,48,75,526374288
50,4,4,T1_SMS_5,112,5,42,127,526525800
50,4,4,T1_SMS_5,113,1,48,77,526834116
50,4,4,T1_SMS_5,114,5,42,127,527025468
50,4,4,T1_SMS_5,115,1,48,67,527250468
50,4,4,T1_SMS_5,116,5,42,127,527526208
50,4,4,T1_SMS_5,117,1,48,68,527716500
50,4,4,T1_SMS_5,118,5,42,127,528025904
50,4,4,T1_SMS_5,119,1,48,65,528177524
50,4,4,T1_SMS_5,120,1,38,17,528187900
50,4,4,T1_SMS_5,121,5,42,127,528525552
50,4,4,T1_SMS_5,122,1,48,63,528644556
50,4,4,T1_SMS_5,123,1,38,16,528654560
50,4,4,T1_SMS_5,124,5,42,127,529026472
50,4,4,T1_SMS_5,125,1,48,81,529075888
50,4,4,T1_SMS_5,126,1,48,23,529166400
50,4,4,T1_SMS_5,127,5,42,127,529526068
50,4,4,T1_SMS_5,128,1,48,75,529527332
50,4,4,T1_SMS_5,129,1,48,80,530018992
50,4,4,T1_SMS_5,130,5,42,127,530025980
50,4,4,T1_SMS_5,131,1,48,70,530486528
50,4,4,T1_SMS_5,132,5,42,127,530525452
50,4,4,T1_SMS_5,133,1,48,68,530968264
50,4,4,T1_SMS_5,134,5,42,127,531026340
50,4,4,T1_SMS_5,135,1,48,66,531460184
50,4,4,T1_SMS_5,136,5,42,127,531525960
50,4,4,T1_SMS_5,137,1,48,60,531970200
50,4,4,T1_SMS_5,138,5,42,127,532025584
50,4,4,T1_SMS_5,139,1,48,65,532488444
50,4,4,T1_SMS_5,140,5,42,127,532525276
50,4,4,T1_SMS_5,141,1,48,64,532977588
50,4,4,T1_SMS_5,142,1,38,17,532987816
50,4,4,T1_SMS_5,143,5,42,127,533026148
50,4,4,T1_SMS_5,144,1,48,80,533430836
50,4,4,T1_SMS_5,145,5,42,127,533525948
50,4,4,T1_SMS_5,146,1,48,76,533904876
50,4,4,T1_SMS_5,147,5,42,127,534025568
50,4,4,T1_SMS_5,148,1,48,76,534372856
50,4,4,T1_SMS_5,149,5,42,127,534526236
50,4,4,T1_SMS_5,150,1,48,75,534814360
50,4,4,T1_SMS_5,151,5,42,127,535026004
50,4,4,T1_SMS_5,152,1,48,75,535287428
50,4,4,T1_SMS_5,153,5,42,127,535525700
50,4,4,T1_SMS_5,154,1,48,75,535737956
50,4,4,T1_SMS_5,155,5,42,127,536025320
50,4,4,T1_SMS_5,156,1,48,75,536168160
50,4,4,T1_SMS_5,157,5,42,127,536526136
50,4,4,T1_SMS_5,158,1,48,78,536603904
50,4,4,T1_SMS_5,159,5,42,127,537026052
50,4,4,T1_SMS_5,160,1,48,65,537044136
50,4,4,T1_SMS_5,161,1,48,71,537498532
50,4,4,T1_SMS_5,162,5,42,127,537525568
50,4,4,T1_SMS_5,163,1,48,78,537934876
50,4,4,T1_SMS_5,164,5,42,127,538026384
50,4,4,T1_SMS_5,165,1,48,67,538431804
50,4,4,T1_SMS_5,166,5,42,127,538525916
50,4,4,T1_SMS_5,167,1,48,79,538903072
50,4,4,T1_SMS_5,168,5,42,127,539025756
50,4,4,T1_SMS_5,169,1,48,71,539346888
50,4,4,T1_SMS_5,170,5,42,127,539525452
50,4,4,T1_SMS_5,171,1,48,78,539809536
50,4,4,T1_SMS_5,172,5,42,127,540026196
50,4,4,T1_SMS_5,173,1,48,71,540257772
50,4,4,T1_SMS_5,174,5,42,127,540526112
50,4,4,T1_SMS_5,175,1,48,67,540719020
50,4,4,T1_SMS_5,176,5,42,127,541025512
50,4,4,T1_SMS_5,177,1,48,73,541202708
50,4,4,T1_SMS_5,178,5,42,127,541526328
50,4,4,T1_SMS_5,179,1,48,67,541659324
50,4,4,T1_SMS_5,180,5,42,127,542026020
50,4,4,T1_SMS_5,181,1,48,73,542080824
50,4,4,T1_SMS_5,182,1,48,74,542514976
50,4,4,T1_SMS_5,183,5,42,127,542526008
50,4,4,T1_SMS_5,184,1,48,64,542933000
50,4,4,T1_SMS_5,185,5,42,127,543025628
50,4,4,T1_SMS_5,186,1,48,77,543389136
50,4,4,T1_SMS_5,187,5,42,127,543526132
50,4,4,T1_SMS_5,188,1,48,71,543830708
50,4,4,T1_SMS_5,189,5,42,127,544025972
50,4,4,T1_SMS_5,190,1,48,72,544274904
50,4,4,T1_SMS_5,191,5,42,127,544526040
50,4,4,T1_SMS_5,192,1,48,70,544737272
50,4,4,T1_SMS_5,193,5,42,127,545026488
50,4,4,T1_SMS_5,194,1,48,73,545181820
50,4,4,T1_SMS_5,195,5,42,127,545526104
50,4,4,T1_SMS_5,196,1,48,67,545635208
50,4,4,T1_SMS_5,197,5,42,127,546026024
50,4,4,T1_SMS_5,198,1,48,73,546090032
50,4,4,T1_SMS_5,199,5,42,127,546525644
50,4,4,T1_SMS_5,200,1,48,86,546529888
50,4,4,T1_SMS_5,201,1,48,75,546956912
50,4,4,T1_SMS_5,202,5,42,127,547026156
50,4,4,T1_SMS_5,203,1,48,74,547410156
50,4,4,T1_SMS_5,204,5,42,127,547526056
50,4,4,T1_SMS_5,205,1,48,81,547918300
50,4,4,T1_SMS_5,206,5,42,127,548026100
50,4,4,T1_SMS_5,207,1,48,76,548386884
50,4,4,T1_SMS_5,208,5,42,127,548525348
50,4,4,T1_SMS_5,209,1,48,82,548845136
50,4,4,T1_SMS_5,210,5,42,127,549026168
50,4,4,T1_SMS_5,211,1,48,75,549303372
50,4,4,T1_SMS_5,212,5,42,127,549525932
50,4,4,T1_SMS_5,213,1,48,77,549776356
50,4,4,T1_SMS_5,214,5,42,127,550025780
50,4,4,T1_SMS_5,215,1,48,87,550220776
50,4,4,T1_SMS_5,216,5,42,127,550526444
50,4,4,T1_SMS_5,217,1,48,75,550672008
50,4,4,T1_SMS_5,218,5,42,127,551026140
50,4,4,T1_SMS_5,219,1,48,76,551110068
50,4,4,T1_SMS_5,220,5,42,127,551525764
50,4,4,T1_SMS_5,221,1,48,72,551526732
50,4,4,T1_SMS_5,222,1,48,75,551985100
50,4,4,T1_SMS_5,223,5,42,127,552025600
50,4,4,T1_SMS_5,224,1,48,62,552390852
50,4,4,T1_SMS_5,225,5,42,127,552526104
50,4,4,T1_SMS_5,226,1,48,78,552896080
50,4,4,T1_SMS_5,227,5,42,127,553025800
50,4,4,T1_SMS_5,228,1,48,79,553345340
50,4,4,T1_SMS_5,229,5,42,127,553525864
50,4,4,T1_SMS_5,230,1,48,78,553789464
50,4,4,T1_SMS_5,231,5,42,127,554026384
50,4,4,T1_SMS_5,232,1,48,78,554229540
50,4,4,T1_SMS_5,233,5,42,127,554525932
50,4,4,T1_SMS_5,234,1,48,63,554680068
50,4,4,T1_SMS_5,235,5,42,127,555025772
50,4,4,T1_SMS_5,236,1,48,76,555157624
50,4,4,T1_SMS_5,237,5,42,127,555525544
50,4,4,T1_SMS_5,238,1,48,79,555577732
50,4,4,T1_SMS_5,239,5,42,127,556026212
50,4,4,T1_SMS_5,240,1,48,77,556031424
50,4,4,T1_SMS_5,241,1,48,74,556457552
50,4,4,T1_SMS_5,242,5,42,127,556525976
50,4,4,T1_SMS_5,243,1,48,76,556907504
50,4,4,T1_SMS_5,244,5,42,127,557025504
50,4,4,T1_SMS_5,245,1,48,78,557362020
50,4,4,T1_SMS_5,246,5,42,127,557526472
50,4,4,T1_SMS_5,247,1,48,78,557827164
50,4,4,T1_SMS_5,248,5,42,127,558026016
50,4,4,T1_SMS_5,249,1,48,73,558303372
50,4,4,T1_SMS_5,250,5,42,127,558525788
50,4,4,T1_SMS_5,251,1,48,77,558799252
50,4,4,T1_SMS_5,252,5,42,127,559025604
50,4,4,T1_SMS_5,253,1,48,64,559286432
50,4,4,T1_SMS_5,254,5,42,127,559526272
50,4,4,T1_SMS_5,255,1,48,73,559744680
50,4,4,T1_SMS_5,256,5,42,127,560025892
50,4,4,T1_SMS_5,257,1,48,68,560215580
50,4,4,T1_SMS_5,258,5,42,127,560525660
50,4,4,T1_SMS_5,259,1,48,77,560671516
50,4,4,T1_SMS_5,260,5,42,127,561026556
50,4,4,T1_SMS_5,261,1,48,74,561118856
50,4,4,T1_SMS_5,262,5,42,127,561526020
50,4,4,T1_SMS_5,263,1,48,69,561594592
50,4,4,T1_SMS_5,264,5,42,127,562025792
50,4,4,T1_SMS_5,265,1,48,70,562036536
50,4,4,T1_SMS_5,266,1,48,69,562486248
50,4,4,T1_SMS_5,267,5,42,127,562525628
50,4,4,T1_SMS_5,268,1,48,59,562951912
50,4,4,T1_SMS_5,269,5,42,127,563026144
50,4,4,T1_SMS_5,270,1,48,72,563379332
50,4,4,T1_SMS_5,271,5,42,127,563525976
50,4,4,T1_SMS_5,272,1,48,72,563831980
50,4,4,T1_SMS_5,0,9999,9999,9999,499023960
50,4,4,T1_SMS_5,1,9999,9999,9999,499523676
50,4,4,T1_SMS_5,2,9999,9999,9999,500023388
50,4,4,T1_SMS_5,3,9999,9999,9999,500523068
50,4,4,T1_SMS_5,4,9999,9999,9999,501023808
50,4,4,T1_SMS_5,5,9999,9999,9999,501523576
50,4,4,T1_SMS_5,6,9999,9999,9999,502023272
50,4,4,T1_SMS_5,7,9999,9999,9999,502524016
50,4,4,T1_SMS_5,8,9999,9999,9999,503023708
50,4,4,T1_SMS_5,9,9999,9999,9999,503523408
50,4,4,T1_SMS_5,10,9999,9999,9999,504023100
50,4,4,T1_SMS_5,11,9999,9999,9999,504523844
50,4,4,T1_SMS_5,12,9999,9999,9999,505023608
50,4,4,T1_SMS_5,13,9999,9999,9999,505523260
50,4,4,T1_SMS_5,14,9999,9999,9999,506024016
50,4,4,T1_SMS_5,15,9999,9999,9999,506523696
50,4,4,T1_SMS_5,16,9999,9999,9999,507023468
50,4,4,T1_SMS_5,17,9999,9999,9999,507523164
50,4,4,T1_SMS_5,18,9999,9999,9999,508023904
50,4,4,T1_SMS_5,19,9999,9999,9999,508523592
50,4,4,T1_SMS_5,20,9999,9999,9999,509023336
50,4,4,T1_SMS_5,21,9999,9999,9999,509524076
50,4,4,T1_SMS_5,22,9999,9999,9999,510023756
50,4,4,T1_SMS_5,23,9999,9999,9999,510523468
50,4,4,T1_SMS_5,24,9999,9999,9999,511023164
50,4,4,T1_SMS_5,25,9999,9999,9999,511523892
50,4,4,T1_SMS_5,26,9999,9999,9999,512023660
50,4,4,T1_SMS_5,27,9999,9999,9999,512523356
50,4,4,T1_SMS_5,28,9999,9999,9999,513024112
50,4,4,T1_SMS_5,29,9999,9999,9999,513523804
50,4,4,T1_SMS_5,30,9999,9999,9999,514023504
50,4,4,T1_SMS_5,31,9999,9999,9999,514523256
50,4,4,T1_SMS_5,32,9999,9999,9999,515023920
50,4,4,T1_SMS_5,33,9999,9999,9999,515523692
50,4,4,T1_SMS_5,34,9999,9999,9999,516023364
50,4,4,T1_SMS_5,35,9999,9999,9999,516523056
50,4,4,T1_SMS_5,36,9999,9999,9999,517023800
50,4,4,T1_SMS_5,37,9999,9999,9999,517523568
50,4,4,T1_SMS_5,38,9999,9999,9999,518023264
50,4,4,T1_SMS_5,39,9999,9999,9999,518524008
50,4,4,T1_SMS_5,40,9999,9999,9999,519023700
50,4,4,T1_SMS_5,41,9999,9999,9999,519523396
50,4,4,T1_SMS_5,42,9999,9999,9999,520023092
50,4,4,T1_SMS_5,43,9999,9999,9999,520523832
50,4,4,T1_SMS_5,44,9999,9999,9999,521023604
50,4,4,T1_SMS_5,45,9999,9999,9999,521523296
50,4,4,T1_SMS_5,46,9999,9999,9999,522024040
50,4,4,T1_SMS_5,47,9999,9999,9999,522523736
50,4,4,T1_SMS_5,48,9999,9999,9999,523023428
50,4,4,T1_SMS_5,49,9999,9999,9999,523523124
50,4,4,T1_SMS_5,50,9999,9999,9999,524023860
50,4,4,T1_SMS_5,51,9999,9999,9999,524523628
50,4,4,T1_SMS_5,52,9999,9999,9999,525023320
50,4,4,T1_SMS_5,53,9999,9999,9999,525524064
50,4,4,T1_SMS_5,54,9999,9999,9999,526023744
50,4,4,T1_SMS_5,55,9999,9999,9999,526523488
50,4,4,T1_SMS_5,56,9999,9999,9999,527023180
50,4,4,T1_SMS_5,57,9999,9999,9999,527523924
50,4,4,T1_SMS_5,58,9999,9999,9999,528023616
50,4,4,T1_SMS_5,59,9999,9999,9999,528523340
50,4,4,T1_SMS_5,60,9999,9999,9999,529024108
50,4,4,T1_SMS_5,61,9999,9999,9999,529523780
50,4,4,T1_SMS_5,62,9999,9999,9999,530023544
50,4,4,T1_SMS_5,63,9999,9999,9999,530523240
50,4,4,T1_SMS_5,64,9999,9999,9999,531023980
50,4,4,T1_SMS_5,65,9999,9999,9999,531523672
50,4,4,T1_SMS_5,66,9999,9999,9999,532023372
50,4,4,T1_SMS_5,67,9999,9999,9999,532523064
50,4,4,T1_SMS_5,68,9999,9999,9999,533023860
50,4,4,T1_SMS_5,69,9999,9999,9999,533523512
50,4,4,T1_SMS_5,70,9999,9999,9999,534023280
50,4,4,T1_SMS_5,71,9999,9999,9999,534524024
50,4,4,T1_SMS_5,72,9999,9999,9999,535023720
50,4,4,T1_SMS_5,73,9999,9999,9999,535523412
50,4,4,T1_SMS_5,74,9999,9999,9999,536023108
50,4,4,T1_SMS_5,75,9999,9999,9999,536523848
50,4,4,T1_SMS_5,76,9999,9999,9999,537023544
50,4,4,T1_SMS_5,77,9999,9999,9999,537523280
50,4,4,T1_SMS_5,78,9999,9999,9999,538024024
50,4,4,T1_SMS_5,79,9999,9999,9999,538523704
50,4,4,T1_SMS_5,80,9999,9999,9999,539023472
50,4,4,T1_SMS_5,81,9999,9999,9999,539523168
50,4,4,T1_SMS_5,82,9999,9999,9999,540023908
50,4,4,T1_SMS_5,83,9999,9999,9999,540523604
50,4,4,T1_SMS_5,84,9999,9999,9999,541023300
50,4,4,T1_SMS_5,85,9999,9999,9999,541524040
50,4,4,T1_SMS_5,86,9999,9999,9999,542023732
50,4,4,T1_SMS_5,87,9999,9999,9999,542523500
50,4,4,T1_SMS_5,88,9999,9999,9999,543023192
50,4,4,T1_SMS_5,89,9999,9999,9999,543523916
50,4,4,T1_SMS_5,90,9999,9999,9999,544023612
50,4,4,T1_SMS_5,91,9999,9999,9999,544523380
50,4,4,T1_SMS_5,92,9999,9999,9999,545024048
50,4,4,T1_SMS_5,93,9999,9999,9999,545523816
50,4,4,T1_SMS_5,94,9999,9999,9999,546023512
50,4,4,T1_SMS_5,95,9999,9999,9999,546523208
50,4,4,T1_SMS_5,96,9999,9999,9999,547023944
50,4,4,T1_SMS_5,97,9999,9999,9999,547523696
50,4,4,T1_SMS_5,98,9999,9999,9999,548023368
50,4,4,T1_SMS_5,99,9999,9999,9999,548523064
50,4,4,T1_SMS_5,100,9999,9999,9999,549023804
50,4,4,T1_SMS_5,101,9999,9999,9999,549523572
50,4,4,T1_SMS_5,102,9999,9999,9999,550023268
50,4,4,T1_SMS_5,103,9999,9999,9999,550524008
50,4,4,T1_SMS_5,104,9999,9999,9999,551023704
50,4,4,T1_SMS_5,105,9999,9999,9999,551523400
50,4,4,T1_SMS_5,106,9999,9999,9999,552023092
50,4,4,T1_SMS_5,107,9999,9999,9999,552523892
50,4,4,T1_SMS_5,108,9999,9999,9999,553023588
50,4,4,T1_SMS_5,109,9999,9999,9999,553523280
50,4,4,T1_SMS_5,110,9999,9999,9999,554024024
50,4,4,T1_SMS_5,111,9999,9999,9999,554523720
50,4,4,T1_SMS_5,112,9999,9999,9999,555023412
50,4,4,T1_SMS_5,113,9999,9999,9999,555523184
50,4,4,T1_SMS_5,114,9999,9999,9999,556023924
50,4,4,T1_SMS_5,115,9999,9999,9999,556523612
50,4,4,T1_SMS_5,116,9999,9999,9999,557023292
50,4,4,T1_SMS_5,117,9999,9999,9999,557524032
50,4,4,T1_SMS_5,118,9999,9999,9999,558023732
50,4,4,T1_SMS_5,119,9999,9999,9999,558523500
50,4,4,T1_SMS_5,120,9999,9999,9999,559023168
50,4,4,T1_SMS_5,121,9999,9999,9999,559523908
50,4,4,T1_SMS_5,122,9999,9999,9999,560023604
50,4,4,T1_SMS_5,123,9999,9999,9999,560523372
50,4,4,T1_SMS_5,124,9999,9999,9999,561024116
50,4,4,T1_SMS_5,125,9999,9999,9999,561523808
50,4,4,T1_SMS_5,126,9999,9999,9999,562023504
50,4,4,T1_SMS_5,127,9999,9999,9999,562523192
50,4,4,T1_SMS_5,128,9999,9999,9999,563023932
50,4,4,T1_SMS_5,129,9999,9999,9999,563523688
50,5,2,T1_SMS_8,0,5,42,127,613039456
50,5,2,T1_SMS_8,1,1,48,46,613550280
50,5,2,T1_SMS_8,2,5,42,127,613840560
50,5,2,T1_SMS_8,3,5,42,127,614639868
50,5,2,T1_SMS_8,4,1,48,63,615051632
50,5,2,T1_SMS_8,5,5,42,127,615439676
50,5,2,T1_SMS_8,6,1,48,73,615585060
50,5,2,T1_SMS_8,7,1,48,69,616202492
50,5,2,T1_SMS_8,8,5,42,127,616239328
50,5,2,T1_SMS_8,9,1,48,74,616987488
50,5,2,T1_SMS_8,10,5,42,127,617040480
50,5,2,T1_SMS_8,11,1,48,65,617793428
50,5,2,T1_SMS_8,12,5,42,127,617839916
50,5,2,T1_SMS_8,13,1,48,70,618562420
50,5,2,T1_SMS_8,14,5,42,127,618639648
50,5,2,T1_SMS_8,15,1,48,70,619343380
50,5,2,T1_SMS_8,16,5,42,127,619439456
50,5,2,T1_SMS_8,17,1,48,70,620128756
50,5,2,T1_SMS_8,18,5,42,127,620240320
50,5,2,T1_SMS_8,19,1,48,70,620877252
50,5,2,T1_SMS_8,20,5,42,127,621039904
50,5,2,T1_SMS_8,21,1,48,76,621689324
50,5,2,T1_SMS_8,22,5,42,127,621839636
50,5,2,T1_SMS_8,23,1,48,58,622427424
50,5,2,T1_SMS_8,24,5,42,127,622639444
50,5,2,T1_SMS_8,25,1,48,70,623130820
50,5,2,T1_SMS_8,26,5,42,127,623440372
50,5,2,T1_SMS_8,27,1,48,63,624001904
50,5,2,T1_SMS_8,28,1,38,17,624012132
50,5,2,T1_SMS_8,29,5,42,127,624239984
50,5,2,T1_SMS_8,30,1,48,66,624888532
50,5,2,T1_SMS_8,31,1,38,17,624898460
50,5,2,T1_SMS_8,32,5,42,127,625039744
50,5,2,T1_SMS_8,33,1,48,75,625733316
50,5,2,T1_SMS_8,34,5,42,127,625839400
50,5,2,T1_SMS_8,35,1,48,69,626579804
50,5,2,T1_SMS_8,36,5,42,127,626640296
50,5,2,T1_SMS_8,37,1,48,73,627399832
50,5,2,T1_SMS_8,38,1,38,18,627409756
50,5,2,T1_SMS_8,39,5,42,127,627439936
50,5,2,T1_SMS_8,40,5,42,127,628239796
50,5,2,T1_SMS_8,41,1,48,66,628242916
50,5,2,T1_SMS_8,42,1,48,61,628997160
50,5,2,T1_SMS_8,43,5,42,127,629039376
50,5,2,T1_SMS_8,44,1,48,60,629778564
50,5,2,T1_SMS_8,45,5,42,127,629840228
50,5,2,T1_SMS_8,46,1,48,59,630541496
50,5,2,T1_SMS_8,47,5,42,127,630640096
50,5,2,T1_SMS_8,48,1,48,75,631323424
50,5,2,T1_SMS_8,49,5,42,127,631439832
50,5,2,T1_SMS_8,50,1,48,69,632153156
50,5,2,T1_SMS_8,51,1,38,17,632163080
50,5,2,T1_SMS_8,52,5,42,127,632239484
50,5,2,T1_SMS_8,53,1,48,61,632958152
50,5,2,T1_SMS_8,54,1,38,16,632968152
50,5,2,T1_SMS_8,55,5,42,127,633040244
50,5,2,T1_SMS_8,56,1,48,61,633709968
50,5,2,T1_SMS_8,57,5,42,127,633840084
50,5,2,T1_SMS_8,58,1,48,82,634525628
50,5,2,T1_SMS_8,59,1,38,19,634535560
50,5,2,T1_SMS_8,60,5,42,127,634639696
50,5,2,T1_SMS_8,61,1,48,65,635327888
50,5,2,T1_SMS_8,62,5,42,127,635439500
50,5,2,T1_SMS_8,63,1,48,80,636108848
50,5,2,T1_SMS_8,64,5,42,127,636240208
50,5,2,T1_SMS_8,65,1,48,79,636885612
50,5,2,T1_SMS_8,66,5,42,127,637040164
50,5,2,T1_SMS_8,67,1,48,80,637680556
50,5,2,T1_SMS_8,68,5,42,127,637839820
50,5,2,T1_SMS_8,69,1,48,79,638494728
50,5,2,T1_SMS_8,70,1,38,19,638504728
50,5,2,T1_SMS_8,71,5,42,127,638639436
50,5,2,T1_SMS_8,72,1,48,84,639264716
50,5,2,T1_SMS_8,73,5,42,127,639440164
50,5,2,T1_SMS_8,74,1,48,81,640081880
50,5,2,T1_SMS_8,75,1,38,19,640091288
50,5,2,T1_SMS_8,76,5,42,127,640239864
50,5,2,T1_SMS_8,77,1,48,84,640936180
50,5,2,T1_SMS_8,78,5,42,127,641039672
50,5,2,T1_SMS_8,79,1,48,66,641756132
50,5,2,T1_SMS_8,80,5,42,127,641839572
50,5,2,T1_SMS_8,81,1,48,64,642592296
50,5,2,T1_SMS_8,82,5,42,127,642640352
50,5,2,T1_SMS_8,83,1,48,71,643432416
50,5,2,T1_SMS_8,84,5,42,127,643440084
50,5,2,T1_SMS_8,85,1,48,62,644127064
50,5,2,T1_SMS_8,86,5,42,127,644239652
50,5,2,T1_SMS_8,87,1,48,71,644990224
50,5,2,T1_SMS_8,88,5,42,127,645039400
50,5,2,T1_SMS_8,89,1,48,80,645823416
50,5,2,T1_SMS_8,90,5,42,127,645840132
50,5,2,T1_SMS_8,91,5,42,127,646640096
50,5,2,T1_SMS_8,92,1,48,81,646657652
50,5,2,T1_SMS_8,93,1,48,80,647379872
50,5,2,T1_SMS_8,94,5,42,127,647439896
50,5,2,T1_SMS_8,95,1,48,76,648147980
50,5,2,T1_SMS_8,96,5,42,127,648239336
50,5,2,T1_SMS_8,97,1,48,78,648929680
50,5,2,T1_SMS_8,98,1,38,19,648939612
50,5,2,T1_SMS_8,99,5,42,127,649040128
50,5,2,T1_SMS_8,100,1,48,72,649779336
50,5,2,T1_SMS_8,101,5,42,127,649839952
50,5,2,T1_SMS_8,102,1,48,79,650525136
50,5,2,T1_SMS_8,103,5,42,127,650640040
50,5,2,T1_SMS_8,104,1,48,79,651313424
50,5,2,T1_SMS_8,105,1,38,19,651323580
50,5,2,T1_SMS_8,106,5,42,127,651439580
50,5,2,T1_SMS_8,107,1,48,66,652086712
50,5,2,T1_SMS_8,108,1,38,17,652096332
50,5,2,T1_SMS_8,109,5,42,127,652240188
50,5,2,T1_SMS_8,110,1,48,68,652908308
50,5,2,T1_SMS_8,111,5,42,127,653039848
50,5,2,T1_SMS_8,112,5,42,127,653839824
50,5,2,T1_SMS_8,113,1,48,74,653913924
50,5,2,T1_SMS_8,114,5,42,127,654639636
50,5,2,T1_SMS_8,115,1,48,85,654670280
50,5,2,T1_SMS_8,116,1,48,84,655438752
50,5,2,T1_SMS_8,117,5,42,127,655440480
50,5,2,T1_SMS_8,118,1,48,67,656216772
50,5,2,T1_SMS_8,119,5,42,127,656239992
50,5,2,T1_SMS_8,120,1,48,79,656918368
50,5,2,T1_SMS_8,121,5,42,127,657039788
50,5,2,T1_SMS_8,122,1,48,89,657771660
50,5,2,T1_SMS_8,123,5,42,127,657839684
50,5,2,T1_SMS_8,124,1,48,86,658589640
50,5,2,T1_SMS_8,125,1,38,20,658599796
50,5,2,T1_SMS_8,126,5,42,127,658640248
50,5,2,T1_SMS_8,127,5,42,127,659439960
50,5,2,T1_SMS_8,128,1,48,78,659464092
50,5,2,T1_SMS_8,129,1,38,20,659474096
50,5,2,T1_SMS_8,130,5,42,127,660239648
50,5,2,T1_SMS_8,131,1,48,80,660316368
50,5,2,T1_SMS_8,132,1,48,79,660989820
50,5,2,T1_SMS_8,133,1,38,19,660999900
50,5,2,T1_SMS_8,134,5,42,127,661039652
50,5,2,T1_SMS_8,135,1,48,67,661780308
50,5,2,T1_SMS_8,136,1,38,18,661790164
50,5,2,T1_SMS_8,137,5,42,127,661840088
50,5,2,T1_SMS_8,138,1,48,61,662581864
50,5,2,T1_SMS_8,139,1,38,17,662591268
50,5,2,T1_SMS_8,140,5,42,127,662639924
50,5,2,T1_SMS_8,141,1,48,80,663283940
50,5,2,T1_SMS_8,142,5,42,127,663439760
50,5,2,T1_SMS_8,143,1,48,90,664215840
50,5,2,T1_SMS_8,144,1,38,20,664225688
50,5,2,T1_SMS_8,145,5,42,127,664239712
50,5,2,T1_SMS_8,146,5,42,127,665040200
50,5,2,T1_SMS_8,147,1,48,79,665044664
50,5,2,T1_SMS_8,148,1,38,19,665054592
50,5,2,T1_SMS_8,149,5,42,127,665839884
50,5,2,T1_SMS_8,150,1,48,80,665896628
50,5,2,T1_SMS_8,151,1,38,20,665906564
50,5,2,T1_SMS_8,152,5,42,127,666639572
50,5,2,T1_SMS_8,153,1,48,83,666661836
50,5,2,T1_SMS_8,154,5,42,127,667439452
50,5,2,T1_SMS_8,155,1,48,77,667444964
50,5,2,T1_SMS_8,156,1,38,19,667454968
50,5,2,T1_SMS_8,157,1,48,86,668211648
50,5,2,T1_SMS_8,158,5,42,127,668240328
50,5,2,T1_SMS_8,159,1,48,78,669017064
50,5,2,T1_SMS_8,160,1,38,19,669026996
50,5,2,T1_SMS_8,161,5,42,127,669040116
50,5,2,T1_SMS_8,162,1,48,77,669733348
50,5,2,T1_SMS_8,163,1,38,18,669743504
50,5,2,T1_SMS_8,164,5,42,127,669839636
50,5,2,T1_SMS_8,165,5,42,127,670639452
50,5,2,T1_SMS_8,166,1,48,75,670673936
50,5,2,T1_SMS_8,167,1,38,19,670684164
50,5,2,T1_SMS_8,168,1,48,70,671401400
50,5,2,T1_SMS_8,169,1,38,18,671411256
50,5,2,T1_SMS_8,170,5,42,127,671440480
50,5,2,T1_SMS_8,171,1,48,93,672131820
50,5,2,T1_SMS_8,172,1,38,20,672141600
50,5,2,T1_SMS_8,173,5,42,127,672240048
50,5,2,T1_SMS_8,174,1,48,85,672992344
50,5,2,T1_SMS_8,175,5,42,127,673039648
50,5,2,T1_SMS_8,176,1,48,72,673780556
50,5,2,T1_SMS_8,177,5,42,127,673839384
50,5,2,T1_SMS_8,178,1,48,72,674555380
50,5,2,T1_SMS_8,179,5,42,127,674640536
50,5,2,T1_SMS_8,180,1,48,83,675362972
50,5,2,T1_SMS_8,181,5,42,127,675440048
50,5,2,T1_SMS_8,182,1,48,89,676219700
50,5,2,T1_SMS_8,183,5,42,127,676239780
50,5,2,T1_SMS_8,184,5,42,127,677039520
50,5,2,T1_SMS_8,185,1,48,87,677052308
50,5,2,T1_SMS_8,186,1,48,76,677809372
50,5,2,T1_SMS_8,187,5,42,127,677840464
50,5,2,T1_SMS_8,188,5,42,127,678639912
50,5,2,T1_SMS_8,189,1,48,90,678704808
50,5,2,T1_SMS_8,190,1,48,78,679428236
50,5,2,T1_SMS_8,191,5,42,127,679439784
50,5,2,T1_SMS_8,192,1,48,89,680144488
50,5,2,T1_SMS_8,193,5,42,127,680239428
50,5,2,T1_SMS_8,194,1,48,63,680895904
50,5,2,T1_SMS_8,195,1,38,17,680905308
50,5,2,T1_SMS_8,196,5,42,127,681040312
50,5,2,T1_SMS_8,197,1,48,77,681694916
50,5,2,T1_SMS_8,198,1,38,18,681704844
50,5,2,T1_SMS_8,199,5,42,127,681840144
50,5,2,T1_SMS_8,200,1,48,70,682562672
50,5,2,T1_SMS_8,201,5,42,127,682639748
50,5,2,T1_SMS_8,202,1,48,72,683377364
50,5,2,T1_SMS_8,203,5,42,127,683439404
50,5,2,T1_SMS_8,204,1,48,85,684154060
50,5,2,T1_SMS_8,205,5,42,127,684240284
50,5,2,T1_SMS_8,206,1,48,81,684967256
50,5,2,T1_SMS_8,207,5,42,127,685040240
50,5,2,T1_SMS_8,208,1,48,60,685682020
50,5,2,T1_SMS_8,209,5,42,127,685839736
50,5,2,T1_SMS_8,210,1,48,69,686541392
50,5,2,T1_SMS_8,211,5,42,127,686640740
50,5,2,T1_SMS_8,212,1,48,88,687353020
50,5,2,T1_SMS_8,213,5,42,127,687440340
50,5,2,T1_SMS_8,214,1,48,89,688120144
50,5,2,T1_SMS_8,215,5,42,127,688240060
50,5,2,T1_SMS_8,216,1,48,79,688959596
50,5,2,T1_SMS_8,217,5,42,127,689039736
50,5,2,T1_SMS_8,218,1,48,78,689743168
50,5,2,T1_SMS_8,219,5,42,127,689839528
50,5,2,T1_SMS_8,220,1,48,71,690449780
50,5,2,T1_SMS_8,221,1,38,18,690459712
50,5,2,T1_SMS_8,222,5,42,127,690640288
50,5,2,T1_SMS_8,223,1,48,76,691386824
50,5,2,T1_SMS_8,224,5,42,127,691440036
50,5,2,T1_SMS_8,225,5,42,127,692240000
50,5,2,T1_SMS_8,226,1,48,80,692275284
50,5,2,T1_SMS_8,227,5,42,127,693039360
50,5,2,T1_SMS_8,228,1,48,83,693133508
50,5,2,T1_SMS_8,229,5,42,127,693840216
50,5,2,T1_SMS_8,230,1,48,78,693876540
50,5,2,T1_SMS_8,231,5,42,127,694639948
50,5,2,T1_SMS_8,232,1,48,70,694650996
50,5,2,T1_SMS_8,233,1,48,72,695426180
50,5,2,T1_SMS_8,234,5,42,127,695439896
50,5,2,T1_SMS_8,235,1,48,67,696232712
50,5,2,T1_SMS_8,236,5,42,127,696239556
50,5,2,T1_SMS_8,237,1,38,17,696242748
50,5,2,T1_SMS_8,238,1,48,58,697018900
50,5,2,T1_SMS_8,239,1,38,16,697028832
50,5,2,T1_SMS_8,240,5,42,127,697040232
50,5,2,T1_SMS_8,241,1,48,64,697769716
50,5,2,T1_SMS_8,242,5,42,127,697839936
50,5,2,T1_SMS_8,243,1,48,71,698536536
50,5,2,T1_SMS_8,244,1,38,18,698546692
50,5,2,T1_SMS_8,245,5,42,127,698639784
50,5,2,T1_SMS_8,246,1,48,71,699325716
50,5,2,T1_SMS_8,247,1,38,18,699335564
50,5,2,T1_SMS_8,248,5,42,127,699439900
50,5,2,T1_SMS_8,249,1,48,63,700094812
50,5,2,T1_SMS_8,250,5,42,127,700240160
50,5,2,T1_SMS_8,251,1,48,78,701002852
50,5,2,T1_SMS_8,252,5,42,127,701039984
50,5,2,T1_SMS_8,253,5,42,127,701839648
50,5,2,T1_SMS_8,254,1,48,67,701887296
50,5,2,T1_SMS_8,255,5,42,127,702639608
50,5,2,T1_SMS_8,256,1,48,70,702684560
50,5,2,T1_SMS_8,257,5,42,127,703440112
50,5,2,T1_SMS_8,258,1,48,67,703484664
50,5,2,T1_SMS_8,259,1,48,62,704214672
50,5,2,T1_SMS_8,260,5,42,127,704239912
50,5,2,T1_SMS_8,261,1,48,74,705027276
50,5,2,T1_SMS_8,262,5,42,127,705039724
50,5,2,T1_SMS_8,263,1,48,62,705784220
50,5,2,T1_SMS_8,264,5,42,127,705839680
50,5,2,T1_SMS_8,265,1,48,65,706576096
50,5,2,T1_SMS_8,266,5,42,127,706640160
50,5,2,T1_SMS_8,267,1,48,69,707318760
50,5,2,T1_SMS_8,268,1,38,18,707328912
50,5,2,T1_SMS_8,269,5,42,127,707439832
50,5,2,T1_SMS_8,270,1,48,70,708154500
50,5,2,T1_SMS_8,271,1,38,18,708164576
50,5,2,T1_SMS_8,272,5,42,127,708239712
50,5,2,T1_SMS_8,273,1,48,68,708993752
50,5,2,T1_SMS_8,0,9999,9999,9999,613037168
50,5,2,T1_SMS_8,1,9999,9999,9999,613837896
50,5,2,T1_SMS_8,2,9999,9999,9999,614637656
50,5,2,T1_SMS_8,3,9999,9999,9999,615437388
50,5,2,T1_SMS_8,4,9999,9999,9999,616237112
50,5,2,T1_SMS_8,5,9999,9999,9999,617037896
50,5,2,T1_SMS_8,6,9999,9999,9999,617837628
50,5,2,T1_SMS_8,7,9999,9999,9999,618637360
50,5,2,T1_SMS_8,8,9999,9999,9999,619437168
50,5,2,T1_SMS_8,9,9999,9999,9999,620237884
50,5,2,T1_SMS_8,10,9999,9999,9999,621037616
50,5,2,T1_SMS_8,11,9999,9999,9999,621837424
50,5,2,T1_SMS_8,12,9999,9999,9999,622637156
50,5,2,T1_SMS_8,13,9999,9999,9999,623437936
50,5,2,T1_SMS_8,14,9999,9999,9999,624237620
50,5,2,T1_SMS_8,15,9999,9999,9999,625037380
50,5,2,T1_SMS_8,16,9999,9999,9999,625837112
50,5,2,T1_SMS_8,17,9999,9999,9999,626637932
50,5,2,T1_SMS_8,18,9999,9999,9999,627437648
50,5,2,T1_SMS_8,19,9999,9999,9999,628237360
50,5,2,T1_SMS_8,20,9999,9999,9999,629037164
50,5,2,T1_SMS_8,21,9999,9999,9999,629837940
50,5,2,T1_SMS_8,22,9999,9999,9999,630637660
50,5,2,T1_SMS_8,23,9999,9999,9999,631437392
50,5,2,T1_SMS_8,24,9999,9999,9999,632237124
50,5,2,T1_SMS_8,25,9999,9999,9999,633037880
50,5,2,T1_SMS_8,26,9999,9999,9999,633837648
50,5,2,T1_SMS_8,27,9999,9999,9999,634637408
50,5,2,T1_SMS_8,28,9999,9999,9999,635437140
50,5,2,T1_SMS_8,29,9999,9999,9999,636237920
50,5,2,T1_SMS_8,30,9999,9999,9999,637037652
50,5,2,T1_SMS_8,31,9999,9999,9999,637837384
50,5,2,T1_SMS_8,32,9999,9999,9999,638637148
50,5,2,T1_SMS_8,33,9999,9999,9999,639437876
50,5,2,T1_SMS_8,34,9999,9999,9999,640237652
50,5,2,T1_SMS_8,35,9999,9999,9999,641037384
50,5,2,T1_SMS_8,36,9999,9999,9999,641837132
50,5,2,T1_SMS_8,37,9999,9999,9999,642637912
50,5,2,T1_SMS_8,38,9999,9999,9999,643437648
50,5,2,T1_SMS_8,39,9999,9999,9999,644237364
50,5,2,T1_SMS_8,40,9999,9999,9999,645037112
50,5,2,T1_SMS_8,41,9999,9999,9999,645837920
50,5,2,T1_SMS_8,42,9999,9999,9999,646637660
50,5,2,T1_SMS_8,43,9999,9999,9999,647437388
50,5,2,T1_SMS_8,44,9999,9999,9999,648237124
50,5,2,T1_SMS_8,45,9999,9999,9999,649037916
50,5,2,T1_SMS_8,46,9999,9999,9999,649837664
50,5,2,T1_SMS_8,47,9999,9999,9999,650637380
50,5,2,T1_SMS_8,48,9999,9999,9999,651437144
50,5,2,T1_SMS_8,49,9999,9999,9999,652237900
50,5,2,T1_SMS_8,50,9999,9999,9999,653037636
50,5,2,T1_SMS_8,51,9999,9999,9999,653837388
50,5,2,T1_SMS_8,52,9999,9999,9999,654637124
50,5,2,T1_SMS_8,53,9999,9999,9999,655437904
50,5,2,T1_SMS_8,54,9999,9999,9999,656237632
50,5,2,T1_SMS_8,55,9999,9999,9999,657037424
50,5,2,T1_SMS_8,56,9999,9999,9999,657837172
50,5,2,T1_SMS_8,57,9999,9999,9999,658637884
50,5,2,T1_SMS_8,58,9999,9999,9999,659437672
50,5,2,T1_SMS_8,59,9999,9999,9999,660237360
50,5,2,T1_SMS_8,60,9999,9999,9999,661037144
50,5,2,T1_SMS_8,61,9999,9999,9999,661837876
50,5,2,T1_SMS_8,62,9999,9999,9999,662637636
50,5,2,T1_SMS_8,63,9999,9999,9999,663437400
50,5,2,T1_SMS_8,64,9999,9999,9999,664237128
50,5,2,T1_SMS_8,65,9999,9999,9999,665037912
50,5,2,T1_SMS_8,66,9999,9999,9999,665837672
50,5,2,T1_SMS_8,67,9999,9999,9999,666637360
50,5,2,T1_SMS_8,68,9999,9999,9999,667437164
50,5,2,T1_SMS_8,69,9999,9999,9999,668237892
50,5,2,T1_SMS_8,70,9999,9999,9999,669037680
50,5,2,T1_SMS_8,71,9999,9999,9999,669837424
50,5,2,T1_SMS_8,72,9999,9999,9999,670637164
50,5,2,T1_SMS_8,73,9999,9999,9999,671437896
50,5,2,T1_SMS_8,74,9999,9999,9999,672237660
50,5,2,T1_SMS_8,75,9999,9999,9999,673037360
50,5,2,T1_SMS_8,76,9999,9999,9999,673837168
50,5,2,T1_SMS_8,77,9999,9999,9999,674637876
50,5,2,T1_SMS_8,78,9999,9999,9999,675437684
50,5,2,T1_SMS_8,79,9999,9999,9999,676237416
50,5,2,T1_SMS_8,80,9999,9999,9999,677037160
50,5,2,T1_SMS_8,81,9999,9999,9999,677837880
50,5,2,T1_SMS_8,82,9999,9999,9999,678637624
50,5,2,T1_SMS_8,83,9999,9999,9999,679437424
50,5,2,T1_SMS_8,84,9999,9999,9999,680237140
50,5,2,T1_SMS_8,85,9999,9999,9999,681037876
50,5,2,T1_SMS_8,86,9999,9999,9999,681837632
50,5,2,T1_SMS_8,87,9999,9999,9999,682637384
50,5,2,T1_SMS_8,88,9999,9999,9999,683437116
50,5,2,T1_SMS_8,89,9999,9999,9999,684237924
50,5,2,T1_SMS_8,90,9999,9999,9999,685037656
50,5,2,T1_SMS_8,91,9999,9999,9999,685837372
50,5,2,T1_SMS_8,92,9999,9999,9999,686637124
50,5,2,T1_SMS_8,93,9999,9999,9999,687437904
50,5,2,T1_SMS_8,94,9999,9999,9999,688237624
50,5,2,T1_SMS_8,95,9999,9999,9999,689037376
50,5,2,T1_SMS_8,96,9999,9999,9999,689837164
50,5,2,T1_SMS_8,97,9999,9999,9999,690637924
50,5,2,T1_SMS_8,98,9999,9999,9999,691437672
50,5,2,T1_SMS_8,99,9999,9999,9999,692237412
50,5,2,T1_SMS_8,100,9999,9999,9999,693037148
50,5,2,T1_SMS_8,101,9999,9999,9999,693837924
50,5,2,T1_SMS_8,102,9999,9999,9999,694637660
50,5,2,T1_SMS_8,103,9999,9999,9999,695437384
50,5,2,T1_SMS_8,104,9999,9999,9999,696237120
50,5,2,T1_SMS_8,105,9999,9999,9999,697037944
50,5,2,T1_SMS_8,106,9999,9999,9999,697837648
50,5,2,T1_SMS_8,107,9999,9999,9999,698637420
50,5,2,T1_SMS_8,108,9999,9999,9999,699437168
50,5,2,T1_SMS_8,109,9999,9999,9999,700237872
50,5,2,T1_SMS_8,110,9999,9999,9999,701037624
50,5,2,T1_SMS_8,111,9999,9999,9999,701837360
50,5,2,T1_SMS_8,112,9999,9999,9999,702637168
50,5,2,T1_SMS_8,113,9999,9999,9999,703437900
50,5,2,T1_SMS_8,114,9999,9999,9999,704237624
50,5,2,T1_SMS_8,115,9999,9999,9999,705037360
50,5,2,T1_SMS_8,116,9999,9999,9999,705837168
50,5,2,T1_SMS_8,117,9999,9999,9999,706637872
50,5,2,T1_SMS_8,118,9999,9999,9999,707437616
50,5,2,T1_SMS_8,119,9999,9999,9999,708237420
50,6,23,Ticks_Phase_5,0,5,42,127,720540984
50,6,23,Ticks_Phase_5,1,5,42,127,721040620
50,6,23,Ticks_Phase_5,2,1,48,50,721268196
50,6,23,Ticks_Phase_5,3,5,42,127,721540604
50,6,23,Ticks_Phase_5,4,1,48,54,721667460
50,6,23,Ticks_Phase_5,5,5,42,127,722041416
50,6,23,Ticks_Phase_5,6,1,48,58,722103352
50,6,23,Ticks_Phase_5,7,1,48,54,722481756
50,6,23,Ticks_Phase_5,8,5,42,127,722540872
50,6,23,Ticks_Phase_5,9,1,48,48,722913072
50,6,23,Ticks_Phase_5,10,5,42,127,723040772
50,6,23,Ticks_Phase_5,11,1,48,44,723401676
50,6,23,Ticks_Phase_5,12,5,42,127,723541432
50,6,23,Ticks_Phase_5,13,1,48,55,723850644
50,6,23,Ticks_Phase_5,14,5,42,127,724041192
50,6,23,Ticks_Phase_5,15,1,48,64,724300456
50,6,23,Ticks_Phase_5,16,5,42,127,724540884
50,6,23,Ticks_Phase_5,17,1,48,53,724726596
50,6,23,Ticks_Phase_5,18,5,42,127,725040424
50,6,23,Ticks_Phase_5,19,1,48,51,725115204
50,6,23,Ticks_Phase_5,20,5,42,127,725541232
50,6,23,Ticks_Phase_5,21,1,48,45,725798092
50,6,23,Ticks_Phase_5,22,5,42,127,726041072
50,6,23,Ticks_Phase_5,23,1,48,66,726246328
50,6,23,Ticks_Phase_5,24,5,42,127,726540760
50,6,23,Ticks_Phase_5,25,1,48,72,726666316
50,6,23,Ticks_Phase_5,26,5,42,127,727041272
50,6,23,Ticks_Phase_5,27,1,48,64,727091192
50,6,23,Ticks_Phase_5,28,1,48,68,727486924
50,6,23,Ticks_Phase_5,29,5,42,127,727541324
50,6,23,Ticks_Phase_5,30,1,48,65,727945248
50,6,23,Ticks_Phase_5,31,5,42,127,728040860
50,6,23,Ticks_Phase_5,32,1,48,75,728427860
50,6,23,Ticks_Phase_5,33,5,42,127,728540464
50,6,23,Ticks_Phase_5,34,1,48,71,728903212
50,6,23,Ticks_Phase_5,35,5,42,127,729041344
50,6,23,Ticks_Phase_5,36,1,48,68,729393244
50,6,23,Ticks_Phase_5,37,1,38,17,729402808
50,6,23,Ticks_Phase_5,38,5,42,127,729541060
50,6,23,Ticks_Phase_5,39,1,48,68,729918576
50,6,23,Ticks_Phase_5,40,1,38,17,729928424
50,6,23,Ticks_Phase_5,41,5,42,127,730040628
50,6,23,Ticks_Phase_5,42,1,48,70,730414908
50,6,23,Ticks_Phase_5,43,1,38,17,730424924
50,6,23,Ticks_Phase_5,44,5,42,127,730541440
50,6,23,Ticks_Phase_5,45,1,48,62,730818388
50,6,23,Ticks_Phase_5,46,5,42,127,731051464
50,6,23,Ticks_Phase_5,47,1,48,49,731195468
50,6,23,Ticks_Phase_5,48,5,42,127,731551224
50,6,23,Ticks_Phase_5,49,1,48,46,731611736
50,6,23,Ticks_Phase_5,50,1,48,61,732032680
50,6,23,Ticks_Phase_5,51,5,42,127,732050684
50,6,23,Ticks_Phase_5,52,1,48,61,732464220
50,6,23,Ticks_Phase_5,53,5,42,127,732550372
50,6,23,Ticks_Phase_5,54,1,48,54,732883624
50,6,23,Ticks_Phase_5,55,5,42,127,733051316
50,6,23,Ticks_Phase_5,56,1,48,60,733304132
50,6,23,Ticks_Phase_5,57,5,42,127,733551076
50,6,23,Ticks_Phase_5,58,1,48,50,733750580
50,6,23,Ticks_Phase_5,59,5,42,127,734050764
50,6,23,Ticks_Phase_5,60,1,48,60,734234688
50,6,23,Ticks_Phase_5,61,5,42,127,734551424
50,6,23,Ticks_Phase_5,62,1,48,60,734695584
50,6,23,Ticks_Phase_5,63,5,42,127,735051116
50,6,23,Ticks_Phase_5,64,1,48,63,735102168
50,6,23,Ticks_Phase_5,65,5,42,127,735540548
50,6,23,Ticks_Phase_5,66,1,48,61,735558560
50,6,23,Ticks_Phase_5,67,1,48,57,736025216
50,6,23,Ticks_Phase_5,68,5,42,127,736041276
50,6,23,Ticks_Phase_5,69,1,48,62,736501096
50,6,23,Ticks_Phase_5,70,5,42,127,736541260
50,6,23,Ticks_Phase_5,71,1,48,66,736949340
50,6,23,Ticks_Phase_5,72,5,42,127,737040652
50,6,23,Ticks_Phase_5,73,1,48,66,737425480
50,6,23,Ticks_Phase_5,74,5,42,127,737540324
50,6,23,Ticks_Phase_5,75,1,48,62,737862788
50,6,23,Ticks_Phase_5,76,5,42,127,738041284
50,6,23,Ticks_Phase_5,77,1,48,67,738348552
50,6,23,Ticks_Phase_5,78,5,42,127,738541192
50,6,23,Ticks_Phase_5,79,1,48,66,738786820
50,6,23,Ticks_Phase_5,80,5,42,127,739040584
50,6,23,Ticks_Phase_5,81,1,48,67,739189660
50,6,23,Ticks_Phase_5,82,5,42,127,739541320
50,6,23,Ticks_Phase_5,83,1,48,71,739648528
50,6,23,Ticks_Phase_5,84,5,42,127,740041156
50,6,23,Ticks_Phase_5,85,1,48,72,740089436
50,6,23,Ticks_Phase_5,86,1,48,71,740520044
50,6,23,Ticks_Phase_5,87,5,42,127,740540988
50,6,23,Ticks_Phase_5,88,1,48,76,740983628
50,6,23,Ticks_Phase_5,89,5,42,127,741040352
50,6,23,Ticks_Phase_5,90,1,48,73,741438228
50,6,23,Ticks_Phase_5,91,5,42,127,741541296
50,6,23,Ticks_Phase_5,92,1,48,67,741887296
50,6,23,Ticks_Phase_5,93,5,42,127,742041132
50,6,23,Ticks_Phase_5,94,1,48,55,742332020
50,6,23,Ticks_Phase_5,95,5,42,127,742540672
50,6,23,Ticks_Phase_5,96,1,48,58,742766680
50,6,23,Ticks_Phase_5,97,5,42,127,743041480
50,6,23,Ticks_Phase_5,98,1,48,63,743223080
50,6,23,Ticks_Phase_5,99,5,42,127,743541244
50,6,23,Ticks_Phase_5,100,1,48,62,743683676
50,6,23,Ticks_Phase_5,101,5,42,127,744041008
50,6,23,Ticks_Phase_5,102,1,48,65,744111076
50,6,23,Ticks_Phase_5,103,5,42,127,744551028
50,6,23,Ticks_Phase_5,104,1,48,65,744555192
50,6,23,Ticks_Phase_5,105,1,48,66,745047160
50,6,23,Ticks_Phase_5,106,5,42,127,745050340
50,6,23,Ticks_Phase_5,107,1,48,66,745536812
50,6,23,Ticks_Phase_5,108,5,42,127,745551148
50,6,23,Ticks_Phase_5,109,1,48,67,745953000
50,6,23,Ticks_Phase_5,110,5,42,127,746051944
50,6,23,Ticks_Phase_5,111,1,48,68,746416416
50,6,23,Ticks_Phase_5,112,5,42,127,746550584
50,6,23,Ticks_Phase_5,113,1,48,63,746796212
50,6,23,Ticks_Phase_5,114,5,42,127,747051392
50,6,23,Ticks_Phase_5,115,1,48,55,747149848
50,6,23,Ticks_Phase_5,116,1,48,57,747505808
50,6,23,Ticks_Phase_5,117,5,42,127,747551000
50,6,23,Ticks_Phase_5,118,1,48,64,747914560
50,6,23,Ticks_Phase_5,119,5,42,127,748050968
50,6,23,Ticks_Phase_5,120,1,48,60,748367068
50,6,23,Ticks_Phase_5,121,5,42,127,748550508
50,6,23,Ticks_Phase_5,122,1,48,52,748802132
50,6,23,Ticks_Phase_5,123,5,42,127,749051316
50,6,23,Ticks_Phase_5,124,1,48,63,749244528
50,6,23,Ticks_Phase_5,125,5,42,127,749551080
50,6,23,Ticks_Phase_5,126,1,48,64,749667952
50,6,23,Ticks_Phase_5,127,5,42,127,750050920
50,6,23,Ticks_Phase_5,128,1,48,66,750105184
50,6,23,Ticks_Phase_5,129,5,42,127,750551356
50,6,23,Ticks_Phase_5,130,1,48,65,750564284
50,6,23,Ticks_Phase_5,131,1,48,70,751047112
50,6,23,Ticks_Phase_5,132,5,42,127,751051264
50,6,23,Ticks_Phase_5,133,1,48,69,751495772
50,6,23,Ticks_Phase_5,134,5,42,127,751551024
50,6,23,Ticks_Phase_5,135,1,48,73,751953228
50,6,23,Ticks_Phase_5,136,5,42,127,752050476
50,6,23,Ticks_Phase_5,137,1,48,63,752469844
50,6,23,Ticks_Phase_5,138,5,42,127,752570980
50,6,23,Ticks_Phase_5,139,1,48,62,752945036
50,6,23,Ticks_Phase_5,140,5,42,127,753070348
50,6,23,Ticks_Phase_5,141,1,48,68,753366620
50,6,23,Ticks_Phase_5,142,5,42,127,753571156
50,6,23,Ticks_Phase_5,143,1,48,66,753854556
50,6,23,Ticks_Phase_5,144,5,42,127,754070848
50,6,23,Ticks_Phase_5,145,1,48,64,754343284
50,6,23,Ticks_Phase_5,146,5,42,127,754570832
50,6,23,Ticks_Phase_5,147,1,48,66,754813540
50,6,23,Ticks_Phase_5,148,5,42,127,755071344
50,6,23,Ticks_Phase_5,149,1,48,71,755270620
50,6,23,Ticks_Phase_5,150,5,42,127,755571032
50,6,23,Ticks_Phase_5,151,1,48,63,755757496
50,6,23,Ticks_Phase_5,152,5,42,127,756070868
50,6,23,Ticks_Phase_5,153,1,48,73,756156836
50,6,23,Ticks_Phase_5,154,5,42,127,756570632
50,6,23,Ticks_Phase_5,155,1,48,67,756573148
50,6,23,Ticks_Phase_5,156,1,48,67,757026616
50,6,23,Ticks_Phase_5,157,5,42,127,757071212
50,6,23,Ticks_Phase_5,158,1,48,68,757473664
50,6,23,Ticks_Phase_5,159,5,42,127,757570884
50,6,23,Ticks_Phase_5,160,1,48,65,757927788
50,6,23,Ticks_Phase_5,161,5,42,127,758070868
50,6,23,Ticks_Phase_5,162,1,48,61,758336484
50,6,23,Ticks_Phase_5,163,5,42,127,758571380
50,6,23,Ticks_Phase_5,164,1,48,67,758784584
50,6,23,Ticks_Phase_5,165,5,42,127,759071072
50,6,23,Ticks_Phase_5,166,1,48,66,759194008
50,6,23,Ticks_Phase_5,167,5,42,127,759570908
50,6,23,Ticks_Phase_5,168,1,48,63,759618056
50,6,23,Ticks_Phase_5,169,1,48,71,760036856
50,6,23,Ticks_Phase_5,170,5,42,127,760070740
50,6,23,Ticks_Phase_5,171,1,48,70,760452352
50,6,23,Ticks_Phase_5,172,5,42,127,760571312
50,6,23,Ticks_Phase_5,173,1,48,67,760893172
50,6,23,Ticks_Phase_5,174,5,42,127,761050556
50,6,23,Ticks_Phase_5,175,1,48,69,761306888
50,6,23,Ticks_Phase_5,176,5,42,127,761551144
50,6,23,Ticks_Phase_5,177,1,48,71,761725600
50,6,23,Ticks_Phase_5,178,5,42,127,762050904
50,6,23,Ticks_Phase_5,179,1,48,68,762165676
50,6,23,Ticks_Phase_5,180,5,42,127,762550668
50,6,23,Ticks_Phase_5,181,1,48,67,762576768
50,6,23,Ticks_Phase_5,182,1,48,67,762996820
50,6,23,Ticks_Phase_5,183,5,42,127,763051592
50,6,23,Ticks_Phase_5,184,1,48,66,763441176
50,6,23,Ticks_Phase_5,185,1,38,17,763451260
50,6,23,Ticks_Phase_5,186,5,42,127,763551072
50,6,23,Ticks_Phase_5,187,1,48,62,763874976
50,6,23,Ticks_Phase_5,188,5,42,127,764050832
50,6,23,Ticks_Phase_5,189,1,48,65,764340076
50,6,23,Ticks_Phase_5,190,5,42,127,764550596
50,6,23,Ticks_Phase_5,191,1,48,63,764771964
50,6,23,Ticks_Phase_5,192,5,42,127,765051184
50,6,23,Ticks_Phase_5,193,1,48,57,765203128
50,6,23,Ticks_Phase_5,194,5,42,127,765551020
50,6,23,Ticks_Phase_5,195,1,48,62,765646420
50,6,23,Ticks_Phase_5,196,5,42,127,766050708
50,6,23,Ticks_Phase_5,197,1,48,59,766078756
50,6,23,Ticks_Phase_5,198,1,48,62,766534108
50,6,23,Ticks_Phase_5,199,5,42,127,766551584
50,6,23,Ticks_Phase_5,200,1,48,62,766973808
50,6,23,Ticks_Phase_5,201,5,42,127,767051424
50,6,23,Ticks_Phase_5,202,1,48,72,767438296
50,6,23,Ticks_Phase_5,203,5,42,127,767550800
50,6,23,Ticks_Phase_5,204,1,48,62,767865920
50,6,23,Ticks_Phase_5,205,5,42,127,768050412
50,6,23,Ticks_Phase_5,206,1,48,66,768282556
50,6,23,Ticks_Phase_5,207,5,42,127,768551596
50,6,23,Ticks_Phase_5,208,1,48,67,768729460
50,6,23,Ticks_Phase_5,209,5,42,127,769000736
50,6,23,Ticks_Phase_5,210,1,48,66,769175048
50,6,23,Ticks_Phase_5,211,5,42,127,769500424
50,6,23,Ticks_Phase_5,212,1,48,60,769612808
50,6,23,Ticks_Phase_5,213,5,42,127,770001308
50,6,23,Ticks_Phase_5,214,1,48,71,770035056
50,6,23,Ticks_Phase_5,215,1,48,70,770458020
50,6,23,Ticks_Phase_5,216,5,42,127,770500912
50,6,23,Ticks_Phase_5,217,1,48,71,770912704
50,6,23,Ticks_Phase_5,218,5,42,127,771000752
50,6,23,Ticks_Phase_5,219,1,48,69,771351660
50,6,23,Ticks_Phase_5,220,5,42,127,771501592
50,6,23,Ticks_Phase_5,221,1,48,65,771817864
50,6,23,Ticks_Phase_5,222,5,42,127,772011316
50,6,23,Ticks_Phase_5,223,1,48,69,772253276
50,6,23,Ticks_Phase_5,224,5,42,127,772511152
50,6,23,Ticks_Phase_5,225,1,48,72,772678908
50,6,23,Ticks_Phase_5,226,5,42,127,773010768
50,6,23,Ticks_Phase_5,227,1,48,69,773117328
50,6,23,Ticks_Phase_5,228,5,42,127,773510456
50,6,23,Ticks_Phase_5,229,1,48,67,773529084
50,6,23,Ticks_Phase_5,230,1,48,66,773974976
50,6,23,Ticks_Phase_5,231,1,38,17,773984992
50,6,23,Ticks_Phase_5,232,5,42,127,774011388
50,6,23,Ticks_Phase_5,233,1,48,66,774445488
50,6,23,Ticks_Phase_5,234,5,42,127,774510972
50,6,23,Ticks_Phase_5,235,1,48,67,774926004
50,6,23,Ticks_Phase_5,236,1,38,17,774936096
50,6,23,Ticks_Phase_5,237,5,42,127,775010644
50,6,23,Ticks_Phase_5,238,1,48,72,775391800
50,6,23,Ticks_Phase_5,239,5,42,127,775511336
50,6,23,Ticks_Phase_5,240,1,48,59,775838584
50,6,23,Ticks_Phase_5,241,1,38,16,775848156
50,6,23,Ticks_Phase_5,242,5,42,127,776011272
50,6,23,Ticks_Phase_5,243,1,48,64,776286856
50,6,23,Ticks_Phase_5,244,1,38,17,776296496
50,6,23,Ticks_Phase_5,245,5,42,127,776510764
50,6,23,Ticks_Phase_5,246,1,48,66,776712956
50,6,23,Ticks_Phase_5,247,5,42,127,777010452
50,6,23,Ticks_Phase_5,248,1,48,64,777149224
50,6,23,Ticks_Phase_5,249,5,42,127,777560464
50,6,23,Ticks_Phase_5,250,1,48,63,777587020
50,6,23,Ticks_Phase_5,251,1,48,65,778022596
50,6,23,Ticks_Phase_5,252,5,42,127,778061492
50,6,23,Ticks_Phase_5,253,1,48,55,778442228
50,6,23,Ticks_Phase_5,254,5,42,127,778560940
50,6,23,Ticks_Phase_5,255,1,48,77,778908260
50,6,23,Ticks_Phase_5,256,5,42,127,779060480
50,6,23,Ticks_Phase_5,257,1,48,65,779319892
50,6,23,Ticks_Phase_5,258,5,42,127,779561364
50,6,23,Ticks_Phase_5,259,1,48,73,779748588
50,6,23,Ticks_Phase_5,260,5,42,127,780061200
50,6,23,Ticks_Phase_5,261,1,48,73,780155232
50,6,23,Ticks_Phase_5,262,5,42,127,780560740
50,6,23,Ticks_Phase_5,263,1,48,77,780591200
50,6,23,Ticks_Phase_5,264,1,48,71,781009472
50,6,23,Ticks_Phase_5,265,1,38,18,781019108
50,6,23,Ticks_Phase_5,266,5,42,127,781060404
50,6,23,Ticks_Phase_5,267,1,48,73,781430376
50,6,23,Ticks_Phase_5,268,5,42,127,781561316
50,6,23,Ticks_Phase_5,269,1,48,75,781850608
50,6,23,Ticks_Phase_5,270,5,42,127,782060932
50,6,23,Ticks_Phase_5,271,1,48,67,782253364
50,6,23,Ticks_Phase_5,272,5,42,127,782560692
50,6,23,Ticks_Phase_5,273,1,48,62,782678248
50,6,23,Ticks_Phase_5,274,5,42,127,783061424
50,6,23,Ticks_Phase_5,275,1,48,70,783113224
50,6,23,Ticks_Phase_5,276,1,48,22,783211608
50,6,23,Ticks_Phase_5,277,1,48,70,783538968
50,6,23,Ticks_Phase_5,278,5,42,127,783561236
50,6,23,Ticks_Phase_5,279,1,48,67,783967552
50,6,23,Ticks_Phase_5,280,5,42,127,784060700
50,6,23,Ticks_Phase_5,281,1,48,59,784389148
50,6,23,Ticks_Phase_5,282,5,42,127,784560448
50,6,23,Ticks_Phase_5,283,1,48,70,784803056
50,6,23,Ticks_Phase_5,284,5,42,127,785061160
50,6,23,Ticks_Phase_5,285,1,48,58,785231528
50,6,23,Ticks_Phase_5,286,5,42,127,785561068
50,6,23,Ticks_Phase_5,287,1,48,62,785662392
50,6,23,Ticks_Phase_5,288,1,48,67,786092476
50,6,23,Ticks_Phase_5,289,5,42,127,786161124
50,6,23,Ticks_Phase_5,290,1,48,70,786526632
50,6,23,Ticks_Phase_5,291,5,42,127,786660728
50,6,23,Ticks_Phase_5,292,1,48,69,787066456
50,6,23,Ticks_Phase_5,293,5,42,127,787160576
50,6,23,Ticks_Phase_5,294,1,48,68,787542712
50,6,23,Ticks_Phase_5,295,1,38,17,787552728
50,6,23,Ticks_Phase_5,296,5,42,127,787661100
50,6,23,Ticks_Phase_5,297,1,48,72,788020488
50,6,23,Ticks_Phase_5,298,1,38,18,788030352
50,6,23,Ticks_Phase_5,299,5,42,127,788160816
50,6,23,Ticks_Phase_5,300,1,48,59,788490020
50,6,23,Ticks_Phase_5,301,5,42,127,788660504
50,6,23,Ticks_Phase_5,302,1,48,67,788972032
50,6,23,Ticks_Phase_5,303,5,42,127,789161364
50,6,23,Ticks_Phase_5,304,1,48,72,789409844
50,6,23,Ticks_Phase_5,305,5,42,127,789661124
50,6,23,Ticks_Phase_5,306,1,48,70,789849400
50,6,23,Ticks_Phase_5,307,5,42,127,790160740
50,6,23,Ticks_Phase_5,308,1,48,67,790284072
50,6,23,Ticks_Phase_5,309,5,42,127,790660500
50,6,23,Ticks_Phase_5,310,1,48,64,790742056
50,6,23,Ticks_Phase_5,311,5,42,127,791161160
50,6,23,Ticks_Phase_5,312,1,48,60,791195352
50,6,23,Ticks_Phase_5,313,1,48,62,791650856
50,6,23,Ticks_Phase_5,314,5,42,127,791660916
50,6,23,Ticks_Phase_5,315,5,42,127,792160536
50,6,23,Ticks_Phase_5,316,1,48,67,792161504
50,6,23,Ticks_Phase_5,317,1,48,61,792605816
50,6,23,Ticks_Phase_5,318,5,42,127,792661488
50,6,23,Ticks_Phase_5,319,1,48,65,793074804
50,6,23,Ticks_Phase_5,320,5,42,127,793160952
50,6,23,Ticks_Phase_5,321,1,48,69,793522964
50,6,23,Ticks_Phase_5,322,5,42,127,793661000
50,6,23,Ticks_Phase_5,323,1,48,64,793957996
50,6,23,Ticks_Phase_5,324,5,42,127,794160388
50,6,23,Ticks_Phase_5,325,1,48,65,794412828
50,6,23,Ticks_Phase_5,326,5,42,127,794661200
50,6,23,Ticks_Phase_5,327,1,48,55,794869844
50,6,23,Ticks_Phase_5,328,5,42,127,795161112
50,6,23,Ticks_Phase_5,329,1,48,66,795328028
50,6,23,Ticks_Phase_5,330,5,42,127,795561400
50,6,23,Ticks_Phase_5,331,1,48,63,795775424
50,6,23,Ticks_Phase_5,332,5,42,127,796061088
50,6,23,Ticks_Phase_5,333,1,48,67,796237440
50,6,23,Ticks_Phase_5,334,5,42,127,796560848
50,6,23,Ticks_Phase_5,335,1,48,66,796703208
50,6,23,Ticks_Phase_5,336,5,42,127,797060388
50,6,23,Ticks_Phase_5,337,1,48,69,797145604
50,6,23,Ticks_Phase_5,338,5,42,127,797561196
50,6,23,Ticks_Phase_5,339,1,48,73,797574796
50,6,23,Ticks_Phase_5,340,1,48,72,798046620
50,6,23,Ticks_Phase_5,341,5,42,127,798060880
50,6,23,Ticks_Phase_5,342,1,48,69,798522192
50,6,23,Ticks_Phase_5,343,5,42,127,798560568
50,6,23,Ticks_Phase_5,344,1,48,77,798997616
50,6,23,Ticks_Phase_5,345,5,42,127,799061228
50,6,23,Ticks_Phase_5,346,1,48,79,799449084
50,6,23,Ticks_Phase_5,347,5,42,127,799561052
50,6,23,Ticks_Phase_5,348,1,48,76,799934616
50,6,23,Ticks_Phase_5,349,5,42,127,800060964
50,6,23,Ticks_Phase_5,350,1,48,72,800389800
50,6,23,Ticks_Phase_5,351,5,42,127,800560580
50,6,23,Ticks_Phase_5,352,1,48,54,800894944
50,6,23,Ticks_Phase_5,353,5,42,127,801061316
50,6,23,Ticks_Phase_5,354,1,48,72,801355616
50,6,23,Ticks_Phase_5,355,5,42,127,801560928
50,6,23,Ticks_Phase_5,356,1,48,64,801841980
50,6,23,Ticks_Phase_5,357,5,42,127,802060768
50,6,23,Ticks_Phase_5,358,1,48,67,802308500
50,6,23,Ticks_Phase_5,359,5,42,127,802561500
50,6,23,Ticks_Phase_5,360,1,48,61,802826896
50,6,23,Ticks_Phase_5,361,5,42,127,803061116
50,6,23,Ticks_Phase_5,362,1,48,62,803310488
50,6,23,Ticks_Phase_5,363,5,42,127,803560728
50,6,23,Ticks_Phase_5,364,1,48,67,803777820
50,6,23,Ticks_Phase_5,365,5,42,127,804060640
50,6,23,Ticks_Phase_5,366,1,48,58,804205744
50,6,23,Ticks_Phase_5,367,5,42,127,804561228
50,6,23,Ticks_Phase_5,368,1,48,54,804669192
50,6,23,Ticks_Phase_5,369,5,42,127,805061068
50,6,23,Ticks_Phase_5,0,9999,9999,9999,720538696
50,6,23,Ticks_Phase_5,1,9999,9999,9999,721038408
50,6,23,Ticks_Phase_5,2,9999,9999,9999,721538168
50,6,23,Ticks_Phase_5,3,9999,9999,9999,722038904
50,6,23,Ticks_Phase_5,4,9999,9999,9999,722538588
50,6,23,Ticks_Phase_5,5,9999,9999,9999,723038336
50,6,23,Ticks_Phase_5,6,9999,9999,9999,723539068
50,6,23,Ticks_Phase_5,7,9999,9999,9999,724038756
50,6,23,Ticks_Phase_5,8,9999,9999,9999,724538448
50,6,23,Ticks_Phase_5,9,9999,9999,9999,725038136
50,6,23,Ticks_Phase_5,10,9999,9999,9999,725538872
50,6,23,Ticks_Phase_5,11,9999,9999,9999,726038636
50,6,23,Ticks_Phase_5,12,9999,9999,9999,726538324
50,6,23,Ticks_Phase_5,13,9999,9999,9999,727039056
50,6,23,Ticks_Phase_5,14,9999,9999,9999,727538816
50,6,23,Ticks_Phase_5,15,9999,9999,9999,728038500
50,6,23,Ticks_Phase_5,16,9999,9999,9999,728538176
50,6,23,Ticks_Phase_5,17,9999,9999,9999,729038912
50,6,23,Ticks_Phase_5,18,9999,9999,9999,729538624
50,6,23,Ticks_Phase_5,19,9999,9999,9999,730038340
50,6,23,Ticks_Phase_5,20,9999,9999,9999,730539076
50,6,23,Ticks_Phase_5,21,9999,9999,9999,731049028
50,6,23,Ticks_Phase_5,22,9999,9999,9999,731548788
50,6,23,Ticks_Phase_5,23,9999,9999,9999,732048472
50,6,23,Ticks_Phase_5,24,9999,9999,9999,732548160
50,6,23,Ticks_Phase_5,25,9999,9999,9999,733048956
50,6,23,Ticks_Phase_5,26,9999,9999,9999,733548640
50,6,23,Ticks_Phase_5,27,9999,9999,9999,734048328
50,6,23,Ticks_Phase_5,28,9999,9999,9999,734549064
50,6,23,Ticks_Phase_5,29,9999,9999,9999,735048828
50,6,23,Ticks_Phase_5,30,9999,9999,9999,735538260
50,6,23,Ticks_Phase_5,31,9999,9999,9999,736038988
50,6,23,Ticks_Phase_5,32,9999,9999,9999,736538676
50,6,23,Ticks_Phase_5,33,9999,9999,9999,737038440
50,6,23,Ticks_Phase_5,34,9999,9999,9999,737538112
50,6,23,Ticks_Phase_5,35,9999,9999,9999,738038848
50,6,23,Ticks_Phase_5,36,9999,9999,9999,738538608
50,6,23,Ticks_Phase_5,37,9999,9999,9999,739038296
50,6,23,Ticks_Phase_5,38,9999,9999,9999,739539032
50,6,23,Ticks_Phase_5,39,9999,9999,9999,740038720
50,6,23,Ticks_Phase_5,40,9999,9999,9999,740538476
50,6,23,Ticks_Phase_5,41,9999,9999,9999,741038140
50,6,23,Ticks_Phase_5,42,9999,9999,9999,741538936
50,6,23,Ticks_Phase_5,43,9999,9999,9999,742038624
50,6,23,Ticks_Phase_5,44,9999,9999,9999,742538312
50,6,23,Ticks_Phase_5,45,9999,9999,9999,743039044
50,6,23,Ticks_Phase_5,46,9999,9999,9999,743538808
50,6,23,Ticks_Phase_5,47,9999,9999,9999,744038496
50,6,23,Ticks_Phase_5,48,9999,9999,9999,744548444
50,6,23,Ticks_Phase_5,49,9999,9999,9999,745048128
50,6,23,Ticks_Phase_5,50,9999,9999,9999,745548864
50,6,23,Ticks_Phase_5,51,9999,9999,9999,746048624
50,6,23,Ticks_Phase_5,52,9999,9999,9999,746548296
50,6,23,Ticks_Phase_5,53,9999,9999,9999,747049032
50,6,23,Ticks_Phase_5,54,9999,9999,9999,747548788
50,6,23,Ticks_Phase_5,55,9999,9999,9999,748048460
50,6,23,Ticks_Phase_5,56,9999,9999,9999,748548220
50,6,23,Ticks_Phase_5,57,9999,9999,9999,749048956
50,6,23,Ticks_Phase_5,58,9999,9999,9999,749548644
50,6,23,Ticks_Phase_5,59,9999,9999,9999,750048336
50,6,23,Ticks_Phase_5,60,9999,9999,9999,750549068
50,6,23,Ticks_Phase_5,61,9999,9999,9999,751048828
50,6,23,Ticks_Phase_5,62,9999,9999,9999,751548516
50,6,23,Ticks_Phase_5,63,9999,9999,9999,752048236
50,6,23,Ticks_Phase_5,64,9999,9999,9999,752568392
50,6,23,Ticks_Phase_5,65,9999,9999,9999,753068136
50,6,23,Ticks_Phase_5,66,9999,9999,9999,753568868
50,6,23,Ticks_Phase_5,67,9999,9999,9999,754068560
50,6,23,Ticks_Phase_5,68,9999,9999,9999,754568248
50,6,23,Ticks_Phase_5,69,9999,9999,9999,755068984
50,6,23,Ticks_Phase_5,70,9999,9999,9999,755568744
50,6,23,Ticks_Phase_5,71,9999,9999,9999,756068432
50,6,23,Ticks_Phase_5,72,9999,9999,9999,756568124
50,6,23,Ticks_Phase_5,73,9999,9999,9999,757068924
50,6,23,Ticks_Phase_5,74,9999,9999,9999,757568596
50,6,23,Ticks_Phase_5,75,9999,9999,9999,758068284
50,6,23,Ticks_Phase_5,76,9999,9999,9999,758569020
50,6,23,Ticks_Phase_5,77,9999,9999,9999,759068780
50,6,23,Ticks_Phase_5,78,9999,9999,9999,759568472
50,6,23,Ticks_Phase_5,79,9999,9999,9999,760068156
50,6,23,Ticks_Phase_5,80,9999,9999,9999,760568948
50,6,23,Ticks_Phase_5,81,9999,9999,9999,761048120
50,6,23,Ticks_Phase_5,82,9999,9999,9999,761548856
50,6,23,Ticks_Phase_5,83,9999,9999,9999,762048620
50,6,23,Ticks_Phase_5,84,9999,9999,9999,762548304
50,6,23,Ticks_Phase_5,85,9999,9999,9999,763049084
50,6,23,Ticks_Phase_5,86,9999,9999,9999,763548736
50,6,23,Ticks_Phase_5,87,9999,9999,9999,764048472
50,6,23,Ticks_Phase_5,88,9999,9999,9999,764548160
50,6,23,Ticks_Phase_5,89,9999,9999,9999,765048896
50,6,23,Ticks_Phase_5,90,9999,9999,9999,765548660
50,6,23,Ticks_Phase_5,91,9999,9999,9999,766048348
50,6,23,Ticks_Phase_5,92,9999,9999,9999,766549076
50,6,23,Ticks_Phase_5,93,9999,9999,9999,767048764
50,6,23,Ticks_Phase_5,94,9999,9999,9999,767548512
50,6,23,Ticks_Phase_5,95,9999,9999,9999,768048200
50,6,23,Ticks_Phase_5,96,9999,9999,9999,768548932
50,6,23,Ticks_Phase_5,97,9999,9999,9999,768998520
50,6,23,Ticks_Phase_5,98,9999,9999,9999,769498212
50,6,23,Ticks_Phase_5,99,9999,9999,9999,769998948
50,6,23,Ticks_Phase_5,100,9999,9999,9999,770498628
50,6,23,Ticks_Phase_5,101,9999,9999,9999,770998388
50,6,23,Ticks_Phase_5,102,9999,9999,9999,771499084
50,6,23,Ticks_Phase_5,103,9999,9999,9999,772009028
50,6,23,Ticks_Phase_5,104,9999,9999,9999,772508792
50,6,23,Ticks_Phase_5,105,9999,9999,9999,773008480
50,6,23,Ticks_Phase_5,106,9999,9999,9999,773508168
50,6,23,Ticks_Phase_5,107,9999,9999,9999,774008952
50,6,23,Ticks_Phase_5,108,9999,9999,9999,774508612
50,6,23,Ticks_Phase_5,109,9999,9999,9999,775008356
50,6,23,Ticks_Phase_5,110,9999,9999,9999,775509048
50,6,23,Ticks_Phase_5,111,9999,9999,9999,776008764
50,6,23,Ticks_Phase_5,112,9999,9999,9999,776508476
50,6,23,Ticks_Phase_5,113,9999,9999,9999,777008240
50,6,23,Ticks_Phase_5,114,9999,9999,9999,777558104
50,6,23,Ticks_Phase_5,115,9999,9999,9999,778058832
50,6,23,Ticks_Phase_5,116,9999,9999,9999,778558580
50,6,23,Ticks_Phase_5,117,9999,9999,9999,779058268
50,6,23,Ticks_Phase_5,118,9999,9999,9999,779559004
50,6,23,Ticks_Phase_5,119,9999,9999,9999,780058688
50,6,23,Ticks_Phase_5,120,9999,9999,9999,780558452
50,6,23,Ticks_Phase_5,121,9999,9999,9999,781058116
50,6,23,Ticks_Phase_5,122,9999,9999,9999,781558880
50,6,23,Ticks_Phase_5,123,9999,9999,9999,782058568
50,6,23,Ticks_Phase_5,124,9999,9999,9999,782558328
50,6,23,Ticks_Phase_5,125,9999,9999,9999,783059064
50,6,23,Ticks_Phase_5,126,9999,9999,9999,783558724
50,6,23,Ticks_Phase_5,127,9999,9999,9999,784058488
50,6,23,Ticks_Phase_5,128,9999,9999,9999,784558136
50,6,23,Ticks_Phase_5,129,9999,9999,9999,785058872
50,6,23,Ticks_Phase_5,130,9999,9999,9999,785558632
50,6,23,Ticks_Phase_5,131,9999,9999,9999,786158688
50,6,23,Ticks_Phase_5,132,9999,9999,9999,786658364
50,6,23,Ticks_Phase_5,133,9999,9999,9999,787158140
50,6,23,Ticks_Phase_5,134,9999,9999,9999,787658812
50,6,23,Ticks_Phase_5,135,9999,9999,9999,788158528
50,6,23,Ticks_Phase_5,136,9999,9999,9999,788658292
50,6,23,Ticks_Phase_5,137,9999,9999,9999,789159000
50,6,23,Ticks_Phase_5,138,9999,9999,9999,789658688
50,6,23,Ticks_Phase_5,139,9999,9999,9999,790158452
50,6,23,Ticks_Phase_5,140,9999,9999,9999,790658140
50,6,23,Ticks_Phase_5,141,9999,9999,9999,791158876
50,6,23,Ticks_Phase_5,142,9999,9999,9999,791658556
50,6,23,Ticks_Phase_5,143,9999,9999,9999,792158324
50,6,23,Ticks_Phase_5,144,9999,9999,9999,792659052
50,6,23,Ticks_Phase_5,145,9999,9999,9999,793158740
50,6,23,Ticks_Phase_5,146,9999,9999,9999,793658488
50,6,23,Ticks_Phase_5,147,9999,9999,9999,794158176
50,6,23,Ticks_Phase_5,148,9999,9999,9999,794658912
50,6,23,Ticks_Phase_5,149,9999,9999,9999,795158600
50,6,23,Ticks_Phase_5,150,9999,9999,9999,795559036
50,6,23,Ticks_Phase_5,151,9999,9999,9999,796058724
50,6,23,Ticks_Phase_5,152,9999,9999,9999,796558412
50,6,23,Ticks_Phase_5,153,9999,9999,9999,797058104
50,6,23,Ticks_Phase_5,154,9999,9999,9999,797558912
50,6,23,Ticks_Phase_5,155,9999,9999,9999,798058592
50,6,23,Ticks_Phase_5,156,9999,9999,9999,798558280
50,6,23,Ticks_Phase_5,157,9999,9999,9999,799059016
50,6,23,Ticks_Phase_5,158,9999,9999,9999,799558764
50,6,23,Ticks_Phase_5,159,9999,9999,9999,800058456
50,6,23,Ticks_Phase_5,160,9999,9999,9999,800558144
50,6,23,Ticks_Phase_5,161,9999,9999,9999,801058880
50,6,23,Ticks_Phase_5,162,9999,9999,9999,801558640
50,6,23,Ticks_Phase_5,163,9999,9999,9999,802058332
50,6,23,Ticks_Phase_5,164,9999,9999,9999,802559064
50,6,23,Ticks_Phase_5,165,9999,9999,9999,803058752
50,6,23,Ticks_Phase_5,166,9999,9999,9999,803558516
50,6,23,Ticks_Phase_5,167,9999,9999,9999,804058204
50,6,23,Ticks_Phase_5,168,9999,9999,9999,804558940
50,6,23,Ticks_Phase_5,169,9999,9999,9999,805058632
50,7,22,Ticks_Phase_8,0,5,42,127,816597724
50,7,22,Ticks_Phase_8,1,1,48,51,817090960
50,7,22,Ticks_Phase_8,2,5,42,127,817397212
50,7,22,Ticks_Phase_8,3,5,42,127,818196800
50,7,22,Ticks_Phase_8,4,1,48,38,818397120
50,7,22,Ticks_Phase_8,5,1,48,73,818917020
50,7,22,Ticks_Phase_8,6,5,42,127,818996576
50,7,22,Ticks_Phase_8,7,1,48,68,819707888
50,7,22,Ticks_Phase_8,8,1,38,17,819717756
50,7,22,Ticks_Phase_8,9,5,42,127,819797540
50,7,22,Ticks_Phase_8,10,1,48,64,820550536
50,7,22,Ticks_Phase_8,11,5,42,127,820597076
50,7,22,Ticks_Phase_8,12,1,48,61,821312876
50,7,22,Ticks_Phase_8,13,1,38,16,821322820
50,7,22,Ticks_Phase_8,14,5,42,127,821396840
50,7,22,Ticks_Phase_8,15,1,48,67,822063036
50,7,22,Ticks_Phase_8,16,5,42,127,822196536
50,7,22,Ticks_Phase_8,17,1,48,68,822868672
50,7,22,Ticks_Phase_8,18,5,42,127,822997516
50,7,22,Ticks_Phase_8,19,1,48,76,823685836
50,7,22,Ticks_Phase_8,20,5,42,127,823797380
50,7,22,Ticks_Phase_8,21,1,48,67,824471612
50,7,22,Ticks_Phase_8,22,5,42,127,824597016
50,7,22,Ticks_Phase_8,23,1,48,65,825205648
50,7,22,Ticks_Phase_8,24,5,42,127,825396504
50,7,22,Ticks_Phase_8,25,1,48,78,826065300
50,7,22,Ticks_Phase_8,26,1,38,19,826075240
50,7,22,Ticks_Phase_8,27,5,42,127,826197436
50,7,22,Ticks_Phase_8,28,1,48,76,826901272
50,7,22,Ticks_Phase_8,29,1,38,19,826911140
50,7,22,Ticks_Phase_8,30,5,42,127,826997516
50,7,22,Ticks_Phase_8,31,1,48,76,827698020
50,7,22,Ticks_Phase_8,32,1,38,19,827708112
50,7,22,Ticks_Phase_8,33,5,42,127,827796792
50,7,22,Ticks_Phase_8,34,1,48,80,828461972
50,7,22,Ticks_Phase_8,35,1,38,19,828471912
50,7,22,Ticks_Phase_8,36,5,42,127,828596544
50,7,22,Ticks_Phase_8,37,1,48,73,829306204
50,7,22,Ticks_Phase_8,38,5,42,127,829397316
50,7,22,Ticks_Phase_8,39,1,48,69,830169588
50,7,22,Ticks_Phase_8,40,5,42,127,830197400
50,7,22,Ticks_Phase_8,41,1,48,85,830972364
50,7,22,Ticks_Phase_8,42,1,38,19,830982160
50,7,22,Ticks_Phase_8,43,5,42,127,830996792
50,7,22,Ticks_Phase_8,44,1,48,88,831739308
50,7,22,Ticks_Phase_8,45,5,42,127,831796628
50,7,22,Ticks_Phase_8,46,1,48,88,832483672
50,7,22,Ticks_Phase_8,47,5,42,127,832597296
50,7,22,Ticks_Phase_8,48,1,48,82,833303828
50,7,22,Ticks_Phase_8,49,5,42,127,833397096
50,7,22,Ticks_Phase_8,50,1,48,91,834048504
50,7,22,Ticks_Phase_8,51,5,42,127,834196796
50,7,22,Ticks_Phase_8,52,1,48,85,834842588
50,7,22,Ticks_Phase_8,53,5,42,127,834996532
50,7,22,Ticks_Phase_8,54,1,48,103,835659604
50,7,22,Ticks_Phase_8,55,5,42,127,835797216
50,7,22,Ticks_Phase_8,56,1,48,79,836457972
50,7,22,Ticks_Phase_8,57,5,42,127,836597076
50,7,22,Ticks_Phase_8,58,1,48,67,837229676
50,7,22,Ticks_Phase_8,59,5,42,127,837396788
50,7,22,Ticks_Phase_8,60,1,48,77,838043308
50,7,22,Ticks_Phase_8,61,5,42,127,838196576
50,7,22,Ticks_Phase_8,62,1,48,58,838808128
50,7,22,Ticks_Phase_8,63,5,42,127,838997408
50,7,22,Ticks_Phase_8,64,1,48,56,839532648
50,7,22,Ticks_Phase_8,65,5,42,127,839797120
50,7,22,Ticks_Phase_8,66,1,48,60,840335736
50,7,22,Ticks_Phase_8,67,5,42,127,840577432
50,7,22,Ticks_Phase_8,68,1,48,70,841114696
50,7,22,Ticks_Phase_8,69,5,42,127,841376996
50,7,22,Ticks_Phase_8,70,1,48,55,841891340
50,7,22,Ticks_Phase_8,71,5,42,127,842176956
50,7,22,Ticks_Phase_8,72,1,48,60,842667396
50,7,22,Ticks_Phase_8,73,5,42,127,842976716
50,7,22,Ticks_Phase_8,74,1,48,71,843610364
50,7,22,Ticks_Phase_8,75,5,42,127,843777328
50,7,22,Ticks_Phase_8,76,1,48,80,844387160
50,7,22,Ticks_Phase_8,77,5,42,127,844577188
50,7,22,Ticks_Phase_8,78,1,48,67,845095360
50,7,22,Ticks_Phase_8,79,5,42,127,845376900
50,7,22,Ticks_Phase_8,80,1,48,73,846064256
50,7,22,Ticks_Phase_8,81,5,42,127,846176540
50,7,22,Ticks_Phase_8,82,1,48,77,846931668
50,7,22,Ticks_Phase_8,83,5,42,127,846977384
50,7,22,Ticks_Phase_8,84,1,48,75,847771224
50,7,22,Ticks_Phase_8,85,5,42,127,847777248
50,7,22,Ticks_Phase_8,86,1,48,47,848552068
50,7,22,Ticks_Phase_8,87,5,42,127,848576984
50,7,22,Ticks_Phase_8,88,1,48,70,849246940
50,7,22,Ticks_Phase_8,89,5,42,127,849376828
50,7,22,Ticks_Phase_8,90,1,48,87,850110996
50,7,22,Ticks_Phase_8,91,5,42,127,850177528
50,7,22,Ticks_Phase_8,92,1,48,74,850856616
50,7,22,Ticks_Phase_8,93,5,42,127,850977076
50,7,22,Ticks_Phase_8,94,1,48,83,851625256
50,7,22,Ticks_Phase_8,95,5,42,127,851776860
50,7,22,Ticks_Phase_8,96,1,48,87,852473280
50,7,22,Ticks_Phase_8,97,5,42,127,852576796
50,7,22,Ticks_Phase_8,98,1,48,74,853295544
50,7,22,Ticks_Phase_8,99,5,42,127,853377348
50,7,22,Ticks_Phase_8,100,1,48,61,854116676
50,7,22,Ticks_Phase_8,101,5,42,127,854177284
50,7,22,Ticks_Phase_8,102,1,48,65,854908000
50,7,22,Ticks_Phase_8,103,5,42,127,854997392
50,7,22,Ticks_Phase_8,104,1,48,65,855700520
50,7,22,Ticks_Phase_8,105,5,42,127,855797088
50,7,22,Ticks_Phase_8,106,1,48,67,856441808
50,7,22,Ticks_Phase_8,107,5,42,127,856596800
50,7,22,Ticks_Phase_8,108,1,48,75,857257704
50,7,22,Ticks_Phase_8,109,5,42,127,857396808
50,7,22,Ticks_Phase_8,110,1,48,76,858166332
50,7,22,Ticks_Phase_8,111,5,42,127,858197360
50,7,22,Ticks_Phase_8,112,5,42,127,858997076
50,7,22,Ticks_Phase_8,113,1,48,82,859012472
50,7,22,Ticks_Phase_8,114,5,42,127,859796864
50,7,22,Ticks_Phase_8,115,1,48,79,859862160
50,7,22,Ticks_Phase_8,116,5,42,127,860596676
50,7,22,Ticks_Phase_8,117,1,48,76,860699992
50,7,22,Ticks_Phase_8,118,1,48,82,861351388
50,7,22,Ticks_Phase_8,119,5,42,127,861397572
50,7,22,Ticks_Phase_8,120,1,48,81,862130604
50,7,22,Ticks_Phase_8,121,5,42,127,862197212
50,7,22,Ticks_Phase_8,122,1,48,78,862833756
50,7,22,Ticks_Phase_8,123,5,42,127,862996832
50,7,22,Ticks_Phase_8,124,1,48,83,863700816
50,7,22,Ticks_Phase_8,125,5,42,127,863796708
50,7,22,Ticks_Phase_8,126,1,48,74,864491240
50,7,22,Ticks_Phase_8,127,5,42,127,864597452
50,7,22,Ticks_Phase_8,128,1,48,80,865344808
50,7,22,Ticks_Phase_8,129,5,42,127,865397324
50,7,22,Ticks_Phase_8,130,5,42,127,866196748
50,7,22,Ticks_Phase_8,131,1,48,73,866238232
50,7,22,Ticks_Phase_8,132,5,42,127,866996636
50,7,22,Ticks_Phase_8,133,1,48,81,867067604
50,7,22,Ticks_Phase_8,134,1,48,70,867718104
50,7,22,Ticks_Phase_8,135,5,42,127,867837588
50,7,22,Ticks_Phase_8,136,1,48,90,868564712
50,7,22,Ticks_Phase_8,137,5,42,127,868637168
50,7,22,Ticks_Phase_8,138,1,48,72,869410264
50,7,22,Ticks_Phase_8,139,5,42,127,869436732
50,7,22,Ticks_Phase_8,140,1,48,68,870181440
50,7,22,Ticks_Phase_8,141,5,42,127,870236516
50,7,22,Ticks_Phase_8,142,1,48,78,870947680
50,7,22,Ticks_Phase_8,143,5,42,127,871037500
50,7,22,Ticks_Phase_8,144,1,48,62,871722968
50,7,22,Ticks_Phase_8,145,5,42,127,871836972
50,7,22,Ticks_Phase_8,146,1,48,62,872494612
50,7,22,Ticks_Phase_8,147,5,42,127,872636932
50,7,22,Ticks_Phase_8,148,1,48,71,873250432
50,7,22,Ticks_Phase_8,149,5,42,127,873436420
50,7,22,Ticks_Phase_8,150,1,48,70,874086168
50,7,22,Ticks_Phase_8,151,5,42,127,874237404
50,7,22,Ticks_Phase_8,152,1,48,60,874828364
50,7,22,Ticks_Phase_8,153,5,42,127,875037040
50,7,22,Ticks_Phase_8,154,1,48,70,875633236
50,7,22,Ticks_Phase_8,155,5,42,127,875836752
50,7,22,Ticks_Phase_8,156,1,48,66,876451972
50,7,22,Ticks_Phase_8,157,5,42,127,876636536
50,7,22,Ticks_Phase_8,158,1,48,69,877337232
50,7,22,Ticks_Phase_8,159,5,42,127,877437296
50,7,22,Ticks_Phase_8,160,1,48,78,878091336
50,7,22,Ticks_Phase_8,161,5,42,127,878237304
50,7,22,Ticks_Phase_8,162,1,48,67,878905432
50,7,22,Ticks_Phase_8,163,5,42,127,879036672
50,7,22,Ticks_Phase_8,164,1,48,71,879588544
50,7,22,Ticks_Phase_8,165,5,42,127,879836456
50,7,22,Ticks_Phase_8,166,1,48,71,880465536
50,7,22,Ticks_Phase_8,167,5,42,127,880637364
50,7,22,Ticks_Phase_8,168,1,48,83,881210128
50,7,22,Ticks_Phase_8,169,5,42,127,881397088
50,7,22,Ticks_Phase_8,170,1,48,71,882008644
50,7,22,Ticks_Phase_8,171,1,38,18,882018584
50,7,22,Ticks_Phase_8,172,5,42,127,882197052
50,7,22,Ticks_Phase_8,173,1,48,78,882808160
50,7,22,Ticks_Phase_8,174,5,42,127,882996536
50,7,22,Ticks_Phase_8,175,1,48,71,883660312
50,7,22,Ticks_Phase_8,176,5,42,127,883797372
50,7,22,Ticks_Phase_8,177,1,48,73,884410000
50,7,22,Ticks_Phase_8,178,5,42,127,884597012
50,7,22,Ticks_Phase_8,179,1,48,59,885200724
50,7,22,Ticks_Phase_8,180,5,42,127,885396948
50,7,22,Ticks_Phase_8,181,1,48,74,885950112
50,7,22,Ticks_Phase_8,182,5,42,127,886196608
50,7,22,Ticks_Phase_8,183,1,48,51,886719576
50,7,22,Ticks_Phase_8,184,5,42,127,886997292
50,7,22,Ticks_Phase_8,185,1,48,84,887486036
50,7,22,Ticks_Phase_8,186,5,42,127,887797304
50,7,22,Ticks_Phase_8,187,1,48,72,888273900
50,7,22,Ticks_Phase_8,188,1,38,19,888283768
50,7,22,Ticks_Phase_8,189,5,42,127,888596968
50,7,22,Ticks_Phase_8,190,1,48,70,889148016
50,7,22,Ticks_Phase_8,191,5,42,127,889396456
50,7,22,Ticks_Phase_8,192,1,48,68,889918596
50,7,22,Ticks_Phase_8,193,5,42,127,890197216
50,7,22,Ticks_Phase_8,194,1,48,74,890664452
50,7,22,Ticks_Phase_8,195,5,42,127,890997148
50,7,22,Ticks_Phase_8,196,1,48,68,891516740
50,7,22,Ticks_Phase_8,197,5,42,127,891796932
50,7,22,Ticks_Phase_8,198,1,48,69,892216104
50,7,22,Ticks_Phase_8,199,5,42,127,892596596
50,7,22,Ticks_Phase_8,200,1,48,76,893041420
50,7,22,Ticks_Phase_8,201,5,42,127,893397280
50,7,22,Ticks_Phase_8,202,1,48,90,893809380
50,7,22,Ticks_Phase_8,203,5,42,127,894117212
50,7,22,Ticks_Phase_8,204,1,48,64,894596296
50,7,22,Ticks_Phase_8,205,5,42,127,894916948
50,7,22,Ticks_Phase_8,206,1,48,63,895409728
50,7,22,Ticks_Phase_8,207,5,42,127,895716808
50,7,22,Ticks_Phase_8,208,1,48,58,896200672
50,7,22,Ticks_Phase_8,209,5,42,127,896516444
50,7,22,Ticks_Phase_8,210,1,48,62,896870660
50,7,22,Ticks_Phase_8,211,5,42,127,897317204
50,7,22,Ticks_Phase_8,212,1,48,80,897617356
50,7,22,Ticks_Phase_8,213,5,42,127,898116916
50,7,22,Ticks_Phase_8,214,1,48,65,898354908
50,7,22,Ticks_Phase_8,215,5,42,127,898916848
50,7,22,Ticks_Phase_8,216,1,48,75,899115380
50,7,22,Ticks_Phase_8,217,5,42,127,899716488
50,7,22,Ticks_Phase_8,218,1,48,60,899768980
50,7,22,Ticks_Phase_8,219,5,42,127,900517168
50,7,22,Ticks_Phase_8,220,1,48,81,900544044
50,7,22,Ticks_Phase_8,221,1,48,73,901290880
50,7,22,Ticks_Phase_8,222,5,42,127,901316976
50,7,22,Ticks_Phase_8,223,1,48,92,902104232
50,7,22,Ticks_Phase_8,224,1,38,20,902114156
50,7,22,Ticks_Phase_8,225,5,42,127,902116740
50,7,22,Ticks_Phase_8,226,1,48,71,902809576
50,7,22,Ticks_Phase_8,227,5,42,127,902916484
50,7,22,Ticks_Phase_8,228,1,48,75,903611636
50,7,22,Ticks_Phase_8,229,1,38,19,903621572
50,7,22,Ticks_Phase_8,230,5,42,127,903717224
50,7,22,Ticks_Phase_8,231,1,48,77,904369600
50,7,22,Ticks_Phase_8,232,1,38,19,904379544
50,7,22,Ticks_Phase_8,233,5,42,127,904517020
50,7,22,Ticks_Phase_8,234,1,48,65,905159156
50,7,22,Ticks_Phase_8,235,5,42,127,905316660
50,7,22,Ticks_Phase_8,236,1,48,78,905942164
50,7,22,Ticks_Phase_8,237,5,42,127,906116596
50,7,22,Ticks_Phase_8,238,1,48,67,906747200
50,7,22,Ticks_Phase_8,239,1,38,18,906756616
50,7,22,Ticks_Phase_8,240,5,42,127,906917232
50,7,22,Ticks_Phase_8,241,1,48,75,907551876
50,7,22,Ticks_Phase_8,242,1,38,18,907561884
50,7,22,Ticks_Phase_8,243,5,42,127,907796752
50,7,22,Ticks_Phase_8,244,1,48,54,908381940
50,7,22,Ticks_Phase_8,245,1,38,15,908392104
50,7,22,Ticks_Phase_8,246,5,42,127,908596788
50,7,22,Ticks_Phase_8,247,1,48,80,909156676
50,7,22,Ticks_Phase_8,248,5,42,127,909397320
50,7,22,Ticks_Phase_8,249,1,48,71,909854596
50,7,22,Ticks_Phase_8,250,5,42,127,910196960
50,7,22,Ticks_Phase_8,251,1,48,66,910686528
50,7,22,Ticks_Phase_8,252,5,42,127,910996820
50,7,22,Ticks_Phase_8,253,1,48,66,911528172
50,7,22,Ticks_Phase_8,254,1,38,17,911538424
50,7,22,Ticks_Phase_8,255,5,42,127,911796644
50,7,22,Ticks_Phase_8,256,1,48,76,912239228
50,7,22,Ticks_Phase_8,257,5,42,127,912597476
50,7,22,Ticks_Phase_8,258,1,48,65,913082772
50,7,22,Ticks_Phase_8,259,5,42,127,913397192
50,7,22,Ticks_Phase_8,260,1,48,66,913815664
50,7,22,Ticks_Phase_8,261,5,42,127,914196828
50,7,22,Ticks_Phase_8,262,1,48,75,914604084
50,7,22,Ticks_Phase_8,263,5,42,127,914996540
50,7,22,Ticks_Phase_8,264,1,48,59,915402220
50,7,22,Ticks_Phase_8,265,5,42,127,915797668
50,7,22,Ticks_Phase_8,266,1,48,62,916193916
50,7,22,Ticks_Phase_8,267,5,42,127,916597232
50,7,22,Ticks_Phase_8,268,1,48,66,916950204
50,7,22,Ticks_Phase_8,269,5,42,127,917396872
50,7,22,Ticks_Phase_8,270,1,48,82,917786312
50,7,22,Ticks_Phase_8,271,1,38,19,917796252
50,7,22,Ticks_Phase_8,272,5,42,127,918196560
50,7,22,Ticks_Phase_8,273,1,48,84,918611284
50,7,22,Ticks_Phase_8,274,1,38,19,918620924
50,7,22,Ticks_Phase_8,275,5,42,127,918997568
50,7,22,Ticks_Phase_8,276,1,48,79,919494240
50,7,22,Ticks_Phase_8,277,1,38,19,919504332
50,7,22,Ticks_Phase_8,278,5,42,127,919797308
50,7,22,Ticks_Phase_8,279,1,48,73,920296616
50,7,22,Ticks_Phase_8,280,1,38,18,920306472
50,7,22,Ticks_Phase_8,281,5,42,127,920596900
50,7,22,Ticks_Phase_8,282,1,48,57,921205460
50,7,22,Ticks_Phase_8,283,5,42,127,921557568
50,7,22,Ticks_Phase_8,284,1,48,76,922075816
50,7,22,Ticks_Phase_8,285,5,42,127,922357204
50,7,22,Ticks_Phase_8,286,1,48,69,923025900
50,7,22,Ticks_Phase_8,287,5,42,127,923156916
50,7,22,Ticks_Phase_8,288,1,48,68,923841056
50,7,22,Ticks_Phase_8,289,1,38,17,923851148
50,7,22,Ticks_Phase_8,290,5,42,127,923956580
50,7,22,Ticks_Phase_8,291,1,48,68,924672916
50,7,22,Ticks_Phase_8,292,5,42,127,924757428
50,7,22,Ticks_Phase_8,293,1,48,67,925498400
50,7,22,Ticks_Phase_8,294,5,42,127,925557212
50,7,22,Ticks_Phase_8,295,1,48,76,926238200
50,7,22,Ticks_Phase_8,296,1,38,18,926248144
50,7,22,Ticks_Phase_8,297,5,42,127,926356788
50,7,22,Ticks_Phase_8,298,1,48,57,926954580
50,7,22,Ticks_Phase_8,299,5,42,127,927156528
50,7,22,Ticks_Phase_8,300,1,48,82,927744940
50,7,22,Ticks_Phase_8,301,1,38,19,927754584
50,7,22,Ticks_Phase_8,302,5,42,127,927957312
50,7,22,Ticks_Phase_8,303,1,48,80,928475412
50,7,22,Ticks_Phase_8,304,5,42,127,928757320
50,7,22,Ticks_Phase_8,305,1,48,65,929300276
50,7,22,Ticks_Phase_8,306,5,42,127,929556960
50,7,22,Ticks_Phase_8,307,1,48,68,930136764
50,7,22,Ticks_Phase_8,308,5,42,127,930356524
50,7,22,Ticks_Phase_8,309,1,48,66,930945012
50,7,22,Ticks_Phase_8,310,1,38,16,930955404
50,7,22,Ticks_Phase_8,311,5,42,127,931157384
50,7,22,Ticks_Phase_8,312,1,48,58,931751436
50,7,22,Ticks_Phase_8,313,5,42,127,931957316
50,7,22,Ticks_Phase_8,314,1,48,70,932444568
50,7,22,Ticks_Phase_8,315,1,38,18,932454508
50,7,22,Ticks_Phase_8,316,5,42,127,932756760
50,7,22,Ticks_Phase_8,317,1,48,56,933252080
50,7,22,Ticks_Phase_8,318,5,42,127,933556572
50,7,22,Ticks_Phase_8,319,1,48,69,933998928
50,7,22,Ticks_Phase_8,320,1,38,18,934008948
50,7,22,Ticks_Phase_8,321,5,42,127,934357280
50,7,22,Ticks_Phase_8,322,1,48,66,934828204
50,7,22,Ticks_Phase_8,323,1,38,16,934838740
50,7,22,Ticks_Phase_8,324,5,42,127,935157320
50,7,22,Ticks_Phase_8,325,1,48,76,935686356
50,7,22,Ticks_Phase_8,326,1,38,19,935696216
50,7,22,Ticks_Phase_8,327,5,42,127,935957060
50,7,22,Ticks_Phase_8,328,5,42,127,936597032
50,7,22,Ticks_Phase_8,329,1,48,70,936652520
50,7,22,Ticks_Phase_8,330,1,48,60,937196460
50,7,22,Ticks_Phase_8,331,5,42,127,937396600
50,7,22,Ticks_Phase_8,332,1,48,72,938050912
50,7,22,Ticks_Phase_8,333,5,42,127,938197284
50,7,22,Ticks_Phase_8,334,1,48,62,938798132
50,7,22,Ticks_Phase_8,335,5,42,127,938997068
50,7,22,Ticks_Phase_8,336,1,48,62,939600756
50,7,22,Ticks_Phase_8,337,5,42,127,939796928
50,7,22,Ticks_Phase_8,338,1,48,59,940432444
50,7,22,Ticks_Phase_8,339,5,42,127,940596640
50,7,22,Ticks_Phase_8,340,1,48,69,941196444
50,7,22,Ticks_Phase_8,341,5,42,127,941397324
50,7,22,Ticks_Phase_8,342,1,48,69,942005388
50,7,22,Ticks_Phase_8,343,5,42,127,942197036
50,7,22,Ticks_Phase_8,344,1,48,71,942742760
50,7,22,Ticks_Phase_8,345,5,42,127,942996968
50,7,22,Ticks_Phase_8,346,1,48,70,943620308
50,7,22,Ticks_Phase_8,347,5,42,127,943796556
50,7,22,Ticks_Phase_8,348,1,48,70,944423900
50,7,22,Ticks_Phase_8,349,5,42,127,944597244
50,7,22,Ticks_Phase_8,350,1,48,78,945287880
50,7,22,Ticks_Phase_8,351,1,38,19,945297748
50,7,22,Ticks_Phase_8,352,5,42,127,945397056
50,7,22,Ticks_Phase_8,353,1,48,64,946135648
50,7,22,Ticks_Phase_8,354,5,42,127,946196860
50,7,22,Ticks_Phase_8,355,5,42,127,946996576
50,7,22,Ticks_Phase_8,356,1,48,61,947050464
50,7,22,Ticks_Phase_8,357,1,48,69,947752212
50,7,22,Ticks_Phase_8,358,5,42,127,947797328
50,7,22,Ticks_Phase_8,359,1,48,79,948564276
50,7,22,Ticks_Phase_8,360,5,42,127,948597040
50,7,22,Ticks_Phase_8,361,1,48,72,949343396
50,7,22,Ticks_Phase_8,362,5,42,127,949396824
50,7,22,Ticks_Phase_8,363,1,48,76,950082824
50,7,22,Ticks_Phase_8,364,5,42,127,950196520
50,7,22,Ticks_Phase_8,365,1,48,77,950887832
50,7,22,Ticks_Phase_8,366,5,42,127,950997352
50,7,22,Ticks_Phase_8,367,1,48,77,951715928
50,7,22,Ticks_Phase_8,368,5,42,127,951797080
50,7,22,Ticks_Phase_8,0,9999,9999,9999,816595064
50,7,22,Ticks_Phase_8,1,9999,9999,9999,817394776
50,7,22,Ticks_Phase_8,2,9999,9999,9999,818194508
50,7,22,Ticks_Phase_8,3,9999,9999,9999,818994288
50,7,22,Ticks_Phase_8,4,9999,9999,9999,819795028
50,7,22,Ticks_Phase_8,5,9999,9999,9999,820594784
50,7,22,Ticks_Phase_8,6,9999,9999,9999,821394552
50,7,22,Ticks_Phase_8,7,9999,9999,9999,822194248
50,7,22,Ticks_Phase_8,8,9999,9999,9999,822995004
50,7,22,Ticks_Phase_8,9,9999,9999,9999,823794792
50,7,22,Ticks_Phase_8,10,9999,9999,9999,824594504
50,7,22,Ticks_Phase_8,11,9999,9999,9999,825394288
50,7,22,Ticks_Phase_8,12,9999,9999,9999,826195000
50,7,22,Ticks_Phase_8,13,9999,9999,9999,826994780
50,7,22,Ticks_Phase_8,14,9999,9999,9999,827794504
50,7,22,Ticks_Phase_8,15,9999,9999,9999,828594256
50,7,22,Ticks_Phase_8,16,9999,9999,9999,829395028
50,7,22,Ticks_Phase_8,17,9999,9999,9999,830194812
50,7,22,Ticks_Phase_8,18,9999,9999,9999,830994504
50,7,22,Ticks_Phase_8,19,9999,9999,9999,831794264
50,7,22,Ticks_Phase_8,20,9999,9999,9999,832595008
50,7,22,Ticks_Phase_8,21,9999,9999,9999,833394808
50,7,22,Ticks_Phase_8,22,9999,9999,9999,834194504
50,7,22,Ticks_Phase_8,23,9999,9999,9999,834994240
50,7,22,Ticks_Phase_8,24,9999,9999,9999,835795000
50,7,22,Ticks_Phase_8,25,9999,9999,9999,836594788
50,7,22,Ticks_Phase_8,26,9999,9999,9999,837394500
50,7,22,Ticks_Phase_8,27,9999,9999,9999,838194284
50,7,22,Ticks_Phase_8,28,9999,9999,9999,838995044
50,7,22,Ticks_Phase_8,29,9999,9999,9999,839794752
50,7,22,Ticks_Phase_8,30,9999,9999,9999,840575068
50,7,22,Ticks_Phase_8,31,9999,9999,9999,841374780
50,7,22,Ticks_Phase_8,32,9999,9999,9999,842174516
50,7,22,Ticks_Phase_8,33,9999,9999,9999,842974280
50,7,22,Ticks_Phase_8,34,9999,9999,9999,843775040
50,7,22,Ticks_Phase_8,35,9999,9999,9999,844574824
50,7,22,Ticks_Phase_8,36,9999,9999,9999,845374536
50,7,22,Ticks_Phase_8,37,9999,9999,9999,846174324
50,7,22,Ticks_Phase_8,38,9999,9999,9999,846975096
50,7,22,Ticks_Phase_8,39,9999,9999,9999,847774808
50,7,22,Ticks_Phase_8,40,9999,9999,9999,848574548
50,7,22,Ticks_Phase_8,41,9999,9999,9999,849374316
50,7,22,Ticks_Phase_8,42,9999,9999,9999,850175092
50,7,22,Ticks_Phase_8,43,9999,9999,9999,850974788
50,7,22,Ticks_Phase_8,44,9999,9999,9999,851774572
50,7,22,Ticks_Phase_8,45,9999,9999,9999,852574284
50,7,22,Ticks_Phase_8,46,9999,9999,9999,853375056
50,7,22,Ticks_Phase_8,47,9999,9999,9999,854174848
50,7,22,Ticks_Phase_8,48,9999,9999,9999,854995028
50,7,22,Ticks_Phase_8,49,9999,9999,9999,855794800
50,7,22,Ticks_Phase_8,50,9999,9999,9999,856594512
50,7,22,Ticks_Phase_8,51,9999,9999,9999,857394296
50,7,22,Ticks_Phase_8,52,9999,9999,9999,858195072
50,7,22,Ticks_Phase_8,53,9999,9999,9999,858994788
50,7,22,Ticks_Phase_8,54,9999,9999,9999,859794500
50,7,22,Ticks_Phase_8,55,9999,9999,9999,860594236
50,7,22,Ticks_Phase_8,56,9999,9999,9999,861395060
50,7,22,Ticks_Phase_8,57,9999,9999,9999,862194772
50,7,22,Ticks_Phase_8,58,9999,9999,9999,862994540
50,7,22,Ticks_Phase_8,59,9999,9999,9999,863794268
50,7,22,Ticks_Phase_8,60,9999,9999,9999,864595012
50,7,22,Ticks_Phase_8,61,9999,9999,9999,865394812
50,7,22,Ticks_Phase_8,62,9999,9999,9999,866194532
50,7,22,Ticks_Phase_8,63,9999,9999,9999,866994272
50,7,22,Ticks_Phase_8,64,9999,9999,9999,867835000
50,7,22,Ticks_Phase_8,65,9999,9999,9999,868634732
50,7,22,Ticks_Phase_8,66,9999,9999,9999,869434440
50,7,22,Ticks_Phase_8,67,9999,9999,9999,870234228
50,7,22,Ticks_Phase_8,68,9999,9999,9999,871034988
50,7,22,Ticks_Phase_8,69,9999,9999,9999,871834684
50,7,22,Ticks_Phase_8,70,9999,9999,9999,872634492
50,7,22,Ticks_Phase_8,71,9999,9999,9999,873434208
50,7,22,Ticks_Phase_8,72,9999,9999,9999,874234964
50,7,22,Ticks_Phase_8,73,9999,9999,9999,875034752
50,7,22,Ticks_Phase_8,74,9999,9999,9999,875834464
50,7,22,Ticks_Phase_8,75,9999,9999,9999,876634176
50,7,22,Ticks_Phase_8,76,9999,9999,9999,877435004
50,7,22,Ticks_Phase_8,77,9999,9999,9999,878234720
50,7,22,Ticks_Phase_8,78,9999,9999,9999,879034456
50,7,22,Ticks_Phase_8,79,9999,9999,9999,879834168
50,7,22,Ticks_Phase_8,80,9999,9999,9999,880635000
50,7,22,Ticks_Phase_8,81,9999,9999,9999,881394800
50,7,22,Ticks_Phase_8,82,9999,9999,9999,882194540
50,7,22,Ticks_Phase_8,83,9999,9999,9999,882994248
50,7,22,Ticks_Phase_8,84,9999,9999,9999,883795008
50,7,22,Ticks_Phase_8,85,9999,9999,9999,884594796
50,7,22,Ticks_Phase_8,86,9999,9999,9999,885394508
50,7,22,Ticks_Phase_8,87,9999,9999,9999,886194244
50,7,22,Ticks_Phase_8,88,9999,9999,9999,886995004
50,7,22,Ticks_Phase_8,89,9999,9999,9999,887794792
50,7,22,Ticks_Phase_8,90,9999,9999,9999,888594532
50,7,22,Ticks_Phase_8,91,9999,9999,9999,889394240
50,7,22,Ticks_Phase_8,92,9999,9999,9999,890195000
50,7,22,Ticks_Phase_8,93,9999,9999,9999,890994784
50,7,22,Ticks_Phase_8,94,9999,9999,9999,891794496
50,7,22,Ticks_Phase_8,95,9999,9999,9999,892594232
50,7,22,Ticks_Phase_8,96,9999,9999,9999,893395064
50,7,22,Ticks_Phase_8,97,9999,9999,9999,894114920
50,7,22,Ticks_Phase_8,98,9999,9999,9999,894914656
50,7,22,Ticks_Phase_8,99,9999,9999,9999,895714368
50,7,22,Ticks_Phase_8,100,9999,9999,9999,896514156
50,7,22,Ticks_Phase_8,101,9999,9999,9999,897314916
50,7,22,Ticks_Phase_8,102,9999,9999,9999,898114628
50,7,22,Ticks_Phase_8,103,9999,9999,9999,898914412
50,7,22,Ticks_Phase_8,104,9999,9999,9999,899714124
50,7,22,Ticks_Phase_8,105,9999,9999,9999,900514880
50,7,22,Ticks_Phase_8,106,9999,9999,9999,901314684
50,7,22,Ticks_Phase_8,107,9999,9999,9999,902114380
50,7,22,Ticks_Phase_8,108,9999,9999,9999,902914120
50,7,22,Ticks_Phase_8,109,9999,9999,9999,903714932
50,7,22,Ticks_Phase_8,110,9999,9999,9999,904514656
50,7,22,Ticks_Phase_8,111,9999,9999,9999,905314368
50,7,22,Ticks_Phase_8,112,9999,9999,9999,906114156
50,7,22,Ticks_Phase_8,113,9999,9999,9999,906914940
50,7,22,Ticks_Phase_8,114,9999,9999,9999,907794536
50,7,22,Ticks_Phase_8,115,9999,9999,9999,908594276
50,7,22,Ticks_Phase_8,116,9999,9999,9999,909395032
50,7,22,Ticks_Phase_8,117,9999,9999,9999,910194744
50,7,22,Ticks_Phase_8,118,9999,9999,9999,910994528
50,7,22,Ticks_Phase_8,119,9999,9999,9999,911794280
50,7,22,Ticks_Phase_8,120,9999,9999,9999,912595040
50,7,22,Ticks_Phase_8,121,9999,9999,9999,913394752
50,7,22,Ticks_Phase_8,122,9999,9999,9999,914194540
50,7,22,Ticks_Phase_8,123,9999,9999,9999,914994248
50,7,22,Ticks_Phase_8,124,9999,9999,9999,915795008
50,7,22,Ticks_Phase_8,125,9999,9999,9999,916594796
50,7,22,Ticks_Phase_8,126,9999,9999,9999,917394508
50,7,22,Ticks_Phase_8,127,9999,9999,9999,918194272
50,7,22,Ticks_Phase_8,128,9999,9999,9999,918995056
50,7,22,Ticks_Phase_8,129,9999,9999,9999,919794796
50,7,22,Ticks_Phase_8,130,9999,9999,9999,920594536
50,7,22,Ticks_Phase_8,131,9999,9999,9999,921555052
50,7,22,Ticks_Phase_8,132,9999,9999,9999,922354768
50,7,22,Ticks_Phase_8,133,9999,9999,9999,923154552
50,7,22,Ticks_Phase_8,134,9999,9999,9999,923954292
50,7,22,Ticks_Phase_8,135,9999,9999,9999,924755064
50,7,22,Ticks_Phase_8,136,9999,9999,9999,925554776
50,7,22,Ticks_Phase_8,137,9999,9999,9999,926354500
50,7,22,Ticks_Phase_8,138,9999,9999,9999,927154236
50,7,22,Ticks_Phase_8,139,9999,9999,9999,927955024
50,7,22,Ticks_Phase_8,140,9999,9999,9999,928754808
50,7,22,Ticks_Phase_8,141,9999,9999,9999,929554520
50,7,22,Ticks_Phase_8,142,9999,9999,9999,930354236
50,7,22,Ticks_Phase_8,143,9999,9999,9999,931155020
50,7,22,Ticks_Phase_8,144,9999,9999,9999,931954804
50,7,22,Ticks_Phase_8,145,9999,9999,9999,932754544
50,7,22,Ticks_Phase_8,146,9999,9999,9999,933554280
50,7,22,Ticks_Phase_8,147,9999,9999,9999,934355068
50,7,22,Ticks_Phase_8,148,9999,9999,9999,935154808
50,7,22,Ticks_Phase_8,149,9999,9999,9999,935954544
50,7,22,Ticks_Phase_8,150,9999,9999,9999,936594520
50,7,22,Ticks_Phase_8,151,9999,9999,9999,937394236
50,7,22,Ticks_Phase_8,152,9999,9999,9999,938195068
50,7,22,Ticks_Phase_8,153,9999,9999,9999,938994780
50,7,22,Ticks_Phase_8,154,9999,9999,9999,939794492
50,7,22,Ticks_Phase_8,155,9999,9999,9999,940594276
50,7,22,Ticks_Phase_8,156,9999,9999,9999,941395036
50,7,22,Ticks_Phase_8,157,9999,9999,9999,942194748
50,7,22,Ticks_Phase_8,158,9999,9999,9999,942994532
50,7,22,Ticks_Phase_8,159,9999,9999,9999,943794268
50,7,22,Ticks_Phase_8,160,9999,9999,9999,944595028
50,7,22,Ticks_Phase_8,161,9999,9999,9999,945394768
50,7,22,Ticks_Phase_8,162,9999,9999,9999,946194496
50,7,22,Ticks_Phase_8,163,9999,9999,9999,946994288
50,7,22,Ticks_Phase_8,164,9999,9999,9999,947795040
50,7,22,Ticks_Phase_8,165,9999,9999,9999,948594752
50,7,22,Ticks_Phase_8,166,9999,9999,9999,949394536
50,7,22,Ticks_Phase_8,167,9999,9999,9999,950194232
50,7,22,Ticks_Phase_8,168,9999,9999,9999,950995064
50,7,22,Ticks_Phase_8,169,9999,9999,9999,951794788
50,8,21,Ticks_Linear_5,0,5,42,127,964298020
50,8,21,Ticks_Linear_5,1,5,42,127,964778416
50,8,21,Ticks_Linear_5,2,1,48,51,965076548
50,8,21,Ticks_Linear_5,3,5,42,127,965257576
50,8,21,Ticks_Linear_5,4,1,48,77,965547044
50,8,21,Ticks_Linear_5,5,5,42,127,965737804
50,8,21,Ticks_Linear_5,6,1,48,86,965982904
50,8,21,Ticks_Linear_5,7,5,42,127,966218108
50,8,21,Ticks_Linear_5,8,1,48,78,966428464
50,8,21,Ticks_Linear_5,9,5,42,127,966707548
50,8,21,Ticks_Linear_5,10,1,48,79,966877020
50,8,21,Ticks_Linear_5,11,5,42,127,967198260
50,8,21,Ticks_Linear_5,12,1,48,76,967280908
50,8,21,Ticks_Linear_5,13,1,48,86,967643388
50,8,21,Ticks_Linear_5,14,5,42,127,967687544
50,8,21,Ticks_Linear_5,15,1,48,72,968031484
50,8,21,Ticks_Linear_5,16,5,42,127,968178012
50,8,21,Ticks_Linear_5,17,1,48,82,968444308
50,8,21,Ticks_Linear_5,18,5,42,127,968667604
50,8,21,Ticks_Linear_5,19,1,48,79,968916752
50,8,21,Ticks_Linear_5,20,5,42,127,969168424
50,8,21,Ticks_Linear_5,21,1,48,93,969431876
50,8,21,Ticks_Linear_5,22,5,42,127,969667900
50,8,21,Ticks_Linear_5,23,1,48,79,969867604
50,8,21,Ticks_Linear_5,24,5,42,127,970167600
50,8,21,Ticks_Linear_5,25,1,48,66,970292484
50,8,21,Ticks_Linear_5,26,1,38,17,970302344
50,8,21,Ticks_Linear_5,27,5,42,127,970668300
50,8,21,Ticks_Linear_5,28,1,48,70,970715980
50,8,21,Ticks_Linear_5,29,1,48,68,971144404
50,8,21,Ticks_Linear_5,30,5,42,127,971168116
50,8,21,Ticks_Linear_5,31,1,48,74,971585708
50,8,21,Ticks_Linear_5,32,5,42,127,971677928
50,8,21,Ticks_Linear_5,33,1,48,73,972028112
50,8,21,Ticks_Linear_5,34,5,42,127,972188096
50,8,21,Ticks_Linear_5,35,1,48,67,972425256
50,8,21,Ticks_Linear_5,36,1,38,17,972435268
50,8,21,Ticks_Linear_5,37,5,42,127,972698084
50,8,21,Ticks_Linear_5,38,1,48,69,972799184
50,8,21,Ticks_Linear_5,39,1,48,74,973168980
50,8,21,Ticks_Linear_5,40,5,42,127,973207812
50,8,21,Ticks_Linear_5,41,1,48,62,973564056
50,8,21,Ticks_Linear_5,42,5,42,127,973717828
50,8,21,Ticks_Linear_5,43,1,48,67,973918532
50,8,21,Ticks_Linear_5,44,5,42,127,974238048
50,8,21,Ticks_Linear_5,45,1,48,69,974371344
50,8,21,Ticks_Linear_5,46,5,42,127,974758588
50,8,21,Ticks_Linear_5,47,1,48,68,974844308
50,8,21,Ticks_Linear_5,48,5,42,127,975277388
50,8,21,Ticks_Linear_5,49,1,48,62,975297208
50,8,21,Ticks_Linear_5,50,1,48,63,975743384
50,8,21,Ticks_Linear_5,51,5,42,127,975797748
50,8,21,Ticks_Linear_5,52,1,48,72,976206096
50,8,21,Ticks_Linear_5,53,1,38,18,976216036
50,8,21,Ticks_Linear_5,54,5,42,127,976317832
50,8,21,Ticks_Linear_5,55,1,48,76,976679988
50,8,21,Ticks_Linear_5,56,1,38,18,976690000
50,8,21,Ticks_Linear_5,57,5,42,127,976848408
50,8,21,Ticks_Linear_5,58,1,48,77,977174692
50,8,21,Ticks_Linear_5,59,5,42,127,977377544
50,8,21,Ticks_Linear_5,60,1,48,66,977634400
50,8,21,Ticks_Linear_5,61,5,42,127,977908168
50,8,21,Ticks_Linear_5,62,1,48,62,978078440
50,8,21,Ticks_Linear_5,63,1,38,17,978088788
50,8,21,Ticks_Linear_5,64,5,42,127,978437488
50,8,21,Ticks_Linear_5,65,1,48,62,978538188
50,8,21,Ticks_Linear_5,66,5,42,127,978968040
50,8,21,Ticks_Linear_5,67,1,48,64,979002008
50,8,21,Ticks_Linear_5,68,1,48,64,979449872
50,8,21,Ticks_Linear_5,69,1,38,16,979460260
50,8,21,Ticks_Linear_5,70,5,42,127,979507480
50,8,21,Ticks_Linear_5,71,1,48,57,979892000
50,8,21,Ticks_Linear_5,72,5,42,127,980048176
50,8,21,Ticks_Linear_5,73,1,48,53,980351612
50,8,21,Ticks_Linear_5,74,5,42,127,980587788
50,8,21,Ticks_Linear_5,75,1,48,61,980810128
50,8,21,Ticks_Linear_5,76,1,38,16,980819996
50,8,21,Ticks_Linear_5,77,5,42,127,981127504
50,8,21,Ticks_Linear_5,78,1,48,67,981204256
50,8,21,Ticks_Linear_5,79,1,48,59,981634636
50,8,21,Ticks_Linear_5,80,5,42,127,981668088
50,8,21,Ticks_Linear_5,81,1,48,57,982105940
50,8,21,Ticks_Linear_5,82,1,38,16,982115880
50,8,21,Ticks_Linear_5,83,5,42,127,982218344
50,8,21,Ticks_Linear_5,84,1,48,59,982558936
50,8,21,Ticks_Linear_5,85,5,42,127,982768292
50,8,21,Ticks_Linear_5,86,1,48,54,982993176
50,8,21,Ticks_Linear_5,87,1,38,15,983003112
50,8,21,Ticks_Linear_5,88,5,42,127,983317968
50,8,21,Ticks_Linear_5,89,1,48,54,983495836
50,8,21,Ticks_Linear_5,90,1,38,15,983505236
50,8,21,Ticks_Linear_5,91,5,42,127,983867872
50,8,21,Ticks_Linear_5,92,1,48,58,983976236
50,8,21,Ticks_Linear_5,93,1,48,67,984416004
50,8,21,Ticks_Linear_5,94,5,42,127,984417516
50,8,21,Ticks_Linear_5,95,1,48,67,984909984
50,8,21,Ticks_Linear_5,96,1,38,17,984919920
50,8,21,Ticks_Linear_5,97,5,42,127,984977704
50,8,21,Ticks_Linear_5,98,1,48,75,985428284
50,8,21,Ticks_Linear_5,99,1,38,18,985438376
50,8,21,Ticks_Linear_5,100,5,42,127,985538068
50,8,21,Ticks_Linear_5,101,1,48,83,985942832
50,8,21,Ticks_Linear_5,102,1,38,19,985952772
50,8,21,Ticks_Linear_5,103,5,42,127,986098232
50,8,21,Ticks_Linear_5,104,1,48,73,986484416
50,8,21,Ticks_Linear_5,105,5,42,127,986658288
50,8,21,Ticks_Linear_5,106,1,48,83,987051324
50,8,21,Ticks_Linear_5,107,5,42,127,987218424
50,8,21,Ticks_Linear_5,108,1,48,71,987563156
50,8,21,Ticks_Linear_5,109,5,42,127,987787620
50,8,21,Ticks_Linear_5,110,1,48,67,988114076
50,8,21,Ticks_Linear_5,111,5,42,127,988358112
50,8,21,Ticks_Linear_5,112,1,48,67,988615044
50,8,21,Ticks_Linear_5,113,5,42,127,988928284
50,8,21,Ticks_Linear_5,114,1,48,67,989189492
50,8,21,Ticks_Linear_5,115,5,42,127,989497628
50,8,21,Ticks_Linear_5,116,1,48,72,989693004
50,8,21,Ticks_Linear_5,117,1,38,18,989703468
50,8,21,Ticks_Linear_5,118,5,42,127,990068196
50,8,21,Ticks_Linear_5,119,1,48,55,990206144
50,8,21,Ticks_Linear_5,120,5,42,127,990647528
50,8,21,Ticks_Linear_5,121,1,48,44,990652288
50,8,21,Ticks_Linear_5,122,1,38,15,990666580
50,8,21,Ticks_Linear_5,123,1,48,71,991094676
50,8,21,Ticks_Linear_5,124,1,38,18,991104692
50,8,21,Ticks_Linear_5,125,5,42,127,991228212
50,8,21,Ticks_Linear_5,126,1,48,69,991558696
50,8,21,Ticks_Linear_5,127,1,38,17,991568704
50,8,21,Ticks_Linear_5,128,5,42,127,991807920
50,8,21,Ticks_Linear_5,129,1,48,65,992003064
50,8,21,Ticks_Linear_5,130,1,38,17,992012932
50,8,21,Ticks_Linear_5,131,5,42,127,992387400
50,8,21,Ticks_Linear_5,132,1,48,68,992472016
50,8,21,Ticks_Linear_5,133,1,48,68,992906528
50,8,21,Ticks_Linear_5,134,1,38,17,992916236
50,8,21,Ticks_Linear_5,135,5,42,127,992968048
50,8,21,Ticks_Linear_5,136,1,48,70,993323864
50,8,21,Ticks_Linear_5,137,5,42,127,993558096
50,8,21,Ticks_Linear_5,138,1,48,72,993762160
50,8,21,Ticks_Linear_5,139,5,42,127,994147664
50,8,21,Ticks_Linear_5,140,1,48,59,994214528
50,8,21,Ticks_Linear_5,141,5,42,127,994737404
50,8,21,Ticks_Linear_5,142,1,48,60,994858988
50,8,21,Ticks_Linear_5,143,1,48,56,995275384
50,8,21,Ticks_Linear_5,144,5,42,127,995328528
50,8,21,Ticks_Linear_5,145,1,48,62,995726168
50,8,21,Ticks_Linear_5,146,5,42,127,995918228
50,8,21,Ticks_Linear_5,147,1,48,33,996127768
50,8,21,Ticks_Linear_5,148,1,48,57,996508344
50,8,21,Ticks_Linear_5,149,5,42,127,996518296
50,8,21,Ticks_Linear_5,150,1,48,57,996895624
50,8,21,Ticks_Linear_5,151,5,42,127,997118404
50,8,21,Ticks_Linear_5,152,1,48,57,997305700
50,8,21,Ticks_Linear_5,153,5,42,127,997718376
50,8,21,Ticks_Linear_5,154,1,48,54,997727864
50,8,21,Ticks_Linear_5,155,1,48,61,998144112
50,8,21,Ticks_Linear_5,156,1,38,16,998154048
50,8,21,Ticks_Linear_5,157,5,42,127,998317708
50,8,21,Ticks_Linear_5,158,1,48,62,998558748
50,8,21,Ticks_Linear_5,159,5,42,127,998917532
50,8,21,Ticks_Linear_5,160,1,48,64,998964380
50,8,21,Ticks_Linear_5,161,1,48,52,999359144
50,8,21,Ticks_Linear_5,162,5,42,127,999527896
50,8,21,Ticks_Linear_5,163,1,48,62,999761992
50,8,21,Ticks_Linear_5,164,5,42,127,1000138076
50,8,21,Ticks_Linear_5,165,1,48,58,1000150112
50,8,21,Ticks_Linear_5,166,1,48,56,1000513012
50,8,21,Ticks_Linear_5,167,5,42,127,1000748288
50,8,21,Ticks_Linear_5,168,1,48,52,1000897768
50,8,21,Ticks_Linear_5,169,1,48,56,1001263956
50,8,21,Ticks_Linear_5,170,5,42,127,1001357900
50,8,21,Ticks_Linear_5,171,1,48,56,1001597764
50,8,21,Ticks_Linear_5,172,1,48,54,1001964660
50,8,21,Ticks_Linear_5,173,5,42,127,1001967852
50,8,21,Ticks_Linear_5,174,1,48,60,1002346920
50,8,21,Ticks_Linear_5,175,5,42,127,1002587656
50,8,21,Ticks_Linear_5,176,1,48,51,1002791864
50,8,21,Ticks_Linear_5,177,1,48,50,1003180564
50,8,21,Ticks_Linear_5,178,5,42,127,1003207940
50,8,21,Ticks_Linear_5,179,1,48,61,1003592992
50,8,21,Ticks_Linear_5,180,5,42,127,1003827744
50,8,21,Ticks_Linear_5,181,1,48,61,1004041768
50,8,21,Ticks_Linear_5,182,5,42,127,1004448088
50,8,21,Ticks_Linear_5,183,1,48,64,1004522144
50,8,21,Ticks_Linear_5,184,1,38,17,1004532164
50,8,21,Ticks_Linear_5,185,1,48,83,1004986208
50,8,21,Ticks_Linear_5,186,5,42,127,1005067804
50,8,21,Ticks_Linear_5,187,1,48,82,1005489280
50,8,21,Ticks_Linear_5,188,5,42,127,1005698316
50,8,21,Ticks_Linear_5,189,1,48,77,1005978920
50,8,21,Ticks_Linear_5,190,5,42,127,1006338752
50,8,21,Ticks_Linear_5,191,1,48,76,1006383580
50,8,21,Ticks_Linear_5,192,1,48,73,1006822004
50,8,21,Ticks_Linear_5,193,5,42,127,1006978472
50,8,21,Ticks_Linear_5,194,1,48,82,1007245212
50,8,21,Ticks_Linear_5,195,5,42,127,1007618388
50,8,21,Ticks_Linear_5,196,1,48,85,1007678872
50,8,21,Ticks_Linear_5,197,1,48,76,1008064540
50,8,21,Ticks_Linear_5,198,5,42,127,1008258380
50,8,21,Ticks_Linear_5,199,1,48,79,1008507384
50,8,21,Ticks_Linear_5,200,1,48,24,1008595440
50,8,21,Ticks_Linear_5,201,5,42,127,1008898640
50,8,21,Ticks_Linear_5,202,1,48,71,1008968716
50,8,21,Ticks_Linear_5,203,1,48,65,1009323700
50,8,21,Ticks_Linear_5,204,1,48,27,1009407336
50,8,21,Ticks_Linear_5,205,5,42,127,1009538560
50,8,21,Ticks_Linear_5,206,1,48,79,1009803288
50,8,21,Ticks_Linear_5,207,5,42,127,1010178552
50,8,21,Ticks_Linear_5,208,1,48,65,1010245096
50,8,21,Ticks_Linear_5,209,1,48,58,1010723652
50,8,21,Ticks_Linear_5,210,5,42,127,1010818568
50,8,21,Ticks_Linear_5,211,1,48,52,1011179852
50,8,21,Ticks_Linear_5,212,5,42,127,1011458708
50,8,21,Ticks_Linear_5,213,1,48,59,1011622856
50,8,21,Ticks_Linear_5,214,1,48,73,1012006216
50,8,21,Ticks_Linear_5,215,5,42,127,1012118044
50,8,21,Ticks_Linear_5,216,1,48,67,1012470560
50,8,21,Ticks_Linear_5,217,5,42,127,1012767996
50,8,21,Ticks_Linear_5,218,1,48,65,1012962096
50,8,21,Ticks_Linear_5,219,1,48,70,1013358712
50,8,21,Ticks_Linear_5,220,1,38,18,1013368500
50,8,21,Ticks_Linear_5,221,5,42,127,1013418292
50,8,21,Ticks_Linear_5,222,1,48,67,1013798304
50,8,21,Ticks_Linear_5,223,5,42,127,1014067724
50,8,21,Ticks_Linear_5,224,1,48,67,1014299496
50,8,21,Ticks_Linear_5,225,1,38,17,1014309436
50,8,21,Ticks_Linear_5,226,5,42,127,1014717700
50,8,21,Ticks_Linear_5,227,1,48,67,1014850444
50,8,21,Ticks_Linear_5,228,1,38,17,1014859792
50,8,21,Ticks_Linear_5,229,5,42,127,1015378516
50,8,21,Ticks_Linear_5,230,1,48,60,1015393240
50,8,21,Ticks_Linear_5,231,1,38,16,1015403180
50,8,21,Ticks_Linear_5,232,1,48,62,1015944164
50,8,21,Ticks_Linear_5,233,1,38,17,1015954180
50,8,21,Ticks_Linear_5,234,5,42,127,1016037816
50,8,21,Ticks_Linear_5,235,1,48,63,1016517032
50,8,21,Ticks_Linear_5,236,1,38,17,1016527052
50,8,21,Ticks_Linear_5,237,5,42,127,1016698456
50,8,21,Ticks_Linear_5,238,1,48,68,1017085716
50,8,21,Ticks_Linear_5,239,1,38,18,1017095744
50,8,21,Ticks_Linear_5,240,5,42,127,1017357648
50,8,21,Ticks_Linear_5,241,1,48,62,1017616984
50,8,21,Ticks_Linear_5,242,1,38,17,1017627148
50,8,21,Ticks_Linear_5,243,5,42,127,1018018628
50,8,21,Ticks_Linear_5,244,1,48,62,1018125772
50,8,21,Ticks_Linear_5,245,1,48,55,1018623420
50,8,21,Ticks_Linear_5,246,5,42,127,1018687720
50,8,21,Ticks_Linear_5,247,1,48,72,1019204588
50,8,21,Ticks_Linear_5,248,1,38,18,1019214532
50,8,21,Ticks_Linear_5,249,5,42,127,1019357452
50,8,21,Ticks_Linear_5,250,1,48,67,1019764084
50,8,21,Ticks_Linear_5,251,1,38,17,1019773572
50,8,21,Ticks_Linear_5,252,5,42,127,1020028368
50,8,21,Ticks_Linear_5,253,1,48,66,1020366964
50,8,21,Ticks_Linear_5,254,1,38,17,1020376976
50,8,21,Ticks_Linear_5,255,5,42,127,1020697968
50,8,21,Ticks_Linear_5,256,1,48,71,1021160416
50,8,21,Ticks_Linear_5,257,1,38,18,1021170284
50,8,21,Ticks_Linear_5,258,5,42,127,1021367640
50,8,21,Ticks_Linear_5,259,1,48,60,1021868660
50,8,21,Ticks_Linear_5,260,1,38,17,1021878528
50,8,21,Ticks_Linear_5,261,5,42,127,1022047468
50,8,21,Ticks_Linear_5,262,1,48,58,1022445504
50,8,21,Ticks_Linear_5,263,5,42,127,1022727448
50,8,21,Ticks_Linear_5,264,1,48,63,1023021896
50,8,21,Ticks_Linear_5,265,5,42,127,1023407576
50,8,21,Ticks_Linear_5,266,1,48,63,1023631232
50,8,21,Ticks_Linear_5,267,5,42,127,1024088424
50,8,21,Ticks_Linear_5,268,1,48,69,1024156928
50,8,21,Ticks_Linear_5,269,1,48,74,1024682008
50,8,21,Ticks_Linear_5,270,5,42,127,1024777520
50,8,21,Ticks_Linear_5,271,1,48,70,1025253748
50,8,21,Ticks_Linear_5,272,5,42,127,1025467832
50,8,21,Ticks_Linear_5,273,1,48,62,1025848112
50,8,21,Ticks_Linear_5,274,5,42,127,1026157896
50,8,21,Ticks_Linear_5,275,1,48,58,1026475892
50,8,21,Ticks_Linear_5,276,5,42,127,1026848208
50,8,21,Ticks_Linear_5,277,1,48,78,1027037232
50,8,21,Ticks_Linear_5,278,5,42,127,1027538224
50,8,21,Ticks_Linear_5,279,1,48,77,1027597664
50,8,21,Ticks_Linear_5,280,1,48,71,1028206000
50,8,21,Ticks_Linear_5,281,5,42,127,1028227380
50,8,21,Ticks_Linear_5,282,1,48,72,1028823288
50,8,21,Ticks_Linear_5,283,5,42,127,1028927936
50,8,21,Ticks_Linear_5,284,1,48,55,1029476368
50,8,21,Ticks_Linear_5,285,5,42,127,1029628432
50,8,21,Ticks_Linear_5,286,1,48,77,1030082948
50,8,21,Ticks_Linear_5,287,5,42,127,1030327584
50,8,21,Ticks_Linear_5,288,1,48,77,1030665704
50,8,21,Ticks_Linear_5,289,5,42,127,1031028204
50,8,21,Ticks_Linear_5,290,1,48,89,1031244024
50,8,21,Ticks_Linear_5,291,5,42,127,1031727508
50,8,21,Ticks_Linear_5,292,1,48,63,1031817276
50,8,21,Ticks_Linear_5,293,1,48,67,1032388340
50,8,21,Ticks_Linear_5,294,5,42,127,1032438328
50,8,21,Ticks_Linear_5,295,1,48,79,1032974376
50,8,21,Ticks_Linear_5,296,5,42,127,1033147652
50,8,21,Ticks_Linear_5,297,1,48,64,1033571808
50,8,21,Ticks_Linear_5,298,5,42,127,1033858304
50,8,21,Ticks_Linear_5,299,1,48,60,1034170908
50,8,21,Ticks_Linear_5,300,5,42,127,1034578196
50,8,21,Ticks_Linear_5,301,1,48,79,1034880516
50,8,21,Ticks_Linear_5,302,5,42,127,1035287908
50,8,21,Ticks_Linear_5,303,1,48,78,1035487636
50,8,21,Ticks_Linear_5,304,5,42,127,1036007724
50,8,21,Ticks_Linear_5,305,1,48,69,1036084676
50,8,21,Ticks_Linear_5,306,5,42,127,1036727620
50,8,21,Ticks_Linear_5,307,1,48,67,1036746168
50,8,21,Ticks_Linear_5,308,1,48,67,1037329716
50,8,21,Ticks_Linear_5,309,5,42,127,1037447616
50,8,21,Ticks_Linear_5,310,1,48,84,1037972824
50,8,21,Ticks_Linear_5,311,5,42,127,1038168484
50,8,21,Ticks_Linear_5,312,1,48,79,1038623664
50,8,21,Ticks_Linear_5,313,5,42,127,1038897516
50,8,21,Ticks_Linear_5,314,1,48,68,1039260868
50,8,21,Ticks_Linear_5,315,5,42,127,1039627668
50,8,21,Ticks_Linear_5,316,1,48,72,1040023064
50,8,21,Ticks_Linear_5,317,5,42,127,1040357744
50,8,21,Ticks_Linear_5,318,1,48,68,1040676612
50,8,21,Ticks_Linear_5,319,1,38,17,1040686708
50,8,21,Ticks_Linear_5,320,5,42,127,1041088000
50,8,21,Ticks_Linear_5,321,1,48,78,1041301628
50,8,21,Ticks_Linear_5,322,5,42,127,1041818124
50,8,21,Ticks_Linear_5,323,1,48,79,1042001076
50,8,21,Ticks_Linear_5,324,5,42,127,1042548128
50,8,21,Ticks_Linear_5,325,1,48,56,1042576864
50,8,21,Ticks_Linear_5,326,1,48,73,1043156468
50,8,21,Ticks_Linear_5,327,5,42,127,1043288516
50,8,21,Ticks_Linear_5,328,1,48,73,1043761900
50,8,21,Ticks_Linear_5,329,5,42,127,1044038140
50,8,21,Ticks_Linear_5,330,1,48,61,1044351020
50,8,21,Ticks_Linear_5,331,5,42,127,1044778252
50,8,21,Ticks_Linear_5,332,1,48,75,1045024852
50,8,21,Ticks_Linear_5,333,5,42,127,1045518064
50,8,21,Ticks_Linear_5,334,1,48,77,1045653880
50,8,21,Ticks_Linear_5,335,5,42,127,1046258180
50,8,21,Ticks_Linear_5,336,1,48,89,1046279872
50,8,21,Ticks_Linear_5,337,1,48,80,1046870088
50,8,21,Ticks_Linear_5,338,5,42,127,1047007632
50,8,21,Ticks_Linear_5,339,1,48,72,1047530524
50,8,21,Ticks_Linear_5,340,5,42,127,1047758080
50,8,21,Ticks_Linear_5,341,1,48,64,1048165084
50,8,21,Ticks_Linear_5,342,5,42,127,1048507704
50,8,21,Ticks_Linear_5,343,1,48,76,1048748244
50,8,21,Ticks_Linear_5,344,5,42,127,1049258300
50,8,21,Ticks_Linear_5,345,1,48,74,1049332408
50,8,21,Ticks_Linear_5,346,1,48,70,1049932436
50,8,21,Ticks_Linear_5,347,5,42,127,1050007820
50,8,21,Ticks_Linear_5,348,1,48,58,1050557080
50,8,21,Ticks_Linear_5,349,1,38,16,1050566948
50,8,21,Ticks_Linear_5,350,5,42,127,1050767936
50,8,21,Ticks_Linear_5,351,1,48,57,1051274496
50,8,21,Ticks_Linear_5,352,5,42,127,1051527524
50,8,21,Ticks_Linear_5,353,1,48,64,1051931860
50,8,21,Ticks_Linear_5,354,5,42,127,1052288380
50,8,21,Ticks_Linear_5,355,1,48,83,1052571004
50,8,21,Ticks_Linear_5,356,5,42,127,1053048112
50,8,21,Ticks_Linear_5,357,1,48,82,1053263780
50,8,21,Ticks_Linear_5,358,5,42,127,1053808068
50,8,21,Ticks_Linear_5,359,1,48,74,1053929912
50,8,21,Ticks_Linear_5,360,1,48,73,1054528592
50,8,21,Ticks_Linear_5,361,1,38,18,1054538456
50,8,21,Ticks_Linear_5,362,5,42,127,1054578036
50,8,21,Ticks_Linear_5,363,1,48,77,1055193996
50,8,21,Ticks_Linear_5,364,5,42,127,1055347996
50,8,21,Ticks_Linear_5,365,1,48,72,1055908956
50,8,21,Ticks_Linear_5,366,1,38,18,1055918820
50,8,21,Ticks_Linear_5,367,5,42,127,1056118020
50,8,21,Ticks_Linear_5,368,1,48,72,1056562644
50,8,21,Ticks_Linear_5,369,5,42,127,1056888084
50,8,21,Ticks_Linear_5,370,1,48,65,1057228400
50,8,21,Ticks_Linear_5,371,5,42,127,1057658376
50,8,21,Ticks_Linear_5,372,1,48,66,1057837884
50,8,21,Ticks_Linear_5,373,5,42,127,1058437580
50,8,21,Ticks_Linear_5,374,1,48,61,1058518088
50,8,21,Ticks_Linear_5,375,1,48,70,1059110324
50,8,21,Ticks_Linear_5,376,5,42,127,1059217740
50,8,21,Ticks_Linear_5,377,1,48,71,1059811188
50,8,21,Ticks_Linear_5,378,5,42,127,1059998064
50,8,21,Ticks_Linear_5,379,1,48,58,1060483256
50,8,21,Ticks_Linear_5,380,5,42,127,1060778612
50,8,21,Ticks_Linear_5,381,1,48,70,1061258496
50,8,21,Ticks_Linear_5,382,1,38,18,1061268436
50,8,21,Ticks_Linear_5,383,5,42,127,1061557772
50,8,21,Ticks_Linear_5,384,1,48,71,1062046712
50,8,21,Ticks_Linear_5,385,5,42,127,1062348136
50,8,21,Ticks_Linear_5,386,1,48,67,1062785704
50,8,21,Ticks_Linear_5,387,5,42,127,1063137600
50,8,21,Ticks_Linear_5,388,1,48,55,1063550972
50,8,21,Ticks_Linear_5,389,5,42,127,1063928184
50,8,21,Ticks_Linear_5,390,1,48,62,1064333620
50,8,21,Ticks_Linear_5,391,1,38,16,1064343480
50,8,21,Ticks_Linear_5,392,5,42,127,1064717676
50,8,21,Ticks_Linear_5,393,1,48,74,1065138572
50,8,21,Ticks_Linear_5,394,5,42,127,1065508260
50,8,21,Ticks_Linear_5,395,1,48,75,1065895972
50,8,21,Ticks_Linear_5,396,5,42,127,1066307912
50,8,21,Ticks_Linear_5,397,1,48,54,1066618024
50,8,21,Ticks_Linear_5,398,1,38,15,1066627884
50,8,21,Ticks_Linear_5,399,5,42,127,1067107664
50,8,21,Ticks_Linear_5,400,1,48,64,1067379500
50,8,21,Ticks_Linear_5,401,5,42,127,1067907384
50,8,21,Ticks_Linear_5,402,1,48,64,1068062772
50,8,21,Ticks_Linear_5,403,5,42,127,1068708104
50,8,21,Ticks_Linear_5,404,1,48,56,1068740804
50,8,21,Ticks_Linear_5,405,1,48,76,1069434804
50,8,21,Ticks_Linear_5,406,5,42,127,1069507824
50,8,21,Ticks_Linear_5,407,1,48,79,1070096976
50,8,21,Ticks_Linear_5,408,5,42,127,1070317940
50,8,21,Ticks_Linear_5,409,1,48,69,1070801212
50,8,21,Ticks_Linear_5,410,5,42,127,1071127996
50,8,21,Ticks_Linear_5,411,1,48,70,1071522228
50,8,21,Ticks_Linear_5,412,5,42,127,1071937832
50,8,21,Ticks_Linear_5,413,1,48,67,1072242020
50,8,21,Ticks_Linear_5,414,5,42,127,1072747816
50,8,21,Ticks_Linear_5,415,1,48,70,1072923640
50,8,21,Ticks_Linear_5,416,5,42,127,1073557948
50,8,21,Ticks_Linear_5,0,9999,9999,9999,964295792
50,8,21,Ticks_Linear_5,1,9999,9999,9999,964776040
50,8,21,Ticks_Linear_5,2,9999,9999,9999,965255276
50,8,21,Ticks_Linear_5,3,9999,9999,9999,965735500
50,8,21,Ticks_Linear_5,4,9999,9999,9999,966215804
50,8,21,Ticks_Linear_5,5,9999,9999,9999,966705248
50,8,21,Ticks_Linear_5,6,9999,9999,9999,967195736
50,8,21,Ticks_Linear_5,7,9999,9999,9999,967685244
50,8,21,Ticks_Linear_5,8,9999,9999,9999,968175712
50,8,21,Ticks_Linear_5,9,9999,9999,9999,968665152
50,8,21,Ticks_Linear_5,10,9999,9999,9999,969165900
50,8,21,Ticks_Linear_5,11,9999,9999,9999,969665600
50,8,21,Ticks_Linear_5,12,9999,9999,9999,970165376
50,8,21,Ticks_Linear_5,13,9999,9999,9999,970666072
50,8,21,Ticks_Linear_5,14,9999,9999,9999,971165816
50,8,21,Ticks_Linear_5,15,9999,9999,9999,971675704
50,8,21,Ticks_Linear_5,16,9999,9999,9999,972185720
50,8,21,Ticks_Linear_5,17,9999,9999,9999,972695632
50,8,21,Ticks_Linear_5,18,9999,9999,9999,973205584
50,8,21,Ticks_Linear_5,19,9999,9999,9999,973715528
50,8,21,Ticks_Linear_5,20,9999,9999,9999,974235748
50,8,21,Ticks_Linear_5,21,9999,9999,9999,974755964
50,8,21,Ticks_Linear_5,22,9999,9999,9999,975275088
50,8,21,Ticks_Linear_5,23,9999,9999,9999,975795300
50,8,21,Ticks_Linear_5,24,9999,9999,9999,976315456
50,8,21,Ticks_Linear_5,25,9999,9999,9999,976845884
50,8,21,Ticks_Linear_5,26,9999,9999,9999,977375316
50,8,21,Ticks_Linear_5,27,9999,9999,9999,977905720
50,8,21,Ticks_Linear_5,28,9999,9999,9999,978435188
50,8,21,Ticks_Linear_5,29,9999,9999,9999,978965588
50,8,21,Ticks_Linear_5,30,9999,9999,9999,979505252
50,8,21,Ticks_Linear_5,31,9999,9999,9999,980045948
50,8,21,Ticks_Linear_5,32,9999,9999,9999,980585564
50,8,21,Ticks_Linear_5,33,9999,9999,9999,981125204
50,8,21,Ticks_Linear_5,34,9999,9999,9999,981665860
50,8,21,Ticks_Linear_5,35,9999,9999,9999,982215744
50,8,21,Ticks_Linear_5,36,9999,9999,9999,982765692
50,8,21,Ticks_Linear_5,37,9999,9999,9999,983315520
50,8,21,Ticks_Linear_5,38,9999,9999,9999,983865420
50,8,21,Ticks_Linear_5,39,9999,9999,9999,984415300
50,8,21,Ticks_Linear_5,40,9999,9999,9999,984975476
50,8,21,Ticks_Linear_5,41,9999,9999,9999,985535544
50,8,21,Ticks_Linear_5,42,9999,9999,9999,986095708
50,8,21,Ticks_Linear_5,43,9999,9999,9999,986655840
50,8,21,Ticks_Linear_5,44,9999,9999,9999,987215972
50,8,21,Ticks_Linear_5,45,9999,9999,9999,987785320
50,8,21,Ticks_Linear_5,46,9999,9999,9999,988355664
50,8,21,Ticks_Linear_5,47,9999,9999,9999,988926056
50,8,21,Ticks_Linear_5,48,9999,9999,9999,989495400
50,8,21,Ticks_Linear_5,49,9999,9999,9999,990065748
50,8,21,Ticks_Linear_5,50,9999,9999,9999,990645304
50,8,21,Ticks_Linear_5,51,9999,9999,9999,991225912
50,8,21,Ticks_Linear_5,52,9999,9999,9999,991805544
50,8,21,Ticks_Linear_5,53,9999,9999,9999,992385100
50,8,21,Ticks_Linear_5,54,9999,9999,9999,992965748
50,8,21,Ticks_Linear_5,55,9999,9999,9999,993555572
50,8,21,Ticks_Linear_5,56,9999,9999,9999,994145360
50,8,21,Ticks_Linear_5,57,9999,9999,9999,994735176
50,8,21,Ticks_Linear_5,58,9999,9999,9999,995326076
50,8,21,Ticks_Linear_5,59,9999,9999,9999,995915852
50,8,21,Ticks_Linear_5,60,9999,9999,9999,996515920
50,8,21,Ticks_Linear_5,61,9999,9999,9999,997116028
50,8,21,Ticks_Linear_5,62,9999,9999,9999,997716076
50,8,21,Ticks_Linear_5,63,9999,9999,9999,998315108
50,8,21,Ticks_Linear_5,64,9999,9999,9999,998915156
50,8,21,Ticks_Linear_5,65,9999,9999,9999,999525444
50,8,21,Ticks_Linear_5,66,9999,9999,9999,1000135776
50,8,21,Ticks_Linear_5,67,9999,9999,9999,1000746060
50,8,21,Ticks_Linear_5,68,9999,9999,9999,1001355376
50,8,21,Ticks_Linear_5,69,9999,9999,9999,1001965624
50,8,21,Ticks_Linear_5,70,9999,9999,9999,1002585204
50,8,21,Ticks_Linear_5,71,9999,9999,9999,1003205716
50,8,21,Ticks_Linear_5,72,9999,9999,9999,1003825220
50,8,21,Ticks_Linear_5,73,9999,9999,9999,1004445784
50,8,21,Ticks_Linear_5,74,9999,9999,9999,1005065280
50,8,21,Ticks_Linear_5,75,9999,9999,9999,1005696092
50,8,21,Ticks_Linear_5,76,9999,9999,9999,1006336080
50,8,21,Ticks_Linear_5,77,9999,9999,9999,1006976100
50,8,21,Ticks_Linear_5,78,9999,9999,9999,1007616088
50,8,21,Ticks_Linear_5,79,9999,9999,9999,1008256080
50,8,21,Ticks_Linear_5,80,9999,9999,9999,1008896120
50,8,21,Ticks_Linear_5,81,9999,9999,9999,1009536112
50,8,21,Ticks_Linear_5,82,9999,9999,9999,1010176104
50,8,21,Ticks_Linear_5,83,9999,9999,9999,1010816120
50,8,21,Ticks_Linear_5,84,9999,9999,9999,1011456108
50,8,21,Ticks_Linear_5,85,9999,9999,9999,1012115520
50,8,21,Ticks_Linear_5,86,9999,9999,9999,1012765768
50,8,21,Ticks_Linear_5,87,9999,9999,9999,1013415992
50,8,21,Ticks_Linear_5,88,9999,9999,9999,1014065272
50,8,21,Ticks_Linear_5,89,9999,9999,9999,1014715472
50,8,21,Ticks_Linear_5,90,9999,9999,9999,1015375992
50,8,21,Ticks_Linear_5,91,9999,9999,9999,1016035380
50,8,21,Ticks_Linear_5,92,9999,9999,9999,1016695932
50,8,21,Ticks_Linear_5,93,9999,9999,9999,1017355344
50,8,21,Ticks_Linear_5,94,9999,9999,9999,1018015852
50,8,21,Ticks_Linear_5,95,9999,9999,9999,1018685496
50,8,21,Ticks_Linear_5,96,9999,9999,9999,1019355224
50,8,21,Ticks_Linear_5,97,9999,9999,9999,1020025920
50,8,21,Ticks_Linear_5,98,9999,9999,9999,1020695664
50,8,21,Ticks_Linear_5,99,9999,9999,9999,1021365336
50,8,21,Ticks_Linear_5,100,9999,9999,9999,1022045244
50,8,21,Ticks_Linear_5,101,9999,9999,9999,1022725220
50,8,21,Ticks_Linear_5,102,9999,9999,9999,1023405124
50,8,21,Ticks_Linear_5,103,9999,9999,9999,1024086128
50,8,21,Ticks_Linear_5,104,9999,9999,9999,1024775232
50,8,21,Ticks_Linear_5,105,9999,9999,9999,1025465456
50,8,21,Ticks_Linear_5,106,9999,9999,9999,1026155596
50,8,21,Ticks_Linear_5,107,9999,9999,9999,1026845756
50,8,21,Ticks_Linear_5,108,9999,9999,9999,1027535996
50,8,21,Ticks_Linear_5,109,9999,9999,9999,1028225080
50,8,21,Ticks_Linear_5,110,9999,9999,9999,1028925560
50,8,21,Ticks_Linear_5,111,9999,9999,9999,1029625984
50,8,21,Ticks_Linear_5,112,9999,9999,9999,1030325356
50,8,21,Ticks_Linear_5,113,9999,9999,9999,1031025756
50,8,21,Ticks_Linear_5,114,9999,9999,9999,1031725132
50,8,21,Ticks_Linear_5,115,9999,9999,9999,1032435804
50,8,21,Ticks_Linear_5,116,9999,9999,9999,1033145424
50,8,21,Ticks_Linear_5,117,9999,9999,9999,1033856080
50,8,21,Ticks_Linear_5,118,9999,9999,9999,1034575972
50,8,21,Ticks_Linear_5,119,9999,9999,9999,1035285604
50,8,21,Ticks_Linear_5,120,9999,9999,9999,1036005500
50,8,21,Ticks_Linear_5,121,9999,9999,9999,1036725320
50,8,21,Ticks_Linear_5,122,9999,9999,9999,1037445240
50,8,21,Ticks_Linear_5,123,9999,9999,9999,1038166112
50,8,21,Ticks_Linear_5,124,9999,9999,9999,1038895212
50,8,21,Ticks_Linear_5,125,9999,9999,9999,1039625292
50,8,21,Ticks_Linear_5,126,9999,9999,9999,1040355444
50,8,21,Ticks_Linear_5,127,9999,9999,9999,1041085548
50,8,21,Ticks_Linear_5,128,9999,9999,9999,1041815676
50,8,21,Ticks_Linear_5,129,9999,9999,9999,1042545752
50,8,21,Ticks_Linear_5,130,9999,9999,9999,1043286144
50,8,21,Ticks_Linear_5,131,9999,9999,9999,1044035692
50,8,21,Ticks_Linear_5,132,9999,9999,9999,1044776028
50,8,21,Ticks_Linear_5,133,9999,9999,9999,1045515316
50,8,21,Ticks_Linear_5,134,9999,9999,9999,1046255728
50,8,21,Ticks_Linear_5,135,9999,9999,9999,1047005256
50,8,21,Ticks_Linear_5,136,9999,9999,9999,1047755852
50,8,21,Ticks_Linear_5,137,9999,9999,9999,1048505404
50,8,21,Ticks_Linear_5,138,9999,9999,9999,1049256000
50,8,21,Ticks_Linear_5,139,9999,9999,9999,1050005592
50,8,21,Ticks_Linear_5,140,9999,9999,9999,1050765412
50,8,21,Ticks_Linear_5,141,9999,9999,9999,1051525224
50,8,21,Ticks_Linear_5,142,9999,9999,9999,1052286080
50,8,21,Ticks_Linear_5,143,9999,9999,9999,1053045888
50,8,21,Ticks_Linear_5,144,9999,9999,9999,1053805692
50,8,21,Ticks_Linear_5,145,9999,9999,9999,1054575736
50,8,21,Ticks_Linear_5,146,9999,9999,9999,1055345772
50,8,21,Ticks_Linear_5,147,9999,9999,9999,1056115792
50,8,21,Ticks_Linear_5,148,9999,9999,9999,1056885860
50,8,21,Ticks_Linear_5,149,9999,9999,9999,1057655928
50,8,21,Ticks_Linear_5,150,9999,9999,9999,1058435132
50,8,21,Ticks_Linear_5,151,9999,9999,9999,1059215436
50,8,21,Ticks_Linear_5,152,9999,9999,9999,1059995764
50,8,21,Ticks_Linear_5,153,9999,9999,9999,1060776016
50,8,21,Ticks_Linear_5,154,9999,9999,9999,1061555324
50,8,21,Ticks_Linear_5,155,9999,9999,9999,1062345832
50,8,21,Ticks_Linear_5,156,9999,9999,9999,1063135300
50,8,21,Ticks_Linear_5,157,9999,9999,9999,1063925884
50,8,21,Ticks_Linear_5,158,9999,9999,9999,1064715376
50,8,21,Ticks_Linear_5,159,9999,9999,9999,1065505884
50,8,21,Ticks_Linear_5,160,9999,9999,9999,1066305612
50,8,21,Ticks_Linear_5,161,9999,9999,9999,1067105360
50,8,21,Ticks_Linear_5,162,9999,9999,9999,1067905084
50,8,21,Ticks_Linear_5,163,9999,9999,9999,1068705880
50,8,21,Ticks_Linear_5,164,9999,9999,9999,1069505596
50,8,21,Ticks_Linear_5,165,9999,9999,9999,1070315640
50,8,21,Ticks_Linear_5,166,9999,9999,9999,1071125624
50,8,21,Ticks_Linear_5,167,9999,9999,9999,1071935604
50,8,21,Ticks_Linear_5,168,9999,9999,9999,1072745588
50,8,21,Ticks_Linear_5,169,9999,9999,9999,1073555572
50,9,20,Ticks_Linear_8,0,5,42,127,1085355332
50,9,20,Ticks_Linear_8,1,1,48,41,1085841120
50,9,20,Ticks_Linear_8,2,5,42,127,1086174524
50,9,20,Ticks_Linear_8,3,1,48,60,1086824052
50,9,20,Ticks_Linear_8,4,5,42,127,1086994764
50,9,20,Ticks_Linear_8,5,1,48,56,1087549328
50,9,20,Ticks_Linear_8,6,1,38,15,1087559272
50,9,20,Ticks_Linear_8,7,5,42,127,1087815272
50,9,20,Ticks_Linear_8,8,1,48,71,1088546596
50,9,20,Ticks_Linear_8,9,5,42,127,1088635232
50,9,20,Ticks_Linear_8,10,1,48,42,1089359648
50,9,20,Ticks_Linear_8,11,5,42,127,1089445312
50,9,20,Ticks_Linear_8,12,1,48,60,1090117816
50,9,20,Ticks_Linear_8,13,5,42,127,1090255280
50,9,20,Ticks_Linear_8,14,1,48,45,1090936332
50,9,20,Ticks_Linear_8,15,5,42,127,1091065264
50,9,20,Ticks_Linear_8,16,1,48,49,1091752028
50,9,20,Ticks_Linear_8,17,5,42,127,1091875096
50,9,20,Ticks_Linear_8,18,1,48,51,1092556248
50,9,20,Ticks_Linear_8,19,5,42,127,1092685080
50,9,20,Ticks_Linear_8,20,1,48,59,1093310436
50,9,20,Ticks_Linear_8,21,5,42,127,1093485104
50,9,20,Ticks_Linear_8,22,1,48,59,1094059912
50,9,20,Ticks_Linear_8,23,5,42,127,1094284900
50,9,20,Ticks_Linear_8,24,1,48,58,1094820764
50,9,20,Ticks_Linear_8,25,5,42,127,1095085476
50,9,20,Ticks_Linear_8,26,1,48,59,1095782320
50,9,20,Ticks_Linear_8,27,5,42,127,1095895308
50,9,20,Ticks_Linear_8,28,1,48,60,1096555544
50,9,20,Ticks_Linear_8,29,5,42,127,1096695180
50,9,20,Ticks_Linear_8,30,1,48,61,1097327332
50,9,20,Ticks_Linear_8,31,5,42,127,1097484644
50,9,20,Ticks_Linear_8,32,1,48,58,1098072248
50,9,20,Ticks_Linear_8,33,5,42,127,1098275084
50,9,20,Ticks_Linear_8,34,1,48,56,1098928376
50,9,20,Ticks_Linear_8,35,5,42,127,1099064848
50,9,20,Ticks_Linear_8,36,1,48,59,1099729072
50,9,20,Ticks_Linear_8,37,5,42,127,1099855284
50,9,20,Ticks_Linear_8,38,1,48,48,1100511420
50,9,20,Ticks_Linear_8,39,5,42,127,1100644748
50,9,20,Ticks_Linear_8,40,1,48,56,1101291296
50,9,20,Ticks_Linear_8,41,5,42,127,1101425004
50,9,20,Ticks_Linear_8,42,1,48,59,1102017040
50,9,20,Ticks_Linear_8,43,5,42,127,1102205180
50,9,20,Ticks_Linear_8,44,1,48,58,1102828892
50,9,20,Ticks_Linear_8,45,5,42,127,1102984832
50,9,20,Ticks_Linear_8,46,1,48,65,1103605328
50,9,20,Ticks_Linear_8,47,5,42,127,1103764788
50,9,20,Ticks_Linear_8,48,1,48,61,1104427220
50,9,20,Ticks_Linear_8,49,5,42,127,1104545288
50,9,20,Ticks_Linear_8,50,1,48,48,1105193620
50,9,20,Ticks_Linear_8,51,5,42,127,1105315208
50,9,20,Ticks_Linear_8,52,1,48,67,1105935676
50,9,20,Ticks_Linear_8,53,5,42,127,1106085204
50,9,20,Ticks_Linear_8,54,1,48,51,1106759284
50,9,20,Ticks_Linear_8,55,5,42,127,1106855284
50,9,20,Ticks_Linear_8,56,1,48,57,1107482932
50,9,20,Ticks_Linear_8,57,5,42,127,1107625192
50,9,20,Ticks_Linear_8,58,1,48,67,1108243188
50,9,20,Ticks_Linear_8,59,5,42,127,1108395704
50,9,20,Ticks_Linear_8,60,1,48,61,1109030100
50,9,20,Ticks_Linear_8,61,5,42,127,1109155068
50,9,20,Ticks_Linear_8,62,1,48,69,1109876256
50,9,20,Ticks_Linear_8,63,5,42,127,1109914940
50,9,20,Ticks_Linear_8,64,1,48,65,1110655216
50,9,20,Ticks_Linear_8,65,5,42,127,1110674800
50,9,20,Ticks_Linear_8,66,5,42,127,1111434760
50,9,20,Ticks_Linear_8,67,1,48,75,1111543132
50,9,20,Ticks_Linear_8,68,5,42,127,1112194644
50,9,20,Ticks_Linear_8,69,1,48,66,1112261744
50,9,20,Ticks_Linear_8,70,5,42,127,1112945016
50,9,20,Ticks_Linear_8,71,1,48,65,1112954132
50,9,20,Ticks_Linear_8,72,5,42,127,1113694788
50,9,20,Ticks_Linear_8,73,1,48,65,1113706296
50,9,20,Ticks_Linear_8,74,5,42,127,1114445088
50,9,20,Ticks_Linear_8,75,1,48,62,1114447832
50,9,20,Ticks_Linear_8,76,1,48,71,1115149508
50,9,20,Ticks_Linear_8,77,5,42,127,1115194704
50,9,20,Ticks_Linear_8,78,1,48,70,1115837348
50,9,20,Ticks_Linear_8,79,5,42,127,1115945288
50,9,20,Ticks_Linear_8,80,5,42,127,1116684676
50,9,20,Ticks_Linear_8,81,1,48,77,1116694692
50,9,20,Ticks_Linear_8,82,5,42,127,1117425088
50,9,20,Ticks_Linear_8,83,1,48,75,1117484528
50,9,20,Ticks_Linear_8,84,5,42,127,1118165572
50,9,20,Ticks_Linear_8,85,1,48,69,1118216848
50,9,20,Ticks_Linear_8,86,5,42,127,1118904640
50,9,20,Ticks_Linear_8,87,1,48,62,1118923268
50,9,20,Ticks_Linear_8,88,1,48,75,1119622132
50,9,20,Ticks_Linear_8,89,5,42,127,1119645120
50,9,20,Ticks_Linear_8,90,1,48,57,1120355288
50,9,20,Ticks_Linear_8,91,5,42,127,1120375024
50,9,20,Ticks_Linear_8,92,1,48,66,1121039612
50,9,20,Ticks_Linear_8,93,5,42,127,1121105476
50,9,20,Ticks_Linear_8,94,1,48,70,1121778900
50,9,20,Ticks_Linear_8,95,5,42,127,1121835480
50,9,20,Ticks_Linear_8,96,1,48,61,1122563240
50,9,20,Ticks_Linear_8,97,5,42,127,1122564808
50,9,20,Ticks_Linear_8,98,1,48,70,1123254560
50,9,20,Ticks_Linear_8,99,5,42,127,1123294516
50,9,20,Ticks_Linear_8,100,1,48,68,1123978844
50,9,20,Ticks_Linear_8,101,5,42,127,1124014556
50,9,20,Ticks_Linear_8,102,1,48,71,1124717088
50,9,20,Ticks_Linear_8,103,5,42,127,1124735548
50,9,20,Ticks_Linear_8,104,1,48,78,1125432332
50,9,20,Ticks_Linear_8,105,5,42,127,1125455364
50,9,20,Ticks_Linear_8,106,5,42,127,1126175044
50,9,20,Ticks_Linear_8,107,1,48,68,1126181528
50,9,20,Ticks_Linear_8,108,5,42,127,1126895012
50,9,20,Ticks_Linear_8,109,1,48,70,1126931152
50,9,20,Ticks_Linear_8,110,5,42,127,1127604576
50,9,20,Ticks_Linear_8,111,1,48,68,1127621464
50,9,20,Ticks_Linear_8,112,5,42,127,1128315452
50,9,20,Ticks_Linear_8,113,1,48,73,1128334456
50,9,20,Ticks_Linear_8,114,1,48,59,1129015456
50,9,20,Ticks_Linear_8,115,5,42,127,1129024784
50,9,20,Ticks_Linear_8,116,1,48,57,1129732304
50,9,20,Ticks_Linear_8,117,5,42,127,1129734416
50,9,20,Ticks_Linear_8,118,1,48,68,1130403348
50,9,20,Ticks_Linear_8,119,5,42,127,1130445396
50,9,20,Ticks_Linear_8,120,1,48,53,1131118872
50,9,20,Ticks_Linear_8,121,5,42,127,1131144452
50,9,20,Ticks_Linear_8,122,1,48,49,1131829252
50,9,20,Ticks_Linear_8,123,5,42,127,1131844944
50,9,20,Ticks_Linear_8,124,1,48,61,1132516648
50,9,20,Ticks_Linear_8,125,5,42,127,1132545368
50,9,20,Ticks_Linear_8,126,1,48,63,1133213252
50,9,20,Ticks_Linear_8,127,5,42,127,1133244820
50,9,20,Ticks_Linear_8,128,1,48,73,1133940080
50,9,20,Ticks_Linear_8,129,5,42,127,1133945364
50,9,20,Ticks_Linear_8,130,5,42,127,1134635384
50,9,20,Ticks_Linear_8,131,1,48,69,1134646300
50,9,20,Ticks_Linear_8,132,1,48,73,1135298916
50,9,20,Ticks_Linear_8,133,5,42,127,1135324496
50,9,20,Ticks_Linear_8,134,1,48,64,1135971972
50,9,20,Ticks_Linear_8,135,5,42,127,1136014856
50,9,20,Ticks_Linear_8,136,1,48,65,1136631732
50,9,20,Ticks_Linear_8,137,5,42,127,1136704872
50,9,20,Ticks_Linear_8,138,1,48,73,1137281212
50,9,20,Ticks_Linear_8,139,5,42,127,1137395172
50,9,20,Ticks_Linear_8,140,1,48,72,1138031660
50,9,20,Ticks_Linear_8,141,1,38,18,1138041748
50,9,20,Ticks_Linear_8,142,5,42,127,1138075268
50,9,20,Ticks_Linear_8,143,1,48,77,1138751032
50,9,20,Ticks_Linear_8,144,5,42,127,1138755120
50,9,20,Ticks_Linear_8,145,1,48,70,1139396412
50,9,20,Ticks_Linear_8,146,1,38,17,1139406356
50,9,20,Ticks_Linear_8,147,5,42,127,1139435004
50,9,20,Ticks_Linear_8,148,1,48,60,1140090996
50,9,20,Ticks_Linear_8,149,1,38,16,1140100936
50,9,20,Ticks_Linear_8,150,5,42,127,1140114912
50,9,20,Ticks_Linear_8,151,5,42,127,1140794792
50,9,20,Ticks_Linear_8,152,1,48,64,1140826896
50,9,20,Ticks_Linear_8,153,1,38,17,1140836308
50,9,20,Ticks_Linear_8,154,5,42,127,1141464316
50,9,20,Ticks_Linear_8,155,1,48,70,1141498064
50,9,20,Ticks_Linear_8,156,5,42,127,1142135208
50,9,20,Ticks_Linear_8,157,1,48,64,1142144472
50,9,20,Ticks_Linear_8,158,1,38,16,1142154488
50,9,20,Ticks_Linear_8,159,5,42,127,1142804804
50,9,20,Ticks_Linear_8,160,1,48,60,1142817436
50,9,20,Ticks_Linear_8,161,5,42,127,1143474524
50,9,20,Ticks_Linear_8,162,1,48,61,1143483492
50,9,20,Ticks_Linear_8,163,5,42,127,1144145192
50,9,20,Ticks_Linear_8,164,1,48,58,1144153112
50,9,20,Ticks_Linear_8,165,5,42,127,1144804876
50,9,20,Ticks_Linear_8,166,1,48,56,1144821996
50,9,20,Ticks_Linear_8,167,1,38,16,1144832012
50,9,20,Ticks_Linear_8,168,5,42,127,1145465164
50,9,20,Ticks_Linear_8,169,1,48,57,1145526800
50,9,20,Ticks_Linear_8,170,5,42,127,1146124552
50,9,20,Ticks_Linear_8,171,1,48,57,1146153584
50,9,20,Ticks_Linear_8,172,1,48,68,1146770152
50,9,20,Ticks_Linear_8,173,1,38,17,1146780732
50,9,20,Ticks_Linear_8,174,5,42,127,1146785116
50,9,20,Ticks_Linear_8,175,5,42,127,1147444680
50,9,20,Ticks_Linear_8,176,1,48,55,1147453948
50,9,20,Ticks_Linear_8,177,5,42,127,1148095128
50,9,20,Ticks_Linear_8,178,1,48,65,1148113528
50,9,20,Ticks_Linear_8,179,5,42,127,1148744976
50,9,20,Ticks_Linear_8,180,1,48,65,1148782460
50,9,20,Ticks_Linear_8,181,5,42,127,1149395300
50,9,20,Ticks_Linear_8,182,1,48,61,1149398048
50,9,20,Ticks_Linear_8,183,1,48,77,1149995896
50,9,20,Ticks_Linear_8,184,5,42,127,1150044396
50,9,20,Ticks_Linear_8,185,1,48,65,1150618112
50,9,20,Ticks_Linear_8,186,5,42,127,1150694868
50,9,20,Ticks_Linear_8,187,5,42,127,1151334984
50,9,20,Ticks_Linear_8,188,1,48,70,1151360644
50,9,20,Ticks_Linear_8,189,5,42,127,1151974972
50,9,20,Ticks_Linear_8,190,1,48,56,1152068860
50,9,20,Ticks_Linear_8,191,5,42,127,1152614788
50,9,20,Ticks_Linear_8,192,1,48,65,1152664044
50,9,20,Ticks_Linear_8,193,1,48,60,1153251580
50,9,20,Ticks_Linear_8,194,5,42,127,1153254844
50,9,20,Ticks_Linear_8,195,5,42,127,1153894816
50,9,20,Ticks_Linear_8,196,1,48,55,1153920324
50,9,20,Ticks_Linear_8,197,1,48,57,1154523640
50,9,20,Ticks_Linear_8,198,5,42,127,1154525212
50,9,20,Ticks_Linear_8,199,1,38,16,1154533276
50,9,20,Ticks_Linear_8,200,5,42,127,1155155260
50,9,20,Ticks_Linear_8,201,1,48,56,1155178604
50,9,20,Ticks_Linear_8,202,1,38,16,1155188540
50,9,20,Ticks_Linear_8,203,1,48,62,1155761000
50,9,20,Ticks_Linear_8,204,1,38,16,1155770868
50,9,20,Ticks_Linear_8,205,5,42,127,1155785064
50,9,20,Ticks_Linear_8,206,1,48,56,1156410800
50,9,20,Ticks_Linear_8,207,5,42,127,1156414816
50,9,20,Ticks_Linear_8,208,1,38,16,1156420632
50,9,20,Ticks_Linear_8,209,1,48,61,1157035112
50,9,20,Ticks_Linear_8,210,5,42,127,1157044736
50,9,20,Ticks_Linear_8,211,1,48,66,1157652764
50,9,20,Ticks_Linear_8,212,5,42,127,1157665004
50,9,20,Ticks_Linear_8,213,5,42,127,1158284980
50,9,20,Ticks_Linear_8,214,1,48,67,1158347140
50,9,20,Ticks_Linear_8,215,1,48,65,1158865908
50,9,20,Ticks_Linear_8,216,1,38,17,1158875332
50,9,20,Ticks_Linear_8,217,5,42,127,1158905100
50,9,20,Ticks_Linear_8,218,1,48,53,1159522072
50,9,20,Ticks_Linear_8,219,5,42,127,1159524668
50,9,20,Ticks_Linear_8,220,1,48,57,1160108300
50,9,20,Ticks_Linear_8,221,5,42,127,1160145184
50,9,20,Ticks_Linear_8,222,1,48,55,1160746092
50,9,20,Ticks_Linear_8,223,5,42,127,1160754596
50,9,20,Ticks_Linear_8,224,5,42,127,1161364836
50,9,20,Ticks_Linear_8,225,1,48,54,1161386104
50,9,20,Ticks_Linear_8,226,5,42,127,1161975092
50,9,20,Ticks_Linear_8,227,1,48,51,1162024348
50,9,20,Ticks_Linear_8,228,5,42,127,1162584576
50,9,20,Ticks_Linear_8,229,1,48,51,1162658340
50,9,20,Ticks_Linear_8,230,5,42,127,1163194764
50,9,20,Ticks_Linear_8,231,1,48,54,1163245812
50,9,20,Ticks_Linear_8,232,5,42,127,1163794888
50,9,20,Ticks_Linear_8,233,1,48,62,1163798008
50,9,20,Ticks_Linear_8,234,5,42,127,1164394860
50,9,20,Ticks_Linear_8,235,1,48,54,1164405468
50,9,20,Ticks_Linear_8,236,5,42,127,1164995008
50,9,20,Ticks_Linear_8,237,1,48,57,1165042760
50,9,20,Ticks_Linear_8,238,1,48,54,1165536748
50,9,20,Ticks_Linear_8,239,5,42,127,1165594900
50,9,20,Ticks_Linear_8,240,1,48,54,1166152364
50,9,20,Ticks_Linear_8,241,5,42,127,1166194952
50,9,20,Ticks_Linear_8,242,1,48,44,1166684280
50,9,20,Ticks_Linear_8,243,5,42,127,1166784900
50,9,20,Ticks_Linear_8,244,5,42,127,1167374708
50,9,20,Ticks_Linear_8,245,1,48,55,1167395724
50,9,20,Ticks_Linear_8,246,5,42,127,1167964500
50,9,20,Ticks_Linear_8,247,1,48,62,1168095100
50,9,20,Ticks_Linear_8,248,5,42,127,1168555512
50,9,20,Ticks_Linear_8,249,1,48,61,1168701960
50,9,20,Ticks_Linear_8,250,5,42,127,1169145228
50,9,20,Ticks_Linear_8,251,1,48,59,1169298724
50,9,20,Ticks_Linear_8,252,5,42,127,1169724756
50,9,20,Ticks_Linear_8,253,1,48,52,1169863376
50,9,20,Ticks_Linear_8,254,5,42,127,1170305484
50,9,20,Ticks_Linear_8,255,1,48,43,1170464924
50,9,20,Ticks_Linear_8,256,5,42,127,1170884892
50,9,20,Ticks_Linear_8,257,1,48,55,1171031196
50,9,20,Ticks_Linear_8,258,5,42,127,1171464496
50,9,20,Ticks_Linear_8,259,1,48,47,1171608404
50,9,20,Ticks_Linear_8,260,5,42,127,1172045148
50,9,20,Ticks_Linear_8,261,1,48,58,1172173436
50,9,20,Ticks_Linear_8,262,5,42,127,1172614496
50,9,20,Ticks_Linear_8,263,1,48,56,1172743976
50,9,20,Ticks_Linear_8,264,5,42,127,1173184912
50,9,20,Ticks_Linear_8,265,1,48,54,1173264796
50,9,20,Ticks_Linear_8,266,5,42,127,1173755380
50,9,20,Ticks_Linear_8,267,1,48,43,1173859000
50,9,20,Ticks_Linear_8,268,5,42,127,1174324576
50,9,20,Ticks_Linear_8,269,1,48,52,1174368808
50,9,20,Ticks_Linear_8,270,5,42,127,1174895044
50,9,20,Ticks_Linear_8,271,1,48,48,1174939752
50,9,20,Ticks_Linear_8,272,5,42,127,1175454980
50,9,20,Ticks_Linear_8,273,1,48,57,1175518008
50,9,20,Ticks_Linear_8,274,5,42,127,1176015412
50,9,20,Ticks_Linear_8,275,1,48,74,1176091392
50,9,20,Ticks_Linear_8,276,1,38,18,1176101408
50,9,20,Ticks_Linear_8,277,5,42,127,1176575500
50,9,20,Ticks_Linear_8,278,1,48,57,1176635764
50,9,20,Ticks_Linear_8,279,5,42,127,1177134512
50,9,20,Ticks_Linear_8,280,1,48,60,1177151032
50,9,20,Ticks_Linear_8,281,1,48,64,1177662312
50,9,20,Ticks_Linear_8,282,5,42,127,1177694564
50,9,20,Ticks_Linear_8,283,1,48,67,1178197520
50,9,20,Ticks_Linear_8,284,5,42,127,1178244364
50,9,20,Ticks_Linear_8,285,1,48,61,1178709424
50,9,20,Ticks_Linear_8,286,5,42,127,1178795384
50,9,20,Ticks_Linear_8,287,1,48,63,1179220796
50,9,20,Ticks_Linear_8,288,5,42,127,1179345464
50,9,20,Ticks_Linear_8,289,1,48,66,1179727396
50,9,20,Ticks_Linear_8,290,5,42,127,1179895264
50,9,20,Ticks_Linear_8,291,1,48,55,1180253536
50,9,20,Ticks_Linear_8,292,5,42,127,1180445140
50,9,20,Ticks_Linear_8,293,1,48,55,1180730304
50,9,20,Ticks_Linear_8,294,5,42,127,1180984604
50,9,20,Ticks_Linear_8,295,1,48,72,1181249780
50,9,20,Ticks_Linear_8,296,5,42,127,1181525268
50,9,20,Ticks_Linear_8,297,1,48,70,1181711732
50,9,20,Ticks_Linear_8,298,5,42,127,1182065180
50,9,20,Ticks_Linear_8,299,1,48,67,1182258320
50,9,20,Ticks_Linear_8,300,5,42,127,1182604648
50,9,20,Ticks_Linear_8,301,1,48,62,1182752020
50,9,20,Ticks_Linear_8,302,5,42,127,1183145260
50,9,20,Ticks_Linear_8,303,1,48,64,1183251344
50,9,20,Ticks_Linear_8,304,5,42,127,1183674692
50,9,20,Ticks_Linear_8,305,1,48,55,1183731800
50,9,20,Ticks_Linear_8,306,5,42,127,1184205168
50,9,20,Ticks_Linear_8,307,1,48,54,1184271864
50,9,20,Ticks_Linear_8,308,5,42,127,1184734524
50,9,20,Ticks_Linear_8,309,1,48,57,1184791332
50,9,20,Ticks_Linear_8,310,5,42,127,1185265152
50,9,20,Ticks_Linear_8,311,1,48,57,1185305796
50,9,20,Ticks_Linear_8,312,5,42,127,1185794508
50,9,20,Ticks_Linear_8,313,1,48,62,1185799872
50,9,20,Ticks_Linear_8,314,5,42,127,1186314580
50,9,20,Ticks_Linear_8,315,1,48,61,1186322108
50,9,20,Ticks_Linear_8,316,5,42,127,1186834944
50,9,20,Ticks_Linear_8,317,1,48,60,1186855664
50,9,20,Ticks_Linear_8,318,5,42,127,1187355164
50,9,20,Ticks_Linear_8,319,1,48,58,1187362544
50,9,20,Ticks_Linear_8,320,1,48,60,1187867100
50,9,20,Ticks_Linear_8,321,5,42,127,1187875224
50,9,20,Ticks_Linear_8,322,1,48,59,1188363204
50,9,20,Ticks_Linear_8,323,5,42,127,1188395520
50,9,20,Ticks_Linear_8,324,1,48,64,1188869416
50,9,20,Ticks_Linear_8,325,5,42,127,1188905328
50,9,20,Ticks_Linear_8,326,1,48,57,1189390832
50,9,20,Ticks_Linear_8,327,5,42,127,1189415288
50,9,20,Ticks_Linear_8,328,1,48,60,1189891580
50,9,20,Ticks_Linear_8,329,5,42,127,1189925176
50,9,20,Ticks_Linear_8,330,1,48,51,1190420488
50,9,20,Ticks_Linear_8,331,5,42,127,1190435280
50,9,20,Ticks_Linear_8,332,1,48,57,1190927604
50,9,20,Ticks_Linear_8,333,5,42,127,1190945168
50,9,20,Ticks_Linear_8,334,1,48,57,1191444120
50,9,20,Ticks_Linear_8,335,5,42,127,1191445544
50,9,20,Ticks_Linear_8,336,1,48,61,1191938160
50,9,20,Ticks_Linear_8,337,5,42,127,1191944640
50,9,20,Ticks_Linear_8,338,1,48,63,1192418688
50,9,20,Ticks_Linear_8,339,5,42,127,1192445164
50,9,20,Ticks_Linear_8,340,1,48,59,1192923188
50,9,20,Ticks_Linear_8,341,5,42,127,1192945012
50,9,20,Ticks_Linear_8,342,1,48,58,1193408952
50,9,20,Ticks_Linear_8,343,5,42,127,1193444864
50,9,20,Ticks_Linear_8,344,1,48,56,1193897196
50,9,20,Ticks_Linear_8,345,5,42,127,1193935276
50,9,20,Ticks_Linear_8,346,1,48,59,1194407748
50,9,20,Ticks_Linear_8,347,5,42,127,1194424644
50,9,20,Ticks_Linear_8,348,1,48,54,1194901280
50,9,20,Ticks_Linear_8,349,5,42,127,1194915056
50,9,20,Ticks_Linear_8,350,5,42,127,1195404556
50,9,20,Ticks_Linear_8,351,1,48,55,1195411336
50,9,20,Ticks_Linear_8,352,5,42,127,1195895192
50,9,20,Ticks_Linear_8,353,1,48,59,1195898388
50,9,20,Ticks_Linear_8,0,9999,9999,9999,1085353032
50,9,20,Ticks_Linear_8,1,9999,9999,9999,1086172228
50,9,20,Ticks_Linear_8,2,9999,9999,9999,1086992468
50,9,20,Ticks_Linear_8,3,9999,9999,9999,1087812676
50,9,20,Ticks_Linear_8,4,9999,9999,9999,1088632932
50,9,20,Ticks_Linear_8,5,9999,9999,9999,1089442940
50,9,20,Ticks_Linear_8,6,9999,9999,9999,1090252908
50,9,20,Ticks_Linear_8,7,9999,9999,9999,1091062892
50,9,20,Ticks_Linear_8,8,9999,9999,9999,1091872872
50,9,20,Ticks_Linear_8,9,9999,9999,9999,1092682856
50,9,20,Ticks_Linear_8,10,9999,9999,9999,1093482580
50,9,20,Ticks_Linear_8,11,9999,9999,9999,1094282304
50,9,20,Ticks_Linear_8,12,9999,9999,9999,1095083100
50,9,20,Ticks_Linear_8,13,9999,9999,9999,1095893084
50,9,20,Ticks_Linear_8,14,9999,9999,9999,1096692808
50,9,20,Ticks_Linear_8,15,9999,9999,9999,1097482348
50,9,20,Ticks_Linear_8,16,9999,9999,9999,1098272860
50,9,20,Ticks_Linear_8,17,9999,9999,9999,1099062400
50,9,20,Ticks_Linear_8,18,9999,9999,9999,1099852908
50,9,20,Ticks_Linear_8,19,9999,9999,9999,1100642376
50,9,20,Ticks_Linear_8,20,9999,9999,9999,1101422704
50,9,20,Ticks_Linear_8,21,9999,9999,9999,1102202956
50,9,20,Ticks_Linear_8,22,9999,9999,9999,1102982236
50,9,20,Ticks_Linear_8,23,9999,9999,9999,1103762488
50,9,20,Ticks_Linear_8,24,9999,9999,9999,1104542840
50,9,20,Ticks_Linear_8,25,9999,9999,9999,1105312836
50,9,20,Ticks_Linear_8,26,9999,9999,9999,1106082904
50,9,20,Ticks_Linear_8,27,9999,9999,9999,1106852984
50,9,20,Ticks_Linear_8,28,9999,9999,9999,1107622964
50,9,20,Ticks_Linear_8,29,9999,9999,9999,1108393032
50,9,20,Ticks_Linear_8,30,9999,9999,9999,1109152844
50,9,20,Ticks_Linear_8,31,9999,9999,9999,1109912640
50,9,20,Ticks_Linear_8,32,9999,9999,9999,1110672500
50,9,20,Ticks_Linear_8,33,9999,9999,9999,1111432312
50,9,20,Ticks_Linear_8,34,9999,9999,9999,1112192120
50,9,20,Ticks_Linear_8,35,9999,9999,9999,1112942720
50,9,20,Ticks_Linear_8,36,9999,9999,9999,1113692268
50,9,20,Ticks_Linear_8,37,9999,9999,9999,1114442864
50,9,20,Ticks_Linear_8,38,9999,9999,9999,1115192408
50,9,20,Ticks_Linear_8,39,9999,9999,9999,1115942988
50,9,20,Ticks_Linear_8,40,9999,9999,9999,1116682304
50,9,20,Ticks_Linear_8,41,9999,9999,9999,1117422716
50,9,20,Ticks_Linear_8,42,9999,9999,9999,1118163052
50,9,20,Ticks_Linear_8,43,9999,9999,9999,1118902340
50,9,20,Ticks_Linear_8,44,9999,9999,9999,1119642724
50,9,20,Ticks_Linear_8,45,9999,9999,9999,1120372800
50,9,20,Ticks_Linear_8,46,9999,9999,9999,1121102956
50,9,20,Ticks_Linear_8,47,9999,9999,9999,1121833032
50,9,20,Ticks_Linear_8,48,9999,9999,9999,1122562144
50,9,20,Ticks_Linear_8,49,9999,9999,9999,1123292216
50,9,20,Ticks_Linear_8,50,9999,9999,9999,1124012108
50,9,20,Ticks_Linear_8,51,9999,9999,9999,1124733024
50,9,20,Ticks_Linear_8,52,9999,9999,9999,1125452920
50,9,20,Ticks_Linear_8,53,9999,9999,9999,1126172744
50,9,20,Ticks_Linear_8,54,9999,9999,9999,1126892640
50,9,20,Ticks_Linear_8,55,9999,9999,9999,1127602276
50,9,20,Ticks_Linear_8,56,9999,9999,9999,1128312932
50,9,20,Ticks_Linear_8,57,9999,9999,9999,1129022556
50,9,20,Ticks_Linear_8,58,9999,9999,9999,1129732156
50,9,20,Ticks_Linear_8,59,9999,9999,9999,1130442872
50,9,20,Ticks_Linear_8,60,9999,9999,9999,1131142224
50,9,20,Ticks_Linear_8,61,9999,9999,9999,1131842648
50,9,20,Ticks_Linear_8,62,9999,9999,9999,1132543068
50,9,20,Ticks_Linear_8,63,9999,9999,9999,1133242444
50,9,20,Ticks_Linear_8,64,9999,9999,9999,1133942840
50,9,20,Ticks_Linear_8,65,9999,9999,9999,1134633084
50,9,20,Ticks_Linear_8,66,9999,9999,9999,1135322196
50,9,20,Ticks_Linear_8,67,9999,9999,9999,1136012408
50,9,20,Ticks_Linear_8,68,9999,9999,9999,1136702572
50,9,20,Ticks_Linear_8,69,9999,9999,9999,1137392720
50,9,20,Ticks_Linear_8,70,9999,9999,9999,1138072672
50,9,20,Ticks_Linear_8,71,9999,9999,9999,1138752600
50,9,20,Ticks_Linear_8,72,9999,9999,9999,1139432556
50,9,20,Ticks_Linear_8,73,9999,9999,9999,1140112464
50,9,20,Ticks_Linear_8,74,9999,9999,9999,1140792420
50,9,20,Ticks_Linear_8,75,9999,9999,9999,1141462092
50,9,20,Ticks_Linear_8,76,9999,9999,9999,1142132832
50,9,20,Ticks_Linear_8,77,9999,9999,9999,1142802504
50,9,20,Ticks_Linear_8,78,9999,9999,9999,1143472224
50,9,20,Ticks_Linear_8,79,9999,9999,9999,1144142968
50,9,20,Ticks_Linear_8,80,9999,9999,9999,1144802428
50,9,20,Ticks_Linear_8,81,9999,9999,9999,1145462864
50,9,20,Ticks_Linear_8,82,9999,9999,9999,1146122324
50,9,20,Ticks_Linear_8,83,9999,9999,9999,1146782820
50,9,20,Ticks_Linear_8,84,9999,9999,9999,1147442232
50,9,20,Ticks_Linear_8,85,9999,9999,9999,1148092532
50,9,20,Ticks_Linear_8,86,9999,9999,9999,1148742752
50,9,20,Ticks_Linear_8,87,9999,9999,9999,1149393000
50,9,20,Ticks_Linear_8,88,9999,9999,9999,1150042172
50,9,20,Ticks_Linear_8,89,9999,9999,9999,1150692420
50,9,20,Ticks_Linear_8,90,9999,9999,9999,1151332464
50,9,20,Ticks_Linear_8,91,9999,9999,9999,1151972452
50,9,20,Ticks_Linear_8,92,9999,9999,9999,1152612416
50,9,20,Ticks_Linear_8,93,9999,9999,9999,1153252472
50,9,20,Ticks_Linear_8,94,9999,9999,9999,1153892440
50,9,20,Ticks_Linear_8,95,9999,9999,9999,1154522172
50,9,20,Ticks_Linear_8,96,9999,9999,9999,1155152964
50,9,20,Ticks_Linear_8,97,9999,9999,9999,1155782768
50,9,20,Ticks_Linear_8,98,9999,9999,9999,1156412516
50,9,20,Ticks_Linear_8,99,9999,9999,9999,1157042288
50,9,20,Ticks_Linear_8,100,9999,9999,9999,1157662780
50,9,20,Ticks_Linear_8,101,9999,9999,9999,1158282308
50,9,20,Ticks_Linear_8,102,9999,9999,9999,1158902876
50,9,20,Ticks_Linear_8,103,9999,9999,9999,1159522368
50,9,20,Ticks_Linear_8,104,9999,9999,9999,1160142960
50,9,20,Ticks_Linear_8,105,9999,9999,9999,1160752220
50,9,20,Ticks_Linear_8,106,9999,9999,9999,1161362536
50,9,20,Ticks_Linear_8,107,9999,9999,9999,1161972792
50,9,20,Ticks_Linear_8,108,9999,9999,9999,1162582128
50,9,20,Ticks_Linear_8,109,9999,9999,9999,1163192388
50,9,20,Ticks_Linear_8,110,9999,9999,9999,1163792440
50,9,20,Ticks_Linear_8,111,9999,9999,9999,1164392560
50,9,20,Ticks_Linear_8,112,9999,9999,9999,1164992632
50,9,20,Ticks_Linear_8,113,9999,9999,9999,1165592676
50,9,20,Ticks_Linear_8,114,9999,9999,9999,1166192724
50,9,20,Ticks_Linear_8,115,9999,9999,9999,1166782528
50,9,20,Ticks_Linear_8,116,9999,9999,9999,1167372412
50,9,20,Ticks_Linear_8,117,9999,9999,9999,1167962200
50,9,20,Ticks_Linear_8,118,9999,9999,9999,1168553064
50,9,20,Ticks_Linear_8,119,9999,9999,9999,1169142852
50,9,20,Ticks_Linear_8,120,9999,9999,9999,1169722460
50,9,20,Ticks_Linear_8,121,9999,9999,9999,1170303036
50,9,20,Ticks_Linear_8,122,9999,9999,9999,1170882668
50,9,20,Ticks_Linear_8,123,9999,9999,9999,1171462196
50,9,20,Ticks_Linear_8,124,9999,9999,9999,1172042848
50,9,20,Ticks_Linear_8,125,9999,9999,9999,1172612196
50,9,20,Ticks_Linear_8,126,9999,9999,9999,1173182540
50,9,20,Ticks_Linear_8,127,9999,9999,9999,1173752932
50,9,20,Ticks_Linear_8,128,9999,9999,9999,1174322280
50,9,20,Ticks_Linear_8,129,9999,9999,9999,1174892596
50,9,20,Ticks_Linear_8,130,9999,9999,9999,1175452756
50,9,20,Ticks_Linear_8,131,9999,9999,9999,1176012888
50,9,20,Ticks_Linear_8,132,9999,9999,9999,1176573052
50,9,20,Ticks_Linear_8,133,9999,9999,9999,1177132140
50,9,20,Ticks_Linear_8,134,9999,9999,9999,1177692264
50,9,20,Ticks_Linear_8,135,9999,9999,9999,1178242140
50,9,20,Ticks_Linear_8,136,9999,9999,9999,1178793084
50,9,20,Ticks_Linear_8,137,9999,9999,9999,1179342944
50,9,20,Ticks_Linear_8,138,9999,9999,9999,1179892816
50,9,20,Ticks_Linear_8,139,9999,9999,9999,1180442692
50,9,20,Ticks_Linear_8,140,9999,9999,9999,1180982380
50,9,20,Ticks_Linear_8,141,9999,9999,9999,1181523044
50,9,20,Ticks_Linear_8,142,9999,9999,9999,1182062660
50,9,20,Ticks_Linear_8,143,9999,9999,9999,1182602348
50,9,20,Ticks_Linear_8,144,9999,9999,9999,1183143036
50,9,20,Ticks_Linear_8,145,9999,9999,9999,1183672392
50,9,20,Ticks_Linear_8,146,9999,9999,9999,1184202868
50,9,20,Ticks_Linear_8,147,9999,9999,9999,1184732228
50,9,20,Ticks_Linear_8,148,9999,9999,9999,1185262704
50,9,20,Ticks_Linear_8,149,9999,9999,9999,1185792060
50,9,20,Ticks_Linear_8,150,9999,9999,9999,1186312280
50,9,20,Ticks_Linear_8,151,9999,9999,9999,1186832500
50,9,20,Ticks_Linear_8,152,9999,9999,9999,1187352640
50,9,20,Ticks_Linear_8,153,9999,9999,9999,1187872852
50,9,20,Ticks_Linear_8,154,9999,9999,9999,1188393072
50,9,20,Ticks_Linear_8,155,9999,9999,9999,1188903032
50,9,20,Ticks_Linear_8,156,9999,9999,9999,1189412992
50,9,20,Ticks_Linear_8,157,9999,9999,9999,1189922876
50,9,20,Ticks_Linear_8,158,9999,9999,9999,1190432832
50,9,20,Ticks_Linear_8,159,9999,9999,9999,1190942792
50,9,20,Ticks_Linear_8,160,9999,9999,9999,1191442500
50,9,20,Ticks_Linear_8,161,9999,9999,9999,1191942268
50,9,20,Ticks_Linear_8,162,9999,9999,9999,1192442940
50,9,20,Ticks_Linear_8,163,9999,9999,9999,1192942712
50,9,20,Ticks_Linear_8,164,9999,9999,9999,1193442416
50,9,20,Ticks_Linear_8,165,9999,9999,9999,1193932904
50,9,20,Ticks_Linear_8,166,9999,9999,9999,1194422344
50,9,20,Ticks_Linear_8,167,9999,9999,9999,1194912832
50,9,20,Ticks_Linear_8,168,9999,9999,9999,1195402328
50,9,20,Ticks_Linear_8,169,9999,9999,9999,1195892816
50,10,10,Ticks_ISO_T2_5,0,5,42,127,1205607748
50,10,10,Ticks_ISO_T2_5,1,5,42,127,1206107616
50,10,10,Ticks_ISO_T2_5,2,1,48,52,1206156440
50,10,10,Ticks_ISO_T2_5,3,1,48,62,1206577500
50,10,10,Ticks_ISO_T2_5,4,5,42,127,1206608276
50,10,10,Ticks_ISO_T2_5,5,1,48,67,1207029396
50,10,10,Ticks_ISO_T2_5,6,1,38,17,1207039328
50,10,10,Ticks_ISO_T2_5,7,5,42,127,1207107876
50,10,10,Ticks_ISO_T2_5,8,1,48,58,1207510420
50,10,10,Ticks_ISO_T2_5,9,5,42,127,1207607764
50,10,10,Ticks_ISO_T2_5,10,1,48,58,1207978624
50,10,10,Ticks_ISO_T2_5,11,5,42,127,1208108268
50,10,10,Ticks_ISO_T2_5,12,1,48,55,1208525512
50,10,10,Ticks_ISO_T2_5,13,5,42,127,1208608128
50,10,10,Ticks_ISO_T2_5,14,1,48,42,1209027156
50,10,10,Ticks_ISO_T2_5,15,5,42,127,1209107820
50,10,10,Ticks_ISO_T2_5,16,1,48,43,1209500296
50,10,10,Ticks_ISO_T2_5,17,5,42,127,1209607724
50,10,10,Ticks_ISO_T2_5,18,1,48,48,1210007996
50,10,10,Ticks_ISO_T2_5,19,5,42,127,1210108244
50,10,10,Ticks_ISO_T2_5,20,1,48,53,1210554212
50,10,10,Ticks_ISO_T2_5,21,5,42,127,1210607952
50,10,10,Ticks_ISO_T2_5,22,1,48,48,1211012668
50,10,10,Ticks_ISO_T2_5,23,5,42,127,1211108604
50,10,10,Ticks_ISO_T2_5,24,1,48,52,1211510344
50,10,10,Ticks_ISO_T2_5,25,5,42,127,1211609496
50,10,10,Ticks_ISO_T2_5,26,1,48,45,1212048564
50,10,10,Ticks_ISO_T2_5,27,5,42,127,1212108084
50,10,10,Ticks_ISO_T2_5,28,1,48,54,1212548480
50,10,10,Ticks_ISO_T2_5,29,5,42,127,1212607776
50,10,10,Ticks_ISO_T2_5,30,1,48,61,1213029548
50,10,10,Ticks_ISO_T2_5,31,5,42,127,1213107768
50,10,10,Ticks_ISO_T2_5,32,1,48,55,1213514132
50,10,10,Ticks_ISO_T2_5,33,5,42,127,1213608436
50,10,10,Ticks_ISO_T2_5,34,1,48,55,1213993332
50,10,10,Ticks_ISO_T2_5,35,5,42,127,1214107892
50,10,10,Ticks_ISO_T2_5,36,1,48,57,1214451288
50,10,10,Ticks_ISO_T2_5,37,5,42,127,1214607860
50,10,10,Ticks_ISO_T2_5,38,1,48,55,1214969608
50,10,10,Ticks_ISO_T2_5,39,5,42,127,1215107628
50,10,10,Ticks_ISO_T2_5,40,1,48,65,1215570280
50,10,10,Ticks_ISO_T2_5,41,1,38,17,1215580212
50,10,10,Ticks_ISO_T2_5,42,5,42,127,1215608068
50,10,10,Ticks_ISO_T2_5,43,5,42,127,1216107816
50,10,10,Ticks_ISO_T2_5,44,1,48,62,1216110480
50,10,10,Ticks_ISO_T2_5,45,5,42,127,1216607732
50,10,10,Ticks_ISO_T2_5,46,1,48,59,1216658124
50,10,10,Ticks_ISO_T2_5,47,1,48,65,1217107496
50,10,10,Ticks_ISO_T2_5,48,5,42,127,1217109068
50,10,10,Ticks_ISO_T2_5,49,1,48,55,1217599152
50,10,10,Ticks_ISO_T2_5,50,5,42,127,1217607940
50,10,10,Ticks_ISO_T2_5,51,1,48,57,1218085828
50,10,10,Ticks_ISO_T2_5,52,5,42,127,1218107708
50,10,10,Ticks_ISO_T2_5,53,1,48,57,1218568696
50,10,10,Ticks_ISO_T2_5,54,5,42,127,1218607624
50,10,10,Ticks_ISO_T2_5,55,1,48,59,1219034360
50,10,10,Ticks_ISO_T2_5,56,5,42,127,1219108068
50,10,10,Ticks_ISO_T2_5,57,1,48,56,1219564196
50,10,10,Ticks_ISO_T2_5,58,5,42,127,1219607840
50,10,10,Ticks_ISO_T2_5,59,1,48,67,1220047288
50,10,10,Ticks_ISO_T2_5,60,5,42,127,1220107608
50,10,10,Ticks_ISO_T2_5,61,1,48,66,1220516536
50,10,10,Ticks_ISO_T2_5,62,5,42,127,1220609456
50,10,10,Ticks_ISO_T2_5,63,1,48,65,1221011572
50,10,10,Ticks_ISO_T2_5,64,5,42,127,1221108044
50,10,10,Ticks_ISO_T2_5,65,1,48,57,1221558712
50,10,10,Ticks_ISO_T2_5,66,5,42,127,1221607740
50,10,10,Ticks_ISO_T2_5,67,1,48,65,1222090120
50,10,10,Ticks_ISO_T2_5,68,1,38,17,1222100052
50,10,10,Ticks_ISO_T2_5,69,5,42,127,1222107640
50,10,10,Ticks_ISO_T2_5,70,1,48,74,1222599796
50,10,10,Ticks_ISO_T2_5,71,5,42,127,1222608428
50,10,10,Ticks_ISO_T2_5,72,1,38,18,1222609992
50,10,10,Ticks_ISO_T2_5,73,1,48,59,1223090480
50,10,10,Ticks_ISO_T2_5,74,5,42,127,1223107940
50,10,10,Ticks_ISO_T2_5,75,5,42,127,1223607716
50,10,10,Ticks_ISO_T2_5,76,1,48,64,1223611436
50,10,10,Ticks_ISO_T2_5,77,1,48,61,1224071220
50,10,10,Ticks_ISO_T2_5,78,5,42,127,1224108376
50,10,10,Ticks_ISO_T2_5,79,1,48,56,1224578016
50,10,10,Ticks_ISO_T2_5,80,5,42,127,1224608296
50,10,10,Ticks_ISO_T2_5,81,1,48,51,1225106616
50,10,10,Ticks_ISO_T2_5,82,5,42,127,1225108336
50,10,10,Ticks_ISO_T2_5,83,5,42,127,1225607516
50,10,10,Ticks_ISO_T2_5,84,1,48,57,1225610340
50,10,10,Ticks_ISO_T2_5,85,1,48,60,1226087200
50,10,10,Ticks_ISO_T2_5,86,5,42,127,1226108400
50,10,10,Ticks_ISO_T2_5,87,1,48,54,1226553612
50,10,10,Ticks_ISO_T2_5,88,5,42,127,1226607872
50,10,10,Ticks_ISO_T2_5,89,1,48,57,1227045224
50,10,10,Ticks_ISO_T2_5,90,5,42,127,1227107568
50,10,10,Ticks_ISO_T2_5,91,1,48,61,1227516420
50,10,10,Ticks_ISO_T2_5,92,5,42,127,1227608532
50,10,10,Ticks_ISO_T2_5,93,1,48,51,1228079992
50,10,10,Ticks_ISO_T2_5,94,5,42,127,1228108224
50,10,10,Ticks_ISO_T2_5,95,1,48,62,1228576924
50,10,10,Ticks_ISO_T2_5,96,5,42,127,1228607848
50,10,10,Ticks_ISO_T2_5,97,1,48,45,1229097188
50,10,10,Ticks_ISO_T2_5,98,5,42,127,1229107620
50,10,10,Ticks_ISO_T2_5,99,1,48,63,1229603164
50,10,10,Ticks_ISO_T2_5,100,5,42,127,1229608360
50,10,10,Ticks_ISO_T2_5,101,1,48,60,1230072940
50,10,10,Ticks_ISO_T2_5,102,5,42,127,1230108128
50,10,10,Ticks_ISO_T2_5,103,1,48,57,1230570164
50,10,10,Ticks_ISO_T2_5,104,5,42,127,1230607820
50,10,10,Ticks_ISO_T2_5,105,1,48,57,1231043680
50,10,10,Ticks_ISO_T2_5,106,5,42,127,1231107292
50,10,10,Ticks_ISO_T2_5,107,1,48,52,1231549732
50,10,10,Ticks_ISO_T2_5,108,5,42,127,1231608184
50,10,10,Ticks_ISO_T2_5,109,1,48,59,1232087572
50,10,10,Ticks_ISO_T2_5,110,5,42,127,1232107804
50,10,10,Ticks_ISO_T2_5,111,5,42,127,1232607580
50,10,10,Ticks_ISO_T2_5,112,1,48,58,1232632988
50,10,10,Ticks_ISO_T2_5,113,5,42,127,1233108396
50,10,10,Ticks_ISO_T2_5,114,1,48,58,1233173220
50,10,10,Ticks_ISO_T2_5,115,5,42,127,1233608088
50,10,10,Ticks_ISO_T2_5,116,1,48,62,1233659452
50,10,10,Ticks_ISO_T2_5,117,5,42,127,1234107860
50,10,10,Ticks_ISO_T2_5,118,1,48,55,1234121596
50,10,10,Ticks_ISO_T2_5,119,1,48,59,1234599508
50,10,10,Ticks_ISO_T2_5,120,5,42,127,1234607324
50,10,10,Ticks_ISO_T2_5,121,5,42,127,1235108292
50,10,10,Ticks_ISO_T2_5,122,1,48,58,1235113656
50,10,10,Ticks_ISO_T2_5,123,5,42,127,1235608064
50,10,10,Ticks_ISO_T2_5,124,1,48,63,1235614172
50,10,10,Ticks_ISO_T2_5,125,5,42,127,1236107660
50,10,10,Ticks_ISO_T2_5,126,1,48,58,1236148200
50,10,10,Ticks_ISO_T2_5,127,5,42,127,1236608476
50,10,10,Ticks_ISO_T2_5,128,1,48,47,1236612040
50,10,10,Ticks_ISO_T2_5,129,5,42,127,1237108244
50,10,10,Ticks_ISO_T2_5,130,1,48,60,1237129468
50,10,10,Ticks_ISO_T2_5,131,5,42,127,1237607640
50,10,10,Ticks_ISO_T2_5,132,1,48,66,1237626684
50,10,10,Ticks_ISO_T2_5,133,5,42,127,1238107484
50,10,10,Ticks_ISO_T2_5,134,1,48,69,1238116436
50,10,10,Ticks_ISO_T2_5,135,1,38,17,1238126288
50,10,10,Ticks_ISO_T2_5,136,5,42,127,1238608252
50,10,10,Ticks_ISO_T2_5,137,1,48,49,1238624084
50,10,10,Ticks_ISO_T2_5,138,5,42,127,1239108172
50,10,10,Ticks_ISO_T2_5,139,1,48,65,1239115404
50,10,10,Ticks_ISO_T2_5,140,1,48,61,1239579776
50,10,10,Ticks_ISO_T2_5,141,5,42,127,1239607708
50,10,10,Ticks_ISO_T2_5,142,1,48,56,1240079316
50,10,10,Ticks_ISO_T2_5,143,5,42,127,1240108452
50,10,10,Ticks_ISO_T2_5,144,5,42,127,1240608228
50,10,10,Ticks_ISO_T2_5,145,1,48,66,1240614488
50,10,10,Ticks_ISO_T2_5,146,5,42,127,1241107996
50,10,10,Ticks_ISO_T2_5,147,1,48,56,1241110596
50,10,10,Ticks_ISO_T2_5,148,5,42,127,1241607544
50,10,10,Ticks_ISO_T2_5,149,1,48,59,1241633472
50,10,10,Ticks_ISO_T2_5,150,5,42,127,1242108360
50,10,10,Ticks_ISO_T2_5,151,1,48,55,1242144536
50,10,10,Ticks_ISO_T2_5,152,5,42,127,1242608128
50,10,10,Ticks_ISO_T2_5,153,1,48,75,1242664132
50,10,10,Ticks_ISO_T2_5,154,5,42,127,1243107748
50,10,10,Ticks_ISO_T2_5,155,1,48,62,1243172952
50,10,10,Ticks_ISO_T2_5,156,5,42,127,1243608340
50,10,10,Ticks_ISO_T2_5,157,1,48,63,1243640552
50,10,10,Ticks_ISO_T2_5,158,5,42,127,1244108112
50,10,10,Ticks_ISO_T2_5,159,1,48,69,1244161048
50,10,10,Ticks_ISO_T2_5,160,5,42,127,1244608104
50,10,10,Ticks_ISO_T2_5,161,1,48,73,1244642640
50,10,10,Ticks_ISO_T2_5,162,5,42,127,1245107428
50,10,10,Ticks_ISO_T2_5,163,1,48,75,1245151008
50,10,10,Ticks_ISO_T2_5,164,5,42,127,1245608316
50,10,10,Ticks_ISO_T2_5,165,1,48,71,1245718552
50,10,10,Ticks_ISO_T2_5,166,5,42,127,1246108088
50,10,10,Ticks_ISO_T2_5,167,1,48,64,1246185256
50,10,10,Ticks_ISO_T2_5,168,5,42,127,1246607908
50,10,10,Ticks_ISO_T2_5,169,1,48,67,1246652788
50,10,10,Ticks_ISO_T2_5,170,5,42,127,1247107452
50,10,10,Ticks_ISO_T2_5,171,1,48,62,1247127348
50,10,10,Ticks_ISO_T2_5,172,1,48,54,1247583396
50,10,10,Ticks_ISO_T2_5,173,5,42,127,1247608188
50,10,10,Ticks_ISO_T2_5,174,1,48,52,1248057060
50,10,10,Ticks_ISO_T2_5,175,5,42,127,1248108104
50,10,10,Ticks_ISO_T2_5,176,1,48,61,1248524420
50,10,10,Ticks_ISO_T2_5,177,5,42,127,1248607704
50,10,10,Ticks_ISO_T2_5,178,1,48,55,1249011696
50,10,10,Ticks_ISO_T2_5,179,5,42,127,1249108372
50,10,10,Ticks_ISO_T2_5,180,1,48,62,1249545124
50,10,10,Ticks_ISO_T2_5,181,5,42,127,1249607992
50,10,10,Ticks_ISO_T2_5,182,1,48,58,1250089552
50,10,10,Ticks_ISO_T2_5,183,5,42,127,1250107912
50,10,10,Ticks_ISO_T2_5,184,1,48,60,1250588124
50,10,10,Ticks_ISO_T2_5,185,5,42,127,1250607456
50,10,10,Ticks_ISO_T2_5,186,1,48,61,1251083176
50,10,10,Ticks_ISO_T2_5,187,5,42,127,1251108196
50,10,10,Ticks_ISO_T2_5,188,1,48,69,1251605236
50,10,10,Ticks_ISO_T2_5,189,5,42,127,1251607892
50,10,10,Ticks_ISO_T2_5,190,1,48,65,1252084660
50,10,10,Ticks_ISO_T2_5,191,5,42,127,1252107884
50,10,10,Ticks_ISO_T2_5,192,1,48,58,1252579196
50,10,10,Ticks_ISO_T2_5,193,5,42,127,1252608328
50,10,10,Ticks_ISO_T2_5,194,1,48,58,1253106356
50,10,10,Ticks_ISO_T2_5,195,5,42,127,1253107948
50,10,10,Ticks_ISO_T2_5,196,1,48,56,1253590180
50,10,10,Ticks_ISO_T2_5,197,5,42,127,1253607792
50,10,10,Ticks_ISO_T2_5,198,1,48,58,1254036440
50,10,10,Ticks_ISO_T2_5,199,5,42,127,1254107484
50,10,10,Ticks_ISO_T2_5,200,1,48,60,1254551344
50,10,10,Ticks_ISO_T2_5,201,5,42,127,1254608376
50,10,10,Ticks_ISO_T2_5,202,1,48,60,1255090684
50,10,10,Ticks_ISO_T2_5,203,5,42,127,1255107996
50,10,10,Ticks_ISO_T2_5,204,5,42,127,1255607700
50,10,10,Ticks_ISO_T2_5,205,1,48,69,1255631832
50,10,10,Ticks_ISO_T2_5,206,5,42,127,1256108516
50,10,10,Ticks_ISO_T2_5,207,1,48,67,1256160024
50,10,10,Ticks_ISO_T2_5,208,5,42,127,1256608060
50,10,10,Ticks_ISO_T2_5,209,1,48,65,1256641844
50,10,10,Ticks_ISO_T2_5,210,1,38,17,1256652000
50,10,10,Ticks_ISO_T2_5,211,5,42,127,1257107756
50,10,10,Ticks_ISO_T2_5,212,1,48,56,1257114716
50,10,10,Ticks_ISO_T2_5,213,5,42,127,1257607604
50,10,10,Ticks_ISO_T2_5,214,1,48,60,1257643136
50,10,10,Ticks_ISO_T2_5,215,5,42,127,1258108268
50,10,10,Ticks_ISO_T2_5,216,1,48,63,1258121636
50,10,10,Ticks_ISO_T2_5,217,1,48,64,1258601112
50,10,10,Ticks_ISO_T2_5,218,5,42,127,1258608104
50,10,10,Ticks_ISO_T2_5,219,1,48,72,1259106140
50,10,10,Ticks_ISO_T2_5,220,5,42,127,1259107652
50,10,10,Ticks_ISO_T2_5,221,1,48,65,1259589284
50,10,10,Ticks_ISO_T2_5,222,5,42,127,1259608540
50,10,10,Ticks_ISO_T2_5,223,1,48,70,1260072744
50,10,10,Ticks_ISO_T2_5,224,5,42,127,1260108160
50,10,10,Ticks_ISO_T2_5,225,1,48,69,1260540352
50,10,10,Ticks_ISO_T2_5,226,5,42,127,1260607780
50,10,10,Ticks_ISO_T2_5,227,1,48,67,1261091432
50,10,10,Ticks_ISO_T2_5,228,5,42,127,1261107700
50,10,10,Ticks_ISO_T2_5,229,1,48,62,1261604144
50,10,10,Ticks_ISO_T2_5,230,5,42,127,1261608440
50,10,10,Ticks_ISO_T2_5,231,1,38,16,1261614400
50,10,10,Ticks_ISO_T2_5,232,1,48,56,1262091460
50,10,10,Ticks_ISO_T2_5,233,1,38,16,1262100940
50,10,10,Ticks_ISO_T2_5,234,5,42,127,1262108004
50,10,10,Ticks_ISO_T2_5,235,5,42,127,1262607604
50,10,10,Ticks_ISO_T2_5,236,1,48,74,1262618572
50,10,10,Ticks_ISO_T2_5,237,5,42,127,1263107524
50,10,10,Ticks_ISO_T2_5,238,1,48,65,1263135100
50,10,10,Ticks_ISO_T2_5,239,5,42,127,1263608264
50,10,10,Ticks_ISO_T2_5,240,1,48,66,1263657160
50,10,10,Ticks_ISO_T2_5,241,1,48,60,1264106368
50,10,10,Ticks_ISO_T2_5,242,5,42,127,1264107880
50,10,10,Ticks_ISO_T2_5,243,1,48,67,1264588464
50,10,10,Ticks_ISO_T2_5,244,5,42,127,1264607572
50,10,10,Ticks_ISO_T2_5,245,5,42,127,1265108620
50,10,10,Ticks_ISO_T2_5,246,1,48,62,1265114208
50,10,10,Ticks_ISO_T2_5,247,5,42,127,1265608088
50,10,10,Ticks_ISO_T2_5,248,1,48,67,1265618612
50,10,10,Ticks_ISO_T2_5,249,5,42,127,1266107712
50,10,10,Ticks_ISO_T2_5,250,1,48,59,1266142916
50,10,10,Ticks_ISO_T2_5,251,5,42,127,1266607628
50,10,10,Ticks_ISO_T2_5,252,1,48,60,1266624588
50,10,10,Ticks_ISO_T2_5,253,1,48,62,1267078908
50,10,10,Ticks_ISO_T2_5,254,5,42,127,1267108068
50,10,10,Ticks_ISO_T2_5,255,1,48,62,1267573820
50,10,10,Ticks_ISO_T2_5,256,5,42,127,1267607836
50,10,10,Ticks_ISO_T2_5,257,5,42,127,1268107588
50,10,10,Ticks_ISO_T2_5,258,1,48,46,1268132792
50,10,10,Ticks_ISO_T2_5,259,1,48,50,1268594900
50,10,10,Ticks_ISO_T2_5,260,5,42,127,1268608544
50,10,10,Ticks_ISO_T2_5,261,1,48,65,1269056972
50,10,10,Ticks_ISO_T2_5,262,5,42,127,1269108020
50,10,10,Ticks_ISO_T2_5,263,1,48,62,1269560484
50,10,10,Ticks_ISO_T2_5,264,5,42,127,1269607788
50,10,10,Ticks_ISO_T2_5,265,1,48,68,1270034292
50,10,10,Ticks_ISO_T2_5,266,5,42,127,1270107484
50,10,10,Ticks_ISO_T2_5,267,1,48,69,1270570492
50,10,10,Ticks_ISO_T2_5,0,9999,9999,9999,1205605460
50,10,10,Ticks_ISO_T2_5,1,9999,9999,9999,1206105176
50,10,10,Ticks_ISO_T2_5,2,9999,9999,9999,1206605912
50,10,10,Ticks_ISO_T2_5,3,9999,9999,9999,1207105588
50,10,10,Ticks_ISO_T2_5,4,9999,9999,9999,1207605328
50,10,10,Ticks_ISO_T2_5,5,9999,9999,9999,1208106052
50,10,10,Ticks_ISO_T2_5,6,9999,9999,9999,1208605764
50,10,10,Ticks_ISO_T2_5,7,9999,9999,9999,1209105460
50,10,10,Ticks_ISO_T2_5,8,9999,9999,9999,1209605212
50,10,10,Ticks_ISO_T2_5,9,9999,9999,9999,1210105956
50,10,10,Ticks_ISO_T2_5,10,9999,9999,9999,1210605664
50,10,10,Ticks_ISO_T2_5,11,9999,9999,9999,1211105360
50,10,10,Ticks_ISO_T2_5,12,9999,9999,9999,1211606104
50,10,10,Ticks_ISO_T2_5,13,9999,9999,9999,1212105796
50,10,10,Ticks_ISO_T2_5,14,9999,9999,9999,1212605488
50,10,10,Ticks_ISO_T2_5,15,9999,9999,9999,1213105256
50,10,10,Ticks_ISO_T2_5,16,9999,9999,9999,1213605996
50,10,10,Ticks_ISO_T2_5,17,9999,9999,9999,1214105680
50,10,10,Ticks_ISO_T2_5,18,9999,9999,9999,1214605420
50,10,10,Ticks_ISO_T2_5,19,9999,9999,9999,1215105116
50,10,10,Ticks_ISO_T2_5,20,9999,9999,9999,1215605856
50,10,10,Ticks_ISO_T2_5,21,9999,9999,9999,1216105528
50,10,10,Ticks_ISO_T2_5,22,9999,9999,9999,1216605296
50,10,10,Ticks_ISO_T2_5,23,9999,9999,9999,1217106036
50,10,10,Ticks_ISO_T2_5,24,9999,9999,9999,1217605724
50,10,10,Ticks_ISO_T2_5,25,9999,9999,9999,1218105420
50,10,10,Ticks_ISO_T2_5,26,9999,9999,9999,1218605116
50,10,10,Ticks_ISO_T2_5,27,9999,9999,9999,1219105856
50,10,10,Ticks_ISO_T2_5,28,9999,9999,9999,1219605624
50,10,10,Ticks_ISO_T2_5,29,9999,9999,9999,1220105320
50,10,10,Ticks_ISO_T2_5,30,9999,9999,9999,1220606060
50,10,10,Ticks_ISO_T2_5,31,9999,9999,9999,1221105756
50,10,10,Ticks_ISO_T2_5,32,9999,9999,9999,1221605448
50,10,10,Ticks_ISO_T2_5,33,9999,9999,9999,1222105200
50,10,10,Ticks_ISO_T2_5,34,9999,9999,9999,1222605916
50,10,10,Ticks_ISO_T2_5,35,9999,9999,9999,1223105652
50,10,10,Ticks_ISO_T2_5,36,9999,9999,9999,1223605352
50,10,10,Ticks_ISO_T2_5,37,9999,9999,9999,1224106088
50,10,10,Ticks_ISO_T2_5,38,9999,9999,9999,1224605784
50,10,10,Ticks_ISO_T2_5,39,9999,9999,9999,1225105460
50,10,10,Ticks_ISO_T2_5,40,9999,9999,9999,1225605228
50,10,10,Ticks_ISO_T2_5,41,9999,9999,9999,1226105964
50,10,10,Ticks_ISO_T2_5,42,9999,9999,9999,1226605656
50,10,10,Ticks_ISO_T2_5,43,9999,9999,9999,1227105352
50,10,10,Ticks_ISO_T2_5,44,9999,9999,9999,1227606096
50,10,10,Ticks_ISO_T2_5,45,9999,9999,9999,1228105788
50,10,10,Ticks_ISO_T2_5,46,9999,9999,9999,1228605560
50,10,10,Ticks_ISO_T2_5,47,9999,9999,9999,1229105256
50,10,10,Ticks_ISO_T2_5,48,9999,9999,9999,1229605996
50,10,10,Ticks_ISO_T2_5,49,9999,9999,9999,1230105692
50,10,10,Ticks_ISO_T2_5,50,9999,9999,9999,1230605384
50,10,10,Ticks_ISO_T2_5,51,9999,9999,9999,1231105080
50,10,10,Ticks_ISO_T2_5,52,9999,9999,9999,1231605820
50,10,10,Ticks_ISO_T2_5,53,9999,9999,9999,1232105588
50,10,10,Ticks_ISO_T2_5,54,9999,9999,9999,1232605292
50,10,10,Ticks_ISO_T2_5,55,9999,9999,9999,1233106032
50,10,10,Ticks_ISO_T2_5,56,9999,9999,9999,1233605724
50,10,10,Ticks_ISO_T2_5,57,9999,9999,9999,1234105420
50,10,10,Ticks_ISO_T2_5,58,9999,9999,9999,1234605108
50,10,10,Ticks_ISO_T2_5,59,9999,9999,9999,1235105856
50,10,10,Ticks_ISO_T2_5,60,9999,9999,9999,1235605608
50,10,10,Ticks_ISO_T2_5,61,9999,9999,9999,1236105296
50,10,10,Ticks_ISO_T2_5,62,9999,9999,9999,1236606036
50,10,10,Ticks_ISO_T2_5,63,9999,9999,9999,1237105732
50,10,10,Ticks_ISO_T2_5,64,9999,9999,9999,1237605424
50,10,10,Ticks_ISO_T2_5,65,9999,9999,9999,1238105196
50,10,10,Ticks_ISO_T2_5,66,9999,9999,9999,1238605888
50,10,10,Ticks_ISO_T2_5,67,9999,9999,9999,1239105584
50,10,10,Ticks_ISO_T2_5,68,9999,9999,9999,1239605348
50,10,10,Ticks_ISO_T2_5,69,9999,9999,9999,1240106088
50,10,10,Ticks_ISO_T2_5,70,9999,9999,9999,1240605788
50,10,10,Ticks_ISO_T2_5,71,9999,9999,9999,1241105484
50,10,10,Ticks_ISO_T2_5,72,9999,9999,9999,1241605180
50,10,10,Ticks_ISO_T2_5,73,9999,9999,9999,1242105924
50,10,10,Ticks_ISO_T2_5,74,9999,9999,9999,1242605616
50,10,10,Ticks_ISO_T2_5,75,9999,9999,9999,1243105384
50,10,10,Ticks_ISO_T2_5,76,9999,9999,9999,1243606128
50,10,10,Ticks_ISO_T2_5,77,9999,9999,9999,1244105820
50,10,10,Ticks_ISO_T2_5,78,9999,9999,9999,1244605516
50,10,10,Ticks_ISO_T2_5,79,9999,9999,9999,1245105212
50,10,10,Ticks_ISO_T2_5,80,9999,9999,9999,1245605952
50,10,10,Ticks_ISO_T2_5,81,9999,9999,9999,1246105652
50,10,10,Ticks_ISO_T2_5,82,9999,9999,9999,1246605396
50,10,10,Ticks_ISO_T2_5,83,9999,9999,9999,1247105088
50,10,10,Ticks_ISO_T2_5,84,9999,9999,9999,1247605824
50,10,10,Ticks_ISO_T2_5,85,9999,9999,9999,1248105592
50,10,10,Ticks_ISO_T2_5,86,9999,9999,9999,1248605264
50,10,10,Ticks_ISO_T2_5,87,9999,9999,9999,1249106008
50,10,10,Ticks_ISO_T2_5,88,9999,9999,9999,1249605704
50,10,10,Ticks_ISO_T2_5,89,9999,9999,9999,1250105400
50,10,10,Ticks_ISO_T2_5,90,9999,9999,9999,1250605168
50,10,10,Ticks_ISO_T2_5,91,9999,9999,9999,1251105908
50,10,10,Ticks_ISO_T2_5,92,9999,9999,9999,1251605604
50,10,10,Ticks_ISO_T2_5,93,9999,9999,9999,1252105296
50,10,10,Ticks_ISO_T2_5,94,9999,9999,9999,1252606040
50,10,10,Ticks_ISO_T2_5,95,9999,9999,9999,1253105744
50,10,10,Ticks_ISO_T2_5,96,9999,9999,9999,1253605428
50,10,10,Ticks_ISO_T2_5,97,9999,9999,9999,1254105196
50,10,10,Ticks_ISO_T2_5,98,9999,9999,9999,1254605936
50,10,10,Ticks_ISO_T2_5,99,9999,9999,9999,1255105632
50,10,10,Ticks_ISO_T2_5,100,9999,9999,9999,1255605336
50,10,10,Ticks_ISO_T2_5,101,9999,9999,9999,1256106076
50,10,10,Ticks_ISO_T2_5,102,9999,9999,9999,1256605772
50,10,10,Ticks_ISO_T2_5,103,9999,9999,9999,1257105468
50,10,10,Ticks_ISO_T2_5,104,9999,9999,9999,1257605240
50,10,10,Ticks_ISO_T2_5,105,9999,9999,9999,1258105908
50,10,10,Ticks_ISO_T2_5,106,9999,9999,9999,1258605668
50,10,10,Ticks_ISO_T2_5,107,9999,9999,9999,1259105368
50,10,10,Ticks_ISO_T2_5,108,9999,9999,9999,1259606108
50,10,10,Ticks_ISO_T2_5,109,9999,9999,9999,1260105796
50,10,10,Ticks_ISO_T2_5,110,9999,9999,9999,1260605492
50,10,10,Ticks_ISO_T2_5,111,9999,9999,9999,1261105264
50,10,10,Ticks_ISO_T2_5,112,9999,9999,9999,1261606004
50,10,10,Ticks_ISO_T2_5,113,9999,9999,9999,1262105716
50,10,10,Ticks_ISO_T2_5,114,9999,9999,9999,1262605388
50,10,10,Ticks_ISO_T2_5,115,9999,9999,9999,1263105084
50,10,10,Ticks_ISO_T2_5,116,9999,9999,9999,1263605828
50,10,10,Ticks_ISO_T2_5,117,9999,9999,9999,1264105520
50,10,10,Ticks_ISO_T2_5,118,9999,9999,9999,1264605284
50,10,10,Ticks_ISO_T2_5,119,9999,9999,9999,1265106032
50,10,10,Ticks_ISO_T2_5,120,9999,9999,9999,1265605728
50,10,10,Ticks_ISO_T2_5,121,9999,9999,9999,1266105420
50,10,10,Ticks_ISO_T2_5,122,9999,9999,9999,1266605120
50,10,10,Ticks_ISO_T2_5,123,9999,9999,9999,1267105852
50,10,10,Ticks_ISO_T2_5,124,9999,9999,9999,1267605620
50,10,10,Ticks_ISO_T2_5,125,9999,9999,9999,1268105296
50,10,10,Ticks_ISO_T2_5,126,9999,9999,9999,1268606036
50,10,10,Ticks_ISO_T2_5,127,9999,9999,9999,1269105732
50,10,10,Ticks_ISO_T2_5,128,9999,9999,9999,1269605424
50,10,10,Ticks_ISO_T2_5,129,9999,9999,9999,1270105196
50,11,9,Ticks_ISO_T2_8,0,5,42,127,1280607552
50,11,9,Ticks_ISO_T2_8,1,1,48,34,1281054120
50,11,9,Ticks_ISO_T2_8,2,5,42,127,1281408332
50,11,9,Ticks_ISO_T2_8,3,1,48,60,1282091288
50,11,9,Ticks_ISO_T2_8,4,5,42,127,1282208240
50,11,9,Ticks_ISO_T2_8,5,1,48,72,1282902012
50,11,9,Ticks_ISO_T2_8,6,5,42,127,1283007748
50,11,9,Ticks_ISO_T2_8,7,1,48,71,1283743064
50,11,9,Ticks_ISO_T2_8,8,5,42,127,1283807796
50,11,9,Ticks_ISO_T2_8,9,1,48,65,1284572036
50,11,9,Ticks_ISO_T2_8,10,5,42,127,1284608280
50,11,9,Ticks_ISO_T2_8,11,1,48,70,1285306780
50,11,9,Ticks_ISO_T2_8,12,5,42,127,1285408148
50,11,9,Ticks_ISO_T2_8,13,1,48,65,1286102916
50,11,9,Ticks_ISO_T2_8,14,5,42,127,1286207732
50,11,9,Ticks_ISO_T2_8,15,5,42,127,1287007632
50,11,9,Ticks_ISO_T2_8,16,1,48,66,1287013596
50,11,9,Ticks_ISO_T2_8,17,5,42,127,1287808264
50,11,9,Ticks_ISO_T2_8,18,1,48,67,1287809232
50,11,9,Ticks_ISO_T2_8,19,1,48,69,1288606580
50,11,9,Ticks_ISO_T2_8,20,5,42,127,1288608168
50,11,9,Ticks_ISO_T2_8,21,1,48,73,1289390060
50,11,9,Ticks_ISO_T2_8,22,5,42,127,1289407972
50,11,9,Ticks_ISO_T2_8,23,1,48,65,1290155388
50,11,9,Ticks_ISO_T2_8,24,5,42,127,1290207560
50,11,9,Ticks_ISO_T2_8,25,1,48,61,1290997456
50,11,9,Ticks_ISO_T2_8,26,5,42,127,1291008412
50,11,9,Ticks_ISO_T2_8,27,1,48,59,1291752540
50,11,9,Ticks_ISO_T2_8,28,5,42,127,1291807996
50,11,9,Ticks_ISO_T2_8,29,1,48,74,1292602008
50,11,9,Ticks_ISO_T2_8,30,5,42,127,1292607956
50,11,9,Ticks_ISO_T2_8,31,5,42,127,1293407548
50,11,9,Ticks_ISO_T2_8,32,1,48,73,1293531416
50,11,9,Ticks_ISO_T2_8,33,5,42,127,1294208332
50,11,9,Ticks_ISO_T2_8,34,1,48,71,1294216084
50,11,9,Ticks_ISO_T2_8,35,5,42,127,1295008160
50,11,9,Ticks_ISO_T2_8,36,1,48,59,1295059152
50,11,9,Ticks_ISO_T2_8,37,1,38,16,1295069232
50,11,9,Ticks_ISO_T2_8,38,1,48,66,1295790752
50,11,9,Ticks_ISO_T2_8,39,5,42,127,1295807840
50,11,9,Ticks_ISO_T2_8,40,1,48,62,1296581956
50,11,9,Ticks_ISO_T2_8,41,5,42,127,1296607576
50,11,9,Ticks_ISO_T2_8,42,1,48,59,1297363368
50,11,9,Ticks_ISO_T2_8,43,5,42,127,1297408428
50,11,9,Ticks_ISO_T2_8,44,1,48,77,1298151584
50,11,9,Ticks_ISO_T2_8,45,1,38,18,1298161432
50,11,9,Ticks_ISO_T2_8,46,5,42,127,1298207992
50,11,9,Ticks_ISO_T2_8,47,1,48,77,1298904444
50,11,9,Ticks_ISO_T2_8,48,5,42,127,1299007908
50,11,9,Ticks_ISO_T2_8,49,1,48,71,1299797152
50,11,9,Ticks_ISO_T2_8,50,5,42,127,1299807732
50,11,9,Ticks_ISO_T2_8,51,5,42,127,1300608296
50,11,9,Ticks_ISO_T2_8,52,1,48,81,1300644796
50,11,9,Ticks_ISO_T2_8,53,1,38,19,1300654652
50,11,9,Ticks_ISO_T2_8,54,1,48,78,1301339276
50,11,9,Ticks_ISO_T2_8,55,5,42,127,1301408000
50,11,9,Ticks_ISO_T2_8,56,1,48,78,1302173364
50,11,9,Ticks_ISO_T2_8,57,1,38,19,1302182996
50,11,9,Ticks_ISO_T2_8,58,5,42,127,1302207936
50,11,9,Ticks_ISO_T2_8,59,1,48,73,1302966992
50,11,9,Ticks_ISO_T2_8,60,1,38,18,1302976924
50,11,9,Ticks_ISO_T2_8,61,5,42,127,1303007624
50,11,9,Ticks_ISO_T2_8,62,1,48,63,1303717240
50,11,9,Ticks_ISO_T2_8,63,5,42,127,1303808300
50,11,9,Ticks_ISO_T2_8,64,1,48,66,1304421056
50,11,9,Ticks_ISO_T2_8,65,1,38,17,1304430912
50,11,9,Ticks_ISO_T2_8,66,5,42,127,1304608196
50,11,9,Ticks_ISO_T2_8,67,1,48,79,1305354580
50,11,9,Ticks_ISO_T2_8,68,5,42,127,1305407872
50,11,9,Ticks_ISO_T2_8,69,1,48,70,1306166660
50,11,9,Ticks_ISO_T2_8,70,1,38,17,1306177184
50,11,9,Ticks_ISO_T2_8,71,5,42,127,1306207736
50,11,9,Ticks_ISO_T2_8,72,1,48,54,1306909208
50,11,9,Ticks_ISO_T2_8,73,5,42,127,1307008352
50,11,9,Ticks_ISO_T2_8,74,5,42,127,1307808116
50,11,9,Ticks_ISO_T2_8,75,1,48,78,1307847888
50,11,9,Ticks_ISO_T2_8,76,1,48,88,1308528800
50,11,9,Ticks_ISO_T2_8,77,1,38,19,1308539248
50,11,9,Ticks_ISO_T2_8,78,5,42,127,1308607824
50,11,9,Ticks_ISO_T2_8,79,1,48,76,1309321380
50,11,9,Ticks_ISO_T2_8,80,5,42,127,1309407752
50,11,9,Ticks_ISO_T2_8,81,1,48,74,1310135348
50,11,9,Ticks_ISO_T2_8,82,5,42,127,1310208308
50,11,9,Ticks_ISO_T2_8,83,1,48,67,1310998660
50,11,9,Ticks_ISO_T2_8,84,5,42,127,1311007968
50,11,9,Ticks_ISO_T2_8,85,1,48,74,1311771240
50,11,9,Ticks_ISO_T2_8,86,5,42,127,1311807848
50,11,9,Ticks_ISO_T2_8,87,1,48,66,1312511356
50,11,9,Ticks_ISO_T2_8,88,1,38,17,1312521288
50,11,9,Ticks_ISO_T2_8,89,5,42,127,1312607844
50,11,9,Ticks_ISO_T2_8,90,1,48,54,1313352416
50,11,9,Ticks_ISO_T2_8,91,5,42,127,1313408476
50,11,9,Ticks_ISO_T2_8,92,1,48,89,1314194212
50,11,9,Ticks_ISO_T2_8,93,5,42,127,1314208012
50,11,9,Ticks_ISO_T2_8,94,1,48,73,1314944332
50,11,9,Ticks_ISO_T2_8,95,5,42,127,1315007744
50,11,9,Ticks_ISO_T2_8,96,5,42,127,1315807708
50,11,9,Ticks_ISO_T2_8,97,1,48,75,1315812320
50,11,9,Ticks_ISO_T2_8,98,5,42,127,1316608488
50,11,9,Ticks_ISO_T2_8,99,1,48,54,1316620660
50,11,9,Ticks_ISO_T2_8,100,1,38,15,1316630888
50,11,9,Ticks_ISO_T2_8,101,1,48,75,1317392948
50,11,9,Ticks_ISO_T2_8,102,5,42,127,1317408316
50,11,9,Ticks_ISO_T2_8,103,1,48,73,1318176748
50,11,9,Ticks_ISO_T2_8,104,5,42,127,1318207752
50,11,9,Ticks_ISO_T2_8,105,1,48,76,1318911412
50,11,9,Ticks_ISO_T2_8,106,5,42,127,1319007620
50,11,9,Ticks_ISO_T2_8,107,1,48,75,1319782876
50,11,9,Ticks_ISO_T2_8,108,5,42,127,1319808340
50,11,9,Ticks_ISO_T2_8,109,1,48,85,1320517384
50,11,9,Ticks_ISO_T2_8,110,5,42,127,1320608024
50,11,9,Ticks_ISO_T2_8,111,5,42,127,1321407840
50,11,9,Ticks_ISO_T2_8,112,1,48,78,1321445360
50,11,9,Ticks_ISO_T2_8,113,1,48,86,1322152700
50,11,9,Ticks_ISO_T2_8,114,5,42,127,1322207564
50,11,9,Ticks_ISO_T2_8,115,1,48,64,1322949368
50,11,9,Ticks_ISO_T2_8,116,1,38,17,1322959000
50,11,9,Ticks_ISO_T2_8,117,5,42,127,1323008324
50,11,9,Ticks_ISO_T2_8,118,1,48,70,1323710612
50,11,9,Ticks_ISO_T2_8,119,1,38,18,1323720684
50,11,9,Ticks_ISO_T2_8,120,5,42,127,1323808072
50,11,9,Ticks_ISO_T2_8,121,1,48,86,1324453088
50,11,9,Ticks_ISO_T2_8,122,5,42,127,1324607864
50,11,9,Ticks_ISO_T2_8,123,1,48,69,1325292236
50,11,9,Ticks_ISO_T2_8,124,1,38,18,1325302168
50,11,9,Ticks_ISO_T2_8,125,5,42,127,1325407548
50,11,9,Ticks_ISO_T2_8,126,1,48,58,1326127384
50,11,9,Ticks_ISO_T2_8,127,1,38,16,1326137084
50,11,9,Ticks_ISO_T2_8,128,5,42,127,1326208476
50,11,9,Ticks_ISO_T2_8,129,1,48,75,1326991028
50,11,9,Ticks_ISO_T2_8,130,5,42,127,1327008144
50,11,9,Ticks_ISO_T2_8,131,5,42,127,1327807884
50,11,9,Ticks_ISO_T2_8,132,1,48,76,1327822224
50,11,9,Ticks_ISO_T2_8,133,1,48,76,1328591864
50,11,9,Ticks_ISO_T2_8,134,5,42,127,1328607688
50,11,9,Ticks_ISO_T2_8,135,1,48,67,1329324288
50,11,9,Ticks_ISO_T2_8,136,1,38,17,1329334212
50,11,9,Ticks_ISO_T2_8,137,5,42,127,1329408520
50,11,9,Ticks_ISO_T2_8,138,1,48,66,1330106396
50,11,9,Ticks_ISO_T2_8,139,1,38,17,1330116172
50,11,9,Ticks_ISO_T2_8,140,5,42,127,1330208192
50,11,9,Ticks_ISO_T2_8,141,1,48,82,1330895176
50,11,9,Ticks_ISO_T2_8,142,5,42,127,1331007840
50,11,9,Ticks_ISO_T2_8,143,1,48,78,1331692288
50,11,9,Ticks_ISO_T2_8,144,5,42,127,1331807648
50,11,9,Ticks_ISO_T2_8,145,1,48,84,1332407800
50,11,9,Ticks_ISO_T2_8,146,5,42,127,1332608352
50,11,9,Ticks_ISO_T2_8,147,1,48,81,1333393656
50,11,9,Ticks_ISO_T2_8,148,5,42,127,1333408272
50,11,9,Ticks_ISO_T2_8,149,5,42,127,1334207944
50,11,9,Ticks_ISO_T2_8,150,1,48,89,1334213080
50,11,9,Ticks_ISO_T2_8,151,1,48,89,1334997388
50,11,9,Ticks_ISO_T2_8,152,5,42,127,1335007444
50,11,9,Ticks_ISO_T2_8,153,5,42,127,1335808232
50,11,9,Ticks_ISO_T2_8,154,1,48,75,1335852192
50,11,9,Ticks_ISO_T2_8,155,1,48,84,1336588404
50,11,9,Ticks_ISO_T2_8,156,5,42,127,1336608256
50,11,9,Ticks_ISO_T2_8,157,1,48,88,1337328520
50,11,9,Ticks_ISO_T2_8,158,5,42,127,1337408064
50,11,9,Ticks_ISO_T2_8,159,1,48,69,1338146724
50,11,9,Ticks_ISO_T2_8,160,1,38,18,1338156140
50,11,9,Ticks_ISO_T2_8,161,5,42,127,1338207556
50,11,9,Ticks_ISO_T2_8,162,1,48,62,1338931900
50,11,9,Ticks_ISO_T2_8,163,1,38,16,1338941304
50,11,9,Ticks_ISO_T2_8,164,5,42,127,1339008288
50,11,9,Ticks_ISO_T2_8,165,1,48,71,1339716400
50,11,9,Ticks_ISO_T2_8,166,1,38,18,1339726332
50,11,9,Ticks_ISO_T2_8,167,5,42,127,1339808220
50,11,9,Ticks_ISO_T2_8,168,1,48,86,1340538232
50,11,9,Ticks_ISO_T2_8,169,5,42,127,1340608000
50,11,9,Ticks_ISO_T2_8,170,1,48,78,1341295028
50,11,9,Ticks_ISO_T2_8,171,1,38,19,1341304884
50,11,9,Ticks_ISO_T2_8,172,5,42,127,1341407524
50,11,9,Ticks_ISO_T2_8,173,1,48,79,1342176272
50,11,9,Ticks_ISO_T2_8,174,5,42,127,1342208244
50,11,9,Ticks_ISO_T2_8,175,5,42,127,1343008132
50,11,9,Ticks_ISO_T2_8,176,1,48,78,1343096220
50,11,9,Ticks_ISO_T2_8,177,1,48,90,1343772368
50,11,9,Ticks_ISO_T2_8,178,5,42,127,1343808080
50,11,9,Ticks_ISO_T2_8,179,1,48,91,1344510996
50,11,9,Ticks_ISO_T2_8,180,5,42,127,1344607576
50,11,9,Ticks_ISO_T2_8,181,1,48,81,1345249916
50,11,9,Ticks_ISO_T2_8,182,1,38,20,1345259772
50,11,9,Ticks_ISO_T2_8,183,5,42,127,1345408384
50,11,9,Ticks_ISO_T2_8,184,1,48,86,1346181696
50,11,9,Ticks_ISO_T2_8,185,5,42,127,1346208008
50,11,9,Ticks_ISO_T2_8,186,1,48,93,1346922040
50,11,9,Ticks_ISO_T2_8,187,5,42,127,1347008112
50,11,9,Ticks_ISO_T2_8,188,1,48,77,1347695368
50,11,9,Ticks_ISO_T2_8,189,1,38,19,1347705296
50,11,9,Ticks_ISO_T2_8,190,5,42,127,1347807488
50,11,9,Ticks_ISO_T2_8,191,1,48,72,1348436336
50,11,9,Ticks_ISO_T2_8,192,1,38,18,1348445964
50,11,9,Ticks_ISO_T2_8,193,5,42,127,1348608368
50,11,9,Ticks_ISO_T2_8,194,1,48,83,1349203336
50,11,9,Ticks_ISO_T2_8,195,5,42,127,1349408100
50,11,9,Ticks_ISO_T2_8,196,1,48,86,1349938372
50,11,9,Ticks_ISO_T2_8,197,1,38,19,1349948368
50,11,9,Ticks_ISO_T2_8,198,5,42,127,1350207860
50,11,9,Ticks_ISO_T2_8,199,1,48,86,1350892912
50,11,9,Ticks_ISO_T2_8,200,5,42,127,1351007448
50,11,9,Ticks_ISO_T2_8,201,1,48,76,1351705884
50,11,9,Ticks_ISO_T2_8,202,5,42,127,1351808228
50,11,9,Ticks_ISO_T2_8,203,1,48,78,1352481832
50,11,9,Ticks_ISO_T2_8,204,1,38,18,1352491756
50,11,9,Ticks_ISO_T2_8,205,5,42,127,1352608088
50,11,9,Ticks_ISO_T2_8,206,1,48,65,1353276808
50,11,9,Ticks_ISO_T2_8,207,1,38,17,1353286736
50,11,9,Ticks_ISO_T2_8,208,5,42,127,1353407772
50,11,9,Ticks_ISO_T2_8,209,1,48,76,1354165896
50,11,9,Ticks_ISO_T2_8,210,5,42,127,1354207448
50,11,9,Ticks_ISO_T2_8,211,1,48,65,1354979992
50,11,9,Ticks_ISO_T2_8,212,1,38,17,1354990068
50,11,9,Ticks_ISO_T2_8,213,5,42,127,1355008356
50,11,9,Ticks_ISO_T2_8,214,5,42,127,1355808068
50,11,9,Ticks_ISO_T2_8,215,1,48,60,1355890172
50,11,9,Ticks_ISO_T2_8,216,1,48,79,1356590184
50,11,9,Ticks_ISO_T2_8,217,5,42,127,1356607796
50,11,9,Ticks_ISO_T2_8,218,1,48,72,1357337784
50,11,9,Ticks_ISO_T2_8,219,1,38,18,1357347784
50,11,9,Ticks_ISO_T2_8,220,5,42,127,1357407732
50,11,9,Ticks_ISO_T2_8,221,1,48,85,1358140536
50,11,9,Ticks_ISO_T2_8,222,5,42,127,1358208408
50,11,9,Ticks_ISO_T2_8,223,1,48,81,1358872200
50,11,9,Ticks_ISO_T2_8,224,5,42,127,1359008004
50,11,9,Ticks_ISO_T2_8,225,1,48,70,1359779296
50,11,9,Ticks_ISO_T2_8,226,1,38,18,1359789224
50,11,9,Ticks_ISO_T2_8,227,5,42,127,1359807808
50,11,9,Ticks_ISO_T2_8,228,5,42,127,1360607672
50,11,9,Ticks_ISO_T2_8,229,1,48,71,1360706080
50,11,9,Ticks_ISO_T2_8,230,1,48,79,1361360684
50,11,9,Ticks_ISO_T2_8,231,5,42,127,1361408220
50,11,9,Ticks_ISO_T2_8,232,1,48,72,1362088688
50,11,9,Ticks_ISO_T2_8,233,5,42,127,1362208160
50,11,9,Ticks_ISO_T2_8,234,1,48,63,1362956864
50,11,9,Ticks_ISO_T2_8,235,1,38,16,1362966648
50,11,9,Ticks_ISO_T2_8,236,5,42,127,1363007816
50,11,9,Ticks_ISO_T2_8,237,1,48,75,1363726180
50,11,9,Ticks_ISO_T2_8,238,5,42,127,1363807668
50,11,9,Ticks_ISO_T2_8,239,1,48,76,1364513800
50,11,9,Ticks_ISO_T2_8,240,5,42,127,1364608584
50,11,9,Ticks_ISO_T2_8,241,1,48,84,1365245168
50,11,9,Ticks_ISO_T2_8,242,5,42,127,1365408044
50,11,9,Ticks_ISO_T2_8,243,1,48,61,1366051256
50,11,9,Ticks_ISO_T2_8,244,1,38,17,1366061188
50,11,9,Ticks_ISO_T2_8,245,5,42,127,1366207892
50,11,9,Ticks_ISO_T2_8,246,1,48,77,1366895160
50,11,9,Ticks_ISO_T2_8,247,5,42,127,1367007700
50,11,9,Ticks_ISO_T2_8,248,1,48,65,1367741364
50,11,9,Ticks_ISO_T2_8,249,5,42,127,1367808568
50,11,9,Ticks_ISO_T2_8,250,1,48,79,1368535936
50,11,9,Ticks_ISO_T2_8,251,5,42,127,1368608156
50,11,9,Ticks_ISO_T2_8,252,1,48,76,1369274788
50,11,9,Ticks_ISO_T2_8,253,5,42,127,1369407800
50,11,9,Ticks_ISO_T2_8,254,1,48,65,1370106088
50,11,9,Ticks_ISO_T2_8,255,1,38,17,1370116168
50,11,9,Ticks_ISO_T2_8,256,5,42,127,1370207512
50,11,9,Ticks_ISO_T2_8,257,1,48,56,1370918872
50,11,9,Ticks_ISO_T2_8,258,1,38,15,1370928804
50,11,9,Ticks_ISO_T2_8,259,5,42,127,1371008572
50,11,9,Ticks_ISO_T2_8,260,1,48,52,1371749988
50,11,9,Ticks_ISO_T2_8,261,5,42,127,1371808388
50,11,9,Ticks_ISO_T2_8,262,1,48,50,1372503644
50,11,9,Ticks_ISO_T2_8,263,5,42,127,1372607736
50,11,9,Ticks_ISO_T2_8,264,1,48,56,1373268528
50,11,9,Ticks_ISO_T2_8,265,5,42,127,1373407620
50,11,9,Ticks_ISO_T2_8,266,1,48,54,1374145776
50,11,9,Ticks_ISO_T2_8,267,5,42,127,1374208340
50,11,9,Ticks_ISO_T2_8,268,1,48,45,1374989260
50,11,9,Ticks_ISO_T2_8,269,5,42,127,1375008072
50,11,9,Ticks_ISO_T2_8,270,1,48,65,1375782636
50,11,9,Ticks_ISO_T2_8,271,5,42,127,1375807732
50,11,9,Ticks_ISO_T2_8,272,1,48,70,1376589328
50,11,9,Ticks_ISO_T2_8,273,1,38,18,1376599028
50,11,9,Ticks_ISO_T2_8,0,9999,9999,9999,1280605264
50,11,9,Ticks_ISO_T2_8,1,9999,9999,9999,1281406040
50,11,9,Ticks_ISO_T2_8,2,9999,9999,9999,1282205800
50,11,9,Ticks_ISO_T2_8,3,9999,9999,9999,1283005532
50,11,9,Ticks_ISO_T2_8,4,9999,9999,9999,1283805284
50,11,9,Ticks_ISO_T2_8,5,9999,9999,9999,1284606064
50,11,9,Ticks_ISO_T2_8,6,9999,9999,9999,1285405780
50,11,9,Ticks_ISO_T2_8,7,9999,9999,9999,1286205516
50,11,9,Ticks_ISO_T2_8,8,9999,9999,9999,1287005268
50,11,9,Ticks_ISO_T2_8,9,9999,9999,9999,1287806048
50,11,9,Ticks_ISO_T2_8,10,9999,9999,9999,1288605808
50,11,9,Ticks_ISO_T2_8,11,9999,9999,9999,1289405536
50,11,9,Ticks_ISO_T2_8,12,9999,9999,9999,1290205268
50,11,9,Ticks_ISO_T2_8,13,9999,9999,9999,1291006048
50,11,9,Ticks_ISO_T2_8,14,9999,9999,9999,1291805780
50,11,9,Ticks_ISO_T2_8,15,9999,9999,9999,1292605516
50,11,9,Ticks_ISO_T2_8,16,9999,9999,9999,1293405256
50,11,9,Ticks_ISO_T2_8,17,9999,9999,9999,1294206040
50,11,9,Ticks_ISO_T2_8,18,9999,9999,9999,1295005796
50,11,9,Ticks_ISO_T2_8,19,9999,9999,9999,1295805552
50,11,9,Ticks_ISO_T2_8,20,9999,9999,9999,1296605284
50,11,9,Ticks_ISO_T2_8,21,9999,9999,9999,1297406064
50,11,9,Ticks_ISO_T2_8,22,9999,9999,9999,1298205780
50,11,9,Ticks_ISO_T2_8,23,9999,9999,9999,1299005544
50,11,9,Ticks_ISO_T2_8,24,9999,9999,9999,1299805292
50,11,9,Ticks_ISO_T2_8,25,9999,9999,9999,1300606004
50,11,9,Ticks_ISO_T2_8,26,9999,9999,9999,1301405784
50,11,9,Ticks_ISO_T2_8,27,9999,9999,9999,1302205496
50,11,9,Ticks_ISO_T2_8,28,9999,9999,9999,1303005260
50,11,9,Ticks_ISO_T2_8,29,9999,9999,9999,1303806012
50,11,9,Ticks_ISO_T2_8,30,9999,9999,9999,1304605756
50,11,9,Ticks_ISO_T2_8,31,9999,9999,9999,1305405508
50,11,9,Ticks_ISO_T2_8,32,9999,9999,9999,1306205296
50,11,9,Ticks_ISO_T2_8,33,9999,9999,9999,1307006060
50,11,9,Ticks_ISO_T2_8,34,9999,9999,9999,1307805752
50,11,9,Ticks_ISO_T2_8,35,9999,9999,9999,1308605532
50,11,9,Ticks_ISO_T2_8,36,9999,9999,9999,1309405240
50,11,9,Ticks_ISO_T2_8,37,9999,9999,9999,1310206020
50,11,9,Ticks_ISO_T2_8,38,9999,9999,9999,1311005752
50,11,9,Ticks_ISO_T2_8,39,9999,9999,9999,1311805560
50,11,9,Ticks_ISO_T2_8,40,9999,9999,9999,1312605256
50,11,9,Ticks_ISO_T2_8,41,9999,9999,9999,1313406036
50,11,9,Ticks_ISO_T2_8,42,9999,9999,9999,1314205796
50,11,9,Ticks_ISO_T2_8,43,9999,9999,9999,1315005528
50,11,9,Ticks_ISO_T2_8,44,9999,9999,9999,1315805268
50,11,9,Ticks_ISO_T2_8,45,9999,9999,9999,1316606048
50,11,9,Ticks_ISO_T2_8,46,9999,9999,9999,1317405804
50,11,9,Ticks_ISO_T2_8,47,9999,9999,9999,1318205536
50,11,9,Ticks_ISO_T2_8,48,9999,9999,9999,1319005304
50,11,9,Ticks_ISO_T2_8,49,9999,9999,9999,1319806052
50,11,9,Ticks_ISO_T2_8,50,9999,9999,9999,1320605808
50,11,9,Ticks_ISO_T2_8,51,9999,9999,9999,1321405548
50,11,9,Ticks_ISO_T2_8,52,9999,9999,9999,1322205276
50,11,9,Ticks_ISO_T2_8,53,9999,9999,9999,1323006036
50,11,9,Ticks_ISO_T2_8,54,9999,9999,9999,1323805820
50,11,9,Ticks_ISO_T2_8,55,9999,9999,9999,1324605500
50,11,9,Ticks_ISO_T2_8,56,9999,9999,9999,1325405260
50,11,9,Ticks_ISO_T2_8,57,9999,9999,9999,1326206036
50,11,9,Ticks_ISO_T2_8,58,9999,9999,9999,1327005780
50,11,9,Ticks_ISO_T2_8,59,9999,9999,9999,1327805520
50,11,9,Ticks_ISO_T2_8,60,9999,9999,9999,1328605248
50,11,9,Ticks_ISO_T2_8,61,9999,9999,9999,1329406008
50,11,9,Ticks_ISO_T2_8,62,9999,9999,9999,1330205752
50,11,9,Ticks_ISO_T2_8,63,9999,9999,9999,1331005548
50,11,9,Ticks_ISO_T2_8,64,9999,9999,9999,1331805280
50,11,9,Ticks_ISO_T2_8,65,9999,9999,9999,1332606064
50,11,9,Ticks_ISO_T2_8,66,9999,9999,9999,1333405760
50,11,9,Ticks_ISO_T2_8,67,9999,9999,9999,1334205504
50,11,9,Ticks_ISO_T2_8,68,9999,9999,9999,1335005228
50,11,9,Ticks_ISO_T2_8,69,9999,9999,9999,1335806016
50,11,9,Ticks_ISO_T2_8,70,9999,9999,9999,1336605744
50,11,9,Ticks_ISO_T2_8,71,9999,9999,9999,1337405552
50,11,9,Ticks_ISO_T2_8,72,9999,9999,9999,1338205264
50,11,9,Ticks_ISO_T2_8,73,9999,9999,9999,1339006072
50,11,9,Ticks_ISO_T2_8,74,9999,9999,9999,1339805780
50,11,9,Ticks_ISO_T2_8,75,9999,9999,9999,1340605488
50,11,9,Ticks_ISO_T2_8,76,9999,9999,9999,1341405232
50,11,9,Ticks_ISO_T2_8,77,9999,9999,9999,1342206028
50,11,9,Ticks_ISO_T2_8,78,9999,9999,9999,1343005764
50,11,9,Ticks_ISO_T2_8,79,9999,9999,9999,1343805492
50,11,9,Ticks_ISO_T2_8,80,9999,9999,9999,1344605288
50,11,9,Ticks_ISO_T2_8,81,9999,9999,9999,1345406020
50,11,9,Ticks_ISO_T2_8,82,9999,9999,9999,1346205792
50,11,9,Ticks_ISO_T2_8,83,9999,9999,9999,1347005528
50,11,9,Ticks_ISO_T2_8,84,9999,9999,9999,1347805272
50,11,9,Ticks_ISO_T2_8,85,9999,9999,9999,1348606004
50,11,9,Ticks_ISO_T2_8,86,9999,9999,9999,1349405808
50,11,9,Ticks_ISO_T2_8,87,9999,9999,9999,1350205496
50,11,9,Ticks_ISO_T2_8,88,9999,9999,9999,1351005232
50,11,9,Ticks_ISO_T2_8,89,9999,9999,9999,1351806012
50,11,9,Ticks_ISO_T2_8,90,9999,9999,9999,1352605796
50,11,9,Ticks_ISO_T2_8,91,9999,9999,9999,1353405556
50,11,9,Ticks_ISO_T2_8,92,9999,9999,9999,1354205232
50,11,9,Ticks_ISO_T2_8,93,9999,9999,9999,1355006064
50,11,9,Ticks_ISO_T2_8,94,9999,9999,9999,1355805776
50,11,9,Ticks_ISO_T2_8,95,9999,9999,9999,1356605504
50,11,9,Ticks_ISO_T2_8,96,9999,9999,9999,1357405292
50,11,9,Ticks_ISO_T2_8,97,9999,9999,9999,1358206044
50,11,9,Ticks_ISO_T2_8,98,9999,9999,9999,1359005788
50,11,9,Ticks_ISO_T2_8,99,9999,9999,9999,1359805516
50,11,9,Ticks_ISO_T2_8,100,9999,9999,9999,1360605232
50,11,9,Ticks_ISO_T2_8,101,9999,9999,9999,1361406004
50,11,9,Ticks_ISO_T2_8,102,9999,9999,9999,1362205796
50,11,9,Ticks_ISO_T2_8,103,9999,9999,9999,1363005524
50,11,9,Ticks_ISO_T2_8,104,9999,9999,9999,1363805232
50,11,9,Ticks_ISO_T2_8,105,9999,9999,9999,1364606044
50,11,9,Ticks_ISO_T2_8,106,9999,9999,9999,1365405756
50,11,9,Ticks_ISO_T2_8,107,9999,9999,9999,1366205528
50,11,9,Ticks_ISO_T2_8,108,9999,9999,9999,1367005260
50,11,9,Ticks_ISO_T2_8,109,9999,9999,9999,1367806056
50,11,9,Ticks_ISO_T2_8,110,9999,9999,9999,1368605792
50,11,9,Ticks_ISO_T2_8,111,9999,9999,9999,1369405508
50,11,9,Ticks_ISO_T2_8,112,9999,9999,9999,1370205296
50,11,9,Ticks_ISO_T2_8,113,9999,9999,9999,1371006056
50,11,9,Ticks_ISO_T2_8,114,9999,9999,9999,1371805800
50,11,9,Ticks_ISO_T2_8,115,9999,9999,9999,1372605520
50,11,9,Ticks_ISO_T2_8,116,9999,9999,9999,1373405252
50,11,9,Ticks_ISO_T2_8,117,9999,9999,9999,1374206048
50,11,9,Ticks_ISO_T2_8,118,9999,9999,9999,1375005780
50,11,9,Ticks_ISO_T2_8,119,9999,9999,9999,1375805516
50,12,25,Jits_Pract_5,0,5,56,103,1424673416
50,12,25,Jits_Pract_5,1,5,63,98,1424676516
50,12,25,Jits_Pract_5,2,5,80,127,1424679636
50,12,25,Jits_Pract_5,0,5,56,103,1425172768
50,12,25,Jits_Pract_5,1,5,63,98,1425175864
50,12,25,Jits_Pract_5,2,5,80,127,1425179064
50,12,25,Jits_Pract_5,3,1,48,57,1425289312
50,12,25,Jits_Pract_5,0,5,56,103,1425672548
50,12,25,Jits_Pract_5,1,1,48,55,1425678960
50,12,25,Jits_Pract_5,2,5,80,127,1425682740
50,12,25,Jits_Pract_5,3,5,63,98,1425703348
50,12,25,Jits_Pract_5,0,5,63,98,1426123256
50,12,25,Jits_Pract_5,1,5,80,127,1426152708
50,12,25,Jits_Pract_5,2,5,56,103,1426163352
50,12,25,Jits_Pract_5,3,1,48,67,1426167368
50,12,25,Jits_Pract_5,0,1,48,71,1426595864
50,12,25,Jits_Pract_5,1,5,80,127,1426683472
50,12,25,Jits_Pract_5,2,5,56,103,1426692400
50,12,25,Jits_Pract_5,3,5,63,98,1426723476
50,12,25,Jits_Pract_5,0,5,63,98,1427172688
50,12,25,Jits_Pract_5,1,5,56,103,1427202364
50,12,25,Jits_Pract_5,2,5,80,127,1427212632
50,12,25,Jits_Pract_5,3,1,48,52,1427274704
50,12,25,Jits_Pract_5,0,5,56,103,1427623304
50,12,25,Jits_Pract_5,1,1,48,66,1427672832
50,12,25,Jits_Pract_5,2,5,63,98,1427674096
50,12,25,Jits_Pract_5,3,5,80,127,1427692840
50,12,25,Jits_Pract_5,0,5,80,127,1428123088
50,12,25,Jits_Pract_5,1,1,48,53,1428168156
50,12,25,Jits_Pract_5,2,5,63,98,1428173356
50,12,25,Jits_Pract_5,3,5,56,103,1428213144
50,12,25,Jits_Pract_5,0,5,56,103,1428622644
50,12,25,Jits_Pract_5,1,1,48,65,1428632740
50,12,25,Jits_Pract_5,2,5,63,98,1428653364
50,12,25,Jits_Pract_5,3,5,80,127,1428723264
50,12,25,Jits_Pract_5,0,5,56,103,1429122476
50,12,25,Jits_Pract_5,1,1,48,54,1429169136
50,12,25,Jits_Pract_5,2,5,80,127,1429182960
50,12,25,Jits_Pract_5,3,5,63,98,1429212632
50,12,25,Jits_Pract_5,0,1,48,63,1429611212
50,12,25,Jits_Pract_5,1,5,56,103,1429633336
50,12,25,Jits_Pract_5,2,5,63,98,1429642636
50,12,25,Jits_Pract_5,3,5,80,127,1429682596
50,12,25,Jits_Pract_5,0,5,63,98,1430123064
50,12,25,Jits_Pract_5,1,1,48,55,1430126108
50,12,25,Jits_Pract_5,2,5,80,127,1430202656
50,12,25,Jits_Pract_5,3,5,56,103,1430212928
50,12,25,Jits_Pract_5,0,1,48,68,1430593204
50,12,25,Jits_Pract_5,1,5,63,98,1430672676
50,12,25,Jits_Pract_5,2,5,56,103,1430712748
50,12,25,Jits_Pract_5,3,5,80,127,1430715592
50,12,25,Jits_Pract_5,0,5,56,103,1431132480
50,12,25,Jits_Pract_5,1,5,63,98,1431143048
50,12,25,Jits_Pract_5,2,1,48,51,1431157180
50,12,25,Jits_Pract_5,3,5,80,127,1431182560
50,12,25,Jits_Pract_5,0,5,56,103,1431623188
50,12,25,Jits_Pract_5,1,5,63,98,1431626256
50,12,25,Jits_Pract_5,2,1,48,63,1431629372
50,12,25,Jits_Pract_5,3,5,80,127,1431642444
50,12,25,Jits_Pract_5,0,9999,9999,9999,1424920628
50,12,25,Jits_Pract_5,1,9999,9999,9999,1425420408
50,12,25,Jits_Pract_5,2,9999,9999,9999,1425920116
50,12,25,Jits_Pract_5,3,9999,9999,9999,1426420792
50,12,25,Jits_Pract_5,4,9999,9999,9999,1426920560
50,12,25,Jits_Pract_5,5,9999,9999,9999,1427420256
50,12,25,Jits_Pract_5,6,9999,9999,9999,1427920992
50,12,25,Jits_Pract_5,7,9999,9999,9999,1428420700
50,12,25,Jits_Pract_5,8,9999,9999,9999,1428920408
50,12,25,Jits_Pract_5,9,9999,9999,9999,1429420116
50,12,25,Jits_Pract_5,10,9999,9999,9999,1429920864
50,12,25,Jits_Pract_5,11,9999,9999,9999,1430420556
50,12,25,Jits_Pract_5,12,9999,9999,9999,1430920292
50,12,25,Jits_Pract_5,13,9999,9999,9999,1431421024
50,12,25,Jits_Pract_5,14,9999,9999,9999,1431920716
50,13,25,Jits_Pract_5,0,1,38,17,1488507804
50,13,25,Jits_Pract_5,1,5,56,103,1488759224
50,13,25,Jits_Pract_5,2,5,63,98,1488762172
50,13,25,Jits_Pract_5,3,5,80,127,1488765296
50,13,25,Jits_Pract_5,0,5,56,103,1489259068
50,13,25,Jits_Pract_5,1,5,63,98,1489262244
50,13,25,Jits_Pract_5,2,5,80,127,1489265140
50,13,25,Jits_Pract_5,3,1,48,51,1489465904
50,13,25,Jits_Pract_5,0,5,56,103,1489758624
50,13,25,Jits_Pract_5,1,5,80,127,1489768896
50,13,25,Jits_Pract_5,2,5,63,98,1489789280
50,13,25,Jits_Pract_5,3,1,48,55,1489886204
50,13,25,Jits_Pract_5,0,5,63,98,1490209112
50,13,25,Jits_Pract_5,1,5,80,127,1490238936
50,13,25,Jits_Pract_5,2,5,56,103,1490249056
50,13,25,Jits_Pract_5,3,1,48,74,1490267688
50,13,25,Jits_Pract_5,0,1,48,50,1490697236
50,13,25,Jits_Pract_5,1,5,80,127,1490769176
50,13,25,Jits_Pract_5,2,5,56,103,1490778476
50,13,25,Jits_Pract_5,3,5,63,98,1490809108
50,13,25,Jits_Pract_5,0,1,48,69,1491206300
50,13,25,Jits_Pract_5,1,5,63,98,1491258984
50,13,25,Jits_Pract_5,2,5,56,103,1491288364
50,13,25,Jits_Pract_5,3,5,80,127,1491298784
50,13,25,Jits_Pract_5,0,5,56,103,1491709236
50,13,25,Jits_Pract_5,1,1,48,65,1491731984
50,13,25,Jits_Pract_5,2,1,38,17,1491741932
50,13,25,Jits_Pract_5,3,5,63,98,1491758444
50,13,25,Jits_Pract_5,4,5,80,127,1491778900
50,13,25,Jits_Pract_5,0,1,48,65,1492199100
50,13,25,Jits_Pract_5,1,5,80,127,1492209092
50,13,25,Jits_Pract_5,2,5,63,98,1492259144
50,13,25,Jits_Pract_5,3,5,56,103,1492299068
50,13,25,Jits_Pract_5,0,1,48,60,1492637212
50,13,25,Jits_Pract_5,1,5,56,103,1492708708
50,13,25,Jits_Pract_5,2,5,63,98,1492738368
50,13,25,Jits_Pract_5,3,5,80,127,1492809020
50,13,25,Jits_Pract_5,0,1,48,74,1493131276
50,13,25,Jits_Pract_5,1,5,56,103,1493208400
50,13,25,Jits_Pract_5,2,5,80,127,1493269000
50,13,25,Jits_Pract_5,3,5,63,98,1493298748
50,13,25,Jits_Pract_5,0,1,48,59,1493614304
50,13,25,Jits_Pract_5,1,5,56,103,1493719536
50,13,25,Jits_Pract_5,2,5,63,98,1493728760
50,13,25,Jits_Pract_5,3,5,80,127,1493768772
50,13,25,Jits_Pract_5,0,1,48,73,1494113844
50,13,25,Jits_Pract_5,1,5,63,98,1494208904
50,13,25,Jits_Pract_5,2,5,80,127,1494288760
50,13,25,Jits_Pract_5,3,5,56,103,1494299104
50,13,25,Jits_Pract_5,0,1,48,52,1494585960
50,13,25,Jits_Pract_5,1,5,63,98,1494758928
50,13,25,Jits_Pract_5,2,5,56,103,1494798716
50,13,25,Jits_Pract_5,3,5,80,127,1494801784
50,13,25,Jits_Pract_5,0,1,48,62,1495029168
50,13,25,Jits_Pract_5,1,5,56,103,1495218608
50,13,25,Jits_Pract_5,2,5,63,98,1495228656
50,13,25,Jits_Pract_5,3,5,80,127,1495268964
50,13,25,Jits_Pract_5,4,1,48,45,1495460364
50,13,25,Jits_Pract_5,0,5,56,103,1495708980
50,13,25,Jits_Pract_5,1,5,63,98,1495712048
50,13,25,Jits_Pract_5,2,5,80,127,1495728616
50,13,25,Jits_Pract_5,3,1,48,53,1495897376
50,13,25,Jits_Pract_5,0,9999,9999,9999,1489006660
50,13,25,Jits_Pract_5,1,9999,9999,9999,1489506424
50,13,25,Jits_Pract_5,2,9999,9999,9999,1490006120
50,13,25,Jits_Pract_5,3,9999,9999,9999,1490506868
50,13,25,Jits_Pract_5,4,9999,9999,9999,1491006568
50,13,25,Jits_Pract_5,5,9999,9999,9999,1491506264
50,13,25,Jits_Pract_5,6,9999,9999,9999,1492007028
50,13,25,Jits_Pract_5,7,9999,9999,9999,1492506712
50,13,25,Jits_Pract_5,8,9999,9999,9999,1493006404
50,13,25,Jits_Pract_5,9,9999,9999,9999,1493506172
50,13,25,Jits_Pract_5,10,9999,9999,9999,1494006908
50,13,25,Jits_Pract_5,11,9999,9999,9999,1494506600
50,13,25,Jits_Pract_5,12,9999,9999,9999,1495006288
50,13,25,Jits_Pract_5,13,9999,9999,9999,1495507016
50,13,25,Jits_Pract_5,14,9999,9999,9999,1496006736
50,14,24,Jits_Pract_8,0,5,56,103,1504023908
50,14,24,Jits_Pract_8,1,5,63,98,1504027084
50,14,24,Jits_Pract_8,2,5,80,127,1504030052
50,14,24,Jits_Pract_8,0,5,56,103,1504823700
50,14,24,Jits_Pract_8,1,5,63,98,1504826872
50,14,24,Jits_Pract_8,2,5,80,127,1504829992
50,14,24,Jits_Pract_8,0,5,80,127,1505563940
50,14,24,Jits_Pract_8,1,1,48,45,1505579788
50,14,24,Jits_Pract_8,2,5,63,98,1505654216
50,14,24,Jits_Pract_8,3,5,56,103,1505664412
50,14,24,Jits_Pract_8,0,1,48,53,1506335808
50,14,24,Jits_Pract_8,1,5,56,103,1506384380
50,14,24,Jits_Pract_8,2,5,63,98,1506393604
50,14,24,Jits_Pract_8,3,5,80,127,1506483448
50,14,24,Jits_Pract_8,0,1,48,48,1507053452
50,14,24,Jits_Pract_8,1,5,63,98,1507154232
50,14,24,Jits_Pract_8,2,5,80,127,1507183984
50,14,24,Jits_Pract_8,3,1,48,32,1507212168
50,14,24,Jits_Pract_8,4,5,56,103,1507213752
50,14,24,Jits_Pract_8,0,1,48,50,1507747216
50,14,24,Jits_Pract_8,1,1,48,44,1507916896
50,14,24,Jits_Pract_8,2,5,56,103,1507954304
50,14,24,Jits_Pract_8,3,5,80,127,1508054640
50,14,24,Jits_Pract_8,4,5,63,98,1508103568
50,14,24,Jits_Pract_8,0,1,48,50,1508680580
50,14,24,Jits_Pract_8,1,5,56,103,1508753768
50,14,24,Jits_Pract_8,2,5,80,127,1508803884
50,14,24,Jits_Pract_8,3,5,63,98,1508843968
50,14,24,Jits_Pract_8,4,1,48,46,1508878996
50,14,24,Jits_Pract_8,0,1,48,48,1509430620
50,14,24,Jits_Pract_8,1,1,38,13,1509445516
50,14,24,Jits_Pract_8,2,5,80,127,1509584356
50,14,24,Jits_Pract_8,3,5,63,98,1509613884
50,14,24,Jits_Pract_8,4,1,48,38,1509632444
50,14,24,Jits_Pract_8,5,5,56,103,1509683556
50,14,24,Jits_Pract_8,0,1,48,48,1510202488
50,14,24,Jits_Pract_8,1,1,48,37,1510368808
50,14,24,Jits_Pract_8,2,5,63,98,1510413716
50,14,24,Jits_Pract_8,3,5,56,103,1510444516
50,14,24,Jits_Pract_8,4,5,80,127,1510503840
50,14,24,Jits_Pract_8,0,1,48,50,1510958660
50,14,24,Jits_Pract_8,1,1,48,42,1511144328
50,14,24,Jits_Pract_8,2,5,56,103,1511154016
50,14,24,Jits_Pract_8,3,5,80,127,1511157232
50,14,24,Jits_Pract_8,4,5,63,98,1511273872
50,14,24,Jits_Pract_8,0,1,48,46,1511761720
50,14,24,Jits_Pract_8,1,1,48,48,1511949416
50,14,24,Jits_Pract_8,2,5,56,103,1512033584
50,14,24,Jits_Pract_8,3,5,80,127,1512073608
50,14,24,Jits_Pract_8,4,5,63,98,1512083876
50,14,24,Jits_Pract_8,0,1,48,45,1512611736
50,14,24,Jits_Pract_8,1,5,56,103,1512793448
50,14,24,Jits_Pract_8,2,1,48,48,1512799484
50,14,24,Jits_Pract_8,3,5,80,127,1512814048
50,14,24,Jits_Pract_8,4,5,63,98,1512894300
50,14,24,Jits_Pract_8,0,1,48,45,1513365908
50,14,24,Jits_Pract_8,1,5,80,127,1513583872
50,14,24,Jits_Pract_8,2,1,48,53,1513625228
50,14,24,Jits_Pract_8,3,5,56,103,1513684512
50,14,24,Jits_Pract_8,4,5,63,98,1513693588
50,14,24,Jits_Pract_8,0,1,48,49,1514179180
50,14,24,Jits_Pract_8,1,5,63,98,1514354292
50,14,24,Jits_Pract_8,2,1,48,48,1514366036
50,14,24,Jits_Pract_8,3,5,80,127,1514413432
50,14,24,Jits_Pract_8,4,5,56,103,1514423704
50,14,24,Jits_Pract_8,0,1,48,51,1514887416
50,14,24,Jits_Pract_8,1,1,48,48,1515062268
50,14,24,Jits_Pract_8,2,5,56,103,1515153652
50,14,24,Jits_Pract_8,3,5,63,98,1515224364
50,14,24,Jits_Pract_8,4,5,80,127,1515227580
50,14,24,Jits_Pract_8,5,1,48,34,1515608280
50,14,24,Jits_Pract_8,0,9999,9999,9999,1504422012
50,14,24,Jits_Pract_8,1,9999,9999,9999,1505221728
50,14,24,Jits_Pract_8,2,9999,9999,9999,1506021440
50,14,24,Jits_Pract_8,3,9999,9999,9999,1506821212
50,14,24,Jits_Pract_8,4,9999,9999,9999,1507621988
50,14,24,Jits_Pract_8,5,9999,9999,9999,1508421704
50,14,24,Jits_Pract_8,6,9999,9999,9999,1509221488
50,14,24,Jits_Pract_8,7,9999,9999,9999,1510021228
50,14,24,Jits_Pract_8,8,9999,9999,9999,1510822000
50,14,24,Jits_Pract_8,9,9999,9999,9999,1511621700
50,14,24,Jits_Pract_8,10,9999,9999,9999,1512421492
50,14,24,Jits_Pract_8,11,9999,9999,9999,1513221204
50,14,24,Jits_Pract_8,12,9999,9999,9999,1514021968
50,14,24,Jits_Pract_8,13,9999,9999,9999,1514821756
50,14,24,Jits_Pract_8,14,9999,9999,9999,1515621452
50,15,24,Jits_Pract_8,0,5,56,103,1545078080
50,15,24,Jits_Pract_8,1,5,63,98,1545081176
50,15,24,Jits_Pract_8,2,5,80,127,1545084524
50,15,24,Jits_Pract_8,0,5,56,103,1545877896
50,15,24,Jits_Pract_8,1,5,63,98,1545880992
50,15,24,Jits_Pract_8,2,5,80,127,1545884040
50,15,24,Jits_Pract_8,0,5,80,127,1546618564
50,15,24,Jits_Pract_8,1,1,48,39,1546639692
50,15,24,Jits_Pract_8,2,5,63,98,1546708268
50,15,24,Jits_Pract_8,3,5,56,103,1546717864
50,15,24,Jits_Pract_8,0,5,56,103,1547437544
50,15,24,Jits_Pract_8,1,1,48,53,1547445468
50,15,24,Jits_Pract_8,2,5,63,98,1547447584
50,15,24,Jits_Pract_8,3,5,80,127,1547537788
50,15,24,Jits_Pract_8,0,5,63,98,1548207648
50,15,24,Jits_Pract_8,1,1,48,52,1548237016
50,15,24,Jits_Pract_8,2,5,80,127,1548238660
50,15,24,Jits_Pract_8,3,5,56,103,1548267812
50,15,24,Jits_Pract_8,0,1,48,55,1549002864
50,15,24,Jits_Pract_8,1,5,56,103,1549008288
50,15,24,Jits_Pract_8,2,5,80,127,1549107552
50,15,24,Jits_Pract_8,3,5,63,98,1549157676
50,15,24,Jits_Pract_8,0,5,56,103,1549808128
50,15,24,Jits_Pract_8,1,5,80,127,1549858032
50,15,24,Jits_Pract_8,2,5,63,98,1549898044
50,15,24,Jits_Pract_8,3,1,48,57,1549929636
50,15,24,Jits_Pract_8,0,5,80,127,1550637568
50,15,24,Jits_Pract_8,1,1,48,57,1550665548
50,15,24,Jits_Pract_8,2,5,63,98,1550668208
50,15,24,Jits_Pract_8,3,5,56,103,1550737764
50,15,24,Jits_Pract_8,0,5,63,98,1551467760
50,15,24,Jits_Pract_8,1,1,48,52,1551474916
50,15,24,Jits_Pract_8,2,5,56,103,1551497528
50,15,24,Jits_Pract_8,3,5,80,127,1551558064
50,15,24,Jits_Pract_8,0,5,56,103,1552208404
50,15,24,Jits_Pract_8,1,5,80,127,1552211320
50,15,24,Jits_Pract_8,2,1,48,55,1552271028
50,15,24,Jits_Pract_8,3,5,63,98,1552327996
50,15,24,Jits_Pract_8,0,1,48,48,1553025444
50,15,24,Jits_Pract_8,1,5,56,103,1553087824
50,15,24,Jits_Pract_8,2,5,80,127,1553127896
50,15,24,Jits_Pract_8,3,5,63,98,1553138020
50,15,24,Jits_Pract_8,0,5,56,103,1553847660
50,15,24,Jits_Pract_8,1,1,48,56,1553852872
50,15,24,Jits_Pract_8,2,5,80,127,1553868332
50,15,24,Jits_Pract_8,3,5,63,98,1553948112
50,15,24,Jits_Pract_8,0,5,80,127,1554638364
50,15,24,Jits_Pract_8,1,1,48,53,1554639932
50,15,24,Jits_Pract_8,2,5,56,103,1554737620
50,15,24,Jits_Pract_8,3,5,63,98,1554747816
50,15,24,Jits_Pract_8,0,1,48,55,1555389036
50,15,24,Jits_Pract_8,1,5,63,98,1555408316
50,15,24,Jits_Pract_8,2,5,80,127,1555467588
50,15,24,Jits_Pract_8,3,5,56,103,1555478004
50,15,24,Jits_Pract_8,0,1,48,52,1556156276
50,15,24,Jits_Pract_8,1,5,56,103,1556207848
50,15,24,Jits_Pract_8,2,5,63,98,1556277732
50,15,24,Jits_Pract_8,3,5,80,127,1556281096
50,15,24,Jits_Pract_8,0,9999,9999,9999,1545475140
50,15,24,Jits_Pract_8,1,9999,9999,9999,1546275904
50,15,24,Jits_Pract_8,2,9999,9999,9999,1547075688
50,15,24,Jits_Pract_8,3,9999,9999,9999,1547875388
50,15,24,Jits_Pract_8,4,9999,9999,9999,1548675156
50,15,24,Jits_Pract_8,5,9999,9999,9999,1549475912
50,15,24,Jits_Pract_8,6,9999,9999,9999,1550275668
50,15,24,Jits_Pract_8,7,9999,9999,9999,1551075436
50,15,24,Jits_Pract_8,8,9999,9999,9999,1551875140
50,15,24,Jits_Pract_8,9,9999,9999,9999,1552675932
50,15,24,Jits_Pract_8,10,9999,9999,9999,1553475708
50,15,24,Jits_Pract_8,11,9999,9999,9999,1554275392
50,15,24,Jits_Pract_8,12,9999,9999,9999,1555075168
50,15,24,Jits_Pract_8,13,9999,9999,9999,1555875932
50,15,24,Jits_Pract_8,14,9999,9999,9999,1556675680
50,16,17,Jits_Phase_5,0,5,56,103,1584339212
50,16,17,Jits_Phase_5,1,5,63,98,1584342616
50,16,17,Jits_Phase_5,2,5,80,127,1584345736
50,16,17,Jits_Phase_5,0,5,56,103,1584838992
50,16,17,Jits_Phase_5,1,5,63,98,1584842320
50,16,17,Jits_Phase_5,2,5,80,127,1584845440
50,16,17,Jits_Phase_5,0,1,48,52,1585150464
50,16,17,Jits_Phase_5,1,5,56,103,1585338700
50,16,17,Jits_Phase_5,2,5,80,127,1585348972
50,16,17,Jits_Phase_5,3,5,63,98,1585368308
50,16,17,Jits_Phase_5,0,1,48,80,1585758260
50,16,17,Jits_Phase_5,1,5,63,98,1585789224
50,16,17,Jits_Phase_5,2,5,80,127,1585818924
50,16,17,Jits_Phase_5,3,5,56,103,1585829416
50,16,17,Jits_Phase_5,0,1,48,74,1586293360
50,16,17,Jits_Phase_5,1,5,80,127,1586349380
50,16,17,Jits_Phase_5,2,5,56,103,1586358752
50,16,17,Jits_Phase_5,3,5,63,98,1586389384
50,16,17,Jits_Phase_5,0,5,63,98,1586838880
50,16,17,Jits_Phase_5,1,1,48,86,1586868704
50,16,17,Jits_Phase_5,2,5,56,103,1586870112
50,16,17,Jits_Phase_5,3,5,80,127,1586878820
50,16,17,Jits_Phase_5,0,5,56,103,1587288564
50,16,17,Jits_Phase_5,1,5,63,98,1587338792
50,16,17,Jits_Phase_5,2,5,80,127,1587359176
50,16,17,Jits_Phase_5,3,1,48,77,1587411212
50,16,17,Jits_Phase_5,0,5,80,127,1587789152
50,16,17,Jits_Phase_5,1,5,63,98,1587839352
50,16,17,Jits_Phase_5,2,5,56,103,1587879240
50,16,17,Jits_Phase_5,3,1,48,71,1587903476
50,16,17,Jits_Phase_5,0,5,56,103,1588288840
50,16,17,Jits_Phase_5,1,5,63,98,1588318736
50,16,17,Jits_Phase_5,2,5,80,127,1588389484
50,16,17,Jits_Phase_5,3,1,48,76,1588409988
50,16,17,Jits_Phase_5,0,5,56,103,1588788676
50,16,17,Jits_Phase_5,1,1,48,77,1588841016
50,16,17,Jits_Phase_5,2,5,80,127,1588849056
50,16,17,Jits_Phase_5,3,5,63,98,1588878832
50,16,17,Jits_Phase_5,0,5,56,103,1589298556
50,16,17,Jits_Phase_5,1,5,63,98,1589308676
50,16,17,Jits_Phase_5,2,1,48,83,1589335008
50,16,17,Jits_Phase_5,3,5,80,127,1589348680
50,16,17,Jits_Phase_5,0,5,63,98,1589789028
50,16,17,Jits_Phase_5,1,1,48,76,1589836560
50,16,17,Jits_Phase_5,2,5,80,127,1589868960
50,16,17,Jits_Phase_5,3,5,56,103,1589879084
50,16,17,Jits_Phase_5,0,1,48,69,1590325744
50,16,17,Jits_Phase_5,1,5,63,98,1590338892
50,16,17,Jits_Phase_5,2,5,56,103,1590378748
50,16,17,Jits_Phase_5,3,5,80,127,1590381892
50,16,17,Jits_Phase_5,0,5,56,103,1590798636
50,16,17,Jits_Phase_5,1,5,63,98,1590808984
50,16,17,Jits_Phase_5,2,5,80,127,1590848992
50,16,17,Jits_Phase_5,3,1,48,74,1590883120
50,16,17,Jits_Phase_5,0,5,56,103,1591289328
50,16,17,Jits_Phase_5,1,5,63,98,1591292544
50,16,17,Jits_Phase_5,2,5,80,127,1591308592
50,16,17,Jits_Phase_5,3,1,48,72,1591333956
50,16,17,Jits_Phase_5,0,5,80,127,1591799268
50,16,17,Jits_Phase_5,1,5,56,103,1591809316
50,16,17,Jits_Phase_5,2,1,48,73,1591839184
50,16,17,Jits_Phase_5,3,5,63,98,1591878984
50,16,17,Jits_Phase_5,0,5,63,98,1592288620
50,16,17,Jits_Phase_5,1,5,56,103,1592309004
50,16,17,Jits_Phase_5,2,1,48,84,1592343284
50,16,17,Jits_Phase_5,3,5,80,127,1592388936
50,16,17,Jits_Phase_5,0,5,56,103,1592798484
50,16,17,Jits_Phase_5,1,5,80,127,1592838720
50,16,17,Jits_Phase_5,2,1,48,74,1592842960
50,16,17,Jits_Phase_5,3,5,63,98,1592848612
50,16,17,Jits_Phase_5,0,5,80,127,1593289032
50,16,17,Jits_Phase_5,1,5,63,98,1593318632
50,16,17,Jits_Phase_5,2,1,48,55,1593346628
50,16,17,Jits_Phase_5,3,1,38,16,1593356504
50,16,17,Jits_Phase_5,4,5,56,103,1593358840
50,16,17,Jits_Phase_5,0,5,56,103,1593809252
50,16,17,Jits_Phase_5,1,5,63,98,1593838928
50,16,17,Jits_Phase_5,2,1,48,57,1593877184
50,16,17,Jits_Phase_5,3,1,38,16,1593887060
50,16,17,Jits_Phase_5,4,5,80,127,1593889544
50,16,17,Jits_Phase_5,0,5,80,127,1594308948
50,16,17,Jits_Phase_5,1,1,48,54,1594328704
50,16,17,Jits_Phase_5,2,5,56,103,1594348880
50,16,17,Jits_Phase_5,3,5,63,98,1594359072
50,16,17,Jits_Phase_5,0,5,80,127,1594789604
50,16,17,Jits_Phase_5,1,5,63,98,1594829244
50,16,17,Jits_Phase_5,2,1,48,68,1594868928
50,16,17,Jits_Phase_5,3,5,56,103,1594888504
50,16,17,Jits_Phase_5,0,5,56,103,1595288924
50,16,17,Jits_Phase_5,1,5,80,127,1595299044
50,16,17,Jits_Phase_5,2,1,48,72,1595326348
50,16,17,Jits_Phase_5,3,5,63,98,1595379200
50,16,17,Jits_Phase_5,0,5,80,127,1595788760
50,16,17,Jits_Phase_5,1,1,48,81,1595827844
50,16,17,Jits_Phase_5,2,5,63,98,1595849068
50,16,17,Jits_Phase_5,3,5,56,103,1595878744
50,16,17,Jits_Phase_5,0,5,56,103,1596289472
50,16,17,Jits_Phase_5,1,1,48,78,1596316484
50,16,17,Jits_Phase_5,2,5,80,127,1596348736
50,16,17,Jits_Phase_5,3,5,63,98,1596388748
50,16,17,Jits_Phase_5,0,1,48,79,1596829816
50,16,17,Jits_Phase_5,1,5,56,103,1596848644
50,16,17,Jits_Phase_5,2,5,63,98,1596858840
50,16,17,Jits_Phase_5,3,5,80,127,1596862276
50,16,17,Jits_Phase_5,0,5,80,127,1597299144
50,16,17,Jits_Phase_5,1,1,48,74,1597342216
50,16,17,Jits_Phase_5,2,5,63,98,1597389368
50,16,17,Jits_Phase_5,3,5,56,103,1597399640
50,16,17,Jits_Phase_5,0,5,56,103,1597798668
50,16,17,Jits_Phase_5,1,5,63,98,1597802144
50,16,17,Jits_Phase_5,2,5,80,127,1597805264
50,16,17,Jits_Phase_5,3,1,48,77,1597833136
50,16,17,Jits_Phase_5,0,5,80,127,1598319028
50,16,17,Jits_Phase_5,1,1,48,76,1598337984
50,16,17,Jits_Phase_5,2,5,63,98,1598369324
50,16,17,Jits_Phase_5,3,5,56,103,1598398848
50,16,17,Jits_Phase_5,0,5,56,103,1598799168
50,16,17,Jits_Phase_5,1,5,80,127,1598808392
50,16,17,Jits_Phase_5,2,1,48,90,1598849492
50,16,17,Jits_Phase_5,3,5,63,98,1598878960
50,16,17,Jits_Phase_5,0,5,56,103,1599309460
50,16,17,Jits_Phase_5,1,5,63,98,1599328576
50,16,17,Jits_Phase_5,2,1,48,81,1599366564
50,16,17,Jits_Phase_5,3,5,80,127,1599388980
50,16,17,Jits_Phase_5,0,5,80,127,1599789524
50,16,17,Jits_Phase_5,1,1,48,84,1599808760
50,16,17,Jits_Phase_5,2,5,63,98,1599859272
50,16,17,Jits_Phase_5,3,5,56,103,1599878484
50,16,17,Jits_Phase_5,0,5,80,127,1600308692
50,16,17,Jits_Phase_5,1,1,48,78,1600311364
50,16,17,Jits_Phase_5,2,5,56,103,1600318880
50,16,17,Jits_Phase_5,3,5,63,98,1600328928
50,16,17,Jits_Phase_5,0,5,80,127,1600799084
50,16,17,Jits_Phase_5,1,1,48,74,1600812840
50,16,17,Jits_Phase_5,2,5,56,103,1600818416
50,16,17,Jits_Phase_5,3,5,63,98,1600889364
50,16,17,Jits_Phase_5,0,5,56,103,1601309184
50,16,17,Jits_Phase_5,1,1,48,64,1601319952
50,16,17,Jits_Phase_5,2,5,80,127,1601338704
50,16,17,Jits_Phase_5,3,5,63,98,1601359312
50,16,17,Jits_Phase_5,0,5,63,98,1601798464
50,16,17,Jits_Phase_5,1,1,48,73,1601819264
50,16,17,Jits_Phase_5,2,5,56,103,1601858992
50,16,17,Jits_Phase_5,3,5,80,127,1601888592
50,16,17,Jits_Phase_5,0,5,63,98,1602289068
50,16,17,Jits_Phase_5,1,1,48,81,1602290500
50,16,17,Jits_Phase_5,2,5,80,127,1602293548
50,16,17,Jits_Phase_5,3,5,56,103,1602379560
50,16,17,Jits_Phase_5,0,5,56,103,1602809404
50,16,17,Jits_Phase_5,1,1,48,71,1602810372
50,16,17,Jits_Phase_5,2,5,63,98,1602838852
50,16,17,Jits_Phase_5,3,5,80,127,1602878788
50,16,17,Jits_Phase_5,0,5,63,98,1603309320
50,16,17,Jits_Phase_5,1,1,48,70,1603333712
50,16,17,Jits_Phase_5,2,5,56,103,1603348728
50,16,17,Jits_Phase_5,3,5,80,127,1603369484
50,16,17,Jits_Phase_5,0,5,63,98,1603818960
50,16,17,Jits_Phase_5,1,1,48,64,1603848680
50,16,17,Jits_Phase_5,2,5,56,103,1603858816
50,16,17,Jits_Phase_5,3,5,80,127,1603869236
50,16,17,Jits_Phase_5,0,5,80,127,1604299232
50,16,17,Jits_Phase_5,1,1,48,75,1604338992
50,16,17,Jits_Phase_5,2,5,63,98,1604368680
50,16,17,Jits_Phase_5,3,5,56,103,1604389436
50,16,17,Jits_Phase_5,0,5,56,103,1604788736
50,16,17,Jits_Phase_5,1,5,80,127,1604809044
50,16,17,Jits_Phase_5,2,1,48,73,1604828652
50,16,17,Jits_Phase_5,3,5,63,98,1604848900
50,16,17,Jits_Phase_5,0,5,63,98,1605298460
50,16,17,Jits_Phase_5,1,5,80,127,1605318996
50,16,17,Jits_Phase_5,2,1,48,74,1605323912
50,16,17,Jits_Phase_5,3,5,56,103,1605358848
50,16,17,Jits_Phase_5,0,5,63,98,1605799256
50,16,17,Jits_Phase_5,1,5,56,103,1605818596
50,16,17,Jits_Phase_5,2,5,80,127,1605829308
50,16,17,Jits_Phase_5,3,1,48,65,1605836468
50,16,17,Jits_Phase_5,0,5,80,127,1606299076
50,16,17,Jits_Phase_5,1,1,48,67,1606317960
50,16,17,Jits_Phase_5,2,5,56,103,1606319528
50,16,17,Jits_Phase_5,3,5,63,98,1606349424
50,16,17,Jits_Phase_5,0,1,48,72,1606816324
50,16,17,Jits_Phase_5,1,5,56,103,1606869324
50,16,17,Jits_Phase_5,2,5,80,127,1606872540
50,16,17,Jits_Phase_5,3,5,63,98,1606888736
50,16,17,Jits_Phase_5,0,5,63,98,1607289412
50,16,17,Jits_Phase_5,1,5,56,103,1607318888
50,16,17,Jits_Phase_5,2,1,48,78,1607330400
50,16,17,Jits_Phase_5,3,5,80,127,1607379416
50,16,17,Jits_Phase_5,0,1,48,72,1607837712
50,16,17,Jits_Phase_5,1,5,63,98,1607868968
50,16,17,Jits_Phase_5,2,5,56,103,1607879312
50,16,17,Jits_Phase_5,3,5,80,127,1607889360
50,16,17,Jits_Phase_5,0,5,56,103,1608328504
50,16,17,Jits_Phase_5,1,1,48,78,1608347060
50,16,17,Jits_Phase_5,2,5,80,127,1608359216
50,16,17,Jits_Phase_5,3,5,63,98,1608368440
50,16,17,Jits_Phase_5,0,1,48,68,1608838872
50,16,17,Jits_Phase_5,1,5,63,98,1608869164
50,16,17,Jits_Phase_5,2,5,56,103,1608878388
50,16,17,Jits_Phase_5,3,5,80,127,1608898920
50,16,17,Jits_Phase_5,0,5,56,103,1609299224
50,16,17,Jits_Phase_5,1,5,63,98,1609358812
50,16,17,Jits_Phase_5,2,1,48,79,1609362028
50,16,17,Jits_Phase_5,3,5,80,127,1609363440
50,16,17,Jits_Phase_5,0,5,80,127,1609818376
50,16,17,Jits_Phase_5,1,5,56,103,1609828644
50,16,17,Jits_Phase_5,2,1,48,73,1609835804
50,16,17,Jits_Phase_5,3,5,63,98,1609899312
50,16,17,Jits_Phase_5,0,5,80,127,1610309072
50,16,17,Jits_Phase_5,1,1,48,86,1610359612
50,16,17,Jits_Phase_5,2,5,56,103,1610378620
50,16,17,Jits_Phase_5,3,5,63,98,1610388816
50,16,17,Jits_Phase_5,0,5,63,98,1610848692
50,16,17,Jits_Phase_5,1,5,56,103,1610858964
50,16,17,Jits_Phase_5,2,5,80,127,1610879496
50,16,17,Jits_Phase_5,3,1,48,80,1610882268
50,16,17,Jits_Phase_5,0,5,80,127,1611299144
50,16,17,Jits_Phase_5,1,5,63,98,1611358564
50,16,17,Jits_Phase_5,2,5,56,103,1611398448
50,16,17,Jits_Phase_5,3,1,48,78,1611403512
50,16,17,Jits_Phase_5,0,5,56,103,1611838768
50,16,17,Jits_Phase_5,1,5,63,98,1611849264
50,16,17,Jits_Phase_5,2,5,80,127,1611889272
50,16,17,Jits_Phase_5,3,1,48,78,1611914664
50,16,17,Jits_Phase_5,0,5,56,103,1612298528
50,16,17,Jits_Phase_5,1,5,80,127,1612329324
50,16,17,Jits_Phase_5,2,5,63,98,1612378476
50,16,17,Jits_Phase_5,3,1,48,73,1612417952
50,16,17,Jits_Phase_5,0,5,56,103,1612839268
50,16,17,Jits_Phase_5,1,5,63,98,1612879276
50,16,17,Jits_Phase_5,2,5,80,127,1612882568
50,16,17,Jits_Phase_5,3,1,48,67,1612911236
50,16,17,Jits_Phase_5,0,5,56,103,1613339244
50,16,17,Jits_Phase_5,1,5,63,98,1613349144
50,16,17,Jits_Phase_5,2,5,80,127,1613368628
50,16,17,Jits_Phase_5,3,1,48,76,1613401856
50,16,17,Jits_Phase_5,0,5,56,103,1613798624
50,16,17,Jits_Phase_5,1,5,80,127,1613801844
50,16,17,Jits_Phase_5,2,5,63,98,1613838788
50,16,17,Jits_Phase_5,3,1,48,75,1613924824
50,16,17,Jits_Phase_5,0,5,63,98,1614338536
50,16,17,Jits_Phase_5,1,5,56,103,1614369108
50,16,17,Jits_Phase_5,2,1,48,70,1614380020
50,16,17,Jits_Phase_5,3,5,80,127,1614388736
50,16,17,Jits_Phase_5,0,5,80,127,1614808320
50,16,17,Jits_Phase_5,1,5,56,103,1614818664
50,16,17,Jits_Phase_5,2,5,63,98,1614829160
50,16,17,Jits_Phase_5,3,1,48,78,1614896560
50,16,17,Jits_Phase_5,0,5,56,103,1615309124
50,16,17,Jits_Phase_5,1,5,80,127,1615349064
50,16,17,Jits_Phase_5,2,1,48,72,1615371584
50,16,17,Jits_Phase_5,3,5,63,98,1615378728
50,16,17,Jits_Phase_5,0,5,63,98,1615819076
50,16,17,Jits_Phase_5,1,5,80,127,1615829272
50,16,17,Jits_Phase_5,2,5,56,103,1615838720
50,16,17,Jits_Phase_5,3,1,48,70,1615891656
50,16,17,Jits_Phase_5,0,5,56,103,1616308560
50,16,17,Jits_Phase_5,1,1,48,64,1616372284
50,16,17,Jits_Phase_5,2,5,63,98,1616379356
50,16,17,Jits_Phase_5,3,5,80,127,1616388356
50,16,17,Jits_Phase_5,0,5,80,127,1616818440
50,16,17,Jits_Phase_5,1,5,56,103,1616828636
50,16,17,Jits_Phase_5,2,5,63,98,1616878984
50,16,17,Jits_Phase_5,3,1,48,66,1616889224
50,16,17,Jits_Phase_5,0,5,80,127,1617328536
50,16,17,Jits_Phase_5,1,1,48,78,1617386336
50,16,17,Jits_Phase_5,2,5,56,103,1617389068
50,16,17,Jits_Phase_5,3,5,63,98,1617418520
50,16,17,Jits_Phase_5,0,5,56,103,1617829272
50,16,17,Jits_Phase_5,1,5,80,127,1617832192
50,16,17,Jits_Phase_5,2,5,63,98,1617869136
50,16,17,Jits_Phase_5,3,1,48,80,1617902668
50,16,17,Jits_Phase_5,0,5,56,103,1618358848
50,16,17,Jits_Phase_5,1,5,63,98,1618389272
50,16,17,Jits_Phase_5,2,5,80,127,1618399016
50,16,17,Jits_Phase_5,3,1,48,83,1618415016
50,16,17,Jits_Phase_5,0,5,63,98,1618868580
50,16,17,Jits_Phase_5,1,5,80,127,1618878924
50,16,17,Jits_Phase_5,2,5,56,103,1618889268
50,16,17,Jits_Phase_5,3,1,48,78,1618912012
50,16,17,Jits_Phase_5,0,5,80,127,1619319008
50,16,17,Jits_Phase_5,1,5,56,103,1619369308
50,16,17,Jits_Phase_5,2,5,63,98,1619372300
50,16,17,Jits_Phase_5,3,1,48,76,1619438496
50,16,17,Jits_Phase_5,0,5,56,103,1619848456
50,16,17,Jits_Phase_5,1,5,80,127,1619868988
50,16,17,Jits_Phase_5,2,5,63,98,1619879408
50,16,17,Jits_Phase_5,3,1,48,84,1619921404
50,16,17,Jits_Phase_5,0,5,63,98,1620329160
50,16,17,Jits_Phase_5,1,5,56,103,1620358488
50,16,17,Jits_Phase_5,2,5,80,127,1620379092
50,16,17,Jits_Phase_5,3,1,48,74,1620384752
50,16,17,Jits_Phase_5,0,5,56,103,1620839020
50,16,17,Jits_Phase_5,1,5,80,127,1620849140
50,16,17,Jits_Phase_5,2,1,48,81,1620895504
50,16,17,Jits_Phase_5,3,5,63,98,1620918688
50,16,17,Jits_Phase_5,0,5,63,98,1621329188
50,16,17,Jits_Phase_5,1,5,80,127,1621369200
50,16,17,Jits_Phase_5,2,1,48,80,1621386276
50,16,17,Jits_Phase_5,3,5,56,103,1621409080
50,16,17,Jits_Phase_5,0,5,56,103,1621839204
50,16,17,Jits_Phase_5,1,5,63,98,1621848352
50,16,17,Jits_Phase_5,2,5,80,127,1621869036
50,16,17,Jits_Phase_5,3,1,48,89,1621872680
50,16,17,Jits_Phase_5,0,1,48,78,1622359244
50,16,17,Jits_Phase_5,1,5,63,98,1622378892
50,16,17,Jits_Phase_5,2,5,80,127,1622399204
50,16,17,Jits_Phase_5,3,5,56,103,1622418936
50,16,17,Jits_Phase_5,0,5,56,103,1622819164
50,16,17,Jits_Phase_5,1,1,48,84,1622882888
50,16,17,Jits_Phase_5,2,5,80,127,1622899176
50,16,17,Jits_Phase_5,3,5,63,98,1622909148
50,16,17,Jits_Phase_5,0,5,80,127,1623358864
50,16,17,Jits_Phase_5,1,5,63,98,1623369208
50,16,17,Jits_Phase_5,2,1,48,81,1623370172
50,16,17,Jits_Phase_5,3,5,56,103,1623398948
50,16,17,Jits_Phase_5,0,5,63,98,1623818552
50,16,17,Jits_Phase_5,1,5,80,127,1623858488
50,16,17,Jits_Phase_5,2,5,56,103,1623919024
50,16,17,Jits_Phase_5,3,1,48,68,1623929560
50,16,17,Jits_Phase_5,0,5,63,98,1624328488
50,16,17,Jits_Phase_5,1,5,56,103,1624378840
50,16,17,Jits_Phase_5,2,1,48,72,1624396952
50,16,17,Jits_Phase_5,3,5,80,127,1624408432
50,16,17,Jits_Phase_5,0,5,80,127,1624829360
50,16,17,Jits_Phase_5,1,5,63,98,1624838508
50,16,17,Jits_Phase_5,2,1,48,62,1624865368
50,16,17,Jits_Phase_5,3,5,56,103,1624909228
50,16,17,Jits_Phase_5,0,1,48,68,1625366552
50,16,17,Jits_Phase_5,1,5,80,127,1625389360
50,16,17,Jits_Phase_5,2,5,56,103,1625398504
50,16,17,Jits_Phase_5,3,5,63,98,1625401872
50,16,17,Jits_Phase_5,0,5,56,103,1625828804
50,16,17,Jits_Phase_5,1,5,80,127,1625849112
50,16,17,Jits_Phase_5,2,1,48,71,1625857508
50,16,17,Jits_Phase_5,3,5,63,98,1625859156
50,16,17,Jits_Phase_5,0,5,63,98,1626338608
50,16,17,Jits_Phase_5,1,1,48,67,1626351088
50,16,17,Jits_Phase_5,2,5,56,103,1626378540
50,16,17,Jits_Phase_5,3,5,80,127,1626399220
50,16,17,Jits_Phase_5,0,5,63,98,1626839628
50,16,17,Jits_Phase_5,1,1,48,69,1626844692
50,16,17,Jits_Phase_5,2,5,56,103,1626898888
50,16,17,Jits_Phase_5,3,5,80,127,1626901804
50,16,17,Jits_Phase_5,0,5,56,103,1627299144
50,16,17,Jits_Phase_5,1,5,80,127,1627318780
50,16,17,Jits_Phase_5,2,5,63,98,1627358568
50,16,17,Jits_Phase_5,3,1,48,39,1627405876
50,16,17,Jits_Phase_5,0,5,56,103,1627828724
50,16,17,Jits_Phase_5,1,1,48,57,1627847064
50,16,17,Jits_Phase_5,2,5,63,98,1627849028
50,16,17,Jits_Phase_5,3,5,80,127,1627859300
50,16,17,Jits_Phase_5,0,5,80,127,1628298820
50,16,17,Jits_Phase_5,1,5,56,103,1628329468
50,16,17,Jits_Phase_5,2,1,48,66,1628337912
50,16,17,Jits_Phase_5,3,5,63,98,1628369172
50,16,17,Jits_Phase_5,0,5,80,127,1628808768
50,16,17,Jits_Phase_5,1,1,48,62,1628823420
50,16,17,Jits_Phase_5,2,5,56,103,1628828924
50,16,17,Jits_Phase_5,3,5,63,98,1628888560
50,16,17,Jits_Phase_5,0,5,56,103,1629318496
50,16,17,Jits_Phase_5,1,1,48,59,1629333076
50,16,17,Jits_Phase_5,2,5,80,127,1629339024
50,16,17,Jits_Phase_5,3,5,63,98,1629399408
50,16,17,Jits_Phase_5,0,5,80,127,1629799056
50,16,17,Jits_Phase_5,1,5,56,103,1629809028
50,16,17,Jits_Phase_5,2,1,48,55,1629847324
50,16,17,Jits_Phase_5,3,5,63,98,1629848908
50,16,17,Jits_Phase_5,0,5,63,98,1630298516
50,16,17,Jits_Phase_5,1,1,48,62,1630310408
50,16,17,Jits_Phase_5,2,5,56,103,1630338400
50,16,17,Jits_Phase_5,3,5,80,127,1630341612
50,16,17,Jits_Phase_5,0,1,48,67,1630782332
50,16,17,Jits_Phase_5,1,5,63,98,1630818628
50,16,17,Jits_Phase_5,2,5,80,127,1630858888
50,16,17,Jits_Phase_5,3,5,56,103,1630889444
50,16,17,Jits_Phase_5,0,1,48,72,1631253160
50,16,17,Jits_Phase_5,1,5,56,103,1631309080
50,16,17,Jits_Phase_5,2,5,63,98,1631319352
50,16,17,Jits_Phase_5,3,5,80,127,1631349084
50,16,17,Jits_Phase_5,0,1,48,53,1631778684
50,16,17,Jits_Phase_5,1,5,80,127,1631798860
50,16,17,Jits_Phase_5,2,5,63,98,1631869216
50,16,17,Jits_Phase_5,3,5,56,103,1631878376
50,16,17,Jits_Phase_5,0,1,48,65,1632281428
50,16,17,Jits_Phase_5,1,5,63,98,1632299512
50,16,17,Jits_Phase_5,2,5,56,103,1632368968
50,16,17,Jits_Phase_5,3,5,80,127,1632379296
50,16,17,Jits_Phase_5,0,5,63,98,1632778740
50,16,17,Jits_Phase_5,1,1,48,65,1632797848
50,16,17,Jits_Phase_5,2,5,56,103,1632799344
50,16,17,Jits_Phase_5,3,5,80,127,1632838908
50,16,17,Jits_Phase_5,0,5,56,103,1633258940
50,16,17,Jits_Phase_5,1,5,63,98,1633269208
50,16,17,Jits_Phase_5,2,1,48,71,1633291880
50,16,17,Jits_Phase_5,3,5,80,127,1633348920
50,16,17,Jits_Phase_5,0,5,63,98,1633749340
50,16,17,Jits_Phase_5,1,1,48,79,1633771564
50,16,17,Jits_Phase_5,2,5,56,103,1633779156
50,16,17,Jits_Phase_5,3,5,80,127,1633819092
50,16,17,Jits_Phase_5,0,5,56,103,1634248940
50,16,17,Jits_Phase_5,1,1,48,68,1634289100
50,16,17,Jits_Phase_5,2,5,63,98,1634290364
50,16,17,Jits_Phase_5,3,5,80,127,1634329032
50,16,17,Jits_Phase_5,0,5,80,127,1634748780
50,16,17,Jits_Phase_5,1,1,48,65,1634783288
50,16,17,Jits_Phase_5,2,5,56,103,1634828640
50,16,17,Jits_Phase_5,3,5,63,98,1634838836
50,16,17,Jits_Phase_5,0,1,48,74,1635259004
50,16,17,Jits_Phase_5,1,5,56,103,1635288772
50,16,17,Jits_Phase_5,2,5,63,98,1635291684
50,16,17,Jits_Phase_5,3,5,80,127,1635298964
50,16,17,Jits_Phase_5,0,1,48,73,1635735884
50,16,17,Jits_Phase_5,1,5,56,103,1635808816
50,16,17,Jits_Phase_5,2,5,63,98,1635829200
50,16,17,Jits_Phase_5,3,5,80,127,1635839232
50,16,17,Jits_Phase_5,0,1,48,67,1636244632
50,16,17,Jits_Phase_5,1,5,63,98,1636269684
50,16,17,Jits_Phase_5,2,5,80,127,1636278760
50,16,17,Jits_Phase_5,3,5,56,103,1636299144
50,16,17,Jits_Phase_5,0,1,48,74,1636740864
50,16,17,Jits_Phase_5,1,5,63,98,1636769064
50,16,17,Jits_Phase_5,2,5,56,103,1636848988
50,16,17,Jits_Phase_5,3,5,80,127,1636852204
50,16,17,Jits_Phase_5,0,1,48,72,1637233016
50,16,17,Jits_Phase_5,1,5,63,98,1637268808
50,16,17,Jits_Phase_5,2,5,56,103,1637289268
50,16,17,Jits_Phase_5,3,5,80,127,1637318940
50,16,17,Jits_Phase_5,0,1,48,65,1637749104
50,16,17,Jits_Phase_5,1,5,56,103,1637778744
50,16,17,Jits_Phase_5,2,5,63,98,1637799280
50,16,17,Jits_Phase_5,3,5,80,127,1637808724
50,16,17,Jits_Phase_5,0,1,48,57,1638238740
50,16,17,Jits_Phase_5,1,5,56,103,1638309212
50,16,17,Jits_Phase_5,2,5,63,98,1638338868
50,16,17,Jits_Phase_5,3,5,80,127,1638342308
50,16,17,Jits_Phase_5,0,1,48,57,1638717588
50,16,17,Jits_Phase_5,1,5,56,103,1638758812
50,16,17,Jits_Phase_5,2,5,63,98,1638798848
50,16,17,Jits_Phase_5,3,5,80,127,1638859220
50,16,17,Jits_Phase_5,0,1,48,70,1639266556
50,16,17,Jits_Phase_5,1,5,56,103,1639278860
50,16,17,Jits_Phase_5,2,5,63,98,1639289132
50,16,17,Jits_Phase_5,3,5,80,127,1639348644
50,16,17,Jits_Phase_5,0,1,48,64,1639731528
50,16,17,Jits_Phase_5,1,5,56,103,1639778756
50,16,17,Jits_Phase_5,2,5,80,127,1639799140
50,16,17,Jits_Phase_5,3,5,63,98,1639828976
50,16,17,Jits_Phase_5,0,1,48,70,1640218840
50,16,17,Jits_Phase_5,1,5,80,127,1640279616
50,16,17,Jits_Phase_5,2,5,56,103,1640288692
50,16,17,Jits_Phase_5,3,5,63,98,1640309076
50,16,17,Jits_Phase_5,0,1,48,67,1640700300
50,16,17,Jits_Phase_5,1,5,63,98,1640768952
50,16,17,Jits_Phase_5,2,5,80,127,1640848680
50,16,17,Jits_Phase_5,3,5,56,103,1640859096
50,16,17,Jits_Phase_5,0,1,48,65,1641227024
50,16,17,Jits_Phase_5,1,5,80,127,1641358692
50,16,17,Jits_Phase_5,2,5,56,103,1641379148
50,16,17,Jits_Phase_5,3,5,63,98,1641382136
50,16,17,Jits_Phase_5,0,1,48,65,1641809696
50,16,17,Jits_Phase_5,1,5,63,98,1641849128
50,16,17,Jits_Phase_5,2,5,80,127,1641852788
50,16,17,Jits_Phase_5,3,5,56,103,1641908776
50,16,17,Jits_Phase_5,0,1,48,72,1642315192
50,16,17,Jits_Phase_5,1,5,56,103,1642328636
50,16,17,Jits_Phase_5,2,5,80,127,1642338904
50,16,17,Jits_Phase_5,3,5,63,98,1642378868
50,16,17,Jits_Phase_5,0,5,56,103,1642808688
50,16,17,Jits_Phase_5,1,1,48,72,1642836000
50,16,17,Jits_Phase_5,2,5,63,98,1642869072
50,16,17,Jits_Phase_5,3,5,80,127,1642879588
50,16,17,Jits_Phase_5,0,5,63,98,1643318788
50,16,17,Jits_Phase_5,1,1,48,56,1643337048
50,16,17,Jits_Phase_5,2,5,80,127,1643358720
50,16,17,Jits_Phase_5,3,5,56,103,1643398680
50,16,17,Jits_Phase_5,0,1,48,64,1643808020
50,16,17,Jits_Phase_5,1,5,56,103,1643819500
50,16,17,Jits_Phase_5,2,5,63,98,1643899292
50,16,17,Jits_Phase_5,3,5,80,127,1643903788
50,16,17,Jits_Phase_5,0,1,48,65,1644312240
50,16,17,Jits_Phase_5,1,5,80,127,1644378948
50,16,17,Jits_Phase_5,2,5,56,103,1644409356
50,16,17,Jits_Phase_5,3,5,63,98,1644412496
50,16,17,Jits_Phase_5,0,1,48,55,1644831616
50,16,17,Jits_Phase_5,1,5,56,103,1644839440
50,16,17,Jits_Phase_5,2,5,80,127,1644858700
50,16,17,Jits_Phase_5,3,5,63,98,1644898636
50,16,17,Jits_Phase_5,0,1,48,63,1645286108
50,16,17,Jits_Phase_5,1,5,80,127,1645318660
50,16,17,Jits_Phase_5,2,5,63,98,1645338896
50,16,17,Jits_Phase_5,3,5,56,103,1645399636
50,16,17,Jits_Phase_5,0,1,48,53,1645824516
50,16,17,Jits_Phase_5,1,5,63,98,1645828596
50,16,17,Jits_Phase_5,2,5,56,103,1645838644
50,16,17,Jits_Phase_5,3,5,80,127,1645888840
50,16,17,Jits_Phase_5,0,1,48,58,1646290628
50,16,17,Jits_Phase_5,1,5,56,103,1646318900
50,16,17,Jits_Phase_5,2,5,63,98,1646338536
50,16,17,Jits_Phase_5,3,5,80,127,1646348584
50,16,17,Jits_Phase_5,0,1,48,58,1646779060
50,16,17,Jits_Phase_5,1,5,56,103,1646808832
50,16,17,Jits_Phase_5,2,5,63,98,1646811744
50,16,17,Jits_Phase_5,3,5,80,127,1646828836
50,16,17,Jits_Phase_5,0,1,48,48,1647271976
50,16,17,Jits_Phase_5,1,5,63,98,1647349020
50,16,17,Jits_Phase_5,2,5,56,103,1647378752
50,16,17,Jits_Phase_5,3,5,80,127,1647408428
50,16,17,Jits_Phase_5,0,5,80,127,1647808920
50,16,17,Jits_Phase_5,1,1,48,66,1647812412
50,16,17,Jits_Phase_5,2,5,56,103,1647898888
50,16,17,Jits_Phase_5,3,5,63,98,1647902256
50,16,17,Jits_Phase_5,0,5,56,103,1648308672
50,16,17,Jits_Phase_5,1,5,80,127,1648311592
50,16,17,Jits_Phase_5,2,1,48,71,1648318764
50,16,17,Jits_Phase_5,3,5,63,98,1648388608
50,16,17,Jits_Phase_5,0,5,80,127,1648809324
50,16,17,Jits_Phase_5,1,1,48,74,1648825624
50,16,17,Jits_Phase_5,2,5,63,98,1648868736
50,16,17,Jits_Phase_5,3,5,56,103,1648898484
50,16,17,Jits_Phase_5,0,1,48,73,1649295256
50,16,17,Jits_Phase_5,1,5,63,98,1649309004
50,16,17,Jits_Phase_5,2,5,80,127,1649319348
50,16,17,Jits_Phase_5,3,5,56,103,1649388876
50,16,17,Jits_Phase_5,0,1,48,73,1649792464
50,16,17,Jits_Phase_5,1,5,56,103,1649869136
50,16,17,Jits_Phase_5,2,5,80,127,1649898792
50,16,17,Jits_Phase_5,3,5,63,98,1649948992
50,16,17,Jits_Phase_5,0,1,48,62,1650308912
50,16,17,Jits_Phase_5,1,5,63,98,1650458912
50,16,17,Jits_Phase_5,2,5,56,103,1650488808
50,16,17,Jits_Phase_5,3,5,80,127,1650491876
50,16,17,Jits_Phase_5,0,1,48,65,1650861992
50,16,17,Jits_Phase_5,1,1,38,16,1650872088
50,16,17,Jits_Phase_5,2,5,63,98,1650958860
50,16,17,Jits_Phase_5,3,5,80,127,1650979452
50,16,17,Jits_Phase_5,4,5,56,103,1650989572
50,16,17,Jits_Phase_5,0,1,48,60,1651401696
50,16,17,Jits_Phase_5,1,5,56,103,1651468852
50,16,17,Jits_Phase_5,2,5,63,98,1651471916
50,16,17,Jits_Phase_5,3,5,80,127,1651489236
50,16,17,Jits_Phase_5,0,5,56,103,1651919380
50,16,17,Jits_Phase_5,1,1,48,72,1651928380
50,16,17,Jits_Phase_5,2,5,63,98,1651929792
50,16,17,Jits_Phase_5,3,5,80,127,1651959168
50,16,17,Jits_Phase_5,0,1,48,62,1652423748
50,16,17,Jits_Phase_5,1,5,63,98,1652439364
50,16,17,Jits_Phase_5,2,5,80,127,1652458848
50,16,17,Jits_Phase_5,3,5,56,103,1652498860
50,16,17,Jits_Phase_5,0,1,48,60,1652913756
50,16,17,Jits_Phase_5,1,5,56,103,1652968780
50,16,17,Jits_Phase_5,2,5,63,98,1653008636
50,16,17,Jits_Phase_5,3,5,80,127,1653012004
50,16,17,Jits_Phase_5,0,1,48,62,1653398448
50,16,17,Jits_Phase_5,1,5,80,127,1653409412
50,16,17,Jits_Phase_5,2,5,56,103,1653449200
50,16,17,Jits_Phase_5,3,5,63,98,1653499308
50,16,17,Jits_Phase_5,0,1,48,65,1653897304
50,16,17,Jits_Phase_5,1,5,56,103,1653969616
50,16,17,Jits_Phase_5,2,5,80,127,1653978396
50,16,17,Jits_Phase_5,3,5,63,98,1654009248
50,16,17,Jits_Phase_5,0,1,48,50,1654407020
50,16,17,Jits_Phase_5,1,5,56,103,1654418728
50,16,17,Jits_Phase_5,2,5,80,127,1654458740
50,16,17,Jits_Phase_5,3,5,63,98,1654508924
50,16,17,Jits_Phase_5,0,1,48,55,1654902164
50,16,17,Jits_Phase_5,1,5,56,103,1654918624
50,16,17,Jits_Phase_5,2,5,80,127,1654958636
50,16,17,Jits_Phase_5,3,5,63,98,1655008600
50,16,17,Jits_Phase_5,0,1,48,62,1655402512
50,16,17,Jits_Phase_5,1,5,80,127,1655409208
50,16,17,Jits_Phase_5,2,5,63,98,1655488876
50,16,17,Jits_Phase_5,3,5,56,103,1655499132
50,16,17,Jits_Phase_5,0,1,48,56,1655956072
50,16,17,Jits_Phase_5,1,5,80,127,1655958880
50,16,17,Jits_Phase_5,2,5,56,103,1655969372
50,16,17,Jits_Phase_5,3,5,63,98,1655988636
50,16,17,Jits_Phase_5,0,5,63,98,1656428944
50,16,17,Jits_Phase_5,1,1,48,66,1656478096
50,16,17,Jits_Phase_5,2,5,56,103,1656498492
50,16,17,Jits_Phase_5,3,5,80,127,1656501484
50,16,17,Jits_Phase_5,0,5,80,127,1656919396
50,16,17,Jits_Phase_5,1,1,48,61,1656959700
50,16,17,Jits_Phase_5,2,5,63,98,1656968492
50,16,17,Jits_Phase_5,3,5,56,103,1657008504
50,16,17,Jits_Phase_5,0,5,63,98,1657459008
50,16,17,Jits_Phase_5,1,1,48,63,1657467980
50,16,17,Jits_Phase_5,2,5,56,103,1657499188
50,16,17,Jits_Phase_5,3,5,80,127,1657509308
50,16,17,Jits_Phase_5,0,5,63,98,1657948572
50,16,17,Jits_Phase_5,1,5,56,103,1657969104
50,16,17,Jits_Phase_5,2,1,48,65,1657972520
50,16,17,Jits_Phase_5,3,5,80,127,1657988388
50,16,17,Jits_Phase_5,0,5,80,127,1658409288
50,16,17,Jits_Phase_5,1,5,56,103,1658418588
50,16,17,Jits_Phase_5,2,5,63,98,1658438972
50,16,17,Jits_Phase_5,3,1,48,58,1658439936
50,16,17,Jits_Phase_5,0,5,63,98,1658938716
50,16,17,Jits_Phase_5,1,1,48,58,1658962208
50,16,17,Jits_Phase_5,2,5,56,103,1658978720
50,16,17,Jits_Phase_5,3,5,80,127,1659009392
50,16,17,Jits_Phase_5,0,5,56,103,1659398460
50,16,17,Jits_Phase_5,1,5,63,98,1659429628
50,16,17,Jits_Phase_5,2,1,48,62,1659451324
50,16,17,Jits_Phase_5,3,5,80,127,1659459072
50,16,17,Jits_Phase_5,0,5,80,127,1659819340
50,16,17,Jits_Phase_5,1,1,48,67,1659878276
50,16,17,Jits_Phase_5,2,5,56,103,1659888936
50,16,17,Jits_Phase_5,3,5,63,98,1659892076
50,16,17,Jits_Phase_5,0,5,56,103,1660329356
50,16,17,Jits_Phase_5,1,1,48,74,1660364912
50,16,17,Jits_Phase_5,2,5,63,98,1660378580
50,16,17,Jits_Phase_5,3,5,80,127,1660409300
50,16,17,Jits_Phase_5,0,5,63,98,1660808592
50,16,17,Jits_Phase_5,1,5,80,127,1660812180
50,16,17,Jits_Phase_5,2,1,48,65,1660861756
50,16,17,Jits_Phase_5,3,5,56,103,1660869272
50,16,17,Jits_Phase_5,0,1,48,64,1661308200
50,16,17,Jits_Phase_5,1,5,56,103,1661339112
50,16,17,Jits_Phase_5,2,5,80,127,1661349236
50,16,17,Jits_Phase_5,3,5,63,98,1661399432
50,16,17,Jits_Phase_5,0,1,48,70,1661773104
50,16,17,Jits_Phase_5,1,5,63,98,1661809320
50,16,17,Jits_Phase_5,2,5,56,103,1661819216
50,16,17,Jits_Phase_5,3,5,80,127,1661849140
50,16,17,Jits_Phase_5,0,1,48,73,1662335204
50,16,17,Jits_Phase_5,1,5,63,98,1662338536
50,16,17,Jits_Phase_5,2,5,80,127,1662341824
50,16,17,Jits_Phase_5,3,5,56,103,1662369328
50,16,17,Jits_Phase_5,0,5,63,98,1662858588
50,16,17,Jits_Phase_5,1,1,48,69,1662874136
50,16,17,Jits_Phase_5,2,5,56,103,1662879036
50,16,17,Jits_Phase_5,3,5,80,127,1662882400
50,16,17,Jits_Phase_5,0,5,63,98,1663319492
50,16,17,Jits_Phase_5,1,1,48,68,1663382572
50,16,17,Jits_Phase_5,2,5,56,103,1663389192
50,16,17,Jits_Phase_5,3,5,80,127,1663408452
50,16,17,Jits_Phase_5,0,5,56,103,1663809200
50,16,17,Jits_Phase_5,1,5,63,98,1663819100
50,16,17,Jits_Phase_5,2,1,48,72,1663865136
50,16,17,Jits_Phase_5,3,5,80,127,1663909168
50,16,17,Jits_Phase_5,0,5,56,103,1664329116
50,16,17,Jits_Phase_5,1,1,48,65,1664335376
50,16,17,Jits_Phase_5,2,5,80,127,1664369268
50,16,17,Jits_Phase_5,3,5,63,98,1664379244
50,16,17,Jits_Phase_5,0,1,48,76,1664818736
50,16,17,Jits_Phase_5,1,5,56,103,1664849176
50,16,17,Jits_Phase_5,2,5,63,98,1664879224
50,16,17,Jits_Phase_5,3,5,80,127,1664908700
50,16,17,Jits_Phase_5,0,5,80,127,1665309300
50,16,17,Jits_Phase_5,1,1,48,68,1665341412
50,16,17,Jits_Phase_5,2,5,63,98,1665349084
50,16,17,Jits_Phase_5,3,5,56,103,1665368568
50,16,17,Jits_Phase_5,0,5,56,103,1665848620
50,16,17,Jits_Phase_5,1,1,48,75,1665851740
50,16,17,Jits_Phase_5,2,5,80,127,1665869220
50,16,17,Jits_Phase_5,3,5,63,98,1665888560
50,16,17,Jits_Phase_5,0,5,63,98,1666318716
50,16,17,Jits_Phase_5,1,5,56,103,1666329060
50,16,17,Jits_Phase_5,2,1,48,74,1666377812
50,16,17,Jits_Phase_5,3,5,80,127,1666389216
50,16,17,Jits_Phase_5,0,5,56,103,1666818388
50,16,17,Jits_Phase_5,1,1,48,71,1666823004
50,16,17,Jits_Phase_5,2,5,63,98,1666889036
50,16,17,Jits_Phase_5,3,5,80,127,1666908596
50,16,17,Jits_Phase_5,0,5,56,103,1667319276
50,16,17,Jits_Phase_5,1,1,48,65,1667347060
50,16,17,Jits_Phase_5,2,5,63,98,1667348872
50,16,17,Jits_Phase_5,3,5,80,127,1667388884
50,16,17,Jits_Phase_5,0,5,63,98,1667808556
50,16,17,Jits_Phase_5,1,1,48,69,1667823132
50,16,17,Jits_Phase_5,2,5,56,103,1667858896
50,16,17,Jits_Phase_5,3,5,80,127,1667869316
50,16,17,Jits_Phase_5,0,1,48,73,1668334032
50,16,17,Jits_Phase_5,1,5,56,103,1668349420
50,16,17,Jits_Phase_5,2,5,63,98,1668398504
50,16,17,Jits_Phase_5,3,5,80,127,1668408624
50,16,17,Jits_Phase_5,0,5,56,103,1668819292
50,16,17,Jits_Phase_5,1,5,63,98,1668828516
50,16,17,Jits_Phase_5,2,1,48,68,1668886540
50,16,17,Jits_Phase_5,3,5,80,127,1668909344
50,16,17,Jits_Phase_5,0,9999,9999,9999,1584586872
50,16,17,Jits_Phase_5,1,9999,9999,9999,1585086580
50,16,17,Jits_Phase_5,2,9999,9999,9999,1585586288
50,16,17,Jits_Phase_5,3,9999,9999,9999,1586087008
50,16,17,Jits_Phase_5,4,9999,9999,9999,1586586688
50,16,17,Jits_Phase_5,5,9999,9999,9999,1587086448
50,16,17,Jits_Phase_5,6,9999,9999,9999,1587586120
50,16,17,Jits_Phase_5,7,9999,9999,9999,1588086908
50,16,17,Jits_Phase_5,8,9999,9999,9999,1588586592
50,16,17,Jits_Phase_5,9,9999,9999,9999,1589086284
50,16,17,Jits_Phase_5,10,9999,9999,9999,1589587020
50,16,17,Jits_Phase_5,11,9999,9999,9999,1590086784
50,16,17,Jits_Phase_5,12,9999,9999,9999,1590586452
50,16,17,Jits_Phase_5,13,9999,9999,9999,1591086204
50,16,17,Jits_Phase_5,14,9999,9999,9999,1591586920
50,16,17,Jits_Phase_5,15,9999,9999,9999,1592086612
50,16,17,Jits_Phase_5,16,9999,9999,9999,1592586300
50,16,17,Jits_Phase_5,17,9999,9999,9999,1593087096
50,16,17,Jits_Phase_5,18,9999,9999,9999,1593586812
50,16,17,Jits_Phase_5,19,9999,9999,9999,1594086508
50,16,17,Jits_Phase_5,20,9999,9999,9999,1594586176
50,16,17,Jits_Phase_5,21,9999,9999,9999,1595086916
50,16,17,Jits_Phase_5,22,9999,9999,9999,1595586676
50,16,17,Jits_Phase_5,23,9999,9999,9999,1596086368
50,16,17,Jits_Phase_5,24,9999,9999,9999,1596587080
50,16,17,Jits_Phase_5,25,9999,9999,9999,1597097028
50,16,17,Jits_Phase_5,26,9999,9999,9999,1597596780
50,16,17,Jits_Phase_5,27,9999,9999,9999,1598096444
50,16,17,Jits_Phase_5,28,9999,9999,9999,1598596212
50,16,17,Jits_Phase_5,29,9999,9999,9999,1599096896
50,16,17,Jits_Phase_5,30,9999,9999,9999,1599586392
50,16,17,Jits_Phase_5,31,9999,9999,9999,1600086084
50,16,17,Jits_Phase_5,32,9999,9999,9999,1600586816
50,16,17,Jits_Phase_5,33,9999,9999,9999,1601086580
50,16,17,Jits_Phase_5,34,9999,9999,9999,1601586268
50,16,17,Jits_Phase_5,35,9999,9999,9999,1602087004
50,16,17,Jits_Phase_5,36,9999,9999,9999,1602586740
50,16,17,Jits_Phase_5,37,9999,9999,9999,1603086416
50,16,17,Jits_Phase_5,38,9999,9999,9999,1603586100
50,16,17,Jits_Phase_5,39,9999,9999,9999,1604086900
50,16,17,Jits_Phase_5,40,9999,9999,9999,1604586576
50,16,17,Jits_Phase_5,41,9999,9999,9999,1605086264
50,16,17,Jits_Phase_5,42,9999,9999,9999,1605587000
50,16,17,Jits_Phase_5,43,9999,9999,9999,1606086744
50,16,17,Jits_Phase_5,44,9999,9999,9999,1606586492
50,16,17,Jits_Phase_5,45,9999,9999,9999,1607086176
50,16,17,Jits_Phase_5,46,9999,9999,9999,1607586896
50,16,17,Jits_Phase_5,47,9999,9999,9999,1608086652
50,16,17,Jits_Phase_5,48,9999,9999,9999,1608596588
50,16,17,Jits_Phase_5,49,9999,9999,9999,1609096284
50,16,17,Jits_Phase_5,50,9999,9999,9999,1609597044
50,16,17,Jits_Phase_5,51,9999,9999,9999,1610096724
50,16,17,Jits_Phase_5,52,9999,9999,9999,1610596416
50,16,17,Jits_Phase_5,53,9999,9999,9999,1611096180
50,16,17,Jits_Phase_5,54,9999,9999,9999,1611596904
50,16,17,Jits_Phase_5,55,9999,9999,9999,1612096596
50,16,17,Jits_Phase_5,56,9999,9999,9999,1612596280
50,16,17,Jits_Phase_5,57,9999,9999,9999,1613097084
50,16,17,Jits_Phase_5,58,9999,9999,9999,1613596772
50,16,17,Jits_Phase_5,59,9999,9999,9999,1614096444
50,16,17,Jits_Phase_5,60,9999,9999,9999,1614596212
50,16,17,Jits_Phase_5,61,9999,9999,9999,1615096932
50,16,17,Jits_Phase_5,62,9999,9999,9999,1615596616
50,16,17,Jits_Phase_5,63,9999,9999,9999,1616096376
50,16,17,Jits_Phase_5,64,9999,9999,9999,1616616508
50,16,17,Jits_Phase_5,65,9999,9999,9999,1617116268
50,16,17,Jits_Phase_5,66,9999,9999,9999,1617617008
50,16,17,Jits_Phase_5,67,9999,9999,9999,1618116684
50,16,17,Jits_Phase_5,68,9999,9999,9999,1618616376
50,16,17,Jits_Phase_5,69,9999,9999,9999,1619116144
50,16,17,Jits_Phase_5,70,9999,9999,9999,1619616852
50,16,17,Jits_Phase_5,71,9999,9999,9999,1620116544
50,16,17,Jits_Phase_5,72,9999,9999,9999,1620616304
50,16,17,Jits_Phase_5,73,9999,9999,9999,1621117000
50,16,17,Jits_Phase_5,74,9999,9999,9999,1621616760
50,16,17,Jits_Phase_5,75,9999,9999,9999,1622116432
50,16,17,Jits_Phase_5,76,9999,9999,9999,1622616128
50,16,17,Jits_Phase_5,77,9999,9999,9999,1623116924
50,16,17,Jits_Phase_5,78,9999,9999,9999,1623616616
50,16,17,Jits_Phase_5,79,9999,9999,9999,1624116308
50,16,17,Jits_Phase_5,80,9999,9999,9999,1624617032
50,16,17,Jits_Phase_5,81,9999,9999,9999,1625096256
50,16,17,Jits_Phase_5,82,9999,9999,9999,1625596996
50,16,17,Jits_Phase_5,83,9999,9999,9999,1626096740
50,16,17,Jits_Phase_5,84,9999,9999,9999,1626596432
50,16,17,Jits_Phase_5,85,9999,9999,9999,1627096180
50,16,17,Jits_Phase_5,86,9999,9999,9999,1627596900
50,16,17,Jits_Phase_5,87,9999,9999,9999,1628096588
50,16,17,Jits_Phase_5,88,9999,9999,9999,1628596352
50,16,17,Jits_Phase_5,89,9999,9999,9999,1629097084
50,16,17,Jits_Phase_5,90,9999,9999,9999,1629596776
50,16,17,Jits_Phase_5,91,9999,9999,9999,1630096460
50,16,17,Jits_Phase_5,92,9999,9999,9999,1630596212
50,16,17,Jits_Phase_5,93,9999,9999,9999,1631096912
50,16,17,Jits_Phase_5,94,9999,9999,9999,1631596652
50,16,17,Jits_Phase_5,95,9999,9999,9999,1632096328
50,16,17,Jits_Phase_5,96,9999,9999,9999,1632597052
50,16,17,Jits_Phase_5,97,9999,9999,9999,1633046608
50,16,17,Jits_Phase_5,98,9999,9999,9999,1633546360
50,16,17,Jits_Phase_5,99,9999,9999,9999,1634047092
50,16,17,Jits_Phase_5,100,9999,9999,9999,1634546768
50,16,17,Jits_Phase_5,101,9999,9999,9999,1635046464
50,16,17,Jits_Phase_5,102,9999,9999,9999,1635546216
50,16,17,Jits_Phase_5,103,9999,9999,9999,1636046944
50,16,17,Jits_Phase_5,104,9999,9999,9999,1636546624
50,16,17,Jits_Phase_5,105,9999,9999,9999,1637046368
50,16,17,Jits_Phase_5,106,9999,9999,9999,1637547092
50,16,17,Jits_Phase_5,107,9999,9999,9999,1638057024
50,16,17,Jits_Phase_5,108,9999,9999,9999,1638556772
50,16,17,Jits_Phase_5,109,9999,9999,9999,1639056452
50,16,17,Jits_Phase_5,110,9999,9999,9999,1639556196
50,16,17,Jits_Phase_5,111,9999,9999,9999,1640056892
50,16,17,Jits_Phase_5,112,9999,9999,9999,1640556628
50,16,17,Jits_Phase_5,113,9999,9999,9999,1641056376
50,16,17,Jits_Phase_5,114,9999,9999,9999,1641606268
50,16,17,Jits_Phase_5,115,9999,9999,9999,1642106956
50,16,17,Jits_Phase_5,116,9999,9999,9999,1642606696
50,16,17,Jits_Phase_5,117,9999,9999,9999,1643106372
50,16,17,Jits_Phase_5,118,9999,9999,9999,1643606132
50,16,17,Jits_Phase_5,119,9999,9999,9999,1644106844
50,16,17,Jits_Phase_5,120,9999,9999,9999,1644606588
50,16,17,Jits_Phase_5,121,9999,9999,9999,1645106264
50,16,17,Jits_Phase_5,122,9999,9999,9999,1645606984
50,16,17,Jits_Phase_5,123,9999,9999,9999,1646106728
50,16,17,Jits_Phase_5,124,9999,9999,9999,1646606400
50,16,17,Jits_Phase_5,125,9999,9999,9999,1647106132
50,16,17,Jits_Phase_5,126,9999,9999,9999,1647606852
50,16,17,Jits_Phase_5,127,9999,9999,9999,1648106596
50,16,17,Jits_Phase_5,128,9999,9999,9999,1648606272
50,16,17,Jits_Phase_5,129,9999,9999,9999,1649107008
50,16,17,Jits_Phase_5,130,9999,9999,9999,1649606764
50,16,17,Jits_Phase_5,131,9999,9999,9999,1650206824
50,16,17,Jits_Phase_5,132,9999,9999,9999,1650706492
50,16,17,Jits_Phase_5,133,9999,9999,9999,1651206208
50,16,17,Jits_Phase_5,134,9999,9999,9999,1651706976
50,16,17,Jits_Phase_5,135,9999,9999,9999,1652206648
50,16,17,Jits_Phase_5,136,9999,9999,9999,1652706412
50,16,17,Jits_Phase_5,137,9999,9999,9999,1653206080
50,16,17,Jits_Phase_5,138,9999,9999,9999,1653706876
50,16,17,Jits_Phase_5,139,9999,9999,9999,1654206556
50,16,17,Jits_Phase_5,140,9999,9999,9999,1654706228
50,16,17,Jits_Phase_5,141,9999,9999,9999,1655207024
50,16,17,Jits_Phase_5,142,9999,9999,9999,1655706700
50,16,17,Jits_Phase_5,143,9999,9999,9999,1656206448
50,16,17,Jits_Phase_5,144,9999,9999,9999,1656706120
50,16,17,Jits_Phase_5,145,9999,9999,9999,1657206888
50,16,17,Jits_Phase_5,146,9999,9999,9999,1657706576
50,16,17,Jits_Phase_5,147,9999,9999,9999,1658206324
50,16,17,Jits_Phase_5,148,9999,9999,9999,1658707040
50,16,17,Jits_Phase_5,149,9999,9999,9999,1659206732
50,16,17,Jits_Phase_5,150,9999,9999,9999,1659606100
50,16,17,Jits_Phase_5,151,9999,9999,9999,1660106824
50,16,17,Jits_Phase_5,152,9999,9999,9999,1660606592
50,16,17,Jits_Phase_5,153,9999,9999,9999,1661106264
50,16,17,Jits_Phase_5,154,9999,9999,9999,1661606988
50,16,17,Jits_Phase_5,155,9999,9999,9999,1662106732
50,16,17,Jits_Phase_5,156,9999,9999,9999,1662606396
50,16,17,Jits_Phase_5,157,9999,9999,9999,1663106140
50,16,17,Jits_Phase_5,158,9999,9999,9999,1663606840
50,16,17,Jits_Phase_5,159,9999,9999,9999,1664106584
50,16,17,Jits_Phase_5,160,9999,9999,9999,1664606276
50,16,17,Jits_Phase_5,161,9999,9999,9999,1665107012
50,16,17,Jits_Phase_5,162,9999,9999,9999,1665606756
50,16,17,Jits_Phase_5,163,9999,9999,9999,1666106448
50,16,17,Jits_Phase_5,164,9999,9999,9999,1666606136
50,16,17,Jits_Phase_5,165,9999,9999,9999,1667106936
50,16,17,Jits_Phase_5,166,9999,9999,9999,1667606624
50,16,17,Jits_Phase_5,167,9999,9999,9999,1668106308
50,16,17,Jits_Phase_5,168,9999,9999,9999,1668607036
50,16,17,Jits_Phase_5,169,9999,9999,9999,1669106784
50,17,15,Jits_Phase_8,0,5,56,103,1679077808
50,17,15,Jits_Phase_8,1,5,63,98,1679080980
50,17,15,Jits_Phase_8,2,5,80,127,1679084024
50,17,15,Jits_Phase_8,0,5,56,103,1679877744
50,17,15,Jits_Phase_8,1,5,63,98,1679880772
50,17,15,Jits_Phase_8,2,5,80,127,1679884040
50,17,15,Jits_Phase_8,0,5,80,127,1680617916
50,17,15,Jits_Phase_8,1,5,63,98,1680707900
50,17,15,Jits_Phase_8,2,5,56,103,1680718172
50,17,15,Jits_Phase_8,0,5,56,103,1681437956
50,17,15,Jits_Phase_8,1,5,63,98,1681448300
50,17,15,Jits_Phase_8,2,1,48,41,1681520560
50,17,15,Jits_Phase_8,3,5,80,127,1681538520
50,17,15,Jits_Phase_8,0,5,63,98,1682208056
50,17,15,Jits_Phase_8,1,1,48,53,1682224504
50,17,15,Jits_Phase_8,2,5,80,127,1682238020
50,17,15,Jits_Phase_8,3,5,56,103,1682267472
50,17,15,Jits_Phase_8,0,1,48,46,1682906104
50,17,15,Jits_Phase_8,1,5,56,103,1683007856
50,17,15,Jits_Phase_8,2,5,80,127,1683108204
50,17,15,Jits_Phase_8,3,5,63,98,1683158332
50,17,15,Jits_Phase_8,0,1,48,46,1683801384
50,17,15,Jits_Phase_8,1,5,56,103,1683807856
50,17,15,Jits_Phase_8,2,5,80,127,1683857712
50,17,15,Jits_Phase_8,3,5,63,98,1683897796
50,17,15,Jits_Phase_8,0,5,80,127,1684638064
50,17,15,Jits_Phase_8,1,5,63,98,1684667888
50,17,15,Jits_Phase_8,2,5,56,103,1684738388
50,17,15,Jits_Phase_8,0,1,48,74,1685401048
50,17,15,Jits_Phase_8,1,5,63,98,1685467608
50,17,15,Jits_Phase_8,2,5,56,103,1685498240
50,17,15,Jits_Phase_8,3,5,80,127,1685557880
50,17,15,Jits_Phase_8,0,5,56,103,1686207956
50,17,15,Jits_Phase_8,1,5,80,127,1686211020
50,17,15,Jits_Phase_8,2,1,48,82,1686213464
50,17,15,Jits_Phase_8,3,5,63,98,1686327804
50,17,15,Jits_Phase_8,0,1,48,81,1687003256
50,17,15,Jits_Phase_8,1,5,56,103,1687087576
50,17,15,Jits_Phase_8,2,5,80,127,1687128548
50,17,15,Jits_Phase_8,3,5,63,98,1687137848
50,17,15,Jits_Phase_8,0,1,48,76,1687814928
50,17,15,Jits_Phase_8,1,5,56,103,1687848452
50,17,15,Jits_Phase_8,2,5,80,127,1687867716
50,17,15,Jits_Phase_8,3,5,63,98,1687947816
50,17,15,Jits_Phase_8,0,1,48,81,1688553628
50,17,15,Jits_Phase_8,1,5,80,127,1688637800
50,17,15,Jits_Phase_8,2,5,56,103,1688738132
50,17,15,Jits_Phase_8,3,5,63,98,1688748476
50,17,15,Jits_Phase_8,0,1,48,83,1689317956
50,17,15,Jits_Phase_8,1,5,63,98,1689407816
50,17,15,Jits_Phase_8,2,5,80,127,1689468488
50,17,15,Jits_Phase_8,3,5,56,103,1689477564
50,17,15,Jits_Phase_8,0,5,56,103,1690207772
50,17,15,Jits_Phase_8,1,1,48,74,1690209112
50,17,15,Jits_Phase_8,2,5,63,98,1690278520
50,17,15,Jits_Phase_8,3,5,80,127,1690281880
50,17,15,Jits_Phase_8,0,1,48,62,1691034712
50,17,15,Jits_Phase_8,1,5,63,98,1691038192
50,17,15,Jits_Phase_8,2,5,56,103,1691088392
50,17,15,Jits_Phase_8,3,5,80,127,1691091456
50,17,15,Jits_Phase_8,0,5,56,103,1691797856
50,17,15,Jits_Phase_8,1,5,80,127,1691800848
50,17,15,Jits_Phase_8,2,1,48,59,1691826308
50,17,15,Jits_Phase_8,3,5,63,98,1691887980
50,17,15,Jits_Phase_8,0,1,48,78,1692508544
50,17,15,Jits_Phase_8,1,5,63,98,1692637744
50,17,15,Jits_Phase_8,2,5,56,103,1692727580
50,17,15,Jits_Phase_8,3,5,80,127,1692758600
50,17,15,Jits_Phase_8,0,5,56,103,1693428012
50,17,15,Jits_Phase_8,1,5,63,98,1693528708
50,17,15,Jits_Phase_8,2,5,80,127,1693558012
50,17,15,Jits_Phase_8,3,1,48,79,1693559420
50,17,15,Jits_Phase_8,0,5,63,98,1694248392
50,17,15,Jits_Phase_8,1,5,56,103,1694257764
50,17,15,Jits_Phase_8,2,1,48,73,1694282832
50,17,15,Jits_Phase_8,3,1,38,18,1694292920
50,17,15,Jits_Phase_8,4,5,80,127,1694347520
50,17,15,Jits_Phase_8,0,5,63,98,1695067632
50,17,15,Jits_Phase_8,1,1,48,73,1695105404
50,17,15,Jits_Phase_8,2,5,56,103,1695148420
50,17,15,Jits_Phase_8,3,5,80,127,1695151488
50,17,15,Jits_Phase_8,0,5,80,127,1695828428
50,17,15,Jits_Phase_8,1,5,63,98,1695847768
50,17,15,Jits_Phase_8,2,5,56,103,1695908480
50,17,15,Jits_Phase_8,3,1,48,67,1695922008
50,17,15,Jits_Phase_8,0,1,48,75,1696630040
50,17,15,Jits_Phase_8,1,5,56,103,1696668000
50,17,15,Jits_Phase_8,2,5,63,98,1696687488
50,17,15,Jits_Phase_8,3,5,80,127,1696690848
50,17,15,Jits_Phase_8,0,1,48,76,1697366484
50,17,15,Jits_Phase_8,1,5,63,98,1697408556
50,17,15,Jits_Phase_8,2,5,80,127,1697488412
50,17,15,Jits_Phase_8,3,5,56,103,1697497412
50,17,15,Jits_Phase_8,0,5,63,98,1698227428
50,17,15,Jits_Phase_8,1,1,48,75,1698237368
50,17,15,Jits_Phase_8,2,5,56,103,1698248032
50,17,15,Jits_Phase_8,3,5,80,127,1698298380
50,17,15,Jits_Phase_8,0,5,80,127,1699028296
50,17,15,Jits_Phase_8,1,1,48,70,1699036068
50,17,15,Jits_Phase_8,2,5,63,98,1699068380
50,17,15,Jits_Phase_8,3,5,56,103,1699087864
50,17,15,Jits_Phase_8,0,1,48,70,1699827744
50,17,15,Jits_Phase_8,1,5,56,103,1699867996
50,17,15,Jits_Phase_8,2,5,63,98,1699878268
50,17,15,Jits_Phase_8,3,5,80,127,1699897680
50,17,15,Jits_Phase_8,0,1,48,74,1700597560
50,17,15,Jits_Phase_8,1,5,56,103,1700599200
50,17,15,Jits_Phase_8,2,5,63,98,1700688216
50,17,15,Jits_Phase_8,3,5,80,127,1700747640
50,17,15,Jits_Phase_8,0,1,48,72,1701414436
50,17,15,Jits_Phase_8,1,5,80,127,1701427584
50,17,15,Jits_Phase_8,2,5,56,103,1701437928
50,17,15,Jits_Phase_8,3,5,63,98,1701507408
50,17,15,Jits_Phase_8,0,1,48,75,1702199212
50,17,15,Jits_Phase_8,1,5,63,98,1702258056
50,17,15,Jits_Phase_8,2,5,80,127,1702348272
50,17,15,Jits_Phase_8,3,5,56,103,1702358544
50,17,15,Jits_Phase_8,0,5,63,98,1702988368
50,17,15,Jits_Phase_8,1,5,80,127,1703038224
50,17,15,Jits_Phase_8,2,1,48,75,1703051312
50,17,15,Jits_Phase_8,3,5,56,103,1703097708
50,17,15,Jits_Phase_8,0,5,56,103,1703808456
50,17,15,Jits_Phase_8,1,5,80,127,1703857464
50,17,15,Jits_Phase_8,2,5,63,98,1703878292
50,17,15,Jits_Phase_8,3,1,48,70,1703896256
50,17,15,Jits_Phase_8,0,1,48,71,1704575292
50,17,15,Jits_Phase_8,1,5,56,103,1704578472
50,17,15,Jits_Phase_8,2,5,80,127,1704637824
50,17,15,Jits_Phase_8,3,5,63,98,1704707412
50,17,15,Jits_Phase_8,0,5,56,103,1705378312
50,17,15,Jits_Phase_8,1,1,48,63,1705398216
50,17,15,Jits_Phase_8,2,5,80,127,1705407984
50,17,15,Jits_Phase_8,3,5,63,98,1705437512
50,17,15,Jits_Phase_8,0,1,48,60,1706164100
50,17,15,Jits_Phase_8,1,5,56,103,1706228196
50,17,15,Jits_Phase_8,2,5,80,127,1706247608
50,17,15,Jits_Phase_8,3,5,63,98,1706307984
50,17,15,Jits_Phase_8,0,1,48,64,1707036472
50,17,15,Jits_Phase_8,1,5,80,127,1707107672
50,17,15,Jits_Phase_8,2,5,56,103,1707117868
50,17,15,Jits_Phase_8,3,5,63,98,1707128436
50,17,15,Jits_Phase_8,0,1,48,54,1707850844
50,17,15,Jits_Phase_8,1,5,56,103,1707867428
50,17,15,Jits_Phase_8,2,5,80,127,1707907392
50,17,15,Jits_Phase_8,3,5,63,98,1707938412
50,17,15,Jits_Phase_8,0,5,56,103,1708637456
50,17,15,Jits_Phase_8,1,1,48,41,1708666664
50,17,15,Jits_Phase_8,2,5,63,98,1708668272
50,17,15,Jits_Phase_8,3,5,80,127,1708708132
50,17,15,Jits_Phase_8,0,1,48,52,1709356060
50,17,15,Jits_Phase_8,1,5,80,127,1709388144
50,17,15,Jits_Phase_8,2,5,63,98,1709438296
50,17,15,Jits_Phase_8,3,5,56,103,1709457768
50,17,15,Jits_Phase_8,0,1,48,48,1710114064
50,17,15,Jits_Phase_8,1,5,56,103,1710217504
50,17,15,Jits_Phase_8,2,5,80,127,1710288156
50,17,15,Jits_Phase_8,3,5,63,98,1710347648
50,17,15,Jits_Phase_8,0,1,48,50,1711002480
50,17,15,Jits_Phase_8,1,5,80,127,1711018396
50,17,15,Jits_Phase_8,2,5,63,98,1711107472
50,17,15,Jits_Phase_8,3,5,56,103,1711128076
50,17,15,Jits_Phase_8,0,1,48,59,1711767564
50,17,15,Jits_Phase_8,1,5,63,98,1711837416
50,17,15,Jits_Phase_8,2,5,56,103,1711858172
50,17,15,Jits_Phase_8,3,5,80,127,1711898096
50,17,15,Jits_Phase_8,0,1,48,71,1712571508
50,17,15,Jits_Phase_8,1,5,80,127,1712598284
50,17,15,Jits_Phase_8,2,5,63,98,1712617996
50,17,15,Jits_Phase_8,3,5,56,103,1712697848
50,17,15,Jits_Phase_8,0,1,48,62,1713263344
50,17,15,Jits_Phase_8,1,5,63,98,1713388060
50,17,15,Jits_Phase_8,2,5,56,103,1713497524
50,17,15,Jits_Phase_8,3,5,80,127,1713500588
50,17,15,Jits_Phase_8,0,1,48,66,1714161196
50,17,15,Jits_Phase_8,1,5,63,98,1714208052
50,17,15,Jits_Phase_8,2,5,56,103,1714218324
50,17,15,Jits_Phase_8,3,5,80,127,1714221312
50,17,15,Jits_Phase_8,0,1,48,60,1714927756
50,17,15,Jits_Phase_8,1,5,56,103,1714988388
50,17,15,Jits_Phase_8,2,5,80,127,1715108276
50,17,15,Jits_Phase_8,3,5,63,98,1715148212
50,17,15,Jits_Phase_8,0,1,48,60,1715787452
50,17,15,Jits_Phase_8,1,5,56,103,1715807556
50,17,15,Jits_Phase_8,2,5,80,127,1715887436
50,17,15,Jits_Phase_8,3,5,63,98,1715907972
50,17,15,Jits_Phase_8,0,1,48,60,1716551988
50,17,15,Jits_Phase_8,1,5,56,103,1716608240
50,17,15,Jits_Phase_8,2,5,63,98,1716718056
50,17,15,Jits_Phase_8,3,5,80,127,1716721344
50,17,15,Jits_Phase_8,0,1,48,85,1717341996
50,17,15,Jits_Phase_8,1,1,38,19,1717352164
50,17,15,Jits_Phase_8,2,5,56,103,1717448232
50,17,15,Jits_Phase_8,3,5,80,127,1717477608
50,17,15,Jits_Phase_8,4,5,63,98,1717498292
50,17,15,Jits_Phase_8,0,1,48,69,1718105364
50,17,15,Jits_Phase_8,1,5,63,98,1718237404
50,17,15,Jits_Phase_8,2,5,56,103,1718247900
50,17,15,Jits_Phase_8,3,5,80,127,1718258168
50,17,15,Jits_Phase_8,0,1,48,77,1718933292
50,17,15,Jits_Phase_8,1,5,80,127,1719029060
50,17,15,Jits_Phase_8,2,5,56,103,1719078364
50,17,15,Jits_Phase_8,3,5,63,98,1719118228
50,17,15,Jits_Phase_8,0,1,48,88,1719728036
50,17,15,Jits_Phase_8,1,1,38,19,1719737908
50,17,15,Jits_Phase_8,2,5,80,127,1719848252
50,17,15,Jits_Phase_8,3,5,63,98,1719867960
50,17,15,Jits_Phase_8,4,5,56,103,1719917940
50,17,15,Jits_Phase_8,0,1,48,81,1720550868
50,17,15,Jits_Phase_8,1,1,38,19,1720560816
50,17,15,Jits_Phase_8,2,5,80,127,1720658276
50,17,15,Jits_Phase_8,3,5,56,103,1720687952
50,17,15,Jits_Phase_8,4,5,63,98,1720757508
50,17,15,Jits_Phase_8,0,1,48,89,1721367416
50,17,15,Jits_Phase_8,1,1,38,20,1721377364
50,17,15,Jits_Phase_8,2,5,56,103,1721508196
50,17,15,Jits_Phase_8,3,5,80,127,1721517420
50,17,15,Jits_Phase_8,4,5,63,98,1721558332
50,17,15,Jits_Phase_8,0,1,48,86,1722161424
50,17,15,Jits_Phase_8,1,1,38,20,1722171364
50,17,15,Jits_Phase_8,2,5,56,103,1722218000
50,17,15,Jits_Phase_8,3,5,63,98,1722238412
50,17,15,Jits_Phase_8,4,5,80,127,1722307896
50,17,15,Jits_Phase_8,0,1,48,83,1722971520
50,17,15,Jits_Phase_8,1,1,38,19,1722981392
50,17,15,Jits_Phase_8,2,5,63,98,1723038012
50,17,15,Jits_Phase_8,3,5,80,127,1723097536
50,17,15,Jits_Phase_8,4,5,56,103,1723117924
50,17,15,Jits_Phase_8,0,1,48,89,1723726936
50,17,15,Jits_Phase_8,1,5,80,127,1723827512
50,17,15,Jits_Phase_8,2,5,56,103,1723858388
50,17,15,Jits_Phase_8,3,5,63,98,1723888060
50,17,15,Jits_Phase_8,0,1,48,93,1724525868
50,17,15,Jits_Phase_8,1,5,56,103,1724628316
50,17,15,Jits_Phase_8,2,5,63,98,1724687732
50,17,15,Jits_Phase_8,3,5,80,127,1724748196
50,17,15,Jits_Phase_8,0,1,48,76,1725288756
50,17,15,Jits_Phase_8,1,5,80,127,1725447476
50,17,15,Jits_Phase_8,2,5,56,103,1725468084
50,17,15,Jits_Phase_8,3,5,63,98,1725537616
50,17,15,Jits_Phase_8,0,1,48,83,1726151016
50,17,15,Jits_Phase_8,1,5,80,127,1726248280
50,17,15,Jits_Phase_8,2,5,63,98,1726267992
50,17,15,Jits_Phase_8,3,5,56,103,1726297516
50,17,15,Jits_Phase_8,0,1,48,80,1726934952
50,17,15,Jits_Phase_8,1,1,38,18,1726945444
50,17,15,Jits_Phase_8,2,5,80,127,1727038048
50,17,15,Jits_Phase_8,3,5,63,98,1727058196
50,17,15,Jits_Phase_8,4,5,56,103,1727117788
50,17,15,Jits_Phase_8,0,1,48,79,1727747260
50,17,15,Jits_Phase_8,1,1,38,19,1727757276
50,17,15,Jits_Phase_8,2,5,80,127,1727838428
50,17,15,Jits_Phase_8,3,5,56,103,1727937864
50,17,15,Jits_Phase_8,4,5,63,98,1727967832
50,17,15,Jits_Phase_8,0,1,48,85,1728620380
50,17,15,Jits_Phase_8,1,5,63,98,1728628052
50,17,15,Jits_Phase_8,2,5,80,127,1728678132
50,17,15,Jits_Phase_8,3,5,56,103,1728697764
50,17,15,Jits_Phase_8,0,1,48,93,1729455756
50,17,15,Jits_Phase_8,1,5,80,127,1729468060
50,17,15,Jits_Phase_8,2,5,56,103,1729497440
50,17,15,Jits_Phase_8,3,5,63,98,1729500504
50,17,15,Jits_Phase_8,0,1,48,87,1730230248
50,17,15,Jits_Phase_8,1,5,63,98,1730317860
50,17,15,Jits_Phase_8,2,5,56,103,1730357784
50,17,15,Jits_Phase_8,3,5,80,127,1730377948
50,17,15,Jits_Phase_8,0,1,48,69,1730986936
50,17,15,Jits_Phase_8,1,5,80,127,1731077616
50,17,15,Jits_Phase_8,2,5,63,98,1731158372
50,17,15,Jits_Phase_8,3,5,56,103,1731198260
50,17,15,Jits_Phase_8,0,1,48,78,1731766324
50,17,15,Jits_Phase_8,1,5,63,98,1731897888
50,17,15,Jits_Phase_8,2,5,80,127,1731977860
50,17,15,Jits_Phase_8,3,5,56,103,1731998020
50,17,15,Jits_Phase_8,0,1,48,87,1732653356
50,17,15,Jits_Phase_8,1,5,56,103,1732738524
50,17,15,Jits_Phase_8,2,5,63,98,1732747748
50,17,15,Jits_Phase_8,3,5,80,127,1732787820
50,17,15,Jits_Phase_8,0,5,56,103,1733458324
50,17,15,Jits_Phase_8,1,5,80,127,1733461240
50,17,15,Jits_Phase_8,2,1,48,91,1733503564
50,17,15,Jits_Phase_8,3,5,63,98,1733597840
50,17,15,Jits_Phase_8,0,5,56,103,1734247672
50,17,15,Jits_Phase_8,1,1,48,74,1734255572
50,17,15,Jits_Phase_8,2,5,63,98,1734338048
50,17,15,Jits_Phase_8,3,5,80,127,1734407788
50,17,15,Jits_Phase_8,0,1,48,82,1735038372
50,17,15,Jits_Phase_8,1,1,38,19,1735048468
50,17,15,Jits_Phase_8,2,5,63,98,1735128652
50,17,15,Jits_Phase_8,3,5,80,127,1735131792
50,17,15,Jits_Phase_8,4,5,56,103,1735187816
50,17,15,Jits_Phase_8,0,1,48,84,1735808700
50,17,15,Jits_Phase_8,1,5,80,127,1735968216
50,17,15,Jits_Phase_8,2,5,56,103,1735987780
50,17,15,Jits_Phase_8,3,5,63,98,1735997828
50,17,15,Jits_Phase_8,0,5,56,103,1736677800
50,17,15,Jits_Phase_8,1,5,63,98,1736687848
50,17,15,Jits_Phase_8,2,1,48,66,1736739212
50,17,15,Jits_Phase_8,3,5,80,127,1736757744
50,17,15,Jits_Phase_8,0,5,80,127,1737477644
50,17,15,Jits_Phase_8,1,5,56,103,1737527548
50,17,15,Jits_Phase_8,2,1,48,69,1737531640
50,17,15,Jits_Phase_8,3,5,63,98,1737577816
50,17,15,Jits_Phase_8,0,1,48,71,1738335064
50,17,15,Jits_Phase_8,1,5,56,103,1738358324
50,17,15,Jits_Phase_8,2,5,63,98,1738368324
50,17,15,Jits_Phase_8,3,5,80,127,1738408408
50,17,15,Jits_Phase_8,0,5,56,103,1739097712
50,17,15,Jits_Phase_8,1,1,48,76,1739129380
50,17,15,Jits_Phase_8,2,5,63,98,1739138692
50,17,15,Jits_Phase_8,3,5,80,127,1739187548
50,17,15,Jits_Phase_8,0,5,80,127,1739858276
50,17,15,Jits_Phase_8,1,1,48,69,1739880348
50,17,15,Jits_Phase_8,2,5,56,103,1739907452
50,17,15,Jits_Phase_8,3,5,63,98,1739927836
50,17,15,Jits_Phase_8,0,5,80,127,1740668408
50,17,15,Jits_Phase_8,1,1,48,61,1740674740
50,17,15,Jits_Phase_8,2,5,63,98,1740727748
50,17,15,Jits_Phase_8,3,5,56,103,1740807748
50,17,15,Jits_Phase_8,0,1,48,67,1741431260
50,17,15,Jits_Phase_8,1,5,80,127,1741447572
50,17,15,Jits_Phase_8,2,5,56,103,1741487808
50,17,15,Jits_Phase_8,3,5,63,98,1741507896
50,17,15,Jits_Phase_8,0,1,48,61,1742232232
50,17,15,Jits_Phase_8,1,5,56,103,1742297668
50,17,15,Jits_Phase_8,2,5,80,127,1742307792
50,17,15,Jits_Phase_8,3,5,63,98,1742347564
50,17,15,Jits_Phase_8,0,1,48,27,1743078524
50,17,15,Jits_Phase_8,1,5,56,103,1743167856
50,17,15,Jits_Phase_8,2,5,63,98,1743207776
50,17,15,Jits_Phase_8,3,5,80,127,1743211512
50,17,15,Jits_Phase_8,0,5,63,98,1743837484
50,17,15,Jits_Phase_8,1,5,80,127,1743877572
50,17,15,Jits_Phase_8,2,1,48,50,1743889380
50,17,15,Jits_Phase_8,3,5,56,103,1743948216
50,17,15,Jits_Phase_8,0,5,63,98,1744607648
50,17,15,Jits_Phase_8,1,1,48,48,1744663880
50,17,15,Jits_Phase_8,2,5,56,103,1744687660
50,17,15,Jits_Phase_8,3,5,80,127,1744747828
50,17,15,Jits_Phase_8,0,1,48,55,1745405860
50,17,15,Jits_Phase_8,1,5,80,127,1745417588
50,17,15,Jits_Phase_8,2,5,63,98,1745467644
50,17,15,Jits_Phase_8,3,5,56,103,1745497676
50,17,15,Jits_Phase_8,0,5,56,103,1746208136
50,17,15,Jits_Phase_8,1,1,48,63,1746209696
50,17,15,Jits_Phase_8,2,5,63,98,1746258556
50,17,15,Jits_Phase_8,3,5,80,127,1746267480
50,17,15,Jits_Phase_8,0,1,48,57,1746979468
50,17,15,Jits_Phase_8,1,5,56,103,1747018008
50,17,15,Jits_Phase_8,2,5,63,98,1747127784
50,17,15,Jits_Phase_8,3,5,80,127,1747148316
50,17,15,Jits_Phase_8,0,5,63,98,1747817924
50,17,15,Jits_Phase_8,1,1,48,53,1747835672
50,17,15,Jits_Phase_8,2,5,80,127,1747868072
50,17,15,Jits_Phase_8,3,5,56,103,1747958264
50,17,15,Jits_Phase_8,0,5,63,98,1748608344
50,17,15,Jits_Phase_8,1,1,48,57,1748631540
50,17,15,Jits_Phase_8,2,5,80,127,1748637940
50,17,15,Jits_Phase_8,3,5,56,103,1748728132
50,17,15,Jits_Phase_8,0,1,48,67,1749364952
50,17,15,Jits_Phase_8,1,5,63,98,1749408020
50,17,15,Jits_Phase_8,2,5,56,103,1749418440
50,17,15,Jits_Phase_8,3,5,80,127,1749517696
50,17,15,Jits_Phase_8,0,1,48,62,1750090912
50,17,15,Jits_Phase_8,1,5,63,98,1750308300
50,17,15,Jits_Phase_8,2,5,80,127,1750338124
50,17,15,Jits_Phase_8,3,5,56,103,1750367652
50,17,15,Jits_Phase_8,0,1,48,54,1751008560
50,17,15,Jits_Phase_8,1,5,80,127,1751128520
50,17,15,Jits_Phase_8,2,5,63,98,1751137668
50,17,15,Jits_Phase_8,3,5,56,103,1751168340
50,17,15,Jits_Phase_8,0,1,48,64,1751795500
50,17,15,Jits_Phase_8,1,5,80,127,1751827832
50,17,15,Jits_Phase_8,2,5,63,98,1751848592
50,17,15,Jits_Phase_8,3,5,56,103,1751897508
50,17,15,Jits_Phase_8,0,1,48,67,1752578788
50,17,15,Jits_Phase_8,1,5,63,98,1752658456
50,17,15,Jits_Phase_8,2,5,80,127,1752717736
50,17,15,Jits_Phase_8,3,5,56,103,1752738344
50,17,15,Jits_Phase_8,0,1,48,78,1753308352
50,17,15,Jits_Phase_8,1,5,63,98,1753418196
50,17,15,Jits_Phase_8,2,5,56,103,1753468720
50,17,15,Jits_Phase_8,3,5,80,127,1753477424
50,17,15,Jits_Phase_8,0,1,48,65,1754179352
50,17,15,Jits_Phase_8,1,5,56,103,1754247436
50,17,15,Jits_Phase_8,2,5,80,127,1754257632
50,17,15,Jits_Phase_8,3,5,63,98,1754358232
50,17,15,Jits_Phase_8,0,1,48,61,1754987656
50,17,15,Jits_Phase_8,1,5,80,127,1755008304
50,17,15,Jits_Phase_8,2,5,63,98,1755017528
50,17,15,Jits_Phase_8,3,5,56,103,1755168396
50,17,15,Jits_Phase_8,0,5,63,98,1755818332
50,17,15,Jits_Phase_8,1,1,48,67,1755832984
50,17,15,Jits_Phase_8,2,5,80,127,1755858264
50,17,15,Jits_Phase_8,3,5,56,103,1755938116
50,17,15,Jits_Phase_8,0,5,56,103,1756568040
50,17,15,Jits_Phase_8,1,1,48,64,1756634164
50,17,15,Jits_Phase_8,2,5,80,127,1756668356
50,17,15,Jits_Phase_8,3,5,63,98,1756687768
50,17,15,Jits_Phase_8,0,1,48,51,1757327704
50,17,15,Jits_Phase_8,1,5,80,127,1757388264
50,17,15,Jits_Phase_8,2,5,56,103,1757398536
50,17,15,Jits_Phase_8,3,5,63,98,1757487456
50,17,15,Jits_Phase_8,0,1,48,65,1758069072
50,17,15,Jits_Phase_8,1,5,56,103,1758188012
50,17,15,Jits_Phase_8,2,5,63,98,1758208400
50,17,15,Jits_Phase_8,3,5,80,127,1758288340
50,17,15,Jits_Phase_8,0,1,48,55,1758932984
50,17,15,Jits_Phase_8,1,5,63,98,1758937592
50,17,15,Jits_Phase_8,2,5,56,103,1759027480
50,17,15,Jits_Phase_8,3,5,80,127,1759030848
50,17,15,Jits_Phase_8,0,1,48,70,1759653168
50,17,15,Jits_Phase_8,1,5,56,103,1759767892
50,17,15,Jits_Phase_8,2,5,80,127,1759828284
50,17,15,Jits_Phase_8,3,5,63,98,1759837508
50,17,15,Jits_Phase_8,0,1,48,69,1760478108
50,17,15,Jits_Phase_8,1,5,80,127,1760617924
50,17,15,Jits_Phase_8,2,5,56,103,1760628044
50,17,15,Jits_Phase_8,3,5,63,98,1760631332
50,17,15,Jits_Phase_8,0,1,48,57,1761238300
50,17,15,Jits_Phase_8,1,5,56,103,1761377592
50,17,15,Jits_Phase_8,2,5,80,127,1761387860
50,17,15,Jits_Phase_8,3,5,63,98,1761408420
50,17,15,Jits_Phase_8,0,1,48,78,1762010332
50,17,15,Jits_Phase_8,1,5,63,98,1762147680
50,17,15,Jits_Phase_8,2,5,80,127,1762208172
50,17,15,Jits_Phase_8,3,5,56,103,1762258220
50,17,15,Jits_Phase_8,0,1,48,70,1762819976
50,17,15,Jits_Phase_8,1,5,63,98,1763028228
50,17,15,Jits_Phase_8,2,5,56,103,1763037452
50,17,15,Jits_Phase_8,3,5,80,127,1763087724
50,17,15,Jits_Phase_8,0,5,63,98,1763727616
50,17,15,Jits_Phase_8,1,1,48,64,1763746176
50,17,15,Jits_Phase_8,2,5,80,127,1763748144
50,17,15,Jits_Phase_8,3,5,56,103,1763757292
50,17,15,Jits_Phase_8,0,5,63,98,1764527436
50,17,15,Jits_Phase_8,1,5,80,127,1764530800
50,17,15,Jits_Phase_8,2,1,48,53,1764553776
50,17,15,Jits_Phase_8,3,5,56,103,1764568488
50,17,15,Jits_Phase_8,0,1,48,81,1765370816
50,17,15,Jits_Phase_8,1,5,63,98,1765398044
50,17,15,Jits_Phase_8,2,5,80,127,1765427572
50,17,15,Jits_Phase_8,3,5,56,103,1765437992
50,17,15,Jits_Phase_8,0,1,48,62,1766114312
50,17,15,Jits_Phase_8,1,5,56,103,1766147460
50,17,15,Jits_Phase_8,2,5,80,127,1766178184
50,17,15,Jits_Phase_8,3,5,63,98,1766207936
50,17,15,Jits_Phase_8,0,1,48,78,1766883796
50,17,15,Jits_Phase_8,1,5,63,98,1767047472
50,17,15,Jits_Phase_8,2,5,56,103,1767087408
50,17,15,Jits_Phase_8,3,5,80,127,1767090400
50,17,15,Jits_Phase_8,0,1,48,68,1767721544
50,17,15,Jits_Phase_8,1,5,80,127,1767748244
50,17,15,Jits_Phase_8,2,5,56,103,1767827904
50,17,15,Jits_Phase_8,3,5,63,98,1767877952
50,17,15,Jits_Phase_8,0,1,48,70,1768483684
50,17,15,Jits_Phase_8,1,5,80,127,1768528296
50,17,15,Jits_Phase_8,2,5,56,103,1768547932
50,17,15,Jits_Phase_8,3,5,63,98,1768637928
50,17,15,Jits_Phase_8,0,1,48,71,1769245452
50,17,15,Jits_Phase_8,1,5,80,127,1769368144
50,17,15,Jits_Phase_8,2,5,63,98,1769407864
50,17,15,Jits_Phase_8,3,5,56,103,1769447876
50,17,15,Jits_Phase_8,0,1,48,62,1770110208
50,17,15,Jits_Phase_8,1,5,63,98,1770178036
50,17,15,Jits_Phase_8,2,5,80,127,1770238268
50,17,15,Jits_Phase_8,3,5,56,103,1770267940
50,17,15,Jits_Phase_8,0,1,48,58,1770862052
50,17,15,Jits_Phase_8,1,5,56,103,1771017484
50,17,15,Jits_Phase_8,2,5,80,127,1771048280
50,17,15,Jits_Phase_8,3,5,63,98,1771138364
50,17,15,Jits_Phase_8,0,1,48,69,1771709412
50,17,15,Jits_Phase_8,1,5,56,103,1771827508
50,17,15,Jits_Phase_8,2,5,80,127,1771938192
50,17,15,Jits_Phase_8,3,5,63,98,1771967940
50,17,15,Jits_Phase_8,0,1,48,74,1772547912
50,17,15,Jits_Phase_8,1,5,56,103,1772677416
50,17,15,Jits_Phase_8,2,5,63,98,1772738032
50,17,15,Jits_Phase_8,3,5,80,127,1772767560
50,17,15,Jits_Phase_8,0,1,48,67,1773345268
50,17,15,Jits_Phase_8,1,5,56,103,1773447588
50,17,15,Jits_Phase_8,2,5,63,98,1773518164
50,17,15,Jits_Phase_8,3,5,80,127,1773537800
50,17,15,Jits_Phase_8,0,1,48,68,1774175144
50,17,15,Jits_Phase_8,1,5,80,127,1774217692
50,17,15,Jits_Phase_8,2,5,63,98,1774237928
50,17,15,Jits_Phase_8,3,5,56,103,1774288112
50,17,15,Jits_Phase_8,0,1,48,61,1774976364
50,17,15,Jits_Phase_8,1,5,63,98,1775037748
50,17,15,Jits_Phase_8,2,5,80,127,1775048020
50,17,15,Jits_Phase_8,3,5,56,103,1775098204
50,17,15,Jits_Phase_8,0,1,48,68,1775719368
50,17,15,Jits_Phase_8,1,5,63,98,1775837560
50,17,15,Jits_Phase_8,2,5,80,127,1775908064
50,17,15,Jits_Phase_8,3,5,56,103,1775927848
50,17,15,Jits_Phase_8,0,1,48,58,1776519676
50,17,15,Jits_Phase_8,1,5,63,98,1776667960
50,17,15,Jits_Phase_8,2,5,80,127,1776671248
50,17,15,Jits_Phase_8,3,5,56,103,1776737860
50,17,15,Jits_Phase_8,0,1,48,62,1777321372
50,17,15,Jits_Phase_8,1,5,80,127,1777417960
50,17,15,Jits_Phase_8,2,5,56,103,1777437972
50,17,15,Jits_Phase_8,3,5,63,98,1777448244
50,17,15,Jits_Phase_8,0,1,48,59,1778132880
50,17,15,Jits_Phase_8,1,5,56,103,1778237720
50,17,15,Jits_Phase_8,2,5,63,98,1778328024
50,17,15,Jits_Phase_8,3,5,80,127,1778331312
50,17,15,Jits_Phase_8,0,1,48,70,1778876456
50,17,15,Jits_Phase_8,1,5,80,127,1779007944
50,17,15,Jits_Phase_8,2,5,56,103,1779018216
50,17,15,Jits_Phase_8,3,5,63,98,1779037404
50,17,15,Jits_Phase_8,0,1,48,65,1779761528
50,17,15,Jits_Phase_8,1,5,63,98,1779807784
50,17,15,Jits_Phase_8,2,5,80,127,1779868112
50,17,15,Jits_Phase_8,3,5,56,103,1779878232
50,17,15,Jits_Phase_8,0,1,48,68,1780581056
50,17,15,Jits_Phase_8,1,5,63,98,1780677900
50,17,15,Jits_Phase_8,2,5,80,127,1780707724
50,17,15,Jits_Phase_8,3,5,56,103,1780747884
50,17,15,Jits_Phase_8,0,1,48,70,1781382196
50,17,15,Jits_Phase_8,1,5,56,103,1781467636
50,17,15,Jits_Phase_8,2,5,80,127,1781477668
50,17,15,Jits_Phase_8,3,5,63,98,1781517904
50,17,15,Jits_Phase_8,0,1,48,73,1782162248
50,17,15,Jits_Phase_8,1,5,80,127,1782228288
50,17,15,Jits_Phase_8,2,5,56,103,1782308144
50,17,15,Jits_Phase_8,3,5,63,98,1782317816
50,17,15,Jits_Phase_8,0,1,48,63,1783030792
50,17,15,Jits_Phase_8,1,5,80,127,1783078168
50,17,15,Jits_Phase_8,2,5,56,103,1783158176
50,17,15,Jits_Phase_8,3,5,63,98,1783168396
50,17,15,Jits_Phase_8,0,1,48,54,1783915984
50,17,15,Jits_Phase_8,1,5,80,127,1783917872
50,17,15,Jits_Phase_8,2,5,56,103,1783968172
50,17,15,Jits_Phase_8,3,5,63,98,1784018208
50,17,15,Jits_Phase_8,0,1,48,54,1784696716
50,17,15,Jits_Phase_8,1,5,56,103,1784857956
50,17,15,Jits_Phase_8,2,5,63,98,1784861096
50,17,15,Jits_Phase_8,3,5,80,127,1784908156
50,17,15,Jits_Phase_8,0,1,48,79,1785562840
50,17,15,Jits_Phase_8,1,5,56,103,1785678164
50,17,15,Jits_Phase_8,2,5,63,98,1785707912
50,17,15,Jits_Phase_8,3,5,80,127,1785718036
50,17,15,Jits_Phase_8,0,5,63,98,1786387820
50,17,15,Jits_Phase_8,1,1,48,78,1786402768
50,17,15,Jits_Phase_8,2,5,56,103,1786457716
50,17,15,Jits_Phase_8,3,5,80,127,1786507780
50,17,15,Jits_Phase_8,0,5,63,98,1787218220
50,17,15,Jits_Phase_8,1,5,56,103,1787227516
50,17,15,Jits_Phase_8,2,5,80,127,1787230584
50,17,15,Jits_Phase_8,3,1,48,61,1787273656
50,17,15,Jits_Phase_8,0,5,80,127,1787967840
50,17,15,Jits_Phase_8,1,5,56,103,1788028404
50,17,15,Jits_Phase_8,2,1,48,60,1788054144
50,17,15,Jits_Phase_8,3,5,63,98,1788118528
50,17,15,Jits_Phase_8,0,5,80,127,1788767760
50,17,15,Jits_Phase_8,1,1,48,69,1788841552
50,17,15,Jits_Phase_8,2,5,56,103,1788867952
50,17,15,Jits_Phase_8,3,5,63,98,1788907816
50,17,15,Jits_Phase_8,0,1,48,72,1789612628
50,17,15,Jits_Phase_8,1,5,56,103,1789617604
50,17,15,Jits_Phase_8,2,5,63,98,1789637988
50,17,15,Jits_Phase_8,3,5,80,127,1789677928
50,17,15,Jits_Phase_8,0,1,48,67,1790322904
50,17,15,Jits_Phase_8,1,5,63,98,1790387692
50,17,15,Jits_Phase_8,2,5,56,103,1790408004
50,17,15,Jits_Phase_8,3,5,80,127,1790508528
50,17,15,Jits_Phase_8,0,1,48,69,1791118500
50,17,15,Jits_Phase_8,1,5,63,98,1791178084
50,17,15,Jits_Phase_8,2,5,80,127,1791287608
50,17,15,Jits_Phase_8,3,5,56,103,1791318404
50,17,15,Jits_Phase_8,0,1,48,70,1791898176
50,17,15,Jits_Phase_8,1,5,56,103,1791998504
50,17,15,Jits_Phase_8,2,5,63,98,1792027884
50,17,15,Jits_Phase_8,3,5,80,127,1792078084
50,17,15,Jits_Phase_8,0,5,63,98,1792768468
50,17,15,Jits_Phase_8,1,5,56,103,1792798144
50,17,15,Jits_Phase_8,2,1,48,67,1792808828
50,17,15,Jits_Phase_8,3,5,80,127,1792848188
50,17,15,Jits_Phase_8,0,5,56,103,1793597740
50,17,15,Jits_Phase_8,1,1,48,71,1793599300
50,17,15,Jits_Phase_8,2,5,63,98,1793618564
50,17,15,Jits_Phase_8,3,5,80,127,1793698368
50,17,15,Jits_Phase_8,0,1,48,64,1794358668
50,17,15,Jits_Phase_8,1,5,63,98,1794367908
50,17,15,Jits_Phase_8,2,5,56,103,1794428548
50,17,15,Jits_Phase_8,3,5,80,127,1794457908
50,17,15,Jits_Phase_8,0,1,48,46,1795122148
50,17,15,Jits_Phase_8,1,5,56,103,1795207544
50,17,15,Jits_Phase_8,2,5,80,127,1795267920
50,17,15,Jits_Phase_8,3,5,63,98,1795307860
50,17,15,Jits_Phase_8,0,1,48,57,1795834696
50,17,15,Jits_Phase_8,1,5,63,98,1795987960
50,17,15,Jits_Phase_8,2,5,56,103,1796048500
50,17,15,Jits_Phase_8,3,5,80,127,1796117956
50,17,15,Jits_Phase_8,0,1,48,38,1796773612
50,17,15,Jits_Phase_8,1,5,56,103,1796867380
50,17,15,Jits_Phase_8,2,5,63,98,1796877708
50,17,15,Jits_Phase_8,3,5,80,127,1796881368
50,17,15,Jits_Phase_8,0,1,48,64,1797563324
50,17,15,Jits_Phase_8,1,5,63,98,1797607792
50,17,15,Jits_Phase_8,2,5,56,103,1797668316
50,17,15,Jits_Phase_8,3,5,80,127,1797671380
50,17,15,Jits_Phase_8,0,1,48,58,1798347956
50,17,15,Jits_Phase_8,1,5,63,98,1798388208
50,17,15,Jits_Phase_8,2,5,80,127,1798417884
50,17,15,Jits_Phase_8,3,5,56,103,1798438416
50,17,15,Jits_Phase_8,0,5,56,103,1799118444
50,17,15,Jits_Phase_8,1,5,63,98,1799168276
50,17,15,Jits_Phase_8,2,5,80,127,1799248440
50,17,15,Jits_Phase_8,3,1,48,59,1799254548
50,17,15,Jits_Phase_8,0,5,80,127,1799817536
50,17,15,Jits_Phase_8,1,5,63,98,1799857476
50,17,15,Jits_Phase_8,2,5,56,103,1799877860
50,17,15,Jits_Phase_8,3,1,48,65,1799895296
50,17,15,Jits_Phase_8,0,1,48,64,1800555192
50,17,15,Jits_Phase_8,1,5,56,103,1800688080
50,17,15,Jits_Phase_8,2,5,80,127,1800698576
50,17,15,Jits_Phase_8,3,5,63,98,1800717616
50,17,15,Jits_Phase_8,0,1,48,65,1801436140
50,17,15,Jits_Phase_8,1,5,56,103,1801468304
50,17,15,Jits_Phase_8,2,5,63,98,1801517384
50,17,15,Jits_Phase_8,3,5,80,127,1801548240
50,17,15,Jits_Phase_8,0,5,56,103,1802218248
50,17,15,Jits_Phase_8,1,5,63,98,1802228220
50,17,15,Jits_Phase_8,2,5,80,127,1802278196
50,17,15,Jits_Phase_8,3,1,48,71,1802290828
50,17,15,Jits_Phase_8,0,5,56,103,1803008424
50,17,15,Jits_Phase_8,1,5,80,127,1803011492
50,17,15,Jits_Phase_8,2,1,48,68,1803076352
50,17,15,Jits_Phase_8,3,5,63,98,1803168168
50,17,15,Jits_Phase_8,0,1,48,68,1803801928
50,17,15,Jits_Phase_8,1,5,63,98,1803827512
50,17,15,Jits_Phase_8,2,5,56,103,1803898172
50,17,15,Jits_Phase_8,3,5,80,127,1803938336
50,17,15,Jits_Phase_8,0,1,48,62,1804573060
50,17,15,Jits_Phase_8,1,5,63,98,1804668256
50,17,15,Jits_Phase_8,2,5,56,103,1804758312
50,17,15,Jits_Phase_8,3,5,80,127,1804761528
50,17,15,Jits_Phase_8,0,5,56,103,1805447504
50,17,15,Jits_Phase_8,1,1,48,74,1805485468
50,17,15,Jits_Phase_8,2,5,63,98,1805537632
50,17,15,Jits_Phase_8,3,5,80,127,1805548052
50,17,15,Jits_Phase_8,0,5,56,103,1806217536
50,17,15,Jits_Phase_8,1,5,63,98,1806267812
50,17,15,Jits_Phase_8,2,5,80,127,1806297488
50,17,15,Jits_Phase_8,3,1,48,57,1806385176
50,17,15,Jits_Phase_8,0,5,63,98,1807098144
50,17,15,Jits_Phase_8,1,5,80,127,1807107296
50,17,15,Jits_Phase_8,2,1,48,56,1807136864
50,17,15,Jits_Phase_8,3,5,56,103,1807167824
50,17,15,Jits_Phase_8,0,5,63,98,1807818264
50,17,15,Jits_Phase_8,1,5,80,127,1807877536
50,17,15,Jits_Phase_8,2,1,48,65,1807878576
50,17,15,Jits_Phase_8,3,5,56,103,1807917392
50,17,15,Jits_Phase_8,0,1,48,67,1808672224
50,17,15,Jits_Phase_8,1,5,56,103,1808718112
50,17,15,Jits_Phase_8,2,5,80,127,1808737672
50,17,15,Jits_Phase_8,3,5,63,98,1808758304
50,17,15,Jits_Phase_8,0,5,63,98,1809438236
50,17,15,Jits_Phase_8,1,5,56,103,1809457428
50,17,15,Jits_Phase_8,2,5,80,127,1809497664
50,17,15,Jits_Phase_8,3,1,48,58,1809502200
50,17,15,Jits_Phase_8,0,1,48,58,1810214952
50,17,15,Jits_Phase_8,1,5,63,98,1810248100
50,17,15,Jits_Phase_8,2,5,80,127,1810277628
50,17,15,Jits_Phase_8,3,5,56,103,1810298332
50,17,15,Jits_Phase_8,0,1,48,51,1810973420
50,17,15,Jits_Phase_8,1,5,80,127,1811018260
50,17,15,Jits_Phase_8,2,5,56,103,1811068264
50,17,15,Jits_Phase_8,3,5,63,98,1811127664
50,17,15,Jits_Phase_8,0,5,63,98,1811807460
50,17,15,Jits_Phase_8,1,1,48,59,1811831652
50,17,15,Jits_Phase_8,2,5,56,103,1811928388
50,17,15,Jits_Phase_8,3,5,80,127,1811958212
50,17,15,Jits_Phase_8,0,1,48,62,1812574440
50,17,15,Jits_Phase_8,1,5,80,127,1812648376
50,17,15,Jits_Phase_8,2,5,63,98,1812667772
50,17,15,Jits_Phase_8,3,5,56,103,1812738348
50,17,15,Jits_Phase_8,0,1,48,55,1813411536
50,17,15,Jits_Phase_8,1,5,63,98,1813467536
50,17,15,Jits_Phase_8,2,5,56,103,1813477732
50,17,15,Jits_Phase_8,3,5,80,127,1813557584
50,17,15,Jits_Phase_8,0,1,48,57,1814225080
50,17,15,Jits_Phase_8,1,5,56,103,1814327596
50,17,15,Jits_Phase_8,2,5,80,127,1814358316
50,17,15,Jits_Phase_8,3,5,63,98,1814367468
50,17,15,Jits_Phase_8,0,9999,9999,9999,1679475816
50,17,15,Jits_Phase_8,1,9999,9999,9999,1680275560
50,17,15,Jits_Phase_8,2,9999,9999,9999,1681075292
50,17,15,Jits_Phase_8,3,9999,9999,9999,1681876052
50,17,15,Jits_Phase_8,4,9999,9999,9999,1682675816
50,17,15,Jits_Phase_8,5,9999,9999,9999,1683475576
50,17,15,Jits_Phase_8,6,9999,9999,9999,1684275256
50,17,15,Jits_Phase_8,7,9999,9999,9999,1685076080
50,17,15,Jits_Phase_8,8,9999,9999,9999,1685875800
50,17,15,Jits_Phase_8,9,9999,9999,9999,1686675564
50,17,15,Jits_Phase_8,10,9999,9999,9999,1687475268
50,17,15,Jits_Phase_8,11,9999,9999,9999,1688276072
50,17,15,Jits_Phase_8,12,9999,9999,9999,1689075832
50,17,15,Jits_Phase_8,13,9999,9999,9999,1689875560
50,17,15,Jits_Phase_8,14,9999,9999,9999,1690675304
50,17,15,Jits_Phase_8,15,9999,9999,9999,1691476036
50,17,15,Jits_Phase_8,16,9999,9999,9999,1692275776
50,17,15,Jits_Phase_8,17,9999,9999,9999,1693075568
50,17,15,Jits_Phase_8,18,9999,9999,9999,1693875256
50,17,15,Jits_Phase_8,19,9999,9999,9999,1694676028
50,17,15,Jits_Phase_8,20,9999,9999,9999,1695475836
50,17,15,Jits_Phase_8,21,9999,9999,9999,1696275520
50,17,15,Jits_Phase_8,22,9999,9999,9999,1697075280
50,17,15,Jits_Phase_8,23,9999,9999,9999,1697876080
50,17,15,Jits_Phase_8,24,9999,9999,9999,1698675836
50,17,15,Jits_Phase_8,25,9999,9999,9999,1699475536
50,17,15,Jits_Phase_8,26,9999,9999,9999,1700275312
50,17,15,Jits_Phase_8,27,9999,9999,9999,1701076044
50,17,15,Jits_Phase_8,28,9999,9999,9999,1701875800
50,17,15,Jits_Phase_8,29,9999,9999,9999,1702675564
50,17,15,Jits_Phase_8,30,9999,9999,9999,1703455836
50,17,15,Jits_Phase_8,31,9999,9999,9999,1704255596
50,17,15,Jits_Phase_8,32,9999,9999,9999,1705055292
50,17,15,Jits_Phase_8,33,9999,9999,9999,1705856116
50,17,15,Jits_Phase_8,34,9999,9999,9999,1706666076
50,17,15,Jits_Phase_8,35,9999,9999,9999,1707465840
50,17,15,Jits_Phase_8,36,9999,9999,9999,1708265532
50,17,15,Jits_Phase_8,37,9999,9999,9999,1709065288
50,17,15,Jits_Phase_8,38,9999,9999,9999,1709866104
50,17,15,Jits_Phase_8,39,9999,9999,9999,1710665788
50,17,15,Jits_Phase_8,40,9999,9999,9999,1711465548
50,17,15,Jits_Phase_8,41,9999,9999,9999,1712265328
50,17,15,Jits_Phase_8,42,9999,9999,9999,1713066056
50,17,15,Jits_Phase_8,43,9999,9999,9999,1713865804
50,17,15,Jits_Phase_8,44,9999,9999,9999,1714665548
50,17,15,Jits_Phase_8,45,9999,9999,9999,1715465308
50,17,15,Jits_Phase_8,46,9999,9999,9999,1716266040
50,17,15,Jits_Phase_8,47,9999,9999,9999,1717065788
50,17,15,Jits_Phase_8,48,9999,9999,9999,1717886052
50,17,15,Jits_Phase_8,49,9999,9999,9999,1718685780
50,17,15,Jits_Phase_8,50,9999,9999,9999,1719485536
50,17,15,Jits_Phase_8,51,9999,9999,9999,1720285248
50,17,15,Jits_Phase_8,52,9999,9999,9999,1721086056
50,17,15,Jits_Phase_8,53,9999,9999,9999,1721885760
50,17,15,Jits_Phase_8,54,9999,9999,9999,1722685520
50,17,15,Jits_Phase_8,55,9999,9999,9999,1723485280
50,17,15,Jits_Phase_8,56,9999,9999,9999,1724286008
50,17,15,Jits_Phase_8,57,9999,9999,9999,1725085764
50,17,15,Jits_Phase_8,58,9999,9999,9999,1725885520
50,17,15,Jits_Phase_8,59,9999,9999,9999,1726685276
50,17,15,Jits_Phase_8,60,9999,9999,9999,1727486044
50,17,15,Jits_Phase_8,61,9999,9999,9999,1728285752
50,17,15,Jits_Phase_8,62,9999,9999,9999,1729085556
50,17,15,Jits_Phase_8,63,9999,9999,9999,1729885308
50,17,15,Jits_Phase_8,64,9999,9999,9999,1730726004
50,17,15,Jits_Phase_8,65,9999,9999,9999,1731525692
50,17,15,Jits_Phase_8,66,9999,9999,9999,1732325452
50,17,15,Jits_Phase_8,67,9999,9999,9999,1733125216
50,17,15,Jits_Phase_8,68,9999,9999,9999,1733926008
50,17,15,Jits_Phase_8,69,9999,9999,9999,1734725704
50,17,15,Jits_Phase_8,70,9999,9999,9999,1735525436
50,17,15,Jits_Phase_8,71,9999,9999,9999,1736325208
50,17,15,Jits_Phase_8,72,9999,9999,9999,1737126008
50,17,15,Jits_Phase_8,73,9999,9999,9999,1737925708
50,17,15,Jits_Phase_8,74,9999,9999,9999,1738725488
50,17,15,Jits_Phase_8,75,9999,9999,9999,1739525224
50,17,15,Jits_Phase_8,76,9999,9999,9999,1740325964
50,17,15,Jits_Phase_8,77,9999,9999,9999,1741125740
50,17,15,Jits_Phase_8,78,9999,9999,9999,1741925504
50,17,15,Jits_Phase_8,79,9999,9999,9999,1742725212
50,17,15,Jits_Phase_8,80,9999,9999,9999,1743525944
50,17,15,Jits_Phase_8,81,9999,9999,9999,1744285772
50,17,15,Jits_Phase_8,82,9999,9999,9999,1745085528
50,17,15,Jits_Phase_8,83,9999,9999,9999,1745885288
50,17,15,Jits_Phase_8,84,9999,9999,9999,1746686012
50,17,15,Jits_Phase_8,85,9999,9999,9999,1747485784
50,17,15,Jits_Phase_8,86,9999,9999,9999,1748285548
50,17,15,Jits_Phase_8,87,9999,9999,9999,1749085300
50,17,15,Jits_Phase_8,88,9999,9999,9999,1749886052
50,17,15,Jits_Phase_8,89,9999,9999,9999,1750685816
50,17,15,Jits_Phase_8,90,9999,9999,9999,1751485508
50,17,15,Jits_Phase_8,91,9999,9999,9999,1752285268
50,17,15,Jits_Phase_8,92,9999,9999,9999,1753086076
50,17,15,Jits_Phase_8,93,9999,9999,9999,1753885756
50,17,15,Jits_Phase_8,94,9999,9999,9999,1754685516
50,17,15,Jits_Phase_8,95,9999,9999,9999,1755485268
50,17,15,Jits_Phase_8,96,9999,9999,9999,1756286020
50,17,15,Jits_Phase_8,97,9999,9999,9999,1757005892
50,17,15,Jits_Phase_8,98,9999,9999,9999,1757805672
50,17,15,Jits_Phase_8,99,9999,9999,9999,1758605384
50,17,15,Jits_Phase_8,100,9999,9999,9999,1759405132
50,17,15,Jits_Phase_8,101,9999,9999,9999,1760205940
50,17,15,Jits_Phase_8,102,9999,9999,9999,1761005688
50,17,15,Jits_Phase_8,103,9999,9999,9999,1761805372
50,17,15,Jits_Phase_8,104,9999,9999,9999,1762605132
50,17,15,Jits_Phase_8,105,9999,9999,9999,1763405940
50,17,15,Jits_Phase_8,106,9999,9999,9999,1764205688
50,17,15,Jits_Phase_8,107,9999,9999,9999,1765005376
50,17,15,Jits_Phase_8,108,9999,9999,9999,1765805140
50,17,15,Jits_Phase_8,109,9999,9999,9999,1766605940
50,17,15,Jits_Phase_8,110,9999,9999,9999,1767405624
50,17,15,Jits_Phase_8,111,9999,9999,9999,1768205384
50,17,15,Jits_Phase_8,112,9999,9999,9999,1769005140
50,17,15,Jits_Phase_8,113,9999,9999,9999,1769805944
50,17,15,Jits_Phase_8,114,9999,9999,9999,1770685516
50,17,15,Jits_Phase_8,115,9999,9999,9999,1771485272
50,17,15,Jits_Phase_8,116,9999,9999,9999,1772286008
50,17,15,Jits_Phase_8,117,9999,9999,9999,1773085772
50,17,15,Jits_Phase_8,118,9999,9999,9999,1773885532
50,17,15,Jits_Phase_8,119,9999,9999,9999,1774685284
50,17,15,Jits_Phase_8,120,9999,9999,9999,1775486036
50,17,15,Jits_Phase_8,121,9999,9999,9999,1776285796
50,17,15,Jits_Phase_8,122,9999,9999,9999,1777085544
50,17,15,Jits_Phase_8,123,9999,9999,9999,1777885296
50,17,15,Jits_Phase_8,124,9999,9999,9999,1778686020
50,17,15,Jits_Phase_8,125,9999,9999,9999,1779485764
50,17,15,Jits_Phase_8,126,9999,9999,9999,1780285520
50,17,15,Jits_Phase_8,127,9999,9999,9999,1781085280
50,17,15,Jits_Phase_8,128,9999,9999,9999,1781886040
50,17,15,Jits_Phase_8,129,9999,9999,9999,1782685800
50,17,15,Jits_Phase_8,130,9999,9999,9999,1783485564
50,17,15,Jits_Phase_8,131,9999,9999,9999,1784446044
50,17,15,Jits_Phase_8,132,9999,9999,9999,1785245800
50,17,15,Jits_Phase_8,133,9999,9999,9999,1786045564
50,17,15,Jits_Phase_8,134,9999,9999,9999,1786845248
50,17,15,Jits_Phase_8,135,9999,9999,9999,1787646040
50,17,15,Jits_Phase_8,136,9999,9999,9999,1788445796
50,17,15,Jits_Phase_8,137,9999,9999,9999,1789245496
50,17,15,Jits_Phase_8,138,9999,9999,9999,1790045268
50,17,15,Jits_Phase_8,139,9999,9999,9999,1790846024
50,17,15,Jits_Phase_8,140,9999,9999,9999,1791645784
50,17,15,Jits_Phase_8,141,9999,9999,9999,1792445544
50,17,15,Jits_Phase_8,142,9999,9999,9999,1793245296
50,17,15,Jits_Phase_8,143,9999,9999,9999,1794046024
50,17,15,Jits_Phase_8,144,9999,9999,9999,1794845792
50,17,15,Jits_Phase_8,145,9999,9999,9999,1795645552
50,17,15,Jits_Phase_8,146,9999,9999,9999,1796445312
50,17,15,Jits_Phase_8,147,9999,9999,9999,1797246064
50,17,15,Jits_Phase_8,148,9999,9999,9999,1798045812
50,17,15,Jits_Phase_8,149,9999,9999,9999,1798845564
50,17,15,Jits_Phase_8,150,9999,9999,9999,1799485504
50,17,15,Jits_Phase_8,151,9999,9999,9999,1800285272
50,17,15,Jits_Phase_8,152,9999,9999,9999,1801086048
50,17,15,Jits_Phase_8,153,9999,9999,9999,1801885808
50,17,15,Jits_Phase_8,154,9999,9999,9999,1802685564
50,17,15,Jits_Phase_8,155,9999,9999,9999,1803485248
50,17,15,Jits_Phase_8,156,9999,9999,9999,1804286068
50,17,15,Jits_Phase_8,157,9999,9999,9999,1805085816
50,17,15,Jits_Phase_8,158,9999,9999,9999,1805885504
50,17,15,Jits_Phase_8,159,9999,9999,9999,1806685276
50,17,15,Jits_Phase_8,160,9999,9999,9999,1807486048
50,17,15,Jits_Phase_8,161,9999,9999,9999,1808285804
50,17,15,Jits_Phase_8,162,9999,9999,9999,1809085496
50,17,15,Jits_Phase_8,163,9999,9999,9999,1809885252
50,17,15,Jits_Phase_8,164,9999,9999,9999,1810686052
50,17,15,Jits_Phase_8,165,9999,9999,9999,1811485808
50,17,15,Jits_Phase_8,166,9999,9999,9999,1812285496
50,17,15,Jits_Phase_8,167,9999,9999,9999,1813085256
50,17,15,Jits_Phase_8,168,9999,9999,9999,1813886012
50,17,15,Jits_Phase_8,169,9999,9999,9999,1814685780
50,18,19,Jits_Linear_5,0,5,56,103,1823302000
50,18,19,Jits_Linear_5,1,5,63,98,1823304948
50,18,19,Jits_Linear_5,2,5,80,127,1823308144
50,18,19,Jits_Linear_5,0,5,56,103,1823782228
50,18,19,Jits_Linear_5,1,5,63,98,1823785484
50,18,19,Jits_Linear_5,2,5,80,127,1823788528
50,18,19,Jits_Linear_5,3,1,48,57,1823990068
50,18,19,Jits_Linear_5,0,5,56,103,1824261484
50,18,19,Jits_Linear_5,1,5,80,127,1824271980
50,18,19,Jits_Linear_5,2,5,63,98,1824292216
50,18,19,Jits_Linear_5,0,5,63,98,1824691768
50,18,19,Jits_Linear_5,1,5,80,127,1824722340
50,18,19,Jits_Linear_5,2,1,48,73,1824725016
50,18,19,Jits_Linear_5,3,5,56,103,1824731632
50,18,19,Jits_Linear_5,0,1,48,70,1825229468
50,18,19,Jits_Linear_5,1,5,80,127,1825232200
50,18,19,Jits_Linear_5,2,5,56,103,1825241352
50,18,19,Jits_Linear_5,3,5,63,98,1825272372
50,18,19,Jits_Linear_5,0,5,63,98,1825711748
50,18,19,Jits_Linear_5,1,1,48,65,1825739060
50,18,19,Jits_Linear_5,2,5,56,103,1825742168
50,18,19,Jits_Linear_5,3,5,80,127,1825752440
50,18,19,Jits_Linear_5,0,5,56,103,1826151776
50,18,19,Jits_Linear_5,1,1,48,60,1826200188
50,18,19,Jits_Linear_5,2,5,63,98,1826201924
50,18,19,Jits_Linear_5,3,5,80,127,1826221488
50,18,19,Jits_Linear_5,0,5,80,127,1826642412
50,18,19,Jits_Linear_5,1,1,48,62,1826651828
50,18,19,Jits_Linear_5,2,5,63,98,1826691364
50,18,19,Jits_Linear_5,3,5,56,103,1826732352
50,18,19,Jits_Linear_5,0,5,56,103,1827131920
50,18,19,Jits_Linear_5,1,1,48,67,1827144404
50,18,19,Jits_Linear_5,2,1,38,17,1827154352
50,18,19,Jits_Linear_5,3,5,63,98,1827161496
50,18,19,Jits_Linear_5,4,5,80,127,1827232176
50,18,19,Jits_Linear_5,0,5,56,103,1827622356
50,18,19,Jits_Linear_5,1,5,80,127,1827681628
50,18,19,Jits_Linear_5,2,1,48,70,1827695308
50,18,19,Jits_Linear_5,3,5,63,98,1827712516
50,18,19,Jits_Linear_5,0,5,56,103,1828121916
50,18,19,Jits_Linear_5,1,5,63,98,1828132112
50,18,19,Jits_Linear_5,2,1,48,74,1828153964
50,18,19,Jits_Linear_5,3,1,38,18,1828163836
50,18,19,Jits_Linear_5,4,5,80,127,1828172100
50,18,19,Jits_Linear_5,0,5,63,98,1828611300
50,18,19,Jits_Linear_5,1,1,48,67,1828635096
50,18,19,Jits_Linear_5,2,5,80,127,1828692288
50,18,19,Jits_Linear_5,3,5,56,103,1828701736
50,18,19,Jits_Linear_5,0,1,48,52,1829151340
50,18,19,Jits_Linear_5,1,5,63,98,1829162376
50,18,19,Jits_Linear_5,2,5,56,103,1829202316
50,18,19,Jits_Linear_5,3,5,80,127,1829205308
50,18,19,Jits_Linear_5,0,1,48,68,1829614528
50,18,19,Jits_Linear_5,1,5,56,103,1829622200
50,18,19,Jits_Linear_5,2,1,38,17,1829624792
50,18,19,Jits_Linear_5,3,5,63,98,1829632316
50,18,19,Jits_Linear_5,4,5,80,127,1829672256
50,18,19,Jits_Linear_5,0,1,48,71,1830072068
50,18,19,Jits_Linear_5,1,1,38,17,1830081944
50,18,19,Jits_Linear_5,2,5,56,103,1830111564
50,18,19,Jits_Linear_5,3,5,63,98,1830114776
50,18,19,Jits_Linear_5,4,5,80,127,1830132096
50,18,19,Jits_Linear_5,0,1,48,62,1830540456
50,18,19,Jits_Linear_5,1,5,80,127,1830631660
50,18,19,Jits_Linear_5,2,5,56,103,1830641992
50,18,19,Jits_Linear_5,3,5,63,98,1830711896
50,18,19,Jits_Linear_5,0,1,48,60,1831014708
50,18,19,Jits_Linear_5,1,5,63,98,1831131628
50,18,19,Jits_Linear_5,2,5,56,103,1831151940
50,18,19,Jits_Linear_5,3,5,80,127,1831231812
50,18,19,Jits_Linear_5,0,1,48,63,1831626504
50,18,19,Jits_Linear_5,1,1,38,16,1831636376
50,18,19,Jits_Linear_5,2,5,56,103,1831651916
50,18,19,Jits_Linear_5,3,5,80,127,1831691632
50,18,19,Jits_Linear_5,4,5,63,98,1831701980
50,18,19,Jits_Linear_5,0,1,48,68,1832129060
50,18,19,Jits_Linear_5,1,1,38,17,1832138932
50,18,19,Jits_Linear_5,2,5,80,127,1832152524
50,18,19,Jits_Linear_5,3,5,63,98,1832182200
50,18,19,Jits_Linear_5,4,5,56,103,1832221992
50,18,19,Jits_Linear_5,0,1,48,73,1832665036
50,18,19,Jits_Linear_5,1,1,38,18,1832674464
50,18,19,Jits_Linear_5,2,5,56,103,1832681832
50,18,19,Jits_Linear_5,3,5,63,98,1832711808
50,18,19,Jits_Linear_5,4,5,80,127,1832761696
50,18,19,Jits_Linear_5,0,1,48,72,1833193692
50,18,19,Jits_Linear_5,1,5,80,127,1833201956
50,18,19,Jits_Linear_5,2,1,38,18,1833203896
50,18,19,Jits_Linear_5,3,5,56,103,1833241888
50,18,19,Jits_Linear_5,4,5,63,98,1833252160
50,18,19,Jits_Linear_5,0,5,80,127,1833701684
50,18,19,Jits_Linear_5,1,1,48,72,1833724436
50,18,19,Jits_Linear_5,2,5,63,98,1833741544
50,18,19,Jits_Linear_5,3,5,56,103,1833802084
50,18,19,Jits_Linear_5,0,5,56,103,1834222064
50,18,19,Jits_Linear_5,1,5,80,127,1834232112
50,18,19,Jits_Linear_5,2,1,48,66,1834255388
50,18,19,Jits_Linear_5,3,1,38,17,1834265028
50,18,19,Jits_Linear_5,4,5,63,98,1834312328
50,18,19,Jits_Linear_5,0,5,80,127,1834742032
50,18,19,Jits_Linear_5,1,1,48,65,1834776388
50,18,19,Jits_Linear_5,2,1,38,16,1834786260
50,18,19,Jits_Linear_5,3,5,63,98,1834801576
50,18,19,Jits_Linear_5,4,5,56,103,1834832296
50,18,19,Jits_Linear_5,0,5,56,103,1835262360
50,18,19,Jits_Linear_5,1,1,48,73,1835280844
50,18,19,Jits_Linear_5,2,1,38,18,1835291016
50,18,19,Jits_Linear_5,3,5,80,127,1835321604
50,18,19,Jits_Linear_5,4,5,63,98,1835361544
50,18,19,Jits_Linear_5,0,1,48,70,1835805664
50,18,19,Jits_Linear_5,1,5,56,103,1835841964
50,18,19,Jits_Linear_5,2,5,63,98,1835852380
50,18,19,Jits_Linear_5,3,5,80,127,1835855672
50,18,19,Jits_Linear_5,0,1,48,73,1836297404
50,18,19,Jits_Linear_5,1,5,80,127,1836322012
50,18,19,Jits_Linear_5,2,5,63,98,1836412232
50,18,19,Jits_Linear_5,3,5,56,103,1836421680
50,18,19,Jits_Linear_5,0,1,48,65,1836823100
50,18,19,Jits_Linear_5,1,5,56,103,1836851728
50,18,19,Jits_Linear_5,2,5,63,98,1836854676
50,18,19,Jits_Linear_5,3,5,80,127,1836857876
50,18,19,Jits_Linear_5,0,1,48,72,1837352568
50,18,19,Jits_Linear_5,1,1,38,18,1837362444
50,18,19,Jits_Linear_5,2,5,80,127,1837411692
50,18,19,Jits_Linear_5,3,5,63,98,1837461808
50,18,19,Jits_Linear_5,4,5,56,103,1837491480
50,18,19,Jits_Linear_5,0,1,48,62,1837841344
50,18,19,Jits_Linear_5,1,1,38,16,1837851512
50,18,19,Jits_Linear_5,2,5,56,103,1837921596
50,18,19,Jits_Linear_5,3,5,80,127,1837932016
50,18,19,Jits_Linear_5,4,5,63,98,1838001536
50,18,19,Jits_Linear_5,0,1,48,72,1838339936
50,18,19,Jits_Linear_5,1,1,38,18,1838349884
50,18,19,Jits_Linear_5,2,5,56,103,1838462420
50,18,19,Jits_Linear_5,3,5,63,98,1838481760
50,18,19,Jits_Linear_5,4,5,80,127,1838542376
50,18,19,Jits_Linear_5,0,1,48,75,1838868024
50,18,19,Jits_Linear_5,1,1,38,18,1838878048
50,18,19,Jits_Linear_5,2,5,80,127,1838991812
50,18,19,Jits_Linear_5,3,5,63,98,1839062772
50,18,19,Jits_Linear_5,4,5,56,103,1839081884
50,18,19,Jits_Linear_5,0,1,48,75,1839399884
50,18,19,Jits_Linear_5,1,5,80,127,1839551884
50,18,19,Jits_Linear_5,2,5,56,103,1839562080
50,18,19,Jits_Linear_5,3,5,63,98,1839572276
50,18,19,Jits_Linear_5,0,1,48,72,1839987236
50,18,19,Jits_Linear_5,1,5,80,127,1840082224
50,18,19,Jits_Linear_5,2,5,56,103,1840101624
50,18,19,Jits_Linear_5,3,5,63,98,1840172504
50,18,19,Jits_Linear_5,0,1,48,76,1840511164
50,18,19,Jits_Linear_5,1,5,56,103,1840632396
50,18,19,Jits_Linear_5,2,5,80,127,1840661776
50,18,19,Jits_Linear_5,3,5,63,98,1840682532
50,18,19,Jits_Linear_5,0,1,48,76,1841048748
50,18,19,Jits_Linear_5,1,5,63,98,1841171796
50,18,19,Jits_Linear_5,2,5,56,103,1841232340
50,18,19,Jits_Linear_5,3,5,80,127,1841261940
50,18,19,Jits_Linear_5,0,1,48,74,1841600524
50,18,19,Jits_Linear_5,1,1,38,18,1841610392
50,18,19,Jits_Linear_5,2,5,63,98,1841711448
50,18,19,Jits_Linear_5,3,5,80,127,1841714812
50,18,19,Jits_Linear_5,4,5,56,103,1841801604
50,18,19,Jits_Linear_5,0,1,48,67,1842158264
50,18,19,Jits_Linear_5,1,5,56,103,1842281764
50,18,19,Jits_Linear_5,2,5,63,98,1842311540
50,18,19,Jits_Linear_5,3,5,80,127,1842351628
50,18,19,Jits_Linear_5,0,1,48,67,1842713784
50,18,19,Jits_Linear_5,1,1,38,17,1842723652
50,18,19,Jits_Linear_5,2,5,63,98,1842831852
50,18,19,Jits_Linear_5,3,5,56,103,1842871792
50,18,19,Jits_Linear_5,4,5,80,127,1842892252
50,18,19,Jits_Linear_5,0,1,48,80,1843254472
50,18,19,Jits_Linear_5,1,1,38,19,1843264488
50,18,19,Jits_Linear_5,2,5,63,98,1843391728
50,18,19,Jits_Linear_5,3,5,56,103,1843431740
50,18,19,Jits_Linear_5,4,5,80,127,1843442012
50,18,19,Jits_Linear_5,0,1,48,77,1843801760
50,18,19,Jits_Linear_5,1,1,38,18,1843811560
50,18,19,Jits_Linear_5,2,5,80,127,1843922300
50,18,19,Jits_Linear_5,3,5,63,98,1843991912
50,18,19,Jits_Linear_5,4,5,56,103,1844012520
50,18,19,Jits_Linear_5,0,1,48,82,1844403912
50,18,19,Jits_Linear_5,1,1,38,19,1844413932
50,18,19,Jits_Linear_5,2,5,56,103,1844472324
50,18,19,Jits_Linear_5,3,5,80,127,1844491588
50,18,19,Jits_Linear_5,4,5,63,98,1844531560
50,18,19,Jits_Linear_5,0,1,48,76,1844972624
50,18,19,Jits_Linear_5,1,1,38,19,1844982492
50,18,19,Jits_Linear_5,2,5,63,98,1845041488
50,18,19,Jits_Linear_5,3,5,80,127,1845061944
50,18,19,Jits_Linear_5,4,5,56,103,1845101916
50,18,19,Jits_Linear_5,0,1,48,83,1845537948
50,18,19,Jits_Linear_5,1,1,38,19,1845548120
50,18,19,Jits_Linear_5,2,5,63,98,1845601576
50,18,19,Jits_Linear_5,3,5,56,103,1845622060
50,18,19,Jits_Linear_5,4,5,80,127,1845632556
50,18,19,Jits_Linear_5,0,1,48,66,1846108148
50,18,19,Jits_Linear_5,1,5,80,127,1846161632
50,18,19,Jits_Linear_5,2,5,56,103,1846182392
50,18,19,Jits_Linear_5,3,5,63,98,1846211904
50,18,19,Jits_Linear_5,0,1,48,78,1846658284
50,18,19,Jits_Linear_5,1,5,56,103,1846801784
50,18,19,Jits_Linear_5,2,5,80,127,1846804848
50,18,19,Jits_Linear_5,3,5,63,98,1846822464
50,18,19,Jits_Linear_5,0,1,48,77,1847210036
50,18,19,Jits_Linear_5,1,5,63,98,1847292340
50,18,19,Jits_Linear_5,2,5,56,103,1847321852
50,18,19,Jits_Linear_5,3,5,80,127,1847382616
50,18,19,Jits_Linear_5,0,1,48,78,1847713768
50,18,19,Jits_Linear_5,1,5,63,98,1847941436
50,18,19,Jits_Linear_5,2,5,56,103,1847951708
50,18,19,Jits_Linear_5,3,5,80,127,1847961828
50,18,19,Jits_Linear_5,0,1,48,78,1848298868
50,18,19,Jits_Linear_5,1,1,38,19,1848308888
50,18,19,Jits_Linear_5,2,5,56,103,1848461604
50,18,19,Jits_Linear_5,3,5,80,127,1848492332
50,18,19,Jits_Linear_5,4,5,63,98,1848501480
50,18,19,Jits_Linear_5,0,1,48,69,1848899964
50,18,19,Jits_Linear_5,1,5,63,98,1849071872
50,18,19,Jits_Linear_5,2,5,56,103,1849082440
50,18,19,Jits_Linear_5,3,5,80,127,1849101780
50,18,19,Jits_Linear_5,0,1,48,68,1849476088
50,18,19,Jits_Linear_5,1,5,56,103,1849571576
50,18,19,Jits_Linear_5,2,5,63,98,1849632400
50,18,19,Jits_Linear_5,3,5,80,127,1849635544
50,18,19,Jits_Linear_5,0,1,48,77,1850034208
50,18,19,Jits_Linear_5,1,5,80,127,1850171632
50,18,19,Jits_Linear_5,2,5,56,103,1850182128
50,18,19,Jits_Linear_5,3,5,63,98,1850251536
50,18,19,Jits_Linear_5,0,1,48,71,1850563932
50,18,19,Jits_Linear_5,1,5,80,127,1850742292
50,18,19,Jits_Linear_5,2,5,56,103,1850811828
50,18,19,Jits_Linear_5,3,5,63,98,1850822396
50,18,19,Jits_Linear_5,0,1,48,62,1851119748
50,18,19,Jits_Linear_5,1,5,63,98,1851361708
50,18,19,Jits_Linear_5,2,5,56,103,1851371980
50,18,19,Jits_Linear_5,3,5,80,127,1851392516
50,18,19,Jits_Linear_5,0,1,48,73,1851707228
50,18,19,Jits_Linear_5,1,5,80,127,1851892340
50,18,19,Jits_Linear_5,2,5,63,98,1851951540
50,18,19,Jits_Linear_5,3,5,56,103,1851992452
50,18,19,Jits_Linear_5,0,1,48,72,1852252404
50,18,19,Jits_Linear_5,1,1,38,18,1852262424
50,18,19,Jits_Linear_5,2,5,56,103,1852521748
50,18,19,Jits_Linear_5,3,5,63,98,1852532192
50,18,19,Jits_Linear_5,4,5,80,127,1852572280
50,18,19,Jits_Linear_5,5,1,48,71,1852759700
50,18,19,Jits_Linear_5,0,5,56,103,1853071712
50,18,19,Jits_Linear_5,1,5,80,127,1853101536
50,18,19,Jits_Linear_5,2,5,63,98,1853151516
50,18,19,Jits_Linear_5,3,1,48,67,1853315128
50,18,19,Jits_Linear_5,4,1,38,17,1853324996
50,18,19,Jits_Linear_5,0,5,56,103,1853701484
50,18,19,Jits_Linear_5,1,5,63,98,1853741500
50,18,19,Jits_Linear_5,2,5,80,127,1853744712
50,18,19,Jits_Linear_5,3,1,48,73,1853817156
50,18,19,Jits_Linear_5,4,1,38,18,1853827020
50,18,19,Jits_Linear_5,0,5,56,103,1854292452
50,18,19,Jits_Linear_5,1,1,48,78,1854296100
50,18,19,Jits_Linear_5,2,5,63,98,1854301596
50,18,19,Jits_Linear_5,3,1,38,18,1854306284
50,18,19,Jits_Linear_5,4,5,80,127,1854322200
50,18,19,Jits_Linear_5,0,1,48,74,1854823996
50,18,19,Jits_Linear_5,1,1,38,18,1854833944
50,18,19,Jits_Linear_5,2,5,56,103,1854842380
50,18,19,Jits_Linear_5,3,5,80,127,1854845372
50,18,19,Jits_Linear_5,4,5,63,98,1854882320
50,18,19,Jits_Linear_5,0,1,48,73,1855366864
50,18,19,Jits_Linear_5,1,1,38,18,1855376812
50,18,19,Jits_Linear_5,2,5,63,98,1855472028
50,18,19,Jits_Linear_5,3,5,56,103,1855501556
50,18,19,Jits_Linear_5,4,5,80,127,1855522312
50,18,19,Jits_Linear_5,0,1,48,64,1855916100
50,18,19,Jits_Linear_5,1,1,38,16,1855925968
50,18,19,Jits_Linear_5,2,5,80,127,1856042240
50,18,19,Jits_Linear_5,3,5,56,103,1856051464
50,18,19,Jits_Linear_5,4,5,63,98,1856061660
50,18,19,Jits_Linear_5,0,1,48,75,1856508100
50,18,19,Jits_Linear_5,1,1,38,18,1856518044
50,18,19,Jits_Linear_5,2,5,56,103,1856642440
50,18,19,Jits_Linear_5,3,5,80,127,1856682528
50,18,19,Jits_Linear_5,4,5,63,98,1856712352
50,18,19,Jits_Linear_5,0,1,48,73,1857061012
50,18,19,Jits_Linear_5,1,5,63,98,1857251580
50,18,19,Jits_Linear_5,2,5,80,127,1857262224
50,18,19,Jits_Linear_5,3,5,56,103,1857272272
50,18,19,Jits_Linear_5,0,1,48,71,1857644076
50,18,19,Jits_Linear_5,1,5,56,103,1857832252
50,18,19,Jits_Linear_5,2,5,63,98,1857902160
50,18,19,Jits_Linear_5,3,5,80,127,1857912084
50,18,19,Jits_Linear_5,0,1,48,71,1858189804
50,18,19,Jits_Linear_5,1,5,80,127,1858441560
50,18,19,Jits_Linear_5,2,5,56,103,1858451680
50,18,19,Jits_Linear_5,3,5,63,98,1858502108
50,18,19,Jits_Linear_5,4,1,48,78,1858739208
50,18,19,Jits_Linear_5,5,1,38,19,1858749144
50,18,19,Jits_Linear_5,0,5,80,127,1859062024
50,18,19,Jits_Linear_5,1,5,56,103,1859121376
50,18,19,Jits_Linear_5,2,5,63,98,1859152172
50,18,19,Jits_Linear_5,3,1,48,82,1859250540
50,18,19,Jits_Linear_5,0,5,56,103,1859672388
50,18,19,Jits_Linear_5,1,5,80,127,1859675380
50,18,19,Jits_Linear_5,2,5,63,98,1859712352
50,18,19,Jits_Linear_5,3,1,48,79,1859758392
50,18,19,Jits_Linear_5,4,1,38,19,1859768340
50,18,19,Jits_Linear_5,0,5,56,103,1860312380
50,18,19,Jits_Linear_5,1,1,48,84,1860321272
50,18,19,Jits_Linear_5,2,5,63,98,1860342124
50,18,19,Jits_Linear_5,3,5,80,127,1860352320
50,18,19,Jits_Linear_5,0,1,48,81,1860880460
50,18,19,Jits_Linear_5,1,1,38,19,1860890404
50,18,19,Jits_Linear_5,2,5,63,98,1860932084
50,18,19,Jits_Linear_5,3,5,80,127,1860942204
50,18,19,Jits_Linear_5,4,5,56,103,1860952552
50,18,19,Jits_Linear_5,0,1,48,76,1861478084
50,18,19,Jits_Linear_5,1,1,38,18,1861487956
50,18,19,Jits_Linear_5,2,5,80,127,1861492060
50,18,19,Jits_Linear_5,3,5,56,103,1861542336
50,18,19,Jits_Linear_5,4,5,63,98,1861545256
50,18,19,Jits_Linear_5,0,1,48,86,1862016836
50,18,19,Jits_Linear_5,1,5,56,103,1862142352
50,18,19,Jits_Linear_5,2,5,80,127,1862162064
50,18,19,Jits_Linear_5,3,5,63,98,1862172336
50,18,19,Jits_Linear_5,0,1,48,55,1862633404
50,18,19,Jits_Linear_5,1,1,38,15,1862643352
50,18,19,Jits_Linear_5,2,5,63,98,1862742384
50,18,19,Jits_Linear_5,3,5,56,103,1862772160
50,18,19,Jits_Linear_5,4,5,80,127,1862791500
50,18,19,Jits_Linear_5,0,1,48,77,1863254708
50,18,19,Jits_Linear_5,1,5,56,103,1863372152
50,18,19,Jits_Linear_5,2,5,80,127,1863382500
50,18,19,Jits_Linear_5,3,5,63,98,1863451956
50,18,19,Jits_Linear_5,0,1,48,82,1863801024
50,18,19,Jits_Linear_5,1,5,63,98,1863981376
50,18,19,Jits_Linear_5,2,5,80,127,1864022588
50,18,19,Jits_Linear_5,3,5,56,103,1864062252
50,18,19,Jits_Linear_5,0,1,48,70,1864415256
50,18,19,Jits_Linear_5,1,1,38,17,1864425048
50,18,19,Jits_Linear_5,2,5,56,103,1864621296
50,18,19,Jits_Linear_5,3,5,63,98,1864631564
50,18,19,Jits_Linear_5,4,5,80,127,1864652024
50,18,19,Jits_Linear_5,0,1,48,61,1864988448
50,18,19,Jits_Linear_5,1,5,63,98,1865292092
50,18,19,Jits_Linear_5,2,5,80,127,1865311804
50,18,19,Jits_Linear_5,3,5,56,103,1865331992
50,18,19,Jits_Linear_5,4,1,48,63,1865550052
50,18,19,Jits_Linear_5,0,5,56,103,1865871664
50,18,19,Jits_Linear_5,1,5,80,127,1865951540
50,18,19,Jits_Linear_5,2,5,63,98,1865961812
50,18,19,Jits_Linear_5,3,1,48,72,1866106392
50,18,19,Jits_Linear_5,0,5,80,127,1866551632
50,18,19,Jits_Linear_5,1,5,63,98,1866561980
50,18,19,Jits_Linear_5,2,5,56,103,1866591504
50,18,19,Jits_Linear_5,3,1,48,68,1866662376
50,18,19,Jits_Linear_5,0,5,63,98,1867151904
50,18,19,Jits_Linear_5,1,5,80,127,1867191844
50,18,19,Jits_Linear_5,2,1,48,62,1867194212
50,18,19,Jits_Linear_5,3,5,56,103,1867252080
50,18,19,Jits_Linear_5,0,1,48,59,1867735388
50,18,19,Jits_Linear_5,1,5,63,98,1867812140
50,18,19,Jits_Linear_5,2,5,56,103,1867862260
50,18,19,Jits_Linear_5,3,5,80,127,1867892032
50,18,19,Jits_Linear_5,0,1,48,69,1868269152
50,18,19,Jits_Linear_5,1,5,80,127,1868461384
50,18,19,Jits_Linear_5,2,5,63,98,1868471876
50,18,19,Jits_Linear_5,3,5,56,103,1868542384
50,18,19,Jits_Linear_5,4,1,48,71,1868751252
50,18,19,Jits_Linear_5,0,5,80,127,1869172072
50,18,19,Jits_Linear_5,1,5,56,103,1869182268
50,18,19,Jits_Linear_5,2,5,63,98,1869185336
50,18,19,Jits_Linear_5,3,1,48,63,1869265840
50,18,19,Jits_Linear_5,0,5,56,103,1869751708
50,18,19,Jits_Linear_5,1,5,80,127,1869772096
50,18,19,Jits_Linear_5,2,5,63,98,1869782292
50,18,19,Jits_Linear_5,3,1,48,74,1869853436
50,18,19,Jits_Linear_5,0,5,63,98,1870401852
50,18,19,Jits_Linear_5,1,1,48,69,1870408560
50,18,19,Jits_Linear_5,2,5,56,103,1870441936
50,18,19,Jits_Linear_5,3,5,80,127,1870462272
50,18,19,Jits_Linear_5,0,1,48,75,1870936412
50,18,19,Jits_Linear_5,1,5,63,98,1871041948
50,18,19,Jits_Linear_5,2,5,56,103,1871102264
50,18,19,Jits_Linear_5,3,5,80,127,1871105336
50,18,19,Jits_Linear_5,0,1,48,77,1871514788
50,18,19,Jits_Linear_5,1,5,56,103,1871661728
50,18,19,Jits_Linear_5,2,5,80,127,1871681964
50,18,19,Jits_Linear_5,3,5,63,98,1871721980
50,18,19,Jits_Linear_5,0,1,48,76,1872064212
50,18,19,Jits_Linear_5,1,5,56,103,1872342304
50,18,19,Jits_Linear_5,2,5,63,98,1872362012
50,18,19,Jits_Linear_5,3,5,80,127,1872372060
50,18,19,Jits_Linear_5,0,1,48,72,1872690680
50,18,19,Jits_Linear_5,1,1,38,18,1872693388
50,18,19,Jits_Linear_5,2,5,80,127,1872961868
50,18,19,Jits_Linear_5,3,5,56,103,1872991768
50,18,19,Jits_Linear_5,4,5,63,98,1873031656
50,18,19,Jits_Linear_5,5,1,48,65,1873285692
50,18,19,Jits_Linear_5,6,1,38,16,1873296084
50,18,19,Jits_Linear_5,0,5,80,127,1873622368
50,18,19,Jits_Linear_5,1,5,56,103,1873641852
50,18,19,Jits_Linear_5,2,5,63,98,1873702392
50,18,19,Jits_Linear_5,3,1,48,73,1873937624
50,18,19,Jits_Linear_5,0,5,56,103,1874281804
50,18,19,Jits_Linear_5,1,5,80,127,1874302364
50,18,19,Jits_Linear_5,2,5,63,98,1874361932
50,18,19,Jits_Linear_5,3,1,48,76,1874571476
50,18,19,Jits_Linear_5,0,5,80,127,1874922004
50,18,19,Jits_Linear_5,1,5,56,103,1874932052
50,18,19,Jits_Linear_5,2,5,63,98,1874971992
50,18,19,Jits_Linear_5,3,1,48,80,1875176956
50,18,19,Jits_Linear_5,0,5,63,98,1875582212
50,18,19,Jits_Linear_5,1,5,56,103,1875622144
50,18,19,Jits_Linear_5,2,5,80,127,1875625292
50,18,19,Jits_Linear_5,0,1,48,80,1876028868
50,18,19,Jits_Linear_5,1,5,63,98,1876262232
50,18,19,Jits_Linear_5,2,5,80,127,1876302172
50,18,19,Jits_Linear_5,3,5,56,103,1876331852
50,18,19,Jits_Linear_5,0,1,48,95,1876808724
50,18,19,Jits_Linear_5,1,5,56,103,1876911564
50,18,19,Jits_Linear_5,2,5,63,98,1876921908
50,18,19,Jits_Linear_5,3,5,80,127,1876952412
50,18,19,Jits_Linear_5,0,1,48,97,1877419996
50,18,19,Jits_Linear_5,1,5,80,127,1877571952
50,18,19,Jits_Linear_5,2,5,63,98,1877641664
50,18,19,Jits_Linear_5,3,5,56,103,1877651784
50,18,19,Jits_Linear_5,0,1,48,85,1878092076
50,18,19,Jits_Linear_5,1,5,63,98,1878241812
50,18,19,Jits_Linear_5,2,5,56,103,1878312248
50,18,19,Jits_Linear_5,3,5,80,127,1878321620
50,18,19,Jits_Linear_5,0,1,48,89,1878734064
50,18,19,Jits_Linear_5,1,5,63,98,1878912496
50,18,19,Jits_Linear_5,2,5,56,103,1878931760
50,18,19,Jits_Linear_5,3,5,80,127,1878971772
50,18,19,Jits_Linear_5,0,1,48,76,1879335852
50,18,19,Jits_Linear_5,1,1,38,18,1879345876
50,18,19,Jits_Linear_5,2,5,56,103,1879592168
50,18,19,Jits_Linear_5,3,5,63,98,1879601692
50,18,19,Jits_Linear_5,4,5,80,127,1879682560
50,18,19,Jits_Linear_5,0,1,48,70,1880027688
50,18,19,Jits_Linear_5,1,5,63,98,1880251760
50,18,19,Jits_Linear_5,2,5,56,103,1880281584
50,18,19,Jits_Linear_5,3,5,80,127,1880322572
50,18,19,Jits_Linear_5,0,1,48,88,1880681344
50,18,19,Jits_Linear_5,1,1,38,19,1880691700
50,18,19,Jits_Linear_5,2,5,56,103,1880921480
50,18,19,Jits_Linear_5,3,5,63,98,1880962568
50,18,19,Jits_Linear_5,4,5,80,127,1881002284
50,18,19,Jits_Linear_5,5,1,48,67,1881285456
50,18,19,Jits_Linear_5,0,5,80,127,1881602556
50,18,19,Jits_Linear_5,1,5,56,103,1881682432
50,18,19,Jits_Linear_5,2,5,63,98,1881691732
50,18,19,Jits_Linear_5,0,1,48,75,1881996244
50,18,19,Jits_Linear_5,1,5,56,103,1882322408
50,18,19,Jits_Linear_5,2,5,63,98,1882325476
50,18,19,Jits_Linear_5,3,5,80,127,1882331484
50,18,19,Jits_Linear_5,0,1,48,87,1882843496
50,18,19,Jits_Linear_5,1,1,38,20,1882853364
50,18,19,Jits_Linear_5,2,5,56,103,1883021660
50,18,19,Jits_Linear_5,3,5,63,98,1883042044
50,18,19,Jits_Linear_5,4,5,80,127,1883052540
50,18,19,Jits_Linear_5,0,1,48,71,1883562456
50,18,19,Jits_Linear_5,1,5,63,98,1883672008
50,18,19,Jits_Linear_5,2,5,80,127,1883682132
50,18,19,Jits_Linear_5,3,5,56,103,1883701544
50,18,19,Jits_Linear_5,0,1,48,70,1884236700
50,18,19,Jits_Linear_5,1,5,63,98,1884362092
50,18,19,Jits_Linear_5,2,5,56,103,1884441892
50,18,19,Jits_Linear_5,3,5,80,127,1884444884
50,18,19,Jits_Linear_5,0,1,48,66,1884914572
50,18,19,Jits_Linear_5,1,5,63,98,1885052248
50,18,19,Jits_Linear_5,2,5,56,103,1885071740
50,18,19,Jits_Linear_5,3,5,80,127,1885101564
50,18,19,Jits_Linear_5,0,1,48,70,1885528800
50,18,19,Jits_Linear_5,1,5,56,103,1885741488
50,18,19,Jits_Linear_5,2,5,63,98,1885761800
50,18,19,Jits_Linear_5,3,5,80,127,1885772148
50,18,19,Jits_Linear_5,0,1,48,70,1886185704
50,18,19,Jits_Linear_5,1,5,56,103,1886462516
50,18,19,Jits_Linear_5,2,5,63,98,1886491888
50,18,19,Jits_Linear_5,3,5,80,127,1886495404
50,18,19,Jits_Linear_5,0,1,48,73,1886859212
50,18,19,Jits_Linear_5,1,5,56,103,1887102472
50,18,19,Jits_Linear_5,2,5,63,98,1887142188
50,18,19,Jits_Linear_5,3,5,80,127,1887201608
50,18,19,Jits_Linear_5,0,1,48,80,1887572740
50,18,19,Jits_Linear_5,1,5,56,103,1887811940
50,18,19,Jits_Linear_5,2,5,63,98,1887822284
50,18,19,Jits_Linear_5,3,5,80,127,1887881580
50,18,19,Jits_Linear_5,0,1,48,78,1888236520
50,18,19,Jits_Linear_5,1,5,56,103,1888512440
50,18,19,Jits_Linear_5,2,5,80,127,1888531852
50,18,19,Jits_Linear_5,3,5,63,98,1888561600
50,18,19,Jits_Linear_5,0,1,48,72,1888909288
50,18,19,Jits_Linear_5,1,5,80,127,1889211740
50,18,19,Jits_Linear_5,2,5,56,103,1889221864
50,18,19,Jits_Linear_5,3,5,63,98,1889241424
50,18,19,Jits_Linear_5,4,1,48,72,1889542508
50,18,19,Jits_Linear_5,0,5,63,98,1889901792
50,18,19,Jits_Linear_5,1,5,80,127,1889981764
50,18,19,Jits_Linear_5,2,5,56,103,1889992036
50,18,19,Jits_Linear_5,3,1,48,58,1890276412
50,18,19,Jits_Linear_5,0,5,80,127,1890661708
50,18,19,Jits_Linear_5,1,5,56,103,1890682192
50,18,19,Jits_Linear_5,2,5,63,98,1890685408
50,18,19,Jits_Linear_5,3,1,48,72,1890984320
50,18,19,Jits_Linear_5,0,5,63,98,1891341616
50,18,19,Jits_Linear_5,1,5,80,127,1891345128
50,18,19,Jits_Linear_5,2,5,56,103,1891402304
50,18,19,Jits_Linear_5,0,1,48,61,1891706792
50,18,19,Jits_Linear_5,1,5,56,103,1892031840
50,18,19,Jits_Linear_5,2,5,80,127,1892042108
50,18,19,Jits_Linear_5,3,5,63,98,1892082048
50,18,19,Jits_Linear_5,0,1,48,84,1892500788
50,18,19,Jits_Linear_5,1,5,56,103,1892722072
50,18,19,Jits_Linear_5,2,5,63,98,1892781496
50,18,19,Jits_Linear_5,3,5,80,127,1892791616
50,18,19,Jits_Linear_5,0,1,48,82,1893305120
50,18,19,Jits_Linear_5,1,1,38,19,1893315068
50,18,19,Jits_Linear_5,2,5,63,98,1893441832
50,18,19,Jits_Linear_5,3,5,80,127,1893481772
50,18,19,Jits_Linear_5,4,5,56,103,1893521884
50,18,19,Jits_Linear_5,0,1,48,65,1893972428
50,18,19,Jits_Linear_5,1,5,56,103,1894161652
50,18,19,Jits_Linear_5,2,5,63,98,1894241520
50,18,19,Jits_Linear_5,3,5,80,127,1894245040
50,18,19,Jits_Linear_5,0,1,48,70,1894656140
50,18,19,Jits_Linear_5,1,1,38,17,1894666004
50,18,19,Jits_Linear_5,2,5,80,127,1894931856
50,18,19,Jits_Linear_5,3,5,56,103,1894961456
50,18,19,Jits_Linear_5,4,5,63,98,1894964520
50,18,19,Jits_Linear_5,0,1,48,69,1895323156
50,18,19,Jits_Linear_5,1,5,56,103,1895611732
50,18,19,Jits_Linear_5,2,5,80,127,1895632192
50,18,19,Jits_Linear_5,3,5,63,98,1895672428
50,18,19,Jits_Linear_5,0,1,48,72,1896026844
50,18,19,Jits_Linear_5,1,5,80,127,1896312152
50,18,19,Jits_Linear_5,2,5,63,98,1896331492
50,18,19,Jits_Linear_5,3,5,56,103,1896392180
50,18,19,Jits_Linear_5,4,1,48,62,1896669060
50,18,19,Jits_Linear_5,0,5,63,98,1897042440
50,18,19,Jits_Linear_5,1,5,56,103,1897051444
50,18,19,Jits_Linear_5,2,5,80,127,1897101668
50,18,19,Jits_Linear_5,3,1,48,77,1897317544
50,18,19,Jits_Linear_5,0,5,56,103,1897762344
50,18,19,Jits_Linear_5,1,5,63,98,1897781608
50,18,19,Jits_Linear_5,2,5,80,127,1897791880
50,18,19,Jits_Linear_5,3,1,48,78,1897974520
50,18,19,Jits_Linear_5,0,5,56,103,1898481960
50,18,19,Jits_Linear_5,1,5,63,98,1898485248
50,18,19,Jits_Linear_5,2,5,80,127,1898501448
50,18,19,Jits_Linear_5,3,1,48,67,1898609464
50,18,19,Jits_Linear_5,0,5,63,98,1899252216
50,18,19,Jits_Linear_5,1,1,48,71,1899272648
50,18,19,Jits_Linear_5,2,5,56,103,1899281812
50,18,19,Jits_Linear_5,3,5,80,127,1899311336
50,18,19,Jits_Linear_5,0,1,48,82,1899923764
50,18,19,Jits_Linear_5,1,1,38,19,1899933712
50,18,19,Jits_Linear_5,2,5,80,127,1899942124
50,18,19,Jits_Linear_5,3,5,56,103,1900032296
50,18,19,Jits_Linear_5,4,5,63,98,1900035288
50,18,19,Jits_Linear_5,0,1,48,64,1900585804
50,18,19,Jits_Linear_5,1,1,38,16,1900595976
50,18,19,Jits_Linear_5,2,5,56,103,1900672308
50,18,19,Jits_Linear_5,3,5,80,127,1900675448
50,18,19,Jits_Linear_5,4,5,63,98,1900752208
50,18,19,Jits_Linear_5,0,1,48,74,1901263612
50,18,19,Jits_Linear_5,1,1,38,19,1901273560
50,18,19,Jits_Linear_5,2,5,80,127,1901401440
50,18,19,Jits_Linear_5,3,5,63,98,1901462008
50,18,19,Jits_Linear_5,4,5,56,103,1901491536
50,18,19,Jits_Linear_5,0,1,48,67,1901931892
50,18,19,Jits_Linear_5,1,1,38,18,1901942396
50,18,19,Jits_Linear_5,2,5,63,98,1902131496
50,18,19,Jits_Linear_5,3,5,80,127,1902141916
50,18,19,Jits_Linear_5,4,5,56,103,1902211328
50,18,19,Jits_Linear_5,0,1,48,58,1902601480
50,18,19,Jits_Linear_5,1,1,38,16,1902610904
50,18,19,Jits_Linear_5,2,5,56,103,1902892476
50,18,19,Jits_Linear_5,3,5,80,127,1902922300
50,18,19,Jits_Linear_5,4,5,63,98,1902972304
50,18,19,Jits_Linear_5,0,1,48,60,1903364704
50,18,19,Jits_Linear_5,1,5,63,98,1903671640
50,18,19,Jits_Linear_5,2,5,56,103,1903702440
50,18,19,Jits_Linear_5,3,5,80,127,1903705656
50,18,19,Jits_Linear_5,0,1,48,45,1904253140
50,18,19,Jits_Linear_5,1,5,63,98,1904412140
50,18,19,Jits_Linear_5,2,5,80,127,1904431404
50,18,19,Jits_Linear_5,3,5,56,103,1904441600
50,18,19,Jits_Linear_5,0,1,48,59,1904951744
50,18,19,Jits_Linear_5,1,5,56,103,1905161568
50,18,19,Jits_Linear_5,2,5,63,98,1905164632
50,18,19,Jits_Linear_5,3,5,80,127,1905182248
50,18,19,Jits_Linear_5,0,1,48,65,1905691048
50,18,19,Jits_Linear_5,1,1,38,17,1905700920
50,18,19,Jits_Linear_5,2,5,56,103,1905862232
50,18,19,Jits_Linear_5,3,5,63,98,1905872280
50,18,19,Jits_Linear_5,4,5,80,127,1905902032
50,18,19,Jits_Linear_5,0,1,48,55,1906368244
50,18,19,Jits_Linear_5,1,5,63,98,1906632180
50,18,19,Jits_Linear_5,2,5,80,127,1906651592
50,18,19,Jits_Linear_5,3,5,56,103,1906691380
50,18,19,Jits_Linear_5,0,1,48,72,1907090036
50,18,19,Jits_Linear_5,1,1,38,17,1907100132
50,18,19,Jits_Linear_5,2,5,56,103,1907412424
50,18,19,Jits_Linear_5,3,5,63,98,1907452364
50,18,19,Jits_Linear_5,4,5,80,127,1907455728
50,18,19,Jits_Linear_5,0,1,48,76,1908034428
50,18,19,Jits_Linear_5,1,5,80,127,1908101540
50,18,19,Jits_Linear_5,2,5,56,103,1908141392
50,18,19,Jits_Linear_5,3,5,63,98,1908191668
50,18,19,Jits_Linear_5,0,1,48,64,1908741972
50,18,19,Jits_Linear_5,1,5,56,103,1908911340
50,18,19,Jits_Linear_5,2,5,80,127,1908921832
50,18,19,Jits_Linear_5,3,5,63,98,1908952408
50,18,19,Jits_Linear_5,0,1,48,84,1909387320
50,18,19,Jits_Linear_5,1,5,56,103,1909612040
50,18,19,Jits_Linear_5,2,5,80,127,1909651928
50,18,19,Jits_Linear_5,3,5,63,98,1909702132
50,18,19,Jits_Linear_5,4,1,48,74,1910023064
50,18,19,Jits_Linear_5,0,5,56,103,1910371944
50,18,19,Jits_Linear_5,1,5,80,127,1910411760
50,18,19,Jits_Linear_5,2,5,63,98,1910461740
50,18,19,Jits_Linear_5,3,1,48,47,1910764540
50,18,19,Jits_Linear_5,0,5,80,127,1911122208
50,18,19,Jits_Linear_5,1,5,63,98,1911202108
50,18,19,Jits_Linear_5,2,5,56,103,1911212308
50,18,19,Jits_Linear_5,3,1,48,72,1911445208
50,18,19,Jits_Linear_5,0,5,80,127,1911932136
50,18,19,Jits_Linear_5,1,5,56,103,1911941436
50,18,19,Jits_Linear_5,2,5,63,98,1911961968
50,18,19,Jits_Linear_5,3,1,48,81,1912263200
50,18,19,Jits_Linear_5,0,5,63,98,1912662372
50,18,19,Jits_Linear_5,1,5,56,103,1912732384
50,18,19,Jits_Linear_5,2,5,80,127,1912735368
50,18,19,Jits_Linear_5,0,1,48,82,1913172380
50,18,19,Jits_Linear_5,1,1,38,19,1913182400
50,18,19,Jits_Linear_5,2,5,80,127,1913422168
50,18,19,Jits_Linear_5,3,5,63,98,1913472400
50,18,19,Jits_Linear_5,4,5,56,103,1913512264
50,18,19,Jits_Linear_5,0,1,48,56,1913953964
50,18,19,Jits_Linear_5,1,5,63,98,1914232228
50,18,19,Jits_Linear_5,2,5,56,103,1914272096
50,18,19,Jits_Linear_5,3,5,80,127,1914282216
50,18,19,Jits_Linear_5,0,1,48,63,1914646144
50,18,19,Jits_Linear_5,1,5,63,98,1914992288
50,18,19,Jits_Linear_5,2,5,56,103,1915011332
50,18,19,Jits_Linear_5,3,5,80,127,1915031940
50,18,19,Jits_Linear_5,0,1,48,68,1915399552
50,18,19,Jits_Linear_5,1,5,80,127,1915722136
50,18,19,Jits_Linear_5,2,5,56,103,1915732404
50,18,19,Jits_Linear_5,3,5,63,98,1915752116
50,18,19,Jits_Linear_5,0,1,48,71,1916230412
50,18,19,Jits_Linear_5,1,5,63,98,1916522128
50,18,19,Jits_Linear_5,2,5,56,103,1916561720
50,18,19,Jits_Linear_5,3,5,80,127,1916591620
50,18,19,Jits_Linear_5,4,1,48,65,1916917044
50,18,19,Jits_Linear_5,0,5,56,103,1917302144
50,18,19,Jits_Linear_5,1,5,63,98,1917331972
50,18,19,Jits_Linear_5,2,5,80,127,1917361572
50,18,19,Jits_Linear_5,3,1,48,73,1917632388
50,18,19,Jits_Linear_5,0,5,80,127,1918051784
50,18,19,Jits_Linear_5,1,5,56,103,1918122468
50,18,19,Jits_Linear_5,2,5,63,98,1918125388
50,18,19,Jits_Linear_5,3,1,48,67,1918376424
50,18,19,Jits_Linear_5,0,5,56,103,1918842224
50,18,19,Jits_Linear_5,1,5,63,98,1918892356
50,18,19,Jits_Linear_5,2,5,80,127,1918922104
50,18,19,Jits_Linear_5,3,1,48,67,1919065616
50,18,19,Jits_Linear_5,4,1,38,17,1919075560
50,18,19,Jits_Linear_5,0,5,63,98,1919602172
50,18,19,Jits_Linear_5,1,5,80,127,1919605464
50,18,19,Jits_Linear_5,2,5,56,103,1919661368
50,18,19,Jits_Linear_5,3,1,48,66,1919801512
50,18,19,Jits_Linear_5,0,5,56,103,1920412196
50,18,19,Jits_Linear_5,1,5,80,127,1920422244
50,18,19,Jits_Linear_5,2,1,48,82,1920423212
50,18,19,Jits_Linear_5,3,5,63,98,1920472368
50,18,19,Jits_Linear_5,0,1,48,71,1921084628
50,18,19,Jits_Linear_5,1,5,63,98,1921171816
50,18,19,Jits_Linear_5,2,5,56,103,1921181940
50,18,19,Jits_Linear_5,3,5,80,127,1921211900
50,18,19,Jits_Linear_5,0,1,48,76,1921768396
50,18,19,Jits_Linear_5,1,5,63,98,1921992020
50,18,19,Jits_Linear_5,2,5,80,127,1921995460
50,18,19,Jits_Linear_5,3,5,56,103,1922021920
50,18,19,Jits_Linear_5,0,1,48,70,1922536696
50,18,19,Jits_Linear_5,1,5,63,98,1922801972
50,18,19,Jits_Linear_5,2,5,56,103,1922821608
50,18,19,Jits_Linear_5,3,5,80,127,1922824676
50,18,19,Jits_Linear_5,4,1,48,76,1923183224
50,18,19,Jits_Linear_5,0,5,63,98,1923551656
50,18,19,Jits_Linear_5,1,5,56,103,1923622316
50,18,19,Jits_Linear_5,2,5,80,127,1923642024
50,18,19,Jits_Linear_5,3,1,48,76,1923831784
50,18,19,Jits_Linear_5,0,5,56,103,1924331800
50,18,19,Jits_Linear_5,1,5,63,98,1924342000
50,18,19,Jits_Linear_5,2,5,80,127,1924432208
50,18,19,Jits_Linear_5,3,1,48,60,1924462976
50,18,19,Jits_Linear_5,0,1,48,69,1925067308
50,18,19,Jits_Linear_5,1,1,38,17,1925076952
50,18,19,Jits_Linear_5,2,5,56,103,1925142024
50,18,19,Jits_Linear_5,3,5,80,127,1925181920
50,18,19,Jits_Linear_5,4,5,63,98,1925192268
50,18,19,Jits_Linear_5,0,1,48,78,1925758532
50,18,19,Jits_Linear_5,1,1,38,19,1925768408
50,18,19,Jits_Linear_5,2,5,56,103,1925962004
50,18,19,Jits_Linear_5,3,5,63,98,1925991904
50,18,19,Jits_Linear_5,4,5,80,127,1926021756
50,18,19,Jits_Linear_5,0,1,48,80,1926633040
50,18,19,Jits_Linear_5,1,1,38,18,1926642988
50,18,19,Jits_Linear_5,2,5,80,127,1926721984
50,18,19,Jits_Linear_5,3,5,63,98,1926761956
50,18,19,Jits_Linear_5,4,5,56,103,1926782216
50,18,19,Jits_Linear_5,0,1,48,78,1927336396
50,18,19,Jits_Linear_5,1,1,38,18,1927346492
50,18,19,Jits_Linear_5,2,5,56,103,1927561540
50,18,19,Jits_Linear_5,3,5,80,127,1927581924
50,18,19,Jits_Linear_5,4,5,63,98,1927601860
50,18,19,Jits_Linear_5,0,1,48,82,1928196500
50,18,19,Jits_Linear_5,1,1,38,19,1928206220
50,18,19,Jits_Linear_5,2,5,63,98,1928331584
50,18,19,Jits_Linear_5,3,5,56,103,1928341856
50,18,19,Jits_Linear_5,4,5,80,127,1928402324
50,18,19,Jits_Linear_5,0,1,48,74,1928879492
50,18,19,Jits_Linear_5,1,5,56,103,1929141688
50,18,19,Jits_Linear_5,2,5,63,98,1929212416
50,18,19,Jits_Linear_5,3,5,80,127,1929231904
50,18,19,Jits_Linear_5,0,1,48,73,1929716112
50,18,19,Jits_Linear_5,1,1,38,19,1929726060
50,18,19,Jits_Linear_5,2,5,56,103,1929951596
50,18,19,Jits_Linear_5,3,5,63,98,1929982468
50,18,19,Jits_Linear_5,4,5,80,127,1930022184
50,18,19,Jits_Linear_5,0,1,48,65,1930403900
50,18,19,Jits_Linear_5,1,5,63,98,1930752612
50,18,19,Jits_Linear_5,2,5,56,103,1930801472
50,18,19,Jits_Linear_5,3,5,80,127,1930811668
50,18,19,Jits_Linear_5,4,1,48,70,1931187980
50,18,19,Jits_Linear_5,0,5,56,103,1931602272
50,18,19,Jits_Linear_5,1,5,63,98,1931651680
50,18,19,Jits_Linear_5,2,5,80,127,1931661728
50,18,19,Jits_Linear_5,3,1,48,70,1931952996
50,18,19,Jits_Linear_5,0,5,56,103,1932381460
50,18,19,Jits_Linear_5,1,5,63,98,1932391656
50,18,19,Jits_Linear_5,2,5,80,127,1932471700
50,18,19,Jits_Linear_5,3,1,48,68,1932772936
50,18,19,Jits_Linear_5,4,1,38,17,1932783032
50,18,19,Jits_Linear_5,0,9999,9999,9999,1823539260
50,18,19,Jits_Linear_5,1,9999,9999,9999,1824019564
50,18,19,Jits_Linear_5,2,9999,9999,9999,1824499796
50,18,19,Jits_Linear_5,3,9999,9999,9999,1824980024
50,18,19,Jits_Linear_5,4,9999,9999,9999,1825459268
50,18,19,Jits_Linear_5,5,9999,9999,9999,1825949816
50,18,19,Jits_Linear_5,6,9999,9999,9999,1826439244
50,18,19,Jits_Linear_5,7,9999,9999,9999,1826929776
50,18,19,Jits_Linear_5,8,9999,9999,9999,1827419240
50,18,19,Jits_Linear_5,9,9999,9999,9999,1827909724
50,18,19,Jits_Linear_5,10,9999,9999,9999,1828409452
50,18,19,Jits_Linear_5,11,9999,9999,9999,1828909152
50,18,19,Jits_Linear_5,12,9999,9999,9999,1829409884
50,18,19,Jits_Linear_5,13,9999,9999,9999,1829909608
50,18,19,Jits_Linear_5,14,9999,9999,9999,1830409304
50,18,19,Jits_Linear_5,15,9999,9999,9999,1830919252
50,18,19,Jits_Linear_5,16,9999,9999,9999,1831429204
50,18,19,Jits_Linear_5,17,9999,9999,9999,1831939184
50,18,19,Jits_Linear_5,18,9999,9999,9999,1832449084
50,18,19,Jits_Linear_5,19,9999,9999,9999,1832960120
50,18,19,Jits_Linear_5,20,9999,9999,9999,1833489516
50,18,19,Jits_Linear_5,21,9999,9999,9999,1834009724
50,18,19,Jits_Linear_5,22,9999,9999,9999,1834529920
50,18,19,Jits_Linear_5,23,9999,9999,9999,1835050100
50,18,19,Jits_Linear_5,24,9999,9999,9999,1835569244
50,18,19,Jits_Linear_5,25,9999,9999,9999,1836099656
50,18,19,Jits_Linear_5,26,9999,9999,9999,1836630136
50,18,19,Jits_Linear_5,27,9999,9999,9999,1837169732
50,18,19,Jits_Linear_5,28,9999,9999,9999,1837699140
50,18,19,Jits_Linear_5,29,9999,9999,9999,1838229572
50,18,19,Jits_Linear_5,30,9999,9999,9999,1838769212
50,18,19,Jits_Linear_5,31,9999,9999,9999,1839309916
50,18,19,Jits_Linear_5,32,9999,9999,9999,1839849532
50,18,19,Jits_Linear_5,33,9999,9999,9999,1840389228
50,18,19,Jits_Linear_5,34,9999,9999,9999,1840929896
50,18,19,Jits_Linear_5,35,9999,9999,9999,1841479784
50,18,19,Jits_Linear_5,36,9999,9999,9999,1842029688
50,18,19,Jits_Linear_5,37,9999,9999,9999,1842579512
50,18,19,Jits_Linear_5,38,9999,9999,9999,1843129428
50,18,19,Jits_Linear_5,39,9999,9999,9999,1843679336
50,18,19,Jits_Linear_5,40,9999,9999,9999,1844239432
50,18,19,Jits_Linear_5,41,9999,9999,9999,1844799600
50,18,19,Jits_Linear_5,42,9999,9999,9999,1845359692
50,18,19,Jits_Linear_5,43,9999,9999,9999,1845919804
50,18,19,Jits_Linear_5,44,9999,9999,9999,1846479940
50,18,19,Jits_Linear_5,45,9999,9999,9999,1847049304
50,18,19,Jits_Linear_5,46,9999,9999,9999,1847619640
50,18,19,Jits_Linear_5,47,9999,9999,9999,1848190012
50,18,19,Jits_Linear_5,48,9999,9999,9999,1848759404
50,18,19,Jits_Linear_5,49,9999,9999,9999,1849329740
50,18,19,Jits_Linear_5,50,9999,9999,9999,1849909356
50,18,19,Jits_Linear_5,51,9999,9999,9999,1850489980
50,18,19,Jits_Linear_5,52,9999,9999,9999,1851069536
50,18,19,Jits_Linear_5,53,9999,9999,9999,1851649096
50,18,19,Jits_Linear_5,54,9999,9999,9999,1852229700
50,18,19,Jits_Linear_5,55,9999,9999,9999,1852819560
50,18,19,Jits_Linear_5,56,9999,9999,9999,1853409340
50,18,19,Jits_Linear_5,57,9999,9999,9999,1853999204
50,18,19,Jits_Linear_5,58,9999,9999,9999,1854590068
50,18,19,Jits_Linear_5,59,9999,9999,9999,1855179836
50,18,19,Jits_Linear_5,60,9999,9999,9999,1855779940
50,18,19,Jits_Linear_5,61,9999,9999,9999,1856379988
50,18,19,Jits_Linear_5,62,9999,9999,9999,1856980092
50,18,19,Jits_Linear_5,63,9999,9999,9999,1857579116
50,18,19,Jits_Linear_5,64,9999,9999,9999,1858179152
50,18,19,Jits_Linear_5,65,9999,9999,9999,1858789448
50,18,19,Jits_Linear_5,66,9999,9999,9999,1859399736
50,18,19,Jits_Linear_5,67,9999,9999,9999,1860010060
50,18,19,Jits_Linear_5,68,9999,9999,9999,1860619372
50,18,19,Jits_Linear_5,69,9999,9999,9999,1861229624
50,18,19,Jits_Linear_5,70,9999,9999,9999,1861849212
50,18,19,Jits_Linear_5,71,9999,9999,9999,1862469740
50,18,19,Jits_Linear_5,72,9999,9999,9999,1863089280
50,18,19,Jits_Linear_5,73,9999,9999,9999,1863709804
50,18,19,Jits_Linear_5,74,9999,9999,9999,1864329316
50,18,19,Jits_Linear_5,75,9999,9999,9999,1864960064
50,18,19,Jits_Linear_5,76,9999,9999,9999,1865600096
50,18,19,Jits_Linear_5,77,9999,9999,9999,1866240092
50,18,19,Jits_Linear_5,78,9999,9999,9999,1866880072
50,18,19,Jits_Linear_5,79,9999,9999,9999,1867520100
50,18,19,Jits_Linear_5,80,9999,9999,9999,1868160068
50,18,19,Jits_Linear_5,81,9999,9999,9999,1868800080
50,18,19,Jits_Linear_5,82,9999,9999,9999,1869440096
50,18,19,Jits_Linear_5,83,9999,9999,9999,1870080120
50,18,19,Jits_Linear_5,84,9999,9999,9999,1870720104
50,18,19,Jits_Linear_5,85,9999,9999,9999,1871379520
50,18,19,Jits_Linear_5,86,9999,9999,9999,1872029820
50,18,19,Jits_Linear_5,87,9999,9999,9999,1872680028
50,18,19,Jits_Linear_5,88,9999,9999,9999,1873329260
50,18,19,Jits_Linear_5,89,9999,9999,9999,1873979492
50,18,19,Jits_Linear_5,90,9999,9999,9999,1874639928
50,18,19,Jits_Linear_5,91,9999,9999,9999,1875299420
50,18,19,Jits_Linear_5,92,9999,9999,9999,1875959932
50,18,19,Jits_Linear_5,93,9999,9999,9999,1876619320
50,18,19,Jits_Linear_5,94,9999,9999,9999,1877279856
50,18,19,Jits_Linear_5,95,9999,9999,9999,1877949564
50,18,19,Jits_Linear_5,96,9999,9999,9999,1878619248
50,18,19,Jits_Linear_5,97,9999,9999,9999,1879289932
50,18,19,Jits_Linear_5,98,9999,9999,9999,1879959664
50,18,19,Jits_Linear_5,99,9999,9999,9999,1880629344
50,18,19,Jits_Linear_5,100,9999,9999,9999,1881309272
50,18,19,Jits_Linear_5,101,9999,9999,9999,1881989236
50,18,19,Jits_Linear_5,102,9999,9999,9999,1882669120
50,18,19,Jits_Linear_5,103,9999,9999,9999,1883350092
50,18,19,Jits_Linear_5,104,9999,9999,9999,1884039276
50,18,19,Jits_Linear_5,105,9999,9999,9999,1884729412
50,18,19,Jits_Linear_5,106,9999,9999,9999,1885419644
50,18,19,Jits_Linear_5,107,9999,9999,9999,1886109804
50,18,19,Jits_Linear_5,108,9999,9999,9999,1886799932
50,18,19,Jits_Linear_5,109,9999,9999,9999,1887489124
50,18,19,Jits_Linear_5,110,9999,9999,9999,1888189548
50,18,19,Jits_Linear_5,111,9999,9999,9999,1888889972
50,18,19,Jits_Linear_5,112,9999,9999,9999,1889589312
50,18,19,Jits_Linear_5,113,9999,9999,9999,1890289736
50,18,19,Jits_Linear_5,114,9999,9999,9999,1890989180
50,18,19,Jits_Linear_5,115,9999,9999,9999,1891699812
50,18,19,Jits_Linear_5,116,9999,9999,9999,1892409420
50,18,19,Jits_Linear_5,117,9999,9999,9999,1893120108
50,18,19,Jits_Linear_5,118,9999,9999,9999,1893839964
50,18,19,Jits_Linear_5,119,9999,9999,9999,1894549592
50,18,19,Jits_Linear_5,120,9999,9999,9999,1895269496
50,18,19,Jits_Linear_5,121,9999,9999,9999,1895989316
50,18,19,Jits_Linear_5,122,9999,9999,9999,1896709212
50,18,19,Jits_Linear_5,123,9999,9999,9999,1897430140
50,18,19,Jits_Linear_5,124,9999,9999,9999,1898159184
50,18,19,Jits_Linear_5,125,9999,9999,9999,1898889276
50,18,19,Jits_Linear_5,126,9999,9999,9999,1899619440
50,18,19,Jits_Linear_5,127,9999,9999,9999,1900349552
50,18,19,Jits_Linear_5,128,9999,9999,9999,1901079652
50,18,19,Jits_Linear_5,129,9999,9999,9999,1901809764
50,18,19,Jits_Linear_5,130,9999,9999,9999,1902550080
50,18,19,Jits_Linear_5,131,9999,9999,9999,1903299676
50,18,19,Jits_Linear_5,132,9999,9999,9999,1904040024
50,18,19,Jits_Linear_5,133,9999,9999,9999,1904779336
50,18,19,Jits_Linear_5,134,9999,9999,9999,1905519736
50,18,19,Jits_Linear_5,135,9999,9999,9999,1906269260
50,18,19,Jits_Linear_5,136,9999,9999,9999,1907019872
50,18,19,Jits_Linear_5,137,9999,9999,9999,1907769472
50,18,19,Jits_Linear_5,138,9999,9999,9999,1908520012
50,18,19,Jits_Linear_5,139,9999,9999,9999,1909269592
50,18,19,Jits_Linear_5,140,9999,9999,9999,1910029420
50,18,19,Jits_Linear_5,141,9999,9999,9999,1910789180
50,18,19,Jits_Linear_5,142,9999,9999,9999,1911550064
50,18,19,Jits_Linear_5,143,9999,9999,9999,1912309860
50,18,19,Jits_Linear_5,144,9999,9999,9999,1913069640
50,18,19,Jits_Linear_5,145,9999,9999,9999,1913839708
50,18,19,Jits_Linear_5,146,9999,9999,9999,1914609736
50,18,19,Jits_Linear_5,147,9999,9999,9999,1915379836
50,18,19,Jits_Linear_5,148,9999,9999,9999,1916149860
50,18,19,Jits_Linear_5,149,9999,9999,9999,1916919884
50,18,19,Jits_Linear_5,150,9999,9999,9999,1917699128
50,18,19,Jits_Linear_5,151,9999,9999,9999,1918479484
50,18,19,Jits_Linear_5,152,9999,9999,9999,1919259744
50,18,19,Jits_Linear_5,153,9999,9999,9999,1920040032
50,18,19,Jits_Linear_5,154,9999,9999,9999,1920819276
50,18,19,Jits_Linear_5,155,9999,9999,9999,1921609840
50,18,19,Jits_Linear_5,156,9999,9999,9999,1922399336
50,18,19,Jits_Linear_5,157,9999,9999,9999,1923189876
50,18,19,Jits_Linear_5,158,9999,9999,9999,1923979364
50,18,19,Jits_Linear_5,159,9999,9999,9999,1924769896
50,18,19,Jits_Linear_5,160,9999,9999,9999,1925569632
50,18,19,Jits_Linear_5,161,9999,9999,9999,1926369356
50,18,19,Jits_Linear_5,162,9999,9999,9999,1927169144
50,18,19,Jits_Linear_5,163,9999,9999,9999,1927969908
50,18,19,Jits_Linear_5,164,9999,9999,9999,1928769624
50,18,19,Jits_Linear_5,165,9999,9999,9999,1929579580
50,18,19,Jits_Linear_5,166,9999,9999,9999,1930389584
50,18,19,Jits_Linear_5,167,9999,9999,9999,1931199588
50,18,19,Jits_Linear_5,168,9999,9999,9999,1932009544
50,18,19,Jits_Linear_5,169,9999,9999,9999,1932819576
50,19,18,Jits_Linear_8,0,5,56,103,1944039812
50,19,18,Jits_Linear_8,1,5,63,98,1944042908
50,19,18,Jits_Linear_8,2,5,80,127,1944046032
50,19,18,Jits_Linear_8,0,1,48,46,1944680568
50,19,18,Jits_Linear_8,1,5,56,103,1944870368
50,19,18,Jits_Linear_8,2,5,63,98,1944873312
50,19,18,Jits_Linear_8,3,5,80,127,1944876588
50,19,18,Jits_Linear_8,0,5,80,127,1945630132
50,19,18,Jits_Linear_8,1,1,48,61,1945633176
50,19,18,Jits_Linear_8,2,5,63,98,1945720432
50,19,18,Jits_Linear_8,3,5,56,103,1945730392
50,19,18,Jits_Linear_8,0,1,48,57,1946438040
50,19,18,Jits_Linear_8,1,5,56,103,1946469824
50,19,18,Jits_Linear_8,2,5,63,98,1946480416
50,19,18,Jits_Linear_8,3,5,80,127,1946570088
50,19,18,Jits_Linear_8,0,1,48,61,1947235000
50,19,18,Jits_Linear_8,1,5,63,98,1947260160
50,19,18,Jits_Linear_8,2,5,80,127,1947289836
50,19,18,Jits_Linear_8,3,5,56,103,1947319660
50,19,18,Jits_Linear_8,0,1,48,52,1948063620
50,19,18,Jits_Linear_8,1,5,56,103,1948079464
50,19,18,Jits_Linear_8,2,5,80,127,1948179776
50,19,18,Jits_Linear_8,3,5,63,98,1948230272
50,19,18,Jits_Linear_8,0,5,56,103,1948889492
50,19,18,Jits_Linear_8,1,1,48,55,1948904364
50,19,18,Jits_Linear_8,2,5,80,127,1948939536
50,19,18,Jits_Linear_8,3,5,63,98,1948979476
50,19,18,Jits_Linear_8,0,1,48,77,1949644412
50,19,18,Jits_Linear_8,1,5,80,127,1949730304
50,19,18,Jits_Linear_8,2,5,63,98,1949759744
50,19,18,Jits_Linear_8,3,5,56,103,1949829376
50,19,18,Jits_Linear_8,0,1,48,67,1950487240
50,19,18,Jits_Linear_8,1,5,63,98,1950569696
50,19,18,Jits_Linear_8,2,5,56,103,1950599608
50,19,18,Jits_Linear_8,3,5,80,127,1950660220
50,19,18,Jits_Linear_8,0,1,48,68,1951303120
50,19,18,Jits_Linear_8,1,5,56,103,1951320600
50,19,18,Jits_Linear_8,2,5,80,127,1951323444
50,19,18,Jits_Linear_8,3,5,63,98,1951440188
50,19,18,Jits_Linear_8,0,1,48,68,1952129044
50,19,18,Jits_Linear_8,1,5,56,103,1952200164
50,19,18,Jits_Linear_8,2,5,80,127,1952240240
50,19,18,Jits_Linear_8,3,5,63,98,1952250288
50,19,18,Jits_Linear_8,0,1,48,67,1952938004
50,19,18,Jits_Linear_8,1,5,56,103,1952959840
50,19,18,Jits_Linear_8,2,5,80,127,1952980376
50,19,18,Jits_Linear_8,3,5,63,98,1953060156
50,19,18,Jits_Linear_8,0,1,48,69,1953731620
50,19,18,Jits_Linear_8,1,5,80,127,1953750524
50,19,18,Jits_Linear_8,2,5,56,103,1953849564
50,19,18,Jits_Linear_8,3,5,63,98,1953860208
50,19,18,Jits_Linear_8,0,1,48,73,1954466408
50,19,18,Jits_Linear_8,1,5,63,98,1954520388
50,19,18,Jits_Linear_8,2,5,80,127,1954579944
50,19,18,Jits_Linear_8,3,5,56,103,1954590140
50,19,18,Jits_Linear_8,0,1,48,70,1955313144
50,19,18,Jits_Linear_8,1,5,56,103,1955320288
50,19,18,Jits_Linear_8,2,5,63,98,1955389896
50,19,18,Jits_Linear_8,3,5,80,127,1955393112
50,19,18,Jits_Linear_8,0,1,48,83,1956023576
50,19,18,Jits_Linear_8,1,5,63,98,1956149540
50,19,18,Jits_Linear_8,2,5,56,103,1956199740
50,19,18,Jits_Linear_8,3,5,80,127,1956202956
50,19,18,Jits_Linear_8,0,1,48,62,1956898168
50,19,18,Jits_Linear_8,1,5,56,103,1956900140
50,19,18,Jits_Linear_8,2,5,80,127,1956903140
50,19,18,Jits_Linear_8,3,5,63,98,1956990452
50,19,18,Jits_Linear_8,0,1,48,86,1957649216
50,19,18,Jits_Linear_8,1,5,63,98,1957729560
50,19,18,Jits_Linear_8,2,5,56,103,1957819852
50,19,18,Jits_Linear_8,3,5,80,127,1957849452
50,19,18,Jits_Linear_8,0,5,56,103,1958510016
50,19,18,Jits_Linear_8,1,1,48,58,1958513136
50,19,18,Jits_Linear_8,2,5,63,98,1958610396
50,19,18,Jits_Linear_8,3,5,80,127,1958640072
50,19,18,Jits_Linear_8,0,1,48,74,1959301224
50,19,18,Jits_Linear_8,1,5,63,98,1959319976
50,19,18,Jits_Linear_8,2,5,56,103,1959330100
50,19,18,Jits_Linear_8,3,5,80,127,1959420216
50,19,18,Jits_Linear_8,0,1,48,73,1960067272
50,19,18,Jits_Linear_8,1,5,63,98,1960119956
50,19,18,Jits_Linear_8,2,5,56,103,1960199436
50,19,18,Jits_Linear_8,3,5,80,127,1960202656
50,19,18,Jits_Linear_8,0,1,48,67,1960813888
50,19,18,Jits_Linear_8,1,5,80,127,1960859996
50,19,18,Jits_Linear_8,2,5,63,98,1960879556
50,19,18,Jits_Linear_8,3,5,56,103,1960940228
50,19,18,Jits_Linear_8,0,1,48,73,1961602108
50,19,18,Jits_Linear_8,1,5,56,103,1961680280
50,19,18,Jits_Linear_8,2,5,63,98,1961699748
50,19,18,Jits_Linear_8,3,5,80,127,1961703264
50,19,18,Jits_Linear_8,0,1,48,60,1962360792
50,19,18,Jits_Linear_8,1,5,63,98,1962400156
50,19,18,Jits_Linear_8,2,5,80,127,1962480088
50,19,18,Jits_Linear_8,3,5,56,103,1962490208
50,19,18,Jits_Linear_8,0,5,63,98,1963199912
50,19,18,Jits_Linear_8,1,1,48,61,1963218008
50,19,18,Jits_Linear_8,2,5,56,103,1963220440
50,19,18,Jits_Linear_8,3,5,80,127,1963269520
50,19,18,Jits_Linear_8,0,5,80,127,1963980188
50,19,18,Jits_Linear_8,1,5,63,98,1964020056
50,19,18,Jits_Linear_8,2,1,48,76,1964038100
50,19,18,Jits_Linear_8,3,5,56,103,1964039684
50,19,18,Jits_Linear_8,0,1,48,70,1964732652
50,19,18,Jits_Linear_8,1,5,56,103,1964790220
50,19,18,Jits_Linear_8,2,5,63,98,1964800416
50,19,18,Jits_Linear_8,3,5,80,127,1964820128
50,19,18,Jits_Linear_8,0,5,56,103,1965489440
50,19,18,Jits_Linear_8,1,1,48,73,1965490404
50,19,18,Jits_Linear_8,2,5,63,98,1965579792
50,19,18,Jits_Linear_8,3,5,80,127,1965640020
50,19,18,Jits_Linear_8,0,1,48,66,1966257644
50,19,18,Jits_Linear_8,1,5,80,127,1966290400
50,19,18,Jits_Linear_8,2,5,56,103,1966299404
50,19,18,Jits_Linear_8,3,5,63,98,1966370116
50,19,18,Jits_Linear_8,0,1,48,57,1967030568
50,19,18,Jits_Linear_8,1,5,63,98,1967090004
50,19,18,Jits_Linear_8,2,5,80,127,1967180128
50,19,18,Jits_Linear_8,3,5,56,103,1967190548
50,19,18,Jits_Linear_8,0,1,48,73,1967786860
50,19,18,Jits_Linear_8,1,5,63,98,1967799636
50,19,18,Jits_Linear_8,2,5,80,127,1967849840
50,19,18,Jits_Linear_8,3,5,56,103,1967910140
50,19,18,Jits_Linear_8,0,1,48,54,1968549916
50,19,18,Jits_Linear_8,1,5,56,103,1968590244
50,19,18,Jits_Linear_8,2,5,80,127,1968640300
50,19,18,Jits_Linear_8,3,5,63,98,1968659700
50,19,18,Jits_Linear_8,0,5,56,103,1969320252
50,19,18,Jits_Linear_8,1,5,80,127,1969379896
50,19,18,Jits_Linear_8,2,1,48,51,1969407136
50,19,18,Jits_Linear_8,3,5,63,98,1969450616
50,19,18,Jits_Linear_8,0,5,56,103,1970080160
50,19,18,Jits_Linear_8,1,5,80,127,1970109764
50,19,18,Jits_Linear_8,2,5,63,98,1970139440
50,19,18,Jits_Linear_8,3,1,48,71,1970142408
50,19,18,Jits_Linear_8,0,1,48,69,1970842272
50,19,18,Jits_Linear_8,1,5,56,103,1970879984
50,19,18,Jits_Linear_8,2,5,80,127,1970900444
50,19,18,Jits_Linear_8,3,5,63,98,1970959700
50,19,18,Jits_Linear_8,0,1,48,53,1971592952
50,19,18,Jits_Linear_8,1,5,80,127,1971719664
50,19,18,Jits_Linear_8,2,5,56,103,1971729712
50,19,18,Jits_Linear_8,3,5,63,98,1971739984
50,19,18,Jits_Linear_8,0,5,56,103,1972430068
50,19,18,Jits_Linear_8,1,1,48,42,1972431556
50,19,18,Jits_Linear_8,2,5,80,127,1972470076
50,19,18,Jits_Linear_8,3,5,63,98,1972499900
50,19,18,Jits_Linear_8,0,5,56,103,1973150052
50,19,18,Jits_Linear_8,1,5,63,98,1973179728
50,19,18,Jits_Linear_8,2,5,80,127,1973219668
50,19,18,Jits_Linear_8,3,1,48,67,1973237756
50,19,18,Jits_Linear_8,0,5,80,127,1973849404
50,19,18,Jits_Linear_8,1,5,63,98,1973899780
50,19,18,Jits_Linear_8,2,5,56,103,1973920240
50,19,18,Jits_Linear_8,3,1,48,62,1973923804
50,19,18,Jits_Linear_8,0,5,56,103,1974629912
50,19,18,Jits_Linear_8,1,1,48,61,1974637624
50,19,18,Jits_Linear_8,2,5,80,127,1974700364
50,19,18,Jits_Linear_8,3,5,63,98,1974759768
50,19,18,Jits_Linear_8,0,5,80,127,1975370124
50,19,18,Jits_Linear_8,1,1,48,69,1975409016
50,19,18,Jits_Linear_8,2,5,63,98,1975460132
50,19,18,Jits_Linear_8,3,5,56,103,1975479620
50,19,18,Jits_Linear_8,0,5,63,98,1976129892
50,19,18,Jits_Linear_8,1,5,56,103,1976150500
50,19,18,Jits_Linear_8,2,1,48,69,1976183684
50,19,18,Jits_Linear_8,3,5,80,127,1976190384
50,19,18,Jits_Linear_8,0,5,80,127,1976830300
50,19,18,Jits_Linear_8,1,5,63,98,1976849712
50,19,18,Jits_Linear_8,2,5,56,103,1976929656
50,19,18,Jits_Linear_8,3,1,48,60,1976938700
50,19,18,Jits_Linear_8,0,5,63,98,1977560536
50,19,18,Jits_Linear_8,1,1,48,74,1977599700
50,19,18,Jits_Linear_8,2,5,56,103,1977670000
50,19,18,Jits_Linear_8,3,5,80,127,1977672916
50,19,18,Jits_Linear_8,0,5,63,98,1978320352
50,19,18,Jits_Linear_8,1,5,56,103,1978329724
50,19,18,Jits_Linear_8,2,5,80,127,1978332788
50,19,18,Jits_Linear_8,3,1,48,66,1978359664
50,19,18,Jits_Linear_8,0,5,56,103,1979040148
50,19,18,Jits_Linear_8,1,1,48,61,1979086268
50,19,18,Jits_Linear_8,2,5,80,127,1979160024
50,19,18,Jits_Linear_8,3,5,63,98,1979200020
50,19,18,Jits_Linear_8,0,5,56,103,1979789652
50,19,18,Jits_Linear_8,1,1,48,68,1979869452
50,19,18,Jits_Linear_8,2,5,80,127,1979870936
50,19,18,Jits_Linear_8,3,5,63,98,1979890128
50,19,18,Jits_Linear_8,0,1,48,71,1980519988
50,19,18,Jits_Linear_8,1,5,56,103,1980530076
50,19,18,Jits_Linear_8,2,5,63,98,1980639752
50,19,18,Jits_Linear_8,3,5,80,127,1980643040
50,19,18,Jits_Linear_8,0,1,48,70,1981287132
50,19,18,Jits_Linear_8,1,5,56,103,1981289944
50,19,18,Jits_Linear_8,2,5,80,127,1981319644
50,19,18,Jits_Linear_8,3,5,63,98,1981340104
50,19,18,Jits_Linear_8,0,5,63,98,1981999652
50,19,18,Jits_Linear_8,1,1,48,67,1982002472
50,19,18,Jits_Linear_8,2,5,56,103,1982009840
50,19,18,Jits_Linear_8,3,5,80,127,1982020036
50,19,18,Jits_Linear_8,0,1,48,69,1982658824
50,19,18,Jits_Linear_8,1,5,80,127,1982710240
50,19,18,Jits_Linear_8,2,5,56,103,1982760428
50,19,18,Jits_Linear_8,3,5,63,98,1982800664
50,19,18,Jits_Linear_8,0,1,48,62,1983331928
50,19,18,Jits_Linear_8,1,5,80,127,1983449596
50,19,18,Jits_Linear_8,2,5,63,98,1983469980
50,19,18,Jits_Linear_8,3,5,56,103,1983520180
50,19,18,Jits_Linear_8,0,1,48,68,1984120172
50,19,18,Jits_Linear_8,1,5,80,127,1984179608
50,19,18,Jits_Linear_8,2,5,56,103,1984210332
50,19,18,Jits_Linear_8,3,5,63,98,1984279924
50,19,18,Jits_Linear_8,0,1,48,70,1984925016
50,19,18,Jits_Linear_8,1,5,56,103,1984949552
50,19,18,Jits_Linear_8,2,5,80,127,1984959820
50,19,18,Jits_Linear_8,3,5,63,98,1984999684
50,19,18,Jits_Linear_8,0,5,56,103,1985580488
50,19,18,Jits_Linear_8,1,5,63,98,1985599828
50,19,18,Jits_Linear_8,2,5,80,127,1985669608
50,19,18,Jits_Linear_8,3,1,48,73,1985673700
50,19,18,Jits_Linear_8,0,1,48,70,1986292268
50,19,18,Jits_Linear_8,1,5,63,98,1986319792
50,19,18,Jits_Linear_8,2,5,80,127,1986380332
50,19,18,Jits_Linear_8,3,5,56,103,1986399656
50,19,18,Jits_Linear_8,0,5,80,127,1987020284
50,19,18,Jits_Linear_8,1,1,48,74,1987038696
50,19,18,Jits_Linear_8,2,5,56,103,1987049808
50,19,18,Jits_Linear_8,3,5,63,98,1987079480
50,19,18,Jits_Linear_8,0,5,56,103,1987729768
50,19,18,Jits_Linear_8,1,1,48,80,1987754016
50,19,18,Jits_Linear_8,2,5,63,98,1987790304
50,19,18,Jits_Linear_8,3,5,80,127,1987849576
50,19,18,Jits_Linear_8,0,1,48,75,1988424508
50,19,18,Jits_Linear_8,1,5,80,127,1988460156
50,19,18,Jits_Linear_8,2,5,56,103,1988480468
50,19,18,Jits_Linear_8,3,5,63,98,1988549984
50,19,18,Jits_Linear_8,0,5,80,127,1989169468
50,19,18,Jits_Linear_8,1,5,63,98,1989189928
50,19,18,Jits_Linear_8,2,5,56,103,1989219680
50,19,18,Jits_Linear_8,3,1,48,63,1989287540
50,19,18,Jits_Linear_8,0,5,80,127,1989859704
50,19,18,Jits_Linear_8,1,5,63,98,1989880608
50,19,18,Jits_Linear_8,2,1,48,75,1989881500
50,19,18,Jits_Linear_8,3,5,56,103,1989939576
50,19,18,Jits_Linear_8,0,5,80,127,1990560276
50,19,18,Jits_Linear_8,1,1,48,62,1990630152
50,19,18,Jits_Linear_8,2,5,56,103,1990659472
50,19,18,Jits_Linear_8,3,5,63,98,1990690420
50,19,18,Jits_Linear_8,0,1,48,68,1991241920
50,19,18,Jits_Linear_8,1,5,63,98,1991250484
50,19,18,Jits_Linear_8,2,5,80,127,1991299516
50,19,18,Jits_Linear_8,3,5,56,103,1991319828
50,19,18,Jits_Linear_8,0,1,48,62,1991954908
50,19,18,Jits_Linear_8,1,5,80,127,1991989632
50,19,18,Jits_Linear_8,2,5,56,103,1992020424
50,19,18,Jits_Linear_8,3,5,63,98,1992023568
50,19,18,Jits_Linear_8,0,1,48,54,1992591484
50,19,18,Jits_Linear_8,1,5,63,98,1992719768
50,19,18,Jits_Linear_8,2,5,56,103,1992759632
50,19,18,Jits_Linear_8,3,5,80,127,1992780316
50,19,18,Jits_Linear_8,0,5,80,127,1993359740
50,19,18,Jits_Linear_8,1,1,48,62,1993396788
50,19,18,Jits_Linear_8,2,5,63,98,1993439608
50,19,18,Jits_Linear_8,3,5,56,103,1993479620
50,19,18,Jits_Linear_8,0,5,63,98,1994070480
50,19,18,Jits_Linear_8,1,5,80,127,1994150304
50,19,18,Jits_Linear_8,2,1,48,68,1994156492
50,19,18,Jits_Linear_8,3,5,56,103,1994169712
50,19,18,Jits_Linear_8,0,5,56,103,1994799448
50,19,18,Jits_Linear_8,1,1,48,74,1994809192
50,19,18,Jits_Linear_8,2,5,63,98,1994810684
50,19,18,Jits_Linear_8,3,5,80,127,1994849576
50,19,18,Jits_Linear_8,0,5,56,103,1995409820
50,19,18,Jits_Linear_8,1,5,80,127,1995412736
50,19,18,Jits_Linear_8,2,1,48,64,1995478348
50,19,18,Jits_Linear_8,3,5,63,98,1995550136
50,19,18,Jits_Linear_8,0,5,56,103,1996089684
50,19,18,Jits_Linear_8,1,1,48,67,1996171868
50,19,18,Jits_Linear_8,2,5,63,98,1996179764
50,19,18,Jits_Linear_8,3,5,80,127,1996249592
50,19,18,Jits_Linear_8,0,5,63,98,1996849452
50,19,18,Jits_Linear_8,1,5,80,127,1996852816
50,19,18,Jits_Linear_8,2,1,48,65,1996906656
50,19,18,Jits_Linear_8,3,5,56,103,1996910080
50,19,18,Jits_Linear_8,0,5,80,127,1997570536
50,19,18,Jits_Linear_8,1,5,56,103,1997589724
50,19,18,Jits_Linear_8,2,5,63,98,1997600292
50,19,18,Jits_Linear_8,3,1,48,67,1997622144
50,19,18,Jits_Linear_8,0,5,56,103,1998160208
50,19,18,Jits_Linear_8,1,5,63,98,1998169432
50,19,18,Jits_Linear_8,2,5,80,127,1998240040
50,19,18,Jits_Linear_8,3,1,48,66,1998319724
50,19,18,Jits_Linear_8,0,5,80,127,1998840252
50,19,18,Jits_Linear_8,1,5,56,103,1998890308
50,19,18,Jits_Linear_8,2,5,63,98,1998939464
50,19,18,Jits_Linear_8,3,1,48,70,1998973616
50,19,18,Jits_Linear_8,0,5,56,103,1999600100
50,19,18,Jits_Linear_8,1,5,63,98,1999610220
50,19,18,Jits_Linear_8,2,5,80,127,1999650384
50,19,18,Jits_Linear_8,3,1,48,65,1999657540
50,19,18,Jits_Linear_8,4,1,48,20,1999774484
50,19,18,Jits_Linear_8,0,5,56,103,2000219492
50,19,18,Jits_Linear_8,1,5,63,98,2000259308
50,19,18,Jits_Linear_8,2,5,80,127,2000309656
50,19,18,Jits_Linear_8,3,1,48,61,2000336220
50,19,18,Jits_Linear_8,0,5,80,127,2000850316
50,19,18,Jits_Linear_8,1,5,56,103,2000899548
50,19,18,Jits_Linear_8,2,5,63,98,2000919932
50,19,18,Jits_Linear_8,3,1,48,61,2000997600
50,19,18,Jits_Linear_8,0,5,80,127,2001530208
50,19,18,Jits_Linear_8,1,1,48,62,2001560756
50,19,18,Jits_Linear_8,2,5,63,98,2001589548
50,19,18,Jits_Linear_8,3,5,56,103,2001669476
50,19,18,Jits_Linear_8,0,5,80,127,2002179368
50,19,18,Jits_Linear_8,1,5,56,103,2002220356
50,19,18,Jits_Linear_8,2,1,48,67,2002227384
50,19,18,Jits_Linear_8,3,5,63,98,2002239984
50,19,18,Jits_Linear_8,0,5,56,103,2002900316
50,19,18,Jits_Linear_8,1,5,80,127,2002909464
50,19,18,Jits_Linear_8,2,1,48,64,2002943300
50,19,18,Jits_Linear_8,3,5,63,98,2002949396
50,19,18,Jits_Linear_8,0,1,48,60,2003560080
50,19,18,Jits_Linear_8,1,5,56,103,2003629436
50,19,18,Jits_Linear_8,2,5,63,98,2003670252
50,19,18,Jits_Linear_8,3,5,80,127,2003673548
50,19,18,Jits_Linear_8,0,5,63,98,2004180356
50,19,18,Jits_Linear_8,1,5,80,127,2004220220
50,19,18,Jits_Linear_8,2,5,56,103,2004290052
50,19,18,Jits_Linear_8,3,1,48,66,2004303136
50,19,18,Jits_Linear_8,0,5,63,98,2004829564
50,19,18,Jits_Linear_8,1,5,56,103,2004909460
50,19,18,Jits_Linear_8,2,5,80,127,2004970072
50,19,18,Jits_Linear_8,3,1,48,59,2005012224
50,19,18,Jits_Linear_8,0,5,80,127,2005500304
50,19,18,Jits_Linear_8,1,5,63,98,2005549388
50,19,18,Jits_Linear_8,2,5,56,103,2005580332
50,19,18,Jits_Linear_8,3,1,48,57,2005628208
50,19,18,Jits_Linear_8,0,5,56,103,2006149408
50,19,18,Jits_Linear_8,1,5,63,98,2006199612
50,19,18,Jits_Linear_8,2,5,80,127,2006210108
50,19,18,Jits_Linear_8,3,1,48,55,2006294428
50,19,18,Jits_Linear_8,0,5,56,103,2006820136
50,19,18,Jits_Linear_8,1,1,48,65,2006889640
50,19,18,Jits_Linear_8,2,5,63,98,2006929844
50,19,18,Jits_Linear_8,3,5,80,127,2006950380
50,19,18,Jits_Linear_8,0,5,63,98,2007469396
50,19,18,Jits_Linear_8,1,5,80,127,2007519524
50,19,18,Jits_Linear_8,2,1,48,65,2007551264
50,19,18,Jits_Linear_8,3,5,56,103,2007609804
50,19,18,Jits_Linear_8,0,5,63,98,2008109400
50,19,18,Jits_Linear_8,1,5,80,127,2008140124
50,19,18,Jits_Linear_8,2,1,48,60,2008156796
50,19,18,Jits_Linear_8,3,5,56,103,2008230276
50,19,18,Jits_Linear_8,0,5,63,98,2008759612
50,19,18,Jits_Linear_8,1,5,56,103,2008770180
50,19,18,Jits_Linear_8,2,1,48,60,2008813756
50,19,18,Jits_Linear_8,3,5,80,127,2008870420
50,19,18,Jits_Linear_8,4,1,48,36,2008914648
50,19,18,Jits_Linear_8,0,1,48,57,2009475168
50,19,18,Jits_Linear_8,1,5,63,98,2009510260
50,19,18,Jits_Linear_8,2,5,80,127,2009540088
50,19,18,Jits_Linear_8,3,5,56,103,2009570192
50,19,18,Jits_Linear_8,0,1,48,57,2010129572
50,19,18,Jits_Linear_8,1,5,80,127,2010169680
50,19,18,Jits_Linear_8,2,5,63,98,2010179876
50,19,18,Jits_Linear_8,3,5,56,103,2010209848
50,19,18,Jits_Linear_8,0,5,80,127,2010710272
50,19,18,Jits_Linear_8,1,5,63,98,2010730060
50,19,18,Jits_Linear_8,2,5,56,103,2010780184
50,19,18,Jits_Linear_8,3,1,48,58,2010812448
50,19,18,Jits_Linear_8,0,5,63,98,2011380108
50,19,18,Jits_Linear_8,1,1,48,48,2011431772
50,19,18,Jits_Linear_8,2,5,80,127,2011439520
50,19,18,Jits_Linear_8,3,5,56,103,2011460052
50,19,18,Jits_Linear_8,0,5,63,98,2011980104
50,19,18,Jits_Linear_8,1,5,56,103,2012030180
50,19,18,Jits_Linear_8,2,5,80,127,2012039552
50,19,18,Jits_Linear_8,3,1,48,47,2012094356
50,19,18,Jits_Linear_8,4,1,48,19,2012191056
50,19,18,Jits_Linear_8,0,5,56,103,2012650068
50,19,18,Jits_Linear_8,1,5,80,127,2012660040
50,19,18,Jits_Linear_8,2,1,48,49,2012699652
50,19,18,Jits_Linear_8,3,5,63,98,2012760356
50,19,18,Jits_Linear_8,0,5,80,127,2013249924
50,19,18,Jits_Linear_8,1,5,63,98,2013260048
50,19,18,Jits_Linear_8,2,1,48,56,2013342904
50,19,18,Jits_Linear_8,3,5,56,103,2013409832
50,19,18,Jits_Linear_8,0,5,63,98,2013889964
50,19,18,Jits_Linear_8,1,5,80,127,2013929832
50,19,18,Jits_Linear_8,2,1,48,59,2013989896
50,19,18,Jits_Linear_8,3,5,56,103,2014009768
50,19,18,Jits_Linear_8,0,5,56,103,2014509364
50,19,18,Jits_Linear_8,1,5,80,127,2014610012
50,19,18,Jits_Linear_8,2,5,63,98,2014630324
50,19,18,Jits_Linear_8,3,1,48,54,2014648280
50,19,18,Jits_Linear_8,0,5,80,127,2015199532
50,19,18,Jits_Linear_8,1,1,48,69,2015201468
50,19,18,Jits_Linear_8,2,5,56,103,2015209944
50,19,18,Jits_Linear_8,3,5,63,98,2015299912
50,19,18,Jits_Linear_8,0,5,56,103,2015830340
50,19,18,Jits_Linear_8,1,5,63,98,2015849976
50,19,18,Jits_Linear_8,2,1,48,73,2015865376
50,19,18,Jits_Linear_8,3,5,80,127,2015929764
50,19,18,Jits_Linear_8,0,5,63,98,2016399856
50,19,18,Jits_Linear_8,1,5,56,103,2016489768
50,19,18,Jits_Linear_8,2,1,48,69,2016492532
50,19,18,Jits_Linear_8,3,5,80,127,2016494172
50,19,18,Jits_Linear_8,0,5,56,103,2017049964
50,19,18,Jits_Linear_8,1,1,48,67,2017063496
50,19,18,Jits_Linear_8,2,5,80,127,2017110280
50,19,18,Jits_Linear_8,3,5,63,98,2017119724
50,19,18,Jits_Linear_8,0,1,48,67,2017635924
50,19,18,Jits_Linear_8,1,5,80,127,2017719896
50,19,18,Jits_Linear_8,2,5,56,103,2017729924
50,19,18,Jits_Linear_8,3,5,63,98,2017732992
50,19,18,Jits_Linear_8,0,1,48,67,2018260740
50,19,18,Jits_Linear_8,1,5,56,103,2018300176
50,19,18,Jits_Linear_8,2,5,80,127,2018309696
50,19,18,Jits_Linear_8,3,5,63,98,2018329932
50,19,18,Jits_Linear_8,0,5,63,98,2018889984
50,19,18,Jits_Linear_8,1,1,48,63,2018896692
50,19,18,Jits_Linear_8,2,5,80,127,2018949572
50,19,18,Jits_Linear_8,3,5,56,103,2018999832
50,19,18,Jits_Linear_8,0,1,48,69,2019521960
50,19,18,Jits_Linear_8,1,5,63,98,2019589644
50,19,18,Jits_Linear_8,2,5,56,103,2019600064
50,19,18,Jits_Linear_8,3,5,80,127,2019649956
50,19,18,Jits_Linear_8,0,5,63,98,2020099372
50,19,18,Jits_Linear_8,1,5,80,127,2020119904
50,19,18,Jits_Linear_8,2,5,56,103,2020130028
50,19,18,Jits_Linear_8,3,1,48,65,2020164452
50,19,18,Jits_Linear_8,0,5,63,98,2020709692
50,19,18,Jits_Linear_8,1,5,80,127,2020712980
50,19,18,Jits_Linear_8,2,5,56,103,2020749804
50,19,18,Jits_Linear_8,3,1,48,62,2020799528
50,19,18,Jits_Linear_8,0,5,63,98,2021389788
50,19,18,Jits_Linear_8,1,1,48,52,2021392832
50,19,18,Jits_Linear_8,2,5,80,127,2021420432
50,19,18,Jits_Linear_8,3,5,56,103,2021429952
50,19,18,Jits_Linear_8,0,5,56,103,2021949776
50,19,18,Jits_Linear_8,1,5,80,127,2021979676
50,19,18,Jits_Linear_8,2,1,48,48,2021992012
50,19,18,Jits_Linear_8,3,5,63,98,2022010116
50,19,18,Jits_Linear_8,0,1,48,44,2022511640
50,19,18,Jits_Linear_8,1,5,63,98,2022650336
50,19,18,Jits_Linear_8,2,5,56,103,2022690124
50,19,18,Jits_Linear_8,3,5,80,127,2022693340
50,19,18,Jits_Linear_8,0,5,80,127,2023149808
50,19,18,Jits_Linear_8,1,5,56,103,2023229756
50,19,18,Jits_Linear_8,2,1,48,47,2023271460
50,19,18,Jits_Linear_8,3,5,63,98,2023280048
50,19,18,Jits_Linear_8,0,5,80,127,2023729884
50,19,18,Jits_Linear_8,1,5,56,103,2023749976
50,19,18,Jits_Linear_8,2,1,48,68,2023834104
50,19,18,Jits_Linear_8,3,5,63,98,2023840200
50,19,18,Jits_Linear_8,0,5,80,127,2024369780
50,19,18,Jits_Linear_8,1,1,48,57,2024370744
50,19,18,Jits_Linear_8,2,5,63,98,2024409488
50,19,18,Jits_Linear_8,3,5,56,103,2024450696
50,19,18,Jits_Linear_8,0,5,63,98,2024939968
50,19,18,Jits_Linear_8,1,1,48,62,2024969468
50,19,18,Jits_Linear_8,2,5,80,127,2025000504
50,19,18,Jits_Linear_8,3,5,56,103,2025030028
50,19,18,Jits_Linear_8,4,1,48,21,2025052540
50,19,18,Jits_Linear_8,0,1,48,59,2025503036
50,19,18,Jits_Linear_8,1,5,56,103,2025540072
50,19,18,Jits_Linear_8,2,5,80,127,2025569600
50,19,18,Jits_Linear_8,3,5,63,98,2025659744
50,19,18,Jits_Linear_8,0,1,48,65,2026129436
50,19,18,Jits_Linear_8,1,5,56,103,2026139944
50,19,18,Jits_Linear_8,2,5,80,127,2026249772
50,19,18,Jits_Linear_8,3,5,63,98,2026280344
50,19,18,Jits_Linear_8,0,5,56,103,2026779960
50,19,18,Jits_Linear_8,1,1,48,50,2026797004
50,19,18,Jits_Linear_8,2,5,63,98,2026840716
50,19,18,Jits_Linear_8,3,5,80,127,2026870120
50,19,18,Jits_Linear_8,0,5,56,103,2027340116
50,19,18,Jits_Linear_8,1,1,48,63,2027371504
50,19,18,Jits_Linear_8,2,5,63,98,2027409744
50,19,18,Jits_Linear_8,3,5,80,127,2027430128
50,19,18,Jits_Linear_8,0,5,80,127,2027900372
50,19,18,Jits_Linear_8,1,5,63,98,2027919712
50,19,18,Jits_Linear_8,2,1,48,60,2027932268
50,19,18,Jits_Linear_8,3,5,56,103,2027969828
50,19,18,Jits_Linear_8,0,1,48,64,2028492852
50,19,18,Jits_Linear_8,1,5,63,98,2028500444
50,19,18,Jits_Linear_8,2,5,80,127,2028509520
50,19,18,Jits_Linear_8,3,5,56,103,2028559796
50,19,18,Jits_Linear_8,0,1,48,62,2029078856
50,19,18,Jits_Linear_8,1,5,63,98,2029080428
50,19,18,Jits_Linear_8,2,5,80,127,2029149516
50,19,18,Jits_Linear_8,3,5,56,103,2029170076
50,19,18,Jits_Linear_8,0,5,63,98,2029690200
50,19,18,Jits_Linear_8,1,5,80,127,2029693564
50,19,18,Jits_Linear_8,2,1,48,62,2029745756
50,19,18,Jits_Linear_8,3,5,56,103,2029759800
50,19,18,Jits_Linear_8,0,5,80,127,2030219540
50,19,18,Jits_Linear_8,1,5,56,103,2030240148
50,19,18,Jits_Linear_8,2,5,63,98,2030250492
50,19,18,Jits_Linear_8,3,1,48,63,2030392876
50,19,18,Jits_Linear_8,0,5,56,103,2030819692
50,19,18,Jits_Linear_8,1,5,63,98,2030909672
50,19,18,Jits_Linear_8,2,5,80,127,2030912968
50,19,18,Jits_Linear_8,3,1,48,63,2030935036
50,19,18,Jits_Linear_8,0,5,80,127,2031369572
50,19,18,Jits_Linear_8,1,5,56,103,2031379692
50,19,18,Jits_Linear_8,2,5,63,98,2031400600
50,19,18,Jits_Linear_8,3,1,48,49,2031453984
50,19,18,Jits_Linear_8,0,1,48,54,2031920840
50,19,18,Jits_Linear_8,1,5,63,98,2031939972
50,19,18,Jits_Linear_8,2,5,80,127,2032000468
50,19,18,Jits_Linear_8,3,5,56,103,2032009616
50,19,18,Jits_Linear_8,0,1,48,58,2032502276
50,19,18,Jits_Linear_8,1,5,63,98,2032579928
50,19,18,Jits_Linear_8,2,5,80,127,2032609592
50,19,18,Jits_Linear_8,3,5,56,103,2032649532
50,19,18,Jits_Linear_8,0,1,48,59,2033107664
50,19,18,Jits_Linear_8,1,5,56,103,2033140220
50,19,18,Jits_Linear_8,2,5,80,127,2033150488
50,19,18,Jits_Linear_8,3,5,63,98,2033190352
50,19,18,Jits_Linear_8,0,5,80,127,2033669424
50,19,18,Jits_Linear_8,1,1,48,62,2033723036
50,19,18,Jits_Linear_8,2,5,56,103,2033750560
50,19,18,Jits_Linear_8,3,5,63,98,2033759636
50,19,18,Jits_Linear_8,0,5,80,127,2034279776
50,19,18,Jits_Linear_8,1,1,48,55,2034303000
50,19,18,Jits_Linear_8,2,5,56,103,2034359592
50,19,18,Jits_Linear_8,3,5,63,98,2034370088
50,19,18,Jits_Linear_8,0,5,80,127,2034800024
50,19,18,Jits_Linear_8,1,5,56,103,2034850448
50,19,18,Jits_Linear_8,2,1,48,62,2034864208
50,19,18,Jits_Linear_8,3,5,63,98,2034900792
50,19,18,Jits_Linear_8,0,1,48,67,2035411836
50,19,18,Jits_Linear_8,1,5,56,103,2035419432
50,19,18,Jits_Linear_8,2,5,63,98,2035422500
50,19,18,Jits_Linear_8,3,5,80,127,2035469636
50,19,18,Jits_Linear_8,0,1,48,60,2035994296
50,19,18,Jits_Linear_8,1,5,56,103,2036000244
50,19,18,Jits_Linear_8,2,5,63,98,2036029700
50,19,18,Jits_Linear_8,3,5,80,127,2036040044
50,19,18,Jits_Linear_8,0,5,63,98,2036470412
50,19,18,Jits_Linear_8,1,5,56,103,2036539724
50,19,18,Jits_Linear_8,2,1,48,62,2036584500
50,19,18,Jits_Linear_8,3,5,80,127,2036589796
50,19,18,Jits_Linear_8,0,5,63,98,2037060000
50,19,18,Jits_Linear_8,1,5,56,103,2037070272
50,19,18,Jits_Linear_8,2,5,80,127,2037073112
50,19,18,Jits_Linear_8,3,1,48,61,2037115364
50,19,18,Jits_Linear_8,0,5,80,127,2037559592
50,19,18,Jits_Linear_8,1,5,56,103,2037620084
50,19,18,Jits_Linear_8,2,1,48,66,2037644328
50,19,18,Jits_Linear_8,3,5,63,98,2037710432
50,19,18,Jits_Linear_8,0,5,80,127,2038109560
50,19,18,Jits_Linear_8,1,5,56,103,2038209760
50,19,18,Jits_Linear_8,2,1,48,62,2038228764
50,19,18,Jits_Linear_8,3,5,63,98,2038249840
50,19,18,Jits_Linear_8,0,5,56,103,2038709600
50,19,18,Jits_Linear_8,1,5,63,98,2038730060
50,19,18,Jits_Linear_8,2,5,80,127,2038770000
50,19,18,Jits_Linear_8,3,1,48,59,2038772896
50,19,18,Jits_Linear_8,0,5,63,98,2039229748
50,19,18,Jits_Linear_8,1,5,56,103,2039250356
50,19,18,Jits_Linear_8,2,1,48,65,2039312512
50,19,18,Jits_Linear_8,3,5,80,127,2039349548
50,19,18,Jits_Linear_8,0,5,63,98,2039760360
50,19,18,Jits_Linear_8,1,1,48,62,2039849868
50,19,18,Jits_Linear_8,2,5,80,127,2039869676
50,19,18,Jits_Linear_8,3,5,56,103,2039899500
50,19,18,Jits_Linear_8,0,5,56,103,2040320356
50,19,18,Jits_Linear_8,1,5,63,98,2040350256
50,19,18,Jits_Linear_8,2,1,48,64,2040364008
50,19,18,Jits_Linear_8,3,5,80,127,2040400228
50,19,18,Jits_Linear_8,0,5,63,98,2040830232
50,19,18,Jits_Linear_8,1,5,56,103,2040860204
50,19,18,Jits_Linear_8,2,1,48,63,2040882432
50,19,18,Jits_Linear_8,3,5,80,127,2040910476
50,19,18,Jits_Linear_8,0,1,48,62,2041398600
50,19,18,Jits_Linear_8,1,5,56,103,2041400244
50,19,18,Jits_Linear_8,2,5,63,98,2041420408
50,19,18,Jits_Linear_8,3,5,80,127,2041500140
50,19,18,Jits_Linear_8,0,5,63,98,2041909596
50,19,18,Jits_Linear_8,1,1,48,61,2041933392
50,19,18,Jits_Linear_8,2,5,56,103,2041970008
50,19,18,Jits_Linear_8,3,5,80,127,2041999832
50,19,18,Jits_Linear_8,0,1,48,59,2042482384
50,19,18,Jits_Linear_8,1,5,56,103,2042490504
50,19,18,Jits_Linear_8,2,5,80,127,2042549552
50,19,18,Jits_Linear_8,3,5,63,98,2042589476
50,19,18,Jits_Linear_8,0,5,63,98,2043000232
50,19,18,Jits_Linear_8,1,1,48,65,2043043360
50,19,18,Jits_Linear_8,2,5,56,103,2043059572
50,19,18,Jits_Linear_8,3,5,80,127,2043130152
50,19,18,Jits_Linear_8,0,1,48,62,2043566480
50,19,18,Jits_Linear_8,1,5,56,103,2043609448
50,19,18,Jits_Linear_8,2,5,63,98,2043619560
50,19,18,Jits_Linear_8,3,5,80,127,2043622932
50,19,18,Jits_Linear_8,0,5,63,98,2044079456
50,19,18,Jits_Linear_8,1,1,48,59,2044138856
50,19,18,Jits_Linear_8,2,5,56,103,2044140524
50,19,18,Jits_Linear_8,3,5,80,127,2044143280
50,19,18,Jits_Linear_8,0,5,63,98,2044589320
50,19,18,Jits_Linear_8,1,5,80,127,2044620268
50,19,18,Jits_Linear_8,2,5,56,103,2044639528
50,19,18,Jits_Linear_8,3,1,48,60,2044691044
50,19,18,Jits_Linear_8,0,5,56,103,2045119860
50,19,18,Jits_Linear_8,1,5,63,98,2045170288
50,19,18,Jits_Linear_8,2,1,48,59,2045199260
50,19,18,Jits_Linear_8,3,5,80,127,2045249780
50,19,18,Jits_Linear_8,0,5,80,127,2045619560
50,19,18,Jits_Linear_8,1,5,63,98,2045659500
50,19,18,Jits_Linear_8,2,1,48,54,2045662544
50,19,18,Jits_Linear_8,3,5,56,103,2045680248
50,19,18,Jits_Linear_8,0,1,48,54,2046197196
50,19,18,Jits_Linear_8,1,5,56,103,2046210272
50,19,18,Jits_Linear_8,2,5,80,127,2046219720
50,19,18,Jits_Linear_8,3,5,63,98,2046240400
50,19,18,Jits_Linear_8,0,5,56,103,2046710260
50,19,18,Jits_Linear_8,1,1,48,53,2046742076
50,19,18,Jits_Linear_8,2,5,63,98,2046760160
50,19,18,Jits_Linear_8,3,5,80,127,2046790284
50,19,18,Jits_Linear_8,0,5,56,103,2047180364
50,19,18,Jits_Linear_8,1,5,63,98,2047190336
50,19,18,Jits_Linear_8,2,5,80,127,2047239492
50,19,18,Jits_Linear_8,3,1,48,46,2047284632
50,19,18,Jits_Linear_8,0,5,56,103,2047690164
50,19,18,Jits_Linear_8,1,5,80,127,2047693380
50,19,18,Jits_Linear_8,2,1,48,52,2047787240
50,19,18,Jits_Linear_8,3,5,63,98,2047849988
50,19,18,Jits_Linear_8,0,5,63,98,2048219520
50,19,18,Jits_Linear_8,1,5,56,103,2048290324
50,19,18,Jits_Linear_8,2,1,48,50,2048299816
50,19,18,Jits_Linear_8,3,5,80,127,2048330032
50,19,18,Jits_Linear_8,0,5,63,98,2048770368
50,19,18,Jits_Linear_8,1,1,48,58,2048805844
50,19,18,Jits_Linear_8,2,5,56,103,2048859448
50,19,18,Jits_Linear_8,3,5,80,127,2048862664
50,19,18,Jits_Linear_8,0,5,56,103,2049260000
50,19,18,Jits_Linear_8,1,1,48,61,2049304472
50,19,18,Jits_Linear_8,2,5,63,98,2049350132
50,19,18,Jits_Linear_8,3,5,80,127,2049360328
50,19,18,Jits_Linear_8,0,5,56,103,2049740288
50,19,18,Jits_Linear_8,1,5,63,98,2049790420
50,19,18,Jits_Linear_8,2,5,80,127,2049820168
50,19,18,Jits_Linear_8,3,1,48,47,2049845608
50,19,18,Jits_Linear_8,0,5,63,98,2050319924
50,19,18,Jits_Linear_8,1,5,80,127,2050330048
50,19,18,Jits_Linear_8,2,5,56,103,2050390360
50,19,18,Jits_Linear_8,3,1,48,57,2050398056
50,19,18,Jits_Linear_8,0,5,63,98,2050739588
50,19,18,Jits_Linear_8,1,5,80,127,2050800280
50,19,18,Jits_Linear_8,2,5,56,103,2050839992
50,19,18,Jits_Linear_8,3,1,48,53,2050941872
50,19,18,Jits_Linear_8,0,5,56,103,2051339588
50,19,18,Jits_Linear_8,1,5,80,127,2051360268
50,19,18,Jits_Linear_8,2,5,63,98,2051379608
50,19,18,Jits_Linear_8,3,1,48,46,2051461192
50,19,18,Jits_Linear_8,0,5,63,98,2051759344
50,19,18,Jits_Linear_8,1,5,56,103,2051780100
50,19,18,Jits_Linear_8,2,5,80,127,2051820040
50,19,18,Jits_Linear_8,3,1,48,49,2051955700
50,19,18,Jits_Linear_8,0,5,63,98,2052269436
50,19,18,Jits_Linear_8,1,5,80,127,2052300160
50,19,18,Jits_Linear_8,2,5,56,103,2052319572
50,19,18,Jits_Linear_8,3,1,48,57,2052478464
50,19,18,Jits_Linear_8,0,5,80,127,2052739368
50,19,18,Jits_Linear_8,1,5,56,103,2052789572
50,19,18,Jits_Linear_8,2,5,63,98,2052850036
50,19,18,Jits_Linear_8,3,1,48,50,2053024724
50,19,18,Jits_Linear_8,0,5,63,98,2053219700
50,19,18,Jits_Linear_8,1,5,56,103,2053339456
50,19,18,Jits_Linear_8,2,5,80,127,2053370176
50,19,18,Jits_Linear_8,0,1,48,53,2053668888
50,19,18,Jits_Linear_8,1,5,80,127,2053750224
50,19,18,Jits_Linear_8,2,5,63,98,2053769548
50,19,18,Jits_Linear_8,3,5,56,103,2053840200
50,19,18,Jits_Linear_8,0,1,48,66,2054257360
50,19,18,Jits_Linear_8,1,5,63,98,2054260020
50,19,18,Jits_Linear_8,2,5,56,103,2054270288
50,19,18,Jits_Linear_8,3,5,80,127,2054350144
50,19,18,Jits_Linear_8,0,5,56,103,2054810128
50,19,18,Jits_Linear_8,1,1,48,59,2054821788
50,19,18,Jits_Linear_8,2,5,80,127,2054839648
50,19,18,Jits_Linear_8,3,5,63,98,2054849920
50,19,18,Jits_Linear_8,0,9999,9999,9999,1944448120
50,19,18,Jits_Linear_8,1,9999,9999,9999,1945277552
50,19,18,Jits_Linear_8,2,9999,9999,9999,1946097760
50,19,18,Jits_Linear_8,3,9999,9999,9999,1946917976
50,19,18,Jits_Linear_8,4,9999,9999,9999,1947737204
50,19,18,Jits_Linear_8,5,9999,9999,9999,1948547176
50,19,18,Jits_Linear_8,6,9999,9999,9999,1949357116
50,19,18,Jits_Linear_8,7,9999,9999,9999,1950167152
50,19,18,Jits_Linear_8,8,9999,9999,9999,1950977100
50,19,18,Jits_Linear_8,9,9999,9999,9999,1951787104
50,19,18,Jits_Linear_8,10,9999,9999,9999,1952587840
50,19,18,Jits_Linear_8,11,9999,9999,9999,1953387596
50,19,18,Jits_Linear_8,12,9999,9999,9999,1954187372
50,19,18,Jits_Linear_8,13,9999,9999,9999,1954987124
50,19,18,Jits_Linear_8,14,9999,9999,9999,1955787836
50,19,18,Jits_Linear_8,15,9999,9999,9999,1956577396
50,19,18,Jits_Linear_8,16,9999,9999,9999,1957367920
50,19,18,Jits_Linear_8,17,9999,9999,9999,1958157416
50,19,18,Jits_Linear_8,18,9999,9999,9999,1958947960
50,19,18,Jits_Linear_8,19,9999,9999,9999,1959737468
50,19,18,Jits_Linear_8,20,9999,9999,9999,1960517740
50,19,18,Jits_Linear_8,21,9999,9999,9999,1961298012
50,19,18,Jits_Linear_8,22,9999,9999,9999,1962077304
50,19,18,Jits_Linear_8,23,9999,9999,9999,1962857576
50,19,18,Jits_Linear_8,24,9999,9999,9999,1963637868
50,19,18,Jits_Linear_8,25,9999,9999,9999,1964407884
50,19,18,Jits_Linear_8,26,9999,9999,9999,1965177916
50,19,18,Jits_Linear_8,27,9999,9999,9999,1965948004
50,19,18,Jits_Linear_8,28,9999,9999,9999,1966718032
50,19,18,Jits_Linear_8,29,9999,9999,9999,1967488120
50,19,18,Jits_Linear_8,30,9999,9999,9999,1968257084
50,19,18,Jits_Linear_8,31,9999,9999,9999,1969017948
50,19,18,Jits_Linear_8,32,9999,9999,9999,1969777768
50,19,18,Jits_Linear_8,33,9999,9999,9999,1970537572
50,19,18,Jits_Linear_8,34,9999,9999,9999,1971297404
50,19,18,Jits_Linear_8,35,9999,9999,9999,1972047944
50,19,18,Jits_Linear_8,36,9999,9999,9999,1972797512
50,19,18,Jits_Linear_8,37,9999,9999,9999,1973547084
50,19,18,Jits_Linear_8,38,9999,9999,9999,1974297700
50,19,18,Jits_Linear_8,39,9999,9999,9999,1975047280
50,19,18,Jits_Linear_8,40,9999,9999,9999,1975787640
50,19,18,Jits_Linear_8,41,9999,9999,9999,1976527996
50,19,18,Jits_Linear_8,42,9999,9999,9999,1977267284
50,19,18,Jits_Linear_8,43,9999,9999,9999,1978007636
50,19,18,Jits_Linear_8,44,9999,9999,9999,1978747960
50,19,18,Jits_Linear_8,45,9999,9999,9999,1979478092
50,19,18,Jits_Linear_8,46,9999,9999,9999,1980217400
50,19,18,Jits_Linear_8,47,9999,9999,9999,1980947564
50,19,18,Jits_Linear_8,48,9999,9999,9999,1981677644
50,19,18,Jits_Linear_8,49,9999,9999,9999,1982407792
50,19,18,Jits_Linear_8,50,9999,9999,9999,1983127612
50,19,18,Jits_Linear_8,51,9999,9999,9999,1983847548
50,19,18,Jits_Linear_8,52,9999,9999,9999,1984567360
50,19,18,Jits_Linear_8,53,9999,9999,9999,1985287256
50,19,18,Jits_Linear_8,54,9999,9999,9999,1986007140
50,19,18,Jits_Linear_8,55,9999,9999,9999,1986717756
50,19,18,Jits_Linear_8,56,9999,9999,9999,1987427432
50,19,18,Jits_Linear_8,57,9999,9999,9999,1988138044
50,19,18,Jits_Linear_8,58,9999,9999,9999,1988847684
50,19,18,Jits_Linear_8,59,9999,9999,9999,1989557312
50,19,18,Jits_Linear_8,60,9999,9999,9999,1990257736
50,19,18,Jits_Linear_8,61,9999,9999,9999,1990957164
50,19,18,Jits_Linear_8,62,9999,9999,9999,1991657588
50,19,18,Jits_Linear_8,63,9999,9999,9999,1992357992
50,19,18,Jits_Linear_8,64,9999,9999,9999,1993057340
50,19,18,Jits_Linear_8,65,9999,9999,9999,1993747560
50,19,18,Jits_Linear_8,66,9999,9999,9999,1994437728
50,19,18,Jits_Linear_8,67,9999,9999,9999,1995127884
50,19,18,Jits_Linear_8,68,9999,9999,9999,1995818084
50,19,18,Jits_Linear_8,69,9999,9999,9999,1996507200
50,19,18,Jits_Linear_8,70,9999,9999,9999,1997187168
50,19,18,Jits_Linear_8,71,9999,9999,9999,1997867108
50,19,18,Jits_Linear_8,72,9999,9999,9999,1998548052
50,19,18,Jits_Linear_8,73,9999,9999,9999,1999228024
50,19,18,Jits_Linear_8,74,9999,9999,9999,1999907960
50,19,18,Jits_Linear_8,75,9999,9999,9999,2000577592
50,19,18,Jits_Linear_8,76,9999,9999,9999,2001247348
50,19,18,Jits_Linear_8,77,9999,9999,9999,2001918032
50,19,18,Jits_Linear_8,78,9999,9999,9999,2002587736
50,19,18,Jits_Linear_8,79,9999,9999,9999,2003257420
50,19,18,Jits_Linear_8,80,9999,9999,9999,2003917916
50,19,18,Jits_Linear_8,81,9999,9999,9999,2004577388
50,19,18,Jits_Linear_8,82,9999,9999,9999,2005237860
50,19,18,Jits_Linear_8,83,9999,9999,9999,2005897288
50,19,18,Jits_Linear_8,84,9999,9999,9999,2006557752
50,19,18,Jits_Linear_8,85,9999,9999,9999,2007208060
50,19,18,Jits_Linear_8,86,9999,9999,9999,2007857220
50,19,18,Jits_Linear_8,87,9999,9999,9999,2008507508
50,19,18,Jits_Linear_8,88,9999,9999,9999,2009157744
50,19,18,Jits_Linear_8,89,9999,9999,9999,2009807964
50,19,18,Jits_Linear_8,90,9999,9999,9999,2010447976
50,19,18,Jits_Linear_8,91,9999,9999,9999,2011087976
50,19,18,Jits_Linear_8,92,9999,9999,9999,2011727996
50,19,18,Jits_Linear_8,93,9999,9999,9999,2012367996
50,19,18,Jits_Linear_8,94,9999,9999,9999,2013007996
50,19,18,Jits_Linear_8,95,9999,9999,9999,2013637696
50,19,18,Jits_Linear_8,96,9999,9999,9999,2014267452
50,19,18,Jits_Linear_8,97,9999,9999,9999,2014897212
50,19,18,Jits_Linear_8,98,9999,9999,9999,2015528016
50,19,18,Jits_Linear_8,99,9999,9999,9999,2016157776
50,19,18,Jits_Linear_8,100,9999,9999,9999,2016777336
50,19,18,Jits_Linear_8,101,9999,9999,9999,2017397880
50,19,18,Jits_Linear_8,102,9999,9999,9999,2018017360
50,19,18,Jits_Linear_8,103,9999,9999,9999,2018637880
50,19,18,Jits_Linear_8,104,9999,9999,9999,2019257456
50,19,18,Jits_Linear_8,105,9999,9999,9999,2019867720
50,19,18,Jits_Linear_8,106,9999,9999,9999,2020478068
50,19,18,Jits_Linear_8,107,9999,9999,9999,2021087332
50,19,18,Jits_Linear_8,108,9999,9999,9999,2021697600
50,19,18,Jits_Linear_8,109,9999,9999,9999,2022307952
50,19,18,Jits_Linear_8,110,9999,9999,9999,2022907964
50,19,18,Jits_Linear_8,111,9999,9999,9999,2023508036
50,19,18,Jits_Linear_8,112,9999,9999,9999,2024107096
50,19,18,Jits_Linear_8,113,9999,9999,9999,2024707184
50,19,18,Jits_Linear_8,114,9999,9999,9999,2025307244
50,19,18,Jits_Linear_8,115,9999,9999,9999,2025898112
50,19,18,Jits_Linear_8,116,9999,9999,9999,2026487920
50,19,18,Jits_Linear_8,117,9999,9999,9999,2027077732
50,19,18,Jits_Linear_8,118,9999,9999,9999,2027667584
50,19,18,Jits_Linear_8,119,9999,9999,9999,2028257400
50,19,18,Jits_Linear_8,120,9999,9999,9999,2028838000
50,19,18,Jits_Linear_8,121,9999,9999,9999,2029417568
50,19,18,Jits_Linear_8,122,9999,9999,9999,2029997176
50,19,18,Jits_Linear_8,123,9999,9999,9999,2030577760
50,19,18,Jits_Linear_8,124,9999,9999,9999,2031157312
50,19,18,Jits_Linear_8,125,9999,9999,9999,2031727744
50,19,18,Jits_Linear_8,126,9999,9999,9999,2032298084
50,19,18,Jits_Linear_8,127,9999,9999,9999,2032867444
50,19,18,Jits_Linear_8,128,9999,9999,9999,2033437772
50,19,18,Jits_Linear_8,129,9999,9999,9999,2034007128
50,19,18,Jits_Linear_8,130,9999,9999,9999,2034567240
50,19,18,Jits_Linear_8,131,9999,9999,9999,2035127388
50,19,18,Jits_Linear_8,132,9999,9999,9999,2035687536
50,19,18,Jits_Linear_8,133,9999,9999,9999,2036247608
50,19,18,Jits_Linear_8,134,9999,9999,9999,2036807748
50,19,18,Jits_Linear_8,135,9999,9999,9999,2037357636
50,19,18,Jits_Linear_8,136,9999,9999,9999,2037907508
50,19,18,Jits_Linear_8,137,9999,9999,9999,2038457404
50,19,18,Jits_Linear_8,138,9999,9999,9999,2039007296
50,19,18,Jits_Linear_8,139,9999,9999,9999,2039557184
50,19,18,Jits_Linear_8,140,9999,9999,9999,2040097848
50,19,18,Jits_Linear_8,141,9999,9999,9999,2040637532
50,19,18,Jits_Linear_8,142,9999,9999,9999,2041177148
50,19,18,Jits_Linear_8,143,9999,9999,9999,2041717832
50,19,18,Jits_Linear_8,144,9999,9999,9999,2042257512
50,19,18,Jits_Linear_8,145,9999,9999,9999,2042787912
50,19,18,Jits_Linear_8,146,9999,9999,9999,2043317336
50,19,18,Jits_Linear_8,147,9999,9999,9999,2043847804
50,19,18,Jits_Linear_8,148,9999,9999,9999,2044377148
50,19,18,Jits_Linear_8,149,9999,9999,9999,2044907612
50,19,18,Jits_Linear_8,150,9999,9999,9999,2045427828
50,19,18,Jits_Linear_8,151,9999,9999,9999,2045947968
50,19,18,Jits_Linear_8,152,9999,9999,9999,2046467148
50,19,18,Jits_Linear_8,153,9999,9999,9999,2046987360
50,19,18,Jits_Linear_8,154,9999,9999,9999,2047507576
50,19,18,Jits_Linear_8,155,9999,9999,9999,2048017524
50,19,18,Jits_Linear_8,156,9999,9999,9999,2048527484
50,19,18,Jits_Linear_8,157,9999,9999,9999,2049037420
50,19,18,Jits_Linear_8,158,9999,9999,9999,2049547364
50,19,18,Jits_Linear_8,159,9999,9999,9999,2050057316
50,19,18,Jits_Linear_8,160,9999,9999,9999,2050558064
50,19,18,Jits_Linear_8,161,9999,9999,9999,2051057740
50,19,18,Jits_Linear_8,162,9999,9999,9999,2051557500
50,19,18,Jits_Linear_8,163,9999,9999,9999,2052057188
50,19,18,Jits_Linear_8,164,9999,9999,9999,2052557928
50,19,18,Jits_Linear_8,165,9999,9999,9999,2053047416
50,19,18,Jits_Linear_8,166,9999,9999,9999,2053537900
50,19,18,Jits_Linear_8,167,9999,9999,9999,2054027328
50,19,18,Jits_Linear_8,168,9999,9999,9999,2054517868
50,19,18,Jits_Linear_8,169,9999,9999,9999,2055007344
50,20,16,Jits_ISO_5,0,5,56,103,2064497004
50,20,16,Jits_ISO_5,1,5,63,98,2064500024
50,20,16,Jits_ISO_5,2,5,80,127,2064503148
50,20,16,Jits_ISO_5,0,5,56,103,2064996920
50,20,16,Jits_ISO_5,1,5,63,98,2065000044
50,20,16,Jits_ISO_5,2,5,80,127,2065003240
50,20,16,Jits_ISO_5,3,1,48,47,2065010636
50,20,16,Jits_ISO_5,0,5,56,103,2065496368
50,20,16,Jits_ISO_5,1,1,48,62,2065497336
50,20,16,Jits_ISO_5,2,5,80,127,2065506856
50,20,16,Jits_ISO_5,3,5,63,98,2065527116
50,20,16,Jits_ISO_5,0,5,63,98,2065946968
50,20,16,Jits_ISO_5,1,1,48,64,2065964332
50,20,16,Jits_ISO_5,2,5,80,127,2065976712
50,20,16,Jits_ISO_5,3,5,56,103,2065987056
50,20,16,Jits_ISO_5,0,1,48,64,2066449812
50,20,16,Jits_ISO_5,1,5,80,127,2066507076
50,20,16,Jits_ISO_5,2,5,56,103,2066517496
50,20,16,Jits_ISO_5,3,5,63,98,2066546956
50,20,16,Jits_ISO_5,0,1,48,67,2066923692
50,20,16,Jits_ISO_5,1,5,63,98,2066996844
50,20,16,Jits_ISO_5,2,5,56,103,2067027256
50,20,16,Jits_ISO_5,3,5,80,127,2067036480
50,20,16,Jits_ISO_5,0,5,56,103,2067447068
50,20,16,Jits_ISO_5,1,1,48,67,2067489820
50,20,16,Jits_ISO_5,2,5,63,98,2067497336
50,20,16,Jits_ISO_5,3,5,80,127,2067516968
50,20,16,Jits_ISO_5,0,1,48,67,2067942804
50,20,16,Jits_ISO_5,1,5,80,127,2067946956
50,20,16,Jits_ISO_5,2,5,63,98,2067997008
50,20,16,Jits_ISO_5,3,5,56,103,2068037092
50,20,16,Jits_ISO_5,0,5,56,103,2068446768
50,20,16,Jits_ISO_5,1,1,48,71,2068450936
50,20,16,Jits_ISO_5,2,1,38,18,2068461104
50,20,16,Jits_ISO_5,3,5,63,98,2068477240
50,20,16,Jits_ISO_5,4,5,80,127,2068546920
50,20,16,Jits_ISO_5,0,5,56,103,2068947404
50,20,16,Jits_ISO_5,1,1,48,68,2068952100
50,20,16,Jits_ISO_5,2,1,38,17,2068962568
50,20,16,Jits_ISO_5,3,5,80,127,2069006796
50,20,16,Jits_ISO_5,4,5,63,98,2069037516
50,20,16,Jits_ISO_5,0,1,48,63,2069421780
50,20,16,Jits_ISO_5,1,5,56,103,2069457176
50,20,16,Jits_ISO_5,2,5,63,98,2069466624
50,20,16,Jits_ISO_5,3,5,80,127,2069506408
50,20,16,Jits_ISO_5,0,1,48,77,2069871240
50,20,16,Jits_ISO_5,1,1,38,18,2069881408
50,20,16,Jits_ISO_5,2,5,63,98,2069946996
50,20,16,Jits_ISO_5,3,5,80,127,2070026748
50,20,16,Jits_ISO_5,4,5,56,103,2070036720
50,20,16,Jits_ISO_5,0,1,48,67,2070348172
50,20,16,Jits_ISO_5,1,5,63,98,2070496700
50,20,16,Jits_ISO_5,2,5,56,103,2070536560
50,20,16,Jits_ISO_5,3,5,80,127,2070539628
50,20,16,Jits_ISO_5,0,1,48,74,2070956888
50,20,16,Jits_ISO_5,1,5,56,103,2070958456
50,20,16,Jits_ISO_5,2,5,63,98,2070966632
50,20,16,Jits_ISO_5,3,5,80,127,2071006792
50,20,16,Jits_ISO_5,0,5,56,103,2071446876
50,20,16,Jits_ISO_5,1,5,63,98,2071449872
50,20,16,Jits_ISO_5,2,1,48,80,2071452764
50,20,16,Jits_ISO_5,3,5,80,127,2071467328
50,20,16,Jits_ISO_5,0,1,48,76,2071905652
50,20,16,Jits_ISO_5,1,5,80,127,2071956868
50,20,16,Jits_ISO_5,2,5,56,103,2071967064
50,20,16,Jits_ISO_5,3,5,63,98,2072036804
50,20,16,Jits_ISO_5,0,5,63,98,2072447320
50,20,16,Jits_ISO_5,1,1,48,70,2072456588
50,20,16,Jits_ISO_5,2,5,56,103,2072466724
50,20,16,Jits_ISO_5,3,5,80,127,2072546736
50,20,16,Jits_ISO_5,0,5,56,103,2072957240
50,20,16,Jits_ISO_5,1,1,48,56,2072968384
50,20,16,Jits_ISO_5,2,5,80,127,2072997176
50,20,16,Jits_ISO_5,3,5,63,98,2073006620
50,20,16,Jits_ISO_5,0,1,48,59,2073440448
50,20,16,Jits_ISO_5,1,5,80,127,2073446696
50,20,16,Jits_ISO_5,2,5,63,98,2073476592
50,20,16,Jits_ISO_5,3,5,56,103,2073517576
50,20,16,Jits_ISO_5,0,5,56,103,2073966884
50,20,16,Jits_ISO_5,1,5,63,98,2073996636
50,20,16,Jits_ISO_5,2,1,48,60,2073997676
50,20,16,Jits_ISO_5,3,5,80,127,2074046900
50,20,16,Jits_ISO_5,0,5,80,127,2074466608
50,20,16,Jits_ISO_5,1,1,48,69,2074472220
50,20,16,Jits_ISO_5,2,5,56,103,2074506712
50,20,16,Jits_ISO_5,3,5,63,98,2074516836
50,20,16,Jits_ISO_5,0,5,80,127,2074946800
50,20,16,Jits_ISO_5,1,5,63,98,2074986840
50,20,16,Jits_ISO_5,2,1,48,62,2075034148
50,20,16,Jits_ISO_5,3,5,56,103,2075047516
50,20,16,Jits_ISO_5,0,5,56,103,2075446772
50,20,16,Jits_ISO_5,1,5,80,127,2075456820
50,20,16,Jits_ISO_5,2,1,48,63,2075457784
50,20,16,Jits_ISO_5,3,5,63,98,2075536776
50,20,16,Jits_ISO_5,0,5,80,127,2075947412
50,20,16,Jits_ISO_5,1,1,48,60,2075967992
50,20,16,Jits_ISO_5,2,5,63,98,2076006820
50,20,16,Jits_ISO_5,3,5,56,103,2076036568
50,20,16,Jits_ISO_5,0,5,56,103,2076447136
50,20,16,Jits_ISO_5,1,1,48,60,2076460816
50,20,16,Jits_ISO_5,2,5,80,127,2076506916
50,20,16,Jits_ISO_5,3,5,63,98,2076546580
50,20,16,Jits_ISO_5,0,1,48,57,2076951644
50,20,16,Jits_ISO_5,1,5,56,103,2076996928
50,20,16,Jits_ISO_5,2,5,63,98,2077007344
50,20,16,Jits_ISO_5,3,5,80,127,2077010708
50,20,16,Jits_ISO_5,0,1,48,59,2077425380
50,20,16,Jits_ISO_5,1,5,80,127,2077446752
50,20,16,Jits_ISO_5,2,5,63,98,2077536572
50,20,16,Jits_ISO_5,3,5,56,103,2077546792
50,20,16,Jits_ISO_5,0,5,56,103,2077947376
50,20,16,Jits_ISO_5,1,1,48,60,2077949424
50,20,16,Jits_ISO_5,2,5,63,98,2077951888
50,20,16,Jits_ISO_5,3,5,80,127,2077954800
50,20,16,Jits_ISO_5,0,5,80,127,2078466672
50,20,16,Jits_ISO_5,1,1,48,57,2078495644
50,20,16,Jits_ISO_5,2,5,63,98,2078516792
50,20,16,Jits_ISO_5,3,5,56,103,2078547512
50,20,16,Jits_ISO_5,0,5,56,103,2078946644
50,20,16,Jits_ISO_5,1,5,80,127,2078956988
50,20,16,Jits_ISO_5,2,5,63,98,2079026664
50,20,16,Jits_ISO_5,3,1,48,57,2079051504
50,20,16,Jits_ISO_5,0,5,56,103,2079456652
50,20,16,Jits_ISO_5,1,1,48,59,2079477332
50,20,16,Jits_ISO_5,2,5,63,98,2079478672
50,20,16,Jits_ISO_5,3,5,80,127,2079536520
50,20,16,Jits_ISO_5,0,5,80,127,2079947036
50,20,16,Jits_ISO_5,1,1,48,64,2079983712
50,20,16,Jits_ISO_5,2,5,63,98,2080016708
50,20,16,Jits_ISO_5,3,5,56,103,2080037164
50,20,16,Jits_ISO_5,0,5,80,127,2080467388
50,20,16,Jits_ISO_5,1,5,56,103,2080476388
50,20,16,Jits_ISO_5,2,5,63,98,2080486880
50,20,16,Jits_ISO_5,3,1,48,69,2080517276
50,20,16,Jits_ISO_5,0,5,80,127,2080956720
50,20,16,Jits_ISO_5,1,5,56,103,2080977476
50,20,16,Jits_ISO_5,2,1,48,71,2080995440
50,20,16,Jits_ISO_5,3,5,63,98,2081046848
50,20,16,Jits_ISO_5,0,5,56,103,2081466656
50,20,16,Jits_ISO_5,1,5,80,127,2081496408
50,20,16,Jits_ISO_5,2,1,48,51,2081513900
50,20,16,Jits_ISO_5,3,5,63,98,2081517004
50,20,16,Jits_ISO_5,0,5,63,98,2081957332
50,20,16,Jits_ISO_5,1,1,48,60,2081990944
50,20,16,Jits_ISO_5,2,5,56,103,2082016596
50,20,16,Jits_ISO_5,3,5,80,127,2082047612
50,20,16,Jits_ISO_5,0,5,63,98,2082446728
50,20,16,Jits_ISO_5,1,5,80,127,2082450096
50,20,16,Jits_ISO_5,2,1,48,57,2082478988
50,20,16,Jits_ISO_5,3,5,56,103,2082536924
50,20,16,Jits_ISO_5,0,1,48,66,2082956012
50,20,16,Jits_ISO_5,1,5,56,103,2082966748
50,20,16,Jits_ISO_5,2,5,63,98,2082996496
50,20,16,Jits_ISO_5,3,5,80,127,2083036508
50,20,16,Jits_ISO_5,0,1,48,69,2083444492
50,20,16,Jits_ISO_5,1,5,63,98,2083466484
50,20,16,Jits_ISO_5,2,5,56,103,2083506420
50,20,16,Jits_ISO_5,3,5,80,127,2083527028
50,20,16,Jits_ISO_5,0,1,48,68,2083944528
50,20,16,Jits_ISO_5,1,5,63,98,2083976552
50,20,16,Jits_ISO_5,2,5,56,103,2084016416
50,20,16,Jits_ISO_5,3,5,80,127,2084026836
50,20,16,Jits_ISO_5,0,1,48,65,2084452632
50,20,16,Jits_ISO_5,1,5,80,127,2084456808
50,20,16,Jits_ISO_5,2,5,63,98,2084526564
50,20,16,Jits_ISO_5,3,5,56,103,2084546856
50,20,16,Jits_ISO_5,0,5,56,103,2084947312
50,20,16,Jits_ISO_5,1,5,80,127,2084966748
50,20,16,Jits_ISO_5,2,1,48,62,2084974276
50,20,16,Jits_ISO_5,3,5,63,98,2085006676
50,20,16,Jits_ISO_5,0,1,48,67,2085438036
50,20,16,Jits_ISO_5,1,5,63,98,2085457312
50,20,16,Jits_ISO_5,2,5,80,127,2085476728
50,20,16,Jits_ISO_5,3,5,56,103,2085516664
50,20,16,Jits_ISO_5,0,1,48,70,2085917140
50,20,16,Jits_ISO_5,1,5,63,98,2085956948
50,20,16,Jits_ISO_5,2,5,56,103,2085976508
50,20,16,Jits_ISO_5,3,5,80,127,2085986628
50,20,16,Jits_ISO_5,0,1,48,73,2086367940
50,20,16,Jits_ISO_5,1,5,80,127,2086456748
50,20,16,Jits_ISO_5,2,5,56,103,2086477116
50,20,16,Jits_ISO_5,3,5,63,98,2086506964
50,20,16,Jits_ISO_5,0,1,48,62,2086963564
50,20,16,Jits_ISO_5,1,5,56,103,2087027004
50,20,16,Jits_ISO_5,2,5,80,127,2087030144
50,20,16,Jits_ISO_5,3,5,63,98,2087046636
50,20,16,Jits_ISO_5,0,5,63,98,2087446776
50,20,16,Jits_ISO_5,1,5,56,103,2087476448
50,20,16,Jits_ISO_5,2,1,48,55,2087521064
50,20,16,Jits_ISO_5,3,5,80,127,2087537000
50,20,16,Jits_ISO_5,0,1,48,53,2087935240
50,20,16,Jits_ISO_5,1,5,63,98,2088026512
50,20,16,Jits_ISO_5,2,5,56,103,2088036620
50,20,16,Jits_ISO_5,3,5,80,127,2088046840
50,20,16,Jits_ISO_5,0,5,56,103,2088477036
50,20,16,Jits_ISO_5,1,5,80,127,2088506712
50,20,16,Jits_ISO_5,2,5,63,98,2088516908
50,20,16,Jits_ISO_5,3,1,48,53,2088540552
50,20,16,Jits_ISO_5,0,1,48,65,2089003416
50,20,16,Jits_ISO_5,1,5,63,98,2089016564
50,20,16,Jits_ISO_5,2,5,56,103,2089026832
50,20,16,Jits_ISO_5,3,5,80,127,2089047516
50,20,16,Jits_ISO_5,0,5,56,103,2089446632
50,20,16,Jits_ISO_5,1,5,63,98,2089507392
50,20,16,Jits_ISO_5,2,5,80,127,2089510608
50,20,16,Jits_ISO_5,3,1,48,61,2089530812
50,20,16,Jits_ISO_5,0,5,80,127,2089966968
50,20,16,Jits_ISO_5,1,5,56,103,2089977164
50,20,16,Jits_ISO_5,2,1,48,64,2090007784
50,20,16,Jits_ISO_5,3,5,63,98,2090046832
50,20,16,Jits_ISO_5,0,5,80,127,2090456380
50,20,16,Jits_ISO_5,1,1,48,67,2090492156
50,20,16,Jits_ISO_5,2,5,56,103,2090527172
50,20,16,Jits_ISO_5,3,5,63,98,2090537296
50,20,16,Jits_ISO_5,0,1,48,68,2090991376
50,20,16,Jits_ISO_5,1,5,63,98,2090997400
50,20,16,Jits_ISO_5,2,1,38,17,2091002168
50,20,16,Jits_ISO_5,3,5,56,103,2091007440
50,20,16,Jits_ISO_5,4,5,80,127,2091026780
50,20,16,Jits_ISO_5,5,1,48,24,2091083960
50,20,16,Jits_ISO_5,0,5,80,127,2091446532
50,20,16,Jits_ISO_5,1,1,48,61,2091503960
50,20,16,Jits_ISO_5,2,5,63,98,2091507212
50,20,16,Jits_ISO_5,3,5,56,103,2091547076
50,20,16,Jits_ISO_5,0,5,56,103,2091987340
50,20,16,Jits_ISO_5,1,5,63,98,2091996488
50,20,16,Jits_ISO_5,2,1,48,56,2092011888
50,20,16,Jits_ISO_5,3,5,80,127,2092036416
50,20,16,Jits_ISO_5,0,5,56,103,2092447380
50,20,16,Jits_ISO_5,1,5,80,127,2092476904
50,20,16,Jits_ISO_5,2,1,48,64,2092494696
50,20,16,Jits_ISO_5,3,5,63,98,2092526948
50,20,16,Jits_ISO_5,0,1,48,60,2092986008
50,20,16,Jits_ISO_5,1,5,56,103,2092987580
50,20,16,Jits_ISO_5,2,5,63,98,2093026616
50,20,16,Jits_ISO_5,3,5,80,127,2093029832
50,20,16,Jits_ISO_5,0,5,56,103,2093486340
50,20,16,Jits_ISO_5,1,5,63,98,2093496608
50,20,16,Jits_ISO_5,2,5,80,127,2093517364
50,20,16,Jits_ISO_5,3,1,48,64,2093521456
50,20,16,Jits_ISO_5,0,5,56,103,2093947348
50,20,16,Jits_ISO_5,1,5,80,127,2093950412
50,20,16,Jits_ISO_5,2,5,63,98,2093987132
50,20,16,Jits_ISO_5,3,1,48,62,2094015276
50,20,16,Jits_ISO_5,0,1,48,61,2094478372
50,20,16,Jits_ISO_5,1,5,63,98,2094487008
50,20,16,Jits_ISO_5,2,1,38,16,2094489684
50,20,16,Jits_ISO_5,3,5,56,103,2094516532
50,20,16,Jits_ISO_5,4,5,80,127,2094537140
50,20,16,Jits_ISO_5,0,5,80,127,2094956868
50,20,16,Jits_ISO_5,1,5,56,103,2094967360
50,20,16,Jits_ISO_5,2,5,63,98,2094977556
50,20,16,Jits_ISO_5,3,1,48,60,2094984732
50,20,16,Jits_ISO_5,0,5,56,103,2095456512
50,20,16,Jits_ISO_5,1,5,80,127,2095496476
50,20,16,Jits_ISO_5,2,1,48,67,2095514120
50,20,16,Jits_ISO_5,3,5,63,98,2095527264
50,20,16,Jits_ISO_5,0,5,63,98,2095966452
50,20,16,Jits_ISO_5,1,5,80,127,2095976748
50,20,16,Jits_ISO_5,2,5,56,103,2095987240
50,20,16,Jits_ISO_5,3,1,48,57,2096003316
50,20,16,Jits_ISO_5,0,5,56,103,2096446928
50,20,16,Jits_ISO_5,1,1,48,65,2096455596
50,20,16,Jits_ISO_5,2,5,63,98,2096516404
50,20,16,Jits_ISO_5,3,5,80,127,2096526672
50,20,16,Jits_ISO_5,0,1,48,61,2096937060
50,20,16,Jits_ISO_5,1,5,80,127,2096946448
50,20,16,Jits_ISO_5,2,5,56,103,2096956720
50,20,16,Jits_ISO_5,3,5,63,98,2097007240
50,20,16,Jits_ISO_5,0,1,48,68,2097441872
50,20,16,Jits_ISO_5,1,5,80,127,2097456440
50,20,16,Jits_ISO_5,2,5,56,103,2097517152
50,20,16,Jits_ISO_5,3,5,63,98,2097546512
50,20,16,Jits_ISO_5,0,1,48,57,2097925656
50,20,16,Jits_ISO_5,1,5,56,103,2097957288
50,20,16,Jits_ISO_5,2,5,80,127,2097960208
50,20,16,Jits_ISO_5,3,5,63,98,2097997224
50,20,16,Jits_ISO_5,0,1,48,63,2098439528
50,20,16,Jits_ISO_5,1,5,56,103,2098486528
50,20,16,Jits_ISO_5,2,5,63,98,2098517472
50,20,16,Jits_ISO_5,3,5,80,127,2098526548
50,20,16,Jits_ISO_5,0,5,63,98,2098996532
50,20,16,Jits_ISO_5,1,1,48,63,2099000696
50,20,16,Jits_ISO_5,2,5,80,127,2099007092
50,20,16,Jits_ISO_5,3,5,56,103,2099017216
50,20,16,Jits_ISO_5,0,5,80,127,2099447340
50,20,16,Jits_ISO_5,1,1,48,63,2099494132
50,20,16,Jits_ISO_5,2,5,56,103,2099497532
50,20,16,Jits_ISO_5,3,5,63,98,2099500596
50,20,16,Jits_ISO_5,0,1,48,60,2099967420
50,20,16,Jits_ISO_5,1,5,56,103,2099976512
50,20,16,Jits_ISO_5,2,5,80,127,2099997044
50,20,16,Jits_ISO_5,3,5,63,98,2100007240
50,20,16,Jits_ISO_5,0,5,63,98,2100457064
50,20,16,Jits_ISO_5,1,1,48,63,2100482508
50,20,16,Jits_ISO_5,2,5,56,103,2100486436
50,20,16,Jits_ISO_5,3,5,80,127,2100507340
50,20,16,Jits_ISO_5,0,5,56,103,2100967060
50,20,16,Jits_ISO_5,1,5,80,127,2100977108
50,20,16,Jits_ISO_5,2,1,48,59,2100993632
50,20,16,Jits_ISO_5,3,5,63,98,2101046704
50,20,16,Jits_ISO_5,0,1,48,61,2101455704
50,20,16,Jits_ISO_5,1,5,63,98,2101457212
50,20,16,Jits_ISO_5,2,5,80,127,2101497148
50,20,16,Jits_ISO_5,3,5,56,103,2101537084
50,20,16,Jits_ISO_5,0,1,48,57,2101957668
50,20,16,Jits_ISO_5,1,5,56,103,2101967204
50,20,16,Jits_ISO_5,2,5,63,98,2101976356
50,20,16,Jits_ISO_5,3,5,80,127,2101997036
50,20,16,Jits_ISO_5,0,1,48,63,2102434608
50,20,16,Jits_ISO_5,1,1,38,16,2102444572
50,20,16,Jits_ISO_5,2,5,63,98,2102507000
50,20,16,Jits_ISO_5,3,5,80,127,2102527308
50,20,16,Jits_ISO_5,4,5,56,103,2102546900
50,20,16,Jits_ISO_5,0,1,48,58,2102931496
50,20,16,Jits_ISO_5,1,5,56,103,2102947180
50,20,16,Jits_ISO_5,2,5,80,127,2103027184
50,20,16,Jits_ISO_5,3,5,63,98,2103037232
50,20,16,Jits_ISO_5,0,1,48,54,2103433168
50,20,16,Jits_ISO_5,1,5,80,127,2103486848
50,20,16,Jits_ISO_5,2,5,63,98,2103497192
50,20,16,Jits_ISO_5,3,5,56,103,2103527372
50,20,16,Jits_ISO_5,0,5,63,98,2103946580
50,20,16,Jits_ISO_5,1,5,80,127,2103986444
50,20,16,Jits_ISO_5,2,1,48,62,2103987412
50,20,16,Jits_ISO_5,3,5,56,103,2104046900
50,20,16,Jits_ISO_5,0,5,63,98,2104456576
50,20,16,Jits_ISO_5,1,1,48,59,2104466068
50,20,16,Jits_ISO_5,2,5,56,103,2104506844
50,20,16,Jits_ISO_5,3,5,80,127,2104536296
50,20,16,Jits_ISO_5,0,5,80,127,2104966572
50,20,16,Jits_ISO_5,1,5,63,98,2104976916
50,20,16,Jits_ISO_5,2,1,48,61,2104998540
50,20,16,Jits_ISO_5,3,5,56,103,2105047336
50,20,16,Jits_ISO_5,0,5,80,127,2105537116
50,20,16,Jits_ISO_5,1,1,48,50,2105543900
50,20,16,Jits_ISO_5,2,5,56,103,2105547080
50,20,16,Jits_ISO_5,3,5,63,98,2105550072
50,20,16,Jits_ISO_5,0,5,56,103,2105977224
50,20,16,Jits_ISO_5,1,5,80,127,2105996784
50,20,16,Jits_ISO_5,2,5,63,98,2106007056
50,20,16,Jits_ISO_5,3,1,48,57,2106042536
50,20,16,Jits_ISO_5,0,5,63,98,2106487088
50,20,16,Jits_ISO_5,1,1,48,65,2106505044
50,20,16,Jits_ISO_5,2,5,56,103,2106527020
50,20,16,Jits_ISO_5,3,5,80,127,2106546504
50,20,16,Jits_ISO_5,0,5,63,98,2106986820
50,20,16,Jits_ISO_5,1,1,48,59,2107030244
50,20,16,Jits_ISO_5,2,5,56,103,2107047204
50,20,16,Jits_ISO_5,3,5,80,127,2107050344
50,20,16,Jits_ISO_5,0,5,56,103,2107446812
50,20,16,Jits_ISO_5,1,5,80,127,2107466976
50,20,16,Jits_ISO_5,2,1,48,66,2107498740
50,20,16,Jits_ISO_5,3,5,63,98,2107506928
50,20,16,Jits_ISO_5,0,1,48,54,2107945548
50,20,16,Jits_ISO_5,1,5,56,103,2107977036
50,20,16,Jits_ISO_5,2,5,63,98,2107996600
50,20,16,Jits_ISO_5,3,5,80,127,2108006892
50,20,16,Jits_ISO_5,0,1,48,50,2108425356
50,20,16,Jits_ISO_5,1,5,80,127,2108447172
50,20,16,Jits_ISO_5,2,5,56,103,2108477072
50,20,16,Jits_ISO_5,3,5,63,98,2108516860
50,20,16,Jits_ISO_5,0,1,48,48,2108927228
50,20,16,Jits_ISO_5,1,5,80,127,2108956992
50,20,16,Jits_ISO_5,2,5,56,103,2108976480
50,20,16,Jits_ISO_5,3,5,63,98,2109037024
50,20,16,Jits_ISO_5,0,1,48,53,2109457152
50,20,16,Jits_ISO_5,1,5,56,103,2109466992
50,20,16,Jits_ISO_5,2,5,80,127,2109486476
50,20,16,Jits_ISO_5,3,5,63,98,2109546888
50,20,16,Jits_ISO_5,0,1,48,62,2109942712
50,20,16,Jits_ISO_5,1,5,80,127,2109947316
50,20,16,Jits_ISO_5,2,5,56,103,2109956392
50,20,16,Jits_ISO_5,3,5,63,98,2109997376
50,20,16,Jits_ISO_5,0,1,48,74,2110441096
50,20,16,Jits_ISO_5,1,5,63,98,2110446900
50,20,16,Jits_ISO_5,2,5,56,103,2110486832
50,20,16,Jits_ISO_5,3,5,80,127,2110490048
50,20,16,Jits_ISO_5,0,1,48,68,2110932720
50,20,16,Jits_ISO_5,1,5,63,98,2110967216
50,20,16,Jits_ISO_5,2,5,80,127,2111007232
50,20,16,Jits_ISO_5,3,5,56,103,2111037036
50,20,16,Jits_ISO_5,0,5,56,103,2111456768
50,20,16,Jits_ISO_5,1,5,63,98,2111466964
50,20,16,Jits_ISO_5,2,1,48,68,2111484088
50,20,16,Jits_ISO_5,3,5,80,127,2111496780
50,20,16,Jits_ISO_5,0,5,80,127,2111947076
50,20,16,Jits_ISO_5,1,1,48,67,2111987808
50,20,16,Jits_ISO_5,2,5,63,98,2112016896
50,20,16,Jits_ISO_5,3,5,56,103,2112027016
50,20,16,Jits_ISO_5,0,5,63,98,2112446824
50,20,16,Jits_ISO_5,1,1,48,63,2112447716
50,20,16,Jits_ISO_5,2,5,56,103,2112516348
50,20,16,Jits_ISO_5,3,5,80,127,2112526988
50,20,16,Jits_ISO_5,0,5,63,98,2112946632
50,20,16,Jits_ISO_5,1,1,48,66,2112950796
50,20,16,Jits_ISO_5,2,5,56,103,2112967156
50,20,16,Jits_ISO_5,3,5,80,127,2113006944
50,20,16,Jits_ISO_5,0,1,48,73,2113446628
50,20,16,Jits_ISO_5,1,5,56,103,2113456620
50,20,16,Jits_ISO_5,2,5,63,98,2113466964
50,20,16,Jits_ISO_5,3,5,80,127,2113546888
50,20,16,Jits_ISO_5,0,5,63,98,2113947064
50,20,16,Jits_ISO_5,1,5,56,103,2113976888
50,20,16,Jits_ISO_5,2,1,48,67,2114008108
50,20,16,Jits_ISO_5,3,5,80,127,2114016744
50,20,16,Jits_ISO_5,0,5,56,103,2114446792
50,20,16,Jits_ISO_5,1,5,63,98,2114486804
50,20,16,Jits_ISO_5,2,1,48,68,2114498992
50,20,16,Jits_ISO_5,3,5,80,127,2114526736
50,20,16,Jits_ISO_5,0,5,80,127,2114946540
50,20,16,Jits_ISO_5,1,1,48,65,2114991536
50,20,16,Jits_ISO_5,2,5,56,103,2115027224
50,20,16,Jits_ISO_5,3,5,63,98,2115036820
50,20,16,Jits_ISO_5,0,5,56,103,2115487192
50,20,16,Jits_ISO_5,1,5,63,98,2115490112
50,20,16,Jits_ISO_5,2,5,80,127,2115497536
50,20,16,Jits_ISO_5,3,1,48,59,2115516472
50,20,16,Jits_ISO_5,0,1,48,67,2115989748
50,20,16,Jits_ISO_5,1,5,56,103,2116007304
50,20,16,Jits_ISO_5,2,5,63,98,2116026716
50,20,16,Jits_ISO_5,3,5,80,127,2116036912
50,20,16,Jits_ISO_5,0,5,63,98,2116467044
50,20,16,Jits_ISO_5,1,5,80,127,2116477236
50,20,16,Jits_ISO_5,2,1,48,66,2116480284
50,20,16,Jits_ISO_5,3,5,56,103,2116496792
50,20,16,Jits_ISO_5,0,1,48,69,2116962064
50,20,16,Jits_ISO_5,1,5,63,98,2116966840
50,20,16,Jits_ISO_5,2,5,56,103,2117046856
50,20,16,Jits_ISO_5,3,5,80,127,2117049996
50,20,16,Jits_ISO_5,0,5,63,98,2117466624
50,20,16,Jits_ISO_5,1,1,48,62,2117472288
50,20,16,Jits_ISO_5,2,5,56,103,2117487176
50,20,16,Jits_ISO_5,3,5,80,127,2117516848
50,20,16,Jits_ISO_5,0,5,56,103,2117967180
50,20,16,Jits_ISO_5,1,5,63,98,2117986888
50,20,16,Jits_ISO_5,2,1,48,61,2117994220
50,20,16,Jits_ISO_5,3,5,80,127,2117996804
50,20,16,Jits_ISO_5,0,1,48,65,2118481124
50,20,16,Jits_ISO_5,1,5,56,103,2118496588
50,20,16,Jits_ISO_5,2,5,63,98,2118527408
50,20,16,Jits_ISO_5,3,5,80,127,2118530920
50,20,16,Jits_ISO_5,0,5,56,103,2118947172
50,20,16,Jits_ISO_5,1,1,48,71,2118957712
50,20,16,Jits_ISO_5,2,5,63,98,2118987252
50,20,16,Jits_ISO_5,3,5,80,127,2119046692
50,20,16,Jits_ISO_5,0,1,48,59,2119457152
50,20,16,Jits_ISO_5,1,5,56,103,2119467368
50,20,16,Jits_ISO_5,2,5,63,98,2119476812
50,20,16,Jits_ISO_5,3,5,80,127,2119537000
50,20,16,Jits_ISO_5,0,5,56,103,2119966956
50,20,16,Jits_ISO_5,1,1,48,61,2119985836
50,20,16,Jits_ISO_5,2,5,80,127,2119987484
50,20,16,Jits_ISO_5,3,5,63,98,2120017228
50,20,16,Jits_ISO_5,0,5,80,127,2120466776
50,20,16,Jits_ISO_5,1,5,56,103,2120476896
50,20,16,Jits_ISO_5,2,5,63,98,2120496904
50,20,16,Jits_ISO_5,3,1,48,56,2120587624
50,20,16,Jits_ISO_5,0,5,63,98,2120957600
50,20,16,Jits_ISO_5,1,1,48,69,2121029200
50,20,16,Jits_ISO_5,2,5,80,127,2121037388
50,20,16,Jits_ISO_5,3,5,56,103,2121047660
50,20,16,Jits_ISO_5,0,1,48,60,2121464416
50,20,16,Jits_ISO_5,1,5,80,127,2121517868
50,20,16,Jits_ISO_5,2,5,56,103,2121536828
50,20,16,Jits_ISO_5,3,5,63,98,2121539820
50,20,16,Jits_ISO_5,0,1,48,46,2121974332
50,20,16,Jits_ISO_5,1,5,63,98,2121986732
50,20,16,Jits_ISO_5,2,5,80,127,2121990016
50,20,16,Jits_ISO_5,3,5,56,103,2122046964
50,20,16,Jits_ISO_5,0,5,56,103,2122466608
50,20,16,Jits_ISO_5,1,5,80,127,2122477100
50,20,16,Jits_ISO_5,2,1,48,63,2122484952
50,20,16,Jits_ISO_5,3,5,63,98,2122516808
50,20,16,Jits_ISO_5,0,5,56,103,2122946872
50,20,16,Jits_ISO_5,1,1,48,64,2122974576
50,20,16,Jits_ISO_5,2,5,63,98,2123007556
50,20,16,Jits_ISO_5,3,5,80,127,2123016556
50,20,16,Jits_ISO_5,0,5,63,98,2123456808
50,20,16,Jits_ISO_5,1,1,48,65,2123485556
50,20,16,Jits_ISO_5,2,5,80,127,2123496740
50,20,16,Jits_ISO_5,3,5,56,103,2123536676
50,20,16,Jits_ISO_5,0,1,48,62,2123951032
50,20,16,Jits_ISO_5,1,5,56,103,2123956684
50,20,16,Jits_ISO_5,2,5,63,98,2124036624
50,20,16,Jits_ISO_5,3,5,80,127,2124039840
50,20,16,Jits_ISO_5,0,9999,9999,9999,2064744508
50,20,16,Jits_ISO_5,1,9999,9999,9999,2065244252
50,20,16,Jits_ISO_5,2,9999,9999,9999,2065744976
50,20,16,Jits_ISO_5,3,9999,9999,9999,2066244720
50,20,16,Jits_ISO_5,4,9999,9999,9999,2066744380
50,20,16,Jits_ISO_5,5,9999,9999,9999,2067244116
50,20,16,Jits_ISO_5,6,9999,9999,9999,2067744820
50,20,16,Jits_ISO_5,7,9999,9999,9999,2068244568
50,20,16,Jits_ISO_5,8,9999,9999,9999,2068744252
50,20,16,Jits_ISO_5,9,9999,9999,9999,2069245036
50,20,16,Jits_ISO_5,10,9999,9999,9999,2069744744
50,20,16,Jits_ISO_5,11,9999,9999,9999,2070244432
50,20,16,Jits_ISO_5,12,9999,9999,9999,2070744124
50,20,16,Jits_ISO_5,13,9999,9999,9999,2071244900
50,20,16,Jits_ISO_5,14,9999,9999,9999,2071744616
50,20,16,Jits_ISO_5,15,9999,9999,9999,2072244292
50,20,16,Jits_ISO_5,16,9999,9999,9999,2072745072
50,20,16,Jits_ISO_5,17,9999,9999,9999,2073244732
50,20,16,Jits_ISO_5,18,9999,9999,9999,2073744452
50,20,16,Jits_ISO_5,19,9999,9999,9999,2074244188
50,20,16,Jits_ISO_5,20,9999,9999,9999,2074744908
50,20,16,Jits_ISO_5,21,9999,9999,9999,2075244656
50,20,16,Jits_ISO_5,22,9999,9999,9999,2075744376
50,20,16,Jits_ISO_5,23,9999,9999,9999,2076245064
50,20,16,Jits_ISO_5,24,9999,9999,9999,2076744816
50,20,16,Jits_ISO_5,25,9999,9999,9999,2077244484
50,20,16,Jits_ISO_5,26,9999,9999,9999,2077744220
50,20,16,Jits_ISO_5,27,9999,9999,9999,2078244972
50,20,16,Jits_ISO_5,28,9999,9999,9999,2078744648
50,20,16,Jits_ISO_5,29,9999,9999,9999,2079244396
50,20,16,Jits_ISO_5,30,9999,9999,9999,2079744068
50,20,16,Jits_ISO_5,31,9999,9999,9999,2080244788
50,20,16,Jits_ISO_5,32,9999,9999,9999,2080744536
50,20,16,Jits_ISO_5,33,9999,9999,9999,2081244284
50,20,16,Jits_ISO_5,34,9999,9999,9999,2081745004
50,20,16,Jits_ISO_5,35,9999,9999,9999,2082244680
50,20,16,Jits_ISO_5,36,9999,9999,9999,2082744400
50,20,16,Jits_ISO_5,37,9999,9999,9999,2083244132
50,20,16,Jits_ISO_5,38,9999,9999,9999,2083744836
50,20,16,Jits_ISO_5,39,9999,9999,9999,2084244572
50,20,16,Jits_ISO_5,40,9999,9999,9999,2084744308
50,20,16,Jits_ISO_5,41,9999,9999,9999,2085245012
50,20,16,Jits_ISO_5,42,9999,9999,9999,2085744736
50,20,16,Jits_ISO_5,43,9999,9999,9999,2086244440
50,20,16,Jits_ISO_5,44,9999,9999,9999,2086744168
50,20,16,Jits_ISO_5,45,9999,9999,9999,2087244872
50,20,16,Jits_ISO_5,46,9999,9999,9999,2087744600
50,20,16,Jits_ISO_5,47,9999,9999,9999,2088244340
50,20,16,Jits_ISO_5,48,9999,9999,9999,2088745048
50,20,16,Jits_ISO_5,49,9999,9999,9999,2089244728
50,20,16,Jits_ISO_5,50,9999,9999,9999,2089744448
50,20,16,Jits_ISO_5,51,9999,9999,9999,2090244196
50,20,16,Jits_ISO_5,52,9999,9999,9999,2090744920
50,20,16,Jits_ISO_5,53,9999,9999,9999,2091244628
50,20,16,Jits_ISO_5,54,9999,9999,9999,2091744364
50,20,16,Jits_ISO_5,55,9999,9999,9999,2092245088
50,20,16,Jits_ISO_5,56,9999,9999,9999,2092744760
50,20,16,Jits_ISO_5,57,9999,9999,9999,2093244500
50,20,16,Jits_ISO_5,58,9999,9999,9999,2093744236
50,20,16,Jits_ISO_5,59,9999,9999,9999,2094244940
50,20,16,Jits_ISO_5,60,9999,9999,9999,2094744660
50,20,16,Jits_ISO_5,61,9999,9999,9999,2095244356
50,20,16,Jits_ISO_5,62,9999,9999,9999,2095744104
50,20,16,Jits_ISO_5,63,9999,9999,9999,2096244820
50,20,16,Jits_ISO_5,64,9999,9999,9999,2096744560
50,20,16,Jits_ISO_5,65,9999,9999,9999,2097244280
50,20,16,Jits_ISO_5,66,9999,9999,9999,2097744984
50,20,16,Jits_ISO_5,67,9999,9999,9999,2098244700
50,20,16,Jits_ISO_5,68,9999,9999,9999,2098744432
50,20,16,Jits_ISO_5,69,9999,9999,9999,2099244092
50,20,16,Jits_ISO_5,70,9999,9999,9999,2099744856
50,20,16,Jits_ISO_5,71,9999,9999,9999,2100244600
50,20,16,Jits_ISO_5,72,9999,9999,9999,2100744256
50,20,16,Jits_ISO_5,73,9999,9999,9999,2101245036
50,20,16,Jits_ISO_5,74,9999,9999,9999,2101744708
50,20,16,Jits_ISO_5,75,9999,9999,9999,2102244436
50,20,16,Jits_ISO_5,76,9999,9999,9999,2102744128
50,20,16,Jits_ISO_5,77,9999,9999,9999,2103244868
50,20,16,Jits_ISO_5,78,9999,9999,9999,2103744604
50,20,16,Jits_ISO_5,79,9999,9999,9999,2104244336
50,20,16,Jits_ISO_5,80,9999,9999,9999,2104745040
50,20,16,Jits_ISO_5,81,9999,9999,9999,2105244772
50,20,16,Jits_ISO_5,82,9999,9999,9999,2105744440
50,20,16,Jits_ISO_5,83,9999,9999,9999,2106244188
50,20,16,Jits_ISO_5,84,9999,9999,9999,2106744912
50,20,16,Jits_ISO_5,85,9999,9999,9999,2107244636
50,20,16,Jits_ISO_5,86,9999,9999,9999,2107744340
50,20,16,Jits_ISO_5,87,9999,9999,9999,2108245052
50,20,16,Jits_ISO_5,88,9999,9999,9999,2108744760
50,20,16,Jits_ISO_5,89,9999,9999,9999,2109244488
50,20,16,Jits_ISO_5,90,9999,9999,9999,2109744224
50,20,16,Jits_ISO_5,91,9999,9999,9999,2110244924
50,20,16,Jits_ISO_5,92,9999,9999,9999,2110744644
50,20,16,Jits_ISO_5,93,9999,9999,9999,2111244380
50,20,16,Jits_ISO_5,94,9999,9999,9999,2111744108
50,20,16,Jits_ISO_5,95,9999,9999,9999,2112244828
50,20,16,Jits_ISO_5,96,9999,9999,9999,2112744504
50,20,16,Jits_ISO_5,97,9999,9999,9999,2113244236
50,20,16,Jits_ISO_5,98,9999,9999,9999,2113745012
50,20,16,Jits_ISO_5,99,9999,9999,9999,2114244668
50,20,16,Jits_ISO_5,100,9999,9999,9999,2114744396
50,20,16,Jits_ISO_5,101,9999,9999,9999,2115244148
50,20,16,Jits_ISO_5,102,9999,9999,9999,2115744856
50,20,16,Jits_ISO_5,103,9999,9999,9999,2116244536
50,20,16,Jits_ISO_5,104,9999,9999,9999,2116744268
50,20,16,Jits_ISO_5,105,9999,9999,9999,2117245040
50,20,16,Jits_ISO_5,106,9999,9999,9999,2117744700
50,20,16,Jits_ISO_5,107,9999,9999,9999,2118244428
50,20,16,Jits_ISO_5,108,9999,9999,9999,2118744148
50,20,16,Jits_ISO_5,109,9999,9999,9999,2119244852
50,20,16,Jits_ISO_5,110,9999,9999,9999,2119744596
50,20,16,Jits_ISO_5,111,9999,9999,9999,2120244332
50,20,16,Jits_ISO_5,112,9999,9999,9999,2120745048
50,20,16,Jits_ISO_5,113,9999,9999,9999,2121244724
50,20,16,Jits_ISO_5,114,9999,9999,9999,2121744452
50,20,16,Jits_ISO_5,115,9999,9999,9999,2122244180
50,20,16,Jits_ISO_5,116,9999,9999,9999,2122744956
50,20,16,Jits_ISO_5,117,9999,9999,9999,2123244628
50,20,16,Jits_ISO_5,118,9999,9999,9999,2123744376
50,20,16,Jits_ISO_5,119,9999,9999,9999,2124245072
50,21,7,Jits_ISO_8,0,5,56,103,2134031664
50,21,7,Jits_ISO_8,1,5,63,98,2134034916
50,21,7,Jits_ISO_8,2,5,80,127,2134038108
50,21,7,Jits_ISO_8,0,5,56,103,2134831588
50,21,7,Jits_ISO_8,1,5,63,98,2134834692
50,21,7,Jits_ISO_8,2,5,80,127,2134837736
50,21,7,Jits_ISO_8,0,1,48,63,2135543684
50,21,7,Jits_ISO_8,1,5,80,127,2135571884
50,21,7,Jits_ISO_8,2,5,63,98,2135661812
50,21,7,Jits_ISO_8,3,5,56,103,2135672304
50,21,7,Jits_ISO_8,0,1,48,61,2136372920
50,21,7,Jits_ISO_8,1,5,56,103,2136392124
50,21,7,Jits_ISO_8,2,5,63,98,2136402544
50,21,7,Jits_ISO_8,3,5,80,127,2136492388
50,21,7,Jits_ISO_8,0,1,48,59,2137150304
50,21,7,Jits_ISO_8,1,5,63,98,2137162384
50,21,7,Jits_ISO_8,2,5,80,127,2137191716
50,21,7,Jits_ISO_8,3,5,56,103,2137221468
50,21,7,Jits_ISO_8,0,1,48,53,2137933816
50,21,7,Jits_ISO_8,1,5,56,103,2137961816
50,21,7,Jits_ISO_8,2,5,80,127,2138062276
50,21,7,Jits_ISO_8,3,5,63,98,2138112404
50,21,7,Jits_ISO_8,0,1,48,75,2138718088
50,21,7,Jits_ISO_8,1,5,56,103,2138761676
50,21,7,Jits_ISO_8,2,5,80,127,2138811732
50,21,7,Jits_ISO_8,3,5,63,98,2138851656
50,21,7,Jits_ISO_8,0,1,48,60,2139503432
50,21,7,Jits_ISO_8,1,1,38,16,2139513528
50,21,7,Jits_ISO_8,2,5,80,127,2139592224
50,21,7,Jits_ISO_8,3,5,63,98,2139621784
50,21,7,Jits_ISO_8,4,5,56,103,2139692292
50,21,7,Jits_ISO_8,0,1,48,67,2140280344
50,21,7,Jits_ISO_8,1,5,63,98,2140421436
50,21,7,Jits_ISO_8,2,5,56,103,2140452232
50,21,7,Jits_ISO_8,3,5,80,127,2140511576
50,21,7,Jits_ISO_8,0,1,48,70,2141081852
50,21,7,Jits_ISO_8,1,5,56,103,2141161892
50,21,7,Jits_ISO_8,2,5,80,127,2141165036
50,21,7,Jits_ISO_8,3,5,63,98,2141281604
50,21,7,Jits_ISO_8,0,1,48,65,2141894880
50,21,7,Jits_ISO_8,1,5,56,103,2142041368
50,21,7,Jits_ISO_8,2,5,80,127,2142082456
50,21,7,Jits_ISO_8,3,5,63,98,2142091528
50,21,7,Jits_ISO_8,0,5,56,103,2142802292
50,21,7,Jits_ISO_8,1,1,48,55,2142808476
50,21,7,Jits_ISO_8,2,5,80,127,2142821724
50,21,7,Jits_ISO_8,3,5,63,98,2142901592
50,21,7,Jits_ISO_8,0,5,80,127,2143591776
50,21,7,Jits_ISO_8,1,1,48,55,2143635052
50,21,7,Jits_ISO_8,2,5,56,103,2143692096
50,21,7,Jits_ISO_8,3,5,63,98,2143702516
50,21,7,Jits_ISO_8,0,1,48,69,2144361688
50,21,7,Jits_ISO_8,1,5,63,98,2144363176
50,21,7,Jits_ISO_8,2,5,80,127,2144422224
50,21,7,Jits_ISO_8,3,5,56,103,2144431596
50,21,7,Jits_ISO_8,0,1,48,58,2145146220
50,21,7,Jits_ISO_8,1,5,56,103,2145161536
50,21,7,Jits_ISO_8,2,5,63,98,2145232188
50,21,7,Jits_ISO_8,3,5,80,127,2145235480
50,21,7,Jits_ISO_8,0,1,48,59,2145867584
50,21,7,Jits_ISO_8,1,5,63,98,2145992300
50,21,7,Jits_ISO_8,2,5,56,103,2146042280
50,21,7,Jits_ISO_8,3,5,80,127,2146045272
50,21,7,Jits_ISO_8,0,1,48,73,2146664772
50,21,7,Jits_ISO_8,1,1,38,18,2146674720
50,21,7,Jits_ISO_8,2,5,56,103,2146751912
50,21,7,Jits_ISO_8,3,5,80,127,2146755056
50,21,7,Jits_ISO_8,4,5,63,98,2146842080
50,21,7,Jits_ISO_8,0,1,48,66,2147379904
50,21,7,Jits_ISO_8,1,1,38,16,2147389852
50,21,7,Jits_ISO_8,2,5,63,98,2147591476
50,21,7,Jits_ISO_8,3,5,56,103,2147681536
50,21,7,Jits_ISO_8,4,5,80,127,2147712508
50,21,7,Jits_ISO_8,0,5,56,103,2148382012
50,21,7,Jits_ISO_8,1,1,48,63,2148390384
50,21,7,Jits_ISO_8,2,5,63,98,2148482360
50,21,7,Jits_ISO_8,3,5,80,127,2148512092
50,21,7,Jits_ISO_8,0,1,48,75,2149165744
50,21,7,Jits_ISO_8,1,5,63,98,2149202336
50,21,7,Jits_ISO_8,2,5,56,103,2149211488
50,21,7,Jits_ISO_8,3,5,80,127,2149301480
50,21,7,Jits_ISO_8,0,5,63,98,2150021340
50,21,7,Jits_ISO_8,1,1,48,63,2150022308
50,21,7,Jits_ISO_8,2,5,56,103,2150102476
50,21,7,Jits_ISO_8,3,5,80,127,2150105544
50,21,7,Jits_ISO_8,0,5,80,127,2150782456
50,21,7,Jits_ISO_8,1,5,63,98,2150801944
50,21,7,Jits_ISO_8,2,1,48,51,2150838096
50,21,7,Jits_ISO_8,3,5,56,103,2150862180
50,21,7,Jits_ISO_8,0,1,48,69,2151520984
50,21,7,Jits_ISO_8,1,5,56,103,2151622240
50,21,7,Jits_ISO_8,2,5,63,98,2151641348
50,21,7,Jits_ISO_8,3,5,80,127,2151644944
50,21,7,Jits_ISO_8,0,1,48,61,2152303096
50,21,7,Jits_ISO_8,1,1,38,16,2152313044
50,21,7,Jits_ISO_8,2,5,63,98,2152362216
50,21,7,Jits_ISO_8,3,5,80,127,2152442196
50,21,7,Jits_ISO_8,4,5,56,103,2152451344
50,21,7,Jits_ISO_8,0,1,48,67,2153129364
50,21,7,Jits_ISO_8,1,5,63,98,2153181624
50,21,7,Jits_ISO_8,2,5,56,103,2153201932
50,21,7,Jits_ISO_8,3,5,80,127,2153252120
50,21,7,Jits_ISO_8,0,1,48,67,2153898576
50,21,7,Jits_ISO_8,1,5,80,127,2153982300
50,21,7,Jits_ISO_8,2,5,63,98,2154022228
50,21,7,Jits_ISO_8,3,5,56,103,2154041564
50,21,7,Jits_ISO_8,0,1,48,73,2154674244
50,21,7,Jits_ISO_8,1,5,56,103,2154822152
50,21,7,Jits_ISO_8,2,5,63,98,2154832348
50,21,7,Jits_ISO_8,3,5,80,127,2154851784
50,21,7,Jits_ISO_8,0,5,56,103,2155552128
50,21,7,Jits_ISO_8,1,1,48,67,2155556368
50,21,7,Jits_ISO_8,2,5,63,98,2155642208
50,21,7,Jits_ISO_8,3,5,80,127,2155701612
50,21,7,Jits_ISO_8,0,1,48,69,2156362608
50,21,7,Jits_ISO_8,1,5,80,127,2156381816
50,21,7,Jits_ISO_8,2,5,56,103,2156391888
50,21,7,Jits_ISO_8,3,5,63,98,2156461404
50,21,7,Jits_ISO_8,0,1,48,76,2157133764
50,21,7,Jits_ISO_8,1,5,63,98,2157212112
50,21,7,Jits_ISO_8,2,5,80,127,2157302088
50,21,7,Jits_ISO_8,3,5,56,103,2157312508
50,21,7,Jits_ISO_8,0,1,48,80,2157910932
50,21,7,Jits_ISO_8,1,5,63,98,2157952340
50,21,7,Jits_ISO_8,2,5,80,127,2158001420
50,21,7,Jits_ISO_8,3,5,56,103,2158062092
50,21,7,Jits_ISO_8,0,1,48,61,2158733660
50,21,7,Jits_ISO_8,1,5,56,103,2158781936
50,21,7,Jits_ISO_8,2,5,80,127,2158831900
50,21,7,Jits_ISO_8,3,5,63,98,2158851536
50,21,7,Jits_ISO_8,0,1,48,79,2159510144
50,21,7,Jits_ISO_8,1,5,56,103,2159551748
50,21,7,Jits_ISO_8,2,5,80,127,2159612200
50,21,7,Jits_ISO_8,3,5,63,98,2159681880
50,21,7,Jits_ISO_8,0,1,48,69,2160278596
50,21,7,Jits_ISO_8,1,5,56,103,2160351680
50,21,7,Jits_ISO_8,2,5,80,127,2160382312
50,21,7,Jits_ISO_8,3,5,63,98,2160411988
50,21,7,Jits_ISO_8,0,1,48,67,2161045108
50,21,7,Jits_ISO_8,1,5,56,103,2161192272
50,21,7,Jits_ISO_8,2,5,80,127,2161211688
50,21,7,Jits_ISO_8,3,5,63,98,2161272100
50,21,7,Jits_ISO_8,0,1,48,65,2161986944
50,21,7,Jits_ISO_8,1,5,80,127,2162071964
50,21,7,Jits_ISO_8,2,5,56,103,2162082088
50,21,7,Jits_ISO_8,3,5,63,98,2162092344
50,21,7,Jits_ISO_8,0,1,48,61,2162798072
50,21,7,Jits_ISO_8,1,5,56,103,2162831896
50,21,7,Jits_ISO_8,2,5,80,127,2162871760
50,21,7,Jits_ISO_8,3,5,63,98,2162902320
50,21,7,Jits_ISO_8,0,5,56,103,2163601720
50,21,7,Jits_ISO_8,1,5,63,98,2163631400
50,21,7,Jits_ISO_8,2,1,48,65,2163654368
50,21,7,Jits_ISO_8,3,5,80,127,2163672600
50,21,7,Jits_ISO_8,0,5,80,127,2164352444
50,21,7,Jits_ISO_8,1,1,48,60,2164391604
50,21,7,Jits_ISO_8,2,5,63,98,2164401668
50,21,7,Jits_ISO_8,3,5,56,103,2164421976
50,21,7,Jits_ISO_8,0,1,48,74,2165082196
50,21,7,Jits_ISO_8,1,5,56,103,2165181816
50,21,7,Jits_ISO_8,2,5,80,127,2165251560
50,21,7,Jits_ISO_8,3,5,63,98,2165311876
50,21,7,Jits_ISO_8,0,1,48,63,2165959536
50,21,7,Jits_ISO_8,1,5,80,127,2165981676
50,21,7,Jits_ISO_8,2,5,63,98,2166071800
50,21,7,Jits_ISO_8,3,5,56,103,2166092108
50,21,7,Jits_ISO_8,0,5,63,98,2166801628
50,21,7,Jits_ISO_8,1,1,48,77,2166812692
50,21,7,Jits_ISO_8,2,5,56,103,2166822304
50,21,7,Jits_ISO_8,3,5,80,127,2166862168
50,21,7,Jits_ISO_8,0,5,80,127,2167561772
50,21,7,Jits_ISO_8,1,5,63,98,2167582012
50,21,7,Jits_ISO_8,2,1,48,71,2167625812
50,21,7,Jits_ISO_8,3,5,56,103,2167661900
50,21,7,Jits_ISO_8,0,5,63,98,2168352056
50,21,7,Jits_ISO_8,1,5,56,103,2168461696
50,21,7,Jits_ISO_8,2,5,80,127,2168464836
50,21,7,Jits_ISO_8,3,1,48,66,2168476420
50,21,7,Jits_ISO_8,0,1,48,69,2169165880
50,21,7,Jits_ISO_8,1,5,63,98,2169172424
50,21,7,Jits_ISO_8,2,5,56,103,2169181572
50,21,7,Jits_ISO_8,3,5,80,127,2169184564
50,21,7,Jits_ISO_8,0,1,48,68,2169908916
50,21,7,Jits_ISO_8,1,5,56,103,2169951884
50,21,7,Jits_ISO_8,2,5,80,127,2170072500
50,21,7,Jits_ISO_8,3,5,63,98,2170112588
50,21,7,Jits_ISO_8,0,5,56,103,2170771836
50,21,7,Jits_ISO_8,1,1,48,60,2170782524
50,21,7,Jits_ISO_8,2,5,80,127,2170851628
50,21,7,Jits_ISO_8,3,5,63,98,2170872084
50,21,7,Jits_ISO_8,0,5,56,103,2171571480
50,21,7,Jits_ISO_8,1,5,63,98,2171682288
50,21,7,Jits_ISO_8,2,5,80,127,2171685728
50,21,7,Jits_ISO_8,3,1,48,59,2171687516
50,21,7,Jits_ISO_8,0,1,48,65,2172348372
50,21,7,Jits_ISO_8,1,5,56,103,2172401980
50,21,7,Jits_ISO_8,2,5,80,127,2172431804
50,21,7,Jits_ISO_8,3,5,63,98,2172452248
50,21,7,Jits_ISO_8,0,1,48,67,2173162476
50,21,7,Jits_ISO_8,1,5,63,98,2173182504
50,21,7,Jits_ISO_8,2,5,56,103,2173191580
50,21,7,Jits_ISO_8,3,5,80,127,2173201776
50,21,7,Jits_ISO_8,0,5,80,127,2173971728
50,21,7,Jits_ISO_8,1,1,48,57,2174002944
50,21,7,Jits_ISO_8,2,5,56,103,2174021852
50,21,7,Jits_ISO_8,3,5,63,98,2174061888
50,21,7,Jits_ISO_8,0,5,80,127,2174792056
50,21,7,Jits_ISO_8,1,5,63,98,2174811468
50,21,7,Jits_ISO_8,2,1,48,64,2174861696
50,21,7,Jits_ISO_8,3,5,56,103,2174863108
50,21,7,Jits_ISO_8,0,5,80,127,2175601992
50,21,7,Jits_ISO_8,1,5,56,103,2175631672
50,21,7,Jits_ISO_8,2,5,63,98,2175702472
50,21,7,Jits_ISO_8,3,1,48,59,2175726192
50,21,7,Jits_ISO_8,0,5,56,103,2176451844
50,21,7,Jits_ISO_8,1,5,80,127,2176462412
50,21,7,Jits_ISO_8,2,1,48,53,2176472360
50,21,7,Jits_ISO_8,3,5,63,98,2176502120
50,21,7,Jits_ISO_8,0,5,56,103,2177161588
50,21,7,Jits_ISO_8,1,5,63,98,2177181976
50,21,7,Jits_ISO_8,2,1,48,58,2177222032
50,21,7,Jits_ISO_8,3,5,80,127,2177251648
50,21,7,Jits_ISO_8,0,1,48,67,2177954744
50,21,7,Jits_ISO_8,1,5,63,98,2177981748
50,21,7,Jits_ISO_8,2,5,80,127,2178042216
50,21,7,Jits_ISO_8,3,5,56,103,2178061540
50,21,7,Jits_ISO_8,0,1,48,61,2178749056
50,21,7,Jits_ISO_8,1,5,80,127,2178772464
50,21,7,Jits_ISO_8,2,5,56,103,2178801992
50,21,7,Jits_ISO_8,3,5,63,98,2178831668
50,21,7,Jits_ISO_8,0,1,48,59,2179554912
50,21,7,Jits_ISO_8,1,5,56,103,2179572024
50,21,7,Jits_ISO_8,2,5,63,98,2179631444
50,21,7,Jits_ISO_8,3,5,80,127,2179691992
50,21,7,Jits_ISO_8,0,5,80,127,2180392268
50,21,7,Jits_ISO_8,1,5,56,103,2180411828
50,21,7,Jits_ISO_8,2,1,48,49,2180431888
50,21,7,Jits_ISO_8,3,5,63,98,2180482352
50,21,7,Jits_ISO_8,0,1,48,64,2181188576
50,21,7,Jits_ISO_8,1,5,80,127,2181192060
50,21,7,Jits_ISO_8,2,5,63,98,2181211548
50,21,7,Jits_ISO_8,3,5,56,103,2181242516
50,21,7,Jits_ISO_8,0,1,48,58,2181942740
50,21,7,Jits_ISO_8,1,5,80,127,2181981500
50,21,7,Jits_ISO_8,2,5,63,98,2182001984
50,21,7,Jits_ISO_8,3,5,56,103,2182061312
50,21,7,Jits_ISO_8,0,1,48,60,2182735320
50,21,7,Jits_ISO_8,1,5,80,127,2182782276
50,21,7,Jits_ISO_8,2,5,56,103,2182881616
50,21,7,Jits_ISO_8,3,5,63,98,2182912264
50,21,7,Jits_ISO_8,0,5,63,98,2183571804
50,21,7,Jits_ISO_8,1,1,48,60,2183603696
50,21,7,Jits_ISO_8,2,5,80,127,2183622076
50,21,7,Jits_ISO_8,3,5,56,103,2183641416
50,21,7,Jits_ISO_8,0,5,80,127,2184411440
50,21,7,Jits_ISO_8,1,1,48,65,2184420260
50,21,7,Jits_ISO_8,2,5,56,103,2184442380
50,21,7,Jits_ISO_8,3,5,63,98,2184445444
50,21,7,Jits_ISO_8,0,5,63,98,2185241948
50,21,7,Jits_ISO_8,1,1,48,70,2185265296
50,21,7,Jits_ISO_8,2,5,56,103,2185281804
50,21,7,Jits_ISO_8,3,5,80,127,2185302412
50,21,7,Jits_ISO_8,0,5,80,127,2185982244
50,21,7,Jits_ISO_8,1,5,63,98,2186062340
50,21,7,Jits_ISO_8,2,1,48,64,2186096652
50,21,7,Jits_ISO_8,3,5,56,103,2186102072
50,21,7,Jits_ISO_8,0,5,63,98,2186801452
50,21,7,Jits_ISO_8,1,1,48,59,2186832740
50,21,7,Jits_ISO_8,2,5,80,127,2186882464
50,21,7,Jits_ISO_8,3,5,56,103,2186901804
50,21,7,Jits_ISO_8,0,1,48,56,2187611996
50,21,7,Jits_ISO_8,1,5,56,103,2187642312
50,21,7,Jits_ISO_8,2,5,63,98,2187651316
50,21,7,Jits_ISO_8,3,5,80,127,2187692452
50,21,7,Jits_ISO_8,0,1,48,51,2188325468
50,21,7,Jits_ISO_8,1,5,56,103,2188362208
50,21,7,Jits_ISO_8,2,5,80,127,2188365272
50,21,7,Jits_ISO_8,3,5,63,98,2188502472
50,21,7,Jits_ISO_8,0,5,56,103,2189151652
50,21,7,Jits_ISO_8,1,1,48,59,2189177192
50,21,7,Jits_ISO_8,2,5,63,98,2189241584
50,21,7,Jits_ISO_8,3,5,80,127,2189312296
50,21,7,Jits_ISO_8,0,1,48,58,2190002016
50,21,7,Jits_ISO_8,1,5,63,98,2190032232
50,21,7,Jits_ISO_8,2,5,80,127,2190035524
50,21,7,Jits_ISO_8,3,5,56,103,2190091576
50,21,7,Jits_ISO_8,0,1,48,57,2190768812
50,21,7,Jits_ISO_8,1,5,80,127,2190872080
50,21,7,Jits_ISO_8,2,5,56,103,2190892316
50,21,7,Jits_ISO_8,3,5,63,98,2190901540
50,21,7,Jits_ISO_8,0,1,48,59,2191578420
50,21,7,Jits_ISO_8,1,5,56,103,2191581528
50,21,7,Jits_ISO_8,2,1,38,16,2191588612
50,21,7,Jits_ISO_8,3,5,63,98,2191591792
50,21,7,Jits_ISO_8,4,5,80,127,2191661396
50,21,7,Jits_ISO_8,0,5,80,127,2192382272
50,21,7,Jits_ISO_8,1,1,48,66,2192417676
50,21,7,Jits_ISO_8,2,5,56,103,2192431424
50,21,7,Jits_ISO_8,3,5,63,98,2192481648
50,21,7,Jits_ISO_8,0,1,48,53,2193160544
50,21,7,Jits_ISO_8,1,5,56,103,2193262096
50,21,7,Jits_ISO_8,2,5,63,98,2193272364
50,21,7,Jits_ISO_8,3,5,80,127,2193312228
50,21,7,Jits_ISO_8,0,1,48,60,2193959196
50,21,7,Jits_ISO_8,1,5,56,103,2194002312
50,21,7,Jits_ISO_8,2,5,63,98,2194042276
50,21,7,Jits_ISO_8,3,5,80,127,2194092540
50,21,7,Jits_ISO_8,0,5,80,127,2194762248
50,21,7,Jits_ISO_8,1,1,48,60,2194763212
50,21,7,Jits_ISO_8,2,5,56,103,2194812244
50,21,7,Jits_ISO_8,3,5,63,98,2194831656
50,21,7,Jits_ISO_8,0,1,48,59,2195510620
50,21,7,Jits_ISO_8,1,5,80,127,2195572176
50,21,7,Jits_ISO_8,2,5,63,98,2195631584
50,21,7,Jits_ISO_8,3,5,56,103,2195712352
50,21,7,Jits_ISO_8,0,5,80,127,2196352340
50,21,7,Jits_ISO_8,1,1,48,63,2196360560
50,21,7,Jits_ISO_8,2,5,56,103,2196392420
50,21,7,Jits_ISO_8,3,5,63,98,2196411756
50,21,7,Jits_ISO_8,0,1,48,60,2197079080
50,21,7,Jits_ISO_8,1,5,56,103,2197202224
50,21,7,Jits_ISO_8,2,5,80,127,2197211376
50,21,7,Jits_ISO_8,3,5,63,98,2197251388
50,21,7,Jits_ISO_8,0,1,48,62,2197974424
50,21,7,Jits_ISO_8,1,5,56,103,2198071540
50,21,7,Jits_ISO_8,2,5,63,98,2198111552
50,21,7,Jits_ISO_8,3,5,80,127,2198115064
50,21,7,Jits_ISO_8,0,5,63,98,2198761856
50,21,7,Jits_ISO_8,1,5,80,127,2198801944
50,21,7,Jits_ISO_8,2,1,48,53,2198836976
50,21,7,Jits_ISO_8,3,5,56,103,2198872444
50,21,7,Jits_ISO_8,0,1,48,62,2199493424
50,21,7,Jits_ISO_8,1,5,63,98,2199552268
50,21,7,Jits_ISO_8,2,5,56,103,2199632124
50,21,7,Jits_ISO_8,3,5,80,127,2199691564
50,21,7,Jits_ISO_8,0,1,48,67,2200335308
50,21,7,Jits_ISO_8,1,5,80,127,2200362464
50,21,7,Jits_ISO_8,2,5,63,98,2200411620
50,21,7,Jits_ISO_8,3,5,56,103,2200442204
50,21,7,Jits_ISO_8,0,1,48,59,2201090376
50,21,7,Jits_ISO_8,1,5,56,103,2201152056
50,21,7,Jits_ISO_8,2,5,63,98,2201201896
50,21,7,Jits_ISO_8,3,5,80,127,2201212168
50,21,7,Jits_ISO_8,0,1,48,58,2201902140
50,21,7,Jits_ISO_8,1,5,56,103,2201962048
50,21,7,Jits_ISO_8,2,5,63,98,2202072548
50,21,7,Jits_ISO_8,3,5,80,127,2202092032
50,21,7,Jits_ISO_8,0,1,48,63,2202619716
50,21,7,Jits_ISO_8,1,5,63,98,2202761596
50,21,7,Jits_ISO_8,2,5,80,127,2202811728
50,21,7,Jits_ISO_8,3,5,56,103,2202902080
50,21,7,Jits_ISO_8,0,5,63,98,2203552180
50,21,7,Jits_ISO_8,1,1,48,65,2203575972
50,21,7,Jits_ISO_8,2,5,80,127,2203581924
50,21,7,Jits_ISO_8,3,5,56,103,2203672040
50,21,7,Jits_ISO_8,0,5,63,98,2204351956
50,21,7,Jits_ISO_8,1,5,56,103,2204362080
50,21,7,Jits_ISO_8,2,1,48,65,2204384528
50,21,7,Jits_ISO_8,3,5,80,127,2204461496
50,21,7,Jits_ISO_8,0,1,48,64,2205188856
50,21,7,Jits_ISO_8,1,5,63,98,2205251904
50,21,7,Jits_ISO_8,2,5,80,127,2205281888
50,21,7,Jits_ISO_8,3,5,56,103,2205312240
50,21,7,Jits_ISO_8,0,1,48,78,2206024248
50,21,7,Jits_ISO_8,1,5,80,127,2206072176
50,21,7,Jits_ISO_8,2,5,63,98,2206082372
50,21,7,Jits_ISO_8,3,5,56,103,2206112048
50,21,7,Jits_ISO_8,0,5,80,127,2206771624
50,21,7,Jits_ISO_8,1,5,63,98,2206792008
50,21,7,Jits_ISO_8,2,1,48,80,2206793348
50,21,7,Jits_ISO_8,3,5,56,103,2206842304
50,21,7,Jits_ISO_8,0,5,63,98,2207602012
50,21,7,Jits_ISO_8,1,1,48,48,2207606476
50,21,7,Jits_ISO_8,2,5,80,127,2207661276
50,21,7,Jits_ISO_8,3,5,56,103,2207681960
50,21,7,Jits_ISO_8,0,5,63,98,2208361936
50,21,7,Jits_ISO_8,1,1,48,88,2208373748
50,21,7,Jits_ISO_8,2,5,56,103,2208412060
50,21,7,Jits_ISO_8,3,5,80,127,2208422256
50,21,7,Jits_ISO_8,0,1,48,59,2209188648
50,21,7,Jits_ISO_8,1,5,56,103,2209192280
50,21,7,Jits_ISO_8,2,5,80,127,2209201724
50,21,7,Jits_ISO_8,3,5,63,98,2209301808
50,21,7,Jits_ISO_8,0,5,80,127,2209952052
50,21,7,Jits_ISO_8,1,5,63,98,2209962248
50,21,7,Jits_ISO_8,2,1,48,72,2209986416
50,21,7,Jits_ISO_8,3,5,56,103,2210111844
50,21,7,Jits_ISO_8,0,1,48,76,2210762484
50,21,7,Jits_ISO_8,1,5,63,98,2210763748
50,21,7,Jits_ISO_8,2,5,80,127,2210801896
50,21,7,Jits_ISO_8,3,5,56,103,2210881824
50,21,7,Jits_ISO_8,0,1,48,65,2211481544
50,21,7,Jits_ISO_8,1,1,38,16,2211491192
50,21,7,Jits_ISO_8,2,5,56,103,2211551828
50,21,7,Jits_ISO_8,3,5,80,127,2211651812
50,21,7,Jits_ISO_8,4,5,63,98,2211672572
50,21,7,Jits_ISO_8,0,1,48,67,2212330232
50,21,7,Jits_ISO_8,1,5,80,127,2212411696
50,21,7,Jits_ISO_8,2,5,56,103,2212421968
50,21,7,Jits_ISO_8,3,5,63,98,2212512184
50,21,7,Jits_ISO_8,0,1,48,41,2213199384
50,21,7,Jits_ISO_8,1,5,56,103,2213211636
50,21,7,Jits_ISO_8,2,5,63,98,2213231896
50,21,7,Jits_ISO_8,3,5,80,127,2213311828
50,21,7,Jits_ISO_8,0,5,63,98,2213962052
50,21,7,Jits_ISO_8,1,1,48,70,2213977756
50,21,7,Jits_ISO_8,2,1,38,18,2213987888
50,21,7,Jits_ISO_8,3,5,56,103,2214052200
50,21,7,Jits_ISO_8,4,5,80,127,2214055192
50,21,7,Jits_ISO_8,0,1,48,82,2214762856
50,21,7,Jits_ISO_8,1,5,56,103,2214791948
50,21,7,Jits_ISO_8,2,5,80,127,2214851896
50,21,7,Jits_ISO_8,3,5,63,98,2214862820
50,21,7,Jits_ISO_8,0,1,48,71,2215622732
50,21,7,Jits_ISO_8,1,1,38,17,2215632976
50,21,7,Jits_ISO_8,2,5,80,127,2215641540
50,21,7,Jits_ISO_8,3,5,56,103,2215651660
50,21,7,Jits_ISO_8,4,5,63,98,2215654728
50,21,7,Jits_ISO_8,0,5,56,103,2216402576
50,21,7,Jits_ISO_8,1,5,80,127,2216411580
50,21,7,Jits_ISO_8,2,5,63,98,2216431964
50,21,7,Jits_ISO_8,3,1,48,54,2216484600
50,21,7,Jits_ISO_8,0,1,48,55,2217172480
50,21,7,Jits_ISO_8,1,5,63,98,2217173816
50,21,7,Jits_ISO_8,2,5,80,127,2217231596
50,21,7,Jits_ISO_8,3,5,56,103,2217281780
50,21,7,Jits_ISO_8,0,1,48,67,2217867776
50,21,7,Jits_ISO_8,1,5,63,98,2218051812
50,21,7,Jits_ISO_8,2,5,56,103,2218062156
50,21,7,Jits_ISO_8,3,5,80,127,2218112460
50,21,7,Jits_ISO_8,0,5,63,98,2218752496
50,21,7,Jits_ISO_8,1,5,80,127,2218771760
50,21,7,Jits_ISO_8,2,5,56,103,2218782108
50,21,7,Jits_ISO_8,3,1,48,67,2218806648
50,21,7,Jits_ISO_8,0,1,48,51,2219491704
50,21,7,Jits_ISO_8,1,5,63,98,2219552112
50,21,7,Jits_ISO_8,2,5,80,127,2219555552
50,21,7,Jits_ISO_8,3,5,56,103,2219592112
50,21,7,Jits_ISO_8,0,1,48,66,2220269280
50,21,7,Jits_ISO_8,1,5,63,98,2220421424
50,21,7,Jits_ISO_8,2,5,80,127,2220452220
50,21,7,Jits_ISO_8,3,5,56,103,2220461372
50,21,7,Jits_ISO_8,0,1,48,57,2221129604
50,21,7,Jits_ISO_8,1,5,56,103,2221172072
50,21,7,Jits_ISO_8,2,5,80,127,2221201824
50,21,7,Jits_ISO_8,3,5,63,98,2221231408
50,21,7,Jits_ISO_8,0,1,48,53,2221928736
50,21,7,Jits_ISO_8,1,5,63,98,2222072308
50,21,7,Jits_ISO_8,2,5,56,103,2222112244
50,21,7,Jits_ISO_8,3,5,80,127,2222115164
50,21,7,Jits_ISO_8,0,5,80,127,2222771420
50,21,7,Jits_ISO_8,1,1,48,59,2222837016
50,21,7,Jits_ISO_8,2,5,56,103,2222851436
50,21,7,Jits_ISO_8,3,5,63,98,2222901488
50,21,7,Jits_ISO_8,0,5,80,127,2223551888
50,21,7,Jits_ISO_8,1,5,56,103,2223572348
50,21,7,Jits_ISO_8,2,1,48,53,2223602744
50,21,7,Jits_ISO_8,3,5,63,98,2223661352
50,21,7,Jits_ISO_8,0,1,48,56,2224369320
50,21,7,Jits_ISO_8,1,5,80,127,2224391612
50,21,7,Jits_ISO_8,2,5,63,98,2224431628
50,21,7,Jits_ISO_8,3,5,56,103,2224472524
50,21,7,Jits_ISO_8,0,1,48,60,2225108348
50,21,7,Jits_ISO_8,1,5,63,98,2225161504
50,21,7,Jits_ISO_8,2,5,80,127,2225221956
50,21,7,Jits_ISO_8,3,5,56,103,2225251728
50,21,7,Jits_ISO_8,0,1,48,59,2225858752
50,21,7,Jits_ISO_8,1,5,56,103,2225962464
50,21,7,Jits_ISO_8,2,5,80,127,2225992140
50,21,7,Jits_ISO_8,3,5,63,98,2226082296
50,21,7,Jits_ISO_8,0,1,48,48,2226651280
50,21,7,Jits_ISO_8,1,5,56,103,2226772512
50,21,7,Jits_ISO_8,2,5,80,127,2226881932
50,21,7,Jits_ISO_8,3,5,63,98,2226911456
50,21,7,Jits_ISO_8,0,1,48,65,2227563396
50,21,7,Jits_ISO_8,1,5,56,103,2227622392
50,21,7,Jits_ISO_8,2,5,63,98,2227681572
50,21,7,Jits_ISO_8,3,5,80,127,2227712520
50,21,7,Jits_ISO_8,0,1,48,73,2228329164
50,21,7,Jits_ISO_8,1,5,56,103,2228392360
50,21,7,Jits_ISO_8,2,5,63,98,2228461880
50,21,7,Jits_ISO_8,3,5,80,127,2228482416
50,21,7,Jits_ISO_8,0,1,48,63,2228975336
50,21,7,Jits_ISO_8,1,5,80,127,2229162464
50,21,7,Jits_ISO_8,2,5,63,98,2229181728
50,21,7,Jits_ISO_8,3,5,56,103,2229232372
50,21,7,Jits_ISO_8,0,9999,9999,9999,2134429780
50,21,7,Jits_ISO_8,1,9999,9999,9999,2135229556
50,21,7,Jits_ISO_8,2,9999,9999,9999,2136029256
50,21,7,Jits_ISO_8,3,9999,9999,9999,2136830012
50,21,7,Jits_ISO_8,4,9999,9999,9999,2137629792
50,21,7,Jits_ISO_8,5,9999,9999,9999,2138429504
50,21,7,Jits_ISO_8,6,9999,9999,9999,2139229284
50,21,7,Jits_ISO_8,7,9999,9999,9999,2140030012
50,21,7,Jits_ISO_8,8,9999,9999,9999,2140829748
50,21,7,Jits_ISO_8,9,9999,9999,9999,2141629516
50,21,7,Jits_ISO_8,10,9999,9999,9999,2142429304
50,21,7,Jits_ISO_8,11,9999,9999,9999,2143230060
50,21,7,Jits_ISO_8,12,9999,9999,9999,2144029788
50,21,7,Jits_ISO_8,13,9999,9999,9999,2144829512
50,21,7,Jits_ISO_8,14,9999,9999,9999,2145629284
50,21,7,Jits_ISO_8,15,9999,9999,9999,2146430048
50,21,7,Jits_ISO_8,16,9999,9999,9999,2147229772
50,21,7,Jits_ISO_8,17,9999,9999,9999,2148029532
50,21,7,Jits_ISO_8,18,9999,9999,9999,2148829268
50,21,7,Jits_ISO_8,19,9999,9999,9999,2149630040
50,21,7,Jits_ISO_8,20,9999,9999,9999,2150429748
50,21,7,Jits_ISO_8,21,9999,9999,9999,2151229528
50,21,7,Jits_ISO_8,22,9999,9999,9999,2152029244
50,21,7,Jits_ISO_8,23,9999,9999,9999,2152830044
50,21,7,Jits_ISO_8,24,9999,9999,9999,2153629772
50,21,7,Jits_ISO_8,25,9999,9999,9999,2154429556
50,21,7,Jits_ISO_8,26,9999,9999,9999,2155229264
50,21,7,Jits_ISO_8,27,9999,9999,9999,2156030020
50,21,7,Jits_ISO_8,28,9999,9999,9999,2156829816
50,21,7,Jits_ISO_8,29,9999,9999,9999,2157629532
50,21,7,Jits_ISO_8,30,9999,9999,9999,2158429236
50,21,7,Jits_ISO_8,31,9999,9999,9999,2159230012
50,21,7,Jits_ISO_8,32,9999,9999,9999,2160029792
50,21,7,Jits_ISO_8,33,9999,9999,9999,2160829496
50,21,7,Jits_ISO_8,34,9999,9999,9999,2161629280
50,21,7,Jits_ISO_8,35,9999,9999,9999,2162430040
50,21,7,Jits_ISO_8,36,9999,9999,9999,2163229756
50,21,7,Jits_ISO_8,37,9999,9999,9999,2164029540
50,21,7,Jits_ISO_8,38,9999,9999,9999,2164829256
50,21,7,Jits_ISO_8,39,9999,9999,9999,2165630048
50,21,7,Jits_ISO_8,40,9999,9999,9999,2166429760
50,21,7,Jits_ISO_8,41,9999,9999,9999,2167229544
50,21,7,Jits_ISO_8,42,9999,9999,9999,2168029248
50,21,7,Jits_ISO_8,43,9999,9999,9999,2168830012
50,21,7,Jits_ISO_8,44,9999,9999,9999,2169629776
50,21,7,Jits_ISO_8,45,9999,9999,9999,2170429540
50,21,7,Jits_ISO_8,46,9999,9999,9999,2171229248
50,21,7,Jits_ISO_8,47,9999,9999,9999,2172030032
50,21,7,Jits_ISO_8,48,9999,9999,9999,2172829752
50,21,7,Jits_ISO_8,49,9999,9999,9999,2173629532
50,21,7,Jits_ISO_8,50,9999,9999,9999,2174429240
50,21,7,Jits_ISO_8,51,9999,9999,9999,2175230012
50,21,7,Jits_ISO_8,52,9999,9999,9999,2176029812
50,21,7,Jits_ISO_8,53,9999,9999,9999,2176829544
50,21,7,Jits_ISO_8,54,9999,9999,9999,2177629264
50,21,7,Jits_ISO_8,55,9999,9999,9999,2178430052
50,21,7,Jits_ISO_8,56,9999,9999,9999,2179229756
50,21,7,Jits_ISO_8,57,9999,9999,9999,2180029544
50,21,7,Jits_ISO_8,58,9999,9999,9999,2180829252
50,21,7,Jits_ISO_8,59,9999,9999,9999,2181630020
50,21,7,Jits_ISO_8,60,9999,9999,9999,2182429800
50,21,7,Jits_ISO_8,61,9999,9999,9999,2183229512
50,21,7,Jits_ISO_8,62,9999,9999,9999,2184029292
50,21,7,Jits_ISO_8,63,9999,9999,9999,2184830056
50,21,7,Jits_ISO_8,64,9999,9999,9999,2185629784
50,21,7,Jits_ISO_8,65,9999,9999,9999,2186429496
50,21,7,Jits_ISO_8,66,9999,9999,9999,2187229300
50,21,7,Jits_ISO_8,67,9999,9999,9999,2188030060
50,21,7,Jits_ISO_8,68,9999,9999,9999,2188829760
50,21,7,Jits_ISO_8,69,9999,9999,9999,2189629544
50,21,7,Jits_ISO_8,70,9999,9999,9999,2190429260
50,21,7,Jits_ISO_8,71,9999,9999,9999,2191230048
50,21,7,Jits_ISO_8,72,9999,9999,9999,2192029792
50,21,7,Jits_ISO_8,73,9999,9999,9999,2192829524
50,21,7,Jits_ISO_8,74,9999,9999,9999,2193629256
50,21,7,Jits_ISO_8,75,9999,9999,9999,2194430016
50,21,7,Jits_ISO_8,76,9999,9999,9999,2195229796
50,21,7,Jits_ISO_8,77,9999,9999,9999,2196029524
50,21,7,Jits_ISO_8,78,9999,9999,9999,2196829300
50,21,7,Jits_ISO_8,79,9999,9999,9999,2197630012
50,21,7,Jits_ISO_8,80,9999,9999,9999,2198429772
50,21,7,Jits_ISO_8,81,9999,9999,9999,2199229556
50,21,7,Jits_ISO_8,82,9999,9999,9999,2200029264
50,21,7,Jits_ISO_8,83,9999,9999,9999,2200830020
50,21,7,Jits_ISO_8,84,9999,9999,9999,2201629800
50,21,7,Jits_ISO_8,85,9999,9999,9999,2202429508
50,21,7,Jits_ISO_8,86,9999,9999,9999,2203229296
50,21,7,Jits_ISO_8,87,9999,9999,9999,2204030064
50,21,7,Jits_ISO_8,88,9999,9999,9999,2204829768
50,21,7,Jits_ISO_8,89,9999,9999,9999,2205629564
50,21,7,Jits_ISO_8,90,9999,9999,9999,2206429280
50,21,7,Jits_ISO_8,91,9999,9999,9999,2207230032
50,21,7,Jits_ISO_8,92,9999,9999,9999,2208029756
50,21,7,Jits_ISO_8,93,9999,9999,9999,2208829536
50,21,7,Jits_ISO_8,94,9999,9999,9999,2209629244
50,21,7,Jits_ISO_8,95,9999,9999,9999,2210430016
50,21,7,Jits_ISO_8,96,9999,9999,9999,2211229812
50,21,7,Jits_ISO_8,97,9999,9999,9999,2212029548
50,21,7,Jits_ISO_8,98,9999,9999,9999,2212829284
50,21,7,Jits_ISO_8,99,9999,9999,9999,2213630048
50,21,7,Jits_ISO_8,100,9999,9999,9999,2214429784
50,21,7,Jits_ISO_8,101,9999,9999,9999,2215229516
50,21,7,Jits_ISO_8,102,9999,9999,9999,2216029248
50,21,7,Jits_ISO_8,103,9999,9999,9999,2216830044
50,21,7,Jits_ISO_8,104,9999,9999,9999,2217629768
50,21,7,Jits_ISO_8,105,9999,9999,9999,2218429556
50,21,7,Jits_ISO_8,106,9999,9999,9999,2219229260
50,21,7,Jits_ISO_8,107,9999,9999,9999,2220030068
50,21,7,Jits_ISO_8,108,9999,9999,9999,2220829784
50,21,7,Jits_ISO_8,109,9999,9999,9999,2221629564
50,21,7,Jits_ISO_8,110,9999,9999,9999,2222429272
50,21,7,Jits_ISO_8,111,9999,9999,9999,2223230056
50,21,7,Jits_ISO_8,112,9999,9999,9999,2224029776
50,21,7,Jits_ISO_8,113,9999,9999,9999,2224829504
50,21,7,Jits_ISO_8,114,9999,9999,9999,2225629284
50,21,7,Jits_ISO_8,115,9999,9999,9999,2226430036
50,21,7,Jits_ISO_8,116,9999,9999,9999,2227229752
50,21,7,Jits_ISO_8,117,9999,9999,9999,2228029544
50,21,7,Jits_ISO_8,118,9999,9999,9999,2228829256
50,21,7,Jits_ISO_8,119,9999,9999,9999,2229630032
50,22,5,ISIP_5,0,5,42,127,2309172452
50,22,5,ISIP_5,1,5,42,127,2309673588
50,22,5,ISIP_5,2,1,48,63,2310151424
50,22,5,ISIP_5,3,5,42,127,2310173148
50,22,5,ISIP_5,4,1,48,86,2310619776
50,22,5,ISIP_5,5,5,42,127,2310672696
50,22,5,ISIP_5,6,1,48,72,2311150436
50,22,5,ISIP_5,7,5,42,127,2311172388
50,22,5,ISIP_5,8,1,48,62,2311643252
50,22,5,ISIP_5,9,5,42,127,2311673352
50,22,5,ISIP_5,10,5,42,127,2312173056
50,22,5,ISIP_5,11,1,48,65,2312187096
50,22,5,ISIP_5,12,1,48,60,2312667844
50,22,5,ISIP_5,13,5,42,127,2312672816
50,22,5,ISIP_5,14,5,42,127,2313173640
50,22,5,ISIP_5,15,1,48,61,2313175932
50,22,5,ISIP_5,16,5,42,127,2313673184
50,22,5,ISIP_5,17,1,48,54,2313676828
50,22,5,ISIP_5,18,1,38,15,2313686756
50,22,5,ISIP_5,19,1,48,52,2314164712
50,22,5,ISIP_5,20,5,42,127,2314172824
50,22,5,ISIP_5,21,5,42,127,2314672452
50,22,5,ISIP_5,22,1,48,60,2314689032
50,22,5,ISIP_5,23,5,42,127,2315173492
50,22,5,ISIP_5,24,1,48,58,2315229568
50,22,5,ISIP_5,25,5,42,127,2315672888
50,22,5,ISIP_5,26,1,48,60,2315725520
50,22,5,ISIP_5,27,5,42,127,2316172732
50,22,5,ISIP_5,28,1,48,76,2316188192
50,22,5,ISIP_5,29,5,42,127,2316673476
50,22,5,ISIP_5,30,1,48,81,2316685720
50,22,5,ISIP_5,31,5,42,127,2317173392
50,22,5,ISIP_5,32,1,48,73,2317189156
50,22,5,ISIP_5,33,5,42,127,2317672940
50,22,5,ISIP_5,34,1,48,78,2317696256
50,22,5,ISIP_5,35,5,42,127,2318172484
50,22,5,ISIP_5,36,1,48,69,2318178672
50,22,5,ISIP_5,37,5,42,127,2318673424
50,22,5,ISIP_5,38,1,48,71,2318708508
50,22,5,ISIP_5,39,5,42,127,2319173048
50,22,5,ISIP_5,40,1,48,65,2319198480
50,22,5,ISIP_5,41,5,42,127,2319672816
50,22,5,ISIP_5,42,1,48,77,2319683188
50,22,5,ISIP_5,43,5,42,127,2320173408
50,22,5,ISIP_5,44,1,48,68,2320179816
50,22,5,ISIP_5,45,1,48,71,2320660648
50,22,5,ISIP_5,46,5,42,127,2320673244
50,22,5,ISIP_5,47,5,42,127,2321172724
50,22,5,ISIP_5,48,1,48,69,2321180552
50,22,5,ISIP_5,49,1,48,68,2321641256
50,22,5,ISIP_5,50,1,38,17,2321651188
50,22,5,ISIP_5,51,5,42,127,2321672616
50,22,5,ISIP_5,52,1,48,70,2322142776
50,22,5,ISIP_5,53,1,38,17,2322152632
50,22,5,ISIP_5,54,5,42,127,2322173236
50,22,5,ISIP_5,55,1,48,67,2322652376
50,22,5,ISIP_5,56,1,38,17,2322662152
50,22,5,ISIP_5,57,5,42,127,2322673180
50,22,5,ISIP_5,58,5,42,127,2323172856
50,22,5,ISIP_5,59,1,48,60,2323180916
50,22,5,ISIP_5,60,1,38,16,2323190688
50,22,5,ISIP_5,61,5,42,127,2323672444
50,22,5,ISIP_5,62,1,48,57,2323702636
50,22,5,ISIP_5,63,5,42,127,2324173260
50,22,5,ISIP_5,64,1,48,64,2324200464
50,22,5,ISIP_5,65,5,42,127,2324672956
50,22,5,ISIP_5,66,1,48,73,2324711076
50,22,5,ISIP_5,67,5,42,127,2325172500
50,22,5,ISIP_5,68,1,48,74,2325184440
50,22,5,ISIP_5,69,1,48,72,2325648292
50,22,5,ISIP_5,70,5,42,127,2325673312
50,22,5,ISIP_5,71,1,48,76,2326127044
50,22,5,ISIP_5,72,5,42,127,2326173004
50,22,5,ISIP_5,73,1,48,72,2326631824
50,22,5,ISIP_5,74,5,42,127,2326672924
50,22,5,ISIP_5,75,1,48,73,2327134060
50,22,5,ISIP_5,76,5,42,127,2327172320
50,22,5,ISIP_5,77,1,48,78,2327636944
50,22,5,ISIP_5,78,5,42,127,2327673284
50,22,5,ISIP_5,79,1,48,71,2328144200
50,22,5,ISIP_5,80,5,42,127,2328172980
50,22,5,ISIP_5,81,1,48,79,2328634168
50,22,5,ISIP_5,82,5,42,127,2328672600
50,22,5,ISIP_5,83,1,48,70,2329164604
50,22,5,ISIP_5,84,1,48,69,2329953456
50,22,5,ISIP_5,85,1,48,73,2330443248
50,22,5,ISIP_5,86,1,48,74,2330943612
50,22,5,ISIP_5,87,1,48,70,2331417268
50,22,5,ISIP_5,88,1,48,62,2331918080
50,22,5,ISIP_5,89,1,48,66,2332411044
50,22,5,ISIP_5,90,1,48,63,2332899888
50,22,5,ISIP_5,91,1,48,78,2333371460
50,22,5,ISIP_5,92,1,48,70,2333848636
50,22,5,ISIP_5,93,1,48,77,2334327008
50,22,5,ISIP_5,94,1,48,79,2334807820
50,22,5,ISIP_5,95,1,48,73,2335270464
50,22,5,ISIP_5,96,1,48,67,2335794012
50,22,5,ISIP_5,97,1,38,17,2335804240
50,22,5,ISIP_5,98,1,48,63,2336328212
50,22,5,ISIP_5,99,1,48,67,2336805092
50,22,5,ISIP_5,100,1,48,58,2337269544
50,22,5,ISIP_5,101,1,48,64,2337755328
50,22,5,ISIP_5,102,1,48,71,2338226372
50,22,5,ISIP_5,103,1,48,65,2338719552
50,22,5,ISIP_5,104,1,48,75,2339210944
50,22,5,ISIP_5,105,1,48,74,2339692008
50,22,5,ISIP_5,106,1,48,67,2340179408
50,22,5,ISIP_5,107,1,48,74,2340652828
50,22,5,ISIP_5,108,1,48,73,2341123796
50,22,5,ISIP_5,109,1,38,18,2341133728
50,22,5,ISIP_5,110,1,48,60,2341598312
50,22,5,ISIP_5,111,1,48,68,2342084456
50,22,5,ISIP_5,112,1,48,69,2342512796
50,22,5,ISIP_5,113,1,38,17,2342522720
50,22,5,ISIP_5,114,1,48,63,2342978904
50,22,5,ISIP_5,115,1,48,68,2343452792
50,22,5,ISIP_5,116,1,48,72,2343910744
50,22,5,ISIP_5,117,1,48,73,2344357104
50,22,5,ISIP_5,118,1,48,75,2344815732
50,22,5,ISIP_5,119,1,48,75,2345254432
50,22,5,ISIP_5,120,1,48,69,2345715080
50,22,5,ISIP_5,121,1,48,65,2346171540
50,22,5,ISIP_5,122,1,48,66,2346612644
50,22,5,ISIP_5,123,1,48,71,2347084708
50,22,5,ISIP_5,124,1,48,73,2347553212
50,22,5,ISIP_5,125,1,48,76,2348045272
50,22,5,ISIP_5,126,1,48,71,2348559320
50,22,5,ISIP_5,127,1,48,69,2349051088
50,22,5,ISIP_5,128,1,38,17,2349061012
50,22,5,ISIP_5,129,1,48,72,2349540032
50,22,5,ISIP_5,130,1,48,75,2349997684
50,22,5,ISIP_5,131,1,48,78,2350510244
50,22,5,ISIP_5,132,1,48,59,2350977472
50,22,5,ISIP_5,133,1,48,59,2351461752
50,22,5,ISIP_5,134,1,48,68,2351909508
50,22,5,ISIP_5,135,1,48,74,2352406808
50,22,5,ISIP_5,136,1,38,18,2352416580
50,22,5,ISIP_5,137,1,48,65,2352888948
50,22,5,ISIP_5,138,1,48,54,2353344056
50,22,5,ISIP_5,139,1,48,66,2353803732
50,22,5,ISIP_5,140,1,48,64,2354277544
50,22,5,ISIP_5,141,1,48,65,2354738760
50,22,5,ISIP_5,142,1,48,59,2355429960
50,22,5,ISIP_5,143,1,48,67,2355919548
50,22,5,ISIP_5,144,1,48,78,2356421484
50,22,5,ISIP_5,145,1,48,61,2356898140
50,22,5,ISIP_5,146,1,48,70,2357366412
50,22,5,ISIP_5,147,1,48,59,2357852492
50,22,5,ISIP_5,148,1,48,67,2358328220
50,22,5,ISIP_5,149,1,48,66,2358798140
50,22,5,ISIP_5,150,1,48,62,2359287656
50,22,5,ISIP_5,151,1,48,69,2359736412
50,22,5,ISIP_5,152,1,48,64,2360213140
50,22,5,ISIP_5,153,1,48,66,2360707296
50,22,5,ISIP_5,154,1,48,61,2361160048
50,22,5,ISIP_5,155,1,48,64,2361673816
50,22,5,ISIP_5,156,1,48,71,2362127260
50,22,5,ISIP_5,157,1,48,76,2362609600
50,22,5,ISIP_5,158,1,48,73,2363070700
50,22,5,ISIP_5,159,1,48,74,2363527900
50,22,5,ISIP_5,160,1,48,65,2363993488
50,22,5,ISIP_5,161,1,48,63,2364435856
50,22,5,ISIP_5,162,1,48,57,2364915572
50,22,5,ISIP_5,163,1,48,60,2365394324
50,22,5,ISIP_5,164,1,48,61,2365861928
50,22,5,ISIP_5,165,1,48,63,2366349796
50,22,5,ISIP_5,166,1,48,62,2366826524
50,22,5,ISIP_5,167,1,48,73,2367279888
50,22,5,ISIP_5,168,1,38,18,2367289892
50,22,5,ISIP_5,169,1,48,74,2367728820
50,22,5,ISIP_5,170,1,48,71,2368210632
50,22,5,ISIP_5,171,1,48,83,2368672104
50,22,5,ISIP_5,172,1,38,18,2368682256
50,22,5,ISIP_5,173,1,48,79,2369112864
50,22,5,ISIP_5,174,1,48,71,2369574164
50,22,5,ISIP_5,175,1,48,68,2370030092
50,22,5,ISIP_5,176,1,48,59,2370486176
50,22,5,ISIP_5,177,1,48,73,2370954824
50,22,5,ISIP_5,178,1,48,75,2371401384
50,22,5,ISIP_5,179,1,48,75,2371875644
50,22,5,ISIP_5,180,1,48,65,2372325524
50,22,5,ISIP_5,181,1,48,76,2372801348
50,22,5,ISIP_5,182,1,48,65,2373259224
50,22,5,ISIP_5,183,1,48,68,2373711548
50,22,5,ISIP_5,184,1,48,78,2374203308
50,22,5,ISIP_5,185,1,48,76,2374675400
50,22,5,ISIP_5,186,1,48,71,2375162064
50,22,5,ISIP_5,187,1,48,65,2375607072
50,22,5,ISIP_5,188,1,48,71,2376096968
50,22,5,ISIP_5,189,1,48,67,2376549540
50,22,5,ISIP_5,190,1,38,17,2376559536
50,22,5,ISIP_5,191,1,48,65,2377025596
50,22,5,ISIP_5,192,1,48,66,2377481604
50,22,5,ISIP_5,193,1,48,67,2377936488
50,22,5,ISIP_5,194,1,48,71,2378400724
50,22,5,ISIP_5,195,1,48,67,2378873412
50,22,5,ISIP_5,196,1,48,74,2379343532
50,22,5,ISIP_5,197,1,48,68,2379801040
50,22,5,ISIP_5,198,1,48,70,2380284572
50,22,5,ISIP_5,199,1,48,59,2380747460
50,22,5,ISIP_5,200,1,48,62,2381227260
50,22,5,ISIP_5,201,1,48,64,2381713784
50,22,5,ISIP_5,202,1,48,75,2382157780
50,22,5,ISIP_5,203,1,48,76,2382595468
50,22,5,ISIP_5,204,1,48,70,2383073916
50,22,5,ISIP_5,205,1,48,68,2383544960
50,22,5,ISIP_5,206,1,48,65,2384009044
50,22,5,ISIP_5,207,1,48,68,2384471936
50,22,5,ISIP_5,208,1,48,69,2384956044
50,22,5,ISIP_5,209,1,48,61,2385423048
50,22,5,ISIP_5,210,1,48,61,2385894916
50,22,5,ISIP_5,211,1,48,64,2386377400
50,22,5,ISIP_5,212,1,48,65,2386852632
50,22,5,ISIP_5,213,1,38,17,2386862340
50,22,5,ISIP_5,214,1,48,59,2387333948
50,22,5,ISIP_5,215,1,48,62,2387780664
50,22,5,ISIP_5,216,1,38,16,2387790512
50,22,5,ISIP_5,217,1,48,67,2388234308
50,22,5,ISIP_5,218,1,48,61,2388725168
50,22,5,ISIP_5,0,9999,9999,9999,2309170236
50,22,5,ISIP_5,1,9999,9999,9999,2309671000
50,22,5,ISIP_5,2,9999,9999,9999,2310170712
50,22,5,ISIP_5,3,9999,9999,9999,2310670408
50,22,5,ISIP_5,4,9999,9999,9999,2311170104
50,22,5,ISIP_5,5,9999,9999,9999,2311670844
50,22,5,ISIP_5,6,9999,9999,9999,2312170544
50,22,5,ISIP_5,7,9999,9999,9999,2312670308
50,22,5,ISIP_5,8,9999,9999,9999,2313171052
50,22,5,ISIP_5,9,9999,9999,9999,2313670748
50,22,5,ISIP_5,10,9999,9999,9999,2314170464
50,22,5,ISIP_5,11,9999,9999,9999,2314670164
50,22,5,ISIP_5,12,9999,9999,9999,2315170908
50,22,5,ISIP_5,13,9999,9999,9999,2315670600
50,22,5,ISIP_5,14,9999,9999,9999,2316170296
50,22,5,ISIP_5,15,9999,9999,9999,2316671040
50,22,5,ISIP_5,16,9999,9999,9999,2317170808
50,22,5,ISIP_5,17,9999,9999,9999,2317670504
50,22,5,ISIP_5,18,9999,9999,9999,2318170196
50,22,5,ISIP_5,19,9999,9999,9999,2318670912
50,22,5,ISIP_5,20,9999,9999,9999,2319170608
50,22,5,ISIP_5,21,9999,9999,9999,2319670376
50,22,5,ISIP_5,22,9999,9999,9999,2320171120
50,22,5,ISIP_5,23,9999,9999,9999,2320670808
50,22,5,ISIP_5,24,9999,9999,9999,2321170508
50,22,5,ISIP_5,25,9999,9999,9999,2321670252
50,22,5,ISIP_5,26,9999,9999,9999,2322170948
50,22,5,ISIP_5,27,9999,9999,9999,2322670672
50,22,5,ISIP_5,28,9999,9999,9999,2323170420
50,22,5,ISIP_5,29,9999,9999,9999,2323670080
50,22,5,ISIP_5,30,9999,9999,9999,2324170820
50,22,5,ISIP_5,31,9999,9999,9999,2324670516
50,22,5,ISIP_5,32,9999,9999,9999,2325170284
50,22,5,ISIP_5,33,9999,9999,9999,2325671024
50,22,5,ISIP_5,34,9999,9999,9999,2326170716
50,22,5,ISIP_5,35,9999,9999,9999,2326670412
50,22,5,ISIP_5,36,9999,9999,9999,2327170108
50,22,5,ISIP_5,37,9999,9999,9999,2327670848
50,22,5,ISIP_5,38,9999,9999,9999,2328170544
50,22,5,ISIP_5,39,9999,9999,9999,2328670312
50,22,5,ISIP_5,40,9999,9999,9999,2329171032
50,22,5,ISIP_5,41,9999,9999,9999,2329670728
50,22,5,ISIP_5,42,9999,9999,9999,2330170420
50,22,5,ISIP_5,43,9999,9999,9999,2330670184
50,22,5,ISIP_5,44,9999,9999,9999,2331170920
50,22,5,ISIP_5,45,9999,9999,9999,2331670612
50,22,5,ISIP_5,46,9999,9999,9999,2332170300
50,22,5,ISIP_5,47,9999,9999,9999,2332671040
50,22,5,ISIP_5,48,9999,9999,9999,2333170808
50,22,5,ISIP_5,49,9999,9999,9999,2333670500
50,22,5,ISIP_5,50,9999,9999,9999,2334170188
50,22,5,ISIP_5,51,9999,9999,9999,2334670928
50,22,5,ISIP_5,52,9999,9999,9999,2335170668
50,22,5,ISIP_5,53,9999,9999,9999,2335670356
50,22,5,ISIP_5,54,9999,9999,9999,2336171120
50,22,5,ISIP_5,55,9999,9999,9999,2336670812
50,22,5,ISIP_5,56,9999,9999,9999,2337170500
50,22,5,ISIP_5,57,9999,9999,9999,2337670192
50,22,5,ISIP_5,58,9999,9999,9999,2338170932
50,22,5,ISIP_5,59,9999,9999,9999,2338670696
50,22,5,ISIP_5,60,9999,9999,9999,2339170388
50,22,5,ISIP_5,61,9999,9999,9999,2339670128
50,22,5,ISIP_5,62,9999,9999,9999,2340170864
50,22,5,ISIP_5,63,9999,9999,9999,2340670548
50,22,5,ISIP_5,64,9999,9999,9999,2341170292
50,22,5,ISIP_5,65,9999,9999,9999,2341671004
50,22,5,ISIP_5,66,9999,9999,9999,2342170692
50,22,5,ISIP_5,67,9999,9999,9999,2342670396
50,22,5,ISIP_5,68,9999,9999,9999,2343170164
50,22,5,ISIP_5,69,9999,9999,9999,2343670900
50,22,5,ISIP_5,70,9999,9999,9999,2344170592
50,22,5,ISIP_5,71,9999,9999,9999,2344670280
50,22,5,ISIP_5,72,9999,9999,9999,2345171016
50,22,5,ISIP_5,73,9999,9999,9999,2345670708
50,22,5,ISIP_5,74,9999,9999,9999,2346170472
50,22,5,ISIP_5,75,9999,9999,9999,2346670156
50,22,5,ISIP_5,76,9999,9999,9999,2347170896
50,22,5,ISIP_5,77,9999,9999,9999,2347670644
50,22,5,ISIP_5,78,9999,9999,9999,2348170336
50,22,5,ISIP_5,79,9999,9999,9999,2348671072
50,22,5,ISIP_5,80,9999,9999,9999,2349170788
50,22,5,ISIP_5,81,9999,9999,9999,2349670480
50,22,5,ISIP_5,82,9999,9999,9999,2350170172
50,22,5,ISIP_5,83,9999,9999,9999,2350670956
50,22,5,ISIP_5,84,9999,9999,9999,2351170648
50,22,5,ISIP_5,85,9999,9999,9999,2351670340
50,22,5,ISIP_5,86,9999,9999,9999,2352171076
50,22,5,ISIP_5,87,9999,9999,9999,2352670796
50,22,5,ISIP_5,88,9999,9999,9999,2353170484
50,22,5,ISIP_5,89,9999,9999,9999,2353670252
50,22,5,ISIP_5,90,9999,9999,9999,2354170988
50,22,5,ISIP_5,91,9999,9999,9999,2354670680
50,22,5,ISIP_5,92,9999,9999,9999,2355170372
50,22,5,ISIP_5,93,9999,9999,9999,2355670136
50,22,5,ISIP_5,94,9999,9999,9999,2356170872
50,22,5,ISIP_5,95,9999,9999,9999,2356670564
50,22,5,ISIP_5,96,9999,9999,9999,2357170252
50,22,5,ISIP_5,97,9999,9999,9999,2357670992
50,22,5,ISIP_5,98,9999,9999,9999,2358170680
50,22,5,ISIP_5,99,9999,9999,9999,2358670444
50,22,5,ISIP_5,100,9999,9999,9999,2359170136
50,22,5,ISIP_5,101,9999,9999,9999,2359670872
50,22,5,ISIP_5,102,9999,9999,9999,2360170564
50,22,5,ISIP_5,103,9999,9999,9999,2360670328
50,22,5,ISIP_5,104,9999,9999,9999,2361171036
50,22,5,ISIP_5,105,9999,9999,9999,2361670732
50,22,5,ISIP_5,106,9999,9999,9999,2362170488
50,22,5,ISIP_5,107,9999,9999,9999,2362670180
50,22,5,ISIP_5,108,9999,9999,9999,2363170900
50,22,5,ISIP_5,109,9999,9999,9999,2363670592
50,22,5,ISIP_5,110,9999,9999,9999,2364170360
50,22,5,ISIP_5,111,9999,9999,9999,2364671096
50,22,5,ISIP_5,112,9999,9999,9999,2365170784
50,22,5,ISIP_5,113,9999,9999,9999,2365670476
50,22,5,ISIP_5,114,9999,9999,9999,2366170168
50,22,5,ISIP_5,115,9999,9999,9999,2366670904
50,22,5,ISIP_5,116,9999,9999,9999,2367170668
50,22,5,ISIP_5,117,9999,9999,9999,2367670384
50,22,5,ISIP_5,118,9999,9999,9999,2368171124
50,22,5,ISIP_5,119,9999,9999,9999,2368670816
50,22,5,ISIP_5,120,9999,9999,9999,2369170528
50,22,5,ISIP_5,121,9999,9999,9999,2369670216
50,22,5,ISIP_5,122,9999,9999,9999,2370170936
50,22,5,ISIP_5,123,9999,9999,9999,2370670704
50,22,5,ISIP_5,124,9999,9999,9999,2371170396
50,22,5,ISIP_5,125,9999,9999,9999,2371670084
50,22,5,ISIP_5,126,9999,9999,9999,2372170872
50,22,5,ISIP_5,127,9999,9999,9999,2372670564
50,22,5,ISIP_5,128,9999,9999,9999,2373170252
50,22,5,ISIP_5,129,9999,9999,9999,2373670992
50,22,5,ISIP_5,130,9999,9999,9999,2374170684
50,22,5,ISIP_5,131,9999,9999,9999,2374670448
50,22,5,ISIP_5,132,9999,9999,9999,2375170132
50,22,5,ISIP_5,133,9999,9999,9999,2375670868
50,22,5,ISIP_5,134,9999,9999,9999,2376170560
50,22,5,ISIP_5,135,9999,9999,9999,2376670264
50,22,5,ISIP_5,136,9999,9999,9999,2377171000
50,22,5,ISIP_5,137,9999,9999,9999,2377670768
50,22,5,ISIP_5,138,9999,9999,9999,2378170456
50,22,5,ISIP_5,139,9999,9999,9999,2378670148
50,22,5,ISIP_5,140,9999,9999,9999,2379170884
50,22,5,ISIP_5,141,9999,9999,9999,2379670576
50,22,5,ISIP_5,142,9999,9999,9999,2380170340
50,22,5,ISIP_5,143,9999,9999,9999,2380671076
50,22,5,ISIP_5,144,9999,9999,9999,2381170768
50,22,5,ISIP_5,145,9999,9999,9999,2381670460
50,22,5,ISIP_5,146,9999,9999,9999,2382170220
50,22,5,ISIP_5,147,9999,9999,9999,2382670932
50,22,5,ISIP_5,148,9999,9999,9999,2383170624
50,22,5,ISIP_5,149,9999,9999,9999,2383670372
50,22,5,ISIP_5,150,9999,9999,9999,2384171112
50,22,5,ISIP_5,151,9999,9999,9999,2384670800
50,22,5,ISIP_5,152,9999,9999,9999,2385170492
50,22,5,ISIP_5,153,9999,9999,9999,2385670256
50,22,5,ISIP_5,154,9999,9999,9999,2386170992
50,22,5,ISIP_5,155,9999,9999,9999,2386670684
50,22,5,ISIP_5,156,9999,9999,9999,2387170404
50,22,5,ISIP_5,157,9999,9999,9999,2387670092
50,22,5,ISIP_5,158,9999,9999,9999,2388170860
50,22,5,ISIP_5,159,9999,9999,9999,2388670548
50,23,3,ISIP_8,0,5,42,127,2412056972
50,23,3,ISIP_8,1,5,42,127,2412856580
50,23,3,ISIP_8,2,1,48,46,2413089128
50,23,3,ISIP_8,3,1,48,68,2413624032
50,23,3,ISIP_8,4,1,38,17,2413633964
50,23,3,ISIP_8,5,5,42,127,2413656532
50,23,3,ISIP_8,6,1,48,67,2414371140
50,23,3,ISIP_8,7,1,38,16,2414381664
50,23,3,ISIP_8,8,5,42,127,2414457044
50,23,3,ISIP_8,9,1,48,66,2415187980
50,23,3,ISIP_8,10,1,38,17,2415197980
50,23,3,ISIP_8,11,5,42,127,2415256952
50,23,3,ISIP_8,12,1,48,61,2416035232
50,23,3,ISIP_8,13,5,42,127,2416056584
50,23,3,ISIP_8,14,1,48,60,2416833548
50,23,3,ISIP_8,15,5,42,127,2416856392
50,23,3,ISIP_8,16,5,42,127,2417657176
50,23,3,ISIP_8,17,1,48,62,2417662244
50,23,3,ISIP_8,18,1,48,66,2418409676
50,23,3,ISIP_8,19,5,42,127,2418457052
50,23,3,ISIP_8,20,1,48,65,2419249724
50,23,3,ISIP_8,21,5,42,127,2419256860
50,23,3,ISIP_8,22,1,38,16,2419259908
50,23,3,ISIP_8,23,1,48,63,2420047476
50,23,3,ISIP_8,24,5,42,127,2420056288
50,23,3,ISIP_8,25,5,42,127,2420857148
50,23,3,ISIP_8,26,1,48,65,2420869916
50,23,3,ISIP_8,27,1,48,63,2421613832
50,23,3,ISIP_8,28,5,42,127,2421656872
50,23,3,ISIP_8,29,1,48,55,2422438548
50,23,3,ISIP_8,30,5,42,127,2422456608
50,23,3,ISIP_8,31,1,48,48,2423209780
50,23,3,ISIP_8,32,5,42,127,2423256488
50,23,3,ISIP_8,33,1,48,50,2423956112
50,23,3,ISIP_8,34,5,42,127,2424057180
50,23,3,ISIP_8,35,1,48,65,2424773800
50,23,3,ISIP_8,36,5,42,127,2424856856
50,23,3,ISIP_8,37,1,48,59,2425598288
50,23,3,ISIP_8,38,5,42,127,2425656812
50,23,3,ISIP_8,39,1,48,53,2426371844
50,23,3,ISIP_8,40,5,42,127,2426456424
50,23,3,ISIP_8,41,1,48,35,2427186084
50,23,3,ISIP_8,42,5,42,127,2427257128
50,23,3,ISIP_8,43,1,48,44,2428013820
50,23,3,ISIP_8,44,5,42,127,2428056936
50,23,3,ISIP_8,45,1,48,38,2428766652
50,23,3,ISIP_8,46,5,42,127,2428856744
50,23,3,ISIP_8,47,1,48,48,2429532208
50,23,3,ISIP_8,48,5,42,127,2429656460
50,23,3,ISIP_8,49,1,48,51,2430348844
50,23,3,ISIP_8,50,5,42,127,2430457240
50,23,3,ISIP_8,51,1,48,54,2431170868
50,23,3,ISIP_8,52,5,42,127,2431257064
50,23,3,ISIP_8,53,1,48,52,2431968952
50,23,3,ISIP_8,54,5,42,127,2432056872
50,23,3,ISIP_8,55,1,48,48,2432751860
50,23,3,ISIP_8,56,5,42,127,2432856392
50,23,3,ISIP_8,57,1,48,51,2433514188
50,23,3,ISIP_8,58,5,42,127,2433657244
50,23,3,ISIP_8,59,1,48,57,2434355884
50,23,3,ISIP_8,60,5,42,127,2434456904
50,23,3,ISIP_8,61,1,48,55,2435248840
50,23,3,ISIP_8,62,5,42,127,2435256876
50,23,3,ISIP_8,63,1,48,60,2436087780
50,23,3,ISIP_8,64,1,48,56,2436897236
50,23,3,ISIP_8,65,1,48,57,2437686940
50,23,3,ISIP_8,66,1,48,61,2438485796
50,23,3,ISIP_8,67,1,48,57,2439271468
50,23,3,ISIP_8,68,1,48,60,2440082788
50,23,3,ISIP_8,69,1,48,55,2440876384
50,23,3,ISIP_8,70,1,48,55,2441669980
50,23,3,ISIP_8,71,1,48,59,2442461484
50,23,3,ISIP_8,72,1,48,50,2443240028
50,23,3,ISIP_8,73,1,48,57,2444063628
50,23,3,ISIP_8,74,1,48,56,2444840984
50,23,3,ISIP_8,75,1,48,58,2445569580
50,23,3,ISIP_8,76,1,48,54,2446317544
50,23,3,ISIP_8,77,1,48,55,2447136200
50,23,3,ISIP_8,78,1,48,57,2447916480
50,23,3,ISIP_8,79,1,48,55,2448733664
50,23,3,ISIP_8,80,1,48,56,2449514916
50,23,3,ISIP_8,81,1,48,59,2450352272
50,23,3,ISIP_8,82,1,48,47,2451204432
50,23,3,ISIP_8,83,1,48,58,2452020092
50,23,3,ISIP_8,84,1,48,59,2452756620
50,23,3,ISIP_8,85,1,48,52,2453438460
50,23,3,ISIP_8,86,1,48,61,2454265048
50,23,3,ISIP_8,87,1,48,58,2455078312
50,23,3,ISIP_8,88,1,48,54,2455875948
50,23,3,ISIP_8,89,1,48,59,2456667176
50,23,3,ISIP_8,90,1,48,63,2457481564
50,23,3,ISIP_8,91,1,48,57,2458308368
50,23,3,ISIP_8,92,1,48,54,2459101292
50,23,3,ISIP_8,93,1,48,55,2459896160
50,23,3,ISIP_8,94,1,48,60,2460726556
50,23,3,ISIP_8,95,1,48,57,2461468388
50,23,3,ISIP_8,96,1,48,61,2462223088
50,23,3,ISIP_8,97,1,48,61,2463140648
50,23,3,ISIP_8,98,1,48,62,2463994012
50,23,3,ISIP_8,99,1,48,46,2464821860
50,23,3,ISIP_8,100,1,48,54,2465577904
50,23,3,ISIP_8,101,1,48,61,2466457636
50,23,3,ISIP_8,102,1,48,59,2467292372
50,23,3,ISIP_8,103,1,48,59,2468070032
50,23,3,ISIP_8,104,1,48,58,2468951912
50,23,3,ISIP_8,105,1,48,64,2469824724
50,23,3,ISIP_8,106,1,48,55,2470639256
50,23,3,ISIP_8,107,1,48,56,2471455492
50,23,3,ISIP_8,108,1,48,54,2472286516
50,23,3,ISIP_8,109,1,48,51,2473092304
50,23,3,ISIP_8,110,1,48,56,2473912148
50,23,3,ISIP_8,111,1,48,50,2474704772
50,23,3,ISIP_8,112,1,48,60,2475519984
50,23,3,ISIP_8,113,1,48,56,2476342384
50,23,3,ISIP_8,114,1,48,57,2477204892
50,23,3,ISIP_8,115,1,48,56,2478055180
50,23,3,ISIP_8,116,1,48,56,2478900688
50,23,3,ISIP_8,117,1,48,57,2479682312
50,23,3,ISIP_8,118,1,48,59,2480555816
50,23,3,ISIP_8,119,1,48,55,2481455628
50,23,3,ISIP_8,120,1,48,60,2482247956
50,23,3,ISIP_8,121,1,48,65,2483136864
50,23,3,ISIP_8,122,1,48,57,2484130360
50,23,3,ISIP_8,123,1,48,64,2484979304
50,23,3,ISIP_8,124,1,48,63,2485782552
50,23,3,ISIP_8,125,1,48,60,2486581976
50,23,3,ISIP_8,126,1,48,62,2487406564
50,23,3,ISIP_8,127,1,48,62,2488270248
50,23,3,ISIP_8,128,1,48,63,2489081272
50,23,3,ISIP_8,129,1,48,60,2489908232
50,23,3,ISIP_8,130,1,48,57,2490654472
50,23,3,ISIP_8,131,1,48,58,2491500604
50,23,3,ISIP_8,132,1,48,67,2492268844
50,23,3,ISIP_8,133,1,48,57,2493048376
50,23,3,ISIP_8,134,1,48,51,2493875332
50,23,3,ISIP_8,135,1,48,59,2494726300
50,23,3,ISIP_8,136,1,48,62,2495533432
50,23,3,ISIP_8,137,1,48,64,2496385392
50,23,3,ISIP_8,138,1,48,56,2497227908
50,23,3,ISIP_8,139,1,48,66,2497997868
50,23,3,ISIP_8,140,1,48,61,2498845916
50,23,3,ISIP_8,141,1,48,69,2499747464
50,23,3,ISIP_8,142,1,48,60,2500623936
50,23,3,ISIP_8,143,1,48,59,2501488768
50,23,3,ISIP_8,144,1,48,57,2502355216
50,23,3,ISIP_8,145,1,48,59,2503184416
50,23,3,ISIP_8,146,1,48,40,2504005084
50,23,3,ISIP_8,147,1,48,58,2504778260
50,23,3,ISIP_8,148,1,48,64,2505616308
50,23,3,ISIP_8,149,1,48,60,2506541120
50,23,3,ISIP_8,150,1,48,65,2507470200
50,23,3,ISIP_8,151,1,48,64,2508362004
50,23,3,ISIP_8,152,1,48,65,2509250168
50,23,3,ISIP_8,153,1,48,55,2510095820
50,23,3,ISIP_8,154,1,48,58,2510897572
50,23,3,ISIP_8,155,1,48,62,2511735172
50,23,3,ISIP_8,156,1,48,53,2512577084
50,23,3,ISIP_8,157,1,48,54,2513415192
50,23,3,ISIP_8,158,1,48,60,2514198012
50,23,3,ISIP_8,159,1,48,59,2515017336
50,23,3,ISIP_8,160,1,48,64,2515867504
50,23,3,ISIP_8,161,1,48,61,2516729836
50,23,3,ISIP_8,162,1,48,59,2517582624
50,23,3,ISIP_8,163,1,48,57,2518409808
50,23,3,ISIP_8,164,1,48,51,2519216116
50,23,3,ISIP_8,165,1,48,65,2520018392
50,23,3,ISIP_8,166,1,48,51,2520850660
50,23,3,ISIP_8,167,1,48,56,2521676956
50,23,3,ISIP_8,168,1,48,57,2522431916
50,23,3,ISIP_8,169,1,48,60,2523205988
50,23,3,ISIP_8,170,1,48,56,2523963832
50,23,3,ISIP_8,171,1,48,56,2524693324
50,23,3,ISIP_8,172,1,48,62,2525432020
50,23,3,ISIP_8,173,1,48,51,2526161656
50,23,3,ISIP_8,174,1,48,57,2526903944
50,23,3,ISIP_8,175,1,48,55,2527702404
50,23,3,ISIP_8,176,1,48,64,2528445956
50,23,3,ISIP_8,177,1,48,65,2529120100
50,23,3,ISIP_8,178,1,48,60,2529903376
50,23,3,ISIP_8,179,1,48,52,2530671844
50,23,3,ISIP_8,180,1,48,65,2531447260
50,23,3,ISIP_8,0,9999,9999,9999,2412054612
50,23,3,ISIP_8,1,9999,9999,9999,2412854364
50,23,3,ISIP_8,2,9999,9999,9999,2413654096
50,23,3,ISIP_8,3,9999,9999,9999,2414454828
50,23,3,ISIP_8,4,9999,9999,9999,2415254592
50,23,3,ISIP_8,5,9999,9999,9999,2416054372
50,23,3,ISIP_8,6,9999,9999,9999,2416854104
50,23,3,ISIP_8,7,9999,9999,9999,2417654888
50,23,3,ISIP_8,8,9999,9999,9999,2418454616
50,23,3,ISIP_8,9,9999,9999,9999,2419254352
50,23,3,ISIP_8,10,9999,9999,9999,2420054072
50,23,3,ISIP_8,11,9999,9999,9999,2420854860
50,23,3,ISIP_8,12,9999,9999,9999,2421654584
50,23,3,ISIP_8,13,9999,9999,9999,2422454320
50,23,3,ISIP_8,14,9999,9999,9999,2423254128
50,23,3,ISIP_8,15,9999,9999,9999,2424054892
50,23,3,ISIP_8,16,9999,9999,9999,2424854644
50,23,3,ISIP_8,17,9999,9999,9999,2425654376
50,23,3,ISIP_8,18,9999,9999,9999,2426454136
50,23,3,ISIP_8,19,9999,9999,9999,2427254840
50,23,3,ISIP_8,20,9999,9999,9999,2428054648
50,23,3,ISIP_8,21,9999,9999,9999,2428854380
50,23,3,ISIP_8,22,9999,9999,9999,2429654100
50,23,3,ISIP_8,23,9999,9999,9999,2430454880
50,23,3,ISIP_8,24,9999,9999,9999,2431254628
50,23,3,ISIP_8,25,9999,9999,9999,2432054360
50,23,3,ISIP_8,26,9999,9999,9999,2432854104
50,23,3,ISIP_8,27,9999,9999,9999,2433654884
50,23,3,ISIP_8,28,9999,9999,9999,2434454616
50,23,3,ISIP_8,29,9999,9999,9999,2435254368
50,23,3,ISIP_8,30,9999,9999,9999,2436054104
50,23,3,ISIP_8,31,9999,9999,9999,2436854880
50,23,3,ISIP_8,32,9999,9999,9999,2437654608
50,23,3,ISIP_8,33,9999,9999,9999,2438454340
50,23,3,ISIP_8,34,9999,9999,9999,2439254092
50,23,3,ISIP_8,35,9999,9999,9999,2440054868
50,23,3,ISIP_8,36,9999,9999,9999,2440854600
50,23,3,ISIP_8,37,9999,9999,9999,2441654328
50,23,3,ISIP_8,38,9999,9999,9999,2442454132
50,23,3,ISIP_8,39,9999,9999,9999,2443254904
50,23,3,ISIP_8,40,9999,9999,9999,2444054640
50,23,3,ISIP_8,41,9999,9999,9999,2444854360
50,23,3,ISIP_8,42,9999,9999,9999,2445654116
50,23,3,ISIP_8,43,9999,9999,9999,2446454876
50,23,3,ISIP_8,44,9999,9999,9999,2447254604
50,23,3,ISIP_8,45,9999,9999,9999,2448054332
50,23,3,ISIP_8,46,9999,9999,9999,2448854060
50,23,3,ISIP_8,47,9999,9999,9999,2449654836
50,23,3,ISIP_8,48,9999,9999,9999,2450454640
50,23,3,ISIP_8,49,9999,9999,9999,2451254384
50,23,3,ISIP_8,50,9999,9999,9999,2452054064
50,23,3,ISIP_8,51,9999,9999,9999,2452854840
50,23,3,ISIP_8,52,9999,9999,9999,2453654628
50,23,3,ISIP_8,53,9999,9999,9999,2454454356
50,23,3,ISIP_8,54,9999,9999,9999,2455254084
50,23,3,ISIP_8,55,9999,9999,9999,2456054860
50,23,3,ISIP_8,56,9999,9999,9999,2456854592
50,23,3,ISIP_8,57,9999,9999,9999,2457654320
50,23,3,ISIP_8,58,9999,9999,9999,2458454072
50,23,3,ISIP_8,59,9999,9999,9999,2459254848
50,23,3,ISIP_8,60,9999,9999,9999,2460054576
50,23,3,ISIP_8,61,9999,9999,9999,2460854380
50,23,3,ISIP_8,62,9999,9999,9999,2461654112
50,23,3,ISIP_8,63,9999,9999,9999,2462454884
50,23,3,ISIP_8,64,9999,9999,9999,2463254616
50,23,3,ISIP_8,65,9999,9999,9999,2464054360
50,23,3,ISIP_8,66,9999,9999,9999,2464854112
50,23,3,ISIP_8,67,9999,9999,9999,2465654888
50,23,3,ISIP_8,68,9999,9999,9999,2466454624
50,23,3,ISIP_8,69,9999,9999,9999,2467254352
50,23,3,ISIP_8,70,9999,9999,9999,2468054080
50,23,3,ISIP_8,71,9999,9999,9999,2468854856
50,23,3,ISIP_8,72,9999,9999,9999,2469654588
50,23,3,ISIP_8,73,9999,9999,9999,2470454392
50,23,3,ISIP_8,74,9999,9999,9999,2471254120
50,23,3,ISIP_8,75,9999,9999,9999,2472054896
50,23,3,ISIP_8,76,9999,9999,9999,2472854624
50,23,3,ISIP_8,77,9999,9999,9999,2473654356
50,23,3,ISIP_8,78,9999,9999,9999,2474454084
50,23,3,ISIP_8,79,9999,9999,9999,2475254860
50,23,3,ISIP_8,80,9999,9999,9999,2476054588
50,23,3,ISIP_8,81,9999,9999,9999,2476854320
50,23,3,ISIP_8,82,9999,9999,9999,2477654072
50,23,3,ISIP_8,83,9999,9999,9999,2478454848
50,23,3,ISIP_8,84,9999,9999,9999,2479254576
50,23,3,ISIP_8,85,9999,9999,9999,2480054380
50,23,3,ISIP_8,86,9999,9999,9999,2480854112
50,23,3,ISIP_8,87,9999,9999,9999,2481654888
50,23,3,ISIP_8,88,9999,9999,9999,2482454616
50,23,3,ISIP_8,89,9999,9999,9999,2483254348
50,23,3,ISIP_8,90,9999,9999,9999,2484054120
50,23,3,ISIP_8,91,9999,9999,9999,2484854900
50,23,3,ISIP_8,92,9999,9999,9999,2485654628
50,23,3,ISIP_8,93,9999,9999,9999,2486454356
50,23,3,ISIP_8,94,9999,9999,9999,2487254088
50,23,3,ISIP_8,95,9999,9999,9999,2488054860
50,23,3,ISIP_8,96,9999,9999,9999,2488854592
50,23,3,ISIP_8,97,9999,9999,9999,2489654320
50,23,3,ISIP_8,98,9999,9999,9999,2490454076
50,23,3,ISIP_8,99,9999,9999,9999,2491254848
50,23,3,ISIP_8,100,9999,9999,9999,2492054580
50,23,3,ISIP_8,101,9999,9999,9999,2492854384
50,23,3,ISIP_8,102,9999,9999,9999,2493654112
50,23,3,ISIP_8,103,9999,9999,9999,2494454888
50,23,3,ISIP_8,104,9999,9999,9999,2495254616
50,23,3,ISIP_8,105,9999,9999,9999,2496054344
50,23,3,ISIP_8,106,9999,9999,9999,2496854100
50,23,3,ISIP_8,107,9999,9999,9999,2497654872
50,23,3,ISIP_8,108,9999,9999,9999,2498454604
50,23,3,ISIP_8,109,9999,9999,9999,2499254332
50,23,3,ISIP_8,110,9999,9999,9999,2500054060
50,23,3,ISIP_8,111,9999,9999,9999,2500854836
50,23,3,ISIP_8,112,9999,9999,9999,2501654640
50,23,3,ISIP_8,113,9999,9999,9999,2502454372
50,23,3,ISIP_8,114,9999,9999,9999,2503254064
50,23,3,ISIP_8,115,9999,9999,9999,2504054840
50,23,3,ISIP_8,116,9999,9999,9999,2504854644
50,23,3,ISIP_8,117,9999,9999,9999,2505654372
50,23,3,ISIP_8,118,9999,9999,9999,2506454108
50,23,3,ISIP_8,119,9999,9999,9999,2507254888
50,23,3,ISIP_8,120,9999,9999,9999,2508054616
50,23,3,ISIP_8,121,9999,9999,9999,2508854344
50,23,3,ISIP_8,122,9999,9999,9999,2509654100
50,23,3,ISIP_8,123,9999,9999,9999,2510454876
50,23,3,ISIP_8,124,9999,9999,9999,2511254604
50,23,3,ISIP_8,125,9999,9999,9999,2512054332
50,23,3,ISIP_8,126,9999,9999,9999,2512854064
50,23,3,ISIP_8,127,9999,9999,9999,2513654836
50,23,3,ISIP_8,128,9999,9999,9999,2514454640
50,23,3,ISIP_8,129,9999,9999,9999,2515254372
50,23,3,ISIP_8,130,9999,9999,9999,2516054124
50,23,3,ISIP_8,131,9999,9999,9999,2516854900
50,23,3,ISIP_8,132,9999,9999,9999,2517654644
50,23,3,ISIP_8,133,9999,9999,9999,2518454376
50,23,3,ISIP_8,134,9999,9999,9999,2519254108
50,23,3,ISIP_8,135,9999,9999,9999,2520054880
50,23,3,ISIP_8,136,9999,9999,9999,2520854612
50,23,3,ISIP_8,137,9999,9999,9999,2521654344
50,23,3,ISIP_8,138,9999,9999,9999,2522454068
50,23,3,ISIP_8,139,9999,9999,9999,2523254844
50,23,3,ISIP_8,140,9999,9999,9999,2524054572
50,23,3,ISIP_8,141,9999,9999,9999,2524854360
50,23,3,ISIP_8,142,9999,9999,9999,2525654088
50,23,3,ISIP_8,143,9999,9999,9999,2526454864
50,23,3,ISIP_8,144,9999,9999,9999,2527254596
50,23,3,ISIP_8,145,9999,9999,9999,2528054324
50,23,3,ISIP_8,146,9999,9999,9999,2528854080
50,23,3,ISIP_8,147,9999,9999,9999,2529654856
50,23,3,ISIP_8,148,9999,9999,9999,2530454584
50,23,3,ISIP_8,149,9999,9999,9999,2531254388
50,24,11,Pattern_Practice,0,5,42,127,2644194596
50,24,11,Pattern_Practice,1,5,42,127,2644695508
50,24,11,Pattern_Practice,2,5,42,127,2645195076
50,24,11,Pattern_Practice,3,5,42,127,2645695016
50,24,11,Pattern_Practice,4,5,42,127,2646194436
50,24,11,Pattern_Practice,5,5,42,127,2646695272
50,24,11,Pattern_Practice,6,5,42,127,2647194988
50,24,11,Pattern_Practice,7,5,42,127,2647694556
50,24,11,Pattern_Practice,8,5,42,127,2648194348
50,24,11,Pattern_Practice,9,5,42,127,2648695184
50,24,11,Pattern_Practice,10,5,42,127,2649194976
50,24,11,Pattern_Practice,11,5,42,127,2649694472
50,24,11,Pattern_Practice,12,1,38,50,2650113712
50,24,11,Pattern_Practice,13,1,48,14,2650123792
50,24,11,Pattern_Practice,14,5,42,127,2650195280
50,24,11,Pattern_Practice,15,1,48,59,2650664820
50,24,11,Pattern_Practice,16,5,42,127,2650695024
50,24,11,Pattern_Practice,17,1,38,49,2651173564
50,24,11,Pattern_Practice,18,5,42,127,2651194916
50,24,11,Pattern_Practice,19,5,42,127,2651694472
50,24,11,Pattern_Practice,20,1,48,69,2651725660
50,24,11,Pattern_Practice,21,5,42,127,2652195064
50,24,11,Pattern_Practice,22,1,38,51,2652212992
50,24,11,Pattern_Practice,23,5,42,127,2652694980
50,24,11,Pattern_Practice,24,1,48,65,2652697424
50,24,11,Pattern_Practice,25,1,38,60,2653187456
50,24,11,Pattern_Practice,26,5,42,127,2653194744
50,24,11,Pattern_Practice,27,5,42,127,2653695192
50,24,11,Pattern_Practice,28,1,48,65,2653736088
50,24,11,Pattern_Practice,29,1,38,54,2654169116
50,24,11,Pattern_Practice,30,5,42,127,2654194956
50,24,11,Pattern_Practice,31,5,42,127,2654694732
50,24,11,Pattern_Practice,32,1,48,70,2654706600
50,24,11,Pattern_Practice,33,5,42,127,2655194352
50,24,11,Pattern_Practice,34,1,38,59,2655213472
50,24,11,Pattern_Practice,35,5,42,127,2655695168
50,24,11,Pattern_Practice,36,1,38,57,2655741816
50,24,11,Pattern_Practice,37,5,42,127,2656195012
50,24,11,Pattern_Practice,38,1,38,57,2656223860
50,24,11,Pattern_Practice,39,5,42,127,2656694780
50,24,11,Pattern_Practice,40,1,38,59,2656708000
50,24,11,Pattern_Practice,41,5,42,127,2657195300
50,24,11,Pattern_Practice,42,1,48,68,2657226612
50,24,11,Pattern_Practice,43,5,42,127,2657694996
50,24,11,Pattern_Practice,44,1,48,74,2657716212
50,24,11,Pattern_Practice,45,5,42,127,2658194764
50,24,11,Pattern_Practice,46,1,48,62,2658217476
50,24,11,Pattern_Practice,47,1,48,67,2658682744
50,24,11,Pattern_Practice,48,5,42,127,2658694452
50,24,11,Pattern_Practice,49,1,38,42,2659149676
50,24,11,Pattern_Practice,50,5,42,127,2659195192
50,24,11,Pattern_Practice,51,1,38,55,2659645688
50,24,11,Pattern_Practice,52,5,42,127,2659694888
50,24,11,Pattern_Practice,53,1,38,51,2660153536
50,24,11,Pattern_Practice,54,5,42,127,2660194656
50,24,11,Pattern_Practice,55,1,38,58,2660622784
50,24,11,Pattern_Practice,56,5,42,127,2660695396
50,24,11,Pattern_Practice,57,1,48,80,2661140732
50,24,11,Pattern_Practice,58,5,42,127,2661195016
50,24,11,Pattern_Practice,59,1,48,74,2661691284
50,24,11,Pattern_Practice,60,5,42,127,2661694908
50,24,11,Pattern_Practice,61,5,42,127,2662194536
50,24,11,Pattern_Practice,62,1,48,62,2662206484
50,24,11,Pattern_Practice,63,5,42,127,2662695352
50,24,11,Pattern_Practice,64,1,48,68,2662737388
50,24,11,Pattern_Practice,65,1,38,47,2663152900
50,24,11,Pattern_Practice,66,5,42,127,2663194892
50,24,11,Pattern_Practice,67,1,38,57,2663664784
50,24,11,Pattern_Practice,68,5,42,127,2663694588
50,24,11,Pattern_Practice,69,1,38,49,2664142712
50,24,11,Pattern_Practice,70,5,42,127,2664194656
50,24,11,Pattern_Practice,71,1,38,58,2664653928
50,24,11,Pattern_Practice,72,5,42,127,2664695100
50,24,11,Pattern_Practice,73,1,48,72,2665170524
50,24,11,Pattern_Practice,74,1,38,17,2665181048
50,24,11,Pattern_Practice,75,5,42,127,2665194848
50,24,11,Pattern_Practice,76,1,48,62,2665665012
50,24,11,Pattern_Practice,77,5,42,127,2665694740
50,24,11,Pattern_Practice,78,1,48,60,2666147052
50,24,11,Pattern_Practice,79,5,42,127,2666195480
50,24,11,Pattern_Practice,80,1,48,67,2666672628
50,24,11,Pattern_Practice,81,5,42,127,2666694952
50,24,11,Pattern_Practice,82,5,42,127,2667194732
50,24,11,Pattern_Practice,83,1,38,60,2667207724
50,24,11,Pattern_Practice,84,5,42,127,2667694648
50,24,11,Pattern_Practice,85,1,38,62,2667697396
50,24,11,Pattern_Practice,86,1,38,62,2668179120
50,24,11,Pattern_Practice,87,5,42,127,2668195088
50,24,11,Pattern_Practice,88,5,42,127,2668694860
50,24,11,Pattern_Practice,89,1,38,60,2668712712
50,24,11,Pattern_Practice,90,5,42,127,2669194556
50,24,11,Pattern_Practice,91,1,48,71,2669261404
50,24,11,Pattern_Practice,92,1,38,17,2669271408
50,24,11,Pattern_Practice,93,5,42,127,2669695476
50,24,11,Pattern_Practice,94,1,48,69,2669700016
50,24,11,Pattern_Practice,95,1,48,69,2670194644
50,24,11,Pattern_Practice,96,5,42,127,2670196284
50,24,11,Pattern_Practice,97,5,42,127,2670694716
50,24,11,Pattern_Practice,98,1,48,67,2670731796
50,24,11,Pattern_Practice,99,5,42,127,2671194560
50,24,11,Pattern_Practice,100,1,38,60,2671195524
50,24,11,Pattern_Practice,101,5,42,127,2671695304
50,24,11,Pattern_Practice,102,1,38,70,2671696788
50,24,11,Pattern_Practice,103,1,38,65,2672174736
50,24,11,Pattern_Practice,104,5,42,127,2672194816
50,24,11,Pattern_Practice,105,5,42,127,2672694568
50,24,11,Pattern_Practice,106,1,38,60,2672712072
50,24,11,Pattern_Practice,107,5,42,127,2673195456
50,24,11,Pattern_Practice,108,1,48,57,2673235700
50,24,11,Pattern_Practice,109,5,42,127,2673695076
50,24,11,Pattern_Practice,110,1,48,59,2673699244
50,24,11,Pattern_Practice,111,5,42,127,2674194700
50,24,11,Pattern_Practice,112,1,48,70,2674205668
50,24,11,Pattern_Practice,113,5,42,127,2674694544
50,24,11,Pattern_Practice,114,1,38,46,2674697812
50,24,11,Pattern_Practice,115,5,42,127,2675195284
50,24,11,Pattern_Practice,116,1,38,59,2675210668
50,24,11,Pattern_Practice,117,1,38,56,2675673696
50,24,11,Pattern_Practice,118,5,42,127,2675694896
50,24,11,Pattern_Practice,119,1,38,74,2676163364
50,24,11,Pattern_Practice,120,5,42,127,2676194740
50,24,11,Pattern_Practice,121,1,48,64,2676669340
50,24,11,Pattern_Practice,122,5,42,127,2676695332
50,24,11,Pattern_Practice,123,1,48,62,2677185340
50,24,11,Pattern_Practice,124,5,42,127,2677195248
50,24,11,Pattern_Practice,125,1,48,65,2677673964
50,24,11,Pattern_Practice,126,5,42,127,2677694796
50,24,11,Pattern_Practice,127,1,38,52,2678160196
50,24,11,Pattern_Practice,128,5,42,127,2678194640
50,24,11,Pattern_Practice,129,1,38,54,2678646204
50,24,11,Pattern_Practice,130,5,42,127,2678695232
50,24,11,Pattern_Practice,131,1,38,59,2679148068
50,24,11,Pattern_Practice,132,1,48,15,2679158372
50,24,11,Pattern_Practice,133,5,42,127,2679194980
50,24,11,Pattern_Practice,134,1,38,67,2679620716
50,24,11,Pattern_Practice,135,5,42,127,2679694648
50,24,11,Pattern_Practice,136,1,48,59,2680134024
50,24,11,Pattern_Practice,137,5,42,127,2680194272
50,24,11,Pattern_Practice,138,1,48,64,2680670964
50,24,11,Pattern_Practice,139,5,42,127,2680695232
50,24,11,Pattern_Practice,140,1,48,68,2681136380
50,24,11,Pattern_Practice,141,5,42,127,2681195004
50,24,11,Pattern_Practice,142,1,38,43,2681646916
50,24,11,Pattern_Practice,143,5,42,127,2681694700
50,24,11,Pattern_Practice,144,1,38,52,2682154020
50,24,11,Pattern_Practice,145,5,42,127,2682195288
50,24,11,Pattern_Practice,146,1,38,59,2682657600
50,24,11,Pattern_Practice,147,5,42,127,2682695132
50,24,11,Pattern_Practice,148,1,38,65,2683140764
50,24,11,Pattern_Practice,149,5,42,127,2683194652
50,24,11,Pattern_Practice,150,1,48,53,2683639112
50,24,11,Pattern_Practice,151,5,42,127,2683694424
50,24,11,Pattern_Practice,152,1,48,65,2684133196
50,24,11,Pattern_Practice,0,9999,9999,9999,2644192308
50,24,11,Pattern_Practice,1,9999,9999,9999,2644693072
50,24,11,Pattern_Practice,2,9999,9999,9999,2645192788
50,24,11,Pattern_Practice,3,9999,9999,9999,2645692504
50,24,11,Pattern_Practice,4,9999,9999,9999,2646192220
50,24,11,Pattern_Practice,5,9999,9999,9999,2646692984
50,24,11,Pattern_Practice,6,9999,9999,9999,2647192628
50,24,11,Pattern_Practice,7,9999,9999,9999,2647692344
50,24,11,Pattern_Practice,8,9999,9999,9999,2648192060
50,24,11,Pattern_Practice,9,9999,9999,9999,2648692824
50,24,11,Pattern_Practice,10,9999,9999,9999,2649192540
50,24,11,Pattern_Practice,11,9999,9999,9999,2649692260
50,24,11,Pattern_Practice,12,9999,9999,9999,2650192996
50,24,11,Pattern_Practice,13,9999,9999,9999,2650692712
50,24,11,Pattern_Practice,14,9999,9999,9999,2651192408
50,24,11,Pattern_Practice,15,9999,9999,9999,2651692108
50,24,11,Pattern_Practice,16,9999,9999,9999,2652192852
50,24,11,Pattern_Practice,17,9999,9999,9999,2652692544
50,24,11,Pattern_Practice,18,9999,9999,9999,2653192308
50,24,11,Pattern_Practice,19,9999,9999,9999,2653692980
50,24,11,Pattern_Practice,20,9999,9999,9999,2654192744
50,24,11,Pattern_Practice,21,9999,9999,9999,2654692444
50,24,11,Pattern_Practice,22,9999,9999,9999,2655192140
50,24,11,Pattern_Practice,23,9999,9999,9999,2655692880
50,24,11,Pattern_Practice,24,9999,9999,9999,2656192576
50,24,11,Pattern_Practice,25,9999,9999,9999,2656692344
50,24,11,Pattern_Practice,26,9999,9999,9999,2657193012
50,24,11,Pattern_Practice,27,9999,9999,9999,2657692784
50,24,11,Pattern_Practice,28,9999,9999,9999,2658192476
50,24,11,Pattern_Practice,29,9999,9999,9999,2658692164
50,24,11,Pattern_Practice,30,9999,9999,9999,2659192904
50,24,11,Pattern_Practice,31,9999,9999,9999,2659692600
50,24,11,Pattern_Practice,32,9999,9999,9999,2660192368
50,24,11,Pattern_Practice,33,9999,9999,9999,2660693112
50,24,11,Pattern_Practice,34,9999,9999,9999,2661192804
50,24,11,Pattern_Practice,35,9999,9999,9999,2661692476
50,24,11,Pattern_Practice,36,9999,9999,9999,2662192248
50,24,11,Pattern_Practice,37,9999,9999,9999,2662692916
50,24,11,Pattern_Practice,38,9999,9999,9999,2663192680
50,24,11,Pattern_Practice,39,9999,9999,9999,2663692376
50,24,11,Pattern_Practice,40,9999,9999,9999,2664192072
50,24,11,Pattern_Practice,41,9999,9999,9999,2664692812
50,24,11,Pattern_Practice,42,9999,9999,9999,2665192564
50,24,11,Pattern_Practice,43,9999,9999,9999,2665692232
50,24,11,Pattern_Practice,44,9999,9999,9999,2666192972
50,24,11,Pattern_Practice,45,9999,9999,9999,2666692668
50,24,11,Pattern_Practice,46,9999,9999,9999,2667192444
50,24,11,Pattern_Practice,47,9999,9999,9999,2667692140
50,24,11,Pattern_Practice,48,9999,9999,9999,2668192876
50,24,11,Pattern_Practice,49,9999,9999,9999,2668692576
50,24,11,Pattern_Practice,50,9999,9999,9999,2669192272
50,24,11,Pattern_Practice,51,9999,9999,9999,2669693040
50,24,11,Pattern_Practice,52,9999,9999,9999,2670192736
50,24,11,Pattern_Practice,53,9999,9999,9999,2670692432
50,24,11,Pattern_Practice,54,9999,9999,9999,2671192124
50,24,11,Pattern_Practice,55,9999,9999,9999,2671692868
50,24,11,Pattern_Practice,56,9999,9999,9999,2672192604
50,24,11,Pattern_Practice,57,9999,9999,9999,2672692280
50,24,11,Pattern_Practice,58,9999,9999,9999,2673193024
50,24,11,Pattern_Practice,59,9999,9999,9999,2673692792
50,24,11,Pattern_Practice,60,9999,9999,9999,2674192488
50,24,11,Pattern_Practice,61,9999,9999,9999,2674692184
50,24,11,Pattern_Practice,62,9999,9999,9999,2675192920
50,24,11,Pattern_Practice,63,9999,9999,9999,2675692612
50,24,11,Pattern_Practice,64,9999,9999,9999,2676192304
50,24,11,Pattern_Practice,65,9999,9999,9999,2676693044
50,24,11,Pattern_Practice,66,9999,9999,9999,2677192816
50,24,11,Pattern_Practice,67,9999,9999,9999,2677692508
50,24,11,Pattern_Practice,68,9999,9999,9999,2678192204
50,24,11,Pattern_Practice,69,9999,9999,9999,2678692948
50,24,11,Pattern_Practice,70,9999,9999,9999,2679192696
50,24,11,Pattern_Practice,71,9999,9999,9999,2679692364
50,24,11,Pattern_Practice,72,9999,9999,9999,2680192060
50,24,11,Pattern_Practice,73,9999,9999,9999,2680692800
50,24,11,Pattern_Practice,74,9999,9999,9999,2681192568
50,24,11,Pattern_Practice,75,9999,9999,9999,2681692264
50,24,11,Pattern_Practice,76,9999,9999,9999,2682193004
50,24,11,Pattern_Practice,77,9999,9999,9999,2682692700
50,24,11,Pattern_Practice,78,9999,9999,9999,2683192440
50,24,11,Pattern_Practice,79,9999,9999,9999,2683692136
50,25,13,Improv_Metronome,0,5,42,127,2712631584
50,25,13,Improv_Metronome,1,5,42,127,2713132496
50,25,13,Improv_Metronome,2,5,42,127,2713632064
50,25,13,Improv_Metronome,3,5,42,127,2714131780
50,25,13,Improv_Metronome,4,1,48,62,2714538928
50,25,13,Improv_Metronome,5,5,42,127,2714631568
50,25,13,Improv_Metronome,6,1,48,66,2715042968
50,25,13,Improv_Metronome,7,5,42,127,2715132308
50,25,13,Improv_Metronome,8,1,48,72,2715576840
50,25,13,Improv_Metronome,9,5,42,127,2715631852
50,25,13,Improv_Metronome,10,1,48,70,2716068912
50,25,13,Improv_Metronome,11,5,42,127,2716131772
50,25,13,Improv_Metronome,12,1,38,57,2716565688
50,25,13,Improv_Metronome,13,5,42,127,2716632440
50,25,13,Improv_Metronome,14,1,38,65,2717060148
50,25,13,Improv_Metronome,15,5,42,127,2717132356
50,25,13,Improv_Metronome,16,1,48,64,2717603444
50,25,13,Improv_Metronome,17,5,42,127,2717631828
50,25,13,Improv_Metronome,18,1,48,69,2718094016
50,25,13,Improv_Metronome,19,5,42,127,2718131524
50,25,13,Improv_Metronome,20,1,48,71,2718602012
50,25,13,Improv_Metronome,21,5,42,127,2718632416
50,25,13,Improv_Metronome,22,1,48,69,2719106040
50,25,13,Improv_Metronome,23,5,42,127,2719131960
50,25,13,Improv_Metronome,24,1,38,52,2719564748
50,25,13,Improv_Metronome,25,5,42,127,2719631728
50,25,13,Improv_Metronome,26,1,38,56,2720057540
50,25,13,Improv_Metronome,27,5,42,127,2720131424
50,25,13,Improv_Metronome,28,1,48,62,2720585528
50,25,13,Improv_Metronome,29,5,42,127,2720632388
50,25,13,Improv_Metronome,30,1,48,71,2721088792
50,25,13,Improv_Metronome,31,5,42,127,2721131860
50,25,13,Improv_Metronome,32,1,48,68,2721628076
50,25,13,Improv_Metronome,33,5,42,127,2721631628
50,25,13,Improv_Metronome,34,5,42,127,2722132452
50,25,13,Improv_Metronome,35,1,38,56,2722142828
50,25,13,Improv_Metronome,36,5,42,127,2722632072
50,25,13,Improv_Metronome,37,1,48,67,2722675504
50,25,13,Improv_Metronome,38,1,48,65,2723126316
50,25,13,Improv_Metronome,39,5,42,127,2723131808
50,25,13,Improv_Metronome,40,1,48,72,2723600880
50,25,13,Improv_Metronome,41,5,42,127,2723631356
50,25,13,Improv_Metronome,42,1,38,50,2724087860
50,25,13,Improv_Metronome,43,5,42,127,2724132468
50,25,13,Improv_Metronome,44,1,38,58,2724577380
50,25,13,Improv_Metronome,45,5,42,127,2724631792
50,25,13,Improv_Metronome,46,1,48,70,2725067720
50,25,13,Improv_Metronome,47,5,42,127,2725131488
50,25,13,Improv_Metronome,48,1,48,66,2725514464
50,25,13,Improv_Metronome,49,5,42,127,2725632288
50,25,13,Improv_Metronome,50,1,48,68,2726035476
50,25,13,Improv_Metronome,51,5,42,127,2726132280
50,25,13,Improv_Metronome,52,1,48,77,2726517512
50,25,13,Improv_Metronome,53,5,42,127,2726631676
50,25,13,Improv_Metronome,54,1,38,56,2726960268
50,25,13,Improv_Metronome,55,5,42,127,2727131520
50,25,13,Improv_Metronome,56,1,38,57,2727454276
50,25,13,Improv_Metronome,57,5,42,127,2727632408
50,25,13,Improv_Metronome,58,1,38,54,2727925468
50,25,13,Improv_Metronome,59,5,42,127,2728131880
50,25,13,Improv_Metronome,60,1,38,51,2728485452
50,25,13,Improv_Metronome,61,5,42,127,2728631724
50,25,13,Improv_Metronome,62,1,48,66,2729010280
50,25,13,Improv_Metronome,63,5,42,127,2729132320
50,25,13,Improv_Metronome,64,1,48,62,2729488280
50,25,13,Improv_Metronome,65,5,42,127,2729632380
50,25,13,Improv_Metronome,66,1,48,67,2730030536
50,25,13,Improv_Metronome,67,5,42,127,2730132076
50,25,13,Improv_Metronome,68,1,38,53,2730513476
50,25,13,Improv_Metronome,69,5,42,127,2730631400
50,25,13,Improv_Metronome,70,1,38,54,2730949140
50,25,13,Improv_Metronome,71,5,42,127,2731132288
50,25,13,Improv_Metronome,72,1,38,52,2731446744
50,25,13,Improv_Metronome,73,5,42,127,2731632284
50,25,13,Improv_Metronome,74,1,38,59,2731944420
50,25,13,Improv_Metronome,75,5,42,127,2732131684
50,25,13,Improv_Metronome,76,1,48,53,2732495952
50,25,13,Improv_Metronome,77,5,42,127,2732632352
50,25,13,Improv_Metronome,78,1,48,63,2733069020
50,25,13,Improv_Metronome,79,5,42,127,2733132208
50,25,13,Improv_Metronome,80,5,42,127,2733632032
50,25,13,Improv_Metronome,81,1,48,76,2733655224
50,25,13,Improv_Metronome,82,1,38,47,2734102512
50,25,13,Improv_Metronome,83,5,42,127,2734131644
50,25,13,Improv_Metronome,84,1,38,64,2734614852
50,25,13,Improv_Metronome,85,5,42,127,2734632240
50,25,13,Improv_Metronome,86,1,38,58,2735118208
50,25,13,Improv_Metronome,87,5,42,127,2735132156
50,25,13,Improv_Metronome,88,1,38,59,2735626508
50,25,13,Improv_Metronome,89,5,42,127,2735631628
50,25,13,Improv_Metronome,90,5,42,127,2736131556
50,25,13,Improv_Metronome,91,1,48,62,2736183068
50,25,13,Improv_Metronome,92,5,42,127,2736632220
50,25,13,Improv_Metronome,93,1,48,54,2736668024
50,25,13,Improv_Metronome,94,5,42,127,2737132064
50,25,13,Improv_Metronome,95,1,38,42,2737153436
50,25,13,Improv_Metronome,96,5,42,127,2737631680
50,25,13,Improv_Metronome,97,1,38,49,2737661356
50,25,13,Improv_Metronome,98,5,42,127,2738132424
50,25,13,Improv_Metronome,99,1,38,49,2738166960
50,25,13,Improv_Metronome,100,1,38,56,2738603136
50,25,13,Improv_Metronome,101,5,42,127,2738632036
50,25,13,Improv_Metronome,102,1,48,54,2739125188
50,25,13,Improv_Metronome,103,5,42,127,2739131880
50,25,13,Improv_Metronome,104,5,42,127,2739631436
50,25,13,Improv_Metronome,105,1,38,52,2739639788
50,25,13,Improv_Metronome,106,1,38,54,2740114636
50,25,13,Improv_Metronome,107,5,42,127,2740132168
50,25,13,Improv_Metronome,108,1,38,53,2740589044
50,25,13,Improv_Metronome,109,5,42,127,2740631940
50,25,13,Improv_Metronome,110,1,38,59,2741099212
50,25,13,Improv_Metronome,111,5,42,127,2741131708
50,25,13,Improv_Metronome,112,5,42,127,2741632456
50,25,13,Improv_Metronome,113,1,48,55,2741635428
50,25,13,Improv_Metronome,114,5,42,127,2742132152
50,25,13,Improv_Metronome,115,1,48,63,2742167356
50,25,13,Improv_Metronome,116,5,42,127,2742631844
50,25,13,Improv_Metronome,117,1,38,47,2742695848
50,25,13,Improv_Metronome,118,5,42,127,2743131464
50,25,13,Improv_Metronome,119,1,38,57,2743178716
50,25,13,Improv_Metronome,120,5,42,127,2743632208
50,25,13,Improv_Metronome,121,1,48,50,2743709000
50,25,13,Improv_Metronome,122,5,42,127,2744131900
50,25,13,Improv_Metronome,123,1,48,51,2744177352
50,25,13,Improv_Metronome,124,5,42,127,2744631868
50,25,13,Improv_Metronome,125,1,48,61,2744647204
50,25,13,Improv_Metronome,126,1,38,54,2745120008
50,25,13,Improv_Metronome,127,5,42,127,2745132308
50,25,13,Improv_Metronome,128,1,38,59,2745622692
50,25,13,Improv_Metronome,129,5,42,127,2745632220
50,25,13,Improv_Metronome,130,5,42,127,2746131776
50,25,13,Improv_Metronome,131,1,48,56,2746152172
50,25,13,Improv_Metronome,132,5,42,127,2746631620
50,25,13,Improv_Metronome,133,1,48,63,2746641920
50,25,13,Improv_Metronome,134,1,48,63,2747094472
50,25,13,Improv_Metronome,135,5,42,127,2747132128
50,25,13,Improv_Metronome,136,1,48,65,2747599848
50,25,13,Improv_Metronome,137,5,42,127,2747632048
50,25,13,Improv_Metronome,138,1,38,55,2748057888
50,25,13,Improv_Metronome,139,5,42,127,2748131672
50,25,13,Improv_Metronome,140,1,38,60,2748541796
50,25,13,Improv_Metronome,141,5,42,127,2748632488
50,25,13,Improv_Metronome,142,1,38,60,2749040372
50,25,13,Improv_Metronome,143,5,42,127,2749132108
50,25,13,Improv_Metronome,144,1,48,57,2749579336
50,25,13,Improv_Metronome,145,5,42,127,2749631800
50,25,13,Improv_Metronome,146,1,38,54,2750110292
50,25,13,Improv_Metronome,147,5,42,127,2750131644
50,25,13,Improv_Metronome,148,5,42,127,2750632392
50,25,13,Improv_Metronome,149,1,48,63,2750664608
50,25,13,Improv_Metronome,150,1,38,51,2751106316
50,25,13,Improv_Metronome,151,5,42,127,2751132156
50,25,13,Improv_Metronome,152,5,42,127,2751631780
50,25,13,Improv_Metronome,153,1,48,70,2751636468
50,25,13,Improv_Metronome,154,5,42,127,2752131552
50,25,13,Improv_Metronome,155,1,48,61,2752183960
50,25,13,Improv_Metronome,156,5,42,127,2752632068
50,25,13,Improv_Metronome,157,1,48,72,2752651716
50,25,13,Improv_Metronome,158,1,38,56,2753035732
50,25,13,Improv_Metronome,159,5,42,127,2753131892
50,25,13,Improv_Metronome,160,1,38,57,2753578880
50,25,13,Improv_Metronome,161,5,42,127,2753631676
50,25,13,Improv_Metronome,162,1,38,54,2754098028
50,25,13,Improv_Metronome,163,5,42,127,2754132568
50,25,13,Improv_Metronome,164,1,48,56,2754607448
50,25,13,Improv_Metronome,165,5,42,127,2754632040
50,25,13,Improv_Metronome,166,5,42,127,2755131716
50,25,13,Improv_Metronome,167,1,48,63,2755141892
50,25,13,Improv_Metronome,168,1,38,56,2755569212
50,25,13,Improv_Metronome,169,5,42,127,2755631556
50,25,13,Improv_Metronome,170,1,38,53,2756042204
50,25,13,Improv_Metronome,171,5,42,127,2756132148
50,25,13,Improv_Metronome,172,1,48,66,2756578176
50,25,13,Improv_Metronome,173,5,42,127,2756631916
50,25,13,Improv_Metronome,174,1,48,61,2757126272
50,25,13,Improv_Metronome,175,5,42,127,2757131616
50,25,13,Improv_Metronome,176,1,38,52,2757566500
50,25,13,Improv_Metronome,177,5,42,127,2757632652
50,25,13,Improv_Metronome,178,1,38,54,2758086536
50,25,13,Improv_Metronome,179,5,42,127,2758132052
50,25,13,Improv_Metronome,180,1,38,61,2758559160
50,25,13,Improv_Metronome,181,5,42,127,2758631672
50,25,13,Improv_Metronome,182,1,48,55,2759074636
50,25,13,Improv_Metronome,183,5,42,127,2759131516
50,25,13,Improv_Metronome,184,1,48,55,2759558848
50,25,13,Improv_Metronome,185,5,42,127,2759632184
50,25,13,Improv_Metronome,186,1,38,40,2760034980
50,25,13,Improv_Metronome,187,5,42,127,2760131880
50,25,13,Improv_Metronome,188,1,38,59,2760546568
50,25,13,Improv_Metronome,189,5,42,127,2760631648
50,25,13,Improv_Metronome,190,1,48,59,2761043792
50,25,13,Improv_Metronome,191,5,42,127,2761132612
50,25,13,Improv_Metronome,192,1,48,58,2761553964
50,25,13,Improv_Metronome,193,5,42,127,2761632008
50,25,13,Improv_Metronome,194,1,48,72,2762042108
50,25,13,Improv_Metronome,195,1,38,18,2762052300
50,25,13,Improv_Metronome,196,5,42,127,2762131844
50,25,13,Improv_Metronome,197,1,38,53,2762529280
50,25,13,Improv_Metronome,198,5,42,127,2762631572
50,25,13,Improv_Metronome,199,1,38,60,2763013112
50,25,13,Improv_Metronome,200,5,42,127,2763132312
50,25,13,Improv_Metronome,201,1,48,70,2763557016
50,25,13,Improv_Metronome,202,5,42,127,2763631872
50,25,13,Improv_Metronome,203,1,48,62,2764085656
50,25,13,Improv_Metronome,204,5,42,127,2764131640
50,25,13,Improv_Metronome,205,1,48,61,2764600160
50,25,13,Improv_Metronome,206,5,42,127,2764632308
50,25,13,Improv_Metronome,207,5,42,127,2765132084
50,25,13,Improv_Metronome,208,1,38,51,2765172828
50,25,13,Improv_Metronome,209,5,42,127,2765631776
50,25,13,Improv_Metronome,210,1,48,58,2765645368
50,25,13,Improv_Metronome,211,1,38,59,2766093108
50,25,13,Improv_Metronome,212,5,42,127,2766131516
50,25,13,Improv_Metronome,213,1,48,57,2766590932
50,25,13,Improv_Metronome,214,5,42,127,2766632480
50,25,13,Improv_Metronome,215,1,38,59,2767040888
50,25,13,Improv_Metronome,216,5,42,127,2767131952
50,25,13,Improv_Metronome,217,1,48,69,2767596452
50,25,13,Improv_Metronome,218,5,42,127,2767631720
50,25,13,Improv_Metronome,219,1,38,32,2768089044
50,25,13,Improv_Metronome,220,5,42,127,2768131488
50,25,13,Improv_Metronome,221,1,48,61,2768625844
50,25,13,Improv_Metronome,222,5,42,127,2768632380
50,25,13,Improv_Metronome,223,1,38,42,2769124112
50,25,13,Improv_Metronome,224,5,42,127,2769131928
50,25,13,Improv_Metronome,225,1,48,53,2769619320
50,25,13,Improv_Metronome,226,5,42,127,2769631620
50,25,13,Improv_Metronome,227,1,38,50,2770086700
50,25,13,Improv_Metronome,228,5,42,127,2770132288
50,25,13,Improv_Metronome,229,5,42,127,2770631988
50,25,13,Improv_Metronome,230,1,48,60,2770638252
50,25,13,Improv_Metronome,231,5,42,127,2771131684
50,25,13,Improv_Metronome,232,1,38,54,2771163452
50,25,13,Improv_Metronome,233,5,42,127,2771631456
50,25,13,Improv_Metronome,234,1,38,56,2771678928
50,25,13,Improv_Metronome,235,5,42,127,2772132196
50,25,13,Improv_Metronome,236,1,38,53,2772167028
50,25,13,Improv_Metronome,237,1,38,52,2772627960
50,25,13,Improv_Metronome,238,5,42,127,2772631884
50,25,13,Improv_Metronome,239,1,38,50,2773102676
50,25,13,Improv_Metronome,240,5,42,127,2773131580
50,25,13,Improv_Metronome,241,1,38,48,2773599600
50,25,13,Improv_Metronome,242,5,42,127,2773632324
50,25,13,Improv_Metronome,243,1,38,50,2774113660
50,25,13,Improv_Metronome,244,5,42,127,2774132240
50,25,13,Improv_Metronome,245,1,38,56,2774578324
50,25,13,Improv_Metronome,246,5,42,127,2774631712
50,25,13,Improv_Metronome,247,1,48,35,2775127556
50,25,13,Improv_Metronome,248,5,42,127,2775131556
50,25,13,Improv_Metronome,249,1,48,48,2775623212
50,25,13,Improv_Metronome,250,5,42,127,2775632368
50,25,13,Improv_Metronome,251,1,48,44,2776103360
50,25,13,Improv_Metronome,252,5,42,127,2776132140
50,25,13,Improv_Metronome,253,1,48,45,2776549196
50,25,13,Improv_Metronome,254,5,42,127,2776631660
50,25,13,Improv_Metronome,255,1,48,55,2777065648
50,25,13,Improv_Metronome,256,5,42,127,2777132252
50,25,13,Improv_Metronome,257,1,38,58,2777565196
50,25,13,Improv_Metronome,258,5,42,127,2777632096
50,25,13,Improv_Metronome,259,1,38,55,2778038932
50,25,13,Improv_Metronome,260,5,42,127,2778131792
50,25,13,Improv_Metronome,261,1,38,54,2778590464
50,25,13,Improv_Metronome,262,5,42,127,2778631488
50,25,13,Improv_Metronome,263,1,48,46,2779090680
50,25,13,Improv_Metronome,264,5,42,127,2779132228
50,25,13,Improv_Metronome,265,1,48,52,2779586408
50,25,13,Improv_Metronome,266,5,42,127,2779632072
50,25,13,Improv_Metronome,267,1,48,52,2780042120
50,25,13,Improv_Metronome,268,5,42,127,2780131764
50,25,13,Improv_Metronome,269,1,38,46,2780534412
50,25,13,Improv_Metronome,270,5,42,127,2780632416
50,25,13,Improv_Metronome,271,1,38,34,2781016752
50,25,13,Improv_Metronome,272,5,42,127,2781132112
50,25,13,Improv_Metronome,273,1,48,51,2781560132
50,25,13,Improv_Metronome,274,5,42,127,2781631968
50,25,13,Improv_Metronome,275,1,48,53,2782058852
50,25,13,Improv_Metronome,276,5,42,127,2782131664
50,25,13,Improv_Metronome,277,1,38,52,2782503324
50,25,13,Improv_Metronome,0,9999,9999,9999,2712629372
50,25,13,Improv_Metronome,1,9999,9999,9999,2713130060
50,25,13,Improv_Metronome,2,9999,9999,9999,2713629776
50,25,13,Improv_Metronome,3,9999,9999,9999,2714129492
50,25,13,Improv_Metronome,4,9999,9999,9999,2714629204
50,25,13,Improv_Metronome,5,9999,9999,9999,2715129944
50,25,13,Improv_Metronome,6,9999,9999,9999,2715629640
50,25,13,Improv_Metronome,7,9999,9999,9999,2716129336
50,25,13,Improv_Metronome,8,9999,9999,9999,2716630076
50,25,13,Improv_Metronome,9,9999,9999,9999,2717129848
50,25,13,Improv_Metronome,10,9999,9999,9999,2717629540
50,25,13,Improv_Metronome,11,9999,9999,9999,2718129236
50,25,13,Improv_Metronome,12,9999,9999,9999,2718629980
50,25,13,Improv_Metronome,13,9999,9999,9999,2719129672
50,25,13,Improv_Metronome,14,9999,9999,9999,2719629368
50,25,13,Improv_Metronome,15,9999,9999,9999,2720129136
50,25,13,Improv_Metronome,16,9999,9999,9999,2720629876
50,25,13,Improv_Metronome,17,9999,9999,9999,2721129572
50,25,13,Improv_Metronome,18,9999,9999,9999,2721629268
50,25,13,Improv_Metronome,19,9999,9999,9999,2722130016
50,25,13,Improv_Metronome,20,9999,9999,9999,2722629712
50,25,13,Improv_Metronome,21,9999,9999,9999,2723129448
50,25,13,Improv_Metronome,22,9999,9999,9999,2723629144
50,25,13,Improv_Metronome,23,9999,9999,9999,2724129884
50,25,13,Improv_Metronome,24,9999,9999,9999,2724629580
50,25,13,Improv_Metronome,25,9999,9999,9999,2725129276
50,25,13,Improv_Metronome,26,9999,9999,9999,2725630072
50,25,13,Improv_Metronome,27,9999,9999,9999,2726129768
50,25,13,Improv_Metronome,28,9999,9999,9999,2726629464
50,25,13,Improv_Metronome,29,9999,9999,9999,2727129156
50,25,13,Improv_Metronome,30,9999,9999,9999,2727629900
50,25,13,Improv_Metronome,31,9999,9999,9999,2728129596
50,25,13,Improv_Metronome,32,9999,9999,9999,2728629364
50,25,13,Improv_Metronome,33,9999,9999,9999,2729130104
50,25,13,Improv_Metronome,34,9999,9999,9999,2729629800
50,25,13,Improv_Metronome,35,9999,9999,9999,2730129492
50,25,13,Improv_Metronome,36,9999,9999,9999,2730629188
50,25,13,Improv_Metronome,37,9999,9999,9999,2731129928
50,25,13,Improv_Metronome,38,9999,9999,9999,2731629624
50,25,13,Improv_Metronome,39,9999,9999,9999,2732129396
50,25,13,Improv_Metronome,40,9999,9999,9999,2732630136
50,25,13,Improv_Metronome,41,9999,9999,9999,2733129848
50,25,13,Improv_Metronome,42,9999,9999,9999,2733629524
50,25,13,Improv_Metronome,43,9999,9999,9999,2734129212
50,25,13,Improv_Metronome,44,9999,9999,9999,2734629952
50,25,13,Improv_Metronome,45,9999,9999,9999,2735129720
50,25,13,Improv_Metronome,46,9999,9999,9999,2735629416
50,25,13,Improv_Metronome,47,9999,9999,9999,2736129116
50,25,13,Improv_Metronome,48,9999,9999,9999,2736629860
50,25,13,Improv_Metronome,49,9999,9999,9999,2737129552
50,25,13,Improv_Metronome,50,9999,9999,9999,2737629248
50,25,13,Improv_Metronome,51,9999,9999,9999,2738129988
50,25,13,Improv_Metronome,52,9999,9999,9999,2738629752
50,25,13,Improv_Metronome,53,9999,9999,9999,2739129448
50,25,13,Improv_Metronome,54,9999,9999,9999,2739629148
50,25,13,Improv_Metronome,55,9999,9999,9999,2740129884
50,25,13,Improv_Metronome,56,9999,9999,9999,2740629580
50,25,13,Improv_Metronome,57,9999,9999,9999,2741129276
50,25,13,Improv_Metronome,58,9999,9999,9999,2741630020
50,25,13,Improv_Metronome,59,9999,9999,9999,2742129716
50,25,13,Improv_Metronome,60,9999,9999,9999,2742629484
50,25,13,Improv_Metronome,61,9999,9999,9999,2743129180
50,25,13,Improv_Metronome,62,9999,9999,9999,2743629920
50,25,13,Improv_Metronome,63,9999,9999,9999,2744129616
50,25,13,Improv_Metronome,64,9999,9999,9999,2744629360
50,25,13,Improv_Metronome,65,9999,9999,9999,2745130092
50,25,13,Improv_Metronome,66,9999,9999,9999,2745629788
50,25,13,Improv_Metronome,67,9999,9999,9999,2746129488
50,25,13,Improv_Metronome,68,9999,9999,9999,2746629184
50,25,13,Improv_Metronome,69,9999,9999,9999,2747129916
50,25,13,Improv_Metronome,70,9999,9999,9999,2747629688
50,25,13,Improv_Metronome,71,9999,9999,9999,2748129384
50,25,13,Improv_Metronome,72,9999,9999,9999,2748630124
50,25,13,Improv_Metronome,73,9999,9999,9999,2749129820
50,25,13,Improv_Metronome,74,9999,9999,9999,2749629516
50,25,13,Improv_Metronome,75,9999,9999,9999,2750129208
50,25,13,Improv_Metronome,76,9999,9999,9999,2750629956
50,25,13,Improv_Metronome,77,9999,9999,9999,2751129720
50,25,13,Improv_Metronome,78,9999,9999,9999,2751629420
50,25,13,Improv_Metronome,79,9999,9999,9999,2752129116
50,25,13,Improv_Metronome,80,9999,9999,9999,2752629856
50,25,13,Improv_Metronome,81,9999,9999,9999,2753129528
50,25,13,Improv_Metronome,82,9999,9999,9999,2753629240
50,25,13,Improv_Metronome,83,9999,9999,9999,2754129984
50,25,13,Improv_Metronome,84,9999,9999,9999,2754629752
50,25,13,Improv_Metronome,85,9999,9999,9999,2755129428
50,25,13,Improv_Metronome,86,9999,9999,9999,2755629120
50,25,13,Improv_Metronome,87,9999,9999,9999,2756129860
50,25,13,Improv_Metronome,88,9999,9999,9999,2756629556
50,25,13,Improv_Metronome,89,9999,9999,9999,2757129328
50,25,13,Improv_Metronome,90,9999,9999,9999,2757630068
50,25,13,Improv_Metronome,91,9999,9999,9999,2758129764
50,25,13,Improv_Metronome,92,9999,9999,9999,2758629460
50,25,13,Improv_Metronome,93,9999,9999,9999,2759129156
50,25,13,Improv_Metronome,94,9999,9999,9999,2759629896
50,25,13,Improv_Metronome,95,9999,9999,9999,2760129592
50,25,13,Improv_Metronome,96,9999,9999,9999,2760629360
50,25,13,Improv_Metronome,97,9999,9999,9999,2761130104
50,25,13,Improv_Metronome,98,9999,9999,9999,2761629796
50,25,13,Improv_Metronome,99,9999,9999,9999,2762129484
50,25,13,Improv_Metronome,100,9999,9999,9999,2762629212
50,25,13,Improv_Metronome,101,9999,9999,9999,2763129952
50,25,13,Improv_Metronome,102,9999,9999,9999,2763629660
50,25,13,Improv_Metronome,103,9999,9999,9999,2764129356
50,25,13,Improv_Metronome,104,9999,9999,9999,2764630096
50,25,13,Improv_Metronome,105,9999,9999,9999,2765129796
50,25,13,Improv_Metronome,106,9999,9999,9999,2765629540
50,25,13,Improv_Metronome,107,9999,9999,9999,2766129228
50,25,13,Improv_Metronome,108,9999,9999,9999,2766629972
50,25,13,Improv_Metronome,109,9999,9999,9999,2767129664
50,25,13,Improv_Metronome,110,9999,9999,9999,2767629432
50,25,13,Improv_Metronome,111,9999,9999,9999,2768129128
50,25,13,Improv_Metronome,112,9999,9999,9999,2768629872
50,25,13,Improv_Metronome,113,9999,9999,9999,2769129564
50,25,13,Improv_Metronome,114,9999,9999,9999,2769629260
50,25,13,Improv_Metronome,115,9999,9999,9999,2770130000
50,25,13,Improv_Metronome,116,9999,9999,9999,2770629704
50,25,13,Improv_Metronome,117,9999,9999,9999,2771129396
50,25,13,Improv_Metronome,118,9999,9999,9999,2771629168
50,25,13,Improv_Metronome,119,9999,9999,9999,2772129908
50,25,13,Improv_Metronome,120,9999,9999,9999,2772629600
50,25,13,Improv_Metronome,121,9999,9999,9999,2773129296
50,25,13,Improv_Metronome,122,9999,9999,9999,2773630036
50,25,13,Improv_Metronome,123,9999,9999,9999,2774129732
50,25,13,Improv_Metronome,124,9999,9999,9999,2774629424
50,25,13,Improv_Metronome,125,9999,9999,9999,2775129196
50,25,13,Improv_Metronome,126,9999,9999,9999,2775629936
50,25,13,Improv_Metronome,127,9999,9999,9999,2776129632
50,25,13,Improv_Metronome,128,9999,9999,9999,2776629300
50,25,13,Improv_Metronome,129,9999,9999,9999,2777130040
50,25,13,Improv_Metronome,130,9999,9999,9999,2777629808
50,25,13,Improv_Metronome,131,9999,9999,9999,2778129504
50,25,13,Improv_Metronome,132,9999,9999,9999,2778629200
50,25,13,Improv_Metronome,133,9999,9999,9999,2779129940
50,25,13,Improv_Metronome,134,9999,9999,9999,2779629636
50,25,13,Improv_Metronome,135,9999,9999,9999,2780129332
50,25,13,Improv_Metronome,136,9999,9999,9999,2780630132
50,25,13,Improv_Metronome,137,9999,9999,9999,2781129824
50,25,13,Improv_Metronome,138,9999,9999,9999,2781629532
50,25,13,Improv_Metronome,139,9999,9999,9999,2782129228
50,26,14,Improv_Melody,0,2,48,80,2833049060
50,26,14,Improv_Melody,1,2,72,80,2833051736
50,26,14,Improv_Melody,2,5,42,127,2833053220
50,26,14,Improv_Melody,3,5,42,110,2833545464
50,26,14,Improv_Melody,4,5,42,110,2834046308
50,26,14,Improv_Melody,5,5,42,110,2834546104
50,26,14,Improv_Melody,6,5,42,127,2835045824
50,26,14,Improv_Melody,7,5,42,110,2835545324
50,26,14,Improv_Melody,8,5,42,110,2836046240
50,26,14,Improv_Melody,9,5,42,110,2836545960
50,26,14,Improv_Melody,10,2,43,80,2837048240
50,26,14,Improv_Melody,11,2,67,80,2837050396
50,26,14,Improv_Melody,12,5,42,127,2837053028
50,26,14,Improv_Melody,13,5,42,110,2837546292
50,26,14,Improv_Melody,14,5,42,110,2838046012
50,26,14,Improv_Melody,15,5,42,110,2838545736
50,26,14,Improv_Melody,16,5,42,127,2839045384
50,26,14,Improv_Melody,17,5,42,110,2839546152
50,26,14,Improv_Melody,18,5,42,110,2840046020
50,26,14,Improv_Melody,19,5,42,110,2840545596
50,26,14,Improv_Melody,20,2,45,80,2841048944
50,26,14,Improv_Melody,21,2,69,80,2841051248
50,26,14,Improv_Melody,22,5,42,127,2841053856
50,26,14,Improv_Melody,23,5,42,110,2841546100
50,26,14,Improv_Melody,24,5,42,110,2842045748
50,26,14,Improv_Melody,25,5,42,110,2842545468
50,26,14,Improv_Melody,26,5,42,127,2843046384
50,26,14,Improv_Melody,27,5,42,110,2843545960
50,26,14,Improv_Melody,28,5,42,110,2844045680
50,26,14,Improv_Melody,29,5,42,110,2844546744
50,26,14,Improv_Melody,30,2,41,80,2845048752
50,26,14,Improv_Melody,31,2,65,80,2845050824
50,26,14,Improv_Melody,32,5,42,127,2845053516
50,26,14,Improv_Melody,33,5,42,110,2845545832
50,26,14,Improv_Melody,34,5,42,110,2846045480
50,26,14,Improv_Melody,35,5,42,110,2846546172
50,26,14,Improv_Melody,36,5,42,127,2847045892
50,26,14,Improv_Melody,37,5,42,110,2847545664
50,26,14,Improv_Melody,38,5,42,110,2848045532
50,26,14,Improv_Melody,39,5,42,110,2848546152
50,26,14,Improv_Melody,40,1,38,76,2849021892
50,26,14,Improv_Melody,41,2,48,80,2849048752
50,26,14,Improv_Melody,42,2,72,80,2849050596
50,26,14,Improv_Melody,43,5,42,127,2849053212
50,26,14,Improv_Melody,44,5,42,110,2849545512
50,26,14,Improv_Melody,45,1,48,53,2849593588
50,26,14,Improv_Melody,46,5,42,110,2850046480
50,26,14,Improv_Melody,47,1,48,51,2850077648
50,26,14,Improv_Melody,48,5,42,110,2850545960
50,26,14,Improv_Melody,49,1,48,56,2850555436
50,26,14,Improv_Melody,50,1,48,58,2851013972
50,26,14,Improv_Melody,51,5,42,127,2851045724
50,26,14,Improv_Melody,52,1,48,57,2851510756
50,26,14,Improv_Melody,53,5,42,110,2851545648
50,26,14,Improv_Melody,54,1,48,59,2852017636
50,26,14,Improv_Melody,55,5,42,110,2852046172
50,26,14,Improv_Melody,56,1,48,60,2852511280
50,26,14,Improv_Melody,57,5,42,110,2852545948
50,26,14,Improv_Melody,58,2,43,80,2853048164
50,26,14,Improv_Melody,59,2,67,80,2853050312
50,26,14,Improv_Melody,60,5,42,127,2853052776
50,26,14,Improv_Melody,61,1,38,56,2853069728
50,26,14,Improv_Melody,62,5,42,110,2853546564
50,26,14,Improv_Melody,63,1,38,48,2853592992
50,26,14,Improv_Melody,64,5,42,110,2854046116
50,26,14,Improv_Melody,65,1,38,54,2854062552
50,26,14,Improv_Melody,66,5,42,110,2854545744
50,26,14,Improv_Melody,67,1,38,44,2854570924
50,26,14,Improv_Melody,68,5,42,127,2855045516
50,26,14,Improv_Melody,69,1,38,32,2855071596
50,26,14,Improv_Melody,70,5,42,110,2855546188
50,26,14,Improv_Melody,71,1,38,40,2855547156
50,26,14,Improv_Melody,72,1,38,44,2856024972
50,26,14,Improv_Melody,73,5,42,110,2856045808
50,26,14,Improv_Melody,74,1,38,41,2856537244
50,26,14,Improv_Melody,75,5,42,110,2856545508
50,26,14,Improv_Melody,76,2,45,80,2857048840
50,26,14,Improv_Melody,77,2,69,80,2857050992
50,26,14,Improv_Melody,78,5,42,127,2857053532
50,26,14,Improv_Melody,79,1,48,69,2857070560
50,26,14,Improv_Melody,80,5,42,110,2857546124
50,26,14,Improv_Melody,81,1,48,49,2857591952
50,26,14,Improv_Melody,82,5,42,110,2858045824
50,26,14,Improv_Melody,83,1,48,54,2858059116
50,26,14,Improv_Melody,84,5,42,110,2858545572
50,26,14,Improv_Melody,85,1,48,51,2858563004
50,26,14,Improv_Melody,86,1,48,53,2859023688
50,26,14,Improv_Melody,87,5,42,127,2859046236
50,26,14,Improv_Melody,88,1,48,51,2859504912
50,26,14,Improv_Melody,89,5,42,110,2859546088
50,26,14,Improv_Melody,90,1,48,46,2859972444
50,26,14,Improv_Melody,91,5,42,110,2860045640
50,26,14,Improv_Melody,92,1,48,50,2860518000
50,26,14,Improv_Melody,93,5,42,110,2860546460
50,26,14,Improv_Melody,94,2,41,80,2861048672
50,26,14,Improv_Melody,95,2,65,80,2861050904
50,26,14,Improv_Melody,96,5,42,127,2861053436
50,26,14,Improv_Melody,97,1,38,60,2861074280
50,26,14,Improv_Melody,98,5,42,110,2861545804
50,26,14,Improv_Melody,99,1,48,46,2861646484
50,26,14,Improv_Melody,100,5,42,110,2862045508
50,26,14,Improv_Melody,101,1,48,48,2862084900
50,26,14,Improv_Melody,102,5,42,110,2862546328
50,26,14,Improv_Melody,103,1,48,39,2862600384
50,26,14,Improv_Melody,104,5,42,127,2863046024
50,26,14,Improv_Melody,105,1,48,54,2863073228
50,26,14,Improv_Melody,106,5,42,110,2863545724
50,26,14,Improv_Melody,107,1,48,54,2863561860
50,26,14,Improv_Melody,108,1,48,55,2864019724
50,26,14,Improv_Melody,109,5,42,110,2864045416
50,26,14,Improv_Melody,110,1,48,59,2864537592
50,26,14,Improv_Melody,111,5,42,110,2864546088
50,26,14,Improv_Melody,112,2,48,80,2865048376
50,26,14,Improv_Melody,113,2,72,80,2865050680
50,26,14,Improv_Melody,114,5,42,127,2865053288
50,26,14,Improv_Melody,115,1,38,74,2865078996
50,26,14,Improv_Melody,116,5,42,110,2865545508
50,26,14,Improv_Melody,117,1,48,68,2865617440
50,26,14,Improv_Melody,118,1,38,17,2865627592
50,26,14,Improv_Melody,119,5,42,110,2866046220
50,26,14,Improv_Melody,120,1,38,76,2866101772
50,26,14,Improv_Melody,121,5,42,110,2866546144
50,26,14,Improv_Melody,122,1,48,70,2866599304
50,26,14,Improv_Melody,123,5,42,127,2867045620
50,26,14,Improv_Melody,124,1,38,65,2867055096
50,26,14,Improv_Melody,125,1,38,24,2867145208
50,26,14,Improv_Melody,126,5,42,110,2867545376
50,26,14,Improv_Melody,127,1,48,71,2867550588
50,26,14,Improv_Melody,128,1,38,17,2867561188
50,26,14,Improv_Melody,129,1,38,62,2868028372
50,26,14,Improv_Melody,130,5,42,110,2868046144
50,26,14,Improv_Melody,131,1,48,63,2868537100
50,26,14,Improv_Melody,132,5,42,110,2868546040
50,26,14,Improv_Melody,133,1,48,59,2869001548
50,26,14,Improv_Melody,134,2,43,80,2869048068
50,26,14,Improv_Melody,135,2,67,80,2869050564
50,26,14,Improv_Melody,136,5,42,127,2869052948
50,26,14,Improv_Melody,137,1,38,76,2869475916
50,26,14,Improv_Melody,138,5,42,110,2869546412
50,26,14,Improv_Melody,139,1,38,63,2870039192
50,26,14,Improv_Melody,140,5,42,110,2870045964
50,26,14,Improv_Melody,141,1,38,54,2870533808
50,26,14,Improv_Melody,142,5,42,110,2870545888
50,26,14,Improv_Melody,143,5,42,127,2871045444
50,26,14,Improv_Melody,144,1,48,54,2871063372
50,26,14,Improv_Melody,145,1,38,65,2871545592
50,26,14,Improv_Melody,146,5,42,110,2871548356
50,26,14,Improv_Melody,147,1,48,54,2872016976
50,26,14,Improv_Melody,148,5,42,110,2872045888
50,26,14,Improv_Melody,149,1,38,73,2872522584
50,26,14,Improv_Melody,150,5,42,110,2872545512
50,26,14,Improv_Melody,151,2,45,80,2873049152
50,26,14,Improv_Melody,152,2,69,80,2873051072
50,26,14,Improv_Melody,153,5,42,127,2873053760
50,26,14,Improv_Melody,154,1,48,74,2873089344
50,26,14,Improv_Melody,155,5,42,110,2873546052
50,26,14,Improv_Melody,156,1,48,67,2873649256
50,26,14,Improv_Melody,157,5,42,110,2874045828
50,26,14,Improv_Melody,158,1,48,63,2874108708
50,26,14,Improv_Melody,159,5,42,110,2874545456
50,26,14,Improv_Melody,160,1,48,54,2874589640
50,26,14,Improv_Melody,161,5,42,127,2875046280
50,26,14,Improv_Melody,162,1,48,64,2875078044
50,26,14,Improv_Melody,163,5,42,110,2875546276
50,26,14,Improv_Melody,164,1,48,62,2875561960
50,26,14,Improv_Melody,165,1,48,64,2876011000
50,26,14,Improv_Melody,166,5,42,110,2876045820
50,26,14,Improv_Melody,167,1,48,58,2876486240
50,26,14,Improv_Melody,168,5,42,110,2876546492
50,26,14,Improv_Melody,169,1,38,73,2876973948
50,26,14,Improv_Melody,170,2,41,80,2877049004
50,26,14,Improv_Melody,171,2,65,80,2877050848
50,26,14,Improv_Melody,172,5,42,127,2877053612
50,26,14,Improv_Melody,173,5,42,110,2877545764
50,26,14,Improv_Melody,174,1,48,55,2877660032
50,26,14,Improv_Melody,175,5,42,110,2878045612
50,26,14,Improv_Melody,176,1,48,64,2878111188
50,26,14,Improv_Melody,177,5,42,110,2878546360
50,26,14,Improv_Melody,178,1,48,60,2878595628
50,26,14,Improv_Melody,179,1,48,65,2879020632
50,26,14,Improv_Melody,180,5,42,127,2879046124
50,26,14,Improv_Melody,181,1,48,61,2879476948
50,26,14,Improv_Melody,182,5,42,110,2879545900
50,26,14,Improv_Melody,183,1,48,58,2880012924
50,26,14,Improv_Melody,184,5,42,110,2880045348
50,26,14,Improv_Melody,185,1,48,58,2880478592
50,26,14,Improv_Melody,186,5,42,110,2880546096
50,26,14,Improv_Melody,187,1,38,63,2881030796
50,26,14,Improv_Melody,188,2,48,80,2881048076
50,26,14,Improv_Melody,189,2,72,80,2881050524
50,26,14,Improv_Melody,190,5,42,127,2881053140
50,26,14,Improv_Melody,191,1,38,73,2881518620
50,26,14,Improv_Melody,192,5,42,110,2881545732
50,26,14,Improv_Melody,193,1,48,61,2882028792
50,26,14,Improv_Melody,194,5,42,110,2882046404
50,26,14,Improv_Melody,195,1,38,65,2882519592
50,26,14,Improv_Melody,196,5,42,110,2882545960
50,26,14,Improv_Melody,197,1,48,68,2883016072
50,26,14,Improv_Melody,198,5,42,127,2883045880
50,26,14,Improv_Melody,199,1,38,73,2883506944
50,26,14,Improv_Melody,200,5,42,110,2883545656
50,26,14,Improv_Melody,201,1,48,63,2883982860
50,26,14,Improv_Melody,202,5,42,110,2884046104
50,26,14,Improv_Melody,203,1,38,67,2884456456
50,26,14,Improv_Melody,204,5,42,110,2884545876
50,26,14,Improv_Melody,205,1,48,69,2884987792
50,26,14,Improv_Melody,206,2,43,80,2885048156
50,26,14,Improv_Melody,207,2,67,80,2885050460
50,26,14,Improv_Melody,208,5,42,127,2885052844
50,26,14,Improv_Melody,209,1,48,68,2885546340
50,26,14,Improv_Melody,210,5,42,110,2885547608
50,26,14,Improv_Melody,211,1,38,17,2885556488
50,26,14,Improv_Melody,212,1,38,69,2886024868
50,26,14,Improv_Melody,213,5,42,110,2886046000
50,26,14,Improv_Melody,214,1,48,46,2886515516
50,26,14,Improv_Melody,215,5,42,110,2886545848
50,26,14,Improv_Melody,216,1,38,70,2887012296
50,26,14,Improv_Melody,217,5,42,127,2887045696
50,26,14,Improv_Melody,218,1,48,57,2887485368
50,26,14,Improv_Melody,219,5,42,110,2887546368
50,26,14,Improv_Melody,220,1,38,62,2887954976
50,26,14,Improv_Melody,221,5,42,110,2888047176
50,26,14,Improv_Melody,222,1,48,57,2888476664
50,26,14,Improv_Melody,223,5,42,110,2888545768
50,26,14,Improv_Melody,224,1,38,84,2889003372
50,26,14,Improv_Melody,225,2,45,80,2889049020
50,26,14,Improv_Melody,226,2,69,80,2889051252
50,26,14,Improv_Melody,227,5,42,127,2889053712
50,26,14,Improv_Melody,228,5,42,110,2889546088
50,26,14,Improv_Melody,229,1,48,49,2889569924
50,26,14,Improv_Melody,230,5,42,110,2890045712
50,26,14,Improv_Melody,231,1,48,65,2890123028
50,26,14,Improv_Melody,232,1,38,54,2890533596
50,26,14,Improv_Melody,233,5,42,110,2890545676
50,26,14,Improv_Melody,234,1,48,55,2891029404
50,26,14,Improv_Melody,235,5,42,127,2891046424
50,26,14,Improv_Melody,236,5,42,110,2891545912
50,26,14,Improv_Melody,237,1,38,60,2891556432
50,26,14,Improv_Melody,238,1,48,66,2892002556
50,26,14,Improv_Melody,239,5,42,110,2892045752
50,26,14,Improv_Melody,240,1,38,56,2892470840
50,26,14,Improv_Melody,241,5,42,110,2892546500
50,26,14,Improv_Melody,242,1,48,62,2892936956
50,26,14,Improv_Melody,243,2,41,80,2893048920
50,26,14,Improv_Melody,244,2,65,80,2893051144
50,26,14,Improv_Melody,245,5,42,127,2893053752
50,26,14,Improv_Melody,246,1,48,64,2893528820
50,26,14,Improv_Melody,247,5,42,110,2893545764
50,26,14,Improv_Melody,248,5,42,110,2894045620
50,26,14,Improv_Melody,249,1,48,59,2894064444
50,26,14,Improv_Melody,250,5,42,110,2894546440
50,26,14,Improv_Melody,251,1,48,63,2894594592
50,26,14,Improv_Melody,252,1,38,16,2894604520
50,26,14,Improv_Melody,253,5,42,127,2895045944
50,26,14,Improv_Melody,254,1,48,67,2895055496
50,26,14,Improv_Melody,255,1,48,58,2895494660
50,26,14,Improv_Melody,256,5,42,110,2895545564
50,26,14,Improv_Melody,257,1,48,62,2895976708
50,26,14,Improv_Melody,258,5,42,110,2896045336
50,26,14,Improv_Melody,259,1,48,64,2896493988
50,26,14,Improv_Melody,260,5,42,110,2896546088
50,26,14,Improv_Melody,261,1,38,65,2896976260
50,26,14,Improv_Melody,262,2,48,80,2897048516
50,26,14,Improv_Melody,263,2,72,80,2897050820
50,26,14,Improv_Melody,264,5,42,127,2897053356
50,26,14,Improv_Melody,265,1,48,66,2897537680
50,26,14,Improv_Melody,266,5,42,110,2897545576
50,26,14,Improv_Melody,267,1,38,16,2897548472
50,26,14,Improv_Melody,268,5,42,110,2898046444
50,26,14,Improv_Melody,269,1,38,49,2898057644
50,26,14,Improv_Melody,270,1,48,59,2898540792
50,26,14,Improv_Melody,271,5,42,110,2898546212
50,26,14,Improv_Melody,272,1,38,65,2899023212
50,26,14,Improv_Melody,273,5,42,127,2899045688
50,26,14,Improv_Melody,274,1,48,57,2899531736
50,26,14,Improv_Melody,275,5,42,110,2899545540
50,26,14,Improv_Melody,276,1,38,60,2899997600
50,26,14,Improv_Melody,277,5,42,110,2900046284
50,26,14,Improv_Melody,278,1,48,61,2900519368
50,26,14,Improv_Melody,279,5,42,110,2900545836
50,26,14,Improv_Melody,280,2,43,80,2901048272
50,26,14,Improv_Melody,281,2,67,80,2901050344
50,26,14,Improv_Melody,282,5,42,127,2901052812
50,26,14,Improv_Melody,283,1,38,55,2901132452
50,26,14,Improv_Melody,284,1,48,69,2901151724
50,26,14,Improv_Melody,285,5,42,110,2901546304
50,26,14,Improv_Melody,286,1,38,37,2901666432
50,26,14,Improv_Melody,287,1,48,42,2901692072
50,26,14,Improv_Melody,288,5,42,110,2902046256
50,26,14,Improv_Melody,289,1,48,61,2902155912
50,26,14,Improv_Melody,290,5,42,110,2902545660
50,26,14,Improv_Melody,291,1,48,59,2902657112
50,26,14,Improv_Melody,292,5,42,127,2903045360
50,26,14,Improv_Melody,293,1,48,47,2903148136
50,26,14,Improv_Melody,294,5,42,110,2903546332
50,26,14,Improv_Melody,295,1,48,52,2903617620
50,26,14,Improv_Melody,296,5,42,110,2904045880
50,26,14,Improv_Melody,297,1,48,56,2904071812
50,26,14,Improv_Melody,298,5,42,110,2904545656
50,26,14,Improv_Melody,299,1,48,53,2904550796
50,26,14,Improv_Melody,300,2,45,80,2905048680
50,26,14,Improv_Melody,301,1,38,55,2905050700
50,26,14,Improv_Melody,302,2,69,80,2905053684
50,26,14,Improv_Melody,303,5,42,127,2905056068
50,26,14,Improv_Melody,304,1,48,75,2905082672
50,26,14,Improv_Melody,305,5,42,110,2905546388
50,26,14,Improv_Melody,306,1,48,61,2905609796
50,26,14,Improv_Melody,307,5,42,110,2906046088
50,26,14,Improv_Melody,308,1,48,54,2906069928
50,26,14,Improv_Melody,309,5,42,110,2906545492
50,26,14,Improv_Melody,310,1,48,59,2906564696
50,26,14,Improv_Melody,311,1,48,57,2907031532
50,26,14,Improv_Melody,312,5,42,127,2907046232
50,26,14,Improv_Melody,313,1,48,54,2907504980
50,26,14,Improv_Melody,314,5,42,110,2907546156
50,26,14,Improv_Melody,315,1,48,52,2907994360
50,26,14,Improv_Melody,316,5,42,110,2908045780
50,26,14,Improv_Melody,317,1,48,59,2908462620
50,26,14,Improv_Melody,318,5,42,110,2908546380
50,26,14,Improv_Melody,319,1,38,75,2908977124
50,26,14,Improv_Melody,320,1,48,18,2908987388
50,26,14,Improv_Melody,321,2,41,80,2909048500
50,26,14,Improv_Melody,322,2,65,80,2909050804
50,26,14,Improv_Melody,323,5,42,127,2909053344
50,26,14,Improv_Melody,324,1,48,60,2909476884
50,26,14,Improv_Melody,325,5,42,110,2909546056
50,26,14,Improv_Melody,326,1,38,67,2910003436
50,26,14,Improv_Melody,327,5,42,110,2910045532
50,26,14,Improv_Melody,328,1,38,73,2910521180
50,26,14,Improv_Melody,329,5,42,110,2910546280
50,26,14,Improv_Melody,330,1,38,54,2910981664
50,26,14,Improv_Melody,331,5,42,127,2911046200
50,26,14,Improv_Melody,332,1,38,65,2911501336
50,26,14,Improv_Melody,333,5,42,110,2911545976
50,26,14,Improv_Melody,334,1,38,62,2911946880
50,26,14,Improv_Melody,335,5,42,110,2912045412
50,26,14,Improv_Melody,336,1,38,66,2912493180
50,26,14,Improv_Melody,337,5,42,110,2912546100
50,26,14,Improv_Melody,338,1,48,85,2913024148
50,26,14,Improv_Melody,339,1,38,19,2913034220
50,26,14,Improv_Melody,340,2,48,80,2913048356
50,26,14,Improv_Melody,341,2,72,80,2913050812
50,26,14,Improv_Melody,342,5,42,127,2913053196
50,26,14,Improv_Melody,343,1,38,69,2913543028
50,26,14,Improv_Melody,344,5,42,110,2913545612
50,26,14,Improv_Melody,0,9999,9999,9999,2833043560
50,26,14,Improv_Melody,1,9999,9999,9999,2833543248
50,26,14,Improv_Melody,2,9999,9999,9999,2834044016
50,26,14,Improv_Melody,3,9999,9999,9999,2834543736
50,26,14,Improv_Melody,4,9999,9999,9999,2835043384
50,26,14,Improv_Melody,5,9999,9999,9999,2835543108
50,26,14,Improv_Melody,6,9999,9999,9999,2836043872
50,26,14,Improv_Melody,7,9999,9999,9999,2836543596
50,26,14,Improv_Melody,8,9999,9999,9999,2837043292
50,26,14,Improv_Melody,9,9999,9999,9999,2837544000
50,26,14,Improv_Melody,10,9999,9999,9999,2838043720
50,26,14,Improv_Melody,11,9999,9999,9999,2838543444
50,26,14,Improv_Melody,12,9999,9999,9999,2839043164
50,26,14,Improv_Melody,13,9999,9999,9999,2839543860
50,26,14,Improv_Melody,14,9999,9999,9999,2840043580
50,26,14,Improv_Melody,15,9999,9999,9999,2840543304
50,26,14,Improv_Melody,16,9999,9999,9999,2841044072
50,26,14,Improv_Melody,17,9999,9999,9999,2841543732
50,26,14,Improv_Melody,18,9999,9999,9999,2842043456
50,26,14,Improv_Melody,19,9999,9999,9999,2842543176
50,26,14,Improv_Melody,20,9999,9999,9999,2843043944
50,26,14,Improv_Melody,21,9999,9999,9999,2843543668
50,26,14,Improv_Melody,22,9999,9999,9999,2844043316
50,26,14,Improv_Melody,23,9999,9999,9999,2844544084
50,26,14,Improv_Melody,24,9999,9999,9999,2845043804
50,26,14,Improv_Melody,25,9999,9999,9999,2845543540
50,26,14,Improv_Melody,26,9999,9999,9999,2846043188
50,26,14,Improv_Melody,27,9999,9999,9999,2846543956
50,26,14,Improv_Melody,28,9999,9999,9999,2847043676
50,26,14,Improv_Melody,29,9999,9999,9999,2847543372
50,26,14,Improv_Melody,30,9999,9999,9999,2848043092
50,26,14,Improv_Melody,31,9999,9999,9999,2848543860
50,26,14,Improv_Melody,32,9999,9999,9999,2849043576
50,26,14,Improv_Melody,33,9999,9999,9999,2849543220
50,26,14,Improv_Melody,34,9999,9999,9999,2850043968
50,26,14,Improv_Melody,35,9999,9999,9999,2850543668
50,26,14,Improv_Melody,36,9999,9999,9999,2851043432
50,26,14,Improv_Melody,37,9999,9999,9999,2851543136
50,26,14,Improv_Melody,38,9999,9999,9999,2852043880
50,26,14,Improv_Melody,39,9999,9999,9999,2852543584
50,26,14,Improv_Melody,40,9999,9999,9999,2853043292
50,26,14,Improv_Melody,41,9999,9999,9999,2853544048
50,26,14,Improv_Melody,42,9999,9999,9999,2854043748
50,26,14,Improv_Melody,43,9999,9999,9999,2854543452
50,26,14,Improv_Melody,44,9999,9999,9999,2855043152
50,26,14,Improv_Melody,45,9999,9999,9999,2855543896
50,26,14,Improv_Melody,46,9999,9999,9999,2856043592
50,26,14,Improv_Melody,47,9999,9999,9999,2856543292
50,26,14,Improv_Melody,48,9999,9999,9999,2857044044
50,26,14,Improv_Melody,49,9999,9999,9999,2857543756
50,26,14,Improv_Melody,50,9999,9999,9999,2858043456
50,26,14,Improv_Melody,51,9999,9999,9999,2858543208
50,26,14,Improv_Melody,52,9999,9999,9999,2859043948
50,26,14,Improv_Melody,53,9999,9999,9999,2859543648
50,26,14,Improv_Melody,54,9999,9999,9999,2860043348
50,26,14,Improv_Melody,55,9999,9999,9999,2860544096
50,26,14,Improv_Melody,56,9999,9999,9999,2861043800
50,26,14,Improv_Melody,57,9999,9999,9999,2861543512
50,26,14,Improv_Melody,58,9999,9999,9999,2862043216
50,26,14,Improv_Melody,59,9999,9999,9999,2862543960
50,26,14,Improv_Melody,60,9999,9999,9999,2863043660
50,26,14,Improv_Melody,61,9999,9999,9999,2863543360
50,26,14,Improv_Melody,62,9999,9999,9999,2864043124
50,26,14,Improv_Melody,63,9999,9999,9999,2864543796
50,26,14,Improv_Melody,64,9999,9999,9999,2865043504
50,26,14,Improv_Melody,65,9999,9999,9999,2865543216
50,26,14,Improv_Melody,66,9999,9999,9999,2866044004
50,26,14,Improv_Melody,67,9999,9999,9999,2866543704
50,26,14,Improv_Melody,68,9999,9999,9999,2867043404
50,26,14,Improv_Melody,69,9999,9999,9999,2867543156
50,26,14,Improv_Melody,70,9999,9999,9999,2868043852
50,26,14,Improv_Melody,71,9999,9999,9999,2868543600
50,26,14,Improv_Melody,72,9999,9999,9999,2869043276
50,26,14,Improv_Melody,73,9999,9999,9999,2869544048
50,26,14,Improv_Melody,74,9999,9999,9999,2870043748
50,26,14,Improv_Melody,75,9999,9999,9999,2870543448
50,26,14,Improv_Melody,76,9999,9999,9999,2871043156
50,26,14,Improv_Melody,77,9999,9999,9999,2871543900
50,26,14,Improv_Melody,78,9999,9999,9999,2872043596
50,26,14,Improv_Melody,79,9999,9999,9999,2872543296
50,26,14,Improv_Melody,80,9999,9999,9999,2873044048
50,26,14,Improv_Melody,81,9999,9999,9999,2873543760
50,26,14,Improv_Melody,82,9999,9999,9999,2874043464
50,26,14,Improv_Melody,83,9999,9999,9999,2874543164
50,26,14,Improv_Melody,84,9999,9999,9999,2875043912
50,26,14,Improv_Melody,85,9999,9999,9999,2875543612
50,26,14,Improv_Melody,86,9999,9999,9999,2876043380
50,26,14,Improv_Melody,87,9999,9999,9999,2876544052
50,26,14,Improv_Melody,88,9999,9999,9999,2877043828
50,26,14,Improv_Melody,89,9999,9999,9999,2877543472
50,26,14,Improv_Melody,90,9999,9999,9999,2878043248
50,26,14,Improv_Melody,91,9999,9999,9999,2878543992
50,26,14,Improv_Melody,92,9999,9999,9999,2879043684
50,26,14,Improv_Melody,93,9999,9999,9999,2879543360
50,26,14,Improv_Melody,94,9999,9999,9999,2880043060
50,26,14,Improv_Melody,95,9999,9999,9999,2880543804
50,26,14,Improv_Melody,96,9999,9999,9999,2881043504
50,26,14,Improv_Melody,97,9999,9999,9999,2881543216
50,26,14,Improv_Melody,98,9999,9999,9999,2882043964
50,26,14,Improv_Melody,99,9999,9999,9999,2882543668
50,26,14,Improv_Melody,100,9999,9999,9999,2883043440
50,26,14,Improv_Melody,101,9999,9999,9999,2883543140
50,26,14,Improv_Melody,102,9999,9999,9999,2884043884
50,26,14,Improv_Melody,103,9999,9999,9999,2884543584
50,26,14,Improv_Melody,104,9999,9999,9999,2885043284
50,26,14,Improv_Melody,105,9999,9999,9999,2885544052
50,26,14,Improv_Melody,106,9999,9999,9999,2886043708
50,26,14,Improv_Melody,107,9999,9999,9999,2886543408
50,26,14,Improv_Melody,108,9999,9999,9999,2887043184
50,26,14,Improv_Melody,109,9999,9999,9999,2887543928
50,26,14,Improv_Melody,110,9999,9999,9999,2888043628
50,26,14,Improv_Melody,111,9999,9999,9999,2888543328
50,26,14,Improv_Melody,112,9999,9999,9999,2889044076
50,26,14,Improv_Melody,113,9999,9999,9999,2889543796
50,26,14,Improv_Melody,114,9999,9999,9999,2890043496
50,26,14,Improv_Melody,115,9999,9999,9999,2890543164
50,26,14,Improv_Melody,116,9999,9999,9999,2891043908
50,26,14,Improv_Melody,117,9999,9999,9999,2891543616
50,26,14,Improv_Melody,118,9999,9999,9999,2892043384
50,26,14,Improv_Melody,119,9999,9999,9999,2892544060
50,26,14,Improv_Melody,120,9999,9999,9999,2893043820
50,26,14,Improv_Melody,121,9999,9999,9999,2893543472
50,26,14,Improv_Melody,122,9999,9999,9999,2894043256
50,26,14,Improv_Melody,123,9999,9999,9999,2894543928
50,26,14,Improv_Melody,124,9999,9999,9999,2895043652
50,26,14,Improv_Melody,125,9999,9999,9999,2895543348
50,26,14,Improv_Melody,126,9999,9999,9999,2896043120
50,26,14,Improv_Melody,127,9999,9999,9999,2896543796
50,26,14,Improv_Melody,128,9999,9999,9999,2897043572
50,26,14,Improv_Melody,129,9999,9999,9999,2897543284
50,26,14,Improv_Melody,130,9999,9999,9999,2898044004
50,26,14,Improv_Melody,131,9999,9999,9999,2898543700
50,26,14,Improv_Melody,132,9999,9999,9999,2899043396
50,26,14,Improv_Melody,133,9999,9999,9999,2899543100
50,26,14,Improv_Melody,134,9999,9999,9999,2900043844
50,26,14,Improv_Melody,135,9999,9999,9999,2900543544
50,26,14,Improv_Melody,136,9999,9999,9999,2901043300
50,26,14,Improv_Melody,137,9999,9999,9999,2901544016
50,26,14,Improv_Melody,138,9999,9999,9999,2902043744
50,26,14,Improv_Melody,139,9999,9999,9999,2902543444
50,26,14,Improv_Melody,140,9999,9999,9999,2903043144
50,26,14,Improv_Melody,141,9999,9999,9999,2903543892
50,26,14,Improv_Melody,142,9999,9999,9999,2904043588
50,26,14,Improv_Melody,143,9999,9999,9999,2904543288
50,26,14,Improv_Melody,144,9999,9999,9999,2905044036
50,26,14,Improv_Melody,145,9999,9999,9999,2905543800
50,26,14,Improv_Melody,146,9999,9999,9999,2906043500
50,26,14,Improv_Melody,147,9999,9999,9999,2906543200
50,26,14,Improv_Melody,148,9999,9999,9999,2907043940
50,26,14,Improv_Melody,149,9999,9999,9999,2907543640
50,26,14,Improv_Melody,150,9999,9999,9999,2908043340
50,26,14,Improv_Melody,151,9999,9999,9999,2908544088
50,26,14,Improv_Melody,152,9999,9999,9999,2909043784
50,26,14,Improv_Melody,153,9999,9999,9999,2909543540
50,26,14,Improv_Melody,154,9999,9999,9999,2910043240
50,26,14,Improv_Melody,155,9999,9999,9999,2910543988
50,26,14,Improv_Melody,156,9999,9999,9999,2911043688
50,26,14,Improv_Melody,157,9999,9999,9999,2911543384
50,26,14,Improv_Melody,158,9999,9999,9999,2912043120
50,26,14,Improv_Melody,159,9999,9999,9999,2912543808
50,26,14,Improv_Melody,160,9999,9999,9999,2913043564
50,26,14,Improv_Melody,161,9999,9999,9999,2913543248
