pid,taskRunCount,taskID,taskName,i,channel,pitch,velocity,microseconds
59,1,1,Ticks_Pract_5,0,5,42,127,79392148
59,1,1,Ticks_Pract_5,1,5,42,127,79891860
59,1,1,Ticks_Pract_5,2,5,42,127,80391652
59,1,1,Ticks_Pract_5,3,5,42,127,80892192
59,1,1,Ticks_Pract_5,4,5,42,127,81391832
59,1,1,Ticks_Pract_5,5,1,48,70,81423676
59,1,1,Ticks_Pract_5,6,1,48,60,81889712
59,1,1,Ticks_Pract_5,7,5,42,127,81891596
59,1,1,Ticks_Pract_5,8,1,48,68,82373828
59,1,1,Ticks_Pract_5,9,5,42,127,82392632
59,1,1,Ticks_Pract_5,10,1,48,63,82886912
59,1,1,Ticks_Pract_5,11,5,42,127,82892104
59,1,1,Ticks_Pract_5,12,1,48,64,83372396
59,1,1,Ticks_Pract_5,13,5,42,127,83391800
59,1,1,Ticks_Pract_5,14,1,48,62,83873580
59,1,1,Ticks_Pract_5,15,5,42,127,83891792
59,1,1,Ticks_Pract_5,16,1,48,48,84367068
59,1,1,Ticks_Pract_5,17,5,42,127,84392160
59,1,1,Ticks_Pract_5,18,1,48,64,84882696
59,1,1,Ticks_Pract_5,19,5,42,127,84892076
59,1,1,Ticks_Pract_5,20,1,48,64,85340876
59,1,1,Ticks_Pract_5,21,5,42,127,85391848
59,1,1,Ticks_Pract_5,22,1,48,64,85863536
59,1,1,Ticks_Pract_5,23,5,42,127,85891616
59,1,1,Ticks_Pract_5,24,1,48,65,86369440
59,1,1,Ticks_Pract_5,25,5,42,127,86392132
59,1,1,Ticks_Pract_5,26,1,48,61,86872868
59,1,1,Ticks_Pract_5,27,5,42,127,86891828
59,1,1,Ticks_Pract_5,28,1,48,47,87383708
59,1,1,Ticks_Pract_5,29,5,42,127,87391748
59,1,1,Ticks_Pract_5,30,1,48,60,87874952
59,1,1,Ticks_Pract_5,31,5,42,127,87892488
59,1,1,Ticks_Pract_5,32,1,48,56,88366644
59,1,1,Ticks_Pract_5,33,5,42,127,88391960
59,1,1,Ticks_Pract_5,34,1,48,55,88862124
59,1,1,Ticks_Pract_5,35,5,42,127,88891652
59,1,1,Ticks_Pract_5,36,1,48,57,89362644
59,1,1,Ticks_Pract_5,37,5,42,127,89391796
59,1,1,Ticks_Pract_5,38,1,48,58,89864728
59,1,1,Ticks_Pract_5,39,5,42,127,89892140
59,1,1,Ticks_Pract_5,40,1,48,54,90346996
59,1,1,Ticks_Pract_5,41,5,42,127,90391832
59,1,1,Ticks_Pract_5,42,1,48,59,90875264
59,1,1,Ticks_Pract_5,43,5,42,127,90891752
59,1,1,Ticks_Pract_5,44,1,48,57,91355808
59,1,1,Ticks_Pract_5,45,5,42,127,91392568
59,1,1,Ticks_Pract_5,46,1,48,61,91878164
59,1,1,Ticks_Pract_5,47,5,42,127,91892036
59,1,1,Ticks_Pract_5,48,1,48,61,92363200
59,1,1,Ticks_Pract_5,49,5,42,127,92391808
59,1,1,Ticks_Pract_5,50,1,48,57,92866556
59,1,1,Ticks_Pract_5,51,5,42,127,92891872
59,1,1,Ticks_Pract_5,52,1,48,61,93376656
59,1,1,Ticks_Pract_5,53,5,42,127,93392096
59,1,1,Ticks_Pract_5,54,1,48,62,93885548
59,1,1,Ticks_Pract_5,55,5,42,127,93892088
59,1,1,Ticks_Pract_5,56,1,48,60,94364224
59,1,1,Ticks_Pract_5,57,5,42,127,94391636
59,1,1,Ticks_Pract_5,58,1,48,64,94866012
59,1,1,Ticks_Pract_5,59,5,42,127,94892524
59,1,1,Ticks_Pract_5,60,1,48,54,95351948
59,1,1,Ticks_Pract_5,61,5,42,127,95392144
59,1,1,Ticks_Pract_5,62,1,48,57,95864352
59,1,1,Ticks_Pract_5,63,5,42,127,95891840
59,1,1,Ticks_Pract_5,64,1,48,49,96348344
59,1,1,Ticks_Pract_5,65,5,42,127,96391608
59,1,1,Ticks_Pract_5,66,1,48,58,96879680
59,1,1,Ticks_Pract_5,67,5,42,127,96892348
59,1,1,Ticks_Pract_5,68,1,48,57,97372488
59,1,1,Ticks_Pract_5,69,5,42,127,97392044
59,1,1,Ticks_Pract_5,70,1,48,58,97861560
59,1,1,Ticks_Pract_5,71,5,42,127,97891740
59,1,1,Ticks_Pract_5,72,1,48,50,98366940
59,1,1,Ticks_Pract_5,73,5,42,127,98392404
59,1,1,Ticks_Pract_5,74,1,48,56,98871648
59,1,1,Ticks_Pract_5,75,5,42,127,98892100
59,1,1,Ticks_Pract_5,76,1,48,54,99374928
59,1,1,Ticks_Pract_5,0,9999,9999,9999,79389784
59,1,1,Ticks_Pract_5,1,9999,9999,9999,79889500
59,1,1,Ticks_Pract_5,2,9999,9999,9999,80389216
59,1,1,Ticks_Pract_5,3,9999,9999,9999,80889904
59,1,1,Ticks_Pract_5,4,9999,9999,9999,81389620
59,1,1,Ticks_Pract_5,5,9999,9999,9999,81889340
59,1,1,Ticks_Pract_5,6,9999,9999,9999,82390124
59,1,1,Ticks_Pract_5,7,9999,9999,9999,82889820
59,1,1,Ticks_Pract_5,8,9999,9999,9999,83389512
59,1,1,Ticks_Pract_5,9,9999,9999,9999,83889208
59,1,1,Ticks_Pract_5,10,9999,9999,9999,84389948
59,1,1,Ticks_Pract_5,11,9999,9999,9999,84889716
59,1,1,Ticks_Pract_5,12,9999,9999,9999,85389412
59,1,1,Ticks_Pract_5,13,9999,9999,9999,85889108
59,1,1,Ticks_Pract_5,14,9999,9999,9999,86389848
59,1,1,Ticks_Pract_5,15,9999,9999,9999,86889544
59,1,1,Ticks_Pract_5,16,9999,9999,9999,87389236
59,1,1,Ticks_Pract_5,17,9999,9999,9999,87889976
59,1,1,Ticks_Pract_5,18,9999,9999,9999,88389748
59,1,1,Ticks_Pract_5,19,9999,9999,9999,88889440
59,1,1,Ticks_Pract_5,20,9999,9999,9999,89389136
59,1,1,Ticks_Pract_5,21,9999,9999,9999,89889852
59,1,1,Ticks_Pract_5,22,9999,9999,9999,90389620
59,1,1,Ticks_Pract_5,23,9999,9999,9999,90889316
59,1,1,Ticks_Pract_5,24,9999,9999,9999,91390060
59,1,1,Ticks_Pract_5,25,9999,9999,9999,91889752
59,1,1,Ticks_Pract_5,26,9999,9999,9999,92389448
59,1,1,Ticks_Pract_5,27,9999,9999,9999,92889140
59,1,1,Ticks_Pract_5,28,9999,9999,9999,93389884
59,1,1,Ticks_Pract_5,29,9999,9999,9999,93889656
59,1,1,Ticks_Pract_5,30,9999,9999,9999,94389348
59,1,1,Ticks_Pract_5,31,9999,9999,9999,94890088
59,1,1,Ticks_Pract_5,32,9999,9999,9999,95389784
59,1,1,Ticks_Pract_5,33,9999,9999,9999,95889480
59,1,1,Ticks_Pract_5,34,9999,9999,9999,96389172
59,1,1,Ticks_Pract_5,35,9999,9999,9999,96889912
59,1,1,Ticks_Pract_5,36,9999,9999,9999,97389684
59,1,1,Ticks_Pract_5,37,9999,9999,9999,97889380
59,1,1,Ticks_Pract_5,38,9999,9999,9999,98390120
59,1,1,Ticks_Pract_5,39,9999,9999,9999,98889812
59,2,0,Ticks_Pract_8,0,5,42,127,114189640
59,2,0,Ticks_Pract_8,1,1,48,38,114710784
59,2,0,Ticks_Pract_8,2,5,42,127,114989396
59,2,0,Ticks_Pract_8,3,5,42,127,115790272
59,2,0,Ticks_Pract_8,4,1,48,51,115839988
59,2,0,Ticks_Pract_8,5,1,48,53,116587052
59,2,0,Ticks_Pract_8,6,5,42,127,116589924
59,2,0,Ticks_Pract_8,7,5,42,127,117389740
59,2,0,Ticks_Pract_8,8,1,48,18,117425396
59,2,0,Ticks_Pract_8,9,5,42,127,118189400
59,2,0,Ticks_Pract_8,10,1,48,56,118242632
59,2,0,Ticks_Pract_8,11,5,42,127,118990180
59,2,0,Ticks_Pract_8,12,1,48,56,119000404
59,2,0,Ticks_Pract_8,13,5,42,127,119790136
59,2,0,Ticks_Pract_8,14,1,48,63,119793180
59,2,0,Ticks_Pract_8,15,1,48,57,120583176
59,2,0,Ticks_Pract_8,16,5,42,127,120589712
59,2,0,Ticks_Pract_8,17,1,48,54,121371688
59,2,0,Ticks_Pract_8,18,5,42,127,121389400
59,2,0,Ticks_Pract_8,19,1,48,57,122182512
59,2,0,Ticks_Pract_8,20,5,42,127,122190180
59,2,0,Ticks_Pract_8,21,1,48,53,122936328
59,2,0,Ticks_Pract_8,22,5,42,127,122990136
59,2,0,Ticks_Pract_8,23,1,48,51,123748100
59,2,0,Ticks_Pract_8,24,5,42,127,123789576
59,2,0,Ticks_Pract_8,25,1,48,50,124553968
59,2,0,Ticks_Pract_8,26,5,42,127,124589384
59,2,0,Ticks_Pract_8,27,1,48,51,125359084
59,2,0,Ticks_Pract_8,28,5,42,127,125390088
59,2,0,Ticks_Pract_8,29,5,42,127,126189904
59,2,0,Ticks_Pract_8,30,1,48,53,126199304
59,2,0,Ticks_Pract_8,31,1,48,55,126955712
59,2,0,Ticks_Pract_8,32,5,42,127,126989556
59,2,0,Ticks_Pract_8,33,1,48,61,127738920
59,2,0,Ticks_Pract_8,34,5,42,127,127789388
59,2,0,Ticks_Pract_8,35,1,48,42,128543960
59,2,0,Ticks_Pract_8,36,5,42,127,128590168
59,2,0,Ticks_Pract_8,37,5,42,127,129390056
59,2,0,Ticks_Pract_8,38,1,48,37,129402080
59,2,0,Ticks_Pract_8,39,1,48,47,130138064
59,2,0,Ticks_Pract_8,40,5,42,127,130189560
59,2,0,Ticks_Pract_8,41,1,48,52,130918876
59,2,0,Ticks_Pract_8,42,5,42,127,130989368
59,2,0,Ticks_Pract_8,43,1,48,45,131770964
59,2,0,Ticks_Pract_8,44,5,42,127,131790072
59,2,0,Ticks_Pract_8,45,5,42,127,132590036
59,2,0,Ticks_Pract_8,46,1,48,53,132601680
59,2,0,Ticks_Pract_8,47,1,48,47,133382252
59,2,0,Ticks_Pract_8,48,5,42,127,133389616
59,2,0,Ticks_Pract_8,49,5,42,127,134189304
59,2,0,Ticks_Pract_8,50,1,48,52,134205588
59,2,0,Ticks_Pract_8,51,5,42,127,134990308
59,2,0,Ticks_Pract_8,52,1,48,48,135006220
59,2,0,Ticks_Pract_8,53,5,42,127,135789892
59,2,0,Ticks_Pract_8,54,1,48,51,135809988
59,2,0,Ticks_Pract_8,55,5,42,127,136589552
59,2,0,Ticks_Pract_8,56,1,48,47,136613088
59,2,0,Ticks_Pract_8,57,5,42,127,137389432
59,2,0,Ticks_Pract_8,58,1,48,48,137414916
59,2,0,Ticks_Pract_8,0,9999,9999,9999,114187352
59,2,0,Ticks_Pract_8,1,9999,9999,9999,114987108
59,2,0,Ticks_Pract_8,2,9999,9999,9999,115787836
59,2,0,Ticks_Pract_8,3,9999,9999,9999,116587636
59,2,0,Ticks_Pract_8,4,9999,9999,9999,117387376
59,2,0,Ticks_Pract_8,5,9999,9999,9999,118187112
59,2,0,Ticks_Pract_8,6,9999,9999,9999,118987892
59,2,0,Ticks_Pract_8,7,9999,9999,9999,119787624
59,2,0,Ticks_Pract_8,8,9999,9999,9999,120587352
59,2,0,Ticks_Pract_8,9,9999,9999,9999,121387108
59,2,0,Ticks_Pract_8,10,9999,9999,9999,122187892
59,2,0,Ticks_Pract_8,11,9999,9999,9999,122987628
59,2,0,Ticks_Pract_8,12,9999,9999,9999,123787360
59,2,0,Ticks_Pract_8,13,9999,9999,9999,124587096
59,2,0,Ticks_Pract_8,14,9999,9999,9999,125387876
59,2,0,Ticks_Pract_8,15,9999,9999,9999,126187616
59,2,0,Ticks_Pract_8,16,9999,9999,9999,126987340
59,2,0,Ticks_Pract_8,17,9999,9999,9999,127787100
59,2,0,Ticks_Pract_8,18,9999,9999,9999,128587880
59,2,0,Ticks_Pract_8,19,9999,9999,9999,129387620
59,2,0,Ticks_Pract_8,20,9999,9999,9999,130187348
59,2,0,Ticks_Pract_8,21,9999,9999,9999,130987080
59,2,0,Ticks_Pract_8,22,9999,9999,9999,131787860
59,2,0,Ticks_Pract_8,23,9999,9999,9999,132587600
59,2,0,Ticks_Pract_8,24,9999,9999,9999,133387324
59,2,0,Ticks_Pract_8,25,9999,9999,9999,134187092
59,2,0,Ticks_Pract_8,26,9999,9999,9999,134987872
59,2,0,Ticks_Pract_8,27,9999,9999,9999,135787604
59,2,0,Ticks_Pract_8,28,9999,9999,9999,136587336
59,2,0,Ticks_Pract_8,29,9999,9999,9999,137387068
59,3,4,T1_SMS_5,0,5,42,127,242662744
59,3,4,T1_SMS_5,1,5,42,127,243162464
59,3,4,T1_SMS_5,2,5,42,127,243663524
59,3,4,T1_SMS_5,3,5,42,127,244162796
59,3,4,T1_SMS_5,4,1,48,71,244645044
59,3,4,T1_SMS_5,5,5,42,127,244662728
59,3,4,T1_SMS_5,6,1,48,79,245148180
59,3,4,T1_SMS_5,7,5,42,127,245163544
59,3,4,T1_SMS_5,8,1,48,66,245638304
59,3,4,T1_SMS_5,9,5,42,127,245663164
59,3,4,T1_SMS_5,10,1,48,66,246142036
59,3,4,T1_SMS_5,11,5,42,127,246162860
59,3,4,T1_SMS_5,12,1,48,58,246638584
59,3,4,T1_SMS_5,13,5,42,127,246662556
59,3,4,T1_SMS_5,14,1,48,58,247159376
59,3,4,T1_SMS_5,15,5,42,127,247163596
59,3,4,T1_SMS_5,16,1,48,68,247648452
59,3,4,T1_SMS_5,17,5,42,127,247662844
59,3,4,T1_SMS_5,18,1,48,65,248157944
59,3,4,T1_SMS_5,19,5,42,127,248162764
59,3,4,T1_SMS_5,20,1,48,67,248657640
59,3,4,T1_SMS_5,21,5,42,127,248663580
59,3,4,T1_SMS_5,22,5,42,127,249162984
59,3,4,T1_SMS_5,23,1,48,67,249166028
59,3,4,T1_SMS_5,24,5,42,127,249662828
59,3,4,T1_SMS_5,25,1,48,67,249683600
59,3,4,T1_SMS_5,26,1,48,67,250143908
59,3,4,T1_SMS_5,27,5,42,127,250162440
59,3,4,T1_SMS_5,28,5,42,127,250663488
59,3,4,T1_SMS_5,29,1,48,58,250667060
59,3,4,T1_SMS_5,30,1,48,53,251157284
59,3,4,T1_SMS_5,31,5,42,127,251163004
59,3,4,T1_SMS_5,32,1,48,58,251658924
59,3,4,T1_SMS_5,33,5,42,127,251662700
59,3,4,T1_SMS_5,34,1,48,57,252156004
59,3,4,T1_SMS_5,35,5,42,127,252162544
59,3,4,T1_SMS_5,36,1,48,61,252647844
59,3,4,T1_SMS_5,37,5,42,127,252663580
59,3,4,T1_SMS_5,38,1,48,57,253143128
59,3,4,T1_SMS_5,39,5,42,127,253162828
59,3,4,T1_SMS_5,40,5,42,127,253662680
59,3,4,T1_SMS_5,41,1,48,59,253673728
59,3,4,T1_SMS_5,42,1,48,60,254163496
59,3,4,T1_SMS_5,43,5,42,127,254164684
59,3,4,T1_SMS_5,44,1,48,57,254642212
59,3,4,T1_SMS_5,45,5,42,127,254662888
59,3,4,T1_SMS_5,46,1,48,63,255152156
59,3,4,T1_SMS_5,47,5,42,127,255162656
59,3,4,T1_SMS_5,48,1,48,53,255645260
59,3,4,T1_SMS_5,49,5,42,127,255662424
59,3,4,T1_SMS_5,50,1,48,58,256145852
59,3,4,T1_SMS_5,51,5,42,127,256163316
59,3,4,T1_SMS_5,52,1,48,59,256646524
59,3,4,T1_SMS_5,53,5,42,127,256663012
59,3,4,T1_SMS_5,54,1,48,56,257133724
59,3,4,T1_SMS_5,55,5,42,127,257162480
59,3,4,T1_SMS_5,56,1,48,62,257655932
59,3,4,T1_SMS_5,57,5,42,127,257663224
59,3,4,T1_SMS_5,58,5,42,127,258163000
59,3,4,T1_SMS_5,59,1,48,48,258206432
59,3,4,T1_SMS_5,60,5,42,127,258662620
59,3,4,T1_SMS_5,61,1,48,58,258676808
59,3,4,T1_SMS_5,62,1,48,58,259129440
59,3,4,T1_SMS_5,63,5,42,127,259162384
59,3,4,T1_SMS_5,64,5,42,127,259663204
59,3,4,T1_SMS_5,65,1,48,57,259675152
59,3,4,T1_SMS_5,66,1,48,56,260159944
59,3,4,T1_SMS_5,67,5,42,127,260163044
59,3,4,T1_SMS_5,68,1,48,64,260625204
59,3,4,T1_SMS_5,69,5,42,127,260662516
59,3,4,T1_SMS_5,70,1,48,35,261099020
59,3,4,T1_SMS_5,71,5,42,127,261163256
59,3,4,T1_SMS_5,72,1,48,59,261662032
59,3,4,T1_SMS_5,73,5,42,127,261663672
59,3,4,T1_SMS_5,74,1,48,50,262148676
59,3,4,T1_SMS_5,75,5,42,127,262162844
59,3,4,T1_SMS_5,76,1,48,52,262642460
59,3,4,T1_SMS_5,77,5,42,127,262662616
59,3,4,T1_SMS_5,78,1,48,49,263145820
59,3,4,T1_SMS_5,79,5,42,127,263163208
59,3,4,T1_SMS_5,80,1,48,58,263633544
59,3,4,T1_SMS_5,81,5,42,127,263662900
59,3,4,T1_SMS_5,82,1,48,54,264135632
59,3,4,T1_SMS_5,83,5,42,127,264162524
59,3,4,T1_SMS_5,84,1,48,58,264641092
59,3,4,T1_SMS_5,85,5,42,127,264663340
59,3,4,T1_SMS_5,86,1,48,60,265156416
59,3,4,T1_SMS_5,87,5,42,127,265163260
59,3,4,T1_SMS_5,88,1,48,62,265647516
59,3,4,T1_SMS_5,89,5,42,127,265662804
59,3,4,T1_SMS_5,90,1,48,61,266156336
59,3,4,T1_SMS_5,91,5,42,127,266162424
59,3,4,T1_SMS_5,92,1,48,60,266651768
59,3,4,T1_SMS_5,93,5,42,127,266663244
59,3,4,T1_SMS_5,94,1,48,62,267140392
59,3,4,T1_SMS_5,95,5,42,127,267163160
59,3,4,T1_SMS_5,96,1,48,66,267654296
59,3,4,T1_SMS_5,97,5,42,127,267662632
59,3,4,T1_SMS_5,98,5,42,127,268162336
59,3,4,T1_SMS_5,99,1,48,66,268163300
59,3,4,T1_SMS_5,100,1,48,55,268628260
59,3,4,T1_SMS_5,101,5,42,127,268663220
59,3,4,T1_SMS_5,102,5,42,127,269162996
59,3,4,T1_SMS_5,103,1,48,47,269175612
59,3,4,T1_SMS_5,104,1,48,52,269637148
59,3,4,T1_SMS_5,105,5,42,127,269662536
59,3,4,T1_SMS_5,106,1,48,56,270125692
59,3,4,T1_SMS_5,107,5,42,127,270163424
59,3,4,T1_SMS_5,108,1,48,72,270632196
59,3,4,T1_SMS_5,109,5,42,127,270663120
59,3,4,T1_SMS_5,110,5,42,127,271162748
59,3,4,T1_SMS_5,111,1,48,53,271601216
59,3,4,T1_SMS_5,112,5,42,127,271662384
59,3,4,T1_SMS_5,113,1,48,61,272121404
59,3,4,T1_SMS_5,114,5,42,127,272163200
59,3,4,T1_SMS_5,115,1,48,65,272623340
59,3,4,T1_SMS_5,116,5,42,127,272662872
59,3,4,T1_SMS_5,117,1,48,58,273133132
59,3,4,T1_SMS_5,118,5,42,127,273162640
59,3,4,T1_SMS_5,119,1,48,57,273650932
59,3,4,T1_SMS_5,120,5,42,127,273663308
59,3,4,T1_SMS_5,121,1,48,60,274133868
59,3,4,T1_SMS_5,122,5,42,127,274163148
59,3,4,T1_SMS_5,123,1,48,54,274635508
59,3,4,T1_SMS_5,124,5,42,127,274662696
59,3,4,T1_SMS_5,125,1,48,58,275148972
59,3,4,T1_SMS_5,126,5,42,127,275162468
59,3,4,T1_SMS_5,127,1,48,57,275657640
59,3,4,T1_SMS_5,128,5,42,127,275663060
59,3,4,T1_SMS_5,129,1,48,56,276148884
59,3,4,T1_SMS_5,130,5,42,127,276163128
59,3,4,T1_SMS_5,131,1,48,60,276635188
59,3,4,T1_SMS_5,132,5,42,127,276662600
59,3,4,T1_SMS_5,133,1,48,57,277129648
59,3,4,T1_SMS_5,134,5,42,127,277163340
59,3,4,T1_SMS_5,135,1,48,50,277656488
59,3,4,T1_SMS_5,136,5,42,127,277663036
59,3,4,T1_SMS_5,137,1,48,48,278162356
59,3,4,T1_SMS_5,138,5,42,127,278163924
59,3,4,T1_SMS_5,139,1,48,56,278660612
59,3,4,T1_SMS_5,140,5,42,127,278662424
59,3,4,T1_SMS_5,141,1,48,55,279151164
59,3,4,T1_SMS_5,142,5,42,127,279163316
59,3,4,T1_SMS_5,143,1,48,54,279645624
59,3,4,T1_SMS_5,144,5,42,127,279663232
59,3,4,T1_SMS_5,145,1,48,55,280153916
59,3,4,T1_SMS_5,146,5,42,127,280162632
59,3,4,T1_SMS_5,147,1,48,58,280661488
59,3,4,T1_SMS_5,148,5,42,127,280663376
59,3,4,T1_SMS_5,149,5,42,127,281163148
59,3,4,T1_SMS_5,150,1,48,48,281164116
59,3,4,T1_SMS_5,151,5,42,127,281662996
59,3,4,T1_SMS_5,152,1,48,50,281691472
59,3,4,T1_SMS_5,153,5,42,127,282162464
59,3,4,T1_SMS_5,154,1,48,49,282168800
59,3,4,T1_SMS_5,155,1,48,62,282647740
59,3,4,T1_SMS_5,156,5,42,127,282663128
59,3,4,T1_SMS_5,157,1,48,53,283159624
59,3,4,T1_SMS_5,158,5,42,127,283163316
59,3,4,T1_SMS_5,159,1,48,56,283635904
59,3,4,T1_SMS_5,160,5,42,127,283662568
59,3,4,T1_SMS_5,161,1,48,47,284159908
59,3,4,T1_SMS_5,162,5,42,127,284162412
59,3,4,T1_SMS_5,163,1,48,63,284639336
59,3,4,T1_SMS_5,164,5,42,127,284663076
59,3,4,T1_SMS_5,165,1,48,48,285125560
59,3,4,T1_SMS_5,166,5,42,127,285163144
59,3,4,T1_SMS_5,167,1,48,57,285662548
59,3,4,T1_SMS_5,168,5,42,127,285664036
59,3,4,T1_SMS_5,169,1,48,52,286150384
59,3,4,T1_SMS_5,170,5,42,127,286163356
59,3,4,T1_SMS_5,171,1,48,59,286648284
59,3,4,T1_SMS_5,172,5,42,127,286663128
59,3,4,T1_SMS_5,173,1,48,57,287142220
59,3,4,T1_SMS_5,174,5,42,127,287162676
59,3,4,T1_SMS_5,175,1,48,55,287651412
59,3,4,T1_SMS_5,176,5,42,127,287662444
59,3,4,T1_SMS_5,177,1,48,54,288141760
59,3,4,T1_SMS_5,178,5,42,127,288163112
59,3,4,T1_SMS_5,179,1,48,48,288652148
59,3,4,T1_SMS_5,180,5,42,127,288663104
59,3,4,T1_SMS_5,181,1,48,61,289137260
59,3,4,T1_SMS_5,182,5,42,127,289162948
59,3,4,T1_SMS_5,183,1,48,59,289640700
59,3,4,T1_SMS_5,184,5,42,127,289663468
59,3,4,T1_SMS_5,185,1,48,54,290148400
59,3,4,T1_SMS_5,186,5,42,127,290163016
59,3,4,T1_SMS_5,187,5,42,127,290662940
59,3,4,T1_SMS_5,188,1,48,57,290663904
59,3,4,T1_SMS_5,189,5,42,127,291162484
59,3,4,T1_SMS_5,190,1,48,55,291168748
59,3,4,T1_SMS_5,191,1,48,60,291625560
59,3,4,T1_SMS_5,192,5,42,127,291663368
59,3,4,T1_SMS_5,193,1,48,56,292150168
59,3,4,T1_SMS_5,194,5,42,127,292163068
59,3,4,T1_SMS_5,195,1,48,62,292654128
59,3,4,T1_SMS_5,196,5,42,127,292662912
59,3,4,T1_SMS_5,197,1,48,55,293157560
59,3,4,T1_SMS_5,198,5,42,127,293163356
59,3,4,T1_SMS_5,199,1,48,56,293651548
59,3,4,T1_SMS_5,200,5,42,127,293663100
59,3,4,T1_SMS_5,201,1,48,59,294141968
59,3,4,T1_SMS_5,202,5,42,127,294163092
59,3,4,T1_SMS_5,203,1,48,63,294650116
59,3,4,T1_SMS_5,204,5,42,127,294662416
59,3,4,T1_SMS_5,205,1,48,56,295121312
59,3,4,T1_SMS_5,206,5,42,127,295163232
59,3,4,T1_SMS_5,207,1,48,59,295637092
59,3,4,T1_SMS_5,208,5,42,127,295662928
59,3,4,T1_SMS_5,209,1,48,56,296145608
59,3,4,T1_SMS_5,210,5,42,127,296162624
59,3,4,T1_SMS_5,211,1,48,56,296648148
59,3,4,T1_SMS_5,212,5,42,127,296663440
59,3,4,T1_SMS_5,213,5,42,127,297163216
59,3,4,T1_SMS_5,214,1,48,51,297167460
59,3,4,T1_SMS_5,215,1,48,55,297657784
59,3,4,T1_SMS_5,216,5,42,127,297662828
59,3,4,T1_SMS_5,217,5,42,127,298162752
59,3,4,T1_SMS_5,218,1,48,52,298183900
59,3,4,T1_SMS_5,219,5,42,127,298663420
59,3,4,T1_SMS_5,220,1,48,57,298670356
59,3,4,T1_SMS_5,221,1,48,48,299125904
59,3,4,T1_SMS_5,222,5,42,127,299162960
59,3,4,T1_SMS_5,223,5,42,127,299662812
59,3,4,T1_SMS_5,224,1,48,56,299665180
59,3,4,T1_SMS_5,225,5,42,127,300162356
59,3,4,T1_SMS_5,226,1,48,47,300179764
59,3,4,T1_SMS_5,227,1,48,52,300660292
59,3,4,T1_SMS_5,228,5,42,127,300663092
59,3,4,T1_SMS_5,229,1,48,51,301155352
59,3,4,T1_SMS_5,230,5,42,127,301163012
59,3,4,T1_SMS_5,231,5,42,127,301662788
59,3,4,T1_SMS_5,232,1,48,44,301663756
59,3,4,T1_SMS_5,233,5,42,127,302163232
59,3,4,T1_SMS_5,234,1,48,49,302194548
59,3,4,T1_SMS_5,235,5,42,127,302662928
59,3,4,T1_SMS_5,236,1,48,47,302663892
59,3,4,T1_SMS_5,237,1,48,51,303156824
59,3,4,T1_SMS_5,238,5,42,127,303162840
59,3,4,T1_SMS_5,239,1,48,46,303655912
59,3,4,T1_SMS_5,240,5,42,127,303662460
59,3,4,T1_SMS_5,241,1,48,53,304124100
59,3,4,T1_SMS_5,242,5,42,127,304163052
59,3,4,T1_SMS_5,243,1,48,53,304626556
59,3,4,T1_SMS_5,244,5,42,127,304662872
59,3,4,T1_SMS_5,245,1,48,47,305118700
59,3,4,T1_SMS_5,246,5,42,127,305162712
59,3,4,T1_SMS_5,247,1,48,53,305630440
59,3,4,T1_SMS_5,248,5,42,127,305663308
59,3,4,T1_SMS_5,249,1,48,58,306130356
59,3,4,T1_SMS_5,250,5,42,127,306162928
59,3,4,T1_SMS_5,251,1,48,65,306635884
59,3,4,T1_SMS_5,252,5,42,127,306662848
59,3,4,T1_SMS_5,253,1,48,62,307146276
59,3,4,T1_SMS_5,254,5,42,127,307162616
59,3,4,T1_SMS_5,255,1,48,60,307653976
59,3,4,T1_SMS_5,0,9999,9999,9999,242660460
59,3,4,T1_SMS_5,1,9999,9999,9999,243160176
59,3,4,T1_SMS_5,2,9999,9999,9999,243660864
59,3,4,T1_SMS_5,3,9999,9999,9999,244160584
59,3,4,T1_SMS_5,4,9999,9999,9999,244660292
59,3,4,T1_SMS_5,5,9999,9999,9999,245161032
59,3,4,T1_SMS_5,6,9999,9999,9999,245660732
59,3,4,T1_SMS_5,7,9999,9999,9999,246160500
59,3,4,T1_SMS_5,8,9999,9999,9999,246660196
59,3,4,T1_SMS_5,9,9999,9999,9999,247160940
59,3,4,T1_SMS_5,10,9999,9999,9999,247660632
59,3,4,T1_SMS_5,11,9999,9999,9999,248160328
59,3,4,T1_SMS_5,12,9999,9999,9999,248661072
59,3,4,T1_SMS_5,13,9999,9999,9999,249160772
59,3,4,T1_SMS_5,14,9999,9999,9999,249660468
59,3,4,T1_SMS_5,15,9999,9999,9999,250160228
59,3,4,T1_SMS_5,16,9999,9999,9999,250660976
59,3,4,T1_SMS_5,17,9999,9999,9999,251160644
59,3,4,T1_SMS_5,18,9999,9999,9999,251660336
59,3,4,T1_SMS_5,19,9999,9999,9999,252160108
59,3,4,T1_SMS_5,20,9999,9999,9999,252660848
59,3,4,T1_SMS_5,21,9999,9999,9999,253160544
59,3,4,T1_SMS_5,22,9999,9999,9999,253660244
59,3,4,T1_SMS_5,23,9999,9999,9999,254160984
59,3,4,T1_SMS_5,24,9999,9999,9999,254660676
59,3,4,T1_SMS_5,25,9999,9999,9999,255160372
59,3,4,T1_SMS_5,26,9999,9999,9999,255660140
59,3,4,T1_SMS_5,27,9999,9999,9999,256160880
59,3,4,T1_SMS_5,28,9999,9999,9999,256660576
59,3,4,T1_SMS_5,29,9999,9999,9999,257160268
59,3,4,T1_SMS_5,30,9999,9999,9999,257661012
59,3,4,T1_SMS_5,31,9999,9999,9999,258160712
59,3,4,T1_SMS_5,32,9999,9999,9999,258660408
59,3,4,T1_SMS_5,33,9999,9999,9999,259160172
59,3,4,T1_SMS_5,34,9999,9999,9999,259660920
59,3,4,T1_SMS_5,35,9999,9999,9999,260160608
59,3,4,T1_SMS_5,36,9999,9999,9999,260660304
59,3,4,T1_SMS_5,37,9999,9999,9999,261161044
59,3,4,T1_SMS_5,38,9999,9999,9999,261660720
59,3,4,T1_SMS_5,39,9999,9999,9999,262160484
59,3,4,T1_SMS_5,40,9999,9999,9999,262660180
59,3,4,T1_SMS_5,41,9999,9999,9999,263160920
59,3,4,T1_SMS_5,42,9999,9999,9999,263660616
59,3,4,T1_SMS_5,43,9999,9999,9999,264160312
59,3,4,T1_SMS_5,44,9999,9999,9999,264661056
59,3,4,T1_SMS_5,45,9999,9999,9999,265160824
59,3,4,T1_SMS_5,46,9999,9999,9999,265660520
59,3,4,T1_SMS_5,47,9999,9999,9999,266160212
59,3,4,T1_SMS_5,48,9999,9999,9999,266660956
59,3,4,T1_SMS_5,49,9999,9999,9999,267160652
59,3,4,T1_SMS_5,50,9999,9999,9999,267660348
59,3,4,T1_SMS_5,51,9999,9999,9999,268160048
59,3,4,T1_SMS_5,52,9999,9999,9999,268660784
59,3,4,T1_SMS_5,53,9999,9999,9999,269160560
59,3,4,T1_SMS_5,54,9999,9999,9999,269660252
59,3,4,T1_SMS_5,55,9999,9999,9999,270160992
59,3,4,T1_SMS_5,56,9999,9999,9999,270660684
59,3,4,T1_SMS_5,57,9999,9999,9999,271160388
59,3,4,T1_SMS_5,58,9999,9999,9999,271660096
59,3,4,T1_SMS_5,59,9999,9999,9999,272160888
59,3,4,T1_SMS_5,60,9999,9999,9999,272660584
59,3,4,T1_SMS_5,61,9999,9999,9999,273160280
59,3,4,T1_SMS_5,62,9999,9999,9999,273661020
59,3,4,T1_SMS_5,63,9999,9999,9999,274160716
59,3,4,T1_SMS_5,64,9999,9999,9999,274660412
59,3,4,T1_SMS_5,65,9999,9999,9999,275160180
59,3,4,T1_SMS_5,66,9999,9999,9999,275660848
59,3,4,T1_SMS_5,67,9999,9999,9999,276160616
59,3,4,T1_SMS_5,68,9999,9999,9999,276660312
59,3,4,T1_SMS_5,69,9999,9999,9999,277161052
59,3,4,T1_SMS_5,70,9999,9999,9999,277660748
59,3,4,T1_SMS_5,71,9999,9999,9999,278160448
59,3,4,T1_SMS_5,72,9999,9999,9999,278660164
59,3,4,T1_SMS_5,73,9999,9999,9999,279160880
59,3,4,T1_SMS_5,74,9999,9999,9999,279660648
59,3,4,T1_SMS_5,75,9999,9999,9999,280160344
59,3,4,T1_SMS_5,76,9999,9999,9999,280661120
59,3,4,T1_SMS_5,77,9999,9999,9999,281160788
59,3,4,T1_SMS_5,78,9999,9999,9999,281660484
59,3,4,T1_SMS_5,79,9999,9999,9999,282160180
59,3,4,T1_SMS_5,80,9999,9999,9999,282660916
59,3,4,T1_SMS_5,81,9999,9999,9999,283160660
59,3,4,T1_SMS_5,82,9999,9999,9999,283660356
59,3,4,T1_SMS_5,83,9999,9999,9999,284160048
59,3,4,T1_SMS_5,84,9999,9999,9999,284660792
59,3,4,T1_SMS_5,85,9999,9999,9999,285160560
59,3,4,T1_SMS_5,86,9999,9999,9999,285660260
59,3,4,T1_SMS_5,87,9999,9999,9999,286160996
59,3,4,T1_SMS_5,88,9999,9999,9999,286660692
59,3,4,T1_SMS_5,89,9999,9999,9999,287160388
59,3,4,T1_SMS_5,90,9999,9999,9999,287660084
59,3,4,T1_SMS_5,91,9999,9999,9999,288160824
59,3,4,T1_SMS_5,92,9999,9999,9999,288660596
59,3,4,T1_SMS_5,93,9999,9999,9999,289160288
59,3,4,T1_SMS_5,94,9999,9999,9999,289661032
59,3,4,T1_SMS_5,95,9999,9999,9999,290160728
59,3,4,T1_SMS_5,96,9999,9999,9999,290660428
59,3,4,T1_SMS_5,97,9999,9999,9999,291160124
59,3,4,T1_SMS_5,98,9999,9999,9999,291660860
59,3,4,T1_SMS_5,99,9999,9999,9999,292160632
59,3,4,T1_SMS_5,100,9999,9999,9999,292660328
59,3,4,T1_SMS_5,101,9999,9999,9999,293161068
59,3,4,T1_SMS_5,102,9999,9999,9999,293660740
59,3,4,T1_SMS_5,103,9999,9999,9999,294160432
59,3,4,T1_SMS_5,104,9999,9999,9999,294660204
59,3,4,T1_SMS_5,105,9999,9999,9999,295160944
59,3,4,T1_SMS_5,106,9999,9999,9999,295660640
59,3,4,T1_SMS_5,107,9999,9999,9999,296160336
59,3,4,T1_SMS_5,108,9999,9999,9999,296661080
59,3,4,T1_SMS_5,109,9999,9999,9999,297160780
59,3,4,T1_SMS_5,110,9999,9999,9999,297660468
59,3,4,T1_SMS_5,111,9999,9999,9999,298160244
59,3,4,T1_SMS_5,112,9999,9999,9999,298660984
59,3,4,T1_SMS_5,113,9999,9999,9999,299160676
59,3,4,T1_SMS_5,114,9999,9999,9999,299660376
59,3,4,T1_SMS_5,115,9999,9999,9999,300160072
59,3,4,T1_SMS_5,116,9999,9999,9999,300660808
59,3,4,T1_SMS_5,117,9999,9999,9999,301160500
59,3,4,T1_SMS_5,118,9999,9999,9999,301660280
59,3,4,T1_SMS_5,119,9999,9999,9999,302160944
59,3,4,T1_SMS_5,120,9999,9999,9999,302660716
59,3,4,T1_SMS_5,121,9999,9999,9999,303160404
59,3,4,T1_SMS_5,122,9999,9999,9999,303660100
59,3,4,T1_SMS_5,123,9999,9999,9999,304160840
59,3,4,T1_SMS_5,124,9999,9999,9999,304660584
59,3,4,T1_SMS_5,125,9999,9999,9999,305160280
59,3,4,T1_SMS_5,126,9999,9999,9999,305661020
59,3,4,T1_SMS_5,127,9999,9999,9999,306160716
59,3,4,T1_SMS_5,128,9999,9999,9999,306660412
59,3,4,T1_SMS_5,129,9999,9999,9999,307160180
59,4,2,T1_SMS_8,0,5,42,127,360913220
59,4,2,T1_SMS_8,1,5,42,127,361712972
59,4,2,T1_SMS_8,2,5,42,127,362512804
59,4,2,T1_SMS_8,3,5,42,127,363312360
59,4,2,T1_SMS_8,4,1,48,67,364113456
59,4,2,T1_SMS_8,5,5,42,127,364114868
59,4,2,T1_SMS_8,6,1,48,71,364897896
59,4,2,T1_SMS_8,7,5,42,127,364912888
59,4,2,T1_SMS_8,8,1,48,68,365702192
59,4,2,T1_SMS_8,9,5,42,127,365712844
59,4,2,T1_SMS_8,10,1,48,63,366501324
59,4,2,T1_SMS_8,11,5,42,127,366512428
59,4,2,T1_SMS_8,12,1,48,61,367282132
59,4,2,T1_SMS_8,13,5,42,127,367313360
59,4,2,T1_SMS_8,14,1,48,61,368069004
59,4,2,T1_SMS_8,15,5,42,127,368112944
59,4,2,T1_SMS_8,16,1,48,68,368877716
59,4,2,T1_SMS_8,17,5,42,127,368912824
59,4,2,T1_SMS_8,18,1,48,57,369694672
59,4,2,T1_SMS_8,19,5,42,127,369712660
59,4,2,T1_SMS_8,20,1,48,60,370482516
59,4,2,T1_SMS_8,21,5,42,127,370513216
59,4,2,T1_SMS_8,22,1,48,51,371294292
59,4,2,T1_SMS_8,23,5,42,127,371312948
59,4,2,T1_SMS_8,24,1,48,48,372077796
59,4,2,T1_SMS_8,25,5,42,127,372112684
59,4,2,T1_SMS_8,26,1,48,58,372884484
59,4,2,T1_SMS_8,27,5,42,127,372912564
59,4,2,T1_SMS_8,28,1,48,62,373711084
59,4,2,T1_SMS_8,29,5,42,127,373713348
59,4,2,T1_SMS_8,30,1,48,53,374492480
59,4,2,T1_SMS_8,31,5,42,127,374512932
59,4,2,T1_SMS_8,32,1,48,60,375311768
59,4,2,T1_SMS_8,33,5,42,127,375313332
59,4,2,T1_SMS_8,34,5,42,127,376112428
59,4,2,T1_SMS_8,35,1,48,51,376132900
59,4,2,T1_SMS_8,36,1,48,54,376875544
59,4,2,T1_SMS_8,37,5,42,127,376913352
59,4,2,T1_SMS_8,38,1,48,47,377669148
59,4,2,T1_SMS_8,39,5,42,127,377713088
59,4,2,T1_SMS_8,40,1,48,55,378458712
59,4,2,T1_SMS_8,41,5,42,127,378512820
59,4,2,T1_SMS_8,42,1,48,51,379304664
59,4,2,T1_SMS_8,43,5,42,127,379312556
59,4,2,T1_SMS_8,44,1,48,58,380058704
59,4,2,T1_SMS_8,45,5,42,127,380113184
59,4,2,T1_SMS_8,46,1,48,54,380834720
59,4,2,T1_SMS_8,47,5,42,127,380912992
59,4,2,T1_SMS_8,48,5,42,127,381712736
59,4,2,T1_SMS_8,49,1,48,55,381733752
59,4,2,T1_SMS_8,50,5,42,127,382512864
59,4,2,T1_SMS_8,51,1,48,44,382515612
59,4,2,T1_SMS_8,52,1,48,55,383302692
59,4,2,T1_SMS_8,53,5,42,127,383313344
59,4,2,T1_SMS_8,54,1,48,54,384082300
59,4,2,T1_SMS_8,55,5,42,127,384113000
59,4,2,T1_SMS_8,56,1,48,54,384856680
59,4,2,T1_SMS_8,57,5,42,127,384912736
59,4,2,T1_SMS_8,58,1,48,62,385662468
59,4,2,T1_SMS_8,59,5,42,127,385712916
59,4,2,T1_SMS_8,60,1,48,62,386428620
59,4,2,T1_SMS_8,61,5,42,127,386513396
59,4,2,T1_SMS_8,62,1,48,57,387230752
59,4,2,T1_SMS_8,63,5,42,127,387312908
59,4,2,T1_SMS_8,64,1,48,47,388077304
59,4,2,T1_SMS_8,65,5,42,127,388112716
59,4,2,T1_SMS_8,66,1,48,56,388888784
59,4,2,T1_SMS_8,67,5,42,127,388912696
59,4,2,T1_SMS_8,68,1,48,53,389671184
59,4,2,T1_SMS_8,69,5,42,127,389713252
59,4,2,T1_SMS_8,70,1,48,55,390509512
59,4,2,T1_SMS_8,71,5,42,127,390512988
59,4,2,T1_SMS_8,72,1,48,57,391307080
59,4,2,T1_SMS_8,73,5,42,127,391312648
59,4,2,T1_SMS_8,74,1,48,56,392112760
59,4,2,T1_SMS_8,75,5,42,127,392114096
59,4,2,T1_SMS_8,76,1,48,57,392885972
59,4,2,T1_SMS_8,77,5,42,127,392913236
59,4,2,T1_SMS_8,78,1,48,57,393675912
59,4,2,T1_SMS_8,79,5,42,127,393713192
59,4,2,T1_SMS_8,80,1,48,57,394512256
59,4,2,T1_SMS_8,81,5,42,127,394513748
59,4,2,T1_SMS_8,82,5,42,127,395312616
59,4,2,T1_SMS_8,83,1,48,61,395357700
59,4,2,T1_SMS_8,84,5,42,127,396113396
59,4,2,T1_SMS_8,85,1,48,62,396127368
59,4,2,T1_SMS_8,86,5,42,127,396912980
59,4,2,T1_SMS_8,87,1,48,56,396924848
59,4,2,T1_SMS_8,88,5,42,127,397712716
59,4,2,T1_SMS_8,89,1,48,57,397742388
59,4,2,T1_SMS_8,90,5,42,127,398512372
59,4,2,T1_SMS_8,91,1,48,59,398563284
59,4,2,T1_SMS_8,92,5,42,127,399313448
59,4,2,T1_SMS_8,93,1,48,59,399326668
59,4,2,T1_SMS_8,94,5,42,127,400113032
59,4,2,T1_SMS_8,95,1,48,66,400127968
59,4,2,T1_SMS_8,96,1,48,43,400164844
59,4,2,T1_SMS_8,97,5,42,127,400912672
59,4,2,T1_SMS_8,98,1,48,58,400923792
59,4,2,T1_SMS_8,99,1,48,51,401679228
59,4,2,T1_SMS_8,100,5,42,127,401712420
59,4,2,T1_SMS_8,101,1,48,55,402450616
59,4,2,T1_SMS_8,102,5,42,127,402513500
59,4,2,T1_SMS_8,103,1,48,54,403291216
59,4,2,T1_SMS_8,104,5,42,127,403312936
59,4,2,T1_SMS_8,105,1,48,57,404092588
59,4,2,T1_SMS_8,106,5,42,127,404112744
59,4,2,T1_SMS_8,107,5,42,127,404912560
59,4,2,T1_SMS_8,108,1,48,44,404928020
59,4,2,T1_SMS_8,109,1,48,55,405712740
59,4,2,T1_SMS_8,110,5,42,127,405714380
59,4,2,T1_SMS_8,111,1,48,54,406492984
59,4,2,T1_SMS_8,112,5,42,127,406513064
59,4,2,T1_SMS_8,113,1,48,52,407310536
59,4,2,T1_SMS_8,114,5,42,127,407312652
59,4,2,T1_SMS_8,115,5,42,127,408112564
59,4,2,T1_SMS_8,116,1,48,56,408117332
59,4,2,T1_SMS_8,117,1,48,57,408912744
59,4,2,T1_SMS_8,118,5,42,127,408914384
59,4,2,T1_SMS_8,119,1,48,50,409700696
59,4,2,T1_SMS_8,120,5,42,127,409713368
59,4,2,T1_SMS_8,121,1,48,51,410497516
59,4,2,T1_SMS_8,122,5,42,127,410512728
59,4,2,T1_SMS_8,123,5,42,127,411312472
59,4,2,T1_SMS_8,124,1,48,47,411315440
59,4,2,T1_SMS_8,125,1,48,59,412090172
59,4,2,T1_SMS_8,126,5,42,127,412113244
59,4,2,T1_SMS_8,127,1,48,49,412877044
59,4,2,T1_SMS_8,128,5,42,127,412913276
59,4,2,T1_SMS_8,129,1,48,52,413686348
59,4,2,T1_SMS_8,130,5,42,127,413712788
59,4,2,T1_SMS_8,131,1,48,48,414434620
59,4,2,T1_SMS_8,132,5,42,127,414512468
59,4,2,T1_SMS_8,133,1,48,45,415248424
59,4,2,T1_SMS_8,134,5,42,127,415313252
59,4,2,T1_SMS_8,135,1,48,51,416092232
59,4,2,T1_SMS_8,136,5,42,127,416113132
59,4,2,T1_SMS_8,137,1,48,46,416892416
59,4,2,T1_SMS_8,138,5,42,127,416912796
59,4,2,T1_SMS_8,139,1,48,44,417690580
59,4,2,T1_SMS_8,140,5,42,127,417712456
59,4,2,T1_SMS_8,141,1,48,48,418501984
59,4,2,T1_SMS_8,142,5,42,127,418513308
59,4,2,T1_SMS_8,143,1,48,49,419312000
59,4,2,T1_SMS_8,144,5,42,127,419313416
59,4,2,T1_SMS_8,145,5,42,127,420113080
59,4,2,T1_SMS_8,146,1,48,49,420115448
59,4,2,T1_SMS_8,147,5,42,127,420912468
59,4,2,T1_SMS_8,148,1,48,53,420933312
59,4,2,T1_SMS_8,149,5,42,127,421713248
59,4,2,T1_SMS_8,150,1,48,51,421760648
59,4,2,T1_SMS_8,151,1,48,49,422483468
59,4,2,T1_SMS_8,152,5,42,127,422512972
59,4,2,T1_SMS_8,153,1,48,48,423284324
59,4,2,T1_SMS_8,154,5,42,127,423312636
59,4,2,T1_SMS_8,155,5,42,127,424112448
59,4,2,T1_SMS_8,156,1,48,50,424121476
59,4,2,T1_SMS_8,157,5,42,127,424913228
59,4,2,T1_SMS_8,158,1,48,52,424936992
59,4,2,T1_SMS_8,159,1,48,45,425711832
59,4,2,T1_SMS_8,160,5,42,127,425713400
59,4,2,T1_SMS_8,161,1,48,43,426500540
59,4,2,T1_SMS_8,162,5,42,127,426512688
59,4,2,T1_SMS_8,163,1,48,51,427306948
59,4,2,T1_SMS_8,164,5,42,127,427312372
59,4,2,T1_SMS_8,165,1,48,53,428102800
59,4,2,T1_SMS_8,166,5,42,127,428113228
59,4,2,T1_SMS_8,167,1,48,46,428878972
59,4,2,T1_SMS_8,168,5,42,127,428912960
59,4,2,T1_SMS_8,169,1,48,47,429664040
59,4,2,T1_SMS_8,170,5,42,127,429712844
59,4,2,T1_SMS_8,171,1,48,56,430448444
59,4,2,T1_SMS_8,172,5,42,127,430512356
59,4,2,T1_SMS_8,173,1,48,55,431276976
59,4,2,T1_SMS_8,174,5,42,127,431313136
59,4,2,T1_SMS_8,175,1,48,52,432084336
59,4,2,T1_SMS_8,176,5,42,127,432113092
59,4,2,T1_SMS_8,177,1,48,56,432882424
59,4,2,T1_SMS_8,178,5,42,127,432912828
59,4,2,T1_SMS_8,179,1,48,52,433709264
59,4,2,T1_SMS_8,180,5,42,127,433712512
59,4,2,T1_SMS_8,181,1,48,50,434506152
59,4,2,T1_SMS_8,182,5,42,127,434513216
59,4,2,T1_SMS_8,183,1,48,53,435201296
59,4,2,T1_SMS_8,184,5,42,127,435313160
59,4,2,T1_SMS_8,185,1,48,50,436095520
59,4,2,T1_SMS_8,186,5,42,127,436112832
59,4,2,T1_SMS_8,187,1,48,52,436877756
59,4,2,T1_SMS_8,188,5,42,127,436912416
59,4,2,T1_SMS_8,189,5,42,127,437713208
59,4,2,T1_SMS_8,190,1,48,50,437732632
59,4,2,T1_SMS_8,191,1,48,51,438505044
59,4,2,T1_SMS_8,192,5,42,127,438513008
59,4,2,T1_SMS_8,193,5,42,127,439312896
59,4,2,T1_SMS_8,194,1,48,53,439332420
59,4,2,T1_SMS_8,195,5,42,127,440112356
59,4,2,T1_SMS_8,196,1,48,52,440162824
59,4,2,T1_SMS_8,197,5,42,127,440913136
59,4,2,T1_SMS_8,198,1,48,48,440996436
59,4,2,T1_SMS_8,199,1,48,48,441713096
59,4,2,T1_SMS_8,200,5,42,127,441714432
59,4,2,T1_SMS_8,201,5,42,127,442512976
59,4,2,T1_SMS_8,202,1,48,53,442535912
59,4,2,T1_SMS_8,203,1,48,52,443306980
59,4,2,T1_SMS_8,204,5,42,127,443312404
59,4,2,T1_SMS_8,205,1,48,51,444096320
59,4,2,T1_SMS_8,206,5,42,127,444113260
59,4,2,T1_SMS_8,207,1,48,36,444889024
59,4,2,T1_SMS_8,208,5,42,127,444912992
59,4,2,T1_SMS_8,209,5,42,127,445712956
59,4,2,T1_SMS_8,210,1,48,47,445724400
59,4,2,T1_SMS_8,211,1,48,54,446470168
59,4,2,T1_SMS_8,212,5,42,127,446512780
59,4,2,T1_SMS_8,213,1,48,63,447290192
59,4,2,T1_SMS_8,214,5,42,127,447313116
59,4,2,T1_SMS_8,215,1,48,56,448034352
59,4,2,T1_SMS_8,216,5,42,127,448113144
59,4,2,T1_SMS_8,217,1,48,51,448879484
59,4,2,T1_SMS_8,218,5,42,127,448912732
59,4,2,T1_SMS_8,219,1,48,44,449649828
59,4,2,T1_SMS_8,220,5,42,127,449712760
59,4,2,T1_SMS_8,221,5,42,127,450513400
59,4,2,T1_SMS_8,222,1,48,58,450529084
59,4,2,T1_SMS_8,223,1,48,47,451297984
59,4,2,T1_SMS_8,224,5,42,127,451312976
59,4,2,T1_SMS_8,225,1,48,46,452113160
59,4,2,T1_SMS_8,226,5,42,127,452114348
59,4,2,T1_SMS_8,227,1,48,49,452879576
59,4,2,T1_SMS_8,228,5,42,127,452912764
59,4,2,T1_SMS_8,229,1,48,50,453700652
59,4,2,T1_SMS_8,230,5,42,127,453713248
59,4,2,T1_SMS_8,231,5,42,127,454513060
59,4,2,T1_SMS_8,232,1,48,54,454524704
59,4,2,T1_SMS_8,233,1,48,48,455294056
59,4,2,T1_SMS_8,234,5,42,127,455312712
59,4,2,T1_SMS_8,235,1,48,60,456081448
59,4,2,T1_SMS_8,236,5,42,127,456112448
59,4,2,T1_SMS_8,0,9999,9999,9999,360910932
59,4,2,T1_SMS_8,1,9999,9999,9999,361710684
59,4,2,T1_SMS_8,2,9999,9999,9999,362510440
59,4,2,T1_SMS_8,3,9999,9999,9999,363310144
59,4,2,T1_SMS_8,4,9999,9999,9999,364110948
59,4,2,T1_SMS_8,5,9999,9999,9999,364910676
59,4,2,T1_SMS_8,6,9999,9999,9999,365710408
59,4,2,T1_SMS_8,7,9999,9999,9999,366510140
59,4,2,T1_SMS_8,8,9999,9999,9999,367310924
59,4,2,T1_SMS_8,9,9999,9999,9999,368110656
59,4,2,T1_SMS_8,10,9999,9999,9999,368910388
59,4,2,T1_SMS_8,11,9999,9999,9999,369710148
59,4,2,T1_SMS_8,12,9999,9999,9999,370510928
59,4,2,T1_SMS_8,13,9999,9999,9999,371310660
59,4,2,T1_SMS_8,14,9999,9999,9999,372110396
59,4,2,T1_SMS_8,15,9999,9999,9999,372910128
59,4,2,T1_SMS_8,16,9999,9999,9999,373710948
59,4,2,T1_SMS_8,17,9999,9999,9999,374510644
59,4,2,T1_SMS_8,18,9999,9999,9999,375310384
59,4,2,T1_SMS_8,19,9999,9999,9999,376110140
59,4,2,T1_SMS_8,20,9999,9999,9999,376910916
59,4,2,T1_SMS_8,21,9999,9999,9999,377710652
59,4,2,T1_SMS_8,22,9999,9999,9999,378510384
59,4,2,T1_SMS_8,23,9999,9999,9999,379310192
59,4,2,T1_SMS_8,24,9999,9999,9999,380110896
59,4,2,T1_SMS_8,25,9999,9999,9999,380910704
59,4,2,T1_SMS_8,26,9999,9999,9999,381710448
59,4,2,T1_SMS_8,27,9999,9999,9999,382510132
59,4,2,T1_SMS_8,28,9999,9999,9999,383310904
59,4,2,T1_SMS_8,29,9999,9999,9999,384110640
59,4,2,T1_SMS_8,30,9999,9999,9999,384910448
59,4,2,T1_SMS_8,31,9999,9999,9999,385710180
59,4,2,T1_SMS_8,32,9999,9999,9999,386510960
59,4,2,T1_SMS_8,33,9999,9999,9999,387310696
59,4,2,T1_SMS_8,34,9999,9999,9999,388110428
59,4,2,T1_SMS_8,35,9999,9999,9999,388910184
59,4,2,T1_SMS_8,36,9999,9999,9999,389710964
59,4,2,T1_SMS_8,37,9999,9999,9999,390510700
59,4,2,T1_SMS_8,38,9999,9999,9999,391310436
59,4,2,T1_SMS_8,39,9999,9999,9999,392110172
59,4,2,T1_SMS_8,40,9999,9999,9999,392910948
59,4,2,T1_SMS_8,41,9999,9999,9999,393710684
59,4,2,T1_SMS_8,42,9999,9999,9999,394510420
59,4,2,T1_SMS_8,43,9999,9999,9999,395310180
59,4,2,T1_SMS_8,44,9999,9999,9999,396110960
59,4,2,T1_SMS_8,45,9999,9999,9999,396910692
59,4,2,T1_SMS_8,46,9999,9999,9999,397710428
59,4,2,T1_SMS_8,47,9999,9999,9999,398510160
59,4,2,T1_SMS_8,48,9999,9999,9999,399310940
59,4,2,T1_SMS_8,49,9999,9999,9999,400110672
59,4,2,T1_SMS_8,50,9999,9999,9999,400910380
59,4,2,T1_SMS_8,51,9999,9999,9999,401710132
59,4,2,T1_SMS_8,52,9999,9999,9999,402510912
59,4,2,T1_SMS_8,53,9999,9999,9999,403310648
59,4,2,T1_SMS_8,54,9999,9999,9999,404110456
59,4,2,T1_SMS_8,55,9999,9999,9999,404910196
59,4,2,T1_SMS_8,56,9999,9999,9999,405710904
59,4,2,T1_SMS_8,57,9999,9999,9999,406510704
59,4,2,T1_SMS_8,58,9999,9999,9999,407310408
59,4,2,T1_SMS_8,59,9999,9999,9999,408110128
59,4,2,T1_SMS_8,60,9999,9999,9999,408910908
59,4,2,T1_SMS_8,61,9999,9999,9999,409710708
59,4,2,T1_SMS_8,62,9999,9999,9999,410510444
59,4,2,T1_SMS_8,63,9999,9999,9999,411310184
59,4,2,T1_SMS_8,64,9999,9999,9999,412110956
59,4,2,T1_SMS_8,65,9999,9999,9999,412910688
59,4,2,T1_SMS_8,66,9999,9999,9999,413710424
59,4,2,T1_SMS_8,67,9999,9999,9999,414510184
59,4,2,T1_SMS_8,68,9999,9999,9999,415310964
59,4,2,T1_SMS_8,69,9999,9999,9999,416110696
59,4,2,T1_SMS_8,70,9999,9999,9999,416910432
59,4,2,T1_SMS_8,71,9999,9999,9999,417710168
59,4,2,T1_SMS_8,72,9999,9999,9999,418510948
59,4,2,T1_SMS_8,73,9999,9999,9999,419310688
59,4,2,T1_SMS_8,74,9999,9999,9999,420110420
59,4,2,T1_SMS_8,75,9999,9999,9999,420910180
59,4,2,T1_SMS_8,76,9999,9999,9999,421710960
59,4,2,T1_SMS_8,77,9999,9999,9999,422510688
59,4,2,T1_SMS_8,78,9999,9999,9999,423310420
59,4,2,T1_SMS_8,79,9999,9999,9999,424110160
59,4,2,T1_SMS_8,80,9999,9999,9999,424910940
59,4,2,T1_SMS_8,81,9999,9999,9999,425710676
59,4,2,T1_SMS_8,82,9999,9999,9999,426510400
59,4,2,T1_SMS_8,83,9999,9999,9999,427310160
59,4,2,T1_SMS_8,84,9999,9999,9999,428110940
59,4,2,T1_SMS_8,85,9999,9999,9999,428910676
59,4,2,T1_SMS_8,86,9999,9999,9999,429710408
59,4,2,T1_SMS_8,87,9999,9999,9999,430510140
59,4,2,T1_SMS_8,88,9999,9999,9999,431310924
59,4,2,T1_SMS_8,89,9999,9999,9999,432110656
59,4,2,T1_SMS_8,90,9999,9999,9999,432910388
59,4,2,T1_SMS_8,91,9999,9999,9999,433710148
59,4,2,T1_SMS_8,92,9999,9999,9999,434510928
59,4,2,T1_SMS_8,93,9999,9999,9999,435310648
59,4,2,T1_SMS_8,94,9999,9999,9999,436110396
59,4,2,T1_SMS_8,95,9999,9999,9999,436910128
59,4,2,T1_SMS_8,96,9999,9999,9999,437710916
59,4,2,T1_SMS_8,97,9999,9999,9999,438510644
59,4,2,T1_SMS_8,98,9999,9999,9999,439310384
59,4,2,T1_SMS_8,99,9999,9999,9999,440110140
59,4,2,T1_SMS_8,100,9999,9999,9999,440910924
59,4,2,T1_SMS_8,101,9999,9999,9999,441710656
59,4,2,T1_SMS_8,102,9999,9999,9999,442510392
59,4,2,T1_SMS_8,103,9999,9999,9999,443310192
59,4,2,T1_SMS_8,104,9999,9999,9999,444110896
59,4,2,T1_SMS_8,105,9999,9999,9999,444910704
59,4,2,T1_SMS_8,106,9999,9999,9999,445710444
59,4,2,T1_SMS_8,107,9999,9999,9999,446510196
59,4,2,T1_SMS_8,108,9999,9999,9999,447310904
59,4,2,T1_SMS_8,109,9999,9999,9999,448110708
59,4,2,T1_SMS_8,110,9999,9999,9999,448910444
59,4,2,T1_SMS_8,111,9999,9999,9999,449710176
59,4,2,T1_SMS_8,112,9999,9999,9999,450510960
59,4,2,T1_SMS_8,113,9999,9999,9999,451310688
59,4,2,T1_SMS_8,114,9999,9999,9999,452110428
59,4,2,T1_SMS_8,115,9999,9999,9999,452910180
59,4,2,T1_SMS_8,116,9999,9999,9999,453710960
59,4,2,T1_SMS_8,117,9999,9999,9999,454510696
59,4,2,T1_SMS_8,118,9999,9999,9999,455310424
59,4,2,T1_SMS_8,119,9999,9999,9999,456110160
59,5,23,Ticks_Phase_5,0,5,42,127,467311924
59,5,23,Ticks_Phase_5,1,5,42,127,467811784
59,5,23,Ticks_Phase_5,2,5,42,127,468312692
59,5,23,Ticks_Phase_5,3,5,42,127,468822508
59,5,23,Ticks_Phase_5,4,5,42,127,469322072
59,5,23,Ticks_Phase_5,5,1,48,19,469347580
59,5,23,Ticks_Phase_5,6,5,42,127,469821760
59,5,23,Ticks_Phase_5,7,1,48,74,469873404
59,5,23,Ticks_Phase_5,8,5,42,127,470321372
59,5,23,Ticks_Phase_5,9,1,48,70,470367172
59,5,23,Ticks_Phase_5,10,5,42,127,470822332
59,5,23,Ticks_Phase_5,11,1,48,73,470868808
59,5,23,Ticks_Phase_5,12,5,42,127,471321948
59,5,23,Ticks_Phase_5,13,1,48,74,471349636
59,5,23,Ticks_Phase_5,14,5,42,127,471821536
59,5,23,Ticks_Phase_5,15,1,48,56,471822500
59,5,23,Ticks_Phase_5,16,1,48,54,472318188
59,5,23,Ticks_Phase_5,17,5,42,127,472322416
59,5,23,Ticks_Phase_5,18,1,48,57,472827240
59,5,23,Ticks_Phase_5,19,5,42,127,472832436
59,5,23,Ticks_Phase_5,20,1,48,48,473321764
59,5,23,Ticks_Phase_5,21,5,42,127,473332124
59,5,23,Ticks_Phase_5,22,5,42,127,473831820
59,5,23,Ticks_Phase_5,23,1,48,63,473844152
59,5,23,Ticks_Phase_5,24,5,42,127,474331508
59,5,23,Ticks_Phase_5,25,1,48,63,474337692
59,5,23,Ticks_Phase_5,26,5,42,127,474832316
59,5,23,Ticks_Phase_5,27,1,48,55,474849132
59,5,23,Ticks_Phase_5,28,5,42,127,475332080
59,5,23,Ticks_Phase_5,29,1,48,58,475369116
59,5,23,Ticks_Phase_5,30,5,42,127,475831616
59,5,23,Ticks_Phase_5,31,1,48,57,475850096
59,5,23,Ticks_Phase_5,32,5,42,127,476332500
59,5,23,Ticks_Phase_5,33,1,48,48,476363784
59,5,23,Ticks_Phase_5,34,5,42,127,476831964
59,5,23,Ticks_Phase_5,35,1,48,52,476872228
59,5,23,Ticks_Phase_5,36,5,42,127,477331800
59,5,23,Ticks_Phase_5,37,1,48,60,477357904
59,5,23,Ticks_Phase_5,38,5,42,127,477831640
59,5,23,Ticks_Phase_5,39,1,48,46,477863368
59,5,23,Ticks_Phase_5,40,5,42,127,478332300
59,5,23,Ticks_Phase_5,41,1,48,58,478339844
59,5,23,Ticks_Phase_5,42,1,48,53,478828352
59,5,23,Ticks_Phase_5,43,5,42,127,478831984
59,5,23,Ticks_Phase_5,44,5,42,127,479331680
59,5,23,Ticks_Phase_5,45,1,48,52,479356584
59,5,23,Ticks_Phase_5,46,5,42,127,479832412
59,5,23,Ticks_Phase_5,47,1,48,52,479853132
59,5,23,Ticks_Phase_5,48,1,48,57,480338800
59,5,23,Ticks_Phase_5,49,5,42,127,480342504
59,5,23,Ticks_Phase_5,50,5,42,127,480842272
59,5,23,Ticks_Phase_5,51,1,48,56,480869888
59,5,23,Ticks_Phase_5,52,1,48,53,481339368
59,5,23,Ticks_Phase_5,53,5,42,127,481341880
59,5,23,Ticks_Phase_5,54,1,48,58,481839756
59,5,23,Ticks_Phase_5,55,5,42,127,481841492
59,5,23,Ticks_Phase_5,56,5,42,127,482332276
59,5,23,Ticks_Phase_5,57,1,48,59,482355612
59,5,23,Ticks_Phase_5,58,5,42,127,482831788
59,5,23,Ticks_Phase_5,59,1,48,68,482855300
59,5,23,Ticks_Phase_5,60,5,42,127,483331404
59,5,23,Ticks_Phase_5,61,1,48,62,483335792
59,5,23,Ticks_Phase_5,62,1,48,59,483827980
59,5,23,Ticks_Phase_5,63,5,42,127,483832428
59,5,23,Ticks_Phase_5,64,5,42,127,484331972
59,5,23,Ticks_Phase_5,65,1,48,56,484360712
59,5,23,Ticks_Phase_5,66,5,42,127,484831588
59,5,23,Ticks_Phase_5,67,1,48,59,484861740
59,5,23,Ticks_Phase_5,68,1,48,56,485326892
59,5,23,Ticks_Phase_5,69,5,42,127,485332316
59,5,23,Ticks_Phase_5,70,1,48,59,485818116
59,5,23,Ticks_Phase_5,71,5,42,127,485832228
59,5,23,Ticks_Phase_5,72,1,48,66,486328712
59,5,23,Ticks_Phase_5,73,5,42,127,486331888
59,5,23,Ticks_Phase_5,74,1,48,61,486817244
59,5,23,Ticks_Phase_5,75,5,42,127,486831428
59,5,23,Ticks_Phase_5,76,1,48,58,487330584
59,5,23,Ticks_Phase_5,77,5,42,127,487332240
59,5,23,Ticks_Phase_5,78,5,42,127,487831860
59,5,23,Ticks_Phase_5,79,1,48,53,487839240
59,5,23,Ticks_Phase_5,80,5,42,127,488331772
59,5,23,Ticks_Phase_5,81,1,48,62,488340288
59,5,23,Ticks_Phase_5,82,1,48,50,488799136
59,5,23,Ticks_Phase_5,83,5,42,127,488832276
59,5,23,Ticks_Phase_5,84,5,42,127,489332268
59,5,23,Ticks_Phase_5,85,1,48,58,489333384
59,5,23,Ticks_Phase_5,86,1,48,63,489831436
59,5,23,Ticks_Phase_5,87,5,42,127,489832924
59,5,23,Ticks_Phase_5,88,1,48,61,490328460
59,5,23,Ticks_Phase_5,89,5,42,127,490331712
59,5,23,Ticks_Phase_5,90,5,42,127,490832384
59,5,23,Ticks_Phase_5,91,1,48,61,490857964
59,5,23,Ticks_Phase_5,92,5,42,127,491342256
59,5,23,Ticks_Phase_5,93,1,48,55,491359912
59,5,23,Ticks_Phase_5,94,5,42,127,491842316
59,5,23,Ticks_Phase_5,95,1,48,64,491847160
59,5,23,Ticks_Phase_5,96,5,42,127,492341560
59,5,23,Ticks_Phase_5,97,1,48,59,492346400
59,5,23,Ticks_Phase_5,98,5,42,127,492842368
59,5,23,Ticks_Phase_5,99,1,48,57,492849076
59,5,23,Ticks_Phase_5,100,1,48,64,493318100
59,5,23,Ticks_Phase_5,101,5,42,127,493342348
59,5,23,Ticks_Phase_5,102,1,48,60,493836888
59,5,23,Ticks_Phase_5,103,5,42,127,493841716
59,5,23,Ticks_Phase_5,104,1,48,61,494323852
59,5,23,Ticks_Phase_5,105,5,42,127,494341404
59,5,23,Ticks_Phase_5,106,1,48,58,494837316
59,5,23,Ticks_Phase_5,107,5,42,127,494842140
59,5,23,Ticks_Phase_5,108,1,48,57,495325620
59,5,23,Ticks_Phase_5,109,5,42,127,495342200
59,5,23,Ticks_Phase_5,110,5,42,127,495841672
59,5,23,Ticks_Phase_5,111,1,48,54,495872056
59,5,23,Ticks_Phase_5,112,1,48,57,496336524
59,5,23,Ticks_Phase_5,113,5,42,127,496342324
59,5,23,Ticks_Phase_5,114,5,42,127,496842244
59,5,23,Ticks_Phase_5,115,1,48,53,496856300
59,5,23,Ticks_Phase_5,116,1,48,55,497338220
59,5,23,Ticks_Phase_5,117,5,42,127,497342076
59,5,23,Ticks_Phase_5,118,1,48,57,497822792
59,5,23,Ticks_Phase_5,119,5,42,127,497841392
59,5,23,Ticks_Phase_5,120,5,42,127,498342208
59,5,23,Ticks_Phase_5,121,1,48,58,498347272
59,5,23,Ticks_Phase_5,122,1,48,58,498804116
59,5,23,Ticks_Phase_5,123,5,42,127,498842188
59,5,23,Ticks_Phase_5,124,1,48,58,499323052
59,5,23,Ticks_Phase_5,125,5,42,127,499362024
59,5,23,Ticks_Phase_5,126,5,42,127,499862164
59,5,23,Ticks_Phase_5,127,1,48,52,499897560
59,5,23,Ticks_Phase_5,128,5,42,127,500361552
59,5,23,Ticks_Phase_5,129,1,48,54,500390288
59,5,23,Ticks_Phase_5,130,5,42,127,500862288
59,5,23,Ticks_Phase_5,131,1,48,59,500869684
59,5,23,Ticks_Phase_5,132,5,42,127,501362200
59,5,23,Ticks_Phase_5,133,1,48,59,501382996
59,5,23,Ticks_Phase_5,134,5,42,127,501862040
59,5,23,Ticks_Phase_5,135,1,48,50,501884404
59,5,23,Ticks_Phase_5,136,5,42,127,502361428
59,5,23,Ticks_Phase_5,137,1,48,48,502368364
59,5,23,Ticks_Phase_5,138,5,42,127,502862312
59,5,23,Ticks_Phase_5,139,1,48,60,502869100
59,5,23,Ticks_Phase_5,140,1,48,58,503358668
59,5,23,Ticks_Phase_5,141,5,42,127,503362144
59,5,23,Ticks_Phase_5,142,5,42,127,503861540
59,5,23,Ticks_Phase_5,143,1,48,59,503869980
59,5,23,Ticks_Phase_5,144,1,48,51,504356468
59,5,23,Ticks_Phase_5,145,5,42,127,504362268
59,5,23,Ticks_Phase_5,146,5,42,127,504862040
59,5,23,Ticks_Phase_5,147,1,48,53,504875268
59,5,23,Ticks_Phase_5,148,1,48,59,505337324
59,5,23,Ticks_Phase_5,149,5,42,127,505362068
59,5,23,Ticks_Phase_5,150,1,48,56,505845624
59,5,23,Ticks_Phase_5,151,5,42,127,505861532
59,5,23,Ticks_Phase_5,152,1,48,35,506358564
59,5,23,Ticks_Phase_5,153,5,42,127,506362268
59,5,23,Ticks_Phase_5,154,1,48,57,506846500
59,5,23,Ticks_Phase_5,155,5,42,127,506862104
59,5,23,Ticks_Phase_5,156,1,48,53,507346260
59,5,23,Ticks_Phase_5,157,5,42,127,507361944
59,5,23,Ticks_Phase_5,158,1,48,53,507828120
59,5,23,Ticks_Phase_5,159,5,42,127,507841936
59,5,23,Ticks_Phase_5,160,1,48,46,508337848
59,5,23,Ticks_Phase_5,161,5,42,127,508341552
59,5,23,Ticks_Phase_5,162,1,48,46,508814024
59,5,23,Ticks_Phase_5,163,5,42,127,508842360
59,5,23,Ticks_Phase_5,164,1,48,55,509308836
59,5,23,Ticks_Phase_5,165,5,42,127,509341976
59,5,23,Ticks_Phase_5,166,1,48,48,509797296
59,5,23,Ticks_Phase_5,167,5,42,127,509841816
59,5,23,Ticks_Phase_5,168,1,48,59,510310848
59,5,23,Ticks_Phase_5,169,5,42,127,510341428
59,5,23,Ticks_Phase_5,170,1,48,31,510801472
59,5,23,Ticks_Phase_5,171,5,42,127,510842088
59,5,23,Ticks_Phase_5,172,1,48,65,511341860
59,5,23,Ticks_Phase_5,173,5,42,127,511343120
59,5,23,Ticks_Phase_5,174,1,48,57,511828100
59,5,23,Ticks_Phase_5,175,5,42,127,511841760
59,5,23,Ticks_Phase_5,176,5,42,127,512342356
59,5,23,Ticks_Phase_5,177,1,48,55,512358200
59,5,23,Ticks_Phase_5,178,1,48,59,512822764
59,5,23,Ticks_Phase_5,179,5,42,127,512841964
59,5,23,Ticks_Phase_5,180,5,42,127,513341880
59,5,23,Ticks_Phase_5,181,1,48,64,513345444
59,5,23,Ticks_Phase_5,182,5,42,127,513841720
59,5,23,Ticks_Phase_5,183,1,48,56,513846860
59,5,23,Ticks_Phase_5,184,5,42,127,514342380
59,5,23,Ticks_Phase_5,185,1,48,60,514343792
59,5,23,Ticks_Phase_5,186,5,42,127,514842068
59,5,23,Ticks_Phase_5,187,1,48,48,514852160
59,5,23,Ticks_Phase_5,188,5,42,127,515341660
59,5,23,Ticks_Phase_5,189,1,48,57,515346196
59,5,23,Ticks_Phase_5,190,5,42,127,515792148
59,5,23,Ticks_Phase_5,191,1,48,51,515843348
59,5,23,Ticks_Phase_5,192,5,42,127,516291836
59,5,23,Ticks_Phase_5,193,1,48,57,516364896
59,5,23,Ticks_Phase_5,194,1,48,52,516790768
59,5,23,Ticks_Phase_5,195,5,42,127,516792260
59,5,23,Ticks_Phase_5,196,1,48,52,517271408
59,5,23,Ticks_Phase_5,197,5,42,127,517292328
59,5,23,Ticks_Phase_5,198,1,48,51,517769292
59,5,23,Ticks_Phase_5,199,5,42,127,517792240
59,5,23,Ticks_Phase_5,200,5,42,127,518291788
59,5,23,Ticks_Phase_5,201,1,48,55,518295500
59,5,23,Ticks_Phase_5,202,1,48,52,518782304
59,5,23,Ticks_Phase_5,203,5,42,127,518791616
59,5,23,Ticks_Phase_5,204,1,48,52,519277644
59,5,23,Ticks_Phase_5,205,5,42,127,519292128
59,5,23,Ticks_Phase_5,206,1,48,43,519776956
59,5,23,Ticks_Phase_5,207,5,42,127,519791964
59,5,23,Ticks_Phase_5,208,1,48,53,520276936
59,5,23,Ticks_Phase_5,209,5,42,127,520291804
59,5,23,Ticks_Phase_5,210,1,48,56,520741660
59,5,23,Ticks_Phase_5,211,5,42,127,520792312
59,5,23,Ticks_Phase_5,212,1,48,59,521270256
59,5,23,Ticks_Phase_5,213,5,42,127,521302260
59,5,23,Ticks_Phase_5,214,5,42,127,521802180
59,5,23,Ticks_Phase_5,215,1,48,50,521803144
59,5,23,Ticks_Phase_5,216,5,42,127,522301716
59,5,23,Ticks_Phase_5,217,1,48,51,522315540
59,5,23,Ticks_Phase_5,218,5,42,127,522801628
59,5,23,Ticks_Phase_5,219,1,48,48,522810072
59,5,23,Ticks_Phase_5,220,5,42,127,523302216
59,5,23,Ticks_Phase_5,221,1,48,53,523322260
59,5,23,Ticks_Phase_5,222,1,48,48,523801980
59,5,23,Ticks_Phase_5,223,5,42,127,523803240
59,5,23,Ticks_Phase_5,224,1,48,53,524321776
59,5,23,Ticks_Phase_5,225,5,42,127,524351836
59,5,23,Ticks_Phase_5,226,1,48,52,524808552
59,5,23,Ticks_Phase_5,227,5,42,127,524851672
59,5,23,Ticks_Phase_5,228,1,48,61,525346680
59,5,23,Ticks_Phase_5,229,5,42,127,525352184
59,5,23,Ticks_Phase_5,230,5,42,127,525851880
59,5,23,Ticks_Phase_5,231,1,48,47,525854620
59,5,23,Ticks_Phase_5,232,5,42,127,526351692
59,5,23,Ticks_Phase_5,233,1,48,49,526369436
59,5,23,Ticks_Phase_5,234,5,42,127,526851384
59,5,23,Ticks_Phase_5,235,1,48,51,526875720
59,5,23,Ticks_Phase_5,236,5,42,127,527352116
59,5,23,Ticks_Phase_5,237,1,48,55,527357260
59,5,23,Ticks_Phase_5,238,5,42,127,527851956
59,5,23,Ticks_Phase_5,239,1,48,38,527866228
59,5,23,Ticks_Phase_5,240,5,42,127,528351644
59,5,23,Ticks_Phase_5,241,1,48,45,528352608
59,5,23,Ticks_Phase_5,242,5,42,127,528852676
59,5,23,Ticks_Phase_5,243,1,48,51,528864632
59,5,23,Ticks_Phase_5,244,1,48,64,529339828
59,5,23,Ticks_Phase_5,245,5,42,127,529351984
59,5,23,Ticks_Phase_5,246,5,42,127,529851828
59,5,23,Ticks_Phase_5,247,1,48,38,529853916
59,5,23,Ticks_Phase_5,248,1,48,46,530314636
59,5,23,Ticks_Phase_5,249,5,42,127,530351584
59,5,23,Ticks_Phase_5,250,1,48,43,530847196
59,5,23,Ticks_Phase_5,251,5,42,127,530852096
59,5,23,Ticks_Phase_5,252,1,48,63,531304500
59,5,23,Ticks_Phase_5,253,5,42,127,531351860
59,5,23,Ticks_Phase_5,254,1,48,51,531816088
59,5,23,Ticks_Phase_5,255,5,42,127,531851620
59,5,23,Ticks_Phase_5,256,1,48,52,532293464
59,5,23,Ticks_Phase_5,257,5,42,127,532352652
59,5,23,Ticks_Phase_5,258,1,48,53,532822660
59,5,23,Ticks_Phase_5,259,5,42,127,532952528
59,5,23,Ticks_Phase_5,260,1,48,47,533379496
59,5,23,Ticks_Phase_5,261,5,42,127,533462492
59,5,23,Ticks_Phase_5,262,5,42,127,533962036
59,5,23,Ticks_Phase_5,263,1,48,48,534012560
59,5,23,Ticks_Phase_5,264,5,42,127,534461796
59,5,23,Ticks_Phase_5,265,1,48,44,534490388
59,5,23,Ticks_Phase_5,266,1,48,50,534935012
59,5,23,Ticks_Phase_5,267,5,42,127,534961704
59,5,23,Ticks_Phase_5,268,1,48,51,535441596
59,5,23,Ticks_Phase_5,269,5,42,127,535462364
59,5,23,Ticks_Phase_5,270,1,48,52,535932072
59,5,23,Ticks_Phase_5,271,5,42,127,535961828
59,5,23,Ticks_Phase_5,272,1,48,50,536419016
59,5,23,Ticks_Phase_5,273,5,42,127,536461664
59,5,23,Ticks_Phase_5,274,1,48,45,536941552
59,5,23,Ticks_Phase_5,275,5,42,127,536962548
59,5,23,Ticks_Phase_5,276,1,48,52,537431060
59,5,23,Ticks_Phase_5,277,5,42,127,537472496
59,5,23,Ticks_Phase_5,278,1,48,44,537933808
59,5,23,Ticks_Phase_5,279,5,42,127,537972036
59,5,23,Ticks_Phase_5,280,1,48,45,538444808
59,5,23,Ticks_Phase_5,281,5,42,127,538471724
59,5,23,Ticks_Phase_5,282,5,42,127,538971644
59,5,23,Ticks_Phase_5,283,1,48,51,538988460
59,5,23,Ticks_Phase_5,284,5,42,127,539472376
59,5,23,Ticks_Phase_5,285,1,48,48,539490336
59,5,23,Ticks_Phase_5,286,5,42,127,539971992
59,5,23,Ticks_Phase_5,287,1,48,42,539973108
59,5,23,Ticks_Phase_5,288,1,48,48,540445576
59,5,23,Ticks_Phase_5,289,5,42,127,540471600
59,5,23,Ticks_Phase_5,290,1,48,44,540958592
59,5,23,Ticks_Phase_5,291,5,42,127,540972408
59,5,23,Ticks_Phase_5,292,1,48,53,541446356
59,5,23,Ticks_Phase_5,293,5,42,127,541472096
59,5,23,Ticks_Phase_5,294,1,48,42,541934884
59,5,23,Ticks_Phase_5,295,5,42,127,541971836
59,5,23,Ticks_Phase_5,296,5,42,127,542372376
59,5,23,Ticks_Phase_5,297,1,48,42,542439684
59,5,23,Ticks_Phase_5,298,5,42,127,542871916
59,5,23,Ticks_Phase_5,299,1,48,42,542930532
59,5,23,Ticks_Phase_5,300,5,42,127,543371604
59,5,23,Ticks_Phase_5,301,1,48,40,543414112
59,5,23,Ticks_Phase_5,302,5,42,127,543872612
59,5,23,Ticks_Phase_5,303,1,48,33,543890568
59,5,23,Ticks_Phase_5,304,1,48,37,544368292
59,5,23,Ticks_Phase_5,305,5,42,127,544372068
59,5,23,Ticks_Phase_5,306,1,48,42,544849932
59,5,23,Ticks_Phase_5,307,5,42,127,544871832
59,5,23,Ticks_Phase_5,308,1,48,43,545333148
59,5,23,Ticks_Phase_5,309,5,42,127,545371448
59,5,23,Ticks_Phase_5,310,1,48,61,545828940
59,5,23,Ticks_Phase_5,311,5,42,127,545872408
59,5,23,Ticks_Phase_5,312,1,48,52,546339036
59,5,23,Ticks_Phase_5,313,5,42,127,546371948
59,5,23,Ticks_Phase_5,314,1,48,44,546814960
59,5,23,Ticks_Phase_5,315,5,42,127,546871784
59,5,23,Ticks_Phase_5,316,1,48,58,547361260
59,5,23,Ticks_Phase_5,317,5,42,127,547372368
59,5,23,Ticks_Phase_5,318,1,48,47,547856268
59,5,23,Ticks_Phase_5,319,5,42,127,547872056
59,5,23,Ticks_Phase_5,320,1,48,50,548351620
59,5,23,Ticks_Phase_5,321,5,42,127,548371792
59,5,23,Ticks_Phase_5,322,1,48,53,548831612
59,5,23,Ticks_Phase_5,323,5,42,127,548871556
59,5,23,Ticks_Phase_5,324,1,48,52,549347696
59,5,23,Ticks_Phase_5,325,5,42,127,549372292
59,5,23,Ticks_Phase_5,326,1,48,51,549845512
59,5,23,Ticks_Phase_5,327,5,42,127,549871908
59,5,23,Ticks_Phase_5,328,1,48,50,550326556
59,5,23,Ticks_Phase_5,329,5,42,127,550371744
59,5,23,Ticks_Phase_5,330,1,48,36,550854624
59,5,23,Ticks_Phase_5,331,5,42,127,550872408
59,5,23,Ticks_Phase_5,332,1,48,43,551360088
59,5,23,Ticks_Phase_5,333,5,42,127,551382504
59,5,23,Ticks_Phase_5,334,1,48,50,551862768
59,5,23,Ticks_Phase_5,335,5,42,127,551882264
59,5,23,Ticks_Phase_5,0,9999,9999,9999,467309636
59,5,23,Ticks_Phase_5,1,9999,9999,9999,467809348
59,5,23,Ticks_Phase_5,2,9999,9999,9999,468310108
59,5,23,Ticks_Phase_5,3,9999,9999,9999,468820072
59,5,23,Ticks_Phase_5,4,9999,9999,9999,469319784
59,5,23,Ticks_Phase_5,5,9999,9999,9999,469819472
59,5,23,Ticks_Phase_5,6,9999,9999,9999,470319160
59,5,23,Ticks_Phase_5,7,9999,9999,9999,470819896
59,5,23,Ticks_Phase_5,8,9999,9999,9999,471319636
59,5,23,Ticks_Phase_5,9,9999,9999,9999,471819324
59,5,23,Ticks_Phase_5,10,9999,9999,9999,472320052
59,5,23,Ticks_Phase_5,11,9999,9999,9999,472830076
59,5,23,Ticks_Phase_5,12,9999,9999,9999,473329764
59,5,23,Ticks_Phase_5,13,9999,9999,9999,473829460
59,5,23,Ticks_Phase_5,14,9999,9999,9999,474329148
59,5,23,Ticks_Phase_5,15,9999,9999,9999,474829880
59,5,23,Ticks_Phase_5,16,9999,9999,9999,475329644
59,5,23,Ticks_Phase_5,17,9999,9999,9999,475829332
59,5,23,Ticks_Phase_5,18,9999,9999,9999,476330064
59,5,23,Ticks_Phase_5,19,9999,9999,9999,476829752
59,5,23,Ticks_Phase_5,20,9999,9999,9999,477329516
59,5,23,Ticks_Phase_5,21,9999,9999,9999,477829204
59,5,23,Ticks_Phase_5,22,9999,9999,9999,478329940
59,5,23,Ticks_Phase_5,23,9999,9999,9999,478829624
59,5,23,Ticks_Phase_5,24,9999,9999,9999,479329392
59,5,23,Ticks_Phase_5,25,9999,9999,9999,479830128
59,5,23,Ticks_Phase_5,26,9999,9999,9999,480340068
59,5,23,Ticks_Phase_5,27,9999,9999,9999,480839760
59,5,23,Ticks_Phase_5,28,9999,9999,9999,481339520
59,5,23,Ticks_Phase_5,29,9999,9999,9999,481839232
59,5,23,Ticks_Phase_5,30,9999,9999,9999,482329688
59,5,23,Ticks_Phase_5,31,9999,9999,9999,482829428
59,5,23,Ticks_Phase_5,32,9999,9999,9999,483329116
59,5,23,Ticks_Phase_5,33,9999,9999,9999,483829844
59,5,23,Ticks_Phase_5,34,9999,9999,9999,484329540
59,5,23,Ticks_Phase_5,35,9999,9999,9999,484829300
59,5,23,Ticks_Phase_5,36,9999,9999,9999,485330028
59,5,23,Ticks_Phase_5,37,9999,9999,9999,485829716
59,5,23,Ticks_Phase_5,38,9999,9999,9999,486329456
59,5,23,Ticks_Phase_5,39,9999,9999,9999,486829144
59,5,23,Ticks_Phase_5,40,9999,9999,9999,487329892
59,5,23,Ticks_Phase_5,41,9999,9999,9999,487829572
59,5,23,Ticks_Phase_5,42,9999,9999,9999,488329336
59,5,23,Ticks_Phase_5,43,9999,9999,9999,488830064
59,5,23,Ticks_Phase_5,44,9999,9999,9999,489329760
59,5,23,Ticks_Phase_5,45,9999,9999,9999,489829448
59,5,23,Ticks_Phase_5,46,9999,9999,9999,490329204
59,5,23,Ticks_Phase_5,47,9999,9999,9999,490829944
59,5,23,Ticks_Phase_5,48,9999,9999,9999,491339896
59,5,23,Ticks_Phase_5,49,9999,9999,9999,491839584
59,5,23,Ticks_Phase_5,50,9999,9999,9999,492339272
59,5,23,Ticks_Phase_5,51,9999,9999,9999,492840008
59,5,23,Ticks_Phase_5,52,9999,9999,9999,493339764
59,5,23,Ticks_Phase_5,53,9999,9999,9999,493839428
59,5,23,Ticks_Phase_5,54,9999,9999,9999,494339192
59,5,23,Ticks_Phase_5,55,9999,9999,9999,494839928
59,5,23,Ticks_Phase_5,56,9999,9999,9999,495339616
59,5,23,Ticks_Phase_5,57,9999,9999,9999,495839312
59,5,23,Ticks_Phase_5,58,9999,9999,9999,496340040
59,5,23,Ticks_Phase_5,59,9999,9999,9999,496839808
59,5,23,Ticks_Phase_5,60,9999,9999,9999,497339492
59,5,23,Ticks_Phase_5,61,9999,9999,9999,497839180
59,5,23,Ticks_Phase_5,62,9999,9999,9999,498339920
59,5,23,Ticks_Phase_5,63,9999,9999,9999,498839676
59,5,23,Ticks_Phase_5,64,9999,9999,9999,499359812
59,5,23,Ticks_Phase_5,65,9999,9999,9999,499859580
59,5,23,Ticks_Phase_5,66,9999,9999,9999,500359268
59,5,23,Ticks_Phase_5,67,9999,9999,9999,500860000
59,5,23,Ticks_Phase_5,68,9999,9999,9999,501359692
59,5,23,Ticks_Phase_5,69,9999,9999,9999,501859456
59,5,23,Ticks_Phase_5,70,9999,9999,9999,502359140
59,5,23,Ticks_Phase_5,71,9999,9999,9999,502859876
59,5,23,Ticks_Phase_5,72,9999,9999,9999,503359560
59,5,23,Ticks_Phase_5,73,9999,9999,9999,503859252
59,5,23,Ticks_Phase_5,74,9999,9999,9999,504360056
59,5,23,Ticks_Phase_5,75,9999,9999,9999,504859752
59,5,23,Ticks_Phase_5,76,9999,9999,9999,505359484
59,5,23,Ticks_Phase_5,77,9999,9999,9999,505859172
59,5,23,Ticks_Phase_5,78,9999,9999,9999,506359908
59,5,23,Ticks_Phase_5,79,9999,9999,9999,506859596
59,5,23,Ticks_Phase_5,80,9999,9999,9999,507359360
59,5,23,Ticks_Phase_5,81,9999,9999,9999,507839576
59,5,23,Ticks_Phase_5,82,9999,9999,9999,508339268
59,5,23,Ticks_Phase_5,83,9999,9999,9999,508840000
59,5,23,Ticks_Phase_5,84,9999,9999,9999,509339764
59,5,23,Ticks_Phase_5,85,9999,9999,9999,509839452
59,5,23,Ticks_Phase_5,86,9999,9999,9999,510339140
59,5,23,Ticks_Phase_5,87,9999,9999,9999,510839876
59,5,23,Ticks_Phase_5,88,9999,9999,9999,511339644
59,5,23,Ticks_Phase_5,89,9999,9999,9999,511839328
59,5,23,Ticks_Phase_5,90,9999,9999,9999,512340068
59,5,23,Ticks_Phase_5,91,9999,9999,9999,512839752
59,5,23,Ticks_Phase_5,92,9999,9999,9999,513339444
59,5,23,Ticks_Phase_5,93,9999,9999,9999,513839208
59,5,23,Ticks_Phase_5,94,9999,9999,9999,514339944
59,5,23,Ticks_Phase_5,95,9999,9999,9999,514839632
59,5,23,Ticks_Phase_5,96,9999,9999,9999,515339372
59,5,23,Ticks_Phase_5,97,9999,9999,9999,515789932
59,5,23,Ticks_Phase_5,98,9999,9999,9999,516289624
59,5,23,Ticks_Phase_5,99,9999,9999,9999,516789312
59,5,23,Ticks_Phase_5,100,9999,9999,9999,517290040
59,5,23,Ticks_Phase_5,101,9999,9999,9999,517789804
59,5,23,Ticks_Phase_5,102,9999,9999,9999,518289500
59,5,23,Ticks_Phase_5,103,9999,9999,9999,518789184
59,5,23,Ticks_Phase_5,104,9999,9999,9999,519289916
59,5,23,Ticks_Phase_5,105,9999,9999,9999,519789680
59,5,23,Ticks_Phase_5,106,9999,9999,9999,520289368
59,5,23,Ticks_Phase_5,107,9999,9999,9999,520790100
59,5,23,Ticks_Phase_5,108,9999,9999,9999,521300048
59,5,23,Ticks_Phase_5,109,9999,9999,9999,521799744
59,5,23,Ticks_Phase_5,110,9999,9999,9999,522299504
59,5,23,Ticks_Phase_5,111,9999,9999,9999,522799192
59,5,23,Ticks_Phase_5,112,9999,9999,9999,523299928
59,5,23,Ticks_Phase_5,113,9999,9999,9999,523799616
59,5,23,Ticks_Phase_5,114,9999,9999,9999,524349548
59,5,23,Ticks_Phase_5,115,9999,9999,9999,524849236
59,5,23,Ticks_Phase_5,116,9999,9999,9999,525349972
59,5,23,Ticks_Phase_5,117,9999,9999,9999,525849668
59,5,23,Ticks_Phase_5,118,9999,9999,9999,526349404
59,5,23,Ticks_Phase_5,119,9999,9999,9999,526849096
59,5,23,Ticks_Phase_5,120,9999,9999,9999,527349832
59,5,23,Ticks_Phase_5,121,9999,9999,9999,527849592
59,5,23,Ticks_Phase_5,122,9999,9999,9999,528349280
59,5,23,Ticks_Phase_5,123,9999,9999,9999,528850016
59,5,23,Ticks_Phase_5,124,9999,9999,9999,529349700
59,5,23,Ticks_Phase_5,125,9999,9999,9999,529849468
59,5,23,Ticks_Phase_5,126,9999,9999,9999,530349148
59,5,23,Ticks_Phase_5,127,9999,9999,9999,530849884
59,5,23,Ticks_Phase_5,128,9999,9999,9999,531349572
59,5,23,Ticks_Phase_5,129,9999,9999,9999,531849332
59,5,23,Ticks_Phase_5,130,9999,9999,9999,532350068
59,5,23,Ticks_Phase_5,131,9999,9999,9999,532950092
59,5,23,Ticks_Phase_5,132,9999,9999,9999,533460056
59,5,23,Ticks_Phase_5,133,9999,9999,9999,533959748
59,5,23,Ticks_Phase_5,134,9999,9999,9999,534459512
59,5,23,Ticks_Phase_5,135,9999,9999,9999,534959192
59,5,23,Ticks_Phase_5,136,9999,9999,9999,535459928
59,5,23,Ticks_Phase_5,137,9999,9999,9999,535959616
59,5,23,Ticks_Phase_5,138,9999,9999,9999,536459380
59,5,23,Ticks_Phase_5,139,9999,9999,9999,536960112
59,5,23,Ticks_Phase_5,140,9999,9999,9999,537470060
59,5,23,Ticks_Phase_5,141,9999,9999,9999,537969748
59,5,23,Ticks_Phase_5,142,9999,9999,9999,538469436
59,5,23,Ticks_Phase_5,143,9999,9999,9999,538969208
59,5,23,Ticks_Phase_5,144,9999,9999,9999,539469944
59,5,23,Ticks_Phase_5,145,9999,9999,9999,539969632
59,5,23,Ticks_Phase_5,146,9999,9999,9999,540469312
59,5,23,Ticks_Phase_5,147,9999,9999,9999,540970048
59,5,23,Ticks_Phase_5,148,9999,9999,9999,541469808
59,5,23,Ticks_Phase_5,149,9999,9999,9999,541969472
59,5,23,Ticks_Phase_5,150,9999,9999,9999,542369864
59,5,23,Ticks_Phase_5,151,9999,9999,9999,542869628
59,5,23,Ticks_Phase_5,152,9999,9999,9999,543369316
59,5,23,Ticks_Phase_5,153,9999,9999,9999,543870028
59,5,23,Ticks_Phase_5,154,9999,9999,9999,544369784
59,5,23,Ticks_Phase_5,155,9999,9999,9999,544869472
59,5,23,Ticks_Phase_5,156,9999,9999,9999,545369160
59,5,23,Ticks_Phase_5,157,9999,9999,9999,545869896
59,5,23,Ticks_Phase_5,158,9999,9999,9999,546369660
59,5,23,Ticks_Phase_5,159,9999,9999,9999,546869348
59,5,23,Ticks_Phase_5,160,9999,9999,9999,547370084
59,5,23,Ticks_Phase_5,161,9999,9999,9999,547869768
59,5,23,Ticks_Phase_5,162,9999,9999,9999,548369508
59,5,23,Ticks_Phase_5,163,9999,9999,9999,548869192
59,5,23,Ticks_Phase_5,164,9999,9999,9999,549369932
59,5,23,Ticks_Phase_5,165,9999,9999,9999,549869696
59,5,23,Ticks_Phase_5,166,9999,9999,9999,550369384
59,5,23,Ticks_Phase_5,167,9999,9999,9999,550870120
59,5,23,Ticks_Phase_5,168,9999,9999,9999,551380068
59,5,23,Ticks_Phase_5,169,9999,9999,9999,551879756
59,6,22,Ticks_Phase_8,0,5,42,127,563725824
59,6,22,Ticks_Phase_8,1,5,42,127,564525360
59,6,22,Ticks_Phase_8,2,5,42,127,565326140
59,6,22,Ticks_Phase_8,3,5,42,127,566126024
59,6,22,Ticks_Phase_8,4,1,48,65,566900704
59,6,22,Ticks_Phase_8,5,5,42,127,566925676
59,6,22,Ticks_Phase_8,6,1,48,60,567649648
59,6,22,Ticks_Phase_8,7,5,42,127,567725316
59,6,22,Ticks_Phase_8,8,1,48,57,568498932
59,6,22,Ticks_Phase_8,9,5,42,127,568526144
59,6,22,Ticks_Phase_8,10,1,48,54,569319836
59,6,22,Ticks_Phase_8,11,5,42,127,569326232
59,6,22,Ticks_Phase_8,12,1,48,56,570080384
59,6,22,Ticks_Phase_8,13,5,42,127,570125720
59,6,22,Ticks_Phase_8,14,1,48,48,570906860
59,6,22,Ticks_Phase_8,15,5,42,127,570925456
59,6,22,Ticks_Phase_8,16,1,48,44,571716832
59,6,22,Ticks_Phase_8,17,5,42,127,571726068
59,6,22,Ticks_Phase_8,18,1,48,48,572468760
59,6,22,Ticks_Phase_8,19,5,42,127,572526148
59,6,22,Ticks_Phase_8,20,1,48,41,573317152
59,6,22,Ticks_Phase_8,21,5,42,127,573325640
59,6,22,Ticks_Phase_8,22,5,42,127,574125284
59,6,22,Ticks_Phase_8,23,1,48,54,574132516
59,6,22,Ticks_Phase_8,24,1,48,57,574921360
59,6,22,Ticks_Phase_8,25,5,42,127,574926112
59,6,22,Ticks_Phase_8,26,5,42,127,575726052
59,6,22,Ticks_Phase_8,27,1,48,52,575728652
59,6,22,Ticks_Phase_8,28,1,48,49,576525612
59,6,22,Ticks_Phase_8,29,5,42,127,576526952
59,6,22,Ticks_Phase_8,30,1,48,43,577303216
59,6,22,Ticks_Phase_8,31,5,42,127,577325420
59,6,22,Ticks_Phase_8,32,5,42,127,578126108
59,6,22,Ticks_Phase_8,33,1,48,45,578170340
59,6,22,Ticks_Phase_8,34,5,42,127,578925896
59,6,22,Ticks_Phase_8,35,1,48,25,579671300
59,6,22,Ticks_Phase_8,36,5,42,127,579726068
59,6,22,Ticks_Phase_8,37,1,48,57,580497220
59,6,22,Ticks_Phase_8,38,5,42,127,580525484
59,6,22,Ticks_Phase_8,39,1,48,51,581309664
59,6,22,Ticks_Phase_8,40,5,42,127,581326168
59,6,22,Ticks_Phase_8,41,1,48,51,582070656
59,6,22,Ticks_Phase_8,42,5,42,127,582125952
59,6,22,Ticks_Phase_8,43,1,48,48,582897708
59,6,22,Ticks_Phase_8,44,5,42,127,582926112
59,6,22,Ticks_Phase_8,45,1,48,51,583692616
59,6,22,Ticks_Phase_8,46,5,42,127,583725700
59,6,22,Ticks_Phase_8,47,1,48,63,584483660
59,6,22,Ticks_Phase_8,48,5,42,127,584526088
59,6,22,Ticks_Phase_8,49,1,48,54,585305628
59,6,22,Ticks_Phase_8,50,5,42,127,585325800
59,6,22,Ticks_Phase_8,51,5,42,127,586125740
59,6,22,Ticks_Phase_8,52,1,48,52,586144736
59,6,22,Ticks_Phase_8,53,1,48,48,586909164
59,6,22,Ticks_Phase_8,54,5,42,127,586925372
59,6,22,Ticks_Phase_8,55,1,48,50,587702204
59,6,22,Ticks_Phase_8,56,5,42,127,587705760
59,6,22,Ticks_Phase_8,57,5,42,127,588505552
59,6,22,Ticks_Phase_8,58,1,48,54,588511212
59,6,22,Ticks_Phase_8,59,1,48,57,589290468
59,6,22,Ticks_Phase_8,60,5,42,127,589306228
59,6,22,Ticks_Phase_8,61,1,48,51,590053328
59,6,22,Ticks_Phase_8,62,5,42,127,590106040
59,6,22,Ticks_Phase_8,63,1,48,48,590902500
59,6,22,Ticks_Phase_8,64,5,42,127,590905752
59,6,22,Ticks_Phase_8,65,5,42,127,591705544
59,6,22,Ticks_Phase_8,66,1,48,50,591710980
59,6,22,Ticks_Phase_8,67,1,48,51,592479532
59,6,22,Ticks_Phase_8,68,5,42,127,592506296
59,6,22,Ticks_Phase_8,69,5,42,127,593305940
59,6,22,Ticks_Phase_8,70,1,48,56,593308608
59,6,22,Ticks_Phase_8,71,5,42,127,594105576
59,6,22,Ticks_Phase_8,72,1,48,59,594141716
59,6,22,Ticks_Phase_8,73,5,42,127,594905588
59,6,22,Ticks_Phase_8,74,1,48,53,594921736
59,6,22,Ticks_Phase_8,75,5,42,127,595706196
59,6,22,Ticks_Phase_8,76,1,48,33,595707092
59,6,22,Ticks_Phase_8,77,1,48,51,596498384
59,6,22,Ticks_Phase_8,78,5,42,127,596505904
59,6,22,Ticks_Phase_8,79,1,48,54,597269940
59,6,22,Ticks_Phase_8,80,5,42,127,597305840
59,6,22,Ticks_Phase_8,81,1,48,54,598078568
59,6,22,Ticks_Phase_8,82,5,42,127,598105552
59,6,22,Ticks_Phase_8,83,5,42,127,598906172
59,6,22,Ticks_Phase_8,84,1,48,48,598921496
59,6,22,Ticks_Phase_8,85,1,48,48,599687652
59,6,22,Ticks_Phase_8,86,5,42,127,599706104
59,6,22,Ticks_Phase_8,87,1,48,44,600476356
59,6,22,Ticks_Phase_8,88,5,42,127,600505740
59,6,22,Ticks_Phase_8,89,1,48,55,601282656
59,6,22,Ticks_Phase_8,90,5,42,127,601305604
59,6,22,Ticks_Phase_8,91,1,48,56,602121084
59,6,22,Ticks_Phase_8,92,5,42,127,602125760
59,6,22,Ticks_Phase_8,93,5,42,127,602925504
59,6,22,Ticks_Phase_8,94,1,48,20,602974908
59,6,22,Ticks_Phase_8,95,5,42,127,603726188
59,6,22,Ticks_Phase_8,96,1,48,45,603761504
59,6,22,Ticks_Phase_8,97,1,48,53,604477412
59,6,22,Ticks_Phase_8,98,5,42,127,604525968
59,6,22,Ticks_Phase_8,99,1,48,55,605276828
59,6,22,Ticks_Phase_8,100,5,42,127,605325680
59,6,22,Ticks_Phase_8,101,1,48,67,606075944
59,6,22,Ticks_Phase_8,102,5,42,127,606125616
59,6,22,Ticks_Phase_8,103,1,48,54,606850932
59,6,22,Ticks_Phase_8,104,5,42,127,606926080
59,6,22,Ticks_Phase_8,105,1,48,56,607690188
59,6,22,Ticks_Phase_8,106,5,42,127,607725792
59,6,22,Ticks_Phase_8,107,1,48,59,608458900
59,6,22,Ticks_Phase_8,108,5,42,127,608525724
59,6,22,Ticks_Phase_8,109,1,48,48,609230080
59,6,22,Ticks_Phase_8,110,5,42,127,609326044
59,6,22,Ticks_Phase_8,111,1,48,50,610095716
59,6,22,Ticks_Phase_8,112,5,42,127,610126296
59,6,22,Ticks_Phase_8,113,1,48,58,610857388
59,6,22,Ticks_Phase_8,114,5,42,127,610925936
59,6,22,Ticks_Phase_8,115,5,42,127,611725728
59,6,22,Ticks_Phase_8,116,1,48,53,611734168
59,6,22,Ticks_Phase_8,117,1,48,50,612514924
59,6,22,Ticks_Phase_8,118,5,42,127,612525580
59,6,22,Ticks_Phase_8,119,1,48,49,613311104
59,6,22,Ticks_Phase_8,120,5,42,127,613326412
59,6,22,Ticks_Phase_8,121,5,42,127,614125908
59,6,22,Ticks_Phase_8,122,1,48,52,614176836
59,6,22,Ticks_Phase_8,123,1,48,50,614930176
59,6,22,Ticks_Phase_8,124,5,42,127,614965704
59,6,22,Ticks_Phase_8,125,1,48,47,615756252
59,6,22,Ticks_Phase_8,126,5,42,127,615766244
59,6,22,Ticks_Phase_8,127,5,42,127,616566256
59,6,22,Ticks_Phase_8,128,1,48,54,616571468
59,6,22,Ticks_Phase_8,129,1,48,51,617350800
59,6,22,Ticks_Phase_8,130,5,42,127,617365884
59,6,22,Ticks_Phase_8,131,1,48,46,618139504
59,6,22,Ticks_Phase_8,132,5,42,127,618165524
59,6,22,Ticks_Phase_8,133,1,48,43,618887096
59,6,22,Ticks_Phase_8,134,5,42,127,618966360
59,6,22,Ticks_Phase_8,135,1,48,46,619715868
59,6,22,Ticks_Phase_8,136,5,42,127,619766216
59,6,22,Ticks_Phase_8,137,1,48,47,620565056
59,6,22,Ticks_Phase_8,138,5,42,127,620566632
59,6,22,Ticks_Phase_8,139,5,42,127,621365524
59,6,22,Ticks_Phase_8,140,1,48,54,621379800
59,6,22,Ticks_Phase_8,141,1,48,48,622146548
59,6,22,Ticks_Phase_8,142,5,42,127,622166352
59,6,22,Ticks_Phase_8,143,1,48,59,622907096
59,6,22,Ticks_Phase_8,144,5,42,127,622966208
59,6,22,Ticks_Phase_8,145,1,48,50,623684344
59,6,22,Ticks_Phase_8,146,5,42,127,623765772
59,6,22,Ticks_Phase_8,147,1,48,35,624551972
59,6,22,Ticks_Phase_8,148,5,42,127,624565632
59,6,22,Ticks_Phase_8,149,1,48,51,625318512
59,6,22,Ticks_Phase_8,150,5,42,127,625366320
59,6,22,Ticks_Phase_8,151,5,42,127,626166036
59,6,22,Ticks_Phase_8,152,1,48,48,626170796
59,6,22,Ticks_Phase_8,153,1,48,53,626934188
59,6,22,Ticks_Phase_8,154,5,42,127,626965912
59,6,22,Ticks_Phase_8,155,1,48,53,627752932
59,6,22,Ticks_Phase_8,156,5,42,127,627765624
59,6,22,Ticks_Phase_8,157,1,48,47,628492564
59,6,22,Ticks_Phase_8,158,5,42,127,628525424
59,6,22,Ticks_Phase_8,159,1,48,46,629303228
59,6,22,Ticks_Phase_8,160,5,42,127,629326180
59,6,22,Ticks_Phase_8,161,5,42,127,630126196
59,6,22,Ticks_Phase_8,162,1,48,49,630161816
59,6,22,Ticks_Phase_8,163,1,48,50,630912688
59,6,22,Ticks_Phase_8,164,5,42,127,630925680
59,6,22,Ticks_Phase_8,165,5,42,127,631725548
59,6,22,Ticks_Phase_8,166,1,48,51,632444520
59,6,22,Ticks_Phase_8,167,5,42,127,632526320
59,6,22,Ticks_Phase_8,168,1,48,50,633245732
59,6,22,Ticks_Phase_8,169,5,42,127,633326180
59,6,22,Ticks_Phase_8,170,1,48,58,634119872
59,6,22,Ticks_Phase_8,171,5,42,127,634125668
59,6,22,Ticks_Phase_8,172,1,48,42,634913164
59,6,22,Ticks_Phase_8,173,5,42,127,634925552
59,6,22,Ticks_Phase_8,174,1,48,51,635713024
59,6,22,Ticks_Phase_8,175,5,42,127,635726164
59,6,22,Ticks_Phase_8,176,1,48,50,636517536
59,6,22,Ticks_Phase_8,177,5,42,127,636526096
59,6,22,Ticks_Phase_8,178,5,42,127,637326040
59,6,22,Ticks_Phase_8,179,1,48,45,637351548
59,6,22,Ticks_Phase_8,180,5,42,127,638125380
59,6,22,Ticks_Phase_8,181,1,48,47,638147604
59,6,22,Ticks_Phase_8,182,5,42,127,638926064
59,6,22,Ticks_Phase_8,183,1,48,46,638942364
59,6,22,Ticks_Phase_8,184,5,42,127,639726076
59,6,22,Ticks_Phase_8,185,1,48,51,639743048
59,6,22,Ticks_Phase_8,186,5,42,127,640525636
59,6,22,Ticks_Phase_8,187,1,48,53,640585100
59,6,22,Ticks_Phase_8,188,5,42,127,641245520
59,6,22,Ticks_Phase_8,189,1,48,54,641316364
59,6,22,Ticks_Phase_8,190,1,48,50,641941244
59,6,22,Ticks_Phase_8,191,5,42,127,642046256
59,6,22,Ticks_Phase_8,192,1,48,46,642820268
59,6,22,Ticks_Phase_8,193,5,42,127,642846008
59,6,22,Ticks_Phase_8,194,1,48,52,643621948
59,6,22,Ticks_Phase_8,195,5,42,127,643646016
59,6,22,Ticks_Phase_8,196,1,48,45,644422476
59,6,22,Ticks_Phase_8,197,5,42,127,644445652
59,6,22,Ticks_Phase_8,198,1,48,38,645221144
59,6,22,Ticks_Phase_8,199,5,42,127,645246340
59,6,22,Ticks_Phase_8,200,1,48,31,646027000
59,6,22,Ticks_Phase_8,201,5,42,127,646046048
59,6,22,Ticks_Phase_8,202,1,48,38,646828140
59,6,22,Ticks_Phase_8,203,5,42,127,646845988
59,6,22,Ticks_Phase_8,204,1,48,46,647609476
59,6,22,Ticks_Phase_8,205,5,42,127,647645524
59,6,22,Ticks_Phase_8,206,1,48,41,648400644
59,6,22,Ticks_Phase_8,207,5,42,127,648446284
59,6,22,Ticks_Phase_8,208,1,48,49,649221476
59,6,22,Ticks_Phase_8,209,5,42,127,649246096
59,6,22,Ticks_Phase_8,210,1,48,45,649998948
59,6,22,Ticks_Phase_8,211,5,42,127,650045884
59,6,22,Ticks_Phase_8,212,1,48,42,650818084
59,6,22,Ticks_Phase_8,213,5,42,127,650845816
59,6,22,Ticks_Phase_8,214,1,48,43,651631792
59,6,22,Ticks_Phase_8,215,5,42,127,651646352
59,6,22,Ticks_Phase_8,216,5,42,127,652446144
59,6,22,Ticks_Phase_8,217,1,48,47,652458180
59,6,22,Ticks_Phase_8,218,5,42,127,653245856
59,6,22,Ticks_Phase_8,219,1,48,50,653274220
59,6,22,Ticks_Phase_8,220,5,42,127,654045792
59,6,22,Ticks_Phase_8,221,1,48,44,654071004
59,6,22,Ticks_Phase_8,222,1,48,46,654835960
59,6,22,Ticks_Phase_8,223,5,42,127,654926324
59,6,22,Ticks_Phase_8,224,5,42,127,655725892
59,6,22,Ticks_Phase_8,225,1,48,46,655730736
59,6,22,Ticks_Phase_8,226,5,42,127,656525604
59,6,22,Ticks_Phase_8,227,1,48,44,656535092
59,6,22,Ticks_Phase_8,228,5,42,127,657325392
59,6,22,Ticks_Phase_8,229,1,48,46,657386628
59,6,22,Ticks_Phase_8,230,5,42,127,658126148
59,6,22,Ticks_Phase_8,231,1,48,49,658132260
59,6,22,Ticks_Phase_8,232,5,42,127,658926012
59,6,22,Ticks_Phase_8,233,1,48,48,658947852
59,6,22,Ticks_Phase_8,234,1,48,40,659676492
59,6,22,Ticks_Phase_8,235,5,42,127,659725568
59,6,22,Ticks_Phase_8,236,1,48,46,660485760
59,6,22,Ticks_Phase_8,237,5,42,127,660525500
59,6,22,Ticks_Phase_8,238,1,48,44,661277556
59,6,22,Ticks_Phase_8,239,5,42,127,661326112
59,6,22,Ticks_Phase_8,240,1,48,53,662064240
59,6,22,Ticks_Phase_8,241,5,42,127,662125896
59,6,22,Ticks_Phase_8,242,1,48,59,662892396
59,6,22,Ticks_Phase_8,243,5,42,127,662925832
59,6,22,Ticks_Phase_8,244,1,48,44,663687400
59,6,22,Ticks_Phase_8,245,5,42,127,663725544
59,6,22,Ticks_Phase_8,246,1,48,52,664482756
59,6,22,Ticks_Phase_8,247,5,42,127,664526152
59,6,22,Ticks_Phase_8,248,1,48,70,665262996
59,6,22,Ticks_Phase_8,249,5,42,127,665325864
59,6,22,Ticks_Phase_8,250,1,48,45,666079764
59,6,22,Ticks_Phase_8,251,5,42,127,666125628
59,6,22,Ticks_Phase_8,252,1,48,53,666863444
59,6,22,Ticks_Phase_8,253,5,42,127,666925436
59,6,22,Ticks_Phase_8,254,1,48,53,667706024
59,6,22,Ticks_Phase_8,255,5,42,127,667726124
59,6,22,Ticks_Phase_8,256,1,48,54,668523716
59,6,22,Ticks_Phase_8,257,5,42,127,668685628
59,6,22,Ticks_Phase_8,258,5,42,127,669485536
59,6,22,Ticks_Phase_8,259,1,48,49,669526848
59,6,22,Ticks_Phase_8,260,1,48,53,670267240
59,6,22,Ticks_Phase_8,261,5,42,127,670286360
59,6,22,Ticks_Phase_8,262,5,42,127,671086004
59,6,22,Ticks_Phase_8,263,1,48,56,671089200
59,6,22,Ticks_Phase_8,264,1,48,51,671885420
59,6,22,Ticks_Phase_8,265,5,42,127,671886908
59,6,22,Ticks_Phase_8,266,1,48,56,672666976
59,6,22,Ticks_Phase_8,267,5,42,127,672685500
59,6,22,Ticks_Phase_8,268,1,48,43,673482404
59,6,22,Ticks_Phase_8,269,5,42,127,673486628
59,6,22,Ticks_Phase_8,270,1,48,56,674276732
59,6,22,Ticks_Phase_8,271,5,42,127,674285968
59,6,22,Ticks_Phase_8,272,1,48,50,675041088
59,6,22,Ticks_Phase_8,273,5,42,127,675085604
59,6,22,Ticks_Phase_8,274,1,48,30,675864496
59,6,22,Ticks_Phase_8,275,5,42,127,675885492
59,6,22,Ticks_Phase_8,276,5,42,127,676686184
59,6,22,Ticks_Phase_8,277,1,48,46,676693936
59,6,22,Ticks_Phase_8,278,1,48,52,677425052
59,6,22,Ticks_Phase_8,279,5,42,127,677485888
59,6,22,Ticks_Phase_8,280,1,48,51,678180276
59,6,22,Ticks_Phase_8,281,5,42,127,678285584
59,6,22,Ticks_Phase_8,282,5,42,127,679085392
59,6,22,Ticks_Phase_8,283,1,48,45,679135016
59,6,22,Ticks_Phase_8,284,1,48,51,679831216
59,6,22,Ticks_Phase_8,285,5,42,127,679886292
59,6,22,Ticks_Phase_8,286,1,48,52,680599476
59,6,22,Ticks_Phase_8,287,5,42,127,680685856
59,6,22,Ticks_Phase_8,288,1,48,57,681427356
59,6,22,Ticks_Phase_8,289,5,42,127,681485792
59,6,22,Ticks_Phase_8,290,5,42,127,682285388
59,6,22,Ticks_Phase_8,291,1,48,48,682287096
59,6,22,Ticks_Phase_8,292,1,48,53,683062440
59,6,22,Ticks_Phase_8,293,5,42,127,683086288
59,6,22,Ticks_Phase_8,294,5,42,127,683726396
59,6,22,Ticks_Phase_8,295,1,48,50,683811020
59,6,22,Ticks_Phase_8,296,1,48,46,684511016
59,6,22,Ticks_Phase_8,297,5,42,127,684526024
59,6,22,Ticks_Phase_8,298,5,42,127,685325668
59,6,22,Ticks_Phase_8,299,1,48,45,685329088
59,6,22,Ticks_Phase_8,300,5,42,127,686125308
59,6,22,Ticks_Phase_8,301,1,48,56,686131640
59,6,22,Ticks_Phase_8,302,5,42,127,686926364
59,6,22,Ticks_Phase_8,303,1,48,52,686969100
59,6,22,Ticks_Phase_8,304,5,42,127,687726076
59,6,22,Ticks_Phase_8,305,1,48,54,687755256
59,6,22,Ticks_Phase_8,306,5,42,127,688525860
59,6,22,Ticks_Phase_8,307,1,48,51,688567700
59,6,22,Ticks_Phase_8,308,1,48,47,689290564
59,6,22,Ticks_Phase_8,309,5,42,127,689325492
59,6,22,Ticks_Phase_8,310,1,48,41,690126108
59,6,22,Ticks_Phase_8,311,5,42,127,690127448
59,6,22,Ticks_Phase_8,312,5,42,127,690925968
59,6,22,Ticks_Phase_8,313,1,48,52,690964164
59,6,22,Ticks_Phase_8,314,5,42,127,691725832
59,6,22,Ticks_Phase_8,315,1,48,50,691766476
59,6,22,Ticks_Phase_8,316,1,48,49,692522356
59,6,22,Ticks_Phase_8,317,5,42,127,692525460
59,6,22,Ticks_Phase_8,318,1,48,52,693308444
59,6,22,Ticks_Phase_8,319,5,42,127,693326220
59,6,22,Ticks_Phase_8,320,1,48,49,694121632
59,6,22,Ticks_Phase_8,321,5,42,127,694126228
59,6,22,Ticks_Phase_8,322,1,48,41,694913340
59,6,22,Ticks_Phase_8,323,5,42,127,694925568
59,6,22,Ticks_Phase_8,324,1,48,47,695679792
59,6,22,Ticks_Phase_8,325,5,42,127,695725280
59,6,22,Ticks_Phase_8,326,1,48,49,696486024
59,6,22,Ticks_Phase_8,327,5,42,127,696526188
59,6,22,Ticks_Phase_8,328,1,48,58,697265064
59,6,22,Ticks_Phase_8,329,5,42,127,697326272
59,6,22,Ticks_Phase_8,330,1,48,57,698111056
59,6,22,Ticks_Phase_8,331,5,42,127,698125860
59,6,22,Ticks_Phase_8,332,1,48,48,698875052
59,6,22,Ticks_Phase_8,333,5,42,127,698925348
59,6,22,Ticks_Phase_8,0,9999,9999,9999,563723388
59,6,22,Ticks_Phase_8,1,9999,9999,9999,564523072
59,6,22,Ticks_Phase_8,2,9999,9999,9999,565323852
59,6,22,Ticks_Phase_8,3,9999,9999,9999,566123588
59,6,22,Ticks_Phase_8,4,9999,9999,9999,566923388
59,6,22,Ticks_Phase_8,5,9999,9999,9999,567723104
59,6,22,Ticks_Phase_8,6,9999,9999,9999,568523860
59,6,22,Ticks_Phase_8,7,9999,9999,9999,569323648
59,6,22,Ticks_Phase_8,8,9999,9999,9999,570123356
59,6,22,Ticks_Phase_8,9,9999,9999,9999,570923096
59,6,22,Ticks_Phase_8,10,9999,9999,9999,571723856
59,6,22,Ticks_Phase_8,11,9999,9999,9999,572523640
59,6,22,Ticks_Phase_8,12,9999,9999,9999,573323352
59,6,22,Ticks_Phase_8,13,9999,9999,9999,574123072
59,6,22,Ticks_Phase_8,14,9999,9999,9999,574923900
59,6,22,Ticks_Phase_8,15,9999,9999,9999,575723616
59,6,22,Ticks_Phase_8,16,9999,9999,9999,576523328
59,6,22,Ticks_Phase_8,17,9999,9999,9999,577323132
59,6,22,Ticks_Phase_8,18,9999,9999,9999,578123896
59,6,22,Ticks_Phase_8,19,9999,9999,9999,578923608
59,6,22,Ticks_Phase_8,20,9999,9999,9999,579723336
59,6,22,Ticks_Phase_8,21,9999,9999,9999,580523120
59,6,22,Ticks_Phase_8,22,9999,9999,9999,581323880
59,6,22,Ticks_Phase_8,23,9999,9999,9999,582123592
59,6,22,Ticks_Phase_8,24,9999,9999,9999,582923380
59,6,22,Ticks_Phase_8,25,9999,9999,9999,583723116
59,6,22,Ticks_Phase_8,26,9999,9999,9999,584523876
59,6,22,Ticks_Phase_8,27,9999,9999,9999,585323588
59,6,22,Ticks_Phase_8,28,9999,9999,9999,586123376
59,6,22,Ticks_Phase_8,29,9999,9999,9999,586923084
59,6,22,Ticks_Phase_8,30,9999,9999,9999,587703400
59,6,22,Ticks_Phase_8,31,9999,9999,9999,588503116
59,6,22,Ticks_Phase_8,32,9999,9999,9999,589303868
59,6,22,Ticks_Phase_8,33,9999,9999,9999,590103676
59,6,22,Ticks_Phase_8,34,9999,9999,9999,590903392
59,6,22,Ticks_Phase_8,35,9999,9999,9999,591703108
59,6,22,Ticks_Phase_8,36,9999,9999,9999,592503936
59,6,22,Ticks_Phase_8,37,9999,9999,9999,593303652
59,6,22,Ticks_Phase_8,38,9999,9999,9999,594103364
59,6,22,Ticks_Phase_8,39,9999,9999,9999,594903152
59,6,22,Ticks_Phase_8,40,9999,9999,9999,595703912
59,6,22,Ticks_Phase_8,41,9999,9999,9999,596503616
59,6,22,Ticks_Phase_8,42,9999,9999,9999,597303404
59,6,22,Ticks_Phase_8,43,9999,9999,9999,598103120
59,6,22,Ticks_Phase_8,44,9999,9999,9999,598903884
59,6,22,Ticks_Phase_8,45,9999,9999,9999,599703668
59,6,22,Ticks_Phase_8,46,9999,9999,9999,600503380
59,6,22,Ticks_Phase_8,47,9999,9999,9999,601303092
59,6,22,Ticks_Phase_8,48,9999,9999,9999,602123324
59,6,22,Ticks_Phase_8,49,9999,9999,9999,602923068
59,6,22,Ticks_Phase_8,50,9999,9999,9999,603723904
59,6,22,Ticks_Phase_8,51,9999,9999,9999,604523608
59,6,22,Ticks_Phase_8,52,9999,9999,9999,605323320
59,6,22,Ticks_Phase_8,53,9999,9999,9999,606123108
59,6,22,Ticks_Phase_8,54,9999,9999,9999,606923868
59,6,22,Ticks_Phase_8,55,9999,9999,9999,607723580
59,6,22,Ticks_Phase_8,56,9999,9999,9999,608523364
59,6,22,Ticks_Phase_8,57,9999,9999,9999,609323104
59,6,22,Ticks_Phase_8,58,9999,9999,9999,610123860
59,6,22,Ticks_Phase_8,59,9999,9999,9999,610923572
59,6,22,Ticks_Phase_8,60,9999,9999,9999,611723368
59,6,22,Ticks_Phase_8,61,9999,9999,9999,612523072
59,6,22,Ticks_Phase_8,62,9999,9999,9999,613323904
59,6,22,Ticks_Phase_8,63,9999,9999,9999,614123620
59,6,22,Ticks_Phase_8,64,9999,9999,9999,614963268
59,6,22,Ticks_Phase_8,65,9999,9999,9999,615764028
59,6,22,Ticks_Phase_8,66,9999,9999,9999,616563820
59,6,22,Ticks_Phase_8,67,9999,9999,9999,617363524
59,6,22,Ticks_Phase_8,68,9999,9999,9999,618163312
59,6,22,Ticks_Phase_8,69,9999,9999,9999,618964072
59,6,22,Ticks_Phase_8,70,9999,9999,9999,619763780
59,6,22,Ticks_Phase_8,71,9999,9999,9999,620563524
59,6,22,Ticks_Phase_8,72,9999,9999,9999,621363312
59,6,22,Ticks_Phase_8,73,9999,9999,9999,622164064
59,6,22,Ticks_Phase_8,74,9999,9999,9999,622963776
59,6,22,Ticks_Phase_8,75,9999,9999,9999,623763560
59,6,22,Ticks_Phase_8,76,9999,9999,9999,624563272
59,6,22,Ticks_Phase_8,77,9999,9999,9999,625364032
59,6,22,Ticks_Phase_8,78,9999,9999,9999,626163824
59,6,22,Ticks_Phase_8,79,9999,9999,9999,626963552
59,6,22,Ticks_Phase_8,80,9999,9999,9999,627763264
59,6,22,Ticks_Phase_8,81,9999,9999,9999,628523136
59,6,22,Ticks_Phase_8,82,9999,9999,9999,629323896
59,6,22,Ticks_Phase_8,83,9999,9999,9999,630123612
59,6,22,Ticks_Phase_8,84,9999,9999,9999,630923320
59,6,22,Ticks_Phase_8,85,9999,9999,9999,631723112
59,6,22,Ticks_Phase_8,86,9999,9999,9999,632523884
59,6,22,Ticks_Phase_8,87,9999,9999,9999,633323596
59,6,22,Ticks_Phase_8,88,9999,9999,9999,634123384
59,6,22,Ticks_Phase_8,89,9999,9999,9999,634923120
59,6,22,Ticks_Phase_8,90,9999,9999,9999,635723876
59,6,22,Ticks_Phase_8,91,9999,9999,9999,636523588
59,6,22,Ticks_Phase_8,92,9999,9999,9999,637323380
59,6,22,Ticks_Phase_8,93,9999,9999,9999,638123092
59,6,22,Ticks_Phase_8,94,9999,9999,9999,638923852
59,6,22,Ticks_Phase_8,95,9999,9999,9999,639723640
59,6,22,Ticks_Phase_8,96,9999,9999,9999,640523348
59,6,22,Ticks_Phase_8,97,9999,9999,9999,641243232
59,6,22,Ticks_Phase_8,98,9999,9999,9999,642043968
59,6,22,Ticks_Phase_8,99,9999,9999,9999,642843724
59,6,22,Ticks_Phase_8,100,9999,9999,9999,643643508
59,6,22,Ticks_Phase_8,101,9999,9999,9999,644443220
59,6,22,Ticks_Phase_8,102,9999,9999,9999,645243976
59,6,22,Ticks_Phase_8,103,9999,9999,9999,646043764
59,6,22,Ticks_Phase_8,104,9999,9999,9999,646843476
59,6,22,Ticks_Phase_8,105,9999,9999,9999,647643236
59,6,22,Ticks_Phase_8,106,9999,9999,9999,648443996
59,6,22,Ticks_Phase_8,107,9999,9999,9999,649243736
59,6,22,Ticks_Phase_8,108,9999,9999,9999,650043448
59,6,22,Ticks_Phase_8,109,9999,9999,9999,650843232
59,6,22,Ticks_Phase_8,110,9999,9999,9999,651643992
59,6,22,Ticks_Phase_8,111,9999,9999,9999,652443708
59,6,22,Ticks_Phase_8,112,9999,9999,9999,653243496
59,6,22,Ticks_Phase_8,113,9999,9999,9999,654043208
59,6,22,Ticks_Phase_8,114,9999,9999,9999,654923888
59,6,22,Ticks_Phase_8,115,9999,9999,9999,655723608
59,6,22,Ticks_Phase_8,116,9999,9999,9999,656523316
59,6,22,Ticks_Phase_8,117,9999,9999,9999,657323104
59,6,22,Ticks_Phase_8,118,9999,9999,9999,658123864
59,6,22,Ticks_Phase_8,119,9999,9999,9999,658923576
59,6,22,Ticks_Phase_8,120,9999,9999,9999,659723356
59,6,22,Ticks_Phase_8,121,9999,9999,9999,660523064
59,6,22,Ticks_Phase_8,122,9999,9999,9999,661323900
59,6,22,Ticks_Phase_8,123,9999,9999,9999,662123608
59,6,22,Ticks_Phase_8,124,9999,9999,9999,662923320
59,6,22,Ticks_Phase_8,125,9999,9999,9999,663723108
59,6,22,Ticks_Phase_8,126,9999,9999,9999,664523868
59,6,22,Ticks_Phase_8,127,9999,9999,9999,665323580
59,6,22,Ticks_Phase_8,128,9999,9999,9999,666123340
59,6,22,Ticks_Phase_8,129,9999,9999,9999,666923076
59,6,22,Ticks_Phase_8,130,9999,9999,9999,667723836
59,6,22,Ticks_Phase_8,131,9999,9999,9999,668683340
59,6,22,Ticks_Phase_8,132,9999,9999,9999,669483100
59,6,22,Ticks_Phase_8,133,9999,9999,9999,670283852
59,6,22,Ticks_Phase_8,134,9999,9999,9999,671083644
59,6,22,Ticks_Phase_8,135,9999,9999,9999,671883356
59,6,22,Ticks_Phase_8,136,9999,9999,9999,672683064
59,6,22,Ticks_Phase_8,137,9999,9999,9999,673483896
59,6,22,Ticks_Phase_8,138,9999,9999,9999,674283608
59,6,22,Ticks_Phase_8,139,9999,9999,9999,675083320
59,6,22,Ticks_Phase_8,140,9999,9999,9999,675883128
59,6,22,Ticks_Phase_8,141,9999,9999,9999,676683896
59,6,22,Ticks_Phase_8,142,9999,9999,9999,677483600
59,6,22,Ticks_Phase_8,143,9999,9999,9999,678283372
59,6,22,Ticks_Phase_8,144,9999,9999,9999,679083104
59,6,22,Ticks_Phase_8,145,9999,9999,9999,679883856
59,6,22,Ticks_Phase_8,146,9999,9999,9999,680683644
59,6,22,Ticks_Phase_8,147,9999,9999,9999,681483356
59,6,22,Ticks_Phase_8,148,9999,9999,9999,682283100
59,6,22,Ticks_Phase_8,149,9999,9999,9999,683083852
59,6,22,Ticks_Phase_8,150,9999,9999,9999,683723884
59,6,22,Ticks_Phase_8,151,9999,9999,9999,684523592
59,6,22,Ticks_Phase_8,152,9999,9999,9999,685323384
59,6,22,Ticks_Phase_8,153,9999,9999,9999,686123092
59,6,22,Ticks_Phase_8,154,9999,9999,9999,686923852
59,6,22,Ticks_Phase_8,155,9999,9999,9999,687723640
59,6,22,Ticks_Phase_8,156,9999,9999,9999,688523348
59,6,22,Ticks_Phase_8,157,9999,9999,9999,689323132
59,6,22,Ticks_Phase_8,158,9999,9999,9999,690123892
59,6,22,Ticks_Phase_8,159,9999,9999,9999,690923608
59,6,22,Ticks_Phase_8,160,9999,9999,9999,691723320
59,6,22,Ticks_Phase_8,161,9999,9999,9999,692523100
59,6,22,Ticks_Phase_8,162,9999,9999,9999,693323860
59,6,22,Ticks_Phase_8,163,9999,9999,9999,694123644
59,6,22,Ticks_Phase_8,164,9999,9999,9999,694923356
59,6,22,Ticks_Phase_8,165,9999,9999,9999,695723068
59,6,22,Ticks_Phase_8,166,9999,9999,9999,696523900
59,6,22,Ticks_Phase_8,167,9999,9999,9999,697323616
59,6,22,Ticks_Phase_8,168,9999,9999,9999,698123328
59,6,22,Ticks_Phase_8,169,9999,9999,9999,698923064
59,7,21,Ticks_Linear_5,0,5,42,127,710724088
59,7,21,Ticks_Linear_5,1,5,42,127,711204192
59,7,21,Ticks_Linear_5,2,5,42,127,711683516
59,7,21,Ticks_Linear_5,3,5,42,127,712163916
59,7,21,Ticks_Linear_5,4,5,42,127,712643868
59,7,21,Ticks_Linear_5,5,1,48,21,712720920
59,7,21,Ticks_Linear_5,6,5,42,127,713133456
59,7,21,Ticks_Linear_5,7,1,48,69,713175816
59,7,21,Ticks_Linear_5,8,5,42,127,713623944
59,7,21,Ticks_Linear_5,9,1,48,73,713655672
59,7,21,Ticks_Linear_5,10,5,42,127,714114504
59,7,21,Ticks_Linear_5,11,1,48,76,714125568
59,7,21,Ticks_Linear_5,12,1,48,72,714601196
59,7,21,Ticks_Linear_5,13,5,42,127,714614048
59,7,21,Ticks_Linear_5,14,1,48,78,715080752
59,7,21,Ticks_Linear_5,15,5,42,127,715103788
59,7,21,Ticks_Linear_5,16,1,48,66,715589964
59,7,21,Ticks_Linear_5,17,5,42,127,715604236
59,7,21,Ticks_Linear_5,18,1,48,54,716087644
59,7,21,Ticks_Linear_5,19,5,42,127,716104084
59,7,21,Ticks_Linear_5,20,1,48,61,716559108
59,7,21,Ticks_Linear_5,21,5,42,127,716603712
59,7,21,Ticks_Linear_5,22,1,48,59,717054892
59,7,21,Ticks_Linear_5,23,5,42,127,717103336
59,7,21,Ticks_Linear_5,24,1,48,55,717557212
59,7,21,Ticks_Linear_5,25,5,42,127,717604380
59,7,21,Ticks_Linear_5,26,1,48,71,718072568
59,7,21,Ticks_Linear_5,27,5,42,127,718114116
59,7,21,Ticks_Linear_5,28,1,48,51,718564028
59,7,21,Ticks_Linear_5,29,5,42,127,718624152
59,7,21,Ticks_Linear_5,30,1,48,49,719130096
59,7,21,Ticks_Linear_5,31,5,42,127,719134184
59,7,21,Ticks_Linear_5,32,1,48,53,719577876
59,7,21,Ticks_Linear_5,33,5,42,127,719643996
59,7,21,Ticks_Linear_5,34,1,48,64,720104836
59,7,21,Ticks_Linear_5,35,5,42,127,720153880
59,7,21,Ticks_Linear_5,36,1,48,64,720607828
59,7,21,Ticks_Linear_5,37,5,42,127,720674020
59,7,21,Ticks_Linear_5,38,1,48,63,721144900
59,7,21,Ticks_Linear_5,39,5,42,127,721194460
59,7,21,Ticks_Linear_5,40,1,48,63,721666464
59,7,21,Ticks_Linear_5,41,5,42,127,721713636
59,7,21,Ticks_Linear_5,42,1,48,59,722154632
59,7,21,Ticks_Linear_5,43,5,42,127,722233628
59,7,21,Ticks_Linear_5,44,1,48,71,722677996
59,7,21,Ticks_Linear_5,45,5,42,127,722753772
59,7,21,Ticks_Linear_5,46,1,48,58,723212768
59,7,21,Ticks_Linear_5,47,5,42,127,723284620
59,7,21,Ticks_Linear_5,48,1,48,60,723773724
59,7,21,Ticks_Linear_5,49,5,42,127,723813900
59,7,21,Ticks_Linear_5,50,1,48,58,724302332
59,7,21,Ticks_Linear_5,51,5,42,127,724344304
59,7,21,Ticks_Linear_5,52,1,48,60,724823300
59,7,21,Ticks_Linear_5,53,5,42,127,724873736
59,7,21,Ticks_Linear_5,54,1,48,57,725331524
59,7,21,Ticks_Linear_5,55,5,42,127,725403992
59,7,21,Ticks_Linear_5,56,1,48,65,725863664
59,7,21,Ticks_Linear_5,57,5,42,127,725943756
59,7,21,Ticks_Linear_5,58,1,48,68,726433752
59,7,21,Ticks_Linear_5,59,5,42,127,726484340
59,7,21,Ticks_Linear_5,60,1,48,64,726975916
59,7,21,Ticks_Linear_5,61,5,42,127,727024032
59,7,21,Ticks_Linear_5,62,1,48,62,727517024
59,7,21,Ticks_Linear_5,63,5,42,127,727563796
59,7,21,Ticks_Linear_5,64,1,48,57,728046576
59,7,21,Ticks_Linear_5,65,5,42,127,728104604
59,7,21,Ticks_Linear_5,66,1,48,59,728596928
59,7,21,Ticks_Linear_5,67,5,42,127,728654480
59,7,21,Ticks_Linear_5,68,1,48,51,729181560
59,7,21,Ticks_Linear_5,69,5,42,127,729203984
59,7,21,Ticks_Linear_5,70,1,48,49,729680644
59,7,21,Ticks_Linear_5,71,5,42,127,729753932
59,7,21,Ticks_Linear_5,72,1,48,61,730230820
59,7,21,Ticks_Linear_5,73,5,42,127,730303732
59,7,21,Ticks_Linear_5,74,1,48,62,730774636
59,7,21,Ticks_Linear_5,75,5,42,127,730853680
59,7,21,Ticks_Linear_5,76,1,48,62,731351696
59,7,21,Ticks_Linear_5,77,5,42,127,731413836
59,7,21,Ticks_Linear_5,78,1,48,54,731927048
59,7,21,Ticks_Linear_5,79,5,42,127,731974192
59,7,21,Ticks_Linear_5,80,1,48,52,732484340
59,7,21,Ticks_Linear_5,81,5,42,127,732534028
59,7,21,Ticks_Linear_5,82,1,48,55,733064468
59,7,21,Ticks_Linear_5,83,5,42,127,733094684
59,7,21,Ticks_Linear_5,84,1,48,54,733617188
59,7,21,Ticks_Linear_5,85,5,42,127,733654520
59,7,21,Ticks_Linear_5,86,1,48,52,734185404
59,7,21,Ticks_Linear_5,87,5,42,127,734223816
59,7,21,Ticks_Linear_5,88,1,48,52,734691392
59,7,21,Ticks_Linear_5,89,5,42,127,734794116
59,7,21,Ticks_Linear_5,90,5,42,127,735363632
59,7,21,Ticks_Linear_5,91,1,48,43,735372224
59,7,21,Ticks_Linear_5,92,1,48,48,735924324
59,7,21,Ticks_Linear_5,93,5,42,127,735933944
59,7,21,Ticks_Linear_5,94,1,48,47,736459360
59,7,21,Ticks_Linear_5,95,5,42,127,736504188
59,7,21,Ticks_Linear_5,96,1,48,59,737043412
59,7,21,Ticks_Linear_5,97,5,42,127,737083740
59,7,21,Ticks_Linear_5,98,1,48,59,737571112
59,7,21,Ticks_Linear_5,99,5,42,127,737664468
59,7,21,Ticks_Linear_5,100,1,48,62,738140236
59,7,21,Ticks_Linear_5,101,5,42,127,738243980
59,7,21,Ticks_Linear_5,102,1,48,40,738727628
59,7,21,Ticks_Linear_5,103,5,42,127,738823436
59,7,21,Ticks_Linear_5,104,1,48,54,739376756
59,7,21,Ticks_Linear_5,105,5,42,127,739404280
59,7,21,Ticks_Linear_5,106,1,48,60,739950960
59,7,21,Ticks_Linear_5,107,5,42,127,739994068
59,7,21,Ticks_Linear_5,108,1,48,59,740513200
59,7,21,Ticks_Linear_5,109,5,42,127,740583856
59,7,21,Ticks_Linear_5,110,1,48,61,741072964
59,7,21,Ticks_Linear_5,111,5,42,127,741173584
59,7,21,Ticks_Linear_5,112,1,48,62,741725304
59,7,21,Ticks_Linear_5,113,5,42,127,741763536
59,7,21,Ticks_Linear_5,114,1,48,59,742317932
59,7,21,Ticks_Linear_5,115,5,42,127,742354296
59,7,21,Ticks_Linear_5,116,1,48,54,742949308
59,7,21,Ticks_Linear_5,117,5,42,127,742954220
59,7,21,Ticks_Linear_5,118,5,42,127,743554424
59,7,21,Ticks_Linear_5,119,1,48,54,743561376
59,7,21,Ticks_Linear_5,120,5,42,127,744163688
59,7,21,Ticks_Linear_5,121,1,48,48,744180280
59,7,21,Ticks_Linear_5,122,5,42,127,744763760
59,7,21,Ticks_Linear_5,123,1,48,45,744792348
59,7,21,Ticks_Linear_5,124,1,48,37,745350872
59,7,21,Ticks_Linear_5,125,5,42,127,745363800
59,7,21,Ticks_Linear_5,126,1,48,45,745919624
59,7,21,Ticks_Linear_5,127,5,42,127,745974256
59,7,21,Ticks_Linear_5,128,1,48,44,746545164
59,7,21,Ticks_Linear_5,129,5,42,127,746584364
59,7,21,Ticks_Linear_5,130,1,48,52,747158012
59,7,21,Ticks_Linear_5,131,5,42,127,747204108
59,7,21,Ticks_Linear_5,132,5,42,127,747814372
59,7,21,Ticks_Linear_5,133,1,48,49,747826412
59,7,21,Ticks_Linear_5,134,5,42,127,748423488
59,7,21,Ticks_Linear_5,135,1,48,54,748446372
59,7,21,Ticks_Linear_5,136,5,42,127,749044200
59,7,21,Ticks_Linear_5,137,1,48,51,749045688
59,7,21,Ticks_Linear_5,138,1,48,38,749639208
59,7,21,Ticks_Linear_5,139,5,42,127,749663592
59,7,21,Ticks_Linear_5,140,1,48,66,750220384
59,7,21,Ticks_Linear_5,141,5,42,127,750284232
59,7,21,Ticks_Linear_5,142,1,48,51,750830620
59,7,21,Ticks_Linear_5,143,5,42,127,750903552
59,7,21,Ticks_Linear_5,144,1,48,54,751507532
59,7,21,Ticks_Linear_5,145,5,42,127,751524120
59,7,21,Ticks_Linear_5,146,5,42,127,752154004
59,7,21,Ticks_Linear_5,147,1,48,47,752154972
59,7,21,Ticks_Linear_5,148,1,48,55,752759692
59,7,21,Ticks_Linear_5,149,5,42,127,752783704
59,7,21,Ticks_Linear_5,150,1,48,52,753381228
59,7,21,Ticks_Linear_5,151,5,42,127,753413408
59,7,21,Ticks_Linear_5,152,1,48,57,753983112
59,7,21,Ticks_Linear_5,153,5,42,127,754044184
59,7,21,Ticks_Linear_5,154,1,48,52,754610264
59,7,21,Ticks_Linear_5,155,5,42,127,754674112
59,7,21,Ticks_Linear_5,156,1,48,18,755301488
59,7,21,Ticks_Linear_5,157,5,42,127,755314028
59,7,21,Ticks_Linear_5,158,1,48,54,755896884
59,7,21,Ticks_Linear_5,159,5,42,127,755954212
59,7,21,Ticks_Linear_5,160,1,48,54,756502428
59,7,21,Ticks_Linear_5,161,5,42,127,756594052
59,7,21,Ticks_Linear_5,162,1,48,57,757158112
59,7,21,Ticks_Linear_5,163,5,42,127,757234092
59,7,21,Ticks_Linear_5,164,1,48,64,757791968
59,7,21,Ticks_Linear_5,165,5,42,127,757874156
59,7,21,Ticks_Linear_5,166,1,48,39,758434544
59,7,21,Ticks_Linear_5,167,5,42,127,758524228
59,7,21,Ticks_Linear_5,168,1,48,55,759084124
59,7,21,Ticks_Linear_5,169,5,42,127,759173356
59,7,21,Ticks_Linear_5,170,1,48,62,759732328
59,7,21,Ticks_Linear_5,171,5,42,127,759823972
59,7,21,Ticks_Linear_5,172,1,48,56,760385940
59,7,21,Ticks_Linear_5,173,5,42,127,760473972
59,7,21,Ticks_Linear_5,174,1,48,43,761044848
59,7,21,Ticks_Linear_5,175,5,42,127,761124144
59,7,21,Ticks_Linear_5,176,1,48,50,761727748
59,7,21,Ticks_Linear_5,177,5,42,127,761783804
59,7,21,Ticks_Linear_5,178,1,48,57,762410044
59,7,21,Ticks_Linear_5,179,5,42,127,762444012
59,7,21,Ticks_Linear_5,180,1,48,61,763039668
59,7,21,Ticks_Linear_5,181,5,42,127,763103596
59,7,21,Ticks_Linear_5,182,1,48,53,763693076
59,7,21,Ticks_Linear_5,183,5,42,127,763763952
59,7,21,Ticks_Linear_5,184,1,48,54,764361784
59,7,21,Ticks_Linear_5,185,5,42,127,764423612
59,7,21,Ticks_Linear_5,186,1,48,57,765021628
59,7,21,Ticks_Linear_5,187,5,42,127,765094228
59,7,21,Ticks_Linear_5,188,1,48,48,765697088
59,7,21,Ticks_Linear_5,189,5,42,127,765763948
59,7,21,Ticks_Linear_5,190,1,48,41,766358712
59,7,21,Ticks_Linear_5,191,5,42,127,766433716
59,7,21,Ticks_Linear_5,192,1,48,57,767041768
59,7,21,Ticks_Linear_5,193,5,42,127,767104332
59,7,21,Ticks_Linear_5,194,1,48,61,767660752
59,7,21,Ticks_Linear_5,195,5,42,127,767774036
59,7,21,Ticks_Linear_5,196,1,48,55,768401552
59,7,21,Ticks_Linear_5,197,5,42,127,768454004
59,7,21,Ticks_Linear_5,198,1,48,59,769066540
59,7,21,Ticks_Linear_5,199,5,42,127,769133984
59,7,21,Ticks_Linear_5,200,1,48,55,769734068
59,7,21,Ticks_Linear_5,201,5,42,127,769813812
59,7,21,Ticks_Linear_5,202,1,48,60,770429540
59,7,21,Ticks_Linear_5,203,5,42,127,770493912
59,7,21,Ticks_Linear_5,204,1,48,65,771116488
59,7,21,Ticks_Linear_5,205,5,42,127,771173964
59,7,21,Ticks_Linear_5,206,1,48,63,771814716
59,7,21,Ticks_Linear_5,207,5,42,127,771863980
59,7,21,Ticks_Linear_5,208,1,48,55,772428784
59,7,21,Ticks_Linear_5,209,5,42,127,772554100
59,7,21,Ticks_Linear_5,210,1,48,61,773126344
59,7,21,Ticks_Linear_5,211,5,42,127,773244188
59,7,21,Ticks_Linear_5,212,1,48,55,773871316
59,7,21,Ticks_Linear_5,213,5,42,127,773933396
59,7,21,Ticks_Linear_5,214,1,48,59,774580280
59,7,21,Ticks_Linear_5,215,5,42,127,774623756
59,7,21,Ticks_Linear_5,216,1,48,44,775285124
59,7,21,Ticks_Linear_5,217,5,42,127,775323880
59,7,21,Ticks_Linear_5,218,1,48,32,775992960
59,7,21,Ticks_Linear_5,219,5,42,127,776024448
59,7,21,Ticks_Linear_5,220,1,48,40,776680696
59,7,21,Ticks_Linear_5,221,5,42,127,776734012
59,7,21,Ticks_Linear_5,222,1,48,46,777336560
59,7,21,Ticks_Linear_5,223,5,42,127,777433732
59,7,21,Ticks_Linear_5,224,1,48,49,778062004
59,7,21,Ticks_Linear_5,225,5,42,127,778133784
59,7,21,Ticks_Linear_5,226,1,48,46,778715592
59,7,21,Ticks_Linear_5,227,5,42,127,778843624
59,7,21,Ticks_Linear_5,228,1,48,52,779518608
59,7,21,Ticks_Linear_5,229,5,42,127,779554172
59,7,21,Ticks_Linear_5,230,1,48,55,780167884
59,7,21,Ticks_Linear_5,231,5,42,127,780263772
59,7,21,Ticks_Linear_5,232,1,48,44,780957128
59,7,21,Ticks_Linear_5,233,5,42,127,780973496
59,7,21,Ticks_Linear_5,234,1,48,56,781663168
59,7,21,Ticks_Linear_5,235,5,42,127,781684028
59,7,21,Ticks_Linear_5,236,1,48,63,782403704
59,7,21,Ticks_Linear_5,237,5,42,127,782405040
59,7,21,Ticks_Linear_5,238,1,48,66,783113592
59,7,21,Ticks_Linear_5,239,5,42,127,783123812
59,7,21,Ticks_Linear_5,240,5,42,127,783843616
59,7,21,Ticks_Linear_5,241,1,48,56,783916776
59,7,21,Ticks_Linear_5,242,5,42,127,784563732
59,7,21,Ticks_Linear_5,243,1,48,62,784587296
59,7,21,Ticks_Linear_5,244,1,48,48,785247780
59,7,21,Ticks_Linear_5,245,5,42,127,785283544
59,7,21,Ticks_Linear_5,246,1,48,51,785975088
59,7,21,Ticks_Linear_5,247,5,42,127,786013696
59,7,21,Ticks_Linear_5,248,1,48,47,786648672
59,7,21,Ticks_Linear_5,249,5,42,127,786743776
59,7,21,Ticks_Linear_5,250,5,42,127,787473784
59,7,21,Ticks_Linear_5,251,1,48,53,787476832
59,7,21,Ticks_Linear_5,252,5,42,127,788203912
59,7,21,Ticks_Linear_5,253,1,48,56,788249588
59,7,21,Ticks_Linear_5,254,1,48,53,788921596
59,7,21,Ticks_Linear_5,255,5,42,127,788933912
59,7,21,Ticks_Linear_5,256,1,48,55,789630020
59,7,21,Ticks_Linear_5,257,5,42,127,789674320
59,7,21,Ticks_Linear_5,258,1,48,46,790331876
59,7,21,Ticks_Linear_5,259,5,42,127,790413612
59,7,21,Ticks_Linear_5,260,1,48,52,791113620
59,7,21,Ticks_Linear_5,261,5,42,127,791153948
59,7,21,Ticks_Linear_5,262,1,48,56,791878364
59,7,21,Ticks_Linear_5,263,5,42,127,791894360
59,7,21,Ticks_Linear_5,264,5,42,127,792633808
59,7,21,Ticks_Linear_5,265,1,48,51,792687324
59,7,21,Ticks_Linear_5,266,1,48,54,793350628
59,7,21,Ticks_Linear_5,267,5,42,127,793384472
59,7,21,Ticks_Linear_5,268,1,48,56,794073748
59,7,21,Ticks_Linear_5,269,5,42,127,794133872
59,7,21,Ticks_Linear_5,270,1,48,52,794835500
59,7,21,Ticks_Linear_5,271,5,42,127,794883620
59,7,21,Ticks_Linear_5,272,1,48,52,795618968
59,7,21,Ticks_Linear_5,273,5,42,127,795633992
59,7,21,Ticks_Linear_5,274,5,42,127,796383472
59,7,21,Ticks_Linear_5,275,1,48,20,796422544
59,7,21,Ticks_Linear_5,276,5,42,127,797144552
59,7,21,Ticks_Linear_5,277,1,48,55,797174632
59,7,21,Ticks_Linear_5,278,1,48,49,797880496
59,7,21,Ticks_Linear_5,279,5,42,127,797913416
59,7,21,Ticks_Linear_5,280,1,48,48,798637756
59,7,21,Ticks_Linear_5,281,5,42,127,798674496
59,7,21,Ticks_Linear_5,282,1,48,48,799400112
59,7,21,Ticks_Linear_5,283,5,42,127,799434080
59,7,21,Ticks_Linear_5,284,1,48,53,800194120
59,7,21,Ticks_Linear_5,285,5,42,127,800195456
59,7,21,Ticks_Linear_5,286,1,48,50,800925800
59,7,21,Ticks_Linear_5,287,5,42,127,800963880
59,7,21,Ticks_Linear_5,288,1,48,47,801731204
59,7,21,Ticks_Linear_5,289,5,42,127,801733876
59,7,21,Ticks_Linear_5,290,1,48,40,802435972
59,7,21,Ticks_Linear_5,291,5,42,127,802504236
59,7,21,Ticks_Linear_5,292,1,48,47,803219968
59,7,21,Ticks_Linear_5,293,5,42,127,803274232
59,7,21,Ticks_Linear_5,294,1,48,36,803988164
59,7,21,Ticks_Linear_5,295,5,42,127,804044372
59,7,21,Ticks_Linear_5,296,1,48,46,804765200
59,7,21,Ticks_Linear_5,297,5,42,127,804824328
59,7,21,Ticks_Linear_5,298,1,48,54,805556836
59,7,21,Ticks_Linear_5,299,5,42,127,805613940
59,7,21,Ticks_Linear_5,300,1,48,55,806312980
59,7,21,Ticks_Linear_5,301,5,42,127,806394192
59,7,21,Ticks_Linear_5,302,1,48,57,807124008
59,7,21,Ticks_Linear_5,303,5,42,127,807173472
59,7,21,Ticks_Linear_5,304,1,48,55,807933464
59,7,21,Ticks_Linear_5,305,5,42,127,807953896
59,7,21,Ticks_Linear_5,306,1,48,55,808739200
59,7,21,Ticks_Linear_5,307,5,42,127,808744484
59,7,21,Ticks_Linear_5,308,1,48,58,809501252
59,7,21,Ticks_Linear_5,309,5,42,127,809533728
59,7,21,Ticks_Linear_5,310,1,48,57,810286156
59,7,21,Ticks_Linear_5,311,5,42,127,810324312
59,7,21,Ticks_Linear_5,312,1,48,57,811086472
59,7,21,Ticks_Linear_5,313,5,42,127,811113924
59,7,21,Ticks_Linear_5,314,1,48,54,811843216
59,7,21,Ticks_Linear_5,315,5,42,127,811904436
59,7,21,Ticks_Linear_5,316,1,48,36,812630204
59,7,21,Ticks_Linear_5,317,5,42,127,812704012
59,7,21,Ticks_Linear_5,318,1,48,57,813394064
59,7,21,Ticks_Linear_5,319,5,42,127,813503872
59,7,21,Ticks_Linear_5,320,1,48,56,814225908
59,7,21,Ticks_Linear_5,321,5,42,127,814303684
59,7,21,Ticks_Linear_5,322,1,48,54,815066448
59,7,21,Ticks_Linear_5,323,5,42,127,815104304
59,7,21,Ticks_Linear_5,324,1,48,37,815876728
59,7,21,Ticks_Linear_5,325,5,42,127,815904128
59,7,21,Ticks_Linear_5,326,1,48,55,816621104
59,7,21,Ticks_Linear_5,327,5,42,127,816714396
59,7,21,Ticks_Linear_5,328,1,48,53,817423784
59,7,21,Ticks_Linear_5,329,5,42,127,817524080
59,7,21,Ticks_Linear_5,330,1,48,54,818315164
59,7,21,Ticks_Linear_5,331,5,42,127,818334228
59,7,21,Ticks_Linear_5,332,1,48,52,819125376
59,7,21,Ticks_Linear_5,333,5,42,127,819144284
59,7,21,Ticks_Linear_5,334,1,48,51,819932368
59,7,21,Ticks_Linear_5,335,5,42,127,819954192
59,7,21,Ticks_Linear_5,0,9999,9999,9999,710721644
59,7,21,Ticks_Linear_5,1,9999,9999,9999,711201892
59,7,21,Ticks_Linear_5,2,9999,9999,9999,711681144
59,7,21,Ticks_Linear_5,3,9999,9999,9999,712161396
59,7,21,Ticks_Linear_5,4,9999,9999,9999,712641644
59,7,21,Ticks_Linear_5,5,9999,9999,9999,713131084
59,7,21,Ticks_Linear_5,6,9999,9999,9999,713621572
59,7,21,Ticks_Linear_5,7,9999,9999,9999,714112060
59,7,21,Ticks_Linear_5,8,9999,9999,9999,714611828
59,7,21,Ticks_Linear_5,9,9999,9999,9999,715101264
59,7,21,Ticks_Linear_5,10,9999,9999,9999,715602012
59,7,21,Ticks_Linear_5,11,9999,9999,9999,716101712
59,7,21,Ticks_Linear_5,12,9999,9999,9999,716601412
59,7,21,Ticks_Linear_5,13,9999,9999,9999,717101112
59,7,21,Ticks_Linear_5,14,9999,9999,9999,717601860
59,7,21,Ticks_Linear_5,15,9999,9999,9999,718111820
59,7,21,Ticks_Linear_5,16,9999,9999,9999,718621776
59,7,21,Ticks_Linear_5,17,9999,9999,9999,719131736
59,7,21,Ticks_Linear_5,18,9999,9999,9999,719641696
59,7,21,Ticks_Linear_5,19,9999,9999,9999,720151656
59,7,21,Ticks_Linear_5,20,9999,9999,9999,720671800
59,7,21,Ticks_Linear_5,21,9999,9999,9999,721192016
59,7,21,Ticks_Linear_5,22,9999,9999,9999,721711188
59,7,21,Ticks_Linear_5,23,9999,9999,9999,722231404
59,7,21,Ticks_Linear_5,24,9999,9999,9999,722751548
59,7,21,Ticks_Linear_5,25,9999,9999,9999,723282024
59,7,21,Ticks_Linear_5,26,9999,9999,9999,723811456
59,7,21,Ticks_Linear_5,27,9999,9999,9999,724341856
59,7,21,Ticks_Linear_5,28,9999,9999,9999,724871288
59,7,21,Ticks_Linear_5,29,9999,9999,9999,725401692
59,7,21,Ticks_Linear_5,30,9999,9999,9999,725941308
59,7,21,Ticks_Linear_5,31,9999,9999,9999,726482044
59,7,21,Ticks_Linear_5,32,9999,9999,9999,727021660
59,7,21,Ticks_Linear_5,33,9999,9999,9999,727561276
59,7,21,Ticks_Linear_5,34,9999,9999,9999,728102008
59,7,21,Ticks_Linear_5,35,9999,9999,9999,728651884
59,7,21,Ticks_Linear_5,36,9999,9999,9999,729201760
59,7,21,Ticks_Linear_5,37,9999,9999,9999,729751636
59,7,21,Ticks_Linear_5,38,9999,9999,9999,730301508
59,7,21,Ticks_Linear_5,39,9999,9999,9999,730851380
59,7,21,Ticks_Linear_5,40,9999,9999,9999,731411540
59,7,21,Ticks_Linear_5,41,9999,9999,9999,731971672
59,7,21,Ticks_Linear_5,42,9999,9999,9999,732531804
59,7,21,Ticks_Linear_5,43,9999,9999,9999,733091940
59,7,21,Ticks_Linear_5,44,9999,9999,9999,733652072
59,7,21,Ticks_Linear_5,45,9999,9999,9999,734221368
59,7,21,Ticks_Linear_5,46,9999,9999,9999,734791744
59,7,21,Ticks_Linear_5,47,9999,9999,9999,735361112
59,7,21,Ticks_Linear_5,48,9999,9999,9999,735931496
59,7,21,Ticks_Linear_5,49,9999,9999,9999,736501816
59,7,21,Ticks_Linear_5,50,9999,9999,9999,737081444
59,7,21,Ticks_Linear_5,51,9999,9999,9999,737662020
59,7,21,Ticks_Linear_5,52,9999,9999,9999,738241608
59,7,21,Ticks_Linear_5,53,9999,9999,9999,738821192
59,7,21,Ticks_Linear_5,54,9999,9999,9999,739401832
59,7,21,Ticks_Linear_5,55,9999,9999,9999,739991620
59,7,21,Ticks_Linear_5,56,9999,9999,9999,740581484
59,7,21,Ticks_Linear_5,57,9999,9999,9999,741171284
59,7,21,Ticks_Linear_5,58,9999,9999,9999,741761088
59,7,21,Ticks_Linear_5,59,9999,9999,9999,742352000
59,7,21,Ticks_Linear_5,60,9999,9999,9999,742952000
59,7,21,Ticks_Linear_5,61,9999,9999,9999,743552128
59,7,21,Ticks_Linear_5,62,9999,9999,9999,744161388
59,7,21,Ticks_Linear_5,63,9999,9999,9999,744761460
59,7,21,Ticks_Linear_5,64,9999,9999,9999,745361504
59,7,21,Ticks_Linear_5,65,9999,9999,9999,745971808
59,7,21,Ticks_Linear_5,66,9999,9999,9999,746582144
59,7,21,Ticks_Linear_5,67,9999,9999,9999,747201660
59,7,21,Ticks_Linear_5,68,9999,9999,9999,747811928
59,7,21,Ticks_Linear_5,69,9999,9999,9999,748421188
59,7,21,Ticks_Linear_5,70,9999,9999,9999,749041756
59,7,21,Ticks_Linear_5,71,9999,9999,9999,749661296
59,7,21,Ticks_Linear_5,72,9999,9999,9999,750281784
59,7,21,Ticks_Linear_5,73,9999,9999,9999,750901328
59,7,21,Ticks_Linear_5,74,9999,9999,9999,751521896
59,7,21,Ticks_Linear_5,75,9999,9999,9999,752151632
59,7,21,Ticks_Linear_5,76,9999,9999,9999,752781404
59,7,21,Ticks_Linear_5,77,9999,9999,9999,753411184
59,7,21,Ticks_Linear_5,78,9999,9999,9999,754041960
59,7,21,Ticks_Linear_5,79,9999,9999,9999,754671740
59,7,21,Ticks_Linear_5,80,9999,9999,9999,755311728
59,7,21,Ticks_Linear_5,81,9999,9999,9999,755951692
59,7,21,Ticks_Linear_5,82,9999,9999,9999,756591680
59,7,21,Ticks_Linear_5,83,9999,9999,9999,757231720
59,7,21,Ticks_Linear_5,84,9999,9999,9999,757871708
59,7,21,Ticks_Linear_5,85,9999,9999,9999,758521928
59,7,21,Ticks_Linear_5,86,9999,9999,9999,759171132
59,7,21,Ticks_Linear_5,87,9999,9999,9999,759821376
59,7,21,Ticks_Linear_5,88,9999,9999,9999,760471672
59,7,21,Ticks_Linear_5,89,9999,9999,9999,761121844
59,7,21,Ticks_Linear_5,90,9999,9999,9999,761781356
59,7,21,Ticks_Linear_5,91,9999,9999,9999,762441788
59,7,21,Ticks_Linear_5,92,9999,9999,9999,763101296
59,7,21,Ticks_Linear_5,93,9999,9999,9999,763761728
59,7,21,Ticks_Linear_5,94,9999,9999,9999,764421240
59,7,21,Ticks_Linear_5,95,9999,9999,9999,765091932
59,7,21,Ticks_Linear_5,96,9999,9999,9999,765761652
59,7,21,Ticks_Linear_5,97,9999,9999,9999,766431344
59,7,21,Ticks_Linear_5,98,9999,9999,9999,767102032
59,7,21,Ticks_Linear_5,99,9999,9999,9999,767771740
59,7,21,Ticks_Linear_5,100,9999,9999,9999,768451708
59,7,21,Ticks_Linear_5,101,9999,9999,9999,769131608
59,7,21,Ticks_Linear_5,102,9999,9999,9999,769811516
59,7,21,Ticks_Linear_5,103,9999,9999,9999,770491464
59,7,21,Ticks_Linear_5,104,9999,9999,9999,771171444
59,7,21,Ticks_Linear_5,105,9999,9999,9999,771861608
59,7,21,Ticks_Linear_5,106,9999,9999,9999,772551804
59,7,21,Ticks_Linear_5,107,9999,9999,9999,773241964
59,7,21,Ticks_Linear_5,108,9999,9999,9999,773931096
59,7,21,Ticks_Linear_5,109,9999,9999,9999,774621308
59,7,21,Ticks_Linear_5,110,9999,9999,9999,775321656
59,7,21,Ticks_Linear_5,111,9999,9999,9999,776022076
59,7,21,Ticks_Linear_5,112,9999,9999,9999,776731712
59,7,21,Ticks_Linear_5,113,9999,9999,9999,777431136
59,7,21,Ticks_Linear_5,114,9999,9999,9999,778131560
59,7,21,Ticks_Linear_5,115,9999,9999,9999,778841180
59,7,21,Ticks_Linear_5,116,9999,9999,9999,779551800
59,7,21,Ticks_Linear_5,117,9999,9999,9999,780261488
59,7,21,Ticks_Linear_5,118,9999,9999,9999,780971120
59,7,21,Ticks_Linear_5,119,9999,9999,9999,781681728
59,7,21,Ticks_Linear_5,120,9999,9999,9999,782401628
59,7,21,Ticks_Linear_5,121,9999,9999,9999,783121516
59,7,21,Ticks_Linear_5,122,9999,9999,9999,783841392
59,7,21,Ticks_Linear_5,123,9999,9999,9999,784561208
59,7,21,Ticks_Linear_5,124,9999,9999,9999,785281096
59,7,21,Ticks_Linear_5,125,9999,9999,9999,786011248
59,7,21,Ticks_Linear_5,126,9999,9999,9999,786741328
59,7,21,Ticks_Linear_5,127,9999,9999,9999,787471484
59,7,21,Ticks_Linear_5,128,9999,9999,9999,788201540
59,7,21,Ticks_Linear_5,129,9999,9999,9999,788931688
59,7,21,Ticks_Linear_5,130,9999,9999,9999,789672024
59,7,21,Ticks_Linear_5,131,9999,9999,9999,790411388
59,7,21,Ticks_Linear_5,132,9999,9999,9999,791151724
59,7,21,Ticks_Linear_5,133,9999,9999,9999,791892064
59,7,21,Ticks_Linear_5,134,9999,9999,9999,792631360
59,7,21,Ticks_Linear_5,135,9999,9999,9999,793381948
59,7,21,Ticks_Linear_5,136,9999,9999,9999,794131572
59,7,21,Ticks_Linear_5,137,9999,9999,9999,794881096
59,7,21,Ticks_Linear_5,138,9999,9999,9999,795631692
59,7,21,Ticks_Linear_5,139,9999,9999,9999,796381248
59,7,21,Ticks_Linear_5,140,9999,9999,9999,797142104
59,7,21,Ticks_Linear_5,141,9999,9999,9999,797911116
59,7,21,Ticks_Linear_5,142,9999,9999,9999,798671972
59,7,21,Ticks_Linear_5,143,9999,9999,9999,799431780
59,7,21,Ticks_Linear_5,144,9999,9999,9999,800191596
59,7,21,Ticks_Linear_5,145,9999,9999,9999,800961656
59,7,21,Ticks_Linear_5,146,9999,9999,9999,801731652
59,7,21,Ticks_Linear_5,147,9999,9999,9999,802501716
59,7,21,Ticks_Linear_5,148,9999,9999,9999,803271784
59,7,21,Ticks_Linear_5,149,9999,9999,9999,804041852
59,7,21,Ticks_Linear_5,150,9999,9999,9999,804822104
59,7,21,Ticks_Linear_5,151,9999,9999,9999,805611640
59,7,21,Ticks_Linear_5,152,9999,9999,9999,806391896
59,7,21,Ticks_Linear_5,153,9999,9999,9999,807171176
59,7,21,Ticks_Linear_5,154,9999,9999,9999,807951452
59,7,21,Ticks_Linear_5,155,9999,9999,9999,808741964
59,7,21,Ticks_Linear_5,156,9999,9999,9999,809531504
59,7,21,Ticks_Linear_5,157,9999,9999,9999,810322016
59,7,21,Ticks_Linear_5,158,9999,9999,9999,811111480
59,7,21,Ticks_Linear_5,159,9999,9999,9999,811902064
59,7,21,Ticks_Linear_5,160,9999,9999,9999,812701788
59,7,21,Ticks_Linear_5,161,9999,9999,9999,813501496
59,7,21,Ticks_Linear_5,162,9999,9999,9999,814301312
59,7,21,Ticks_Linear_5,163,9999,9999,9999,815102004
59,7,21,Ticks_Linear_5,164,9999,9999,9999,815901756
59,7,21,Ticks_Linear_5,165,9999,9999,9999,816711740
59,7,21,Ticks_Linear_5,166,9999,9999,9999,817521784
59,7,21,Ticks_Linear_5,167,9999,9999,9999,818331704
59,7,21,Ticks_Linear_5,168,9999,9999,9999,819141688
59,7,21,Ticks_Linear_5,169,9999,9999,9999,819951672
59,8,20,Ticks_Linear_8,0,5,42,127,831417816
59,8,20,Ticks_Linear_8,1,5,42,127,832237928
59,8,20,Ticks_Linear_8,2,5,42,127,833058216
59,8,20,Ticks_Linear_8,3,5,42,127,833878332
59,8,20,Ticks_Linear_8,4,5,42,127,834697772
59,8,20,Ticks_Linear_8,5,1,48,61,834749572
59,8,20,Ticks_Linear_8,6,5,42,127,835507828
59,8,20,Ticks_Linear_8,7,1,48,56,835565700
59,8,20,Ticks_Linear_8,8,5,42,127,836317740
59,8,20,Ticks_Linear_8,9,1,48,54,836337864
59,8,20,Ticks_Linear_8,10,1,48,53,837124744
59,8,20,Ticks_Linear_8,11,5,42,127,837127740
59,8,20,Ticks_Linear_8,12,5,42,127,837937652
59,8,20,Ticks_Linear_8,13,1,48,61,837953948
59,8,20,Ticks_Linear_8,14,5,42,127,838747636
59,8,20,Ticks_Linear_8,15,1,48,58,838763480
59,8,20,Ticks_Linear_8,16,5,42,127,839548260
59,8,20,Ticks_Linear_8,17,1,48,64,839553544
59,8,20,Ticks_Linear_8,18,5,42,127,840348060
59,8,20,Ticks_Linear_8,19,1,48,53,840380832
59,8,20,Ticks_Linear_8,20,1,48,54,841145404
59,8,20,Ticks_Linear_8,21,5,42,127,841147776
59,8,20,Ticks_Linear_8,22,1,48,58,841926564
59,8,20,Ticks_Linear_8,23,5,42,127,841947800
59,8,20,Ticks_Linear_8,24,1,48,45,842735192
59,8,20,Ticks_Linear_8,25,5,42,127,842748200
59,8,20,Ticks_Linear_8,26,1,48,57,843523312
59,8,20,Ticks_Linear_8,27,5,42,127,843537688
59,8,20,Ticks_Linear_8,28,5,42,127,844328280
59,8,20,Ticks_Linear_8,29,1,48,61,844329996
59,8,20,Ticks_Linear_8,30,1,48,58,845069092
59,8,20,Ticks_Linear_8,31,5,42,127,845117736
59,8,20,Ticks_Linear_8,32,1,48,58,845862448
59,8,20,Ticks_Linear_8,33,5,42,127,845908548
59,8,20,Ticks_Linear_8,34,1,48,55,846639560
59,8,20,Ticks_Linear_8,35,5,42,127,846697716
59,8,20,Ticks_Linear_8,36,1,48,65,847445712
59,8,20,Ticks_Linear_8,37,5,42,127,847478192
59,8,20,Ticks_Linear_8,38,1,48,63,848242520
59,8,20,Ticks_Linear_8,39,5,42,127,848258520
59,8,20,Ticks_Linear_8,40,5,42,127,849047916
59,8,20,Ticks_Linear_8,41,1,48,32,849052080
59,8,20,Ticks_Linear_8,42,1,48,61,849810368
59,8,20,Ticks_Linear_8,43,5,42,127,849828312
59,8,20,Ticks_Linear_8,44,1,48,63,850588528
59,8,20,Ticks_Linear_8,45,5,42,127,850607668
59,8,20,Ticks_Linear_8,46,1,48,53,851356280
59,8,20,Ticks_Linear_8,47,5,42,127,851377440
59,8,20,Ticks_Linear_8,48,1,48,49,852131656
59,8,20,Ticks_Linear_8,49,5,42,127,852147580
59,8,20,Ticks_Linear_8,50,1,48,59,852890648
59,8,20,Ticks_Linear_8,51,5,42,127,852917572
59,8,20,Ticks_Linear_8,52,1,48,61,853624912
59,8,20,Ticks_Linear_8,53,5,42,127,853687640
59,8,20,Ticks_Linear_8,54,5,42,127,854457716
59,8,20,Ticks_Linear_8,55,1,48,52,854480528
59,8,20,Ticks_Linear_8,56,5,42,127,855217524
59,8,20,Ticks_Linear_8,57,1,48,55,855236444
59,8,20,Ticks_Linear_8,58,1,48,64,855959688
59,8,20,Ticks_Linear_8,59,5,42,127,855978296
59,8,20,Ticks_Linear_8,60,1,48,63,856707144
59,8,20,Ticks_Linear_8,61,5,42,127,856738256
59,8,20,Ticks_Linear_8,62,5,42,127,857497848
59,8,20,Ticks_Linear_8,63,1,48,52,857512200
59,8,20,Ticks_Linear_8,64,5,42,127,858257660
59,8,20,Ticks_Linear_8,65,1,48,28,858265040
59,8,20,Ticks_Linear_8,66,5,42,127,859008628
59,8,20,Ticks_Linear_8,67,1,48,50,859041328
59,8,20,Ticks_Linear_8,68,5,42,127,859757956
59,8,20,Ticks_Linear_8,69,1,48,38,859760624
59,8,20,Ticks_Linear_8,70,1,48,51,860497204
59,8,20,Ticks_Linear_8,71,5,42,127,860507500
59,8,20,Ticks_Linear_8,72,1,48,55,861243596
59,8,20,Ticks_Linear_8,73,5,42,127,861258320
59,8,20,Ticks_Linear_8,74,5,42,127,862007580
59,8,20,Ticks_Linear_8,75,1,48,47,862008916
59,8,20,Ticks_Linear_8,76,1,48,54,862740376
59,8,20,Ticks_Linear_8,77,5,42,127,862748132
59,8,20,Ticks_Linear_8,78,1,48,46,863435672
59,8,20,Ticks_Linear_8,79,5,42,127,863488372
59,8,20,Ticks_Linear_8,80,1,48,55,864193988
59,8,20,Ticks_Linear_8,81,5,42,127,864227736
59,8,20,Ticks_Linear_8,82,5,42,127,864968080
59,8,20,Ticks_Linear_8,83,1,48,65,865001680
59,8,20,Ticks_Linear_8,84,5,42,127,865708420
59,8,20,Ticks_Linear_8,85,1,48,59,865740592
59,8,20,Ticks_Linear_8,86,5,42,127,866437448
59,8,20,Ticks_Linear_8,87,1,48,54,866508492
59,8,20,Ticks_Linear_8,88,1,48,55,867112136
59,8,20,Ticks_Linear_8,89,5,42,127,867167596
59,8,20,Ticks_Linear_8,90,1,48,59,867888048
59,8,20,Ticks_Linear_8,91,5,42,127,867897676
59,8,20,Ticks_Linear_8,92,5,42,127,868627760
59,8,20,Ticks_Linear_8,93,1,48,35,868667276
59,8,20,Ticks_Linear_8,94,1,48,53,869332968
59,8,20,Ticks_Linear_8,95,5,42,127,869357880
59,8,20,Ticks_Linear_8,96,1,48,56,870065532
59,8,20,Ticks_Linear_8,97,5,42,127,870077700
59,8,20,Ticks_Linear_8,98,5,42,127,870797604
59,8,20,Ticks_Linear_8,99,1,48,57,870863100
59,8,20,Ticks_Linear_8,100,5,42,127,871517496
59,8,20,Ticks_Linear_8,101,1,48,45,871533336
59,8,20,Ticks_Linear_8,102,1,48,51,872223332
59,8,20,Ticks_Linear_8,103,5,42,127,872237384
59,8,20,Ticks_Linear_8,104,1,48,55,872939160
59,8,20,Ticks_Linear_8,105,5,42,127,872958224
59,8,20,Ticks_Linear_8,106,5,42,127,873668164
59,8,20,Ticks_Linear_8,107,1,48,51,873724300
59,8,20,Ticks_Linear_8,108,5,42,127,874377648
59,8,20,Ticks_Linear_8,109,1,48,46,874382332
59,8,20,Ticks_Linear_8,110,5,42,127,875088256
59,8,20,Ticks_Linear_8,111,1,48,49,875156304
59,8,20,Ticks_Linear_8,112,5,42,127,875797816
59,8,20,Ticks_Linear_8,113,1,48,51,875800408
59,8,20,Ticks_Linear_8,114,5,42,127,876507428
59,8,20,Ticks_Linear_8,115,1,48,47,876544908
59,8,20,Ticks_Linear_8,116,5,42,127,877208072
59,8,20,Ticks_Linear_8,117,1,48,49,877260468
59,8,20,Ticks_Linear_8,118,5,42,127,877908420
59,8,20,Ticks_Linear_8,119,1,48,47,877953920
59,8,20,Ticks_Linear_8,120,5,42,127,878607720
59,8,20,Ticks_Linear_8,121,1,48,32,878615472
59,8,20,Ticks_Linear_8,122,5,42,127,879308196
59,8,20,Ticks_Linear_8,123,1,48,44,879334524
59,8,20,Ticks_Linear_8,124,5,42,127,880007568
59,8,20,Ticks_Linear_8,125,1,48,38,880063104
59,8,20,Ticks_Linear_8,126,5,42,127,880697660
59,8,20,Ticks_Linear_8,127,1,48,52,880742636
59,8,20,Ticks_Linear_8,128,5,42,127,881388020
59,8,20,Ticks_Linear_8,129,1,48,46,881460060
59,8,20,Ticks_Linear_8,130,5,42,127,882077960
59,8,20,Ticks_Linear_8,131,1,48,50,882109760
59,8,20,Ticks_Linear_8,132,1,48,46,882762976
59,8,20,Ticks_Linear_8,133,5,42,127,882768264
59,8,20,Ticks_Linear_8,134,5,42,127,883458408
59,8,20,Ticks_Linear_8,135,1,48,58,883476912
59,8,20,Ticks_Linear_8,136,1,48,54,884108836
59,8,20,Ticks_Linear_8,137,5,42,127,884147672
59,8,20,Ticks_Linear_8,138,1,48,58,884817204
59,8,20,Ticks_Linear_8,139,5,42,127,884827424
59,8,20,Ticks_Linear_8,140,5,42,127,885507312
59,8,20,Ticks_Linear_8,141,1,48,67,885524652
59,8,20,Ticks_Linear_8,142,1,48,63,886178832
59,8,20,Ticks_Linear_8,143,5,42,127,886188304
59,8,20,Ticks_Linear_8,144,1,48,56,886864712
59,8,20,Ticks_Linear_8,145,5,42,127,886868508
59,8,20,Ticks_Linear_8,146,5,42,127,887537912
59,8,20,Ticks_Linear_8,147,1,48,58,887582536
59,8,20,Ticks_Linear_8,148,5,42,127,888207852
59,8,20,Ticks_Linear_8,149,1,48,55,888249092
59,8,20,Ticks_Linear_8,150,5,42,127,888877420
59,8,20,Ticks_Linear_8,151,1,48,51,888913784
59,8,20,Ticks_Linear_8,152,5,42,127,889548088
59,8,20,Ticks_Linear_8,153,1,48,55,889584152
59,8,20,Ticks_Linear_8,154,5,42,127,890217960
59,8,20,Ticks_Linear_8,155,1,48,44,890219372
59,8,20,Ticks_Linear_8,156,5,42,127,890878292
59,8,20,Ticks_Linear_8,157,1,48,47,890892964
59,8,20,Ticks_Linear_8,158,5,42,127,891537752
59,8,20,Ticks_Linear_8,159,1,48,42,891565888
59,8,20,Ticks_Linear_8,160,1,48,20,892183524
59,8,20,Ticks_Linear_8,161,5,42,127,892198180
59,8,20,Ticks_Linear_8,162,5,42,127,892857768
59,8,20,Ticks_Linear_8,163,1,48,51,892869500
59,8,20,Ticks_Linear_8,164,5,42,127,893518204
59,8,20,Ticks_Linear_8,165,1,48,48,893531652
59,8,20,Ticks_Linear_8,166,5,42,127,894168652
59,8,20,Ticks_Linear_8,167,1,48,50,894179184
59,8,20,Ticks_Linear_8,168,1,48,59,894809936
59,8,20,Ticks_Linear_8,169,5,42,127,894827956
59,8,20,Ticks_Linear_8,170,5,42,127,895478184
59,8,20,Ticks_Linear_8,171,1,48,54,895488200
59,8,20,Ticks_Linear_8,172,5,42,127,896128580
59,8,20,Ticks_Linear_8,173,1,48,40,896168920
59,8,20,Ticks_Linear_8,174,1,48,46,896759880
59,8,20,Ticks_Linear_8,175,5,42,127,896777768
59,8,20,Ticks_Linear_8,176,5,42,127,897417592
59,8,20,Ticks_Linear_8,177,1,48,47,897448864
59,8,20,Ticks_Linear_8,178,5,42,127,898057800
59,8,20,Ticks_Linear_8,179,1,48,54,898636632
59,8,20,Ticks_Linear_8,180,5,42,127,898697780
59,8,20,Ticks_Linear_8,181,1,48,53,899292172
59,8,20,Ticks_Linear_8,182,5,42,127,899337696
59,8,20,Ticks_Linear_8,183,1,48,52,899954544
59,8,20,Ticks_Linear_8,184,5,42,127,899977736
59,8,20,Ticks_Linear_8,185,1,48,50,900575800
59,8,20,Ticks_Linear_8,186,5,42,127,900608708
59,8,20,Ticks_Linear_8,187,5,42,127,901238148
59,8,20,Ticks_Linear_8,188,1,48,54,901246736
59,8,20,Ticks_Linear_8,189,5,42,127,901868004
59,8,20,Ticks_Linear_8,190,1,48,55,901898488
59,8,20,Ticks_Linear_8,191,1,48,47,901933800
59,8,20,Ticks_Linear_8,192,5,42,127,902497564
59,8,20,Ticks_Linear_8,193,1,48,59,902508024
59,8,20,Ticks_Linear_8,194,5,42,127,903128612
59,8,20,Ticks_Linear_8,195,1,48,46,903182680
59,8,20,Ticks_Linear_8,196,1,48,51,903756448
59,8,20,Ticks_Linear_8,197,5,42,127,903758040
59,8,20,Ticks_Linear_8,198,1,48,38,904372940
59,8,20,Ticks_Linear_8,199,5,42,127,904377708
59,8,20,Ticks_Linear_8,200,1,48,45,904986808
59,8,20,Ticks_Linear_8,201,5,42,127,904998376
59,8,20,Ticks_Linear_8,202,1,48,46,905597784
59,8,20,Ticks_Linear_8,203,5,42,127,905617744
59,8,20,Ticks_Linear_8,204,1,48,53,906188472
59,8,20,Ticks_Linear_8,205,5,42,127,906238536
59,8,20,Ticks_Linear_8,206,1,48,47,906824036
59,8,20,Ticks_Linear_8,207,5,42,127,906847600
59,8,20,Ticks_Linear_8,208,1,48,55,907424088
59,8,20,Ticks_Linear_8,209,5,42,127,907457832
59,8,20,Ticks_Linear_8,210,1,48,52,908033568
59,8,20,Ticks_Linear_8,211,1,48,42,908066860
59,8,20,Ticks_Linear_8,212,5,42,127,908068220
59,8,20,Ticks_Linear_8,213,5,42,127,908677488
59,8,20,Ticks_Linear_8,214,1,48,54,908711984
59,8,20,Ticks_Linear_8,215,5,42,127,909287796
59,8,20,Ticks_Linear_8,216,1,48,52,909315880
59,8,20,Ticks_Linear_8,217,5,42,127,909887796
59,8,20,Ticks_Linear_8,218,1,48,48,909894128
59,8,20,Ticks_Linear_8,219,5,42,127,910487916
59,8,20,Ticks_Linear_8,220,1,48,46,910496808
59,8,20,Ticks_Linear_8,221,5,42,127,911087892
59,8,20,Ticks_Linear_8,222,1,48,57,911110432
59,8,20,Ticks_Linear_8,223,5,42,127,911688116
59,8,20,Ticks_Linear_8,224,1,48,48,911689600
59,8,20,Ticks_Linear_8,225,1,48,62,912245800
59,8,20,Ticks_Linear_8,226,5,42,127,912288084
59,8,20,Ticks_Linear_8,227,1,48,55,912849820
59,8,20,Ticks_Linear_8,228,5,42,127,912878020
59,8,20,Ticks_Linear_8,229,5,42,127,913467768
59,8,20,Ticks_Linear_8,230,1,48,58,913481968
59,8,20,Ticks_Linear_8,231,1,48,55,914048672
59,8,20,Ticks_Linear_8,232,5,42,127,914057476
59,8,20,Ticks_Linear_8,233,1,48,58,914594268
59,8,20,Ticks_Linear_8,234,5,42,127,914648536
59,8,20,Ticks_Linear_8,235,1,48,51,915230196
59,8,20,Ticks_Linear_8,236,5,42,127,915247540
59,8,20,Ticks_Linear_8,237,5,42,127,915828052
59,8,20,Ticks_Linear_8,238,1,48,40,915842400
59,8,20,Ticks_Linear_8,239,5,42,127,916407732
59,8,20,Ticks_Linear_8,240,1,48,44,916432192
59,8,20,Ticks_Linear_8,241,5,42,127,916988456
59,8,20,Ticks_Linear_8,242,1,48,46,917005836
59,8,20,Ticks_Linear_8,243,5,42,127,917567864
59,8,20,Ticks_Linear_8,244,1,48,46,917579520
59,8,20,Ticks_Linear_8,245,1,48,47,918089160
59,8,20,Ticks_Linear_8,246,5,42,127,918147464
59,8,20,Ticks_Linear_8,247,1,48,51,918640604
59,8,20,Ticks_Linear_8,248,5,42,127,918717784
59,8,20,Ticks_Linear_8,249,1,48,47,919272780
59,8,20,Ticks_Linear_8,250,5,42,127,919288324
59,8,20,Ticks_Linear_8,251,1,48,49,919808356
59,8,20,Ticks_Linear_8,252,5,42,127,919857472
59,8,20,Ticks_Linear_8,253,1,48,44,920420332
59,8,20,Ticks_Linear_8,254,5,42,127,920427792
59,8,20,Ticks_Linear_8,255,5,42,127,920998416
59,8,20,Ticks_Linear_8,256,1,48,48,921001312
59,8,20,Ticks_Linear_8,257,5,42,127,921558400
59,8,20,Ticks_Linear_8,258,1,48,44,921587356
59,8,20,Ticks_Linear_8,259,5,42,127,922117436
59,8,20,Ticks_Linear_8,260,1,48,49,922121896
59,8,20,Ticks_Linear_8,261,1,48,46,922673396
59,8,20,Ticks_Linear_8,262,5,42,127,922677564
59,8,20,Ticks_Linear_8,263,1,48,41,923221252
59,8,20,Ticks_Linear_8,264,5,42,127,923237696
59,8,20,Ticks_Linear_8,265,1,48,42,923750980
59,8,20,Ticks_Linear_8,266,5,42,127,923797904
59,8,20,Ticks_Linear_8,267,5,42,127,924347636
59,8,20,Ticks_Linear_8,268,1,48,34,924348604
59,8,20,Ticks_Linear_8,269,5,42,127,924897584
59,8,20,Ticks_Linear_8,270,1,48,47,924913500
59,8,20,Ticks_Linear_8,271,5,42,127,925447484
59,8,20,Ticks_Linear_8,272,1,48,41,925489544
59,8,20,Ticks_Linear_8,273,5,42,127,925997432
59,8,20,Ticks_Linear_8,274,1,48,46,925998548
59,8,20,Ticks_Linear_8,275,5,42,127,926548280
59,8,20,Ticks_Linear_8,276,1,48,44,926561436
59,8,20,Ticks_Linear_8,277,5,42,127,927088044
59,8,20,Ticks_Linear_8,278,1,48,51,927109436
59,8,20,Ticks_Linear_8,279,1,48,52,927606948
59,8,20,Ticks_Linear_8,280,5,42,127,927627580
59,8,20,Ticks_Linear_8,281,1,48,46,928126712
59,8,20,Ticks_Linear_8,282,5,42,127,928168168
59,8,20,Ticks_Linear_8,283,1,48,14,928648952
59,8,20,Ticks_Linear_8,284,5,42,127,928708228
59,8,20,Ticks_Linear_8,285,1,48,48,929196140
59,8,20,Ticks_Linear_8,286,5,42,127,929247696
59,8,20,Ticks_Linear_8,287,1,48,48,929741136
59,8,20,Ticks_Linear_8,288,5,42,127,929778248
59,8,20,Ticks_Linear_8,289,1,48,48,930291604
59,8,20,Ticks_Linear_8,290,5,42,127,930307404
59,8,20,Ticks_Linear_8,291,1,48,61,930818152
59,8,20,Ticks_Linear_8,292,5,42,127,930838104
59,8,20,Ticks_Linear_8,293,1,48,63,931340984
59,8,20,Ticks_Linear_8,294,5,42,127,931368212
59,8,20,Ticks_Linear_8,295,1,48,53,931868468
59,8,20,Ticks_Linear_8,296,5,42,127,931897864
59,8,20,Ticks_Linear_8,297,5,42,127,932417944
59,8,20,Ticks_Linear_8,298,1,48,59,932429300
59,8,20,Ticks_Linear_8,299,1,48,58,932929804
59,8,20,Ticks_Linear_8,300,5,42,127,932938080
59,8,20,Ticks_Linear_8,301,1,48,55,933457552
59,8,20,Ticks_Linear_8,302,5,42,127,933459196
59,8,20,Ticks_Linear_8,303,1,48,51,933972480
59,8,20,Ticks_Linear_8,304,5,42,127,933977396
59,8,20,Ticks_Linear_8,305,1,48,56,934433312
59,8,20,Ticks_Linear_8,306,5,42,127,934497688
59,8,20,Ticks_Linear_8,307,1,48,59,934976608
59,8,20,Ticks_Linear_8,308,5,42,127,935007572
59,8,20,Ticks_Linear_8,309,1,48,57,935504748
59,8,20,Ticks_Linear_8,310,5,42,127,935517532
59,8,20,Ticks_Linear_8,311,5,42,127,936027424
59,8,20,Ticks_Linear_8,312,1,48,46,936028388
59,8,20,Ticks_Linear_8,313,5,42,127,936537532
59,8,20,Ticks_Linear_8,314,1,48,55,936559900
59,8,20,Ticks_Linear_8,315,5,42,127,937048540
59,8,20,Ticks_Linear_8,316,1,48,54,937050628
59,8,20,Ticks_Linear_8,317,1,48,58,937539732
59,8,20,Ticks_Linear_8,318,5,42,127,937558272
59,8,20,Ticks_Linear_8,319,1,48,41,938031788
59,8,20,Ticks_Linear_8,320,5,42,127,938058044
59,8,20,Ticks_Linear_8,321,1,48,48,938490056
59,8,20,Ticks_Linear_8,322,5,42,127,938557892
59,8,20,Ticks_Linear_8,323,1,48,50,939041444
59,8,20,Ticks_Linear_8,324,5,42,127,939057516
59,8,20,Ticks_Linear_8,325,1,48,57,939545036
59,8,20,Ticks_Linear_8,326,5,42,127,939558264
59,8,20,Ticks_Linear_8,327,5,42,127,940047936
59,8,20,Ticks_Linear_8,328,1,48,59,940503020
59,8,20,Ticks_Linear_8,329,5,42,127,940538116
59,8,20,Ticks_Linear_8,330,1,48,52,940963332
59,8,20,Ticks_Linear_8,331,5,42,127,941028080
59,8,20,Ticks_Linear_8,332,1,48,51,941458024
59,8,20,Ticks_Linear_8,333,5,42,127,941518196
59,8,20,Ticks_Linear_8,334,1,48,49,941984224
59,8,20,Ticks_Linear_8,335,5,42,127,942007788
59,8,20,Ticks_Linear_8,0,9999,9999,9999,831415364
59,8,20,Ticks_Linear_8,1,9999,9999,9999,832235628
59,8,20,Ticks_Linear_8,2,9999,9999,9999,833055840
59,8,20,Ticks_Linear_8,3,9999,9999,9999,833876032
59,8,20,Ticks_Linear_8,4,9999,9999,9999,834695248
59,8,20,Ticks_Linear_8,5,9999,9999,9999,835505232
59,8,20,Ticks_Linear_8,6,9999,9999,9999,836315216
59,8,20,Ticks_Linear_8,7,9999,9999,9999,837125192
59,8,20,Ticks_Linear_8,8,9999,9999,9999,837935204
59,8,20,Ticks_Linear_8,9,9999,9999,9999,838745188
59,8,20,Ticks_Linear_8,10,9999,9999,9999,839545960
59,8,20,Ticks_Linear_8,11,9999,9999,9999,840345684
59,8,20,Ticks_Linear_8,12,9999,9999,9999,841145472
59,8,20,Ticks_Linear_8,13,9999,9999,9999,841945200
59,8,20,Ticks_Linear_8,14,9999,9999,9999,842745972
59,8,20,Ticks_Linear_8,15,9999,9999,9999,843535460
59,8,20,Ticks_Linear_8,16,9999,9999,9999,844325980
59,8,20,Ticks_Linear_8,17,9999,9999,9999,845115512
59,8,20,Ticks_Linear_8,18,9999,9999,9999,845906024
59,8,20,Ticks_Linear_8,19,9999,9999,9999,846695488
59,8,20,Ticks_Linear_8,20,9999,9999,9999,847475816
59,8,20,Ticks_Linear_8,21,9999,9999,9999,848256072
59,8,20,Ticks_Linear_8,22,9999,9999,9999,849045616
59,8,20,Ticks_Linear_8,23,9999,9999,9999,849825860
59,8,20,Ticks_Linear_8,24,9999,9999,9999,850605144
59,8,20,Ticks_Linear_8,25,9999,9999,9999,851375212
59,8,20,Ticks_Linear_8,26,9999,9999,9999,852145280
59,8,20,Ticks_Linear_8,27,9999,9999,9999,852915272
59,8,20,Ticks_Linear_8,28,9999,9999,9999,853685340
59,8,20,Ticks_Linear_8,29,9999,9999,9999,854455412
59,8,20,Ticks_Linear_8,30,9999,9999,9999,855215224
59,8,20,Ticks_Linear_8,31,9999,9999,9999,855975996
59,8,20,Ticks_Linear_8,32,9999,9999,9999,856735808
59,8,20,Ticks_Linear_8,33,9999,9999,9999,857495620
59,8,20,Ticks_Linear_8,34,9999,9999,9999,858255432
59,8,20,Ticks_Linear_8,35,9999,9999,9999,859006028
59,8,20,Ticks_Linear_8,36,9999,9999,9999,859755580
59,8,20,Ticks_Linear_8,37,9999,9999,9999,860505200
59,8,20,Ticks_Linear_8,38,9999,9999,9999,861255796
59,8,20,Ticks_Linear_8,39,9999,9999,9999,862005352
59,8,20,Ticks_Linear_8,40,9999,9999,9999,862745684
59,8,20,Ticks_Linear_8,41,9999,9999,9999,863486072
59,8,20,Ticks_Linear_8,42,9999,9999,9999,864225360
59,8,20,Ticks_Linear_8,43,9999,9999,9999,864965704
59,8,20,Ticks_Linear_8,44,9999,9999,9999,865706040
59,8,20,Ticks_Linear_8,45,9999,9999,9999,866435148
59,8,20,Ticks_Linear_8,46,9999,9999,9999,867165296
59,8,20,Ticks_Linear_8,47,9999,9999,9999,867895372
59,8,20,Ticks_Linear_8,48,9999,9999,9999,868625532
59,8,20,Ticks_Linear_8,49,9999,9999,9999,869355580
59,8,20,Ticks_Linear_8,50,9999,9999,9999,870075476
59,8,20,Ticks_Linear_8,51,9999,9999,9999,870795376
59,8,20,Ticks_Linear_8,52,9999,9999,9999,871515192
59,8,20,Ticks_Linear_8,53,9999,9999,9999,872235084
59,8,20,Ticks_Linear_8,54,9999,9999,9999,872955996
59,8,20,Ticks_Linear_8,55,9999,9999,9999,873665640
59,8,20,Ticks_Linear_8,56,9999,9999,9999,874375272
59,8,20,Ticks_Linear_8,57,9999,9999,9999,875085880
59,8,20,Ticks_Linear_8,58,9999,9999,9999,875795512
59,8,20,Ticks_Linear_8,59,9999,9999,9999,876505200
59,8,20,Ticks_Linear_8,60,9999,9999,9999,877205620
59,8,20,Ticks_Linear_8,61,9999,9999,9999,877906044
59,8,20,Ticks_Linear_8,62,9999,9999,9999,878605420
59,8,20,Ticks_Linear_8,63,9999,9999,9999,879305816
59,8,20,Ticks_Linear_8,64,9999,9999,9999,880005192
59,8,20,Ticks_Linear_8,65,9999,9999,9999,880695356
59,8,20,Ticks_Linear_8,66,9999,9999,9999,881385568
59,8,20,Ticks_Linear_8,67,9999,9999,9999,882075732
59,8,20,Ticks_Linear_8,68,9999,9999,9999,882765888
59,8,20,Ticks_Linear_8,69,9999,9999,9999,883456108
59,8,20,Ticks_Linear_8,70,9999,9999,9999,884145220
59,8,20,Ticks_Linear_8,71,9999,9999,9999,884825200
59,8,20,Ticks_Linear_8,72,9999,9999,9999,885505084
59,8,20,Ticks_Linear_8,73,9999,9999,9999,886186080
59,8,20,Ticks_Linear_8,74,9999,9999,9999,886865984
59,8,20,Ticks_Linear_8,75,9999,9999,9999,887535684
59,8,20,Ticks_Linear_8,76,9999,9999,9999,888205404
59,8,20,Ticks_Linear_8,77,9999,9999,9999,888875120
59,8,20,Ticks_Linear_8,78,9999,9999,9999,889545788
59,8,20,Ticks_Linear_8,79,9999,9999,9999,890215508
59,8,20,Ticks_Linear_8,80,9999,9999,9999,890875992
59,8,20,Ticks_Linear_8,81,9999,9999,9999,891535452
59,8,20,Ticks_Linear_8,82,9999,9999,9999,892195952
59,8,20,Ticks_Linear_8,83,9999,9999,9999,892855392
59,8,20,Ticks_Linear_8,84,9999,9999,9999,893515900
59,8,20,Ticks_Linear_8,85,9999,9999,9999,894166128
59,8,20,Ticks_Linear_8,86,9999,9999,9999,894825580
59,8,20,Ticks_Linear_8,87,9999,9999,9999,895475808
59,8,20,Ticks_Linear_8,88,9999,9999,9999,896126056
59,8,20,Ticks_Linear_8,89,9999,9999,9999,896775244
59,8,20,Ticks_Linear_8,90,9999,9999,9999,897415288
59,8,20,Ticks_Linear_8,91,9999,9999,9999,898055276
59,8,20,Ticks_Linear_8,92,9999,9999,9999,898695256
59,8,20,Ticks_Linear_8,93,9999,9999,9999,899335244
59,8,20,Ticks_Linear_8,94,9999,9999,9999,899975284
59,8,20,Ticks_Linear_8,95,9999,9999,9999,900606036
59,8,20,Ticks_Linear_8,96,9999,9999,9999,901235772
59,8,20,Ticks_Linear_8,97,9999,9999,9999,901865552
59,8,20,Ticks_Linear_8,98,9999,9999,9999,902495336
59,8,20,Ticks_Linear_8,99,9999,9999,9999,903126092
59,8,20,Ticks_Linear_8,100,9999,9999,9999,903755836
59,8,20,Ticks_Linear_8,101,9999,9999,9999,904375408
59,8,20,Ticks_Linear_8,102,9999,9999,9999,904995924
59,8,20,Ticks_Linear_8,103,9999,9999,9999,905615444
59,8,20,Ticks_Linear_8,104,9999,9999,9999,906236012
59,8,20,Ticks_Linear_8,105,9999,9999,9999,906845300
59,8,20,Ticks_Linear_8,106,9999,9999,9999,907455608
59,8,20,Ticks_Linear_8,107,9999,9999,9999,908065924
59,8,20,Ticks_Linear_8,108,9999,9999,9999,908675188
59,8,20,Ticks_Linear_8,109,9999,9999,9999,909285496
59,8,20,Ticks_Linear_8,110,9999,9999,9999,909885496
59,8,20,Ticks_Linear_8,111,9999,9999,9999,910485616
59,8,20,Ticks_Linear_8,112,9999,9999,9999,911085664
59,8,20,Ticks_Linear_8,113,9999,9999,9999,911685740
59,8,20,Ticks_Linear_8,114,9999,9999,9999,912285784
59,8,20,Ticks_Linear_8,115,9999,9999,9999,912875644
59,8,20,Ticks_Linear_8,116,9999,9999,9999,913465468
59,8,20,Ticks_Linear_8,117,9999,9999,9999,914055248
59,8,20,Ticks_Linear_8,118,9999,9999,9999,914646088
59,8,20,Ticks_Linear_8,119,9999,9999,9999,915245164
59,8,20,Ticks_Linear_8,120,9999,9999,9999,915825748
59,8,20,Ticks_Linear_8,121,9999,9999,9999,916405356
59,8,20,Ticks_Linear_8,122,9999,9999,9999,916985932
59,8,20,Ticks_Linear_8,123,9999,9999,9999,917565560
59,8,20,Ticks_Linear_8,124,9999,9999,9999,918145088
59,8,20,Ticks_Linear_8,125,9999,9999,9999,918715484
59,8,20,Ticks_Linear_8,126,9999,9999,9999,919285876
59,8,20,Ticks_Linear_8,127,9999,9999,9999,919855172
59,8,20,Ticks_Linear_8,128,9999,9999,9999,920425564
59,8,20,Ticks_Linear_8,129,9999,9999,9999,920995964
59,8,20,Ticks_Linear_8,130,9999,9999,9999,921556024
59,8,20,Ticks_Linear_8,131,9999,9999,9999,922115136
59,8,20,Ticks_Linear_8,132,9999,9999,9999,922675264
59,8,20,Ticks_Linear_8,133,9999,9999,9999,923235396
59,8,20,Ticks_Linear_8,134,9999,9999,9999,923795528
59,8,20,Ticks_Linear_8,135,9999,9999,9999,924345408
59,8,20,Ticks_Linear_8,136,9999,9999,9999,924895356
59,8,20,Ticks_Linear_8,137,9999,9999,9999,925445184
59,8,20,Ticks_Linear_8,138,9999,9999,9999,925995132
59,8,20,Ticks_Linear_8,139,9999,9999,9999,926545976
59,8,20,Ticks_Linear_8,140,9999,9999,9999,927085668
59,8,20,Ticks_Linear_8,141,9999,9999,9999,927625276
59,8,20,Ticks_Linear_8,142,9999,9999,9999,928165940
59,8,20,Ticks_Linear_8,143,9999,9999,9999,928705628
59,8,20,Ticks_Linear_8,144,9999,9999,9999,929245244
59,8,20,Ticks_Linear_8,145,9999,9999,9999,929775724
59,8,20,Ticks_Linear_8,146,9999,9999,9999,930305104
59,8,20,Ticks_Linear_8,147,9999,9999,9999,930835580
59,8,20,Ticks_Linear_8,148,9999,9999,9999,931365984
59,8,20,Ticks_Linear_8,149,9999,9999,9999,931895416
59,8,20,Ticks_Linear_8,150,9999,9999,9999,932415568
59,8,20,Ticks_Linear_8,151,9999,9999,9999,932935780
59,8,20,Ticks_Linear_8,152,9999,9999,9999,933455928
59,8,20,Ticks_Linear_8,153,9999,9999,9999,933975096
59,8,20,Ticks_Linear_8,154,9999,9999,9999,934495312
59,8,20,Ticks_Linear_8,155,9999,9999,9999,935005272
59,8,20,Ticks_Linear_8,156,9999,9999,9999,935515232
59,8,20,Ticks_Linear_8,157,9999,9999,9999,936025196
59,8,20,Ticks_Linear_8,158,9999,9999,9999,936535156
59,8,20,Ticks_Linear_8,159,9999,9999,9999,937046092
59,8,20,Ticks_Linear_8,160,9999,9999,9999,937556044
59,8,20,Ticks_Linear_8,161,9999,9999,9999,938055744
59,8,20,Ticks_Linear_8,162,9999,9999,9999,938555516
59,8,20,Ticks_Linear_8,163,9999,9999,9999,939055216
59,8,20,Ticks_Linear_8,164,9999,9999,9999,939555964
59,8,20,Ticks_Linear_8,165,9999,9999,9999,940045412
59,8,20,Ticks_Linear_8,166,9999,9999,9999,940535892
59,8,20,Ticks_Linear_8,167,9999,9999,9999,941025408
59,8,20,Ticks_Linear_8,168,9999,9999,9999,941515896
59,8,20,Ticks_Linear_8,169,9999,9999,9999,942005336
59,9,10,Ticks_ISO_T2_5,0,5,42,127,952436144
59,9,10,Ticks_ISO_T2_5,1,5,42,127,952935860
59,9,10,Ticks_ISO_T2_5,2,5,42,127,953435724
59,9,10,Ticks_ISO_T2_5,3,5,42,127,953936116
59,9,10,Ticks_ISO_T2_5,4,5,42,127,954435908
59,9,10,Ticks_ISO_T2_5,5,1,48,58,954488848
59,9,10,Ticks_ISO_T2_5,6,5,42,127,954935828
59,9,10,Ticks_ISO_T2_5,7,1,48,65,954951064
59,9,10,Ticks_ISO_T2_5,8,5,42,127,955436272
59,9,10,Ticks_ISO_T2_5,9,1,48,62,955446044
59,9,10,Ticks_ISO_T2_5,10,5,42,127,955935964
59,9,10,Ticks_ISO_T2_5,11,1,48,68,955951648
59,9,10,Ticks_ISO_T2_5,12,5,42,127,956435956
59,9,10,Ticks_ISO_T2_5,13,1,48,59,956456132
59,9,10,Ticks_ISO_T2_5,14,5,42,127,956935876
59,9,10,Ticks_ISO_T2_5,15,1,48,59,956941320
59,9,10,Ticks_ISO_T2_5,16,1,48,54,957417784
59,9,10,Ticks_ISO_T2_5,17,5,42,127,957436288
59,9,10,Ticks_ISO_T2_5,18,1,48,54,957921292
59,9,10,Ticks_ISO_T2_5,19,5,42,127,957935984
59,9,10,Ticks_ISO_T2_5,20,5,42,127,958435908
59,9,10,Ticks_ISO_T2_5,21,1,48,74,958470544
59,9,10,Ticks_ISO_T2_5,22,1,48,59,958921428
59,9,10,Ticks_ISO_T2_5,23,5,42,127,958936496
59,9,10,Ticks_ISO_T2_5,24,1,48,59,959435744
59,9,10,Ticks_ISO_T2_5,25,5,42,127,959437092
59,9,10,Ticks_ISO_T2_5,26,5,42,127,959935964
59,9,10,Ticks_ISO_T2_5,27,1,48,55,959937304
59,9,10,Ticks_ISO_T2_5,28,1,48,56,960417596
59,9,10,Ticks_ISO_T2_5,29,5,42,127,960435656
59,9,10,Ticks_ISO_T2_5,30,1,48,35,960919984
59,9,10,Ticks_ISO_T2_5,31,5,42,127,960936172
59,9,10,Ticks_ISO_T2_5,32,5,42,127,961435948
59,9,10,Ticks_ISO_T2_5,33,1,48,38,961451336
59,9,10,Ticks_ISO_T2_5,34,1,48,46,961911592
59,9,10,Ticks_ISO_T2_5,35,5,42,127,961935712
59,9,10,Ticks_ISO_T2_5,36,1,48,56,962412404
59,9,10,Ticks_ISO_T2_5,37,5,42,127,962435628
59,9,10,Ticks_ISO_T2_5,38,1,48,54,962908292
59,9,10,Ticks_ISO_T2_5,39,5,42,127,962936072
59,9,10,Ticks_ISO_T2_5,40,1,48,51,963399604
59,9,10,Ticks_ISO_T2_5,41,5,42,127,963435768
59,9,10,Ticks_ISO_T2_5,42,1,48,46,963869904
59,9,10,Ticks_ISO_T2_5,43,5,42,127,963935608
59,9,10,Ticks_ISO_T2_5,44,1,48,51,964399148
59,9,10,Ticks_ISO_T2_5,45,5,42,127,964436424
59,9,10,Ticks_ISO_T2_5,46,1,48,42,964884024
59,9,10,Ticks_ISO_T2_5,47,5,42,127,964935896
59,9,10,Ticks_ISO_T2_5,48,1,48,47,965382376
59,9,10,Ticks_ISO_T2_5,49,5,42,127,965435740
59,9,10,Ticks_ISO_T2_5,50,1,48,39,965875164
59,9,10,Ticks_ISO_T2_5,51,5,42,127,965935660
59,9,10,Ticks_ISO_T2_5,52,1,48,41,966418188
59,9,10,Ticks_ISO_T2_5,53,5,42,127,966436324
59,9,10,Ticks_ISO_T2_5,54,1,48,49,966906712
59,9,10,Ticks_ISO_T2_5,55,5,42,127,966936020
59,9,10,Ticks_ISO_T2_5,56,5,42,127,967435724
59,9,10,Ticks_ISO_T2_5,57,1,48,51,967919440
59,9,10,Ticks_ISO_T2_5,58,5,42,127,967936404
59,9,10,Ticks_ISO_T2_5,59,1,48,49,968378448
59,9,10,Ticks_ISO_T2_5,60,5,42,127,968436000
59,9,10,Ticks_ISO_T2_5,61,1,48,47,968926084
59,9,10,Ticks_ISO_T2_5,62,5,42,127,968935692
59,9,10,Ticks_ISO_T2_5,63,1,48,54,969432732
59,9,10,Ticks_ISO_T2_5,64,5,42,127,969435388
59,9,10,Ticks_ISO_T2_5,65,5,42,127,969936432
59,9,10,Ticks_ISO_T2_5,66,1,48,52,969941572
59,9,10,Ticks_ISO_T2_5,67,1,48,56,970421876
59,9,10,Ticks_ISO_T2_5,68,5,42,127,970435972
59,9,10,Ticks_ISO_T2_5,69,1,48,59,970911400
59,9,10,Ticks_ISO_T2_5,70,5,42,127,970935744
59,9,10,Ticks_ISO_T2_5,71,1,48,44,971412440
59,9,10,Ticks_ISO_T2_5,72,5,42,127,971436560
59,9,10,Ticks_ISO_T2_5,73,5,42,127,971936484
59,9,10,Ticks_ISO_T2_5,74,1,48,48,971946264
59,9,10,Ticks_ISO_T2_5,75,5,42,127,972435804
59,9,10,Ticks_ISO_T2_5,76,1,48,58,972437748
59,9,10,Ticks_ISO_T2_5,77,5,42,127,972935652
59,9,10,Ticks_ISO_T2_5,78,1,48,55,972948268
59,9,10,Ticks_ISO_T2_5,79,1,48,50,973433360
59,9,10,Ticks_ISO_T2_5,80,5,42,127,973436460
59,9,10,Ticks_ISO_T2_5,81,1,48,44,973880848
59,9,10,Ticks_ISO_T2_5,82,5,42,127,973935932
59,9,10,Ticks_ISO_T2_5,83,1,48,58,974430732
59,9,10,Ticks_ISO_T2_5,84,5,42,127,974435628
59,9,10,Ticks_ISO_T2_5,85,1,48,59,974929232
59,9,10,Ticks_ISO_T2_5,86,5,42,127,974936520
59,9,10,Ticks_ISO_T2_5,87,5,42,127,975436072
59,9,10,Ticks_ISO_T2_5,88,1,48,50,975457520
59,9,10,Ticks_ISO_T2_5,89,1,48,60,975925628
59,9,10,Ticks_ISO_T2_5,90,5,42,127,975935832
59,9,10,Ticks_ISO_T2_5,91,5,42,127,976435536
59,9,10,Ticks_ISO_T2_5,92,1,48,54,976438580
59,9,10,Ticks_ISO_T2_5,93,5,42,127,976936500
59,9,10,Ticks_ISO_T2_5,94,1,48,59,976964976
59,9,10,Ticks_ISO_T2_5,95,1,48,51,977430620
59,9,10,Ticks_ISO_T2_5,96,5,42,127,977435964
59,9,10,Ticks_ISO_T2_5,97,1,48,56,977913908
59,9,10,Ticks_ISO_T2_5,98,5,42,127,977935732
59,9,10,Ticks_ISO_T2_5,99,1,48,57,978420556
59,9,10,Ticks_ISO_T2_5,100,5,42,127,978435424
59,9,10,Ticks_ISO_T2_5,101,1,48,67,978925788
59,9,10,Ticks_ISO_T2_5,102,5,42,127,978936440
59,9,10,Ticks_ISO_T2_5,103,1,48,56,979420324
59,9,10,Ticks_ISO_T2_5,104,5,42,127,979435764
59,9,10,Ticks_ISO_T2_5,105,1,48,65,979929440
59,9,10,Ticks_ISO_T2_5,106,5,42,127,979935532
59,9,10,Ticks_ISO_T2_5,107,1,48,62,980406992
59,9,10,Ticks_ISO_T2_5,108,5,42,127,980436420
59,9,10,Ticks_ISO_T2_5,109,1,48,53,980873252
59,9,10,Ticks_ISO_T2_5,110,5,42,127,980936340
59,9,10,Ticks_ISO_T2_5,111,1,48,54,981394712
59,9,10,Ticks_ISO_T2_5,112,5,42,127,981435660
59,9,10,Ticks_ISO_T2_5,113,1,48,57,981913108
59,9,10,Ticks_ISO_T2_5,114,5,42,127,981935432
59,9,10,Ticks_ISO_T2_5,115,1,48,38,982431500
59,9,10,Ticks_ISO_T2_5,116,5,42,127,982436396
59,9,10,Ticks_ISO_T2_5,117,1,48,65,982927832
59,9,10,Ticks_ISO_T2_5,118,5,42,127,982935940
59,9,10,Ticks_ISO_T2_5,119,1,48,53,983430816
59,9,10,Ticks_ISO_T2_5,120,5,42,127,983435564
59,9,10,Ticks_ISO_T2_5,121,1,48,58,983897896
59,9,10,Ticks_ISO_T2_5,122,5,42,127,983936232
59,9,10,Ticks_ISO_T2_5,123,1,48,56,984414120
59,9,10,Ticks_ISO_T2_5,124,5,42,127,984436000
59,9,10,Ticks_ISO_T2_5,125,1,48,59,984918532
59,9,10,Ticks_ISO_T2_5,126,5,42,127,984935696
59,9,10,Ticks_ISO_T2_5,127,1,48,59,985404984
59,9,10,Ticks_ISO_T2_5,128,5,42,127,985435464
59,9,10,Ticks_ISO_T2_5,129,1,48,59,985915076
59,9,10,Ticks_ISO_T2_5,130,5,42,127,985936204
59,9,10,Ticks_ISO_T2_5,131,1,48,53,986415596
59,9,10,Ticks_ISO_T2_5,132,5,42,127,986436048
59,9,10,Ticks_ISO_T2_5,133,5,42,127,986935600
59,9,10,Ticks_ISO_T2_5,134,1,48,60,986948368
59,9,10,Ticks_ISO_T2_5,135,5,42,127,987436420
59,9,10,Ticks_ISO_T2_5,136,1,48,47,987437460
59,9,10,Ticks_ISO_T2_5,137,5,42,127,987936260
59,9,10,Ticks_ISO_T2_5,138,1,48,57,987942672
59,9,10,Ticks_ISO_T2_5,139,1,48,52,988421260
59,9,10,Ticks_ISO_T2_5,140,5,42,127,988435800
59,9,10,Ticks_ISO_T2_5,141,5,42,127,988935652
59,9,10,Ticks_ISO_T2_5,142,1,48,60,988941984
59,9,10,Ticks_ISO_T2_5,143,1,48,55,989428472
59,9,10,Ticks_ISO_T2_5,144,5,42,127,989436212
59,9,10,Ticks_ISO_T2_5,145,1,48,41,989898852
59,9,10,Ticks_ISO_T2_5,146,5,42,127,989936276
59,9,10,Ticks_ISO_T2_5,147,1,48,59,990417168
59,9,10,Ticks_ISO_T2_5,148,5,42,127,990435672
59,9,10,Ticks_ISO_T2_5,149,1,48,58,990912220
59,9,10,Ticks_ISO_T2_5,150,5,42,127,990936344
59,9,10,Ticks_ISO_T2_5,151,1,48,49,991427852
59,9,10,Ticks_ISO_T2_5,152,5,42,127,991436188
59,9,10,Ticks_ISO_T2_5,153,1,48,48,991893432
59,9,10,Ticks_ISO_T2_5,154,5,42,127,991935804
59,9,10,Ticks_ISO_T2_5,155,1,48,54,992413548
59,9,10,Ticks_ISO_T2_5,156,5,42,127,992435648
59,9,10,Ticks_ISO_T2_5,157,1,48,56,992900976
59,9,10,Ticks_ISO_T2_5,158,5,42,127,992936316
59,9,10,Ticks_ISO_T2_5,159,1,48,50,993404940
59,9,10,Ticks_ISO_T2_5,160,5,42,127,993436084
59,9,10,Ticks_ISO_T2_5,161,1,48,51,993884660
59,9,10,Ticks_ISO_T2_5,162,5,42,127,993935932
59,9,10,Ticks_ISO_T2_5,163,1,48,69,994396848
59,9,10,Ticks_ISO_T2_5,164,5,42,127,994435400
59,9,10,Ticks_ISO_T2_5,165,1,48,60,994879112
59,9,10,Ticks_ISO_T2_5,166,5,42,127,994936144
59,9,10,Ticks_ISO_T2_5,167,1,48,58,995406860
59,9,10,Ticks_ISO_T2_5,168,5,42,127,995435988
59,9,10,Ticks_ISO_T2_5,169,1,48,53,995909320
59,9,10,Ticks_ISO_T2_5,170,5,42,127,995935460
59,9,10,Ticks_ISO_T2_5,171,1,48,53,996393084
59,9,10,Ticks_ISO_T2_5,172,5,42,127,996436424
59,9,10,Ticks_ISO_T2_5,173,1,48,48,996906240
59,9,10,Ticks_ISO_T2_5,174,5,42,127,996936044
59,9,10,Ticks_ISO_T2_5,175,1,48,55,997422392
59,9,10,Ticks_ISO_T2_5,176,5,42,127,997435812
59,9,10,Ticks_ISO_T2_5,177,1,48,60,997909444
59,9,10,Ticks_ISO_T2_5,178,5,42,127,997935508
59,9,10,Ticks_ISO_T2_5,179,1,48,60,998429712
59,9,10,Ticks_ISO_T2_5,180,5,42,127,998436252
59,9,10,Ticks_ISO_T2_5,181,1,48,61,998928436
59,9,10,Ticks_ISO_T2_5,182,5,42,127,998936092
59,9,10,Ticks_ISO_T2_5,183,5,42,127,999435500
59,9,10,Ticks_ISO_T2_5,184,1,48,61,999439064
59,9,10,Ticks_ISO_T2_5,185,5,42,127,999936464
59,9,10,Ticks_ISO_T2_5,186,1,48,59,999937428
59,9,10,Ticks_ISO_T2_5,187,5,42,127,1000436132
59,9,10,Ticks_ISO_T2_5,188,1,48,59,1000466952
59,9,10,Ticks_ISO_T2_5,189,5,42,127,1000935828
59,9,10,Ticks_ISO_T2_5,190,1,48,64,1000980332
59,9,10,Ticks_ISO_T2_5,191,5,42,127,1001435376
59,9,10,Ticks_ISO_T2_5,192,1,48,53,1001447548
59,9,10,Ticks_ISO_T2_5,193,5,42,127,1001936192
59,9,10,Ticks_ISO_T2_5,194,1,48,62,1001948884
59,9,10,Ticks_ISO_T2_5,195,1,48,53,1002414232
59,9,10,Ticks_ISO_T2_5,196,5,42,127,1002436028
59,9,10,Ticks_ISO_T2_5,197,1,48,52,1002930152
59,9,10,Ticks_ISO_T2_5,198,5,42,127,1002935796
59,9,10,Ticks_ISO_T2_5,199,5,42,127,1003436324
59,9,10,Ticks_ISO_T2_5,200,1,48,54,1003444308
59,9,10,Ticks_ISO_T2_5,201,1,48,54,1003899700
59,9,10,Ticks_ISO_T2_5,202,5,42,127,1003936160
59,9,10,Ticks_ISO_T2_5,203,1,48,62,1004432908
59,9,10,Ticks_ISO_T2_5,204,5,42,127,1004435932
59,9,10,Ticks_ISO_T2_5,205,5,42,127,1004935484
59,9,10,Ticks_ISO_T2_5,206,1,48,54,1004951244
59,9,10,Ticks_ISO_T2_5,207,1,48,51,1005417636
59,9,10,Ticks_ISO_T2_5,208,5,42,127,1005436292
59,9,10,Ticks_ISO_T2_5,209,1,48,66,1005932964
59,9,10,Ticks_ISO_T2_5,210,5,42,127,1005935988
59,9,10,Ticks_ISO_T2_5,211,5,42,127,1006435764
59,9,10,Ticks_ISO_T2_5,212,1,48,56,1006447640
59,9,10,Ticks_ISO_T2_5,213,5,42,127,1006936360
59,9,10,Ticks_ISO_T2_5,214,1,48,53,1006966932
59,9,10,Ticks_ISO_T2_5,215,1,48,54,1007414692
59,9,10,Ticks_ISO_T2_5,216,5,42,127,1007436564
59,9,10,Ticks_ISO_T2_5,217,1,48,57,1007933624
59,9,10,Ticks_ISO_T2_5,218,5,42,127,1007935816
59,9,10,Ticks_ISO_T2_5,219,1,48,42,1008413632
59,9,10,Ticks_ISO_T2_5,220,5,42,127,1008435732
59,9,10,Ticks_ISO_T2_5,221,1,48,67,1008888176
59,9,10,Ticks_ISO_T2_5,222,5,42,127,1008936252
59,9,10,Ticks_ISO_T2_5,223,1,48,55,1009409436
59,9,10,Ticks_ISO_T2_5,224,5,42,127,1009435944
59,9,10,Ticks_ISO_T2_5,225,1,48,57,1009901548
59,9,10,Ticks_ISO_T2_5,226,5,42,127,1009935940
59,9,10,Ticks_ISO_T2_5,227,1,48,68,1010410444
59,9,10,Ticks_ISO_T2_5,228,5,42,127,1010435484
59,9,10,Ticks_ISO_T2_5,229,1,48,50,1010894960
59,9,10,Ticks_ISO_T2_5,230,5,42,127,1010936132
59,9,10,Ticks_ISO_T2_5,231,1,48,46,1011407744
59,9,10,Ticks_ISO_T2_5,232,5,42,127,1011435976
59,9,10,Ticks_ISO_T2_5,233,1,48,70,1011882828
59,9,10,Ticks_ISO_T2_5,234,5,42,127,1011935820
59,9,10,Ticks_ISO_T2_5,235,1,48,68,1012406984
59,9,10,Ticks_ISO_T2_5,236,5,42,127,1012436264
59,9,10,Ticks_ISO_T2_5,237,1,48,59,1012919992
59,9,10,Ticks_ISO_T2_5,238,5,42,127,1012935960
59,9,10,Ticks_ISO_T2_5,239,5,42,127,1013435884
59,9,10,Ticks_ISO_T2_5,240,1,48,60,1013448652
59,9,10,Ticks_ISO_T2_5,241,5,42,127,1013935432
59,9,10,Ticks_ISO_T2_5,242,1,48,57,1013940572
59,9,10,Ticks_ISO_T2_5,243,5,42,127,1014436244
59,9,10,Ticks_ISO_T2_5,244,1,48,60,1014439440
59,9,10,Ticks_ISO_T2_5,245,1,48,59,1014933428
59,9,10,Ticks_ISO_T2_5,246,5,42,127,1014935860
59,9,10,Ticks_ISO_T2_5,247,5,42,127,1015435784
59,9,10,Ticks_ISO_T2_5,248,1,48,44,1015439128
59,9,10,Ticks_ISO_T2_5,249,5,42,127,1015936304
59,9,10,Ticks_ISO_T2_5,250,1,48,60,1015967772
59,9,10,Ticks_ISO_T2_5,251,5,42,127,1016436072
59,9,10,Ticks_ISO_T2_5,252,1,48,52,1016443008
59,9,10,Ticks_ISO_T2_5,253,1,48,54,1016930640
59,9,10,Ticks_ISO_T2_5,254,5,42,127,1016935908
59,9,10,Ticks_ISO_T2_5,0,9999,9999,9999,952433780
59,9,10,Ticks_ISO_T2_5,1,9999,9999,9999,952933424
59,9,10,Ticks_ISO_T2_5,2,9999,9999,9999,953433140
59,9,10,Ticks_ISO_T2_5,3,9999,9999,9999,953933904
59,9,10,Ticks_ISO_T2_5,4,9999,9999,9999,954433620
59,9,10,Ticks_ISO_T2_5,5,9999,9999,9999,954933316
59,9,10,Ticks_ISO_T2_5,6,9999,9999,9999,955434056
59,9,10,Ticks_ISO_T2_5,7,9999,9999,9999,955933752
59,9,10,Ticks_ISO_T2_5,8,9999,9999,9999,956433520
59,9,10,Ticks_ISO_T2_5,9,9999,9999,9999,956933216
59,9,10,Ticks_ISO_T2_5,10,9999,9999,9999,957433924
59,9,10,Ticks_ISO_T2_5,11,9999,9999,9999,957933620
59,9,10,Ticks_ISO_T2_5,12,9999,9999,9999,958433396
59,9,10,Ticks_ISO_T2_5,13,9999,9999,9999,958934132
59,9,10,Ticks_ISO_T2_5,14,9999,9999,9999,959433836
59,9,10,Ticks_ISO_T2_5,15,9999,9999,9999,959933528
59,9,10,Ticks_ISO_T2_5,16,9999,9999,9999,960433220
59,9,10,Ticks_ISO_T2_5,17,9999,9999,9999,960933960
59,9,10,Ticks_ISO_T2_5,18,9999,9999,9999,961433660
59,9,10,Ticks_ISO_T2_5,19,9999,9999,9999,961933424
59,9,10,Ticks_ISO_T2_5,20,9999,9999,9999,962433116
59,9,10,Ticks_ISO_T2_5,21,9999,9999,9999,962933860
59,9,10,Ticks_ISO_T2_5,22,9999,9999,9999,963433552
59,9,10,Ticks_ISO_T2_5,23,9999,9999,9999,963933248
59,9,10,Ticks_ISO_T2_5,24,9999,9999,9999,964433988
59,9,10,Ticks_ISO_T2_5,25,9999,9999,9999,964933684
59,9,10,Ticks_ISO_T2_5,26,9999,9999,9999,965433452
59,9,10,Ticks_ISO_T2_5,27,9999,9999,9999,965933148
59,9,10,Ticks_ISO_T2_5,28,9999,9999,9999,966433888
59,9,10,Ticks_ISO_T2_5,29,9999,9999,9999,966933584
59,9,10,Ticks_ISO_T2_5,30,9999,9999,9999,967433288
59,9,10,Ticks_ISO_T2_5,31,9999,9999,9999,967934016
59,9,10,Ticks_ISO_T2_5,32,9999,9999,9999,968433784
59,9,10,Ticks_ISO_T2_5,33,9999,9999,9999,968933480
59,9,10,Ticks_ISO_T2_5,34,9999,9999,9999,969433176
59,9,10,Ticks_ISO_T2_5,35,9999,9999,9999,969933924
59,9,10,Ticks_ISO_T2_5,36,9999,9999,9999,970433612
59,9,10,Ticks_ISO_T2_5,37,9999,9999,9999,970933308
59,9,10,Ticks_ISO_T2_5,38,9999,9999,9999,971434048
59,9,10,Ticks_ISO_T2_5,39,9999,9999,9999,971933748
59,9,10,Ticks_ISO_T2_5,40,9999,9999,9999,972433520
59,9,10,Ticks_ISO_T2_5,41,9999,9999,9999,972933216
59,9,10,Ticks_ISO_T2_5,42,9999,9999,9999,973433948
59,9,10,Ticks_ISO_T2_5,43,9999,9999,9999,973933644
59,9,10,Ticks_ISO_T2_5,44,9999,9999,9999,974433340
59,9,10,Ticks_ISO_T2_5,45,9999,9999,9999,974934080
59,9,10,Ticks_ISO_T2_5,46,9999,9999,9999,975433784
59,9,10,Ticks_ISO_T2_5,47,9999,9999,9999,975933544
59,9,10,Ticks_ISO_T2_5,48,9999,9999,9999,976433248
59,9,10,Ticks_ISO_T2_5,49,9999,9999,9999,976933988
59,9,10,Ticks_ISO_T2_5,50,9999,9999,9999,977433676
59,9,10,Ticks_ISO_T2_5,51,9999,9999,9999,977933368
59,9,10,Ticks_ISO_T2_5,52,9999,9999,9999,978433140
59,9,10,Ticks_ISO_T2_5,53,9999,9999,9999,978933856
59,9,10,Ticks_ISO_T2_5,54,9999,9999,9999,979433548
59,9,10,Ticks_ISO_T2_5,55,9999,9999,9999,979933244
59,9,10,Ticks_ISO_T2_5,56,9999,9999,9999,980433984
59,9,10,Ticks_ISO_T2_5,57,9999,9999,9999,980933680
59,9,10,Ticks_ISO_T2_5,58,9999,9999,9999,981433448
59,9,10,Ticks_ISO_T2_5,59,9999,9999,9999,981933144
59,9,10,Ticks_ISO_T2_5,60,9999,9999,9999,982433884
59,9,10,Ticks_ISO_T2_5,61,9999,9999,9999,982933580
59,9,10,Ticks_ISO_T2_5,62,9999,9999,9999,983433276
59,9,10,Ticks_ISO_T2_5,63,9999,9999,9999,983934016
59,9,10,Ticks_ISO_T2_5,64,9999,9999,9999,984433712
59,9,10,Ticks_ISO_T2_5,65,9999,9999,9999,984933480
59,9,10,Ticks_ISO_T2_5,66,9999,9999,9999,985433176
59,9,10,Ticks_ISO_T2_5,67,9999,9999,9999,985933916
59,9,10,Ticks_ISO_T2_5,68,9999,9999,9999,986433612
59,9,10,Ticks_ISO_T2_5,69,9999,9999,9999,986933312
59,9,10,Ticks_ISO_T2_5,70,9999,9999,9999,987434056
59,9,10,Ticks_ISO_T2_5,71,9999,9999,9999,987933748
59,9,10,Ticks_ISO_T2_5,72,9999,9999,9999,988433512
59,9,10,Ticks_ISO_T2_5,73,9999,9999,9999,988933216
59,9,10,Ticks_ISO_T2_5,74,9999,9999,9999,989433924
59,9,10,Ticks_ISO_T2_5,75,9999,9999,9999,989933620
59,9,10,Ticks_ISO_T2_5,76,9999,9999,9999,990433388
59,9,10,Ticks_ISO_T2_5,77,9999,9999,9999,990934128
59,9,10,Ticks_ISO_T2_5,78,9999,9999,9999,991433824
59,9,10,Ticks_ISO_T2_5,79,9999,9999,9999,991933520
59,9,10,Ticks_ISO_T2_5,80,9999,9999,9999,992433212
59,9,10,Ticks_ISO_T2_5,81,9999,9999,9999,992933956
59,9,10,Ticks_ISO_T2_5,82,9999,9999,9999,993433648
59,9,10,Ticks_ISO_T2_5,83,9999,9999,9999,993933420
59,9,10,Ticks_ISO_T2_5,84,9999,9999,9999,994433112
59,9,10,Ticks_ISO_T2_5,85,9999,9999,9999,994933856
59,9,10,Ticks_ISO_T2_5,86,9999,9999,9999,995433552
59,9,10,Ticks_ISO_T2_5,87,9999,9999,9999,995933244
59,9,10,Ticks_ISO_T2_5,88,9999,9999,9999,996433988
59,9,10,Ticks_ISO_T2_5,89,9999,9999,9999,996933684
59,9,10,Ticks_ISO_T2_5,90,9999,9999,9999,997433452
59,9,10,Ticks_ISO_T2_5,91,9999,9999,9999,997933148
59,9,10,Ticks_ISO_T2_5,92,9999,9999,9999,998433888
59,9,10,Ticks_ISO_T2_5,93,9999,9999,9999,998933584
59,9,10,Ticks_ISO_T2_5,94,9999,9999,9999,999433284
59,9,10,Ticks_ISO_T2_5,95,9999,9999,9999,999934024
59,9,10,Ticks_ISO_T2_5,96,9999,9999,9999,1000433768
59,9,10,Ticks_ISO_T2_5,97,9999,9999,9999,1000933464
59,9,10,Ticks_ISO_T2_5,98,9999,9999,9999,1001433160
59,9,10,Ticks_ISO_T2_5,99,9999,9999,9999,1001933904
59,9,10,Ticks_ISO_T2_5,100,9999,9999,9999,1002433592
59,9,10,Ticks_ISO_T2_5,101,9999,9999,9999,1002933360
59,9,10,Ticks_ISO_T2_5,102,9999,9999,9999,1003434036
59,9,10,Ticks_ISO_T2_5,103,9999,9999,9999,1003933800
59,9,10,Ticks_ISO_T2_5,104,9999,9999,9999,1004433496
59,9,10,Ticks_ISO_T2_5,105,9999,9999,9999,1004933196
59,9,10,Ticks_ISO_T2_5,106,9999,9999,9999,1005433932
59,9,10,Ticks_ISO_T2_5,107,9999,9999,9999,1005933628
59,9,10,Ticks_ISO_T2_5,108,9999,9999,9999,1006433400
59,9,10,Ticks_ISO_T2_5,109,9999,9999,9999,1006934072
59,9,10,Ticks_ISO_T2_5,110,9999,9999,9999,1007433832
59,9,10,Ticks_ISO_T2_5,111,9999,9999,9999,1007933492
59,9,10,Ticks_ISO_T2_5,112,9999,9999,9999,1008433224
59,9,10,Ticks_ISO_T2_5,113,9999,9999,9999,1008933964
59,9,10,Ticks_ISO_T2_5,114,9999,9999,9999,1009433660
59,9,10,Ticks_ISO_T2_5,115,9999,9999,9999,1009933428
59,9,10,Ticks_ISO_T2_5,116,9999,9999,9999,1010433124
59,9,10,Ticks_ISO_T2_5,117,9999,9999,9999,1010933844
59,9,10,Ticks_ISO_T2_5,118,9999,9999,9999,1011433540
59,9,10,Ticks_ISO_T2_5,119,9999,9999,9999,1011933236
59,9,10,Ticks_ISO_T2_5,120,9999,9999,9999,1012433976
59,9,10,Ticks_ISO_T2_5,121,9999,9999,9999,1012933748
59,9,10,Ticks_ISO_T2_5,122,9999,9999,9999,1013433448
59,9,10,Ticks_ISO_T2_5,123,9999,9999,9999,1013933144
59,9,10,Ticks_ISO_T2_5,124,9999,9999,9999,1014433884
59,9,10,Ticks_ISO_T2_5,125,9999,9999,9999,1014933572
59,9,10,Ticks_ISO_T2_5,126,9999,9999,9999,1015433272
59,9,10,Ticks_ISO_T2_5,127,9999,9999,9999,1015934012
59,9,10,Ticks_ISO_T2_5,128,9999,9999,9999,1016433784
59,9,10,Ticks_ISO_T2_5,129,9999,9999,9999,1016933472
59,10,9,Ticks_ISO_T2_8,0,5,42,127,1027654972
59,10,9,Ticks_ISO_T2_8,1,5,42,127,1028454728
59,10,9,Ticks_ISO_T2_8,2,5,42,127,1029254628
59,10,9,Ticks_ISO_T2_8,3,5,42,127,1030055284
59,10,9,Ticks_ISO_T2_8,4,5,42,127,1030855184
59,10,9,Ticks_ISO_T2_8,5,1,48,50,1030894132
59,10,9,Ticks_ISO_T2_8,6,1,48,67,1031634088
59,10,9,Ticks_ISO_T2_8,7,5,42,127,1031654692
59,10,9,Ticks_ISO_T2_8,8,1,48,60,1032427092
59,10,9,Ticks_ISO_T2_8,9,5,42,127,1032454448
59,10,9,Ticks_ISO_T2_8,10,1,48,65,1033248992
59,10,9,Ticks_ISO_T2_8,11,5,42,127,1033255452
59,10,9,Ticks_ISO_T2_8,12,1,48,60,1034029576
59,10,9,Ticks_ISO_T2_8,13,5,42,127,1034054964
59,10,9,Ticks_ISO_T2_8,14,1,48,45,1034824892
59,10,9,Ticks_ISO_T2_8,15,5,42,127,1034854768
59,10,9,Ticks_ISO_T2_8,16,1,48,65,1035636220
59,10,9,Ticks_ISO_T2_8,17,5,42,127,1035654428
59,10,9,Ticks_ISO_T2_8,18,1,48,63,1036392872
59,10,9,Ticks_ISO_T2_8,19,5,42,127,1036455512
59,10,9,Ticks_ISO_T2_8,20,1,48,61,1037229856
59,10,9,Ticks_ISO_T2_8,21,5,42,127,1037254872
59,10,9,Ticks_ISO_T2_8,22,1,48,64,1038018296
59,10,9,Ticks_ISO_T2_8,23,5,42,127,1038054828
59,10,9,Ticks_ISO_T2_8,24,5,42,127,1038854444
59,10,9,Ticks_ISO_T2_8,25,1,48,58,1038861828
59,10,9,Ticks_ISO_T2_8,26,5,42,127,1039655596
59,10,9,Ticks_ISO_T2_8,27,1,48,54,1039677796
59,10,9,Ticks_ISO_T2_8,28,5,42,127,1040454884
59,10,9,Ticks_ISO_T2_8,29,1,48,58,1040471616
59,10,9,Ticks_ISO_T2_8,30,5,42,127,1041254692
59,10,9,Ticks_ISO_T2_8,31,1,48,65,1041308752
59,10,9,Ticks_ISO_T2_8,32,5,42,127,1042054648
59,10,9,Ticks_ISO_T2_8,33,1,48,47,1042087912
59,10,9,Ticks_ISO_T2_8,34,1,48,54,1042854900
59,10,9,Ticks_ISO_T2_8,35,5,42,127,1042856396
59,10,9,Ticks_ISO_T2_8,36,5,42,127,1043655308
59,10,9,Ticks_ISO_T2_8,37,1,48,48,1043670328
59,10,9,Ticks_ISO_T2_8,38,5,42,127,1044454896
59,10,9,Ticks_ISO_T2_8,39,1,48,51,1044463852
59,10,9,Ticks_ISO_T2_8,40,5,42,127,1045254428
59,10,9,Ticks_ISO_T2_8,41,1,48,37,1045263388
59,10,9,Ticks_ISO_T2_8,42,1,48,55,1045999124
59,10,9,Ticks_ISO_T2_8,43,5,42,127,1046055128
59,10,9,Ticks_ISO_T2_8,44,1,48,60,1046757940
59,10,9,Ticks_ISO_T2_8,45,5,42,127,1046855216
59,10,9,Ticks_ISO_T2_8,46,5,42,127,1047654824
59,10,9,Ticks_ISO_T2_8,47,1,48,54,1047676196
59,10,9,Ticks_ISO_T2_8,48,5,42,127,1048454408
59,10,9,Ticks_ISO_T2_8,49,1,48,58,1048509360
59,10,9,Ticks_ISO_T2_8,50,5,42,127,1049255264
59,10,9,Ticks_ISO_T2_8,51,1,48,55,1049311564
59,10,9,Ticks_ISO_T2_8,52,5,42,127,1050055292
59,10,9,Ticks_ISO_T2_8,53,1,48,48,1050158448
59,10,9,Ticks_ISO_T2_8,54,5,42,127,1050854728
59,10,9,Ticks_ISO_T2_8,55,1,48,24,1050951444
59,10,9,Ticks_ISO_T2_8,56,5,42,127,1051654488
59,10,9,Ticks_ISO_T2_8,57,1,48,48,1051701212
59,10,9,Ticks_ISO_T2_8,58,5,42,127,1052455196
59,10,9,Ticks_ISO_T2_8,59,1,48,53,1052466992
59,10,9,Ticks_ISO_T2_8,60,1,48,48,1053249424
59,10,9,Ticks_ISO_T2_8,61,5,42,127,1053255068
59,10,9,Ticks_ISO_T2_8,62,1,48,50,1054042208
59,10,9,Ticks_ISO_T2_8,63,5,42,127,1054054728
59,10,9,Ticks_ISO_T2_8,64,5,42,127,1054854540
59,10,9,Ticks_ISO_T2_8,65,1,48,59,1054876060
59,10,9,Ticks_ISO_T2_8,66,1,48,52,1055614888
59,10,9,Ticks_ISO_T2_8,67,5,42,127,1055655240
59,10,9,Ticks_ISO_T2_8,68,1,48,61,1056453092
59,10,9,Ticks_ISO_T2_8,69,5,42,127,1056454900
59,10,9,Ticks_ISO_T2_8,70,1,48,51,1057249444
59,10,9,Ticks_ISO_T2_8,71,5,42,127,1057254856
59,10,9,Ticks_ISO_T2_8,72,1,48,52,1058052036
59,10,9,Ticks_ISO_T2_8,73,5,42,127,1058054616
59,10,9,Ticks_ISO_T2_8,74,5,42,127,1058855252
59,10,9,Ticks_ISO_T2_8,75,1,48,57,1058918284
59,10,9,Ticks_ISO_T2_8,76,5,42,127,1059654912
59,10,9,Ticks_ISO_T2_8,77,1,48,50,1059672096
59,10,9,Ticks_ISO_T2_8,78,5,42,127,1060454868
59,10,9,Ticks_ISO_T2_8,79,1,48,13,1060463824
59,10,9,Ticks_ISO_T2_8,80,1,48,24,1060468292
59,10,9,Ticks_ISO_T2_8,81,1,48,63,1061241080
59,10,9,Ticks_ISO_T2_8,82,5,42,127,1061254424
59,10,9,Ticks_ISO_T2_8,83,5,42,127,1062055136
59,10,9,Ticks_ISO_T2_8,84,1,48,57,1062056552
59,10,9,Ticks_ISO_T2_8,85,1,48,45,1062842864
59,10,9,Ticks_ISO_T2_8,86,5,42,127,1062854940
59,10,9,Ticks_ISO_T2_8,87,1,48,61,1063641624
59,10,9,Ticks_ISO_T2_8,88,5,42,127,1063654968
59,10,9,Ticks_ISO_T2_8,89,5,42,127,1064454364
59,10,9,Ticks_ISO_T2_8,90,1,48,48,1064478204
59,10,9,Ticks_ISO_T2_8,91,5,42,127,1065255292
59,10,9,Ticks_ISO_T2_8,92,1,48,62,1065272924
59,10,9,Ticks_ISO_T2_8,93,5,42,127,1066054952
59,10,9,Ticks_ISO_T2_8,94,1,48,71,1066083580
59,10,9,Ticks_ISO_T2_8,95,5,42,127,1066854760
59,10,9,Ticks_ISO_T2_8,96,1,48,65,1066856172
59,10,9,Ticks_ISO_T2_8,97,5,42,127,1067654492
59,10,9,Ticks_ISO_T2_8,98,1,48,42,1067715428
59,10,9,Ticks_ISO_T2_8,99,5,42,127,1068455196
59,10,9,Ticks_ISO_T2_8,100,1,48,63,1068485092
59,10,9,Ticks_ISO_T2_8,101,5,42,127,1069255004
59,10,9,Ticks_ISO_T2_8,102,1,48,64,1069262536
59,10,9,Ticks_ISO_T2_8,103,1,48,16,1070043332
59,10,9,Ticks_ISO_T2_8,104,1,48,31,1070047720
59,10,9,Ticks_ISO_T2_8,105,5,42,127,1070054636
59,10,9,Ticks_ISO_T2_8,106,1,48,65,1070829804
59,10,9,Ticks_ISO_T2_8,107,5,42,127,1070854464
59,10,9,Ticks_ISO_T2_8,108,1,48,62,1071618036
59,10,9,Ticks_ISO_T2_8,109,5,42,127,1071655320
59,10,9,Ticks_ISO_T2_8,110,1,48,59,1072390768
59,10,9,Ticks_ISO_T2_8,111,5,42,127,1072455056
59,10,9,Ticks_ISO_T2_8,112,1,48,59,1073189084
59,10,9,Ticks_ISO_T2_8,113,5,42,127,1073254788
59,10,9,Ticks_ISO_T2_8,114,1,48,59,1074025544
59,10,9,Ticks_ISO_T2_8,115,5,42,127,1074054596
59,10,9,Ticks_ISO_T2_8,116,1,48,55,1074836648
59,10,9,Ticks_ISO_T2_8,117,5,42,127,1074855376
59,10,9,Ticks_ISO_T2_8,118,1,48,58,1075604360
59,10,9,Ticks_ISO_T2_8,119,5,42,127,1075655036
59,10,9,Ticks_ISO_T2_8,120,5,42,127,1076454924
59,10,9,Ticks_ISO_T2_8,121,1,48,52,1076478340
59,10,9,Ticks_ISO_T2_8,122,1,48,58,1077246860
59,10,9,Ticks_ISO_T2_8,123,5,42,127,1077254600
59,10,9,Ticks_ISO_T2_8,124,1,48,53,1078005652
59,10,9,Ticks_ISO_T2_8,125,5,42,127,1078055232
59,10,9,Ticks_ISO_T2_8,126,5,42,127,1078854972
59,10,9,Ticks_ISO_T2_8,127,1,48,57,1078882024
59,10,9,Ticks_ISO_T2_8,128,5,42,127,1079654852
59,10,9,Ticks_ISO_T2_8,129,1,48,54,1079704200
59,10,9,Ticks_ISO_T2_8,130,5,42,127,1080454440
59,10,9,Ticks_ISO_T2_8,131,1,48,67,1080490620
59,10,9,Ticks_ISO_T2_8,132,5,42,127,1081255664
59,10,9,Ticks_ISO_T2_8,133,1,48,57,1081267016
59,10,9,Ticks_ISO_T2_8,134,1,48,60,1081974880
59,10,9,Ticks_ISO_T2_8,135,5,42,127,1082055096
59,10,9,Ticks_ISO_T2_8,136,1,48,57,1082811712
59,10,9,Ticks_ISO_T2_8,137,5,42,127,1082854828
59,10,9,Ticks_ISO_T2_8,138,5,42,127,1083654668
59,10,9,Ticks_ISO_T2_8,139,1,48,62,1083666468
59,10,9,Ticks_ISO_T2_8,140,5,42,127,1084455376
59,10,9,Ticks_ISO_T2_8,141,1,48,64,1084483628
59,10,9,Ticks_ISO_T2_8,142,1,48,59,1085251400
59,10,9,Ticks_ISO_T2_8,143,5,42,127,1085255100
59,10,9,Ticks_ISO_T2_8,144,1,48,62,1086029900
59,10,9,Ticks_ISO_T2_8,145,5,42,127,1086054836
59,10,9,Ticks_ISO_T2_8,146,1,48,75,1086817512
59,10,9,Ticks_ISO_T2_8,147,5,42,127,1086854640
59,10,9,Ticks_ISO_T2_8,148,1,48,60,1087628616
59,10,9,Ticks_ISO_T2_8,149,5,42,127,1087655276
59,10,9,Ticks_ISO_T2_8,150,5,42,127,1088454940
59,10,9,Ticks_ISO_T2_8,151,1,48,55,1088471820
59,10,9,Ticks_ISO_T2_8,152,1,48,55,1089213792
59,10,9,Ticks_ISO_T2_8,153,5,42,127,1089254740
59,10,9,Ticks_ISO_T2_8,154,1,48,59,1090013148
59,10,9,Ticks_ISO_T2_8,155,5,42,127,1090054572
59,10,9,Ticks_ISO_T2_8,156,1,48,55,1090802636
59,10,9,Ticks_ISO_T2_8,157,5,42,127,1090855352
59,10,9,Ticks_ISO_T2_8,158,1,48,59,1091634412
59,10,9,Ticks_ISO_T2_8,159,5,42,127,1091655236
59,10,9,Ticks_ISO_T2_8,160,1,48,58,1092428836
59,10,9,Ticks_ISO_T2_8,161,5,42,127,1092454896
59,10,9,Ticks_ISO_T2_8,162,1,48,56,1093229092
59,10,9,Ticks_ISO_T2_8,163,5,42,127,1093254628
59,10,9,Ticks_ISO_T2_8,164,1,48,59,1093952156
59,10,9,Ticks_ISO_T2_8,165,5,42,127,1094055392
59,10,9,Ticks_ISO_T2_8,166,1,48,57,1094826460
59,10,9,Ticks_ISO_T2_8,167,5,42,127,1094855140
59,10,9,Ticks_ISO_T2_8,168,5,42,127,1095654660
59,10,9,Ticks_ISO_T2_8,169,1,48,47,1095692436
59,10,9,Ticks_ISO_T2_8,170,5,42,127,1096454568
59,10,9,Ticks_ISO_T2_8,171,1,48,57,1096485360
59,10,9,Ticks_ISO_T2_8,172,5,42,127,1097255348
59,10,9,Ticks_ISO_T2_8,173,1,48,52,1097283448
59,10,9,Ticks_ISO_T2_8,174,1,48,53,1098050404
59,10,9,Ticks_ISO_T2_8,175,5,42,127,1098055300
59,10,9,Ticks_ISO_T2_8,176,1,48,58,1098828300
59,10,9,Ticks_ISO_T2_8,177,5,42,127,1098854812
59,10,9,Ticks_ISO_T2_8,178,5,42,127,1099654480
59,10,9,Ticks_ISO_T2_8,179,1,48,51,1099663956
59,10,9,Ticks_ISO_T2_8,180,1,48,50,1100426944
59,10,9,Ticks_ISO_T2_8,181,5,42,127,1100455400
59,10,9,Ticks_ISO_T2_8,182,1,48,51,1101221516
59,10,9,Ticks_ISO_T2_8,183,5,42,127,1101255132
59,10,9,Ticks_ISO_T2_8,184,1,48,50,1101978392
59,10,9,Ticks_ISO_T2_8,185,5,42,127,1102054716
59,10,9,Ticks_ISO_T2_8,186,1,48,51,1102847416
59,10,9,Ticks_ISO_T2_8,187,5,42,127,1102854476
59,10,9,Ticks_ISO_T2_8,188,5,42,127,1103655336
59,10,9,Ticks_ISO_T2_8,189,1,48,53,1103656304
59,10,9,Ticks_ISO_T2_8,190,5,42,127,1104455144
59,10,9,Ticks_ISO_T2_8,191,1,48,49,1104471580
59,10,9,Ticks_ISO_T2_8,192,5,42,127,1105254728
59,10,9,Ticks_ISO_T2_8,193,1,48,58,1105264732
59,10,9,Ticks_ISO_T2_8,194,1,48,56,1106052344
59,10,9,Ticks_ISO_T2_8,195,5,42,127,1106054456
59,10,9,Ticks_ISO_T2_8,196,1,48,50,1106781232
59,10,9,Ticks_ISO_T2_8,197,5,42,127,1106855312
59,10,9,Ticks_ISO_T2_8,198,1,48,43,1107625316
59,10,9,Ticks_ISO_T2_8,199,5,42,127,1107655192
59,10,9,Ticks_ISO_T2_8,200,5,42,127,1108454860
59,10,9,Ticks_ISO_T2_8,201,1,48,46,1108472812
59,10,9,Ticks_ISO_T2_8,202,5,42,127,1109254468
59,10,9,Ticks_ISO_T2_8,203,1,48,47,1109296260
59,10,9,Ticks_ISO_T2_8,204,5,42,127,1110055172
59,10,9,Ticks_ISO_T2_8,205,1,48,53,1110067192
59,10,9,Ticks_ISO_T2_8,206,5,42,127,1110855276
59,10,9,Ticks_ISO_T2_8,207,1,48,51,1110861168
59,10,9,Ticks_ISO_T2_8,208,1,48,52,1111649064
59,10,9,Ticks_ISO_T2_8,209,5,42,127,1111654856
59,10,9,Ticks_ISO_T2_8,210,5,42,127,1112454448
59,10,9,Ticks_ISO_T2_8,211,1,48,54,1112464600
59,10,9,Ticks_ISO_T2_8,212,5,42,127,1113255228
59,10,9,Ticks_ISO_T2_8,213,1,48,53,1113300164
59,10,9,Ticks_ISO_T2_8,214,1,48,58,1114043252
59,10,9,Ticks_ISO_T2_8,215,5,42,127,1114055180
59,10,9,Ticks_ISO_T2_8,216,1,48,58,1114835060
59,10,9,Ticks_ISO_T2_8,217,5,42,127,1114854912
59,10,9,Ticks_ISO_T2_8,218,5,42,127,1115654528
59,10,9,Ticks_ISO_T2_8,219,1,48,54,1115665052
59,10,9,Ticks_ISO_T2_8,220,5,42,127,1116455236
59,10,9,Ticks_ISO_T2_8,221,1,48,53,1116518792
59,10,9,Ticks_ISO_T2_8,222,5,42,127,1117254968
59,10,9,Ticks_ISO_T2_8,223,1,48,56,1117315532
59,10,9,Ticks_ISO_T2_8,224,1,48,48,1118039628
59,10,9,Ticks_ISO_T2_8,225,5,42,127,1118054992
59,10,9,Ticks_ISO_T2_8,226,1,48,48,1118849532
59,10,9,Ticks_ISO_T2_8,227,5,42,127,1118854428
59,10,9,Ticks_ISO_T2_8,228,5,42,127,1119655212
59,10,9,Ticks_ISO_T2_8,229,1,48,54,1119671872
59,10,9,Ticks_ISO_T2_8,230,1,48,50,1120411148
59,10,9,Ticks_ISO_T2_8,231,5,42,127,1120455016
59,10,9,Ticks_ISO_T2_8,232,1,48,54,1121189640
59,10,9,Ticks_ISO_T2_8,233,5,42,127,1121254972
59,10,9,Ticks_ISO_T2_8,234,1,48,47,1121954896
59,10,9,Ticks_ISO_T2_8,235,5,42,127,1122054492
59,10,9,Ticks_ISO_T2_8,236,1,48,50,1122815904
59,10,9,Ticks_ISO_T2_8,237,5,42,127,1122855284
59,10,9,Ticks_ISO_T2_8,0,9999,9999,9999,1027652684
59,10,9,Ticks_ISO_T2_8,1,9999,9999,9999,1028452440
59,10,9,Ticks_ISO_T2_8,2,9999,9999,9999,1029252192
59,10,9,Ticks_ISO_T2_8,3,9999,9999,9999,1030052920
59,10,9,Ticks_ISO_T2_8,4,9999,9999,9999,1030852676
59,10,9,Ticks_ISO_T2_8,5,9999,9999,9999,1031652404
59,10,9,Ticks_ISO_T2_8,6,9999,9999,9999,1032452160
59,10,9,Ticks_ISO_T2_8,7,9999,9999,9999,1033252940
59,10,9,Ticks_ISO_T2_8,8,9999,9999,9999,1034052676
59,10,9,Ticks_ISO_T2_8,9,9999,9999,9999,1034852408
59,10,9,Ticks_ISO_T2_8,10,9999,9999,9999,1035652140
59,10,9,Ticks_ISO_T2_8,11,9999,9999,9999,1036452924
59,10,9,Ticks_ISO_T2_8,12,9999,9999,9999,1037252660
59,10,9,Ticks_ISO_T2_8,13,9999,9999,9999,1038052468
59,10,9,Ticks_ISO_T2_8,14,9999,9999,9999,1038852156
59,10,9,Ticks_ISO_T2_8,15,9999,9999,9999,1039652936
59,10,9,Ticks_ISO_T2_8,16,9999,9999,9999,1040452672
59,10,9,Ticks_ISO_T2_8,17,9999,9999,9999,1041252404
59,10,9,Ticks_ISO_T2_8,18,9999,9999,9999,1042052212
59,10,9,Ticks_ISO_T2_8,19,9999,9999,9999,1042852916
59,10,9,Ticks_ISO_T2_8,20,9999,9999,9999,1043652724
59,10,9,Ticks_ISO_T2_8,21,9999,9999,9999,1044452460
59,10,9,Ticks_ISO_T2_8,22,9999,9999,9999,1045252140
59,10,9,Ticks_ISO_T2_8,23,9999,9999,9999,1046052916
59,10,9,Ticks_ISO_T2_8,24,9999,9999,9999,1046852708
59,10,9,Ticks_ISO_T2_8,25,9999,9999,9999,1047652460
59,10,9,Ticks_ISO_T2_8,26,9999,9999,9999,1048452196
59,10,9,Ticks_ISO_T2_8,27,9999,9999,9999,1049252976
59,10,9,Ticks_ISO_T2_8,28,9999,9999,9999,1050052708
59,10,9,Ticks_ISO_T2_8,29,9999,9999,9999,1050852440
59,10,9,Ticks_ISO_T2_8,30,9999,9999,9999,1051652200
59,10,9,Ticks_ISO_T2_8,31,9999,9999,9999,1052452980
59,10,9,Ticks_ISO_T2_8,32,9999,9999,9999,1053252708
59,10,9,Ticks_ISO_T2_8,33,9999,9999,9999,1054052440
59,10,9,Ticks_ISO_T2_8,34,9999,9999,9999,1054852180
59,10,9,Ticks_ISO_T2_8,35,9999,9999,9999,1055652956
59,10,9,Ticks_ISO_T2_8,36,9999,9999,9999,1056452712
59,10,9,Ticks_ISO_T2_8,37,9999,9999,9999,1057252420
59,10,9,Ticks_ISO_T2_8,38,9999,9999,9999,1058052180
59,10,9,Ticks_ISO_T2_8,39,9999,9999,9999,1058852964
59,10,9,Ticks_ISO_T2_8,40,9999,9999,9999,1059652700
59,10,9,Ticks_ISO_T2_8,41,9999,9999,9999,1060452432
59,10,9,Ticks_ISO_T2_8,42,9999,9999,9999,1061252212
59,10,9,Ticks_ISO_T2_8,43,9999,9999,9999,1062052924
59,10,9,Ticks_ISO_T2_8,44,9999,9999,9999,1062852724
59,10,9,Ticks_ISO_T2_8,45,9999,9999,9999,1063652460
59,10,9,Ticks_ISO_T2_8,46,9999,9999,9999,1064452148
59,10,9,Ticks_ISO_T2_8,47,9999,9999,9999,1065252928
59,10,9,Ticks_ISO_T2_8,48,9999,9999,9999,1066052664
59,10,9,Ticks_ISO_T2_8,49,9999,9999,9999,1066852472
59,10,9,Ticks_ISO_T2_8,50,9999,9999,9999,1067652204
59,10,9,Ticks_ISO_T2_8,51,9999,9999,9999,1068452984
59,10,9,Ticks_ISO_T2_8,52,9999,9999,9999,1069252716
59,10,9,Ticks_ISO_T2_8,53,9999,9999,9999,1070052420
59,10,9,Ticks_ISO_T2_8,54,9999,9999,9999,1070852180
59,10,9,Ticks_ISO_T2_8,55,9999,9999,9999,1071652960
59,10,9,Ticks_ISO_T2_8,56,9999,9999,9999,1072452692
59,10,9,Ticks_ISO_T2_8,57,9999,9999,9999,1073252424
59,10,9,Ticks_ISO_T2_8,58,9999,9999,9999,1074052160
59,10,9,Ticks_ISO_T2_8,59,9999,9999,9999,1074852940
59,10,9,Ticks_ISO_T2_8,60,9999,9999,9999,1075652672
59,10,9,Ticks_ISO_T2_8,61,9999,9999,9999,1076452412
59,10,9,Ticks_ISO_T2_8,62,9999,9999,9999,1077252164
59,10,9,Ticks_ISO_T2_8,63,9999,9999,9999,1078052944
59,10,9,Ticks_ISO_T2_8,64,9999,9999,9999,1078852680
59,10,9,Ticks_ISO_T2_8,65,9999,9999,9999,1079652416
59,10,9,Ticks_ISO_T2_8,66,9999,9999,9999,1080452152
59,10,9,Ticks_ISO_T2_8,67,9999,9999,9999,1081252932
59,10,9,Ticks_ISO_T2_8,68,9999,9999,9999,1082052660
59,10,9,Ticks_ISO_T2_8,69,9999,9999,9999,1082852464
59,10,9,Ticks_ISO_T2_8,70,9999,9999,9999,1083652156
59,10,9,Ticks_ISO_T2_8,71,9999,9999,9999,1084452936
59,10,9,Ticks_ISO_T2_8,72,9999,9999,9999,1085252664
59,10,9,Ticks_ISO_T2_8,73,9999,9999,9999,1086052400
59,10,9,Ticks_ISO_T2_8,74,9999,9999,9999,1086852204
59,10,9,Ticks_ISO_T2_8,75,9999,9999,9999,1087652912
59,10,9,Ticks_ISO_T2_8,76,9999,9999,9999,1088452728
59,10,9,Ticks_ISO_T2_8,77,9999,9999,9999,1089252452
59,10,9,Ticks_ISO_T2_8,78,9999,9999,9999,1090052212
59,10,9,Ticks_ISO_T2_8,79,9999,9999,9999,1090852916
59,10,9,Ticks_ISO_T2_8,80,9999,9999,9999,1091652724
59,10,9,Ticks_ISO_T2_8,81,9999,9999,9999,1092452460
59,10,9,Ticks_ISO_T2_8,82,9999,9999,9999,1093252192
59,10,9,Ticks_ISO_T2_8,83,9999,9999,9999,1094052956
59,10,9,Ticks_ISO_T2_8,84,9999,9999,9999,1094852704
59,10,9,Ticks_ISO_T2_8,85,9999,9999,9999,1095652444
59,10,9,Ticks_ISO_T2_8,86,9999,9999,9999,1096452204
59,10,9,Ticks_ISO_T2_8,87,9999,9999,9999,1097252912
59,10,9,Ticks_ISO_T2_8,88,9999,9999,9999,1098052712
59,10,9,Ticks_ISO_T2_8,89,9999,9999,9999,1098852448
59,10,9,Ticks_ISO_T2_8,90,9999,9999,9999,1099652192
59,10,9,Ticks_ISO_T2_8,91,9999,9999,9999,1100452964
59,10,9,Ticks_ISO_T2_8,92,9999,9999,9999,1101252696
59,10,9,Ticks_ISO_T2_8,93,9999,9999,9999,1102052428
59,10,9,Ticks_ISO_T2_8,94,9999,9999,9999,1102852188
59,10,9,Ticks_ISO_T2_8,95,9999,9999,9999,1103652976
59,10,9,Ticks_ISO_T2_8,96,9999,9999,9999,1104452708
59,10,9,Ticks_ISO_T2_8,97,9999,9999,9999,1105252440
59,10,9,Ticks_ISO_T2_8,98,9999,9999,9999,1106052212
59,10,9,Ticks_ISO_T2_8,99,9999,9999,9999,1106852948
59,10,9,Ticks_ISO_T2_8,100,9999,9999,9999,1107652684
59,10,9,Ticks_ISO_T2_8,101,9999,9999,9999,1108452424
59,10,9,Ticks_ISO_T2_8,102,9999,9999,9999,1109252180
59,10,9,Ticks_ISO_T2_8,103,9999,9999,9999,1110052960
59,10,9,Ticks_ISO_T2_8,104,9999,9999,9999,1110852692
59,10,9,Ticks_ISO_T2_8,105,9999,9999,9999,1111652420
59,10,9,Ticks_ISO_T2_8,106,9999,9999,9999,1112452160
59,10,9,Ticks_ISO_T2_8,107,9999,9999,9999,1113252940
59,10,9,Ticks_ISO_T2_8,108,9999,9999,9999,1114052668
59,10,9,Ticks_ISO_T2_8,109,9999,9999,9999,1114852400
59,10,9,Ticks_ISO_T2_8,110,9999,9999,9999,1115652164
59,10,9,Ticks_ISO_T2_8,111,9999,9999,9999,1116452948
59,10,9,Ticks_ISO_T2_8,112,9999,9999,9999,1117252680
59,10,9,Ticks_ISO_T2_8,113,9999,9999,9999,1118052408
59,10,9,Ticks_ISO_T2_8,114,9999,9999,9999,1118852212
59,10,9,Ticks_ISO_T2_8,115,9999,9999,9999,1119652924
59,10,9,Ticks_ISO_T2_8,116,9999,9999,9999,1120452728
59,10,9,Ticks_ISO_T2_8,117,9999,9999,9999,1121252460
59,10,9,Ticks_ISO_T2_8,118,9999,9999,9999,1122052204
59,10,9,Ticks_ISO_T2_8,119,9999,9999,9999,1122852924
59,11,25,Jits_Pract_5,0,5,56,103,1165672992
59,11,25,Jits_Pract_5,1,5,63,98,1165676168
59,11,25,Jits_Pract_5,2,5,80,127,1165679212
59,11,25,Jits_Pract_5,0,5,56,103,1166172572
59,11,25,Jits_Pract_5,1,5,63,98,1166175592
59,11,25,Jits_Pract_5,2,5,80,127,1166179012
59,11,25,Jits_Pract_5,0,5,56,103,1166673208
59,11,25,Jits_Pract_5,1,5,80,127,1166682508
59,11,25,Jits_Pract_5,2,5,63,98,1166702892
59,11,25,Jits_Pract_5,0,5,63,98,1167122904
59,11,25,Jits_Pract_5,1,5,80,127,1167152508
59,11,25,Jits_Pract_5,2,5,56,103,1167163148
59,11,25,Jits_Pract_5,0,5,80,127,1167683092
59,11,25,Jits_Pract_5,1,5,56,103,1167693140
59,11,25,Jits_Pract_5,2,5,63,98,1167723112
59,11,25,Jits_Pract_5,0,5,63,98,1168173472
59,11,25,Jits_Pract_5,1,5,56,103,1168203148
59,11,25,Jits_Pract_5,2,5,80,127,1168213492
59,11,25,Jits_Pract_5,0,5,56,103,1168623056
59,11,25,Jits_Pract_5,1,5,63,98,1168673060
59,11,25,Jits_Pract_5,2,5,80,127,1168692548
59,11,25,Jits_Pract_5,0,5,80,127,1169122800
59,11,25,Jits_Pract_5,1,5,63,98,1169173100
59,11,25,Jits_Pract_5,2,5,56,103,1169212892
59,11,25,Jits_Pract_5,0,5,56,103,1169623292
59,11,25,Jits_Pract_5,1,5,63,98,1169653292
59,11,25,Jits_Pract_5,2,5,80,127,1169722896
59,11,25,Jits_Pract_5,0,5,56,103,1170123108
59,11,25,Jits_Pract_5,1,5,80,127,1170182480
59,11,25,Jits_Pract_5,2,5,63,98,1170213128
59,11,25,Jits_Pract_5,0,5,56,103,1170632968
59,11,25,Jits_Pract_5,1,5,63,98,1170643240
59,11,25,Jits_Pract_5,2,5,80,127,1170683128
59,11,25,Jits_Pract_5,0,5,63,98,1171122448
59,11,25,Jits_Pract_5,1,5,80,127,1171202344
59,11,25,Jits_Pract_5,2,5,56,103,1171212760
59,11,25,Jits_Pract_5,0,5,63,98,1171672376
59,11,25,Jits_Pract_5,1,5,56,103,1171713304
59,11,25,Jits_Pract_5,2,5,80,127,1171716380
59,11,25,Jits_Pract_5,0,5,56,103,1172133212
59,11,25,Jits_Pract_5,1,5,63,98,1172142436
59,11,25,Jits_Pract_5,2,5,80,127,1172183344
59,11,25,Jits_Pract_5,0,5,56,103,1172622908
59,11,25,Jits_Pract_5,1,5,63,98,1172625976
59,11,25,Jits_Pract_5,2,5,80,127,1172643148
59,11,25,Jits_Pract_5,0,9999,9999,9999,1165920356
59,11,25,Jits_Pract_5,1,9999,9999,9999,1166421052
59,11,25,Jits_Pract_5,2,9999,9999,9999,1166920800
59,11,25,Jits_Pract_5,3,9999,9999,9999,1167420536
59,11,25,Jits_Pract_5,4,9999,9999,9999,1167920196
59,11,25,Jits_Pract_5,5,9999,9999,9999,1168420916
59,11,25,Jits_Pract_5,6,9999,9999,9999,1168920644
59,11,25,Jits_Pract_5,7,9999,9999,9999,1169420388
59,11,25,Jits_Pract_5,8,9999,9999,9999,1169920056
59,11,25,Jits_Pract_5,9,9999,9999,9999,1170420844
59,11,25,Jits_Pract_5,10,9999,9999,9999,1170920564
59,11,25,Jits_Pract_5,11,9999,9999,9999,1171420232
59,11,25,Jits_Pract_5,12,9999,9999,9999,1171921004
59,11,25,Jits_Pract_5,13,9999,9999,9999,1172420728
59,11,25,Jits_Pract_5,14,9999,9999,9999,1172920384
59,12,25,Jits_Pract_5,0,5,56,103,1244983540
59,12,25,Jits_Pract_5,1,5,63,98,1244986716
59,12,25,Jits_Pract_5,2,5,80,127,1244989916
59,12,25,Jits_Pract_5,0,5,56,103,1245484616
59,12,25,Jits_Pract_5,1,5,63,98,1245487644
59,12,25,Jits_Pract_5,2,5,80,127,1245490836
59,12,25,Jits_Pract_5,0,5,56,103,1245984208
59,12,25,Jits_Pract_5,1,5,80,127,1245994776
59,12,25,Jits_Pract_5,2,5,63,98,1246013892
59,12,25,Jits_Pract_5,0,5,63,98,1246433584
59,12,25,Jits_Pract_5,1,5,80,127,1246464480
59,12,25,Jits_Pract_5,2,5,56,103,1246473628
59,12,25,Jits_Pract_5,0,1,48,56,1246973536
59,12,25,Jits_Pract_5,1,5,80,127,1246993640
59,12,25,Jits_Pract_5,2,5,56,103,1247004208
59,12,25,Jits_Pract_5,3,5,63,98,1247033584
59,12,25,Jits_Pract_5,0,5,63,98,1247493492
59,12,25,Jits_Pract_5,1,5,56,103,1247524288
59,12,25,Jits_Pract_5,2,5,80,127,1247533588
59,12,25,Jits_Pract_5,3,1,48,58,1247552968
59,12,25,Jits_Pract_5,0,5,56,103,1247944012
59,12,25,Jits_Pract_5,1,5,63,98,1247994164
59,12,25,Jits_Pract_5,2,5,80,127,1248013652
59,12,25,Jits_Pract_5,3,1,48,52,1248025836
59,12,25,Jits_Pract_5,0,5,80,127,1248443720
59,12,25,Jits_Pract_5,1,1,48,46,1248478528
59,12,25,Jits_Pract_5,2,5,63,98,1248493840
59,12,25,Jits_Pract_5,3,5,56,103,1248533728
59,12,25,Jits_Pract_5,0,5,56,103,1248943424
59,12,25,Jits_Pract_5,1,5,63,98,1248974144
59,12,25,Jits_Pract_5,2,5,80,127,1249043848
59,12,25,Jits_Pract_5,3,1,48,65,1249045408
59,12,25,Jits_Pract_5,0,5,56,103,1249444324
59,12,25,Jits_Pract_5,1,1,48,65,1249487824
59,12,25,Jits_Pract_5,2,5,80,127,1249503664
59,12,25,Jits_Pract_5,3,5,63,98,1249534336
59,12,25,Jits_Pract_5,0,5,56,103,1249954368
59,12,25,Jits_Pract_5,1,5,63,98,1249964416
59,12,25,Jits_Pract_5,2,1,48,63,1249971368
59,12,25,Jits_Pract_5,3,5,80,127,1250004272
59,12,25,Jits_Pract_5,0,5,63,98,1250443660
59,12,25,Jits_Pract_5,1,1,48,69,1250470296
59,12,25,Jits_Pract_5,2,5,80,127,1250523448
59,12,25,Jits_Pract_5,3,5,56,103,1250533644
59,12,25,Jits_Pract_5,0,5,63,98,1250993476
59,12,25,Jits_Pract_5,1,1,48,64,1251004088
59,12,25,Jits_Pract_5,2,5,56,103,1251033556
59,12,25,Jits_Pract_5,3,5,80,127,1251036476
59,12,25,Jits_Pract_5,0,5,56,103,1251454496
59,12,25,Jits_Pract_5,1,5,63,98,1251463424
59,12,25,Jits_Pract_5,2,1,48,59,1251499948
59,12,25,Jits_Pract_5,3,5,80,127,1251503504
59,12,25,Jits_Pract_5,0,5,56,103,1251943788
59,12,25,Jits_Pract_5,1,5,63,98,1251946932
59,12,25,Jits_Pract_5,2,5,80,127,1251964320
59,12,25,Jits_Pract_5,3,1,48,59,1252003928
59,12,25,Jits_Pract_5,0,9999,9999,9999,1245231204
59,12,25,Jits_Pract_5,1,9999,9999,9999,1245731904
59,12,25,Jits_Pract_5,2,9999,9999,9999,1246231652
59,12,25,Jits_Pract_5,3,9999,9999,9999,1246731316
59,12,25,Jits_Pract_5,4,9999,9999,9999,1247232072
59,12,25,Jits_Pract_5,5,9999,9999,9999,1247742036
59,12,25,Jits_Pract_5,6,9999,9999,9999,1248241724
59,12,25,Jits_Pract_5,7,9999,9999,9999,1248741480
59,12,25,Jits_Pract_5,8,9999,9999,9999,1249241184
59,12,25,Jits_Pract_5,9,9999,9999,9999,1249741940
59,12,25,Jits_Pract_5,10,9999,9999,9999,1250241644
59,12,25,Jits_Pract_5,11,9999,9999,9999,1250741348
59,12,25,Jits_Pract_5,12,9999,9999,9999,1251242080
59,12,25,Jits_Pract_5,13,9999,9999,9999,1251741772
59,12,25,Jits_Pract_5,14,9999,9999,9999,1252241464
59,13,24,Jits_Pract_8,0,5,56,103,1258210588
59,13,24,Jits_Pract_8,1,5,63,98,1258213680
59,13,24,Jits_Pract_8,2,5,80,127,1258216732
59,13,24,Jits_Pract_8,0,5,56,103,1259010480
59,13,24,Jits_Pract_8,1,5,63,98,1259013580
59,13,24,Jits_Pract_8,2,5,80,127,1259016624
59,13,24,Jits_Pract_8,0,5,80,127,1259750768
59,13,24,Jits_Pract_8,1,5,63,98,1259840780
59,13,24,Jits_Pract_8,2,5,56,103,1259851200
59,13,24,Jits_Pract_8,0,5,56,103,1260571204
59,13,24,Jits_Pract_8,1,5,63,98,1260581180
59,13,24,Jits_Pract_8,2,5,80,127,1260671380
59,13,24,Jits_Pract_8,0,5,63,98,1261341120
59,13,24,Jits_Pract_8,1,5,80,127,1261370720
59,13,24,Jits_Pract_8,2,5,56,103,1261400396
59,13,24,Jits_Pract_8,3,1,48,78,1261462096
59,13,24,Jits_Pract_8,0,5,56,103,1262140720
59,13,24,Jits_Pract_8,1,1,48,76,1262198000
59,13,24,Jits_Pract_8,2,5,80,127,1262241260
59,13,24,Jits_Pract_8,3,5,63,98,1262291312
59,13,24,Jits_Pract_8,0,5,56,103,1262940496
59,13,24,Jits_Pract_8,1,5,80,127,1262990624
59,13,24,Jits_Pract_8,2,1,48,64,1263002580
59,13,24,Jits_Pract_8,3,5,63,98,1263030628
59,13,24,Jits_Pract_8,0,1,48,67,1263764800
59,13,24,Jits_Pract_8,1,5,80,127,1263771196
59,13,24,Jits_Pract_8,2,5,63,98,1263800724
59,13,24,Jits_Pract_8,3,5,56,103,1263871384
59,13,24,Jits_Pract_8,0,1,48,66,1264563132
59,13,24,Jits_Pract_8,1,5,63,98,1264600476
59,13,24,Jits_Pract_8,2,5,56,103,1264631220
59,13,24,Jits_Pract_8,3,5,80,127,1264690400
59,13,24,Jits_Pract_8,0,5,56,103,1265340752
59,13,24,Jits_Pract_8,1,5,80,127,1265343816
59,13,24,Jits_Pract_8,2,1,48,73,1265376680
59,13,24,Jits_Pract_8,3,5,63,98,1265460568
59,13,24,Jits_Pract_8,0,1,48,59,1266169428
59,13,24,Jits_Pract_8,1,5,56,103,1266221368
59,13,24,Jits_Pract_8,2,5,80,127,1266261236
59,13,24,Jits_Pract_8,3,5,63,98,1266270520
59,13,24,Jits_Pract_8,0,5,56,103,1266981208
59,13,24,Jits_Pract_8,1,1,48,66,1266992348
59,13,24,Jits_Pract_8,2,5,80,127,1267000540
59,13,24,Jits_Pract_8,3,5,63,98,1267080480
59,13,24,Jits_Pract_8,0,5,80,127,1267770716
59,13,24,Jits_Pract_8,1,5,56,103,1267871188
59,13,24,Jits_Pract_8,2,5,63,98,1267881308
59,13,24,Jits_Pract_8,3,1,48,61,1267891844
59,13,24,Jits_Pract_8,0,5,63,98,1268540968
59,13,24,Jits_Pract_8,1,5,80,127,1268601140
59,13,24,Jits_Pract_8,2,5,56,103,1268610436
59,13,24,Jits_Pract_8,3,1,48,62,1268633552
59,13,24,Jits_Pract_8,0,5,56,103,1269340424
59,13,24,Jits_Pract_8,1,1,48,71,1269390148
59,13,24,Jits_Pract_8,2,5,63,98,1269411292
59,13,24,Jits_Pract_8,3,5,80,127,1269414580
59,13,24,Jits_Pract_8,0,9999,9999,9999,1258608692
59,13,24,Jits_Pract_8,1,9999,9999,9999,1259408484
59,13,24,Jits_Pract_8,2,9999,9999,9999,1260208216
59,13,24,Jits_Pract_8,3,9999,9999,9999,1261008996
59,13,24,Jits_Pract_8,4,9999,9999,9999,1261808728
59,13,24,Jits_Pract_8,5,9999,9999,9999,1262608488
59,13,24,Jits_Pract_8,6,9999,9999,9999,1263408180
59,13,24,Jits_Pract_8,7,9999,9999,9999,1264209000
59,13,24,Jits_Pract_8,8,9999,9999,9999,1265008760
59,13,24,Jits_Pract_8,9,9999,9999,9999,1265808504
59,13,24,Jits_Pract_8,10,9999,9999,9999,1266608208
59,13,24,Jits_Pract_8,11,9999,9999,9999,1267409012
59,13,24,Jits_Pract_8,12,9999,9999,9999,1268208736
59,13,24,Jits_Pract_8,13,9999,9999,9999,1269008508
59,13,24,Jits_Pract_8,14,9999,9999,9999,1269808248
59,14,17,Jits_Phase_5,0,5,56,103,1298776372
59,14,17,Jits_Phase_5,1,5,63,98,1298779624
59,14,17,Jits_Phase_5,2,5,80,127,1298782592
59,14,17,Jits_Phase_5,0,5,56,103,1299276156
59,14,17,Jits_Phase_5,1,5,63,98,1299279556
59,14,17,Jits_Phase_5,2,5,80,127,1299282524
59,14,17,Jits_Phase_5,0,5,56,103,1299775732
59,14,17,Jits_Phase_5,1,5,80,127,1299786300
59,14,17,Jits_Phase_5,2,5,63,98,1299805564
59,14,17,Jits_Phase_5,0,5,63,98,1300226388
59,14,17,Jits_Phase_5,1,5,80,127,1300256064
59,14,17,Jits_Phase_5,2,5,56,103,1300266556
59,14,17,Jits_Phase_5,0,1,48,57,1300743604
59,14,17,Jits_Phase_5,1,5,80,127,1300785504
59,14,17,Jits_Phase_5,2,5,56,103,1300795776
59,14,17,Jits_Phase_5,3,5,63,98,1300825376
59,14,17,Jits_Phase_5,0,5,63,98,1301276048
59,14,17,Jits_Phase_5,1,1,48,58,1301278872
59,14,17,Jits_Phase_5,2,5,56,103,1301305568
59,14,17,Jits_Phase_5,3,5,80,127,1301316136
59,14,17,Jits_Phase_5,0,5,56,103,1301725508
59,14,17,Jits_Phase_5,1,1,48,61,1301765140
59,14,17,Jits_Phase_5,2,5,63,98,1301775800
59,14,17,Jits_Phase_5,3,5,80,127,1301796332
59,14,17,Jits_Phase_5,0,5,80,127,1302226316
59,14,17,Jits_Phase_5,1,1,48,54,1302236932
59,14,17,Jits_Phase_5,2,5,63,98,1302275416
59,14,17,Jits_Phase_5,3,5,56,103,1302316396
59,14,17,Jits_Phase_5,0,5,56,103,1302725856
59,14,17,Jits_Phase_5,1,1,48,65,1302755532
59,14,17,Jits_Phase_5,2,5,63,98,1302757016
59,14,17,Jits_Phase_5,3,5,80,127,1302826496
59,14,17,Jits_Phase_5,0,5,56,103,1303225696
59,14,17,Jits_Phase_5,1,1,48,59,1303252184
59,14,17,Jits_Phase_5,2,5,80,127,1303286248
59,14,17,Jits_Phase_5,3,5,63,98,1303315924
59,14,17,Jits_Phase_5,0,5,56,103,1303735640
59,14,17,Jits_Phase_5,1,5,63,98,1303745912
59,14,17,Jits_Phase_5,2,1,48,73,1303751568
59,14,17,Jits_Phase_5,3,5,80,127,1303785692
59,14,17,Jits_Phase_5,0,5,63,98,1304226332
59,14,17,Jits_Phase_5,1,1,48,58,1304237324
59,14,17,Jits_Phase_5,2,5,80,127,1304305920
59,14,17,Jits_Phase_5,3,5,56,103,1304316340
59,14,17,Jits_Phase_5,0,5,63,98,1304776132
59,14,17,Jits_Phase_5,1,1,48,62,1304780372
59,14,17,Jits_Phase_5,2,5,56,103,1304816012
59,14,17,Jits_Phase_5,3,5,80,127,1304819152
59,14,17,Jits_Phase_5,0,5,56,103,1305235792
59,14,17,Jits_Phase_5,1,5,63,98,1305246064
59,14,17,Jits_Phase_5,2,5,80,127,1305285928
59,14,17,Jits_Phase_5,3,1,48,56,1305293384
59,14,17,Jits_Phase_5,0,5,56,103,1305726416
59,14,17,Jits_Phase_5,1,5,63,98,1305729556
59,14,17,Jits_Phase_5,2,5,80,127,1305745828
59,14,17,Jits_Phase_5,3,1,48,54,1305790820
59,14,17,Jits_Phase_5,0,5,80,127,1306236208
59,14,17,Jits_Phase_5,1,5,56,103,1306245432
59,14,17,Jits_Phase_5,2,1,48,52,1306288480
59,14,17,Jits_Phase_5,3,5,63,98,1306316224
59,14,17,Jits_Phase_5,0,5,63,98,1306725780
59,14,17,Jits_Phase_5,1,5,56,103,1306746240
59,14,17,Jits_Phase_5,2,1,48,60,1306790260
59,14,17,Jits_Phase_5,3,5,80,127,1306826248
59,14,17,Jits_Phase_5,0,5,56,103,1307235796
59,14,17,Jits_Phase_5,1,5,80,127,1307275732
59,14,17,Jits_Phase_5,2,1,48,61,1307281916
59,14,17,Jits_Phase_5,3,5,63,98,1307285848
59,14,17,Jits_Phase_5,0,5,80,127,1307726492
59,14,17,Jits_Phase_5,1,1,48,59,1307745800
59,14,17,Jits_Phase_5,2,5,63,98,1307755864
59,14,17,Jits_Phase_5,3,5,56,103,1307795800
59,14,17,Jits_Phase_5,0,1,48,57,1308226676
59,14,17,Jits_Phase_5,1,5,56,103,1308246400
59,14,17,Jits_Phase_5,2,5,63,98,1308276376
59,14,17,Jits_Phase_5,3,5,80,127,1308326184
59,14,17,Jits_Phase_5,0,1,48,60,1308729792
59,14,17,Jits_Phase_5,1,5,80,127,1308746300
59,14,17,Jits_Phase_5,2,5,56,103,1308786312
59,14,17,Jits_Phase_5,3,5,63,98,1308796284
59,14,17,Jits_Phase_5,0,5,80,127,1309226356
59,14,17,Jits_Phase_5,1,1,48,58,1309233060
59,14,17,Jits_Phase_5,2,5,63,98,1309266360
59,14,17,Jits_Phase_5,3,5,56,103,1309325700
59,14,17,Jits_Phase_5,0,5,56,103,1309726268
59,14,17,Jits_Phase_5,1,5,80,127,1309736240
59,14,17,Jits_Phase_5,2,1,48,52,1309744008
59,14,17,Jits_Phase_5,3,5,63,98,1309816320
59,14,17,Jits_Phase_5,0,5,80,127,1310225884
59,14,17,Jits_Phase_5,1,1,48,59,1310243452
59,14,17,Jits_Phase_5,2,5,63,98,1310286416
59,14,17,Jits_Phase_5,3,5,56,103,1310315792
59,14,17,Jits_Phase_5,0,1,48,59,1310724672
59,14,17,Jits_Phase_5,1,5,56,103,1310726244
59,14,17,Jits_Phase_5,2,5,80,127,1310785884
59,14,17,Jits_Phase_5,3,5,63,98,1310825804
59,14,17,Jits_Phase_5,0,1,48,55,1311266792
59,14,17,Jits_Phase_5,1,5,56,103,1311276336
59,14,17,Jits_Phase_5,2,5,63,98,1311285704
59,14,17,Jits_Phase_5,3,5,80,127,1311289216
59,14,17,Jits_Phase_5,0,5,80,127,1311726260
59,14,17,Jits_Phase_5,1,1,48,59,1311745120
59,14,17,Jits_Phase_5,2,5,63,98,1311816160
59,14,17,Jits_Phase_5,3,5,56,103,1311826280
59,14,17,Jits_Phase_5,0,5,56,103,1312225608
59,14,17,Jits_Phase_5,1,5,63,98,1312228780
59,14,17,Jits_Phase_5,2,5,80,127,1312232052
59,14,17,Jits_Phase_5,3,1,48,60,1312240296
59,14,17,Jits_Phase_5,0,1,48,66,1312721348
59,14,17,Jits_Phase_5,1,5,80,127,1312745732
59,14,17,Jits_Phase_5,2,5,63,98,1312796256
59,14,17,Jits_Phase_5,3,5,56,103,1312825840
59,14,17,Jits_Phase_5,0,5,56,103,1313236420
59,14,17,Jits_Phase_5,1,5,80,127,1313245496
59,14,17,Jits_Phase_5,2,1,48,70,1313258200
59,14,17,Jits_Phase_5,3,5,63,98,1313316312
59,14,17,Jits_Phase_5,0,1,48,55,1313718544
59,14,17,Jits_Phase_5,1,5,56,103,1313746288
59,14,17,Jits_Phase_5,2,5,63,98,1313765700
59,14,17,Jits_Phase_5,3,5,80,127,1313826172
59,14,17,Jits_Phase_5,0,5,80,127,1314225440
59,14,17,Jits_Phase_5,1,1,48,68,1314229004
59,14,17,Jits_Phase_5,2,5,63,98,1314296332
59,14,17,Jits_Phase_5,3,5,56,103,1314315520
59,14,17,Jits_Phase_5,0,1,48,66,1314724124
59,14,17,Jits_Phase_5,1,5,80,127,1314745572
59,14,17,Jits_Phase_5,2,5,56,103,1314756140
59,14,17,Jits_Phase_5,3,5,63,98,1314766336
59,14,17,Jits_Phase_5,0,1,48,67,1315219064
59,14,17,Jits_Phase_5,1,5,80,127,1315236324
59,14,17,Jits_Phase_5,2,5,56,103,1315255736
59,14,17,Jits_Phase_5,3,5,63,98,1315326248
59,14,17,Jits_Phase_5,0,5,56,103,1315746120
59,14,17,Jits_Phase_5,1,1,48,48,1315751704
59,14,17,Jits_Phase_5,2,5,80,127,1315776088
59,14,17,Jits_Phase_5,3,5,63,98,1315796248
59,14,17,Jits_Phase_5,0,1,48,66,1316232876
59,14,17,Jits_Phase_5,1,5,63,98,1316235540
59,14,17,Jits_Phase_5,2,5,56,103,1316296300
59,14,17,Jits_Phase_5,3,5,80,127,1316325676
59,14,17,Jits_Phase_5,0,1,48,57,1316719152
59,14,17,Jits_Phase_5,1,5,63,98,1316726292
59,14,17,Jits_Phase_5,2,5,80,127,1316729508
59,14,17,Jits_Phase_5,3,5,56,103,1316816344
59,14,17,Jits_Phase_5,0,1,48,62,1317229604
59,14,17,Jits_Phase_5,1,5,56,103,1317246260
59,14,17,Jits_Phase_5,2,5,63,98,1317276012
59,14,17,Jits_Phase_5,3,5,80,127,1317316096
59,14,17,Jits_Phase_5,0,1,48,59,1317734680
59,14,17,Jits_Phase_5,1,5,63,98,1317746160
59,14,17,Jits_Phase_5,2,5,56,103,1317786172
59,14,17,Jits_Phase_5,3,5,80,127,1317805360
59,14,17,Jits_Phase_5,0,1,48,62,1318236144
59,14,17,Jits_Phase_5,1,5,63,98,1318256172
59,14,17,Jits_Phase_5,2,5,56,103,1318296108
59,14,17,Jits_Phase_5,3,5,80,127,1318306304
59,14,17,Jits_Phase_5,0,5,80,127,1318736228
59,14,17,Jits_Phase_5,1,1,48,63,1318743476
59,14,17,Jits_Phase_5,2,5,63,98,1318805824
59,14,17,Jits_Phase_5,3,5,56,103,1318826208
59,14,17,Jits_Phase_5,0,5,56,103,1319225656
59,14,17,Jits_Phase_5,1,5,80,127,1319246116
59,14,17,Jits_Phase_5,2,1,48,59,1319261368
59,14,17,Jits_Phase_5,3,5,63,98,1319286268
59,14,17,Jits_Phase_5,0,5,63,98,1319735752
59,14,17,Jits_Phase_5,1,1,48,64,1319742984
59,14,17,Jits_Phase_5,2,5,80,127,1319756132
59,14,17,Jits_Phase_5,3,5,56,103,1319796292
59,14,17,Jits_Phase_5,0,1,48,53,1320232684
59,14,17,Jits_Phase_5,1,5,63,98,1320236392
59,14,17,Jits_Phase_5,2,5,56,103,1320255952
59,14,17,Jits_Phase_5,3,5,80,127,1320266148
59,14,17,Jits_Phase_5,0,1,48,73,1320725628
59,14,17,Jits_Phase_5,1,5,80,127,1320736208
59,14,17,Jits_Phase_5,2,5,56,103,1320755696
59,14,17,Jits_Phase_5,3,5,63,98,1320786192
59,14,17,Jits_Phase_5,0,1,48,63,1321191772
59,14,17,Jits_Phase_5,1,5,56,103,1321305392
59,14,17,Jits_Phase_5,2,5,80,127,1321308384
59,14,17,Jits_Phase_5,3,5,63,98,1321326072
59,14,17,Jits_Phase_5,0,5,63,98,1321726416
59,14,17,Jits_Phase_5,1,5,56,103,1321755944
59,14,17,Jits_Phase_5,2,1,48,65,1321762128
59,14,17,Jits_Phase_5,3,5,80,127,1321816472
59,14,17,Jits_Phase_5,0,1,48,57,1322280444
59,14,17,Jits_Phase_5,1,5,63,98,1322306096
59,14,17,Jits_Phase_5,2,5,56,103,1322316068
59,14,17,Jits_Phase_5,3,5,80,127,1322326412
59,14,17,Jits_Phase_5,0,5,56,103,1322765700
59,14,17,Jits_Phase_5,1,1,48,68,1322793160
59,14,17,Jits_Phase_5,2,5,80,127,1322796340
59,14,17,Jits_Phase_5,3,5,63,98,1322805488
59,14,17,Jits_Phase_5,0,1,48,59,1323277120
59,14,17,Jits_Phase_5,1,5,63,98,1323306440
59,14,17,Jits_Phase_5,2,5,56,103,1323315512
59,14,17,Jits_Phase_5,3,5,80,127,1323336044
59,14,17,Jits_Phase_5,0,5,56,103,1323736348
59,14,17,Jits_Phase_5,1,1,48,65,1323788492
59,14,17,Jits_Phase_5,2,5,63,98,1323796004
59,14,17,Jits_Phase_5,3,5,80,127,1323799220
59,14,17,Jits_Phase_5,0,5,80,127,1324255508
59,14,17,Jits_Phase_5,1,5,56,103,1324266000
59,14,17,Jits_Phase_5,2,1,48,61,1324268444
59,14,17,Jits_Phase_5,3,5,63,98,1324335520
59,14,17,Jits_Phase_5,0,5,80,127,1324746180
59,14,17,Jits_Phase_5,1,1,48,64,1324793364
59,14,17,Jits_Phase_5,2,5,56,103,1324816024
59,14,17,Jits_Phase_5,3,5,63,98,1324825996
59,14,17,Jits_Phase_5,0,1,48,60,1325257820
59,14,17,Jits_Phase_5,1,5,63,98,1325285716
59,14,17,Jits_Phase_5,2,5,56,103,1325296160
59,14,17,Jits_Phase_5,3,5,80,127,1325315348
59,14,17,Jits_Phase_5,0,5,80,127,1325736248
59,14,17,Jits_Phase_5,1,1,48,57,1325781840
59,14,17,Jits_Phase_5,2,5,63,98,1325795660
59,14,17,Jits_Phase_5,3,5,56,103,1325835544
59,14,17,Jits_Phase_5,0,5,56,103,1326276020
59,14,17,Jits_Phase_5,1,5,63,98,1326286216
59,14,17,Jits_Phase_5,2,1,48,60,1326305896
59,14,17,Jits_Phase_5,3,5,80,127,1326326096
59,14,17,Jits_Phase_5,0,5,56,103,1326735928
59,14,17,Jits_Phase_5,1,5,80,127,1326765304
59,14,17,Jits_Phase_5,2,1,48,55,1326810068
59,14,17,Jits_Phase_5,3,5,63,98,1326815496
59,14,17,Jits_Phase_5,0,5,56,103,1327276372
59,14,17,Jits_Phase_5,1,1,48,62,1327310800
59,14,17,Jits_Phase_5,2,5,63,98,1327316300
59,14,17,Jits_Phase_5,3,5,80,127,1327319664
59,14,17,Jits_Phase_5,0,5,56,103,1327776052
59,14,17,Jits_Phase_5,1,5,63,98,1327786324
59,14,17,Jits_Phase_5,2,5,80,127,1327805956
59,14,17,Jits_Phase_5,3,1,48,54,1327817392
59,14,17,Jits_Phase_5,0,5,56,103,1328236100
59,14,17,Jits_Phase_5,1,5,80,127,1328239092
59,14,17,Jits_Phase_5,2,5,63,98,1328275964
59,14,17,Jits_Phase_5,3,1,48,59,1328290844
59,14,17,Jits_Phase_5,0,5,63,98,1328775416
59,14,17,Jits_Phase_5,1,1,48,58,1328793504
59,14,17,Jits_Phase_5,2,5,56,103,1328806128
59,14,17,Jits_Phase_5,3,5,80,127,1328825836
59,14,17,Jits_Phase_5,0,5,80,127,1329245868
59,14,17,Jits_Phase_5,1,5,56,103,1329256212
59,14,17,Jits_Phase_5,2,5,63,98,1329265964
59,14,17,Jits_Phase_5,3,1,48,54,1329281808
59,14,17,Jits_Phase_5,0,1,48,56,1329739744
59,14,17,Jits_Phase_5,1,5,56,103,1329746220
59,14,17,Jits_Phase_5,2,5,80,127,1329786160
59,14,17,Jits_Phase_5,3,5,63,98,1329816128
59,14,17,Jits_Phase_5,0,5,63,98,1330256168
59,14,17,Jits_Phase_5,1,1,48,56,1330264024
59,14,17,Jits_Phase_5,2,5,80,127,1330265532
59,14,17,Jits_Phase_5,3,5,56,103,1330275800
59,14,17,Jits_Phase_5,0,1,48,54,1330744368
59,14,17,Jits_Phase_5,1,5,56,103,1330745940
59,14,17,Jits_Phase_5,2,5,63,98,1330816292
59,14,17,Jits_Phase_5,3,5,80,127,1330825444
59,14,17,Jits_Phase_5,0,5,80,127,1331255960
59,14,17,Jits_Phase_5,1,5,56,103,1331266008
59,14,17,Jits_Phase_5,2,1,48,64,1331287556
59,14,17,Jits_Phase_5,3,5,63,98,1331316048
59,14,17,Jits_Phase_5,0,1,48,58,1331739800
59,14,17,Jits_Phase_5,1,5,80,127,1331765824
59,14,17,Jits_Phase_5,2,5,56,103,1331825992
59,14,17,Jits_Phase_5,3,5,63,98,1331855948
59,14,17,Jits_Phase_5,0,5,56,103,1332275692
59,14,17,Jits_Phase_5,1,5,80,127,1332278612
59,14,17,Jits_Phase_5,2,1,48,64,1332311016
59,14,17,Jits_Phase_5,3,5,63,98,1332315620
59,14,17,Jits_Phase_5,0,1,48,64,1332805936
59,14,17,Jits_Phase_5,1,5,56,103,1332807348
59,14,17,Jits_Phase_5,2,5,63,98,1332835828
59,14,17,Jits_Phase_5,3,5,80,127,1332845948
59,14,17,Jits_Phase_5,0,5,63,98,1333315952
59,14,17,Jits_Phase_5,1,1,48,57,1333318696
59,14,17,Jits_Phase_5,2,5,80,127,1333326140
59,14,17,Jits_Phase_5,3,5,56,103,1333336484
59,14,17,Jits_Phase_5,0,5,80,127,1333765580
59,14,17,Jits_Phase_5,1,5,56,103,1333816084
59,14,17,Jits_Phase_5,2,5,63,98,1333818920
59,14,17,Jits_Phase_5,3,1,48,54,1333847516
59,14,17,Jits_Phase_5,0,5,56,103,1334295896
59,14,17,Jits_Phase_5,1,5,80,127,1334316284
59,14,17,Jits_Phase_5,2,5,63,98,1334325804
59,14,17,Jits_Phase_5,3,1,48,55,1334331988
59,14,17,Jits_Phase_5,0,5,63,98,1334776108
59,14,17,Jits_Phase_5,1,5,56,103,1334805780
59,14,17,Jits_Phase_5,2,1,48,54,1334821552
59,14,17,Jits_Phase_5,3,5,80,127,1334826380
59,14,17,Jits_Phase_5,0,5,56,103,1335286120
59,14,17,Jits_Phase_5,1,1,48,55,1335295712
59,14,17,Jits_Phase_5,2,5,80,127,1335297204
59,14,17,Jits_Phase_5,3,5,63,98,1335366060
59,14,17,Jits_Phase_5,0,5,63,98,1335775744
59,14,17,Jits_Phase_5,1,5,80,127,1335815408
59,14,17,Jits_Phase_5,2,1,48,53,1335844980
59,14,17,Jits_Phase_5,3,5,56,103,1335855560
59,14,17,Jits_Phase_5,0,5,56,103,1336295872
59,14,17,Jits_Phase_5,1,5,63,98,1336306168
59,14,17,Jits_Phase_5,2,5,80,127,1336325356
59,14,17,Jits_Phase_5,3,1,48,53,1336344884
59,14,17,Jits_Phase_5,0,1,48,56,1336823484
59,14,17,Jits_Phase_5,1,5,63,98,1336835584
59,14,17,Jits_Phase_5,2,5,80,127,1336855896
59,14,17,Jits_Phase_5,3,5,56,103,1336876280
59,14,17,Jits_Phase_5,0,5,56,103,1337275688
59,14,17,Jits_Phase_5,1,5,80,127,1337355728
59,14,17,Jits_Phase_5,2,5,63,98,1337366000
59,14,17,Jits_Phase_5,3,1,48,52,1337372860
59,14,17,Jits_Phase_5,0,5,80,127,1337816348
59,14,17,Jits_Phase_5,1,5,63,98,1337825944
59,14,17,Jits_Phase_5,2,1,48,52,1337837636
59,14,17,Jits_Phase_5,3,5,56,103,1337856312
59,14,17,Jits_Phase_5,0,5,63,98,1338276108
59,14,17,Jits_Phase_5,1,5,80,127,1338316044
59,14,17,Jits_Phase_5,2,1,48,53,1338328528
59,14,17,Jits_Phase_5,3,5,56,103,1338375476
59,14,17,Jits_Phase_5,0,5,63,98,1338786044
59,14,17,Jits_Phase_5,1,1,48,52,1338821968
59,14,17,Jits_Phase_5,2,5,56,103,1338836384
59,14,17,Jits_Phase_5,3,5,80,127,1338866012
59,14,17,Jits_Phase_5,0,5,80,127,1339286016
59,14,17,Jits_Phase_5,1,5,63,98,1339296064
59,14,17,Jits_Phase_5,2,1,48,47,1339317236
59,14,17,Jits_Phase_5,3,5,56,103,1339365880
59,14,17,Jits_Phase_5,0,1,48,50,1339805908
59,14,17,Jits_Phase_5,1,5,80,127,1339846160
59,14,17,Jits_Phase_5,2,5,56,103,1339856208
59,14,17,Jits_Phase_5,3,5,63,98,1339859348
59,14,17,Jits_Phase_5,0,5,56,103,1340286428
59,14,17,Jits_Phase_5,1,5,80,127,1340305692
59,14,17,Jits_Phase_5,2,5,63,98,1340316108
59,14,17,Jits_Phase_5,3,1,48,44,1340370092
59,14,17,Jits_Phase_5,0,5,63,98,1340796304
59,14,17,Jits_Phase_5,1,1,48,59,1340817636
59,14,17,Jits_Phase_5,2,5,56,103,1340836088
59,14,17,Jits_Phase_5,3,5,80,127,1340855796
59,14,17,Jits_Phase_5,0,5,63,98,1341295840
59,14,17,Jits_Phase_5,1,1,48,60,1341322772
59,14,17,Jits_Phase_5,2,5,56,103,1341356516
59,14,17,Jits_Phase_5,3,5,80,127,1341359432
59,14,17,Jits_Phase_5,0,5,56,103,1341755872
59,14,17,Jits_Phase_5,1,5,80,127,1341776184
59,14,17,Jits_Phase_5,2,5,63,98,1341816044
59,14,17,Jits_Phase_5,3,1,48,62,1341846884
59,14,17,Jits_Phase_5,0,5,56,103,1342286276
59,14,17,Jits_Phase_5,1,5,63,98,1342305616
59,14,17,Jits_Phase_5,2,5,80,127,1342315884
59,14,17,Jits_Phase_5,3,1,48,59,1342322444
59,14,17,Jits_Phase_5,0,5,80,127,1342756220
59,14,17,Jits_Phase_5,1,5,56,103,1342785820
59,14,17,Jits_Phase_5,2,5,63,98,1342825980
59,14,17,Jits_Phase_5,3,1,48,59,1342844760
59,14,17,Jits_Phase_5,0,5,80,127,1343266096
59,14,17,Jits_Phase_5,1,5,56,103,1343285732
59,14,17,Jits_Phase_5,2,5,63,98,1343345972
59,14,17,Jits_Phase_5,3,1,48,59,1343353276
59,14,17,Jits_Phase_5,0,5,56,103,1343776048
59,14,17,Jits_Phase_5,1,5,80,127,1343795684
59,14,17,Jits_Phase_5,2,5,63,98,1343855848
59,14,17,Jits_Phase_5,3,1,48,54,1343858968
59,14,17,Jits_Phase_5,0,5,80,127,1344256256
59,14,17,Jits_Phase_5,1,5,56,103,1344265776
59,14,17,Jits_Phase_5,2,5,63,98,1344305636
59,14,17,Jits_Phase_5,3,1,48,56,1344368984
59,14,17,Jits_Phase_5,0,5,63,98,1344756012
59,14,17,Jits_Phase_5,1,5,56,103,1344795948
59,14,17,Jits_Phase_5,2,5,80,127,1344799012
59,14,17,Jits_Phase_5,3,1,48,52,1344891424
59,14,17,Jits_Phase_5,0,5,63,98,1345276348
59,14,17,Jits_Phase_5,1,5,80,127,1345316284
59,14,17,Jits_Phase_5,2,5,56,103,1345346032
59,14,17,Jits_Phase_5,3,1,48,58,1345380612
59,14,17,Jits_Phase_5,0,5,56,103,1345765956
59,14,17,Jits_Phase_5,1,5,63,98,1345775956
59,14,17,Jits_Phase_5,2,5,80,127,1345805776
59,14,17,Jits_Phase_5,3,1,48,51,1345862372
59,14,17,Jits_Phase_5,0,5,80,127,1346256200
59,14,17,Jits_Phase_5,1,1,48,44,1346278800
59,14,17,Jits_Phase_5,2,5,63,98,1346325972
59,14,17,Jits_Phase_5,3,5,56,103,1346336316
59,14,17,Jits_Phase_5,0,5,63,98,1346755964
59,14,17,Jits_Phase_5,1,1,48,50,1346814104
59,14,17,Jits_Phase_5,2,5,56,103,1346825808
59,14,17,Jits_Phase_5,3,5,80,127,1346835780
59,14,17,Jits_Phase_5,0,5,63,98,1347236084
59,14,17,Jits_Phase_5,1,5,56,103,1347255720
59,14,17,Jits_Phase_5,2,1,48,53,1347278016
59,14,17,Jits_Phase_5,3,5,80,127,1347295720
59,14,17,Jits_Phase_5,0,5,56,103,1347715824
59,14,17,Jits_Phase_5,1,5,63,98,1347725576
59,14,17,Jits_Phase_5,2,1,48,55,1347767800
59,14,17,Jits_Phase_5,3,5,80,127,1347805732
59,14,17,Jits_Phase_5,0,5,63,98,1348205924
59,14,17,Jits_Phase_5,1,5,56,103,1348235672
59,14,17,Jits_Phase_5,2,1,48,57,1348265316
59,14,17,Jits_Phase_5,3,5,80,127,1348275824
59,14,17,Jits_Phase_5,0,5,56,103,1348705744
59,14,17,Jits_Phase_5,1,1,48,55,1348718228
59,14,17,Jits_Phase_5,2,5,63,98,1348745600
59,14,17,Jits_Phase_5,3,5,80,127,1348785760
59,14,17,Jits_Phase_5,0,5,80,127,1349206476
59,14,17,Jits_Phase_5,1,1,48,56,1349251176
59,14,17,Jits_Phase_5,2,5,56,103,1349286340
59,14,17,Jits_Phase_5,3,5,63,98,1349295640
59,14,17,Jits_Phase_5,0,1,48,55,1349729060
59,14,17,Jits_Phase_5,1,5,56,103,1349756128
59,14,17,Jits_Phase_5,2,5,63,98,1349759276
59,14,17,Jits_Phase_5,3,5,80,127,1349765580
59,14,17,Jits_Phase_5,0,1,48,56,1350240412
59,14,17,Jits_Phase_5,1,5,56,103,1350275724
59,14,17,Jits_Phase_5,2,5,63,98,1350295888
59,14,17,Jits_Phase_5,3,5,80,127,1350306156
59,14,17,Jits_Phase_5,0,5,63,98,1350736228
59,14,17,Jits_Phase_5,1,1,48,60,1350740392
59,14,17,Jits_Phase_5,2,5,80,127,1350745668
59,14,17,Jits_Phase_5,3,5,56,103,1350765828
59,14,17,Jits_Phase_5,0,5,63,98,1351235824
59,14,17,Jits_Phase_5,1,1,48,62,1351257072
59,14,17,Jits_Phase_5,2,5,56,103,1351315680
59,14,17,Jits_Phase_5,3,5,80,127,1351318752
59,14,17,Jits_Phase_5,0,5,63,98,1351735568
59,14,17,Jits_Phase_5,1,5,56,103,1351756176
59,14,17,Jits_Phase_5,2,1,48,62,1351768584
59,14,17,Jits_Phase_5,3,5,80,127,1351785916
59,14,17,Jits_Phase_5,0,5,56,103,1352236656
59,14,17,Jits_Phase_5,1,5,63,98,1352255848
59,14,17,Jits_Phase_5,2,1,48,60,1352261660
59,14,17,Jits_Phase_5,3,5,80,127,1352265964
59,14,17,Jits_Phase_5,0,1,48,68,1352731212
59,14,17,Jits_Phase_5,1,5,56,103,1352765712
59,14,17,Jits_Phase_5,2,5,63,98,1352795680
59,14,17,Jits_Phase_5,3,5,80,127,1352799044
59,14,17,Jits_Phase_5,0,5,56,103,1353216456
59,14,17,Jits_Phase_5,1,1,48,57,1353250436
59,14,17,Jits_Phase_5,2,5,63,98,1353256388
59,14,17,Jits_Phase_5,3,5,80,127,1353315652
59,14,17,Jits_Phase_5,0,5,56,103,1353735548
59,14,17,Jits_Phase_5,1,5,63,98,1353745820
59,14,17,Jits_Phase_5,2,1,48,58,1353754716
59,14,17,Jits_Phase_5,3,5,80,127,1353806200
59,14,17,Jits_Phase_5,0,5,56,103,1354236284
59,14,17,Jits_Phase_5,1,5,80,127,1354255696
59,14,17,Jits_Phase_5,2,1,48,59,1354274624
59,14,17,Jits_Phase_5,3,5,63,98,1354285584
59,14,17,Jits_Phase_5,0,5,80,127,1354736044
59,14,17,Jits_Phase_5,1,5,56,103,1354746316
59,14,17,Jits_Phase_5,2,1,48,54,1354750852
59,14,17,Jits_Phase_5,3,5,63,98,1354765648
59,14,17,Jits_Phase_5,0,5,63,98,1355225740
59,14,17,Jits_Phase_5,1,1,48,50,1355238528
59,14,17,Jits_Phase_5,2,5,80,127,1355306524
59,14,17,Jits_Phase_5,3,5,56,103,1355315524
59,14,17,Jits_Phase_5,0,1,48,51,1355763456
59,14,17,Jits_Phase_5,1,5,80,127,1355816684
59,14,17,Jits_Phase_5,2,5,56,103,1355835644
59,14,17,Jits_Phase_5,3,5,63,98,1355838640
59,14,17,Jits_Phase_5,0,5,63,98,1356305724
59,14,17,Jits_Phase_5,1,5,80,127,1356309088
59,14,17,Jits_Phase_5,2,1,48,53,1356339404
59,14,17,Jits_Phase_5,3,5,56,103,1356366620
59,14,17,Jits_Phase_5,0,5,56,103,1356786060
59,14,17,Jits_Phase_5,1,5,80,127,1356796552
59,14,17,Jits_Phase_5,2,1,48,50,1356833828
59,14,17,Jits_Phase_5,3,5,63,98,1356836336
59,14,17,Jits_Phase_5,0,5,56,103,1357266396
59,14,17,Jits_Phase_5,1,5,63,98,1357325764
59,14,17,Jits_Phase_5,2,5,80,127,1357335884
59,14,17,Jits_Phase_5,3,1,48,53,1357341244
59,14,17,Jits_Phase_5,0,5,63,98,1357776348
59,14,17,Jits_Phase_5,1,5,80,127,1357816384
59,14,17,Jits_Phase_5,2,1,48,54,1357819800
59,14,17,Jits_Phase_5,3,5,56,103,1357856088
59,14,17,Jits_Phase_5,0,5,56,103,1358275944
59,14,17,Jits_Phase_5,1,1,48,46,1358322984
59,14,17,Jits_Phase_5,2,5,63,98,1358355676
59,14,17,Jits_Phase_5,3,5,80,127,1358359048
59,14,17,Jits_Phase_5,0,1,48,54,1358817472
59,14,17,Jits_Phase_5,1,5,80,127,1358836024
59,14,17,Jits_Phase_5,2,5,56,103,1358865772
59,14,17,Jits_Phase_5,3,5,63,98,1358868692
59,14,17,Jits_Phase_5,0,5,56,103,1359295820
59,14,17,Jits_Phase_5,1,5,80,127,1359316576
59,14,17,Jits_Phase_5,2,1,48,63,1359337828
59,14,17,Jits_Phase_5,3,5,63,98,1359356380
59,14,17,Jits_Phase_5,0,5,80,127,1359776180
59,14,17,Jits_Phase_5,1,5,63,98,1359795520
59,14,17,Jits_Phase_5,2,1,48,56,1359844040
59,14,17,Jits_Phase_5,3,5,56,103,1359855848
59,14,17,Jits_Phase_5,0,5,63,98,1360286208
59,14,17,Jits_Phase_5,1,5,56,103,1360296404
59,14,17,Jits_Phase_5,2,1,48,59,1360343736
59,14,17,Jits_Phase_5,3,5,80,127,1360345324
59,14,17,Jits_Phase_5,0,5,56,103,1360775468
59,14,17,Jits_Phase_5,1,5,63,98,1360796000
59,14,17,Jits_Phase_5,2,5,80,127,1360806344
59,14,17,Jits_Phase_5,3,1,48,56,1360823632
59,14,17,Jits_Phase_5,0,5,56,103,1361265928
59,14,17,Jits_Phase_5,1,5,63,98,1361269372
59,14,17,Jits_Phase_5,2,5,80,127,1361285640
59,14,17,Jits_Phase_5,3,1,48,50,1361291224
59,14,17,Jits_Phase_5,0,5,63,98,1361805612
59,14,17,Jits_Phase_5,1,1,48,53,1361811344
59,14,17,Jits_Phase_5,2,5,56,103,1361836476
59,14,17,Jits_Phase_5,3,5,80,127,1361866224
59,14,17,Jits_Phase_5,0,5,80,127,1362265432
59,14,17,Jits_Phase_5,1,1,48,56,1362326088
59,14,17,Jits_Phase_5,2,5,56,103,1362355628
59,14,17,Jits_Phase_5,3,5,63,98,1362358620
59,14,17,Jits_Phase_5,0,5,56,103,1362766380
59,14,17,Jits_Phase_5,1,5,80,127,1362769224
59,14,17,Jits_Phase_5,2,1,48,59,1362802380
59,14,17,Jits_Phase_5,3,5,63,98,1362846016
59,14,17,Jits_Phase_5,0,5,80,127,1363265908
59,14,17,Jits_Phase_5,1,5,63,98,1363326524
59,14,17,Jits_Phase_5,2,1,48,57,1363345228
59,14,17,Jits_Phase_5,3,5,56,103,1363355964
59,14,17,Jits_Phase_5,0,5,63,98,1363765672
59,14,17,Jits_Phase_5,1,5,80,127,1363775720
59,14,17,Jits_Phase_5,2,1,48,51,1363826556
59,14,17,Jits_Phase_5,3,5,56,103,1363845612
59,14,17,Jits_Phase_5,0,1,48,63,1364316256
59,14,17,Jits_Phase_5,1,5,56,103,1364325644
59,14,17,Jits_Phase_5,2,5,80,127,1364355544
59,14,17,Jits_Phase_5,3,5,63,98,1364405592
59,14,17,Jits_Phase_5,0,1,48,57,1364823492
59,14,17,Jits_Phase_5,1,5,63,98,1364915724
59,14,17,Jits_Phase_5,2,5,56,103,1364946516
59,14,17,Jits_Phase_5,3,5,80,127,1364949512
59,14,17,Jits_Phase_5,0,1,48,59,1365387436
59,14,17,Jits_Phase_5,1,5,63,98,1365416304
59,14,17,Jits_Phase_5,2,5,80,127,1365435792
59,14,17,Jits_Phase_5,3,5,56,103,1365445984
59,14,17,Jits_Phase_5,0,5,56,103,1365926248
59,14,17,Jits_Phase_5,1,1,48,50,1365928280
59,14,17,Jits_Phase_5,2,5,63,98,1365930504
59,14,17,Jits_Phase_5,3,5,80,127,1365945652
59,14,17,Jits_Phase_5,0,5,56,103,1366375812
59,14,17,Jits_Phase_5,1,5,63,98,1366386004
59,14,17,Jits_Phase_5,2,5,80,127,1366415752
59,14,17,Jits_Phase_5,3,1,48,48,1366464200
59,14,17,Jits_Phase_5,0,5,63,98,1366895876
59,14,17,Jits_Phase_5,1,5,80,127,1366915436
59,14,17,Jits_Phase_5,2,1,48,50,1366919228
59,14,17,Jits_Phase_5,3,5,56,103,1366956560
59,14,17,Jits_Phase_5,0,5,56,103,1367426412
59,14,17,Jits_Phase_5,1,1,48,47,1367434412
59,14,17,Jits_Phase_5,2,5,63,98,1367466492
59,14,17,Jits_Phase_5,3,5,80,127,1367469708
59,14,17,Jits_Phase_5,0,5,80,127,1367865788
59,14,17,Jits_Phase_5,1,5,56,103,1367905504
59,14,17,Jits_Phase_5,2,1,48,51,1367940456
59,14,17,Jits_Phase_5,3,5,63,98,1367955768
59,14,17,Jits_Phase_5,0,5,56,103,1368425784
59,14,17,Jits_Phase_5,1,5,80,127,1368436280
59,14,17,Jits_Phase_5,2,1,48,52,1368440148
59,14,17,Jits_Phase_5,3,5,63,98,1368465652
59,14,17,Jits_Phase_5,0,5,56,103,1368876252
59,14,17,Jits_Phase_5,1,5,80,127,1368916192
59,14,17,Jits_Phase_5,2,1,48,54,1368929796
59,14,17,Jits_Phase_5,3,5,63,98,1368965412
59,14,17,Jits_Phase_5,0,5,56,103,1369376240
59,14,17,Jits_Phase_5,1,5,80,127,1369416180
59,14,17,Jits_Phase_5,2,1,48,59,1369455336
59,14,17,Jits_Phase_5,3,5,63,98,1369466372
59,14,17,Jits_Phase_5,0,5,80,127,1369865592
59,14,17,Jits_Phase_5,1,5,63,98,1369945388
59,14,17,Jits_Phase_5,2,5,56,103,1369955804
59,14,17,Jits_Phase_5,3,1,48,65,1369956920
59,14,17,Jits_Phase_5,0,5,80,127,1370415332
59,14,17,Jits_Phase_5,1,5,56,103,1370425824
59,14,17,Jits_Phase_5,2,5,63,98,1370446208
59,14,17,Jits_Phase_5,3,1,48,57,1370488056
59,14,17,Jits_Phase_5,0,5,63,98,1370885576
59,14,17,Jits_Phase_5,1,1,48,50,1370950052
59,14,17,Jits_Phase_5,2,5,56,103,1370956524
59,14,17,Jits_Phase_5,3,5,80,127,1370959512
59,14,17,Jits_Phase_5,0,5,80,127,1371375952
59,14,17,Jits_Phase_5,1,5,63,98,1371426300
59,14,17,Jits_Phase_5,2,1,48,45,1371443276
59,14,17,Jits_Phase_5,3,5,56,103,1371466304
59,14,17,Jits_Phase_5,0,1,48,43,1371908128
59,14,17,Jits_Phase_5,1,5,63,98,1371915644
59,14,17,Jits_Phase_5,2,5,56,103,1371955436
59,14,17,Jits_Phase_5,3,5,80,127,1371965776
59,14,17,Jits_Phase_5,0,5,63,98,1372406336
59,14,17,Jits_Phase_5,1,1,48,60,1372425748
59,14,17,Jits_Phase_5,2,5,56,103,1372426936
59,14,17,Jits_Phase_5,3,5,80,127,1372446200
59,14,17,Jits_Phase_5,0,5,80,127,1372865832
59,14,17,Jits_Phase_5,1,5,56,103,1372876252
59,14,17,Jits_Phase_5,2,5,63,98,1372895664
59,14,17,Jits_Phase_5,3,1,48,50,1372902448
59,14,17,Jits_Phase_5,0,1,48,57,1373389832
59,14,17,Jits_Phase_5,1,5,63,98,1373396448
59,14,17,Jits_Phase_5,2,5,56,103,1373436264
59,14,17,Jits_Phase_5,3,5,80,127,1373466236
59,14,17,Jits_Phase_5,0,5,56,103,1373856048
59,14,17,Jits_Phase_5,1,5,63,98,1373885796
59,14,17,Jits_Phase_5,2,1,48,57,1373915092
59,14,17,Jits_Phase_5,3,5,80,127,1373916512
59,14,17,Jits_Phase_5,0,5,80,127,1374276104
59,14,17,Jits_Phase_5,1,5,56,103,1374345560
59,14,17,Jits_Phase_5,2,5,63,98,1374348704
59,14,17,Jits_Phase_5,3,1,48,58,1374406812
59,14,17,Jits_Phase_5,0,5,56,103,1374786272
59,14,17,Jits_Phase_5,1,5,63,98,1374836472
59,14,17,Jits_Phase_5,2,5,80,127,1374865776
59,14,17,Jits_Phase_5,3,1,48,59,1374873452
59,14,17,Jits_Phase_5,0,5,63,98,1375266260
59,14,17,Jits_Phase_5,1,5,80,127,1375269548
59,14,17,Jits_Phase_5,2,5,56,103,1375325524
59,14,17,Jits_Phase_5,3,1,48,57,1375335464
59,14,17,Jits_Phase_5,0,5,56,103,1375795516
59,14,17,Jits_Phase_5,1,5,80,127,1375805788
59,14,17,Jits_Phase_5,2,5,63,98,1375856060
59,14,17,Jits_Phase_5,3,1,48,51,1375860152
59,14,17,Jits_Phase_5,0,5,63,98,1376265616
59,14,17,Jits_Phase_5,1,5,56,103,1376275736
59,14,17,Jits_Phase_5,2,5,80,127,1376305484
59,14,17,Jits_Phase_5,3,1,48,55,1376339612
59,14,17,Jits_Phase_5,0,5,63,98,1376796144
59,14,17,Jits_Phase_5,1,5,80,127,1376799584
59,14,17,Jits_Phase_5,2,5,56,103,1376825668
59,14,17,Jits_Phase_5,3,1,48,54,1376839420
59,14,17,Jits_Phase_5,0,5,63,98,1377316188
59,14,17,Jits_Phase_5,1,5,56,103,1377335516
59,14,17,Jits_Phase_5,2,1,48,54,1377338284
59,14,17,Jits_Phase_5,3,5,80,127,1377339928
59,14,17,Jits_Phase_5,0,5,63,98,1377776140
59,14,17,Jits_Phase_5,1,1,48,53,1377836576
59,14,17,Jits_Phase_5,2,5,56,103,1377845592
59,14,17,Jits_Phase_5,3,5,80,127,1377866200
59,14,17,Jits_Phase_5,0,5,56,103,1378265380
59,14,17,Jits_Phase_5,1,5,63,98,1378275652
59,14,17,Jits_Phase_5,2,1,48,55,1378321040
59,14,17,Jits_Phase_5,3,5,80,127,1378365724
59,14,17,Jits_Phase_5,0,5,56,103,1378785668
59,14,17,Jits_Phase_5,1,1,48,63,1378806800
59,14,17,Jits_Phase_5,2,5,80,127,1378825476
59,14,17,Jits_Phase_5,3,5,63,98,1378835968
59,14,17,Jits_Phase_5,0,1,48,54,1379297084
59,14,17,Jits_Phase_5,1,5,56,103,1379305976
59,14,17,Jits_Phase_5,2,5,63,98,1379335504
59,14,17,Jits_Phase_5,3,5,80,127,1379366372
59,14,17,Jits_Phase_5,0,5,80,127,1379765556
59,14,17,Jits_Phase_5,1,1,48,56,1379805112
59,14,17,Jits_Phase_5,2,5,63,98,1379806532
59,14,17,Jits_Phase_5,3,5,56,103,1379826116
59,14,17,Jits_Phase_5,0,5,56,103,1380306288
59,14,17,Jits_Phase_5,1,1,48,57,1380311352
59,14,17,Jits_Phase_5,2,5,80,127,1380325692
59,14,17,Jits_Phase_5,3,5,63,98,1380346176
59,14,17,Jits_Phase_5,0,5,63,98,1380776236
59,14,17,Jits_Phase_5,1,5,56,103,1380785460
59,14,17,Jits_Phase_5,2,1,48,57,1380818096
59,14,17,Jits_Phase_5,3,5,80,127,1380846160
59,14,17,Jits_Phase_5,0,1,48,57,1381272944
59,14,17,Jits_Phase_5,1,5,56,103,1381276052
59,14,17,Jits_Phase_5,2,5,63,98,1381345508
59,14,17,Jits_Phase_5,3,5,80,127,1381366140
59,14,17,Jits_Phase_5,0,5,56,103,1381775660
59,14,17,Jits_Phase_5,1,1,48,55,1381804508
59,14,17,Jits_Phase_5,2,5,63,98,1381806000
59,14,17,Jits_Phase_5,3,5,80,127,1381846312
59,14,17,Jits_Phase_5,0,5,63,98,1382266284
59,14,17,Jits_Phase_5,1,1,48,52,1382309332
59,14,17,Jits_Phase_5,2,5,56,103,1382316328
59,14,17,Jits_Phase_5,3,5,80,127,1382325552
59,14,17,Jits_Phase_5,0,1,48,55,1382787648
59,14,17,Jits_Phase_5,1,5,56,103,1382805808
59,14,17,Jits_Phase_5,2,5,63,98,1382856232
59,14,17,Jits_Phase_5,3,5,80,127,1382866428
59,14,17,Jits_Phase_5,0,5,56,103,1383275972
59,14,17,Jits_Phase_5,1,5,63,98,1383286316
59,14,17,Jits_Phase_5,2,1,48,53,1383295288
59,14,17,Jits_Phase_5,3,5,80,127,1383366248
59,14,17,Jits_Phase_5,0,9999,9999,9999,1299023952
59,14,17,Jits_Phase_5,1,9999,9999,9999,1299523660
59,14,17,Jits_Phase_5,2,9999,9999,9999,1300023392
59,14,17,Jits_Phase_5,3,9999,9999,9999,1300523116
59,14,17,Jits_Phase_5,4,9999,9999,9999,1301023860
59,14,17,Jits_Phase_5,5,9999,9999,9999,1301523540
59,14,17,Jits_Phase_5,6,9999,9999,9999,1302023288
59,14,17,Jits_Phase_5,7,9999,9999,9999,1302524024
59,14,17,Jits_Phase_5,8,9999,9999,9999,1303023712
59,14,17,Jits_Phase_5,9,9999,9999,9999,1303523448
59,14,17,Jits_Phase_5,10,9999,9999,9999,1304023128
59,14,17,Jits_Phase_5,11,9999,9999,9999,1304523868
59,14,17,Jits_Phase_5,12,9999,9999,9999,1305023612
59,14,17,Jits_Phase_5,13,9999,9999,9999,1305523288
59,14,17,Jits_Phase_5,14,9999,9999,9999,1306024012
59,14,17,Jits_Phase_5,15,9999,9999,9999,1306523776
59,14,17,Jits_Phase_5,16,9999,9999,9999,1307023464
59,14,17,Jits_Phase_5,17,9999,9999,9999,1307523140
59,14,17,Jits_Phase_5,18,9999,9999,9999,1308023872
59,14,17,Jits_Phase_5,19,9999,9999,9999,1308523640
59,14,17,Jits_Phase_5,20,9999,9999,9999,1309023316
59,14,17,Jits_Phase_5,21,9999,9999,9999,1309524036
59,14,17,Jits_Phase_5,22,9999,9999,9999,1310023800
59,14,17,Jits_Phase_5,23,9999,9999,9999,1310523492
59,14,17,Jits_Phase_5,24,9999,9999,9999,1311023184
59,14,17,Jits_Phase_5,25,9999,9999,9999,1311523892
59,14,17,Jits_Phase_5,26,9999,9999,9999,1312023644
59,14,17,Jits_Phase_5,27,9999,9999,9999,1312523384
59,14,17,Jits_Phase_5,28,9999,9999,9999,1313024116
59,14,17,Jits_Phase_5,29,9999,9999,9999,1313534052
59,14,17,Jits_Phase_5,30,9999,9999,9999,1314023524
59,14,17,Jits_Phase_5,31,9999,9999,9999,1314523192
59,14,17,Jits_Phase_5,32,9999,9999,9999,1315023928
59,14,17,Jits_Phase_5,33,9999,9999,9999,1315523676
59,14,17,Jits_Phase_5,34,9999,9999,9999,1316023348
59,14,17,Jits_Phase_5,35,9999,9999,9999,1316523116
59,14,17,Jits_Phase_5,36,9999,9999,9999,1317023820
59,14,17,Jits_Phase_5,37,9999,9999,9999,1317523576
59,14,17,Jits_Phase_5,38,9999,9999,9999,1318023248
59,14,17,Jits_Phase_5,39,9999,9999,9999,1318523968
59,14,17,Jits_Phase_5,40,9999,9999,9999,1319023724
59,14,17,Jits_Phase_5,41,9999,9999,9999,1319523408
59,14,17,Jits_Phase_5,42,9999,9999,9999,1320023096
59,14,17,Jits_Phase_5,43,9999,9999,9999,1320523888
59,14,17,Jits_Phase_5,44,9999,9999,9999,1321023560
59,14,17,Jits_Phase_5,45,9999,9999,9999,1321523304
59,14,17,Jits_Phase_5,46,9999,9999,9999,1322024024
59,14,17,Jits_Phase_5,47,9999,9999,9999,1322523704
59,14,17,Jits_Phase_5,48,9999,9999,9999,1323033716
59,14,17,Jits_Phase_5,49,9999,9999,9999,1323533408
59,14,17,Jits_Phase_5,50,9999,9999,9999,1324033148
59,14,17,Jits_Phase_5,51,9999,9999,9999,1324533860
59,14,17,Jits_Phase_5,52,9999,9999,9999,1325033600
59,14,17,Jits_Phase_5,53,9999,9999,9999,1325533284
59,14,17,Jits_Phase_5,54,9999,9999,9999,1326034004
59,14,17,Jits_Phase_5,55,9999,9999,9999,1326533696
59,14,17,Jits_Phase_5,56,9999,9999,9999,1327033460
59,14,17,Jits_Phase_5,57,9999,9999,9999,1327533140
59,14,17,Jits_Phase_5,58,9999,9999,9999,1328033876
59,14,17,Jits_Phase_5,59,9999,9999,9999,1328533624
59,14,17,Jits_Phase_5,60,9999,9999,9999,1329033316
59,14,17,Jits_Phase_5,61,9999,9999,9999,1329534032
59,14,17,Jits_Phase_5,62,9999,9999,9999,1330033720
59,14,17,Jits_Phase_5,63,9999,9999,9999,1330533464
59,14,17,Jits_Phase_5,64,9999,9999,9999,1331053668
59,14,17,Jits_Phase_5,65,9999,9999,9999,1331553340
59,14,17,Jits_Phase_5,66,9999,9999,9999,1332054076
59,14,17,Jits_Phase_5,67,9999,9999,9999,1332564072
59,14,17,Jits_Phase_5,68,9999,9999,9999,1333063760
59,14,17,Jits_Phase_5,69,9999,9999,9999,1333563512
59,14,17,Jits_Phase_5,70,9999,9999,9999,1334063176
59,14,17,Jits_Phase_5,71,9999,9999,9999,1334563912
59,14,17,Jits_Phase_5,72,9999,9999,9999,1335063672
59,14,17,Jits_Phase_5,73,9999,9999,9999,1335563348
59,14,17,Jits_Phase_5,74,9999,9999,9999,1336064084
59,14,17,Jits_Phase_5,75,9999,9999,9999,1336574024
59,14,17,Jits_Phase_5,76,9999,9999,9999,1337073792
59,14,17,Jits_Phase_5,77,9999,9999,9999,1337573444
59,14,17,Jits_Phase_5,78,9999,9999,9999,1338073204
59,14,17,Jits_Phase_5,79,9999,9999,9999,1338573936
59,14,17,Jits_Phase_5,80,9999,9999,9999,1339073612
59,14,17,Jits_Phase_5,81,9999,9999,9999,1339553880
59,14,17,Jits_Phase_5,82,9999,9999,9999,1340053572
59,14,17,Jits_Phase_5,83,9999,9999,9999,1340553320
59,14,17,Jits_Phase_5,84,9999,9999,9999,1341054060
59,14,17,Jits_Phase_5,85,9999,9999,9999,1341553732
59,14,17,Jits_Phase_5,86,9999,9999,9999,1342053480
59,14,17,Jits_Phase_5,87,9999,9999,9999,1342553168
59,14,17,Jits_Phase_5,88,9999,9999,9999,1343053904
59,14,17,Jits_Phase_5,89,9999,9999,9999,1343553664
59,14,17,Jits_Phase_5,90,9999,9999,9999,1344053352
59,14,17,Jits_Phase_5,91,9999,9999,9999,1344554080
59,14,17,Jits_Phase_5,92,9999,9999,9999,1345053752
59,14,17,Jits_Phase_5,93,9999,9999,9999,1345553504
59,14,17,Jits_Phase_5,94,9999,9999,9999,1346053176
59,14,17,Jits_Phase_5,95,9999,9999,9999,1346553984
59,14,17,Jits_Phase_5,96,9999,9999,9999,1347053672
59,14,17,Jits_Phase_5,97,9999,9999,9999,1347503200
59,14,17,Jits_Phase_5,98,9999,9999,9999,1348003916
59,14,17,Jits_Phase_5,99,9999,9999,9999,1348503680
59,14,17,Jits_Phase_5,100,9999,9999,9999,1349003352
59,14,17,Jits_Phase_5,101,9999,9999,9999,1349504088
59,14,17,Jits_Phase_5,102,9999,9999,9999,1350014028
59,14,17,Jits_Phase_5,103,9999,9999,9999,1350513784
59,14,17,Jits_Phase_5,104,9999,9999,9999,1351013456
59,14,17,Jits_Phase_5,105,9999,9999,9999,1351513196
59,14,17,Jits_Phase_5,106,9999,9999,9999,1352013916
59,14,17,Jits_Phase_5,107,9999,9999,9999,1352513588
59,14,17,Jits_Phase_5,108,9999,9999,9999,1353013344
59,14,17,Jits_Phase_5,109,9999,9999,9999,1353514064
59,14,17,Jits_Phase_5,110,9999,9999,9999,1354013752
59,14,17,Jits_Phase_5,111,9999,9999,9999,1354513512
59,14,17,Jits_Phase_5,112,9999,9999,9999,1355013200
59,14,17,Jits_Phase_5,113,9999,9999,9999,1355513936
59,14,17,Jits_Phase_5,114,9999,9999,9999,1356063796
59,14,17,Jits_Phase_5,115,9999,9999,9999,1356563540
59,14,17,Jits_Phase_5,116,9999,9999,9999,1357063292
59,14,17,Jits_Phase_5,117,9999,9999,9999,1357564028
59,14,17,Jits_Phase_5,118,9999,9999,9999,1358063716
59,14,17,Jits_Phase_5,119,9999,9999,9999,1358563432
59,14,17,Jits_Phase_5,120,9999,9999,9999,1359063112
59,14,17,Jits_Phase_5,121,9999,9999,9999,1359563832
59,14,17,Jits_Phase_5,122,9999,9999,9999,1360063596
59,14,17,Jits_Phase_5,123,9999,9999,9999,1360563288
59,14,17,Jits_Phase_5,124,9999,9999,9999,1361064004
59,14,17,Jits_Phase_5,125,9999,9999,9999,1361563748
59,14,17,Jits_Phase_5,126,9999,9999,9999,1362063440
59,14,17,Jits_Phase_5,127,9999,9999,9999,1362563180
59,14,17,Jits_Phase_5,128,9999,9999,9999,1363063904
59,14,17,Jits_Phase_5,129,9999,9999,9999,1363563592
59,14,17,Jits_Phase_5,130,9999,9999,9999,1364063348
59,14,17,Jits_Phase_5,131,9999,9999,9999,1364663408
59,14,17,Jits_Phase_5,132,9999,9999,9999,1365163076
59,14,17,Jits_Phase_5,133,9999,9999,9999,1365663796
59,14,17,Jits_Phase_5,134,9999,9999,9999,1366163540
59,14,17,Jits_Phase_5,135,9999,9999,9999,1366663224
59,14,17,Jits_Phase_5,136,9999,9999,9999,1367163960
59,14,17,Jits_Phase_5,137,9999,9999,9999,1367663708
59,14,17,Jits_Phase_5,138,9999,9999,9999,1368163396
59,14,17,Jits_Phase_5,139,9999,9999,9999,1368663160
59,14,17,Jits_Phase_5,140,9999,9999,9999,1369163896
59,14,17,Jits_Phase_5,141,9999,9999,9999,1369663584
59,14,17,Jits_Phase_5,142,9999,9999,9999,1370163276
59,14,17,Jits_Phase_5,143,9999,9999,9999,1370664012
59,14,17,Jits_Phase_5,144,9999,9999,9999,1371163772
59,14,17,Jits_Phase_5,145,9999,9999,9999,1371663448
59,14,17,Jits_Phase_5,146,9999,9999,9999,1372163140
59,14,17,Jits_Phase_5,147,9999,9999,9999,1372663864
59,14,17,Jits_Phase_5,148,9999,9999,9999,1373163608
59,14,17,Jits_Phase_5,149,9999,9999,9999,1373663352
59,14,17,Jits_Phase_5,150,9999,9999,9999,1374063688
59,14,17,Jits_Phase_5,151,9999,9999,9999,1374563440
59,14,17,Jits_Phase_5,152,9999,9999,9999,1375063132
59,14,17,Jits_Phase_5,153,9999,9999,9999,1375563856
59,14,17,Jits_Phase_5,154,9999,9999,9999,1376063604
59,14,17,Jits_Phase_5,155,9999,9999,9999,1376563292
59,14,17,Jits_Phase_5,156,9999,9999,9999,1377064000
59,14,17,Jits_Phase_5,157,9999,9999,9999,1377563740
59,14,17,Jits_Phase_5,158,9999,9999,9999,1378063416
59,14,17,Jits_Phase_5,159,9999,9999,9999,1378563160
59,14,17,Jits_Phase_5,160,9999,9999,9999,1379063896
59,14,17,Jits_Phase_5,161,9999,9999,9999,1379563584
59,14,17,Jits_Phase_5,162,9999,9999,9999,1380063308
59,14,17,Jits_Phase_5,163,9999,9999,9999,1380564040
59,14,17,Jits_Phase_5,164,9999,9999,9999,1381063800
59,14,17,Jits_Phase_5,165,9999,9999,9999,1381563480
59,14,17,Jits_Phase_5,166,9999,9999,9999,1382063228
59,14,17,Jits_Phase_5,167,9999,9999,9999,1382563960
59,14,17,Jits_Phase_5,168,9999,9999,9999,1383063644
59,14,17,Jits_Phase_5,169,9999,9999,9999,1383563388
59,15,15,Jits_Phase_8,0,5,56,103,1393940992
59,15,15,Jits_Phase_8,1,5,63,98,1393944168
59,15,15,Jits_Phase_8,2,5,80,127,1393947216
59,15,15,Jits_Phase_8,0,5,56,103,1394740556
59,15,15,Jits_Phase_8,1,5,63,98,1394743812
59,15,15,Jits_Phase_8,2,5,80,127,1394746928
59,15,15,Jits_Phase_8,0,5,80,127,1395481028
59,15,15,Jits_Phase_8,1,5,63,98,1395571016
59,15,15,Jits_Phase_8,2,5,56,103,1395581360
59,15,15,Jits_Phase_8,0,5,56,103,1396301136
59,15,15,Jits_Phase_8,1,5,63,98,1396311632
59,15,15,Jits_Phase_8,2,5,80,127,1396400416
59,15,15,Jits_Phase_8,0,5,63,98,1397071128
59,15,15,Jits_Phase_8,1,5,80,127,1397100880
59,15,15,Jits_Phase_8,2,5,56,103,1397130776
59,15,15,Jits_Phase_8,3,1,48,59,1397172852
59,15,15,Jits_Phase_8,0,5,56,103,1397870880
59,15,15,Jits_Phase_8,1,1,48,71,1397924192
59,15,15,Jits_Phase_8,2,5,80,127,1397971420
59,15,15,Jits_Phase_8,3,5,63,98,1398020584
59,15,15,Jits_Phase_8,0,5,56,103,1398670804
59,15,15,Jits_Phase_8,1,5,80,127,1398720860
59,15,15,Jits_Phase_8,2,1,48,64,1398740836
59,15,15,Jits_Phase_8,3,5,63,98,1398760964
59,15,15,Jits_Phase_8,0,5,80,127,1399501144
59,15,15,Jits_Phase_8,1,1,48,58,1399511308
59,15,15,Jits_Phase_8,2,5,63,98,1399530760
59,15,15,Jits_Phase_8,3,5,56,103,1399600364
59,15,15,Jits_Phase_8,0,5,63,98,1400330684
59,15,15,Jits_Phase_8,1,1,48,53,1400357024
59,15,15,Jits_Phase_8,2,5,56,103,1400361324
59,15,15,Jits_Phase_8,3,5,80,127,1400420816
59,15,15,Jits_Phase_8,0,5,56,103,1401070956
59,15,15,Jits_Phase_8,1,5,80,127,1401074020
59,15,15,Jits_Phase_8,2,1,48,67,1401179936
59,15,15,Jits_Phase_8,3,5,63,98,1401190896
59,15,15,Jits_Phase_8,0,1,48,64,1401912492
59,15,15,Jits_Phase_8,1,5,56,103,1401950800
59,15,15,Jits_Phase_8,2,5,80,127,1401990664
59,15,15,Jits_Phase_8,3,5,63,98,1402001008
59,15,15,Jits_Phase_8,0,5,56,103,1402711380
59,15,15,Jits_Phase_8,1,5,80,127,1402730796
59,15,15,Jits_Phase_8,2,1,48,56,1402731684
59,15,15,Jits_Phase_8,3,5,63,98,1402810952
59,15,15,Jits_Phase_8,0,5,80,127,1403500968
59,15,15,Jits_Phase_8,1,1,48,55,1403527900
59,15,15,Jits_Phase_8,2,5,56,103,1403601208
59,15,15,Jits_Phase_8,3,5,63,98,1403610580
59,15,15,Jits_Phase_8,0,5,63,98,1404270924
59,15,15,Jits_Phase_8,1,5,80,127,1404331240
59,15,15,Jits_Phase_8,2,5,56,103,1404340540
59,15,15,Jits_Phase_8,3,1,48,59,1404361560
59,15,15,Jits_Phase_8,0,5,56,103,1405070828
59,15,15,Jits_Phase_8,1,1,48,65,1405123464
59,15,15,Jits_Phase_8,2,5,63,98,1405141472
59,15,15,Jits_Phase_8,3,5,80,127,1405144760
59,15,15,Jits_Phase_8,0,1,48,59,1405889068
59,15,15,Jits_Phase_8,1,5,63,98,1405901148
59,15,15,Jits_Phase_8,2,5,56,103,1405951448
59,15,15,Jits_Phase_8,3,5,80,127,1405954516
59,15,15,Jits_Phase_8,0,5,56,103,1406660968
59,15,15,Jits_Phase_8,1,5,80,127,1406664036
59,15,15,Jits_Phase_8,2,1,48,58,1406683936
59,15,15,Jits_Phase_8,3,5,63,98,1406750968
59,15,15,Jits_Phase_8,0,1,48,54,1407487236
59,15,15,Jits_Phase_8,1,5,63,98,1407500532
59,15,15,Jits_Phase_8,2,5,56,103,1407590724
59,15,15,Jits_Phase_8,3,5,80,127,1407620548
59,15,15,Jits_Phase_8,0,5,56,103,1408291236
59,15,15,Jits_Phase_8,1,1,48,58,1408311516
59,15,15,Jits_Phase_8,2,5,63,98,1408390876
59,15,15,Jits_Phase_8,3,5,80,127,1408421136
59,15,15,Jits_Phase_8,0,5,63,98,1409111608
59,15,15,Jits_Phase_8,1,5,56,103,1409120608
59,15,15,Jits_Phase_8,2,1,48,53,1409136908
59,15,15,Jits_Phase_8,3,5,80,127,1409210732
59,15,15,Jits_Phase_8,0,5,63,98,1409930472
59,15,15,Jits_Phase_8,1,1,48,62,1409969636
59,15,15,Jits_Phase_8,2,5,56,103,1410010788
59,15,15,Jits_Phase_8,3,5,80,127,1410013700
59,15,15,Jits_Phase_8,0,5,80,127,1410690368
59,15,15,Jits_Phase_8,1,5,63,98,1410710828
59,15,15,Jits_Phase_8,2,5,56,103,1410771512
59,15,15,Jits_Phase_8,3,1,48,61,1410796452
59,15,15,Jits_Phase_8,0,5,56,103,1411531120
59,15,15,Jits_Phase_8,1,5,63,98,1411550528
59,15,15,Jits_Phase_8,2,5,80,127,1411553816
59,15,15,Jits_Phase_8,3,1,48,65,1411567748
59,15,15,Jits_Phase_8,0,5,63,98,1412270792
59,15,15,Jits_Phase_8,1,5,80,127,1412351588
59,15,15,Jits_Phase_8,2,5,56,103,1412360512
59,15,15,Jits_Phase_8,3,1,48,79,1412362000
59,15,15,Jits_Phase_8,0,5,63,98,1413090708
59,15,15,Jits_Phase_8,1,5,56,103,1413111116
59,15,15,Jits_Phase_8,2,1,48,77,1413123672
59,15,15,Jits_Phase_8,3,5,80,127,1413161456
59,15,15,Jits_Phase_8,0,5,80,127,1413890708
59,15,15,Jits_Phase_8,1,1,48,63,1413912408
59,15,15,Jits_Phase_8,2,5,63,98,1413931688
59,15,15,Jits_Phase_8,3,5,56,103,1413950804
59,15,15,Jits_Phase_8,0,1,48,72,1414709336
59,15,15,Jits_Phase_8,1,5,56,103,1414731232
59,15,15,Jits_Phase_8,2,5,63,98,1414741724
59,15,15,Jits_Phase_8,3,5,80,127,1414760764
59,15,15,Jits_Phase_8,0,5,56,103,1415461312
59,15,15,Jits_Phase_8,1,1,48,60,1415500928
59,15,15,Jits_Phase_8,2,5,63,98,1415551516
59,15,15,Jits_Phase_8,3,5,80,127,1415610696
59,15,15,Jits_Phase_8,0,1,48,89,1416282708
59,15,15,Jits_Phase_8,1,5,80,127,1416290604
59,15,15,Jits_Phase_8,2,5,56,103,1416300872
59,15,15,Jits_Phase_8,3,5,63,98,1416370476
59,15,15,Jits_Phase_8,0,1,48,75,1417106508
59,15,15,Jits_Phase_8,1,5,63,98,1417121072
59,15,15,Jits_Phase_8,2,5,80,127,1417211364
59,15,15,Jits_Phase_8,3,5,56,103,1417220588
59,15,15,Jits_Phase_8,0,5,63,98,1417851536
59,15,15,Jits_Phase_8,1,5,80,127,1417901444
59,15,15,Jits_Phase_8,2,5,56,103,1417960812
59,15,15,Jits_Phase_8,3,1,48,57,1417963480
59,15,15,Jits_Phase_8,0,5,56,103,1418670704
59,15,15,Jits_Phase_8,1,1,48,57,1418698764
59,15,15,Jits_Phase_8,2,5,80,127,1418720600
59,15,15,Jits_Phase_8,3,5,63,98,1418741380
59,15,15,Jits_Phase_8,0,5,56,103,1419440580
59,15,15,Jits_Phase_8,1,1,48,62,1419457252
59,15,15,Jits_Phase_8,2,5,80,127,1419500844
59,15,15,Jits_Phase_8,3,5,63,98,1419570580
59,15,15,Jits_Phase_8,0,1,48,64,1420233644
59,15,15,Jits_Phase_8,1,5,56,103,1420241616
59,15,15,Jits_Phase_8,2,5,80,127,1420270944
59,15,15,Jits_Phase_8,3,5,63,98,1420300768
59,15,15,Jits_Phase_8,0,1,48,59,1421049092
59,15,15,Jits_Phase_8,1,5,56,103,1421081028
59,15,15,Jits_Phase_8,2,5,80,127,1421101340
59,15,15,Jits_Phase_8,3,5,63,98,1421160816
59,15,15,Jits_Phase_8,0,1,48,61,1421847564
59,15,15,Jits_Phase_8,1,5,80,127,1421960564
59,15,15,Jits_Phase_8,2,5,56,103,1421970764
59,15,15,Jits_Phase_8,3,5,63,98,1421980960
59,15,15,Jits_Phase_8,0,1,48,63,1422716704
59,15,15,Jits_Phase_8,1,5,56,103,1422721384
59,15,15,Jits_Phase_8,2,5,80,127,1422761548
59,15,15,Jits_Phase_8,3,5,63,98,1422791072
59,15,15,Jits_Phase_8,0,5,56,103,1423490516
59,15,15,Jits_Phase_8,1,1,48,70,1423495432
59,15,15,Jits_Phase_8,2,5,63,98,1423521084
59,15,15,Jits_Phase_8,3,5,80,127,1423561316
59,15,15,Jits_Phase_8,0,5,80,127,1424241064
59,15,15,Jits_Phase_8,1,1,48,60,1424281648
59,15,15,Jits_Phase_8,2,5,63,98,1424291184
59,15,15,Jits_Phase_8,3,5,56,103,1424310520
59,15,15,Jits_Phase_8,0,1,48,61,1425046560
59,15,15,Jits_Phase_8,1,5,56,103,1425070420
59,15,15,Jits_Phase_8,2,5,80,127,1425141528
59,15,15,Jits_Phase_8,3,5,63,98,1425200572
59,15,15,Jits_Phase_8,0,1,48,65,1425838392
59,15,15,Jits_Phase_8,1,5,80,127,1425871448
59,15,15,Jits_Phase_8,2,5,63,98,1425961372
59,15,15,Jits_Phase_8,3,5,56,103,1425980856
59,15,15,Jits_Phase_8,0,5,63,98,1426690352
59,15,15,Jits_Phase_8,1,1,48,50,1426706952
59,15,15,Jits_Phase_8,2,5,56,103,1426710880
59,15,15,Jits_Phase_8,3,5,80,127,1426750744
59,15,15,Jits_Phase_8,0,5,80,127,1427451372
59,15,15,Jits_Phase_8,1,5,63,98,1427470636
59,15,15,Jits_Phase_8,2,1,48,71,1427488804
59,15,15,Jits_Phase_8,3,5,56,103,1427550496
59,15,15,Jits_Phase_8,0,5,63,98,1428240804
59,15,15,Jits_Phase_8,1,1,48,68,1428271496
59,15,15,Jits_Phase_8,2,5,56,103,1428351380
59,15,15,Jits_Phase_8,3,5,80,127,1428354520
59,15,15,Jits_Phase_8,0,5,63,98,1429061076
59,15,15,Jits_Phase_8,1,1,48,65,1429065688
59,15,15,Jits_Phase_8,2,5,56,103,1429071340
59,15,15,Jits_Phase_8,3,5,80,127,1429074480
59,15,15,Jits_Phase_8,0,5,56,103,1429841264
59,15,15,Jits_Phase_8,1,1,48,59,1429843928
59,15,15,Jits_Phase_8,2,5,80,127,1429961416
59,15,15,Jits_Phase_8,3,5,63,98,1430001232
59,15,15,Jits_Phase_8,0,5,56,103,1430660444
59,15,15,Jits_Phase_8,1,1,48,78,1430675920
59,15,15,Jits_Phase_8,2,5,80,127,1430741356
59,15,15,Jits_Phase_8,3,5,63,98,1430760792
59,15,15,Jits_Phase_8,0,5,56,103,1431461412
59,15,15,Jits_Phase_8,1,1,48,32,1431479304
59,15,15,Jits_Phase_8,2,5,63,98,1431570744
59,15,15,Jits_Phase_8,3,5,80,127,1431574768
59,15,15,Jits_Phase_8,0,1,48,69,1432284372
59,15,15,Jits_Phase_8,1,5,56,103,1432300908
59,15,15,Jits_Phase_8,2,5,80,127,1432330584
59,15,15,Jits_Phase_8,3,5,63,98,1432351116
59,15,15,Jits_Phase_8,0,1,48,57,1433068884
59,15,15,Jits_Phase_8,1,5,63,98,1433090480
59,15,15,Jits_Phase_8,2,5,56,103,1433100676
59,15,15,Jits_Phase_8,3,5,80,127,1433110872
59,15,15,Jits_Phase_8,0,1,48,65,1433834612
59,15,15,Jits_Phase_8,1,5,80,127,1433881016
59,15,15,Jits_Phase_8,2,5,56,103,1433931204
59,15,15,Jits_Phase_8,3,5,63,98,1433971216
59,15,15,Jits_Phase_8,0,1,48,66,1434600424
59,15,15,Jits_Phase_8,1,5,80,127,1434701352
59,15,15,Jits_Phase_8,2,5,63,98,1434720768
59,15,15,Jits_Phase_8,3,5,56,103,1434770668
59,15,15,Jits_Phase_8,0,1,48,79,1435422428
59,15,15,Jits_Phase_8,1,5,80,127,1435511312
59,15,15,Jits_Phase_8,2,5,56,103,1435540976
59,15,15,Jits_Phase_8,3,5,63,98,1435610432
59,15,15,Jits_Phase_8,0,1,48,60,1436277400
59,15,15,Jits_Phase_8,1,5,56,103,1436361124
59,15,15,Jits_Phase_8,2,5,80,127,1436371168
59,15,15,Jits_Phase_8,3,5,63,98,1436411192
59,15,15,Jits_Phase_8,0,5,56,103,1437070836
59,15,15,Jits_Phase_8,1,5,63,98,1437091372
59,15,15,Jits_Phase_8,2,1,48,62,1437160924
59,15,15,Jits_Phase_8,3,5,80,127,1437162188
59,15,15,Jits_Phase_8,0,5,63,98,1437891132
59,15,15,Jits_Phase_8,1,1,48,65,1437947916
59,15,15,Jits_Phase_8,2,5,80,127,1437951540
59,15,15,Jits_Phase_8,3,5,56,103,1437970804
59,15,15,Jits_Phase_8,0,5,80,127,1438680404
59,15,15,Jits_Phase_8,1,5,56,103,1438711296
59,15,15,Jits_Phase_8,2,5,63,98,1438740972
59,15,15,Jits_Phase_8,3,1,48,57,1438801180
59,15,15,Jits_Phase_8,0,5,56,103,1439481164
59,15,15,Jits_Phase_8,1,5,63,98,1439540584
59,15,15,Jits_Phase_8,2,1,48,65,1439559968
59,15,15,Jits_Phase_8,3,5,80,127,1439601188
59,15,15,Jits_Phase_8,0,5,80,127,1440301468
59,15,15,Jits_Phase_8,1,5,56,103,1440320804
59,15,15,Jits_Phase_8,2,1,48,65,1440335532
59,15,15,Jits_Phase_8,3,5,63,98,1440390480
59,15,15,Jits_Phase_8,0,5,80,127,1441101308
59,15,15,Jits_Phase_8,1,5,63,98,1441120572
59,15,15,Jits_Phase_8,2,5,56,103,1441151296
59,15,15,Jits_Phase_8,3,1,48,68,1441155460
59,15,15,Jits_Phase_8,0,5,80,127,1441890592
59,15,15,Jits_Phase_8,1,5,63,98,1441911124
59,15,15,Jits_Phase_8,2,1,48,61,1441938436
59,15,15,Jits_Phase_8,3,5,56,103,1441970460
59,15,15,Jits_Phase_8,0,5,80,127,1442690360
59,15,15,Jits_Phase_8,1,1,48,59,1442741052
59,15,15,Jits_Phase_8,2,5,56,103,1442790996
59,15,15,Jits_Phase_8,3,5,63,98,1442820524
59,15,15,Jits_Phase_8,0,5,63,98,1443481140
59,15,15,Jits_Phase_8,1,5,80,127,1443531120
59,15,15,Jits_Phase_8,2,1,48,70,1443548640
59,15,15,Jits_Phase_8,3,5,56,103,1443550524
59,15,15,Jits_Phase_8,0,1,48,72,1444310684
59,15,15,Jits_Phase_8,1,5,80,127,1444320820
59,15,15,Jits_Phase_8,2,5,56,103,1444351188
59,15,15,Jits_Phase_8,3,5,63,98,1444354336
59,15,15,Jits_Phase_8,0,1,48,76,1445088416
59,15,15,Jits_Phase_8,1,5,63,98,1445170424
59,15,15,Jits_Phase_8,2,5,56,103,1445210348
59,15,15,Jits_Phase_8,3,5,80,127,1445231180
59,15,15,Jits_Phase_8,0,1,48,65,1445889020
59,15,15,Jits_Phase_8,1,5,80,127,1445931300
59,15,15,Jits_Phase_8,2,5,63,98,1446011380
59,15,15,Jits_Phase_8,3,5,56,103,1446051168
59,15,15,Jits_Phase_8,0,1,48,72,1446712528
59,15,15,Jits_Phase_8,1,5,63,98,1446750468
59,15,15,Jits_Phase_8,2,5,80,127,1446830396
59,15,15,Jits_Phase_8,3,5,56,103,1446851080
59,15,15,Jits_Phase_8,0,1,48,75,1447564360
59,15,15,Jits_Phase_8,1,5,56,103,1447591284
59,15,15,Jits_Phase_8,2,5,63,98,1447600508
59,15,15,Jits_Phase_8,3,5,80,127,1447640444
59,15,15,Jits_Phase_8,0,5,56,103,1448321444
59,15,15,Jits_Phase_8,1,5,80,127,1448324436
59,15,15,Jits_Phase_8,2,1,48,65,1448359036
59,15,15,Jits_Phase_8,3,5,63,98,1448460728
59,15,15,Jits_Phase_8,0,5,56,103,1449111092
59,15,15,Jits_Phase_8,1,1,48,62,1449117052
59,15,15,Jits_Phase_8,2,5,63,98,1449201096
59,15,15,Jits_Phase_8,3,5,80,127,1449270836
59,15,15,Jits_Phase_8,0,1,48,57,1449861388
59,15,15,Jits_Phase_8,1,5,63,98,1449990512
59,15,15,Jits_Phase_8,2,5,80,127,1449994096
59,15,15,Jits_Phase_8,3,5,56,103,1450051120
59,15,15,Jits_Phase_8,0,1,48,51,1450692004
59,15,15,Jits_Phase_8,1,5,80,127,1450831316
59,15,15,Jits_Phase_8,2,5,56,103,1450850876
59,15,15,Jits_Phase_8,3,5,63,98,1450861148
59,15,15,Jits_Phase_8,0,5,56,103,1451541048
59,15,15,Jits_Phase_8,1,5,63,98,1451551096
59,15,15,Jits_Phase_8,2,5,80,127,1451620848
59,15,15,Jits_Phase_8,3,1,48,50,1451629892
59,15,15,Jits_Phase_8,0,5,80,127,1452340592
59,15,15,Jits_Phase_8,1,5,56,103,1452390868
59,15,15,Jits_Phase_8,2,1,48,43,1452440168
59,15,15,Jits_Phase_8,3,5,63,98,1452441884
59,15,15,Jits_Phase_8,0,1,48,43,1453158296
59,15,15,Jits_Phase_8,1,5,56,103,1453221196
59,15,15,Jits_Phase_8,2,5,63,98,1453230568
59,15,15,Jits_Phase_8,3,5,80,127,1453271468
59,15,15,Jits_Phase_8,0,1,48,64,1453960512
59,15,15,Jits_Phase_8,1,5,56,103,1453961924
59,15,15,Jits_Phase_8,2,5,63,98,1454000516
59,15,15,Jits_Phase_8,3,5,80,127,1454050868
59,15,15,Jits_Phase_8,0,5,80,127,1454721288
59,15,15,Jits_Phase_8,1,1,48,67,1454733916
59,15,15,Jits_Phase_8,2,5,56,103,1454770584
59,15,15,Jits_Phase_8,3,5,63,98,1454791044
59,15,15,Jits_Phase_8,0,1,48,68,1455484008
59,15,15,Jits_Phase_8,1,5,80,127,1455531236
59,15,15,Jits_Phase_8,2,5,63,98,1455590740
59,15,15,Jits_Phase_8,3,5,56,103,1455670832
59,15,15,Jits_Phase_8,0,5,80,127,1456310992
59,15,15,Jits_Phase_8,1,1,48,65,1456317484
59,15,15,Jits_Phase_8,2,5,56,103,1456350780
59,15,15,Jits_Phase_8,3,5,63,98,1456370964
59,15,15,Jits_Phase_8,0,1,48,60,1457098900
59,15,15,Jits_Phase_8,1,5,56,103,1457160752
59,15,15,Jits_Phase_8,2,5,80,127,1457171024
59,15,15,Jits_Phase_8,3,5,63,98,1457210796
59,15,15,Jits_Phase_8,0,1,48,76,1457901148
59,15,15,Jits_Phase_8,1,5,56,103,1458030996
59,15,15,Jits_Phase_8,2,5,63,98,1458070936
59,15,15,Jits_Phase_8,3,5,80,127,1458074300
59,15,15,Jits_Phase_8,0,5,63,98,1458700712
59,15,15,Jits_Phase_8,1,5,80,127,1458741024
59,15,15,Jits_Phase_8,2,1,48,19,1458762276
59,15,15,Jits_Phase_8,3,5,56,103,1458811224
59,15,15,Jits_Phase_8,0,5,63,98,1459470804
59,15,15,Jits_Phase_8,1,1,48,78,1459498860
59,15,15,Jits_Phase_8,2,5,56,103,1459550744
59,15,15,Jits_Phase_8,3,5,80,127,1459610968
59,15,15,Jits_Phase_8,0,5,80,127,1460280604
59,15,15,Jits_Phase_8,1,1,48,70,1460297496
59,15,15,Jits_Phase_8,2,5,63,98,1460330948
59,15,15,Jits_Phase_8,3,5,56,103,1460360844
59,15,15,Jits_Phase_8,0,5,56,103,1461071228
59,15,15,Jits_Phase_8,1,1,48,50,1461083036
59,15,15,Jits_Phase_8,2,5,63,98,1461121352
59,15,15,Jits_Phase_8,3,5,80,127,1461130872
59,15,15,Jits_Phase_8,0,1,48,59,1461809756
59,15,15,Jits_Phase_8,1,5,56,103,1461881176
59,15,15,Jits_Phase_8,2,5,63,98,1461990804
59,15,15,Jits_Phase_8,3,5,80,127,1462011112
59,15,15,Jits_Phase_8,0,1,48,68,1462648384
59,15,15,Jits_Phase_8,1,5,63,98,1462680940
59,15,15,Jits_Phase_8,2,5,80,127,1462731068
59,15,15,Jits_Phase_8,3,5,56,103,1462821132
59,15,15,Jits_Phase_8,0,5,63,98,1463470440
59,15,15,Jits_Phase_8,1,1,48,68,1463487712
59,15,15,Jits_Phase_8,2,5,80,127,1463501156
59,15,15,Jits_Phase_8,3,5,56,103,1463591148
59,15,15,Jits_Phase_8,0,5,63,98,1464271092
59,15,15,Jits_Phase_8,1,5,56,103,1464280612
59,15,15,Jits_Phase_8,2,1,48,63,1464321220
59,15,15,Jits_Phase_8,3,5,80,127,1464380724
59,15,15,Jits_Phase_8,0,1,48,64,1465124180
59,15,15,Jits_Phase_8,1,5,63,98,1465171260
59,15,15,Jits_Phase_8,2,5,80,127,1465200936
59,15,15,Jits_Phase_8,3,5,56,103,1465230672
59,15,15,Jits_Phase_8,0,1,48,69,1465935776
59,15,15,Jits_Phase_8,1,5,80,127,1465990732
59,15,15,Jits_Phase_8,2,5,63,98,1466000776
59,15,15,Jits_Phase_8,3,5,56,103,1466030588
59,15,15,Jits_Phase_8,0,5,80,127,1466690860
59,15,15,Jits_Phase_8,1,5,63,98,1466711692
59,15,15,Jits_Phase_8,2,1,48,55,1466739392
59,15,15,Jits_Phase_8,3,5,56,103,1466760760
59,15,15,Jits_Phase_8,0,1,48,68,1467442644
59,15,15,Jits_Phase_8,1,5,63,98,1467521560
59,15,15,Jits_Phase_8,2,5,80,127,1467580820
59,15,15,Jits_Phase_8,3,5,56,103,1467601352
59,15,15,Jits_Phase_8,0,1,48,70,1468241880
59,15,15,Jits_Phase_8,1,5,63,98,1468281244
59,15,15,Jits_Phase_8,2,5,56,103,1468331520
59,15,15,Jits_Phase_8,3,5,80,127,1468340580
59,15,15,Jits_Phase_8,0,1,48,73,1469032120
59,15,15,Jits_Phase_8,1,5,56,103,1469110664
59,15,15,Jits_Phase_8,2,5,80,127,1469121008
59,15,15,Jits_Phase_8,3,5,63,98,1469221264
59,15,15,Jits_Phase_8,0,5,80,127,1469870568
59,15,15,Jits_Phase_8,1,5,63,98,1469880620
59,15,15,Jits_Phase_8,2,1,48,66,1469897512
59,15,15,Jits_Phase_8,3,5,56,103,1470031504
59,15,15,Jits_Phase_8,0,5,63,98,1470680528
59,15,15,Jits_Phase_8,1,5,80,127,1470721688
59,15,15,Jits_Phase_8,2,1,48,53,1470726456
59,15,15,Jits_Phase_8,3,5,56,103,1470801324
59,15,15,Jits_Phase_8,0,5,56,103,1471431060
59,15,15,Jits_Phase_8,1,1,48,64,1471510256
59,15,15,Jits_Phase_8,2,5,80,127,1471531628
59,15,15,Jits_Phase_8,3,5,63,98,1471550740
59,15,15,Jits_Phase_8,0,5,80,127,1472251396
59,15,15,Jits_Phase_8,1,5,56,103,1472260620
59,15,15,Jits_Phase_8,2,1,48,18,1472263588
59,15,15,Jits_Phase_8,3,1,48,29,1472268052
59,15,15,Jits_Phase_8,4,5,63,98,1472350572
59,15,15,Jits_Phase_8,0,5,56,103,1473051056
59,15,15,Jits_Phase_8,1,1,48,60,1473064364
59,15,15,Jits_Phase_8,2,5,63,98,1473070684
59,15,15,Jits_Phase_8,3,5,80,127,1473151448
59,15,15,Jits_Phase_8,0,5,63,98,1473800708
59,15,15,Jits_Phase_8,1,1,48,70,1473829680
59,15,15,Jits_Phase_8,2,5,56,103,1473890612
59,15,15,Jits_Phase_8,3,5,80,127,1473893676
59,15,15,Jits_Phase_8,0,1,48,72,1474630568
59,15,15,Jits_Phase_8,1,5,56,103,1474631984
59,15,15,Jits_Phase_8,2,5,80,127,1474690504
59,15,15,Jits_Phase_8,3,5,63,98,1474700628
59,15,15,Jits_Phase_8,0,1,48,67,1475384808
59,15,15,Jits_Phase_8,1,5,80,127,1475480876
59,15,15,Jits_Phase_8,2,5,56,103,1475491444
59,15,15,Jits_Phase_8,3,5,63,98,1475494508
59,15,15,Jits_Phase_8,0,1,48,76,1476198804
59,15,15,Jits_Phase_8,1,5,56,103,1476240704
59,15,15,Jits_Phase_8,2,5,80,127,1476250976
59,15,15,Jits_Phase_8,3,5,63,98,1476270684
59,15,15,Jits_Phase_8,0,1,48,73,1476962808
59,15,15,Jits_Phase_8,1,5,63,98,1477010788
59,15,15,Jits_Phase_8,2,5,80,127,1477071388
59,15,15,Jits_Phase_8,3,5,56,103,1477121536
59,15,15,Jits_Phase_8,0,1,48,56,1477738896
59,15,15,Jits_Phase_8,1,5,63,98,1477890644
59,15,15,Jits_Phase_8,2,5,56,103,1477900620
59,15,15,Jits_Phase_8,3,5,80,127,1477950744
59,15,15,Jits_Phase_8,0,5,63,98,1478590760
59,15,15,Jits_Phase_8,1,1,48,68,1478594548
59,15,15,Jits_Phase_8,2,5,80,127,1478611584
59,15,15,Jits_Phase_8,3,5,56,103,1478620660
59,15,15,Jits_Phase_8,0,5,63,98,1479390580
59,15,15,Jits_Phase_8,1,5,80,127,1479393796
59,15,15,Jits_Phase_8,2,1,48,67,1479412676
59,15,15,Jits_Phase_8,3,5,56,103,1479430536
59,15,15,Jits_Phase_8,0,1,48,78,1480174052
59,15,15,Jits_Phase_8,1,5,63,98,1480260840
59,15,15,Jits_Phase_8,2,5,80,127,1480290652
59,15,15,Jits_Phase_8,3,5,56,103,1480300848
59,15,15,Jits_Phase_8,0,1,48,78,1481010328
59,15,15,Jits_Phase_8,1,5,56,103,1481011668
59,15,15,Jits_Phase_8,2,5,80,127,1481041268
59,15,15,Jits_Phase_8,3,5,63,98,1481071164
59,15,15,Jits_Phase_8,0,1,48,67,1481827868
59,15,15,Jits_Phase_8,1,5,63,98,1481910696
59,15,15,Jits_Phase_8,2,5,56,103,1481950544
59,15,15,Jits_Phase_8,3,5,80,127,1481953612
59,15,15,Jits_Phase_8,0,5,80,127,1482611260
59,15,15,Jits_Phase_8,1,1,48,66,1482649228
59,15,15,Jits_Phase_8,2,5,56,103,1482690828
59,15,15,Jits_Phase_8,3,5,63,98,1482741276
59,15,15,Jits_Phase_8,0,5,80,127,1483391256
59,15,15,Jits_Phase_8,1,5,56,103,1483410816
59,15,15,Jits_Phase_8,2,1,48,66,1483496592
59,15,15,Jits_Phase_8,3,5,63,98,1483500892
59,15,15,Jits_Phase_8,0,5,80,127,1484231108
59,15,15,Jits_Phase_8,1,1,48,61,1484245316
59,15,15,Jits_Phase_8,2,5,63,98,1484270916
59,15,15,Jits_Phase_8,3,5,56,103,1484311004
59,15,15,Jits_Phase_8,0,5,63,98,1485041100
59,15,15,Jits_Phase_8,1,1,48,66,1485069248
59,15,15,Jits_Phase_8,2,5,80,127,1485101332
59,15,15,Jits_Phase_8,3,5,56,103,1485131380
59,15,15,Jits_Phase_8,0,1,48,74,1485857364
59,15,15,Jits_Phase_8,1,5,56,103,1485880628
59,15,15,Jits_Phase_8,2,5,80,127,1485911424
59,15,15,Jits_Phase_8,3,5,63,98,1486000492
59,15,15,Jits_Phase_8,0,1,48,59,1486689372
59,15,15,Jits_Phase_8,1,5,56,103,1486690868
59,15,15,Jits_Phase_8,2,5,80,127,1486801368
59,15,15,Jits_Phase_8,3,5,63,98,1486830844
59,15,15,Jits_Phase_8,0,1,48,69,1487535104
59,15,15,Jits_Phase_8,1,5,56,103,1487540460
59,15,15,Jits_Phase_8,2,5,63,98,1487601100
59,15,15,Jits_Phase_8,3,5,80,127,1487630684
59,15,15,Jits_Phase_8,0,5,56,103,1488310636
59,15,15,Jits_Phase_8,1,1,48,79,1488333528
59,15,15,Jits_Phase_8,2,5,63,98,1488381380
59,15,15,Jits_Phase_8,3,5,80,127,1488400644
59,15,15,Jits_Phase_8,0,5,80,127,1489080812
59,15,15,Jits_Phase_8,1,5,63,98,1489101272
59,15,15,Jits_Phase_8,2,5,56,103,1489151424
59,15,15,Jits_Phase_8,3,1,48,68,1489220320
59,15,15,Jits_Phase_8,0,5,63,98,1489901056
59,15,15,Jits_Phase_8,1,5,80,127,1489911252
59,15,15,Jits_Phase_8,2,5,56,103,1489961232
59,15,15,Jits_Phase_8,3,1,48,72,1489970200
59,15,15,Jits_Phase_8,0,5,63,98,1490700512
59,15,15,Jits_Phase_8,1,5,80,127,1490771392
59,15,15,Jits_Phase_8,2,5,56,103,1490790804
59,15,15,Jits_Phase_8,3,1,48,68,1490801488
59,15,15,Jits_Phase_8,0,5,63,98,1491531288
59,15,15,Jits_Phase_8,1,5,80,127,1491534500
59,15,15,Jits_Phase_8,2,1,48,53,1491599988
59,15,15,Jits_Phase_8,3,5,56,103,1491601560
59,15,15,Jits_Phase_8,0,5,80,127,1492280692
59,15,15,Jits_Phase_8,1,5,56,103,1492301148
59,15,15,Jits_Phase_8,2,5,63,98,1492311344
59,15,15,Jits_Phase_8,3,1,48,57,1492365924
59,15,15,Jits_Phase_8,0,5,56,103,1493100980
59,15,15,Jits_Phase_8,1,1,48,60,1493126868
59,15,15,Jits_Phase_8,2,5,63,98,1493191256
59,15,15,Jits_Phase_8,3,5,80,127,1493194468
59,15,15,Jits_Phase_8,0,5,80,127,1493871000
59,15,15,Jits_Phase_8,1,5,56,103,1493881196
59,15,15,Jits_Phase_8,2,5,63,98,1493900684
59,15,15,Jits_Phase_8,3,1,48,64,1493905000
59,15,15,Jits_Phase_8,0,5,63,98,1494670620
59,15,15,Jits_Phase_8,1,1,48,58,1494689028
59,15,15,Jits_Phase_8,2,5,80,127,1494731004
59,15,15,Jits_Phase_8,3,5,56,103,1494741568
59,15,15,Jits_Phase_8,0,1,48,62,1495520316
59,15,15,Jits_Phase_8,1,5,63,98,1495541112
59,15,15,Jits_Phase_8,2,5,80,127,1495571236
59,15,15,Jits_Phase_8,3,5,56,103,1495610876
59,15,15,Jits_Phase_8,0,1,48,54,1496319800
59,15,15,Jits_Phase_8,1,5,56,103,1496330464
59,15,15,Jits_Phase_8,2,5,80,127,1496341032
59,15,15,Jits_Phase_8,3,5,63,98,1496381044
59,15,15,Jits_Phase_8,0,5,80,127,1497090372
59,15,15,Jits_Phase_8,1,1,48,73,1497116480
59,15,15,Jits_Phase_8,2,5,56,103,1497171432
59,15,15,Jits_Phase_8,3,5,63,98,1497180432
59,15,15,Jits_Phase_8,0,1,48,67,1497929072
59,15,15,Jits_Phase_8,1,5,80,127,1497941232
59,15,15,Jits_Phase_8,2,5,56,103,1498021252
59,15,15,Jits_Phase_8,3,5,63,98,1498030460
59,15,15,Jits_Phase_8,0,1,48,65,1498768228
59,15,15,Jits_Phase_8,1,5,80,127,1498781004
59,15,15,Jits_Phase_8,2,5,56,103,1498831208
59,15,15,Jits_Phase_8,3,5,63,98,1498881344
59,15,15,Jits_Phase_8,0,1,48,64,1499656864
59,15,15,Jits_Phase_8,1,5,56,103,1499721032
59,15,15,Jits_Phase_8,2,5,63,98,1499724392
59,15,15,Jits_Phase_8,3,5,80,127,1499771216
59,15,15,Jits_Phase_8,0,1,48,59,1500509900
59,15,15,Jits_Phase_8,1,5,56,103,1500541240
59,15,15,Jits_Phase_8,2,5,63,98,1500570988
59,15,15,Jits_Phase_8,3,5,80,127,1500581260
59,15,15,Jits_Phase_8,0,5,63,98,1501251028
59,15,15,Jits_Phase_8,1,5,56,103,1501320564
59,15,15,Jits_Phase_8,2,1,48,53,1501340244
59,15,15,Jits_Phase_8,3,5,80,127,1501370684
59,15,15,Jits_Phase_8,0,5,63,98,1502081284
59,15,15,Jits_Phase_8,1,5,56,103,1502090580
59,15,15,Jits_Phase_8,2,5,80,127,1502093720
59,15,15,Jits_Phase_8,3,1,48,65,1502120372
59,15,15,Jits_Phase_8,0,5,80,127,1502831128
59,15,15,Jits_Phase_8,1,5,56,103,1502891368
59,15,15,Jits_Phase_8,2,1,48,67,1502899888
59,15,15,Jits_Phase_8,3,5,63,98,1502980400
59,15,15,Jits_Phase_8,0,5,80,127,1503630676
59,15,15,Jits_Phase_8,1,1,48,62,1503702128
59,15,15,Jits_Phase_8,2,5,56,103,1503731168
59,15,15,Jits_Phase_8,3,5,63,98,1503771404
59,15,15,Jits_Phase_8,0,5,56,103,1504480576
59,15,15,Jits_Phase_8,1,5,63,98,1504501036
59,15,15,Jits_Phase_8,2,1,48,59,1504519596
59,15,15,Jits_Phase_8,3,5,80,127,1504541040
59,15,15,Jits_Phase_8,0,5,63,98,1505250652
59,15,15,Jits_Phase_8,1,5,56,103,1505271260
59,15,15,Jits_Phase_8,2,1,48,63,1505272152
59,15,15,Jits_Phase_8,3,5,80,127,1505370436
59,15,15,Jits_Phase_8,0,5,63,98,1506041196
59,15,15,Jits_Phase_8,1,1,48,62,1506114508
59,15,15,Jits_Phase_8,2,5,80,127,1506151028
59,15,15,Jits_Phase_8,3,5,56,103,1506180328
59,15,15,Jits_Phase_8,0,5,56,103,1506861560
59,15,15,Jits_Phase_8,1,5,63,98,1506891236
59,15,15,Jits_Phase_8,2,1,48,71,1506921556
59,15,15,Jits_Phase_8,3,5,80,127,1506941280
59,15,15,Jits_Phase_8,0,5,63,98,1507630392
59,15,15,Jits_Phase_8,1,5,56,103,1507661116
59,15,15,Jits_Phase_8,2,1,48,67,1507672404
59,15,15,Jits_Phase_8,3,5,80,127,1507711236
59,15,15,Jits_Phase_8,0,5,56,103,1508460936
59,15,15,Jits_Phase_8,1,1,48,69,1508480192
59,15,15,Jits_Phase_8,2,5,63,98,1508481760
59,15,15,Jits_Phase_8,3,5,80,127,1508561256
59,15,15,Jits_Phase_8,0,5,63,98,1509230888
59,15,15,Jits_Phase_8,1,1,48,74,1509263452
59,15,15,Jits_Phase_8,2,5,56,103,1509291348
59,15,15,Jits_Phase_8,3,5,80,127,1509321024
59,15,15,Jits_Phase_8,0,1,48,62,1510067012
59,15,15,Jits_Phase_8,1,5,56,103,1510070720
59,15,15,Jits_Phase_8,2,5,80,127,1510130912
59,15,15,Jits_Phase_8,3,5,63,98,1510170984
59,15,15,Jits_Phase_8,0,5,63,98,1510851008
59,15,15,Jits_Phase_8,1,1,48,64,1510868056
59,15,15,Jits_Phase_8,2,5,56,103,1510911344
59,15,15,Jits_Phase_8,3,5,80,127,1510981084
59,15,15,Jits_Phase_8,0,1,48,65,1511665212
59,15,15,Jits_Phase_8,1,5,56,103,1511730504
59,15,15,Jits_Phase_8,2,5,63,98,1511740772
59,15,15,Jits_Phase_8,3,5,80,127,1511744284
59,15,15,Jits_Phase_8,0,5,63,98,1512471000
59,15,15,Jits_Phase_8,1,1,48,70,1512489484
59,15,15,Jits_Phase_8,2,5,56,103,1512531532
59,15,15,Jits_Phase_8,3,5,80,127,1512534448
59,15,15,Jits_Phase_8,0,5,63,98,1513251116
59,15,15,Jits_Phase_8,1,5,80,127,1513280868
59,15,15,Jits_Phase_8,2,1,48,59,1513286832
59,15,15,Jits_Phase_8,3,5,56,103,1513301468
59,15,15,Jits_Phase_8,0,5,56,103,1513981268
59,15,15,Jits_Phase_8,1,1,48,66,1514023644
59,15,15,Jits_Phase_8,2,5,63,98,1514030344
59,15,15,Jits_Phase_8,3,5,80,127,1514111332
59,15,15,Jits_Phase_8,0,5,80,127,1514680784
59,15,15,Jits_Phase_8,1,5,63,98,1514720800
59,15,15,Jits_Phase_8,2,5,56,103,1514741060
59,15,15,Jits_Phase_8,3,1,48,55,1514748440
59,15,15,Jits_Phase_8,0,1,48,58,1515468148
59,15,15,Jits_Phase_8,1,5,56,103,1515551072
59,15,15,Jits_Phase_8,2,5,80,127,1515561196
59,15,15,Jits_Phase_8,3,5,63,98,1515580668
59,15,15,Jits_Phase_8,0,1,48,48,1516237944
59,15,15,Jits_Phase_8,1,5,56,103,1516331264
59,15,15,Jits_Phase_8,2,5,63,98,1516380644
59,15,15,Jits_Phase_8,3,5,80,127,1516411216
59,15,15,Jits_Phase_8,0,5,56,103,1517080852
59,15,15,Jits_Phase_8,1,5,63,98,1517091196
59,15,15,Jits_Phase_8,2,1,48,46,1517101584
59,15,15,Jits_Phase_8,3,5,80,127,1517141760
59,15,15,Jits_Phase_8,0,1,48,56,1517856300
59,15,15,Jits_Phase_8,1,5,56,103,1517870716
59,15,15,Jits_Phase_8,2,5,80,127,1517873856
59,15,15,Jits_Phase_8,3,5,63,98,1518031180
59,15,15,Jits_Phase_8,0,5,63,98,1518690700
59,15,15,Jits_Phase_8,1,5,56,103,1518761428
59,15,15,Jits_Phase_8,2,1,48,56,1518777804
59,15,15,Jits_Phase_8,3,5,80,127,1518801212
59,15,15,Jits_Phase_8,0,5,63,98,1519531368
59,15,15,Jits_Phase_8,1,1,48,66,1519540564
59,15,15,Jits_Phase_8,2,5,56,103,1519620620
59,15,15,Jits_Phase_8,3,5,80,127,1519623612
59,15,15,Jits_Phase_8,0,5,56,103,1520310820
59,15,15,Jits_Phase_8,1,1,48,56,1520369560
59,15,15,Jits_Phase_8,2,5,63,98,1520400900
59,15,15,Jits_Phase_8,3,5,80,127,1520410948
59,15,15,Jits_Phase_8,0,5,56,103,1521080632
59,15,15,Jits_Phase_8,1,5,63,98,1521130864
59,15,15,Jits_Phase_8,2,5,80,127,1521160612
59,15,15,Jits_Phase_8,3,1,48,18,1521176836
59,15,15,Jits_Phase_8,0,1,48,62,1521870480
59,15,15,Jits_Phase_8,1,5,63,98,1521961412
59,15,15,Jits_Phase_8,2,5,80,127,1521970620
59,15,15,Jits_Phase_8,3,5,56,103,1522030860
59,15,15,Jits_Phase_8,0,1,48,33,1522679044
59,15,15,Jits_Phase_8,1,5,63,98,1522681156
59,15,15,Jits_Phase_8,2,5,80,127,1522740724
59,15,15,Jits_Phase_8,3,5,56,103,1522780496
59,15,15,Jits_Phase_8,0,1,48,67,1523455480
59,15,15,Jits_Phase_8,1,5,56,103,1523581292
59,15,15,Jits_Phase_8,2,5,80,127,1523600704
59,15,15,Jits_Phase_8,3,5,63,98,1523621164
59,15,15,Jits_Phase_8,0,1,48,59,1524285668
59,15,15,Jits_Phase_8,1,5,63,98,1524301132
59,15,15,Jits_Phase_8,2,5,56,103,1524320624
59,15,15,Jits_Phase_8,3,5,80,127,1524360784
59,15,15,Jits_Phase_8,0,1,48,63,1525088812
59,15,15,Jits_Phase_8,1,5,63,98,1525111084
59,15,15,Jits_Phase_8,2,5,80,127,1525140832
59,15,15,Jits_Phase_8,3,5,56,103,1525161440
59,15,15,Jits_Phase_8,0,1,48,62,1525863460
59,15,15,Jits_Phase_8,1,5,80,127,1525881392
59,15,15,Jits_Phase_8,2,5,56,103,1525931592
59,15,15,Jits_Phase_8,3,5,63,98,1525990872
59,15,15,Jits_Phase_8,0,5,63,98,1526670592
59,15,15,Jits_Phase_8,1,1,48,61,1526694756
59,15,15,Jits_Phase_8,2,5,56,103,1526790636
59,15,15,Jits_Phase_8,3,5,80,127,1526821192
59,15,15,Jits_Phase_8,0,5,80,127,1527511556
59,15,15,Jits_Phase_8,1,1,48,63,1527513040
59,15,15,Jits_Phase_8,2,5,63,98,1527530836
59,15,15,Jits_Phase_8,3,5,56,103,1527600592
59,15,15,Jits_Phase_8,0,1,48,60,1528308460
59,15,15,Jits_Phase_8,1,5,63,98,1528330676
59,15,15,Jits_Phase_8,2,5,56,103,1528340948
59,15,15,Jits_Phase_8,3,5,80,127,1528420800
59,15,15,Jits_Phase_8,0,1,48,57,1529104412
59,15,15,Jits_Phase_8,1,5,56,103,1529190752
59,15,15,Jits_Phase_8,2,5,80,127,1529220488
59,15,15,Jits_Phase_8,3,5,63,98,1529230608
59,15,15,Jits_Phase_8,0,9999,9999,9999,1394338932
59,15,15,Jits_Phase_8,1,9999,9999,9999,1395138648
59,15,15,Jits_Phase_8,2,9999,9999,9999,1395938384
59,15,15,Jits_Phase_8,3,9999,9999,9999,1396738136
59,15,15,Jits_Phase_8,4,9999,9999,9999,1397538892
59,15,15,Jits_Phase_8,5,9999,9999,9999,1398338652
59,15,15,Jits_Phase_8,6,9999,9999,9999,1399138420
59,15,15,Jits_Phase_8,7,9999,9999,9999,1399938120
59,15,15,Jits_Phase_8,8,9999,9999,9999,1400738944
59,15,15,Jits_Phase_8,9,9999,9999,9999,1401538688
59,15,15,Jits_Phase_8,10,9999,9999,9999,1402338392
59,15,15,Jits_Phase_8,11,9999,9999,9999,1403138172
59,15,15,Jits_Phase_8,12,9999,9999,9999,1403938920
59,15,15,Jits_Phase_8,13,9999,9999,9999,1404738688
59,15,15,Jits_Phase_8,14,9999,9999,9999,1405538360
59,15,15,Jits_Phase_8,15,9999,9999,9999,1406338124
59,15,15,Jits_Phase_8,16,9999,9999,9999,1407138912
59,15,15,Jits_Phase_8,17,9999,9999,9999,1407938616
59,15,15,Jits_Phase_8,18,9999,9999,9999,1408738380
59,15,15,Jits_Phase_8,19,9999,9999,9999,1409538172
59,15,15,Jits_Phase_8,20,9999,9999,9999,1410338896
59,15,15,Jits_Phase_8,21,9999,9999,9999,1411138652
59,15,15,Jits_Phase_8,22,9999,9999,9999,1411938416
59,15,15,Jits_Phase_8,23,9999,9999,9999,1412738112
59,15,15,Jits_Phase_8,24,9999,9999,9999,1413538916
59,15,15,Jits_Phase_8,25,9999,9999,9999,1414338672
59,15,15,Jits_Phase_8,26,9999,9999,9999,1415138372
59,15,15,Jits_Phase_8,27,9999,9999,9999,1415938152
59,15,15,Jits_Phase_8,28,9999,9999,9999,1416738892
59,15,15,Jits_Phase_8,29,9999,9999,9999,1417538656
59,15,15,Jits_Phase_8,30,9999,9999,9999,1418318932
59,15,15,Jits_Phase_8,31,9999,9999,9999,1419118692
59,15,15,Jits_Phase_8,32,9999,9999,9999,1419918460
59,15,15,Jits_Phase_8,33,9999,9999,9999,1420718156
59,15,15,Jits_Phase_8,34,9999,9999,9999,1421518960
59,15,15,Jits_Phase_8,35,9999,9999,9999,1422318676
59,15,15,Jits_Phase_8,36,9999,9999,9999,1423118440
59,15,15,Jits_Phase_8,37,9999,9999,9999,1423918200
59,15,15,Jits_Phase_8,38,9999,9999,9999,1424718940
59,15,15,Jits_Phase_8,39,9999,9999,9999,1425518716
59,15,15,Jits_Phase_8,40,9999,9999,9999,1426318400
59,15,15,Jits_Phase_8,41,9999,9999,9999,1427118164
59,15,15,Jits_Phase_8,42,9999,9999,9999,1427918960
59,15,15,Jits_Phase_8,43,9999,9999,9999,1428718676
59,15,15,Jits_Phase_8,44,9999,9999,9999,1429518416
59,15,15,Jits_Phase_8,45,9999,9999,9999,1430318176
59,15,15,Jits_Phase_8,46,9999,9999,9999,1431118924
59,15,15,Jits_Phase_8,47,9999,9999,9999,1431918688
59,15,15,Jits_Phase_8,48,9999,9999,9999,1432738916
59,15,15,Jits_Phase_8,49,9999,9999,9999,1433538672
59,15,15,Jits_Phase_8,50,9999,9999,9999,1434338424
59,15,15,Jits_Phase_8,51,9999,9999,9999,1435138128
59,15,15,Jits_Phase_8,52,9999,9999,9999,1435938936
59,15,15,Jits_Phase_8,53,9999,9999,9999,1436738624
59,15,15,Jits_Phase_8,54,9999,9999,9999,1437538376
59,15,15,Jits_Phase_8,55,9999,9999,9999,1438338148
59,15,15,Jits_Phase_8,56,9999,9999,9999,1439138876
59,15,15,Jits_Phase_8,57,9999,9999,9999,1439938648
59,15,15,Jits_Phase_8,58,9999,9999,9999,1440738420
59,15,15,Jits_Phase_8,59,9999,9999,9999,1441538136
59,15,15,Jits_Phase_8,60,9999,9999,9999,1442338876
59,15,15,Jits_Phase_8,61,9999,9999,9999,1443138652
59,15,15,Jits_Phase_8,62,9999,9999,9999,1443938420
59,15,15,Jits_Phase_8,63,9999,9999,9999,1444738168
59,15,15,Jits_Phase_8,64,9999,9999,9999,1445578840
59,15,15,Jits_Phase_8,65,9999,9999,9999,1446378624
59,15,15,Jits_Phase_8,66,9999,9999,9999,1447178312
59,15,15,Jits_Phase_8,67,9999,9999,9999,1447979120
59,15,15,Jits_Phase_8,68,9999,9999,9999,1448789052
59,15,15,Jits_Phase_8,69,9999,9999,9999,1449588828
59,15,15,Jits_Phase_8,70,9999,9999,9999,1450388592
59,15,15,Jits_Phase_8,71,9999,9999,9999,1451188284
59,15,15,Jits_Phase_8,72,9999,9999,9999,1451989084
59,15,15,Jits_Phase_8,73,9999,9999,9999,1452788804
59,15,15,Jits_Phase_8,74,9999,9999,9999,1453588588
59,15,15,Jits_Phase_8,75,9999,9999,9999,1454388324
59,15,15,Jits_Phase_8,76,9999,9999,9999,1455189048
59,15,15,Jits_Phase_8,77,9999,9999,9999,1455988824
59,15,15,Jits_Phase_8,78,9999,9999,9999,1456788572
59,15,15,Jits_Phase_8,79,9999,9999,9999,1457588344
59,15,15,Jits_Phase_8,80,9999,9999,9999,1458389076
59,15,15,Jits_Phase_8,81,9999,9999,9999,1459148904
59,15,15,Jits_Phase_8,82,9999,9999,9999,1459948612
59,15,15,Jits_Phase_8,83,9999,9999,9999,1460748368
59,15,15,Jits_Phase_8,84,9999,9999,9999,1461548132
59,15,15,Jits_Phase_8,85,9999,9999,9999,1462348880
59,15,15,Jits_Phase_8,86,9999,9999,9999,1463148640
59,15,15,Jits_Phase_8,87,9999,9999,9999,1463948392
59,15,15,Jits_Phase_8,88,9999,9999,9999,1464748144
59,15,15,Jits_Phase_8,89,9999,9999,9999,1465548888
59,15,15,Jits_Phase_8,90,9999,9999,9999,1466348604
59,15,15,Jits_Phase_8,91,9999,9999,9999,1467148360
59,15,15,Jits_Phase_8,92,9999,9999,9999,1467948140
59,15,15,Jits_Phase_8,93,9999,9999,9999,1468748864
59,15,15,Jits_Phase_8,94,9999,9999,9999,1469548620
59,15,15,Jits_Phase_8,95,9999,9999,9999,1470348376
59,15,15,Jits_Phase_8,96,9999,9999,9999,1471148148
59,15,15,Jits_Phase_8,97,9999,9999,9999,1471869016
59,15,15,Jits_Phase_8,98,9999,9999,9999,1472668776
59,15,15,Jits_Phase_8,99,9999,9999,9999,1473468532
59,15,15,Jits_Phase_8,100,9999,9999,9999,1474268220
59,15,15,Jits_Phase_8,101,9999,9999,9999,1475069044
59,15,15,Jits_Phase_8,102,9999,9999,9999,1475868792
59,15,15,Jits_Phase_8,103,9999,9999,9999,1476668544
59,15,15,Jits_Phase_8,104,9999,9999,9999,1477468224
59,15,15,Jits_Phase_8,105,9999,9999,9999,1478269036
59,15,15,Jits_Phase_8,106,9999,9999,9999,1479068784
59,15,15,Jits_Phase_8,107,9999,9999,9999,1479868520
59,15,15,Jits_Phase_8,108,9999,9999,9999,1480668280
59,15,15,Jits_Phase_8,109,9999,9999,9999,1481469024
59,15,15,Jits_Phase_8,110,9999,9999,9999,1482268784
59,15,15,Jits_Phase_8,111,9999,9999,9999,1483068472
59,15,15,Jits_Phase_8,112,9999,9999,9999,1483868240
59,15,15,Jits_Phase_8,113,9999,9999,9999,1484668984
59,15,15,Jits_Phase_8,114,9999,9999,9999,1485548644
59,15,15,Jits_Phase_8,115,9999,9999,9999,1486348400
59,15,15,Jits_Phase_8,116,9999,9999,9999,1487148088
59,15,15,Jits_Phase_8,117,9999,9999,9999,1487948900
59,15,15,Jits_Phase_8,118,9999,9999,9999,1488748660
59,15,15,Jits_Phase_8,119,9999,9999,9999,1489548352
59,15,15,Jits_Phase_8,120,9999,9999,9999,1490348120
59,15,15,Jits_Phase_8,121,9999,9999,9999,1491148928
59,15,15,Jits_Phase_8,122,9999,9999,9999,1491948628
59,15,15,Jits_Phase_8,123,9999,9999,9999,1492748376
59,15,15,Jits_Phase_8,124,9999,9999,9999,1493548140
59,15,15,Jits_Phase_8,125,9999,9999,9999,1494348876
59,15,15,Jits_Phase_8,126,9999,9999,9999,1495148644
59,15,15,Jits_Phase_8,127,9999,9999,9999,1495948408
59,15,15,Jits_Phase_8,128,9999,9999,9999,1496748092
59,15,15,Jits_Phase_8,129,9999,9999,9999,1497548896
59,15,15,Jits_Phase_8,130,9999,9999,9999,1498348628
59,15,15,Jits_Phase_8,131,9999,9999,9999,1499308108
59,15,15,Jits_Phase_8,132,9999,9999,9999,1500108908
59,15,15,Jits_Phase_8,133,9999,9999,9999,1500908624
59,15,15,Jits_Phase_8,134,9999,9999,9999,1501708388
59,15,15,Jits_Phase_8,135,9999,9999,9999,1502508132
59,15,15,Jits_Phase_8,136,9999,9999,9999,1503308860
59,15,15,Jits_Phase_8,137,9999,9999,9999,1504108636
59,15,15,Jits_Phase_8,138,9999,9999,9999,1504908384
59,15,15,Jits_Phase_8,139,9999,9999,9999,1505708132
59,15,15,Jits_Phase_8,140,9999,9999,9999,1506508868
59,15,15,Jits_Phase_8,141,9999,9999,9999,1507308648
59,15,15,Jits_Phase_8,142,9999,9999,9999,1508108344
59,15,15,Jits_Phase_8,143,9999,9999,9999,1508908100
59,15,15,Jits_Phase_8,144,9999,9999,9999,1509708916
59,15,15,Jits_Phase_8,145,9999,9999,9999,1510508604
59,15,15,Jits_Phase_8,146,9999,9999,9999,1511308364
59,15,15,Jits_Phase_8,147,9999,9999,9999,1512108116
59,15,15,Jits_Phase_8,148,9999,9999,9999,1512908912
59,15,15,Jits_Phase_8,149,9999,9999,9999,1513708616
59,15,15,Jits_Phase_8,150,9999,9999,9999,1514348628
59,15,15,Jits_Phase_8,151,9999,9999,9999,1515148400
59,15,15,Jits_Phase_8,152,9999,9999,9999,1515948100
59,15,15,Jits_Phase_8,153,9999,9999,9999,1516748912
59,15,15,Jits_Phase_8,154,9999,9999,9999,1517548612
59,15,15,Jits_Phase_8,155,9999,9999,9999,1518348372
59,15,15,Jits_Phase_8,156,9999,9999,9999,1519148132
59,15,15,Jits_Phase_8,157,9999,9999,9999,1519948864
59,15,15,Jits_Phase_8,158,9999,9999,9999,1520748628
59,15,15,Jits_Phase_8,159,9999,9999,9999,1521548400
59,15,15,Jits_Phase_8,160,9999,9999,9999,1522348104
59,15,15,Jits_Phase_8,161,9999,9999,9999,1523148904
59,15,15,Jits_Phase_8,162,9999,9999,9999,1523948620
59,15,15,Jits_Phase_8,163,9999,9999,9999,1524748380
59,15,15,Jits_Phase_8,164,9999,9999,9999,1525548140
59,15,15,Jits_Phase_8,165,9999,9999,9999,1526348868
59,15,15,Jits_Phase_8,166,9999,9999,9999,1527148624
59,15,15,Jits_Phase_8,167,9999,9999,9999,1527948384
59,15,15,Jits_Phase_8,168,9999,9999,9999,1528748160
59,15,15,Jits_Phase_8,169,9999,9999,9999,1529548900
59,16,19,Jits_Linear_5,0,5,56,103,1537486412
59,16,19,Jits_Linear_5,1,5,63,98,1537489512
59,16,19,Jits_Linear_5,2,5,80,127,1537492484
59,16,19,Jits_Linear_5,0,5,56,103,1537965376
59,16,19,Jits_Linear_5,1,5,63,98,1537968700
59,16,19,Jits_Linear_5,2,5,80,127,1537971744
59,16,19,Jits_Linear_5,0,5,56,103,1538445632
59,16,19,Jits_Linear_5,1,5,80,127,1538456052
59,16,19,Jits_Linear_5,2,5,63,98,1538476512
59,16,19,Jits_Linear_5,0,5,63,98,1538875840
59,16,19,Jits_Linear_5,1,5,80,127,1538905444
59,16,19,Jits_Linear_5,2,5,56,103,1538915788
59,16,19,Jits_Linear_5,0,1,48,85,1539385868
59,16,19,Jits_Linear_5,1,5,80,127,1539416532
59,16,19,Jits_Linear_5,2,5,56,103,1539425608
59,16,19,Jits_Linear_5,3,5,63,98,1539456332
59,16,19,Jits_Linear_5,0,5,63,98,1539895632
59,16,19,Jits_Linear_5,1,1,48,88,1539921076
59,16,19,Jits_Linear_5,2,5,56,103,1539926500
59,16,19,Jits_Linear_5,3,5,80,127,1539935500
59,16,19,Jits_Linear_5,0,5,56,103,1540335984
59,16,19,Jits_Linear_5,1,5,63,98,1540386264
59,16,19,Jits_Linear_5,2,5,80,127,1540405752
59,16,19,Jits_Linear_5,3,1,48,72,1540408268
59,16,19,Jits_Linear_5,0,5,80,127,1540825476
59,16,19,Jits_Linear_5,1,1,48,75,1540859264
59,16,19,Jits_Linear_5,2,5,63,98,1540875700
59,16,19,Jits_Linear_5,3,5,56,103,1540915564
59,16,19,Jits_Linear_5,0,5,56,103,1541315888
59,16,19,Jits_Linear_5,1,5,63,98,1541345736
59,16,19,Jits_Linear_5,2,1,48,88,1541372896
59,16,19,Jits_Linear_5,3,5,80,127,1541416388
59,16,19,Jits_Linear_5,0,5,56,103,1541805476
59,16,19,Jits_Linear_5,1,1,48,74,1541852640
59,16,19,Jits_Linear_5,2,5,80,127,1541865812
59,16,19,Jits_Linear_5,3,5,63,98,1541895636
59,16,19,Jits_Linear_5,0,5,56,103,1542306448
59,16,19,Jits_Linear_5,1,5,63,98,1542316496
59,16,19,Jits_Linear_5,2,1,48,80,1542337000
59,16,19,Jits_Linear_5,3,5,80,127,1542356428
59,16,19,Jits_Linear_5,0,5,63,98,1542795512
59,16,19,Jits_Linear_5,1,1,48,70,1542816612
59,16,19,Jits_Linear_5,2,5,80,127,1542875456
59,16,19,Jits_Linear_5,3,5,56,103,1542885676
59,16,19,Jits_Linear_5,0,1,48,73,1543335108
59,16,19,Jits_Linear_5,1,5,63,98,1543345472
59,16,19,Jits_Linear_5,2,5,56,103,1543385408
59,16,19,Jits_Linear_5,3,5,80,127,1543388404
59,16,19,Jits_Linear_5,0,5,56,103,1543806420
59,16,19,Jits_Linear_5,1,5,63,98,1543815572
59,16,19,Jits_Linear_5,2,1,48,54,1543839440
59,16,19,Jits_Linear_5,3,5,80,127,1543855356
59,16,19,Jits_Linear_5,0,5,56,103,1544296160
59,16,19,Jits_Linear_5,1,5,63,98,1544299072
59,16,19,Jits_Linear_5,2,5,80,127,1544316316
59,16,19,Jits_Linear_5,3,1,48,44,1544323564
59,16,19,Jits_Linear_5,0,1,48,59,1544795144
59,16,19,Jits_Linear_5,1,5,80,127,1544816068
59,16,19,Jits_Linear_5,2,5,56,103,1544826112
59,16,19,Jits_Linear_5,3,5,63,98,1544895928
59,16,19,Jits_Linear_5,0,1,48,66,1545303972
59,16,19,Jits_Linear_5,1,5,63,98,1545315684
59,16,19,Jits_Linear_5,2,5,56,103,1545336292
59,16,19,Jits_Linear_5,3,5,80,127,1545416296
59,16,19,Jits_Linear_5,0,1,48,60,1545833312
59,16,19,Jits_Linear_5,1,5,56,103,1545835900
59,16,19,Jits_Linear_5,2,5,80,127,1545875764
59,16,19,Jits_Linear_5,3,5,63,98,1545886036
59,16,19,Jits_Linear_5,0,5,80,127,1546335744
59,16,19,Jits_Linear_5,1,1,48,68,1546357740
59,16,19,Jits_Linear_5,2,5,63,98,1546366460
59,16,19,Jits_Linear_5,3,5,56,103,1546406252
59,16,19,Jits_Linear_5,0,5,56,103,1546866240
59,16,19,Jits_Linear_5,1,1,48,52,1546872496
59,16,19,Jits_Linear_5,2,5,63,98,1546895760
59,16,19,Jits_Linear_5,3,5,80,127,1546946036
59,16,19,Jits_Linear_5,0,1,48,62,1547366512
59,16,19,Jits_Linear_5,1,5,80,127,1547376344
59,16,19,Jits_Linear_5,2,5,56,103,1547416064
59,16,19,Jits_Linear_5,3,5,63,98,1547426336
59,16,19,Jits_Linear_5,0,1,48,52,1547868060
59,16,19,Jits_Linear_5,1,5,80,127,1547875660
59,16,19,Jits_Linear_5,2,5,63,98,1547915600
59,16,19,Jits_Linear_5,3,5,56,103,1547976128
59,16,19,Jits_Linear_5,0,1,48,69,1548396328
59,16,19,Jits_Linear_5,1,5,56,103,1548397600
59,16,19,Jits_Linear_5,2,5,80,127,1548406296
59,16,19,Jits_Linear_5,3,5,63,98,1548486244
59,16,19,Jits_Linear_5,0,5,80,127,1548916096
59,16,19,Jits_Linear_5,1,1,48,68,1548924244
59,16,19,Jits_Linear_5,2,5,63,98,1548975440
59,16,19,Jits_Linear_5,3,5,56,103,1549006308
59,16,19,Jits_Linear_5,0,5,56,103,1549436328
59,16,19,Jits_Linear_5,1,1,48,67,1549448292
59,16,19,Jits_Linear_5,2,5,80,127,1549495668
59,16,19,Jits_Linear_5,3,5,63,98,1549535532
59,16,19,Jits_Linear_5,0,1,48,63,1549966568
59,16,19,Jits_Linear_5,1,5,56,103,1550015968
59,16,19,Jits_Linear_5,2,5,63,98,1550026088
59,16,19,Jits_Linear_5,3,5,80,127,1550029376
59,16,19,Jits_Linear_5,0,1,48,67,1550494048
59,16,19,Jits_Linear_5,1,5,80,127,1550496236
59,16,19,Jits_Linear_5,2,5,63,98,1550586164
59,16,19,Jits_Linear_5,3,5,56,103,1550595460
59,16,19,Jits_Linear_5,0,1,48,69,1551014488
59,16,19,Jits_Linear_5,1,5,56,103,1551025508
59,16,19,Jits_Linear_5,2,5,63,98,1551028756
59,16,19,Jits_Linear_5,3,5,80,127,1551031728
59,16,19,Jits_Linear_5,0,1,48,71,1551529648
59,16,19,Jits_Linear_5,1,5,80,127,1551576432
59,16,19,Jits_Linear_5,2,5,63,98,1551625540
59,16,19,Jits_Linear_5,3,5,56,103,1551656248
59,16,19,Jits_Linear_5,0,1,48,70,1552044260
59,16,19,Jits_Linear_5,1,5,56,103,1552086388
59,16,19,Jits_Linear_5,2,5,80,127,1552095536
59,16,19,Jits_Linear_5,3,5,63,98,1552166200
59,16,19,Jits_Linear_5,0,1,48,67,1552573296
59,16,19,Jits_Linear_5,1,5,56,103,1552626256
59,16,19,Jits_Linear_5,2,5,63,98,1552645596
59,16,19,Jits_Linear_5,3,5,80,127,1552706044
59,16,19,Jits_Linear_5,0,1,48,63,1553119216
59,16,19,Jits_Linear_5,1,5,80,127,1553155460
59,16,19,Jits_Linear_5,2,5,63,98,1553226028
59,16,19,Jits_Linear_5,3,5,56,103,1553245664
59,16,19,Jits_Linear_5,0,1,48,69,1553649124
59,16,19,Jits_Linear_5,1,5,80,127,1553715688
59,16,19,Jits_Linear_5,2,5,56,103,1553725736
59,16,19,Jits_Linear_5,3,5,63,98,1553736004
59,16,19,Jits_Linear_5,0,1,48,59,1554203344
59,16,19,Jits_Linear_5,1,5,80,127,1554246164
59,16,19,Jits_Linear_5,2,5,56,103,1554265428
59,16,19,Jits_Linear_5,3,5,63,98,1554336140
59,16,19,Jits_Linear_5,0,1,48,65,1554748524
59,16,19,Jits_Linear_5,1,5,56,103,1554795976
59,16,19,Jits_Linear_5,2,5,80,127,1554825580
59,16,19,Jits_Linear_5,3,5,63,98,1554846172
59,16,19,Jits_Linear_5,0,1,48,65,1555272324
59,16,19,Jits_Linear_5,1,5,63,98,1555335676
59,16,19,Jits_Linear_5,2,5,56,103,1555395980
59,16,19,Jits_Linear_5,3,5,80,127,1555425604
59,16,19,Jits_Linear_5,0,1,48,68,1555841020
59,16,19,Jits_Linear_5,1,5,63,98,1555876192
59,16,19,Jits_Linear_5,2,5,80,127,1555879556
59,16,19,Jits_Linear_5,3,5,56,103,1555966260
59,16,19,Jits_Linear_5,0,1,48,69,1556376592
59,16,19,Jits_Linear_5,1,5,56,103,1556445548
59,16,19,Jits_Linear_5,2,5,63,98,1556476212
59,16,19,Jits_Linear_5,3,5,80,127,1556516152
59,16,19,Jits_Linear_5,0,1,48,66,1556940040
59,16,19,Jits_Linear_5,1,5,63,98,1556995316
59,16,19,Jits_Linear_5,2,5,56,103,1557036304
59,16,19,Jits_Linear_5,3,5,80,127,1557056076
59,16,19,Jits_Linear_5,0,1,48,70,1557503504
59,16,19,Jits_Linear_5,1,5,63,98,1557555544
59,16,19,Jits_Linear_5,2,5,56,103,1557595560
59,16,19,Jits_Linear_5,3,5,80,127,1557605888
59,16,19,Jits_Linear_5,0,1,48,60,1558054988
59,16,19,Jits_Linear_5,1,5,80,127,1558085876
59,16,19,Jits_Linear_5,2,5,63,98,1558155772
59,16,19,Jits_Linear_5,3,5,56,103,1558176008
59,16,19,Jits_Linear_5,0,1,48,67,1558630260
59,16,19,Jits_Linear_5,1,5,56,103,1558636060
59,16,19,Jits_Linear_5,2,5,80,127,1558656224
59,16,19,Jits_Linear_5,3,5,63,98,1558696164
59,16,19,Jits_Linear_5,0,5,63,98,1559206256
59,16,19,Jits_Linear_5,1,1,48,68,1559209972
59,16,19,Jits_Linear_5,2,5,80,127,1559225812
59,16,19,Jits_Linear_5,3,5,56,103,1559265776
59,16,19,Jits_Linear_5,0,1,48,71,1559766180
59,16,19,Jits_Linear_5,1,5,63,98,1559767516
59,16,19,Jits_Linear_5,2,5,56,103,1559785836
59,16,19,Jits_Linear_5,3,5,80,127,1559796032
59,16,19,Jits_Linear_5,0,1,48,67,1560311100
59,16,19,Jits_Linear_5,1,5,80,127,1560325444
59,16,19,Jits_Linear_5,2,5,56,103,1560345904
59,16,19,Jits_Linear_5,3,5,63,98,1560376028
59,16,19,Jits_Linear_5,0,1,48,58,1560859188
59,16,19,Jits_Linear_5,1,5,56,103,1560965596
59,16,19,Jits_Linear_5,2,5,80,127,1560968588
59,16,19,Jits_Linear_5,3,5,63,98,1560985908
59,16,19,Jits_Linear_5,0,5,63,98,1561456012
59,16,19,Jits_Linear_5,1,1,48,69,1561481976
59,16,19,Jits_Linear_5,2,5,56,103,1561485684
59,16,19,Jits_Linear_5,3,5,80,127,1561546000
59,16,19,Jits_Linear_5,0,1,48,65,1562005192
59,16,19,Jits_Linear_5,1,5,63,98,1562106076
59,16,19,Jits_Linear_5,2,5,56,103,1562115524
59,16,19,Jits_Linear_5,3,5,80,127,1562125868
59,16,19,Jits_Linear_5,0,1,48,64,1562590220
59,16,19,Jits_Linear_5,1,5,56,103,1562626384
59,16,19,Jits_Linear_5,2,5,80,127,1562656136
59,16,19,Jits_Linear_5,3,5,63,98,1562666332
59,16,19,Jits_Linear_5,0,1,48,61,1563104476
59,16,19,Jits_Linear_5,1,5,63,98,1563235824
59,16,19,Jits_Linear_5,2,5,56,103,1563245872
59,16,19,Jits_Linear_5,3,5,80,127,1563266480
59,16,19,Jits_Linear_5,0,1,48,55,1563734236
59,16,19,Jits_Linear_5,1,5,56,103,1563736352
59,16,19,Jits_Linear_5,2,5,63,98,1563795920
59,16,19,Jits_Linear_5,3,5,80,127,1563799136
59,16,19,Jits_Linear_5,0,1,48,65,1564295268
59,16,19,Jits_Linear_5,1,5,80,127,1564335448
59,16,19,Jits_Linear_5,2,5,56,103,1564345644
59,16,19,Jits_Linear_5,3,5,63,98,1564416236
59,16,19,Jits_Linear_5,0,1,48,64,1564869268
59,16,19,Jits_Linear_5,1,5,80,127,1564905808
59,16,19,Jits_Linear_5,2,5,56,103,1564975408
59,16,19,Jits_Linear_5,3,5,63,98,1564985900
59,16,19,Jits_Linear_5,0,1,48,69,1565480612
59,16,19,Jits_Linear_5,1,5,63,98,1565526348
59,16,19,Jits_Linear_5,2,5,56,103,1565535572
59,16,19,Jits_Linear_5,3,5,80,127,1565556108
59,16,19,Jits_Linear_5,0,5,80,127,1566055788
59,16,19,Jits_Linear_5,1,1,48,55,1566089328
59,16,19,Jits_Linear_5,2,5,63,98,1566116176
59,16,19,Jits_Linear_5,3,5,56,103,1566156188
59,16,19,Jits_Linear_5,0,1,48,63,1566674592
59,16,19,Jits_Linear_5,1,5,56,103,1566685628
59,16,19,Jits_Linear_5,2,5,63,98,1566695972
59,16,19,Jits_Linear_5,3,5,80,127,1566735912
59,16,19,Jits_Linear_5,0,5,56,103,1567235372
59,16,19,Jits_Linear_5,1,1,48,55,1567255804
59,16,19,Jits_Linear_5,2,5,80,127,1567266088
59,16,19,Jits_Linear_5,3,5,63,98,1567316292
59,16,19,Jits_Linear_5,0,1,48,63,1567842168
59,16,19,Jits_Linear_5,1,5,56,103,1567866108
59,16,19,Jits_Linear_5,2,5,63,98,1567906120
59,16,19,Jits_Linear_5,3,5,80,127,1567909408
59,16,19,Jits_Linear_5,0,1,48,59,1568417004
59,16,19,Jits_Linear_5,1,5,56,103,1568466332
59,16,19,Jits_Linear_5,2,5,63,98,1568475556
59,16,19,Jits_Linear_5,3,5,80,127,1568495892
59,16,19,Jits_Linear_5,0,1,48,61,1568986892
59,16,19,Jits_Linear_5,1,5,56,103,1569016236
59,16,19,Jits_Linear_5,2,5,80,127,1569019228
59,16,19,Jits_Linear_5,3,5,63,98,1569056176
59,16,19,Jits_Linear_5,0,1,48,59,1569556568
59,16,19,Jits_Linear_5,1,5,63,98,1569645828
59,16,19,Jits_Linear_5,2,5,56,103,1569675788
59,16,19,Jits_Linear_5,3,5,80,127,1569696024
59,16,19,Jits_Linear_5,0,1,48,59,1570155300
59,16,19,Jits_Linear_5,1,5,80,127,1570216316
59,16,19,Jits_Linear_5,2,5,56,103,1570225540
59,16,19,Jits_Linear_5,3,5,63,98,1570235884
59,16,19,Jits_Linear_5,0,1,48,60,1570714924
59,16,19,Jits_Linear_5,1,5,56,103,1570816476
59,16,19,Jits_Linear_5,2,5,80,127,1570856196
59,16,19,Jits_Linear_5,3,5,63,98,1570886096
59,16,19,Jits_Linear_5,0,1,48,62,1571329112
59,16,19,Jits_Linear_5,1,5,63,98,1571425704
59,16,19,Jits_Linear_5,2,5,80,127,1571435828
59,16,19,Jits_Linear_5,3,5,56,103,1571446096
59,16,19,Jits_Linear_5,0,1,48,70,1571921912
59,16,19,Jits_Linear_5,1,5,56,103,1572006168
59,16,19,Jits_Linear_5,2,5,63,98,1572075940
59,16,19,Jits_Linear_5,3,5,80,127,1572086132
59,16,19,Jits_Linear_5,0,1,48,63,1572552048
59,16,19,Jits_Linear_5,1,5,80,127,1572615568
59,16,19,Jits_Linear_5,2,5,56,103,1572625916
59,16,19,Jits_Linear_5,3,5,63,98,1572675952
59,16,19,Jits_Linear_5,0,1,48,69,1573155160
59,16,19,Jits_Linear_5,1,5,80,127,1573236024
59,16,19,Jits_Linear_5,2,5,56,103,1573295584
59,16,19,Jits_Linear_5,3,5,63,98,1573326156
59,16,19,Jits_Linear_5,0,1,48,50,1573804840
59,16,19,Jits_Linear_5,1,5,56,103,1573846372
59,16,19,Jits_Linear_5,2,5,80,127,1573849436
59,16,19,Jits_Linear_5,3,5,63,98,1573886408
59,16,19,Jits_Linear_5,0,1,48,56,1574367544
59,16,19,Jits_Linear_5,1,5,56,103,1574486388
59,16,19,Jits_Linear_5,2,5,63,98,1574516064
59,16,19,Jits_Linear_5,3,5,80,127,1574526188
59,16,19,Jits_Linear_5,0,1,48,63,1575001036
59,16,19,Jits_Linear_5,1,5,63,98,1575105880
59,16,19,Jits_Linear_5,2,5,80,127,1575116076
59,16,19,Jits_Linear_5,3,5,56,103,1575126644
59,16,19,Jits_Linear_5,0,1,48,54,1575661688
59,16,19,Jits_Linear_5,1,5,80,127,1575665992
59,16,19,Jits_Linear_5,2,5,56,103,1575716196
59,16,19,Jits_Linear_5,3,5,63,98,1575719260
59,16,19,Jits_Linear_5,0,1,48,55,1576273884
59,16,19,Jits_Linear_5,1,5,56,103,1576316408
59,16,19,Jits_Linear_5,2,5,80,127,1576335672
59,16,19,Jits_Linear_5,3,5,63,98,1576345868
59,16,19,Jits_Linear_5,0,5,63,98,1576916196
59,16,19,Jits_Linear_5,1,1,48,54,1576937248
59,16,19,Jits_Linear_5,2,5,56,103,1576946044
59,16,19,Jits_Linear_5,3,5,80,127,1576965756
59,16,19,Jits_Linear_5,0,1,48,61,1577520012
59,16,19,Jits_Linear_5,1,5,56,103,1577545972
59,16,19,Jits_Linear_5,2,5,80,127,1577556316
59,16,19,Jits_Linear_5,3,5,63,98,1577625908
59,16,19,Jits_Linear_5,0,1,48,52,1578143092
59,16,19,Jits_Linear_5,1,5,63,98,1578156464
59,16,19,Jits_Linear_5,2,5,80,127,1578196552
59,16,19,Jits_Linear_5,3,5,56,103,1578236956
59,16,19,Jits_Linear_5,0,1,48,54,1578776924
59,16,19,Jits_Linear_5,1,5,56,103,1578796428
59,16,19,Jits_Linear_5,2,5,63,98,1578805504
59,16,19,Jits_Linear_5,3,5,80,127,1578826112
59,16,19,Jits_Linear_5,0,1,48,62,1579361036
59,16,19,Jits_Linear_5,1,5,63,98,1579466176
59,16,19,Jits_Linear_5,2,5,80,127,1579485736
59,16,19,Jits_Linear_5,3,5,56,103,1579506144
59,16,19,Jits_Linear_5,0,5,56,103,1580035660
59,16,19,Jits_Linear_5,1,1,48,53,1580072488
59,16,19,Jits_Linear_5,2,5,80,127,1580116276
59,16,19,Jits_Linear_5,3,5,63,98,1580125724
59,16,19,Jits_Linear_5,0,1,48,56,1580698736
59,16,19,Jits_Linear_5,1,5,80,127,1580706104
59,16,19,Jits_Linear_5,2,5,63,98,1580716524
59,16,19,Jits_Linear_5,3,5,56,103,1580746128
59,16,19,Jits_Linear_5,0,5,63,98,1581296032
59,16,19,Jits_Linear_5,1,5,80,127,1581335900
59,16,19,Jits_Linear_5,2,1,48,61,1581348608
59,16,19,Jits_Linear_5,3,5,56,103,1581396284
59,16,19,Jits_Linear_5,0,5,63,98,1581946536
59,16,19,Jits_Linear_5,1,1,48,56,1581970932
59,16,19,Jits_Linear_5,2,5,56,103,1581996660
59,16,19,Jits_Linear_5,3,5,80,127,1582026036
59,16,19,Jits_Linear_5,0,5,80,127,1582595568
59,16,19,Jits_Linear_5,1,5,63,98,1582605912
59,16,19,Jits_Linear_5,2,1,48,53,1582646120
59,16,19,Jits_Linear_5,3,5,56,103,1582676260
59,16,19,Jits_Linear_5,0,1,48,64,1583259608
59,16,19,Jits_Linear_5,1,5,80,127,1583306020
59,16,19,Jits_Linear_5,2,5,56,103,1583316588
59,16,19,Jits_Linear_5,3,5,63,98,1583319504
59,16,19,Jits_Linear_5,0,5,56,103,1583885672
59,16,19,Jits_Linear_5,1,5,80,127,1583906280
59,16,19,Jits_Linear_5,2,5,63,98,1583916552
59,16,19,Jits_Linear_5,3,1,48,61,1583921244
59,16,19,Jits_Linear_5,0,5,63,98,1584535892
59,16,19,Jits_Linear_5,1,1,48,59,1584539836
59,16,19,Jits_Linear_5,2,5,56,103,1584575900
59,16,19,Jits_Linear_5,3,5,80,127,1584596436
59,16,19,Jits_Linear_5,0,1,48,59,1585169900
59,16,19,Jits_Linear_5,1,5,63,98,1585176000
59,16,19,Jits_Linear_5,2,5,56,103,1585236464
59,16,19,Jits_Linear_5,3,5,80,127,1585239532
59,16,19,Jits_Linear_5,0,1,48,64,1585788032
59,16,19,Jits_Linear_5,1,5,56,103,1585795628
59,16,19,Jits_Linear_5,2,5,80,127,1585815864
59,16,19,Jits_Linear_5,3,5,63,98,1585855728
59,16,19,Jits_Linear_5,0,1,48,58,1586408740
59,16,19,Jits_Linear_5,1,5,56,103,1586476496
59,16,19,Jits_Linear_5,2,5,63,98,1586495764
59,16,19,Jits_Linear_5,3,5,80,127,1586506016
59,16,19,Jits_Linear_5,0,1,48,61,1587035040
59,16,19,Jits_Linear_5,1,5,80,127,1587096056
59,16,19,Jits_Linear_5,2,5,56,103,1587126540
59,16,19,Jits_Linear_5,3,5,63,98,1587165732
59,16,19,Jits_Linear_5,0,1,48,59,1587703760
59,16,19,Jits_Linear_5,1,5,80,127,1587756548
59,16,19,Jits_Linear_5,2,5,56,103,1587775812
59,16,19,Jits_Linear_5,3,5,63,98,1587836484
59,16,19,Jits_Linear_5,0,1,48,55,1588370756
59,16,19,Jits_Linear_5,1,5,56,103,1588415744
59,16,19,Jits_Linear_5,2,5,80,127,1588436428
59,16,19,Jits_Linear_5,3,5,63,98,1588495712
59,16,19,Jits_Linear_5,0,1,48,67,1589046992
59,16,19,Jits_Linear_5,1,5,80,127,1589055788
59,16,19,Jits_Linear_5,2,5,56,103,1589066280
59,16,19,Jits_Linear_5,3,5,63,98,1589106144
59,16,19,Jits_Linear_5,0,1,48,60,1589680628
59,16,19,Jits_Linear_5,1,5,63,98,1589716548
59,16,19,Jits_Linear_5,2,5,56,103,1589756360
59,16,19,Jits_Linear_5,3,5,80,127,1589759280
59,16,19,Jits_Linear_5,0,1,48,65,1590327552
59,16,19,Jits_Linear_5,1,5,63,98,1590396432
59,16,19,Jits_Linear_5,2,5,80,127,1590436356
59,16,19,Jits_Linear_5,3,5,56,103,1590465884
59,16,19,Jits_Linear_5,0,1,48,66,1590987420
59,16,19,Jits_Linear_5,1,5,56,103,1591045464
59,16,19,Jits_Linear_5,2,5,63,98,1591055664
59,16,19,Jits_Linear_5,3,5,80,127,1591085548
59,16,19,Jits_Linear_5,0,1,48,69,1591649484
59,16,19,Jits_Linear_5,1,5,80,127,1591706080
59,16,19,Jits_Linear_5,2,5,63,98,1591775848
59,16,19,Jits_Linear_5,3,5,56,103,1591786044
59,16,19,Jits_Linear_5,0,1,48,64,1592343704
59,16,19,Jits_Linear_5,1,5,63,98,1592375564
59,16,19,Jits_Linear_5,2,5,56,103,1592446356
59,16,19,Jits_Linear_5,3,5,80,127,1592455584
59,16,19,Jits_Linear_5,0,1,48,63,1592996148
59,16,19,Jits_Linear_5,1,5,63,98,1593046372
59,16,19,Jits_Linear_5,2,5,56,103,1593065884
59,16,19,Jits_Linear_5,3,5,80,127,1593105808
59,16,19,Jits_Linear_5,0,1,48,50,1593660456
59,16,19,Jits_Linear_5,1,5,56,103,1593726416
59,16,19,Jits_Linear_5,2,5,63,98,1593735568
59,16,19,Jits_Linear_5,3,5,80,127,1593816320
59,16,19,Jits_Linear_5,0,1,48,51,1594351584
59,16,19,Jits_Linear_5,1,5,63,98,1594385860
59,16,19,Jits_Linear_5,2,5,56,103,1594415464
59,16,19,Jits_Linear_5,3,5,80,127,1594456436
59,16,19,Jits_Linear_5,0,1,48,60,1595038212
59,16,19,Jits_Linear_5,1,5,56,103,1595055472
59,16,19,Jits_Linear_5,2,5,63,98,1595096608
59,16,19,Jits_Linear_5,3,5,80,127,1595136336
59,16,19,Jits_Linear_5,0,1,48,62,1595687388
59,16,19,Jits_Linear_5,1,5,80,127,1595736340
59,16,19,Jits_Linear_5,2,5,56,103,1595816276
59,16,19,Jits_Linear_5,3,5,63,98,1595825572
59,16,19,Jits_Linear_5,0,1,48,58,1596392744
59,16,19,Jits_Linear_5,1,5,56,103,1596456392
59,16,19,Jits_Linear_5,2,5,63,98,1596459460
59,16,19,Jits_Linear_5,3,5,80,127,1596465468
59,16,19,Jits_Linear_5,0,1,48,61,1597068944
59,16,19,Jits_Linear_5,1,5,56,103,1597155688
59,16,19,Jits_Linear_5,2,5,63,98,1597176136
59,16,19,Jits_Linear_5,3,5,80,127,1597186332
59,16,19,Jits_Linear_5,0,1,48,55,1597766384
59,16,19,Jits_Linear_5,1,5,63,98,1597795632
59,16,19,Jits_Linear_5,2,5,80,127,1597805904
59,16,19,Jits_Linear_5,3,5,56,103,1597826364
59,16,19,Jits_Linear_5,0,1,48,60,1598439004
59,16,19,Jits_Linear_5,1,5,63,98,1598485788
59,16,19,Jits_Linear_5,2,5,56,103,1598565720
59,16,19,Jits_Linear_5,3,5,80,127,1598568712
59,16,19,Jits_Linear_5,0,1,48,65,1599136556
59,16,19,Jits_Linear_5,1,5,63,98,1599176140
59,16,19,Jits_Linear_5,2,5,56,103,1599195480
59,16,19,Jits_Linear_5,3,5,80,127,1599226452
59,16,19,Jits_Linear_5,0,1,48,57,1599846500
59,16,19,Jits_Linear_5,1,5,56,103,1599866300
59,16,19,Jits_Linear_5,2,5,63,98,1599885640
59,16,19,Jits_Linear_5,3,5,80,127,1599895912
59,16,19,Jits_Linear_5,0,1,48,57,1600491548
59,16,19,Jits_Linear_5,1,5,56,103,1600586564
59,16,19,Jits_Linear_5,2,5,63,98,1600615868
59,16,19,Jits_Linear_5,3,5,80,127,1600619308
59,16,19,Jits_Linear_5,0,5,56,103,1601226292
59,16,19,Jits_Linear_5,1,1,48,58,1601236160
59,16,19,Jits_Linear_5,2,5,63,98,1601266104
59,16,19,Jits_Linear_5,3,5,80,127,1601325372
59,16,19,Jits_Linear_5,0,1,48,54,1601911628
59,16,19,Jits_Linear_5,1,5,56,103,1601935716
59,16,19,Jits_Linear_5,2,5,63,98,1601945916
59,16,19,Jits_Linear_5,3,5,80,127,1602006456
59,16,19,Jits_Linear_5,0,1,48,53,1602581112
59,16,19,Jits_Linear_5,1,5,56,103,1602636144
59,16,19,Jits_Linear_5,2,5,80,127,1602655556
59,16,19,Jits_Linear_5,3,5,63,98,1602686412
59,16,19,Jits_Linear_5,0,1,48,63,1603302064
59,16,19,Jits_Linear_5,1,5,80,127,1603335516
59,16,19,Jits_Linear_5,2,5,56,103,1603345712
59,16,19,Jits_Linear_5,3,5,63,98,1603366248
59,16,19,Jits_Linear_5,0,1,48,56,1604019400
59,16,19,Jits_Linear_5,1,5,63,98,1604025796
59,16,19,Jits_Linear_5,2,5,80,127,1604105548
59,16,19,Jits_Linear_5,3,5,56,103,1604115804
59,16,19,Jits_Linear_5,0,1,48,65,1604727544
59,16,19,Jits_Linear_5,1,5,80,127,1604785488
59,16,19,Jits_Linear_5,2,5,56,103,1604806096
59,16,19,Jits_Linear_5,3,5,63,98,1604809236
59,16,19,Jits_Linear_5,0,1,48,71,1605431252
59,16,19,Jits_Linear_5,1,5,63,98,1605465376
59,16,19,Jits_Linear_5,2,5,80,127,1605468668
59,16,19,Jits_Linear_5,3,5,56,103,1605527172
59,16,19,Jits_Linear_5,0,1,48,58,1606144420
59,16,19,Jits_Linear_5,1,5,56,103,1606155532
59,16,19,Jits_Linear_5,2,5,80,127,1606165880
59,16,19,Jits_Linear_5,3,5,63,98,1606205744
59,16,19,Jits_Linear_5,0,1,48,64,1606824956
59,16,19,Jits_Linear_5,1,5,56,103,1606845664
59,16,19,Jits_Linear_5,2,5,63,98,1606906308
59,16,19,Jits_Linear_5,3,5,80,127,1606915460
59,16,19,Jits_Linear_5,0,1,48,45,1607537592
59,16,19,Jits_Linear_5,1,5,63,98,1607565796
59,16,19,Jits_Linear_5,2,5,80,127,1607605736
59,16,19,Jits_Linear_5,3,5,56,103,1607645760
59,16,19,Jits_Linear_5,0,1,48,65,1608241536
59,16,19,Jits_Linear_5,1,5,56,103,1608276484
59,16,19,Jits_Linear_5,2,5,63,98,1608356340
59,16,19,Jits_Linear_5,3,5,80,127,1608359484
59,16,19,Jits_Linear_5,0,1,48,65,1608948324
59,16,19,Jits_Linear_5,1,5,80,127,1609046340
59,16,19,Jits_Linear_5,2,5,56,103,1609076016
59,16,19,Jits_Linear_5,3,5,63,98,1609079080
59,16,19,Jits_Linear_5,0,5,56,103,1609726324
59,16,19,Jits_Linear_5,1,1,48,57,1609729816
59,16,19,Jits_Linear_5,2,5,80,127,1609746028
59,16,19,Jits_Linear_5,3,5,63,98,1609785744
59,16,19,Jits_Linear_5,0,1,48,62,1610409172
59,16,19,Jits_Linear_5,1,5,80,127,1610425612
59,16,19,Jits_Linear_5,2,5,63,98,1610446220
59,16,19,Jits_Linear_5,3,5,56,103,1610505440
59,16,19,Jits_Linear_5,0,1,48,56,1611070028
59,16,19,Jits_Linear_5,1,5,63,98,1611155776
59,16,19,Jits_Linear_5,2,5,56,103,1611166196
59,16,19,Jits_Linear_5,3,5,80,127,1611216236
59,16,19,Jits_Linear_5,0,1,48,60,1611829348
59,16,19,Jits_Linear_5,1,5,56,103,1611865488
59,16,19,Jits_Linear_5,2,5,63,98,1611885948
59,16,19,Jits_Linear_5,3,5,80,127,1611896144
59,16,19,Jits_Linear_5,0,1,48,31,1612519128
59,16,19,Jits_Linear_5,1,5,56,103,1612586288
59,16,19,Jits_Linear_5,2,5,63,98,1612589356
59,16,19,Jits_Linear_5,3,5,80,127,1612606072
59,16,19,Jits_Linear_5,0,1,48,63,1613199504
59,16,19,Jits_Linear_5,1,5,63,98,1613356512
59,16,19,Jits_Linear_5,2,5,56,103,1613385964
59,16,19,Jits_Linear_5,3,5,80,127,1613415864
59,16,19,Jits_Linear_5,0,1,48,64,1613968564
59,16,19,Jits_Linear_5,1,5,80,127,1614045488
59,16,19,Jits_Linear_5,2,5,56,103,1614135760
59,16,19,Jits_Linear_5,3,5,63,98,1614138976
59,16,19,Jits_Linear_5,0,5,56,103,1614775704
59,16,19,Jits_Linear_5,1,5,80,127,1614778844
59,16,19,Jits_Linear_5,2,1,48,65,1614823492
59,16,19,Jits_Linear_5,3,5,63,98,1614855444
59,16,19,Jits_Linear_5,0,1,48,62,1615499772
59,16,19,Jits_Linear_5,1,5,80,127,1615506244
59,16,19,Jits_Linear_5,2,5,63,98,1615566116
59,16,19,Jits_Linear_5,3,5,56,103,1615595892
59,16,19,Jits_Linear_5,0,5,63,98,1616236044
59,16,19,Jits_Linear_5,1,1,48,51,1616241184
59,16,19,Jits_Linear_5,2,5,80,127,1616246084
59,16,19,Jits_Linear_5,3,5,56,103,1616315916
59,16,19,Jits_Linear_5,0,1,48,48,1616871464
59,16,19,Jits_Linear_5,1,5,56,103,1616985444
59,16,19,Jits_Linear_5,2,5,80,127,1617016244
59,16,19,Jits_Linear_5,3,5,63,98,1617066448
59,16,19,Jits_Linear_5,0,1,48,57,1617654844
59,16,19,Jits_Linear_5,1,5,63,98,1617765960
59,16,19,Jits_Linear_5,2,5,56,103,1617795332
59,16,19,Jits_Linear_5,3,5,80,127,1617798404
59,16,19,Jits_Linear_5,0,1,48,63,1618497228
59,16,19,Jits_Linear_5,1,5,63,98,1618516288
59,16,19,Jits_Linear_5,2,5,80,127,1618535924
59,16,19,Jits_Linear_5,3,5,56,103,1618545896
59,16,19,Jits_Linear_5,0,5,56,103,1619265868
59,16,19,Jits_Linear_5,1,5,63,98,1619269084
59,16,19,Jits_Linear_5,2,5,80,127,1619286476
59,16,19,Jits_Linear_5,3,1,48,61,1619303452
59,16,19,Jits_Linear_5,0,5,56,103,1619966224
59,16,19,Jits_Linear_5,1,5,63,98,1619975448
59,16,19,Jits_Linear_5,2,5,80,127,1620006248
59,16,19,Jits_Linear_5,3,1,48,53,1620052956
59,16,19,Jits_Linear_5,0,5,63,98,1620736416
59,16,19,Jits_Linear_5,1,5,80,127,1620756052
59,16,19,Jits_Linear_5,2,1,48,61,1620788316
59,16,19,Jits_Linear_5,3,5,56,103,1620795908
59,16,19,Jits_Linear_5,0,1,48,63,1621510900
59,16,19,Jits_Linear_5,1,5,56,103,1621515876
59,16,19,Jits_Linear_5,2,5,63,98,1621555436
59,16,19,Jits_Linear_5,3,5,80,127,1621559032
59,16,19,Jits_Linear_5,0,5,80,127,1622205936
59,16,19,Jits_Linear_5,1,5,56,103,1622246052
59,16,19,Jits_Linear_5,2,1,48,53,1622270892
59,16,19,Jits_Linear_5,3,5,63,98,1622295876
59,16,19,Jits_Linear_5,0,5,56,103,1623015940
59,16,19,Jits_Linear_5,1,1,48,52,1623018616
59,16,19,Jits_Linear_5,2,5,80,127,1623026056
59,16,19,Jits_Linear_5,3,5,63,98,1623055656
59,16,19,Jits_Linear_5,0,5,56,103,1623716280
59,16,19,Jits_Linear_5,1,5,80,127,1623756148
59,16,19,Jits_Linear_5,2,1,48,52,1623804484
59,16,19,Jits_Linear_5,3,5,63,98,1623806296
59,16,19,Jits_Linear_5,0,5,56,103,1624475988
59,16,19,Jits_Linear_5,1,5,80,127,1624516076
59,16,19,Jits_Linear_5,2,1,48,48,1624526920
59,16,19,Jits_Linear_5,3,5,63,98,1624566220
59,16,19,Jits_Linear_5,0,5,80,127,1625225720
59,16,19,Jits_Linear_5,1,1,48,60,1625266608
59,16,19,Jits_Linear_5,2,5,63,98,1625305368
59,16,19,Jits_Linear_5,3,5,56,103,1625315884
59,16,19,Jits_Linear_5,0,1,48,53,1626012204
59,16,19,Jits_Linear_5,1,5,80,127,1626035692
59,16,19,Jits_Linear_5,2,5,56,103,1626045740
59,16,19,Jits_Linear_5,3,5,63,98,1626066500
59,16,19,Jits_Linear_5,0,5,63,98,1626765864
59,16,19,Jits_Linear_5,1,1,48,57,1626781192
59,16,19,Jits_Linear_5,2,5,56,103,1626836292
59,16,19,Jits_Linear_5,3,5,80,127,1626839284
59,16,19,Jits_Linear_5,0,5,80,127,1627525624
59,16,19,Jits_Linear_5,1,1,48,48,1627560284
59,16,19,Jits_Linear_5,2,5,63,98,1627575896
59,16,19,Jits_Linear_5,3,5,56,103,1627615560
59,16,19,Jits_Linear_5,0,1,48,52,1628307392
59,16,19,Jits_Linear_5,1,5,63,98,1628335444
59,16,19,Jits_Linear_5,2,5,56,103,1628376508
59,16,19,Jits_Linear_5,3,5,80,127,1628385832
59,16,19,Jits_Linear_5,0,5,63,98,1629096192
59,16,19,Jits_Linear_5,1,5,56,103,1629115756
59,16,19,Jits_Linear_5,2,1,48,55,1629134324
59,16,19,Jits_Linear_5,3,5,80,127,1629136208
59,16,19,Jits_Linear_5,0,5,80,127,1629826508
59,16,19,Jits_Linear_5,1,5,56,103,1629836032
59,16,19,Jits_Linear_5,2,5,63,98,1629856120
59,16,19,Jits_Linear_5,3,1,48,59,1629912568
59,16,19,Jits_Linear_5,0,5,63,98,1630626292
59,16,19,Jits_Linear_5,1,1,48,59,1630660952
59,16,19,Jits_Linear_5,2,5,56,103,1630666228
59,16,19,Jits_Linear_5,3,5,80,127,1630695928
59,16,19,Jits_Linear_5,0,5,56,103,1631405392
59,16,19,Jits_Linear_5,1,1,48,59,1631416228
59,16,19,Jits_Linear_5,2,5,63,98,1631436036
59,16,19,Jits_Linear_5,3,5,80,127,1631465812
59,16,19,Jits_Linear_5,0,5,80,127,1632155956
59,16,19,Jits_Linear_5,1,1,48,66,1632210172
59,16,19,Jits_Linear_5,2,5,56,103,1632225584
59,16,19,Jits_Linear_5,3,5,63,98,1632228724
59,16,19,Jits_Linear_5,0,5,56,103,1632945620
59,16,19,Jits_Linear_5,1,1,48,66,1632964928
59,16,19,Jits_Linear_5,2,5,63,98,1632995620
59,16,19,Jits_Linear_5,3,5,80,127,1633026344
59,16,19,Jits_Linear_5,0,5,63,98,1633706444
59,16,19,Jits_Linear_5,1,5,80,127,1633709732
59,16,19,Jits_Linear_5,2,1,48,55,1633722816
59,16,19,Jits_Linear_5,3,5,56,103,1633765804
59,16,19,Jits_Linear_5,0,1,48,56,1634471696
59,16,19,Jits_Linear_5,1,5,56,103,1634516312
59,16,19,Jits_Linear_5,2,5,80,127,1634525860
59,16,19,Jits_Linear_5,3,5,63,98,1634575896
59,16,19,Jits_Linear_5,0,1,48,59,1635258440
59,16,19,Jits_Linear_5,1,5,63,98,1635276072
59,16,19,Jits_Linear_5,2,5,56,103,1635286492
59,16,19,Jits_Linear_5,3,5,80,127,1635316044
59,16,19,Jits_Linear_5,0,1,48,64,1636068424
59,16,19,Jits_Linear_5,1,5,63,98,1636096540
59,16,19,Jits_Linear_5,2,5,80,127,1636099684
59,16,19,Jits_Linear_5,3,5,56,103,1636125920
59,16,19,Jits_Linear_5,0,1,48,55,1636869900
59,16,19,Jits_Linear_5,1,5,63,98,1636906568
59,16,19,Jits_Linear_5,2,5,56,103,1636925756
59,16,19,Jits_Linear_5,3,5,80,127,1636928824
59,16,19,Jits_Linear_5,0,5,63,98,1637655920
59,16,19,Jits_Linear_5,1,1,48,52,1637679936
59,16,19,Jits_Linear_5,2,5,56,103,1637725744
59,16,19,Jits_Linear_5,3,5,80,127,1637745980
59,16,19,Jits_Linear_5,0,5,56,103,1638436136
59,16,19,Jits_Linear_5,1,5,63,98,1638445512
59,16,19,Jits_Linear_5,2,1,48,57,1638476808
59,16,19,Jits_Linear_5,3,5,80,127,1638535788
59,16,19,Jits_Linear_5,0,5,56,103,1639246324
59,16,19,Jits_Linear_5,1,1,48,53,1639258512
59,16,19,Jits_Linear_5,2,5,80,127,1639286260
59,16,19,Jits_Linear_5,3,5,63,98,1639296680
59,16,19,Jits_Linear_5,0,1,48,59,1640048920
59,16,19,Jits_Linear_5,1,5,56,103,1640066704
59,16,19,Jits_Linear_5,2,5,63,98,1640096232
59,16,19,Jits_Linear_5,3,5,80,127,1640125760
59,16,19,Jits_Linear_5,0,5,80,127,1640826172
59,16,19,Jits_Linear_5,1,1,48,59,1640840900
59,16,19,Jits_Linear_5,2,5,63,98,1640866180
59,16,19,Jits_Linear_5,3,5,56,103,1640885520
59,16,19,Jits_Linear_5,0,1,48,52,1641633176
59,16,19,Jits_Linear_5,1,5,56,103,1641666028
59,16,19,Jits_Linear_5,2,5,80,127,1641686640
59,16,19,Jits_Linear_5,3,5,63,98,1641705704
59,16,19,Jits_Linear_5,0,1,48,46,1642410172
59,16,19,Jits_Linear_5,1,5,63,98,1642435980
59,16,19,Jits_Linear_5,2,5,56,103,1642446176
59,16,19,Jits_Linear_5,3,5,80,127,1642505544
59,16,19,Jits_Linear_5,0,1,48,55,1643187392
59,16,19,Jits_Linear_5,1,5,56,103,1643245808
59,16,19,Jits_Linear_5,2,5,63,98,1643315628
59,16,19,Jits_Linear_5,3,5,80,127,1643335940
59,16,19,Jits_Linear_5,0,1,48,51,1643990676
59,16,19,Jits_Linear_5,1,5,56,103,1644055920
59,16,19,Jits_Linear_5,2,5,63,98,1644085580
59,16,19,Jits_Linear_5,3,5,80,127,1644125592
59,16,19,Jits_Linear_5,0,1,48,52,1644823672
59,16,19,Jits_Linear_5,1,5,63,98,1644855760
59,16,19,Jits_Linear_5,2,5,56,103,1644905964
59,16,19,Jits_Linear_5,3,5,80,127,1644916160
59,16,19,Jits_Linear_5,0,1,48,53,1645647704
59,16,19,Jits_Linear_5,1,5,56,103,1645705576
59,16,19,Jits_Linear_5,2,5,63,98,1645755768
59,16,19,Jits_Linear_5,3,5,80,127,1645765964
59,16,19,Jits_Linear_5,0,1,48,46,1646455500
59,16,19,Jits_Linear_5,1,5,56,103,1646485796
59,16,19,Jits_Linear_5,2,5,63,98,1646496068
59,16,19,Jits_Linear_5,3,5,80,127,1646575872
59,16,19,Jits_Linear_5,0,9999,9999,9999,1537723448
59,16,19,Jits_Linear_5,1,9999,9999,9999,1538203760
59,16,19,Jits_Linear_5,2,9999,9999,9999,1538684016
59,16,19,Jits_Linear_5,3,9999,9999,9999,1539163224
59,16,19,Jits_Linear_5,4,9999,9999,9999,1539643448
59,16,19,Jits_Linear_5,5,9999,9999,9999,1540134000
59,16,19,Jits_Linear_5,6,9999,9999,9999,1540623428
59,16,19,Jits_Linear_5,7,9999,9999,9999,1541113912
59,16,19,Jits_Linear_5,8,9999,9999,9999,1541603428
59,16,19,Jits_Linear_5,9,9999,9999,9999,1542093888
59,16,19,Jits_Linear_5,10,9999,9999,9999,1542593660
59,16,19,Jits_Linear_5,11,9999,9999,9999,1543093368
59,16,19,Jits_Linear_5,12,9999,9999,9999,1543594096
59,16,19,Jits_Linear_5,13,9999,9999,9999,1544093784
59,16,19,Jits_Linear_5,14,9999,9999,9999,1544593472
59,16,19,Jits_Linear_5,15,9999,9999,9999,1545103440
59,16,19,Jits_Linear_5,16,9999,9999,9999,1545613392
59,16,19,Jits_Linear_5,17,9999,9999,9999,1546123344
59,16,19,Jits_Linear_5,18,9999,9999,9999,1546633296
59,16,19,Jits_Linear_5,19,9999,9999,9999,1547143264
59,16,19,Jits_Linear_5,20,9999,9999,9999,1547663420
59,16,19,Jits_Linear_5,21,9999,9999,9999,1548183632
59,16,19,Jits_Linear_5,22,9999,9999,9999,1548703848
59,16,19,Jits_Linear_5,23,9999,9999,9999,1549224064
59,16,19,Jits_Linear_5,24,9999,9999,9999,1549743172
59,16,19,Jits_Linear_5,25,9999,9999,9999,1550273656
59,16,19,Jits_Linear_5,26,9999,9999,9999,1550804064
59,16,19,Jits_Linear_5,27,9999,9999,9999,1551333496
59,16,19,Jits_Linear_5,28,9999,9999,9999,1551863904
59,16,19,Jits_Linear_5,29,9999,9999,9999,1552393332
59,16,19,Jits_Linear_5,30,9999,9999,9999,1552934004
59,16,19,Jits_Linear_5,31,9999,9999,9999,1553473624
59,16,19,Jits_Linear_5,32,9999,9999,9999,1554013244
59,16,19,Jits_Linear_5,33,9999,9999,9999,1554553912
59,16,19,Jits_Linear_5,34,9999,9999,9999,1555093612
59,16,19,Jits_Linear_5,35,9999,9999,9999,1555643500
59,16,19,Jits_Linear_5,36,9999,9999,9999,1556193396
59,16,19,Jits_Linear_5,37,9999,9999,9999,1556743284
59,16,19,Jits_Linear_5,38,9999,9999,9999,1557293172
59,16,19,Jits_Linear_5,39,9999,9999,9999,1557844032
59,16,19,Jits_Linear_5,40,9999,9999,9999,1558403140
59,16,19,Jits_Linear_5,41,9999,9999,9999,1558963288
59,16,19,Jits_Linear_5,42,9999,9999,9999,1559523388
59,16,19,Jits_Linear_5,43,9999,9999,9999,1560083532
59,16,19,Jits_Linear_5,44,9999,9999,9999,1560643680
59,16,19,Jits_Linear_5,45,9999,9999,9999,1561214016
59,16,19,Jits_Linear_5,46,9999,9999,9999,1561783380
59,16,19,Jits_Linear_5,47,9999,9999,9999,1562353752
59,16,19,Jits_Linear_5,48,9999,9999,9999,1562923120
59,16,19,Jits_Linear_5,49,9999,9999,9999,1563493464
59,16,19,Jits_Linear_5,50,9999,9999,9999,1564074052
59,16,19,Jits_Linear_5,51,9999,9999,9999,1564653632
59,16,19,Jits_Linear_5,52,9999,9999,9999,1565233260
59,16,19,Jits_Linear_5,53,9999,9999,9999,1565813864
59,16,19,Jits_Linear_5,54,9999,9999,9999,1566393424
59,16,19,Jits_Linear_5,55,9999,9999,9999,1566983260
59,16,19,Jits_Linear_5,56,9999,9999,9999,1567574124
59,16,19,Jits_Linear_5,57,9999,9999,9999,1568173168
59,16,19,Jits_Linear_5,58,9999,9999,9999,1568763988
59,16,19,Jits_Linear_5,59,9999,9999,9999,1569353788
59,16,19,Jits_Linear_5,60,9999,9999,9999,1569953872
59,16,19,Jits_Linear_5,61,9999,9999,9999,1570553976
59,16,19,Jits_Linear_5,62,9999,9999,9999,1571153984
59,16,19,Jits_Linear_5,63,9999,9999,9999,1571754064
59,16,19,Jits_Linear_5,64,9999,9999,9999,1572353124
59,16,19,Jits_Linear_5,65,9999,9999,9999,1572963392
59,16,19,Jits_Linear_5,66,9999,9999,9999,1573573740
59,16,19,Jits_Linear_5,67,9999,9999,9999,1574184024
59,16,19,Jits_Linear_5,68,9999,9999,9999,1574793324
59,16,19,Jits_Linear_5,69,9999,9999,9999,1575403624
59,16,19,Jits_Linear_5,70,9999,9999,9999,1576023100
59,16,19,Jits_Linear_5,71,9999,9999,9999,1576643708
59,16,19,Jits_Linear_5,72,9999,9999,9999,1577263220
59,16,19,Jits_Linear_5,73,9999,9999,9999,1577883756
59,16,19,Jits_Linear_5,74,9999,9999,9999,1578503268
59,16,19,Jits_Linear_5,75,9999,9999,9999,1579134064
59,16,19,Jits_Linear_5,76,9999,9999,9999,1579763772
59,16,19,Jits_Linear_5,77,9999,9999,9999,1580393596
59,16,19,Jits_Linear_5,78,9999,9999,9999,1581023316
59,16,19,Jits_Linear_5,79,9999,9999,9999,1581654116
59,16,19,Jits_Linear_5,80,9999,9999,9999,1582294132
59,16,19,Jits_Linear_5,81,9999,9999,9999,1582934096
59,16,19,Jits_Linear_5,82,9999,9999,9999,1583574124
59,16,19,Jits_Linear_5,83,9999,9999,9999,1584214084
59,16,19,Jits_Linear_5,84,9999,9999,9999,1584854116
59,16,19,Jits_Linear_5,85,9999,9999,9999,1585513556
59,16,19,Jits_Linear_5,86,9999,9999,9999,1586163780
59,16,19,Jits_Linear_5,87,9999,9999,9999,1586814056
59,16,19,Jits_Linear_5,88,9999,9999,9999,1587463236
59,16,19,Jits_Linear_5,89,9999,9999,9999,1588113516
59,16,19,Jits_Linear_5,90,9999,9999,9999,1588774008
59,16,19,Jits_Linear_5,91,9999,9999,9999,1589433428
59,16,19,Jits_Linear_5,92,9999,9999,9999,1590093904
59,16,19,Jits_Linear_5,93,9999,9999,9999,1590753348
59,16,19,Jits_Linear_5,94,9999,9999,9999,1591413812
59,16,19,Jits_Linear_5,95,9999,9999,9999,1592083524
59,16,19,Jits_Linear_5,96,9999,9999,9999,1592753212
59,16,19,Jits_Linear_5,97,9999,9999,9999,1593423964
59,16,19,Jits_Linear_5,98,9999,9999,9999,1594093672
59,16,19,Jits_Linear_5,99,9999,9999,9999,1594763356
59,16,19,Jits_Linear_5,100,9999,9999,9999,1595443328
59,16,19,Jits_Linear_5,101,9999,9999,9999,1596123200
59,16,19,Jits_Linear_5,102,9999,9999,9999,1596803160
59,16,19,Jits_Linear_5,103,9999,9999,9999,1597483064
59,16,19,Jits_Linear_5,104,9999,9999,9999,1598164056
59,16,19,Jits_Linear_5,105,9999,9999,9999,1598853232
59,16,19,Jits_Linear_5,106,9999,9999,9999,1599543396
59,16,19,Jits_Linear_5,107,9999,9999,9999,1600233552
59,16,19,Jits_Linear_5,108,9999,9999,9999,1600923760
59,16,19,Jits_Linear_5,109,9999,9999,9999,1601613920
59,16,19,Jits_Linear_5,110,9999,9999,9999,1602313308
59,16,19,Jits_Linear_5,111,9999,9999,9999,1603013708
59,16,19,Jits_Linear_5,112,9999,9999,9999,1603713080
59,16,19,Jits_Linear_5,113,9999,9999,9999,1604413504
59,16,19,Jits_Linear_5,114,9999,9999,9999,1605113924
59,16,19,Jits_Linear_5,115,9999,9999,9999,1605823604
59,16,19,Jits_Linear_5,116,9999,9999,9999,1606533176
59,16,19,Jits_Linear_5,117,9999,9999,9999,1607243860
59,16,19,Jits_Linear_5,118,9999,9999,9999,1607953504
59,16,19,Jits_Linear_5,119,9999,9999,9999,1608663112
59,16,19,Jits_Linear_5,120,9999,9999,9999,1609384056
59,16,19,Jits_Linear_5,121,9999,9999,9999,1610103884
59,16,19,Jits_Linear_5,122,9999,9999,9999,1610823800
59,16,19,Jits_Linear_5,123,9999,9999,9999,1611543628
59,16,19,Jits_Linear_5,124,9999,9999,9999,1612263528
59,16,19,Jits_Linear_5,125,9999,9999,9999,1612993660
59,16,19,Jits_Linear_5,126,9999,9999,9999,1613723756
59,16,19,Jits_Linear_5,127,9999,9999,9999,1614453840
59,16,19,Jits_Linear_5,128,9999,9999,9999,1615183996
59,16,19,Jits_Linear_5,129,9999,9999,9999,1615914104
59,16,19,Jits_Linear_5,130,9999,9999,9999,1616653412
59,16,19,Jits_Linear_5,131,9999,9999,9999,1617393768
59,16,19,Jits_Linear_5,132,9999,9999,9999,1618134092
59,16,19,Jits_Linear_5,133,9999,9999,9999,1618883664
59,16,19,Jits_Linear_5,134,9999,9999,9999,1619624012
59,16,19,Jits_Linear_5,135,9999,9999,9999,1620373596
59,16,19,Jits_Linear_5,136,9999,9999,9999,1621123188
59,16,19,Jits_Linear_5,137,9999,9999,9999,1621873728
59,16,19,Jits_Linear_5,138,9999,9999,9999,1622623304
59,16,19,Jits_Linear_5,139,9999,9999,9999,1623373944
59,16,19,Jits_Linear_5,140,9999,9999,9999,1624133724
59,16,19,Jits_Linear_5,141,9999,9999,9999,1624893500
59,16,19,Jits_Linear_5,142,9999,9999,9999,1625653352
59,16,19,Jits_Linear_5,143,9999,9999,9999,1626413132
59,16,19,Jits_Linear_5,144,9999,9999,9999,1627174008
59,16,19,Jits_Linear_5,145,9999,9999,9999,1627944040
59,16,19,Jits_Linear_5,146,9999,9999,9999,1628714088
59,16,19,Jits_Linear_5,147,9999,9999,9999,1629483068
59,16,19,Jits_Linear_5,148,9999,9999,9999,1630253164
59,16,19,Jits_Linear_5,149,9999,9999,9999,1631023212
59,16,19,Jits_Linear_5,150,9999,9999,9999,1631803504
59,16,19,Jits_Linear_5,151,9999,9999,9999,1632583800
59,16,19,Jits_Linear_5,152,9999,9999,9999,1633364036
59,16,19,Jits_Linear_5,153,9999,9999,9999,1634143356
59,16,19,Jits_Linear_5,154,9999,9999,9999,1634923644
59,16,19,Jits_Linear_5,155,9999,9999,9999,1635713148
59,16,19,Jits_Linear_5,156,9999,9999,9999,1636503616
59,16,19,Jits_Linear_5,157,9999,9999,9999,1637293116
59,16,19,Jits_Linear_5,158,9999,9999,9999,1638083676
59,16,19,Jits_Linear_5,159,9999,9999,9999,1638873184
59,16,19,Jits_Linear_5,160,9999,9999,9999,1639673956
59,16,19,Jits_Linear_5,161,9999,9999,9999,1640473668
59,16,19,Jits_Linear_5,162,9999,9999,9999,1641273428
59,16,19,Jits_Linear_5,163,9999,9999,9999,1642073212
59,16,19,Jits_Linear_5,164,9999,9999,9999,1642873948
59,16,19,Jits_Linear_5,165,9999,9999,9999,1643683908
59,16,19,Jits_Linear_5,166,9999,9999,9999,1644493940
59,16,19,Jits_Linear_5,167,9999,9999,9999,1645303920
59,16,19,Jits_Linear_5,168,9999,9999,9999,1646113884
59,16,19,Jits_Linear_5,169,9999,9999,9999,1646923844
59,17,18,Jits_Linear_8,0,5,56,103,1656459692
59,17,18,Jits_Linear_8,1,5,63,98,1656462788
59,17,18,Jits_Linear_8,2,5,80,127,1656465912
59,17,18,Jits_Linear_8,0,1,48,69,1657022212
59,17,18,Jits_Linear_8,1,5,56,103,1657280052
59,17,18,Jits_Linear_8,2,5,63,98,1657283076
59,17,18,Jits_Linear_8,3,5,80,127,1657286268
59,17,18,Jits_Linear_8,0,1,48,75,1658028992
59,17,18,Jits_Linear_8,1,5,80,127,1658039656
59,17,18,Jits_Linear_8,2,5,63,98,1658129656
59,17,18,Jits_Linear_8,3,5,56,103,1658140000
59,17,18,Jits_Linear_8,0,1,48,73,1658879520
59,17,18,Jits_Linear_8,1,5,56,103,1658881164
59,17,18,Jits_Linear_8,2,5,63,98,1658889568
59,17,18,Jits_Linear_8,3,5,80,127,1658979684
59,17,18,Jits_Linear_8,0,5,63,98,1659669840
59,17,18,Jits_Linear_8,1,1,48,72,1659696480
59,17,18,Jits_Linear_8,2,5,80,127,1659699512
59,17,18,Jits_Linear_8,3,5,56,103,1659730308
59,17,18,Jits_Linear_8,0,5,56,103,1660490192
59,17,18,Jits_Linear_8,1,1,48,64,1660491156
59,17,18,Jits_Linear_8,2,5,80,127,1660589300
59,17,18,Jits_Linear_8,3,5,63,98,1660639528
59,17,18,Jits_Linear_8,0,5,56,103,1661300152
59,17,18,Jits_Linear_8,1,1,48,70,1661325372
59,17,18,Jits_Linear_8,2,5,80,127,1661350348
59,17,18,Jits_Linear_8,3,5,63,98,1661390288
59,17,18,Jits_Linear_8,0,5,80,127,1662139856
59,17,18,Jits_Linear_8,1,1,48,67,1662150320
59,17,18,Jits_Linear_8,2,5,63,98,1662169452
59,17,18,Jits_Linear_8,3,5,56,103,1662240056
59,17,18,Jits_Linear_8,0,1,48,63,1662934268
59,17,18,Jits_Linear_8,1,5,63,98,1662979432
59,17,18,Jits_Linear_8,2,5,56,103,1663010228
59,17,18,Jits_Linear_8,3,5,80,127,1663069408
59,17,18,Jits_Linear_8,0,5,56,103,1663729968
59,17,18,Jits_Linear_8,1,5,80,127,1663733036
59,17,18,Jits_Linear_8,2,1,48,58,1663781188
59,17,18,Jits_Linear_8,3,5,63,98,1663849988
59,17,18,Jits_Linear_8,0,1,48,59,1664597344
59,17,18,Jits_Linear_8,1,5,56,103,1664609592
59,17,18,Jits_Linear_8,2,5,80,127,1664649532
59,17,18,Jits_Linear_8,3,5,63,98,1664659952
59,17,18,Jits_Linear_8,0,5,56,103,1665369348
59,17,18,Jits_Linear_8,1,5,80,127,1665390180
59,17,18,Jits_Linear_8,2,1,48,59,1665417508
59,17,18,Jits_Linear_8,3,5,63,98,1665469968
59,17,18,Jits_Linear_8,0,5,80,127,1666160200
59,17,18,Jits_Linear_8,1,1,48,63,1666202424
59,17,18,Jits_Linear_8,2,5,56,103,1666260444
59,17,18,Jits_Linear_8,3,5,63,98,1666269544
59,17,18,Jits_Linear_8,0,5,63,98,1666930000
59,17,18,Jits_Linear_8,1,5,80,127,1666989348
59,17,18,Jits_Linear_8,2,5,56,103,1666999544
59,17,18,Jits_Linear_8,3,1,48,52,1667034892
59,17,18,Jits_Linear_8,0,5,56,103,1667729824
59,17,18,Jits_Linear_8,1,1,48,64,1667781416
59,17,18,Jits_Linear_8,2,5,63,98,1667800396
59,17,18,Jits_Linear_8,3,5,80,127,1667804156
59,17,18,Jits_Linear_8,0,1,48,65,1668528952
59,17,18,Jits_Linear_8,1,5,63,98,1668560292
59,17,18,Jits_Linear_8,2,5,56,103,1668610368
59,17,18,Jits_Linear_8,3,5,80,127,1668613432
59,17,18,Jits_Linear_8,0,1,48,64,1669285672
59,17,18,Jits_Linear_8,1,5,56,103,1669309984
59,17,18,Jits_Linear_8,2,5,80,127,1669312824
59,17,18,Jits_Linear_8,3,5,63,98,1669400200
59,17,18,Jits_Linear_8,0,1,48,52,1670081080
59,17,18,Jits_Linear_8,1,5,63,98,1670140320
59,17,18,Jits_Linear_8,2,5,56,103,1670230368
59,17,18,Jits_Linear_8,3,5,80,127,1670260116
59,17,18,Jits_Linear_8,0,1,48,62,1670869008
59,17,18,Jits_Linear_8,1,5,56,103,1670919476
59,17,18,Jits_Linear_8,2,5,63,98,1671020084
59,17,18,Jits_Linear_8,3,5,80,127,1671049760
59,17,18,Jits_Linear_8,0,1,48,61,1671717772
59,17,18,Jits_Linear_8,1,5,63,98,1671729500
59,17,18,Jits_Linear_8,2,5,56,103,1671739772
59,17,18,Jits_Linear_8,3,5,80,127,1671830036
59,17,18,Jits_Linear_8,0,1,48,71,1672506212
59,17,18,Jits_Linear_8,1,5,63,98,1672530224
59,17,18,Jits_Linear_8,2,5,56,103,1672610152
59,17,18,Jits_Linear_8,3,5,80,127,1672613220
59,17,18,Jits_Linear_8,0,1,48,61,1673258012
59,17,18,Jits_Linear_8,1,5,80,127,1673269960
59,17,18,Jits_Linear_8,2,5,63,98,1673289972
59,17,18,Jits_Linear_8,3,5,56,103,1673349464
59,17,18,Jits_Linear_8,0,1,48,83,1674030208
59,17,18,Jits_Linear_8,1,5,56,103,1674090020
59,17,18,Jits_Linear_8,2,5,63,98,1674110252
59,17,18,Jits_Linear_8,3,5,80,127,1674113540
59,17,18,Jits_Linear_8,0,5,63,98,1674809752
59,17,18,Jits_Linear_8,1,1,48,75,1674846876
59,17,18,Jits_Linear_8,2,5,80,127,1674889696
59,17,18,Jits_Linear_8,3,5,56,103,1674899964
59,17,18,Jits_Linear_8,0,5,63,98,1675609508
59,17,18,Jits_Linear_8,1,5,56,103,1675629892
59,17,18,Jits_Linear_8,2,1,48,59,1675679040
59,17,18,Jits_Linear_8,3,5,80,127,1675680536
59,17,18,Jits_Linear_8,0,5,80,127,1676389928
59,17,18,Jits_Linear_8,1,1,48,67,1676397532
59,17,18,Jits_Linear_8,2,5,63,98,1676429788
59,17,18,Jits_Linear_8,3,5,56,103,1676450176
59,17,18,Jits_Linear_8,0,5,56,103,1677199816
59,17,18,Jits_Linear_8,1,5,63,98,1677209940
59,17,18,Jits_Linear_8,2,1,48,67,1677211728
59,17,18,Jits_Linear_8,3,5,80,127,1677229492
59,17,18,Jits_Linear_8,0,5,56,103,1677900092
59,17,18,Jits_Linear_8,1,5,63,98,1677990156
59,17,18,Jits_Linear_8,2,1,48,68,1678013420
59,17,18,Jits_Linear_8,3,5,80,127,1678049740
59,17,18,Jits_Linear_8,0,5,80,127,1678699788
59,17,18,Jits_Linear_8,1,5,56,103,1678710060
59,17,18,Jits_Linear_8,2,1,48,76,1678776552
59,17,18,Jits_Linear_8,3,5,63,98,1678780180
59,17,18,Jits_Linear_8,0,5,63,98,1679499784
59,17,18,Jits_Linear_8,1,1,48,68,1679528308
59,17,18,Jits_Linear_8,2,5,80,127,1679589936
59,17,18,Jits_Linear_8,3,5,56,103,1679599908
59,17,18,Jits_Linear_8,0,5,63,98,1680200044
59,17,18,Jits_Linear_8,1,5,80,127,1680250248
59,17,18,Jits_Linear_8,2,1,48,77,1680296884
59,17,18,Jits_Linear_8,3,5,56,103,1680309584
59,17,18,Jits_Linear_8,0,5,56,103,1680989752
59,17,18,Jits_Linear_8,1,5,80,127,1681039956
59,17,18,Jits_Linear_8,2,5,63,98,1681060116
59,17,18,Jits_Linear_8,3,1,48,70,1681062056
59,17,18,Jits_Linear_8,0,5,56,103,1681719912
59,17,18,Jits_Linear_8,1,5,80,127,1681779936
59,17,18,Jits_Linear_8,2,1,48,60,1681799392
59,17,18,Jits_Linear_8,3,5,63,98,1681849904
59,17,18,Jits_Linear_8,0,5,56,103,1682479748
59,17,18,Jits_Linear_8,1,5,80,127,1682510100
59,17,18,Jits_Linear_8,2,5,63,98,1682539848
59,17,18,Jits_Linear_8,3,1,48,69,1682579304
59,17,18,Jits_Linear_8,0,5,56,103,1683280184
59,17,18,Jits_Linear_8,1,5,80,127,1683299672
59,17,18,Jits_Linear_8,2,1,48,55,1683334180
59,17,18,Jits_Linear_8,3,5,63,98,1683360056
59,17,18,Jits_Linear_8,0,1,48,63,1684101796
59,17,18,Jits_Linear_8,1,5,80,127,1684119808
59,17,18,Jits_Linear_8,2,5,56,103,1684130080
59,17,18,Jits_Linear_8,3,5,63,98,1684140276
59,17,18,Jits_Linear_8,0,1,48,57,1684821396
59,17,18,Jits_Linear_8,1,5,56,103,1684829588
59,17,18,Jits_Linear_8,2,5,80,127,1684869604
59,17,18,Jits_Linear_8,3,5,63,98,1684900176
59,17,18,Jits_Linear_8,0,5,56,103,1685549712
59,17,18,Jits_Linear_8,1,5,63,98,1685580136
59,17,18,Jits_Linear_8,2,5,80,127,1685620000
59,17,18,Jits_Linear_8,3,1,48,58,1685624092
59,17,18,Jits_Linear_8,0,5,80,127,1686249832
59,17,18,Jits_Linear_8,1,5,63,98,1686300036
59,17,18,Jits_Linear_8,2,5,56,103,1686319672
59,17,18,Jits_Linear_8,3,1,48,57,1686351412
59,17,18,Jits_Linear_8,0,5,56,103,1687030120
59,17,18,Jits_Linear_8,1,1,48,49,1687034728
59,17,18,Jits_Linear_8,2,5,80,127,1687099796
59,17,18,Jits_Linear_8,3,5,63,98,1687160172
59,17,18,Jits_Linear_8,0,5,80,127,1687769656
59,17,18,Jits_Linear_8,1,1,48,62,1687825664
59,17,18,Jits_Linear_8,2,5,63,98,1687859784
59,17,18,Jits_Linear_8,3,5,56,103,1687880096
59,17,18,Jits_Linear_8,0,5,63,98,1688530440
59,17,18,Jits_Linear_8,1,5,56,103,1688549952
59,17,18,Jits_Linear_8,2,1,48,55,1688556964
59,17,18,Jits_Linear_8,3,5,80,127,1688589736
59,17,18,Jits_Linear_8,0,5,80,127,1689229800
59,17,18,Jits_Linear_8,1,5,63,98,1689250260
59,17,18,Jits_Linear_8,2,1,48,56,1689290844
59,17,18,Jits_Linear_8,3,5,56,103,1689330072
59,17,18,Jits_Linear_8,0,5,63,98,1689959740
59,17,18,Jits_Linear_8,1,5,56,103,1690070548
59,17,18,Jits_Linear_8,2,1,48,51,1690073016
59,17,18,Jits_Linear_8,3,5,80,127,1690074728
59,17,18,Jits_Linear_8,0,5,63,98,1690719596
59,17,18,Jits_Linear_8,1,5,56,103,1690729792
59,17,18,Jits_Linear_8,2,5,80,127,1690732856
59,17,18,Jits_Linear_8,3,1,48,60,1690766392
59,17,18,Jits_Linear_8,0,5,56,103,1691439620
59,17,18,Jits_Linear_8,1,1,48,65,1691505744
59,17,18,Jits_Linear_8,2,5,80,127,1691560320
59,17,18,Jits_Linear_8,3,5,63,98,1691600168
59,17,18,Jits_Linear_8,0,5,56,103,1692190020
59,17,18,Jits_Linear_8,1,1,48,68,1692268688
59,17,18,Jits_Linear_8,2,5,80,127,1692270184
59,17,18,Jits_Linear_8,3,5,63,98,1692290496
59,17,18,Jits_Linear_8,0,5,56,103,1692920116
59,17,18,Jits_Linear_8,1,1,48,67,1692978832
59,17,18,Jits_Linear_8,2,5,63,98,1693029872
59,17,18,Jits_Linear_8,3,5,80,127,1693033088
59,17,18,Jits_Linear_8,0,5,56,103,1693679872
59,17,18,Jits_Linear_8,1,5,80,127,1693709548
59,17,18,Jits_Linear_8,2,1,48,75,1693720088
59,17,18,Jits_Linear_8,3,5,63,98,1693730152
59,17,18,Jits_Linear_8,0,5,63,98,1694389564
59,17,18,Jits_Linear_8,1,5,56,103,1694399832
59,17,18,Jits_Linear_8,2,5,80,127,1694409956
59,17,18,Jits_Linear_8,3,1,48,59,1694495644
59,17,18,Jits_Linear_8,0,5,80,127,1695100380
59,17,18,Jits_Linear_8,1,1,48,64,1695138948
59,17,18,Jits_Linear_8,2,5,56,103,1695149532
59,17,18,Jits_Linear_8,3,5,63,98,1695190516
59,17,18,Jits_Linear_8,0,5,80,127,1695839592
59,17,18,Jits_Linear_8,1,5,63,98,1695860052
59,17,18,Jits_Linear_8,2,1,48,71,1695865188
59,17,18,Jits_Linear_8,3,5,56,103,1695910396
59,17,18,Jits_Linear_8,0,5,80,127,1696569764
59,17,18,Jits_Linear_8,1,5,56,103,1696600484
59,17,18,Jits_Linear_8,2,1,48,60,1696624500
59,17,18,Jits_Linear_8,3,5,63,98,1696669936
59,17,18,Jits_Linear_8,0,1,48,60,1697316896
59,17,18,Jits_Linear_8,1,5,56,103,1697339708
59,17,18,Jits_Linear_8,2,5,80,127,1697349904
59,17,18,Jits_Linear_8,3,5,63,98,1697389844
59,17,18,Jits_Linear_8,0,5,56,103,1697969452
59,17,18,Jits_Linear_8,1,5,63,98,1697990136
59,17,18,Jits_Linear_8,2,1,48,54,1698050372
59,17,18,Jits_Linear_8,3,5,80,127,1698059612
59,17,18,Jits_Linear_8,0,5,63,98,1698709804
59,17,18,Jits_Linear_8,1,1,48,51,1698760732
59,17,18,Jits_Linear_8,2,5,80,127,1698770488
59,17,18,Jits_Linear_8,3,5,56,103,1698789628
59,17,18,Jits_Linear_8,0,5,80,127,1699410436
59,17,18,Jits_Linear_8,1,5,56,103,1699440040
59,17,18,Jits_Linear_8,2,5,63,98,1699469568
59,17,18,Jits_Linear_8,3,1,48,59,1699522052
59,17,18,Jits_Linear_8,0,5,56,103,1700119852
59,17,18,Jits_Linear_8,1,5,63,98,1700180392
59,17,18,Jits_Linear_8,2,1,48,54,1700204636
59,17,18,Jits_Linear_8,3,5,80,127,1700239652
59,17,18,Jits_Linear_8,0,5,80,127,1700850020
59,17,18,Jits_Linear_8,1,5,56,103,1700869432
59,17,18,Jits_Linear_8,2,1,48,62,1700910460
59,17,18,Jits_Linear_8,3,5,63,98,1700940152
59,17,18,Jits_Linear_8,0,5,80,127,1701559560
59,17,18,Jits_Linear_8,1,5,63,98,1701580316
59,17,18,Jits_Linear_8,2,5,56,103,1701609868
59,17,18,Jits_Linear_8,3,1,48,62,1701635532
59,17,18,Jits_Linear_8,0,5,80,127,1702249940
59,17,18,Jits_Linear_8,1,5,63,98,1702270476
59,17,18,Jits_Linear_8,2,5,56,103,1702329672
59,17,18,Jits_Linear_8,3,1,48,66,1702352192
59,17,18,Jits_Linear_8,0,5,80,127,1702950440
59,17,18,Jits_Linear_8,1,1,48,62,1703023456
59,17,18,Jits_Linear_8,2,5,56,103,1703049560
59,17,18,Jits_Linear_8,3,5,63,98,1703080508
59,17,18,Jits_Linear_8,0,5,63,98,1703640600
59,17,18,Jits_Linear_8,1,5,80,127,1703689536
59,17,18,Jits_Linear_8,2,5,56,103,1703709992
59,17,18,Jits_Linear_8,3,1,48,60,1703786524
59,17,18,Jits_Linear_8,0,5,80,127,1704379720
59,17,18,Jits_Linear_8,1,5,56,103,1704409420
59,17,18,Jits_Linear_8,2,5,63,98,1704412560
59,17,18,Jits_Linear_8,3,1,48,43,1704460712
59,17,18,Jits_Linear_8,0,5,63,98,1705109880
59,17,18,Jits_Linear_8,1,1,48,33,1705142216
59,17,18,Jits_Linear_8,2,5,56,103,1705149668
59,17,18,Jits_Linear_8,3,5,80,127,1705170424
59,17,18,Jits_Linear_8,0,5,80,127,1705749832
59,17,18,Jits_Linear_8,1,5,63,98,1705829780
59,17,18,Jits_Linear_8,2,1,48,55,1705858828
59,17,18,Jits_Linear_8,3,5,56,103,1705869788
59,17,18,Jits_Linear_8,0,5,63,98,1706459404
59,17,18,Jits_Linear_8,1,1,48,60,1706511672
59,17,18,Jits_Linear_8,2,5,80,127,1706540392
59,17,18,Jits_Linear_8,3,5,56,103,1706559804
59,17,18,Jits_Linear_8,0,5,56,103,1707189688
59,17,18,Jits_Linear_8,1,5,63,98,1707199884
59,17,18,Jits_Linear_8,2,1,48,53,1707207716
59,17,18,Jits_Linear_8,3,5,80,127,1707239840
59,17,18,Jits_Linear_8,0,5,56,103,1707799984
59,17,18,Jits_Linear_8,1,5,80,127,1707803272
59,17,18,Jits_Linear_8,2,1,48,48,1707918780
59,17,18,Jits_Linear_8,3,5,63,98,1707940228
59,17,18,Jits_Linear_8,0,5,56,103,1708479920
59,17,18,Jits_Linear_8,1,5,63,98,1708570008
59,17,18,Jits_Linear_8,2,1,48,58,1708580100
59,17,18,Jits_Linear_8,3,5,80,127,1708639608
59,17,18,Jits_Linear_8,0,5,63,98,1709239532
59,17,18,Jits_Linear_8,1,5,80,127,1709242828
59,17,18,Jits_Linear_8,2,1,48,57,1709245344
59,17,18,Jits_Linear_8,3,5,56,103,1709300020
59,17,18,Jits_Linear_8,0,5,80,127,1709959576
59,17,18,Jits_Linear_8,1,5,56,103,1709979888
59,17,18,Jits_Linear_8,2,5,63,98,1709990380
59,17,18,Jits_Linear_8,3,1,48,62,1710009392
59,17,18,Jits_Linear_8,0,5,56,103,1710550448
59,17,18,Jits_Linear_8,1,5,63,98,1710559548
59,17,18,Jits_Linear_8,2,5,80,127,1710630272
59,17,18,Jits_Linear_8,3,1,48,55,1710678128
59,17,18,Jits_Linear_8,0,5,80,127,1711230416
59,17,18,Jits_Linear_8,1,5,56,103,1711279424
59,17,18,Jits_Linear_8,2,5,63,98,1711329500
59,17,18,Jits_Linear_8,3,1,48,56,1711332992
59,17,18,Jits_Linear_8,0,5,56,103,1711990332
59,17,18,Jits_Linear_8,1,5,63,98,1712000456
59,17,18,Jits_Linear_8,2,1,48,54,1712006712
59,17,18,Jits_Linear_8,3,5,80,127,1712040384
59,17,18,Jits_Linear_8,0,5,56,103,1712609628
59,17,18,Jits_Linear_8,1,5,63,98,1712649568
59,17,18,Jits_Linear_8,2,5,80,127,1712699768
59,17,18,Jits_Linear_8,3,1,48,59,1712714716
59,17,18,Jits_Linear_8,0,5,80,127,1713240500
59,17,18,Jits_Linear_8,1,5,56,103,1713289508
59,17,18,Jits_Linear_8,2,5,63,98,1713310192
59,17,18,Jits_Linear_8,3,1,48,65,1713366568
59,17,18,Jits_Linear_8,0,5,80,127,1713920320
59,17,18,Jits_Linear_8,1,5,63,98,1713979744
59,17,18,Jits_Linear_8,2,1,48,65,1714004360
59,17,18,Jits_Linear_8,3,5,56,103,1714059604
59,17,18,Jits_Linear_8,0,5,80,127,1714569552
59,17,18,Jits_Linear_8,1,5,56,103,1714609416
59,17,18,Jits_Linear_8,2,5,63,98,1714630172
59,17,18,Jits_Linear_8,3,1,48,63,1714709588
59,17,18,Jits_Linear_8,0,1,48,65,1715283496
59,17,18,Jits_Linear_8,1,5,56,103,1715289448
59,17,18,Jits_Linear_8,2,5,80,127,1715299792
59,17,18,Jits_Linear_8,3,5,63,98,1715339580
59,17,18,Jits_Linear_8,0,1,48,52,1715940608
59,17,18,Jits_Linear_8,1,5,56,103,1716019528
59,17,18,Jits_Linear_8,2,5,63,98,1716059528
59,17,18,Jits_Linear_8,3,5,80,127,1716063036
59,17,18,Jits_Linear_8,0,5,63,98,1716569400
59,17,18,Jits_Linear_8,1,5,80,127,1716610388
59,17,18,Jits_Linear_8,2,1,48,57,1716677704
59,17,18,Jits_Linear_8,3,5,56,103,1716680284
59,17,18,Jits_Linear_8,0,5,63,98,1717219760
59,17,18,Jits_Linear_8,1,1,48,59,1717292408
59,17,18,Jits_Linear_8,2,5,56,103,1717299552
59,17,18,Jits_Linear_8,3,5,80,127,1717360164
59,17,18,Jits_Linear_8,0,5,80,127,1717890400
59,17,18,Jits_Linear_8,1,1,48,54,1717931432
59,17,18,Jits_Linear_8,2,5,63,98,1717939552
59,17,18,Jits_Linear_8,3,5,56,103,1717970276
59,17,18,Jits_Linear_8,0,5,56,103,1718539580
59,17,18,Jits_Linear_8,1,1,48,57,1718560156
59,17,18,Jits_Linear_8,2,5,63,98,1718589924
59,17,18,Jits_Linear_8,3,5,80,127,1718599972
59,17,18,Jits_Linear_8,0,1,48,61,1719120964
59,17,18,Jits_Linear_8,1,5,56,103,1719210296
59,17,18,Jits_Linear_8,2,5,63,98,1719319848
59,17,18,Jits_Linear_8,3,5,80,127,1719340380
59,17,18,Jits_Linear_8,0,5,63,98,1719859476
59,17,18,Jits_Linear_8,1,1,48,62,1719867768
59,17,18,Jits_Linear_8,2,5,80,127,1719909672
59,17,18,Jits_Linear_8,3,5,56,103,1720000088
59,17,18,Jits_Linear_8,0,5,63,98,1720499476
59,17,18,Jits_Linear_8,1,5,80,127,1720530272
59,17,18,Jits_Linear_8,2,1,48,64,1720605404
59,17,18,Jits_Linear_8,3,5,56,103,1720620348
59,17,18,Jits_Linear_8,0,5,63,98,1721149832
59,17,18,Jits_Linear_8,1,5,56,103,1721159956
59,17,18,Jits_Linear_8,2,5,80,127,1721260276
59,17,18,Jits_Linear_8,3,1,48,57,1721278908
59,17,18,Jits_Linear_8,0,5,63,98,1721900288
59,17,18,Jits_Linear_8,1,1,48,44,1721927148
59,17,18,Jits_Linear_8,2,5,80,127,1721930180
59,17,18,Jits_Linear_8,3,5,56,103,1721960008
59,17,18,Jits_Linear_8,0,5,80,127,1722570192
59,17,18,Jits_Linear_8,1,5,63,98,1722580240
59,17,18,Jits_Linear_8,2,1,48,57,1722604584
59,17,18,Jits_Linear_8,3,5,56,103,1722610156
59,17,18,Jits_Linear_8,0,5,80,127,1723109920
59,17,18,Jits_Linear_8,1,5,63,98,1723130304
59,17,18,Jits_Linear_8,2,5,56,103,1723180432
59,17,18,Jits_Linear_8,3,1,48,63,1723259072
59,17,18,Jits_Linear_8,0,5,63,98,1723779380
59,17,18,Jits_Linear_8,1,1,48,61,1723838256
59,17,18,Jits_Linear_8,2,5,80,127,1723839840
59,17,18,Jits_Linear_8,3,5,56,103,1723860300
59,17,18,Jits_Linear_8,0,5,63,98,1724379400
59,17,18,Jits_Linear_8,1,5,56,103,1724429976
59,17,18,Jits_Linear_8,2,5,80,127,1724440248
59,17,18,Jits_Linear_8,3,1,48,59,1724448468
59,17,18,Jits_Linear_8,0,5,56,103,1725050340
59,17,18,Jits_Linear_8,1,5,80,127,1725059344
59,17,18,Jits_Linear_8,2,1,48,52,1725063804
59,17,18,Jits_Linear_8,3,5,63,98,1725159828
59,17,18,Jits_Linear_8,0,5,80,127,1725640012
59,17,18,Jits_Linear_8,1,5,63,98,1725650360
59,17,18,Jits_Linear_8,2,1,48,57,1725737476
59,17,18,Jits_Linear_8,3,5,56,103,1725799768
59,17,18,Jits_Linear_8,0,5,63,98,1726290236
59,17,18,Jits_Linear_8,1,5,80,127,1726330104
59,17,18,Jits_Linear_8,2,1,48,54,1726397736
59,17,18,Jits_Linear_8,3,5,56,103,1726409964
59,17,18,Jits_Linear_8,0,5,56,103,1726920048
59,17,18,Jits_Linear_8,1,1,48,46,1726999768
59,17,18,Jits_Linear_8,2,5,80,127,1727020468
59,17,18,Jits_Linear_8,3,5,63,98,1727039952
59,17,18,Jits_Linear_8,0,1,48,54,1727617608
59,17,18,Jits_Linear_8,1,5,80,127,1727619420
59,17,18,Jits_Linear_8,2,5,56,103,1727629992
59,17,18,Jits_Linear_8,3,5,63,98,1727719912
59,17,18,Jits_Linear_8,0,5,56,103,1728259308
59,17,18,Jits_Linear_8,1,1,48,57,1728274560
59,17,18,Jits_Linear_8,2,5,63,98,1728279908
59,17,18,Jits_Linear_8,3,5,80,127,1728359928
59,17,18,Jits_Linear_8,0,5,63,98,1728850248
59,17,18,Jits_Linear_8,1,1,48,57,1728924016
59,17,18,Jits_Linear_8,2,5,56,103,1728940376
59,17,18,Jits_Linear_8,3,5,80,127,1728943444
59,17,18,Jits_Linear_8,0,1,48,61,1729496808
59,17,18,Jits_Linear_8,1,5,56,103,1729499468
59,17,18,Jits_Linear_8,2,5,80,127,1729560156
59,17,18,Jits_Linear_8,3,5,63,98,1729570280
59,17,18,Jits_Linear_8,0,5,80,127,1730170268
59,17,18,Jits_Linear_8,1,5,56,103,1730179416
59,17,18,Jits_Linear_8,2,5,63,98,1730182704
59,17,18,Jits_Linear_8,3,1,48,17,1730202840
59,17,18,Jits_Linear_8,4,1,48,31,1730207228
59,17,18,Jits_Linear_8,0,5,56,103,1730750012
59,17,18,Jits_Linear_8,1,5,80,127,1730759984
59,17,18,Jits_Linear_8,2,5,63,98,1730779420
59,17,18,Jits_Linear_8,3,1,48,65,1730832732
59,17,18,Jits_Linear_8,0,5,63,98,1731339776
59,17,18,Jits_Linear_8,1,1,48,65,1731391820
59,17,18,Jits_Linear_8,2,5,80,127,1731400012
59,17,18,Jits_Linear_8,3,5,56,103,1731450440
59,17,18,Jits_Linear_8,0,1,48,61,1732016972
59,17,18,Jits_Linear_8,1,5,63,98,1732040012
59,17,18,Jits_Linear_8,2,5,56,103,1732050432
59,17,18,Jits_Linear_8,3,5,80,127,1732099464
59,17,18,Jits_Linear_8,0,5,63,98,1732550108
59,17,18,Jits_Linear_8,1,5,80,127,1732569324
59,17,18,Jits_Linear_8,2,5,56,103,1732579964
59,17,18,Jits_Linear_8,3,1,48,70,1732664664
59,17,18,Jits_Linear_8,0,5,63,98,1733160232
59,17,18,Jits_Linear_8,1,5,80,127,1733163820
59,17,18,Jits_Linear_8,2,1,48,68,1733184924
59,17,18,Jits_Linear_8,3,5,56,103,1733200240
59,17,18,Jits_Linear_8,0,1,48,63,1733810604
59,17,18,Jits_Linear_8,1,5,63,98,1733840296
59,17,18,Jits_Linear_8,2,5,80,127,1733869996
59,17,18,Jits_Linear_8,3,5,56,103,1733880268
59,17,18,Jits_Linear_8,0,5,56,103,1734400392
59,17,18,Jits_Linear_8,1,5,80,127,1734429992
59,17,18,Jits_Linear_8,2,5,63,98,1734459968
59,17,18,Jits_Linear_8,3,1,48,64,1734469688
59,17,18,Jits_Linear_8,0,1,48,54,1735037512
59,17,18,Jits_Linear_8,1,5,63,98,1735099740
59,17,18,Jits_Linear_8,2,5,56,103,1735139912
59,17,18,Jits_Linear_8,3,5,80,127,1735143052
59,17,18,Jits_Linear_8,0,5,80,127,1735599492
59,17,18,Jits_Linear_8,1,5,56,103,1735680512
59,17,18,Jits_Linear_8,2,1,48,72,1735726556
59,17,18,Jits_Linear_8,3,5,63,98,1735729808
59,17,18,Jits_Linear_8,0,5,80,127,1736179976
59,17,18,Jits_Linear_8,1,5,56,103,1736199684
59,17,18,Jits_Linear_8,2,1,48,70,1736287152
59,17,18,Jits_Linear_8,3,5,63,98,1736289736
59,17,18,Jits_Linear_8,0,5,80,127,1736820064
59,17,18,Jits_Linear_8,1,1,48,65,1736851804
59,17,18,Jits_Linear_8,2,5,63,98,1736859996
59,17,18,Jits_Linear_8,3,5,56,103,1736900160
59,17,18,Jits_Linear_8,0,5,63,98,1737389428
59,17,18,Jits_Linear_8,1,5,80,127,1737449920
59,17,18,Jits_Linear_8,2,1,48,73,1737461580
59,17,18,Jits_Linear_8,3,5,56,103,1737479740
59,17,18,Jits_Linear_8,0,5,56,103,1737989596
59,17,18,Jits_Linear_8,1,5,80,127,1738020244
59,17,18,Jits_Linear_8,2,1,48,70,1738049740
59,17,18,Jits_Linear_8,3,5,63,98,1738110448
59,17,18,Jits_Linear_8,0,5,56,103,1738589752
59,17,18,Jits_Linear_8,1,5,80,127,1738700268
59,17,18,Jits_Linear_8,2,1,48,53,1738709612
59,17,18,Jits_Linear_8,3,5,63,98,1738729736
59,17,18,Jits_Linear_8,0,5,56,103,1739229656
59,17,18,Jits_Linear_8,1,1,48,56,1739250084
59,17,18,Jits_Linear_8,2,5,63,98,1739289968
59,17,18,Jits_Linear_8,3,5,80,127,1739319716
59,17,18,Jits_Linear_8,0,5,56,103,1739789588
59,17,18,Jits_Linear_8,1,5,63,98,1739860320
59,17,18,Jits_Linear_8,2,5,80,127,1739879812
59,17,18,Jits_Linear_8,3,1,48,66,1739900460
59,17,18,Jits_Linear_8,0,5,80,127,1740349744
59,17,18,Jits_Linear_8,1,5,63,98,1740370356
59,17,18,Jits_Linear_8,2,5,56,103,1740419584
59,17,18,Jits_Linear_8,3,1,48,67,1740458744
59,17,18,Jits_Linear_8,0,5,63,98,1740960164
59,17,18,Jits_Linear_8,1,5,80,127,1740970288
59,17,18,Jits_Linear_8,2,5,56,103,1741019764
59,17,18,Jits_Linear_8,3,1,48,61,1741047148
59,17,18,Jits_Linear_8,0,5,63,98,1741539652
59,17,18,Jits_Linear_8,1,1,48,63,1741592068
59,17,18,Jits_Linear_8,2,5,80,127,1741610300
59,17,18,Jits_Linear_8,3,5,56,103,1741629788
59,17,18,Jits_Linear_8,0,5,63,98,1742149984
59,17,18,Jits_Linear_8,1,5,80,127,1742153348
59,17,18,Jits_Linear_8,2,5,56,103,1742219888
59,17,18,Jits_Linear_8,3,1,48,53,1742227736
59,17,18,Jits_Linear_8,0,5,80,127,1742680588
59,17,18,Jits_Linear_8,1,5,56,103,1742699852
59,17,18,Jits_Linear_8,2,5,63,98,1742710272
59,17,18,Jits_Linear_8,3,1,48,56,1742807592
59,17,18,Jits_Linear_8,0,5,56,103,1743279768
59,17,18,Jits_Linear_8,1,1,48,70,1743280808
59,17,18,Jits_Linear_8,2,5,63,98,1743369696
59,17,18,Jits_Linear_8,3,5,80,127,1743372984
59,17,18,Jits_Linear_8,0,5,80,127,1743830568
59,17,18,Jits_Linear_8,1,5,56,103,1743839720
59,17,18,Jits_Linear_8,2,5,63,98,1743859956
59,17,18,Jits_Linear_8,3,1,48,52,1743903448
59,17,18,Jits_Linear_8,0,1,48,55,1744390308
59,17,18,Jits_Linear_8,1,5,63,98,1744399844
59,17,18,Jits_Linear_8,2,5,80,127,1744460168
59,17,18,Jits_Linear_8,3,5,56,103,1744470512
59,17,18,Jits_Linear_8,0,1,48,54,1744988728
59,17,18,Jits_Linear_8,1,5,63,98,1745039700
59,17,18,Jits_Linear_8,2,5,80,127,1745069524
59,17,18,Jits_Linear_8,3,5,56,103,1745110592
59,17,18,Jits_Linear_8,0,5,56,103,1745599772
59,17,18,Jits_Linear_8,1,5,80,127,1745610040
59,17,18,Jits_Linear_8,2,1,48,50,1745638136
59,17,18,Jits_Linear_8,3,5,63,98,1745649996
59,17,18,Jits_Linear_8,0,5,80,127,1746130400
59,17,18,Jits_Linear_8,1,5,56,103,1746210152
59,17,18,Jits_Linear_8,2,1,48,39,1746214316
59,17,18,Jits_Linear_8,3,5,63,98,1746220488
59,17,18,Jits_Linear_8,0,5,80,127,1746739504
59,17,18,Jits_Linear_8,1,1,48,60,1746793116
59,17,18,Jits_Linear_8,2,5,56,103,1746819520
59,17,18,Jits_Linear_8,3,5,63,98,1746829792
59,17,18,Jits_Linear_8,0,5,80,127,1747259728
59,17,18,Jits_Linear_8,1,5,56,103,1747310008
59,17,18,Jits_Linear_8,2,5,63,98,1747360284
59,17,18,Jits_Linear_8,3,1,48,51,1747364448
59,17,18,Jits_Linear_8,0,5,56,103,1747880564
59,17,18,Jits_Linear_8,1,5,63,98,1747883632
59,17,18,Jits_Linear_8,2,1,48,49,1747893724
59,17,18,Jits_Linear_8,3,5,80,127,1747929736
59,17,18,Jits_Linear_8,0,5,56,103,1748459848
59,17,18,Jits_Linear_8,1,1,48,49,1748482300
59,17,18,Jits_Linear_8,2,5,63,98,1748489520
59,17,18,Jits_Linear_8,3,5,80,127,1748499864
59,17,18,Jits_Linear_8,0,5,63,98,1748929772
59,17,18,Jits_Linear_8,1,5,56,103,1748999412
59,17,18,Jits_Linear_8,2,5,80,127,1749049684
59,17,18,Jits_Linear_8,3,1,48,48,1749060596
59,17,18,Jits_Linear_8,0,5,63,98,1749519760
59,17,18,Jits_Linear_8,1,5,56,103,1749529956
59,17,18,Jits_Linear_8,2,5,80,127,1749533020
59,17,18,Jits_Linear_8,3,1,48,52,1749579524
59,17,18,Jits_Linear_8,0,5,80,127,1750019572
59,17,18,Jits_Linear_8,1,1,48,56,1750065840
59,17,18,Jits_Linear_8,2,5,56,103,1750079812
59,17,18,Jits_Linear_8,3,5,63,98,1750170076
59,17,18,Jits_Linear_8,0,5,80,127,1750570504
59,17,18,Jits_Linear_8,1,5,56,103,1750669784
59,17,18,Jits_Linear_8,2,1,48,54,1750671344
59,17,18,Jits_Linear_8,3,5,63,98,1750709644
59,17,18,Jits_Linear_8,0,5,56,103,1751170448
59,17,18,Jits_Linear_8,1,5,63,98,1751189936
59,17,18,Jits_Linear_8,2,1,48,60,1751221972
59,17,18,Jits_Linear_8,3,5,80,127,1751229792
59,17,18,Jits_Linear_8,0,5,63,98,1751689472
59,17,18,Jits_Linear_8,1,5,56,103,1751710080
59,17,18,Jits_Linear_8,2,1,48,63,1751747652
59,17,18,Jits_Linear_8,3,5,80,127,1751810640
59,17,18,Jits_Linear_8,0,5,63,98,1752220300
59,17,18,Jits_Linear_8,1,1,48,56,1752298444
59,17,18,Jits_Linear_8,2,5,80,127,1752329636
59,17,18,Jits_Linear_8,3,5,56,103,1752360508
59,17,18,Jits_Linear_8,0,5,56,103,1752780144
59,17,18,Jits_Linear_8,1,5,63,98,1752809920
59,17,18,Jits_Linear_8,2,1,48,64,1752825544
59,17,18,Jits_Linear_8,3,5,80,127,1752859892
59,17,18,Jits_Linear_8,0,5,63,98,1753290024
59,17,18,Jits_Linear_8,1,5,56,103,1753319652
59,17,18,Jits_Linear_8,2,1,48,71,1753358440
59,17,18,Jits_Linear_8,3,5,80,127,1753369920
59,17,18,Jits_Linear_8,0,5,56,103,1753859624
59,17,18,Jits_Linear_8,1,1,48,69,1753870236
59,17,18,Jits_Linear_8,2,5,63,98,1753879780
59,17,18,Jits_Linear_8,3,5,80,127,1753959796
59,17,18,Jits_Linear_8,0,5,63,98,1754370548
59,17,18,Jits_Linear_8,1,5,56,103,1754429744
59,17,18,Jits_Linear_8,2,1,48,67,1754431156
59,17,18,Jits_Linear_8,3,5,80,127,1754459564
59,17,18,Jits_Linear_8,0,5,56,103,1754950092
59,17,18,Jits_Linear_8,1,1,48,51,1754958992
59,17,18,Jits_Linear_8,2,5,80,127,1755010552
59,17,18,Jits_Linear_8,3,5,63,98,1755050344
59,17,18,Jits_Linear_8,0,5,63,98,1755459904
59,17,18,Jits_Linear_8,1,1,48,50,1755494564
59,17,18,Jits_Linear_8,2,5,56,103,1755520364
59,17,18,Jits_Linear_8,3,5,80,127,1755589956
59,17,18,Jits_Linear_8,0,1,48,62,1756057240
59,17,18,Jits_Linear_8,1,5,56,103,1756070536
59,17,18,Jits_Linear_8,2,5,63,98,1756079536
59,17,18,Jits_Linear_8,3,5,80,127,1756082748
59,17,18,Jits_Linear_8,0,5,63,98,1756540396
59,17,18,Jits_Linear_8,1,5,56,103,1756599740
59,17,18,Jits_Linear_8,2,5,80,127,1756602808
59,17,18,Jits_Linear_8,3,1,48,57,1756626748
59,17,18,Jits_Linear_8,0,5,63,98,1757050404
59,17,18,Jits_Linear_8,1,5,80,127,1757079932
59,17,18,Jits_Linear_8,2,5,56,103,1757100464
59,17,18,Jits_Linear_8,3,1,48,65,1757155068
59,17,18,Jits_Linear_8,0,5,56,103,1757579672
59,17,18,Jits_Linear_8,1,5,63,98,1757629804
59,17,18,Jits_Linear_8,2,1,48,55,1757633820
59,17,18,Jits_Linear_8,3,5,80,127,1757709540
59,17,18,Jits_Linear_8,0,5,80,127,1758080492
59,17,18,Jits_Linear_8,1,5,63,98,1758120356
59,17,18,Jits_Linear_8,2,5,56,103,1758139696
59,17,18,Jits_Linear_8,3,1,48,55,1758194900
59,17,18,Jits_Linear_8,0,5,56,103,1758670160
59,17,18,Jits_Linear_8,1,5,80,127,1758680456
59,17,18,Jits_Linear_8,2,5,63,98,1758700016
59,17,18,Jits_Linear_8,3,1,48,76,1758711528
59,17,18,Jits_Linear_8,0,5,56,103,1759169776
59,17,18,Jits_Linear_8,1,5,63,98,1759220300
59,17,18,Jits_Linear_8,2,1,48,67,1759223048
59,17,18,Jits_Linear_8,3,5,80,127,1759249748
59,17,18,Jits_Linear_8,0,5,56,103,1759639876
59,17,18,Jits_Linear_8,1,5,63,98,1759650444
59,17,18,Jits_Linear_8,2,5,80,127,1759700572
59,17,18,Jits_Linear_8,3,1,48,77,1759746036
59,17,18,Jits_Linear_8,0,5,56,103,1760149828
59,17,18,Jits_Linear_8,1,5,80,127,1760152968
59,17,18,Jits_Linear_8,2,1,48,69,1760274032
59,17,18,Jits_Linear_8,3,5,63,98,1760309652
59,17,18,Jits_Linear_8,0,5,63,98,1760680304
59,17,18,Jits_Linear_8,1,5,56,103,1760750012
59,17,18,Jits_Linear_8,2,5,80,127,1760789876
59,17,18,Jits_Linear_8,3,1,48,56,1760801536
59,17,18,Jits_Linear_8,0,5,63,98,1761230404
59,17,18,Jits_Linear_8,1,5,56,103,1761320492
59,17,18,Jits_Linear_8,2,1,48,57,1761322452
59,17,18,Jits_Linear_8,3,5,80,127,1761324748
59,17,18,Jits_Linear_8,0,5,56,103,1761719672
59,17,18,Jits_Linear_8,1,5,63,98,1761809836
59,17,18,Jits_Linear_8,2,5,80,127,1761820180
59,17,18,Jits_Linear_8,3,1,48,52,1761832140
59,17,18,Jits_Linear_8,0,5,56,103,1762199964
59,17,18,Jits_Linear_8,1,5,63,98,1762250240
59,17,18,Jits_Linear_8,2,5,80,127,1762279720
59,17,18,Jits_Linear_8,3,1,48,47,1762375048
59,17,18,Jits_Linear_8,0,5,63,98,1762789812
59,17,18,Jits_Linear_8,1,5,80,127,1762800156
59,17,18,Jits_Linear_8,2,1,48,53,1762846348
59,17,18,Jits_Linear_8,3,5,56,103,1762860392
59,17,18,Jits_Linear_8,0,5,63,98,1763209676
59,17,18,Jits_Linear_8,1,5,80,127,1763270292
59,17,18,Jits_Linear_8,2,5,56,103,1763309956
59,17,18,Jits_Linear_8,3,1,48,49,1763367232
59,17,18,Jits_Linear_8,0,5,56,103,1763809624
59,17,18,Jits_Linear_8,1,5,80,127,1763830384
59,17,18,Jits_Linear_8,2,1,48,28,1763833056
59,17,18,Jits_Linear_8,3,5,63,98,1763849568
59,17,18,Jits_Linear_8,0,5,63,98,1764229508
59,17,18,Jits_Linear_8,1,5,56,103,1764250188
59,17,18,Jits_Linear_8,2,5,80,127,1764289828
59,17,18,Jits_Linear_8,3,1,48,47,1764312228
59,17,18,Jits_Linear_8,0,5,63,98,1764739372
59,17,18,Jits_Linear_8,1,5,80,127,1764770392
59,17,18,Jits_Linear_8,2,1,48,51,1764789952
59,17,18,Jits_Linear_8,3,5,56,103,1764791292
59,17,18,Jits_Linear_8,0,5,80,127,1765209452
59,17,18,Jits_Linear_8,1,5,56,103,1765259656
59,17,18,Jits_Linear_8,2,1,48,51,1765288180
59,17,18,Jits_Linear_8,3,5,63,98,1765320188
59,17,18,Jits_Linear_8,0,5,63,98,1765689812
59,17,18,Jits_Linear_8,1,1,48,54,1765807648
59,17,18,Jits_Linear_8,2,5,56,103,1765809388
59,17,18,Jits_Linear_8,3,5,80,127,1765840404
59,17,18,Jits_Linear_8,0,5,80,127,1766220432
59,17,18,Jits_Linear_8,1,5,63,98,1766239476
59,17,18,Jits_Linear_8,2,1,48,52,1766296448
59,17,18,Jits_Linear_8,3,5,56,103,1766310196
59,17,18,Jits_Linear_8,0,5,63,98,1766730168
59,17,18,Jits_Linear_8,1,5,56,103,1766740292
59,17,18,Jits_Linear_8,2,1,48,50,1766782812
59,17,18,Jits_Linear_8,3,5,80,127,1766820152
59,17,18,Jits_Linear_8,0,1,48,45,1767256108
59,17,18,Jits_Linear_8,1,5,56,103,1767280264
59,17,18,Jits_Linear_8,2,5,80,127,1767309724
59,17,18,Jits_Linear_8,3,5,63,98,1767320068
59,17,18,Jits_Linear_8,0,9999,9999,9999,1656867920
59,17,18,Jits_Linear_8,1,9999,9999,9999,1657687160
59,17,18,Jits_Linear_8,2,9999,9999,9999,1658507368
59,17,18,Jits_Linear_8,3,9999,9999,9999,1659327572
59,17,18,Jits_Linear_8,4,9999,9999,9999,1660147804
59,17,18,Jits_Linear_8,5,9999,9999,9999,1660957824
59,17,18,Jits_Linear_8,6,9999,9999,9999,1661767780
59,17,18,Jits_Linear_8,7,9999,9999,9999,1662577740
59,17,18,Jits_Linear_8,8,9999,9999,9999,1663387704
59,17,18,Jits_Linear_8,9,9999,9999,9999,1664197712
59,17,18,Jits_Linear_8,10,9999,9999,9999,1664997440
59,17,18,Jits_Linear_8,11,9999,9999,9999,1665797192
59,17,18,Jits_Linear_8,12,9999,9999,9999,1666598012
59,17,18,Jits_Linear_8,13,9999,9999,9999,1667397700
59,17,18,Jits_Linear_8,14,9999,9999,9999,1668197440
59,17,18,Jits_Linear_8,15,9999,9999,9999,1668987984
59,17,18,Jits_Linear_8,16,9999,9999,9999,1669777532
59,17,18,Jits_Linear_8,17,9999,9999,9999,1670568000
59,17,18,Jits_Linear_8,18,9999,9999,9999,1671357496
59,17,18,Jits_Linear_8,19,9999,9999,9999,1672148036
59,17,18,Jits_Linear_8,20,9999,9999,9999,1672927352
59,17,18,Jits_Linear_8,21,9999,9999,9999,1673707628
59,17,18,Jits_Linear_8,22,9999,9999,9999,1674487892
59,17,18,Jits_Linear_8,23,9999,9999,9999,1675267192
59,17,18,Jits_Linear_8,24,9999,9999,9999,1676047468
59,17,18,Jits_Linear_8,25,9999,9999,9999,1676817476
59,17,18,Jits_Linear_8,26,9999,9999,9999,1677587580
59,17,18,Jits_Linear_8,27,9999,9999,9999,1678357608
59,17,18,Jits_Linear_8,28,9999,9999,9999,1679127636
59,17,18,Jits_Linear_8,29,9999,9999,9999,1679897668
59,17,18,Jits_Linear_8,30,9999,9999,9999,1680657484
59,17,18,Jits_Linear_8,31,9999,9999,9999,1681417300
59,17,18,Jits_Linear_8,32,9999,9999,9999,1682177132
59,17,18,Jits_Linear_8,33,9999,9999,9999,1682937932
59,17,18,Jits_Linear_8,34,9999,9999,9999,1683697768
59,17,18,Jits_Linear_8,35,9999,9999,9999,1684447348
59,17,18,Jits_Linear_8,36,9999,9999,9999,1685197932
59,17,18,Jits_Linear_8,37,9999,9999,9999,1685947492
59,17,18,Jits_Linear_8,38,9999,9999,9999,1686698104
59,17,18,Jits_Linear_8,39,9999,9999,9999,1687447608
59,17,18,Jits_Linear_8,40,9999,9999,9999,1688187964
59,17,18,Jits_Linear_8,41,9999,9999,9999,1688927348
59,17,18,Jits_Linear_8,42,9999,9999,9999,1689667684
59,17,18,Jits_Linear_8,43,9999,9999,9999,1690408004
59,17,18,Jits_Linear_8,44,9999,9999,9999,1691147356
59,17,18,Jits_Linear_8,45,9999,9999,9999,1691877440
59,17,18,Jits_Linear_8,46,9999,9999,9999,1692607584
59,17,18,Jits_Linear_8,47,9999,9999,9999,1693337668
59,17,18,Jits_Linear_8,48,9999,9999,9999,1694067840
59,17,18,Jits_Linear_8,49,9999,9999,9999,1694797924
59,17,18,Jits_Linear_8,50,9999,9999,9999,1695517792
59,17,18,Jits_Linear_8,51,9999,9999,9999,1696237696
59,17,18,Jits_Linear_8,52,9999,9999,9999,1696957504
59,17,18,Jits_Linear_8,53,9999,9999,9999,1697677412
59,17,18,Jits_Linear_8,54,9999,9999,9999,1698397296
59,17,18,Jits_Linear_8,55,9999,9999,9999,1699107912
59,17,18,Jits_Linear_8,56,9999,9999,9999,1699817532
59,17,18,Jits_Linear_8,57,9999,9999,9999,1700527224
59,17,18,Jits_Linear_8,58,9999,9999,9999,1701237832
59,17,18,Jits_Linear_8,59,9999,9999,9999,1701947472
59,17,18,Jits_Linear_8,60,9999,9999,9999,1702647896
59,17,18,Jits_Linear_8,61,9999,9999,9999,1703347324
59,17,18,Jits_Linear_8,62,9999,9999,9999,1704047672
59,17,18,Jits_Linear_8,63,9999,9999,9999,1704747100
59,17,18,Jits_Linear_8,64,9999,9999,9999,1705447532
59,17,18,Jits_Linear_8,65,9999,9999,9999,1706137656
59,17,18,Jits_Linear_8,66,9999,9999,9999,1706827892
59,17,18,Jits_Linear_8,67,9999,9999,9999,1707518044
59,17,18,Jits_Linear_8,68,9999,9999,9999,1708207200
59,17,18,Jits_Linear_8,69,9999,9999,9999,1708897360
59,17,18,Jits_Linear_8,70,9999,9999,9999,1709577328
59,17,18,Jits_Linear_8,71,9999,9999,9999,1710257272
59,17,18,Jits_Linear_8,72,9999,9999,9999,1710937168
59,17,18,Jits_Linear_8,73,9999,9999,9999,1711617136
59,17,18,Jits_Linear_8,74,9999,9999,9999,1712298064
59,17,18,Jits_Linear_8,75,9999,9999,9999,1712967780
59,17,18,Jits_Linear_8,76,9999,9999,9999,1713637484
59,17,18,Jits_Linear_8,77,9999,9999,9999,1714307172
59,17,18,Jits_Linear_8,78,9999,9999,9999,1714977916
59,17,18,Jits_Linear_8,79,9999,9999,9999,1715647600
59,17,18,Jits_Linear_8,80,9999,9999,9999,1716308080
59,17,18,Jits_Linear_8,81,9999,9999,9999,1716967508
59,17,18,Jits_Linear_8,82,9999,9999,9999,1717627960
59,17,18,Jits_Linear_8,83,9999,9999,9999,1718287460
59,17,18,Jits_Linear_8,84,9999,9999,9999,1718947920
59,17,18,Jits_Linear_8,85,9999,9999,9999,1719597180
59,17,18,Jits_Linear_8,86,9999,9999,9999,1720247368
59,17,18,Jits_Linear_8,87,9999,9999,9999,1720897652
59,17,18,Jits_Linear_8,88,9999,9999,9999,1721547836
59,17,18,Jits_Linear_8,89,9999,9999,9999,1722198136
59,17,18,Jits_Linear_8,90,9999,9999,9999,1722838144
59,17,18,Jits_Linear_8,91,9999,9999,9999,1723478112
59,17,18,Jits_Linear_8,92,9999,9999,9999,1724118128
59,17,18,Jits_Linear_8,93,9999,9999,9999,1724758080
59,17,18,Jits_Linear_8,94,9999,9999,9999,1725398084
59,17,18,Jits_Linear_8,95,9999,9999,9999,1726038120
59,17,18,Jits_Linear_8,96,9999,9999,9999,1726678132
59,17,18,Jits_Linear_8,97,9999,9999,9999,1727318084
59,17,18,Jits_Linear_8,98,9999,9999,9999,1727958104
59,17,18,Jits_Linear_8,99,9999,9999,9999,1728598132
59,17,18,Jits_Linear_8,100,9999,9999,9999,1729227872
59,17,18,Jits_Linear_8,101,9999,9999,9999,1729847360
59,17,18,Jits_Linear_8,102,9999,9999,9999,1730467932
59,17,18,Jits_Linear_8,103,9999,9999,9999,1731087436
59,17,18,Jits_Linear_8,104,9999,9999,9999,1731707968
59,17,18,Jits_Linear_8,105,9999,9999,9999,1732317288
59,17,18,Jits_Linear_8,106,9999,9999,9999,1732927608
59,17,18,Jits_Linear_8,107,9999,9999,9999,1733537852
59,17,18,Jits_Linear_8,108,9999,9999,9999,1734147164
59,17,18,Jits_Linear_8,109,9999,9999,9999,1734757492
59,17,18,Jits_Linear_8,110,9999,9999,9999,1735357500
59,17,18,Jits_Linear_8,111,9999,9999,9999,1735957600
59,17,18,Jits_Linear_8,112,9999,9999,9999,1736557680
59,17,18,Jits_Linear_8,113,9999,9999,9999,1737157688
59,17,18,Jits_Linear_8,114,9999,9999,9999,1737757792
59,17,18,Jits_Linear_8,115,9999,9999,9999,1738347600
59,17,18,Jits_Linear_8,116,9999,9999,9999,1738937428
59,17,18,Jits_Linear_8,117,9999,9999,9999,1739527280
59,17,18,Jits_Linear_8,118,9999,9999,9999,1740118080
59,17,18,Jits_Linear_8,119,9999,9999,9999,1740717112
59,17,18,Jits_Linear_8,120,9999,9999,9999,1741297740
59,17,18,Jits_Linear_8,121,9999,9999,9999,1741877352
59,17,18,Jits_Linear_8,122,9999,9999,9999,1742457936
59,17,18,Jits_Linear_8,123,9999,9999,9999,1743037540
59,17,18,Jits_Linear_8,124,9999,9999,9999,1743617116
59,17,18,Jits_Linear_8,125,9999,9999,9999,1744187444
59,17,18,Jits_Linear_8,126,9999,9999,9999,1744757856
59,17,18,Jits_Linear_8,127,9999,9999,9999,1745327212
59,17,18,Jits_Linear_8,128,9999,9999,9999,1745897560
59,17,18,Jits_Linear_8,129,9999,9999,9999,1746467908
59,17,18,Jits_Linear_8,130,9999,9999,9999,1747028064
59,17,18,Jits_Linear_8,131,9999,9999,9999,1747587168
59,17,18,Jits_Linear_8,132,9999,9999,9999,1748147312
59,17,18,Jits_Linear_8,133,9999,9999,9999,1748707424
59,17,18,Jits_Linear_8,134,9999,9999,9999,1749267580
59,17,18,Jits_Linear_8,135,9999,9999,9999,1749817440
59,17,18,Jits_Linear_8,136,9999,9999,9999,1750367316
59,17,18,Jits_Linear_8,137,9999,9999,9999,1750917208
59,17,18,Jits_Linear_8,138,9999,9999,9999,1751467096
59,17,18,Jits_Linear_8,139,9999,9999,9999,1752018028
59,17,18,Jits_Linear_8,140,9999,9999,9999,1752557660
59,17,18,Jits_Linear_8,141,9999,9999,9999,1753097272
59,17,18,Jits_Linear_8,142,9999,9999,9999,1753638012
59,17,18,Jits_Linear_8,143,9999,9999,9999,1754177624
59,17,18,Jits_Linear_8,144,9999,9999,9999,1754717244
59,17,18,Jits_Linear_8,145,9999,9999,9999,1755247720
59,17,18,Jits_Linear_8,146,9999,9999,9999,1755777084
59,17,18,Jits_Linear_8,147,9999,9999,9999,1756307548
59,17,18,Jits_Linear_8,148,9999,9999,9999,1756838008
59,17,18,Jits_Linear_8,149,9999,9999,9999,1757367352
59,17,18,Jits_Linear_8,150,9999,9999,9999,1757887560
59,17,18,Jits_Linear_8,151,9999,9999,9999,1758407776
59,17,18,Jits_Linear_8,152,9999,9999,9999,1758928000
59,17,18,Jits_Linear_8,153,9999,9999,9999,1759447120
59,17,18,Jits_Linear_8,154,9999,9999,9999,1759967336
59,17,18,Jits_Linear_8,155,9999,9999,9999,1760477288
59,17,18,Jits_Linear_8,156,9999,9999,9999,1760987244
59,17,18,Jits_Linear_8,157,9999,9999,9999,1761497188
59,17,18,Jits_Linear_8,158,9999,9999,9999,1762007136
59,17,18,Jits_Linear_8,159,9999,9999,9999,1762518136
59,17,18,Jits_Linear_8,160,9999,9999,9999,1763028076
59,17,18,Jits_Linear_8,161,9999,9999,9999,1763527752
59,17,18,Jits_Linear_8,162,9999,9999,9999,1764027512
59,17,18,Jits_Linear_8,163,9999,9999,9999,1764527200
59,17,18,Jits_Linear_8,164,9999,9999,9999,1765027924
59,17,18,Jits_Linear_8,165,9999,9999,9999,1765517412
59,17,18,Jits_Linear_8,166,9999,9999,9999,1766007892
59,17,18,Jits_Linear_8,167,9999,9999,9999,1766497380
59,17,18,Jits_Linear_8,168,9999,9999,9999,1766987860
59,17,18,Jits_Linear_8,169,9999,9999,9999,1767477364
59,18,16,Jits_ISO_5,0,5,56,103,1776335172
59,18,16,Jits_ISO_5,1,5,63,98,1776338344
59,18,16,Jits_ISO_5,2,5,80,127,1776341568
59,18,16,Jits_ISO_5,0,5,56,103,1776834892
59,18,16,Jits_ISO_5,1,5,63,98,1776837992
59,18,16,Jits_ISO_5,2,5,80,127,1776841040
59,18,16,Jits_ISO_5,0,5,56,103,1777334780
59,18,16,Jits_ISO_5,1,5,80,127,1777345272
59,18,16,Jits_ISO_5,2,5,63,98,1777365532
59,18,16,Jits_ISO_5,0,5,63,98,1777785296
59,18,16,Jits_ISO_5,1,5,80,127,1777814972
59,18,16,Jits_ISO_5,2,5,56,103,1777825092
59,18,16,Jits_ISO_5,0,1,48,80,1778299068
59,18,16,Jits_ISO_5,1,5,80,127,1778345468
59,18,16,Jits_ISO_5,2,5,56,103,1778354472
59,18,16,Jits_ISO_5,3,5,63,98,1778385188
59,18,16,Jits_ISO_5,0,5,63,98,1778834948
59,18,16,Jits_ISO_5,1,5,56,103,1778864476
59,18,16,Jits_ISO_5,2,1,48,86,1778868940
59,18,16,Jits_ISO_5,3,5,80,127,1778874888
59,18,16,Jits_ISO_5,0,5,56,103,1779285240
59,18,16,Jits_ISO_5,1,5,63,98,1779334544
59,18,16,Jits_ISO_5,2,5,80,127,1779355076
59,18,16,Jits_ISO_5,3,1,48,55,1779380296
59,18,16,Jits_ISO_5,0,5,80,127,1779785064
59,18,16,Jits_ISO_5,1,5,63,98,1779835336
59,18,16,Jits_ISO_5,2,1,48,70,1779865656
59,18,16,Jits_ISO_5,3,5,56,103,1779875044
59,18,16,Jits_ISO_5,0,5,56,103,1780285032
59,18,16,Jits_ISO_5,1,5,63,98,1780314412
59,18,16,Jits_ISO_5,2,1,48,62,1780353568
59,18,16,Jits_ISO_5,3,5,80,127,1780385128
59,18,16,Jits_ISO_5,0,5,56,103,1780784560
59,18,16,Jits_ISO_5,1,1,48,70,1780841912
59,18,16,Jits_ISO_5,2,5,80,127,1780844944
59,18,16,Jits_ISO_5,3,5,63,98,1780874544
59,18,16,Jits_ISO_5,0,5,56,103,1781294424
59,18,16,Jits_ISO_5,1,1,48,73,1781303108
59,18,16,Jits_ISO_5,2,5,63,98,1781304616
59,18,16,Jits_ISO_5,3,5,80,127,1781344548
59,18,16,Jits_ISO_5,0,5,63,98,1781784876
59,18,16,Jits_ISO_5,1,1,48,56,1781835348
59,18,16,Jits_ISO_5,2,5,80,127,1781865036
59,18,16,Jits_ISO_5,3,5,56,103,1781875008
59,18,16,Jits_ISO_5,0,1,48,65,1782314920
59,18,16,Jits_ISO_5,1,5,63,98,1782334952
59,18,16,Jits_ISO_5,2,5,56,103,1782374888
59,18,16,Jits_ISO_5,3,5,80,127,1782378104
59,18,16,Jits_ISO_5,0,5,56,103,1782794828
59,18,16,Jits_ISO_5,1,5,63,98,1782805024
59,18,16,Jits_ISO_5,2,1,48,65,1782839680
59,18,16,Jits_ISO_5,3,5,80,127,1782844880
59,18,16,Jits_ISO_5,0,5,56,103,1783295392
59,18,16,Jits_ISO_5,1,5,63,98,1783298536
59,18,16,Jits_ISO_5,2,5,80,127,1783314880
59,18,16,Jits_ISO_5,3,1,48,58,1783338748
59,18,16,Jits_ISO_5,0,5,80,127,1783805244
59,18,16,Jits_ISO_5,1,5,56,103,1783814468
59,18,16,Jits_ISO_5,2,1,48,59,1783821776
59,18,16,Jits_ISO_5,3,5,63,98,1783885108
59,18,16,Jits_ISO_5,0,5,63,98,1784295024
59,18,16,Jits_ISO_5,1,5,56,103,1784315184
59,18,16,Jits_ISO_5,2,1,48,57,1784339128
59,18,16,Jits_ISO_5,3,5,80,127,1784394968
59,18,16,Jits_ISO_5,0,5,56,103,1784804872
59,18,16,Jits_ISO_5,1,1,48,57,1784823356
59,18,16,Jits_ISO_5,2,5,80,127,1784844804
59,18,16,Jits_ISO_5,3,5,63,98,1784855000
59,18,16,Jits_ISO_5,0,5,80,127,1785295080
59,18,16,Jits_ISO_5,1,1,48,62,1785324400
59,18,16,Jits_ISO_5,2,5,63,98,1785325896
59,18,16,Jits_ISO_5,3,5,56,103,1785365004
59,18,16,Jits_ISO_5,0,1,48,67,1785799880
59,18,16,Jits_ISO_5,1,5,56,103,1785815368
59,18,16,Jits_ISO_5,2,5,63,98,1785844968
59,18,16,Jits_ISO_5,3,5,80,127,1785895976
59,18,16,Jits_ISO_5,0,5,80,127,1786315160
59,18,16,Jits_ISO_5,1,1,48,77,1786346704
59,18,16,Jits_ISO_5,2,5,56,103,1786354968
59,18,16,Jits_ISO_5,3,5,63,98,1786365236
59,18,16,Jits_ISO_5,0,5,80,127,1786795504
59,18,16,Jits_ISO_5,1,1,48,61,1786834840
59,18,16,Jits_ISO_5,2,5,63,98,1786836508
59,18,16,Jits_ISO_5,3,5,56,103,1786894800
59,18,16,Jits_ISO_5,0,5,56,103,1787295104
59,18,16,Jits_ISO_5,1,5,80,127,1787305524
59,18,16,Jits_ISO_5,2,1,48,65,1787359156
59,18,16,Jits_ISO_5,3,5,63,98,1787385184
59,18,16,Jits_ISO_5,0,5,80,127,1787794924
59,18,16,Jits_ISO_5,1,1,48,60,1787832516
59,18,16,Jits_ISO_5,2,5,63,98,1787855308
59,18,16,Jits_ISO_5,3,5,56,103,1787884780
59,18,16,Jits_ISO_5,0,5,56,103,1788294596
59,18,16,Jits_ISO_5,1,1,48,71,1788341984
59,18,16,Jits_ISO_5,2,5,80,127,1788354904
59,18,16,Jits_ISO_5,3,5,63,98,1788394868
59,18,16,Jits_ISO_5,0,5,56,103,1788845516
59,18,16,Jits_ISO_5,1,5,63,98,1788854736
59,18,16,Jits_ISO_5,2,5,80,127,1788858028
59,18,16,Jits_ISO_5,3,1,48,68,1788862588
59,18,16,Jits_ISO_5,0,5,80,127,1789295060
59,18,16,Jits_ISO_5,1,1,48,58,1789371448
59,18,16,Jits_ISO_5,2,5,63,98,1789385184
59,18,16,Jits_ISO_5,3,5,56,103,1789395308
59,18,16,Jits_ISO_5,0,5,56,103,1789794772
59,18,16,Jits_ISO_5,1,5,63,98,1789797872
59,18,16,Jits_ISO_5,2,5,80,127,1789800840
59,18,16,Jits_ISO_5,3,1,48,69,1789863752
59,18,16,Jits_ISO_5,0,5,80,127,1790314812
59,18,16,Jits_ISO_5,1,1,48,64,1790350816
59,18,16,Jits_ISO_5,2,5,63,98,1790365080
59,18,16,Jits_ISO_5,3,5,56,103,1790394604
59,18,16,Jits_ISO_5,0,5,56,103,1790795008
59,18,16,Jits_ISO_5,1,5,80,127,1790805576
59,18,16,Jits_ISO_5,2,1,48,59,1790861952
59,18,16,Jits_ISO_5,3,5,63,98,1790875024
59,18,16,Jits_ISO_5,0,5,56,103,1791305092
59,18,16,Jits_ISO_5,1,5,63,98,1791324652
59,18,16,Jits_ISO_5,2,1,48,65,1791376840
59,18,16,Jits_ISO_5,3,5,80,127,1791385032
59,18,16,Jits_ISO_5,0,5,80,127,1791794576
59,18,16,Jits_ISO_5,1,1,48,71,1791829904
59,18,16,Jits_ISO_5,2,5,63,98,1791865148
59,18,16,Jits_ISO_5,3,5,56,103,1791884784
59,18,16,Jits_ISO_5,0,5,80,127,1792314856
59,18,16,Jits_ISO_5,1,5,56,103,1792325124
59,18,16,Jits_ISO_5,2,5,63,98,1792335172
59,18,16,Jits_ISO_5,3,1,48,62,1792363016
59,18,16,Jits_ISO_5,0,5,80,127,1792805232
59,18,16,Jits_ISO_5,1,5,56,103,1792824796
59,18,16,Jits_ISO_5,2,1,48,64,1792837656
59,18,16,Jits_ISO_5,3,5,63,98,1792895212
59,18,16,Jits_ISO_5,0,5,56,103,1793315168
59,18,16,Jits_ISO_5,1,5,80,127,1793344992
59,18,16,Jits_ISO_5,2,1,48,56,1793360616
59,18,16,Jits_ISO_5,3,5,63,98,1793365296
59,18,16,Jits_ISO_5,0,5,63,98,1793804800
59,18,16,Jits_ISO_5,1,1,48,58,1793827928
59,18,16,Jits_ISO_5,2,5,56,103,1793865108
59,18,16,Jits_ISO_5,3,5,80,127,1793894708
59,18,16,Jits_ISO_5,0,5,63,98,1794295092
59,18,16,Jits_ISO_5,1,5,80,127,1794298608
59,18,16,Jits_ISO_5,2,1,48,65,1794334924
59,18,16,Jits_ISO_5,3,5,56,103,1794385360
59,18,16,Jits_ISO_5,0,5,56,103,1794815488
59,18,16,Jits_ISO_5,1,1,48,63,1794839284
59,18,16,Jits_ISO_5,2,5,63,98,1794845160
59,18,16,Jits_ISO_5,3,5,80,127,1794885096
59,18,16,Jits_ISO_5,0,5,63,98,1795315016
59,18,16,Jits_ISO_5,1,1,48,63,1795344212
59,18,16,Jits_ISO_5,2,5,56,103,1795354876
59,18,16,Jits_ISO_5,3,5,80,127,1795374808
59,18,16,Jits_ISO_5,0,1,48,61,1795819360
59,18,16,Jits_ISO_5,1,5,63,98,1795824860
59,18,16,Jits_ISO_5,2,5,56,103,1795864872
59,18,16,Jits_ISO_5,3,5,80,127,1795875292
59,18,16,Jits_ISO_5,0,5,80,127,1796305392
59,18,16,Jits_ISO_5,1,1,48,63,1796306960
59,18,16,Jits_ISO_5,2,5,63,98,1796374844
59,18,16,Jits_ISO_5,3,5,56,103,1796395528
59,18,16,Jits_ISO_5,0,5,56,103,1796794708
59,18,16,Jits_ISO_5,1,5,80,127,1796815164
59,18,16,Jits_ISO_5,2,1,48,63,1796824160
59,18,16,Jits_ISO_5,3,5,63,98,1796855044
59,18,16,Jits_ISO_5,0,5,63,98,1797304640
59,18,16,Jits_ISO_5,1,5,80,127,1797325024
59,18,16,Jits_ISO_5,2,1,48,56,1797346900
59,18,16,Jits_ISO_5,3,5,56,103,1797365056
59,18,16,Jits_ISO_5,0,5,63,98,1797805640
59,18,16,Jits_ISO_5,1,1,48,55,1797815736
59,18,16,Jits_ISO_5,2,5,56,103,1797824748
59,18,16,Jits_ISO_5,3,5,80,127,1797835020
59,18,16,Jits_ISO_5,0,5,80,127,1798305068
59,18,16,Jits_ISO_5,1,5,56,103,1798324704
59,18,16,Jits_ISO_5,2,1,48,57,1798343188
59,18,16,Jits_ISO_5,3,5,63,98,1798355516
59,18,16,Jits_ISO_5,0,1,48,58,1798842304
59,18,16,Jits_ISO_5,1,5,56,103,1798874656
59,18,16,Jits_ISO_5,2,5,80,127,1798877724
59,18,16,Jits_ISO_5,3,5,63,98,1798894816
59,18,16,Jits_ISO_5,0,5,63,98,1799295552
59,18,16,Jits_ISO_5,1,5,56,103,1799325076
59,18,16,Jits_ISO_5,2,1,48,62,1799369848
59,18,16,Jits_ISO_5,3,5,80,127,1799384660
59,18,16,Jits_ISO_5,0,1,48,59,1799854672
59,18,16,Jits_ISO_5,1,5,63,98,1799874920
59,18,16,Jits_ISO_5,2,5,56,103,1799885116
59,18,16,Jits_ISO_5,3,5,80,127,1799895488
59,18,16,Jits_ISO_5,0,5,56,103,1800324620
59,18,16,Jits_ISO_5,1,5,80,127,1800355048
59,18,16,Jits_ISO_5,2,5,63,98,1800365392
59,18,16,Jits_ISO_5,3,1,48,57,1800383200
59,18,16,Jits_ISO_5,0,1,48,54,1800865276
59,18,16,Jits_ISO_5,1,5,63,98,1800866612
59,18,16,Jits_ISO_5,2,5,56,103,1800875464
59,18,16,Jits_ISO_5,3,5,80,127,1800894800
59,18,16,Jits_ISO_5,0,5,56,103,1801295412
59,18,16,Jits_ISO_5,1,5,63,98,1801354532
59,18,16,Jits_ISO_5,2,5,80,127,1801357824
59,18,16,Jits_ISO_5,3,1,48,58,1801373912
59,18,16,Jits_ISO_5,0,5,80,127,1801815380
59,18,16,Jits_ISO_5,1,5,56,103,1801824604
59,18,16,Jits_ISO_5,2,1,48,55,1801847876
59,18,16,Jits_ISO_5,3,5,63,98,1801895392
59,18,16,Jits_ISO_5,0,5,80,127,1802304940
59,18,16,Jits_ISO_5,1,1,48,38,1802363428
59,18,16,Jits_ISO_5,2,5,56,103,1802374464
59,18,16,Jits_ISO_5,3,5,63,98,1802384880
59,18,16,Jits_ISO_5,0,5,63,98,1802844468
59,18,16,Jits_ISO_5,1,5,56,103,1802854816
59,18,16,Jits_ISO_5,2,1,48,55,1802870664
59,18,16,Jits_ISO_5,3,5,80,127,1802875192
59,18,16,Jits_ISO_5,0,5,80,127,1803294956
59,18,16,Jits_ISO_5,1,1,48,67,1803346176
59,18,16,Jits_ISO_5,2,5,63,98,1803354440
59,18,16,Jits_ISO_5,3,5,56,103,1803394672
59,18,16,Jits_ISO_5,0,5,56,103,1803834708
59,18,16,Jits_ISO_5,1,5,63,98,1803845128
59,18,16,Jits_ISO_5,2,1,48,64,1803855516
59,18,16,Jits_ISO_5,3,5,80,127,1803885056
59,18,16,Jits_ISO_5,0,5,56,103,1804294452
59,18,16,Jits_ISO_5,1,5,80,127,1804325472
59,18,16,Jits_ISO_5,2,1,48,68,1804336836
59,18,16,Jits_ISO_5,3,5,63,98,1804375592
59,18,16,Jits_ISO_5,0,5,56,103,1804835252
59,18,16,Jits_ISO_5,1,1,48,58,1804847664
59,18,16,Jits_ISO_5,2,5,63,98,1804875256
59,18,16,Jits_ISO_5,3,5,80,127,1804878696
59,18,16,Jits_ISO_5,0,1,48,55,1805333564
59,18,16,Jits_ISO_5,1,5,56,103,1805335060
59,18,16,Jits_ISO_5,2,5,63,98,1805345256
59,18,16,Jits_ISO_5,3,5,80,127,1805364444
59,18,16,Jits_ISO_5,0,5,56,103,1805794640
59,18,16,Jits_ISO_5,1,5,80,127,1805797712
59,18,16,Jits_ISO_5,2,5,63,98,1805834576
59,18,16,Jits_ISO_5,3,1,48,37,1805855600
59,18,16,Jits_ISO_5,0,5,63,98,1806335280
59,18,16,Jits_ISO_5,1,1,48,59,1806359972
59,18,16,Jits_ISO_5,2,5,56,103,1806365024
59,18,16,Jits_ISO_5,3,5,80,127,1806384436
59,18,16,Jits_ISO_5,0,5,80,127,1806805644
59,18,16,Jits_ISO_5,1,5,56,103,1806814572
59,18,16,Jits_ISO_5,2,5,63,98,1806824992
59,18,16,Jits_ISO_5,3,1,48,54,1806875684
59,18,16,Jits_ISO_5,0,5,56,103,1807304992
59,18,16,Jits_ISO_5,1,1,48,56,1807326644
59,18,16,Jits_ISO_5,2,5,80,127,1807344872
59,18,16,Jits_ISO_5,3,5,63,98,1807374696
59,18,16,Jits_ISO_5,0,1,48,58,1807814324
59,18,16,Jits_ISO_5,1,5,63,98,1807815744
59,18,16,Jits_ISO_5,2,5,80,127,1807825340
59,18,16,Jits_ISO_5,3,5,56,103,1807834512
59,18,16,Jits_ISO_5,0,5,56,103,1808295476
59,18,16,Jits_ISO_5,1,1,48,63,1808327068
59,18,16,Jits_ISO_5,2,5,63,98,1808364876
59,18,16,Jits_ISO_5,3,5,80,127,1808375220
59,18,16,Jits_ISO_5,0,5,80,127,1808794928
59,18,16,Jits_ISO_5,1,5,56,103,1808805492
59,18,16,Jits_ISO_5,2,1,48,70,1808849888
59,18,16,Jits_ISO_5,3,5,63,98,1808855636
59,18,16,Jits_ISO_5,0,5,80,127,1809304932
59,18,16,Jits_ISO_5,1,1,48,64,1809329328
59,18,16,Jits_ISO_5,2,5,56,103,1809365564
59,18,16,Jits_ISO_5,3,5,63,98,1809395160
59,18,16,Jits_ISO_5,0,5,56,103,1809804752
59,18,16,Jits_ISO_5,1,5,80,127,1809807744
59,18,16,Jits_ISO_5,2,5,63,98,1809844688
59,18,16,Jits_ISO_5,3,1,48,62,1809862332
59,18,16,Jits_ISO_5,0,1,48,62,1810334680
59,18,16,Jits_ISO_5,1,5,56,103,1810336248
59,18,16,Jits_ISO_5,2,5,63,98,1810364724
59,18,16,Jits_ISO_5,3,5,80,127,1810375216
59,18,16,Jits_ISO_5,0,5,63,98,1810844980
59,18,16,Jits_ISO_5,1,5,80,127,1810855476
59,18,16,Jits_ISO_5,2,5,56,103,1810864476
59,18,16,Jits_ISO_5,3,1,48,64,1810867448
59,18,16,Jits_ISO_5,0,5,80,127,1811294516
59,18,16,Jits_ISO_5,1,1,48,60,1811342128
59,18,16,Jits_ISO_5,2,5,56,103,1811344708
59,18,16,Jits_ISO_5,3,5,63,98,1811347776
59,18,16,Jits_ISO_5,0,5,56,103,1811825116
59,18,16,Jits_ISO_5,1,1,48,65,1811843252
59,18,16,Jits_ISO_5,2,5,80,127,1811844748
59,18,16,Jits_ISO_5,3,5,63,98,1811854644
59,18,16,Jits_ISO_5,0,5,63,98,1812305536
59,18,16,Jits_ISO_5,1,5,56,103,1812334840
59,18,16,Jits_ISO_5,2,1,48,57,1812340352
59,18,16,Jits_ISO_5,3,5,80,127,1812354540
59,18,16,Jits_ISO_5,0,5,56,103,1812815456
59,18,16,Jits_ISO_5,1,1,48,63,1812823556
59,18,16,Jits_ISO_5,2,5,80,127,1812825204
59,18,16,Jits_ISO_5,3,5,63,98,1812895100
59,18,16,Jits_ISO_5,0,5,63,98,1813304644
59,18,16,Jits_ISO_5,1,1,48,46,1813316756
59,18,16,Jits_ISO_5,2,5,80,127,1813344648
59,18,16,Jits_ISO_5,3,5,56,103,1813384512
59,18,16,Jits_ISO_5,0,5,56,103,1813814492
59,18,16,Jits_ISO_5,1,1,48,55,1813822392
59,18,16,Jits_ISO_5,2,5,63,98,1813824904
59,18,16,Jits_ISO_5,3,5,80,127,1813845284
59,18,16,Jits_ISO_5,0,1,48,52,1814323644
59,18,16,Jits_ISO_5,1,5,63,98,1814355356
59,18,16,Jits_ISO_5,2,5,80,127,1814374692
59,18,16,Jits_ISO_5,3,5,56,103,1814395152
59,18,16,Jits_ISO_5,0,5,56,103,1814794640
59,18,16,Jits_ISO_5,1,1,48,63,1814855976
59,18,16,Jits_ISO_5,2,5,80,127,1814874428
59,18,16,Jits_ISO_5,3,5,63,98,1814884700
59,18,16,Jits_ISO_5,0,5,80,127,1815335368
59,18,16,Jits_ISO_5,1,5,63,98,1815344444
59,18,16,Jits_ISO_5,2,1,48,60,1815350104
59,18,16,Jits_ISO_5,3,5,56,103,1815375456
59,18,16,Jits_ISO_5,0,5,63,98,1815795264
59,18,16,Jits_ISO_5,1,5,80,127,1815835128
59,18,16,Jits_ISO_5,2,1,48,63,1815845740
59,18,16,Jits_ISO_5,3,5,56,103,1815895284
59,18,16,Jits_ISO_5,0,5,63,98,1816305260
59,18,16,Jits_ISO_5,1,5,56,103,1816355164
59,18,16,Jits_ISO_5,2,1,48,67,1816364580
59,18,16,Jits_ISO_5,3,5,80,127,1816384756
59,18,16,Jits_ISO_5,0,5,80,127,1816814884
59,18,16,Jits_ISO_5,1,5,63,98,1816825156
59,18,16,Jits_ISO_5,2,1,48,68,1816836068
59,18,16,Jits_ISO_5,3,5,56,103,1816894824
59,18,16,Jits_ISO_5,0,1,48,68,1817354388
59,18,16,Jits_ISO_5,1,5,80,127,1817385276
59,18,16,Jits_ISO_5,2,5,56,103,1817394496
59,18,16,Jits_ISO_5,3,5,63,98,1817397640
59,18,16,Jits_ISO_5,0,5,56,103,1817824628
59,18,16,Jits_ISO_5,1,5,80,127,1817845384
59,18,16,Jits_ISO_5,2,1,48,66,1817855132
59,18,16,Jits_ISO_5,3,5,63,98,1817856544
59,18,16,Jits_ISO_5,0,5,63,98,1818334564
59,18,16,Jits_ISO_5,1,5,56,103,1818374428
59,18,16,Jits_ISO_5,2,1,48,48,1818394660
59,18,16,Jits_ISO_5,3,5,80,127,1818396224
59,18,16,Jits_ISO_5,0,5,63,98,1818835272
59,18,16,Jits_ISO_5,1,1,48,60,1818880272
59,18,16,Jits_ISO_5,2,5,56,103,1818894604
59,18,16,Jits_ISO_5,3,5,80,127,1818897676
59,18,16,Jits_ISO_5,0,5,56,103,1819295120
59,18,16,Jits_ISO_5,1,5,80,127,1819314532
59,18,16,Jits_ISO_5,2,5,63,98,1819354344
59,18,16,Jits_ISO_5,3,1,48,49,1819386228
59,18,16,Jits_ISO_5,0,5,56,103,1819824600
59,18,16,Jits_ISO_5,1,5,63,98,1819845056
59,18,16,Jits_ISO_5,2,5,80,127,1819855104
59,18,16,Jits_ISO_5,3,1,48,73,1819907764
59,18,16,Jits_ISO_5,0,5,80,127,1820294604
59,18,16,Jits_ISO_5,1,5,56,103,1820325176
59,18,16,Jits_ISO_5,2,5,63,98,1820365036
59,18,16,Jits_ISO_5,3,1,48,50,1820372368
59,18,16,Jits_ISO_5,0,5,80,127,1820804464
59,18,16,Jits_ISO_5,1,5,56,103,1820825144
59,18,16,Jits_ISO_5,2,5,63,98,1820885332
59,18,16,Jits_ISO_5,3,1,48,57,1820892112
59,18,16,Jits_ISO_5,0,5,56,103,1821314472
59,18,16,Jits_ISO_5,1,5,80,127,1821334856
59,18,16,Jits_ISO_5,2,1,48,62,1821374460
59,18,16,Jits_ISO_5,3,5,63,98,1821395188
59,18,16,Jits_ISO_5,0,5,80,127,1821794592
59,18,16,Jits_ISO_5,1,5,56,103,1821804860
59,18,16,Jits_ISO_5,2,5,63,98,1821844944
59,18,16,Jits_ISO_5,3,1,48,57,1821916708
59,18,16,Jits_ISO_5,0,5,63,98,1822295460
59,18,16,Jits_ISO_5,1,5,56,103,1822335320
59,18,16,Jits_ISO_5,2,5,80,127,1822338460
59,18,16,Jits_ISO_5,3,1,48,53,1822405184
59,18,16,Jits_ISO_5,0,5,63,98,1822814508
59,18,16,Jits_ISO_5,1,5,80,127,1822854448
59,18,16,Jits_ISO_5,2,1,48,64,1822872316
59,18,16,Jits_ISO_5,3,5,56,103,1822885312
59,18,16,Jits_ISO_5,0,5,56,103,1823305100
59,18,16,Jits_ISO_5,1,5,63,98,1823315444
59,18,16,Jits_ISO_5,2,5,80,127,1823345048
59,18,16,Jits_ISO_5,3,1,48,61,1823368544
59,18,16,Jits_ISO_5,0,5,80,127,1823794584
59,18,16,Jits_ISO_5,1,5,63,98,1823865164
59,18,16,Jits_ISO_5,2,5,56,103,1823874312
59,18,16,Jits_ISO_5,3,1,48,52,1823877284
59,18,16,Jits_ISO_5,0,5,63,98,1824295232
59,18,16,Jits_ISO_5,1,5,56,103,1824364984
59,18,16,Jits_ISO_5,2,5,80,127,1824375032
59,18,16,Jits_ISO_5,3,1,48,52,1824388192
59,18,16,Jits_ISO_5,0,5,63,98,1824794964
59,18,16,Jits_ISO_5,1,5,56,103,1824814452
59,18,16,Jits_ISO_5,2,5,80,127,1824855512
59,18,16,Jits_ISO_5,3,1,48,51,1824858104
59,18,16,Jits_ISO_5,0,5,56,103,1825305032
59,18,16,Jits_ISO_5,1,5,63,98,1825315304
59,18,16,Jits_ISO_5,2,1,48,41,1825365844
59,18,16,Jits_ISO_5,3,5,80,127,1825395312
59,18,16,Jits_ISO_5,0,5,63,98,1825794440
59,18,16,Jits_ISO_5,1,5,56,103,1825825088
59,18,16,Jits_ISO_5,2,1,48,59,1825862580
59,18,16,Jits_ISO_5,3,5,80,127,1825865092
59,18,16,Jits_ISO_5,0,5,56,103,1826295144
59,18,16,Jits_ISO_5,1,1,48,53,1826324116
59,18,16,Jits_ISO_5,2,5,63,98,1826335148
59,18,16,Jits_ISO_5,3,5,80,127,1826375012
59,18,16,Jits_ISO_5,0,5,80,127,1826795040
59,18,16,Jits_ISO_5,1,1,48,54,1826854504
59,18,16,Jits_ISO_5,2,5,56,103,1826874828
59,18,16,Jits_ISO_5,3,5,63,98,1826885396
59,18,16,Jits_ISO_5,0,5,56,103,1827334496
59,18,16,Jits_ISO_5,1,5,63,98,1827337640
59,18,16,Jits_ISO_5,2,1,48,61,1827345140
59,18,16,Jits_ISO_5,3,5,80,127,1827346404
59,18,16,Jits_ISO_5,0,1,48,58,1827851948
59,18,16,Jits_ISO_5,1,5,56,103,1827854608
59,18,16,Jits_ISO_5,2,5,63,98,1827875144
59,18,16,Jits_ISO_5,3,5,80,127,1827885412
59,18,16,Jits_ISO_5,0,5,63,98,1828314420
59,18,16,Jits_ISO_5,1,5,80,127,1828324988
59,18,16,Jits_ISO_5,2,5,56,103,1828345296
59,18,16,Jits_ISO_5,3,1,48,62,1828359576
59,18,16,Jits_ISO_5,0,5,63,98,1828815248
59,18,16,Jits_ISO_5,1,1,48,57,1828860020
59,18,16,Jits_ISO_5,2,5,56,103,1828895180
59,18,16,Jits_ISO_5,3,5,80,127,1828898324
59,18,16,Jits_ISO_5,0,5,63,98,1829315028
59,18,16,Jits_ISO_5,1,5,56,103,1829335364
59,18,16,Jits_ISO_5,2,5,80,127,1829365108
59,18,16,Jits_ISO_5,3,1,48,59,1829376620
59,18,16,Jits_ISO_5,0,5,56,103,1829814536
59,18,16,Jits_ISO_5,1,5,63,98,1829835216
59,18,16,Jits_ISO_5,2,5,80,127,1829845512
59,18,16,Jits_ISO_5,3,1,48,51,1829895152
59,18,16,Jits_ISO_5,0,5,56,103,1830345212
59,18,16,Jits_ISO_5,1,1,48,57,1830364020
59,18,16,Jits_ISO_5,2,5,63,98,1830374904
59,18,16,Jits_ISO_5,3,5,80,127,1830378048
59,18,16,Jits_ISO_5,0,5,56,103,1830794684
59,18,16,Jits_ISO_5,1,5,63,98,1830834476
59,18,16,Jits_ISO_5,2,1,48,67,1830860512
59,18,16,Jits_ISO_5,3,5,80,127,1830895104
59,18,16,Jits_ISO_5,0,5,56,103,1831314960
59,18,16,Jits_ISO_5,1,1,48,66,1831322964
59,18,16,Jits_ISO_5,2,5,63,98,1831325076
59,18,16,Jits_ISO_5,3,5,80,127,1831384368
59,18,16,Jits_ISO_5,0,5,56,103,1831814488
59,18,16,Jits_ISO_5,1,5,80,127,1831835096
59,18,16,Jits_ISO_5,2,1,48,75,1831845632
59,18,16,Jits_ISO_5,3,5,63,98,1831864764
59,18,16,Jits_ISO_5,0,5,80,127,1832315208
59,18,16,Jits_ISO_5,1,5,56,103,1832324356
59,18,16,Jits_ISO_5,2,1,48,69,1832332724
59,18,16,Jits_ISO_5,3,5,63,98,1832345104
59,18,16,Jits_ISO_5,0,5,63,98,1832804840
59,18,16,Jits_ISO_5,1,1,48,59,1832868492
59,18,16,Jits_ISO_5,2,5,80,127,1832884480
59,18,16,Jits_ISO_5,3,5,56,103,1832895120
59,18,16,Jits_ISO_5,0,1,48,68,1833350984
59,18,16,Jits_ISO_5,1,5,80,127,1833364956
59,18,16,Jits_ISO_5,2,5,56,103,1833385264
59,18,16,Jits_ISO_5,3,5,63,98,1833388256
59,18,16,Jits_ISO_5,0,5,63,98,1833835096
59,18,16,Jits_ISO_5,1,5,80,127,1833838388
59,18,16,Jits_ISO_5,2,5,56,103,1833895260
59,18,16,Jits_ISO_5,3,1,48,67,1833912920
59,18,16,Jits_ISO_5,0,5,56,103,1834315048
59,18,16,Jits_ISO_5,1,5,80,127,1834325396
59,18,16,Jits_ISO_5,2,5,63,98,1834365256
59,18,16,Jits_ISO_5,3,1,48,72,1834394300
59,18,16,Jits_ISO_5,0,5,56,103,1834795468
59,18,16,Jits_ISO_5,1,1,48,51,1834846536
59,18,16,Jits_ISO_5,2,5,63,98,1834854804
59,18,16,Jits_ISO_5,3,5,80,127,1834865148
59,18,16,Jits_ISO_5,0,5,63,98,1835305180
59,18,16,Jits_ISO_5,1,5,80,127,1835345192
59,18,16,Jits_ISO_5,2,1,48,54,1835355056
59,18,16,Jits_ISO_5,3,5,56,103,1835385272
59,18,16,Jits_ISO_5,0,5,56,103,1835804988
59,18,16,Jits_ISO_5,1,1,48,38,1835856876
59,18,16,Jits_ISO_5,2,5,63,98,1835885072
59,18,16,Jits_ISO_5,3,5,80,127,1835888216
59,18,16,Jits_ISO_5,0,9999,9999,9999,1776582752
59,18,16,Jits_ISO_5,1,9999,9999,9999,1777082472
59,18,16,Jits_ISO_5,2,9999,9999,9999,1777582136
59,18,16,Jits_ISO_5,3,9999,9999,9999,1778082920
59,18,16,Jits_ISO_5,4,9999,9999,9999,1778582624
59,18,16,Jits_ISO_5,5,9999,9999,9999,1779082364
59,18,16,Jits_ISO_5,6,9999,9999,9999,1779583068
59,18,16,Jits_ISO_5,7,9999,9999,9999,1780082744
59,18,16,Jits_ISO_5,8,9999,9999,9999,1780582492
59,18,16,Jits_ISO_5,9,9999,9999,9999,1781082168
59,18,16,Jits_ISO_5,10,9999,9999,9999,1781582960
59,18,16,Jits_ISO_5,11,9999,9999,9999,1782082632
59,18,16,Jits_ISO_5,12,9999,9999,9999,1782582360
59,18,16,Jits_ISO_5,13,9999,9999,9999,1783083068
59,18,16,Jits_ISO_5,14,9999,9999,9999,1783593060
59,18,16,Jits_ISO_5,15,9999,9999,9999,1784092732
59,18,16,Jits_ISO_5,16,9999,9999,9999,1784592480
59,18,16,Jits_ISO_5,17,9999,9999,9999,1785092212
59,18,16,Jits_ISO_5,18,9999,9999,9999,1785592928
59,18,16,Jits_ISO_5,19,9999,9999,9999,1786092604
59,18,16,Jits_ISO_5,20,9999,9999,9999,1786592336
59,18,16,Jits_ISO_5,21,9999,9999,9999,1787093060
59,18,16,Jits_ISO_5,22,9999,9999,9999,1787592780
59,18,16,Jits_ISO_5,23,9999,9999,9999,1788092528
59,18,16,Jits_ISO_5,24,9999,9999,9999,1788592204
59,18,16,Jits_ISO_5,25,9999,9999,9999,1789092916
59,18,16,Jits_ISO_5,26,9999,9999,9999,1789592644
59,18,16,Jits_ISO_5,27,9999,9999,9999,1790092364
59,18,16,Jits_ISO_5,28,9999,9999,9999,1790592116
59,18,16,Jits_ISO_5,29,9999,9999,9999,1791092832
59,18,16,Jits_ISO_5,30,9999,9999,9999,1791592508
59,18,16,Jits_ISO_5,31,9999,9999,9999,1792092260
59,18,16,Jits_ISO_5,32,9999,9999,9999,1792592976
59,18,16,Jits_ISO_5,33,9999,9999,9999,1793092724
59,18,16,Jits_ISO_5,34,9999,9999,9999,1793592396
59,18,16,Jits_ISO_5,35,9999,9999,9999,1794092144
59,18,16,Jits_ISO_5,36,9999,9999,9999,1794592836
59,18,16,Jits_ISO_5,37,9999,9999,9999,1795092572
59,18,16,Jits_ISO_5,38,9999,9999,9999,1795592244
59,18,16,Jits_ISO_5,39,9999,9999,9999,1796093028
59,18,16,Jits_ISO_5,40,9999,9999,9999,1796592740
59,18,16,Jits_ISO_5,41,9999,9999,9999,1797092408
59,18,16,Jits_ISO_5,42,9999,9999,9999,1797592156
59,18,16,Jits_ISO_5,43,9999,9999,9999,1798092904
59,18,16,Jits_ISO_5,44,9999,9999,9999,1798592628
59,18,16,Jits_ISO_5,45,9999,9999,9999,1799092300
59,18,16,Jits_ISO_5,46,9999,9999,9999,1799593080
59,18,16,Jits_ISO_5,47,9999,9999,9999,1800092748
59,18,16,Jits_ISO_5,48,9999,9999,9999,1800592484
59,18,16,Jits_ISO_5,49,9999,9999,9999,1801092164
59,18,16,Jits_ISO_5,50,9999,9999,9999,1801592932
59,18,16,Jits_ISO_5,51,9999,9999,9999,1802092608
59,18,16,Jits_ISO_5,52,9999,9999,9999,1802592356
59,18,16,Jits_ISO_5,53,9999,9999,9999,1803093052
59,18,16,Jits_ISO_5,54,9999,9999,9999,1803592784
59,18,16,Jits_ISO_5,55,9999,9999,9999,1804092532
59,18,16,Jits_ISO_5,56,9999,9999,9999,1804592208
59,18,16,Jits_ISO_5,57,9999,9999,9999,1805092916
59,18,16,Jits_ISO_5,58,9999,9999,9999,1805592664
59,18,16,Jits_ISO_5,59,9999,9999,9999,1806092384
59,18,16,Jits_ISO_5,60,9999,9999,9999,1806592056
59,18,16,Jits_ISO_5,61,9999,9999,9999,1807092836
59,18,16,Jits_ISO_5,62,9999,9999,9999,1807592508
59,18,16,Jits_ISO_5,63,9999,9999,9999,1808092252
59,18,16,Jits_ISO_5,64,9999,9999,9999,1808593008
59,18,16,Jits_ISO_5,65,9999,9999,9999,1809092676
59,18,16,Jits_ISO_5,66,9999,9999,9999,1809592424
59,18,16,Jits_ISO_5,67,9999,9999,9999,1810092084
59,18,16,Jits_ISO_5,68,9999,9999,9999,1810592880
59,18,16,Jits_ISO_5,69,9999,9999,9999,1811092540
59,18,16,Jits_ISO_5,70,9999,9999,9999,1811592260
59,18,16,Jits_ISO_5,71,9999,9999,9999,1812092980
59,18,16,Jits_ISO_5,72,9999,9999,9999,1812592728
59,18,16,Jits_ISO_5,73,9999,9999,9999,1813092464
59,18,16,Jits_ISO_5,74,9999,9999,9999,1813592136
59,18,16,Jits_ISO_5,75,9999,9999,9999,1814092912
59,18,16,Jits_ISO_5,76,9999,9999,9999,1814592588
59,18,16,Jits_ISO_5,77,9999,9999,9999,1815092324
59,18,16,Jits_ISO_5,78,9999,9999,9999,1815593044
59,18,16,Jits_ISO_5,79,9999,9999,9999,1816092792
59,18,16,Jits_ISO_5,80,9999,9999,9999,1816592452
59,18,16,Jits_ISO_5,81,9999,9999,9999,1817092188
59,18,16,Jits_ISO_5,82,9999,9999,9999,1817592904
59,18,16,Jits_ISO_5,83,9999,9999,9999,1818092636
59,18,16,Jits_ISO_5,84,9999,9999,9999,1818592316
59,18,16,Jits_ISO_5,85,9999,9999,9999,1819093092
59,18,16,Jits_ISO_5,86,9999,9999,9999,1819592792
59,18,16,Jits_ISO_5,87,9999,9999,9999,1820092532
59,18,16,Jits_ISO_5,88,9999,9999,9999,1820592208
59,18,16,Jits_ISO_5,89,9999,9999,9999,1821092924
59,18,16,Jits_ISO_5,90,9999,9999,9999,1821592672
59,18,16,Jits_ISO_5,91,9999,9999,9999,1822092344
59,18,16,Jits_ISO_5,92,9999,9999,9999,1822592076
59,18,16,Jits_ISO_5,93,9999,9999,9999,1823092860
59,18,16,Jits_ISO_5,94,9999,9999,9999,1823592516
59,18,16,Jits_ISO_5,95,9999,9999,9999,1824092264
59,18,16,Jits_ISO_5,96,9999,9999,9999,1824592988
59,18,16,Jits_ISO_5,97,9999,9999,9999,1825092716
59,18,16,Jits_ISO_5,98,9999,9999,9999,1825592376
59,18,16,Jits_ISO_5,99,9999,9999,9999,1826092120
59,18,16,Jits_ISO_5,100,9999,9999,9999,1826592820
59,18,16,Jits_ISO_5,101,9999,9999,9999,1827092572
59,18,16,Jits_ISO_5,102,9999,9999,9999,1827592312
59,18,16,Jits_ISO_5,103,9999,9999,9999,1828093036
59,18,16,Jits_ISO_5,104,9999,9999,9999,1828592692
59,18,16,Jits_ISO_5,105,9999,9999,9999,1829092468
59,18,16,Jits_ISO_5,106,9999,9999,9999,1829592128
59,18,16,Jits_ISO_5,107,9999,9999,9999,1830092880
59,18,16,Jits_ISO_5,108,9999,9999,9999,1830592616
59,18,16,Jits_ISO_5,109,9999,9999,9999,1831092292
59,18,16,Jits_ISO_5,110,9999,9999,9999,1831593012
59,18,16,Jits_ISO_5,111,9999,9999,9999,1832092760
59,18,16,Jits_ISO_5,112,9999,9999,9999,1832592504
59,18,16,Jits_ISO_5,113,9999,9999,9999,1833092184
59,18,16,Jits_ISO_5,114,9999,9999,9999,1833592888
59,18,16,Jits_ISO_5,115,9999,9999,9999,1834092616
59,18,16,Jits_ISO_5,116,9999,9999,9999,1834592348
59,18,16,Jits_ISO_5,117,9999,9999,9999,1835093072
59,18,16,Jits_ISO_5,118,9999,9999,9999,1835592820
59,18,16,Jits_ISO_5,119,9999,9999,9999,1836092472
59,19,7,Jits_ISO_8,0,5,56,103,1845856864
59,19,7,Jits_ISO_8,1,5,63,98,1845859892
59,19,7,Jits_ISO_8,2,5,80,127,1845862936
59,19,7,Jits_ISO_8,0,5,56,103,1846657536
59,19,7,Jits_ISO_8,1,5,63,98,1846660636
59,19,7,Jits_ISO_8,2,5,80,127,1846663680
59,19,7,Jits_ISO_8,0,5,80,127,1847396716
59,19,7,Jits_ISO_8,1,5,63,98,1847486780
59,19,7,Jits_ISO_8,2,5,56,103,1847496976
59,19,7,Jits_ISO_8,0,5,56,103,1848216816
59,19,7,Jits_ISO_8,1,5,63,98,1848227384
59,19,7,Jits_ISO_8,2,5,80,127,1848317316
59,19,7,Jits_ISO_8,0,5,63,98,1848987084
59,19,7,Jits_ISO_8,1,5,80,127,1849016688
59,19,7,Jits_ISO_8,2,5,56,103,1849047436
59,19,7,Jits_ISO_8,3,1,48,75,1849063584
59,19,7,Jits_ISO_8,0,5,56,103,1849786788
59,19,7,Jits_ISO_8,1,1,48,57,1849823864
59,19,7,Jits_ISO_8,2,5,80,127,1849887056
59,19,7,Jits_ISO_8,3,5,63,98,1849937540
59,19,7,Jits_ISO_8,0,5,56,103,1850586612
59,19,7,Jits_ISO_8,1,5,80,127,1850636592
59,19,7,Jits_ISO_8,2,5,63,98,1850676532
59,19,7,Jits_ISO_8,3,1,48,67,1850684828
59,19,7,Jits_ISO_8,0,1,48,60,1851383440
59,19,7,Jits_ISO_8,1,5,80,127,1851417044
59,19,7,Jits_ISO_8,2,5,63,98,1851446720
59,19,7,Jits_ISO_8,3,5,56,103,1851517432
59,19,7,Jits_ISO_8,0,1,48,67,1852203088
59,19,7,Jits_ISO_8,1,5,63,98,1852247624
59,19,7,Jits_ISO_8,2,5,56,103,1852277000
59,19,7,Jits_ISO_8,3,5,80,127,1852336552
59,19,7,Jits_ISO_8,0,5,56,103,1852986728
59,19,7,Jits_ISO_8,1,5,80,127,1852989796
59,19,7,Jits_ISO_8,2,1,48,56,1853026860
59,19,7,Jits_ISO_8,3,5,63,98,1853106744
59,19,7,Jits_ISO_8,0,1,48,51,1853835036
59,19,7,Jits_ISO_8,1,5,56,103,1853867576
59,19,7,Jits_ISO_8,2,5,80,127,1853907464
59,19,7,Jits_ISO_8,3,5,63,98,1853916612
59,19,7,Jits_ISO_8,0,5,56,103,1854627436
59,19,7,Jits_ISO_8,1,5,80,127,1854646552
59,19,7,Jits_ISO_8,2,1,48,52,1854650644
59,19,7,Jits_ISO_8,3,5,63,98,1854726660
59,19,7,Jits_ISO_8,0,5,80,127,1855416672
59,19,7,Jits_ISO_8,1,1,48,60,1855516344
59,19,7,Jits_ISO_8,2,5,56,103,1855517920
59,19,7,Jits_ISO_8,3,5,63,98,1855527364
59,19,7,Jits_ISO_8,0,5,63,98,1856186808
59,19,7,Jits_ISO_8,1,5,80,127,1856247224
59,19,7,Jits_ISO_8,2,5,56,103,1856257644
59,19,7,Jits_ISO_8,3,1,48,48,1856277396
59,19,7,Jits_ISO_8,0,5,56,103,1856986536
59,19,7,Jits_ISO_8,1,5,63,98,1857057116
59,19,7,Jits_ISO_8,2,5,80,127,1857060404
59,19,7,Jits_ISO_8,3,1,48,58,1857061668
59,19,7,Jits_ISO_8,0,1,48,63,1857803208
59,19,7,Jits_ISO_8,1,5,63,98,1857817032
59,19,7,Jits_ISO_8,2,5,56,103,1857867084
59,19,7,Jits_ISO_8,3,5,80,127,1857870152
59,19,7,Jits_ISO_8,0,5,56,103,1858576728
59,19,7,Jits_ISO_8,1,5,80,127,1858579720
59,19,7,Jits_ISO_8,2,1,48,72,1858611008
59,19,7,Jits_ISO_8,3,5,63,98,1858666852
59,19,7,Jits_ISO_8,0,1,48,77,1859398428
59,19,7,Jits_ISO_8,1,5,63,98,1859416584
59,19,7,Jits_ISO_8,2,5,56,103,1859506488
59,19,7,Jits_ISO_8,3,5,80,127,1859537380
59,19,7,Jits_ISO_8,0,5,56,103,1860206940
59,19,7,Jits_ISO_8,1,1,48,59,1860249620
59,19,7,Jits_ISO_8,2,5,63,98,1860307508
59,19,7,Jits_ISO_8,3,5,80,127,1860337032
59,19,7,Jits_ISO_8,0,5,63,98,1861027420
59,19,7,Jits_ISO_8,1,5,56,103,1861037468
59,19,7,Jits_ISO_8,2,1,48,52,1861110360
59,19,7,Jits_ISO_8,3,5,80,127,1861126648
59,19,7,Jits_ISO_8,0,5,63,98,1861847464
59,19,7,Jits_ISO_8,1,1,48,65,1861921008
59,19,7,Jits_ISO_8,2,5,56,103,1861927328
59,19,7,Jits_ISO_8,3,5,80,127,1861930320
59,19,7,Jits_ISO_8,0,5,80,127,1862607360
59,19,7,Jits_ISO_8,1,5,63,98,1862626624
59,19,7,Jits_ISO_8,2,5,56,103,1862687088
59,19,7,Jits_ISO_8,3,1,48,59,1862699272
59,19,7,Jits_ISO_8,0,5,56,103,1863447016
59,19,7,Jits_ISO_8,1,5,63,98,1863467476
59,19,7,Jits_ISO_8,2,5,80,127,1863470836
59,19,7,Jits_ISO_8,3,1,48,68,1863492988
59,19,7,Jits_ISO_8,0,5,63,98,1864187388
59,19,7,Jits_ISO_8,1,1,48,59,1864233804
59,19,7,Jits_ISO_8,2,5,80,127,1864267628
59,19,7,Jits_ISO_8,3,5,56,103,1864277524
59,19,7,Jits_ISO_8,0,5,63,98,1865006428
59,19,7,Jits_ISO_8,1,1,48,79,1865015772
59,19,7,Jits_ISO_8,2,5,56,103,1865026880
59,19,7,Jits_ISO_8,3,5,80,127,1865077380
59,19,7,Jits_ISO_8,0,5,80,127,1865807180
59,19,7,Jits_ISO_8,1,1,48,78,1865839516
59,19,7,Jits_ISO_8,2,5,63,98,1865847336
59,19,7,Jits_ISO_8,3,5,56,103,1865866600
59,19,7,Jits_ISO_8,0,5,56,103,1866646916
59,19,7,Jits_ISO_8,1,1,48,63,1866657708
59,19,7,Jits_ISO_8,2,5,63,98,1866658904
59,19,7,Jits_ISO_8,3,5,80,127,1866676520
59,19,7,Jits_ISO_8,0,5,56,103,1867377184
59,19,7,Jits_ISO_8,1,1,48,63,1867437920
59,19,7,Jits_ISO_8,2,5,63,98,1867467316
59,19,7,Jits_ISO_8,3,5,80,127,1867526460
59,19,7,Jits_ISO_8,0,5,80,127,1868206504
59,19,7,Jits_ISO_8,1,5,56,103,1868216704
59,19,7,Jits_ISO_8,2,1,48,57,1868238700
59,19,7,Jits_ISO_8,3,5,63,98,1868287272
59,19,7,Jits_ISO_8,0,1,48,49,1869001292
59,19,7,Jits_ISO_8,1,5,63,98,1869036864
59,19,7,Jits_ISO_8,2,5,80,127,1869127132
59,19,7,Jits_ISO_8,3,5,56,103,1869137256
59,19,7,Jits_ISO_8,0,5,63,98,1869777316
59,19,7,Jits_ISO_8,1,5,80,127,1869826400
59,19,7,Jits_ISO_8,2,1,48,50,1869846536
59,19,7,Jits_ISO_8,3,5,56,103,1869886712
59,19,7,Jits_ISO_8,0,5,56,103,1870606696
59,19,7,Jits_ISO_8,1,1,48,48,1870624192
59,19,7,Jits_ISO_8,2,5,80,127,1870656816
59,19,7,Jits_ISO_8,3,5,63,98,1870677424
59,19,7,Jits_ISO_8,0,5,56,103,1871376824
59,19,7,Jits_ISO_8,1,5,80,127,1871437292
59,19,7,Jits_ISO_8,2,1,48,48,1871442504
59,19,7,Jits_ISO_8,3,5,63,98,1871506816
59,19,7,Jits_ISO_8,0,5,56,103,1872176468
59,19,7,Jits_ISO_8,1,5,80,127,1872207196
59,19,7,Jits_ISO_8,2,5,63,98,1872236872
59,19,7,Jits_ISO_8,3,1,48,51,1872247260
59,19,7,Jits_ISO_8,0,5,56,103,1873017168
59,19,7,Jits_ISO_8,1,1,48,21,1873021932
59,19,7,Jits_ISO_8,2,1,38,16,1873033376
59,19,7,Jits_ISO_8,3,5,80,127,1873036856
59,19,7,Jits_ISO_8,4,5,63,98,1873097316
59,19,7,Jits_ISO_8,0,1,48,63,1873781988
59,19,7,Jits_ISO_8,1,5,80,127,1873896964
59,19,7,Jits_ISO_8,2,5,56,103,1873907308
59,19,7,Jits_ISO_8,3,5,63,98,1873917280
59,19,7,Jits_ISO_8,0,1,48,70,1874615280
59,19,7,Jits_ISO_8,1,5,56,103,1874656760
59,19,7,Jits_ISO_8,2,5,80,127,1874696480
59,19,7,Jits_ISO_8,3,5,63,98,1874727336
59,19,7,Jits_ISO_8,0,5,56,103,1875426664
59,19,7,Jits_ISO_8,1,1,48,72,1875449488
59,19,7,Jits_ISO_8,2,5,63,98,1875457384
59,19,7,Jits_ISO_8,3,5,80,127,1875497396
59,19,7,Jits_ISO_8,0,5,80,127,1876177164
59,19,7,Jits_ISO_8,1,5,63,98,1876226544
59,19,7,Jits_ISO_8,2,5,56,103,1876247004
59,19,7,Jits_ISO_8,3,1,48,50,1876282180
59,19,7,Jits_ISO_8,0,1,48,63,1876961108
59,19,7,Jits_ISO_8,1,5,56,103,1877006844
59,19,7,Jits_ISO_8,2,5,80,127,1877077488
59,19,7,Jits_ISO_8,3,5,63,98,1877136756
59,19,7,Jits_ISO_8,0,1,48,66,1877795300
59,19,7,Jits_ISO_8,1,5,80,127,1877806408
59,19,7,Jits_ISO_8,2,5,63,98,1877896532
59,19,7,Jits_ISO_8,3,5,56,103,1877917212
59,19,7,Jits_ISO_8,0,5,63,98,1878626584
59,19,7,Jits_ISO_8,1,1,48,49,1878643404
59,19,7,Jits_ISO_8,2,5,56,103,1878647184
59,19,7,Jits_ISO_8,3,5,80,127,1878687048
59,19,7,Jits_ISO_8,0,1,48,53,1879361816
59,19,7,Jits_ISO_8,1,5,80,127,1879386424
59,19,7,Jits_ISO_8,2,5,63,98,1879406960
59,19,7,Jits_ISO_8,3,5,56,103,1879487112
59,19,7,Jits_ISO_8,0,1,48,66,1880167752
59,19,7,Jits_ISO_8,1,5,63,98,1880177136
59,19,7,Jits_ISO_8,2,5,56,103,1880286688
59,19,7,Jits_ISO_8,3,5,80,127,1880289828
59,19,7,Jits_ISO_8,0,5,63,98,1880997152
59,19,7,Jits_ISO_8,1,5,56,103,1881006372
59,19,7,Jits_ISO_8,2,5,80,127,1881009440
59,19,7,Jits_ISO_8,3,1,48,61,1881037288
59,19,7,Jits_ISO_8,0,5,56,103,1881776464
59,19,7,Jits_ISO_8,1,1,48,57,1881843652
59,19,7,Jits_ISO_8,2,5,80,127,1881897408
59,19,7,Jits_ISO_8,3,5,63,98,1881938004
59,19,7,Jits_ISO_8,0,5,56,103,1882597040
59,19,7,Jits_ISO_8,1,1,48,68,1882667816
59,19,7,Jits_ISO_8,2,5,80,127,1882676460
59,19,7,Jits_ISO_8,3,5,63,98,1882697068
59,19,7,Jits_ISO_8,0,5,56,103,1883396544
59,19,7,Jits_ISO_8,1,1,48,57,1883446868
59,19,7,Jits_ISO_8,2,5,63,98,1883507048
59,19,7,Jits_ISO_8,3,5,80,127,1883510488
59,19,7,Jits_ISO_8,0,1,48,56,1884225772
59,19,7,Jits_ISO_8,1,5,56,103,1884227344
59,19,7,Jits_ISO_8,2,5,80,127,1884256724
59,19,7,Jits_ISO_8,3,5,63,98,1884277032
59,19,7,Jits_ISO_8,0,5,63,98,1885007132
59,19,7,Jits_ISO_8,1,1,48,60,1885011892
59,19,7,Jits_ISO_8,2,5,56,103,1885016572
59,19,7,Jits_ISO_8,3,5,80,127,1885026768
59,19,7,Jits_ISO_8,0,1,48,70,1885746192
59,19,7,Jits_ISO_8,1,5,80,127,1885796936
59,19,7,Jits_ISO_8,2,5,56,103,1885846824
59,19,7,Jits_ISO_8,3,5,63,98,1885886764
59,19,7,Jits_ISO_8,0,1,48,68,1886604172
59,19,7,Jits_ISO_8,1,5,80,127,1886617096
59,19,7,Jits_ISO_8,2,5,63,98,1886637336
59,19,7,Jits_ISO_8,3,5,56,103,1886686812
59,19,7,Jits_ISO_8,0,5,80,127,1887427004
59,19,7,Jits_ISO_8,1,5,56,103,1887456556
59,19,7,Jits_ISO_8,2,1,48,83,1887459900
59,19,7,Jits_ISO_8,3,5,63,98,1887527428
59,19,7,Jits_ISO_8,0,1,48,77,1888252864
59,19,7,Jits_ISO_8,1,5,56,103,1888276800
59,19,7,Jits_ISO_8,2,5,80,127,1888287072
59,19,7,Jits_ISO_8,3,5,63,98,1888327012
59,19,7,Jits_ISO_8,0,5,56,103,1888986540
59,19,7,Jits_ISO_8,1,5,63,98,1889006924
59,19,7,Jits_ISO_8,2,1,48,74,1889065488
59,19,7,Jits_ISO_8,3,5,80,127,1889076672
59,19,7,Jits_ISO_8,0,5,63,98,1889806936
59,19,7,Jits_ISO_8,1,1,48,48,1889838900
59,19,7,Jits_ISO_8,2,5,80,127,1889867096
59,19,7,Jits_ISO_8,3,5,56,103,1889886508
59,19,7,Jits_ISO_8,0,5,80,127,1890597204
59,19,7,Jits_ISO_8,1,1,48,65,1890605204
59,19,7,Jits_ISO_8,2,5,56,103,1890626876
59,19,7,Jits_ISO_8,3,5,63,98,1890656848
59,19,7,Jits_ISO_8,0,1,48,59,1891359056
59,19,7,Jits_ISO_8,1,5,56,103,1891396916
59,19,7,Jits_ISO_8,2,5,63,98,1891457384
59,19,7,Jits_ISO_8,3,5,80,127,1891516860
59,19,7,Jits_ISO_8,0,1,48,69,1892195632
59,19,7,Jits_ISO_8,1,5,80,127,1892217228
59,19,7,Jits_ISO_8,2,5,56,103,1892236640
59,19,7,Jits_ISO_8,3,5,63,98,1892307304
59,19,7,Jits_ISO_8,0,1,48,73,1892973676
59,19,7,Jits_ISO_8,1,5,80,127,1893016940
59,19,7,Jits_ISO_8,2,5,63,98,1893037476
59,19,7,Jits_ISO_8,3,5,56,103,1893067148
59,19,7,Jits_ISO_8,0,1,48,76,1893798784
59,19,7,Jits_ISO_8,1,5,80,127,1893806456
59,19,7,Jits_ISO_8,2,5,63,98,1893826916
59,19,7,Jits_ISO_8,3,5,56,103,1893887404
59,19,7,Jits_ISO_8,0,5,80,127,1894607096
59,19,7,Jits_ISO_8,1,1,48,68,1894630892
59,19,7,Jits_ISO_8,2,5,56,103,1894706664
59,19,7,Jits_ISO_8,3,5,63,98,1894737148
59,19,7,Jits_ISO_8,0,5,63,98,1895396708
59,19,7,Jits_ISO_8,1,1,48,59,1895438640
59,19,7,Jits_ISO_8,2,5,80,127,1895446832
59,19,7,Jits_ISO_8,3,5,56,103,1895467292
59,19,7,Jits_ISO_8,0,1,48,74,1896233684
59,19,7,Jits_ISO_8,1,5,80,127,1896237540
59,19,7,Jits_ISO_8,2,5,56,103,1896267212
59,19,7,Jits_ISO_8,3,5,63,98,1896270208
59,19,7,Jits_ISO_8,0,1,48,74,1897027400
59,19,7,Jits_ISO_8,1,5,63,98,1897066984
59,19,7,Jits_ISO_8,2,5,56,103,1897106776
59,19,7,Jits_ISO_8,3,5,80,127,1897127296
59,19,7,Jits_ISO_8,0,1,48,63,1897801704
59,19,7,Jits_ISO_8,1,5,80,127,1897807136
59,19,7,Jits_ISO_8,2,5,63,98,1897887156
59,19,7,Jits_ISO_8,3,5,56,103,1897927080
59,19,7,Jits_ISO_8,0,1,48,58,1898623368
59,19,7,Jits_ISO_8,1,5,63,98,1898626700
59,19,7,Jits_ISO_8,2,5,80,127,1898707496
59,19,7,Jits_ISO_8,3,5,56,103,1898726744
59,19,7,Jits_ISO_8,0,5,56,103,1899467108
59,19,7,Jits_ISO_8,1,5,63,98,1899477552
59,19,7,Jits_ISO_8,2,1,48,67,1899478520
59,19,7,Jits_ISO_8,3,5,80,127,1899517260
59,19,7,Jits_ISO_8,0,5,56,103,1900186968
59,19,7,Jits_ISO_8,1,5,80,127,1900189960
59,19,7,Jits_ISO_8,2,1,48,59,1900283004
59,19,7,Jits_ISO_8,3,5,63,98,1900327236
59,19,7,Jits_ISO_8,0,5,56,103,1900976640
59,19,7,Jits_ISO_8,1,1,48,50,1901001112
59,19,7,Jits_ISO_8,2,5,63,98,1901066720
59,19,7,Jits_ISO_8,3,5,80,127,1901137136
59,19,7,Jits_ISO_8,0,1,48,68,1901781744
59,19,7,Jits_ISO_8,1,5,63,98,1901857076
59,19,7,Jits_ISO_8,2,5,80,127,1901860660
59,19,7,Jits_ISO_8,3,5,56,103,1901916476
59,19,7,Jits_ISO_8,0,1,48,58,1902600032
59,19,7,Jits_ISO_8,1,5,80,127,1902696700
59,19,7,Jits_ISO_8,2,5,56,103,1902717232
59,19,7,Jits_ISO_8,3,5,63,98,1902726604
59,19,7,Jits_ISO_8,0,5,56,103,1903406528
59,19,7,Jits_ISO_8,1,5,63,98,1903416576
59,19,7,Jits_ISO_8,2,1,48,55,1903466368
59,19,7,Jits_ISO_8,3,5,80,127,1903487592
59,19,7,Jits_ISO_8,0,5,80,127,1904207296
59,19,7,Jits_ISO_8,1,1,48,60,1904240608
59,19,7,Jits_ISO_8,2,5,56,103,1904257496
59,19,7,Jits_ISO_8,3,5,63,98,1904306424
59,19,7,Jits_ISO_8,0,1,48,72,1905017184
59,19,7,Jits_ISO_8,1,5,56,103,1905086960
59,19,7,Jits_ISO_8,2,5,63,98,1905097084
59,19,7,Jits_ISO_8,3,5,80,127,1905137032
59,19,7,Jits_ISO_8,0,5,56,103,1905827272
59,19,7,Jits_ISO_8,1,1,48,64,1905856244
59,19,7,Jits_ISO_8,2,5,63,98,1905867056
59,19,7,Jits_ISO_8,3,5,80,127,1905917552
59,19,7,Jits_ISO_8,0,5,80,127,1906587036
59,19,7,Jits_ISO_8,1,1,48,59,1906624628
59,19,7,Jits_ISO_8,2,5,56,103,1906637556
59,19,7,Jits_ISO_8,3,5,63,98,1906656596
59,19,7,Jits_ISO_8,0,1,48,69,1907378932
59,19,7,Jits_ISO_8,1,5,80,127,1907396940
59,19,7,Jits_ISO_8,2,5,63,98,1907457436
59,19,7,Jits_ISO_8,3,5,56,103,1907537360
59,19,7,Jits_ISO_8,0,5,80,127,1908177200
59,19,7,Jits_ISO_8,1,1,48,66,1908181740
59,19,7,Jits_ISO_8,2,5,56,103,1908217284
59,19,7,Jits_ISO_8,3,5,63,98,1908236548
59,19,7,Jits_ISO_8,0,1,48,58,1908999960
59,19,7,Jits_ISO_8,1,5,56,103,1909027336
59,19,7,Jits_ISO_8,2,5,80,127,1909037608
59,19,7,Jits_ISO_8,3,5,63,98,1909077472
59,19,7,Jits_ISO_8,0,1,48,64,1909814516
59,19,7,Jits_ISO_8,1,5,56,103,1909896576
59,19,7,Jits_ISO_8,2,5,63,98,1909936424
59,19,7,Jits_ISO_8,3,5,80,127,1909939864
59,19,7,Jits_ISO_8,0,5,63,98,1910586604
59,19,7,Jits_ISO_8,1,1,48,58,1910620512
59,19,7,Jits_ISO_8,2,5,80,127,1910626612
59,19,7,Jits_ISO_8,3,5,56,103,1910697412
59,19,7,Jits_ISO_8,0,5,63,98,1911377464
59,19,7,Jits_ISO_8,1,1,48,57,1911393988
59,19,7,Jits_ISO_8,2,5,56,103,1911457108
59,19,7,Jits_ISO_8,3,5,80,127,1911516388
59,19,7,Jits_ISO_8,0,5,80,127,1912187440
59,19,7,Jits_ISO_8,1,1,48,57,1912203516
59,19,7,Jits_ISO_8,2,5,63,98,1912237564
59,19,7,Jits_ISO_8,3,5,56,103,1912267088
59,19,7,Jits_ISO_8,0,5,56,103,1912976724
59,19,7,Jits_ISO_8,1,1,48,60,1913011080
59,19,7,Jits_ISO_8,2,5,63,98,1913026920
59,19,7,Jits_ISO_8,3,5,80,127,1913037288
59,19,7,Jits_ISO_8,0,1,48,61,1913756928
59,19,7,Jits_ISO_8,1,5,56,103,1913786696
59,19,7,Jits_ISO_8,2,5,63,98,1913897220
59,19,7,Jits_ISO_8,3,5,80,127,1913916860
59,19,7,Jits_ISO_8,0,5,63,98,1914586444
59,19,7,Jits_ISO_8,1,5,80,127,1914636720
59,19,7,Jits_ISO_8,2,1,48,62,1914655724
59,19,7,Jits_ISO_8,3,5,56,103,1914726696
59,19,7,Jits_ISO_8,0,5,63,98,1915377008
59,19,7,Jits_ISO_8,1,5,80,127,1915406684
59,19,7,Jits_ISO_8,2,1,48,56,1915474524
59,19,7,Jits_ISO_8,3,5,56,103,1915496812
59,19,7,Jits_ISO_8,0,5,63,98,1916176640
59,19,7,Jits_ISO_8,1,5,56,103,1916187136
59,19,7,Jits_ISO_8,2,1,48,47,1916237528
59,19,7,Jits_ISO_8,3,5,80,127,1916287300
59,19,7,Jits_ISO_8,0,1,48,58,1917036176
59,19,7,Jits_ISO_8,1,5,63,98,1917076736
59,19,7,Jits_ISO_8,2,5,80,127,1917106488
59,19,7,Jits_ISO_8,3,5,56,103,1917137440
59,19,7,Jits_ISO_8,0,5,80,127,1917897060
59,19,7,Jits_ISO_8,1,5,63,98,1917907280
59,19,7,Jits_ISO_8,2,5,56,103,1917936956
59,19,7,Jits_ISO_8,0,5,80,127,1918596544
59,19,7,Jits_ISO_8,1,5,63,98,1918617076
59,19,7,Jits_ISO_8,2,5,56,103,1918667204
59,19,7,Jits_ISO_8,3,1,48,57,1918678960
59,19,7,Jits_ISO_8,0,1,48,66,1919403560
59,19,7,Jits_ISO_8,1,5,63,98,1919427048
59,19,7,Jits_ISO_8,2,5,80,127,1919487316
59,19,7,Jits_ISO_8,3,5,56,103,1919506788
59,19,7,Jits_ISO_8,0,5,63,98,1920186760
59,19,7,Jits_ISO_8,1,5,56,103,1920236764
59,19,7,Jits_ISO_8,2,1,48,67,1920244072
59,19,7,Jits_ISO_8,3,5,80,127,1920247548
59,19,7,Jits_ISO_8,0,1,48,57,1921012148
59,19,7,Jits_ISO_8,1,5,56,103,1921017276
59,19,7,Jits_ISO_8,2,5,80,127,1921026352
59,19,7,Jits_ISO_8,3,5,63,98,1921126732
59,19,7,Jits_ISO_8,0,5,80,127,1921777132
59,19,7,Jits_ISO_8,1,5,63,98,1921787180
59,19,7,Jits_ISO_8,2,1,48,66,1921803628
59,19,7,Jits_ISO_8,3,5,56,103,1921936628
59,19,7,Jits_ISO_8,0,5,63,98,1922587044
59,19,7,Jits_ISO_8,1,1,48,67,1922614284
59,19,7,Jits_ISO_8,2,5,80,127,1922627124
59,19,7,Jits_ISO_8,3,5,56,103,1922707656
59,19,7,Jits_ISO_8,0,5,56,103,1923376484
59,19,7,Jits_ISO_8,1,1,48,70,1923377676
59,19,7,Jits_ISO_8,2,5,80,127,1923476716
59,19,7,Jits_ISO_8,3,5,63,98,1923497324
59,19,7,Jits_ISO_8,0,1,48,71,1924203888
59,19,7,Jits_ISO_8,1,5,80,127,1924236592
59,19,7,Jits_ISO_8,2,5,56,103,1924246936
59,19,7,Jits_ISO_8,3,5,63,98,1924337220
59,19,7,Jits_ISO_8,0,5,56,103,1925037432
59,19,7,Jits_ISO_8,1,1,48,57,1925038916
59,19,7,Jits_ISO_8,2,5,63,98,1925056984
59,19,7,Jits_ISO_8,3,5,80,127,1925136640
59,19,7,Jits_ISO_8,0,5,63,98,1925787108
59,19,7,Jits_ISO_8,1,1,48,65,1925853704
59,19,7,Jits_ISO_8,2,5,56,103,1925877112
59,19,7,Jits_ISO_8,3,5,80,127,1925880180
59,19,7,Jits_ISO_8,0,1,48,73,1926586176
59,19,7,Jits_ISO_8,1,5,56,103,1926616496
59,19,7,Jits_ISO_8,2,5,80,127,1926676812
59,19,7,Jits_ISO_8,3,5,63,98,1926687144
59,19,7,Jits_ISO_8,0,1,48,67,1927350444
59,19,7,Jits_ISO_8,1,5,80,127,1927467292
59,19,7,Jits_ISO_8,2,5,56,103,1927476584
59,19,7,Jits_ISO_8,3,5,63,98,1927479800
59,19,7,Jits_ISO_8,0,1,48,63,1928200744
59,19,7,Jits_ISO_8,1,5,56,103,1928227220
59,19,7,Jits_ISO_8,2,5,80,127,1928237568
59,19,7,Jits_ISO_8,3,5,63,98,1928256904
59,19,7,Jits_ISO_8,0,1,48,72,1928942608
59,19,7,Jits_ISO_8,1,5,63,98,1928997108
59,19,7,Jits_ISO_8,2,5,80,127,1929056512
59,19,7,Jits_ISO_8,3,5,56,103,1929107012
59,19,7,Jits_ISO_8,0,1,48,63,1929764412
59,19,7,Jits_ISO_8,1,5,63,98,1929876972
59,19,7,Jits_ISO_8,2,5,56,103,1929887168
59,19,7,Jits_ISO_8,3,5,80,127,1929937320
59,19,7,Jits_ISO_8,0,5,63,98,1930577212
59,19,7,Jits_ISO_8,1,5,80,127,1930596696
59,19,7,Jits_ISO_8,2,5,56,103,1930606968
59,19,7,Jits_ISO_8,3,1,48,71,1930607860
59,19,7,Jits_ISO_8,0,5,63,98,1931377056
59,19,7,Jits_ISO_8,1,5,80,127,1931380272
59,19,7,Jits_ISO_8,2,1,48,69,1931406176
59,19,7,Jits_ISO_8,3,5,56,103,1931416916
59,19,7,Jits_ISO_8,0,1,48,63,1932151088
59,19,7,Jits_ISO_8,1,5,63,98,1932247348
59,19,7,Jits_ISO_8,2,5,80,127,1932277156
59,19,7,Jits_ISO_8,3,5,56,103,1932287424
59,19,7,Jits_ISO_8,0,5,56,103,1932996992
59,19,7,Jits_ISO_8,1,5,80,127,1933026768
59,19,7,Jits_ISO_8,2,1,48,74,1933044260
59,19,7,Jits_ISO_8,3,5,63,98,1933057260
59,19,7,Jits_ISO_8,0,1,48,57,1933832056
59,19,7,Jits_ISO_8,1,5,63,98,1933896976
59,19,7,Jits_ISO_8,2,5,56,103,1933937124
59,19,7,Jits_ISO_8,3,5,80,127,1933940192
59,19,7,Jits_ISO_8,0,5,80,127,1934596592
59,19,7,Jits_ISO_8,1,1,48,51,1934652076
59,19,7,Jits_ISO_8,2,5,56,103,1934677284
59,19,7,Jits_ISO_8,3,5,63,98,1934726364
59,19,7,Jits_ISO_8,0,5,80,127,1935376836
59,19,7,Jits_ISO_8,1,1,48,52,1935386632
59,19,7,Jits_ISO_8,2,5,56,103,1935397216
59,19,7,Jits_ISO_8,3,5,63,98,1935487480
59,19,7,Jits_ISO_8,0,1,48,67,1936211952
59,19,7,Jits_ISO_8,1,5,80,127,1936216408
59,19,7,Jits_ISO_8,2,5,63,98,1936257324
59,19,7,Jits_ISO_8,3,5,56,103,1936297260
59,19,7,Jits_ISO_8,0,5,63,98,1936986456
59,19,7,Jits_ISO_8,1,1,48,72,1937008684
59,19,7,Jits_ISO_8,2,5,80,127,1937046916
59,19,7,Jits_ISO_8,3,5,56,103,1937076740
59,19,7,Jits_ISO_8,0,1,48,65,1937765828
59,19,7,Jits_ISO_8,1,5,56,103,1937787128
59,19,7,Jits_ISO_8,2,5,80,127,1937816876
59,19,7,Jits_ISO_8,3,5,63,98,1937907092
59,19,7,Jits_ISO_8,0,1,48,71,1938575872
59,19,7,Jits_ISO_8,1,5,56,103,1938597096
59,19,7,Jits_ISO_8,2,5,80,127,1938707020
59,19,7,Jits_ISO_8,3,5,63,98,1938736472
59,19,7,Jits_ISO_8,0,1,48,60,1939379700
59,19,7,Jits_ISO_8,1,5,56,103,1939447260
59,19,7,Jits_ISO_8,2,5,63,98,1939506664
59,19,7,Jits_ISO_8,3,5,80,127,1939537164
59,19,7,Jits_ISO_8,0,1,48,68,1940209716
59,19,7,Jits_ISO_8,1,5,56,103,1940217232
59,19,7,Jits_ISO_8,2,5,63,98,1940287064
59,19,7,Jits_ISO_8,3,5,80,127,1940307212
59,19,7,Jits_ISO_8,0,5,80,127,1940987132
59,19,7,Jits_ISO_8,1,5,63,98,1941006692
59,19,7,Jits_ISO_8,2,5,56,103,1941056820
59,19,7,Jits_ISO_8,3,1,48,62,1941080012
59,19,7,Jits_ISO_8,0,9999,9999,9999,1846254684
59,19,7,Jits_ISO_8,1,9999,9999,9999,1847054456
59,19,7,Jits_ISO_8,2,9999,9999,9999,1847854176
59,19,7,Jits_ISO_8,3,9999,9999,9999,1848654940
59,19,7,Jits_ISO_8,4,9999,9999,9999,1849454708
59,19,7,Jits_ISO_8,5,9999,9999,9999,1850254416
59,19,7,Jits_ISO_8,6,9999,9999,9999,1851054136
59,19,7,Jits_ISO_8,7,9999,9999,9999,1851854908
59,19,7,Jits_ISO_8,8,9999,9999,9999,1852654648
59,19,7,Jits_ISO_8,9,9999,9999,9999,1853454420
59,19,7,Jits_ISO_8,10,9999,9999,9999,1854254148
59,19,7,Jits_ISO_8,11,9999,9999,9999,1855054904
59,19,7,Jits_ISO_8,12,9999,9999,9999,1855854708
59,19,7,Jits_ISO_8,13,9999,9999,9999,1856654432
59,19,7,Jits_ISO_8,14,9999,9999,9999,1857454200
59,19,7,Jits_ISO_8,15,9999,9999,9999,1858254960
59,19,7,Jits_ISO_8,16,9999,9999,9999,1859054676
59,19,7,Jits_ISO_8,17,9999,9999,9999,1859854404
59,19,7,Jits_ISO_8,18,9999,9999,9999,1860654192
59,19,7,Jits_ISO_8,19,9999,9999,9999,1861454968
59,19,7,Jits_ISO_8,20,9999,9999,9999,1862254676
59,19,7,Jits_ISO_8,21,9999,9999,9999,1863054432
59,19,7,Jits_ISO_8,22,9999,9999,9999,1863854144
59,19,7,Jits_ISO_8,23,9999,9999,9999,1864654940
59,19,7,Jits_ISO_8,24,9999,9999,9999,1865454644
59,19,7,Jits_ISO_8,25,9999,9999,9999,1866254428
59,19,7,Jits_ISO_8,26,9999,9999,9999,1867054156
59,19,7,Jits_ISO_8,27,9999,9999,9999,1867854928
59,19,7,Jits_ISO_8,28,9999,9999,9999,1868654696
59,19,7,Jits_ISO_8,29,9999,9999,9999,1869454428
59,19,7,Jits_ISO_8,30,9999,9999,9999,1870254136
59,19,7,Jits_ISO_8,31,9999,9999,9999,1871054916
59,19,7,Jits_ISO_8,32,9999,9999,9999,1871854712
59,19,7,Jits_ISO_8,33,9999,9999,9999,1872654428
59,19,7,Jits_ISO_8,34,9999,9999,9999,1873454180
59,19,7,Jits_ISO_8,35,9999,9999,9999,1874254904
59,19,7,Jits_ISO_8,36,9999,9999,9999,1875054700
59,19,7,Jits_ISO_8,37,9999,9999,9999,1875854408
59,19,7,Jits_ISO_8,38,9999,9999,9999,1876654204
59,19,7,Jits_ISO_8,39,9999,9999,9999,1877454928
59,19,7,Jits_ISO_8,40,9999,9999,9999,1878254712
59,19,7,Jits_ISO_8,41,9999,9999,9999,1879054424
59,19,7,Jits_ISO_8,42,9999,9999,9999,1879854204
59,19,7,Jits_ISO_8,43,9999,9999,9999,1880654952
59,19,7,Jits_ISO_8,44,9999,9999,9999,1881454644
59,19,7,Jits_ISO_8,45,9999,9999,9999,1882254428
59,19,7,Jits_ISO_8,46,9999,9999,9999,1883054156
59,19,7,Jits_ISO_8,47,9999,9999,9999,1883854944
59,19,7,Jits_ISO_8,48,9999,9999,9999,1884654668
59,19,7,Jits_ISO_8,49,9999,9999,9999,1885454448
59,19,7,Jits_ISO_8,50,9999,9999,9999,1886254152
59,19,7,Jits_ISO_8,51,9999,9999,9999,1887054912
59,19,7,Jits_ISO_8,52,9999,9999,9999,1887854696
59,19,7,Jits_ISO_8,53,9999,9999,9999,1888654432
59,19,7,Jits_ISO_8,54,9999,9999,9999,1889454136
59,19,7,Jits_ISO_8,55,9999,9999,9999,1890254932
59,19,7,Jits_ISO_8,56,9999,9999,9999,1891054712
59,19,7,Jits_ISO_8,57,9999,9999,9999,1891854436
59,19,7,Jits_ISO_8,58,9999,9999,9999,1892654144
59,19,7,Jits_ISO_8,59,9999,9999,9999,1893454900
59,19,7,Jits_ISO_8,60,9999,9999,9999,1894254680
59,19,7,Jits_ISO_8,61,9999,9999,9999,1895054400
59,19,7,Jits_ISO_8,62,9999,9999,9999,1895854192
59,19,7,Jits_ISO_8,63,9999,9999,9999,1896654964
59,19,7,Jits_ISO_8,64,9999,9999,9999,1897454680
59,19,7,Jits_ISO_8,65,9999,9999,9999,1898254392
59,19,7,Jits_ISO_8,66,9999,9999,9999,1899054180
59,19,7,Jits_ISO_8,67,9999,9999,9999,1899854944
59,19,7,Jits_ISO_8,68,9999,9999,9999,1900654656
59,19,7,Jits_ISO_8,69,9999,9999,9999,1901454460
59,19,7,Jits_ISO_8,70,9999,9999,9999,1902254176
59,19,7,Jits_ISO_8,71,9999,9999,9999,1903054964
59,19,7,Jits_ISO_8,72,9999,9999,9999,1903854668
59,19,7,Jits_ISO_8,73,9999,9999,9999,1904654396
59,19,7,Jits_ISO_8,74,9999,9999,9999,1905454132
59,19,7,Jits_ISO_8,75,9999,9999,9999,1906254940
59,19,7,Jits_ISO_8,76,9999,9999,9999,1907054660
59,19,7,Jits_ISO_8,77,9999,9999,9999,1907854460
59,19,7,Jits_ISO_8,78,9999,9999,9999,1908654164
59,19,7,Jits_ISO_8,79,9999,9999,9999,1909454960
59,19,7,Jits_ISO_8,80,9999,9999,9999,1910254668
59,19,7,Jits_ISO_8,81,9999,9999,9999,1911054452
59,19,7,Jits_ISO_8,82,9999,9999,9999,1911854160
59,19,7,Jits_ISO_8,83,9999,9999,9999,1912654964
59,19,7,Jits_ISO_8,84,9999,9999,9999,1913454680
59,19,7,Jits_ISO_8,85,9999,9999,9999,1914254412
59,19,7,Jits_ISO_8,86,9999,9999,9999,1915054192
59,19,7,Jits_ISO_8,87,9999,9999,9999,1915854968
59,19,7,Jits_ISO_8,88,9999,9999,9999,1916654676
59,19,7,Jits_ISO_8,89,9999,9999,9999,1917454392
59,19,7,Jits_ISO_8,90,9999,9999,9999,1918254132
59,19,7,Jits_ISO_8,91,9999,9999,9999,1919054948
59,19,7,Jits_ISO_8,92,9999,9999,9999,1919854672
59,19,7,Jits_ISO_8,93,9999,9999,9999,1920654456
59,19,7,Jits_ISO_8,94,9999,9999,9999,1921454168
59,19,7,Jits_ISO_8,95,9999,9999,9999,1922254944
59,19,7,Jits_ISO_8,96,9999,9999,9999,1923054668
59,19,7,Jits_ISO_8,97,9999,9999,9999,1923854448
59,19,7,Jits_ISO_8,98,9999,9999,9999,1924654172
59,19,7,Jits_ISO_8,99,9999,9999,9999,1925454936
59,19,7,Jits_ISO_8,100,9999,9999,9999,1926254648
59,19,7,Jits_ISO_8,101,9999,9999,9999,1927054432
59,19,7,Jits_ISO_8,102,9999,9999,9999,1927854136
59,19,7,Jits_ISO_8,103,9999,9999,9999,1928654916
59,19,7,Jits_ISO_8,104,9999,9999,9999,1929454700
59,19,7,Jits_ISO_8,105,9999,9999,9999,1930254420
59,19,7,Jits_ISO_8,106,9999,9999,9999,1931054196
59,19,7,Jits_ISO_8,107,9999,9999,9999,1931854932
59,19,7,Jits_ISO_8,108,9999,9999,9999,1932654640
59,19,7,Jits_ISO_8,109,9999,9999,9999,1933454424
59,19,7,Jits_ISO_8,110,9999,9999,9999,1934254148
59,19,7,Jits_ISO_8,111,9999,9999,9999,1935054932
59,19,7,Jits_ISO_8,112,9999,9999,9999,1935854648
59,19,7,Jits_ISO_8,113,9999,9999,9999,1936654448
59,19,7,Jits_ISO_8,114,9999,9999,9999,1937454156
59,19,7,Jits_ISO_8,115,9999,9999,9999,1938254904
59,19,7,Jits_ISO_8,116,9999,9999,9999,1939054696
59,19,7,Jits_ISO_8,117,9999,9999,9999,1939854412
59,19,7,Jits_ISO_8,118,9999,9999,9999,1940654200
59,19,7,Jits_ISO_8,119,9999,9999,9999,1941454900
59,20,5,ISIP_5,0,5,42,127,1998541092
59,20,5,ISIP_5,1,5,42,127,1999040856
59,20,5,ISIP_5,2,5,42,127,1999540572
59,20,5,ISIP_5,3,5,42,127,2000041264
59,20,5,ISIP_5,4,5,42,127,2000540980
59,20,5,ISIP_5,5,1,48,89,2000583440
59,20,5,ISIP_5,6,5,42,127,2001040724
59,20,5,ISIP_5,7,1,48,69,2001065012
59,20,5,ISIP_5,8,5,42,127,2001540640
59,20,5,ISIP_5,9,1,48,82,2001575100
59,20,5,ISIP_5,10,5,42,127,2002041084
59,20,5,ISIP_5,11,1,48,71,2002048764
59,20,5,ISIP_5,12,5,42,127,2002540852
59,20,5,ISIP_5,13,1,48,78,2002560948
59,20,5,ISIP_5,14,5,42,127,2003040548
59,20,5,ISIP_5,15,1,48,74,2003048460
59,20,5,ISIP_5,16,5,42,127,2003541660
59,20,5,ISIP_5,17,1,48,67,2003577840
59,20,5,ISIP_5,18,5,42,127,2004040984
59,20,5,ISIP_5,19,1,48,67,2004063920
59,20,5,ISIP_5,20,5,42,127,2004540756
59,20,5,ISIP_5,21,1,48,55,2004542020
59,20,5,ISIP_5,22,5,42,127,2005040376
59,20,5,ISIP_5,23,1,48,62,2005091664
59,20,5,ISIP_5,24,5,42,127,2005541492
59,20,5,ISIP_5,25,1,48,64,2005566976
59,20,5,ISIP_5,26,5,42,127,2006040812
59,20,5,ISIP_5,27,1,48,74,2006065328
59,20,5,ISIP_5,28,5,42,127,2006540584
59,20,5,ISIP_5,29,1,48,78,2006557464
59,20,5,ISIP_5,30,1,48,67,2007041624
59,20,5,ISIP_5,31,5,42,127,2007043032
59,20,5,ISIP_5,32,5,42,127,2007541168
59,20,5,ISIP_5,33,1,48,76,2007553040
59,20,5,ISIP_5,34,1,48,80,2008017936
59,20,5,ISIP_5,35,5,42,127,2008040784
59,20,5,ISIP_5,36,1,48,79,2008526532
59,20,5,ISIP_5,37,5,42,127,2008540404
59,20,5,ISIP_5,38,1,48,74,2009028148
59,20,5,ISIP_5,39,5,42,127,2009041444
59,20,5,ISIP_5,40,1,48,87,2009521108
59,20,5,ISIP_5,41,5,42,127,2009540892
59,20,5,ISIP_5,42,1,48,78,2010026340
59,20,5,ISIP_5,43,5,42,127,2010040584
59,20,5,ISIP_5,44,1,48,68,2010518180
59,20,5,ISIP_5,45,5,42,127,2010541624
59,20,5,ISIP_5,46,1,48,74,2011024380
59,20,5,ISIP_5,47,5,42,127,2011041396
59,20,5,ISIP_5,48,1,48,70,2011534320
59,20,5,ISIP_5,49,5,42,127,2011540940
59,20,5,ISIP_5,50,1,48,72,2012027584
59,20,5,ISIP_5,51,5,42,127,2012040412
59,20,5,ISIP_5,52,1,48,76,2012535732
59,20,5,ISIP_5,53,5,42,127,2012541676
59,20,5,ISIP_5,54,5,42,127,2013040856
59,20,5,ISIP_5,55,1,48,65,2013041824
59,20,5,ISIP_5,56,5,42,127,2013540700
59,20,5,ISIP_5,57,1,48,68,2013556536
59,20,5,ISIP_5,58,5,42,127,2014040396
59,20,5,ISIP_5,59,1,48,70,2014057352
59,20,5,ISIP_5,60,5,42,127,2014541436
59,20,5,ISIP_5,61,1,48,78,2014542548
59,20,5,ISIP_5,62,1,48,58,2015031068
59,20,5,ISIP_5,63,5,42,127,2015041200
59,20,5,ISIP_5,64,1,48,58,2015534208
59,20,5,ISIP_5,65,5,42,127,2015540596
59,20,5,ISIP_5,66,1,48,52,2016023424
59,20,5,ISIP_5,67,5,42,127,2016041412
59,20,5,ISIP_5,68,1,48,61,2016519084
59,20,5,ISIP_5,69,5,42,127,2016541108
59,20,5,ISIP_5,70,1,48,66,2017006740
59,20,5,ISIP_5,71,5,42,127,2017040808
59,20,5,ISIP_5,72,5,42,127,2017540432
59,20,5,ISIP_5,73,1,48,74,2017541624
59,20,5,ISIP_5,74,1,48,71,2018021540
59,20,5,ISIP_5,75,5,42,127,2018041168
59,20,5,ISIP_5,76,1,48,76,2018541068
59,20,5,ISIP_5,77,1,48,69,2019048912
59,20,5,ISIP_5,78,1,48,68,2019542396
59,20,5,ISIP_5,79,1,48,69,2020035692
59,20,5,ISIP_5,80,1,48,67,2020535152
59,20,5,ISIP_5,81,1,48,64,2021038672
59,20,5,ISIP_5,82,1,48,65,2021528548
59,20,5,ISIP_5,83,1,48,70,2022031008
59,20,5,ISIP_5,84,1,48,62,2022549260
59,20,5,ISIP_5,85,1,48,67,2023044088
59,20,5,ISIP_5,86,1,48,63,2023556276
59,20,5,ISIP_5,87,1,48,65,2024079148
59,20,5,ISIP_5,88,1,48,70,2024571212
59,20,5,ISIP_5,89,1,48,65,2025079880
59,20,5,ISIP_5,90,1,48,64,2025593032
59,20,5,ISIP_5,91,1,48,68,2026100200
59,20,5,ISIP_5,92,1,48,75,2026594432
59,20,5,ISIP_5,93,1,48,64,2027102276
59,20,5,ISIP_5,94,1,48,78,2027620140
59,20,5,ISIP_5,95,1,48,65,2028125644
59,20,5,ISIP_5,96,1,48,84,2028637752
59,20,5,ISIP_5,97,1,48,64,2029148732
59,20,5,ISIP_5,98,1,48,62,2029641168
59,20,5,ISIP_5,99,1,48,57,2030117972
59,20,5,ISIP_5,100,1,48,69,2030627756
59,20,5,ISIP_5,101,1,48,64,2031130068
59,20,5,ISIP_5,102,1,48,59,2031638664
59,20,5,ISIP_5,103,1,48,57,2032122268
59,20,5,ISIP_5,104,1,48,71,2032633700
59,20,5,ISIP_5,105,1,48,56,2033113944
59,20,5,ISIP_5,106,1,48,80,2033611392
59,20,5,ISIP_5,107,1,48,63,2034122376
59,20,5,ISIP_5,108,1,48,62,2034643312
59,20,5,ISIP_5,109,1,48,65,2035103860
59,20,5,ISIP_5,110,1,48,62,2035631820
59,20,5,ISIP_5,111,1,48,62,2036134952
59,20,5,ISIP_5,112,1,48,68,2036632544
59,20,5,ISIP_5,113,1,48,64,2037116828
59,20,5,ISIP_5,114,1,48,67,2037616900
59,20,5,ISIP_5,115,1,48,63,2038119280
59,20,5,ISIP_5,116,1,48,66,2038628772
59,20,5,ISIP_5,117,1,48,62,2039105576
59,20,5,ISIP_5,118,1,48,61,2039618728
59,20,5,ISIP_5,119,1,48,57,2040100920
59,20,5,ISIP_5,120,1,48,72,2040593800
59,20,5,ISIP_5,121,1,48,51,2041075612
59,20,5,ISIP_5,122,1,48,67,2041565880
59,20,5,ISIP_5,123,1,48,60,2042035160
59,20,5,ISIP_5,124,1,48,76,2042534480
59,20,5,ISIP_5,125,1,48,59,2043009712
59,20,5,ISIP_5,126,1,48,63,2043480308
59,20,5,ISIP_5,127,1,48,48,2043961376
59,20,5,ISIP_5,128,1,48,68,2044416336
59,20,5,ISIP_5,129,1,48,70,2044918796
59,20,5,ISIP_5,130,1,48,72,2045406812
59,20,5,ISIP_5,131,1,48,65,2045873040
59,20,5,ISIP_5,132,1,48,80,2046377372
59,20,5,ISIP_5,133,1,48,56,2046856200
59,20,5,ISIP_5,134,1,48,52,2047331876
59,20,5,ISIP_5,135,1,48,61,2047833436
59,20,5,ISIP_5,136,1,48,67,2048321232
59,20,5,ISIP_5,137,1,48,67,2048780760
59,20,5,ISIP_5,138,1,48,74,2049291744
59,20,5,ISIP_5,139,1,48,63,2049776472
59,20,5,ISIP_5,140,1,48,79,2050270632
59,20,5,ISIP_5,141,1,48,57,2050761944
59,20,5,ISIP_5,142,1,48,57,2051238868
59,20,5,ISIP_5,143,1,48,68,2051698772
59,20,5,ISIP_5,144,1,48,88,2052198908
59,20,5,ISIP_5,145,1,48,58,2052691616
59,20,5,ISIP_5,146,1,48,70,2053178740
59,20,5,ISIP_5,147,1,48,62,2053640732
59,20,5,ISIP_5,148,1,48,90,2054135264
59,20,5,ISIP_5,149,1,48,49,2054623656
59,20,5,ISIP_5,150,1,48,59,2055101332
59,20,5,ISIP_5,151,1,48,46,2055545744
59,20,5,ISIP_5,152,1,48,69,2056036672
59,20,5,ISIP_5,153,1,48,48,2056518940
59,20,5,ISIP_5,154,1,48,56,2056983920
59,20,5,ISIP_5,155,1,48,60,2057453840
59,20,5,ISIP_5,156,1,48,66,2057947328
59,20,5,ISIP_5,157,1,48,64,2058419464
59,20,5,ISIP_5,158,1,48,62,2058899180
59,20,5,ISIP_5,159,1,48,58,2059366260
59,20,5,ISIP_5,160,1,48,59,2059851364
59,20,5,ISIP_5,161,1,48,64,2060340208
59,20,5,ISIP_5,162,1,48,69,2060811700
59,20,5,ISIP_5,163,1,48,48,2061298828
59,20,5,ISIP_5,164,1,48,67,2061781908
59,20,5,ISIP_5,165,1,48,60,2062237668
59,20,5,ISIP_5,166,1,48,64,2062729132
59,20,5,ISIP_5,167,1,48,59,2063218280
59,20,5,ISIP_5,168,1,48,67,2063691044
59,20,5,ISIP_5,169,1,48,59,2064187964
59,20,5,ISIP_5,170,1,48,62,2064669404
59,20,5,ISIP_5,171,1,48,54,2065143660
59,20,5,ISIP_5,172,1,48,78,2065618000
59,20,5,ISIP_5,173,1,48,65,2066086696
59,20,5,ISIP_5,174,1,48,74,2066585040
59,20,5,ISIP_5,175,1,48,63,2067074412
59,20,5,ISIP_5,176,1,48,66,2067577316
59,20,5,ISIP_5,177,1,48,64,2068027100
59,20,5,ISIP_5,178,1,48,70,2068528736
59,20,5,ISIP_5,179,1,48,70,2069016612
59,20,5,ISIP_5,180,1,48,77,2069502164
59,20,5,ISIP_5,181,1,48,69,2069980536
59,20,5,ISIP_5,182,1,48,58,2070469304
59,20,5,ISIP_5,183,1,48,67,2070932772
59,20,5,ISIP_5,184,1,48,62,2071416228
59,20,5,ISIP_5,185,1,48,58,2071915468
59,20,5,ISIP_5,186,1,48,54,2072387036
59,20,5,ISIP_5,187,1,48,54,2072867204
59,20,5,ISIP_5,188,1,48,59,2073365172
59,20,5,ISIP_5,189,1,48,53,2073831508
59,20,5,ISIP_5,190,1,48,61,2074334712
59,20,5,ISIP_5,191,1,48,65,2074822884
59,20,5,ISIP_5,192,1,48,71,2075292404
59,20,5,ISIP_5,193,1,48,69,2075787388
59,20,5,ISIP_5,194,1,48,61,2076277276
59,20,5,ISIP_5,195,1,48,60,2076747272
59,20,5,ISIP_5,196,1,48,63,2077231480
59,20,5,ISIP_5,197,1,48,83,2077712548
59,20,5,ISIP_5,198,1,48,69,2078207080
59,20,5,ISIP_5,0,9999,9999,9999,1998538804
59,20,5,ISIP_5,1,9999,9999,9999,1999038572
59,20,5,ISIP_5,2,9999,9999,9999,1999538288
59,20,5,ISIP_5,3,9999,9999,9999,2000038976
59,20,5,ISIP_5,4,9999,9999,9999,2000538692
59,20,5,ISIP_5,5,9999,9999,9999,2001038436
59,20,5,ISIP_5,6,9999,9999,9999,2001538132
59,20,5,ISIP_5,7,9999,9999,9999,2002038872
59,20,5,ISIP_5,8,9999,9999,9999,2002538568
59,20,5,ISIP_5,9,9999,9999,9999,2003038264
59,20,5,ISIP_5,10,9999,9999,9999,2003539004
59,20,5,ISIP_5,11,9999,9999,9999,2004038772
59,20,5,ISIP_5,12,9999,9999,9999,2004538468
59,20,5,ISIP_5,13,9999,9999,9999,2005038164
59,20,5,ISIP_5,14,9999,9999,9999,2005538904
59,20,5,ISIP_5,15,9999,9999,9999,2006038600
59,20,5,ISIP_5,16,9999,9999,9999,2006538296
59,20,5,ISIP_5,17,9999,9999,9999,2007039036
59,20,5,ISIP_5,18,9999,9999,9999,2007538808
59,20,5,ISIP_5,19,9999,9999,9999,2008038496
59,20,5,ISIP_5,20,9999,9999,9999,2008538192
59,20,5,ISIP_5,21,9999,9999,9999,2009038936
59,20,5,ISIP_5,22,9999,9999,9999,2009538680
59,20,5,ISIP_5,23,9999,9999,9999,2010038372
59,20,5,ISIP_5,24,9999,9999,9999,2010539116
59,20,5,ISIP_5,25,9999,9999,9999,2011038812
59,20,5,ISIP_5,26,9999,9999,9999,2011538504
59,20,5,ISIP_5,27,9999,9999,9999,2012038200
59,20,5,ISIP_5,28,9999,9999,9999,2012538944
59,20,5,ISIP_5,29,9999,9999,9999,2013038644
59,20,5,ISIP_5,30,9999,9999,9999,2013538416
59,20,5,ISIP_5,31,9999,9999,9999,2014038108
59,20,5,ISIP_5,32,9999,9999,9999,2014538852
59,20,5,ISIP_5,33,9999,9999,9999,2015038540
59,20,5,ISIP_5,34,9999,9999,9999,2015538236
59,20,5,ISIP_5,35,9999,9999,9999,2016038980
59,20,5,ISIP_5,36,9999,9999,9999,2016538676
59,20,5,ISIP_5,37,9999,9999,9999,2017038444
59,20,5,ISIP_5,38,9999,9999,9999,2017538148
59,20,5,ISIP_5,39,9999,9999,9999,2018038880
59,20,5,ISIP_5,40,9999,9999,9999,2018538584
59,20,5,ISIP_5,41,9999,9999,9999,2019038276
59,20,5,ISIP_5,42,9999,9999,9999,2019539012
59,20,5,ISIP_5,43,9999,9999,9999,2020038772
59,20,5,ISIP_5,44,9999,9999,9999,2020538436
59,20,5,ISIP_5,45,9999,9999,9999,2021038152
59,20,5,ISIP_5,46,9999,9999,9999,2021538864
59,20,5,ISIP_5,47,9999,9999,9999,2022038628
59,20,5,ISIP_5,48,9999,9999,9999,2022538324
59,20,5,ISIP_5,49,9999,9999,9999,2023039064
59,20,5,ISIP_5,50,9999,9999,9999,2023538752
59,20,5,ISIP_5,51,9999,9999,9999,2024038520
59,20,5,ISIP_5,52,9999,9999,9999,2024538208
59,20,5,ISIP_5,53,9999,9999,9999,2025038944
59,20,5,ISIP_5,54,9999,9999,9999,2025538636
59,20,5,ISIP_5,55,9999,9999,9999,2026038328
59,20,5,ISIP_5,56,9999,9999,9999,2026539064
59,20,5,ISIP_5,57,9999,9999,9999,2027038832
59,20,5,ISIP_5,58,9999,9999,9999,2027538520
59,20,5,ISIP_5,59,9999,9999,9999,2028038264
59,20,5,ISIP_5,60,9999,9999,9999,2028539000
59,20,5,ISIP_5,61,9999,9999,9999,2029038692
59,20,5,ISIP_5,62,9999,9999,9999,2029538380
59,20,5,ISIP_5,63,9999,9999,9999,2030038072
59,20,5,ISIP_5,64,9999,9999,9999,2030538808
59,20,5,ISIP_5,65,9999,9999,9999,2031038552
59,20,5,ISIP_5,66,9999,9999,9999,2031538240
59,20,5,ISIP_5,67,9999,9999,9999,2032038976
59,20,5,ISIP_5,68,9999,9999,9999,2032538744
59,20,5,ISIP_5,69,9999,9999,9999,2033038436
59,20,5,ISIP_5,70,9999,9999,9999,2033538124
59,20,5,ISIP_5,71,9999,9999,9999,2034038860
59,20,5,ISIP_5,72,9999,9999,9999,2034538556
59,20,5,ISIP_5,73,9999,9999,9999,2035038320
59,20,5,ISIP_5,74,9999,9999,9999,2035539056
59,20,5,ISIP_5,75,9999,9999,9999,2036038748
59,20,5,ISIP_5,76,9999,9999,9999,2036538436
59,20,5,ISIP_5,77,9999,9999,9999,2037038128
59,20,5,ISIP_5,78,9999,9999,9999,2037538868
59,20,5,ISIP_5,79,9999,9999,9999,2038038632
59,20,5,ISIP_5,80,9999,9999,9999,2038538324
59,20,5,ISIP_5,81,9999,9999,9999,2039039060
59,20,5,ISIP_5,82,9999,9999,9999,2039538752
59,20,5,ISIP_5,83,9999,9999,9999,2040038520
59,20,5,ISIP_5,84,9999,9999,9999,2040538212
59,20,5,ISIP_5,85,9999,9999,9999,2041038948
59,20,5,ISIP_5,86,9999,9999,9999,2041538616
59,20,5,ISIP_5,87,9999,9999,9999,2042038372
59,20,5,ISIP_5,88,9999,9999,9999,2042539112
59,20,5,ISIP_5,89,9999,9999,9999,2043038800
59,20,5,ISIP_5,90,9999,9999,9999,2043538492
59,20,5,ISIP_5,91,9999,9999,9999,2044038256
59,20,5,ISIP_5,92,9999,9999,9999,2044538976
59,20,5,ISIP_5,93,9999,9999,9999,2045038668
59,20,5,ISIP_5,94,9999,9999,9999,2045538360
59,20,5,ISIP_5,95,9999,9999,9999,2046038124
59,20,5,ISIP_5,96,9999,9999,9999,2046538860
59,20,5,ISIP_5,97,9999,9999,9999,2047038552
59,20,5,ISIP_5,98,9999,9999,9999,2047538244
59,20,5,ISIP_5,99,9999,9999,9999,2048038980
59,20,5,ISIP_5,100,9999,9999,9999,2048538676
59,20,5,ISIP_5,101,9999,9999,9999,2049038440
59,20,5,ISIP_5,102,9999,9999,9999,2049538128
59,20,5,ISIP_5,103,9999,9999,9999,2050038868
59,20,5,ISIP_5,104,9999,9999,9999,2050538556
59,20,5,ISIP_5,105,9999,9999,9999,2051038324
59,20,5,ISIP_5,106,9999,9999,9999,2051539060
59,20,5,ISIP_5,107,9999,9999,9999,2052038748
59,20,5,ISIP_5,108,9999,9999,9999,2052538464
59,20,5,ISIP_5,109,9999,9999,9999,2053038156
59,20,5,ISIP_5,110,9999,9999,9999,2053538892
59,20,5,ISIP_5,111,9999,9999,9999,2054038584
59,20,5,ISIP_5,112,9999,9999,9999,2054538348
59,20,5,ISIP_5,113,9999,9999,9999,2055039088
59,20,5,ISIP_5,114,9999,9999,9999,2055538776
59,20,5,ISIP_5,115,9999,9999,9999,2056038460
59,20,5,ISIP_5,116,9999,9999,9999,2056538228
59,20,5,ISIP_5,117,9999,9999,9999,2057038964
59,20,5,ISIP_5,118,9999,9999,9999,2057538652
59,20,5,ISIP_5,119,9999,9999,9999,2058038344
59,20,5,ISIP_5,120,9999,9999,9999,2058539064
59,20,5,ISIP_5,121,9999,9999,9999,2059038832
59,20,5,ISIP_5,122,9999,9999,9999,2059538520
59,20,5,ISIP_5,123,9999,9999,9999,2060038212
59,20,5,ISIP_5,124,9999,9999,9999,2060538948
59,20,5,ISIP_5,125,9999,9999,9999,2061038640
59,20,5,ISIP_5,126,9999,9999,9999,2061538404
59,20,5,ISIP_5,127,9999,9999,9999,2062038096
59,20,5,ISIP_5,128,9999,9999,9999,2062538832
59,20,5,ISIP_5,129,9999,9999,9999,2063038572
59,20,5,ISIP_5,130,9999,9999,9999,2063538264
59,20,5,ISIP_5,131,9999,9999,9999,2064039000
59,20,5,ISIP_5,132,9999,9999,9999,2064538692
59,20,5,ISIP_5,133,9999,9999,9999,2065038456
59,20,5,ISIP_5,134,9999,9999,9999,2065538148
59,20,5,ISIP_5,135,9999,9999,9999,2066038884
59,20,5,ISIP_5,136,9999,9999,9999,2066538576
59,20,5,ISIP_5,137,9999,9999,9999,2067038268
59,20,5,ISIP_5,138,9999,9999,9999,2067539004
59,20,5,ISIP_5,139,9999,9999,9999,2068038760
59,20,5,ISIP_5,140,9999,9999,9999,2068538452
59,20,5,ISIP_5,141,9999,9999,9999,2069038144
59,20,5,ISIP_5,142,9999,9999,9999,2069538880
59,20,5,ISIP_5,143,9999,9999,9999,2070038644
59,20,5,ISIP_5,144,9999,9999,9999,2070538336
59,20,5,ISIP_5,145,9999,9999,9999,2071039060
59,20,5,ISIP_5,146,9999,9999,9999,2071538748
59,20,5,ISIP_5,147,9999,9999,9999,2072038512
59,20,5,ISIP_5,148,9999,9999,9999,2072538204
59,20,5,ISIP_5,149,9999,9999,9999,2073038940
59,20,5,ISIP_5,150,9999,9999,9999,2073538680
59,20,5,ISIP_5,151,9999,9999,9999,2074038372
59,20,5,ISIP_5,152,9999,9999,9999,2074539112
59,20,5,ISIP_5,153,9999,9999,9999,2075038804
59,20,5,ISIP_5,154,9999,9999,9999,2075538492
59,20,5,ISIP_5,155,9999,9999,9999,2076038256
59,20,5,ISIP_5,156,9999,9999,9999,2076538996
59,20,5,ISIP_5,157,9999,9999,9999,2077038684
59,20,5,ISIP_5,158,9999,9999,9999,2077538376
59,20,5,ISIP_5,159,9999,9999,9999,2078038068
59,21,3,ISIP_8,0,5,42,127,2111128920
59,21,3,ISIP_8,1,5,42,127,2111928748
59,21,3,ISIP_8,2,5,42,127,2112728380
59,21,3,ISIP_8,3,5,42,127,2113529328
59,21,3,ISIP_8,4,5,42,127,2114329232
59,21,3,ISIP_8,5,1,48,86,2114353668
59,21,3,ISIP_8,6,1,48,72,2115076496
59,21,3,ISIP_8,7,5,42,127,2115128812
59,21,3,ISIP_8,8,1,48,69,2115881312
59,21,3,ISIP_8,9,5,42,127,2115928396
59,21,3,ISIP_8,10,1,48,71,2116717924
59,21,3,ISIP_8,11,5,42,127,2116729100
59,21,3,ISIP_8,12,1,48,70,2117505836
59,21,3,ISIP_8,13,5,42,127,2117528832
59,21,3,ISIP_8,14,1,48,75,2118296440
59,21,3,ISIP_8,15,5,42,127,2118328792
59,21,3,ISIP_8,16,1,48,75,2119100140
59,21,3,ISIP_8,17,5,42,127,2119128400
59,21,3,ISIP_8,18,1,48,69,2119886584
59,21,3,ISIP_8,19,5,42,127,2119929180
59,21,3,ISIP_8,20,1,48,71,2120670316
59,21,3,ISIP_8,21,5,42,127,2120729136
59,21,3,ISIP_8,22,1,48,69,2121496748
59,21,3,ISIP_8,23,5,42,127,2121528644
59,21,3,ISIP_8,24,1,48,70,2122308148
59,21,3,ISIP_8,25,5,42,127,2122328304
59,21,3,ISIP_8,26,1,48,77,2123080808
59,21,3,ISIP_8,27,5,42,127,2123129160
59,21,3,ISIP_8,28,1,48,67,2123894744
59,21,3,ISIP_8,29,5,42,127,2123928968
59,21,3,ISIP_8,30,1,48,67,2124704204
59,21,3,ISIP_8,31,5,42,127,2124728624
59,21,3,ISIP_8,32,1,48,69,2125511592
59,21,3,ISIP_8,33,5,42,127,2125528456
59,21,3,ISIP_8,34,1,48,74,2126292776
59,21,3,ISIP_8,35,5,42,127,2126329164
59,21,3,ISIP_8,36,5,42,127,2127129052
59,21,3,ISIP_8,37,1,48,51,2127150944
59,21,3,ISIP_8,38,1,48,63,2127897552
59,21,3,ISIP_8,39,5,42,127,2127928556
59,21,3,ISIP_8,40,1,48,62,2128663704
59,21,3,ISIP_8,41,5,42,127,2128728288
59,21,3,ISIP_8,42,1,48,60,2129454760
59,21,3,ISIP_8,43,5,42,127,2129529144
59,21,3,ISIP_8,44,1,48,66,2130288304
59,21,3,ISIP_8,45,5,42,127,2130328876
59,21,3,ISIP_8,46,1,48,62,2131076964
59,21,3,ISIP_8,47,5,42,127,2131128612
59,21,3,ISIP_8,48,1,48,67,2131889936
59,21,3,ISIP_8,49,5,42,127,2131928368
59,21,3,ISIP_8,50,1,48,78,2132697924
59,21,3,ISIP_8,51,5,42,127,2132729148
59,21,3,ISIP_8,52,1,48,70,2133508504
59,21,3,ISIP_8,53,5,42,127,2133528808
59,21,3,ISIP_8,54,5,42,127,2134328772
59,21,3,ISIP_8,55,1,48,75,2134403544
59,21,3,ISIP_8,56,1,48,66,2135154356
59,21,3,ISIP_8,57,1,48,72,2135943836
59,21,3,ISIP_8,58,1,48,76,2136776352
59,21,3,ISIP_8,59,1,48,57,2137634876
59,21,3,ISIP_8,60,1,48,59,2138419192
59,21,3,ISIP_8,61,1,48,66,2139220196
59,21,3,ISIP_8,62,1,48,68,2140052012
59,21,3,ISIP_8,63,1,48,60,2140850320
59,21,3,ISIP_8,64,1,48,64,2141667200
59,21,3,ISIP_8,65,1,48,67,2142490192
59,21,3,ISIP_8,66,1,48,63,2143315504
59,21,3,ISIP_8,67,1,48,50,2144088160
59,21,3,ISIP_8,68,1,48,67,2144857144
59,21,3,ISIP_8,69,1,48,60,2145630472
59,21,3,ISIP_8,70,1,48,48,2146430868
59,21,3,ISIP_8,71,1,48,56,2147211152
59,21,3,ISIP_8,72,1,48,54,2147960316
59,21,3,ISIP_8,73,1,48,62,2148752040
59,21,3,ISIP_8,74,1,48,60,2149585456
59,21,3,ISIP_8,75,1,48,59,2150378300
59,21,3,ISIP_8,76,1,48,53,2151141532
59,21,3,ISIP_8,77,1,48,72,2151935128
59,21,3,ISIP_8,78,1,48,21,2152771956
59,21,3,ISIP_8,79,1,48,71,2153538624
59,21,3,ISIP_8,80,1,48,59,2154298244
59,21,3,ISIP_8,81,1,48,77,2155086984
59,21,3,ISIP_8,82,1,48,66,2155877060
59,21,3,ISIP_8,83,1,48,64,2156644408
59,21,3,ISIP_8,84,1,48,69,2157431868
59,21,3,ISIP_8,85,1,48,63,2158212968
59,21,3,ISIP_8,86,1,48,69,2159008288
59,21,3,ISIP_8,87,1,48,62,2159807816
59,21,3,ISIP_8,88,1,48,76,2160587952
59,21,3,ISIP_8,89,1,48,65,2161336568
59,21,3,ISIP_8,90,1,48,89,2162116800
59,21,3,ISIP_8,91,1,48,61,2162911292
59,21,3,ISIP_8,92,1,48,73,2163652156
59,21,3,ISIP_8,93,1,48,71,2164462132
59,21,3,ISIP_8,94,1,48,81,2165230000
59,21,3,ISIP_8,95,1,48,63,2165993372
59,21,3,ISIP_8,96,1,48,69,2166755104
59,21,3,ISIP_8,97,1,48,65,2167569648
59,21,3,ISIP_8,98,1,48,74,2168393160
59,21,3,ISIP_8,99,1,48,62,2169159084
59,21,3,ISIP_8,100,1,48,64,2169970252
59,21,3,ISIP_8,101,1,48,78,2170750684
59,21,3,ISIP_8,102,1,48,65,2171514360
59,21,3,ISIP_8,103,1,48,69,2172335336
59,21,3,ISIP_8,104,1,48,25,2173124092
59,21,3,ISIP_8,105,1,48,58,2173909908
59,21,3,ISIP_8,106,1,48,17,2174663936
59,21,3,ISIP_8,107,1,48,34,2174668328
59,21,3,ISIP_8,108,1,48,67,2175423552
59,21,3,ISIP_8,109,1,48,69,2176168280
59,21,3,ISIP_8,110,1,48,77,2176959432
59,21,3,ISIP_8,111,1,48,75,2177686736
59,21,3,ISIP_8,112,1,48,71,2178493264
59,21,3,ISIP_8,113,1,48,74,2179276268
59,21,3,ISIP_8,114,1,48,68,2180030292
59,21,3,ISIP_8,115,1,48,80,2180817984
59,21,3,ISIP_8,116,1,48,62,2181610156
59,21,3,ISIP_8,117,1,48,65,2182423948
59,21,3,ISIP_8,118,1,48,56,2183212456
59,21,3,ISIP_8,119,1,48,73,2183975608
59,21,3,ISIP_8,120,1,48,63,2184741232
59,21,3,ISIP_8,121,1,48,68,2185539916
59,21,3,ISIP_8,122,1,48,56,2186298116
59,21,3,ISIP_8,123,1,48,72,2187077952
59,21,3,ISIP_8,124,1,48,73,2187844240
59,21,3,ISIP_8,125,1,48,73,2188658036
59,21,3,ISIP_8,126,1,48,65,2189516804
59,21,3,ISIP_8,127,1,48,77,2190277188
59,21,3,ISIP_8,128,1,48,69,2191140064
59,21,3,ISIP_8,129,1,48,16,2191938368
59,21,3,ISIP_8,130,1,48,75,2192688348
59,21,3,ISIP_8,131,1,48,80,2193434364
59,21,3,ISIP_8,132,1,48,71,2194239108
59,21,3,ISIP_8,133,1,48,81,2194974432
59,21,3,ISIP_8,134,1,48,68,2195731380
59,21,3,ISIP_8,135,1,48,66,2196467836
59,21,3,ISIP_8,136,1,48,72,2197208624
59,21,3,ISIP_8,137,1,48,67,2198032812
59,21,3,ISIP_8,138,1,48,64,2198842936
59,21,3,ISIP_8,139,1,48,67,2199640500
59,21,3,ISIP_8,140,1,48,71,2200387724
59,21,3,ISIP_8,141,1,48,74,2201144284
59,21,3,ISIP_8,142,1,48,75,2201949556
59,21,3,ISIP_8,143,1,48,84,2202789672
59,21,3,ISIP_8,144,1,48,81,2203574372
59,21,3,ISIP_8,145,1,48,67,2204337892
59,21,3,ISIP_8,146,1,48,67,2205105688
59,21,3,ISIP_8,147,1,48,65,2205955852
59,21,3,ISIP_8,148,1,48,60,2206760668
59,21,3,ISIP_8,149,1,48,60,2207591212
59,21,3,ISIP_8,150,1,48,55,2208325268
59,21,3,ISIP_8,151,1,48,65,2209149088
59,21,3,ISIP_8,152,1,48,66,2209894960
59,21,3,ISIP_8,153,1,48,70,2210722440
59,21,3,ISIP_8,154,1,48,58,2211513188
59,21,3,ISIP_8,155,1,48,70,2212358204
59,21,3,ISIP_8,156,1,48,73,2213181716
59,21,3,ISIP_8,157,1,48,66,2213955340
59,21,3,ISIP_8,158,1,48,62,2214827476
59,21,3,ISIP_8,159,1,48,73,2215630592
59,21,3,ISIP_8,160,1,48,61,2216407584
59,21,3,ISIP_8,161,1,48,78,2217208512
59,21,3,ISIP_8,162,1,48,72,2217970540
59,21,3,ISIP_8,163,1,48,76,2218763236
59,21,3,ISIP_8,164,1,48,73,2219530804
59,21,3,ISIP_8,165,1,48,73,2220325900
59,21,3,ISIP_8,166,1,48,72,2221117628
59,21,3,ISIP_8,167,1,48,71,2221954232
59,21,3,ISIP_8,168,1,48,72,2222747300
59,21,3,ISIP_8,169,1,48,63,2223559100
59,21,3,ISIP_8,170,1,48,65,2224329580
59,21,3,ISIP_8,171,1,48,68,2225067728
59,21,3,ISIP_8,172,1,48,74,2225888576
59,21,3,ISIP_8,173,1,48,75,2226708576
59,21,3,ISIP_8,174,1,48,66,2227485188
59,21,3,ISIP_8,175,1,48,88,2228212216
59,21,3,ISIP_8,176,1,48,69,2229043732
59,21,3,ISIP_8,177,1,48,67,2229864556
59,21,3,ISIP_8,178,1,48,68,2230648280
59,21,3,ISIP_8,0,9999,9999,9999,2111126628
59,21,3,ISIP_8,1,9999,9999,9999,2111926384
59,21,3,ISIP_8,2,9999,9999,9999,2112726092
59,21,3,ISIP_8,3,9999,9999,9999,2113526892
59,21,3,ISIP_8,4,9999,9999,9999,2114326648
59,21,3,ISIP_8,5,9999,9999,9999,2115126376
59,21,3,ISIP_8,6,9999,9999,9999,2115926108
59,21,3,ISIP_8,7,9999,9999,9999,2116726888
59,21,3,ISIP_8,8,9999,9999,9999,2117526620
59,21,3,ISIP_8,9,9999,9999,9999,2118326352
59,21,3,ISIP_8,10,9999,9999,9999,2119126112
59,21,3,ISIP_8,11,9999,9999,9999,2119926892
59,21,3,ISIP_8,12,9999,9999,9999,2120726624
59,21,3,ISIP_8,13,9999,9999,9999,2121526356
59,21,3,ISIP_8,14,9999,9999,9999,2122326088
59,21,3,ISIP_8,15,9999,9999,9999,2123126872
59,21,3,ISIP_8,16,9999,9999,9999,2123926604
59,21,3,ISIP_8,17,9999,9999,9999,2124726336
59,21,3,ISIP_8,18,9999,9999,9999,2125526092
59,21,3,ISIP_8,19,9999,9999,9999,2126326872
59,21,3,ISIP_8,20,9999,9999,9999,2127126616
59,21,3,ISIP_8,21,9999,9999,9999,2127926340
59,21,3,ISIP_8,22,9999,9999,9999,2128726076
59,21,3,ISIP_8,23,9999,9999,9999,2129526856
59,21,3,ISIP_8,24,9999,9999,9999,2130326588
59,21,3,ISIP_8,25,9999,9999,9999,2131126324
59,21,3,ISIP_8,26,9999,9999,9999,2131926080
59,21,3,ISIP_8,27,9999,9999,9999,2132726860
59,21,3,ISIP_8,28,9999,9999,9999,2133526592
59,21,3,ISIP_8,29,9999,9999,9999,2134326332
59,21,3,ISIP_8,30,9999,9999,9999,2135126068
59,21,3,ISIP_8,31,9999,9999,9999,2135926840
59,21,3,ISIP_8,32,9999,9999,9999,2136726644
59,21,3,ISIP_8,33,9999,9999,9999,2137526372
59,21,3,ISIP_8,34,9999,9999,9999,2138326128
59,21,3,ISIP_8,35,9999,9999,9999,2139126828
59,21,3,ISIP_8,36,9999,9999,9999,2139926632
59,21,3,ISIP_8,37,9999,9999,9999,2140726360
59,21,3,ISIP_8,38,9999,9999,9999,2141526088
59,21,3,ISIP_8,39,9999,9999,9999,2142326868
59,21,3,ISIP_8,40,9999,9999,9999,2143126596
59,21,3,ISIP_8,41,9999,9999,9999,2143926324
59,21,3,ISIP_8,42,9999,9999,9999,2144726080
59,21,3,ISIP_8,43,9999,9999,9999,2145526856
59,21,3,ISIP_8,44,9999,9999,9999,2146326584
59,21,3,ISIP_8,45,9999,9999,9999,2147126388
59,21,3,ISIP_8,46,9999,9999,9999,2147926116
59,21,3,ISIP_8,47,9999,9999,9999,2148726892
59,21,3,ISIP_8,48,9999,9999,9999,2149526620
59,21,3,ISIP_8,49,9999,9999,9999,2150326352
59,21,3,ISIP_8,50,9999,9999,9999,2151126104
59,21,3,ISIP_8,51,9999,9999,9999,2151926880
59,21,3,ISIP_8,52,9999,9999,9999,2152726608
59,21,3,ISIP_8,53,9999,9999,9999,2153526340
59,21,3,ISIP_8,54,9999,9999,9999,2154326136
59,21,3,ISIP_8,55,9999,9999,9999,2155126836
59,21,3,ISIP_8,56,9999,9999,9999,2155926640
59,21,3,ISIP_8,57,9999,9999,9999,2156726372
59,21,3,ISIP_8,58,9999,9999,9999,2157526108
59,21,3,ISIP_8,59,9999,9999,9999,2158326884
59,21,3,ISIP_8,60,9999,9999,9999,2159126616
59,21,3,ISIP_8,61,9999,9999,9999,2159926344
59,21,3,ISIP_8,62,9999,9999,9999,2160726072
59,21,3,ISIP_8,63,9999,9999,9999,2161526848
59,21,3,ISIP_8,64,9999,9999,9999,2162326580
59,21,3,ISIP_8,65,9999,9999,9999,2163126384
59,21,3,ISIP_8,66,9999,9999,9999,2163926064
59,21,3,ISIP_8,67,9999,9999,9999,2164726840
59,21,3,ISIP_8,68,9999,9999,9999,2165526644
59,21,3,ISIP_8,69,9999,9999,9999,2166326376
59,21,3,ISIP_8,70,9999,9999,9999,2167126104
59,21,3,ISIP_8,71,9999,9999,9999,2167926880
59,21,3,ISIP_8,72,9999,9999,9999,2168726608
59,21,3,ISIP_8,73,9999,9999,9999,2169526336
59,21,3,ISIP_8,74,9999,9999,9999,2170326092
59,21,3,ISIP_8,75,9999,9999,9999,2171126868
59,21,3,ISIP_8,76,9999,9999,9999,2171926596
59,21,3,ISIP_8,77,9999,9999,9999,2172726324
59,21,3,ISIP_8,78,9999,9999,9999,2173526128
59,21,3,ISIP_8,79,9999,9999,9999,2174326832
59,21,3,ISIP_8,80,9999,9999,9999,2175126612
59,21,3,ISIP_8,81,9999,9999,9999,2175926340
59,21,3,ISIP_8,82,9999,9999,9999,2176726096
59,21,3,ISIP_8,83,9999,9999,9999,2177526872
59,21,3,ISIP_8,84,9999,9999,9999,2178326600
59,21,3,ISIP_8,85,9999,9999,9999,2179126328
59,21,3,ISIP_8,86,9999,9999,9999,2179926132
59,21,3,ISIP_8,87,9999,9999,9999,2180726836
59,21,3,ISIP_8,88,9999,9999,9999,2181526636
59,21,3,ISIP_8,89,9999,9999,9999,2182326368
59,21,3,ISIP_8,90,9999,9999,9999,2183126124
59,21,3,ISIP_8,91,9999,9999,9999,2183926896
59,21,3,ISIP_8,92,9999,9999,9999,2184726628
59,21,3,ISIP_8,93,9999,9999,9999,2185526356
59,21,3,ISIP_8,94,9999,9999,9999,2186326080
59,21,3,ISIP_8,95,9999,9999,9999,2187126856
59,21,3,ISIP_8,96,9999,9999,9999,2187926584
59,21,3,ISIP_8,97,9999,9999,9999,2188726388
59,21,3,ISIP_8,98,9999,9999,9999,2189526068
59,21,3,ISIP_8,99,9999,9999,9999,2190326844
59,21,3,ISIP_8,100,9999,9999,9999,2191126580
59,21,3,ISIP_8,101,9999,9999,9999,2191926384
59,21,3,ISIP_8,102,9999,9999,9999,2192726104
59,21,3,ISIP_8,103,9999,9999,9999,2193526880
59,21,3,ISIP_8,104,9999,9999,9999,2194326612
59,21,3,ISIP_8,105,9999,9999,9999,2195126324
59,21,3,ISIP_8,106,9999,9999,9999,2195926080
59,21,3,ISIP_8,107,9999,9999,9999,2196726856
59,21,3,ISIP_8,108,9999,9999,9999,2197526584
59,21,3,ISIP_8,109,9999,9999,9999,2198326392
59,21,3,ISIP_8,110,9999,9999,9999,2199126120
59,21,3,ISIP_8,111,9999,9999,9999,2199926896
59,21,3,ISIP_8,112,9999,9999,9999,2200726628
59,21,3,ISIP_8,113,9999,9999,9999,2201526356
59,21,3,ISIP_8,114,9999,9999,9999,2202326108
59,21,3,ISIP_8,115,9999,9999,9999,2203126884
59,21,3,ISIP_8,116,9999,9999,9999,2203926612
59,21,3,ISIP_8,117,9999,9999,9999,2204726344
59,21,3,ISIP_8,118,9999,9999,9999,2205526072
59,21,3,ISIP_8,119,9999,9999,9999,2206326848
59,21,3,ISIP_8,120,9999,9999,9999,2207126580
59,21,3,ISIP_8,121,9999,9999,9999,2207926380
59,21,3,ISIP_8,122,9999,9999,9999,2208726136
59,21,3,ISIP_8,123,9999,9999,9999,2209526840
59,21,3,ISIP_8,124,9999,9999,9999,2210326644
59,21,3,ISIP_8,125,9999,9999,9999,2211126372
59,21,3,ISIP_8,126,9999,9999,9999,2211926100
59,21,3,ISIP_8,127,9999,9999,9999,2212726876
59,21,3,ISIP_8,128,9999,9999,9999,2213526604
59,21,3,ISIP_8,129,9999,9999,9999,2214326336
59,21,3,ISIP_8,130,9999,9999,9999,2215126092
59,21,3,ISIP_8,131,9999,9999,9999,2215926868
59,21,3,ISIP_8,132,9999,9999,9999,2216726596
59,21,3,ISIP_8,133,9999,9999,9999,2217526324
59,21,3,ISIP_8,134,9999,9999,9999,2218326132
59,21,3,ISIP_8,135,9999,9999,9999,2219126832
59,21,3,ISIP_8,136,9999,9999,9999,2219926636
59,21,3,ISIP_8,137,9999,9999,9999,2220726364
59,21,3,ISIP_8,138,9999,9999,9999,2221526120
59,21,3,ISIP_8,139,9999,9999,9999,2222326892
59,21,3,ISIP_8,140,9999,9999,9999,2223126624
59,21,3,ISIP_8,141,9999,9999,9999,2223926352
59,21,3,ISIP_8,142,9999,9999,9999,2224726084
59,21,3,ISIP_8,143,9999,9999,9999,2225526856
59,21,3,ISIP_8,144,9999,9999,9999,2226326588
59,21,3,ISIP_8,145,9999,9999,9999,2227126320
59,21,3,ISIP_8,146,9999,9999,9999,2227926072
59,21,3,ISIP_8,147,9999,9999,9999,2228726848
59,21,3,ISIP_8,148,9999,9999,9999,2229526576
59,21,3,ISIP_8,149,9999,9999,9999,2230326380
59,22,11,Pattern_Practice,0,1,38,102,2353545964
59,22,11,Pattern_Practice,1,1,38,81,2353546532
59,22,11,Pattern_Practice,2,1,38,127,2353547188
59,22,11,Pattern_Practice,3,1,48,23,2353547396
59,22,11,Pattern_Practice,4,1,38,62,2353548248
59,22,11,Pattern_Practice,5,1,48,72,2353548912
59,22,11,Pattern_Practice,6,1,48,62,2353549576
59,22,11,Pattern_Practice,7,1,48,57,2353550140
59,22,11,Pattern_Practice,8,1,38,71,2353550804
59,22,11,Pattern_Practice,9,1,48,144,2353557584
59,22,11,Pattern_Practice,10,1,38,83,2353558184
59,22,11,Pattern_Practice,11,1,48,95,2353798548
59,22,11,Pattern_Practice,12,5,42,127,2354048412
59,22,11,Pattern_Practice,13,5,42,127,2354548356
59,22,11,Pattern_Practice,14,5,42,127,2355047848
59,22,11,Pattern_Practice,15,5,42,127,2355547564
59,22,11,Pattern_Practice,16,1,38,87,2356019344
59,22,11,Pattern_Practice,17,5,42,127,2356048320
59,22,11,Pattern_Practice,18,1,38,83,2356262008
59,22,11,Pattern_Practice,19,1,38,95,2356509888
59,22,11,Pattern_Practice,20,5,42,127,2356548140
59,22,11,Pattern_Practice,21,1,38,78,2356639956
59,22,11,Pattern_Practice,22,1,38,111,2356752004
59,22,11,Pattern_Practice,23,1,38,67,2356855880
59,22,11,Pattern_Practice,24,1,38,116,2356999792
59,22,11,Pattern_Practice,25,5,42,127,2357047624
59,22,11,Pattern_Practice,26,1,38,96,2357254724
59,22,11,Pattern_Practice,27,1,38,93,2357355228
59,22,11,Pattern_Practice,28,5,42,127,2357548328
59,22,11,Pattern_Practice,29,1,38,102,2357605900
59,22,11,Pattern_Practice,30,1,38,81,2357723704
59,22,11,Pattern_Practice,31,1,38,124,2357975256
59,22,11,Pattern_Practice,32,5,42,127,2358048216
59,22,11,Pattern_Practice,33,1,38,127,2358246116
59,22,11,Pattern_Practice,34,1,38,95,2358476124
59,22,11,Pattern_Practice,35,5,42,127,2358548260
59,22,11,Pattern_Practice,36,1,38,83,2358602976
59,22,11,Pattern_Practice,37,1,38,104,2358726248
59,22,11,Pattern_Practice,38,1,38,72,2358833632
59,22,11,Pattern_Practice,39,1,38,127,2358983232
59,22,11,Pattern_Practice,40,5,42,127,2359047444
59,22,11,Pattern_Practice,41,1,38,104,2359270556
59,22,11,Pattern_Practice,42,1,38,127,2359423492
59,22,11,Pattern_Practice,43,5,42,127,2359548300
59,22,11,Pattern_Practice,44,1,38,103,2359683212
59,22,11,Pattern_Practice,45,1,38,82,2359814184
59,22,11,Pattern_Practice,46,5,42,127,2360048196
59,22,11,Pattern_Practice,47,1,38,123,2360080184
59,22,11,Pattern_Practice,48,1,38,96,2360333452
59,22,11,Pattern_Practice,49,5,42,127,2360547792
59,22,11,Pattern_Practice,50,1,38,73,2360594964
59,22,11,Pattern_Practice,51,1,38,114,2360685000
59,22,11,Pattern_Practice,52,1,38,73,2360821360
59,22,11,Pattern_Practice,53,1,38,118,2360942736
59,22,11,Pattern_Practice,54,5,42,127,2361048468
59,22,11,Pattern_Practice,55,1,38,78,2361069988
59,22,11,Pattern_Practice,56,1,38,81,2361213500
59,22,11,Pattern_Practice,57,1,48,23,2361220812
59,22,11,Pattern_Practice,58,1,38,97,2361544012
59,22,11,Pattern_Practice,59,5,42,127,2361548164
59,22,11,Pattern_Practice,60,1,38,62,2361866112
59,22,11,Pattern_Practice,61,1,48,18,2361873424
59,22,11,Pattern_Practice,62,1,38,116,2362007564
59,22,11,Pattern_Practice,63,5,42,127,2362048084
59,22,11,Pattern_Practice,64,1,38,83,2362285308
59,22,11,Pattern_Practice,65,5,42,127,2362547516
59,22,11,Pattern_Practice,66,1,38,97,2362806016
59,22,11,Pattern_Practice,67,5,42,127,2363048232
59,22,11,Pattern_Practice,68,1,38,124,2363321796
59,22,11,Pattern_Practice,69,1,38,71,2363355056
59,22,11,Pattern_Practice,70,5,42,127,2363548128
59,22,11,Pattern_Practice,71,1,48,104,2363576180
59,22,11,Pattern_Practice,72,1,38,127,2363813044
59,22,11,Pattern_Practice,73,5,42,127,2364047876
59,22,11,Pattern_Practice,74,1,48,105,2364072760
59,22,11,Pattern_Practice,75,1,38,112,2364311440
59,22,11,Pattern_Practice,76,5,42,127,2364547476
59,22,11,Pattern_Practice,77,1,38,127,2364750624
59,22,11,Pattern_Practice,78,5,42,127,2365048216
59,22,11,Pattern_Practice,79,1,38,115,2365176124
59,22,11,Pattern_Practice,80,5,42,127,2365548136
59,22,11,Pattern_Practice,81,1,38,127,2365636996
59,22,11,Pattern_Practice,82,1,48,52,2366039484
59,22,11,Pattern_Practice,83,5,42,127,2366047672
59,22,11,Pattern_Practice,84,1,38,124,2366112572
59,22,11,Pattern_Practice,85,1,48,95,2366372248
59,22,11,Pattern_Practice,86,5,42,127,2366548364
59,22,11,Pattern_Practice,87,1,38,89,2366609372
59,22,11,Pattern_Practice,88,1,48,23,2366616616
59,22,11,Pattern_Practice,89,5,42,127,2367048012
59,22,11,Pattern_Practice,90,5,42,127,2367547728
59,22,11,Pattern_Practice,91,5,42,127,2368047444
59,22,11,Pattern_Practice,92,1,38,95,2368283808
59,22,11,Pattern_Practice,93,5,42,127,2368548188
59,22,11,Pattern_Practice,94,1,48,65,2368553252
59,22,11,Pattern_Practice,95,1,38,18,2368561164
59,22,11,Pattern_Practice,96,1,38,87,2368803932
59,22,11,Pattern_Practice,97,1,48,95,2369042760
59,22,11,Pattern_Practice,98,5,42,127,2369047956
59,22,11,Pattern_Practice,99,1,38,65,2369303604
59,22,11,Pattern_Practice,100,5,42,127,2369547488
59,22,11,Pattern_Practice,101,1,48,77,2369554944
59,22,11,Pattern_Practice,102,1,38,83,2369798040
59,22,11,Pattern_Practice,103,1,48,60,2370028724
59,22,11,Pattern_Practice,104,5,42,127,2370048424
59,22,11,Pattern_Practice,105,1,48,67,2370527740
59,22,11,Pattern_Practice,106,5,42,127,2370548044
59,22,11,Pattern_Practice,107,1,38,84,2370802120
59,22,11,Pattern_Practice,108,5,42,127,2371047728
59,22,11,Pattern_Practice,109,1,48,104,2371055932
59,22,11,Pattern_Practice,110,1,38,89,2371311068
59,22,11,Pattern_Practice,111,1,48,81,2371537260
59,22,11,Pattern_Practice,112,5,42,127,2371547396
59,22,11,Pattern_Practice,113,1,38,101,2371775136
59,22,11,Pattern_Practice,114,1,48,96,2372029980
59,22,11,Pattern_Practice,115,5,42,127,2372048116
59,22,11,Pattern_Practice,116,5,42,127,2372548040
59,22,11,Pattern_Practice,117,1,48,127,2372556544
59,22,11,Pattern_Practice,118,1,38,100,2372806000
59,22,11,Pattern_Practice,119,1,48,98,2373041292
59,22,11,Pattern_Practice,120,5,42,127,2373047780
59,22,11,Pattern_Practice,121,1,48,40,2373104064
59,22,11,Pattern_Practice,122,1,38,57,2373332648
59,22,11,Pattern_Practice,123,5,42,127,2373548312
59,22,11,Pattern_Practice,124,1,48,79,2373558784
59,22,11,Pattern_Practice,125,1,38,102,2373841892
59,22,11,Pattern_Practice,126,5,42,127,2374048056
59,22,11,Pattern_Practice,127,1,48,90,2374072216
59,22,11,Pattern_Practice,128,1,38,22,2374080052
59,22,11,Pattern_Practice,129,5,42,127,2374547780
59,22,11,Pattern_Practice,130,1,48,81,2374566752
59,22,11,Pattern_Practice,131,1,48,34,2374647316
59,22,11,Pattern_Practice,132,1,38,99,2374809228
59,22,11,Pattern_Practice,133,5,42,127,2375047652
59,22,11,Pattern_Practice,134,1,48,74,2375065056
59,22,11,Pattern_Practice,135,1,38,115,2375311668
59,22,11,Pattern_Practice,136,1,48,63,2375546100
59,22,11,Pattern_Practice,137,5,42,127,2375548216
59,22,11,Pattern_Practice,138,1,38,20,2375553504
59,22,11,Pattern_Practice,139,1,38,55,2375718332
59,22,11,Pattern_Practice,140,1,38,72,2375836716
59,22,11,Pattern_Practice,141,1,48,68,2375946968
59,22,11,Pattern_Practice,142,1,38,20,2375954580
59,22,11,Pattern_Practice,143,5,42,127,2376048892
59,22,11,Pattern_Practice,144,1,48,62,2376122116
59,22,11,Pattern_Practice,145,5,42,127,2376547836
59,22,11,Pattern_Practice,146,1,48,46,2376718076
59,22,11,Pattern_Practice,147,1,48,45,2376798320
59,22,11,Pattern_Practice,148,1,38,19,2376804728
59,22,11,Pattern_Practice,149,1,48,41,2376901268
59,22,11,Pattern_Practice,150,1,48,37,2376927724
59,22,11,Pattern_Practice,151,1,38,53,2377014396
59,22,11,Pattern_Practice,152,5,42,127,2377048372
59,22,11,Pattern_Practice,153,1,48,73,2377204236
59,22,11,Pattern_Practice,154,5,42,127,2377548276
59,22,11,Pattern_Practice,155,5,42,127,2378047768
59,22,11,Pattern_Practice,156,1,48,60,2378057244
59,22,11,Pattern_Practice,157,1,48,73,2378181408
59,22,11,Pattern_Practice,158,1,38,92,2378353644
59,22,11,Pattern_Practice,159,5,42,127,2378547644
59,22,11,Pattern_Practice,160,1,48,72,2378609704
59,22,11,Pattern_Practice,161,1,48,64,2378762816
59,22,11,Pattern_Practice,162,1,38,101,2378881276
59,22,11,Pattern_Practice,163,1,38,45,2378944856
59,22,11,Pattern_Practice,164,5,42,127,2379048320
59,22,11,Pattern_Practice,165,1,48,73,2379155184
59,22,11,Pattern_Practice,166,1,48,68,2379303360
59,22,11,Pattern_Practice,167,1,38,78,2379419352
59,22,11,Pattern_Practice,168,1,38,33,2379499460
59,22,11,Pattern_Practice,169,5,42,127,2379547968
59,22,11,Pattern_Practice,170,1,48,57,2379578536
59,22,11,Pattern_Practice,171,1,48,58,2379850100
59,22,11,Pattern_Practice,172,1,38,50,2380013236
59,22,11,Pattern_Practice,173,5,42,127,2380047680
59,22,11,Pattern_Practice,174,1,48,61,2380234728
59,22,11,Pattern_Practice,175,5,42,127,2380547580
59,22,11,Pattern_Practice,176,1,38,92,2380592736
59,22,11,Pattern_Practice,177,1,48,102,2380888564
59,22,11,Pattern_Practice,178,1,48,93,2381032104
59,22,11,Pattern_Practice,179,5,42,127,2381048144
59,22,11,Pattern_Practice,180,1,38,89,2381193208
59,22,11,Pattern_Practice,181,1,48,108,2381507768
59,22,11,Pattern_Practice,182,5,42,127,2381547820
59,22,11,Pattern_Practice,183,1,48,81,2381672164
59,22,11,Pattern_Practice,184,1,38,95,2381830888
59,22,11,Pattern_Practice,185,1,48,106,2381971712
59,22,11,Pattern_Practice,186,5,42,127,2382047616
59,22,11,Pattern_Practice,187,1,48,92,2382312832
59,22,11,Pattern_Practice,188,1,38,78,2382507364
59,22,11,Pattern_Practice,189,5,42,127,2382548412
59,22,11,Pattern_Practice,190,1,48,93,2382839816
59,22,11,Pattern_Practice,191,5,42,127,2383047944
59,22,11,Pattern_Practice,192,1,38,114,2383175976
59,22,11,Pattern_Practice,193,1,48,71,2383490056
59,22,11,Pattern_Practice,194,5,42,127,2383547784
59,22,11,Pattern_Practice,195,1,48,78,2383661584
59,22,11,Pattern_Practice,196,1,38,127,2383826812
59,22,11,Pattern_Practice,197,5,42,127,2384047640
59,22,11,Pattern_Practice,198,1,48,101,2384153548
59,22,11,Pattern_Practice,199,1,48,80,2384350724
59,22,11,Pattern_Practice,200,1,38,127,2384508600
59,22,11,Pattern_Practice,201,5,42,127,2384548200
59,22,11,Pattern_Practice,202,1,48,84,2384649016
59,22,11,Pattern_Practice,203,1,48,68,2385014480
59,22,11,Pattern_Practice,204,5,42,127,2385047876
59,22,11,Pattern_Practice,205,1,38,127,2385199100
59,22,11,Pattern_Practice,206,5,42,127,2385547708
59,22,11,Pattern_Practice,207,1,48,63,2385563612
59,22,11,Pattern_Practice,208,1,38,114,2385879736
59,22,11,Pattern_Practice,209,5,42,127,2386048572
59,22,11,Pattern_Practice,210,1,48,69,2386406808
59,22,11,Pattern_Practice,211,5,42,127,2386548120
59,22,11,Pattern_Practice,212,1,38,123,2386598216
59,22,11,Pattern_Practice,213,1,48,70,2386727764
59,22,11,Pattern_Practice,214,1,48,62,2386920896
59,22,11,Pattern_Practice,215,5,42,127,2387047696
59,22,11,Pattern_Practice,216,1,48,66,2387088812
59,22,11,Pattern_Practice,217,1,38,127,2387255468
59,22,11,Pattern_Practice,218,5,42,127,2387547444
59,22,11,Pattern_Practice,219,1,48,86,2387827788
59,22,11,Pattern_Practice,220,1,38,91,2388015980
59,22,11,Pattern_Practice,221,5,42,127,2388048404
59,22,11,Pattern_Practice,222,1,48,89,2388139100
59,22,11,Pattern_Practice,223,1,48,69,2388334096
59,22,11,Pattern_Practice,224,1,48,74,2388497608
59,22,11,Pattern_Practice,225,5,42,127,2388547904
59,22,11,Pattern_Practice,226,1,38,84,2388666672
59,22,11,Pattern_Practice,227,5,42,127,2389047512
59,22,11,Pattern_Practice,228,1,48,84,2389099468
59,22,11,Pattern_Practice,229,1,38,127,2389292896
59,22,11,Pattern_Practice,230,1,48,67,2389426568
59,22,11,Pattern_Practice,231,5,42,127,2389548580
59,22,11,Pattern_Practice,232,1,48,74,2389619168
59,22,11,Pattern_Practice,233,1,48,76,2389792696
59,22,11,Pattern_Practice,234,1,38,127,2389959424
59,22,11,Pattern_Practice,235,5,42,127,2390048168
59,22,11,Pattern_Practice,236,1,48,80,2390100860
59,22,11,Pattern_Practice,237,1,48,73,2390290328
59,22,11,Pattern_Practice,238,1,48,77,2390459372
59,22,11,Pattern_Practice,239,5,42,127,2390547748
59,22,11,Pattern_Practice,240,1,38,123,2390615772
59,22,11,Pattern_Practice,241,1,48,22,2390625480
59,22,11,Pattern_Practice,242,1,48,75,2390772952
59,22,11,Pattern_Practice,243,1,48,62,2390968100
59,22,11,Pattern_Practice,244,5,42,127,2391047496
59,22,11,Pattern_Practice,245,1,48,72,2391112680
59,22,11,Pattern_Practice,246,1,38,94,2391286820
59,22,11,Pattern_Practice,247,1,48,93,2391433472
59,22,11,Pattern_Practice,248,5,42,127,2391548480
59,22,11,Pattern_Practice,249,1,48,77,2391633276
59,22,11,Pattern_Practice,250,1,48,82,2391780632
59,22,11,Pattern_Practice,251,1,38,100,2391960276
59,22,11,Pattern_Practice,252,5,42,127,2392047924
59,22,11,Pattern_Practice,253,1,48,84,2392425488
59,22,11,Pattern_Practice,254,5,42,127,2392547676
59,22,11,Pattern_Practice,255,1,38,127,2392611080
59,22,11,Pattern_Practice,256,1,48,23,2392621004
59,22,11,Pattern_Practice,257,1,48,89,2392930424
59,22,11,Pattern_Practice,258,5,42,127,2393048348
59,22,11,Pattern_Practice,259,1,38,104,2393255884
59,22,11,Pattern_Practice,260,1,48,84,2393438624
59,22,11,Pattern_Practice,261,5,42,127,2393548020
59,22,11,Pattern_Practice,262,1,48,99,2393757884
59,22,11,Pattern_Practice,263,1,38,74,2393960808
59,22,11,Pattern_Practice,0,9999,9999,9999,2354046052
59,22,11,Pattern_Practice,1,9999,9999,9999,2354545768
59,22,11,Pattern_Practice,2,9999,9999,9999,2355045484
59,22,11,Pattern_Practice,3,9999,9999,9999,2355545204
59,22,11,Pattern_Practice,4,9999,9999,9999,2356045884
59,22,11,Pattern_Practice,5,9999,9999,9999,2356545632
59,22,11,Pattern_Practice,6,9999,9999,9999,2357045336
59,22,11,Pattern_Practice,7,9999,9999,9999,2357546040
59,22,11,Pattern_Practice,8,9999,9999,9999,2358045780
59,22,11,Pattern_Practice,9,9999,9999,9999,2358545528
59,22,11,Pattern_Practice,10,9999,9999,9999,2359045232
59,22,11,Pattern_Practice,11,9999,9999,9999,2359545936
59,22,11,Pattern_Practice,12,9999,9999,9999,2360045684
59,22,11,Pattern_Practice,13,9999,9999,9999,2360545356
59,22,11,Pattern_Practice,14,9999,9999,9999,2361046108
59,22,11,Pattern_Practice,15,9999,9999,9999,2361545800
59,22,11,Pattern_Practice,16,9999,9999,9999,2362045500
59,22,11,Pattern_Practice,17,9999,9999,9999,2362545228
59,22,11,Pattern_Practice,18,9999,9999,9999,2363045944
59,22,11,Pattern_Practice,19,9999,9999,9999,2363545692
59,22,11,Pattern_Practice,20,9999,9999,9999,2364045368
59,22,11,Pattern_Practice,21,9999,9999,9999,2364545112
59,22,11,Pattern_Practice,22,9999,9999,9999,2365045856
59,22,11,Pattern_Practice,23,9999,9999,9999,2365545548
59,22,11,Pattern_Practice,24,9999,9999,9999,2366045236
59,22,11,Pattern_Practice,25,9999,9999,9999,2366546004
59,22,11,Pattern_Practice,26,9999,9999,9999,2367045724
59,22,11,Pattern_Practice,27,9999,9999,9999,2367545440
59,22,11,Pattern_Practice,28,9999,9999,9999,2368045156
59,22,11,Pattern_Practice,29,9999,9999,9999,2368545900
59,22,11,Pattern_Practice,30,9999,9999,9999,2369045596
59,22,11,Pattern_Practice,31,9999,9999,9999,2369545276
59,22,11,Pattern_Practice,32,9999,9999,9999,2370046064
59,22,11,Pattern_Practice,33,9999,9999,9999,2370545760
59,22,11,Pattern_Practice,34,9999,9999,9999,2371045440
59,22,11,Pattern_Practice,35,9999,9999,9999,2371545180
59,22,11,Pattern_Practice,36,9999,9999,9999,2372045904
59,22,11,Pattern_Practice,37,9999,9999,9999,2372545604
59,22,11,Pattern_Practice,38,9999,9999,9999,2373045344
59,22,11,Pattern_Practice,39,9999,9999,9999,2373546096
59,22,11,Pattern_Practice,40,9999,9999,9999,2374045768
59,22,11,Pattern_Practice,41,9999,9999,9999,2374545492
59,22,11,Pattern_Practice,42,9999,9999,9999,2375045216
59,22,11,Pattern_Practice,43,9999,9999,9999,2375545968
59,22,11,Pattern_Practice,44,9999,9999,9999,2376045676
59,22,11,Pattern_Practice,45,9999,9999,9999,2376545400
59,22,11,Pattern_Practice,46,9999,9999,9999,2377046084
59,22,11,Pattern_Practice,47,9999,9999,9999,2377545840
59,22,11,Pattern_Practice,48,9999,9999,9999,2378045556
59,22,11,Pattern_Practice,49,9999,9999,9999,2378545208
59,22,11,Pattern_Practice,50,9999,9999,9999,2379045956
59,22,11,Pattern_Practice,51,9999,9999,9999,2379545680
59,22,11,Pattern_Practice,52,9999,9999,9999,2380045392
59,22,11,Pattern_Practice,53,9999,9999,9999,2380545144
59,22,11,Pattern_Practice,54,9999,9999,9999,2381045860
59,22,11,Pattern_Practice,55,9999,9999,9999,2381545532
59,22,11,Pattern_Practice,56,9999,9999,9999,2382045256
59,22,11,Pattern_Practice,57,9999,9999,9999,2382545976
59,22,11,Pattern_Practice,58,9999,9999,9999,2383045732
59,22,11,Pattern_Practice,59,9999,9999,9999,2383545420
59,22,11,Pattern_Practice,60,9999,9999,9999,2384045128
59,22,11,Pattern_Practice,61,9999,9999,9999,2384545916
59,22,11,Pattern_Practice,62,9999,9999,9999,2385045588
59,22,11,Pattern_Practice,63,9999,9999,9999,2385545272
59,22,11,Pattern_Practice,64,9999,9999,9999,2386046064
59,22,11,Pattern_Practice,65,9999,9999,9999,2386545760
59,22,11,Pattern_Practice,66,9999,9999,9999,2387045484
59,22,11,Pattern_Practice,67,9999,9999,9999,2387545156
59,22,11,Pattern_Practice,68,9999,9999,9999,2388045892
59,22,11,Pattern_Practice,69,9999,9999,9999,2388545616
59,22,11,Pattern_Practice,70,9999,9999,9999,2389045296
59,22,11,Pattern_Practice,71,9999,9999,9999,2389546068
59,22,11,Pattern_Practice,72,9999,9999,9999,2390045808
59,22,11,Pattern_Practice,73,9999,9999,9999,2390545460
59,22,11,Pattern_Practice,74,9999,9999,9999,2391045212
59,22,11,Pattern_Practice,75,9999,9999,9999,2391545968
59,22,11,Pattern_Practice,76,9999,9999,9999,2392045636
59,22,11,Pattern_Practice,77,9999,9999,9999,2392545388
59,22,11,Pattern_Practice,78,9999,9999,9999,2393046136
59,22,11,Pattern_Practice,79,9999,9999,9999,2393545808
59,23,13,Improv_Metronome,0,5,42,127,2437755392
59,23,13,Improv_Metronome,1,5,42,127,2438254960
59,23,13,Improv_Metronome,2,5,42,127,2438754752
59,23,13,Improv_Metronome,3,5,42,127,2439255516
59,23,13,Improv_Metronome,4,5,42,127,2439755232
59,23,13,Improv_Metronome,5,1,38,100,2439783784
59,23,13,Improv_Metronome,6,1,38,103,2440236784
59,23,13,Improv_Metronome,7,5,42,127,2440254696
59,23,13,Improv_Metronome,8,1,38,127,2440747108
59,23,13,Improv_Metronome,9,5,42,127,2440754616
59,23,13,Improv_Metronome,10,5,42,127,2441255216
59,23,13,Improv_Metronome,11,1,38,97,2441258260
59,23,13,Improv_Metronome,12,1,38,127,2441700568
59,23,13,Improv_Metronome,13,5,42,127,2441754904
59,23,13,Improv_Metronome,14,1,38,127,2441816048
59,23,13,Improv_Metronome,15,1,38,119,2442065872
59,23,13,Improv_Metronome,16,1,48,22,2442075208
59,23,13,Improv_Metronome,17,1,38,97,2442178252
59,23,13,Improv_Metronome,18,5,42,127,2442254728
59,23,13,Improv_Metronome,19,1,38,127,2442400248
59,23,13,Improv_Metronome,20,1,38,84,2442638932
59,23,13,Improv_Metronome,21,5,42,127,2442754536
59,23,13,Improv_Metronome,22,1,48,127,2442883092
59,23,13,Improv_Metronome,23,1,48,127,2443136732
59,23,13,Improv_Metronome,24,5,42,127,2443255108
59,23,13,Improv_Metronome,25,1,38,127,2443613388
59,23,13,Improv_Metronome,26,1,38,124,2443627952
59,23,13,Improv_Metronome,27,5,42,127,2443755000
59,23,13,Improv_Metronome,28,1,38,127,2444038564
59,23,13,Improv_Metronome,29,1,38,114,2444167272
59,23,13,Improv_Metronome,30,5,42,127,2444254468
59,23,13,Improv_Metronome,31,1,38,127,2444412104
59,23,13,Improv_Metronome,32,1,38,124,2444664392
59,23,13,Improv_Metronome,33,5,42,127,2444755332
59,23,13,Improv_Metronome,34,1,38,119,2445058404
59,23,13,Improv_Metronome,35,1,38,127,2445180004
59,23,13,Improv_Metronome,36,5,42,127,2445255228
59,23,13,Improv_Metronome,37,1,38,98,2445421092
59,23,13,Improv_Metronome,38,1,38,127,2445653788
59,23,13,Improv_Metronome,39,5,42,127,2445754588
59,23,13,Improv_Metronome,40,1,38,127,2446082504
59,23,13,Improv_Metronome,41,1,38,127,2446193708
59,23,13,Improv_Metronome,42,5,42,127,2446254400
59,23,13,Improv_Metronome,43,1,38,92,2446455944
59,23,13,Improv_Metronome,44,1,38,103,2446684000
59,23,13,Improv_Metronome,45,5,42,127,2446755168
59,23,13,Improv_Metronome,46,1,38,104,2446810284
59,23,13,Improv_Metronome,47,1,48,113,2446927392
59,23,13,Improv_Metronome,48,1,38,88,2447072800
59,23,13,Improv_Metronome,49,1,38,127,2447193580
59,23,13,Improv_Metronome,50,5,42,127,2447254800
59,23,13,Improv_Metronome,51,1,38,97,2447476336
59,23,13,Improv_Metronome,52,1,38,127,2447719204
59,23,13,Improv_Metronome,53,5,42,127,2447754472
59,23,13,Improv_Metronome,54,1,38,127,2448210004
59,23,13,Improv_Metronome,55,5,42,127,2448255212
59,23,13,Improv_Metronome,56,1,38,109,2448652996
59,23,13,Improv_Metronome,57,5,42,127,2448755116
59,23,13,Improv_Metronome,58,1,38,127,2448808280
59,23,13,Improv_Metronome,59,1,38,110,2449054964
59,23,13,Improv_Metronome,60,5,42,127,2449254716
59,23,13,Improv_Metronome,61,1,38,127,2449302264
59,23,13,Improv_Metronome,62,1,38,104,2449672616
59,23,13,Improv_Metronome,63,5,42,127,2449754480
59,23,13,Improv_Metronome,64,1,38,115,2449813008
59,23,13,Improv_Metronome,65,1,38,101,2450063512
59,23,13,Improv_Metronome,66,5,42,127,2450255108
59,23,13,Improv_Metronome,67,1,38,113,2450311560
59,23,13,Improv_Metronome,68,1,38,88,2450575528
59,23,13,Improv_Metronome,69,1,38,89,2450692436
59,23,13,Improv_Metronome,70,5,42,127,2450755072
59,23,13,Improv_Metronome,71,1,38,69,2450808740
59,23,13,Improv_Metronome,72,1,38,78,2450967240
59,23,13,Improv_Metronome,73,1,38,114,2451078520
59,23,13,Improv_Metronome,74,1,38,75,2451185108
59,23,13,Improv_Metronome,75,5,42,127,2451254556
59,23,13,Improv_Metronome,76,1,38,107,2451324980
59,23,13,Improv_Metronome,77,1,38,63,2451429700
59,23,13,Improv_Metronome,78,1,38,72,2451576208
59,23,13,Improv_Metronome,79,1,38,70,2451714512
59,23,13,Improv_Metronome,80,5,42,127,2451755460
59,23,13,Improv_Metronome,81,1,38,111,2451838672
59,23,13,Improv_Metronome,82,1,38,119,2452117524
59,23,13,Improv_Metronome,83,5,42,127,2452255268
59,23,13,Improv_Metronome,84,1,38,96,2452365424
59,23,13,Improv_Metronome,85,1,38,111,2452375048
59,23,13,Improv_Metronome,86,5,42,127,2452754792
59,23,13,Improv_Metronome,87,1,38,100,2452887012
59,23,13,Improv_Metronome,88,1,38,115,2453248012
59,23,13,Improv_Metronome,89,5,42,127,2453254552
59,23,13,Improv_Metronome,90,1,38,116,2453374116
59,23,13,Improv_Metronome,91,1,38,111,2453604796
59,23,13,Improv_Metronome,92,5,42,127,2453755108
59,23,13,Improv_Metronome,93,1,38,118,2453841928
59,23,13,Improv_Metronome,94,1,38,92,2454244284
59,23,13,Improv_Metronome,95,5,42,127,2454254944
59,23,13,Improv_Metronome,96,1,38,99,2454350572
59,23,13,Improv_Metronome,97,1,38,127,2454607504
59,23,13,Improv_Metronome,98,5,42,127,2454754604
59,23,13,Improv_Metronome,99,1,38,127,2454854652
59,23,13,Improv_Metronome,100,1,38,127,2455248124
59,23,13,Improv_Metronome,101,5,42,127,2455255340
59,23,13,Improv_Metronome,102,1,38,113,2455384252
59,23,13,Improv_Metronome,103,1,38,125,2455612760
59,23,13,Improv_Metronome,104,5,42,127,2455754992
59,23,13,Improv_Metronome,105,1,38,101,2455871204
59,23,13,Improv_Metronome,106,1,38,96,2455986096
59,23,13,Improv_Metronome,107,1,38,72,2456131332
59,23,13,Improv_Metronome,108,1,38,103,2456242488
59,23,13,Improv_Metronome,109,5,42,127,2456254936
59,23,13,Improv_Metronome,110,1,38,82,2456358716
59,23,13,Improv_Metronome,111,1,38,127,2456542796
59,23,13,Improv_Metronome,112,1,38,93,2456657216
59,23,13,Improv_Metronome,113,1,38,35,2456722340
59,23,13,Improv_Metronome,114,5,42,127,2456754492
59,23,13,Improv_Metronome,115,1,38,97,2456905172
59,23,13,Improv_Metronome,116,1,38,93,2457143176
59,23,13,Improv_Metronome,117,5,42,127,2457255172
59,23,13,Improv_Metronome,118,1,38,127,2457407384
59,23,13,Improv_Metronome,119,5,42,127,2457754940
59,23,13,Improv_Metronome,120,1,38,127,2457895264
59,23,13,Improv_Metronome,121,5,42,127,2458254784
59,23,13,Improv_Metronome,122,1,38,127,2458287696
59,23,13,Improv_Metronome,123,1,38,111,2458421340
59,23,13,Improv_Metronome,124,1,38,108,2458671688
59,23,13,Improv_Metronome,125,5,42,127,2458754524
59,23,13,Improv_Metronome,126,1,38,86,2458900820
59,23,13,Improv_Metronome,127,5,42,127,2459255028
59,23,13,Improv_Metronome,128,1,38,103,2459289484
59,23,13,Improv_Metronome,129,1,38,116,2459404380
59,23,13,Improv_Metronome,130,1,38,106,2459652188
59,23,13,Improv_Metronome,131,5,42,127,2459754828
59,23,13,Improv_Metronome,132,1,38,117,2459906744
59,23,13,Improv_Metronome,133,5,42,127,2460254524
59,23,13,Improv_Metronome,134,1,38,89,2460295788
59,23,13,Improv_Metronome,135,1,38,96,2460416364
59,23,13,Improv_Metronome,136,1,38,112,2460658716
59,23,13,Improv_Metronome,137,5,42,127,2460755220
59,23,13,Improv_Metronome,138,1,38,117,2460914164
59,23,13,Improv_Metronome,139,5,42,127,2461254912
59,23,13,Improv_Metronome,140,1,38,100,2461312932
59,23,13,Improv_Metronome,141,1,38,92,2461426180
59,23,13,Improv_Metronome,142,1,38,96,2461667636
59,23,13,Improv_Metronome,143,5,42,127,2461754804
59,23,13,Improv_Metronome,144,1,38,107,2461922416
59,23,13,Improv_Metronome,145,1,38,83,2462141272
59,23,13,Improv_Metronome,146,5,42,127,2462254388
59,23,13,Improv_Metronome,147,1,38,52,2462293632
59,23,13,Improv_Metronome,148,1,38,112,2462401720
59,23,13,Improv_Metronome,149,1,38,58,2462540824
59,23,13,Improv_Metronome,150,1,38,77,2462648228
59,23,13,Improv_Metronome,151,5,42,127,2462755132
59,23,13,Improv_Metronome,152,1,38,82,2462761096
59,23,13,Improv_Metronome,153,1,38,127,2462908524
59,23,13,Improv_Metronome,154,1,38,108,2463183936
59,23,13,Improv_Metronome,155,5,42,127,2463254948
59,23,13,Improv_Metronome,156,1,38,103,2463425472
59,23,13,Improv_Metronome,157,5,42,127,2463754852
59,23,13,Improv_Metronome,158,1,38,127,2463855432
59,23,13,Improv_Metronome,159,1,38,87,2463981996
59,23,13,Improv_Metronome,160,1,38,113,2464195624
59,23,13,Improv_Metronome,161,5,42,127,2464255344
59,23,13,Improv_Metronome,162,1,38,127,2464474488
59,23,13,Improv_Metronome,163,5,42,127,2464755024
59,23,13,Improv_Metronome,164,1,38,111,2464868768
59,23,13,Improv_Metronome,165,1,38,80,2465004224
59,23,13,Improv_Metronome,166,1,38,106,2465255140
59,23,13,Improv_Metronome,167,5,42,127,2465257904
59,23,13,Improv_Metronome,168,1,38,96,2465511756
59,23,13,Improv_Metronome,169,1,38,119,2465618996
59,23,13,Improv_Metronome,170,5,42,127,2465754568
59,23,13,Improv_Metronome,171,1,38,58,2465785064
59,23,13,Improv_Metronome,172,1,38,115,2465892076
59,23,13,Improv_Metronome,173,1,38,71,2466034640
59,23,13,Improv_Metronome,174,1,38,86,2466163052
59,23,13,Improv_Metronome,175,5,42,127,2466255184
59,23,13,Improv_Metronome,176,1,38,45,2466285816
59,23,13,Improv_Metronome,177,1,38,64,2466421252
59,23,13,Improv_Metronome,178,1,38,52,2466582596
59,23,13,Improv_Metronome,179,1,38,51,2466687660
59,23,13,Improv_Metronome,180,5,42,127,2466754964
59,23,13,Improv_Metronome,181,1,38,50,2466821044
59,23,13,Improv_Metronome,182,1,38,51,2466948632
59,23,13,Improv_Metronome,183,1,38,127,2467099128
59,23,13,Improv_Metronome,184,1,48,123,2467228808
59,23,13,Improv_Metronome,185,5,42,127,2467254816
59,23,13,Improv_Metronome,186,1,38,85,2467393228
59,23,13,Improv_Metronome,187,1,48,116,2467716808
59,23,13,Improv_Metronome,188,5,42,127,2467755436
59,23,13,Improv_Metronome,189,1,48,113,2468174968
59,23,13,Improv_Metronome,190,5,42,127,2468255032
59,23,13,Improv_Metronome,191,1,38,109,2468288608
59,23,13,Improv_Metronome,192,1,48,98,2468545308
59,23,13,Improv_Metronome,193,5,42,127,2468754912
59,23,13,Improv_Metronome,194,1,48,106,2468805552
59,23,13,Improv_Metronome,195,1,48,112,2469179548
59,23,13,Improv_Metronome,196,5,42,127,2469254452
59,23,13,Improv_Metronome,197,1,38,106,2469282756
59,23,13,Improv_Metronome,198,5,42,127,2469755180
59,23,13,Improv_Metronome,199,1,48,75,2469760320
59,23,13,Improv_Metronome,200,1,48,95,2470157524
59,23,13,Improv_Metronome,201,5,42,127,2470255900
59,23,13,Improv_Metronome,202,1,38,100,2470258192
59,23,13,Improv_Metronome,203,1,48,80,2470517820
59,23,13,Improv_Metronome,204,5,42,127,2470754820
59,23,13,Improv_Metronome,205,1,48,96,2470796160
59,23,13,Improv_Metronome,206,1,48,86,2471164120
59,23,13,Improv_Metronome,207,1,38,85,2471250268
59,23,13,Improv_Metronome,208,5,42,127,2471255612
59,23,13,Improv_Metronome,209,5,42,127,2471755144
59,23,13,Improv_Metronome,210,1,48,77,2471761404
59,23,13,Improv_Metronome,211,1,48,114,2472163320
59,23,13,Improv_Metronome,212,5,42,127,2472254832
59,23,13,Improv_Metronome,213,1,38,111,2472292720
59,23,13,Improv_Metronome,214,1,48,67,2472556084
59,23,13,Improv_Metronome,215,5,42,127,2472754788
59,23,13,Improv_Metronome,216,1,48,86,2472813332
59,23,13,Improv_Metronome,217,1,48,70,2473193932
59,23,13,Improv_Metronome,218,1,38,112,2473254608
59,23,13,Improv_Metronome,219,5,42,127,2473257672
59,23,13,Improv_Metronome,220,1,48,82,2473703824
59,23,13,Improv_Metronome,221,5,42,127,2473754948
59,23,13,Improv_Metronome,222,1,48,114,2474139696
59,23,13,Improv_Metronome,223,1,38,98,2474249352
59,23,13,Improv_Metronome,224,5,42,127,2474254768
59,23,13,Improv_Metronome,225,1,48,98,2474488424
59,23,13,Improv_Metronome,226,5,42,127,2474754376
59,23,13,Improv_Metronome,227,1,48,96,2474760856
59,23,13,Improv_Metronome,228,1,48,124,2475114352
59,23,13,Improv_Metronome,229,5,42,127,2475255092
59,23,13,Improv_Metronome,230,1,38,127,2475258808
59,23,13,Improv_Metronome,231,1,38,95,2475746448
59,23,13,Improv_Metronome,232,5,42,127,2475754856
59,23,13,Improv_Metronome,233,1,38,75,2476163012
59,23,13,Improv_Metronome,234,5,42,127,2476254776
59,23,13,Improv_Metronome,235,1,48,102,2476265960
59,23,13,Improv_Metronome,236,1,38,127,2476506584
59,23,13,Improv_Metronome,237,5,42,127,2476755180
59,23,13,Improv_Metronome,238,1,48,107,2476768400
59,23,13,Improv_Metronome,239,1,38,23,2476777880
59,23,13,Improv_Metronome,240,1,48,119,2477220728
59,23,13,Improv_Metronome,241,1,38,24,2477230548
59,23,13,Improv_Metronome,242,5,42,127,2477255112
59,23,13,Improv_Metronome,243,1,48,38,2477268764
59,23,13,Improv_Metronome,244,5,42,127,2477754692
59,23,13,Improv_Metronome,245,1,38,109,2477755584
59,23,13,Improv_Metronome,246,1,38,127,2478139580
59,23,13,Improv_Metronome,247,1,48,98,2478247712
59,23,13,Improv_Metronome,248,5,42,127,2478254728
59,23,13,Improv_Metronome,249,1,38,76,2478511944
59,23,13,Improv_Metronome,250,1,48,127,2478753312
59,23,13,Improv_Metronome,251,5,42,127,2478755128
59,23,13,Improv_Metronome,252,5,42,127,2479254904
59,23,13,Improv_Metronome,253,1,48,95,2479262812
59,23,13,Improv_Metronome,254,5,42,127,2479754524
59,23,13,Improv_Metronome,255,1,48,102,2479758688
59,23,13,Improv_Metronome,256,1,38,127,2479761884
59,23,13,Improv_Metronome,257,1,48,76,2480112984
59,23,13,Improv_Metronome,258,1,48,80,2480237348
59,23,13,Improv_Metronome,259,5,42,127,2480255336
59,23,13,Improv_Metronome,260,1,48,109,2480500960
59,23,13,Improv_Metronome,261,1,38,118,2480749068
59,23,13,Improv_Metronome,262,5,42,127,2480755008
59,23,13,Improv_Metronome,263,1,38,127,2481248316
59,23,13,Improv_Metronome,264,5,42,127,2481254780
59,23,13,Improv_Metronome,265,1,38,127,2481713076
59,23,13,Improv_Metronome,266,5,42,127,2481754548
59,23,13,Improv_Metronome,267,1,48,76,2481964568
59,23,13,Improv_Metronome,268,1,38,93,2482201380
59,23,13,Improv_Metronome,269,1,48,14,2482221928
59,23,13,Improv_Metronome,270,5,42,127,2482255100
59,23,13,Improv_Metronome,271,1,48,71,2482449012
59,23,13,Improv_Metronome,272,1,38,127,2482715216
59,23,13,Improv_Metronome,273,5,42,127,2482754820
59,23,13,Improv_Metronome,274,1,38,42,2482763532
59,23,13,Improv_Metronome,275,5,42,127,2483254576
59,23,13,Improv_Metronome,276,1,38,81,2483687904
59,23,13,Improv_Metronome,277,5,42,127,2483755480
59,23,13,Improv_Metronome,278,1,48,94,2483981208
59,23,13,Improv_Metronome,279,1,38,94,2484203284
59,23,13,Improv_Metronome,280,5,42,127,2484255228
59,23,13,Improv_Metronome,281,1,48,81,2484434956
59,23,13,Improv_Metronome,282,1,38,100,2484707220
59,23,13,Improv_Metronome,283,5,42,127,2484754680
59,23,13,Improv_Metronome,284,5,42,127,2485254528
59,23,13,Improv_Metronome,285,1,38,127,2485714856
59,23,13,Improv_Metronome,286,5,42,127,2485755284
59,23,13,Improv_Metronome,287,1,48,123,2485998588
59,23,13,Improv_Metronome,288,1,38,104,2486233004
59,23,13,Improv_Metronome,289,5,42,127,2486254808
59,23,13,Improv_Metronome,290,1,48,117,2486453312
59,23,13,Improv_Metronome,291,1,38,122,2486719668
59,23,13,Improv_Metronome,292,5,42,127,2486754708
59,23,13,Improv_Metronome,293,1,38,91,2486957472
59,23,13,Improv_Metronome,294,1,38,87,2487097316
59,23,13,Improv_Metronome,295,1,38,114,2487206432
59,23,13,Improv_Metronome,296,5,42,127,2487255408
59,23,13,Improv_Metronome,297,1,38,127,2487462856
59,23,13,Improv_Metronome,298,1,48,107,2487706476
59,23,13,Improv_Metronome,299,1,38,24,2487715432
59,23,13,Improv_Metronome,300,5,42,127,2487755208
59,23,13,Improv_Metronome,301,1,38,124,2488131176
59,23,13,Improv_Metronome,302,5,42,127,2488254784
59,23,13,Improv_Metronome,303,1,38,117,2488267104
59,23,13,Improv_Metronome,304,1,48,127,2488502496
59,23,13,Improv_Metronome,305,5,42,127,2488754460
59,23,13,Improv_Metronome,306,1,38,127,2488761396
59,23,13,Improv_Metronome,307,1,48,127,2489178916
59,23,13,Improv_Metronome,308,5,42,127,2489255540
59,23,13,Improv_Metronome,309,1,38,102,2489289940
59,23,13,Improv_Metronome,310,1,38,104,2489565120
59,23,13,Improv_Metronome,311,5,42,127,2489755272
59,23,13,Improv_Metronome,312,1,38,99,2489818856
59,23,13,Improv_Metronome,313,1,48,105,2490178188
59,23,13,Improv_Metronome,314,5,42,127,2490254736
59,23,13,Improv_Metronome,315,1,38,100,2490316508
59,23,13,Improv_Metronome,316,1,38,90,2490562148
59,23,13,Improv_Metronome,317,5,42,127,2490754396
59,23,13,Improv_Metronome,318,1,38,105,2490830996
59,23,13,Improv_Metronome,319,1,38,110,2491232060
59,23,13,Improv_Metronome,320,5,42,127,2491255504
59,23,13,Improv_Metronome,321,1,48,101,2491345028
59,23,13,Improv_Metronome,322,1,38,121,2491613256
59,23,13,Improv_Metronome,323,5,42,127,2491754864
59,23,13,Improv_Metronome,324,1,38,87,2491818420
59,23,13,Improv_Metronome,325,1,38,79,2491954704
59,23,13,Improv_Metronome,326,1,38,107,2492084632
59,23,13,Improv_Metronome,327,1,38,50,2492196284
59,23,13,Improv_Metronome,328,5,42,127,2492254432
59,23,13,Improv_Metronome,329,1,38,89,2492336400
59,23,13,Improv_Metronome,330,1,38,67,2492446624
59,23,13,Improv_Metronome,331,1,38,75,2492596528
59,23,13,Improv_Metronome,332,1,38,69,2492714532
59,23,13,Improv_Metronome,333,5,42,127,2492755484
59,23,13,Improv_Metronome,334,1,38,97,2492850392
59,23,13,Improv_Metronome,335,1,38,74,2492968696
59,23,13,Improv_Metronome,336,1,38,88,2493108424
59,23,13,Improv_Metronome,337,1,38,62,2493238476
59,23,13,Improv_Metronome,338,5,42,127,2493254964
59,23,13,Improv_Metronome,339,1,38,101,2493375148
59,23,13,Improv_Metronome,340,1,38,63,2493485232
59,23,13,Improv_Metronome,341,1,38,81,2493608328
59,23,13,Improv_Metronome,342,1,38,80,2493749472
59,23,13,Improv_Metronome,343,5,42,127,2493754668
59,23,13,Improv_Metronome,344,1,48,127,2493883152
59,23,13,Improv_Metronome,345,1,48,114,2494201496
59,23,13,Improv_Metronome,346,5,42,127,2494254412
59,23,13,Improv_Metronome,347,1,38,127,2494325132
59,23,13,Improv_Metronome,348,1,48,124,2494564260
59,23,13,Improv_Metronome,349,5,42,127,2494755340
59,23,13,Improv_Metronome,350,1,48,123,2494790024
59,23,13,Improv_Metronome,351,1,48,109,2495134244
59,23,13,Improv_Metronome,352,1,38,127,2495233800
59,23,13,Improv_Metronome,353,5,42,127,2495254856
59,23,13,Improv_Metronome,354,1,48,95,2495708296
59,23,13,Improv_Metronome,355,1,38,20,2495717848
59,23,13,Improv_Metronome,356,5,42,127,2495754456
59,23,13,Improv_Metronome,357,1,48,88,2496047696
59,23,13,Improv_Metronome,358,1,38,119,2496182108
59,23,13,Improv_Metronome,359,1,48,23,2496191288
59,23,13,Improv_Metronome,360,5,42,127,2496255352
59,23,13,Improv_Metronome,361,1,48,122,2496426796
59,23,13,Improv_Metronome,362,1,48,93,2496671768
59,23,13,Improv_Metronome,363,5,42,127,2496755220
59,23,13,Improv_Metronome,364,1,48,111,2497053352
59,23,13,Improv_Metronome,365,1,38,127,2497085044
59,23,13,Improv_Metronome,366,5,42,127,2497254780
59,23,13,Improv_Metronome,367,1,48,93,2497596232
59,23,13,Improv_Metronome,368,5,42,127,2497754472
59,23,13,Improv_Metronome,369,1,48,108,2497959024
59,23,13,Improv_Metronome,370,1,38,127,2498079672
59,23,13,Improv_Metronome,371,5,42,127,2498255340
59,23,13,Improv_Metronome,372,1,48,102,2498307080
59,23,13,Improv_Metronome,373,1,48,105,2498557580
59,23,13,Improv_Metronome,374,5,42,127,2498755088
59,23,13,Improv_Metronome,375,1,48,93,2498912812
59,23,13,Improv_Metronome,376,1,38,127,2499022920
59,23,13,Improv_Metronome,377,5,42,127,2499255208
59,23,13,Improv_Metronome,378,1,48,90,2499477264
59,23,13,Improv_Metronome,379,5,42,127,2499755332
59,23,13,Improv_Metronome,380,1,48,107,2499843268
59,23,13,Improv_Metronome,381,1,38,127,2499966364
59,23,13,Improv_Metronome,382,1,48,114,2500194124
59,23,13,Improv_Metronome,383,5,42,127,2500255268
59,23,13,Improv_Metronome,384,1,48,101,2500445320
59,23,13,Improv_Metronome,385,5,42,127,2500754652
59,23,13,Improv_Metronome,386,1,48,77,2500787112
59,23,13,Improv_Metronome,387,1,38,116,2500900484
59,23,13,Improv_Metronome,388,5,42,127,2501254400
59,23,13,Improv_Metronome,389,1,48,94,2501367420
59,23,13,Improv_Metronome,390,1,48,108,2501723608
59,23,13,Improv_Metronome,391,5,42,127,2501755208
59,23,13,Improv_Metronome,392,1,38,126,2501850036
59,23,13,Improv_Metronome,393,1,48,106,2502069352
59,23,13,Improv_Metronome,394,5,42,127,2502255384
59,23,13,Improv_Metronome,395,1,48,91,2502317020
59,23,13,Improv_Metronome,396,1,48,91,2502653392
59,23,13,Improv_Metronome,397,5,42,127,2502754540
59,23,13,Improv_Metronome,398,1,38,127,2502789148
59,23,13,Improv_Metronome,399,5,42,127,2503255356
59,23,13,Improv_Metronome,400,1,48,76,2503264228
59,23,13,Improv_Metronome,401,1,48,93,2503581004
59,23,13,Improv_Metronome,402,1,38,127,2503728056
59,23,13,Improv_Metronome,403,5,42,127,2503755244
59,23,13,Improv_Metronome,404,1,48,122,2503950152
59,23,13,Improv_Metronome,405,1,48,82,2504195272
59,23,13,Improv_Metronome,406,5,42,127,2504254844
59,23,13,Improv_Metronome,407,1,48,109,2504529560
59,23,13,Improv_Metronome,408,1,38,118,2504675720
59,23,13,Improv_Metronome,409,5,42,127,2504754516
59,23,13,Improv_Metronome,410,1,38,122,2504937908
59,23,13,Improv_Metronome,411,1,48,22,2504947236
59,23,13,Improv_Metronome,412,1,38,109,2505180208
59,23,13,Improv_Metronome,413,5,42,127,2505255260
59,23,13,Improv_Metronome,414,1,38,105,2505302644
59,23,13,Improv_Metronome,415,1,38,68,2505431600
59,23,13,Improv_Metronome,416,1,38,96,2505544520
59,23,13,Improv_Metronome,417,1,38,74,2505677492
59,23,13,Improv_Metronome,418,5,42,127,2505754944
59,23,13,Improv_Metronome,419,1,38,86,2505792752
59,23,13,Improv_Metronome,420,1,38,71,2505918568
59,23,13,Improv_Metronome,421,1,38,91,2506029988
59,23,13,Improv_Metronome,422,1,38,88,2506150172
59,23,13,Improv_Metronome,423,5,42,127,2506254556
59,23,13,Improv_Metronome,424,1,48,113,2506281236
59,23,13,Improv_Metronome,425,1,38,88,2506426944
59,23,13,Improv_Metronome,426,1,38,127,2506548248
59,23,13,Improv_Metronome,427,1,38,79,2506695748
59,23,13,Improv_Metronome,428,5,42,127,2506754276
59,23,13,Improv_Metronome,429,1,38,124,2507033704
59,23,13,Improv_Metronome,430,5,42,127,2507255076
59,23,13,Improv_Metronome,431,1,38,127,2507534596
59,23,13,Improv_Metronome,0,9999,9999,9999,2437752880
59,23,13,Improv_Metronome,1,9999,9999,9999,2438252596
59,23,13,Improv_Metronome,2,9999,9999,9999,2438752316
59,23,13,Improv_Metronome,3,9999,9999,9999,2439253080
59,23,13,Improv_Metronome,4,9999,9999,9999,2439752796
59,23,13,Improv_Metronome,5,9999,9999,9999,2440252484
59,23,13,Improv_Metronome,6,9999,9999,9999,2440752180
59,23,13,Improv_Metronome,7,9999,9999,9999,2441252928
59,23,13,Improv_Metronome,8,9999,9999,9999,2441752688
59,23,13,Improv_Metronome,9,9999,9999,9999,2442252368
59,23,13,Improv_Metronome,10,9999,9999,9999,2442752100
59,23,13,Improv_Metronome,11,9999,9999,9999,2443252820
59,23,13,Improv_Metronome,12,9999,9999,9999,2443752564
59,23,13,Improv_Metronome,13,9999,9999,9999,2444252252
59,23,13,Improv_Metronome,14,9999,9999,9999,2444752972
59,23,13,Improv_Metronome,15,9999,9999,9999,2445252716
59,23,13,Improv_Metronome,16,9999,9999,9999,2445752376
59,23,13,Improv_Metronome,17,9999,9999,9999,2446252112
59,23,13,Improv_Metronome,18,9999,9999,9999,2446752884
59,23,13,Improv_Metronome,19,9999,9999,9999,2447252588
59,23,13,Improv_Metronome,20,9999,9999,9999,2447752260
59,23,13,Improv_Metronome,21,9999,9999,9999,2448253000
59,23,13,Improv_Metronome,22,9999,9999,9999,2448752756
59,23,13,Improv_Metronome,23,9999,9999,9999,2449252428
59,23,13,Improv_Metronome,24,9999,9999,9999,2449752116
59,23,13,Improv_Metronome,25,9999,9999,9999,2450252896
59,23,13,Improv_Metronome,26,9999,9999,9999,2450752564
59,23,13,Improv_Metronome,27,9999,9999,9999,2451252344
59,23,13,Improv_Metronome,28,9999,9999,9999,2451753020
59,23,13,Improv_Metronome,29,9999,9999,9999,2452252756
59,23,13,Improv_Metronome,30,9999,9999,9999,2452752504
59,23,13,Improv_Metronome,31,9999,9999,9999,2453252192
59,23,13,Improv_Metronome,32,9999,9999,9999,2453752896
59,23,13,Improv_Metronome,33,9999,9999,9999,2454252656
59,23,13,Improv_Metronome,34,9999,9999,9999,2454752316
59,23,13,Improv_Metronome,35,9999,9999,9999,2455253052
59,23,13,Improv_Metronome,36,9999,9999,9999,2455752780
59,23,13,Improv_Metronome,37,9999,9999,9999,2456252500
59,23,13,Improv_Metronome,38,9999,9999,9999,2456752204
59,23,13,Improv_Metronome,39,9999,9999,9999,2457252956
59,23,13,Improv_Metronome,40,9999,9999,9999,2457752652
59,23,13,Improv_Metronome,41,9999,9999,9999,2458252348
59,23,13,Improv_Metronome,42,9999,9999,9999,2458752088
59,23,13,Improv_Metronome,43,9999,9999,9999,2459252816
59,23,13,Improv_Metronome,44,9999,9999,9999,2459752540
59,23,13,Improv_Metronome,45,9999,9999,9999,2460252236
59,23,13,Improv_Metronome,46,9999,9999,9999,2460752948
59,23,13,Improv_Metronome,47,9999,9999,9999,2461252700
59,23,13,Improv_Metronome,48,9999,9999,9999,2461752368
59,23,13,Improv_Metronome,49,9999,9999,9999,2462252100
59,23,13,Improv_Metronome,50,9999,9999,9999,2462752844
59,23,13,Improv_Metronome,51,9999,9999,9999,2463252588
59,23,13,Improv_Metronome,52,9999,9999,9999,2463752268
59,23,13,Improv_Metronome,53,9999,9999,9999,2464252980
59,23,13,Improv_Metronome,54,9999,9999,9999,2464752736
59,23,13,Improv_Metronome,55,9999,9999,9999,2465252408
59,23,13,Improv_Metronome,56,9999,9999,9999,2465752132
59,23,13,Improv_Metronome,57,9999,9999,9999,2466252896
59,23,13,Improv_Metronome,58,9999,9999,9999,2466752600
59,23,13,Improv_Metronome,59,9999,9999,9999,2467252308
59,23,13,Improv_Metronome,60,9999,9999,9999,2467753076
59,23,13,Improv_Metronome,61,9999,9999,9999,2468252744
59,23,13,Improv_Metronome,62,9999,9999,9999,2468752476
59,23,13,Improv_Metronome,63,9999,9999,9999,2469252164
59,23,13,Improv_Metronome,64,9999,9999,9999,2469752892
59,23,13,Improv_Metronome,65,9999,9999,9999,2470252652
59,23,13,Improv_Metronome,66,9999,9999,9999,2470752308
59,23,13,Improv_Metronome,67,9999,9999,9999,2471253100
59,23,13,Improv_Metronome,68,9999,9999,9999,2471752784
59,23,13,Improv_Metronome,69,9999,9999,9999,2472252472
59,23,13,Improv_Metronome,70,9999,9999,9999,2472752204
59,23,13,Improv_Metronome,71,9999,9999,9999,2473252936
59,23,13,Improv_Metronome,72,9999,9999,9999,2473752660
59,23,13,Improv_Metronome,73,9999,9999,9999,2474252408
59,23,13,Improv_Metronome,74,9999,9999,9999,2474752088
59,23,13,Improv_Metronome,75,9999,9999,9999,2475252804
59,23,13,Improv_Metronome,76,9999,9999,9999,2475752568
59,23,13,Improv_Metronome,77,9999,9999,9999,2476252264
59,23,13,Improv_Metronome,78,9999,9999,9999,2476752968
59,23,13,Improv_Metronome,79,9999,9999,9999,2477252676
59,23,13,Improv_Metronome,80,9999,9999,9999,2477752404
59,23,13,Improv_Metronome,81,9999,9999,9999,2478252120
59,23,13,Improv_Metronome,82,9999,9999,9999,2478752864
59,23,13,Improv_Metronome,83,9999,9999,9999,2479252540
59,23,13,Improv_Metronome,84,9999,9999,9999,2479752308
59,23,13,Improv_Metronome,85,9999,9999,9999,2480253048
59,23,13,Improv_Metronome,86,9999,9999,9999,2480752724
59,23,13,Improv_Metronome,87,9999,9999,9999,2481252416
59,23,13,Improv_Metronome,88,9999,9999,9999,2481752112
59,23,13,Improv_Metronome,89,9999,9999,9999,2482252888
59,23,13,Improv_Metronome,90,9999,9999,9999,2482752608
59,23,13,Improv_Metronome,91,9999,9999,9999,2483252288
59,23,13,Improv_Metronome,92,9999,9999,9999,2483753044
59,23,13,Improv_Metronome,93,9999,9999,9999,2484252792
59,23,13,Improv_Metronome,94,9999,9999,9999,2484752468
59,23,13,Improv_Metronome,95,9999,9999,9999,2485252168
59,23,13,Improv_Metronome,96,9999,9999,9999,2485752924
59,23,13,Improv_Metronome,97,9999,9999,9999,2486252596
59,23,13,Improv_Metronome,98,9999,9999,9999,2486752344
59,23,13,Improv_Metronome,99,9999,9999,9999,2487253044
59,23,13,Improv_Metronome,100,9999,9999,9999,2487752772
59,23,13,Improv_Metronome,101,9999,9999,9999,2488252500
59,23,13,Improv_Metronome,102,9999,9999,9999,2488752244
59,23,13,Improv_Metronome,103,9999,9999,9999,2489252956
59,23,13,Improv_Metronome,104,9999,9999,9999,2489752688
59,23,13,Improv_Metronome,105,9999,9999,9999,2490252376
59,23,13,Improv_Metronome,106,9999,9999,9999,2490752108
59,23,13,Improv_Metronome,107,9999,9999,9999,2491252844
59,23,13,Improv_Metronome,108,9999,9999,9999,2491752500
59,23,13,Improv_Metronome,109,9999,9999,9999,2492252220
59,23,13,Improv_Metronome,110,9999,9999,9999,2492752972
59,23,13,Improv_Metronome,111,9999,9999,9999,2493252676
59,23,13,Improv_Metronome,112,9999,9999,9999,2493752380
59,23,13,Improv_Metronome,113,9999,9999,9999,2494252124
59,23,13,Improv_Metronome,114,9999,9999,9999,2494752828
59,23,13,Improv_Metronome,115,9999,9999,9999,2495252568
59,23,13,Improv_Metronome,116,9999,9999,9999,2495752244
59,23,13,Improv_Metronome,117,9999,9999,9999,2496252988
59,23,13,Improv_Metronome,118,9999,9999,9999,2496752712
59,23,13,Improv_Metronome,119,9999,9999,9999,2497252416
59,23,13,Improv_Metronome,120,9999,9999,9999,2497752184
59,23,13,Improv_Metronome,121,9999,9999,9999,2498252904
59,23,13,Improv_Metronome,122,9999,9999,9999,2498752576
59,23,13,Improv_Metronome,123,9999,9999,9999,2499252324
59,23,13,Improv_Metronome,124,9999,9999,9999,2499753040
59,23,13,Improv_Metronome,125,9999,9999,9999,2500252756
59,23,13,Improv_Metronome,126,9999,9999,9999,2500752436
59,23,13,Improv_Metronome,127,9999,9999,9999,2501252184
59,23,13,Improv_Metronome,128,9999,9999,9999,2501752920
59,23,13,Improv_Metronome,129,9999,9999,9999,2502252652
59,23,13,Improv_Metronome,130,9999,9999,9999,2502752324
59,23,13,Improv_Metronome,131,9999,9999,9999,2503253068
59,23,13,Improv_Metronome,132,9999,9999,9999,2503752804
59,23,13,Improv_Metronome,133,9999,9999,9999,2504252480
59,23,13,Improv_Metronome,134,9999,9999,9999,2504752228
59,23,13,Improv_Metronome,135,9999,9999,9999,2505252972
59,23,13,Improv_Metronome,136,9999,9999,9999,2505752656
59,23,13,Improv_Metronome,137,9999,9999,9999,2506252344
59,23,13,Improv_Metronome,138,9999,9999,9999,2506752060
59,23,13,Improv_Metronome,139,9999,9999,9999,2507252788
59,24,14,Improv_Melody,0,1,48,31,2559698240
59,24,14,Improv_Melody,1,1,38,17,2560124964
59,24,14,Improv_Melody,2,2,48,80,2560132480
59,24,14,Improv_Melody,3,2,72,80,2560134864
59,24,14,Improv_Melody,4,5,42,127,2560137252
59,24,14,Improv_Melody,5,5,42,110,2560630076
59,24,14,Improv_Melody,6,5,42,110,2561130020
59,24,14,Improv_Melody,7,5,42,110,2561629744
59,24,14,Improv_Melody,8,5,42,127,2562130140
59,24,14,Improv_Melody,9,5,42,110,2562630012
59,24,14,Improv_Melody,10,5,42,110,2563129880
59,24,14,Improv_Melody,11,5,42,110,2563629304
59,24,14,Improv_Melody,12,2,43,80,2564132884
59,24,14,Improv_Melody,13,2,67,80,2564134876
59,24,14,Improv_Melody,14,1,38,81,2564135996
59,24,14,Improv_Melody,15,5,42,127,2564139804
59,24,14,Improv_Melody,16,1,38,77,2564569308
59,24,14,Improv_Melody,17,5,42,110,2564629856
59,24,14,Improv_Melody,18,1,38,102,2564672300
59,24,14,Improv_Melody,19,1,48,89,2564954144
59,24,14,Improv_Melody,20,5,42,110,2565129888
59,24,14,Improv_Melody,21,1,48,72,2565191128
59,24,14,Improv_Melody,22,5,42,110,2565630340
59,24,14,Improv_Melody,23,1,38,90,2565634580
59,24,14,Improv_Melody,24,5,42,127,2566129892
59,24,14,Improv_Melody,25,1,48,102,2566150060
59,24,14,Improv_Melody,26,1,38,114,2566531008
59,24,14,Improv_Melody,27,5,42,110,2566629792
59,24,14,Improv_Melody,28,1,38,95,2566631436
59,24,14,Improv_Melody,29,1,48,20,2566641504
59,24,14,Improv_Melody,30,1,48,97,2566863184
59,24,14,Improv_Melody,31,1,48,86,2567128760
59,24,14,Improv_Melody,32,5,42,110,2567130552
59,24,14,Improv_Melody,33,1,38,103,2567531756
59,24,14,Improv_Melody,34,1,38,121,2567618676
59,24,14,Improv_Melody,35,1,48,22,2567627328
59,24,14,Improv_Melody,36,5,42,110,2567630212
59,24,14,Improv_Melody,37,1,48,99,2568093540
59,24,14,Improv_Melody,38,2,45,80,2568132616
59,24,14,Improv_Melody,39,2,69,80,2568134608
59,24,14,Improv_Melody,40,5,42,127,2568137224
59,24,14,Improv_Melody,41,1,48,116,2568550696
59,24,14,Improv_Melody,42,5,42,110,2568629744
59,24,14,Improv_Melody,43,1,38,84,2568649756
59,24,14,Improv_Melody,44,1,38,102,2568905788
59,24,14,Improv_Melody,45,5,42,110,2569130304
59,24,14,Improv_Melody,46,1,38,100,2569180472
59,24,14,Improv_Melody,47,1,38,127,2569625896
59,24,14,Improv_Melody,48,5,42,110,2569630048
59,24,14,Improv_Melody,49,5,42,127,2570129756
59,24,14,Improv_Melody,50,1,38,96,2570174712
59,24,14,Improv_Melody,51,1,38,123,2570547656
59,24,14,Improv_Melody,52,5,42,110,2570629448
59,24,14,Improv_Melody,53,1,38,87,2570674760
59,24,14,Improv_Melody,54,1,38,118,2570899880
59,24,14,Improv_Melody,55,5,42,110,2571130384
59,24,14,Improv_Melody,56,1,38,88,2571155496
59,24,14,Improv_Melody,57,1,38,127,2571271952
59,24,14,Improv_Melody,58,1,38,92,2571407840
59,24,14,Improv_Melody,59,5,42,110,2571629888
59,24,14,Improv_Melody,60,1,38,127,2571680652
59,24,14,Improv_Melody,61,2,41,80,2572132088
59,24,14,Improv_Melody,62,2,65,80,2572134244
59,24,14,Improv_Melody,63,5,42,127,2572136784
59,24,14,Improv_Melody,64,1,48,93,2572177900
59,24,14,Improv_Melody,65,5,42,110,2572630496
59,24,14,Improv_Melody,66,1,48,67,2572680664
59,24,14,Improv_Melody,67,5,42,110,2573129976
59,24,14,Improv_Melody,68,1,48,82,2573149996
59,24,14,Improv_Melody,69,5,42,110,2573629748
59,24,14,Improv_Melody,70,1,48,73,2573633616
59,24,14,Improv_Melody,71,5,42,127,2574129524
59,24,14,Improv_Melody,72,1,48,88,2574137508
59,24,14,Improv_Melody,73,1,38,86,2574372076
59,24,14,Improv_Melody,74,5,42,110,2574630400
59,24,14,Improv_Melody,75,1,48,86,2574644292
59,24,14,Improv_Melody,76,1,48,74,2574887460
59,24,14,Improv_Melody,77,5,42,110,2575130004
59,24,14,Improv_Melody,78,1,38,127,2575137836
59,24,14,Improv_Melody,79,5,42,110,2575629704
59,24,14,Improv_Melody,80,1,48,61,2575647256
59,24,14,Improv_Melody,81,1,48,78,2576116868
59,24,14,Improv_Melody,82,2,48,80,2576133020
59,24,14,Improv_Melody,83,2,72,80,2576135252
59,24,14,Improv_Melody,84,5,42,127,2576137712
59,24,14,Improv_Melody,85,1,48,58,2576368596
59,24,14,Improv_Melody,86,5,42,110,2576629992
59,24,14,Improv_Melody,87,1,38,127,2576659288
59,24,14,Improv_Melody,88,1,48,59,2576921908
59,24,14,Improv_Melody,89,5,42,110,2577129892
59,24,14,Improv_Melody,90,1,48,75,2577154184
59,24,14,Improv_Melody,91,5,42,110,2577629520
59,24,14,Improv_Melody,92,1,38,114,2577637200
59,24,14,Improv_Melody,93,1,48,62,2577887552
59,24,14,Improv_Melody,94,5,42,127,2578130392
59,24,14,Improv_Melody,95,1,48,83,2578327536
59,24,14,Improv_Melody,96,1,38,127,2578565476
59,24,14,Improv_Melody,97,5,42,110,2578629864
59,24,14,Improv_Melody,98,1,48,52,2578833196
59,24,14,Improv_Melody,99,1,48,87,2579057220
59,24,14,Improv_Melody,100,5,42,110,2579129616
59,24,14,Improv_Melody,101,1,38,56,2579564924
59,24,14,Improv_Melody,102,5,42,110,2579629312
59,24,14,Improv_Melody,103,1,48,67,2580112492
59,24,14,Improv_Melody,104,2,43,80,2580132608
59,24,14,Improv_Melody,105,2,67,80,2580134760
59,24,14,Improv_Melody,106,5,42,127,2580137452
59,24,14,Improv_Melody,107,1,48,67,2580337272
59,24,14,Improv_Melody,108,1,38,127,2580611632
59,24,14,Improv_Melody,109,5,42,110,2580629772
59,24,14,Improv_Melody,110,1,48,76,2580860440
59,24,14,Improv_Melody,111,1,48,87,2581102484
59,24,14,Improv_Melody,112,5,42,110,2581129676
59,24,14,Improv_Melody,113,1,38,127,2581565616
59,24,14,Improv_Melody,114,5,42,110,2581630572
59,24,14,Improv_Melody,115,1,48,86,2581826760
59,24,14,Improv_Melody,116,5,42,127,2582130112
59,24,14,Improv_Melody,117,1,48,103,2582279784
59,24,14,Improv_Melody,118,1,38,127,2582549588
59,24,14,Improv_Melody,119,5,42,110,2582629732
59,24,14,Improv_Melody,120,1,48,76,2582797568
59,24,14,Improv_Melody,121,1,48,93,2583038788
59,24,14,Improv_Melody,122,5,42,110,2583129336
59,24,14,Improv_Melody,123,1,38,127,2583570424
59,24,14,Improv_Melody,124,1,48,24,2583579688
59,24,14,Improv_Melody,125,5,42,110,2583630360
59,24,14,Improv_Melody,126,1,48,63,2584042256
59,24,14,Improv_Melody,127,2,45,80,2584132464
59,24,14,Improv_Melody,128,2,69,80,2584134916
59,24,14,Improv_Melody,129,5,42,127,2584138260
59,24,14,Improv_Melody,130,1,48,78,2584289356
59,24,14,Improv_Melody,131,1,38,127,2584605224
59,24,14,Improv_Melody,132,5,42,110,2584629576
59,24,14,Improv_Melody,133,1,48,68,2584858516
59,24,14,Improv_Melody,134,1,48,87,2585103332
59,24,14,Improv_Melody,135,5,42,110,2585130376
59,24,14,Improv_Melody,136,1,38,127,2585608120
59,24,14,Improv_Melody,137,1,48,26,2585617752
59,24,14,Improv_Melody,138,5,42,110,2585630352
59,24,14,Improv_Melody,139,1,48,78,2585872436
59,24,14,Improv_Melody,140,5,42,127,2586129712
59,24,14,Improv_Melody,141,1,48,88,2586331068
59,24,14,Improv_Melody,142,1,38,127,2586609172
59,24,14,Improv_Melody,143,5,42,110,2586629408
59,24,14,Improv_Melody,144,1,48,81,2586857152
59,24,14,Improv_Melody,145,1,48,90,2587111388
59,24,14,Improv_Melody,146,5,42,110,2587130356
59,24,14,Improv_Melody,147,1,38,127,2587572496
59,24,14,Improv_Melody,148,5,42,110,2587630276
59,24,14,Improv_Melody,149,1,38,127,2587999472
59,24,14,Improv_Melody,150,2,41,80,2588132244
59,24,14,Improv_Melody,151,2,65,80,2588134392
59,24,14,Improv_Melody,152,5,42,127,2588137008
59,24,14,Improv_Melody,153,1,38,104,2588403288
59,24,14,Improv_Melody,154,1,38,116,2588524064
59,24,14,Improv_Melody,155,5,42,110,2588630252
59,24,14,Improv_Melody,156,1,38,99,2588780200
59,24,14,Improv_Melody,157,1,38,117,2589039828
59,24,14,Improv_Melody,158,5,42,110,2589130320
59,24,14,Improv_Melody,159,1,38,127,2589557104
59,24,14,Improv_Melody,160,5,42,110,2589630020
59,24,14,Improv_Melody,161,1,38,111,2590061512
59,24,14,Improv_Melody,162,1,48,21,2590070848
59,24,14,Improv_Melody,163,5,42,127,2590129552
59,24,14,Improv_Melody,164,1,38,127,2590511048
59,24,14,Improv_Melody,165,1,48,127,2590614248
59,24,14,Improv_Melody,166,5,42,110,2590630444
59,24,14,Improv_Melody,167,1,38,112,2590911896
59,24,14,Improv_Melody,168,5,42,110,2591130256
59,24,14,Improv_Melody,169,1,38,127,2591480560
59,24,14,Improv_Melody,170,5,42,110,2591629584
59,24,14,Improv_Melody,171,1,48,91,2591761376
59,24,14,Improv_Melody,172,2,48,80,2592132984
59,24,14,Improv_Melody,173,2,72,80,2592135212
59,24,14,Improv_Melody,174,5,42,127,2592137896
59,24,14,Improv_Melody,175,1,38,127,2592234540
59,24,14,Improv_Melody,176,5,42,110,2592630120
59,24,14,Improv_Melody,177,1,38,67,2592707088
59,24,14,Improv_Melody,178,5,42,110,2593130192
59,24,14,Improv_Melody,179,1,38,89,2593188584
59,24,14,Improv_Melody,180,5,42,110,2593629444
59,24,14,Improv_Melody,181,1,38,100,2593662628
59,24,14,Improv_Melody,182,5,42,127,2594130192
59,24,14,Improv_Melody,183,1,38,127,2594152608
59,24,14,Improv_Melody,184,5,42,110,2594630112
59,24,14,Improv_Melody,185,1,38,70,2594655972
59,24,14,Improv_Melody,186,5,42,110,2595129888
59,24,14,Improv_Melody,187,1,38,111,2595138464
59,24,14,Improv_Melody,188,5,42,110,2595629364
59,24,14,Improv_Melody,189,1,38,66,2595638164
59,24,14,Improv_Melody,190,1,48,91,2596098576
59,24,14,Improv_Melody,191,1,38,20,2596107980
59,24,14,Improv_Melody,192,1,38,99,2596122992
59,24,14,Improv_Melody,193,2,43,80,2596132716
59,24,14,Improv_Melody,194,2,67,80,2596134944
59,24,14,Improv_Melody,195,5,42,127,2596137480
59,24,14,Improv_Melody,196,1,38,73,2596566356
59,24,14,Improv_Melody,197,5,42,110,2596629900
59,24,14,Improv_Melody,198,1,38,127,2597073904
59,24,14,Improv_Melody,199,5,42,110,2597129672
59,24,14,Improv_Melody,200,1,38,62,2597564180
59,24,14,Improv_Melody,201,5,42,110,2597630196
59,24,14,Improv_Melody,202,1,38,111,2598074280
59,24,14,Improv_Melody,203,5,42,127,2598129896
59,24,14,Improv_Melody,204,1,38,67,2598583852
59,24,14,Improv_Melody,205,5,42,110,2598629820
59,24,14,Improv_Melody,206,1,38,127,2599083108
59,24,14,Improv_Melody,207,5,42,110,2599129672
59,24,14,Improv_Melody,208,1,38,77,2599300104
59,24,14,Improv_Melody,209,1,38,127,2599536012
59,24,14,Improv_Melody,210,5,42,110,2599631128
59,24,14,Improv_Melody,211,1,38,85,2599801196
59,24,14,Improv_Melody,212,1,38,127,2600047884
59,24,14,Improv_Melody,213,2,45,80,2600132428
59,24,14,Improv_Melody,214,2,69,80,2600134652
59,24,14,Improv_Melody,215,5,42,127,2600137192
59,24,14,Improv_Melody,216,1,38,127,2600572280
59,24,14,Improv_Melody,217,5,42,110,2600629712
59,24,14,Improv_Melody,218,1,38,127,2601088436
59,24,14,Improv_Melody,219,5,42,110,2601130312
59,24,14,Improv_Melody,220,1,38,96,2601527404
59,24,14,Improv_Melody,221,5,42,110,2601630048
59,24,14,Improv_Melody,222,1,38,95,2601663180
59,24,14,Improv_Melody,223,1,38,108,2601919820
59,24,14,Improv_Melody,224,5,42,127,2602129872
59,24,14,Improv_Melody,225,1,48,127,2602157104
59,24,14,Improv_Melody,226,5,42,110,2602629424
59,24,14,Improv_Melody,227,1,48,127,2602640400
59,24,14,Improv_Melody,228,5,42,110,2603130172
59,24,14,Improv_Melody,229,1,48,97,2603135308
59,24,14,Improv_Melody,230,5,42,110,2603629944
59,24,14,Improv_Melody,231,1,48,88,2603664100
59,24,14,Improv_Melody,232,1,38,123,2603925076
59,24,14,Improv_Melody,233,2,41,80,2604132348
59,24,14,Improv_Melody,234,2,65,80,2604134580
59,24,14,Improv_Melody,235,5,42,127,2604137112
59,24,14,Improv_Melody,236,1,48,91,2604173216
59,24,14,Improv_Melody,237,5,42,110,2604630532
59,24,14,Improv_Melody,238,1,48,98,2604655116
59,24,14,Improv_Melody,239,1,38,64,2604943016
59,24,14,Improv_Melody,240,5,42,110,2605130136
59,24,14,Improv_Melody,241,1,38,114,2605155992
59,24,14,Improv_Melody,242,1,38,124,2605623128
59,24,14,Improv_Melody,243,5,42,110,2605629756
59,24,14,Improv_Melody,244,1,38,127,2606118420
59,24,14,Improv_Melody,245,5,42,127,2606129680
59,24,14,Improv_Melody,246,1,48,74,2606393324
59,24,14,Improv_Melody,247,5,42,110,2606630260
59,24,14,Improv_Melody,248,1,38,106,2606637272
59,24,14,Improv_Melody,249,1,48,76,2606879316
59,24,14,Improv_Melody,250,5,42,110,2607129940
59,24,14,Improv_Melody,251,1,38,91,2607130832
59,24,14,Improv_Melody,252,1,38,127,2607626972
59,24,14,Improv_Melody,253,5,42,110,2607629632
59,24,14,Improv_Melody,254,1,38,127,2608114628
59,24,14,Improv_Melody,255,2,48,80,2608132960
59,24,14,Improv_Melody,256,2,72,80,2608134960
59,24,14,Improv_Melody,257,5,42,127,2608137724
59,24,14,Improv_Melody,258,1,48,87,2608365168
59,24,14,Improv_Melody,259,1,38,127,2608621732
59,24,14,Improv_Melody,260,5,42,110,2608629996
59,24,14,Improv_Melody,261,1,48,82,2608884820
59,24,14,Improv_Melody,262,5,42,110,2609129756
59,24,14,Improv_Melody,263,1,38,127,2609134824
59,24,14,Improv_Melody,264,5,42,110,2609629680
59,24,14,Improv_Melody,265,1,38,104,2609634524
59,24,14,Improv_Melody,266,5,42,127,2610130280
59,24,14,Improv_Melody,267,1,38,127,2610137660
59,24,14,Improv_Melody,268,1,48,70,2610392128
59,24,14,Improv_Melody,269,5,42,110,2610630032
59,24,14,Improv_Melody,270,1,38,127,2610636588
59,24,14,Improv_Melody,271,1,48,70,2610889936
59,24,14,Improv_Melody,272,5,42,110,2611129564
59,24,14,Improv_Melody,273,1,38,127,2611137620
59,24,14,Improv_Melody,274,5,42,110,2611629560
59,24,14,Improv_Melody,275,1,38,126,2611649956
59,24,14,Improv_Melody,276,1,48,22,2611659360
59,24,14,Improv_Melody,277,1,38,127,2612127568
59,24,14,Improv_Melody,278,2,43,80,2612133032
59,24,14,Improv_Melody,279,2,67,80,2612135716
59,24,14,Improv_Melody,280,5,42,127,2612137804
59,24,14,Improv_Melody,281,1,48,64,2612403024
59,24,14,Improv_Melody,282,5,42,110,2612629764
59,24,14,Improv_Melody,283,1,38,127,2612653848
59,24,14,Improv_Melody,284,1,48,61,2612893328
59,24,14,Improv_Melody,285,5,42,110,2613129664
59,24,14,Improv_Melody,286,1,38,127,2613146248
59,24,14,Improv_Melody,287,1,38,125,2613610772
59,24,14,Improv_Melody,288,5,42,110,2613630260
59,24,14,Improv_Melody,289,1,38,57,2613653560
59,24,14,Improv_Melody,290,5,42,127,2614130016
59,24,14,Improv_Melody,291,1,38,127,2614131732
59,24,14,Improv_Melody,292,1,48,70,2614395084
59,24,14,Improv_Melody,293,5,42,110,2614629696
59,24,14,Improv_Melody,294,1,38,127,2614652116
59,24,14,Improv_Melody,295,1,48,66,2614884284
59,24,14,Improv_Melody,296,5,42,110,2615129524
59,24,14,Improv_Melody,297,1,38,127,2615145060
59,24,14,Improv_Melody,298,5,42,110,2615630272
59,24,14,Improv_Melody,299,1,48,87,2615636604
59,24,14,Improv_Melody,300,2,45,80,2616132628
59,24,14,Improv_Melody,301,2,69,80,2616134548
59,24,14,Improv_Melody,302,5,42,127,2616137088
59,24,14,Improv_Melody,303,1,48,90,2616165420
59,24,14,Improv_Melody,304,5,42,110,2616629684
59,24,14,Improv_Melody,305,1,48,78,2616646264
59,24,14,Improv_Melody,306,5,42,110,2617130504
59,24,14,Improv_Melody,307,1,48,89,2617137588
59,24,14,Improv_Melody,308,5,42,110,2617629980
59,24,14,Improv_Melody,309,1,48,90,2617637364
59,24,14,Improv_Melody,310,1,38,115,2617878664
59,24,14,Improv_Melody,311,5,42,127,2618129808
59,24,14,Improv_Melody,312,1,38,84,2618138384
59,24,14,Improv_Melody,313,1,38,127,2618620940
59,24,14,Improv_Melody,314,5,42,110,2618629428
59,24,14,Improv_Melody,315,1,48,108,2619092880
59,24,14,Improv_Melody,316,5,42,110,2619130176
59,24,14,Improv_Melody,317,1,38,69,2619581140
59,24,14,Improv_Melody,318,1,48,17,2619592488
59,24,14,Improv_Melody,319,5,42,110,2619629852
59,24,14,Improv_Melody,320,1,38,79,2619833564
59,24,14,Improv_Melody,321,1,48,127,2620121164
59,24,14,Improv_Melody,322,2,41,80,2620131932
59,24,14,Improv_Melody,323,2,65,80,2620134156
59,24,14,Improv_Melody,324,5,42,127,2620136772
59,24,14,Improv_Melody,325,1,38,84,2620612648
59,24,14,Improv_Melody,326,5,42,110,2620630488
59,24,14,Improv_Melody,327,1,38,127,2621108240
59,24,14,Improv_Melody,328,5,42,110,2621130040
59,24,14,Improv_Melody,329,1,48,87,2621605168
59,24,14,Improv_Melody,330,5,42,110,2621629816
59,24,14,Improv_Melody,331,1,38,82,2621815952
59,24,14,Improv_Melody,332,1,38,113,2622107812
59,24,14,Improv_Melody,333,5,42,127,2622129640
59,24,14,Improv_Melody,334,1,48,123,2622587540
59,24,14,Improv_Melody,335,5,42,110,2622630312
59,24,14,Improv_Melody,336,1,48,108,2623095392
59,24,14,Improv_Melody,337,5,42,110,2623129916
59,24,14,Improv_Melody,338,5,42,110,2623629696
59,24,14,Improv_Melody,339,1,48,99,2623633860
59,24,14,Improv_Melody,340,1,38,21,2623643264
59,24,14,Improv_Melody,341,1,48,72,2623880500
59,24,14,Improv_Melody,342,1,38,114,2624130788
59,24,14,Improv_Melody,343,2,48,80,2624135640
59,24,14,Improv_Melody,344,2,72,80,2624137644
59,24,14,Improv_Melody,345,5,42,127,2624140248
59,24,14,Improv_Melody,346,1,48,127,2624599080
59,24,14,Improv_Melody,347,1,38,24,2624609076
59,24,14,Improv_Melody,348,5,42,110,2624630060
59,24,14,Improv_Melody,349,1,48,95,2625129288
59,24,14,Improv_Melody,350,5,42,110,2625131076
59,24,14,Improv_Melody,351,1,48,84,2625627396
59,24,14,Improv_Melody,352,5,42,110,2625629512
59,24,14,Improv_Melody,353,1,48,74,2625868852
59,24,14,Improv_Melody,354,1,48,103,2626127424
59,24,14,Improv_Melody,355,5,42,127,2626130456
59,24,14,Improv_Melody,356,1,38,93,2626602516
59,24,14,Improv_Melody,357,5,42,110,2626629860
59,24,14,Improv_Melody,358,1,38,119,2627125332
59,24,14,Improv_Melody,359,5,42,110,2627129636
59,24,14,Improv_Melody,360,1,48,51,2627623088
59,24,14,Improv_Melody,361,5,42,110,2627629412
59,24,14,Improv_Melody,362,1,48,84,2627861416
59,24,14,Improv_Melody,363,2,43,80,2628132880
59,24,14,Improv_Melody,364,2,67,80,2628135028
59,24,14,Improv_Melody,365,5,42,127,2628137636
59,24,14,Improv_Melody,366,1,48,85,2628144200
59,24,14,Improv_Melody,367,1,38,99,2628629332
59,24,14,Improv_Melody,368,5,42,110,2628632388
59,24,14,Improv_Melody,369,1,38,127,2629104600
59,24,14,Improv_Melody,370,5,42,110,2629129624
59,24,14,Improv_Melody,371,1,48,81,2629590840
59,24,14,Improv_Melody,372,5,42,110,2629630296
59,24,14,Improv_Melody,373,1,48,34,2629650004
59,24,14,Improv_Melody,374,1,48,84,2629831392
59,24,14,Improv_Melody,375,1,48,86,2630105980
59,24,14,Improv_Melody,376,5,42,127,2630130180
59,24,14,Improv_Melody,377,1,38,118,2630621316
59,24,14,Improv_Melody,378,5,42,110,2630629656
59,24,14,Improv_Melody,379,1,38,127,2631106952
59,24,14,Improv_Melody,380,5,42,110,2631129504
59,24,14,Improv_Melody,381,1,48,105,2631612856
59,24,14,Improv_Melody,382,5,42,110,2631630248
59,24,14,Improv_Melody,383,1,48,95,2631835908
59,24,14,Improv_Melody,384,1,48,84,2632111340
59,24,14,Improv_Melody,385,2,45,80,2632132508
59,24,14,Improv_Melody,386,2,69,80,2632134660
59,24,14,Improv_Melody,387,5,42,127,2632137196
59,24,14,Improv_Melody,388,5,42,110,2632629500
59,24,14,Improv_Melody,389,1,38,126,2632634712
59,24,14,Improv_Melody,390,1,38,127,2633129868
59,24,14,Improv_Melody,391,5,42,110,2633132028
59,24,14,Improv_Melody,392,5,42,110,2633630144
59,24,14,Improv_Melody,393,1,48,80,2633638672
59,24,14,Improv_Melody,394,1,48,106,2633875084
59,24,14,Improv_Melody,395,1,48,122,2634099484
59,24,14,Improv_Melody,396,5,42,127,2634129888
59,24,14,Improv_Melody,397,5,42,110,2634629524
59,24,14,Improv_Melody,398,1,38,127,2634673952
59,24,14,Improv_Melody,399,1,38,127,2635113092
59,24,14,Improv_Melody,400,5,42,110,2635130264
59,24,14,Improv_Melody,401,5,42,110,2635630044
59,24,14,Improv_Melody,402,1,48,107,2635642888
59,24,14,Improv_Melody,403,2,41,80,2636132404
59,24,14,Improv_Melody,404,2,65,80,2636134324
59,24,14,Improv_Melody,405,1,38,127,2636135288
59,24,14,Improv_Melody,406,5,42,127,2636139100
59,24,14,Improv_Melody,407,1,38,112,2636146616
59,24,14,Improv_Melody,408,5,42,110,2636630260
59,24,14,Improv_Melody,409,1,48,91,2636668456
59,24,14,Improv_Melody,410,5,42,110,2637130180
59,24,14,Improv_Melody,411,1,48,87,2637184688
59,24,14,Improv_Melody,412,1,38,97,2637608224
59,24,14,Improv_Melody,413,5,42,110,2637630024
59,24,14,Improv_Melody,414,1,48,127,2637633892
59,24,14,Improv_Melody,415,1,38,46,2637642024
59,24,14,Improv_Melody,416,1,38,122,2638088508
59,24,14,Improv_Melody,417,5,42,127,2638129460
59,24,14,Improv_Melody,418,1,48,109,2638588800
59,24,14,Improv_Melody,419,1,38,86,2638589456
59,24,14,Improv_Melody,420,5,42,110,2638630112
59,24,14,Improv_Melody,421,1,38,97,2639063844
59,24,14,Improv_Melody,422,5,42,110,2639130080
59,24,14,Improv_Melody,423,1,48,117,2639564144
59,24,14,Improv_Melody,424,1,38,85,2639577440
59,24,14,Improv_Melody,425,5,42,110,2639629684
59,24,14,Improv_Melody,426,1,38,79,2640086240
59,24,14,Improv_Melody,427,1,48,59,2640094964
59,24,14,Improv_Melody,428,2,48,80,2640133196
59,24,14,Improv_Melody,429,2,72,80,2640135196
59,24,14,Improv_Melody,430,5,42,127,2640137880
59,24,14,Improv_Melody,431,1,38,92,2640581264
59,24,14,Improv_Melody,432,1,48,127,2640596652
59,24,14,Improv_Melody,433,5,42,110,2640630128
59,24,14,Improv_Melody,434,1,48,98,2641094680
59,24,14,Improv_Melody,0,9999,9999,9999,2560128096
59,24,14,Improv_Melody,1,9999,9999,9999,2560627784
59,24,14,Improv_Melody,2,9999,9999,9999,2561127508
59,24,14,Improv_Melody,3,9999,9999,9999,2561627228
59,24,14,Improv_Melody,4,9999,9999,9999,2562127920
59,24,14,Improv_Melody,5,9999,9999,9999,2562627644
59,24,14,Improv_Melody,6,9999,9999,9999,2563127368
59,24,14,Improv_Melody,7,9999,9999,9999,2563627088
59,24,14,Improv_Melody,8,9999,9999,9999,2564127856
59,24,14,Improv_Melody,9,9999,9999,9999,2564627564
59,24,14,Improv_Melody,10,9999,9999,9999,2565127228
59,24,14,Improv_Melody,11,9999,9999,9999,2565627972
59,24,14,Improv_Melody,12,9999,9999,9999,2566127672
59,24,14,Improv_Melody,13,9999,9999,9999,2566627428
59,24,14,Improv_Melody,14,9999,9999,9999,2567127148
59,24,14,Improv_Melody,15,9999,9999,9999,2567627844
59,24,14,Improv_Melody,16,9999,9999,9999,2568127592
59,24,14,Improv_Melody,17,9999,9999,9999,2568627304
59,24,14,Improv_Melody,18,9999,9999,9999,2569128012
59,24,14,Improv_Melody,19,9999,9999,9999,2569627756
59,24,14,Improv_Melody,20,9999,9999,9999,2570127464
59,24,14,Improv_Melody,21,9999,9999,9999,2570627156
59,24,14,Improv_Melody,22,9999,9999,9999,2571127868
59,24,14,Improv_Melody,23,9999,9999,9999,2571627596
59,24,14,Improv_Melody,24,9999,9999,9999,2572127296
59,24,14,Improv_Melody,25,9999,9999,9999,2572628056
59,24,14,Improv_Melody,26,9999,9999,9999,2573127756
59,24,14,Improv_Melody,27,9999,9999,9999,2573627456
59,24,14,Improv_Melody,28,9999,9999,9999,2574127156
59,24,14,Improv_Melody,29,9999,9999,9999,2574627960
59,24,14,Improv_Melody,30,9999,9999,9999,2575127636
59,24,14,Improv_Melody,31,9999,9999,9999,2575627336
59,24,14,Improv_Melody,32,9999,9999,9999,2576128076
59,24,14,Improv_Melody,33,9999,9999,9999,2576627776
59,24,14,Improv_Melody,34,9999,9999,9999,2577127528
59,24,14,Improv_Melody,35,9999,9999,9999,2577627228
59,24,14,Improv_Melody,36,9999,9999,9999,2578127952
59,24,14,Improv_Melody,37,9999,9999,9999,2578627648
59,24,14,Improv_Melody,38,9999,9999,9999,2579127396
59,24,14,Improv_Melody,39,9999,9999,9999,2579627096
59,24,14,Improv_Melody,40,9999,9999,9999,2580127816
59,24,14,Improv_Melody,41,9999,9999,9999,2580627556
59,24,14,Improv_Melody,42,9999,9999,9999,2581127236
59,24,14,Improv_Melody,43,9999,9999,9999,2581627984
59,24,14,Improv_Melody,44,9999,9999,9999,2582127668
59,24,14,Improv_Melody,45,9999,9999,9999,2582627440
59,24,14,Improv_Melody,46,9999,9999,9999,2583127120
59,24,14,Improv_Melody,47,9999,9999,9999,2583627844
59,24,14,Improv_Melody,48,9999,9999,9999,2584127592
59,24,14,Improv_Melody,49,9999,9999,9999,2584627284
59,24,14,Improv_Melody,50,9999,9999,9999,2585128008
59,24,14,Improv_Melody,51,9999,9999,9999,2585627764
59,24,14,Improv_Melody,52,9999,9999,9999,2586127420
59,24,14,Improv_Melody,53,9999,9999,9999,2586627192
59,24,14,Improv_Melody,54,9999,9999,9999,2587127916
59,24,14,Improv_Melody,55,9999,9999,9999,2587627616
59,24,14,Improv_Melody,56,9999,9999,9999,2588127300
59,24,14,Improv_Melody,57,9999,9999,9999,2588628036
59,24,14,Improv_Melody,58,9999,9999,9999,2589127732
59,24,14,Improv_Melody,59,9999,9999,9999,2589627504
59,24,14,Improv_Melody,60,9999,9999,9999,2590127184
59,24,14,Improv_Melody,61,9999,9999,9999,2590627932
59,24,14,Improv_Melody,62,9999,9999,9999,2591127668
59,24,14,Improv_Melody,63,9999,9999,9999,2591627364
59,24,14,Improv_Melody,64,9999,9999,9999,2592128112
59,24,14,Improv_Melody,65,9999,9999,9999,2592627828
59,24,14,Improv_Melody,66,9999,9999,9999,2593127528
59,24,14,Improv_Melody,67,9999,9999,9999,2593627228
59,24,14,Improv_Melody,68,9999,9999,9999,2594127972
59,24,14,Improv_Melody,69,9999,9999,9999,2594627672
59,24,14,Improv_Melody,70,9999,9999,9999,2595127372
59,24,14,Improv_Melody,71,9999,9999,9999,2595627072
59,24,14,Improv_Melody,72,9999,9999,9999,2596127844
59,24,14,Improv_Melody,73,9999,9999,9999,2596627532
59,24,14,Improv_Melody,74,9999,9999,9999,2597127232
59,24,14,Improv_Melody,75,9999,9999,9999,2597627980
59,24,14,Improv_Melody,76,9999,9999,9999,2598127680
59,24,14,Improv_Melody,77,9999,9999,9999,2598627380
59,24,14,Improv_Melody,78,9999,9999,9999,2599127156
59,24,14,Improv_Melody,79,9999,9999,9999,2599627880
59,24,14,Improv_Melody,80,9999,9999,9999,2600127560
59,24,14,Improv_Melody,81,9999,9999,9999,2600627272
59,24,14,Improv_Melody,82,9999,9999,9999,2601128020
59,24,14,Improv_Melody,83,9999,9999,9999,2601627756
59,24,14,Improv_Melody,84,9999,9999,9999,2602127432
59,24,14,Improv_Melody,85,9999,9999,9999,2602627132
59,24,14,Improv_Melody,86,9999,9999,9999,2603127880
59,24,14,Improv_Melody,87,9999,9999,9999,2603627580
59,24,14,Improv_Melody,88,9999,9999,9999,2604127332
59,24,14,Improv_Melody,89,9999,9999,9999,2604628088
59,24,14,Improv_Melody,90,9999,9999,9999,2605127768
59,24,14,Improv_Melody,91,9999,9999,9999,2605627464
59,24,14,Improv_Melody,92,9999,9999,9999,2606127164
59,24,14,Improv_Melody,93,9999,9999,9999,2606627896
59,24,14,Improv_Melody,94,9999,9999,9999,2607127648
59,24,14,Improv_Melody,95,9999,9999,9999,2607627340
59,24,14,Improv_Melody,96,9999,9999,9999,2608128088
59,24,14,Improv_Melody,97,9999,9999,9999,2608627780
59,24,14,Improv_Melody,98,9999,9999,9999,2609127540
59,24,14,Improv_Melody,99,9999,9999,9999,2609627240
59,24,14,Improv_Melody,100,9999,9999,9999,2610127988
59,24,14,Improv_Melody,101,9999,9999,9999,2610627664
59,24,14,Improv_Melody,102,9999,9999,9999,2611127344
59,24,14,Improv_Melody,103,9999,9999,9999,2611627120
59,24,14,Improv_Melody,104,9999,9999,9999,2612127860
59,24,14,Improv_Melody,105,9999,9999,9999,2612627548
59,24,14,Improv_Melody,106,9999,9999,9999,2613127224
59,24,14,Improv_Melody,107,9999,9999,9999,2613627968
59,24,14,Improv_Melody,108,9999,9999,9999,2614127724
59,24,14,Improv_Melody,109,9999,9999,9999,2614627404
59,24,14,Improv_Melody,110,9999,9999,9999,2615127160
59,24,14,Improv_Melody,111,9999,9999,9999,2615627828
59,24,14,Improv_Melody,112,9999,9999,9999,2616127604
59,24,14,Improv_Melody,113,9999,9999,9999,2616627316
59,24,14,Improv_Melody,114,9999,9999,9999,2617127988
59,24,14,Improv_Melody,115,9999,9999,9999,2617627764
59,24,14,Improv_Melody,116,9999,9999,9999,2618127440
59,24,14,Improv_Melody,117,9999,9999,9999,2618627136
59,24,14,Improv_Melody,118,9999,9999,9999,2619127884
59,24,14,Improv_Melody,119,9999,9999,9999,2619627636
59,24,14,Improv_Melody,120,9999,9999,9999,2620127288
59,24,14,Improv_Melody,121,9999,9999,9999,2620628048
59,24,14,Improv_Melody,122,9999,9999,9999,2621127748
59,24,14,Improv_Melody,123,9999,9999,9999,2621627448
59,24,14,Improv_Melody,124,9999,9999,9999,2622127200
59,24,14,Improv_Melody,125,9999,9999,9999,2622627924
59,24,14,Improv_Melody,126,9999,9999,9999,2623127624
59,24,14,Improv_Melody,127,9999,9999,9999,2623627328
59,24,14,Improv_Melody,128,9999,9999,9999,2624128080
59,24,14,Improv_Melody,129,9999,9999,9999,2624627768
59,24,14,Improv_Melody,130,9999,9999,9999,2625127524
59,24,14,Improv_Melody,131,9999,9999,9999,2625627256
59,24,14,Improv_Melody,132,9999,9999,9999,2626127944
59,24,14,Improv_Melody,133,9999,9999,9999,2626627644
59,24,14,Improv_Melody,134,9999,9999,9999,2627127420
59,24,14,Improv_Melody,135,9999,9999,9999,2627627120
59,24,14,Improv_Melody,136,9999,9999,9999,2628127852
59,24,14,Improv_Melody,137,9999,9999,9999,2628627564
59,24,14,Improv_Melody,138,9999,9999,9999,2629127260
59,24,14,Improv_Melody,139,9999,9999,9999,2629628008
59,24,14,Improv_Melody,140,9999,9999,9999,2630127740
59,24,14,Improv_Melody,141,9999,9999,9999,2630627440
59,24,14,Improv_Melody,142,9999,9999,9999,2631127140
59,24,14,Improv_Melody,143,9999,9999,9999,2631627884
59,24,14,Improv_Melody,144,9999,9999,9999,2632127564
59,24,14,Improv_Melody,145,9999,9999,9999,2632627280
59,24,14,Improv_Melody,146,9999,9999,9999,2633128028
59,24,14,Improv_Melody,147,9999,9999,9999,2633627704
59,24,14,Improv_Melody,148,9999,9999,9999,2634127452
59,24,14,Improv_Melody,149,9999,9999,9999,2634627156
59,24,14,Improv_Melody,150,9999,9999,9999,2635127896
59,24,14,Improv_Melody,151,9999,9999,9999,2635627604
59,24,14,Improv_Melody,152,9999,9999,9999,2636127304
59,24,14,Improv_Melody,153,9999,9999,9999,2636628040
59,24,14,Improv_Melody,154,9999,9999,9999,2637127740
59,24,14,Improv_Melody,155,9999,9999,9999,2637627512
59,24,14,Improv_Melody,156,9999,9999,9999,2638127168
59,24,14,Improv_Melody,157,9999,9999,9999,2638627896
59,24,14,Improv_Melody,158,9999,9999,9999,2639127640
59,24,14,Improv_Melody,159,9999,9999,9999,2639627320
59,24,14,Improv_Melody,160,9999,9999,9999,2640128096
59,24,14,Improv_Melody,161,9999,9999,9999,2640627760
