pid,taskRunCount,taskID,taskName,i,channel,pitch,velocity,microseconds
1,1,Ticks_Pract_5,0,5,42,127,609081796
531,1,Ticks_Pract_5,1,5,42,127,609581364
531,1,Ticks_Pract_5,2,5,42,127,610082352
531,1,Ticks_Pract_5,3,1,48,18,610155584
531,1,Ticks_Pract_5,4,5,42,127,610581824
531,1,Ticks_Pract_5,5,1,48,19,610617856
531,1,Ticks_Pract_5,6,1,48,17,611065468
531,1,Ticks_Pract_5,7,5,42,127,611081436
531,1,Ticks_Pract_5,8,1,48,18,611555516
531,1,Ticks_Pract_5,9,5,42,127,611582400
531,1,Ticks_Pract_5,10,1,48,15,612050792
531,1,Ticks_Pract_5,11,5,42,127,612082316
531,1,Ticks_Pract_5,12,1,48,16,612553628
531,1,Ticks_Pract_5,13,5,42,127,612581792
531,1,Ticks_Pract_5,14,1,48,15,613034924
531,1,Ticks_Pract_5,15,5,42,127,613081412
531,1,Ticks_Pract_5,16,1,48,14,613549656
531,1,Ticks_Pract_5,17,5,42,127,613582152
531,1,Ticks_Pract_5,18,5,42,127,614081856
531,1,Ticks_Pract_5,19,5,42,127,614581572
531,1,Ticks_Pract_5,20,1,48,19,615055516
531,1,Ticks_Pract_5,21,5,42,127,615082400
531,1,Ticks_Pract_5,22,1,48,17,615569124
531,1,Ticks_Pract_5,23,5,42,127,615582172
531,1,Ticks_Pract_5,24,1,48,21,616077720
531,1,Ticks_Pract_5,25,5,42,127,616081716
531,1,Ticks_Pract_5,26,1,48,19,616575692
531,1,Ticks_Pract_5,27,5,42,127,616581560
531,1,Ticks_Pract_5,28,5,42,127,617082088
531,1,Ticks_Pract_5,29,1,48,18,617096352
531,1,Ticks_Pract_5,30,5,42,127,617581780
531,1,Ticks_Pract_5,31,1,48,19,618074872
531,1,Ticks_Pract_5,32,5,42,127,618081788
531,1,Ticks_Pract_5,33,5,42,127,618582388
531,1,Ticks_Pract_5,34,1,48,16,618603456
531,1,Ticks_Pract_5,35,5,42,127,619082280
531,1,Ticks_Pract_5,36,1,48,19,619083692
531,1,Ticks_Pract_5,37,5,42,127,619581676
531,1,Ticks_Pract_5,38,1,48,17,619594740
531,1,Ticks_Pract_5,39,5,42,127,620081520
531,1,Ticks_Pract_5,40,1,48,16,620089200
531,1,Ticks_Pract_5,41,1,48,21,620552752
531,1,Ticks_Pract_5,42,5,42,127,620582108
531,1,Ticks_Pract_5,43,1,48,28,621051028
531,1,Ticks_Pract_5,44,5,42,127,621082100
531,1,Ticks_Pract_5,45,5,42,127,621581728
531,1,Ticks_Pract_5,46,1,48,38,621590156
531,1,Ticks_Pract_5,47,5,42,127,622082540
531,1,Ticks_Pract_5,48,1,48,13,622098828
531,1,Ticks_Pract_5,49,1,48,17,622549140
531,1,Ticks_Pract_5,50,5,42,127,622582080
531,1,Ticks_Pract_5,51,1,48,18,623064908
531,1,Ticks_Pract_5,52,5,42,127,623081920
531,1,Ticks_Pract_5,53,1,48,20,623559592
531,1,Ticks_Pract_5,54,5,42,127,623581396
531,1,Ticks_Pract_5,55,1,48,21,624059140
531,1,Ticks_Pract_5,56,5,42,127,624082212
531,1,Ticks_Pract_5,57,1,48,18,624526896
531,1,Ticks_Pract_5,58,5,42,127,624582056
531,1,Ticks_Pract_5,59,1,48,19,625016868
531,1,Ticks_Pract_5,60,5,42,127,625081600
531,1,Ticks_Pract_5,61,1,48,16,625561740
531,1,Ticks_Pract_5,62,5,42,127,625581444
531,1,Ticks_Pract_5,63,1,48,17,626044980
531,1,Ticks_Pract_5,64,5,42,127,626082112
531,1,Ticks_Pract_5,65,1,48,22,626545344
531,1,Ticks_Pract_5,66,5,42,127,626581956
531,1,Ticks_Pract_5,67,1,48,20,627058352
531,1,Ticks_Pract_5,68,5,42,127,627081576
531,1,Ticks_Pract_5,69,1,48,19,627572784
531,1,Ticks_Pract_5,70,5,42,127,627582240
531,1,Ticks_Pract_5,71,1,48,18,628076364
531,1,Ticks_Pract_5,72,5,42,127,628082156
531,1,Ticks_Pract_5,73,1,48,17,628567832
531,1,Ticks_Pract_5,74,5,42,127,628581704
531,1,Ticks_Pract_5,0,9999,9999,9999,609079364
531,1,Ticks_Pract_5,1,9999,9999,9999,609579076
531,1,Ticks_Pract_5,2,9999,9999,9999,610079840
531,1,Ticks_Pract_5,3,9999,9999,9999,610579536
531,1,Ticks_Pract_5,4,9999,9999,9999,611079224
531,1,Ticks_Pract_5,5,9999,9999,9999,611579968
531,1,Ticks_Pract_5,6,9999,9999,9999,612079732
531,1,Ticks_Pract_5,7,9999,9999,9999,612579428
531,1,Ticks_Pract_5,8,9999,9999,9999,613079128
531,1,Ticks_Pract_5,9,9999,9999,9999,613579868
531,1,Ticks_Pract_5,10,9999,9999,9999,614079568
531,1,Ticks_Pract_5,11,9999,9999,9999,614579288
531,1,Ticks_Pract_5,12,9999,9999,9999,615080040
531,1,Ticks_Pract_5,13,9999,9999,9999,615579736
531,1,Ticks_Pract_5,14,9999,9999,9999,616079432
531,1,Ticks_Pract_5,15,9999,9999,9999,616579128
531,1,Ticks_Pract_5,16,9999,9999,9999,617079876
531,1,Ticks_Pract_5,17,9999,9999,9999,617579568
531,1,Ticks_Pract_5,18,9999,9999,9999,618079352
531,1,Ticks_Pract_5,19,9999,9999,9999,618580028
531,1,Ticks_Pract_5,20,9999,9999,9999,619079768
531,1,Ticks_Pract_5,21,9999,9999,9999,619579464
531,1,Ticks_Pract_5,22,9999,9999,9999,620079160
531,1,Ticks_Pract_5,23,9999,9999,9999,620579896
531,1,Ticks_Pract_5,24,9999,9999,9999,621079664
531,1,Ticks_Pract_5,25,9999,9999,9999,621579364
531,1,Ticks_Pract_5,26,9999,9999,9999,622080108
531,1,Ticks_Pract_5,27,9999,9999,9999,622579792
531,1,Ticks_Pract_5,28,9999,9999,9999,623079488
531,1,Ticks_Pract_5,29,9999,9999,9999,623579184
531,1,Ticks_Pract_5,30,9999,9999,9999,624079924
531,1,Ticks_Pract_5,31,9999,9999,9999,624579696
531,1,Ticks_Pract_5,32,9999,9999,9999,625079388
531,1,Ticks_Pract_5,33,9999,9999,9999,625579084
531,1,Ticks_Pract_5,34,9999,9999,9999,626079824
531,1,Ticks_Pract_5,35,9999,9999,9999,626579520
531,1,Ticks_Pract_5,36,9999,9999,9999,627079288
531,1,Ticks_Pract_5,37,9999,9999,9999,627579956
531,1,Ticks_Pract_5,38,9999,9999,9999,628079724
531,1,Ticks_Pract_5,39,9999,9999,9999,628579420
532,0,Ticks_Pract_8,0,5,42,127,688158376
532,0,Ticks_Pract_8,1,5,42,127,688957760
532,0,Ticks_Pract_8,2,1,48,51,689218504
532,0,Ticks_Pract_8,3,5,42,127,689757520
532,0,Ticks_Pract_8,4,1,48,42,689868492
532,0,Ticks_Pract_8,5,1,48,37,690554068
532,0,Ticks_Pract_8,6,5,42,127,690558292
532,0,Ticks_Pract_8,7,1,48,37,691343556
532,0,Ticks_Pract_8,8,5,42,127,691358252
532,0,Ticks_Pract_8,9,1,48,44,692155948
532,0,Ticks_Pract_8,10,5,42,127,692158132
532,0,Ticks_Pract_8,11,5,42,127,692957428
532,0,Ticks_Pract_8,12,1,48,42,692981788
532,0,Ticks_Pract_8,13,1,48,43,693756836
532,0,Ticks_Pract_8,14,5,42,127,693758276
532,0,Ticks_Pract_8,15,5,42,127,694558240
532,0,Ticks_Pract_8,16,1,48,35,694581028
532,0,Ticks_Pract_8,17,5,42,127,695358048
532,0,Ticks_Pract_8,18,1,48,40,695382432
532,0,Ticks_Pract_8,19,5,42,127,696157508
532,0,Ticks_Pract_8,20,1,48,36,696169752
532,0,Ticks_Pract_8,21,1,48,39,696953828
532,0,Ticks_Pract_8,22,5,42,127,696958280
532,0,Ticks_Pract_8,23,5,42,127,697758020
532,0,Ticks_Pract_8,24,1,48,38,697784624
532,0,Ticks_Pract_8,25,5,42,127,698557976
532,0,Ticks_Pract_8,26,1,48,38,698562596
532,0,Ticks_Pract_8,27,5,42,127,699357416
532,0,Ticks_Pract_8,28,1,48,41,699397708
532,0,Ticks_Pract_8,29,5,42,127,700158196
532,0,Ticks_Pract_8,30,1,48,43,700166476
532,0,Ticks_Pract_8,31,5,42,127,700957928
532,0,Ticks_Pract_8,32,1,48,43,700978252
532,0,Ticks_Pract_8,33,5,42,127,701757812
532,0,Ticks_Pract_8,34,1,48,42,701768936
532,0,Ticks_Pract_8,35,5,42,127,702557496
532,0,Ticks_Pract_8,36,1,48,39,702585896
532,0,Ticks_Pract_8,37,5,42,127,703358276
532,0,Ticks_Pract_8,38,1,48,36,703399392
532,0,Ticks_Pract_8,39,5,42,127,704158012
532,0,Ticks_Pract_8,40,1,48,41,704228524
532,0,Ticks_Pract_8,41,5,42,127,704957668
532,0,Ticks_Pract_8,42,1,48,41,704995040
532,0,Ticks_Pract_8,43,5,42,127,705757700
532,0,Ticks_Pract_8,44,1,48,45,705795820
532,0,Ticks_Pract_8,45,5,42,127,706558184
532,0,Ticks_Pract_8,46,1,48,47,706584640
532,0,Ticks_Pract_8,47,5,42,127,707357992
532,0,Ticks_Pract_8,48,1,48,41,707400376
532,0,Ticks_Pract_8,49,1,48,43,708156124
532,0,Ticks_Pract_8,50,5,42,127,708157792
532,0,Ticks_Pract_8,51,1,48,42,708932660
532,0,Ticks_Pract_8,52,5,42,127,708957476
532,0,Ticks_Pract_8,53,1,48,46,709737652
532,0,Ticks_Pract_8,54,5,42,127,709758180
532,0,Ticks_Pract_8,55,1,48,47,710499236
532,0,Ticks_Pract_8,56,5,42,127,710558064
532,0,Ticks_Pract_8,57,1,48,50,711315800
532,0,Ticks_Pract_8,58,5,42,127,711357872
532,0,Ticks_Pract_8,59,1,48,40,712125328
532,0,Ticks_Pract_8,0,9999,9999,9999,688155712
532,0,Ticks_Pract_8,1,9999,9999,9999,688955468
532,0,Ticks_Pract_8,2,9999,9999,9999,689755228
532,0,Ticks_Pract_8,3,9999,9999,9999,690556000
532,0,Ticks_Pract_8,4,9999,9999,9999,691355736
532,0,Ticks_Pract_8,5,9999,9999,9999,692155492
532,0,Ticks_Pract_8,6,9999,9999,9999,692955208
532,0,Ticks_Pract_8,7,9999,9999,9999,693755992
532,0,Ticks_Pract_8,8,9999,9999,9999,694555724
532,0,Ticks_Pract_8,9,9999,9999,9999,695355456
532,0,Ticks_Pract_8,10,9999,9999,9999,696155216
532,0,Ticks_Pract_8,11,9999,9999,9999,696955988
532,0,Ticks_Pract_8,12,9999,9999,9999,697755728
532,0,Ticks_Pract_8,13,9999,9999,9999,698555464
532,0,Ticks_Pract_8,14,9999,9999,9999,699355196
532,0,Ticks_Pract_8,15,9999,9999,9999,700155980
532,0,Ticks_Pract_8,16,9999,9999,9999,700955712
532,0,Ticks_Pract_8,17,9999,9999,9999,701755444
532,0,Ticks_Pract_8,18,9999,9999,9999,702555204
532,0,Ticks_Pract_8,19,9999,9999,9999,703355984
532,0,Ticks_Pract_8,20,9999,9999,9999,704155720
532,0,Ticks_Pract_8,21,9999,9999,9999,704955452
532,0,Ticks_Pract_8,22,9999,9999,9999,705755188
532,0,Ticks_Pract_8,23,9999,9999,9999,706555964
532,0,Ticks_Pract_8,24,9999,9999,9999,707355700
532,0,Ticks_Pract_8,25,9999,9999,9999,708155524
532,0,Ticks_Pract_8,26,9999,9999,9999,708955184
532,0,Ticks_Pract_8,27,9999,9999,9999,709755964
532,0,Ticks_Pract_8,28,9999,9999,9999,710555696
532,0,Ticks_Pract_8,29,9999,9999,9999,711355508
533,4,T1_SMS_5,0,5,42,127,808973756
533,4,T1_SMS_5,1,5,42,127,809474292
533,4,T1_SMS_5,2,1,48,28,809640052
533,4,T1_SMS_5,3,5,42,127,809974288
533,4,T1_SMS_5,4,1,48,28,810021688
533,4,T1_SMS_5,5,1,48,29,810458164
533,4,T1_SMS_5,6,5,42,127,810473900
533,4,T1_SMS_5,7,1,48,24,810955016
533,4,T1_SMS_5,8,5,42,127,810973600
533,4,T1_SMS_5,9,1,48,27,811430400
533,4,T1_SMS_5,10,5,42,127,811474192
533,4,T1_SMS_5,11,5,42,127,811974040
533,4,T1_SMS_5,12,1,48,21,811977164
533,4,T1_SMS_5,13,1,48,33,812468760
533,4,T1_SMS_5,14,5,42,127,812473580
533,4,T1_SMS_5,15,1,48,43,812949684
533,4,T1_SMS_5,16,5,42,127,812973352
533,4,T1_SMS_5,17,1,48,35,813458952
533,4,T1_SMS_5,18,5,42,127,813474092
533,4,T1_SMS_5,19,1,48,32,813953112
533,4,T1_SMS_5,20,5,42,127,813974012
533,4,T1_SMS_5,21,5,42,127,814473564
533,4,T1_SMS_5,22,1,48,27,814477880
533,4,T1_SMS_5,23,5,42,127,814974604
533,4,T1_SMS_5,24,1,48,30,814984532
533,4,T1_SMS_5,25,1,48,36,815458408
533,4,T1_SMS_5,26,5,42,127,815474068
533,4,T1_SMS_5,27,5,42,127,815973620
533,4,T1_SMS_5,28,1,48,29,815983544
533,4,T1_SMS_5,29,5,42,127,816473540
533,4,T1_SMS_5,30,1,48,32,816476736
533,4,T1_SMS_5,31,5,42,127,816974208
533,4,T1_SMS_5,32,1,48,27,816994228
533,4,T1_SMS_5,33,5,42,127,817473876
533,4,T1_SMS_5,34,1,48,24,817486268
533,4,T1_SMS_5,35,5,42,127,817973696
533,4,T1_SMS_5,36,1,48,20,817974960
533,4,T1_SMS_5,37,5,42,127,818474512
533,4,T1_SMS_5,38,1,48,34,818480180
533,4,T1_SMS_5,39,1,48,35,818958236
533,4,T1_SMS_5,40,5,42,127,818973976
533,4,T1_SMS_5,41,1,48,34,819440428
533,4,T1_SMS_5,42,5,42,127,819473672
533,4,T1_SMS_5,43,1,48,33,819968920
533,4,T1_SMS_5,44,5,42,127,819973516
533,4,T1_SMS_5,45,5,42,127,820474412
533,4,T1_SMS_5,46,1,48,28,820501548
533,4,T1_SMS_5,47,5,42,127,820973884
533,4,T1_SMS_5,48,1,48,25,820979100
533,4,T1_SMS_5,49,1,48,32,821454464
533,4,T1_SMS_5,50,5,42,127,821473724
533,4,T1_SMS_5,51,5,42,127,821974324
533,4,T1_SMS_5,52,1,48,28,821977444
533,4,T1_SMS_5,53,1,48,26,822448696
533,4,T1_SMS_5,54,5,42,127,822474232
533,4,T1_SMS_5,55,1,48,25,822969256
533,4,T1_SMS_5,56,5,42,127,822973704
533,4,T1_SMS_5,57,1,48,33,823471288
533,4,T1_SMS_5,58,5,42,127,823473400
533,4,T1_SMS_5,59,1,48,35,823970220
533,4,T1_SMS_5,60,5,42,127,823974368
533,4,T1_SMS_5,61,5,42,127,824474068
533,4,T1_SMS_5,62,1,48,30,824501500
533,4,T1_SMS_5,63,5,42,127,824973540
533,4,T1_SMS_5,64,1,48,31,824979804
533,4,T1_SMS_5,65,5,42,127,825474284
533,4,T1_SMS_5,66,1,48,28,825497520
533,4,T1_SMS_5,67,5,42,127,825974200
533,4,T1_SMS_5,68,1,48,25,825979416
533,4,T1_SMS_5,69,1,48,26,826453880
533,4,T1_SMS_5,70,5,42,127,826473812
533,4,T1_SMS_5,71,1,48,36,826967792
533,4,T1_SMS_5,72,5,42,127,826973508
533,4,T1_SMS_5,73,5,42,127,827474260
533,4,T1_SMS_5,74,1,48,29,827482688
533,4,T1_SMS_5,75,1,48,33,827965280
533,4,T1_SMS_5,76,5,42,127,827974092
533,4,T1_SMS_5,77,5,42,127,828473844
533,4,T1_SMS_5,78,1,48,26,828511548
533,4,T1_SMS_5,79,5,42,127,828973392
533,4,T1_SMS_5,80,1,48,38,828991320
533,4,T1_SMS_5,81,5,42,127,829474208
533,4,T1_SMS_5,82,1,48,37,829484880
533,4,T1_SMS_5,83,1,48,37,829961972
533,4,T1_SMS_5,84,5,42,127,829973896
533,4,T1_SMS_5,85,5,42,127,830473452
533,4,T1_SMS_5,86,1,48,33,830477168
533,4,T1_SMS_5,87,5,42,127,830974268
533,4,T1_SMS_5,88,1,48,32,830979632
533,4,T1_SMS_5,89,1,48,34,831450364
533,4,T1_SMS_5,90,5,42,127,831474032
533,4,T1_SMS_5,91,1,48,33,831971768
533,4,T1_SMS_5,92,5,42,127,831973580
533,4,T1_SMS_5,93,1,48,36,832464784
533,4,T1_SMS_5,94,5,42,127,832473348
533,4,T1_SMS_5,95,1,48,35,832974468
533,4,T1_SMS_5,96,5,42,127,832975804
533,4,T1_SMS_5,97,5,42,127,833474088
533,4,T1_SMS_5,98,1,48,31,833499204
533,4,T1_SMS_5,99,5,42,127,833973560
533,4,T1_SMS_5,100,1,48,29,833986856
533,4,T1_SMS_5,101,1,48,37,834463264
533,4,T1_SMS_5,102,5,42,127,834474220
533,4,T1_SMS_5,103,1,48,36,834966252
533,4,T1_SMS_5,104,5,42,127,834973992
533,4,T1_SMS_5,105,5,42,127,835473696
533,4,T1_SMS_5,106,1,48,29,835493568
533,4,T1_SMS_5,107,5,42,127,835973464
533,4,T1_SMS_5,108,1,48,35,835988104
533,4,T1_SMS_5,109,5,42,127,836474132
533,4,T1_SMS_5,110,1,48,34,836480392
533,4,T1_SMS_5,111,5,42,127,836973976
533,4,T1_SMS_5,112,1,48,32,836981884
533,4,T1_SMS_5,113,5,42,127,837473744
533,4,T1_SMS_5,114,1,48,33,837481052
533,4,T1_SMS_5,115,5,42,127,837974412
533,4,T1_SMS_5,116,1,48,32,838002664
533,4,T1_SMS_5,117,5,42,127,838474184
533,4,T1_SMS_5,118,1,48,30,838488972
533,4,T1_SMS_5,119,5,42,127,838973928
533,4,T1_SMS_5,120,1,48,27,838980288
533,4,T1_SMS_5,121,1,48,31,839446428
533,4,T1_SMS_5,122,5,42,127,839473468
533,4,T1_SMS_5,123,1,48,31,839967296
533,4,T1_SMS_5,124,5,42,127,839974284
533,4,T1_SMS_5,125,1,48,34,840460784
533,4,T1_SMS_5,126,5,42,127,840473980
533,4,T1_SMS_5,127,1,48,29,840959580
533,4,T1_SMS_5,128,5,42,127,840973748
533,4,T1_SMS_5,129,5,42,127,841474348
533,4,T1_SMS_5,130,1,48,18,841498336
533,4,T1_SMS_5,131,5,42,127,841974044
533,4,T1_SMS_5,132,1,48,23,841997208
533,4,T1_SMS_5,133,5,42,127,842473812
533,4,T1_SMS_5,134,1,48,22,842505124
533,4,T1_SMS_5,135,5,42,127,842973656
533,4,T1_SMS_5,136,1,48,21,843017988
533,4,T1_SMS_5,137,5,42,127,843474324
533,4,T1_SMS_5,138,1,48,24,843517092
533,4,T1_SMS_5,139,5,42,127,843974016
533,4,T1_SMS_5,140,1,48,33,844023816
533,4,T1_SMS_5,141,5,42,127,844473712
533,4,T1_SMS_5,142,1,48,29,844531136
533,4,T1_SMS_5,143,5,42,127,844973556
533,4,T1_SMS_5,144,1,48,29,844988872
533,4,T1_SMS_5,145,5,42,127,845474300
533,4,T1_SMS_5,146,1,48,24,845491780
533,4,T1_SMS_5,147,5,42,127,845973920
533,4,T1_SMS_5,148,1,48,28,846006664
533,4,T1_SMS_5,149,5,42,127,846473764
533,4,T1_SMS_5,150,1,48,33,846495432
533,4,T1_SMS_5,151,5,42,127,846974208
533,4,T1_SMS_5,152,1,48,30,847013980
533,4,T1_SMS_5,153,5,42,127,847473976
533,4,T1_SMS_5,154,1,48,33,847492804
533,4,T1_SMS_5,155,5,42,127,847973820
533,4,T1_SMS_5,156,1,48,34,848001476
533,4,T1_SMS_5,157,5,42,127,848473740
533,4,T1_SMS_5,158,1,48,36,848486056
533,4,T1_SMS_5,159,5,42,127,848974184
533,4,T1_SMS_5,160,1,48,32,849010584
533,4,T1_SMS_5,161,1,48,34,849472520
533,4,T1_SMS_5,162,5,42,127,849473944
533,4,T1_SMS_5,163,1,48,32,849950248
533,4,T1_SMS_5,164,5,42,127,849973764
533,4,T1_SMS_5,165,5,42,127,850474288
533,4,T1_SMS_5,166,1,48,32,850479800
533,4,T1_SMS_5,167,5,42,127,850973908
533,4,T1_SMS_5,168,1,48,37,850975848
533,4,T1_SMS_5,169,5,42,127,851473752
533,4,T1_SMS_5,170,1,48,27,851479044
533,4,T1_SMS_5,171,5,42,127,851973668
533,4,T1_SMS_5,172,1,48,30,851978288
533,4,T1_SMS_5,173,1,48,35,852448192
533,4,T1_SMS_5,174,5,42,127,852474180
533,4,T1_SMS_5,175,5,42,127,852973808
533,4,T1_SMS_5,176,1,48,29,852992336
533,4,T1_SMS_5,177,5,42,127,853473652
533,4,T1_SMS_5,178,1,48,33,853536236
533,4,T1_SMS_5,179,5,42,127,853974468
533,4,T1_SMS_5,180,1,48,38,853990976
533,4,T1_SMS_5,181,5,42,127,854474236
533,4,T1_SMS_5,182,1,48,32,854489552
533,4,T1_SMS_5,183,5,42,127,854973856
533,4,T1_SMS_5,184,1,48,35,854986548
533,4,T1_SMS_5,185,5,42,127,855473480
533,4,T1_SMS_5,186,1,48,30,855498588
533,4,T1_SMS_5,187,5,42,127,855974368
533,4,T1_SMS_5,188,1,48,30,855988560
533,4,T1_SMS_5,189,5,42,127,856473988
533,4,T1_SMS_5,190,1,48,29,856517128
533,4,T1_SMS_5,191,5,42,127,856973684
533,4,T1_SMS_5,192,1,48,32,857003284
533,4,T1_SMS_5,193,5,42,127,857474424
533,4,T1_SMS_5,194,1,48,37,857498192
533,4,T1_SMS_5,195,5,42,127,857974196
533,4,T1_SMS_5,196,1,48,35,857986068
533,4,T1_SMS_5,197,5,42,127,858473892
533,4,T1_SMS_5,198,1,48,38,858496164
533,4,T1_SMS_5,199,5,42,127,858973512
533,4,T1_SMS_5,200,1,48,33,858989048
533,4,T1_SMS_5,201,5,42,127,859474328
533,4,T1_SMS_5,202,1,48,30,859488524
533,4,T1_SMS_5,203,5,42,127,859973948
533,4,T1_SMS_5,204,1,48,33,859987692
533,4,T1_SMS_5,205,5,42,127,860473696
533,4,T1_SMS_5,206,1,48,35,860484768
533,4,T1_SMS_5,207,5,42,127,860973540
533,4,T1_SMS_5,208,1,48,33,860984440
533,4,T1_SMS_5,209,5,42,127,861474204
533,4,T1_SMS_5,210,1,48,29,861485776
533,4,T1_SMS_5,211,1,48,34,861950820
533,4,T1_SMS_5,212,5,42,127,861973968
533,4,T1_SMS_5,213,5,42,127,862473520
533,4,T1_SMS_5,214,1,48,34,862508876
533,4,T1_SMS_5,215,5,42,127,862974264
533,4,T1_SMS_5,216,1,48,40,862988380
533,4,T1_SMS_5,217,5,42,127,863474104
533,4,T1_SMS_5,218,1,48,37,863514396
533,4,T1_SMS_5,219,5,42,127,863973652
533,4,T1_SMS_5,220,1,48,34,864006012
533,4,T1_SMS_5,221,5,42,127,864473420
533,4,T1_SMS_5,222,1,48,35,864519476
533,4,T1_SMS_5,223,5,42,127,864974164
533,4,T1_SMS_5,224,1,48,25,865020216
533,4,T1_SMS_5,225,5,42,127,865473856
533,4,T1_SMS_5,226,1,48,30,865508312
533,4,T1_SMS_5,227,5,42,127,865973476
533,4,T1_SMS_5,228,1,48,35,865987068
533,4,T1_SMS_5,229,5,42,127,866474440
533,4,T1_SMS_5,230,1,48,36,866483324
533,4,T1_SMS_5,231,5,42,127,866973988
533,4,T1_SMS_5,232,1,48,36,867006200
533,4,T1_SMS_5,233,5,42,127,867473832
533,4,T1_SMS_5,234,1,48,35,867521008
533,4,T1_SMS_5,235,5,42,127,867973452
533,4,T1_SMS_5,236,1,48,30,868043068
533,4,T1_SMS_5,237,5,42,127,868474120
533,4,T1_SMS_5,238,1,48,28,868547104
533,4,T1_SMS_5,239,5,42,127,868974040
533,4,T1_SMS_5,240,1,48,39,869009096
533,4,T1_SMS_5,241,5,42,127,869473584
533,4,T1_SMS_5,242,1,48,31,869501240
533,4,T1_SMS_5,243,5,42,127,869974404
533,4,T1_SMS_5,244,1,48,38,869999288
533,4,T1_SMS_5,245,1,48,32,870473876
533,4,T1_SMS_5,246,5,42,127,870475360
533,4,T1_SMS_5,247,5,42,127,870973992
533,4,T1_SMS_5,248,1,48,36,870976460
533,4,T1_SMS_5,249,5,42,127,871473464
533,4,T1_SMS_5,250,1,48,30,871479800
533,4,T1_SMS_5,251,5,42,127,871974280
533,4,T1_SMS_5,252,1,48,28,871996476
533,4,T1_SMS_5,253,5,42,127,872474196
533,4,T1_SMS_5,254,1,48,40,872477848
533,4,T1_SMS_5,255,5,42,127,872974040
533,4,T1_SMS_5,256,1,48,35,872984644
533,4,T1_SMS_5,257,5,42,127,873474336
533,4,T1_SMS_5,258,1,48,27,873489048
533,4,T1_SMS_5,0,9999,9999,9999,808971320
533,4,T1_SMS_5,1,9999,9999,9999,809472080
533,4,T1_SMS_5,2,9999,9999,9999,809971776
533,4,T1_SMS_5,3,9999,9999,9999,810471540
533,4,T1_SMS_5,4,9999,9999,9999,810971236
533,4,T1_SMS_5,5,9999,9999,9999,811471980
533,4,T1_SMS_5,6,9999,9999,9999,811971680
533,4,T1_SMS_5,7,9999,9999,9999,812471368
533,4,T1_SMS_5,8,9999,9999,9999,812971064
533,4,T1_SMS_5,9,9999,9999,9999,813471808
533,4,T1_SMS_5,10,9999,9999,9999,813971576
533,4,T1_SMS_5,11,9999,9999,9999,814471276
533,4,T1_SMS_5,12,9999,9999,9999,814972020
533,4,T1_SMS_5,13,9999,9999,9999,815471708
533,4,T1_SMS_5,14,9999,9999,9999,815971408
533,4,T1_SMS_5,15,9999,9999,9999,816471104
533,4,T1_SMS_5,16,9999,9999,9999,816971848
533,4,T1_SMS_5,17,9999,9999,9999,817471588
533,4,T1_SMS_5,18,9999,9999,9999,817971260
533,4,T1_SMS_5,19,9999,9999,9999,818472000
533,4,T1_SMS_5,20,9999,9999,9999,818971764
533,4,T1_SMS_5,21,9999,9999,9999,819471460
533,4,T1_SMS_5,22,9999,9999,9999,819971156
533,4,T1_SMS_5,23,9999,9999,9999,820471904
533,4,T1_SMS_5,24,9999,9999,9999,820971600
533,4,T1_SMS_5,25,9999,9999,9999,821471288
533,4,T1_SMS_5,26,9999,9999,9999,821972036
533,4,T1_SMS_5,27,9999,9999,9999,822471796
533,4,T1_SMS_5,28,9999,9999,9999,822971492
533,4,T1_SMS_5,29,9999,9999,9999,823471152
533,4,T1_SMS_5,30,9999,9999,9999,823971932
533,4,T1_SMS_5,31,9999,9999,9999,824471632
533,4,T1_SMS_5,32,9999,9999,9999,824971328
533,4,T1_SMS_5,33,9999,9999,9999,825472072
533,4,T1_SMS_5,34,9999,9999,9999,825971764
533,4,T1_SMS_5,35,9999,9999,9999,826471528
533,4,T1_SMS_5,36,9999,9999,9999,826971224
533,4,T1_SMS_5,37,9999,9999,9999,827471972
533,4,T1_SMS_5,38,9999,9999,9999,827971660
533,4,T1_SMS_5,39,9999,9999,9999,828471408
533,4,T1_SMS_5,40,9999,9999,9999,828971104
533,4,T1_SMS_5,41,9999,9999,9999,829471848
533,4,T1_SMS_5,42,9999,9999,9999,829971536
533,4,T1_SMS_5,43,9999,9999,9999,830471240
533,4,T1_SMS_5,44,9999,9999,9999,830971984
533,4,T1_SMS_5,45,9999,9999,9999,831471672
533,4,T1_SMS_5,46,9999,9999,9999,831971396
533,4,T1_SMS_5,47,9999,9999,9999,832471136
533,4,T1_SMS_5,48,9999,9999,9999,832971884
533,4,T1_SMS_5,49,9999,9999,9999,833471576
533,4,T1_SMS_5,50,9999,9999,9999,833971272
533,4,T1_SMS_5,51,9999,9999,9999,834472008
533,4,T1_SMS_5,52,9999,9999,9999,834971704
533,4,T1_SMS_5,53,9999,9999,9999,835471408
533,4,T1_SMS_5,54,9999,9999,9999,835971176
533,4,T1_SMS_5,55,9999,9999,9999,836471920
533,4,T1_SMS_5,56,9999,9999,9999,836971616
533,4,T1_SMS_5,57,9999,9999,9999,837471308
533,4,T1_SMS_5,58,9999,9999,9999,837972052
533,4,T1_SMS_5,59,9999,9999,9999,838471748
533,4,T1_SMS_5,60,9999,9999,9999,838971492
533,4,T1_SMS_5,61,9999,9999,9999,839471184
533,4,T1_SMS_5,62,9999,9999,9999,839971924
533,4,T1_SMS_5,63,9999,9999,9999,840471620
533,4,T1_SMS_5,64,9999,9999,9999,840971316
533,4,T1_SMS_5,65,9999,9999,9999,841472060
533,4,T1_SMS_5,66,9999,9999,9999,841971832
533,4,T1_SMS_5,67,9999,9999,9999,842471524
533,4,T1_SMS_5,68,9999,9999,9999,842971220
533,4,T1_SMS_5,69,9999,9999,9999,843471960
533,4,T1_SMS_5,70,9999,9999,9999,843971656
533,4,T1_SMS_5,71,9999,9999,9999,844471352
533,4,T1_SMS_5,72,9999,9999,9999,844971120
533,4,T1_SMS_5,73,9999,9999,9999,845471864
533,4,T1_SMS_5,74,9999,9999,9999,845971560
533,4,T1_SMS_5,75,9999,9999,9999,846471252
533,4,T1_SMS_5,76,9999,9999,9999,846971996
533,4,T1_SMS_5,77,9999,9999,9999,847471692
533,4,T1_SMS_5,78,9999,9999,9999,847971384
533,4,T1_SMS_5,79,9999,9999,9999,848471156
533,4,T1_SMS_5,80,9999,9999,9999,848971896
533,4,T1_SMS_5,81,9999,9999,9999,849471572
533,4,T1_SMS_5,82,9999,9999,9999,849971256
533,4,T1_SMS_5,83,9999,9999,9999,850472004
533,4,T1_SMS_5,84,9999,9999,9999,850971696
533,4,T1_SMS_5,85,9999,9999,9999,851471468
533,4,T1_SMS_5,86,9999,9999,9999,851971160
533,4,T1_SMS_5,87,9999,9999,9999,852471896
533,4,T1_SMS_5,88,9999,9999,9999,852971596
533,4,T1_SMS_5,89,9999,9999,9999,853471292
533,4,T1_SMS_5,90,9999,9999,9999,853972032
533,4,T1_SMS_5,91,9999,9999,9999,854471800
533,4,T1_SMS_5,92,9999,9999,9999,854971496
533,4,T1_SMS_5,93,9999,9999,9999,855471192
533,4,T1_SMS_5,94,9999,9999,9999,855971932
533,4,T1_SMS_5,95,9999,9999,9999,856471628
533,4,T1_SMS_5,96,9999,9999,9999,856971324
533,4,T1_SMS_5,97,9999,9999,9999,857472064
533,4,T1_SMS_5,98,9999,9999,9999,857971760
533,4,T1_SMS_5,99,9999,9999,9999,858471528
533,4,T1_SMS_5,100,9999,9999,9999,858971224
533,4,T1_SMS_5,101,9999,9999,9999,859471968
533,4,T1_SMS_5,102,9999,9999,9999,859971664
533,4,T1_SMS_5,103,9999,9999,9999,860471408
533,4,T1_SMS_5,104,9999,9999,9999,860971104
533,4,T1_SMS_5,105,9999,9999,9999,861471844
533,4,T1_SMS_5,106,9999,9999,9999,861971532
533,4,T1_SMS_5,107,9999,9999,9999,862471236
533,4,T1_SMS_5,108,9999,9999,9999,862971976
533,4,T1_SMS_5,109,9999,9999,9999,863471672
533,4,T1_SMS_5,110,9999,9999,9999,863971440
533,4,T1_SMS_5,111,9999,9999,9999,864471132
533,4,T1_SMS_5,112,9999,9999,9999,864971876
533,4,T1_SMS_5,113,9999,9999,9999,865471568
533,4,T1_SMS_5,114,9999,9999,9999,865971264
533,4,T1_SMS_5,115,9999,9999,9999,866472004
533,4,T1_SMS_5,116,9999,9999,9999,866971700
533,4,T1_SMS_5,117,9999,9999,9999,867471472
533,4,T1_SMS_5,118,9999,9999,9999,867971164
533,4,T1_SMS_5,119,9999,9999,9999,868471908
533,4,T1_SMS_5,120,9999,9999,9999,868971604
533,4,T1_SMS_5,121,9999,9999,9999,869471296
533,4,T1_SMS_5,122,9999,9999,9999,869972040
533,4,T1_SMS_5,123,9999,9999,9999,870471736
533,4,T1_SMS_5,124,9999,9999,9999,870971484
533,4,T1_SMS_5,125,9999,9999,9999,871471176
533,4,T1_SMS_5,126,9999,9999,9999,871971916
533,4,T1_SMS_5,127,9999,9999,9999,872471612
533,4,T1_SMS_5,128,9999,9999,9999,872971384
533,4,T1_SMS_5,129,9999,9999,9999,873472048
534,2,T1_SMS_8,0,5,42,127,922660332
534,2,T1_SMS_8,1,5,42,127,923459964
534,2,T1_SMS_8,2,1,48,33,923690540
534,2,T1_SMS_8,3,5,42,127,924259548
534,2,T1_SMS_8,4,1,48,29,924279420
534,2,T1_SMS_8,5,1,48,27,925050488
534,2,T1_SMS_8,6,5,42,127,925059496
534,2,T1_SMS_8,7,5,42,127,925860136
534,2,T1_SMS_8,8,1,48,27,925880228
534,2,T1_SMS_8,9,5,42,127,926659944
534,2,T1_SMS_8,10,1,48,29,926670540
534,2,T1_SMS_8,11,5,42,127,927459676
534,2,T1_SMS_8,12,1,48,28,927463092
534,2,T1_SMS_8,13,5,42,127,928259560
534,2,T1_SMS_8,14,1,48,23,928270608
534,2,T1_SMS_8,15,1,48,29,929037040
534,2,T1_SMS_8,16,5,42,127,929060408
534,2,T1_SMS_8,17,1,48,31,929816728
534,2,T1_SMS_8,18,5,42,127,929860092
534,2,T1_SMS_8,19,1,48,33,930629272
534,2,T1_SMS_8,20,5,42,127,930659824
534,2,T1_SMS_8,21,1,48,32,931418908
534,2,T1_SMS_8,22,5,42,127,931459332
534,2,T1_SMS_8,23,5,42,127,932260420
534,2,T1_SMS_8,24,1,48,27,932264436
534,2,T1_SMS_8,25,5,42,127,933060228
534,2,T1_SMS_8,26,1,48,33,933073740
534,2,T1_SMS_8,27,5,42,127,933859664
534,2,T1_SMS_8,28,1,48,37,933867572
534,2,T1_SMS_8,29,5,42,127,934659472
534,2,T1_SMS_8,30,1,48,29,934696172
534,2,T1_SMS_8,31,5,42,127,935460324
534,2,T1_SMS_8,32,1,48,31,935490468
534,2,T1_SMS_8,33,5,42,127,936260232
534,2,T1_SMS_8,34,1,48,35,936294544
534,2,T1_SMS_8,35,5,42,127,937059596
534,2,T1_SMS_8,36,1,48,36,937097424
534,2,T1_SMS_8,37,5,42,127,937859404
534,2,T1_SMS_8,38,1,48,29,937863716
534,2,T1_SMS_8,39,5,42,127,938660184
534,2,T1_SMS_8,40,1,48,35,938696136
534,2,T1_SMS_8,41,5,42,127,939460140
534,2,T1_SMS_8,42,1,48,35,939483380
534,2,T1_SMS_8,43,1,48,35,940238736
534,2,T1_SMS_8,44,5,42,127,940259792
534,2,T1_SMS_8,45,1,48,38,941007508
534,2,T1_SMS_8,46,5,42,127,941059300
534,2,T1_SMS_8,47,1,48,28,941833644
534,2,T1_SMS_8,48,5,42,127,941860080
534,2,T1_SMS_8,49,1,48,21,942647288
534,2,T1_SMS_8,50,5,42,127,942659916
534,2,T1_SMS_8,51,5,42,127,943459876
534,2,T1_SMS_8,52,1,48,29,943490376
534,2,T1_SMS_8,53,5,42,127,944259392
534,2,T1_SMS_8,54,1,48,40,944299608
534,2,T1_SMS_8,55,5,42,127,945060096
534,2,T1_SMS_8,56,1,48,38,945097544
534,2,T1_SMS_8,57,5,42,127,945860052
534,2,T1_SMS_8,58,1,48,34,945883592
534,2,T1_SMS_8,59,5,42,127,946659936
534,2,T1_SMS_8,60,1,48,35,946686688
534,2,T1_SMS_8,61,1,48,32,947454392
534,2,T1_SMS_8,62,5,42,127,947459364
534,2,T1_SMS_8,63,1,48,29,948239840
534,2,T1_SMS_8,64,5,42,127,948260220
534,2,T1_SMS_8,65,1,48,35,949045852
534,2,T1_SMS_8,66,5,42,127,949059904
534,2,T1_SMS_8,67,1,48,43,949820404
534,2,T1_SMS_8,68,5,42,127,949859860
534,2,T1_SMS_8,69,1,48,34,950644152
534,2,T1_SMS_8,70,5,42,127,950659368
534,2,T1_SMS_8,71,1,48,29,951456596
534,2,T1_SMS_8,72,5,42,127,951460224
534,2,T1_SMS_8,73,5,42,127,952260040
534,2,T1_SMS_8,74,1,48,35,952266148
534,2,T1_SMS_8,75,5,42,127,953059772
534,2,T1_SMS_8,76,1,48,31,953064984
534,2,T1_SMS_8,77,5,42,127,953859728
534,2,T1_SMS_8,78,1,48,33,953904808
534,2,T1_SMS_8,79,5,42,127,954660060
534,2,T1_SMS_8,80,1,48,24,954725436
534,2,T1_SMS_8,81,5,42,127,955459820
534,2,T1_SMS_8,82,1,48,37,955464884
534,2,T1_SMS_8,83,5,42,127,956259628
534,2,T1_SMS_8,84,1,48,38,956307028
534,2,T1_SMS_8,85,5,42,127,957059512
534,2,T1_SMS_8,86,1,48,30,957116180
534,2,T1_SMS_8,87,5,42,127,957860068
534,2,T1_SMS_8,88,1,48,30,957905592
534,2,T1_SMS_8,89,5,42,127,958659876
534,2,T1_SMS_8,90,1,48,33,958688580
534,2,T1_SMS_8,91,5,42,127,959459612
534,2,T1_SMS_8,92,1,48,35,959501024
534,2,T1_SMS_8,93,5,42,127,960259568
534,2,T1_SMS_8,94,1,48,32,960278696
534,2,T1_SMS_8,95,1,48,31,961034128
534,2,T1_SMS_8,96,5,42,127,961060344
534,2,T1_SMS_8,97,5,42,127,961859956
534,2,T1_SMS_8,98,1,48,35,961871904
534,2,T1_SMS_8,99,1,48,27,962646192
534,2,T1_SMS_8,100,5,42,127,962659684
534,2,T1_SMS_8,101,1,48,23,963422360
534,2,T1_SMS_8,102,5,42,127,963459344
534,2,T1_SMS_8,103,1,48,36,964239292
534,2,T1_SMS_8,104,5,42,127,964260496
534,2,T1_SMS_8,105,5,42,127,965059864
534,2,T1_SMS_8,106,1,48,28,965080412
534,2,T1_SMS_8,107,5,42,127,965859596
534,2,T1_SMS_8,108,1,48,33,965932648
534,2,T1_SMS_8,109,5,42,127,966659404
534,2,T1_SMS_8,110,1,48,35,966730312
534,2,T1_SMS_8,111,5,42,127,967460480
534,2,T1_SMS_8,112,1,48,36,967473552
534,2,T1_SMS_8,113,5,42,127,968260092
534,2,T1_SMS_8,114,1,48,31,968319384
534,2,T1_SMS_8,115,5,42,127,969059676
534,2,T1_SMS_8,116,1,48,39,969063316
534,2,T1_SMS_8,117,5,42,127,969859560
534,2,T1_SMS_8,118,1,48,40,969881300
534,2,T1_SMS_8,119,5,42,127,970660488
534,2,T1_SMS_8,120,1,48,36,970975760
534,2,T1_SMS_8,121,5,42,127,971460368
534,2,T1_SMS_8,122,1,48,29,971795616
534,2,T1_SMS_8,123,5,42,127,972259656
534,2,T1_SMS_8,124,1,48,20,972472756
534,2,T1_SMS_8,125,5,42,127,973059316
534,2,T1_SMS_8,126,1,48,29,973170772
534,2,T1_SMS_8,127,1,48,26,973834256
534,2,T1_SMS_8,128,5,42,127,973860092
534,2,T1_SMS_8,129,1,48,31,974628080
534,2,T1_SMS_8,130,5,42,127,974660224
534,2,T1_SMS_8,131,5,42,127,975459592
534,2,T1_SMS_8,132,1,48,31,975486048
534,2,T1_SMS_8,133,5,42,127,976259328
534,2,T1_SMS_8,134,1,48,34,976282188
534,2,T1_SMS_8,135,5,42,127,977060104
534,2,T1_SMS_8,136,1,48,32,977127324
534,2,T1_SMS_8,137,5,42,127,977860136
534,2,T1_SMS_8,138,1,48,23,977933112
534,2,T1_SMS_8,139,5,42,127,978659572
534,2,T1_SMS_8,140,1,48,36,978677352
534,2,T1_SMS_8,141,5,42,127,979459452
534,2,T1_SMS_8,142,1,48,32,979479628
534,2,T1_SMS_8,143,5,42,127,980260232
534,2,T1_SMS_8,144,1,48,30,980291876
534,2,T1_SMS_8,145,5,42,127,981059992
534,2,T1_SMS_8,146,1,48,27,981121456
534,2,T1_SMS_8,147,5,42,127,981859652
534,2,T1_SMS_8,148,1,48,37,981861064
534,2,T1_SMS_8,149,5,42,127,982659384
534,2,T1_SMS_8,150,1,48,31,982669388
534,2,T1_SMS_8,151,5,42,127,983460164
534,2,T1_SMS_8,152,1,48,29,983466944
534,2,T1_SMS_8,153,5,42,127,984260048
534,2,T1_SMS_8,154,1,48,24,984320388
534,2,T1_SMS_8,155,5,42,127,985059780
534,2,T1_SMS_8,156,1,48,28,985123708
534,2,T1_SMS_8,157,5,42,127,985859440
534,2,T1_SMS_8,158,1,48,26,985969320
534,2,T1_SMS_8,159,1,48,32,986629664
534,2,T1_SMS_8,160,5,42,127,986660292
534,2,T1_SMS_8,161,5,42,127,987459980
534,2,T1_SMS_8,162,1,48,31,987468408
534,2,T1_SMS_8,163,5,42,127,988259640
534,2,T1_SMS_8,164,1,48,37,988277568
534,2,T1_SMS_8,165,5,42,127,989059524
534,2,T1_SMS_8,166,1,48,32,989082692
534,2,T1_SMS_8,167,1,48,32,989855104
534,2,T1_SMS_8,168,5,42,127,989860152
534,2,T1_SMS_8,169,5,42,127,990659892
534,2,T1_SMS_8,170,1,48,34,990694196
534,2,T1_SMS_8,171,5,42,127,991459624
534,2,T1_SMS_8,172,1,48,25,991494604
534,2,T1_SMS_8,173,5,42,127,992259580
534,2,T1_SMS_8,174,1,48,28,992274892
534,2,T1_SMS_8,175,1,48,38,993060584
534,2,T1_SMS_8,176,5,42,127,993061624
534,2,T1_SMS_8,177,5,42,127,993859896
534,2,T1_SMS_8,178,1,48,34,993875280
534,2,T1_SMS_8,179,5,42,127,994659628
534,2,T1_SMS_8,180,1,48,28,994733052
534,2,T1_SMS_8,181,5,42,127,995459508
534,2,T1_SMS_8,182,1,48,25,995509456
534,2,T1_SMS_8,183,1,48,34,996252616
534,2,T1_SMS_8,184,5,42,127,996260060
534,2,T1_SMS_8,185,1,48,36,997017496
534,2,T1_SMS_8,186,5,42,127,997059868
534,2,T1_SMS_8,187,5,42,127,997859608
534,2,T1_SMS_8,188,1,48,30,997877608
534,2,T1_SMS_8,189,5,42,127,998659416
534,2,T1_SMS_8,190,1,48,34,998666352
534,2,T1_SMS_8,191,5,42,127,999460492
534,2,T1_SMS_8,192,1,48,23,999517200
534,2,T1_SMS_8,193,5,42,127,1000259804
534,2,T1_SMS_8,194,1,48,32,1000274964
534,2,T1_SMS_8,195,5,42,127,1001059612
534,2,T1_SMS_8,196,1,48,24,1001103496
534,2,T1_SMS_8,197,5,42,127,1001859420
534,2,T1_SMS_8,198,1,48,26,1001869268
534,2,T1_SMS_8,199,1,48,30,1002641760
534,2,T1_SMS_8,200,5,42,127,1002660492
534,2,T1_SMS_8,201,1,48,30,1003459636
534,2,T1_SMS_8,202,5,42,127,1003461196
534,2,T1_SMS_8,203,1,48,32,1004258764
534,2,T1_SMS_8,204,5,42,127,1004260412
534,2,T1_SMS_8,205,5,42,127,1005059328
534,2,T1_SMS_8,206,1,48,29,1005097972
534,2,T1_SMS_8,207,5,42,127,1005860404
534,2,T1_SMS_8,208,1,48,32,1005906776
534,2,T1_SMS_8,209,5,42,127,1006659864
534,2,T1_SMS_8,210,1,48,27,1006692004
534,2,T1_SMS_8,211,5,42,127,1007459672
534,2,T1_SMS_8,212,1,48,20,1007526736
534,2,T1_SMS_8,213,5,42,127,1008259404
534,2,T1_SMS_8,214,1,48,28,1008316076
534,2,T1_SMS_8,215,1,48,32,1009032916
534,2,T1_SMS_8,216,5,42,127,1009060180
534,2,T1_SMS_8,217,5,42,127,1009860140
534,2,T1_SMS_8,218,1,48,33,1009895048
534,2,T1_SMS_8,219,5,42,127,1010659580
534,2,T1_SMS_8,220,1,48,32,1010714080
534,2,T1_SMS_8,221,5,42,127,1011459388
534,2,T1_SMS_8,222,1,48,24,1011474548
534,2,T1_SMS_8,223,5,42,127,1012260240
534,2,T1_SMS_8,224,1,48,23,1012316868
534,2,T1_SMS_8,225,5,42,127,1013060224
534,2,T1_SMS_8,226,1,48,34,1013062820
534,2,T1_SMS_8,227,5,42,127,1013859660
534,2,T1_SMS_8,228,1,48,31,1013871680
534,2,T1_SMS_8,229,5,42,127,1014659392
534,2,T1_SMS_8,230,1,48,32,1014718232
534,2,T1_SMS_8,231,5,42,127,1015460096
534,2,T1_SMS_8,232,1,48,23,1015536440
534,2,T1_SMS_8,233,1,48,30,1016233384
534,2,T1_SMS_8,234,5,42,127,1016260048
534,2,T1_SMS_8,235,5,42,127,1017059564
534,2,T1_SMS_8,236,1,48,26,1017089008
534,2,T1_SMS_8,237,5,42,127,1017859372
534,2,T1_SMS_8,238,1,48,30,1017916140
534,2,T1_SMS_8,0,9999,9999,9999,922657896
534,2,T1_SMS_8,1,9999,9999,9999,923457600
534,2,T1_SMS_8,2,9999,9999,9999,924257332
534,2,T1_SMS_8,3,9999,9999,9999,925057136
534,2,T1_SMS_8,4,9999,9999,9999,925857848
534,2,T1_SMS_8,5,9999,9999,9999,926657656
534,2,T1_SMS_8,6,9999,9999,9999,927457388
534,2,T1_SMS_8,7,9999,9999,9999,928257124
534,2,T1_SMS_8,8,9999,9999,9999,929057896
534,2,T1_SMS_8,9,9999,9999,9999,929857652
534,2,T1_SMS_8,10,9999,9999,9999,930657388
534,2,T1_SMS_8,11,9999,9999,9999,931457120
534,2,T1_SMS_8,12,9999,9999,9999,932257908
534,2,T1_SMS_8,13,9999,9999,9999,933057640
534,2,T1_SMS_8,14,9999,9999,9999,933857376
534,2,T1_SMS_8,15,9999,9999,9999,934657108
534,2,T1_SMS_8,16,9999,9999,9999,935457888
534,2,T1_SMS_8,17,9999,9999,9999,936257648
534,2,T1_SMS_8,18,9999,9999,9999,937057380
534,2,T1_SMS_8,19,9999,9999,9999,937857116
534,2,T1_SMS_8,20,9999,9999,9999,938657896
534,2,T1_SMS_8,21,9999,9999,9999,939457628
534,2,T1_SMS_8,22,9999,9999,9999,940257356
534,2,T1_SMS_8,23,9999,9999,9999,941057088
534,2,T1_SMS_8,24,9999,9999,9999,941857868
534,2,T1_SMS_8,25,9999,9999,9999,942657628
534,2,T1_SMS_8,26,9999,9999,9999,943457364
534,2,T1_SMS_8,27,9999,9999,9999,944257100
534,2,T1_SMS_8,28,9999,9999,9999,945057880
534,2,T1_SMS_8,29,9999,9999,9999,945857616
534,2,T1_SMS_8,30,9999,9999,9999,946657352
534,2,T1_SMS_8,31,9999,9999,9999,947457076
534,2,T1_SMS_8,32,9999,9999,9999,948257856
534,2,T1_SMS_8,33,9999,9999,9999,949057616
534,2,T1_SMS_8,34,9999,9999,9999,949857348
534,2,T1_SMS_8,35,9999,9999,9999,950657084
534,2,T1_SMS_8,36,9999,9999,9999,951457860
534,2,T1_SMS_8,37,9999,9999,9999,952257604
534,2,T1_SMS_8,38,9999,9999,9999,953057336
534,2,T1_SMS_8,39,9999,9999,9999,953857144
534,2,T1_SMS_8,40,9999,9999,9999,954657848
534,2,T1_SMS_8,41,9999,9999,9999,955457608
534,2,T1_SMS_8,42,9999,9999,9999,956257340
534,2,T1_SMS_8,43,9999,9999,9999,957057076
534,2,T1_SMS_8,44,9999,9999,9999,957857852
534,2,T1_SMS_8,45,9999,9999,9999,958657588
534,2,T1_SMS_8,46,9999,9999,9999,959457396
534,2,T1_SMS_8,47,9999,9999,9999,960257132
534,2,T1_SMS_8,48,9999,9999,9999,961057904
534,2,T1_SMS_8,49,9999,9999,9999,961857596
534,2,T1_SMS_8,50,9999,9999,9999,962657396
534,2,T1_SMS_8,51,9999,9999,9999,963457128
534,2,T1_SMS_8,52,9999,9999,9999,964257908
534,2,T1_SMS_8,53,9999,9999,9999,965057652
534,2,T1_SMS_8,54,9999,9999,9999,965857384
534,2,T1_SMS_8,55,9999,9999,9999,966657116
534,2,T1_SMS_8,56,9999,9999,9999,967457896
534,2,T1_SMS_8,57,9999,9999,9999,968257652
534,2,T1_SMS_8,58,9999,9999,9999,969057388
534,2,T1_SMS_8,59,9999,9999,9999,969857120
534,2,T1_SMS_8,60,9999,9999,9999,970657900
534,2,T1_SMS_8,61,9999,9999,9999,971457632
534,2,T1_SMS_8,62,9999,9999,9999,972257368
534,2,T1_SMS_8,63,9999,9999,9999,973057104
534,2,T1_SMS_8,64,9999,9999,9999,973857880
534,2,T1_SMS_8,65,9999,9999,9999,974657640
534,2,T1_SMS_8,66,9999,9999,9999,975457380
534,2,T1_SMS_8,67,9999,9999,9999,976257112
534,2,T1_SMS_8,68,9999,9999,9999,977057892
534,2,T1_SMS_8,69,9999,9999,9999,977857624
534,2,T1_SMS_8,70,9999,9999,9999,978657356
534,2,T1_SMS_8,71,9999,9999,9999,979457092
534,2,T1_SMS_8,72,9999,9999,9999,980257872
534,2,T1_SMS_8,73,9999,9999,9999,981057628
534,2,T1_SMS_8,74,9999,9999,9999,981857364
534,2,T1_SMS_8,75,9999,9999,9999,982657096
534,2,T1_SMS_8,76,9999,9999,9999,983457876
534,2,T1_SMS_8,77,9999,9999,9999,984257612
534,2,T1_SMS_8,78,9999,9999,9999,985057344
534,2,T1_SMS_8,79,9999,9999,9999,985857076
534,2,T1_SMS_8,80,9999,9999,9999,986657852
534,2,T1_SMS_8,81,9999,9999,9999,987457616
534,2,T1_SMS_8,82,9999,9999,9999,988257352
534,2,T1_SMS_8,83,9999,9999,9999,989057088
534,2,T1_SMS_8,84,9999,9999,9999,989857864
534,2,T1_SMS_8,85,9999,9999,9999,990657604
534,2,T1_SMS_8,86,9999,9999,9999,991457336
534,2,T1_SMS_8,87,9999,9999,9999,992257144
534,2,T1_SMS_8,88,9999,9999,9999,993057848
534,2,T1_SMS_8,89,9999,9999,9999,993857604
534,2,T1_SMS_8,90,9999,9999,9999,994657340
534,2,T1_SMS_8,91,9999,9999,9999,995457072
534,2,T1_SMS_8,92,9999,9999,9999,996257848
534,2,T1_SMS_8,93,9999,9999,9999,997057656
534,2,T1_SMS_8,94,9999,9999,9999,997857392
534,2,T1_SMS_8,95,9999,9999,9999,998657128
534,2,T1_SMS_8,96,9999,9999,9999,999457908
534,2,T1_SMS_8,97,9999,9999,9999,1000257592
534,2,T1_SMS_8,98,9999,9999,9999,1001057400
534,2,T1_SMS_8,99,9999,9999,9999,1001857132
534,2,T1_SMS_8,100,9999,9999,9999,1002657904
534,2,T1_SMS_8,101,9999,9999,9999,1003457644
534,2,T1_SMS_8,102,9999,9999,9999,1004257380
534,2,T1_SMS_8,103,9999,9999,9999,1005057112
534,2,T1_SMS_8,104,9999,9999,9999,1005857892
534,2,T1_SMS_8,105,9999,9999,9999,1006657652
534,2,T1_SMS_8,106,9999,9999,9999,1007457384
534,2,T1_SMS_8,107,9999,9999,9999,1008257116
534,2,T1_SMS_8,108,9999,9999,9999,1009057892
534,2,T1_SMS_8,109,9999,9999,9999,1009857632
534,2,T1_SMS_8,110,9999,9999,9999,1010657364
534,2,T1_SMS_8,111,9999,9999,9999,1011457096
534,2,T1_SMS_8,112,9999,9999,9999,1012257876
534,2,T1_SMS_8,113,9999,9999,9999,1013057636
534,2,T1_SMS_8,114,9999,9999,9999,1013857372
534,2,T1_SMS_8,115,9999,9999,9999,1014657104
534,2,T1_SMS_8,116,9999,9999,9999,1015457884
534,2,T1_SMS_8,117,9999,9999,9999,1016257612
534,2,T1_SMS_8,118,9999,9999,9999,1017057352
534,2,T1_SMS_8,119,9999,9999,9999,1017857084
535,23,Ticks_Phase_5,0,5,42,127,1029074284
535,23,Ticks_Phase_5,1,5,42,127,1029573992
535,23,Ticks_Phase_5,2,1,48,36,1029794236
535,23,Ticks_Phase_5,3,5,42,127,1030073680
535,23,Ticks_Phase_5,4,1,48,29,1030136408
535,23,Ticks_Phase_5,5,5,42,127,1030573444
535,23,Ticks_Phase_5,6,1,48,29,1030587872
535,23,Ticks_Phase_5,7,5,42,127,1031074104
535,23,Ticks_Phase_5,8,1,48,29,1031098420
535,23,Ticks_Phase_5,9,5,42,127,1031573868
535,23,Ticks_Phase_5,10,1,48,31,1031584928
535,23,Ticks_Phase_5,11,5,42,127,1032073628
535,23,Ticks_Phase_5,12,1,48,24,1032101676
535,23,Ticks_Phase_5,13,5,42,127,1032574588
535,23,Ticks_Phase_5,14,1,48,28,1032581908
535,23,Ticks_Phase_5,15,5,42,127,1033074052
535,23,Ticks_Phase_5,16,1,48,32,1033090348
535,23,Ticks_Phase_5,17,5,42,127,1033573740
535,23,Ticks_Phase_5,18,1,48,26,1033620136
535,23,Ticks_Phase_5,19,5,42,127,1034073576
535,23,Ticks_Phase_5,20,1,48,30,1034121560
535,23,Ticks_Phase_5,21,5,42,127,1034574164
535,23,Ticks_Phase_5,22,1,48,33,1034595180
535,23,Ticks_Phase_5,23,5,42,127,1035073852
535,23,Ticks_Phase_5,24,1,48,28,1035099880
535,23,Ticks_Phase_5,25,5,42,127,1035573616
535,23,Ticks_Phase_5,26,1,48,24,1035627956
535,23,Ticks_Phase_5,27,5,42,127,1036074472
535,23,Ticks_Phase_5,28,1,48,16,1036127420
535,23,Ticks_Phase_5,29,5,42,127,1036573940
535,23,Ticks_Phase_5,30,1,48,33,1036608832
535,23,Ticks_Phase_5,31,5,42,127,1037073776
535,23,Ticks_Phase_5,32,1,48,27,1037101392
535,23,Ticks_Phase_5,33,5,42,127,1037573536
535,23,Ticks_Phase_5,34,1,48,30,1037613804
535,23,Ticks_Phase_5,35,5,42,127,1038074348
535,23,Ticks_Phase_5,36,1,48,26,1038124352
535,23,Ticks_Phase_5,37,5,42,127,1038573812
535,23,Ticks_Phase_5,38,1,48,29,1038618716
535,23,Ticks_Phase_5,39,5,42,127,1039073572
535,23,Ticks_Phase_5,40,1,48,24,1039148732
535,23,Ticks_Phase_5,41,5,42,127,1039574308
535,23,Ticks_Phase_5,42,1,48,26,1039652100
535,23,Ticks_Phase_5,43,5,42,127,1040074220
535,23,Ticks_Phase_5,44,1,48,24,1040156196
535,23,Ticks_Phase_5,45,5,42,127,1040573760
535,23,Ticks_Phase_5,46,1,48,24,1040624284
535,23,Ticks_Phase_5,47,5,42,127,1041073524
535,23,Ticks_Phase_5,48,1,48,29,1041090488
535,23,Ticks_Phase_5,49,1,48,26,1041566284
535,23,Ticks_Phase_5,50,5,42,127,1041574328
535,23,Ticks_Phase_5,51,1,48,31,1042057512
535,23,Ticks_Phase_5,52,5,42,127,1042074016
535,23,Ticks_Phase_5,53,1,48,33,1042570300
535,23,Ticks_Phase_5,54,5,42,127,1042573552
535,23,Ticks_Phase_5,55,5,42,127,1043074444
535,23,Ticks_Phase_5,56,1,48,33,1043087148
535,23,Ticks_Phase_5,57,5,42,127,1043584316
535,23,Ticks_Phase_5,58,1,48,31,1043594028
535,23,Ticks_Phase_5,59,5,42,127,1044073748
535,23,Ticks_Phase_5,60,1,48,35,1044099184
535,23,Ticks_Phase_5,61,5,42,127,1044573436
535,23,Ticks_Phase_5,62,1,48,31,1044604192
535,23,Ticks_Phase_5,63,5,42,127,1045074396
535,23,Ticks_Phase_5,64,1,48,31,1045098932
535,23,Ticks_Phase_5,65,5,42,127,1045574156
535,23,Ticks_Phase_5,66,1,48,33,1045605736
535,23,Ticks_Phase_5,67,5,42,127,1046073696
535,23,Ticks_Phase_5,68,1,48,27,1046092548
535,23,Ticks_Phase_5,69,5,42,127,1046573436
535,23,Ticks_Phase_5,70,1,48,29,1046622492
535,23,Ticks_Phase_5,71,5,42,127,1047074096
535,23,Ticks_Phase_5,72,1,48,24,1047103532
535,23,Ticks_Phase_5,73,5,42,127,1047574008
535,23,Ticks_Phase_5,74,1,48,20,1047630020
535,23,Ticks_Phase_5,75,5,42,127,1048073544
535,23,Ticks_Phase_5,76,1,48,29,1048101224
535,23,Ticks_Phase_5,77,5,42,127,1048574428
535,23,Ticks_Phase_5,78,1,48,35,1048580088
535,23,Ticks_Phase_5,79,5,42,127,1049074116
535,23,Ticks_Phase_5,80,1,48,38,1049088544
535,23,Ticks_Phase_5,81,5,42,127,1049573732
535,23,Ticks_Phase_5,82,1,48,29,1049607552
535,23,Ticks_Phase_5,83,5,42,127,1050073420
535,23,Ticks_Phase_5,84,1,48,33,1050085972
535,23,Ticks_Phase_5,85,5,42,127,1050574300
535,23,Ticks_Phase_5,86,1,48,30,1050581680
535,23,Ticks_Phase_5,87,5,42,127,1051073988
535,23,Ticks_Phase_5,88,1,48,37,1051091404
535,23,Ticks_Phase_5,89,5,42,127,1051573604
535,23,Ticks_Phase_5,90,1,48,30,1051629288
535,23,Ticks_Phase_5,91,5,42,127,1052074336
535,23,Ticks_Phase_5,92,1,48,33,1052079920
535,23,Ticks_Phase_5,93,5,42,127,1052574028
535,23,Ticks_Phase_5,94,1,48,26,1052629936
535,23,Ticks_Phase_5,95,5,42,127,1053084124
535,23,Ticks_Phase_5,96,1,48,25,1053115408
535,23,Ticks_Phase_5,97,5,42,127,1053583884
535,23,Ticks_Phase_5,98,1,48,22,1053623332
535,23,Ticks_Phase_5,99,5,42,127,1054083428
535,23,Ticks_Phase_5,100,1,48,25,1054138288
535,23,Ticks_Phase_5,101,5,42,127,1054584160
535,23,Ticks_Phase_5,102,1,48,30,1054611628
535,23,Ticks_Phase_5,103,5,42,127,1055083848
535,23,Ticks_Phase_5,104,1,48,35,1055106664
535,23,Ticks_Phase_5,105,5,42,127,1055583540
535,23,Ticks_Phase_5,106,1,48,28,1055617956
535,23,Ticks_Phase_5,107,5,42,127,1056084272
535,23,Ticks_Phase_5,108,1,48,33,1056124016
535,23,Ticks_Phase_5,109,5,42,127,1056584036
535,23,Ticks_Phase_5,110,1,48,30,1056627000
535,23,Ticks_Phase_5,111,5,42,127,1057083876
535,23,Ticks_Phase_5,112,1,48,27,1057108116
535,23,Ticks_Phase_5,113,5,42,127,1057583392
535,23,Ticks_Phase_5,114,1,48,28,1057615068
535,23,Ticks_Phase_5,115,5,42,127,1058084124
535,23,Ticks_Phase_5,116,1,48,30,1058094140
535,23,Ticks_Phase_5,117,5,42,127,1058584036
535,23,Ticks_Phase_5,118,1,48,28,1058637956
535,23,Ticks_Phase_5,119,5,42,127,1059083652
535,23,Ticks_Phase_5,120,1,48,32,1059143412
535,23,Ticks_Phase_5,121,5,42,127,1059584312
535,23,Ticks_Phase_5,122,1,48,26,1059653664
535,23,Ticks_Phase_5,123,5,42,127,1060084148
535,23,Ticks_Phase_5,124,1,48,26,1060168468
535,23,Ticks_Phase_5,125,5,42,127,1060583764
535,23,Ticks_Phase_5,126,1,48,35,1060699236
535,23,Ticks_Phase_5,127,5,42,127,1061104044
535,23,Ticks_Phase_5,128,1,48,16,1061357536
535,23,Ticks_Phase_5,129,5,42,127,1061603808
535,23,Ticks_Phase_5,130,5,42,127,1062104712
535,23,Ticks_Phase_5,131,1,48,18,1062222144
535,23,Ticks_Phase_5,132,5,42,127,1062614660
535,23,Ticks_Phase_5,133,1,48,22,1062802636
535,23,Ticks_Phase_5,134,5,42,127,1063113976
535,23,Ticks_Phase_5,135,5,42,127,1063613760
535,23,Ticks_Phase_5,136,5,42,127,1064113544
535,23,Ticks_Phase_5,137,1,48,22,1064133820
535,23,Ticks_Phase_5,138,5,42,127,1064614280
535,23,Ticks_Phase_5,139,1,48,23,1064646604
535,23,Ticks_Phase_5,140,5,42,127,1065113820
535,23,Ticks_Phase_5,141,1,48,30,1065148016
535,23,Ticks_Phase_5,142,5,42,127,1065613584
535,23,Ticks_Phase_5,143,1,48,25,1065656164
535,23,Ticks_Phase_5,144,5,42,127,1066114540
535,23,Ticks_Phase_5,145,1,48,26,1066160492
535,23,Ticks_Phase_5,146,5,42,127,1066624560
535,23,Ticks_Phase_5,147,1,48,21,1066643112
535,23,Ticks_Phase_5,148,5,42,127,1067124028
535,23,Ticks_Phase_5,149,1,48,24,1067157780
535,23,Ticks_Phase_5,150,5,42,127,1067623868
535,23,Ticks_Phase_5,151,1,48,25,1067686072
535,23,Ticks_Phase_5,152,5,42,127,1068123552
535,23,Ticks_Phase_5,153,1,48,30,1068155576
535,23,Ticks_Phase_5,154,5,42,127,1068624216
535,23,Ticks_Phase_5,155,1,48,25,1068687768
535,23,Ticks_Phase_5,156,5,42,127,1069123980
535,23,Ticks_Phase_5,157,1,48,26,1069163200
535,23,Ticks_Phase_5,158,5,42,127,1069604468
535,23,Ticks_Phase_5,159,1,48,29,1069661076
535,23,Ticks_Phase_5,160,5,42,127,1070103860
535,23,Ticks_Phase_5,161,1,48,35,1070157032
535,23,Ticks_Phase_5,162,5,42,127,1070603696
535,23,Ticks_Phase_5,163,1,48,23,1070678580
535,23,Ticks_Phase_5,164,5,42,127,1071104728
535,23,Ticks_Phase_5,165,1,48,22,1071193924
535,23,Ticks_Phase_5,166,5,42,127,1071604048
535,23,Ticks_Phase_5,167,1,48,28,1071654948
535,23,Ticks_Phase_5,168,5,42,127,1072103880
535,23,Ticks_Phase_5,169,1,48,24,1072120624
535,23,Ticks_Phase_5,170,5,42,127,1072603424
535,23,Ticks_Phase_5,171,1,48,22,1072633056
535,23,Ticks_Phase_5,172,5,42,127,1073104528
535,23,Ticks_Phase_5,173,1,48,26,1073161800
535,23,Ticks_Phase_5,174,5,42,127,1073603920
535,23,Ticks_Phase_5,175,1,48,23,1073666872
535,23,Ticks_Phase_5,176,5,42,127,1074103532
535,23,Ticks_Phase_5,177,1,48,26,1074169552
535,23,Ticks_Phase_5,178,5,42,127,1074604488
535,23,Ticks_Phase_5,179,1,48,31,1074656664
535,23,Ticks_Phase_5,180,5,42,127,1075104400
535,23,Ticks_Phase_5,181,1,48,30,1075132312
535,23,Ticks_Phase_5,182,5,42,127,1075603940
535,23,Ticks_Phase_5,183,1,48,34,1075640976
535,23,Ticks_Phase_5,184,5,42,127,1076103480
535,23,Ticks_Phase_5,185,1,48,35,1076167628
535,23,Ticks_Phase_5,186,5,42,127,1076604512
535,23,Ticks_Phase_5,187,1,48,27,1076662456
535,23,Ticks_Phase_5,188,5,42,127,1077104124
535,23,Ticks_Phase_5,189,1,48,30,1077153160
535,23,Ticks_Phase_5,190,5,42,127,1077553468
535,23,Ticks_Phase_5,191,1,48,26,1077666820
535,23,Ticks_Phase_5,192,5,42,127,1078054548
535,23,Ticks_Phase_5,193,1,48,27,1078183436
535,23,Ticks_Phase_5,194,5,42,127,1078553868
535,23,Ticks_Phase_5,195,1,48,15,1078644032
535,23,Ticks_Phase_5,196,5,42,127,1079053628
535,23,Ticks_Phase_5,197,1,48,24,1079335800
535,23,Ticks_Phase_5,198,5,42,127,1079554364
535,23,Ticks_Phase_5,199,5,42,127,1080064480
535,23,Ticks_Phase_5,200,1,48,24,1080211104
535,23,Ticks_Phase_5,201,5,42,127,1080564320
535,23,Ticks_Phase_5,202,5,42,127,1081063880
535,23,Ticks_Phase_5,203,1,48,19,1081075912
535,23,Ticks_Phase_5,204,5,42,127,1081563644
535,23,Ticks_Phase_5,205,1,48,16,1081604956
535,23,Ticks_Phase_5,206,1,48,28,1082048620
535,23,Ticks_Phase_5,207,5,42,127,1082064372
535,23,Ticks_Phase_5,208,1,48,33,1082532804
535,23,Ticks_Phase_5,209,5,42,127,1082563912
535,23,Ticks_Phase_5,210,1,48,33,1083019836
535,23,Ticks_Phase_5,211,5,42,127,1083063604
535,23,Ticks_Phase_5,212,1,48,31,1083501624
535,23,Ticks_Phase_5,213,5,42,127,1083564488
535,23,Ticks_Phase_5,214,1,48,25,1084034120
535,23,Ticks_Phase_5,215,5,42,127,1084064324
535,23,Ticks_Phase_5,216,1,48,29,1084511796
535,23,Ticks_Phase_5,217,5,42,127,1084563792
535,23,Ticks_Phase_5,218,5,42,127,1085063636
535,23,Ticks_Phase_5,219,1,48,24,1085070944
535,23,Ticks_Phase_5,220,1,48,26,1085553624
535,23,Ticks_Phase_5,221,5,42,127,1085564216
535,23,Ticks_Phase_5,222,1,48,36,1086038856
535,23,Ticks_Phase_5,223,5,42,127,1086114300
535,23,Ticks_Phase_5,224,1,48,29,1086555548
535,23,Ticks_Phase_5,225,5,42,127,1086614060
535,23,Ticks_Phase_5,226,5,42,127,1087113536
535,23,Ticks_Phase_5,227,1,48,16,1087121680
535,23,Ticks_Phase_5,228,5,42,127,1087614196
535,23,Ticks_Phase_5,229,1,48,21,1087649068
535,23,Ticks_Phase_5,230,5,42,127,1088113960
535,23,Ticks_Phase_5,231,1,48,31,1088121192
535,23,Ticks_Phase_5,232,5,42,127,1088613868
535,23,Ticks_Phase_5,233,1,48,23,1088635488
535,23,Ticks_Phase_5,234,5,42,127,1089113560
535,23,Ticks_Phase_5,235,1,48,26,1089135780
535,23,Ticks_Phase_5,236,5,42,127,1089614220
535,23,Ticks_Phase_5,237,1,48,27,1089665568
535,23,Ticks_Phase_5,238,5,42,127,1090113984
535,23,Ticks_Phase_5,239,1,48,23,1090130800
535,23,Ticks_Phase_5,240,5,42,127,1090613672
535,23,Ticks_Phase_5,241,1,48,19,1090645920
535,23,Ticks_Phase_5,242,5,42,127,1091114456
535,23,Ticks_Phase_5,243,1,48,24,1091123376
535,23,Ticks_Phase_5,244,5,42,127,1091614072
535,23,Ticks_Phase_5,245,1,48,24,1091624084
535,23,Ticks_Phase_5,246,5,42,127,1092113908
535,23,Ticks_Phase_5,247,1,48,24,1092132088
535,23,Ticks_Phase_5,248,5,42,127,1092613372
535,23,Ticks_Phase_5,249,1,48,22,1092639176
535,23,Ticks_Phase_5,250,5,42,127,1093114256
535,23,Ticks_Phase_5,251,1,48,23,1093136168
535,23,Ticks_Phase_5,252,5,42,127,1093613868
535,23,Ticks_Phase_5,253,1,48,20,1093646040
535,23,Ticks_Phase_5,254,5,42,127,1094113632
535,23,Ticks_Phase_5,255,1,48,25,1094138388
535,23,Ticks_Phase_5,256,1,48,29,1094645032
535,23,Ticks_Phase_5,257,5,42,127,1094713832
535,23,Ticks_Phase_5,258,5,42,127,1095213280
535,23,Ticks_Phase_5,259,1,48,17,1095421604
535,23,Ticks_Phase_5,260,5,42,127,1095714012
535,23,Ticks_Phase_5,261,1,48,13,1095919724
535,23,Ticks_Phase_5,262,5,42,127,1096214072
535,23,Ticks_Phase_5,263,1,48,16,1096283724
535,23,Ticks_Phase_5,264,5,42,127,1096713836
535,23,Ticks_Phase_5,265,1,48,18,1096836876
535,23,Ticks_Phase_5,266,5,42,127,1097214276
535,23,Ticks_Phase_5,267,1,48,18,1097384568
535,23,Ticks_Phase_5,268,5,42,127,1097713960
535,23,Ticks_Phase_5,269,5,42,127,1098213820
535,23,Ticks_Phase_5,270,1,48,19,1098260524
535,23,Ticks_Phase_5,271,5,42,127,1098713436
535,23,Ticks_Phase_5,272,1,48,20,1098757064
535,23,Ticks_Phase_5,273,5,42,127,1099214168
535,23,Ticks_Phase_5,274,1,48,24,1099278092
535,23,Ticks_Phase_5,275,5,42,127,1099713856
535,23,Ticks_Phase_5,276,1,48,23,1099749320
535,23,Ticks_Phase_5,277,5,42,127,1100213916
535,23,Ticks_Phase_5,278,1,48,25,1100249164
535,23,Ticks_Phase_5,279,5,42,127,1100714280
535,23,Ticks_Phase_5,280,1,48,22,1100767196
535,23,Ticks_Phase_5,281,5,42,127,1101213968
535,23,Ticks_Phase_5,282,1,48,21,1101240892
535,23,Ticks_Phase_5,283,5,42,127,1101713728
535,23,Ticks_Phase_5,284,1,48,21,1101739016
535,23,Ticks_Phase_5,285,5,42,127,1102213716
535,23,Ticks_Phase_5,286,1,48,29,1102244840
535,23,Ticks_Phase_5,287,5,42,127,1102714596
535,23,Ticks_Phase_5,288,1,48,23,1102771796
535,23,Ticks_Phase_5,289,5,42,127,1103213988
535,23,Ticks_Phase_5,290,1,48,33,1103219804
535,23,Ticks_Phase_5,291,5,42,127,1103713752
535,23,Ticks_Phase_5,292,1,48,27,1103755664
535,23,Ticks_Phase_5,293,5,42,127,1104114188
535,23,Ticks_Phase_5,294,1,48,23,1104270404
535,23,Ticks_Phase_5,295,5,42,127,1104613728
535,23,Ticks_Phase_5,296,1,48,17,1104735644
535,23,Ticks_Phase_5,297,5,42,127,1105113564
535,23,Ticks_Phase_5,298,1,48,24,1105183188
535,23,Ticks_Phase_5,299,5,42,127,1105614300
535,23,Ticks_Phase_5,300,1,48,22,1105653072
535,23,Ticks_Phase_5,301,5,42,127,1106113840
535,23,Ticks_Phase_5,302,1,48,20,1106151100
535,23,Ticks_Phase_5,303,5,42,127,1106613528
535,23,Ticks_Phase_5,304,1,48,22,1106628252
535,23,Ticks_Phase_5,305,5,42,127,1107114636
535,23,Ticks_Phase_5,306,1,48,22,1107140588
535,23,Ticks_Phase_5,307,5,42,127,1107613952
535,23,Ticks_Phase_5,308,1,48,22,1107631976
535,23,Ticks_Phase_5,309,5,42,127,1108113640
535,23,Ticks_Phase_5,310,1,48,37,1108122008
535,23,Ticks_Phase_5,311,5,42,127,1108613404
535,23,Ticks_Phase_5,312,1,48,23,1108616972
535,23,Ticks_Phase_5,313,5,42,127,1109114512
535,23,Ticks_Phase_5,314,1,48,26,1109128864
535,23,Ticks_Phase_5,315,5,42,127,1109614052
535,23,Ticks_Phase_5,316,1,48,21,1109651776
535,23,Ticks_Phase_5,317,1,48,22,1110095580
535,23,Ticks_Phase_5,318,5,42,127,1110113584
535,23,Ticks_Phase_5,319,1,48,19,1110602240
535,23,Ticks_Phase_5,320,5,42,127,1110614544
535,23,Ticks_Phase_5,321,1,48,24,1111096756
535,23,Ticks_Phase_5,322,5,42,127,1111114008
535,23,Ticks_Phase_5,323,1,48,25,1111598060
535,23,Ticks_Phase_5,324,5,42,127,1111613696
535,23,Ticks_Phase_5,325,1,48,23,1112093632
535,23,Ticks_Phase_5,326,5,42,127,1112113532
535,23,Ticks_Phase_5,327,1,48,32,1112597664
535,23,Ticks_Phase_5,328,5,42,127,1112614468
535,23,Ticks_Phase_5,329,1,48,30,1113084476
535,23,Ticks_Phase_5,330,5,42,127,1113113936
535,23,Ticks_Phase_5,331,1,48,35,1113592180
535,23,Ticks_Phase_5,332,5,42,127,1113613624
535,23,Ticks_Phase_5,0,9999,9999,9999,1029071996
535,23,Ticks_Phase_5,1,9999,9999,9999,1029571704
535,23,Ticks_Phase_5,2,9999,9999,9999,1030071396
535,23,Ticks_Phase_5,3,9999,9999,9999,1030571084
535,23,Ticks_Phase_5,4,9999,9999,9999,1031071816
535,23,Ticks_Phase_5,5,9999,9999,9999,1031571580
535,23,Ticks_Phase_5,6,9999,9999,9999,1032071268
535,23,Ticks_Phase_5,7,9999,9999,9999,1032572004
535,23,Ticks_Phase_5,8,9999,9999,9999,1033071692
535,23,Ticks_Phase_5,9,9999,9999,9999,1033571452
535,23,Ticks_Phase_5,10,9999,9999,9999,1034071140
535,23,Ticks_Phase_5,11,9999,9999,9999,1034571876
535,23,Ticks_Phase_5,12,9999,9999,9999,1035071564
535,23,Ticks_Phase_5,13,9999,9999,9999,1035571304
535,23,Ticks_Phase_5,14,9999,9999,9999,1036072040
535,23,Ticks_Phase_5,15,9999,9999,9999,1036571728
535,23,Ticks_Phase_5,16,9999,9999,9999,1037071416
535,23,Ticks_Phase_5,17,9999,9999,9999,1037571176
535,23,Ticks_Phase_5,18,9999,9999,9999,1038071912
535,23,Ticks_Phase_5,19,9999,9999,9999,1038571600
535,23,Ticks_Phase_5,20,9999,9999,9999,1039071288
535,23,Ticks_Phase_5,21,9999,9999,9999,1039572024
535,23,Ticks_Phase_5,22,9999,9999,9999,1040071784
535,23,Ticks_Phase_5,23,9999,9999,9999,1040571472
535,23,Ticks_Phase_5,24,9999,9999,9999,1041071164
535,23,Ticks_Phase_5,25,9999,9999,9999,1041571964
535,23,Ticks_Phase_5,26,9999,9999,9999,1042071652
535,23,Ticks_Phase_5,27,9999,9999,9999,1042571340
535,23,Ticks_Phase_5,28,9999,9999,9999,1043072084
535,23,Ticks_Phase_5,29,9999,9999,9999,1043582028
535,23,Ticks_Phase_5,30,9999,9999,9999,1044071532
535,23,Ticks_Phase_5,31,9999,9999,9999,1044571224
535,23,Ticks_Phase_5,32,9999,9999,9999,1045071960
535,23,Ticks_Phase_5,33,9999,9999,9999,1045571648
535,23,Ticks_Phase_5,34,9999,9999,9999,1046071412
535,23,Ticks_Phase_5,35,9999,9999,9999,1046571072
535,23,Ticks_Phase_5,36,9999,9999,9999,1047071808
535,23,Ticks_Phase_5,37,9999,9999,9999,1047571572
535,23,Ticks_Phase_5,38,9999,9999,9999,1048071260
535,23,Ticks_Phase_5,39,9999,9999,9999,1048571992
535,23,Ticks_Phase_5,40,9999,9999,9999,1049071684
535,23,Ticks_Phase_5,41,9999,9999,9999,1049571444
535,23,Ticks_Phase_5,42,9999,9999,9999,1050071132
535,23,Ticks_Phase_5,43,9999,9999,9999,1050571864
535,23,Ticks_Phase_5,44,9999,9999,9999,1051071552
535,23,Ticks_Phase_5,45,9999,9999,9999,1051571316
535,23,Ticks_Phase_5,46,9999,9999,9999,1052072048
535,23,Ticks_Phase_5,47,9999,9999,9999,1052571740
535,23,Ticks_Phase_5,48,9999,9999,9999,1053081688
535,23,Ticks_Phase_5,49,9999,9999,9999,1053581376
535,23,Ticks_Phase_5,50,9999,9999,9999,1054081140
535,23,Ticks_Phase_5,51,9999,9999,9999,1054581872
535,23,Ticks_Phase_5,52,9999,9999,9999,1055081564
535,23,Ticks_Phase_5,53,9999,9999,9999,1055581252
535,23,Ticks_Phase_5,54,9999,9999,9999,1056081984
535,23,Ticks_Phase_5,55,9999,9999,9999,1056581748
535,23,Ticks_Phase_5,56,9999,9999,9999,1057081440
535,23,Ticks_Phase_5,57,9999,9999,9999,1057581176
535,23,Ticks_Phase_5,58,9999,9999,9999,1058081912
535,23,Ticks_Phase_5,59,9999,9999,9999,1058581600
535,23,Ticks_Phase_5,60,9999,9999,9999,1059081288
535,23,Ticks_Phase_5,61,9999,9999,9999,1059582024
535,23,Ticks_Phase_5,62,9999,9999,9999,1060081788
535,23,Ticks_Phase_5,63,9999,9999,9999,1060581476
535,23,Ticks_Phase_5,64,9999,9999,9999,1061101684
535,23,Ticks_Phase_5,65,9999,9999,9999,1061601372
535,23,Ticks_Phase_5,66,9999,9999,9999,1062102128
535,23,Ticks_Phase_5,67,9999,9999,9999,1062612076
535,23,Ticks_Phase_5,68,9999,9999,9999,1063111764
535,23,Ticks_Phase_5,69,9999,9999,9999,1063611476
535,23,Ticks_Phase_5,70,9999,9999,9999,1064111184
535,23,Ticks_Phase_5,71,9999,9999,9999,1064611920
535,23,Ticks_Phase_5,72,9999,9999,9999,1065111608
535,23,Ticks_Phase_5,73,9999,9999,9999,1065611368
535,23,Ticks_Phase_5,74,9999,9999,9999,1066112104
535,23,Ticks_Phase_5,75,9999,9999,9999,1066622052
535,23,Ticks_Phase_5,76,9999,9999,9999,1067121740
535,23,Ticks_Phase_5,77,9999,9999,9999,1067621432
535,23,Ticks_Phase_5,78,9999,9999,9999,1068121192
535,23,Ticks_Phase_5,79,9999,9999,9999,1068621928
535,23,Ticks_Phase_5,80,9999,9999,9999,1069121616
535,23,Ticks_Phase_5,81,9999,9999,9999,1069601884
535,23,Ticks_Phase_5,82,9999,9999,9999,1070101572
535,23,Ticks_Phase_5,83,9999,9999,9999,1070601336
535,23,Ticks_Phase_5,84,9999,9999,9999,1071102068
535,23,Ticks_Phase_5,85,9999,9999,9999,1071601760
535,23,Ticks_Phase_5,86,9999,9999,9999,1072101448
535,23,Ticks_Phase_5,87,9999,9999,9999,1072601208
535,23,Ticks_Phase_5,88,9999,9999,9999,1073101944
535,23,Ticks_Phase_5,89,9999,9999,9999,1073601632
535,23,Ticks_Phase_5,90,9999,9999,9999,1074101320
535,23,Ticks_Phase_5,91,9999,9999,9999,1074602052
535,23,Ticks_Phase_5,92,9999,9999,9999,1075101816
535,23,Ticks_Phase_5,93,9999,9999,9999,1075601504
535,23,Ticks_Phase_5,94,9999,9999,9999,1076101192
535,23,Ticks_Phase_5,95,9999,9999,9999,1076601928
535,23,Ticks_Phase_5,96,9999,9999,9999,1077101688
535,23,Ticks_Phase_5,97,9999,9999,9999,1077551180
535,23,Ticks_Phase_5,98,9999,9999,9999,1078051964
535,23,Ticks_Phase_5,99,9999,9999,9999,1078551652
535,23,Ticks_Phase_5,100,9999,9999,9999,1079051344
535,23,Ticks_Phase_5,101,9999,9999,9999,1079552076
535,23,Ticks_Phase_5,102,9999,9999,9999,1080062044
535,23,Ticks_Phase_5,103,9999,9999,9999,1080561736
535,23,Ticks_Phase_5,104,9999,9999,9999,1081061444
535,23,Ticks_Phase_5,105,9999,9999,9999,1081561208
535,23,Ticks_Phase_5,106,9999,9999,9999,1082061936
535,23,Ticks_Phase_5,107,9999,9999,9999,1082561624
535,23,Ticks_Phase_5,108,9999,9999,9999,1083061316
535,23,Ticks_Phase_5,109,9999,9999,9999,1083562052
535,23,Ticks_Phase_5,110,9999,9999,9999,1084061816
535,23,Ticks_Phase_5,111,9999,9999,9999,1084561504
535,23,Ticks_Phase_5,112,9999,9999,9999,1085061200
535,23,Ticks_Phase_5,113,9999,9999,9999,1085561928
535,23,Ticks_Phase_5,114,9999,9999,9999,1086111864
535,23,Ticks_Phase_5,115,9999,9999,9999,1086611552
535,23,Ticks_Phase_5,116,9999,9999,9999,1087111248
535,23,Ticks_Phase_5,117,9999,9999,9999,1087611984
535,23,Ticks_Phase_5,118,9999,9999,9999,1088111672
535,23,Ticks_Phase_5,119,9999,9999,9999,1088611432
535,23,Ticks_Phase_5,120,9999,9999,9999,1089111124
535,23,Ticks_Phase_5,121,9999,9999,9999,1089611860
535,23,Ticks_Phase_5,122,9999,9999,9999,1090111548
535,23,Ticks_Phase_5,123,9999,9999,9999,1090611312
535,23,Ticks_Phase_5,124,9999,9999,9999,1091112020
535,23,Ticks_Phase_5,125,9999,9999,9999,1091611708
535,23,Ticks_Phase_5,126,9999,9999,9999,1092111472
535,23,Ticks_Phase_5,127,9999,9999,9999,1092611160
535,23,Ticks_Phase_5,128,9999,9999,9999,1093111892
535,23,Ticks_Phase_5,129,9999,9999,9999,1093611580
535,23,Ticks_Phase_5,130,9999,9999,9999,1094111344
535,23,Ticks_Phase_5,131,9999,9999,9999,1094711396
535,23,Ticks_Phase_5,132,9999,9999,9999,1095211068
535,23,Ticks_Phase_5,133,9999,9999,9999,1095711800
535,23,Ticks_Phase_5,134,9999,9999,9999,1096211564
535,23,Ticks_Phase_5,135,9999,9999,9999,1096711252
535,23,Ticks_Phase_5,136,9999,9999,9999,1097211988
535,23,Ticks_Phase_5,137,9999,9999,9999,1097711676
535,23,Ticks_Phase_5,138,9999,9999,9999,1098211384
535,23,Ticks_Phase_5,139,9999,9999,9999,1098711148
535,23,Ticks_Phase_5,140,9999,9999,9999,1099211880
535,23,Ticks_Phase_5,141,9999,9999,9999,1099711568
535,23,Ticks_Phase_5,142,9999,9999,9999,1100211256
535,23,Ticks_Phase_5,143,9999,9999,9999,1100711992
535,23,Ticks_Phase_5,144,9999,9999,9999,1101211756
535,23,Ticks_Phase_5,145,9999,9999,9999,1101711440
535,23,Ticks_Phase_5,146,9999,9999,9999,1102211132
535,23,Ticks_Phase_5,147,9999,9999,9999,1102711864
535,23,Ticks_Phase_5,148,9999,9999,9999,1103211628
535,23,Ticks_Phase_5,149,9999,9999,9999,1103711316
535,23,Ticks_Phase_5,150,9999,9999,9999,1104111676
535,23,Ticks_Phase_5,151,9999,9999,9999,1104611440
535,23,Ticks_Phase_5,152,9999,9999,9999,1105111128
535,23,Ticks_Phase_5,153,9999,9999,9999,1105611864
535,23,Ticks_Phase_5,154,9999,9999,9999,1106111552
535,23,Ticks_Phase_5,155,9999,9999,9999,1106611316
535,23,Ticks_Phase_5,156,9999,9999,9999,1107112048
535,23,Ticks_Phase_5,157,9999,9999,9999,1107611740
535,23,Ticks_Phase_5,158,9999,9999,9999,1108111428
535,23,Ticks_Phase_5,159,9999,9999,9999,1108611192
535,23,Ticks_Phase_5,160,9999,9999,9999,1109111928
535,23,Ticks_Phase_5,161,9999,9999,9999,1109611616
535,23,Ticks_Phase_5,162,9999,9999,9999,1110111300
535,23,Ticks_Phase_5,163,9999,9999,9999,1110612032
535,23,Ticks_Phase_5,164,9999,9999,9999,1111111796
535,23,Ticks_Phase_5,165,9999,9999,9999,1111611484
535,23,Ticks_Phase_5,166,9999,9999,9999,1112111172
535,23,Ticks_Phase_5,167,9999,9999,9999,1112611956
535,23,Ticks_Phase_5,168,9999,9999,9999,1113111648
535,23,Ticks_Phase_5,169,9999,9999,9999,1113611336
536,22,Ticks_Phase_8,0,5,42,127,1124560188
536,22,Ticks_Phase_8,1,5,42,127,1125360144
536,22,Ticks_Phase_8,2,1,48,18,1125573496
536,22,Ticks_Phase_8,3,5,42,127,1126159708
536,22,Ticks_Phase_8,4,1,48,27,1126201868
536,22,Ticks_Phase_8,5,1,48,27,1126953908
536,22,Ticks_Phase_8,6,5,42,127,1126959440
536,22,Ticks_Phase_8,7,1,48,29,1127760128
536,22,Ticks_Phase_8,8,5,42,127,1127761616
536,22,Ticks_Phase_8,9,5,42,127,1128560064
536,22,Ticks_Phase_8,10,1,48,21,1128578764
536,22,Ticks_Phase_8,11,5,42,127,1129360072
536,22,Ticks_Phase_8,12,1,48,26,1129384384
536,22,Ticks_Phase_8,13,5,42,127,1130159488
536,22,Ticks_Phase_8,14,1,48,27,1130171820
536,22,Ticks_Phase_8,15,5,42,127,1130960320
536,22,Ticks_Phase_8,16,1,48,34,1130984632
536,22,Ticks_Phase_8,17,5,42,127,1131759884
536,22,Ticks_Phase_8,18,1,48,28,1131794600
536,22,Ticks_Phase_8,19,5,42,127,1132559968
536,22,Ticks_Phase_8,20,1,48,28,1132584056
536,22,Ticks_Phase_8,21,5,42,127,1133359700
536,22,Ticks_Phase_8,22,1,48,28,1133371736
536,22,Ticks_Phase_8,23,1,48,28,1134144696
536,22,Ticks_Phase_8,24,5,42,127,1134160380
536,22,Ticks_Phase_8,25,1,48,22,1134943660
536,22,Ticks_Phase_8,26,5,42,127,1134959940
536,22,Ticks_Phase_8,27,1,48,37,1135755424
536,22,Ticks_Phase_8,28,5,42,127,1135759952
536,22,Ticks_Phase_8,29,5,42,127,1136559816
536,22,Ticks_Phase_8,30,1,48,40,1136568860
536,22,Ticks_Phase_8,31,5,42,127,1137360204
536,22,Ticks_Phase_8,32,1,48,36,1137399796
536,22,Ticks_Phase_8,33,5,42,127,1138159916
536,22,Ticks_Phase_8,34,1,48,27,1138174640
536,22,Ticks_Phase_8,35,5,42,127,1138959928
536,22,Ticks_Phase_8,36,1,48,30,1138976444
536,22,Ticks_Phase_8,37,5,42,127,1139759740
536,22,Ticks_Phase_8,38,1,48,25,1139777992
536,22,Ticks_Phase_8,39,5,42,127,1140560200
536,22,Ticks_Phase_8,40,1,48,29,1140575300
536,22,Ticks_Phase_8,41,5,42,127,1141359984
536,22,Ticks_Phase_8,42,1,48,24,1141384816
536,22,Ticks_Phase_8,43,1,48,29,1142152992
536,22,Ticks_Phase_8,44,5,42,127,1142159840
536,22,Ticks_Phase_8,45,5,42,127,1142959708
536,22,Ticks_Phase_8,46,1,48,24,1142960820
536,22,Ticks_Phase_8,47,5,42,127,1143760316
536,22,Ticks_Phase_8,48,1,48,36,1143769212
536,22,Ticks_Phase_8,49,5,42,127,1144560028
536,22,Ticks_Phase_8,50,1,48,32,1144586436
536,22,Ticks_Phase_8,51,1,48,28,1145326596
536,22,Ticks_Phase_8,52,5,42,127,1145359808
536,22,Ticks_Phase_8,53,1,48,22,1146132080
536,22,Ticks_Phase_8,54,5,42,127,1146159548
536,22,Ticks_Phase_8,55,1,48,37,1146950316
536,22,Ticks_Phase_8,56,5,42,127,1146960304
536,22,Ticks_Phase_8,57,1,48,34,1147748536
536,22,Ticks_Phase_8,58,5,42,127,1147760092
536,22,Ticks_Phase_8,59,5,42,127,1148540488
536,22,Ticks_Phase_8,60,1,48,36,1148555136
536,22,Ticks_Phase_8,61,1,48,31,1149333796
536,22,Ticks_Phase_8,62,5,42,127,1149340044
536,22,Ticks_Phase_8,63,5,42,127,1150139764
536,22,Ticks_Phase_8,64,1,48,35,1150170372
536,22,Ticks_Phase_8,65,5,42,127,1150939476
536,22,Ticks_Phase_8,66,1,48,32,1150974344
536,22,Ticks_Phase_8,67,5,42,127,1151740456
536,22,Ticks_Phase_8,68,1,48,29,1151796620
536,22,Ticks_Phase_8,69,5,42,127,1152539944
536,22,Ticks_Phase_8,70,1,48,31,1152541884
536,22,Ticks_Phase_8,71,5,42,127,1153339980
536,22,Ticks_Phase_8,72,1,48,29,1153390580
536,22,Ticks_Phase_8,73,5,42,127,1154139544
536,22,Ticks_Phase_8,74,1,48,28,1154186016
536,22,Ticks_Phase_8,75,5,42,127,1154940376
536,22,Ticks_Phase_8,76,1,48,30,1154981096
536,22,Ticks_Phase_8,77,5,42,127,1155740164
536,22,Ticks_Phase_8,78,1,48,29,1155789640
536,22,Ticks_Phase_8,79,5,42,127,1156539800
536,22,Ticks_Phase_8,80,1,48,24,1156611220
536,22,Ticks_Phase_8,81,5,42,127,1157339436
536,22,Ticks_Phase_8,82,1,48,25,1157402536
536,22,Ticks_Phase_8,83,5,42,127,1158140196
536,22,Ticks_Phase_8,84,1,48,35,1158151256
536,22,Ticks_Phase_8,85,5,42,127,1158940204
536,22,Ticks_Phase_8,86,1,48,36,1158978180
536,22,Ticks_Phase_8,87,5,42,127,1159739716
536,22,Ticks_Phase_8,88,1,48,34,1159745976
536,22,Ticks_Phase_8,89,5,42,127,1160539356
536,22,Ticks_Phase_8,90,1,48,29,1160584332
536,22,Ticks_Phase_8,91,5,42,127,1161340188
536,22,Ticks_Phase_8,92,1,48,32,1161376176
536,22,Ticks_Phase_8,93,5,42,127,1162139900
536,22,Ticks_Phase_8,94,1,48,32,1162204944
536,22,Ticks_Phase_8,95,5,42,127,1162960204
536,22,Ticks_Phase_8,96,1,48,33,1162993804
536,22,Ticks_Phase_8,97,5,42,127,1163760140
536,22,Ticks_Phase_8,98,1,48,29,1163795980
536,22,Ticks_Phase_8,99,5,42,127,1164560000
536,22,Ticks_Phase_8,100,1,48,32,1164646116
536,22,Ticks_Phase_8,101,5,42,127,1165359440
536,22,Ticks_Phase_8,102,1,48,27,1165379640
536,22,Ticks_Phase_8,103,1,48,29,1166140620
536,22,Ticks_Phase_8,104,5,42,127,1166160192
536,22,Ticks_Phase_8,105,5,42,127,1166959912
536,22,Ticks_Phase_8,106,1,48,19,1166986396
536,22,Ticks_Phase_8,107,5,42,127,1167759996
536,22,Ticks_Phase_8,108,1,48,33,1167811720
536,22,Ticks_Phase_8,109,5,42,127,1168559336
536,22,Ticks_Phase_8,110,1,48,31,1168570992
536,22,Ticks_Phase_8,111,5,42,127,1169360172
536,22,Ticks_Phase_8,112,1,48,37,1169377452
536,22,Ticks_Phase_8,113,1,48,32,1170153628
536,22,Ticks_Phase_8,114,5,42,127,1170159952
536,22,Ticks_Phase_8,115,5,42,127,1170959964
536,22,Ticks_Phase_8,116,1,48,38,1170987284
536,22,Ticks_Phase_8,117,5,42,127,1171759332
536,22,Ticks_Phase_8,118,1,48,33,1171791652
536,22,Ticks_Phase_8,119,5,42,127,1172560164
536,22,Ticks_Phase_8,120,1,48,28,1172607088
536,22,Ticks_Phase_8,121,5,42,127,1173359948
536,22,Ticks_Phase_8,122,1,48,29,1173400512
536,22,Ticks_Phase_8,123,1,48,28,1174158220
536,22,Ticks_Phase_8,124,5,42,127,1174159656
536,22,Ticks_Phase_8,125,5,42,127,1174959744
536,22,Ticks_Phase_8,126,1,48,31,1174999192
536,22,Ticks_Phase_8,127,1,48,29,1175757020
536,22,Ticks_Phase_8,128,5,42,127,1175800116
536,22,Ticks_Phase_8,129,1,48,27,1176596572
536,22,Ticks_Phase_8,130,5,42,127,1176599904
536,22,Ticks_Phase_8,131,5,42,127,1177399720
536,22,Ticks_Phase_8,132,1,48,25,1177464688
536,22,Ticks_Phase_8,133,5,42,127,1178200628
536,22,Ticks_Phase_8,134,1,48,29,1178224484
536,22,Ticks_Phase_8,135,5,42,127,1179010448
536,22,Ticks_Phase_8,136,1,48,27,1179018592
536,22,Ticks_Phase_8,137,5,42,127,1179820568
536,22,Ticks_Phase_8,138,1,48,24,1179823612
536,22,Ticks_Phase_8,139,5,42,127,1180620132
536,22,Ticks_Phase_8,140,1,48,34,1180676568
536,22,Ticks_Phase_8,141,5,42,127,1181419844
536,22,Ticks_Phase_8,142,1,48,30,1181461232
536,22,Ticks_Phase_8,143,5,42,127,1182219556
536,22,Ticks_Phase_8,144,1,48,31,1182282012
536,22,Ticks_Phase_8,145,5,42,127,1183020492
536,22,Ticks_Phase_8,146,1,48,32,1183065988
536,22,Ticks_Phase_8,147,5,42,127,1183820128
536,22,Ticks_Phase_8,148,1,48,32,1183878668
536,22,Ticks_Phase_8,149,5,42,127,1184619764
536,22,Ticks_Phase_8,150,1,48,26,1184654708
536,22,Ticks_Phase_8,151,5,42,127,1185419624
536,22,Ticks_Phase_8,152,1,48,28,1185470372
536,22,Ticks_Phase_8,153,5,42,127,1186220460
536,22,Ticks_Phase_8,154,1,48,23,1186249944
536,22,Ticks_Phase_8,155,5,42,127,1187020244
536,22,Ticks_Phase_8,156,1,48,28,1187048760
536,22,Ticks_Phase_8,157,5,42,127,1187819884
536,22,Ticks_Phase_8,158,1,48,30,1187851536
536,22,Ticks_Phase_8,159,5,42,127,1188619596
536,22,Ticks_Phase_8,160,1,48,26,1188657344
536,22,Ticks_Phase_8,161,5,42,127,1189379464
536,22,Ticks_Phase_8,162,1,48,30,1189488208
536,22,Ticks_Phase_8,163,5,42,127,1190180300
536,22,Ticks_Phase_8,164,1,48,19,1190277288
536,22,Ticks_Phase_8,165,5,42,127,1190979888
536,22,Ticks_Phase_8,166,1,48,26,1190984572
536,22,Ticks_Phase_8,167,5,42,127,1191779672
536,22,Ticks_Phase_8,168,1,48,24,1191843596
536,22,Ticks_Phase_8,169,1,48,28,1192577268
536,22,Ticks_Phase_8,170,5,42,127,1192579380
536,22,Ticks_Phase_8,171,5,42,127,1193380368
536,22,Ticks_Phase_8,172,1,48,27,1193384904
536,22,Ticks_Phase_8,173,5,42,127,1194180080
536,22,Ticks_Phase_8,174,1,48,33,1194195252
536,22,Ticks_Phase_8,175,5,42,127,1194979644
536,22,Ticks_Phase_8,176,1,48,27,1195043716
536,22,Ticks_Phase_8,177,1,48,28,1195765980
536,22,Ticks_Phase_8,178,5,42,127,1195779496
536,22,Ticks_Phase_8,179,1,48,32,1196538516
536,22,Ticks_Phase_8,180,5,42,127,1196580180
536,22,Ticks_Phase_8,181,1,48,29,1197337316
536,22,Ticks_Phase_8,182,5,42,127,1197380140
536,22,Ticks_Phase_8,183,1,48,28,1198126044
536,22,Ticks_Phase_8,184,5,42,127,1198179552
536,22,Ticks_Phase_8,185,1,48,27,1198966492
536,22,Ticks_Phase_8,186,5,42,127,1198979416
536,22,Ticks_Phase_8,187,1,48,30,1199761344
536,22,Ticks_Phase_8,188,5,42,127,1199780172
536,22,Ticks_Phase_8,189,5,42,127,1200580188
536,22,Ticks_Phase_8,190,1,48,28,1200595216
536,22,Ticks_Phase_8,191,5,42,127,1201379828
536,22,Ticks_Phase_8,192,1,48,33,1201409536
536,22,Ticks_Phase_8,193,5,42,127,1202099712
536,22,Ticks_Phase_8,194,1,48,34,1202240052
536,22,Ticks_Phase_8,195,5,42,127,1202900392
536,22,Ticks_Phase_8,196,1,48,31,1202913096
536,22,Ticks_Phase_8,197,5,42,127,1203700032
536,22,Ticks_Phase_8,198,1,48,26,1203705688
536,22,Ticks_Phase_8,199,1,48,27,1204474916
536,22,Ticks_Phase_8,200,5,42,127,1204499812
536,22,Ticks_Phase_8,201,1,48,33,1205257340
536,22,Ticks_Phase_8,202,5,42,127,1205299548
536,22,Ticks_Phase_8,203,1,48,31,1206041616
536,22,Ticks_Phase_8,204,5,42,127,1206100304
536,22,Ticks_Phase_8,205,1,48,28,1206875864
536,22,Ticks_Phase_8,206,5,42,127,1206900016
536,22,Ticks_Phase_8,207,1,48,28,1207662704
536,22,Ticks_Phase_8,208,5,42,127,1207699800
536,22,Ticks_Phase_8,209,1,48,28,1208491248
536,22,Ticks_Phase_8,210,5,42,127,1208499664
536,22,Ticks_Phase_8,211,1,48,28,1209244896
536,22,Ticks_Phase_8,212,5,42,127,1209300344
536,22,Ticks_Phase_8,213,1,48,29,1210062584
536,22,Ticks_Phase_8,214,5,42,127,1210100132
536,22,Ticks_Phase_8,215,1,48,28,1210862516
536,22,Ticks_Phase_8,216,5,42,127,1210899844
536,22,Ticks_Phase_8,217,1,48,26,1211678116
536,22,Ticks_Phase_8,218,5,42,127,1211699728
536,22,Ticks_Phase_8,219,1,48,32,1212477628
536,22,Ticks_Phase_8,220,5,42,127,1212500192
536,22,Ticks_Phase_8,221,1,48,29,1213280552
536,22,Ticks_Phase_8,222,5,42,127,1213300048
536,22,Ticks_Phase_8,223,1,48,26,1214067672
536,22,Ticks_Phase_8,224,5,42,127,1214099912
536,22,Ticks_Phase_8,225,5,42,127,1214899628
536,22,Ticks_Phase_8,226,1,48,27,1214900596
536,22,Ticks_Phase_8,227,1,48,27,1215730984
536,22,Ticks_Phase_8,228,5,42,127,1215780284
536,22,Ticks_Phase_8,229,5,42,127,1216579880
536,22,Ticks_Phase_8,230,1,48,25,1216594304
536,22,Ticks_Phase_8,231,1,48,27,1217370792
536,22,Ticks_Phase_8,232,5,42,127,1217379660
536,22,Ticks_Phase_8,233,5,42,127,1218179676
536,22,Ticks_Phase_8,234,1,48,24,1218214020
536,22,Ticks_Phase_8,235,5,42,127,1218980136
536,22,Ticks_Phase_8,236,1,48,26,1218985644
536,22,Ticks_Phase_8,237,1,48,27,1219758768
536,22,Ticks_Phase_8,238,5,42,127,1219779840
536,22,Ticks_Phase_8,239,5,42,127,1220579780
536,22,Ticks_Phase_8,240,1,48,26,1220612704
536,22,Ticks_Phase_8,241,1,48,29,1221370996
536,22,Ticks_Phase_8,242,5,42,127,1221379488
536,22,Ticks_Phase_8,243,5,42,127,1222180324
536,22,Ticks_Phase_8,244,1,48,21,1222182844
536,22,Ticks_Phase_8,245,5,42,127,1222979916
536,22,Ticks_Phase_8,246,1,48,24,1223008500
536,22,Ticks_Phase_8,247,1,48,27,1223772400
536,22,Ticks_Phase_8,248,5,42,127,1223779768
536,22,Ticks_Phase_8,249,1,48,26,1224569416
536,22,Ticks_Phase_8,250,5,42,127,1224579332
536,22,Ticks_Phase_8,251,5,42,127,1225380392
536,22,Ticks_Phase_8,252,1,48,24,1225381360
536,22,Ticks_Phase_8,253,5,42,127,1226179808
536,22,Ticks_Phase_8,254,1,48,24,1226461680
536,22,Ticks_Phase_8,255,5,42,127,1226979592
536,22,Ticks_Phase_8,256,1,48,24,1227100316
536,22,Ticks_Phase_8,257,1,48,23,1227722352
536,22,Ticks_Phase_8,258,5,42,127,1227779372
536,22,Ticks_Phase_8,259,1,48,22,1228472688
536,22,Ticks_Phase_8,260,5,42,127,1228580388
536,22,Ticks_Phase_8,261,1,48,29,1229322648
536,22,Ticks_Phase_8,262,5,42,127,1229539564
536,22,Ticks_Phase_8,263,5,42,127,1230339296
536,22,Ticks_Phase_8,264,1,48,25,1230531608
536,22,Ticks_Phase_8,265,5,42,127,1231140132
536,22,Ticks_Phase_8,266,1,48,21,1231335804
536,22,Ticks_Phase_8,267,5,42,127,1231939944
536,22,Ticks_Phase_8,268,1,48,30,1232079288
536,22,Ticks_Phase_8,269,5,42,127,1232739804
536,22,Ticks_Phase_8,270,1,48,26,1232817888
536,22,Ticks_Phase_8,271,5,42,127,1233539292
536,22,Ticks_Phase_8,272,1,48,34,1233606428
536,22,Ticks_Phase_8,273,5,42,127,1234340344
536,22,Ticks_Phase_8,274,1,48,26,1234412212
536,22,Ticks_Phase_8,275,5,42,127,1235139984
536,22,Ticks_Phase_8,276,1,48,32,1235154556
536,22,Ticks_Phase_8,277,5,42,127,1235939692
536,22,Ticks_Phase_8,278,1,48,25,1235946028
536,22,Ticks_Phase_8,279,5,42,127,1236739404
536,22,Ticks_Phase_8,280,1,48,26,1236745212
536,22,Ticks_Phase_8,281,5,42,127,1237540164
536,22,Ticks_Phase_8,282,1,48,25,1237578284
536,22,Ticks_Phase_8,283,1,48,31,1238339972
536,22,Ticks_Phase_8,284,5,42,127,1238341236
536,22,Ticks_Phase_8,285,1,48,27,1239118460
536,22,Ticks_Phase_8,286,5,42,127,1239139828
536,22,Ticks_Phase_8,287,1,48,32,1239910232
536,22,Ticks_Phase_8,288,5,42,127,1239939392
536,22,Ticks_Phase_8,289,1,48,30,1240713008
536,22,Ticks_Phase_8,290,5,42,127,1240740224
536,22,Ticks_Phase_8,291,1,48,30,1241540316
536,22,Ticks_Phase_8,292,5,42,127,1241541432
536,22,Ticks_Phase_8,293,5,42,127,1242339804
536,22,Ticks_Phase_8,294,1,48,35,1242345388
536,22,Ticks_Phase_8,295,1,48,31,1243113940
536,22,Ticks_Phase_8,296,5,42,127,1243139508
536,22,Ticks_Phase_8,297,1,48,28,1243925928
536,22,Ticks_Phase_8,298,5,42,127,1243940116
536,22,Ticks_Phase_8,299,5,42,127,1244580176
536,22,Ticks_Phase_8,300,1,48,35,1244744400
536,22,Ticks_Phase_8,301,1,48,28,1245351996
536,22,Ticks_Phase_8,302,5,42,127,1245379884
536,22,Ticks_Phase_8,303,1,48,27,1246135000
536,22,Ticks_Phase_8,304,5,42,127,1246179892
536,22,Ticks_Phase_8,305,1,48,27,1246963248
536,22,Ticks_Phase_8,306,5,42,127,1246979456
536,22,Ticks_Phase_8,307,1,48,19,1247776060
536,22,Ticks_Phase_8,308,5,42,127,1247780364
536,22,Ticks_Phase_8,309,1,48,26,1248568992
536,22,Ticks_Phase_8,310,5,42,127,1248579804
536,22,Ticks_Phase_8,311,1,48,31,1249335968
536,22,Ticks_Phase_8,312,5,42,127,1249379888
536,22,Ticks_Phase_8,313,1,48,30,1250136512
536,22,Ticks_Phase_8,314,5,42,127,1250179604
536,22,Ticks_Phase_8,315,1,48,26,1250971724
536,22,Ticks_Phase_8,316,5,42,127,1250980288
536,22,Ticks_Phase_8,317,1,48,30,1251766860
536,22,Ticks_Phase_8,318,5,42,127,1251779924
536,22,Ticks_Phase_8,319,1,48,29,1252546952
536,22,Ticks_Phase_8,320,5,42,127,1252579640
536,22,Ticks_Phase_8,321,1,48,28,1253335356
536,22,Ticks_Phase_8,322,5,42,127,1253379720
536,22,Ticks_Phase_8,323,1,48,27,1254124508
536,22,Ticks_Phase_8,324,5,42,127,1254180184
536,22,Ticks_Phase_8,325,1,48,29,1254964460
536,22,Ticks_Phase_8,326,5,42,127,1254979996
536,22,Ticks_Phase_8,327,1,48,28,1255774876
536,22,Ticks_Phase_8,328,5,42,127,1255779632
536,22,Ticks_Phase_8,329,1,48,27,1256557592
536,22,Ticks_Phase_8,330,5,42,127,1256579644
536,22,Ticks_Phase_8,331,1,48,30,1257366664
536,22,Ticks_Phase_8,332,5,42,127,1257380400
536,22,Ticks_Phase_8,333,1,48,31,1258175512
536,22,Ticks_Phase_8,334,5,42,127,1258179888
536,22,Ticks_Phase_8,335,5,42,127,1258979832
536,22,Ticks_Phase_8,336,5,42,127,1259779564
536,22,Ticks_Phase_8,0,9999,9999,9999,1124557904
536,22,Ticks_Phase_8,1,9999,9999,9999,1125357636
536,22,Ticks_Phase_8,2,9999,9999,9999,1126157420
536,22,Ticks_Phase_8,3,9999,9999,9999,1126957128
536,22,Ticks_Phase_8,4,9999,9999,9999,1127757916
536,22,Ticks_Phase_8,5,9999,9999,9999,1128557628
536,22,Ticks_Phase_8,6,9999,9999,9999,1129357416
536,22,Ticks_Phase_8,7,9999,9999,9999,1130157128
536,22,Ticks_Phase_8,8,9999,9999,9999,1130957884
536,22,Ticks_Phase_8,9,9999,9999,9999,1131757672
536,22,Ticks_Phase_8,10,9999,9999,9999,1132557384
536,22,Ticks_Phase_8,11,9999,9999,9999,1133357168
536,22,Ticks_Phase_8,12,9999,9999,9999,1134157944
536,22,Ticks_Phase_8,13,9999,9999,9999,1134957656
536,22,Ticks_Phase_8,14,9999,9999,9999,1135757368
536,22,Ticks_Phase_8,15,9999,9999,9999,1136557160
536,22,Ticks_Phase_8,16,9999,9999,9999,1137357916
536,22,Ticks_Phase_8,17,9999,9999,9999,1138157632
536,22,Ticks_Phase_8,18,9999,9999,9999,1138957416
536,22,Ticks_Phase_8,19,9999,9999,9999,1139757128
536,22,Ticks_Phase_8,20,9999,9999,9999,1140557912
536,22,Ticks_Phase_8,21,9999,9999,9999,1141357624
536,22,Ticks_Phase_8,22,9999,9999,9999,1142157404
536,22,Ticks_Phase_8,23,9999,9999,9999,1142957124
536,22,Ticks_Phase_8,24,9999,9999,9999,1143757880
536,22,Ticks_Phase_8,25,9999,9999,9999,1144557668
536,22,Ticks_Phase_8,26,9999,9999,9999,1145357372
536,22,Ticks_Phase_8,27,9999,9999,9999,1146157112
536,22,Ticks_Phase_8,28,9999,9999,9999,1146957944
536,22,Ticks_Phase_8,29,9999,9999,9999,1147757656
536,22,Ticks_Phase_8,30,9999,9999,9999,1148537976
536,22,Ticks_Phase_8,31,9999,9999,9999,1149337684
536,22,Ticks_Phase_8,32,9999,9999,9999,1150137404
536,22,Ticks_Phase_8,33,9999,9999,9999,1150937188
536,22,Ticks_Phase_8,34,9999,9999,9999,1151737948
536,22,Ticks_Phase_8,35,9999,9999,9999,1152537660
536,22,Ticks_Phase_8,36,9999,9999,9999,1153337468
536,22,Ticks_Phase_8,37,9999,9999,9999,1154137184
536,22,Ticks_Phase_8,38,9999,9999,9999,1154937940
536,22,Ticks_Phase_8,39,9999,9999,9999,1155737656
536,22,Ticks_Phase_8,40,9999,9999,9999,1156537440
536,22,Ticks_Phase_8,41,9999,9999,9999,1157337152
536,22,Ticks_Phase_8,42,9999,9999,9999,1158137984
536,22,Ticks_Phase_8,43,9999,9999,9999,1158937692
536,22,Ticks_Phase_8,44,9999,9999,9999,1159737432
536,22,Ticks_Phase_8,45,9999,9999,9999,1160537144
536,22,Ticks_Phase_8,46,9999,9999,9999,1161337976
536,22,Ticks_Phase_8,47,9999,9999,9999,1162137688
536,22,Ticks_Phase_8,48,9999,9999,9999,1162957916
536,22,Ticks_Phase_8,49,9999,9999,9999,1163757628
536,22,Ticks_Phase_8,50,9999,9999,9999,1164557416
536,22,Ticks_Phase_8,51,9999,9999,9999,1165357152
536,22,Ticks_Phase_8,52,9999,9999,9999,1166157908
536,22,Ticks_Phase_8,53,9999,9999,9999,1166957624
536,22,Ticks_Phase_8,54,9999,9999,9999,1167757412
536,22,Ticks_Phase_8,55,9999,9999,9999,1168557124
536,22,Ticks_Phase_8,56,9999,9999,9999,1169357884
536,22,Ticks_Phase_8,57,9999,9999,9999,1170157664
536,22,Ticks_Phase_8,58,9999,9999,9999,1170957380
536,22,Ticks_Phase_8,59,9999,9999,9999,1171757120
536,22,Ticks_Phase_8,60,9999,9999,9999,1172557952
536,22,Ticks_Phase_8,61,9999,9999,9999,1173357660
536,22,Ticks_Phase_8,62,9999,9999,9999,1174157376
536,22,Ticks_Phase_8,63,9999,9999,9999,1174957160
536,22,Ticks_Phase_8,64,9999,9999,9999,1175797828
536,22,Ticks_Phase_8,65,9999,9999,9999,1176597616
536,22,Ticks_Phase_8,66,9999,9999,9999,1177397356
536,22,Ticks_Phase_8,67,9999,9999,9999,1178198116
536,22,Ticks_Phase_8,68,9999,9999,9999,1179008088
536,22,Ticks_Phase_8,69,9999,9999,9999,1179818060
536,22,Ticks_Phase_8,70,9999,9999,9999,1180617848
536,22,Ticks_Phase_8,71,9999,9999,9999,1181417556
536,22,Ticks_Phase_8,72,9999,9999,9999,1182217272
536,22,Ticks_Phase_8,73,9999,9999,9999,1183018104
536,22,Ticks_Phase_8,74,9999,9999,9999,1183817840
536,22,Ticks_Phase_8,75,9999,9999,9999,1184617552
536,22,Ticks_Phase_8,76,9999,9999,9999,1185417336
536,22,Ticks_Phase_8,77,9999,9999,9999,1186218096
536,22,Ticks_Phase_8,78,9999,9999,9999,1187017812
536,22,Ticks_Phase_8,79,9999,9999,9999,1187817596
536,22,Ticks_Phase_8,80,9999,9999,9999,1188617308
536,22,Ticks_Phase_8,81,9999,9999,9999,1189377104
536,22,Ticks_Phase_8,82,9999,9999,9999,1190177864
536,22,Ticks_Phase_8,83,9999,9999,9999,1190977600
536,22,Ticks_Phase_8,84,9999,9999,9999,1191777388
536,22,Ticks_Phase_8,85,9999,9999,9999,1192577140
536,22,Ticks_Phase_8,86,9999,9999,9999,1193377856
536,22,Ticks_Phase_8,87,9999,9999,9999,1194177644
536,22,Ticks_Phase_8,88,9999,9999,9999,1194977356
536,22,Ticks_Phase_8,89,9999,9999,9999,1195777136
536,22,Ticks_Phase_8,90,9999,9999,9999,1196577892
536,22,Ticks_Phase_8,91,9999,9999,9999,1197377628
536,22,Ticks_Phase_8,92,9999,9999,9999,1198177340
536,22,Ticks_Phase_8,93,9999,9999,9999,1198977128
536,22,Ticks_Phase_8,94,9999,9999,9999,1199777888
536,22,Ticks_Phase_8,95,9999,9999,9999,1200577604
536,22,Ticks_Phase_8,96,9999,9999,9999,1201377392
536,22,Ticks_Phase_8,97,9999,9999,9999,1202097276
536,22,Ticks_Phase_8,98,9999,9999,9999,1202898032
536,22,Ticks_Phase_8,99,9999,9999,9999,1203697744
536,22,Ticks_Phase_8,100,9999,9999,9999,1204497524
536,22,Ticks_Phase_8,101,9999,9999,9999,1205297260
536,22,Ticks_Phase_8,102,9999,9999,9999,1206098020
536,22,Ticks_Phase_8,103,9999,9999,9999,1206897728
536,22,Ticks_Phase_8,104,9999,9999,9999,1207697516
536,22,Ticks_Phase_8,105,9999,9999,9999,1208497228
536,22,Ticks_Phase_8,106,9999,9999,9999,1209297984
536,22,Ticks_Phase_8,107,9999,9999,9999,1210097772
536,22,Ticks_Phase_8,108,9999,9999,9999,1210897484
536,22,Ticks_Phase_8,109,9999,9999,9999,1211697220
536,22,Ticks_Phase_8,110,9999,9999,9999,1212497980
536,22,Ticks_Phase_8,111,9999,9999,9999,1213297764
536,22,Ticks_Phase_8,112,9999,9999,9999,1214097476
536,22,Ticks_Phase_8,113,9999,9999,9999,1214897268
536,22,Ticks_Phase_8,114,9999,9999,9999,1215777848
536,22,Ticks_Phase_8,115,9999,9999,9999,1216577596
536,22,Ticks_Phase_8,116,9999,9999,9999,1217377372
536,22,Ticks_Phase_8,117,9999,9999,9999,1218177092
536,22,Ticks_Phase_8,118,9999,9999,9999,1218977848
536,22,Ticks_Phase_8,119,9999,9999,9999,1219777628
536,22,Ticks_Phase_8,120,9999,9999,9999,1220577344
536,22,Ticks_Phase_8,121,9999,9999,9999,1221377124
536,22,Ticks_Phase_8,122,9999,9999,9999,1222177892
536,22,Ticks_Phase_8,123,9999,9999,9999,1222977628
536,22,Ticks_Phase_8,124,9999,9999,9999,1223777408
536,22,Ticks_Phase_8,125,9999,9999,9999,1224577120
536,22,Ticks_Phase_8,126,9999,9999,9999,1225377884
536,22,Ticks_Phase_8,127,9999,9999,9999,1226177596
536,22,Ticks_Phase_8,128,9999,9999,9999,1226977380
536,22,Ticks_Phase_8,129,9999,9999,9999,1227777084
536,22,Ticks_Phase_8,130,9999,9999,9999,1228577876
536,22,Ticks_Phase_8,131,9999,9999,9999,1229537352
536,22,Ticks_Phase_8,132,9999,9999,9999,1230337084
536,22,Ticks_Phase_8,133,9999,9999,9999,1231137920
536,22,Ticks_Phase_8,134,9999,9999,9999,1231937656
536,22,Ticks_Phase_8,135,9999,9999,9999,1232737368
536,22,Ticks_Phase_8,136,9999,9999,9999,1233537080
536,22,Ticks_Phase_8,137,9999,9999,9999,1234337912
536,22,Ticks_Phase_8,138,9999,9999,9999,1235137620
536,22,Ticks_Phase_8,139,9999,9999,9999,1235937408
536,22,Ticks_Phase_8,140,9999,9999,9999,1236737120
536,22,Ticks_Phase_8,141,9999,9999,9999,1237537876
536,22,Ticks_Phase_8,142,9999,9999,9999,1238337612
536,22,Ticks_Phase_8,143,9999,9999,9999,1239137396
536,22,Ticks_Phase_8,144,9999,9999,9999,1239937108
536,22,Ticks_Phase_8,145,9999,9999,9999,1240737864
536,22,Ticks_Phase_8,146,9999,9999,9999,1241537656
536,22,Ticks_Phase_8,147,9999,9999,9999,1242337368
536,22,Ticks_Phase_8,148,9999,9999,9999,1243137148
536,22,Ticks_Phase_8,149,9999,9999,9999,1243937904
536,22,Ticks_Phase_8,150,9999,9999,9999,1244577888
536,22,Ticks_Phase_8,151,9999,9999,9999,1245377596
536,22,Ticks_Phase_8,152,9999,9999,9999,1246177384
536,22,Ticks_Phase_8,153,9999,9999,9999,1246977096
536,22,Ticks_Phase_8,154,9999,9999,9999,1247777852
536,22,Ticks_Phase_8,155,9999,9999,9999,1248577592
536,22,Ticks_Phase_8,156,9999,9999,9999,1249377380
536,22,Ticks_Phase_8,157,9999,9999,9999,1250177096
536,22,Ticks_Phase_8,158,9999,9999,9999,1250977852
536,22,Ticks_Phase_8,159,9999,9999,9999,1251777640
536,22,Ticks_Phase_8,160,9999,9999,9999,1252577352
536,22,Ticks_Phase_8,161,9999,9999,9999,1253377140
536,22,Ticks_Phase_8,162,9999,9999,9999,1254177896
536,22,Ticks_Phase_8,163,9999,9999,9999,1254977636
536,22,Ticks_Phase_8,164,9999,9999,9999,1255777344
536,22,Ticks_Phase_8,165,9999,9999,9999,1256577132
536,22,Ticks_Phase_8,166,9999,9999,9999,1257377888
536,22,Ticks_Phase_8,167,9999,9999,9999,1258177604
536,22,Ticks_Phase_8,168,9999,9999,9999,1258977396
536,22,Ticks_Phase_8,169,9999,9999,9999,1259777128
531,21,Ticks_Linear_5,0,5,42,127,69834304
531,21,Ticks_Linear_5,1,5,42,127,70314480
531,21,Ticks_Linear_5,2,1,48,24,70486028
531,21,Ticks_Linear_5,3,5,42,127,70793564
531,21,Ticks_Linear_5,4,1,48,22,70861552
531,21,Ticks_Linear_5,5,5,42,127,71273792
531,21,Ticks_Linear_5,6,1,48,25,71298700
531,21,Ticks_Linear_5,7,5,42,127,71754168
531,21,Ticks_Linear_5,8,1,48,27,71767624
531,21,Ticks_Linear_5,9,5,42,127,72243684
531,21,Ticks_Linear_5,10,1,48,24,72250168
531,21,Ticks_Linear_5,11,1,48,30,72726860
531,21,Ticks_Linear_5,12,5,42,127,72734016
531,21,Ticks_Linear_5,13,1,48,32,73203872
531,21,Ticks_Linear_5,14,5,42,127,73223532
531,21,Ticks_Linear_5,15,5,42,127,73714248
531,21,Ticks_Linear_5,16,1,48,29,73719016
531,21,Ticks_Linear_5,17,1,48,28,74200716
531,21,Ticks_Linear_5,18,5,42,127,74203460
531,21,Ticks_Linear_5,19,5,42,127,74704212
531,21,Ticks_Linear_5,20,1,48,26,74717140
531,21,Ticks_Linear_5,21,1,48,28,75182676
531,21,Ticks_Linear_5,22,5,42,127,75204056
531,21,Ticks_Linear_5,23,1,48,21,75697200
531,21,Ticks_Linear_5,24,5,42,127,75703604
531,21,Ticks_Linear_5,25,1,48,26,76202688
531,21,Ticks_Linear_5,26,5,42,127,76204352
531,21,Ticks_Linear_5,27,1,48,24,76687436
531,21,Ticks_Linear_5,28,5,42,127,76704200
531,21,Ticks_Linear_5,29,1,48,28,77192680
531,21,Ticks_Linear_5,30,5,42,127,77214232
531,21,Ticks_Linear_5,31,1,48,22,77715988
531,21,Ticks_Linear_5,32,5,42,127,77724340
531,21,Ticks_Linear_5,33,1,48,26,78215440
531,21,Ticks_Linear_5,34,5,42,127,78234148
531,21,Ticks_Linear_5,35,1,48,24,78724876
531,21,Ticks_Linear_5,36,5,42,127,78744112
531,21,Ticks_Linear_5,37,1,48,30,79229212
531,21,Ticks_Linear_5,38,5,42,127,79253996
531,21,Ticks_Linear_5,39,1,48,25,79731676
531,21,Ticks_Linear_5,40,5,42,127,79774212
531,21,Ticks_Linear_5,41,1,48,26,80279408
531,21,Ticks_Linear_5,42,5,42,127,80294284
531,21,Ticks_Linear_5,43,1,48,27,80776468
531,21,Ticks_Linear_5,44,5,42,127,80813376
531,21,Ticks_Linear_5,45,1,48,27,81300972
531,21,Ticks_Linear_5,46,5,42,127,81333896
531,21,Ticks_Linear_5,47,5,42,127,81853972
531,21,Ticks_Linear_5,48,1,48,28,81865476
531,21,Ticks_Linear_5,49,5,42,127,82384300
531,21,Ticks_Linear_5,50,1,48,24,82440512
531,21,Ticks_Linear_5,51,5,42,127,82913804
531,21,Ticks_Linear_5,52,1,48,23,82976680
531,21,Ticks_Linear_5,53,5,42,127,83444056
531,21,Ticks_Linear_5,54,1,48,24,83513828
531,21,Ticks_Linear_5,55,5,42,127,83973412
531,21,Ticks_Linear_5,56,1,48,27,84048716
531,21,Ticks_Linear_5,57,5,42,127,84503888
531,21,Ticks_Linear_5,58,1,48,27,84558008
531,21,Ticks_Linear_5,59,5,42,127,85043580
531,21,Ticks_Linear_5,60,1,48,25,85058452
531,21,Ticks_Linear_5,61,5,42,127,85584240
531,21,Ticks_Linear_5,62,1,48,27,85601820
531,21,Ticks_Linear_5,63,5,42,127,86124152
531,21,Ticks_Linear_5,64,1,48,27,86129892
531,21,Ticks_Linear_5,65,5,42,127,86663468
531,21,Ticks_Linear_5,66,1,48,27,86681284
531,21,Ticks_Linear_5,67,1,48,29,87192956
531,21,Ticks_Linear_5,68,5,42,127,87204224
531,21,Ticks_Linear_5,69,1,48,23,87752140
531,21,Ticks_Linear_5,70,5,42,127,87754024
531,21,Ticks_Linear_5,71,1,48,23,88289328
531,21,Ticks_Linear_5,72,5,42,127,88303976
531,21,Ticks_Linear_5,73,1,48,25,88831112
531,21,Ticks_Linear_5,74,5,42,127,88853996
531,21,Ticks_Linear_5,75,5,42,127,89403880
531,21,Ticks_Linear_5,76,1,48,26,89427220
531,21,Ticks_Linear_5,77,5,42,127,89953604
531,21,Ticks_Linear_5,78,1,48,27,89974100
531,21,Ticks_Linear_5,79,5,42,127,90513908
531,21,Ticks_Linear_5,80,1,48,26,90543544
531,21,Ticks_Linear_5,81,5,42,127,91073892
531,21,Ticks_Linear_5,82,1,48,25,91109736
531,21,Ticks_Linear_5,83,5,42,127,91634028
531,21,Ticks_Linear_5,84,1,48,24,91659608
531,21,Ticks_Linear_5,85,5,42,127,92194160
531,21,Ticks_Linear_5,86,1,48,27,92208884
531,21,Ticks_Linear_5,87,5,42,127,92754440
531,21,Ticks_Linear_5,88,1,48,24,92758608
531,21,Ticks_Linear_5,89,5,42,127,93323932
531,21,Ticks_Linear_5,90,1,48,23,93340480
531,21,Ticks_Linear_5,91,1,48,19,93877532
531,21,Ticks_Linear_5,92,5,42,127,93893972
531,21,Ticks_Linear_5,93,1,48,24,94435940
531,21,Ticks_Linear_5,94,5,42,127,94464440
531,21,Ticks_Linear_5,95,5,42,127,95033864
531,21,Ticks_Linear_5,96,1,48,26,95042684
531,21,Ticks_Linear_5,97,5,42,127,95604036
531,21,Ticks_Linear_5,98,1,48,27,95641712
531,21,Ticks_Linear_5,99,5,42,127,96183588
531,21,Ticks_Linear_5,100,1,48,20,96189848
531,21,Ticks_Linear_5,101,5,42,127,96764240
531,21,Ticks_Linear_5,102,1,48,22,96772236
531,21,Ticks_Linear_5,103,5,42,127,97343916
531,21,Ticks_Linear_5,104,1,48,25,97381104
531,21,Ticks_Linear_5,105,5,42,127,97923672
531,21,Ticks_Linear_5,106,1,48,27,97930832
531,21,Ticks_Linear_5,107,5,42,127,98504052
531,21,Ticks_Linear_5,108,1,48,22,98517952
531,21,Ticks_Linear_5,109,5,42,127,99093840
531,21,Ticks_Linear_5,110,1,48,21,99096960
531,21,Ticks_Linear_5,111,5,42,127,99683632
531,21,Ticks_Linear_5,112,1,48,25,99684596
531,21,Ticks_Linear_5,113,5,42,127,100273892
531,21,Ticks_Linear_5,114,1,48,24,100296184
531,21,Ticks_Linear_5,115,5,42,127,100864652
531,21,Ticks_Linear_5,116,1,48,30,100890984
531,21,Ticks_Linear_5,117,5,42,127,101454068
531,21,Ticks_Linear_5,118,1,48,25,101520188
531,21,Ticks_Linear_5,119,5,42,127,102054516
531,21,Ticks_Linear_5,120,1,48,28,102075908
531,21,Ticks_Linear_5,121,5,42,127,102654340
531,21,Ticks_Linear_5,122,1,48,25,102664280
531,21,Ticks_Linear_5,123,5,42,127,103254536
531,21,Ticks_Linear_5,124,1,48,24,103278472
531,21,Ticks_Linear_5,125,5,42,127,103853564
531,21,Ticks_Linear_5,126,1,48,28,103899588
531,21,Ticks_Linear_5,127,5,42,127,104453612
531,21,Ticks_Linear_5,128,1,48,23,104488780
531,21,Ticks_Linear_5,129,5,42,127,105063772
531,21,Ticks_Linear_5,130,1,48,24,105074980
531,21,Ticks_Linear_5,131,1,48,28,105662528
531,21,Ticks_Linear_5,132,5,42,127,105674020
531,21,Ticks_Linear_5,133,1,48,30,106270132
531,21,Ticks_Linear_5,134,5,42,127,106284404
531,21,Ticks_Linear_5,135,5,42,127,106893820
531,21,Ticks_Linear_5,136,1,48,27,106897336
531,21,Ticks_Linear_5,137,5,42,127,107503856
531,21,Ticks_Linear_5,138,1,48,24,107536632
531,21,Ticks_Linear_5,139,5,42,127,108123448
531,21,Ticks_Linear_5,140,1,48,28,108142604
531,21,Ticks_Linear_5,141,5,42,127,108744340
531,21,Ticks_Linear_5,142,1,48,29,108772104
531,21,Ticks_Linear_5,143,5,42,127,109363560
531,21,Ticks_Linear_5,144,1,48,30,109379480
531,21,Ticks_Linear_5,145,5,42,127,109984300
531,21,Ticks_Linear_5,146,1,48,26,110010708
531,21,Ticks_Linear_5,147,5,42,127,110603600
531,21,Ticks_Linear_5,148,1,48,23,110624320
531,21,Ticks_Linear_5,149,1,48,29,111209208
531,21,Ticks_Linear_5,150,5,42,127,111234416
531,21,Ticks_Linear_5,151,1,48,24,111852128
531,21,Ticks_Linear_5,152,5,42,127,111874480
531,21,Ticks_Linear_5,153,1,48,28,112488716
531,21,Ticks_Linear_5,154,5,42,127,112514444
531,21,Ticks_Linear_5,155,5,42,127,113154292
531,21,Ticks_Linear_5,156,1,48,26,113191848
531,21,Ticks_Linear_5,157,5,42,127,113794404
531,21,Ticks_Linear_5,158,1,48,29,113920804
531,21,Ticks_Linear_5,159,5,42,127,114434392
531,21,Ticks_Linear_5,160,1,48,27,114484692
531,21,Ticks_Linear_5,161,5,42,127,115074504
531,21,Ticks_Linear_5,162,1,48,24,115097268
531,21,Ticks_Linear_5,163,1,48,32,115712224
531,21,Ticks_Linear_5,164,5,42,127,115714336
531,21,Ticks_Linear_5,165,5,42,127,116354308
531,21,Ticks_Linear_5,166,1,48,30,116385456
531,21,Ticks_Linear_5,167,5,42,127,116994372
531,21,Ticks_Linear_5,168,1,48,27,117024376
531,21,Ticks_Linear_5,169,1,48,23,117642152
531,21,Ticks_Linear_5,170,5,42,127,117653820
531,21,Ticks_Linear_5,171,5,42,127,118303976
531,21,Ticks_Linear_5,172,1,48,26,118305988
531,21,Ticks_Linear_5,173,5,42,127,118954296
531,21,Ticks_Linear_5,174,1,48,19,118998308
531,21,Ticks_Linear_5,175,5,42,127,119603472
531,21,Ticks_Linear_5,176,1,48,24,119632360
531,21,Ticks_Linear_5,177,5,42,127,120254016
531,21,Ticks_Linear_5,178,1,48,21,120255660
531,21,Ticks_Linear_5,179,5,42,127,120914200
531,21,Ticks_Linear_5,180,1,48,20,120915164
531,21,Ticks_Linear_5,181,1,48,27,121559604
531,21,Ticks_Linear_5,182,5,42,127,121574028
531,21,Ticks_Linear_5,183,1,48,29,122219640
531,21,Ticks_Linear_5,184,5,42,127,122234212
531,21,Ticks_Linear_5,185,1,48,28,122876848
531,21,Ticks_Linear_5,186,5,42,127,122893596
531,21,Ticks_Linear_5,187,1,48,26,123526852
531,21,Ticks_Linear_5,188,5,42,127,123554104
531,21,Ticks_Linear_5,189,1,48,22,124217016
531,21,Ticks_Linear_5,190,5,42,127,124224020
531,21,Ticks_Linear_5,191,1,48,27,124880288
531,21,Ticks_Linear_5,192,5,42,127,124893440
531,21,Ticks_Linear_5,193,1,48,29,125529540
531,21,Ticks_Linear_5,194,5,42,127,125564256
531,21,Ticks_Linear_5,195,1,48,24,126219480
531,21,Ticks_Linear_5,196,5,42,127,126233976
531,21,Ticks_Linear_5,197,5,42,127,126903924
531,21,Ticks_Linear_5,198,1,48,27,126922252
531,21,Ticks_Linear_5,199,5,42,127,127583952
531,21,Ticks_Linear_5,200,1,48,23,127585744
531,21,Ticks_Linear_5,201,1,48,26,128245684
531,21,Ticks_Linear_5,202,5,42,127,128263556
531,21,Ticks_Linear_5,203,1,48,27,128929036
531,21,Ticks_Linear_5,204,5,42,127,128943680
531,21,Ticks_Linear_5,205,5,42,127,129624536
531,21,Ticks_Linear_5,206,1,48,28,129656412
531,21,Ticks_Linear_5,207,5,42,127,130313728
531,21,Ticks_Linear_5,208,1,48,24,130330996
531,21,Ticks_Linear_5,209,1,48,24,130979800
531,21,Ticks_Linear_5,210,5,42,127,131003736
531,21,Ticks_Linear_5,211,5,42,127,131693880
531,21,Ticks_Linear_5,212,1,48,23,131702324
531,21,Ticks_Linear_5,213,1,48,22,132348420
531,21,Ticks_Linear_5,214,5,42,127,132384112
531,21,Ticks_Linear_5,215,1,48,27,133061268
531,21,Ticks_Linear_5,216,5,42,127,133074272
531,21,Ticks_Linear_5,217,1,48,25,133762004
531,21,Ticks_Linear_5,218,5,42,127,133763440
531,21,Ticks_Linear_5,219,5,42,127,134463792
531,21,Ticks_Linear_5,220,1,48,29,134475448
531,21,Ticks_Linear_5,221,5,42,127,135164216
531,21,Ticks_Linear_5,222,1,48,30,135165552
531,21,Ticks_Linear_5,223,5,42,127,135863888
531,21,Ticks_Linear_5,224,1,48,27,135892920
531,21,Ticks_Linear_5,225,1,48,31,136550152
531,21,Ticks_Linear_5,226,5,42,127,136564204
531,21,Ticks_Linear_5,227,1,48,32,137212996
531,21,Ticks_Linear_5,228,5,42,127,137263504
531,21,Ticks_Linear_5,229,5,42,127,137974044
531,21,Ticks_Linear_5,230,1,48,28,137980900
531,21,Ticks_Linear_5,231,5,42,127,138683676
531,21,Ticks_Linear_5,232,1,48,30,138715924
531,21,Ticks_Linear_5,233,5,42,127,139394556
531,21,Ticks_Linear_5,234,1,48,28,139416652
531,21,Ticks_Linear_5,235,5,42,127,140114524
531,21,Ticks_Linear_5,236,1,48,27,140115788
531,21,Ticks_Linear_5,237,1,48,26,140823712
531,21,Ticks_Linear_5,238,5,42,127,140825272
531,21,Ticks_Linear_5,239,5,42,127,141543756
531,21,Ticks_Linear_5,240,1,48,27,141544796
531,21,Ticks_Linear_5,241,5,42,127,142263724
531,21,Ticks_Linear_5,242,1,48,27,142291620
531,21,Ticks_Linear_5,243,1,48,33,142969384
531,21,Ticks_Linear_5,244,5,42,127,142983660
531,21,Ticks_Linear_5,245,1,48,23,143704904
531,21,Ticks_Linear_5,246,5,42,127,143706092
531,21,Ticks_Linear_5,247,5,42,127,144433416
531,21,Ticks_Linear_5,248,1,48,23,144453608
531,21,Ticks_Linear_5,249,1,48,27,145159768
531,21,Ticks_Linear_5,250,5,42,127,145163636
531,21,Ticks_Linear_5,251,5,42,127,145893648
531,21,Ticks_Linear_5,252,1,48,21,145894984
531,21,Ticks_Linear_5,253,1,48,35,146620224
531,21,Ticks_Linear_5,254,5,42,127,146623940
531,21,Ticks_Linear_5,255,5,42,127,147353952
531,21,Ticks_Linear_5,256,1,48,31,147371756
531,21,Ticks_Linear_5,257,5,42,127,148084376
531,21,Ticks_Linear_5,258,1,48,25,148754372
531,21,Ticks_Linear_5,259,5,42,127,148824508
531,21,Ticks_Linear_5,260,1,48,29,149501368
531,21,Ticks_Linear_5,261,5,42,127,149573980
531,21,Ticks_Linear_5,262,1,48,33,150314400
531,21,Ticks_Linear_5,263,5,42,127,150315660
531,21,Ticks_Linear_5,264,1,48,27,151030800
531,21,Ticks_Linear_5,265,5,42,127,151053608
531,21,Ticks_Linear_5,266,1,48,21,151792208
531,21,Ticks_Linear_5,267,5,42,127,151793948
531,21,Ticks_Linear_5,268,1,48,16,152525556
531,21,Ticks_Linear_5,269,5,42,127,152543572
531,21,Ticks_Linear_5,270,1,48,26,153279148
531,21,Ticks_Linear_5,271,5,42,127,153294244
531,21,Ticks_Linear_5,272,5,42,127,154043728
531,21,Ticks_Linear_5,273,1,48,30,154049460
531,21,Ticks_Linear_5,274,5,42,127,154794324
531,21,Ticks_Linear_5,275,1,48,27,154808600
531,21,Ticks_Linear_5,276,5,42,127,155543872
531,21,Ticks_Linear_5,277,1,48,27,155571252
531,21,Ticks_Linear_5,278,1,48,28,156253884
531,21,Ticks_Linear_5,279,5,42,127,156303748
531,21,Ticks_Linear_5,280,1,48,35,157059520
531,21,Ticks_Linear_5,281,5,42,127,157063756
531,21,Ticks_Linear_5,282,1,48,26,157818428
531,21,Ticks_Linear_5,283,5,42,127,157824312
531,21,Ticks_Linear_5,284,5,42,127,158584204
531,21,Ticks_Linear_5,285,1,48,26,158588888
531,21,Ticks_Linear_5,286,1,48,29,159329356
531,21,Ticks_Linear_5,287,5,42,127,159344228
531,21,Ticks_Linear_5,288,1,48,30,160096128
531,21,Ticks_Linear_5,289,5,42,127,160113996
531,21,Ticks_Linear_5,290,5,42,127,160884068
531,21,Ticks_Linear_5,291,1,48,24,160895276
531,21,Ticks_Linear_5,292,5,42,127,161654136
531,21,Ticks_Linear_5,293,1,48,27,161673364
531,21,Ticks_Linear_5,294,5,42,127,162424052
531,21,Ticks_Linear_5,295,1,48,26,162456708
531,21,Ticks_Linear_5,296,5,42,127,163194196
531,21,Ticks_Linear_5,297,1,48,32,163195832
531,21,Ticks_Linear_5,298,5,42,127,163973404
531,21,Ticks_Linear_5,299,1,48,29,163974368
531,21,Ticks_Linear_5,300,5,42,127,164753756
531,21,Ticks_Linear_5,301,1,48,26,164758896
531,21,Ticks_Linear_5,302,5,42,127,165534084
531,21,Ticks_Linear_5,303,1,48,27,165546708
531,21,Ticks_Linear_5,304,1,48,32,166289868
531,21,Ticks_Linear_5,305,5,42,127,166314252
531,21,Ticks_Linear_5,306,5,42,127,167093836
531,21,Ticks_Linear_5,307,1,48,27,167141600
531,21,Ticks_Linear_5,308,5,42,127,167884124
531,21,Ticks_Linear_5,309,1,48,24,167915776
531,21,Ticks_Linear_5,310,5,42,127,168673812
531,21,Ticks_Linear_5,311,1,48,25,168691844
531,21,Ticks_Linear_5,312,5,42,127,169464176
531,21,Ticks_Linear_5,313,1,48,26,169475312
531,21,Ticks_Linear_5,314,5,42,127,170253716
531,21,Ticks_Linear_5,315,1,48,24,170273240
531,21,Ticks_Linear_5,316,5,42,127,171044152
531,21,Ticks_Linear_5,317,1,48,17,171077004
531,21,Ticks_Linear_5,318,5,42,127,171844100
531,21,Ticks_Linear_5,319,1,48,29,171860992
531,21,Ticks_Linear_5,320,1,48,27,172642232
531,21,Ticks_Linear_5,321,5,42,127,172643740
531,21,Ticks_Linear_5,322,1,48,19,173442496
531,21,Ticks_Linear_5,323,5,42,127,173443912
531,21,Ticks_Linear_5,324,1,48,29,174206524
531,21,Ticks_Linear_5,325,5,42,127,174244184
531,21,Ticks_Linear_5,326,5,42,127,175044068
531,21,Ticks_Linear_5,327,1,48,32,175071684
531,21,Ticks_Linear_5,328,5,42,127,175853900
531,21,Ticks_Linear_5,329,1,48,26,175869300
531,21,Ticks_Linear_5,330,1,48,23,176652536
531,21,Ticks_Linear_5,331,5,42,127,176663876
531,21,Ticks_Linear_5,332,1,48,28,177466176
531,21,Ticks_Linear_5,333,5,42,127,177473860
531,21,Ticks_Linear_5,334,5,42,127,178283852
531,21,Ticks_Linear_5,335,1,48,27,178289584
531,21,Ticks_Linear_5,336,1,48,19,179084148
531,21,Ticks_Linear_5,337,5,42,127,179093776
531,21,Ticks_Linear_5,0,9999,9999,9999,69831784
531,21,Ticks_Linear_5,1,9999,9999,9999,70312032
531,21,Ticks_Linear_5,2,9999,9999,9999,70791264
531,21,Ticks_Linear_5,3,9999,9999,9999,71271492
531,21,Ticks_Linear_5,4,9999,9999,9999,71751792
531,21,Ticks_Linear_5,5,9999,9999,9999,72241236
531,21,Ticks_Linear_5,6,9999,9999,9999,72731716
531,21,Ticks_Linear_5,7,9999,9999,9999,73221232
531,21,Ticks_Linear_5,8,9999,9999,9999,73711728
531,21,Ticks_Linear_5,9,9999,9999,9999,74201160
531,21,Ticks_Linear_5,10,9999,9999,9999,74701916
531,21,Ticks_Linear_5,11,9999,9999,9999,75201608
531,21,Ticks_Linear_5,12,9999,9999,9999,75701308
531,21,Ticks_Linear_5,13,9999,9999,9999,76202068
531,21,Ticks_Linear_5,14,9999,9999,9999,76701752
531,21,Ticks_Linear_5,15,9999,9999,9999,77211712
531,21,Ticks_Linear_5,16,9999,9999,9999,77721668
531,21,Ticks_Linear_5,17,9999,9999,9999,78231628
531,21,Ticks_Linear_5,18,9999,9999,9999,78741588
531,21,Ticks_Linear_5,19,9999,9999,9999,79251548
531,21,Ticks_Linear_5,20,9999,9999,9999,79771764
531,21,Ticks_Linear_5,21,9999,9999,9999,80291912
531,21,Ticks_Linear_5,22,9999,9999,9999,80811080
531,21,Ticks_Linear_5,23,9999,9999,9999,81331296
531,21,Ticks_Linear_5,24,9999,9999,9999,81851448
531,21,Ticks_Linear_5,25,9999,9999,9999,82381924
531,21,Ticks_Linear_5,26,9999,9999,9999,82911356
531,21,Ticks_Linear_5,27,9999,9999,9999,83441760
531,21,Ticks_Linear_5,28,9999,9999,9999,83971188
531,21,Ticks_Linear_5,29,9999,9999,9999,84501592
531,21,Ticks_Linear_5,30,9999,9999,9999,85041208
531,21,Ticks_Linear_5,31,9999,9999,9999,85581940
531,21,Ticks_Linear_5,32,9999,9999,9999,86121556
531,21,Ticks_Linear_5,33,9999,9999,9999,86661244
531,21,Ticks_Linear_5,34,9999,9999,9999,87201852
531,21,Ticks_Linear_5,35,9999,9999,9999,87751752
531,21,Ticks_Linear_5,36,9999,9999,9999,88301676
531,21,Ticks_Linear_5,37,9999,9999,9999,88851548
531,21,Ticks_Linear_5,38,9999,9999,9999,89401428
531,21,Ticks_Linear_5,39,9999,9999,9999,89951304
531,21,Ticks_Linear_5,40,9999,9999,9999,90511444
531,21,Ticks_Linear_5,41,9999,9999,9999,91071596
531,21,Ticks_Linear_5,42,9999,9999,9999,91631728
531,21,Ticks_Linear_5,43,9999,9999,9999,92191860
531,21,Ticks_Linear_5,44,9999,9999,9999,92751992
531,21,Ticks_Linear_5,45,9999,9999,9999,93321336
531,21,Ticks_Linear_5,46,9999,9999,9999,93891676
531,21,Ticks_Linear_5,47,9999,9999,9999,94462064
531,21,Ticks_Linear_5,48,9999,9999,9999,95031416
531,21,Ticks_Linear_5,49,9999,9999,9999,95601736
531,21,Ticks_Linear_5,50,9999,9999,9999,96181364
531,21,Ticks_Linear_5,51,9999,9999,9999,96761940
531,21,Ticks_Linear_5,52,9999,9999,9999,97341544
531,21,Ticks_Linear_5,53,9999,9999,9999,97921148
531,21,Ticks_Linear_5,54,9999,9999,9999,98501752
531,21,Ticks_Linear_5,55,9999,9999,9999,99091544
531,21,Ticks_Linear_5,56,9999,9999,9999,99681408
531,21,Ticks_Linear_5,57,9999,9999,9999,100271220
531,21,Ticks_Linear_5,58,9999,9999,9999,100862056
531,21,Ticks_Linear_5,59,9999,9999,9999,101451844
531,21,Ticks_Linear_5,60,9999,9999,9999,102051920
531,21,Ticks_Linear_5,61,9999,9999,9999,102651968
531,21,Ticks_Linear_5,62,9999,9999,9999,103252088
531,21,Ticks_Linear_5,63,9999,9999,9999,103851116
531,21,Ticks_Linear_5,64,9999,9999,9999,104451164
531,21,Ticks_Linear_5,65,9999,9999,9999,105061472
531,21,Ticks_Linear_5,66,9999,9999,9999,105671796
531,21,Ticks_Linear_5,67,9999,9999,9999,106282104
531,21,Ticks_Linear_5,68,9999,9999,9999,106891372
531,21,Ticks_Linear_5,69,9999,9999,9999,107501632
531,21,Ticks_Linear_5,70,9999,9999,9999,108121152
531,21,Ticks_Linear_5,71,9999,9999,9999,108741744
531,21,Ticks_Linear_5,72,9999,9999,9999,109361264
531,21,Ticks_Linear_5,73,9999,9999,9999,109981780
531,21,Ticks_Linear_5,74,9999,9999,9999,110601300
531,21,Ticks_Linear_5,75,9999,9999,9999,111232120
531,21,Ticks_Linear_5,76,9999,9999,9999,111872108
531,21,Ticks_Linear_5,77,9999,9999,9999,112512072
531,21,Ticks_Linear_5,78,9999,9999,9999,113152064
531,21,Ticks_Linear_5,79,9999,9999,9999,113792104
531,21,Ticks_Linear_5,80,9999,9999,9999,114432092
531,21,Ticks_Linear_5,81,9999,9999,9999,115072056
531,21,Ticks_Linear_5,82,9999,9999,9999,115712076
531,21,Ticks_Linear_5,83,9999,9999,9999,116352084
531,21,Ticks_Linear_5,84,9999,9999,9999,116992072
531,21,Ticks_Linear_5,85,9999,9999,9999,117651524
531,21,Ticks_Linear_5,86,9999,9999,9999,118301752
531,21,Ticks_Linear_5,87,9999,9999,9999,118952000
531,21,Ticks_Linear_5,88,9999,9999,9999,119601248
531,21,Ticks_Linear_5,89,9999,9999,9999,120251496
531,21,Ticks_Linear_5,90,9999,9999,9999,120911976
531,21,Ticks_Linear_5,91,9999,9999,9999,121571432
531,21,Ticks_Linear_5,92,9999,9999,9999,122231912
531,21,Ticks_Linear_5,93,9999,9999,9999,122891372
531,21,Ticks_Linear_5,94,9999,9999,9999,123551804
531,21,Ticks_Linear_5,95,9999,9999,9999,124221500
531,21,Ticks_Linear_5,96,9999,9999,9999,124891216
531,21,Ticks_Linear_5,97,9999,9999,9999,125561960
531,21,Ticks_Linear_5,98,9999,9999,9999,126231676
531,21,Ticks_Linear_5,99,9999,9999,9999,126901328
531,21,Ticks_Linear_5,100,9999,9999,9999,127581284
531,21,Ticks_Linear_5,101,9999,9999,9999,128261180
531,21,Ticks_Linear_5,102,9999,9999,9999,128941160
531,21,Ticks_Linear_5,103,9999,9999,9999,129622092
531,21,Ticks_Linear_5,104,9999,9999,9999,130311280
531,21,Ticks_Linear_5,105,9999,9999,9999,131001440
531,21,Ticks_Linear_5,106,9999,9999,9999,131691584
531,21,Ticks_Linear_5,107,9999,9999,9999,132381812
531,21,Ticks_Linear_5,108,9999,9999,9999,133071976
531,21,Ticks_Linear_5,109,9999,9999,9999,133761148
531,21,Ticks_Linear_5,110,9999,9999,9999,134461496
531,21,Ticks_Linear_5,111,9999,9999,9999,135161916
531,21,Ticks_Linear_5,112,9999,9999,9999,135861364
531,21,Ticks_Linear_5,113,9999,9999,9999,136561756
531,21,Ticks_Linear_5,114,9999,9999,9999,137261132
531,21,Ticks_Linear_5,115,9999,9999,9999,137971820
531,21,Ticks_Linear_5,116,9999,9999,9999,138681452
531,21,Ticks_Linear_5,117,9999,9999,9999,139392108
531,21,Ticks_Linear_5,118,9999,9999,9999,140111928
531,21,Ticks_Linear_5,119,9999,9999,9999,140821560
531,21,Ticks_Linear_5,120,9999,9999,9999,141541456
531,21,Ticks_Linear_5,121,9999,9999,9999,142261348
531,21,Ticks_Linear_5,122,9999,9999,9999,142981212
531,21,Ticks_Linear_5,123,9999,9999,9999,143702084
531,21,Ticks_Linear_5,124,9999,9999,9999,144431192
531,21,Ticks_Linear_5,125,9999,9999,9999,145161336
531,21,Ticks_Linear_5,126,9999,9999,9999,145891424
531,21,Ticks_Linear_5,127,9999,9999,9999,146621496
531,21,Ticks_Linear_5,128,9999,9999,9999,147351652
531,21,Ticks_Linear_5,129,9999,9999,9999,148081780
531,21,Ticks_Linear_5,130,9999,9999,9999,148822136
531,21,Ticks_Linear_5,131,9999,9999,9999,149571684
531,21,Ticks_Linear_5,132,9999,9999,9999,150312028
531,21,Ticks_Linear_5,133,9999,9999,9999,151051384
531,21,Ticks_Linear_5,134,9999,9999,9999,151791672
531,21,Ticks_Linear_5,135,9999,9999,9999,152541276
531,21,Ticks_Linear_5,136,9999,9999,9999,153291872
531,21,Ticks_Linear_5,137,9999,9999,9999,154041428
531,21,Ticks_Linear_5,138,9999,9999,9999,154792024
531,21,Ticks_Linear_5,139,9999,9999,9999,155541576
531,21,Ticks_Linear_5,140,9999,9999,9999,156301376
531,21,Ticks_Linear_5,141,9999,9999,9999,157061236
531,21,Ticks_Linear_5,142,9999,9999,9999,157822016
531,21,Ticks_Linear_5,143,9999,9999,9999,158581828
531,21,Ticks_Linear_5,144,9999,9999,9999,159341632
531,21,Ticks_Linear_5,145,9999,9999,9999,160111696
531,21,Ticks_Linear_5,146,9999,9999,9999,160881768
531,21,Ticks_Linear_5,147,9999,9999,9999,161651836
531,21,Ticks_Linear_5,148,9999,9999,9999,162421828
531,21,Ticks_Linear_5,149,9999,9999,9999,163191896
531,21,Ticks_Linear_5,150,9999,9999,9999,163971180
531,21,Ticks_Linear_5,151,9999,9999,9999,164751456
531,21,Ticks_Linear_5,152,9999,9999,9999,165531708
531,21,Ticks_Linear_5,153,9999,9999,9999,166312028
531,21,Ticks_Linear_5,154,9999,9999,9999,167091316
531,21,Ticks_Linear_5,155,9999,9999,9999,167881828
531,21,Ticks_Linear_5,156,9999,9999,9999,168671292
531,21,Ticks_Linear_5,157,9999,9999,9999,169461876
531,21,Ticks_Linear_5,158,9999,9999,9999,170251344
531,21,Ticks_Linear_5,159,9999,9999,9999,171041856
531,21,Ticks_Linear_5,160,9999,9999,9999,171841652
531,21,Ticks_Linear_5,161,9999,9999,9999,172641376
531,21,Ticks_Linear_5,162,9999,9999,9999,173441100
531,21,Ticks_Linear_5,163,9999,9999,9999,174241888
531,21,Ticks_Linear_5,164,9999,9999,9999,175041620
531,21,Ticks_Linear_5,165,9999,9999,9999,175851604
531,21,Ticks_Linear_5,166,9999,9999,9999,176661580
531,21,Ticks_Linear_5,167,9999,9999,9999,177471564
531,21,Ticks_Linear_5,168,9999,9999,9999,178281552
531,21,Ticks_Linear_5,169,9999,9999,9999,179091552
532,20,Ticks_Linear_8,0,5,42,127,190550372
532,20,Ticks_Linear_8,1,1,48,43,191290760
532,20,Ticks_Linear_8,2,5,42,127,191369732
532,20,Ticks_Linear_8,3,1,48,29,192095992
532,20,Ticks_Linear_8,4,5,42,127,192189812
532,20,Ticks_Linear_8,5,1,48,29,193004560
532,20,Ticks_Linear_8,6,5,42,127,193010216
532,20,Ticks_Linear_8,7,1,48,35,193827196
532,20,Ticks_Linear_8,8,5,42,127,193830312
532,20,Ticks_Linear_8,9,5,42,127,194640228
532,20,Ticks_Linear_8,10,1,48,30,194647548
532,20,Ticks_Linear_8,11,5,42,127,195450212
532,20,Ticks_Linear_8,12,1,48,32,195466156
532,20,Ticks_Linear_8,13,1,48,28,196247212
532,20,Ticks_Linear_8,14,5,42,127,196260216
532,20,Ticks_Linear_8,15,1,48,26,197058704
532,20,Ticks_Linear_8,16,5,42,127,197070124
532,20,Ticks_Linear_8,17,1,48,28,197851608
532,20,Ticks_Linear_8,18,5,42,127,197880252
532,20,Ticks_Linear_8,19,1,48,26,198667960
532,20,Ticks_Linear_8,20,5,42,127,198679976
532,20,Ticks_Linear_8,21,5,42,127,199479560
532,20,Ticks_Linear_8,22,1,48,24,199492640
532,20,Ticks_Linear_8,23,5,42,127,200280328
532,20,Ticks_Linear_8,24,1,48,26,200299404
532,20,Ticks_Linear_8,25,1,48,30,201084644
532,20,Ticks_Linear_8,26,5,42,127,201090532
532,20,Ticks_Linear_8,27,1,48,28,201888296
532,20,Ticks_Linear_8,28,5,42,127,201900316
532,20,Ticks_Linear_8,29,5,42,127,202689936
532,20,Ticks_Linear_8,30,1,48,25,202691348
532,20,Ticks_Linear_8,31,5,42,127,203480376
532,20,Ticks_Linear_8,32,1,48,26,203533816
532,20,Ticks_Linear_8,33,5,42,127,204280248
532,20,Ticks_Linear_8,34,1,48,27,204293476
532,20,Ticks_Linear_8,35,1,48,24,205056032
532,20,Ticks_Linear_8,36,5,42,127,205069632
532,20,Ticks_Linear_8,37,1,48,24,205843776
532,20,Ticks_Linear_8,38,5,42,127,205860072
532,20,Ticks_Linear_8,39,5,42,127,206639580
532,20,Ticks_Linear_8,40,1,48,32,206672208
532,20,Ticks_Linear_8,41,5,42,127,207419832
532,20,Ticks_Linear_8,42,1,48,29,207423624
532,20,Ticks_Linear_8,43,5,42,127,208200012
532,20,Ticks_Linear_8,44,1,48,27,208218860
532,20,Ticks_Linear_8,45,5,42,127,208980340
532,20,Ticks_Linear_8,46,1,48,26,208987736
532,20,Ticks_Linear_8,47,5,42,127,209759544
532,20,Ticks_Linear_8,48,1,48,30,209777332
532,20,Ticks_Linear_8,49,5,42,127,210529836
532,20,Ticks_Linear_8,50,1,48,25,210576256
532,20,Ticks_Linear_8,51,5,42,127,211299828
532,20,Ticks_Linear_8,52,1,48,24,211304816
532,20,Ticks_Linear_8,53,1,48,32,212064452
532,20,Ticks_Linear_8,54,5,42,127,212069740
532,20,Ticks_Linear_8,55,5,42,127,212839736
532,20,Ticks_Linear_8,56,1,48,29,212866148
532,20,Ticks_Linear_8,57,5,42,127,213609808
532,20,Ticks_Linear_8,58,1,48,29,213618028
532,20,Ticks_Linear_8,59,1,48,35,214369764
532,20,Ticks_Linear_8,60,5,42,127,214371100
532,20,Ticks_Linear_8,61,5,42,127,215129500
532,20,Ticks_Linear_8,62,1,48,25,215191428
532,20,Ticks_Linear_8,63,5,42,127,215890428
532,20,Ticks_Linear_8,64,1,48,26,215901564
532,20,Ticks_Linear_8,65,1,48,27,216633788
532,20,Ticks_Linear_8,66,5,42,127,216650084
532,20,Ticks_Linear_8,67,5,42,127,217410048
532,20,Ticks_Linear_8,68,1,48,24,217439008
532,20,Ticks_Linear_8,69,5,42,127,218159748
532,20,Ticks_Linear_8,70,1,48,26,218174992
532,20,Ticks_Linear_8,71,5,42,127,218910192
532,20,Ticks_Linear_8,72,1,48,30,218949412
532,20,Ticks_Linear_8,73,5,42,127,219659592
532,20,Ticks_Linear_8,74,1,48,28,219676112
532,20,Ticks_Linear_8,75,5,42,127,220410336
532,20,Ticks_Linear_8,76,1,48,28,220411304
532,20,Ticks_Linear_8,77,5,42,127,221159740
532,20,Ticks_Linear_8,78,1,48,26,221218060
532,20,Ticks_Linear_8,79,5,42,127,221900228
532,20,Ticks_Linear_8,80,1,48,28,221943336
532,20,Ticks_Linear_8,81,5,42,127,222639444
532,20,Ticks_Linear_8,82,1,48,29,222660092
532,20,Ticks_Linear_8,83,5,42,127,223379708
532,20,Ticks_Linear_8,84,1,48,27,223450380
532,20,Ticks_Linear_8,85,5,42,127,224120316
532,20,Ticks_Linear_8,86,1,48,28,224152444
532,20,Ticks_Linear_8,87,1,48,30,224846520
532,20,Ticks_Linear_8,88,5,42,127,224859604
532,20,Ticks_Linear_8,89,5,42,127,225589616
532,20,Ticks_Linear_8,90,1,48,27,225628312
532,20,Ticks_Linear_8,91,5,42,127,226319840
532,20,Ticks_Linear_8,92,1,48,26,226355456
532,20,Ticks_Linear_8,93,5,42,127,227049772
532,20,Ticks_Linear_8,94,1,48,32,227065020
532,20,Ticks_Linear_8,95,5,42,127,227779996
532,20,Ticks_Linear_8,96,1,48,23,227831272
532,20,Ticks_Linear_8,97,5,42,127,228510224
532,20,Ticks_Linear_8,98,1,48,27,228542776
532,20,Ticks_Linear_8,99,5,42,127,229230092
532,20,Ticks_Linear_8,100,1,48,26,229247956
532,20,Ticks_Linear_8,101,5,42,127,229949764
532,20,Ticks_Linear_8,102,1,48,29,229983208
532,20,Ticks_Linear_8,103,5,42,127,230669656
532,20,Ticks_Linear_8,104,1,48,26,230682736
532,20,Ticks_Linear_8,105,5,42,127,231389552
532,20,Ticks_Linear_8,106,1,48,22,231428024
532,20,Ticks_Linear_8,107,5,42,127,232109296
532,20,Ticks_Linear_8,108,1,48,27,232129416
532,20,Ticks_Linear_8,109,5,42,127,232820176
532,20,Ticks_Linear_8,110,1,48,25,232842420
532,20,Ticks_Linear_8,111,5,42,127,233529588
532,20,Ticks_Linear_8,112,1,48,27,233550160
532,20,Ticks_Linear_8,113,5,42,127,234240344
532,20,Ticks_Linear_8,114,1,48,23,234263084
532,20,Ticks_Linear_8,115,5,42,127,234950056
532,20,Ticks_Linear_8,116,1,48,29,235003196
532,20,Ticks_Linear_8,117,5,42,127,235659616
532,20,Ticks_Linear_8,118,1,48,29,235703620
532,20,Ticks_Linear_8,119,5,42,127,236360088
532,20,Ticks_Linear_8,120,1,48,29,236382152
532,20,Ticks_Linear_8,121,5,42,127,237059464
532,20,Ticks_Linear_8,122,1,48,32,237125256
532,20,Ticks_Linear_8,123,5,42,127,237759960
532,20,Ticks_Linear_8,124,1,48,27,237805084
532,20,Ticks_Linear_8,125,1,48,28,238441064
532,20,Ticks_Linear_8,126,5,42,127,238460348
532,20,Ticks_Linear_8,127,1,48,34,239157464
532,20,Ticks_Linear_8,128,5,42,127,239159576
532,20,Ticks_Linear_8,129,5,42,127,239850192
532,20,Ticks_Linear_8,130,1,48,26,239903264
532,20,Ticks_Linear_8,131,5,42,127,240540136
532,20,Ticks_Linear_8,132,1,48,26,240585560
532,20,Ticks_Linear_8,133,1,48,26,241230420
532,20,Ticks_Linear_8,134,5,42,127,241231684
532,20,Ticks_Linear_8,135,1,48,32,241873956
532,20,Ticks_Linear_8,136,5,42,127,241920428
532,20,Ticks_Linear_8,137,1,48,21,242605236
532,20,Ticks_Linear_8,138,5,42,127,242609400
532,20,Ticks_Linear_8,139,5,42,127,243289508
532,20,Ticks_Linear_8,140,1,48,18,243303488
532,20,Ticks_Linear_8,141,1,48,30,243943676
532,20,Ticks_Linear_8,142,5,42,127,243970456
532,20,Ticks_Linear_8,143,1,48,36,244641256
532,20,Ticks_Linear_8,144,5,42,127,244659568
532,20,Ticks_Linear_8,145,5,42,127,245339380
532,20,Ticks_Linear_8,146,1,48,29,245341972
532,20,Ticks_Linear_8,147,5,42,127,246019436
532,20,Ticks_Linear_8,148,1,48,25,246058356
532,20,Ticks_Linear_8,149,1,48,32,246677188
532,20,Ticks_Linear_8,150,5,42,127,246690120
532,20,Ticks_Linear_8,151,5,42,127,247360044
532,20,Ticks_Linear_8,152,1,48,37,247366904
532,20,Ticks_Linear_8,153,5,42,127,248029688
532,20,Ticks_Linear_8,154,1,48,29,248060368
532,20,Ticks_Linear_8,155,5,42,127,248700428
532,20,Ticks_Linear_8,156,1,48,27,248715628
532,20,Ticks_Linear_8,157,1,48,26,249368336
532,20,Ticks_Linear_8,158,5,42,127,249369920
532,20,Ticks_Linear_8,159,1,48,34,249986620
532,20,Ticks_Linear_8,160,5,42,127,250029456
532,20,Ticks_Linear_8,161,5,42,127,250689868
532,20,Ticks_Linear_8,162,1,48,26,250712756
532,20,Ticks_Linear_8,163,5,42,127,251350524
532,20,Ticks_Linear_8,164,1,48,28,251374760
532,20,Ticks_Linear_8,165,1,48,30,251984520
532,20,Ticks_Linear_8,166,5,42,127,252009804
532,20,Ticks_Linear_8,167,5,42,127,252670540
532,20,Ticks_Linear_8,168,1,48,28,252673584
532,20,Ticks_Linear_8,169,5,42,127,253319744
532,20,Ticks_Linear_8,170,1,48,29,253365240
532,20,Ticks_Linear_8,171,5,42,127,253969744
532,20,Ticks_Linear_8,172,1,48,27,254017488
532,20,Ticks_Linear_8,173,5,42,127,254620064
532,20,Ticks_Linear_8,174,1,48,27,254634860
532,20,Ticks_Linear_8,175,5,42,127,255270360
532,20,Ticks_Linear_8,176,1,48,33,255275572
532,20,Ticks_Linear_8,177,5,42,127,255919564
532,20,Ticks_Linear_8,178,1,48,26,255960800
532,20,Ticks_Linear_8,179,5,42,127,256559752
532,20,Ticks_Linear_8,180,1,48,27,256573204
532,20,Ticks_Linear_8,181,5,42,127,257199668
532,20,Ticks_Linear_8,182,1,48,28,257243072
532,20,Ticks_Linear_8,183,5,42,127,257839408
532,20,Ticks_Linear_8,184,1,48,33,257843944
532,20,Ticks_Linear_8,185,5,42,127,258479472
532,20,Ticks_Linear_8,186,1,48,24,258543700
532,20,Ticks_Linear_8,187,1,48,31,259110848
532,20,Ticks_Linear_8,188,5,42,127,259119728
532,20,Ticks_Linear_8,189,5,42,127,259750340
532,20,Ticks_Linear_8,190,1,48,23,259779224
532,20,Ticks_Linear_8,191,1,48,32,260369964
532,20,Ticks_Linear_8,192,5,42,127,260379964
532,20,Ticks_Linear_8,193,1,48,33,260984308
532,20,Ticks_Linear_8,194,5,42,127,261009692
532,20,Ticks_Linear_8,195,5,42,127,261639700
532,20,Ticks_Linear_8,196,1,48,16,261641640
532,20,Ticks_Linear_8,197,1,48,31,262244264
532,20,Ticks_Linear_8,198,5,42,127,262270448
532,20,Ticks_Linear_8,199,1,48,33,262884252
532,20,Ticks_Linear_8,200,5,42,127,262889844
532,20,Ticks_Linear_8,201,1,48,21,263501160
532,20,Ticks_Linear_8,202,5,42,127,263510336
532,20,Ticks_Linear_8,203,5,42,127,264129888
532,20,Ticks_Linear_8,204,1,48,30,264147900
532,20,Ticks_Linear_8,205,5,42,127,264749480
532,20,Ticks_Linear_8,206,1,48,30,264786072
532,20,Ticks_Linear_8,207,1,48,27,265355116
532,20,Ticks_Linear_8,208,5,42,127,265369916
532,20,Ticks_Linear_8,209,5,42,127,265980456
532,20,Ticks_Linear_8,210,1,48,30,265987256
532,20,Ticks_Linear_8,211,5,42,127,266589496
532,20,Ticks_Linear_8,212,1,48,28,266615448
532,20,Ticks_Linear_8,213,5,42,127,267199824
532,20,Ticks_Linear_8,214,1,48,30,267217992
532,20,Ticks_Linear_8,215,1,48,32,267807528
532,20,Ticks_Linear_8,216,5,42,127,267810276
532,20,Ticks_Linear_8,217,5,42,127,268419396
532,20,Ticks_Linear_8,218,1,48,27,268466016
532,20,Ticks_Linear_8,219,5,42,127,269019520
532,20,Ticks_Linear_8,220,1,48,29,269028488
532,20,Ticks_Linear_8,221,5,42,127,269619568
532,20,Ticks_Linear_8,222,1,48,38,269633768
532,20,Ticks_Linear_8,223,5,42,127,270219564
532,20,Ticks_Linear_8,224,1,48,36,270289488
532,20,Ticks_Linear_8,225,5,42,127,270819616
532,20,Ticks_Linear_8,226,1,48,28,270908036
532,20,Ticks_Linear_8,227,5,42,127,271419664
532,20,Ticks_Linear_8,228,1,48,32,271442776
532,20,Ticks_Linear_8,229,5,42,127,272009552
532,20,Ticks_Linear_8,230,1,48,27,272021208
532,20,Ticks_Linear_8,231,1,48,29,272548976
532,20,Ticks_Linear_8,232,5,42,127,272600532
532,20,Ticks_Linear_8,233,1,48,27,273159056
532,20,Ticks_Linear_8,234,5,42,127,273199608
532,20,Ticks_Linear_8,235,1,48,24,273783068
532,20,Ticks_Linear_8,236,5,42,127,273790372
532,20,Ticks_Linear_8,237,1,48,24,274356848
532,20,Ticks_Linear_8,238,5,42,127,274380040
532,20,Ticks_Linear_8,239,1,48,30,274958212
532,20,Ticks_Linear_8,240,5,42,127,274959644
532,20,Ticks_Linear_8,241,5,42,127,275540304
532,20,Ticks_Linear_8,242,1,48,21,275567844
532,20,Ticks_Linear_8,243,5,42,127,276120452
532,20,Ticks_Linear_8,244,1,48,30,276139456
532,20,Ticks_Linear_8,245,1,48,35,276668640
532,20,Ticks_Linear_8,246,5,42,127,276699604
532,20,Ticks_Linear_8,247,1,48,31,277280560
532,20,Ticks_Linear_8,248,5,42,127,277281828
532,20,Ticks_Linear_8,249,5,42,127,277849460
532,20,Ticks_Linear_8,250,1,48,27,277898888
532,20,Ticks_Linear_8,251,1,48,27,278407924
532,20,Ticks_Linear_8,252,5,42,127,278419868
532,20,Ticks_Linear_8,253,1,48,32,278969180
532,20,Ticks_Linear_8,254,5,42,127,278990188
532,20,Ticks_Linear_8,255,1,48,38,279543464
532,20,Ticks_Linear_8,256,5,42,127,279559536
532,20,Ticks_Linear_8,257,5,42,127,280130084
532,20,Ticks_Linear_8,258,1,48,29,280160544
532,20,Ticks_Linear_8,259,5,42,127,280690068
532,20,Ticks_Linear_8,260,1,48,34,280713284
532,20,Ticks_Linear_8,261,5,42,127,281250152
532,20,Ticks_Linear_8,262,1,48,28,281271768
532,20,Ticks_Linear_8,263,5,42,127,281810212
532,20,Ticks_Linear_8,264,1,48,32,281819776
532,20,Ticks_Linear_8,265,5,42,127,282370568
532,20,Ticks_Linear_8,266,1,48,32,282374056
532,20,Ticks_Linear_8,267,5,42,127,282939992
532,20,Ticks_Linear_8,268,1,48,33,282962804
532,20,Ticks_Linear_8,269,5,42,127,283489864
532,20,Ticks_Linear_8,270,1,48,32,283493356
532,20,Ticks_Linear_8,271,5,42,127,284039468
532,20,Ticks_Linear_8,272,1,48,32,284080184
532,20,Ticks_Linear_8,273,5,42,127,284589416
532,20,Ticks_Linear_8,274,1,48,34,284619124
532,20,Ticks_Linear_8,275,5,42,127,285140264
532,20,Ticks_Linear_8,276,1,48,28,285175724
532,20,Ticks_Linear_8,277,5,42,127,285690288
532,20,Ticks_Linear_8,278,1,48,28,285712504
532,20,Ticks_Linear_8,279,5,42,127,286229828
532,20,Ticks_Linear_8,280,1,48,30,286247840
532,20,Ticks_Linear_8,281,5,42,127,286769520
532,20,Ticks_Linear_8,282,1,48,30,286810608
532,20,Ticks_Linear_8,283,5,42,127,287310180
532,20,Ticks_Linear_8,284,1,48,34,287320788
532,20,Ticks_Linear_8,285,5,42,127,287849796
532,20,Ticks_Linear_8,286,1,48,32,287865864
532,20,Ticks_Linear_8,287,1,48,25,288380524
532,20,Ticks_Linear_8,288,5,42,127,288389800
532,20,Ticks_Linear_8,289,1,48,34,288912000
532,20,Ticks_Linear_8,290,5,42,127,288919904
532,20,Ticks_Linear_8,291,5,42,127,289450540
532,20,Ticks_Linear_8,292,1,48,32,289456800
532,20,Ticks_Linear_8,293,5,42,127,289979824
532,20,Ticks_Linear_8,294,1,48,32,290008932
532,20,Ticks_Linear_8,295,5,42,127,290510076
532,20,Ticks_Linear_8,296,1,48,35,290527880
532,20,Ticks_Linear_8,297,5,42,127,291039656
532,20,Ticks_Linear_8,298,1,48,27,291104552
532,20,Ticks_Linear_8,299,5,42,127,291559800
532,20,Ticks_Linear_8,300,1,48,32,291585976
532,20,Ticks_Linear_8,301,5,42,127,292079944
532,20,Ticks_Linear_8,302,1,48,30,292135556
532,20,Ticks_Linear_8,303,5,42,127,292600164
532,20,Ticks_Linear_8,304,1,48,34,292630392
532,20,Ticks_Linear_8,305,5,42,127,293120236
532,20,Ticks_Linear_8,306,1,48,27,293168516
532,20,Ticks_Linear_8,307,5,42,127,293639780
532,20,Ticks_Linear_8,308,1,48,31,293676892
532,20,Ticks_Linear_8,309,5,42,127,294149664
532,20,Ticks_Linear_8,310,1,48,34,294186104
532,20,Ticks_Linear_8,311,5,42,127,294659400
532,20,Ticks_Linear_8,312,1,48,28,294708432
532,20,Ticks_Linear_8,313,5,42,127,295170700
532,20,Ticks_Linear_8,314,1,48,32,295222124
532,20,Ticks_Linear_8,315,5,42,127,295689576
532,20,Ticks_Linear_8,316,1,48,31,295712464
532,20,Ticks_Linear_8,317,5,42,127,296199760
532,20,Ticks_Linear_8,318,1,48,36,296226164
532,20,Ticks_Linear_8,319,1,48,37,296679572
532,20,Ticks_Linear_8,320,5,42,127,296700424
532,20,Ticks_Linear_8,321,1,48,36,297181812
532,20,Ticks_Linear_8,322,5,42,127,297199976
532,20,Ticks_Linear_8,323,1,48,30,297677236
532,20,Ticks_Linear_8,324,5,42,127,297699676
532,20,Ticks_Linear_8,325,1,48,24,298164508
532,20,Ticks_Linear_8,326,5,42,127,298200424
532,20,Ticks_Linear_8,327,1,48,36,298672968
532,20,Ticks_Linear_8,328,5,42,127,298710532
532,20,Ticks_Linear_8,329,5,42,127,299199832
532,20,Ticks_Linear_8,330,1,48,21,299215452
532,20,Ticks_Linear_8,331,5,42,127,299690616
532,20,Ticks_Linear_8,332,1,48,29,299709548
532,20,Ticks_Linear_8,333,1,48,28,300171172
532,20,Ticks_Linear_8,334,5,42,127,300180128
532,20,Ticks_Linear_8,335,1,48,41,300660892
532,20,Ticks_Linear_8,336,5,42,127,300670516
532,20,Ticks_Linear_8,337,1,48,34,301150264
532,20,Ticks_Linear_8,338,5,42,127,301159736
532,20,Ticks_Linear_8,0,9999,9999,9999,190548076
532,20,Ticks_Linear_8,1,9999,9999,9999,191367284
532,20,Ticks_Linear_8,2,9999,9999,9999,192187484
532,20,Ticks_Linear_8,3,9999,9999,9999,193007696
532,20,Ticks_Linear_8,4,9999,9999,9999,193827940
532,20,Ticks_Linear_8,5,9999,9999,9999,194637932
532,20,Ticks_Linear_8,6,9999,9999,9999,195447916
532,20,Ticks_Linear_8,7,9999,9999,9999,196257916
532,20,Ticks_Linear_8,8,9999,9999,9999,197067900
532,20,Ticks_Linear_8,9,9999,9999,9999,197877880
532,20,Ticks_Linear_8,10,9999,9999,9999,198677604
532,20,Ticks_Linear_8,11,9999,9999,9999,199477336
532,20,Ticks_Linear_8,12,9999,9999,9999,200278104
532,20,Ticks_Linear_8,13,9999,9999,9999,201088084
532,20,Ticks_Linear_8,14,9999,9999,9999,201898092
532,20,Ticks_Linear_8,15,9999,9999,9999,202687564
532,20,Ticks_Linear_8,16,9999,9999,9999,203478076
532,20,Ticks_Linear_8,17,9999,9999,9999,204277876
532,20,Ticks_Linear_8,18,9999,9999,9999,205067336
532,20,Ticks_Linear_8,19,9999,9999,9999,205857844
532,20,Ticks_Linear_8,20,9999,9999,9999,206637132
532,20,Ticks_Linear_8,21,9999,9999,9999,207417460
532,20,Ticks_Linear_8,22,9999,9999,9999,208197712
532,20,Ticks_Linear_8,23,9999,9999,9999,208978040
532,20,Ticks_Linear_8,24,9999,9999,9999,209757244
532,20,Ticks_Linear_8,25,9999,9999,9999,210527312
532,20,Ticks_Linear_8,26,9999,9999,9999,211297380
532,20,Ticks_Linear_8,27,9999,9999,9999,212067440
532,20,Ticks_Linear_8,28,9999,9999,9999,212837440
532,20,Ticks_Linear_8,29,9999,9999,9999,213607508
532,20,Ticks_Linear_8,30,9999,9999,9999,214367316
532,20,Ticks_Linear_8,31,9999,9999,9999,215127124
532,20,Ticks_Linear_8,32,9999,9999,9999,215887980
532,20,Ticks_Linear_8,33,9999,9999,9999,216647784
532,20,Ticks_Linear_8,34,9999,9999,9999,217407600
532,20,Ticks_Linear_8,35,9999,9999,9999,218157152
532,20,Ticks_Linear_8,36,9999,9999,9999,218907744
532,20,Ticks_Linear_8,37,9999,9999,9999,219657296
532,20,Ticks_Linear_8,38,9999,9999,9999,220407888
532,20,Ticks_Linear_8,39,9999,9999,9999,221157444
532,20,Ticks_Linear_8,40,9999,9999,9999,221897852
532,20,Ticks_Linear_8,41,9999,9999,9999,222637148
532,20,Ticks_Linear_8,42,9999,9999,9999,223377484
532,20,Ticks_Linear_8,43,9999,9999,9999,224117868
532,20,Ticks_Linear_8,44,9999,9999,9999,224857156
532,20,Ticks_Linear_8,45,9999,9999,9999,225587316
532,20,Ticks_Linear_8,46,9999,9999,9999,226317392
532,20,Ticks_Linear_8,47,9999,9999,9999,227047548
532,20,Ticks_Linear_8,48,9999,9999,9999,227777624
532,20,Ticks_Linear_8,49,9999,9999,9999,228507704
532,20,Ticks_Linear_8,50,9999,9999,9999,229227644
532,20,Ticks_Linear_8,51,9999,9999,9999,229947464
532,20,Ticks_Linear_8,52,9999,9999,9999,230667360
532,20,Ticks_Linear_8,53,9999,9999,9999,231387252
532,20,Ticks_Linear_8,54,9999,9999,9999,232107072
532,20,Ticks_Linear_8,55,9999,9999,9999,232817728
532,20,Ticks_Linear_8,56,9999,9999,9999,233527364
532,20,Ticks_Linear_8,57,9999,9999,9999,234238048
532,20,Ticks_Linear_8,58,9999,9999,9999,234947680
532,20,Ticks_Linear_8,59,9999,9999,9999,235657316
532,20,Ticks_Linear_8,60,9999,9999,9999,236357712
532,20,Ticks_Linear_8,61,9999,9999,9999,237057092
532,20,Ticks_Linear_8,62,9999,9999,9999,237757512
532,20,Ticks_Linear_8,63,9999,9999,9999,238457976
532,20,Ticks_Linear_8,64,9999,9999,9999,239157316
532,20,Ticks_Linear_8,65,9999,9999,9999,239847524
532,20,Ticks_Linear_8,66,9999,9999,9999,240537688
532,20,Ticks_Linear_8,67,9999,9999,9999,241227900
532,20,Ticks_Linear_8,68,9999,9999,9999,241918056
532,20,Ticks_Linear_8,69,9999,9999,9999,242607176
532,20,Ticks_Linear_8,70,9999,9999,9999,243287136
532,20,Ticks_Linear_8,71,9999,9999,9999,243968080
532,20,Ticks_Linear_8,72,9999,9999,9999,244657272
532,20,Ticks_Linear_8,73,9999,9999,9999,245337156
532,20,Ticks_Linear_8,74,9999,9999,9999,246017136
532,20,Ticks_Linear_8,75,9999,9999,9999,246687820
532,20,Ticks_Linear_8,76,9999,9999,9999,247357524
532,20,Ticks_Linear_8,77,9999,9999,9999,248027240
532,20,Ticks_Linear_8,78,9999,9999,9999,248697980
532,20,Ticks_Linear_8,79,9999,9999,9999,249367628
532,20,Ticks_Linear_8,80,9999,9999,9999,250027084
532,20,Ticks_Linear_8,81,9999,9999,9999,250687572
532,20,Ticks_Linear_8,82,9999,9999,9999,251348076
532,20,Ticks_Linear_8,83,9999,9999,9999,252007504
532,20,Ticks_Linear_8,84,9999,9999,9999,252668020
532,20,Ticks_Linear_8,85,9999,9999,9999,253317196
532,20,Ticks_Linear_8,86,9999,9999,9999,253967444
532,20,Ticks_Linear_8,87,9999,9999,9999,254617692
532,20,Ticks_Linear_8,88,9999,9999,9999,255267912
532,20,Ticks_Linear_8,89,9999,9999,9999,255917116
532,20,Ticks_Linear_8,90,9999,9999,9999,256557156
532,20,Ticks_Linear_8,91,9999,9999,9999,257197148
532,20,Ticks_Linear_8,92,9999,9999,9999,257837112
532,20,Ticks_Linear_8,93,9999,9999,9999,258477172
532,20,Ticks_Linear_8,94,9999,9999,9999,259117132
532,20,Ticks_Linear_8,95,9999,9999,9999,259747968
532,20,Ticks_Linear_8,96,9999,9999,9999,260377664
532,20,Ticks_Linear_8,97,9999,9999,9999,261007468
532,20,Ticks_Linear_8,98,9999,9999,9999,261637180
532,20,Ticks_Linear_8,99,9999,9999,9999,262268000
532,20,Ticks_Linear_8,100,9999,9999,9999,262887544
532,20,Ticks_Linear_8,101,9999,9999,9999,263508040
532,20,Ticks_Linear_8,102,9999,9999,9999,264127588
532,20,Ticks_Linear_8,103,9999,9999,9999,264747108
532,20,Ticks_Linear_8,104,9999,9999,9999,265367620
532,20,Ticks_Linear_8,105,9999,9999,9999,265977932
532,20,Ticks_Linear_8,106,9999,9999,9999,266587196
532,20,Ticks_Linear_8,107,9999,9999,9999,267197524
532,20,Ticks_Linear_8,108,9999,9999,9999,267807828
532,20,Ticks_Linear_8,109,9999,9999,9999,268417096
532,20,Ticks_Linear_8,110,9999,9999,9999,269017148
532,20,Ticks_Linear_8,111,9999,9999,9999,269617268
532,20,Ticks_Linear_8,112,9999,9999,9999,270217340
532,20,Ticks_Linear_8,113,9999,9999,9999,270817392
532,20,Ticks_Linear_8,114,9999,9999,9999,271417440
532,20,Ticks_Linear_8,115,9999,9999,9999,272007256
532,20,Ticks_Linear_8,116,9999,9999,9999,272598088
532,20,Ticks_Linear_8,117,9999,9999,9999,273197164
532,20,Ticks_Linear_8,118,9999,9999,9999,273788000
532,20,Ticks_Linear_8,119,9999,9999,9999,274377812
532,20,Ticks_Linear_8,120,9999,9999,9999,274957428
532,20,Ticks_Linear_8,121,9999,9999,9999,275538004
532,20,Ticks_Linear_8,122,9999,9999,9999,276117560
532,20,Ticks_Linear_8,123,9999,9999,9999,276697156
532,20,Ticks_Linear_8,124,9999,9999,9999,277277816
532,20,Ticks_Linear_8,125,9999,9999,9999,277847160
532,20,Ticks_Linear_8,126,9999,9999,9999,278417496
532,20,Ticks_Linear_8,127,9999,9999,9999,278987892
532,20,Ticks_Linear_8,128,9999,9999,9999,279557236
532,20,Ticks_Linear_8,129,9999,9999,9999,280127564
532,20,Ticks_Linear_8,130,9999,9999,9999,280687696
532,20,Ticks_Linear_8,131,9999,9999,9999,281247852
532,20,Ticks_Linear_8,132,9999,9999,9999,281807988
532,20,Ticks_Linear_8,133,9999,9999,9999,282368120
532,20,Ticks_Linear_8,134,9999,9999,9999,282937468
532,20,Ticks_Linear_8,135,9999,9999,9999,283487344
532,20,Ticks_Linear_8,136,9999,9999,9999,284037244
532,20,Ticks_Linear_8,137,9999,9999,9999,284587116
532,20,Ticks_Linear_8,138,9999,9999,9999,285138040
532,20,Ticks_Linear_8,139,9999,9999,9999,285687912
532,20,Ticks_Linear_8,140,9999,9999,9999,286227528
532,20,Ticks_Linear_8,141,9999,9999,9999,286767220
532,20,Ticks_Linear_8,142,9999,9999,9999,287307880
532,20,Ticks_Linear_8,143,9999,9999,9999,287847496
532,20,Ticks_Linear_8,144,9999,9999,9999,288387180
532,20,Ticks_Linear_8,145,9999,9999,9999,288917608
532,20,Ticks_Linear_8,146,9999,9999,9999,289448016
532,20,Ticks_Linear_8,147,9999,9999,9999,289977448
532,20,Ticks_Linear_8,148,9999,9999,9999,290507852
532,20,Ticks_Linear_8,149,9999,9999,9999,291037284
532,20,Ticks_Linear_8,150,9999,9999,9999,291557504
532,20,Ticks_Linear_8,151,9999,9999,9999,292077644
532,20,Ticks_Linear_8,152,9999,9999,9999,292597864
532,20,Ticks_Linear_8,153,9999,9999,9999,293118008
532,20,Ticks_Linear_8,154,9999,9999,9999,293637180
532,20,Ticks_Linear_8,155,9999,9999,9999,294147140
532,20,Ticks_Linear_8,156,9999,9999,9999,294657100
532,20,Ticks_Linear_8,157,9999,9999,9999,295168104
532,20,Ticks_Linear_8,158,9999,9999,9999,295687276
532,20,Ticks_Linear_8,159,9999,9999,9999,296197236
532,20,Ticks_Linear_8,160,9999,9999,9999,296697976
532,20,Ticks_Linear_8,161,9999,9999,9999,297197676
532,20,Ticks_Linear_8,162,9999,9999,9999,297697376
532,20,Ticks_Linear_8,163,9999,9999,9999,298198124
532,20,Ticks_Linear_8,164,9999,9999,9999,298708084
532,20,Ticks_Linear_8,165,9999,9999,9999,299197532
532,20,Ticks_Linear_8,166,9999,9999,9999,299688020
532,20,Ticks_Linear_8,167,9999,9999,9999,300177532
532,20,Ticks_Linear_8,168,9999,9999,9999,300667996
532,20,Ticks_Linear_8,169,9999,9999,9999,301157436
533,10,Ticks_ISO_T2_5,0,5,42,127,311297516
533,10,Ticks_ISO_T2_5,1,5,42,127,311797232
533,10,Ticks_ISO_T2_5,2,1,48,20,311975476
533,10,Ticks_ISO_T2_5,3,5,42,127,312296704
533,10,Ticks_ISO_T2_5,4,1,48,22,312330716
533,10,Ticks_ISO_T2_5,5,5,42,127,312796624
533,10,Ticks_ISO_T2_5,6,1,48,28,312816648
533,10,Ticks_ISO_T2_5,7,5,42,127,313297216
533,10,Ticks_ISO_T2_5,8,1,48,27,313309240
533,10,Ticks_ISO_T2_5,9,5,42,127,313797060
533,10,Ticks_ISO_T2_5,10,1,48,30,313807064
533,10,Ticks_ISO_T2_5,11,5,42,127,314296604
533,10,Ticks_ISO_T2_5,12,1,48,31,314329344
533,10,Ticks_ISO_T2_5,13,1,48,24,314794388
533,10,Ticks_ISO_T2_5,14,5,42,127,314797564
533,10,Ticks_ISO_T2_5,15,5,42,127,315297116
533,10,Ticks_ISO_T2_5,16,1,48,26,315310332
533,10,Ticks_ISO_T2_5,17,5,42,127,315796960
533,10,Ticks_ISO_T2_5,18,1,48,23,315807332
533,10,Ticks_ISO_T2_5,19,1,48,24,316290928
533,10,Ticks_ISO_T2_5,20,5,42,127,316296572
533,10,Ticks_ISO_T2_5,21,1,48,30,316781172
533,10,Ticks_ISO_T2_5,22,5,42,127,316797288
533,10,Ticks_ISO_T2_5,23,1,48,27,317287900
533,10,Ticks_ISO_T2_5,24,5,42,127,317296984
533,10,Ticks_ISO_T2_5,25,5,42,127,317796760
533,10,Ticks_ISO_T2_5,26,1,48,26,317797652
533,10,Ticks_ISO_T2_5,27,5,42,127,318296308
533,10,Ticks_ISO_T2_5,28,1,48,23,318309968
533,10,Ticks_ISO_T2_5,29,5,42,127,318797196
533,10,Ticks_ISO_T2_5,30,1,48,21,318817448
533,10,Ticks_ISO_T2_5,31,1,48,18,319279200
533,10,Ticks_ISO_T2_5,32,5,42,127,319296956
533,10,Ticks_ISO_T2_5,33,5,42,127,319796584
533,10,Ticks_ISO_T2_5,34,1,48,24,319817724
533,10,Ticks_ISO_T2_5,35,5,42,127,320297252
533,10,Ticks_ISO_T2_5,36,1,48,20,320308376
533,10,Ticks_ISO_T2_5,37,1,48,32,320782468
533,10,Ticks_ISO_T2_5,38,5,42,127,320797012
533,10,Ticks_ISO_T2_5,39,1,48,32,321278424
533,10,Ticks_ISO_T2_5,40,5,42,127,321296780
533,10,Ticks_ISO_T2_5,41,5,42,127,321796336
533,10,Ticks_ISO_T2_5,42,1,48,30,321808352
533,10,Ticks_ISO_T2_5,43,5,42,127,322297148
533,10,Ticks_ISO_T2_5,44,1,48,26,322317324
533,10,Ticks_ISO_T2_5,45,5,42,127,322796916
533,10,Ticks_ISO_T2_5,46,1,48,21,322812896
533,10,Ticks_ISO_T2_5,47,5,42,127,323296760
533,10,Ticks_ISO_T2_5,48,1,48,27,323301900
533,10,Ticks_ISO_T2_5,49,1,48,33,323797280
533,10,Ticks_ISO_T2_5,50,5,42,127,323798768
533,10,Ticks_ISO_T2_5,51,5,42,127,324297048
533,10,Ticks_ISO_T2_5,52,1,48,28,324313628
533,10,Ticks_ISO_T2_5,53,5,42,127,324796892
533,10,Ticks_ISO_T2_5,54,1,48,28,324827464
533,10,Ticks_ISO_T2_5,55,1,48,27,325278824
533,10,Ticks_ISO_T2_5,56,5,42,127,325296432
533,10,Ticks_ISO_T2_5,57,5,42,127,325797328
533,10,Ticks_ISO_T2_5,58,1,48,23,325807556
533,10,Ticks_ISO_T2_5,59,5,42,127,326296948
533,10,Ticks_ISO_T2_5,60,1,48,26,326313308
533,10,Ticks_ISO_T2_5,61,1,48,26,326796420
533,10,Ticks_ISO_T2_5,62,5,42,127,326797908
533,10,Ticks_ISO_T2_5,63,1,48,33,327296304
533,10,Ticks_ISO_T2_5,64,5,42,127,327298052
533,10,Ticks_ISO_T2_5,65,5,42,127,327797056
533,10,Ticks_ISO_T2_5,66,1,48,24,327829596
533,10,Ticks_ISO_T2_5,67,5,42,127,328296752
533,10,Ticks_ISO_T2_5,68,1,48,25,328305400
533,10,Ticks_ISO_T2_5,69,5,42,127,328796668
533,10,Ticks_ISO_T2_5,70,1,48,24,328827016
533,10,Ticks_ISO_T2_5,71,1,48,24,329284280
533,10,Ticks_ISO_T2_5,72,5,42,127,329297476
533,10,Ticks_ISO_T2_5,73,1,48,24,329780536
533,10,Ticks_ISO_T2_5,74,5,42,127,329796952
533,10,Ticks_ISO_T2_5,75,1,48,27,330283816
533,10,Ticks_ISO_T2_5,76,5,42,127,330296792
533,10,Ticks_ISO_T2_5,77,1,48,28,330752920
533,10,Ticks_ISO_T2_5,78,5,42,127,330797388
533,10,Ticks_ISO_T2_5,79,1,48,25,331287392
533,10,Ticks_ISO_T2_5,80,5,42,127,331297004
533,10,Ticks_ISO_T2_5,81,1,48,30,331793748
533,10,Ticks_ISO_T2_5,82,5,42,127,331796924
533,10,Ticks_ISO_T2_5,83,1,48,25,332284392
533,10,Ticks_ISO_T2_5,84,5,42,127,332296692
533,10,Ticks_ISO_T2_5,85,5,42,127,332797216
533,10,Ticks_ISO_T2_5,86,1,48,29,332821876
533,10,Ticks_ISO_T2_5,87,5,42,127,333297136
533,10,Ticks_ISO_T2_5,88,1,48,32,333310204
533,10,Ticks_ISO_T2_5,89,5,42,127,333796608
533,10,Ticks_ISO_T2_5,90,1,48,34,333827252
533,10,Ticks_ISO_T2_5,91,5,42,127,334296524
533,10,Ticks_ISO_T2_5,92,1,48,26,334316996
533,10,Ticks_ISO_T2_5,93,5,42,127,334797192
533,10,Ticks_ISO_T2_5,94,1,48,31,334818860
533,10,Ticks_ISO_T2_5,95,5,42,127,335296740
533,10,Ticks_ISO_T2_5,96,1,48,28,335326488
533,10,Ticks_ISO_T2_5,97,5,42,127,335796584
533,10,Ticks_ISO_T2_5,98,1,48,32,335815480
533,10,Ticks_ISO_T2_5,99,5,42,127,336297248
533,10,Ticks_ISO_T2_5,100,1,48,29,336357516
533,10,Ticks_ISO_T2_5,101,5,42,127,336797016
533,10,Ticks_ISO_T2_5,102,1,48,29,336824596
533,10,Ticks_ISO_T2_5,103,5,42,127,337296712
533,10,Ticks_ISO_T2_5,104,1,48,26,337322568
533,10,Ticks_ISO_T2_5,105,5,42,127,337796784
533,10,Ticks_ISO_T2_5,106,1,48,21,337820544
533,10,Ticks_ISO_T2_5,107,5,42,127,338297128
533,10,Ticks_ISO_T2_5,108,1,48,32,338315224
533,10,Ticks_ISO_T2_5,109,5,42,127,338796896
533,10,Ticks_ISO_T2_5,110,1,48,22,338824048
533,10,Ticks_ISO_T2_5,111,5,42,127,339296592
533,10,Ticks_ISO_T2_5,112,1,48,27,339343720
533,10,Ticks_ISO_T2_5,113,5,42,127,339797484
533,10,Ticks_ISO_T2_5,114,1,48,19,339843116
533,10,Ticks_ISO_T2_5,115,5,42,127,340297104
533,10,Ticks_ISO_T2_5,116,1,48,23,340326704
533,10,Ticks_ISO_T2_5,117,5,42,127,340796724
533,10,Ticks_ISO_T2_5,118,1,48,27,340847264
533,10,Ticks_ISO_T2_5,119,5,42,127,341296640
533,10,Ticks_ISO_T2_5,120,1,48,21,341324896
533,10,Ticks_ISO_T2_5,121,5,42,127,341797308
533,10,Ticks_ISO_T2_5,122,1,48,24,341820396
533,10,Ticks_ISO_T2_5,123,5,42,127,342297004
533,10,Ticks_ISO_T2_5,124,1,48,22,342300644
533,10,Ticks_ISO_T2_5,125,5,42,127,342796624
533,10,Ticks_ISO_T2_5,126,1,48,21,342804976
533,10,Ticks_ISO_T2_5,127,5,42,127,343297364
533,10,Ticks_ISO_T2_5,128,1,48,20,343308488
533,10,Ticks_ISO_T2_5,129,5,42,127,343797060
533,10,Ticks_ISO_T2_5,130,1,48,21,343823216
533,10,Ticks_ISO_T2_5,131,5,42,127,344296684
533,10,Ticks_ISO_T2_5,132,1,48,20,344314088
533,10,Ticks_ISO_T2_5,133,5,42,127,344796452
533,10,Ticks_ISO_T2_5,134,1,48,24,344801960
533,10,Ticks_ISO_T2_5,135,5,42,127,345297340
533,10,Ticks_ISO_T2_5,136,1,48,22,345317668
533,10,Ticks_ISO_T2_5,137,5,42,127,345796964
533,10,Ticks_ISO_T2_5,138,1,48,24,345810180
533,10,Ticks_ISO_T2_5,139,5,42,127,346296656
533,10,Ticks_ISO_T2_5,140,1,48,15,346329472
533,10,Ticks_ISO_T2_5,141,1,48,23,346791672
533,10,Ticks_ISO_T2_5,142,5,42,127,346797392
533,10,Ticks_ISO_T2_5,143,5,42,127,347297244
533,10,Ticks_ISO_T2_5,144,1,48,20,347322876
533,10,Ticks_ISO_T2_5,145,5,42,127,347796792
533,10,Ticks_ISO_T2_5,146,1,48,20,347837080
533,10,Ticks_ISO_T2_5,147,1,48,24,348289264
533,10,Ticks_ISO_T2_5,148,5,42,127,348296628
533,10,Ticks_ISO_T2_5,149,1,48,21,348793196
533,10,Ticks_ISO_T2_5,150,5,42,127,348797416
533,10,Ticks_ISO_T2_5,151,1,48,26,349291844
533,10,Ticks_ISO_T2_5,152,5,42,127,349297040
533,10,Ticks_ISO_T2_5,153,5,42,127,349796592
533,10,Ticks_ISO_T2_5,154,1,48,14,349802856
533,10,Ticks_ISO_T2_5,155,1,48,13,350292284
533,10,Ticks_ISO_T2_5,156,5,42,127,350296356
533,10,Ticks_ISO_T2_5,157,5,42,127,350797180
533,10,Ticks_ISO_T2_5,158,5,42,127,351296820
533,10,Ticks_ISO_T2_5,159,1,48,19,351303828
533,10,Ticks_ISO_T2_5,160,5,42,127,351796440
533,10,Ticks_ISO_T2_5,161,5,42,127,352297280
533,10,Ticks_ISO_T2_5,162,1,48,18,352309448
533,10,Ticks_ISO_T2_5,163,5,42,127,352797048
533,10,Ticks_ISO_T2_5,164,5,42,127,353296764
533,10,Ticks_ISO_T2_5,165,1,48,15,353327932
533,10,Ticks_ISO_T2_5,166,5,42,127,353796532
533,10,Ticks_ISO_T2_5,167,1,48,17,353844976
533,10,Ticks_ISO_T2_5,168,5,42,127,354297124
533,10,Ticks_ISO_T2_5,169,1,48,20,354329336
533,10,Ticks_ISO_T2_5,170,5,42,127,354797044
533,10,Ticks_ISO_T2_5,171,1,48,23,354820136
533,10,Ticks_ISO_T2_5,172,5,42,127,355296664
533,10,Ticks_ISO_T2_5,173,1,48,25,355303220
533,10,Ticks_ISO_T2_5,174,1,48,22,355788240
533,10,Ticks_ISO_T2_5,175,5,42,127,355797324
533,10,Ticks_ISO_T2_5,176,1,48,22,356289656
533,10,Ticks_ISO_T2_5,177,5,42,127,356297092
533,10,Ticks_ISO_T2_5,178,1,48,16,356760476
533,10,Ticks_ISO_T2_5,179,5,42,127,356796716
533,10,Ticks_ISO_T2_5,180,5,42,127,357296344
533,10,Ticks_ISO_T2_5,181,5,42,127,357797104
533,10,Ticks_ISO_T2_5,182,1,48,13,358258236
533,10,Ticks_ISO_T2_5,183,5,42,127,358296888
533,10,Ticks_ISO_T2_5,184,5,42,127,358796740
533,10,Ticks_ISO_T2_5,185,1,48,14,358812948
533,10,Ticks_ISO_T2_5,186,5,42,127,359297332
533,10,Ticks_ISO_T2_5,187,1,48,16,359313612
533,10,Ticks_ISO_T2_5,188,1,48,17,359794636
533,10,Ticks_ISO_T2_5,189,5,42,127,359797144
533,10,Ticks_ISO_T2_5,190,1,48,19,360291868
533,10,Ticks_ISO_T2_5,191,5,42,127,360296912
533,10,Ticks_ISO_T2_5,192,1,48,21,360772188
533,10,Ticks_ISO_T2_5,193,5,42,127,360796384
533,10,Ticks_ISO_T2_5,194,5,42,127,361297132
533,10,Ticks_ISO_T2_5,195,1,48,20,361307508
533,10,Ticks_ISO_T2_5,196,1,48,23,361783548
533,10,Ticks_ISO_T2_5,197,5,42,127,361797116
533,10,Ticks_ISO_T2_5,198,1,48,21,362292736
533,10,Ticks_ISO_T2_5,199,5,42,127,362296960
533,10,Ticks_ISO_T2_5,200,5,42,127,362797412
533,10,Ticks_ISO_T2_5,201,1,48,21,362804864
533,10,Ticks_ISO_T2_5,202,5,42,127,363297104
533,10,Ticks_ISO_T2_5,203,1,48,17,363301272
533,10,Ticks_ISO_T2_5,204,5,42,127,363797024
533,10,Ticks_ISO_T2_5,205,1,48,17,363811960
533,10,Ticks_ISO_T2_5,206,5,42,127,364296420
533,10,Ticks_ISO_T2_5,207,1,48,17,364302828
533,10,Ticks_ISO_T2_5,208,1,48,18,364785676
533,10,Ticks_ISO_T2_5,209,5,42,127,364797156
533,10,Ticks_ISO_T2_5,210,1,48,18,365297004
533,10,Ticks_ISO_T2_5,211,5,42,127,365298416
533,10,Ticks_ISO_T2_5,212,5,42,127,365796996
533,10,Ticks_ISO_T2_5,213,1,48,25,365822704
533,10,Ticks_ISO_T2_5,214,5,42,127,366296468
533,10,Ticks_ISO_T2_5,215,1,48,19,366325540
533,10,Ticks_ISO_T2_5,216,5,42,127,366797136
533,10,Ticks_ISO_T2_5,217,1,48,16,366813196
533,10,Ticks_ISO_T2_5,218,5,42,127,367296980
533,10,Ticks_ISO_T2_5,219,1,48,16,367306380
533,10,Ticks_ISO_T2_5,220,5,42,127,367796528
533,10,Ticks_ISO_T2_5,221,1,48,16,367804204
533,10,Ticks_ISO_T2_5,222,1,48,23,368281592
533,10,Ticks_ISO_T2_5,223,5,42,127,368297264
533,10,Ticks_ISO_T2_5,224,1,48,19,368771712
533,10,Ticks_ISO_T2_5,225,5,42,127,368796956
533,10,Ticks_ISO_T2_5,226,5,42,127,369296880
533,10,Ticks_ISO_T2_5,227,1,48,21,369358868
533,10,Ticks_ISO_T2_5,228,5,42,127,369796724
533,10,Ticks_ISO_T2_5,229,1,48,19,369809720
533,10,Ticks_ISO_T2_5,230,1,48,22,370292916
533,10,Ticks_ISO_T2_5,231,5,42,127,370297212
533,10,Ticks_ISO_T2_5,232,1,48,21,370774432
533,10,Ticks_ISO_T2_5,233,5,42,127,370796984
533,10,Ticks_ISO_T2_5,234,1,48,16,371291184
533,10,Ticks_ISO_T2_5,235,5,42,127,371296900
533,10,Ticks_ISO_T2_5,236,1,48,22,371785340
533,10,Ticks_ISO_T2_5,237,5,42,127,371797344
533,10,Ticks_ISO_T2_5,238,5,42,127,372297044
533,10,Ticks_ISO_T2_5,239,1,48,18,372311312
533,10,Ticks_ISO_T2_5,240,5,42,127,372796740
533,10,Ticks_ISO_T2_5,241,1,48,14,372812048
533,10,Ticks_ISO_T2_5,242,1,48,18,373295604
533,10,Ticks_ISO_T2_5,243,5,42,127,373297252
533,10,Ticks_ISO_T2_5,244,5,42,127,373797176
533,10,Ticks_ISO_T2_5,245,1,48,21,373810088
533,10,Ticks_ISO_T2_5,246,5,42,127,374296868
533,10,Ticks_ISO_T2_5,247,1,48,23,374318316
533,10,Ticks_ISO_T2_5,248,1,48,22,374776176
533,10,Ticks_ISO_T2_5,249,5,42,127,374796856
533,10,Ticks_ISO_T2_5,250,5,42,127,375297532
533,10,Ticks_ISO_T2_5,251,1,48,27,375313360
533,10,Ticks_ISO_T2_5,252,1,48,20,375792544
533,10,Ticks_ISO_T2_5,253,5,42,127,375797220
533,10,Ticks_ISO_T2_5,0,9999,9999,9999,311295076
533,10,Ticks_ISO_T2_5,1,9999,9999,9999,311794796
533,10,Ticks_ISO_T2_5,2,9999,9999,9999,312294488
533,10,Ticks_ISO_T2_5,3,9999,9999,9999,312794184
533,10,Ticks_ISO_T2_5,4,9999,9999,9999,313294928
533,10,Ticks_ISO_T2_5,5,9999,9999,9999,313794620
533,10,Ticks_ISO_T2_5,6,9999,9999,9999,314294392
533,10,Ticks_ISO_T2_5,7,9999,9999,9999,314795128
533,10,Ticks_ISO_T2_5,8,9999,9999,9999,315294828
533,10,Ticks_ISO_T2_5,9,9999,9999,9999,315794520
533,10,Ticks_ISO_T2_5,10,9999,9999,9999,316294208
533,10,Ticks_ISO_T2_5,11,9999,9999,9999,316795000
533,10,Ticks_ISO_T2_5,12,9999,9999,9999,317294696
533,10,Ticks_ISO_T2_5,13,9999,9999,9999,317794396
533,10,Ticks_ISO_T2_5,14,9999,9999,9999,318294092
533,10,Ticks_ISO_T2_5,15,9999,9999,9999,318794832
533,10,Ticks_ISO_T2_5,16,9999,9999,9999,319294520
533,10,Ticks_ISO_T2_5,17,9999,9999,9999,319794296
533,10,Ticks_ISO_T2_5,18,9999,9999,9999,320294960
533,10,Ticks_ISO_T2_5,19,9999,9999,9999,320794724
533,10,Ticks_ISO_T2_5,20,9999,9999,9999,321294420
533,10,Ticks_ISO_T2_5,21,9999,9999,9999,321794120
533,10,Ticks_ISO_T2_5,22,9999,9999,9999,322294860
533,10,Ticks_ISO_T2_5,23,9999,9999,9999,322794556
533,10,Ticks_ISO_T2_5,24,9999,9999,9999,323294324
533,10,Ticks_ISO_T2_5,25,9999,9999,9999,323795064
533,10,Ticks_ISO_T2_5,26,9999,9999,9999,324294760
533,10,Ticks_ISO_T2_5,27,9999,9999,9999,324794452
533,10,Ticks_ISO_T2_5,28,9999,9999,9999,325294144
533,10,Ticks_ISO_T2_5,29,9999,9999,9999,325794892
533,10,Ticks_ISO_T2_5,30,9999,9999,9999,326294584
533,10,Ticks_ISO_T2_5,31,9999,9999,9999,326794356
533,10,Ticks_ISO_T2_5,32,9999,9999,9999,327295068
533,10,Ticks_ISO_T2_5,33,9999,9999,9999,327794768
533,10,Ticks_ISO_T2_5,34,9999,9999,9999,328294464
533,10,Ticks_ISO_T2_5,35,9999,9999,9999,328794232
533,10,Ticks_ISO_T2_5,36,9999,9999,9999,329294964
533,10,Ticks_ISO_T2_5,37,9999,9999,9999,329794660
533,10,Ticks_ISO_T2_5,38,9999,9999,9999,330294356
533,10,Ticks_ISO_T2_5,39,9999,9999,9999,330795096
533,10,Ticks_ISO_T2_5,40,9999,9999,9999,331294792
533,10,Ticks_ISO_T2_5,41,9999,9999,9999,331794484
533,10,Ticks_ISO_T2_5,42,9999,9999,9999,332294256
533,10,Ticks_ISO_T2_5,43,9999,9999,9999,332794928
533,10,Ticks_ISO_T2_5,44,9999,9999,9999,333294696
533,10,Ticks_ISO_T2_5,45,9999,9999,9999,333794392
533,10,Ticks_ISO_T2_5,46,9999,9999,9999,334294088
533,10,Ticks_ISO_T2_5,47,9999,9999,9999,334794828
533,10,Ticks_ISO_T2_5,48,9999,9999,9999,335294524
533,10,Ticks_ISO_T2_5,49,9999,9999,9999,335794292
533,10,Ticks_ISO_T2_5,50,9999,9999,9999,336294960
533,10,Ticks_ISO_T2_5,51,9999,9999,9999,336794728
533,10,Ticks_ISO_T2_5,52,9999,9999,9999,337294424
533,10,Ticks_ISO_T2_5,53,9999,9999,9999,337794120
533,10,Ticks_ISO_T2_5,54,9999,9999,9999,338294836
533,10,Ticks_ISO_T2_5,55,9999,9999,9999,338794608
533,10,Ticks_ISO_T2_5,56,9999,9999,9999,339294304
533,10,Ticks_ISO_T2_5,57,9999,9999,9999,339795048
533,10,Ticks_ISO_T2_5,58,9999,9999,9999,340294740
533,10,Ticks_ISO_T2_5,59,9999,9999,9999,340794436
533,10,Ticks_ISO_T2_5,60,9999,9999,9999,341294132
533,10,Ticks_ISO_T2_5,61,9999,9999,9999,341794872
533,10,Ticks_ISO_T2_5,62,9999,9999,9999,342294640
533,10,Ticks_ISO_T2_5,63,9999,9999,9999,342794336
533,10,Ticks_ISO_T2_5,64,9999,9999,9999,343295076
533,10,Ticks_ISO_T2_5,65,9999,9999,9999,343794772
533,10,Ticks_ISO_T2_5,66,9999,9999,9999,344294468
533,10,Ticks_ISO_T2_5,67,9999,9999,9999,344794164
533,10,Ticks_ISO_T2_5,68,9999,9999,9999,345294904
533,10,Ticks_ISO_T2_5,69,9999,9999,9999,345794672
533,10,Ticks_ISO_T2_5,70,9999,9999,9999,346294368
533,10,Ticks_ISO_T2_5,71,9999,9999,9999,346795104
533,10,Ticks_ISO_T2_5,72,9999,9999,9999,347294804
533,10,Ticks_ISO_T2_5,73,9999,9999,9999,347794500
533,10,Ticks_ISO_T2_5,74,9999,9999,9999,348294264
533,10,Ticks_ISO_T2_5,75,9999,9999,9999,348794980
533,10,Ticks_ISO_T2_5,76,9999,9999,9999,349294676
533,10,Ticks_ISO_T2_5,77,9999,9999,9999,349794380
533,10,Ticks_ISO_T2_5,78,9999,9999,9999,350294068
533,10,Ticks_ISO_T2_5,79,9999,9999,9999,350794816
533,10,Ticks_ISO_T2_5,80,9999,9999,9999,351294532
533,10,Ticks_ISO_T2_5,81,9999,9999,9999,351794228
533,10,Ticks_ISO_T2_5,82,9999,9999,9999,352294988
533,10,Ticks_ISO_T2_5,83,9999,9999,9999,352794684
533,10,Ticks_ISO_T2_5,84,9999,9999,9999,353294400
533,10,Ticks_ISO_T2_5,85,9999,9999,9999,353794168
533,10,Ticks_ISO_T2_5,86,9999,9999,9999,354294836
533,10,Ticks_ISO_T2_5,87,9999,9999,9999,354794604
533,10,Ticks_ISO_T2_5,88,9999,9999,9999,355294300
533,10,Ticks_ISO_T2_5,89,9999,9999,9999,355795036
533,10,Ticks_ISO_T2_5,90,9999,9999,9999,356294732
533,10,Ticks_ISO_T2_5,91,9999,9999,9999,356794428
533,10,Ticks_ISO_T2_5,92,9999,9999,9999,357294128
533,10,Ticks_ISO_T2_5,93,9999,9999,9999,357794892
533,10,Ticks_ISO_T2_5,94,9999,9999,9999,358294600
533,10,Ticks_ISO_T2_5,95,9999,9999,9999,358794300
533,10,Ticks_ISO_T2_5,96,9999,9999,9999,359295092
533,10,Ticks_ISO_T2_5,97,9999,9999,9999,359794780
533,10,Ticks_ISO_T2_5,98,9999,9999,9999,360294476
533,10,Ticks_ISO_T2_5,99,9999,9999,9999,360794168
533,10,Ticks_ISO_T2_5,100,9999,9999,9999,361294916
533,10,Ticks_ISO_T2_5,101,9999,9999,9999,361794680
533,10,Ticks_ISO_T2_5,102,9999,9999,9999,362294372
533,10,Ticks_ISO_T2_5,103,9999,9999,9999,362795120
533,10,Ticks_ISO_T2_5,104,9999,9999,9999,363294816
533,10,Ticks_ISO_T2_5,105,9999,9999,9999,363794512
533,10,Ticks_ISO_T2_5,106,9999,9999,9999,364294204
533,10,Ticks_ISO_T2_5,107,9999,9999,9999,364794940
533,10,Ticks_ISO_T2_5,108,9999,9999,9999,365294640
533,10,Ticks_ISO_T2_5,109,9999,9999,9999,365794412
533,10,Ticks_ISO_T2_5,110,9999,9999,9999,366294104
533,10,Ticks_ISO_T2_5,111,9999,9999,9999,366794848
533,10,Ticks_ISO_T2_5,112,9999,9999,9999,367294540
533,10,Ticks_ISO_T2_5,113,9999,9999,9999,367794236
533,10,Ticks_ISO_T2_5,114,9999,9999,9999,368294972
533,10,Ticks_ISO_T2_5,115,9999,9999,9999,368794740
533,10,Ticks_ISO_T2_5,116,9999,9999,9999,369294444
533,10,Ticks_ISO_T2_5,117,9999,9999,9999,369794140
533,10,Ticks_ISO_T2_5,118,9999,9999,9999,370294852
533,10,Ticks_ISO_T2_5,119,9999,9999,9999,370794544
533,10,Ticks_ISO_T2_5,120,9999,9999,9999,371294312
533,10,Ticks_ISO_T2_5,121,9999,9999,9999,371795056
533,10,Ticks_ISO_T2_5,122,9999,9999,9999,372294756
533,10,Ticks_ISO_T2_5,123,9999,9999,9999,372794448
533,10,Ticks_ISO_T2_5,124,9999,9999,9999,373294144
533,10,Ticks_ISO_T2_5,125,9999,9999,9999,373794884
533,10,Ticks_ISO_T2_5,126,9999,9999,9999,374294580
533,10,Ticks_ISO_T2_5,127,9999,9999,9999,374794344
533,10,Ticks_ISO_T2_5,128,9999,9999,9999,375295092
533,10,Ticks_ISO_T2_5,129,9999,9999,9999,375794780
534,9,Ticks_ISO_T2_8,0,5,42,127,388421000
534,9,Ticks_ISO_T2_8,1,5,42,127,389220608
534,9,Ticks_ISO_T2_8,2,1,48,14,389441112
534,9,Ticks_ISO_T2_8,3,1,48,16,389986792
534,9,Ticks_ISO_T2_8,4,5,42,127,390020580
534,9,Ticks_ISO_T2_8,5,1,48,22,390761764
534,9,Ticks_ISO_T2_8,6,5,42,127,390821360
534,9,Ticks_ISO_T2_8,7,1,48,22,391580148
534,9,Ticks_ISO_T2_8,8,5,42,127,391621092
534,9,Ticks_ISO_T2_8,9,1,48,23,392416384
534,9,Ticks_ISO_T2_8,10,5,42,127,392420604
534,9,Ticks_ISO_T2_8,11,1,48,22,393212744
534,9,Ticks_ISO_T2_8,12,5,42,127,393220336
534,9,Ticks_ISO_T2_8,13,1,48,22,393989592
534,9,Ticks_ISO_T2_8,14,5,42,127,394021264
534,9,Ticks_ISO_T2_8,15,1,48,19,394817680
534,9,Ticks_ISO_T2_8,16,5,42,127,394821000
534,9,Ticks_ISO_T2_8,17,1,48,24,395620216
534,9,Ticks_ISO_T2_8,18,5,42,127,395621708
534,9,Ticks_ISO_T2_8,19,5,42,127,396420428
534,9,Ticks_ISO_T2_8,20,1,48,27,396428032
534,9,Ticks_ISO_T2_8,21,5,42,127,397221208
534,9,Ticks_ISO_T2_8,22,1,48,22,397282140
534,9,Ticks_ISO_T2_8,23,5,42,127,398021164
534,9,Ticks_ISO_T2_8,24,1,48,21,398030788
534,9,Ticks_ISO_T2_8,25,5,42,127,398820600
534,9,Ticks_ISO_T2_8,26,1,48,18,398840848
534,9,Ticks_ISO_T2_8,27,5,42,127,399620480
534,9,Ticks_ISO_T2_8,28,1,48,21,399633844
534,9,Ticks_ISO_T2_8,29,1,48,21,400415236
534,9,Ticks_ISO_T2_8,30,5,42,127,400421104
534,9,Ticks_ISO_T2_8,31,5,42,127,401221216
534,9,Ticks_ISO_T2_8,32,1,48,19,401299912
534,9,Ticks_ISO_T2_8,33,1,48,20,402011936
534,9,Ticks_ISO_T2_8,34,5,42,127,402020648
534,9,Ticks_ISO_T2_8,35,1,48,18,402782572
534,9,Ticks_ISO_T2_8,36,5,42,127,402820628
534,9,Ticks_ISO_T2_8,37,1,48,20,403581432
534,9,Ticks_ISO_T2_8,38,5,42,127,403621332
534,9,Ticks_ISO_T2_8,39,5,42,127,404421004
534,9,Ticks_ISO_T2_8,40,1,48,17,404425768
534,9,Ticks_ISO_T2_8,41,5,42,127,405220884
534,9,Ticks_ISO_T2_8,42,1,48,23,405223324
534,9,Ticks_ISO_T2_8,43,5,42,127,406020392
534,9,Ticks_ISO_T2_8,44,1,48,24,406086636
534,9,Ticks_ISO_T2_8,45,1,48,29,406807444
534,9,Ticks_ISO_T2_8,46,5,42,127,406821316
534,9,Ticks_ISO_T2_8,47,1,48,25,407593044
534,9,Ticks_ISO_T2_8,48,5,42,127,407620900
534,9,Ticks_ISO_T2_8,49,5,42,127,408420940
534,9,Ticks_ISO_T2_8,50,1,48,30,408428700
534,9,Ticks_ISO_T2_8,51,5,42,127,409220696
534,9,Ticks_ISO_T2_8,52,1,48,25,409239004
534,9,Ticks_ISO_T2_8,53,1,48,23,409998552
534,9,Ticks_ISO_T2_8,54,5,42,127,410021248
534,9,Ticks_ISO_T2_8,55,1,48,24,410800528
534,9,Ticks_ISO_T2_8,56,5,42,127,410820984
534,9,Ticks_ISO_T2_8,57,1,48,28,411601236
534,9,Ticks_ISO_T2_8,58,5,42,127,411621012
534,9,Ticks_ISO_T2_8,59,1,48,29,412371944
534,9,Ticks_ISO_T2_8,60,5,42,127,412420748
534,9,Ticks_ISO_T2_8,61,1,48,29,413197032
534,9,Ticks_ISO_T2_8,62,5,42,127,413221152
534,9,Ticks_ISO_T2_8,63,1,48,26,413993400
534,9,Ticks_ISO_T2_8,64,5,42,127,414020888
534,9,Ticks_ISO_T2_8,65,1,48,28,414810860
534,9,Ticks_ISO_T2_8,66,5,42,127,414820696
534,9,Ticks_ISO_T2_8,67,5,42,127,415620684
534,9,Ticks_ISO_T2_8,68,1,48,25,415626120
534,9,Ticks_ISO_T2_8,69,5,42,127,416421240
534,9,Ticks_ISO_T2_8,70,1,48,27,416452036
534,9,Ticks_ISO_T2_8,71,5,42,127,417220824
534,9,Ticks_ISO_T2_8,72,1,48,25,417232764
534,9,Ticks_ISO_T2_8,73,5,42,127,418020632
534,9,Ticks_ISO_T2_8,74,1,48,22,418047460
534,9,Ticks_ISO_T2_8,75,5,42,127,418820736
534,9,Ticks_ISO_T2_8,76,1,48,24,418848764
534,9,Ticks_ISO_T2_8,77,5,42,127,419621144
534,9,Ticks_ISO_T2_8,78,1,48,25,419641692
534,9,Ticks_ISO_T2_8,79,5,42,127,420420876
534,9,Ticks_ISO_T2_8,80,1,48,22,420428260
534,9,Ticks_ISO_T2_8,81,5,42,127,421220608
534,9,Ticks_ISO_T2_8,82,1,48,24,421254272
534,9,Ticks_ISO_T2_8,83,1,48,27,421998312
534,9,Ticks_ISO_T2_8,84,5,42,127,422020360
534,9,Ticks_ISO_T2_8,85,1,48,21,422782512
534,9,Ticks_ISO_T2_8,86,5,42,127,422821364
534,9,Ticks_ISO_T2_8,87,1,48,20,423620660
534,9,Ticks_ISO_T2_8,88,5,42,127,423622368
534,9,Ticks_ISO_T2_8,89,5,42,127,424420840
534,9,Ticks_ISO_T2_8,90,1,48,24,424442508
534,9,Ticks_ISO_T2_8,91,1,48,14,425215744
534,9,Ticks_ISO_T2_8,92,5,42,127,425220496
534,9,Ticks_ISO_T2_8,93,1,48,20,425989752
534,9,Ticks_ISO_T2_8,94,5,42,127,426021424
534,9,Ticks_ISO_T2_8,95,1,48,21,426799436
534,9,Ticks_ISO_T2_8,96,5,42,127,426821008
534,9,Ticks_ISO_T2_8,97,1,48,16,427618164
534,9,Ticks_ISO_T2_8,98,5,42,127,427620664
534,9,Ticks_ISO_T2_8,99,5,42,127,428420356
534,9,Ticks_ISO_T2_8,100,1,48,20,428443672
534,9,Ticks_ISO_T2_8,101,5,42,127,429221432
534,9,Ticks_ISO_T2_8,102,1,48,18,429296280
534,9,Ticks_ISO_T2_8,103,1,48,22,429983880
534,9,Ticks_ISO_T2_8,104,5,42,127,430020864
534,9,Ticks_ISO_T2_8,105,1,48,22,430808224
534,9,Ticks_ISO_T2_8,106,5,42,127,430820672
534,9,Ticks_ISO_T2_8,107,1,48,24,431579828
534,9,Ticks_ISO_T2_8,108,5,42,127,431620328
534,9,Ticks_ISO_T2_8,109,5,42,127,432421264
534,9,Ticks_ISO_T2_8,110,1,48,19,432423856
534,9,Ticks_ISO_T2_8,111,5,42,127,433221220
534,9,Ticks_ISO_T2_8,112,1,48,21,433243564
534,9,Ticks_ISO_T2_8,113,5,42,127,434020656
534,9,Ticks_ISO_T2_8,114,1,48,18,434045044
534,9,Ticks_ISO_T2_8,115,5,42,127,434820416
534,9,Ticks_ISO_T2_8,116,1,48,20,434825404
534,9,Ticks_ISO_T2_8,117,5,42,127,435621268
534,9,Ticks_ISO_T2_8,118,1,48,15,435660968
534,9,Ticks_ISO_T2_8,119,1,48,23,436409744
534,9,Ticks_ISO_T2_8,120,5,42,127,436421144
534,9,Ticks_ISO_T2_8,121,1,48,17,437178440
534,9,Ticks_ISO_T2_8,122,5,42,127,437220584
534,9,Ticks_ISO_T2_8,123,1,48,14,438016244
534,9,Ticks_ISO_T2_8,124,5,42,127,438020392
534,9,Ticks_ISO_T2_8,125,1,48,14,438819284
534,9,Ticks_ISO_T2_8,126,5,42,127,438821172
534,9,Ticks_ISO_T2_8,127,1,48,21,439604112
534,9,Ticks_ISO_T2_8,128,5,42,127,439621124
534,9,Ticks_ISO_T2_8,129,5,42,127,440420868
534,9,Ticks_ISO_T2_8,130,1,48,19,440430268
534,9,Ticks_ISO_T2_8,131,5,42,127,441220400
534,9,Ticks_ISO_T2_8,132,1,48,21,441250520
534,9,Ticks_ISO_T2_8,133,1,48,25,441979404
534,9,Ticks_ISO_T2_8,134,5,42,127,442021100
534,9,Ticks_ISO_T2_8,135,1,48,21,442806060
534,9,Ticks_ISO_T2_8,136,5,42,127,442820908
534,9,Ticks_ISO_T2_8,137,1,48,24,443591656
534,9,Ticks_ISO_T2_8,138,5,42,127,443620864
534,9,Ticks_ISO_T2_8,139,1,48,27,444403660
534,9,Ticks_ISO_T2_8,140,5,42,127,444420452
534,9,Ticks_ISO_T2_8,141,1,48,25,445208180
534,9,Ticks_ISO_T2_8,142,5,42,127,445221156
534,9,Ticks_ISO_T2_8,143,1,48,20,446004548
534,9,Ticks_ISO_T2_8,144,5,42,127,446020964
534,9,Ticks_ISO_T2_8,145,5,42,127,446821000
534,9,Ticks_ISO_T2_8,146,1,48,19,446885628
534,9,Ticks_ISO_T2_8,147,5,42,127,447620312
534,9,Ticks_ISO_T2_8,148,1,48,18,447649684
534,9,Ticks_ISO_T2_8,149,1,48,19,448419048
534,9,Ticks_ISO_T2_8,150,5,42,127,448421160
534,9,Ticks_ISO_T2_8,151,5,42,127,449220900
534,9,Ticks_ISO_T2_8,152,1,48,17,449229776
534,9,Ticks_ISO_T2_8,153,1,48,18,449993816
534,9,Ticks_ISO_T2_8,154,5,42,127,450020852
534,9,Ticks_ISO_T2_8,155,1,48,21,450805588
534,9,Ticks_ISO_T2_8,156,5,42,127,450820732
534,9,Ticks_ISO_T2_8,157,1,48,19,451614752
534,9,Ticks_ISO_T2_8,158,5,42,127,451621144
534,9,Ticks_ISO_T2_8,159,1,48,20,452387704
534,9,Ticks_ISO_T2_8,160,5,42,127,452420948
534,9,Ticks_ISO_T2_8,161,5,42,127,453220688
534,9,Ticks_ISO_T2_8,162,1,48,23,453229120
534,9,Ticks_ISO_T2_8,163,1,48,18,454020068
534,9,Ticks_ISO_T2_8,164,5,42,127,454021636
534,9,Ticks_ISO_T2_8,165,1,48,18,454797100
534,9,Ticks_ISO_T2_8,166,5,42,127,454821144
534,9,Ticks_ISO_T2_8,167,1,48,14,455609324
534,9,Ticks_ISO_T2_8,168,5,42,127,455620876
534,9,Ticks_ISO_T2_8,169,5,42,127,456420692
534,9,Ticks_ISO_T2_8,170,1,48,16,456431816
534,9,Ticks_ISO_T2_8,171,1,48,17,457187172
534,9,Ticks_ISO_T2_8,172,5,42,127,457220568
534,9,Ticks_ISO_T2_8,173,5,42,127,458021208
534,9,Ticks_ISO_T2_8,174,1,48,17,458045340
534,9,Ticks_ISO_T2_8,175,5,42,127,458821016
534,9,Ticks_ISO_T2_8,176,1,48,14,458853604
534,9,Ticks_ISO_T2_8,177,5,42,127,459620596
534,9,Ticks_ISO_T2_8,178,1,48,28,459648052
534,9,Ticks_ISO_T2_8,179,5,42,127,460420428
534,9,Ticks_ISO_T2_8,180,1,48,27,460440904
534,9,Ticks_ISO_T2_8,181,5,42,127,461221356
534,9,Ticks_ISO_T2_8,182,1,48,33,461253872
534,9,Ticks_ISO_T2_8,183,1,48,35,462009832
534,9,Ticks_ISO_T2_8,184,5,42,127,462020860
534,9,Ticks_ISO_T2_8,185,5,42,127,462820600
534,9,Ticks_ISO_T2_8,186,1,48,26,462843688
534,9,Ticks_ISO_T2_8,187,5,42,127,463620408
534,9,Ticks_ISO_T2_8,188,1,48,31,463657484
534,9,Ticks_ISO_T2_8,189,1,48,24,464414264
534,9,Ticks_ISO_T2_8,190,5,42,127,464421404
534,9,Ticks_ISO_T2_8,191,5,42,127,465220924
534,9,Ticks_ISO_T2_8,192,1,48,27,465223588
534,9,Ticks_ISO_T2_8,193,5,42,127,466020808
534,9,Ticks_ISO_T2_8,194,1,48,27,466039780
534,9,Ticks_ISO_T2_8,195,1,48,25,466812816
534,9,Ticks_ISO_T2_8,196,5,42,127,466820336
534,9,Ticks_ISO_T2_8,197,5,42,127,467621420
534,9,Ticks_ISO_T2_8,198,1,48,24,467637104
534,9,Ticks_ISO_T2_8,199,1,48,25,468412060
534,9,Ticks_ISO_T2_8,200,5,42,127,468421144
534,9,Ticks_ISO_T2_8,201,5,42,127,469220736
534,9,Ticks_ISO_T2_8,202,1,48,21,469223484
534,9,Ticks_ISO_T2_8,203,5,42,127,470020472
534,9,Ticks_ISO_T2_8,204,1,48,19,470037952
534,9,Ticks_ISO_T2_8,205,5,42,127,470821400
534,9,Ticks_ISO_T2_8,206,1,48,20,470848156
534,9,Ticks_ISO_T2_8,207,1,48,19,471619092
534,9,Ticks_ISO_T2_8,208,5,42,127,471621052
534,9,Ticks_ISO_T2_8,209,5,42,127,472420644
534,9,Ticks_ISO_T2_8,210,1,48,21,472423464
534,9,Ticks_ISO_T2_8,211,5,42,127,473220476
534,9,Ticks_ISO_T2_8,212,1,48,19,473254484
534,9,Ticks_ISO_T2_8,213,5,42,127,474021256
534,9,Ticks_ISO_T2_8,214,1,48,17,474036492
534,9,Ticks_ISO_T2_8,215,5,42,127,474821136
534,9,Ticks_ISO_T2_8,216,1,48,21,474822104
534,9,Ticks_ISO_T2_8,217,5,42,127,475620648
534,9,Ticks_ISO_T2_8,218,1,48,21,475632964
534,9,Ticks_ISO_T2_8,219,5,42,127,476420456
534,9,Ticks_ISO_T2_8,220,1,48,30,476430828
534,9,Ticks_ISO_T2_8,221,5,42,127,477221160
534,9,Ticks_ISO_T2_8,222,1,48,19,477222128
534,9,Ticks_ISO_T2_8,223,5,42,127,478021116
534,9,Ticks_ISO_T2_8,224,1,48,17,478073552
534,9,Ticks_ISO_T2_8,225,1,48,13,478818348
534,9,Ticks_ISO_T2_8,226,5,42,127,478820696
534,9,Ticks_ISO_T2_8,227,1,48,19,479617504
534,9,Ticks_ISO_T2_8,228,5,42,127,479620604
534,9,Ticks_ISO_T2_8,229,1,48,18,480394648
534,9,Ticks_ISO_T2_8,230,5,42,127,480421160
534,9,Ticks_ISO_T2_8,231,5,42,127,481220824
534,9,Ticks_ISO_T2_8,232,1,48,18,481252960
534,9,Ticks_ISO_T2_8,233,5,42,127,482021004
534,9,Ticks_ISO_T2_8,234,1,48,18,482047536
534,9,Ticks_ISO_T2_8,235,1,48,18,482804920
534,9,Ticks_ISO_T2_8,236,5,42,127,482820508
534,9,Ticks_ISO_T2_8,237,1,48,21,483598744
534,9,Ticks_ISO_T2_8,238,5,42,127,483621212
534,9,Ticks_ISO_T2_8,0,9999,9999,9999,388418636
534,9,Ticks_ISO_T2_8,1,9999,9999,9999,389218392
534,9,Ticks_ISO_T2_8,2,9999,9999,9999,390018144
534,9,Ticks_ISO_T2_8,3,9999,9999,9999,390818924
534,9,Ticks_ISO_T2_8,4,9999,9999,9999,391618656
534,9,Ticks_ISO_T2_8,5,9999,9999,9999,392418388
534,9,Ticks_ISO_T2_8,6,9999,9999,9999,393218124
534,9,Ticks_ISO_T2_8,7,9999,9999,9999,394018904
534,9,Ticks_ISO_T2_8,8,9999,9999,9999,394818640
534,9,Ticks_ISO_T2_8,9,9999,9999,9999,395618380
534,9,Ticks_ISO_T2_8,10,9999,9999,9999,396418140
534,9,Ticks_ISO_T2_8,11,9999,9999,9999,397218920
534,9,Ticks_ISO_T2_8,12,9999,9999,9999,398018652
534,9,Ticks_ISO_T2_8,13,9999,9999,9999,398818384
534,9,Ticks_ISO_T2_8,14,9999,9999,9999,399618116
534,9,Ticks_ISO_T2_8,15,9999,9999,9999,400418892
534,9,Ticks_ISO_T2_8,16,9999,9999,9999,401218632
534,9,Ticks_ISO_T2_8,17,9999,9999,9999,402018360
534,9,Ticks_ISO_T2_8,18,9999,9999,9999,402818120
534,9,Ticks_ISO_T2_8,19,9999,9999,9999,403618896
534,9,Ticks_ISO_T2_8,20,9999,9999,9999,404418640
534,9,Ticks_ISO_T2_8,21,9999,9999,9999,405218372
534,9,Ticks_ISO_T2_8,22,9999,9999,9999,406018104
534,9,Ticks_ISO_T2_8,23,9999,9999,9999,406818880
534,9,Ticks_ISO_T2_8,24,9999,9999,9999,407618612
534,9,Ticks_ISO_T2_8,25,9999,9999,9999,408418352
534,9,Ticks_ISO_T2_8,26,9999,9999,9999,409218112
534,9,Ticks_ISO_T2_8,27,9999,9999,9999,410018884
534,9,Ticks_ISO_T2_8,28,9999,9999,9999,410818620
534,9,Ticks_ISO_T2_8,29,9999,9999,9999,411618352
534,9,Ticks_ISO_T2_8,30,9999,9999,9999,412418160
534,9,Ticks_ISO_T2_8,31,9999,9999,9999,413218864
534,9,Ticks_ISO_T2_8,32,9999,9999,9999,414018672
534,9,Ticks_ISO_T2_8,33,9999,9999,9999,414818408
534,9,Ticks_ISO_T2_8,34,9999,9999,9999,415618096
534,9,Ticks_ISO_T2_8,35,9999,9999,9999,416418880
534,9,Ticks_ISO_T2_8,36,9999,9999,9999,417218612
534,9,Ticks_ISO_T2_8,37,9999,9999,9999,418018420
534,9,Ticks_ISO_T2_8,38,9999,9999,9999,418818152
534,9,Ticks_ISO_T2_8,39,9999,9999,9999,419618932
534,9,Ticks_ISO_T2_8,40,9999,9999,9999,420418664
534,9,Ticks_ISO_T2_8,41,9999,9999,9999,421218396
534,9,Ticks_ISO_T2_8,42,9999,9999,9999,422018148
534,9,Ticks_ISO_T2_8,43,9999,9999,9999,422818928
534,9,Ticks_ISO_T2_8,44,9999,9999,9999,423618668
534,9,Ticks_ISO_T2_8,45,9999,9999,9999,424418404
534,9,Ticks_ISO_T2_8,46,9999,9999,9999,425218132
534,9,Ticks_ISO_T2_8,47,9999,9999,9999,426018912
534,9,Ticks_ISO_T2_8,48,9999,9999,9999,426818644
534,9,Ticks_ISO_T2_8,49,9999,9999,9999,427618380
534,9,Ticks_ISO_T2_8,50,9999,9999,9999,428418144
534,9,Ticks_ISO_T2_8,51,9999,9999,9999,429218920
534,9,Ticks_ISO_T2_8,52,9999,9999,9999,430018648
534,9,Ticks_ISO_T2_8,53,9999,9999,9999,430818384
534,9,Ticks_ISO_T2_8,54,9999,9999,9999,431618116
534,9,Ticks_ISO_T2_8,55,9999,9999,9999,432418900
534,9,Ticks_ISO_T2_8,56,9999,9999,9999,433218636
534,9,Ticks_ISO_T2_8,57,9999,9999,9999,434018368
534,9,Ticks_ISO_T2_8,58,9999,9999,9999,434818128
534,9,Ticks_ISO_T2_8,59,9999,9999,9999,435618908
534,9,Ticks_ISO_T2_8,60,9999,9999,9999,436418636
534,9,Ticks_ISO_T2_8,61,9999,9999,9999,437218368
534,9,Ticks_ISO_T2_8,62,9999,9999,9999,438018104
534,9,Ticks_ISO_T2_8,63,9999,9999,9999,438818912
534,9,Ticks_ISO_T2_8,64,9999,9999,9999,439618616
534,9,Ticks_ISO_T2_8,65,9999,9999,9999,440418356
534,9,Ticks_ISO_T2_8,66,9999,9999,9999,441218112
534,9,Ticks_ISO_T2_8,67,9999,9999,9999,442018888
534,9,Ticks_ISO_T2_8,68,9999,9999,9999,442818620
534,9,Ticks_ISO_T2_8,69,9999,9999,9999,443618352
534,9,Ticks_ISO_T2_8,70,9999,9999,9999,444418164
534,9,Ticks_ISO_T2_8,71,9999,9999,9999,445218868
534,9,Ticks_ISO_T2_8,72,9999,9999,9999,446018676
534,9,Ticks_ISO_T2_8,73,9999,9999,9999,446818416
534,9,Ticks_ISO_T2_8,74,9999,9999,9999,447618100
534,9,Ticks_ISO_T2_8,75,9999,9999,9999,448418912
534,9,Ticks_ISO_T2_8,76,9999,9999,9999,449218612
534,9,Ticks_ISO_T2_8,77,9999,9999,9999,450018416
534,9,Ticks_ISO_T2_8,78,9999,9999,9999,450818148
534,9,Ticks_ISO_T2_8,79,9999,9999,9999,451618928
534,9,Ticks_ISO_T2_8,80,9999,9999,9999,452418664
534,9,Ticks_ISO_T2_8,81,9999,9999,9999,453218400
534,9,Ticks_ISO_T2_8,82,9999,9999,9999,454018160
534,9,Ticks_ISO_T2_8,83,9999,9999,9999,454818932
534,9,Ticks_ISO_T2_8,84,9999,9999,9999,455618664
534,9,Ticks_ISO_T2_8,85,9999,9999,9999,456418404
534,9,Ticks_ISO_T2_8,86,9999,9999,9999,457218132
534,9,Ticks_ISO_T2_8,87,9999,9999,9999,458018920
534,9,Ticks_ISO_T2_8,88,9999,9999,9999,458818652
534,9,Ticks_ISO_T2_8,89,9999,9999,9999,459618384
534,9,Ticks_ISO_T2_8,90,9999,9999,9999,460418140
534,9,Ticks_ISO_T2_8,91,9999,9999,9999,461218920
534,9,Ticks_ISO_T2_8,92,9999,9999,9999,462018648
534,9,Ticks_ISO_T2_8,93,9999,9999,9999,462818388
534,9,Ticks_ISO_T2_8,94,9999,9999,9999,463618120
534,9,Ticks_ISO_T2_8,95,9999,9999,9999,464418896
534,9,Ticks_ISO_T2_8,96,9999,9999,9999,465218636
534,9,Ticks_ISO_T2_8,97,9999,9999,9999,466018368
534,9,Ticks_ISO_T2_8,98,9999,9999,9999,466818120
534,9,Ticks_ISO_T2_8,99,9999,9999,9999,467618908
534,9,Ticks_ISO_T2_8,100,9999,9999,9999,468418636
534,9,Ticks_ISO_T2_8,101,9999,9999,9999,469218376
534,9,Ticks_ISO_T2_8,102,9999,9999,9999,470018108
534,9,Ticks_ISO_T2_8,103,9999,9999,9999,470818888
534,9,Ticks_ISO_T2_8,104,9999,9999,9999,471618640
534,9,Ticks_ISO_T2_8,105,9999,9999,9999,472418356
534,9,Ticks_ISO_T2_8,106,9999,9999,9999,473218112
534,9,Ticks_ISO_T2_8,107,9999,9999,9999,474018892
534,9,Ticks_ISO_T2_8,108,9999,9999,9999,474818628
534,9,Ticks_ISO_T2_8,109,9999,9999,9999,475618360
534,9,Ticks_ISO_T2_8,110,9999,9999,9999,476418168
534,9,Ticks_ISO_T2_8,111,9999,9999,9999,477218872
534,9,Ticks_ISO_T2_8,112,9999,9999,9999,478018608
534,9,Ticks_ISO_T2_8,113,9999,9999,9999,478818408
534,9,Ticks_ISO_T2_8,114,9999,9999,9999,479618164
534,9,Ticks_ISO_T2_8,115,9999,9999,9999,480418872
534,9,Ticks_ISO_T2_8,116,9999,9999,9999,481218612
534,9,Ticks_ISO_T2_8,117,9999,9999,9999,482018420
534,9,Ticks_ISO_T2_8,118,9999,9999,9999,482818148
534,9,Ticks_ISO_T2_8,119,9999,9999,9999,483618924
535,25,Jits_Pract_5,0,5,56,103,539527580
535,25,Jits_Pract_5,1,5,63,98,539530676
535,25,Jits_Pract_5,2,5,80,127,539533796
535,25,Jits_Pract_5,0,5,56,103,540037452
535,25,Jits_Pract_5,1,5,63,98,540040476
535,25,Jits_Pract_5,2,5,80,127,540043672
535,25,Jits_Pract_5,3,1,48,24,540240972
535,25,Jits_Pract_5,0,5,56,103,540538360
535,25,Jits_Pract_5,1,5,80,127,540547584
535,25,Jits_Pract_5,2,5,63,98,540567820
535,25,Jits_Pract_5,3,1,48,29,540599408
535,25,Jits_Pract_5,0,5,63,98,540987696
535,25,Jits_Pract_5,1,5,80,127,541017448
535,25,Jits_Pract_5,2,5,56,103,541027640
535,25,Jits_Pract_5,3,1,48,24,541058356
535,25,Jits_Pract_5,0,1,48,30,541515436
535,25,Jits_Pract_5,1,5,80,127,541547772
535,25,Jits_Pract_5,2,5,56,103,541558288
535,25,Jits_Pract_5,3,5,63,98,541587740
535,25,Jits_Pract_5,0,5,63,98,542038336
535,25,Jits_Pract_5,1,5,56,103,542068160
535,25,Jits_Pract_5,2,1,48,28,542070532
535,25,Jits_Pract_5,3,5,80,127,542078500
535,25,Jits_Pract_5,0,5,56,103,542488116
535,25,Jits_Pract_5,1,5,63,98,542538244
535,25,Jits_Pract_5,2,5,80,127,542557508
535,25,Jits_Pract_5,3,1,48,23,542564440
535,25,Jits_Pract_5,0,5,80,127,542987604
535,25,Jits_Pract_5,1,1,48,24,543030728
535,25,Jits_Pract_5,2,5,63,98,543037800
535,25,Jits_Pract_5,3,5,56,103,543077736
535,25,Jits_Pract_5,0,5,56,103,543488288
535,25,Jits_Pract_5,1,5,63,98,543518336
535,25,Jits_Pract_5,2,1,48,26,543549324
535,25,Jits_Pract_5,3,5,80,127,543587636
535,25,Jits_Pract_5,0,5,56,103,543988224
535,25,Jits_Pract_5,1,1,48,24,543996440
535,25,Jits_Pract_5,2,5,80,127,544047484
535,25,Jits_Pract_5,3,5,63,98,544078504
535,25,Jits_Pract_5,0,5,56,103,544498128
535,25,Jits_Pract_5,1,5,63,98,544508324
535,25,Jits_Pract_5,2,1,48,28,544529652
535,25,Jits_Pract_5,3,5,80,127,544548328
535,25,Jits_Pract_5,0,5,63,98,544987500
535,25,Jits_Pract_5,1,1,48,27,545021780
535,25,Jits_Pract_5,2,5,80,127,545068336
535,25,Jits_Pract_5,3,5,56,103,545077632
535,25,Jits_Pract_5,0,1,48,29,545518636
535,25,Jits_Pract_5,1,5,63,98,545538436
535,25,Jits_Pract_5,2,5,56,103,545578300
535,25,Jits_Pract_5,3,5,80,127,545581292
535,25,Jits_Pract_5,0,5,56,103,545998200
535,25,Jits_Pract_5,1,5,63,98,546008396
535,25,Jits_Pract_5,2,1,48,27,546037896
535,25,Jits_Pract_5,3,5,80,127,546048252
535,25,Jits_Pract_5,0,5,56,103,546487864
535,25,Jits_Pract_5,1,5,63,98,546490856
535,25,Jits_Pract_5,2,5,80,127,546508100
535,25,Jits_Pract_5,3,1,48,27,546535032
535,25,Jits_Pract_5,0,9999,9999,9999,539776064
535,25,Jits_Pract_5,1,9999,9999,9999,540286000
535,25,Jits_Pract_5,2,9999,9999,9999,540785748
535,25,Jits_Pract_5,3,9999,9999,9999,541285452
535,25,Jits_Pract_5,4,9999,9999,9999,541785156
535,25,Jits_Pract_5,5,9999,9999,9999,542285880
535,25,Jits_Pract_5,6,9999,9999,9999,542785652
535,25,Jits_Pract_5,7,9999,9999,9999,543285364
535,25,Jits_Pract_5,8,9999,9999,9999,543786048
535,25,Jits_Pract_5,9,9999,9999,9999,544285760
535,25,Jits_Pract_5,10,9999,9999,9999,544785472
535,25,Jits_Pract_5,11,9999,9999,9999,545285188
535,25,Jits_Pract_5,12,9999,9999,9999,545785924
535,25,Jits_Pract_5,13,9999,9999,9999,546285620
535,25,Jits_Pract_5,14,9999,9999,9999,546785388
536,25,Jits_Pract_5,0,5,56,103,607542600
536,25,Jits_Pract_5,1,5,63,98,607545696
536,25,Jits_Pract_5,2,5,80,127,607548896
536,25,Jits_Pract_5,0,5,56,103,608043632
536,25,Jits_Pract_5,1,5,63,98,608046808
536,25,Jits_Pract_5,2,5,80,127,608049852
536,25,Jits_Pract_5,3,1,48,19,608155488
536,25,Jits_Pract_5,0,5,56,103,608543196
536,25,Jits_Pract_5,1,5,80,127,608553688
536,25,Jits_Pract_5,2,1,48,27,608569988
536,25,Jits_Pract_5,3,5,63,98,608572724
536,25,Jits_Pract_5,0,5,63,98,608992636
536,25,Jits_Pract_5,1,5,80,127,609023436
536,25,Jits_Pract_5,2,5,56,103,609032584
536,25,Jits_Pract_5,3,1,48,24,609049404
536,25,Jits_Pract_5,0,1,48,24,609518968
536,25,Jits_Pract_5,1,5,80,127,609552716
536,25,Jits_Pract_5,2,5,56,103,609562988
536,25,Jits_Pract_5,3,5,63,98,609592660
536,25,Jits_Pract_5,0,5,63,98,610043508
536,25,Jits_Pract_5,1,5,56,103,610072964
536,25,Jits_Pract_5,2,1,48,20,610079448
536,25,Jits_Pract_5,3,5,80,127,610083376
536,25,Jits_Pract_5,0,5,56,103,610492644
536,25,Jits_Pract_5,1,5,63,98,610543068
536,25,Jits_Pract_5,2,5,80,127,610562332
536,25,Jits_Pract_5,3,1,48,21,610563300
536,25,Jits_Pract_5,0,5,80,127,610992360
536,25,Jits_Pract_5,1,1,48,21,611018324
536,25,Jits_Pract_5,2,5,63,98,611042556
536,25,Jits_Pract_5,3,5,56,103,611082568
536,25,Jits_Pract_5,0,5,56,103,611493416
536,25,Jits_Pract_5,1,5,63,98,611522872
536,25,Jits_Pract_5,2,1,48,26,611578796
536,25,Jits_Pract_5,3,5,80,127,611592616
536,25,Jits_Pract_5,0,5,56,103,611992908
536,25,Jits_Pract_5,1,1,48,24,612040148
536,25,Jits_Pract_5,2,5,80,127,612053516
536,25,Jits_Pract_5,3,5,63,98,612082968
536,25,Jits_Pract_5,0,5,56,103,612502960
536,25,Jits_Pract_5,1,1,48,27,612513604
536,25,Jits_Pract_5,2,5,63,98,612514792
536,25,Jits_Pract_5,3,5,80,127,612553312
536,25,Jits_Pract_5,0,5,63,98,612993532
536,25,Jits_Pract_5,1,1,48,29,613037108
536,25,Jits_Pract_5,2,5,80,127,613073472
536,25,Jits_Pract_5,3,5,56,103,613082544
536,25,Jits_Pract_5,0,1,48,27,613519492
536,25,Jits_Pract_5,1,5,63,98,613552564
536,25,Jits_Pract_5,2,5,56,103,613592504
536,25,Jits_Pract_5,3,5,80,127,613595716
536,25,Jits_Pract_5,0,5,56,103,614013380
536,25,Jits_Pract_5,1,5,63,98,614022456
536,25,Jits_Pract_5,2,1,48,29,614026548
536,25,Jits_Pract_5,3,5,80,127,614062388
536,25,Jits_Pract_5,0,5,56,103,614502728
536,25,Jits_Pract_5,1,5,63,98,614505644
536,25,Jits_Pract_5,2,5,80,127,614523432
536,25,Jits_Pract_5,3,1,48,31,614533300
536,25,Jits_Pract_5,0,9999,9999,9999,607790188
536,25,Jits_Pract_5,1,9999,9999,9999,608290900
536,25,Jits_Pract_5,2,9999,9999,9999,608790616
536,25,Jits_Pract_5,3,9999,9999,9999,609290324
536,25,Jits_Pract_5,4,9999,9999,9999,609791076
536,25,Jits_Pract_5,5,9999,9999,9999,610290784
536,25,Jits_Pract_5,6,9999,9999,9999,610790484
536,25,Jits_Pract_5,7,9999,9999,9999,611290196
536,25,Jits_Pract_5,8,9999,9999,9999,611790956
536,25,Jits_Pract_5,9,9999,9999,9999,612290672
536,25,Jits_Pract_5,10,9999,9999,9999,612790384
536,25,Jits_Pract_5,11,9999,9999,9999,613291072
536,25,Jits_Pract_5,12,9999,9999,9999,613801032
536,25,Jits_Pract_5,13,9999,9999,9999,614300728
536,25,Jits_Pract_5,14,9999,9999,9999,614800500
537,24,Jits_Pract_8,0,5,56,103,621386384
537,24,Jits_Pract_8,1,5,63,98,621389328
537,24,Jits_Pract_8,2,5,80,127,621392372
537,24,Jits_Pract_8,0,5,56,103,622185756
537,24,Jits_Pract_8,1,5,63,98,622189004
537,24,Jits_Pract_8,2,5,80,127,622191976
537,24,Jits_Pract_8,3,1,48,35,622381184
537,24,Jits_Pract_8,0,5,80,127,622926164
537,24,Jits_Pract_8,1,1,48,36,622978384
537,24,Jits_Pract_8,2,5,63,98,623016316
537,24,Jits_Pract_8,3,5,56,103,623025464
537,24,Jits_Pract_8,0,5,56,103,623746420
537,24,Jits_Pract_8,1,5,63,98,623755568
537,24,Jits_Pract_8,2,1,48,37,623756536
537,24,Jits_Pract_8,3,5,80,127,623845916
537,24,Jits_Pract_8,0,5,63,98,624515404
537,24,Jits_Pract_8,1,5,80,127,624546276
537,24,Jits_Pract_8,2,1,48,32,624562204
537,24,Jits_Pract_8,3,5,56,103,624576168
537,24,Jits_Pract_8,0,5,56,103,625316284
537,24,Jits_Pract_8,1,1,48,28,625318880
537,24,Jits_Pract_8,2,5,80,127,625415392
537,24,Jits_Pract_8,3,5,63,98,625466112
537,24,Jits_Pract_8,0,5,56,103,626115916
537,24,Jits_Pract_8,1,5,80,127,626166192
537,24,Jits_Pract_8,2,5,63,98,626206128
537,24,Jits_Pract_8,3,1,48,30,626212988
537,24,Jits_Pract_8,0,1,48,27,626913328
537,24,Jits_Pract_8,1,5,80,127,626946400
537,24,Jits_Pract_8,2,5,63,98,626976152
537,24,Jits_Pract_8,3,5,56,103,627045888
537,24,Jits_Pract_8,0,1,48,35,627761716
537,24,Jits_Pract_8,1,5,63,98,627776056
537,24,Jits_Pract_8,2,5,56,103,627805512
537,24,Jits_Pract_8,3,5,80,127,627865984
537,24,Jits_Pract_8,0,5,56,103,628516112
537,24,Jits_Pract_8,1,5,80,127,628519260
537,24,Jits_Pract_8,2,1,48,23,628556176
537,24,Jits_Pract_8,3,5,63,98,628636008
537,24,Jits_Pract_8,0,1,48,29,629370640
537,24,Jits_Pract_8,1,5,56,103,629395996
537,24,Jits_Pract_8,2,5,80,127,629435860
537,24,Jits_Pract_8,3,5,63,98,629446128
537,24,Jits_Pract_8,0,1,48,31,630143880
537,24,Jits_Pract_8,1,5,56,103,630155980
537,24,Jits_Pract_8,2,5,80,127,630175992
537,24,Jits_Pract_8,3,5,63,98,630255916
537,24,Jits_Pract_8,0,5,80,127,630946088
537,24,Jits_Pract_8,1,1,48,36,630972276
537,24,Jits_Pract_8,2,5,56,103,631045432
537,24,Jits_Pract_8,3,5,63,98,631055924
537,24,Jits_Pract_8,0,5,63,98,631716200
537,24,Jits_Pract_8,1,5,80,127,631775468
537,24,Jits_Pract_8,2,5,56,103,631786112
537,24,Jits_Pract_8,3,1,48,34,631799792
537,24,Jits_Pract_8,0,1,48,32,632512172
537,24,Jits_Pract_8,1,5,56,103,632515880
537,24,Jits_Pract_8,2,5,63,98,632585864
537,24,Jits_Pract_8,3,5,80,127,632589148
537,24,Jits_Pract_8,0,9999,9999,9999,621783136
537,24,Jits_Pract_8,1,9999,9999,9999,622583888
537,24,Jits_Pract_8,2,9999,9999,9999,623383664
537,24,Jits_Pract_8,3,9999,9999,9999,624183368
537,24,Jits_Pract_8,4,9999,9999,9999,624983140
537,24,Jits_Pract_8,5,9999,9999,9999,625783900
537,24,Jits_Pract_8,6,9999,9999,9999,626583676
537,24,Jits_Pract_8,7,9999,9999,9999,627383380
537,24,Jits_Pract_8,8,9999,9999,9999,628183148
537,24,Jits_Pract_8,9,9999,9999,9999,628983872
537,24,Jits_Pract_8,10,9999,9999,9999,629783652
537,24,Jits_Pract_8,11,9999,9999,9999,630583420
537,24,Jits_Pract_8,12,9999,9999,9999,631383116
537,24,Jits_Pract_8,13,9999,9999,9999,632183888
537,24,Jits_Pract_8,14,9999,9999,9999,632983636
538,17,Jits_Phase_5,0,5,56,103,664152480
538,17,Jits_Phase_5,1,5,63,98,664155580
538,17,Jits_Phase_5,2,5,80,127,664158776
538,17,Jits_Phase_5,0,5,56,103,664652076
538,17,Jits_Phase_5,1,5,63,98,664655172
538,17,Jits_Phase_5,2,5,80,127,664658444
538,17,Jits_Phase_5,3,1,48,17,664876736
538,17,Jits_Phase_5,0,5,56,103,665151992
538,17,Jits_Phase_5,1,5,80,127,665162116
538,17,Jits_Phase_5,2,5,63,98,665181452
538,17,Jits_Phase_5,3,1,48,27,665239120
538,17,Jits_Phase_5,0,5,63,98,665602320
538,17,Jits_Phase_5,1,5,80,127,665632072
538,17,Jits_Phase_5,2,5,56,103,665642268
538,17,Jits_Phase_5,3,1,48,30,665694676
538,17,Jits_Phase_5,0,1,48,28,666136048
538,17,Jits_Phase_5,1,5,80,127,666161476
538,17,Jits_Phase_5,2,5,56,103,666171968
538,17,Jits_Phase_5,3,5,63,98,666201496
538,17,Jits_Phase_5,0,5,63,98,666652024
538,17,Jits_Phase_5,1,1,48,33,666677764
538,17,Jits_Phase_5,2,5,56,103,666681844
538,17,Jits_Phase_5,3,5,80,127,666692260
538,17,Jits_Phase_5,0,5,56,103,667101440
538,17,Jits_Phase_5,1,5,63,98,667151864
538,17,Jits_Phase_5,2,1,48,24,667164272
538,17,Jits_Phase_5,3,5,80,127,667172164
538,17,Jits_Phase_5,0,5,80,127,667602252
538,17,Jits_Phase_5,1,1,48,26,667625752
538,17,Jits_Phase_5,2,5,63,98,667651404
538,17,Jits_Phase_5,3,5,56,103,667692460
538,17,Jits_Phase_5,0,5,56,103,668102024
538,17,Jits_Phase_5,1,5,63,98,668131624
538,17,Jits_Phase_5,2,1,48,21,668159012
538,17,Jits_Phase_5,3,5,80,127,668202416
538,17,Jits_Phase_5,0,5,56,103,668601792
538,17,Jits_Phase_5,1,1,48,21,668622972
538,17,Jits_Phase_5,2,5,80,127,668662028
538,17,Jits_Phase_5,3,5,63,98,668692072
538,17,Jits_Phase_5,0,5,56,103,669111752
538,17,Jits_Phase_5,1,5,63,98,669121872
538,17,Jits_Phase_5,2,1,48,25,669141924
538,17,Jits_Phase_5,3,5,80,127,669161876
538,17,Jits_Phase_5,0,5,63,98,669602308
538,17,Jits_Phase_5,1,1,48,28,669621392
538,17,Jits_Phase_5,2,5,80,127,669682168
538,17,Jits_Phase_5,3,5,56,103,669692216
538,17,Jits_Phase_5,0,1,48,27,670126680
538,17,Jits_Phase_5,1,5,63,98,670152032
538,17,Jits_Phase_5,2,5,56,103,670192192
538,17,Jits_Phase_5,3,5,80,127,670195112
538,17,Jits_Phase_5,0,5,56,103,670611932
538,17,Jits_Phase_5,1,1,48,24,670618796
538,17,Jits_Phase_5,2,5,63,98,670622048
538,17,Jits_Phase_5,3,5,80,127,670661984
538,17,Jits_Phase_5,0,5,56,103,671102412
538,17,Jits_Phase_5,1,5,63,98,671105404
538,17,Jits_Phase_5,2,5,80,127,671121748
538,17,Jits_Phase_5,3,1,48,21,671129968
538,17,Jits_Phase_5,0,5,80,127,671612356
538,17,Jits_Phase_5,1,5,56,103,671621432
538,17,Jits_Phase_5,2,1,48,27,671622396
538,17,Jits_Phase_5,3,5,63,98,671692220
538,17,Jits_Phase_5,0,5,63,98,672101836
538,17,Jits_Phase_5,1,5,56,103,672122248
538,17,Jits_Phase_5,2,1,48,24,672127312
538,17,Jits_Phase_5,3,5,80,127,672202032
538,17,Jits_Phase_5,0,5,56,103,672611704
538,17,Jits_Phase_5,1,1,48,21,672618340
538,17,Jits_Phase_5,2,5,80,127,672651884
538,17,Jits_Phase_5,3,5,63,98,672661856
538,17,Jits_Phase_5,0,5,80,127,673102184
538,17,Jits_Phase_5,1,1,48,27,673125300
538,17,Jits_Phase_5,2,5,63,98,673131852
538,17,Jits_Phase_5,3,5,56,103,673171788
538,17,Jits_Phase_5,0,1,48,30,673612084
538,17,Jits_Phase_5,1,5,56,103,673622520
538,17,Jits_Phase_5,2,5,63,98,673652220
538,17,Jits_Phase_5,3,5,80,127,673702120
538,17,Jits_Phase_5,0,5,80,127,674122060
538,17,Jits_Phase_5,1,1,48,36,674127272
538,17,Jits_Phase_5,2,5,56,103,674162088
538,17,Jits_Phase_5,3,5,63,98,674172284
538,17,Jits_Phase_5,0,5,80,127,674602272
538,17,Jits_Phase_5,1,5,63,98,674642284
538,17,Jits_Phase_5,2,1,48,29,674649148
538,17,Jits_Phase_5,3,5,56,103,674701868
538,17,Jits_Phase_5,0,5,56,103,675102044
538,17,Jits_Phase_5,1,5,80,127,675112240
538,17,Jits_Phase_5,2,1,48,23,675117900
538,17,Jits_Phase_5,3,5,63,98,675192120
538,17,Jits_Phase_5,0,1,48,25,675584768
538,17,Jits_Phase_5,1,5,80,127,675601880
538,17,Jits_Phase_5,2,5,63,98,675662196
538,17,Jits_Phase_5,3,5,56,103,675692004
538,17,Jits_Phase_5,0,5,56,103,676101616
538,17,Jits_Phase_5,1,1,48,29,676128780
538,17,Jits_Phase_5,2,5,80,127,676161848
538,17,Jits_Phase_5,3,5,63,98,676201936
538,17,Jits_Phase_5,0,1,48,26,676620736
538,17,Jits_Phase_5,1,5,56,103,676652448
538,17,Jits_Phase_5,2,5,63,98,676661744
538,17,Jits_Phase_5,3,5,80,127,676665184
538,17,Jits_Phase_5,0,5,80,127,677102080
538,17,Jits_Phase_5,1,1,48,30,677112024
538,17,Jits_Phase_5,2,5,63,98,677191980
538,17,Jits_Phase_5,3,5,56,103,677202400
538,17,Jits_Phase_5,0,1,48,29,677592004
538,17,Jits_Phase_5,1,5,56,103,677601600
538,17,Jits_Phase_5,2,5,63,98,677604928
538,17,Jits_Phase_5,3,5,80,127,677607972
538,17,Jits_Phase_5,0,1,48,22,678113536
538,17,Jits_Phase_5,1,5,80,127,678121952
538,17,Jits_Phase_5,2,5,63,98,678172004
538,17,Jits_Phase_5,3,5,56,103,678201828
538,17,Jits_Phase_5,0,5,56,103,678612200
538,17,Jits_Phase_5,1,5,80,127,678621724
538,17,Jits_Phase_5,2,1,48,22,678644544
538,17,Jits_Phase_5,3,5,63,98,678692068
538,17,Jits_Phase_5,0,5,56,103,679122160
538,17,Jits_Phase_5,1,5,63,98,679141796
538,17,Jits_Phase_5,2,1,48,21,679155548
538,17,Jits_Phase_5,3,5,80,127,679202176
538,17,Jits_Phase_5,0,5,80,127,679601772
538,17,Jits_Phase_5,1,1,48,28,679624076
538,17,Jits_Phase_5,2,5,63,98,679672196
538,17,Jits_Phase_5,3,5,56,103,679691684
538,17,Jits_Phase_5,0,5,80,127,680121924
538,17,Jits_Phase_5,1,5,56,103,680131972
538,17,Jits_Phase_5,2,1,48,23,680139352
538,17,Jits_Phase_5,3,5,63,98,680142088
538,17,Jits_Phase_5,0,5,80,127,680612176
538,17,Jits_Phase_5,1,1,48,22,680631284
538,17,Jits_Phase_5,2,5,56,103,680632632
538,17,Jits_Phase_5,3,5,63,98,680702456
538,17,Jits_Phase_5,0,5,56,103,681122136
538,17,Jits_Phase_5,1,1,48,21,681133796
538,17,Jits_Phase_5,2,5,80,127,681152028
538,17,Jits_Phase_5,3,5,63,98,681172336
538,17,Jits_Phase_5,0,5,63,98,681611644
538,17,Jits_Phase_5,1,1,48,20,681653572
538,17,Jits_Phase_5,2,5,56,103,681672028
538,17,Jits_Phase_5,3,5,80,127,681701700
538,17,Jits_Phase_5,0,5,63,98,682102104
538,17,Jits_Phase_5,1,5,80,127,682105468
538,17,Jits_Phase_5,2,1,48,28,682127768
538,17,Jits_Phase_5,3,5,56,103,682192224
538,17,Jits_Phase_5,0,1,48,22,682596016
538,17,Jits_Phase_5,1,5,56,103,682622592
538,17,Jits_Phase_5,2,5,63,98,682652044
538,17,Jits_Phase_5,3,5,80,127,682691888
538,17,Jits_Phase_5,0,1,48,21,683119692
538,17,Jits_Phase_5,1,5,63,98,683122048
538,17,Jits_Phase_5,2,5,56,103,683161912
538,17,Jits_Phase_5,3,5,80,127,683181548
538,17,Jits_Phase_5,0,1,48,21,683625272
538,17,Jits_Phase_5,1,5,63,98,683631920
538,17,Jits_Phase_5,2,5,56,103,683671784
538,17,Jits_Phase_5,3,5,80,127,683682056
538,17,Jits_Phase_5,0,5,80,127,684112400
538,17,Jits_Phase_5,1,1,48,27,684129616
538,17,Jits_Phase_5,2,5,63,98,684181876
538,17,Jits_Phase_5,3,5,56,103,684202332
538,17,Jits_Phase_5,0,5,56,103,684601836
538,17,Jits_Phase_5,1,5,80,127,684622068
538,17,Jits_Phase_5,2,1,48,24,684636648
538,17,Jits_Phase_5,3,5,63,98,684662100
538,17,Jits_Phase_5,0,1,48,20,685110044
538,17,Jits_Phase_5,1,5,63,98,685111628
538,17,Jits_Phase_5,2,5,80,127,685132088
538,17,Jits_Phase_5,3,5,56,103,685171972
538,17,Jits_Phase_5,0,1,48,21,685581320
538,17,Jits_Phase_5,1,5,63,98,685612428
538,17,Jits_Phase_5,2,5,56,103,685631916
538,17,Jits_Phase_5,3,5,80,127,685642112
538,17,Jits_Phase_5,0,5,80,127,686111964
538,17,Jits_Phase_5,1,1,48,21,686119348
538,17,Jits_Phase_5,2,5,56,103,686131668
538,17,Jits_Phase_5,3,5,63,98,686162388
538,17,Jits_Phase_5,0,1,48,19,686616564
538,17,Jits_Phase_5,1,5,56,103,686681404
538,17,Jits_Phase_5,2,5,80,127,686684544
538,17,Jits_Phase_5,3,5,63,98,686701884
538,17,Jits_Phase_5,0,5,63,98,687102420
538,17,Jits_Phase_5,1,5,56,103,687131872
538,17,Jits_Phase_5,2,1,48,21,687158580
538,17,Jits_Phase_5,3,5,80,127,687192620
538,17,Jits_Phase_5,0,1,48,21,687606108
538,17,Jits_Phase_5,1,5,63,98,687681884
538,17,Jits_Phase_5,2,5,56,103,687692080
538,17,Jits_Phase_5,3,5,80,127,687702556
538,17,Jits_Phase_5,0,1,48,25,688140440
538,17,Jits_Phase_5,1,5,56,103,688141860
538,17,Jits_Phase_5,2,5,80,127,688172436
538,17,Jits_Phase_5,3,5,63,98,688181584
538,17,Jits_Phase_5,0,1,48,21,688637388
538,17,Jits_Phase_5,1,5,63,98,688682596
538,17,Jits_Phase_5,2,5,56,103,688691672
538,17,Jits_Phase_5,3,5,80,127,688711908
538,17,Jits_Phase_5,0,5,56,103,689112316
538,17,Jits_Phase_5,1,1,48,32,689133868
538,17,Jits_Phase_5,2,5,63,98,689171800
538,17,Jits_Phase_5,3,5,80,127,689175240
538,17,Jits_Phase_5,0,1,48,27,689628068
538,17,Jits_Phase_5,1,5,80,127,689631552
538,17,Jits_Phase_5,2,5,56,103,689642044
538,17,Jits_Phase_5,3,5,63,98,689711424
538,17,Jits_Phase_5,0,5,80,127,690122020
538,17,Jits_Phase_5,1,1,48,21,690165296
538,17,Jits_Phase_5,2,5,56,103,690191620
538,17,Jits_Phase_5,3,5,63,98,690202112
538,17,Jits_Phase_5,0,5,63,98,690661876
538,17,Jits_Phase_5,1,5,56,103,690671996
538,17,Jits_Phase_5,2,1,48,27,690679380
538,17,Jits_Phase_5,3,5,80,127,690691328
538,17,Jits_Phase_5,0,5,80,127,691112412
538,17,Jits_Phase_5,1,5,63,98,691171604
538,17,Jits_Phase_5,2,1,48,36,691177716
538,17,Jits_Phase_5,3,5,56,103,691211532
538,17,Jits_Phase_5,0,5,56,103,691651892
538,17,Jits_Phase_5,1,5,63,98,691662384
538,17,Jits_Phase_5,2,1,48,30,691670072
538,17,Jits_Phase_5,3,5,80,127,691702316
538,17,Jits_Phase_5,0,5,56,103,692111660
538,17,Jits_Phase_5,1,5,80,127,692141332
538,17,Jits_Phase_5,2,1,48,22,692169312
538,17,Jits_Phase_5,3,5,63,98,692191452
538,17,Jits_Phase_5,0,1,48,22,692631324
538,17,Jits_Phase_5,1,5,56,103,692652324
538,17,Jits_Phase_5,2,5,63,98,692692484
538,17,Jits_Phase_5,3,5,80,127,692695700
538,17,Jits_Phase_5,0,1,48,30,693148292
538,17,Jits_Phase_5,1,5,56,103,693152072
538,17,Jits_Phase_5,2,5,63,98,693162344
538,17,Jits_Phase_5,3,5,80,127,693181832
538,17,Jits_Phase_5,0,5,56,103,693611976
538,17,Jits_Phase_5,1,5,80,127,693614968
538,17,Jits_Phase_5,2,5,63,98,693651764
538,17,Jits_Phase_5,3,1,48,31,693653552
538,17,Jits_Phase_5,0,1,48,37,694108524
538,17,Jits_Phase_5,1,5,63,98,694151512
538,17,Jits_Phase_5,2,5,56,103,694182308
538,17,Jits_Phase_5,3,5,80,127,694201572
538,17,Jits_Phase_5,0,5,80,127,694621580
538,17,Jits_Phase_5,1,1,48,27,694627472
538,17,Jits_Phase_5,2,5,56,103,694631772
538,17,Jits_Phase_5,3,5,63,98,694642288
538,17,Jits_Phase_5,0,5,56,103,695122244
538,17,Jits_Phase_5,1,1,48,27,695144772
538,17,Jits_Phase_5,2,5,80,127,695162128
538,17,Jits_Phase_5,3,5,63,98,695191876
538,17,Jits_Phase_5,0,1,48,22,695631148
538,17,Jits_Phase_5,1,5,63,98,695632572
538,17,Jits_Phase_5,2,5,80,127,695641496
538,17,Jits_Phase_5,3,5,56,103,695651692
538,17,Jits_Phase_5,0,5,56,103,696121764
538,17,Jits_Phase_5,1,1,48,26,696146084
538,17,Jits_Phase_5,2,5,63,98,696192436
538,17,Jits_Phase_5,3,5,80,127,696201512
538,17,Jits_Phase_5,0,5,80,127,696631652
538,17,Jits_Phase_5,1,5,56,103,696641772
538,17,Jits_Phase_5,2,1,48,27,696664520
538,17,Jits_Phase_5,3,5,63,98,696692284
538,17,Jits_Phase_5,0,5,80,127,697141600
538,17,Jits_Phase_5,1,1,48,25,697143084
538,17,Jits_Phase_5,2,5,56,103,697202304
538,17,Jits_Phase_5,3,5,63,98,697231680
538,17,Jits_Phase_5,0,5,56,103,697651476
538,17,Jits_Phase_5,1,5,80,127,697654548
538,17,Jits_Phase_5,2,1,48,29,697673552
538,17,Jits_Phase_5,3,5,63,98,697691560
538,17,Jits_Phase_5,0,1,48,28,698181956
538,17,Jits_Phase_5,1,5,56,103,698183220
538,17,Jits_Phase_5,2,5,63,98,698211628
538,17,Jits_Phase_5,3,5,80,127,698222068
538,17,Jits_Phase_5,0,5,63,98,698692052
538,17,Jits_Phase_5,1,1,48,27,698697340
538,17,Jits_Phase_5,2,5,80,127,698702316
538,17,Jits_Phase_5,3,5,56,103,698712288
538,17,Jits_Phase_5,0,5,80,127,699141464
538,17,Jits_Phase_5,1,1,48,34,699182868
538,17,Jits_Phase_5,2,5,56,103,699191656
538,17,Jits_Phase_5,3,5,63,98,699194724
538,17,Jits_Phase_5,0,1,48,24,699659316
538,17,Jits_Phase_5,1,5,56,103,699671784
538,17,Jits_Phase_5,2,5,80,127,699692540
538,17,Jits_Phase_5,3,5,63,98,699701540
538,17,Jits_Phase_5,0,5,63,98,700152140
538,17,Jits_Phase_5,1,1,48,19,700153108
538,17,Jits_Phase_5,2,5,56,103,700181956
538,17,Jits_Phase_5,3,5,80,127,700202340
538,17,Jits_Phase_5,0,5,56,103,700662160
538,17,Jits_Phase_5,1,5,80,127,700672428
538,17,Jits_Phase_5,2,1,48,24,700685060
538,17,Jits_Phase_5,3,5,63,98,700742100
538,17,Jits_Phase_5,0,5,63,98,701151592
538,17,Jits_Phase_5,1,1,48,19,701177036
538,17,Jits_Phase_5,2,5,80,127,701191600
538,17,Jits_Phase_5,3,5,56,103,701231460
538,17,Jits_Phase_5,0,5,56,103,701671656
538,17,Jits_Phase_5,1,1,48,18,701679040
538,17,Jits_Phase_5,2,5,63,98,701682144
538,17,Jits_Phase_5,3,5,80,127,701701480
538,17,Jits_Phase_5,0,1,48,19,702176408
538,17,Jits_Phase_5,1,5,63,98,702211352
538,17,Jits_Phase_5,2,5,80,127,702232108
538,17,Jits_Phase_5,3,5,56,103,702252344
538,17,Jits_Phase_5,0,5,56,103,702651780
538,17,Jits_Phase_5,1,1,48,19,702711168
538,17,Jits_Phase_5,2,5,80,127,702731644
538,17,Jits_Phase_5,3,5,63,98,702741988
538,17,Jits_Phase_5,0,5,80,127,703192384
538,17,Jits_Phase_5,1,1,48,22,703193872
538,17,Jits_Phase_5,2,5,63,98,703201752
538,17,Jits_Phase_5,3,5,56,103,703232324
538,17,Jits_Phase_5,0,5,63,98,703652152
538,17,Jits_Phase_5,1,5,80,127,703692092
538,17,Jits_Phase_5,2,1,48,20,703698352
538,17,Jits_Phase_5,3,5,56,103,703751648
538,17,Jits_Phase_5,0,5,63,98,704162244
538,17,Jits_Phase_5,1,1,48,24,704163284
538,17,Jits_Phase_5,2,5,56,103,704212216
538,17,Jits_Phase_5,3,5,80,127,704241964
538,17,Jits_Phase_5,0,5,80,127,704662152
538,17,Jits_Phase_5,1,5,63,98,704672200
538,17,Jits_Phase_5,2,1,48,21,704679508
538,17,Jits_Phase_5,3,5,56,103,704741872
538,17,Jits_Phase_5,0,1,48,26,705169992
538,17,Jits_Phase_5,1,5,80,127,705222232
538,17,Jits_Phase_5,2,5,56,103,705232204
538,17,Jits_Phase_5,3,5,63,98,705235420
538,17,Jits_Phase_5,0,5,56,103,705662208
538,17,Jits_Phase_5,1,5,80,127,705681916
538,17,Jits_Phase_5,2,5,63,98,705692112
538,17,Jits_Phase_5,3,1,48,27,705723996
538,17,Jits_Phase_5,0,5,63,98,706172316
538,17,Jits_Phase_5,1,1,48,32,706202932
538,17,Jits_Phase_5,2,5,56,103,706212172
538,17,Jits_Phase_5,3,5,80,127,706231656
538,17,Jits_Phase_5,0,5,63,98,706672072
538,17,Jits_Phase_5,1,1,48,42,706694968
538,17,Jits_Phase_5,2,5,56,103,706732380
538,17,Jits_Phase_5,3,5,80,127,706735520
538,17,Jits_Phase_5,0,5,56,103,707131792
538,17,Jits_Phase_5,1,5,80,127,707152252
538,17,Jits_Phase_5,2,1,48,38,707174624
538,17,Jits_Phase_5,3,5,63,98,707192056
538,17,Jits_Phase_5,0,1,48,34,707648896
538,17,Jits_Phase_5,1,5,56,103,707662412
538,17,Jits_Phase_5,2,5,63,98,707681604
538,17,Jits_Phase_5,3,5,80,127,707691896
538,17,Jits_Phase_5,0,5,80,127,708132280
538,17,Jits_Phase_5,1,1,48,34,708153536
538,17,Jits_Phase_5,2,5,56,103,708162096
538,17,Jits_Phase_5,3,5,63,98,708201884
538,17,Jits_Phase_5,0,1,48,37,708638500
538,17,Jits_Phase_5,1,5,80,127,708642280
538,17,Jits_Phase_5,2,5,56,103,708661544
538,17,Jits_Phase_5,3,5,63,98,708722028
538,17,Jits_Phase_5,0,5,56,103,709152080
538,17,Jits_Phase_5,1,5,80,127,709171644
538,17,Jits_Phase_5,2,1,48,24,709177300
538,17,Jits_Phase_5,3,5,63,98,709231972
538,17,Jits_Phase_5,0,5,80,127,709632372
538,17,Jits_Phase_5,1,5,56,103,709641668
538,17,Jits_Phase_5,2,5,63,98,709681456
538,17,Jits_Phase_5,3,1,48,25,709686144
538,17,Jits_Phase_5,0,5,63,98,710132060
538,17,Jits_Phase_5,1,1,48,24,710171460
538,17,Jits_Phase_5,2,5,56,103,710172980
538,17,Jits_Phase_5,3,5,80,127,710175804
538,17,Jits_Phase_5,0,5,63,98,710652256
538,17,Jits_Phase_5,1,1,48,21,710656348
538,17,Jits_Phase_5,2,5,80,127,710692188
538,17,Jits_Phase_5,3,5,56,103,710722084
538,17,Jits_Phase_5,0,5,56,103,711141828
538,17,Jits_Phase_5,1,5,63,98,711152096
538,17,Jits_Phase_5,2,1,48,22,711161440
538,17,Jits_Phase_5,3,5,80,127,711181764
538,17,Jits_Phase_5,0,5,80,127,711632156
538,17,Jits_Phase_5,1,1,48,32,711647336
538,17,Jits_Phase_5,2,5,63,98,711701832
538,17,Jits_Phase_5,3,5,56,103,711712100
538,17,Jits_Phase_5,0,5,63,98,712131856
538,17,Jits_Phase_5,1,1,48,26,712147556
538,17,Jits_Phase_5,2,5,56,103,712201680
538,17,Jits_Phase_5,3,5,80,127,712211876
538,17,Jits_Phase_5,0,5,63,98,712612136
538,17,Jits_Phase_5,1,5,56,103,712631772
538,17,Jits_Phase_5,2,1,48,22,712637660
538,17,Jits_Phase_5,3,5,80,127,712671848
538,17,Jits_Phase_5,0,5,56,103,713091520
538,17,Jits_Phase_5,1,5,63,98,713102084
538,17,Jits_Phase_5,2,1,48,28,713137196
538,17,Jits_Phase_5,3,5,80,127,713181720
538,17,Jits_Phase_5,0,5,63,98,713581924
538,17,Jits_Phase_5,1,5,56,103,713611820
538,17,Jits_Phase_5,2,1,48,27,713643856
538,17,Jits_Phase_5,3,5,80,127,713651528
538,17,Jits_Phase_5,0,5,56,103,714081800
538,17,Jits_Phase_5,1,5,63,98,714121764
538,17,Jits_Phase_5,2,1,48,27,714123028
538,17,Jits_Phase_5,3,5,80,127,714161400
538,17,Jits_Phase_5,0,5,80,127,714582396
538,17,Jits_Phase_5,1,1,48,28,714600880
538,17,Jits_Phase_5,2,5,56,103,714662132
538,17,Jits_Phase_5,3,5,63,98,714671504
538,17,Jits_Phase_5,0,1,48,26,715127628
538,17,Jits_Phase_5,1,5,56,103,715132380
538,17,Jits_Phase_5,2,5,63,98,715135300
538,17,Jits_Phase_5,3,5,80,127,715141604
538,17,Jits_Phase_5,0,1,48,24,715638020
538,17,Jits_Phase_5,1,5,56,103,715651540
538,17,Jits_Phase_5,2,5,63,98,715672000
538,17,Jits_Phase_5,3,5,80,127,715682268
538,17,Jits_Phase_5,0,5,63,98,716112248
538,17,Jits_Phase_5,1,5,80,127,716121396
538,17,Jits_Phase_5,2,5,56,103,716141952
538,17,Jits_Phase_5,3,1,48,23,716163724
538,17,Jits_Phase_5,0,5,63,98,716611920
538,17,Jits_Phase_5,1,1,48,24,716636316
538,17,Jits_Phase_5,2,5,56,103,716691804
538,17,Jits_Phase_5,3,5,80,127,716695168
538,17,Jits_Phase_5,0,5,63,98,717111820
538,17,Jits_Phase_5,1,5,56,103,717132132
538,17,Jits_Phase_5,2,1,48,26,717151960
538,17,Jits_Phase_5,3,5,80,127,717162120
538,17,Jits_Phase_5,0,5,56,103,717612476
538,17,Jits_Phase_5,1,1,48,21,717625784
538,17,Jits_Phase_5,2,5,63,98,717631804
538,17,Jits_Phase_5,3,5,80,127,717642076
538,17,Jits_Phase_5,0,5,56,103,718141840
538,17,Jits_Phase_5,1,1,48,25,718155072
538,17,Jits_Phase_5,2,5,63,98,718171728
538,17,Jits_Phase_5,3,5,80,127,718174944
538,17,Jits_Phase_5,0,5,56,103,718592232
538,17,Jits_Phase_5,1,5,63,98,718632168
538,17,Jits_Phase_5,2,1,48,24,718661584
538,17,Jits_Phase_5,3,5,80,127,718691652
538,17,Jits_Phase_5,0,5,56,103,719111780
538,17,Jits_Phase_5,1,1,48,26,719119236
538,17,Jits_Phase_5,2,5,63,98,719121820
538,17,Jits_Phase_5,3,5,80,127,719182132
538,17,Jits_Phase_5,0,5,56,103,719612372
538,17,Jits_Phase_5,1,5,80,127,719631636
538,17,Jits_Phase_5,2,1,48,21,719636248
538,17,Jits_Phase_5,3,5,63,98,719661528
538,17,Jits_Phase_5,0,5,80,127,720111848
538,17,Jits_Phase_5,1,5,56,103,720122192
538,17,Jits_Phase_5,2,5,63,98,720141600
538,17,Jits_Phase_5,3,1,48,19,720152064
538,17,Jits_Phase_5,0,5,63,98,720601424
538,17,Jits_Phase_5,1,1,48,23,720668588
538,17,Jits_Phase_5,2,5,80,127,720682332
538,17,Jits_Phase_5,3,5,56,103,720691704
538,17,Jits_Phase_5,0,1,48,22,721115608
538,17,Jits_Phase_5,1,5,80,127,721192652
538,17,Jits_Phase_5,2,5,56,103,721211764
538,17,Jits_Phase_5,3,5,63,98,721215640
538,17,Jits_Phase_5,0,1,48,21,721629456
538,17,Jits_Phase_5,1,5,63,98,721681764
538,17,Jits_Phase_5,2,5,80,127,721684980
538,17,Jits_Phase_5,3,5,56,103,721742136
538,17,Jits_Phase_5,0,5,56,103,722161968
538,17,Jits_Phase_5,1,1,48,18,722168304
538,17,Jits_Phase_5,2,5,80,127,722172232
538,17,Jits_Phase_5,3,5,63,98,722212168
538,17,Jits_Phase_5,0,5,56,103,722642404
538,17,Jits_Phase_5,1,1,48,21,722664484
538,17,Jits_Phase_5,2,5,63,98,722701740
538,17,Jits_Phase_5,3,5,80,127,722711936
538,17,Jits_Phase_5,0,5,63,98,723152140
538,17,Jits_Phase_5,1,1,48,23,723190260
538,17,Jits_Phase_5,2,5,80,127,723192144
538,17,Jits_Phase_5,3,5,56,103,723232008
538,17,Jits_Phase_5,0,5,56,103,723651896
538,17,Jits_Phase_5,1,1,48,24,723686104
538,17,Jits_Phase_5,2,5,63,98,723731832
538,17,Jits_Phase_5,3,5,80,127,723735196
538,17,Jits_Phase_5,0,1,48,19,724197772
538,17,Jits_Phase_5,1,5,80,127,724211964
538,17,Jits_Phase_5,2,5,56,103,724241712
538,17,Jits_Phase_5,3,5,63,98,724244852
538,17,Jits_Phase_5,0,5,56,103,724671788
538,17,Jits_Phase_5,1,5,80,127,724692396
538,17,Jits_Phase_5,2,1,48,22,724701064
538,17,Jits_Phase_5,3,5,63,98,724732176
538,17,Jits_Phase_5,0,5,80,127,725152228
538,17,Jits_Phase_5,1,5,63,98,725171568
538,17,Jits_Phase_5,2,1,48,20,725200988
538,17,Jits_Phase_5,3,5,56,103,725232020
538,17,Jits_Phase_5,0,5,63,98,725662040
538,17,Jits_Phase_5,1,5,56,103,725672236
538,17,Jits_Phase_5,2,1,48,22,725709136
538,17,Jits_Phase_5,3,5,80,127,725721528
538,17,Jits_Phase_5,0,5,56,103,726151532
538,17,Jits_Phase_5,1,5,63,98,726171916
538,17,Jits_Phase_5,2,5,80,127,726182336
538,17,Jits_Phase_5,3,1,48,20,726211452
538,17,Jits_Phase_5,0,5,56,103,726642080
538,17,Jits_Phase_5,1,5,63,98,726645372
538,17,Jits_Phase_5,2,5,80,127,726661420
538,17,Jits_Phase_5,3,1,48,19,726722820
538,17,Jits_Phase_5,0,1,48,18,727181400
538,17,Jits_Phase_5,1,5,63,98,727182884
538,17,Jits_Phase_5,2,5,56,103,727212636
538,17,Jits_Phase_5,3,5,80,127,727242084
538,17,Jits_Phase_5,0,5,80,127,727641572
538,17,Jits_Phase_5,1,1,48,26,727670052
538,17,Jits_Phase_5,2,5,56,103,727731500
538,17,Jits_Phase_5,3,5,63,98,727734564
538,17,Jits_Phase_5,0,1,48,23,728141468
538,17,Jits_Phase_5,1,5,56,103,728142988
538,17,Jits_Phase_5,2,5,80,127,728145740
538,17,Jits_Phase_5,3,5,63,98,728222040
538,17,Jits_Phase_5,0,5,80,127,728641756
538,17,Jits_Phase_5,1,1,48,26,728667644
538,17,Jits_Phase_5,2,5,63,98,728702536
538,17,Jits_Phase_5,3,5,56,103,728731912
538,17,Jits_Phase_5,0,5,63,98,729141676
538,17,Jits_Phase_5,1,5,80,127,729151796
538,17,Jits_Phase_5,2,1,48,23,729192296
538,17,Jits_Phase_5,3,5,56,103,729221492
538,17,Jits_Phase_5,0,1,48,19,729678240
538,17,Jits_Phase_5,1,5,56,103,729701724
538,17,Jits_Phase_5,2,5,80,127,729731352
538,17,Jits_Phase_5,3,5,63,98,729781532
538,17,Jits_Phase_5,0,1,48,22,730259692
538,17,Jits_Phase_5,1,5,63,98,730291628
538,17,Jits_Phase_5,2,5,56,103,730322496
538,17,Jits_Phase_5,3,5,80,127,730325412
538,17,Jits_Phase_5,0,5,63,98,730792576
538,17,Jits_Phase_5,1,5,80,127,730811692
538,17,Jits_Phase_5,2,5,56,103,730822188
538,17,Jits_Phase_5,3,1,48,25,730826204
538,17,Jits_Phase_5,0,5,56,103,731302452
538,17,Jits_Phase_5,1,5,63,98,731305592
538,17,Jits_Phase_5,2,1,48,22,731320272
538,17,Jits_Phase_5,3,5,80,127,731321780
538,17,Jits_Phase_5,0,5,56,103,731751848
538,17,Jits_Phase_5,1,5,63,98,731762144
538,17,Jits_Phase_5,2,5,80,127,731791668
538,17,Jits_Phase_5,3,1,48,19,731810748
538,17,Jits_Phase_5,0,1,48,22,732258016
538,17,Jits_Phase_5,1,5,63,98,732272084
538,17,Jits_Phase_5,2,5,80,127,732291424
538,17,Jits_Phase_5,3,5,56,103,732332332
538,17,Jits_Phase_5,0,1,48,21,732774492
538,17,Jits_Phase_5,1,5,56,103,732802336
538,17,Jits_Phase_5,2,5,63,98,732842572
538,17,Jits_Phase_5,3,5,80,127,732845860
538,17,Jits_Phase_5,0,5,80,127,733241836
538,17,Jits_Phase_5,1,5,56,103,733281696
538,17,Jits_Phase_5,2,1,48,22,733307088
538,17,Jits_Phase_5,3,5,63,98,733331692
538,17,Jits_Phase_5,0,1,48,22,733779836
538,17,Jits_Phase_5,1,5,56,103,733801928
538,17,Jits_Phase_5,2,5,80,127,733812272
538,17,Jits_Phase_5,3,5,63,98,733841648
538,17,Jits_Phase_5,0,5,56,103,734252376
538,17,Jits_Phase_5,1,5,80,127,734292536
538,17,Jits_Phase_5,2,1,48,24,734313136
538,17,Jits_Phase_5,3,5,63,98,734341556
538,17,Jits_Phase_5,0,5,56,103,734752364
538,17,Jits_Phase_5,1,1,48,27,734783732
538,17,Jits_Phase_5,2,5,80,127,734792220
538,17,Jits_Phase_5,3,5,63,98,734842448
538,17,Jits_Phase_5,0,5,80,127,735241576
538,17,Jits_Phase_5,1,1,48,22,735287320
538,17,Jits_Phase_5,2,5,63,98,735321440
538,17,Jits_Phase_5,3,5,56,103,735331708
538,17,Jits_Phase_5,0,5,80,127,735791468
538,17,Jits_Phase_5,1,1,48,20,735798852
538,17,Jits_Phase_5,2,5,56,103,735801584
538,17,Jits_Phase_5,3,5,63,98,735822268
538,17,Jits_Phase_5,0,5,63,98,736261572
538,17,Jits_Phase_5,1,1,48,20,736301632
538,17,Jits_Phase_5,2,5,56,103,736332216
538,17,Jits_Phase_5,3,5,80,127,736335284
538,17,Jits_Phase_5,0,5,80,127,736751956
538,17,Jits_Phase_5,1,5,63,98,736802236
538,17,Jits_Phase_5,2,1,48,19,736815540
538,17,Jits_Phase_5,3,5,56,103,736842312
538,17,Jits_Phase_5,0,5,63,98,737291592
538,17,Jits_Phase_5,1,1,48,20,737304148
538,17,Jits_Phase_5,2,5,56,103,737331524
538,17,Jits_Phase_5,3,5,80,127,737341716
538,17,Jits_Phase_5,0,5,63,98,737782280
538,17,Jits_Phase_5,1,1,48,26,737789440
538,17,Jits_Phase_5,2,5,56,103,737801464
538,17,Jits_Phase_5,3,5,80,127,737822220
538,17,Jits_Phase_5,0,5,80,127,738242032
538,17,Jits_Phase_5,1,5,56,103,738252228
538,17,Jits_Phase_5,2,5,63,98,738271564
538,17,Jits_Phase_5,3,1,48,22,738303152
538,17,Jits_Phase_5,0,5,63,98,738772288
538,17,Jits_Phase_5,1,1,48,20,738773476
538,17,Jits_Phase_5,2,5,56,103,738812220
538,17,Jits_Phase_5,3,5,80,127,738842044
538,17,Jits_Phase_5,0,5,56,103,739232340
538,17,Jits_Phase_5,1,5,63,98,739261716
538,17,Jits_Phase_5,2,5,80,127,739291392
538,17,Jits_Phase_5,3,1,48,24,739299292
538,17,Jits_Phase_5,0,5,80,127,739652156
538,17,Jits_Phase_5,1,5,56,103,739721484
538,17,Jits_Phase_5,2,5,63,98,739724704
538,17,Jits_Phase_5,3,1,48,26,739773452
538,17,Jits_Phase_5,0,5,56,103,740162328
538,17,Jits_Phase_5,1,5,63,98,740212180
538,17,Jits_Phase_5,2,1,48,25,740222644
538,17,Jits_Phase_5,3,5,80,127,740241700
538,17,Jits_Phase_5,0,5,63,98,740642096
538,17,Jits_Phase_5,1,5,80,127,740645388
538,17,Jits_Phase_5,2,5,56,103,740701512
538,17,Jits_Phase_5,3,1,48,25,740703220
538,17,Jits_Phase_5,0,1,48,26,741168544
538,17,Jits_Phase_5,1,5,56,103,741171576
538,17,Jits_Phase_5,2,5,80,127,741181768
538,17,Jits_Phase_5,3,5,63,98,741232220
538,17,Jits_Phase_5,0,5,63,98,741641596
538,17,Jits_Phase_5,1,5,56,103,741651716
538,17,Jits_Phase_5,2,1,48,29,741672888
538,17,Jits_Phase_5,3,5,80,127,741681460
538,17,Jits_Phase_5,0,5,63,98,742172288
538,17,Jits_Phase_5,1,1,48,27,742175204
538,17,Jits_Phase_5,2,5,80,127,742176616
538,17,Jits_Phase_5,3,5,56,103,742201728
538,17,Jits_Phase_5,0,1,48,27,742670956
538,17,Jits_Phase_5,1,5,63,98,742692180
538,17,Jits_Phase_5,2,5,56,103,742711592
538,17,Jits_Phase_5,3,5,80,127,742714656
538,17,Jits_Phase_5,0,5,63,98,743152152
538,17,Jits_Phase_5,1,1,48,25,743169592
538,17,Jits_Phase_5,2,5,56,103,743221752
538,17,Jits_Phase_5,3,5,80,127,743242284
538,17,Jits_Phase_5,0,5,56,103,743641424
538,17,Jits_Phase_5,1,5,63,98,743651920
538,17,Jits_Phase_5,2,1,48,22,743675192
538,17,Jits_Phase_5,3,5,80,127,743741816
538,17,Jits_Phase_5,0,5,56,103,744161796
538,17,Jits_Phase_5,1,1,48,24,744185588
538,17,Jits_Phase_5,2,5,80,127,744201652
538,17,Jits_Phase_5,3,5,63,98,744211996
538,17,Jits_Phase_5,0,5,56,103,744682092
538,17,Jits_Phase_5,1,1,48,25,744688576
538,17,Jits_Phase_5,2,5,63,98,744711388
538,17,Jits_Phase_5,3,5,80,127,744742332
538,17,Jits_Phase_5,0,5,80,127,745141636
538,17,Jits_Phase_5,1,5,63,98,745181424
538,17,Jits_Phase_5,2,1,48,26,745189872
538,17,Jits_Phase_5,3,5,56,103,745202024
538,17,Jits_Phase_5,0,5,56,103,745682384
538,17,Jits_Phase_5,1,5,80,127,745701648
538,17,Jits_Phase_5,2,5,63,98,745722328
538,17,Jits_Phase_5,3,1,48,17,745725300
538,17,Jits_Phase_5,0,5,63,98,746152192
538,17,Jits_Phase_5,1,5,56,103,746161564
538,17,Jits_Phase_5,2,1,48,19,746215472
538,17,Jits_Phase_5,3,5,80,127,746221868
538,17,Jits_Phase_5,0,5,56,103,746651944
538,17,Jits_Phase_5,1,1,48,22,746708176
538,17,Jits_Phase_5,2,5,63,98,746721616
538,17,Jits_Phase_5,3,5,80,127,746742076
538,17,Jits_Phase_5,0,5,56,103,747151944
538,17,Jits_Phase_5,1,5,63,98,747181468
538,17,Jits_Phase_5,2,1,48,32,747206532
538,17,Jits_Phase_5,3,5,80,127,747222296
538,17,Jits_Phase_5,0,5,63,98,747642200
538,17,Jits_Phase_5,1,1,48,27,747692024
538,17,Jits_Phase_5,2,5,56,103,747693516
538,17,Jits_Phase_5,3,5,80,127,747701764
538,17,Jits_Phase_5,0,1,48,29,748174284
538,17,Jits_Phase_5,1,5,56,103,748182252
538,17,Jits_Phase_5,2,5,63,98,748232008
538,17,Jits_Phase_5,3,5,80,127,748242200
538,17,Jits_Phase_5,0,5,56,103,748652052
538,17,Jits_Phase_5,1,5,63,98,748662172
538,17,Jits_Phase_5,2,1,48,32,748694136
538,17,Jits_Phase_5,3,5,80,127,748742180
538,17,Jits_Phase_5,0,9999,9999,9999,664399988
538,17,Jits_Phase_5,1,9999,9999,9999,664899648
538,17,Jits_Phase_5,2,9999,9999,9999,665399408
538,17,Jits_Phase_5,3,9999,9999,9999,665899104
538,17,Jits_Phase_5,4,9999,9999,9999,666399832
538,17,Jits_Phase_5,5,9999,9999,9999,666899516
538,17,Jits_Phase_5,6,9999,9999,9999,667399268
538,17,Jits_Phase_5,7,9999,9999,9999,667900012
538,17,Jits_Phase_5,8,9999,9999,9999,668399704
538,17,Jits_Phase_5,9,9999,9999,9999,668899404
538,17,Jits_Phase_5,10,9999,9999,9999,669399096
538,17,Jits_Phase_5,11,9999,9999,9999,669899844
538,17,Jits_Phase_5,12,9999,9999,9999,670399596
538,17,Jits_Phase_5,13,9999,9999,9999,670899280
538,17,Jits_Phase_5,14,9999,9999,9999,671400004
538,17,Jits_Phase_5,15,9999,9999,9999,671899772
538,17,Jits_Phase_5,16,9999,9999,9999,672399468
538,17,Jits_Phase_5,17,9999,9999,9999,672899148
538,17,Jits_Phase_5,18,9999,9999,9999,673399864
538,17,Jits_Phase_5,19,9999,9999,9999,673899608
538,17,Jits_Phase_5,20,9999,9999,9999,674399288
538,17,Jits_Phase_5,21,9999,9999,9999,674900032
538,17,Jits_Phase_5,22,9999,9999,9999,675399796
538,17,Jits_Phase_5,23,9999,9999,9999,675899472
538,17,Jits_Phase_5,24,9999,9999,9999,676399200
538,17,Jits_Phase_5,25,9999,9999,9999,676899932
538,17,Jits_Phase_5,26,9999,9999,9999,677399616
538,17,Jits_Phase_5,27,9999,9999,9999,677899360
538,17,Jits_Phase_5,28,9999,9999,9999,678400088
538,17,Jits_Phase_5,29,9999,9999,9999,678910032
538,17,Jits_Phase_5,30,9999,9999,9999,679399540
538,17,Jits_Phase_5,31,9999,9999,9999,679899236
538,17,Jits_Phase_5,32,9999,9999,9999,680399976
538,17,Jits_Phase_5,33,9999,9999,9999,680899672
538,17,Jits_Phase_5,34,9999,9999,9999,681399368
538,17,Jits_Phase_5,35,9999,9999,9999,681899064
538,17,Jits_Phase_5,36,9999,9999,9999,682399852
538,17,Jits_Phase_5,37,9999,9999,9999,682899532
538,17,Jits_Phase_5,38,9999,9999,9999,683399288
538,17,Jits_Phase_5,39,9999,9999,9999,683900020
538,17,Jits_Phase_5,40,9999,9999,9999,684399700
538,17,Jits_Phase_5,41,9999,9999,9999,684899440
538,17,Jits_Phase_5,42,9999,9999,9999,685399128
538,17,Jits_Phase_5,43,9999,9999,9999,685899852
538,17,Jits_Phase_5,44,9999,9999,9999,686399608
538,17,Jits_Phase_5,45,9999,9999,9999,686899300
538,17,Jits_Phase_5,46,9999,9999,9999,687400024
538,17,Jits_Phase_5,47,9999,9999,9999,687899712
538,17,Jits_Phase_5,48,9999,9999,9999,688409660
538,17,Jits_Phase_5,49,9999,9999,9999,688909420
538,17,Jits_Phase_5,50,9999,9999,9999,689409092
538,17,Jits_Phase_5,51,9999,9999,9999,689909836
538,17,Jits_Phase_5,52,9999,9999,9999,690409592
538,17,Jits_Phase_5,53,9999,9999,9999,690909292
538,17,Jits_Phase_5,54,9999,9999,9999,691410020
538,17,Jits_Phase_5,55,9999,9999,9999,691909720
538,17,Jits_Phase_5,56,9999,9999,9999,692409412
538,17,Jits_Phase_5,57,9999,9999,9999,692909176
538,17,Jits_Phase_5,58,9999,9999,9999,693409908
538,17,Jits_Phase_5,59,9999,9999,9999,693909572
538,17,Jits_Phase_5,60,9999,9999,9999,694409272
538,17,Jits_Phase_5,61,9999,9999,9999,694910068
538,17,Jits_Phase_5,62,9999,9999,9999,695409764
538,17,Jits_Phase_5,63,9999,9999,9999,695909432
538,17,Jits_Phase_5,64,9999,9999,9999,696429660
538,17,Jits_Phase_5,65,9999,9999,9999,696929404
538,17,Jits_Phase_5,66,9999,9999,9999,697430144
538,17,Jits_Phase_5,67,9999,9999,9999,697940088
538,17,Jits_Phase_5,68,9999,9999,9999,698439784
538,17,Jits_Phase_5,69,9999,9999,9999,698939468
538,17,Jits_Phase_5,70,9999,9999,9999,699439212
538,17,Jits_Phase_5,71,9999,9999,9999,699939952
538,17,Jits_Phase_5,72,9999,9999,9999,700439632
538,17,Jits_Phase_5,73,9999,9999,9999,700939388
538,17,Jits_Phase_5,74,9999,9999,9999,701440060
538,17,Jits_Phase_5,75,9999,9999,9999,701950004
538,17,Jits_Phase_5,76,9999,9999,9999,702449784
538,17,Jits_Phase_5,77,9999,9999,9999,702949468
538,17,Jits_Phase_5,78,9999,9999,9999,703449164
538,17,Jits_Phase_5,79,9999,9999,9999,703949908
538,17,Jits_Phase_5,80,9999,9999,9999,704449592
538,17,Jits_Phase_5,81,9999,9999,9999,704929872
538,17,Jits_Phase_5,82,9999,9999,9999,705429568
538,17,Jits_Phase_5,83,9999,9999,9999,705929324
538,17,Jits_Phase_5,84,9999,9999,9999,706430068
538,17,Jits_Phase_5,85,9999,9999,9999,706929744
538,17,Jits_Phase_5,86,9999,9999,9999,707429472
538,17,Jits_Phase_5,87,9999,9999,9999,707929164
538,17,Jits_Phase_5,88,9999,9999,9999,708429936
538,17,Jits_Phase_5,89,9999,9999,9999,708929632
538,17,Jits_Phase_5,90,9999,9999,9999,709429312
538,17,Jits_Phase_5,91,9999,9999,9999,709930048
538,17,Jits_Phase_5,92,9999,9999,9999,710429804
538,17,Jits_Phase_5,93,9999,9999,9999,710929488
538,17,Jits_Phase_5,94,9999,9999,9999,711429244
538,17,Jits_Phase_5,95,9999,9999,9999,711929916
538,17,Jits_Phase_5,96,9999,9999,9999,712429692
538,17,Jits_Phase_5,97,9999,9999,9999,712879180
538,17,Jits_Phase_5,98,9999,9999,9999,713379912
538,17,Jits_Phase_5,99,9999,9999,9999,713879676
538,17,Jits_Phase_5,100,9999,9999,9999,714379360
538,17,Jits_Phase_5,101,9999,9999,9999,714880104
538,17,Jits_Phase_5,102,9999,9999,9999,715390056
538,17,Jits_Phase_5,103,9999,9999,9999,715889744
538,17,Jits_Phase_5,104,9999,9999,9999,716389476
538,17,Jits_Phase_5,105,9999,9999,9999,716889144
538,17,Jits_Phase_5,106,9999,9999,9999,717389948
538,17,Jits_Phase_5,107,9999,9999,9999,717889628
538,17,Jits_Phase_5,108,9999,9999,9999,718389320
538,17,Jits_Phase_5,109,9999,9999,9999,718890064
538,17,Jits_Phase_5,110,9999,9999,9999,719389760
538,17,Jits_Phase_5,111,9999,9999,9999,719889528
538,17,Jits_Phase_5,112,9999,9999,9999,720389224
538,17,Jits_Phase_5,113,9999,9999,9999,720889968
538,17,Jits_Phase_5,114,9999,9999,9999,721439844
538,17,Jits_Phase_5,115,9999,9999,9999,721939516
538,17,Jits_Phase_5,116,9999,9999,9999,722439272
538,17,Jits_Phase_5,117,9999,9999,9999,722940012
538,17,Jits_Phase_5,118,9999,9999,9999,723439708
538,17,Jits_Phase_5,119,9999,9999,9999,723939384
538,17,Jits_Phase_5,120,9999,9999,9999,724439152
538,17,Jits_Phase_5,121,9999,9999,9999,724939880
538,17,Jits_Phase_5,122,9999,9999,9999,725439576
538,17,Jits_Phase_5,123,9999,9999,9999,725939268
538,17,Jits_Phase_5,124,9999,9999,9999,726439996
538,17,Jits_Phase_5,125,9999,9999,9999,726939752
538,17,Jits_Phase_5,126,9999,9999,9999,727439448
538,17,Jits_Phase_5,127,9999,9999,9999,727939124
538,17,Jits_Phase_5,128,9999,9999,9999,728439932
538,17,Jits_Phase_5,129,9999,9999,9999,728939612
538,17,Jits_Phase_5,130,9999,9999,9999,729439356
538,17,Jits_Phase_5,131,9999,9999,9999,730039364
538,17,Jits_Phase_5,132,9999,9999,9999,730539112
538,17,Jits_Phase_5,133,9999,9999,9999,731039844
538,17,Jits_Phase_5,134,9999,9999,9999,731539520
538,17,Jits_Phase_5,135,9999,9999,9999,732039288
538,17,Jits_Phase_5,136,9999,9999,9999,732539960
538,17,Jits_Phase_5,137,9999,9999,9999,733039712
538,17,Jits_Phase_5,138,9999,9999,9999,733539440
538,17,Jits_Phase_5,139,9999,9999,9999,734039140
538,17,Jits_Phase_5,140,9999,9999,9999,734539864
538,17,Jits_Phase_5,141,9999,9999,9999,735039564
538,17,Jits_Phase_5,142,9999,9999,9999,735539260
538,17,Jits_Phase_5,143,9999,9999,9999,736040004
538,17,Jits_Phase_5,144,9999,9999,9999,736539772
538,17,Jits_Phase_5,145,9999,9999,9999,737039452
538,17,Jits_Phase_5,146,9999,9999,9999,737539156
538,17,Jits_Phase_5,147,9999,9999,9999,738039884
538,17,Jits_Phase_5,148,9999,9999,9999,738539632
538,17,Jits_Phase_5,149,9999,9999,9999,739039336
538,17,Jits_Phase_5,150,9999,9999,9999,739439680
538,17,Jits_Phase_5,151,9999,9999,9999,739939420
538,17,Jits_Phase_5,152,9999,9999,9999,740439112
538,17,Jits_Phase_5,153,9999,9999,9999,740939840
538,17,Jits_Phase_5,154,9999,9999,9999,741439596
538,17,Jits_Phase_5,155,9999,9999,9999,741939276
538,17,Jits_Phase_5,156,9999,9999,9999,742439992
538,17,Jits_Phase_5,157,9999,9999,9999,742939744
538,17,Jits_Phase_5,158,9999,9999,9999,743439424
538,17,Jits_Phase_5,159,9999,9999,9999,743939180
538,17,Jits_Phase_5,160,9999,9999,9999,744439928
538,17,Jits_Phase_5,161,9999,9999,9999,744939624
538,17,Jits_Phase_5,162,9999,9999,9999,745439316
538,17,Jits_Phase_5,163,9999,9999,9999,745940064
538,17,Jits_Phase_5,164,9999,9999,9999,746439756
538,17,Jits_Phase_5,165,9999,9999,9999,746939516
538,17,Jits_Phase_5,166,9999,9999,9999,747439212
538,17,Jits_Phase_5,167,9999,9999,9999,747939956
538,17,Jits_Phase_5,168,9999,9999,9999,748439644
538,17,Jits_Phase_5,169,9999,9999,9999,748939324
539,15,Jits_Phase_8,0,5,56,103,759900568
539,15,Jits_Phase_8,1,5,63,98,759903588
539,15,Jits_Phase_8,2,5,80,127,759906564
539,15,Jits_Phase_8,0,5,56,103,760701236
539,15,Jits_Phase_8,1,5,63,98,760704264
539,15,Jits_Phase_8,2,5,80,127,760707612
539,15,Jits_Phase_8,3,1,48,19,760935872
539,15,Jits_Phase_8,0,5,80,127,761440612
539,15,Jits_Phase_8,1,1,48,24,761458900
539,15,Jits_Phase_8,2,5,63,98,761530764
539,15,Jits_Phase_8,3,5,56,103,761541108
539,15,Jits_Phase_8,0,1,48,25,762268864
539,15,Jits_Phase_8,1,5,56,103,762270980
539,15,Jits_Phase_8,2,5,63,98,762281324
539,15,Jits_Phase_8,3,5,80,127,762370616
539,15,Jits_Phase_8,0,5,63,98,763041080
539,15,Jits_Phase_8,1,5,80,127,763070756
539,15,Jits_Phase_8,2,1,48,30,763072692
539,15,Jits_Phase_8,3,5,56,103,763100648
539,15,Jits_Phase_8,0,1,48,27,763827684
539,15,Jits_Phase_8,1,5,56,103,763840756
539,15,Jits_Phase_8,2,5,80,127,763941364
539,15,Jits_Phase_8,3,5,63,98,763991412
539,15,Jits_Phase_8,0,5,56,103,764640532
539,15,Jits_Phase_8,1,5,80,127,764690956
539,15,Jits_Phase_8,2,5,63,98,764730672
539,15,Jits_Phase_8,3,1,48,27,764754016
539,15,Jits_Phase_8,0,1,48,25,765420124
539,15,Jits_Phase_8,1,5,80,127,765471016
539,15,Jits_Phase_8,2,5,63,98,765500844
539,15,Jits_Phase_8,3,5,56,103,765570532
539,15,Jits_Phase_8,0,1,48,24,766249020
539,15,Jits_Phase_8,1,5,63,98,766300680
539,15,Jits_Phase_8,2,5,56,103,766331572
539,15,Jits_Phase_8,3,5,80,127,766390604
539,15,Jits_Phase_8,0,5,56,103,767040816
539,15,Jits_Phase_8,1,5,80,127,767043956
539,15,Jits_Phase_8,2,1,48,23,767068516
539,15,Jits_Phase_8,3,5,63,98,767160556
539,15,Jits_Phase_8,0,1,48,19,767919796
539,15,Jits_Phase_8,1,5,56,103,767921292
539,15,Jits_Phase_8,2,5,80,127,767960480
539,15,Jits_Phase_8,3,5,63,98,767970604
539,15,Jits_Phase_8,0,5,56,103,768681360
539,15,Jits_Phase_8,1,5,80,127,768700776
539,15,Jits_Phase_8,2,1,48,20,768715500
539,15,Jits_Phase_8,3,5,63,98,768780784
539,15,Jits_Phase_8,0,5,80,127,769470804
539,15,Jits_Phase_8,1,1,48,19,769524416
539,15,Jits_Phase_8,2,5,56,103,769571120
539,15,Jits_Phase_8,3,5,63,98,769581688
539,15,Jits_Phase_8,0,5,63,98,770240768
539,15,Jits_Phase_8,1,1,48,20,770293036
539,15,Jits_Phase_8,2,5,80,127,770301376
539,15,Jits_Phase_8,3,5,56,103,770310676
539,15,Jits_Phase_8,0,1,48,19,771030608
539,15,Jits_Phase_8,1,5,56,103,771040596
539,15,Jits_Phase_8,2,5,63,98,771111396
539,15,Jits_Phase_8,3,5,80,127,771114836
539,15,Jits_Phase_8,0,1,48,20,771771472
539,15,Jits_Phase_8,1,5,63,98,771871200
539,15,Jits_Phase_8,2,5,56,103,771921400
539,15,Jits_Phase_8,3,5,80,127,771924540
539,15,Jits_Phase_8,0,1,48,24,772595340
539,15,Jits_Phase_8,1,5,56,103,772630884
539,15,Jits_Phase_8,2,5,80,127,772634028
539,15,Jits_Phase_8,3,5,63,98,772720876
539,15,Jits_Phase_8,0,1,48,20,773370152
539,15,Jits_Phase_8,1,5,63,98,773470556
539,15,Jits_Phase_8,2,5,56,103,773560640
539,15,Jits_Phase_8,3,5,80,127,773591436
539,15,Jits_Phase_8,0,5,56,103,774261232
539,15,Jits_Phase_8,1,1,48,25,774265320
539,15,Jits_Phase_8,2,5,63,98,774360560
539,15,Jits_Phase_8,3,5,80,127,774391208
539,15,Jits_Phase_8,0,5,63,98,775081320
539,15,Jits_Phase_8,1,5,56,103,775090396
539,15,Jits_Phase_8,2,1,48,21,775125720
539,15,Jits_Phase_8,3,5,80,127,775180740
539,15,Jits_Phase_8,0,1,48,24,775864796
539,15,Jits_Phase_8,1,5,63,98,775900488
539,15,Jits_Phase_8,2,5,56,103,775981388
539,15,Jits_Phase_8,3,5,80,127,775984456
539,15,Jits_Phase_8,0,5,80,127,776661444
539,15,Jits_Phase_8,1,5,63,98,776680712
539,15,Jits_Phase_8,2,1,48,22,776733348
539,15,Jits_Phase_8,3,5,56,103,776741316
539,15,Jits_Phase_8,0,5,56,103,777501084
539,15,Jits_Phase_8,1,1,48,18,777503908
539,15,Jits_Phase_8,2,5,63,98,777520564
539,15,Jits_Phase_8,3,5,80,127,777523776
539,15,Jits_Phase_8,0,5,63,98,778241368
539,15,Jits_Phase_8,1,1,48,22,778278944
539,15,Jits_Phase_8,2,5,80,127,778321308
539,15,Jits_Phase_8,3,5,56,103,778330456
539,15,Jits_Phase_8,0,5,63,98,779060536
539,15,Jits_Phase_8,1,1,48,19,779073020
539,15,Jits_Phase_8,2,5,56,103,779081212
539,15,Jits_Phase_8,3,5,80,127,779131360
539,15,Jits_Phase_8,0,1,48,29,779855760
539,15,Jits_Phase_8,1,5,80,127,779861560
539,15,Jits_Phase_8,2,5,63,98,779901152
539,15,Jits_Phase_8,3,5,56,103,779920788
539,15,Jits_Phase_8,0,5,56,103,780700992
539,15,Jits_Phase_8,1,1,48,26,780701956
539,15,Jits_Phase_8,2,5,63,98,780711328
539,15,Jits_Phase_8,3,5,80,127,780730592
539,15,Jits_Phase_8,0,5,56,103,781431320
539,15,Jits_Phase_8,1,1,48,21,781469432
539,15,Jits_Phase_8,2,5,63,98,781521148
539,15,Jits_Phase_8,3,5,80,127,781580700
539,15,Jits_Phase_8,0,5,80,127,782260696
539,15,Jits_Phase_8,1,5,56,103,782271040
539,15,Jits_Phase_8,2,1,48,20,782326152
539,15,Jits_Phase_8,3,5,63,98,782340568
539,15,Jits_Phase_8,0,1,48,22,783057508
539,15,Jits_Phase_8,1,5,63,98,783091184
539,15,Jits_Phase_8,2,5,80,127,783181304
539,15,Jits_Phase_8,3,5,56,103,783191352
539,15,Jits_Phase_8,0,5,63,98,783821140
539,15,Jits_Phase_8,1,5,80,127,783871268
539,15,Jits_Phase_8,2,1,48,29,783924508
539,15,Jits_Phase_8,3,5,56,103,783930752
539,15,Jits_Phase_8,0,1,48,26,784620052
539,15,Jits_Phase_8,1,5,56,103,784641500
539,15,Jits_Phase_8,2,5,80,127,784690508
539,15,Jits_Phase_8,3,5,63,98,784710964
539,15,Jits_Phase_8,0,5,56,103,785410408
539,15,Jits_Phase_8,1,1,48,29,785422964
539,15,Jits_Phase_8,2,5,80,127,785470940
539,15,Jits_Phase_8,3,5,63,98,785540404
539,15,Jits_Phase_8,0,5,56,103,786211080
539,15,Jits_Phase_8,1,5,80,127,786241056
539,15,Jits_Phase_8,2,5,63,98,786270580
539,15,Jits_Phase_8,3,1,48,32,786303392
539,15,Jits_Phase_8,0,1,48,28,787026920
539,15,Jits_Phase_8,1,5,56,103,787051032
539,15,Jits_Phase_8,2,5,80,127,787071344
539,15,Jits_Phase_8,3,5,63,98,787130672
539,15,Jits_Phase_8,0,1,48,28,787817576
539,15,Jits_Phase_8,1,5,80,127,787930428
539,15,Jits_Phase_8,2,5,56,103,787940696
539,15,Jits_Phase_8,3,5,63,98,787950892
539,15,Jits_Phase_8,0,5,56,103,788691184
539,15,Jits_Phase_8,1,5,80,127,788731196
539,15,Jits_Phase_8,2,1,48,20,788735808
539,15,Jits_Phase_8,3,5,63,98,788761164
539,15,Jits_Phase_8,0,5,56,103,789461296
539,15,Jits_Phase_8,1,5,63,98,789491044
539,15,Jits_Phase_8,2,1,48,31,789510352
539,15,Jits_Phase_8,3,5,80,127,789530900
539,15,Jits_Phase_8,0,5,80,127,790210948
539,15,Jits_Phase_8,1,1,48,21,790260096
539,15,Jits_Phase_8,2,5,63,98,790261516
539,15,Jits_Phase_8,3,5,56,103,790280632
539,15,Jits_Phase_8,0,1,48,23,790988880
539,15,Jits_Phase_8,1,5,56,103,791041284
539,15,Jits_Phase_8,2,5,80,127,791111100
539,15,Jits_Phase_8,3,5,63,98,791170392
539,15,Jits_Phase_8,0,5,80,127,791841136
539,15,Jits_Phase_8,1,1,48,18,791872424
539,15,Jits_Phase_8,2,5,63,98,791931288
539,15,Jits_Phase_8,3,5,56,103,791950848
539,15,Jits_Phase_8,0,5,63,98,792661372
539,15,Jits_Phase_8,1,1,48,22,792669964
539,15,Jits_Phase_8,2,5,56,103,792681024
539,15,Jits_Phase_8,3,5,80,127,792720888
539,15,Jits_Phase_8,0,5,80,127,793421352
539,15,Jits_Phase_8,1,5,63,98,793440912
539,15,Jits_Phase_8,2,5,56,103,793520584
539,15,Jits_Phase_8,0,5,63,98,794210708
539,15,Jits_Phase_8,1,1,48,15,794266040
539,15,Jits_Phase_8,2,5,56,103,794321284
539,15,Jits_Phase_8,3,5,80,127,794324280
539,15,Jits_Phase_8,0,1,48,27,795007872
539,15,Jits_Phase_8,1,5,63,98,795030912
539,15,Jits_Phase_8,2,5,56,103,795041108
539,15,Jits_Phase_8,3,5,80,127,795044028
539,15,Jits_Phase_8,0,1,48,15,795779012
539,15,Jits_Phase_8,1,5,56,103,795811104
539,15,Jits_Phase_8,2,5,80,127,795931040
539,15,Jits_Phase_8,3,5,63,98,795970980
539,15,Jits_Phase_8,0,5,56,103,796631628
539,15,Jits_Phase_8,1,5,80,127,796711276
539,15,Jits_Phase_8,2,5,63,98,796730840
539,15,Jits_Phase_8,3,1,48,29,796743848
539,15,Jits_Phase_8,0,5,56,103,797431116
539,15,Jits_Phase_8,1,1,48,27,797468932
539,15,Jits_Phase_8,2,5,63,98,797540720
539,15,Jits_Phase_8,3,5,80,127,797544160
539,15,Jits_Phase_8,0,5,56,103,798270872
539,15,Jits_Phase_8,1,1,48,17,798273620
539,15,Jits_Phase_8,2,5,80,127,798300468
539,15,Jits_Phase_8,3,5,63,98,798320952
539,15,Jits_Phase_8,0,5,63,98,799061288
539,15,Jits_Phase_8,1,5,56,103,799070736
539,15,Jits_Phase_8,2,1,48,17,799071628
539,15,Jits_Phase_8,3,5,80,127,799080800
539,15,Jits_Phase_8,0,5,80,127,799850812
539,15,Jits_Phase_8,1,1,48,19,799855276
539,15,Jits_Phase_8,2,5,56,103,799901080
539,15,Jits_Phase_8,3,5,63,98,799940944
539,15,Jits_Phase_8,0,1,48,21,800659176
539,15,Jits_Phase_8,1,5,80,127,800671112
539,15,Jits_Phase_8,2,5,63,98,800690820
539,15,Jits_Phase_8,3,5,56,103,800740724
539,15,Jits_Phase_8,0,5,80,127,801481000
539,15,Jits_Phase_8,1,1,48,19,801485612
539,15,Jits_Phase_8,2,5,56,103,801510740
539,15,Jits_Phase_8,3,5,63,98,801581452
539,15,Jits_Phase_8,0,1,48,26,802286280
539,15,Jits_Phase_8,1,5,56,103,802331120
539,15,Jits_Phase_8,2,5,80,127,802341168
539,15,Jits_Phase_8,3,5,63,98,802382212
539,15,Jits_Phase_8,0,5,56,103,803040616
539,15,Jits_Phase_8,1,5,63,98,803061076
539,15,Jits_Phase_8,2,5,80,127,803130680
539,15,Jits_Phase_8,3,1,48,20,803161816
539,15,Jits_Phase_8,0,1,48,31,803853468
539,15,Jits_Phase_8,1,5,63,98,803860764
539,15,Jits_Phase_8,2,5,80,127,803921452
539,15,Jits_Phase_8,3,5,56,103,803940964
539,15,Jits_Phase_8,0,1,48,27,804639076
539,15,Jits_Phase_8,1,5,80,127,804651456
539,15,Jits_Phase_8,2,5,56,103,804681060
539,15,Jits_Phase_8,3,5,63,98,804710760
539,15,Jits_Phase_8,0,1,48,24,805371628
539,15,Jits_Phase_8,1,5,56,103,805451144
539,15,Jits_Phase_8,2,5,63,98,805510796
539,15,Jits_Phase_8,3,5,80,127,805570888
539,15,Jits_Phase_8,0,1,48,24,806253080
539,15,Jits_Phase_8,1,5,80,127,806271460
539,15,Jits_Phase_8,2,5,56,103,806290800
539,15,Jits_Phase_8,3,5,63,98,806360616
539,15,Jits_Phase_8,0,1,48,37,807046696
539,15,Jits_Phase_8,1,5,80,127,807071228
539,15,Jits_Phase_8,2,5,63,98,807090788
539,15,Jits_Phase_8,3,5,56,103,807121364
539,15,Jits_Phase_8,0,1,48,30,807805404
539,15,Jits_Phase_8,1,5,80,127,807860580
539,15,Jits_Phase_8,2,5,63,98,807881112
539,15,Jits_Phase_8,3,5,56,103,807940512
539,15,Jits_Phase_8,0,1,48,28,808632964
539,15,Jits_Phase_8,1,5,80,127,808661612
539,15,Jits_Phase_8,2,5,56,103,808760648
539,15,Jits_Phase_8,3,5,63,98,808791592
539,15,Jits_Phase_8,0,5,63,98,809450904
539,15,Jits_Phase_8,1,5,80,127,809501032
539,15,Jits_Phase_8,2,1,48,29,809509180
539,15,Jits_Phase_8,3,5,56,103,809520584
539,15,Jits_Phase_8,0,1,48,31,810280604
539,15,Jits_Phase_8,1,5,80,127,810290520
539,15,Jits_Phase_8,2,5,56,103,810321240
539,15,Jits_Phase_8,3,5,63,98,810324456
539,15,Jits_Phase_8,0,1,48,30,811100444
539,15,Jits_Phase_8,1,5,63,98,811140572
539,15,Jits_Phase_8,2,5,56,103,811181560
539,15,Jits_Phase_8,3,5,80,127,811200880
539,15,Jits_Phase_8,0,5,80,127,811901388
539,15,Jits_Phase_8,1,1,48,25,811930960
539,15,Jits_Phase_8,2,5,63,98,811981328
539,15,Jits_Phase_8,3,5,56,103,812020968
539,15,Jits_Phase_8,0,5,63,98,812720504
539,15,Jits_Phase_8,1,1,48,24,812784232
539,15,Jits_Phase_8,2,5,80,127,812801568
539,15,Jits_Phase_8,3,5,56,103,812820828
539,15,Jits_Phase_8,0,1,48,29,813544732
539,15,Jits_Phase_8,1,5,56,103,813561392
539,15,Jits_Phase_8,2,5,63,98,813570468
539,15,Jits_Phase_8,3,5,80,127,813611524
539,15,Jits_Phase_8,0,5,56,103,814281152
539,15,Jits_Phase_8,1,5,80,127,814283920
539,15,Jits_Phase_8,2,1,48,27,814391928
539,15,Jits_Phase_8,3,5,63,98,814421540
539,15,Jits_Phase_8,0,5,56,103,815070436
539,15,Jits_Phase_8,1,1,48,24,815158900
539,15,Jits_Phase_8,2,5,63,98,815160636
539,15,Jits_Phase_8,3,5,80,127,815231460
539,15,Jits_Phase_8,0,1,48,28,815913412
539,15,Jits_Phase_8,1,5,63,98,815951348
539,15,Jits_Phase_8,2,5,80,127,815954636
539,15,Jits_Phase_8,3,5,56,103,816010640
539,15,Jits_Phase_8,0,1,48,28,816720372
539,15,Jits_Phase_8,1,5,80,127,816790848
539,15,Jits_Phase_8,2,5,56,103,816811384
539,15,Jits_Phase_8,3,5,63,98,816820592
539,15,Jits_Phase_8,0,5,56,103,817500472
539,15,Jits_Phase_8,1,1,48,30,817507408
539,15,Jits_Phase_8,2,5,63,98,817510740
539,15,Jits_Phase_8,3,5,80,127,817581388
539,15,Jits_Phase_8,0,1,48,23,818270824
539,15,Jits_Phase_8,1,5,80,127,818301516
539,15,Jits_Phase_8,2,5,56,103,818350376
539,15,Jits_Phase_8,3,5,63,98,818400560
539,15,Jits_Phase_8,0,1,48,23,819113840
539,15,Jits_Phase_8,1,5,56,103,819180852
539,15,Jits_Phase_8,2,5,63,98,819191496
539,15,Jits_Phase_8,3,5,80,127,819231196
539,15,Jits_Phase_8,0,5,56,103,819921292
539,15,Jits_Phase_8,1,1,48,28,819925608
539,15,Jits_Phase_8,2,5,63,98,819961228
539,15,Jits_Phase_8,3,5,80,127,820011352
539,15,Jits_Phase_8,0,5,80,127,820681436
539,15,Jits_Phase_8,1,1,48,22,820729220
539,15,Jits_Phase_8,2,5,56,103,820731188
539,15,Jits_Phase_8,3,5,63,98,820750820
539,15,Jits_Phase_8,0,5,80,127,821491176
539,15,Jits_Phase_8,1,1,48,22,821525460
539,15,Jits_Phase_8,2,5,63,98,821550592
539,15,Jits_Phase_8,3,5,56,103,821631292
539,15,Jits_Phase_8,0,5,80,127,822271332
539,15,Jits_Phase_8,1,5,56,103,822311272
539,15,Jits_Phase_8,2,5,63,98,822330684
539,15,Jits_Phase_8,3,1,48,32,822364064
539,15,Jits_Phase_8,0,1,48,25,823093476
539,15,Jits_Phase_8,1,5,56,103,823121220
539,15,Jits_Phase_8,2,5,80,127,823130372
539,15,Jits_Phase_8,3,5,63,98,823170480
539,15,Jits_Phase_8,0,1,48,27,823875176
539,15,Jits_Phase_8,1,5,56,103,823990744
539,15,Jits_Phase_8,2,5,63,98,824030532
539,15,Jits_Phase_8,3,5,80,127,824033972
539,15,Jits_Phase_8,0,5,63,98,824661340
539,15,Jits_Phase_8,1,5,80,127,824701228
539,15,Jits_Phase_8,2,1,48,27,824751920
539,15,Jits_Phase_8,3,5,56,103,824771124
539,15,Jits_Phase_8,0,5,63,98,825431288
539,15,Jits_Phase_8,1,1,48,25,825496760
539,15,Jits_Phase_8,2,5,56,103,825511252
539,15,Jits_Phase_8,3,5,80,127,825570816
539,15,Jits_Phase_8,0,1,48,31,826203820
539,15,Jits_Phase_8,1,5,80,127,826241484
539,15,Jits_Phase_8,2,5,63,98,826290416
539,15,Jits_Phase_8,3,5,56,103,826321196
539,15,Jits_Phase_8,0,1,48,26,827004132
539,15,Jits_Phase_8,1,5,56,103,827031056
539,15,Jits_Phase_8,2,5,63,98,827081184
539,15,Jits_Phase_8,3,5,80,127,827091452
539,15,Jits_Phase_8,0,1,48,32,827827412
539,15,Jits_Phase_8,1,5,56,103,827841076
539,15,Jits_Phase_8,2,5,63,98,827950380
539,15,Jits_Phase_8,3,5,80,127,827971060
539,15,Jits_Phase_8,0,5,63,98,828640628
539,15,Jits_Phase_8,1,1,48,25,828673488
539,15,Jits_Phase_8,2,5,80,127,828690896
539,15,Jits_Phase_8,3,5,56,103,828781036
539,15,Jits_Phase_8,0,1,48,25,829431472
539,15,Jits_Phase_8,1,5,63,98,829432660
539,15,Jits_Phase_8,2,5,80,127,829461068
539,15,Jits_Phase_8,3,5,56,103,829551060
539,15,Jits_Phase_8,0,5,63,98,830230864
539,15,Jits_Phase_8,1,5,56,103,830241132
539,15,Jits_Phase_8,2,1,48,24,830245524
539,15,Jits_Phase_8,3,5,80,127,830340500
539,15,Jits_Phase_8,0,1,48,27,831039284
539,15,Jits_Phase_8,1,5,63,98,831130964
539,15,Jits_Phase_8,2,5,80,127,831160624
539,15,Jits_Phase_8,3,5,56,103,831191420
539,15,Jits_Phase_8,0,1,48,27,831931160
539,15,Jits_Phase_8,1,5,80,127,831951116
539,15,Jits_Phase_8,2,5,63,98,831960560
539,15,Jits_Phase_8,3,5,56,103,831991060
539,15,Jits_Phase_8,0,5,80,127,832650576
539,15,Jits_Phase_8,1,5,63,98,832671112
539,15,Jits_Phase_8,2,5,56,103,832721236
539,15,Jits_Phase_8,3,1,48,19,832758136
539,15,Jits_Phase_8,0,1,48,19,833458864
539,15,Jits_Phase_8,1,5,63,98,833480988
539,15,Jits_Phase_8,2,5,80,127,833540404
539,15,Jits_Phase_8,3,5,56,103,833560848
539,15,Jits_Phase_8,0,1,48,21,834238384
539,15,Jits_Phase_8,1,5,63,98,834240896
539,15,Jits_Phase_8,2,5,56,103,834291024
539,15,Jits_Phase_8,3,5,80,127,834301444
539,15,Jits_Phase_8,0,1,48,17,835025712
539,15,Jits_Phase_8,1,5,56,103,835071300
539,15,Jits_Phase_8,2,5,80,127,835080896
539,15,Jits_Phase_8,3,5,63,98,835180852
539,15,Jits_Phase_8,0,5,80,127,835831064
539,15,Jits_Phase_8,1,5,63,98,835841260
539,15,Jits_Phase_8,2,1,48,21,835890384
539,15,Jits_Phase_8,3,5,56,103,835990800
539,15,Jits_Phase_8,0,5,63,98,836641104
539,15,Jits_Phase_8,1,1,48,18,836658764
539,15,Jits_Phase_8,2,5,80,127,836681036
539,15,Jits_Phase_8,3,5,56,103,836760912
539,15,Jits_Phase_8,0,5,56,103,837390668
539,15,Jits_Phase_8,1,1,48,16,837425476
539,15,Jits_Phase_8,2,5,80,127,837491008
539,15,Jits_Phase_8,3,5,63,98,837510496
539,15,Jits_Phase_8,0,1,48,18,838188776
539,15,Jits_Phase_8,1,5,80,127,838210972
539,15,Jits_Phase_8,2,5,56,103,838221172
539,15,Jits_Phase_8,3,5,63,98,838311236
539,15,Jits_Phase_8,0,1,48,23,838984120
539,15,Jits_Phase_8,1,5,56,103,839010844
539,15,Jits_Phase_8,2,5,63,98,839031004
539,15,Jits_Phase_8,3,5,80,127,839111080
539,15,Jits_Phase_8,0,5,63,98,839761144
539,15,Jits_Phase_8,1,1,48,25,839778904
539,15,Jits_Phase_8,2,5,56,103,839851368
539,15,Jits_Phase_8,3,5,80,127,839854584
539,15,Jits_Phase_8,0,1,48,24,840557736
539,15,Jits_Phase_8,1,5,56,103,840590808
539,15,Jits_Phase_8,2,5,80,127,840651124
539,15,Jits_Phase_8,3,5,63,98,840661528
539,15,Jits_Phase_8,0,5,80,127,841440700
539,15,Jits_Phase_8,1,5,56,103,841450820
539,15,Jits_Phase_8,2,5,63,98,841453964
539,15,Jits_Phase_8,0,1,48,27,842177936
539,15,Jits_Phase_8,1,5,56,103,842200596
539,15,Jits_Phase_8,2,5,80,127,842210644
539,15,Jits_Phase_8,3,5,63,98,842231028
539,15,Jits_Phase_8,0,1,48,21,842939124
539,15,Jits_Phase_8,1,5,63,98,842970760
539,15,Jits_Phase_8,2,5,80,127,843031740
539,15,Jits_Phase_8,3,5,56,103,843081040
539,15,Jits_Phase_8,0,1,48,19,843756256
539,15,Jits_Phase_8,1,5,63,98,843851068
539,15,Jits_Phase_8,2,5,56,103,843861324
539,15,Jits_Phase_8,3,5,80,127,843910800
539,15,Jits_Phase_8,0,5,63,98,844550748
539,15,Jits_Phase_8,1,5,80,127,844570984
539,15,Jits_Phase_8,2,5,56,103,844581180
539,15,Jits_Phase_8,3,1,48,21,844589256
539,15,Jits_Phase_8,0,1,48,20,845314580
539,15,Jits_Phase_8,1,5,63,98,845351320
539,15,Jits_Phase_8,2,5,80,127,845354684
539,15,Jits_Phase_8,3,5,56,103,845391184
539,15,Jits_Phase_8,0,1,48,20,846098512
539,15,Jits_Phase_8,1,5,63,98,846220752
539,15,Jits_Phase_8,2,5,80,127,846251624
539,15,Jits_Phase_8,3,5,56,103,846260624
539,15,Jits_Phase_8,0,5,56,103,846971388
539,15,Jits_Phase_8,1,1,48,20,846983504
539,15,Jits_Phase_8,2,5,80,127,847001060
539,15,Jits_Phase_8,3,5,63,98,847030588
539,15,Jits_Phase_8,0,1,48,19,847810320
539,15,Jits_Phase_8,1,5,63,98,847871628
539,15,Jits_Phase_8,2,5,56,103,847911476
539,15,Jits_Phase_8,3,5,80,127,847914544
539,15,Jits_Phase_8,0,5,80,127,848570784
539,15,Jits_Phase_8,1,1,48,21,848639908
539,15,Jits_Phase_8,2,5,56,103,848650720
539,15,Jits_Phase_8,3,5,63,98,848700920
539,15,Jits_Phase_8,0,5,80,127,849351084
539,15,Jits_Phase_8,1,5,56,103,849370720
539,15,Jits_Phase_8,2,1,48,20,849442168
539,15,Jits_Phase_8,3,5,63,98,849460548
539,15,Jits_Phase_8,0,1,48,19,850187456
539,15,Jits_Phase_8,1,5,80,127,850190712
539,15,Jits_Phase_8,2,5,63,98,850230576
539,15,Jits_Phase_8,3,5,56,103,850270516
539,15,Jits_Phase_8,0,5,63,98,851000824
539,15,Jits_Phase_8,1,1,48,17,851003720
539,15,Jits_Phase_8,2,5,80,127,851061160
539,15,Jits_Phase_8,3,5,56,103,851090760
539,15,Jits_Phase_8,0,1,48,19,851784284
539,15,Jits_Phase_8,1,5,56,103,851841432
539,15,Jits_Phase_8,2,5,80,127,851871108
539,15,Jits_Phase_8,3,5,63,98,851961444
539,15,Jits_Phase_8,0,5,56,103,852651612
539,15,Jits_Phase_8,1,1,48,22,852708684
539,15,Jits_Phase_8,2,5,80,127,852760996
539,15,Jits_Phase_8,3,5,63,98,852790596
539,15,Jits_Phase_8,0,5,56,103,853501368
539,15,Jits_Phase_8,1,1,48,21,853511156
539,15,Jits_Phase_8,2,5,63,98,853560632
539,15,Jits_Phase_8,3,5,80,127,853591428
539,15,Jits_Phase_8,0,5,56,103,854271484
539,15,Jits_Phase_8,1,1,48,23,854274528
539,15,Jits_Phase_8,2,5,63,98,854341084
539,15,Jits_Phase_8,3,5,80,127,854360424
539,15,Jits_Phase_8,0,5,80,127,855041372
539,15,Jits_Phase_8,1,5,63,98,855060784
539,15,Jits_Phase_8,2,5,56,103,855110984
539,15,Jits_Phase_8,3,1,48,22,855123692
539,15,Jits_Phase_8,0,1,48,19,855843728
539,15,Jits_Phase_8,1,5,63,98,855860616
539,15,Jits_Phase_8,2,5,80,127,855870812
539,15,Jits_Phase_8,3,5,56,103,855920964
539,15,Jits_Phase_8,0,1,48,20,856624388
539,15,Jits_Phase_8,1,5,63,98,856661352
539,15,Jits_Phase_8,2,5,80,127,856731192
539,15,Jits_Phase_8,3,5,56,103,856750380
539,15,Jits_Phase_8,0,1,48,22,857467548
539,15,Jits_Phase_8,1,5,63,98,857490808
539,15,Jits_Phase_8,2,5,80,127,857494172
539,15,Jits_Phase_8,3,5,56,103,857560488
539,15,Jits_Phase_8,0,5,80,127,858241272
539,15,Jits_Phase_8,1,1,48,16,858250164
539,15,Jits_Phase_8,2,5,56,103,858260976
539,15,Jits_Phase_8,3,5,63,98,858271396
539,15,Jits_Phase_8,0,1,48,19,858951980
539,15,Jits_Phase_8,1,5,56,103,859060576
539,15,Jits_Phase_8,2,5,63,98,859150708
539,15,Jits_Phase_8,3,5,80,127,859154296
539,15,Jits_Phase_8,0,5,80,127,859830760
539,15,Jits_Phase_8,1,5,56,103,859840884
539,15,Jits_Phase_8,2,5,63,98,859861416
539,15,Jits_Phase_8,3,1,48,15,859880572
539,15,Jits_Phase_8,0,1,48,23,860576176
539,15,Jits_Phase_8,1,5,63,98,860631352
539,15,Jits_Phase_8,2,5,80,127,860690904
539,15,Jits_Phase_8,3,5,56,103,860701248
539,15,Jits_Phase_8,0,1,48,21,861379916
539,15,Jits_Phase_8,1,5,63,98,861500920
539,15,Jits_Phase_8,2,5,80,127,861530524
539,15,Jits_Phase_8,3,5,56,103,861570484
539,15,Jits_Phase_8,0,1,48,28,862290516
539,15,Jits_Phase_8,1,5,56,103,862292160
539,15,Jits_Phase_8,2,5,80,127,862300488
539,15,Jits_Phase_8,3,5,63,98,862340524
539,15,Jits_Phase_8,0,5,80,127,863051248
539,15,Jits_Phase_8,1,1,48,24,863097240
539,15,Jits_Phase_8,2,5,56,103,863131136
539,15,Jits_Phase_8,3,5,63,98,863141332
539,15,Jits_Phase_8,0,1,48,24,863871180
539,15,Jits_Phase_8,1,5,80,127,863901244
539,15,Jits_Phase_8,2,5,56,103,863981172
539,15,Jits_Phase_8,3,5,63,98,863991148
539,15,Jits_Phase_8,0,1,48,22,864706528
539,15,Jits_Phase_8,1,5,80,127,864740804
539,15,Jits_Phase_8,2,5,56,103,864791152
539,15,Jits_Phase_8,3,5,63,98,864841264
539,15,Jits_Phase_8,0,1,48,26,865646488
539,15,Jits_Phase_8,1,5,56,103,865680836
539,15,Jits_Phase_8,2,5,63,98,865683904
539,15,Jits_Phase_8,3,5,80,127,865731108
539,15,Jits_Phase_8,0,1,48,22,866487828
539,15,Jits_Phase_8,1,5,56,103,866501048
539,15,Jits_Phase_8,2,5,63,98,866530800
539,15,Jits_Phase_8,3,5,80,127,866541144
539,15,Jits_Phase_8,0,5,63,98,867210624
539,15,Jits_Phase_8,1,5,56,103,867281204
539,15,Jits_Phase_8,2,1,48,20,867315112
539,15,Jits_Phase_8,3,5,80,127,867330352
539,15,Jits_Phase_8,0,1,48,21,868032608
539,15,Jits_Phase_8,1,5,63,98,868041172
539,15,Jits_Phase_8,2,5,56,103,868051292
539,15,Jits_Phase_8,3,5,80,127,868054432
539,15,Jits_Phase_8,0,5,80,127,868790584
539,15,Jits_Phase_8,1,1,48,23,868827560
539,15,Jits_Phase_8,2,5,56,103,868851044
539,15,Jits_Phase_8,3,5,63,98,868941084
539,15,Jits_Phase_8,0,5,80,127,869591408
539,15,Jits_Phase_8,1,1,48,24,869641732
539,15,Jits_Phase_8,2,5,56,103,869690900
539,15,Jits_Phase_8,3,5,63,98,869730788
539,15,Jits_Phase_8,0,1,48,28,870416252
539,15,Jits_Phase_8,1,5,56,103,870441308
539,15,Jits_Phase_8,2,5,63,98,870460872
539,15,Jits_Phase_8,3,5,80,127,870500832
539,15,Jits_Phase_8,0,1,48,24,871188432
539,15,Jits_Phase_8,1,5,63,98,871211400
539,15,Jits_Phase_8,2,5,56,103,871231032
539,15,Jits_Phase_8,3,5,80,127,871331216
539,15,Jits_Phase_8,0,1,48,19,871966476
539,15,Jits_Phase_8,1,5,63,98,872000972
539,15,Jits_Phase_8,2,5,80,127,872110376
539,15,Jits_Phase_8,3,5,56,103,872141244
539,15,Jits_Phase_8,0,1,48,24,872806348
539,15,Jits_Phase_8,1,5,56,103,872821220
539,15,Jits_Phase_8,2,5,63,98,872851044
539,15,Jits_Phase_8,3,5,80,127,872900932
539,15,Jits_Phase_8,0,5,63,98,873591168
539,15,Jits_Phase_8,1,1,48,19,873599096
539,15,Jits_Phase_8,2,5,56,103,873620840
539,15,Jits_Phase_8,3,5,80,127,873671112
539,15,Jits_Phase_8,0,1,48,21,874398380
539,15,Jits_Phase_8,1,5,56,103,874420668
539,15,Jits_Phase_8,2,5,63,98,874440976
539,15,Jits_Phase_8,3,5,80,127,874520980
539,15,Jits_Phase_8,0,5,63,98,875190768
539,15,Jits_Phase_8,1,1,48,19,875204000
539,15,Jits_Phase_8,2,5,56,103,875250928
539,15,Jits_Phase_8,3,5,80,127,875280828
539,15,Jits_Phase_8,0,1,48,24,875965988
539,15,Jits_Phase_8,1,5,56,103,876031280
539,15,Jits_Phase_8,2,5,80,127,876090684
539,15,Jits_Phase_8,3,5,63,98,876130720
539,15,Jits_Phase_8,0,5,63,98,876810972
539,15,Jits_Phase_8,1,5,56,103,876871068
539,15,Jits_Phase_8,2,1,48,24,876890228
539,15,Jits_Phase_8,3,5,80,127,876940764
539,15,Jits_Phase_8,0,1,48,24,877609660
539,15,Jits_Phase_8,1,5,56,103,877691296
539,15,Jits_Phase_8,2,5,63,98,877700520
539,15,Jits_Phase_8,3,5,80,127,877703884
539,15,Jits_Phase_8,0,1,48,21,878418692
539,15,Jits_Phase_8,1,5,63,98,878430868
539,15,Jits_Phase_8,2,5,56,103,878491056
539,15,Jits_Phase_8,3,5,80,127,878494124
539,15,Jits_Phase_8,0,1,48,20,879211248
539,15,Jits_Phase_8,1,5,63,98,879212508
539,15,Jits_Phase_8,2,5,80,127,879240840
539,15,Jits_Phase_8,3,5,56,103,879261076
539,15,Jits_Phase_8,0,5,56,103,879941008
539,15,Jits_Phase_8,1,1,48,28,879981240
539,15,Jits_Phase_8,2,5,63,98,879991080
539,15,Jits_Phase_8,3,5,80,127,880071096
539,15,Jits_Phase_8,0,5,80,127,880641528
539,15,Jits_Phase_8,1,5,63,98,880681320
539,15,Jits_Phase_8,2,5,56,103,880700732
539,15,Jits_Phase_8,3,1,48,19,880755788
539,15,Jits_Phase_8,0,1,48,26,881374660
539,15,Jits_Phase_8,1,5,56,103,881510684
539,15,Jits_Phase_8,2,5,80,127,881520880
539,15,Jits_Phase_8,3,5,63,98,881540664
539,15,Jits_Phase_8,0,5,56,103,882291140
539,15,Jits_Phase_8,1,1,48,22,882292104
539,15,Jits_Phase_8,2,5,63,98,882341188
539,15,Jits_Phase_8,3,5,80,127,882370936
539,15,Jits_Phase_8,0,5,56,103,883040724
539,15,Jits_Phase_8,1,5,63,98,883050920
539,15,Jits_Phase_8,2,1,48,22,883089784
539,15,Jits_Phase_8,3,5,80,127,883101116
539,15,Jits_Phase_8,0,1,48,23,883799688
539,15,Jits_Phase_8,1,5,56,103,883831196
539,15,Jits_Phase_8,2,5,80,127,883834340
539,15,Jits_Phase_8,3,5,63,98,883990984
539,15,Jits_Phase_8,0,5,63,98,884651780
539,15,Jits_Phase_8,1,5,56,103,884720944
539,15,Jits_Phase_8,2,1,48,27,884739280
539,15,Jits_Phase_8,3,5,80,127,884760872
539,15,Jits_Phase_8,0,1,48,20,885433464
539,15,Jits_Phase_8,1,5,63,98,885491032
539,15,Jits_Phase_8,2,5,56,103,885581148
539,15,Jits_Phase_8,3,5,80,127,885584436
539,15,Jits_Phase_8,0,5,56,103,886271688
539,15,Jits_Phase_8,1,1,48,23,886306348
539,15,Jits_Phase_8,2,5,63,98,886360620
539,15,Jits_Phase_8,3,5,80,127,886370696
539,15,Jits_Phase_8,0,5,56,103,887041508
539,15,Jits_Phase_8,1,5,63,98,887090660
539,15,Jits_Phase_8,2,5,80,127,887121232
539,15,Jits_Phase_8,3,1,48,22,887155988
539,15,Jits_Phase_8,0,1,48,28,887904508
539,15,Jits_Phase_8,1,5,63,98,887920944
539,15,Jits_Phase_8,2,5,80,127,887931364
539,15,Jits_Phase_8,3,5,56,103,887990780
539,15,Jits_Phase_8,0,5,63,98,888640976
539,15,Jits_Phase_8,1,5,80,127,888701392
539,15,Jits_Phase_8,2,1,48,29,888724592
539,15,Jits_Phase_8,3,5,56,103,888741396
539,15,Jits_Phase_8,0,1,48,29,889511684
539,15,Jits_Phase_8,1,5,56,103,889540856
539,15,Jits_Phase_8,2,5,80,127,889560640
539,15,Jits_Phase_8,3,5,63,98,889580800
539,15,Jits_Phase_8,0,5,63,98,890260840
539,15,Jits_Phase_8,1,5,56,103,890281600
539,15,Jits_Phase_8,2,5,80,127,890321388
539,15,Jits_Phase_8,3,1,48,21,890353276
539,15,Jits_Phase_8,0,5,63,98,891070720
539,15,Jits_Phase_8,1,5,80,127,891100472
539,15,Jits_Phase_8,2,1,48,29,891109816
539,15,Jits_Phase_8,3,5,56,103,891121072
539,15,Jits_Phase_8,0,5,80,127,891840816
539,15,Jits_Phase_8,1,1,48,29,891874576
539,15,Jits_Phase_8,2,5,56,103,891891084
539,15,Jits_Phase_8,3,5,63,98,891950576
539,15,Jits_Phase_8,0,5,63,98,892631448
539,15,Jits_Phase_8,1,1,48,29,892646480
539,15,Jits_Phase_8,2,5,56,103,892751304
539,15,Jits_Phase_8,3,5,80,127,892780780
539,15,Jits_Phase_8,0,1,48,31,893443692
539,15,Jits_Phase_8,1,5,80,127,893471216
539,15,Jits_Phase_8,2,5,63,98,893490484
539,15,Jits_Phase_8,3,5,56,103,893561292
539,15,Jits_Phase_8,0,1,48,30,894270432
539,15,Jits_Phase_8,1,5,63,98,894291508
539,15,Jits_Phase_8,2,5,56,103,894300512
539,15,Jits_Phase_8,3,5,80,127,894381360
539,15,Jits_Phase_8,0,1,48,28,895138096
539,15,Jits_Phase_8,1,5,56,103,895150492
539,15,Jits_Phase_8,2,5,80,127,895181364
539,15,Jits_Phase_8,3,5,63,98,895191412
539,15,Jits_Phase_8,0,9999,9999,9999,760298600
539,15,Jits_Phase_8,1,9999,9999,9999,761098332
539,15,Jits_Phase_8,2,9999,9999,9999,761899088
539,15,Jits_Phase_8,3,9999,9999,9999,762709056
539,15,Jits_Phase_8,4,9999,9999,9999,763508840
539,15,Jits_Phase_8,5,9999,9999,9999,764308532
539,15,Jits_Phase_8,6,9999,9999,9999,765108296
539,15,Jits_Phase_8,7,9999,9999,9999,765909048
539,15,Jits_Phase_8,8,9999,9999,9999,766708820
539,15,Jits_Phase_8,9,9999,9999,9999,767508568
539,15,Jits_Phase_8,10,9999,9999,9999,768308280
539,15,Jits_Phase_8,11,9999,9999,9999,769109096
539,15,Jits_Phase_8,12,9999,9999,9999,769908832
539,15,Jits_Phase_8,13,9999,9999,9999,770708604
539,15,Jits_Phase_8,14,9999,9999,9999,771508284
539,15,Jits_Phase_8,15,9999,9999,9999,772309084
539,15,Jits_Phase_8,16,9999,9999,9999,773108832
539,15,Jits_Phase_8,17,9999,9999,9999,773908608
539,15,Jits_Phase_8,18,9999,9999,9999,774708300
539,15,Jits_Phase_8,19,9999,9999,9999,775509056
539,15,Jits_Phase_8,20,9999,9999,9999,776308844
539,15,Jits_Phase_8,21,9999,9999,9999,777108536
539,15,Jits_Phase_8,22,9999,9999,9999,777908308
539,15,Jits_Phase_8,23,9999,9999,9999,778709060
539,15,Jits_Phase_8,24,9999,9999,9999,779508816
539,15,Jits_Phase_8,25,9999,9999,9999,780308580
539,15,Jits_Phase_8,26,9999,9999,9999,781108348
539,15,Jits_Phase_8,27,9999,9999,9999,781909104
539,15,Jits_Phase_8,28,9999,9999,9999,782708832
539,15,Jits_Phase_8,29,9999,9999,9999,783508548
539,15,Jits_Phase_8,30,9999,9999,9999,784288828
539,15,Jits_Phase_8,31,9999,9999,9999,785088596
539,15,Jits_Phase_8,32,9999,9999,9999,785888360
539,15,Jits_Phase_8,33,9999,9999,9999,786688060
539,15,Jits_Phase_8,34,9999,9999,9999,787488888
539,15,Jits_Phase_8,35,9999,9999,9999,788288584
539,15,Jits_Phase_8,36,9999,9999,9999,789088356
539,15,Jits_Phase_8,37,9999,9999,9999,789888080
539,15,Jits_Phase_8,38,9999,9999,9999,790688824
539,15,Jits_Phase_8,39,9999,9999,9999,791488608
539,15,Jits_Phase_8,40,9999,9999,9999,792288376
539,15,Jits_Phase_8,41,9999,9999,9999,793088084
539,15,Jits_Phase_8,42,9999,9999,9999,793888840
539,15,Jits_Phase_8,43,9999,9999,9999,794688632
539,15,Jits_Phase_8,44,9999,9999,9999,795488384
539,15,Jits_Phase_8,45,9999,9999,9999,796288096
539,15,Jits_Phase_8,46,9999,9999,9999,797088836
539,15,Jits_Phase_8,47,9999,9999,9999,797888588
539,15,Jits_Phase_8,48,9999,9999,9999,798708820
539,15,Jits_Phase_8,49,9999,9999,9999,799508596
539,15,Jits_Phase_8,50,9999,9999,9999,800308288
539,15,Jits_Phase_8,51,9999,9999,9999,801109116
539,15,Jits_Phase_8,52,9999,9999,9999,801908832
539,15,Jits_Phase_8,53,9999,9999,9999,802708544
539,15,Jits_Phase_8,54,9999,9999,9999,803508304
539,15,Jits_Phase_8,55,9999,9999,9999,804309056
539,15,Jits_Phase_8,56,9999,9999,9999,805108816
539,15,Jits_Phase_8,57,9999,9999,9999,805908580
539,15,Jits_Phase_8,58,9999,9999,9999,806708344
539,15,Jits_Phase_8,59,9999,9999,9999,807509084
539,15,Jits_Phase_8,60,9999,9999,9999,808308796
539,15,Jits_Phase_8,61,9999,9999,9999,809108564
539,15,Jits_Phase_8,62,9999,9999,9999,809908332
539,15,Jits_Phase_8,63,9999,9999,9999,810709060
539,15,Jits_Phase_8,64,9999,9999,9999,811548760
539,15,Jits_Phase_8,65,9999,9999,9999,812348532
539,15,Jits_Phase_8,66,9999,9999,9999,813148244
539,15,Jits_Phase_8,67,9999,9999,9999,813949004
539,15,Jits_Phase_8,68,9999,9999,9999,814748756
539,15,Jits_Phase_8,69,9999,9999,9999,815548544
539,15,Jits_Phase_8,70,9999,9999,9999,816348244
539,15,Jits_Phase_8,71,9999,9999,9999,817148992
539,15,Jits_Phase_8,72,9999,9999,9999,817948732
539,15,Jits_Phase_8,73,9999,9999,9999,818748516
539,15,Jits_Phase_8,74,9999,9999,9999,819548216
539,15,Jits_Phase_8,75,9999,9999,9999,820349056
539,15,Jits_Phase_8,76,9999,9999,9999,821148752
539,15,Jits_Phase_8,77,9999,9999,9999,821948536
539,15,Jits_Phase_8,78,9999,9999,9999,822748232
539,15,Jits_Phase_8,79,9999,9999,9999,823548984
539,15,Jits_Phase_8,80,9999,9999,9999,824348748
539,15,Jits_Phase_8,81,9999,9999,9999,825108580
539,15,Jits_Phase_8,82,9999,9999,9999,825908344
539,15,Jits_Phase_8,83,9999,9999,9999,826709080
539,15,Jits_Phase_8,84,9999,9999,9999,827508864
539,15,Jits_Phase_8,85,9999,9999,9999,828308556
539,15,Jits_Phase_8,86,9999,9999,9999,829108320
539,15,Jits_Phase_8,87,9999,9999,9999,829909052
539,15,Jits_Phase_8,88,9999,9999,9999,830708812
539,15,Jits_Phase_8,89,9999,9999,9999,831508588
539,15,Jits_Phase_8,90,9999,9999,9999,832308288
539,15,Jits_Phase_8,91,9999,9999,9999,833109096
539,15,Jits_Phase_8,92,9999,9999,9999,833908828
539,15,Jits_Phase_8,93,9999,9999,9999,834708588
539,15,Jits_Phase_8,94,9999,9999,9999,835508284
539,15,Jits_Phase_8,95,9999,9999,9999,836309092
539,15,Jits_Phase_8,96,9999,9999,9999,837108792
539,15,Jits_Phase_8,97,9999,9999,9999,837828696
539,15,Jits_Phase_8,98,9999,9999,9999,838628480
539,15,Jits_Phase_8,99,9999,9999,9999,839428176
539,15,Jits_Phase_8,100,9999,9999,9999,840228976
539,15,Jits_Phase_8,101,9999,9999,9999,841028664
539,15,Jits_Phase_8,102,9999,9999,9999,841828468
539,15,Jits_Phase_8,103,9999,9999,9999,842628212
539,15,Jits_Phase_8,104,9999,9999,9999,843428948
539,15,Jits_Phase_8,105,9999,9999,9999,844228716
539,15,Jits_Phase_8,106,9999,9999,9999,845028472
539,15,Jits_Phase_8,107,9999,9999,9999,845828220
539,15,Jits_Phase_8,108,9999,9999,9999,846628956
539,15,Jits_Phase_8,109,9999,9999,9999,847428716
539,15,Jits_Phase_8,110,9999,9999,9999,848228448
539,15,Jits_Phase_8,111,9999,9999,9999,849028216
539,15,Jits_Phase_8,112,9999,9999,9999,849828964
539,15,Jits_Phase_8,113,9999,9999,9999,850628668
539,15,Jits_Phase_8,114,9999,9999,9999,851508292
539,15,Jits_Phase_8,115,9999,9999,9999,852309104
539,15,Jits_Phase_8,116,9999,9999,9999,853108820
539,15,Jits_Phase_8,117,9999,9999,9999,853908604
539,15,Jits_Phase_8,118,9999,9999,9999,854708312
539,15,Jits_Phase_8,119,9999,9999,9999,855509060
539,15,Jits_Phase_8,120,9999,9999,9999,856308832
539,15,Jits_Phase_8,121,9999,9999,9999,857108596
539,15,Jits_Phase_8,122,9999,9999,9999,857908280
539,15,Jits_Phase_8,123,9999,9999,9999,858709084
539,15,Jits_Phase_8,124,9999,9999,9999,859508804
539,15,Jits_Phase_8,125,9999,9999,9999,860308560
539,15,Jits_Phase_8,126,9999,9999,9999,861108336
539,15,Jits_Phase_8,127,9999,9999,9999,861909076
539,15,Jits_Phase_8,128,9999,9999,9999,862708840
539,15,Jits_Phase_8,129,9999,9999,9999,863508604
539,15,Jits_Phase_8,130,9999,9999,9999,864308316
539,15,Jits_Phase_8,131,9999,9999,9999,865268804
539,15,Jits_Phase_8,132,9999,9999,9999,866068564
539,15,Jits_Phase_8,133,9999,9999,9999,866868340
539,15,Jits_Phase_8,134,9999,9999,9999,867669076
539,15,Jits_Phase_8,135,9999,9999,9999,868468852
539,15,Jits_Phase_8,136,9999,9999,9999,869268540
539,15,Jits_Phase_8,137,9999,9999,9999,870068324
539,15,Jits_Phase_8,138,9999,9999,9999,870869076
539,15,Jits_Phase_8,139,9999,9999,9999,871668836
539,15,Jits_Phase_8,140,9999,9999,9999,872468604
539,15,Jits_Phase_8,141,9999,9999,9999,873268288
539,15,Jits_Phase_8,142,9999,9999,9999,874069096
539,15,Jits_Phase_8,143,9999,9999,9999,874868812
539,15,Jits_Phase_8,144,9999,9999,9999,875668572
539,15,Jits_Phase_8,145,9999,9999,9999,876468340
539,15,Jits_Phase_8,146,9999,9999,9999,877269076
539,15,Jits_Phase_8,147,9999,9999,9999,878068836
539,15,Jits_Phase_8,148,9999,9999,9999,878868592
539,15,Jits_Phase_8,149,9999,9999,9999,879668348
539,15,Jits_Phase_8,150,9999,9999,9999,880308320
539,15,Jits_Phase_8,151,9999,9999,9999,881109068
539,15,Jits_Phase_8,152,9999,9999,9999,881908844
539,15,Jits_Phase_8,153,9999,9999,9999,882708540
539,15,Jits_Phase_8,154,9999,9999,9999,883508312
539,15,Jits_Phase_8,155,9999,9999,9999,884309052
539,15,Jits_Phase_8,156,9999,9999,9999,885108840
539,15,Jits_Phase_8,157,9999,9999,9999,885908604
539,15,Jits_Phase_8,158,9999,9999,9999,886708296
539,15,Jits_Phase_8,159,9999,9999,9999,887509048
539,15,Jits_Phase_8,160,9999,9999,9999,888308832
539,15,Jits_Phase_8,161,9999,9999,9999,889108592
539,15,Jits_Phase_8,162,9999,9999,9999,889908292
539,15,Jits_Phase_8,163,9999,9999,9999,890709100
539,15,Jits_Phase_8,164,9999,9999,9999,891508816
539,15,Jits_Phase_8,165,9999,9999,9999,892308580
539,15,Jits_Phase_8,166,9999,9999,9999,893108284
539,15,Jits_Phase_8,167,9999,9999,9999,893909100
539,15,Jits_Phase_8,168,9999,9999,9999,894708788
539,15,Jits_Phase_8,169,9999,9999,9999,895508568
5310,19,Jits_Linear_5,0,5,56,103,905567556
5310,19,Jits_Linear_5,1,5,63,98,905570880
5310,19,Jits_Linear_5,2,5,80,127,905574076
5310,19,Jits_Linear_5,0,5,56,103,906047996
5310,19,Jits_Linear_5,1,5,63,98,906051096
5310,19,Jits_Linear_5,2,5,80,127,906054140
5310,19,Jits_Linear_5,3,1,48,29,906197840
5310,19,Jits_Linear_5,0,5,56,103,906528124
5310,19,Jits_Linear_5,1,5,80,127,906538320
5310,19,Jits_Linear_5,2,5,63,98,906558180
5310,19,Jits_Linear_5,3,1,48,24,906572160
5310,19,Jits_Linear_5,0,5,63,98,906958292
5310,19,Jits_Linear_5,1,5,80,127,906988120
5310,19,Jits_Linear_5,2,5,56,103,906998168
5310,19,Jits_Linear_5,3,1,48,33,907042780
5310,19,Jits_Linear_5,0,5,80,127,907498060
5310,19,Jits_Linear_5,1,1,48,28,907504772
5310,19,Jits_Linear_5,2,5,56,103,907508100
5310,19,Jits_Linear_5,3,5,63,98,907537924
5310,19,Jits_Linear_5,0,5,63,98,907978212
5310,19,Jits_Linear_5,1,5,56,103,908007740
5310,19,Jits_Linear_5,2,5,80,127,908018160
5310,19,Jits_Linear_5,3,1,48,34,908023596
5310,19,Jits_Linear_5,0,5,56,103,908418488
5310,19,Jits_Linear_5,1,5,63,98,908467720
5310,19,Jits_Linear_5,2,5,80,127,908488256
5310,19,Jits_Linear_5,3,1,48,32,908506888
5310,19,Jits_Linear_5,0,5,80,127,908908000
5310,19,Jits_Linear_5,1,1,48,23,908946264
5310,19,Jits_Linear_5,2,5,63,98,908958124
5310,19,Jits_Linear_5,3,5,56,103,908998136
5310,19,Jits_Linear_5,0,5,56,103,909398384
5310,19,Jits_Linear_5,1,5,63,98,909428160
5310,19,Jits_Linear_5,2,1,48,27,909430024
5310,19,Jits_Linear_5,3,5,80,127,909497684
5310,19,Jits_Linear_5,0,5,56,103,909888044
5310,19,Jits_Linear_5,1,1,48,28,909927080
5310,19,Jits_Linear_5,2,5,80,127,909948232
5310,19,Jits_Linear_5,3,5,63,98,909978208
5310,19,Jits_Linear_5,0,5,56,103,910387448
5310,19,Jits_Linear_5,1,5,63,98,910398016
5310,19,Jits_Linear_5,2,1,48,28,910407360
5310,19,Jits_Linear_5,3,5,80,127,910437972
5310,19,Jits_Linear_5,0,5,63,98,910878144
5310,19,Jits_Linear_5,1,1,48,30,910887116
5310,19,Jits_Linear_5,2,5,80,127,910958036
5310,19,Jits_Linear_5,3,5,56,103,910968160
5310,19,Jits_Linear_5,0,1,48,25,911405064
5310,19,Jits_Linear_5,1,5,63,98,911428176
5310,19,Jits_Linear_5,2,5,56,103,911467988
5310,19,Jits_Linear_5,3,5,80,127,911470980
5310,19,Jits_Linear_5,0,5,56,103,911887852
5310,19,Jits_Linear_5,1,5,63,98,911897900
5310,19,Jits_Linear_5,2,5,80,127,911938060
5310,19,Jits_Linear_5,3,1,48,29,911950692
5310,19,Jits_Linear_5,0,5,56,103,912378256
5310,19,Jits_Linear_5,1,5,63,98,912381320
5310,19,Jits_Linear_5,2,5,80,127,912397892
5310,19,Jits_Linear_5,3,1,48,23,912416224
5310,19,Jits_Linear_5,0,1,48,24,912889900
5310,19,Jits_Linear_5,1,5,80,127,912898392
5310,19,Jits_Linear_5,2,5,56,103,912907764
5310,19,Jits_Linear_5,3,5,63,98,912978268
5310,19,Jits_Linear_5,0,5,63,98,913398156
5310,19,Jits_Linear_5,1,5,56,103,913417720
5310,19,Jits_Linear_5,2,1,48,29,913425028
5310,19,Jits_Linear_5,3,5,80,127,913497584
5310,19,Jits_Linear_5,0,5,56,103,913918224
5310,19,Jits_Linear_5,1,1,48,22,913937304
5310,19,Jits_Linear_5,2,5,80,127,913958232
5310,19,Jits_Linear_5,3,5,63,98,913967456
5310,19,Jits_Linear_5,0,5,80,127,914417928
5310,19,Jits_Linear_5,1,1,48,25,914447000
5310,19,Jits_Linear_5,2,5,63,98,914448496
5310,19,Jits_Linear_5,3,5,56,103,914487912
5310,19,Jits_Linear_5,0,5,56,103,914947300
5310,19,Jits_Linear_5,1,1,48,26,914952956
5310,19,Jits_Linear_5,2,5,63,98,914978088
5310,19,Jits_Linear_5,3,5,80,127,915028292
5310,19,Jits_Linear_5,0,5,80,127,915458460
5310,19,Jits_Linear_5,1,1,48,24,915468476
5310,19,Jits_Linear_5,2,5,56,103,915498316
5310,19,Jits_Linear_5,3,5,63,98,915507840
5310,19,Jits_Linear_5,0,5,80,127,915958156
5310,19,Jits_Linear_5,1,1,48,29,915988328
5310,19,Jits_Linear_5,2,5,63,98,915998092
5310,19,Jits_Linear_5,3,5,56,103,916057660
5310,19,Jits_Linear_5,0,5,56,103,916478312
5310,19,Jits_Linear_5,1,5,80,127,916487388
5310,19,Jits_Linear_5,2,1,48,21,916522864
5310,19,Jits_Linear_5,3,5,63,98,916568300
5310,19,Jits_Linear_5,0,5,80,127,916997420
5310,19,Jits_Linear_5,1,1,48,18,917032080
5310,19,Jits_Linear_5,2,5,63,98,917058032
5310,19,Jits_Linear_5,3,5,56,103,917087732
5310,19,Jits_Linear_5,0,5,56,103,917517800
5310,19,Jits_Linear_5,1,1,48,30,917541668
5310,19,Jits_Linear_5,2,5,80,127,917577964
5310,19,Jits_Linear_5,3,5,63,98,917618004
5310,19,Jits_Linear_5,0,1,48,26,918071256
5310,19,Jits_Linear_5,1,5,56,103,918098188
5310,19,Jits_Linear_5,2,5,63,98,918107632
5310,19,Jits_Linear_5,3,5,80,127,918111020
5310,19,Jits_Linear_5,0,5,80,127,918577560
5310,19,Jits_Linear_5,1,1,48,25,918591540
5310,19,Jits_Linear_5,2,5,63,98,918667716
5310,19,Jits_Linear_5,3,5,56,103,918677984
5310,19,Jits_Linear_5,0,5,56,103,919108036
5310,19,Jits_Linear_5,1,5,63,98,919111212
5310,19,Jits_Linear_5,2,5,80,127,919114180
5310,19,Jits_Linear_5,3,1,48,30,919132368
5310,19,Jits_Linear_5,0,1,48,18,919634580
5310,19,Jits_Linear_5,1,5,80,127,919657792
5310,19,Jits_Linear_5,2,5,63,98,919707996
5310,19,Jits_Linear_5,3,5,56,103,919737808
5310,19,Jits_Linear_5,0,5,56,103,920167676
5310,19,Jits_Linear_5,1,1,48,27,920170268
5310,19,Jits_Linear_5,2,5,80,127,920178016
5310,19,Jits_Linear_5,3,5,63,98,920247920
5310,19,Jits_Linear_5,0,5,56,103,920707384
5310,19,Jits_Linear_5,1,1,48,22,920726172
5310,19,Jits_Linear_5,2,5,63,98,920727764
5310,19,Jits_Linear_5,3,5,80,127,920788452
5310,19,Jits_Linear_5,0,1,48,33,921228552
5310,19,Jits_Linear_5,1,5,80,127,921237792
5310,19,Jits_Linear_5,2,5,63,98,921307704
5310,19,Jits_Linear_5,3,5,56,103,921327924
5310,19,Jits_Linear_5,0,1,48,34,921792508
5310,19,Jits_Linear_5,1,5,80,127,921797944
5310,19,Jits_Linear_5,2,5,56,103,921808360
5310,19,Jits_Linear_5,3,5,63,98,921817736
5310,19,Jits_Linear_5,0,1,48,34,922292864
5310,19,Jits_Linear_5,1,5,80,127,922328636
5310,19,Jits_Linear_5,2,5,56,103,922347828
5310,19,Jits_Linear_5,3,5,63,98,922417644
5310,19,Jits_Linear_5,0,1,48,29,922838116
5310,19,Jits_Linear_5,1,5,56,103,922878224
5310,19,Jits_Linear_5,2,5,80,127,922907976
5310,19,Jits_Linear_5,3,5,63,98,922927684
5310,19,Jits_Linear_5,0,1,48,33,923404468
5310,19,Jits_Linear_5,1,5,63,98,923417916
5310,19,Jits_Linear_5,2,5,56,103,923478680
5310,19,Jits_Linear_5,3,5,80,127,923507996
5310,19,Jits_Linear_5,0,5,63,98,923957764
5310,19,Jits_Linear_5,1,5,80,127,923960976
5310,19,Jits_Linear_5,2,1,48,36,923973460
5310,19,Jits_Linear_5,3,5,56,103,924047840
5310,19,Jits_Linear_5,0,1,48,35,924476136
5310,19,Jits_Linear_5,1,5,56,103,924527956
5310,19,Jits_Linear_5,2,5,63,98,924557784
5310,19,Jits_Linear_5,3,5,80,127,924597708
5310,19,Jits_Linear_5,0,1,48,30,925036684
5310,19,Jits_Linear_5,1,5,63,98,925077764
5310,19,Jits_Linear_5,2,5,56,103,925117780
5310,19,Jits_Linear_5,3,5,80,127,925138224
5310,19,Jits_Linear_5,0,1,48,32,925606648
5310,19,Jits_Linear_5,1,5,63,98,925638136
5310,19,Jits_Linear_5,2,5,56,103,925677928
5310,19,Jits_Linear_5,3,5,80,127,925688128
5310,19,Jits_Linear_5,0,5,80,127,926168772
5310,19,Jits_Linear_5,1,1,48,27,926186664
5310,19,Jits_Linear_5,2,5,63,98,926237932
5310,19,Jits_Linear_5,3,5,56,103,926257716
5310,19,Jits_Linear_5,0,5,56,103,926718592
5310,19,Jits_Linear_5,1,5,80,127,926737784
5310,19,Jits_Linear_5,2,1,48,22,926776136
5310,19,Jits_Linear_5,3,5,63,98,926777568
5310,19,Jits_Linear_5,0,1,48,27,927259392
5310,19,Jits_Linear_5,1,5,63,98,927287744
5310,19,Jits_Linear_5,2,5,80,127,927308132
5310,19,Jits_Linear_5,3,5,56,103,927348096
5310,19,Jits_Linear_5,0,1,48,24,927844584
5310,19,Jits_Linear_5,1,5,63,98,927847840
5310,19,Jits_Linear_5,2,5,56,103,927868300
5310,19,Jits_Linear_5,3,5,80,127,927877596
5310,19,Jits_Linear_5,0,1,48,28,928400760
5310,19,Jits_Linear_5,1,5,80,127,928407980
5310,19,Jits_Linear_5,2,5,56,103,928428664
5310,19,Jits_Linear_5,3,5,63,98,928458044
5310,19,Jits_Linear_5,0,1,48,31,928928164
5310,19,Jits_Linear_5,1,5,56,103,929047900
5310,19,Jits_Linear_5,2,5,80,127,929051116
5310,19,Jits_Linear_5,3,5,63,98,929068436
5310,19,Jits_Linear_5,0,5,63,98,929547752
5310,19,Jits_Linear_5,1,5,56,103,929578324
5310,19,Jits_Linear_5,2,1,48,27,929584584
5310,19,Jits_Linear_5,3,5,80,127,929637612
5310,19,Jits_Linear_5,0,1,48,28,930135880
5310,19,Jits_Linear_5,1,5,63,98,930197892
5310,19,Jits_Linear_5,2,5,56,103,930208236
5310,19,Jits_Linear_5,3,5,80,127,930218436
5310,19,Jits_Linear_5,0,5,56,103,930717968
5310,19,Jits_Linear_5,1,5,80,127,930747716
5310,19,Jits_Linear_5,2,5,63,98,930757916
5310,19,Jits_Linear_5,3,1,48,29,930767852
5310,19,Jits_Linear_5,0,1,48,25,931298176
5310,19,Jits_Linear_5,1,5,63,98,931328472
5310,19,Jits_Linear_5,2,5,56,103,931337544
5310,19,Jits_Linear_5,3,5,80,127,931358004
5310,19,Jits_Linear_5,0,5,56,103,931828088
5310,19,Jits_Linear_5,1,5,63,98,931887508
5310,19,Jits_Linear_5,2,5,80,127,931890796
5310,19,Jits_Linear_5,3,1,48,21,931903428
5310,19,Jits_Linear_5,0,5,80,127,932428320
5310,19,Jits_Linear_5,1,5,56,103,932438368
5310,19,Jits_Linear_5,2,1,48,24,932445716
5310,19,Jits_Linear_5,3,5,63,98,932507996
5310,19,Jits_Linear_5,0,5,80,127,932997500
5310,19,Jits_Linear_5,1,1,48,20,933053132
5310,19,Jits_Linear_5,2,5,56,103,933068224
5310,19,Jits_Linear_5,3,5,63,98,933078348
5310,19,Jits_Linear_5,0,1,48,20,933606484
5310,19,Jits_Linear_5,1,5,63,98,933617968
5310,19,Jits_Linear_5,2,5,56,103,933628312
5310,19,Jits_Linear_5,3,5,80,127,933647800
5310,19,Jits_Linear_5,0,5,80,127,934147548
5310,19,Jits_Linear_5,1,1,48,15,934200568
5310,19,Jits_Linear_5,2,5,63,98,934207864
5310,19,Jits_Linear_5,3,5,56,103,934247828
5310,19,Jits_Linear_5,0,1,48,20,934736000
5310,19,Jits_Linear_5,1,5,56,103,934778152
5310,19,Jits_Linear_5,2,5,63,98,934787448
5310,19,Jits_Linear_5,3,5,80,127,934828364
5310,19,Jits_Linear_5,0,1,48,25,935318336
5310,19,Jits_Linear_5,1,5,56,103,935338440
5310,19,Jits_Linear_5,2,5,80,127,935368268
5310,19,Jits_Linear_5,3,5,63,98,935418528
5310,19,Jits_Linear_5,0,1,48,22,935941712
5310,19,Jits_Linear_5,1,5,56,103,935968192
5310,19,Jits_Linear_5,2,5,63,98,936007984
5310,19,Jits_Linear_5,3,5,80,127,936011420
5310,19,Jits_Linear_5,0,5,56,103,936557812
5310,19,Jits_Linear_5,1,1,48,13,936558852
5310,19,Jits_Linear_5,2,5,63,98,936568300
5310,19,Jits_Linear_5,3,5,80,127,936587564
5310,19,Jits_Linear_5,0,5,56,103,937107776
5310,19,Jits_Linear_5,1,5,80,127,937111064
5310,19,Jits_Linear_5,2,5,63,98,937147716
5310,19,Jits_Linear_5,0,1,48,17,937708168
5310,19,Jits_Linear_5,1,5,63,98,937737564
5310,19,Jits_Linear_5,2,5,56,103,937768288
5310,19,Jits_Linear_5,3,5,80,127,937787700
5310,19,Jits_Linear_5,0,1,48,24,938290636
5310,19,Jits_Linear_5,1,5,80,127,938307900
5310,19,Jits_Linear_5,2,5,56,103,938318468
5310,19,Jits_Linear_5,3,5,63,98,938328296
5310,19,Jits_Linear_5,0,1,48,24,938889620
5310,19,Jits_Linear_5,1,5,56,103,938908152
5310,19,Jits_Linear_5,2,5,80,127,938948016
5310,19,Jits_Linear_5,3,5,63,98,938977692
5310,19,Jits_Linear_5,0,5,63,98,939518276
5310,19,Jits_Linear_5,1,5,80,127,939527500
5310,19,Jits_Linear_5,2,5,56,103,939537768
5310,19,Jits_Linear_5,3,1,48,28,939540888
5310,19,Jits_Linear_5,0,5,56,103,940098048
5310,19,Jits_Linear_5,1,1,48,21,940118180
5310,19,Jits_Linear_5,2,5,63,98,940167604
5310,19,Jits_Linear_5,3,5,80,127,940177800
5310,19,Jits_Linear_5,0,1,48,22,940700756
5310,19,Jits_Linear_5,1,5,80,127,940708200
5310,19,Jits_Linear_5,2,5,56,103,940717352
5310,19,Jits_Linear_5,3,5,63,98,940767628
5310,19,Jits_Linear_5,0,1,48,21,941297844
5310,19,Jits_Linear_5,1,5,80,127,941327908
5310,19,Jits_Linear_5,2,5,56,103,941388080
5310,19,Jits_Linear_5,3,5,63,98,941417988
5310,19,Jits_Linear_5,0,5,56,103,941948396
5310,19,Jits_Linear_5,1,5,80,127,941951388
5310,19,Jits_Linear_5,2,1,48,27,941954060
5310,19,Jits_Linear_5,3,5,63,98,941988476
5310,19,Jits_Linear_5,0,1,48,18,942582308
5310,19,Jits_Linear_5,1,5,56,103,942588188
5310,19,Jits_Linear_5,2,5,63,98,942618160
5310,19,Jits_Linear_5,3,5,80,127,942628284
5310,19,Jits_Linear_5,0,1,48,20,943169588
5310,19,Jits_Linear_5,1,5,63,98,943207776
5310,19,Jits_Linear_5,2,5,80,127,943218120
5310,19,Jits_Linear_5,3,5,56,103,943228244
5310,19,Jits_Linear_5,0,5,80,127,943768004
5310,19,Jits_Linear_5,1,1,48,19,943770520
5310,19,Jits_Linear_5,2,5,56,103,943818200
5310,19,Jits_Linear_5,3,5,63,98,943821192
5310,19,Jits_Linear_5,0,1,48,23,944384896
5310,19,Jits_Linear_5,1,5,56,103,944418052
5310,19,Jits_Linear_5,2,5,80,127,944437616
5310,19,Jits_Linear_5,3,5,63,98,944448256
5310,19,Jits_Linear_5,0,1,48,26,944980928
5310,19,Jits_Linear_5,1,5,63,98,945018148
5310,19,Jits_Linear_5,2,5,56,103,945048124
5310,19,Jits_Linear_5,3,5,80,127,945068360
5310,19,Jits_Linear_5,0,1,48,21,945614812
5310,19,Jits_Linear_5,1,5,56,103,945658160
5310,19,Jits_Linear_5,2,5,80,127,945667384
5310,19,Jits_Linear_5,3,5,63,98,945738024
5310,19,Jits_Linear_5,0,5,63,98,946267460
5310,19,Jits_Linear_5,1,5,80,127,946307476
5310,19,Jits_Linear_5,2,5,56,103,946348388
5310,19,Jits_Linear_5,3,1,48,22,946372632
5310,19,Jits_Linear_5,0,5,56,103,946907400
5310,19,Jits_Linear_5,1,5,63,98,946917672
5310,19,Jits_Linear_5,2,5,80,127,946938204
5310,19,Jits_Linear_5,3,1,48,24,946948820
5310,19,Jits_Linear_5,0,1,48,21,947564716
5310,19,Jits_Linear_5,1,5,63,98,947578160
5310,19,Jits_Linear_5,2,5,80,127,947597576
5310,19,Jits_Linear_5,3,5,56,103,947618108
5310,19,Jits_Linear_5,0,5,56,103,948147456
5310,19,Jits_Linear_5,1,1,48,20,948187740
5310,19,Jits_Linear_5,2,5,80,127,948227396
5310,19,Jits_Linear_5,3,5,63,98,948237592
5310,19,Jits_Linear_5,0,1,48,21,948813812
5310,19,Jits_Linear_5,1,5,80,127,948818272
5310,19,Jits_Linear_5,2,5,63,98,948827496
5310,19,Jits_Linear_5,3,5,56,103,948858216
5310,19,Jits_Linear_5,0,5,63,98,949408092
5310,19,Jits_Linear_5,1,1,48,21,949440880
5310,19,Jits_Linear_5,2,5,80,127,949448100
5310,19,Jits_Linear_5,3,5,56,103,949507296
5310,19,Jits_Linear_5,0,1,48,24,950035792
5310,19,Jits_Linear_5,1,5,63,98,950048096
5310,19,Jits_Linear_5,2,5,56,103,950098152
5310,19,Jits_Linear_5,3,5,80,127,950128060
5310,19,Jits_Linear_5,0,1,48,19,950651316
5310,19,Jits_Linear_5,1,5,80,127,950698472
5310,19,Jits_Linear_5,2,5,63,98,950707920
5310,19,Jits_Linear_5,3,5,56,103,950778188
5310,19,Jits_Linear_5,0,1,48,22,951304132
5310,19,Jits_Linear_5,1,5,80,127,951407952
5310,19,Jits_Linear_5,2,5,56,103,951418224
5310,19,Jits_Linear_5,3,5,63,98,951421436
5310,19,Jits_Linear_5,0,5,56,103,951987744
5310,19,Jits_Linear_5,1,5,80,127,952007980
5310,19,Jits_Linear_5,2,5,63,98,952018252
5310,19,Jits_Linear_5,3,1,48,24,952029012
5310,19,Jits_Linear_5,0,1,48,22,952616724
5310,19,Jits_Linear_5,1,5,63,98,952638028
5310,19,Jits_Linear_5,2,5,56,103,952677844
5310,19,Jits_Linear_5,3,5,80,127,952698156
5310,19,Jits_Linear_5,0,1,48,24,953223416
5310,19,Jits_Linear_5,1,5,63,98,953288112
5310,19,Jits_Linear_5,2,5,56,103,953347440
5310,19,Jits_Linear_5,3,5,80,127,953350432
5310,19,Jits_Linear_5,0,5,56,103,953898304
5310,19,Jits_Linear_5,1,1,48,20,953915272
5310,19,Jits_Linear_5,2,5,80,127,953917860
5310,19,Jits_Linear_5,3,5,63,98,953957896
5310,19,Jits_Linear_5,0,1,48,22,954560572
5310,19,Jits_Linear_5,1,5,56,103,954578280
5310,19,Jits_Linear_5,2,5,63,98,954597840
5310,19,Jits_Linear_5,3,5,80,127,954607964
5310,19,Jits_Linear_5,0,1,48,24,955165056
5310,19,Jits_Linear_5,1,5,80,127,955197984
5310,19,Jits_Linear_5,2,5,56,103,955227680
5310,19,Jits_Linear_5,3,5,63,98,955267380
5310,19,Jits_Linear_5,0,1,48,18,955844348
5310,19,Jits_Linear_5,1,5,80,127,955858244
5310,19,Jits_Linear_5,2,5,56,103,955877880
5310,19,Jits_Linear_5,3,5,63,98,955938200
5310,19,Jits_Linear_5,0,5,56,103,956517916
5310,19,Jits_Linear_5,1,1,48,23,956536336
5310,19,Jits_Linear_5,2,5,80,127,956538148
5310,19,Jits_Linear_5,3,5,63,98,956597716
5310,19,Jits_Linear_5,0,5,80,127,957157940
5310,19,Jits_Linear_5,1,5,56,103,957167916
5310,19,Jits_Linear_5,2,5,63,98,957207856
5310,19,Jits_Linear_5,3,1,48,31,957228508
5310,19,Jits_Linear_5,0,5,63,98,957818220
5310,19,Jits_Linear_5,1,1,48,25,957837076
5310,19,Jits_Linear_5,2,5,56,103,957858072
5310,19,Jits_Linear_5,3,5,80,127,957861144
5310,19,Jits_Linear_5,0,1,48,21,958475500
5310,19,Jits_Linear_5,1,5,63,98,958498148
5310,19,Jits_Linear_5,2,5,80,127,958538160
5310,19,Jits_Linear_5,3,5,56,103,958567936
5310,19,Jits_Linear_5,0,1,48,24,959143020
5310,19,Jits_Linear_5,1,5,56,103,959148296
5310,19,Jits_Linear_5,2,5,63,98,959157892
5310,19,Jits_Linear_5,3,5,80,127,959188392
5310,19,Jits_Linear_5,0,1,48,20,959771488
5310,19,Jits_Linear_5,1,5,80,127,959807936
5310,19,Jits_Linear_5,2,5,63,98,959877632
5310,19,Jits_Linear_5,3,5,56,103,959887680
5310,19,Jits_Linear_5,0,1,48,26,960450944
5310,19,Jits_Linear_5,1,5,63,98,960477648
5310,19,Jits_Linear_5,2,5,56,103,960548232
5310,19,Jits_Linear_5,3,5,80,127,960557512
5310,19,Jits_Linear_5,0,1,48,15,961112668
5310,19,Jits_Linear_5,1,5,63,98,961148464
5310,19,Jits_Linear_5,2,5,56,103,961167656
5310,19,Jits_Linear_5,3,5,80,127,961207816
5310,19,Jits_Linear_5,0,1,48,23,961788896
5310,19,Jits_Linear_5,1,5,56,103,961828260
5310,19,Jits_Linear_5,2,5,63,98,961837784
5310,19,Jits_Linear_5,3,5,80,127,961918264
5310,19,Jits_Linear_5,0,1,48,20,962473952
5310,19,Jits_Linear_5,1,5,63,98,962487628
5310,19,Jits_Linear_5,2,5,56,103,962518352
5310,19,Jits_Linear_5,3,5,80,127,962558292
5310,19,Jits_Linear_5,0,5,56,103,963158512
5310,19,Jits_Linear_5,1,5,63,98,963198476
5310,19,Jits_Linear_5,2,1,48,21,963201744
5310,19,Jits_Linear_5,3,5,80,127,963238260
5310,19,Jits_Linear_5,0,1,48,24,963803616
5310,19,Jits_Linear_5,1,5,80,127,963838412
5310,19,Jits_Linear_5,2,5,56,103,963918052
5310,19,Jits_Linear_5,3,5,63,98,963928692
5310,19,Jits_Linear_5,0,5,56,103,964558300
5310,19,Jits_Linear_5,1,5,63,98,964561364
5310,19,Jits_Linear_5,2,1,48,21,964565680
5310,19,Jits_Linear_5,3,5,80,127,964568712
5310,19,Jits_Linear_5,0,1,48,28,965243936
5310,19,Jits_Linear_5,1,5,56,103,965257604
5310,19,Jits_Linear_5,2,5,63,98,965277992
5310,19,Jits_Linear_5,3,5,80,127,965288188
5310,19,Jits_Linear_5,0,1,48,27,965884840
5310,19,Jits_Linear_5,1,5,63,98,965897616
5310,19,Jits_Linear_5,2,5,80,127,965907740
5310,19,Jits_Linear_5,3,5,56,103,965928496
5310,19,Jits_Linear_5,0,5,63,98,966587704
5310,19,Jits_Linear_5,1,1,48,24,966589264
5310,19,Jits_Linear_5,2,5,56,103,966667720
5310,19,Jits_Linear_5,3,5,80,127,966670712
5310,19,Jits_Linear_5,0,5,63,98,967277932
5310,19,Jits_Linear_5,1,5,56,103,967298544
5310,19,Jits_Linear_5,2,1,48,20,967307592
5310,19,Jits_Linear_5,3,5,80,127,967328140
5310,19,Jits_Linear_5,0,1,48,27,967954016
5310,19,Jits_Linear_5,1,5,56,103,967968064
5310,19,Jits_Linear_5,2,5,63,98,967987552
5310,19,Jits_Linear_5,3,5,80,127,967997672
5310,19,Jits_Linear_5,0,1,48,18,968645912
5310,19,Jits_Linear_5,1,5,56,103,968687964
5310,19,Jits_Linear_5,2,5,63,98,968717788
5310,19,Jits_Linear_5,3,5,80,127,968721076
5310,19,Jits_Linear_5,0,5,56,103,969327852
5310,19,Jits_Linear_5,1,5,63,98,969367868
5310,19,Jits_Linear_5,2,1,48,19,969377884
5310,19,Jits_Linear_5,3,5,80,127,969428400
5310,19,Jits_Linear_5,0,1,48,18,970034816
5310,19,Jits_Linear_5,1,5,56,103,970037476
5310,19,Jits_Linear_5,2,5,63,98,970047824
5310,19,Jits_Linear_5,3,5,80,127,970108240
5310,19,Jits_Linear_5,0,1,48,24,970717792
5310,19,Jits_Linear_5,1,5,56,103,970738120
5310,19,Jits_Linear_5,2,5,80,127,970757532
5310,19,Jits_Linear_5,3,5,63,98,970788180
5310,19,Jits_Linear_5,0,1,48,20,971417092
5310,19,Jits_Linear_5,1,5,80,127,971437420
5310,19,Jits_Linear_5,2,5,56,103,971447768
5310,19,Jits_Linear_5,3,5,63,98,971468228
5310,19,Jits_Linear_5,0,1,48,18,972118088
5310,19,Jits_Linear_5,1,5,63,98,972127652
5310,19,Jits_Linear_5,2,5,80,127,972207452
5310,19,Jits_Linear_5,3,5,56,103,972217632
5310,19,Jits_Linear_5,0,5,80,127,972888596
5310,19,Jits_Linear_5,1,5,56,103,972907860
5310,19,Jits_Linear_5,2,5,63,98,972910848
5310,19,Jits_Linear_5,3,1,48,19,972913896
5310,19,Jits_Linear_5,0,5,63,98,973568544
5310,19,Jits_Linear_5,1,5,80,127,973571684
5310,19,Jits_Linear_5,2,1,48,18,973618344
5310,19,Jits_Linear_5,3,5,56,103,973627808
5310,19,Jits_Linear_5,0,5,56,103,974257496
5310,19,Jits_Linear_5,1,5,80,127,974267916
5310,19,Jits_Linear_5,2,1,48,19,974271480
5310,19,Jits_Linear_5,3,5,63,98,974307704
5310,19,Jits_Linear_5,0,1,48,18,974936600
5310,19,Jits_Linear_5,1,5,56,103,974947588
5310,19,Jits_Linear_5,2,5,63,98,975008056
5310,19,Jits_Linear_5,3,5,80,127,975018548
5310,19,Jits_Linear_5,0,1,48,21,975654092
5310,19,Jits_Linear_5,1,5,63,98,975667540
5310,19,Jits_Linear_5,2,5,80,127,975707432
5310,19,Jits_Linear_5,3,5,56,103,975747592
5310,19,Jits_Linear_5,0,1,48,19,976348604
5310,19,Jits_Linear_5,1,5,56,103,976378448
5310,19,Jits_Linear_5,2,5,63,98,976458304
5310,19,Jits_Linear_5,3,5,80,127,976461592
5310,19,Jits_Linear_5,0,1,48,19,977120348
5310,19,Jits_Linear_5,1,5,80,127,977148392
5310,19,Jits_Linear_5,2,5,56,103,977177996
5310,19,Jits_Linear_5,3,5,63,98,977181136
5310,19,Jits_Linear_5,0,1,48,15,977793780
5310,19,Jits_Linear_5,1,5,56,103,977828432
5310,19,Jits_Linear_5,2,5,80,127,977847548
5310,19,Jits_Linear_5,3,5,63,98,977888668
5310,19,Jits_Linear_5,0,5,80,127,978527588
5310,19,Jits_Linear_5,1,5,63,98,978548200
5310,19,Jits_Linear_5,2,1,48,14,978593640
5310,19,Jits_Linear_5,3,5,56,103,978607536
5310,19,Jits_Linear_5,0,1,48,16,979241524
5310,19,Jits_Linear_5,1,5,63,98,979257592
5310,19,Jits_Linear_5,2,5,56,103,979267936
5310,19,Jits_Linear_5,3,5,80,127,979318164
5310,19,Jits_Linear_5,0,5,56,103,979968356
5310,19,Jits_Linear_5,1,1,48,24,979971996
5310,19,Jits_Linear_5,2,5,63,98,979987840
5310,19,Jits_Linear_5,3,5,80,127,979998260
5310,19,Jits_Linear_5,0,5,56,103,980688116
5310,19,Jits_Linear_5,1,5,63,98,980691188
5310,19,Jits_Linear_5,2,1,48,21,980692152
5310,19,Jits_Linear_5,3,5,80,127,980707748
5310,19,Jits_Linear_5,0,1,48,23,981376900
5310,19,Jits_Linear_5,1,5,63,98,981458292
5310,19,Jits_Linear_5,2,5,56,103,981488028
5310,19,Jits_Linear_5,3,5,80,127,981517780
5310,19,Jits_Linear_5,0,5,80,127,982147488
5310,19,Jits_Linear_5,1,1,48,19,982169188
5310,19,Jits_Linear_5,2,5,56,103,982237544
5310,19,Jits_Linear_5,3,5,63,98,982240684
5310,19,Jits_Linear_5,0,5,56,103,982877512
5310,19,Jits_Linear_5,1,5,80,127,982880576
5310,19,Jits_Linear_5,2,1,48,21,982918840
5310,19,Jits_Linear_5,3,5,63,98,982957452
5310,19,Jits_Linear_5,0,1,48,26,983589340
5310,19,Jits_Linear_5,1,5,80,127,983607724
5310,19,Jits_Linear_5,2,5,63,98,983668144
5310,19,Jits_Linear_5,3,5,56,103,983697804
5310,19,Jits_Linear_5,0,1,48,22,984333364
5310,19,Jits_Linear_5,1,5,63,98,984337668
5310,19,Jits_Linear_5,2,5,80,127,984348236
5310,19,Jits_Linear_5,3,5,56,103,984417572
5310,19,Jits_Linear_5,0,1,48,40,985053032
5310,19,Jits_Linear_5,1,5,56,103,985088360
5310,19,Jits_Linear_5,2,5,80,127,985118036
5310,19,Jits_Linear_5,3,5,63,98,985168224
5310,19,Jits_Linear_5,0,1,48,44,985805596
5310,19,Jits_Linear_5,1,5,63,98,985867676
5310,19,Jits_Linear_5,2,5,56,103,985898244
5310,19,Jits_Linear_5,3,5,80,127,985901392
5310,19,Jits_Linear_5,0,1,48,37,986566492
5310,19,Jits_Linear_5,1,5,63,98,986608172
5310,19,Jits_Linear_5,2,5,80,127,986627364
5310,19,Jits_Linear_5,3,5,56,103,986637784
5310,19,Jits_Linear_5,0,1,48,32,987342428
5310,19,Jits_Linear_5,1,5,56,103,987357524
5310,19,Jits_Linear_5,2,5,63,98,987360588
5310,19,Jits_Linear_5,3,5,80,127,987377980
5310,19,Jits_Linear_5,0,1,48,31,988039924
5310,19,Jits_Linear_5,1,5,56,103,988057932
5310,19,Jits_Linear_5,2,5,63,98,988068352
5310,19,Jits_Linear_5,3,5,80,127,988098180
5310,19,Jits_Linear_5,0,1,48,32,988774048
5310,19,Jits_Linear_5,1,5,63,98,988827956
5310,19,Jits_Linear_5,2,5,80,127,988847520
5310,19,Jits_Linear_5,3,5,56,103,988888488
5310,19,Jits_Linear_5,0,1,48,28,989555016
5310,19,Jits_Linear_5,1,5,56,103,989608248
5310,19,Jits_Linear_5,2,5,63,98,989648188
5310,19,Jits_Linear_5,3,5,80,127,989651476
5310,19,Jits_Linear_5,0,5,80,127,990297660
5310,19,Jits_Linear_5,1,5,56,103,990338424
5310,19,Jits_Linear_5,2,5,63,98,990387432
5310,19,Jits_Linear_5,3,1,48,23,990390248
5310,19,Jits_Linear_5,0,1,48,27,991035112
5310,19,Jits_Linear_5,1,5,56,103,991107332
5310,19,Jits_Linear_5,2,5,80,127,991117900
5310,19,Jits_Linear_5,3,5,63,98,991148460
5310,19,Jits_Linear_5,0,5,56,103,991807964
5310,19,Jits_Linear_5,1,1,48,28,991813776
5310,19,Jits_Linear_5,2,5,80,127,991847996
5310,19,Jits_Linear_5,3,5,63,98,991897828
5310,19,Jits_Linear_5,0,5,56,103,992567740
5310,19,Jits_Linear_5,1,1,48,30,992576188
5310,19,Jits_Linear_5,2,5,80,127,992607852
5310,19,Jits_Linear_5,3,5,63,98,992657976
5310,19,Jits_Linear_5,0,1,48,24,993317396
5310,19,Jits_Linear_5,1,5,80,127,993319044
5310,19,Jits_Linear_5,2,5,63,98,993398120
5310,19,Jits_Linear_5,3,5,56,103,993408244
5310,19,Jits_Linear_5,0,1,48,31,994102376
5310,19,Jits_Linear_5,1,5,80,127,994128256
5310,19,Jits_Linear_5,2,5,56,103,994137504
5310,19,Jits_Linear_5,3,5,63,98,994158040
5310,19,Jits_Linear_5,0,1,48,26,994835632
5310,19,Jits_Linear_5,1,5,63,98,994858424
5310,19,Jits_Linear_5,2,5,56,103,994928132
5310,19,Jits_Linear_5,3,5,80,127,994930976
5310,19,Jits_Linear_5,0,1,48,22,995603008
5310,19,Jits_Linear_5,1,5,80,127,995618104
5310,19,Jits_Linear_5,2,5,63,98,995668384
5310,19,Jits_Linear_5,3,5,56,103,995708260
5310,19,Jits_Linear_5,0,1,48,23,996409608
5310,19,Jits_Linear_5,1,5,63,98,996428140
5310,19,Jits_Linear_5,2,5,56,103,996468108
5310,19,Jits_Linear_5,3,5,80,127,996478228
5310,19,Jits_Linear_5,0,1,48,27,997140220
5310,19,Jits_Linear_5,1,5,63,98,997187828
5310,19,Jits_Linear_5,2,5,56,103,997208364
5310,19,Jits_Linear_5,3,5,80,127,997228024
5310,19,Jits_Linear_5,0,1,48,24,997917620
5310,19,Jits_Linear_5,1,5,80,127,997919112
5310,19,Jits_Linear_5,2,5,56,103,997928264
5310,19,Jits_Linear_5,3,5,63,98,997947752
5310,19,Jits_Linear_5,0,1,48,26,998688584
5310,19,Jits_Linear_5,1,5,63,98,998717684
5310,19,Jits_Linear_5,2,5,56,103,998757648
5310,19,Jits_Linear_5,3,5,80,127,998787456
5310,19,Jits_Linear_5,0,1,48,31,999464520
5310,19,Jits_Linear_5,1,5,56,103,999498048
5310,19,Jits_Linear_5,2,5,63,98,999527748
5310,19,Jits_Linear_5,3,5,80,127,999557708
5310,19,Jits_Linear_5,0,1,48,29,1000209004
5310,19,Jits_Linear_5,1,5,80,127,1000247916
5310,19,Jits_Linear_5,2,5,56,103,1000318204
5310,19,Jits_Linear_5,3,5,63,98,1000321500
5310,19,Jits_Linear_5,0,5,56,103,1001038320
5310,19,Jits_Linear_5,1,1,48,25,1001050456
5310,19,Jits_Linear_5,2,5,63,98,1001088468
5310,19,Jits_Linear_5,3,5,80,127,1001118068
5310,19,Jits_Linear_5,0,1,48,25,1001797104
5310,19,Jits_Linear_5,1,5,63,98,1001798700
5310,19,Jits_Linear_5,2,5,80,127,1001801832
5310,19,Jits_Linear_5,3,5,56,103,1001858508
5310,19,Jits_Linear_5,0,1,48,27,1002571000
5310,19,Jits_Linear_5,1,5,56,103,1002607916
5310,19,Jits_Linear_5,2,5,80,127,1002618188
5310,19,Jits_Linear_5,3,5,63,98,1002668524
5310,19,Jits_Linear_5,0,1,48,25,1003363296
5310,19,Jits_Linear_5,1,5,63,98,1003367828
5310,19,Jits_Linear_5,2,5,56,103,1003377952
5310,19,Jits_Linear_5,3,5,80,127,1003407776
5310,19,Jits_Linear_5,0,1,48,30,1004135656
5310,19,Jits_Linear_5,1,5,63,98,1004188120
5310,19,Jits_Linear_5,2,5,80,127,1004191332
5310,19,Jits_Linear_5,3,5,56,103,1004217796
5310,19,Jits_Linear_5,0,1,48,27,1004920872
5310,19,Jits_Linear_5,1,5,63,98,1004998072
5310,19,Jits_Linear_5,2,5,56,103,1005018604
5310,19,Jits_Linear_5,3,5,80,127,1005021580
5310,19,Jits_Linear_5,0,1,48,28,1005734040
5310,19,Jits_Linear_5,1,5,63,98,1005747708
5310,19,Jits_Linear_5,2,5,56,103,1005818368
5310,19,Jits_Linear_5,3,5,80,127,1005837616
5310,19,Jits_Linear_5,0,5,56,103,1006527860
5310,19,Jits_Linear_5,1,5,63,98,1006538056
5310,19,Jits_Linear_5,2,1,48,30,1006572936
5310,19,Jits_Linear_5,3,5,80,127,1006628108
5310,19,Jits_Linear_5,0,5,56,103,1007337912
5310,19,Jits_Linear_5,1,1,48,29,1007357968
5310,19,Jits_Linear_5,2,5,80,127,1007377772
5310,19,Jits_Linear_5,3,5,63,98,1007388116
5310,19,Jits_Linear_5,0,1,48,29,1008133980
5310,19,Jits_Linear_5,1,5,56,103,1008158140
5310,19,Jits_Linear_5,2,5,63,98,1008187892
5310,19,Jits_Linear_5,3,5,80,127,1008217444
5310,19,Jits_Linear_5,0,5,80,127,1008917836
5310,19,Jits_Linear_5,1,1,48,26,1008931892
5310,19,Jits_Linear_5,2,5,63,98,1008957696
5310,19,Jits_Linear_5,3,5,56,103,1008978376
5310,19,Jits_Linear_5,0,1,48,26,1009732408
5310,19,Jits_Linear_5,1,5,56,103,1009767756
5310,19,Jits_Linear_5,2,5,80,127,1009788216
5310,19,Jits_Linear_5,3,5,63,98,1009807780
5310,19,Jits_Linear_5,0,5,63,98,1010548052
5310,19,Jits_Linear_5,1,5,56,103,1010558324
5310,19,Jits_Linear_5,2,1,48,25,1010564880
5310,19,Jits_Linear_5,3,5,80,127,1010617660
5310,19,Jits_Linear_5,0,5,56,103,1011357936
5310,19,Jits_Linear_5,1,1,48,24,1011360600
5310,19,Jits_Linear_5,2,5,63,98,1011427836
5310,19,Jits_Linear_5,3,5,80,127,1011448296
5310,19,Jits_Linear_5,0,5,56,103,1012167980
5310,19,Jits_Linear_5,1,1,48,24,1012195368
5310,19,Jits_Linear_5,2,5,63,98,1012197876
5310,19,Jits_Linear_5,3,5,80,127,1012237664
5310,19,Jits_Linear_5,0,5,63,98,1012967688
5310,19,Jits_Linear_5,1,1,48,30,1012971852
5310,19,Jits_Linear_5,2,5,56,103,1013018108
5310,19,Jits_Linear_5,3,5,80,127,1013028456
5310,19,Jits_Linear_5,0,1,48,25,1013777088
5310,19,Jits_Linear_5,1,5,56,103,1013817796
5310,19,Jits_Linear_5,2,5,63,98,1013867804
5310,19,Jits_Linear_5,3,5,80,127,1013878060
5310,19,Jits_Linear_5,0,5,56,103,1014598020
5310,19,Jits_Linear_5,1,1,48,22,1014600032
5310,19,Jits_Linear_5,2,5,63,98,1014608580
5310,19,Jits_Linear_5,3,5,80,127,1014688252
5310,19,Jits_Linear_5,0,9999,9999,9999,905805916
5310,19,Jits_Linear_5,1,9999,9999,9999,906285176
5310,19,Jits_Linear_5,2,9999,9999,9999,906765364
5310,19,Jits_Linear_5,3,9999,9999,9999,907245652
5310,19,Jits_Linear_5,4,9999,9999,9999,907725940
5310,19,Jits_Linear_5,5,9999,9999,9999,908215384
5310,19,Jits_Linear_5,6,9999,9999,9999,908705852
5310,19,Jits_Linear_5,7,9999,9999,9999,909195364
5310,19,Jits_Linear_5,8,9999,9999,9999,909685844
5310,19,Jits_Linear_5,9,9999,9999,9999,910175288
5310,19,Jits_Linear_5,10,9999,9999,9999,910676080
5310,19,Jits_Linear_5,11,9999,9999,9999,911175772
5310,19,Jits_Linear_5,12,9999,9999,9999,911675456
5310,19,Jits_Linear_5,13,9999,9999,9999,912175212
5310,19,Jits_Linear_5,14,9999,9999,9999,912675944
5310,19,Jits_Linear_5,15,9999,9999,9999,913185908
5310,19,Jits_Linear_5,16,9999,9999,9999,913695860
5310,19,Jits_Linear_5,17,9999,9999,9999,914205812
5310,19,Jits_Linear_5,18,9999,9999,9999,914715704
5310,19,Jits_Linear_5,19,9999,9999,9999,915225668
5310,19,Jits_Linear_5,20,9999,9999,9999,915745896
5310,19,Jits_Linear_5,21,9999,9999,9999,916266048
5310,19,Jits_Linear_5,22,9999,9999,9999,916785228
5310,19,Jits_Linear_5,23,9999,9999,9999,917305464
5310,19,Jits_Linear_5,24,9999,9999,9999,917825620
5310,19,Jits_Linear_5,25,9999,9999,9999,918356028
5310,19,Jits_Linear_5,26,9999,9999,9999,918885480
5310,19,Jits_Linear_5,27,9999,9999,9999,919415868
5310,19,Jits_Linear_5,28,9999,9999,9999,919945316
5310,19,Jits_Linear_5,29,9999,9999,9999,920475716
5310,19,Jits_Linear_5,30,9999,9999,9999,921015420
5310,19,Jits_Linear_5,31,9999,9999,9999,921556028
5310,19,Jits_Linear_5,32,9999,9999,9999,922095720
5310,19,Jits_Linear_5,33,9999,9999,9999,922635336
5310,19,Jits_Linear_5,34,9999,9999,9999,923176004
5310,19,Jits_Linear_5,35,9999,9999,9999,923725888
5310,19,Jits_Linear_5,36,9999,9999,9999,924275780
5310,19,Jits_Linear_5,37,9999,9999,9999,924825664
5310,19,Jits_Linear_5,38,9999,9999,9999,925375548
5310,19,Jits_Linear_5,39,9999,9999,9999,925925436
5310,19,Jits_Linear_5,40,9999,9999,9999,926485584
5310,19,Jits_Linear_5,41,9999,9999,9999,927045740
5310,19,Jits_Linear_5,42,9999,9999,9999,927605852
5310,19,Jits_Linear_5,43,9999,9999,9999,928165992
5310,19,Jits_Linear_5,44,9999,9999,9999,928726136
5310,19,Jits_Linear_5,45,9999,9999,9999,929305684
5310,19,Jits_Linear_5,46,9999,9999,9999,929876092
5310,19,Jits_Linear_5,47,9999,9999,9999,930445404
5310,19,Jits_Linear_5,48,9999,9999,9999,931015744
5310,19,Jits_Linear_5,49,9999,9999,9999,931585124
5310,19,Jits_Linear_5,50,9999,9999,9999,932165708
5310,19,Jits_Linear_5,51,9999,9999,9999,932745300
5310,19,Jits_Linear_5,52,9999,9999,9999,933325916
5310,19,Jits_Linear_5,53,9999,9999,9999,933905484
5310,19,Jits_Linear_5,54,9999,9999,9999,934486080
5310,19,Jits_Linear_5,55,9999,9999,9999,935085148
5310,19,Jits_Linear_5,56,9999,9999,9999,935676004
5310,19,Jits_Linear_5,57,9999,9999,9999,936265816
5310,19,Jits_Linear_5,58,9999,9999,9999,936855660
5310,19,Jits_Linear_5,59,9999,9999,9999,937445496
5310,19,Jits_Linear_5,60,9999,9999,9999,938045536
5310,19,Jits_Linear_5,61,9999,9999,9999,938645560
5310,19,Jits_Linear_5,62,9999,9999,9999,939245640
5310,19,Jits_Linear_5,63,9999,9999,9999,939845712
5310,19,Jits_Linear_5,64,9999,9999,9999,940445820
5310,19,Jits_Linear_5,65,9999,9999,9999,941056100
5310,19,Jits_Linear_5,66,9999,9999,9999,941675612
5310,19,Jits_Linear_5,67,9999,9999,9999,942285944
5310,19,Jits_Linear_5,68,9999,9999,9999,942895184
5310,19,Jits_Linear_5,69,9999,9999,9999,943505480
5310,19,Jits_Linear_5,70,9999,9999,9999,944126076
5310,19,Jits_Linear_5,71,9999,9999,9999,944745596
5310,19,Jits_Linear_5,72,9999,9999,9999,945366124
5310,19,Jits_Linear_5,73,9999,9999,9999,945995868
5310,19,Jits_Linear_5,74,9999,9999,9999,946615352
5310,19,Jits_Linear_5,75,9999,9999,9999,947245176
5310,19,Jits_Linear_5,76,9999,9999,9999,947875940
5310,19,Jits_Linear_5,77,9999,9999,9999,948505692
5310,19,Jits_Linear_5,78,9999,9999,9999,949135452
5310,19,Jits_Linear_5,79,9999,9999,9999,949765200
5310,19,Jits_Linear_5,80,9999,9999,9999,950405240
5310,19,Jits_Linear_5,81,9999,9999,9999,951045180
5310,19,Jits_Linear_5,82,9999,9999,9999,951685212
5310,19,Jits_Linear_5,83,9999,9999,9999,952325224
5310,19,Jits_Linear_5,84,9999,9999,9999,952965204
5310,19,Jits_Linear_5,85,9999,9999,9999,953615476
5310,19,Jits_Linear_5,86,9999,9999,9999,954265700
5310,19,Jits_Linear_5,87,9999,9999,9999,954915916
5310,19,Jits_Linear_5,88,9999,9999,9999,955565160
5310,19,Jits_Linear_5,89,9999,9999,9999,956215360
5310,19,Jits_Linear_5,90,9999,9999,9999,956875848
5310,19,Jits_Linear_5,91,9999,9999,9999,957535304
5310,19,Jits_Linear_5,92,9999,9999,9999,958195768
5310,19,Jits_Linear_5,93,9999,9999,9999,958855288
5310,19,Jits_Linear_5,94,9999,9999,9999,959515748
5310,19,Jits_Linear_5,95,9999,9999,9999,960185456
5310,19,Jits_Linear_5,96,9999,9999,9999,960855140
5310,19,Jits_Linear_5,97,9999,9999,9999,961525884
5310,19,Jits_Linear_5,98,9999,9999,9999,962195516
5310,19,Jits_Linear_5,99,9999,9999,9999,962865272
5310,19,Jits_Linear_5,100,9999,9999,9999,963545164
5310,19,Jits_Linear_5,101,9999,9999,9999,964225124
5310,19,Jits_Linear_5,102,9999,9999,9999,964906108
5310,19,Jits_Linear_5,103,9999,9999,9999,965586024
5310,19,Jits_Linear_5,104,9999,9999,9999,966265912
5310,19,Jits_Linear_5,105,9999,9999,9999,966955072
5310,19,Jits_Linear_5,106,9999,9999,9999,967645308
5310,19,Jits_Linear_5,107,9999,9999,9999,968335464
5310,19,Jits_Linear_5,108,9999,9999,9999,969025592
5310,19,Jits_Linear_5,109,9999,9999,9999,969715824
5310,19,Jits_Linear_5,110,9999,9999,9999,970415216
5310,19,Jits_Linear_5,111,9999,9999,9999,971115636
5310,19,Jits_Linear_5,112,9999,9999,9999,971816032
5310,19,Jits_Linear_5,113,9999,9999,9999,972515412
5310,19,Jits_Linear_5,114,9999,9999,9999,973215800
5310,19,Jits_Linear_5,115,9999,9999,9999,973925444
5310,19,Jits_Linear_5,116,9999,9999,9999,974635132
5310,19,Jits_Linear_5,117,9999,9999,9999,975345756
5310,19,Jits_Linear_5,118,9999,9999,9999,976055392
5310,19,Jits_Linear_5,119,9999,9999,9999,976766072
5310,19,Jits_Linear_5,120,9999,9999,9999,977485948
5310,19,Jits_Linear_5,121,9999,9999,9999,978205776
5310,19,Jits_Linear_5,122,9999,9999,9999,978925676
5310,19,Jits_Linear_5,123,9999,9999,9999,979645520
5310,19,Jits_Linear_5,124,9999,9999,9999,980365420
5310,19,Jits_Linear_5,125,9999,9999,9999,981095512
5310,19,Jits_Linear_5,126,9999,9999,9999,981825596
5310,19,Jits_Linear_5,127,9999,9999,9999,982555756
5310,19,Jits_Linear_5,128,9999,9999,9999,983285852
5310,19,Jits_Linear_5,129,9999,9999,9999,984015960
5310,19,Jits_Linear_5,130,9999,9999,9999,984755264
5310,19,Jits_Linear_5,131,9999,9999,9999,985495620
5310,19,Jits_Linear_5,132,9999,9999,9999,986235968
5310,19,Jits_Linear_5,133,9999,9999,9999,986975352
5310,19,Jits_Linear_5,134,9999,9999,9999,987715672
5310,19,Jits_Linear_5,135,9999,9999,9999,988465240
5310,19,Jits_Linear_5,136,9999,9999,9999,989215860
5310,19,Jits_Linear_5,137,9999,9999,9999,989965432
5310,19,Jits_Linear_5,138,9999,9999,9999,990715976
5310,19,Jits_Linear_5,139,9999,9999,9999,991465568
5310,19,Jits_Linear_5,140,9999,9999,9999,992225404
5310,19,Jits_Linear_5,141,9999,9999,9999,992985184
5310,19,Jits_Linear_5,142,9999,9999,9999,993746008
5310,19,Jits_Linear_5,143,9999,9999,9999,994505844
5310,19,Jits_Linear_5,144,9999,9999,9999,995265600
5310,19,Jits_Linear_5,145,9999,9999,9999,996035704
5310,19,Jits_Linear_5,146,9999,9999,9999,996805732
5310,19,Jits_Linear_5,147,9999,9999,9999,997575756
5310,19,Jits_Linear_5,148,9999,9999,9999,998345848
5310,19,Jits_Linear_5,149,9999,9999,9999,999115876
5310,19,Jits_Linear_5,150,9999,9999,9999,999895120
5310,19,Jits_Linear_5,151,9999,9999,9999,1000675396
5310,19,Jits_Linear_5,152,9999,9999,9999,1001455688
5310,19,Jits_Linear_5,153,9999,9999,9999,1002235980
5310,19,Jits_Linear_5,154,9999,9999,9999,1003015224
5310,19,Jits_Linear_5,155,9999,9999,9999,1003805776
5310,19,Jits_Linear_5,156,9999,9999,9999,1004595268
5310,19,Jits_Linear_5,157,9999,9999,9999,1005385816
5310,19,Jits_Linear_5,158,9999,9999,9999,1006175348
5310,19,Jits_Linear_5,159,9999,9999,9999,1006965828
5310,19,Jits_Linear_5,160,9999,9999,9999,1007765612
5310,19,Jits_Linear_5,161,9999,9999,9999,1008565328
5310,19,Jits_Linear_5,162,9999,9999,9999,1009366136
5310,19,Jits_Linear_5,163,9999,9999,9999,1010176112
5310,19,Jits_Linear_5,164,9999,9999,9999,1010986068
5310,19,Jits_Linear_5,165,9999,9999,9999,1011796028
5310,19,Jits_Linear_5,166,9999,9999,9999,1012606020
5310,19,Jits_Linear_5,167,9999,9999,9999,1013415992
5310,19,Jits_Linear_5,168,9999,9999,9999,1014226028
5310,19,Jits_Linear_5,169,9999,9999,9999,1015035984
5311,18,Jits_Linear_8,0,5,56,103,1024919012
5311,18,Jits_Linear_8,1,5,63,98,1024922112
5311,18,Jits_Linear_8,2,5,80,127,1024925232
5311,18,Jits_Linear_8,0,1,48,20,1025632464
5311,18,Jits_Linear_8,1,5,56,103,1025739224
5311,18,Jits_Linear_8,2,5,63,98,1025742172
5311,18,Jits_Linear_8,3,5,80,127,1025745296
5311,18,Jits_Linear_8,0,1,48,23,1026459172
5311,18,Jits_Linear_8,1,5,80,127,1026499128
5311,18,Jits_Linear_8,2,5,63,98,1026589176
5311,18,Jits_Linear_8,3,5,56,103,1026599148
5311,18,Jits_Linear_8,0,5,56,103,1027338600
5311,18,Jits_Linear_8,1,5,63,98,1027348872
5311,18,Jits_Linear_8,2,1,48,25,1027359260
5311,18,Jits_Linear_8,3,5,80,127,1027439096
5311,18,Jits_Linear_8,0,5,63,98,1028129148
5311,18,Jits_Linear_8,1,5,80,127,1028159048
5311,18,Jits_Linear_8,2,1,48,26,1028163664
5311,18,Jits_Linear_8,3,5,56,103,1028188516
5311,18,Jits_Linear_8,0,1,48,30,1028937404
5311,18,Jits_Linear_8,1,5,56,103,1028949264
5311,18,Jits_Linear_8,2,5,80,127,1029048776
5311,18,Jits_Linear_8,3,5,63,98,1029098828
5311,18,Jits_Linear_8,0,5,56,103,1029759312
5311,18,Jits_Linear_8,1,5,80,127,1029808396
5311,18,Jits_Linear_8,2,1,48,30,1029833236
5311,18,Jits_Linear_8,3,5,63,98,1029848404
5311,18,Jits_Linear_8,0,1,48,28,1030571924
5311,18,Jits_Linear_8,1,5,80,127,1030599004
5311,18,Jits_Linear_8,2,5,63,98,1030628680
5311,18,Jits_Linear_8,3,5,56,103,1030699320
5311,18,Jits_Linear_8,0,1,48,25,1031403596
5311,18,Jits_Linear_8,1,5,63,98,1031438840
5311,18,Jits_Linear_8,2,5,56,103,1031469340
5311,18,Jits_Linear_8,3,5,80,127,1031529064
5311,18,Jits_Linear_8,0,5,56,103,1032189300
5311,18,Jits_Linear_8,1,5,80,127,1032192368
5311,18,Jits_Linear_8,2,1,48,31,1032215040
5311,18,Jits_Linear_8,3,5,63,98,1032309032
5311,18,Jits_Linear_8,0,1,48,27,1033020872
5311,18,Jits_Linear_8,1,5,56,103,1033069024
5311,18,Jits_Linear_8,2,5,80,127,1033109036
5311,18,Jits_Linear_8,3,5,63,98,1033120564
5311,18,Jits_Linear_8,0,5,56,103,1033829004
5311,18,Jits_Linear_8,1,1,48,29,1033848488
5311,18,Jits_Linear_8,2,5,80,127,1033850056
5311,18,Jits_Linear_8,3,5,63,98,1033928956
5311,18,Jits_Linear_8,0,5,80,127,1034619184
5311,18,Jits_Linear_8,1,1,48,24,1034702092
5311,18,Jits_Linear_8,2,5,56,103,1034718532
5311,18,Jits_Linear_8,3,5,63,98,1034728728
5311,18,Jits_Linear_8,0,5,63,98,1035389288
5311,18,Jits_Linear_8,1,5,80,127,1035448708
5311,18,Jits_Linear_8,2,5,56,103,1035458904
5311,18,Jits_Linear_8,3,1,48,24,1035483520
5311,18,Jits_Linear_8,0,5,56,103,1036188952
5311,18,Jits_Linear_8,1,1,48,34,1036190292
5311,18,Jits_Linear_8,2,5,63,98,1036258776
5311,18,Jits_Linear_8,3,5,80,127,1036261992
5311,18,Jits_Linear_8,0,1,48,32,1036972264
5311,18,Jits_Linear_8,1,5,63,98,1037018668
5311,18,Jits_Linear_8,2,5,56,103,1037069084
5311,18,Jits_Linear_8,3,5,80,127,1037071996
5311,18,Jits_Linear_8,0,5,56,103,1037768960
5311,18,Jits_Linear_8,1,5,80,127,1037772184
5311,18,Jits_Linear_8,2,1,48,26,1037798692
5311,18,Jits_Linear_8,3,5,63,98,1037859168
5311,18,Jits_Linear_8,0,1,48,28,1038592956
5311,18,Jits_Linear_8,1,5,63,98,1038598464
5311,18,Jits_Linear_8,2,5,56,103,1038688772
5311,18,Jits_Linear_8,3,5,80,127,1038719332
5311,18,Jits_Linear_8,0,5,56,103,1039378676
5311,18,Jits_Linear_8,1,1,48,24,1039420976
5311,18,Jits_Linear_8,2,5,63,98,1039479168
5311,18,Jits_Linear_8,3,5,80,127,1039508768
5311,18,Jits_Linear_8,0,5,63,98,1040188784
5311,18,Jits_Linear_8,1,1,48,32,1040197392
5311,18,Jits_Linear_8,2,5,56,103,1040198900
5311,18,Jits_Linear_8,3,5,80,127,1040289132
5311,18,Jits_Linear_8,0,5,63,98,1040988644
5311,18,Jits_Linear_8,1,1,48,23,1041002468
5311,18,Jits_Linear_8,2,5,56,103,1041069700
5311,18,Jits_Linear_8,3,5,80,127,1041072692
5311,18,Jits_Linear_8,0,5,80,127,1041729028
5311,18,Jits_Linear_8,1,5,63,98,1041749340
5311,18,Jits_Linear_8,2,1,48,28,1041800212
5311,18,Jits_Linear_8,3,5,56,103,1041808776
5311,18,Jits_Linear_8,0,1,48,27,1042545860
5311,18,Jits_Linear_8,1,5,56,103,1042549116
5311,18,Jits_Linear_8,2,5,63,98,1042568604
5311,18,Jits_Linear_8,3,5,80,127,1042571892
5311,18,Jits_Linear_8,0,5,63,98,1043269052
5311,18,Jits_Linear_8,1,1,48,28,1043328244
5311,18,Jits_Linear_8,2,5,80,127,1043348868
5311,18,Jits_Linear_8,3,5,56,103,1043359212
5311,18,Jits_Linear_8,0,1,48,29,1044022836
5311,18,Jits_Linear_8,1,5,63,98,1044068672
5311,18,Jits_Linear_8,2,5,56,103,1044089132
5311,18,Jits_Linear_8,3,5,80,127,1044139320
5311,18,Jits_Linear_8,0,1,48,32,1044806396
5311,18,Jits_Linear_8,1,5,80,127,1044849016
5311,18,Jits_Linear_8,2,5,63,98,1044888808
5311,18,Jits_Linear_8,3,5,56,103,1044909548
5311,18,Jits_Linear_8,0,1,48,30,1045605580
5311,18,Jits_Linear_8,1,5,56,103,1045658960
5311,18,Jits_Linear_8,2,5,63,98,1045669456
5311,18,Jits_Linear_8,3,5,80,127,1045688568
5311,18,Jits_Linear_8,0,5,56,103,1046359524
5311,18,Jits_Linear_8,1,1,48,29,1046392464
5311,18,Jits_Linear_8,2,5,63,98,1046448684
5311,18,Jits_Linear_8,3,5,80,127,1046508984
5311,18,Jits_Linear_8,0,1,48,25,1047154612
5311,18,Jits_Linear_8,1,5,80,127,1047159292
5311,18,Jits_Linear_8,2,5,56,103,1047169340
5311,18,Jits_Linear_8,3,5,63,98,1047239020
5311,18,Jits_Linear_8,0,1,48,30,1047932416
5311,18,Jits_Linear_8,1,5,63,98,1047958748
5311,18,Jits_Linear_8,2,5,80,127,1048048868
5311,18,Jits_Linear_8,3,5,56,103,1048059212
5311,18,Jits_Linear_8,0,5,63,98,1048659440
5311,18,Jits_Linear_8,1,5,80,127,1048708448
5311,18,Jits_Linear_8,2,1,48,30,1048743476
5311,18,Jits_Linear_8,3,5,56,103,1048768832
5311,18,Jits_Linear_8,0,5,56,103,1049448780
5311,18,Jits_Linear_8,1,1,48,28,1049470404
5311,18,Jits_Linear_8,2,5,80,127,1049498900
5311,18,Jits_Linear_8,3,5,63,98,1049518612
5311,18,Jits_Linear_8,0,5,56,103,1050178840
5311,18,Jits_Linear_8,1,1,48,22,1050213524
5311,18,Jits_Linear_8,2,5,80,127,1050239472
5311,18,Jits_Linear_8,3,5,63,98,1050308992
5311,18,Jits_Linear_8,0,5,56,103,1050938820
5311,18,Jits_Linear_8,1,5,80,127,1050968448
5311,18,Jits_Linear_8,2,1,48,32,1050985268
5311,18,Jits_Linear_8,3,5,63,98,1050999312
5311,18,Jits_Linear_8,0,1,48,32,1051698164
5311,18,Jits_Linear_8,1,5,56,103,1051738524
5311,18,Jits_Linear_8,2,5,80,127,1051758908
5311,18,Jits_Linear_8,3,5,63,98,1051819584
5311,18,Jits_Linear_8,0,1,48,30,1052503332
5311,18,Jits_Linear_8,1,5,80,127,1052579408
5311,18,Jits_Linear_8,2,5,56,103,1052589528
5311,18,Jits_Linear_8,3,5,63,98,1052598604
5311,18,Jits_Linear_8,0,5,56,103,1053288748
5311,18,Jits_Linear_8,1,5,80,127,1053328688
5311,18,Jits_Linear_8,2,1,48,29,1053346108
5311,18,Jits_Linear_8,3,5,63,98,1053358504
5311,18,Jits_Linear_8,0,5,56,103,1054008552
5311,18,Jits_Linear_8,1,5,63,98,1054039304
5311,18,Jits_Linear_8,2,5,80,127,1054079688
5311,18,Jits_Linear_8,3,1,48,29,1054111724
5311,18,Jits_Linear_8,0,5,80,127,1054709344
5311,18,Jits_Linear_8,1,5,63,98,1054759548
5311,18,Jits_Linear_8,2,5,56,103,1054778736
5311,18,Jits_Linear_8,3,1,48,32,1054829836
5311,18,Jits_Linear_8,0,5,56,103,1055489260
5311,18,Jits_Linear_8,1,1,48,36,1055520476
5311,18,Jits_Linear_8,2,5,80,127,1055559160
5311,18,Jits_Linear_8,3,5,63,98,1055618532
5311,18,Jits_Linear_8,0,5,80,127,1056228796
5311,18,Jits_Linear_8,1,1,48,24,1056296932
5311,18,Jits_Linear_8,2,5,63,98,1056318852
5311,18,Jits_Linear_8,3,5,56,103,1056339460
5311,18,Jits_Linear_8,0,5,63,98,1056988464
5311,18,Jits_Linear_8,1,5,56,103,1057009144
5311,18,Jits_Linear_8,2,1,48,28,1057037068
5311,18,Jits_Linear_8,3,5,80,127,1057049004
5311,18,Jits_Linear_8,0,5,80,127,1057689164
5311,18,Jits_Linear_8,1,5,63,98,1057709400
5311,18,Jits_Linear_8,2,1,48,32,1057746004
5311,18,Jits_Linear_8,3,5,56,103,1057789412
5311,18,Jits_Linear_8,0,5,63,98,1058419172
5311,18,Jits_Linear_8,1,1,48,31,1058495256
5311,18,Jits_Linear_8,2,5,56,103,1058528476
5311,18,Jits_Linear_8,3,5,80,127,1058531696
5311,18,Jits_Linear_8,0,1,48,32,1059165680
5311,18,Jits_Linear_8,1,5,63,98,1059179052
5311,18,Jits_Linear_8,2,5,56,103,1059189320
5311,18,Jits_Linear_8,3,5,80,127,1059192236
5311,18,Jits_Linear_8,0,1,48,28,1059880664
5311,18,Jits_Linear_8,1,5,56,103,1059898600
5311,18,Jits_Linear_8,2,5,80,127,1060018712
5311,18,Jits_Linear_8,3,5,63,98,1060058576
5311,18,Jits_Linear_8,0,5,56,103,1060649288
5311,18,Jits_Linear_8,1,5,80,127,1060729188
5311,18,Jits_Linear_8,2,1,48,35,1060745560
5311,18,Jits_Linear_8,3,5,63,98,1060748592
5311,18,Jits_Linear_8,0,5,56,103,1061378412
5311,18,Jits_Linear_8,1,1,48,28,1061458924
5311,18,Jits_Linear_8,2,5,63,98,1061489016
5311,18,Jits_Linear_8,3,5,80,127,1061492528
5311,18,Jits_Linear_8,0,5,56,103,1062139136
5311,18,Jits_Linear_8,1,1,48,31,1062151176
5311,18,Jits_Linear_8,2,5,80,127,1062168956
5311,18,Jits_Linear_8,3,5,63,98,1062189416
5311,18,Jits_Linear_8,0,5,63,98,1062849076
5311,18,Jits_Linear_8,1,5,56,103,1062859048
5311,18,Jits_Linear_8,2,1,48,29,1062866428
5311,18,Jits_Linear_8,3,5,80,127,1062869460
5311,18,Jits_Linear_8,0,5,80,127,1063558472
5311,18,Jits_Linear_8,1,1,48,31,1063591928
5311,18,Jits_Linear_8,2,5,56,103,1063608668
5311,18,Jits_Linear_8,3,5,63,98,1063648608
5311,18,Jits_Linear_8,0,5,80,127,1064298976
5311,18,Jits_Linear_8,1,1,48,27,1064315796
5311,18,Jits_Linear_8,2,5,63,98,1064319356
5311,18,Jits_Linear_8,3,5,56,103,1064368660
5311,18,Jits_Linear_8,0,1,48,32,1065023012
5311,18,Jits_Linear_8,1,5,80,127,1065029188
5311,18,Jits_Linear_8,2,5,56,103,1065058816
5311,18,Jits_Linear_8,3,5,63,98,1065129304
5311,18,Jits_Linear_8,0,1,48,29,1065745368
5311,18,Jits_Linear_8,1,5,56,103,1065799128
5311,18,Jits_Linear_8,2,5,80,127,1065809400
5311,18,Jits_Linear_8,3,5,63,98,1065849348
5311,18,Jits_Linear_8,0,5,56,103,1066428896
5311,18,Jits_Linear_8,1,5,63,98,1066449208
5311,18,Jits_Linear_8,2,5,80,127,1066519036
5311,18,Jits_Linear_8,3,1,48,27,1066535708
5311,18,Jits_Linear_8,0,5,63,98,1067169176
5311,18,Jits_Linear_8,1,5,80,127,1067228520
5311,18,Jits_Linear_8,2,1,48,24,1067241228
5311,18,Jits_Linear_8,3,5,56,103,1067249120
5311,18,Jits_Linear_8,0,5,80,127,1067868464
5311,18,Jits_Linear_8,1,5,56,103,1067899264
5311,18,Jits_Linear_8,2,5,63,98,1067929160
5311,18,Jits_Linear_8,3,1,48,29,1067934900
5311,18,Jits_Linear_8,0,5,56,103,1068579120
5311,18,Jits_Linear_8,1,1,48,26,1068604860
5311,18,Jits_Linear_8,2,5,63,98,1068638708
5311,18,Jits_Linear_8,3,5,80,127,1068698936
5311,18,Jits_Linear_8,0,5,80,127,1069309216
5311,18,Jits_Linear_8,1,5,56,103,1069328928
5311,18,Jits_Linear_8,2,1,48,26,1069343504
5311,18,Jits_Linear_8,3,5,63,98,1069399448
5311,18,Jits_Linear_8,0,5,80,127,1070018932
5311,18,Jits_Linear_8,1,5,63,98,1070039540
5311,18,Jits_Linear_8,2,5,56,103,1070068992
5311,18,Jits_Linear_8,3,1,48,20,1070079456
5311,18,Jits_Linear_8,0,5,80,127,1070709016
5311,18,Jits_Linear_8,1,5,63,98,1070728652
5311,18,Jits_Linear_8,2,1,48,23,1070747136
5311,18,Jits_Linear_8,3,5,56,103,1070789108
5311,18,Jits_Linear_8,0,5,80,127,1071408516
5311,18,Jits_Linear_8,1,1,48,24,1071432084
5311,18,Jits_Linear_8,2,5,56,103,1071508932
5311,18,Jits_Linear_8,3,5,63,98,1071538516
5311,18,Jits_Linear_8,0,5,63,98,1072098824
5311,18,Jits_Linear_8,1,5,80,127,1072148808
5311,18,Jits_Linear_8,2,1,48,32,1072169712
5311,18,Jits_Linear_8,3,5,56,103,1072170824
5311,18,Jits_Linear_8,0,1,48,32,1072809996
5311,18,Jits_Linear_8,1,5,80,127,1072838940
5311,18,Jits_Linear_8,2,5,56,103,1072868912
5311,18,Jits_Linear_8,3,5,63,98,1072872052
5311,18,Jits_Linear_8,0,1,48,29,1073529880
5311,18,Jits_Linear_8,1,5,63,98,1073569160
5311,18,Jits_Linear_8,2,5,56,103,1073609028
5311,18,Jits_Linear_8,3,5,80,127,1073629620
5311,18,Jits_Linear_8,0,5,80,127,1074209024
5311,18,Jits_Linear_8,1,1,48,30,1074277584
5311,18,Jits_Linear_8,2,5,63,98,1074288988
5311,18,Jits_Linear_8,3,5,56,103,1074328856
5311,18,Jits_Linear_8,0,5,63,98,1074919040
5311,18,Jits_Linear_8,1,1,48,29,1074955348
5311,18,Jits_Linear_8,2,5,80,127,1074998908
5311,18,Jits_Linear_8,3,5,56,103,1075018996
5311,18,Jits_Linear_8,0,1,48,30,1075638684
5311,18,Jits_Linear_8,1,5,56,103,1075648896
5311,18,Jits_Linear_8,2,5,63,98,1075659092
5311,18,Jits_Linear_8,3,5,80,127,1075698956
5311,18,Jits_Linear_8,0,5,56,103,1076259156
5311,18,Jits_Linear_8,1,5,80,127,1076262368
5311,18,Jits_Linear_8,2,1,48,29,1076312344
5311,18,Jits_Linear_8,3,5,63,98,1076398380
5311,18,Jits_Linear_8,0,5,56,103,1076939116
5311,18,Jits_Linear_8,1,5,63,98,1077029104
5311,18,Jits_Linear_8,2,1,48,33,1077030592
5311,18,Jits_Linear_8,3,5,80,127,1077098804
5311,18,Jits_Linear_8,0,1,48,32,1077680868
5311,18,Jits_Linear_8,1,5,63,98,1077698876
5311,18,Jits_Linear_8,2,5,80,127,1077702168
5311,18,Jits_Linear_8,3,5,56,103,1077759344
5311,18,Jits_Linear_8,0,5,80,127,1078418996
5311,18,Jits_Linear_8,1,1,48,19,1078428264
5311,18,Jits_Linear_8,2,5,56,103,1078439152
5311,18,Jits_Linear_8,3,5,63,98,1078448452
5311,18,Jits_Linear_8,0,5,56,103,1079008744
5311,18,Jits_Linear_8,1,5,63,98,1079018940
5311,18,Jits_Linear_8,2,5,80,127,1079088472
5311,18,Jits_Linear_8,3,1,48,25,1079121180
5311,18,Jits_Linear_8,0,5,80,127,1079688788
5311,18,Jits_Linear_8,1,5,56,103,1079738992
5311,18,Jits_Linear_8,2,1,48,32,1079756632
5311,18,Jits_Linear_8,3,5,63,98,1079789036
5311,18,Jits_Linear_8,0,1,48,30,1080414948
5311,18,Jits_Linear_8,1,5,56,103,1080449376
5311,18,Jits_Linear_8,2,5,63,98,1080458748
5311,18,Jits_Linear_8,3,5,80,127,1080498836
5311,18,Jits_Linear_8,0,5,56,103,1081068860
5311,18,Jits_Linear_8,1,5,63,98,1081108800
5311,18,Jits_Linear_8,2,1,48,29,1081115504
5311,18,Jits_Linear_8,3,5,80,127,1081159140
5311,18,Jits_Linear_8,0,5,80,127,1081698632
5311,18,Jits_Linear_8,1,5,56,103,1081748912
5311,18,Jits_Linear_8,2,5,63,98,1081769296
5311,18,Jits_Linear_8,3,1,48,25,1081780132
5311,18,Jits_Linear_8,0,5,80,127,1082378800
5311,18,Jits_Linear_8,1,1,48,25,1082400880
5311,18,Jits_Linear_8,2,5,63,98,1082438964
5311,18,Jits_Linear_8,3,5,56,103,1082518844
5311,18,Jits_Linear_8,0,5,80,127,1083028956
5311,18,Jits_Linear_8,1,5,56,103,1083068820
5311,18,Jits_Linear_8,2,5,63,98,1083089280
5311,18,Jits_Linear_8,3,1,48,23,1083121768
5311,18,Jits_Linear_8,0,1,48,29,1083733356
5311,18,Jits_Linear_8,1,5,56,103,1083748676
5311,18,Jits_Linear_8,2,5,80,127,1083759092
5311,18,Jits_Linear_8,3,5,63,98,1083798960
5311,18,Jits_Linear_8,0,1,48,27,1084391040
5311,18,Jits_Linear_8,1,5,56,103,1084478808
5311,18,Jits_Linear_8,2,5,63,98,1084518832
5311,18,Jits_Linear_8,3,5,80,127,1084522196
5311,18,Jits_Linear_8,0,5,63,98,1085028780
5311,18,Jits_Linear_8,1,5,80,127,1085068720
5311,18,Jits_Linear_8,2,5,56,103,1085139300
5311,18,Jits_Linear_8,3,1,48,29,1085150736
5311,18,Jits_Linear_8,0,5,63,98,1085678968
5311,18,Jits_Linear_8,1,1,48,28,1085740824
5311,18,Jits_Linear_8,2,5,56,103,1085758760
5311,18,Jits_Linear_8,3,5,80,127,1085819176
5311,18,Jits_Linear_8,0,5,80,127,1086348588
5311,18,Jits_Linear_8,1,1,48,26,1086383172
5311,18,Jits_Linear_8,2,5,63,98,1086398788
5311,18,Jits_Linear_8,3,5,56,103,1086428612
5311,18,Jits_Linear_8,0,1,48,27,1086996420
5311,18,Jits_Linear_8,1,5,56,103,1086998932
5311,18,Jits_Linear_8,2,5,63,98,1087049136
5311,18,Jits_Linear_8,3,5,80,127,1087059408
5311,18,Jits_Linear_8,0,5,56,103,1087668528
5311,18,Jits_Linear_8,1,1,48,28,1087672620
5311,18,Jits_Linear_8,2,5,63,98,1087779244
5311,18,Jits_Linear_8,3,5,80,127,1087798512
5311,18,Jits_Linear_8,0,5,63,98,1088318812
5311,18,Jits_Linear_8,1,5,80,127,1088368964
5311,18,Jits_Linear_8,2,1,48,26,1088434860
5311,18,Jits_Linear_8,3,5,56,103,1088459092
5311,18,Jits_Linear_8,0,5,63,98,1088958836
5311,18,Jits_Linear_8,1,5,80,127,1088988440
5311,18,Jits_Linear_8,2,1,48,28,1089014852
5311,18,Jits_Linear_8,3,5,56,103,1089078640
5311,18,Jits_Linear_8,0,5,63,98,1089609016
5311,18,Jits_Linear_8,1,5,56,103,1089619684
5311,18,Jits_Linear_8,2,1,48,29,1089660640
5311,18,Jits_Linear_8,3,5,80,127,1089718580
5311,18,Jits_Linear_8,0,1,48,27,1090276880
5311,18,Jits_Linear_8,1,5,63,98,1090358568
5311,18,Jits_Linear_8,2,5,80,127,1090389452
5311,18,Jits_Linear_8,3,5,56,103,1090419128
5311,18,Jits_Linear_8,0,1,48,35,1090990708
5311,18,Jits_Linear_8,1,5,80,127,1091019060
5311,18,Jits_Linear_8,2,5,63,98,1091029628
5311,18,Jits_Linear_8,3,5,56,103,1091059004
5311,18,Jits_Linear_8,0,5,80,127,1091558748
5311,18,Jits_Linear_8,1,5,63,98,1091579356
5311,18,Jits_Linear_8,2,5,56,103,1091629560
5311,18,Jits_Linear_8,3,1,48,26,1091686260
5311,18,Jits_Linear_8,0,5,63,98,1092228456
5311,18,Jits_Linear_8,1,1,48,27,1092247988
5311,18,Jits_Linear_8,2,5,80,127,1092288916
5311,18,Jits_Linear_8,3,5,56,103,1092309448
5311,18,Jits_Linear_8,0,5,63,98,1092828596
5311,18,Jits_Linear_8,1,1,48,28,1092872248
5311,18,Jits_Linear_8,2,5,56,103,1092878644
5311,18,Jits_Linear_8,3,5,80,127,1092888988
5311,18,Jits_Linear_8,0,1,48,32,1093465052
5311,18,Jits_Linear_8,1,5,56,103,1093499328
5311,18,Jits_Linear_8,2,5,80,127,1093508476
5311,18,Jits_Linear_8,3,5,63,98,1093608784
5311,18,Jits_Linear_8,0,5,80,127,1094099548
5311,18,Jits_Linear_8,1,5,63,98,1094108552
5311,18,Jits_Linear_8,2,1,48,29,1094223896
5311,18,Jits_Linear_8,3,5,56,103,1094259008
5311,18,Jits_Linear_8,0,5,63,98,1094739512
5311,18,Jits_Linear_8,1,5,80,127,1094779380
5311,18,Jits_Linear_8,2,1,48,24,1094786184
5311,18,Jits_Linear_8,3,5,56,103,1094859392
5311,18,Jits_Linear_8,0,5,56,103,1095358764
5311,18,Jits_Linear_8,1,1,48,25,1095435896
5311,18,Jits_Linear_8,2,5,80,127,1095459304
5311,18,Jits_Linear_8,3,5,63,98,1095478644
5311,18,Jits_Linear_8,0,1,48,20,1096024464
5311,18,Jits_Linear_8,1,5,80,127,1096049220
5311,18,Jits_Linear_8,2,5,56,103,1096059344
5311,18,Jits_Linear_8,3,5,63,98,1096149312
5311,18,Jits_Linear_8,0,5,56,103,1096678820
5311,18,Jits_Linear_8,1,1,48,27,1096688312
5311,18,Jits_Linear_8,2,5,63,98,1096699424
5311,18,Jits_Linear_8,3,5,80,127,1096779220
5311,18,Jits_Linear_8,0,5,63,98,1097249236
5311,18,Jits_Linear_8,1,1,48,27,1097312468
5311,18,Jits_Linear_8,2,5,56,103,1097339316
5311,18,Jits_Linear_8,3,5,80,127,1097342456
5311,18,Jits_Linear_8,0,5,56,103,1097899368
5311,18,Jits_Linear_8,1,1,48,31,1097926080
5311,18,Jits_Linear_8,2,5,80,127,1097958632
5311,18,Jits_Linear_8,3,5,63,98,1097969124
5311,18,Jits_Linear_8,0,1,48,30,1098557260
5311,18,Jits_Linear_8,1,5,80,127,1098569196
5311,18,Jits_Linear_8,2,5,56,103,1098579416
5311,18,Jits_Linear_8,3,5,63,98,1098582408
5311,18,Jits_Linear_8,0,5,56,103,1099148760
5311,18,Jits_Linear_8,1,1,48,27,1099149652
5311,18,Jits_Linear_8,2,5,80,127,1099158800
5311,18,Jits_Linear_8,3,5,63,98,1099179560
5311,18,Jits_Linear_8,0,5,63,98,1099738504
5311,18,Jits_Linear_8,1,1,48,33,1099749116
5311,18,Jits_Linear_8,2,5,80,127,1099798816
5311,18,Jits_Linear_8,3,5,56,103,1099849152
5311,18,Jits_Linear_8,0,1,48,28,1100359288
5311,18,Jits_Linear_8,1,5,63,98,1100438836
5311,18,Jits_Linear_8,2,5,56,103,1100449104
5311,18,Jits_Linear_8,3,5,80,127,1100499292
5311,18,Jits_Linear_8,0,5,63,98,1100948708
5311,18,Jits_Linear_8,1,5,80,127,1100969392
5311,18,Jits_Linear_8,2,5,56,103,1100978544
5311,18,Jits_Linear_8,3,1,48,26,1101025332
5311,18,Jits_Linear_8,0,5,63,98,1101559328
5311,18,Jits_Linear_8,1,5,80,127,1101562616
5311,18,Jits_Linear_8,2,1,48,29,1101570172
5311,18,Jits_Linear_8,3,5,56,103,1101599184
5311,18,Jits_Linear_8,0,1,48,33,1102121808
5311,18,Jits_Linear_8,1,5,63,98,1102239252
5311,18,Jits_Linear_8,2,5,80,127,1102268708
5311,18,Jits_Linear_8,3,5,56,103,1102279124
5311,18,Jits_Linear_8,0,5,56,103,1102799336
5311,18,Jits_Linear_8,1,5,80,127,1102828936
5311,18,Jits_Linear_8,2,1,48,34,1102842688
5311,18,Jits_Linear_8,3,5,63,98,1102858608
5311,18,Jits_Linear_8,0,1,48,35,1103420060
5311,18,Jits_Linear_8,1,5,63,98,1103498560
5311,18,Jits_Linear_8,2,5,56,103,1103538556
5311,18,Jits_Linear_8,3,5,80,127,1103541548
5311,18,Jits_Linear_8,0,5,80,127,1103999436
5311,18,Jits_Linear_8,1,1,48,22,1104067296
5311,18,Jits_Linear_8,2,5,56,103,1104079156
5311,18,Jits_Linear_8,3,5,63,98,1104129356
5311,18,Jits_Linear_8,0,5,80,127,1104578996
5311,18,Jits_Linear_8,1,5,56,103,1104599384
5311,18,Jits_Linear_8,2,1,48,29,1104656752
5311,18,Jits_Linear_8,3,5,63,98,1104688388
5311,18,Jits_Linear_8,0,5,80,127,1105219012
5311,18,Jits_Linear_8,1,1,48,29,1105225420
5311,18,Jits_Linear_8,2,5,63,98,1105258744
5311,18,Jits_Linear_8,3,5,56,103,1105298908
5311,18,Jits_Linear_8,4,1,48,16,1105307116
5311,18,Jits_Linear_8,0,5,63,98,1105789496
5311,18,Jits_Linear_8,1,5,80,127,1105848620
5311,18,Jits_Linear_8,2,1,48,27,1105876228
5311,18,Jits_Linear_8,3,5,56,103,1105879408
5311,18,Jits_Linear_8,0,5,56,103,1106389488
5311,18,Jits_Linear_8,1,1,48,27,1106418640
5311,18,Jits_Linear_8,2,5,80,127,1106420056
5311,18,Jits_Linear_8,3,5,63,98,1106509364
5311,18,Jits_Linear_8,0,5,56,103,1106989572
5311,18,Jits_Linear_8,1,1,48,24,1107009028
5311,18,Jits_Linear_8,2,5,80,127,1107099056
5311,18,Jits_Linear_8,3,5,63,98,1107128644
5311,18,Jits_Linear_8,0,1,48,22,1107602908
5311,18,Jits_Linear_8,1,5,56,103,1107629464
5311,18,Jits_Linear_8,2,5,63,98,1107689180
5311,18,Jits_Linear_8,3,5,80,127,1107718472
5311,18,Jits_Linear_8,0,5,56,103,1108188488
5311,18,Jits_Linear_8,1,1,48,19,1108237088
5311,18,Jits_Linear_8,2,5,63,98,1108259212
5311,18,Jits_Linear_8,3,5,80,127,1108278552
5311,18,Jits_Linear_8,0,5,80,127,1108748936
5311,18,Jits_Linear_8,1,5,63,98,1108769024
5311,18,Jits_Linear_8,2,1,48,27,1108801736
5311,18,Jits_Linear_8,3,5,56,103,1108819468
5311,18,Jits_Linear_8,0,1,48,25,1109345852
5311,18,Jits_Linear_8,1,5,63,98,1109348588
5311,18,Jits_Linear_8,2,5,80,127,1109359008
5311,18,Jits_Linear_8,3,5,56,103,1109409284
5311,18,Jits_Linear_8,0,5,63,98,1109929332
5311,18,Jits_Linear_8,1,1,48,27,1109932744
5311,18,Jits_Linear_8,2,5,80,127,1109999232
5311,18,Jits_Linear_8,3,5,56,103,1110018348
5311,18,Jits_Linear_8,0,1,48,29,1110521800
5311,18,Jits_Linear_8,1,5,63,98,1110538540
5311,18,Jits_Linear_8,2,5,80,127,1110542052
5311,18,Jits_Linear_8,3,5,56,103,1110609116
5311,18,Jits_Linear_8,0,5,80,127,1111069004
5311,18,Jits_Linear_8,1,5,56,103,1111088640
5311,18,Jits_Linear_8,2,5,63,98,1111098836
5311,18,Jits_Linear_8,3,1,48,25,1111124004
5311,18,Jits_Linear_8,0,5,56,103,1111669032
5311,18,Jits_Linear_8,1,1,48,29,1111681964
5311,18,Jits_Linear_8,2,5,63,98,1111759236
5311,18,Jits_Linear_8,3,5,80,127,1111762524
5311,18,Jits_Linear_8,0,5,80,127,1112218912
5311,18,Jits_Linear_8,1,5,56,103,1112229180
5311,18,Jits_Linear_8,2,5,63,98,1112248964
5311,18,Jits_Linear_8,3,1,48,31,1112271636
5311,18,Jits_Linear_8,0,5,63,98,1112789392
5311,18,Jits_Linear_8,1,5,80,127,1112848888
5311,18,Jits_Linear_8,2,1,48,28,1112855296
5311,18,Jits_Linear_8,3,5,56,103,1112858928
5311,18,Jits_Linear_8,0,1,48,30,1113387096
5311,18,Jits_Linear_8,1,5,63,98,1113429340
5311,18,Jits_Linear_8,2,5,80,127,1113459092
5311,18,Jits_Linear_8,3,5,56,103,1113499088
5311,18,Jits_Linear_8,0,1,48,26,1113981584
5311,18,Jits_Linear_8,1,5,56,103,1113988436
5311,18,Jits_Linear_8,2,5,80,127,1113998928
5311,18,Jits_Linear_8,3,5,63,98,1114038572
5311,18,Jits_Linear_8,0,5,80,127,1114518984
5311,18,Jits_Linear_8,1,1,48,28,1114566520
5311,18,Jits_Linear_8,2,5,56,103,1114598776
5311,18,Jits_Linear_8,3,5,63,98,1114608896
5311,18,Jits_Linear_8,0,5,80,127,1115129188
5311,18,Jits_Linear_8,1,1,48,31,1115151712
5311,18,Jits_Linear_8,2,5,56,103,1115209056
5311,18,Jits_Linear_8,3,5,63,98,1115219424
5311,18,Jits_Linear_8,0,5,80,127,1115649412
5311,18,Jits_Linear_8,1,5,56,103,1115698572
5311,18,Jits_Linear_8,2,5,63,98,1115748796
5311,18,Jits_Linear_8,3,1,48,23,1115765844
5311,18,Jits_Linear_8,0,5,56,103,1116268996
5311,18,Jits_Linear_8,1,5,63,98,1116271988
5311,18,Jits_Linear_8,2,5,80,127,1116319052
5311,18,Jits_Linear_8,3,1,48,27,1116330116
5311,18,Jits_Linear_8,0,1,48,29,1116813452
5311,18,Jits_Linear_8,1,5,56,103,1116848620
5311,18,Jits_Linear_8,2,5,63,98,1116879196
5311,18,Jits_Linear_8,3,5,80,127,1116888568
5311,18,Jits_Linear_8,0,5,63,98,1117318412
5311,18,Jits_Linear_8,1,1,48,24,1117366940
5311,18,Jits_Linear_8,2,5,56,103,1117389136
5311,18,Jits_Linear_8,3,5,80,127,1117439264
5311,18,Jits_Linear_8,0,5,63,98,1117909268
5311,18,Jits_Linear_8,1,5,56,103,1117918788
5311,18,Jits_Linear_8,2,5,80,127,1117921704
5311,18,Jits_Linear_8,3,1,48,29,1117924148
5311,18,Jits_Linear_8,0,5,80,127,1118409008
5311,18,Jits_Linear_8,1,5,56,103,1118468652
5311,18,Jits_Linear_8,2,1,48,26,1118499196
5311,18,Jits_Linear_8,3,5,63,98,1118558432
5311,18,Jits_Linear_8,0,5,80,127,1118958896
5311,18,Jits_Linear_8,1,1,48,29,1119057328
5311,18,Jits_Linear_8,2,5,56,103,1119059216
5311,18,Jits_Linear_8,3,5,63,98,1119099228
5311,18,Jits_Linear_8,0,5,56,103,1119558952
5311,18,Jits_Linear_8,1,5,63,98,1119578468
5311,18,Jits_Linear_8,2,1,48,25,1119600316
5311,18,Jits_Linear_8,3,5,80,127,1119618548
5311,18,Jits_Linear_8,0,5,63,98,1120079248
5311,18,Jits_Linear_8,1,5,56,103,1120098660
5311,18,Jits_Linear_8,2,1,48,21,1120143580
5311,18,Jits_Linear_8,3,5,80,127,1120198976
5311,18,Jits_Linear_8,0,5,63,98,1120608816
5311,18,Jits_Linear_8,1,1,48,25,1120674564
5311,18,Jits_Linear_8,2,5,80,127,1120719252
5311,18,Jits_Linear_8,3,5,56,103,1120749000
5311,18,Jits_Linear_8,0,5,56,103,1121168808
5311,18,Jits_Linear_8,1,5,63,98,1121198636
5311,18,Jits_Linear_8,2,1,48,28,1121214784
5311,18,Jits_Linear_8,3,5,80,127,1121248608
5311,18,Jits_Linear_8,0,5,63,98,1121678688
5311,18,Jits_Linear_8,1,5,56,103,1121709484
5311,18,Jits_Linear_8,2,1,48,26,1121755524
5311,18,Jits_Linear_8,3,5,80,127,1121758780
5311,18,Jits_Linear_8,0,5,56,103,1122249012
5311,18,Jits_Linear_8,1,5,63,98,1122268720
5311,18,Jits_Linear_8,2,1,48,26,1122276100
5311,18,Jits_Linear_8,3,5,80,127,1122349632
5311,18,Jits_Linear_8,0,5,63,98,1122759036
5311,18,Jits_Linear_8,1,5,56,103,1122818536
5311,18,Jits_Linear_8,2,1,48,27,1122839036
5311,18,Jits_Linear_8,3,5,80,127,1122849028
5311,18,Jits_Linear_8,0,5,56,103,1123338876
5311,18,Jits_Linear_8,1,1,48,30,1123341328
5311,18,Jits_Linear_8,2,5,80,127,1123398964
5311,18,Jits_Linear_8,3,5,63,98,1123439212
5311,18,Jits_Linear_8,0,5,63,98,1123848760
5311,18,Jits_Linear_8,1,5,56,103,1123909156
5311,18,Jits_Linear_8,2,1,48,34,1123963464
5311,18,Jits_Linear_8,3,5,80,127,1123978704
5311,18,Jits_Linear_8,0,5,56,103,1124458748
5311,18,Jits_Linear_8,1,5,63,98,1124469168
5311,18,Jits_Linear_8,2,5,80,127,1124472528
5311,18,Jits_Linear_8,3,1,48,27,1124504648
5311,18,Jits_Linear_8,0,5,63,98,1124928816
5311,18,Jits_Linear_8,1,5,56,103,1124989232
5311,18,Jits_Linear_8,2,5,80,127,1124992300
5311,18,Jits_Linear_8,3,1,48,33,1125002540
5311,18,Jits_Linear_8,0,5,63,98,1125438896
5311,18,Jits_Linear_8,1,5,80,127,1125468748
5311,18,Jits_Linear_8,2,5,56,103,1125489132
5311,18,Jits_Linear_8,3,1,48,29,1125531656
5311,18,Jits_Linear_8,0,5,56,103,1125969136
5311,18,Jits_Linear_8,1,5,63,98,1126018668
5311,18,Jits_Linear_8,2,1,48,35,1126038724
5311,18,Jits_Linear_8,3,5,80,127,1126099280
5311,18,Jits_Linear_8,0,5,80,127,1126469104
5311,18,Jits_Linear_8,1,1,48,32,1126502216
5311,18,Jits_Linear_8,2,5,63,98,1126508916
5311,18,Jits_Linear_8,3,5,56,103,1126529524
5311,18,Jits_Linear_8,0,1,48,35,1127012684
5311,18,Jits_Linear_8,1,5,56,103,1127058720
5311,18,Jits_Linear_8,2,5,80,127,1127069064
5311,18,Jits_Linear_8,3,5,63,98,1127088776
5311,18,Jits_Linear_8,0,1,48,26,1127545624
5311,18,Jits_Linear_8,1,5,56,103,1127558624
5311,18,Jits_Linear_8,2,5,63,98,1127608680
5311,18,Jits_Linear_8,3,5,80,127,1127639536
5311,18,Jits_Linear_8,0,5,56,103,1128028716
5311,18,Jits_Linear_8,1,5,63,98,1128038764
5311,18,Jits_Linear_8,2,1,48,31,1128060460
5311,18,Jits_Linear_8,3,5,80,127,1128088880
5311,18,Jits_Linear_8,0,5,56,103,1128538660
5311,18,Jits_Linear_8,1,5,80,127,1128541800
5311,18,Jits_Linear_8,2,1,48,30,1128577076
5311,18,Jits_Linear_8,3,5,63,98,1128699340
5311,18,Jits_Linear_8,0,5,63,98,1129068908
5311,18,Jits_Linear_8,1,5,56,103,1129138592
5311,18,Jits_Linear_8,2,1,48,33,1129162384
5311,18,Jits_Linear_8,3,5,80,127,1129178524
5311,18,Jits_Linear_8,0,5,63,98,1129618788
5311,18,Jits_Linear_8,1,1,48,27,1129672176
5311,18,Jits_Linear_8,2,5,56,103,1129708988
5311,18,Jits_Linear_8,3,5,80,127,1129711980
5311,18,Jits_Linear_8,0,5,56,103,1130109472
5311,18,Jits_Linear_8,1,5,63,98,1130199532
5311,18,Jits_Linear_8,2,5,80,127,1130208684
5311,18,Jits_Linear_8,3,1,48,27,1130253600
5311,18,Jits_Linear_8,0,5,56,103,1130588564
5311,18,Jits_Linear_8,1,5,63,98,1130638692
5311,18,Jits_Linear_8,2,5,80,127,1130669564
5311,18,Jits_Linear_8,3,1,48,28,1130690668
5311,18,Jits_Linear_8,0,5,63,98,1131169168
5311,18,Jits_Linear_8,1,1,48,24,1131170580
5311,18,Jits_Linear_8,2,5,80,127,1131179584
5311,18,Jits_Linear_8,3,5,56,103,1131238628
5311,18,Jits_Linear_8,0,5,63,98,1131589032
5311,18,Jits_Linear_8,1,5,80,127,1131649528
5311,18,Jits_Linear_8,2,5,56,103,1131689612
5311,18,Jits_Linear_8,3,1,48,27,1131727056
5311,18,Jits_Linear_8,0,5,56,103,1132188984
5311,18,Jits_Linear_8,1,1,48,30,1132192400
5311,18,Jits_Linear_8,2,5,80,127,1132208540
5311,18,Jits_Linear_8,3,5,63,98,1132228924
5311,18,Jits_Linear_8,0,5,63,98,1132608940
5311,18,Jits_Linear_8,1,5,56,103,1132629572
5311,18,Jits_Linear_8,2,5,80,127,1132669364
5311,18,Jits_Linear_8,3,1,48,30,1132721776
5311,18,Jits_Linear_8,0,5,63,98,1133118804
5311,18,Jits_Linear_8,1,5,80,127,1133148656
5311,18,Jits_Linear_8,2,5,56,103,1133168964
5311,18,Jits_Linear_8,3,1,48,28,1133191860
5311,18,Jits_Linear_8,0,5,80,127,1133588812
5311,18,Jits_Linear_8,1,5,56,103,1133639016
5311,18,Jits_Linear_8,2,1,48,25,1133657152
5311,18,Jits_Linear_8,3,5,63,98,1133698376
5311,18,Jits_Linear_8,0,5,63,98,1134069020
5311,18,Jits_Linear_8,1,5,56,103,1134188848
5311,18,Jits_Linear_8,2,1,48,19,1134195552
5311,18,Jits_Linear_8,3,5,80,127,1134218592
5311,18,Jits_Linear_8,0,5,80,127,1134598520
5311,18,Jits_Linear_8,1,5,63,98,1134618904
5311,18,Jits_Linear_8,2,1,48,17,1134677344
5311,18,Jits_Linear_8,3,5,56,103,1134688676
5311,18,Jits_Linear_8,0,5,63,98,1135108624
5311,18,Jits_Linear_8,1,5,56,103,1135118744
5311,18,Jits_Linear_8,2,1,48,23,1135177532
5311,18,Jits_Linear_8,3,5,80,127,1135198704
5311,18,Jits_Linear_8,0,1,48,16,1135641312
5311,18,Jits_Linear_8,1,5,56,103,1135659472
5311,18,Jits_Linear_8,2,5,80,127,1135689296
5311,18,Jits_Linear_8,3,5,63,98,1135699664
5311,18,Jits_Linear_8,0,9999,9999,9999,1025326176
5311,18,Jits_Linear_8,1,9999,9999,9999,1026146412
5311,18,Jits_Linear_8,2,9999,9999,9999,1026966616
5311,18,Jits_Linear_8,3,9999,9999,9999,1027786820
5311,18,Jits_Linear_8,4,9999,9999,9999,1028607032
5311,18,Jits_Linear_8,5,9999,9999,9999,1029417052
5311,18,Jits_Linear_8,6,9999,9999,9999,1030227064
5311,18,Jits_Linear_8,7,9999,9999,9999,1031037044
5311,18,Jits_Linear_8,8,9999,9999,9999,1031846992
5311,18,Jits_Linear_8,9,9999,9999,9999,1032656996
5311,18,Jits_Linear_8,10,9999,9999,9999,1033456700
5311,18,Jits_Linear_8,11,9999,9999,9999,1034256452
5311,18,Jits_Linear_8,12,9999,9999,9999,1035056224
5311,18,Jits_Linear_8,13,9999,9999,9999,1035856960
5311,18,Jits_Linear_8,14,9999,9999,9999,1036656720
5311,18,Jits_Linear_8,15,9999,9999,9999,1037446216
5311,18,Jits_Linear_8,16,9999,9999,9999,1038236736
5311,18,Jits_Linear_8,17,9999,9999,9999,1039026248
5311,18,Jits_Linear_8,18,9999,9999,9999,1039816788
5311,18,Jits_Linear_8,19,9999,9999,9999,1040606292
5311,18,Jits_Linear_8,20,9999,9999,9999,1041386568
5311,18,Jits_Linear_8,21,9999,9999,9999,1042166912
5311,18,Jits_Linear_8,22,9999,9999,9999,1042946144
5311,18,Jits_Linear_8,23,9999,9999,9999,1043726416
5311,18,Jits_Linear_8,24,9999,9999,9999,1044506688
5311,18,Jits_Linear_8,25,9999,9999,9999,1045276768
5311,18,Jits_Linear_8,26,9999,9999,9999,1046046784
5311,18,Jits_Linear_8,27,9999,9999,9999,1046816868
5311,18,Jits_Linear_8,28,9999,9999,9999,1047586892
5311,18,Jits_Linear_8,29,9999,9999,9999,1048356984
5311,18,Jits_Linear_8,30,9999,9999,9999,1049116784
5311,18,Jits_Linear_8,31,9999,9999,9999,1049876600
5311,18,Jits_Linear_8,32,9999,9999,9999,1050636356
5311,18,Jits_Linear_8,33,9999,9999,9999,1051396180
5311,18,Jits_Linear_8,34,9999,9999,9999,1052156984
5311,18,Jits_Linear_8,35,9999,9999,9999,1052906548
5311,18,Jits_Linear_8,36,9999,9999,9999,1053656188
5311,18,Jits_Linear_8,37,9999,9999,9999,1054406732
5311,18,Jits_Linear_8,38,9999,9999,9999,1055156300
5311,18,Jits_Linear_8,39,9999,9999,9999,1055906924
5311,18,Jits_Linear_8,40,9999,9999,9999,1056646208
5311,18,Jits_Linear_8,41,9999,9999,9999,1057386568
5311,18,Jits_Linear_8,42,9999,9999,9999,1058126952
5311,18,Jits_Linear_8,43,9999,9999,9999,1058866244
5311,18,Jits_Linear_8,44,9999,9999,9999,1059606640
5311,18,Jits_Linear_8,45,9999,9999,9999,1060336724
5311,18,Jits_Linear_8,46,9999,9999,9999,1061066876
5311,18,Jits_Linear_8,47,9999,9999,9999,1061796960
5311,18,Jits_Linear_8,48,9999,9999,9999,1062527052
5311,18,Jits_Linear_8,49,9999,9999,9999,1063256168
5311,18,Jits_Linear_8,50,9999,9999,9999,1063977076
5311,18,Jits_Linear_8,51,9999,9999,9999,1064696908
5311,18,Jits_Linear_8,52,9999,9999,9999,1065416816
5311,18,Jits_Linear_8,53,9999,9999,9999,1066136636
5311,18,Jits_Linear_8,54,9999,9999,9999,1066856520
5311,18,Jits_Linear_8,55,9999,9999,9999,1067566136
5311,18,Jits_Linear_8,56,9999,9999,9999,1068276804
5311,18,Jits_Linear_8,57,9999,9999,9999,1068986444
5311,18,Jits_Linear_8,58,9999,9999,9999,1069696084
5311,18,Jits_Linear_8,59,9999,9999,9999,1070406748
5311,18,Jits_Linear_8,60,9999,9999,9999,1071106120
5311,18,Jits_Linear_8,61,9999,9999,9999,1071806548
5311,18,Jits_Linear_8,62,9999,9999,9999,1072506972
5311,18,Jits_Linear_8,63,9999,9999,9999,1073206376
5311,18,Jits_Linear_8,64,9999,9999,9999,1073906792
5311,18,Jits_Linear_8,65,9999,9999,9999,1074596944
5311,18,Jits_Linear_8,66,9999,9999,9999,1075286136
5311,18,Jits_Linear_8,67,9999,9999,9999,1075976264
5311,18,Jits_Linear_8,68,9999,9999,9999,1076666468
5311,18,Jits_Linear_8,69,9999,9999,9999,1077356632
5311,18,Jits_Linear_8,70,9999,9999,9999,1078036576
5311,18,Jits_Linear_8,71,9999,9999,9999,1078716540
5311,18,Jits_Linear_8,72,9999,9999,9999,1079396436
5311,18,Jits_Linear_8,73,9999,9999,9999,1080076384
5311,18,Jits_Linear_8,74,9999,9999,9999,1080756292
5311,18,Jits_Linear_8,75,9999,9999,9999,1081427008
5311,18,Jits_Linear_8,76,9999,9999,9999,1082096716
5311,18,Jits_Linear_8,77,9999,9999,9999,1082766424
5311,18,Jits_Linear_8,78,9999,9999,9999,1083436148
5311,18,Jits_Linear_8,79,9999,9999,9999,1084106828
5311,18,Jits_Linear_8,80,9999,9999,9999,1084766264
5311,18,Jits_Linear_8,81,9999,9999,9999,1085426788
5311,18,Jits_Linear_8,82,9999,9999,9999,1086086220
5311,18,Jits_Linear_8,83,9999,9999,9999,1086746744
5311,18,Jits_Linear_8,84,9999,9999,9999,1087406160
5311,18,Jits_Linear_8,85,9999,9999,9999,1088056428
5311,18,Jits_Linear_8,86,9999,9999,9999,1088706656
5311,18,Jits_Linear_8,87,9999,9999,9999,1089356920
5311,18,Jits_Linear_8,88,9999,9999,9999,1090006076
5311,18,Jits_Linear_8,89,9999,9999,9999,1090656372
5311,18,Jits_Linear_8,90,9999,9999,9999,1091296384
5311,18,Jits_Linear_8,91,9999,9999,9999,1091936328
5311,18,Jits_Linear_8,92,9999,9999,9999,1092576344
5311,18,Jits_Linear_8,93,9999,9999,9999,1093216364
5311,18,Jits_Linear_8,94,9999,9999,9999,1093856364
5311,18,Jits_Linear_8,95,9999,9999,9999,1094486124
5311,18,Jits_Linear_8,96,9999,9999,9999,1095116924
5311,18,Jits_Linear_8,97,9999,9999,9999,1095746660
5311,18,Jits_Linear_8,98,9999,9999,9999,1096376440
5311,18,Jits_Linear_8,99,9999,9999,9999,1097006184
5311,18,Jits_Linear_8,100,9999,9999,9999,1097626736
5311,18,Jits_Linear_8,101,9999,9999,9999,1098246208
5311,18,Jits_Linear_8,102,9999,9999,9999,1098866764
5311,18,Jits_Linear_8,103,9999,9999,9999,1099486308
5311,18,Jits_Linear_8,104,9999,9999,9999,1100106844
5311,18,Jits_Linear_8,105,9999,9999,9999,1100716160
5311,18,Jits_Linear_8,106,9999,9999,9999,1101326412
5311,18,Jits_Linear_8,107,9999,9999,9999,1101936748
5311,18,Jits_Linear_8,108,9999,9999,9999,1102547008
5311,18,Jits_Linear_8,109,9999,9999,9999,1103156288
5311,18,Jits_Linear_8,110,9999,9999,9999,1103756400
5311,18,Jits_Linear_8,111,9999,9999,9999,1104356472
5311,18,Jits_Linear_8,112,9999,9999,9999,1104956476
5311,18,Jits_Linear_8,113,9999,9999,9999,1105556564
5311,18,Jits_Linear_8,114,9999,9999,9999,1106156640
5311,18,Jits_Linear_8,115,9999,9999,9999,1106746444
5311,18,Jits_Linear_8,116,9999,9999,9999,1107336296
5311,18,Jits_Linear_8,117,9999,9999,9999,1107926124
5311,18,Jits_Linear_8,118,9999,9999,9999,1108516976
5311,18,Jits_Linear_8,119,9999,9999,9999,1109106812
5311,18,Jits_Linear_8,120,9999,9999,9999,1109686368
5311,18,Jits_Linear_8,121,9999,9999,9999,1110266960
5311,18,Jits_Linear_8,122,9999,9999,9999,1110846572
5311,18,Jits_Linear_8,123,9999,9999,9999,1111426132
5311,18,Jits_Linear_8,124,9999,9999,9999,1112006728
5311,18,Jits_Linear_8,125,9999,9999,9999,1112576088
5311,18,Jits_Linear_8,126,9999,9999,9999,1113146496
5311,18,Jits_Linear_8,127,9999,9999,9999,1113716852
5311,18,Jits_Linear_8,128,9999,9999,9999,1114286136
5311,18,Jits_Linear_8,129,9999,9999,9999,1114856540
5311,18,Jits_Linear_8,130,9999,9999,9999,1115416700
5311,18,Jits_Linear_8,131,9999,9999,9999,1115976780
5311,18,Jits_Linear_8,132,9999,9999,9999,1116536944
5311,18,Jits_Linear_8,133,9999,9999,9999,1117097028
5311,18,Jits_Linear_8,134,9999,9999,9999,1117656188
5311,18,Jits_Linear_8,135,9999,9999,9999,1118207100
5311,18,Jits_Linear_8,136,9999,9999,9999,1118756976
5311,18,Jits_Linear_8,137,9999,9999,9999,1119306840
5311,18,Jits_Linear_8,138,9999,9999,9999,1119856748
5311,18,Jits_Linear_8,139,9999,9999,9999,1120406612
5311,18,Jits_Linear_8,140,9999,9999,9999,1120946300
5311,18,Jits_Linear_8,141,9999,9999,9999,1121486956
5311,18,Jits_Linear_8,142,9999,9999,9999,1122026576
5311,18,Jits_Linear_8,143,9999,9999,9999,1122566260
5311,18,Jits_Linear_8,144,9999,9999,9999,1123106928
5311,18,Jits_Linear_8,145,9999,9999,9999,1123636280
5311,18,Jits_Linear_8,146,9999,9999,9999,1124166764
5311,18,Jits_Linear_8,147,9999,9999,9999,1124696124
5311,18,Jits_Linear_8,148,9999,9999,9999,1125226604
5311,18,Jits_Linear_8,149,9999,9999,9999,1125756992
5311,18,Jits_Linear_8,150,9999,9999,9999,1126276200
5311,18,Jits_Linear_8,151,9999,9999,9999,1126796344
5311,18,Jits_Linear_8,152,9999,9999,9999,1127316568
5311,18,Jits_Linear_8,153,9999,9999,9999,1127836776
5311,18,Jits_Linear_8,154,9999,9999,9999,1128356972
5311,18,Jits_Linear_8,155,9999,9999,9999,1128866916
5311,18,Jits_Linear_8,156,9999,9999,9999,1129376872
5311,18,Jits_Linear_8,157,9999,9999,9999,1129886812
5311,18,Jits_Linear_8,158,9999,9999,9999,1130396760
5311,18,Jits_Linear_8,159,9999,9999,9999,1130906712
5311,18,Jits_Linear_8,160,9999,9999,9999,1131406408
5311,18,Jits_Linear_8,161,9999,9999,9999,1131906160
5311,18,Jits_Linear_8,162,9999,9999,9999,1132406896
5311,18,Jits_Linear_8,163,9999,9999,9999,1132906588
5311,18,Jits_Linear_8,164,9999,9999,9999,1133406264
5311,18,Jits_Linear_8,165,9999,9999,9999,1133896776
5311,18,Jits_Linear_8,166,9999,9999,9999,1134386272
5311,18,Jits_Linear_8,167,9999,9999,9999,1134876736
5311,18,Jits_Linear_8,168,9999,9999,9999,1135366240
5311,18,Jits_Linear_8,169,9999,9999,9999,1135856716
5312,16,Jits_ISO_5,0,5,56,103,1145768320
5312,16,Jits_ISO_5,1,5,63,98,1145771268
5312,16,Jits_ISO_5,2,5,80,127,1145774464
5312,16,Jits_ISO_5,0,5,56,103,1146268116
5312,16,Jits_ISO_5,1,5,63,98,1146271292
5312,16,Jits_ISO_5,2,5,80,127,1146274484
5312,16,Jits_ISO_5,3,1,48,17,1146485896
5312,16,Jits_ISO_5,0,5,56,103,1146767788
5312,16,Jits_ISO_5,1,5,80,127,1146778056
5312,16,Jits_ISO_5,2,5,63,98,1146797396
5312,16,Jits_ISO_5,3,1,48,22,1146804996
5312,16,Jits_ISO_5,0,5,63,98,1147218316
5312,16,Jits_ISO_5,1,5,80,127,1147248216
5312,16,Jits_ISO_5,2,5,56,103,1147258188
5312,16,Jits_ISO_5,3,1,48,25,1147289772
5312,16,Jits_ISO_5,0,1,48,27,1147739588
5312,16,Jits_ISO_5,1,5,80,127,1147778348
5312,16,Jits_ISO_5,2,5,56,103,1147787720
5312,16,Jits_ISO_5,3,5,63,98,1147818292
5312,16,Jits_ISO_5,0,5,63,98,1148267976
5312,16,Jits_ISO_5,1,1,48,28,1148284868
5312,16,Jits_ISO_5,2,5,56,103,1148297648
5312,16,Jits_ISO_5,3,5,80,127,1148308064
5312,16,Jits_ISO_5,0,5,56,103,1148717420
5312,16,Jits_ISO_5,1,5,63,98,1148767496
5312,16,Jits_ISO_5,2,5,80,127,1148788028
5312,16,Jits_ISO_5,3,1,48,29,1148805152
5312,16,Jits_ISO_5,0,5,80,127,1149218140
5312,16,Jits_ISO_5,1,1,48,33,1149238792
5312,16,Jits_ISO_5,2,5,63,98,1149268208
5312,16,Jits_ISO_5,3,5,56,103,1149308220
5312,16,Jits_ISO_5,0,5,56,103,1149717952
5312,16,Jits_ISO_5,1,5,63,98,1149747556
5312,16,Jits_ISO_5,2,1,48,27,1149750376
5312,16,Jits_ISO_5,3,5,80,127,1149818296
5312,16,Jits_ISO_5,0,5,56,103,1150217628
5312,16,Jits_ISO_5,1,1,48,25,1150236260
5312,16,Jits_ISO_5,2,5,80,127,1150277936
5312,16,Jits_ISO_5,3,5,63,98,1150307784
5312,16,Jits_ISO_5,0,5,56,103,1150727568
5312,16,Jits_ISO_5,1,5,63,98,1150737912
5312,16,Jits_ISO_5,2,1,48,28,1150777476
5312,16,Jits_ISO_5,3,5,80,127,1150779108
5312,16,Jits_ISO_5,0,5,63,98,1151217948
5312,16,Jits_ISO_5,1,1,48,26,1151250584
5312,16,Jits_ISO_5,2,5,80,127,1151297884
5312,16,Jits_ISO_5,3,5,56,103,1151308228
5312,16,Jits_ISO_5,0,1,48,24,1151747020
5312,16,Jits_ISO_5,1,5,63,98,1151768024
5312,16,Jits_ISO_5,2,5,56,103,1151808032
5312,16,Jits_ISO_5,3,5,80,127,1151811248
5312,16,Jits_ISO_5,0,5,56,103,1152227824
5312,16,Jits_ISO_5,1,5,63,98,1152238096
5312,16,Jits_ISO_5,2,5,80,127,1152277956
5312,16,Jits_ISO_5,3,1,48,27,1152288644
5312,16,Jits_ISO_5,0,5,56,103,1152718276
5312,16,Jits_ISO_5,1,5,63,98,1152721120
5312,16,Jits_ISO_5,2,5,80,127,1152737616
5312,16,Jits_ISO_5,3,1,48,22,1152758044
5312,16,Jits_ISO_5,0,1,48,28,1153213248
5312,16,Jits_ISO_5,1,5,80,127,1153228192
5312,16,Jits_ISO_5,2,5,56,103,1153238388
5312,16,Jits_ISO_5,3,5,63,98,1153307976
5312,16,Jits_ISO_5,0,5,63,98,1153717816
5312,16,Jits_ISO_5,1,1,48,29,1153735760
5312,16,Jits_ISO_5,2,5,56,103,1153738048
5312,16,Jits_ISO_5,3,5,80,127,1153818060
5312,16,Jits_ISO_5,0,5,56,103,1154227664
5312,16,Jits_ISO_5,1,1,48,27,1154250860
5312,16,Jits_ISO_5,2,5,80,127,1154267592
5312,16,Jits_ISO_5,3,5,63,98,1154277716
5312,16,Jits_ISO_5,0,5,80,127,1154718040
5312,16,Jits_ISO_5,1,1,48,27,1154738844
5312,16,Jits_ISO_5,2,5,63,98,1154747932
5312,16,Jits_ISO_5,3,5,56,103,1154787796
5312,16,Jits_ISO_5,0,5,56,103,1155238240
5312,16,Jits_ISO_5,1,1,48,27,1155259864
5312,16,Jits_ISO_5,2,5,63,98,1155268056
5312,16,Jits_ISO_5,3,5,80,127,1155318032
5312,16,Jits_ISO_5,0,5,80,127,1155737840
5312,16,Jits_ISO_5,1,5,56,103,1155777928
5312,16,Jits_ISO_5,2,5,63,98,1155788120
5312,16,Jits_ISO_5,3,1,48,29,1155795948
5312,16,Jits_ISO_5,0,5,80,127,1156218180
5312,16,Jits_ISO_5,1,5,63,98,1156258264
5312,16,Jits_ISO_5,2,1,48,34,1156294792
5312,16,Jits_ISO_5,3,5,56,103,1156317676
5312,16,Jits_ISO_5,0,5,56,103,1156717928
5312,16,Jits_ISO_5,1,5,80,127,1156728272
5312,16,Jits_ISO_5,2,1,48,28,1156759564
5312,16,Jits_ISO_5,3,5,63,98,1156807908
5312,16,Jits_ISO_5,0,5,80,127,1157217748
5312,16,Jits_ISO_5,1,1,48,29,1157245208
5312,16,Jits_ISO_5,2,5,63,98,1157278056
5312,16,Jits_ISO_5,3,5,56,103,1157307880
5312,16,Jits_ISO_5,0,5,56,103,1157718244
5312,16,Jits_ISO_5,1,1,48,32,1157744656
5312,16,Jits_ISO_5,2,5,80,127,1157777876
5312,16,Jits_ISO_5,3,5,63,98,1157817964
5312,16,Jits_ISO_5,0,1,48,31,1158253764
5312,16,Jits_ISO_5,1,5,56,103,1158277400
5312,16,Jits_ISO_5,2,5,63,98,1158287888
5312,16,Jits_ISO_5,3,5,80,127,1158291104
5312,16,Jits_ISO_5,0,5,80,127,1158728104
5312,16,Jits_ISO_5,1,1,48,24,1158801368
5312,16,Jits_ISO_5,2,5,63,98,1158818104
5312,16,Jits_ISO_5,3,5,56,103,1158828524
5312,16,Jits_ISO_5,0,5,56,103,1159227760
5312,16,Jits_ISO_5,1,5,63,98,1159230780
5312,16,Jits_ISO_5,2,5,80,127,1159233980
5312,16,Jits_ISO_5,3,1,48,24,1159310844
5312,16,Jits_ISO_5,0,5,80,127,1159748100
5312,16,Jits_ISO_5,1,1,48,22,1159775056
5312,16,Jits_ISO_5,2,5,63,98,1159798172
5312,16,Jits_ISO_5,3,5,56,103,1159827844
5312,16,Jits_ISO_5,0,5,56,103,1160228072
5312,16,Jits_ISO_5,1,5,80,127,1160237296
5312,16,Jits_ISO_5,2,1,48,23,1160278568
5312,16,Jits_ISO_5,3,5,63,98,1160308036
5312,16,Jits_ISO_5,0,5,56,103,1160738080
5312,16,Jits_ISO_5,1,5,63,98,1160757788
5312,16,Jits_ISO_5,2,1,48,18,1160804676
5312,16,Jits_ISO_5,3,5,80,127,1160818196
5312,16,Jits_ISO_5,0,5,80,127,1161227712
5312,16,Jits_ISO_5,1,1,48,29,1161281924
5312,16,Jits_ISO_5,2,5,63,98,1161298160
5312,16,Jits_ISO_5,3,5,56,103,1161317720
5312,16,Jits_ISO_5,0,5,80,127,1161747764
5312,16,Jits_ISO_5,1,5,56,103,1161758180
5312,16,Jits_ISO_5,2,5,63,98,1161768228
5312,16,Jits_ISO_5,3,1,48,25,1161802208
5312,16,Jits_ISO_5,0,5,80,127,1162238292
5312,16,Jits_ISO_5,1,5,56,103,1162257704
5312,16,Jits_ISO_5,2,1,48,25,1162278652
5312,16,Jits_ISO_5,3,5,63,98,1162328520
5312,16,Jits_ISO_5,0,1,48,26,1162716212
5312,16,Jits_ISO_5,1,5,56,103,1162748372
5312,16,Jits_ISO_5,2,5,80,127,1162777972
5312,16,Jits_ISO_5,3,5,63,98,1162797536
5312,16,Jits_ISO_5,0,5,63,98,1163237628
5312,16,Jits_ISO_5,1,1,48,29,1163238592
5312,16,Jits_ISO_5,2,5,56,103,1163298232
5312,16,Jits_ISO_5,3,5,80,127,1163327980
5312,16,Jits_ISO_5,0,5,63,98,1163728140
5312,16,Jits_ISO_5,1,5,80,127,1163731584
5312,16,Jits_ISO_5,2,1,48,22,1163810520
5312,16,Jits_ISO_5,3,5,56,103,1163818492
5312,16,Jits_ISO_5,0,5,56,103,1164248468
5312,16,Jits_ISO_5,1,1,48,21,1164272788
5312,16,Jits_ISO_5,2,5,63,98,1164278212
5312,16,Jits_ISO_5,3,5,80,127,1164317924
5312,16,Jits_ISO_5,0,5,63,98,1164748140
5312,16,Jits_ISO_5,1,5,56,103,1164788228
5312,16,Jits_ISO_5,2,1,48,31,1164807416
5312,16,Jits_ISO_5,3,5,80,127,1164808752
5312,16,Jits_ISO_5,0,5,63,98,1165258140
5312,16,Jits_ISO_5,1,1,48,23,1165290028
5312,16,Jits_ISO_5,2,5,56,103,1165298000
5312,16,Jits_ISO_5,3,5,80,127,1165308268
5312,16,Jits_ISO_5,0,5,80,127,1165747536
5312,16,Jits_ISO_5,1,1,48,24,1165796512
5312,16,Jits_ISO_5,2,5,63,98,1165818184
5312,16,Jits_ISO_5,3,5,56,103,1165837668
5312,16,Jits_ISO_5,0,5,56,103,1166237996
5312,16,Jits_ISO_5,1,5,80,127,1166257480
5312,16,Jits_ISO_5,2,5,63,98,1166297420
5312,16,Jits_ISO_5,3,1,48,21,1166310948
5312,16,Jits_ISO_5,0,5,63,98,1166747928
5312,16,Jits_ISO_5,1,5,80,127,1166767712
5312,16,Jits_ISO_5,2,1,48,18,1166770080
5312,16,Jits_ISO_5,3,5,56,103,1166808688
5312,16,Jits_ISO_5,0,5,63,98,1167247584
5312,16,Jits_ISO_5,1,5,56,103,1167268268
5312,16,Jits_ISO_5,2,1,48,26,1167270860
5312,16,Jits_ISO_5,3,5,80,127,1167277708
5312,16,Jits_ISO_5,0,1,48,34,1167745344
5312,16,Jits_ISO_5,1,5,80,127,1167747460
5312,16,Jits_ISO_5,2,5,56,103,1167767844
5312,16,Jits_ISO_5,3,5,63,98,1167797592
5312,16,Jits_ISO_5,0,1,48,25,1168242736
5312,16,Jits_ISO_5,1,5,56,103,1168317680
5312,16,Jits_ISO_5,2,5,80,127,1168320680
5312,16,Jits_ISO_5,3,5,63,98,1168338428
5312,16,Jits_ISO_5,0,5,63,98,1168737784
5312,16,Jits_ISO_5,1,5,56,103,1168768504
5312,16,Jits_ISO_5,2,1,48,30,1168778744
5312,16,Jits_ISO_5,3,5,80,127,1168827764
5312,16,Jits_ISO_5,0,1,48,25,1169271564
5312,16,Jits_ISO_5,1,5,63,98,1169318200
5312,16,Jits_ISO_5,2,5,56,103,1169327572
5312,16,Jits_ISO_5,3,5,80,127,1169337840
5312,16,Jits_ISO_5,0,5,56,103,1169778160
5312,16,Jits_ISO_5,1,5,80,127,1169807688
5312,16,Jits_ISO_5,2,5,63,98,1169818032
5312,16,Jits_ISO_5,3,1,48,24,1169847900
5312,16,Jits_ISO_5,0,1,48,27,1170312112
5312,16,Jits_ISO_5,1,5,63,98,1170317616
5312,16,Jits_ISO_5,2,5,56,103,1170327812
5312,16,Jits_ISO_5,3,5,80,127,1170348492
5312,16,Jits_ISO_5,0,5,56,103,1170747808
5312,16,Jits_ISO_5,1,5,63,98,1170808068
5312,16,Jits_ISO_5,2,1,48,27,1170809048
5312,16,Jits_ISO_5,3,5,80,127,1170812772
5312,16,Jits_ISO_5,0,5,80,127,1171267996
5312,16,Jits_ISO_5,1,5,56,103,1171278416
5312,16,Jits_ISO_5,2,1,48,24,1171300644
5312,16,Jits_ISO_5,3,5,63,98,1171347716
5312,16,Jits_ISO_5,0,5,80,127,1171757384
5312,16,Jits_ISO_5,1,5,56,103,1171828284
5312,16,Jits_ISO_5,2,1,48,30,1171832376
5312,16,Jits_ISO_5,3,5,63,98,1171838324
5312,16,Jits_ISO_5,0,5,63,98,1172297964
5312,16,Jits_ISO_5,1,1,48,29,1172302132
5312,16,Jits_ISO_5,2,5,56,103,1172308600
5312,16,Jits_ISO_5,3,5,80,127,1172327788
5312,16,Jits_ISO_5,0,5,80,127,1172747628
5312,16,Jits_ISO_5,1,1,48,25,1172758620
5312,16,Jits_ISO_5,2,5,63,98,1172808012
5312,16,Jits_ISO_5,3,5,56,103,1172847900
5312,16,Jits_ISO_5,0,5,56,103,1173288360
5312,16,Jits_ISO_5,1,1,48,27,1173290876
5312,16,Jits_ISO_5,2,5,63,98,1173297576
5312,16,Jits_ISO_5,3,5,80,127,1173337612
5312,16,Jits_ISO_5,0,5,56,103,1173748100
5312,16,Jits_ISO_5,1,1,48,27,1173767028
5312,16,Jits_ISO_5,2,5,80,127,1173777768
5312,16,Jits_ISO_5,3,5,63,98,1173827892
5312,16,Jits_ISO_5,0,1,48,26,1174261444
5312,16,Jits_ISO_5,1,5,56,103,1174287772
5312,16,Jits_ISO_5,2,5,63,98,1174327636
5312,16,Jits_ISO_5,3,5,80,127,1174331000
5312,16,Jits_ISO_5,0,1,48,21,1174784024
5312,16,Jits_ISO_5,1,5,56,103,1174787652
5312,16,Jits_ISO_5,2,5,63,98,1174797776
5312,16,Jits_ISO_5,3,5,80,127,1174818380
5312,16,Jits_ISO_5,0,5,56,103,1175248508
5312,16,Jits_ISO_5,1,5,80,127,1175251492
5312,16,Jits_ISO_5,2,1,48,25,1175281212
5312,16,Jits_ISO_5,3,5,63,98,1175288356
5312,16,Jits_ISO_5,0,1,48,27,1175762884
5312,16,Jits_ISO_5,1,5,63,98,1175787940
5312,16,Jits_ISO_5,2,5,56,103,1175817692
5312,16,Jits_ISO_5,3,5,80,127,1175838000
5312,16,Jits_ISO_5,0,1,48,20,1176234744
5312,16,Jits_ISO_5,1,5,80,127,1176257856
5312,16,Jits_ISO_5,2,5,56,103,1176268128
5312,16,Jits_ISO_5,3,5,63,98,1176278472
5312,16,Jits_ISO_5,0,1,48,20,1176748944
5312,16,Jits_ISO_5,1,5,56,103,1176757588
5312,16,Jits_ISO_5,2,5,80,127,1176797528
5312,16,Jits_ISO_5,3,5,63,98,1176828468
5312,16,Jits_ISO_5,0,1,48,26,1177230316
5312,16,Jits_ISO_5,1,5,63,98,1177277772
5312,16,Jits_ISO_5,2,5,80,127,1177287968
5312,16,Jits_ISO_5,3,5,56,103,1177298312
5312,16,Jits_ISO_5,0,5,56,103,1177758028
5312,16,Jits_ISO_5,1,1,48,21,1177766768
5312,16,Jits_ISO_5,2,5,63,98,1177827556
5312,16,Jits_ISO_5,3,5,80,127,1177838048
5312,16,Jits_ISO_5,0,5,80,127,1178257704
5312,16,Jits_ISO_5,1,5,56,103,1178268196
5312,16,Jits_ISO_5,2,1,48,24,1178287728
5312,16,Jits_ISO_5,3,5,63,98,1178318388
5312,16,Jits_ISO_5,0,1,48,32,1178751416
5312,16,Jits_ISO_5,1,5,80,127,1178767776
5312,16,Jits_ISO_5,2,5,56,103,1178828392
5312,16,Jits_ISO_5,3,5,63,98,1178857828
5312,16,Jits_ISO_5,0,5,56,103,1179267520
5312,16,Jits_ISO_5,1,5,80,127,1179270436
5312,16,Jits_ISO_5,2,1,48,36,1179274452
5312,16,Jits_ISO_5,3,5,63,98,1179308348
5312,16,Jits_ISO_5,0,1,48,31,1179792764
5312,16,Jits_ISO_5,1,5,56,103,1179797744
5312,16,Jits_ISO_5,2,5,63,98,1179827568
5312,16,Jits_ISO_5,3,5,80,127,1179837764
5312,16,Jits_ISO_5,0,1,48,28,1180302088
5312,16,Jits_ISO_5,1,5,63,98,1180307816
5312,16,Jits_ISO_5,2,5,80,127,1180318308
5312,16,Jits_ISO_5,3,5,56,103,1180328428
5312,16,Jits_ISO_5,0,5,80,127,1180758480
5312,16,Jits_ISO_5,1,1,48,32,1180783320
5312,16,Jits_ISO_5,2,5,56,103,1180807400
5312,16,Jits_ISO_5,3,5,63,98,1180810548
5312,16,Jits_ISO_5,0,1,48,25,1181273684
5312,16,Jits_ISO_5,1,5,56,103,1181298072
5312,16,Jits_ISO_5,2,5,80,127,1181317408
5312,16,Jits_ISO_5,3,5,63,98,1181327676
5312,16,Jits_ISO_5,0,5,63,98,1181778180
5312,16,Jits_ISO_5,1,5,56,103,1181807856
5312,16,Jits_ISO_5,2,1,48,33,1181813588
5312,16,Jits_ISO_5,3,5,80,127,1181827408
5312,16,Jits_ISO_5,0,5,56,103,1182288172
5312,16,Jits_ISO_5,1,5,80,127,1182297396
5312,16,Jits_ISO_5,2,1,48,37,1182332720
5312,16,Jits_ISO_5,3,5,63,98,1182368112
5312,16,Jits_ISO_5,0,5,63,98,1182777704
5312,16,Jits_ISO_5,1,1,48,37,1182806476
5312,16,Jits_ISO_5,2,5,80,127,1182817588
5312,16,Jits_ISO_5,3,5,56,103,1182857524
5312,16,Jits_ISO_5,0,5,56,103,1183287552
5312,16,Jits_ISO_5,1,5,63,98,1183298044
5312,16,Jits_ISO_5,2,1,48,24,1183306940
5312,16,Jits_ISO_5,3,5,80,127,1183318372
5312,16,Jits_ISO_5,0,1,48,32,1183787640
5312,16,Jits_ISO_5,1,5,63,98,1183828220
5312,16,Jits_ISO_5,2,5,80,127,1183847856
5312,16,Jits_ISO_5,3,5,56,103,1183868240
5312,16,Jits_ISO_5,0,5,56,103,1184267704
5312,16,Jits_ISO_5,1,1,48,34,1184309032
5312,16,Jits_ISO_5,2,5,80,127,1184347444
5312,16,Jits_ISO_5,3,5,63,98,1184357712
5312,16,Jits_ISO_5,0,1,48,33,1184798740
5312,16,Jits_ISO_5,1,5,80,127,1184808348
5312,16,Jits_ISO_5,2,5,63,98,1184817500
5312,16,Jits_ISO_5,3,5,56,103,1184848244
5312,16,Jits_ISO_5,0,5,63,98,1185268232
5312,16,Jits_ISO_5,1,5,80,127,1185308096
5312,16,Jits_ISO_5,2,1,48,27,1185333008
5312,16,Jits_ISO_5,3,5,56,103,1185368428
5312,16,Jits_ISO_5,0,5,63,98,1185778300
5312,16,Jits_ISO_5,1,1,48,23,1185819036
5312,16,Jits_ISO_5,2,5,56,103,1185828200
5312,16,Jits_ISO_5,3,5,80,127,1185858020
5312,16,Jits_ISO_5,0,5,80,127,1186288076
5312,16,Jits_ISO_5,1,1,48,32,1186292316
5312,16,Jits_ISO_5,2,5,63,98,1186298192
5312,16,Jits_ISO_5,3,5,56,103,1186367792
5312,16,Jits_ISO_5,0,1,48,36,1186779696
5312,16,Jits_ISO_5,1,5,80,127,1186858244
5312,16,Jits_ISO_5,2,5,56,103,1186867612
5312,16,Jits_ISO_5,3,5,63,98,1186870604
5312,16,Jits_ISO_5,0,5,56,103,1187297520
5312,16,Jits_ISO_5,1,5,80,127,1187318056
5312,16,Jits_ISO_5,2,5,63,98,1187328324
5312,16,Jits_ISO_5,3,1,48,29,1187338788
5312,16,Jits_ISO_5,0,1,48,29,1187791460
5312,16,Jits_ISO_5,1,5,63,98,1187807524
5312,16,Jits_ISO_5,2,5,56,103,1187847536
5312,16,Jits_ISO_5,3,5,80,127,1187867992
5312,16,Jits_ISO_5,0,5,63,98,1188308316
5312,16,Jits_ISO_5,1,1,48,28,1188321992
5312,16,Jits_ISO_5,2,5,56,103,1188367644
5312,16,Jits_ISO_5,3,5,80,127,1188370864
5312,16,Jits_ISO_5,0,5,56,103,1188778224
5312,16,Jits_ISO_5,1,5,80,127,1188797936
5312,16,Jits_ISO_5,2,1,48,29,1188815132
5312,16,Jits_ISO_5,3,5,63,98,1188838016
5312,16,Jits_ISO_5,0,1,48,31,1189269096
5312,16,Jits_ISO_5,1,5,56,103,1189307636
5312,16,Jits_ISO_5,2,5,63,98,1189328316
5312,16,Jits_ISO_5,3,5,80,127,1189337392
5312,16,Jits_ISO_5,0,5,80,127,1189777856
5312,16,Jits_ISO_5,1,1,48,34,1189797012
5312,16,Jits_ISO_5,2,5,56,103,1189807376
5312,16,Jits_ISO_5,3,5,63,98,1189848356
5312,16,Jits_ISO_5,0,5,80,127,1190287712
5312,16,Jits_ISO_5,1,1,48,30,1190297132
5312,16,Jits_ISO_5,2,5,56,103,1190308168
5312,16,Jits_ISO_5,3,5,63,98,1190367580
5312,16,Jits_ISO_5,0,5,56,103,1190797576
5312,16,Jits_ISO_5,1,5,80,127,1190818108
5312,16,Jits_ISO_5,2,1,48,34,1190836064
5312,16,Jits_ISO_5,3,5,63,98,1190877668
5312,16,Jits_ISO_5,0,5,80,127,1191278140
5312,16,Jits_ISO_5,1,5,56,103,1191288264
5312,16,Jits_ISO_5,2,1,48,33,1191307648
5312,16,Jits_ISO_5,3,5,63,98,1191328192
5312,16,Jits_ISO_5,0,5,63,98,1191777664
5312,16,Jits_ISO_5,1,5,56,103,1191817524
5312,16,Jits_ISO_5,2,5,80,127,1191820664
5312,16,Jits_ISO_5,3,1,48,26,1191828664
5312,16,Jits_ISO_5,0,5,63,98,1192297908
5312,16,Jits_ISO_5,1,1,48,29,1192333160
5312,16,Jits_ISO_5,2,5,80,127,1192337988
5312,16,Jits_ISO_5,3,5,56,103,1192367440
5312,16,Jits_ISO_5,0,5,56,103,1192797572
5312,16,Jits_ISO_5,1,1,48,22,1192800236
5312,16,Jits_ISO_5,2,5,63,98,1192807760
5312,16,Jits_ISO_5,3,5,80,127,1192837656
5312,16,Jits_ISO_5,0,1,48,32,1193279576
5312,16,Jits_ISO_5,1,5,80,127,1193287992
5312,16,Jits_ISO_5,2,5,63,98,1193357700
5312,16,Jits_ISO_5,3,5,56,103,1193367820
5312,16,Jits_ISO_5,0,5,63,98,1193787956
5312,16,Jits_ISO_5,1,1,48,27,1193834020
5312,16,Jits_ISO_5,2,5,56,103,1193858328
5312,16,Jits_ISO_5,3,5,80,127,1193867776
5312,16,Jits_ISO_5,0,5,63,98,1194287392
5312,16,Jits_ISO_5,1,5,56,103,1194307928
5312,16,Jits_ISO_5,2,5,80,127,1194348036
5312,16,Jits_ISO_5,3,1,48,24,1194353700
5312,16,Jits_ISO_5,0,5,56,103,1194797460
5312,16,Jits_ISO_5,1,5,63,98,1194807808
5312,16,Jits_ISO_5,2,1,48,33,1194811148
5312,16,Jits_ISO_5,3,5,80,127,1194887392
5312,16,Jits_ISO_5,0,5,63,98,1195287992
5312,16,Jits_ISO_5,1,1,48,21,1195304368
5312,16,Jits_ISO_5,2,5,56,103,1195317812
5312,16,Jits_ISO_5,3,5,80,127,1195357772
5312,16,Jits_ISO_5,0,5,56,103,1195787948
5312,16,Jits_ISO_5,1,1,48,23,1195798264
5312,16,Jits_ISO_5,2,5,63,98,1195827732
5312,16,Jits_ISO_5,3,5,80,127,1195867768
5312,16,Jits_ISO_5,0,5,80,127,1196288296
5312,16,Jits_ISO_5,1,1,48,22,1196319288
5312,16,Jits_ISO_5,2,5,56,103,1196368184
5312,16,Jits_ISO_5,3,5,63,98,1196377408
5312,16,Jits_ISO_5,0,1,48,33,1196801348
5312,16,Jits_ISO_5,1,5,56,103,1196827972
5312,16,Jits_ISO_5,2,5,63,98,1196830964
5312,16,Jits_ISO_5,3,5,80,127,1196838388
5312,16,Jits_ISO_5,0,1,48,30,1197276048
5312,16,Jits_ISO_5,1,5,56,103,1197348148
5312,16,Jits_ISO_5,2,5,63,98,1197367636
5312,16,Jits_ISO_5,3,5,80,127,1197377816
5312,16,Jits_ISO_5,0,1,48,22,1197804096
5312,16,Jits_ISO_5,1,5,63,98,1197808100
5312,16,Jits_ISO_5,2,5,80,127,1197818224
5312,16,Jits_ISO_5,3,5,56,103,1197837932
5312,16,Jits_ISO_5,0,1,48,23,1198296796
5312,16,Jits_ISO_5,1,5,63,98,1198307832
5312,16,Jits_ISO_5,2,5,56,103,1198387624
5312,16,Jits_ISO_5,3,5,80,127,1198390692
5312,16,Jits_ISO_5,0,1,48,29,1198807560
5312,16,Jits_ISO_5,1,5,63,98,1198809052
5312,16,Jits_ISO_5,2,5,56,103,1198827872
5312,16,Jits_ISO_5,3,5,80,127,1198857840
5312,16,Jits_ISO_5,0,1,48,25,1199266064
5312,16,Jits_ISO_5,1,5,56,103,1199308192
5312,16,Jits_ISO_5,2,5,63,98,1199327676
5312,16,Jits_ISO_5,3,5,80,127,1199337796
5312,16,Jits_ISO_5,0,1,48,27,1199779876
5312,16,Jits_ISO_5,1,5,56,103,1199837592
5312,16,Jits_ISO_5,2,5,63,98,1199868236
5312,16,Jits_ISO_5,3,5,80,127,1199871748
5312,16,Jits_ISO_5,0,1,48,26,1200271056
5312,16,Jits_ISO_5,1,5,56,103,1200298432
5312,16,Jits_ISO_5,2,5,63,98,1200338368
5312,16,Jits_ISO_5,3,5,80,127,1200397844
5312,16,Jits_ISO_5,0,1,48,25,1200799336
5312,16,Jits_ISO_5,1,5,56,103,1200817720
5312,16,Jits_ISO_5,2,5,63,98,1200827692
5312,16,Jits_ISO_5,3,5,80,127,1200888228
5312,16,Jits_ISO_5,0,5,56,103,1201318208
5312,16,Jits_ISO_5,1,1,48,27,1201322896
5312,16,Jits_ISO_5,2,5,80,127,1201337688
5312,16,Jits_ISO_5,3,5,63,98,1201368408
5312,16,Jits_ISO_5,0,5,80,127,1201817880
5312,16,Jits_ISO_5,1,1,48,27,1201819744
5312,16,Jits_ISO_5,2,5,56,103,1201828220
5312,16,Jits_ISO_5,3,5,63,98,1201847928
5312,16,Jits_ISO_5,0,5,63,98,1202307588
5312,16,Jits_ISO_5,1,1,48,29,1202317532
5312,16,Jits_ISO_5,2,5,80,127,1202388420
5312,16,Jits_ISO_5,3,5,56,103,1202397496
5312,16,Jits_ISO_5,0,5,80,127,1202867856
5312,16,Jits_ISO_5,1,1,48,29,1202875384
5312,16,Jits_ISO_5,2,5,56,103,1202888008
5312,16,Jits_ISO_5,3,5,63,98,1202891076
5312,16,Jits_ISO_5,0,5,63,98,1203337704
5312,16,Jits_ISO_5,1,5,80,127,1203340920
5312,16,Jits_ISO_5,2,5,56,103,1203397944
5312,16,Jits_ISO_5,3,1,48,20,1203406608
5312,16,Jits_ISO_5,0,5,56,103,1203817804
5312,16,Jits_ISO_5,1,5,80,127,1203828148
5312,16,Jits_ISO_5,2,5,63,98,1203868084
5312,16,Jits_ISO_5,3,1,48,29,1203890384
5312,16,Jits_ISO_5,0,5,56,103,1204308332
5312,16,Jits_ISO_5,1,1,48,24,1204361120
5312,16,Jits_ISO_5,2,5,63,98,1204367892
5312,16,Jits_ISO_5,3,5,80,127,1204378088
5312,16,Jits_ISO_5,0,5,63,98,1204818640
5312,16,Jits_ISO_5,1,1,48,21,1204846716
5312,16,Jits_ISO_5,2,5,80,127,1204858124
5312,16,Jits_ISO_5,3,5,56,103,1204898136
5312,16,Jits_ISO_5,0,5,56,103,1205317900
5312,16,Jits_ISO_5,1,1,48,26,1205336336
5312,16,Jits_ISO_5,2,5,63,98,1205397860
5312,16,Jits_ISO_5,3,5,80,127,1205401148
5312,16,Jits_ISO_5,0,9999,9999,9999,1146015820
5312,16,Jits_ISO_5,1,9999,9999,9999,1146515536
5312,16,Jits_ISO_5,2,9999,9999,9999,1147015272
5312,16,Jits_ISO_5,3,9999,9999,9999,1147515988
5312,16,Jits_ISO_5,4,9999,9999,9999,1148015724
5312,16,Jits_ISO_5,5,9999,9999,9999,1148515388
5312,16,Jits_ISO_5,6,9999,9999,9999,1149015120
5312,16,Jits_ISO_5,7,9999,9999,9999,1149515888
5312,16,Jits_ISO_5,8,9999,9999,9999,1150015556
5312,16,Jits_ISO_5,9,9999,9999,9999,1150515308
5312,16,Jits_ISO_5,10,9999,9999,9999,1151016024
5312,16,Jits_ISO_5,11,9999,9999,9999,1151515700
5312,16,Jits_ISO_5,12,9999,9999,9999,1152015428
5312,16,Jits_ISO_5,13,9999,9999,9999,1152515164
5312,16,Jits_ISO_5,14,9999,9999,9999,1153015868
5312,16,Jits_ISO_5,15,9999,9999,9999,1153515612
5312,16,Jits_ISO_5,16,9999,9999,9999,1154015344
5312,16,Jits_ISO_5,17,9999,9999,9999,1154516048
5312,16,Jits_ISO_5,18,9999,9999,9999,1155015792
5312,16,Jits_ISO_5,19,9999,9999,9999,1155515464
5312,16,Jits_ISO_5,20,9999,9999,9999,1156015212
5312,16,Jits_ISO_5,21,9999,9999,9999,1156515932
5312,16,Jits_ISO_5,22,9999,9999,9999,1157015604
5312,16,Jits_ISO_5,23,9999,9999,9999,1157515352
5312,16,Jits_ISO_5,24,9999,9999,9999,1158016072
5312,16,Jits_ISO_5,25,9999,9999,9999,1158526072
5312,16,Jits_ISO_5,26,9999,9999,9999,1159025736
5312,16,Jits_ISO_5,27,9999,9999,9999,1159525452
5312,16,Jits_ISO_5,28,9999,9999,9999,1160025204
5312,16,Jits_ISO_5,29,9999,9999,9999,1160525896
5312,16,Jits_ISO_5,30,9999,9999,9999,1161025640
5312,16,Jits_ISO_5,31,9999,9999,9999,1161525316
5312,16,Jits_ISO_5,32,9999,9999,9999,1162026108
5312,16,Jits_ISO_5,33,9999,9999,9999,1162525780
5312,16,Jits_ISO_5,34,9999,9999,9999,1163025528
5312,16,Jits_ISO_5,35,9999,9999,9999,1163525192
5312,16,Jits_ISO_5,36,9999,9999,9999,1164025960
5312,16,Jits_ISO_5,37,9999,9999,9999,1164525620
5312,16,Jits_ISO_5,38,9999,9999,9999,1165025368
5312,16,Jits_ISO_5,39,9999,9999,9999,1165526076
5312,16,Jits_ISO_5,40,9999,9999,9999,1166036072
5312,16,Jits_ISO_5,41,9999,9999,9999,1166535744
5312,16,Jits_ISO_5,42,9999,9999,9999,1167035488
5312,16,Jits_ISO_5,43,9999,9999,9999,1167535220
5312,16,Jits_ISO_5,44,9999,9999,9999,1168035924
5312,16,Jits_ISO_5,45,9999,9999,9999,1168535652
5312,16,Jits_ISO_5,46,9999,9999,9999,1169035384
5312,16,Jits_ISO_5,47,9999,9999,9999,1169536096
5312,16,Jits_ISO_5,48,9999,9999,9999,1170046024
5312,16,Jits_ISO_5,49,9999,9999,9999,1170545776
5312,16,Jits_ISO_5,50,9999,9999,9999,1171045500
5312,16,Jits_ISO_5,51,9999,9999,9999,1171545148
5312,16,Jits_ISO_5,52,9999,9999,9999,1172045944
5312,16,Jits_ISO_5,53,9999,9999,9999,1172545648
5312,16,Jits_ISO_5,54,9999,9999,9999,1173045308
5312,16,Jits_ISO_5,55,9999,9999,9999,1173546104
5312,16,Jits_ISO_5,56,9999,9999,9999,1174045776
5312,16,Jits_ISO_5,57,9999,9999,9999,1174545516
5312,16,Jits_ISO_5,58,9999,9999,9999,1175045180
5312,16,Jits_ISO_5,59,9999,9999,9999,1175545944
5312,16,Jits_ISO_5,60,9999,9999,9999,1176045620
5312,16,Jits_ISO_5,61,9999,9999,9999,1176545348
5312,16,Jits_ISO_5,62,9999,9999,9999,1177046128
5312,16,Jits_ISO_5,63,9999,9999,9999,1177556048
5312,16,Jits_ISO_5,64,9999,9999,9999,1178055784
5312,16,Jits_ISO_5,65,9999,9999,9999,1178555452
5312,16,Jits_ISO_5,66,9999,9999,9999,1179055200
5312,16,Jits_ISO_5,67,9999,9999,9999,1179555892
5312,16,Jits_ISO_5,68,9999,9999,9999,1180055644
5312,16,Jits_ISO_5,69,9999,9999,9999,1180555380
5312,16,Jits_ISO_5,70,9999,9999,9999,1181056076
5312,16,Jits_ISO_5,71,9999,9999,9999,1181566008
5312,16,Jits_ISO_5,72,9999,9999,9999,1182065740
5312,16,Jits_ISO_5,73,9999,9999,9999,1182565472
5312,16,Jits_ISO_5,74,9999,9999,9999,1183065144
5312,16,Jits_ISO_5,75,9999,9999,9999,1183565920
5312,16,Jits_ISO_5,76,9999,9999,9999,1184065648
5312,16,Jits_ISO_5,77,9999,9999,9999,1184565308
5312,16,Jits_ISO_5,78,9999,9999,9999,1185066100
5312,16,Jits_ISO_5,79,9999,9999,9999,1185565760
5312,16,Jits_ISO_5,80,9999,9999,9999,1186065492
5312,16,Jits_ISO_5,81,9999,9999,9999,1186565224
5312,16,Jits_ISO_5,82,9999,9999,9999,1187065944
5312,16,Jits_ISO_5,83,9999,9999,9999,1187565676
5312,16,Jits_ISO_5,84,9999,9999,9999,1188065352
5312,16,Jits_ISO_5,85,9999,9999,9999,1188566132
5312,16,Jits_ISO_5,86,9999,9999,9999,1189076048
5312,16,Jits_ISO_5,87,9999,9999,9999,1189575796
5312,16,Jits_ISO_5,88,9999,9999,9999,1190075456
5312,16,Jits_ISO_5,89,9999,9999,9999,1190575200
5312,16,Jits_ISO_5,90,9999,9999,9999,1191075924
5312,16,Jits_ISO_5,91,9999,9999,9999,1191575664
5312,16,Jits_ISO_5,92,9999,9999,9999,1192075328
5312,16,Jits_ISO_5,93,9999,9999,9999,1192576108
5312,16,Jits_ISO_5,94,9999,9999,9999,1193086028
5312,16,Jits_ISO_5,95,9999,9999,9999,1193585776
5312,16,Jits_ISO_5,96,9999,9999,9999,1194085436
5312,16,Jits_ISO_5,97,9999,9999,9999,1194585164
5312,16,Jits_ISO_5,98,9999,9999,9999,1195085944
5312,16,Jits_ISO_5,99,9999,9999,9999,1195585592
5312,16,Jits_ISO_5,100,9999,9999,9999,1196085328
5312,16,Jits_ISO_5,101,9999,9999,9999,1196586052
5312,16,Jits_ISO_5,102,9999,9999,9999,1197085788
5312,16,Jits_ISO_5,103,9999,9999,9999,1197585524
5312,16,Jits_ISO_5,104,9999,9999,9999,1198085180
5312,16,Jits_ISO_5,105,9999,9999,9999,1198585956
5312,16,Jits_ISO_5,106,9999,9999,9999,1199085688
5312,16,Jits_ISO_5,107,9999,9999,9999,1199585344
5312,16,Jits_ISO_5,108,9999,9999,9999,1200086120
5312,16,Jits_ISO_5,109,9999,9999,9999,1200596040
5312,16,Jits_ISO_5,110,9999,9999,9999,1201095772
5312,16,Jits_ISO_5,111,9999,9999,9999,1201595504
5312,16,Jits_ISO_5,112,9999,9999,9999,1202095176
5312,16,Jits_ISO_5,113,9999,9999,9999,1202595900
5312,16,Jits_ISO_5,114,9999,9999,9999,1203095628
5312,16,Jits_ISO_5,115,9999,9999,9999,1203595368
5312,16,Jits_ISO_5,116,9999,9999,9999,1204096072
5312,16,Jits_ISO_5,117,9999,9999,9999,1204606008
5312,16,Jits_ISO_5,118,9999,9999,9999,1205105756
5312,16,Jits_ISO_5,119,9999,9999,9999,1205605480
5313,7,Jits_ISO_8,0,5,56,103,1217366392
5313,7,Jits_ISO_8,1,5,63,98,1217369640
5313,7,Jits_ISO_8,2,5,80,127,1217372608
5313,7,Jits_ISO_8,0,1,48,16,1217955436
5313,7,Jits_ISO_8,1,5,56,103,1218166364
5313,7,Jits_ISO_8,2,5,63,98,1218169540
5313,7,Jits_ISO_8,3,5,80,127,1218172584
5313,7,Jits_ISO_8,0,1,48,19,1218847656
5313,7,Jits_ISO_8,1,5,80,127,1218905404
5313,7,Jits_ISO_8,2,5,63,98,1218995528
5313,7,Jits_ISO_8,3,5,56,103,1219005872
5313,7,Jits_ISO_8,0,1,48,21,1219711448
5313,7,Jits_ISO_8,1,5,56,103,1219725568
5313,7,Jits_ISO_8,2,5,63,98,1219735912
5313,7,Jits_ISO_8,3,5,80,127,1219826104
5313,7,Jits_ISO_8,0,5,63,98,1220495832
5313,7,Jits_ISO_8,1,1,48,24,1220497920
5313,7,Jits_ISO_8,2,5,80,127,1220525352
5313,7,Jits_ISO_8,3,5,56,103,1220556296
5313,7,Jits_ISO_8,0,1,48,23,1221253256
5313,7,Jits_ISO_8,1,5,56,103,1221295380
5313,7,Jits_ISO_8,2,5,80,127,1221395916
5313,7,Jits_ISO_8,3,5,63,98,1221446040
5313,7,Jits_ISO_8,0,5,56,103,1222096220
5313,7,Jits_ISO_8,1,5,80,127,1222146348
5313,7,Jits_ISO_8,2,1,48,26,1222170144
5313,7,Jits_ISO_8,3,5,63,98,1222186352
5313,7,Jits_ISO_8,0,1,48,25,1222871104
5313,7,Jits_ISO_8,1,5,80,127,1222925676
5313,7,Jits_ISO_8,2,5,63,98,1222956328
5313,7,Jits_ISO_8,3,5,56,103,1223026164
5313,7,Jits_ISO_8,0,1,48,21,1223730452
5313,7,Jits_ISO_8,1,5,63,98,1223756056
5313,7,Jits_ISO_8,2,5,56,103,1223785732
5313,7,Jits_ISO_8,3,5,80,127,1223846332
5313,7,Jits_ISO_8,0,5,56,103,1224495356
5313,7,Jits_ISO_8,1,5,80,127,1224498504
5313,7,Jits_ISO_8,2,1,48,25,1224513304
5313,7,Jits_ISO_8,3,5,63,98,1224616284
5313,7,Jits_ISO_8,0,1,48,30,1225302548
5313,7,Jits_ISO_8,1,5,56,103,1225376308
5313,7,Jits_ISO_8,2,5,80,127,1225416308
5313,7,Jits_ISO_8,3,5,63,98,1225426280
5313,7,Jits_ISO_8,0,1,48,27,1226104080
5313,7,Jits_ISO_8,1,5,56,103,1226135868
5313,7,Jits_ISO_8,2,5,80,127,1226156328
5313,7,Jits_ISO_8,3,5,63,98,1226236256
5313,7,Jits_ISO_8,0,5,80,127,1226925316
5313,7,Jits_ISO_8,1,1,48,24,1226985156
5313,7,Jits_ISO_8,2,5,56,103,1227025784
5313,7,Jits_ISO_8,3,5,63,98,1227036204
5313,7,Jits_ISO_8,0,5,63,98,1227695524
5313,7,Jits_ISO_8,1,1,48,25,1227755392
5313,7,Jits_ISO_8,2,5,80,127,1227756736
5313,7,Jits_ISO_8,3,5,56,103,1227766180
5313,7,Jits_ISO_8,0,1,48,29,1228487032
5313,7,Jits_ISO_8,1,5,56,103,1228496348
5313,7,Jits_ISO_8,2,5,63,98,1228566028
5313,7,Jits_ISO_8,3,5,80,127,1228569468
5313,7,Jits_ISO_8,0,1,48,20,1229265008
5313,7,Jits_ISO_8,1,5,63,98,1229325640
5313,7,Jits_ISO_8,2,5,56,103,1229376052
5313,7,Jits_ISO_8,3,5,80,127,1229379120
5313,7,Jits_ISO_8,0,1,48,24,1230039372
5313,7,Jits_ISO_8,1,5,56,103,1230085548
5313,7,Jits_ISO_8,2,5,80,127,1230088468
5313,7,Jits_ISO_8,3,5,63,98,1230175692
5313,7,Jits_ISO_8,0,1,48,22,1230862660
5313,7,Jits_ISO_8,1,5,63,98,1230926104
5313,7,Jits_ISO_8,2,5,56,103,1231016296
5313,7,Jits_ISO_8,3,5,80,127,1231046120
5313,7,Jits_ISO_8,0,5,56,103,1231715856
5313,7,Jits_ISO_8,1,1,48,20,1231727292
5313,7,Jits_ISO_8,2,5,63,98,1231816028
5313,7,Jits_ISO_8,3,5,80,127,1231845836
5313,7,Jits_ISO_8,0,1,48,22,1232498540
5313,7,Jits_ISO_8,1,5,63,98,1232536032
5313,7,Jits_ISO_8,2,5,56,103,1232546228
5313,7,Jits_ISO_8,3,5,80,127,1232636196
5313,7,Jits_ISO_8,0,1,48,22,1233286788
5313,7,Jits_ISO_8,1,5,63,98,1233356044
5313,7,Jits_ISO_8,2,5,56,103,1233436048
5313,7,Jits_ISO_8,3,5,80,127,1233439188
5313,7,Jits_ISO_8,0,1,48,20,1234099072
5313,7,Jits_ISO_8,1,5,80,127,1234115960
5313,7,Jits_ISO_8,2,5,63,98,1234136420
5313,7,Jits_ISO_8,3,5,56,103,1234196044
5313,7,Jits_ISO_8,0,1,48,22,1234939916
5313,7,Jits_ISO_8,1,5,56,103,1234955828
5313,7,Jits_ISO_8,2,5,63,98,1234976060
5313,7,Jits_ISO_8,3,5,80,127,1234979352
5313,7,Jits_ISO_8,0,5,63,98,1235695972
5313,7,Jits_ISO_8,1,1,48,20,1235728764
5313,7,Jits_ISO_8,2,5,80,127,1235775912
5313,7,Jits_ISO_8,3,5,56,103,1235786260
5313,7,Jits_ISO_8,0,1,48,27,1236501912
5313,7,Jits_ISO_8,1,5,63,98,1236516180
5313,7,Jits_ISO_8,2,5,56,103,1236535740
5313,7,Jits_ISO_8,3,5,80,127,1236585816
5313,7,Jits_ISO_8,0,1,48,25,1237270300
5313,7,Jits_ISO_8,1,5,80,127,1237316036
5313,7,Jits_ISO_8,2,5,63,98,1237356004
5313,7,Jits_ISO_8,3,5,56,103,1237376224
5313,7,Jits_ISO_8,0,1,48,24,1238110500
5313,7,Jits_ISO_8,1,5,56,103,1238155632
5313,7,Jits_ISO_8,2,5,63,98,1238166052
5313,7,Jits_ISO_8,3,5,80,127,1238186364
5313,7,Jits_ISO_8,0,5,56,103,1238885968
5313,7,Jits_ISO_8,1,1,48,24,1238908644
5313,7,Jits_ISO_8,2,5,63,98,1238975800
5313,7,Jits_ISO_8,3,5,80,127,1239036324
5313,7,Jits_ISO_8,0,5,80,127,1239716180
5313,7,Jits_ISO_8,1,5,56,103,1239725332
5313,7,Jits_ISO_8,2,1,48,27,1239729868
5313,7,Jits_ISO_8,3,5,63,98,1239796052
5313,7,Jits_ISO_8,0,5,63,98,1240545796
5313,7,Jits_ISO_8,1,1,48,26,1240553104
5313,7,Jits_ISO_8,2,5,80,127,1240635852
5313,7,Jits_ISO_8,3,5,56,103,1240646048
5313,7,Jits_ISO_8,0,5,63,98,1241285872
5313,7,Jits_ISO_8,1,5,80,127,1241336076
5313,7,Jits_ISO_8,2,5,56,103,1241395792
5313,7,Jits_ISO_8,0,1,48,16,1242088912
5313,7,Jits_ISO_8,1,5,56,103,1242115536
5313,7,Jits_ISO_8,2,5,80,127,1242165740
5313,7,Jits_ISO_8,3,5,63,98,1242186032
5313,7,Jits_ISO_8,0,1,48,34,1242814800
5313,7,Jits_ISO_8,1,5,56,103,1242885696
5313,7,Jits_ISO_8,2,5,80,127,1242945928
5313,7,Jits_ISO_8,3,5,63,98,1243015780
5313,7,Jits_ISO_8,0,1,48,39,1243669568
5313,7,Jits_ISO_8,1,5,56,103,1243686228
5313,7,Jits_ISO_8,2,5,80,127,1243716052
5313,7,Jits_ISO_8,3,5,63,98,1243745680
5313,7,Jits_ISO_8,0,1,48,29,1244455640
5313,7,Jits_ISO_8,1,5,56,103,1244525892
5313,7,Jits_ISO_8,2,5,80,127,1244546652
5313,7,Jits_ISO_8,3,5,63,98,1244605680
5313,7,Jits_ISO_8,0,1,48,25,1245284448
5313,7,Jits_ISO_8,1,5,80,127,1245405756
5313,7,Jits_ISO_8,2,5,56,103,1245415728
5313,7,Jits_ISO_8,3,5,63,98,1245426148
5313,7,Jits_ISO_8,0,5,56,103,1246166600
5313,7,Jits_ISO_8,1,1,48,24,1246170172
5313,7,Jits_ISO_8,2,5,80,127,1246206308
5313,7,Jits_ISO_8,3,5,63,98,1246236060
5313,7,Jits_ISO_8,0,5,56,103,1246936512
5313,7,Jits_ISO_8,1,5,63,98,1246966112
5313,7,Jits_ISO_8,2,5,80,127,1247005976
5313,7,Jits_ISO_8,3,1,48,27,1247009096
5313,7,Jits_ISO_8,0,5,80,127,1247685964
5313,7,Jits_ISO_8,1,5,63,98,1247736164
5313,7,Jits_ISO_8,2,5,56,103,1247755576
5313,7,Jits_ISO_8,3,1,48,27,1247758772
5313,7,Jits_ISO_8,0,1,48,28,1248508648
5313,7,Jits_ISO_8,1,5,56,103,1248515644
5313,7,Jits_ISO_8,2,5,80,127,1248586176
5313,7,Jits_ISO_8,3,5,63,98,1248645800
5313,7,Jits_ISO_8,0,5,80,127,1249316408
5313,7,Jits_ISO_8,1,1,48,29,1249320576
5313,7,Jits_ISO_8,2,5,63,98,1249406264
5313,7,Jits_ISO_8,3,5,56,103,1249425884
5313,7,Jits_ISO_8,0,5,63,98,1250136540
5313,7,Jits_ISO_8,1,1,48,21,1250147752
5313,7,Jits_ISO_8,2,5,56,103,1250155868
5313,7,Jits_ISO_8,3,5,80,127,1250195808
5313,7,Jits_ISO_8,0,5,80,127,1250896460
5313,7,Jits_ISO_8,1,5,63,98,1250915728
5313,7,Jits_ISO_8,2,1,48,26,1250944084
5313,7,Jits_ISO_8,3,5,56,103,1250995512
5313,7,Jits_ISO_8,0,5,63,98,1251685840
5313,7,Jits_ISO_8,1,1,48,29,1251704028
5313,7,Jits_ISO_8,2,5,56,103,1251796496
5313,7,Jits_ISO_8,3,5,80,127,1251799564
5313,7,Jits_ISO_8,0,5,63,98,1252505840
5313,7,Jits_ISO_8,1,5,56,103,1252516332
5313,7,Jits_ISO_8,2,1,48,27,1252517392
5313,7,Jits_ISO_8,3,5,80,127,1252520516
5313,7,Jits_ISO_8,0,1,48,27,1253271548
5313,7,Jits_ISO_8,1,5,56,103,1253286344
5313,7,Jits_ISO_8,2,5,80,127,1253406060
5313,7,Jits_ISO_8,3,5,63,98,1253445924
5313,7,Jits_ISO_8,0,5,56,103,1254105544
5313,7,Jits_ISO_8,1,5,80,127,1254186540
5313,7,Jits_ISO_8,2,5,63,98,1254205800
5313,7,Jits_ISO_8,3,1,48,29,1254222500
5313,7,Jits_ISO_8,0,5,56,103,1254906168
5313,7,Jits_ISO_8,1,1,48,27,1254967580
5313,7,Jits_ISO_8,2,5,63,98,1255015800
5313,7,Jits_ISO_8,3,5,80,127,1255019388
5313,7,Jits_ISO_8,0,1,48,26,1255716716
5313,7,Jits_ISO_8,1,5,56,103,1255735624
5313,7,Jits_ISO_8,2,5,80,127,1255766372
5313,7,Jits_ISO_8,3,5,63,98,1255785860
5313,7,Jits_ISO_8,0,1,48,25,1256478288
5313,7,Jits_ISO_8,1,5,63,98,1256515928
5313,7,Jits_ISO_8,2,5,56,103,1256526300
5313,7,Jits_ISO_8,3,5,80,127,1256536420
5313,7,Jits_ISO_8,0,1,48,26,1257297724
5313,7,Jits_ISO_8,1,5,80,127,1257305396
5313,7,Jits_ISO_8,2,5,56,103,1257355672
5313,7,Jits_ISO_8,3,5,63,98,1257395520
5313,7,Jits_ISO_8,0,1,48,20,1258078328
5313,7,Jits_ISO_8,1,5,80,127,1258125556
5313,7,Jits_ISO_8,2,5,63,98,1258146312
5313,7,Jits_ISO_8,3,5,56,103,1258196500
5313,7,Jits_ISO_8,0,1,48,27,1258926736
5313,7,Jits_ISO_8,1,5,80,127,1258935748
5313,7,Jits_ISO_8,2,5,56,103,1258966324
5313,7,Jits_ISO_8,3,5,63,98,1259035988
5313,7,Jits_ISO_8,0,1,48,27,1259766600
5313,7,Jits_ISO_8,1,5,56,103,1259785512
5313,7,Jits_ISO_8,2,5,80,127,1259795932
5313,7,Jits_ISO_8,3,5,63,98,1259835720
5313,7,Jits_ISO_8,0,5,56,103,1260496368
5313,7,Jits_ISO_8,1,5,63,98,1260515632
5313,7,Jits_ISO_8,2,1,48,22,1260554192
5313,7,Jits_ISO_8,3,5,80,127,1260586276
5313,7,Jits_ISO_8,0,1,48,24,1261288636
5313,7,Jits_ISO_8,1,5,63,98,1261315560
5313,7,Jits_ISO_8,2,5,80,127,1261375808
5313,7,Jits_ISO_8,3,5,56,103,1261396200
5313,7,Jits_ISO_8,0,1,48,27,1262105616
5313,7,Jits_ISO_8,1,5,80,127,1262107176
5313,7,Jits_ISO_8,2,5,56,103,1262135580
5313,7,Jits_ISO_8,3,5,63,98,1262166256
5313,7,Jits_ISO_8,0,1,48,24,1262897788
5313,7,Jits_ISO_8,1,5,56,103,1262905680
5313,7,Jits_ISO_8,2,5,63,98,1262966320
5313,7,Jits_ISO_8,3,5,80,127,1263025648
5313,7,Jits_ISO_8,0,1,48,33,1263715432
5313,7,Jits_ISO_8,1,5,80,127,1263726016
5313,7,Jits_ISO_8,2,5,56,103,1263746404
5313,7,Jits_ISO_8,3,5,63,98,1263816292
5313,7,Jits_ISO_8,0,5,80,127,1264525808
5313,7,Jits_ISO_8,1,5,63,98,1264546196
5313,7,Jits_ISO_8,2,1,48,30,1264576092
5313,7,Jits_ISO_8,3,5,56,103,1264577356
5313,7,Jits_ISO_8,0,5,80,127,1265316308
5313,7,Jits_ISO_8,1,5,63,98,1265335572
5313,7,Jits_ISO_8,2,1,48,34,1265346484
5313,7,Jits_ISO_8,3,5,56,103,1265396328
5313,7,Jits_ISO_8,0,5,80,127,1266115956
5313,7,Jits_ISO_8,1,1,48,25,1266124328
5313,7,Jits_ISO_8,2,5,56,103,1266216200
5313,7,Jits_ISO_8,3,5,63,98,1266245936
5313,7,Jits_ISO_8,0,5,63,98,1266905348
5313,7,Jits_ISO_8,1,5,80,127,1266955624
5313,7,Jits_ISO_8,2,5,56,103,1266976084
5313,7,Jits_ISO_8,3,1,48,28,1266988864
5313,7,Jits_ISO_8,0,1,48,32,1267728092
5313,7,Jits_ISO_8,1,5,80,127,1267746176
5313,7,Jits_ISO_8,2,5,56,103,1267776148
5313,7,Jits_ISO_8,3,5,63,98,1267779216
5313,7,Jits_ISO_8,0,1,48,33,1268509736
5313,7,Jits_ISO_8,1,5,63,98,1268575644
5313,7,Jits_ISO_8,2,5,56,103,1268615496
5313,7,Jits_ISO_8,3,5,80,127,1268636400
5313,7,Jits_ISO_8,0,5,80,127,1269316004
5313,7,Jits_ISO_8,1,1,48,29,1269348140
5313,7,Jits_ISO_8,2,5,63,98,1269396116
5313,7,Jits_ISO_8,3,5,56,103,1269435832
5313,7,Jits_ISO_8,0,5,63,98,1270136136
5313,7,Jits_ISO_8,1,1,48,23,1270158960
5313,7,Jits_ISO_8,2,5,80,127,1270216148
5313,7,Jits_ISO_8,3,5,56,103,1270235560
5313,7,Jits_ISO_8,0,1,48,24,1270958516
5313,7,Jits_ISO_8,1,5,56,103,1270976000
5313,7,Jits_ISO_8,2,5,63,98,1270986196
5313,7,Jits_ISO_8,3,5,80,127,1271026280
5313,7,Jits_ISO_8,0,5,56,103,1271695768
5313,7,Jits_ISO_8,1,5,80,127,1271698836
5313,7,Jits_ISO_8,2,1,48,16,1271721060
5313,7,Jits_ISO_8,3,5,63,98,1271836148
5313,7,Jits_ISO_8,0,5,56,103,1272486416
5313,7,Jits_ISO_8,1,1,48,32,1272500252
5313,7,Jits_ISO_8,2,5,63,98,1272576396
5313,7,Jits_ISO_8,3,5,80,127,1272646060
5313,7,Jits_ISO_8,0,1,48,28,1273273872
5313,7,Jits_ISO_8,1,5,63,98,1273366048
5313,7,Jits_ISO_8,2,5,80,127,1273370296
5313,7,Jits_ISO_8,3,5,56,103,1273426224
5313,7,Jits_ISO_8,0,1,48,21,1274107584
5313,7,Jits_ISO_8,1,5,80,127,1274205844
5313,7,Jits_ISO_8,2,5,56,103,1274226084
5313,7,Jits_ISO_8,3,5,63,98,1274236204
5313,7,Jits_ISO_8,0,5,56,103,1274916180
5313,7,Jits_ISO_8,1,5,63,98,1274925552
5313,7,Jits_ISO_8,2,5,80,127,1274996004
5313,7,Jits_ISO_8,3,1,48,16,1275008712
5313,7,Jits_ISO_8,0,1,48,21,1275712712
5313,7,Jits_ISO_8,1,5,80,127,1275716116
5313,7,Jits_ISO_8,2,5,56,103,1275766192
5313,7,Jits_ISO_8,3,5,63,98,1275816456
5313,7,Jits_ISO_8,0,1,48,17,1276510800
5313,7,Jits_ISO_8,1,5,56,103,1276595496
5313,7,Jits_ISO_8,2,5,63,98,1276606576
5313,7,Jits_ISO_8,3,5,80,127,1276645988
5313,7,Jits_ISO_8,0,1,48,20,1277328880
5313,7,Jits_ISO_8,1,5,56,103,1277336024
5313,7,Jits_ISO_8,2,5,63,98,1277375812
5313,7,Jits_ISO_8,3,5,80,127,1277426088
5313,7,Jits_ISO_8,0,5,80,127,1278096024
5313,7,Jits_ISO_8,1,5,56,103,1278146004
5313,7,Jits_ISO_8,2,1,48,21,1278161036
5313,7,Jits_ISO_8,3,5,63,98,1278166384
5313,7,Jits_ISO_8,0,5,80,127,1278906004
5313,7,Jits_ISO_8,1,1,48,21,1278958876
5313,7,Jits_ISO_8,2,5,63,98,1278966168
5313,7,Jits_ISO_8,3,5,56,103,1279045964
5313,7,Jits_ISO_8,0,5,80,127,1279685928
5313,7,Jits_ISO_8,1,1,48,21,1279715724
5313,7,Jits_ISO_8,2,5,56,103,1279726008
5313,7,Jits_ISO_8,3,5,63,98,1279746544
5313,7,Jits_ISO_8,0,1,48,27,1280473928
5313,7,Jits_ISO_8,1,5,56,103,1280535912
5313,7,Jits_ISO_8,2,5,80,127,1280546108
5313,7,Jits_ISO_8,3,5,63,98,1280586132
5313,7,Jits_ISO_8,0,1,48,23,1281274908
5313,7,Jits_ISO_8,1,5,56,103,1281406280
5313,7,Jits_ISO_8,2,5,63,98,1281446216
5313,7,Jits_ISO_8,3,5,80,127,1281449732
5313,7,Jits_ISO_8,0,5,63,98,1282095768
5313,7,Jits_ISO_8,1,5,80,127,1282136336
5313,7,Jits_ISO_8,2,1,48,24,1282202904
5313,7,Jits_ISO_8,3,5,56,103,1282206008
5313,7,Jits_ISO_8,0,5,63,98,1282885888
5313,7,Jits_ISO_8,1,1,48,25,1282916904
5313,7,Jits_ISO_8,2,5,56,103,1282965852
5313,7,Jits_ISO_8,3,5,80,127,1283026228
5313,7,Jits_ISO_8,0,1,48,27,1283695200
5313,7,Jits_ISO_8,1,5,80,127,1283696848
5313,7,Jits_ISO_8,2,5,63,98,1283746156
5313,7,Jits_ISO_8,3,5,56,103,1283775828
5313,7,Jits_ISO_8,0,1,48,26,1284464836
5313,7,Jits_ISO_8,1,5,56,103,1284485756
5313,7,Jits_ISO_8,2,5,63,98,1284535812
5313,7,Jits_ISO_8,3,5,80,127,1284545932
5313,7,Jits_ISO_8,0,1,48,24,1285281008
5313,7,Jits_ISO_8,1,5,56,103,1285295724
5313,7,Jits_ISO_8,2,5,63,98,1285406000
5313,7,Jits_ISO_8,3,5,80,127,1285425784
5313,7,Jits_ISO_8,0,5,63,98,1286096188
5313,7,Jits_ISO_8,1,5,80,127,1286146540
5313,7,Jits_ISO_8,2,1,48,22,1286149216
5313,7,Jits_ISO_8,3,5,56,103,1286235716
5313,7,Jits_ISO_8,0,5,63,98,1286885852
5313,7,Jits_ISO_8,1,1,48,23,1286897516
5313,7,Jits_ISO_8,2,5,80,127,1286915672
5313,7,Jits_ISO_8,3,5,56,103,1287005740
5313,7,Jits_ISO_8,0,5,63,98,1287685484
5313,7,Jits_ISO_8,1,1,48,20,1287686452
5313,7,Jits_ISO_8,2,5,56,103,1287695748
5313,7,Jits_ISO_8,3,5,80,127,1287796152
5313,7,Jits_ISO_8,0,1,48,22,1288439000
5313,7,Jits_ISO_8,1,5,63,98,1288585584
5313,7,Jits_ISO_8,2,5,80,127,1288616160
5313,7,Jits_ISO_8,3,5,56,103,1288645984
5313,7,Jits_ISO_8,0,1,48,24,1289391580
5313,7,Jits_ISO_8,1,5,80,127,1289405700
5313,7,Jits_ISO_8,2,5,63,98,1289416192
5313,7,Jits_ISO_8,3,5,56,103,1289445720
5313,7,Jits_ISO_8,0,5,80,127,1290106224
5313,7,Jits_ISO_8,1,5,63,98,1290125636
5313,7,Jits_ISO_8,2,5,56,103,1290175988
5313,7,Jits_ISO_8,3,1,48,24,1290194472
5313,7,Jits_ISO_8,0,1,48,22,1290935612
5313,7,Jits_ISO_8,1,5,63,98,1290937024
5313,7,Jits_ISO_8,2,5,80,127,1290996068
5313,7,Jits_ISO_8,3,5,56,103,1291015408
5313,7,Jits_ISO_8,0,5,63,98,1291695460
5313,7,Jits_ISO_8,1,5,56,103,1291745592
5313,7,Jits_ISO_8,2,1,48,31,1291746556
5313,7,Jits_ISO_8,3,5,80,127,1291755928
5313,7,Jits_ISO_8,0,1,48,34,1292479992
5313,7,Jits_ISO_8,1,5,56,103,1292525876
5313,7,Jits_ISO_8,2,5,80,127,1292536296
5313,7,Jits_ISO_8,3,5,63,98,1292635432
5313,7,Jits_ISO_8,0,5,80,127,1293285732
5313,7,Jits_ISO_8,1,5,63,98,1293295932
5313,7,Jits_ISO_8,2,1,48,15,1293366704
5313,7,Jits_ISO_8,3,5,56,103,1293445492
5313,7,Jits_ISO_8,0,1,48,29,1294063684
5313,7,Jits_ISO_8,1,5,63,98,1294095788
5313,7,Jits_ISO_8,2,5,80,127,1294135652
5313,7,Jits_ISO_8,3,5,56,103,1294215532
5313,7,Jits_ISO_8,0,1,48,25,1294883920
5313,7,Jits_ISO_8,1,5,56,103,1294886500
5313,7,Jits_ISO_8,2,5,80,127,1294985640
5313,7,Jits_ISO_8,3,5,63,98,1295006172
5313,7,Jits_ISO_8,0,1,48,24,1295680332
5313,7,Jits_ISO_8,1,5,80,127,1295746400
5313,7,Jits_ISO_8,2,5,56,103,1295755620
5313,7,Jits_ISO_8,3,5,63,98,1295845664
5313,7,Jits_ISO_8,0,1,48,31,1296464568
5313,7,Jits_ISO_8,1,5,56,103,1296546256
5313,7,Jits_ISO_8,2,5,63,98,1296565580
5313,7,Jits_ISO_8,3,5,80,127,1296645524
5313,7,Jits_ISO_8,0,1,48,18,1297259468
5313,7,Jits_ISO_8,1,5,63,98,1297295616
5313,7,Jits_ISO_8,2,5,56,103,1297385884
5313,7,Jits_ISO_8,3,5,80,127,1297388804
5313,7,Jits_ISO_8,0,1,48,27,1298066596
5313,7,Jits_ISO_8,1,5,56,103,1298126332
5313,7,Jits_ISO_8,2,5,80,127,1298185512
5313,7,Jits_ISO_8,3,5,63,98,1298195708
5313,7,Jits_ISO_8,0,1,48,31,1298877616
5313,7,Jits_ISO_8,1,5,80,127,1298976296
5313,7,Jits_ISO_8,2,5,56,103,1298986344
5313,7,Jits_ISO_8,3,5,63,98,1298989412
5313,7,Jits_ISO_8,0,5,56,103,1299735864
5313,7,Jits_ISO_8,1,5,80,127,1299746432
5313,7,Jits_ISO_8,2,1,48,20,1299753664
5313,7,Jits_ISO_8,3,5,63,98,1299765688
5313,7,Jits_ISO_8,0,5,63,98,1300505920
5313,7,Jits_ISO_8,1,5,80,127,1300566412
5313,7,Jits_ISO_8,2,1,48,19,1300569532
5313,7,Jits_ISO_8,3,5,56,103,1300615484
5313,7,Jits_ISO_8,0,1,48,21,1301340232
5313,7,Jits_ISO_8,1,5,63,98,1301385440
5313,7,Jits_ISO_8,2,5,56,103,1301395784
5313,7,Jits_ISO_8,3,5,80,127,1301446120
5313,7,Jits_ISO_8,0,5,63,98,1302086304
5313,7,Jits_ISO_8,1,5,80,127,1302105348
5313,7,Jits_ISO_8,2,5,56,103,1302115840
5313,7,Jits_ISO_8,3,1,48,25,1302173788
5313,7,Jits_ISO_8,0,1,48,22,1302881848
5313,7,Jits_ISO_8,1,5,63,98,1302885700
5313,7,Jits_ISO_8,2,5,80,127,1302888916
5313,7,Jits_ISO_8,3,5,56,103,1302925788
5313,7,Jits_ISO_8,0,1,48,40,1303610852
5313,7,Jits_ISO_8,1,5,63,98,1303756320
5313,7,Jits_ISO_8,2,5,80,127,1303785772
5313,7,Jits_ISO_8,3,5,56,103,1303796268
5313,7,Jits_ISO_8,0,1,48,19,1304503264
5313,7,Jits_ISO_8,1,5,56,103,1304505772
5313,7,Jits_ISO_8,2,5,80,127,1304536424
5313,7,Jits_ISO_8,3,5,63,98,1304566248
5313,7,Jits_ISO_8,0,1,48,25,1305274288
5313,7,Jits_ISO_8,1,5,63,98,1305406160
5313,7,Jits_ISO_8,2,5,56,103,1305445676
5313,7,Jits_ISO_8,3,5,80,127,1305448744
5313,7,Jits_ISO_8,0,5,80,127,1306106316
5313,7,Jits_ISO_8,1,1,48,33,1306165108
5313,7,Jits_ISO_8,2,5,56,103,1306186060
5313,7,Jits_ISO_8,3,5,63,98,1306236260
5313,7,Jits_ISO_8,0,5,80,127,1306885368
5313,7,Jits_ISO_8,1,5,56,103,1306906200
5313,7,Jits_ISO_8,2,5,63,98,1306996208
5313,7,Jits_ISO_8,3,1,48,36,1307010040
5313,7,Jits_ISO_8,0,1,48,33,1307690888
5313,7,Jits_ISO_8,1,5,80,127,1307726308
5313,7,Jits_ISO_8,2,5,63,98,1307766028
5313,7,Jits_ISO_8,3,5,56,103,1307806100
5313,7,Jits_ISO_8,0,1,48,34,1308495752
5313,7,Jits_ISO_8,1,5,63,98,1308497248
5313,7,Jits_ISO_8,2,5,80,127,1308555620
5313,7,Jits_ISO_8,3,5,56,103,1308587076
5313,7,Jits_ISO_8,0,1,48,38,1309281416
5313,7,Jits_ISO_8,1,5,56,103,1309296204
5313,7,Jits_ISO_8,2,5,80,127,1309325732
5313,7,Jits_ISO_8,3,5,63,98,1309415776
5313,7,Jits_ISO_8,0,5,56,103,1310106176
5313,7,Jits_ISO_8,1,1,48,37,1310136944
5313,7,Jits_ISO_8,2,5,80,127,1310215564
5313,7,Jits_ISO_8,3,5,63,98,1310246196
5313,7,Jits_ISO_8,0,5,56,103,1310956028
5313,7,Jits_ISO_8,1,1,48,33,1310988744
5313,7,Jits_ISO_8,2,5,63,98,1311016268
5313,7,Jits_ISO_8,3,5,80,127,1311046488
5313,7,Jits_ISO_8,0,5,56,103,1311726088
5313,7,Jits_ISO_8,1,1,48,32,1311782996
5313,7,Jits_ISO_8,2,5,63,98,1311795468
5313,7,Jits_ISO_8,3,5,80,127,1311816172
5313,7,Jits_ISO_8,0,5,80,127,1312496140
5313,7,Jits_ISO_8,1,5,63,98,1312515328
5313,7,Jits_ISO_8,2,5,56,103,1312565828
5313,7,Jits_ISO_8,3,1,48,33,1312573512
5313,7,Jits_ISO_8,0,9999,9999,9999,1217763432
5313,7,Jits_ISO_8,1,9999,9999,9999,1218563188
5313,7,Jits_ISO_8,2,9999,9999,9999,1219363944
5313,7,Jits_ISO_8,3,9999,9999,9999,1220163656
5313,7,Jits_ISO_8,4,9999,9999,9999,1220963452
5313,7,Jits_ISO_8,5,9999,9999,9999,1221763164
5313,7,Jits_ISO_8,6,9999,9999,9999,1222563916
5313,7,Jits_ISO_8,7,9999,9999,9999,1223363640
5313,7,Jits_ISO_8,8,9999,9999,9999,1224163428
5313,7,Jits_ISO_8,9,9999,9999,9999,1224963124
5313,7,Jits_ISO_8,10,9999,9999,9999,1225763904
5313,7,Jits_ISO_8,11,9999,9999,9999,1226563692
5313,7,Jits_ISO_8,12,9999,9999,9999,1227363428
5313,7,Jits_ISO_8,13,9999,9999,9999,1228163148
5313,7,Jits_ISO_8,14,9999,9999,9999,1228963892
5313,7,Jits_ISO_8,15,9999,9999,9999,1229763668
5313,7,Jits_ISO_8,16,9999,9999,9999,1230563432
5313,7,Jits_ISO_8,17,9999,9999,9999,1231363148
5313,7,Jits_ISO_8,18,9999,9999,9999,1232163904
5313,7,Jits_ISO_8,19,9999,9999,9999,1232963632
5313,7,Jits_ISO_8,20,9999,9999,9999,1233763432
5313,7,Jits_ISO_8,21,9999,9999,9999,1234563140
5313,7,Jits_ISO_8,22,9999,9999,9999,1235363964
5313,7,Jits_ISO_8,23,9999,9999,9999,1236163648
5313,7,Jits_ISO_8,24,9999,9999,9999,1236963432
5313,7,Jits_ISO_8,25,9999,9999,9999,1237763140
5313,7,Jits_ISO_8,26,9999,9999,9999,1238563900
5313,7,Jits_ISO_8,27,9999,9999,9999,1239363684
5313,7,Jits_ISO_8,28,9999,9999,9999,1240163424
5313,7,Jits_ISO_8,29,9999,9999,9999,1240963156
5313,7,Jits_ISO_8,30,9999,9999,9999,1241763928
5313,7,Jits_ISO_8,31,9999,9999,9999,1242563660
5313,7,Jits_ISO_8,32,9999,9999,9999,1243363444
5313,7,Jits_ISO_8,33,9999,9999,9999,1244163148
5313,7,Jits_ISO_8,34,9999,9999,9999,1244963904
5313,7,Jits_ISO_8,35,9999,9999,9999,1245763696
5313,7,Jits_ISO_8,36,9999,9999,9999,1246563432
5313,7,Jits_ISO_8,37,9999,9999,9999,1247363156
5313,7,Jits_ISO_8,38,9999,9999,9999,1248163920
5313,7,Jits_ISO_8,39,9999,9999,9999,1248963652
5313,7,Jits_ISO_8,40,9999,9999,9999,1249763436
5313,7,Jits_ISO_8,41,9999,9999,9999,1250563156
5313,7,Jits_ISO_8,42,9999,9999,9999,1251363908
5313,7,Jits_ISO_8,43,9999,9999,9999,1252163696
5313,7,Jits_ISO_8,44,9999,9999,9999,1252963412
5313,7,Jits_ISO_8,45,9999,9999,9999,1253763120
5313,7,Jits_ISO_8,46,9999,9999,9999,1254563956
5313,7,Jits_ISO_8,47,9999,9999,9999,1255363672
5313,7,Jits_ISO_8,48,9999,9999,9999,1256163396
5313,7,Jits_ISO_8,49,9999,9999,9999,1256963176
5313,7,Jits_ISO_8,50,9999,9999,9999,1257763932
5313,7,Jits_ISO_8,51,9999,9999,9999,1258563644
5313,7,Jits_ISO_8,52,9999,9999,9999,1259363452
5313,7,Jits_ISO_8,53,9999,9999,9999,1260163164
5313,7,Jits_ISO_8,54,9999,9999,9999,1260963916
5313,7,Jits_ISO_8,55,9999,9999,9999,1261763640
5313,7,Jits_ISO_8,56,9999,9999,9999,1262563420
5313,7,Jits_ISO_8,57,9999,9999,9999,1263363124
5313,7,Jits_ISO_8,58,9999,9999,9999,1264163956
5313,7,Jits_ISO_8,59,9999,9999,9999,1264963664
5313,7,Jits_ISO_8,60,9999,9999,9999,1265763404
5313,7,Jits_ISO_8,61,9999,9999,9999,1266563132
5313,7,Jits_ISO_8,62,9999,9999,9999,1267363900
5313,7,Jits_ISO_8,63,9999,9999,9999,1268163676
5313,7,Jits_ISO_8,64,9999,9999,9999,1268963392
5313,7,Jits_ISO_8,65,9999,9999,9999,1269763180
5313,7,Jits_ISO_8,66,9999,9999,9999,1270563956
5313,7,Jits_ISO_8,67,9999,9999,9999,1271363668
5313,7,Jits_ISO_8,68,9999,9999,9999,1272163384
5313,7,Jits_ISO_8,69,9999,9999,9999,1272963160
5313,7,Jits_ISO_8,70,9999,9999,9999,1273763920
5313,7,Jits_ISO_8,71,9999,9999,9999,1274563640
5313,7,Jits_ISO_8,72,9999,9999,9999,1275363424
5313,7,Jits_ISO_8,73,9999,9999,9999,1276163144
5313,7,Jits_ISO_8,74,9999,9999,9999,1276963912
5313,7,Jits_ISO_8,75,9999,9999,9999,1277763696
5313,7,Jits_ISO_8,76,9999,9999,9999,1278563424
5313,7,Jits_ISO_8,77,9999,9999,9999,1279363196
5313,7,Jits_ISO_8,78,9999,9999,9999,1280163960
5313,7,Jits_ISO_8,79,9999,9999,9999,1280963684
5313,7,Jits_ISO_8,80,9999,9999,9999,1281763388
5313,7,Jits_ISO_8,81,9999,9999,9999,1282563172
5313,7,Jits_ISO_8,82,9999,9999,9999,1283363924
5313,7,Jits_ISO_8,83,9999,9999,9999,1284163704
5313,7,Jits_ISO_8,84,9999,9999,9999,1284963424
5313,7,Jits_ISO_8,85,9999,9999,9999,1285763136
5313,7,Jits_ISO_8,86,9999,9999,9999,1286563960
5313,7,Jits_ISO_8,87,9999,9999,9999,1287363668
5313,7,Jits_ISO_8,88,9999,9999,9999,1288163444
5313,7,Jits_ISO_8,89,9999,9999,9999,1288963160
5313,7,Jits_ISO_8,90,9999,9999,9999,1289763924
5313,7,Jits_ISO_8,91,9999,9999,9999,1290563708
5313,7,Jits_ISO_8,92,9999,9999,9999,1291363380
5313,7,Jits_ISO_8,93,9999,9999,9999,1292163156
5313,7,Jits_ISO_8,94,9999,9999,9999,1292963912
5313,7,Jits_ISO_8,95,9999,9999,9999,1293763696
5313,7,Jits_ISO_8,96,9999,9999,9999,1294563420
5313,7,Jits_ISO_8,97,9999,9999,9999,1295363128
5313,7,Jits_ISO_8,98,9999,9999,9999,1296163956
5313,7,Jits_ISO_8,99,9999,9999,9999,1296963668
5313,7,Jits_ISO_8,100,9999,9999,9999,1297763388
5313,7,Jits_ISO_8,101,9999,9999,9999,1298563172
5313,7,Jits_ISO_8,102,9999,9999,9999,1299363920
5313,7,Jits_ISO_8,103,9999,9999,9999,1300163704
5313,7,Jits_ISO_8,104,9999,9999,9999,1300963428
5313,7,Jits_ISO_8,105,9999,9999,9999,1301763144
5313,7,Jits_ISO_8,106,9999,9999,9999,1302563940
5313,7,Jits_ISO_8,107,9999,9999,9999,1303363704
5313,7,Jits_ISO_8,108,9999,9999,9999,1304163432
5313,7,Jits_ISO_8,109,9999,9999,9999,1304963140
5313,7,Jits_ISO_8,110,9999,9999,9999,1305763896
5313,7,Jits_ISO_8,111,9999,9999,9999,1306563680
5313,7,Jits_ISO_8,112,9999,9999,9999,1307363404
5313,7,Jits_ISO_8,113,9999,9999,9999,1308163128
5313,7,Jits_ISO_8,114,9999,9999,9999,1308963952
5313,7,Jits_ISO_8,115,9999,9999,9999,1309763660
5313,7,Jits_ISO_8,116,9999,9999,9999,1310563396
5313,7,Jits_ISO_8,117,9999,9999,9999,1311363128
5313,7,Jits_ISO_8,118,9999,9999,9999,1312163896
5313,7,Jits_ISO_8,119,9999,9999,9999,1312963688
5314,5,ISIP_5,0,5,42,127,1401187644
5314,5,ISIP_5,1,5,42,127,1401688704
5314,5,ISIP_5,2,1,48,22,1401827512
5314,5,ISIP_5,3,5,42,127,1402188176
5314,5,ISIP_5,4,1,48,24,1402234676
5314,5,ISIP_5,5,5,42,127,1402687920
5314,5,ISIP_5,6,1,48,26,1402702860
5314,5,ISIP_5,7,5,42,127,1403187516
5314,5,ISIP_5,8,1,48,22,1403209656
5314,5,ISIP_5,9,1,48,14,1403285704
5314,5,ISIP_5,10,5,42,127,1403688312
5314,5,ISIP_5,11,1,48,26,1403705192
5314,5,ISIP_5,12,5,42,127,1404188084
5314,5,ISIP_5,13,1,48,33,1404197560
5314,5,ISIP_5,14,1,48,34,1404683400
5314,5,ISIP_5,15,5,42,127,1404687624
5314,5,ISIP_5,16,1,48,34,1405164168
5314,5,ISIP_5,17,5,42,127,1405187392
5314,5,ISIP_5,18,5,42,127,1405688588
5314,5,ISIP_5,19,1,48,31,1405690376
5314,5,ISIP_5,20,1,48,30,1406178292
5314,5,ISIP_5,21,5,42,127,1406187980
5314,5,ISIP_5,22,1,48,28,1406646428
5314,5,ISIP_5,23,5,42,127,1406687672
5314,5,ISIP_5,24,1,48,27,1407174768
5314,5,ISIP_5,25,5,42,127,1407188488
5314,5,ISIP_5,26,5,42,127,1407688044
5314,5,ISIP_5,27,1,48,25,1407697000
5314,5,ISIP_5,28,5,42,127,1408187888
5314,5,ISIP_5,29,1,48,26,1408212100
5314,5,ISIP_5,30,5,42,127,1408687580
5314,5,ISIP_5,31,1,48,27,1408699752
5314,5,ISIP_5,32,5,42,127,1409188396
5314,5,ISIP_5,33,1,48,29,1409195256
5314,5,ISIP_5,34,5,42,127,1409688016
5314,5,ISIP_5,35,1,48,25,1409689356
5314,5,ISIP_5,36,5,42,127,1410187640
5314,5,ISIP_5,37,1,48,24,1410189124
5314,5,ISIP_5,38,5,42,127,1410688528
5314,5,ISIP_5,39,1,48,26,1410692020
5314,5,ISIP_5,40,5,42,127,1411188152
5314,5,ISIP_5,41,1,48,26,1411206976
5314,5,ISIP_5,42,1,48,24,1411675388
5314,5,ISIP_5,43,5,42,127,1411687840
5314,5,ISIP_5,44,1,48,29,1412179496
5314,5,ISIP_5,45,5,42,127,1412187460
5314,5,ISIP_5,46,1,48,32,1412663612
5314,5,ISIP_5,47,5,42,127,1412688428
5314,5,ISIP_5,48,1,48,31,1413162184
5314,5,ISIP_5,49,5,42,127,1413187972
5314,5,ISIP_5,50,1,48,32,1413650060
5314,5,ISIP_5,51,5,42,127,1413687568
5314,5,ISIP_5,52,1,48,27,1414164492
5314,5,ISIP_5,53,5,42,127,1414188532
5314,5,ISIP_5,54,5,42,127,1414688160
5314,5,ISIP_5,55,1,48,28,1414691724
5314,5,ISIP_5,56,1,48,31,1415168888
5314,5,ISIP_5,57,5,42,127,1415187772
5314,5,ISIP_5,58,5,42,127,1415687476
5314,5,ISIP_5,59,1,48,31,1415688368
5314,5,ISIP_5,60,1,48,32,1416172316
5314,5,ISIP_5,61,5,42,127,1416188360
5314,5,ISIP_5,62,1,48,33,1416665056
5314,5,ISIP_5,63,5,42,127,1416687908
5314,5,ISIP_5,64,5,42,127,1417187608
5314,5,ISIP_5,65,1,48,31,1417191320
5314,5,ISIP_5,66,1,48,29,1417668412
5314,5,ISIP_5,67,5,42,127,1417688344
5314,5,ISIP_5,68,1,48,32,1418185680
5314,5,ISIP_5,69,5,42,127,1418188336
5314,5,ISIP_5,70,5,42,127,1418687740
5314,5,ISIP_5,71,1,48,25,1418697288
5314,5,ISIP_5,72,5,42,127,1419187584
5314,5,ISIP_5,73,1,48,26,1419193396
5314,5,ISIP_5,74,5,42,127,1419688252
5314,5,ISIP_5,75,1,48,22,1419710668
5314,5,ISIP_5,76,1,48,27,1420179680
5314,5,ISIP_5,77,5,42,127,1420188088
5314,5,ISIP_5,78,1,48,32,1420671592
5314,5,ISIP_5,79,5,42,127,1420687784
5314,5,ISIP_5,80,1,48,30,1421189184
5314,5,ISIP_5,81,1,48,28,1421685956
5314,5,ISIP_5,82,1,48,27,1422192376
5314,5,ISIP_5,83,1,48,29,1422689000
5314,5,ISIP_5,84,1,48,31,1423210232
5314,5,ISIP_5,85,1,48,25,1423716132
5314,5,ISIP_5,86,1,48,26,1424252400
5314,5,ISIP_5,87,1,48,26,1424730920
5314,5,ISIP_5,88,1,48,24,1425286564
5314,5,ISIP_5,89,1,48,22,1425846912
5314,5,ISIP_5,90,1,48,28,1426353860
5314,5,ISIP_5,91,1,48,24,1426855420
5314,5,ISIP_5,92,1,48,23,1427378820
5314,5,ISIP_5,93,1,48,21,1427897736
5314,5,ISIP_5,94,1,48,23,1428411260
5314,5,ISIP_5,95,1,48,26,1428899436
5314,5,ISIP_5,96,1,48,21,1429443708
5314,5,ISIP_5,97,1,48,26,1429958132
5314,5,ISIP_5,98,1,48,29,1430443388
5314,5,ISIP_5,99,1,48,29,1430975236
5314,5,ISIP_5,100,1,48,27,1431468200
5314,5,ISIP_5,101,1,48,24,1432010448
5314,5,ISIP_5,102,1,48,25,1432509916
5314,5,ISIP_5,103,1,48,28,1432993824
5314,5,ISIP_5,104,1,48,25,1433524408
5314,5,ISIP_5,105,1,48,20,1434039656
5314,5,ISIP_5,106,1,48,17,1434546600
5314,5,ISIP_5,107,1,48,16,1435042624
5314,5,ISIP_5,108,1,48,28,1435536408
5314,5,ISIP_5,109,1,48,25,1436034080
5314,5,ISIP_5,110,1,48,24,1436551200
5314,5,ISIP_5,111,1,48,18,1437063148
5314,5,ISIP_5,112,1,48,27,1437580868
5314,5,ISIP_5,113,1,48,23,1438121548
5314,5,ISIP_5,114,1,48,33,1438597456
5314,5,ISIP_5,115,1,48,30,1439095200
5314,5,ISIP_5,116,1,48,29,1439607308
5314,5,ISIP_5,117,1,48,24,1440142828
5314,5,ISIP_5,118,1,48,27,1440621496
5314,5,ISIP_5,119,1,48,24,1441126428
5314,5,ISIP_5,120,1,48,23,1441632476
5314,5,ISIP_5,121,1,48,28,1442130224
5314,5,ISIP_5,122,1,48,27,1442640012
5314,5,ISIP_5,123,1,48,32,1443120004
5314,5,ISIP_5,124,1,48,31,1443616180
5314,5,ISIP_5,125,1,48,22,1444080564
5314,5,ISIP_5,126,1,48,27,1444627004
5314,5,ISIP_5,127,1,48,29,1445141584
5314,5,ISIP_5,128,1,48,30,1445638728
5314,5,ISIP_5,129,1,48,32,1446134156
5314,5,ISIP_5,130,1,48,29,1446654564
5314,5,ISIP_5,131,1,48,33,1447162556
5314,5,ISIP_5,132,1,48,29,1447690684
5314,5,ISIP_5,133,1,48,23,1448225676
5314,5,ISIP_5,134,1,48,29,1448724996
5314,5,ISIP_5,135,1,48,34,1449206284
5314,5,ISIP_5,136,1,48,31,1449721604
5314,5,ISIP_5,137,1,48,27,1450238280
5314,5,ISIP_5,138,1,48,30,1450762196
5314,5,ISIP_5,139,1,48,25,1451276552
5314,5,ISIP_5,140,1,48,27,1451771528
5314,5,ISIP_5,141,1,48,31,1452303008
5314,5,ISIP_5,142,1,48,27,1452799928
5314,5,ISIP_5,143,1,48,35,1453331564
5314,5,ISIP_5,144,1,48,32,1453849572
5314,5,ISIP_5,145,1,48,27,1454351884
5314,5,ISIP_5,146,1,48,32,1454834224
5314,5,ISIP_5,147,1,48,30,1455375948
5314,5,ISIP_5,148,1,48,38,1455882220
5314,5,ISIP_5,149,1,48,30,1456384456
5314,5,ISIP_5,150,1,48,22,1456912720
5314,5,ISIP_5,151,1,48,34,1457393112
5314,5,ISIP_5,152,1,48,28,1457958252
5314,5,ISIP_5,153,1,48,26,1458458240
5314,5,ISIP_5,154,1,48,29,1458979544
5314,5,ISIP_5,155,1,48,27,1459502424
5314,5,ISIP_5,156,1,48,27,1460007200
5314,5,ISIP_5,157,1,48,29,1460548804
5314,5,ISIP_5,158,1,48,29,1461048988
5314,5,ISIP_5,159,1,48,29,1461567180
5314,5,ISIP_5,160,1,48,27,1462073428
5314,5,ISIP_5,161,1,48,29,1462576632
5314,5,ISIP_5,162,1,48,31,1463094648
5314,5,ISIP_5,163,1,48,27,1463608024
5314,5,ISIP_5,164,1,48,35,1464129884
5314,5,ISIP_5,165,1,48,31,1464647372
5314,5,ISIP_5,166,1,48,31,1465155364
5314,5,ISIP_5,167,1,48,30,1465698312
5314,5,ISIP_5,168,1,48,32,1466206148
5314,5,ISIP_5,169,1,48,30,1466697684
5314,5,ISIP_5,170,1,48,30,1467204408
5314,5,ISIP_5,171,1,48,17,1467733124
5314,5,ISIP_5,172,1,48,30,1468237672
5314,5,ISIP_5,173,1,48,35,1468742300
5314,5,ISIP_5,174,1,48,37,1469237260
5314,5,ISIP_5,175,1,48,30,1469753100
5314,5,ISIP_5,176,1,48,31,1470273384
5314,5,ISIP_5,177,1,48,29,1470792224
5314,5,ISIP_5,178,1,48,26,1471298800
5314,5,ISIP_5,179,1,48,29,1471810904
5314,5,ISIP_5,180,1,48,34,1472334676
5314,5,ISIP_5,181,1,48,24,1472869000
5314,5,ISIP_5,182,1,48,35,1473356572
5314,5,ISIP_5,183,1,48,36,1473851900
5314,5,ISIP_5,184,1,48,39,1474377544
5314,5,ISIP_5,185,1,48,37,1474865320
5314,5,ISIP_5,186,1,48,38,1475369868
5314,5,ISIP_5,187,1,48,40,1475892896
5314,5,ISIP_5,188,1,48,41,1476392512
5314,5,ISIP_5,189,1,48,39,1476869912
5314,5,ISIP_5,190,1,48,33,1477381276
5314,5,ISIP_5,191,1,48,39,1477861812
5314,5,ISIP_5,192,1,48,39,1478367712
5314,5,ISIP_5,193,1,48,41,1478858352
5314,5,ISIP_5,194,1,48,34,1479335900
5314,5,ISIP_5,195,1,48,32,1479839784
5314,5,ISIP_5,196,1,48,32,1480360268
5314,5,ISIP_5,197,1,48,29,1480884564
5314,5,ISIP_5,0,9999,9999,9999,1401185356
5314,5,ISIP_5,1,9999,9999,9999,1401686120
5314,5,ISIP_5,2,9999,9999,9999,1402185812
5314,5,ISIP_5,3,9999,9999,9999,1402685556
5314,5,ISIP_5,4,9999,9999,9999,1403185228
5314,5,ISIP_5,5,9999,9999,9999,1403685948
5314,5,ISIP_5,6,9999,9999,9999,1404185720
5314,5,ISIP_5,7,9999,9999,9999,1404685408
5314,5,ISIP_5,8,9999,9999,9999,1405185104
5314,5,ISIP_5,9,9999,9999,9999,1405685852
5314,5,ISIP_5,10,9999,9999,9999,1406185540
5314,5,ISIP_5,11,9999,9999,9999,1406685236
5314,5,ISIP_5,12,9999,9999,9999,1407185976
5314,5,ISIP_5,13,9999,9999,9999,1407685752
5314,5,ISIP_5,14,9999,9999,9999,1408185448
5314,5,ISIP_5,15,9999,9999,9999,1408685144
5314,5,ISIP_5,16,9999,9999,9999,1409185884
5314,5,ISIP_5,17,9999,9999,9999,1409685580
5314,5,ISIP_5,18,9999,9999,9999,1410185276
5314,5,ISIP_5,19,9999,9999,9999,1410686016
5314,5,ISIP_5,20,9999,9999,9999,1411185712
5314,5,ISIP_5,21,9999,9999,9999,1411685476
5314,5,ISIP_5,22,9999,9999,9999,1412185172
5314,5,ISIP_5,23,9999,9999,9999,1412685916
5314,5,ISIP_5,24,9999,9999,9999,1413185608
5314,5,ISIP_5,25,9999,9999,9999,1413685356
5314,5,ISIP_5,26,9999,9999,9999,1414186096
5314,5,ISIP_5,27,9999,9999,9999,1414685796
5314,5,ISIP_5,28,9999,9999,9999,1415185484
5314,5,ISIP_5,29,9999,9999,9999,1415685188
5314,5,ISIP_5,30,9999,9999,9999,1416185924
5314,5,ISIP_5,31,9999,9999,9999,1416685620
5314,5,ISIP_5,32,9999,9999,9999,1417185392
5314,5,ISIP_5,33,9999,9999,9999,1417686132
5314,5,ISIP_5,34,9999,9999,9999,1418185824
5314,5,ISIP_5,35,9999,9999,9999,1418685524
5314,5,ISIP_5,36,9999,9999,9999,1419185220
5314,5,ISIP_5,37,9999,9999,9999,1419685964
5314,5,ISIP_5,38,9999,9999,9999,1420185652
5314,5,ISIP_5,39,9999,9999,9999,1420685420
5314,5,ISIP_5,40,9999,9999,9999,1421185124
5314,5,ISIP_5,41,9999,9999,9999,1421685820
5314,5,ISIP_5,42,9999,9999,9999,1422185552
5314,5,ISIP_5,43,9999,9999,9999,1422685244
5314,5,ISIP_5,44,9999,9999,9999,1423185980
5314,5,ISIP_5,45,9999,9999,9999,1423685748
5314,5,ISIP_5,46,9999,9999,9999,1424185412
5314,5,ISIP_5,47,9999,9999,9999,1424685104
5314,5,ISIP_5,48,9999,9999,9999,1425185840
5314,5,ISIP_5,49,9999,9999,9999,1425685608
5314,5,ISIP_5,50,9999,9999,9999,1426185296
5314,5,ISIP_5,51,9999,9999,9999,1426686036
5314,5,ISIP_5,52,9999,9999,9999,1427185728
5314,5,ISIP_5,53,9999,9999,9999,1427685492
5314,5,ISIP_5,54,9999,9999,9999,1428185184
5314,5,ISIP_5,55,9999,9999,9999,1428685920
5314,5,ISIP_5,56,9999,9999,9999,1429185608
5314,5,ISIP_5,57,9999,9999,9999,1429685300
5314,5,ISIP_5,58,9999,9999,9999,1430186040
5314,5,ISIP_5,59,9999,9999,9999,1430685804
5314,5,ISIP_5,60,9999,9999,9999,1431185496
5314,5,ISIP_5,61,9999,9999,9999,1431685188
5314,5,ISIP_5,62,9999,9999,9999,1432185924
5314,5,ISIP_5,63,9999,9999,9999,1432685688
5314,5,ISIP_5,64,9999,9999,9999,1433185380
5314,5,ISIP_5,65,9999,9999,9999,1433686120
5314,5,ISIP_5,66,9999,9999,9999,1434185808
5314,5,ISIP_5,67,9999,9999,9999,1434685548
5314,5,ISIP_5,68,9999,9999,9999,1435185240
5314,5,ISIP_5,69,9999,9999,9999,1435685976
5314,5,ISIP_5,70,9999,9999,9999,1436185668
5314,5,ISIP_5,71,9999,9999,9999,1436685432
5314,5,ISIP_5,72,9999,9999,9999,1437185124
5314,5,ISIP_5,73,9999,9999,9999,1437685860
5314,5,ISIP_5,74,9999,9999,9999,1438185568
5314,5,ISIP_5,75,9999,9999,9999,1438685256
5314,5,ISIP_5,76,9999,9999,9999,1439185996
5314,5,ISIP_5,77,9999,9999,9999,1439685688
5314,5,ISIP_5,78,9999,9999,9999,1440185452
5314,5,ISIP_5,79,9999,9999,9999,1440685144
5314,5,ISIP_5,80,9999,9999,9999,1441185880
5314,5,ISIP_5,81,9999,9999,9999,1441685572
5314,5,ISIP_5,82,9999,9999,9999,1442185264
5314,5,ISIP_5,83,9999,9999,9999,1442686000
5314,5,ISIP_5,84,9999,9999,9999,1443185768
5314,5,ISIP_5,85,9999,9999,9999,1443685460
5314,5,ISIP_5,86,9999,9999,9999,1444185208
5314,5,ISIP_5,87,9999,9999,9999,1444685888
5314,5,ISIP_5,88,9999,9999,9999,1445185652
5314,5,ISIP_5,89,9999,9999,9999,1445685316
5314,5,ISIP_5,90,9999,9999,9999,1446186056
5314,5,ISIP_5,91,9999,9999,9999,1446685744
5314,5,ISIP_5,92,9999,9999,9999,1447185512
5314,5,ISIP_5,93,9999,9999,9999,1447685208
5314,5,ISIP_5,94,9999,9999,9999,1448185944
5314,5,ISIP_5,95,9999,9999,9999,1448685636
5314,5,ISIP_5,96,9999,9999,9999,1449185400
5314,5,ISIP_5,97,9999,9999,9999,1449686136
5314,5,ISIP_5,98,9999,9999,9999,1450185828
5314,5,ISIP_5,99,9999,9999,9999,1450685516
5314,5,ISIP_5,100,9999,9999,9999,1451185208
5314,5,ISIP_5,101,9999,9999,9999,1451685944
5314,5,ISIP_5,102,9999,9999,9999,1452185708
5314,5,ISIP_5,103,9999,9999,9999,1452685400
5314,5,ISIP_5,104,9999,9999,9999,1453185088
5314,5,ISIP_5,105,9999,9999,9999,1453685828
5314,5,ISIP_5,106,9999,9999,9999,1454185592
5314,5,ISIP_5,107,9999,9999,9999,1454685284
5314,5,ISIP_5,108,9999,9999,9999,1455186020
5314,5,ISIP_5,109,9999,9999,9999,1455685712
5314,5,ISIP_5,110,9999,9999,9999,1456185452
5314,5,ISIP_5,111,9999,9999,9999,1456685144
5314,5,ISIP_5,112,9999,9999,9999,1457185880
5314,5,ISIP_5,113,9999,9999,9999,1457685568
5314,5,ISIP_5,114,9999,9999,9999,1458185336
5314,5,ISIP_5,115,9999,9999,9999,1458686072
5314,5,ISIP_5,116,9999,9999,9999,1459185760
5314,5,ISIP_5,117,9999,9999,9999,1459685452
5314,5,ISIP_5,118,9999,9999,9999,1460185144
5314,5,ISIP_5,119,9999,9999,9999,1460685880
5314,5,ISIP_5,120,9999,9999,9999,1461185644
5314,5,ISIP_5,121,9999,9999,9999,1461685336
5314,5,ISIP_5,122,9999,9999,9999,1462186072
5314,5,ISIP_5,123,9999,9999,9999,1462685760
5314,5,ISIP_5,124,9999,9999,9999,1463185468
5314,5,ISIP_5,125,9999,9999,9999,1463685232
5314,5,ISIP_5,126,9999,9999,9999,1464185968
5314,5,ISIP_5,127,9999,9999,9999,1464685660
5314,5,ISIP_5,128,9999,9999,9999,1465185352
5314,5,ISIP_5,129,9999,9999,9999,1465686100
5314,5,ISIP_5,130,9999,9999,9999,1466185788
5314,5,ISIP_5,131,9999,9999,9999,1466685552
5314,5,ISIP_5,132,9999,9999,9999,1467185220
5314,5,ISIP_5,133,9999,9999,9999,1467685956
5314,5,ISIP_5,134,9999,9999,9999,1468185648
5314,5,ISIP_5,135,9999,9999,9999,1468685412
5314,5,ISIP_5,136,9999,9999,9999,1469185104
5314,5,ISIP_5,137,9999,9999,9999,1469685840
5314,5,ISIP_5,138,9999,9999,9999,1470185532
5314,5,ISIP_5,139,9999,9999,9999,1470685296
5314,5,ISIP_5,140,9999,9999,9999,1471186032
5314,5,ISIP_5,141,9999,9999,9999,1471685728
5314,5,ISIP_5,142,9999,9999,9999,1472185416
5314,5,ISIP_5,143,9999,9999,9999,1472685108
5314,5,ISIP_5,144,9999,9999,9999,1473185844
5314,5,ISIP_5,145,9999,9999,9999,1473685608
5314,5,ISIP_5,146,9999,9999,9999,1474185276
5314,5,ISIP_5,147,9999,9999,9999,1474686012
5314,5,ISIP_5,148,9999,9999,9999,1475185776
5314,5,ISIP_5,149,9999,9999,9999,1475685468
5314,5,ISIP_5,150,9999,9999,9999,1476185156
5314,5,ISIP_5,151,9999,9999,9999,1476685896
5314,5,ISIP_5,152,9999,9999,9999,1477185584
5314,5,ISIP_5,153,9999,9999,9999,1477685324
5314,5,ISIP_5,154,9999,9999,9999,1478186060
5314,5,ISIP_5,155,9999,9999,9999,1478685752
5314,5,ISIP_5,156,9999,9999,9999,1479185516
5314,5,ISIP_5,157,9999,9999,9999,1479685208
5314,5,ISIP_5,158,9999,9999,9999,1480185944
5314,5,ISIP_5,159,9999,9999,9999,1480685636
5315,3,ISIP_8,0,5,42,127,1503686116
5315,3,ISIP_8,1,5,42,127,1504485868
5315,3,ISIP_8,2,1,48,19,1504647512
5315,3,ISIP_8,3,1,48,34,1505267536
5315,3,ISIP_8,4,5,42,127,1505285372
5315,3,ISIP_8,5,1,48,31,1506003172
5315,3,ISIP_8,6,5,42,127,1506086228
5315,3,ISIP_8,7,1,48,29,1506794604
5315,3,ISIP_8,8,5,42,127,1506886060
5315,3,ISIP_8,9,1,48,28,1507630092
5315,3,ISIP_8,10,5,42,127,1507685796
5315,3,ISIP_8,11,1,48,28,1508409776
5315,3,ISIP_8,12,5,42,127,1508485352
5315,3,ISIP_8,13,1,48,24,1509209140
5315,3,ISIP_8,14,5,42,127,1509286208
5315,3,ISIP_8,15,1,48,27,1510029660
5315,3,ISIP_8,16,5,42,127,1510086164
5315,3,ISIP_8,17,1,48,28,1510833732
5315,3,ISIP_8,18,5,42,127,1510885824
5315,3,ISIP_8,19,1,48,29,1511631972
5315,3,ISIP_8,20,5,42,127,1511685336
5315,3,ISIP_8,21,1,48,30,1512439112
5315,3,ISIP_8,22,5,42,127,1512486192
5315,3,ISIP_8,23,1,48,30,1513257392
5315,3,ISIP_8,24,5,42,127,1513286172
5315,3,ISIP_8,25,1,48,32,1514079592
5315,3,ISIP_8,26,5,42,127,1514085684
5315,3,ISIP_8,27,5,42,127,1514885424
5315,3,ISIP_8,28,1,48,39,1514917784
5315,3,ISIP_8,29,5,42,127,1515686280
5315,3,ISIP_8,30,1,48,33,1515712212
5315,3,ISIP_8,31,5,42,127,1516485940
5315,3,ISIP_8,32,1,48,34,1516523840
5315,3,ISIP_8,33,5,42,127,1517285896
5315,3,ISIP_8,34,1,48,30,1517328884
5315,3,ISIP_8,35,5,42,127,1518085404
5315,3,ISIP_8,36,1,48,31,1518113428
5315,3,ISIP_8,37,1,48,31,1518880088
5315,3,ISIP_8,38,5,42,127,1518886252
5315,3,ISIP_8,39,5,42,127,1519686016
5315,3,ISIP_8,40,1,48,24,1519688108
5315,3,ISIP_8,41,5,42,127,1520485824
5315,3,ISIP_8,42,1,48,35,1520486792
5315,3,ISIP_8,43,1,48,31,1521254104
5315,3,ISIP_8,44,5,42,127,1521285480
5315,3,ISIP_8,45,1,48,29,1522053392
5315,3,ISIP_8,46,5,42,127,1522086184
5315,3,ISIP_8,47,1,48,31,1522860160
5315,3,ISIP_8,48,5,42,127,1522885920
5315,3,ISIP_8,49,1,48,32,1523658320
5315,3,ISIP_8,50,5,42,127,1523685952
5315,3,ISIP_8,51,1,48,35,1524457980
5315,3,ISIP_8,52,5,42,127,1524485684
5315,3,ISIP_8,53,1,48,34,1525244844
5315,3,ISIP_8,54,5,42,127,1525286168
5315,3,ISIP_8,55,1,48,34,1526077888
5315,3,ISIP_8,56,5,42,127,1526085852
5315,3,ISIP_8,57,1,48,24,1526884384
5315,3,ISIP_8,58,5,42,127,1526885808
5315,3,ISIP_8,59,1,48,31,1527687916
5315,3,ISIP_8,60,1,48,33,1528504024
5315,3,ISIP_8,61,1,48,22,1529292532
5315,3,ISIP_8,62,1,48,29,1530119640
5315,3,ISIP_8,63,1,48,24,1530898652
5315,3,ISIP_8,64,1,48,28,1531726448
5315,3,ISIP_8,65,1,48,23,1532538448
5315,3,ISIP_8,66,1,48,30,1533382452
5315,3,ISIP_8,67,1,48,23,1534226692
5315,3,ISIP_8,68,1,48,23,1535051200
5315,3,ISIP_8,69,1,48,31,1535914212
5315,3,ISIP_8,70,1,48,35,1536722836
5315,3,ISIP_8,71,1,48,41,1537637032
5315,3,ISIP_8,72,1,48,33,1538473412
5315,3,ISIP_8,73,1,48,26,1539275388
5315,3,ISIP_8,74,1,48,27,1540085288
5315,3,ISIP_8,75,1,48,22,1540937028
5315,3,ISIP_8,76,1,48,24,1541771388
5315,3,ISIP_8,77,1,48,27,1542598640
5315,3,ISIP_8,78,1,48,23,1543430832
5315,3,ISIP_8,79,1,48,31,1544296636
5315,3,ISIP_8,80,1,48,41,1545152760
5315,3,ISIP_8,81,1,48,31,1546862368
5315,3,ISIP_8,82,1,48,44,1547665836
5315,3,ISIP_8,83,1,48,41,1548451204
5315,3,ISIP_8,84,1,48,40,1549248544
5315,3,ISIP_8,85,1,48,43,1550061584
5315,3,ISIP_8,86,1,48,42,1550827128
5315,3,ISIP_8,87,1,48,39,1551679992
5315,3,ISIP_8,88,1,48,40,1552509504
5315,3,ISIP_8,89,1,48,35,1553285372
5315,3,ISIP_8,90,1,48,38,1554150996
5315,3,ISIP_8,91,1,48,37,1554995456
5315,3,ISIP_8,92,1,48,37,1555812188
5315,3,ISIP_8,93,1,48,40,1556645500
5315,3,ISIP_8,94,1,48,36,1557498192
5315,3,ISIP_8,95,1,48,26,1558341700
5315,3,ISIP_8,96,1,48,41,1559189000
5315,3,ISIP_8,97,1,48,41,1560014160
5315,3,ISIP_8,98,1,48,38,1560853160
5315,3,ISIP_8,99,1,48,50,1561703628
5315,3,ISIP_8,100,1,48,39,1562593564
5315,3,ISIP_8,101,1,48,42,1563429344
5315,3,ISIP_8,102,1,48,38,1564324240
5315,3,ISIP_8,103,1,48,43,1565166300
5315,3,ISIP_8,104,1,48,42,1566053944
5315,3,ISIP_8,105,1,48,43,1566924000
5315,3,ISIP_8,106,1,48,42,1567801392
5315,3,ISIP_8,107,1,48,44,1568658716
5315,3,ISIP_8,108,1,48,42,1569496664
5315,3,ISIP_8,109,1,48,38,1570335736
5315,3,ISIP_8,110,1,48,40,1571252328
5315,3,ISIP_8,111,1,48,42,1572129920
5315,3,ISIP_8,112,1,48,44,1572972452
5315,3,ISIP_8,113,1,48,40,1573855060
5315,3,ISIP_8,114,1,48,32,1574763268
5315,3,ISIP_8,115,1,48,40,1575663152
5315,3,ISIP_8,116,1,48,33,1576536596
5315,3,ISIP_8,117,1,48,40,1577395568
5315,3,ISIP_8,118,1,48,38,1578292904
5315,3,ISIP_8,119,1,48,39,1579197456
5315,3,ISIP_8,120,1,48,42,1580057168
5315,3,ISIP_8,121,1,48,40,1580936360
5315,3,ISIP_8,122,1,48,41,1581815900
5315,3,ISIP_8,123,1,48,43,1582680204
5315,3,ISIP_8,124,1,48,37,1583556148
5315,3,ISIP_8,125,1,48,42,1584465480
5315,3,ISIP_8,126,1,48,40,1585380416
5315,3,ISIP_8,127,1,48,40,1586200260
5315,3,ISIP_8,128,1,48,41,1587070400
5315,3,ISIP_8,129,1,48,39,1587942232
5315,3,ISIP_8,130,1,48,35,1588828152
5315,3,ISIP_8,131,1,48,39,1589667376
5315,3,ISIP_8,132,1,48,43,1590509216
5315,3,ISIP_8,133,1,48,42,1591347692
5315,3,ISIP_8,134,1,48,40,1592244980
5315,3,ISIP_8,135,1,48,45,1593078296
5315,3,ISIP_8,136,1,48,42,1593929656
5315,3,ISIP_8,137,1,48,36,1594814280
5315,3,ISIP_8,138,1,48,47,1595696976
5315,3,ISIP_8,139,1,48,37,1596531812
5315,3,ISIP_8,140,1,48,40,1597386440
5315,3,ISIP_8,141,1,48,43,1598225516
5315,3,ISIP_8,142,1,48,41,1599172620
5315,3,ISIP_8,143,1,48,40,1600062728
5315,3,ISIP_8,144,1,48,42,1600881684
5315,3,ISIP_8,145,1,48,41,1601752172
5315,3,ISIP_8,146,1,48,38,1602616844
5315,3,ISIP_8,147,1,48,40,1603459732
5315,3,ISIP_8,148,1,48,40,1604334860
5315,3,ISIP_8,149,1,48,45,1605192576
5315,3,ISIP_8,150,1,48,43,1606064712
5315,3,ISIP_8,151,1,48,43,1606955036
5315,3,ISIP_8,152,1,48,39,1607860256
5315,3,ISIP_8,153,1,48,35,1608758740
5315,3,ISIP_8,154,1,48,36,1609658400
5315,3,ISIP_8,155,1,48,35,1610538760
5315,3,ISIP_8,156,1,48,40,1611474568
5315,3,ISIP_8,157,1,48,37,1612351596
5315,3,ISIP_8,158,1,48,38,1613266136
5315,3,ISIP_8,159,1,48,39,1614171296
5315,3,ISIP_8,160,1,48,38,1615060332
5315,3,ISIP_8,161,1,48,42,1615953804
5315,3,ISIP_8,162,1,48,41,1616863036
5315,3,ISIP_8,163,1,48,39,1617720464
5315,3,ISIP_8,164,1,48,42,1618615780
5315,3,ISIP_8,165,1,48,42,1619508588
5315,3,ISIP_8,166,1,48,38,1620407196
5315,3,ISIP_8,167,1,48,37,1621288472
5315,3,ISIP_8,168,1,48,40,1622226820
5315,3,ISIP_8,169,1,48,38,1623156876
5315,3,ISIP_8,0,9999,9999,9999,1503683676
5315,3,ISIP_8,1,9999,9999,9999,1504483432
5315,3,ISIP_8,2,9999,9999,9999,1505283160
5315,3,ISIP_8,3,9999,9999,9999,1506083940
5315,3,ISIP_8,4,9999,9999,9999,1506883700
5315,3,ISIP_8,5,9999,9999,9999,1507683432
5315,3,ISIP_8,6,9999,9999,9999,1508483140
5315,3,ISIP_8,7,9999,9999,9999,1509283920
5315,3,ISIP_8,8,9999,9999,9999,1510083652
5315,3,ISIP_8,9,9999,9999,9999,1510883388
5315,3,ISIP_8,10,9999,9999,9999,1511683124
5315,3,ISIP_8,11,9999,9999,9999,1512483904
5315,3,ISIP_8,12,9999,9999,9999,1513283660
5315,3,ISIP_8,13,9999,9999,9999,1514083396
5315,3,ISIP_8,14,9999,9999,9999,1514883136
5315,3,ISIP_8,15,9999,9999,9999,1515683916
5315,3,ISIP_8,16,9999,9999,9999,1516483652
5315,3,ISIP_8,17,9999,9999,9999,1517283384
5315,3,ISIP_8,18,9999,9999,9999,1518083192
5315,3,ISIP_8,19,9999,9999,9999,1518883888
5315,3,ISIP_8,20,9999,9999,9999,1519683656
5315,3,ISIP_8,21,9999,9999,9999,1520483388
5315,3,ISIP_8,22,9999,9999,9999,1521283192
5315,3,ISIP_8,23,9999,9999,9999,1522083896
5315,3,ISIP_8,24,9999,9999,9999,1522883632
5315,3,ISIP_8,25,9999,9999,9999,1523683440
5315,3,ISIP_8,26,9999,9999,9999,1524483176
5315,3,ISIP_8,27,9999,9999,9999,1525283952
5315,3,ISIP_8,28,9999,9999,9999,1526083636
5315,3,ISIP_8,29,9999,9999,9999,1526883376
5315,3,ISIP_8,30,9999,9999,9999,1527683184
5315,3,ISIP_8,31,9999,9999,9999,1528483888
5315,3,ISIP_8,32,9999,9999,9999,1529283692
5315,3,ISIP_8,33,9999,9999,9999,1530083420
5315,3,ISIP_8,34,9999,9999,9999,1530883148
5315,3,ISIP_8,35,9999,9999,9999,1531683924
5315,3,ISIP_8,36,9999,9999,9999,1532483676
5315,3,ISIP_8,37,9999,9999,9999,1533283408
5315,3,ISIP_8,38,9999,9999,9999,1534083136
5315,3,ISIP_8,39,9999,9999,9999,1534883912
5315,3,ISIP_8,40,9999,9999,9999,1535683640
5315,3,ISIP_8,41,9999,9999,9999,1536483444
5315,3,ISIP_8,42,9999,9999,9999,1537283172
5315,3,ISIP_8,43,9999,9999,9999,1538083948
5315,3,ISIP_8,44,9999,9999,9999,1538883704
5315,3,ISIP_8,45,9999,9999,9999,1539683432
5315,3,ISIP_8,46,9999,9999,9999,1540483160
5315,3,ISIP_8,47,9999,9999,9999,1541283936
5315,3,ISIP_8,48,9999,9999,9999,1542083664
5315,3,ISIP_8,49,9999,9999,9999,1542883396
5315,3,ISIP_8,50,9999,9999,9999,1543683124
5315,3,ISIP_8,51,9999,9999,9999,1544483900
5315,3,ISIP_8,52,9999,9999,9999,1545283656
5315,3,ISIP_8,53,9999,9999,9999,1546083408
5315,3,ISIP_8,54,9999,9999,9999,1546883152
5315,3,ISIP_8,55,9999,9999,9999,1547683928
5315,3,ISIP_8,56,9999,9999,9999,1548483656
5315,3,ISIP_8,57,9999,9999,9999,1549283388
5315,3,ISIP_8,58,9999,9999,9999,1550083188
5315,3,ISIP_8,59,9999,9999,9999,1550883888
5315,3,ISIP_8,60,9999,9999,9999,1551683644
5315,3,ISIP_8,61,9999,9999,9999,1552483380
5315,3,ISIP_8,62,9999,9999,9999,1553283184
5315,3,ISIP_8,63,9999,9999,9999,1554083960
5315,3,ISIP_8,64,9999,9999,9999,1554883688
5315,3,ISIP_8,65,9999,9999,9999,1555683416
5315,3,ISIP_8,66,9999,9999,9999,1556483148
5315,3,ISIP_8,67,9999,9999,9999,1557283924
5315,3,ISIP_8,68,9999,9999,9999,1558083676
5315,3,ISIP_8,69,9999,9999,9999,1558883408
5315,3,ISIP_8,70,9999,9999,9999,1559683136
5315,3,ISIP_8,71,9999,9999,9999,1560483916
5315,3,ISIP_8,72,9999,9999,9999,1561283644
5315,3,ISIP_8,73,9999,9999,9999,1562083448
5315,3,ISIP_8,74,9999,9999,9999,1562883176
5315,3,ISIP_8,75,9999,9999,9999,1563683952
5315,3,ISIP_8,76,9999,9999,9999,1564483632
5315,3,ISIP_8,77,9999,9999,9999,1565283436
5315,3,ISIP_8,78,9999,9999,9999,1566083180
5315,3,ISIP_8,79,9999,9999,9999,1566883888
5315,3,ISIP_8,80,9999,9999,9999,1567683692
5315,3,ISIP_8,81,9999,9999,9999,1568483420
5315,3,ISIP_8,82,9999,9999,9999,1569283152
5315,3,ISIP_8,83,9999,9999,9999,1570083924
5315,3,ISIP_8,84,9999,9999,9999,1570883680
5315,3,ISIP_8,85,9999,9999,9999,1571683408
5315,3,ISIP_8,86,9999,9999,9999,1572483136
5315,3,ISIP_8,87,9999,9999,9999,1573283912
5315,3,ISIP_8,88,9999,9999,9999,1574083640
5315,3,ISIP_8,89,9999,9999,9999,1574883444
5315,3,ISIP_8,90,9999,9999,9999,1575683188
5315,3,ISIP_8,91,9999,9999,9999,1576483896
5315,3,ISIP_8,92,9999,9999,9999,1577283652
5315,3,ISIP_8,93,9999,9999,9999,1578083380
5315,3,ISIP_8,94,9999,9999,9999,1578883184
5315,3,ISIP_8,95,9999,9999,9999,1579683960
5315,3,ISIP_8,96,9999,9999,9999,1580483688
5315,3,ISIP_8,97,9999,9999,9999,1581283420
5315,3,ISIP_8,98,9999,9999,9999,1582083148
5315,3,ISIP_8,99,9999,9999,9999,1582883924
5315,3,ISIP_8,100,9999,9999,9999,1583683676
5315,3,ISIP_8,101,9999,9999,9999,1584483424
5315,3,ISIP_8,102,9999,9999,9999,1585283160
5315,3,ISIP_8,103,9999,9999,9999,1586083932
5315,3,ISIP_8,104,9999,9999,9999,1586883664
5315,3,ISIP_8,105,9999,9999,9999,1587683392
5315,3,ISIP_8,106,9999,9999,9999,1588483120
5315,3,ISIP_8,107,9999,9999,9999,1589283896
5315,3,ISIP_8,108,9999,9999,9999,1590083652
5315,3,ISIP_8,109,9999,9999,9999,1590883380
5315,3,ISIP_8,110,9999,9999,9999,1591683184
5315,3,ISIP_8,111,9999,9999,9999,1592483960
5315,3,ISIP_8,112,9999,9999,9999,1593283688
5315,3,ISIP_8,113,9999,9999,9999,1594083416
5315,3,ISIP_8,114,9999,9999,9999,1594883160
5315,3,ISIP_8,115,9999,9999,9999,1595683944
5315,3,ISIP_8,116,9999,9999,9999,1596483696
5315,3,ISIP_8,117,9999,9999,9999,1597283428
5315,3,ISIP_8,118,9999,9999,9999,1598083156
5315,3,ISIP_8,119,9999,9999,9999,1598883932
5315,3,ISIP_8,120,9999,9999,9999,1599683660
5315,3,ISIP_8,121,9999,9999,9999,1600483388
5315,3,ISIP_8,122,9999,9999,9999,1601283120
5315,3,ISIP_8,123,9999,9999,9999,1602083892
5315,3,ISIP_8,124,9999,9999,9999,1602883648
5315,3,ISIP_8,125,9999,9999,9999,1603683376
5315,3,ISIP_8,126,9999,9999,9999,1604483180
5315,3,ISIP_8,127,9999,9999,9999,1605283896
5315,3,ISIP_8,128,9999,9999,9999,1606083700
5315,3,ISIP_8,129,9999,9999,9999,1606883436
5315,3,ISIP_8,130,9999,9999,9999,1607683164
5315,3,ISIP_8,131,9999,9999,9999,1608483940
5315,3,ISIP_8,132,9999,9999,9999,1609283696
5315,3,ISIP_8,133,9999,9999,9999,1610083424
5315,3,ISIP_8,134,9999,9999,9999,1610883152
5315,3,ISIP_8,135,9999,9999,9999,1611683928
5315,3,ISIP_8,136,9999,9999,9999,1612483660
5315,3,ISIP_8,137,9999,9999,9999,1613283404
5315,3,ISIP_8,138,9999,9999,9999,1614083140
5315,3,ISIP_8,139,9999,9999,9999,1614883916
5315,3,ISIP_8,140,9999,9999,9999,1615683668
5315,3,ISIP_8,141,9999,9999,9999,1616483400
5315,3,ISIP_8,142,9999,9999,9999,1617283128
5315,3,ISIP_8,143,9999,9999,9999,1618083904
5315,3,ISIP_8,144,9999,9999,9999,1618883632
5315,3,ISIP_8,145,9999,9999,9999,1619683436
5315,3,ISIP_8,146,9999,9999,9999,1620483180
5315,3,ISIP_8,147,9999,9999,9999,1621283892
5315,3,ISIP_8,148,9999,9999,9999,1622083644
5315,3,ISIP_8,149,9999,9999,9999,1622883448
5316,11,Pattern_Practice,0,5,42,127,1748411920
5316,11,Pattern_Practice,1,5,42,127,1748911416
5316,11,Pattern_Practice,2,1,48,16,1749129676
5316,11,Pattern_Practice,3,1,38,19,1749136616
5316,11,Pattern_Practice,4,5,42,127,1749412184
5316,11,Pattern_Practice,5,1,48,14,1749504760
5316,11,Pattern_Practice,6,1,38,28,1749520148
5316,11,Pattern_Practice,7,5,42,127,1749911904
5316,11,Pattern_Practice,8,1,48,13,1749943896
5316,11,Pattern_Practice,9,1,38,16,1749956068
5316,11,Pattern_Practice,10,1,38,27,1749960836
5316,11,Pattern_Practice,11,1,48,18,1750396828
5316,11,Pattern_Practice,12,5,42,127,1750411748
5316,11,Pattern_Practice,13,1,48,17,1750630520
5316,11,Pattern_Practice,14,5,42,127,1750912252
5316,11,Pattern_Practice,15,1,38,45,1750918664
5316,11,Pattern_Practice,16,1,48,14,1751157196
5316,11,Pattern_Practice,17,5,42,127,1751412000
5316,11,Pattern_Practice,18,1,48,16,1751461944
5316,11,Pattern_Practice,19,1,48,21,1751669732
5316,11,Pattern_Practice,20,5,42,127,1751911972
5316,11,Pattern_Practice,21,1,48,19,1751956980
5316,11,Pattern_Practice,22,1,38,25,1751965040
5316,11,Pattern_Practice,23,1,38,41,1751969884
5316,11,Pattern_Practice,24,1,48,14,1752193052
5316,11,Pattern_Practice,25,5,42,127,1752411576
5316,11,Pattern_Practice,26,1,48,13,1752468324
5316,11,Pattern_Practice,27,1,48,19,1752679108
5316,11,Pattern_Practice,28,5,42,127,1752912296
5316,11,Pattern_Practice,29,1,38,30,1752959696
5316,11,Pattern_Practice,30,1,48,30,1752962892
5316,11,Pattern_Practice,31,1,48,34,1753192196
5316,11,Pattern_Practice,32,5,42,127,1753411924
5316,11,Pattern_Practice,33,1,48,33,1753463656
5316,11,Pattern_Practice,34,1,48,27,1753685808
5316,11,Pattern_Practice,35,5,42,127,1753911744
5316,11,Pattern_Practice,36,1,38,40,1753951960
5316,11,Pattern_Practice,37,1,48,27,1753958452
5316,11,Pattern_Practice,38,1,48,19,1754175864
5316,11,Pattern_Practice,39,5,42,127,1754412492
5316,11,Pattern_Practice,40,1,48,14,1754442764
5316,11,Pattern_Practice,41,1,48,19,1754657484
5316,11,Pattern_Practice,42,5,42,127,1754912064
5316,11,Pattern_Practice,43,1,38,29,1754941836
5316,11,Pattern_Practice,44,1,48,30,1754945032
5316,11,Pattern_Practice,45,1,48,15,1755176036
5316,11,Pattern_Practice,46,5,42,127,1755411764
5316,11,Pattern_Practice,47,1,48,21,1755646036
5316,11,Pattern_Practice,48,5,42,127,1755911460
5316,11,Pattern_Practice,49,1,38,46,1755931480
5316,11,Pattern_Practice,50,1,48,19,1755936776
5316,11,Pattern_Practice,51,1,48,16,1756158600
5316,11,Pattern_Practice,52,5,42,127,1756412208
5316,11,Pattern_Practice,53,1,48,14,1756431180
5316,11,Pattern_Practice,54,1,48,17,1756651016
5316,11,Pattern_Practice,55,5,42,127,1756912028
5316,11,Pattern_Practice,56,1,48,20,1756944548
5316,11,Pattern_Practice,57,1,38,37,1756958436
5316,11,Pattern_Practice,58,1,48,18,1757171656
5316,11,Pattern_Practice,59,5,42,127,1757411656
5316,11,Pattern_Practice,60,1,48,16,1757446488
5316,11,Pattern_Practice,61,1,48,14,1757667964
5316,11,Pattern_Practice,62,5,42,127,1757912372
5316,11,Pattern_Practice,63,1,48,17,1757953416
5316,11,Pattern_Practice,64,1,38,37,1757966108
5316,11,Pattern_Practice,65,1,48,16,1758175592
5316,11,Pattern_Practice,66,5,42,127,1758412144
5316,11,Pattern_Practice,67,1,48,15,1758659132
5316,11,Pattern_Practice,68,5,42,127,1758911844
5316,11,Pattern_Practice,69,1,38,30,1758942784
5316,11,Pattern_Practice,70,1,48,19,1758946508
5316,11,Pattern_Practice,71,5,42,127,1759411788
5316,11,Pattern_Practice,72,5,42,127,1759912252
5316,11,Pattern_Practice,73,1,38,56,1759927940
5316,11,Pattern_Practice,74,1,48,23,1759931132
5316,11,Pattern_Practice,75,1,48,19,1760410304
5316,11,Pattern_Practice,76,5,42,127,1760411968
5316,11,Pattern_Practice,77,1,48,19,1760653332
5316,11,Pattern_Practice,78,5,42,127,1760911572
5316,11,Pattern_Practice,79,1,38,22,1760931816
5316,11,Pattern_Practice,80,1,48,23,1760935020
5316,11,Pattern_Practice,81,5,42,127,1761411592
5316,11,Pattern_Practice,82,1,48,14,1761430576
5316,11,Pattern_Practice,83,1,48,16,1761661700
5316,11,Pattern_Practice,84,5,42,127,1761912168
5316,11,Pattern_Practice,85,1,38,49,1761919028
5316,11,Pattern_Practice,86,1,48,31,1761930972
5316,11,Pattern_Practice,87,5,42,127,1762411816
5316,11,Pattern_Practice,88,1,48,14,1762434828
5316,11,Pattern_Practice,89,1,48,19,1762649428
5316,11,Pattern_Practice,90,5,42,127,1762911788
5316,11,Pattern_Practice,91,1,48,18,1762934280
5316,11,Pattern_Practice,92,1,38,41,1762952808
5316,11,Pattern_Practice,93,5,42,127,1763412256
5316,11,Pattern_Practice,94,1,48,14,1763428540
5316,11,Pattern_Practice,95,1,48,14,1763674256
5316,11,Pattern_Practice,96,5,42,127,1763912080
5316,11,Pattern_Practice,97,1,48,17,1763915048
5316,11,Pattern_Practice,98,1,38,54,1763925500
5316,11,Pattern_Practice,99,1,48,15,1764407872
5316,11,Pattern_Practice,100,5,42,127,1764411792
5316,11,Pattern_Practice,101,1,48,24,1764633908
5316,11,Pattern_Practice,102,1,38,40,1764904600
5316,11,Pattern_Practice,103,5,42,127,1764911612
5316,11,Pattern_Practice,104,1,48,26,1764912580
5316,11,Pattern_Practice,105,1,48,16,1765121648
5316,11,Pattern_Practice,106,1,48,13,1765371476
5316,11,Pattern_Practice,107,1,48,22,1765375864
5316,11,Pattern_Practice,108,5,42,127,1765412328
5316,11,Pattern_Practice,109,1,48,22,1765581432
5316,11,Pattern_Practice,110,1,38,39,1765853996
5316,11,Pattern_Practice,111,1,48,34,1765865420
5316,11,Pattern_Practice,112,5,42,127,1765911832
5316,11,Pattern_Practice,113,1,48,13,1766091980
5316,11,Pattern_Practice,114,1,48,22,1766096516
5316,11,Pattern_Practice,115,1,48,15,1766348588
5316,11,Pattern_Practice,116,5,42,127,1766411604
5316,11,Pattern_Practice,117,1,48,19,1766900868
5316,11,Pattern_Practice,118,1,38,32,1766906752
5316,11,Pattern_Practice,119,5,42,127,1766912476
5316,11,Pattern_Practice,120,1,48,19,1767141988
5316,11,Pattern_Practice,121,1,48,16,1767411372
5316,11,Pattern_Practice,122,5,42,127,1767412940
5316,11,Pattern_Practice,123,1,48,16,1767644800
5316,11,Pattern_Practice,124,5,42,127,1767911724
5316,11,Pattern_Practice,125,1,48,23,1767925312
5316,11,Pattern_Practice,126,1,38,40,1767928660
5316,11,Pattern_Practice,127,1,48,18,1768149960
5316,11,Pattern_Practice,128,5,42,127,1768411572
5316,11,Pattern_Practice,129,1,38,32,1768468696
5316,11,Pattern_Practice,130,1,38,21,1768659136
5316,11,Pattern_Practice,131,5,42,127,1768912364
5316,11,Pattern_Practice,132,1,38,31,1768932836
5316,11,Pattern_Practice,133,5,42,127,1769411912
5316,11,Pattern_Practice,134,1,38,22,1769421240
5316,11,Pattern_Practice,135,1,38,18,1769657380
5316,11,Pattern_Practice,136,5,42,127,1769911732
5316,11,Pattern_Practice,137,1,38,29,1769926068
5316,11,Pattern_Practice,138,5,42,127,1770412324
5316,11,Pattern_Practice,139,1,38,21,1770431528
5316,11,Pattern_Practice,140,1,38,20,1770672748
5316,11,Pattern_Practice,141,5,42,127,1770912296
5316,11,Pattern_Practice,142,1,38,30,1770923348
5316,11,Pattern_Practice,143,1,38,22,1771170552
5316,11,Pattern_Practice,144,5,42,127,1771411892
5316,11,Pattern_Practice,145,1,38,24,1771424660
5316,11,Pattern_Practice,146,1,38,21,1771679804
5316,11,Pattern_Practice,147,5,42,127,1771911568
5316,11,Pattern_Practice,148,1,38,29,1771936008
5316,11,Pattern_Practice,149,5,42,127,1772412460
5316,11,Pattern_Practice,150,1,48,42,1772457540
5316,11,Pattern_Practice,151,1,48,27,1772689116
5316,11,Pattern_Practice,152,5,42,127,1772911908
5316,11,Pattern_Practice,153,1,38,33,1772959680
5316,11,Pattern_Practice,154,1,48,29,1772966540
5316,11,Pattern_Practice,155,5,42,127,1773411632
5316,11,Pattern_Practice,156,1,48,13,1773464488
5316,11,Pattern_Practice,157,1,48,20,1773694272
5316,11,Pattern_Practice,158,5,42,127,1773912348
5316,11,Pattern_Practice,159,1,48,26,1773956608
5316,11,Pattern_Practice,160,1,38,37,1773972820
5316,11,Pattern_Practice,161,5,42,127,1774412148
5316,11,Pattern_Practice,162,1,48,29,1774455060
5316,11,Pattern_Practice,163,1,48,35,1774684320
5316,11,Pattern_Practice,164,5,42,127,1774912044
5316,11,Pattern_Practice,165,1,48,32,1774929080
5316,11,Pattern_Practice,166,1,38,41,1774936008
5316,11,Pattern_Practice,167,1,48,18,1775196956
5316,11,Pattern_Practice,168,5,42,127,1775411596
5316,11,Pattern_Practice,169,1,48,21,1775450396
5316,11,Pattern_Practice,170,1,38,30,1775454188
5316,11,Pattern_Practice,171,1,48,27,1775713788
5316,11,Pattern_Practice,172,5,42,127,1775912244
5316,11,Pattern_Practice,173,1,38,31,1775961984
5316,11,Pattern_Practice,174,1,48,35,1775980968
5316,11,Pattern_Practice,175,5,42,127,1776412116
5316,11,Pattern_Practice,176,1,48,18,1776422636
5316,11,Pattern_Practice,177,1,48,25,1776684980
5316,11,Pattern_Practice,178,5,42,127,1776911640
5316,11,Pattern_Practice,179,1,38,37,1776944552
5316,11,Pattern_Practice,180,1,48,34,1776949472
5316,11,Pattern_Practice,181,1,48,31,1777406532
5316,11,Pattern_Practice,182,5,42,127,1777411356
5316,11,Pattern_Practice,183,1,48,40,1777653916
5316,11,Pattern_Practice,184,5,42,127,1777912156
5316,11,Pattern_Practice,185,1,48,31,1777930156
5316,11,Pattern_Practice,186,1,38,52,1777937168
5316,11,Pattern_Practice,187,1,48,19,1778398304
5316,11,Pattern_Practice,188,5,42,127,1778412020
5316,11,Pattern_Practice,189,1,48,23,1778677768
5316,11,Pattern_Practice,190,5,42,127,1778911628
5316,11,Pattern_Practice,191,1,38,39,1778926188
5316,11,Pattern_Practice,192,1,48,33,1778932676
5316,11,Pattern_Practice,193,1,48,18,1779181056
5316,11,Pattern_Practice,194,5,42,127,1779412296
5316,11,Pattern_Practice,195,1,48,18,1779426108
5316,11,Pattern_Practice,196,1,38,29,1779458852
5316,11,Pattern_Practice,197,1,48,23,1779727732
5316,11,Pattern_Practice,198,5,42,127,1779912148
5316,11,Pattern_Practice,199,1,38,37,1779974056
5316,11,Pattern_Practice,200,1,48,48,1779983236
5316,11,Pattern_Practice,201,5,42,127,1780411720
5316,11,Pattern_Practice,202,1,48,18,1780425012
5316,11,Pattern_Practice,203,1,48,35,1780693240
5316,11,Pattern_Practice,204,5,42,127,1780911316
5316,11,Pattern_Practice,205,1,38,48,1780938220
5316,11,Pattern_Practice,206,1,48,28,1780945676
5316,11,Pattern_Practice,207,1,48,16,1781399104
5316,11,Pattern_Practice,208,5,42,127,1781412152
5316,11,Pattern_Practice,209,1,48,14,1781625832
5316,11,Pattern_Practice,210,5,42,127,1781912128
5316,11,Pattern_Practice,211,1,38,42,1781922280
5316,11,Pattern_Practice,212,1,48,33,1781928840
5316,11,Pattern_Practice,213,1,48,36,1782404856
5316,11,Pattern_Practice,214,5,42,127,1782411696
5316,11,Pattern_Practice,215,1,48,42,1782680284
5316,11,Pattern_Practice,216,5,42,127,1782912276
5316,11,Pattern_Practice,217,1,48,31,1782926468
5316,11,Pattern_Practice,218,1,38,47,1782929812
5316,11,Pattern_Practice,219,1,48,25,1783200400
5316,11,Pattern_Practice,220,5,42,127,1783412124
5316,11,Pattern_Practice,221,1,48,31,1783433420
5316,11,Pattern_Practice,222,1,38,39,1783436692
5316,11,Pattern_Practice,223,1,48,33,1783711544
5316,11,Pattern_Practice,224,5,42,127,1783911896
5316,11,Pattern_Practice,225,1,48,44,1783969096
5316,11,Pattern_Practice,226,1,38,45,1783972292
5316,11,Pattern_Practice,227,5,42,127,1784411396
5316,11,Pattern_Practice,228,1,48,21,1784461712
5316,11,Pattern_Practice,229,1,48,24,1784707504
5316,11,Pattern_Practice,230,5,42,127,1784912264
5316,11,Pattern_Practice,231,1,38,47,1784964528
5316,11,Pattern_Practice,232,1,48,17,1785165212
5316,11,Pattern_Practice,233,5,42,127,1785412088
5316,11,Pattern_Practice,234,1,48,43,1785454400
5316,11,Pattern_Practice,235,1,48,24,1785704152
5316,11,Pattern_Practice,236,5,42,127,1785911760
5316,11,Pattern_Practice,237,1,38,48,1785961704
5316,11,Pattern_Practice,238,5,42,127,1786412352
5316,11,Pattern_Practice,239,1,48,36,1786499768
5316,11,Pattern_Practice,240,1,48,39,1786732768
5316,11,Pattern_Practice,241,5,42,127,1786912080
5316,11,Pattern_Practice,242,1,38,48,1787001836
5316,11,Pattern_Practice,243,5,42,127,1787412144
5316,11,Pattern_Practice,244,1,48,40,1787530104
5316,11,Pattern_Practice,245,1,48,42,1787764076
5316,11,Pattern_Practice,246,5,42,127,1787911668
5316,11,Pattern_Practice,247,1,38,46,1788026560
5316,11,Pattern_Practice,248,1,48,13,1788038660
5316,11,Pattern_Practice,0,9999,9999,9999,1748409412
5316,11,Pattern_Practice,1,9999,9999,9999,1748909128
5316,11,Pattern_Practice,2,9999,9999,9999,1749409896
5316,11,Pattern_Practice,3,9999,9999,9999,1749909620
5316,11,Pattern_Practice,4,9999,9999,9999,1750409312
5316,11,Pattern_Practice,5,9999,9999,9999,1750910040
5316,11,Pattern_Practice,6,9999,9999,9999,1751409712
5316,11,Pattern_Practice,7,9999,9999,9999,1751909464
5316,11,Pattern_Practice,8,9999,9999,9999,1752409140
5316,11,Pattern_Practice,9,9999,9999,9999,1752909936
5316,11,Pattern_Practice,10,9999,9999,9999,1753409636
5316,11,Pattern_Practice,11,9999,9999,9999,1753909308
5316,11,Pattern_Practice,12,9999,9999,9999,1754410104
5316,11,Pattern_Practice,13,9999,9999,9999,1754909776
5316,11,Pattern_Practice,14,9999,9999,9999,1755409476
5316,11,Pattern_Practice,15,9999,9999,9999,1755909176
5316,11,Pattern_Practice,16,9999,9999,9999,1756409920
5316,11,Pattern_Practice,17,9999,9999,9999,1756909668
5316,11,Pattern_Practice,18,9999,9999,9999,1757409368
5316,11,Pattern_Practice,19,9999,9999,9999,1757910084
5316,11,Pattern_Practice,20,9999,9999,9999,1758409784
5316,11,Pattern_Practice,21,9999,9999,9999,1758909556
5316,11,Pattern_Practice,22,9999,9999,9999,1759409204
5316,11,Pattern_Practice,23,9999,9999,9999,1759909968
5316,11,Pattern_Practice,24,9999,9999,9999,1760409708
5316,11,Pattern_Practice,25,9999,9999,9999,1760909360
5316,11,Pattern_Practice,26,9999,9999,9999,1761409084
5316,11,Pattern_Practice,27,9999,9999,9999,1761909880
5316,11,Pattern_Practice,28,9999,9999,9999,1762409528
5316,11,Pattern_Practice,29,9999,9999,9999,1762909276
5316,11,Pattern_Practice,30,9999,9999,9999,1763409968
5316,11,Pattern_Practice,31,9999,9999,9999,1763909716
5316,11,Pattern_Practice,32,9999,9999,9999,1764409432
5316,11,Pattern_Practice,33,9999,9999,9999,1764909104
5316,11,Pattern_Practice,34,9999,9999,9999,1765409892
5316,11,Pattern_Practice,35,9999,9999,9999,1765909620
5316,11,Pattern_Practice,36,9999,9999,9999,1766409316
5316,11,Pattern_Practice,37,9999,9999,9999,1766910040
5316,11,Pattern_Practice,38,9999,9999,9999,1767409764
5316,11,Pattern_Practice,39,9999,9999,9999,1767909436
5316,11,Pattern_Practice,40,9999,9999,9999,1768409136
5316,11,Pattern_Practice,41,9999,9999,9999,1768909928
5316,11,Pattern_Practice,42,9999,9999,9999,1769409624
5316,11,Pattern_Practice,43,9999,9999,9999,1769909296
5316,11,Pattern_Practice,44,9999,9999,9999,1770410036
5316,11,Pattern_Practice,45,9999,9999,9999,1770909788
5316,11,Pattern_Practice,46,9999,9999,9999,1771409460
5316,11,Pattern_Practice,47,9999,9999,9999,1771909208
5316,11,Pattern_Practice,48,9999,9999,9999,1772409948
5316,11,Pattern_Practice,49,9999,9999,9999,1772909624
5316,11,Pattern_Practice,50,9999,9999,9999,1773409344
5316,11,Pattern_Practice,51,9999,9999,9999,1773910136
5316,11,Pattern_Practice,52,9999,9999,9999,1774409784
5316,11,Pattern_Practice,53,9999,9999,9999,1774909536
5316,11,Pattern_Practice,54,9999,9999,9999,1775409236
5316,11,Pattern_Practice,55,9999,9999,9999,1775909960
5316,11,Pattern_Practice,56,9999,9999,9999,1776409680
5316,11,Pattern_Practice,57,9999,9999,9999,1776909428
5316,11,Pattern_Practice,58,9999,9999,9999,1777409144
5316,11,Pattern_Practice,59,9999,9999,9999,1777909868
5316,11,Pattern_Practice,60,9999,9999,9999,1778409584
5316,11,Pattern_Practice,61,9999,9999,9999,1778909264
5316,11,Pattern_Practice,62,9999,9999,9999,1779410012
5316,11,Pattern_Practice,63,9999,9999,9999,1779909712
5316,11,Pattern_Practice,64,9999,9999,9999,1780409432
5316,11,Pattern_Practice,65,9999,9999,9999,1780909104
5316,11,Pattern_Practice,66,9999,9999,9999,1781409868
5316,11,Pattern_Practice,67,9999,9999,9999,1781909620
5316,11,Pattern_Practice,68,9999,9999,9999,1782409336
5316,11,Pattern_Practice,69,9999,9999,9999,1782910064
5316,11,Pattern_Practice,70,9999,9999,9999,1783409764
5316,11,Pattern_Practice,71,9999,9999,9999,1783909464
5316,11,Pattern_Practice,72,9999,9999,9999,1784409184
5316,11,Pattern_Practice,73,9999,9999,9999,1784909904
5316,11,Pattern_Practice,74,9999,9999,9999,1785409652
5316,11,Pattern_Practice,75,9999,9999,9999,1785909324
5316,11,Pattern_Practice,76,9999,9999,9999,1786410068
5316,11,Pattern_Practice,77,9999,9999,9999,1786909792
5316,11,Pattern_Practice,78,9999,9999,9999,1787409488
5316,11,Pattern_Practice,79,9999,9999,9999,1787909232
5317,13,Improv_Metronome,0,5,42,127,1828357448
5317,13,Improv_Metronome,1,5,42,127,1828858212
5317,13,Improv_Metronome,2,1,48,21,1829345620
5317,13,Improv_Metronome,3,5,42,127,1829357848
5317,13,Improv_Metronome,4,1,48,42,1829856488
5317,13,Improv_Metronome,5,5,42,127,1829858136
5317,13,Improv_Metronome,6,1,38,49,1829868888
5317,13,Improv_Metronome,7,5,42,127,1830358328
5317,13,Improv_Metronome,8,1,48,31,1830359668
5317,13,Improv_Metronome,9,1,48,29,1830627356
5317,13,Improv_Metronome,10,5,42,127,1830858148
5317,13,Improv_Metronome,11,1,38,43,1830893280
5317,13,Improv_Metronome,12,1,48,45,1830909568
5317,13,Improv_Metronome,13,5,42,127,1831357872
5317,13,Improv_Metronome,14,1,48,22,1831387468
5317,13,Improv_Metronome,15,1,48,19,1831602364
5317,13,Improv_Metronome,16,5,42,127,1831857396
5317,13,Improv_Metronome,17,1,38,59,1831869040
5317,13,Improv_Metronome,18,1,48,44,1831872308
5317,13,Improv_Metronome,19,5,42,127,1832358236
5317,13,Improv_Metronome,20,1,48,13,1832369956
5317,13,Improv_Metronome,21,1,48,16,1832592332
5317,13,Improv_Metronome,22,1,48,29,1832850016
5317,13,Improv_Metronome,23,5,42,127,1832857904
5317,13,Improv_Metronome,24,1,38,32,1832867904
5317,13,Improv_Metronome,25,5,42,127,1833357868
5317,13,Improv_Metronome,26,1,48,18,1833602008
5317,13,Improv_Metronome,27,5,42,127,1833858684
5317,13,Improv_Metronome,28,1,48,21,1833870852
5317,13,Improv_Metronome,29,1,38,59,1833886240
5317,13,Improv_Metronome,30,5,42,127,1834358108
5317,13,Improv_Metronome,31,1,38,24,1834433252
5317,13,Improv_Metronome,32,5,42,127,1834857728
5317,13,Improv_Metronome,33,1,38,62,1834913652
5317,13,Improv_Metronome,34,5,42,127,1835357648
5317,13,Improv_Metronome,35,1,38,19,1835396816
5317,13,Improv_Metronome,36,5,42,127,1835858240
5317,13,Improv_Metronome,37,1,38,56,1835872124
5317,13,Improv_Metronome,38,1,38,41,1836350488
5317,13,Improv_Metronome,39,5,42,127,1836358000
5317,13,Improv_Metronome,40,5,42,127,1836857704
5317,13,Improv_Metronome,41,1,38,60,1836880564
5317,13,Improv_Metronome,42,5,42,127,1837357472
5317,13,Improv_Metronome,43,1,48,51,1837383252
5317,13,Improv_Metronome,44,1,48,40,1837610640
5317,13,Improv_Metronome,45,5,42,127,1837858092
5317,13,Improv_Metronome,46,1,38,69,1837887188
5317,13,Improv_Metronome,47,5,42,127,1838357788
5317,13,Improv_Metronome,48,1,48,44,1838419944
5317,13,Improv_Metronome,49,1,48,20,1838655484
5317,13,Improv_Metronome,50,5,42,127,1838857684
5317,13,Improv_Metronome,51,1,38,31,1838910868
5317,13,Improv_Metronome,52,5,42,127,1839358424
5317,13,Improv_Metronome,53,1,48,15,1839415048
5317,13,Improv_Metronome,54,1,48,19,1839638896
5317,13,Improv_Metronome,55,5,42,127,1839858024
5317,13,Improv_Metronome,56,1,38,30,1839892632
5317,13,Improv_Metronome,57,1,38,59,1839905472
5317,13,Improv_Metronome,58,5,42,127,1840357768
5317,13,Improv_Metronome,59,1,48,13,1840399108
5317,13,Improv_Metronome,60,1,48,15,1840583112
5317,13,Improv_Metronome,61,1,48,24,1840587576
5317,13,Improv_Metronome,62,5,42,127,1840857616
5317,13,Improv_Metronome,63,1,38,30,1840860364
5317,13,Improv_Metronome,64,1,38,62,1840876648
5317,13,Improv_Metronome,65,5,42,127,1841358112
5317,13,Improv_Metronome,66,1,48,21,1841363844
5317,13,Improv_Metronome,67,5,42,127,1841857956
5317,13,Improv_Metronome,68,1,38,46,1841879328
5317,13,Improv_Metronome,69,5,42,127,1842357652
5317,13,Improv_Metronome,70,1,48,15,1842367948
5317,13,Improv_Metronome,71,1,38,45,1842827984
5317,13,Improv_Metronome,72,5,42,127,1842858384
5317,13,Improv_Metronome,73,1,48,21,1843323264
5317,13,Improv_Metronome,74,5,42,127,1843357932
5317,13,Improv_Metronome,75,1,48,24,1843541916
5317,13,Improv_Metronome,76,1,38,61,1843807080
5317,13,Improv_Metronome,77,1,48,38,1843814092
5317,13,Improv_Metronome,78,5,42,127,1843857736
5317,13,Improv_Metronome,79,1,48,15,1844052540
5317,13,Improv_Metronome,80,1,48,16,1844306704
5317,13,Improv_Metronome,81,5,42,127,1844357676
5317,13,Improv_Metronome,82,1,48,16,1844523268
5317,13,Improv_Metronome,83,1,48,28,1844825676
5317,13,Improv_Metronome,84,1,38,48,1844846520
5317,13,Improv_Metronome,85,5,42,127,1844858152
5317,13,Improv_Metronome,86,1,48,19,1845078540
5317,13,Improv_Metronome,87,1,48,19,1845355220
5317,13,Improv_Metronome,88,5,42,127,1845357876
5317,13,Improv_Metronome,89,1,48,16,1845586588
5317,13,Improv_Metronome,90,1,48,25,1845856652
5317,13,Improv_Metronome,91,5,42,127,1845858372
5317,13,Improv_Metronome,92,1,38,52,1845859560
5317,13,Improv_Metronome,93,1,48,21,1846117424
5317,13,Improv_Metronome,94,5,42,127,1846358464
5317,13,Improv_Metronome,95,1,48,18,1846385668
5317,13,Improv_Metronome,96,1,48,17,1846581788
5317,13,Improv_Metronome,97,5,42,127,1846858136
5317,13,Improv_Metronome,98,1,38,46,1846898280
5317,13,Improv_Metronome,99,1,48,34,1846901476
5317,13,Improv_Metronome,100,1,48,20,1847156732
5317,13,Improv_Metronome,101,5,42,127,1847357688
5317,13,Improv_Metronome,102,1,48,29,1847435752
5317,13,Improv_Metronome,103,1,48,25,1847666576
5317,13,Improv_Metronome,104,5,42,127,1847857508
5317,13,Improv_Metronome,105,1,38,59,1847936324
5317,13,Improv_Metronome,106,1,48,32,1847951488
5317,13,Improv_Metronome,107,1,48,18,1848207044
5317,13,Improv_Metronome,108,5,42,127,1848358328
5317,13,Improv_Metronome,109,1,48,17,1848462796
5317,13,Improv_Metronome,110,1,48,19,1848697144
5317,13,Improv_Metronome,111,5,42,127,1848857828
5317,13,Improv_Metronome,112,1,38,59,1848959700
5317,13,Improv_Metronome,113,1,48,23,1848973820
5317,13,Improv_Metronome,114,1,48,22,1849195868
5317,13,Improv_Metronome,115,5,42,127,1849357528
5317,13,Improv_Metronome,116,1,48,22,1849495008
5317,13,Improv_Metronome,117,1,48,18,1849717836
5317,13,Improv_Metronome,118,5,42,127,1849858544
5317,13,Improv_Metronome,119,1,38,58,1849995576
5317,13,Improv_Metronome,120,1,48,26,1850000496
5317,13,Improv_Metronome,121,1,48,17,1850242664
5317,13,Improv_Metronome,122,5,42,127,1850358096
5317,13,Improv_Metronome,123,1,48,19,1850507544
5317,13,Improv_Metronome,124,1,48,18,1850733884
5317,13,Improv_Metronome,125,5,42,127,1850857768
5317,13,Improv_Metronome,126,1,38,65,1851002280
5317,13,Improv_Metronome,127,1,48,39,1851005476
5317,13,Improv_Metronome,128,5,42,127,1851357416
5317,13,Improv_Metronome,129,1,48,24,1851534236
5317,13,Improv_Metronome,130,5,42,127,1851858232
5317,13,Improv_Metronome,131,1,38,63,1851973420
5317,13,Improv_Metronome,132,5,42,127,1852357852
5317,13,Improv_Metronome,133,1,48,21,1852456808
5317,13,Improv_Metronome,134,5,42,127,1852857696
5317,13,Improv_Metronome,135,1,38,54,1852924244
5317,13,Improv_Metronome,136,5,42,127,1853357392
5317,13,Improv_Metronome,137,1,48,33,1853421316
5317,13,Improv_Metronome,138,1,48,39,1853658732
5317,13,Improv_Metronome,139,5,42,127,1853858260
5317,13,Improv_Metronome,140,1,38,69,1853897652
5317,13,Improv_Metronome,141,1,48,45,1853900852
5317,13,Improv_Metronome,142,5,42,127,1854357908
5317,13,Improv_Metronome,143,1,48,23,1854394084
5317,13,Improv_Metronome,144,1,48,21,1854620948
5317,13,Improv_Metronome,145,5,42,127,1854857432
5317,13,Improv_Metronome,146,1,48,29,1854885980
5317,13,Improv_Metronome,147,1,38,70,1854891420
5317,13,Improv_Metronome,148,5,42,127,1855358272
5317,13,Improv_Metronome,149,1,48,32,1855456460
5317,13,Improv_Metronome,150,5,42,127,1855858116
5317,13,Improv_Metronome,151,1,38,60,1855933412
5317,13,Improv_Metronome,152,5,42,127,1856357736
5317,13,Improv_Metronome,153,1,48,33,1856440888
5317,13,Improv_Metronome,154,5,42,127,1856857360
5317,13,Improv_Metronome,155,1,38,67,1856922404
5317,13,Improv_Metronome,156,5,42,127,1857358248
5317,13,Improv_Metronome,157,1,48,35,1857437656
5317,13,Improv_Metronome,158,1,48,45,1857668936
5317,13,Improv_Metronome,159,5,42,127,1857857772
5317,13,Improv_Metronome,160,1,38,60,1857916988
5317,13,Improv_Metronome,161,1,48,47,1857931556
5317,13,Improv_Metronome,162,1,48,30,1858151736
5317,13,Improv_Metronome,163,5,42,127,1858357472
5317,13,Improv_Metronome,164,1,48,22,1858399184
5317,13,Improv_Metronome,165,1,48,19,1858618648
5317,13,Improv_Metronome,166,5,42,127,1858858340
5317,13,Improv_Metronome,167,1,48,31,1858878812
5317,13,Improv_Metronome,168,1,38,71,1858879464
5317,13,Improv_Metronome,169,5,42,127,1859358188
5317,13,Improv_Metronome,170,1,38,44,1859383992
5317,13,Improv_Metronome,171,1,38,29,1859582632
5317,13,Improv_Metronome,172,1,38,27,1859839272
5317,13,Improv_Metronome,173,5,42,127,1859857704
5317,13,Improv_Metronome,174,1,38,25,1860070864
5317,13,Improv_Metronome,175,1,38,38,1860338340
5317,13,Improv_Metronome,176,5,42,127,1860357452
5317,13,Improv_Metronome,177,1,38,34,1860580784
5317,13,Improv_Metronome,178,5,42,127,1860858252
5317,13,Improv_Metronome,179,1,38,49,1860893008
5317,13,Improv_Metronome,180,1,38,27,1861115384
5317,13,Improv_Metronome,181,5,42,127,1861358072
5317,13,Improv_Metronome,182,1,38,38,1861381008
5317,13,Improv_Metronome,183,1,38,31,1861629416
5317,13,Improv_Metronome,184,5,42,127,1861857520
5317,13,Improv_Metronome,185,1,38,27,1861875520
5317,13,Improv_Metronome,186,1,38,21,1862112180
5317,13,Improv_Metronome,187,5,42,127,1862358240
5317,13,Improv_Metronome,188,1,38,26,1862366592
5317,13,Improv_Metronome,189,1,38,25,1862595700
5317,13,Improv_Metronome,190,5,42,127,1862857984
5317,13,Improv_Metronome,191,1,48,73,1862860652
5317,13,Improv_Metronome,192,5,42,127,1863357904
5317,13,Improv_Metronome,193,1,38,23,1863387724
5317,13,Improv_Metronome,194,1,38,25,1863630296
5317,13,Improv_Metronome,195,5,42,127,1863857500
5317,13,Improv_Metronome,196,1,38,28,1863870264
5317,13,Improv_Metronome,197,1,38,27,1864098256
5317,13,Improv_Metronome,198,1,38,26,1864337156
5317,13,Improv_Metronome,199,5,42,127,1864358212
5317,13,Improv_Metronome,200,1,38,25,1864573168
5317,13,Improv_Metronome,201,1,38,26,1864821720
5317,13,Improv_Metronome,202,5,42,127,1864857888
5317,13,Improv_Metronome,203,1,38,25,1865087352
5317,13,Improv_Metronome,204,5,42,127,1865357788
5317,13,Improv_Metronome,205,1,38,29,1865363528
5317,13,Improv_Metronome,206,1,38,22,1865607068
5317,13,Improv_Metronome,207,5,42,127,1865858284
5317,13,Improv_Metronome,208,1,38,27,1865870828
5317,13,Improv_Metronome,209,1,38,26,1866096272
5317,13,Improv_Metronome,210,1,38,29,1866357280
5317,13,Improv_Metronome,211,5,42,127,1866359520
5317,13,Improv_Metronome,212,1,38,34,1866604096
5317,13,Improv_Metronome,213,5,42,127,1866858080
5317,13,Improv_Metronome,214,1,48,42,1866871972
5317,13,Improv_Metronome,215,1,38,32,1867354296
5317,13,Improv_Metronome,216,5,42,127,1867357472
5317,13,Improv_Metronome,217,1,48,53,1867840076
5317,13,Improv_Metronome,218,5,42,127,1867858212
5317,13,Improv_Metronome,219,1,38,29,1868330048
5317,13,Improv_Metronome,220,5,42,127,1868357980
5317,13,Improv_Metronome,221,1,48,48,1868816404
5317,13,Improv_Metronome,222,5,42,127,1868857896
5317,13,Improv_Metronome,223,1,48,46,1869291640
5317,13,Improv_Metronome,224,5,42,127,1869357296
5317,13,Improv_Metronome,225,1,48,44,1869521212
5317,13,Improv_Metronome,226,1,38,64,1869781656
5317,13,Improv_Metronome,227,1,48,50,1869808868
5317,13,Improv_Metronome,228,5,42,127,1869858044
5317,13,Improv_Metronome,229,1,48,24,1870013400
5317,13,Improv_Metronome,230,1,48,28,1870257996
5317,13,Improv_Metronome,231,5,42,127,1870358020
5317,13,Improv_Metronome,232,1,48,27,1870485324
5317,13,Improv_Metronome,233,1,38,66,1870766124
5317,13,Improv_Metronome,234,1,48,29,1870769768
5317,13,Improv_Metronome,235,5,42,127,1870857540
5317,13,Improv_Metronome,236,1,38,41,1871327924
5317,13,Improv_Metronome,237,5,42,127,1871358252
5317,13,Improv_Metronome,238,1,38,48,1871578372
5317,13,Improv_Metronome,239,1,38,49,1871828200
5317,13,Improv_Metronome,240,1,48,37,1871844708
5317,13,Improv_Metronome,241,5,42,127,1871857984
5317,13,Improv_Metronome,242,1,38,39,1872086520
5317,13,Improv_Metronome,243,1,48,28,1872090840
5317,13,Improv_Metronome,244,1,48,26,1872328972
5317,13,Improv_Metronome,245,5,42,127,1872357952
5317,13,Improv_Metronome,246,1,48,24,1872587872
5317,13,Improv_Metronome,247,1,38,52,1872845548
5317,13,Improv_Metronome,248,5,42,127,1872857404
5317,13,Improv_Metronome,249,1,48,34,1872869500
5317,13,Improv_Metronome,250,1,48,24,1873342292
5317,13,Improv_Metronome,251,1,38,40,1873345644
5317,13,Improv_Metronome,252,5,42,127,1873358240
5317,13,Improv_Metronome,253,5,42,127,1873857840
5317,13,Improv_Metronome,254,1,38,54,1873878384
5317,13,Improv_Metronome,255,1,48,38,1873882628
5317,13,Improv_Metronome,256,5,42,127,1874357784
5317,13,Improv_Metronome,257,1,38,44,1874365164
5317,13,Improv_Metronome,258,1,48,32,1874379812
5317,13,Improv_Metronome,259,1,48,27,1874823068
5317,13,Improv_Metronome,260,1,38,23,1874830536
5317,13,Improv_Metronome,261,5,42,127,1874858316
5317,13,Improv_Metronome,262,1,48,45,1875351744
5317,13,Improv_Metronome,263,5,42,127,1875358132
5317,13,Improv_Metronome,264,1,38,57,1875615348
5317,13,Improv_Metronome,265,5,42,127,1875857888
5317,13,Improv_Metronome,266,1,48,33,1875881796
5317,13,Improv_Metronome,267,1,38,50,1876123700
5317,13,Improv_Metronome,268,5,42,127,1876357632
5317,13,Improv_Metronome,269,1,48,47,1876393288
5317,13,Improv_Metronome,270,1,38,49,1876625388
5317,13,Improv_Metronome,271,5,42,127,1876858136
5317,13,Improv_Metronome,272,1,38,72,1876901716
5317,13,Improv_Metronome,273,1,48,59,1876922940
5317,13,Improv_Metronome,274,5,42,127,1877357932
5317,13,Improv_Metronome,275,1,48,40,1877441608
5317,13,Improv_Metronome,276,1,48,43,1877675128
5317,13,Improv_Metronome,277,5,42,127,1877857752
5317,13,Improv_Metronome,278,1,48,48,1877913676
5317,13,Improv_Metronome,279,1,38,44,1877917024
5317,13,Improv_Metronome,280,1,48,40,1878153360
5317,13,Improv_Metronome,281,5,42,127,1878358352
5317,13,Improv_Metronome,282,1,48,48,1878420636
5317,13,Improv_Metronome,283,1,48,57,1878630668
5317,13,Improv_Metronome,284,5,42,127,1878857948
5317,13,Improv_Metronome,285,1,38,60,1878890088
5317,13,Improv_Metronome,286,1,48,62,1878909664
5317,13,Improv_Metronome,287,5,42,127,1879357820
5317,13,Improv_Metronome,288,1,48,52,1879397888
5317,13,Improv_Metronome,289,1,48,52,1879658564
5317,13,Improv_Metronome,290,5,42,127,1879857716
5317,13,Improv_Metronome,291,1,38,53,1879895916
5317,13,Improv_Metronome,292,1,48,58,1879914372
5317,13,Improv_Metronome,293,1,48,53,1880142032
5317,13,Improv_Metronome,294,5,42,127,1880358392
5317,13,Improv_Metronome,295,1,48,48,1880371008
5317,13,Improv_Metronome,296,1,48,35,1880548784
5317,13,Improv_Metronome,297,1,48,29,1880737648
5317,13,Improv_Metronome,298,5,42,127,1880858020
5317,13,Improv_Metronome,299,1,48,35,1880919580
5317,13,Improv_Metronome,300,1,48,18,1881105504
5317,13,Improv_Metronome,301,5,42,127,1881357616
5317,13,Improv_Metronome,302,1,48,31,1881434584
5317,13,Improv_Metronome,303,1,38,38,1881441144
5317,13,Improv_Metronome,304,5,42,127,1881858536
5317,13,Improv_Metronome,305,1,48,23,1881910672
5317,13,Improv_Metronome,306,1,48,19,1882129880
5317,13,Improv_Metronome,307,1,38,55,1882357376
5317,13,Improv_Metronome,308,5,42,127,1882360144
5317,13,Improv_Metronome,309,1,48,33,1882377700
5317,13,Improv_Metronome,310,1,48,24,1882838380
5317,13,Improv_Metronome,311,5,42,127,1882857784
5317,13,Improv_Metronome,312,1,48,32,1883056056
5317,13,Improv_Metronome,313,1,38,59,1883341120
5317,13,Improv_Metronome,314,1,48,42,1883345960
5317,13,Improv_Metronome,315,5,42,127,1883357516
5317,13,Improv_Metronome,316,5,42,127,1883858384
5317,13,Improv_Metronome,317,1,48,28,1883866216
5317,13,Improv_Metronome,318,1,48,35,1884097568
5317,13,Improv_Metronome,319,1,38,48,1884324504
5317,13,Improv_Metronome,320,5,42,127,1884357976
5317,13,Improv_Metronome,321,1,48,17,1884529924
5317,13,Improv_Metronome,322,1,38,43,1884834720
5317,13,Improv_Metronome,323,5,42,127,1884857796
5317,13,Improv_Metronome,324,1,48,43,1885060032
5317,13,Improv_Metronome,325,1,38,37,1885346968
5317,13,Improv_Metronome,326,5,42,127,1885357396
5317,13,Improv_Metronome,327,1,48,51,1885367696
5317,13,Improv_Metronome,328,5,42,127,1885858108
5317,13,Improv_Metronome,329,1,48,43,1885867436
5317,13,Improv_Metronome,330,1,48,42,1886128636
5317,13,Improv_Metronome,331,5,42,127,1886357860
5317,13,Improv_Metronome,332,1,48,39,1886376308
5317,13,Improv_Metronome,333,1,48,27,1886619552
5317,13,Improv_Metronome,334,5,42,127,1886857532
5317,13,Improv_Metronome,335,1,48,28,1886879496
5317,13,Improv_Metronome,336,1,48,21,1887138376
5317,13,Improv_Metronome,337,5,42,127,1887358400
5317,13,Improv_Metronome,338,1,38,60,1887401680
5317,13,Improv_Metronome,339,1,48,33,1887408548
5317,13,Improv_Metronome,340,5,42,127,1887857972
5317,13,Improv_Metronome,341,1,48,27,1887896920
5317,13,Improv_Metronome,342,1,48,29,1888192524
5317,13,Improv_Metronome,343,5,42,127,1888357720
5317,13,Improv_Metronome,344,1,48,23,1888439528
5317,13,Improv_Metronome,345,1,48,23,1888691596
5317,13,Improv_Metronome,346,5,42,127,1888857320
5317,13,Improv_Metronome,347,1,48,32,1888953856
5317,13,Improv_Metronome,348,1,48,32,1889205928
5317,13,Improv_Metronome,349,5,42,127,1889358188
5317,13,Improv_Metronome,350,1,38,61,1889456300
5317,13,Improv_Metronome,351,1,48,39,1889473636
5317,13,Improv_Metronome,352,5,42,127,1889857836
5317,13,Improv_Metronome,353,1,48,21,1889938744
5317,13,Improv_Metronome,354,1,48,25,1890216692
5317,13,Improv_Metronome,355,5,42,127,1890357508
5317,13,Improv_Metronome,356,1,48,21,1890450380
5317,13,Improv_Metronome,357,1,48,20,1890704476
5317,13,Improv_Metronome,358,5,42,127,1890858304
5317,13,Improv_Metronome,359,1,48,19,1890971748
5317,13,Improv_Metronome,360,1,48,22,1891216416
5317,13,Improv_Metronome,361,5,42,127,1891358472
5317,13,Improv_Metronome,362,1,38,55,1891484580
5317,13,Improv_Metronome,363,1,48,42,1891487860
5317,13,Improv_Metronome,364,5,42,127,1891857672
5317,13,Improv_Metronome,365,1,48,38,1891988796
5317,13,Improv_Metronome,366,5,42,127,1892357440
5317,13,Improv_Metronome,367,1,38,64,1892439496
5317,13,Improv_Metronome,368,5,42,127,1892858480
5317,13,Improv_Metronome,369,1,48,40,1892915852
5317,13,Improv_Metronome,370,1,38,55,1893345796
5317,13,Improv_Metronome,371,5,42,127,1893357872
5317,13,Improv_Metronome,372,1,38,52,1893818564
5317,13,Improv_Metronome,373,1,48,35,1893825496
5317,13,Improv_Metronome,374,5,42,127,1893857624
5317,13,Improv_Metronome,375,1,48,34,1894299828
5317,13,Improv_Metronome,376,1,38,46,1894321720
5317,13,Improv_Metronome,377,5,42,127,1894358480
5317,13,Improv_Metronome,378,1,38,69,1894790200
5317,13,Improv_Metronome,379,1,48,26,1894797204
5317,13,Improv_Metronome,380,5,42,127,1894858352
5317,13,Improv_Metronome,381,1,48,25,1895286032
5317,13,Improv_Metronome,382,1,38,48,1895294832
5317,13,Improv_Metronome,383,5,42,127,1895357924
5317,13,Improv_Metronome,384,1,48,22,1895802960
5317,13,Improv_Metronome,385,5,42,127,1895857592
5317,13,Improv_Metronome,386,1,48,32,1896078460
5317,13,Improv_Metronome,387,1,38,49,1896348032
5317,13,Improv_Metronome,388,5,42,127,1896358384
5317,13,Improv_Metronome,389,1,48,30,1896366368
5317,13,Improv_Metronome,390,5,42,127,1896858352
5317,13,Improv_Metronome,391,1,38,26,1896899096
5317,13,Improv_Metronome,392,1,38,21,1897153560
5317,13,Improv_Metronome,393,5,42,127,1897357580
5317,13,Improv_Metronome,394,1,38,25,1897407600
5317,13,Improv_Metronome,395,1,38,26,1897683080
5317,13,Improv_Metronome,396,5,42,127,1897858524
5317,13,Improv_Metronome,397,1,38,29,1897949752
5317,13,Improv_Metronome,0,9999,9999,9999,1828355160
5317,13,Improv_Metronome,1,9999,9999,9999,1828855924
5317,13,Improv_Metronome,2,9999,9999,9999,1829355632
5317,13,Improv_Metronome,3,9999,9999,9999,1829855332
5317,13,Improv_Metronome,4,9999,9999,9999,1830356040
5317,13,Improv_Metronome,5,9999,9999,9999,1830855784
5317,13,Improv_Metronome,6,9999,9999,9999,1831355508
5317,13,Improv_Metronome,7,9999,9999,9999,1831855180
5317,13,Improv_Metronome,8,9999,9999,9999,1832355948
5317,13,Improv_Metronome,9,9999,9999,9999,1832855616
5317,13,Improv_Metronome,10,9999,9999,9999,1833355356
5317,13,Improv_Metronome,11,9999,9999,9999,1833856100
5317,13,Improv_Metronome,12,9999,9999,9999,1834355820
5317,13,Improv_Metronome,13,9999,9999,9999,1834855512
5317,13,Improv_Metronome,14,9999,9999,9999,1835355208
5317,13,Improv_Metronome,15,9999,9999,9999,1835855952
5317,13,Improv_Metronome,16,9999,9999,9999,1836355636
5317,13,Improv_Metronome,17,9999,9999,9999,1836855412
5317,13,Improv_Metronome,18,9999,9999,9999,1837355108
5317,13,Improv_Metronome,19,9999,9999,9999,1837855804
5317,13,Improv_Metronome,20,9999,9999,9999,1838355572
5317,13,Improv_Metronome,21,9999,9999,9999,1838855244
5317,13,Improv_Metronome,22,9999,9999,9999,1839355988
5317,13,Improv_Metronome,23,9999,9999,9999,1839855732
5317,13,Improv_Metronome,24,9999,9999,9999,1840355404
5317,13,Improv_Metronome,25,9999,9999,9999,1840855104
5317,13,Improv_Metronome,26,9999,9999,9999,1841355824
5317,13,Improv_Metronome,27,9999,9999,9999,1841855592
5317,13,Improv_Metronome,28,9999,9999,9999,1842355288
5317,13,Improv_Metronome,29,9999,9999,9999,1842856020
5317,13,Improv_Metronome,30,9999,9999,9999,1843355716
5317,13,Improv_Metronome,31,9999,9999,9999,1843855448
5317,13,Improv_Metronome,32,9999,9999,9999,1844355164
5317,13,Improv_Metronome,33,9999,9999,9999,1844855864
5317,13,Improv_Metronome,34,9999,9999,9999,1845355588
5317,13,Improv_Metronome,35,9999,9999,9999,1845855340
5317,13,Improv_Metronome,36,9999,9999,9999,1846356024
5317,13,Improv_Metronome,37,9999,9999,9999,1846855772
5317,13,Improv_Metronome,38,9999,9999,9999,1847355472
5317,13,Improv_Metronome,39,9999,9999,9999,1847855220
5317,13,Improv_Metronome,40,9999,9999,9999,1848355940
5317,13,Improv_Metronome,41,9999,9999,9999,1848855612
5317,13,Improv_Metronome,42,9999,9999,9999,1849355312
5317,13,Improv_Metronome,43,9999,9999,9999,1849856108
5317,13,Improv_Metronome,44,9999,9999,9999,1850355808
5317,13,Improv_Metronome,45,9999,9999,9999,1850855480
5317,13,Improv_Metronome,46,9999,9999,9999,1851355200
5317,13,Improv_Metronome,47,9999,9999,9999,1851855944
5317,13,Improv_Metronome,48,9999,9999,9999,1852355636
5317,13,Improv_Metronome,49,9999,9999,9999,1852855408
5317,13,Improv_Metronome,50,9999,9999,9999,1853355104
5317,13,Improv_Metronome,51,9999,9999,9999,1853855820
5317,13,Improv_Metronome,52,9999,9999,9999,1854355544
5317,13,Improv_Metronome,53,9999,9999,9999,1854855216
5317,13,Improv_Metronome,54,9999,9999,9999,1855355984
5317,13,Improv_Metronome,55,9999,9999,9999,1855855680
5317,13,Improv_Metronome,56,9999,9999,9999,1856355448
5317,13,Improv_Metronome,57,9999,9999,9999,1856855144
5317,13,Improv_Metronome,58,9999,9999,9999,1857355884
5317,13,Improv_Metronome,59,9999,9999,9999,1857855556
5317,13,Improv_Metronome,60,9999,9999,9999,1858355260
5317,13,Improv_Metronome,61,9999,9999,9999,1858856052
5317,13,Improv_Metronome,62,9999,9999,9999,1859355748
5317,13,Improv_Metronome,63,9999,9999,9999,1859855416
5317,13,Improv_Metronome,64,9999,9999,9999,1860355160
5317,13,Improv_Metronome,65,9999,9999,9999,1860855888
5317,13,Improv_Metronome,66,9999,9999,9999,1861355636
5317,13,Improv_Metronome,67,9999,9999,9999,1861855304
5317,13,Improv_Metronome,68,9999,9999,9999,1862356024
5317,13,Improv_Metronome,69,9999,9999,9999,1862855772
5317,13,Improv_Metronome,70,9999,9999,9999,1863355464
5317,13,Improv_Metronome,71,9999,9999,9999,1863855212
5317,13,Improv_Metronome,72,9999,9999,9999,1864355924
5317,13,Improv_Metronome,73,9999,9999,9999,1864855672
5317,13,Improv_Metronome,74,9999,9999,9999,1865355352
5317,13,Improv_Metronome,75,9999,9999,9999,1865856072
5317,13,Improv_Metronome,76,9999,9999,9999,1866355820
5317,13,Improv_Metronome,77,9999,9999,9999,1866855492
5317,13,Improv_Metronome,78,9999,9999,9999,1867355256
5317,13,Improv_Metronome,79,9999,9999,9999,1867855924
5317,13,Improv_Metronome,80,9999,9999,9999,1868355692
5317,13,Improv_Metronome,81,9999,9999,9999,1868855388
5317,13,Improv_Metronome,82,9999,9999,9999,1869355080
5317,13,Improv_Metronome,83,9999,9999,9999,1869855828
5317,13,Improv_Metronome,84,9999,9999,9999,1870355508
5317,13,Improv_Metronome,85,9999,9999,9999,1870855252
5317,13,Improv_Metronome,86,9999,9999,9999,1871355964
5317,13,Improv_Metronome,87,9999,9999,9999,1871855692
5317,13,Improv_Metronome,88,9999,9999,9999,1872355440
5317,13,Improv_Metronome,89,9999,9999,9999,1872855116
5317,13,Improv_Metronome,90,9999,9999,9999,1873355876
5317,13,Improv_Metronome,91,9999,9999,9999,1873855552
5317,13,Improv_Metronome,92,9999,9999,9999,1874355272
5317,13,Improv_Metronome,93,9999,9999,9999,1874856028
5317,13,Improv_Metronome,94,9999,9999,9999,1875355696
5317,13,Improv_Metronome,95,9999,9999,9999,1875855452
5317,13,Improv_Metronome,96,9999,9999,9999,1876355120
5317,13,Improv_Metronome,97,9999,9999,9999,1876855920
5317,13,Improv_Metronome,98,9999,9999,9999,1877355640
5317,13,Improv_Metronome,99,9999,9999,9999,1877855312
5317,13,Improv_Metronome,100,9999,9999,9999,1878356060
5317,13,Improv_Metronome,101,9999,9999,9999,1878855732
5317,13,Improv_Metronome,102,9999,9999,9999,1879355456
5317,13,Improv_Metronome,103,9999,9999,9999,1879855204
5317,13,Improv_Metronome,104,9999,9999,9999,1880355952
5317,13,Improv_Metronome,105,9999,9999,9999,1880855652
5317,13,Improv_Metronome,106,9999,9999,9999,1881355328
5317,13,Improv_Metronome,107,9999,9999,9999,1881856096
5317,13,Improv_Metronome,108,9999,9999,9999,1882355768
5317,13,Improv_Metronome,109,9999,9999,9999,1882855496
5317,13,Improv_Metronome,110,9999,9999,9999,1883355224
5317,13,Improv_Metronome,111,9999,9999,9999,1883855944
5317,13,Improv_Metronome,112,9999,9999,9999,1884355688
5317,13,Improv_Metronome,113,9999,9999,9999,1884855360
5317,13,Improv_Metronome,114,9999,9999,9999,1885355108
5317,13,Improv_Metronome,115,9999,9999,9999,1885855820
5317,13,Improv_Metronome,116,9999,9999,9999,1886355568
5317,13,Improv_Metronome,117,9999,9999,9999,1886855240
5317,13,Improv_Metronome,118,9999,9999,9999,1887355960
5317,13,Improv_Metronome,119,9999,9999,9999,1887855684
5317,13,Improv_Metronome,120,9999,9999,9999,1888355432
5317,13,Improv_Metronome,121,9999,9999,9999,1888855104
5317,13,Improv_Metronome,122,9999,9999,9999,1889355824
5317,13,Improv_Metronome,123,9999,9999,9999,1889855544
5317,13,Improv_Metronome,124,9999,9999,9999,1890355292
5317,13,Improv_Metronome,125,9999,9999,9999,1890856012
5317,13,Improv_Metronome,126,9999,9999,9999,1891355736
5317,13,Improv_Metronome,127,9999,9999,9999,1891855460
5317,13,Improv_Metronome,128,9999,9999,9999,1892355152
5317,13,Improv_Metronome,129,9999,9999,9999,1892855892
5317,13,Improv_Metronome,130,9999,9999,9999,1893355584
5317,13,Improv_Metronome,131,9999,9999,9999,1893855332
5317,13,Improv_Metronome,132,9999,9999,9999,1894356044
5317,13,Improv_Metronome,133,9999,9999,9999,1894855764
5317,13,Improv_Metronome,134,9999,9999,9999,1895355488
5317,13,Improv_Metronome,135,9999,9999,9999,1895855156
5317,13,Improv_Metronome,136,9999,9999,9999,1896355948
5317,13,Improv_Metronome,137,9999,9999,9999,1896855616
5317,13,Improv_Metronome,138,9999,9999,9999,1897355364
5317,13,Improv_Metronome,139,9999,9999,9999,1897856084
5318,14,Improv_Melody,0,2,48,80,1952341360
5318,14,Improv_Melody,1,2,72,80,1952344104
5318,14,Improv_Melody,2,5,42,127,1952345740
5318,14,Improv_Melody,3,5,42,110,1952838060
5318,14,Improv_Melody,4,5,42,110,1953337856
5318,14,Improv_Melody,5,5,42,110,1953837652
5318,14,Improv_Melody,6,1,38,32,1954320552
5318,14,Improv_Melody,7,1,48,40,1954327564
5318,14,Improv_Melody,8,5,42,127,1954338100
5318,14,Improv_Melody,9,5,42,110,1954837824
5318,14,Improv_Melody,10,1,48,19,1955292096
5318,14,Improv_Melody,11,5,42,110,1955337764
5318,14,Improv_Melody,12,1,48,21,1955795464
5318,14,Improv_Melody,13,1,38,57,1955811152
5318,14,Improv_Melody,14,5,42,110,1955838196
5318,14,Improv_Melody,15,2,43,80,1956340756
5318,14,Improv_Melody,16,2,67,80,1956342748
5318,14,Improv_Melody,17,5,42,127,1956345216
5318,14,Improv_Melody,18,1,48,22,1956555028
5318,14,Improv_Melody,19,5,42,110,1956837808
5318,14,Improv_Melody,20,1,38,60,1956876756
5318,14,Improv_Melody,21,1,48,30,1956881296
5318,14,Improv_Melody,22,1,48,18,1957118608
5318,14,Improv_Melody,23,5,42,110,1957337664
5318,14,Improv_Melody,24,1,48,22,1957386260
5318,14,Improv_Melody,25,1,48,22,1957603848
5318,14,Improv_Melody,26,5,42,110,1957838164
5318,14,Improv_Melody,27,1,38,61,1957852948
5318,14,Improv_Melody,28,1,48,29,1957870508
5318,14,Improv_Melody,29,1,48,23,1958082380
5318,14,Improv_Melody,30,5,42,127,1958337868
5318,14,Improv_Melody,31,1,48,16,1958358120
5318,14,Improv_Melody,32,1,48,13,1958604128
5318,14,Improv_Melody,33,5,42,110,1958837696
5318,14,Improv_Melody,34,1,38,33,1958845824
5318,14,Improv_Melody,35,1,48,24,1958877744
5318,14,Improv_Melody,36,1,48,17,1959094572
5318,14,Improv_Melody,37,5,42,110,1959338384
5318,14,Improv_Melody,38,1,48,19,1959372844
5318,14,Improv_Melody,39,1,48,16,1959613844
5318,14,Improv_Melody,40,5,42,110,1959837988
5318,14,Improv_Melody,41,1,38,40,1959851800
5318,14,Improv_Melody,42,1,48,19,1959855596
5318,14,Improv_Melody,43,1,48,19,1960099564
5318,14,Improv_Melody,44,2,45,80,1960340348
5318,14,Improv_Melody,45,2,69,80,1960342496
5318,14,Improv_Melody,46,5,42,127,1960345112
5318,14,Improv_Melody,47,1,38,29,1960380096
5318,14,Improv_Melody,48,1,38,23,1960538376
5318,14,Improv_Melody,49,1,38,18,1960726016
5318,14,Improv_Melody,50,5,42,110,1960837444
5318,14,Improv_Melody,51,1,38,16,1960856264
5318,14,Improv_Melody,52,1,38,16,1961078568
5318,14,Improv_Melody,53,5,42,110,1961338168
5318,14,Improv_Melody,54,1,38,16,1961378840
5318,14,Improv_Melody,55,1,38,18,1961551996
5318,14,Improv_Melody,56,1,38,20,1961727148
5318,14,Improv_Melody,57,5,42,110,1961837824
5318,14,Improv_Melody,58,1,38,19,1961911100
5318,14,Improv_Melody,59,1,38,19,1962099072
5318,14,Improv_Melody,60,1,38,21,1962281060
5318,14,Improv_Melody,61,5,42,127,1962337572
5318,14,Improv_Melody,62,1,38,39,1962498272
5318,14,Improv_Melody,63,1,38,21,1962688336
5318,14,Improv_Melody,64,5,42,110,1962838576
5318,14,Improv_Melody,65,1,38,18,1962883660
5318,14,Improv_Melody,66,1,38,18,1963057496
5318,14,Improv_Melody,67,1,38,19,1963264584
5318,14,Improv_Melody,68,5,42,110,1963338100
5318,14,Improv_Melody,69,1,38,20,1963455868
5318,14,Improv_Melody,70,1,38,21,1963650868
5318,14,Improv_Melody,71,5,42,110,1963837692
5318,14,Improv_Melody,72,1,38,21,1963850680
5318,14,Improv_Melody,73,1,38,25,1964044832
5318,14,Improv_Melody,74,2,41,80,1964340252
5318,14,Improv_Melody,75,2,65,80,1964342244
5318,14,Improv_Melody,76,5,42,127,1964344784
5318,14,Improv_Melody,77,1,48,47,1964379172
5318,14,Improv_Melody,78,1,38,43,1964391192
5318,14,Improv_Melody,79,1,48,22,1964612564
5318,14,Improv_Melody,80,5,42,110,1964838356
5318,14,Improv_Melody,81,1,48,16,1964841920
5318,14,Improv_Melody,82,1,48,16,1965061656
5318,14,Improv_Melody,83,1,38,58,1965284412
5318,14,Improv_Melody,84,1,48,24,1965307952
5318,14,Improv_Melody,85,5,42,110,1965338060
5318,14,Improv_Melody,86,1,48,15,1965512296
5318,14,Improv_Melody,87,1,48,25,1965516840
5318,14,Improv_Melody,88,1,48,21,1965780500
5318,14,Improv_Melody,89,5,42,110,1965837688
5318,14,Improv_Melody,90,1,48,21,1966032592
5318,14,Improv_Melody,91,5,42,127,1966338344
5318,14,Improv_Melody,92,1,38,56,1966362552
5318,14,Improv_Melody,93,1,48,35,1966366144
5318,14,Improv_Melody,94,1,48,17,1966585252
5318,14,Improv_Melody,95,1,48,19,1966834708
5318,14,Improv_Melody,96,5,42,110,1966838260
5318,14,Improv_Melody,97,1,48,19,1967079472
5318,14,Improv_Melody,98,5,42,110,1967337796
5318,14,Improv_Melody,99,1,48,26,1967347568
5318,14,Improv_Melody,100,1,38,37,1967364004
5318,14,Improv_Melody,101,1,48,21,1967592260
5318,14,Improv_Melody,102,5,42,110,1967837500
5318,14,Improv_Melody,103,1,48,14,1967854080
5318,14,Improv_Melody,104,1,48,20,1968035244
5318,14,Improv_Melody,105,2,48,80,1968340952
5318,14,Improv_Melody,106,2,72,80,1968343024
5318,14,Improv_Melody,107,5,42,127,1968345640
5318,14,Improv_Melody,108,1,38,45,1968350632
5318,14,Improv_Melody,109,5,42,110,1968837864
5318,14,Improv_Melody,110,1,38,32,1968870452
5318,14,Improv_Melody,111,5,42,110,1969337636
5318,14,Improv_Melody,112,1,38,35,1969339648
5318,14,Improv_Melody,113,1,38,28,1969835664
5318,14,Improv_Melody,114,5,42,110,1969837924
5318,14,Improv_Melody,115,1,38,29,1970323372
5318,14,Improv_Melody,116,1,38,52,1970327916
5318,14,Improv_Melody,117,5,42,127,1970338428
5318,14,Improv_Melody,118,1,48,23,1970805252
5318,14,Improv_Melody,119,5,42,110,1970837828
5318,14,Improv_Melody,120,1,38,49,1971312880
5318,14,Improv_Melody,121,5,42,110,1971337528
5318,14,Improv_Melody,122,1,48,19,1971798740
5318,14,Improv_Melody,123,5,42,110,1971838348
5318,14,Improv_Melody,124,1,38,53,1972304276
5318,14,Improv_Melody,125,2,43,80,1972340476
5318,14,Improv_Melody,126,2,67,80,1972342856
5318,14,Improv_Melody,127,5,42,127,1972345240
5318,14,Improv_Melody,128,1,38,24,1972591016
5318,14,Improv_Melody,129,5,42,110,1972837748
5318,14,Improv_Melody,130,1,38,25,1972846400
5318,14,Improv_Melody,131,1,38,25,1973098100
5318,14,Improv_Melody,132,5,42,110,1973337352
5318,14,Improv_Melody,133,1,38,61,1973343160
5318,14,Improv_Melody,134,1,38,23,1973593812
5318,14,Improv_Melody,135,5,42,110,1973838300
5318,14,Improv_Melody,136,1,38,26,1973854808
5318,14,Improv_Melody,137,1,38,24,1974072920
5318,14,Improv_Melody,138,5,42,127,1974338276
5318,14,Improv_Melody,139,1,38,62,1974350224
5318,14,Improv_Melody,140,1,38,23,1974628172
5318,14,Improv_Melody,141,5,42,110,1974837508
5318,14,Improv_Melody,142,1,38,18,1974879672
5318,14,Improv_Melody,143,1,38,25,1975111100
5318,14,Improv_Melody,144,5,42,110,1975338308
5318,14,Improv_Melody,145,1,38,32,1975371196
5318,14,Improv_Melody,146,1,38,28,1975621472
5318,14,Improv_Melody,147,5,42,110,1975838288
5318,14,Improv_Melody,148,1,38,27,1975866164
5318,14,Improv_Melody,149,1,38,29,1976100212
5318,14,Improv_Melody,150,2,45,80,1976340220
5318,14,Improv_Melody,151,2,69,80,1976342296
5318,14,Improv_Melody,152,5,42,127,1976344988
5318,14,Improv_Melody,153,1,48,57,1976361444
5318,14,Improv_Melody,154,1,48,68,1976371892
5318,14,Improv_Melody,155,5,42,110,1976837412
5318,14,Improv_Melody,156,1,38,60,1976862468
5318,14,Improv_Melody,157,1,48,33,1977327264
5318,14,Improv_Melody,158,5,42,110,1977338300
5318,14,Improv_Melody,159,1,38,50,1977796672
5318,14,Improv_Melody,160,5,42,110,1977838296
5318,14,Improv_Melody,161,1,48,55,1978314024
5318,14,Improv_Melody,162,5,42,127,1978337776
5318,14,Improv_Melody,163,1,38,56,1978780364
5318,14,Improv_Melody,164,5,42,110,1978838296
5318,14,Improv_Melody,165,1,48,49,1979302872
5318,14,Improv_Melody,166,5,42,110,1979338072
5318,14,Improv_Melody,167,1,38,72,1979788368
5318,14,Improv_Melody,168,5,42,110,1979838144
5318,14,Improv_Melody,169,1,48,44,1980314992
5318,14,Improv_Melody,170,2,41,80,1980340200
5318,14,Improv_Melody,171,2,65,80,1980342048
5318,14,Improv_Melody,172,5,42,127,1980344740
5318,14,Improv_Melody,173,1,38,59,1980586696
5318,14,Improv_Melody,174,5,42,110,1980838216
5318,14,Improv_Melody,175,1,48,25,1980867064
5318,14,Improv_Melody,176,1,38,56,1981123100
5318,14,Improv_Melody,177,5,42,110,1981338416
5318,14,Improv_Melody,178,1,48,38,1981386792
5318,14,Improv_Melody,179,1,38,54,1981643420
5318,14,Improv_Melody,180,5,42,110,1981837872
5318,14,Improv_Melody,181,1,48,19,1981908608
5318,14,Improv_Melody,182,1,38,57,1982167036
5318,14,Improv_Melody,183,5,42,127,1982338520
5318,14,Improv_Melody,184,1,48,46,1982415688
5318,14,Improv_Melody,185,1,38,54,1982695588
5318,14,Improv_Melody,186,5,42,110,1982838048
5318,14,Improv_Melody,187,1,48,35,1982957708
5318,14,Improv_Melody,188,1,38,54,1983260336
5318,14,Improv_Melody,189,5,42,110,1983338040
5318,14,Improv_Melody,190,1,48,39,1983511456
5318,14,Improv_Melody,191,1,38,49,1983789512
5318,14,Improv_Melody,192,5,42,110,1983837868
5318,14,Improv_Melody,193,1,48,44,1984065016
5318,14,Improv_Melody,194,1,38,57,1984321876
5318,14,Improv_Melody,195,2,48,80,1984340800
5318,14,Improv_Melody,196,2,72,80,1984342800
5318,14,Improv_Melody,197,5,42,127,1984345708
5318,14,Improv_Melody,198,1,48,57,1984609884
5318,14,Improv_Melody,199,5,42,110,1984837920
5318,14,Improv_Melody,200,1,48,48,1985010672
5318,14,Improv_Melody,201,5,42,110,1985337692
5318,14,Improv_Melody,202,1,48,33,1985421592
5318,14,Improv_Melody,203,5,42,110,1985837392
5318,14,Improv_Melody,204,1,48,47,1985868860
5318,14,Improv_Melody,205,1,48,50,1986283236
5318,14,Improv_Melody,206,5,42,127,1986338132
5318,14,Improv_Melody,207,1,48,52,1986785556
5318,14,Improv_Melody,208,5,42,110,1986837956
5318,14,Improv_Melody,209,1,38,61,1987269324
5318,14,Improv_Melody,210,1,48,53,1987277384
5318,14,Improv_Melody,211,5,42,110,1987337708
5318,14,Improv_Melody,212,1,48,44,1987542240
5318,14,Improv_Melody,213,1,48,48,1987793784
5318,14,Improv_Melody,214,5,42,110,1987838332
5318,14,Improv_Melody,215,1,48,46,1988036684
5318,14,Improv_Melody,216,1,38,68,1988291072
5318,14,Improv_Melody,217,1,48,56,1988299808
5318,14,Improv_Melody,218,2,43,80,1988340720
5318,14,Improv_Melody,219,2,67,80,1988342872
5318,14,Improv_Melody,220,5,42,127,1988345556
5318,14,Improv_Melody,221,1,48,40,1988564896
5318,14,Improv_Melody,222,5,42,110,1988837736
5318,14,Improv_Melody,223,1,48,50,1988841824
5318,14,Improv_Melody,224,1,48,50,1989064804
5318,14,Improv_Melody,225,1,48,35,1989320684
5318,14,Improv_Melody,226,1,38,53,1989327772
5318,14,Improv_Melody,227,5,42,110,1989337316
5318,14,Improv_Melody,228,1,48,45,1989574832
5318,14,Improv_Melody,229,5,42,110,1989838316
5318,14,Improv_Melody,230,1,48,44,1989843600
5318,14,Improv_Melody,231,1,48,53,1990055656
5318,14,Improv_Melody,232,1,38,63,1990319328
5318,14,Improv_Melody,233,5,42,127,1990337764
5318,14,Improv_Melody,234,1,48,64,1990342452
5318,14,Improv_Melody,235,1,48,50,1990589500
5318,14,Improv_Melody,236,5,42,110,1990837576
5318,14,Improv_Melody,237,1,48,44,1990838544
5318,14,Improv_Melody,238,1,48,41,1991085584
5318,14,Improv_Melody,239,5,42,110,1991338304
5318,14,Improv_Melody,240,1,48,57,1991357200
5318,14,Improv_Melody,241,1,38,56,1991363840
5318,14,Improv_Melody,242,1,48,50,1991619112
5318,14,Improv_Melody,243,5,42,110,1991838020
5318,14,Improv_Melody,244,1,48,45,1991884000
5318,14,Improv_Melody,245,1,48,49,1992112136
5318,14,Improv_Melody,246,2,45,80,1992340124
5318,14,Improv_Melody,247,2,69,80,1992342424
5318,14,Improv_Melody,248,5,42,127,1992344964
5318,14,Improv_Melody,249,1,38,57,1992395808
5318,14,Improv_Melody,250,5,42,110,1992837636
5318,14,Improv_Melody,251,1,48,51,1992863564
5318,14,Improv_Melody,252,5,42,110,1993338160
5318,14,Improv_Melody,253,1,38,59,1993342028
5318,14,Improv_Melody,254,1,48,52,1993813648
5318,14,Improv_Melody,255,5,42,110,1993837928
5318,14,Improv_Melody,256,1,38,58,1994312004
5318,14,Improv_Melody,257,5,42,127,1994337700
5318,14,Improv_Melody,258,1,48,53,1994792924
5318,14,Improv_Melody,259,5,42,110,1994838668
5318,14,Improv_Melody,260,1,38,59,1995268820
5318,14,Improv_Melody,261,5,42,110,1995338000
5318,14,Improv_Melody,262,1,48,47,1995797620
5318,14,Improv_Melody,263,5,42,110,1995837772
5318,14,Improv_Melody,264,1,38,62,1996272856
5318,14,Improv_Melody,265,1,48,52,1996276128
5318,14,Improv_Melody,266,2,41,80,1996340032
5318,14,Improv_Melody,267,2,65,80,1996342336
5318,14,Improv_Melody,268,5,42,127,1996344868
5318,14,Improv_Melody,269,1,48,44,1996545412
5318,14,Improv_Melody,270,1,48,42,1996784096
5318,14,Improv_Melody,271,5,42,110,1996838236
5318,14,Improv_Melody,272,1,48,45,1996991008
5318,14,Improv_Melody,273,1,48,59,1997279508
5318,14,Improv_Melody,274,1,38,53,1997301404
5318,14,Improv_Melody,275,5,42,110,1997338020
5318,14,Improv_Melody,276,1,48,49,1997555164
5318,14,Improv_Melody,277,1,48,49,1997815312
5318,14,Improv_Melody,278,5,42,110,1997837644
5318,14,Improv_Melody,279,1,48,52,1998066508
5318,14,Improv_Melody,280,1,38,58,1998338972
5318,14,Improv_Melody,281,5,42,127,1998341212
5318,14,Improv_Melody,282,1,48,58,1998348520
5318,14,Improv_Melody,283,1,48,46,1998617992
5318,14,Improv_Melody,284,5,42,110,1998838168
5318,14,Improv_Melody,285,1,48,40,1998881552
5318,14,Improv_Melody,286,1,48,20,1999133476
5318,14,Improv_Melody,287,5,42,110,1999337776
5318,14,Improv_Melody,288,1,38,59,1999372460
5318,14,Improv_Melody,289,1,48,28,1999379472
5318,14,Improv_Melody,290,1,48,25,1999628596
5318,14,Improv_Melody,291,5,42,110,1999837408
5318,14,Improv_Melody,292,1,48,25,1999891308
5318,14,Improv_Melody,293,1,48,38,2000115856
5318,14,Improv_Melody,294,2,48,80,2000341012
5318,14,Improv_Melody,295,2,72,80,2000343236
5318,14,Improv_Melody,296,5,42,127,2000345620
5318,14,Improv_Melody,297,1,38,63,2000394668
5318,14,Improv_Melody,298,1,38,49,2000542692
5318,14,Improv_Melody,299,1,38,45,2000786544
5318,14,Improv_Melody,300,5,42,110,2000837964
5318,14,Improv_Melody,301,1,38,27,2001082016
5318,14,Improv_Melody,302,1,38,23,2001333788
5318,14,Improv_Melody,303,5,42,110,2001337644
5318,14,Improv_Melody,304,1,38,34,2001617896
5318,14,Improv_Melody,305,5,42,110,2001837404
5318,14,Improv_Melody,306,1,38,35,2001902680
5318,14,Improv_Melody,307,1,38,40,2002153324
5318,14,Improv_Melody,308,5,42,127,2002338424
5318,14,Improv_Melody,309,1,48,64,2002425392
5318,14,Improv_Melody,310,1,38,55,2002672376
5318,14,Improv_Melody,311,5,42,110,2002837732
5318,14,Improv_Melody,312,1,38,53,2002937636
5318,14,Improv_Melody,313,1,38,55,2003212448
5318,14,Improv_Melody,314,5,42,110,2003337632
5318,14,Improv_Melody,315,1,38,55,2003477476
5318,14,Improv_Melody,316,1,38,55,2003775504
5318,14,Improv_Melody,317,5,42,110,2003838448
5318,14,Improv_Melody,318,1,38,55,2004054076
5318,14,Improv_Melody,319,2,43,80,2004340788
5318,14,Improv_Melody,320,2,67,80,2004343084
5318,14,Improv_Melody,321,5,42,127,2004345472
5318,14,Improv_Melody,322,1,38,35,2004350312
5318,14,Improv_Melody,323,1,48,39,2004651452
5318,14,Improv_Melody,324,5,42,110,2004837748
5318,14,Improv_Melody,325,1,38,33,2004963304
5318,14,Improv_Melody,326,1,38,41,2005264820
5318,14,Improv_Melody,327,5,42,110,2005337440
5318,14,Improv_Melody,328,5,42,110,2005838416
5318,14,Improv_Melody,329,1,48,20,2005944304
5318,14,Improv_Melody,330,1,38,27,2006319448
5318,14,Improv_Melody,331,5,42,127,2006337812
5318,14,Improv_Melody,332,1,48,45,2006813680
5318,14,Improv_Melody,333,5,42,110,2006837588
5318,14,Improv_Melody,334,1,38,49,2007311040
5318,14,Improv_Melody,335,5,42,110,2007338480
5318,14,Improv_Melody,336,1,48,48,2007808128
5318,14,Improv_Melody,337,5,42,110,2007838332
5318,14,Improv_Melody,338,1,38,47,2008286956
5318,14,Improv_Melody,339,2,45,80,2008340516
5318,14,Improv_Melody,340,2,69,80,2008342512
5318,14,Improv_Melody,341,5,42,127,2008345348
5318,14,Improv_Melody,342,1,38,50,2008803352
5318,14,Improv_Melody,343,1,48,57,2008806476
5318,14,Improv_Melody,344,5,42,110,2008837628
5318,14,Improv_Melody,345,1,48,52,2009314376
5318,14,Improv_Melody,346,5,42,110,2009338420
5318,14,Improv_Melody,347,1,48,43,2009571028
5318,14,Improv_Melody,348,1,38,50,2009833648
5318,14,Improv_Melody,349,5,42,110,2009838024
5318,14,Improv_Melody,350,1,48,56,2009854604
5318,14,Improv_Melody,351,1,48,43,2010334056
5318,14,Improv_Melody,352,5,42,127,2010337764
5318,14,Improv_Melody,353,1,48,44,2010587576
5318,14,Improv_Melody,354,1,38,57,2010834484
5318,14,Improv_Melody,355,5,42,110,2010838264
5318,14,Improv_Melody,356,1,48,57,2010864120
5318,14,Improv_Melody,357,5,42,110,2011338084
5318,14,Improv_Melody,358,1,48,44,2011346068
5318,14,Improv_Melody,359,1,48,46,2011599632
5318,14,Improv_Melody,360,5,42,110,2011837764
5318,14,Improv_Melody,361,1,38,65,2011840428
5318,14,Improv_Melody,362,1,48,56,2011861728
5318,14,Improv_Melody,363,1,48,50,2012339308
5318,14,Improv_Melody,364,2,41,80,2012341336
5318,14,Improv_Melody,365,2,65,80,2012343256
5318,14,Improv_Melody,366,5,42,127,2012345944
5318,14,Improv_Melody,367,1,48,48,2012590524
5318,14,Improv_Melody,368,1,38,70,2012817988
5318,14,Improv_Melody,369,5,42,110,2012838148
5318,14,Improv_Melody,370,1,48,59,2012847096
5318,14,Improv_Melody,371,1,48,36,2013092260
5318,14,Improv_Melody,372,1,48,46,2013323540
5318,14,Improv_Melody,373,5,42,110,2013338088
5318,14,Improv_Melody,374,1,48,45,2013511380
5318,14,Improv_Melody,375,1,38,54,2013788660
5318,14,Improv_Melody,376,1,48,57,2013803676
5318,14,Improv_Melody,377,5,42,110,2013837744
5318,14,Improv_Melody,378,1,48,44,2014053572
5318,14,Improv_Melody,379,1,48,48,2014313268
5318,14,Improv_Melody,380,5,42,127,2014338296
5318,14,Improv_Melody,381,1,48,51,2014534028
5318,14,Improv_Melody,382,1,48,63,2014802624
5318,14,Improv_Melody,383,1,38,57,2014811660
5318,14,Improv_Melody,384,5,42,110,2014838104
5318,14,Improv_Melody,385,1,48,51,2015060436
5318,14,Improv_Melody,386,1,48,43,2015326940
5318,14,Improv_Melody,387,5,42,110,2015337976
5318,14,Improv_Melody,388,1,48,36,2015549568
5318,14,Improv_Melody,389,1,38,58,2015823476
5318,14,Improv_Melody,390,5,42,110,2015837504
5318,14,Improv_Melody,391,1,48,52,2015842264
5318,14,Improv_Melody,392,1,48,53,2016085188
5318,14,Improv_Melody,393,1,38,67,2016326484
5318,14,Improv_Melody,394,2,48,80,2016340696
5318,14,Improv_Melody,395,2,72,80,2016342924
5318,14,Improv_Melody,396,5,42,127,2016345684
5318,14,Improv_Melody,397,1,48,57,2016835172
5318,14,Improv_Melody,398,5,42,110,2016837908
5318,14,Improv_Melody,399,1,38,59,2017314904
5318,14,Improv_Melody,400,5,42,110,2017337904
5318,14,Improv_Melody,401,1,38,55,2017562336
5318,14,Improv_Melody,402,1,38,58,2017807676
5318,14,Improv_Melody,403,5,42,110,2017837360
5318,14,Improv_Melody,404,1,38,63,2018049820
5318,14,Improv_Melody,405,5,42,127,2018338092
5318,14,Improv_Melody,406,1,48,55,2018339800
5318,14,Improv_Melody,407,1,38,61,2018831960
5318,14,Improv_Melody,408,5,42,110,2018837908
5318,14,Improv_Melody,409,1,38,39,2019308024
5318,14,Improv_Melody,410,5,42,110,2019337608
5318,14,Improv_Melody,411,1,38,49,2019557504
5318,14,Improv_Melody,412,1,38,56,2019798652
5318,14,Improv_Melody,413,5,42,110,2019838332
5318,14,Improv_Melody,414,1,38,66,2020065556
5318,14,Improv_Melody,415,2,43,80,2020340368
5318,14,Improv_Melody,416,2,67,80,2020342744
5318,14,Improv_Melody,417,5,42,127,2020345284
5318,14,Improv_Melody,418,1,48,53,2020362840
5318,14,Improv_Melody,419,1,38,70,2020835368
5318,14,Improv_Melody,420,5,42,110,2020838168
5318,14,Improv_Melody,421,5,42,110,2021337356
5318,14,Improv_Melody,422,1,38,56,2021349600
5318,14,Improv_Melody,423,1,38,51,2021584992
5318,14,Improv_Melody,424,5,42,110,2021838228
5318,14,Improv_Melody,425,1,38,48,2021845684
5318,14,Improv_Melody,426,1,38,59,2022103664
5318,14,Improv_Melody,427,5,42,127,2022337980
5318,14,Improv_Melody,428,1,48,42,2022390540
5318,14,Improv_Melody,429,1,38,67,2022837904
5318,14,Improv_Melody,430,5,42,110,2022840516
5318,14,Improv_Melody,431,1,38,55,2023323872
5318,14,Improv_Melody,432,5,42,110,2023338420
5318,14,Improv_Melody,433,1,38,45,2023572148
5318,14,Improv_Melody,434,1,38,32,2023803576
5318,14,Improv_Melody,435,5,42,110,2023838100
5318,14,Improv_Melody,436,1,38,45,2024059340
5318,14,Improv_Melody,437,1,38,60,2024336904
5318,14,Improv_Melody,438,1,48,38,2024341132
5318,14,Improv_Melody,439,2,45,80,2024343880
5318,14,Improv_Melody,440,2,69,80,2024345576
5318,14,Improv_Melody,441,5,42,127,2024348120
5318,14,Improv_Melody,442,5,42,110,2024837624
5318,14,Improv_Melody,443,1,48,53,2024865648
5318,14,Improv_Melody,444,1,38,55,2025284024
5318,14,Improv_Melody,445,1,48,55,2025290888
5318,14,Improv_Melody,446,5,42,110,2025338124
5318,14,Improv_Melody,447,1,48,45,2025802596
5318,14,Improv_Melody,448,5,42,110,2025837868
5318,14,Improv_Melody,449,1,48,54,2026293244
5318,14,Improv_Melody,450,1,38,57,2026303248
5318,14,Improv_Melody,451,5,42,127,2026337700
5318,14,Improv_Melody,452,1,48,49,2026775296
5318,14,Improv_Melody,453,5,42,110,2026838268
5318,14,Improv_Melody,454,1,48,54,2027270136
5318,14,Improv_Melody,455,1,38,62,2027283428
5318,14,Improv_Melody,456,5,42,110,2027338100
5318,14,Improv_Melody,457,1,48,55,2027771732
5318,14,Improv_Melody,458,5,42,110,2027837772
5318,14,Improv_Melody,459,1,38,54,2028257596
5318,14,Improv_Melody,460,2,41,80,2028340048
5318,14,Improv_Melody,461,2,65,80,2028342268
5318,14,Improv_Melody,462,5,42,127,2028344808
5318,14,Improv_Melody,463,1,48,45,2028523616
5318,14,Improv_Melody,464,1,38,61,2028836320
5318,14,Improv_Melody,465,5,42,110,2028839032
5318,14,Improv_Melody,466,1,48,43,2029116740
5318,14,Improv_Melody,467,5,42,110,2029337868
5318,14,Improv_Melody,468,1,38,61,2029405156
5318,14,Improv_Melody,469,1,48,41,2029679972
5318,14,Improv_Melody,470,5,42,110,2029837744
5318,14,Improv_Melody,471,1,38,52,2029945824
5318,14,Improv_Melody,472,5,42,127,2030338712
5318,14,Improv_Melody,473,1,38,52,2030498632
5318,14,Improv_Melody,474,5,42,110,2030838116
5318,14,Improv_Melody,475,1,38,50,2030985016
5318,14,Improv_Melody,476,5,42,110,2031337740
5318,14,Improv_Melody,477,1,38,41,2031500124
5318,14,Improv_Melody,478,5,42,110,2031837664
5318,14,Improv_Melody,479,1,38,51,2031975596
5318,14,Improv_Melody,480,2,48,80,2032340988
5318,14,Improv_Melody,481,2,72,80,2032343220
5318,14,Improv_Melody,482,5,42,127,2032345824
5318,14,Improv_Melody,483,1,48,45,2032444936
5318,14,Improv_Melody,484,1,48,32,2032679060
5318,14,Improv_Melody,485,5,42,110,2032838032
5318,14,Improv_Melody,486,1,38,55,2032898968
5318,14,Improv_Melody,487,1,48,54,2032909120
5318,14,Improv_Melody,488,1,48,44,2033120476
5318,14,Improv_Melody,0,9999,9999,9999,1952335932
5318,14,Improv_Melody,1,9999,9999,9999,1952835692
5318,14,Improv_Melody,2,9999,9999,9999,1953335416
5318,14,Improv_Melody,3,9999,9999,9999,1953835060
5318,14,Improv_Melody,4,9999,9999,9999,1954335804
5318,14,Improv_Melody,5,9999,9999,9999,1954835532
5318,14,Improv_Melody,6,9999,9999,9999,1955335248
5318,14,Improv_Melody,7,9999,9999,9999,1955835976
5318,14,Improv_Melody,8,9999,9999,9999,1956335728
5318,14,Improv_Melody,9,9999,9999,9999,1956835440
5318,14,Improv_Melody,10,9999,9999,9999,1957335148
5318,14,Improv_Melody,11,9999,9999,9999,1957835868
5318,14,Improv_Melody,12,9999,9999,9999,1958335576
5318,14,Improv_Melody,13,9999,9999,9999,1958835252
5318,14,Improv_Melody,14,9999,9999,9999,1959336016
5318,14,Improv_Melody,15,9999,9999,9999,1959835768
5318,14,Improv_Melody,16,9999,9999,9999,1960335476
5318,14,Improv_Melody,17,9999,9999,9999,1960835148
5318,14,Improv_Melody,18,9999,9999,9999,1961335872
5318,14,Improv_Melody,19,9999,9999,9999,1961835604
5318,14,Improv_Melody,20,9999,9999,9999,1962335352
5318,14,Improv_Melody,21,9999,9999,9999,1962836060
5318,14,Improv_Melody,22,9999,9999,9999,1963335732
5318,14,Improv_Melody,23,9999,9999,9999,1963835472
5318,14,Improv_Melody,24,9999,9999,9999,1964335224
5318,14,Improv_Melody,25,9999,9999,9999,1964835916
5318,14,Improv_Melody,26,9999,9999,9999,1965335616
5318,14,Improv_Melody,27,9999,9999,9999,1965835320
5318,14,Improv_Melody,28,9999,9999,9999,1966336052
5318,14,Improv_Melody,29,9999,9999,9999,1966835816
5318,14,Improv_Melody,30,9999,9999,9999,1967335500
5318,14,Improv_Melody,31,9999,9999,9999,1967835204
5318,14,Improv_Melody,32,9999,9999,9999,1968335928
5318,14,Improv_Melody,33,9999,9999,9999,1968835644
5318,14,Improv_Melody,34,9999,9999,9999,1969335344
5318,14,Improv_Melody,35,9999,9999,9999,1969835060
5318,14,Improv_Melody,36,9999,9999,9999,1970335836
5318,14,Improv_Melody,37,9999,9999,9999,1970835536
5318,14,Improv_Melody,38,9999,9999,9999,1971335236
5318,14,Improv_Melody,39,9999,9999,9999,1971835980
5318,14,Improv_Melody,40,9999,9999,9999,1972335680
5318,14,Improv_Melody,41,9999,9999,9999,1972835380
5318,14,Improv_Melody,42,9999,9999,9999,1973335132
5318,14,Improv_Melody,43,9999,9999,9999,1973835856
5318,14,Improv_Melody,44,9999,9999,9999,1974335536
5318,14,Improv_Melody,45,9999,9999,9999,1974835288
5318,14,Improv_Melody,46,9999,9999,9999,1975336016
5318,14,Improv_Melody,47,9999,9999,9999,1975835744
5318,14,Improv_Melody,48,9999,9999,9999,1976335424
5318,14,Improv_Melody,49,9999,9999,9999,1976835192
5318,14,Improv_Melody,50,9999,9999,9999,1977335856
5318,14,Improv_Melody,51,9999,9999,9999,1977835632
5318,14,Improv_Melody,52,9999,9999,9999,1978335332
5318,14,Improv_Melody,53,9999,9999,9999,1978836076
5318,14,Improv_Melody,54,9999,9999,9999,1979335776
5318,14,Improv_Melody,55,9999,9999,9999,1979835480
5318,14,Improv_Melody,56,9999,9999,9999,1980335176
5318,14,Improv_Melody,57,9999,9999,9999,1980835924
5318,14,Improv_Melody,58,9999,9999,9999,1981335604
5318,14,Improv_Melody,59,9999,9999,9999,1981835352
5318,14,Improv_Melody,60,9999,9999,9999,1982336080
5318,14,Improv_Melody,61,9999,9999,9999,1982835832
5318,14,Improv_Melody,62,9999,9999,9999,1983335524
5318,14,Improv_Melody,63,9999,9999,9999,1983835204
5318,14,Improv_Melody,64,9999,9999,9999,1984335924
5318,14,Improv_Melody,65,9999,9999,9999,1984835700
5318,14,Improv_Melody,66,9999,9999,9999,1985335400
5318,14,Improv_Melody,67,9999,9999,9999,1985835096
5318,14,Improv_Melody,68,9999,9999,9999,1986335836
5318,14,Improv_Melody,69,9999,9999,9999,1986835512
5318,14,Improv_Melody,70,9999,9999,9999,1987335268
5318,14,Improv_Melody,71,9999,9999,9999,1987835964
5318,14,Improv_Melody,72,9999,9999,9999,1988335696
5318,14,Improv_Melody,73,9999,9999,9999,1988835440
5318,14,Improv_Melody,74,9999,9999,9999,1989335096
5318,14,Improv_Melody,75,9999,9999,9999,1989835872
5318,14,Improv_Melody,76,9999,9999,9999,1990335544
5318,14,Improv_Melody,77,9999,9999,9999,1990835284
5318,14,Improv_Melody,78,9999,9999,9999,1991336008
5318,14,Improv_Melody,79,9999,9999,9999,1991835728
5318,14,Improv_Melody,80,9999,9999,9999,1992335476
5318,14,Improv_Melody,81,9999,9999,9999,1992835192
5318,14,Improv_Melody,82,9999,9999,9999,1993335864
5318,14,Improv_Melody,83,9999,9999,9999,1993835632
5318,14,Improv_Melody,84,9999,9999,9999,1994335332
5318,14,Improv_Melody,85,9999,9999,9999,1994836076
5318,14,Improv_Melody,86,9999,9999,9999,1995335780
5318,14,Improv_Melody,87,9999,9999,9999,1995835480
5318,14,Improv_Melody,88,9999,9999,9999,1996335160
5318,14,Improv_Melody,89,9999,9999,9999,1996835944
5318,14,Improv_Melody,90,9999,9999,9999,1997335652
5318,14,Improv_Melody,91,9999,9999,9999,1997835352
5318,14,Improv_Melody,92,9999,9999,9999,1998336084
5318,14,Improv_Melody,93,9999,9999,9999,1998835800
5318,14,Improv_Melody,94,9999,9999,9999,1999335480
5318,14,Improv_Melody,95,9999,9999,9999,1999835188
5318,14,Improv_Melody,96,9999,9999,9999,2000335984
5318,14,Improv_Melody,97,9999,9999,9999,2000835672
5318,14,Improv_Melody,98,9999,9999,9999,2001335352
5318,14,Improv_Melody,99,9999,9999,9999,2001835112
5318,14,Improv_Melody,100,9999,9999,9999,2002335836
5318,14,Improv_Melody,101,9999,9999,9999,2002835512
5318,14,Improv_Melody,102,9999,9999,9999,2003335264
5318,14,Improv_Melody,103,9999,9999,9999,2003836004
5318,14,Improv_Melody,104,9999,9999,9999,2004335688
5318,14,Improv_Melody,105,9999,9999,9999,2004835380
5318,14,Improv_Melody,106,9999,9999,9999,2005335144
5318,14,Improv_Melody,107,9999,9999,9999,2005835896
5318,14,Improv_Melody,108,9999,9999,9999,2006335592
5318,14,Improv_Melody,109,9999,9999,9999,2006835292
5318,14,Improv_Melody,110,9999,9999,9999,2007336040
5318,14,Improv_Melody,111,9999,9999,9999,2007835740
5318,14,Improv_Melody,112,9999,9999,9999,2008335416
5318,14,Improv_Melody,113,9999,9999,9999,2008835184
5318,14,Improv_Melody,114,9999,9999,9999,2009335904
5318,14,Improv_Melody,115,9999,9999,9999,2009835580
5318,14,Improv_Melody,116,9999,9999,9999,2010335320
5318,14,Improv_Melody,117,9999,9999,9999,2010836044
5318,14,Improv_Melody,118,9999,9999,9999,2011335792
5318,14,Improv_Melody,119,9999,9999,9999,2011835468
5318,14,Improv_Melody,120,9999,9999,9999,2012335196
5318,14,Improv_Melody,121,9999,9999,9999,2012835928
5318,14,Improv_Melody,122,9999,9999,9999,2013335644
5318,14,Improv_Melody,123,9999,9999,9999,2013835376
5318,14,Improv_Melody,124,9999,9999,9999,2014336076
5318,14,Improv_Melody,125,9999,9999,9999,2014835808
5318,14,Improv_Melody,126,9999,9999,9999,2015335532
5318,14,Improv_Melody,127,9999,9999,9999,2015835212
5318,14,Improv_Melody,128,9999,9999,9999,2016335976
5318,14,Improv_Melody,129,9999,9999,9999,2016835688
5318,14,Improv_Melody,130,9999,9999,9999,2017335388
5318,14,Improv_Melody,131,9999,9999,9999,2017835068
5318,14,Improv_Melody,132,9999,9999,9999,2018335796
5318,14,Improv_Melody,133,9999,9999,9999,2018835540
5318,14,Improv_Melody,134,9999,9999,9999,2019335240
5318,14,Improv_Melody,135,9999,9999,9999,2019835964
5318,14,Improv_Melody,136,9999,9999,9999,2020335720
5318,14,Improv_Melody,137,9999,9999,9999,2020835432
5318,14,Improv_Melody,138,9999,9999,9999,2021335136
5318,14,Improv_Melody,139,9999,9999,9999,2021835860
5318,14,Improv_Melody,140,9999,9999,9999,2022335536
5318,14,Improv_Melody,141,9999,9999,9999,2022835312
5318,14,Improv_Melody,142,9999,9999,9999,2023336052
5318,14,Improv_Melody,143,9999,9999,9999,2023835732
5318,14,Improv_Melody,144,9999,9999,9999,2024335416
5318,14,Improv_Melody,145,9999,9999,9999,2024835184
5318,14,Improv_Melody,146,9999,9999,9999,2025335904
5318,14,Improv_Melody,147,9999,9999,9999,2025835576
5318,14,Improv_Melody,148,9999,9999,9999,2026335332
5318,14,Improv_Melody,149,9999,9999,9999,2026836052
5318,14,Improv_Melody,150,9999,9999,9999,2027335732
5318,14,Improv_Melody,151,9999,9999,9999,2027835476
5318,14,Improv_Melody,152,9999,9999,9999,2028335176
5318,14,Improv_Melody,153,9999,9999,9999,2028835936
5318,14,Improv_Melody,154,9999,9999,9999,2029335648
5318,14,Improv_Melody,155,9999,9999,9999,2029835372
5318,14,Improv_Melody,156,9999,9999,9999,2030336124
5318,14,Improv_Melody,157,9999,9999,9999,2030835820
5318,14,Improv_Melody,158,9999,9999,9999,2031335520
5318,14,Improv_Melody,159,9999,9999,9999,2031835220
5318,14,Improv_Melody,160,9999,9999,9999,2032335968
5318,14,Improv_Melody,161,9999,9999,9999,2032835660
53