pid,taskRunCount,taskID,taskName,i,channel,pitch,velocity,microseconds
51,1,0,Ticks_Pract_8,0,5,42,127,85222740
51,1,0,Ticks_Pract_8,1,5,42,127,86022496
51,1,0,Ticks_Pract_8,2,5,42,127,86823148
51,1,0,Ticks_Pract_8,3,1,48,29,86834064
51,1,0,Ticks_Pract_8,4,1,48,39,87622528
51,1,0,Ticks_Pract_8,5,5,42,127,87624092
51,1,0,Ticks_Pract_8,6,1,48,32,88408388
51,1,0,Ticks_Pract_8,7,5,42,127,88423152
51,1,0,Ticks_Pract_8,8,1,48,32,89176556
51,1,0,Ticks_Pract_8,9,5,42,127,89222440
51,1,0,Ticks_Pract_8,10,5,42,127,90023376
51,1,0,Ticks_Pract_8,11,1,48,38,90033972
51,1,0,Ticks_Pract_8,12,5,42,127,90823108
51,1,0,Ticks_Pract_8,13,1,48,38,90824972
51,1,0,Ticks_Pract_8,14,1,48,34,91592812
51,1,0,Ticks_Pract_8,15,5,42,127,91622912
51,1,0,Ticks_Pract_8,16,1,48,36,92377636
51,1,0,Ticks_Pract_8,17,5,42,127,92422544
51,1,0,Ticks_Pract_8,18,1,48,37,93178488
51,1,0,Ticks_Pract_8,19,5,42,127,93223176
51,1,0,Ticks_Pract_8,20,1,48,36,94010860
51,1,0,Ticks_Pract_8,21,5,42,127,94022936
51,1,0,Ticks_Pract_8,22,1,48,35,94821920
51,1,0,Ticks_Pract_8,23,5,42,127,94823412
51,1,0,Ticks_Pract_8,24,1,48,29,95604116
51,1,0,Ticks_Pract_8,25,5,42,127,95622404
51,1,0,Ticks_Pract_8,26,1,48,36,96408484
51,1,0,Ticks_Pract_8,27,5,42,127,96423404
51,1,0,Ticks_Pract_8,28,5,42,127,97223072
51,1,0,Ticks_Pract_8,29,1,48,37,97227764
51,1,0,Ticks_Pract_8,30,1,48,38,98015884
51,1,0,Ticks_Pract_8,31,5,42,127,98022800
51,1,0,Ticks_Pract_8,32,1,48,38,98800136
51,1,0,Ticks_Pract_8,33,5,42,127,98822460
51,1,0,Ticks_Pract_8,34,1,48,36,99558056
51,1,0,Ticks_Pract_8,35,5,42,127,99623240
51,1,0,Ticks_Pract_8,36,5,42,127,100422932
51,1,0,Ticks_Pract_8,37,1,48,40,100430164
51,1,0,Ticks_Pract_8,38,5,42,127,101222812
51,1,0,Ticks_Pract_8,39,1,48,33,101256148
51,1,0,Ticks_Pract_8,40,1,48,34,101998948
51,1,0,Ticks_Pract_8,41,5,42,127,102022840
51,1,0,Ticks_Pract_8,42,1,48,37,102771600
51,1,0,Ticks_Pract_8,43,5,42,127,102823244
51,1,0,Ticks_Pract_8,44,1,48,35,103586664
51,1,0,Ticks_Pract_8,45,5,42,127,103622980
51,1,0,Ticks_Pract_8,46,1,48,36,104358428
51,1,0,Ticks_Pract_8,47,5,42,127,104422712
51,1,0,Ticks_Pract_8,48,1,48,38,105206032
51,1,0,Ticks_Pract_8,49,5,42,127,105222444
51,1,0,Ticks_Pract_8,50,1,48,45,106005912
51,1,0,Ticks_Pract_8,51,5,42,127,106023224
51,1,0,Ticks_Pract_8,52,1,48,39,106782604
51,1,0,Ticks_Pract_8,53,5,42,127,106822984
51,1,0,Ticks_Pract_8,54,1,48,42,107600544
51,1,0,Ticks_Pract_8,55,5,42,127,107622716
51,1,0,Ticks_Pract_8,56,1,48,34,108406480
51,1,0,Ticks_Pract_8,57,5,42,127,108422600
51,1,0,Ticks_Pract_8,58,1,48,39,109191032
51,1,0,Ticks_Pract_8,0,9999,9999,9999,85220448
51,1,0,Ticks_Pract_8,1,9999,9999,9999,86020204
51,1,0,Ticks_Pract_8,2,9999,9999,9999,86820932
51,1,0,Ticks_Pract_8,3,9999,9999,9999,87620692
51,1,0,Ticks_Pract_8,4,9999,9999,9999,88420416
51,1,0,Ticks_Pract_8,5,9999,9999,9999,89220152
51,1,0,Ticks_Pract_8,6,9999,9999,9999,90020936
51,1,0,Ticks_Pract_8,7,9999,9999,9999,90820672
51,1,0,Ticks_Pract_8,8,9999,9999,9999,91620400
51,1,0,Ticks_Pract_8,9,9999,9999,9999,92420184
51,1,0,Ticks_Pract_8,10,9999,9999,9999,93220964
51,1,0,Ticks_Pract_8,11,9999,9999,9999,94020720
51,1,0,Ticks_Pract_8,12,9999,9999,9999,94820460
51,1,0,Ticks_Pract_8,13,9999,9999,9999,95620188
51,1,0,Ticks_Pract_8,14,9999,9999,9999,96420968
51,1,0,Ticks_Pract_8,15,9999,9999,9999,97220708
51,1,0,Ticks_Pract_8,16,9999,9999,9999,98020440
51,1,0,Ticks_Pract_8,17,9999,9999,9999,98820172
51,1,0,Ticks_Pract_8,18,9999,9999,9999,99620952
51,1,0,Ticks_Pract_8,19,9999,9999,9999,100420716
51,1,0,Ticks_Pract_8,20,9999,9999,9999,101220448
51,1,0,Ticks_Pract_8,21,9999,9999,9999,102020180
51,1,0,Ticks_Pract_8,22,9999,9999,9999,102820956
51,1,0,Ticks_Pract_8,23,9999,9999,9999,103620692
51,1,0,Ticks_Pract_8,24,9999,9999,9999,104420424
51,1,0,Ticks_Pract_8,25,9999,9999,9999,105220156
51,1,0,Ticks_Pract_8,26,9999,9999,9999,106020936
51,1,0,Ticks_Pract_8,27,9999,9999,9999,106820696
51,1,0,Ticks_Pract_8,28,9999,9999,9999,107620428
51,1,0,Ticks_Pract_8,29,9999,9999,9999,108420160
51,2,1,Ticks_Pract_5,0,5,42,127,130052312
51,2,1,Ticks_Pract_5,1,5,42,127,130553148
51,2,1,Ticks_Pract_5,2,5,42,127,131053016
51,2,1,Ticks_Pract_5,3,5,42,127,131552728
51,2,1,Ticks_Pract_5,4,5,42,127,132053344
51,2,1,Ticks_Pract_5,5,1,48,38,132070900
51,2,1,Ticks_Pract_5,6,5,42,127,132553188
51,2,1,Ticks_Pract_5,7,1,48,39,132556156
51,2,1,Ticks_Pract_5,8,1,48,40,133036088
51,2,1,Ticks_Pract_5,9,5,42,127,133052724
51,2,1,Ticks_Pract_5,10,1,48,34,133538324
51,2,1,Ticks_Pract_5,11,5,42,127,133552420
51,2,1,Ticks_Pract_5,12,1,48,36,134037420
51,2,1,Ticks_Pract_5,13,5,42,127,134053088
51,2,1,Ticks_Pract_5,14,1,48,37,134531056
51,2,1,Ticks_Pract_5,15,5,42,127,134553080
51,2,1,Ticks_Pract_5,16,1,48,36,135038160
51,2,1,Ticks_Pract_5,17,5,42,127,135052628
51,2,1,Ticks_Pract_5,18,5,42,127,135553376
51,2,1,Ticks_Pract_5,19,1,48,36,135570180
51,2,1,Ticks_Pract_5,20,5,42,127,136052996
51,2,1,Ticks_Pract_5,21,1,48,36,136081920
51,2,1,Ticks_Pract_5,22,5,42,127,136552916
51,2,1,Ticks_Pract_5,23,1,48,38,136575332
51,2,1,Ticks_Pract_5,24,1,48,36,137046956
51,2,1,Ticks_Pract_5,25,5,42,127,137052376
51,2,1,Ticks_Pract_5,26,1,48,38,137529296
51,2,1,Ticks_Pract_5,27,5,42,127,137553268
51,2,1,Ticks_Pract_5,28,1,48,41,138034380
51,2,1,Ticks_Pract_5,29,5,42,127,138053112
51,2,1,Ticks_Pract_5,30,1,48,39,138520812
51,2,1,Ticks_Pract_5,31,5,42,127,138552732
51,2,1,Ticks_Pract_5,32,1,48,38,139038008
51,2,1,Ticks_Pract_5,33,5,42,127,139053400
51,2,1,Ticks_Pract_5,34,5,42,127,139553148
51,2,1,Ticks_Pract_5,35,1,48,41,139561676
51,2,1,Ticks_Pract_5,36,1,48,41,140047044
51,2,1,Ticks_Pract_5,37,5,42,127,140052912
51,2,1,Ticks_Pract_5,38,1,48,42,140527216
51,2,1,Ticks_Pract_5,39,5,42,127,140552756
51,2,1,Ticks_Pract_5,40,5,42,127,141053280
51,2,1,Ticks_Pract_5,41,1,48,42,141055292
51,2,1,Ticks_Pract_5,42,1,48,41,141545976
51,2,1,Ticks_Pract_5,43,5,42,127,141552892
51,2,1,Ticks_Pract_5,44,1,48,40,142037596
51,2,1,Ticks_Pract_5,45,5,42,127,142052664
51,2,1,Ticks_Pract_5,46,1,48,39,142536388
51,2,1,Ticks_Pract_5,47,5,42,127,142552504
51,2,1,Ticks_Pract_5,48,1,48,42,143014020
51,2,1,Ticks_Pract_5,49,5,42,127,143053096
51,2,1,Ticks_Pract_5,50,5,42,127,143552948
51,2,1,Ticks_Pract_5,51,1,48,40,143562348
51,2,1,Ticks_Pract_5,52,5,42,127,144052640
51,2,1,Ticks_Pract_5,53,1,48,43,144059348
51,2,1,Ticks_Pract_5,54,1,48,40,144539280
51,2,1,Ticks_Pract_5,55,5,42,127,144553452
51,2,1,Ticks_Pract_5,56,1,48,38,145039348
51,2,1,Ticks_Pract_5,57,5,42,127,145053144
51,2,1,Ticks_Pract_5,58,5,42,127,145552920
51,2,1,Ticks_Pract_5,59,1,48,34,145566212
51,2,1,Ticks_Pract_5,60,1,48,32,146044272
51,2,1,Ticks_Pract_5,61,5,42,127,146052312
51,2,1,Ticks_Pract_5,62,1,48,38,146533944
51,2,1,Ticks_Pract_5,63,5,42,127,146553200
51,2,1,Ticks_Pract_5,64,1,48,38,147022872
51,2,1,Ticks_Pract_5,65,5,42,127,147052972
51,2,1,Ticks_Pract_5,66,1,48,39,147538424
51,2,1,Ticks_Pract_5,67,5,42,127,147552888
51,2,1,Ticks_Pract_5,68,5,42,127,148053340
51,2,1,Ticks_Pract_5,69,1,48,39,148061992
51,2,1,Ticks_Pract_5,70,5,42,127,148553036
51,2,1,Ticks_Pract_5,71,1,48,41,148560416
51,2,1,Ticks_Pract_5,72,5,42,127,149052952
51,2,1,Ticks_Pract_5,73,1,48,39,149057196
51,2,1,Ticks_Pract_5,74,1,48,41,149552044
51,2,1,Ticks_Pract_5,75,5,42,127,149553612
51,2,1,Ticks_Pract_5,0,9999,9999,9999,130050100
51,2,1,Ticks_Pract_5,1,9999,9999,9999,130550860
51,2,1,Ticks_Pract_5,2,9999,9999,9999,131050580
51,2,1,Ticks_Pract_5,3,9999,9999,9999,131550296
51,2,1,Ticks_Pract_5,4,9999,9999,9999,132051060
51,2,1,Ticks_Pract_5,5,9999,9999,9999,132550752
51,2,1,Ticks_Pract_5,6,9999,9999,9999,133050440
51,2,1,Ticks_Pract_5,7,9999,9999,9999,133550136
51,2,1,Ticks_Pract_5,8,9999,9999,9999,134050876
51,2,1,Ticks_Pract_5,9,9999,9999,9999,134550648
51,2,1,Ticks_Pract_5,10,9999,9999,9999,135050340
51,2,1,Ticks_Pract_5,11,9999,9999,9999,135551088
51,2,1,Ticks_Pract_5,12,9999,9999,9999,136050784
51,2,1,Ticks_Pract_5,13,9999,9999,9999,136550480
51,2,1,Ticks_Pract_5,14,9999,9999,9999,137050168
51,2,1,Ticks_Pract_5,15,9999,9999,9999,137550908
51,2,1,Ticks_Pract_5,16,9999,9999,9999,138050676
51,2,1,Ticks_Pract_5,17,9999,9999,9999,138550372
51,2,1,Ticks_Pract_5,18,9999,9999,9999,139051112
51,2,1,Ticks_Pract_5,19,9999,9999,9999,139550788
51,2,1,Ticks_Pract_5,20,9999,9999,9999,140050552
51,2,1,Ticks_Pract_5,21,9999,9999,9999,140550248
51,2,1,Ticks_Pract_5,22,9999,9999,9999,141050992
51,2,1,Ticks_Pract_5,23,9999,9999,9999,141550680
51,2,1,Ticks_Pract_5,24,9999,9999,9999,142050376
51,2,1,Ticks_Pract_5,25,9999,9999,9999,142550072
51,2,1,Ticks_Pract_5,26,9999,9999,9999,143050812
51,2,1,Ticks_Pract_5,27,9999,9999,9999,143550512
51,2,1,Ticks_Pract_5,28,9999,9999,9999,144050280
51,2,1,Ticks_Pract_5,29,9999,9999,9999,144551016
51,2,1,Ticks_Pract_5,30,9999,9999,9999,145050712
51,2,1,Ticks_Pract_5,31,9999,9999,9999,145550412
51,2,1,Ticks_Pract_5,32,9999,9999,9999,146050100
51,2,1,Ticks_Pract_5,33,9999,9999,9999,146550840
51,2,1,Ticks_Pract_5,34,9999,9999,9999,147050612
51,2,1,Ticks_Pract_5,35,9999,9999,9999,147550308
51,2,1,Ticks_Pract_5,36,9999,9999,9999,148051052
51,2,1,Ticks_Pract_5,37,9999,9999,9999,148550748
51,2,1,Ticks_Pract_5,38,9999,9999,9999,149050440
51,2,1,Ticks_Pract_5,39,9999,9999,9999,149550136
51,3,2,T1_SMS_8,0,5,42,127,218173780
51,3,2,T1_SMS_8,1,5,42,127,218973460
51,3,2,T1_SMS_8,2,5,42,127,219774336
51,3,2,T1_SMS_8,3,1,48,30,219814032
51,3,2,T1_SMS_8,4,5,42,127,220574068
51,3,2,T1_SMS_8,5,1,48,31,220592300
51,3,2,T1_SMS_8,6,5,42,127,221373728
51,3,2,T1_SMS_8,7,1,48,38,221388216
51,3,2,T1_SMS_8,8,5,42,127,222173460
51,3,2,T1_SMS_8,9,1,48,32,222193480
51,3,2,T1_SMS_8,10,1,48,35,222965224
51,3,2,T1_SMS_8,11,5,42,127,222974232
51,3,2,T1_SMS_8,12,1,48,35,223708340
51,3,2,T1_SMS_8,13,5,42,127,223774116
51,3,2,T1_SMS_8,14,5,42,127,224573656
51,3,2,T1_SMS_8,15,1,48,33,224608640
51,3,2,T1_SMS_8,16,5,42,127,225373612
51,3,2,T1_SMS_8,17,1,48,39,225447196
51,3,2,T1_SMS_8,18,5,42,127,226174244
51,3,2,T1_SMS_8,19,1,48,35,226194264
51,3,2,T1_SMS_8,20,5,42,127,226974052
51,3,2,T1_SMS_8,21,1,48,40,226993180
51,3,2,T1_SMS_8,22,5,42,127,227773712
51,3,2,T1_SMS_8,23,1,48,38,227781992
51,3,2,T1_SMS_8,24,5,42,127,228573448
51,3,2,T1_SMS_8,25,1,48,32,228574412
51,3,2,T1_SMS_8,26,1,48,31,229358476
51,3,2,T1_SMS_8,27,5,42,127,229374292
51,3,2,T1_SMS_8,28,1,48,32,230137492
51,3,2,T1_SMS_8,29,5,42,127,230174176
51,3,2,T1_SMS_8,30,1,48,33,230929372
51,3,2,T1_SMS_8,31,5,42,127,230973936
51,3,2,T1_SMS_8,32,5,42,127,231773452
51,3,2,T1_SMS_8,33,1,48,36,231775464
51,3,2,T1_SMS_8,34,5,42,127,232574456
51,3,2,T1_SMS_8,35,1,48,34,232594104
51,3,2,T1_SMS_8,36,5,42,127,233374188
51,3,2,T1_SMS_8,37,1,48,30,233378432
51,3,2,T1_SMS_8,38,1,48,30,234166856
51,3,2,T1_SMS_8,39,5,42,127,234173844
51,3,2,T1_SMS_8,40,1,48,31,234959332
51,3,2,T1_SMS_8,41,5,42,127,234973428
51,3,2,T1_SMS_8,42,1,48,32,235725328
51,3,2,T1_SMS_8,43,5,42,127,235774280
51,3,2,T1_SMS_8,44,5,42,127,236574172
51,3,2,T1_SMS_8,45,1,48,30,236583152
51,3,2,T1_SMS_8,46,1,48,29,237355120
51,3,2,T1_SMS_8,47,5,42,127,237374148
51,3,2,T1_SMS_8,48,1,48,33,238137728
51,3,2,T1_SMS_8,49,5,42,127,238173736
51,3,2,T1_SMS_8,50,1,48,29,238941276
51,3,2,T1_SMS_8,51,5,42,127,238974292
51,3,2,T1_SMS_8,52,1,48,32,239769056
51,3,2,T1_SMS_8,53,5,42,127,239773948
51,3,2,T1_SMS_8,54,5,42,127,240573912
51,3,2,T1_SMS_8,55,1,48,37,240600224
51,3,2,T1_SMS_8,56,1,48,38,241341968
51,3,2,T1_SMS_8,57,5,42,127,241373640
51,3,2,T1_SMS_8,58,1,48,30,242158532
51,3,2,T1_SMS_8,59,5,42,127,242174272
51,3,2,T1_SMS_8,60,1,48,34,242941140
51,3,2,T1_SMS_8,61,5,42,127,242973932
51,3,2,T1_SMS_8,62,1,48,33,243749648
51,3,2,T1_SMS_8,63,5,42,127,243773844
51,3,2,T1_SMS_8,64,1,48,33,244560904
51,3,2,T1_SMS_8,65,5,42,127,244573800
51,3,2,T1_SMS_8,66,1,48,38,245330936
51,3,2,T1_SMS_8,67,5,42,127,245374280
51,3,2,T1_SMS_8,68,1,48,34,246149600
51,3,2,T1_SMS_8,69,5,42,127,246174016
51,3,2,T1_SMS_8,70,1,48,36,246934896
51,3,2,T1_SMS_8,71,5,42,127,246973748
51,3,2,T1_SMS_8,72,5,42,127,247773712
51,3,2,T1_SMS_8,73,1,48,36,247789396
51,3,2,T1_SMS_8,74,5,42,127,248574416
51,3,2,T1_SMS_8,75,1,48,35,248582476
51,3,2,T1_SMS_8,76,1,48,36,249350924
51,3,2,T1_SMS_8,77,5,42,127,249373996
51,3,2,T1_SMS_8,78,1,48,34,250140260
51,3,2,T1_SMS_8,79,5,42,127,250173752
51,3,2,T1_SMS_8,80,1,48,33,250968368
51,3,2,T1_SMS_8,81,5,42,127,250973708
51,3,2,T1_SMS_8,82,1,48,33,251740352
51,3,2,T1_SMS_8,83,5,42,127,251774192
51,3,2,T1_SMS_8,84,1,48,30,252506724
51,3,2,T1_SMS_8,85,5,42,127,252574072
51,3,2,T1_SMS_8,86,5,42,127,253373740
51,3,2,T1_SMS_8,87,1,48,38,253391220
51,3,2,T1_SMS_8,88,5,42,127,254173472
51,3,2,T1_SMS_8,89,1,48,42,254186088
51,3,2,T1_SMS_8,90,5,42,127,254974400
51,3,2,T1_SMS_8,91,1,48,32,255004444
51,3,2,T1_SMS_8,92,5,42,127,255773908
51,3,2,T1_SMS_8,93,1,48,34,255787156
51,3,2,T1_SMS_8,94,1,48,39,256559272
51,3,2,T1_SMS_8,95,5,42,127,256573812
51,3,2,T1_SMS_8,96,1,48,32,257333116
51,3,2,T1_SMS_8,97,5,42,127,257373616
51,3,2,T1_SMS_8,98,1,48,32,258167040
51,3,2,T1_SMS_8,99,5,42,127,258174400
51,3,2,T1_SMS_8,100,5,42,127,258973992
51,3,2,T1_SMS_8,101,1,48,35,258989452
51,3,2,T1_SMS_8,102,1,48,33,259766128
51,3,2,T1_SMS_8,103,5,42,127,259773792
51,3,2,T1_SMS_8,104,1,48,35,260549860
51,3,2,T1_SMS_8,105,5,42,127,260573452
51,3,2,T1_SMS_8,106,1,48,27,261358720
51,3,2,T1_SMS_8,107,5,42,127,261374604
51,3,2,T1_SMS_8,108,5,42,127,262174044
51,3,2,T1_SMS_8,109,1,48,29,262219080
51,3,2,T1_SMS_8,110,5,42,127,262973652
51,3,2,T1_SMS_8,111,1,48,38,262992628
51,3,2,T1_SMS_8,112,5,42,127,263773536
51,3,2,T1_SMS_8,113,1,48,35,263793632
51,3,2,T1_SMS_8,114,5,42,127,264574540
51,3,2,T1_SMS_8,115,1,48,28,264592992
51,3,2,T1_SMS_8,116,1,48,32,265367580
51,3,2,T1_SMS_8,117,5,42,127,265374264
51,3,2,T1_SMS_8,118,1,48,24,266171276
51,3,2,T1_SMS_8,119,5,42,127,266173780
51,3,2,T1_SMS_8,120,5,42,127,266973516
51,3,2,T1_SMS_8,121,1,48,35,267019120
51,3,2,T1_SMS_8,122,1,48,30,267767980
51,3,2,T1_SMS_8,123,5,42,127,267774368
51,3,2,T1_SMS_8,124,1,48,36,268534052
51,3,2,T1_SMS_8,125,5,42,127,268574324
51,3,2,T1_SMS_8,126,1,48,34,269369564
51,3,2,T1_SMS_8,127,5,42,127,269373784
51,3,2,T1_SMS_8,128,5,42,127,270173524
51,3,2,T1_SMS_8,129,1,48,30,270178592
51,3,2,T1_SMS_8,130,1,48,28,270957512
51,3,2,T1_SMS_8,131,5,42,127,270974224
51,3,2,T1_SMS_8,132,1,48,33,271734652
51,3,2,T1_SMS_8,133,5,42,127,271774256
51,3,2,T1_SMS_8,134,1,48,35,272558476
51,3,2,T1_SMS_8,135,5,42,127,272573768
51,3,2,T1_SMS_8,136,1,48,30,273347592
51,3,2,T1_SMS_8,137,5,42,127,273373572
51,3,2,T1_SMS_8,138,1,48,28,274140064
51,3,2,T1_SMS_8,139,5,42,127,274174428
51,3,2,T1_SMS_8,140,5,42,127,274974464
51,3,2,T1_SMS_8,141,1,48,29,274991204
51,3,2,T1_SMS_8,142,1,48,33,275765032
51,3,2,T1_SMS_8,143,5,42,127,275773820
51,3,2,T1_SMS_8,144,5,42,127,276573636
51,3,2,T1_SMS_8,145,1,48,32,276577132
51,3,2,T1_SMS_8,146,5,42,127,277374268
51,3,2,T1_SMS_8,147,1,48,33,277390100
51,3,2,T1_SMS_8,148,1,48,34,278171880
51,3,2,T1_SMS_8,149,5,42,127,278173992
51,3,2,T1_SMS_8,150,1,48,30,278965912
51,3,2,T1_SMS_8,151,5,42,127,278974024
51,3,2,T1_SMS_8,152,5,42,127,279773540
51,3,2,T1_SMS_8,153,1,48,30,279776960
51,3,2,T1_SMS_8,154,1,48,36,280536360
51,3,2,T1_SMS_8,155,5,42,127,280574388
51,3,2,T1_SMS_8,156,1,48,25,281356664
51,3,2,T1_SMS_8,157,5,42,127,281373972
51,3,2,T1_SMS_8,158,1,48,24,282101268
51,3,2,T1_SMS_8,159,5,42,127,282173876
51,3,2,T1_SMS_8,160,1,48,38,282927876
51,3,2,T1_SMS_8,161,5,42,127,282973536
51,3,2,T1_SMS_8,162,1,48,25,283771144
51,3,2,T1_SMS_8,163,5,42,127,283774240
51,3,2,T1_SMS_8,164,1,48,28,284570728
51,3,2,T1_SMS_8,165,5,42,127,284574052
51,3,2,T1_SMS_8,166,1,48,30,285342860
51,3,2,T1_SMS_8,167,5,42,127,285373932
51,3,2,T1_SMS_8,168,1,48,35,286163460
51,3,2,T1_SMS_8,169,5,42,127,286173816
51,3,2,T1_SMS_8,170,5,42,127,286974376
51,3,2,T1_SMS_8,171,1,48,27,286993504
51,3,2,T1_SMS_8,172,1,48,27,287746696
51,3,2,T1_SMS_8,173,5,42,127,287774032
51,3,2,T1_SMS_8,174,1,48,21,288554828
51,3,2,T1_SMS_8,175,5,42,127,288573788
51,3,2,T1_SMS_8,176,5,42,127,289373528
51,3,2,T1_SMS_8,177,1,48,29,289381808
51,3,2,T1_SMS_8,178,5,42,127,290174236
51,3,2,T1_SMS_8,179,1,48,29,290183264
51,3,2,T1_SMS_8,180,5,42,127,290973968
51,3,2,T1_SMS_8,181,1,48,28,290991892
51,3,2,T1_SMS_8,182,1,48,31,291774000
51,3,2,T1_SMS_8,183,5,42,127,291775336
51,3,2,T1_SMS_8,184,1,48,40,292570480
51,3,2,T1_SMS_8,185,5,42,127,292573652
51,3,2,T1_SMS_8,186,1,48,35,293363552
51,3,2,T1_SMS_8,187,5,42,127,293374284
51,3,2,T1_SMS_8,188,1,48,39,294166732
51,3,2,T1_SMS_8,189,5,42,127,294174092
51,3,2,T1_SMS_8,190,5,42,127,294973708
51,3,2,T1_SMS_8,191,1,48,39,294977728
51,3,2,T1_SMS_8,192,5,42,127,295773664
51,3,2,T1_SMS_8,193,1,48,34,295775076
51,3,2,T1_SMS_8,194,5,42,127,296574592
51,3,2,T1_SMS_8,195,1,48,39,296596564
51,3,2,T1_SMS_8,196,5,42,127,297373952
51,3,2,T1_SMS_8,197,1,48,32,297407668
51,3,2,T1_SMS_8,198,1,48,31,298157196
51,3,2,T1_SMS_8,199,5,42,127,298173828
51,3,2,T1_SMS_8,200,1,48,41,298935080
51,3,2,T1_SMS_8,201,5,42,127,298973636
51,3,2,T1_SMS_8,202,1,48,39,299763612
51,3,2,T1_SMS_8,203,5,42,127,299774344
51,3,2,T1_SMS_8,204,1,48,35,300547196
51,3,2,T1_SMS_8,205,5,42,127,300574076
51,3,2,T1_SMS_8,206,1,48,36,301362632
51,3,2,T1_SMS_8,207,5,42,127,301373884
51,3,2,T1_SMS_8,208,5,42,127,302173476
51,3,2,T1_SMS_8,209,1,48,38,302183400
51,3,2,T1_SMS_8,210,1,48,34,302967780
51,3,2,T1_SMS_8,211,5,42,127,302974248
51,3,2,T1_SMS_8,212,1,48,34,303729368
51,3,2,T1_SMS_8,213,5,42,127,303773908
51,3,2,T1_SMS_8,214,1,48,30,304531048
51,3,2,T1_SMS_8,215,5,42,127,304573792
51,3,2,T1_SMS_8,216,5,42,127,305373528
51,3,2,T1_SMS_8,217,1,48,27,305378220
51,3,2,T1_SMS_8,218,5,42,127,306174460
51,3,2,T1_SMS_8,219,1,48,26,306185656
51,3,2,T1_SMS_8,220,1,48,24,306967724
51,3,2,T1_SMS_8,221,5,42,127,306974036
51,3,2,T1_SMS_8,222,5,42,127,307773776
51,3,2,T1_SMS_8,223,1,48,25,307797688
51,3,2,T1_SMS_8,224,1,48,29,308475608
51,3,2,T1_SMS_8,225,5,42,127,308573564
51,3,2,T1_SMS_8,226,1,48,20,309365048
51,3,2,T1_SMS_8,227,5,42,127,309374280
51,3,2,T1_SMS_8,228,1,48,24,310171668
51,3,2,T1_SMS_8,229,5,42,127,310174016
51,3,2,T1_SMS_8,230,5,42,127,310973904
51,3,2,T1_SMS_8,231,1,48,26,310996468
51,3,2,T1_SMS_8,232,5,42,127,311773488
51,3,2,T1_SMS_8,233,1,48,27,311798300
51,3,2,T1_SMS_8,234,5,42,127,312574420
51,3,2,T1_SMS_8,235,1,48,29,312597360
51,3,2,T1_SMS_8,236,5,42,127,313374252
51,3,2,T1_SMS_8,237,1,48,27,313447304
51,3,2,T1_SMS_8,0,9999,9999,9999,218171492
51,3,2,T1_SMS_8,1,9999,9999,9999,218971244
51,3,2,T1_SMS_8,2,9999,9999,9999,219771972
51,3,2,T1_SMS_8,3,9999,9999,9999,220571708
51,3,2,T1_SMS_8,4,9999,9999,9999,221371440
51,3,2,T1_SMS_8,5,9999,9999,9999,222171248
51,3,2,T1_SMS_8,6,9999,9999,9999,222972020
51,3,2,T1_SMS_8,7,9999,9999,9999,223771752
51,3,2,T1_SMS_8,8,9999,9999,9999,224571444
51,3,2,T1_SMS_8,9,9999,9999,9999,225371252
51,3,2,T1_SMS_8,10,9999,9999,9999,226171956
51,3,2,T1_SMS_8,11,9999,9999,9999,226971764
51,3,2,T1_SMS_8,12,9999,9999,9999,227771500
51,3,2,T1_SMS_8,13,9999,9999,9999,228571232
51,3,2,T1_SMS_8,14,9999,9999,9999,229372008
51,3,2,T1_SMS_8,15,9999,9999,9999,230171740
51,3,2,T1_SMS_8,16,9999,9999,9999,230971500
51,3,2,T1_SMS_8,17,9999,9999,9999,231771240
51,3,2,T1_SMS_8,18,9999,9999,9999,232572020
51,3,2,T1_SMS_8,19,9999,9999,9999,233371752
51,3,2,T1_SMS_8,20,9999,9999,9999,234171480
51,3,2,T1_SMS_8,21,9999,9999,9999,234971212
51,3,2,T1_SMS_8,22,9999,9999,9999,235771992
51,3,2,T1_SMS_8,23,9999,9999,9999,236571736
51,3,2,T1_SMS_8,24,9999,9999,9999,237371488
51,3,2,T1_SMS_8,25,9999,9999,9999,238171224
51,3,2,T1_SMS_8,26,9999,9999,9999,238972004
51,3,2,T1_SMS_8,27,9999,9999,9999,239771736
51,3,2,T1_SMS_8,28,9999,9999,9999,240571476
51,3,2,T1_SMS_8,29,9999,9999,9999,241371204
51,3,2,T1_SMS_8,30,9999,9999,9999,242171984
51,3,2,T1_SMS_8,31,9999,9999,9999,242971720
51,3,2,T1_SMS_8,32,9999,9999,9999,243771480
51,3,2,T1_SMS_8,33,9999,9999,9999,244571216
51,3,2,T1_SMS_8,34,9999,9999,9999,245371992
51,3,2,T1_SMS_8,35,9999,9999,9999,246171728
51,3,2,T1_SMS_8,36,9999,9999,9999,246971460
51,3,2,T1_SMS_8,37,9999,9999,9999,247771200
51,3,2,T1_SMS_8,38,9999,9999,9999,248571980
51,3,2,T1_SMS_8,39,9999,9999,9999,249371708
51,3,2,T1_SMS_8,40,9999,9999,9999,250171464
51,3,2,T1_SMS_8,41,9999,9999,9999,250971196
51,3,2,T1_SMS_8,42,9999,9999,9999,251771976
51,3,2,T1_SMS_8,43,9999,9999,9999,252571712
51,3,2,T1_SMS_8,44,9999,9999,9999,253371452
51,3,2,T1_SMS_8,45,9999,9999,9999,254171184
51,3,2,T1_SMS_8,46,9999,9999,9999,254971960
51,3,2,T1_SMS_8,47,9999,9999,9999,255771696
51,3,2,T1_SMS_8,48,9999,9999,9999,256571448
51,3,2,T1_SMS_8,49,9999,9999,9999,257371256
51,3,2,T1_SMS_8,50,9999,9999,9999,258171964
51,3,2,T1_SMS_8,51,9999,9999,9999,258971704
51,3,2,T1_SMS_8,52,9999,9999,9999,259771504
51,3,2,T1_SMS_8,53,9999,9999,9999,260571240
51,3,2,T1_SMS_8,54,9999,9999,9999,261372016
51,3,2,T1_SMS_8,55,9999,9999,9999,262171756
51,3,2,T1_SMS_8,56,9999,9999,9999,262971440
51,3,2,T1_SMS_8,57,9999,9999,9999,263771248
51,3,2,T1_SMS_8,58,9999,9999,9999,264571956
51,3,2,T1_SMS_8,59,9999,9999,9999,265371756
51,3,2,T1_SMS_8,60,9999,9999,9999,266171492
51,3,2,T1_SMS_8,61,9999,9999,9999,266971228
51,3,2,T1_SMS_8,62,9999,9999,9999,267772004
51,3,2,T1_SMS_8,63,9999,9999,9999,268571736
51,3,2,T1_SMS_8,64,9999,9999,9999,269371496
51,3,2,T1_SMS_8,65,9999,9999,9999,270171236
51,3,2,T1_SMS_8,66,9999,9999,9999,270972012
51,3,2,T1_SMS_8,67,9999,9999,9999,271771744
51,3,2,T1_SMS_8,68,9999,9999,9999,272571480
51,3,2,T1_SMS_8,69,9999,9999,9999,273371212
51,3,2,T1_SMS_8,70,9999,9999,9999,274171992
51,3,2,T1_SMS_8,71,9999,9999,9999,274971732
51,3,2,T1_SMS_8,72,9999,9999,9999,275771460
51,3,2,T1_SMS_8,73,9999,9999,9999,276571200
51,3,2,T1_SMS_8,74,9999,9999,9999,277371980
51,3,2,T1_SMS_8,75,9999,9999,9999,278171752
51,3,2,T1_SMS_8,76,9999,9999,9999,278971440
51,3,2,T1_SMS_8,77,9999,9999,9999,279771252
51,3,2,T1_SMS_8,78,9999,9999,9999,280571952
51,3,2,T1_SMS_8,79,9999,9999,9999,281371760
51,3,2,T1_SMS_8,80,9999,9999,9999,282171440
51,3,2,T1_SMS_8,81,9999,9999,9999,282971248
51,3,2,T1_SMS_8,82,9999,9999,9999,283771956
51,3,2,T1_SMS_8,83,9999,9999,9999,284571764
51,3,2,T1_SMS_8,84,9999,9999,9999,285371496
51,3,2,T1_SMS_8,85,9999,9999,9999,286171228
51,3,2,T1_SMS_8,86,9999,9999,9999,286972016
51,3,2,T1_SMS_8,87,9999,9999,9999,287771740
51,3,2,T1_SMS_8,88,9999,9999,9999,288571500
51,3,2,T1_SMS_8,89,9999,9999,9999,289371240
51,3,2,T1_SMS_8,90,9999,9999,9999,290172020
51,3,2,T1_SMS_8,91,9999,9999,9999,290971752
51,3,2,T1_SMS_8,92,9999,9999,9999,291771488
51,3,2,T1_SMS_8,93,9999,9999,9999,292571216
51,3,2,T1_SMS_8,94,9999,9999,9999,293371996
51,3,2,T1_SMS_8,95,9999,9999,9999,294171728
51,3,2,T1_SMS_8,96,9999,9999,9999,294971492
51,3,2,T1_SMS_8,97,9999,9999,9999,295771228
51,3,2,T1_SMS_8,98,9999,9999,9999,296572008
51,3,2,T1_SMS_8,99,9999,9999,9999,297371740
51,3,2,T1_SMS_8,100,9999,9999,9999,298171468
51,3,2,T1_SMS_8,101,9999,9999,9999,298971200
51,3,2,T1_SMS_8,102,9999,9999,9999,299771980
51,3,2,T1_SMS_8,103,9999,9999,9999,300571716
51,3,2,T1_SMS_8,104,9999,9999,9999,301371448
51,3,2,T1_SMS_8,105,9999,9999,9999,302171188
51,3,2,T1_SMS_8,106,9999,9999,9999,302971960
51,3,2,T1_SMS_8,107,9999,9999,9999,303771696
51,3,2,T1_SMS_8,108,9999,9999,9999,304571504
51,3,2,T1_SMS_8,109,9999,9999,9999,305371240
51,3,2,T1_SMS_8,110,9999,9999,9999,306172024
51,3,2,T1_SMS_8,111,9999,9999,9999,306971748
51,3,2,T1_SMS_8,112,9999,9999,9999,307771488
51,3,2,T1_SMS_8,113,9999,9999,9999,308571200
51,3,2,T1_SMS_8,114,9999,9999,9999,309371996
51,3,2,T1_SMS_8,115,9999,9999,9999,310171728
51,3,2,T1_SMS_8,116,9999,9999,9999,310971468
51,3,2,T1_SMS_8,117,9999,9999,9999,311771200
51,3,2,T1_SMS_8,118,9999,9999,9999,312571980
51,3,2,T1_SMS_8,119,9999,9999,9999,313371712
51,4,4,T1_SMS_5,0,5,42,127,381467012
51,4,4,T1_SMS_5,1,5,42,127,381966704
51,4,4,T1_SMS_5,2,5,42,127,382466348
51,4,4,T1_SMS_5,3,1,48,28,382469088
51,4,4,T1_SMS_5,4,1,48,30,382937948
51,4,4,T1_SMS_5,5,5,42,127,382967080
51,4,4,T1_SMS_5,6,5,42,127,383466784
51,4,4,T1_SMS_5,7,1,48,38,383471920
51,4,4,T1_SMS_5,8,1,48,31,383942952
51,4,4,T1_SMS_5,9,5,42,127,383966696
51,4,4,T1_SMS_5,10,1,48,34,384458204
51,4,4,T1_SMS_5,11,5,42,127,384467288
51,4,4,T1_SMS_5,12,1,48,38,384951316
51,4,4,T1_SMS_5,13,5,42,127,384967208
51,4,4,T1_SMS_5,14,1,48,36,385452804
51,4,4,T1_SMS_5,15,5,42,127,385466756
51,4,4,T1_SMS_5,16,1,48,36,385942556
51,4,4,T1_SMS_5,17,5,42,127,385966448
51,4,4,T1_SMS_5,18,1,48,39,386457580
51,4,4,T1_SMS_5,19,5,42,127,386467116
51,4,4,T1_SMS_5,20,1,48,36,386964844
51,4,4,T1_SMS_5,21,5,42,127,386966736
51,4,4,T1_SMS_5,22,1,48,38,387457644
51,4,4,T1_SMS_5,23,5,42,127,387466728
51,4,4,T1_SMS_5,24,1,48,34,387940736
51,4,4,T1_SMS_5,25,5,42,127,387967472
51,4,4,T1_SMS_5,26,5,42,127,388466948
51,4,4,T1_SMS_5,27,1,48,34,388475448
51,4,4,T1_SMS_5,28,1,48,37,388955456
51,4,4,T1_SMS_5,29,5,42,127,388966788
51,4,4,T1_SMS_5,30,1,48,34,389442960
51,4,4,T1_SMS_5,31,5,42,127,389466632
51,4,4,T1_SMS_5,32,5,42,127,389967156
51,4,4,T1_SMS_5,33,1,48,33,389973860
51,4,4,T1_SMS_5,34,1,48,32,390457612
51,4,4,T1_SMS_5,35,5,42,127,390466996
51,4,4,T1_SMS_5,36,1,48,30,390958576
51,4,4,T1_SMS_5,37,5,42,127,390966616
51,4,4,T1_SMS_5,38,1,48,29,391448296
51,4,4,T1_SMS_5,39,5,42,127,391467652
51,4,4,T1_SMS_5,40,1,48,31,391953456
51,4,4,T1_SMS_5,41,5,42,127,391967128
51,4,4,T1_SMS_5,42,1,48,31,392456664
51,4,4,T1_SMS_5,43,5,42,127,392466720
51,4,4,T1_SMS_5,44,1,48,33,392966796
51,4,4,T1_SMS_5,45,5,42,127,392968132
51,4,4,T1_SMS_5,46,1,48,31,393437356
51,4,4,T1_SMS_5,47,5,42,127,393467456
51,4,4,T1_SMS_5,48,1,48,36,393966480
51,4,4,T1_SMS_5,49,5,42,127,393968048
51,4,4,T1_SMS_5,50,5,42,127,394466704
51,4,4,T1_SMS_5,51,1,48,27,394505944
51,4,4,T1_SMS_5,52,5,42,127,394967520
51,4,4,T1_SMS_5,53,1,48,27,395023144
51,4,4,T1_SMS_5,54,5,42,127,395467216
51,4,4,T1_SMS_5,55,1,48,37,395470112
51,4,4,T1_SMS_5,56,5,42,127,395966688
51,4,4,T1_SMS_5,57,1,48,27,395978332
51,4,4,T1_SMS_5,58,5,42,127,396466680
51,4,4,T1_SMS_5,59,1,48,30,396507572
51,4,4,T1_SMS_5,60,5,42,127,396967424
51,4,4,T1_SMS_5,61,1,48,29,396987448
51,4,4,T1_SMS_5,62,1,48,31,397462960
51,4,4,T1_SMS_5,63,5,42,127,397467112
51,4,4,T1_SMS_5,64,5,42,127,397966664
51,4,4,T1_SMS_5,65,1,48,31,397969328
51,4,4,T1_SMS_5,66,5,42,127,398466584
51,4,4,T1_SMS_5,67,1,48,33,398470152
51,4,4,T1_SMS_5,68,5,42,127,398967028
51,4,4,T1_SMS_5,69,1,48,34,398978968
51,4,4,T1_SMS_5,70,5,42,127,399466796
51,4,4,T1_SMS_5,71,1,48,36,399476196
51,4,4,T1_SMS_5,72,5,42,127,399966568
51,4,4,T1_SMS_5,73,1,48,34,399987864
51,4,4,T1_SMS_5,74,5,42,127,400467384
51,4,4,T1_SMS_5,75,1,48,36,400483288
51,4,4,T1_SMS_5,76,5,42,127,400967004
51,4,4,T1_SMS_5,77,1,48,38,400979696
51,4,4,T1_SMS_5,78,1,48,39,401454468
51,4,4,T1_SMS_5,79,5,42,127,401466768
51,4,4,T1_SMS_5,80,5,42,127,401966620
51,4,4,T1_SMS_5,81,1,48,34,401973776
51,4,4,T1_SMS_5,82,1,48,29,402458796
51,4,4,T1_SMS_5,83,5,42,127,402467280
51,4,4,T1_SMS_5,84,5,42,127,402966956
51,4,4,T1_SMS_5,85,1,48,34,402981220
51,4,4,T1_SMS_5,86,1,48,37,403449380
51,4,4,T1_SMS_5,87,5,42,127,403466692
51,4,4,T1_SMS_5,88,1,48,27,403961416
51,4,4,T1_SMS_5,89,5,42,127,403967288
51,4,4,T1_SMS_5,90,1,48,37,404448472
51,4,4,T1_SMS_5,91,5,42,127,404467132
51,4,4,T1_SMS_5,92,1,48,30,404946296
51,4,4,T1_SMS_5,93,5,42,127,404966752
51,4,4,T1_SMS_5,94,1,48,35,405442400
51,4,4,T1_SMS_5,95,5,42,127,405466596
51,4,4,T1_SMS_5,96,1,48,37,405944492
51,4,4,T1_SMS_5,97,5,42,127,405967264
51,4,4,T1_SMS_5,98,5,42,127,406466892
51,4,4,T1_SMS_5,99,1,48,32,406491624
51,4,4,T1_SMS_5,100,5,42,127,406966732
51,4,4,T1_SMS_5,101,1,48,38,406993636
51,4,4,T1_SMS_5,102,5,42,127,407467400
51,4,4,T1_SMS_5,103,1,48,35,407484952
51,4,4,T1_SMS_5,104,5,42,127,407967168
51,4,4,T1_SMS_5,105,1,48,38,407971860
51,4,4,T1_SMS_5,106,5,42,127,408466936
51,4,4,T1_SMS_5,107,1,48,32,408471104
51,4,4,T1_SMS_5,108,5,42,127,408966412
51,4,4,T1_SMS_5,109,1,48,34,408983740
51,4,4,T1_SMS_5,110,1,48,38,409467080
51,4,4,T1_SMS_5,111,5,42,127,409468492
51,4,4,T1_SMS_5,112,5,42,127,409966996
51,4,4,T1_SMS_5,113,1,48,30,410000108
51,4,4,T1_SMS_5,114,5,42,127,410466616
51,4,4,T1_SMS_5,115,1,48,35,410484468
51,4,4,T1_SMS_5,116,5,42,127,410967360
51,4,4,T1_SMS_5,117,1,48,37,410978780
51,4,4,T1_SMS_5,118,1,48,34,411466368
51,4,4,T1_SMS_5,119,5,42,127,411467872
51,4,4,T1_SMS_5,120,5,42,127,411966972
51,4,4,T1_SMS_5,121,1,48,37,411971580
51,4,4,T1_SMS_5,122,5,42,127,412466516
51,4,4,T1_SMS_5,123,1,48,33,412476892
51,4,4,T1_SMS_5,124,5,42,127,412967332
51,4,4,T1_SMS_5,125,1,48,29,412994384
51,4,4,T1_SMS_5,126,1,48,38,413430608
51,4,4,T1_SMS_5,127,5,42,127,413467096
51,4,4,T1_SMS_5,128,1,48,28,413961192
51,4,4,T1_SMS_5,129,5,42,127,413966616
51,4,4,T1_SMS_5,130,1,48,32,414453036
51,4,4,T1_SMS_5,131,5,42,127,414466460
51,4,4,T1_SMS_5,132,1,48,35,414960432
51,4,4,T1_SMS_5,133,5,42,127,414967128
51,4,4,T1_SMS_5,134,5,42,127,415466976
51,4,4,T1_SMS_5,135,1,48,31,415490592
51,4,4,T1_SMS_5,136,1,48,35,415940600
51,4,4,T1_SMS_5,137,5,42,127,415966592
51,4,4,T1_SMS_5,138,1,48,26,416463932
51,4,4,T1_SMS_5,139,5,42,127,416467260
51,4,4,T1_SMS_5,140,5,42,127,416967112
51,4,4,T1_SMS_5,141,1,48,32,416969048
51,4,4,T1_SMS_5,142,5,42,127,417466656
51,4,4,T1_SMS_5,143,1,48,31,417492140
51,4,4,T1_SMS_5,144,1,48,34,417959056
51,4,4,T1_SMS_5,145,5,42,127,417966420
51,4,4,T1_SMS_5,146,1,48,28,418457028
51,4,4,T1_SMS_5,147,5,42,127,418467236
51,4,4,T1_SMS_5,148,5,42,127,418967160
51,4,4,T1_SMS_5,149,1,48,21,418968124
51,4,4,T1_SMS_5,150,5,42,127,419466556
51,4,4,T1_SMS_5,151,1,48,35,419477608
51,4,4,T1_SMS_5,152,5,42,127,419967300
51,4,4,T1_SMS_5,153,1,48,27,419983880
51,4,4,T1_SMS_5,154,1,48,29,420467292
51,4,4,T1_SMS_5,155,5,42,127,420468632
51,4,4,T1_SMS_5,156,1,48,34,420930748
51,4,4,T1_SMS_5,157,5,42,127,420966980
51,4,4,T1_SMS_5,158,1,48,32,421457972
51,4,4,T1_SMS_5,159,5,42,127,421466456
51,4,4,T1_SMS_5,160,5,42,127,421967200
51,4,4,T1_SMS_5,161,1,48,29,421993204
51,4,4,T1_SMS_5,162,5,42,127,422467196
51,4,4,T1_SMS_5,163,1,48,36,422494096
51,4,4,T1_SMS_5,164,5,42,127,422966520
51,4,4,T1_SMS_5,165,1,48,27,422992976
51,4,4,T1_SMS_5,166,5,42,127,423467336
51,4,4,T1_SMS_5,167,1,48,18,423516072
51,4,4,T1_SMS_5,168,5,42,127,423967104
51,4,4,T1_SMS_5,169,1,48,24,424023776
51,4,4,T1_SMS_5,170,5,42,127,424467072
51,4,4,T1_SMS_5,171,1,48,36,424479792
51,4,4,T1_SMS_5,172,5,42,127,424966472
51,4,4,T1_SMS_5,173,1,48,36,425006196
51,4,4,T1_SMS_5,174,5,42,127,425467212
51,4,4,T1_SMS_5,175,1,48,32,425507380
51,4,4,T1_SMS_5,176,5,42,127,425967056
51,4,4,T1_SMS_5,177,1,48,32,425997252
51,4,4,T1_SMS_5,178,5,42,127,426466900
51,4,4,T1_SMS_5,179,1,48,33,426502260
51,4,4,T1_SMS_5,180,5,42,127,426967344
51,4,4,T1_SMS_5,181,1,48,27,426995664
51,4,4,T1_SMS_5,182,1,48,34,427449868
51,4,4,T1_SMS_5,183,5,42,127,427467184
51,4,4,T1_SMS_5,184,1,48,28,427946420
51,4,4,T1_SMS_5,185,5,42,127,427967024
51,4,4,T1_SMS_5,186,1,48,33,428452924
51,4,4,T1_SMS_5,187,5,42,127,428466496
51,4,4,T1_SMS_5,188,1,48,40,428939380
51,4,4,T1_SMS_5,189,5,42,127,428967164
51,4,4,T1_SMS_5,190,1,48,43,429462788
51,4,4,T1_SMS_5,191,5,42,127,429467084
51,4,4,T1_SMS_5,192,1,48,35,429944300
51,4,4,T1_SMS_5,193,5,42,127,429966928
51,4,4,T1_SMS_5,194,1,48,24,430454764
51,4,4,T1_SMS_5,195,5,42,127,430466400
51,4,4,T1_SMS_5,196,1,48,36,430953340
51,4,4,T1_SMS_5,197,5,42,127,430967216
51,4,4,T1_SMS_5,198,1,48,36,431451768
51,4,4,T1_SMS_5,199,5,42,127,431466912
51,4,4,T1_SMS_5,200,5,42,127,431966912
51,4,4,T1_SMS_5,201,1,48,42,432458212
51,4,4,T1_SMS_5,202,5,42,127,432467444
51,4,4,T1_SMS_5,203,1,48,40,432951548
51,4,4,T1_SMS_5,204,5,42,127,432966916
51,4,4,T1_SMS_5,205,1,48,30,433452812
51,4,4,T1_SMS_5,206,5,42,127,433466908
51,4,4,T1_SMS_5,207,1,48,36,433964020
51,4,4,T1_SMS_5,208,5,42,127,433966456
51,4,4,T1_SMS_5,209,1,48,37,434460880
51,4,4,T1_SMS_5,210,5,42,127,434467124
51,4,4,T1_SMS_5,211,1,48,42,434967336
51,4,4,T1_SMS_5,212,5,42,127,434968376
51,4,4,T1_SMS_5,213,5,42,127,435466784
51,4,4,T1_SMS_5,214,1,48,24,435476256
51,4,4,T1_SMS_5,215,5,42,127,435967228
51,4,4,T1_SMS_5,216,1,48,39,435980964
51,4,4,T1_SMS_5,217,5,42,127,436466996
51,4,4,T1_SMS_5,218,1,48,39,436472884
51,4,4,T1_SMS_5,219,5,42,127,436966768
51,4,4,T1_SMS_5,220,1,48,32,437033856
51,4,4,T1_SMS_5,221,1,48,39,437457668
51,4,4,T1_SMS_5,222,5,42,127,437466604
51,4,4,T1_SMS_5,223,1,48,31,437963344
51,4,4,T1_SMS_5,224,5,42,127,437967196
51,4,4,T1_SMS_5,225,5,42,127,438466972
51,4,4,T1_SMS_5,226,1,48,37,438477568
51,4,4,T1_SMS_5,227,5,42,127,438966516
51,4,4,T1_SMS_5,228,1,48,37,438989160
51,4,4,T1_SMS_5,229,5,42,127,439467484
51,4,4,T1_SMS_5,230,1,48,35,439476512
51,4,4,T1_SMS_5,231,5,42,127,439967176
51,4,4,T1_SMS_5,232,1,48,35,439970148
51,4,4,T1_SMS_5,233,1,48,39,440465664
51,4,4,T1_SMS_5,234,5,42,127,440467164
51,4,4,T1_SMS_5,235,5,42,127,440966568
51,4,4,T1_SMS_5,236,1,48,38,440969088
51,4,4,T1_SMS_5,237,5,42,127,441467312
51,4,4,T1_SMS_5,238,1,48,36,441484416
51,4,4,T1_SMS_5,239,5,42,127,441967004
51,4,4,T1_SMS_5,240,1,48,37,441979024
51,4,4,T1_SMS_5,241,1,48,36,442465492
51,4,4,T1_SMS_5,242,5,42,127,442467064
51,4,4,T1_SMS_5,243,5,42,127,442967440
51,4,4,T1_SMS_5,244,1,48,35,442976620
51,4,4,T1_SMS_5,245,1,48,35,443467508
51,4,4,T1_SMS_5,246,5,42,127,443468696
51,4,4,T1_SMS_5,247,1,48,32,443958784
51,4,4,T1_SMS_5,248,5,42,127,443966824
51,4,4,T1_SMS_5,249,5,42,127,444466524
51,4,4,T1_SMS_5,250,1,48,38,444467712
51,4,4,T1_SMS_5,251,1,48,38,444952640
51,4,4,T1_SMS_5,252,5,42,127,444967556
51,4,4,T1_SMS_5,253,5,42,127,445466960
51,4,4,T1_SMS_5,254,1,48,38,445482864
51,4,4,T1_SMS_5,255,5,42,127,445966556
51,4,4,T1_SMS_5,256,1,48,33,446001564
51,4,4,T1_SMS_5,0,9999,9999,9999,381464696
51,4,4,T1_SMS_5,1,9999,9999,9999,381964340
51,4,4,T1_SMS_5,2,9999,9999,9999,382464056
51,4,4,T1_SMS_5,3,9999,9999,9999,382964792
51,4,4,T1_SMS_5,4,9999,9999,9999,383464568
51,4,4,T1_SMS_5,5,9999,9999,9999,383964256
51,4,4,T1_SMS_5,6,9999,9999,9999,384464996
51,4,4,T1_SMS_5,7,9999,9999,9999,384964692
51,4,4,T1_SMS_5,8,9999,9999,9999,385464392
51,4,4,T1_SMS_5,9,9999,9999,9999,385964084
51,4,4,T1_SMS_5,10,9999,9999,9999,386464828
51,4,4,T1_SMS_5,11,9999,9999,9999,386964560
51,4,4,T1_SMS_5,12,9999,9999,9999,387464292
51,4,4,T1_SMS_5,13,9999,9999,9999,387965032
51,4,4,T1_SMS_5,14,9999,9999,9999,388464732
51,4,4,T1_SMS_5,15,9999,9999,9999,388964424
51,4,4,T1_SMS_5,16,9999,9999,9999,389464116
51,4,4,T1_SMS_5,17,9999,9999,9999,389964864
51,4,4,T1_SMS_5,18,9999,9999,9999,390464628
51,4,4,T1_SMS_5,19,9999,9999,9999,390964324
51,4,4,T1_SMS_5,20,9999,9999,9999,391465068
51,4,4,T1_SMS_5,21,9999,9999,9999,391964764
51,4,4,T1_SMS_5,22,9999,9999,9999,392464432
51,4,4,T1_SMS_5,23,9999,9999,9999,392964208
51,4,4,T1_SMS_5,24,9999,9999,9999,393464944
51,4,4,T1_SMS_5,25,9999,9999,9999,393964644
51,4,4,T1_SMS_5,26,9999,9999,9999,394464340
51,4,4,T1_SMS_5,27,9999,9999,9999,394965080
51,4,4,T1_SMS_5,28,9999,9999,9999,395464776
51,4,4,T1_SMS_5,29,9999,9999,9999,395964472
51,4,4,T1_SMS_5,30,9999,9999,9999,396464240
51,4,4,T1_SMS_5,31,9999,9999,9999,396964984
51,4,4,T1_SMS_5,32,9999,9999,9999,397464672
51,4,4,T1_SMS_5,33,9999,9999,9999,397964372
51,4,4,T1_SMS_5,34,9999,9999,9999,398464068
51,4,4,T1_SMS_5,35,9999,9999,9999,398964808
51,4,4,T1_SMS_5,36,9999,9999,9999,399464504
51,4,4,T1_SMS_5,37,9999,9999,9999,399964276
51,4,4,T1_SMS_5,38,9999,9999,9999,400464944
51,4,4,T1_SMS_5,39,9999,9999,9999,400964716
51,4,4,T1_SMS_5,40,9999,9999,9999,401464404
51,4,4,T1_SMS_5,41,9999,9999,9999,401964104
51,4,4,T1_SMS_5,42,9999,9999,9999,402464840
51,4,4,T1_SMS_5,43,9999,9999,9999,402964592
51,4,4,T1_SMS_5,44,9999,9999,9999,403464256
51,4,4,T1_SMS_5,45,9999,9999,9999,403964996
51,4,4,T1_SMS_5,46,9999,9999,9999,404464692
51,4,4,T1_SMS_5,47,9999,9999,9999,404964460
51,4,4,T1_SMS_5,48,9999,9999,9999,405464160
51,4,4,T1_SMS_5,49,9999,9999,9999,405964900
51,4,4,T1_SMS_5,50,9999,9999,9999,406464600
51,4,4,T1_SMS_5,51,9999,9999,9999,406964296
51,4,4,T1_SMS_5,52,9999,9999,9999,407465036
51,4,4,T1_SMS_5,53,9999,9999,9999,407964728
51,4,4,T1_SMS_5,54,9999,9999,9999,408464500
51,4,4,T1_SMS_5,55,9999,9999,9999,408964196
51,4,4,T1_SMS_5,56,9999,9999,9999,409464936
51,4,4,T1_SMS_5,57,9999,9999,9999,409964632
51,4,4,T1_SMS_5,58,9999,9999,9999,410464328
51,4,4,T1_SMS_5,59,9999,9999,9999,410965068
51,4,4,T1_SMS_5,60,9999,9999,9999,411464764
51,4,4,T1_SMS_5,61,9999,9999,9999,411964532
51,4,4,T1_SMS_5,62,9999,9999,9999,412464228
51,4,4,T1_SMS_5,63,9999,9999,9999,412964968
51,4,4,T1_SMS_5,64,9999,9999,9999,413464656
51,4,4,T1_SMS_5,65,9999,9999,9999,413964400
51,4,4,T1_SMS_5,66,9999,9999,9999,414464096
51,4,4,T1_SMS_5,67,9999,9999,9999,414964836
51,4,4,T1_SMS_5,68,9999,9999,9999,415464540
51,4,4,T1_SMS_5,69,9999,9999,9999,415964228
51,4,4,T1_SMS_5,70,9999,9999,9999,416464968
51,4,4,T1_SMS_5,71,9999,9999,9999,416964672
51,4,4,T1_SMS_5,72,9999,9999,9999,417464440
51,4,4,T1_SMS_5,73,9999,9999,9999,417964128
51,4,4,T1_SMS_5,74,9999,9999,9999,418464872
51,4,4,T1_SMS_5,75,9999,9999,9999,418964572
51,4,4,T1_SMS_5,76,9999,9999,9999,419464268
51,4,4,T1_SMS_5,77,9999,9999,9999,419965012
51,4,4,T1_SMS_5,78,9999,9999,9999,420464704
51,4,4,T1_SMS_5,79,9999,9999,9999,420964468
51,4,4,T1_SMS_5,80,9999,9999,9999,421464164
51,4,4,T1_SMS_5,81,9999,9999,9999,421964912
51,4,4,T1_SMS_5,82,9999,9999,9999,422464608
51,4,4,T1_SMS_5,83,9999,9999,9999,422964300
51,4,4,T1_SMS_5,84,9999,9999,9999,423465044
51,4,4,T1_SMS_5,85,9999,9999,9999,423964740
51,4,4,T1_SMS_5,86,9999,9999,9999,424464484
51,4,4,T1_SMS_5,87,9999,9999,9999,424964180
51,4,4,T1_SMS_5,88,9999,9999,9999,425464924
51,4,4,T1_SMS_5,89,9999,9999,9999,425964616
51,4,4,T1_SMS_5,90,9999,9999,9999,426464312
51,4,4,T1_SMS_5,91,9999,9999,9999,426965056
51,4,4,T1_SMS_5,92,9999,9999,9999,427464816
51,4,4,T1_SMS_5,93,9999,9999,9999,427964512
51,4,4,T1_SMS_5,94,9999,9999,9999,428464208
51,4,4,T1_SMS_5,95,9999,9999,9999,428964948
51,4,4,T1_SMS_5,96,9999,9999,9999,429464644
51,4,4,T1_SMS_5,97,9999,9999,9999,429964340
51,4,4,T1_SMS_5,98,9999,9999,9999,430464108
51,4,4,T1_SMS_5,99,9999,9999,9999,430964852
51,4,4,T1_SMS_5,100,9999,9999,9999,431464548
51,4,4,T1_SMS_5,101,9999,9999,9999,431964248
51,4,4,T1_SMS_5,102,9999,9999,9999,432465004
51,4,4,T1_SMS_5,103,9999,9999,9999,432964700
51,4,4,T1_SMS_5,104,9999,9999,9999,433464396
51,4,4,T1_SMS_5,105,9999,9999,9999,433964092
51,4,4,T1_SMS_5,106,9999,9999,9999,434464832
51,4,4,T1_SMS_5,107,9999,9999,9999,434964584
51,4,4,T1_SMS_5,108,9999,9999,9999,435464272
51,4,4,T1_SMS_5,109,9999,9999,9999,435965012
51,4,4,T1_SMS_5,110,9999,9999,9999,436464708
51,4,4,T1_SMS_5,111,9999,9999,9999,436964400
51,4,4,T1_SMS_5,112,9999,9999,9999,437464164
51,4,4,T1_SMS_5,113,9999,9999,9999,437964904
51,4,4,T1_SMS_5,114,9999,9999,9999,438464608
51,4,4,T1_SMS_5,115,9999,9999,9999,438964300
51,4,4,T1_SMS_5,116,9999,9999,9999,439465040
51,4,4,T1_SMS_5,117,9999,9999,9999,439964740
51,4,4,T1_SMS_5,118,9999,9999,9999,440464436
51,4,4,T1_SMS_5,119,9999,9999,9999,440964204
51,4,4,T1_SMS_5,120,9999,9999,9999,441464948
51,4,4,T1_SMS_5,121,9999,9999,9999,441964640
51,4,4,T1_SMS_5,122,9999,9999,9999,442464336
51,4,4,T1_SMS_5,123,9999,9999,9999,442965076
51,4,4,T1_SMS_5,124,9999,9999,9999,443464772
51,4,4,T1_SMS_5,125,9999,9999,9999,443964532
51,4,4,T1_SMS_5,126,9999,9999,9999,444464236
51,4,4,T1_SMS_5,127,9999,9999,9999,444964968
51,4,4,T1_SMS_5,128,9999,9999,9999,445464672
51,4,4,T1_SMS_5,129,9999,9999,9999,445964340
51,5,22,Ticks_Phase_8,0,5,42,127,456815948
51,5,22,Ticks_Phase_8,1,5,42,127,457615756
51,5,22,Ticks_Phase_8,2,1,48,29,458383484
51,5,22,Ticks_Phase_8,3,5,42,127,458415484
51,5,22,Ticks_Phase_8,4,1,48,29,459172028
51,5,22,Ticks_Phase_8,5,5,42,127,459216316
51,5,22,Ticks_Phase_8,6,5,42,127,460016256
51,5,22,Ticks_Phase_8,7,1,48,33,460058496
51,5,22,Ticks_Phase_8,8,5,42,127,460815820
51,5,22,Ticks_Phase_8,9,1,48,33,460826232
51,5,22,Ticks_Phase_8,10,1,48,35,461580968
51,5,22,Ticks_Phase_8,11,5,42,127,461615400
51,5,22,Ticks_Phase_8,12,1,48,36,462391864
51,5,22,Ticks_Phase_8,13,5,42,127,462416236
51,5,22,Ticks_Phase_8,14,1,48,33,463210528
51,5,22,Ticks_Phase_8,15,5,42,127,463216172
51,5,22,Ticks_Phase_8,16,5,42,127,464015668
51,5,22,Ticks_Phase_8,17,1,48,37,464038036
51,5,22,Ticks_Phase_8,18,5,42,127,464815452
51,5,22,Ticks_Phase_8,19,1,48,36,464863120
51,5,22,Ticks_Phase_8,20,1,48,42,465599324
51,5,22,Ticks_Phase_8,21,5,42,127,465616204
51,5,22,Ticks_Phase_8,22,1,48,38,466390572
51,5,22,Ticks_Phase_8,23,5,42,127,466415916
51,5,22,Ticks_Phase_8,24,1,48,29,467199124
51,5,22,Ticks_Phase_8,25,5,42,127,467215924
51,5,22,Ticks_Phase_8,26,1,48,37,467998036
51,5,22,Ticks_Phase_8,27,5,42,127,468015364
51,5,22,Ticks_Phase_8,28,5,42,127,468816276
51,5,22,Ticks_Phase_8,29,1,48,32,468831076
51,5,22,Ticks_Phase_8,30,1,48,35,469604724
51,5,22,Ticks_Phase_8,31,5,42,127,469616056
51,5,22,Ticks_Phase_8,32,1,48,36,470397544
51,5,22,Ticks_Phase_8,33,5,42,127,470415992
51,5,22,Ticks_Phase_8,34,5,42,127,471215340
51,5,22,Ticks_Phase_8,35,1,48,41,471223168
51,5,22,Ticks_Phase_8,36,5,42,127,472016096
51,5,22,Ticks_Phase_8,37,1,48,40,472021312
51,5,22,Ticks_Phase_8,38,1,48,41,472813068
51,5,22,Ticks_Phase_8,39,5,42,127,472815948
51,5,22,Ticks_Phase_8,40,1,48,37,473569200
51,5,22,Ticks_Phase_8,41,5,42,127,473615660
51,5,22,Ticks_Phase_8,42,1,48,33,474368688
51,5,22,Ticks_Phase_8,43,5,42,127,474415320
51,5,22,Ticks_Phase_8,44,1,48,35,475201748
51,5,22,Ticks_Phase_8,45,5,42,127,475216304
51,5,22,Ticks_Phase_8,46,1,48,33,476011864
51,5,22,Ticks_Phase_8,47,5,42,127,476016016
51,5,22,Ticks_Phase_8,48,1,48,33,476798476
51,5,22,Ticks_Phase_8,49,5,42,127,476815876
51,5,22,Ticks_Phase_8,50,1,48,35,477608744
51,5,22,Ticks_Phase_8,51,5,42,127,477615588
51,5,22,Ticks_Phase_8,52,1,48,35,478411148
51,5,22,Ticks_Phase_8,53,5,42,127,478416272
51,5,22,Ticks_Phase_8,54,1,48,33,479213872
51,5,22,Ticks_Phase_8,55,5,42,127,479215912
51,5,22,Ticks_Phase_8,56,5,42,127,480015780
51,5,22,Ticks_Phase_8,57,1,48,38,480058616
51,5,22,Ticks_Phase_8,58,5,42,127,480795972
51,5,22,Ticks_Phase_8,59,1,48,43,480803276
51,5,22,Ticks_Phase_8,60,1,48,40,481550688
51,5,22,Ticks_Phase_8,61,5,42,127,481595824
51,5,22,Ticks_Phase_8,62,5,42,127,482395692
51,5,22,Ticks_Phase_8,63,1,48,29,482397480
51,5,22,Ticks_Phase_8,64,5,42,127,483196224
51,5,22,Ticks_Phase_8,65,1,48,24,483239632
51,5,22,Ticks_Phase_8,66,5,42,127,483996012
51,5,22,Ticks_Phase_8,67,1,48,41,484029308
51,5,22,Ticks_Phase_8,68,5,42,127,484795796
51,5,22,Ticks_Phase_8,69,1,48,28,484804840
51,5,22,Ticks_Phase_8,70,5,42,127,485595584
51,5,22,Ticks_Phase_8,71,1,48,22,485638016
51,5,22,Ticks_Phase_8,72,1,48,32,486390460
51,5,22,Ticks_Phase_8,73,5,42,127,486396260
51,5,22,Ticks_Phase_8,74,1,48,29,487177744
51,5,22,Ticks_Phase_8,75,5,42,127,487196072
51,5,22,Ticks_Phase_8,76,1,48,44,487963540
51,5,22,Ticks_Phase_8,77,5,42,127,487995708
51,5,22,Ticks_Phase_8,78,1,48,31,488794820
51,5,22,Ticks_Phase_8,79,5,42,127,488796468
51,5,22,Ticks_Phase_8,80,5,42,127,489596632
51,5,22,Ticks_Phase_8,81,1,48,23,489616008
51,5,22,Ticks_Phase_8,82,1,48,29,490385756
51,5,22,Ticks_Phase_8,83,5,42,127,490396040
51,5,22,Ticks_Phase_8,84,5,42,127,491195684
51,5,22,Ticks_Phase_8,85,1,48,26,491204424
51,5,22,Ticks_Phase_8,86,5,42,127,491995696
51,5,22,Ticks_Phase_8,87,1,48,30,492002332
51,5,22,Ticks_Phase_8,88,5,42,127,492796228
51,5,22,Ticks_Phase_8,89,1,48,23,492835620
51,5,22,Ticks_Phase_8,90,5,42,127,493595892
51,5,22,Ticks_Phase_8,91,1,48,34,493622300
51,5,22,Ticks_Phase_8,92,5,42,127,494395680
51,5,22,Ticks_Phase_8,93,1,48,33,494397016
51,5,22,Ticks_Phase_8,94,1,48,29,495209280
51,5,22,Ticks_Phase_8,95,5,42,127,495216052
51,5,22,Ticks_Phase_8,96,1,48,30,496013504
51,5,22,Ticks_Phase_8,97,5,42,127,496015616
51,5,22,Ticks_Phase_8,98,1,48,27,496804592
51,5,22,Ticks_Phase_8,99,5,42,127,496815552
51,5,22,Ticks_Phase_8,100,5,42,127,497616168
51,5,22,Ticks_Phase_8,101,1,48,32,497641376
51,5,22,Ticks_Phase_8,102,5,42,127,498415880
51,5,22,Ticks_Phase_8,103,1,48,27,498422736
51,5,22,Ticks_Phase_8,104,1,48,34,499203800
51,5,22,Ticks_Phase_8,105,5,42,127,499215660
51,5,22,Ticks_Phase_8,106,5,42,127,500015404
51,5,22,Ticks_Phase_8,107,1,48,26,500023232
51,5,22,Ticks_Phase_8,108,5,42,127,500816384
51,5,22,Ticks_Phase_8,109,1,48,25,500854932
51,5,22,Ticks_Phase_8,110,1,48,26,501598912
51,5,22,Ticks_Phase_8,111,5,42,127,501616016
51,5,22,Ticks_Phase_8,112,1,48,33,502390680
51,5,22,Ticks_Phase_8,113,5,42,127,502415800
51,5,22,Ticks_Phase_8,114,1,48,31,503196088
51,5,22,Ticks_Phase_8,115,5,42,127,503215512
51,5,22,Ticks_Phase_8,116,1,48,30,503995276
51,5,22,Ticks_Phase_8,117,5,42,127,504016196
51,5,22,Ticks_Phase_8,118,1,48,23,504785476
51,5,22,Ticks_Phase_8,119,5,42,127,504816132
51,5,22,Ticks_Phase_8,120,1,48,32,505569460
51,5,22,Ticks_Phase_8,121,5,42,127,505615768
51,5,22,Ticks_Phase_8,122,1,48,27,506400796
51,5,22,Ticks_Phase_8,123,5,42,127,506415428
51,5,22,Ticks_Phase_8,124,5,42,127,507216196
51,5,22,Ticks_Phase_8,125,1,48,14,507248752
51,5,22,Ticks_Phase_8,126,1,48,30,508011972
51,5,22,Ticks_Phase_8,127,5,42,127,508056192
51,5,22,Ticks_Phase_8,128,1,48,29,508847936
51,5,22,Ticks_Phase_8,129,5,42,127,508855604
51,5,22,Ticks_Phase_8,130,1,48,32,509633728
51,5,22,Ticks_Phase_8,131,5,42,127,509656364
51,5,22,Ticks_Phase_8,132,1,48,37,510459192
51,5,22,Ticks_Phase_8,133,5,42,127,510466484
51,5,22,Ticks_Phase_8,134,5,42,127,511276340
51,5,22,Ticks_Phase_8,135,1,48,36,511296760
51,5,22,Ticks_Phase_8,136,5,42,127,512076048
51,5,22,Ticks_Phase_8,137,1,48,31,512107780
51,5,22,Ticks_Phase_8,138,5,42,127,512876132
51,5,22,Ticks_Phase_8,139,1,48,31,512918196
51,5,22,Ticks_Phase_8,140,5,42,127,513675548
51,5,22,Ticks_Phase_8,141,1,48,27,513676888
51,5,22,Ticks_Phase_8,142,1,48,36,514466684
51,5,22,Ticks_Phase_8,143,5,42,127,514476300
51,5,22,Ticks_Phase_8,144,1,48,29,515271032
51,5,22,Ticks_Phase_8,145,5,42,127,515276084
51,5,22,Ticks_Phase_8,146,5,42,127,516076172
51,5,22,Ticks_Phase_8,147,1,48,29,516123724
51,5,22,Ticks_Phase_8,148,1,48,29,516822452
51,5,22,Ticks_Phase_8,149,5,42,127,516875656
51,5,22,Ticks_Phase_8,150,1,48,27,517658664
51,5,22,Ticks_Phase_8,151,5,42,127,517676368
51,5,22,Ticks_Phase_8,152,5,42,127,518476156
51,5,22,Ticks_Phase_8,153,1,48,30,518489388
51,5,22,Ticks_Phase_8,154,5,42,127,519276016
51,5,22,Ticks_Phase_8,155,1,48,32,519287080
51,5,22,Ticks_Phase_8,156,5,42,127,520075880
51,5,22,Ticks_Phase_8,157,1,48,27,520096828
51,5,22,Ticks_Phase_8,158,5,42,127,520876416
51,5,22,Ticks_Phase_8,159,1,48,32,520898032
51,5,22,Ticks_Phase_8,160,5,42,127,521636136
51,5,22,Ticks_Phase_8,161,1,48,22,521683656
51,5,22,Ticks_Phase_8,162,5,42,127,522435848
51,5,22,Ticks_Phase_8,163,1,48,19,522476040
51,5,22,Ticks_Phase_8,164,5,42,127,523235780
51,5,22,Ticks_Phase_8,165,1,48,29,523253348
51,5,22,Ticks_Phase_8,166,1,48,32,524032904
51,5,22,Ticks_Phase_8,167,5,42,127,524035560
51,5,22,Ticks_Phase_8,168,5,42,127,524836128
51,5,22,Ticks_Phase_8,169,1,48,17,524869348
51,5,22,Ticks_Phase_8,170,5,42,127,525635988
51,5,22,Ticks_Phase_8,171,1,48,29,525640756
51,5,22,Ticks_Phase_8,172,1,48,21,526408476
51,5,22,Ticks_Phase_8,173,5,42,127,526435840
51,5,22,Ticks_Phase_8,174,1,48,36,527170444
51,5,22,Ticks_Phase_8,175,5,42,127,527235480
51,5,22,Ticks_Phase_8,176,1,48,32,527966868
51,5,22,Ticks_Phase_8,177,5,42,127,528036164
51,5,22,Ticks_Phase_8,178,1,48,21,528824844
51,5,22,Ticks_Phase_8,179,5,42,127,528835876
51,5,22,Ticks_Phase_8,180,5,42,127,529635596
51,5,22,Ticks_Phase_8,181,1,48,24,529660432
51,5,22,Ticks_Phase_8,182,1,48,25,530409956
51,5,22,Ticks_Phase_8,183,5,42,127,530435376
51,5,22,Ticks_Phase_8,184,5,42,127,531236240
51,5,22,Ticks_Phase_8,185,1,48,20,531326532
51,5,22,Ticks_Phase_8,186,5,42,127,532035880
51,5,22,Ticks_Phase_8,187,1,48,19,532078092
51,5,22,Ticks_Phase_8,188,5,42,127,532835812
51,5,22,Ticks_Phase_8,189,1,48,22,532871056
51,5,22,Ticks_Phase_8,190,5,42,127,533635380
51,5,22,Ticks_Phase_8,191,1,48,24,533660212
51,5,22,Ticks_Phase_8,192,5,42,127,534356308
51,5,22,Ticks_Phase_8,193,1,48,26,534441872
51,5,22,Ticks_Phase_8,194,5,42,127,535156020
51,5,22,Ticks_Phase_8,195,1,48,19,535206620
51,5,22,Ticks_Phase_8,196,1,48,18,535926044
51,5,22,Ticks_Phase_8,197,5,42,127,535955948
51,5,22,Ticks_Phase_8,198,1,48,34,536711964
51,5,22,Ticks_Phase_8,199,5,42,127,536755736
51,5,22,Ticks_Phase_8,200,1,48,37,537508760
51,5,22,Ticks_Phase_8,201,5,42,127,537556568
51,5,22,Ticks_Phase_8,202,5,42,127,538356064
51,5,22,Ticks_Phase_8,203,1,48,33,538388412
51,5,22,Ticks_Phase_8,204,1,48,33,539151544
51,5,22,Ticks_Phase_8,205,5,42,127,539155792
51,5,22,Ticks_Phase_8,206,1,48,38,539921472
51,5,22,Ticks_Phase_8,207,5,42,127,539955504
51,5,22,Ticks_Phase_8,208,1,48,31,540740952
51,5,22,Ticks_Phase_8,209,5,42,127,540756560
51,5,22,Ticks_Phase_8,210,1,48,34,541541936
51,5,22,Ticks_Phase_8,211,5,42,127,541556048
51,5,22,Ticks_Phase_8,212,5,42,127,542355692
51,5,22,Ticks_Phase_8,213,1,48,37,542380896
51,5,22,Ticks_Phase_8,214,5,42,127,543155552
51,5,22,Ticks_Phase_8,215,1,48,19,543195372
51,5,22,Ticks_Phase_8,216,5,42,127,543956608
51,5,22,Ticks_Phase_8,217,1,48,24,543981292
51,5,22,Ticks_Phase_8,218,5,42,127,544756024
51,5,22,Ticks_Phase_8,219,1,48,35,544804852
51,5,22,Ticks_Phase_8,220,5,42,127,545555836
51,5,22,Ticks_Phase_8,221,1,48,19,545572356
51,5,22,Ticks_Phase_8,222,1,48,38,546339556
51,5,22,Ticks_Phase_8,223,5,42,127,546355616
51,5,22,Ticks_Phase_8,224,1,48,35,547132900
51,5,22,Ticks_Phase_8,225,5,42,127,547156452
51,5,22,Ticks_Phase_8,226,1,48,34,547957556
51,5,22,Ticks_Phase_8,227,5,42,127,548035920
51,5,22,Ticks_Phase_8,228,5,42,127,548835640
51,5,22,Ticks_Phase_8,229,1,48,24,549046220
51,5,22,Ticks_Phase_8,230,5,42,127,549635500
51,5,22,Ticks_Phase_8,231,1,48,34,549837692
51,5,22,Ticks_Phase_8,232,5,42,127,550436280
51,5,22,Ticks_Phase_8,233,5,42,127,551235940
51,5,22,Ticks_Phase_8,234,1,48,36,551350040
51,5,22,Ticks_Phase_8,235,5,42,127,552035652
51,5,22,Ticks_Phase_8,236,1,48,33,552064612
51,5,22,Ticks_Phase_8,237,1,48,37,552786952
51,5,22,Ticks_Phase_8,238,5,42,127,552835504
51,5,22,Ticks_Phase_8,239,1,48,25,553566372
51,5,22,Ticks_Phase_8,240,5,42,127,553636412
51,5,22,Ticks_Phase_8,241,1,48,29,554412800
51,5,22,Ticks_Phase_8,242,5,42,127,554436048
51,5,22,Ticks_Phase_8,243,1,48,34,555217016
51,5,22,Ticks_Phase_8,244,5,42,127,555235836
51,5,22,Ticks_Phase_8,245,1,48,32,556013736
51,5,22,Ticks_Phase_8,246,5,42,127,556035324
51,5,22,Ticks_Phase_8,247,1,48,32,556834828
51,5,22,Ticks_Phase_8,248,5,42,127,556836480
51,5,22,Ticks_Phase_8,249,5,42,127,557635976
51,5,22,Ticks_Phase_8,250,1,48,35,557652644
51,5,22,Ticks_Phase_8,251,5,42,127,558435836
51,5,22,Ticks_Phase_8,252,1,48,32,558473024
51,5,22,Ticks_Phase_8,253,5,42,127,559235400
51,5,22,Ticks_Phase_8,254,1,48,26,559253876
51,5,22,Ticks_Phase_8,255,1,48,32,560015304
51,5,22,Ticks_Phase_8,256,5,42,127,560036300
51,5,22,Ticks_Phase_8,257,1,48,34,560809248
51,5,22,Ticks_Phase_8,258,5,42,127,560836160
51,5,22,Ticks_Phase_8,259,1,48,32,561576988
51,5,22,Ticks_Phase_8,260,5,42,127,561795468
51,5,22,Ticks_Phase_8,261,5,42,127,562596176
51,5,22,Ticks_Phase_8,262,1,48,29,562792448
51,5,22,Ticks_Phase_8,263,5,42,127,563395960
51,5,22,Ticks_Phase_8,264,1,48,24,563611408
51,5,22,Ticks_Phase_8,265,5,42,127,564195824
51,5,22,Ticks_Phase_8,266,1,48,21,564227628
51,5,22,Ticks_Phase_8,267,5,42,127,564995388
51,5,22,Ticks_Phase_8,268,1,48,29,565036652
51,5,22,Ticks_Phase_8,269,5,42,127,565796168
51,5,22,Ticks_Phase_8,270,1,48,29,565809996
51,5,22,Ticks_Phase_8,271,5,42,127,566596104
51,5,22,Ticks_Phase_8,272,1,48,30,566650000
51,5,22,Ticks_Phase_8,273,5,42,127,567395816
51,5,22,Ticks_Phase_8,274,1,48,32,567466116
51,5,22,Ticks_Phase_8,275,5,42,127,568195456
51,5,22,Ticks_Phase_8,276,1,48,32,568215500
51,5,22,Ticks_Phase_8,277,1,48,27,568928104
51,5,22,Ticks_Phase_8,278,5,42,127,568996208
51,5,22,Ticks_Phase_8,279,1,48,28,569793880
51,5,22,Ticks_Phase_8,280,5,42,127,569795992
51,5,22,Ticks_Phase_8,281,5,42,127,570595788
51,5,22,Ticks_Phase_8,282,1,48,29,570633512
51,5,22,Ticks_Phase_8,283,5,42,127,571395424
51,5,22,Ticks_Phase_8,284,1,48,16,571491048
51,5,22,Ticks_Phase_8,285,5,42,127,572196204
51,5,22,Ticks_Phase_8,286,1,48,29,572213096
51,5,22,Ticks_Phase_8,287,1,48,36,572948400
51,5,22,Ticks_Phase_8,288,5,42,127,572995912
51,5,22,Ticks_Phase_8,289,1,48,30,573755080
51,5,22,Ticks_Phase_8,290,5,42,127,573795844
51,5,22,Ticks_Phase_8,291,1,48,35,574534728
51,5,22,Ticks_Phase_8,292,5,42,127,574595556
51,5,22,Ticks_Phase_8,293,5,42,127,575396172
51,5,22,Ticks_Phase_8,294,1,48,31,575398996
51,5,22,Ticks_Phase_8,295,5,42,127,576195812
51,5,22,Ticks_Phase_8,296,1,48,34,576232400
51,5,22,Ticks_Phase_8,297,5,42,127,576836012
51,5,22,Ticks_Phase_8,298,1,48,27,577018268
51,5,22,Ticks_Phase_8,299,5,42,127,577635800
51,5,22,Ticks_Phase_8,300,1,48,30,577741732
51,5,22,Ticks_Phase_8,301,5,42,127,578435360
51,5,22,Ticks_Phase_8,302,1,48,24,578511416
51,5,22,Ticks_Phase_8,303,5,42,127,579236120
51,5,22,Ticks_Phase_8,304,1,48,29,579246508
51,5,22,Ticks_Phase_8,305,1,48,35,580006144
51,5,22,Ticks_Phase_8,306,5,42,127,580035900
51,5,22,Ticks_Phase_8,307,1,48,31,580810940
51,5,22,Ticks_Phase_8,308,5,42,127,580835612
51,5,22,Ticks_Phase_8,309,1,48,33,581606160
51,5,22,Ticks_Phase_8,310,5,42,127,581635620
51,5,22,Ticks_Phase_8,311,1,48,34,582412828
51,5,22,Ticks_Phase_8,312,5,42,127,582436180
51,5,22,Ticks_Phase_8,313,1,48,32,583210548
51,5,22,Ticks_Phase_8,314,5,42,127,583235820
51,5,22,Ticks_Phase_8,315,1,48,31,584009512
51,5,22,Ticks_Phase_8,316,5,42,127,584035680
51,5,22,Ticks_Phase_8,317,1,48,33,584789308
51,5,22,Ticks_Phase_8,318,5,42,127,584835540
51,5,22,Ticks_Phase_8,319,5,42,127,585636308
51,5,22,Ticks_Phase_8,320,1,48,27,585670280
51,5,22,Ticks_Phase_8,321,5,42,127,586435944
51,5,22,Ticks_Phase_8,322,1,48,29,586462348
51,5,22,Ticks_Phase_8,323,5,42,127,587235656
51,5,22,Ticks_Phase_8,324,1,48,34,587238396
51,5,22,Ticks_Phase_8,325,1,48,32,588002524
51,5,22,Ticks_Phase_8,326,5,42,127,588035432
51,5,22,Ticks_Phase_8,327,1,48,28,588792644
51,5,22,Ticks_Phase_8,328,5,42,127,588836364
51,5,22,Ticks_Phase_8,329,1,48,36,589623624
51,5,22,Ticks_Phase_8,330,5,42,127,589635928
51,5,22,Ticks_Phase_8,331,5,42,127,590435720
51,5,22,Ticks_Phase_8,332,1,48,35,590456436
51,5,22,Ticks_Phase_8,333,1,48,34,591207988
51,5,22,Ticks_Phase_8,334,5,42,127,591235424
51,5,22,Ticks_Phase_8,335,5,42,127,592036488
51,5,22,Ticks_Phase_8,0,9999,9999,9999,456813660
51,5,22,Ticks_Phase_8,1,9999,9999,9999,457613396
51,5,22,Ticks_Phase_8,2,9999,9999,9999,458413124
51,5,22,Ticks_Phase_8,3,9999,9999,9999,459213880
51,5,22,Ticks_Phase_8,4,9999,9999,9999,460013672
51,5,22,Ticks_Phase_8,5,9999,9999,9999,460813384
51,5,22,Ticks_Phase_8,6,9999,9999,9999,461613116
51,5,22,Ticks_Phase_8,7,9999,9999,9999,462413948
51,5,22,Ticks_Phase_8,8,9999,9999,9999,463213660
51,5,22,Ticks_Phase_8,9,9999,9999,9999,464013380
51,5,22,Ticks_Phase_8,10,9999,9999,9999,464813164
51,5,22,Ticks_Phase_8,11,9999,9999,9999,465613916
51,5,22,Ticks_Phase_8,12,9999,9999,9999,466413628
51,5,22,Ticks_Phase_8,13,9999,9999,9999,467213416
51,5,22,Ticks_Phase_8,14,9999,9999,9999,468013152
51,5,22,Ticks_Phase_8,15,9999,9999,9999,468813916
51,5,22,Ticks_Phase_8,16,9999,9999,9999,469613620
51,5,22,Ticks_Phase_8,17,9999,9999,9999,470413408
51,5,22,Ticks_Phase_8,18,9999,9999,9999,471213128
51,5,22,Ticks_Phase_8,19,9999,9999,9999,472013884
51,5,22,Ticks_Phase_8,20,9999,9999,9999,472813664
51,5,22,Ticks_Phase_8,21,9999,9999,9999,473613376
51,5,22,Ticks_Phase_8,22,9999,9999,9999,474413108
51,5,22,Ticks_Phase_8,23,9999,9999,9999,475213944
51,5,22,Ticks_Phase_8,24,9999,9999,9999,476013656
51,5,22,Ticks_Phase_8,25,9999,9999,9999,476813368
51,5,22,Ticks_Phase_8,26,9999,9999,9999,477613156
51,5,22,Ticks_Phase_8,27,9999,9999,9999,478413912
51,5,22,Ticks_Phase_8,28,9999,9999,9999,479213660
51,5,22,Ticks_Phase_8,29,9999,9999,9999,480013416
51,5,22,Ticks_Phase_8,30,9999,9999,9999,480793684
51,5,22,Ticks_Phase_8,31,9999,9999,9999,481593464
51,5,22,Ticks_Phase_8,32,9999,9999,9999,482393180
51,5,22,Ticks_Phase_8,33,9999,9999,9999,483193940
51,5,22,Ticks_Phase_8,34,9999,9999,9999,483993724
51,5,22,Ticks_Phase_8,35,9999,9999,9999,484793436
51,5,22,Ticks_Phase_8,36,9999,9999,9999,485593148
51,5,22,Ticks_Phase_8,37,9999,9999,9999,486393972
51,5,22,Ticks_Phase_8,38,9999,9999,9999,487193708
51,5,22,Ticks_Phase_8,39,9999,9999,9999,487993424
51,5,22,Ticks_Phase_8,40,9999,9999,9999,488793216
51,5,22,Ticks_Phase_8,41,9999,9999,9999,489593972
51,5,22,Ticks_Phase_8,42,9999,9999,9999,490393680
51,5,22,Ticks_Phase_8,43,9999,9999,9999,491193400
51,5,22,Ticks_Phase_8,44,9999,9999,9999,491993184
51,5,22,Ticks_Phase_8,45,9999,9999,9999,492793944
51,5,22,Ticks_Phase_8,46,9999,9999,9999,493593680
51,5,22,Ticks_Phase_8,47,9999,9999,9999,494393464
51,5,22,Ticks_Phase_8,48,9999,9999,9999,495213692
51,5,22,Ticks_Phase_8,49,9999,9999,9999,496013368
51,5,22,Ticks_Phase_8,50,9999,9999,9999,496813116
51,5,22,Ticks_Phase_8,51,9999,9999,9999,497613884
51,5,22,Ticks_Phase_8,52,9999,9999,9999,498413668
51,5,22,Ticks_Phase_8,53,9999,9999,9999,499213372
51,5,22,Ticks_Phase_8,54,9999,9999,9999,500013116
51,5,22,Ticks_Phase_8,55,9999,9999,9999,500813948
51,5,22,Ticks_Phase_8,56,9999,9999,9999,501613652
51,5,22,Ticks_Phase_8,57,9999,9999,9999,502413440
51,5,22,Ticks_Phase_8,58,9999,9999,9999,503213152
51,5,22,Ticks_Phase_8,59,9999,9999,9999,504013908
51,5,22,Ticks_Phase_8,60,9999,9999,9999,504813696
51,5,22,Ticks_Phase_8,61,9999,9999,9999,505613408
51,5,22,Ticks_Phase_8,62,9999,9999,9999,506413144
51,5,22,Ticks_Phase_8,63,9999,9999,9999,507213908
51,5,22,Ticks_Phase_8,64,9999,9999,9999,508053604
51,5,22,Ticks_Phase_8,65,9999,9999,9999,508853320
51,5,22,Ticks_Phase_8,66,9999,9999,9999,509654076
51,5,22,Ticks_Phase_8,67,9999,9999,9999,510464124
51,5,22,Ticks_Phase_8,68,9999,9999,9999,511274048
51,5,22,Ticks_Phase_8,69,9999,9999,9999,512073836
51,5,22,Ticks_Phase_8,70,9999,9999,9999,512873548
51,5,22,Ticks_Phase_8,71,9999,9999,9999,513673332
51,5,22,Ticks_Phase_8,72,9999,9999,9999,514474084
51,5,22,Ticks_Phase_8,73,9999,9999,9999,515273796
51,5,22,Ticks_Phase_8,74,9999,9999,9999,516073588
51,5,22,Ticks_Phase_8,75,9999,9999,9999,516873296
51,5,22,Ticks_Phase_8,76,9999,9999,9999,517674080
51,5,22,Ticks_Phase_8,77,9999,9999,9999,518473796
51,5,22,Ticks_Phase_8,78,9999,9999,9999,519273580
51,5,22,Ticks_Phase_8,79,9999,9999,9999,520073296
51,5,22,Ticks_Phase_8,80,9999,9999,9999,520874052
51,5,22,Ticks_Phase_8,81,9999,9999,9999,521633848
51,5,22,Ticks_Phase_8,82,9999,9999,9999,522433636
51,5,22,Ticks_Phase_8,83,9999,9999,9999,523233348
51,5,22,Ticks_Phase_8,84,9999,9999,9999,524033124
51,5,22,Ticks_Phase_8,85,9999,9999,9999,524833916
51,5,22,Ticks_Phase_8,86,9999,9999,9999,525633628
51,5,22,Ticks_Phase_8,87,9999,9999,9999,526433404
51,5,22,Ticks_Phase_8,88,9999,9999,9999,527233120
51,5,22,Ticks_Phase_8,89,9999,9999,9999,528033880
51,5,22,Ticks_Phase_8,90,9999,9999,9999,528833592
51,5,22,Ticks_Phase_8,91,9999,9999,9999,529633384
51,5,22,Ticks_Phase_8,92,9999,9999,9999,530433088
51,5,22,Ticks_Phase_8,93,9999,9999,9999,531233880
51,5,22,Ticks_Phase_8,94,9999,9999,9999,532033592
51,5,22,Ticks_Phase_8,95,9999,9999,9999,532833376
51,5,22,Ticks_Phase_8,96,9999,9999,9999,533633088
51,5,22,Ticks_Phase_8,97,9999,9999,9999,534354020
51,5,22,Ticks_Phase_8,98,9999,9999,9999,535153732
51,5,22,Ticks_Phase_8,99,9999,9999,9999,535953512
51,5,22,Ticks_Phase_8,100,9999,9999,9999,536753224
51,5,22,Ticks_Phase_8,101,9999,9999,9999,537553984
51,5,22,Ticks_Phase_8,102,9999,9999,9999,538353776
51,5,22,Ticks_Phase_8,103,9999,9999,9999,539153504
51,5,22,Ticks_Phase_8,104,9999,9999,9999,539953216
51,5,22,Ticks_Phase_8,105,9999,9999,9999,540753976
51,5,22,Ticks_Phase_8,106,9999,9999,9999,541553760
51,5,22,Ticks_Phase_8,107,9999,9999,9999,542353480
51,5,22,Ticks_Phase_8,108,9999,9999,9999,543153264
51,5,22,Ticks_Phase_8,109,9999,9999,9999,543954020
51,5,22,Ticks_Phase_8,110,9999,9999,9999,544753736
51,5,22,Ticks_Phase_8,111,9999,9999,9999,545553472
51,5,22,Ticks_Phase_8,112,9999,9999,9999,546353256
51,5,22,Ticks_Phase_8,113,9999,9999,9999,547154016
51,5,22,Ticks_Phase_8,114,9999,9999,9999,548033632
51,5,22,Ticks_Phase_8,115,9999,9999,9999,548833352
51,5,22,Ticks_Phase_8,116,9999,9999,9999,549633140
51,5,22,Ticks_Phase_8,117,9999,9999,9999,550433848
51,5,22,Ticks_Phase_8,118,9999,9999,9999,551233656
51,5,22,Ticks_Phase_8,119,9999,9999,9999,552033364
51,5,22,Ticks_Phase_8,120,9999,9999,9999,552833144
51,5,22,Ticks_Phase_8,121,9999,9999,9999,553633904
51,5,22,Ticks_Phase_8,122,9999,9999,9999,554433612
51,5,22,Ticks_Phase_8,123,9999,9999,9999,555233400
51,5,22,Ticks_Phase_8,124,9999,9999,9999,556033112
51,5,22,Ticks_Phase_8,125,9999,9999,9999,556833904
51,5,22,Ticks_Phase_8,126,9999,9999,9999,557633616
51,5,22,Ticks_Phase_8,127,9999,9999,9999,558433400
51,5,22,Ticks_Phase_8,128,9999,9999,9999,559233112
51,5,22,Ticks_Phase_8,129,9999,9999,9999,560033864
51,5,22,Ticks_Phase_8,130,9999,9999,9999,560833652
51,5,22,Ticks_Phase_8,131,9999,9999,9999,561793108
51,5,22,Ticks_Phase_8,132,9999,9999,9999,562593888
51,5,22,Ticks_Phase_8,133,9999,9999,9999,563393600
51,5,22,Ticks_Phase_8,134,9999,9999,9999,564193388
51,5,22,Ticks_Phase_8,135,9999,9999,9999,564993100
51,5,22,Ticks_Phase_8,136,9999,9999,9999,565793884
51,5,22,Ticks_Phase_8,137,9999,9999,9999,566593596
51,5,22,Ticks_Phase_8,138,9999,9999,9999,567393380
51,5,22,Ticks_Phase_8,139,9999,9999,9999,568193092
51,5,22,Ticks_Phase_8,140,9999,9999,9999,568993848
51,5,22,Ticks_Phase_8,141,9999,9999,9999,569793596
51,5,22,Ticks_Phase_8,142,9999,9999,9999,570593352
51,5,22,Ticks_Phase_8,143,9999,9999,9999,571393136
51,5,22,Ticks_Phase_8,144,9999,9999,9999,572193920
51,5,22,Ticks_Phase_8,145,9999,9999,9999,572993624
51,5,22,Ticks_Phase_8,146,9999,9999,9999,573793336
51,5,22,Ticks_Phase_8,147,9999,9999,9999,574593124
51,5,22,Ticks_Phase_8,148,9999,9999,9999,575393888
51,5,22,Ticks_Phase_8,149,9999,9999,9999,576193600
51,5,22,Ticks_Phase_8,150,9999,9999,9999,576833652
51,5,22,Ticks_Phase_8,151,9999,9999,9999,577633364
51,5,22,Ticks_Phase_8,152,9999,9999,9999,578433148
51,5,22,Ticks_Phase_8,153,9999,9999,9999,579233908
51,5,22,Ticks_Phase_8,154,9999,9999,9999,580033612
51,5,22,Ticks_Phase_8,155,9999,9999,9999,580833400
51,5,22,Ticks_Phase_8,156,9999,9999,9999,581633112
51,5,22,Ticks_Phase_8,157,9999,9999,9999,582433892
51,5,22,Ticks_Phase_8,158,9999,9999,9999,583233608
51,5,22,Ticks_Phase_8,159,9999,9999,9999,584033396
51,5,22,Ticks_Phase_8,160,9999,9999,9999,584833104
51,5,22,Ticks_Phase_8,161,9999,9999,9999,585633872
51,5,22,Ticks_Phase_8,162,9999,9999,9999,586433656
51,5,22,Ticks_Phase_8,163,9999,9999,9999,587233368
51,5,22,Ticks_Phase_8,164,9999,9999,9999,588033148
51,5,22,Ticks_Phase_8,165,9999,9999,9999,588833856
51,5,22,Ticks_Phase_8,166,9999,9999,9999,589633640
51,5,22,Ticks_Phase_8,167,9999,9999,9999,590433356
51,5,22,Ticks_Phase_8,168,9999,9999,9999,591233136
51,5,22,Ticks_Phase_8,169,9999,9999,9999,592033904
51,6,23,Ticks_Phase_5,0,5,42,127,602896680
51,6,23,Ticks_Phase_5,1,5,42,127,603396516
51,6,23,Ticks_Phase_5,2,5,42,127,603897348
51,6,23,Ticks_Phase_5,3,1,48,25,603914236
51,6,23,Ticks_Phase_5,4,1,48,27,604380968
51,6,23,Ticks_Phase_5,5,5,42,127,604397176
51,6,23,Ticks_Phase_5,6,1,48,28,604892108
51,6,23,Ticks_Phase_5,7,5,42,127,604896492
51,6,23,Ticks_Phase_5,8,5,42,127,605397308
51,6,23,Ticks_Phase_5,9,1,48,28,605401548
51,6,23,Ticks_Phase_5,10,5,42,127,605897292
51,6,23,Ticks_Phase_5,11,1,48,26,605910148
51,6,23,Ticks_Phase_5,12,5,42,127,606396760
51,6,23,Ticks_Phase_5,13,1,48,24,606401296
51,6,23,Ticks_Phase_5,14,1,48,28,606891684
51,6,23,Ticks_Phase_5,15,5,42,127,606896664
51,6,23,Ticks_Phase_5,16,5,42,127,607397184
51,6,23,Ticks_Phase_5,17,1,48,27,607401124
51,6,23,Ticks_Phase_5,18,5,42,127,607897168
51,6,23,Ticks_Phase_5,19,1,48,29,607902604
51,6,23,Ticks_Phase_5,20,1,48,29,608395500
51,6,23,Ticks_Phase_5,21,5,42,127,608397072
51,6,23,Ticks_Phase_5,22,5,42,127,608897516
51,6,23,Ticks_Phase_5,23,1,48,31,608910292
51,6,23,Ticks_Phase_5,24,5,42,127,609397280
51,6,23,Ticks_Phase_5,25,1,48,25,609421740
51,6,23,Ticks_Phase_5,26,1,48,28,609892280
51,6,23,Ticks_Phase_5,27,5,42,127,609897032
51,6,23,Ticks_Phase_5,28,1,48,27,610384552
51,6,23,Ticks_Phase_5,29,5,42,127,610396500
51,6,23,Ticks_Phase_5,30,1,48,30,610878184
51,6,23,Ticks_Phase_5,31,5,42,127,610897160
51,6,23,Ticks_Phase_5,32,1,48,29,611395488
51,6,23,Ticks_Phase_5,33,5,42,127,611397072
51,6,23,Ticks_Phase_5,34,1,48,31,611876212
51,6,23,Ticks_Phase_5,35,5,42,127,611896684
51,6,23,Ticks_Phase_5,36,1,48,27,612384276
51,6,23,Ticks_Phase_5,37,5,42,127,612397420
51,6,23,Ticks_Phase_5,38,1,48,26,612882168
51,6,23,Ticks_Phase_5,39,5,42,127,612907368
51,6,23,Ticks_Phase_5,40,1,48,29,613389268
51,6,23,Ticks_Phase_5,41,5,42,127,613407124
51,6,23,Ticks_Phase_5,42,5,42,127,613906964
51,6,23,Ticks_Phase_5,43,1,48,35,613907856
51,6,23,Ticks_Phase_5,44,5,42,127,614406480
51,6,23,Ticks_Phase_5,45,1,48,22,614420780
51,6,23,Ticks_Phase_5,46,5,42,127,614907288
51,6,23,Ticks_Phase_5,47,1,48,22,614945408
51,6,23,Ticks_Phase_5,48,5,42,127,615407128
51,6,23,Ticks_Phase_5,49,1,48,32,615443964
51,6,23,Ticks_Phase_5,50,5,42,127,615906888
51,6,23,Ticks_Phase_5,51,1,48,29,615926940
51,6,23,Ticks_Phase_5,52,5,42,127,616407328
51,6,23,Ticks_Phase_5,53,1,48,30,616425200
51,6,23,Ticks_Phase_5,54,5,42,127,616907088
51,6,23,Ticks_Phase_5,55,1,48,34,616939936
51,6,23,Ticks_Phase_5,56,5,42,127,617406852
51,6,23,Ticks_Phase_5,57,1,48,35,617418288
51,6,23,Ticks_Phase_5,58,5,42,127,617897256
51,6,23,Ticks_Phase_5,59,1,48,28,617927860
51,6,23,Ticks_Phase_5,60,5,42,127,618397016
51,6,23,Ticks_Phase_5,61,1,48,31,618446568
51,6,23,Ticks_Phase_5,62,5,42,127,618896852
51,6,23,Ticks_Phase_5,63,1,48,35,618905216
51,6,23,Ticks_Phase_5,64,5,42,127,619396392
51,6,23,Ticks_Phase_5,65,1,48,36,619422872
51,6,23,Ticks_Phase_5,66,5,42,127,619897128
51,6,23,Ticks_Phase_5,67,1,48,28,619917772
51,6,23,Ticks_Phase_5,68,5,42,127,620396964
51,6,23,Ticks_Phase_5,69,1,48,28,620437304
51,6,23,Ticks_Phase_5,70,5,42,127,620896580
51,6,23,Ticks_Phase_5,71,1,48,29,620936548
51,6,23,Ticks_Phase_5,72,5,42,127,621397464
51,6,23,Ticks_Phase_5,73,1,48,30,621438256
51,6,23,Ticks_Phase_5,74,5,42,127,621896928
51,6,23,Ticks_Phase_5,75,1,48,27,621920712
51,6,23,Ticks_Phase_5,76,1,48,32,622391632
51,6,23,Ticks_Phase_5,77,5,42,127,622396832
51,6,23,Ticks_Phase_5,78,5,42,127,622896528
51,6,23,Ticks_Phase_5,79,1,48,33,622897940
51,6,23,Ticks_Phase_5,80,5,42,127,623397112
51,6,23,Ticks_Phase_5,81,1,48,36,623399852
51,6,23,Ticks_Phase_5,82,5,42,127,623896952
51,6,23,Ticks_Phase_5,83,1,48,34,623903808
51,6,23,Ticks_Phase_5,84,5,42,127,624396712
51,6,23,Ticks_Phase_5,85,1,48,28,624409792
51,6,23,Ticks_Phase_5,86,1,48,28,624886156
51,6,23,Ticks_Phase_5,87,5,42,127,624897416
51,6,23,Ticks_Phase_5,88,1,48,29,625382312
51,6,23,Ticks_Phase_5,89,5,42,127,625397032
51,6,23,Ticks_Phase_5,90,1,48,29,625866136
51,6,23,Ticks_Phase_5,91,5,42,127,625896720
51,6,23,Ticks_Phase_5,92,1,48,31,626386492
51,6,23,Ticks_Phase_5,93,5,42,127,626396632
51,6,23,Ticks_Phase_5,94,1,48,31,626863780
51,6,23,Ticks_Phase_5,95,5,42,127,626906652
51,6,23,Ticks_Phase_5,96,1,48,35,627352236
51,6,23,Ticks_Phase_5,97,5,42,127,627407240
51,6,23,Ticks_Phase_5,98,5,42,127,627907008
51,6,23,Ticks_Phase_5,99,1,48,27,627922256
51,6,23,Ticks_Phase_5,100,5,42,127,628406696
51,6,23,Ticks_Phase_5,101,1,48,28,628434972
51,6,23,Ticks_Phase_5,102,5,42,127,628907656
51,6,23,Ticks_Phase_5,103,1,48,32,628953604
51,6,23,Ticks_Phase_5,104,5,42,127,629407120
51,6,23,Ticks_Phase_5,105,1,48,33,629424620
51,6,23,Ticks_Phase_5,106,5,42,127,629906732
51,6,23,Ticks_Phase_5,107,1,48,35,629923696
51,6,23,Ticks_Phase_5,108,5,42,127,630406496
51,6,23,Ticks_Phase_5,109,1,48,35,630434244
51,6,23,Ticks_Phase_5,110,5,42,127,630907524
51,6,23,Ticks_Phase_5,111,1,48,35,630945472
51,6,23,Ticks_Phase_5,112,5,42,127,631406920
51,6,23,Ticks_Phase_5,113,1,48,33,631425540
51,6,23,Ticks_Phase_5,114,5,42,127,631906532
51,6,23,Ticks_Phase_5,115,1,48,30,631930916
51,6,23,Ticks_Phase_5,116,5,42,127,632407640
51,6,23,Ticks_Phase_5,117,1,48,32,632421016
51,6,23,Ticks_Phase_5,118,1,48,35,632907104
51,6,23,Ticks_Phase_5,119,5,42,127,632908516
51,6,23,Ticks_Phase_5,120,5,42,127,633406720
51,6,23,Ticks_Phase_5,121,1,48,37,633431700
51,6,23,Ticks_Phase_5,122,1,48,35,633901500
51,6,23,Ticks_Phase_5,123,5,42,127,633906628
51,6,23,Ticks_Phase_5,124,5,42,127,634407520
51,6,23,Ticks_Phase_5,125,1,48,23,634428616
51,6,23,Ticks_Phase_5,126,1,48,40,634903492
51,6,23,Ticks_Phase_5,127,5,42,127,634926448
51,6,23,Ticks_Phase_5,128,1,48,33,635399792
51,6,23,Ticks_Phase_5,129,5,42,127,635427256
51,6,23,Ticks_Phase_5,130,1,48,36,635911084
51,6,23,Ticks_Phase_5,131,5,42,127,635926872
51,6,23,Ticks_Phase_5,132,1,48,30,636415040
51,6,23,Ticks_Phase_5,133,5,42,127,636426460
51,6,23,Ticks_Phase_5,134,1,48,28,636889496
51,6,23,Ticks_Phase_5,135,5,42,127,636927492
51,6,23,Ticks_Phase_5,136,1,48,32,637408660
51,6,23,Ticks_Phase_5,137,5,42,127,637427036
51,6,23,Ticks_Phase_5,138,1,48,31,637923764
51,6,23,Ticks_Phase_5,139,5,42,127,637926796
51,6,23,Ticks_Phase_5,140,5,42,127,638426568
51,6,23,Ticks_Phase_5,141,1,48,30,638435384
51,6,23,Ticks_Phase_5,142,5,42,127,638927376
51,6,23,Ticks_Phase_5,143,1,48,33,638950792
51,6,23,Ticks_Phase_5,144,5,42,127,639426992
51,6,23,Ticks_Phase_5,145,1,48,32,639454828
51,6,23,Ticks_Phase_5,146,5,42,127,639926604
51,6,23,Ticks_Phase_5,147,1,48,28,639932788
51,6,23,Ticks_Phase_5,148,1,48,33,640411124
51,6,23,Ticks_Phase_5,149,5,42,127,640427632
51,6,23,Ticks_Phase_5,150,1,48,35,640908352
51,6,23,Ticks_Phase_5,151,5,42,127,640927172
51,6,23,Ticks_Phase_5,152,1,48,31,641405788
51,6,23,Ticks_Phase_5,153,5,42,127,641426788
51,6,23,Ticks_Phase_5,154,1,48,26,641903748
51,6,23,Ticks_Phase_5,155,5,42,127,641926400
51,6,23,Ticks_Phase_5,156,1,48,31,642397152
51,6,23,Ticks_Phase_5,157,5,42,127,642427508
51,6,23,Ticks_Phase_5,158,1,48,33,642911736
51,6,23,Ticks_Phase_5,159,5,42,127,642927048
51,6,23,Ticks_Phase_5,160,5,42,127,643407420
51,6,23,Ticks_Phase_5,161,1,48,27,643425824
51,6,23,Ticks_Phase_5,162,5,42,127,643906812
51,6,23,Ticks_Phase_5,163,1,48,40,643923256
51,6,23,Ticks_Phase_5,164,5,42,127,644406724
51,6,23,Ticks_Phase_5,165,1,48,36,644427220
51,6,23,Ticks_Phase_5,166,5,42,127,644907312
51,6,23,Ticks_Phase_5,167,1,48,34,644940160
51,6,23,Ticks_Phase_5,168,5,42,127,645407148
51,6,23,Ticks_Phase_5,169,1,48,28,645413332
51,6,23,Ticks_Phase_5,170,5,42,127,645906760
51,6,23,Ticks_Phase_5,171,1,48,38,645922528
51,6,23,Ticks_Phase_5,172,5,42,127,646406424
51,6,23,Ticks_Phase_5,173,1,48,27,646420652
51,6,23,Ticks_Phase_5,174,5,42,127,646907308
51,6,23,Ticks_Phase_5,175,1,48,22,646943924
51,6,23,Ticks_Phase_5,176,5,42,127,647407072
51,6,23,Ticks_Phase_5,177,1,48,27,647420152
51,6,23,Ticks_Phase_5,178,5,42,127,647906540
51,6,23,Ticks_Phase_5,179,1,48,33,647935572
51,6,23,Ticks_Phase_5,180,5,42,127,648407272
51,6,23,Ticks_Phase_5,181,1,48,37,648416312
51,6,23,Ticks_Phase_5,182,5,42,127,648907260
51,6,23,Ticks_Phase_5,183,1,48,35,648924072
51,6,23,Ticks_Phase_5,184,5,42,127,649406724
51,6,23,Ticks_Phase_5,185,1,48,29,649432604
51,6,23,Ticks_Phase_5,186,5,42,127,649906488
51,6,23,Ticks_Phase_5,187,1,48,34,649916048
51,6,23,Ticks_Phase_5,188,5,42,127,650407220
51,6,23,Ticks_Phase_5,189,1,48,29,650416560
51,6,23,Ticks_Phase_5,190,1,48,33,650902676
51,6,23,Ticks_Phase_5,191,5,42,127,650907128
51,6,23,Ticks_Phase_5,192,5,42,127,651356576
51,6,23,Ticks_Phase_5,193,1,48,28,651396468
51,6,23,Ticks_Phase_5,194,5,42,127,651857236
51,6,23,Ticks_Phase_5,195,1,48,29,651867252
51,6,23,Ticks_Phase_5,196,1,48,29,652307088
51,6,23,Ticks_Phase_5,197,5,42,127,652357140
51,6,23,Ticks_Phase_5,198,5,42,127,652856760
51,6,23,Ticks_Phase_5,199,1,48,27,652859352
51,6,23,Ticks_Phase_5,200,1,48,35,653333116
51,6,23,Ticks_Phase_5,201,5,42,127,653357416
51,6,23,Ticks_Phase_5,202,1,48,31,653838652
51,6,23,Ticks_Phase_5,203,5,42,127,653867512
51,6,23,Ticks_Phase_5,204,1,48,34,654336072
51,6,23,Ticks_Phase_5,205,5,42,127,654367200
51,6,23,Ticks_Phase_5,206,1,48,29,654856276
51,6,23,Ticks_Phase_5,207,5,42,127,654866736
51,6,23,Ticks_Phase_5,208,1,48,37,655334084
51,6,23,Ticks_Phase_5,209,5,42,127,655366552
51,6,23,Ticks_Phase_5,210,1,48,33,655822616
51,6,23,Ticks_Phase_5,211,5,42,127,655867136
51,6,23,Ticks_Phase_5,212,1,48,37,656318864
51,6,23,Ticks_Phase_5,213,5,42,127,656367120
51,6,23,Ticks_Phase_5,214,5,42,127,656866816
51,6,23,Ticks_Phase_5,215,1,48,37,656876904
51,6,23,Ticks_Phase_5,216,5,42,127,657367328
51,6,23,Ticks_Phase_5,217,1,48,35,657379956
51,6,23,Ticks_Phase_5,218,5,42,127,657867016
51,6,23,Ticks_Phase_5,219,1,48,31,657883312
51,6,23,Ticks_Phase_5,220,5,42,127,658367000
51,6,23,Ticks_Phase_5,221,1,48,29,658376336
51,6,23,Ticks_Phase_5,222,5,42,127,658866464
51,6,23,Ticks_Phase_5,223,1,48,26,658881336
51,6,23,Ticks_Phase_5,224,1,48,23,659367052
51,6,23,Ticks_Phase_5,225,5,42,127,659368388
51,6,23,Ticks_Phase_5,226,1,48,16,659906772
51,6,23,Ticks_Phase_5,227,5,42,127,659917056
51,6,23,Ticks_Phase_5,228,5,42,127,660416828
51,6,23,Ticks_Phase_5,229,1,48,26,660422484
51,6,23,Ticks_Phase_5,230,5,42,127,660916588
51,6,23,Ticks_Phase_5,231,1,48,25,660942168
51,6,23,Ticks_Phase_5,232,5,42,127,661417324
51,6,23,Ticks_Phase_5,233,1,48,27,661444324
51,6,23,Ticks_Phase_5,234,5,42,127,661917088
51,6,23,Ticks_Phase_5,235,1,48,29,661944552
51,6,23,Ticks_Phase_5,236,5,42,127,662416848
51,6,23,Ticks_Phase_5,237,1,48,39,662462724
51,6,23,Ticks_Phase_5,238,5,42,127,662916464
51,6,23,Ticks_Phase_5,239,1,48,32,662962856
51,6,23,Ticks_Phase_5,240,5,42,127,663417196
51,6,23,Ticks_Phase_5,241,1,48,23,663499544
51,6,23,Ticks_Phase_5,242,5,42,127,663916884
51,6,23,Ticks_Phase_5,243,1,48,17,664015416
51,6,23,Ticks_Phase_5,244,5,42,127,664416720
51,6,23,Ticks_Phase_5,245,1,48,27,664452860
51,6,23,Ticks_Phase_5,246,5,42,127,664917232
51,6,23,Ticks_Phase_5,247,1,48,28,664964988
51,6,23,Ticks_Phase_5,248,5,42,127,665417072
51,6,23,Ticks_Phase_5,249,1,48,27,665451640
51,6,23,Ticks_Phase_5,250,5,42,127,665917056
51,6,23,Ticks_Phase_5,251,1,48,36,665918768
51,6,23,Ticks_Phase_5,252,1,48,32,666406300
51,6,23,Ticks_Phase_5,253,5,42,127,666416588
51,6,23,Ticks_Phase_5,254,5,42,127,666917108
51,6,23,Ticks_Phase_5,255,1,48,30,666923364
51,6,23,Ticks_Phase_5,256,1,48,34,667395988
51,6,23,Ticks_Phase_5,257,5,42,127,667416936
51,6,23,Ticks_Phase_5,258,1,48,30,667914888
51,6,23,Ticks_Phase_5,259,5,42,127,667916776
51,6,23,Ticks_Phase_5,260,1,48,36,668414600
51,6,23,Ticks_Phase_5,261,5,42,127,668516948
51,6,23,Ticks_Phase_5,262,1,48,17,668969888
51,6,23,Ticks_Phase_5,263,5,42,127,669016428
51,6,23,Ticks_Phase_5,264,5,42,127,669517244
51,6,23,Ticks_Phase_5,265,1,48,30,669518804
51,6,23,Ticks_Phase_5,266,5,42,127,670016856
51,6,23,Ticks_Phase_5,267,1,48,33,670057868
51,6,23,Ticks_Phase_5,268,5,42,127,670516840
51,6,23,Ticks_Phase_5,269,1,48,34,670546176
51,6,23,Ticks_Phase_5,270,5,42,127,671017280
51,6,23,Ticks_Phase_5,271,1,48,23,671035604
51,6,23,Ticks_Phase_5,272,5,42,127,671516964
51,6,23,Ticks_Phase_5,273,1,48,24,671521056
51,6,23,Ticks_Phase_5,274,1,48,32,671995476
51,6,23,Ticks_Phase_5,275,5,42,127,672016872
51,6,23,Ticks_Phase_5,276,5,42,127,672516688
51,6,23,Ticks_Phase_5,277,1,48,27,672522676
51,6,23,Ticks_Phase_5,278,5,42,127,673017128
51,6,23,Ticks_Phase_5,279,1,48,26,673039144
51,6,23,Ticks_Phase_5,280,5,42,127,673516820
51,6,23,Ticks_Phase_5,281,1,48,32,673538956
51,6,23,Ticks_Phase_5,282,5,42,127,674016656
51,6,23,Ticks_Phase_5,283,1,48,29,674019172
51,6,23,Ticks_Phase_5,284,1,48,29,674501100
51,6,23,Ticks_Phase_5,285,5,42,127,674517308
51,6,23,Ticks_Phase_5,286,1,48,28,675005664
51,6,23,Ticks_Phase_5,287,5,42,127,675017072
51,6,23,Ticks_Phase_5,288,1,48,26,675497036
51,6,23,Ticks_Phase_5,289,5,42,127,675516760
51,6,23,Ticks_Phase_5,290,1,48,29,675986092
51,6,23,Ticks_Phase_5,291,5,42,127,676016672
51,6,23,Ticks_Phase_5,292,1,48,32,676490344
51,6,23,Ticks_Phase_5,293,5,42,127,676517184
51,6,23,Ticks_Phase_5,294,1,48,33,677015820
51,6,23,Ticks_Phase_5,295,5,42,127,677017244
51,6,23,Ticks_Phase_5,296,1,48,31,677510164
51,6,23,Ticks_Phase_5,297,5,42,127,677516560
51,6,23,Ticks_Phase_5,298,5,42,127,677916952
51,6,23,Ticks_Phase_5,299,1,48,29,678026940
51,6,23,Ticks_Phase_5,300,5,42,127,678416716
51,6,23,Ticks_Phase_5,301,1,48,27,678447472
51,6,23,Ticks_Phase_5,302,1,48,26,678894092
51,6,23,Ticks_Phase_5,303,5,42,127,678916668
51,6,23,Ticks_Phase_5,304,1,48,30,679386972
51,6,23,Ticks_Phase_5,305,5,42,127,679417108
51,6,23,Ticks_Phase_5,306,1,48,35,679904248
51,6,23,Ticks_Phase_5,307,5,42,127,679916796
51,6,23,Ticks_Phase_5,308,1,48,32,680395264
51,6,23,Ticks_Phase_5,309,5,42,127,680416708
51,6,23,Ticks_Phase_5,310,5,42,127,680917376
51,6,23,Ticks_Phase_5,311,1,48,34,680918344
51,6,23,Ticks_Phase_5,312,1,48,27,681417440
51,6,23,Ticks_Phase_5,313,5,42,127,681418552
51,6,23,Ticks_Phase_5,314,1,48,30,681891176
51,6,23,Ticks_Phase_5,315,5,42,127,681916748
51,6,23,Ticks_Phase_5,316,1,48,29,682400600
51,6,23,Ticks_Phase_5,317,5,42,127,682416584
51,6,23,Ticks_Phase_5,318,1,48,34,682894904
51,6,23,Ticks_Phase_5,319,5,42,127,682917396
51,6,23,Ticks_Phase_5,320,5,42,127,683416940
51,6,23,Ticks_Phase_5,321,1,48,26,683419608
51,6,23,Ticks_Phase_5,322,5,42,127,683916780
51,6,23,Ticks_Phase_5,323,1,48,27,683942436
51,6,23,Ticks_Phase_5,324,5,42,127,684417368
51,6,23,Ticks_Phase_5,325,1,48,30,684425808
51,6,23,Ticks_Phase_5,326,1,48,28,684915080
51,6,23,Ticks_Phase_5,327,5,42,127,684917048
51,6,23,Ticks_Phase_5,328,5,42,127,685416744
51,6,23,Ticks_Phase_5,329,1,48,24,685448324
51,6,23,Ticks_Phase_5,330,5,42,127,685916732
51,6,23,Ticks_Phase_5,331,1,48,27,685933700
51,6,23,Ticks_Phase_5,332,5,42,127,686417392
51,6,23,Ticks_Phase_5,333,1,48,27,686434360
51,6,23,Ticks_Phase_5,334,5,42,127,686916932
51,6,23,Ticks_Phase_5,335,1,48,23,686944768
51,6,23,Ticks_Phase_5,336,5,42,127,687416620
51,6,23,Ticks_Phase_5,0,9999,9999,9999,602894392
51,6,23,Ticks_Phase_5,1,9999,9999,9999,603394152
51,6,23,Ticks_Phase_5,2,9999,9999,9999,603894908
51,6,23,Ticks_Phase_5,3,9999,9999,9999,604394588
51,6,23,Ticks_Phase_5,4,9999,9999,9999,604894276
51,6,23,Ticks_Phase_5,5,9999,9999,9999,605395020
51,6,23,Ticks_Phase_5,6,9999,9999,9999,605894780
51,6,23,Ticks_Phase_5,7,9999,9999,9999,606394468
51,6,23,Ticks_Phase_5,8,9999,9999,9999,606894148
51,6,23,Ticks_Phase_5,9,9999,9999,9999,607394892
51,6,23,Ticks_Phase_5,10,9999,9999,9999,607894580
51,6,23,Ticks_Phase_5,11,9999,9999,9999,608394344
51,6,23,Ticks_Phase_5,12,9999,9999,9999,608895076
51,6,23,Ticks_Phase_5,13,9999,9999,9999,609394768
51,6,23,Ticks_Phase_5,14,9999,9999,9999,609894520
51,6,23,Ticks_Phase_5,15,9999,9999,9999,610394212
51,6,23,Ticks_Phase_5,16,9999,9999,9999,610894944
51,6,23,Ticks_Phase_5,17,9999,9999,9999,611394640
51,6,23,Ticks_Phase_5,18,9999,9999,9999,611894396
51,6,23,Ticks_Phase_5,19,9999,9999,9999,612395128
51,6,23,Ticks_Phase_5,20,9999,9999,9999,612905076
51,6,23,Ticks_Phase_5,21,9999,9999,9999,613404760
51,6,23,Ticks_Phase_5,22,9999,9999,9999,613904452
51,6,23,Ticks_Phase_5,23,9999,9999,9999,614404192
51,6,23,Ticks_Phase_5,24,9999,9999,9999,614904924
51,6,23,Ticks_Phase_5,25,9999,9999,9999,615404616
51,6,23,Ticks_Phase_5,26,9999,9999,9999,615904376
51,6,23,Ticks_Phase_5,27,9999,9999,9999,616405112
51,6,23,Ticks_Phase_5,28,9999,9999,9999,616904800
51,6,23,Ticks_Phase_5,29,9999,9999,9999,617404488
51,6,23,Ticks_Phase_5,30,9999,9999,9999,617895040
51,6,23,Ticks_Phase_5,31,9999,9999,9999,618394728
51,6,23,Ticks_Phase_5,32,9999,9999,9999,618894416
51,6,23,Ticks_Phase_5,33,9999,9999,9999,619394104
51,6,23,Ticks_Phase_5,34,9999,9999,9999,619894840
51,6,23,Ticks_Phase_5,35,9999,9999,9999,620394600
51,6,23,Ticks_Phase_5,36,9999,9999,9999,620894292
51,6,23,Ticks_Phase_5,37,9999,9999,9999,621395024
51,6,23,Ticks_Phase_5,38,9999,9999,9999,621894712
51,6,23,Ticks_Phase_5,39,9999,9999,9999,622394472
51,6,23,Ticks_Phase_5,40,9999,9999,9999,622894164
51,6,23,Ticks_Phase_5,41,9999,9999,9999,623394900
51,6,23,Ticks_Phase_5,42,9999,9999,9999,623894588
51,6,23,Ticks_Phase_5,43,9999,9999,9999,624394324
51,6,23,Ticks_Phase_5,44,9999,9999,9999,624895052
51,6,23,Ticks_Phase_5,45,9999,9999,9999,625394816
51,6,23,Ticks_Phase_5,46,9999,9999,9999,625894504
51,6,23,Ticks_Phase_5,47,9999,9999,9999,626394192
51,6,23,Ticks_Phase_5,48,9999,9999,9999,626904140
51,6,23,Ticks_Phase_5,49,9999,9999,9999,627404876
51,6,23,Ticks_Phase_5,50,9999,9999,9999,627904572
51,6,23,Ticks_Phase_5,51,9999,9999,9999,628404332
51,6,23,Ticks_Phase_5,52,9999,9999,9999,628905068
51,6,23,Ticks_Phase_5,53,9999,9999,9999,629404756
51,6,23,Ticks_Phase_5,54,9999,9999,9999,629904444
51,6,23,Ticks_Phase_5,55,9999,9999,9999,630404204
51,6,23,Ticks_Phase_5,56,9999,9999,9999,630904940
51,6,23,Ticks_Phase_5,57,9999,9999,9999,631404628
51,6,23,Ticks_Phase_5,58,9999,9999,9999,631904316
51,6,23,Ticks_Phase_5,59,9999,9999,9999,632405052
51,6,23,Ticks_Phase_5,60,9999,9999,9999,632904816
51,6,23,Ticks_Phase_5,61,9999,9999,9999,633404508
51,6,23,Ticks_Phase_5,62,9999,9999,9999,633904188
51,6,23,Ticks_Phase_5,63,9999,9999,9999,634404932
51,6,23,Ticks_Phase_5,64,9999,9999,9999,634924160
51,6,23,Ticks_Phase_5,65,9999,9999,9999,635424896
51,6,23,Ticks_Phase_5,66,9999,9999,9999,635924584
51,6,23,Ticks_Phase_5,67,9999,9999,9999,636424248
51,6,23,Ticks_Phase_5,68,9999,9999,9999,636924980
51,6,23,Ticks_Phase_5,69,9999,9999,9999,637424744
51,6,23,Ticks_Phase_5,70,9999,9999,9999,637924432
51,6,23,Ticks_Phase_5,71,9999,9999,9999,638424128
51,6,23,Ticks_Phase_5,72,9999,9999,9999,638924864
51,6,23,Ticks_Phase_5,73,9999,9999,9999,639424628
51,6,23,Ticks_Phase_5,74,9999,9999,9999,639924316
51,6,23,Ticks_Phase_5,75,9999,9999,9999,640425044
51,6,23,Ticks_Phase_5,76,9999,9999,9999,640924736
51,6,23,Ticks_Phase_5,77,9999,9999,9999,641424496
51,6,23,Ticks_Phase_5,78,9999,9999,9999,641924184
51,6,23,Ticks_Phase_5,79,9999,9999,9999,642424924
51,6,23,Ticks_Phase_5,80,9999,9999,9999,642924612
51,6,23,Ticks_Phase_5,81,9999,9999,9999,643404908
51,6,23,Ticks_Phase_5,82,9999,9999,9999,643904596
51,6,23,Ticks_Phase_5,83,9999,9999,9999,644404284
51,6,23,Ticks_Phase_5,84,9999,9999,9999,644905020
51,6,23,Ticks_Phase_5,85,9999,9999,9999,645404784
51,6,23,Ticks_Phase_5,86,9999,9999,9999,645904472
51,6,23,Ticks_Phase_5,87,9999,9999,9999,646404212
51,6,23,Ticks_Phase_5,88,9999,9999,9999,646904944
51,6,23,Ticks_Phase_5,89,9999,9999,9999,647404636
51,6,23,Ticks_Phase_5,90,9999,9999,9999,647904324
51,6,23,Ticks_Phase_5,91,9999,9999,9999,648405056
51,6,23,Ticks_Phase_5,92,9999,9999,9999,648904820
51,6,23,Ticks_Phase_5,93,9999,9999,9999,649404508
51,6,23,Ticks_Phase_5,94,9999,9999,9999,649904196
51,6,23,Ticks_Phase_5,95,9999,9999,9999,650404932
51,6,23,Ticks_Phase_5,96,9999,9999,9999,650904688
51,6,23,Ticks_Phase_5,97,9999,9999,9999,651354212
51,6,23,Ticks_Phase_5,98,9999,9999,9999,651854948
51,6,23,Ticks_Phase_5,99,9999,9999,9999,652354628
51,6,23,Ticks_Phase_5,100,9999,9999,9999,652854396
51,6,23,Ticks_Phase_5,101,9999,9999,9999,653355124
51,6,23,Ticks_Phase_5,102,9999,9999,9999,653865072
51,6,23,Ticks_Phase_5,103,9999,9999,9999,654364760
51,6,23,Ticks_Phase_5,104,9999,9999,9999,654864448
51,6,23,Ticks_Phase_5,105,9999,9999,9999,655364188
51,6,23,Ticks_Phase_5,106,9999,9999,9999,655864920
51,6,23,Ticks_Phase_5,107,9999,9999,9999,656364608
51,6,23,Ticks_Phase_5,108,9999,9999,9999,656864376
51,6,23,Ticks_Phase_5,109,9999,9999,9999,657365112
51,6,23,Ticks_Phase_5,110,9999,9999,9999,657864800
51,6,23,Ticks_Phase_5,111,9999,9999,9999,658364488
51,6,23,Ticks_Phase_5,112,9999,9999,9999,658864248
51,6,23,Ticks_Phase_5,113,9999,9999,9999,659364984
51,6,23,Ticks_Phase_5,114,9999,9999,9999,659914844
51,6,23,Ticks_Phase_5,115,9999,9999,9999,660414536
51,6,23,Ticks_Phase_5,116,9999,9999,9999,660914300
51,6,23,Ticks_Phase_5,117,9999,9999,9999,661415036
51,6,23,Ticks_Phase_5,118,9999,9999,9999,661914724
51,6,23,Ticks_Phase_5,119,9999,9999,9999,662414412
51,6,23,Ticks_Phase_5,120,9999,9999,9999,662914172
51,6,23,Ticks_Phase_5,121,9999,9999,9999,663414908
51,6,23,Ticks_Phase_5,122,9999,9999,9999,663914596
51,6,23,Ticks_Phase_5,123,9999,9999,9999,664414284
51,6,23,Ticks_Phase_5,124,9999,9999,9999,664915020
51,6,23,Ticks_Phase_5,125,9999,9999,9999,665414780
51,6,23,Ticks_Phase_5,126,9999,9999,9999,665914468
51,6,23,Ticks_Phase_5,127,9999,9999,9999,666414152
51,6,23,Ticks_Phase_5,128,9999,9999,9999,666914892
51,6,23,Ticks_Phase_5,129,9999,9999,9999,667414648
51,6,23,Ticks_Phase_5,130,9999,9999,9999,667914360
51,6,23,Ticks_Phase_5,131,9999,9999,9999,668514360
51,6,23,Ticks_Phase_5,132,9999,9999,9999,669014136
51,6,23,Ticks_Phase_5,133,9999,9999,9999,669514880
51,6,23,Ticks_Phase_5,134,9999,9999,9999,670014564
51,6,23,Ticks_Phase_5,135,9999,9999,9999,670514256
51,6,23,Ticks_Phase_5,136,9999,9999,9999,671014988
51,6,23,Ticks_Phase_5,137,9999,9999,9999,671514752
51,6,23,Ticks_Phase_5,138,9999,9999,9999,672014436
51,6,23,Ticks_Phase_5,139,9999,9999,9999,672514104
51,6,23,Ticks_Phase_5,140,9999,9999,9999,673014840
51,6,23,Ticks_Phase_5,141,9999,9999,9999,673514604
51,6,23,Ticks_Phase_5,142,9999,9999,9999,674014292
51,6,23,Ticks_Phase_5,143,9999,9999,9999,674515020
51,6,23,Ticks_Phase_5,144,9999,9999,9999,675014784
51,6,23,Ticks_Phase_5,145,9999,9999,9999,675514472
51,6,23,Ticks_Phase_5,146,9999,9999,9999,676014160
51,6,23,Ticks_Phase_5,147,9999,9999,9999,676514896
51,6,23,Ticks_Phase_5,148,9999,9999,9999,677014588
51,6,23,Ticks_Phase_5,149,9999,9999,9999,677514344
51,6,23,Ticks_Phase_5,150,9999,9999,9999,677914736
51,6,23,Ticks_Phase_5,151,9999,9999,9999,678414428
51,6,23,Ticks_Phase_5,152,9999,9999,9999,678914156
51,6,23,Ticks_Phase_5,153,9999,9999,9999,679414892
51,6,23,Ticks_Phase_5,154,9999,9999,9999,679914584
51,6,23,Ticks_Phase_5,155,9999,9999,9999,680414272
51,6,23,Ticks_Phase_5,156,9999,9999,9999,680915012
51,6,23,Ticks_Phase_5,157,9999,9999,9999,681414776
51,6,23,Ticks_Phase_5,158,9999,9999,9999,681914460
51,6,23,Ticks_Phase_5,159,9999,9999,9999,682414148
51,6,23,Ticks_Phase_5,160,9999,9999,9999,682914884
51,6,23,Ticks_Phase_5,161,9999,9999,9999,683414652
51,6,23,Ticks_Phase_5,162,9999,9999,9999,683914344
51,6,23,Ticks_Phase_5,163,9999,9999,9999,684415076
51,6,23,Ticks_Phase_5,164,9999,9999,9999,684914800
51,6,23,Ticks_Phase_5,165,9999,9999,9999,685414456
51,6,23,Ticks_Phase_5,166,9999,9999,9999,685914220
51,6,23,Ticks_Phase_5,167,9999,9999,9999,686414952
51,6,23,Ticks_Phase_5,168,9999,9999,9999,686914640
51,6,23,Ticks_Phase_5,169,9999,9999,9999,687414332
51,7,9,Ticks_ISO_T2_8,0,5,42,127,698414436
51,7,9,Ticks_ISO_T2_8,1,5,42,127,699215236
51,7,9,Ticks_ISO_T2_8,2,1,48,26,699414652
51,7,9,Ticks_ISO_T2_8,3,1,48,25,700000868
51,7,9,Ticks_ISO_T2_8,4,5,42,127,700014964
51,7,9,Ticks_ISO_T2_8,5,1,48,25,700707776
51,7,9,Ticks_ISO_T2_8,6,5,42,127,700814760
51,7,9,Ticks_ISO_T2_8,7,1,48,27,701610736
51,7,9,Ticks_ISO_T2_8,8,5,42,127,701614508
51,7,9,Ticks_ISO_T2_8,9,5,42,127,702415148
51,7,9,Ticks_ISO_T2_8,10,1,48,26,702425148
51,7,9,Ticks_ISO_T2_8,11,5,42,127,703215028
51,7,9,Ticks_ISO_T2_8,12,1,48,29,703291624
51,7,9,Ticks_ISO_T2_8,13,5,42,127,704014788
51,7,9,Ticks_ISO_T2_8,14,1,48,28,704047972
51,7,9,Ticks_ISO_T2_8,15,1,48,29,704781868
51,7,9,Ticks_ISO_T2_8,16,5,42,127,704814512
51,7,9,Ticks_ISO_T2_8,17,1,48,27,705598508
51,7,9,Ticks_ISO_T2_8,18,5,42,127,705615144
51,7,9,Ticks_ISO_T2_8,19,5,42,127,706414884
51,7,9,Ticks_ISO_T2_8,20,1,48,25,706446124
51,7,9,Ticks_ISO_T2_8,21,5,42,127,707214844
51,7,9,Ticks_ISO_T2_8,22,1,48,30,707221176
51,7,9,Ticks_ISO_T2_8,23,1,48,33,708002944
51,7,9,Ticks_ISO_T2_8,24,5,42,127,708014420
51,7,9,Ticks_ISO_T2_8,25,5,42,127,708815060
51,7,9,Ticks_ISO_T2_8,26,1,48,30,708821248
51,7,9,Ticks_ISO_T2_8,27,1,48,21,709602636
51,7,9,Ticks_ISO_T2_8,28,5,42,127,709615012
51,7,9,Ticks_ISO_T2_8,29,5,42,127,710414848
51,7,9,Ticks_ISO_T2_8,30,1,48,28,710416260
51,7,9,Ticks_ISO_T2_8,31,1,48,33,711202720
51,7,9,Ticks_ISO_T2_8,32,5,42,127,711214576
51,7,9,Ticks_ISO_T2_8,33,1,48,30,711993184
51,7,9,Ticks_ISO_T2_8,34,5,42,127,712015136
51,7,9,Ticks_ISO_T2_8,35,1,48,20,712795312
51,7,9,Ticks_ISO_T2_8,36,5,42,127,712815016
51,7,9,Ticks_ISO_T2_8,37,5,42,127,713614680
51,7,9,Ticks_ISO_T2_8,38,1,48,18,713620868
51,7,9,Ticks_ISO_T2_8,39,1,48,36,714389768
51,7,9,Ticks_ISO_T2_8,40,5,42,127,714414632
51,7,9,Ticks_ISO_T2_8,41,5,42,127,715215268
51,7,9,Ticks_ISO_T2_8,42,1,48,35,715230656
51,7,9,Ticks_ISO_T2_8,43,5,42,127,716014928
51,7,9,Ticks_ISO_T2_8,44,1,48,38,716034280
51,7,9,Ticks_ISO_T2_8,45,5,42,127,716814836
51,7,9,Ticks_ISO_T2_8,46,1,48,33,716828500
51,7,9,Ticks_ISO_T2_8,47,1,48,37,717595904
51,7,9,Ticks_ISO_T2_8,48,5,42,127,717614560
51,7,9,Ticks_ISO_T2_8,49,1,48,32,718393916
51,7,9,Ticks_ISO_T2_8,50,5,42,127,718415340
51,7,9,Ticks_ISO_T2_8,51,1,48,32,719178540
51,7,9,Ticks_ISO_T2_8,52,5,42,127,719214928
51,7,9,Ticks_ISO_T2_8,53,1,48,32,719993680
51,7,9,Ticks_ISO_T2_8,54,5,42,127,720014660
51,7,9,Ticks_ISO_T2_8,55,1,48,31,720801268
51,7,9,Ticks_ISO_T2_8,56,5,42,127,720814688
51,7,9,Ticks_ISO_T2_8,57,5,42,127,721615180
51,7,9,Ticks_ISO_T2_8,58,1,48,37,721618376
51,7,9,Ticks_ISO_T2_8,59,5,42,127,722414836
51,7,9,Ticks_ISO_T2_8,60,1,48,28,722415804
51,7,9,Ticks_ISO_T2_8,61,1,48,31,723198152
51,7,9,Ticks_ISO_T2_8,62,5,42,127,723214664
51,7,9,Ticks_ISO_T2_8,63,1,48,29,723967664
51,7,9,Ticks_ISO_T2_8,64,5,42,127,724014844
51,7,9,Ticks_ISO_T2_8,65,5,42,127,724815184
51,7,9,Ticks_ISO_T2_8,66,1,48,33,724836704
51,7,9,Ticks_ISO_T2_8,67,1,48,38,725589596
51,7,9,Ticks_ISO_T2_8,68,5,42,127,725614836
51,7,9,Ticks_ISO_T2_8,69,1,48,35,726390672
51,7,9,Ticks_ISO_T2_8,70,5,42,127,726414640
51,7,9,Ticks_ISO_T2_8,71,5,42,127,727214680
51,7,9,Ticks_ISO_T2_8,72,1,48,30,727234328
51,7,9,Ticks_ISO_T2_8,73,5,42,127,728015312
51,7,9,Ticks_ISO_T2_8,74,1,48,28,728019628
51,7,9,Ticks_ISO_T2_8,75,5,42,127,728814972
51,7,9,Ticks_ISO_T2_8,76,1,48,38,728835220
51,7,9,Ticks_ISO_T2_8,77,1,48,29,729606612
51,7,9,Ticks_ISO_T2_8,78,5,42,127,729614576
51,7,9,Ticks_ISO_T2_8,79,5,42,127,730414536
51,7,9,Ticks_ISO_T2_8,80,1,48,26,730420948
51,7,9,Ticks_ISO_T2_8,81,5,42,127,731215168
51,7,9,Ticks_ISO_T2_8,82,1,48,36,731216584
51,7,9,Ticks_ISO_T2_8,83,1,48,31,731996320
51,7,9,Ticks_ISO_T2_8,84,5,42,127,732014972
51,7,9,Ticks_ISO_T2_8,85,5,42,127,732814716
51,7,9,Ticks_ISO_T2_8,86,1,48,30,732816656
51,7,9,Ticks_ISO_T2_8,87,5,42,127,733614448
51,7,9,Ticks_ISO_T2_8,88,1,48,35,733644416
51,7,9,Ticks_ISO_T2_8,89,1,48,34,734410104
51,7,9,Ticks_ISO_T2_8,90,5,42,127,734415296
51,7,9,Ticks_ISO_T2_8,91,1,48,30,735197720
51,7,9,Ticks_ISO_T2_8,92,5,42,127,735214956
51,7,9,Ticks_ISO_T2_8,93,1,48,24,735967084
51,7,9,Ticks_ISO_T2_8,94,5,42,127,736014568
51,7,9,Ticks_ISO_T2_8,95,1,48,28,736814000
51,7,9,Ticks_ISO_T2_8,96,5,42,127,736815496
51,7,9,Ticks_ISO_T2_8,97,5,42,127,737615308
51,7,9,Ticks_ISO_T2_8,98,1,48,36,737626212
51,7,9,Ticks_ISO_T2_8,99,5,42,127,738415116
51,7,9,Ticks_ISO_T2_8,100,1,48,32,738422200
51,7,9,Ticks_ISO_T2_8,101,5,42,127,739214628
51,7,9,Ticks_ISO_T2_8,102,1,48,15,739266744
51,7,9,Ticks_ISO_T2_8,103,1,48,27,740004668
51,7,9,Ticks_ISO_T2_8,104,5,42,127,740014356
51,7,9,Ticks_ISO_T2_8,105,1,48,32,740792284
51,7,9,Ticks_ISO_T2_8,106,5,42,127,740815360
51,7,9,Ticks_ISO_T2_8,107,1,48,38,741597108
51,7,9,Ticks_ISO_T2_8,108,5,42,127,741615092
51,7,9,Ticks_ISO_T2_8,109,1,48,31,742392952
51,7,9,Ticks_ISO_T2_8,110,5,42,127,742414552
51,7,9,Ticks_ISO_T2_8,111,5,42,127,743214368
51,7,9,Ticks_ISO_T2_8,112,1,48,29,743222352
51,7,9,Ticks_ISO_T2_8,113,1,48,36,744005308
51,7,9,Ticks_ISO_T2_8,114,5,42,127,744015140
51,7,9,Ticks_ISO_T2_8,115,1,48,35,744771308
51,7,9,Ticks_ISO_T2_8,116,5,42,127,744815248
51,7,9,Ticks_ISO_T2_8,117,1,48,36,745604700
51,7,9,Ticks_ISO_T2_8,118,5,42,127,745614832
51,7,9,Ticks_ISO_T2_8,119,1,48,37,746414868
51,7,9,Ticks_ISO_T2_8,120,5,42,127,746416056
51,7,9,Ticks_ISO_T2_8,121,5,42,127,747215204
51,7,9,Ticks_ISO_T2_8,122,1,48,33,747216688
51,7,9,Ticks_ISO_T2_8,123,1,48,32,748005320
51,7,9,Ticks_ISO_T2_8,124,5,42,127,748015152
51,7,9,Ticks_ISO_T2_8,125,5,42,127,748814916
51,7,9,Ticks_ISO_T2_8,126,1,48,36,748836512
51,7,9,Ticks_ISO_T2_8,127,1,48,31,749599204
51,7,9,Ticks_ISO_T2_8,128,5,42,127,749614348
51,7,9,Ticks_ISO_T2_8,129,1,48,19,750365728
51,7,9,Ticks_ISO_T2_8,130,5,42,127,750415200
51,7,9,Ticks_ISO_T2_8,131,5,42,127,751215092
51,7,9,Ticks_ISO_T2_8,132,1,48,33,751242372
51,7,9,Ticks_ISO_T2_8,133,5,42,127,752014972
51,7,9,Ticks_ISO_T2_8,134,1,48,32,752028940
51,7,9,Ticks_ISO_T2_8,135,5,42,127,752814408
51,7,9,Ticks_ISO_T2_8,136,1,48,33,752840264
51,7,9,Ticks_ISO_T2_8,137,1,48,35,753592856
51,7,9,Ticks_ISO_T2_8,138,5,42,127,753615256
51,7,9,Ticks_ISO_T2_8,139,1,48,27,754414920
51,7,9,Ticks_ISO_T2_8,140,5,42,127,754416332
51,7,9,Ticks_ISO_T2_8,141,5,42,127,755214976
51,7,9,Ticks_ISO_T2_8,142,1,48,35,755238740
51,7,9,Ticks_ISO_T2_8,143,5,42,127,756014560
51,7,9,Ticks_ISO_T2_8,144,1,48,29,756050592
51,7,9,Ticks_ISO_T2_8,145,1,48,35,756791368
51,7,9,Ticks_ISO_T2_8,146,5,42,127,756815112
51,7,9,Ticks_ISO_T2_8,147,1,48,36,757571128
51,7,9,Ticks_ISO_T2_8,148,5,42,127,757614920
51,7,9,Ticks_ISO_T2_8,149,1,48,32,758403020
51,7,9,Ticks_ISO_T2_8,150,5,42,127,758414876
51,7,9,Ticks_ISO_T2_8,151,1,48,36,759210612
51,7,9,Ticks_ISO_T2_8,152,5,42,127,759214388
51,7,9,Ticks_ISO_T2_8,153,1,48,27,759990972
51,7,9,Ticks_ISO_T2_8,154,5,42,127,760015168
51,7,9,Ticks_ISO_T2_8,155,5,42,127,760814832
51,7,9,Ticks_ISO_T2_8,156,1,48,34,760825956
51,7,9,Ticks_ISO_T2_8,157,5,42,127,761614664
51,7,9,Ticks_ISO_T2_8,158,1,48,38,761635808
51,7,9,Ticks_ISO_T2_8,159,5,42,127,762414620
51,7,9,Ticks_ISO_T2_8,160,1,48,37,762424772
51,7,9,Ticks_ISO_T2_8,161,1,48,27,763210876
51,7,9,Ticks_ISO_T2_8,162,5,42,127,763215172
51,7,9,Ticks_ISO_T2_8,163,5,42,127,764014912
51,7,9,Ticks_ISO_T2_8,164,1,48,31,764039796
51,7,9,Ticks_ISO_T2_8,165,1,48,36,764798076
51,7,9,Ticks_ISO_T2_8,166,5,42,127,764814788
51,7,9,Ticks_ISO_T2_8,167,5,42,127,765614600
51,7,9,Ticks_ISO_T2_8,168,1,48,29,765622884
51,7,9,Ticks_ISO_T2_8,169,5,42,127,766415084
51,7,9,Ticks_ISO_T2_8,170,1,48,32,766420148
51,7,9,Ticks_ISO_T2_8,171,5,42,127,767215040
51,7,9,Ticks_ISO_T2_8,172,1,48,32,767251620
51,7,9,Ticks_ISO_T2_8,173,5,42,127,768014724
51,7,9,Ticks_ISO_T2_8,174,1,48,40,768063096
51,7,9,Ticks_ISO_T2_8,175,5,42,127,768814532
51,7,9,Ticks_ISO_T2_8,176,1,48,30,768846372
51,7,9,Ticks_ISO_T2_8,177,5,42,127,769615312
51,7,9,Ticks_ISO_T2_8,178,1,48,33,769628532
51,7,9,Ticks_ISO_T2_8,179,5,42,127,770414820
51,7,9,Ticks_ISO_T2_8,180,1,48,22,770447184
51,7,9,Ticks_ISO_T2_8,181,5,42,127,771214704
51,7,9,Ticks_ISO_T2_8,182,1,48,24,771225228
51,7,9,Ticks_ISO_T2_8,183,1,48,36,772005496
51,7,9,Ticks_ISO_T2_8,184,5,42,127,772014580
51,7,9,Ticks_ISO_T2_8,185,1,48,36,772801488
51,7,9,Ticks_ISO_T2_8,186,5,42,127,772815140
51,7,9,Ticks_ISO_T2_8,187,1,48,28,773599728
51,7,9,Ticks_ISO_T2_8,188,5,42,127,773614872
51,7,9,Ticks_ISO_T2_8,189,5,42,127,774414560
51,7,9,Ticks_ISO_T2_8,190,1,48,39,774430244
51,7,9,Ticks_ISO_T2_8,191,5,42,127,775214520
51,7,9,Ticks_ISO_T2_8,192,1,48,36,775229904
51,7,9,Ticks_ISO_T2_8,193,1,48,33,775984220
51,7,9,Ticks_ISO_T2_8,194,5,42,127,776015440
51,7,9,Ticks_ISO_T2_8,195,1,48,37,776768544
51,7,9,Ticks_ISO_T2_8,196,5,42,127,776814876
51,7,9,Ticks_ISO_T2_8,197,1,48,40,777575828
51,7,9,Ticks_ISO_T2_8,198,5,42,127,777614684
51,7,9,Ticks_ISO_T2_8,199,1,48,38,778374368
51,7,9,Ticks_ISO_T2_8,200,5,42,127,778414416
51,7,9,Ticks_ISO_T2_8,201,1,48,28,779163624
51,7,9,Ticks_ISO_T2_8,202,5,42,127,779215420
51,7,9,Ticks_ISO_T2_8,203,5,42,127,780014940
51,7,9,Ticks_ISO_T2_8,204,1,48,35,780027260
51,7,9,Ticks_ISO_T2_8,205,5,42,127,780814696
51,7,9,Ticks_ISO_T2_8,206,1,48,30,780830676
51,7,9,Ticks_ISO_T2_8,207,5,42,127,781614504
51,7,9,Ticks_ISO_T2_8,208,1,48,24,781703492
51,7,9,Ticks_ISO_T2_8,209,5,42,127,782415432
51,7,9,Ticks_ISO_T2_8,210,1,48,36,782500384
51,7,9,Ticks_ISO_T2_8,211,5,42,127,783215164
51,7,9,Ticks_ISO_T2_8,212,1,48,30,783297272
51,7,9,Ticks_ISO_T2_8,213,5,42,127,784014676
51,7,9,Ticks_ISO_T2_8,214,1,48,33,784032980
51,7,9,Ticks_ISO_T2_8,215,1,48,33,784792900
51,7,9,Ticks_ISO_T2_8,216,5,42,127,784814476
51,7,9,Ticks_ISO_T2_8,217,1,48,33,785595028
51,7,9,Ticks_ISO_T2_8,218,5,42,127,785615256
51,7,9,Ticks_ISO_T2_8,219,1,48,33,786371496
51,7,9,Ticks_ISO_T2_8,220,5,42,127,786415140
51,7,9,Ticks_ISO_T2_8,221,5,42,127,787214680
51,7,9,Ticks_ISO_T2_8,222,1,48,30,787224084
51,7,9,Ticks_ISO_T2_8,223,1,48,32,787974360
51,7,9,Ticks_ISO_T2_8,224,5,42,127,788014484
51,7,9,Ticks_ISO_T2_8,225,5,42,127,788815196
51,7,9,Ticks_ISO_T2_8,226,1,48,21,788833196
51,7,9,Ticks_ISO_T2_8,227,5,42,127,789615300
51,7,9,Ticks_ISO_T2_8,228,1,48,23,789622608
51,7,9,Ticks_ISO_T2_8,229,5,42,127,790414960
51,7,9,Ticks_ISO_T2_8,230,1,48,30,790433784
51,7,9,Ticks_ISO_T2_8,231,1,48,26,791195356
51,7,9,Ticks_ISO_T2_8,232,5,42,127,791214536
51,7,9,Ticks_ISO_T2_8,233,1,48,35,792002048
51,7,9,Ticks_ISO_T2_8,234,5,42,127,792015096
51,7,9,Ticks_ISO_T2_8,235,5,42,127,792815060
51,7,9,Ticks_ISO_T2_8,236,1,48,32,792816024
51,7,9,Ticks_ISO_T2_8,237,1,48,26,793517072
51,7,9,Ticks_ISO_T2_8,238,5,42,127,793614868
51,7,9,Ticks_ISO_T2_8,0,9999,9999,9999,698412148
51,7,9,Ticks_ISO_T2_8,1,9999,9999,9999,699212872
51,7,9,Ticks_ISO_T2_8,2,9999,9999,9999,700012600
51,7,9,Ticks_ISO_T2_8,3,9999,9999,9999,700812392
51,7,9,Ticks_ISO_T2_8,4,9999,9999,9999,701612148
51,7,9,Ticks_ISO_T2_8,5,9999,9999,9999,702412856
51,7,9,Ticks_ISO_T2_8,6,9999,9999,9999,703212592
51,7,9,Ticks_ISO_T2_8,7,9999,9999,9999,704012348
51,7,9,Ticks_ISO_T2_8,8,9999,9999,9999,704812148
51,7,9,Ticks_ISO_T2_8,9,9999,9999,9999,705612856
51,7,9,Ticks_ISO_T2_8,10,9999,9999,9999,706412596
51,7,9,Ticks_ISO_T2_8,11,9999,9999,9999,707212404
51,7,9,Ticks_ISO_T2_8,12,9999,9999,9999,708012132
51,7,9,Ticks_ISO_T2_8,13,9999,9999,9999,708812844
51,7,9,Ticks_ISO_T2_8,14,9999,9999,9999,709612648
51,7,9,Ticks_ISO_T2_8,15,9999,9999,9999,710412336
51,7,9,Ticks_ISO_T2_8,16,9999,9999,9999,711212136
51,7,9,Ticks_ISO_T2_8,17,9999,9999,9999,712012844
51,7,9,Ticks_ISO_T2_8,18,9999,9999,9999,712812652
51,7,9,Ticks_ISO_T2_8,19,9999,9999,9999,713612392
51,7,9,Ticks_ISO_T2_8,20,9999,9999,9999,714412120
51,7,9,Ticks_ISO_T2_8,21,9999,9999,9999,715212904
51,7,9,Ticks_ISO_T2_8,22,9999,9999,9999,716012640
51,7,9,Ticks_ISO_T2_8,23,9999,9999,9999,716812396
51,7,9,Ticks_ISO_T2_8,24,9999,9999,9999,717612124
51,7,9,Ticks_ISO_T2_8,25,9999,9999,9999,718412904
51,7,9,Ticks_ISO_T2_8,26,9999,9999,9999,719212636
51,7,9,Ticks_ISO_T2_8,27,9999,9999,9999,720012372
51,7,9,Ticks_ISO_T2_8,28,9999,9999,9999,720812104
51,7,9,Ticks_ISO_T2_8,29,9999,9999,9999,721612888
51,7,9,Ticks_ISO_T2_8,30,9999,9999,9999,722412624
51,7,9,Ticks_ISO_T2_8,31,9999,9999,9999,723212376
51,7,9,Ticks_ISO_T2_8,32,9999,9999,9999,724012108
51,7,9,Ticks_ISO_T2_8,33,9999,9999,9999,724812892
51,7,9,Ticks_ISO_T2_8,34,9999,9999,9999,725612620
51,7,9,Ticks_ISO_T2_8,35,9999,9999,9999,726412352
51,7,9,Ticks_ISO_T2_8,36,9999,9999,9999,727212092
51,7,9,Ticks_ISO_T2_8,37,9999,9999,9999,728012876
51,7,9,Ticks_ISO_T2_8,38,9999,9999,9999,728812608
51,7,9,Ticks_ISO_T2_8,39,9999,9999,9999,729612360
51,7,9,Ticks_ISO_T2_8,40,9999,9999,9999,730412100
51,7,9,Ticks_ISO_T2_8,41,9999,9999,9999,731212880
51,7,9,Ticks_ISO_T2_8,42,9999,9999,9999,732012612
51,7,9,Ticks_ISO_T2_8,43,9999,9999,9999,732812352
51,7,9,Ticks_ISO_T2_8,44,9999,9999,9999,733612084
51,7,9,Ticks_ISO_T2_8,45,9999,9999,9999,734412856
51,7,9,Ticks_ISO_T2_8,46,9999,9999,9999,735212592
51,7,9,Ticks_ISO_T2_8,47,9999,9999,9999,736012352
51,7,9,Ticks_ISO_T2_8,48,9999,9999,9999,736812092
51,7,9,Ticks_ISO_T2_8,49,9999,9999,9999,737612872
51,7,9,Ticks_ISO_T2_8,50,9999,9999,9999,738412604
51,7,9,Ticks_ISO_T2_8,51,9999,9999,9999,739212340
51,7,9,Ticks_ISO_T2_8,52,9999,9999,9999,740012140
51,7,9,Ticks_ISO_T2_8,53,9999,9999,9999,740812844
51,7,9,Ticks_ISO_T2_8,54,9999,9999,9999,741612656
51,7,9,Ticks_ISO_T2_8,55,9999,9999,9999,742412336
51,7,9,Ticks_ISO_T2_8,56,9999,9999,9999,743212080
51,7,9,Ticks_ISO_T2_8,57,9999,9999,9999,744012852
51,7,9,Ticks_ISO_T2_8,58,9999,9999,9999,744812660
51,7,9,Ticks_ISO_T2_8,59,9999,9999,9999,745612392
51,7,9,Ticks_ISO_T2_8,60,9999,9999,9999,746412136
51,7,9,Ticks_ISO_T2_8,61,9999,9999,9999,747212916
51,7,9,Ticks_ISO_T2_8,62,9999,9999,9999,748012640
51,7,9,Ticks_ISO_T2_8,63,9999,9999,9999,748812404
51,7,9,Ticks_ISO_T2_8,64,9999,9999,9999,749612132
51,7,9,Ticks_ISO_T2_8,65,9999,9999,9999,750412912
51,7,9,Ticks_ISO_T2_8,66,9999,9999,9999,751212652
51,7,9,Ticks_ISO_T2_8,67,9999,9999,9999,752012384
51,7,9,Ticks_ISO_T2_8,68,9999,9999,9999,752812120
51,7,9,Ticks_ISO_T2_8,69,9999,9999,9999,753612892
51,7,9,Ticks_ISO_T2_8,70,9999,9999,9999,754412632
51,7,9,Ticks_ISO_T2_8,71,9999,9999,9999,755212392
51,7,9,Ticks_ISO_T2_8,72,9999,9999,9999,756012124
51,7,9,Ticks_ISO_T2_8,73,9999,9999,9999,756812896
51,7,9,Ticks_ISO_T2_8,74,9999,9999,9999,757612632
51,7,9,Ticks_ISO_T2_8,75,9999,9999,9999,758412364
51,7,9,Ticks_ISO_T2_8,76,9999,9999,9999,759212096
51,7,9,Ticks_ISO_T2_8,77,9999,9999,9999,760012880
51,7,9,Ticks_ISO_T2_8,78,9999,9999,9999,760812616
51,7,9,Ticks_ISO_T2_8,79,9999,9999,9999,761612376
51,7,9,Ticks_ISO_T2_8,80,9999,9999,9999,762412108
51,7,9,Ticks_ISO_T2_8,81,9999,9999,9999,763212884
51,7,9,Ticks_ISO_T2_8,82,9999,9999,9999,764012624
51,7,9,Ticks_ISO_T2_8,83,9999,9999,9999,764812348
51,7,9,Ticks_ISO_T2_8,84,9999,9999,9999,765612088
51,7,9,Ticks_ISO_T2_8,85,9999,9999,9999,766412868
51,7,9,Ticks_ISO_T2_8,86,9999,9999,9999,767212600
51,7,9,Ticks_ISO_T2_8,87,9999,9999,9999,768012360
51,7,9,Ticks_ISO_T2_8,88,9999,9999,9999,768812092
51,7,9,Ticks_ISO_T2_8,89,9999,9999,9999,769612872
51,7,9,Ticks_ISO_T2_8,90,9999,9999,9999,770412608
51,7,9,Ticks_ISO_T2_8,91,9999,9999,9999,771212340
51,7,9,Ticks_ISO_T2_8,92,9999,9999,9999,772012144
51,7,9,Ticks_ISO_T2_8,93,9999,9999,9999,772812848
51,7,9,Ticks_ISO_T2_8,94,9999,9999,9999,773612656
51,7,9,Ticks_ISO_T2_8,95,9999,9999,9999,774412348
51,7,9,Ticks_ISO_T2_8,96,9999,9999,9999,775212080
51,7,9,Ticks_ISO_T2_8,97,9999,9999,9999,776012856
51,7,9,Ticks_ISO_T2_8,98,9999,9999,9999,776812660
51,7,9,Ticks_ISO_T2_8,99,9999,9999,9999,777612396
51,7,9,Ticks_ISO_T2_8,100,9999,9999,9999,778412128
51,7,9,Ticks_ISO_T2_8,101,9999,9999,9999,779212908
51,7,9,Ticks_ISO_T2_8,102,9999,9999,9999,780012648
51,7,9,Ticks_ISO_T2_8,103,9999,9999,9999,780812404
51,7,9,Ticks_ISO_T2_8,104,9999,9999,9999,781612140
51,7,9,Ticks_ISO_T2_8,105,9999,9999,9999,782412920
51,7,9,Ticks_ISO_T2_8,106,9999,9999,9999,783212652
51,7,9,Ticks_ISO_T2_8,107,9999,9999,9999,784012388
51,7,9,Ticks_ISO_T2_8,108,9999,9999,9999,784812112
51,7,9,Ticks_ISO_T2_8,109,9999,9999,9999,785612892
51,7,9,Ticks_ISO_T2_8,110,9999,9999,9999,786412628
51,7,9,Ticks_ISO_T2_8,111,9999,9999,9999,787212392
51,7,9,Ticks_ISO_T2_8,112,9999,9999,9999,788012120
51,7,9,Ticks_ISO_T2_8,113,9999,9999,9999,788812908
51,7,9,Ticks_ISO_T2_8,114,9999,9999,9999,789612640
51,7,9,Ticks_ISO_T2_8,115,9999,9999,9999,790412372
51,7,9,Ticks_ISO_T2_8,116,9999,9999,9999,791212100
51,7,9,Ticks_ISO_T2_8,117,9999,9999,9999,792012880
51,7,9,Ticks_ISO_T2_8,118,9999,9999,9999,792812620
51,7,9,Ticks_ISO_T2_8,119,9999,9999,9999,793612356
51,8,10,Ticks_ISO_T2_5,0,5,42,127,804702792
51,8,10,Ticks_ISO_T2_5,1,5,42,127,805203408
51,8,10,Ticks_ISO_T2_5,2,5,42,127,805702976
51,8,10,Ticks_ISO_T2_5,3,1,48,31,805729584
51,8,10,Ticks_ISO_T2_5,4,5,42,127,806202820
51,8,10,Ticks_ISO_T2_5,5,1,48,37,806221124
51,8,10,Ticks_ISO_T2_5,6,5,42,127,806702660
51,8,10,Ticks_ISO_T2_5,7,1,48,32,806705104
51,8,10,Ticks_ISO_T2_5,8,1,48,35,807196860
51,8,10,Ticks_ISO_T2_5,9,5,42,127,807203172
51,8,10,Ticks_ISO_T2_5,10,1,48,32,807676184
51,8,10,Ticks_ISO_T2_5,11,5,42,127,807702944
51,8,10,Ticks_ISO_T2_5,12,1,48,36,808189860
51,8,10,Ticks_ISO_T2_5,13,5,42,127,808202784
51,8,10,Ticks_ISO_T2_5,14,1,48,34,808684096
51,8,10,Ticks_ISO_T2_5,15,5,42,127,808703428
51,8,10,Ticks_ISO_T2_5,16,1,48,34,809196784
51,8,10,Ticks_ISO_T2_5,17,5,42,127,809203024
51,8,10,Ticks_ISO_T2_5,18,5,42,127,809702876
51,8,10,Ticks_ISO_T2_5,19,1,48,34,809713620
51,8,10,Ticks_ISO_T2_5,20,1,48,32,810200372
51,8,10,Ticks_ISO_T2_5,21,5,42,127,810202636
51,8,10,Ticks_ISO_T2_5,22,5,42,127,810703160
51,8,10,Ticks_ISO_T2_5,23,1,48,34,810733284
51,8,10,Ticks_ISO_T2_5,24,5,42,127,811202856
51,8,10,Ticks_ISO_T2_5,25,1,48,24,811229392
51,8,10,Ticks_ISO_T2_5,26,5,42,127,811702624
51,8,10,Ticks_ISO_T2_5,27,1,48,27,811722052
51,8,10,Ticks_ISO_T2_5,28,5,42,127,812203516
51,8,10,Ticks_ISO_T2_5,29,1,48,25,812223236
51,8,10,Ticks_ISO_T2_5,30,5,42,127,812702984
51,8,10,Ticks_ISO_T2_5,31,1,48,29,812707600
51,8,10,Ticks_ISO_T2_5,32,5,42,127,813202756
51,8,10,Ticks_ISO_T2_5,33,1,48,27,813230260
51,8,10,Ticks_ISO_T2_5,34,5,42,127,813702596
51,8,10,Ticks_ISO_T2_5,35,1,48,23,813720604
51,8,10,Ticks_ISO_T2_5,36,5,42,127,814203336
51,8,10,Ticks_ISO_T2_5,37,1,48,24,814217976
51,8,10,Ticks_ISO_T2_5,38,5,42,127,814702884
51,8,10,Ticks_ISO_T2_5,39,1,48,29,814705552
51,8,10,Ticks_ISO_T2_5,40,1,48,29,815196408
51,8,10,Ticks_ISO_T2_5,41,5,42,127,815202644
51,8,10,Ticks_ISO_T2_5,42,5,42,127,815703320
51,8,10,Ticks_ISO_T2_5,43,1,48,22,815716988
51,8,10,Ticks_ISO_T2_5,44,5,42,127,816203088
51,8,10,Ticks_ISO_T2_5,45,1,48,27,816207260
51,8,10,Ticks_ISO_T2_5,46,5,42,127,816702708
51,8,10,Ticks_ISO_T2_5,47,1,48,25,816735968
51,8,10,Ticks_ISO_T2_5,48,5,42,127,817202404
51,8,10,Ticks_ISO_T2_5,49,1,48,24,817219136
51,8,10,Ticks_ISO_T2_5,50,5,42,127,817703368
51,8,10,Ticks_ISO_T2_5,51,1,48,26,817716060
51,8,10,Ticks_ISO_T2_5,52,1,48,30,818192776
51,8,10,Ticks_ISO_T2_5,53,5,42,127,818203132
51,8,10,Ticks_ISO_T2_5,54,1,48,26,818702388
51,8,10,Ticks_ISO_T2_5,55,5,42,127,818703724
51,8,10,Ticks_ISO_T2_5,56,5,42,127,819202376
51,8,10,Ticks_ISO_T2_5,57,1,48,28,819206472
51,8,10,Ticks_ISO_T2_5,58,5,42,127,819703316
51,8,10,Ticks_ISO_T2_5,59,1,48,30,819725536
51,8,10,Ticks_ISO_T2_5,60,5,42,127,820202788
51,8,10,Ticks_ISO_T2_5,61,1,48,29,820216824
51,8,10,Ticks_ISO_T2_5,62,5,42,127,820702704
51,8,10,Ticks_ISO_T2_5,63,1,48,25,820734844
51,8,10,Ticks_ISO_T2_5,64,5,42,127,821203300
51,8,10,Ticks_ISO_T2_5,65,1,48,28,821216668
51,8,10,Ticks_ISO_T2_5,66,5,42,127,821703292
51,8,10,Ticks_ISO_T2_5,67,1,48,32,821726536
51,8,10,Ticks_ISO_T2_5,68,5,42,127,822202612
51,8,10,Ticks_ISO_T2_5,69,1,48,28,822224356
51,8,10,Ticks_ISO_T2_5,70,5,42,127,822702456
51,8,10,Ticks_ISO_T2_5,71,1,48,32,822719792
51,8,10,Ticks_ISO_T2_5,72,1,48,31,823200688
51,8,10,Ticks_ISO_T2_5,73,5,42,127,823203488
51,8,10,Ticks_ISO_T2_5,74,1,48,34,823692312
51,8,10,Ticks_ISO_T2_5,75,5,42,127,823702888
51,8,10,Ticks_ISO_T2_5,76,5,42,127,824202736
51,8,10,Ticks_ISO_T2_5,77,1,48,33,824203776
51,8,10,Ticks_ISO_T2_5,78,1,48,36,824701740
51,8,10,Ticks_ISO_T2_5,79,5,42,127,824703324
51,8,10,Ticks_ISO_T2_5,80,1,48,33,825196928
51,8,10,Ticks_ISO_T2_5,81,5,42,127,825203316
51,8,10,Ticks_ISO_T2_5,82,1,48,35,825664232
51,8,10,Ticks_ISO_T2_5,83,5,42,127,825702712
51,8,10,Ticks_ISO_T2_5,84,1,48,26,826188912
51,8,10,Ticks_ISO_T2_5,85,5,42,127,826202408
51,8,10,Ticks_ISO_T2_5,86,1,48,38,826693092
51,8,10,Ticks_ISO_T2_5,87,5,42,127,826703372
51,8,10,Ticks_ISO_T2_5,88,1,48,35,827182388
51,8,10,Ticks_ISO_T2_5,89,5,42,127,827203360
51,8,10,Ticks_ISO_T2_5,90,1,48,29,827681336
51,8,10,Ticks_ISO_T2_5,91,5,42,127,827702684
51,8,10,Ticks_ISO_T2_5,92,1,48,36,828188656
51,8,10,Ticks_ISO_T2_5,93,5,42,127,828203280
51,8,10,Ticks_ISO_T2_5,94,1,48,38,828688276
51,8,10,Ticks_ISO_T2_5,95,5,42,127,828703344
51,8,10,Ticks_ISO_T2_5,96,1,48,35,829183312
51,8,10,Ticks_ISO_T2_5,97,5,42,127,829202888
51,8,10,Ticks_ISO_T2_5,98,1,48,34,829688844
51,8,10,Ticks_ISO_T2_5,99,5,42,127,829702436
51,8,10,Ticks_ISO_T2_5,100,1,48,34,830164152
51,8,10,Ticks_ISO_T2_5,101,5,42,127,830203228
51,8,10,Ticks_ISO_T2_5,102,1,48,33,830677164
51,8,10,Ticks_ISO_T2_5,103,5,42,127,830703220
51,8,10,Ticks_ISO_T2_5,104,1,48,33,831185900
51,8,10,Ticks_ISO_T2_5,105,5,42,127,831202616
51,8,10,Ticks_ISO_T2_5,106,1,48,33,831678416
51,8,10,Ticks_ISO_T2_5,107,5,42,127,831703432
51,8,10,Ticks_ISO_T2_5,108,1,48,37,832172500
51,8,10,Ticks_ISO_T2_5,109,5,42,127,832203276
51,8,10,Ticks_ISO_T2_5,110,1,48,29,832685288
51,8,10,Ticks_ISO_T2_5,111,5,42,127,832703044
51,8,10,Ticks_ISO_T2_5,112,1,48,36,833168372
51,8,10,Ticks_ISO_T2_5,113,5,42,127,833202664
51,8,10,Ticks_ISO_T2_5,114,1,48,36,833671960
51,8,10,Ticks_ISO_T2_5,115,5,42,127,833703260
51,8,10,Ticks_ISO_T2_5,116,1,48,34,834166640
51,8,10,Ticks_ISO_T2_5,117,5,42,127,834203176
51,8,10,Ticks_ISO_T2_5,118,1,48,34,834674940
51,8,10,Ticks_ISO_T2_5,119,5,42,127,834702872
51,8,10,Ticks_ISO_T2_5,120,1,48,39,835170744
51,8,10,Ticks_ISO_T2_5,121,5,42,127,835202268
51,8,10,Ticks_ISO_T2_5,122,1,48,36,835694748
51,8,10,Ticks_ISO_T2_5,123,5,42,127,835703084
51,8,10,Ticks_ISO_T2_5,124,1,48,33,836202712
51,8,10,Ticks_ISO_T2_5,125,5,42,127,836204124
51,8,10,Ticks_ISO_T2_5,126,1,48,35,836692044
51,8,10,Ticks_ISO_T2_5,127,5,42,127,836702696
51,8,10,Ticks_ISO_T2_5,128,1,48,35,837178344
51,8,10,Ticks_ISO_T2_5,129,5,42,127,837203288
51,8,10,Ticks_ISO_T2_5,130,5,42,127,837703064
51,8,10,Ticks_ISO_T2_5,131,1,48,27,837729448
51,8,10,Ticks_ISO_T2_5,132,5,42,127,838202832
51,8,10,Ticks_ISO_T2_5,133,1,48,32,838215300
51,8,10,Ticks_ISO_T2_5,134,5,42,127,838702380
51,8,10,Ticks_ISO_T2_5,135,1,48,31,838714552
51,8,10,Ticks_ISO_T2_5,136,5,42,127,839203120
51,8,10,Ticks_ISO_T2_5,137,1,48,32,839204084
51,8,10,Ticks_ISO_T2_5,138,5,42,127,839702964
51,8,10,Ticks_ISO_T2_5,139,1,48,33,839704604
51,8,10,Ticks_ISO_T2_5,140,1,48,32,840199180
51,8,10,Ticks_ISO_T2_5,141,5,42,127,840202576
51,8,10,Ticks_ISO_T2_5,142,1,48,34,840695180
51,8,10,Ticks_ISO_T2_5,143,5,42,127,840703220
51,8,10,Ticks_ISO_T2_5,144,5,42,127,841203192
51,8,10,Ticks_ISO_T2_5,145,1,48,29,841220848
51,8,10,Ticks_ISO_T2_5,146,1,48,34,841697468
51,8,10,Ticks_ISO_T2_5,147,5,42,127,841702884
51,8,10,Ticks_ISO_T2_5,148,1,48,36,842195884
51,8,10,Ticks_ISO_T2_5,149,5,42,127,842202352
51,8,10,Ticks_ISO_T2_5,150,1,48,41,842682116
51,8,10,Ticks_ISO_T2_5,151,5,42,127,842703168
51,8,10,Ticks_ISO_T2_5,152,1,48,35,843185256
51,8,10,Ticks_ISO_T2_5,153,5,42,127,843202940
51,8,10,Ticks_ISO_T2_5,154,1,48,40,843661836
51,8,10,Ticks_ISO_T2_5,155,5,42,127,843702708
51,8,10,Ticks_ISO_T2_5,156,1,48,31,844197140
51,8,10,Ticks_ISO_T2_5,157,5,42,127,844203528
51,8,10,Ticks_ISO_T2_5,158,5,42,127,844703080
51,8,10,Ticks_ISO_T2_5,159,1,48,31,844727520
51,8,10,Ticks_ISO_T2_5,160,5,42,127,845202700
51,8,10,Ticks_ISO_T2_5,161,1,48,32,845208212
51,8,10,Ticks_ISO_T2_5,162,5,42,127,845702472
51,8,10,Ticks_ISO_T2_5,163,1,48,30,845714940
51,8,10,Ticks_ISO_T2_5,164,1,48,32,846190452
51,8,10,Ticks_ISO_T2_5,165,5,42,127,846203280
51,8,10,Ticks_ISO_T2_5,166,1,48,35,846675340
51,8,10,Ticks_ISO_T2_5,167,5,42,127,846702900
51,8,10,Ticks_ISO_T2_5,168,1,48,27,847200088
51,8,10,Ticks_ISO_T2_5,169,5,42,127,847202740
51,8,10,Ticks_ISO_T2_5,170,1,48,33,847692904
51,8,10,Ticks_ISO_T2_5,171,5,42,127,847703260
51,8,10,Ticks_ISO_T2_5,172,1,48,28,848190880
51,8,10,Ticks_ISO_T2_5,173,5,42,127,848203104
51,8,10,Ticks_ISO_T2_5,174,1,48,29,848690944
51,8,10,Ticks_ISO_T2_5,175,5,42,127,848702872
51,8,10,Ticks_ISO_T2_5,176,1,48,30,849168276
51,8,10,Ticks_ISO_T2_5,177,5,42,127,849202644
51,8,10,Ticks_ISO_T2_5,178,1,48,28,849697444
51,8,10,Ticks_ISO_T2_5,179,5,42,127,849703236
51,8,10,Ticks_ISO_T2_5,180,1,48,33,850198404
51,8,10,Ticks_ISO_T2_5,181,5,42,127,850203076
51,8,10,Ticks_ISO_T2_5,182,1,48,29,850683268
51,8,10,Ticks_ISO_T2_5,183,5,42,127,850702624
51,8,10,Ticks_ISO_T2_5,184,1,48,24,851185056
51,8,10,Ticks_ISO_T2_5,185,5,42,127,851202392
51,8,10,Ticks_ISO_T2_5,186,1,48,31,851682880
51,8,10,Ticks_ISO_T2_5,187,5,42,127,851703184
51,8,10,Ticks_ISO_T2_5,188,1,48,35,852187588
51,8,10,Ticks_ISO_T2_5,189,5,42,127,852202880
51,8,10,Ticks_ISO_T2_5,190,5,42,127,852702656
51,8,10,Ticks_ISO_T2_5,191,1,48,38,852711160
51,8,10,Ticks_ISO_T2_5,192,5,42,127,853203172
51,8,10,Ticks_ISO_T2_5,193,1,48,29,853231800
51,8,10,Ticks_ISO_T2_5,194,5,42,127,853703016
51,8,10,Ticks_ISO_T2_5,195,1,48,33,853732764
51,8,10,Ticks_ISO_T2_5,196,5,42,127,854202784
51,8,10,Ticks_ISO_T2_5,197,1,48,30,854225052
51,8,10,Ticks_ISO_T2_5,198,5,42,127,854702552
51,8,10,Ticks_ISO_T2_5,199,1,48,26,854711432
51,8,10,Ticks_ISO_T2_5,200,1,48,26,855182608
51,8,10,Ticks_ISO_T2_5,201,5,42,127,855203284
51,8,10,Ticks_ISO_T2_5,202,1,48,29,855692100
51,8,10,Ticks_ISO_T2_5,203,5,42,127,855702832
51,8,10,Ticks_ISO_T2_5,204,1,48,32,856181028
51,8,10,Ticks_ISO_T2_5,205,5,42,127,856202528
51,8,10,Ticks_ISO_T2_5,206,1,48,37,856701304
51,8,10,Ticks_ISO_T2_5,207,5,42,127,856703492
51,8,10,Ticks_ISO_T2_5,208,1,48,33,857170692
51,8,10,Ticks_ISO_T2_5,209,5,42,127,857203112
51,8,10,Ticks_ISO_T2_5,210,5,42,127,857702740
51,8,10,Ticks_ISO_T2_5,211,1,48,33,857722836
51,8,10,Ticks_ISO_T2_5,212,5,42,127,858202436
51,8,10,Ticks_ISO_T2_5,213,1,48,31,858234572
51,8,10,Ticks_ISO_T2_5,214,5,42,127,858703400
51,8,10,Ticks_ISO_T2_5,215,1,48,23,858754764
51,8,10,Ticks_ISO_T2_5,216,1,48,35,859190492
51,8,10,Ticks_ISO_T2_5,217,5,42,127,859202936
51,8,10,Ticks_ISO_T2_5,218,5,42,127,859702492
51,8,10,Ticks_ISO_T2_5,219,1,48,34,859715708
51,8,10,Ticks_ISO_T2_5,220,1,48,31,860200500
51,8,10,Ticks_ISO_T2_5,221,5,42,127,860203524
51,8,10,Ticks_ISO_T2_5,222,1,48,33,860690244
51,8,10,Ticks_ISO_T2_5,223,5,42,127,860703292
51,8,10,Ticks_ISO_T2_5,224,5,42,127,861202772
51,8,10,Ticks_ISO_T2_5,225,1,48,30,861216064
51,8,10,Ticks_ISO_T2_5,226,5,42,127,861702540
51,8,10,Ticks_ISO_T2_5,227,1,48,26,861722716
51,8,10,Ticks_ISO_T2_5,228,1,48,35,862183920
51,8,10,Ticks_ISO_T2_5,229,5,42,127,862203472
51,8,10,Ticks_ISO_T2_5,230,1,48,29,862688100
51,8,10,Ticks_ISO_T2_5,231,5,42,127,862702872
51,8,10,Ticks_ISO_T2_5,232,1,48,33,863190268
51,8,10,Ticks_ISO_T2_5,233,5,42,127,863202640
51,8,10,Ticks_ISO_T2_5,234,1,48,33,863674928
51,8,10,Ticks_ISO_T2_5,235,5,42,127,863703384
51,8,10,Ticks_ISO_T2_5,236,1,48,35,864194364
51,8,10,Ticks_ISO_T2_5,237,5,42,127,864203152
51,8,10,Ticks_ISO_T2_5,238,1,48,32,864677984
51,8,10,Ticks_ISO_T2_5,239,5,42,127,864702848
51,8,10,Ticks_ISO_T2_5,240,5,42,127,865202476
51,8,10,Ticks_ISO_T2_5,241,1,48,24,865214416
51,8,10,Ticks_ISO_T2_5,242,5,42,127,865703292
51,8,10,Ticks_ISO_T2_5,243,1,48,29,865726080
51,8,10,Ticks_ISO_T2_5,244,5,42,127,866203132
51,8,10,Ticks_ISO_T2_5,245,1,48,21,866221960
51,8,10,Ticks_ISO_T2_5,246,1,48,29,866696360
51,8,10,Ticks_ISO_T2_5,247,5,42,127,866702672
51,8,10,Ticks_ISO_T2_5,248,1,48,27,867194104
51,8,10,Ticks_ISO_T2_5,249,5,42,127,867202440
51,8,10,Ticks_ISO_T2_5,250,1,48,32,867660968
51,8,10,Ticks_ISO_T2_5,251,5,42,127,867703256
51,8,10,Ticks_ISO_T2_5,252,1,48,26,868183620
51,8,10,Ticks_ISO_T2_5,253,5,42,127,868203028
51,8,10,Ticks_ISO_T2_5,254,1,48,20,868679648
51,8,10,Ticks_ISO_T2_5,255,5,42,127,868702572
51,8,10,Ticks_ISO_T2_5,256,1,48,24,869158776
51,8,10,Ticks_ISO_T2_5,257,5,42,127,869203168
51,8,10,Ticks_ISO_T2_5,258,1,48,26,869681436
51,8,10,Ticks_ISO_T2_5,0,9999,9999,9999,804700208
51,8,10,Ticks_ISO_T2_5,1,9999,9999,9999,805200972
51,8,10,Ticks_ISO_T2_5,2,9999,9999,9999,805700688
51,8,10,Ticks_ISO_T2_5,3,9999,9999,9999,806200384
51,8,10,Ticks_ISO_T2_5,4,9999,9999,9999,806700152
51,8,10,Ticks_ISO_T2_5,5,9999,9999,9999,807200888
51,8,10,Ticks_ISO_T2_5,6,9999,9999,9999,807700580
51,8,10,Ticks_ISO_T2_5,7,9999,9999,9999,808200276
51,8,10,Ticks_ISO_T2_5,8,9999,9999,9999,808700992
51,8,10,Ticks_ISO_T2_5,9,9999,9999,9999,809200740
51,8,10,Ticks_ISO_T2_5,10,9999,9999,9999,809700440
51,8,10,Ticks_ISO_T2_5,11,9999,9999,9999,810200164
51,8,10,Ticks_ISO_T2_5,12,9999,9999,9999,810700876
51,8,10,Ticks_ISO_T2_5,13,9999,9999,9999,811200568
51,8,10,Ticks_ISO_T2_5,14,9999,9999,9999,811700340
51,8,10,Ticks_ISO_T2_5,15,9999,9999,9999,812201080
51,8,10,Ticks_ISO_T2_5,16,9999,9999,9999,812700772
51,8,10,Ticks_ISO_T2_5,17,9999,9999,9999,813200468
51,8,10,Ticks_ISO_T2_5,18,9999,9999,9999,813700164
51,8,10,Ticks_ISO_T2_5,19,9999,9999,9999,814200904
51,8,10,Ticks_ISO_T2_5,20,9999,9999,9999,814700596
51,8,10,Ticks_ISO_T2_5,21,9999,9999,9999,815200360
51,8,10,Ticks_ISO_T2_5,22,9999,9999,9999,815701108
51,8,10,Ticks_ISO_T2_5,23,9999,9999,9999,816200804
51,8,10,Ticks_ISO_T2_5,24,9999,9999,9999,816700496
51,8,10,Ticks_ISO_T2_5,25,9999,9999,9999,817200192
51,8,10,Ticks_ISO_T2_5,26,9999,9999,9999,817700932
51,8,10,Ticks_ISO_T2_5,27,9999,9999,9999,818200696
51,8,10,Ticks_ISO_T2_5,28,9999,9999,9999,818700396
51,8,10,Ticks_ISO_T2_5,29,9999,9999,9999,819200068
51,8,10,Ticks_ISO_T2_5,30,9999,9999,9999,819700808
51,8,10,Ticks_ISO_T2_5,31,9999,9999,9999,820200504
51,8,10,Ticks_ISO_T2_5,32,9999,9999,9999,820700268
51,8,10,Ticks_ISO_T2_5,33,9999,9999,9999,821201012
51,8,10,Ticks_ISO_T2_5,34,9999,9999,9999,821700708
51,8,10,Ticks_ISO_T2_5,35,9999,9999,9999,822200400
51,8,10,Ticks_ISO_T2_5,36,9999,9999,9999,822700096
51,8,10,Ticks_ISO_T2_5,37,9999,9999,9999,823200832
51,8,10,Ticks_ISO_T2_5,38,9999,9999,9999,823700600
51,8,10,Ticks_ISO_T2_5,39,9999,9999,9999,824200304
51,8,10,Ticks_ISO_T2_5,40,9999,9999,9999,824701048
51,8,10,Ticks_ISO_T2_5,41,9999,9999,9999,825200732
51,8,10,Ticks_ISO_T2_5,42,9999,9999,9999,825700428
51,8,10,Ticks_ISO_T2_5,43,9999,9999,9999,826200120
51,8,10,Ticks_ISO_T2_5,44,9999,9999,9999,826700860
51,8,10,Ticks_ISO_T2_5,45,9999,9999,9999,827200628
51,8,10,Ticks_ISO_T2_5,46,9999,9999,9999,827700324
51,8,10,Ticks_ISO_T2_5,47,9999,9999,9999,828201068
51,8,10,Ticks_ISO_T2_5,48,9999,9999,9999,828700760
51,8,10,Ticks_ISO_T2_5,49,9999,9999,9999,829200456
51,8,10,Ticks_ISO_T2_5,50,9999,9999,9999,829700152
51,8,10,Ticks_ISO_T2_5,51,9999,9999,9999,830200940
51,8,10,Ticks_ISO_T2_5,52,9999,9999,9999,830700636
51,8,10,Ticks_ISO_T2_5,53,9999,9999,9999,831200332
51,8,10,Ticks_ISO_T2_5,54,9999,9999,9999,831701072
51,8,10,Ticks_ISO_T2_5,55,9999,9999,9999,832200768
51,8,10,Ticks_ISO_T2_5,56,9999,9999,9999,832700536
51,8,10,Ticks_ISO_T2_5,57,9999,9999,9999,833200232
51,8,10,Ticks_ISO_T2_5,58,9999,9999,9999,833700972
51,8,10,Ticks_ISO_T2_5,59,9999,9999,9999,834200668
51,8,10,Ticks_ISO_T2_5,60,9999,9999,9999,834700360
51,8,10,Ticks_ISO_T2_5,61,9999,9999,9999,835200056
51,8,10,Ticks_ISO_T2_5,62,9999,9999,9999,835700796
51,8,10,Ticks_ISO_T2_5,63,9999,9999,9999,836200500
51,8,10,Ticks_ISO_T2_5,64,9999,9999,9999,836700260
51,8,10,Ticks_ISO_T2_5,65,9999,9999,9999,837201004
51,8,10,Ticks_ISO_T2_5,66,9999,9999,9999,837700704
51,8,10,Ticks_ISO_T2_5,67,9999,9999,9999,838200396
51,8,10,Ticks_ISO_T2_5,68,9999,9999,9999,838700092
51,8,10,Ticks_ISO_T2_5,69,9999,9999,9999,839200832
51,8,10,Ticks_ISO_T2_5,70,9999,9999,9999,839700528
51,8,10,Ticks_ISO_T2_5,71,9999,9999,9999,840200292
51,8,10,Ticks_ISO_T2_5,72,9999,9999,9999,840701004
51,8,10,Ticks_ISO_T2_5,73,9999,9999,9999,841200756
51,8,10,Ticks_ISO_T2_5,74,9999,9999,9999,841700448
51,8,10,Ticks_ISO_T2_5,75,9999,9999,9999,842200140
51,8,10,Ticks_ISO_T2_5,76,9999,9999,9999,842700884
51,8,10,Ticks_ISO_T2_5,77,9999,9999,9999,843200576
51,8,10,Ticks_ISO_T2_5,78,9999,9999,9999,843700276
51,8,10,Ticks_ISO_T2_5,79,9999,9999,9999,844201020
51,8,10,Ticks_ISO_T2_5,80,9999,9999,9999,844700792
51,8,10,Ticks_ISO_T2_5,81,9999,9999,9999,845200488
51,8,10,Ticks_ISO_T2_5,82,9999,9999,9999,845700184
51,8,10,Ticks_ISO_T2_5,83,9999,9999,9999,846200916
51,8,10,Ticks_ISO_T2_5,84,9999,9999,9999,846700612
51,8,10,Ticks_ISO_T2_5,85,9999,9999,9999,847200308
51,8,10,Ticks_ISO_T2_5,86,9999,9999,9999,847701048
51,8,10,Ticks_ISO_T2_5,87,9999,9999,9999,848200816
51,8,10,Ticks_ISO_T2_5,88,9999,9999,9999,848700512
51,8,10,Ticks_ISO_T2_5,89,9999,9999,9999,849200208
51,8,10,Ticks_ISO_T2_5,90,9999,9999,9999,849700948
51,8,10,Ticks_ISO_T2_5,91,9999,9999,9999,850200644
51,8,10,Ticks_ISO_T2_5,92,9999,9999,9999,850700336
51,8,10,Ticks_ISO_T2_5,93,9999,9999,9999,851200104
51,8,10,Ticks_ISO_T2_5,94,9999,9999,9999,851700824
51,8,10,Ticks_ISO_T2_5,95,9999,9999,9999,852200520
51,8,10,Ticks_ISO_T2_5,96,9999,9999,9999,852700220
51,8,10,Ticks_ISO_T2_5,97,9999,9999,9999,853200960
51,8,10,Ticks_ISO_T2_5,98,9999,9999,9999,853700728
51,8,10,Ticks_ISO_T2_5,99,9999,9999,9999,854200424
51,8,10,Ticks_ISO_T2_5,100,9999,9999,9999,854700116
51,8,10,Ticks_ISO_T2_5,101,9999,9999,9999,855200852
51,8,10,Ticks_ISO_T2_5,102,9999,9999,9999,855700548
51,8,10,Ticks_ISO_T2_5,103,9999,9999,9999,856200244
51,8,10,Ticks_ISO_T2_5,104,9999,9999,9999,856701020
51,8,10,Ticks_ISO_T2_5,105,9999,9999,9999,857200752
51,8,10,Ticks_ISO_T2_5,106,9999,9999,9999,857700456
51,8,10,Ticks_ISO_T2_5,107,9999,9999,9999,858200148
51,8,10,Ticks_ISO_T2_5,108,9999,9999,9999,858700888
51,8,10,Ticks_ISO_T2_5,109,9999,9999,9999,859200576
51,8,10,Ticks_ISO_T2_5,110,9999,9999,9999,859700280
51,8,10,Ticks_ISO_T2_5,111,9999,9999,9999,860201016
51,8,10,Ticks_ISO_T2_5,112,9999,9999,9999,860700784
51,8,10,Ticks_ISO_T2_5,113,9999,9999,9999,861200484
51,8,10,Ticks_ISO_T2_5,114,9999,9999,9999,861700180
51,8,10,Ticks_ISO_T2_5,115,9999,9999,9999,862200888
51,8,10,Ticks_ISO_T2_5,116,9999,9999,9999,862700660
51,8,10,Ticks_ISO_T2_5,117,9999,9999,9999,863200356
51,8,10,Ticks_ISO_T2_5,118,9999,9999,9999,863701100
51,8,10,Ticks_ISO_T2_5,119,9999,9999,9999,864200792
51,8,10,Ticks_ISO_T2_5,120,9999,9999,9999,864700488
51,8,10,Ticks_ISO_T2_5,121,9999,9999,9999,865200188
51,8,10,Ticks_ISO_T2_5,122,9999,9999,9999,865700928
51,8,10,Ticks_ISO_T2_5,123,9999,9999,9999,866200696
51,8,10,Ticks_ISO_T2_5,124,9999,9999,9999,866700388
51,8,10,Ticks_ISO_T2_5,125,9999,9999,9999,867200080
51,8,10,Ticks_ISO_T2_5,126,9999,9999,9999,867700824
51,8,10,Ticks_ISO_T2_5,127,9999,9999,9999,868200520
51,8,10,Ticks_ISO_T2_5,128,9999,9999,9999,868700212
51,8,10,Ticks_ISO_T2_5,129,9999,9999,9999,869200956
51,9,20,Ticks_Linear_8,0,5,42,127,880514520
51,9,20,Ticks_Linear_8,1,5,42,127,881344000
51,9,20,Ticks_Linear_8,2,5,42,127,882163964
51,9,20,Ticks_Linear_8,3,1,48,25,882222236
51,9,20,Ticks_Linear_8,4,1,48,31,882950184
51,9,20,Ticks_Linear_8,5,5,42,127,882984448
51,9,20,Ticks_Linear_8,6,1,48,35,883788248
51,9,20,Ticks_Linear_8,7,5,42,127,883803420
51,9,20,Ticks_Linear_8,8,5,42,127,884613408
51,9,20,Ticks_Linear_8,9,1,48,32,884617352
51,9,20,Ticks_Linear_8,10,1,48,25,885323668
51,9,20,Ticks_Linear_8,11,5,42,127,885423448
51,9,20,Ticks_Linear_8,12,1,48,33,886165780
51,9,20,Ticks_Linear_8,13,5,42,127,886233520
51,9,20,Ticks_Linear_8,14,5,42,127,887043384
51,9,20,Ticks_Linear_8,15,1,48,29,887088364
51,9,20,Ticks_Linear_8,16,5,42,127,887853296
51,9,20,Ticks_Linear_8,17,1,48,30,887873192
51,9,20,Ticks_Linear_8,18,5,42,127,888654064
51,9,20,Ticks_Linear_8,19,1,48,27,888667892
51,9,20,Ticks_Linear_8,20,5,42,127,889453936
51,9,20,Ticks_Linear_8,21,1,48,34,889456684
51,9,20,Ticks_Linear_8,22,5,42,127,890253808
51,9,20,Ticks_Linear_8,23,1,48,31,890262776
51,9,20,Ticks_Linear_8,24,1,48,35,891029744
51,9,20,Ticks_Linear_8,25,5,42,127,891053528
51,9,20,Ticks_Linear_8,26,1,48,29,891845124
51,9,20,Ticks_Linear_8,27,5,42,127,891854152
51,9,20,Ticks_Linear_8,28,1,48,29,892629788
51,9,20,Ticks_Linear_8,29,5,42,127,892643688
51,9,20,Ticks_Linear_8,30,1,48,24,893426592
51,9,20,Ticks_Linear_8,31,5,42,127,893434128
51,9,20,Ticks_Linear_8,32,1,48,31,894194720
51,9,20,Ticks_Linear_8,33,5,42,127,894223764
51,9,20,Ticks_Linear_8,34,1,48,32,894983388
51,9,20,Ticks_Linear_8,35,5,42,127,895014424
51,9,20,Ticks_Linear_8,36,1,48,31,895772472
51,9,20,Ticks_Linear_8,37,5,42,127,895803740
51,9,20,Ticks_Linear_8,38,5,42,127,896584148
51,9,20,Ticks_Linear_8,39,1,48,29,896586820
51,9,20,Ticks_Linear_8,40,5,42,127,897364476
51,9,20,Ticks_Linear_8,41,1,48,29,897388412
51,9,20,Ticks_Linear_8,42,5,42,127,898143532
51,9,20,Ticks_Linear_8,43,1,48,29,898182156
51,9,20,Ticks_Linear_8,44,1,48,30,898923032
51,9,20,Ticks_Linear_8,45,5,42,127,898924676
51,9,20,Ticks_Linear_8,46,5,42,127,899704116
51,9,20,Ticks_Linear_8,47,1,48,27,899730744
51,9,20,Ticks_Linear_8,48,5,42,127,900474108
51,9,20,Ticks_Linear_8,49,1,48,23,900507932
51,9,20,Ticks_Linear_8,50,1,48,32,901238036
51,9,20,Ticks_Linear_8,51,5,42,127,901244368
51,9,20,Ticks_Linear_8,52,1,48,28,902000604
51,9,20,Ticks_Linear_8,53,5,42,127,902014508
51,9,20,Ticks_Linear_8,54,1,48,31,902732568
51,9,20,Ticks_Linear_8,55,5,42,127,902784428
51,9,20,Ticks_Linear_8,56,1,48,32,903548388
51,9,20,Ticks_Linear_8,57,5,42,127,903554348
51,9,20,Ticks_Linear_8,58,5,42,127,904323452
51,9,20,Ticks_Linear_8,59,1,48,34,904361088
51,9,20,Ticks_Linear_8,60,1,48,31,905076848
51,9,20,Ticks_Linear_8,61,5,42,127,905084596
51,9,20,Ticks_Linear_8,62,5,42,127,905843968
51,9,20,Ticks_Linear_8,63,1,48,29,905869328
51,9,20,Ticks_Linear_8,64,1,48,32,906578340
51,9,20,Ticks_Linear_8,65,5,42,127,906603920
51,9,20,Ticks_Linear_8,66,1,48,32,907360160
51,9,20,Ticks_Linear_8,67,5,42,127,907363732
51,9,20,Ticks_Linear_8,68,5,42,127,908114408
51,9,20,Ticks_Linear_8,69,1,48,29,908116852
51,9,20,Ticks_Linear_8,70,1,48,36,908864332
51,9,20,Ticks_Linear_8,71,5,42,127,908865444
51,9,20,Ticks_Linear_8,72,5,42,127,909613436
51,9,20,Ticks_Linear_8,73,1,48,33,909621116
51,9,20,Ticks_Linear_8,74,5,42,127,910364104
51,9,20,Ticks_Linear_8,75,1,48,27,910400172
51,9,20,Ticks_Linear_8,76,1,48,25,911096056
51,9,20,Ticks_Linear_8,77,5,42,127,911113648
51,9,20,Ticks_Linear_8,78,5,42,127,911853968
51,9,20,Ticks_Linear_8,79,1,48,26,911857236
51,9,20,Ticks_Linear_8,80,5,42,127,912594376
51,9,20,Ticks_Linear_8,81,1,48,27,912599444
51,9,20,Ticks_Linear_8,82,5,42,127,913333520
51,9,20,Ticks_Linear_8,83,1,48,28,913346520
51,9,20,Ticks_Linear_8,84,5,42,127,914074152
51,9,20,Ticks_Linear_8,85,1,48,30,914101472
51,9,20,Ticks_Linear_8,86,5,42,127,914814196
51,9,20,Ticks_Linear_8,87,1,48,29,914823980
51,9,20,Ticks_Linear_8,88,5,42,127,915544420
51,9,20,Ticks_Linear_8,89,1,48,31,915558548
51,9,20,Ticks_Linear_8,90,5,42,127,916284084
51,9,20,Ticks_Linear_8,91,1,48,34,916314912
51,9,20,Ticks_Linear_8,92,5,42,127,917014012
51,9,20,Ticks_Linear_8,93,1,48,31,917025668
51,9,20,Ticks_Linear_8,94,5,42,127,917744140
51,9,20,Ticks_Linear_8,95,1,48,30,917754676
51,9,20,Ticks_Linear_8,96,5,42,127,918474368
51,9,20,Ticks_Linear_8,97,1,48,28,918480852
51,9,20,Ticks_Linear_8,98,5,42,127,919194036
51,9,20,Ticks_Linear_8,99,1,48,33,919230032
51,9,20,Ticks_Linear_8,100,1,48,25,919895092
51,9,20,Ticks_Linear_8,101,5,42,127,919914076
51,9,20,Ticks_Linear_8,102,1,48,33,920605172
51,9,20,Ticks_Linear_8,103,5,42,127,920633600
51,9,20,Ticks_Linear_8,104,1,48,32,921291636
51,9,20,Ticks_Linear_8,105,5,42,127,921353568
51,9,20,Ticks_Linear_8,106,1,48,27,922022548
51,9,20,Ticks_Linear_8,107,5,42,127,922073436
51,9,20,Ticks_Linear_8,108,1,48,29,922761916
51,9,20,Ticks_Linear_8,109,5,42,127,922784116
51,9,20,Ticks_Linear_8,110,1,48,29,923474468
51,9,20,Ticks_Linear_8,111,5,42,127,923493976
51,9,20,Ticks_Linear_8,112,1,48,30,924203160
51,9,20,Ticks_Linear_8,113,5,42,127,924204584
51,9,20,Ticks_Linear_8,114,1,48,35,924864876
51,9,20,Ticks_Linear_8,115,5,42,127,924914192
51,9,20,Ticks_Linear_8,116,1,48,29,925578480
51,9,20,Ticks_Linear_8,117,5,42,127,925623756
51,9,20,Ticks_Linear_8,118,5,42,127,926324108
51,9,20,Ticks_Linear_8,119,1,48,32,926339136
51,9,20,Ticks_Linear_8,120,5,42,127,927023408
51,9,20,Ticks_Linear_8,121,1,48,24,927078500
51,9,20,Ticks_Linear_8,122,5,42,127,927724028
51,9,20,Ticks_Linear_8,123,1,48,34,927753540
51,9,20,Ticks_Linear_8,124,1,48,33,928421476
51,9,20,Ticks_Linear_8,125,5,42,127,928424220
51,9,20,Ticks_Linear_8,126,1,48,24,929105956
51,9,20,Ticks_Linear_8,127,5,42,127,929123896
51,9,20,Ticks_Linear_8,128,1,48,30,929767040
51,9,20,Ticks_Linear_8,129,5,42,127,929813984
51,9,20,Ticks_Linear_8,130,1,48,26,930476600
51,9,20,Ticks_Linear_8,131,5,42,127,930504048
51,9,20,Ticks_Linear_8,132,1,48,33,931163320
51,9,20,Ticks_Linear_8,133,5,42,127,931194136
51,9,20,Ticks_Linear_8,134,1,48,26,931882184
51,9,20,Ticks_Linear_8,135,5,42,127,931884300
51,9,20,Ticks_Linear_8,136,5,42,127,932573696
51,9,20,Ticks_Linear_8,137,1,48,33,932618852
51,9,20,Ticks_Linear_8,138,5,42,127,933253752
51,9,20,Ticks_Linear_8,139,1,48,34,933256724
51,9,20,Ticks_Linear_8,140,1,48,27,933911356
51,9,20,Ticks_Linear_8,141,5,42,127,933933424
51,9,20,Ticks_Linear_8,142,1,48,30,934583908
51,9,20,Ticks_Linear_8,143,5,42,127,934614352
51,9,20,Ticks_Linear_8,144,1,48,30,935267328
51,9,20,Ticks_Linear_8,145,5,42,127,935294180
51,9,20,Ticks_Linear_8,146,1,48,29,935898604
51,9,20,Ticks_Linear_8,147,5,42,127,935974236
51,9,20,Ticks_Linear_8,148,5,42,127,936643936
51,9,20,Ticks_Linear_8,149,1,48,26,936646600
51,9,20,Ticks_Linear_8,150,5,42,127,937313804
51,9,20,Ticks_Linear_8,151,1,48,24,937337896
51,9,20,Ticks_Linear_8,152,1,48,35,937976112
51,9,20,Ticks_Linear_8,153,5,42,127,937984488
51,9,20,Ticks_Linear_8,154,5,42,127,938653968
51,9,20,Ticks_Linear_8,155,1,48,32,938673040
51,9,20,Ticks_Linear_8,156,1,48,19,939324060
51,9,20,Ticks_Linear_8,157,5,42,127,939325248
51,9,20,Ticks_Linear_8,158,5,42,127,939984244
51,9,20,Ticks_Linear_8,159,1,48,31,940001676
51,9,20,Ticks_Linear_8,160,5,42,127,940643704
51,9,20,Ticks_Linear_8,161,1,48,35,940697820
51,9,20,Ticks_Linear_8,162,5,42,127,941304260
51,9,20,Ticks_Linear_8,163,1,48,33,941328668
51,9,20,Ticks_Linear_8,164,5,42,127,941963640
51,9,20,Ticks_Linear_8,165,1,48,31,941997012
51,9,20,Ticks_Linear_8,166,5,42,127,942624000
51,9,20,Ticks_Linear_8,167,1,48,33,942625484
51,9,20,Ticks_Linear_8,168,5,42,127,943274448
51,9,20,Ticks_Linear_8,169,1,48,27,943278840
51,9,20,Ticks_Linear_8,170,5,42,127,943923572
51,9,20,Ticks_Linear_8,171,1,48,29,943969072
51,9,20,Ticks_Linear_8,172,1,48,33,944566560
51,9,20,Ticks_Linear_8,173,5,42,127,944573788
51,9,20,Ticks_Linear_8,174,1,48,33,945211720
51,9,20,Ticks_Linear_8,175,5,42,127,945224112
51,9,20,Ticks_Linear_8,176,1,48,30,945831528
51,9,20,Ticks_Linear_8,177,5,42,127,945874336
51,9,20,Ticks_Linear_8,178,5,42,127,946514256
51,9,20,Ticks_Linear_8,179,1,48,35,946519396
51,9,20,Ticks_Linear_8,180,5,42,127,947154368
51,9,20,Ticks_Linear_8,181,1,48,32,947165652
51,9,20,Ticks_Linear_8,182,5,42,127,947794504
51,9,20,Ticks_Linear_8,183,1,48,23,947856260
51,9,20,Ticks_Linear_8,184,5,42,127,948434248
51,9,20,Ticks_Linear_8,185,1,48,32,948435212
51,9,20,Ticks_Linear_8,186,1,48,32,949062664
51,9,20,Ticks_Linear_8,187,5,42,127,949074228
51,9,20,Ticks_Linear_8,188,1,48,25,949669216
51,9,20,Ticks_Linear_8,189,5,42,127,949704008
51,9,20,Ticks_Linear_8,190,1,48,28,950327704
51,9,20,Ticks_Linear_8,191,5,42,127,950333960
51,9,20,Ticks_Linear_8,192,5,42,127,950963524
51,9,20,Ticks_Linear_8,193,1,48,35,950975928
51,9,20,Ticks_Linear_8,194,5,42,127,951594300
51,9,20,Ticks_Linear_8,195,1,48,34,951615240
51,9,20,Ticks_Linear_8,196,5,42,127,952224228
51,9,20,Ticks_Linear_8,197,1,48,35,952240676
51,9,20,Ticks_Linear_8,198,5,42,127,952843552
51,9,20,Ticks_Linear_8,199,1,48,36,952883144
51,9,20,Ticks_Linear_8,200,5,42,127,953464268
51,9,20,Ticks_Linear_8,201,1,48,29,953503560
51,9,20,Ticks_Linear_8,202,5,42,127,954083788
51,9,20,Ticks_Linear_8,203,1,48,34,954105576
51,9,20,Ticks_Linear_8,204,5,42,127,954704232
51,9,20,Ticks_Linear_8,205,1,48,35,954706168
51,9,20,Ticks_Linear_8,206,5,42,127,955323824
51,9,20,Ticks_Linear_8,207,1,48,36,955350900
51,9,20,Ticks_Linear_8,208,5,42,127,955934232
51,9,20,Ticks_Linear_8,209,1,48,32,955961624
51,9,20,Ticks_Linear_8,210,5,42,127,956544316
51,9,20,Ticks_Linear_8,211,1,48,34,956561056
51,9,20,Ticks_Linear_8,212,1,48,34,957148956
51,9,20,Ticks_Linear_8,213,5,42,127,957153720
51,9,20,Ticks_Linear_8,214,1,48,34,957706044
51,9,20,Ticks_Linear_8,215,5,42,127,957764052
51,9,20,Ticks_Linear_8,216,5,42,127,958374364
51,9,20,Ticks_Linear_8,217,1,48,34,958404972
51,9,20,Ticks_Linear_8,218,5,42,127,958974364
51,9,20,Ticks_Linear_8,219,1,48,34,959010880
51,9,20,Ticks_Linear_8,220,5,42,127,959574340
51,9,20,Ticks_Linear_8,221,1,48,35,959575600
51,9,20,Ticks_Linear_8,222,5,42,127,960173416
51,9,20,Ticks_Linear_8,223,1,48,34,960179824
51,9,20,Ticks_Linear_8,224,5,42,127,960773488
51,9,20,Ticks_Linear_8,225,1,48,33,960793088
51,9,20,Ticks_Linear_8,226,5,42,127,961373688
51,9,20,Ticks_Linear_8,227,1,48,33,961412384
51,9,20,Ticks_Linear_8,228,5,42,127,961964452
51,9,20,Ticks_Linear_8,229,1,48,32,962003296
51,9,20,Ticks_Linear_8,230,5,42,127,962554116
51,9,20,Ticks_Linear_8,231,1,48,39,962585316
51,9,20,Ticks_Linear_8,232,5,42,127,963144200
51,9,20,Ticks_Linear_8,233,1,48,33,963151436
51,9,20,Ticks_Linear_8,234,1,48,34,963727952
51,9,20,Ticks_Linear_8,235,5,42,127,963733836
51,9,20,Ticks_Linear_8,236,1,48,37,964311904
51,9,20,Ticks_Linear_8,237,5,42,127,964323776
51,9,20,Ticks_Linear_8,238,1,48,35,964889060
51,9,20,Ticks_Linear_8,239,5,42,127,964904232
51,9,20,Ticks_Linear_8,240,5,42,127,965483916
51,9,20,Ticks_Linear_8,241,1,48,37,965502764
51,9,20,Ticks_Linear_8,242,5,42,127,966063372
51,9,20,Ticks_Linear_8,243,1,48,33,966081384
51,9,20,Ticks_Linear_8,244,1,48,26,966640076
51,9,20,Ticks_Linear_8,245,5,42,127,966644240
51,9,20,Ticks_Linear_8,246,1,48,29,967177920
51,9,20,Ticks_Linear_8,247,5,42,127,967223648
51,9,20,Ticks_Linear_8,248,1,48,35,967769880
51,9,20,Ticks_Linear_8,249,5,42,127,967793964
51,9,20,Ticks_Linear_8,250,1,48,22,968362544
51,9,20,Ticks_Linear_8,251,5,42,127,968364360
51,9,20,Ticks_Linear_8,252,1,48,36,968927072
51,9,20,Ticks_Linear_8,253,5,42,127,968933852
51,9,20,Ticks_Linear_8,254,5,42,127,969504052
51,9,20,Ticks_Linear_8,255,1,48,36,969527616
51,9,20,Ticks_Linear_8,256,5,42,127,970073548
51,9,20,Ticks_Linear_8,257,1,48,32,970083788
51,9,20,Ticks_Linear_8,258,5,42,127,970633460
51,9,20,Ticks_Linear_8,259,1,48,33,970665784
51,9,20,Ticks_Linear_8,260,5,42,127,971193964
51,9,20,Ticks_Linear_8,261,1,48,31,971199028
51,9,20,Ticks_Linear_8,262,5,42,127,971754024
51,9,20,Ticks_Linear_8,263,1,48,27,971769000
51,9,20,Ticks_Linear_8,264,1,48,34,972308744
51,9,20,Ticks_Linear_8,265,5,42,127,972313952
51,9,20,Ticks_Linear_8,266,1,48,30,972850824
51,9,20,Ticks_Linear_8,267,5,42,127,972874088
51,9,20,Ticks_Linear_8,268,1,48,34,973403184
51,9,20,Ticks_Linear_8,269,5,42,127,973424036
51,9,20,Ticks_Linear_8,270,5,42,127,973973992
51,9,20,Ticks_Linear_8,271,1,48,30,973986176
51,9,20,Ticks_Linear_8,272,5,42,127,974524016
51,9,20,Ticks_Linear_8,273,1,48,29,974540236
51,9,20,Ticks_Linear_8,274,5,42,127,975073812
51,9,20,Ticks_Linear_8,275,1,48,28,975075456
51,9,20,Ticks_Linear_8,276,5,42,127,975623492
51,9,20,Ticks_Linear_8,277,1,48,35,975627364
51,9,20,Ticks_Linear_8,278,5,42,127,976164304
51,9,20,Ticks_Linear_8,279,1,48,32,976181660
51,9,20,Ticks_Linear_8,280,5,42,127,976703844
51,9,20,Ticks_Linear_8,281,1,48,30,976731832
51,9,20,Ticks_Linear_8,282,5,42,127,977243460
51,9,20,Ticks_Linear_8,283,1,48,29,977244424
51,9,20,Ticks_Linear_8,284,1,48,31,977765276
51,9,20,Ticks_Linear_8,285,5,42,127,977784116
51,9,20,Ticks_Linear_8,286,1,48,32,978303248
51,9,20,Ticks_Linear_8,287,5,42,127,978323732
51,9,20,Ticks_Linear_8,288,1,48,29,978848548
51,9,20,Ticks_Linear_8,289,5,42,127,978854284
51,9,20,Ticks_Linear_8,290,1,48,32,979375956
51,9,20,Ticks_Linear_8,291,5,42,127,979383640
51,9,20,Ticks_Linear_8,292,1,48,34,979911000
51,9,20,Ticks_Linear_8,293,5,42,127,979914116
51,9,20,Ticks_Linear_8,294,1,48,34,980436464
51,9,20,Ticks_Linear_8,295,5,42,127,980443624
51,9,20,Ticks_Linear_8,296,5,42,127,980973884
51,9,20,Ticks_Linear_8,297,1,48,34,980991552
51,9,20,Ticks_Linear_8,298,5,42,127,981494104
51,9,20,Ticks_Linear_8,299,1,48,38,981517916
51,9,20,Ticks_Linear_8,300,5,42,127,982014492
51,9,20,Ticks_Linear_8,301,1,48,29,982049364
51,9,20,Ticks_Linear_8,302,5,42,127,982533740
51,9,20,Ticks_Linear_8,303,1,48,33,982542256
51,9,20,Ticks_Linear_8,304,5,42,127,983053736
51,9,20,Ticks_Linear_8,305,1,48,33,983058052
51,9,20,Ticks_Linear_8,306,5,42,127,983573880
51,9,20,Ticks_Linear_8,307,1,48,36,983588604
51,9,20,Ticks_Linear_8,308,5,42,127,984083840
51,9,20,Ticks_Linear_8,309,1,48,35,984104708
51,9,20,Ticks_Linear_8,310,5,42,127,984593724
51,9,20,Ticks_Linear_8,311,1,48,33,984624480
51,9,20,Ticks_Linear_8,312,5,42,127,985103684
51,9,20,Ticks_Linear_8,313,1,48,35,985127844
51,9,20,Ticks_Linear_8,314,1,48,36,985608576
51,9,20,Ticks_Linear_8,315,5,42,127,985613712
51,9,20,Ticks_Linear_8,316,1,48,33,986121152
51,9,20,Ticks_Linear_8,317,5,42,127,986123672
51,9,20,Ticks_Linear_8,318,1,48,37,986600012
51,9,20,Ticks_Linear_8,319,5,42,127,986624644
51,9,20,Ticks_Linear_8,320,1,48,34,987124324
51,9,20,Ticks_Linear_8,321,5,42,127,987125588
51,9,20,Ticks_Linear_8,322,5,42,127,987623852
51,9,20,Ticks_Linear_8,323,1,48,32,987639572
51,9,20,Ticks_Linear_8,324,5,42,127,988123404
51,9,20,Ticks_Linear_8,325,1,48,37,988140820
51,9,20,Ticks_Linear_8,326,1,48,35,988615412
51,9,20,Ticks_Linear_8,327,5,42,127,988624588
51,9,20,Ticks_Linear_8,328,1,48,34,989096468
51,9,20,Ticks_Linear_8,329,5,42,127,989113660
51,9,20,Ticks_Linear_8,330,1,48,30,989602788
51,9,20,Ticks_Linear_8,331,5,42,127,989604444
51,9,20,Ticks_Linear_8,332,1,48,27,990074304
51,9,20,Ticks_Linear_8,333,5,42,127,990093588
51,9,20,Ticks_Linear_8,334,1,48,33,990558196
51,9,20,Ticks_Linear_8,335,5,42,127,990584152
51,9,20,Ticks_Linear_8,336,1,48,29,991040144
51,9,20,Ticks_Linear_8,337,5,42,127,991073740
51,9,20,Ticks_Linear_8,0,9999,9999,9999,880512072
51,9,20,Ticks_Linear_8,1,9999,9999,9999,881341552
51,9,20,Ticks_Linear_8,2,9999,9999,9999,882161740
51,9,20,Ticks_Linear_8,3,9999,9999,9999,882982000
51,9,20,Ticks_Linear_8,4,9999,9999,9999,883801196
51,9,20,Ticks_Linear_8,5,9999,9999,9999,884611184
51,9,20,Ticks_Linear_8,6,9999,9999,9999,885421148
51,9,20,Ticks_Linear_8,7,9999,9999,9999,886231144
51,9,20,Ticks_Linear_8,8,9999,9999,9999,887041084
51,9,20,Ticks_Linear_8,9,9999,9999,9999,887851068
51,9,20,Ticks_Linear_8,10,9999,9999,9999,888651840
51,9,20,Ticks_Linear_8,11,9999,9999,9999,889451640
51,9,20,Ticks_Linear_8,12,9999,9999,9999,890251364
51,9,20,Ticks_Linear_8,13,9999,9999,9999,891051080
51,9,20,Ticks_Linear_8,14,9999,9999,9999,891851852
51,9,20,Ticks_Linear_8,15,9999,9999,9999,892641392
51,9,20,Ticks_Linear_8,16,9999,9999,9999,893431904
51,9,20,Ticks_Linear_8,17,9999,9999,9999,894221392
51,9,20,Ticks_Linear_8,18,9999,9999,9999,895011904
51,9,20,Ticks_Linear_8,19,9999,9999,9999,895801444
51,9,20,Ticks_Linear_8,20,9999,9999,9999,896581700
51,9,20,Ticks_Linear_8,21,9999,9999,9999,897362028
51,9,20,Ticks_Linear_8,22,9999,9999,9999,898141308
51,9,20,Ticks_Linear_8,23,9999,9999,9999,898921560
51,9,20,Ticks_Linear_8,24,9999,9999,9999,899701816
51,9,20,Ticks_Linear_8,25,9999,9999,9999,900471884
51,9,20,Ticks_Linear_8,26,9999,9999,9999,901241920
51,9,20,Ticks_Linear_8,27,9999,9999,9999,902011988
51,9,20,Ticks_Linear_8,28,9999,9999,9999,902782056
51,9,20,Ticks_Linear_8,29,9999,9999,9999,903552120
51,9,20,Ticks_Linear_8,30,9999,9999,9999,904321076
51,9,20,Ticks_Linear_8,31,9999,9999,9999,905081928
51,9,20,Ticks_Linear_8,32,9999,9999,9999,905841744
51,9,20,Ticks_Linear_8,33,9999,9999,9999,906601548
51,9,20,Ticks_Linear_8,34,9999,9999,9999,907361356
51,9,20,Ticks_Linear_8,35,9999,9999,9999,908111960
51,9,20,Ticks_Linear_8,36,9999,9999,9999,908861512
51,9,20,Ticks_Linear_8,37,9999,9999,9999,909611132
51,9,20,Ticks_Linear_8,38,9999,9999,9999,910361656
51,9,20,Ticks_Linear_8,39,9999,9999,9999,911111272
51,9,20,Ticks_Linear_8,40,9999,9999,9999,911851596
51,9,20,Ticks_Linear_8,41,9999,9999,9999,912591932
51,9,20,Ticks_Linear_8,42,9999,9999,9999,913331296
51,9,20,Ticks_Linear_8,43,9999,9999,9999,914071632
51,9,20,Ticks_Linear_8,44,9999,9999,9999,914811968
51,9,20,Ticks_Linear_8,45,9999,9999,9999,915542120
51,9,20,Ticks_Linear_8,46,9999,9999,9999,916281412
51,9,20,Ticks_Linear_8,47,9999,9999,9999,917011564
51,9,20,Ticks_Linear_8,48,9999,9999,9999,917741692
51,9,20,Ticks_Linear_8,49,9999,9999,9999,918471772
51,9,20,Ticks_Linear_8,50,9999,9999,9999,919191664
51,9,20,Ticks_Linear_8,51,9999,9999,9999,919911480
51,9,20,Ticks_Linear_8,52,9999,9999,9999,920631376
51,9,20,Ticks_Linear_8,53,9999,9999,9999,921351268
51,9,20,Ticks_Linear_8,54,9999,9999,9999,922071136
51,9,20,Ticks_Linear_8,55,9999,9999,9999,922781820
51,9,20,Ticks_Linear_8,56,9999,9999,9999,923491452
51,9,20,Ticks_Linear_8,57,9999,9999,9999,924202068
51,9,20,Ticks_Linear_8,58,9999,9999,9999,924911668
51,9,20,Ticks_Linear_8,59,9999,9999,9999,925621308
51,9,20,Ticks_Linear_8,60,9999,9999,9999,926321736
51,9,20,Ticks_Linear_8,61,9999,9999,9999,927021112
51,9,20,Ticks_Linear_8,62,9999,9999,9999,927721584
51,9,20,Ticks_Linear_8,63,9999,9999,9999,928421996
51,9,20,Ticks_Linear_8,64,9999,9999,9999,929121372
51,9,20,Ticks_Linear_8,65,9999,9999,9999,929811536
51,9,20,Ticks_Linear_8,66,9999,9999,9999,930501748
51,9,20,Ticks_Linear_8,67,9999,9999,9999,931191912
51,9,20,Ticks_Linear_8,68,9999,9999,9999,931882040
51,9,20,Ticks_Linear_8,69,9999,9999,9999,932571248
51,9,20,Ticks_Linear_8,70,9999,9999,9999,933251156
51,9,20,Ticks_Linear_8,71,9999,9999,9999,933931128
51,9,20,Ticks_Linear_8,72,9999,9999,9999,934612052
51,9,20,Ticks_Linear_8,73,9999,9999,9999,935291956
51,9,20,Ticks_Linear_8,74,9999,9999,9999,935971936
51,9,20,Ticks_Linear_8,75,9999,9999,9999,936641636
51,9,20,Ticks_Linear_8,76,9999,9999,9999,937311356
51,9,20,Ticks_Linear_8,77,9999,9999,9999,937982040
51,9,20,Ticks_Linear_8,78,9999,9999,9999,938651744
51,9,20,Ticks_Linear_8,79,9999,9999,9999,939321464
51,9,20,Ticks_Linear_8,80,9999,9999,9999,939981944
51,9,20,Ticks_Linear_8,81,9999,9999,9999,940641404
51,9,20,Ticks_Linear_8,82,9999,9999,9999,941301888
51,9,20,Ticks_Linear_8,83,9999,9999,9999,941961340
51,9,20,Ticks_Linear_8,84,9999,9999,9999,942621772
51,9,20,Ticks_Linear_8,85,9999,9999,9999,943272000
51,9,20,Ticks_Linear_8,86,9999,9999,9999,943921276
51,9,20,Ticks_Linear_8,87,9999,9999,9999,944571492
51,9,20,Ticks_Linear_8,88,9999,9999,9999,945221740
51,9,20,Ticks_Linear_8,89,9999,9999,9999,945871960
51,9,20,Ticks_Linear_8,90,9999,9999,9999,946511956
51,9,20,Ticks_Linear_8,91,9999,9999,9999,947151996
51,9,20,Ticks_Linear_8,92,9999,9999,9999,947791984
51,9,20,Ticks_Linear_8,93,9999,9999,9999,948431948
51,9,20,Ticks_Linear_8,94,9999,9999,9999,949071932
51,9,20,Ticks_Linear_8,95,9999,9999,9999,949701712
51,9,20,Ticks_Linear_8,96,9999,9999,9999,950331516
51,9,20,Ticks_Linear_8,97,9999,9999,9999,950961224
51,9,20,Ticks_Linear_8,98,9999,9999,9999,951592000
51,9,20,Ticks_Linear_8,99,9999,9999,9999,952221780
51,9,20,Ticks_Linear_8,100,9999,9999,9999,952841328
51,9,20,Ticks_Linear_8,101,9999,9999,9999,953461820
51,9,20,Ticks_Linear_8,102,9999,9999,9999,954081340
51,9,20,Ticks_Linear_8,103,9999,9999,9999,954701932
51,9,20,Ticks_Linear_8,104,9999,9999,9999,955321452
51,9,20,Ticks_Linear_8,105,9999,9999,9999,955931708
51,9,20,Ticks_Linear_8,106,9999,9999,9999,956542016
51,9,20,Ticks_Linear_8,107,9999,9999,9999,957151344
51,9,20,Ticks_Linear_8,108,9999,9999,9999,957761604
51,9,20,Ticks_Linear_8,109,9999,9999,9999,958371916
51,9,20,Ticks_Linear_8,110,9999,9999,9999,958971992
51,9,20,Ticks_Linear_8,111,9999,9999,9999,959572040
51,9,20,Ticks_Linear_8,112,9999,9999,9999,960171116
51,9,20,Ticks_Linear_8,113,9999,9999,9999,960771188
51,9,20,Ticks_Linear_8,114,9999,9999,9999,961371240
51,9,20,Ticks_Linear_8,115,9999,9999,9999,961962076
51,9,20,Ticks_Linear_8,116,9999,9999,9999,962551864
51,9,20,Ticks_Linear_8,117,9999,9999,9999,963141752
51,9,20,Ticks_Linear_8,118,9999,9999,9999,963731540
51,9,20,Ticks_Linear_8,119,9999,9999,9999,964321404
51,9,20,Ticks_Linear_8,120,9999,9999,9999,964902004
51,9,20,Ticks_Linear_8,121,9999,9999,9999,965481540
51,9,20,Ticks_Linear_8,122,9999,9999,9999,966061148
51,9,20,Ticks_Linear_8,123,9999,9999,9999,966641792
51,9,20,Ticks_Linear_8,124,9999,9999,9999,967221348
51,9,20,Ticks_Linear_8,125,9999,9999,9999,967791740
51,9,20,Ticks_Linear_8,126,9999,9999,9999,968362084
51,9,20,Ticks_Linear_8,127,9999,9999,9999,968931408
51,9,20,Ticks_Linear_8,128,9999,9999,9999,969501756
51,9,20,Ticks_Linear_8,129,9999,9999,9999,970071100
51,9,20,Ticks_Linear_8,130,9999,9999,9999,970631236
51,9,20,Ticks_Linear_8,131,9999,9999,9999,971191368
51,9,20,Ticks_Linear_8,132,9999,9999,9999,971751500
51,9,20,Ticks_Linear_8,133,9999,9999,9999,972311656
51,9,20,Ticks_Linear_8,134,9999,9999,9999,972871788
51,9,20,Ticks_Linear_8,135,9999,9999,9999,973421664
51,9,20,Ticks_Linear_8,136,9999,9999,9999,973971544
51,9,20,Ticks_Linear_8,137,9999,9999,9999,974521420
51,9,20,Ticks_Linear_8,138,9999,9999,9999,975071292
51,9,20,Ticks_Linear_8,139,9999,9999,9999,975621192
51,9,20,Ticks_Linear_8,140,9999,9999,9999,976161856
51,9,20,Ticks_Linear_8,141,9999,9999,9999,976701544
51,9,20,Ticks_Linear_8,142,9999,9999,9999,977241160
51,9,20,Ticks_Linear_8,143,9999,9999,9999,977781816
51,9,20,Ticks_Linear_8,144,9999,9999,9999,978321504
51,9,20,Ticks_Linear_8,145,9999,9999,9999,978851908
51,9,20,Ticks_Linear_8,146,9999,9999,9999,979381340
51,9,20,Ticks_Linear_8,147,9999,9999,9999,979911744
51,9,20,Ticks_Linear_8,148,9999,9999,9999,980441176
51,9,20,Ticks_Linear_8,149,9999,9999,9999,980971584
51,9,20,Ticks_Linear_8,150,9999,9999,9999,981491804
51,9,20,Ticks_Linear_8,151,9999,9999,9999,982011972
51,9,20,Ticks_Linear_8,152,9999,9999,9999,982531144
51,9,20,Ticks_Linear_8,153,9999,9999,9999,983051364
51,9,20,Ticks_Linear_8,154,9999,9999,9999,983571580
51,9,20,Ticks_Linear_8,155,9999,9999,9999,984081468
51,9,20,Ticks_Linear_8,156,9999,9999,9999,984591424
51,9,20,Ticks_Linear_8,157,9999,9999,9999,985101388
51,9,20,Ticks_Linear_8,158,9999,9999,9999,985611340
51,9,20,Ticks_Linear_8,159,9999,9999,9999,986121300
51,9,20,Ticks_Linear_8,160,9999,9999,9999,986622048
51,9,20,Ticks_Linear_8,161,9999,9999,9999,987121728
51,9,20,Ticks_Linear_8,162,9999,9999,9999,987621476
51,9,20,Ticks_Linear_8,163,9999,9999,9999,988121176
51,9,20,Ticks_Linear_8,164,9999,9999,9999,988621916
51,9,20,Ticks_Linear_8,165,9999,9999,9999,989111360
51,9,20,Ticks_Linear_8,166,9999,9999,9999,989601856
51,9,20,Ticks_Linear_8,167,9999,9999,9999,990091364
51,9,20,Ticks_Linear_8,168,9999,9999,9999,990581852
51,9,20,Ticks_Linear_8,169,9999,9999,9999,991071292
51,10,21,Ticks_Linear_5,0,5,42,127,1000495480
51,10,21,Ticks_Linear_5,1,5,42,127,1000975652
51,10,21,Ticks_Linear_5,2,5,42,127,1001456472
51,10,21,Ticks_Linear_5,3,1,48,14,1001486736
51,10,21,Ticks_Linear_5,4,1,48,26,1001913528
51,10,21,Ticks_Linear_5,5,5,42,127,1001936176
51,10,21,Ticks_Linear_5,6,1,48,24,1002386404
51,10,21,Ticks_Linear_5,7,5,42,127,1002415356
51,10,21,Ticks_Linear_5,8,1,48,35,1002874280
51,10,21,Ticks_Linear_5,9,5,42,127,1002906068
51,10,21,Ticks_Linear_5,10,1,48,34,1003363412
51,10,21,Ticks_Linear_5,11,5,42,127,1003395436
51,10,21,Ticks_Linear_5,12,1,48,33,1003849632
51,10,21,Ticks_Linear_5,13,5,42,127,1003886144
51,10,21,Ticks_Linear_5,14,5,42,127,1004376420
51,10,21,Ticks_Linear_5,15,1,48,36,1004377980
51,10,21,Ticks_Linear_5,16,1,48,36,1004836232
51,10,21,Ticks_Linear_5,17,5,42,127,1004876108
51,10,21,Ticks_Linear_5,18,1,48,28,1005366180
51,10,21,Ticks_Linear_5,19,5,42,127,1005375884
51,10,21,Ticks_Linear_5,20,1,48,36,1005847984
51,10,21,Ticks_Linear_5,21,5,42,127,1005875436
51,10,21,Ticks_Linear_5,22,1,48,35,1006321144
51,10,21,Ticks_Linear_5,23,5,42,127,1006376180
51,10,21,Ticks_Linear_5,24,5,42,127,1006876184
51,10,21,Ticks_Linear_5,25,1,48,33,1006885672
51,10,21,Ticks_Linear_5,26,5,42,127,1007375736
51,10,21,Ticks_Linear_5,27,1,48,26,1007388892
51,10,21,Ticks_Linear_5,28,1,48,27,1007867080
51,10,21,Ticks_Linear_5,29,5,42,127,1007885616
51,10,21,Ticks_Linear_5,30,1,48,30,1008351620
51,10,21,Ticks_Linear_5,31,5,42,127,1008395500
51,10,21,Ticks_Linear_5,32,1,48,26,1008898156
51,10,21,Ticks_Linear_5,33,5,42,127,1008905532
51,10,21,Ticks_Linear_5,34,1,48,29,1009414220
51,10,21,Ticks_Linear_5,35,5,42,127,1009415716
51,10,21,Ticks_Linear_5,36,1,48,27,1009914036
51,10,21,Ticks_Linear_5,37,5,42,127,1009925452
51,10,21,Ticks_Linear_5,38,1,48,27,1010422252
51,10,21,Ticks_Linear_5,39,5,42,127,1010445812
51,10,21,Ticks_Linear_5,40,1,48,27,1010939480
51,10,21,Ticks_Linear_5,41,5,42,127,1010966104
51,10,21,Ticks_Linear_5,42,1,48,23,1011463448
51,10,21,Ticks_Linear_5,43,5,42,127,1011485948
51,10,21,Ticks_Linear_5,44,1,48,29,1011987108
51,10,21,Ticks_Linear_5,45,5,42,127,1012006240
51,10,21,Ticks_Linear_5,46,1,48,24,1012505156
51,10,21,Ticks_Linear_5,47,5,42,127,1012525412
51,10,21,Ticks_Linear_5,48,1,48,27,1013025076
51,10,21,Ticks_Linear_5,49,5,42,127,1013055816
51,10,21,Ticks_Linear_5,50,1,48,23,1013541540
51,10,21,Ticks_Linear_5,51,5,42,127,1013586292
51,10,21,Ticks_Linear_5,52,5,42,127,1014115804
51,10,21,Ticks_Linear_5,53,1,48,27,1014128960
51,10,21,Ticks_Linear_5,54,1,48,23,1014640768
51,10,21,Ticks_Linear_5,55,5,42,127,1014646128
51,10,21,Ticks_Linear_5,56,1,48,28,1015173900
51,10,21,Ticks_Linear_5,57,5,42,127,1015175480
51,10,21,Ticks_Linear_5,58,5,42,127,1015716076
51,10,21,Ticks_Linear_5,59,1,48,28,1015717044
51,10,21,Ticks_Linear_5,60,5,42,127,1016255768
51,10,21,Ticks_Linear_5,61,1,48,25,1016265256
51,10,21,Ticks_Linear_5,62,5,42,127,1016795604
51,10,21,Ticks_Linear_5,63,1,48,25,1016804048
51,10,21,Ticks_Linear_5,64,1,48,27,1017323872
51,10,21,Ticks_Linear_5,65,5,42,127,1017336212
51,10,21,Ticks_Linear_5,66,1,48,27,1017858340
51,10,21,Ticks_Linear_5,67,5,42,127,1017875828
51,10,21,Ticks_Linear_5,68,1,48,25,1018412476
51,10,21,Ticks_Linear_5,69,5,42,127,1018425924
51,10,21,Ticks_Linear_5,70,1,48,29,1018949700
51,10,21,Ticks_Linear_5,71,5,42,127,1018975796
51,10,21,Ticks_Linear_5,72,1,48,27,1019498000
51,10,21,Ticks_Linear_5,73,5,42,127,1019525376
51,10,21,Ticks_Linear_5,74,1,48,22,1020040976
51,10,21,Ticks_Linear_5,75,5,42,127,1020076300
51,10,21,Ticks_Linear_5,76,1,48,26,1020617440
51,10,21,Ticks_Linear_5,77,5,42,127,1020626244
51,10,21,Ticks_Linear_5,78,1,48,27,1021159752
51,10,21,Ticks_Linear_5,79,5,42,127,1021186776
51,10,21,Ticks_Linear_5,80,1,48,27,1021715796
51,10,21,Ticks_Linear_5,81,5,42,127,1021755824
51,10,21,Ticks_Linear_5,82,5,42,127,1022315888
51,10,21,Ticks_Linear_5,83,1,48,22,1022317376
51,10,21,Ticks_Linear_5,84,1,48,35,1022848640
51,10,21,Ticks_Linear_5,85,5,42,127,1022875940
51,10,21,Ticks_Linear_5,86,1,48,23,1023411540
51,10,21,Ticks_Linear_5,87,5,42,127,1023436148
51,10,21,Ticks_Linear_5,88,1,48,24,1023992216
51,10,21,Ticks_Linear_5,89,5,42,127,1024005444
51,10,21,Ticks_Linear_5,90,1,48,18,1024557228
51,10,21,Ticks_Linear_5,91,5,42,127,1024575760
51,10,21,Ticks_Linear_5,92,1,48,27,1025130084
51,10,21,Ticks_Linear_5,93,5,42,127,1025146228
51,10,21,Ticks_Linear_5,94,1,48,27,1025707152
51,10,21,Ticks_Linear_5,95,5,42,127,1025715724
51,10,21,Ticks_Linear_5,96,1,48,21,1026276792
51,10,21,Ticks_Linear_5,97,5,42,127,1026285820
51,10,21,Ticks_Linear_5,98,1,48,26,1026846536
51,10,21,Ticks_Linear_5,99,5,42,127,1026865748
51,10,21,Ticks_Linear_5,100,1,48,21,1027443132
51,10,21,Ticks_Linear_5,101,5,42,127,1027446176
51,10,21,Ticks_Linear_5,102,1,48,29,1027966724
51,10,21,Ticks_Linear_5,103,5,42,127,1028025704
51,10,21,Ticks_Linear_5,104,5,42,127,1028606460
51,10,21,Ticks_Linear_5,105,1,48,26,1028610332
51,10,21,Ticks_Linear_5,106,1,48,21,1029184476
51,10,21,Ticks_Linear_5,107,5,42,127,1029185984
51,10,21,Ticks_Linear_5,108,1,48,21,1029749744
51,10,21,Ticks_Linear_5,109,5,42,127,1029775700
51,10,21,Ticks_Linear_5,110,1,48,21,1030295428
51,10,21,Ticks_Linear_5,111,5,42,127,1030365712
51,10,21,Ticks_Linear_5,112,1,48,30,1030878028
51,10,21,Ticks_Linear_5,113,5,42,127,1030956576
51,10,21,Ticks_Linear_5,114,5,42,127,1031546144
51,10,21,Ticks_Linear_5,115,1,48,20,1031548084
51,10,21,Ticks_Linear_5,116,5,42,127,1032136012
51,10,21,Ticks_Linear_5,117,1,48,27,1032158076
51,10,21,Ticks_Linear_5,118,5,42,127,1032736232
51,10,21,Ticks_Linear_5,119,1,48,19,1032740924
51,10,21,Ticks_Linear_5,120,5,42,127,1033336504
51,10,21,Ticks_Linear_5,121,1,48,24,1033361264
51,10,21,Ticks_Linear_5,122,1,48,21,1033922272
51,10,21,Ticks_Linear_5,123,5,42,127,1033936396
51,10,21,Ticks_Linear_5,124,5,42,127,1034536476
51,10,21,Ticks_Linear_5,125,1,48,23,1035108044
51,10,21,Ticks_Linear_5,126,5,42,127,1035136468
51,10,21,Ticks_Linear_5,127,1,48,26,1035708768
51,10,21,Ticks_Linear_5,128,5,42,127,1035745652
51,10,21,Ticks_Linear_5,129,1,48,26,1036320668
51,10,21,Ticks_Linear_5,130,5,42,127,1036355988
51,10,21,Ticks_Linear_5,131,1,48,35,1036955100
51,10,21,Ticks_Linear_5,132,5,42,127,1036966444
51,10,21,Ticks_Linear_5,133,1,48,36,1037550348
51,10,21,Ticks_Linear_5,134,5,42,127,1037575576
51,10,21,Ticks_Linear_5,135,1,48,32,1038150568
51,10,21,Ticks_Linear_5,136,5,42,127,1038185812
51,10,21,Ticks_Linear_5,137,1,48,20,1038779076
51,10,21,Ticks_Linear_5,138,5,42,127,1038806380
51,10,21,Ticks_Linear_5,139,1,48,28,1039402288
51,10,21,Ticks_Linear_5,140,5,42,127,1039425848
51,10,21,Ticks_Linear_5,141,1,48,31,1040020760
51,10,21,Ticks_Linear_5,142,5,42,127,1040045368
51,10,21,Ticks_Linear_5,143,1,48,33,1040609276
51,10,21,Ticks_Linear_5,144,5,42,127,1040665960
51,10,21,Ticks_Linear_5,145,1,48,29,1041250468
51,10,21,Ticks_Linear_5,146,5,42,127,1041285556
51,10,21,Ticks_Linear_5,147,1,48,25,1041864224
51,10,21,Ticks_Linear_5,148,5,42,127,1041916404
51,10,21,Ticks_Linear_5,149,1,48,29,1042484964
51,10,21,Ticks_Linear_5,150,5,42,127,1042546256
51,10,21,Ticks_Linear_5,151,1,48,31,1043150084
51,10,21,Ticks_Linear_5,152,5,42,127,1043175736
51,10,21,Ticks_Linear_5,153,1,48,34,1043777268
51,10,21,Ticks_Linear_5,154,5,42,127,1043805616
51,10,21,Ticks_Linear_5,155,1,48,33,1044408992
51,10,21,Ticks_Linear_5,156,5,42,127,1044436296
51,10,21,Ticks_Linear_5,157,1,48,27,1045073688
51,10,21,Ticks_Linear_5,158,5,42,127,1045076432
51,10,21,Ticks_Linear_5,159,1,48,26,1045683172
51,10,21,Ticks_Linear_5,160,5,42,127,1045716320
51,10,21,Ticks_Linear_5,161,1,48,29,1046313428
51,10,21,Ticks_Linear_5,162,5,42,127,1046356308
51,10,21,Ticks_Linear_5,163,5,42,127,1046996204
51,10,21,Ticks_Linear_5,164,1,48,32,1047007188
51,10,21,Ticks_Linear_5,165,5,42,127,1047636268
51,10,21,Ticks_Linear_5,166,1,48,30,1047641556
51,10,21,Ticks_Linear_5,167,5,42,127,1048285444
51,10,21,Ticks_Linear_5,168,1,48,28,1048286412
51,10,21,Ticks_Linear_5,169,1,48,29,1048909728
51,10,21,Ticks_Linear_5,170,5,42,127,1048935908
51,10,21,Ticks_Linear_5,171,1,48,31,1049537192
51,10,21,Ticks_Linear_5,172,5,42,127,1049586128
51,10,21,Ticks_Linear_5,173,1,48,28,1050178072
51,10,21,Ticks_Linear_5,174,5,42,127,1050236224
51,10,21,Ticks_Linear_5,175,1,48,30,1050866188
51,10,21,Ticks_Linear_5,176,5,42,127,1050885648
51,10,21,Ticks_Linear_5,177,1,48,37,1051477348
51,10,21,Ticks_Linear_5,178,5,42,127,1051546208
51,10,21,Ticks_Linear_5,179,1,48,35,1052153200
51,10,21,Ticks_Linear_5,180,5,42,127,1052205520
51,10,21,Ticks_Linear_5,181,5,42,127,1052866080
51,10,21,Ticks_Linear_5,182,1,48,35,1052871820
51,10,21,Ticks_Linear_5,183,5,42,127,1053526440
51,10,21,Ticks_Linear_5,184,1,48,16,1053547084
51,10,21,Ticks_Linear_5,185,1,48,28,1054156924
51,10,21,Ticks_Linear_5,186,5,42,127,1054186088
51,10,21,Ticks_Linear_5,187,1,48,35,1054819000
51,10,21,Ticks_Linear_5,188,5,42,127,1054855512
51,10,21,Ticks_Linear_5,189,5,42,127,1055526136
51,10,21,Ticks_Linear_5,190,1,48,33,1055540488
51,10,21,Ticks_Linear_5,191,1,48,34,1056173696
51,10,21,Ticks_Linear_5,192,5,42,127,1056195824
51,10,21,Ticks_Linear_5,193,1,48,35,1056825288
51,10,21,Ticks_Linear_5,194,5,42,127,1056865616
51,10,21,Ticks_Linear_5,195,1,48,32,1057509352
51,10,21,Ticks_Linear_5,196,5,42,127,1057536236
51,10,21,Ticks_Linear_5,197,1,48,32,1058167920
51,10,21,Ticks_Linear_5,198,5,42,127,1058216188
51,10,21,Ticks_Linear_5,199,1,48,37,1058807236
51,10,21,Ticks_Linear_5,200,5,42,127,1058896164
51,10,21,Ticks_Linear_5,201,5,42,127,1059576148
51,10,21,Ticks_Linear_5,202,1,48,31,1059610648
51,10,21,Ticks_Linear_5,203,5,42,127,1060256252
51,10,21,Ticks_Linear_5,204,1,48,27,1060266340
51,10,21,Ticks_Linear_5,205,1,48,27,1060918208
51,10,21,Ticks_Linear_5,206,5,42,127,1060936000
51,10,21,Ticks_Linear_5,207,1,48,31,1061580860
51,10,21,Ticks_Linear_5,208,5,42,127,1061626160
51,10,21,Ticks_Linear_5,209,1,48,32,1062242712
51,10,21,Ticks_Linear_5,210,5,42,127,1062316448
51,10,21,Ticks_Linear_5,211,5,42,127,1063005720
51,10,21,Ticks_Linear_5,212,1,48,31,1063023064
51,10,21,Ticks_Linear_5,213,1,48,29,1063673660
51,10,21,Ticks_Linear_5,214,5,42,127,1063695876
51,10,21,Ticks_Linear_5,215,1,48,30,1064330628
51,10,21,Ticks_Linear_5,216,5,42,127,1064385940
51,10,21,Ticks_Linear_5,217,1,48,28,1065055696
51,10,21,Ticks_Linear_5,218,5,42,127,1065086436
51,10,21,Ticks_Linear_5,219,1,48,26,1065750944
51,10,21,Ticks_Linear_5,220,5,42,127,1065785660
51,10,21,Ticks_Linear_5,221,1,48,32,1066445060
51,10,21,Ticks_Linear_5,222,5,42,127,1066486084
51,10,21,Ticks_Linear_5,223,1,48,27,1067145628
51,10,21,Ticks_Linear_5,224,5,42,127,1067185652
51,10,21,Ticks_Linear_5,225,1,48,28,1067841324
51,10,21,Ticks_Linear_5,226,5,42,127,1067886004
51,10,21,Ticks_Linear_5,227,5,42,127,1068595568
51,10,21,Ticks_Linear_5,228,1,48,31,1068601904
51,10,21,Ticks_Linear_5,229,5,42,127,1069306180
51,10,21,Ticks_Linear_5,230,1,48,33,1069332660
51,10,21,Ticks_Linear_5,231,1,48,29,1069978444
51,10,21,Ticks_Linear_5,232,5,42,127,1070015928
51,10,21,Ticks_Linear_5,233,1,48,29,1070670856
51,10,21,Ticks_Linear_5,234,5,42,127,1070725712
51,10,21,Ticks_Linear_5,235,1,48,29,1071383548
51,10,21,Ticks_Linear_5,236,5,42,127,1071436096
51,10,21,Ticks_Linear_5,237,1,48,33,1072121048
51,10,21,Ticks_Linear_5,238,5,42,127,1072155916
51,10,21,Ticks_Linear_5,239,1,48,28,1072788724
51,10,21,Ticks_Linear_5,240,5,42,127,1072875932
51,10,21,Ticks_Linear_5,241,1,48,32,1073551376
51,10,21,Ticks_Linear_5,242,5,42,127,1073595748
51,10,21,Ticks_Linear_5,243,1,48,32,1074268576
51,10,21,Ticks_Linear_5,244,5,42,127,1074315644
51,10,21,Ticks_Linear_5,245,1,48,27,1074952664
51,10,21,Ticks_Linear_5,246,5,42,127,1075035760
51,10,21,Ticks_Linear_5,247,1,48,28,1075733828
51,10,21,Ticks_Linear_5,248,5,42,127,1075765616
51,10,21,Ticks_Linear_5,249,1,48,33,1076423132
51,10,21,Ticks_Linear_5,250,5,42,127,1076495768
51,10,21,Ticks_Linear_5,251,1,48,27,1077209380
51,10,21,Ticks_Linear_5,252,5,42,127,1077225896
51,10,21,Ticks_Linear_5,253,1,48,32,1077936988
51,10,21,Ticks_Linear_5,254,5,42,127,1077955824
51,10,21,Ticks_Linear_5,255,1,48,29,1078640472
51,10,21,Ticks_Linear_5,256,5,42,127,1078685976
51,10,21,Ticks_Linear_5,257,1,48,27,1079407552
51,10,21,Ticks_Linear_5,258,5,42,127,1079426540
51,10,21,Ticks_Linear_5,259,1,48,26,1080133352
51,10,21,Ticks_Linear_5,260,5,42,127,1080175936
51,10,21,Ticks_Linear_5,261,1,48,32,1080887332
51,10,21,Ticks_Linear_5,262,5,42,127,1080916424
51,10,21,Ticks_Linear_5,263,1,48,28,1081592536
51,10,21,Ticks_Linear_5,264,5,42,127,1081655564
51,10,21,Ticks_Linear_5,265,1,48,32,1082375272
51,10,21,Ticks_Linear_5,266,5,42,127,1082396124
51,10,21,Ticks_Linear_5,267,1,48,36,1083080080
51,10,21,Ticks_Linear_5,268,5,42,127,1083145452
51,10,21,Ticks_Linear_5,269,1,48,35,1083843548
51,10,21,Ticks_Linear_5,270,5,42,127,1083896272
51,10,21,Ticks_Linear_5,271,5,42,127,1084645800
51,10,21,Ticks_Linear_5,272,1,48,31,1084679124
51,10,21,Ticks_Linear_5,273,5,42,127,1085396324
51,10,21,Ticks_Linear_5,274,1,48,26,1085441252
51,10,21,Ticks_Linear_5,275,1,48,27,1086145044
51,10,21,Ticks_Linear_5,276,5,42,127,1086146384
51,10,21,Ticks_Linear_5,277,1,48,30,1086892300
51,10,21,Ticks_Linear_5,278,5,42,127,1086905748
51,10,21,Ticks_Linear_5,279,1,48,21,1087637060
51,10,21,Ticks_Linear_5,280,5,42,127,1087665408
51,10,21,Ticks_Linear_5,281,1,48,24,1088412140
51,10,21,Ticks_Linear_5,282,5,42,127,1088426264
51,10,21,Ticks_Linear_5,283,1,48,27,1089153760
51,10,21,Ticks_Linear_5,284,5,42,127,1089186372
51,10,21,Ticks_Linear_5,285,1,48,21,1089901500
51,10,21,Ticks_Linear_5,286,5,42,127,1089946180
51,10,21,Ticks_Linear_5,287,1,48,20,1090674952
51,10,21,Ticks_Linear_5,288,5,42,127,1090716100
51,10,21,Ticks_Linear_5,289,1,48,33,1091418656
51,10,21,Ticks_Linear_5,290,5,42,127,1091486168
51,10,21,Ticks_Linear_5,291,1,48,32,1092194116
51,10,21,Ticks_Linear_5,292,5,42,127,1092256160
51,10,21,Ticks_Linear_5,293,5,42,127,1093026236
51,10,21,Ticks_Linear_5,294,1,48,29,1093094136
51,10,21,Ticks_Linear_5,295,5,42,127,1093796156
51,10,21,Ticks_Linear_5,296,1,48,28,1093828256
51,10,21,Ticks_Linear_5,297,1,48,28,1094568716
51,10,21,Ticks_Linear_5,298,5,42,127,1094575428
51,10,21,Ticks_Linear_5,299,1,48,29,1095306516
51,10,21,Ticks_Linear_5,300,5,42,127,1095355752
51,10,21,Ticks_Linear_5,301,1,48,29,1096059204
51,10,21,Ticks_Linear_5,302,5,42,127,1096136152
51,10,21,Ticks_Linear_5,303,1,48,25,1096813164
51,10,21,Ticks_Linear_5,304,5,42,127,1096916240
51,10,21,Ticks_Linear_5,305,5,42,127,1097695544
51,10,21,Ticks_Linear_5,306,1,48,38,1097746992
51,10,21,Ticks_Linear_5,307,5,42,127,1098486004
51,10,21,Ticks_Linear_5,308,1,48,33,1098486972
51,10,21,Ticks_Linear_5,309,1,48,33,1099262984
51,10,21,Ticks_Linear_5,310,5,42,127,1099275536
51,10,21,Ticks_Linear_5,311,1,48,33,1100025272
51,10,21,Ticks_Linear_5,312,5,42,127,1100066048
51,10,21,Ticks_Linear_5,313,1,48,30,1100826044
51,10,21,Ticks_Linear_5,314,5,42,127,1100855736
51,10,21,Ticks_Linear_5,315,1,48,30,1101592504
51,10,21,Ticks_Linear_5,316,5,42,127,1101646248
51,10,21,Ticks_Linear_5,317,1,48,29,1102391856
51,10,21,Ticks_Linear_5,318,5,42,127,1102445896
51,10,21,Ticks_Linear_5,319,1,48,32,1103192104
51,10,21,Ticks_Linear_5,320,5,42,127,1103245768
51,10,21,Ticks_Linear_5,321,1,48,31,1103979776
51,10,21,Ticks_Linear_5,322,5,42,127,1104045568
51,10,21,Ticks_Linear_5,323,1,48,29,1104782260
51,10,21,Ticks_Linear_5,324,5,42,127,1104846264
51,10,21,Ticks_Linear_5,325,1,48,32,1105619880
51,10,21,Ticks_Linear_5,326,5,42,127,1105645988
51,10,21,Ticks_Linear_5,327,1,48,30,1106398788
51,10,21,Ticks_Linear_5,328,5,42,127,1106455920
51,10,21,Ticks_Linear_5,329,1,48,33,1107249312
51,10,21,Ticks_Linear_5,330,5,42,127,1107265904
51,10,21,Ticks_Linear_5,331,1,48,27,1108023876
51,10,21,Ticks_Linear_5,332,5,42,127,1108076032
51,10,21,Ticks_Linear_5,333,1,48,29,1108816852
51,10,21,Ticks_Linear_5,334,5,42,127,1108885792
51,10,21,Ticks_Linear_5,335,1,48,30,1109672140
51,10,21,Ticks_Linear_5,336,5,42,127,1109695776
51,10,21,Ticks_Linear_5,0,9999,9999,9999,1000493180
51,10,21,Ticks_Linear_5,1,9999,9999,9999,1000973428
51,10,21,Ticks_Linear_5,2,9999,9999,9999,1001453656
51,10,21,Ticks_Linear_5,3,9999,9999,9999,1001933952
51,10,21,Ticks_Linear_5,4,9999,9999,9999,1002413132
51,10,21,Ticks_Linear_5,5,9999,9999,9999,1002903620
51,10,21,Ticks_Linear_5,6,9999,9999,9999,1003393136
51,10,21,Ticks_Linear_5,7,9999,9999,9999,1003883624
51,10,21,Ticks_Linear_5,8,9999,9999,9999,1004374116
51,10,21,Ticks_Linear_5,9,9999,9999,9999,1004873812
51,10,21,Ticks_Linear_5,10,9999,9999,9999,1005373512
51,10,21,Ticks_Linear_5,11,9999,9999,9999,1005873212
51,10,21,Ticks_Linear_5,12,9999,9999,9999,1006373956
51,10,21,Ticks_Linear_5,13,9999,9999,9999,1006873660
51,10,21,Ticks_Linear_5,14,9999,9999,9999,1007373440
51,10,21,Ticks_Linear_5,15,9999,9999,9999,1007883316
51,10,21,Ticks_Linear_5,16,9999,9999,9999,1008393276
51,10,21,Ticks_Linear_5,17,9999,9999,9999,1008903236
51,10,21,Ticks_Linear_5,18,9999,9999,9999,1009413200
51,10,21,Ticks_Linear_5,19,9999,9999,9999,1009923152
51,10,21,Ticks_Linear_5,20,9999,9999,9999,1010443364
51,10,21,Ticks_Linear_5,21,9999,9999,9999,1010963584
51,10,21,Ticks_Linear_5,22,9999,9999,9999,1011483728
51,10,21,Ticks_Linear_5,23,9999,9999,9999,1012003944
51,10,21,Ticks_Linear_5,24,9999,9999,9999,1012523116
51,10,21,Ticks_Linear_5,25,9999,9999,9999,1013053516
51,10,21,Ticks_Linear_5,26,9999,9999,9999,1013583992
51,10,21,Ticks_Linear_5,27,9999,9999,9999,1014113356
51,10,21,Ticks_Linear_5,28,9999,9999,9999,1014643828
51,10,21,Ticks_Linear_5,29,9999,9999,9999,1015173188
51,10,21,Ticks_Linear_5,30,9999,9999,9999,1015713852
51,10,21,Ticks_Linear_5,31,9999,9999,9999,1016253544
51,10,21,Ticks_Linear_5,32,9999,9999,9999,1016793156
51,10,21,Ticks_Linear_5,33,9999,9999,9999,1017333840
51,10,21,Ticks_Linear_5,34,9999,9999,9999,1017873528
51,10,21,Ticks_Linear_5,35,9999,9999,9999,1018423404
51,10,21,Ticks_Linear_5,36,9999,9999,9999,1018973276
51,10,21,Ticks_Linear_5,37,9999,9999,9999,1019523152
51,10,21,Ticks_Linear_5,38,9999,9999,9999,1020074072
51,10,21,Ticks_Linear_5,39,9999,9999,9999,1020623944
51,10,21,Ticks_Linear_5,40,9999,9999,9999,1021184104
51,10,21,Ticks_Linear_5,41,9999,9999,9999,1021753452
51,10,21,Ticks_Linear_5,42,9999,9999,9999,1022313588
51,10,21,Ticks_Linear_5,43,9999,9999,9999,1022873716
51,10,21,Ticks_Linear_5,44,9999,9999,9999,1023433848
51,10,21,Ticks_Linear_5,45,9999,9999,9999,1024003144
51,10,21,Ticks_Linear_5,46,9999,9999,9999,1024573536
51,10,21,Ticks_Linear_5,47,9999,9999,9999,1025143928
51,10,21,Ticks_Linear_5,48,9999,9999,9999,1025713276
51,10,21,Ticks_Linear_5,49,9999,9999,9999,1026283596
51,10,21,Ticks_Linear_5,50,9999,9999,9999,1026863224
51,10,21,Ticks_Linear_5,51,9999,9999,9999,1027443804
51,10,21,Ticks_Linear_5,52,9999,9999,9999,1028023408
51,10,21,Ticks_Linear_5,53,9999,9999,9999,1028604012
51,10,21,Ticks_Linear_5,54,9999,9999,9999,1029183544
51,10,21,Ticks_Linear_5,55,9999,9999,9999,1029773404
51,10,21,Ticks_Linear_5,56,9999,9999,9999,1030363192
51,10,21,Ticks_Linear_5,57,9999,9999,9999,1030954052
51,10,21,Ticks_Linear_5,58,9999,9999,9999,1031543920
51,10,21,Ticks_Linear_5,59,9999,9999,9999,1032133712
51,10,21,Ticks_Linear_5,60,9999,9999,9999,1032733784
51,10,21,Ticks_Linear_5,61,9999,9999,9999,1033333832
51,10,21,Ticks_Linear_5,62,9999,9999,9999,1033933952
51,10,21,Ticks_Linear_5,63,9999,9999,9999,1034533956
51,10,21,Ticks_Linear_5,64,9999,9999,9999,1035134016
51,10,21,Ticks_Linear_5,65,9999,9999,9999,1035743356
51,10,21,Ticks_Linear_5,66,9999,9999,9999,1036353612
51,10,21,Ticks_Linear_5,67,9999,9999,9999,1036963920
51,10,21,Ticks_Linear_5,68,9999,9999,9999,1037573204
51,10,21,Ticks_Linear_5,69,9999,9999,9999,1038183512
51,10,21,Ticks_Linear_5,70,9999,9999,9999,1038804080
51,10,21,Ticks_Linear_5,71,9999,9999,9999,1039423552
51,10,21,Ticks_Linear_5,72,9999,9999,9999,1040043068
51,10,21,Ticks_Linear_5,73,9999,9999,9999,1040663660
51,10,21,Ticks_Linear_5,74,9999,9999,9999,1041283184
51,10,21,Ticks_Linear_5,75,9999,9999,9999,1041913956
51,10,21,Ticks_Linear_5,76,9999,9999,9999,1042543736
51,10,21,Ticks_Linear_5,77,9999,9999,9999,1043173440
51,10,21,Ticks_Linear_5,78,9999,9999,9999,1043803244
51,10,21,Ticks_Linear_5,79,9999,9999,9999,1044433996
51,10,21,Ticks_Linear_5,80,9999,9999,9999,1045073984
51,10,21,Ticks_Linear_5,81,9999,9999,9999,1045714024
51,10,21,Ticks_Linear_5,82,9999,9999,9999,1046354012
51,10,21,Ticks_Linear_5,83,9999,9999,9999,1046993980
51,10,21,Ticks_Linear_5,84,9999,9999,9999,1047634044
51,10,21,Ticks_Linear_5,85,9999,9999,9999,1048283220
51,10,21,Ticks_Linear_5,86,9999,9999,9999,1048933460
51,10,21,Ticks_Linear_5,87,9999,9999,9999,1049583684
51,10,21,Ticks_Linear_5,88,9999,9999,9999,1050233928
51,10,21,Ticks_Linear_5,89,9999,9999,9999,1050883128
51,10,21,Ticks_Linear_5,90,9999,9999,9999,1051543612
51,10,21,Ticks_Linear_5,91,9999,9999,9999,1052203072
51,10,21,Ticks_Linear_5,92,9999,9999,9999,1052863560
51,10,21,Ticks_Linear_5,93,9999,9999,9999,1053524064
51,10,21,Ticks_Linear_5,94,9999,9999,9999,1054183492
51,10,21,Ticks_Linear_5,95,9999,9999,9999,1054853212
51,10,21,Ticks_Linear_5,96,9999,9999,9999,1055523912
51,10,21,Ticks_Linear_5,97,9999,9999,9999,1056193600
51,10,21,Ticks_Linear_5,98,9999,9999,9999,1056863320
51,10,21,Ticks_Linear_5,99,9999,9999,9999,1057534008
51,10,21,Ticks_Linear_5,100,9999,9999,9999,1058213964
51,10,21,Ticks_Linear_5,101,9999,9999,9999,1058893940
51,10,21,Ticks_Linear_5,102,9999,9999,9999,1059573848
51,10,21,Ticks_Linear_5,103,9999,9999,9999,1060253804
51,10,21,Ticks_Linear_5,104,9999,9999,9999,1060933700
51,10,21,Ticks_Linear_5,105,9999,9999,9999,1061623864
51,10,21,Ticks_Linear_5,106,9999,9999,9999,1062314076
51,10,21,Ticks_Linear_5,107,9999,9999,9999,1063003196
51,10,21,Ticks_Linear_5,108,9999,9999,9999,1063693428
51,10,21,Ticks_Linear_5,109,9999,9999,9999,1064383568
51,10,21,Ticks_Linear_5,110,9999,9999,9999,1065083988
51,10,21,Ticks_Linear_5,111,9999,9999,9999,1065783364
51,10,21,Ticks_Linear_5,112,9999,9999,9999,1066483784
51,10,21,Ticks_Linear_5,113,9999,9999,9999,1067183208
51,10,21,Ticks_Linear_5,114,9999,9999,9999,1067883632
51,10,21,Ticks_Linear_5,115,9999,9999,9999,1068593272
51,10,21,Ticks_Linear_5,116,9999,9999,9999,1069303880
51,10,21,Ticks_Linear_5,117,9999,9999,9999,1070013556
51,10,21,Ticks_Linear_5,118,9999,9999,9999,1070723192
51,10,21,Ticks_Linear_5,119,9999,9999,9999,1071433796
51,10,21,Ticks_Linear_5,120,9999,9999,9999,1072153692
51,10,21,Ticks_Linear_5,121,9999,9999,9999,1072873560
51,10,21,Ticks_Linear_5,122,9999,9999,9999,1073593452
51,10,21,Ticks_Linear_5,123,9999,9999,9999,1074313272
51,10,21,Ticks_Linear_5,124,9999,9999,9999,1075033164
51,10,21,Ticks_Linear_5,125,9999,9999,9999,1075763320
51,10,21,Ticks_Linear_5,126,9999,9999,9999,1076493396
51,10,21,Ticks_Linear_5,127,9999,9999,9999,1077223524
51,10,21,Ticks_Linear_5,128,9999,9999,9999,1077953600
51,10,21,Ticks_Linear_5,129,9999,9999,9999,1078683752
51,10,21,Ticks_Linear_5,130,9999,9999,9999,1079424088
51,10,21,Ticks_Linear_5,131,9999,9999,9999,1080173640
51,10,21,Ticks_Linear_5,132,9999,9999,9999,1080913976
51,10,21,Ticks_Linear_5,133,9999,9999,9999,1081653340
51,10,21,Ticks_Linear_5,134,9999,9999,9999,1082393676
51,10,21,Ticks_Linear_5,135,9999,9999,9999,1083143228
51,10,21,Ticks_Linear_5,136,9999,9999,9999,1083893824
51,10,21,Ticks_Linear_5,137,9999,9999,9999,1084643428
51,10,21,Ticks_Linear_5,138,9999,9999,9999,1085394024
51,10,21,Ticks_Linear_5,139,9999,9999,9999,1086143572
51,10,21,Ticks_Linear_5,140,9999,9999,9999,1086903376
51,10,21,Ticks_Linear_5,141,9999,9999,9999,1087663184
51,10,21,Ticks_Linear_5,142,9999,9999,9999,1088424040
51,10,21,Ticks_Linear_5,143,9999,9999,9999,1089183848
51,10,21,Ticks_Linear_5,144,9999,9999,9999,1089943660
51,10,21,Ticks_Linear_5,145,9999,9999,9999,1090713656
51,10,21,Ticks_Linear_5,146,9999,9999,9999,1091483720
51,10,21,Ticks_Linear_5,147,9999,9999,9999,1092253788
51,10,21,Ticks_Linear_5,148,9999,9999,9999,1093023864
51,10,21,Ticks_Linear_5,149,9999,9999,9999,1093793856
51,10,21,Ticks_Linear_5,150,9999,9999,9999,1094573128
51,10,21,Ticks_Linear_5,151,9999,9999,9999,1095353456
51,10,21,Ticks_Linear_5,152,9999,9999,9999,1096133708
51,10,21,Ticks_Linear_5,153,9999,9999,9999,1096914016
51,10,21,Ticks_Linear_5,154,9999,9999,9999,1097693244
51,10,21,Ticks_Linear_5,155,9999,9999,9999,1098483780
51,10,21,Ticks_Linear_5,156,9999,9999,9999,1099273312
51,10,21,Ticks_Linear_5,157,9999,9999,9999,1100063824
51,10,21,Ticks_Linear_5,158,9999,9999,9999,1100853364
51,10,21,Ticks_Linear_5,159,9999,9999,9999,1101643872
51,10,21,Ticks_Linear_5,160,9999,9999,9999,1102443600
51,10,21,Ticks_Linear_5,161,9999,9999,9999,1103243324
51,10,21,Ticks_Linear_5,162,9999,9999,9999,1104043120
51,10,21,Ticks_Linear_5,163,9999,9999,9999,1104843892
51,10,21,Ticks_Linear_5,164,9999,9999,9999,1105643612
51,10,21,Ticks_Linear_5,165,9999,9999,9999,1106453620
51,10,21,Ticks_Linear_5,166,9999,9999,9999,1107263604
51,10,21,Ticks_Linear_5,167,9999,9999,9999,1108073584
51,10,21,Ticks_Linear_5,168,9999,9999,9999,1108883568
51,10,21,Ticks_Linear_5,169,9999,9999,9999,1109693552
51,11,25,Jits_Pract_5,0,5,56,103,1150644672
51,11,25,Jits_Pract_5,1,5,63,98,1150647620
51,11,25,Jits_Pract_5,2,5,80,127,1150650820
51,11,25,Jits_Pract_5,0,5,56,103,1151145296
51,11,25,Jits_Pract_5,1,5,63,98,1151148392
51,11,25,Jits_Pract_5,2,5,80,127,1151151664
51,11,25,Jits_Pract_5,0,5,56,103,1151645040
51,11,25,Jits_Pract_5,1,5,80,127,1151655236
51,11,25,Jits_Pract_5,2,5,63,98,1151674796
51,11,25,Jits_Pract_5,0,5,63,98,1152094736
51,11,25,Jits_Pract_5,1,5,80,127,1152125384
51,11,25,Jits_Pract_5,2,5,56,103,1152134536
51,11,25,Jits_Pract_5,0,5,80,127,1152654772
51,11,25,Jits_Pract_5,1,5,56,103,1152665044
51,11,25,Jits_Pract_5,2,5,63,98,1152694644
51,11,25,Jits_Pract_5,0,5,63,98,1153145376
51,11,25,Jits_Pract_5,1,5,56,103,1153174980
51,11,25,Jits_Pract_5,2,5,80,127,1153185324
51,11,25,Jits_Pract_5,0,5,56,103,1153594764
51,11,25,Jits_Pract_5,1,5,63,98,1153644820
51,11,25,Jits_Pract_5,2,5,80,127,1153665504
51,11,25,Jits_Pract_5,0,5,80,127,1154094584
51,11,25,Jits_Pract_5,1,5,63,98,1154144564
51,11,25,Jits_Pract_5,2,5,56,103,1154184648
51,11,25,Jits_Pract_5,0,5,56,103,1154595148
51,11,25,Jits_Pract_5,1,5,63,98,1154624824
51,11,25,Jits_Pract_5,2,5,80,127,1154694576
51,11,25,Jits_Pract_5,0,5,56,103,1155095040
51,11,25,Jits_Pract_5,1,5,80,127,1155155280
51,11,25,Jits_Pract_5,2,5,63,98,1155185180
51,11,25,Jits_Pract_5,0,5,56,103,1155604968
51,11,25,Jits_Pract_5,1,5,63,98,1155615240
51,11,25,Jits_Pract_5,2,5,80,127,1155655104
51,11,25,Jits_Pract_5,0,5,63,98,1156095492
51,11,25,Jits_Pract_5,1,5,80,127,1156175364
51,11,25,Jits_Pract_5,2,5,56,103,1156184512
51,11,25,Jits_Pract_5,0,5,63,98,1156645124
51,11,25,Jits_Pract_5,1,5,56,103,1156685208
51,11,25,Jits_Pract_5,2,5,80,127,1156688128
51,11,25,Jits_Pract_5,0,5,56,103,1157104988
51,11,25,Jits_Pract_5,1,5,63,98,1157115332
51,11,25,Jits_Pract_5,2,5,80,127,1157155048
51,11,25,Jits_Pract_5,0,5,56,103,1157594588
51,11,25,Jits_Pract_5,1,5,63,98,1157597580
51,11,25,Jits_Pract_5,2,5,80,127,1157614924
51,11,25,Jits_Pract_5,0,9999,9999,9999,1150892112
51,11,25,Jits_Pract_5,1,9999,9999,9999,1151392884
51,11,25,Jits_Pract_5,2,9999,9999,9999,1151892556
51,11,25,Jits_Pract_5,3,9999,9999,9999,1152392296
51,11,25,Jits_Pract_5,4,9999,9999,9999,1152893000
51,11,25,Jits_Pract_5,5,9999,9999,9999,1153392744
51,11,25,Jits_Pract_5,6,9999,9999,9999,1153892404
51,11,25,Jits_Pract_5,7,9999,9999,9999,1154392144
51,11,25,Jits_Pract_5,8,9999,9999,9999,1154892860
51,11,25,Jits_Pract_5,9,9999,9999,9999,1155392600
51,11,25,Jits_Pract_5,10,9999,9999,9999,1155892340
51,11,25,Jits_Pract_5,11,9999,9999,9999,1156393056
51,11,25,Jits_Pract_5,12,9999,9999,9999,1156892780
51,11,25,Jits_Pract_5,13,9999,9999,9999,1157392508
51,11,25,Jits_Pract_5,14,9999,9999,9999,1157892164
51,12,24,Jits_Pract_8,0,5,56,103,1199447376
51,12,24,Jits_Pract_8,1,5,63,98,1199450548
51,12,24,Jits_Pract_8,2,5,80,127,1199453744
51,12,24,Jits_Pract_8,0,5,56,103,1200247088
51,12,24,Jits_Pract_8,1,5,63,98,1200250336
51,12,24,Jits_Pract_8,2,5,80,127,1200253380
51,12,24,Jits_Pract_8,3,1,48,22,1200401036
51,12,24,Jits_Pract_8,0,5,80,127,1200986540
51,12,24,Jits_Pract_8,1,5,63,98,1201076676
51,12,24,Jits_Pract_8,2,5,56,103,1201086796
51,12,24,Jits_Pract_8,3,1,48,33,1201090436
51,12,24,Jits_Pract_8,0,5,56,103,1201806620
51,12,24,Jits_Pract_8,1,1,48,37,1201814368
51,12,24,Jits_Pract_8,2,5,63,98,1201816880
51,12,24,Jits_Pract_8,3,5,80,127,1201907036
51,12,24,Jits_Pract_8,0,5,63,98,1202576868
51,12,24,Jits_Pract_8,1,1,48,34,1202591668
51,12,24,Jits_Pract_8,2,5,80,127,1202606388
51,12,24,Jits_Pract_8,3,5,56,103,1202637184
51,12,24,Jits_Pract_8,0,1,48,34,1203369468
51,12,24,Jits_Pract_8,1,5,56,103,1203376688
51,12,24,Jits_Pract_8,2,5,80,127,1203476724
51,12,24,Jits_Pract_8,3,5,63,98,1203527144
51,12,24,Jits_Pract_8,0,1,48,32,1204168472
51,12,24,Jits_Pract_8,1,5,56,103,1204177416
51,12,24,Jits_Pract_8,2,5,80,127,1204226300
51,12,24,Jits_Pract_8,3,5,63,98,1204267416
51,12,24,Jits_Pract_8,0,1,48,42,1205001136
51,12,24,Jits_Pract_8,1,5,80,127,1205006640
51,12,24,Jits_Pract_8,2,5,63,98,1205037512
51,12,24,Jits_Pract_8,3,5,56,103,1205107028
51,12,24,Jits_Pract_8,0,1,48,36,1205816568
51,12,24,Jits_Pract_8,1,5,63,98,1205837412
51,12,24,Jits_Pract_8,2,5,56,103,1205866940
51,12,24,Jits_Pract_8,3,5,80,127,1205927312
51,12,24,Jits_Pract_8,0,5,56,103,1206576636
51,12,24,Jits_Pract_8,1,5,80,127,1206579552
51,12,24,Jits_Pract_8,2,1,48,32,1206666664
51,12,24,Jits_Pract_8,3,5,63,98,1206697324
51,12,24,Jits_Pract_8,0,1,48,30,1207384072
51,12,24,Jits_Pract_8,1,5,56,103,1207457228
51,12,24,Jits_Pract_8,2,5,80,127,1207497004
51,12,24,Jits_Pract_8,3,5,63,98,1207507424
51,12,24,Jits_Pract_8,0,5,56,103,1208216916
51,12,24,Jits_Pract_8,1,1,48,27,1208218856
51,12,24,Jits_Pract_8,2,5,80,127,1208237368
51,12,24,Jits_Pract_8,3,5,63,98,1208317244
51,12,24,Jits_Pract_8,0,5,80,127,1209006352
51,12,24,Jits_Pract_8,1,1,48,35,1209055404
51,12,24,Jits_Pract_8,2,5,56,103,1209106692
51,12,24,Jits_Pract_8,3,5,63,98,1209117260
51,12,24,Jits_Pract_8,0,5,63,98,1209776456
51,12,24,Jits_Pract_8,1,5,80,127,1209836872
51,12,24,Jits_Pract_8,2,5,56,103,1209847440
51,12,24,Jits_Pract_8,3,1,48,28,1209865476
51,12,24,Jits_Pract_8,0,5,56,103,1210577332
51,12,24,Jits_Pract_8,1,1,48,34,1210591240
51,12,24,Jits_Pract_8,2,5,63,98,1210646956
51,12,24,Jits_Pract_8,3,5,80,127,1210650316
51,12,24,Jits_Pract_8,0,9999,9999,9999,1199844408
51,12,24,Jits_Pract_8,1,9999,9999,9999,1200644196
51,12,24,Jits_Pract_8,2,9999,9999,9999,1201444940
51,12,24,Jits_Pract_8,3,9999,9999,9999,1202244708
51,12,24,Jits_Pract_8,4,9999,9999,9999,1203044400
51,12,24,Jits_Pract_8,5,9999,9999,9999,1203844160
51,12,24,Jits_Pract_8,6,9999,9999,9999,1204644960
51,12,24,Jits_Pract_8,7,9999,9999,9999,1205444716
51,12,24,Jits_Pract_8,8,9999,9999,9999,1206244404
51,12,24,Jits_Pract_8,9,9999,9999,9999,1207044164
51,12,24,Jits_Pract_8,10,9999,9999,9999,1207844916
51,12,24,Jits_Pract_8,11,9999,9999,9999,1208644672
51,12,24,Jits_Pract_8,12,9999,9999,9999,1209444448
51,12,24,Jits_Pract_8,13,9999,9999,9999,1210244216
51,12,24,Jits_Pract_8,14,9999,9999,9999,1211044932
51,13,25,Jits_Pract_5,0,5,56,103,1217993168
51,13,25,Jits_Pract_5,1,5,63,98,1217996268
51,13,25,Jits_Pract_5,2,5,80,127,1217999388
51,13,25,Jits_Pract_5,0,5,56,103,1218492820
51,13,25,Jits_Pract_5,1,5,63,98,1218495992
51,13,25,Jits_Pract_5,2,5,80,127,1218499040
51,13,25,Jits_Pract_5,0,5,56,103,1218992632
51,13,25,Jits_Pract_5,1,5,80,127,1219002828
51,13,25,Jits_Pract_5,2,5,63,98,1219023212
51,13,25,Jits_Pract_5,3,1,48,35,1219061496
51,13,25,Jits_Pract_5,0,5,63,98,1219443040
51,13,25,Jits_Pract_5,1,5,80,127,1219472864
51,13,25,Jits_Pract_5,2,5,56,103,1219483136
51,13,25,Jits_Pract_5,3,1,48,40,1219525740
51,13,25,Jits_Pract_5,0,1,48,40,1219980540
51,13,25,Jits_Pract_5,1,5,80,127,1220003036
51,13,25,Jits_Pract_5,2,5,56,103,1220013384
51,13,25,Jits_Pract_5,3,5,63,98,1220043204
51,13,25,Jits_Pract_5,0,5,63,98,1220492624
51,13,25,Jits_Pract_5,1,1,48,38,1220523496
51,13,25,Jits_Pract_5,2,5,56,103,1220524836
51,13,25,Jits_Pract_5,3,5,80,127,1220532640
51,13,25,Jits_Pract_5,0,5,56,103,1220943172
51,13,25,Jits_Pract_5,1,5,63,98,1220993376
51,13,25,Jits_Pract_5,2,1,48,34,1221006080
51,13,25,Jits_Pract_5,3,5,80,127,1221013076
51,13,25,Jits_Pract_5,0,5,80,127,1221442952
51,13,25,Jits_Pract_5,1,1,48,33,1221459552
51,13,25,Jits_Pract_5,2,5,63,98,1221493148
51,13,25,Jits_Pract_5,3,5,56,103,1221533084
51,13,25,Jits_Pract_5,0,5,56,103,1221942512
51,13,25,Jits_Pract_5,1,5,63,98,1221973232
51,13,25,Jits_Pract_5,2,1,48,35,1221988036
51,13,25,Jits_Pract_5,3,5,80,127,1222042980
51,13,25,Jits_Pract_5,0,5,56,103,1222443564
51,13,25,Jits_Pract_5,1,1,48,27,1222489532
51,13,25,Jits_Pract_5,2,5,80,127,1222502972
51,13,25,Jits_Pract_5,3,5,63,98,1222532352
51,13,25,Jits_Pract_5,0,5,56,103,1222953308
51,13,25,Jits_Pract_5,1,5,63,98,1222962456
51,13,25,Jits_Pract_5,2,1,48,32,1222996140
51,13,25,Jits_Pract_5,3,5,80,127,1223002460
51,13,25,Jits_Pract_5,0,5,63,98,1223442896
51,13,25,Jits_Pract_5,1,1,48,33,1223457400
51,13,25,Jits_Pract_5,2,5,80,127,1223522908
51,13,25,Jits_Pract_5,3,5,56,103,1223533032
51,13,25,Jits_Pract_5,0,1,48,32,1223978808
51,13,25,Jits_Pract_5,1,5,63,98,1223992780
51,13,25,Jits_Pract_5,2,5,56,103,1224032720
51,13,25,Jits_Pract_5,3,5,80,127,1224035784
51,13,25,Jits_Pract_5,0,5,56,103,1224452392
51,13,25,Jits_Pract_5,1,5,63,98,1224462960
51,13,25,Jits_Pract_5,2,5,80,127,1224502820
51,13,25,Jits_Pract_5,3,1,48,28,1224507588
51,13,25,Jits_Pract_5,0,5,56,103,1224942952
51,13,25,Jits_Pract_5,1,5,63,98,1224946016
51,13,25,Jits_Pract_5,2,5,80,127,1224962588
51,13,25,Jits_Pract_5,3,1,48,28,1225013876
51,13,25,Jits_Pract_5,0,9999,9999,9999,1218240604
51,13,25,Jits_Pract_5,1,9999,9999,9999,1218740328
51,13,25,Jits_Pract_5,2,9999,9999,9999,1219241028
51,13,25,Jits_Pract_5,3,9999,9999,9999,1219740728
51,13,25,Jits_Pract_5,4,9999,9999,9999,1220240500
51,13,25,Jits_Pract_5,5,9999,9999,9999,1220740196
51,13,25,Jits_Pract_5,6,9999,9999,9999,1221240936
51,13,25,Jits_Pract_5,7,9999,9999,9999,1221740644
51,13,25,Jits_Pract_5,8,9999,9999,9999,1222240348
51,13,25,Jits_Pract_5,9,9999,9999,9999,1222741104
51,13,25,Jits_Pract_5,10,9999,9999,9999,1223240808
51,13,25,Jits_Pract_5,11,9999,9999,9999,1223740512
51,13,25,Jits_Pract_5,12,9999,9999,9999,1224240200
51,13,25,Jits_Pract_5,13,9999,9999,9999,1224740936
51,13,25,Jits_Pract_5,14,9999,9999,9999,1225240628
51,14,15,Jits_Phase_8,0,5,56,103,1255548292
51,14,15,Jits_Phase_8,1,5,63,98,1255551544
51,14,15,Jits_Phase_8,2,5,80,127,1255554440
51,14,15,Jits_Phase_8,0,5,56,103,1256348236
51,14,15,Jits_Phase_8,1,5,63,98,1256351412
51,14,15,Jits_Phase_8,2,5,80,127,1256354308
51,14,15,Jits_Phase_8,3,1,48,34,1256540844
51,14,15,Jits_Phase_8,0,5,80,127,1257088220
51,14,15,Jits_Phase_8,1,5,63,98,1257177456
51,14,15,Jits_Phase_8,2,5,56,103,1257187652
51,14,15,Jits_Phase_8,3,1,48,32,1257198140
51,14,15,Jits_Phase_8,0,5,56,103,1257907696
51,14,15,Jits_Phase_8,1,5,63,98,1257917968
51,14,15,Jits_Phase_8,2,1,48,27,1257997304
51,14,15,Jits_Phase_8,3,5,80,127,1258008040
51,14,15,Jits_Phase_8,0,5,63,98,1258677576
51,14,15,Jits_Phase_8,1,5,80,127,1258708376
51,14,15,Jits_Phase_8,2,5,56,103,1258738224
51,14,15,Jits_Phase_8,3,1,48,32,1258757828
51,14,15,Jits_Phase_8,0,5,56,103,1259478376
51,14,15,Jits_Phase_8,1,1,48,32,1259485236
51,14,15,Jits_Phase_8,2,5,80,127,1259577672
51,14,15,Jits_Phase_8,3,5,63,98,1259628004
51,14,15,Jits_Phase_8,0,5,56,103,1260278252
51,14,15,Jits_Phase_8,1,5,80,127,1260328156
51,14,15,Jits_Phase_8,2,1,48,35,1260340864
51,14,15,Jits_Phase_8,3,5,63,98,1260368388
51,14,15,Jits_Phase_8,0,5,80,127,1261107692
51,14,15,Jits_Phase_8,1,1,48,33,1261122944
51,14,15,Jits_Phase_8,2,5,63,98,1261138184
51,14,15,Jits_Phase_8,3,5,56,103,1261207864
51,14,15,Jits_Phase_8,0,1,48,35,1261919192
51,14,15,Jits_Phase_8,1,5,63,98,1261938024
51,14,15,Jits_Phase_8,2,5,56,103,1261967776
51,14,15,Jits_Phase_8,3,5,80,127,1262028076
51,14,15,Jits_Phase_8,0,5,56,103,1262678300
51,14,15,Jits_Phase_8,1,5,80,127,1262681300
51,14,15,Jits_Phase_8,2,1,48,26,1262725488
51,14,15,Jits_Phase_8,3,5,63,98,1262798248
51,14,15,Jits_Phase_8,0,1,48,32,1263509176
51,14,15,Jits_Phase_8,1,5,56,103,1263558052
51,14,15,Jits_Phase_8,2,5,80,127,1263598092
51,14,15,Jits_Phase_8,3,5,63,98,1263608196
51,14,15,Jits_Phase_8,0,5,56,103,1264317892
51,14,15,Jits_Phase_8,1,5,80,127,1264338276
51,14,15,Jits_Phase_8,2,1,48,34,1264339244
51,14,15,Jits_Phase_8,3,5,63,98,1264418088
51,14,15,Jits_Phase_8,0,5,80,127,1265108300
51,14,15,Jits_Phase_8,1,1,48,32,1265194748
51,14,15,Jits_Phase_8,2,5,56,103,1265207820
51,14,15,Jits_Phase_8,3,5,63,98,1265217940
51,14,15,Jits_Phase_8,0,5,63,98,1265878484
51,14,15,Jits_Phase_8,1,5,80,127,1265937852
51,14,15,Jits_Phase_8,2,5,56,103,1265948124
51,14,15,Jits_Phase_8,3,1,48,34,1266016352
51,14,15,Jits_Phase_8,0,5,56,103,1266678112
51,14,15,Jits_Phase_8,1,1,48,28,1266689400
51,14,15,Jits_Phase_8,2,5,63,98,1266748008
51,14,15,Jits_Phase_8,3,5,80,127,1266751224
51,14,15,Jits_Phase_8,0,1,48,30,1267474084
51,14,15,Jits_Phase_8,1,5,63,98,1267507760
51,14,15,Jits_Phase_8,2,5,56,103,1267558036
51,14,15,Jits_Phase_8,3,5,80,127,1267561176
51,14,15,Jits_Phase_8,0,5,56,103,1268268480
51,14,15,Jits_Phase_8,1,5,80,127,1268271400
51,14,15,Jits_Phase_8,2,1,48,32,1268326368
51,14,15,Jits_Phase_8,3,5,63,98,1268357484
51,14,15,Jits_Phase_8,0,5,63,98,1269108172
51,14,15,Jits_Phase_8,1,1,48,36,1269112412
51,14,15,Jits_Phase_8,2,5,56,103,1269198300
51,14,15,Jits_Phase_8,3,5,80,127,1269227836
51,14,15,Jits_Phase_8,0,1,48,38,1269883768
51,14,15,Jits_Phase_8,1,5,56,103,1269897740
51,14,15,Jits_Phase_8,2,5,63,98,1269998076
51,14,15,Jits_Phase_8,3,5,80,127,1270027676
51,14,15,Jits_Phase_8,0,1,48,38,1270707820
51,14,15,Jits_Phase_8,1,5,63,98,1270717660
51,14,15,Jits_Phase_8,2,5,56,103,1270728004
51,14,15,Jits_Phase_8,3,5,80,127,1270818292
51,14,15,Jits_Phase_8,0,1,48,29,1271512144
51,14,15,Jits_Phase_8,1,5,63,98,1271537972
51,14,15,Jits_Phase_8,2,5,56,103,1271617900
51,14,15,Jits_Phase_8,3,5,80,127,1271620892
51,14,15,Jits_Phase_8,0,5,80,127,1272297804
51,14,15,Jits_Phase_8,1,1,48,29,1272308564
51,14,15,Jits_Phase_8,2,5,63,98,1272318180
51,14,15,Jits_Phase_8,3,5,56,103,1272377896
51,14,15,Jits_Phase_8,0,1,48,34,1273093636
51,14,15,Jits_Phase_8,1,5,56,103,1273137648
51,14,15,Jits_Phase_8,2,5,63,98,1273157960
51,14,15,Jits_Phase_8,3,5,80,127,1273161248
51,14,15,Jits_Phase_8,0,1,48,36,1273865136
51,14,15,Jits_Phase_8,1,5,63,98,1273877912
51,14,15,Jits_Phase_8,2,5,80,127,1273958140
51,14,15,Jits_Phase_8,3,5,56,103,1273967964
51,14,15,Jits_Phase_8,0,1,48,38,1274668500
51,14,15,Jits_Phase_8,1,5,63,98,1274698044
51,14,15,Jits_Phase_8,2,5,56,103,1274717684
51,14,15,Jits_Phase_8,3,5,80,127,1274767720
51,14,15,Jits_Phase_8,0,1,48,32,1275454912
51,14,15,Jits_Phase_8,1,5,80,127,1275497804
51,14,15,Jits_Phase_8,2,5,63,98,1275537892
51,14,15,Jits_Phase_8,3,5,56,103,1275558184
51,14,15,Jits_Phase_8,0,1,48,31,1276261716
51,14,15,Jits_Phase_8,1,5,56,103,1276337716
51,14,15,Jits_Phase_8,2,5,63,98,1276347616
51,14,15,Jits_Phase_8,3,5,80,127,1276368208
51,14,15,Jits_Phase_8,0,5,56,103,1277067804
51,14,15,Jits_Phase_8,1,1,48,28,1277077076
51,14,15,Jits_Phase_8,2,5,63,98,1277157712
51,14,15,Jits_Phase_8,3,5,80,127,1277218084
51,14,15,Jits_Phase_8,0,5,80,127,1277898048
51,14,15,Jits_Phase_8,1,5,56,103,1277908616
51,14,15,Jits_Phase_8,2,1,48,33,1277946456
51,14,15,Jits_Phase_8,3,5,63,98,1277977944
51,14,15,Jits_Phase_8,0,5,63,98,1278727668
51,14,15,Jits_Phase_8,1,1,48,33,1278740828
51,14,15,Jits_Phase_8,2,5,80,127,1278817792
51,14,15,Jits_Phase_8,3,5,56,103,1278828064
51,14,15,Jits_Phase_8,0,5,63,98,1279457808
51,14,15,Jits_Phase_8,1,5,80,127,1279507884
51,14,15,Jits_Phase_8,2,1,48,29,1279558352
51,14,15,Jits_Phase_8,3,5,56,103,1279568116
51,14,15,Jits_Phase_8,0,5,56,103,1280277892
51,14,15,Jits_Phase_8,1,1,48,31,1280293896
51,14,15,Jits_Phase_8,2,5,80,127,1280328012
51,14,15,Jits_Phase_8,3,5,63,98,1280347500
51,14,15,Jits_Phase_8,0,1,48,32,1281055292
51,14,15,Jits_Phase_8,1,5,56,103,1281058024
51,14,15,Jits_Phase_8,2,5,80,127,1281117592
51,14,15,Jits_Phase_8,3,5,63,98,1281188304
51,14,15,Jits_Phase_8,0,1,48,28,1281865680
51,14,15,Jits_Phase_8,1,5,56,103,1281868264
51,14,15,Jits_Phase_8,2,5,80,127,1281897796
51,14,15,Jits_Phase_8,3,5,63,98,1281927692
51,14,15,Jits_Phase_8,0,1,48,31,1282664688
51,14,15,Jits_Phase_8,1,5,56,103,1282707804
51,14,15,Jits_Phase_8,2,5,80,127,1282728632
51,14,15,Jits_Phase_8,3,5,63,98,1282787812
51,14,15,Jits_Phase_8,0,1,48,26,1283511344
51,14,15,Jits_Phase_8,1,5,80,127,1283587592
51,14,15,Jits_Phase_8,2,5,56,103,1283597712
51,14,15,Jits_Phase_8,3,5,63,98,1283607984
51,14,15,Jits_Phase_8,0,5,56,103,1284348700
51,14,15,Jits_Phase_8,1,1,48,36,1284369508
51,14,15,Jits_Phase_8,2,5,80,127,1284388188
51,14,15,Jits_Phase_8,3,5,63,98,1284417788
51,14,15,Jits_Phase_8,0,5,56,103,1285118436
51,14,15,Jits_Phase_8,1,1,48,33,1285125316
51,14,15,Jits_Phase_8,2,5,63,98,1285147884
51,14,15,Jits_Phase_8,3,5,80,127,1285187896
51,14,15,Jits_Phase_8,0,5,80,127,1285867940
51,14,15,Jits_Phase_8,1,1,48,36,1285878856
51,14,15,Jits_Phase_8,2,5,63,98,1285917988
51,14,15,Jits_Phase_8,3,5,56,103,1285937620
51,14,15,Jits_Phase_8,0,1,48,30,1286675376
51,14,15,Jits_Phase_8,1,5,56,103,1286698416
51,14,15,Jits_Phase_8,2,5,80,127,1286767948
51,14,15,Jits_Phase_8,3,5,63,98,1286828396
51,14,15,Jits_Phase_8,0,5,80,127,1287498032
51,14,15,Jits_Phase_8,1,1,48,30,1287511036
51,14,15,Jits_Phase_8,2,5,63,98,1287588232
51,14,15,Jits_Phase_8,3,5,56,103,1287608152
51,14,15,Jits_Phase_8,0,5,63,98,1288318556
51,14,15,Jits_Phase_8,1,5,56,103,1288337672
51,14,15,Jits_Phase_8,2,1,48,34,1288364004
51,14,15,Jits_Phase_8,3,5,80,127,1288377676
51,14,15,Jits_Phase_8,0,5,80,127,1289078308
51,14,15,Jits_Phase_8,1,5,63,98,1289097496
51,14,15,Jits_Phase_8,2,1,48,36,1289149984
51,14,15,Jits_Phase_8,3,5,56,103,1289177432
51,14,15,Jits_Phase_8,0,5,63,98,1289867592
51,14,15,Jits_Phase_8,1,1,48,29,1289918060
51,14,15,Jits_Phase_8,2,5,56,103,1289978416
51,14,15,Jits_Phase_8,3,5,80,127,1289981484
51,14,15,Jits_Phase_8,0,1,48,33,1290683176
51,14,15,Jits_Phase_8,1,5,63,98,1290687932
51,14,15,Jits_Phase_8,2,5,56,103,1290698124
51,14,15,Jits_Phase_8,3,5,80,127,1290701192
51,14,15,Jits_Phase_8,0,1,48,35,1291426512
51,14,15,Jits_Phase_8,1,5,56,103,1291468192
51,14,15,Jits_Phase_8,2,5,80,127,1291588080
51,14,15,Jits_Phase_8,3,5,63,98,1291627868
51,14,15,Jits_Phase_8,0,1,48,27,1292221920
51,14,15,Jits_Phase_8,1,5,56,103,1292288356
51,14,15,Jits_Phase_8,2,5,80,127,1292368508
51,14,15,Jits_Phase_8,3,5,63,98,1292387624
51,14,15,Jits_Phase_8,0,5,56,103,1293088268
51,14,15,Jits_Phase_8,1,1,48,29,1293139416
51,14,15,Jits_Phase_8,2,5,63,98,1293197652
51,14,15,Jits_Phase_8,3,5,80,127,1293200868
51,14,15,Jits_Phase_8,0,5,56,103,1293927820
51,14,15,Jits_Phase_8,1,1,48,32,1293955376
51,14,15,Jits_Phase_8,2,5,80,127,1293957416
51,14,15,Jits_Phase_8,3,5,63,98,1293977948
51,14,15,Jits_Phase_8,0,5,63,98,1294718376
51,14,15,Jits_Phase_8,1,5,56,103,1294727524
51,14,15,Jits_Phase_8,2,5,80,127,1294737644
51,14,15,Jits_Phase_8,3,1,48,27,1294764952
51,14,15,Jits_Phase_8,0,5,80,127,1295507868
51,14,15,Jits_Phase_8,1,5,56,103,1295558292
51,14,15,Jits_Phase_8,2,1,48,28,1295562088
51,14,15,Jits_Phase_8,3,5,63,98,1295597952
51,14,15,Jits_Phase_8,0,5,80,127,1296328016
51,14,15,Jits_Phase_8,1,5,63,98,1296347580
51,14,15,Jits_Phase_8,2,1,48,31,1296370804
51,14,15,Jits_Phase_8,3,5,56,103,1296397576
51,14,15,Jits_Phase_8,0,1,48,25,1297124824
51,14,15,Jits_Phase_8,1,5,80,127,1297138120
51,14,15,Jits_Phase_8,2,5,56,103,1297167720
51,14,15,Jits_Phase_8,3,5,63,98,1297238432
51,14,15,Jits_Phase_8,0,1,48,29,1297970372
51,14,15,Jits_Phase_8,1,5,56,103,1297988224
51,14,15,Jits_Phase_8,2,5,80,127,1297998420
51,14,15,Jits_Phase_8,3,5,63,98,1298038284
51,14,15,Jits_Phase_8,0,5,56,103,1298697568
51,14,15,Jits_Phase_8,1,5,63,98,1298718176
51,14,15,Jits_Phase_8,2,1,48,33,1298772384
51,14,15,Jits_Phase_8,3,5,80,127,1298787552
51,14,15,Jits_Phase_8,0,1,48,30,1299515664
51,14,15,Jits_Phase_8,1,5,63,98,1299517776
51,14,15,Jits_Phase_8,2,5,80,127,1299578168
51,14,15,Jits_Phase_8,3,5,56,103,1299597804
51,14,15,Jits_Phase_8,0,5,80,127,1300308472
51,14,15,Jits_Phase_8,1,5,56,103,1300338076
51,14,15,Jits_Phase_8,2,1,48,31,1300360144
51,14,15,Jits_Phase_8,3,5,63,98,1300367592
51,14,15,Jits_Phase_8,0,1,48,34,1301078244
51,14,15,Jits_Phase_8,1,5,56,103,1301108160
51,14,15,Jits_Phase_8,2,5,63,98,1301167356
51,14,15,Jits_Phase_8,3,5,80,127,1301227828
51,14,15,Jits_Phase_8,0,1,48,22,1301865644
51,14,15,Jits_Phase_8,1,5,80,127,1301928296
51,14,15,Jits_Phase_8,2,5,56,103,1301947632
51,14,15,Jits_Phase_8,3,5,63,98,1302018296
51,14,15,Jits_Phase_8,0,1,48,29,1302695052
51,14,15,Jits_Phase_8,1,5,80,127,1302727976
51,14,15,Jits_Phase_8,2,5,63,98,1302747612
51,14,15,Jits_Phase_8,3,5,56,103,1302778212
51,14,15,Jits_Phase_8,0,1,48,27,1303489796
51,14,15,Jits_Phase_8,1,5,80,127,1303517692
51,14,15,Jits_Phase_8,2,5,63,98,1303538028
51,14,15,Jits_Phase_8,3,5,56,103,1303597352
51,14,15,Jits_Phase_8,0,1,48,27,1304287904
51,14,15,Jits_Phase_8,1,5,80,127,1304318444
51,14,15,Jits_Phase_8,2,5,56,103,1304417632
51,14,15,Jits_Phase_8,3,5,63,98,1304448428
51,14,15,Jits_Phase_8,0,5,63,98,1305107948
51,14,15,Jits_Phase_8,1,5,80,127,1305158076
51,14,15,Jits_Phase_8,2,1,48,29,1305163440
51,14,15,Jits_Phase_8,3,5,56,103,1305177408
51,14,15,Jits_Phase_8,0,5,80,127,1305947636
51,14,15,Jits_Phase_8,1,1,48,18,1305976376
51,14,15,Jits_Phase_8,2,5,56,103,1305978120
51,14,15,Jits_Phase_8,3,5,63,98,1305981044
51,14,15,Jits_Phase_8,0,1,48,17,1306771040
51,14,15,Jits_Phase_8,1,5,63,98,1306797368
51,14,15,Jits_Phase_8,2,5,56,103,1306838352
51,14,15,Jits_Phase_8,3,5,80,127,1306857864
51,14,15,Jits_Phase_8,0,1,48,27,1307542632
51,14,15,Jits_Phase_8,1,5,80,127,1307558244
51,14,15,Jits_Phase_8,2,5,63,98,1307638144
51,14,15,Jits_Phase_8,3,5,56,103,1307677992
51,14,15,Jits_Phase_8,0,5,63,98,1308377500
51,14,15,Jits_Phase_8,1,1,48,27,1308423492
51,14,15,Jits_Phase_8,2,5,80,127,1308458284
51,14,15,Jits_Phase_8,3,5,56,103,1308477920
51,14,15,Jits_Phase_8,0,5,56,103,1309218044
51,14,15,Jits_Phase_8,1,5,63,98,1309228612
51,14,15,Jits_Phase_8,2,1,48,31,1309265736
51,14,15,Jits_Phase_8,3,5,80,127,1309268468
51,14,15,Jits_Phase_8,0,5,56,103,1309938100
51,14,15,Jits_Phase_8,1,5,80,127,1309941020
51,14,15,Jits_Phase_8,2,1,48,31,1310033064
51,14,15,Jits_Phase_8,3,5,63,98,1310078268
51,14,15,Jits_Phase_8,0,5,56,103,1310727528
51,14,15,Jits_Phase_8,1,1,48,26,1310761512
51,14,15,Jits_Phase_8,2,5,63,98,1310817728
51,14,15,Jits_Phase_8,3,5,80,127,1310888440
51,14,15,Jits_Phase_8,0,1,48,28,1311602404
51,14,15,Jits_Phase_8,1,5,63,98,1311608204
51,14,15,Jits_Phase_8,2,5,80,127,1311611492
51,14,15,Jits_Phase_8,3,5,56,103,1311667768
51,14,15,Jits_Phase_8,0,1,48,28,1312427116
51,14,15,Jits_Phase_8,1,5,80,127,1312448112
51,14,15,Jits_Phase_8,2,5,56,103,1312468272
51,14,15,Jits_Phase_8,3,5,63,98,1312477496
51,14,15,Jits_Phase_8,0,5,56,103,1313157456
51,14,15,Jits_Phase_8,1,5,63,98,1313167948
51,14,15,Jits_Phase_8,2,5,80,127,1313238304
51,14,15,Jits_Phase_8,3,1,48,32,1313285952
51,14,15,Jits_Phase_8,0,5,80,127,1313958196
51,14,15,Jits_Phase_8,1,5,56,103,1314008400
51,14,15,Jits_Phase_8,2,1,48,27,1314011668
51,14,15,Jits_Phase_8,3,5,63,98,1314057644
51,14,15,Jits_Phase_8,0,1,48,27,1314804108
51,14,15,Jits_Phase_8,1,5,56,103,1314838004
51,14,15,Jits_Phase_8,2,5,63,98,1314848052
51,14,15,Jits_Phase_8,3,5,80,127,1314887988
51,14,15,Jits_Phase_8,0,5,56,103,1315578288
51,14,15,Jits_Phase_8,1,1,48,26,1315612720
51,14,15,Jits_Phase_8,2,5,63,98,1315618072
51,14,15,Jits_Phase_8,3,5,80,127,1315668272
51,14,15,Jits_Phase_8,0,5,80,127,1316337904
51,14,15,Jits_Phase_8,1,1,48,22,1316383348
51,14,15,Jits_Phase_8,2,5,56,103,1316388100
51,14,15,Jits_Phase_8,3,5,63,98,1316407960
51,14,15,Jits_Phase_8,0,1,48,29,1317126104
51,14,15,Jits_Phase_8,1,5,80,127,1317148004
51,14,15,Jits_Phase_8,2,5,63,98,1317208396
51,14,15,Jits_Phase_8,3,5,56,103,1317288248
51,14,15,Jits_Phase_8,0,5,80,127,1317928288
51,14,15,Jits_Phase_8,1,5,56,103,1317968228
51,14,15,Jits_Phase_8,2,5,63,98,1317987860
51,14,15,Jits_Phase_8,3,1,48,30,1318016756
51,14,15,Jits_Phase_8,0,5,56,103,1318778104
51,14,15,Jits_Phase_8,1,5,80,127,1318787476
51,14,15,Jits_Phase_8,2,5,63,98,1318828312
51,14,15,Jits_Phase_8,3,1,48,28,1318860120
51,14,15,Jits_Phase_8,0,1,48,29,1319561124
51,14,15,Jits_Phase_8,1,5,56,103,1319647916
51,14,15,Jits_Phase_8,2,5,63,98,1319687712
51,14,15,Jits_Phase_8,3,5,80,127,1319691004
51,14,15,Jits_Phase_8,0,5,63,98,1320318292
51,14,15,Jits_Phase_8,1,5,80,127,1320358156
51,14,15,Jits_Phase_8,2,5,56,103,1320427784
51,14,15,Jits_Phase_8,3,1,48,33,1320439296
51,14,15,Jits_Phase_8,0,5,63,98,1321088232
51,14,15,Jits_Phase_8,1,5,56,103,1321168100
51,14,15,Jits_Phase_8,2,1,48,30,1321194836
51,14,15,Jits_Phase_8,3,5,80,127,1321227908
51,14,15,Jits_Phase_8,0,1,48,29,1321891544
51,14,15,Jits_Phase_8,1,5,80,127,1321898540
51,14,15,Jits_Phase_8,2,5,63,98,1321947544
51,14,15,Jits_Phase_8,3,5,56,103,1321978440
51,14,15,Jits_Phase_8,0,5,56,103,1322687736
51,14,15,Jits_Phase_8,1,1,48,30,1322697604
51,14,15,Jits_Phase_8,2,5,63,98,1322738036
51,14,15,Jits_Phase_8,3,5,80,127,1322748600
51,14,15,Jits_Phase_8,0,1,48,31,1323475768
51,14,15,Jits_Phase_8,1,5,56,103,1323497784
51,14,15,Jits_Phase_8,2,5,63,98,1323608580
51,14,15,Jits_Phase_8,3,5,80,127,1323627844
51,14,15,Jits_Phase_8,0,1,48,30,1324295036
51,14,15,Jits_Phase_8,1,5,63,98,1324297844
51,14,15,Jits_Phase_8,2,5,80,127,1324347824
51,14,15,Jits_Phase_8,3,5,56,103,1324437864
51,14,15,Jits_Phase_8,0,5,63,98,1325088084
51,14,15,Jits_Phase_8,1,1,48,31,1325099152
51,14,15,Jits_Phase_8,2,5,80,127,1325117828
51,14,15,Jits_Phase_8,3,5,56,103,1325207872
51,14,15,Jits_Phase_8,0,5,63,98,1325887912
51,14,15,Jits_Phase_8,1,5,56,103,1325898184
51,14,15,Jits_Phase_8,2,1,48,29,1325936148
51,14,15,Jits_Phase_8,3,5,80,127,1325997596
51,14,15,Jits_Phase_8,0,1,48,31,1326685988
51,14,15,Jits_Phase_8,1,5,63,98,1326787816
51,14,15,Jits_Phase_8,2,5,80,127,1326817788
51,14,15,Jits_Phase_8,3,5,56,103,1326848388
51,14,15,Jits_Phase_8,0,1,48,28,1327504844
51,14,15,Jits_Phase_8,1,5,80,127,1327608280
51,14,15,Jits_Phase_8,2,5,63,98,1327618552
51,14,15,Jits_Phase_8,3,5,56,103,1327648224
51,14,15,Jits_Phase_8,0,5,80,127,1328307648
51,14,15,Jits_Phase_8,1,5,63,98,1328328108
51,14,15,Jits_Phase_8,2,1,48,32,1328377356
51,14,15,Jits_Phase_8,3,5,56,103,1328378772
51,14,15,Jits_Phase_8,0,1,48,37,1329075152
51,14,15,Jits_Phase_8,1,5,63,98,1329138076
51,14,15,Jits_Phase_8,2,5,80,127,1329197480
51,14,15,Jits_Phase_8,3,5,56,103,1329217864
51,14,15,Jits_Phase_8,0,5,63,98,1329897908
51,14,15,Jits_Phase_8,1,1,48,27,1329928232
51,14,15,Jits_Phase_8,2,5,56,103,1329948104
51,14,15,Jits_Phase_8,3,5,80,127,1329958600
51,14,15,Jits_Phase_8,0,1,48,34,1330710744
51,14,15,Jits_Phase_8,1,5,56,103,1330728448
51,14,15,Jits_Phase_8,2,5,80,127,1330737600
51,14,15,Jits_Phase_8,3,5,63,98,1330837904
51,14,15,Jits_Phase_8,0,1,48,36,1331487596
51,14,15,Jits_Phase_8,1,5,80,127,1331489088
51,14,15,Jits_Phase_8,2,5,63,98,1331498536
51,14,15,Jits_Phase_8,3,5,56,103,1331647984
51,14,15,Jits_Phase_8,0,5,63,98,1332297992
51,14,15,Jits_Phase_8,1,1,48,39,1332329660
51,14,15,Jits_Phase_8,2,5,80,127,1332338000
51,14,15,Jits_Phase_8,3,5,56,103,1332417868
51,14,15,Jits_Phase_8,0,5,56,103,1333047700
51,14,15,Jits_Phase_8,1,1,48,36,1333082212
51,14,15,Jits_Phase_8,2,5,80,127,1333147944
51,14,15,Jits_Phase_8,3,5,63,98,1333167728
51,14,15,Jits_Phase_8,0,1,48,33,1333838912
51,14,15,Jits_Phase_8,1,5,80,127,1333867852
51,14,15,Jits_Phase_8,2,5,56,103,1333878348
51,14,15,Jits_Phase_8,3,5,63,98,1333968388
51,14,15,Jits_Phase_8,0,1,48,31,1334611540
51,14,15,Jits_Phase_8,1,5,56,103,1334667612
51,14,15,Jits_Phase_8,2,5,63,98,1334688072
51,14,15,Jits_Phase_8,3,5,80,127,1334767948
51,14,15,Jits_Phase_8,0,5,63,98,1335418228
51,14,15,Jits_Phase_8,1,1,48,29,1335429816
51,14,15,Jits_Phase_8,2,5,56,103,1335508504
51,14,15,Jits_Phase_8,3,5,80,127,1335511424
51,14,15,Jits_Phase_8,0,1,48,36,1336241012
51,14,15,Jits_Phase_8,1,5,56,103,1336247636
51,14,15,Jits_Phase_8,2,5,80,127,1336308200
51,14,15,Jits_Phase_8,3,5,63,98,1336318472
51,14,15,Jits_Phase_8,0,1,48,36,1337033496
51,14,15,Jits_Phase_8,1,5,80,127,1337097468
51,14,15,Jits_Phase_8,2,5,56,103,1337107812
51,14,15,Jits_Phase_8,3,5,63,98,1337110876
51,14,15,Jits_Phase_8,0,5,56,103,1337858336
51,14,15,Jits_Phase_8,1,5,80,127,1337867488
51,14,15,Jits_Phase_8,2,1,48,38,1337888392
51,14,15,Jits_Phase_8,3,5,63,98,1337889728
51,14,15,Jits_Phase_8,0,5,63,98,1338627388
51,14,15,Jits_Phase_8,1,1,48,29,1338685660
51,14,15,Jits_Phase_8,2,5,80,127,1338687776
51,14,15,Jits_Phase_8,3,5,56,103,1338738052
51,14,15,Jits_Phase_8,0,1,48,35,1339485856
51,14,15,Jits_Phase_8,1,5,63,98,1339508276
51,14,15,Jits_Phase_8,2,5,56,103,1339518472
51,14,15,Jits_Phase_8,3,5,80,127,1339567552
51,14,15,Jits_Phase_8,0,5,63,98,1340207432
51,14,15,Jits_Phase_8,1,5,80,127,1340227968
51,14,15,Jits_Phase_8,2,5,56,103,1340238164
51,14,15,Jits_Phase_8,3,1,48,35,1340246460
51,14,15,Jits_Phase_8,0,5,63,98,1341008300
51,14,15,Jits_Phase_8,1,5,80,127,1341011592
51,14,15,Jits_Phase_8,2,1,48,32,1341032320
51,14,15,Jits_Phase_8,3,5,56,103,1341048160
51,14,15,Jits_Phase_8,0,1,48,33,1341803884
51,14,15,Jits_Phase_8,1,5,63,98,1341877644
51,14,15,Jits_Phase_8,2,5,80,127,1341908276
51,14,15,Jits_Phase_8,3,5,56,103,1341917648
51,14,15,Jits_Phase_8,0,1,48,43,1342610468
51,14,15,Jits_Phase_8,1,5,56,103,1342628324
51,14,15,Jits_Phase_8,2,5,80,127,1342657852
51,14,15,Jits_Phase_8,3,5,63,98,1342687676
51,14,15,Jits_Phase_8,0,1,48,38,1343406928
51,14,15,Jits_Phase_8,1,5,63,98,1343528260
51,14,15,Jits_Phase_8,2,5,56,103,1343568116
51,14,15,Jits_Phase_8,3,5,80,127,1343571264
51,14,15,Jits_Phase_8,0,5,80,127,1344227720
51,14,15,Jits_Phase_8,1,1,48,39,1344292120
51,14,15,Jits_Phase_8,2,5,56,103,1344307584
51,14,15,Jits_Phase_8,3,5,63,98,1344357636
51,14,15,Jits_Phase_8,0,5,80,127,1345008084
51,14,15,Jits_Phase_8,1,5,56,103,1345027424
51,14,15,Jits_Phase_8,2,1,48,31,1345071964
51,14,15,Jits_Phase_8,3,5,63,98,1345117472
51,14,15,Jits_Phase_8,0,5,80,127,1345847636
51,14,15,Jits_Phase_8,1,1,48,39,1345879452
51,14,15,Jits_Phase_8,2,5,63,98,1345887568
51,14,15,Jits_Phase_8,3,5,56,103,1345927432
51,14,15,Jits_Phase_8,0,1,48,37,1346633580
51,14,15,Jits_Phase_8,1,5,63,98,1346657664
51,14,15,Jits_Phase_8,2,5,80,127,1346718280
51,14,15,Jits_Phase_8,3,5,56,103,1346747940
51,14,15,Jits_Phase_8,0,1,48,39,1347423140
51,14,15,Jits_Phase_8,1,5,56,103,1347498396
51,14,15,Jits_Phase_8,2,5,80,127,1347528280
51,14,15,Jits_Phase_8,3,5,63,98,1347618140
51,14,15,Jits_Phase_8,0,5,56,103,1348308348
51,14,15,Jits_Phase_8,1,1,48,31,1348314084
51,14,15,Jits_Phase_8,2,5,80,127,1348418188
51,14,15,Jits_Phase_8,3,5,63,98,1348447564
51,14,15,Jits_Phase_8,0,5,56,103,1349158196
51,14,15,Jits_Phase_8,1,1,48,39,1349160564
51,14,15,Jits_Phase_8,2,5,63,98,1349217608
51,14,15,Jits_Phase_8,3,5,80,127,1349248328
51,14,15,Jits_Phase_8,0,5,56,103,1349928304
51,14,15,Jits_Phase_8,1,1,48,38,1349978476
51,14,15,Jits_Phase_8,2,5,63,98,1349998052
51,14,15,Jits_Phase_8,3,5,80,127,1350018364
51,14,15,Jits_Phase_8,0,5,80,127,1350698324
51,14,15,Jits_Phase_8,1,5,63,98,1350717668
51,14,15,Jits_Phase_8,2,1,48,37,1350761088
51,14,15,Jits_Phase_8,3,5,56,103,1350767936
51,14,15,Jits_Phase_8,0,5,63,98,1351517724
51,14,15,Jits_Phase_8,1,5,80,127,1351528068
51,14,15,Jits_Phase_8,2,1,48,29,1351558540
51,14,15,Jits_Phase_8,3,5,56,103,1351578040
51,14,15,Jits_Phase_8,0,5,63,98,1352318304
51,14,15,Jits_Phase_8,1,1,48,36,1352359408
51,14,15,Jits_Phase_8,2,5,80,127,1352388052
51,14,15,Jits_Phase_8,3,5,56,103,1352408436
51,14,15,Jits_Phase_8,0,5,63,98,1353147880
51,14,15,Jits_Phase_8,1,1,48,37,1353149912
51,14,15,Jits_Phase_8,2,5,80,127,1353152432
51,14,15,Jits_Phase_8,3,5,56,103,1353218324
51,14,15,Jits_Phase_8,0,5,80,127,1353898328
51,14,15,Jits_Phase_8,1,1,48,34,1353910888
51,14,15,Jits_Phase_8,2,5,56,103,1353918108
51,14,15,Jits_Phase_8,3,5,63,98,1353928008
51,14,15,Jits_Phase_8,0,1,48,39,1354685928
51,14,15,Jits_Phase_8,1,5,56,103,1354717492
51,14,15,Jits_Phase_8,2,5,63,98,1354808016
51,14,15,Jits_Phase_8,3,5,80,127,1354811152
51,14,15,Jits_Phase_8,0,5,80,127,1355487880
51,14,15,Jits_Phase_8,1,5,56,103,1355498000
51,14,15,Jits_Phase_8,2,1,48,38,1355499412
51,14,15,Jits_Phase_8,3,5,63,98,1355518304
51,14,15,Jits_Phase_8,0,1,48,29,1356280044
51,14,15,Jits_Phase_8,1,5,63,98,1356288460
51,14,15,Jits_Phase_8,2,5,80,127,1356347880
51,14,15,Jits_Phase_8,3,5,56,103,1356358076
51,14,15,Jits_Phase_8,0,1,48,33,1357060608
51,14,15,Jits_Phase_8,1,5,63,98,1357157884
51,14,15,Jits_Phase_8,2,5,80,127,1357187324
51,14,15,Jits_Phase_8,3,5,56,103,1357228384
51,14,15,Jits_Phase_8,0,1,48,35,1357921128
51,14,15,Jits_Phase_8,1,5,56,103,1357948208
51,14,15,Jits_Phase_8,2,5,80,127,1357957504
51,14,15,Jits_Phase_8,3,5,63,98,1357997296
51,14,15,Jits_Phase_8,0,5,80,127,1358708036
51,14,15,Jits_Phase_8,1,1,48,37,1358754828
51,14,15,Jits_Phase_8,2,5,56,103,1358788048
51,14,15,Jits_Phase_8,3,5,63,98,1358798244
51,14,15,Jits_Phase_8,0,1,48,36,1359536552
51,14,15,Jits_Phase_8,1,5,80,127,1359558072
51,14,15,Jits_Phase_8,2,5,56,103,1359637880
51,14,15,Jits_Phase_8,3,5,63,98,1359648076
51,14,15,Jits_Phase_8,0,5,80,127,1360397656
51,14,15,Jits_Phase_8,1,1,48,27,1360424520
51,14,15,Jits_Phase_8,2,5,56,103,1360447852
51,14,15,Jits_Phase_8,3,5,63,98,1360498128
51,14,15,Jits_Phase_8,0,1,48,21,1361256276
51,14,15,Jits_Phase_8,1,5,56,103,1361337736
51,14,15,Jits_Phase_8,2,5,63,98,1361340880
51,14,15,Jits_Phase_8,3,5,80,127,1361387948
51,14,15,Jits_Phase_8,0,1,48,28,1362136128
51,14,15,Jits_Phase_8,1,5,56,103,1362157896
51,14,15,Jits_Phase_8,2,5,63,98,1362187872
51,14,15,Jits_Phase_8,3,5,80,127,1362197920
51,14,15,Jits_Phase_8,0,5,63,98,1362867736
51,14,15,Jits_Phase_8,1,1,48,32,1362918084
51,14,15,Jits_Phase_8,2,5,56,103,1362938112
51,14,15,Jits_Phase_8,3,5,80,127,1362988460
51,14,15,Jits_Phase_8,0,1,48,34,1363673600
51,14,15,Jits_Phase_8,1,5,63,98,1363698080
51,14,15,Jits_Phase_8,2,5,56,103,1363708200
51,14,15,Jits_Phase_8,3,5,80,127,1363711416
51,14,15,Jits_Phase_8,0,5,80,127,1364447832
51,14,15,Jits_Phase_8,1,1,48,30,1364452472
51,14,15,Jits_Phase_8,2,5,56,103,1364508016
51,14,15,Jits_Phase_8,3,5,63,98,1364598204
51,14,15,Jits_Phase_8,0,5,80,127,1365248304
51,14,15,Jits_Phase_8,1,1,48,41,1365280940
51,14,15,Jits_Phase_8,2,5,56,103,1365347720
51,14,15,Jits_Phase_8,3,5,63,98,1365387792
51,14,15,Jits_Phase_8,0,5,56,103,1366098260
51,14,15,Jits_Phase_8,1,1,48,41,1366113060
51,14,15,Jits_Phase_8,2,5,63,98,1366117740
51,14,15,Jits_Phase_8,3,5,80,127,1366157604
51,14,15,Jits_Phase_8,0,5,63,98,1366868360
51,14,15,Jits_Phase_8,1,1,48,34,1366877704
51,14,15,Jits_Phase_8,2,5,56,103,1366887916
51,14,15,Jits_Phase_8,3,5,80,127,1366988000
51,14,15,Jits_Phase_8,0,5,63,98,1367657856
51,14,15,Jits_Phase_8,1,1,48,38,1367683968
51,14,15,Jits_Phase_8,2,5,80,127,1367768512
51,14,15,Jits_Phase_8,3,5,56,103,1367798120
51,14,15,Jits_Phase_8,0,5,56,103,1368478068
51,14,15,Jits_Phase_8,1,5,63,98,1368507744
51,14,15,Jits_Phase_8,2,1,48,32,1368546480
51,14,15,Jits_Phase_8,3,5,80,127,1368557812
51,14,15,Jits_Phase_8,0,5,63,98,1369248244
51,14,15,Jits_Phase_8,1,5,56,103,1369277920
51,14,15,Jits_Phase_8,2,5,80,127,1369328068
51,14,15,Jits_Phase_8,3,1,48,37,1369332608
51,14,15,Jits_Phase_8,0,1,48,32,1370052900
51,14,15,Jits_Phase_8,1,5,56,103,1370077732
51,14,15,Jits_Phase_8,2,5,63,98,1370097992
51,14,15,Jits_Phase_8,3,5,80,127,1370177768
51,14,15,Jits_Phase_8,0,5,63,98,1370847524
51,14,15,Jits_Phase_8,1,1,48,40,1370857568
51,14,15,Jits_Phase_8,2,5,56,103,1370908008
51,14,15,Jits_Phase_8,3,5,80,127,1370937684
51,14,15,Jits_Phase_8,0,1,48,35,1371674684
51,14,15,Jits_Phase_8,1,5,56,103,1371688352
51,14,15,Jits_Phase_8,2,5,80,127,1371747696
51,14,15,Jits_Phase_8,3,5,63,98,1371787692
51,14,15,Jits_Phase_8,0,5,63,98,1372467584
51,14,15,Jits_Phase_8,1,1,48,30,1372488088
51,14,15,Jits_Phase_8,2,5,56,103,1372528044
51,14,15,Jits_Phase_8,3,5,80,127,1372597560
51,14,15,Jits_Phase_8,0,1,48,34,1373262432
51,14,15,Jits_Phase_8,1,5,56,103,1373348472
51,14,15,Jits_Phase_8,2,5,63,98,1373357376
51,14,15,Jits_Phase_8,3,5,80,127,1373360672
51,14,15,Jits_Phase_8,0,5,63,98,1374087696
51,14,15,Jits_Phase_8,1,1,48,26,1374129996
51,14,15,Jits_Phase_8,2,5,56,103,1374147848
51,14,15,Jits_Phase_8,3,5,80,127,1374150996
51,14,15,Jits_Phase_8,0,5,63,98,1374867740
51,14,15,Jits_Phase_8,1,5,80,127,1374897640
51,14,15,Jits_Phase_8,2,5,56,103,1374918100
51,14,15,Jits_Phase_8,3,1,48,23,1374932824
51,14,15,Jits_Phase_8,0,5,56,103,1375597964
51,14,15,Jits_Phase_8,1,5,63,98,1375648168
51,14,15,Jits_Phase_8,2,1,48,32,1375704548
51,14,15,Jits_Phase_8,3,5,80,127,1375727980
51,14,15,Jits_Phase_8,0,5,80,127,1376298620
51,14,15,Jits_Phase_8,1,5,63,98,1376338412
51,14,15,Jits_Phase_8,2,5,56,103,1376357748
51,14,15,Jits_Phase_8,3,1,48,38,1376452332
51,14,15,Jits_Phase_8,0,1,48,33,1377089364
51,14,15,Jits_Phase_8,1,5,56,103,1377167760
51,14,15,Jits_Phase_8,2,5,80,127,1377177956
51,14,15,Jits_Phase_8,3,5,63,98,1377197576
51,14,15,Jits_Phase_8,0,1,48,40,1377942164
51,14,15,Jits_Phase_8,1,5,56,103,1377948040
51,14,15,Jits_Phase_8,2,5,63,98,1377998316
51,14,15,Jits_Phase_8,3,5,80,127,1378027940
51,14,15,Jits_Phase_8,0,5,56,103,1378697532
51,14,15,Jits_Phase_8,1,5,63,98,1378708028
51,14,15,Jits_Phase_8,2,5,80,127,1378757932
51,14,15,Jits_Phase_8,3,1,48,35,1378774528
51,14,15,Jits_Phase_8,0,5,56,103,1379488304
51,14,15,Jits_Phase_8,1,1,48,27,1379490924
51,14,15,Jits_Phase_8,2,5,80,127,1379492560
51,14,15,Jits_Phase_8,3,5,63,98,1379647960
51,14,15,Jits_Phase_8,0,5,63,98,1380308516
51,14,15,Jits_Phase_8,1,1,48,39,1380309704
51,14,15,Jits_Phase_8,2,5,56,103,1380377996
51,14,15,Jits_Phase_8,3,5,80,127,1380417844
51,14,15,Jits_Phase_8,0,1,48,33,1381089316
51,14,15,Jits_Phase_8,1,5,63,98,1381148004
51,14,15,Jits_Phase_8,2,5,56,103,1381238420
51,14,15,Jits_Phase_8,3,5,80,127,1381241340
51,14,15,Jits_Phase_8,0,5,56,103,1381928512
51,14,15,Jits_Phase_8,1,1,48,34,1381952156
51,14,15,Jits_Phase_8,2,5,63,98,1382018344
51,14,15,Jits_Phase_8,3,5,80,127,1382027640
51,14,15,Jits_Phase_8,0,5,56,103,1382698464
51,14,15,Jits_Phase_8,1,1,48,31,1382717848
51,14,15,Jits_Phase_8,2,5,63,98,1382747392
51,14,15,Jits_Phase_8,3,5,80,127,1382778188
51,14,15,Jits_Phase_8,0,1,48,35,1383450100
51,14,15,Jits_Phase_8,1,5,63,98,1383577932
51,14,15,Jits_Phase_8,2,5,80,127,1383588348
51,14,15,Jits_Phase_8,3,5,56,103,1383647468
51,14,15,Jits_Phase_8,0,5,63,98,1384297824
51,14,15,Jits_Phase_8,1,1,48,33,1384329860
51,14,15,Jits_Phase_8,2,5,80,127,1384358428
51,14,15,Jits_Phase_8,3,5,56,103,1384398144
51,14,15,Jits_Phase_8,0,1,48,33,1385149468
51,14,15,Jits_Phase_8,1,5,56,103,1385198064
51,14,15,Jits_Phase_8,2,5,80,127,1385218376
51,14,15,Jits_Phase_8,3,5,63,98,1385237864
51,14,15,Jits_Phase_8,0,5,63,98,1385917796
51,14,15,Jits_Phase_8,1,5,56,103,1385938404
51,14,15,Jits_Phase_8,2,5,80,127,1385978144
51,14,15,Jits_Phase_8,3,1,48,35,1385992272
51,14,15,Jits_Phase_8,0,5,63,98,1386727912
51,14,15,Jits_Phase_8,1,1,48,33,1386749168
51,14,15,Jits_Phase_8,2,5,80,127,1386757432
51,14,15,Jits_Phase_8,3,5,56,103,1386777964
51,14,15,Jits_Phase_8,0,5,80,127,1387497848
51,14,15,Jits_Phase_8,1,1,48,29,1387501340
51,14,15,Jits_Phase_8,2,5,56,103,1387548268
51,14,15,Jits_Phase_8,3,5,63,98,1387608416
51,14,15,Jits_Phase_8,0,5,63,98,1388288404
51,14,15,Jits_Phase_8,1,1,48,36,1388332280
51,14,15,Jits_Phase_8,2,5,56,103,1388408124
51,14,15,Jits_Phase_8,3,5,80,127,1388438080
51,14,15,Jits_Phase_8,0,5,80,127,1389128236
51,14,15,Jits_Phase_8,1,1,48,30,1389131280
51,14,15,Jits_Phase_8,2,5,63,98,1389147492
51,14,15,Jits_Phase_8,3,5,56,103,1389218144
51,14,15,Jits_Phase_8,0,1,48,35,1389920032
51,14,15,Jits_Phase_8,1,5,63,98,1389948232
51,14,15,Jits_Phase_8,2,5,56,103,1389957456
51,14,15,Jits_Phase_8,3,5,80,127,1390038352
51,14,15,Jits_Phase_8,0,1,48,30,1390735760
51,14,15,Jits_Phase_8,1,5,56,103,1390808376
51,14,15,Jits_Phase_8,2,5,80,127,1390838064
51,14,15,Jits_Phase_8,3,5,63,98,1390848480
51,14,15,Jits_Phase_8,0,9999,9999,9999,1255945280
51,14,15,Jits_Phase_8,1,9999,9999,9999,1256746100
51,14,15,Jits_Phase_8,2,9999,9999,9999,1257545800
51,14,15,Jits_Phase_8,3,9999,9999,9999,1258345572
51,14,15,Jits_Phase_8,4,9999,9999,9999,1259145340
51,14,15,Jits_Phase_8,5,9999,9999,9999,1259946072
51,14,15,Jits_Phase_8,6,9999,9999,9999,1260745844
51,14,15,Jits_Phase_8,7,9999,9999,9999,1261545564
51,14,15,Jits_Phase_8,8,9999,9999,9999,1262345268
51,14,15,Jits_Phase_8,9,9999,9999,9999,1263146112
51,14,15,Jits_Phase_8,10,9999,9999,9999,1263945816
51,14,15,Jits_Phase_8,11,9999,9999,9999,1264745580
51,14,15,Jits_Phase_8,12,9999,9999,9999,1265545280
51,14,15,Jits_Phase_8,13,9999,9999,9999,1266346096
51,14,15,Jits_Phase_8,14,9999,9999,9999,1267145840
51,14,15,Jits_Phase_8,15,9999,9999,9999,1267945560
51,14,15,Jits_Phase_8,16,9999,9999,9999,1268745304
51,14,15,Jits_Phase_8,17,9999,9999,9999,1269546052
51,14,15,Jits_Phase_8,18,9999,9999,9999,1270345816
51,14,15,Jits_Phase_8,19,9999,9999,9999,1271145576
51,14,15,Jits_Phase_8,20,9999,9999,9999,1271945332
51,14,15,Jits_Phase_8,21,9999,9999,9999,1272746064
51,14,15,Jits_Phase_8,22,9999,9999,9999,1273545828
51,14,15,Jits_Phase_8,23,9999,9999,9999,1274345536
51,14,15,Jits_Phase_8,24,9999,9999,9999,1275145288
51,14,15,Jits_Phase_8,25,9999,9999,9999,1275946092
51,14,15,Jits_Phase_8,26,9999,9999,9999,1276745856
51,14,15,Jits_Phase_8,27,9999,9999,9999,1277545588
51,14,15,Jits_Phase_8,28,9999,9999,9999,1278345288
51,14,15,Jits_Phase_8,29,9999,9999,9999,1279146040
51,14,15,Jits_Phase_8,30,9999,9999,9999,1279925348
51,14,15,Jits_Phase_8,31,9999,9999,9999,1280726080
51,14,15,Jits_Phase_8,32,9999,9999,9999,1281536060
51,14,15,Jits_Phase_8,33,9999,9999,9999,1282346076
51,14,15,Jits_Phase_8,34,9999,9999,9999,1283145824
51,14,15,Jits_Phase_8,35,9999,9999,9999,1283945588
51,14,15,Jits_Phase_8,36,9999,9999,9999,1284745280
51,14,15,Jits_Phase_8,37,9999,9999,9999,1285546096
51,14,15,Jits_Phase_8,38,9999,9999,9999,1286345792
51,14,15,Jits_Phase_8,39,9999,9999,9999,1287145588
51,14,15,Jits_Phase_8,40,9999,9999,9999,1287945272
51,14,15,Jits_Phase_8,41,9999,9999,9999,1288746092
51,14,15,Jits_Phase_8,42,9999,9999,9999,1289545848
51,14,15,Jits_Phase_8,43,9999,9999,9999,1290345536
51,14,15,Jits_Phase_8,44,9999,9999,9999,1291145276
51,14,15,Jits_Phase_8,45,9999,9999,9999,1291946084
51,14,15,Jits_Phase_8,46,9999,9999,9999,1292745844
51,14,15,Jits_Phase_8,47,9999,9999,9999,1293545544
51,14,15,Jits_Phase_8,48,9999,9999,9999,1294365768
51,14,15,Jits_Phase_8,49,9999,9999,9999,1295165532
51,14,15,Jits_Phase_8,50,9999,9999,9999,1295965296
51,14,15,Jits_Phase_8,51,9999,9999,9999,1296766040
51,14,15,Jits_Phase_8,52,9999,9999,9999,1297565788
51,14,15,Jits_Phase_8,53,9999,9999,9999,1298365552
51,14,15,Jits_Phase_8,54,9999,9999,9999,1299165304
51,14,15,Jits_Phase_8,55,9999,9999,9999,1299966068
51,14,15,Jits_Phase_8,56,9999,9999,9999,1300765748
51,14,15,Jits_Phase_8,57,9999,9999,9999,1301565520
51,14,15,Jits_Phase_8,58,9999,9999,9999,1302365276
51,14,15,Jits_Phase_8,59,9999,9999,9999,1303166080
51,14,15,Jits_Phase_8,60,9999,9999,9999,1303965760
51,14,15,Jits_Phase_8,61,9999,9999,9999,1304765520
51,14,15,Jits_Phase_8,62,9999,9999,9999,1305565276
51,14,15,Jits_Phase_8,63,9999,9999,9999,1306366020
51,14,15,Jits_Phase_8,64,9999,9999,9999,1307205732
51,14,15,Jits_Phase_8,65,9999,9999,9999,1308005500
51,14,15,Jits_Phase_8,66,9999,9999,9999,1308805188
51,14,15,Jits_Phase_8,67,9999,9999,9999,1309606000
51,14,15,Jits_Phase_8,68,9999,9999,9999,1310405684
51,14,15,Jits_Phase_8,69,9999,9999,9999,1311205488
51,14,15,Jits_Phase_8,70,9999,9999,9999,1312005172
51,14,15,Jits_Phase_8,71,9999,9999,9999,1312805984
51,14,15,Jits_Phase_8,72,9999,9999,9999,1313605740
51,14,15,Jits_Phase_8,73,9999,9999,9999,1314405436
51,14,15,Jits_Phase_8,74,9999,9999,9999,1315205220
51,14,15,Jits_Phase_8,75,9999,9999,9999,1316005952
51,14,15,Jits_Phase_8,76,9999,9999,9999,1316805716
51,14,15,Jits_Phase_8,77,9999,9999,9999,1317605440
51,14,15,Jits_Phase_8,78,9999,9999,9999,1318405192
51,14,15,Jits_Phase_8,79,9999,9999,9999,1319206008
51,14,15,Jits_Phase_8,80,9999,9999,9999,1320005708
51,14,15,Jits_Phase_8,81,9999,9999,9999,1320765532
51,14,15,Jits_Phase_8,82,9999,9999,9999,1321565288
51,14,15,Jits_Phase_8,83,9999,9999,9999,1322366012
51,14,15,Jits_Phase_8,84,9999,9999,9999,1323165764
51,14,15,Jits_Phase_8,85,9999,9999,9999,1323965536
51,14,15,Jits_Phase_8,86,9999,9999,9999,1324765296
51,14,15,Jits_Phase_8,87,9999,9999,9999,1325566036
51,14,15,Jits_Phase_8,88,9999,9999,9999,1326365788
51,14,15,Jits_Phase_8,89,9999,9999,9999,1327165552
51,14,15,Jits_Phase_8,90,9999,9999,9999,1327965244
51,14,15,Jits_Phase_8,91,9999,9999,9999,1328766044
51,14,15,Jits_Phase_8,92,9999,9999,9999,1329565820
51,14,15,Jits_Phase_8,93,9999,9999,9999,1330365500
51,14,15,Jits_Phase_8,94,9999,9999,9999,1331165256
51,14,15,Jits_Phase_8,95,9999,9999,9999,1331966076
51,14,15,Jits_Phase_8,96,9999,9999,9999,1332765760
51,14,15,Jits_Phase_8,97,9999,9999,9999,1333485656
51,14,15,Jits_Phase_8,98,9999,9999,9999,1334285432
51,14,15,Jits_Phase_8,99,9999,9999,9999,1335085116
51,14,15,Jits_Phase_8,100,9999,9999,9999,1335885908
51,14,15,Jits_Phase_8,101,9999,9999,9999,1336685664
51,14,15,Jits_Phase_8,102,9999,9999,9999,1337485416
51,14,15,Jits_Phase_8,103,9999,9999,9999,1338285172
51,14,15,Jits_Phase_8,104,9999,9999,9999,1339085916
51,14,15,Jits_Phase_8,105,9999,9999,9999,1339885632
51,14,15,Jits_Phase_8,106,9999,9999,9999,1340685380
51,14,15,Jits_Phase_8,107,9999,9999,9999,1341485120
51,14,15,Jits_Phase_8,108,9999,9999,9999,1342285928
51,14,15,Jits_Phase_8,109,9999,9999,9999,1343085680
51,14,15,Jits_Phase_8,110,9999,9999,9999,1343885368
51,14,15,Jits_Phase_8,111,9999,9999,9999,1344685124
51,14,15,Jits_Phase_8,112,9999,9999,9999,1345485936
51,14,15,Jits_Phase_8,113,9999,9999,9999,1346285660
51,14,15,Jits_Phase_8,114,9999,9999,9999,1347165292
51,14,15,Jits_Phase_8,115,9999,9999,9999,1347966020
51,14,15,Jits_Phase_8,116,9999,9999,9999,1348765780
51,14,15,Jits_Phase_8,117,9999,9999,9999,1349565556
51,14,15,Jits_Phase_8,118,9999,9999,9999,1350365256
51,14,15,Jits_Phase_8,119,9999,9999,9999,1351166012
51,14,15,Jits_Phase_8,120,9999,9999,9999,1351965784
51,14,15,Jits_Phase_8,121,9999,9999,9999,1352765544
51,14,15,Jits_Phase_8,122,9999,9999,9999,1353565292
51,14,15,Jits_Phase_8,123,9999,9999,9999,1354366016
51,14,15,Jits_Phase_8,124,9999,9999,9999,1355165780
51,14,15,Jits_Phase_8,125,9999,9999,9999,1355965504
51,14,15,Jits_Phase_8,126,9999,9999,9999,1356765272
51,14,15,Jits_Phase_8,127,9999,9999,9999,1357566024
51,14,15,Jits_Phase_8,128,9999,9999,9999,1358365784
51,14,15,Jits_Phase_8,129,9999,9999,9999,1359165540
51,14,15,Jits_Phase_8,130,9999,9999,9999,1359965244
51,14,15,Jits_Phase_8,131,9999,9999,9999,1360925800
51,14,15,Jits_Phase_8,132,9999,9999,9999,1361725496
51,14,15,Jits_Phase_8,133,9999,9999,9999,1362525260
51,14,15,Jits_Phase_8,134,9999,9999,9999,1363326064
51,14,15,Jits_Phase_8,135,9999,9999,9999,1364125808
51,14,15,Jits_Phase_8,136,9999,9999,9999,1364925564
51,14,15,Jits_Phase_8,137,9999,9999,9999,1365725264
51,14,15,Jits_Phase_8,138,9999,9999,9999,1366526020
51,14,15,Jits_Phase_8,139,9999,9999,9999,1367325792
51,14,15,Jits_Phase_8,140,9999,9999,9999,1368125552
51,14,15,Jits_Phase_8,141,9999,9999,9999,1368925308
51,14,15,Jits_Phase_8,142,9999,9999,9999,1369726044
51,14,15,Jits_Phase_8,143,9999,9999,9999,1370525800
51,14,15,Jits_Phase_8,144,9999,9999,9999,1371325552
51,14,15,Jits_Phase_8,145,9999,9999,9999,1372125240
51,14,15,Jits_Phase_8,146,9999,9999,9999,1372926064
51,14,15,Jits_Phase_8,147,9999,9999,9999,1373725816
51,14,15,Jits_Phase_8,148,9999,9999,9999,1374525564
51,14,15,Jits_Phase_8,149,9999,9999,9999,1375325240
51,14,15,Jits_Phase_8,150,9999,9999,9999,1375965252
51,14,15,Jits_Phase_8,151,9999,9999,9999,1376766012
51,14,15,Jits_Phase_8,152,9999,9999,9999,1377565784
51,14,15,Jits_Phase_8,153,9999,9999,9999,1378365544
51,14,15,Jits_Phase_8,154,9999,9999,9999,1379165296
51,14,15,Jits_Phase_8,155,9999,9999,9999,1379966024
51,14,15,Jits_Phase_8,156,9999,9999,9999,1380765800
51,14,15,Jits_Phase_8,157,9999,9999,9999,1381565556
51,14,15,Jits_Phase_8,158,9999,9999,9999,1382365244
51,14,15,Jits_Phase_8,159,9999,9999,9999,1383166080
51,14,15,Jits_Phase_8,160,9999,9999,9999,1383965756
51,14,15,Jits_Phase_8,161,9999,9999,9999,1384765512
51,14,15,Jits_Phase_8,162,9999,9999,9999,1385565276
51,14,15,Jits_Phase_8,163,9999,9999,9999,1386366080
51,14,15,Jits_Phase_8,164,9999,9999,9999,1387165760
51,14,15,Jits_Phase_8,165,9999,9999,9999,1387965516
51,14,15,Jits_Phase_8,166,9999,9999,9999,1388765288
51,14,15,Jits_Phase_8,167,9999,9999,9999,1389566036
51,14,15,Jits_Phase_8,168,9999,9999,9999,1390365808
51,14,15,Jits_Phase_8,169,9999,9999,9999,1391165500
51,15,17,Jits_Phase_5,0,5,56,103,1399933328
51,15,17,Jits_Phase_5,1,5,63,98,1399936424
51,15,17,Jits_Phase_5,2,5,80,127,1399939548
51,15,17,Jits_Phase_5,0,5,56,103,1400433036
51,15,17,Jits_Phase_5,1,5,63,98,1400436060
51,15,17,Jits_Phase_5,2,5,80,127,1400439256
51,15,17,Jits_Phase_5,0,5,56,103,1400932836
51,15,17,Jits_Phase_5,1,1,48,31,1400938272
51,15,17,Jits_Phase_5,2,5,80,127,1400943096
51,15,17,Jits_Phase_5,3,5,63,98,1400962508
51,15,17,Jits_Phase_5,0,5,63,98,1401383228
51,15,17,Jits_Phase_5,1,5,80,127,1401413052
51,15,17,Jits_Phase_5,2,5,56,103,1401423320
51,15,17,Jits_Phase_5,3,1,48,38,1401462700
51,15,17,Jits_Phase_5,0,1,48,39,1401930804
51,15,17,Jits_Phase_5,1,5,80,127,1401943352
51,15,17,Jits_Phase_5,2,5,56,103,1401952872
51,15,17,Jits_Phase_5,3,5,63,98,1401983368
51,15,17,Jits_Phase_5,0,5,63,98,1402432772
51,15,17,Jits_Phase_5,1,5,56,103,1402462896
51,15,17,Jits_Phase_5,2,5,80,127,1402472944
51,15,17,Jits_Phase_5,3,1,48,38,1402481164
51,15,17,Jits_Phase_5,0,5,56,103,1402882404
51,15,17,Jits_Phase_5,1,5,63,98,1402932532
51,15,17,Jits_Phase_5,2,5,80,127,1402953064
51,15,17,Jits_Phase_5,3,1,48,39,1402980908
51,15,17,Jits_Phase_5,0,5,80,127,1403383136
51,15,17,Jits_Phase_5,1,1,48,41,1403431676
51,15,17,Jits_Phase_5,2,5,63,98,1403433184
51,15,17,Jits_Phase_5,3,5,56,103,1403473268
51,15,17,Jits_Phase_5,0,5,56,103,1403882900
51,15,17,Jits_Phase_5,1,5,63,98,1403912500
51,15,17,Jits_Phase_5,2,1,48,38,1403928200
51,15,17,Jits_Phase_5,3,5,80,127,1403983068
51,15,17,Jits_Phase_5,0,5,56,103,1404382640
51,15,17,Jits_Phase_5,1,1,48,41,1404402920
51,15,17,Jits_Phase_5,2,5,80,127,1404443020
51,15,17,Jits_Phase_5,3,5,63,98,1404472844
51,15,17,Jits_Phase_5,0,5,56,103,1404892496
51,15,17,Jits_Phase_5,1,5,63,98,1404903012
51,15,17,Jits_Phase_5,2,5,80,127,1404942800
51,15,17,Jits_Phase_5,3,1,48,43,1404952364
51,15,17,Jits_Phase_5,0,5,63,98,1405382964
51,15,17,Jits_Phase_5,1,1,48,38,1405443872
51,15,17,Jits_Phase_5,2,5,80,127,1405462852
51,15,17,Jits_Phase_5,3,5,56,103,1405473044
51,15,17,Jits_Phase_5,0,5,63,98,1405932860
51,15,17,Jits_Phase_5,1,1,48,40,1405969836
51,15,17,Jits_Phase_5,2,5,56,103,1405973012
51,15,17,Jits_Phase_5,3,5,80,127,1405975932
51,15,17,Jits_Phase_5,0,5,56,103,1406392868
51,15,17,Jits_Phase_5,1,5,63,98,1406402916
51,15,17,Jits_Phase_5,2,5,80,127,1406442804
51,15,17,Jits_Phase_5,3,1,48,40,1406489584
51,15,17,Jits_Phase_5,0,5,56,103,1406883028
51,15,17,Jits_Phase_5,1,5,63,98,1406886100
51,15,17,Jits_Phase_5,2,5,80,127,1406902892
51,15,17,Jits_Phase_5,3,1,48,32,1406960712
51,15,17,Jits_Phase_5,0,5,80,127,1407393048
51,15,17,Jits_Phase_5,1,5,56,103,1407403320
51,15,17,Jits_Phase_5,2,1,48,39,1407431464
51,15,17,Jits_Phase_5,3,5,63,98,1407473012
51,15,17,Jits_Phase_5,0,5,63,98,1407882696
51,15,17,Jits_Phase_5,1,5,56,103,1407903080
51,15,17,Jits_Phase_5,2,1,48,37,1407955048
51,15,17,Jits_Phase_5,3,5,80,127,1407982888
51,15,17,Jits_Phase_5,0,5,56,103,1408392784
51,15,17,Jits_Phase_5,1,5,80,127,1408432572
51,15,17,Jits_Phase_5,2,5,63,98,1408442696
51,15,17,Jits_Phase_5,3,1,48,34,1408469032
51,15,17,Jits_Phase_5,0,5,80,127,1408883032
51,15,17,Jits_Phase_5,1,5,63,98,1408912856
51,15,17,Jits_Phase_5,2,5,56,103,1408952716
51,15,17,Jits_Phase_5,3,1,48,36,1408994140
51,15,17,Jits_Phase_5,0,5,56,103,1409403392
51,15,17,Jits_Phase_5,1,5,63,98,1409432844
51,15,17,Jits_Phase_5,2,1,48,30,1409463612
51,15,17,Jits_Phase_5,3,5,80,127,1409483036
51,15,17,Jits_Phase_5,0,5,80,127,1409903008
51,15,17,Jits_Phase_5,1,5,56,103,1409942796
51,15,17,Jits_Phase_5,2,1,48,33,1409952388
51,15,17,Jits_Phase_5,3,5,63,98,1409953884
51,15,17,Jits_Phase_5,0,5,80,127,1410383216
51,15,17,Jits_Phase_5,1,5,63,98,1410423084
51,15,17,Jits_Phase_5,2,1,48,35,1410471160
51,15,17,Jits_Phase_5,3,5,56,103,1410482712
51,15,17,Jits_Phase_5,0,5,56,103,1410882832
51,15,17,Jits_Phase_5,1,5,80,127,1410893100
51,15,17,Jits_Phase_5,2,5,63,98,1410973040
51,15,17,Jits_Phase_5,3,1,48,29,1410986420
51,15,17,Jits_Phase_5,0,5,80,127,1411382592
51,15,17,Jits_Phase_5,1,5,63,98,1411443132
51,15,17,Jits_Phase_5,2,5,56,103,1411472804
51,15,17,Jits_Phase_5,3,1,48,28,1411473772
51,15,17,Jits_Phase_5,0,5,56,103,1411883700
51,15,17,Jits_Phase_5,1,5,80,127,1411942964
51,15,17,Jits_Phase_5,2,5,63,98,1411982828
51,15,17,Jits_Phase_5,3,1,48,28,1411989088
51,15,17,Jits_Phase_5,0,5,56,103,1412433364
51,15,17,Jits_Phase_5,1,5,63,98,1412442584
51,15,17,Jits_Phase_5,2,5,80,127,1412445800
51,15,17,Jits_Phase_5,3,1,48,31,1412492380
51,15,17,Jits_Phase_5,0,5,80,127,1412882700
51,15,17,Jits_Phase_5,1,1,48,34,1412968524
51,15,17,Jits_Phase_5,2,5,63,98,1412972824
51,15,17,Jits_Phase_5,3,5,56,103,1412983092
51,15,17,Jits_Phase_5,0,5,56,103,1413382596
51,15,17,Jits_Phase_5,1,5,63,98,1413385772
51,15,17,Jits_Phase_5,2,5,80,127,1413388740
51,15,17,Jits_Phase_5,3,1,48,29,1413447824
51,15,17,Jits_Phase_5,0,5,80,127,1413902652
51,15,17,Jits_Phase_5,1,1,48,34,1413947572
51,15,17,Jits_Phase_5,2,5,63,98,1413952848
51,15,17,Jits_Phase_5,3,5,56,103,1413982744
51,15,17,Jits_Phase_5,0,5,56,103,1414382936
51,15,17,Jits_Phase_5,1,5,80,127,1414393208
51,15,17,Jits_Phase_5,2,1,48,32,1414449584
51,15,17,Jits_Phase_5,3,5,63,98,1414462880
51,15,17,Jits_Phase_5,0,5,56,103,1414892964
51,15,17,Jits_Phase_5,1,5,63,98,1414913500
51,15,17,Jits_Phase_5,2,5,80,127,1414972836
51,15,17,Jits_Phase_5,3,1,48,28,1414990932
51,15,17,Jits_Phase_5,0,5,80,127,1415373152
51,15,17,Jits_Phase_5,1,5,63,98,1415442784
51,15,17,Jits_Phase_5,2,1,48,33,1415451680
51,15,17,Jits_Phase_5,3,5,56,103,1415463384
51,15,17,Jits_Phase_5,0,5,80,127,1415893444
51,15,17,Jits_Phase_5,1,5,56,103,1415902544
51,15,17,Jits_Phase_5,2,5,63,98,1415912960
51,15,17,Jits_Phase_5,3,1,48,36,1415941708
51,15,17,Jits_Phase_5,0,5,80,127,1416382868
51,15,17,Jits_Phase_5,1,5,56,103,1416403252
51,15,17,Jits_Phase_5,2,1,48,32,1416426992
51,15,17,Jits_Phase_5,3,5,63,98,1416472796
51,15,17,Jits_Phase_5,0,5,56,103,1416892672
51,15,17,Jits_Phase_5,1,5,80,127,1416922644
51,15,17,Jits_Phase_5,2,1,48,35,1416937696
51,15,17,Jits_Phase_5,3,5,63,98,1416942968
51,15,17,Jits_Phase_5,0,5,63,98,1417383588
51,15,17,Jits_Phase_5,1,1,48,32,1417419216
51,15,17,Jits_Phase_5,2,5,56,103,1417442648
51,15,17,Jits_Phase_5,3,5,80,127,1417473596
51,15,17,Jits_Phase_5,0,5,63,98,1417872700
51,15,17,Jits_Phase_5,1,5,80,127,1417876140
51,15,17,Jits_Phase_5,2,1,48,33,1417889972
51,15,17,Jits_Phase_5,3,5,56,103,1417962920
51,15,17,Jits_Phase_5,0,5,56,103,1418392964
51,15,17,Jits_Phase_5,1,1,48,37,1418419452
51,15,17,Jits_Phase_5,2,5,63,98,1418422636
51,15,17,Jits_Phase_5,3,5,80,127,1418462668
51,15,17,Jits_Phase_5,0,5,63,98,1418892728
51,15,17,Jits_Phase_5,1,5,56,103,1418932444
51,15,17,Jits_Phase_5,2,1,48,34,1418945524
51,15,17,Jits_Phase_5,3,5,80,127,1418953044
51,15,17,Jits_Phase_5,0,5,63,98,1419402668
51,15,17,Jits_Phase_5,1,5,56,103,1419442608
51,15,17,Jits_Phase_5,2,1,48,29,1419444096
51,15,17,Jits_Phase_5,3,5,80,127,1419452648
51,15,17,Jits_Phase_5,0,5,80,127,1419882792
51,15,17,Jits_Phase_5,1,1,48,31,1419935652
51,15,17,Jits_Phase_5,2,5,63,98,1419952392
51,15,17,Jits_Phase_5,3,5,56,103,1419973072
51,15,17,Jits_Phase_5,0,5,56,103,1420373640
51,15,17,Jits_Phase_5,1,5,80,127,1420392828
51,15,17,Jits_Phase_5,2,1,48,33,1420421872
51,15,17,Jits_Phase_5,3,5,63,98,1420432684
51,15,17,Jits_Phase_5,0,5,63,98,1420883516
51,15,17,Jits_Phase_5,1,5,80,127,1420902704
51,15,17,Jits_Phase_5,2,1,48,34,1420907692
51,15,17,Jits_Phase_5,3,5,56,103,1420942708
51,15,17,Jits_Phase_5,0,5,63,98,1421383036
51,15,17,Jits_Phase_5,1,5,56,103,1421402524
51,15,17,Jits_Phase_5,2,5,80,127,1421412720
51,15,17,Jits_Phase_5,3,1,48,29,1421429092
51,15,17,Jits_Phase_5,0,5,80,127,1421882712
51,15,17,Jits_Phase_5,1,1,48,34,1421891756
51,15,17,Jits_Phase_5,2,5,56,103,1421903312
51,15,17,Jits_Phase_5,3,5,63,98,1421932984
51,15,17,Jits_Phase_5,0,1,48,34,1422398764
51,15,17,Jits_Phase_5,1,5,56,103,1422453188
51,15,17,Jits_Phase_5,2,5,80,127,1422456404
51,15,17,Jits_Phase_5,3,5,63,98,1422472524
51,15,17,Jits_Phase_5,0,5,63,98,1422872928
51,15,17,Jits_Phase_5,1,5,56,103,1422902528
51,15,17,Jits_Phase_5,2,1,48,29,1422934196
51,15,17,Jits_Phase_5,3,5,80,127,1422963060
51,15,17,Jits_Phase_5,0,1,48,32,1423429652
51,15,17,Jits_Phase_5,1,5,63,98,1423452536
51,15,17,Jits_Phase_5,2,5,56,103,1423462732
51,15,17,Jits_Phase_5,3,5,80,127,1423473000
51,15,17,Jits_Phase_5,0,5,56,103,1423913412
51,15,17,Jits_Phase_5,1,1,48,40,1423938928
51,15,17,Jits_Phase_5,2,5,80,127,1423943304
51,15,17,Jits_Phase_5,3,5,63,98,1423953500
51,15,17,Jits_Phase_5,0,1,48,39,1424418236
51,15,17,Jits_Phase_5,1,5,63,98,1424452956
51,15,17,Jits_Phase_5,2,5,56,103,1424463448
51,15,17,Jits_Phase_5,3,5,80,127,1424482636
51,15,17,Jits_Phase_5,0,5,56,103,1424883340
51,15,17,Jits_Phase_5,1,5,63,98,1424942456
51,15,17,Jits_Phase_5,2,5,80,127,1424945820
51,15,17,Jits_Phase_5,3,1,48,35,1424950060
51,15,17,Jits_Phase_5,0,5,80,127,1425403472
51,15,17,Jits_Phase_5,1,5,56,103,1425412396
51,15,17,Jits_Phase_5,2,1,48,33,1425453576
51,15,17,Jits_Phase_5,3,5,63,98,1425483112
51,15,17,Jits_Phase_5,0,5,80,127,1425892752
51,15,17,Jits_Phase_5,1,1,48,33,1425946964
51,15,17,Jits_Phase_5,2,5,56,103,1425963472
51,15,17,Jits_Phase_5,3,5,63,98,1425972620
51,15,17,Jits_Phase_5,0,5,63,98,1426433424
51,15,17,Jits_Phase_5,1,5,56,103,1426442572
51,15,17,Jits_Phase_5,2,5,80,127,1426463328
51,15,17,Jits_Phase_5,3,1,48,29,1426464896
51,15,17,Jits_Phase_5,0,5,80,127,1426882876
51,15,17,Jits_Phase_5,1,5,63,98,1426943364
51,15,17,Jits_Phase_5,2,1,48,25,1426955628
51,15,17,Jits_Phase_5,3,5,56,103,1426983368
51,15,17,Jits_Phase_5,0,5,56,103,1427422672
51,15,17,Jits_Phase_5,1,5,63,98,1427432720
51,15,17,Jits_Phase_5,2,1,48,30,1427446028
51,15,17,Jits_Phase_5,3,5,80,127,1427472872
51,15,17,Jits_Phase_5,0,5,56,103,1427883304
51,15,17,Jits_Phase_5,1,5,80,127,1427913200
51,15,17,Jits_Phase_5,2,1,48,35,1427951264
51,15,17,Jits_Phase_5,3,5,63,98,1427963492
51,15,17,Jits_Phase_5,0,5,56,103,1428423068
51,15,17,Jits_Phase_5,1,1,48,21,1428450028
51,15,17,Jits_Phase_5,2,5,63,98,1428463172
51,15,17,Jits_Phase_5,3,5,80,127,1428466536
51,15,17,Jits_Phase_5,0,5,56,103,1428922752
51,15,17,Jits_Phase_5,1,5,63,98,1428932948
51,15,17,Jits_Phase_5,2,1,48,34,1428949172
51,15,17,Jits_Phase_5,3,5,80,127,1428952424
51,15,17,Jits_Phase_5,0,5,56,103,1429382580
51,15,17,Jits_Phase_5,1,5,80,127,1429385572
51,15,17,Jits_Phase_5,2,5,63,98,1429422444
51,15,17,Jits_Phase_5,3,1,48,36,1429443020
51,15,17,Jits_Phase_5,0,5,63,98,1429923236
51,15,17,Jits_Phase_5,1,1,48,33,1429949124
51,15,17,Jits_Phase_5,2,5,56,103,1429952980
51,15,17,Jits_Phase_5,3,5,80,127,1429973364
51,15,17,Jits_Phase_5,0,5,80,127,1430393392
51,15,17,Jits_Phase_5,1,5,56,103,1430402320
51,15,17,Jits_Phase_5,2,5,63,98,1430412664
51,15,17,Jits_Phase_5,3,1,48,32,1430443056
51,15,17,Jits_Phase_5,0,5,56,103,1430893004
51,15,17,Jits_Phase_5,1,1,48,31,1430928636
51,15,17,Jits_Phase_5,2,5,80,127,1430932936
51,15,17,Jits_Phase_5,3,5,63,98,1430962460
51,15,17,Jits_Phase_5,0,1,48,36,1431400764
51,15,17,Jits_Phase_5,1,5,63,98,1431402952
51,15,17,Jits_Phase_5,2,5,80,127,1431413372
51,15,17,Jits_Phase_5,3,5,56,103,1431423272
51,15,17,Jits_Phase_5,0,5,56,103,1431893340
51,15,17,Jits_Phase_5,1,1,48,36,1431896388
51,15,17,Jits_Phase_5,2,5,63,98,1431963236
51,15,17,Jits_Phase_5,3,5,80,127,1431973432
51,15,17,Jits_Phase_5,0,5,80,127,1432403372
51,15,17,Jits_Phase_5,1,1,48,37,1432412448
51,15,17,Jits_Phase_5,2,5,56,103,1432414008
51,15,17,Jits_Phase_5,3,5,63,98,1432462712
51,15,17,Jits_Phase_5,0,5,80,127,1432913324
51,15,17,Jits_Phase_5,1,1,48,32,1432932252
51,15,17,Jits_Phase_5,2,5,56,103,1432972584
51,15,17,Jits_Phase_5,3,5,63,98,1433003232
51,15,17,Jits_Phase_5,0,5,56,103,1433413236
51,15,17,Jits_Phase_5,1,5,80,127,1433416228
51,15,17,Jits_Phase_5,2,1,48,32,1433435388
51,15,17,Jits_Phase_5,3,5,63,98,1433453088
51,15,17,Jits_Phase_5,0,1,48,31,1433902548
51,15,17,Jits_Phase_5,1,5,56,103,1433943476
51,15,17,Jits_Phase_5,2,5,63,98,1433973300
51,15,17,Jits_Phase_5,3,5,80,127,1433983196
51,15,17,Jits_Phase_5,0,1,48,32,1434403872
51,15,17,Jits_Phase_5,1,5,63,98,1434453340
51,15,17,Jits_Phase_5,2,5,80,127,1434462716
51,15,17,Jits_Phase_5,3,5,56,103,1434473208
51,15,17,Jits_Phase_5,0,5,80,127,1434903052
51,15,17,Jits_Phase_5,1,1,48,34,1434925724
51,15,17,Jits_Phase_5,2,5,56,103,1434953020
51,15,17,Jits_Phase_5,3,5,63,98,1434956088
51,15,17,Jits_Phase_5,0,5,56,103,1435433224
51,15,17,Jits_Phase_5,1,5,80,127,1435453008
51,15,17,Jits_Phase_5,2,1,48,37,1435460856
51,15,17,Jits_Phase_5,3,5,63,98,1435463344
51,15,17,Jits_Phase_5,0,5,63,98,1435912460
51,15,17,Jits_Phase_5,1,5,56,103,1435943256
51,15,17,Jits_Phase_5,2,1,48,42,1435950580
51,15,17,Jits_Phase_5,3,5,80,127,1435963104
51,15,17,Jits_Phase_5,0,5,56,103,1436422544
51,15,17,Jits_Phase_5,1,1,48,42,1436430148
51,15,17,Jits_Phase_5,2,5,80,127,1436432732
51,15,17,Jits_Phase_5,3,5,63,98,1436503384
51,15,17,Jits_Phase_5,0,5,63,98,1436913164
51,15,17,Jits_Phase_5,1,5,80,127,1436953028
51,15,17,Jits_Phase_5,2,1,48,44,1436959816
51,15,17,Jits_Phase_5,3,5,56,103,1436992884
51,15,17,Jits_Phase_5,0,5,56,103,1437422952
51,15,17,Jits_Phase_5,1,1,48,36,1437427568
51,15,17,Jits_Phase_5,2,5,63,98,1437433292
51,15,17,Jits_Phase_5,3,5,80,127,1437452628
51,15,17,Jits_Phase_5,0,1,48,31,1437943660
51,15,17,Jits_Phase_5,1,5,63,98,1437962496
51,15,17,Jits_Phase_5,2,5,80,127,1437983176
51,15,17,Jits_Phase_5,3,5,56,103,1438002512
51,15,17,Jits_Phase_5,0,5,56,103,1438403188
51,15,17,Jits_Phase_5,1,1,48,32,1438457352
51,15,17,Jits_Phase_5,2,5,80,127,1438483004
51,15,17,Jits_Phase_5,3,5,63,98,1438493200
51,15,17,Jits_Phase_5,0,1,48,40,1438929512
51,15,17,Jits_Phase_5,1,5,80,127,1438942460
51,15,17,Jits_Phase_5,2,5,63,98,1438953028
51,15,17,Jits_Phase_5,3,5,56,103,1438982480
51,15,17,Jits_Phase_5,0,5,63,98,1439403384
51,15,17,Jits_Phase_5,1,1,48,34,1439421572
51,15,17,Jits_Phase_5,2,5,80,127,1439443168
51,15,17,Jits_Phase_5,3,5,56,103,1439502828
51,15,17,Jits_Phase_5,0,5,63,98,1439913240
51,15,17,Jits_Phase_5,1,1,48,33,1439927520
51,15,17,Jits_Phase_5,2,5,56,103,1439962464
51,15,17,Jits_Phase_5,3,5,80,127,1439993060
51,15,17,Jits_Phase_5,0,5,80,127,1440413216
51,15,17,Jits_Phase_5,1,5,63,98,1440423264
51,15,17,Jits_Phase_5,2,1,48,36,1440428404
51,15,17,Jits_Phase_5,3,5,56,103,1440493032
51,15,17,Jits_Phase_5,0,1,48,37,1440928828
51,15,17,Jits_Phase_5,1,5,80,127,1440973212
51,15,17,Jits_Phase_5,2,5,56,103,1440983484
51,15,17,Jits_Phase_5,3,5,63,98,1440986624
51,15,17,Jits_Phase_5,0,5,56,103,1441412408
51,15,17,Jits_Phase_5,1,5,80,127,1441433016
51,15,17,Jits_Phase_5,2,1,48,40,1441436736
51,15,17,Jits_Phase_5,3,5,63,98,1441443128
51,15,17,Jits_Phase_5,0,5,63,98,1441922508
51,15,17,Jits_Phase_5,1,1,48,29,1441940080
51,15,17,Jits_Phase_5,2,5,56,103,1441963412
51,15,17,Jits_Phase_5,3,5,80,127,1441983196
51,15,17,Jits_Phase_5,0,5,63,98,1442423084
51,15,17,Jits_Phase_5,1,1,48,34,1442462540
51,15,17,Jits_Phase_5,2,5,56,103,1442482640
51,15,17,Jits_Phase_5,3,5,80,127,1442485632
51,15,17,Jits_Phase_5,0,5,56,103,1442882896
51,15,17,Jits_Phase_5,1,5,80,127,1442903504
51,15,17,Jits_Phase_5,2,5,63,98,1442943364
51,15,17,Jits_Phase_5,3,1,48,27,1442962368
51,15,17,Jits_Phase_5,0,5,56,103,1443413220
51,15,17,Jits_Phase_5,1,1,48,33,1443418284
51,15,17,Jits_Phase_5,2,5,63,98,1443432848
51,15,17,Jits_Phase_5,3,5,80,127,1443442968
51,15,17,Jits_Phase_5,0,5,80,127,1443883388
51,15,17,Jits_Phase_5,1,1,48,40,1443898564
51,15,17,Jits_Phase_5,2,5,56,103,1443913056
51,15,17,Jits_Phase_5,3,5,63,98,1443952916
51,15,17,Jits_Phase_5,0,5,80,127,1444393188
51,15,17,Jits_Phase_5,1,5,56,103,1444413192
51,15,17,Jits_Phase_5,2,1,48,42,1444427176
51,15,17,Jits_Phase_5,3,5,63,98,1444473204
51,15,17,Jits_Phase_5,0,5,56,103,1444903288
51,15,17,Jits_Phase_5,1,5,80,127,1444922924
51,15,17,Jits_Phase_5,2,1,48,36,1444942980
51,15,17,Jits_Phase_5,3,5,63,98,1444983156
51,15,17,Jits_Phase_5,0,5,80,127,1445382376
51,15,17,Jits_Phase_5,1,5,56,103,1445392868
51,15,17,Jits_Phase_5,2,5,63,98,1445432880
51,15,17,Jits_Phase_5,3,1,48,36,1445435624
51,15,17,Jits_Phase_5,0,5,63,98,1445883180
51,15,17,Jits_Phase_5,1,1,48,42,1445917388
51,15,17,Jits_Phase_5,2,5,56,103,1445923112
51,15,17,Jits_Phase_5,3,5,80,127,1445926180
51,15,17,Jits_Phase_5,0,5,63,98,1446402400
51,15,17,Jits_Phase_5,1,1,48,42,1446410848
51,15,17,Jits_Phase_5,2,5,80,127,1446443380
51,15,17,Jits_Phase_5,3,5,56,103,1446473052
51,15,17,Jits_Phase_5,0,5,56,103,1446892784
51,15,17,Jits_Phase_5,1,5,63,98,1446903128
51,15,17,Jits_Phase_5,2,1,48,48,1446933096
51,15,17,Jits_Phase_5,3,5,80,127,1446934436
51,15,17,Jits_Phase_5,0,5,80,127,1447383376
51,15,17,Jits_Phase_5,1,1,48,45,1447440548
51,15,17,Jits_Phase_5,2,5,63,98,1447453000
51,15,17,Jits_Phase_5,3,5,56,103,1447463344
51,15,17,Jits_Phase_5,0,5,63,98,1447883212
51,15,17,Jits_Phase_5,1,1,48,43,1447936548
51,15,17,Jits_Phase_5,2,5,56,103,1447952836
51,15,17,Jits_Phase_5,3,5,80,127,1447963104
51,15,17,Jits_Phase_5,0,5,63,98,1448363336
51,15,17,Jits_Phase_5,1,5,56,103,1448382820
51,15,17,Jits_Phase_5,2,1,48,43,1448404668
51,15,17,Jits_Phase_5,3,5,80,127,1448422996
51,15,17,Jits_Phase_5,0,5,56,103,1448842780
51,15,17,Jits_Phase_5,1,5,63,98,1448852904
51,15,17,Jits_Phase_5,2,1,48,40,1448901952
51,15,17,Jits_Phase_5,3,5,80,127,1448933156
51,15,17,Jits_Phase_5,0,5,63,98,1449343588
51,15,17,Jits_Phase_5,1,5,56,103,1449373040
51,15,17,Jits_Phase_5,2,1,48,41,1449386792
51,15,17,Jits_Phase_5,3,5,80,127,1449412892
51,15,17,Jits_Phase_5,0,5,56,103,1449843112
51,15,17,Jits_Phase_5,1,1,48,41,1449881844
51,15,17,Jits_Phase_5,2,5,63,98,1449883192
51,15,17,Jits_Phase_5,3,5,80,127,1449922904
51,15,17,Jits_Phase_5,0,5,80,127,1450342648
51,15,17,Jits_Phase_5,1,1,48,43,1450374464
51,15,17,Jits_Phase_5,2,5,56,103,1450422808
51,15,17,Jits_Phase_5,3,5,63,98,1450432856
51,15,17,Jits_Phase_5,0,1,48,35,1450859224
51,15,17,Jits_Phase_5,1,5,56,103,1450882412
51,15,17,Jits_Phase_5,2,5,63,98,1450885480
51,15,17,Jits_Phase_5,3,5,80,127,1450892756
51,15,17,Jits_Phase_5,0,1,48,39,1451364148
51,15,17,Jits_Phase_5,1,5,56,103,1451402756
51,15,17,Jits_Phase_5,2,5,63,98,1451423068
51,15,17,Jits_Phase_5,3,5,80,127,1451433260
51,15,17,Jits_Phase_5,0,1,48,40,1451863632
51,15,17,Jits_Phase_5,1,5,63,98,1451864968
51,15,17,Jits_Phase_5,2,5,80,127,1451872848
51,15,17,Jits_Phase_5,3,5,56,103,1451893232
51,15,17,Jits_Phase_5,0,1,48,35,1452355480
51,15,17,Jits_Phase_5,1,5,63,98,1452363076
51,15,17,Jits_Phase_5,2,5,56,103,1452443016
51,15,17,Jits_Phase_5,3,5,80,127,1452446008
51,15,17,Jits_Phase_5,0,5,63,98,1452862828
51,15,17,Jits_Phase_5,1,5,56,103,1452883284
51,15,17,Jits_Phase_5,2,1,48,32,1452900408
51,15,17,Jits_Phase_5,3,5,80,127,1452912880
51,15,17,Jits_Phase_5,0,1,48,40,1453341196
51,15,17,Jits_Phase_5,1,5,56,103,1453362792
51,15,17,Jits_Phase_5,2,5,63,98,1453382956
51,15,17,Jits_Phase_5,3,5,80,127,1453393224
51,15,17,Jits_Phase_5,0,1,48,38,1453863492
51,15,17,Jits_Phase_5,1,5,56,103,1453892960
51,15,17,Jits_Phase_5,2,5,63,98,1453922708
51,15,17,Jits_Phase_5,3,5,80,127,1453925996
51,15,17,Jits_Phase_5,0,1,48,38,1454248128
51,15,17,Jits_Phase_5,1,5,56,103,1454342656
51,15,17,Jits_Phase_5,2,5,63,98,1454382804
51,15,17,Jits_Phase_5,3,5,80,127,1454442820
51,15,17,Jits_Phase_5,0,1,48,43,1454813160
51,15,17,Jits_Phase_5,1,5,56,103,1454862860
51,15,17,Jits_Phase_5,2,5,63,98,1454872904
51,15,17,Jits_Phase_5,3,5,80,127,1454933352
51,15,17,Jits_Phase_5,0,5,56,103,1455362464
51,15,17,Jits_Phase_5,1,1,48,33,1455372104
51,15,17,Jits_Phase_5,2,5,80,127,1455382916
51,15,17,Jits_Phase_5,3,5,63,98,1455412740
51,15,17,Jits_Phase_5,0,1,48,38,1455836116
51,15,17,Jits_Phase_5,1,5,80,127,1455863116
51,15,17,Jits_Phase_5,2,5,56,103,1455873536
51,15,17,Jits_Phase_5,3,5,63,98,1455892876
51,15,17,Jits_Phase_5,0,1,48,32,1456339580
51,15,17,Jits_Phase_5,1,5,63,98,1456352604
51,15,17,Jits_Phase_5,2,5,80,127,1456432768
51,15,17,Jits_Phase_5,3,5,56,103,1456442728
51,15,17,Jits_Phase_5,0,1,48,35,1456888580
51,15,17,Jits_Phase_5,1,5,80,127,1456942708
51,15,17,Jits_Phase_5,2,5,56,103,1456962788
51,15,17,Jits_Phase_5,3,5,63,98,1456965932
51,15,17,Jits_Phase_5,0,1,48,35,1457350308
51,15,17,Jits_Phase_5,1,5,63,98,1457433008
51,15,17,Jits_Phase_5,2,5,80,127,1457436372
51,15,17,Jits_Phase_5,3,5,56,103,1457493304
51,15,17,Jits_Phase_5,0,5,56,103,1457913128
51,15,17,Jits_Phase_5,1,5,80,127,1457922576
51,15,17,Jits_Phase_5,2,5,63,98,1457963560
51,15,17,Jits_Phase_5,3,1,48,39,1457972976
51,15,17,Jits_Phase_5,0,5,56,103,1458392564
51,15,17,Jits_Phase_5,1,5,63,98,1458452832
51,15,17,Jits_Phase_5,2,5,80,127,1458462952
51,15,17,Jits_Phase_5,3,1,48,41,1458505696
51,15,17,Jits_Phase_5,0,5,63,98,1458903564
51,15,17,Jits_Phase_5,1,5,80,127,1458943452
51,15,17,Jits_Phase_5,2,1,48,34,1458970312
51,15,17,Jits_Phase_5,3,5,56,103,1458983380
51,15,17,Jits_Phase_5,0,5,56,103,1459403240
51,15,17,Jits_Phase_5,1,1,48,34,1459481152
51,15,17,Jits_Phase_5,2,5,63,98,1459482976
51,15,17,Jits_Phase_5,3,5,80,127,1459486188
51,15,17,Jits_Phase_5,0,5,80,127,1459963256
51,15,17,Jits_Phase_5,1,5,56,103,1459993076
51,15,17,Jits_Phase_5,2,5,63,98,1459995996
51,15,17,Jits_Phase_5,3,1,48,24,1460021896
51,15,17,Jits_Phase_5,0,5,56,103,1460423060
51,15,17,Jits_Phase_5,1,5,80,127,1460442692
51,15,17,Jits_Phase_5,2,5,63,98,1460482504
51,15,17,Jits_Phase_5,3,1,48,36,1460505252
51,15,17,Jits_Phase_5,0,5,80,127,1460903560
51,15,17,Jits_Phase_5,1,5,63,98,1460922600
51,15,17,Jits_Phase_5,2,5,56,103,1460983088
51,15,17,Jits_Phase_5,3,1,48,38,1461002540
51,15,17,Jits_Phase_5,0,5,63,98,1461413584
51,15,17,Jits_Phase_5,1,5,56,103,1461422512
51,15,17,Jits_Phase_5,2,5,80,127,1461472660
51,15,17,Jits_Phase_5,3,1,48,41,1461483800
51,15,17,Jits_Phase_5,0,5,56,103,1461902776
51,15,17,Jits_Phase_5,1,5,63,98,1461923160
51,15,17,Jits_Phase_5,2,5,80,127,1461933428
51,15,17,Jits_Phase_5,3,1,48,34,1461963444
51,15,17,Jits_Phase_5,0,5,56,103,1462393316
51,15,17,Jits_Phase_5,1,5,63,98,1462396384
51,15,17,Jits_Phase_5,2,5,80,127,1462412584
51,15,17,Jits_Phase_5,3,1,48,38,1462446264
51,15,17,Jits_Phase_5,0,1,48,43,1462926452
51,15,17,Jits_Phase_5,1,5,63,98,1462932848
51,15,17,Jits_Phase_5,2,5,56,103,1462962672
51,15,17,Jits_Phase_5,3,5,80,127,1462993392
51,15,17,Jits_Phase_5,0,5,80,127,1463392528
51,15,17,Jits_Phase_5,1,1,48,35,1463447332
51,15,17,Jits_Phase_5,2,5,56,103,1463482724
51,15,17,Jits_Phase_5,3,5,63,98,1463486016
51,15,17,Jits_Phase_5,0,5,56,103,1463893476
51,15,17,Jits_Phase_5,1,5,80,127,1463896544
51,15,17,Jits_Phase_5,2,5,63,98,1463973492
51,15,17,Jits_Phase_5,3,1,48,45,1463989344
51,15,17,Jits_Phase_5,0,5,80,127,1464393156
51,15,17,Jits_Phase_5,1,5,63,98,1464452576
51,15,17,Jits_Phase_5,2,1,48,33,1464466704
51,15,17,Jits_Phase_5,3,5,56,103,1464483288
51,15,17,Jits_Phase_5,0,5,63,98,1464892776
51,15,17,Jits_Phase_5,1,5,80,127,1464902972
51,15,17,Jits_Phase_5,2,5,56,103,1464972648
51,15,17,Jits_Phase_5,3,1,48,33,1464973616
51,15,17,Jits_Phase_5,0,5,56,103,1465452836
51,15,17,Jits_Phase_5,1,5,80,127,1465482584
51,15,17,Jits_Phase_5,2,1,48,30,1465485252
51,15,17,Jits_Phase_5,3,5,63,98,1465532848
51,15,17,Jits_Phase_5,0,1,48,32,1465999748
51,15,17,Jits_Phase_5,1,5,63,98,1466042864
51,15,17,Jits_Phase_5,2,5,56,103,1466072612
51,15,17,Jits_Phase_5,3,5,80,127,1466075704
51,15,17,Jits_Phase_5,0,1,48,39,1466537336
51,15,17,Jits_Phase_5,1,5,63,98,1466542460
51,15,17,Jits_Phase_5,2,5,80,127,1466562920
51,15,17,Jits_Phase_5,3,5,56,103,1466573412
51,15,17,Jits_Phase_5,0,1,48,38,1467047276
51,15,17,Jits_Phase_5,1,5,56,103,1467053596
51,15,17,Jits_Phase_5,2,5,63,98,1467056588
51,15,17,Jits_Phase_5,3,5,80,127,1467072932
51,15,17,Jits_Phase_5,0,5,56,103,1467503076
51,15,17,Jits_Phase_5,1,5,63,98,1467513420
51,15,17,Jits_Phase_5,2,1,48,39,1467537364
51,15,17,Jits_Phase_5,3,5,80,127,1467542792
51,15,17,Jits_Phase_5,0,5,63,98,1468023220
51,15,17,Jits_Phase_5,1,1,48,43,1468026560
51,15,17,Jits_Phase_5,2,5,80,127,1468042476
51,15,17,Jits_Phase_5,3,5,56,103,1468082484
51,15,17,Jits_Phase_5,0,5,56,103,1468552632
51,15,17,Jits_Phase_5,1,1,48,40,1468556352
51,15,17,Jits_Phase_5,2,5,63,98,1468592488
51,15,17,Jits_Phase_5,3,5,80,127,1468596000
51,15,17,Jits_Phase_5,0,5,80,127,1468992832
51,15,17,Jits_Phase_5,1,5,56,103,1469032768
51,15,17,Jits_Phase_5,2,5,63,98,1469083116
51,15,17,Jits_Phase_5,3,1,48,40,1469085204
51,15,17,Jits_Phase_5,0,5,56,103,1469552976
51,15,17,Jits_Phase_5,1,5,80,127,1469563320
51,15,17,Jits_Phase_5,2,1,48,22,1469583452
51,15,17,Jits_Phase_5,3,5,63,98,1469592912
51,15,17,Jits_Phase_5,0,5,56,103,1470002472
51,15,17,Jits_Phase_5,1,5,80,127,1470042336
51,15,17,Jits_Phase_5,2,1,48,35,1470067100
51,15,17,Jits_Phase_5,3,5,63,98,1470092604
51,15,17,Jits_Phase_5,0,5,56,103,1470503356
51,15,17,Jits_Phase_5,1,5,80,127,1470543372
51,15,17,Jits_Phase_5,2,1,48,38,1470580344
51,15,17,Jits_Phase_5,3,5,63,98,1470593488
51,15,17,Jits_Phase_5,0,5,80,127,1470992636
51,15,17,Jits_Phase_5,1,5,63,98,1471072580
51,15,17,Jits_Phase_5,2,5,56,103,1471082924
51,15,17,Jits_Phase_5,3,1,48,35,1471149928
51,15,17,Jits_Phase_5,0,5,80,127,1471542524
51,15,17,Jits_Phase_5,1,5,56,103,1471552868
51,15,17,Jits_Phase_5,2,5,63,98,1471573476
51,15,17,Jits_Phase_5,3,1,48,38,1471643944
51,15,17,Jits_Phase_5,0,5,63,98,1472012548
51,15,17,Jits_Phase_5,1,5,56,103,1472083192
51,15,17,Jits_Phase_5,2,5,80,127,1472086336
51,15,17,Jits_Phase_5,3,1,48,34,1472120316
51,15,17,Jits_Phase_5,0,5,80,127,1472503292
51,15,17,Jits_Phase_5,1,5,63,98,1472553420
51,15,17,Jits_Phase_5,2,5,56,103,1472593356
51,15,17,Jits_Phase_5,3,1,48,36,1472603224
51,15,17,Jits_Phase_5,0,5,63,98,1473042772
51,15,17,Jits_Phase_5,1,1,48,38,1473080816
51,15,17,Jits_Phase_5,2,5,56,103,1473082700
51,15,17,Jits_Phase_5,3,5,80,127,1473093192
51,15,17,Jits_Phase_5,0,5,63,98,1473533380
51,15,17,Jits_Phase_5,1,1,48,31,1473543400
51,15,17,Jits_Phase_5,2,5,56,103,1473552788
51,15,17,Jits_Phase_5,3,5,80,127,1473573320
51,15,17,Jits_Phase_5,0,5,80,127,1473993252
51,15,17,Jits_Phase_5,1,5,56,103,1474003372
51,15,17,Jits_Phase_5,2,5,63,98,1474022660
51,15,17,Jits_Phase_5,3,1,48,25,1474028992
51,15,17,Jits_Phase_5,0,5,63,98,1474522384
51,15,17,Jits_Phase_5,1,1,48,32,1474528040
51,15,17,Jits_Phase_5,2,5,56,103,1474562388
51,15,17,Jits_Phase_5,3,5,80,127,1474593256
51,15,17,Jits_Phase_5,0,5,56,103,1474983372
51,15,17,Jits_Phase_5,1,5,63,98,1475013124
51,15,17,Jits_Phase_5,2,1,48,36,1475037088
51,15,17,Jits_Phase_5,3,5,80,127,1475042668
51,15,17,Jits_Phase_5,0,5,80,127,1475403208
51,15,17,Jits_Phase_5,1,5,56,103,1475472736
51,15,17,Jits_Phase_5,2,5,63,98,1475475728
51,15,17,Jits_Phase_5,3,1,48,37,1475544920
51,15,17,Jits_Phase_5,0,5,56,103,1475913072
51,15,17,Jits_Phase_5,1,5,63,98,1475963348
51,15,17,Jits_Phase_5,2,1,48,38,1475977176
51,15,17,Jits_Phase_5,3,5,80,127,1475993240
51,15,17,Jits_Phase_5,0,5,63,98,1476393356
51,15,17,Jits_Phase_5,1,5,80,127,1476396572
51,15,17,Jits_Phase_5,2,5,56,103,1476452772
51,15,17,Jits_Phase_5,3,1,48,37,1476457088
51,15,17,Jits_Phase_5,0,5,56,103,1476922616
51,15,17,Jits_Phase_5,1,5,80,127,1476933256
51,15,17,Jits_Phase_5,2,1,48,35,1476949556
51,15,17,Jits_Phase_5,3,5,63,98,1476983152
51,15,17,Jits_Phase_5,0,5,63,98,1477392784
51,15,17,Jits_Phase_5,1,5,56,103,1477403128
51,15,17,Jits_Phase_5,2,5,80,127,1477432580
51,15,17,Jits_Phase_5,3,1,48,36,1477436596
51,15,17,Jits_Phase_5,0,1,48,37,1477888592
51,15,17,Jits_Phase_5,1,5,63,98,1477923384
51,15,17,Jits_Phase_5,2,5,80,127,1477926748
51,15,17,Jits_Phase_5,3,5,56,103,1477952984
51,15,17,Jits_Phase_5,0,1,48,36,1478365632
51,15,17,Jits_Phase_5,1,5,63,98,1478443504
51,15,17,Jits_Phase_5,2,5,56,103,1478462824
51,15,17,Jits_Phase_5,3,5,80,127,1478465816
51,15,17,Jits_Phase_5,0,1,48,40,1478903244
51,15,17,Jits_Phase_5,1,5,63,98,1478904584
51,15,17,Jits_Phase_5,2,5,56,103,1478972916
51,15,17,Jits_Phase_5,3,5,80,127,1478993300
51,15,17,Jits_Phase_5,0,5,56,103,1479392508
51,15,17,Jits_Phase_5,1,5,63,98,1479403076
51,15,17,Jits_Phase_5,2,1,48,39,1479418400
51,15,17,Jits_Phase_5,3,5,80,127,1479493268
51,15,17,Jits_Phase_5,0,5,56,103,1479912796
51,15,17,Jits_Phase_5,1,1,48,24,1479915312
51,15,17,Jits_Phase_5,2,5,80,127,1479952800
51,15,17,Jits_Phase_5,3,5,63,98,1479962996
51,15,17,Jits_Phase_5,0,1,48,35,1480425640
51,15,17,Jits_Phase_5,1,5,56,103,1480433232
51,15,17,Jits_Phase_5,2,5,63,98,1480462608
51,15,17,Jits_Phase_5,3,5,80,127,1480493404
51,15,17,Jits_Phase_5,0,5,80,127,1480893032
51,15,17,Jits_Phase_5,1,1,48,32,1480930576
51,15,17,Jits_Phase_5,2,5,63,98,1480932692
51,15,17,Jits_Phase_5,3,5,56,103,1480953224
51,15,17,Jits_Phase_5,0,1,48,40,1481375908
51,15,17,Jits_Phase_5,1,5,56,103,1481432496
51,15,17,Jits_Phase_5,2,5,80,127,1481453032
51,15,17,Jits_Phase_5,3,5,63,98,1481473268
51,15,17,Jits_Phase_5,0,5,63,98,1481902492
51,15,17,Jits_Phase_5,1,5,56,103,1481912684
51,15,17,Jits_Phase_5,2,1,48,35,1481923824
51,15,17,Jits_Phase_5,3,5,80,127,1481973016
51,15,17,Jits_Phase_5,0,5,56,103,1482403060
51,15,17,Jits_Phase_5,1,1,48,41,1482427228
51,15,17,Jits_Phase_5,2,5,63,98,1482472912
51,15,17,Jits_Phase_5,3,5,80,127,1482493220
51,15,17,Jits_Phase_5,0,5,56,103,1482902904
51,15,17,Jits_Phase_5,1,1,48,38,1482931136
51,15,17,Jits_Phase_5,2,5,63,98,1482932496
51,15,17,Jits_Phase_5,3,5,80,127,1482972608
51,15,17,Jits_Phase_5,0,5,63,98,1483393452
51,15,17,Jits_Phase_5,1,1,48,41,1483395012
51,15,17,Jits_Phase_5,2,5,56,103,1483442448
51,15,17,Jits_Phase_5,3,5,80,127,1483452720
51,15,17,Jits_Phase_5,0,1,48,42,1483921340
51,15,17,Jits_Phase_5,1,5,56,103,1483943236
51,15,17,Jits_Phase_5,2,5,63,98,1483992392
51,15,17,Jits_Phase_5,3,5,80,127,1484002688
51,15,17,Jits_Phase_5,0,5,56,103,1484413256
51,15,17,Jits_Phase_5,1,5,63,98,1484422404
51,15,17,Jits_Phase_5,2,1,48,38,1484441260
51,15,17,Jits_Phase_5,3,5,80,127,1484503460
51,15,17,Jits_Phase_5,0,9999,9999,9999,1400180832
51,15,17,Jits_Phase_5,1,9999,9999,9999,1400680544
51,15,17,Jits_Phase_5,2,9999,9999,9999,1401180248
51,15,17,Jits_Phase_5,3,9999,9999,9999,1401680980
51,15,17,Jits_Phase_5,4,9999,9999,9999,1402180732
51,15,17,Jits_Phase_5,5,9999,9999,9999,1402680412
51,15,17,Jits_Phase_5,6,9999,9999,9999,1403180160
51,15,17,Jits_Phase_5,7,9999,9999,9999,1403680892
51,15,17,Jits_Phase_5,8,9999,9999,9999,1404180584
51,15,17,Jits_Phase_5,9,9999,9999,9999,1404680248
51,15,17,Jits_Phase_5,10,9999,9999,9999,1405181056
51,15,17,Jits_Phase_5,11,9999,9999,9999,1405680748
51,15,17,Jits_Phase_5,12,9999,9999,9999,1406180416
51,15,17,Jits_Phase_5,13,9999,9999,9999,1406680136
51,15,17,Jits_Phase_5,14,9999,9999,9999,1407180924
51,15,17,Jits_Phase_5,15,9999,9999,9999,1407680616
51,15,17,Jits_Phase_5,16,9999,9999,9999,1408180304
51,15,17,Jits_Phase_5,17,9999,9999,9999,1408681024
51,15,17,Jits_Phase_5,18,9999,9999,9999,1409180784
51,15,17,Jits_Phase_5,19,9999,9999,9999,1409680476
51,15,17,Jits_Phase_5,20,9999,9999,9999,1410180164
51,15,17,Jits_Phase_5,21,9999,9999,9999,1410680900
51,15,17,Jits_Phase_5,22,9999,9999,9999,1411180660
51,15,17,Jits_Phase_5,23,9999,9999,9999,1411680348
51,15,17,Jits_Phase_5,24,9999,9999,9999,1412181084
51,15,17,Jits_Phase_5,25,9999,9999,9999,1412680764
51,15,17,Jits_Phase_5,26,9999,9999,9999,1413180532
51,15,17,Jits_Phase_5,27,9999,9999,9999,1413680196
51,15,17,Jits_Phase_5,28,9999,9999,9999,1414180932
51,15,17,Jits_Phase_5,29,9999,9999,9999,1414680692
51,15,17,Jits_Phase_5,30,9999,9999,9999,1415170124
51,15,17,Jits_Phase_5,31,9999,9999,9999,1415670860
51,15,17,Jits_Phase_5,32,9999,9999,9999,1416170620
51,15,17,Jits_Phase_5,33,9999,9999,9999,1416670308
51,15,17,Jits_Phase_5,34,9999,9999,9999,1417171020
51,15,17,Jits_Phase_5,35,9999,9999,9999,1417670784
51,15,17,Jits_Phase_5,36,9999,9999,9999,1418170448
51,15,17,Jits_Phase_5,37,9999,9999,9999,1418670196
51,15,17,Jits_Phase_5,38,9999,9999,9999,1419170932
51,15,17,Jits_Phase_5,39,9999,9999,9999,1419670612
51,15,17,Jits_Phase_5,40,9999,9999,9999,1420170360
51,15,17,Jits_Phase_5,41,9999,9999,9999,1420671092
51,15,17,Jits_Phase_5,42,9999,9999,9999,1421170780
51,15,17,Jits_Phase_5,43,9999,9999,9999,1421670456
51,15,17,Jits_Phase_5,44,9999,9999,9999,1422170200
51,15,17,Jits_Phase_5,45,9999,9999,9999,1422670936
51,15,17,Jits_Phase_5,46,9999,9999,9999,1423170684
51,15,17,Jits_Phase_5,47,9999,9999,9999,1423670364
51,15,17,Jits_Phase_5,48,9999,9999,9999,1424180304
51,15,17,Jits_Phase_5,49,9999,9999,9999,1424681048
51,15,17,Jits_Phase_5,50,9999,9999,9999,1425180788
51,15,17,Jits_Phase_5,51,9999,9999,9999,1425680476
51,15,17,Jits_Phase_5,52,9999,9999,9999,1426180172
51,15,17,Jits_Phase_5,53,9999,9999,9999,1426680912
51,15,17,Jits_Phase_5,54,9999,9999,9999,1427180660
51,15,17,Jits_Phase_5,55,9999,9999,9999,1427680348
51,15,17,Jits_Phase_5,56,9999,9999,9999,1428181060
51,15,17,Jits_Phase_5,57,9999,9999,9999,1428680808
51,15,17,Jits_Phase_5,58,9999,9999,9999,1429180500
51,15,17,Jits_Phase_5,59,9999,9999,9999,1429680252
51,15,17,Jits_Phase_5,60,9999,9999,9999,1430180988
51,15,17,Jits_Phase_5,61,9999,9999,9999,1430680660
51,15,17,Jits_Phase_5,62,9999,9999,9999,1431180348
51,15,17,Jits_Phase_5,63,9999,9999,9999,1431680112
51,15,17,Jits_Phase_5,64,9999,9999,9999,1432200316
51,15,17,Jits_Phase_5,65,9999,9999,9999,1432701052
51,15,17,Jits_Phase_5,66,9999,9999,9999,1433200744
51,15,17,Jits_Phase_5,67,9999,9999,9999,1433700420
51,15,17,Jits_Phase_5,68,9999,9999,9999,1434200188
51,15,17,Jits_Phase_5,69,9999,9999,9999,1434700912
51,15,17,Jits_Phase_5,70,9999,9999,9999,1435200572
51,15,17,Jits_Phase_5,71,9999,9999,9999,1435700340
51,15,17,Jits_Phase_5,72,9999,9999,9999,1436201072
51,15,17,Jits_Phase_5,73,9999,9999,9999,1436700748
51,15,17,Jits_Phase_5,74,9999,9999,9999,1437200512
51,15,17,Jits_Phase_5,75,9999,9999,9999,1437700184
51,15,17,Jits_Phase_5,76,9999,9999,9999,1438200924
51,15,17,Jits_Phase_5,77,9999,9999,9999,1438700600
51,15,17,Jits_Phase_5,78,9999,9999,9999,1439200368
51,15,17,Jits_Phase_5,79,9999,9999,9999,1439701064
51,15,17,Jits_Phase_5,80,9999,9999,9999,1440200812
51,15,17,Jits_Phase_5,81,9999,9999,9999,1440681084
51,15,17,Jits_Phase_5,82,9999,9999,9999,1441180744
51,15,17,Jits_Phase_5,83,9999,9999,9999,1441680496
51,15,17,Jits_Phase_5,84,9999,9999,9999,1442180188
51,15,17,Jits_Phase_5,85,9999,9999,9999,1442680904
51,15,17,Jits_Phase_5,86,9999,9999,9999,1443180648
51,15,17,Jits_Phase_5,87,9999,9999,9999,1443680332
51,15,17,Jits_Phase_5,88,9999,9999,9999,1444181068
51,15,17,Jits_Phase_5,89,9999,9999,9999,1444680828
51,15,17,Jits_Phase_5,90,9999,9999,9999,1445180520
51,15,17,Jits_Phase_5,91,9999,9999,9999,1445680200
51,15,17,Jits_Phase_5,92,9999,9999,9999,1446180928
51,15,17,Jits_Phase_5,93,9999,9999,9999,1446680680
51,15,17,Jits_Phase_5,94,9999,9999,9999,1447180344
51,15,17,Jits_Phase_5,95,9999,9999,9999,1447680108
51,15,17,Jits_Phase_5,96,9999,9999,9999,1448180844
51,15,17,Jits_Phase_5,97,9999,9999,9999,1448630376
51,15,17,Jits_Phase_5,98,9999,9999,9999,1449131096
51,15,17,Jits_Phase_5,99,9999,9999,9999,1449641044
51,15,17,Jits_Phase_5,100,9999,9999,9999,1450140792
51,15,17,Jits_Phase_5,101,9999,9999,9999,1450640480
51,15,17,Jits_Phase_5,102,9999,9999,9999,1451140160
51,15,17,Jits_Phase_5,103,9999,9999,9999,1451640888
51,15,17,Jits_Phase_5,104,9999,9999,9999,1452140636
51,15,17,Jits_Phase_5,105,9999,9999,9999,1452640380
51,15,17,Jits_Phase_5,106,9999,9999,9999,1453141104
51,15,17,Jits_Phase_5,107,9999,9999,9999,1453640776
51,15,17,Jits_Phase_5,108,9999,9999,9999,1454140520
51,15,17,Jits_Phase_5,109,9999,9999,9999,1454640200
51,15,17,Jits_Phase_5,110,9999,9999,9999,1455140992
51,15,17,Jits_Phase_5,111,9999,9999,9999,1455640664
51,15,17,Jits_Phase_5,112,9999,9999,9999,1456140352
51,15,17,Jits_Phase_5,113,9999,9999,9999,1456640104
51,15,17,Jits_Phase_5,114,9999,9999,9999,1457191016
51,15,17,Jits_Phase_5,115,9999,9999,9999,1457690684
51,15,17,Jits_Phase_5,116,9999,9999,9999,1458190432
51,15,17,Jits_Phase_5,117,9999,9999,9999,1458690124
51,15,17,Jits_Phase_5,118,9999,9999,9999,1459190860
51,15,17,Jits_Phase_5,119,9999,9999,9999,1459690600
51,15,17,Jits_Phase_5,120,9999,9999,9999,1460190284
51,15,17,Jits_Phase_5,121,9999,9999,9999,1460691072
51,15,17,Jits_Phase_5,122,9999,9999,9999,1461190756
51,15,17,Jits_Phase_5,123,9999,9999,9999,1461690444
51,15,17,Jits_Phase_5,124,9999,9999,9999,1462190188
51,15,17,Jits_Phase_5,125,9999,9999,9999,1462690912
51,15,17,Jits_Phase_5,126,9999,9999,9999,1463190608
51,15,17,Jits_Phase_5,127,9999,9999,9999,1463690352
51,15,17,Jits_Phase_5,128,9999,9999,9999,1464191076
51,15,17,Jits_Phase_5,129,9999,9999,9999,1464690768
51,15,17,Jits_Phase_5,130,9999,9999,9999,1465190456
51,15,17,Jits_Phase_5,131,9999,9999,9999,1465790520
51,15,17,Jits_Phase_5,132,9999,9999,9999,1466290276
51,15,17,Jits_Phase_5,133,9999,9999,9999,1466791004
51,15,17,Jits_Phase_5,134,9999,9999,9999,1467290748
51,15,17,Jits_Phase_5,135,9999,9999,9999,1467790420
51,15,17,Jits_Phase_5,136,9999,9999,9999,1468290112
51,15,17,Jits_Phase_5,137,9999,9999,9999,1468790900
51,15,17,Jits_Phase_5,138,9999,9999,9999,1469290588
51,15,17,Jits_Phase_5,139,9999,9999,9999,1469790280
51,15,17,Jits_Phase_5,140,9999,9999,9999,1470291012
51,15,17,Jits_Phase_5,141,9999,9999,9999,1470790780
51,15,17,Jits_Phase_5,142,9999,9999,9999,1471290468
51,15,17,Jits_Phase_5,143,9999,9999,9999,1471790160
51,15,17,Jits_Phase_5,144,9999,9999,9999,1472290892
51,15,17,Jits_Phase_5,145,9999,9999,9999,1472790640
51,15,17,Jits_Phase_5,146,9999,9999,9999,1473290336
51,15,17,Jits_Phase_5,147,9999,9999,9999,1473791060
51,15,17,Jits_Phase_5,148,9999,9999,9999,1474290804
51,15,17,Jits_Phase_5,149,9999,9999,9999,1474790472
51,15,17,Jits_Phase_5,150,9999,9999,9999,1475190864
51,15,17,Jits_Phase_5,151,9999,9999,9999,1475690616
51,15,17,Jits_Phase_5,152,9999,9999,9999,1476190308
51,15,17,Jits_Phase_5,153,9999,9999,9999,1476691028
51,15,17,Jits_Phase_5,154,9999,9999,9999,1477190776
51,15,17,Jits_Phase_5,155,9999,9999,9999,1477690460
51,15,17,Jits_Phase_5,156,9999,9999,9999,1478190200
51,15,17,Jits_Phase_5,157,9999,9999,9999,1478690912
51,15,17,Jits_Phase_5,158,9999,9999,9999,1479190592
51,15,17,Jits_Phase_5,159,9999,9999,9999,1479690336
51,15,17,Jits_Phase_5,160,9999,9999,9999,1480191076
51,15,17,Jits_Phase_5,161,9999,9999,9999,1480690768
51,15,17,Jits_Phase_5,162,9999,9999,9999,1481190516
51,15,17,Jits_Phase_5,163,9999,9999,9999,1481690184
51,15,17,Jits_Phase_5,164,9999,9999,9999,1482190952
51,15,17,Jits_Phase_5,165,9999,9999,9999,1482690632
51,15,17,Jits_Phase_5,166,9999,9999,9999,1483190396
51,15,17,Jits_Phase_5,167,9999,9999,9999,1483691132
51,15,17,Jits_Phase_5,168,9999,9999,9999,1484201076
51,15,17,Jits_Phase_5,169,9999,9999,9999,1484700748
51,16,7,Jits_ISO_8,0,5,56,103,1494971704
51,16,7,Jits_ISO_8,1,5,63,98,1494974952
51,16,7,Jits_ISO_8,2,5,80,127,1494977924
51,16,7,Jits_ISO_8,0,5,56,103,1495771580
51,16,7,Jits_ISO_8,1,5,63,98,1495774680
51,16,7,Jits_ISO_8,2,5,80,127,1495777872
51,16,7,Jits_ISO_8,0,5,80,127,1496512004
51,16,7,Jits_ISO_8,1,5,63,98,1496601944
51,16,7,Jits_ISO_8,2,1,48,19,1496604840
51,16,7,Jits_ISO_8,3,5,56,103,1496612132
51,16,7,Jits_ISO_8,0,5,56,103,1497332056
51,16,7,Jits_ISO_8,1,5,63,98,1497342252
51,16,7,Jits_ISO_8,2,1,48,40,1497379748
51,16,7,Jits_ISO_8,3,5,80,127,1497432528
51,16,7,Jits_ISO_8,0,5,63,98,1498102036
51,16,7,Jits_ISO_8,1,1,48,38,1498109860
51,16,7,Jits_ISO_8,2,5,80,127,1498131780
51,16,7,Jits_ISO_8,3,5,56,103,1498161456
51,16,7,Jits_ISO_8,0,1,48,44,1498864696
51,16,7,Jits_ISO_8,1,5,56,103,1498901956
51,16,7,Jits_ISO_8,2,5,80,127,1499002344
51,16,7,Jits_ISO_8,3,5,63,98,1499052544
51,16,7,Jits_ISO_8,0,5,56,103,1499701752
51,16,7,Jits_ISO_8,1,5,80,127,1499751804
51,16,7,Jits_ISO_8,2,1,48,46,1499752844
51,16,7,Jits_ISO_8,3,5,63,98,1499791588
51,16,7,Jits_ISO_8,0,5,80,127,1500532040
51,16,7,Jits_ISO_8,1,1,48,45,1500550000
51,16,7,Jits_ISO_8,2,5,63,98,1500561708
51,16,7,Jits_ISO_8,3,5,56,103,1500632512
51,16,7,Jits_ISO_8,0,5,63,98,1501361660
51,16,7,Jits_ISO_8,1,1,48,43,1501363672
51,16,7,Jits_ISO_8,2,5,56,103,1501392304
51,16,7,Jits_ISO_8,3,5,80,127,1501451744
51,16,7,Jits_ISO_8,0,5,56,103,1502101808
51,16,7,Jits_ISO_8,1,5,80,127,1502104876
51,16,7,Jits_ISO_8,2,1,48,39,1502161120
51,16,7,Jits_ISO_8,3,5,63,98,1502221624
51,16,7,Jits_ISO_8,0,1,48,45,1502931236
51,16,7,Jits_ISO_8,1,5,56,103,1502981632
51,16,7,Jits_ISO_8,2,5,80,127,1503021720
51,16,7,Jits_ISO_8,3,5,63,98,1503031532
51,16,7,Jits_ISO_8,0,1,48,39,1503725728
51,16,7,Jits_ISO_8,1,5,56,103,1503742384
51,16,7,Jits_ISO_8,2,5,80,127,1503761800
51,16,7,Jits_ISO_8,3,5,63,98,1503841580
51,16,7,Jits_ISO_8,0,5,80,127,1504531768
51,16,7,Jits_ISO_8,1,1,48,41,1504590860
51,16,7,Jits_ISO_8,2,5,56,103,1504632160
51,16,7,Jits_ISO_8,3,5,63,98,1504642580
51,16,7,Jits_ISO_8,0,5,63,98,1505301900
51,16,7,Jits_ISO_8,1,5,80,127,1505362664
51,16,7,Jits_ISO_8,2,5,56,103,1505371444
51,16,7,Jits_ISO_8,3,1,48,40,1505383252
51,16,7,Jits_ISO_8,0,5,56,103,1506101608
51,16,7,Jits_ISO_8,1,1,48,44,1506130876
51,16,7,Jits_ISO_8,2,5,63,98,1506172552
51,16,7,Jits_ISO_8,3,5,80,127,1506175692
51,16,7,Jits_ISO_8,0,1,48,40,1506912072
51,16,7,Jits_ISO_8,1,5,63,98,1506932028
51,16,7,Jits_ISO_8,2,5,56,103,1506982528
51,16,7,Jits_ISO_8,3,5,80,127,1506985596
51,16,7,Jits_ISO_8,0,5,56,103,1507692096
51,16,7,Jits_ISO_8,1,5,80,127,1507695016
51,16,7,Jits_ISO_8,2,1,48,42,1507736492
51,16,7,Jits_ISO_8,3,5,63,98,1507781852
51,16,7,Jits_ISO_8,0,1,48,44,1508522272
51,16,7,Jits_ISO_8,1,5,63,98,1508531512
51,16,7,Jits_ISO_8,2,5,56,103,1508621732
51,16,7,Jits_ISO_8,3,5,80,127,1508652528
51,16,7,Jits_ISO_8,0,5,56,103,1509322236
51,16,7,Jits_ISO_8,1,1,48,40,1509348604
51,16,7,Jits_ISO_8,2,5,63,98,1509421536
51,16,7,Jits_ISO_8,3,5,80,127,1509452092
51,16,7,Jits_ISO_8,0,1,48,41,1510124356
51,16,7,Jits_ISO_8,1,5,63,98,1510142440
51,16,7,Jits_ISO_8,2,5,56,103,1510151588
51,16,7,Jits_ISO_8,3,5,80,127,1510241632
51,16,7,Jits_ISO_8,0,1,48,41,1510936800
51,16,7,Jits_ISO_8,1,5,63,98,1510961484
51,16,7,Jits_ISO_8,2,5,56,103,1511042532
51,16,7,Jits_ISO_8,3,5,80,127,1511045600
51,16,7,Jits_ISO_8,0,5,80,127,1511722456
51,16,7,Jits_ISO_8,1,5,63,98,1511741796
51,16,7,Jits_ISO_8,2,1,48,43,1511774732
51,16,7,Jits_ISO_8,3,5,56,103,1511802476
51,16,7,Jits_ISO_8,0,1,48,43,1512523416
51,16,7,Jits_ISO_8,1,5,56,103,1512562180
51,16,7,Jits_ISO_8,2,5,63,98,1512581516
51,16,7,Jits_ISO_8,3,5,80,127,1512584804
51,16,7,Jits_ISO_8,0,5,63,98,1513302472
51,16,7,Jits_ISO_8,1,1,48,48,1513321856
51,16,7,Jits_ISO_8,2,5,80,127,1513382336
51,16,7,Jits_ISO_8,3,5,56,103,1513391412
51,16,7,Jits_ISO_8,0,5,63,98,1514121584
51,16,7,Jits_ISO_8,1,1,48,38,1514141068
51,16,7,Jits_ISO_8,2,5,56,103,1514142632
51,16,7,Jits_ISO_8,3,5,80,127,1514192240
51,16,7,Jits_ISO_8,0,1,48,38,1514892716
51,16,7,Jits_ISO_8,1,5,80,127,1514922332
51,16,7,Jits_ISO_8,2,5,63,98,1514962348
51,16,7,Jits_ISO_8,3,5,56,103,1514981636
51,16,7,Jits_ISO_8,0,1,48,42,1515694148
51,16,7,Jits_ISO_8,1,5,56,103,1515762152
51,16,7,Jits_ISO_8,2,5,63,98,1515772200
51,16,7,Jits_ISO_8,3,5,80,127,1515791748
51,16,7,Jits_ISO_8,0,5,56,103,1516492460
51,16,7,Jits_ISO_8,1,1,48,42,1516503000
51,16,7,Jits_ISO_8,2,5,63,98,1516582244
51,16,7,Jits_ISO_8,3,5,80,127,1516641868
51,16,7,Jits_ISO_8,0,1,48,44,1517295324
51,16,7,Jits_ISO_8,1,5,80,127,1517321728
51,16,7,Jits_ISO_8,2,5,56,103,1517331924
51,16,7,Jits_ISO_8,3,5,63,98,1517401516
51,16,7,Jits_ISO_8,0,1,48,38,1518137364
51,16,7,Jits_ISO_8,1,5,63,98,1518152228
51,16,7,Jits_ISO_8,2,5,80,127,1518242352
51,16,7,Jits_ISO_8,3,5,56,103,1518252472
51,16,7,Jits_ISO_8,0,5,63,98,1518892316
51,16,7,Jits_ISO_8,1,5,80,127,1518941472
51,16,7,Jits_ISO_8,2,5,56,103,1519002232
51,16,7,Jits_ISO_8,3,1,48,45,1519023412
51,16,7,Jits_ISO_8,0,5,56,103,1519721768
51,16,7,Jits_ISO_8,1,5,80,127,1519772120
51,16,7,Jits_ISO_8,2,1,48,39,1519773084
51,16,7,Jits_ISO_8,3,5,63,98,1519791452
51,16,7,Jits_ISO_8,0,5,56,103,1520492264
51,16,7,Jits_ISO_8,1,1,48,40,1520520268
51,16,7,Jits_ISO_8,2,5,80,127,1520552352
51,16,7,Jits_ISO_8,3,5,63,98,1520622340
51,16,7,Jits_ISO_8,0,5,56,103,1521291540
51,16,7,Jits_ISO_8,1,5,80,127,1521322336
51,16,7,Jits_ISO_8,2,5,63,98,1521352012
51,16,7,Jits_ISO_8,3,1,48,41,1521373736
51,16,7,Jits_ISO_8,0,1,48,39,1522111904
51,16,7,Jits_ISO_8,1,5,56,103,1522132232
51,16,7,Jits_ISO_8,2,5,80,127,1522151964
51,16,7,Jits_ISO_8,3,5,63,98,1522212192
51,16,7,Jits_ISO_8,0,1,48,43,1522918364
51,16,7,Jits_ISO_8,1,5,80,127,1523012208
51,16,7,Jits_ISO_8,2,5,56,103,1523022168
51,16,7,Jits_ISO_8,3,5,63,98,1523032512
51,16,7,Jits_ISO_8,0,5,56,103,1523771776
51,16,7,Jits_ISO_8,1,1,48,42,1523797368
51,16,7,Jits_ISO_8,2,5,80,127,1523811636
51,16,7,Jits_ISO_8,3,5,63,98,1523842360
51,16,7,Jits_ISO_8,0,5,56,103,1524541912
51,16,7,Jits_ISO_8,1,1,48,43,1524564436
51,16,7,Jits_ISO_8,2,5,63,98,1524571356
51,16,7,Jits_ISO_8,3,5,80,127,1524611368
51,16,7,Jits_ISO_8,0,5,80,127,1525292332
51,16,7,Jits_ISO_8,1,1,48,40,1525326992
51,16,7,Jits_ISO_8,2,5,63,98,1525341556
51,16,7,Jits_ISO_8,3,5,56,103,1525362016
51,16,7,Jits_ISO_8,0,1,48,42,1526064372
51,16,7,Jits_ISO_8,1,5,56,103,1526122084
51,16,7,Jits_ISO_8,2,5,80,127,1526191456
51,16,7,Jits_ISO_8,3,5,63,98,1526252096
51,16,7,Jits_ISO_8,0,5,80,127,1526921732
51,16,7,Jits_ISO_8,1,1,48,35,1526922696
51,16,7,Jits_ISO_8,2,5,63,98,1527011960
51,16,7,Jits_ISO_8,3,5,56,103,1527032104
51,16,7,Jits_ISO_8,0,5,63,98,1527741988
51,16,7,Jits_ISO_8,1,5,56,103,1527762148
51,16,7,Jits_ISO_8,2,1,48,37,1527772112
51,16,7,Jits_ISO_8,3,5,80,127,1527802180
51,16,7,Jits_ISO_8,0,5,80,127,1528501688
51,16,7,Jits_ISO_8,1,5,63,98,1528522224
51,16,7,Jits_ISO_8,2,1,48,28,1528540288
51,16,7,Jits_ISO_8,3,5,56,103,1528602108
51,16,7,Jits_ISO_8,0,5,63,98,1529292116
51,16,7,Jits_ISO_8,1,1,48,32,1529331008
51,16,7,Jits_ISO_8,2,5,56,103,1529401900
51,16,7,Jits_ISO_8,3,5,80,127,1529404964
51,16,7,Jits_ISO_8,0,5,63,98,1530112372
51,16,7,Jits_ISO_8,1,5,56,103,1530121740
51,16,7,Jits_ISO_8,2,5,80,127,1530124732
51,16,7,Jits_ISO_8,3,1,48,32,1530157148
51,16,7,Jits_ISO_8,0,1,48,37,1530888200
51,16,7,Jits_ISO_8,1,5,56,103,1530891900
51,16,7,Jits_ISO_8,2,5,80,127,1531011468
51,16,7,Jits_ISO_8,3,5,63,98,1531052380
51,16,7,Jits_ISO_8,0,1,48,36,1531708812
51,16,7,Jits_ISO_8,1,5,56,103,1531712068
51,16,7,Jits_ISO_8,2,5,80,127,1531791792
51,16,7,Jits_ISO_8,3,5,63,98,1531812160
51,16,7,Jits_ISO_8,0,1,48,16,1532508444
51,16,7,Jits_ISO_8,1,5,56,103,1532511848
51,16,7,Jits_ISO_8,2,5,63,98,1532622196
51,16,7,Jits_ISO_8,3,5,80,127,1532625488
51,16,7,Jits_ISO_8,0,5,56,103,1533342128
51,16,7,Jits_ISO_8,1,5,80,127,1533371880
51,16,7,Jits_ISO_8,2,1,48,27,1533373448
51,16,7,Jits_ISO_8,3,5,63,98,1533392260
51,16,7,Jits_ISO_8,0,5,63,98,1534122300
51,16,7,Jits_ISO_8,1,5,56,103,1534131748
51,16,7,Jits_ISO_8,2,5,80,127,1534142092
51,16,7,Jits_ISO_8,3,1,48,32,1534156000
51,16,7,Jits_ISO_8,0,1,48,35,1534899104
51,16,7,Jits_ISO_8,1,5,80,127,1534911732
51,16,7,Jits_ISO_8,2,5,56,103,1534961960
51,16,7,Jits_ISO_8,3,5,63,98,1535001960
51,16,7,Jits_ISO_8,0,1,48,32,1535716008
51,16,7,Jits_ISO_8,1,5,80,127,1535732072
51,16,7,Jits_ISO_8,2,5,63,98,1535751484
51,16,7,Jits_ISO_8,3,5,56,103,1535801836
51,16,7,Jits_ISO_8,0,1,48,30,1536510016
51,16,7,Jits_ISO_8,1,5,80,127,1536542120
51,16,7,Jits_ISO_8,2,5,56,103,1536571724
51,16,7,Jits_ISO_8,3,5,63,98,1536642512
51,16,7,Jits_ISO_8,0,1,48,33,1537374548
51,16,7,Jits_ISO_8,1,5,56,103,1537391956
51,16,7,Jits_ISO_8,2,5,80,127,1537402080
51,16,7,Jits_ISO_8,3,5,63,98,1537442092
51,16,7,Jits_ISO_8,0,5,56,103,1538101696
51,16,7,Jits_ISO_8,1,5,63,98,1538122080
51,16,7,Jits_ISO_8,2,1,48,32,1538157408
51,16,7,Jits_ISO_8,3,5,80,127,1538191756
51,16,7,Jits_ISO_8,0,1,48,31,1538885648
51,16,7,Jits_ISO_8,1,5,63,98,1538921788
51,16,7,Jits_ISO_8,2,5,80,127,1538982312
51,16,7,Jits_ISO_8,3,5,56,103,1539001652
51,16,7,Jits_ISO_8,0,5,80,127,1539712360
51,16,7,Jits_ISO_8,1,1,48,31,1539721556
51,16,7,Jits_ISO_8,2,5,56,103,1539742028
51,16,7,Jits_ISO_8,3,5,63,98,1539771856
51,16,7,Jits_ISO_8,0,1,48,34,1540494136
51,16,7,Jits_ISO_8,1,5,56,103,1540512072
51,16,7,Jits_ISO_8,2,5,63,98,1540571592
51,16,7,Jits_ISO_8,3,5,80,127,1540631968
51,16,7,Jits_ISO_8,0,1,48,43,1541281716
51,16,7,Jits_ISO_8,1,5,80,127,1541332460
51,16,7,Jits_ISO_8,2,5,56,103,1541351752
51,16,7,Jits_ISO_8,3,5,63,98,1541421564
51,16,7,Jits_ISO_8,0,5,80,127,1542132052
51,16,7,Jits_ISO_8,1,5,63,98,1542151764
51,16,7,Jits_ISO_8,2,1,48,37,1542167088
51,16,7,Jits_ISO_8,3,5,56,103,1542182180
51,16,7,Jits_ISO_8,0,5,80,127,1542921660
51,16,7,Jits_ISO_8,1,5,63,98,1542941968
51,16,7,Jits_ISO_8,2,1,48,37,1542977896
51,16,7,Jits_ISO_8,3,5,56,103,1543001528
51,16,7,Jits_ISO_8,0,5,80,127,1543722576
51,16,7,Jits_ISO_8,1,1,48,36,1543770656
51,16,7,Jits_ISO_8,2,5,56,103,1543821848
51,16,7,Jits_ISO_8,3,5,63,98,1543852496
51,16,7,Jits_ISO_8,0,5,63,98,1544511816
51,16,7,Jits_ISO_8,1,5,80,127,1544562240
51,16,7,Jits_ISO_8,2,5,56,103,1544581580
51,16,7,Jits_ISO_8,3,1,48,38,1544600740
51,16,7,Jits_ISO_8,0,1,48,38,1545333220
51,16,7,Jits_ISO_8,1,5,80,127,1545351676
51,16,7,Jits_ISO_8,2,5,56,103,1545382396
51,16,7,Jits_ISO_8,3,5,63,98,1545385688
51,16,7,Jits_ISO_8,0,1,48,38,1546141388
51,16,7,Jits_ISO_8,1,5,63,98,1546182096
51,16,7,Jits_ISO_8,2,5,56,103,1546222060
51,16,7,Jits_ISO_8,3,5,80,127,1546242580
51,16,7,Jits_ISO_8,0,5,80,127,1546922480
51,16,7,Jits_ISO_8,1,1,48,38,1546942456
51,16,7,Jits_ISO_8,2,5,63,98,1547002144
51,16,7,Jits_ISO_8,3,5,56,103,1547042068
51,16,7,Jits_ISO_8,0,1,48,34,1547737996
51,16,7,Jits_ISO_8,1,5,63,98,1547741556
51,16,7,Jits_ISO_8,2,5,80,127,1547821504
51,16,7,Jits_ISO_8,3,5,56,103,1547841948
51,16,7,Jits_ISO_8,0,1,48,36,1548575184
51,16,7,Jits_ISO_8,1,5,56,103,1548582476
51,16,7,Jits_ISO_8,2,5,63,98,1548591476
51,16,7,Jits_ISO_8,3,5,80,127,1548632832
51,16,7,Jits_ISO_8,0,5,56,103,1549302104
51,16,7,Jits_ISO_8,1,5,80,127,1549305244
51,16,7,Jits_ISO_8,2,1,48,34,1549357360
51,16,7,Jits_ISO_8,3,5,63,98,1549442572
51,16,7,Jits_ISO_8,0,5,56,103,1550091700
51,16,7,Jits_ISO_8,1,1,48,35,1550095340
51,16,7,Jits_ISO_8,2,5,63,98,1550181756
51,16,7,Jits_ISO_8,3,5,80,127,1550252616
51,16,7,Jits_ISO_8,0,1,48,36,1550915436
51,16,7,Jits_ISO_8,1,5,63,98,1550972480
51,16,7,Jits_ISO_8,2,5,80,127,1550975620
51,16,7,Jits_ISO_8,3,5,56,103,1551031808
51,16,7,Jits_ISO_8,0,1,48,37,1551784524
51,16,7,Jits_ISO_8,1,5,80,127,1551811900
51,16,7,Jits_ISO_8,2,5,56,103,1551832608
51,16,7,Jits_ISO_8,3,5,63,98,1551841684
51,16,7,Jits_ISO_8,0,5,56,103,1552521568
51,16,7,Jits_ISO_8,1,5,63,98,1552531912
51,16,7,Jits_ISO_8,2,1,48,35,1552575332
51,16,7,Jits_ISO_8,3,5,80,127,1552601684
51,16,7,Jits_ISO_8,0,5,80,127,1553322708
51,16,7,Jits_ISO_8,1,1,48,34,1553332200
51,16,7,Jits_ISO_8,2,5,56,103,1553371436
51,16,7,Jits_ISO_8,3,5,63,98,1553421788
51,16,7,Jits_ISO_8,0,1,48,36,1554113640
51,16,7,Jits_ISO_8,1,5,56,103,1554201876
51,16,7,Jits_ISO_8,2,5,63,98,1554212356
51,16,7,Jits_ISO_8,3,5,80,127,1554251996
51,16,7,Jits_ISO_8,0,5,56,103,1554942556
51,16,7,Jits_ISO_8,1,1,48,35,1554976920
51,16,7,Jits_ISO_8,2,5,63,98,1554982344
51,16,7,Jits_ISO_8,3,5,80,127,1555032468
51,16,7,Jits_ISO_8,0,5,80,127,1555702352
51,16,7,Jits_ISO_8,1,1,48,33,1555746304
51,16,7,Jits_ISO_8,2,5,56,103,1555752252
51,16,7,Jits_ISO_8,3,5,63,98,1555771740
51,16,7,Jits_ISO_8,0,1,48,30,1556505040
51,16,7,Jits_ISO_8,1,5,80,127,1556512408
51,16,7,Jits_ISO_8,2,5,63,98,1556571532
51,16,7,Jits_ISO_8,3,5,56,103,1556652508
51,16,7,Jits_ISO_8,0,5,80,127,1557292272
51,16,7,Jits_ISO_8,1,1,48,35,1557300116
51,16,7,Jits_ISO_8,2,5,56,103,1557332428
51,16,7,Jits_ISO_8,3,5,63,98,1557351692
51,16,7,Jits_ISO_8,0,1,48,34,1558048412
51,16,7,Jits_ISO_8,1,5,56,103,1558142480
51,16,7,Jits_ISO_8,2,5,80,127,1558151464
51,16,7,Jits_ISO_8,3,5,63,98,1558191476
51,16,7,Jits_ISO_8,0,1,48,33,1558853152
51,16,7,Jits_ISO_8,1,5,56,103,1559011728
51,16,7,Jits_ISO_8,2,5,63,98,1559051740
51,16,7,Jits_ISO_8,3,5,80,127,1559055028
51,16,7,Jits_ISO_8,0,5,63,98,1559701820
51,16,7,Jits_ISO_8,1,5,80,127,1559741760
51,16,7,Jits_ISO_8,2,1,48,31,1559785428
51,16,7,Jits_ISO_8,3,5,56,103,1559811384
51,16,7,Jits_ISO_8,0,5,63,98,1560492384
51,16,7,Jits_ISO_8,1,5,56,103,1560572208
51,16,7,Jits_ISO_8,2,1,48,31,1560593684
51,16,7,Jits_ISO_8,3,5,80,127,1560631620
51,16,7,Jits_ISO_8,0,5,80,127,1561302384
51,16,7,Jits_ISO_8,1,5,63,98,1561351464
51,16,7,Jits_ISO_8,2,5,56,103,1561382188
51,16,7,Jits_ISO_8,3,1,48,36,1561406128
51,16,7,Jits_ISO_8,0,5,56,103,1562092212
51,16,7,Jits_ISO_8,1,5,63,98,1562142344
51,16,7,Jits_ISO_8,2,1,48,35,1562151716
51,16,7,Jits_ISO_8,3,5,80,127,1562153356
51,16,7,Jits_ISO_8,0,1,48,36,1562896312
51,16,7,Jits_ISO_8,1,5,56,103,1562901820
51,16,7,Jits_ISO_8,2,5,63,98,1563011496
51,16,7,Jits_ISO_8,3,5,80,127,1563032176
51,16,7,Jits_ISO_8,0,5,63,98,1563701684
51,16,7,Jits_ISO_8,1,1,48,34,1563718884
51,16,7,Jits_ISO_8,2,5,80,127,1563751660
51,16,7,Jits_ISO_8,3,5,56,103,1563842148
51,16,7,Jits_ISO_8,0,5,63,98,1564492252
51,16,7,Jits_ISO_8,1,5,80,127,1564521780
51,16,7,Jits_ISO_8,2,1,48,31,1564570152
51,16,7,Jits_ISO_8,3,5,56,103,1564612052
51,16,7,Jits_ISO_8,0,1,48,38,1565289836
51,16,7,Jits_ISO_8,1,5,63,98,1565291800
51,16,7,Jits_ISO_8,2,5,56,103,1565302220
51,16,7,Jits_ISO_8,3,5,80,127,1565401356
51,16,7,Jits_ISO_8,0,1,48,28,1566103764
51,16,7,Jits_ISO_8,1,5,63,98,1566192076
51,16,7,Jits_ISO_8,2,5,80,127,1566221588
51,16,7,Jits_ISO_8,3,5,56,103,1566252460
51,16,7,Jits_ISO_8,0,1,48,36,1566976552
51,16,7,Jits_ISO_8,1,5,80,127,1567012248
51,16,7,Jits_ISO_8,2,5,63,98,1567021472
51,16,7,Jits_ISO_8,3,5,56,103,1567052192
51,16,7,Jits_ISO_8,0,5,80,127,1567711500
51,16,7,Jits_ISO_8,1,5,63,98,1567732180
51,16,7,Jits_ISO_8,2,5,56,103,1567782232
51,16,7,Jits_ISO_8,3,1,48,34,1567821920
51,16,7,Jits_ISO_8,0,1,48,32,1568540732
51,16,7,Jits_ISO_8,1,5,63,98,1568542304
51,16,7,Jits_ISO_8,2,5,80,127,1568601500
51,16,7,Jits_ISO_8,3,5,56,103,1568621884
51,16,7,Jits_ISO_8,0,5,63,98,1569301868
51,16,7,Jits_ISO_8,1,5,56,103,1569352220
51,16,7,Jits_ISO_8,2,5,80,127,1569362192
51,16,7,Jits_ISO_8,3,1,48,35,1569383892
51,16,7,Jits_ISO_8,0,1,48,33,1570121096
51,16,7,Jits_ISO_8,1,5,56,103,1570132356
51,16,7,Jits_ISO_8,2,5,80,127,1570141504
51,16,7,Jits_ISO_8,3,5,63,98,1570241960
51,16,7,Jits_ISO_8,0,5,80,127,1570892136
51,16,7,Jits_ISO_8,1,5,63,98,1570902332
51,16,7,Jits_ISO_8,2,1,48,31,1570922688
51,16,7,Jits_ISO_8,3,5,56,103,1571052104
51,16,7,Jits_ISO_8,0,5,63,98,1571702052
51,16,7,Jits_ISO_8,1,5,80,127,1571741992
51,16,7,Jits_ISO_8,2,1,48,34,1571769544
51,16,7,Jits_ISO_8,3,5,56,103,1571821876
51,16,7,Jits_ISO_8,0,5,56,103,1572491572
51,16,7,Jits_ISO_8,1,1,48,35,1572538660
51,16,7,Jits_ISO_8,2,5,80,127,1572592064
51,16,7,Jits_ISO_8,3,5,63,98,1572611400
51,16,7,Jits_ISO_8,0,1,48,28,1573297920
51,16,7,Jits_ISO_8,1,5,80,127,1573352076
51,16,7,Jits_ISO_8,2,5,56,103,1573362124
51,16,7,Jits_ISO_8,3,5,63,98,1573452092
51,16,7,Jits_ISO_8,0,5,56,103,1574151644
51,16,7,Jits_ISO_8,1,5,63,98,1574172104
51,16,7,Jits_ISO_8,2,1,48,33,1574187952
51,16,7,Jits_ISO_8,3,5,80,127,1574251892
51,16,7,Jits_ISO_8,0,5,63,98,1574902072
51,16,7,Jits_ISO_8,1,1,48,37,1574989844
51,16,7,Jits_ISO_8,2,5,56,103,1574992200
51,16,7,Jits_ISO_8,3,5,80,127,1574995264
51,16,7,Jits_ISO_8,0,1,48,40,1575731444
51,16,7,Jits_ISO_8,1,5,56,103,1575733004
51,16,7,Jits_ISO_8,2,5,80,127,1575792052
51,16,7,Jits_ISO_8,3,5,63,98,1575802172
51,16,7,Jits_ISO_8,0,1,48,35,1576568120
51,16,7,Jits_ISO_8,1,5,80,127,1576581564
51,16,7,Jits_ISO_8,2,5,56,103,1576591908
51,16,7,Jits_ISO_8,3,5,63,98,1576595052
51,16,7,Jits_ISO_8,0,5,56,103,1577342388
51,16,7,Jits_ISO_8,1,5,80,127,1577351392
51,16,7,Jits_ISO_8,2,5,63,98,1577372148
51,16,7,Jits_ISO_8,3,1,48,44,1577380968
51,16,7,Jits_ISO_8,0,5,63,98,1578112292
51,16,7,Jits_ISO_8,1,1,48,45,1578124404
51,16,7,Jits_ISO_8,2,5,80,127,1578171928
51,16,7,Jits_ISO_8,3,5,56,103,1578221844
51,16,7,Jits_ISO_8,0,1,48,37,1578922160
51,16,7,Jits_ISO_8,1,5,63,98,1578991964
51,16,7,Jits_ISO_8,2,5,56,103,1579002160
51,16,7,Jits_ISO_8,3,5,80,127,1579052272
51,16,7,Jits_ISO_8,0,5,63,98,1579692384
51,16,7,Jits_ISO_8,1,5,80,127,1579711876
51,16,7,Jits_ISO_8,2,5,56,103,1579722144
51,16,7,Jits_ISO_8,3,1,48,36,1579790472
51,16,7,Jits_ISO_8,0,5,63,98,1580492160
51,16,7,Jits_ISO_8,1,5,80,127,1580495524
51,16,7,Jits_ISO_8,2,5,56,103,1580531972
51,16,7,Jits_ISO_8,3,1,48,40,1580554720
51,16,7,Jits_ISO_8,0,1,48,35,1581285476
51,16,7,Jits_ISO_8,1,5,63,98,1581361700
51,16,7,Jits_ISO_8,2,5,80,127,1581392108
51,16,7,Jits_ISO_8,3,5,56,103,1581401332
51,16,7,Jits_ISO_8,0,5,56,103,1582112040
51,16,7,Jits_ISO_8,1,5,80,127,1582141792
51,16,7,Jits_ISO_8,2,1,48,27,1582165436
51,16,7,Jits_ISO_8,3,5,63,98,1582171460
51,16,7,Jits_ISO_8,0,1,48,36,1582896364
51,16,7,Jits_ISO_8,1,5,63,98,1583012212
51,16,7,Jits_ISO_8,2,5,56,103,1583052076
51,16,7,Jits_ISO_8,3,5,80,127,1583055068
51,16,7,Jits_ISO_8,0,5,80,127,1583711696
51,16,7,Jits_ISO_8,1,5,56,103,1583791420
51,16,7,Jits_ISO_8,2,1,48,37,1583792312
51,16,7,Jits_ISO_8,3,5,63,98,1583841788
51,16,7,Jits_ISO_8,0,5,80,127,1584491868
51,16,7,Jits_ISO_8,1,5,56,103,1584512252
51,16,7,Jits_ISO_8,2,1,48,40,1584552828
51,16,7,Jits_ISO_8,3,5,63,98,1584601576
51,16,7,Jits_ISO_8,0,1,48,40,1585320924
51,16,7,Jits_ISO_8,1,5,80,127,1585331664
51,16,7,Jits_ISO_8,2,5,63,98,1585371776
51,16,7,Jits_ISO_8,3,5,56,103,1585411492
51,16,7,Jits_ISO_8,0,1,48,33,1586097096
51,16,7,Jits_ISO_8,1,5,63,98,1586101776
51,16,7,Jits_ISO_8,2,5,80,127,1586161972
51,16,7,Jits_ISO_8,3,5,56,103,1586191792
51,16,7,Jits_ISO_8,0,1,48,43,1586884676
51,16,7,Jits_ISO_8,1,5,56,103,1586902332
51,16,7,Jits_ISO_8,2,5,80,127,1586932008
51,16,7,Jits_ISO_8,3,5,63,98,1587022052
51,16,7,Jits_ISO_8,0,1,48,36,1587682536
51,16,7,Jits_ISO_8,1,5,56,103,1587712604
51,16,7,Jits_ISO_8,2,5,80,127,1587821832
51,16,7,Jits_ISO_8,3,5,63,98,1587851728
51,16,7,Jits_ISO_8,0,1,48,24,1588509208
51,16,7,Jits_ISO_8,1,5,56,103,1588562364
51,16,7,Jits_ISO_8,2,5,63,98,1588621768
51,16,7,Jits_ISO_8,3,5,80,127,1588652640
51,16,7,Jits_ISO_8,0,5,56,103,1589332268
51,16,7,Jits_ISO_8,1,1,48,35,1589351200
51,16,7,Jits_ISO_8,2,5,63,98,1589401944
51,16,7,Jits_ISO_8,3,5,80,127,1589421360
51,16,7,Jits_ISO_8,0,5,80,127,1590102544
51,16,7,Jits_ISO_8,1,1,48,33,1590114732
51,16,7,Jits_ISO_8,2,5,63,98,1590121728
51,16,7,Jits_ISO_8,3,5,56,103,1590172080
51,16,7,Jits_ISO_8,0,9999,9999,9999,1495369816
51,16,7,Jits_ISO_8,1,9999,9999,9999,1496169592
51,16,7,Jits_ISO_8,2,9999,9999,9999,1496969292
51,16,7,Jits_ISO_8,3,9999,9999,9999,1497770060
51,16,7,Jits_ISO_8,4,9999,9999,9999,1498569780
51,16,7,Jits_ISO_8,5,9999,9999,9999,1499369592
51,16,7,Jits_ISO_8,6,9999,9999,9999,1500169300
51,16,7,Jits_ISO_8,7,9999,9999,9999,1500970072
51,16,7,Jits_ISO_8,8,9999,9999,9999,1501769800
51,16,7,Jits_ISO_8,9,9999,9999,9999,1502569572
51,16,7,Jits_ISO_8,10,9999,9999,9999,1503369304
51,16,7,Jits_ISO_8,11,9999,9999,9999,1504170060
51,16,7,Jits_ISO_8,12,9999,9999,9999,1504969852
51,16,7,Jits_ISO_8,13,9999,9999,9999,1505769524
51,16,7,Jits_ISO_8,14,9999,9999,9999,1506569296
51,16,7,Jits_ISO_8,15,9999,9999,9999,1507370056
51,16,7,Jits_ISO_8,16,9999,9999,9999,1508169824
51,16,7,Jits_ISO_8,17,9999,9999,9999,1508969552
51,16,7,Jits_ISO_8,18,9999,9999,9999,1509769268
51,16,7,Jits_ISO_8,19,9999,9999,9999,1510570040
51,16,7,Jits_ISO_8,20,9999,9999,9999,1511369820
51,16,7,Jits_ISO_8,21,9999,9999,9999,1512169552
51,16,7,Jits_ISO_8,22,9999,9999,9999,1512969268
51,16,7,Jits_ISO_8,23,9999,9999,9999,1513770096
51,16,7,Jits_ISO_8,24,9999,9999,9999,1514569804
51,16,7,Jits_ISO_8,25,9999,9999,9999,1515369584
51,16,7,Jits_ISO_8,26,9999,9999,9999,1516169300
51,16,7,Jits_ISO_8,27,9999,9999,9999,1516970056
51,16,7,Jits_ISO_8,28,9999,9999,9999,1517769780
51,16,7,Jits_ISO_8,29,9999,9999,9999,1518569596
51,16,7,Jits_ISO_8,30,9999,9999,9999,1519369304
51,16,7,Jits_ISO_8,31,9999,9999,9999,1520170060
51,16,7,Jits_ISO_8,32,9999,9999,9999,1520969780
51,16,7,Jits_ISO_8,33,9999,9999,9999,1521769572
51,16,7,Jits_ISO_8,34,9999,9999,9999,1522569292
51,16,7,Jits_ISO_8,35,9999,9999,9999,1523370060
51,16,7,Jits_ISO_8,36,9999,9999,9999,1524169780
51,16,7,Jits_ISO_8,37,9999,9999,9999,1524969528
51,16,7,Jits_ISO_8,38,9999,9999,9999,1525769320
51,16,7,Jits_ISO_8,39,9999,9999,9999,1526570092
51,16,7,Jits_ISO_8,40,9999,9999,9999,1527369804
51,16,7,Jits_ISO_8,41,9999,9999,9999,1528169528
51,16,7,Jits_ISO_8,42,9999,9999,9999,1528969312
51,16,7,Jits_ISO_8,43,9999,9999,9999,1529770072
51,16,7,Jits_ISO_8,44,9999,9999,9999,1530569840
51,16,7,Jits_ISO_8,45,9999,9999,9999,1531369576
51,16,7,Jits_ISO_8,46,9999,9999,9999,1532169284
51,16,7,Jits_ISO_8,47,9999,9999,9999,1532970036
51,16,7,Jits_ISO_8,48,9999,9999,9999,1533769820
51,16,7,Jits_ISO_8,49,9999,9999,9999,1534569540
51,16,7,Jits_ISO_8,50,9999,9999,9999,1535369324
51,16,7,Jits_ISO_8,51,9999,9999,9999,1536170084
51,16,7,Jits_ISO_8,52,9999,9999,9999,1536969796
51,16,7,Jits_ISO_8,53,9999,9999,9999,1537769540
51,16,7,Jits_ISO_8,54,9999,9999,9999,1538569316
51,16,7,Jits_ISO_8,55,9999,9999,9999,1539370088
51,16,7,Jits_ISO_8,56,9999,9999,9999,1540169792
51,16,7,Jits_ISO_8,57,9999,9999,9999,1540969592
51,16,7,Jits_ISO_8,58,9999,9999,9999,1541769304
51,16,7,Jits_ISO_8,59,9999,9999,9999,1542570056
51,16,7,Jits_ISO_8,60,9999,9999,9999,1543369852
51,16,7,Jits_ISO_8,61,9999,9999,9999,1544169528
51,16,7,Jits_ISO_8,62,9999,9999,9999,1544969324
51,16,7,Jits_ISO_8,63,9999,9999,9999,1545770072
51,16,7,Jits_ISO_8,64,9999,9999,9999,1546569792
51,16,7,Jits_ISO_8,65,9999,9999,9999,1547369580
51,16,7,Jits_ISO_8,66,9999,9999,9999,1548169308
51,16,7,Jits_ISO_8,67,9999,9999,9999,1548970072
51,16,7,Jits_ISO_8,68,9999,9999,9999,1549769844
51,16,7,Jits_ISO_8,69,9999,9999,9999,1550569592
51,16,7,Jits_ISO_8,70,9999,9999,9999,1551369312
51,16,7,Jits_ISO_8,71,9999,9999,9999,1552170076
51,16,7,Jits_ISO_8,72,9999,9999,9999,1552969784
51,16,7,Jits_ISO_8,73,9999,9999,9999,1553769584
51,16,7,Jits_ISO_8,74,9999,9999,9999,1554569320
51,16,7,Jits_ISO_8,75,9999,9999,9999,1555370080
51,16,7,Jits_ISO_8,76,9999,9999,9999,1556169804
51,16,7,Jits_ISO_8,77,9999,9999,9999,1556969556
51,16,7,Jits_ISO_8,78,9999,9999,9999,1557769332
51,16,7,Jits_ISO_8,79,9999,9999,9999,1558570100
51,16,7,Jits_ISO_8,80,9999,9999,9999,1559369808
51,16,7,Jits_ISO_8,81,9999,9999,9999,1560169592
51,16,7,Jits_ISO_8,82,9999,9999,9999,1560969304
51,16,7,Jits_ISO_8,83,9999,9999,9999,1561770056
51,16,7,Jits_ISO_8,84,9999,9999,9999,1562569848
51,16,7,Jits_ISO_8,85,9999,9999,9999,1563369528
51,16,7,Jits_ISO_8,86,9999,9999,9999,1564169312
51,16,7,Jits_ISO_8,87,9999,9999,9999,1564970064
51,16,7,Jits_ISO_8,88,9999,9999,9999,1565769840
51,16,7,Jits_ISO_8,89,9999,9999,9999,1566569556
51,16,7,Jits_ISO_8,90,9999,9999,9999,1567369276
51,16,7,Jits_ISO_8,91,9999,9999,9999,1568170100
51,16,7,Jits_ISO_8,92,9999,9999,9999,1568969832
51,16,7,Jits_ISO_8,93,9999,9999,9999,1569769564
51,16,7,Jits_ISO_8,94,9999,9999,9999,1570569272
51,16,7,Jits_ISO_8,95,9999,9999,9999,1571370100
51,16,7,Jits_ISO_8,96,9999,9999,9999,1572169824
51,16,7,Jits_ISO_8,97,9999,9999,9999,1572969536
51,16,7,Jits_ISO_8,98,9999,9999,9999,1573769268
51,16,7,Jits_ISO_8,99,9999,9999,9999,1574570096
51,16,7,Jits_ISO_8,100,9999,9999,9999,1575369812
51,16,7,Jits_ISO_8,101,9999,9999,9999,1576169548
51,16,7,Jits_ISO_8,102,9999,9999,9999,1576969324
51,16,7,Jits_ISO_8,103,9999,9999,9999,1577770080
51,16,7,Jits_ISO_8,104,9999,9999,9999,1578569804
51,16,7,Jits_ISO_8,105,9999,9999,9999,1579369596
51,16,7,Jits_ISO_8,106,9999,9999,9999,1580169296
51,16,7,Jits_ISO_8,107,9999,9999,9999,1580970108
51,16,7,Jits_ISO_8,108,9999,9999,9999,1581769820
51,16,7,Jits_ISO_8,109,9999,9999,9999,1582569548
51,16,7,Jits_ISO_8,110,9999,9999,9999,1583369272
51,16,7,Jits_ISO_8,111,9999,9999,9999,1584170108
51,16,7,Jits_ISO_8,112,9999,9999,9999,1584969824
51,16,7,Jits_ISO_8,113,9999,9999,9999,1585769552
51,16,7,Jits_ISO_8,114,9999,9999,9999,1586569332
51,16,7,Jits_ISO_8,115,9999,9999,9999,1587370084
51,16,7,Jits_ISO_8,116,9999,9999,9999,1588169800
51,16,7,Jits_ISO_8,117,9999,9999,9999,1588969544
51,16,7,Jits_ISO_8,118,9999,9999,9999,1589769328
51,16,7,Jits_ISO_8,119,9999,9999,9999,1590570092
51,17,16,Jits_ISO_5,0,5,56,103,1599615472
51,17,16,Jits_ISO_5,1,5,63,98,1599618492
51,17,16,Jits_ISO_5,2,5,80,127,1599621616
51,17,16,Jits_ISO_5,0,5,56,103,1600115268
51,17,16,Jits_ISO_5,1,5,63,98,1600118368
51,17,16,Jits_ISO_5,2,5,80,127,1600121488
51,17,16,Jits_ISO_5,0,5,56,103,1600614632
51,17,16,Jits_ISO_5,1,5,80,127,1600624976
51,17,16,Jits_ISO_5,2,1,48,40,1600632208
51,17,16,Jits_ISO_5,3,5,63,98,1600644528
51,17,16,Jits_ISO_5,0,5,63,98,1601065456
51,17,16,Jits_ISO_5,1,5,80,127,1601095132
51,17,16,Jits_ISO_5,2,5,56,103,1601105252
51,17,16,Jits_ISO_5,3,1,48,42,1601127320
51,17,16,Jits_ISO_5,0,1,48,45,1601615204
51,17,16,Jits_ISO_5,1,5,80,127,1601624440
51,17,16,Jits_ISO_5,2,5,56,103,1601634784
51,17,16,Jits_ISO_5,3,5,63,98,1601665284
51,17,16,Jits_ISO_5,0,5,63,98,1602115264
51,17,16,Jits_ISO_5,1,1,48,43,1602119504
51,17,16,Jits_ISO_5,2,5,56,103,1602144488
51,17,16,Jits_ISO_5,3,5,80,127,1602155052
51,17,16,Jits_ISO_5,0,5,56,103,1602564360
51,17,16,Jits_ISO_5,1,5,63,98,1602614708
51,17,16,Jits_ISO_5,2,5,80,127,1602635164
51,17,16,Jits_ISO_5,3,1,48,47,1602660076
51,17,16,Jits_ISO_5,0,5,80,127,1603065444
51,17,16,Jits_ISO_5,1,5,63,98,1603115348
51,17,16,Jits_ISO_5,2,1,48,46,1603137944
51,17,16,Jits_ISO_5,3,5,56,103,1603155280
51,17,16,Jits_ISO_5,0,5,56,103,1603564896
51,17,16,Jits_ISO_5,1,5,63,98,1603594572
51,17,16,Jits_ISO_5,2,1,48,42,1603643240
51,17,16,Jits_ISO_5,3,5,80,127,1603665216
51,17,16,Jits_ISO_5,0,5,56,103,1604064720
51,17,16,Jits_ISO_5,1,1,48,41,1604117884
51,17,16,Jits_ISO_5,2,5,80,127,1604125324
51,17,16,Jits_ISO_5,3,5,63,98,1604154700
51,17,16,Jits_ISO_5,0,5,56,103,1604574580
51,17,16,Jits_ISO_5,1,5,63,98,1604584776
51,17,16,Jits_ISO_5,2,1,48,42,1604598676
51,17,16,Jits_ISO_5,3,5,80,127,1604624708
51,17,16,Jits_ISO_5,0,5,63,98,1605065308
51,17,16,Jits_ISO_5,1,1,48,36,1605088080
51,17,16,Jits_ISO_5,2,5,80,127,1605145044
51,17,16,Jits_ISO_5,3,5,56,103,1605155168
51,17,16,Jits_ISO_5,0,1,48,43,1605588108
51,17,16,Jits_ISO_5,1,5,63,98,1605615108
51,17,16,Jits_ISO_5,2,5,56,103,1605654740
51,17,16,Jits_ISO_5,3,5,80,127,1605658036
51,17,16,Jits_ISO_5,0,5,56,103,1606074884
51,17,16,Jits_ISO_5,1,5,63,98,1606085004
51,17,16,Jits_ISO_5,2,1,48,39,1606107180
51,17,16,Jits_ISO_5,3,5,80,127,1606125184
51,17,16,Jits_ISO_5,0,5,56,103,1606565336
51,17,16,Jits_ISO_5,1,5,63,98,1606568256
51,17,16,Jits_ISO_5,2,5,80,127,1606584676
51,17,16,Jits_ISO_5,3,1,48,43,1606600148
51,17,16,Jits_ISO_5,0,1,48,40,1607071916
51,17,16,Jits_ISO_5,1,5,80,127,1607075396
51,17,16,Jits_ISO_5,2,5,56,103,1607085296
51,17,16,Jits_ISO_5,3,5,63,98,1607155144
51,17,16,Jits_ISO_5,0,5,63,98,1607564576
51,17,16,Jits_ISO_5,1,5,56,103,1607585184
51,17,16,Jits_ISO_5,2,1,48,41,1607599388
51,17,16,Jits_ISO_5,3,5,80,127,1607665140
51,17,16,Jits_ISO_5,0,5,56,103,1608074572
51,17,16,Jits_ISO_5,1,5,80,127,1608114512
51,17,16,Jits_ISO_5,2,5,63,98,1608124856
51,17,16,Jits_ISO_5,3,1,48,39,1608127752
51,17,16,Jits_ISO_5,0,5,80,127,1608575364
51,17,16,Jits_ISO_5,1,5,63,98,1608605188
51,17,16,Jits_ISO_5,2,1,48,43,1608629052
51,17,16,Jits_ISO_5,3,5,56,103,1608644968
51,17,16,Jits_ISO_5,0,5,56,103,1609094368
51,17,16,Jits_ISO_5,1,5,63,98,1609125236
51,17,16,Jits_ISO_5,2,1,48,42,1609126576
51,17,16,Jits_ISO_5,3,5,80,127,1609175380
51,17,16,Jits_ISO_5,0,5,80,127,1609595308
51,17,16,Jits_ISO_5,1,1,48,41,1609619556
51,17,16,Jits_ISO_5,2,5,56,103,1609635316
51,17,16,Jits_ISO_5,3,5,63,98,1609645584
51,17,16,Jits_ISO_5,0,5,80,127,1610074456
51,17,16,Jits_ISO_5,1,5,63,98,1610114396
51,17,16,Jits_ISO_5,2,1,48,38,1610119080
51,17,16,Jits_ISO_5,3,5,56,103,1610174700
51,17,16,Jits_ISO_5,0,5,56,103,1610575176
51,17,16,Jits_ISO_5,1,5,80,127,1610584400
51,17,16,Jits_ISO_5,2,1,48,43,1610629468
51,17,16,Jits_ISO_5,3,5,63,98,1610665304
51,17,16,Jits_ISO_5,0,5,80,127,1611075220
51,17,16,Jits_ISO_5,1,5,63,98,1611135312
51,17,16,Jits_ISO_5,2,1,48,45,1611146748
51,17,16,Jits_ISO_5,3,5,56,103,1611165124
51,17,16,Jits_ISO_5,0,5,56,103,1611574596
51,17,16,Jits_ISO_5,1,5,80,127,1611635280
51,17,16,Jits_ISO_5,2,1,48,47,1611652272
51,17,16,Jits_ISO_5,3,5,63,98,1611675136
51,17,16,Jits_ISO_5,0,5,56,103,1612124464
51,17,16,Jits_ISO_5,1,5,63,98,1612135036
51,17,16,Jits_ISO_5,2,5,80,127,1612138244
51,17,16,Jits_ISO_5,3,1,48,48,1612141816
51,17,16,Jits_ISO_5,0,5,80,127,1612575280
51,17,16,Jits_ISO_5,1,1,48,46,1612635936
51,17,16,Jits_ISO_5,2,5,63,98,1612665180
51,17,16,Jits_ISO_5,3,5,56,103,1612674328
51,17,16,Jits_ISO_5,0,5,56,103,1613075168
51,17,16,Jits_ISO_5,1,5,63,98,1613078188
51,17,16,Jits_ISO_5,2,5,80,127,1613081232
51,17,16,Jits_ISO_5,3,1,48,47,1613132596
51,17,16,Jits_ISO_5,0,5,80,127,1613595056
51,17,16,Jits_ISO_5,1,1,48,43,1613630084
51,17,16,Jits_ISO_5,2,5,63,98,1613645100
51,17,16,Jits_ISO_5,3,5,56,103,1613674848
51,17,16,Jits_ISO_5,0,5,56,103,1614075180
51,17,16,Jits_ISO_5,1,5,80,127,1614084400
51,17,16,Jits_ISO_5,2,1,48,46,1614139432
51,17,16,Jits_ISO_5,3,5,63,98,1614155116
51,17,16,Jits_ISO_5,0,5,56,103,1614585188
51,17,16,Jits_ISO_5,1,5,63,98,1614604524
51,17,16,Jits_ISO_5,2,1,48,43,1614625104
51,17,16,Jits_ISO_5,3,5,80,127,1614664980
51,17,16,Jits_ISO_5,0,5,80,127,1615074672
51,17,16,Jits_ISO_5,1,1,48,48,1615138764
51,17,16,Jits_ISO_5,2,5,63,98,1615145316
51,17,16,Jits_ISO_5,3,5,56,103,1615164952
51,17,16,Jits_ISO_5,0,5,80,127,1615594948
51,17,16,Jits_ISO_5,1,5,56,103,1615605068
51,17,16,Jits_ISO_5,2,5,63,98,1615615488
51,17,16,Jits_ISO_5,3,1,48,45,1615644008
51,17,16,Jits_ISO_5,0,5,80,127,1616085252
51,17,16,Jits_ISO_5,1,5,56,103,1616105036
51,17,16,Jits_ISO_5,2,1,48,41,1616130256
51,17,16,Jits_ISO_5,3,5,63,98,1616174484
51,17,16,Jits_ISO_5,0,5,56,103,1616595484
51,17,16,Jits_ISO_5,1,5,80,127,1616624940
51,17,16,Jits_ISO_5,2,1,48,35,1616642136
51,17,16,Jits_ISO_5,3,5,63,98,1616644492
51,17,16,Jits_ISO_5,0,5,63,98,1617085020
51,17,16,Jits_ISO_5,1,1,48,35,1617110932
51,17,16,Jits_ISO_5,2,5,56,103,1617145204
51,17,16,Jits_ISO_5,3,5,80,127,1617174804
51,17,16,Jits_ISO_5,0,5,63,98,1617575240
51,17,16,Jits_ISO_5,1,5,80,127,1617578528
51,17,16,Jits_ISO_5,2,1,48,40,1617628204
51,17,16,Jits_ISO_5,3,5,56,103,1617665460
51,17,16,Jits_ISO_5,0,5,56,103,1618094372
51,17,16,Jits_ISO_5,1,1,48,38,1618123812
51,17,16,Jits_ISO_5,2,5,63,98,1618125236
51,17,16,Jits_ISO_5,3,5,80,127,1618165048
51,17,16,Jits_ISO_5,0,5,63,98,1618595168
51,17,16,Jits_ISO_5,1,1,48,38,1618616044
51,17,16,Jits_ISO_5,2,5,56,103,1618635176
51,17,16,Jits_ISO_5,3,5,80,127,1618654536
51,17,16,Jits_ISO_5,0,5,63,98,1619105168
51,17,16,Jits_ISO_5,1,1,48,42,1619110980
51,17,16,Jits_ISO_5,2,5,56,103,1619145172
51,17,16,Jits_ISO_5,3,5,80,127,1619155540
51,17,16,Jits_ISO_5,0,5,80,127,1619585352
51,17,16,Jits_ISO_5,1,1,48,42,1619590112
51,17,16,Jits_ISO_5,2,5,63,98,1619655100
51,17,16,Jits_ISO_5,3,5,56,103,1619674460
51,17,16,Jits_ISO_5,0,5,56,103,1620074984
51,17,16,Jits_ISO_5,1,5,80,127,1620095296
51,17,16,Jits_ISO_5,2,1,48,48,1620128904
51,17,16,Jits_ISO_5,3,5,63,98,1620135224
51,17,16,Jits_ISO_5,0,5,63,98,1620584992
51,17,16,Jits_ISO_5,1,5,80,127,1620605152
51,17,16,Jits_ISO_5,2,1,48,45,1620617712
51,17,16,Jits_ISO_5,3,5,56,103,1620645232
51,17,16,Jits_ISO_5,0,5,63,98,1621084428
51,17,16,Jits_ISO_5,1,5,56,103,1621104960
51,17,16,Jits_ISO_5,2,5,80,127,1621115156
51,17,16,Jits_ISO_5,3,1,48,42,1621118196
51,17,16,Jits_ISO_5,0,5,80,127,1621585200
51,17,16,Jits_ISO_5,1,1,48,45,1621599556
51,17,16,Jits_ISO_5,2,5,56,103,1621604828
51,17,16,Jits_ISO_5,3,5,63,98,1621634504
51,17,16,Jits_ISO_5,0,1,48,40,1622103724
51,17,16,Jits_ISO_5,1,5,56,103,1622154844
51,17,16,Jits_ISO_5,2,5,80,127,1622157904
51,17,16,Jits_ISO_5,3,5,63,98,1622175072
51,17,16,Jits_ISO_5,0,5,63,98,1622574564
51,17,16,Jits_ISO_5,1,5,56,103,1622605140
51,17,16,Jits_ISO_5,2,1,48,47,1622631476
51,17,16,Jits_ISO_5,3,5,80,127,1622664844
51,17,16,Jits_ISO_5,0,1,48,41,1623127308
51,17,16,Jits_ISO_5,1,5,63,98,1623154980
51,17,16,Jits_ISO_5,2,5,56,103,1623165248
51,17,16,Jits_ISO_5,3,5,80,127,1623174396
51,17,16,Jits_ISO_5,0,5,56,103,1623604528
51,17,16,Jits_ISO_5,1,1,48,46,1623625700
51,17,16,Jits_ISO_5,2,5,80,127,1623635168
51,17,16,Jits_ISO_5,3,5,63,98,1623644392
51,17,16,Jits_ISO_5,0,1,48,43,1624122532
51,17,16,Jits_ISO_5,1,5,63,98,1624145324
51,17,16,Jits_ISO_5,2,5,56,103,1624154844
51,17,16,Jits_ISO_5,3,5,80,127,1624174932
51,17,16,Jits_ISO_5,0,5,56,103,1624575320
51,17,16,Jits_ISO_5,1,5,63,98,1624634660
51,17,16,Jits_ISO_5,2,5,80,127,1624637948
51,17,16,Jits_ISO_5,3,1,48,41,1624651628
51,17,16,Jits_ISO_5,0,5,80,127,1625094760
51,17,16,Jits_ISO_5,1,5,56,103,1625104884
51,17,16,Jits_ISO_5,2,5,63,98,1625175384
51,17,16,Jits_ISO_5,3,1,48,28,1625196636
51,17,16,Jits_ISO_5,0,5,80,127,1625584924
51,17,16,Jits_ISO_5,1,5,56,103,1625654900
51,17,16,Jits_ISO_5,2,5,63,98,1625664948
51,17,16,Jits_ISO_5,3,1,48,41,1625687692
51,17,16,Jits_ISO_5,0,5,63,98,1626124756
51,17,16,Jits_ISO_5,1,5,56,103,1626134952
51,17,16,Jits_ISO_5,2,5,80,127,1626155260
51,17,16,Jits_ISO_5,3,1,48,36,1626171856
51,17,16,Jits_ISO_5,0,5,80,127,1626575092
51,17,16,Jits_ISO_5,1,1,48,35,1626615472
51,17,16,Jits_ISO_5,2,5,63,98,1626634752
51,17,16,Jits_ISO_5,3,5,56,103,1626674760
51,17,16,Jits_ISO_5,0,5,56,103,1627114724
51,17,16,Jits_ISO_5,1,5,63,98,1627125216
51,17,16,Jits_ISO_5,2,1,48,43,1627129456
51,17,16,Jits_ISO_5,3,5,80,127,1627164924
51,17,16,Jits_ISO_5,0,5,56,103,1627574744
51,17,16,Jits_ISO_5,1,5,80,127,1627605488
51,17,16,Jits_ISO_5,2,1,48,36,1627624500
51,17,16,Jits_ISO_5,3,5,63,98,1627654932
51,17,16,Jits_ISO_5,0,5,56,103,1628115272
51,17,16,Jits_ISO_5,1,1,48,40,1628125216
51,17,16,Jits_ISO_5,2,5,63,98,1628155200
51,17,16,Jits_ISO_5,3,5,80,127,1628158712
51,17,16,Jits_ISO_5,0,5,56,103,1628614988
51,17,16,Jits_ISO_5,1,1,48,37,1628617808
51,17,16,Jits_ISO_5,2,5,63,98,1628625176
51,17,16,Jits_ISO_5,3,5,80,127,1628644588
51,17,16,Jits_ISO_5,0,5,56,103,1629074920
51,17,16,Jits_ISO_5,1,5,80,127,1629077908
51,17,16,Jits_ISO_5,2,5,63,98,1629114856
51,17,16,Jits_ISO_5,3,1,48,40,1629116940
51,17,16,Jits_ISO_5,0,5,63,98,1629614664
51,17,16,Jits_ISO_5,1,1,48,36,1629629388
51,17,16,Jits_ISO_5,2,5,56,103,1629645152
51,17,16,Jits_ISO_5,3,5,80,127,1629664812
51,17,16,Jits_ISO_5,0,5,80,127,1630084432
51,17,16,Jits_ISO_5,1,5,56,103,1630094700
51,17,16,Jits_ISO_5,2,5,63,98,1630104896
51,17,16,Jits_ISO_5,3,1,48,38,1630118868
51,17,16,Jits_ISO_5,0,1,48,35,1630566684
51,17,16,Jits_ISO_5,1,5,56,103,1630585140
51,17,16,Jits_ISO_5,2,5,80,127,1630625076
51,17,16,Jits_ISO_5,3,5,63,98,1630654752
51,17,16,Jits_ISO_5,0,1,48,39,1631074364
51,17,16,Jits_ISO_5,1,5,63,98,1631095212
51,17,16,Jits_ISO_5,2,5,80,127,1631105480
51,17,16,Jits_ISO_5,3,5,56,103,1631114852
51,17,16,Jits_ISO_5,0,1,48,45,1631563232
51,17,16,Jits_ISO_5,1,5,56,103,1631575832
51,17,16,Jits_ISO_5,2,5,63,98,1631644920
51,17,16,Jits_ISO_5,3,5,80,127,1631656668
51,17,16,Jits_ISO_5,0,5,80,127,1632075204
51,17,16,Jits_ISO_5,1,1,48,40,1632076168
51,17,16,Jits_ISO_5,2,5,56,103,1632085544
51,17,16,Jits_ISO_5,3,5,63,98,1632134544
51,17,16,Jits_ISO_5,0,1,48,35,1632562560
51,17,16,Jits_ISO_5,1,5,80,127,1632585204
51,17,16,Jits_ISO_5,2,5,56,103,1632644396
51,17,16,Jits_ISO_5,3,5,63,98,1632675400
51,17,16,Jits_ISO_5,0,5,56,103,1633084644
51,17,16,Jits_ISO_5,1,5,80,127,1633087712
51,17,16,Jits_ISO_5,2,5,63,98,1633124656
51,17,16,Jits_ISO_5,3,1,48,38,1633142448
51,17,16,Jits_ISO_5,0,1,48,40,1633607420
51,17,16,Jits_ISO_5,1,5,56,103,1633615392
51,17,16,Jits_ISO_5,2,5,63,98,1633645140
51,17,16,Jits_ISO_5,3,5,80,127,1633655116
51,17,16,Jits_ISO_5,0,1,48,47,1634112096
51,17,16,Jits_ISO_5,1,5,63,98,1634125316
51,17,16,Jits_ISO_5,2,5,80,127,1634135664
51,17,16,Jits_ISO_5,3,5,56,103,1634144736
51,17,16,Jits_ISO_5,0,5,80,127,1634574644
51,17,16,Jits_ISO_5,1,1,48,44,1634605188
51,17,16,Jits_ISO_5,2,5,56,103,1634624836
51,17,16,Jits_ISO_5,3,5,63,98,1634628048
51,17,16,Jits_ISO_5,0,1,48,44,1635092540
51,17,16,Jits_ISO_5,1,5,56,103,1635105308
51,17,16,Jits_ISO_5,2,5,80,127,1635124500
51,17,16,Jits_ISO_5,3,5,63,98,1635134768
51,17,16,Jits_ISO_5,0,1,48,45,1635584596
51,17,16,Jits_ISO_5,1,5,63,98,1635586012
51,17,16,Jits_ISO_5,2,5,56,103,1635615240
51,17,16,Jits_ISO_5,3,5,80,127,1635634428
51,17,16,Jits_ISO_5,0,1,48,49,1636080544
51,17,16,Jits_ISO_5,1,5,56,103,1636095488
51,17,16,Jits_ISO_5,2,5,80,127,1636104636
51,17,16,Jits_ISO_5,3,5,63,98,1636176616
51,17,16,Jits_ISO_5,0,5,63,98,1636584892
51,17,16,Jits_ISO_5,1,1,48,43,1636600664
51,17,16,Jits_ISO_5,2,5,80,127,1636624896
51,17,16,Jits_ISO_5,3,5,56,103,1636664684
51,17,16,Jits_ISO_5,0,5,56,103,1637094888
51,17,16,Jits_ISO_5,1,5,63,98,1637105012
51,17,16,Jits_ISO_5,2,1,48,45,1637123368
51,17,16,Jits_ISO_5,3,5,80,127,1637125012
51,17,16,Jits_ISO_5,0,1,48,45,1637617680
51,17,16,Jits_ISO_5,1,5,63,98,1637634412
51,17,16,Jits_ISO_5,2,5,80,127,1637654948
51,17,16,Jits_ISO_5,3,5,56,103,1637675552
51,17,16,Jits_ISO_5,0,5,56,103,1638074796
51,17,16,Jits_ISO_5,1,1,48,40,1638131496
51,17,16,Jits_ISO_5,2,5,80,127,1638154680
51,17,16,Jits_ISO_5,3,5,63,98,1638164952
51,17,16,Jits_ISO_5,0,5,80,127,1638615400
51,17,16,Jits_ISO_5,1,5,63,98,1638624700
51,17,16,Jits_ISO_5,2,1,48,48,1638632380
51,17,16,Jits_ISO_5,3,5,56,103,1638655488
51,17,16,Jits_ISO_5,0,5,63,98,1639075412
51,17,16,Jits_ISO_5,1,5,80,127,1639115052
51,17,16,Jits_ISO_5,2,1,48,39,1639164276
51,17,16,Jits_ISO_5,3,5,56,103,1639174636
51,17,16,Jits_ISO_5,0,5,63,98,1639585104
51,17,16,Jits_ISO_5,1,5,56,103,1639635556
51,17,16,Jits_ISO_5,2,1,48,46,1639652768
51,17,16,Jits_ISO_5,3,5,80,127,1639664924
51,17,16,Jits_ISO_5,0,5,80,127,1640095032
51,17,16,Jits_ISO_5,1,5,63,98,1640105448
51,17,16,Jits_ISO_5,2,1,48,41,1640134120
51,17,16,Jits_ISO_5,3,5,56,103,1640174996
51,17,16,Jits_ISO_5,0,1,48,47,1640645460
51,17,16,Jits_ISO_5,1,5,80,127,1640664392
51,17,16,Jits_ISO_5,2,5,56,103,1640674664
51,17,16,Jits_ISO_5,3,5,63,98,1640677880
51,17,16,Jits_ISO_5,0,5,56,103,1641104844
51,17,16,Jits_ISO_5,1,5,80,127,1641125452
51,17,16,Jits_ISO_5,2,5,63,98,1641134452
51,17,16,Jits_ISO_5,3,1,48,41,1641186812
51,17,16,Jits_ISO_5,0,5,63,98,1641614704
51,17,16,Jits_ISO_5,1,1,48,45,1641647416
51,17,16,Jits_ISO_5,2,5,56,103,1641654560
51,17,16,Jits_ISO_5,3,5,80,127,1641675244
51,17,16,Jits_ISO_5,0,5,63,98,1642114516
51,17,16,Jits_ISO_5,1,1,48,42,1642137640
51,17,16,Jits_ISO_5,2,5,56,103,1642175044
51,17,16,Jits_ISO_5,3,5,80,127,1642177960
51,17,16,Jits_ISO_5,0,5,56,103,1642575432
51,17,16,Jits_ISO_5,1,5,80,127,1642594768
51,17,16,Jits_ISO_5,2,5,63,98,1642634704
51,17,16,Jits_ISO_5,3,1,48,43,1642644196
51,17,16,Jits_ISO_5,0,5,56,103,1643104616
51,17,16,Jits_ISO_5,1,5,63,98,1643125300
51,17,16,Jits_ISO_5,2,1,48,38,1643133224
51,17,16,Jits_ISO_5,3,5,80,127,1643135412
51,17,16,Jits_ISO_5,0,5,80,127,1643574696
51,17,16,Jits_ISO_5,1,5,56,103,1643605268
51,17,16,Jits_ISO_5,2,1,48,44,1643641492
51,17,16,Jits_ISO_5,3,5,63,98,1643645496
51,17,16,Jits_ISO_5,0,5,80,127,1644084704
51,17,16,Jits_ISO_5,1,5,56,103,1644105164
51,17,16,Jits_ISO_5,2,1,48,46,1644144172
51,17,16,Jits_ISO_5,3,5,63,98,1644164568
51,17,16,Jits_ISO_5,0,5,56,103,1644594412
51,17,16,Jits_ISO_5,1,1,48,49,1644611232
51,17,16,Jits_ISO_5,2,5,80,127,1644615016
51,17,16,Jits_ISO_5,3,5,63,98,1644674352
51,17,16,Jits_ISO_5,0,5,80,127,1645074680
51,17,16,Jits_ISO_5,1,5,56,103,1645085396
51,17,16,Jits_ISO_5,2,5,63,98,1645125184
51,17,16,Jits_ISO_5,3,1,48,41,1645147332
51,17,16,Jits_ISO_5,0,5,63,98,1645574644
51,17,16,Jits_ISO_5,1,5,56,103,1645614508
51,17,16,Jits_ISO_5,2,5,80,127,1645617424
51,17,16,Jits_ISO_5,3,1,48,39,1645627812
51,17,16,Jits_ISO_5,0,5,63,98,1646094668
51,17,16,Jits_ISO_5,1,5,80,127,1646134680
51,17,16,Jits_ISO_5,2,1,48,35,1646137872
51,17,16,Jits_ISO_5,3,5,56,103,1646165320
51,17,16,Jits_ISO_5,0,5,56,103,1646585408
51,17,16,Jits_ISO_5,1,5,63,98,1646594484
51,17,16,Jits_ISO_5,2,1,48,47,1646595448
51,17,16,Jits_ISO_5,3,5,80,127,1646625272
51,17,16,Jits_ISO_5,0,5,80,127,1647074668
51,17,16,Jits_ISO_5,1,1,48,39,1647107304
51,17,16,Jits_ISO_5,2,5,63,98,1647145388
51,17,16,Jits_ISO_5,3,5,56,103,1647154760
51,17,16,Jits_ISO_5,0,5,63,98,1647575388
51,17,16,Jits_ISO_5,1,1,48,46,1647642944
51,17,16,Jits_ISO_5,2,5,56,103,1647645208
51,17,16,Jits_ISO_5,3,5,80,127,1647655404
51,17,16,Jits_ISO_5,0,5,63,98,1648075096
51,17,16,Jits_ISO_5,1,5,56,103,1648094608
51,17,16,Jits_ISO_5,2,5,80,127,1648134544
51,17,16,Jits_ISO_5,3,1,48,35,1648143060
51,17,16,Jits_ISO_5,0,1,48,43,1648576740
51,17,16,Jits_ISO_5,1,5,56,103,1648585228
51,17,16,Jits_ISO_5,2,5,63,98,1648595300
51,17,16,Jits_ISO_5,3,5,80,127,1648675224
51,17,16,Jits_ISO_5,0,1,48,51,1649041396
51,17,16,Jits_ISO_5,1,5,63,98,1649074476
51,17,16,Jits_ISO_5,2,5,56,103,1649105296
51,17,16,Jits_ISO_5,3,5,80,127,1649145288
51,17,16,Jits_ISO_5,0,1,48,42,1649563316
51,17,16,Jits_ISO_5,1,5,56,103,1649575400
51,17,16,Jits_ISO_5,2,5,63,98,1649615336
51,17,16,Jits_ISO_5,3,5,80,127,1649656328
51,17,16,Jits_ISO_5,0,5,80,127,1650075136
51,17,16,Jits_ISO_5,1,1,48,43,1650088888
51,17,16,Jits_ISO_5,2,5,56,103,1650154724
51,17,16,Jits_ISO_5,3,5,63,98,1650165292
51,17,16,Jits_ISO_5,0,5,56,103,1650614668
51,17,16,Jits_ISO_5,1,5,63,98,1650617732
51,17,16,Jits_ISO_5,2,5,80,127,1650625084
51,17,16,Jits_ISO_5,3,1,48,43,1650630224
51,17,16,Jits_ISO_5,0,1,48,40,1651129652
51,17,16,Jits_ISO_5,1,5,56,103,1651134852
51,17,16,Jits_ISO_5,2,5,63,98,1651155408
51,17,16,Jits_ISO_5,3,5,80,127,1651164412
51,17,16,Jits_ISO_5,0,5,63,98,1651594592
51,17,16,Jits_ISO_5,1,5,80,127,1651604712
51,17,16,Jits_ISO_5,2,5,56,103,1651625320
51,17,16,Jits_ISO_5,3,1,48,42,1651634956
51,17,16,Jits_ISO_5,0,5,63,98,1652095292
51,17,16,Jits_ISO_5,1,1,48,39,1652142396
51,17,16,Jits_ISO_5,2,5,56,103,1652175152
51,17,16,Jits_ISO_5,3,5,80,127,1652178388
51,17,16,Jits_ISO_5,0,5,63,98,1652595240
51,17,16,Jits_ISO_5,1,5,56,103,1652614576
51,17,16,Jits_ISO_5,2,5,80,127,1652645224
51,17,16,Jits_ISO_5,3,1,48,40,1652651188
51,17,16,Jits_ISO_5,0,5,56,103,1653094748
51,17,16,Jits_ISO_5,1,5,63,98,1653115284
51,17,16,Jits_ISO_5,2,5,80,127,1653124432
51,17,16,Jits_ISO_5,3,1,48,42,1653130164
51,17,16,Jits_ISO_5,0,5,56,103,1653625212
51,17,16,Jits_ISO_5,1,1,48,33,1653645116
51,17,16,Jits_ISO_5,2,5,63,98,1653655100
51,17,16,Jits_ISO_5,3,5,80,127,1653658392
51,17,16,Jits_ISO_5,0,5,56,103,1654074908
51,17,16,Jits_ISO_5,1,5,63,98,1654114624
51,17,16,Jits_ISO_5,2,1,48,38,1654149652
51,17,16,Jits_ISO_5,3,5,80,127,1654175300
51,17,16,Jits_ISO_5,0,5,56,103,1654595184
51,17,16,Jits_ISO_5,1,5,63,98,1654605304
51,17,16,Jits_ISO_5,2,1,48,35,1654619132
51,17,16,Jits_ISO_5,3,5,80,127,1654664488
51,17,16,Jits_ISO_5,0,5,56,103,1655094560
51,17,16,Jits_ISO_5,1,5,80,127,1655115164
51,17,16,Jits_ISO_5,2,1,48,35,1655130492
51,17,16,Jits_ISO_5,3,5,63,98,1655144908
51,17,16,Jits_ISO_5,0,5,80,127,1655595352
51,17,16,Jits_ISO_5,1,5,56,103,1655604500
51,17,16,Jits_ISO_5,2,1,48,42,1655617132
51,17,16,Jits_ISO_5,3,5,63,98,1655625176
51,17,16,Jits_ISO_5,0,5,63,98,1656084912
51,17,16,Jits_ISO_5,1,1,48,40,1656109228
51,17,16,Jits_ISO_5,2,5,80,127,1656164624
51,17,16,Jits_ISO_5,3,5,56,103,1656175192
51,17,16,Jits_ISO_5,0,1,48,40,1656616980
51,17,16,Jits_ISO_5,1,5,80,127,1656645100
51,17,16,Jits_ISO_5,2,5,56,103,1656664280
51,17,16,Jits_ISO_5,3,5,63,98,1656667428
51,17,16,Jits_ISO_5,0,1,48,43,1657108088
51,17,16,Jits_ISO_5,1,5,63,98,1657115156
51,17,16,Jits_ISO_5,2,5,80,127,1657118224
51,17,16,Jits_ISO_5,3,5,56,103,1657175544
51,17,16,Jits_ISO_5,0,1,48,37,1657593820
51,17,16,Jits_ISO_5,1,5,56,103,1657595328
51,17,16,Jits_ISO_5,2,5,80,127,1657604404
51,17,16,Jits_ISO_5,3,5,63,98,1657645312
51,17,16,Jits_ISO_5,0,5,56,103,1658074616
51,17,16,Jits_ISO_5,1,1,48,33,1658081996
51,17,16,Jits_ISO_5,2,5,63,98,1658135000
51,17,16,Jits_ISO_5,3,5,80,127,1658145192
51,17,16,Jits_ISO_5,0,5,63,98,1658584400
51,17,16,Jits_ISO_5,1,1,48,43,1658586636
51,17,16,Jits_ISO_5,2,5,80,127,1658625304
51,17,16,Jits_ISO_5,3,5,56,103,1658665464
51,17,16,Jits_ISO_5,0,5,56,103,1659085156
51,17,16,Jits_ISO_5,1,1,48,38,1659118264
51,17,16,Jits_ISO_5,2,5,63,98,1659165116
51,17,16,Jits_ISO_5,3,5,80,127,1659168404
51,17,16,Jits_ISO_5,0,9999,9999,9999,1599862900
51,17,16,Jits_ISO_5,1,9999,9999,9999,1600362548
51,17,16,Jits_ISO_5,2,9999,9999,9999,1600862268
51,17,16,Jits_ISO_5,3,9999,9999,9999,1601363056
51,17,16,Jits_ISO_5,4,9999,9999,9999,1601862716
51,17,16,Jits_ISO_5,5,9999,9999,9999,1602362452
51,17,16,Jits_ISO_5,6,9999,9999,9999,1602862184
51,17,16,Jits_ISO_5,7,9999,9999,9999,1603362900
51,17,16,Jits_ISO_5,8,9999,9999,9999,1603862648
51,17,16,Jits_ISO_5,9,9999,9999,9999,1604362324
51,17,16,Jits_ISO_5,10,9999,9999,9999,1604863040
51,17,16,Jits_ISO_5,11,9999,9999,9999,1605362788
51,17,16,Jits_ISO_5,12,9999,9999,9999,1605862516
51,17,16,Jits_ISO_5,13,9999,9999,9999,1606362176
51,17,16,Jits_ISO_5,14,9999,9999,9999,1606862928
51,17,16,Jits_ISO_5,15,9999,9999,9999,1607362668
51,17,16,Jits_ISO_5,16,9999,9999,9999,1607862328
51,17,16,Jits_ISO_5,17,9999,9999,9999,1608363108
51,17,16,Jits_ISO_5,18,9999,9999,9999,1608873040
51,17,16,Jits_ISO_5,19,9999,9999,9999,1609372788
51,17,16,Jits_ISO_5,20,9999,9999,9999,1609872460
51,17,16,Jits_ISO_5,21,9999,9999,9999,1610372208
51,17,16,Jits_ISO_5,22,9999,9999,9999,1610872928
51,17,16,Jits_ISO_5,23,9999,9999,9999,1611372600
51,17,16,Jits_ISO_5,24,9999,9999,9999,1611872348
51,17,16,Jits_ISO_5,25,9999,9999,9999,1612373060
51,17,16,Jits_ISO_5,26,9999,9999,9999,1612872812
51,17,16,Jits_ISO_5,27,9999,9999,9999,1613372532
51,17,16,Jits_ISO_5,28,9999,9999,9999,1613872208
51,17,16,Jits_ISO_5,29,9999,9999,9999,1614372928
51,17,16,Jits_ISO_5,30,9999,9999,9999,1614872676
51,17,16,Jits_ISO_5,31,9999,9999,9999,1615372352
51,17,16,Jits_ISO_5,32,9999,9999,9999,1615872096
51,17,16,Jits_ISO_5,33,9999,9999,9999,1616372816
51,17,16,Jits_ISO_5,34,9999,9999,9999,1616872564
51,17,16,Jits_ISO_5,35,9999,9999,9999,1617372240
51,17,16,Jits_ISO_5,36,9999,9999,9999,1617872984
51,17,16,Jits_ISO_5,37,9999,9999,9999,1618372720
51,17,16,Jits_ISO_5,38,9999,9999,9999,1618872396
51,17,16,Jits_ISO_5,39,9999,9999,9999,1619372132
51,17,16,Jits_ISO_5,40,9999,9999,9999,1619872840
51,17,16,Jits_ISO_5,41,9999,9999,9999,1620372588
51,17,16,Jits_ISO_5,42,9999,9999,9999,1620872256
51,17,16,Jits_ISO_5,43,9999,9999,9999,1621373032
51,17,16,Jits_ISO_5,44,9999,9999,9999,1621872764
51,17,16,Jits_ISO_5,45,9999,9999,9999,1622372432
51,17,16,Jits_ISO_5,46,9999,9999,9999,1622872168
51,17,16,Jits_ISO_5,47,9999,9999,9999,1623372880
51,17,16,Jits_ISO_5,48,9999,9999,9999,1623872612
51,17,16,Jits_ISO_5,49,9999,9999,9999,1624372292
51,17,16,Jits_ISO_5,50,9999,9999,9999,1624873060
51,17,16,Jits_ISO_5,51,9999,9999,9999,1625372740
51,17,16,Jits_ISO_5,52,9999,9999,9999,1625872488
51,17,16,Jits_ISO_5,53,9999,9999,9999,1626372164
51,17,16,Jits_ISO_5,54,9999,9999,9999,1626872944
51,17,16,Jits_ISO_5,55,9999,9999,9999,1627372624
51,17,16,Jits_ISO_5,56,9999,9999,9999,1627872368
51,17,16,Jits_ISO_5,57,9999,9999,9999,1628373084
51,17,16,Jits_ISO_5,58,9999,9999,9999,1628872784
51,17,16,Jits_ISO_5,59,9999,9999,9999,1629372512
51,17,16,Jits_ISO_5,60,9999,9999,9999,1629872188
51,17,16,Jits_ISO_5,61,9999,9999,9999,1630372960
51,17,16,Jits_ISO_5,62,9999,9999,9999,1630872636
51,17,16,Jits_ISO_5,63,9999,9999,9999,1631372368
51,17,16,Jits_ISO_5,64,9999,9999,9999,1631872100
51,17,16,Jits_ISO_5,65,9999,9999,9999,1632372804
51,17,16,Jits_ISO_5,66,9999,9999,9999,1632872556
51,17,16,Jits_ISO_5,67,9999,9999,9999,1633372276
51,17,16,Jits_ISO_5,68,9999,9999,9999,1633873000
51,17,16,Jits_ISO_5,69,9999,9999,9999,1634372660
51,17,16,Jits_ISO_5,70,9999,9999,9999,1634872384
51,17,16,Jits_ISO_5,71,9999,9999,9999,1635372132
51,17,16,Jits_ISO_5,72,9999,9999,9999,1635872836
51,17,16,Jits_ISO_5,73,9999,9999,9999,1636372572
51,17,16,Jits_ISO_5,74,9999,9999,9999,1636872308
51,17,16,Jits_ISO_5,75,9999,9999,9999,1637373012
51,17,16,Jits_ISO_5,76,9999,9999,9999,1637872688
51,17,16,Jits_ISO_5,77,9999,9999,9999,1638372424
51,17,16,Jits_ISO_5,78,9999,9999,9999,1638872176
51,17,16,Jits_ISO_5,79,9999,9999,9999,1639372868
51,17,16,Jits_ISO_5,80,9999,9999,9999,1639872596
51,17,16,Jits_ISO_5,81,9999,9999,9999,1640372328
51,17,16,Jits_ISO_5,82,9999,9999,9999,1640873048
51,17,16,Jits_ISO_5,83,9999,9999,9999,1641372780
51,17,16,Jits_ISO_5,84,9999,9999,9999,1641872456
51,17,16,Jits_ISO_5,85,9999,9999,9999,1642372180
51,17,16,Jits_ISO_5,86,9999,9999,9999,1642872956
51,17,16,Jits_ISO_5,87,9999,9999,9999,1643372628
51,17,16,Jits_ISO_5,88,9999,9999,9999,1643872372
51,17,16,Jits_ISO_5,89,9999,9999,9999,1644373088
51,17,16,Jits_ISO_5,90,9999,9999,9999,1644872760
51,17,16,Jits_ISO_5,91,9999,9999,9999,1645372504
51,17,16,Jits_ISO_5,92,9999,9999,9999,1645872236
51,17,16,Jits_ISO_5,93,9999,9999,9999,1646372940
51,17,16,Jits_ISO_5,94,9999,9999,9999,1646872672
51,17,16,Jits_ISO_5,95,9999,9999,9999,1647372348
51,17,16,Jits_ISO_5,96,9999,9999,9999,1647872096
51,17,16,Jits_ISO_5,97,9999,9999,9999,1648372796
51,17,16,Jits_ISO_5,98,9999,9999,9999,1648872528
51,17,16,Jits_ISO_5,99,9999,9999,9999,1649372256
51,17,16,Jits_ISO_5,100,9999,9999,9999,1649872960
51,17,16,Jits_ISO_5,101,9999,9999,9999,1650372668
51,17,16,Jits_ISO_5,102,9999,9999,9999,1650872404
51,17,16,Jits_ISO_5,103,9999,9999,9999,1651372084
51,17,16,Jits_ISO_5,104,9999,9999,9999,1651872860
51,17,16,Jits_ISO_5,105,9999,9999,9999,1652372584
51,17,16,Jits_ISO_5,106,9999,9999,9999,1652872244
51,17,16,Jits_ISO_5,107,9999,9999,9999,1653373020
51,17,16,Jits_ISO_5,108,9999,9999,9999,1653872764
51,17,16,Jits_ISO_5,109,9999,9999,9999,1654372436
51,17,16,Jits_ISO_5,110,9999,9999,9999,1654872184
51,17,16,Jits_ISO_5,111,9999,9999,9999,1655372908
51,17,16,Jits_ISO_5,112,9999,9999,9999,1655872576
51,17,16,Jits_ISO_5,113,9999,9999,9999,1656372328
51,17,16,Jits_ISO_5,114,9999,9999,9999,1656873032
51,17,16,Jits_ISO_5,115,9999,9999,9999,1657372756
51,17,16,Jits_ISO_5,116,9999,9999,9999,1657872488
51,17,16,Jits_ISO_5,117,9999,9999,9999,1658372216
51,17,16,Jits_ISO_5,118,9999,9999,9999,1658872936
51,17,16,Jits_ISO_5,119,9999,9999,9999,1659372664
51,18,18,Jits_Linear_8,0,5,56,103,1669976844
51,18,18,Jits_Linear_8,1,5,63,98,1669979864
51,18,18,Jits_Linear_8,2,5,80,127,1669982832
51,18,18,Jits_Linear_8,0,5,56,103,1670795732
51,18,18,Jits_Linear_8,1,5,63,98,1670798904
51,18,18,Jits_Linear_8,2,5,80,127,1670801948
51,18,18,Jits_Linear_8,0,5,80,127,1671555520
51,18,18,Jits_Linear_8,1,1,48,38,1671569124
51,18,18,Jits_Linear_8,2,5,63,98,1671645824
51,18,18,Jits_Linear_8,3,5,56,103,1671655720
51,18,18,Jits_Linear_8,0,5,56,103,1672396044
51,18,18,Jits_Linear_8,1,5,63,98,1672406488
51,18,18,Jits_Linear_8,2,1,48,39,1672467220
51,18,18,Jits_Linear_8,3,5,80,127,1672495640
51,18,18,Jits_Linear_8,0,5,63,98,1673185648
51,18,18,Jits_Linear_8,1,1,48,41,1673201196
51,18,18,Jits_Linear_8,2,5,80,127,1673216440
51,18,18,Jits_Linear_8,3,5,56,103,1673246040
51,18,18,Jits_Linear_8,0,1,48,42,1673940176
51,18,18,Jits_Linear_8,1,5,56,103,1674005768
51,18,18,Jits_Linear_8,2,5,80,127,1674106152
51,18,18,Jits_Linear_8,3,5,63,98,1674156504
51,18,18,Jits_Linear_8,0,5,56,103,1674815796
51,18,18,Jits_Linear_8,1,1,48,46,1674837644
51,18,18,Jits_Linear_8,2,5,80,127,1674865992
51,18,18,Jits_Linear_8,3,5,63,98,1674905856
51,18,18,Jits_Linear_8,0,1,48,43,1675653752
51,18,18,Jits_Linear_8,1,5,80,127,1675655636
51,18,18,Jits_Linear_8,2,5,63,98,1675686288
51,18,18,Jits_Linear_8,3,5,56,103,1675755976
51,18,18,Jits_Linear_8,0,1,48,45,1676476944
51,18,18,Jits_Linear_8,1,5,63,98,1676496252
51,18,18,Jits_Linear_8,2,5,56,103,1676526000
51,18,18,Jits_Linear_8,3,5,80,127,1676586452
51,18,18,Jits_Linear_8,0,5,56,103,1677245792
51,18,18,Jits_Linear_8,1,5,80,127,1677248932
51,18,18,Jits_Linear_8,2,1,48,38,1677310436
51,18,18,Jits_Linear_8,3,5,63,98,1677365608
51,18,18,Jits_Linear_8,0,1,48,36,1678093108
51,18,18,Jits_Linear_8,1,5,56,103,1678125440
51,18,18,Jits_Linear_8,2,5,80,127,1678166500
51,18,18,Jits_Linear_8,3,5,63,98,1678175648
51,18,18,Jits_Linear_8,0,5,56,103,1678886464
51,18,18,Jits_Linear_8,1,1,48,38,1678899996
51,18,18,Jits_Linear_8,2,5,80,127,1678905648
51,18,18,Jits_Linear_8,3,5,63,98,1678985668
51,18,18,Jits_Linear_8,0,5,80,127,1679675896
51,18,18,Jits_Linear_8,1,1,48,35,1679738952
51,18,18,Jits_Linear_8,2,5,56,103,1679776064
51,18,18,Jits_Linear_8,3,5,63,98,1679786336
51,18,18,Jits_Linear_8,0,5,63,98,1680445924
51,18,18,Jits_Linear_8,1,5,80,127,1680506464
51,18,18,Jits_Linear_8,2,1,48,35,1680510404
51,18,18,Jits_Linear_8,3,5,56,103,1680515384
51,18,18,Jits_Linear_8,0,5,56,103,1681245668
51,18,18,Jits_Linear_8,1,1,48,37,1681250432
51,18,18,Jits_Linear_8,2,5,63,98,1681316388
51,18,18,Jits_Linear_8,3,5,80,127,1681319676
51,18,18,Jits_Linear_8,0,1,48,33,1682045688
51,18,18,Jits_Linear_8,1,5,63,98,1682076132
51,18,18,Jits_Linear_8,2,5,56,103,1682126484
51,18,18,Jits_Linear_8,3,5,80,127,1682129624
51,18,18,Jits_Linear_8,0,5,56,103,1682825428
51,18,18,Jits_Linear_8,1,5,80,127,1682828576
51,18,18,Jits_Linear_8,2,1,48,39,1682905152
51,18,18,Jits_Linear_8,3,5,63,98,1682915660
51,18,18,Jits_Linear_8,0,1,48,38,1683653164
51,18,18,Jits_Linear_8,1,5,63,98,1683656048
51,18,18,Jits_Linear_8,2,5,56,103,1683746432
51,18,18,Jits_Linear_8,3,5,80,127,1683775872
51,18,18,Jits_Linear_8,0,5,56,103,1684436504
51,18,18,Jits_Linear_8,1,1,48,38,1684493184
51,18,18,Jits_Linear_8,2,5,63,98,1684535628
51,18,18,Jits_Linear_8,3,5,80,127,1684566500
51,18,18,Jits_Linear_8,0,1,48,35,1685244648
51,18,18,Jits_Linear_8,1,5,63,98,1685246388
51,18,18,Jits_Linear_8,2,5,56,103,1685255536
51,18,18,Jits_Linear_8,3,5,80,127,1685345580
51,18,18,Jits_Linear_8,0,1,48,40,1686031576
51,18,18,Jits_Linear_8,1,5,63,98,1686045920
51,18,18,Jits_Linear_8,2,5,56,103,1686126608
51,18,18,Jits_Linear_8,3,5,80,127,1686129584
51,18,18,Jits_Linear_8,0,5,80,127,1686786408
51,18,18,Jits_Linear_8,1,5,63,98,1686805824
51,18,18,Jits_Linear_8,2,5,56,103,1686866364
51,18,18,Jits_Linear_8,3,1,48,42,1686881760
51,18,18,Jits_Linear_8,0,5,56,103,1687605584
51,18,18,Jits_Linear_8,1,5,63,98,1687626040
51,18,18,Jits_Linear_8,2,5,80,127,1687629328
51,18,18,Jits_Linear_8,3,1,48,40,1687635012
51,18,18,Jits_Linear_8,0,5,63,98,1688325616
51,18,18,Jits_Linear_8,1,1,48,46,1688381324
51,18,18,Jits_Linear_8,2,5,80,127,1688406380
51,18,18,Jits_Linear_8,3,5,56,103,1688415456
51,18,18,Jits_Linear_8,0,5,63,98,1689126116
51,18,18,Jits_Linear_8,1,5,56,103,1689145604
51,18,18,Jits_Linear_8,2,1,48,48,1689154948
51,18,18,Jits_Linear_8,3,5,80,127,1689195800
51,18,18,Jits_Linear_8,0,5,80,127,1689905640
51,18,18,Jits_Linear_8,1,5,63,98,1689945508
51,18,18,Jits_Linear_8,2,1,48,39,1689948476
51,18,18,Jits_Linear_8,3,5,56,103,1689965884
51,18,18,Jits_Linear_8,0,5,56,103,1690715448
51,18,18,Jits_Linear_8,1,5,63,98,1690725944
51,18,18,Jits_Linear_8,2,1,48,41,1690730636
51,18,18,Jits_Linear_8,3,5,80,127,1690746100
51,18,18,Jits_Linear_8,0,5,56,103,1691415868
51,18,18,Jits_Linear_8,1,1,48,46,1691478920
51,18,18,Jits_Linear_8,2,5,63,98,1691506148
51,18,18,Jits_Linear_8,3,5,80,127,1691565416
51,18,18,Jits_Linear_8,0,5,80,127,1692215716
51,18,18,Jits_Linear_8,1,1,48,45,1692221452
51,18,18,Jits_Linear_8,2,5,56,103,1692225756
51,18,18,Jits_Linear_8,3,5,63,98,1692295436
51,18,18,Jits_Linear_8,0,5,63,98,1693016304
51,18,18,Jits_Linear_8,1,1,48,41,1693017272
51,18,18,Jits_Linear_8,2,5,80,127,1693105612
51,18,18,Jits_Linear_8,3,5,56,103,1693115940
51,18,18,Jits_Linear_8,0,5,63,98,1693716192
51,18,18,Jits_Linear_8,1,5,80,127,1693766172
51,18,18,Jits_Linear_8,2,5,56,103,1693826488
51,18,18,Jits_Linear_8,3,1,48,37,1693848864
51,18,18,Jits_Linear_8,0,5,56,103,1694506280
51,18,18,Jits_Linear_8,1,5,80,127,1694555512
51,18,18,Jits_Linear_8,2,5,63,98,1694576268
51,18,18,Jits_Linear_8,3,1,48,36,1694579164
51,18,18,Jits_Linear_8,0,5,56,103,1695245736
51,18,18,Jits_Linear_8,1,5,80,127,1695305980
51,18,18,Jits_Linear_8,2,1,48,36,1695313732
51,18,18,Jits_Linear_8,3,5,63,98,1695375952
51,18,18,Jits_Linear_8,0,5,56,103,1696005420
51,18,18,Jits_Linear_8,1,5,80,127,1696036144
51,18,18,Jits_Linear_8,2,1,48,26,1696040532
51,18,18,Jits_Linear_8,3,5,63,98,1696066036
51,18,18,Jits_Linear_8,0,1,48,32,1696729172
51,18,18,Jits_Linear_8,1,5,56,103,1696806220
51,18,18,Jits_Linear_8,2,5,80,127,1696825712
51,18,18,Jits_Linear_8,3,5,63,98,1696886084
51,18,18,Jits_Linear_8,0,1,48,34,1697552592
51,18,18,Jits_Linear_8,1,5,80,127,1697646204
51,18,18,Jits_Linear_8,2,5,56,103,1697656236
51,18,18,Jits_Linear_8,3,5,63,98,1697666360
51,18,18,Jits_Linear_8,0,5,56,103,1698355548
51,18,18,Jits_Linear_8,1,5,80,127,1698395488
51,18,18,Jits_Linear_8,2,1,48,32,1698398156
51,18,18,Jits_Linear_8,3,5,63,98,1698426204
51,18,18,Jits_Linear_8,0,5,56,103,1699075380
51,18,18,Jits_Linear_8,1,5,63,98,1699106180
51,18,18,Jits_Linear_8,2,1,48,33,1699132740
51,18,18,Jits_Linear_8,3,5,80,127,1699146184
51,18,18,Jits_Linear_8,0,5,80,127,1699776148
51,18,18,Jits_Linear_8,1,5,63,98,1699825932
51,18,18,Jits_Linear_8,2,5,56,103,1699845492
51,18,18,Jits_Linear_8,3,1,48,43,1699856104
51,18,18,Jits_Linear_8,0,1,48,39,1700553392
51,18,18,Jits_Linear_8,1,5,56,103,1700556132
51,18,18,Jits_Linear_8,2,5,80,127,1700625840
51,18,18,Jits_Linear_8,3,5,63,98,1700686140
51,18,18,Jits_Linear_8,0,1,48,40,1701293684
51,18,18,Jits_Linear_8,1,5,80,127,1701305692
51,18,18,Jits_Linear_8,2,5,63,98,1701395912
51,18,18,Jits_Linear_8,3,5,56,103,1701416372
51,18,18,Jits_Linear_8,0,5,63,98,1702065376
51,18,18,Jits_Linear_8,1,5,56,103,1702085984
51,18,18,Jits_Linear_8,2,5,80,127,1702125876
51,18,18,Jits_Linear_8,3,1,48,43,1702151760
51,18,18,Jits_Linear_8,0,5,80,127,1702765936
51,18,18,Jits_Linear_8,1,5,63,98,1702786468
51,18,18,Jits_Linear_8,2,1,48,44,1702850120
51,18,18,Jits_Linear_8,3,5,56,103,1702866208
51,18,18,Jits_Linear_8,0,5,63,98,1703495948
51,18,18,Jits_Linear_8,1,1,48,40,1703555340
51,18,18,Jits_Linear_8,2,5,56,103,1703605476
51,18,18,Jits_Linear_8,3,5,80,127,1703608844
51,18,18,Jits_Linear_8,0,5,63,98,1704255912
51,18,18,Jits_Linear_8,1,5,56,103,1704266104
51,18,18,Jits_Linear_8,2,5,80,127,1704269024
51,18,18,Jits_Linear_8,3,1,48,45,1704304144
51,18,18,Jits_Linear_8,0,5,56,103,1704976004
51,18,18,Jits_Linear_8,1,1,48,46,1704983012
51,18,18,Jits_Linear_8,2,5,80,127,1705095640
51,18,18,Jits_Linear_8,3,5,63,98,1705135652
51,18,18,Jits_Linear_8,0,1,48,42,1705713788
51,18,18,Jits_Linear_8,1,5,56,103,1705726244
51,18,18,Jits_Linear_8,2,5,80,127,1705806188
51,18,18,Jits_Linear_8,3,5,63,98,1705825588
51,18,18,Jits_Linear_8,0,5,56,103,1706456328
51,18,18,Jits_Linear_8,1,1,48,45,1706502744
51,18,18,Jits_Linear_8,2,5,63,98,1706566008
51,18,18,Jits_Linear_8,3,5,80,127,1706569148
51,18,18,Jits_Linear_8,0,5,56,103,1707216308
51,18,18,Jits_Linear_8,1,5,80,127,1707245840
51,18,18,Jits_Linear_8,2,5,63,98,1707266520
51,18,18,Jits_Linear_8,3,1,48,44,1707303716
51,18,18,Jits_Linear_8,0,5,63,98,1707925996
51,18,18,Jits_Linear_8,1,5,56,103,1707936044
51,18,18,Jits_Linear_8,2,5,80,127,1707946464
51,18,18,Jits_Linear_8,3,1,48,46,1708014340
51,18,18,Jits_Linear_8,0,5,80,127,1708635468
51,18,18,Jits_Linear_8,1,5,56,103,1708685744
51,18,18,Jits_Linear_8,2,1,48,47,1708700924
51,18,18,Jits_Linear_8,3,5,63,98,1708725828
51,18,18,Jits_Linear_8,0,5,80,127,1709375976
51,18,18,Jits_Linear_8,1,1,48,48,1709393024
51,18,18,Jits_Linear_8,2,5,63,98,1709396284
51,18,18,Jits_Linear_8,3,5,56,103,1709445512
51,18,18,Jits_Linear_8,0,5,80,127,1710106072
51,18,18,Jits_Linear_8,1,5,56,103,1710135820
51,18,18,Jits_Linear_8,2,1,48,49,1710147332
51,18,18,Jits_Linear_8,3,5,63,98,1710206320
51,18,18,Jits_Linear_8,0,5,56,103,1710876024
51,18,18,Jits_Linear_8,1,5,80,127,1710886296
51,18,18,Jits_Linear_8,2,1,48,53,1710899004
51,18,18,Jits_Linear_8,3,5,63,98,1710926080
51,18,18,Jits_Linear_8,0,5,56,103,1711505776
51,18,18,Jits_Linear_8,1,5,63,98,1711526164
51,18,18,Jits_Linear_8,2,5,80,127,1711595940
51,18,18,Jits_Linear_8,3,1,48,35,1711660932
51,18,18,Jits_Linear_8,0,5,63,98,1712246056
51,18,18,Jits_Linear_8,1,5,80,127,1712305700
51,18,18,Jits_Linear_8,2,5,56,103,1712325936
51,18,18,Jits_Linear_8,3,1,48,53,1712344964
51,18,18,Jits_Linear_8,0,5,80,127,1712945644
51,18,18,Jits_Linear_8,1,5,56,103,1712976292
51,18,18,Jits_Linear_8,2,5,63,98,1713005968
51,18,18,Jits_Linear_8,3,1,48,39,1713046772
51,18,18,Jits_Linear_8,0,5,56,103,1713656320
51,18,18,Jits_Linear_8,1,5,63,98,1713715668
51,18,18,Jits_Linear_8,2,1,48,47,1713743424
51,18,18,Jits_Linear_8,3,5,80,127,1713775976
51,18,18,Jits_Linear_8,0,5,80,127,1714386268
51,18,18,Jits_Linear_8,1,5,56,103,1714405680
51,18,18,Jits_Linear_8,2,1,48,45,1714449628
51,18,18,Jits_Linear_8,3,5,63,98,1714476476
51,18,18,Jits_Linear_8,0,5,80,127,1715095956
51,18,18,Jits_Linear_8,1,5,63,98,1715116340
51,18,18,Jits_Linear_8,2,5,56,103,1715146092
51,18,18,Jits_Linear_8,3,1,48,43,1715185124
51,18,18,Jits_Linear_8,0,5,80,127,1715796304
51,18,18,Jits_Linear_8,1,5,63,98,1715815940
51,18,18,Jits_Linear_8,2,5,56,103,1715876180
51,18,18,Jits_Linear_8,3,1,48,43,1715894444
51,18,18,Jits_Linear_8,0,5,80,127,1716495752
51,18,18,Jits_Linear_8,1,1,48,37,1716596080
51,18,18,Jits_Linear_8,2,5,56,103,1716597564
51,18,18,Jits_Linear_8,3,5,63,98,1716625896
51,18,18,Jits_Linear_8,0,5,63,98,1717185896
51,18,18,Jits_Linear_8,1,5,80,127,1717236200
51,18,18,Jits_Linear_8,2,5,56,103,1717255684
51,18,18,Jits_Linear_8,3,1,48,38,1717327952
51,18,18,Jits_Linear_8,0,5,80,127,1717926388
51,18,18,Jits_Linear_8,1,5,56,103,1717955916
51,18,18,Jits_Linear_8,2,5,63,98,1717959056
51,18,18,Jits_Linear_8,3,1,48,42,1717978012
51,18,18,Jits_Linear_8,0,5,63,98,1718656548
51,18,18,Jits_Linear_8,1,5,56,103,1718696268
51,18,18,Jits_Linear_8,2,1,48,43,1718710992
51,18,18,Jits_Linear_8,3,5,80,127,1718715748
51,18,18,Jits_Linear_8,0,5,80,127,1719296504
51,18,18,Jits_Linear_8,1,5,63,98,1719376380
51,18,18,Jits_Linear_8,2,5,56,103,1719416092
51,18,18,Jits_Linear_8,3,1,48,47,1719419656
51,18,18,Jits_Linear_8,0,5,63,98,1720006124
51,18,18,Jits_Linear_8,1,5,80,127,1720085948
51,18,18,Jits_Linear_8,2,5,56,103,1720106484
51,18,18,Jits_Linear_8,3,1,48,40,1720110872
51,18,18,Jits_Linear_8,0,5,56,103,1720736064
51,18,18,Jits_Linear_8,1,5,63,98,1720746484
51,18,18,Jits_Linear_8,2,1,48,50,1720783480
51,18,18,Jits_Linear_8,3,5,80,127,1720786216
51,18,18,Jits_Linear_8,0,5,56,103,1721346580
51,18,18,Jits_Linear_8,1,5,80,127,1721349644
51,18,18,Jits_Linear_8,2,1,48,51,1721467320
51,18,18,Jits_Linear_8,3,5,63,98,1721485700
51,18,18,Jits_Linear_8,0,5,56,103,1722026512
51,18,18,Jits_Linear_8,1,1,48,43,1722115028
51,18,18,Jits_Linear_8,2,5,63,98,1722116520
51,18,18,Jits_Linear_8,3,5,80,127,1722185976
51,18,18,Jits_Linear_8,0,1,48,44,1722765576
51,18,18,Jits_Linear_8,1,5,63,98,1722786500
51,18,18,Jits_Linear_8,2,5,80,127,1722789784
51,18,18,Jits_Linear_8,3,5,56,103,1722845640
51,18,18,Jits_Linear_8,0,1,48,47,1723483740
51,18,18,Jits_Linear_8,1,5,80,127,1723506012
51,18,18,Jits_Linear_8,2,5,56,103,1723525576
51,18,18,Jits_Linear_8,3,5,63,98,1723535920
51,18,18,Jits_Linear_8,0,5,56,103,1724095904
51,18,18,Jits_Linear_8,1,5,63,98,1724106248
51,18,18,Jits_Linear_8,2,5,80,127,1724175804
51,18,18,Jits_Linear_8,3,1,48,45,1724191576
51,18,18,Jits_Linear_8,0,5,80,127,1724775724
51,18,18,Jits_Linear_8,1,1,48,44,1724819296
51,18,18,Jits_Linear_8,2,5,56,103,1724825924
51,18,18,Jits_Linear_8,3,5,63,98,1724876444
51,18,18,Jits_Linear_8,0,1,48,41,1725491320
51,18,18,Jits_Linear_8,1,5,56,103,1725535560
51,18,18,Jits_Linear_8,2,5,63,98,1725545756
51,18,18,Jits_Linear_8,3,5,80,127,1725585680
51,18,18,Jits_Linear_8,0,5,56,103,1726156408
51,18,18,Jits_Linear_8,1,1,48,39,1726188524
51,18,18,Jits_Linear_8,2,5,63,98,1726196196
51,18,18,Jits_Linear_8,3,5,80,127,1726246472
51,18,18,Jits_Linear_8,0,5,80,127,1726785868
51,18,18,Jits_Linear_8,1,5,56,103,1726836220
51,18,18,Jits_Linear_8,2,5,63,98,1726855556
51,18,18,Jits_Linear_8,3,1,48,39,1726925752
51,18,18,Jits_Linear_8,0,5,80,127,1727465764
51,18,18,Jits_Linear_8,1,5,63,98,1727526528
51,18,18,Jits_Linear_8,2,1,48,43,1727593548
51,18,18,Jits_Linear_8,3,5,56,103,1727606316
51,18,18,Jits_Linear_8,0,5,80,127,1728116268
51,18,18,Jits_Linear_8,1,5,56,103,1728156432
51,18,18,Jits_Linear_8,2,5,63,98,1728175476
51,18,18,Jits_Linear_8,3,1,48,45,1728280196
51,18,18,Jits_Linear_8,0,5,56,103,1728836100
51,18,18,Jits_Linear_8,1,5,80,127,1728846444
51,18,18,Jits_Linear_8,2,5,63,98,1728886236
51,18,18,Jits_Linear_8,3,1,48,29,1728924872
51,18,18,Jits_Linear_8,0,1,48,35,1729522024
51,18,18,Jits_Linear_8,1,5,56,103,1729566040
51,18,18,Jits_Linear_8,2,5,63,98,1729606276
51,18,18,Jits_Linear_8,3,5,80,127,1729609488
51,18,18,Jits_Linear_8,0,5,63,98,1730115912
51,18,18,Jits_Linear_8,1,5,80,127,1730156224
51,18,18,Jits_Linear_8,2,1,48,38,1730197928
51,18,18,Jits_Linear_8,3,5,56,103,1730225604
51,18,18,Jits_Linear_8,0,5,63,98,1730766124
51,18,18,Jits_Linear_8,1,1,48,42,1730831572
51,18,18,Jits_Linear_8,2,5,56,103,1730845992
51,18,18,Jits_Linear_8,3,5,80,127,1730905408
51,18,18,Jits_Linear_8,0,5,80,127,1731436016
51,18,18,Jits_Linear_8,1,1,48,45,1731471572
51,18,18,Jits_Linear_8,2,5,63,98,1731485992
51,18,18,Jits_Linear_8,3,5,56,103,1731515740
51,18,18,Jits_Linear_8,0,5,56,103,1732086240
51,18,18,Jits_Linear_8,1,1,48,39,1732122168
51,18,18,Jits_Linear_8,2,5,63,98,1732136288
51,18,18,Jits_Linear_8,3,5,80,127,1732145512
51,18,18,Jits_Linear_8,0,1,48,43,1732751608
51,18,18,Jits_Linear_8,1,5,56,103,1732755912
51,18,18,Jits_Linear_8,2,5,63,98,1732866512
51,18,18,Jits_Linear_8,3,5,80,127,1732885848
51,18,18,Jits_Linear_8,0,5,63,98,1733406208
51,18,18,Jits_Linear_8,1,5,80,127,1733456188
51,18,18,Jits_Linear_8,2,1,48,44,1733465160
51,18,18,Jits_Linear_8,3,5,56,103,1733546316
51,18,18,Jits_Linear_8,0,5,63,98,1734046356
51,18,18,Jits_Linear_8,1,5,80,127,1734075736
51,18,18,Jits_Linear_8,2,1,48,40,1734145784
51,18,18,Jits_Linear_8,3,5,56,103,1734165812
51,18,18,Jits_Linear_8,0,5,63,98,1734696272
51,18,18,Jits_Linear_8,1,5,56,103,1734705572
51,18,18,Jits_Linear_8,2,1,48,37,1734791244
51,18,18,Jits_Linear_8,3,5,80,127,1734806184
51,18,18,Jits_Linear_8,0,5,63,98,1735445908
51,18,18,Jits_Linear_8,1,1,48,38,1735475436
51,18,18,Jits_Linear_8,2,5,80,127,1735476924
51,18,18,Jits_Linear_8,3,5,56,103,1735506228
51,18,18,Jits_Linear_8,0,5,80,127,1736106372
51,18,18,Jits_Linear_8,1,5,63,98,1736115596
51,18,18,Jits_Linear_8,2,1,48,40,1736138716
51,18,18,Jits_Linear_8,3,5,56,103,1736146264
51,18,18,Jits_Linear_8,0,5,80,127,1736646220
51,18,18,Jits_Linear_8,1,5,63,98,1736665364
51,18,18,Jits_Linear_8,2,5,56,103,1736715712
51,18,18,Jits_Linear_8,3,1,48,38,1736820112
51,18,18,Jits_Linear_8,0,5,63,98,1737315708
51,18,18,Jits_Linear_8,1,5,80,127,1737376400
51,18,18,Jits_Linear_8,2,5,56,103,1737395440
51,18,18,Jits_Linear_8,3,1,48,39,1737417064
51,18,18,Jits_Linear_8,0,5,63,98,1737915704
51,18,18,Jits_Linear_8,1,5,56,103,1737966084
51,18,18,Jits_Linear_8,2,5,80,127,1737976132
51,18,18,Jits_Linear_8,3,1,48,41,1738055068
51,18,18,Jits_Linear_8,0,5,56,103,1738585400
51,18,18,Jits_Linear_8,1,5,80,127,1738595816
51,18,18,Jits_Linear_8,2,1,48,38,1738634004
51,18,18,Jits_Linear_8,3,5,63,98,1738696132
51,18,18,Jits_Linear_8,0,5,80,127,1739185408
51,18,18,Jits_Linear_8,1,5,63,98,1739195824
51,18,18,Jits_Linear_8,2,1,48,31,1739242716
51,18,18,Jits_Linear_8,3,5,56,103,1739346196
51,18,18,Jits_Linear_8,0,5,63,98,1739825520
51,18,18,Jits_Linear_8,1,5,80,127,1739865388
51,18,18,Jits_Linear_8,2,1,48,41,1739927768
51,18,18,Jits_Linear_8,3,5,56,103,1739946296
51,18,18,Jits_Linear_8,0,5,56,103,1740445964
51,18,18,Jits_Linear_8,1,1,48,41,1740525012
51,18,18,Jits_Linear_8,2,5,80,127,1740546384
51,18,18,Jits_Linear_8,3,5,63,98,1740566092
51,18,18,Jits_Linear_8,0,5,80,127,1741136132
51,18,18,Jits_Linear_8,1,5,56,103,1741145504
51,18,18,Jits_Linear_8,2,1,48,40,1741180088
51,18,18,Jits_Linear_8,3,5,63,98,1741235632
51,18,18,Jits_Linear_8,0,5,56,103,1741766112
51,18,18,Jits_Linear_8,1,5,63,98,1741785324
51,18,18,Jits_Linear_8,2,1,48,38,1741824188
51,18,18,Jits_Linear_8,3,5,80,127,1741866308
51,18,18,Jits_Linear_8,0,5,63,98,1742336328
51,18,18,Jits_Linear_8,1,5,56,103,1742425416
51,18,18,Jits_Linear_8,2,5,80,127,1742428556
51,18,18,Jits_Linear_8,3,1,48,41,1742472352
51,18,18,Jits_Linear_8,0,5,56,103,1742985532
51,18,18,Jits_Linear_8,1,5,80,127,1743046076
51,18,18,Jits_Linear_8,2,5,63,98,1743056220
51,18,18,Jits_Linear_8,3,1,48,38,1743091024
51,18,18,Jits_Linear_8,0,5,80,127,1743656220
51,18,18,Jits_Linear_8,1,5,56,103,1743665664
51,18,18,Jits_Linear_8,2,5,63,98,1743668656
51,18,18,Jits_Linear_8,3,1,48,43,1743686320
51,18,18,Jits_Linear_8,0,5,56,103,1744235992
51,18,18,Jits_Linear_8,1,5,80,127,1744246264
51,18,18,Jits_Linear_8,2,5,63,98,1744265600
51,18,18,Jits_Linear_8,3,1,48,44,1744298012
51,18,18,Jits_Linear_8,0,5,63,98,1744825808
51,18,18,Jits_Linear_8,1,5,80,127,1744886152
51,18,18,Jits_Linear_8,2,1,48,41,1744914528
51,18,18,Jits_Linear_8,3,5,56,103,1744936268
51,18,18,Jits_Linear_8,0,5,63,98,1745526220
51,18,18,Jits_Linear_8,1,1,48,41,1745530312
51,18,18,Jits_Linear_8,2,5,56,103,1745536560
51,18,18,Jits_Linear_8,3,5,80,127,1745585492
51,18,18,Jits_Linear_8,0,5,63,98,1746036016
51,18,18,Jits_Linear_8,1,5,80,127,1746055504
51,18,18,Jits_Linear_8,2,5,56,103,1746066072
51,18,18,Jits_Linear_8,3,1,48,39,1746158512
51,18,18,Jits_Linear_8,0,5,63,98,1746646436
51,18,18,Jits_Linear_8,1,5,80,127,1746649948
51,18,18,Jits_Linear_8,2,5,56,103,1746686300
51,18,18,Jits_Linear_8,3,1,48,36,1746734304
51,18,18,Jits_Linear_8,0,5,63,98,1747326360
51,18,18,Jits_Linear_8,1,5,80,127,1747356108
51,18,18,Jits_Linear_8,2,1,48,32,1747357076
51,18,18,Jits_Linear_8,3,5,56,103,1747366224
51,18,18,Jits_Linear_8,0,5,56,103,1747885376
51,18,18,Jits_Linear_8,1,5,80,127,1747916048
51,18,18,Jits_Linear_8,2,5,63,98,1747946020
51,18,18,Jits_Linear_8,3,1,48,33,1747972952
51,18,18,Jits_Linear_8,0,1,48,34,1748573416
51,18,18,Jits_Linear_8,1,5,63,98,1748585944
51,18,18,Jits_Linear_8,2,5,56,103,1748626032
51,18,18,Jits_Linear_8,3,5,80,127,1748629024
51,18,18,Jits_Linear_8,0,5,80,127,1749085548
51,18,18,Jits_Linear_8,1,5,56,103,1749165424
51,18,18,Jits_Linear_8,2,1,48,37,1749215200
51,18,18,Jits_Linear_8,3,5,63,98,1749216764
51,18,18,Jits_Linear_8,0,5,80,127,1749666224
51,18,18,Jits_Linear_8,1,5,56,103,1749686084
51,18,18,Jits_Linear_8,2,5,63,98,1749775944
51,18,18,Jits_Linear_8,3,1,48,29,1749820936
51,18,18,Jits_Linear_8,0,5,80,127,1750306116
51,18,18,Jits_Linear_8,1,5,63,98,1750346128
51,18,18,Jits_Linear_8,2,5,56,103,1750385996
51,18,18,Jits_Linear_8,3,1,48,35,1750431136
51,18,18,Jits_Linear_8,0,5,63,98,1750875412
51,18,18,Jits_Linear_8,1,5,80,127,1750936028
51,18,18,Jits_Linear_8,2,5,56,103,1750965776
51,18,18,Jits_Linear_8,3,1,48,38,1751026760
51,18,18,Jits_Linear_8,0,5,56,103,1751475704
51,18,18,Jits_Linear_8,1,5,80,127,1751506376
51,18,18,Jits_Linear_8,2,5,63,98,1751596360
51,18,18,Jits_Linear_8,3,1,48,40,1751641428
51,18,18,Jits_Linear_8,0,5,56,103,1752075812
51,18,18,Jits_Linear_8,1,5,80,127,1752186252
51,18,18,Jits_Linear_8,2,5,63,98,1752215852
51,18,18,Jits_Linear_8,3,1,48,34,1752252224
51,18,18,Jits_Linear_8,0,5,56,103,1752715760
51,18,18,Jits_Linear_8,1,5,63,98,1752776076
51,18,18,Jits_Linear_8,2,5,80,127,1752805752
51,18,18,Jits_Linear_8,3,1,48,34,1752848052
51,18,18,Jits_Linear_8,0,5,56,103,1753275744
51,18,18,Jits_Linear_8,1,5,63,98,1753346424
51,18,18,Jits_Linear_8,2,5,80,127,1753365764
51,18,18,Jits_Linear_8,3,1,48,41,1753421240
51,18,18,Jits_Linear_8,0,5,80,127,1753835848
51,18,18,Jits_Linear_8,1,5,63,98,1753856384
51,18,18,Jits_Linear_8,2,5,56,103,1753905612
51,18,18,Jits_Linear_8,3,1,48,38,1754015560
51,18,18,Jits_Linear_8,0,5,63,98,1754436076
51,18,18,Jits_Linear_8,1,5,80,127,1754446124
51,18,18,Jits_Linear_8,2,5,56,103,1754496324
51,18,18,Jits_Linear_8,3,1,48,38,1754569484
51,18,18,Jits_Linear_8,0,5,63,98,1755015688
51,18,18,Jits_Linear_8,1,5,80,127,1755086072
51,18,18,Jits_Linear_8,2,5,56,103,1755105780
51,18,18,Jits_Linear_8,3,1,48,45,1755133244
51,18,18,Jits_Linear_8,0,5,63,98,1755625900
51,18,18,Jits_Linear_8,1,5,80,127,1755629188
51,18,18,Jits_Linear_8,2,5,56,103,1755695656
51,18,18,Jits_Linear_8,3,1,48,43,1755699596
51,18,18,Jits_Linear_8,0,5,80,127,1756156208
51,18,18,Jits_Linear_8,1,5,56,103,1756175772
51,18,18,Jits_Linear_8,2,5,63,98,1756186040
51,18,18,Jits_Linear_8,3,1,48,38,1756272760
51,18,18,Jits_Linear_8,0,5,56,103,1756756288
51,18,18,Jits_Linear_8,1,1,48,41,1756798812
51,18,18,Jits_Linear_8,2,5,63,98,1756845596
51,18,18,Jits_Linear_8,3,5,80,127,1756849032
51,18,18,Jits_Linear_8,0,5,80,127,1757306168
51,18,18,Jits_Linear_8,1,5,56,103,1757315540
51,18,18,Jits_Linear_8,2,1,48,45,1757333804
51,18,18,Jits_Linear_8,3,5,63,98,1757335920
51,18,18,Jits_Linear_8,0,5,63,98,1757875676
51,18,18,Jits_Linear_8,1,1,48,45,1757914716
51,18,18,Jits_Linear_8,2,5,80,127,1757935940
51,18,18,Jits_Linear_8,3,5,56,103,1757946132
51,18,18,Jits_Linear_8,0,1,48,49,1758453248
51,18,18,Jits_Linear_8,1,5,63,98,1758515844
51,18,18,Jits_Linear_8,2,5,80,127,1758546180
51,18,18,Jits_Linear_8,3,5,56,103,1758586192
51,18,18,Jits_Linear_8,0,1,48,42,1759071308
51,18,18,Jits_Linear_8,1,5,56,103,1759075760
51,18,18,Jits_Linear_8,2,5,80,127,1759085884
51,18,18,Jits_Linear_8,3,5,63,98,1759125820
51,18,18,Jits_Linear_8,0,5,80,127,1759606012
51,18,18,Jits_Linear_8,1,1,48,46,1759665704
51,18,18,Jits_Linear_8,2,5,56,103,1759685880
51,18,18,Jits_Linear_8,3,5,63,98,1759696176
51,18,18,Jits_Linear_8,0,5,80,127,1760216608
51,18,18,Jits_Linear_8,1,1,48,50,1760262504
51,18,18,Jits_Linear_8,2,5,56,103,1760296624
51,18,18,Jits_Linear_8,3,5,63,98,1760305624
51,18,18,Jits_Linear_8,0,5,80,127,1760735564
51,18,18,Jits_Linear_8,1,5,56,103,1760785840
51,18,18,Jits_Linear_8,2,5,63,98,1760835968
51,18,18,Jits_Linear_8,3,1,48,47,1760842152
51,18,18,Jits_Linear_8,0,5,56,103,1761356100
51,18,18,Jits_Linear_8,1,5,63,98,1761359464
51,18,18,Jits_Linear_8,2,1,48,44,1761397652
51,18,18,Jits_Linear_8,3,5,80,127,1761406444
51,18,18,Jits_Linear_8,0,5,56,103,1761935656
51,18,18,Jits_Linear_8,1,1,48,45,1761937444
51,18,18,Jits_Linear_8,2,5,63,98,1761965772
51,18,18,Jits_Linear_8,3,5,80,127,1761975744
51,18,18,Jits_Linear_8,0,5,63,98,1762405828
51,18,18,Jits_Linear_8,1,5,56,103,1762476488
51,18,18,Jits_Linear_8,2,1,48,45,1762519192
51,18,18,Jits_Linear_8,3,5,80,127,1762525808
51,18,18,Jits_Linear_8,0,5,63,98,1762995564
51,18,18,Jits_Linear_8,1,5,56,103,1763005832
51,18,18,Jits_Linear_8,2,5,80,127,1763008900
51,18,18,Jits_Linear_8,3,1,48,45,1763076552
51,18,18,Jits_Linear_8,0,5,80,127,1763496272
51,18,18,Jits_Linear_8,1,5,56,103,1763555572
51,18,18,Jits_Linear_8,2,1,48,43,1763598992
51,18,18,Jits_Linear_8,3,5,63,98,1763645772
51,18,18,Jits_Linear_8,0,5,80,127,1764046336
51,18,18,Jits_Linear_8,1,1,48,36,1764104680
51,18,18,Jits_Linear_8,2,5,56,103,1764145684
51,18,18,Jits_Linear_8,3,5,63,98,1764185472
51,18,18,Jits_Linear_8,0,1,48,41,1764638972
51,18,18,Jits_Linear_8,1,5,56,103,1764646120
51,18,18,Jits_Linear_8,2,5,63,98,1764665680
51,18,18,Jits_Linear_8,3,5,80,127,1764705696
51,18,18,Jits_Linear_8,0,5,63,98,1765165652
51,18,18,Jits_Linear_8,1,5,56,103,1765185892
51,18,18,Jits_Linear_8,2,1,48,47,1765205128
51,18,18,Jits_Linear_8,3,5,80,127,1765286132
51,18,18,Jits_Linear_8,0,5,63,98,1765695824
51,18,18,Jits_Linear_8,1,5,80,127,1765805444
51,18,18,Jits_Linear_8,2,1,48,41,1765815460
51,18,18,Jits_Linear_8,3,5,56,103,1765836108
51,18,18,Jits_Linear_8,0,5,56,103,1766255968
51,18,18,Jits_Linear_8,1,5,63,98,1766285644
51,18,18,Jits_Linear_8,2,5,80,127,1766335916
51,18,18,Jits_Linear_8,3,1,48,43,1766399144
51,18,18,Jits_Linear_8,0,5,63,98,1766765920
51,18,18,Jits_Linear_8,1,5,56,103,1766795596
51,18,18,Jits_Linear_8,2,5,80,127,1766845724
51,18,18,Jits_Linear_8,3,1,48,41,1766897560
51,18,18,Jits_Linear_8,0,5,56,103,1767336388
51,18,18,Jits_Linear_8,1,5,63,98,1767355728
51,18,18,Jits_Linear_8,2,1,48,39,1767382392
51,18,18,Jits_Linear_8,3,5,80,127,1767435544
51,18,18,Jits_Linear_8,0,5,63,98,1767846196
51,18,18,Jits_Linear_8,1,5,56,103,1767905640
51,18,18,Jits_Linear_8,2,1,48,43,1767927864
51,18,18,Jits_Linear_8,3,5,80,127,1767936580
51,18,18,Jits_Linear_8,0,5,56,103,1768425760
51,18,18,Jits_Linear_8,1,1,48,44,1768450900
51,18,18,Jits_Linear_8,2,5,80,127,1768486368
51,18,18,Jits_Linear_8,3,5,63,98,1768526160
51,18,18,Jits_Linear_8,0,5,63,98,1768935720
51,18,18,Jits_Linear_8,1,1,48,43,1768980864
51,18,18,Jits_Linear_8,2,5,56,103,1768996476
51,18,18,Jits_Linear_8,3,5,80,127,1769065784
51,18,18,Jits_Linear_8,0,1,48,37,1769515608
51,18,18,Jits_Linear_8,1,5,56,103,1769546276
51,18,18,Jits_Linear_8,2,5,63,98,1769556696
51,18,18,Jits_Linear_8,3,5,80,127,1769559980
51,18,18,Jits_Linear_8,0,5,63,98,1770016208
51,18,18,Jits_Linear_8,1,1,48,41,1770058656
51,18,18,Jits_Linear_8,2,5,56,103,1770075468
51,18,18,Jits_Linear_8,3,5,80,127,1770078460
51,18,18,Jits_Linear_8,0,5,63,98,1770525988
51,18,18,Jits_Linear_8,1,5,80,127,1770555740
51,18,18,Jits_Linear_8,2,5,56,103,1770576496
51,18,18,Jits_Linear_8,3,1,48,28,1770593708
51,18,18,Jits_Linear_8,0,5,56,103,1771055480
51,18,18,Jits_Linear_8,1,5,63,98,1771105608
51,18,18,Jits_Linear_8,2,1,48,34,1771118992
51,18,18,Jits_Linear_8,3,5,80,127,1771185544
51,18,18,Jits_Linear_8,0,5,80,127,1771556444
51,18,18,Jits_Linear_8,1,5,63,98,1771596084
51,18,18,Jits_Linear_8,2,5,56,103,1771615572
51,18,18,Jits_Linear_8,3,1,48,38,1771623868
51,18,18,Jits_Linear_8,0,1,48,35,1772112956
51,18,18,Jits_Linear_8,1,5,56,103,1772146032
51,18,18,Jits_Linear_8,2,5,80,127,1772156376
51,18,18,Jits_Linear_8,3,5,63,98,1772175640
51,18,18,Jits_Linear_8,0,1,48,42,1772628224
51,18,18,Jits_Linear_8,1,5,56,103,1772645708
51,18,18,Jits_Linear_8,2,5,63,98,1772695840
51,18,18,Jits_Linear_8,3,5,80,127,1772725588
51,18,18,Jits_Linear_8,0,5,56,103,1773115728
51,18,18,Jits_Linear_8,1,5,63,98,1773125996
51,18,18,Jits_Linear_8,2,5,80,127,1773176272
51,18,18,Jits_Linear_8,3,1,48,34,1773177164
51,18,18,Jits_Linear_8,0,5,56,103,1773625676
51,18,18,Jits_Linear_8,1,5,80,127,1773629036
51,18,18,Jits_Linear_8,2,1,48,43,1773664012
51,18,18,Jits_Linear_8,3,5,63,98,1773785484
51,18,18,Jits_Linear_8,0,1,48,44,1774106588
51,18,18,Jits_Linear_8,1,5,63,98,1774156140
51,18,18,Jits_Linear_8,2,5,56,103,1774225736
51,18,18,Jits_Linear_8,3,5,80,127,1774265676
51,18,18,Jits_Linear_8,0,1,48,41,1774623792
51,18,18,Jits_Linear_8,1,5,63,98,1774706020
51,18,18,Jits_Linear_8,2,5,56,103,1774796236
51,18,18,Jits_Linear_8,3,5,80,127,1774799304
51,18,18,Jits_Linear_8,0,5,56,103,1775205776
51,18,18,Jits_Linear_8,1,1,48,42,1775253540
51,18,18,Jits_Linear_8,2,5,63,98,1775295832
51,18,18,Jits_Linear_8,3,5,80,127,1775306200
51,18,18,Jits_Linear_8,0,5,56,103,1775686288
51,18,18,Jits_Linear_8,1,5,63,98,1775736196
51,18,18,Jits_Linear_8,2,5,80,127,1775765872
51,18,18,Jits_Linear_8,3,1,48,46,1775822420
51,18,18,Jits_Linear_8,0,5,63,98,1776265476
51,18,18,Jits_Linear_8,1,5,80,127,1776275972
51,18,18,Jits_Linear_8,2,1,48,47,1776289804
51,18,18,Jits_Linear_8,3,5,56,103,1776336304
51,18,18,Jits_Linear_8,0,5,63,98,1776685364
51,18,18,Jits_Linear_8,1,5,80,127,1776745832
51,18,18,Jits_Linear_8,2,5,56,103,1776785696
51,18,18,Jits_Linear_8,3,1,48,45,1776839676
51,18,18,Jits_Linear_8,0,5,56,103,1777285440
51,18,18,Jits_Linear_8,1,1,48,40,1777305068
51,18,18,Jits_Linear_8,2,5,80,127,1777306716
51,18,18,Jits_Linear_8,3,5,63,98,1777325380
51,18,18,Jits_Linear_8,0,5,63,98,1777706316
51,18,18,Jits_Linear_8,1,5,56,103,1777725728
51,18,18,Jits_Linear_8,2,5,80,127,1777765668
51,18,18,Jits_Linear_8,3,1,48,43,1777791624
51,18,18,Jits_Linear_8,0,5,63,98,1778216252
51,18,18,Jits_Linear_8,1,5,80,127,1778245856
51,18,18,Jits_Linear_8,2,5,56,103,1778265564
51,18,18,Jits_Linear_8,3,1,48,46,1778286588
51,18,18,Jits_Linear_8,0,5,80,127,1778686184
51,18,18,Jits_Linear_8,1,5,56,103,1778735416
51,18,18,Jits_Linear_8,2,1,48,46,1778785588
51,18,18,Jits_Linear_8,3,5,63,98,1778796024
51,18,18,Jits_Linear_8,0,5,63,98,1779165572
51,18,18,Jits_Linear_8,1,1,48,45,1779284380
51,18,18,Jits_Linear_8,2,5,56,103,1779286348
51,18,18,Jits_Linear_8,3,5,80,127,1779316244
51,18,18,Jits_Linear_8,0,5,80,127,1779696348
51,18,18,Jits_Linear_8,1,5,63,98,1779715464
51,18,18,Jits_Linear_8,2,1,48,39,1779753260
51,18,18,Jits_Linear_8,3,5,56,103,1779786260
51,18,18,Jits_Linear_8,0,5,63,98,1780206156
51,18,18,Jits_Linear_8,1,5,56,103,1780216132
51,18,18,Jits_Linear_8,2,1,48,38,1780237304
51,18,18,Jits_Linear_8,3,5,80,127,1780295996
51,18,18,Jits_Linear_8,0,1,48,39,1780693580
51,18,18,Jits_Linear_8,1,5,56,103,1780755956
51,18,18,Jits_Linear_8,2,5,80,127,1780785544
51,18,18,Jits_Linear_8,3,5,63,98,1780795740
51,18,18,Jits_Linear_8,0,9999,9999,9999,1670383728
51,18,18,Jits_Linear_8,1,9999,9999,9999,1671203964
51,18,18,Jits_Linear_8,2,9999,9999,9999,1672023148
51,18,18,Jits_Linear_8,3,9999,9999,9999,1672843368
51,18,18,Jits_Linear_8,4,9999,9999,9999,1673663584
51,18,18,Jits_Linear_8,5,9999,9999,9999,1674473556
51,18,18,Jits_Linear_8,6,9999,9999,9999,1675283572
51,18,18,Jits_Linear_8,7,9999,9999,9999,1676093532
51,18,18,Jits_Linear_8,8,9999,9999,9999,1676903480
51,18,18,Jits_Linear_8,9,9999,9999,9999,1677713488
51,18,18,Jits_Linear_8,10,9999,9999,9999,1678513264
51,18,18,Jits_Linear_8,11,9999,9999,9999,1679314016
51,18,18,Jits_Linear_8,12,9999,9999,9999,1680113788
51,18,18,Jits_Linear_8,13,9999,9999,9999,1680913476
51,18,18,Jits_Linear_8,14,9999,9999,9999,1681713212
51,18,18,Jits_Linear_8,15,9999,9999,9999,1682503804
51,18,18,Jits_Linear_8,16,9999,9999,9999,1683293276
51,18,18,Jits_Linear_8,17,9999,9999,9999,1684083832
51,18,18,Jits_Linear_8,18,9999,9999,9999,1684873324
51,18,18,Jits_Linear_8,19,9999,9999,9999,1685663800
51,18,18,Jits_Linear_8,20,9999,9999,9999,1686443100
51,18,18,Jits_Linear_8,21,9999,9999,9999,1687223372
51,18,18,Jits_Linear_8,22,9999,9999,9999,1688003652
51,18,18,Jits_Linear_8,23,9999,9999,9999,1688783956
51,18,18,Jits_Linear_8,24,9999,9999,9999,1689563252
51,18,18,Jits_Linear_8,25,9999,9999,9999,1690333264
51,18,18,Jits_Linear_8,26,9999,9999,9999,1691103288
51,18,18,Jits_Linear_8,27,9999,9999,9999,1691873388
51,18,18,Jits_Linear_8,28,9999,9999,9999,1692643408
51,18,18,Jits_Linear_8,29,9999,9999,9999,1693413444
51,18,18,Jits_Linear_8,30,9999,9999,9999,1694173260
51,18,18,Jits_Linear_8,31,9999,9999,9999,1694934128
51,18,18,Jits_Linear_8,32,9999,9999,9999,1695703104
51,18,18,Jits_Linear_8,33,9999,9999,9999,1696463980
51,18,18,Jits_Linear_8,34,9999,9999,9999,1697223788
51,18,18,Jits_Linear_8,35,9999,9999,9999,1697973348
51,18,18,Jits_Linear_8,36,9999,9999,9999,1698723964
51,18,18,Jits_Linear_8,37,9999,9999,9999,1699473536
51,18,18,Jits_Linear_8,38,9999,9999,9999,1700224076
51,18,18,Jits_Linear_8,39,9999,9999,9999,1700983916
51,18,18,Jits_Linear_8,40,9999,9999,9999,1701723216
51,18,18,Jits_Linear_8,41,9999,9999,9999,1702463556
51,18,18,Jits_Linear_8,42,9999,9999,9999,1703203896
51,18,18,Jits_Linear_8,43,9999,9999,9999,1703943268
51,18,18,Jits_Linear_8,44,9999,9999,9999,1704683592
51,18,18,Jits_Linear_8,45,9999,9999,9999,1705413724
51,18,18,Jits_Linear_8,46,9999,9999,9999,1706143812
51,18,18,Jits_Linear_8,47,9999,9999,9999,1706873956
51,18,18,Jits_Linear_8,48,9999,9999,9999,1707604052
51,18,18,Jits_Linear_8,49,9999,9999,9999,1708333164
51,18,18,Jits_Linear_8,50,9999,9999,9999,1709054028
51,18,18,Jits_Linear_8,51,9999,9999,9999,1709773936
51,18,18,Jits_Linear_8,52,9999,9999,9999,1710493816
51,18,18,Jits_Linear_8,53,9999,9999,9999,1711213652
51,18,18,Jits_Linear_8,54,9999,9999,9999,1711933548
51,18,18,Jits_Linear_8,55,9999,9999,9999,1712643192
51,18,18,Jits_Linear_8,56,9999,9999,9999,1713353832
51,18,18,Jits_Linear_8,57,9999,9999,9999,1714063472
51,18,18,Jits_Linear_8,58,9999,9999,9999,1714774084
51,18,18,Jits_Linear_8,59,9999,9999,9999,1715493984
51,18,18,Jits_Linear_8,60,9999,9999,9999,1716193364
51,18,18,Jits_Linear_8,61,9999,9999,9999,1716893768
51,18,18,Jits_Linear_8,62,9999,9999,9999,1717593216
51,18,18,Jits_Linear_8,63,9999,9999,9999,1718293620
51,18,18,Jits_Linear_8,64,9999,9999,9999,1718993976
51,18,18,Jits_Linear_8,65,9999,9999,9999,1719683132
51,18,18,Jits_Linear_8,66,9999,9999,9999,1720373372
51,18,18,Jits_Linear_8,67,9999,9999,9999,1721063524
51,18,18,Jits_Linear_8,68,9999,9999,9999,1721753720
51,18,18,Jits_Linear_8,69,9999,9999,9999,1722443880
51,18,18,Jits_Linear_8,70,9999,9999,9999,1723123772
51,18,18,Jits_Linear_8,71,9999,9999,9999,1723803712
51,18,18,Jits_Linear_8,72,9999,9999,9999,1724483672
51,18,18,Jits_Linear_8,73,9999,9999,9999,1725163644
51,18,18,Jits_Linear_8,74,9999,9999,9999,1725843524
51,18,18,Jits_Linear_8,75,9999,9999,9999,1726513220
51,18,18,Jits_Linear_8,76,9999,9999,9999,1727183972
51,18,18,Jits_Linear_8,77,9999,9999,9999,1727853660
51,18,18,Jits_Linear_8,78,9999,9999,9999,1728523368
51,18,18,Jits_Linear_8,79,9999,9999,9999,1729194100
51,18,18,Jits_Linear_8,80,9999,9999,9999,1729853548
51,18,18,Jits_Linear_8,81,9999,9999,9999,1730514020
51,18,18,Jits_Linear_8,82,9999,9999,9999,1731173500
51,18,18,Jits_Linear_8,83,9999,9999,9999,1731833972
51,18,18,Jits_Linear_8,84,9999,9999,9999,1732493388
51,18,18,Jits_Linear_8,85,9999,9999,9999,1733143616
51,18,18,Jits_Linear_8,86,9999,9999,9999,1733793884
51,18,18,Jits_Linear_8,87,9999,9999,9999,1734443120
51,18,18,Jits_Linear_8,88,9999,9999,9999,1735093304
51,18,18,Jits_Linear_8,89,9999,9999,9999,1735743608
51,18,18,Jits_Linear_8,90,9999,9999,9999,1736383616
51,18,18,Jits_Linear_8,91,9999,9999,9999,1737023580
51,18,18,Jits_Linear_8,92,9999,9999,9999,1737663600
51,18,18,Jits_Linear_8,93,9999,9999,9999,1738303548
51,18,18,Jits_Linear_8,94,9999,9999,9999,1738943552
51,18,18,Jits_Linear_8,95,9999,9999,9999,1739573328
51,18,18,Jits_Linear_8,96,9999,9999,9999,1740203080
51,18,18,Jits_Linear_8,97,9999,9999,9999,1740833888
51,18,18,Jits_Linear_8,98,9999,9999,9999,1741463644
51,18,18,Jits_Linear_8,99,9999,9999,9999,1742093424
51,18,18,Jits_Linear_8,100,9999,9999,9999,1742713952
51,18,18,Jits_Linear_8,101,9999,9999,9999,1743333452
51,18,18,Jits_Linear_8,102,9999,9999,9999,1743953980
51,18,18,Jits_Linear_8,103,9999,9999,9999,1744573540
51,18,18,Jits_Linear_8,104,9999,9999,9999,1745194096
51,18,18,Jits_Linear_8,105,9999,9999,9999,1745803320
51,18,18,Jits_Linear_8,106,9999,9999,9999,1746413668
51,18,18,Jits_Linear_8,107,9999,9999,9999,1747023980
51,18,18,Jits_Linear_8,108,9999,9999,9999,1747633268
51,18,18,Jits_Linear_8,109,9999,9999,9999,1748243548
51,18,18,Jits_Linear_8,110,9999,9999,9999,1748843636
51,18,18,Jits_Linear_8,111,9999,9999,9999,1749443708
51,18,18,Jits_Linear_8,112,9999,9999,9999,1750043732
51,18,18,Jits_Linear_8,113,9999,9999,9999,1750643820
51,18,18,Jits_Linear_8,114,9999,9999,9999,1751243852
51,18,18,Jits_Linear_8,115,9999,9999,9999,1751833660
51,18,18,Jits_Linear_8,116,9999,9999,9999,1752423484
51,18,18,Jits_Linear_8,117,9999,9999,9999,1753013360
51,18,18,Jits_Linear_8,118,9999,9999,9999,1753603136
51,18,18,Jits_Linear_8,119,9999,9999,9999,1754193996
51,18,18,Jits_Linear_8,120,9999,9999,9999,1754773624
51,18,18,Jits_Linear_8,121,9999,9999,9999,1755353196
51,18,18,Jits_Linear_8,122,9999,9999,9999,1755933776
51,18,18,Jits_Linear_8,123,9999,9999,9999,1756513384
51,18,18,Jits_Linear_8,124,9999,9999,9999,1757093984
51,18,18,Jits_Linear_8,125,9999,9999,9999,1757663292
51,18,18,Jits_Linear_8,126,9999,9999,9999,1758233704
51,18,18,Jits_Linear_8,127,9999,9999,9999,1758804032
51,18,18,Jits_Linear_8,128,9999,9999,9999,1759373392
51,18,18,Jits_Linear_8,129,9999,9999,9999,1759943792
51,18,18,Jits_Linear_8,130,9999,9999,9999,1760503896
51,18,18,Jits_Linear_8,131,9999,9999,9999,1761064048
51,18,18,Jits_Linear_8,132,9999,9999,9999,1761623148
51,18,18,Jits_Linear_8,133,9999,9999,9999,1762183232
51,18,18,Jits_Linear_8,134,9999,9999,9999,1762743388
51,18,18,Jits_Linear_8,135,9999,9999,9999,1763293276
51,18,18,Jits_Linear_8,136,9999,9999,9999,1763843148
51,18,18,Jits_Linear_8,137,9999,9999,9999,1764394084
51,18,18,Jits_Linear_8,138,9999,9999,9999,1764943972
51,18,18,Jits_Linear_8,139,9999,9999,9999,1765493844
51,18,18,Jits_Linear_8,140,9999,9999,9999,1766033532
51,18,18,Jits_Linear_8,141,9999,9999,9999,1766573140
51,18,18,Jits_Linear_8,142,9999,9999,9999,1767113832
51,18,18,Jits_Linear_8,143,9999,9999,9999,1767653444
51,18,18,Jits_Linear_8,144,9999,9999,9999,1768193136
51,18,18,Jits_Linear_8,145,9999,9999,9999,1768723536
51,18,18,Jits_Linear_8,146,9999,9999,9999,1769253944
51,18,18,Jits_Linear_8,147,9999,9999,9999,1769783364
51,18,18,Jits_Linear_8,148,9999,9999,9999,1770313820
51,18,18,Jits_Linear_8,149,9999,9999,9999,1770843236
51,18,18,Jits_Linear_8,150,9999,9999,9999,1771363444
51,18,18,Jits_Linear_8,151,9999,9999,9999,1771883584
51,18,18,Jits_Linear_8,152,9999,9999,9999,1772403804
51,18,18,Jits_Linear_8,153,9999,9999,9999,1772924012
51,18,18,Jits_Linear_8,154,9999,9999,9999,1773443164
51,18,18,Jits_Linear_8,155,9999,9999,9999,1773953108
51,18,18,Jits_Linear_8,156,9999,9999,9999,1774464112
51,18,18,Jits_Linear_8,157,9999,9999,9999,1774983264
51,18,18,Jits_Linear_8,158,9999,9999,9999,1775493212
51,18,18,Jits_Linear_8,159,9999,9999,9999,1776003168
51,18,18,Jits_Linear_8,160,9999,9999,9999,1776503912
51,18,18,Jits_Linear_8,161,9999,9999,9999,1777003588
51,18,18,Jits_Linear_8,162,9999,9999,9999,1777503348
51,18,18,Jits_Linear_8,163,9999,9999,9999,1778004084
51,18,18,Jits_Linear_8,164,9999,9999,9999,1778503760
51,18,18,Jits_Linear_8,165,9999,9999,9999,1778993248
51,18,18,Jits_Linear_8,166,9999,9999,9999,1779483728
51,18,18,Jits_Linear_8,167,9999,9999,9999,1779973220
51,18,18,Jits_Linear_8,168,9999,9999,9999,1780463704
51,18,18,Jits_Linear_8,169,9999,9999,9999,1780953204
51,19,19,Jits_Linear_5,0,5,56,103,1789534496
51,19,19,Jits_Linear_5,1,5,63,98,1789537588
51,19,19,Jits_Linear_5,2,5,80,127,1789540936
51,19,19,Jits_Linear_5,0,5,56,103,1790015032
51,19,19,Jits_Linear_5,1,5,63,98,1790018204
51,19,19,Jits_Linear_5,2,5,80,127,1790021252
51,19,19,Jits_Linear_5,0,5,56,103,1790494992
51,19,19,Jits_Linear_5,1,1,48,45,1790497732
51,19,19,Jits_Linear_5,2,5,80,127,1790505328
51,19,19,Jits_Linear_5,3,5,63,98,1790524816
51,19,19,Jits_Linear_5,0,5,63,98,1790925092
51,19,19,Jits_Linear_5,1,1,48,46,1790940492
51,19,19,Jits_Linear_5,2,5,80,127,1790955132
51,19,19,Jits_Linear_5,3,5,56,103,1790965032
51,19,19,Jits_Linear_5,0,1,48,48,1791381704
51,19,19,Jits_Linear_5,1,5,80,127,1791464856
51,19,19,Jits_Linear_5,2,5,56,103,1791474976
51,19,19,Jits_Linear_5,3,5,63,98,1791505012
51,19,19,Jits_Linear_5,0,1,48,44,1791930176
51,19,19,Jits_Linear_5,1,5,63,98,1791945148
51,19,19,Jits_Linear_5,2,5,56,103,1791974824
51,19,19,Jits_Linear_5,3,5,80,127,1791985168
51,19,19,Jits_Linear_5,0,5,56,103,1792385260
51,19,19,Jits_Linear_5,1,1,48,49,1792427708
51,19,19,Jits_Linear_5,2,5,63,98,1792434484
51,19,19,Jits_Linear_5,3,5,80,127,1792455020
51,19,19,Jits_Linear_5,0,5,80,127,1792874996
51,19,19,Jits_Linear_5,1,1,48,50,1792906136
51,19,19,Jits_Linear_5,2,5,63,98,1792925044
51,19,19,Jits_Linear_5,3,5,56,103,1792964836
51,19,19,Jits_Linear_5,0,5,56,103,1793365332
51,19,19,Jits_Linear_5,1,1,48,46,1793392564
51,19,19,Jits_Linear_5,2,5,63,98,1793395004
51,19,19,Jits_Linear_5,3,5,80,127,1793464836
51,19,19,Jits_Linear_5,0,5,56,103,1793854996
51,19,19,Jits_Linear_5,1,1,48,46,1793883972
51,19,19,Jits_Linear_5,2,5,80,127,1793915308
51,19,19,Jits_Linear_5,3,5,63,98,1793945060
51,19,19,Jits_Linear_5,0,5,56,103,1794354628
51,19,19,Jits_Linear_5,1,5,63,98,1794364972
51,19,19,Jits_Linear_5,2,1,48,50,1794365940
51,19,19,Jits_Linear_5,3,5,80,127,1794404680
51,19,19,Jits_Linear_5,0,1,48,50,1794829636
51,19,19,Jits_Linear_5,1,5,63,98,1794845028
51,19,19,Jits_Linear_5,2,5,80,127,1794924904
51,19,19,Jits_Linear_5,3,5,56,103,1794935160
51,19,19,Jits_Linear_5,0,1,48,50,1795359820
51,19,19,Jits_Linear_5,1,5,63,98,1795394992
51,19,19,Jits_Linear_5,2,5,56,103,1795434856
51,19,19,Jits_Linear_5,3,5,80,127,1795437996
51,19,19,Jits_Linear_5,0,5,56,103,1795854824
51,19,19,Jits_Linear_5,1,5,63,98,1795864872
51,19,19,Jits_Linear_5,2,1,48,45,1795892644
51,19,19,Jits_Linear_5,3,5,80,127,1795904876
51,19,19,Jits_Linear_5,0,5,56,103,1796345072
51,19,19,Jits_Linear_5,1,5,63,98,1796348368
51,19,19,Jits_Linear_5,2,5,80,127,1796364788
51,19,19,Jits_Linear_5,3,1,48,39,1796387012
51,19,19,Jits_Linear_5,0,1,48,42,1796834920
51,19,19,Jits_Linear_5,1,5,80,127,1796865368
51,19,19,Jits_Linear_5,2,5,56,103,1796874740
51,19,19,Jits_Linear_5,3,5,63,98,1796945304
51,19,19,Jits_Linear_5,0,1,48,48,1797341112
51,19,19,Jits_Linear_5,1,5,63,98,1797364976
51,19,19,Jits_Linear_5,2,5,56,103,1797384836
51,19,19,Jits_Linear_5,3,5,80,127,1797464768
51,19,19,Jits_Linear_5,0,1,48,44,1797838556
51,19,19,Jits_Linear_5,1,5,56,103,1797885340
51,19,19,Jits_Linear_5,2,5,80,127,1797925208
51,19,19,Jits_Linear_5,3,5,63,98,1797934564
51,19,19,Jits_Linear_5,0,1,48,47,1798374592
51,19,19,Jits_Linear_5,1,5,80,127,1798385024
51,19,19,Jits_Linear_5,2,5,63,98,1798414708
51,19,19,Jits_Linear_5,3,5,56,103,1798454940
51,19,19,Jits_Linear_5,0,1,48,46,1798897644
51,19,19,Jits_Linear_5,1,5,56,103,1798914460
51,19,19,Jits_Linear_5,2,5,63,98,1798945036
51,19,19,Jits_Linear_5,3,5,80,127,1798995296
51,19,19,Jits_Linear_5,0,1,48,47,1799412856
51,19,19,Jits_Linear_5,1,5,80,127,1799425760
51,19,19,Jits_Linear_5,2,5,56,103,1799465628
51,19,19,Jits_Linear_5,3,5,63,98,1799474628
51,19,19,Jits_Linear_5,0,5,80,127,1799925156
51,19,19,Jits_Linear_5,1,5,63,98,1799965024
51,19,19,Jits_Linear_5,2,1,48,44,1799977136
51,19,19,Jits_Linear_5,3,5,56,103,1800024364
51,19,19,Jits_Linear_5,0,5,56,103,1800445240
51,19,19,Jits_Linear_5,1,5,80,127,1800454688
51,19,19,Jits_Linear_5,2,1,48,46,1800458704
51,19,19,Jits_Linear_5,3,5,63,98,1800535672
51,19,19,Jits_Linear_5,0,5,80,127,1800964420
51,19,19,Jits_Linear_5,1,1,48,42,1800997656
51,19,19,Jits_Linear_5,2,5,63,98,1801024808
51,19,19,Jits_Linear_5,3,5,56,103,1801054708
51,19,19,Jits_Linear_5,0,5,56,103,1801484652
51,19,19,Jits_Linear_5,1,1,48,46,1801514892
51,19,19,Jits_Linear_5,2,5,80,127,1801545112
51,19,19,Jits_Linear_5,3,5,63,98,1801584904
51,19,19,Jits_Linear_5,0,1,48,44,1802043668
51,19,19,Jits_Linear_5,1,5,56,103,1802065416
51,19,19,Jits_Linear_5,2,5,63,98,1802074564
51,19,19,Jits_Linear_5,3,5,80,127,1802077852
51,19,19,Jits_Linear_5,0,5,80,127,1802544572
51,19,19,Jits_Linear_5,1,1,48,43,1802564708
51,19,19,Jits_Linear_5,2,5,63,98,1802634780
51,19,19,Jits_Linear_5,3,5,56,103,1802644752
51,19,19,Jits_Linear_5,0,5,56,103,1803074976
51,19,19,Jits_Linear_5,1,5,63,98,1803078072
51,19,19,Jits_Linear_5,2,5,80,127,1803081120
51,19,19,Jits_Linear_5,3,1,48,47,1803082604
51,19,19,Jits_Linear_5,0,1,48,49,1803591856
51,19,19,Jits_Linear_5,1,5,80,127,1803624784
51,19,19,Jits_Linear_5,2,5,63,98,1803675064
51,19,19,Jits_Linear_5,3,5,56,103,1803704800
51,19,19,Jits_Linear_5,0,5,56,103,1804134820
51,19,19,Jits_Linear_5,1,5,80,127,1804144868
51,19,19,Jits_Linear_5,2,1,48,48,1804168736
51,19,19,Jits_Linear_5,3,5,63,98,1804214840
51,19,19,Jits_Linear_5,0,5,56,103,1804674376
51,19,19,Jits_Linear_5,1,1,48,50,1804687012
51,19,19,Jits_Linear_5,2,5,63,98,1804694756
51,19,19,Jits_Linear_5,3,5,80,127,1804755396
51,19,19,Jits_Linear_5,0,1,48,48,1805202676
51,19,19,Jits_Linear_5,1,5,80,127,1805204788
51,19,19,Jits_Linear_5,2,5,63,98,1805274724
51,19,19,Jits_Linear_5,3,5,56,103,1805294960
51,19,19,Jits_Linear_5,0,1,48,48,1805761008
51,19,19,Jits_Linear_5,1,5,80,127,1805764940
51,19,19,Jits_Linear_5,2,5,56,103,1805775360
51,19,19,Jits_Linear_5,3,5,63,98,1805784584
51,19,19,Jits_Linear_5,0,5,80,127,1806295568
51,19,19,Jits_Linear_5,1,1,48,45,1806302816
51,19,19,Jits_Linear_5,2,5,56,103,1806314900
51,19,19,Jits_Linear_5,3,5,63,98,1806384580
51,19,19,Jits_Linear_5,0,5,56,103,1806845244
51,19,19,Jits_Linear_5,1,1,48,44,1806849632
51,19,19,Jits_Linear_5,2,5,80,127,1806874988
51,19,19,Jits_Linear_5,3,5,63,98,1806894624
51,19,19,Jits_Linear_5,0,1,48,47,1807361980
51,19,19,Jits_Linear_5,1,5,63,98,1807384872
51,19,19,Jits_Linear_5,2,5,56,103,1807445488
51,19,19,Jits_Linear_5,3,5,80,127,1807475000
51,19,19,Jits_Linear_5,0,5,63,98,1807924720
51,19,19,Jits_Linear_5,1,5,80,127,1807928084
51,19,19,Jits_Linear_5,2,1,48,41,1807929500
51,19,19,Jits_Linear_5,3,5,56,103,1808014700
51,19,19,Jits_Linear_5,0,5,56,103,1808494900
51,19,19,Jits_Linear_5,1,1,48,46,1808511644
51,19,19,Jits_Linear_5,2,5,63,98,1808524644
51,19,19,Jits_Linear_5,3,5,80,127,1808564584
51,19,19,Jits_Linear_5,0,5,63,98,1809044876
51,19,19,Jits_Linear_5,1,1,48,48,1809067996
51,19,19,Jits_Linear_5,2,5,56,103,1809084884
51,19,19,Jits_Linear_5,3,5,80,127,1809105520
51,19,19,Jits_Linear_5,0,1,48,47,1809585508
51,19,19,Jits_Linear_5,1,5,63,98,1809605012
51,19,19,Jits_Linear_5,2,5,56,103,1809644880
51,19,19,Jits_Linear_5,3,5,80,127,1809655372
51,19,19,Jits_Linear_5,0,5,80,127,1810135648
51,19,19,Jits_Linear_5,1,1,48,46,1810137436
51,19,19,Jits_Linear_5,2,5,63,98,1810205032
51,19,19,Jits_Linear_5,3,5,56,103,1810224592
51,19,19,Jits_Linear_5,0,5,56,103,1810685552
51,19,19,Jits_Linear_5,1,5,80,127,1810704744
51,19,19,Jits_Linear_5,2,1,48,40,1810716404
51,19,19,Jits_Linear_5,3,5,63,98,1810744600
51,19,19,Jits_Linear_5,0,5,63,98,1811254704
51,19,19,Jits_Linear_5,1,1,48,39,1811272496
51,19,19,Jits_Linear_5,2,5,80,127,1811275232
51,19,19,Jits_Linear_5,3,5,56,103,1811315396
51,19,19,Jits_Linear_5,0,1,48,43,1811784776
51,19,19,Jits_Linear_5,1,5,63,98,1811814916
51,19,19,Jits_Linear_5,2,5,56,103,1811835452
51,19,19,Jits_Linear_5,3,5,80,127,1811844528
51,19,19,Jits_Linear_5,0,1,48,40,1812345368
51,19,19,Jits_Linear_5,1,5,80,127,1812374840
51,19,19,Jits_Linear_5,2,5,56,103,1812395448
51,19,19,Jits_Linear_5,3,5,63,98,1812425000
51,19,19,Jits_Linear_5,0,1,48,44,1812904024
51,19,19,Jits_Linear_5,1,5,56,103,1813015016
51,19,19,Jits_Linear_5,2,5,80,127,1813018008
51,19,19,Jits_Linear_5,3,5,63,98,1813035328
51,19,19,Jits_Linear_5,0,1,48,40,1813456540
51,19,19,Jits_Linear_5,1,5,63,98,1813505568
51,19,19,Jits_Linear_5,2,5,56,103,1813534948
51,19,19,Jits_Linear_5,3,5,80,127,1813594648
51,19,19,Jits_Linear_5,0,1,48,53,1814046508
51,19,19,Jits_Linear_5,1,5,63,98,1814154568
51,19,19,Jits_Linear_5,2,5,56,103,1814164984
51,19,19,Jits_Linear_5,3,5,80,127,1814175032
51,19,19,Jits_Linear_5,0,1,48,48,1814663164
51,19,19,Jits_Linear_5,1,5,56,103,1814674876
51,19,19,Jits_Linear_5,2,5,80,127,1814704552
51,19,19,Jits_Linear_5,3,5,63,98,1814714824
51,19,19,Jits_Linear_5,0,1,48,45,1815241756
51,19,19,Jits_Linear_5,1,5,63,98,1815285244
51,19,19,Jits_Linear_5,2,5,56,103,1815295440
51,19,19,Jits_Linear_5,3,5,80,127,1815314780
51,19,19,Jits_Linear_5,0,5,56,103,1815784796
51,19,19,Jits_Linear_5,1,1,48,39,1815822288
51,19,19,Jits_Linear_5,2,5,63,98,1815845252
51,19,19,Jits_Linear_5,3,5,80,127,1815848616
51,19,19,Jits_Linear_5,0,5,80,127,1816385032
51,19,19,Jits_Linear_5,1,1,48,34,1816388676
51,19,19,Jits_Linear_5,2,5,56,103,1816395368
51,19,19,Jits_Linear_5,3,5,63,98,1816464680
51,19,19,Jits_Linear_5,0,1,48,44,1816936992
51,19,19,Jits_Linear_5,1,5,80,127,1816955448
51,19,19,Jits_Linear_5,2,5,56,103,1817024836
51,19,19,Jits_Linear_5,3,5,63,98,1817035268
51,19,19,Jits_Linear_5,0,1,48,41,1817568340
51,19,19,Jits_Linear_5,1,5,63,98,1817574884
51,19,19,Jits_Linear_5,2,5,56,103,1817585232
51,19,19,Jits_Linear_5,3,5,80,127,1817604568
51,19,19,Jits_Linear_5,0,5,80,127,1818105220
51,19,19,Jits_Linear_5,1,1,48,45,1818132452
51,19,19,Jits_Linear_5,2,5,63,98,1818164560
51,19,19,Jits_Linear_5,3,5,56,103,1818204576
51,19,19,Jits_Linear_5,0,5,56,103,1818734996
51,19,19,Jits_Linear_5,1,1,48,39,1818744664
51,19,19,Jits_Linear_5,2,5,63,98,1818746232
51,19,19,Jits_Linear_5,3,5,80,127,1818785272
51,19,19,Jits_Linear_5,0,5,56,103,1819284744
51,19,19,Jits_Linear_5,1,1,48,49,1819311752
51,19,19,Jits_Linear_5,2,5,80,127,1819314416
51,19,19,Jits_Linear_5,3,5,63,98,1819364864
51,19,19,Jits_Linear_5,0,1,48,41,1819884612
51,19,19,Jits_Linear_5,1,5,56,103,1819914600
51,19,19,Jits_Linear_5,2,5,63,98,1819954688
51,19,19,Jits_Linear_5,3,5,80,127,1819957904
51,19,19,Jits_Linear_5,0,1,48,39,1820492384
51,19,19,Jits_Linear_5,1,5,56,103,1820504564
51,19,19,Jits_Linear_5,2,5,63,98,1820514760
51,19,19,Jits_Linear_5,3,5,80,127,1820535296
51,19,19,Jits_Linear_5,0,5,56,103,1821055352
51,19,19,Jits_Linear_5,1,5,80,127,1821058340
51,19,19,Jits_Linear_5,2,1,48,36,1821072316
51,19,19,Jits_Linear_5,3,5,63,98,1821095208
51,19,19,Jits_Linear_5,0,1,48,37,1821637196
51,19,19,Jits_Linear_5,1,5,63,98,1821685128
51,19,19,Jits_Linear_5,2,5,56,103,1821714880
51,19,19,Jits_Linear_5,3,5,80,127,1821735472
51,19,19,Jits_Linear_5,0,5,80,127,1822254428
51,19,19,Jits_Linear_5,1,5,56,103,1822264624
51,19,19,Jits_Linear_5,2,5,63,98,1822274820
51,19,19,Jits_Linear_5,3,1,48,41,1822297120
51,19,19,Jits_Linear_5,0,5,56,103,1822854520
51,19,19,Jits_Linear_5,1,1,48,42,1822878536
51,19,19,Jits_Linear_5,2,5,80,127,1822894380
51,19,19,Jits_Linear_5,3,5,63,98,1822925352
51,19,19,Jits_Linear_5,0,5,63,98,1823465200
51,19,19,Jits_Linear_5,1,1,48,41,1823474500
51,19,19,Jits_Linear_5,2,5,80,127,1823476064
51,19,19,Jits_Linear_5,3,5,56,103,1823485364
51,19,19,Jits_Linear_5,0,5,56,103,1824045500
51,19,19,Jits_Linear_5,1,1,48,43,1824060224
51,19,19,Jits_Linear_5,2,5,63,98,1824115028
51,19,19,Jits_Linear_5,3,5,80,127,1824125224
51,19,19,Jits_Linear_5,0,5,80,127,1824654588
51,19,19,Jits_Linear_5,1,5,56,103,1824665156
51,19,19,Jits_Linear_5,2,1,48,45,1824671116
51,19,19,Jits_Linear_5,3,5,63,98,1824715304
51,19,19,Jits_Linear_5,0,1,48,48,1825239084
51,19,19,Jits_Linear_5,1,5,80,127,1825275228
51,19,19,Jits_Linear_5,2,5,56,103,1825334708
51,19,19,Jits_Linear_5,3,5,63,98,1825365284
51,19,19,Jits_Linear_5,0,5,56,103,1825884460
51,19,19,Jits_Linear_5,1,5,80,127,1825887524
51,19,19,Jits_Linear_5,2,1,48,44,1825907652
51,19,19,Jits_Linear_5,3,5,63,98,1825924320
51,19,19,Jits_Linear_5,0,1,48,40,1826513536
51,19,19,Jits_Linear_5,1,5,56,103,1826524572
51,19,19,Jits_Linear_5,2,5,63,98,1826555372
51,19,19,Jits_Linear_5,3,5,80,127,1826564448
51,19,19,Jits_Linear_5,0,1,48,39,1827128524
51,19,19,Jits_Linear_5,1,5,63,98,1827145260
51,19,19,Jits_Linear_5,2,5,80,127,1827155232
51,19,19,Jits_Linear_5,3,5,56,103,1827164456
51,19,19,Jits_Linear_5,0,5,80,127,1827705268
51,19,19,Jits_Linear_5,1,1,48,27,1827738128
51,19,19,Jits_Linear_5,2,5,56,103,1827755312
51,19,19,Jits_Linear_5,3,5,63,98,1827758380
51,19,19,Jits_Linear_5,0,1,48,45,1828302784
51,19,19,Jits_Linear_5,1,5,56,103,1828354376
51,19,19,Jits_Linear_5,2,5,80,127,1828374912
51,19,19,Jits_Linear_5,3,5,63,98,1828385108
51,19,19,Jits_Linear_5,0,1,48,39,1828927228
51,19,19,Jits_Linear_5,1,5,63,98,1828954456
51,19,19,Jits_Linear_5,2,5,56,103,1828985256
51,19,19,Jits_Linear_5,3,5,80,127,1829004744
51,19,19,Jits_Linear_5,0,1,48,38,1829571956
51,19,19,Jits_Linear_5,1,5,56,103,1829585276
51,19,19,Jits_Linear_5,2,5,80,127,1829594428
51,19,19,Jits_Linear_5,3,5,63,98,1829665304
51,19,19,Jits_Linear_5,0,1,48,40,1830177016
51,19,19,Jits_Linear_5,1,5,63,98,1830194428
51,19,19,Jits_Linear_5,2,5,80,127,1830234444
51,19,19,Jits_Linear_5,3,5,56,103,1830274444
51,19,19,Jits_Linear_5,0,5,56,103,1830834452
51,19,19,Jits_Linear_5,1,5,63,98,1830845020
51,19,19,Jits_Linear_5,2,1,48,38,1830850008
51,19,19,Jits_Linear_5,3,5,80,127,1830865348
51,19,19,Jits_Linear_5,0,1,48,37,1831485188
51,19,19,Jits_Linear_5,1,5,63,98,1831505364
51,19,19,Jits_Linear_5,2,5,80,127,1831524928
51,19,19,Jits_Linear_5,3,5,56,103,1831545164
51,19,19,Jits_Linear_5,0,5,56,103,1832074664
51,19,19,Jits_Linear_5,1,1,48,40,1832108576
51,19,19,Jits_Linear_5,2,5,80,127,1832154332
51,19,19,Jits_Linear_5,3,5,63,98,1832164680
51,19,19,Jits_Linear_5,0,5,80,127,1832745436
51,19,19,Jits_Linear_5,1,5,63,98,1832754440
51,19,19,Jits_Linear_5,2,1,48,37,1832755404
51,19,19,Jits_Linear_5,3,5,56,103,1832785376
51,19,19,Jits_Linear_5,0,5,63,98,1833335196
51,19,19,Jits_Linear_5,1,5,80,127,1833375212
51,19,19,Jits_Linear_5,2,1,48,39,1833410620
51,19,19,Jits_Linear_5,3,5,56,103,1833434424
51,19,19,Jits_Linear_5,0,5,63,98,1833975088
51,19,19,Jits_Linear_5,1,1,48,38,1833997984
51,19,19,Jits_Linear_5,2,5,56,103,1834025436
51,19,19,Jits_Linear_5,3,5,80,127,1834054964
51,19,19,Jits_Linear_5,0,1,48,37,1834616052
51,19,19,Jits_Linear_5,1,5,80,127,1834625368
51,19,19,Jits_Linear_5,2,5,63,98,1834634812
51,19,19,Jits_Linear_5,3,5,56,103,1834705196
51,19,19,Jits_Linear_5,0,1,48,43,1835252184
51,19,19,Jits_Linear_5,1,5,80,127,1835335088
51,19,19,Jits_Linear_5,2,5,56,103,1835345796
51,19,19,Jits_Linear_5,3,5,63,98,1835348704
51,19,19,Jits_Linear_5,0,5,56,103,1835914492
51,19,19,Jits_Linear_5,1,5,80,127,1835935028
51,19,19,Jits_Linear_5,2,5,63,98,1835945296
51,19,19,Jits_Linear_5,3,1,48,36,1835969236
51,19,19,Jits_Linear_5,0,5,63,98,1836564808
51,19,19,Jits_Linear_5,1,1,48,40,1836575348
51,19,19,Jits_Linear_5,2,5,56,103,1836604964
51,19,19,Jits_Linear_5,3,5,80,127,1836625200
51,19,19,Jits_Linear_5,0,1,48,48,1837187704
51,19,19,Jits_Linear_5,1,5,63,98,1837215160
51,19,19,Jits_Linear_5,2,5,56,103,1837274528
51,19,19,Jits_Linear_5,3,5,80,127,1837277448
51,19,19,Jits_Linear_5,0,5,56,103,1837825380
51,19,19,Jits_Linear_5,1,1,48,43,1837827972
51,19,19,Jits_Linear_5,2,5,80,127,1837845084
51,19,19,Jits_Linear_5,3,5,63,98,1837884876
51,19,19,Jits_Linear_5,0,1,48,30,1838479604
51,19,19,Jits_Linear_5,1,5,56,103,1838505336
51,19,19,Jits_Linear_5,2,5,63,98,1838524972
51,19,19,Jits_Linear_5,3,5,80,127,1838534972
51,19,19,Jits_Linear_5,0,1,48,41,1839072452
51,19,19,Jits_Linear_5,1,5,80,127,1839124772
51,19,19,Jits_Linear_5,2,5,56,103,1839154672
51,19,19,Jits_Linear_5,3,5,63,98,1839194448
51,19,19,Jits_Linear_5,0,1,48,41,1839754572
51,19,19,Jits_Linear_5,1,5,80,127,1839785312
51,19,19,Jits_Linear_5,2,5,56,103,1839805024
51,19,19,Jits_Linear_5,3,5,63,98,1839865200
51,19,19,Jits_Linear_5,0,1,48,36,1840445212
51,19,19,Jits_Linear_5,1,5,56,103,1840446480
51,19,19,Jits_Linear_5,2,5,80,127,1840465220
51,19,19,Jits_Linear_5,3,5,63,98,1840524712
51,19,19,Jits_Linear_5,0,5,80,127,1841084780
51,19,19,Jits_Linear_5,1,1,48,38,1841089544
51,19,19,Jits_Linear_5,2,5,56,103,1841094992
51,19,19,Jits_Linear_5,3,5,63,98,1841134932
51,19,19,Jits_Linear_5,0,1,48,39,1841722464
51,19,19,Jits_Linear_5,1,5,63,98,1841745276
51,19,19,Jits_Linear_5,2,5,56,103,1841785216
51,19,19,Jits_Linear_5,3,5,80,127,1841788132
51,19,19,Jits_Linear_5,0,1,48,42,1842364272
51,19,19,Jits_Linear_5,1,5,63,98,1842425312
51,19,19,Jits_Linear_5,2,5,80,127,1842465088
51,19,19,Jits_Linear_5,3,5,56,103,1842494912
51,19,19,Jits_Linear_5,0,1,48,36,1843061688
51,19,19,Jits_Linear_5,1,5,56,103,1843074616
51,19,19,Jits_Linear_5,2,5,63,98,1843084812
51,19,19,Jits_Linear_5,3,5,80,127,1843115388
51,19,19,Jits_Linear_5,0,1,48,43,1843718152
51,19,19,Jits_Linear_5,1,5,80,127,1843734960
51,19,19,Jits_Linear_5,2,5,63,98,1843804720
51,19,19,Jits_Linear_5,3,5,56,103,1843814684
51,19,19,Jits_Linear_5,0,5,63,98,1844404728
51,19,19,Jits_Linear_5,1,1,48,40,1844432360
51,19,19,Jits_Linear_5,2,5,56,103,1844475180
51,19,19,Jits_Linear_5,3,5,80,127,1844484700
51,19,19,Jits_Linear_5,0,5,63,98,1845075260
51,19,19,Jits_Linear_5,1,5,56,103,1845094748
51,19,19,Jits_Linear_5,2,1,48,38,1845117792
51,19,19,Jits_Linear_5,3,5,80,127,1845134680
51,19,19,Jits_Linear_5,0,1,48,37,1845729040
51,19,19,Jits_Linear_5,1,5,56,103,1845755224
51,19,19,Jits_Linear_5,2,5,63,98,1845764596
51,19,19,Jits_Linear_5,3,5,80,127,1845845348
51,19,19,Jits_Linear_5,0,1,48,35,1846405096
51,19,19,Jits_Linear_5,1,5,63,98,1846414792
51,19,19,Jits_Linear_5,2,5,56,103,1846445736
51,19,19,Jits_Linear_5,3,5,80,127,1846485328
51,19,19,Jits_Linear_5,0,5,56,103,1847085772
51,19,19,Jits_Linear_5,1,1,48,35,1847093476
51,19,19,Jits_Linear_5,2,5,63,98,1847125336
51,19,19,Jits_Linear_5,3,5,80,127,1847165272
51,19,19,Jits_Linear_5,0,1,48,37,1847747044
51,19,19,Jits_Linear_5,1,5,80,127,1847765600
51,19,19,Jits_Linear_5,2,5,56,103,1847845236
51,19,19,Jits_Linear_5,3,5,63,98,1847854388
51,19,19,Jits_Linear_5,0,1,48,35,1848469644
51,19,19,Jits_Linear_5,1,5,56,103,1848485332
51,19,19,Jits_Linear_5,2,5,63,98,1848488176
51,19,19,Jits_Linear_5,3,5,80,127,1848494632
51,19,19,Jits_Linear_5,0,1,48,39,1849113652
51,19,19,Jits_Linear_5,1,5,56,103,1849184848
51,19,19,Jits_Linear_5,2,5,63,98,1849206120
51,19,19,Jits_Linear_5,3,5,80,127,1849215640
51,19,19,Jits_Linear_5,0,5,63,98,1849824596
51,19,19,Jits_Linear_5,1,5,80,127,1849834868
51,19,19,Jits_Linear_5,2,1,48,37,1849839032
51,19,19,Jits_Linear_5,3,5,56,103,1849855468
51,19,19,Jits_Linear_5,0,1,48,40,1850508620
51,19,19,Jits_Linear_5,1,5,63,98,1850514720
51,19,19,Jits_Linear_5,2,5,56,103,1850594540
51,19,19,Jits_Linear_5,3,5,80,127,1850597536
51,19,19,Jits_Linear_5,0,5,63,98,1851204960
51,19,19,Jits_Linear_5,1,1,48,33,1851220288
51,19,19,Jits_Linear_5,2,5,56,103,1851224516
51,19,19,Jits_Linear_5,3,5,80,127,1851255016
51,19,19,Jits_Linear_5,0,1,48,37,1851884000
51,19,19,Jits_Linear_5,1,5,56,103,1851895112
51,19,19,Jits_Linear_5,2,5,63,98,1851914600
51,19,19,Jits_Linear_5,3,5,80,127,1851924796
51,19,19,Jits_Linear_5,0,1,48,38,1852544984
51,19,19,Jits_Linear_5,1,5,56,103,1852614940
51,19,19,Jits_Linear_5,2,5,63,98,1852644676
51,19,19,Jits_Linear_5,3,5,80,127,1852648036
51,19,19,Jits_Linear_5,0,1,48,38,1853250040
51,19,19,Jits_Linear_5,1,5,56,103,1853255016
51,19,19,Jits_Linear_5,2,5,63,98,1853295108
51,19,19,Jits_Linear_5,3,5,80,127,1853355484
51,19,19,Jits_Linear_5,0,5,56,103,1853964592
51,19,19,Jits_Linear_5,1,1,48,39,1853972496
51,19,19,Jits_Linear_5,2,5,63,98,1853975080
51,19,19,Jits_Linear_5,3,5,80,127,1854035544
51,19,19,Jits_Linear_5,0,5,56,103,1854665028
51,19,19,Jits_Linear_5,1,1,48,23,1854680652
51,19,19,Jits_Linear_5,2,5,80,127,1854684660
51,19,19,Jits_Linear_5,3,5,63,98,1854715532
51,19,19,Jits_Linear_5,0,5,80,127,1855364548
51,19,19,Jits_Linear_5,1,5,56,103,1855374596
51,19,19,Jits_Linear_5,2,5,63,98,1855395428
51,19,19,Jits_Linear_5,3,1,48,34,1855406864
51,19,19,Jits_Linear_5,0,5,63,98,1856054644
51,19,19,Jits_Linear_5,1,1,48,45,1856068028
51,19,19,Jits_Linear_5,2,5,80,127,1856134588
51,19,19,Jits_Linear_5,3,5,56,103,1856144708
51,19,19,Jits_Linear_5,0,1,48,46,1856795720
51,19,19,Jits_Linear_5,1,5,80,127,1856814624
51,19,19,Jits_Linear_5,2,5,56,103,1856834780
51,19,19,Jits_Linear_5,3,5,63,98,1856838000
51,19,19,Jits_Linear_5,0,1,48,39,1857478752
51,19,19,Jits_Linear_5,1,5,63,98,1857495336
51,19,19,Jits_Linear_5,2,5,80,127,1857498628
51,19,19,Jits_Linear_5,3,5,56,103,1857554904
51,19,19,Jits_Linear_5,0,5,56,103,1858184428
51,19,19,Jits_Linear_5,1,5,80,127,1858194920
51,19,19,Jits_Linear_5,2,1,48,40,1858197744
51,19,19,Jits_Linear_5,3,5,63,98,1858234856
51,19,19,Jits_Linear_5,0,5,56,103,1858874672
51,19,19,Jits_Linear_5,1,1,48,33,1858878912
51,19,19,Jits_Linear_5,2,5,63,98,1858935136
51,19,19,Jits_Linear_5,3,5,80,127,1858945332
51,19,19,Jits_Linear_5,0,5,63,98,1859594520
51,19,19,Jits_Linear_5,1,1,48,33,1859615472
51,19,19,Jits_Linear_5,2,5,80,127,1859634676
51,19,19,Jits_Linear_5,3,5,56,103,1859674616
51,19,19,Jits_Linear_5,0,5,56,103,1860305356
51,19,19,Jits_Linear_5,1,1,48,32,1860311244
51,19,19,Jits_Linear_5,2,5,63,98,1860385072
51,19,19,Jits_Linear_5,3,5,80,127,1860388288
51,19,19,Jits_Linear_5,0,1,48,31,1861048588
51,19,19,Jits_Linear_5,1,5,80,127,1861075388
51,19,19,Jits_Linear_5,2,5,56,103,1861105140
51,19,19,Jits_Linear_5,3,5,63,98,1861108280
51,19,19,Jits_Linear_5,0,5,56,103,1861755412
51,19,19,Jits_Linear_5,1,5,80,127,1861774604
51,19,19,Jits_Linear_5,2,1,48,35,1861795556
51,19,19,Jits_Linear_5,3,5,63,98,1861814612
51,19,19,Jits_Linear_5,0,1,48,45,1862449596
51,19,19,Jits_Linear_5,1,5,80,127,1862454500
51,19,19,Jits_Linear_5,2,5,63,98,1862475408
51,19,19,Jits_Linear_5,3,5,56,103,1862534452
51,19,19,Jits_Linear_5,0,1,48,35,1863160132
51,19,19,Jits_Linear_5,1,5,63,98,1863184740
51,19,19,Jits_Linear_5,2,5,56,103,1863194940
51,19,19,Jits_Linear_5,3,5,80,127,1863245216
51,19,19,Jits_Linear_5,0,1,48,32,1863883496
51,19,19,Jits_Linear_5,1,5,56,103,1863895356
51,19,19,Jits_Linear_5,2,5,63,98,1863914920
51,19,19,Jits_Linear_5,3,5,80,127,1863925336
51,19,19,Jits_Linear_5,0,1,48,35,1864549040
51,19,19,Jits_Linear_5,1,5,56,103,1864615380
51,19,19,Jits_Linear_5,2,5,63,98,1864618296
51,19,19,Jits_Linear_5,3,5,80,127,1864634792
51,19,19,Jits_Linear_5,0,1,48,35,1865280692
51,19,19,Jits_Linear_5,1,5,63,98,1865385308
51,19,19,Jits_Linear_5,2,5,56,103,1865415456
51,19,19,Jits_Linear_5,3,5,80,127,1865444836
51,19,19,Jits_Linear_5,0,5,80,127,1866074444
51,19,19,Jits_Linear_5,1,5,56,103,1866164652
51,19,19,Jits_Linear_5,2,5,63,98,1866167644
51,19,19,Jits_Linear_5,3,1,48,32,1866224140
51,19,19,Jits_Linear_5,0,5,56,103,1866804540
51,19,19,Jits_Linear_5,1,5,80,127,1866807532
51,19,19,Jits_Linear_5,2,1,48,32,1866857032
51,19,19,Jits_Linear_5,3,5,63,98,1866884332
51,19,19,Jits_Linear_5,0,5,80,127,1867534564
51,19,19,Jits_Linear_5,1,1,48,35,1867553568
51,19,19,Jits_Linear_5,2,5,63,98,1867595324
51,19,19,Jits_Linear_5,3,5,56,103,1867624924
51,19,19,Jits_Linear_5,0,5,63,98,1868264748
51,19,19,Jits_Linear_5,1,5,80,127,1868275168
51,19,19,Jits_Linear_5,2,1,48,35,1868292756
51,19,19,Jits_Linear_5,3,5,56,103,1868344620
51,19,19,Jits_Linear_5,0,1,48,35,1868994936
51,19,19,Jits_Linear_5,1,5,56,103,1869015360
51,19,19,Jits_Linear_5,2,5,80,127,1869045336
51,19,19,Jits_Linear_5,3,5,63,98,1869095376
51,19,19,Jits_Linear_5,0,1,48,30,1869746076
51,19,19,Jits_Linear_5,1,5,63,98,1869794680
51,19,19,Jits_Linear_5,2,5,56,103,1869825476
51,19,19,Jits_Linear_5,3,5,80,127,1869828392
51,19,19,Jits_Linear_5,0,1,48,31,1870514000
51,19,19,Jits_Linear_5,1,5,63,98,1870535104
51,19,19,Jits_Linear_5,2,5,80,127,1870554444
51,19,19,Jits_Linear_5,3,5,56,103,1870564712
51,19,19,Jits_Linear_5,0,1,48,34,1871243276
51,19,19,Jits_Linear_5,1,5,56,103,1871284580
51,19,19,Jits_Linear_5,2,5,63,98,1871287568
51,19,19,Jits_Linear_5,3,5,80,127,1871305360
51,19,19,Jits_Linear_5,0,5,56,103,1871985300
51,19,19,Jits_Linear_5,1,1,48,33,1871992528
51,19,19,Jits_Linear_5,2,5,63,98,1871995416
51,19,19,Jits_Linear_5,3,5,80,127,1872025168
51,19,19,Jits_Linear_5,0,1,48,30,1872713580
51,19,19,Jits_Linear_5,1,5,63,98,1872755332
51,19,19,Jits_Linear_5,2,5,80,127,1872774528
51,19,19,Jits_Linear_5,3,5,56,103,1872814452
51,19,19,Jits_Linear_5,0,1,48,26,1873478956
51,19,19,Jits_Linear_5,1,5,56,103,1873535404
51,19,19,Jits_Linear_5,2,5,63,98,1873575188
51,19,19,Jits_Linear_5,3,5,80,127,1873579812
51,19,19,Jits_Linear_5,0,5,80,127,1874224596
51,19,19,Jits_Linear_5,1,1,48,38,1874263332
51,19,19,Jits_Linear_5,2,5,56,103,1874264680
51,19,19,Jits_Linear_5,3,5,63,98,1874314584
51,19,19,Jits_Linear_5,0,1,48,35,1874993192
51,19,19,Jits_Linear_5,1,5,56,103,1875034348
51,19,19,Jits_Linear_5,2,5,80,127,1875044988
51,19,19,Jits_Linear_5,3,5,63,98,1875074368
51,19,19,Jits_Linear_5,0,5,56,103,1875735072
51,19,19,Jits_Linear_5,1,1,48,38,1875748752
51,19,19,Jits_Linear_5,2,5,80,127,1875774932
51,19,19,Jits_Linear_5,3,5,63,98,1875824984
51,19,19,Jits_Linear_5,0,5,56,103,1876494696
51,19,19,Jits_Linear_5,1,1,48,27,1876529428
51,19,19,Jits_Linear_5,2,5,80,127,1876534776
51,19,19,Jits_Linear_5,3,5,63,98,1876584756
51,19,19,Jits_Linear_5,0,1,48,40,1877211044
51,19,19,Jits_Linear_5,1,5,80,127,1877245248
51,19,19,Jits_Linear_5,2,5,63,98,1877325104
51,19,19,Jits_Linear_5,3,5,56,103,1877335376
51,19,19,Jits_Linear_5,0,1,48,39,1877971776
51,19,19,Jits_Linear_5,1,5,80,127,1878055208
51,19,19,Jits_Linear_5,2,5,56,103,1878064508
51,19,19,Jits_Linear_5,3,5,63,98,1878084952
51,19,19,Jits_Linear_5,0,1,48,35,1878771404
51,19,19,Jits_Linear_5,1,5,63,98,1878785376
51,19,19,Jits_Linear_5,2,5,56,103,1878854908
51,19,19,Jits_Linear_5,3,5,80,127,1878858052
51,19,19,Jits_Linear_5,0,5,80,127,1879545140
51,19,19,Jits_Linear_5,1,5,63,98,1879595272
51,19,19,Jits_Linear_5,2,1,48,33,1879614656
51,19,19,Jits_Linear_5,3,5,56,103,1879635204
51,19,19,Jits_Linear_5,0,1,48,32,1880303320
51,19,19,Jits_Linear_5,1,5,63,98,1880355116
51,19,19,Jits_Linear_5,2,5,56,103,1880394968
51,19,19,Jits_Linear_5,3,5,80,127,1880405240
51,19,19,Jits_Linear_5,0,1,48,27,1881065108
51,19,19,Jits_Linear_5,1,5,63,98,1881114884
51,19,19,Jits_Linear_5,2,5,56,103,1881134820
51,19,19,Jits_Linear_5,3,5,80,127,1881154904
51,19,19,Jits_Linear_5,0,1,48,27,1881775624
51,19,19,Jits_Linear_5,1,5,80,127,1881844980
51,19,19,Jits_Linear_5,2,5,56,103,1881855324
51,19,19,Jits_Linear_5,3,5,63,98,1881875092
51,19,19,Jits_Linear_5,0,1,48,34,1882581768
51,19,19,Jits_Linear_5,1,5,63,98,1882645044
51,19,19,Jits_Linear_5,2,5,56,103,1882685044
51,19,19,Jits_Linear_5,3,5,80,127,1882714572
51,19,19,Jits_Linear_5,0,1,48,41,1883393404
51,19,19,Jits_Linear_5,1,5,56,103,1883425116
51,19,19,Jits_Linear_5,2,5,63,98,1883455016
51,19,19,Jits_Linear_5,3,5,80,127,1883484468
51,19,19,Jits_Linear_5,0,5,80,127,1884174696
51,19,19,Jits_Linear_5,1,1,48,43,1884181556
51,19,19,Jits_Linear_5,2,5,56,103,1884245348
51,19,19,Jits_Linear_5,3,5,63,98,1884248336
51,19,19,Jits_Linear_5,0,5,56,103,1884965176
51,19,19,Jits_Linear_5,1,1,48,42,1884988972
51,19,19,Jits_Linear_5,2,5,63,98,1885015300
51,19,19,Jits_Linear_5,3,5,80,127,1885044976
51,19,19,Jits_Linear_5,0,5,63,98,1885725028
51,19,19,Jits_Linear_5,1,5,80,127,1885728464
51,19,19,Jits_Linear_5,2,1,48,44,1885767256
51,19,19,Jits_Linear_5,3,5,56,103,1885784368
51,19,19,Jits_Linear_5,0,1,48,42,1886448776
51,19,19,Jits_Linear_5,1,5,56,103,1886534968
51,19,19,Jits_Linear_5,2,5,80,127,1886545240
51,19,19,Jits_Linear_5,3,5,63,98,1886594456
51,19,19,Jits_Linear_5,0,5,63,98,1887294740
51,19,19,Jits_Linear_5,1,5,56,103,1887304936
51,19,19,Jits_Linear_5,2,1,48,37,1887315476
51,19,19,Jits_Linear_5,3,5,80,127,1887334904
51,19,19,Jits_Linear_5,0,1,48,40,1888094776
51,19,19,Jits_Linear_5,1,5,63,98,1888114948
51,19,19,Jits_Linear_5,2,5,80,127,1888118244
51,19,19,Jits_Linear_5,3,5,56,103,1888144852
51,19,19,Jits_Linear_5,0,1,48,35,1888877148
51,19,19,Jits_Linear_5,1,5,63,98,1888924980
51,19,19,Jits_Linear_5,2,5,56,103,1888944760
51,19,19,Jits_Linear_5,3,5,80,127,1888947680
51,19,19,Jits_Linear_5,0,1,48,38,1889648508
51,19,19,Jits_Linear_5,1,5,63,98,1889674616
51,19,19,Jits_Linear_5,2,5,56,103,1889745360
51,19,19,Jits_Linear_5,3,5,80,127,1889764772
51,19,19,Jits_Linear_5,0,5,56,103,1890454840
51,19,19,Jits_Linear_5,1,1,48,33,1890458780
51,19,19,Jits_Linear_5,2,5,63,98,1890465180
51,19,19,Jits_Linear_5,3,5,80,127,1890555340
51,19,19,Jits_Linear_5,0,5,56,103,1891264816
51,19,19,Jits_Linear_5,1,1,48,36,1891267660
51,19,19,Jits_Linear_5,2,5,80,127,1891304924
51,19,19,Jits_Linear_5,3,5,63,98,1891315044
51,19,19,Jits_Linear_5,0,5,56,103,1892085000
51,19,19,Jits_Linear_5,1,1,48,35,1892088640
51,19,19,Jits_Linear_5,2,5,63,98,1892114820
51,19,19,Jits_Linear_5,3,5,80,127,1892144720
51,19,19,Jits_Linear_5,0,5,80,127,1892844780
51,19,19,Jits_Linear_5,1,5,63,98,1892884868
51,19,19,Jits_Linear_5,2,5,56,103,1892905476
51,19,19,Jits_Linear_5,3,1,48,25,1892922220
51,19,19,Jits_Linear_5,0,1,48,35,1893670144
51,19,19,Jits_Linear_5,1,5,56,103,1893684712
51,19,19,Jits_Linear_5,2,5,80,127,1893705024
51,19,19,Jits_Linear_5,3,5,63,98,1893724808
51,19,19,Jits_Linear_5,0,1,48,41,1894441664
51,19,19,Jits_Linear_5,1,5,63,98,1894454812
51,19,19,Jits_Linear_5,2,5,56,103,1894464860
51,19,19,Jits_Linear_5,3,5,80,127,1894525400
51,19,19,Jits_Linear_5,0,5,56,103,1895264476
51,19,19,Jits_Linear_5,1,1,48,38,1895280776
51,19,19,Jits_Linear_5,2,5,63,98,1895335424
51,19,19,Jits_Linear_5,3,5,80,127,1895354616
51,19,19,Jits_Linear_5,0,5,56,103,1896074748
51,19,19,Jits_Linear_5,1,5,63,98,1896105548
51,19,19,Jits_Linear_5,2,1,48,38,1896119308
51,19,19,Jits_Linear_5,3,5,80,127,1896145132
51,19,19,Jits_Linear_5,0,1,48,27,1896863040
51,19,19,Jits_Linear_5,1,5,63,98,1896875644
51,19,19,Jits_Linear_5,2,5,56,103,1896924456
51,19,19,Jits_Linear_5,3,5,80,127,1896934876
51,19,19,Jits_Linear_5,0,1,48,30,1897673468
51,19,19,Jits_Linear_5,1,5,56,103,1897725264
51,19,19,Jits_Linear_5,2,5,63,98,1897774632
51,19,19,Jits_Linear_5,3,5,80,127,1897784680
51,19,19,Jits_Linear_5,0,5,56,103,1898504592
51,19,19,Jits_Linear_5,1,5,63,98,1898514864
51,19,19,Jits_Linear_5,2,1,48,32,1898534692
51,19,19,Jits_Linear_5,3,5,80,127,1898594652
51,19,19,Jits_Linear_5,0,9999,9999,9999,1789772880
51,19,19,Jits_Linear_5,1,9999,9999,9999,1790252144
51,19,19,Jits_Linear_5,2,9999,9999,9999,1790732384
51,19,19,Jits_Linear_5,3,9999,9999,9999,1791212604
51,19,19,Jits_Linear_5,4,9999,9999,9999,1791692892
51,19,19,Jits_Linear_5,5,9999,9999,9999,1792182372
51,19,19,Jits_Linear_5,6,9999,9999,9999,1792672848
51,19,19,Jits_Linear_5,7,9999,9999,9999,1793162360
51,19,19,Jits_Linear_5,8,9999,9999,9999,1793652848
51,19,19,Jits_Linear_5,9,9999,9999,9999,1794142288
51,19,19,Jits_Linear_5,10,9999,9999,9999,1794643036
51,19,19,Jits_Linear_5,11,9999,9999,9999,1795142740
51,19,19,Jits_Linear_5,12,9999,9999,9999,1795642424
51,19,19,Jits_Linear_5,13,9999,9999,9999,1796142184
51,19,19,Jits_Linear_5,14,9999,9999,9999,1796642916
51,19,19,Jits_Linear_5,15,9999,9999,9999,1797152884
51,19,19,Jits_Linear_5,16,9999,9999,9999,1797662832
51,19,19,Jits_Linear_5,17,9999,9999,9999,1798172784
51,19,19,Jits_Linear_5,18,9999,9999,9999,1798682736
51,19,19,Jits_Linear_5,19,9999,9999,9999,1799192688
51,19,19,Jits_Linear_5,20,9999,9999,9999,1799712832
51,19,19,Jits_Linear_5,21,9999,9999,9999,1800233048
51,19,19,Jits_Linear_5,22,9999,9999,9999,1800752232
51,19,19,Jits_Linear_5,23,9999,9999,9999,1801272388
51,19,19,Jits_Linear_5,24,9999,9999,9999,1801792620
51,19,19,Jits_Linear_5,25,9999,9999,9999,1802323032
51,19,19,Jits_Linear_5,26,9999,9999,9999,1802852468
51,19,19,Jits_Linear_5,27,9999,9999,9999,1803382860
51,19,19,Jits_Linear_5,28,9999,9999,9999,1803912308
51,19,19,Jits_Linear_5,29,9999,9999,9999,1804442708
51,19,19,Jits_Linear_5,30,9999,9999,9999,1804982344
51,19,19,Jits_Linear_5,31,9999,9999,9999,1805523052
51,19,19,Jits_Linear_5,32,9999,9999,9999,1806062716
51,19,19,Jits_Linear_5,33,9999,9999,9999,1806602336
51,19,19,Jits_Linear_5,34,9999,9999,9999,1807143016
51,19,19,Jits_Linear_5,35,9999,9999,9999,1807692920
51,19,19,Jits_Linear_5,36,9999,9999,9999,1808242792
51,19,19,Jits_Linear_5,37,9999,9999,9999,1808792676
51,19,19,Jits_Linear_5,38,9999,9999,9999,1809342580
51,19,19,Jits_Linear_5,39,9999,9999,9999,1809892456
51,19,19,Jits_Linear_5,40,9999,9999,9999,1810452536
51,19,19,Jits_Linear_5,41,9999,9999,9999,1811012696
51,19,19,Jits_Linear_5,42,9999,9999,9999,1811572856
51,19,19,Jits_Linear_5,43,9999,9999,9999,1812132924
51,19,19,Jits_Linear_5,44,9999,9999,9999,1812693096
51,19,19,Jits_Linear_5,45,9999,9999,9999,1813262460
51,19,19,Jits_Linear_5,46,9999,9999,9999,1813832796
51,19,19,Jits_Linear_5,47,9999,9999,9999,1814402168
51,19,19,Jits_Linear_5,48,9999,9999,9999,1814972508
51,19,19,Jits_Linear_5,49,9999,9999,9999,1815542872
51,19,19,Jits_Linear_5,50,9999,9999,9999,1816122492
51,19,19,Jits_Linear_5,51,9999,9999,9999,1816703032
51,19,19,Jits_Linear_5,52,9999,9999,9999,1817282680
51,19,19,Jits_Linear_5,53,9999,9999,9999,1817862252
51,19,19,Jits_Linear_5,54,9999,9999,9999,1818442856
51,19,19,Jits_Linear_5,55,9999,9999,9999,1819032692
51,19,19,Jits_Linear_5,56,9999,9999,9999,1819622472
51,19,19,Jits_Linear_5,57,9999,9999,9999,1820212300
51,19,19,Jits_Linear_5,58,9999,9999,9999,1820802120
51,19,19,Jits_Linear_5,59,9999,9999,9999,1821392996
51,19,19,Jits_Linear_5,60,9999,9999,9999,1821993024
51,19,19,Jits_Linear_5,61,9999,9999,9999,1822592056
51,19,19,Jits_Linear_5,62,9999,9999,9999,1823192176
51,19,19,Jits_Linear_5,63,9999,9999,9999,1823792192
51,19,19,Jits_Linear_5,64,9999,9999,9999,1824392272
51,19,19,Jits_Linear_5,65,9999,9999,9999,1825002580
51,19,19,Jits_Linear_5,66,9999,9999,9999,1825612868
51,19,19,Jits_Linear_5,67,9999,9999,9999,1826222156
51,19,19,Jits_Linear_5,68,9999,9999,9999,1826832468
51,19,19,Jits_Linear_5,69,9999,9999,9999,1827442816
51,19,19,Jits_Linear_5,70,9999,9999,9999,1828062320
51,19,19,Jits_Linear_5,71,9999,9999,9999,1828682868
51,19,19,Jits_Linear_5,72,9999,9999,9999,1829302356
51,19,19,Jits_Linear_5,73,9999,9999,9999,1829922916
51,19,19,Jits_Linear_5,74,9999,9999,9999,1830542404
51,19,19,Jits_Linear_5,75,9999,9999,9999,1831172176
51,19,19,Jits_Linear_5,76,9999,9999,9999,1831802996
51,19,19,Jits_Linear_5,77,9999,9999,9999,1832432700
51,19,19,Jits_Linear_5,78,9999,9999,9999,1833062468
51,19,19,Jits_Linear_5,79,9999,9999,9999,1833692256
51,19,19,Jits_Linear_5,80,9999,9999,9999,1834332276
51,19,19,Jits_Linear_5,81,9999,9999,9999,1834972244
51,19,19,Jits_Linear_5,82,9999,9999,9999,1835612256
51,19,19,Jits_Linear_5,83,9999,9999,9999,1836252220
51,19,19,Jits_Linear_5,84,9999,9999,9999,1836892252
51,19,19,Jits_Linear_5,85,9999,9999,9999,1837542476
51,19,19,Jits_Linear_5,86,9999,9999,9999,1838192752
51,19,19,Jits_Linear_5,87,9999,9999,9999,1838842996
51,19,19,Jits_Linear_5,88,9999,9999,9999,1839492152
51,19,19,Jits_Linear_5,89,9999,9999,9999,1840142452
51,19,19,Jits_Linear_5,90,9999,9999,9999,1840802924
51,19,19,Jits_Linear_5,91,9999,9999,9999,1841462364
51,19,19,Jits_Linear_5,92,9999,9999,9999,1842122856
51,19,19,Jits_Linear_5,93,9999,9999,9999,1842782280
51,19,19,Jits_Linear_5,94,9999,9999,9999,1843442772
51,19,19,Jits_Linear_5,95,9999,9999,9999,1844112460
51,19,19,Jits_Linear_5,96,9999,9999,9999,1844782168
51,19,19,Jits_Linear_5,97,9999,9999,9999,1845452920
51,19,19,Jits_Linear_5,98,9999,9999,9999,1846122600
51,19,19,Jits_Linear_5,99,9999,9999,9999,1846792308
51,19,19,Jits_Linear_5,100,9999,9999,9999,1847472252
51,19,19,Jits_Linear_5,101,9999,9999,9999,1848152164
51,19,19,Jits_Linear_5,102,9999,9999,9999,1848832124
51,19,19,Jits_Linear_5,103,9999,9999,9999,1849513044
51,19,19,Jits_Linear_5,104,9999,9999,9999,1850193012
51,19,19,Jits_Linear_5,105,9999,9999,9999,1850882120
51,19,19,Jits_Linear_5,106,9999,9999,9999,1851572328
51,19,19,Jits_Linear_5,107,9999,9999,9999,1852262488
51,19,19,Jits_Linear_5,108,9999,9999,9999,1852952640
51,19,19,Jits_Linear_5,109,9999,9999,9999,1853642872
51,19,19,Jits_Linear_5,110,9999,9999,9999,1854342224
51,19,19,Jits_Linear_5,111,9999,9999,9999,1855042664
51,19,19,Jits_Linear_5,112,9999,9999,9999,1855743104
51,19,19,Jits_Linear_5,113,9999,9999,9999,1856442472
51,19,19,Jits_Linear_5,114,9999,9999,9999,1857142884
51,19,19,Jits_Linear_5,115,9999,9999,9999,1857852520
51,19,19,Jits_Linear_5,116,9999,9999,9999,1858562160
51,19,19,Jits_Linear_5,117,9999,9999,9999,1859272788
51,19,19,Jits_Linear_5,118,9999,9999,9999,1859982420
51,19,19,Jits_Linear_5,119,9999,9999,9999,1860693100
51,19,19,Jits_Linear_5,120,9999,9999,9999,1861412940
51,19,19,Jits_Linear_5,121,9999,9999,9999,1862132848
51,19,19,Jits_Linear_5,122,9999,9999,9999,1862852692
51,19,19,Jits_Linear_5,123,9999,9999,9999,1863572572
51,19,19,Jits_Linear_5,124,9999,9999,9999,1864292476
51,19,19,Jits_Linear_5,125,9999,9999,9999,1865022552
51,19,19,Jits_Linear_5,126,9999,9999,9999,1865752652
51,19,19,Jits_Linear_5,127,9999,9999,9999,1866482812
51,19,19,Jits_Linear_5,128,9999,9999,9999,1867212908
51,19,19,Jits_Linear_5,129,9999,9999,9999,1867942988
51,19,19,Jits_Linear_5,130,9999,9999,9999,1868682312
51,19,19,Jits_Linear_5,131,9999,9999,9999,1869422672
51,19,19,Jits_Linear_5,132,9999,9999,9999,1870163020
51,19,19,Jits_Linear_5,133,9999,9999,9999,1870902332
51,19,19,Jits_Linear_5,134,9999,9999,9999,1871642680
51,19,19,Jits_Linear_5,135,9999,9999,9999,1872392256
51,19,19,Jits_Linear_5,136,9999,9999,9999,1873142892
51,19,19,Jits_Linear_5,137,9999,9999,9999,1873892464
51,19,19,Jits_Linear_5,138,9999,9999,9999,1874643012
51,19,19,Jits_Linear_5,139,9999,9999,9999,1875392584
51,19,19,Jits_Linear_5,140,9999,9999,9999,1876152416
51,19,19,Jits_Linear_5,141,9999,9999,9999,1876912188
51,19,19,Jits_Linear_5,142,9999,9999,9999,1877673084
51,19,19,Jits_Linear_5,143,9999,9999,9999,1878432848
51,19,19,Jits_Linear_5,144,9999,9999,9999,1879192676
51,19,19,Jits_Linear_5,145,9999,9999,9999,1879962708
51,19,19,Jits_Linear_5,146,9999,9999,9999,1880732756
51,19,19,Jits_Linear_5,147,9999,9999,9999,1881502788
51,19,19,Jits_Linear_5,148,9999,9999,9999,1882272884
51,19,19,Jits_Linear_5,149,9999,9999,9999,1883042912
51,19,19,Jits_Linear_5,150,9999,9999,9999,1883822160
51,19,19,Jits_Linear_5,151,9999,9999,9999,1884602440
51,19,19,Jits_Linear_5,152,9999,9999,9999,1885382768
51,19,19,Jits_Linear_5,153,9999,9999,9999,1886163056
51,19,19,Jits_Linear_5,154,9999,9999,9999,1886942304
51,19,19,Jits_Linear_5,155,9999,9999,9999,1887732852
51,19,19,Jits_Linear_5,156,9999,9999,9999,1888522352
51,19,19,Jits_Linear_5,157,9999,9999,9999,1889312896
51,19,19,Jits_Linear_5,158,9999,9999,9999,1890102328
51,19,19,Jits_Linear_5,159,9999,9999,9999,1890892884
51,19,19,Jits_Linear_5,160,9999,9999,9999,1891692664
51,19,19,Jits_Linear_5,161,9999,9999,9999,1892492376
51,19,19,Jits_Linear_5,162,9999,9999,9999,1893292160
51,19,19,Jits_Linear_5,163,9999,9999,9999,1894092868
51,19,19,Jits_Linear_5,164,9999,9999,9999,1894892636
51,19,19,Jits_Linear_5,165,9999,9999,9999,1895702596
51,19,19,Jits_Linear_5,166,9999,9999,9999,1896512640
51,19,19,Jits_Linear_5,167,9999,9999,9999,1897322612
51,19,19,Jits_Linear_5,168,9999,9999,9999,1898132572
51,19,19,Jits_Linear_5,169,9999,9999,9999,1898942532
51,20,3,ISIP_8,0,5,42,127,1968856848
51,20,3,ISIP_8,1,5,42,127,1969657276
51,20,3,ISIP_8,2,5,42,127,1970456960
51,20,3,ISIP_8,3,1,48,31,1970519320
51,20,3,ISIP_8,4,1,48,36,1971253208
51,20,3,ISIP_8,5,5,42,127,1971256612
51,20,3,ISIP_8,6,5,42,127,1972056648
51,20,3,ISIP_8,7,1,48,36,1972061340
51,20,3,ISIP_8,8,5,42,127,1972857132
51,20,3,ISIP_8,9,1,48,38,1972888676
51,20,3,ISIP_8,10,5,42,127,1973657012
51,20,3,ISIP_8,11,1,48,34,1973677032
51,20,3,ISIP_8,12,5,42,127,1974456672
51,20,3,ISIP_8,13,1,48,34,1974461356
51,20,3,ISIP_8,14,1,48,35,1975253448
51,20,3,ISIP_8,15,5,42,127,1975256624
51,20,3,ISIP_8,16,5,42,127,1976057260
51,20,3,ISIP_8,17,1,48,36,1976090596
51,20,3,ISIP_8,18,5,42,127,1976857072
51,20,3,ISIP_8,19,1,48,38,1976865880
51,20,3,ISIP_8,20,1,48,37,1977630884
51,20,3,ISIP_8,21,5,42,127,1977656648
51,20,3,ISIP_8,22,1,48,35,1978420140
51,20,3,ISIP_8,23,5,42,127,1978456456
51,20,3,ISIP_8,24,1,48,41,1979217264
51,20,3,ISIP_8,25,5,42,127,1979257312
51,20,3,ISIP_8,26,1,48,36,1980018264
51,20,3,ISIP_8,27,5,42,127,1980056896
51,20,3,ISIP_8,28,1,48,37,1980805284
51,20,3,ISIP_8,29,5,42,127,1980856628
51,20,3,ISIP_8,30,1,48,36,1981638700
51,20,3,ISIP_8,31,5,42,127,1981656460
51,20,3,ISIP_8,32,1,48,35,1982425568
51,20,3,ISIP_8,33,5,42,127,1982457240
51,20,3,ISIP_8,34,1,48,37,1983196580
51,20,3,ISIP_8,35,5,42,127,1983256900
51,20,3,ISIP_8,36,1,48,41,1984036628
51,20,3,ISIP_8,37,5,42,127,1984056560
51,20,3,ISIP_8,38,1,48,39,1984798892
51,20,3,ISIP_8,39,5,42,127,1984856296
51,20,3,ISIP_8,40,1,48,33,1985606704
51,20,3,ISIP_8,41,5,42,127,1985657372
51,20,3,ISIP_8,42,1,48,35,1986419828
51,20,3,ISIP_8,43,5,42,127,1986456808
51,20,3,ISIP_8,44,1,48,36,1987214996
51,20,3,ISIP_8,45,5,42,127,1987256616
51,20,3,ISIP_8,46,1,48,35,1987993788
51,20,3,ISIP_8,47,5,42,127,1988056300
51,20,3,ISIP_8,48,1,48,35,1988804692
51,20,3,ISIP_8,49,5,42,127,1988857304
51,20,3,ISIP_8,50,1,48,38,1989570688
51,20,3,ISIP_8,51,5,42,127,1989656816
51,20,3,ISIP_8,52,1,48,39,1990417316
51,20,3,ISIP_8,53,5,42,127,1990456696
51,20,3,ISIP_8,54,5,42,127,1991256288
51,20,3,ISIP_8,55,1,48,30,1991276688
51,20,3,ISIP_8,56,5,42,127,1992057368
51,20,3,ISIP_8,57,1,48,33,1992077620
51,20,3,ISIP_8,58,1,48,38,1992789592
51,20,3,ISIP_8,59,1,48,38,1993585136
51,20,3,ISIP_8,60,1,48,31,1994351804
51,20,3,ISIP_8,61,1,48,38,1995118392
51,20,3,ISIP_8,62,1,48,29,1995923812
51,20,3,ISIP_8,63,1,48,29,1996723688
51,20,3,ISIP_8,64,1,48,31,1997467388
51,20,3,ISIP_8,65,1,48,38,1998214464
51,20,3,ISIP_8,66,1,48,35,1999006788
51,20,3,ISIP_8,67,1,48,37,1999767624
51,20,3,ISIP_8,68,1,48,34,2000530024
51,20,3,ISIP_8,69,1,48,33,2001282780
51,20,3,ISIP_8,70,1,48,29,2002080188
51,20,3,ISIP_8,71,1,48,35,2002830700
51,20,3,ISIP_8,72,1,48,31,2003575676
51,20,3,ISIP_8,73,1,48,37,2004295972
51,20,3,ISIP_8,74,1,48,38,2005052916
51,20,3,ISIP_8,75,1,48,29,2005781436
51,20,3,ISIP_8,76,1,48,39,2006528956
51,20,3,ISIP_8,77,1,48,41,2007287028
51,20,3,ISIP_8,78,1,48,38,2008066188
51,20,3,ISIP_8,79,1,48,33,2008839200
51,20,3,ISIP_8,80,1,48,37,2009586796
51,20,3,ISIP_8,81,1,48,31,2010365060
51,20,3,ISIP_8,82,1,48,36,2011107568
51,20,3,ISIP_8,83,1,48,35,2011840272
51,20,3,ISIP_8,84,1,48,39,2012601832
51,20,3,ISIP_8,85,1,48,39,2013376532
51,20,3,ISIP_8,86,1,48,42,2014166164
51,20,3,ISIP_8,87,1,48,40,2014927896
51,20,3,ISIP_8,88,1,48,36,2015676684
51,20,3,ISIP_8,89,1,48,30,2016403160
51,20,3,ISIP_8,90,1,48,37,2017169532
51,20,3,ISIP_8,91,1,48,40,2017927820
51,20,3,ISIP_8,92,1,48,38,2018695388
51,20,3,ISIP_8,93,1,48,36,2019384264
51,20,3,ISIP_8,94,1,48,43,2020138072
51,20,3,ISIP_8,95,1,48,40,2020863452
51,20,3,ISIP_8,96,1,48,38,2021658916
51,20,3,ISIP_8,97,1,48,36,2022371264
51,20,3,ISIP_8,98,1,48,41,2023141224
51,20,3,ISIP_8,99,1,48,36,2023878052
51,20,3,ISIP_8,100,1,48,33,2024615004
51,20,3,ISIP_8,101,1,48,39,2025293484
51,20,3,ISIP_8,102,1,48,43,2026057088
51,20,3,ISIP_8,103,1,48,29,2026794508
51,20,3,ISIP_8,104,1,48,36,2027521160
51,20,3,ISIP_8,105,1,48,40,2028223204
51,20,3,ISIP_8,106,1,48,38,2028985132
51,20,3,ISIP_8,107,1,48,37,2029674388
51,20,3,ISIP_8,108,1,48,31,2030420696
51,20,3,ISIP_8,109,1,48,36,2031167696
51,20,3,ISIP_8,110,1,48,35,2031934288
51,20,3,ISIP_8,111,1,48,38,2032705296
51,20,3,ISIP_8,112,1,48,37,2033474504
51,20,3,ISIP_8,113,1,48,41,2034201232
51,20,3,ISIP_8,114,1,48,42,2034931472
51,20,3,ISIP_8,115,1,48,41,2035673244
51,20,3,ISIP_8,116,1,48,35,2036415224
51,20,3,ISIP_8,117,1,48,41,2037110360
51,20,3,ISIP_8,118,1,48,45,2037797444
51,20,3,ISIP_8,119,1,48,39,2038538080
51,20,3,ISIP_8,120,1,48,42,2039299216
51,20,3,ISIP_8,121,1,48,40,2040023464
51,20,3,ISIP_8,122,1,48,39,2040741708
51,20,3,ISIP_8,123,1,48,37,2041479804
51,20,3,ISIP_8,124,1,48,35,2042211316
51,20,3,ISIP_8,125,1,48,40,2042897584
51,20,3,ISIP_8,126,1,48,40,2043628492
51,20,3,ISIP_8,127,1,48,38,2044360984
51,20,3,ISIP_8,128,1,48,38,2045105860
51,20,3,ISIP_8,129,1,48,39,2045813816
51,20,3,ISIP_8,130,1,48,43,2046524156
51,20,3,ISIP_8,131,1,48,37,2047232248
51,20,3,ISIP_8,132,1,48,38,2047954040
51,20,3,ISIP_8,133,1,48,40,2048693680
51,20,3,ISIP_8,134,1,48,40,2049427432
51,20,3,ISIP_8,135,1,48,44,2050170688
51,20,3,ISIP_8,136,1,48,46,2050891808
51,20,3,ISIP_8,137,1,48,43,2051590260
51,20,3,ISIP_8,138,1,48,41,2052316244
51,20,3,ISIP_8,139,1,48,38,2053073332
51,20,3,ISIP_8,140,1,48,40,2053750368
51,20,3,ISIP_8,141,1,48,39,2054456076
51,20,3,ISIP_8,142,1,48,32,2055154292
51,20,3,ISIP_8,143,1,48,35,2055853548
51,20,3,ISIP_8,144,1,48,39,2056525444
51,20,3,ISIP_8,145,1,48,37,2057255612
51,20,3,ISIP_8,146,1,48,34,2057942096
51,20,3,ISIP_8,147,1,48,35,2058672836
51,20,3,ISIP_8,148,1,48,38,2059372336
51,20,3,ISIP_8,149,1,48,28,2060083656
51,20,3,ISIP_8,150,1,48,41,2060821288
51,20,3,ISIP_8,151,1,48,38,2061552052
51,20,3,ISIP_8,152,1,48,36,2062304368
51,20,3,ISIP_8,153,1,48,34,2062990376
51,20,3,ISIP_8,154,1,48,37,2063693536
51,20,3,ISIP_8,155,1,48,35,2064373144
51,20,3,ISIP_8,156,1,48,32,2065068652
51,20,3,ISIP_8,157,1,48,46,2065780640
51,20,3,ISIP_8,158,1,48,42,2066498696
51,20,3,ISIP_8,159,1,48,35,2067200500
51,20,3,ISIP_8,160,1,48,35,2067884496
51,20,3,ISIP_8,161,1,48,37,2068519368
51,20,3,ISIP_8,162,1,48,38,2069244452
51,20,3,ISIP_8,163,1,48,35,2069941532
51,20,3,ISIP_8,164,1,48,39,2070676036
51,20,3,ISIP_8,165,1,48,38,2071403284
51,20,3,ISIP_8,166,1,48,33,2072082744
51,20,3,ISIP_8,167,1,48,41,2072805188
51,20,3,ISIP_8,168,1,48,41,2073573432
51,20,3,ISIP_8,169,1,48,38,2074285020
51,20,3,ISIP_8,170,1,48,37,2074969036
51,20,3,ISIP_8,171,1,48,43,2075668764
51,20,3,ISIP_8,172,1,48,44,2076348816
51,20,3,ISIP_8,173,1,48,41,2077073724
51,20,3,ISIP_8,174,1,48,40,2077786168
51,20,3,ISIP_8,175,1,48,38,2078514588
51,20,3,ISIP_8,176,1,48,42,2079230304
51,20,3,ISIP_8,177,1,48,39,2079907488
51,20,3,ISIP_8,178,1,48,42,2080593448
51,20,3,ISIP_8,179,1,48,41,2081296092
51,20,3,ISIP_8,180,1,48,37,2082008752
51,20,3,ISIP_8,181,1,48,40,2082680928
51,20,3,ISIP_8,182,1,48,40,2083371156
51,20,3,ISIP_8,183,1,48,41,2084095116
51,20,3,ISIP_8,184,1,48,44,2084805072
51,20,3,ISIP_8,185,1,48,43,2085484128
51,20,3,ISIP_8,186,1,48,40,2086176296
51,20,3,ISIP_8,187,1,48,42,2086873924
51,20,3,ISIP_8,188,1,48,36,2087562484
51,20,3,ISIP_8,189,1,48,43,2088258916
51,20,3,ISIP_8,0,9999,9999,9999,1968854116
51,20,3,ISIP_8,1,9999,9999,9999,1969654840
51,20,3,ISIP_8,2,9999,9999,9999,1970454596
51,20,3,ISIP_8,3,9999,9999,9999,1971254324
51,20,3,ISIP_8,4,9999,9999,9999,1972054136
51,20,3,ISIP_8,5,9999,9999,9999,1972854844
51,20,3,ISIP_8,6,9999,9999,9999,1973654576
51,20,3,ISIP_8,7,9999,9999,9999,1974454384
51,20,3,ISIP_8,8,9999,9999,9999,1975254112
51,20,3,ISIP_8,9,9999,9999,9999,1976054896
51,20,3,ISIP_8,10,9999,9999,9999,1976854636
51,20,3,ISIP_8,11,9999,9999,9999,1977654360
51,20,3,ISIP_8,12,9999,9999,9999,1978454096
51,20,3,ISIP_8,13,9999,9999,9999,1979254876
51,20,3,ISIP_8,14,9999,9999,9999,1980054608
51,20,3,ISIP_8,15,9999,9999,9999,1980854340
51,20,3,ISIP_8,16,9999,9999,9999,1981654100
51,20,3,ISIP_8,17,9999,9999,9999,1982454880
51,20,3,ISIP_8,18,9999,9999,9999,1983254616
51,20,3,ISIP_8,19,9999,9999,9999,1984054348
51,20,3,ISIP_8,20,9999,9999,9999,1984854080
51,20,3,ISIP_8,21,9999,9999,9999,1985654860
51,20,3,ISIP_8,22,9999,9999,9999,1986454596
51,20,3,ISIP_8,23,9999,9999,9999,1987254328
51,20,3,ISIP_8,24,9999,9999,9999,1988054088
51,20,3,ISIP_8,25,9999,9999,9999,1988854868
51,20,3,ISIP_8,26,9999,9999,9999,1989654600
51,20,3,ISIP_8,27,9999,9999,9999,1990454336
51,20,3,ISIP_8,28,9999,9999,9999,1991254076
51,20,3,ISIP_8,29,9999,9999,9999,1992054856
51,20,3,ISIP_8,30,9999,9999,9999,1992854584
51,20,3,ISIP_8,31,9999,9999,9999,1993654388
51,20,3,ISIP_8,32,9999,9999,9999,1994454124
51,20,3,ISIP_8,33,9999,9999,9999,1995254900
51,20,3,ISIP_8,34,9999,9999,9999,1996054628
51,20,3,ISIP_8,35,9999,9999,9999,1996854356
51,20,3,ISIP_8,36,9999,9999,9999,1997654084
51,20,3,ISIP_8,37,9999,9999,9999,1998454860
51,20,3,ISIP_8,38,9999,9999,9999,1999254592
51,20,3,ISIP_8,39,9999,9999,9999,2000054320
51,20,3,ISIP_8,40,9999,9999,9999,2000854072
51,20,3,ISIP_8,41,9999,9999,9999,2001654848
51,20,3,ISIP_8,42,9999,9999,9999,2002454576
51,20,3,ISIP_8,43,9999,9999,9999,2003254380
51,20,3,ISIP_8,44,9999,9999,9999,2004054108
51,20,3,ISIP_8,45,9999,9999,9999,2004854884
51,20,3,ISIP_8,46,9999,9999,9999,2005654612
51,20,3,ISIP_8,47,9999,9999,9999,2006454344
51,20,3,ISIP_8,48,9999,9999,9999,2007254100
51,20,3,ISIP_8,49,9999,9999,9999,2008054872
51,20,3,ISIP_8,50,9999,9999,9999,2008854600
51,20,3,ISIP_8,51,9999,9999,9999,2009654328
51,20,3,ISIP_8,52,9999,9999,9999,2010454132
51,20,3,ISIP_8,53,9999,9999,9999,2011254892
51,20,3,ISIP_8,54,9999,9999,9999,2012054620
51,20,3,ISIP_8,55,9999,9999,9999,2012854352
51,20,3,ISIP_8,56,9999,9999,9999,2013654104
51,20,3,ISIP_8,57,9999,9999,9999,2014454880
51,20,3,ISIP_8,58,9999,9999,9999,2015254608
51,20,3,ISIP_8,59,9999,9999,9999,2016054336
51,20,3,ISIP_8,60,9999,9999,9999,2016854068
51,20,3,ISIP_8,61,9999,9999,9999,2017654844
51,20,3,ISIP_8,62,9999,9999,9999,2018454644
51,20,3,ISIP_8,63,9999,9999,9999,2019254376
51,20,3,ISIP_8,64,9999,9999,9999,2020054128
51,20,3,ISIP_8,65,9999,9999,9999,2020854832
51,20,3,ISIP_8,66,9999,9999,9999,2021654636
51,20,3,ISIP_8,67,9999,9999,9999,2022454360
51,20,3,ISIP_8,68,9999,9999,9999,2023254072
51,20,3,ISIP_8,69,9999,9999,9999,2024054848
51,20,3,ISIP_8,70,9999,9999,9999,2024854576
51,20,3,ISIP_8,71,9999,9999,9999,2025654380
51,20,3,ISIP_8,72,9999,9999,9999,2026454136
51,20,3,ISIP_8,73,9999,9999,9999,2027254840
51,20,3,ISIP_8,74,9999,9999,9999,2028054640
51,20,3,ISIP_8,75,9999,9999,9999,2028854372
51,20,3,ISIP_8,76,9999,9999,9999,2029654100
51,20,3,ISIP_8,77,9999,9999,9999,2030454868
51,20,3,ISIP_8,78,9999,9999,9999,2031254600
51,20,3,ISIP_8,79,9999,9999,9999,2032054388
51,20,3,ISIP_8,80,9999,9999,9999,2032854068
51,20,3,ISIP_8,81,9999,9999,9999,2033654844
51,20,3,ISIP_8,82,9999,9999,9999,2034454576
51,20,3,ISIP_8,83,9999,9999,9999,2035254380
51,20,3,ISIP_8,84,9999,9999,9999,2036054108
51,20,3,ISIP_8,85,9999,9999,9999,2036854884
51,20,3,ISIP_8,86,9999,9999,9999,2037654612
51,20,3,ISIP_8,87,9999,9999,9999,2038454340
51,20,3,ISIP_8,88,9999,9999,9999,2039254096
51,20,3,ISIP_8,89,9999,9999,9999,2040054864
51,20,3,ISIP_8,90,9999,9999,9999,2040854580
51,20,3,ISIP_8,91,9999,9999,9999,2041654384
51,20,3,ISIP_8,92,9999,9999,9999,2042454112
51,20,3,ISIP_8,93,9999,9999,9999,2043254888
51,20,3,ISIP_8,94,9999,9999,9999,2044054620
51,20,3,ISIP_8,95,9999,9999,9999,2044854348
51,20,3,ISIP_8,96,9999,9999,9999,2045654100
51,20,3,ISIP_8,97,9999,9999,9999,2046454876
51,20,3,ISIP_8,98,9999,9999,9999,2047254600
51,20,3,ISIP_8,99,9999,9999,9999,2048054388
51,20,3,ISIP_8,100,9999,9999,9999,2048854120
51,20,3,ISIP_8,101,9999,9999,9999,2049654892
51,20,3,ISIP_8,102,9999,9999,9999,2050454624
51,20,3,ISIP_8,103,9999,9999,9999,2051254352
51,20,3,ISIP_8,104,9999,9999,9999,2052054104
51,20,3,ISIP_8,105,9999,9999,9999,2052854884
51,20,3,ISIP_8,106,9999,9999,9999,2053654612
51,20,3,ISIP_8,107,9999,9999,9999,2054454340
51,20,3,ISIP_8,108,9999,9999,9999,2055254124
51,20,3,ISIP_8,109,9999,9999,9999,2056054900
51,20,3,ISIP_8,110,9999,9999,9999,2056854628
51,20,3,ISIP_8,111,9999,9999,9999,2057654356
51,20,3,ISIP_8,112,9999,9999,9999,2058454112
51,20,3,ISIP_8,113,9999,9999,9999,2059254888
51,20,3,ISIP_8,114,9999,9999,9999,2060054616
51,20,3,ISIP_8,115,9999,9999,9999,2060854340
51,20,3,ISIP_8,116,9999,9999,9999,2061654128
51,20,3,ISIP_8,117,9999,9999,9999,2062454832
51,20,3,ISIP_8,118,9999,9999,9999,2063254632
51,20,3,ISIP_8,119,9999,9999,9999,2064054360
51,20,3,ISIP_8,120,9999,9999,9999,2064854116
51,20,3,ISIP_8,121,9999,9999,9999,2065654892
51,20,3,ISIP_8,122,9999,9999,9999,2066454620
51,20,3,ISIP_8,123,9999,9999,9999,2067254344
51,20,3,ISIP_8,124,9999,9999,9999,2068054132
51,20,3,ISIP_8,125,9999,9999,9999,2068854836
51,20,3,ISIP_8,126,9999,9999,9999,2069654640
51,20,3,ISIP_8,127,9999,9999,9999,2070454368
51,20,3,ISIP_8,128,9999,9999,9999,2071254124
51,20,3,ISIP_8,129,9999,9999,9999,2072054900
51,20,3,ISIP_8,130,9999,9999,9999,2072854620
51,20,3,ISIP_8,131,9999,9999,9999,2073654352
51,20,3,ISIP_8,132,9999,9999,9999,2074454064
51,20,3,ISIP_8,133,9999,9999,9999,2075254840
51,20,3,ISIP_8,134,9999,9999,9999,2076054644
51,20,3,ISIP_8,135,9999,9999,9999,2076854376
51,20,3,ISIP_8,136,9999,9999,9999,2077654128
51,20,3,ISIP_8,137,9999,9999,9999,2078454880
51,20,3,ISIP_8,138,9999,9999,9999,2079254604
51,20,3,ISIP_8,139,9999,9999,9999,2080054388
51,20,3,ISIP_8,140,9999,9999,9999,2080854120
51,20,3,ISIP_8,141,9999,9999,9999,2081654896
51,20,3,ISIP_8,142,9999,9999,9999,2082454624
51,20,3,ISIP_8,143,9999,9999,9999,2083254360
51,20,3,ISIP_8,144,9999,9999,9999,2084054108
51,20,3,ISIP_8,145,9999,9999,9999,2084854876
51,20,3,ISIP_8,146,9999,9999,9999,2085654588
51,20,3,ISIP_8,147,9999,9999,9999,2086454320
51,20,3,ISIP_8,148,9999,9999,9999,2087254124
51,20,3,ISIP_8,149,9999,9999,9999,2088054896
51,21,5,ISIP_5,0,5,42,127,2111846868
51,21,5,ISIP_5,1,5,42,127,2112346512
51,21,5,ISIP_5,2,5,42,127,2112847348
51,21,5,ISIP_5,3,5,42,127,2113347140
51,21,5,ISIP_5,4,5,42,127,2113846560
51,21,5,ISIP_5,5,1,48,40,2113855588
51,21,5,ISIP_5,6,5,42,127,2114347300
51,21,5,ISIP_5,7,1,48,40,2114358720
51,21,5,ISIP_5,8,5,42,127,2114847220
51,21,5,ISIP_5,9,1,48,46,2114871128
51,21,5,ISIP_5,10,5,42,127,2115346912
51,21,5,ISIP_5,11,1,48,43,2115393040
51,21,5,ISIP_5,12,5,42,127,2115846532
51,21,5,ISIP_5,13,1,48,38,2115898720
51,21,5,ISIP_5,14,5,42,127,2116347276
51,21,5,ISIP_5,15,1,48,40,2116356676
51,21,5,ISIP_5,16,5,42,127,2116847044
51,21,5,ISIP_5,17,1,48,43,2116851580
51,21,5,ISIP_5,18,5,42,127,2117346664
51,21,5,ISIP_5,19,1,48,44,2117360928
51,21,5,ISIP_5,20,1,48,33,2117840704
51,21,5,ISIP_5,21,5,42,127,2117847624
51,21,5,ISIP_5,22,5,42,127,2118347324
51,21,5,ISIP_5,23,1,48,36,2118386348
51,21,5,ISIP_5,24,5,42,127,2118846944
51,21,5,ISIP_5,25,1,48,39,2118893972
51,21,5,ISIP_5,26,5,42,127,2119346540
51,21,5,ISIP_5,27,1,48,35,2119387436
51,21,5,ISIP_5,28,5,42,127,2119847408
51,21,5,ISIP_5,29,1,48,38,2119867380
51,21,5,ISIP_5,30,1,48,37,2120343396
51,21,5,ISIP_5,31,5,42,127,2120347096
51,21,5,ISIP_5,32,5,42,127,2120846576
51,21,5,ISIP_5,33,1,48,30,2120847540
51,21,5,ISIP_5,34,5,42,127,2121346344
51,21,5,ISIP_5,35,1,48,36,2121379604
51,21,5,ISIP_5,36,5,42,127,2121847088
51,21,5,ISIP_5,37,1,48,36,2121884840
51,21,5,ISIP_5,38,5,42,127,2122347004
51,21,5,ISIP_5,39,1,48,36,2122383260
51,21,5,ISIP_5,40,5,42,127,2122846628
51,21,5,ISIP_5,41,1,48,36,2122893276
51,21,5,ISIP_5,42,5,42,127,2123347368
51,21,5,ISIP_5,43,1,48,39,2123391844
51,21,5,ISIP_5,44,5,42,127,2123847060
51,21,5,ISIP_5,45,1,48,41,2123876808
51,21,5,ISIP_5,46,5,42,127,2124346832
51,21,5,ISIP_5,47,1,48,35,2124369024
51,21,5,ISIP_5,48,1,48,36,2124842664
51,21,5,ISIP_5,49,5,42,127,2124846444
51,21,5,ISIP_5,50,5,42,127,2125347192
51,21,5,ISIP_5,51,1,48,36,2125374624
51,21,5,ISIP_5,52,5,42,127,2125847036
51,21,5,ISIP_5,53,1,48,29,2125885160
51,21,5,ISIP_5,54,5,42,127,2126346580
51,21,5,ISIP_5,55,1,48,36,2126372212
51,21,5,ISIP_5,56,5,42,127,2126847324
51,21,5,ISIP_5,57,1,48,28,2126875572
51,21,5,ISIP_5,58,5,42,127,2127347020
51,21,5,ISIP_5,59,1,48,35,2127368316
51,21,5,ISIP_5,60,5,42,127,2127846860
51,21,5,ISIP_5,61,1,48,33,2127854920
51,21,5,ISIP_5,62,5,42,127,2128346560
51,21,5,ISIP_5,63,1,48,38,2128347972
51,21,5,ISIP_5,64,5,42,127,2128847152
51,21,5,ISIP_5,65,1,48,38,2128854980
51,21,5,ISIP_5,66,5,42,127,2129346920
51,21,5,ISIP_5,67,1,48,38,2129361704
51,21,5,ISIP_5,68,5,42,127,2129846616
51,21,5,ISIP_5,69,1,48,38,2129864468
51,21,5,ISIP_5,70,1,48,36,2130305180
51,21,5,ISIP_5,71,5,42,127,2130347324
51,21,5,ISIP_5,72,1,48,36,2130816692
51,21,5,ISIP_5,73,5,42,127,2130847172
51,21,5,ISIP_5,74,1,48,29,2131332172
51,21,5,ISIP_5,75,5,42,127,2131347016
51,21,5,ISIP_5,76,1,48,38,2131842860
51,21,5,ISIP_5,77,1,48,35,2132337240
51,21,5,ISIP_5,78,1,48,39,2132854000
51,21,5,ISIP_5,79,1,48,35,2133389216
51,21,5,ISIP_5,80,1,48,35,2133892204
51,21,5,ISIP_5,81,1,48,35,2134401460
51,21,5,ISIP_5,82,1,48,38,2134898608
51,21,5,ISIP_5,83,1,48,30,2135422904
51,21,5,ISIP_5,84,1,48,37,2135935760
51,21,5,ISIP_5,85,1,48,37,2136451008
51,21,5,ISIP_5,86,1,48,31,2136997004
51,21,5,ISIP_5,87,1,48,29,2137477764
51,21,5,ISIP_5,88,1,48,35,2137988972
51,21,5,ISIP_5,89,1,48,44,2138499288
51,21,5,ISIP_5,90,1,48,38,2139017752
51,21,5,ISIP_5,91,1,48,37,2139554392
51,21,5,ISIP_5,92,1,48,32,2140043156
51,21,5,ISIP_5,93,1,48,35,2140550256
51,21,5,ISIP_5,94,1,48,40,2141044336
51,21,5,ISIP_5,95,1,48,38,2141544100
51,21,5,ISIP_5,96,1,48,41,2142093460
51,21,5,ISIP_5,97,1,48,35,2142609452
51,21,5,ISIP_5,98,1,48,41,2143120060
51,21,5,ISIP_5,99,1,48,36,2143635464
51,21,5,ISIP_5,100,1,48,38,2144163128
51,21,5,ISIP_5,101,1,48,32,2144630128
51,21,5,ISIP_5,102,1,48,40,2145152336
51,21,5,ISIP_5,103,1,48,40,2145679700
51,21,5,ISIP_5,104,1,48,38,2146177668
51,21,5,ISIP_5,105,1,48,27,2146711616
51,21,5,ISIP_5,106,1,48,41,2147213628
51,21,5,ISIP_5,107,1,48,43,2147727224
51,21,5,ISIP_5,108,1,48,45,2148237316
51,21,5,ISIP_5,109,1,48,42,2148760788
51,21,5,ISIP_5,110,1,48,41,2149253524
51,21,5,ISIP_5,111,1,48,43,2149767428
51,21,5,ISIP_5,112,1,48,32,2150295616
51,21,5,ISIP_5,113,1,48,46,2150804208
51,21,5,ISIP_5,114,1,48,37,2151317812
51,21,5,ISIP_5,115,1,48,43,2151815332
51,21,5,ISIP_5,116,1,48,43,2152339556
51,21,5,ISIP_5,117,1,48,45,2152860876
51,21,5,ISIP_5,118,1,48,38,2153380680
51,21,5,ISIP_5,119,1,48,44,2153868108
51,21,5,ISIP_5,120,1,48,41,2154382536
51,21,5,ISIP_5,121,1,48,36,2154920744
51,21,5,ISIP_5,122,1,48,40,2155436372
51,21,5,ISIP_5,123,1,48,41,2155927832
51,21,5,ISIP_5,124,1,48,38,2156425728
51,21,5,ISIP_5,125,1,48,36,2156944792
51,21,5,ISIP_5,126,1,48,42,2157437296
51,21,5,ISIP_5,127,1,48,37,2157953372
51,21,5,ISIP_5,128,1,48,43,2158470412
51,21,5,ISIP_5,129,1,48,43,2158975784
51,21,5,ISIP_5,130,1,48,44,2159509432
51,21,5,ISIP_5,131,1,48,42,2160033136
51,21,5,ISIP_5,132,1,48,44,2160591268
51,21,5,ISIP_5,133,1,48,38,2161061316
51,21,5,ISIP_5,134,1,48,44,2161594092
51,21,5,ISIP_5,135,1,48,47,2162108892
51,21,5,ISIP_5,136,1,48,45,2162641044
51,21,5,ISIP_5,137,1,48,46,2163165716
51,21,5,ISIP_5,138,1,48,45,2163703700
51,21,5,ISIP_5,139,1,48,48,2164240116
51,21,5,ISIP_5,140,1,48,43,2164728812
51,21,5,ISIP_5,141,1,48,41,2165276680
51,21,5,ISIP_5,142,1,48,40,2165790648
51,21,5,ISIP_5,143,1,48,38,2166277332
51,21,5,ISIP_5,144,1,48,44,2166793552
51,21,5,ISIP_5,145,1,48,41,2167311492
51,21,5,ISIP_5,146,1,48,42,2167875444
51,21,5,ISIP_5,147,1,48,42,2168438192
51,21,5,ISIP_5,148,1,48,46,2168973788
51,21,5,ISIP_5,149,1,48,43,2169503996
51,21,5,ISIP_5,150,1,48,43,2170021036
51,21,5,ISIP_5,151,1,48,45,2170575280
51,21,5,ISIP_5,152,1,48,46,2171089476
51,21,5,ISIP_5,153,1,48,41,2171605776
51,21,5,ISIP_5,154,1,48,42,2172115492
51,21,5,ISIP_5,155,1,48,43,2172646748
51,21,5,ISIP_5,156,1,48,43,2173171416
51,21,5,ISIP_5,157,1,48,39,2173686516
51,21,5,ISIP_5,158,1,48,45,2174189272
51,21,5,ISIP_5,159,1,48,41,2174708864
51,21,5,ISIP_5,160,1,48,46,2175188060
51,21,5,ISIP_5,161,1,48,42,2175730528
51,21,5,ISIP_5,162,1,48,45,2176222816
51,21,5,ISIP_5,163,1,48,45,2176734700
51,21,5,ISIP_5,164,1,48,52,2177249196
51,21,5,ISIP_5,165,1,48,47,2177774852
51,21,5,ISIP_5,166,1,48,50,2178275960
51,21,5,ISIP_5,167,1,48,47,2178805124
51,21,5,ISIP_5,168,1,48,42,2179353748
51,21,5,ISIP_5,169,1,48,48,2179851488
51,21,5,ISIP_5,170,1,48,47,2180362552
51,21,5,ISIP_5,171,1,48,47,2180894180
51,21,5,ISIP_5,172,1,48,43,2181412268
51,21,5,ISIP_5,173,1,48,41,2181941052
51,21,5,ISIP_5,174,1,48,40,2182400952
51,21,5,ISIP_5,175,1,48,44,2182916052
51,21,5,ISIP_5,176,1,48,43,2183461968
51,21,5,ISIP_5,177,1,48,44,2183995168
51,21,5,ISIP_5,178,1,48,43,2184503316
51,21,5,ISIP_5,179,1,48,42,2184996720
51,21,5,ISIP_5,180,1,48,48,2185509720
51,21,5,ISIP_5,181,1,48,44,2185994460
51,21,5,ISIP_5,182,1,48,47,2186497588
51,21,5,ISIP_5,183,1,48,48,2187002808
51,21,5,ISIP_5,184,1,48,40,2187524496
51,21,5,ISIP_5,185,1,48,46,2188050664
51,21,5,ISIP_5,186,1,48,43,2188584832
51,21,5,ISIP_5,187,1,48,43,2189081304
51,21,5,ISIP_5,188,1,48,47,2189585036
51,21,5,ISIP_5,189,1,48,43,2190064160
51,21,5,ISIP_5,190,1,48,47,2190562508
51,21,5,ISIP_5,191,1,48,50,2191044020
51,21,5,ISIP_5,192,1,48,47,2191584476
51,21,5,ISIP_5,0,9999,9999,9999,2111844436
51,21,5,ISIP_5,1,9999,9999,9999,2112344152
51,21,5,ISIP_5,2,9999,9999,9999,2112844912
51,21,5,ISIP_5,3,9999,9999,9999,2113344632
51,21,5,ISIP_5,4,9999,9999,9999,2113844272
51,21,5,ISIP_5,5,9999,9999,9999,2114345012
51,21,5,ISIP_5,6,9999,9999,9999,2114844784
51,21,5,ISIP_5,7,9999,9999,9999,2115344480
51,21,5,ISIP_5,8,9999,9999,9999,2115844172
51,21,5,ISIP_5,9,9999,9999,9999,2116344912
51,21,5,ISIP_5,10,9999,9999,9999,2116844608
51,21,5,ISIP_5,11,9999,9999,9999,2117344304
51,21,5,ISIP_5,12,9999,9999,9999,2117845112
51,21,5,ISIP_5,13,9999,9999,9999,2118344816
51,21,5,ISIP_5,14,9999,9999,9999,2118844512
51,21,5,ISIP_5,15,9999,9999,9999,2119344180
51,21,5,ISIP_5,16,9999,9999,9999,2119844972
51,21,5,ISIP_5,17,9999,9999,9999,2120344664
51,21,5,ISIP_5,18,9999,9999,9999,2120844364
51,21,5,ISIP_5,19,9999,9999,9999,2121344056
51,21,5,ISIP_5,20,9999,9999,9999,2121844800
51,21,5,ISIP_5,21,9999,9999,9999,2122344568
51,21,5,ISIP_5,22,9999,9999,9999,2122844264
51,21,5,ISIP_5,23,9999,9999,9999,2123345008
51,21,5,ISIP_5,24,9999,9999,9999,2123844700
51,21,5,ISIP_5,25,9999,9999,9999,2124344396
51,21,5,ISIP_5,26,9999,9999,9999,2124844084
51,21,5,ISIP_5,27,9999,9999,9999,2125344832
51,21,5,ISIP_5,28,9999,9999,9999,2125844600
51,21,5,ISIP_5,29,9999,9999,9999,2126344296
51,21,5,ISIP_5,30,9999,9999,9999,2126845036
51,21,5,ISIP_5,31,9999,9999,9999,2127344732
51,21,5,ISIP_5,32,9999,9999,9999,2127844424
51,21,5,ISIP_5,33,9999,9999,9999,2128344124
51,21,5,ISIP_5,34,9999,9999,9999,2128844864
51,21,5,ISIP_5,35,9999,9999,9999,2129344632
51,21,5,ISIP_5,36,9999,9999,9999,2129844328
51,21,5,ISIP_5,37,9999,9999,9999,2130345036
51,21,5,ISIP_5,38,9999,9999,9999,2130844736
51,21,5,ISIP_5,39,9999,9999,9999,2131344504
51,21,5,ISIP_5,40,9999,9999,9999,2131844200
51,21,5,ISIP_5,41,9999,9999,9999,2132344936
51,21,5,ISIP_5,42,9999,9999,9999,2132844632
51,21,5,ISIP_5,43,9999,9999,9999,2133344324
51,21,5,ISIP_5,44,9999,9999,9999,2133845060
51,21,5,ISIP_5,45,9999,9999,9999,2134344824
51,21,5,ISIP_5,46,9999,9999,9999,2134844516
51,21,5,ISIP_5,47,9999,9999,9999,2135344208
51,21,5,ISIP_5,48,9999,9999,9999,2135844944
51,21,5,ISIP_5,49,9999,9999,9999,2136344632
51,21,5,ISIP_5,50,9999,9999,9999,2136844396
51,21,5,ISIP_5,51,9999,9999,9999,2137344088
51,21,5,ISIP_5,52,9999,9999,9999,2137844824
51,21,5,ISIP_5,53,9999,9999,9999,2138344516
51,21,5,ISIP_5,54,9999,9999,9999,2138844280
51,21,5,ISIP_5,55,9999,9999,9999,2139345016
51,21,5,ISIP_5,56,9999,9999,9999,2139844708
51,21,5,ISIP_5,57,9999,9999,9999,2140344396
51,21,5,ISIP_5,58,9999,9999,9999,2140844136
51,21,5,ISIP_5,59,9999,9999,9999,2141344872
51,21,5,ISIP_5,60,9999,9999,9999,2141844564
51,21,5,ISIP_5,61,9999,9999,9999,2142344252
51,21,5,ISIP_5,62,9999,9999,9999,2142844992
51,21,5,ISIP_5,63,9999,9999,9999,2143344756
51,21,5,ISIP_5,64,9999,9999,9999,2143844448
51,21,5,ISIP_5,65,9999,9999,9999,2144344136
51,21,5,ISIP_5,66,9999,9999,9999,2144844872
51,21,5,ISIP_5,67,9999,9999,9999,2145344564
51,21,5,ISIP_5,68,9999,9999,9999,2145844328
51,21,5,ISIP_5,69,9999,9999,9999,2146345064
51,21,5,ISIP_5,70,9999,9999,9999,2146844756
51,21,5,ISIP_5,71,9999,9999,9999,2147344448
51,21,5,ISIP_5,72,9999,9999,9999,2147844212
51,21,5,ISIP_5,73,9999,9999,9999,2148344948
51,21,5,ISIP_5,74,9999,9999,9999,2148844652
51,21,5,ISIP_5,75,9999,9999,9999,2149344344
51,21,5,ISIP_5,76,9999,9999,9999,2149845084
51,21,5,ISIP_5,77,9999,9999,9999,2150344772
51,21,5,ISIP_5,78,9999,9999,9999,2150844464
51,21,5,ISIP_5,79,9999,9999,9999,2151344204
51,21,5,ISIP_5,80,9999,9999,9999,2151844940
51,21,5,ISIP_5,81,9999,9999,9999,2152344632
51,21,5,ISIP_5,82,9999,9999,9999,2152844404
51,21,5,ISIP_5,83,9999,9999,9999,2153344096
51,21,5,ISIP_5,84,9999,9999,9999,2153844832
51,21,5,ISIP_5,85,9999,9999,9999,2154344520
51,21,5,ISIP_5,86,9999,9999,9999,2154844212
51,21,5,ISIP_5,87,9999,9999,9999,2155344952
51,21,5,ISIP_5,88,9999,9999,9999,2155844716
51,21,5,ISIP_5,89,9999,9999,9999,2156344404
51,21,5,ISIP_5,90,9999,9999,9999,2156844096
51,21,5,ISIP_5,91,9999,9999,9999,2157344832
51,21,5,ISIP_5,92,9999,9999,9999,2157844596
51,21,5,ISIP_5,93,9999,9999,9999,2158344288
51,21,5,ISIP_5,94,9999,9999,9999,2158845024
51,21,5,ISIP_5,95,9999,9999,9999,2159344716
51,21,5,ISIP_5,96,9999,9999,9999,2159844404
51,21,5,ISIP_5,97,9999,9999,9999,2160344172
51,21,5,ISIP_5,98,9999,9999,9999,2160844908
51,21,5,ISIP_5,99,9999,9999,9999,2161344600
51,21,5,ISIP_5,100,9999,9999,9999,2161844292
51,21,5,ISIP_5,101,9999,9999,9999,2162345076
51,21,5,ISIP_5,102,9999,9999,9999,2162844768
51,21,5,ISIP_5,103,9999,9999,9999,2163344460
51,21,5,ISIP_5,104,9999,9999,9999,2163844148
51,21,5,ISIP_5,105,9999,9999,9999,2164344888
51,21,5,ISIP_5,106,9999,9999,9999,2164844652
51,21,5,ISIP_5,107,9999,9999,9999,2165344360
51,21,5,ISIP_5,108,9999,9999,9999,2165845100
51,21,5,ISIP_5,109,9999,9999,9999,2166344788
51,21,5,ISIP_5,110,9999,9999,9999,2166844480
51,21,5,ISIP_5,111,9999,9999,9999,2167344244
51,21,5,ISIP_5,112,9999,9999,9999,2167844912
51,21,5,ISIP_5,113,9999,9999,9999,2168344680
51,21,5,ISIP_5,114,9999,9999,9999,2168844368
51,21,5,ISIP_5,115,9999,9999,9999,2169344060
51,21,5,ISIP_5,116,9999,9999,9999,2169844796
51,21,5,ISIP_5,117,9999,9999,9999,2170344560
51,21,5,ISIP_5,118,9999,9999,9999,2170844252
51,21,5,ISIP_5,119,9999,9999,9999,2171344988
51,21,5,ISIP_5,120,9999,9999,9999,2171844680
51,21,5,ISIP_5,121,9999,9999,9999,2172344372
51,21,5,ISIP_5,122,9999,9999,9999,2172844112
51,21,5,ISIP_5,123,9999,9999,9999,2173344852
51,21,5,ISIP_5,124,9999,9999,9999,2173844540
51,21,5,ISIP_5,125,9999,9999,9999,2174344304
51,21,5,ISIP_5,126,9999,9999,9999,2174845044
51,21,5,ISIP_5,127,9999,9999,9999,2175344736
51,21,5,ISIP_5,128,9999,9999,9999,2175844424
51,21,5,ISIP_5,129,9999,9999,9999,2176344116
51,21,5,ISIP_5,130,9999,9999,9999,2176844852
51,21,5,ISIP_5,131,9999,9999,9999,2177344560
51,21,5,ISIP_5,132,9999,9999,9999,2177844328
51,21,5,ISIP_5,133,9999,9999,9999,2178345064
51,21,5,ISIP_5,134,9999,9999,9999,2178844756
51,21,5,ISIP_5,135,9999,9999,9999,2179344452
51,21,5,ISIP_5,136,9999,9999,9999,2179844144
51,21,5,ISIP_5,137,9999,9999,9999,2180344880
51,21,5,ISIP_5,138,9999,9999,9999,2180844648
51,21,5,ISIP_5,139,9999,9999,9999,2181344336
51,21,5,ISIP_5,140,9999,9999,9999,2181845076
51,21,5,ISIP_5,141,9999,9999,9999,2182344764
51,21,5,ISIP_5,142,9999,9999,9999,2182844532
51,21,5,ISIP_5,143,9999,9999,9999,2183344196
51,21,5,ISIP_5,144,9999,9999,9999,2183844936
51,21,5,ISIP_5,145,9999,9999,9999,2184344624
51,21,5,ISIP_5,146,9999,9999,9999,2184844392
51,21,5,ISIP_5,147,9999,9999,9999,2185344080
51,21,5,ISIP_5,148,9999,9999,9999,2185844820
51,21,5,ISIP_5,149,9999,9999,9999,2186344512
51,21,5,ISIP_5,150,9999,9999,9999,2186844276
51,21,5,ISIP_5,151,9999,9999,9999,2187345012
51,21,5,ISIP_5,152,9999,9999,9999,2187844704
51,21,5,ISIP_5,153,9999,9999,9999,2188344396
51,21,5,ISIP_5,154,9999,9999,9999,2188844084
51,21,5,ISIP_5,155,9999,9999,9999,2189344824
51,21,5,ISIP_5,156,9999,9999,9999,2189844588
51,21,5,ISIP_5,157,9999,9999,9999,2190344280
51,21,5,ISIP_5,158,9999,9999,9999,2190845016
51,21,5,ISIP_5,159,9999,9999,9999,2191344708
51,22,11,Pattern_Practice,0,5,42,127,2306129228
51,22,11,Pattern_Practice,1,5,42,127,2306628872
51,22,11,Pattern_Practice,2,5,42,127,2307128736
51,22,11,Pattern_Practice,3,5,42,127,2307629500
51,22,11,Pattern_Practice,4,5,42,127,2308129216
51,22,11,Pattern_Practice,5,5,42,127,2308628784
51,22,11,Pattern_Practice,6,5,42,127,2309128648
51,22,11,Pattern_Practice,7,5,42,127,2309629488
51,22,11,Pattern_Practice,8,5,42,127,2310128980
51,22,11,Pattern_Practice,9,1,48,37,2310177500
51,22,11,Pattern_Practice,10,1,48,45,2310422388
51,22,11,Pattern_Practice,11,5,42,127,2310628652
51,22,11,Pattern_Practice,12,1,38,45,2310681508
51,22,11,Pattern_Practice,13,1,48,40,2310898132
51,22,11,Pattern_Practice,14,5,42,127,2311128624
51,22,11,Pattern_Practice,15,1,38,51,2311177596
51,22,11,Pattern_Practice,16,1,38,54,2311620652
51,22,11,Pattern_Practice,17,5,42,127,2311629284
51,22,11,Pattern_Practice,18,5,42,127,2312128764
51,22,11,Pattern_Practice,19,1,48,50,2312133980
51,22,11,Pattern_Practice,20,1,48,43,2312370492
51,22,11,Pattern_Practice,21,5,42,127,2312628588
51,22,11,Pattern_Practice,22,1,38,56,2312650700
51,22,11,Pattern_Practice,23,1,48,48,2312878912
51,22,11,Pattern_Practice,24,1,38,62,2313126028
51,22,11,Pattern_Practice,25,5,42,127,2313129596
51,22,11,Pattern_Practice,26,5,42,127,2313628900
51,22,11,Pattern_Practice,27,1,38,61,2313648500
51,22,11,Pattern_Practice,28,5,42,127,2314128672
51,22,11,Pattern_Practice,29,1,48,48,2314155452
51,22,11,Pattern_Practice,30,1,48,49,2314384088
51,22,11,Pattern_Practice,31,5,42,127,2314628568
51,22,11,Pattern_Practice,32,1,38,54,2314629536
51,22,11,Pattern_Practice,33,1,48,46,2314882116
51,22,11,Pattern_Practice,34,5,42,127,2315129136
51,22,11,Pattern_Practice,35,1,38,53,2315131804
51,22,11,Pattern_Practice,36,1,38,26,2315408112
51,22,11,Pattern_Practice,37,1,38,52,2315622332
51,22,11,Pattern_Practice,38,5,42,127,2315628880
51,22,11,Pattern_Practice,39,1,38,53,2315861860
51,22,11,Pattern_Practice,40,5,42,127,2316128560
51,22,11,Pattern_Practice,41,1,48,49,2316139008
51,22,11,Pattern_Practice,42,1,48,47,2316359364
51,22,11,Pattern_Practice,43,1,38,65,2316596028
51,22,11,Pattern_Practice,44,5,42,127,2316629348
51,22,11,Pattern_Practice,45,1,48,51,2316837792
51,22,11,Pattern_Practice,46,1,38,62,2317102212
51,22,11,Pattern_Practice,47,5,42,127,2317129020
51,22,11,Pattern_Practice,48,5,42,127,2317628648
51,22,11,Pattern_Practice,49,1,38,59,2317638196
51,22,11,Pattern_Practice,50,1,48,48,2318085220
51,22,11,Pattern_Practice,51,5,42,127,2318128560
51,22,11,Pattern_Practice,52,1,48,46,2318327656
51,22,11,Pattern_Practice,53,1,48,52,2318563872
51,22,11,Pattern_Practice,54,5,42,127,2318629204
51,22,11,Pattern_Practice,55,1,48,52,2319099992
51,22,11,Pattern_Practice,56,5,42,127,2319128896
51,22,11,Pattern_Practice,57,1,48,42,2319348712
51,22,11,Pattern_Practice,58,1,48,51,2319584336
51,22,11,Pattern_Practice,59,5,42,127,2319628572
51,22,11,Pattern_Practice,60,1,48,55,2320123816
51,22,11,Pattern_Practice,61,5,42,127,2320129536
51,22,11,Pattern_Practice,62,1,48,57,2320494460
51,22,11,Pattern_Practice,63,5,42,127,2320629216
51,22,11,Pattern_Practice,64,1,38,56,2320646248
51,22,11,Pattern_Practice,65,1,48,51,2320869672
51,22,11,Pattern_Practice,66,5,42,127,2321128740
51,22,11,Pattern_Practice,67,1,48,56,2321418284
51,22,11,Pattern_Practice,68,5,42,127,2321628432
51,22,11,Pattern_Practice,69,1,38,64,2321662516
51,22,11,Pattern_Practice,70,1,38,61,2321921248
51,22,11,Pattern_Practice,71,5,42,127,2322129152
51,22,11,Pattern_Practice,72,1,48,52,2322166380
51,22,11,Pattern_Practice,73,1,48,58,2322514120
51,22,11,Pattern_Practice,74,5,42,127,2322628828
51,22,11,Pattern_Practice,75,1,38,69,2322634116
51,22,11,Pattern_Practice,76,1,48,58,2322906752
51,22,11,Pattern_Practice,77,5,42,127,2323128648
51,22,11,Pattern_Practice,78,1,48,54,2323360348
51,22,11,Pattern_Practice,79,1,38,71,2323595668
51,22,11,Pattern_Practice,80,5,42,127,2323629308
51,22,11,Pattern_Practice,81,1,38,48,2323853516
51,22,11,Pattern_Practice,82,1,48,59,2324127292
51,22,11,Pattern_Practice,83,5,42,127,2324129028
51,22,11,Pattern_Practice,84,1,48,61,2324513056
51,22,11,Pattern_Practice,85,5,42,127,2324628708
51,22,11,Pattern_Practice,86,1,38,61,2324637288
51,22,11,Pattern_Practice,87,1,48,59,2324911748
51,22,11,Pattern_Practice,88,5,42,127,2325128460
51,22,11,Pattern_Practice,89,1,48,56,2325366764
51,22,11,Pattern_Practice,90,1,38,73,2325592052
51,22,11,Pattern_Practice,91,5,42,127,2325629192
51,22,11,Pattern_Practice,92,1,38,60,2325818420
51,22,11,Pattern_Practice,93,1,48,66,2326084852
51,22,11,Pattern_Practice,94,1,38,60,2326108540
51,22,11,Pattern_Practice,95,5,42,127,2326129292
51,22,11,Pattern_Practice,96,1,38,66,2326575908
51,22,11,Pattern_Practice,97,1,48,66,2326586360
51,22,11,Pattern_Practice,98,5,42,127,2326628656
51,22,11,Pattern_Practice,99,1,38,64,2327074884
51,22,11,Pattern_Practice,100,1,48,59,2327091244
51,22,11,Pattern_Practice,101,5,42,127,2327128304
51,22,11,Pattern_Practice,102,1,38,60,2327591728
51,22,11,Pattern_Practice,103,1,48,59,2327615052
51,22,11,Pattern_Practice,104,5,42,127,2327629292
51,22,11,Pattern_Practice,105,1,38,70,2328092128
51,22,11,Pattern_Practice,106,5,42,127,2328128812
51,22,11,Pattern_Practice,107,1,38,55,2328329928
51,22,11,Pattern_Practice,108,1,48,62,2328585592
51,22,11,Pattern_Practice,109,5,42,127,2328628560
51,22,11,Pattern_Practice,110,5,42,127,2329129308
51,22,11,Pattern_Practice,111,1,48,62,2329298504
51,22,11,Pattern_Practice,112,1,38,57,2329551620
51,22,11,Pattern_Practice,113,5,42,127,2329629220
51,22,11,Pattern_Practice,114,1,48,47,2330122672
51,22,11,Pattern_Practice,115,5,42,127,2330128764
51,22,11,Pattern_Practice,116,5,42,127,2330628320
51,22,11,Pattern_Practice,117,1,48,53,2330632336
51,22,11,Pattern_Practice,118,1,48,60,2331129132
51,22,11,Pattern_Practice,119,5,42,127,2331130544
51,22,11,Pattern_Practice,120,1,48,57,2331383648
51,22,11,Pattern_Practice,121,1,38,67,2331592716
51,22,11,Pattern_Practice,122,5,42,127,2331629096
51,22,11,Pattern_Practice,123,1,48,53,2332100936
51,22,11,Pattern_Practice,124,5,42,127,2332128568
51,22,11,Pattern_Practice,125,1,48,54,2332607664
51,22,11,Pattern_Practice,126,5,42,127,2332629312
51,22,11,Pattern_Practice,127,1,48,57,2333099576
51,22,11,Pattern_Practice,128,5,42,127,2333129232
51,22,11,Pattern_Practice,129,1,48,57,2333341392
51,22,11,Pattern_Practice,130,1,38,62,2333584340
51,22,11,Pattern_Practice,131,5,42,127,2333629052
51,22,11,Pattern_Practice,132,1,48,59,2334100940
51,22,11,Pattern_Practice,133,5,42,127,2334128600
51,22,11,Pattern_Practice,134,1,48,53,2334336872
51,22,11,Pattern_Practice,135,1,38,64,2334573164
51,22,11,Pattern_Practice,136,1,48,60,2334593860
51,22,11,Pattern_Practice,137,5,42,127,2334629276
51,22,11,Pattern_Practice,138,1,48,52,2334817048
51,22,11,Pattern_Practice,139,1,48,52,2335072936
51,22,11,Pattern_Practice,140,5,42,127,2335129140
51,22,11,Pattern_Practice,141,1,48,52,2335312984
51,22,11,Pattern_Practice,142,1,48,60,2335556756
51,22,11,Pattern_Practice,143,1,38,59,2335562192
51,22,11,Pattern_Practice,144,5,42,127,2335628572
51,22,11,Pattern_Practice,145,1,48,51,2335818216
51,22,11,Pattern_Practice,146,1,48,51,2336082256
51,22,11,Pattern_Practice,147,5,42,127,2336129412
51,22,11,Pattern_Practice,148,1,48,51,2336333596
51,22,11,Pattern_Practice,149,1,48,62,2336612896
51,22,11,Pattern_Practice,150,1,38,53,2336613552
51,22,11,Pattern_Practice,151,5,42,127,2336629212
51,22,11,Pattern_Practice,152,1,48,54,2337083448
51,22,11,Pattern_Practice,153,5,42,127,2337129104
51,22,11,Pattern_Practice,154,1,48,53,2337619788
51,22,11,Pattern_Practice,155,5,42,127,2337628576
51,22,11,Pattern_Practice,156,1,48,54,2338109612
51,22,11,Pattern_Practice,157,5,42,127,2338129316
51,22,11,Pattern_Practice,158,5,42,127,2338628944
51,22,11,Pattern_Practice,159,1,48,63,2338629912
51,22,11,Pattern_Practice,160,1,38,52,2338650384
51,22,11,Pattern_Practice,161,1,48,51,2339128840
51,22,11,Pattern_Practice,162,5,42,127,2339130176
51,22,11,Pattern_Practice,163,1,48,51,2339395628
51,22,11,Pattern_Practice,164,5,42,127,2339629312
51,22,11,Pattern_Practice,165,1,38,64,2339634972
51,22,11,Pattern_Practice,166,1,48,59,2339640788
51,22,11,Pattern_Practice,167,5,42,127,2340129184
51,22,11,Pattern_Practice,168,1,48,54,2340313860
51,22,11,Pattern_Practice,169,1,48,54,2340552688
51,22,11,Pattern_Practice,170,5,42,127,2340629020
51,22,11,Pattern_Practice,171,1,48,53,2340832384
51,22,11,Pattern_Practice,172,1,48,47,2341096576
51,22,11,Pattern_Practice,173,5,42,127,2341128840
51,22,11,Pattern_Practice,174,1,48,57,2341595816
51,22,11,Pattern_Practice,175,1,38,58,2341596472
51,22,11,Pattern_Practice,176,5,42,127,2341629264
51,22,11,Pattern_Practice,177,1,48,53,2342105636
51,22,11,Pattern_Practice,178,5,42,127,2342129008
51,22,11,Pattern_Practice,179,1,38,58,2342608924
51,22,11,Pattern_Practice,180,1,48,57,2342617208
51,22,11,Pattern_Practice,181,5,42,127,2342628756
51,22,11,Pattern_Practice,182,1,48,58,2343122256
51,22,11,Pattern_Practice,183,5,42,127,2343128348
51,22,11,Pattern_Practice,184,1,48,59,2343628416
51,22,11,Pattern_Practice,185,5,42,127,2343629916
51,22,11,Pattern_Practice,186,1,38,62,2343634676
51,22,11,Pattern_Practice,187,5,42,127,2344128832
51,22,11,Pattern_Practice,188,1,48,56,2344133000
51,22,11,Pattern_Practice,189,1,48,50,2344368912
51,22,11,Pattern_Practice,190,1,38,53,2344592308
51,22,11,Pattern_Practice,191,5,42,127,2344628572
51,22,11,Pattern_Practice,192,1,48,61,2344838492
51,22,11,Pattern_Practice,193,1,48,54,2345120480
51,22,11,Pattern_Practice,194,5,42,127,2345129440
51,22,11,Pattern_Practice,195,1,38,66,2345602448
51,22,11,Pattern_Practice,196,1,48,56,2345621276
51,22,11,Pattern_Practice,197,5,42,127,2345629016
51,22,11,Pattern_Practice,0,9999,9999,9999,2306126944
51,22,11,Pattern_Practice,1,9999,9999,9999,2306626660
51,22,11,Pattern_Practice,2,9999,9999,9999,2307126376
51,22,11,Pattern_Practice,3,9999,9999,9999,2307627064
51,22,11,Pattern_Practice,4,9999,9999,9999,2308126780
51,22,11,Pattern_Practice,5,9999,9999,9999,2308626500
51,22,11,Pattern_Practice,6,9999,9999,9999,2309126216
51,22,11,Pattern_Practice,7,9999,9999,9999,2309626976
51,22,11,Pattern_Practice,8,9999,9999,9999,2310126692
51,22,11,Pattern_Practice,9,9999,9999,9999,2310626368
51,22,11,Pattern_Practice,10,9999,9999,9999,2311126116
51,22,11,Pattern_Practice,11,9999,9999,9999,2311626852
51,22,11,Pattern_Practice,12,9999,9999,9999,2312126552
51,22,11,Pattern_Practice,13,9999,9999,9999,2312626224
51,22,11,Pattern_Practice,14,9999,9999,9999,2313126988
51,22,11,Pattern_Practice,15,9999,9999,9999,2313626688
51,22,11,Pattern_Practice,16,9999,9999,9999,2314126384
51,22,11,Pattern_Practice,17,9999,9999,9999,2314626132
51,22,11,Pattern_Practice,18,9999,9999,9999,2315126852
51,22,11,Pattern_Practice,19,9999,9999,9999,2315626592
51,22,11,Pattern_Practice,20,9999,9999,9999,2316126276
51,22,11,Pattern_Practice,21,9999,9999,9999,2316627060
51,22,11,Pattern_Practice,22,9999,9999,9999,2317126732
51,22,11,Pattern_Practice,23,9999,9999,9999,2317626432
51,22,11,Pattern_Practice,24,9999,9999,9999,2318126196
51,22,11,Pattern_Practice,25,9999,9999,9999,2318626916
51,22,11,Pattern_Practice,26,9999,9999,9999,2319126612
51,22,11,Pattern_Practice,27,9999,9999,9999,2319626360
51,22,11,Pattern_Practice,28,9999,9999,9999,2320127028
51,22,11,Pattern_Practice,29,9999,9999,9999,2320626780
51,22,11,Pattern_Practice,30,9999,9999,9999,2321126452
51,22,11,Pattern_Practice,31,9999,9999,9999,2321626220
51,22,11,Pattern_Practice,32,9999,9999,9999,2322126940
51,22,11,Pattern_Practice,33,9999,9999,9999,2322626616
51,22,11,Pattern_Practice,34,9999,9999,9999,2323126360
51,22,11,Pattern_Practice,35,9999,9999,9999,2323627096
51,22,11,Pattern_Practice,36,9999,9999,9999,2324126768
51,22,11,Pattern_Practice,37,9999,9999,9999,2324626496
51,22,11,Pattern_Practice,38,9999,9999,9999,2325126244
51,22,11,Pattern_Practice,39,9999,9999,9999,2325626980
51,22,11,Pattern_Practice,40,9999,9999,9999,2326126708
51,22,11,Pattern_Practice,41,9999,9999,9999,2326626368
51,22,11,Pattern_Practice,42,9999,9999,9999,2327126092
51,22,11,Pattern_Practice,43,9999,9999,9999,2327626860
51,22,11,Pattern_Practice,44,9999,9999,9999,2328126528
51,22,11,Pattern_Practice,45,9999,9999,9999,2328626272
51,22,11,Pattern_Practice,46,9999,9999,9999,2329127020
51,22,11,Pattern_Practice,47,9999,9999,9999,2329626708
51,22,11,Pattern_Practice,48,9999,9999,9999,2330126404
51,22,11,Pattern_Practice,49,9999,9999,9999,2330626108
51,22,11,Pattern_Practice,50,9999,9999,9999,2331126848
51,22,11,Pattern_Practice,51,9999,9999,9999,2331626588
51,22,11,Pattern_Practice,52,9999,9999,9999,2332126284
51,22,11,Pattern_Practice,53,9999,9999,9999,2332627024
51,22,11,Pattern_Practice,54,9999,9999,9999,2333126720
51,22,11,Pattern_Practice,55,9999,9999,9999,2333626468
51,22,11,Pattern_Practice,56,9999,9999,9999,2334126164
51,22,11,Pattern_Practice,57,9999,9999,9999,2334626912
51,22,11,Pattern_Practice,58,9999,9999,9999,2335126632
51,22,11,Pattern_Practice,59,9999,9999,9999,2335626360
51,22,11,Pattern_Practice,60,9999,9999,9999,2336127052
51,22,11,Pattern_Practice,61,9999,9999,9999,2336626780
51,22,11,Pattern_Practice,62,9999,9999,9999,2337126520
51,22,11,Pattern_Practice,63,9999,9999,9999,2337626216
51,22,11,Pattern_Practice,64,9999,9999,9999,2338126956
51,22,11,Pattern_Practice,65,9999,9999,9999,2338626660
51,22,11,Pattern_Practice,66,9999,9999,9999,2339126332
51,22,11,Pattern_Practice,67,9999,9999,9999,2339627100
51,22,11,Pattern_Practice,68,9999,9999,9999,2340126824
51,22,11,Pattern_Practice,69,9999,9999,9999,2340626512
51,22,11,Pattern_Practice,70,9999,9999,9999,2341126256
51,22,11,Pattern_Practice,71,9999,9999,9999,2341626980
51,22,11,Pattern_Practice,72,9999,9999,9999,2342126644
51,22,11,Pattern_Practice,73,9999,9999,9999,2342626396
51,22,11,Pattern_Practice,74,9999,9999,9999,2343126136
51,22,11,Pattern_Practice,75,9999,9999,9999,2343626812
51,22,11,Pattern_Practice,76,9999,9999,9999,2344126548
51,22,11,Pattern_Practice,77,9999,9999,9999,2344626288
51,22,11,Pattern_Practice,78,9999,9999,9999,2345127004
51,22,11,Pattern_Practice,79,9999,9999,9999,2345626728
51,23,13,Improv_Metronome,0,5,42,127,2374158900
51,23,13,Improv_Metronome,1,5,42,127,2374658396
51,23,13,Improv_Metronome,2,5,42,127,2375159084
51,23,13,Improv_Metronome,3,5,42,127,2375659024
51,23,13,Improv_Metronome,4,5,42,127,2376158444
51,23,13,Improv_Metronome,5,1,48,41,2376178016
51,23,13,Improv_Metronome,6,1,48,55,2376647548
51,23,13,Improv_Metronome,7,1,38,57,2376648128
51,23,13,Improv_Metronome,8,5,42,127,2376659156
51,23,13,Improv_Metronome,9,1,48,55,2377158684
51,23,13,Improv_Metronome,10,5,42,127,2377160168
51,23,13,Improv_Metronome,11,1,48,60,2377642624
51,23,13,Improv_Metronome,12,1,38,60,2377648664
51,23,13,Improv_Metronome,13,5,42,127,2377659168
51,23,13,Improv_Metronome,14,5,42,127,2378158320
51,23,13,Improv_Metronome,15,1,48,54,2378164432
51,23,13,Improv_Metronome,16,1,48,57,2378640072
51,23,13,Improv_Metronome,17,1,38,68,2378644464
51,23,13,Improv_Metronome,18,5,42,127,2378659084
51,23,13,Improv_Metronome,19,1,48,51,2379155928
51,23,13,Improv_Metronome,20,5,42,127,2379159024
51,23,13,Improv_Metronome,21,1,48,59,2379643280
51,23,13,Improv_Metronome,22,1,38,63,2379652760
51,23,13,Improv_Metronome,23,5,42,127,2379658552
51,23,13,Improv_Metronome,24,1,48,54,2380148388
51,23,13,Improv_Metronome,25,5,42,127,2380159268
51,23,13,Improv_Metronome,26,1,48,53,2380402120
51,23,13,Improv_Metronome,27,1,38,79,2380631676
51,23,13,Improv_Metronome,28,5,42,127,2380659012
51,23,13,Improv_Metronome,29,1,48,55,2380882792
51,23,13,Improv_Metronome,30,1,48,52,2381147432
51,23,13,Improv_Metronome,31,5,42,127,2381158984
51,23,13,Improv_Metronome,32,1,48,56,2381377528
51,23,13,Improv_Metronome,33,1,38,69,2381627056
51,23,13,Improv_Metronome,34,5,42,127,2381658584
51,23,13,Improv_Metronome,35,1,48,58,2381881764
51,23,13,Improv_Metronome,36,1,48,54,2382153884
51,23,13,Improv_Metronome,37,5,42,127,2382159300
51,23,13,Improv_Metronome,38,1,48,56,2382373808
51,23,13,Improv_Metronome,39,1,38,62,2382632240
51,23,13,Improv_Metronome,40,5,42,127,2382659048
51,23,13,Improv_Metronome,41,1,48,57,2382885228
51,23,13,Improv_Metronome,42,1,48,56,2383153756
51,23,13,Improv_Metronome,43,5,42,127,2383158872
51,23,13,Improv_Metronome,44,1,48,47,2383351988
51,23,13,Improv_Metronome,45,1,48,59,2383597104
51,23,13,Improv_Metronome,46,1,38,72,2383602616
51,23,13,Improv_Metronome,47,5,42,127,2383659276
51,23,13,Improv_Metronome,48,1,48,59,2383816680
51,23,13,Improv_Metronome,49,1,38,43,2383823544
51,23,13,Improv_Metronome,50,1,48,60,2384070276
51,23,13,Improv_Metronome,51,5,42,127,2384159096
51,23,13,Improv_Metronome,52,1,48,48,2384328648
51,23,13,Improv_Metronome,53,1,38,65,2384589996
51,23,13,Improv_Metronome,54,1,48,54,2384611372
51,23,13,Improv_Metronome,55,5,42,127,2384658972
51,23,13,Improv_Metronome,56,1,48,53,2384861336
51,23,13,Improv_Metronome,57,1,48,47,2385113856
51,23,13,Improv_Metronome,58,5,42,127,2385158768
51,23,13,Improv_Metronome,59,1,48,51,2385355696
51,23,13,Improv_Metronome,60,1,38,60,2385598416
51,23,13,Improv_Metronome,61,1,48,62,2385609392
51,23,13,Improv_Metronome,62,5,42,127,2385659172
51,23,13,Improv_Metronome,63,1,48,55,2385850312
51,23,13,Improv_Metronome,64,1,48,50,2386093932
51,23,13,Improv_Metronome,65,5,42,127,2386158968
51,23,13,Improv_Metronome,66,1,48,53,2386334032
51,23,13,Improv_Metronome,67,1,38,60,2386577052
51,23,13,Improv_Metronome,68,1,48,61,2386589668
51,23,13,Improv_Metronome,69,5,42,127,2386658692
51,23,13,Improv_Metronome,70,1,48,54,2386831484
51,23,13,Improv_Metronome,71,1,48,51,2387099632
51,23,13,Improv_Metronome,72,5,42,127,2387159456
51,23,13,Improv_Metronome,73,1,48,54,2387349780
51,23,13,Improv_Metronome,74,1,48,64,2387623048
51,23,13,Improv_Metronome,75,1,38,51,2387639484
51,23,13,Improv_Metronome,76,5,42,127,2387659112
51,23,13,Improv_Metronome,77,1,38,56,2387838188
51,23,13,Improv_Metronome,78,1,48,65,2387875268
51,23,13,Improv_Metronome,79,1,48,60,2388153520
51,23,13,Improv_Metronome,80,5,42,127,2388158784
51,23,13,Improv_Metronome,81,1,38,63,2388639796
51,23,13,Improv_Metronome,82,1,48,67,2388645496
51,23,13,Improv_Metronome,83,5,42,127,2388658620
51,23,13,Improv_Metronome,84,1,48,58,2389139828
51,23,13,Improv_Metronome,85,5,42,127,2389159184
51,23,13,Improv_Metronome,86,1,48,60,2389650892
51,23,13,Improv_Metronome,87,1,38,62,2389654164
51,23,13,Improv_Metronome,88,5,42,127,2389658836
51,23,13,Improv_Metronome,89,1,48,60,2390150316
51,23,13,Improv_Metronome,90,5,42,127,2390158576
51,23,13,Improv_Metronome,91,1,48,62,2390644104
51,23,13,Improv_Metronome,92,1,38,63,2390652984
51,23,13,Improv_Metronome,93,5,42,127,2390658624
51,23,13,Improv_Metronome,94,1,48,60,2391144420
51,23,13,Improv_Metronome,95,5,42,127,2391159116
51,23,13,Improv_Metronome,96,1,38,64,2391624748
51,23,13,Improv_Metronome,97,5,42,127,2391658736
51,23,13,Improv_Metronome,98,1,38,68,2391853128
51,23,13,Improv_Metronome,99,1,48,61,2392128536
51,23,13,Improv_Metronome,100,5,42,127,2392158560
51,23,13,Improv_Metronome,101,1,38,71,2392624192
51,23,13,Improv_Metronome,102,1,48,61,2392631944
51,23,13,Improv_Metronome,103,5,42,127,2392659504
51,23,13,Improv_Metronome,104,1,48,57,2393131984
51,23,13,Improv_Metronome,105,5,42,127,2393159024
51,23,13,Improv_Metronome,106,1,38,58,2393629508
51,23,13,Improv_Metronome,107,1,48,65,2393634356
51,23,13,Improv_Metronome,108,5,42,127,2393658624
51,23,13,Improv_Metronome,109,1,48,54,2394144420
51,23,13,Improv_Metronome,110,5,42,127,2394158588
51,23,13,Improv_Metronome,111,1,38,70,2394603052
51,23,13,Improv_Metronome,112,1,48,60,2394634300
51,23,13,Improv_Metronome,113,5,42,127,2394659164
51,23,13,Improv_Metronome,114,1,48,57,2395124092
51,23,13,Improv_Metronome,115,5,42,127,2395158828
51,23,13,Improv_Metronome,116,1,48,61,2395656412
51,23,13,Improv_Metronome,117,5,42,127,2395658524
51,23,13,Improv_Metronome,118,1,48,54,2395884776
51,23,13,Improv_Metronome,119,1,48,56,2396120464
51,23,13,Improv_Metronome,120,5,42,127,2396159540
51,23,13,Improv_Metronome,121,1,48,67,2396619704
51,23,13,Improv_Metronome,122,1,38,53,2396624624
51,23,13,Improv_Metronome,123,5,42,127,2396658992
51,23,13,Improv_Metronome,124,1,48,56,2397130648
51,23,13,Improv_Metronome,125,5,42,127,2397158736
51,23,13,Improv_Metronome,126,1,48,64,2397647324
51,23,13,Improv_Metronome,127,1,38,56,2397650668
51,23,13,Improv_Metronome,128,5,42,127,2397658412
51,23,13,Improv_Metronome,129,1,48,57,2398151532
51,23,13,Improv_Metronome,130,5,42,127,2398159420
51,23,13,Improv_Metronome,131,1,38,63,2398640080
51,23,13,Improv_Metronome,132,1,48,63,2398644928
51,23,13,Improv_Metronome,133,5,42,127,2398658948
51,23,13,Improv_Metronome,134,1,48,57,2399143024
51,23,13,Improv_Metronome,135,5,42,127,2399158540
51,23,13,Improv_Metronome,136,1,48,60,2399625112
51,23,13,Improv_Metronome,137,1,38,56,2399651200
51,23,13,Improv_Metronome,138,5,42,127,2399659632
51,23,13,Improv_Metronome,139,1,38,54,2399872520
51,23,13,Improv_Metronome,140,1,48,60,2399892844
51,23,13,Improv_Metronome,141,1,48,58,2400142792
51,23,13,Improv_Metronome,142,5,42,127,2400159280
51,23,13,Improv_Metronome,143,1,38,65,2400630516
51,23,13,Improv_Metronome,144,1,48,53,2400633716
51,23,13,Improv_Metronome,145,5,42,127,2400658880
51,23,13,Improv_Metronome,146,5,42,127,2401158408
51,23,13,Improv_Metronome,147,1,48,57,2401159372
51,23,13,Improv_Metronome,148,1,48,62,2401653200
51,23,13,Improv_Metronome,149,1,38,57,2401656396
51,23,13,Improv_Metronome,150,5,42,127,2401659568
51,23,13,Improv_Metronome,151,1,48,55,2402146188
51,23,13,Improv_Metronome,152,5,42,127,2402158936
51,23,13,Improv_Metronome,153,1,48,63,2402638404
51,23,13,Improv_Metronome,154,1,38,51,2402641596
51,23,13,Improv_Metronome,155,5,42,127,2402658540
51,23,13,Improv_Metronome,156,1,48,62,2403120620
51,23,13,Improv_Metronome,157,5,42,127,2403159476
51,23,13,Improv_Metronome,158,1,38,61,2403643352
51,23,13,Improv_Metronome,159,5,42,127,2403659392
51,23,13,Improv_Metronome,160,1,38,52,2403893280
51,23,13,Improv_Metronome,161,1,38,62,2404129416
51,23,13,Improv_Metronome,162,5,42,127,2404158772
51,23,13,Improv_Metronome,163,1,48,62,2404639060
51,23,13,Improv_Metronome,164,5,42,127,2404658392
51,23,13,Improv_Metronome,165,5,42,127,2405159512
51,23,13,Improv_Metronome,166,1,48,64,2405360796
51,23,13,Improv_Metronome,167,1,38,58,2405607180
51,23,13,Improv_Metronome,168,5,42,127,2405659200
51,23,13,Improv_Metronome,169,1,38,65,2406154452
51,23,13,Improv_Metronome,170,5,42,127,2406158672
51,23,13,Improv_Metronome,171,1,48,59,2406581960
51,23,13,Improv_Metronome,172,5,42,127,2406658516
51,23,13,Improv_Metronome,173,5,42,127,2407159412
51,23,13,Improv_Metronome,174,1,48,62,2407446864
51,23,13,Improv_Metronome,175,5,42,127,2407658812
51,23,13,Improv_Metronome,176,1,38,64,2407672548
51,23,13,Improv_Metronome,177,1,38,68,2408155328
51,23,13,Improv_Metronome,178,5,42,127,2408158500
51,23,13,Improv_Metronome,179,1,48,66,2408635648
51,23,13,Improv_Metronome,180,5,42,127,2408659316
51,23,13,Improv_Metronome,181,5,42,127,2409159312
51,23,13,Improv_Metronome,182,1,48,64,2409413708
51,23,13,Improv_Metronome,183,1,38,57,2409644608
51,23,13,Improv_Metronome,184,5,42,127,2409658780
51,23,13,Improv_Metronome,185,1,38,68,2410132688
51,23,13,Improv_Metronome,186,5,42,127,2410158472
51,23,13,Improv_Metronome,187,1,38,74,2410618616
51,23,13,Improv_Metronome,188,1,48,66,2410648140
51,23,13,Improv_Metronome,189,5,42,127,2410659392
51,23,13,Improv_Metronome,190,1,38,62,2411108736
51,23,13,Improv_Metronome,191,1,48,58,2411120760
51,23,13,Improv_Metronome,192,5,42,127,2411159236
51,23,13,Improv_Metronome,193,1,38,51,2411607340
51,23,13,Improv_Metronome,194,1,48,59,2411637760
51,23,13,Improv_Metronome,195,5,42,127,2411658664
51,23,13,Improv_Metronome,196,1,38,58,2412086644
51,23,13,Improv_Metronome,197,1,48,58,2412116244
51,23,13,Improv_Metronome,198,5,42,127,2412159284
51,23,13,Improv_Metronome,199,1,48,56,2412616368
51,23,13,Improv_Metronome,200,5,42,127,2412659112
51,23,13,Improv_Metronome,201,1,48,53,2412879980
51,23,13,Improv_Metronome,202,1,38,63,2413117540
51,23,13,Improv_Metronome,203,5,42,127,2413158784
51,23,13,Improv_Metronome,204,5,42,127,2413658560
51,23,13,Improv_Metronome,205,1,48,62,2413869640
51,23,13,Improv_Metronome,206,1,38,62,2414117976
51,23,13,Improv_Metronome,207,5,42,127,2414159148
51,23,13,Improv_Metronome,208,1,48,53,2414369388
51,23,13,Improv_Metronome,209,1,48,54,2414629992
51,23,13,Improv_Metronome,210,5,42,127,2414659044
51,23,13,Improv_Metronome,211,1,48,52,2414848048
51,23,13,Improv_Metronome,212,1,38,61,2415101016
51,23,13,Improv_Metronome,213,5,42,127,2415158492
51,23,13,Improv_Metronome,214,5,42,127,2415659316
51,23,13,Improv_Metronome,215,1,48,56,2415845788
51,23,13,Improv_Metronome,216,1,38,63,2416091724
51,23,13,Improv_Metronome,217,5,42,127,2416159004
51,23,13,Improv_Metronome,218,1,48,57,2416388544
51,23,13,Improv_Metronome,219,1,48,53,2416640464
51,23,13,Improv_Metronome,220,5,42,127,2416658900
51,23,13,Improv_Metronome,221,1,48,54,2416869068
51,23,13,Improv_Metronome,222,1,38,56,2417079852
51,23,13,Improv_Metronome,223,5,42,127,2417158500
51,23,13,Improv_Metronome,224,1,48,55,2417373076
51,23,13,Improv_Metronome,225,1,48,54,2417612508
51,23,13,Improv_Metronome,226,5,42,127,2417659292
51,23,13,Improv_Metronome,227,1,38,70,2418081732
51,23,13,Improv_Metronome,228,5,42,127,2418158912
51,23,13,Improv_Metronome,229,1,48,58,2418624168
51,23,13,Improv_Metronome,230,5,42,127,2418658532
51,23,13,Improv_Metronome,231,1,48,51,2418859796
51,23,13,Improv_Metronome,232,1,38,64,2419081924
51,23,13,Improv_Metronome,233,1,48,64,2419113808
51,23,13,Improv_Metronome,234,5,42,127,2419159468
51,23,13,Improv_Metronome,235,1,38,52,2419341160
51,23,13,Improv_Metronome,236,1,48,51,2419344440
51,23,13,Improv_Metronome,237,1,38,51,2419536116
51,23,13,Improv_Metronome,238,1,48,55,2419553600
51,23,13,Improv_Metronome,239,5,42,127,2419659076
51,23,13,Improv_Metronome,240,1,38,49,2419757936
51,23,13,Improv_Metronome,241,1,48,54,2419792396
51,23,13,Improv_Metronome,242,1,38,48,2420018500
51,23,13,Improv_Metronome,243,1,48,57,2420034264
51,23,13,Improv_Metronome,244,5,42,127,2420158904
51,23,13,Improv_Metronome,245,1,38,45,2420293748
51,23,13,Improv_Metronome,246,1,48,56,2420305840
51,23,13,Improv_Metronome,247,1,48,62,2420627220
51,23,13,Improv_Metronome,248,5,42,127,2420658468
51,23,13,Improv_Metronome,249,1,48,52,2420852984
51,23,13,Improv_Metronome,250,1,38,67,2421112752
51,23,13,Improv_Metronome,251,5,42,127,2421159192
51,23,13,Improv_Metronome,252,5,42,127,2421658944
51,23,13,Improv_Metronome,253,1,48,63,2421851624
51,23,13,Improv_Metronome,254,1,38,57,2422060088
51,23,13,Improv_Metronome,255,5,42,127,2422158688
51,23,13,Improv_Metronome,256,1,48,64,2422341272
51,23,13,Improv_Metronome,257,1,48,55,2422596788
51,23,13,Improv_Metronome,258,5,42,127,2422658376
51,23,13,Improv_Metronome,259,1,48,56,2422820524
51,23,13,Improv_Metronome,260,1,38,72,2423095108
51,23,13,Improv_Metronome,261,5,42,127,2423159096
51,23,13,Improv_Metronome,262,5,42,127,2423658872
51,23,13,Improv_Metronome,263,1,48,62,2423904440
51,23,13,Improv_Metronome,264,1,38,57,2424142592
51,23,13,Improv_Metronome,265,5,42,127,2424158564
51,23,13,Improv_Metronome,266,1,48,62,2424391616
51,23,13,Improv_Metronome,267,1,48,54,2424630648
51,23,13,Improv_Metronome,268,5,42,127,2424659332
51,23,13,Improv_Metronome,269,1,48,51,2424846088
51,23,13,Improv_Metronome,270,1,38,72,2425122996
51,23,13,Improv_Metronome,271,5,42,127,2425159004
51,23,13,Improv_Metronome,272,1,38,38,2425185520
51,23,13,Improv_Metronome,273,5,42,127,2425658760
51,23,13,Improv_Metronome,274,1,48,63,2425909104
51,23,13,Improv_Metronome,275,1,38,62,2426150112
51,23,13,Improv_Metronome,276,5,42,127,2426158296
51,23,13,Improv_Metronome,277,1,48,61,2426393296
51,23,13,Improv_Metronome,278,1,38,54,2426652028
51,23,13,Improv_Metronome,279,5,42,127,2426659240
51,23,13,Improv_Metronome,280,1,38,68,2427155312
51,23,13,Improv_Metronome,281,5,42,127,2427158936
51,23,13,Improv_Metronome,282,5,42,127,2427658564
51,23,13,Improv_Metronome,283,1,38,62,2427680232
51,23,13,Improv_Metronome,284,1,38,42,2427713272
51,23,13,Improv_Metronome,285,5,42,127,2428159408
51,23,13,Improv_Metronome,286,1,38,57,2428179584
51,23,13,Improv_Metronome,287,1,48,58,2428632056
51,23,13,Improv_Metronome,288,5,42,127,2428659020
51,23,13,Improv_Metronome,289,1,48,54,2428899336
51,23,13,Improv_Metronome,290,1,38,60,2429112280
51,23,13,Improv_Metronome,291,5,42,127,2429158768
51,23,13,Improv_Metronome,292,1,48,62,2429374324
51,23,13,Improv_Metronome,293,1,48,56,2429649800
51,23,13,Improv_Metronome,294,5,42,127,2429658592
51,23,13,Improv_Metronome,295,1,48,53,2429863524
51,23,13,Improv_Metronome,296,1,38,59,2430086996
51,23,13,Improv_Metronome,297,1,38,24,2430152444
51,23,13,Improv_Metronome,298,5,42,127,2430159140
51,23,13,Improv_Metronome,299,1,48,62,2430332184
51,23,13,Improv_Metronome,300,1,48,57,2430593384
51,23,13,Improv_Metronome,301,5,42,127,2430658884
51,23,13,Improv_Metronome,302,1,38,67,2430915956
51,23,13,Improv_Metronome,303,1,38,28,2430972624
51,23,13,Improv_Metronome,304,5,42,127,2431158620
51,23,13,Improv_Metronome,305,1,38,58,2431179092
51,23,13,Improv_Metronome,306,1,38,59,2431417924
51,23,13,Improv_Metronome,307,5,42,127,2431659488
51,23,13,Improv_Metronome,308,1,48,59,2431660456
51,23,13,Improv_Metronome,309,1,48,51,2431909220
51,23,13,Improv_Metronome,310,1,38,60,2432137556
51,23,13,Improv_Metronome,311,5,42,127,2432159056
51,23,13,Improv_Metronome,312,1,48,53,2432415152
51,23,13,Improv_Metronome,313,5,42,127,2432658736
51,23,13,Improv_Metronome,314,1,48,46,2432672928
51,23,13,Improv_Metronome,315,1,48,52,2432890660
51,23,13,Improv_Metronome,316,1,38,59,2433074748
51,23,13,Improv_Metronome,317,5,42,127,2433158628
51,23,13,Improv_Metronome,318,1,38,48,2433353460
51,23,13,Improv_Metronome,319,1,48,64,2433633732
51,23,13,Improv_Metronome,320,5,42,127,2433659344
51,23,13,Improv_Metronome,321,1,48,53,2433882680
51,23,13,Improv_Metronome,322,1,38,57,2434109020
51,23,13,Improv_Metronome,323,5,42,127,2434158944
51,23,13,Improv_Metronome,324,1,48,51,2434406736
51,23,13,Improv_Metronome,325,1,48,48,2434653720
51,23,13,Improv_Metronome,326,5,42,127,2434658540
51,23,13,Improv_Metronome,327,1,48,52,2434888008
51,23,13,Improv_Metronome,328,1,38,62,2435071488
51,23,13,Improv_Metronome,329,5,42,127,2435159556
51,23,13,Improv_Metronome,330,1,38,50,2435319760
51,23,13,Improv_Metronome,331,1,48,57,2435593148
51,23,13,Improv_Metronome,332,5,42,127,2435659080
51,23,13,Improv_Metronome,333,1,48,57,2435866036
51,23,13,Improv_Metronome,334,1,38,60,2436092448
51,23,13,Improv_Metronome,335,5,42,127,2436158904
51,23,13,Improv_Metronome,336,1,48,56,2436376104
51,23,13,Improv_Metronome,337,1,48,48,2436636252
51,23,13,Improv_Metronome,338,5,42,127,2436658728
51,23,13,Improv_Metronome,339,1,48,54,2436867776
51,23,13,Improv_Metronome,340,1,38,52,2437091120
51,23,13,Improv_Metronome,341,5,42,127,2437159300
51,23,13,Improv_Metronome,342,1,38,53,2437342088
51,23,13,Improv_Metronome,343,1,48,69,2437587952
51,23,13,Improv_Metronome,344,1,38,69,2437596084
51,23,13,Improv_Metronome,345,5,42,127,2437658952
51,23,13,Improv_Metronome,346,1,48,58,2438119988
51,23,13,Improv_Metronome,347,5,42,127,2438158768
51,23,13,Improv_Metronome,348,1,48,53,2438346572
51,23,13,Improv_Metronome,349,1,48,54,2438593564
51,23,13,Improv_Metronome,350,5,42,127,2438658740
51,23,13,Improv_Metronome,351,1,48,51,2438849616
51,23,13,Improv_Metronome,352,1,48,54,2439083808
51,23,13,Improv_Metronome,353,5,42,127,2439159160
51,23,13,Improv_Metronome,354,1,48,52,2439315300
51,23,13,Improv_Metronome,355,1,48,57,2439582628
51,23,13,Improv_Metronome,356,5,42,127,2439658832
51,23,13,Improv_Metronome,357,1,48,55,2439849404
51,23,13,Improv_Metronome,358,1,38,56,2440124520
51,23,13,Improv_Metronome,359,1,48,57,2440127112
51,23,13,Improv_Metronome,360,5,42,127,2440158564
51,23,13,Improv_Metronome,361,5,42,127,2440659504
51,23,13,Improv_Metronome,362,1,48,56,2440839300
51,23,13,Improv_Metronome,363,1,38,58,2441096608
51,23,13,Improv_Metronome,364,5,42,127,2441158896
51,23,13,Improv_Metronome,365,1,48,55,2441607964
51,23,13,Improv_Metronome,366,5,42,127,2441658592
51,23,13,Improv_Metronome,367,1,48,59,2441866188
51,23,13,Improv_Metronome,368,1,38,66,2442091632
51,23,13,Improv_Metronome,369,5,42,127,2442158632
51,23,13,Improv_Metronome,370,5,42,127,2442659160
51,23,13,Improv_Metronome,371,1,48,61,2442869540
51,23,13,Improv_Metronome,372,1,38,52,2443132160
51,23,13,Improv_Metronome,373,5,42,127,2443158748
51,23,13,Improv_Metronome,374,1,38,54,2443374376
51,23,13,Improv_Metronome,375,1,48,61,2443622784
51,23,13,Improv_Metronome,376,5,42,127,2443658644
51,23,13,Improv_Metronome,377,1,48,53,2443880180
51,23,13,Improv_Metronome,378,1,38,57,2444114452
51,23,13,Improv_Metronome,0,9999,9999,9999,2374156392
51,23,13,Improv_Metronome,1,9999,9999,9999,2374656108
51,23,13,Improv_Metronome,2,9999,9999,9999,2375156796
51,23,13,Improv_Metronome,3,9999,9999,9999,2375656512
51,23,13,Improv_Metronome,4,9999,9999,9999,2376156232
51,23,13,Improv_Metronome,5,9999,9999,9999,2376656944
51,23,13,Improv_Metronome,6,9999,9999,9999,2377156692
51,23,13,Improv_Metronome,7,9999,9999,9999,2377656436
51,23,13,Improv_Metronome,8,9999,9999,9999,2378156108
51,23,13,Improv_Metronome,9,9999,9999,9999,2378656876
51,23,13,Improv_Metronome,10,9999,9999,9999,2379156592
51,23,13,Improv_Metronome,11,9999,9999,9999,2379656268
51,23,13,Improv_Metronome,12,9999,9999,9999,2380156980
51,23,13,Improv_Metronome,13,9999,9999,9999,2380656728
51,23,13,Improv_Metronome,14,9999,9999,9999,2381156400
51,23,13,Improv_Metronome,15,9999,9999,9999,2381656148
51,23,13,Improv_Metronome,16,9999,9999,9999,2382156864
51,23,13,Improv_Metronome,17,9999,9999,9999,2382656616
51,23,13,Improv_Metronome,18,9999,9999,9999,2383156288
51,23,13,Improv_Metronome,19,9999,9999,9999,2383657064
51,23,13,Improv_Metronome,20,9999,9999,9999,2384156736
51,23,13,Improv_Metronome,21,9999,9999,9999,2384656464
51,23,13,Improv_Metronome,22,9999,9999,9999,2385156184
51,23,13,Improv_Metronome,23,9999,9999,9999,2385656884
51,23,13,Improv_Metronome,24,9999,9999,9999,2386156604
51,23,13,Improv_Metronome,25,9999,9999,9999,2386656332
51,23,13,Improv_Metronome,26,9999,9999,9999,2387157096
51,23,13,Improv_Metronome,27,9999,9999,9999,2387656824
51,23,13,Improv_Metronome,28,9999,9999,9999,2388156500
51,23,13,Improv_Metronome,29,9999,9999,9999,2388656184
51,23,13,Improv_Metronome,30,9999,9999,9999,2389156972
51,23,13,Improv_Metronome,31,9999,9999,9999,2389656624
51,23,13,Improv_Metronome,32,9999,9999,9999,2390156364
51,23,13,Improv_Metronome,33,9999,9999,9999,2390656116
51,23,13,Improv_Metronome,34,9999,9999,9999,2391156828
51,23,13,Improv_Metronome,35,9999,9999,9999,2391656524
51,23,13,Improv_Metronome,36,9999,9999,9999,2392156272
51,23,13,Improv_Metronome,37,9999,9999,9999,2392656996
51,23,13,Improv_Metronome,38,9999,9999,9999,2393156664
51,23,13,Improv_Metronome,39,9999,9999,9999,2393656412
51,23,13,Improv_Metronome,40,9999,9999,9999,2394156080
51,23,13,Improv_Metronome,41,9999,9999,9999,2394656876
51,23,13,Improv_Metronome,42,9999,9999,9999,2395156544
51,23,13,Improv_Metronome,43,9999,9999,9999,2395656276
51,23,13,Improv_Metronome,44,9999,9999,9999,2396157032
51,23,13,Improv_Metronome,45,9999,9999,9999,2396656704
51,23,13,Improv_Metronome,46,9999,9999,9999,2397156448
51,23,13,Improv_Metronome,47,9999,9999,9999,2397656124
51,23,13,Improv_Metronome,48,9999,9999,9999,2398156912
51,23,13,Improv_Metronome,49,9999,9999,9999,2398656588
51,23,13,Improv_Metronome,50,9999,9999,9999,2399156328
51,23,13,Improv_Metronome,51,9999,9999,9999,2399657048
51,23,13,Improv_Metronome,52,9999,9999,9999,2400156772
51,23,13,Improv_Metronome,53,9999,9999,9999,2400656448
51,23,13,Improv_Metronome,54,9999,9999,9999,2401156196
51,23,13,Improv_Metronome,55,9999,9999,9999,2401656912
51,23,13,Improv_Metronome,56,9999,9999,9999,2402156652
51,23,13,Improv_Metronome,57,9999,9999,9999,2402656328
51,23,13,Improv_Metronome,58,9999,9999,9999,2403157040
51,23,13,Improv_Metronome,59,9999,9999,9999,2403656808
51,23,13,Improv_Metronome,60,9999,9999,9999,2404156484
51,23,13,Improv_Metronome,61,9999,9999,9999,2404656180
51,23,13,Improv_Metronome,62,9999,9999,9999,2405156928
51,23,13,Improv_Metronome,63,9999,9999,9999,2405656688
51,23,13,Improv_Metronome,64,9999,9999,9999,2406156384
51,23,13,Improv_Metronome,65,9999,9999,9999,2406656080
51,23,13,Improv_Metronome,66,9999,9999,9999,2407156828
51,23,13,Improv_Metronome,67,9999,9999,9999,2407656524
51,23,13,Improv_Metronome,68,9999,9999,9999,2408156212
51,23,13,Improv_Metronome,69,9999,9999,9999,2408656952
51,23,13,Improv_Metronome,70,9999,9999,9999,2409156728
51,23,13,Improv_Metronome,71,9999,9999,9999,2409656420
51,23,13,Improv_Metronome,72,9999,9999,9999,2410156112
51,23,13,Improv_Metronome,73,9999,9999,9999,2410656884
51,23,13,Improv_Metronome,74,9999,9999,9999,2411156580
51,23,13,Improv_Metronome,75,9999,9999,9999,2411656304
51,23,13,Improv_Metronome,76,9999,9999,9999,2412156996
51,23,13,Improv_Metronome,77,9999,9999,9999,2412656752
51,23,13,Improv_Metronome,78,9999,9999,9999,2413156424
51,23,13,Improv_Metronome,79,9999,9999,9999,2413656124
51,23,13,Improv_Metronome,80,9999,9999,9999,2414156860
51,23,13,Improv_Metronome,81,9999,9999,9999,2414656608
51,23,13,Improv_Metronome,82,9999,9999,9999,2415156280
51,23,13,Improv_Metronome,83,9999,9999,9999,2415657028
51,23,13,Improv_Metronome,84,9999,9999,9999,2416156792
51,23,13,Improv_Metronome,85,9999,9999,9999,2416656464
51,23,13,Improv_Metronome,86,9999,9999,9999,2417156212
51,23,13,Improv_Metronome,87,9999,9999,9999,2417656932
51,23,13,Improv_Metronome,88,9999,9999,9999,2418156624
51,23,13,Improv_Metronome,89,9999,9999,9999,2418656320
51,23,13,Improv_Metronome,90,9999,9999,9999,2419157108
51,23,13,Improv_Metronome,91,9999,9999,9999,2419656792
51,23,13,Improv_Metronome,92,9999,9999,9999,2420156468
51,23,13,Improv_Metronome,93,9999,9999,9999,2420656184
51,23,13,Improv_Metronome,94,9999,9999,9999,2421156980
51,23,13,Improv_Metronome,95,9999,9999,9999,2421656656
51,23,13,Improv_Metronome,96,9999,9999,9999,2422156344
51,23,13,Improv_Metronome,97,9999,9999,9999,2422656092
51,23,13,Improv_Metronome,98,9999,9999,9999,2423156812
51,23,13,Improv_Metronome,99,9999,9999,9999,2423656512
51,23,13,Improv_Metronome,100,9999,9999,9999,2424156276
51,23,13,Improv_Metronome,101,9999,9999,9999,2424656968
51,23,13,Improv_Metronome,102,9999,9999,9999,2425156716
51,23,13,Improv_Metronome,103,9999,9999,9999,2425656396
51,23,13,Improv_Metronome,104,9999,9999,9999,2426156084
51,23,13,Improv_Metronome,105,9999,9999,9999,2426656880
51,23,13,Improv_Metronome,106,9999,9999,9999,2427156576
51,23,13,Improv_Metronome,107,9999,9999,9999,2427656276
51,23,13,Improv_Metronome,108,9999,9999,9999,2428157048
51,23,13,Improv_Metronome,109,9999,9999,9999,2428656736
51,23,13,Improv_Metronome,110,9999,9999,9999,2429156408
51,23,13,Improv_Metronome,111,9999,9999,9999,2429656156
51,23,13,Improv_Metronome,112,9999,9999,9999,2430156852
51,23,13,Improv_Metronome,113,9999,9999,9999,2430656600
51,23,13,Improv_Metronome,114,9999,9999,9999,2431156332
51,23,13,Improv_Metronome,115,9999,9999,9999,2431657052
51,23,13,Improv_Metronome,116,9999,9999,9999,2432156768
51,23,13,Improv_Metronome,117,9999,9999,9999,2432656448
51,23,13,Improv_Metronome,118,9999,9999,9999,2433156192
51,23,13,Improv_Metronome,119,9999,9999,9999,2433656912
51,23,13,Improv_Metronome,120,9999,9999,9999,2434156656
51,23,13,Improv_Metronome,121,9999,9999,9999,2434656328
51,23,13,Improv_Metronome,122,9999,9999,9999,2435157048
51,23,13,Improv_Metronome,123,9999,9999,9999,2435656796
51,23,13,Improv_Metronome,124,9999,9999,9999,2436156468
51,23,13,Improv_Metronome,125,9999,9999,9999,2436656216
51,23,13,Improv_Metronome,126,9999,9999,9999,2437156936
51,23,13,Improv_Metronome,127,9999,9999,9999,2437656664
51,23,13,Improv_Metronome,128,9999,9999,9999,2438156408
51,23,13,Improv_Metronome,129,9999,9999,9999,2438656080
51,23,13,Improv_Metronome,130,9999,9999,9999,2439156800
51,23,13,Improv_Metronome,131,9999,9999,9999,2439656548
51,23,13,Improv_Metronome,132,9999,9999,9999,2440156276
51,23,13,Improv_Metronome,133,9999,9999,9999,2440656996
51,23,13,Improv_Metronome,134,9999,9999,9999,2441156684
51,23,13,Improv_Metronome,135,9999,9999,9999,2441656380
51,23,13,Improv_Metronome,136,9999,9999,9999,2442156124
51,23,13,Improv_Metronome,137,9999,9999,9999,2442656848
51,23,13,Improv_Metronome,138,9999,9999,9999,2443156536
51,23,13,Improv_Metronome,139,9999,9999,9999,2443656284
51,24,14,Improv_Melody,0,2,48,80,2488819260
51,24,14,Improv_Melody,1,2,72,80,2488821628
51,24,14,Improv_Melody,2,5,42,127,2488823348
51,24,14,Improv_Melody,3,5,42,110,2489315664
51,24,14,Improv_Melody,4,5,42,110,2489816360
51,24,14,Improv_Melody,5,5,42,110,2490316376
51,24,14,Improv_Melody,6,5,42,127,2490815728
51,24,14,Improv_Melody,7,5,42,110,2491315524
51,24,14,Improv_Melody,8,5,42,110,2491816364
51,24,14,Improv_Melody,9,5,42,110,2492316140
51,24,14,Improv_Melody,10,2,43,80,2492818212
51,24,14,Improv_Melody,11,2,67,80,2492820140
51,24,14,Improv_Melody,12,5,42,127,2492822680
51,24,14,Improv_Melody,13,5,42,110,2493315372
51,24,14,Improv_Melody,14,5,42,110,2493816140
51,24,14,Improv_Melody,15,5,42,110,2494316156
51,24,14,Improv_Melody,16,5,42,127,2494815656
51,24,14,Improv_Melody,17,5,42,110,2495316204
51,24,14,Improv_Melody,18,5,42,110,2495816000
51,24,14,Improv_Melody,19,5,42,110,2496315868
51,24,14,Improv_Melody,20,2,45,80,2496817792
51,24,14,Improv_Melody,21,2,69,80,2496820168
51,24,14,Improv_Melody,22,5,42,127,2496822636
51,24,14,Improv_Melody,23,5,42,110,2497316148
51,24,14,Improv_Melody,24,5,42,110,2497816020
51,24,14,Improv_Melody,25,5,42,110,2498315516
51,24,14,Improv_Melody,26,5,42,127,2498816288
51,24,14,Improv_Melody,27,5,42,110,2499316084
51,24,14,Improv_Melody,28,5,42,110,2499815804
51,24,14,Improv_Melody,29,5,42,110,2500315452
51,24,14,Improv_Melody,30,2,41,80,2500818716
51,24,14,Improv_Melody,31,2,65,80,2500820872
51,24,14,Improv_Melody,32,5,42,127,2500823340
51,24,14,Improv_Melody,33,5,42,110,2501315880
51,24,14,Improv_Melody,34,5,42,110,2501815600
51,24,14,Improv_Melody,35,5,42,110,2502316368
51,24,14,Improv_Melody,36,5,42,127,2502816092
51,24,14,Improv_Melody,37,5,42,110,2503315936
51,24,14,Improv_Melody,38,5,42,110,2503815508
51,24,14,Improv_Melody,39,5,42,110,2504316276
51,24,14,Improv_Melody,40,1,38,45,2504768080
51,24,14,Improv_Melody,41,1,48,51,2504782716
51,24,14,Improv_Melody,42,2,48,80,2504818704
51,24,14,Improv_Melody,43,2,72,80,2504820852
51,24,14,Improv_Melody,44,5,42,127,2504823388
51,24,14,Improv_Melody,45,5,42,110,2505315824
51,24,14,Improv_Melody,46,1,48,45,2505612024
51,24,14,Improv_Melody,47,5,42,110,2505816572
51,24,14,Improv_Melody,48,1,48,45,2505859560
51,24,14,Improv_Melody,49,5,42,110,2506316048
51,24,14,Improv_Melody,50,1,48,48,2506370108
51,24,14,Improv_Melody,51,1,38,55,2506787056
51,24,14,Improv_Melody,52,1,48,66,2506795860
51,24,14,Improv_Melody,53,5,42,127,2506815796
51,24,14,Improv_Melody,54,5,42,110,2507315700
51,24,14,Improv_Melody,55,1,48,50,2507590732
51,24,14,Improv_Melody,56,5,42,110,2507816444
51,24,14,Improv_Melody,57,1,48,51,2507838864
51,24,14,Improv_Melody,58,1,48,50,2508314864
51,24,14,Improv_Melody,59,5,42,110,2508316212
51,24,14,Improv_Melody,60,2,43,80,2508818276
51,24,14,Improv_Melody,61,2,67,80,2508820504
51,24,14,Improv_Melody,62,5,42,127,2508823040
51,24,14,Improv_Melody,63,1,48,68,2508834612
51,24,14,Improv_Melody,64,1,38,57,2508837880
51,24,14,Improv_Melody,65,5,42,110,2509315364
51,24,14,Improv_Melody,66,1,48,46,2509598776
51,24,14,Improv_Melody,67,5,42,110,2509816188
51,24,14,Improv_Melody,68,1,48,50,2509841820
51,24,14,Improv_Melody,69,5,42,110,2510315812
51,24,14,Improv_Melody,70,1,48,52,2510331640
51,24,14,Improv_Melody,71,1,48,64,2510754284
51,24,14,Improv_Melody,72,1,38,53,2510757476
51,24,14,Improv_Melody,73,5,42,127,2510815560
51,24,14,Improv_Melody,74,5,42,110,2511316288
51,24,14,Improv_Melody,75,1,48,50,2511541356
51,24,14,Improv_Melody,76,1,48,53,2511784080
51,24,14,Improv_Melody,77,5,42,110,2511816128
51,24,14,Improv_Melody,78,1,48,46,2512021256
51,24,14,Improv_Melody,79,1,48,50,2512253660
51,24,14,Improv_Melody,80,5,42,110,2512315880
51,24,14,Improv_Melody,81,1,48,52,2512555148
51,24,14,Improv_Melody,82,2,45,80,2512818144
51,24,14,Improv_Melody,83,1,48,66,2512820460
51,24,14,Improv_Melody,84,2,69,80,2512821944
51,24,14,Improv_Melody,85,5,42,127,2512824036
51,24,14,Improv_Melody,86,1,38,58,2512830524
51,24,14,Improv_Melody,87,5,42,110,2513316080
51,24,14,Improv_Melody,88,1,48,49,2513592612
51,24,14,Improv_Melody,89,5,42,110,2513815980
51,24,14,Improv_Melody,90,1,48,50,2513835728
51,24,14,Improv_Melody,91,5,42,110,2514315756
51,24,14,Improv_Melody,92,1,48,54,2514332632
51,24,14,Improv_Melody,93,1,38,59,2514771428
51,24,14,Improv_Melody,94,1,48,62,2514774552
51,24,14,Improv_Melody,95,5,42,127,2514816548
51,24,14,Improv_Melody,96,5,42,110,2515315932
51,24,14,Improv_Melody,97,1,48,54,2515536584
51,24,14,Improv_Melody,98,1,48,49,2515769280
51,24,14,Improv_Melody,99,5,42,110,2515815696
51,24,14,Improv_Melody,100,1,48,41,2515997744
51,24,14,Improv_Melody,101,1,48,54,2516241960
51,24,14,Improv_Melody,102,5,42,110,2516315676
51,24,14,Improv_Melody,103,1,48,56,2516490836
51,24,14,Improv_Melody,104,1,38,58,2516732660
51,24,14,Improv_Melody,105,1,48,67,2516750372
51,24,14,Improv_Melody,106,2,41,80,2516818808
51,24,14,Improv_Melody,107,2,65,80,2516820884
51,24,14,Improv_Melody,108,5,42,127,2516823724
51,24,14,Improv_Melody,109,5,42,110,2517316000
51,24,14,Improv_Melody,110,1,48,49,2517570612
51,24,14,Improv_Melody,111,1,48,53,2517809444
51,24,14,Improv_Melody,112,5,42,110,2517815616
51,24,14,Improv_Melody,113,1,48,55,2518300240
51,24,14,Improv_Melody,114,5,42,110,2518316436
51,24,14,Improv_Melody,115,1,48,62,2518750500
51,24,14,Improv_Melody,116,1,38,66,2518760580
51,24,14,Improv_Melody,117,5,42,127,2518816044
51,24,14,Improv_Melody,118,5,42,110,2519315796
51,24,14,Improv_Melody,119,1,48,56,2519540044
51,24,14,Improv_Melody,120,1,48,56,2519793764
51,24,14,Improv_Melody,121,5,42,110,2519815640
51,24,14,Improv_Melody,122,1,48,59,2520316544
51,24,14,Improv_Melody,123,5,42,110,2520317808
51,24,14,Improv_Melody,124,2,48,80,2520818600
51,24,14,Improv_Melody,125,2,72,80,2520820600
51,24,14,Improv_Melody,126,5,42,127,2520823064
51,24,14,Improv_Melody,127,1,38,49,2520836880
51,24,14,Improv_Melody,128,5,42,110,2521315808
51,24,14,Improv_Melody,129,1,38,49,2521319076
51,24,14,Improv_Melody,130,1,38,46,2521813964
51,24,14,Improv_Melody,131,5,42,110,2521816476
51,24,14,Improv_Melody,132,1,38,48,2522296392
51,24,14,Improv_Melody,133,1,48,13,2522310576
51,24,14,Improv_Melody,134,5,42,110,2522316156
51,24,14,Improv_Melody,135,5,42,127,2522815760
51,24,14,Improv_Melody,136,1,38,47,2522821492
51,24,14,Improv_Melody,137,1,48,13,2522836212
51,24,14,Improv_Melody,138,1,38,45,2523304744
51,24,14,Improv_Melody,139,5,42,110,2523315704
51,24,14,Improv_Melody,140,5,42,110,2523816384
51,24,14,Improv_Melody,141,1,38,42,2523833716
51,24,14,Improv_Melody,142,1,48,14,2523848428
51,24,14,Improv_Melody,143,1,38,46,2524276396
51,24,14,Improv_Melody,144,5,42,110,2524316004
51,24,14,Improv_Melody,145,1,48,53,2524805416
51,24,14,Improv_Melody,146,2,43,80,2524817980
51,24,14,Improv_Melody,147,2,67,80,2524820356
51,24,14,Improv_Melody,148,5,42,127,2524822672
51,24,14,Improv_Melody,149,1,48,47,2525304752
51,24,14,Improv_Melody,150,5,42,110,2525315492
51,24,14,Improv_Melody,151,5,42,110,2525816392
51,24,14,Improv_Melody,152,1,48,47,2525840376
51,24,14,Improv_Melody,153,1,48,48,2526306172
51,24,14,Improv_Melody,154,5,42,110,2526315788
51,24,14,Improv_Melody,155,1,48,49,2526796000
51,24,14,Improv_Melody,156,5,42,127,2526815708
51,24,14,Improv_Melody,157,1,48,49,2527265628
51,24,14,Improv_Melody,158,5,42,110,2527316308
51,24,14,Improv_Melody,159,1,48,43,2527787172
51,24,14,Improv_Melody,160,5,42,110,2527816156
51,24,14,Improv_Melody,161,1,48,46,2528275652
51,24,14,Improv_Melody,162,5,42,110,2528315856
51,24,14,Improv_Melody,163,1,48,53,2528816428
51,24,14,Improv_Melody,164,2,45,80,2528819196
51,24,14,Improv_Melody,165,1,38,51,2528820540
51,24,14,Improv_Melody,166,2,69,80,2528824124
51,24,14,Improv_Melody,167,5,42,127,2528826356
51,24,14,Improv_Melody,168,5,42,110,2529316240
51,24,14,Improv_Melody,169,1,38,49,2529322204
51,24,14,Improv_Melody,170,1,48,54,2529327496
51,24,14,Improv_Melody,171,5,42,110,2529816044
51,24,14,Improv_Melody,172,1,38,55,2529819236
51,24,14,Improv_Melody,173,1,48,52,2529822428
51,24,14,Improv_Melody,174,1,38,56,2530308468
51,24,14,Improv_Melody,175,1,48,49,2530311736
51,24,14,Improv_Melody,176,5,42,110,2530315668
51,24,14,Improv_Melody,177,5,42,127,2530816248
51,24,14,Improv_Melody,178,1,48,54,2530819292
51,24,14,Improv_Melody,179,1,38,49,2530822636
51,24,14,Improv_Melody,180,1,38,48,2531298944
51,24,14,Improv_Melody,181,1,48,52,2531304312
51,24,14,Improv_Melody,182,5,42,110,2531316020
51,24,14,Improv_Melody,183,1,38,47,2531760304
51,24,14,Improv_Melody,184,1,48,53,2531794244
51,24,14,Improv_Melody,185,5,42,110,2531815968
51,24,14,Improv_Melody,186,1,38,53,2532264592
51,24,14,Improv_Melody,187,1,48,54,2532285068
51,24,14,Improv_Melody,188,5,42,110,2532315476
51,24,14,Improv_Melody,189,2,41,80,2532818624
51,24,14,Improv_Melody,190,2,65,80,2532820924
51,24,14,Improv_Melody,191,5,42,127,2532823392
51,24,14,Improv_Melody,192,1,38,39,2532836160
51,24,14,Improv_Melody,193,1,38,48,2532939208
51,24,14,Improv_Melody,194,1,38,29,2533031964
51,24,14,Improv_Melody,195,1,38,35,2533181232
51,24,14,Improv_Melody,196,5,42,110,2533315920
51,24,14,Improv_Melody,197,1,38,39,2533395404
51,24,14,Improv_Melody,198,1,38,26,2533600656
51,24,14,Improv_Melody,199,1,38,25,2533644988
51,24,14,Improv_Melody,200,1,38,33,2533810964
51,24,14,Improv_Melody,201,5,42,110,2533815720
51,24,14,Improv_Melody,202,1,38,39,2533887636
51,24,14,Improv_Melody,203,1,38,30,2534014624
51,24,14,Improv_Melody,204,1,38,36,2534140212
51,24,14,Improv_Melody,205,1,38,30,2534240268
51,24,14,Improv_Melody,206,5,42,110,2534316328
51,24,14,Improv_Melody,207,1,38,32,2534379044
51,24,14,Improv_Melody,208,1,38,29,2534469900
51,24,14,Improv_Melody,209,1,38,32,2534592872
51,24,14,Improv_Melody,210,1,38,28,2534691132
51,24,14,Improv_Melody,211,1,38,36,2534804280
51,24,14,Improv_Melody,212,5,42,127,2534816088
51,24,14,Improv_Melody,213,1,38,30,2534916504
51,24,14,Improv_Melody,214,1,38,31,2535055384
51,24,14,Improv_Melody,215,1,38,28,2535152696
51,24,14,Improv_Melody,216,5,42,110,2535315780
51,24,14,Improv_Melody,217,1,38,29,2535342408
51,24,14,Improv_Melody,218,1,38,25,2535542468
51,24,14,Improv_Melody,219,1,38,45,2535746372
51,24,14,Improv_Melody,220,5,42,110,2535815600
51,24,14,Improv_Melody,221,1,38,43,2536019780
51,24,14,Improv_Melody,222,1,38,46,2536239540
51,24,14,Improv_Melody,223,5,42,110,2536316324
51,24,14,Improv_Melody,224,2,48,80,2536818456
51,24,14,Improv_Melody,225,2,72,80,2536820684
51,24,14,Improv_Melody,226,5,42,127,2536823296
51,24,14,Improv_Melody,227,1,38,60,2536859104
51,24,14,Improv_Melody,228,1,48,64,2536871988
51,24,14,Improv_Melody,229,1,48,53,2537316004
51,24,14,Improv_Melody,230,5,42,110,2537317344
51,24,14,Improv_Melody,231,1,48,45,2537556092
51,24,14,Improv_Melody,232,1,48,45,2537804496
51,24,14,Improv_Melody,233,5,42,110,2537816428
51,24,14,Improv_Melody,234,1,48,58,2538305316
51,24,14,Improv_Melody,235,5,42,110,2538316052
51,24,14,Improv_Melody,236,1,38,58,2538752732
51,24,14,Improv_Melody,237,1,38,54,2538774472
51,24,14,Improv_Melody,238,5,42,127,2538815880
51,24,14,Improv_Melody,239,1,48,46,2539255772
51,24,14,Improv_Melody,240,5,42,110,2539315504
51,24,14,Improv_Melody,241,1,48,49,2539486404
51,24,14,Improv_Melody,242,1,48,53,2539756200
51,24,14,Improv_Melody,243,5,42,110,2539816452
51,24,14,Improv_Melody,244,1,48,54,2540284400
51,24,14,Improv_Melody,245,5,42,110,2540315932
51,24,14,Improv_Melody,246,1,48,52,2540509116
51,24,14,Improv_Melody,247,1,38,63,2540768892
51,24,14,Improv_Melody,248,1,48,61,2540785552
51,24,14,Improv_Melody,249,2,43,80,2540818472
51,24,14,Improv_Melody,250,2,67,80,2540820620
51,24,14,Improv_Melody,251,5,42,127,2540823228
51,24,14,Improv_Melody,252,1,48,51,2541297808
51,24,14,Improv_Melody,253,5,42,110,2541315348
51,24,14,Improv_Melody,254,1,48,48,2541533068
51,24,14,Improv_Melody,255,1,48,51,2541765700
51,24,14,Improv_Melody,256,5,42,110,2541816148
51,24,14,Improv_Melody,257,1,48,58,2542283796
51,24,14,Improv_Melody,258,5,42,110,2542315996
51,24,14,Improv_Melody,259,1,48,64,2542795988
51,24,14,Improv_Melody,260,1,38,71,2542799404
51,24,14,Improv_Melody,261,5,42,127,2542815456
51,24,14,Improv_Melody,262,1,48,52,2543273348
51,24,14,Improv_Melody,263,5,42,110,2543316248
51,24,14,Improv_Melody,264,1,48,48,2543512780
51,24,14,Improv_Melody,265,1,48,47,2543747940
51,24,14,Improv_Melody,266,5,42,110,2543816000
51,24,14,Improv_Melody,267,1,48,47,2543980740
51,24,14,Improv_Melody,268,1,48,49,2544244932
51,24,14,Improv_Melody,269,5,42,110,2544315976
51,24,14,Improv_Melody,270,1,48,51,2544499268
51,24,14,Improv_Melody,271,1,38,71,2544781556
51,24,14,Improv_Melody,272,1,48,55,2544784004
51,24,14,Improv_Melody,273,2,45,80,2544817988
51,24,14,Improv_Melody,274,2,69,80,2544820212
51,24,14,Improv_Melody,275,5,42,127,2544822976
51,24,14,Improv_Melody,276,5,42,110,2545316296
51,24,14,Improv_Melody,277,1,48,51,2545333852
51,24,14,Improv_Melody,278,1,48,53,2545564908
51,24,14,Improv_Melody,279,1,48,51,2545798180
51,24,14,Improv_Melody,280,5,42,110,2545815944
51,24,14,Improv_Melody,281,1,48,58,2546300568
51,24,14,Improv_Melody,282,5,42,110,2546315792
51,24,14,Improv_Melody,283,1,48,64,2546767804
51,24,14,Improv_Melody,284,1,38,62,2546778264
51,24,14,Improv_Melody,285,5,42,127,2546816224
51,24,14,Improv_Melody,286,1,48,52,2547230812
51,24,14,Improv_Melody,287,5,42,110,2547316044
51,24,14,Improv_Melody,288,1,48,48,2547480284
51,24,14,Improv_Melody,289,1,48,53,2547757268
51,24,14,Improv_Melody,290,5,42,110,2547815872
51,24,14,Improv_Melody,291,1,48,53,2548291972
51,24,14,Improv_Melody,292,5,42,110,2548315796
51,24,14,Improv_Melody,293,1,48,62,2548783968
51,24,14,Improv_Melody,294,1,38,59,2548791200
51,24,14,Improv_Melody,295,2,41,80,2548818880
51,24,14,Improv_Melody,296,2,65,80,2548821256
51,24,14,Improv_Melody,297,5,42,127,2548823792
51,24,14,Improv_Melody,298,1,48,50,2549278100
51,24,14,Improv_Melody,299,5,42,110,2549316060
51,24,14,Improv_Melody,300,1,48,47,2549501620
51,24,14,Improv_Melody,301,1,48,54,2549767312
51,24,14,Improv_Melody,302,5,42,110,2549815816
51,24,14,Improv_Melody,303,1,48,55,2550270596
51,24,14,Improv_Melody,304,5,42,110,2550316488
51,24,14,Improv_Melody,305,1,48,60,2550783684
51,24,14,Improv_Melody,306,5,42,127,2550816116
51,24,14,Improv_Melody,307,5,42,110,2551315972
51,24,14,Improv_Melody,308,1,38,52,2551333228
51,24,14,Improv_Melody,309,5,42,110,2551815820
51,24,14,Improv_Melody,310,1,38,57,2552059436
51,24,14,Improv_Melody,311,1,38,56,2552284288
51,24,14,Improv_Melody,312,5,42,110,2552316260
51,24,14,Improv_Melody,313,1,38,79,2552754060
51,24,14,Improv_Melody,314,1,48,61,2552786208
51,24,14,Improv_Melody,315,2,48,80,2552818520
51,24,14,Improv_Melody,316,2,72,80,2552820748
51,24,14,Improv_Melody,317,5,42,127,2552823208
51,24,14,Improv_Melody,318,5,42,110,2553315784
51,24,14,Improv_Melody,319,1,48,49,2553553712
51,24,14,Improv_Melody,320,1,48,46,2553796740
51,24,14,Improv_Melody,321,5,42,110,2553816524
51,24,14,Improv_Melody,322,1,48,54,2554303768
51,24,14,Improv_Melody,323,5,42,110,2554316072
51,24,14,Improv_Melody,324,1,38,70,2554765820
51,24,14,Improv_Melody,325,1,48,58,2554778360
51,24,14,Improv_Melody,326,5,42,127,2554815804
51,24,14,Improv_Melody,327,5,42,110,2555315704
51,24,14,Improv_Melody,328,1,48,50,2555538580
51,24,14,Improv_Melody,329,1,48,51,2555787512
51,24,14,Improv_Melody,330,5,42,110,2555816516
51,24,14,Improv_Melody,331,1,48,50,2556037656
51,24,14,Improv_Melody,332,1,48,46,2556268788
51,24,14,Improv_Melody,333,5,42,110,2556315900
51,24,14,Improv_Melody,334,1,48,51,2556511976
51,24,14,Improv_Melody,335,1,38,59,2556777288
51,24,14,Improv_Melody,336,1,48,58,2556780560
51,24,14,Improv_Melody,337,2,43,80,2556818180
51,24,14,Improv_Melody,338,2,67,80,2556820488
51,24,14,Improv_Melody,339,5,42,127,2556823024
51,24,14,Improv_Melody,340,5,42,110,2557315372
51,24,14,Improv_Melody,341,1,48,52,2557571028
51,24,14,Improv_Melody,342,1,48,51,2557815972
51,24,14,Improv_Melody,343,5,42,110,2557817456
51,24,14,Improv_Melody,344,1,48,55,2558306944
51,24,14,Improv_Melody,345,5,42,110,2558315812
51,24,14,Improv_Melody,346,1,38,64,2558774856
51,24,14,Improv_Melody,347,1,48,61,2558778124
51,24,14,Improv_Melody,348,5,42,127,2558815568
51,24,14,Improv_Melody,349,5,42,110,2559316380
51,24,14,Improv_Melody,350,1,48,54,2559481684
51,24,14,Improv_Melody,351,1,48,48,2559725528
51,24,14,Improv_Melody,352,5,42,110,2559816000
51,24,14,Improv_Melody,353,1,48,48,2559971040
51,24,14,Improv_Melody,354,1,48,49,2560222444
51,24,14,Improv_Melody,355,5,42,110,2560315680
51,24,14,Improv_Melody,356,1,48,51,2560475956
51,24,14,Improv_Melody,357,1,38,58,2560757644
51,24,14,Improv_Melody,358,1,48,66,2560776552
51,24,14,Improv_Melody,359,2,45,80,2560818064
51,24,14,Improv_Melody,360,2,69,80,2560820292
51,24,14,Improv_Melody,361,5,42,127,2560822828
51,24,14,Improv_Melody,362,5,42,110,2561316376
51,24,14,Improv_Melody,363,1,48,51,2561567548
51,24,14,Improv_Melody,364,1,48,53,2561811316
51,24,14,Improv_Melody,365,5,42,110,2561815848
51,24,14,Improv_Melody,366,1,48,57,2562306004
51,24,14,Improv_Melody,367,5,42,110,2562315544
51,24,14,Improv_Melody,368,1,48,69,2562800172
51,24,14,Improv_Melody,369,1,38,73,2562800828
51,24,14,Improv_Melody,370,5,42,127,2562816348
51,24,14,Improv_Melody,371,5,42,110,2563316028
51,24,14,Improv_Melody,372,1,48,54,2563577596
51,24,14,Improv_Melody,373,5,42,110,2563815804
51,24,14,Improv_Melody,374,1,48,52,2563822212
51,24,14,Improv_Melody,375,1,48,58,2564312392
51,24,14,Improv_Melody,376,5,42,110,2564315648
51,24,14,Improv_Melody,377,1,48,71,2564810592
51,24,14,Improv_Melody,378,1,38,61,2564815508
51,24,14,Improv_Melody,379,2,41,80,2564821052
51,24,14,Improv_Melody,380,2,65,80,2564823128
51,24,14,Improv_Melody,381,5,42,127,2564825736
51,24,14,Improv_Melody,382,5,42,110,2565315920
51,24,14,Improv_Melody,383,1,48,51,2565578908
51,24,14,Improv_Melody,384,1,48,54,2565806448
51,24,14,Improv_Melody,385,5,42,110,2565815612
51,24,14,Improv_Melody,386,1,48,58,2566276576
51,24,14,Improv_Melody,387,5,42,110,2566316504
51,24,14,Improv_Melody,388,1,38,56,2566765660
51,24,14,Improv_Melody,389,1,48,61,2566781044
51,24,14,Improv_Melody,390,5,42,127,2566816336
51,24,14,Improv_Melody,391,5,42,110,2567315844
51,24,14,Improv_Melody,392,1,48,56,2567535076
51,24,14,Improv_Melody,393,1,48,53,2567785504
51,24,14,Improv_Melody,394,5,42,110,2567815536
51,24,14,Improv_Melody,395,1,48,48,2568002744
51,24,14,Improv_Melody,396,1,48,55,2568249948
51,24,14,Improv_Melody,397,5,42,110,2568316484
51,24,14,Improv_Melody,398,1,48,59,2568525752
51,24,14,Improv_Melody,399,1,48,71,2568814608
51,24,14,Improv_Melody,400,1,38,57,2568817476
51,24,14,Improv_Melody,401,2,48,80,2568821292
51,24,14,Improv_Melody,402,2,72,80,2568823220
51,24,14,Improv_Melody,403,5,42,127,2568825676
51,24,14,Improv_Melody,404,5,42,110,2569315564
51,24,14,Improv_Melody,405,1,48,51,2569564344
51,24,14,Improv_Melody,406,1,48,51,2569800108
51,24,14,Improv_Melody,0,9999,9999,9999,2488813688
51,24,14,Improv_Melody,1,9999,9999,9999,2489313372
51,24,14,Improv_Melody,2,9999,9999,9999,2489814068
51,24,14,Improv_Melody,3,9999,9999,9999,2490313788
51,24,14,Improv_Melody,4,9999,9999,9999,2490813508
51,24,14,Improv_Melody,5,9999,9999,9999,2491313232
51,24,14,Improv_Melody,6,9999,9999,9999,2491814000
51,24,14,Improv_Melody,7,9999,9999,9999,2492313696
51,24,14,Improv_Melody,8,9999,9999,9999,2492813420
51,24,14,Improv_Melody,9,9999,9999,9999,2493313080
51,24,14,Improv_Melody,10,9999,9999,9999,2493813848
51,24,14,Improv_Melody,11,9999,9999,9999,2494313568
51,24,14,Improv_Melody,12,9999,9999,9999,2494813292
51,24,14,Improv_Melody,13,9999,9999,9999,2495313984
51,24,14,Improv_Melody,14,9999,9999,9999,2495813708
51,24,14,Improv_Melody,15,9999,9999,9999,2496313428
51,24,14,Improv_Melody,16,9999,9999,9999,2496813148
51,24,14,Improv_Melody,17,9999,9999,9999,2497313856
51,24,14,Improv_Melody,18,9999,9999,9999,2497813580
51,24,14,Improv_Melody,19,9999,9999,9999,2498313300
51,24,14,Improv_Melody,20,9999,9999,9999,2498814068
51,24,14,Improv_Melody,21,9999,9999,9999,2499313716
51,24,14,Improv_Melody,22,9999,9999,9999,2499813436
51,24,14,Improv_Melody,23,9999,9999,9999,2500313160
51,24,14,Improv_Melody,24,9999,9999,9999,2500813928
51,24,14,Improv_Melody,25,9999,9999,9999,2501313588
51,24,14,Improv_Melody,26,9999,9999,9999,2501813308
51,24,14,Improv_Melody,27,9999,9999,9999,2502314076
51,24,14,Improv_Melody,28,9999,9999,9999,2502813800
51,24,14,Improv_Melody,29,9999,9999,9999,2503313496
51,24,14,Improv_Melody,30,9999,9999,9999,2503813216
51,24,14,Improv_Melody,31,9999,9999,9999,2504313912
51,24,14,Improv_Melody,32,9999,9999,9999,2504813680
51,24,14,Improv_Melody,33,9999,9999,9999,2505313384
51,24,14,Improv_Melody,34,9999,9999,9999,2505814132
51,24,14,Improv_Melody,35,9999,9999,9999,2506313832
51,24,14,Improv_Melody,36,9999,9999,9999,2506813508
51,24,14,Improv_Melody,37,9999,9999,9999,2507313260
51,24,14,Improv_Melody,38,9999,9999,9999,2507814004
51,24,14,Improv_Melody,39,9999,9999,9999,2508313704
51,24,14,Improv_Melody,40,9999,9999,9999,2508813404
51,24,14,Improv_Melody,41,9999,9999,9999,2509313072
51,24,14,Improv_Melody,42,9999,9999,9999,2509813820
51,24,14,Improv_Melody,43,9999,9999,9999,2510313596
51,24,14,Improv_Melody,44,9999,9999,9999,2510813268
51,24,14,Improv_Melody,45,9999,9999,9999,2511313996
51,24,14,Improv_Melody,46,9999,9999,9999,2511813688
51,24,14,Improv_Melody,47,9999,9999,9999,2512313440
51,24,14,Improv_Melody,48,9999,9999,9999,2512813124
51,24,14,Improv_Melody,49,9999,9999,9999,2513313864
51,24,14,Improv_Melody,50,9999,9999,9999,2513813612
51,24,14,Improv_Melody,51,9999,9999,9999,2514313312
51,24,14,Improv_Melody,52,9999,9999,9999,2514814036
51,24,14,Improv_Melody,53,9999,9999,9999,2515313716
51,24,14,Improv_Melody,54,9999,9999,9999,2515813480
51,24,14,Improv_Melody,55,9999,9999,9999,2516313160
51,24,14,Improv_Melody,56,9999,9999,9999,2516813940
51,24,14,Improv_Melody,57,9999,9999,9999,2517313632
51,24,14,Improv_Melody,58,9999,9999,9999,2517813328
51,24,14,Improv_Melody,59,9999,9999,9999,2518314072
51,24,14,Improv_Melody,60,9999,9999,9999,2518813752
51,24,14,Improv_Melody,61,9999,9999,9999,2519313504
51,24,14,Improv_Melody,62,9999,9999,9999,2519813200
51,24,14,Improv_Melody,63,9999,9999,9999,2520313956
51,24,14,Improv_Melody,64,9999,9999,9999,2520813656
51,24,14,Improv_Melody,65,9999,9999,9999,2521313368
51,24,14,Improv_Melody,66,9999,9999,9999,2521814112
51,24,14,Improv_Melody,67,9999,9999,9999,2522313792
51,24,14,Improv_Melody,68,9999,9999,9999,2522813544
51,24,14,Improv_Melody,69,9999,9999,9999,2523313264
51,24,14,Improv_Melody,70,9999,9999,9999,2523813940
51,24,14,Improv_Melody,71,9999,9999,9999,2524313712
51,24,14,Improv_Melody,72,9999,9999,9999,2524813412
51,24,14,Improv_Melody,73,9999,9999,9999,2525313124
51,24,14,Improv_Melody,74,9999,9999,9999,2525813876
51,24,14,Improv_Melody,75,9999,9999,9999,2526313568
51,24,14,Improv_Melody,76,9999,9999,9999,2526813268
51,24,14,Improv_Melody,77,9999,9999,9999,2527314016
51,24,14,Improv_Melody,78,9999,9999,9999,2527813716
51,24,14,Improv_Melody,79,9999,9999,9999,2528313416
51,24,14,Improv_Melody,80,9999,9999,9999,2528813124
51,24,14,Improv_Melody,81,9999,9999,9999,2529313876
51,24,14,Improv_Melody,82,9999,9999,9999,2529813604
51,24,14,Improv_Melody,83,9999,9999,9999,2530313304
51,24,14,Improv_Melody,84,9999,9999,9999,2530814028
51,24,14,Improv_Melody,85,9999,9999,9999,2531313728
51,24,14,Improv_Melody,86,9999,9999,9999,2531813456
51,24,14,Improv_Melody,87,9999,9999,9999,2532313184
51,24,14,Improv_Melody,88,9999,9999,9999,2532813908
51,24,14,Improv_Melody,89,9999,9999,9999,2533313628
51,24,14,Improv_Melody,90,9999,9999,9999,2533813356
51,24,14,Improv_Melody,91,9999,9999,9999,2534314036
51,24,14,Improv_Melody,92,9999,9999,9999,2534813796
51,24,14,Improv_Melody,93,9999,9999,9999,2535313488
51,24,14,Improv_Melody,94,9999,9999,9999,2535813232
51,24,14,Improv_Melody,95,9999,9999,9999,2536313956
51,24,14,Improv_Melody,96,9999,9999,9999,2536813664
51,24,14,Improv_Melody,97,9999,9999,9999,2537313344
51,24,14,Improv_Melody,98,9999,9999,9999,2537814136
51,24,14,Improv_Melody,99,9999,9999,9999,2538313836
51,24,14,Improv_Melody,100,9999,9999,9999,2538813512
51,24,14,Improv_Melody,101,9999,9999,9999,2539313212
51,24,14,Improv_Melody,102,9999,9999,9999,2539813940
51,24,14,Improv_Melody,103,9999,9999,9999,2540313712
51,24,14,Improv_Melody,104,9999,9999,9999,2540813372
51,24,14,Improv_Melody,105,9999,9999,9999,2541313132
51,24,14,Improv_Melody,106,9999,9999,9999,2541813860
51,24,14,Improv_Melody,107,9999,9999,9999,2542313556
51,24,14,Improv_Melody,108,9999,9999,9999,2542813236
51,24,14,Improv_Melody,109,9999,9999,9999,2543314032
51,24,14,Improv_Melody,110,9999,9999,9999,2543813708
51,24,14,Improv_Melody,111,9999,9999,9999,2544313460
51,24,14,Improv_Melody,112,9999,9999,9999,2544813120
51,24,14,Improv_Melody,113,9999,9999,9999,2545313856
51,24,14,Improv_Melody,114,9999,9999,9999,2545813580
51,24,14,Improv_Melody,115,9999,9999,9999,2546313280
51,24,14,Improv_Melody,116,9999,9999,9999,2546814008
51,24,14,Improv_Melody,117,9999,9999,9999,2547313756
51,24,14,Improv_Melody,118,9999,9999,9999,2547813432
51,24,14,Improv_Melody,119,9999,9999,9999,2548313208
51,24,14,Improv_Melody,120,9999,9999,9999,2548813932
51,24,14,Improv_Melody,121,9999,9999,9999,2549313620
51,24,14,Improv_Melody,122,9999,9999,9999,2549813300
51,24,14,Improv_Melody,123,9999,9999,9999,2550314048
51,24,14,Improv_Melody,124,9999,9999,9999,2550813748
51,24,14,Improv_Melody,125,9999,9999,9999,2551313528
51,24,14,Improv_Melody,126,9999,9999,9999,2551813228
51,24,14,Improv_Melody,127,9999,9999,9999,2552313968
51,24,14,Improv_Melody,128,9999,9999,9999,2552813648
51,24,14,Improv_Melody,129,9999,9999,9999,2553313340
51,24,14,Improv_Melody,130,9999,9999,9999,2553814084
51,24,14,Improv_Melody,131,9999,9999,9999,2554313780
51,24,14,Improv_Melody,132,9999,9999,9999,2554813512
51,24,14,Improv_Melody,133,9999,9999,9999,2555313264
51,24,14,Improv_Melody,134,9999,9999,9999,2555814004
51,24,14,Improv_Melody,135,9999,9999,9999,2556313656
51,24,14,Improv_Melody,136,9999,9999,9999,2556813388
51,24,14,Improv_Melody,137,9999,9999,9999,2557313084
51,24,14,Improv_Melody,138,9999,9999,9999,2557813828
51,24,14,Improv_Melody,139,9999,9999,9999,2558313596
51,24,14,Improv_Melody,140,9999,9999,9999,2558813276
51,24,14,Improv_Melody,141,9999,9999,9999,2559314016
51,24,14,Improv_Melody,142,9999,9999,9999,2559813708
51,24,14,Improv_Melody,143,9999,9999,9999,2560313464
51,24,14,Improv_Melody,144,9999,9999,9999,2560813120
51,24,14,Improv_Melody,145,9999,9999,9999,2561313860
51,24,14,Improv_Melody,146,9999,9999,9999,2561813556
51,24,14,Improv_Melody,147,9999,9999,9999,2562313328
51,24,14,Improv_Melody,148,9999,9999,9999,2562814056
51,24,14,Improv_Melody,149,9999,9999,9999,2563313736
51,24,14,Improv_Melody,150,9999,9999,9999,2563813436
51,24,14,Improv_Melody,151,9999,9999,9999,2564313208
51,24,14,Improv_Melody,152,9999,9999,9999,2564813880
51,24,14,Improv_Melody,153,9999,9999,9999,2565313628
51,24,14,Improv_Melody,154,9999,9999,9999,2565813320
51,24,14,Improv_Melody,155,9999,9999,9999,2566314064
51,24,14,Improv_Melody,156,9999,9999,9999,2566813748
51,24,14,Improv_Melody,157,9999,9999,9999,2567313476
51,24,14,Improv_Melody,158,9999,9999,9999,2567813172
51,24,14,Improv_Melody,159,9999,9999,9999,2568313968
51,24,14,Improv_Melody,160,9999,9999,9999,2568813652
51,24,14,Improv_Melody,161,9999,9999,9999,2569313344
