taskRunCount,taskID,taskName,i,channel,pitch,velocity,microseconds
1,1,Ticks_Pract_5,0,5,42,127,95553928
1,1,Ticks_Pract_5,1,5,42,127,96053572
1,1,Ticks_Pract_5,2,5,42,127,96554408
1,1,Ticks_Pract_5,3,5,42,127,97054124
1,1,Ticks_Pract_5,4,5,42,127,97553764
1,1,Ticks_Pract_5,5,5,42,127,98053408
1,1,Ticks_Pract_5,6,5,42,127,98554172
1,1,Ticks_Pract_5,7,5,42,127,99053888
1,1,Ticks_Pract_5,8,1,48,40,99542940
1,1,Ticks_Pract_5,9,5,42,127,99553524
1,1,Ticks_Pract_5,10,1,48,40,100022668
1,1,Ticks_Pract_5,11,5,42,127,100054412
1,1,Ticks_Pract_5,12,1,48,41,100549740
1,1,Ticks_Pract_5,13,5,42,127,100554184
1,1,Ticks_Pract_5,14,5,42,127,101053736
1,1,Ticks_Pract_5,15,1,48,46,101058276
1,1,Ticks_Pract_5,16,5,42,127,101553580
1,1,Ticks_Pract_5,17,1,48,48,101566652
1,1,Ticks_Pract_5,18,5,42,127,102054248
1,1,Ticks_Pract_5,19,1,48,49,102076596
1,1,Ticks_Pract_5,20,5,42,127,102554092
1,1,Ticks_Pract_5,21,1,48,47,102582268
1,1,Ticks_Pract_5,22,5,42,127,103053640
1,1,Ticks_Pract_5,23,1,48,47,103062964
1,1,Ticks_Pract_5,24,5,42,127,103554452
1,1,Ticks_Pract_5,25,1,48,49,103568868
1,1,Ticks_Pract_5,26,5,42,127,104054220
1,1,Ticks_Pract_5,27,1,48,45,104072228
1,1,Ticks_Pract_5,28,5,42,127,104553768
1,1,Ticks_Pract_5,29,1,48,43,104600796
1,1,Ticks_Pract_5,30,5,42,127,105053436
1,1,Ticks_Pract_5,31,1,48,48,105054404
1,1,Ticks_Pract_5,32,1,48,43,105547032
1,1,Ticks_Pract_5,33,5,42,127,105554392
1,1,Ticks_Pract_5,34,1,48,46,106048444
1,1,Ticks_Pract_5,35,5,42,127,106054160
1,1,Ticks_Pract_5,36,1,48,45,106547916
1,1,Ticks_Pract_5,37,5,42,127,106553932
1,1,Ticks_Pract_5,38,1,48,43,107045068
1,1,Ticks_Pract_5,39,5,42,127,107053400
1,1,Ticks_Pract_5,40,5,42,127,107554300
1,1,Ticks_Pract_5,41,1,48,45,107558020
1,1,Ticks_Pract_5,42,1,48,43,108049692
1,1,Ticks_Pract_5,43,5,42,127,108054132
1,1,Ticks_Pract_5,44,1,48,48,108530460
1,1,Ticks_Pract_5,45,5,42,127,108553756
1,1,Ticks_Pract_5,46,1,48,49,109026644
1,1,Ticks_Pract_5,47,5,42,127,109054200
1,1,Ticks_Pract_5,48,5,42,127,109554124
1,1,Ticks_Pract_5,49,1,48,44,109556564
1,1,Ticks_Pract_5,50,1,48,46,110026548
1,1,Ticks_Pract_5,51,5,42,127,110053960
1,1,Ticks_Pract_5,52,1,48,48,110553440
1,1,Ticks_Pract_5,53,5,42,127,110554848
1,1,Ticks_Pract_5,54,1,48,43,111024368
1,1,Ticks_Pract_5,55,5,42,127,111054320
1,1,Ticks_Pract_5,56,1,48,44,111506036
1,1,Ticks_Pract_5,57,5,42,127,111554016
1,1,Ticks_Pract_5,58,1,48,48,112005656
1,1,Ticks_Pract_5,59,5,42,127,112053932
1,1,Ticks_Pract_5,60,1,48,49,112502060
1,1,Ticks_Pract_5,61,1,48,36,112535096
1,1,Ticks_Pract_5,62,5,42,127,112554280
1,1,Ticks_Pract_5,63,1,48,53,112983236
1,1,Ticks_Pract_5,64,5,42,127,113054048
1,1,Ticks_Pract_5,65,1,48,48,113495196
1,1,Ticks_Pract_5,66,5,42,127,113553892
1,1,Ticks_Pract_5,67,1,48,49,113980976
1,1,Ticks_Pract_5,68,5,42,127,114053884
1,1,Ticks_Pract_5,69,1,48,49,114479848
1,1,Ticks_Pract_5,70,5,42,127,114554104
1,1,Ticks_Pract_5,71,1,48,49,114977672
1,1,Ticks_Pract_5,72,5,42,127,115053872
1,1,Ticks_Pract_5,73,1,48,49,115464048
1,1,Ticks_Pract_5,0,9999,9999,9999,95551568
1,1,Ticks_Pract_5,1,9999,9999,9999,96051284
1,1,Ticks_Pract_5,2,9999,9999,9999,96552048
1,1,Ticks_Pract_5,3,9999,9999,9999,97051764
1,1,Ticks_Pract_5,4,9999,9999,9999,97551480
1,1,Ticks_Pract_5,5,9999,9999,9999,98051120
1,1,Ticks_Pract_5,6,9999,9999,9999,98551884
1,1,Ticks_Pract_5,7,9999,9999,9999,99051604
1,1,Ticks_Pract_5,8,9999,9999,9999,99551312
1,1,Ticks_Pract_5,9,9999,9999,9999,100052052
1,1,Ticks_Pract_5,10,9999,9999,9999,100551748
1,1,Ticks_Pract_5,11,9999,9999,9999,101051448
1,1,Ticks_Pract_5,12,9999,9999,9999,101551220
1,1,Ticks_Pract_5,13,9999,9999,9999,102051888
1,1,Ticks_Pract_5,14,9999,9999,9999,102551656
1,1,Ticks_Pract_5,15,9999,9999,9999,103051352
1,1,Ticks_Pract_5,16,9999,9999,9999,103552092
1,1,Ticks_Pract_5,17,9999,9999,9999,104051788
1,1,Ticks_Pract_5,18,9999,9999,9999,104551480
1,1,Ticks_Pract_5,19,9999,9999,9999,105051224
1,1,Ticks_Pract_5,20,9999,9999,9999,105551960
1,1,Ticks_Pract_5,21,9999,9999,9999,106051652
1,1,Ticks_Pract_5,22,9999,9999,9999,106551348
1,1,Ticks_Pract_5,23,9999,9999,9999,107051116
1,1,Ticks_Pract_5,24,9999,9999,9999,107551864
1,1,Ticks_Pract_5,25,9999,9999,9999,108051552
1,1,Ticks_Pract_5,26,9999,9999,9999,108551244
1,1,Ticks_Pract_5,27,9999,9999,9999,109051988
1,1,Ticks_Pract_5,28,9999,9999,9999,109551688
1,1,Ticks_Pract_5,29,9999,9999,9999,110051376
1,1,Ticks_Pract_5,30,9999,9999,9999,110551152
1,1,Ticks_Pract_5,31,9999,9999,9999,111051884
1,1,Ticks_Pract_5,32,9999,9999,9999,111551580
1,1,Ticks_Pract_5,33,9999,9999,9999,112051276
1,1,Ticks_Pract_5,34,9999,9999,9999,112551996
1,1,Ticks_Pract_5,35,9999,9999,9999,113051764
1,1,Ticks_Pract_5,36,9999,9999,9999,113551456
1,1,Ticks_Pract_5,37,9999,9999,9999,114051152
1,1,Ticks_Pract_5,38,9999,9999,9999,114551892
1,1,Ticks_Pract_5,39,9999,9999,9999,115051588
2,0,Ticks_Pract_8,0,5,42,127,139507152
2,0,Ticks_Pract_8,1,5,42,127,140307128
2,0,Ticks_Pract_8,2,5,42,127,141106440
2,0,Ticks_Pract_8,3,5,42,127,141907240
2,0,Ticks_Pract_8,4,5,42,127,142707020
2,0,Ticks_Pract_8,5,1,48,48,142734452
2,0,Ticks_Pract_8,6,1,48,48,143485096
2,0,Ticks_Pract_8,7,5,42,127,143506972
2,0,Ticks_Pract_8,8,1,48,51,144266508
2,0,Ticks_Pract_8,9,5,42,127,144306408
2,0,Ticks_Pract_8,10,1,48,54,145060932
2,0,Ticks_Pract_8,11,5,42,127,145107264
2,0,Ticks_Pract_8,12,1,48,49,145842108
2,0,Ticks_Pract_8,13,5,42,127,145906996
2,0,Ticks_Pract_8,14,1,48,49,146669148
2,0,Ticks_Pract_8,15,5,42,127,146707028
2,0,Ticks_Pract_8,16,1,48,48,147457588
2,0,Ticks_Pract_8,17,5,42,127,147506764
2,0,Ticks_Pract_8,18,1,48,50,148240868
2,0,Ticks_Pract_8,19,5,42,127,148307172
2,0,Ticks_Pract_8,20,1,48,56,149056908
2,0,Ticks_Pract_8,21,5,42,127,149106932
2,0,Ticks_Pract_8,22,1,48,53,149856864
2,0,Ticks_Pract_8,23,5,42,127,149906860
2,0,Ticks_Pract_8,24,1,48,49,150673580
2,0,Ticks_Pract_8,25,1,48,38,150706128
2,0,Ticks_Pract_8,26,5,42,127,150707328
2,0,Ticks_Pract_8,27,5,42,127,151507216
2,0,Ticks_Pract_8,28,1,48,51,151508180
2,0,Ticks_Pract_8,29,1,48,51,152306644
2,0,Ticks_Pract_8,30,5,42,127,152308136
2,0,Ticks_Pract_8,31,1,48,49,153088688
2,0,Ticks_Pract_8,32,5,42,127,153106828
2,0,Ticks_Pract_8,33,1,48,36,153122120
2,0,Ticks_Pract_8,34,1,48,49,153902832
2,0,Ticks_Pract_8,35,5,42,127,153906984
2,0,Ticks_Pract_8,36,1,48,48,154706116
2,0,Ticks_Pract_8,37,5,42,127,154707688
2,0,Ticks_Pract_8,38,1,48,49,155496796
2,0,Ticks_Pract_8,39,5,42,127,155507000
2,0,Ticks_Pract_8,40,1,48,50,156292264
2,0,Ticks_Pract_8,41,5,42,127,156306660
2,0,Ticks_Pract_8,42,1,48,46,157072100
2,0,Ticks_Pract_8,43,5,42,127,157106468
2,0,Ticks_Pract_8,44,1,48,46,157875196
2,0,Ticks_Pract_8,45,5,42,127,157907472
2,0,Ticks_Pract_8,46,1,48,45,158683084
2,0,Ticks_Pract_8,47,5,42,127,158707132
2,0,Ticks_Pract_8,48,1,48,46,159506268
2,0,Ticks_Pract_8,49,5,42,127,159507760
2,0,Ticks_Pract_8,50,5,42,127,160306528
2,0,Ticks_Pract_8,51,1,48,46,160323184
2,0,Ticks_Pract_8,52,5,42,127,161107384
2,0,Ticks_Pract_8,53,1,48,41,161121596
2,0,Ticks_Pract_8,54,5,42,127,161906992
2,0,Ticks_Pract_8,55,1,48,46,161940556
2,0,Ticks_Pract_8,56,5,42,127,162706728
2,0,Ticks_Pract_8,57,1,48,49,162732508
2,0,Ticks_Pract_8,0,9999,9999,9999,139504712
2,0,Ticks_Pract_8,1,9999,9999,9999,140304468
2,0,Ticks_Pract_8,2,9999,9999,9999,141104224
2,0,Ticks_Pract_8,3,9999,9999,9999,141904948
2,0,Ticks_Pract_8,4,9999,9999,9999,142704728
2,0,Ticks_Pract_8,5,9999,9999,9999,143504456
2,0,Ticks_Pract_8,6,9999,9999,9999,144304192
2,0,Ticks_Pract_8,7,9999,9999,9999,145104972
2,0,Ticks_Pract_8,8,9999,9999,9999,145904704
2,0,Ticks_Pract_8,9,9999,9999,9999,146704440
2,0,Ticks_Pract_8,10,9999,9999,9999,147504248
2,0,Ticks_Pract_8,11,9999,9999,9999,148304956
2,0,Ticks_Pract_8,12,9999,9999,9999,149104716
2,0,Ticks_Pract_8,13,9999,9999,9999,149904496
2,0,Ticks_Pract_8,14,9999,9999,9999,150704232
2,0,Ticks_Pract_8,15,9999,9999,9999,151504996
2,0,Ticks_Pract_8,16,9999,9999,9999,152304732
2,0,Ticks_Pract_8,17,9999,9999,9999,153104460
2,0,Ticks_Pract_8,18,9999,9999,9999,153904244
2,0,Ticks_Pract_8,19,9999,9999,9999,154704960
2,0,Ticks_Pract_8,20,9999,9999,9999,155504712
2,0,Ticks_Pract_8,21,9999,9999,9999,156304444
2,0,Ticks_Pract_8,22,9999,9999,9999,157104176
2,0,Ticks_Pract_8,23,9999,9999,9999,157904956
2,0,Ticks_Pract_8,24,9999,9999,9999,158704692
2,0,Ticks_Pract_8,25,9999,9999,9999,159504432
2,0,Ticks_Pract_8,26,9999,9999,9999,160304236
2,0,Ticks_Pract_8,27,9999,9999,9999,161104944
2,0,Ticks_Pract_8,28,9999,9999,9999,161904700
2,0,Ticks_Pract_8,29,9999,9999,9999,162704436
3,4,T1_SMS_5,0,5,42,127,231032104
3,4,T1_SMS_5,1,5,42,127,231531748
3,4,T1_SMS_5,2,5,42,127,232031464
3,4,T1_SMS_5,3,5,42,127,232532572
3,4,T1_SMS_5,4,5,42,127,233031916
3,4,T1_SMS_5,5,1,48,56,233054508
3,4,T1_SMS_5,6,1,48,57,233532132
3,4,T1_SMS_5,7,5,42,127,233533396
3,4,T1_SMS_5,8,5,42,127,234031532
3,4,T1_SMS_5,9,1,48,54,234037348
3,4,T1_SMS_5,10,5,42,127,234532420
3,4,T1_SMS_5,11,1,48,57,234543396
3,4,T1_SMS_5,12,1,48,61,235024368
3,4,T1_SMS_5,13,5,42,127,235032036
3,4,T1_SMS_5,14,5,42,127,235531736
3,4,T1_SMS_5,15,1,48,60,235549664
3,4,T1_SMS_5,16,1,48,46,235576948
3,4,T1_SMS_5,17,5,42,127,236032532
3,4,T1_SMS_5,18,1,48,59,236046872
3,4,T1_SMS_5,19,1,48,47,236071604
3,4,T1_SMS_5,20,1,48,59,236531228
3,4,T1_SMS_5,21,5,42,127,236532716
3,4,T1_SMS_5,22,1,48,44,236558344
3,4,T1_SMS_5,23,5,42,127,237031876
3,4,T1_SMS_5,24,1,48,56,237059084
3,4,T1_SMS_5,25,1,48,40,237092640
3,4,T1_SMS_5,26,1,48,53,237524252
3,4,T1_SMS_5,27,5,42,127,237531392
3,4,T1_SMS_5,28,5,42,127,238032364
3,4,T1_SMS_5,29,1,48,54,238062484
3,4,T1_SMS_5,30,5,42,127,238531912
3,4,T1_SMS_5,31,1,48,57,238537200
3,4,T1_SMS_5,32,1,48,39,238575100
3,4,T1_SMS_5,33,1,48,57,239022568
3,4,T1_SMS_5,34,5,42,127,239031580
3,4,T1_SMS_5,35,5,42,127,239532476
3,4,T1_SMS_5,36,1,48,53,239546212
3,4,T1_SMS_5,37,5,42,127,240032320
3,4,T1_SMS_5,38,1,48,55,240052192
3,4,T1_SMS_5,39,5,42,127,240531796
3,4,T1_SMS_5,40,1,48,58,240544864
3,4,T1_SMS_5,41,1,48,55,241030124
3,4,T1_SMS_5,42,5,42,127,241031704
3,4,T1_SMS_5,43,1,48,43,241057400
3,4,T1_SMS_5,44,5,42,127,241532284
3,4,T1_SMS_5,45,1,48,55,241537276
3,4,T1_SMS_5,46,1,48,46,241562380
3,4,T1_SMS_5,47,5,42,127,242032104
3,4,T1_SMS_5,48,1,48,59,242045248
3,4,T1_SMS_5,49,5,42,127,242531576
3,4,T1_SMS_5,50,1,48,55,242544564
3,4,T1_SMS_5,51,1,48,56,243028884
3,4,T1_SMS_5,52,5,42,127,243032584
3,4,T1_SMS_5,53,1,48,43,243062120
3,4,T1_SMS_5,54,5,42,127,243532116
3,4,T1_SMS_5,55,1,48,54,243552984
3,4,T1_SMS_5,56,5,42,127,244031736
3,4,T1_SMS_5,57,1,48,55,244074296
3,4,T1_SMS_5,58,5,42,127,244531504
3,4,T1_SMS_5,59,1,48,57,244540980
3,4,T1_SMS_5,60,5,42,127,245032172
3,4,T1_SMS_5,61,1,48,54,245041500
3,4,T1_SMS_5,62,5,42,127,245531940
3,4,T1_SMS_5,63,1,48,53,245544556
3,4,T1_SMS_5,64,1,48,53,246006756
3,4,T1_SMS_5,65,5,42,127,246031704
3,4,T1_SMS_5,66,5,42,127,246531404
3,4,T1_SMS_5,67,1,48,62,246542528
3,4,T1_SMS_5,68,1,48,59,247022308
3,4,T1_SMS_5,69,5,42,127,247032140
3,4,T1_SMS_5,70,5,42,127,247531844
3,4,T1_SMS_5,71,1,48,53,247534888
3,4,T1_SMS_5,72,1,48,35,247572336
3,4,T1_SMS_5,73,5,42,127,248031664
3,4,T1_SMS_5,74,1,48,55,248062904
3,4,T1_SMS_5,75,1,48,67,248492424
3,4,T1_SMS_5,76,5,42,127,248532476
3,4,T1_SMS_5,77,1,48,58,249011644
3,4,T1_SMS_5,78,5,42,127,249031948
3,4,T1_SMS_5,79,1,48,58,249525700
3,4,T1_SMS_5,80,5,42,127,249531940
3,4,T1_SMS_5,81,5,42,127,250031496
3,4,T1_SMS_5,82,1,48,58,250036180
3,4,T1_SMS_5,83,5,42,127,250532164
3,4,T1_SMS_5,84,1,48,56,250546948
3,4,T1_SMS_5,85,5,42,127,251031856
3,4,T1_SMS_5,86,1,48,58,251045296
3,4,T1_SMS_5,87,5,42,127,251531480
3,4,T1_SMS_5,88,1,48,59,251546264
3,4,T1_SMS_5,89,5,42,127,252032444
3,4,T1_SMS_5,90,1,48,61,252057928
3,4,T1_SMS_5,91,5,42,127,252532136
3,4,T1_SMS_5,92,1,48,59,252546024
3,4,T1_SMS_5,93,1,48,47,252570768
3,4,T1_SMS_5,94,5,42,127,253031812
3,4,T1_SMS_5,95,1,48,59,253040612
3,4,T1_SMS_5,96,5,42,127,253531508
3,4,T1_SMS_5,97,1,48,56,253539112
3,4,T1_SMS_5,98,5,42,127,254032300
3,4,T1_SMS_5,99,1,48,51,254063644
3,4,T1_SMS_5,100,1,48,34,254106476
3,4,T1_SMS_5,101,5,42,127,254532048
3,4,T1_SMS_5,102,1,48,54,254553792
3,4,T1_SMS_5,103,5,42,127,255031744
3,4,T1_SMS_5,104,1,48,55,255056252
3,4,T1_SMS_5,105,5,42,127,255532412
3,4,T1_SMS_5,106,1,48,48,255544056
3,4,T1_SMS_5,107,5,42,127,256032032
3,4,T1_SMS_5,108,1,48,52,256053848
3,4,T1_SMS_5,109,1,48,41,256081576
3,4,T1_SMS_5,110,5,42,127,256531856
3,4,T1_SMS_5,111,1,48,51,256553448
3,4,T1_SMS_5,112,5,42,127,257031624
3,4,T1_SMS_5,113,1,48,46,257054412
3,4,T1_SMS_5,114,5,42,127,257532220
3,4,T1_SMS_5,115,1,48,45,257547008
3,4,T1_SMS_5,116,5,42,127,258031840
3,4,T1_SMS_5,117,1,48,44,258058744
3,4,T1_SMS_5,118,5,42,127,258531680
3,4,T1_SMS_5,119,1,48,50,258534800
3,4,T1_SMS_5,120,5,42,127,259032424
3,4,T1_SMS_5,121,1,48,49,259033760
3,4,T1_SMS_5,122,5,42,127,259532120
3,4,T1_SMS_5,123,1,48,52,259553112
3,4,T1_SMS_5,124,1,48,42,259580916
3,4,T1_SMS_5,125,1,48,49,260027640
3,4,T1_SMS_5,126,5,42,127,260031788
3,4,T1_SMS_5,127,5,42,127,260531564
3,4,T1_SMS_5,128,1,48,54,260542308
3,4,T1_SMS_5,129,5,42,127,261032380
3,4,T1_SMS_5,130,1,48,48,261059508
3,4,T1_SMS_5,131,1,48,44,261522384
3,4,T1_SMS_5,132,5,42,127,261531992
3,4,T1_SMS_5,133,5,42,127,262031696
3,4,T1_SMS_5,134,1,48,51,262039608
3,4,T1_SMS_5,135,1,48,51,262527612
3,4,T1_SMS_5,136,5,42,127,262531532
3,4,T1_SMS_5,137,5,42,127,263032136
3,4,T1_SMS_5,138,1,48,50,263052680
3,4,T1_SMS_5,139,1,48,40,263082724
3,4,T1_SMS_5,140,5,42,127,263531732
3,4,T1_SMS_5,141,1,48,48,263536872
3,4,T1_SMS_5,142,1,48,51,264029988
3,4,T1_SMS_5,143,5,42,127,264031568
3,4,T1_SMS_5,144,5,42,127,264532588
3,4,T1_SMS_5,145,1,48,51,264536760
3,4,T1_SMS_5,146,5,42,127,265031912
3,4,T1_SMS_5,147,1,48,46,265045576
3,4,T1_SMS_5,148,1,48,47,265530480
3,4,T1_SMS_5,149,5,42,127,265532124
3,4,T1_SMS_5,150,5,42,127,266031680
3,4,T1_SMS_5,151,1,48,43,266034948
3,4,T1_SMS_5,152,5,42,127,266532196
3,4,T1_SMS_5,153,1,48,42,266543544
3,4,T1_SMS_5,154,5,42,127,267031892
3,4,T1_SMS_5,155,1,48,40,267035084
3,4,T1_SMS_5,156,1,48,45,267517784
3,4,T1_SMS_5,157,5,42,127,267531656
3,4,T1_SMS_5,158,1,48,51,268009024
3,4,T1_SMS_5,159,5,42,127,268032468
3,4,T1_SMS_5,160,1,48,59,268530964
3,4,T1_SMS_5,161,5,42,127,268532612
3,4,T1_SMS_5,162,5,42,127,269031644
3,4,T1_SMS_5,163,1,48,57,269049496
3,4,T1_SMS_5,164,1,48,55,269520448
3,4,T1_SMS_5,165,5,42,127,269531552
3,4,T1_SMS_5,166,5,42,127,270032376
3,4,T1_SMS_5,167,1,48,54,270046720
3,4,T1_SMS_5,168,5,42,127,270531924
3,4,T1_SMS_5,169,1,48,53,270550972
3,4,T1_SMS_5,170,5,42,127,271031692
3,4,T1_SMS_5,171,1,48,53,271062708
3,4,T1_SMS_5,172,5,42,127,271532288
3,4,T1_SMS_5,173,1,48,55,271560684
3,4,T1_SMS_5,174,5,42,127,272032056
3,4,T1_SMS_5,175,1,48,51,272071300
3,4,T1_SMS_5,176,5,42,127,272531748
3,4,T1_SMS_5,177,1,48,58,272555436
3,4,T1_SMS_5,178,5,42,127,273031516
3,4,T1_SMS_5,179,1,48,61,273046756
3,4,T1_SMS_5,180,5,42,127,273532184
3,4,T1_SMS_5,181,1,48,59,273535748
3,4,T1_SMS_5,182,5,42,127,274031956
3,4,T1_SMS_5,183,1,48,56,274047120
3,4,T1_SMS_5,184,1,48,43,274074392
3,4,T1_SMS_5,185,1,48,59,274515776
3,4,T1_SMS_5,186,5,42,127,274531696
3,4,T1_SMS_5,187,1,48,50,274539960
3,4,T1_SMS_5,188,5,42,127,275032396
3,4,T1_SMS_5,189,1,48,54,275047284
3,4,T1_SMS_5,190,1,48,58,275525992
3,4,T1_SMS_5,191,5,42,127,275532160
3,4,T1_SMS_5,192,1,48,56,276023368
3,4,T1_SMS_5,193,5,42,127,276031780
3,4,T1_SMS_5,194,1,48,47,276047976
3,4,T1_SMS_5,195,5,42,127,276531680
3,4,T1_SMS_5,196,1,48,57,276533324
3,4,T1_SMS_5,197,1,48,45,276560136
3,4,T1_SMS_5,198,5,42,127,277032400
3,4,T1_SMS_5,199,1,48,55,277044192
3,4,T1_SMS_5,200,1,48,43,277071476
3,4,T1_SMS_5,201,1,48,55,277519916
3,4,T1_SMS_5,202,5,42,127,277532140
3,4,T1_SMS_5,203,1,48,43,277548412
3,4,T1_SMS_5,204,1,48,56,278030696
3,4,T1_SMS_5,205,5,42,127,278032416
3,4,T1_SMS_5,206,1,48,46,278056088
3,4,T1_SMS_5,207,1,48,52,278531868
3,4,T1_SMS_5,208,5,42,127,278533136
3,4,T1_SMS_5,209,5,42,127,279032088
3,4,T1_SMS_5,210,1,48,55,279054432
3,4,T1_SMS_5,211,1,48,44,279079020
3,4,T1_SMS_5,212,5,42,127,279531836
3,4,T1_SMS_5,213,1,48,54,279533544
3,4,T1_SMS_5,214,1,48,46,279558720
3,4,T1_SMS_5,215,5,42,127,280031508
3,4,T1_SMS_5,216,1,48,57,280045096
3,4,T1_SMS_5,217,1,48,46,280072308
3,4,T1_SMS_5,218,1,48,53,280506612
3,4,T1_SMS_5,219,5,42,127,280532224
3,4,T1_SMS_5,220,1,48,53,281031168
3,4,T1_SMS_5,221,5,42,127,281032660
3,4,T1_SMS_5,222,1,48,54,281525816
3,4,T1_SMS_5,223,5,42,127,281531836
3,4,T1_SMS_5,224,1,48,56,282029028
3,4,T1_SMS_5,225,5,42,127,282031532
3,4,T1_SMS_5,226,1,48,42,282057976
3,4,T1_SMS_5,227,5,42,127,282532256
3,4,T1_SMS_5,228,1,48,56,282537548
3,4,T1_SMS_5,229,1,48,43,282567516
3,4,T1_SMS_5,230,5,42,127,283032004
3,4,T1_SMS_5,231,1,48,52,283035568
3,4,T1_SMS_5,232,1,48,41,283065400
3,4,T1_SMS_5,233,5,42,127,283531828
3,4,T1_SMS_5,234,1,48,50,283545648
3,4,T1_SMS_5,235,5,42,127,284032348
3,4,T1_SMS_5,236,1,48,51,284039056
3,4,T1_SMS_5,237,1,48,41,284066332
3,4,T1_SMS_5,238,1,48,47,284525172
3,4,T1_SMS_5,239,5,42,127,284532016
3,4,T1_SMS_5,240,5,42,127,285031716
3,4,T1_SMS_5,241,1,48,48,285032680
3,4,T1_SMS_5,242,5,42,127,285531560
3,4,T1_SMS_5,243,1,48,49,285538044
3,4,T1_SMS_5,244,5,42,127,286032128
3,4,T1_SMS_5,245,1,48,56,286060632
3,4,T1_SMS_5,246,1,48,42,286088880
3,4,T1_SMS_5,247,1,48,55,286528392
3,4,T1_SMS_5,248,5,42,127,286532020
3,4,T1_SMS_5,249,1,48,44,286554148
3,4,T1_SMS_5,250,5,42,127,287031848
3,4,T1_SMS_5,251,1,48,54,287039756
3,4,T1_SMS_5,252,1,48,48,287511684
3,4,T1_SMS_5,253,5,42,127,287532508
3,4,T1_SMS_5,254,5,42,127,288031988
3,4,T1_SMS_5,255,1,48,59,288052532
3,4,T1_SMS_5,256,1,48,43,288084672
3,4,T1_SMS_5,257,1,48,56,288509404
3,4,T1_SMS_5,258,5,42,127,288531952
3,4,T1_SMS_5,259,1,48,43,288536852
3,4,T1_SMS_5,260,1,48,54,289009824
3,4,T1_SMS_5,261,5,42,127,289031472
3,4,T1_SMS_5,262,1,48,43,289036600
3,4,T1_SMS_5,263,1,48,54,289502912
3,4,T1_SMS_5,264,5,42,127,289532192
3,4,T1_SMS_5,265,1,48,60,290011132
3,4,T1_SMS_5,266,5,42,127,290031888
3,4,T1_SMS_5,267,1,48,54,290510752
3,4,T1_SMS_5,268,5,42,127,290531952
3,4,T1_SMS_5,269,1,48,43,290541044
3,4,T1_SMS_5,270,1,48,59,291019928
3,4,T1_SMS_5,271,5,42,127,291032528
3,4,T1_SMS_5,272,1,48,45,291052012
3,4,T1_SMS_5,273,1,48,51,291519076
3,4,T1_SMS_5,274,5,42,127,291532276
3,4,T1_SMS_5,275,5,42,127,292031976
3,4,T1_SMS_5,276,1,48,56,292035168
3,4,T1_SMS_5,277,1,48,45,292063120
3,4,T1_SMS_5,278,1,48,51,292507600
3,4,T1_SMS_5,279,5,42,127,292531720
3,4,T1_SMS_5,280,5,42,127,293032316
3,4,T1_SMS_5,281,1,48,59,293047104
3,4,T1_SMS_5,282,5,42,127,293531940
3,4,T1_SMS_5,283,1,48,54,293549272
3,4,T1_SMS_5,284,1,48,44,293577072
3,4,T1_SMS_5,285,5,42,127,294031908
3,4,T1_SMS_5,286,1,48,61,294051780
3,4,T1_SMS_5,287,1,48,46,294084000
3,4,T1_SMS_5,288,5,42,127,294531508
3,4,T1_SMS_5,289,1,48,55,294536120
3,4,T1_SMS_5,290,1,48,42,294565344
3,4,T1_SMS_5,291,5,42,127,295032080
3,4,T1_SMS_5,292,1,48,59,295051728
3,4,T1_SMS_5,293,1,48,46,295080580
3,4,T1_SMS_5,294,1,48,52,295530008
3,4,T1_SMS_5,295,5,42,127,295531820
3,4,T1_SMS_5,0,9999,9999,9999,231029816
3,4,T1_SMS_5,1,9999,9999,9999,231529536
3,4,T1_SMS_5,2,9999,9999,9999,232029252
3,4,T1_SMS_5,3,9999,9999,9999,232529988
3,4,T1_SMS_5,4,9999,9999,9999,233029704
3,4,T1_SMS_5,5,9999,9999,9999,233529400
3,4,T1_SMS_5,6,9999,9999,9999,234029172
3,4,T1_SMS_5,7,9999,9999,9999,234529912
3,4,T1_SMS_5,8,9999,9999,9999,235029600
3,4,T1_SMS_5,9,9999,9999,9999,235529304
3,4,T1_SMS_5,10,9999,9999,9999,236030020
3,4,T1_SMS_5,11,9999,9999,9999,236529768
3,4,T1_SMS_5,12,9999,9999,9999,237029440
3,4,T1_SMS_5,13,9999,9999,9999,237529180
3,4,T1_SMS_5,14,9999,9999,9999,238029928
3,4,T1_SMS_5,15,9999,9999,9999,238529624
3,4,T1_SMS_5,16,9999,9999,9999,239029368
3,4,T1_SMS_5,17,9999,9999,9999,239530040
3,4,T1_SMS_5,18,9999,9999,9999,240029808
3,4,T1_SMS_5,19,9999,9999,9999,240529508
3,4,T1_SMS_5,20,9999,9999,9999,241029200
3,4,T1_SMS_5,21,9999,9999,9999,241529920
3,4,T1_SMS_5,22,9999,9999,9999,242029668
3,4,T1_SMS_5,23,9999,9999,9999,242529364
3,4,T1_SMS_5,24,9999,9999,9999,243030076
3,4,T1_SMS_5,25,9999,9999,9999,243529832
3,4,T1_SMS_5,26,9999,9999,9999,244029524
3,4,T1_SMS_5,27,9999,9999,9999,244529220
3,4,T1_SMS_5,28,9999,9999,9999,245029960
3,4,T1_SMS_5,29,9999,9999,9999,245529652
3,4,T1_SMS_5,30,9999,9999,9999,246029420
3,4,T1_SMS_5,31,9999,9999,9999,246529120
3,4,T1_SMS_5,32,9999,9999,9999,247029856
3,4,T1_SMS_5,33,9999,9999,9999,247529556
3,4,T1_SMS_5,34,9999,9999,9999,248029304
3,4,T1_SMS_5,35,9999,9999,9999,248530040
3,4,T1_SMS_5,36,9999,9999,9999,249029736
3,4,T1_SMS_5,37,9999,9999,9999,249529432
3,4,T1_SMS_5,38,9999,9999,9999,250029132
3,4,T1_SMS_5,39,9999,9999,9999,250529876
3,4,T1_SMS_5,40,9999,9999,9999,251029572
3,4,T1_SMS_5,41,9999,9999,9999,251529268
3,4,T1_SMS_5,42,9999,9999,9999,252030008
3,4,T1_SMS_5,43,9999,9999,9999,252529776
3,4,T1_SMS_5,44,9999,9999,9999,253029452
3,4,T1_SMS_5,45,9999,9999,9999,253529196
3,4,T1_SMS_5,46,9999,9999,9999,254029936
3,4,T1_SMS_5,47,9999,9999,9999,254529612
3,4,T1_SMS_5,48,9999,9999,9999,255029308
3,4,T1_SMS_5,49,9999,9999,9999,255530048
3,4,T1_SMS_5,50,9999,9999,9999,256029744
3,4,T1_SMS_5,51,9999,9999,9999,256529492
3,4,T1_SMS_5,52,9999,9999,9999,257029188
3,4,T1_SMS_5,53,9999,9999,9999,257529932
3,4,T1_SMS_5,54,9999,9999,9999,258029628
3,4,T1_SMS_5,55,9999,9999,9999,258529396
3,4,T1_SMS_5,56,9999,9999,9999,259030136
3,4,T1_SMS_5,57,9999,9999,9999,259529832
3,4,T1_SMS_5,58,9999,9999,9999,260029500
3,4,T1_SMS_5,59,9999,9999,9999,260529204
3,4,T1_SMS_5,60,9999,9999,9999,261029944
3,4,T1_SMS_5,61,9999,9999,9999,261529708
3,4,T1_SMS_5,62,9999,9999,9999,262029408
3,4,T1_SMS_5,63,9999,9999,9999,262529100
3,4,T1_SMS_5,64,9999,9999,9999,263029848
3,4,T1_SMS_5,65,9999,9999,9999,263529520
3,4,T1_SMS_5,66,9999,9999,9999,264029296
3,4,T1_SMS_5,67,9999,9999,9999,264530008
3,4,T1_SMS_5,68,9999,9999,9999,265029700
3,4,T1_SMS_5,69,9999,9999,9999,265529396
3,4,T1_SMS_5,70,9999,9999,9999,266029168
3,4,T1_SMS_5,71,9999,9999,9999,266529912
3,4,T1_SMS_5,72,9999,9999,9999,267029604
3,4,T1_SMS_5,73,9999,9999,9999,267529296
3,4,T1_SMS_5,74,9999,9999,9999,268030036
3,4,T1_SMS_5,75,9999,9999,9999,268529736
3,4,T1_SMS_5,76,9999,9999,9999,269029428
3,4,T1_SMS_5,77,9999,9999,9999,269529192
3,4,T1_SMS_5,78,9999,9999,9999,270029940
3,4,T1_SMS_5,79,9999,9999,9999,270529636
3,4,T1_SMS_5,80,9999,9999,9999,271029332
3,4,T1_SMS_5,81,9999,9999,9999,271530076
3,4,T1_SMS_5,82,9999,9999,9999,272029768
3,4,T1_SMS_5,83,9999,9999,9999,272529464
3,4,T1_SMS_5,84,9999,9999,9999,273029232
3,4,T1_SMS_5,85,9999,9999,9999,273529972
3,4,T1_SMS_5,86,9999,9999,9999,274029668
3,4,T1_SMS_5,87,9999,9999,9999,274529336
3,4,T1_SMS_5,88,9999,9999,9999,275030112
3,4,T1_SMS_5,89,9999,9999,9999,275529800
3,4,T1_SMS_5,90,9999,9999,9999,276029492
3,4,T1_SMS_5,91,9999,9999,9999,276529248
3,4,T1_SMS_5,92,9999,9999,9999,277029964
3,4,T1_SMS_5,93,9999,9999,9999,277529704
3,4,T1_SMS_5,94,9999,9999,9999,278029384
3,4,T1_SMS_5,95,9999,9999,9999,278529132
3,4,T1_SMS_5,96,9999,9999,9999,279029876
3,4,T1_SMS_5,97,9999,9999,9999,279529548
3,4,T1_SMS_5,98,9999,9999,9999,280029296
3,4,T1_SMS_5,99,9999,9999,9999,280530012
3,4,T1_SMS_5,100,9999,9999,9999,281029712
3,4,T1_SMS_5,101,9999,9999,9999,281529400
3,4,T1_SMS_5,102,9999,9999,9999,282029172
3,4,T1_SMS_5,103,9999,9999,9999,282529896
3,4,T1_SMS_5,104,9999,9999,9999,283029572
3,4,T1_SMS_5,105,9999,9999,9999,283529320
3,4,T1_SMS_5,106,9999,9999,9999,284030060
3,4,T1_SMS_5,107,9999,9999,9999,284529728
3,4,T1_SMS_5,108,9999,9999,9999,285029428
3,4,T1_SMS_5,109,9999,9999,9999,285529200
3,4,T1_SMS_5,110,9999,9999,9999,286029916
3,4,T1_SMS_5,111,9999,9999,9999,286529656
3,4,T1_SMS_5,112,9999,9999,9999,287029336
3,4,T1_SMS_5,113,9999,9999,9999,287530072
3,4,T1_SMS_5,114,9999,9999,9999,288029772
3,4,T1_SMS_5,115,9999,9999,9999,288529516
3,4,T1_SMS_5,116,9999,9999,9999,289029188
3,4,T1_SMS_5,117,9999,9999,9999,289529908
3,4,T1_SMS_5,118,9999,9999,9999,290029676
3,4,T1_SMS_5,119,9999,9999,9999,290529368
3,4,T1_SMS_5,120,9999,9999,9999,291030092
3,4,T1_SMS_5,121,9999,9999,9999,291529840
3,4,T1_SMS_5,122,9999,9999,9999,292029540
3,4,T1_SMS_5,123,9999,9999,9999,292529208
3,4,T1_SMS_5,124,9999,9999,9999,293029956
3,4,T1_SMS_5,125,9999,9999,9999,293529652
3,4,T1_SMS_5,126,9999,9999,9999,294029400
3,4,T1_SMS_5,127,9999,9999,9999,294529072
3,4,T1_SMS_5,128,9999,9999,9999,295029868
3,4,T1_SMS_5,129,9999,9999,9999,295529560
4,2,T1_SMS_8,0,5,42,127,363056996
4,2,T1_SMS_8,1,5,42,127,363857200
4,2,T1_SMS_8,2,1,48,54,364633304
4,2,T1_SMS_8,3,5,42,127,364656976
4,2,T1_SMS_8,4,1,48,56,365438200
4,2,T1_SMS_8,5,5,42,127,365456856
4,2,T1_SMS_8,6,5,42,127,366256744
4,2,T1_SMS_8,7,1,48,57,366274600
4,2,T1_SMS_8,8,5,42,127,367057304
4,2,T1_SMS_8,9,1,48,59,367060940
4,2,T1_SMS_8,10,5,42,127,367857036
4,2,T1_SMS_8,11,1,48,61,367875032
4,2,T1_SMS_8,12,1,48,49,367902240
4,2,T1_SMS_8,13,5,42,127,368656748
4,2,T1_SMS_8,14,1,48,55,368671760
4,2,T1_SMS_8,15,1,48,46,368696944
4,2,T1_SMS_8,16,5,42,127,369456608
4,2,T1_SMS_8,17,1,48,53,369504100
4,2,T1_SMS_8,18,1,48,43,369532580
4,2,T1_SMS_8,19,1,48,51,370232188
4,2,T1_SMS_8,20,5,42,127,370257208
4,2,T1_SMS_8,21,1,48,39,370261804
4,2,T1_SMS_8,22,5,42,127,371057152
4,2,T1_SMS_8,23,1,48,57,371071340
4,2,T1_SMS_8,24,1,48,43,371100864
4,2,T1_SMS_8,25,5,42,127,371856712
4,2,T1_SMS_8,26,1,48,57,371889076
4,2,T1_SMS_8,27,5,42,127,372656596
4,2,T1_SMS_8,28,1,48,55,372675720
4,2,T1_SMS_8,29,1,48,46,372700832
4,2,T1_SMS_8,30,5,42,127,373457356
4,2,T1_SMS_8,31,1,48,52,373504976
4,2,T1_SMS_8,32,1,48,45,373529044
4,2,T1_SMS_8,33,5,42,127,374256996
4,2,T1_SMS_8,34,1,48,57,374344404
4,2,T1_SMS_8,35,1,48,47,374371260
4,2,T1_SMS_8,36,5,42,127,375056704
4,2,T1_SMS_8,37,1,48,54,375106344
4,2,T1_SMS_8,38,5,42,127,375856440
4,2,T1_SMS_8,39,1,48,40,375934452
4,2,T1_SMS_8,40,5,42,127,376657440
4,2,T1_SMS_8,41,1,48,48,376711944
4,2,T1_SMS_8,42,1,48,41,376744608
4,2,T1_SMS_8,43,5,42,127,377457076
4,2,T1_SMS_8,44,1,48,60,378189376
4,2,T1_SMS_8,45,5,42,127,378256676
4,2,T1_SMS_8,46,5,42,127,379056416
4,2,T1_SMS_8,47,1,48,59,379068736
4,2,T1_SMS_8,48,1,48,49,379090776
4,2,T1_SMS_8,49,1,48,55,379856792
4,2,T1_SMS_8,50,5,42,127,379858364
4,2,T1_SMS_8,51,5,42,127,380656908
4,2,T1_SMS_8,52,1,48,54,380694504
4,2,T1_SMS_8,53,5,42,127,381456640
4,2,T1_SMS_8,54,1,48,52,381473368
4,2,T1_SMS_8,55,5,42,127,382256596
4,2,T1_SMS_8,56,1,48,57,382279764
4,2,T1_SMS_8,57,1,48,50,382304300
4,2,T1_SMS_8,58,5,42,127,383057432
4,2,T1_SMS_8,59,1,48,54,383086376
4,2,T1_SMS_8,60,5,42,127,383856892
4,2,T1_SMS_8,61,1,48,53,383878560
4,2,T1_SMS_8,62,5,42,127,384656624
4,2,T1_SMS_8,63,1,48,54,384664448
4,2,T1_SMS_8,64,1,48,44,384689192
4,2,T1_SMS_8,65,1,48,54,385454736
4,2,T1_SMS_8,66,5,42,127,385456404
4,2,T1_SMS_8,67,1,48,56,386249824
4,2,T1_SMS_8,68,5,42,127,386257260
4,2,T1_SMS_8,69,1,48,46,386277420
4,2,T1_SMS_8,70,5,42,127,387057276
4,2,T1_SMS_8,71,1,48,51,387081488
4,2,T1_SMS_8,72,1,48,49,387845820
4,2,T1_SMS_8,73,5,42,127,387856704
4,2,T1_SMS_8,74,1,48,42,387871320
4,2,T1_SMS_8,75,5,42,127,388656420
4,2,T1_SMS_8,76,1,48,55,388668888
4,2,T1_SMS_8,77,1,48,43,388698808
4,2,T1_SMS_8,78,5,42,127,389457324
4,2,T1_SMS_8,79,1,48,55,389496144
4,2,T1_SMS_8,80,1,48,44,389524096
4,2,T1_SMS_8,81,1,48,48,390252008
4,2,T1_SMS_8,82,5,42,127,390257280
4,2,T1_SMS_8,83,1,48,50,391053392
4,2,T1_SMS_8,84,5,42,127,391056640
4,2,T1_SMS_8,85,5,42,127,391856456
4,2,T1_SMS_8,86,1,48,52,391867504
4,2,T1_SMS_8,87,5,42,127,392657160
4,2,T1_SMS_8,88,1,48,59,392679200
4,2,T1_SMS_8,89,5,42,127,393457116
4,2,T1_SMS_8,90,1,48,60,393486036
4,2,T1_SMS_8,91,5,42,127,394256704
4,2,T1_SMS_8,92,1,48,62,394266700
4,2,T1_SMS_8,93,5,42,127,395056360
4,2,T1_SMS_8,94,1,48,59,395057328
4,2,T1_SMS_8,95,5,42,127,395857292
4,2,T1_SMS_8,96,1,48,62,395880104
4,2,T1_SMS_8,97,1,48,53,396648180
4,2,T1_SMS_8,98,5,42,127,396656968
4,2,T1_SMS_8,99,5,42,127,397456784
4,2,T1_SMS_8,100,1,48,65,397462440
4,2,T1_SMS_8,101,5,42,127,398256368
4,2,T1_SMS_8,102,1,48,76,398273172
4,2,T1_SMS_8,103,5,42,127,399057224
4,2,T1_SMS_8,104,1,48,75,399072904
4,2,T1_SMS_8,105,1,48,60,399092700
4,2,T1_SMS_8,106,5,42,127,399856932
4,2,T1_SMS_8,107,1,48,66,399872912
4,2,T1_SMS_8,108,5,42,127,400656892
4,2,T1_SMS_8,109,1,48,65,400671676
4,2,T1_SMS_8,110,1,48,64,401436688
4,2,T1_SMS_8,111,5,42,127,401456392
4,2,T1_SMS_8,112,1,48,65,402195276
4,2,T1_SMS_8,113,1,48,50,402218372
4,2,T1_SMS_8,114,5,42,127,402257224
4,2,T1_SMS_8,115,1,48,61,403049672
4,2,T1_SMS_8,116,5,42,127,403056884
4,2,T1_SMS_8,117,1,48,59,403839604
4,2,T1_SMS_8,118,5,42,127,403856692
4,2,T1_SMS_8,119,1,48,54,404608148
4,2,T1_SMS_8,120,5,42,127,404656500
4,2,T1_SMS_8,121,1,48,57,405442960
4,2,T1_SMS_8,122,5,42,127,405457280
4,2,T1_SMS_8,123,1,48,60,406241044
4,2,T1_SMS_8,124,5,42,127,406256940
4,2,T1_SMS_8,125,1,48,61,407025516
4,2,T1_SMS_8,126,5,42,127,407056600
4,2,T1_SMS_8,127,1,48,56,407848740
4,2,T1_SMS_8,128,5,42,127,407856556
4,2,T1_SMS_8,129,1,48,58,408653040
4,2,T1_SMS_8,130,5,42,127,408657436
4,2,T1_SMS_8,131,1,48,57,409445912
4,2,T1_SMS_8,132,5,42,127,409456944
4,2,T1_SMS_8,133,1,48,59,410241908
4,2,T1_SMS_8,134,5,42,127,410256680
4,2,T1_SMS_8,135,1,48,65,411027356
4,2,T1_SMS_8,136,5,42,127,411056636
4,2,T1_SMS_8,137,1,48,62,411830756
4,2,T1_SMS_8,138,1,48,54,411850104
4,2,T1_SMS_8,139,5,42,127,411857172
4,2,T1_SMS_8,140,5,42,127,412657060
4,2,T1_SMS_8,141,1,48,51,412709024
4,2,T1_SMS_8,142,5,42,127,413456716
4,2,T1_SMS_8,143,1,48,65,413537052
4,2,T1_SMS_8,144,1,48,54,413562460
4,2,T1_SMS_8,145,5,42,127,414256428
4,2,T1_SMS_8,146,1,48,57,414316568
4,2,T1_SMS_8,147,5,42,127,415057160
4,2,T1_SMS_8,148,1,48,59,415097380
4,2,T1_SMS_8,149,5,42,127,415856968
4,2,T1_SMS_8,150,1,48,59,415862180
4,2,T1_SMS_8,151,1,48,51,416633100
4,2,T1_SMS_8,152,5,42,127,416656624
4,2,T1_SMS_8,153,1,48,59,417435448
4,2,T1_SMS_8,154,5,42,127,417456580
4,2,T1_SMS_8,155,1,48,55,418254776
4,2,T1_SMS_8,156,5,42,127,418257432
4,2,T1_SMS_8,157,1,48,54,419044188
4,2,T1_SMS_8,158,5,42,127,419056944
4,2,T1_SMS_8,159,5,42,127,419856832
4,2,T1_SMS_8,160,1,48,54,419863164
4,2,T1_SMS_8,161,1,48,44,420633112
4,2,T1_SMS_8,162,5,42,127,420656484
4,2,T1_SMS_8,163,1,48,65,421454912
4,2,T1_SMS_8,164,5,42,127,421457360
4,2,T1_SMS_8,165,5,42,127,422256956
4,2,T1_SMS_8,166,1,48,60,422262016
4,2,T1_SMS_8,167,1,48,70,423049396
4,2,T1_SMS_8,168,5,42,127,423056832
4,2,T1_SMS_8,169,1,48,68,423852120
4,2,T1_SMS_8,170,5,42,127,423856492
4,2,T1_SMS_8,171,1,48,57,423872156
4,2,T1_SMS_8,172,5,42,127,424657256
4,2,T1_SMS_8,173,1,48,53,424672788
4,2,T1_SMS_8,174,5,42,127,425457284
4,2,T1_SMS_8,175,1,48,69,425493988
4,2,T1_SMS_8,176,1,48,67,426235584
4,2,T1_SMS_8,177,5,42,127,426256716
4,2,T1_SMS_8,178,1,48,75,427026044
4,2,T1_SMS_8,179,1,48,58,427046368
4,2,T1_SMS_8,180,5,42,127,427056428
4,2,T1_SMS_8,181,1,48,66,427834884
4,2,T1_SMS_8,182,1,48,54,427854756
4,2,T1_SMS_8,183,5,42,127,427857360
4,2,T1_SMS_8,184,5,42,127,428657028
4,2,T1_SMS_8,185,1,48,72,428677652
4,2,T1_SMS_8,186,1,48,66,429450292
4,2,T1_SMS_8,187,5,42,127,429456756
4,2,T1_SMS_8,188,1,48,69,430248452
4,2,T1_SMS_8,189,5,42,127,430256564
4,2,T1_SMS_8,190,5,42,127,431057128
4,2,T1_SMS_8,191,1,48,64,431072512
4,2,T1_SMS_8,192,5,42,127,431857088
4,2,T1_SMS_8,193,1,48,68,431873520
4,2,T1_SMS_8,194,1,48,58,431893240
4,2,T1_SMS_8,195,5,42,127,432656724
4,2,T1_SMS_8,196,1,48,57,432667320
4,2,T1_SMS_8,197,5,42,127,433456532
4,2,T1_SMS_8,198,1,48,66,433467052
4,2,T1_SMS_8,199,1,48,61,434248220
4,2,T1_SMS_8,200,5,42,127,434257328
4,2,T1_SMS_8,201,1,48,65,435039676
4,2,T1_SMS_8,202,5,42,127,435057136
4,2,T1_SMS_8,203,5,42,127,435856880
4,2,T1_SMS_8,204,1,48,67,435859700
4,2,T1_SMS_8,205,5,42,127,436656536
4,2,T1_SMS_8,206,1,48,68,436660852
4,2,T1_SMS_8,207,1,48,62,437438876
4,2,T1_SMS_8,208,5,42,127,437457312
4,2,T1_SMS_8,209,1,48,51,437459308
4,2,T1_SMS_8,210,1,48,72,438225348
4,2,T1_SMS_8,211,1,48,57,438245744
4,2,T1_SMS_8,212,5,42,127,438256928
4,2,T1_SMS_8,213,1,48,66,439045628
4,2,T1_SMS_8,214,5,42,127,439056812
4,2,T1_SMS_8,215,1,48,69,439852916
4,2,T1_SMS_8,216,5,42,127,439856616
4,2,T1_SMS_8,217,1,48,61,439869596
4,2,T1_SMS_8,218,5,42,127,440657332
4,2,T1_SMS_8,219,1,48,73,440674208
4,2,T1_SMS_8,220,1,48,63,441452984
4,2,T1_SMS_8,221,5,42,127,441456908
4,2,T1_SMS_8,222,1,48,67,442219432
4,2,T1_SMS_8,223,1,48,60,442236092
4,2,T1_SMS_8,224,5,42,127,442256844
4,2,T1_SMS_8,225,1,48,60,443010016
4,2,T1_SMS_8,226,5,42,127,443056652
4,2,T1_SMS_8,227,1,48,62,443851264
4,2,T1_SMS_8,228,5,42,127,443857356
4,2,T1_SMS_8,229,5,42,127,444657024
4,2,T1_SMS_8,230,1,48,62,444704268
4,2,T1_SMS_8,231,5,42,127,445456608
4,2,T1_SMS_8,232,1,48,58,445467576
4,2,T1_SMS_8,233,5,42,127,446256564
4,2,T1_SMS_8,234,1,48,59,446283844
4,2,T1_SMS_8,235,5,42,127,447057144
4,2,T1_SMS_8,236,1,48,55,447061384
4,2,T1_SMS_8,237,5,42,127,447856880
4,2,T1_SMS_8,238,1,48,65,447872116
4,2,T1_SMS_8,239,5,42,127,448656836
4,2,T1_SMS_8,240,1,48,61,448658396
4,2,T1_SMS_8,241,5,42,127,449456568
4,2,T1_SMS_8,242,1,48,56,449457532
4,2,T1_SMS_8,243,5,42,127,450257272
4,2,T1_SMS_8,244,1,48,61,450274152
4,2,T1_SMS_8,245,5,42,127,451057008
4,2,T1_SMS_8,246,1,48,64,451066556
4,2,T1_SMS_8,247,1,48,62,451840768
4,2,T1_SMS_8,248,5,42,127,451856736
4,2,T1_SMS_8,249,1,48,58,452641252
4,2,T1_SMS_8,250,5,42,127,452656620
4,2,T1_SMS_8,251,1,48,62,453450484
4,2,T1_SMS_8,252,5,42,127,453457200
4,2,T1_SMS_8,253,1,48,65,454255880
4,2,T1_SMS_8,254,5,42,127,454257604
4,2,T1_SMS_8,255,1,48,54,454275296
4,2,T1_SMS_8,256,5,42,127,455056876
4,2,T1_SMS_8,257,5,42,127,455856484
4,2,T1_SMS_8,258,1,48,61,455878752
4,2,T1_SMS_8,259,5,42,127,456657412
4,2,T1_SMS_8,260,1,48,64,456685432
4,2,T1_SMS_8,261,5,42,127,457456996
4,2,T1_SMS_8,262,1,48,60,457480236
4,2,T1_SMS_8,263,5,42,127,458256728
4,2,T1_SMS_8,264,1,48,62,458259476
4,2,T1_SMS_8,0,9999,9999,9999,363054184
4,2,T1_SMS_8,1,9999,9999,9999,363854908
4,2,T1_SMS_8,2,9999,9999,9999,364654684
4,2,T1_SMS_8,3,9999,9999,9999,365454416
4,2,T1_SMS_8,4,9999,9999,9999,366254156
4,2,T1_SMS_8,5,9999,9999,9999,367054936
4,2,T1_SMS_8,6,9999,9999,9999,367854668
4,2,T1_SMS_8,7,9999,9999,9999,368654456
4,2,T1_SMS_8,8,9999,9999,9999,369454168
4,2,T1_SMS_8,9,9999,9999,9999,370254920
4,2,T1_SMS_8,10,9999,9999,9999,371054712
4,2,T1_SMS_8,11,9999,9999,9999,371854420
4,2,T1_SMS_8,12,9999,9999,9999,372654156
4,2,T1_SMS_8,13,9999,9999,9999,373454916
4,2,T1_SMS_8,14,9999,9999,9999,374254700
4,2,T1_SMS_8,15,9999,9999,9999,375054412
4,2,T1_SMS_8,16,9999,9999,9999,375854148
4,2,T1_SMS_8,17,9999,9999,9999,376654928
4,2,T1_SMS_8,18,9999,9999,9999,377454712
4,2,T1_SMS_8,19,9999,9999,9999,378254384
4,2,T1_SMS_8,20,9999,9999,9999,379054124
4,2,T1_SMS_8,21,9999,9999,9999,379854956
4,2,T1_SMS_8,22,9999,9999,9999,380654692
4,2,T1_SMS_8,23,9999,9999,9999,381454424
4,2,T1_SMS_8,24,9999,9999,9999,382254156
4,2,T1_SMS_8,25,9999,9999,9999,383054916
4,2,T1_SMS_8,26,9999,9999,9999,383854672
4,2,T1_SMS_8,27,9999,9999,9999,384654408
4,2,T1_SMS_8,28,9999,9999,9999,385454136
4,2,T1_SMS_8,29,9999,9999,9999,386254968
4,2,T1_SMS_8,30,9999,9999,9999,387054684
4,2,T1_SMS_8,31,9999,9999,9999,387854412
4,2,T1_SMS_8,32,9999,9999,9999,388654128
4,2,T1_SMS_8,33,9999,9999,9999,389454960
4,2,T1_SMS_8,34,9999,9999,9999,390254692
4,2,T1_SMS_8,35,9999,9999,9999,391054424
4,2,T1_SMS_8,36,9999,9999,9999,391854164
4,2,T1_SMS_8,37,9999,9999,9999,392654944
4,2,T1_SMS_8,38,9999,9999,9999,393454676
4,2,T1_SMS_8,39,9999,9999,9999,394254412
4,2,T1_SMS_8,40,9999,9999,9999,395054144
4,2,T1_SMS_8,41,9999,9999,9999,395854924
4,2,T1_SMS_8,42,9999,9999,9999,396654676
4,2,T1_SMS_8,43,9999,9999,9999,397454416
4,2,T1_SMS_8,44,9999,9999,9999,398254148
4,2,T1_SMS_8,45,9999,9999,9999,399054932
4,2,T1_SMS_8,46,9999,9999,9999,399854640
4,2,T1_SMS_8,47,9999,9999,9999,400654452
4,2,T1_SMS_8,48,9999,9999,9999,401454176
4,2,T1_SMS_8,49,9999,9999,9999,402254936
4,2,T1_SMS_8,50,9999,9999,9999,403054668
4,2,T1_SMS_8,51,9999,9999,9999,403854400
4,2,T1_SMS_8,52,9999,9999,9999,404654136
4,2,T1_SMS_8,53,9999,9999,9999,405454916
4,2,T1_SMS_8,54,9999,9999,9999,406254648
4,2,T1_SMS_8,55,9999,9999,9999,407054384
4,2,T1_SMS_8,56,9999,9999,9999,407854188
4,2,T1_SMS_8,57,9999,9999,9999,408654896
4,2,T1_SMS_8,58,9999,9999,9999,409454656
4,2,T1_SMS_8,59,9999,9999,9999,410254388
4,2,T1_SMS_8,60,9999,9999,9999,411054196
4,2,T1_SMS_8,61,9999,9999,9999,411854952
4,2,T1_SMS_8,62,9999,9999,9999,412654692
4,2,T1_SMS_8,63,9999,9999,9999,413454424
4,2,T1_SMS_8,64,9999,9999,9999,414254140
4,2,T1_SMS_8,65,9999,9999,9999,415054916
4,2,T1_SMS_8,66,9999,9999,9999,415854676
4,2,T1_SMS_8,67,9999,9999,9999,416654404
4,2,T1_SMS_8,68,9999,9999,9999,417454140
4,2,T1_SMS_8,69,9999,9999,9999,418254920
4,2,T1_SMS_8,70,9999,9999,9999,419054652
4,2,T1_SMS_8,71,9999,9999,9999,419854392
4,2,T1_SMS_8,72,9999,9999,9999,420654192
4,2,T1_SMS_8,73,9999,9999,9999,421454972
4,2,T1_SMS_8,74,9999,9999,9999,422254664
4,2,T1_SMS_8,75,9999,9999,9999,423054392
4,2,T1_SMS_8,76,9999,9999,9999,423854124
4,2,T1_SMS_8,77,9999,9999,9999,424654964
4,2,T1_SMS_8,78,9999,9999,9999,425454696
4,2,T1_SMS_8,79,9999,9999,9999,426254424
4,2,T1_SMS_8,80,9999,9999,9999,427054136
4,2,T1_SMS_8,81,9999,9999,9999,427854896
4,2,T1_SMS_8,82,9999,9999,9999,428654664
4,2,T1_SMS_8,83,9999,9999,9999,429454388
4,2,T1_SMS_8,84,9999,9999,9999,430254200
4,2,T1_SMS_8,85,9999,9999,9999,431054912
4,2,T1_SMS_8,86,9999,9999,9999,431854644
4,2,T1_SMS_8,87,9999,9999,9999,432654432
4,2,T1_SMS_8,88,9999,9999,9999,433454164
4,2,T1_SMS_8,89,9999,9999,9999,434254944
4,2,T1_SMS_8,90,9999,9999,9999,435054696
4,2,T1_SMS_8,91,9999,9999,9999,435854436
4,2,T1_SMS_8,92,9999,9999,9999,436654172
4,2,T1_SMS_8,93,9999,9999,9999,437454944
4,2,T1_SMS_8,94,9999,9999,9999,438254708
4,2,T1_SMS_8,95,9999,9999,9999,439054444
4,2,T1_SMS_8,96,9999,9999,9999,439854176
4,2,T1_SMS_8,97,9999,9999,9999,440654964
4,2,T1_SMS_8,98,9999,9999,9999,441454692
4,2,T1_SMS_8,99,9999,9999,9999,442254404
4,2,T1_SMS_8,100,9999,9999,9999,443054136
4,2,T1_SMS_8,101,9999,9999,9999,443854916
4,2,T1_SMS_8,102,9999,9999,9999,444654656
4,2,T1_SMS_8,103,9999,9999,9999,445454388
4,2,T1_SMS_8,104,9999,9999,9999,446254196
4,2,T1_SMS_8,105,9999,9999,9999,447054928
4,2,T1_SMS_8,106,9999,9999,9999,447854660
4,2,T1_SMS_8,107,9999,9999,9999,448654396
4,2,T1_SMS_8,108,9999,9999,9999,449454128
4,2,T1_SMS_8,109,9999,9999,9999,450254908
4,2,T1_SMS_8,110,9999,9999,9999,451054644
4,2,T1_SMS_8,111,9999,9999,9999,451854444
4,2,T1_SMS_8,112,9999,9999,9999,452654180
4,2,T1_SMS_8,113,9999,9999,9999,453454908
4,2,T1_SMS_8,114,9999,9999,9999,454254648
4,2,T1_SMS_8,115,9999,9999,9999,455054436
4,2,T1_SMS_8,116,9999,9999,9999,455854192
4,2,T1_SMS_8,117,9999,9999,9999,456654896
4,2,T1_SMS_8,118,9999,9999,9999,457454704
4,2,T1_SMS_8,119,9999,9999,9999,458254436
5,10,Ticks_ISO_T2_5,0,5,42,127,468304200
5,10,Ticks_ISO_T2_5,1,5,42,127,468804040
5,10,Ticks_ISO_T2_5,2,1,48,40,469291152
5,10,Ticks_ISO_T2_5,3,5,42,127,469303600
5,10,Ticks_ISO_T2_5,4,1,48,65,469772892
5,10,Ticks_ISO_T2_5,5,5,42,127,469804344
5,10,Ticks_ISO_T2_5,6,1,48,62,470271840
5,10,Ticks_ISO_T2_5,7,5,42,127,470304040
5,10,Ticks_ISO_T2_5,8,1,48,65,470780140
5,10,Ticks_ISO_T2_5,9,5,42,127,470803956
5,10,Ticks_ISO_T2_5,10,1,48,62,471270784
5,10,Ticks_ISO_T2_5,11,5,42,127,471303504
5,10,Ticks_ISO_T2_5,12,1,48,69,471755440
5,10,Ticks_ISO_T2_5,13,5,42,127,471804244
5,10,Ticks_ISO_T2_5,14,1,48,73,472288200
5,10,Ticks_ISO_T2_5,15,5,42,127,472304016
5,10,Ticks_ISO_T2_5,16,5,42,127,472803568
5,10,Ticks_ISO_T2_5,17,1,48,74,472809228
5,10,Ticks_ISO_T2_5,18,1,48,49,472838160
5,10,Ticks_ISO_T2_5,19,5,42,127,473304360
5,10,Ticks_ISO_T2_5,20,1,48,70,473334032
5,10,Ticks_ISO_T2_5,21,1,48,48,473369464
5,10,Ticks_ISO_T2_5,22,5,42,127,473804256
5,10,Ticks_ISO_T2_5,23,1,48,65,473808500
5,10,Ticks_ISO_T2_5,24,1,48,43,473839968
5,10,Ticks_ISO_T2_5,25,5,42,127,474303856
5,10,Ticks_ISO_T2_5,26,1,48,71,474318644
5,10,Ticks_ISO_T2_5,27,1,48,70,474795656
5,10,Ticks_ISO_T2_5,28,5,42,127,474803544
5,10,Ticks_ISO_T2_5,29,5,42,127,475304368
5,10,Ticks_ISO_T2_5,30,1,48,73,475322896
5,10,Ticks_ISO_T2_5,31,5,42,127,475803988
5,10,Ticks_ISO_T2_5,32,1,48,65,475806736
5,10,Ticks_ISO_T2_5,33,1,48,62,476293472
5,10,Ticks_ISO_T2_5,34,5,42,127,476303828
5,10,Ticks_ISO_T2_5,35,1,48,66,476797956
5,10,Ticks_ISO_T2_5,36,5,42,127,476803300
5,10,Ticks_ISO_T2_5,37,5,42,127,477304044
5,10,Ticks_ISO_T2_5,38,1,48,70,477317712
5,10,Ticks_ISO_T2_5,39,5,42,127,477803888
5,10,Ticks_ISO_T2_5,40,1,48,68,477820176
5,10,Ticks_ISO_T2_5,41,5,42,127,478303808
5,10,Ticks_ISO_T2_5,42,1,48,62,478307380
5,10,Ticks_ISO_T2_5,43,5,42,127,478804324
5,10,Ticks_ISO_T2_5,44,1,48,73,478829060
5,10,Ticks_ISO_T2_5,45,5,42,127,479303992
5,10,Ticks_ISO_T2_5,46,1,48,78,479318880
5,10,Ticks_ISO_T2_5,47,1,48,67,479800584
5,10,Ticks_ISO_T2_5,48,5,42,127,479803904
5,10,Ticks_ISO_T2_5,49,5,42,127,480303608
5,10,Ticks_ISO_T2_5,50,1,48,66,480316228
5,10,Ticks_ISO_T2_5,51,5,42,127,480804128
5,10,Ticks_ISO_T2_5,52,1,48,67,480833800
5,10,Ticks_ISO_T2_5,53,5,42,127,481303896
5,10,Ticks_ISO_T2_5,54,1,48,68,481308212
5,10,Ticks_ISO_T2_5,55,5,42,127,481803812
5,10,Ticks_ISO_T2_5,56,1,48,64,481832292
5,10,Ticks_ISO_T2_5,57,5,42,127,482304256
5,10,Ticks_ISO_T2_5,58,1,48,67,482307900
5,10,Ticks_ISO_T2_5,59,5,42,127,482804176
5,10,Ticks_ISO_T2_5,60,1,48,66,482826296
5,10,Ticks_ISO_T2_5,61,5,42,127,483303872
5,10,Ticks_ISO_T2_5,62,1,48,65,483317612
5,10,Ticks_ISO_T2_5,63,5,42,127,483803712
5,10,Ticks_ISO_T2_5,64,1,48,75,483812744
5,10,Ticks_ISO_T2_5,65,5,42,127,484304232
5,10,Ticks_ISO_T2_5,66,1,48,69,484315208
5,10,Ticks_ISO_T2_5,67,5,42,127,484803928
5,10,Ticks_ISO_T2_5,68,1,48,79,484825596
5,10,Ticks_ISO_T2_5,69,5,42,127,485303844
5,10,Ticks_ISO_T2_5,70,1,48,79,485316616
5,10,Ticks_ISO_T2_5,71,5,42,127,485804364
5,10,Ticks_ISO_T2_5,72,1,48,85,485846156
5,10,Ticks_ISO_T2_5,73,1,48,62,485865876
5,10,Ticks_ISO_T2_5,74,5,42,127,486304036
5,10,Ticks_ISO_T2_5,75,1,48,73,486316656
5,10,Ticks_ISO_T2_5,76,5,42,127,486803804
5,10,Ticks_ISO_T2_5,77,1,48,74,486821212
5,10,Ticks_ISO_T2_5,78,1,48,55,486842804
5,10,Ticks_ISO_T2_5,79,5,42,127,487303776
5,10,Ticks_ISO_T2_5,80,1,48,77,487319164
5,10,Ticks_ISO_T2_5,81,5,42,127,487804368
5,10,Ticks_ISO_T2_5,82,1,48,67,487818560
5,10,Ticks_ISO_T2_5,83,1,48,52,487840152
5,10,Ticks_ISO_T2_5,84,1,48,64,488299512
5,10,Ticks_ISO_T2_5,85,5,42,127,488303884
5,10,Ticks_ISO_T2_5,86,1,48,76,488802604
5,10,Ticks_ISO_T2_5,87,5,42,127,488804176
5,10,Ticks_ISO_T2_5,88,1,48,54,488824188
5,10,Ticks_ISO_T2_5,89,5,42,127,489304604
5,10,Ticks_ISO_T2_5,90,1,48,80,489318424
5,10,Ticks_ISO_T2_5,91,1,48,61,489338224
5,10,Ticks_ISO_T2_5,92,5,42,127,489804420
5,10,Ticks_ISO_T2_5,93,1,48,69,489813080
5,10,Ticks_ISO_T2_5,94,5,42,127,490303720
5,10,Ticks_ISO_T2_5,95,1,48,68,490330572
5,10,Ticks_ISO_T2_5,96,1,48,52,490352020
5,10,Ticks_ISO_T2_5,97,5,42,127,490803688
5,10,Ticks_ISO_T2_5,98,1,48,69,490818324
5,10,Ticks_ISO_T2_5,99,5,42,127,491304428
5,10,Ticks_ISO_T2_5,100,1,48,74,491311664
5,10,Ticks_ISO_T2_5,101,1,48,54,491333628
5,10,Ticks_ISO_T2_5,102,5,42,127,491803952
5,10,Ticks_ISO_T2_5,103,1,48,73,491820908
5,10,Ticks_ISO_T2_5,104,5,42,127,492303868
5,10,Ticks_ISO_T2_5,105,1,48,69,492317608
5,10,Ticks_ISO_T2_5,106,5,42,127,492803636
5,10,Ticks_ISO_T2_5,107,1,48,63,492826956
5,10,Ticks_ISO_T2_5,108,5,42,127,493304304
5,10,Ticks_ISO_T2_5,109,1,48,69,493324404
5,10,Ticks_ISO_T2_5,110,5,42,127,493803848
5,10,Ticks_ISO_T2_5,111,1,48,55,493829928
5,10,Ticks_ISO_T2_5,112,5,42,127,494303468
5,10,Ticks_ISO_T2_5,113,1,48,64,494309280
5,10,Ticks_ISO_T2_5,114,5,42,127,494804432
5,10,Ticks_ISO_T2_5,115,1,48,65,494809796
5,10,Ticks_ISO_T2_5,116,1,48,68,495296760
5,10,Ticks_ISO_T2_5,117,5,42,127,495303896
5,10,Ticks_ISO_T2_5,118,1,48,75,495797124
5,10,Ticks_ISO_T2_5,119,5,42,127,495803740
5,10,Ticks_ISO_T2_5,120,5,42,127,496303592
5,10,Ticks_ISO_T2_5,121,1,48,81,496310900
5,10,Ticks_ISO_T2_5,122,1,48,62,496330548
5,10,Ticks_ISO_T2_5,123,5,42,127,496804384
5,10,Ticks_ISO_T2_5,124,1,48,78,496810204
5,10,Ticks_ISO_T2_5,125,1,48,59,496830072
5,10,Ticks_ISO_T2_5,126,5,42,127,497304060
5,10,Ticks_ISO_T2_5,127,1,48,74,497317872
5,10,Ticks_ISO_T2_5,128,1,48,73,497800124
5,10,Ticks_ISO_T2_5,129,5,42,127,497803748
5,10,Ticks_ISO_T2_5,130,1,48,57,497820016
5,10,Ticks_ISO_T2_5,131,5,42,127,498304400
5,10,Ticks_ISO_T2_5,132,1,48,79,498327192
5,10,Ticks_ISO_T2_5,133,1,48,57,498347220
5,10,Ticks_ISO_T2_5,134,5,42,127,498804148
5,10,Ticks_ISO_T2_5,135,1,48,71,498806820
5,10,Ticks_ISO_T2_5,136,5,42,127,499303768
5,10,Ticks_ISO_T2_5,137,1,48,84,499315940
5,10,Ticks_ISO_T2_5,138,5,42,127,499803464
5,10,Ticks_ISO_T2_5,139,1,48,79,499818852
5,10,Ticks_ISO_T2_5,140,1,48,62,499838128
5,10,Ticks_ISO_T2_5,141,5,42,127,500304184
5,10,Ticks_ISO_T2_5,142,1,48,73,500315304
5,10,Ticks_ISO_T2_5,143,5,42,127,500804076
5,10,Ticks_ISO_T2_5,144,1,48,84,500819932
5,10,Ticks_ISO_T2_5,145,1,48,57,500840860
5,10,Ticks_ISO_T2_5,146,5,42,127,501303748
5,10,Ticks_ISO_T2_5,147,1,48,86,501316436
5,10,Ticks_ISO_T2_5,148,1,48,59,501336716
5,10,Ticks_ISO_T2_5,149,5,42,127,501804320
5,10,Ticks_ISO_T2_5,150,1,48,77,501822920
5,10,Ticks_ISO_T2_5,151,1,48,57,501842296
5,10,Ticks_ISO_T2_5,152,5,42,127,502304140
5,10,Ticks_ISO_T2_5,153,1,48,80,502315040
5,10,Ticks_ISO_T2_5,154,1,48,61,502337008
5,10,Ticks_ISO_T2_5,155,5,42,127,502803812
5,10,Ticks_ISO_T2_5,156,1,48,74,502821292
5,10,Ticks_ISO_T2_5,157,1,48,56,502841092
5,10,Ticks_ISO_T2_5,158,1,48,73,503303032
5,10,Ticks_ISO_T2_5,159,5,42,127,503304376
5,10,Ticks_ISO_T2_5,160,1,48,70,503796936
5,10,Ticks_ISO_T2_5,161,5,42,127,503804292
5,10,Ticks_ISO_T2_5,162,1,48,75,504291312
5,10,Ticks_ISO_T2_5,163,5,42,127,504304284
5,10,Ticks_ISO_T2_5,164,1,48,77,504781584
5,10,Ticks_ISO_T2_5,165,5,42,127,504803760
5,10,Ticks_ISO_T2_5,166,1,48,53,504805756
5,10,Ticks_ISO_T2_5,167,1,48,75,505289116
5,10,Ticks_ISO_T2_5,168,5,42,127,505304404
5,10,Ticks_ISO_T2_5,169,1,48,83,505783268
5,10,Ticks_ISO_T2_5,170,5,42,127,505804324
5,10,Ticks_ISO_T2_5,171,5,42,127,506304024
5,10,Ticks_ISO_T2_5,172,1,48,84,506308644
5,10,Ticks_ISO_T2_5,173,1,48,62,506328816
5,10,Ticks_ISO_T2_5,174,5,42,127,506803548
5,10,Ticks_ISO_T2_5,175,1,48,76,506806892
5,10,Ticks_ISO_T2_5,176,5,42,127,507304440
5,10,Ticks_ISO_T2_5,177,1,48,69,507311304
5,10,Ticks_ISO_T2_5,178,5,42,127,507804208
5,10,Ticks_ISO_T2_5,179,1,48,86,507812264
5,10,Ticks_ISO_T2_5,180,1,48,57,507833184
5,10,Ticks_ISO_T2_5,181,1,48,82,508301536
5,10,Ticks_ISO_T2_5,182,5,42,127,508303652
5,10,Ticks_ISO_T2_5,183,1,48,61,508321488
5,10,Ticks_ISO_T2_5,184,5,42,127,508803480
5,10,Ticks_ISO_T2_5,185,1,48,73,508833004
5,10,Ticks_ISO_T2_5,186,1,48,77,509294156
5,10,Ticks_ISO_T2_5,187,5,42,127,509304212
5,10,Ticks_ISO_T2_5,188,1,48,67,509795048
5,10,Ticks_ISO_T2_5,189,5,42,127,509804132
5,10,Ticks_ISO_T2_5,190,1,48,83,510303540
5,10,Ticks_ISO_T2_5,191,5,42,127,510304948
5,10,Ticks_ISO_T2_5,192,1,48,58,510324064
5,10,Ticks_ISO_T2_5,193,1,48,84,510804108
5,10,Ticks_ISO_T2_5,194,5,42,127,510805816
5,10,Ticks_ISO_T2_5,195,1,48,58,510825004
5,10,Ticks_ISO_T2_5,196,5,42,127,511304128
5,10,Ticks_ISO_T2_5,197,1,48,79,511305464
5,10,Ticks_ISO_T2_5,198,1,48,55,511328424
5,10,Ticks_ISO_T2_5,199,5,42,127,511804024
5,10,Ticks_ISO_T2_5,200,1,48,82,511804988
5,10,Ticks_ISO_T2_5,201,1,48,57,511825396
5,10,Ticks_ISO_T2_5,202,5,42,127,512303324
5,10,Ticks_ISO_T2_5,203,1,48,76,512310108
5,10,Ticks_ISO_T2_5,204,1,48,54,512331624
5,10,Ticks_ISO_T2_5,205,5,42,127,512804168
5,10,Ticks_ISO_T2_5,206,1,48,78,512814320
5,10,Ticks_ISO_T2_5,207,1,48,59,512834044
5,10,Ticks_ISO_T2_5,208,1,48,81,513290264
5,10,Ticks_ISO_T2_5,209,5,42,127,513304056
5,10,Ticks_ISO_T2_5,210,5,42,127,513803612
5,10,Ticks_ISO_T2_5,211,1,48,81,513806584
5,10,Ticks_ISO_T2_5,212,1,48,61,513826380
5,10,Ticks_ISO_T2_5,213,5,42,127,514304260
5,10,Ticks_ISO_T2_5,214,1,48,72,514314484
5,10,Ticks_ISO_T2_5,215,5,42,127,514804028
5,10,Ticks_ISO_T2_5,216,1,48,74,514847016
5,10,Ticks_ISO_T2_5,217,1,48,52,514870704
5,10,Ticks_ISO_T2_5,218,5,42,127,515303924
5,10,Ticks_ISO_T2_5,219,1,48,81,515328140
5,10,Ticks_ISO_T2_5,220,1,48,58,515348012
5,10,Ticks_ISO_T2_5,221,5,42,127,515803820
5,10,Ticks_ISO_T2_5,222,1,48,84,515827812
5,10,Ticks_ISO_T2_5,223,5,42,127,516304264
5,10,Ticks_ISO_T2_5,224,1,48,75,516309032
5,10,Ticks_ISO_T2_5,225,1,48,54,516331672
5,10,Ticks_ISO_T2_5,226,5,42,127,516803936
5,10,Ticks_ISO_T2_5,227,1,48,92,516815504
5,10,Ticks_ISO_T2_5,228,1,48,84,517303928
5,10,Ticks_ISO_T2_5,229,5,42,127,517305492
5,10,Ticks_ISO_T2_5,230,1,48,63,517321236
5,10,Ticks_ISO_T2_5,231,5,42,127,517804424
5,10,Ticks_ISO_T2_5,232,1,48,84,517824896
5,10,Ticks_ISO_T2_5,233,1,48,65,517844320
5,10,Ticks_ISO_T2_5,234,1,48,81,518303800
5,10,Ticks_ISO_T2_5,235,5,42,127,518305284
5,10,Ticks_ISO_T2_5,236,5,42,127,518803940
5,10,Ticks_ISO_T2_5,237,1,48,82,518811472
5,10,Ticks_ISO_T2_5,238,5,42,127,519303784
5,10,Ticks_ISO_T2_5,239,1,48,77,519315732
5,10,Ticks_ISO_T2_5,240,5,42,127,519804228
5,10,Ticks_ISO_T2_5,241,1,48,80,519816772
5,10,Ticks_ISO_T2_5,242,5,42,127,520303920
5,10,Ticks_ISO_T2_5,243,1,48,75,520316464
5,10,Ticks_ISO_T2_5,244,5,42,127,520803764
5,10,Ticks_ISO_T2_5,245,1,48,73,520822740
5,10,Ticks_ISO_T2_5,246,1,48,73,521303380
5,10,Ticks_ISO_T2_5,247,5,42,127,521304872
5,10,Ticks_ISO_T2_5,248,1,48,72,521799728
5,10,Ticks_ISO_T2_5,249,5,42,127,521804048
5,10,Ticks_ISO_T2_5,250,1,48,83,522301904
5,10,Ticks_ISO_T2_5,251,5,42,127,522303792
5,10,Ticks_ISO_T2_5,252,5,42,127,522803640
5,10,Ticks_ISO_T2_5,253,1,48,72,522817380
5,10,Ticks_ISO_T2_5,254,1,48,52,522840424
5,10,Ticks_ISO_T2_5,255,1,48,79,523297736
5,10,Ticks_ISO_T2_5,256,5,42,127,523304280
5,10,Ticks_ISO_T2_5,257,1,48,82,523801784
5,10,Ticks_ISO_T2_5,258,5,42,127,523803900
5,10,Ticks_ISO_T2_5,259,5,42,127,524303600
5,10,Ticks_ISO_T2_5,260,1,48,80,524321232
5,10,Ticks_ISO_T2_5,261,1,48,62,524341176
5,10,Ticks_ISO_T2_5,262,5,42,127,524803572
5,10,Ticks_ISO_T2_5,263,1,48,78,524810432
5,10,Ticks_ISO_T2_5,264,5,42,127,525304164
5,10,Ticks_ISO_T2_5,265,1,48,78,525309080
5,10,Ticks_ISO_T2_5,266,1,48,60,525328432
5,10,Ticks_ISO_T2_5,267,5,42,127,525803760
5,10,Ticks_ISO_T2_5,268,1,48,68,525815180
5,10,Ticks_ISO_T2_5,269,5,42,127,526303528
5,10,Ticks_ISO_T2_5,270,1,48,79,526327740
5,10,Ticks_ISO_T2_5,271,1,48,60,526346796
5,10,Ticks_ISO_T2_5,272,1,48,84,526801588
5,10,Ticks_ISO_T2_5,273,5,42,127,526804316
5,10,Ticks_ISO_T2_5,274,5,42,127,527303944
5,10,Ticks_ISO_T2_5,275,1,48,78,527305280
5,10,Ticks_ISO_T2_5,276,1,48,62,527325292
5,10,Ticks_ISO_T2_5,277,1,48,78,527789960
5,10,Ticks_ISO_T2_5,278,5,42,127,527803608
5,10,Ticks_ISO_T2_5,279,1,48,75,528288312
5,10,Ticks_ISO_T2_5,280,5,42,127,528303452
5,10,Ticks_ISO_T2_5,281,1,48,58,528307456
5,10,Ticks_ISO_T2_5,282,1,48,81,528794116
5,10,Ticks_ISO_T2_5,283,5,42,127,528804172
5,10,Ticks_ISO_T2_5,284,1,48,57,528814680
5,10,Ticks_ISO_T2_5,285,1,48,61,529303548
5,10,Ticks_ISO_T2_5,286,5,42,127,529304964
5,10,Ticks_ISO_T2_5,287,1,48,71,529795800
5,10,Ticks_ISO_T2_5,288,5,42,127,529803540
5,10,Ticks_ISO_T2_5,289,5,42,127,530304732
5,10,Ticks_ISO_T2_5,290,1,48,78,530307560
5,10,Ticks_ISO_T2_5,291,1,48,62,530326912
5,10,Ticks_ISO_T2_5,292,5,42,127,530804480
5,10,Ticks_ISO_T2_5,293,1,48,76,530811048
5,10,Ticks_ISO_T2_5,294,5,42,127,531303804
5,10,Ticks_ISO_T2_5,295,1,48,76,531317248
5,10,Ticks_ISO_T2_5,296,5,42,127,531803424
5,10,Ticks_ISO_T2_5,297,1,48,73,531809464
5,10,Ticks_ISO_T2_5,298,1,48,54,531832180
5,10,Ticks_ISO_T2_5,299,5,42,127,532304444
5,10,Ticks_ISO_T2_5,300,1,48,67,532354684
5,10,Ticks_ISO_T2_5,301,5,42,127,532803892
5,10,Ticks_ISO_T2_5,302,1,48,70,532821400
5,10,Ticks_ISO_T2_5,0,9999,9999,9999,468301912
5,10,Ticks_ISO_T2_5,1,9999,9999,9999,468801604
5,10,Ticks_ISO_T2_5,2,9999,9999,9999,469301316
5,10,Ticks_ISO_T2_5,3,9999,9999,9999,469802056
5,10,Ticks_ISO_T2_5,4,9999,9999,9999,470301752
5,10,Ticks_ISO_T2_5,5,9999,9999,9999,470801520
5,10,Ticks_ISO_T2_5,6,9999,9999,9999,471301216
5,10,Ticks_ISO_T2_5,7,9999,9999,9999,471801960
5,10,Ticks_ISO_T2_5,8,9999,9999,9999,472301656
5,10,Ticks_ISO_T2_5,9,9999,9999,9999,472801356
5,10,Ticks_ISO_T2_5,10,9999,9999,9999,473302076
5,10,Ticks_ISO_T2_5,11,9999,9999,9999,473801820
5,10,Ticks_ISO_T2_5,12,9999,9999,9999,474301496
5,10,Ticks_ISO_T2_5,13,9999,9999,9999,474801260
5,10,Ticks_ISO_T2_5,14,9999,9999,9999,475302008
5,10,Ticks_ISO_T2_5,15,9999,9999,9999,475801700
5,10,Ticks_ISO_T2_5,16,9999,9999,9999,476301392
5,10,Ticks_ISO_T2_5,17,9999,9999,9999,476801088
5,10,Ticks_ISO_T2_5,18,9999,9999,9999,477301832
5,10,Ticks_ISO_T2_5,19,9999,9999,9999,477801528
5,10,Ticks_ISO_T2_5,20,9999,9999,9999,478301296
5,10,Ticks_ISO_T2_5,21,9999,9999,9999,478802036
5,10,Ticks_ISO_T2_5,22,9999,9999,9999,479301708
5,10,Ticks_ISO_T2_5,23,9999,9999,9999,479801396
5,10,Ticks_ISO_T2_5,24,9999,9999,9999,480301172
5,10,Ticks_ISO_T2_5,25,9999,9999,9999,480801844
5,10,Ticks_ISO_T2_5,26,9999,9999,9999,481301612
5,10,Ticks_ISO_T2_5,27,9999,9999,9999,481801304
5,10,Ticks_ISO_T2_5,28,9999,9999,9999,482302044
5,10,Ticks_ISO_T2_5,29,9999,9999,9999,482801740
5,10,Ticks_ISO_T2_5,30,9999,9999,9999,483301436
5,10,Ticks_ISO_T2_5,31,9999,9999,9999,483801204
5,10,Ticks_ISO_T2_5,32,9999,9999,9999,484301944
5,10,Ticks_ISO_T2_5,33,9999,9999,9999,484801640
5,10,Ticks_ISO_T2_5,34,9999,9999,9999,485301336
5,10,Ticks_ISO_T2_5,35,9999,9999,9999,485802076
5,10,Ticks_ISO_T2_5,36,9999,9999,9999,486301748
5,10,Ticks_ISO_T2_5,37,9999,9999,9999,486801516
5,10,Ticks_ISO_T2_5,38,9999,9999,9999,487301192
5,10,Ticks_ISO_T2_5,39,9999,9999,9999,487801932
5,10,Ticks_ISO_T2_5,40,9999,9999,9999,488301672
5,10,Ticks_ISO_T2_5,41,9999,9999,9999,488801376
5,10,Ticks_ISO_T2_5,42,9999,9999,9999,489302092
5,10,Ticks_ISO_T2_5,43,9999,9999,9999,489801816
5,10,Ticks_ISO_T2_5,44,9999,9999,9999,490301508
5,10,Ticks_ISO_T2_5,45,9999,9999,9999,490801252
5,10,Ticks_ISO_T2_5,46,9999,9999,9999,491301992
5,10,Ticks_ISO_T2_5,47,9999,9999,9999,491801664
5,10,Ticks_ISO_T2_5,48,9999,9999,9999,492301432
5,10,Ticks_ISO_T2_5,49,9999,9999,9999,492801128
5,10,Ticks_ISO_T2_5,50,9999,9999,9999,493301868
5,10,Ticks_ISO_T2_5,51,9999,9999,9999,493801564
5,10,Ticks_ISO_T2_5,52,9999,9999,9999,494301256
5,10,Ticks_ISO_T2_5,53,9999,9999,9999,494801996
5,10,Ticks_ISO_T2_5,54,9999,9999,9999,495301684
5,10,Ticks_ISO_T2_5,55,9999,9999,9999,495801452
5,10,Ticks_ISO_T2_5,56,9999,9999,9999,496301156
5,10,Ticks_ISO_T2_5,57,9999,9999,9999,496801876
5,10,Ticks_ISO_T2_5,58,9999,9999,9999,497301624
5,10,Ticks_ISO_T2_5,59,9999,9999,9999,497801312
5,10,Ticks_ISO_T2_5,60,9999,9999,9999,498302040
5,10,Ticks_ISO_T2_5,61,9999,9999,9999,498801784
5,10,Ticks_ISO_T2_5,62,9999,9999,9999,499301480
5,10,Ticks_ISO_T2_5,63,9999,9999,9999,499801176
5,10,Ticks_ISO_T2_5,64,9999,9999,9999,500301896
5,10,Ticks_ISO_T2_5,65,9999,9999,9999,500801640
5,10,Ticks_ISO_T2_5,66,9999,9999,9999,501301312
5,10,Ticks_ISO_T2_5,67,9999,9999,9999,501802032
5,10,Ticks_ISO_T2_5,68,9999,9999,9999,502301780
5,10,Ticks_ISO_T2_5,69,9999,9999,9999,502801524
5,10,Ticks_ISO_T2_5,70,9999,9999,9999,503301200
5,10,Ticks_ISO_T2_5,71,9999,9999,9999,503801932
5,10,Ticks_ISO_T2_5,72,9999,9999,9999,504301628
5,10,Ticks_ISO_T2_5,73,9999,9999,9999,504801400
5,10,Ticks_ISO_T2_5,74,9999,9999,9999,505302120
5,10,Ticks_ISO_T2_5,75,9999,9999,9999,505801812
5,10,Ticks_ISO_T2_5,76,9999,9999,9999,506301516
5,10,Ticks_ISO_T2_5,77,9999,9999,9999,506801260
5,10,Ticks_ISO_T2_5,78,9999,9999,9999,507302004
5,10,Ticks_ISO_T2_5,79,9999,9999,9999,507801700
5,10,Ticks_ISO_T2_5,80,9999,9999,9999,508301404
5,10,Ticks_ISO_T2_5,81,9999,9999,9999,508801120
5,10,Ticks_ISO_T2_5,82,9999,9999,9999,509301852
5,10,Ticks_ISO_T2_5,83,9999,9999,9999,509801548
5,10,Ticks_ISO_T2_5,84,9999,9999,9999,510301252
5,10,Ticks_ISO_T2_5,85,9999,9999,9999,510801968
5,10,Ticks_ISO_T2_5,86,9999,9999,9999,511301692
5,10,Ticks_ISO_T2_5,87,9999,9999,9999,511801440
5,10,Ticks_ISO_T2_5,88,9999,9999,9999,512301112
5,10,Ticks_ISO_T2_5,89,9999,9999,9999,512801880
5,10,Ticks_ISO_T2_5,90,9999,9999,9999,513301620
5,10,Ticks_ISO_T2_5,91,9999,9999,9999,513801324
5,10,Ticks_ISO_T2_5,92,9999,9999,9999,514302044
5,10,Ticks_ISO_T2_5,93,9999,9999,9999,514801740
5,10,Ticks_ISO_T2_5,94,9999,9999,9999,515301488
5,10,Ticks_ISO_T2_5,95,9999,9999,9999,515801160
5,10,Ticks_ISO_T2_5,96,9999,9999,9999,516301900
5,10,Ticks_ISO_T2_5,97,9999,9999,9999,516801648
5,10,Ticks_ISO_T2_5,98,9999,9999,9999,517301344
5,10,Ticks_ISO_T2_5,99,9999,9999,9999,517802060
5,10,Ticks_ISO_T2_5,100,9999,9999,9999,518301808
5,10,Ticks_ISO_T2_5,101,9999,9999,9999,518801504
5,10,Ticks_ISO_T2_5,102,9999,9999,9999,519301200
5,10,Ticks_ISO_T2_5,103,9999,9999,9999,519801940
5,10,Ticks_ISO_T2_5,104,9999,9999,9999,520301636
5,10,Ticks_ISO_T2_5,105,9999,9999,9999,520801328
5,10,Ticks_ISO_T2_5,106,9999,9999,9999,521302072
5,10,Ticks_ISO_T2_5,107,9999,9999,9999,521801836
5,10,Ticks_ISO_T2_5,108,9999,9999,9999,522301536
5,10,Ticks_ISO_T2_5,109,9999,9999,9999,522801204
5,10,Ticks_ISO_T2_5,110,9999,9999,9999,523301992
5,10,Ticks_ISO_T2_5,111,9999,9999,9999,523801656
5,10,Ticks_ISO_T2_5,112,9999,9999,9999,524301388
5,10,Ticks_ISO_T2_5,113,9999,9999,9999,524801136
5,10,Ticks_ISO_T2_5,114,9999,9999,9999,525301876
5,10,Ticks_ISO_T2_5,115,9999,9999,9999,525801548
5,10,Ticks_ISO_T2_5,116,9999,9999,9999,526301244
5,10,Ticks_ISO_T2_5,117,9999,9999,9999,526802028
5,10,Ticks_ISO_T2_5,118,9999,9999,9999,527301732
5,10,Ticks_ISO_T2_5,119,9999,9999,9999,527801396
5,10,Ticks_ISO_T2_5,120,9999,9999,9999,528301168
5,10,Ticks_ISO_T2_5,121,9999,9999,9999,528801888
5,10,Ticks_ISO_T2_5,122,9999,9999,9999,529301564
5,10,Ticks_ISO_T2_5,123,9999,9999,9999,529801328
5,10,Ticks_ISO_T2_5,124,9999,9999,9999,530302000
5,10,Ticks_ISO_T2_5,125,9999,9999,9999,530801748
5,10,Ticks_ISO_T2_5,126,9999,9999,9999,531301444
5,10,Ticks_ISO_T2_5,127,9999,9999,9999,531801140
5,10,Ticks_ISO_T2_5,128,9999,9999,9999,532301932
5,10,Ticks_ISO_T2_5,129,9999,9999,9999,532801604
6,9,Ticks_ISO_T2_8,0,5,42,127,545588720
6,9,Ticks_ISO_T2_8,1,5,42,127,546389248
6,9,Ticks_ISO_T2_8,2,5,42,127,547189228
6,9,Ticks_ISO_T2_8,3,1,48,89,547223532
6,9,Ticks_ISO_T2_8,4,1,48,62,547248276
6,9,Ticks_ISO_T2_8,5,5,42,127,547988792
6,9,Ticks_ISO_T2_8,6,1,48,81,548005972
6,9,Ticks_ISO_T2_8,7,1,48,56,548029136
6,9,Ticks_ISO_T2_8,8,5,42,127,548788800
6,9,Ticks_ISO_T2_8,9,1,48,78,548814136
6,9,Ticks_ISO_T2_8,10,1,48,59,548834008
6,9,Ticks_ISO_T2_8,11,1,48,75,549587216
6,9,Ticks_ISO_T2_8,12,5,42,127,549589256
6,9,Ticks_ISO_T2_8,13,1,48,57,549608740
6,9,Ticks_ISO_T2_8,14,5,42,127,550389272
6,9,Ticks_ISO_T2_8,15,1,48,76,550408324
6,9,Ticks_ISO_T2_8,16,1,48,59,550437844
6,9,Ticks_ISO_T2_8,17,1,48,78,551182884
6,9,Ticks_ISO_T2_8,18,5,42,127,551188828
6,9,Ticks_ISO_T2_8,19,1,48,57,551214368
6,9,Ticks_ISO_T2_8,20,1,48,82,551973096
6,9,Ticks_ISO_T2_8,21,5,42,127,551988688
6,9,Ticks_ISO_T2_8,22,1,48,59,552003832
6,9,Ticks_ISO_T2_8,23,5,42,127,552789252
6,9,Ticks_ISO_T2_8,24,1,48,65,552790220
6,9,Ticks_ISO_T2_8,25,1,48,46,552837604
6,9,Ticks_ISO_T2_8,26,5,42,127,553589040
6,9,Ticks_ISO_T2_8,27,1,48,81,553623272
6,9,Ticks_ISO_T2_8,28,1,48,54,553652120
6,9,Ticks_ISO_T2_8,29,5,42,127,554388976
6,9,Ticks_ISO_T2_8,30,1,48,76,554396884
6,9,Ticks_ISO_T2_8,31,1,48,56,554425804
6,9,Ticks_ISO_T2_8,32,5,42,127,555188540
6,9,Ticks_ISO_T2_8,33,1,48,76,555224492
6,9,Ticks_ISO_T2_8,34,1,48,58,555252296
6,9,Ticks_ISO_T2_8,35,5,42,127,555989300
6,9,Ticks_ISO_T2_8,36,1,48,74,556005952
6,9,Ticks_ISO_T2_8,37,1,48,60,556027772
6,9,Ticks_ISO_T2_8,38,1,48,76,556783808
6,9,Ticks_ISO_T2_8,39,5,42,127,556789004
6,9,Ticks_ISO_T2_8,40,1,48,57,556805272
6,9,Ticks_ISO_T2_8,41,1,48,71,557582476
6,9,Ticks_ISO_T2_8,42,5,42,127,557588940
6,9,Ticks_ISO_T2_8,43,1,48,54,557605580
6,9,Ticks_ISO_T2_8,44,1,48,65,558364380
6,9,Ticks_ISO_T2_8,45,1,48,52,558389084
6,9,Ticks_ISO_T2_8,46,5,42,127,558390200
6,9,Ticks_ISO_T2_8,47,1,48,91,559170756
6,9,Ticks_ISO_T2_8,48,5,42,127,559189288
6,9,Ticks_ISO_T2_8,49,1,48,63,559193808
6,9,Ticks_ISO_T2_8,50,1,48,80,559983128
6,9,Ticks_ISO_T2_8,51,5,42,127,559989148
6,9,Ticks_ISO_T2_8,52,1,48,59,560004144
6,9,Ticks_ISO_T2_8,53,5,42,127,560788792
6,9,Ticks_ISO_T2_8,54,1,48,77,560796696
6,9,Ticks_ISO_T2_8,55,1,48,54,560828164
6,9,Ticks_ISO_T2_8,56,5,42,127,561588724
6,9,Ticks_ISO_T2_8,57,1,48,83,561596328
6,9,Ticks_ISO_T2_8,58,1,48,59,561622784
6,9,Ticks_ISO_T2_8,59,5,42,127,562389408
6,9,Ticks_ISO_T2_8,60,1,48,83,562412272
6,9,Ticks_ISO_T2_8,61,1,48,60,562439480
6,9,Ticks_ISO_T2_8,62,1,48,77,563185488
6,9,Ticks_ISO_T2_8,63,5,42,127,563189116
6,9,Ticks_ISO_T2_8,64,1,48,58,563213308
6,9,Ticks_ISO_T2_8,65,5,42,127,563988908
6,9,Ticks_ISO_T2_8,66,1,48,65,564007064
6,9,Ticks_ISO_T2_8,67,1,48,52,564033440
6,9,Ticks_ISO_T2_8,68,5,42,127,564788692
6,9,Ticks_ISO_T2_8,69,1,48,84,564808368
6,9,Ticks_ISO_T2_8,70,1,48,57,564837292
6,9,Ticks_ISO_T2_8,71,5,42,127,565589476
6,9,Ticks_ISO_T2_8,72,1,48,65,565601572
6,9,Ticks_ISO_T2_8,73,1,48,49,565639324
6,9,Ticks_ISO_T2_8,74,1,48,67,566376736
6,9,Ticks_ISO_T2_8,75,5,42,127,566389032
6,9,Ticks_ISO_T2_8,76,1,48,52,566407324
6,9,Ticks_ISO_T2_8,77,1,48,77,567188828
6,9,Ticks_ISO_T2_8,78,5,42,127,567190316
6,9,Ticks_ISO_T2_8,79,1,48,48,567235528
6,9,Ticks_ISO_T2_8,80,5,42,127,567988688
6,9,Ticks_ISO_T2_8,81,1,48,95,568012524
6,9,Ticks_ISO_T2_8,82,1,48,62,568038308
6,9,Ticks_ISO_T2_8,83,5,42,127,568789520
6,9,Ticks_ISO_T2_8,84,1,48,92,568835348
6,9,Ticks_ISO_T2_8,85,1,48,65,568854628
6,9,Ticks_ISO_T2_8,86,5,42,127,569589084
6,9,Ticks_ISO_T2_8,87,1,48,93,569609028
6,9,Ticks_ISO_T2_8,88,1,48,67,569630400
6,9,Ticks_ISO_T2_8,89,1,48,84,570382396
6,9,Ticks_ISO_T2_8,90,5,42,127,570388788
6,9,Ticks_ISO_T2_8,91,1,48,59,570403776
6,9,Ticks_ISO_T2_8,92,5,42,127,571188580
6,9,Ticks_ISO_T2_8,93,1,48,83,571202464
6,9,Ticks_ISO_T2_8,94,1,48,63,571225056
6,9,Ticks_ISO_T2_8,95,1,48,81,571978856
6,9,Ticks_ISO_T2_8,96,5,42,127,571989432
6,9,Ticks_ISO_T2_8,97,1,48,65,571997624
6,9,Ticks_ISO_T2_8,98,1,48,89,572778260
6,9,Ticks_ISO_T2_8,99,5,42,127,572789216
6,9,Ticks_ISO_T2_8,100,1,48,64,572798156
6,9,Ticks_ISO_T2_8,101,1,48,91,573570124
6,9,Ticks_ISO_T2_8,102,5,42,127,573588708
6,9,Ticks_ISO_T2_8,103,1,48,59,573593228
6,9,Ticks_ISO_T2_8,104,5,42,127,574388572
6,9,Ticks_ISO_T2_8,105,1,48,88,574418320
6,9,Ticks_ISO_T2_8,106,1,48,63,574440812
6,9,Ticks_ISO_T2_8,107,5,42,127,575189332
6,9,Ticks_ISO_T2_8,108,1,48,89,575202400
6,9,Ticks_ISO_T2_8,109,1,48,63,575224736
6,9,Ticks_ISO_T2_8,110,5,42,127,575989044
6,9,Ticks_ISO_T2_8,111,1,48,84,576028964
6,9,Ticks_ISO_T2_8,112,1,48,57,576051604
6,9,Ticks_ISO_T2_8,113,1,48,82,576755276
6,9,Ticks_ISO_T2_8,114,5,42,127,576788748
6,9,Ticks_ISO_T2_8,115,1,48,89,577552768
6,9,Ticks_ISO_T2_8,116,1,48,61,577573836
6,9,Ticks_ISO_T2_8,117,5,42,127,577588608
6,9,Ticks_ISO_T2_8,118,1,48,84,578378236
6,9,Ticks_ISO_T2_8,119,5,42,127,578389340
6,9,Ticks_ISO_T2_8,120,1,48,62,578402988
6,9,Ticks_ISO_T2_8,121,5,42,127,579189132
6,9,Ticks_ISO_T2_8,122,1,48,81,579209152
6,9,Ticks_ISO_T2_8,123,1,48,59,579231872
6,9,Ticks_ISO_T2_8,124,5,42,127,579988920
6,9,Ticks_ISO_T2_8,125,1,48,84,579998320
6,9,Ticks_ISO_T2_8,126,1,48,57,580021340
6,9,Ticks_ISO_T2_8,127,5,42,127,580788560
6,9,Ticks_ISO_T2_8,128,1,48,84,580796384
6,9,Ticks_ISO_T2_8,129,1,48,54,580820232
6,9,Ticks_ISO_T2_8,130,5,42,127,581589316
6,9,Ticks_ISO_T2_8,131,1,48,76,581594076
6,9,Ticks_ISO_T2_8,132,1,48,60,581618444
6,9,Ticks_ISO_T2_8,133,1,48,90,582375296
6,9,Ticks_ISO_T2_8,134,5,42,127,582389248
6,9,Ticks_ISO_T2_8,135,1,48,62,582400580
6,9,Ticks_ISO_T2_8,136,5,42,127,583188892
6,9,Ticks_ISO_T2_8,137,1,48,95,583233368
6,9,Ticks_ISO_T2_8,138,1,48,58,583263444
6,9,Ticks_ISO_T2_8,139,5,42,127,583988676
6,9,Ticks_ISO_T2_8,140,1,48,81,584027204
6,9,Ticks_ISO_T2_8,141,1,48,57,584054696
6,9,Ticks_ISO_T2_8,142,5,42,127,584789384
6,9,Ticks_ISO_T2_8,143,1,48,85,584804768
6,9,Ticks_ISO_T2_8,144,1,48,58,584834440
6,9,Ticks_ISO_T2_8,145,5,42,127,585589244
6,9,Ticks_ISO_T2_8,146,1,48,83,585612032
6,9,Ticks_ISO_T2_8,147,1,48,56,585636172
6,9,Ticks_ISO_T2_8,148,5,42,127,586388956
6,9,Ticks_ISO_T2_8,149,1,48,79,586400080
6,9,Ticks_ISO_T2_8,150,1,48,53,586428560
6,9,Ticks_ISO_T2_8,151,1,48,70,587188964
6,9,Ticks_ISO_T2_8,152,5,42,127,587190228
6,9,Ticks_ISO_T2_8,153,1,48,53,587216892
6,9,Ticks_ISO_T2_8,154,5,42,127,587989504
6,9,Ticks_ISO_T2_8,155,1,48,70,588018056
6,9,Ticks_ISO_T2_8,156,1,48,47,588049452
6,9,Ticks_ISO_T2_8,157,5,42,127,588789064
6,9,Ticks_ISO_T2_8,158,1,48,73,588810288
6,9,Ticks_ISO_T2_8,159,1,48,52,588840852
6,9,Ticks_ISO_T2_8,160,5,42,127,589589000
6,9,Ticks_ISO_T2_8,161,1,48,89,589623460
6,9,Ticks_ISO_T2_8,162,1,48,57,589654724
6,9,Ticks_ISO_T2_8,163,5,42,127,590388712
6,9,Ticks_ISO_T2_8,164,1,48,83,590429928
6,9,Ticks_ISO_T2_8,165,1,48,60,590454660
6,9,Ticks_ISO_T2_8,166,5,42,127,591189496
6,9,Ticks_ISO_T2_8,167,1,48,77,591196504
6,9,Ticks_ISO_T2_8,168,1,48,54,591224824
6,9,Ticks_ISO_T2_8,169,1,48,72,591952968
6,9,Ticks_ISO_T2_8,170,1,48,54,591978824
6,9,Ticks_ISO_T2_8,171,5,42,127,591989028
6,9,Ticks_ISO_T2_8,172,1,48,79,592783420
6,9,Ticks_ISO_T2_8,173,5,42,127,592788984
6,9,Ticks_ISO_T2_8,174,1,48,59,592810416
6,9,Ticks_ISO_T2_8,175,5,42,127,593588704
6,9,Ticks_ISO_T2_8,176,1,48,81,593618304
6,9,Ticks_ISO_T2_8,177,1,48,56,593645204
6,9,Ticks_ISO_T2_8,178,1,48,76,594370876
6,9,Ticks_ISO_T2_8,179,5,42,127,594389236
6,9,Ticks_ISO_T2_8,180,1,48,56,594395776
6,9,Ticks_ISO_T2_8,181,1,48,87,595183752
6,9,Ticks_ISO_T2_8,182,5,42,127,595189320
6,9,Ticks_ISO_T2_8,183,1,48,59,595210224
6,9,Ticks_ISO_T2_8,184,1,48,86,595985708
6,9,Ticks_ISO_T2_8,185,5,42,127,595988808
6,9,Ticks_ISO_T2_8,186,1,48,61,596010460
6,9,Ticks_ISO_T2_8,187,5,42,127,596788896
6,9,Ticks_ISO_T2_8,188,1,48,66,596813732
6,9,Ticks_ISO_T2_8,189,1,48,52,596839668
6,9,Ticks_ISO_T2_8,190,5,42,127,597589456
6,9,Ticks_ISO_T2_8,191,1,48,78,597593548
6,9,Ticks_ISO_T2_8,192,1,48,57,597616260
6,9,Ticks_ISO_T2_8,193,5,42,127,598389020
6,9,Ticks_ISO_T2_8,194,1,48,73,598460432
6,9,Ticks_ISO_T2_8,195,1,48,50,598486660
6,9,Ticks_ISO_T2_8,196,1,48,68,599184428
6,9,Ticks_ISO_T2_8,197,5,42,127,599188724
6,9,Ticks_ISO_T2_8,198,1,48,47,599212844
6,9,Ticks_ISO_T2_8,199,1,48,72,599969856
6,9,Ticks_ISO_T2_8,200,5,42,127,599988736
6,9,Ticks_ISO_T2_8,201,1,48,51,599999548
6,9,Ticks_ISO_T2_8,202,1,48,57,600731564
6,9,Ticks_ISO_T2_8,203,1,48,38,600766248
6,9,Ticks_ISO_T2_8,204,5,42,127,600789544
6,9,Ticks_ISO_T2_8,205,5,42,127,601589064
6,9,Ticks_ISO_T2_8,206,1,48,79,601618440
6,9,Ticks_ISO_T2_8,207,1,48,52,601651476
6,9,Ticks_ISO_T2_8,208,1,48,69,602360236
6,9,Ticks_ISO_T2_8,209,5,42,127,602388696
6,9,Ticks_ISO_T2_8,210,1,48,51,602390616
6,9,Ticks_ISO_T2_8,211,1,48,69,603178720
6,9,Ticks_ISO_T2_8,212,5,42,127,603188628
6,9,Ticks_ISO_T2_8,213,1,48,45,603209860
6,9,Ticks_ISO_T2_8,214,1,48,70,603987148
6,9,Ticks_ISO_T2_8,215,5,42,127,603989412
6,9,Ticks_ISO_T2_8,216,1,48,51,604014280
6,9,Ticks_ISO_T2_8,217,5,42,127,604789056
6,9,Ticks_ISO_T2_8,218,1,48,64,604841836
6,9,Ticks_ISO_T2_8,219,1,48,70,605545516
6,9,Ticks_ISO_T2_8,220,1,48,46,605576608
6,9,Ticks_ISO_T2_8,221,5,42,127,605588832
6,9,Ticks_ISO_T2_8,222,1,48,73,606360636
6,9,Ticks_ISO_T2_8,223,1,48,51,606386432
6,9,Ticks_ISO_T2_8,224,5,42,127,606388548
6,9,Ticks_ISO_T2_8,225,1,48,69,607162140
6,9,Ticks_ISO_T2_8,226,5,42,127,607189476
6,9,Ticks_ISO_T2_8,227,1,48,69,607972572
6,9,Ticks_ISO_T2_8,228,5,42,127,607989208
6,9,Ticks_ISO_T2_8,229,1,48,51,607996868
6,9,Ticks_ISO_T2_8,230,1,48,66,608785668
6,9,Ticks_ISO_T2_8,231,5,42,127,608788920
6,9,Ticks_ISO_T2_8,232,5,42,127,609588588
6,9,Ticks_ISO_T2_8,233,1,48,66,609591852
6,9,Ticks_ISO_T2_8,234,1,48,50,609614520
6,9,Ticks_ISO_T2_8,235,5,42,127,610389220
6,9,Ticks_ISO_T2_8,236,1,48,68,610393908
6,9,Ticks_ISO_T2_8,237,1,48,54,610419172
6,9,Ticks_ISO_T2_8,238,5,42,127,611189156
6,9,Ticks_ISO_T2_8,239,1,48,73,611204168
6,9,Ticks_ISO_T2_8,240,1,48,56,611231448
6,9,Ticks_ISO_T2_8,241,1,48,72,611986904
6,9,Ticks_ISO_T2_8,242,5,42,127,611988788
6,9,Ticks_ISO_T2_8,243,1,48,52,612010588
6,9,Ticks_ISO_T2_8,244,5,42,127,612788580
6,9,Ticks_ISO_T2_8,245,1,48,84,612809804
6,9,Ticks_ISO_T2_8,246,1,48,62,612834684
6,9,Ticks_ISO_T2_8,247,5,42,127,613589340
6,9,Ticks_ISO_T2_8,248,1,48,72,613611080
6,9,Ticks_ISO_T2_8,249,1,48,53,613634544
6,9,Ticks_ISO_T2_8,250,5,42,127,614389196
6,9,Ticks_ISO_T2_8,251,1,48,90,614430536
6,9,Ticks_ISO_T2_8,252,1,48,58,614454528
6,9,Ticks_ISO_T2_8,253,1,48,77,615177200
6,9,Ticks_ISO_T2_8,254,5,42,127,615188976
6,9,Ticks_ISO_T2_8,255,1,48,55,615200532
6,9,Ticks_ISO_T2_8,256,1,48,77,615951556
6,9,Ticks_ISO_T2_8,257,1,48,58,615979508
6,9,Ticks_ISO_T2_8,258,5,42,127,615988592
6,9,Ticks_ISO_T2_8,259,1,48,68,616740644
6,9,Ticks_ISO_T2_8,260,1,48,56,616764932
6,9,Ticks_ISO_T2_8,261,5,42,127,616789376
6,9,Ticks_ISO_T2_8,262,1,48,79,617573140
6,9,Ticks_ISO_T2_8,263,5,42,127,617589108
6,9,Ticks_ISO_T2_8,264,1,48,57,617594232
6,9,Ticks_ISO_T2_8,265,1,48,97,618385120
6,9,Ticks_ISO_T2_8,266,5,42,127,618388896
6,9,Ticks_ISO_T2_8,267,1,48,65,618413244
6,9,Ticks_ISO_T2_8,268,5,42,127,619188540
6,9,Ticks_ISO_T2_8,269,1,48,89,619206844
6,9,Ticks_ISO_T2_8,270,1,48,59,619230604
6,9,Ticks_ISO_T2_8,271,1,48,83,619969208
6,9,Ticks_ISO_T2_8,272,5,42,127,619989440
6,9,Ticks_ISO_T2_8,273,1,48,59,619995236
6,9,Ticks_ISO_T2_8,274,5,42,127,620789232
6,9,Ticks_ISO_T2_8,275,1,48,103,620790196
6,9,Ticks_ISO_T2_8,276,1,48,69,620815888
6,9,Ticks_ISO_T2_8,277,5,42,127,621588944
6,9,Ticks_ISO_T2_8,278,1,48,88,621602752
6,9,Ticks_ISO_T2_8,279,1,48,58,621631608
6,9,Ticks_ISO_T2_8,280,5,42,127,622388580
6,9,Ticks_ISO_T2_8,281,1,48,88,622398508
6,9,Ticks_ISO_T2_8,282,1,48,58,622428948
6,9,Ticks_ISO_T2_8,283,5,42,127,623189288
6,9,Ticks_ISO_T2_8,284,1,48,96,623201680
6,9,Ticks_ISO_T2_8,285,1,48,71,623223948
6,9,Ticks_ISO_T2_8,286,5,42,127,623989072
6,9,Ticks_ISO_T2_8,287,1,48,104,623999300
6,9,Ticks_ISO_T2_8,288,1,48,75,624021488
6,9,Ticks_ISO_T2_8,289,5,42,127,624789080
6,9,Ticks_ISO_T2_8,290,1,48,94,624802000
6,9,Ticks_ISO_T2_8,291,1,48,65,624828308
6,9,Ticks_ISO_T2_8,292,5,42,127,625588496
6,9,Ticks_ISO_T2_8,293,1,48,87,625636792
6,9,Ticks_ISO_T2_8,294,1,48,45,625700496
6,9,Ticks_ISO_T2_8,295,1,48,85,626358844
6,9,Ticks_ISO_T2_8,296,5,42,127,626389320
6,9,Ticks_ISO_T2_8,297,1,48,91,627158800
6,9,Ticks_ISO_T2_8,298,5,42,127,627189056
6,9,Ticks_ISO_T2_8,299,1,48,58,627190904
6,9,Ticks_ISO_T2_8,300,1,48,108,627940336
6,9,Ticks_ISO_T2_8,301,1,48,71,627963800
6,9,Ticks_ISO_T2_8,302,5,42,127,627989044
6,9,Ticks_ISO_T2_8,303,5,42,127,628788636
6,9,Ticks_ISO_T2_8,304,1,48,108,628792724
6,9,Ticks_ISO_T2_8,305,1,48,67,628822128
6,9,Ticks_ISO_T2_8,306,1,48,87,629528696
6,9,Ticks_ISO_T2_8,307,1,48,43,629582620
6,9,Ticks_ISO_T2_8,308,5,42,127,629589392
6,9,Ticks_ISO_T2_8,309,1,48,89,630315092
6,9,Ticks_ISO_T2_8,310,1,48,54,630345912
6,9,Ticks_ISO_T2_8,311,5,42,127,630389028
6,9,Ticks_ISO_T2_8,312,1,48,98,631157460
6,9,Ticks_ISO_T2_8,313,1,48,70,631181672
6,9,Ticks_ISO_T2_8,314,5,42,127,631188888
6,9,Ticks_ISO_T2_8,315,1,48,17,631652868
6,9,Ticks_ISO_T2_8,316,5,42,127,631988756
6,9,Ticks_ISO_T2_8,317,1,48,90,632060760
6,9,Ticks_ISO_T2_8,318,1,48,60,632086996
6,9,Ticks_ISO_T2_8,319,5,42,127,632789288
6,9,Ticks_ISO_T2_8,320,1,48,87,632833020
6,9,Ticks_ISO_T2_8,321,1,48,54,632862024
6,9,Ticks_ISO_T2_8,322,1,48,86,633557324
6,9,Ticks_ISO_T2_8,323,1,48,61,633578168
6,9,Ticks_ISO_T2_8,324,5,42,127,633588972
6,9,Ticks_ISO_T2_8,325,1,48,82,634366084
6,9,Ticks_ISO_T2_8,326,5,42,127,634388780
6,9,Ticks_ISO_T2_8,327,1,48,57,634392552
6,9,Ticks_ISO_T2_8,328,5,42,127,635188872
6,9,Ticks_ISO_T2_8,329,1,48,87,635199172
6,9,Ticks_ISO_T2_8,330,1,48,63,635226628
6,9,Ticks_ISO_T2_8,331,1,48,84,635985724
6,9,Ticks_ISO_T2_8,332,5,42,127,635989500
6,9,Ticks_ISO_T2_8,333,1,48,55,636013696
6,9,Ticks_ISO_T2_8,334,5,42,127,636788992
6,9,Ticks_ISO_T2_8,335,1,48,91,636796744
6,9,Ticks_ISO_T2_8,336,1,48,58,636825076
6,9,Ticks_ISO_T2_8,337,5,42,127,637588704
6,9,Ticks_ISO_T2_8,338,1,48,82,637625628
6,9,Ticks_ISO_T2_8,339,1,48,53,637654032
6,9,Ticks_ISO_T2_8,340,1,48,90,638383364
6,9,Ticks_ISO_T2_8,341,5,42,127,638388780
6,9,Ticks_ISO_T2_8,342,1,48,60,638410656
6,9,Ticks_ISO_T2_8,343,1,48,103,639187580
6,9,Ticks_ISO_T2_8,344,5,42,127,639189388
6,9,Ticks_ISO_T2_8,345,1,48,71,639213432
6,9,Ticks_ISO_T2_8,346,1,48,99,639986668
6,9,Ticks_ISO_T2_8,347,5,42,127,639989176
6,9,Ticks_ISO_T2_8,348,1,48,63,640019732
6,9,Ticks_ISO_T2_8,349,1,48,101,640776664
6,9,Ticks_ISO_T2_8,350,5,42,127,640788812
6,9,Ticks_ISO_T2_8,351,1,48,62,640806572
6,9,Ticks_ISO_T2_8,352,1,48,93,641564548
6,9,Ticks_ISO_T2_8,0,9999,9999,9999,545586284
6,9,Ticks_ISO_T2_8,1,9999,9999,9999,546387036
6,9,Ticks_ISO_T2_8,2,9999,9999,9999,547186792
6,9,Ticks_ISO_T2_8,3,9999,9999,9999,547986504
6,9,Ticks_ISO_T2_8,4,9999,9999,9999,548786288
6,9,Ticks_ISO_T2_8,5,9999,9999,9999,549587004
6,9,Ticks_ISO_T2_8,6,9999,9999,9999,550386760
6,9,Ticks_ISO_T2_8,7,9999,9999,9999,551186540
6,9,Ticks_ISO_T2_8,8,9999,9999,9999,551986252
6,9,Ticks_ISO_T2_8,9,9999,9999,9999,552787040
6,9,Ticks_ISO_T2_8,10,9999,9999,9999,553586752
6,9,Ticks_ISO_T2_8,11,9999,9999,9999,554386540
6,9,Ticks_ISO_T2_8,12,9999,9999,9999,555186252
6,9,Ticks_ISO_T2_8,13,9999,9999,9999,555987012
6,9,Ticks_ISO_T2_8,14,9999,9999,9999,556786788
6,9,Ticks_ISO_T2_8,15,9999,9999,9999,557586504
6,9,Ticks_ISO_T2_8,16,9999,9999,9999,558386292
6,9,Ticks_ISO_T2_8,17,9999,9999,9999,559187000
6,9,Ticks_ISO_T2_8,18,9999,9999,9999,559986784
6,9,Ticks_ISO_T2_8,19,9999,9999,9999,560786504
6,9,Ticks_ISO_T2_8,20,9999,9999,9999,561586288
6,9,Ticks_ISO_T2_8,21,9999,9999,9999,562387048
6,9,Ticks_ISO_T2_8,22,9999,9999,9999,563186752
6,9,Ticks_ISO_T2_8,23,9999,9999,9999,563986544
6,9,Ticks_ISO_T2_8,24,9999,9999,9999,564786256
6,9,Ticks_ISO_T2_8,25,9999,9999,9999,565587040
6,9,Ticks_ISO_T2_8,26,9999,9999,9999,566386744
6,9,Ticks_ISO_T2_8,27,9999,9999,9999,567186540
6,9,Ticks_ISO_T2_8,28,9999,9999,9999,567986252
6,9,Ticks_ISO_T2_8,29,9999,9999,9999,568787008
6,9,Ticks_ISO_T2_8,30,9999,9999,9999,569586796
6,9,Ticks_ISO_T2_8,31,9999,9999,9999,570386500
6,9,Ticks_ISO_T2_8,32,9999,9999,9999,571186292
6,9,Ticks_ISO_T2_8,33,9999,9999,9999,571986996
6,9,Ticks_ISO_T2_8,34,9999,9999,9999,572786780
6,9,Ticks_ISO_T2_8,35,9999,9999,9999,573586492
6,9,Ticks_ISO_T2_8,36,9999,9999,9999,574386284
6,9,Ticks_ISO_T2_8,37,9999,9999,9999,575187044
6,9,Ticks_ISO_T2_8,38,9999,9999,9999,575986756
6,9,Ticks_ISO_T2_8,39,9999,9999,9999,576786536
6,9,Ticks_ISO_T2_8,40,9999,9999,9999,577586248
6,9,Ticks_ISO_T2_8,41,9999,9999,9999,578387052
6,9,Ticks_ISO_T2_8,42,9999,9999,9999,579186768
6,9,Ticks_ISO_T2_8,43,9999,9999,9999,579986484
6,9,Ticks_ISO_T2_8,44,9999,9999,9999,580786272
6,9,Ticks_ISO_T2_8,45,9999,9999,9999,581587028
6,9,Ticks_ISO_T2_8,46,9999,9999,9999,582386812
6,9,Ticks_ISO_T2_8,47,9999,9999,9999,583186528
6,9,Ticks_ISO_T2_8,48,9999,9999,9999,583986240
6,9,Ticks_ISO_T2_8,49,9999,9999,9999,584787020
6,9,Ticks_ISO_T2_8,50,9999,9999,9999,585586808
6,9,Ticks_ISO_T2_8,51,9999,9999,9999,586386520
6,9,Ticks_ISO_T2_8,52,9999,9999,9999,587186232
6,9,Ticks_ISO_T2_8,53,9999,9999,9999,587987068
6,9,Ticks_ISO_T2_8,54,9999,9999,9999,588786776
6,9,Ticks_ISO_T2_8,55,9999,9999,9999,589586488
6,9,Ticks_ISO_T2_8,56,9999,9999,9999,590386276
6,9,Ticks_ISO_T2_8,57,9999,9999,9999,591187056
6,9,Ticks_ISO_T2_8,58,9999,9999,9999,591986740
6,9,Ticks_ISO_T2_8,59,9999,9999,9999,592786548
6,9,Ticks_ISO_T2_8,60,9999,9999,9999,593586268
6,9,Ticks_ISO_T2_8,61,9999,9999,9999,594387020
6,9,Ticks_ISO_T2_8,62,9999,9999,9999,595186808
6,9,Ticks_ISO_T2_8,63,9999,9999,9999,595986520
6,9,Ticks_ISO_T2_8,64,9999,9999,9999,596786236
6,9,Ticks_ISO_T2_8,65,9999,9999,9999,597587020
6,9,Ticks_ISO_T2_8,66,9999,9999,9999,598386808
6,9,Ticks_ISO_T2_8,67,9999,9999,9999,599186512
6,9,Ticks_ISO_T2_8,68,9999,9999,9999,599986300
6,9,Ticks_ISO_T2_8,69,9999,9999,9999,600787036
6,9,Ticks_ISO_T2_8,70,9999,9999,9999,601586776
6,9,Ticks_ISO_T2_8,71,9999,9999,9999,602386480
6,9,Ticks_ISO_T2_8,72,9999,9999,9999,603186264
6,9,Ticks_ISO_T2_8,73,9999,9999,9999,603987020
6,9,Ticks_ISO_T2_8,74,9999,9999,9999,604786764
6,9,Ticks_ISO_T2_8,75,9999,9999,9999,605586544
6,9,Ticks_ISO_T2_8,76,9999,9999,9999,606386304
6,9,Ticks_ISO_T2_8,77,9999,9999,9999,607187040
6,9,Ticks_ISO_T2_8,78,9999,9999,9999,607986772
6,9,Ticks_ISO_T2_8,79,9999,9999,9999,608786484
6,9,Ticks_ISO_T2_8,80,9999,9999,9999,609586300
6,9,Ticks_ISO_T2_8,81,9999,9999,9999,610387008
6,9,Ticks_ISO_T2_8,82,9999,9999,9999,611186792
6,9,Ticks_ISO_T2_8,83,9999,9999,9999,611986532
6,9,Ticks_ISO_T2_8,84,9999,9999,9999,612786292
6,9,Ticks_ISO_T2_8,85,9999,9999,9999,613587052
6,9,Ticks_ISO_T2_8,86,9999,9999,9999,614386760
6,9,Ticks_ISO_T2_8,87,9999,9999,9999,615186540
6,9,Ticks_ISO_T2_8,88,9999,9999,9999,615986232
6,9,Ticks_ISO_T2_8,89,9999,9999,9999,616787012
6,9,Ticks_ISO_T2_8,90,9999,9999,9999,617586748
6,9,Ticks_ISO_T2_8,91,9999,9999,9999,618386532
6,9,Ticks_ISO_T2_8,92,9999,9999,9999,619186252
6,9,Ticks_ISO_T2_8,93,9999,9999,9999,619987000
6,9,Ticks_ISO_T2_8,94,9999,9999,9999,620786792
6,9,Ticks_ISO_T2_8,95,9999,9999,9999,621586508
6,9,Ticks_ISO_T2_8,96,9999,9999,9999,622386292
6,9,Ticks_ISO_T2_8,97,9999,9999,9999,623187000
6,9,Ticks_ISO_T2_8,98,9999,9999,9999,623986784
6,9,Ticks_ISO_T2_8,99,9999,9999,9999,624786496
6,9,Ticks_ISO_T2_8,100,9999,9999,9999,625586284
6,9,Ticks_ISO_T2_8,101,9999,9999,9999,626387032
6,9,Ticks_ISO_T2_8,102,9999,9999,9999,627186768
6,9,Ticks_ISO_T2_8,103,9999,9999,9999,627986532
6,9,Ticks_ISO_T2_8,104,9999,9999,9999,628786272
6,9,Ticks_ISO_T2_8,105,9999,9999,9999,629587028
6,9,Ticks_ISO_T2_8,106,9999,9999,9999,630386740
6,9,Ticks_ISO_T2_8,107,9999,9999,9999,631186524
6,9,Ticks_ISO_T2_8,108,9999,9999,9999,631986244
6,9,Ticks_ISO_T2_8,109,9999,9999,9999,632787000
6,9,Ticks_ISO_T2_8,110,9999,9999,9999,633586760
6,9,Ticks_ISO_T2_8,111,9999,9999,9999,634386496
6,9,Ticks_ISO_T2_8,112,9999,9999,9999,635186284
6,9,Ticks_ISO_T2_8,113,9999,9999,9999,635987064
6,9,Ticks_ISO_T2_8,114,9999,9999,9999,636786780
6,9,Ticks_ISO_T2_8,115,9999,9999,9999,637586492
6,9,Ticks_ISO_T2_8,116,9999,9999,9999,638386272
6,9,Ticks_ISO_T2_8,117,9999,9999,9999,639187052
6,9,Ticks_ISO_T2_8,118,9999,9999,9999,639986740
6,9,Ticks_ISO_T2_8,119,9999,9999,9999,640786524
7,23,Ticks_Phase_5,0,5,42,127,652642724
7,23,Ticks_Phase_5,1,5,42,127,653143408
7,23,Ticks_Phase_5,2,5,42,127,653643264
7,23,Ticks_Phase_5,3,5,42,127,654142728
7,23,Ticks_Phase_5,4,5,42,127,654642512
7,23,Ticks_Phase_5,5,1,48,92,654646224
7,23,Ticks_Phase_5,6,1,48,49,654675140
7,23,Ticks_Phase_5,7,1,48,99,655135320
7,23,Ticks_Phase_5,8,5,42,127,655143364
7,23,Ticks_Phase_5,9,1,48,74,655154560
7,23,Ticks_Phase_5,10,5,42,127,655643036
7,23,Ticks_Phase_5,11,1,48,99,655646380
7,23,Ticks_Phase_5,12,1,48,68,655667028
7,23,Ticks_Phase_5,13,1,48,86,656136228
7,23,Ticks_Phase_5,14,5,42,127,656142848
7,23,Ticks_Phase_5,15,1,48,64,656158156
7,23,Ticks_Phase_5,16,1,48,95,656638288
7,23,Ticks_Phase_5,17,5,42,127,656642436
7,23,Ticks_Phase_5,18,1,48,67,656659016
7,23,Ticks_Phase_5,19,1,48,75,657136004
7,23,Ticks_Phase_5,20,5,42,127,657143076
7,23,Ticks_Phase_5,21,1,48,55,657160100
7,23,Ticks_Phase_5,22,5,42,127,657642824
7,23,Ticks_Phase_5,23,1,48,73,657644236
7,23,Ticks_Phase_5,24,1,48,55,657665168
7,23,Ticks_Phase_5,25,1,48,73,658141124
7,23,Ticks_Phase_5,26,5,42,127,658142556
7,23,Ticks_Phase_5,27,1,48,56,658166176
7,23,Ticks_Phase_5,28,5,42,127,658643200
7,23,Ticks_Phase_5,29,1,48,77,658645944
7,23,Ticks_Phase_5,30,1,48,56,658672364
7,23,Ticks_Phase_5,31,5,42,127,659142944
7,23,Ticks_Phase_5,32,1,48,89,659154448
7,23,Ticks_Phase_5,33,1,48,70,659176364
7,23,Ticks_Phase_5,34,5,42,127,659642832
7,23,Ticks_Phase_5,35,1,48,79,659650140
7,23,Ticks_Phase_5,36,1,48,63,659671768
7,23,Ticks_Phase_5,37,5,42,127,660142572
7,23,Ticks_Phase_5,38,1,48,85,660149732
7,23,Ticks_Phase_5,39,5,42,127,660643160
7,23,Ticks_Phase_5,40,1,48,80,660670012
7,23,Ticks_Phase_5,41,5,42,127,661143072
7,23,Ticks_Phase_5,42,1,48,78,661154728
7,23,Ticks_Phase_5,43,1,48,57,661181452
7,23,Ticks_Phase_5,44,5,42,127,661642592
7,23,Ticks_Phase_5,45,1,48,83,661666004
7,23,Ticks_Phase_5,46,1,48,54,661694668
7,23,Ticks_Phase_5,47,5,42,127,662143304
7,23,Ticks_Phase_5,48,1,48,77,662150924
7,23,Ticks_Phase_5,49,1,48,54,662177032
7,23,Ticks_Phase_5,50,5,42,127,662643044
7,23,Ticks_Phase_5,51,1,48,76,662670268
7,23,Ticks_Phase_5,52,1,48,51,662702464
7,23,Ticks_Phase_5,53,1,48,75,663108520
7,23,Ticks_Phase_5,54,1,48,60,663133296
7,23,Ticks_Phase_5,55,5,42,127,663142904
7,23,Ticks_Phase_5,56,1,48,74,663620620
7,23,Ticks_Phase_5,57,5,42,127,663642444
7,23,Ticks_Phase_5,58,1,48,46,663654464
7,23,Ticks_Phase_5,59,1,48,79,664122740
7,23,Ticks_Phase_5,60,5,42,127,664143160
7,23,Ticks_Phase_5,61,1,48,61,664150080
7,23,Ticks_Phase_5,62,1,48,95,664623152
7,23,Ticks_Phase_5,63,5,42,127,664642900
7,23,Ticks_Phase_5,64,1,48,67,664646448
7,23,Ticks_Phase_5,65,5,42,127,665142696
7,23,Ticks_Phase_5,66,1,48,90,665158044
7,23,Ticks_Phase_5,67,1,48,70,665180188
7,23,Ticks_Phase_5,68,5,42,127,665643336
7,23,Ticks_Phase_5,69,1,48,100,665661360
7,23,Ticks_Phase_5,70,1,48,67,665687792
7,23,Ticks_Phase_5,71,1,48,52,665708816
7,23,Ticks_Phase_5,72,5,42,127,666143052
7,23,Ticks_Phase_5,73,1,48,89,666148788
7,23,Ticks_Phase_5,74,1,48,53,666183700
7,23,Ticks_Phase_5,75,5,42,127,666642792
7,23,Ticks_Phase_5,76,1,48,86,666648608
7,23,Ticks_Phase_5,77,1,48,55,666697812
7,23,Ticks_Phase_5,78,1,48,37,666734788
7,23,Ticks_Phase_5,79,5,42,127,667142364
7,23,Ticks_Phase_5,80,1,48,90,667157540
7,23,Ticks_Phase_5,81,1,48,65,667184552
7,23,Ticks_Phase_5,82,5,42,127,667633040
7,23,Ticks_Phase_5,83,1,48,76,667655856
7,23,Ticks_Phase_5,84,1,48,53,667691636
7,23,Ticks_Phase_5,85,5,42,127,668132856
7,23,Ticks_Phase_5,86,1,48,83,668155372
7,23,Ticks_Phase_5,87,1,48,62,668181116
7,23,Ticks_Phase_5,88,5,42,127,668632596
7,23,Ticks_Phase_5,89,1,48,98,668638264
7,23,Ticks_Phase_5,90,1,48,66,668666620
7,23,Ticks_Phase_5,91,5,42,127,669133088
7,23,Ticks_Phase_5,92,1,48,96,669141528
7,23,Ticks_Phase_5,93,1,48,69,669169428
7,23,Ticks_Phase_5,94,5,42,127,669632976
7,23,Ticks_Phase_5,95,1,48,81,669637216
7,23,Ticks_Phase_5,96,1,48,61,669664832
7,23,Ticks_Phase_5,97,5,42,127,670132716
7,23,Ticks_Phase_5,98,1,48,89,670148488
7,23,Ticks_Phase_5,99,1,48,65,670175128
7,23,Ticks_Phase_5,100,5,42,127,670633780
7,23,Ticks_Phase_5,101,1,48,93,670645064
7,23,Ticks_Phase_5,102,1,48,65,670671260
7,23,Ticks_Phase_5,103,5,42,127,671133000
7,23,Ticks_Phase_5,104,1,48,93,671154692
7,23,Ticks_Phase_5,105,1,48,64,671182908
7,23,Ticks_Phase_5,106,5,42,127,671632740
7,23,Ticks_Phase_5,107,1,48,88,671653016
7,23,Ticks_Phase_5,108,1,48,58,671686688
7,23,Ticks_Phase_5,109,5,42,127,672132704
7,23,Ticks_Phase_5,110,1,48,87,672147732
7,23,Ticks_Phase_5,111,1,48,57,672181416
7,23,Ticks_Phase_5,112,5,42,127,672633192
7,23,Ticks_Phase_5,113,1,48,103,672686488
7,23,Ticks_Phase_5,114,1,48,65,672722268
7,23,Ticks_Phase_5,115,5,42,127,673132788
7,23,Ticks_Phase_5,116,1,48,92,673143768
7,23,Ticks_Phase_5,117,1,48,61,673172208
7,23,Ticks_Phase_5,118,5,42,127,673632752
7,23,Ticks_Phase_5,119,1,48,90,673656916
7,23,Ticks_Phase_5,120,1,48,62,673689768
7,23,Ticks_Phase_5,121,5,42,127,674133468
7,23,Ticks_Phase_5,122,1,48,72,674156884
7,23,Ticks_Phase_5,123,1,48,51,674195052
7,23,Ticks_Phase_5,124,5,42,127,674633208
7,23,Ticks_Phase_5,125,1,48,82,674656624
7,23,Ticks_Phase_5,126,1,48,55,674690828
7,23,Ticks_Phase_5,127,5,42,127,675132848
7,23,Ticks_Phase_5,128,1,48,91,675149996
7,23,Ticks_Phase_5,129,1,48,66,675179552
7,23,Ticks_Phase_5,130,5,42,127,675632740
7,23,Ticks_Phase_5,131,1,48,73,675657076
7,23,Ticks_Phase_5,132,1,48,52,675693900
7,23,Ticks_Phase_5,133,1,48,73,676116412
7,23,Ticks_Phase_5,134,5,42,127,676133296
7,23,Ticks_Phase_5,135,1,48,52,676150172
7,23,Ticks_Phase_5,136,1,48,83,676626792
7,23,Ticks_Phase_5,137,5,42,127,676643148
7,23,Ticks_Phase_5,138,1,48,65,676653744
7,23,Ticks_Phase_5,139,5,42,127,677142824
7,23,Ticks_Phase_5,140,1,48,76,677155300
7,23,Ticks_Phase_5,141,1,48,59,677184412
7,23,Ticks_Phase_5,142,5,42,127,677642540
7,23,Ticks_Phase_5,143,1,48,84,677657040
7,23,Ticks_Phase_5,144,1,48,59,677689744
7,23,Ticks_Phase_5,145,5,42,127,678143552
7,23,Ticks_Phase_5,146,1,48,81,678159996
7,23,Ticks_Phase_5,147,1,48,54,678198544
7,23,Ticks_Phase_5,148,5,42,127,678643144
7,23,Ticks_Phase_5,149,1,48,80,678677264
7,23,Ticks_Phase_5,150,1,48,58,678708324
7,23,Ticks_Phase_5,151,5,42,127,679142736
7,23,Ticks_Phase_5,152,1,48,81,679193336
7,23,Ticks_Phase_5,153,1,48,58,679225592
7,23,Ticks_Phase_5,154,5,42,127,679642628
7,23,Ticks_Phase_5,155,1,48,84,679667988
7,23,Ticks_Phase_5,156,1,48,62,679699716
7,23,Ticks_Phase_5,157,5,42,127,680143192
7,23,Ticks_Phase_5,158,1,48,89,680171404
7,23,Ticks_Phase_5,159,1,48,60,680209864
7,23,Ticks_Phase_5,160,5,42,127,680642856
7,23,Ticks_Phase_5,161,1,48,75,680673688
7,23,Ticks_Phase_5,162,1,48,57,680708632
7,23,Ticks_Phase_5,163,5,42,127,681142672
7,23,Ticks_Phase_5,164,1,48,84,681162272
7,23,Ticks_Phase_5,165,1,48,55,681206128
7,23,Ticks_Phase_5,166,5,42,127,681643312
7,23,Ticks_Phase_5,167,1,48,86,681658036
7,23,Ticks_Phase_5,168,1,48,57,681697556
7,23,Ticks_Phase_5,169,5,42,127,682143052
7,23,Ticks_Phase_5,170,1,48,91,682153068
7,23,Ticks_Phase_5,171,1,48,63,682188384
7,23,Ticks_Phase_5,172,1,48,48,682211440
7,23,Ticks_Phase_5,173,5,42,127,682642848
7,23,Ticks_Phase_5,174,1,48,97,682677188
7,23,Ticks_Phase_5,175,1,48,63,682715588
7,23,Ticks_Phase_5,176,1,48,45,682741484
7,23,Ticks_Phase_5,177,5,42,127,683142564
7,23,Ticks_Phase_5,178,1,48,92,683156388
7,23,Ticks_Phase_5,179,1,48,65,683186776
7,23,Ticks_Phase_5,180,5,42,127,683643352
7,23,Ticks_Phase_5,181,1,48,82,683666544
7,23,Ticks_Phase_5,182,1,48,57,683698116
7,23,Ticks_Phase_5,183,5,42,127,684143096
7,23,Ticks_Phase_5,184,1,48,78,684166808
7,23,Ticks_Phase_5,185,1,48,62,684194344
7,23,Ticks_Phase_5,186,1,48,78,684650428
7,23,Ticks_Phase_5,187,5,42,127,684663420
7,23,Ticks_Phase_5,188,1,48,58,684684504
7,23,Ticks_Phase_5,189,5,42,127,685162796
7,23,Ticks_Phase_5,190,1,48,80,685185008
7,23,Ticks_Phase_5,191,1,48,58,685218236
7,23,Ticks_Phase_5,192,5,42,127,685662540
7,23,Ticks_Phase_5,193,1,48,87,685678088
7,23,Ticks_Phase_5,194,1,48,60,685709368
7,23,Ticks_Phase_5,195,5,42,127,686163472
7,23,Ticks_Phase_5,196,1,48,90,686185016
7,23,Ticks_Phase_5,197,1,48,60,686216600
7,23,Ticks_Phase_5,198,5,42,127,686662992
7,23,Ticks_Phase_5,199,1,48,93,686690684
7,23,Ticks_Phase_5,200,1,48,59,686725024
7,23,Ticks_Phase_5,201,1,48,44,686750924
7,23,Ticks_Phase_5,202,5,42,127,687162688
7,23,Ticks_Phase_5,203,1,48,99,687174220
7,23,Ticks_Phase_5,204,1,48,66,687204680
7,23,Ticks_Phase_5,205,1,48,46,687230932
7,23,Ticks_Phase_5,206,1,48,80,687639900
7,23,Ticks_Phase_5,207,5,42,127,687662328
7,23,Ticks_Phase_5,208,1,48,60,687669916
7,23,Ticks_Phase_5,209,5,42,127,688163344
7,23,Ticks_Phase_5,210,1,48,86,688169828
7,23,Ticks_Phase_5,211,1,48,54,688218736
7,23,Ticks_Phase_5,212,1,48,34,688263952
7,23,Ticks_Phase_5,213,5,42,127,688662840
7,23,Ticks_Phase_5,214,1,48,97,688675320
7,23,Ticks_Phase_5,215,5,42,127,689162604
7,23,Ticks_Phase_5,216,1,48,81,689172244
7,23,Ticks_Phase_5,217,1,48,46,689217924
7,23,Ticks_Phase_5,218,5,42,127,689663468
7,23,Ticks_Phase_5,219,1,48,91,689679616
7,23,Ticks_Phase_5,220,1,48,61,689709548
7,23,Ticks_Phase_5,221,5,42,127,690163284
7,23,Ticks_Phase_5,222,1,48,85,690183704
7,23,Ticks_Phase_5,223,1,48,44,690234980
7,23,Ticks_Phase_5,224,1,48,86,690661596
7,23,Ticks_Phase_5,225,5,42,127,690663388
7,23,Ticks_Phase_5,226,1,48,58,690691292
7,23,Ticks_Phase_5,227,5,42,127,691162468
7,23,Ticks_Phase_5,228,1,48,87,691177192
7,23,Ticks_Phase_5,229,1,48,52,691217308
7,23,Ticks_Phase_5,230,5,42,127,691663332
7,23,Ticks_Phase_5,231,1,48,65,691679328
7,23,Ticks_Phase_5,232,1,48,37,691733680
7,23,Ticks_Phase_5,233,1,48,86,692151660
7,23,Ticks_Phase_5,234,5,42,127,692163064
7,23,Ticks_Phase_5,235,1,48,48,692188856
7,23,Ticks_Phase_5,236,1,48,93,692661836
7,23,Ticks_Phase_5,237,5,42,127,692663628
7,23,Ticks_Phase_5,238,1,48,35,692707548
7,23,Ticks_Phase_5,239,5,42,127,693143008
7,23,Ticks_Phase_5,240,1,48,74,693171144
7,23,Ticks_Phase_5,241,5,42,127,693642696
7,23,Ticks_Phase_5,242,1,48,75,693648060
7,23,Ticks_Phase_5,243,5,42,127,694143284
7,23,Ticks_Phase_5,244,1,48,84,694151048
7,23,Ticks_Phase_5,245,5,42,127,694643120
7,23,Ticks_Phase_5,246,1,48,84,694647816
7,23,Ticks_Phase_5,247,5,42,127,695142736
7,23,Ticks_Phase_5,248,1,48,73,695165772
7,23,Ticks_Phase_5,249,5,42,127,695642424
7,23,Ticks_Phase_5,250,1,48,79,695653560
7,23,Ticks_Phase_5,251,1,48,70,696143012
7,23,Ticks_Phase_5,252,5,42,127,696144348
7,23,Ticks_Phase_5,253,5,42,127,696642924
7,23,Ticks_Phase_5,254,1,48,58,696660860
7,23,Ticks_Phase_5,255,5,42,127,697142512
7,23,Ticks_Phase_5,256,1,48,69,697143480
7,23,Ticks_Phase_5,257,5,42,127,697643248
7,23,Ticks_Phase_5,258,1,48,82,697649056
7,23,Ticks_Phase_5,259,5,42,127,698143084
7,23,Ticks_Phase_5,260,1,48,69,698150616
7,23,Ticks_Phase_5,261,5,42,127,698642920
7,23,Ticks_Phase_5,262,1,48,66,698662444
7,23,Ticks_Phase_5,263,5,42,127,699142384
7,23,Ticks_Phase_5,264,1,48,81,699149696
7,23,Ticks_Phase_5,265,5,42,127,699643196
7,23,Ticks_Phase_5,266,1,48,74,699646240
7,23,Ticks_Phase_5,267,1,48,41,699683292
7,23,Ticks_Phase_5,268,5,42,127,700142860
7,23,Ticks_Phase_5,269,1,48,72,700158556
7,23,Ticks_Phase_5,270,5,42,127,700642848
7,23,Ticks_Phase_5,271,1,48,70,700673000
7,23,Ticks_Phase_5,272,5,42,127,701093184
7,23,Ticks_Phase_5,273,1,48,65,701161764
7,23,Ticks_Phase_5,274,5,42,127,701592872
7,23,Ticks_Phase_5,275,1,48,87,701634408
7,23,Ticks_Phase_5,276,1,48,40,701680900
7,23,Ticks_Phase_5,277,5,42,127,702092836
7,23,Ticks_Phase_5,278,1,48,81,702119992
7,23,Ticks_Phase_5,279,5,42,127,702593348
7,23,Ticks_Phase_5,280,1,48,80,702615864
7,23,Ticks_Phase_5,281,1,48,42,702658076
7,23,Ticks_Phase_5,282,5,42,127,703093164
7,23,Ticks_Phase_5,283,1,48,81,703109080
7,23,Ticks_Phase_5,284,5,42,127,703592852
7,23,Ticks_Phase_5,285,1,48,81,703606748
7,23,Ticks_Phase_5,286,5,42,127,704092540
7,23,Ticks_Phase_5,287,1,48,67,704093952
7,23,Ticks_Phase_5,288,5,42,127,704593128
7,23,Ticks_Phase_5,289,1,48,78,704614816
7,23,Ticks_Phase_5,290,5,42,127,705093036
7,23,Ticks_Phase_5,291,1,48,68,705112036
7,23,Ticks_Phase_5,292,1,48,62,705586748
7,23,Ticks_Phase_5,293,5,42,127,705592768
7,23,Ticks_Phase_5,294,1,48,39,705643532
7,23,Ticks_Phase_5,295,1,48,64,706090524
7,23,Ticks_Phase_5,296,5,42,127,706093408
7,23,Ticks_Phase_5,297,5,42,127,706603508
7,23,Ticks_Phase_5,298,1,48,68,706604548
7,23,Ticks_Phase_5,299,5,42,127,707103048
7,23,Ticks_Phase_5,300,1,48,60,707122120
7,23,Ticks_Phase_5,301,1,48,63,707586452
7,23,Ticks_Phase_5,302,5,42,127,707602732
7,23,Ticks_Phase_5,303,5,42,127,708102500
7,23,Ticks_Phase_5,304,1,48,63,708103468
7,23,Ticks_Phase_5,305,5,42,127,708603236
7,23,Ticks_Phase_5,306,1,48,60,708629268
7,23,Ticks_Phase_5,307,5,42,127,709103000
7,23,Ticks_Phase_5,308,1,48,53,709107688
7,23,Ticks_Phase_5,309,1,48,59,709620468
7,23,Ticks_Phase_5,310,5,42,127,709652856
7,23,Ticks_Phase_5,311,1,48,65,710121440
7,23,Ticks_Phase_5,312,5,42,127,710152768
7,23,Ticks_Phase_5,313,1,48,67,710648456
7,23,Ticks_Phase_5,314,5,42,127,710653356
7,23,Ticks_Phase_5,315,5,42,127,711152976
7,23,Ticks_Phase_5,316,1,48,68,711169720
7,23,Ticks_Phase_5,317,5,42,127,711652812
7,23,Ticks_Phase_5,318,1,48,59,711671816
7,23,Ticks_Phase_5,319,5,42,127,712152724
7,23,Ticks_Phase_5,320,1,48,79,712159060
7,23,Ticks_Phase_5,321,5,42,127,712653160
7,23,Ticks_Phase_5,322,1,48,84,712658376
7,23,Ticks_Phase_5,323,5,42,127,713152924
7,23,Ticks_Phase_5,324,1,48,72,713167200
7,23,Ticks_Phase_5,325,5,42,127,713652688
7,23,Ticks_Phase_5,326,1,48,75,713685312
7,23,Ticks_Phase_5,327,5,42,127,714153348
7,23,Ticks_Phase_5,328,1,48,69,714173844
7,23,Ticks_Phase_5,329,5,42,127,714653184
7,23,Ticks_Phase_5,330,1,48,67,714660120
7,23,Ticks_Phase_5,331,5,42,127,715152724
7,23,Ticks_Phase_5,332,1,48,73,715155692
7,23,Ticks_Phase_5,333,5,42,127,715652708
7,23,Ticks_Phase_5,334,1,48,69,715659940
7,23,Ticks_Phase_5,335,1,48,82,716145096
7,23,Ticks_Phase_5,336,5,42,127,716153288
7,23,Ticks_Phase_5,337,1,48,81,716636920
7,23,Ticks_Phase_5,338,5,42,127,716652828
7,23,Ticks_Phase_5,339,5,42,127,717152748
7,23,Ticks_Phase_5,340,1,48,87,717155192
7,23,Ticks_Phase_5,341,5,42,127,717653488
7,23,Ticks_Phase_5,342,1,48,92,717668364
7,23,Ticks_Phase_5,343,1,48,92,718154636
7,23,Ticks_Phase_5,344,5,42,127,718253428
7,23,Ticks_Phase_5,345,1,48,78,718671404
7,23,Ticks_Phase_5,346,1,48,45,718715112
7,23,Ticks_Phase_5,347,5,42,127,718763516
7,23,Ticks_Phase_5,348,1,48,73,719255912
7,23,Ticks_Phase_5,349,5,42,127,719263056
7,23,Ticks_Phase_5,350,1,48,54,719283316
7,23,Ticks_Phase_5,351,5,42,127,719762804
7,23,Ticks_Phase_5,352,1,48,70,719796172
7,23,Ticks_Phase_5,353,1,48,48,719828876
7,23,Ticks_Phase_5,354,5,42,127,720262692
7,23,Ticks_Phase_5,355,1,48,68,720281468
7,23,Ticks_Phase_5,356,5,42,127,720763352
7,23,Ticks_Phase_5,357,1,48,71,720784452
7,23,Ticks_Phase_5,358,1,48,49,720810332
7,23,Ticks_Phase_5,359,5,42,127,721262872
7,23,Ticks_Phase_5,360,1,48,81,721268680
7,23,Ticks_Phase_5,361,1,48,43,721319136
7,23,Ticks_Phase_5,362,5,42,127,721762612
7,23,Ticks_Phase_5,363,1,48,67,721798456
7,23,Ticks_Phase_5,364,1,48,80,722239044
7,23,Ticks_Phase_5,365,5,42,127,722263564
7,23,Ticks_Phase_5,366,1,48,74,722762428
7,23,Ticks_Phase_5,367,5,42,127,722763852
7,23,Ticks_Phase_5,368,5,42,127,723262724
7,23,Ticks_Phase_5,369,1,48,69,723267788
7,23,Ticks_Phase_5,370,5,42,127,723762536
7,23,Ticks_Phase_5,371,1,48,70,723793168
7,23,Ticks_Phase_5,372,1,48,69,724261912
7,23,Ticks_Phase_5,373,5,42,127,724263340
7,23,Ticks_Phase_5,374,1,48,35,724306604
7,23,Ticks_Phase_5,375,5,42,127,724762864
7,23,Ticks_Phase_5,376,1,48,76,724772648
7,23,Ticks_Phase_5,377,1,48,30,724826348
7,23,Ticks_Phase_5,378,5,42,127,725262680
7,23,Ticks_Phase_5,379,1,48,69,725269984
7,23,Ticks_Phase_5,380,5,42,127,725762440
7,23,Ticks_Phase_5,381,1,48,78,725777240
7,23,Ticks_Phase_5,382,1,48,78,726263396
7,23,Ticks_Phase_5,383,5,42,127,726264732
7,23,Ticks_Phase_5,384,5,42,127,726762788
7,23,Ticks_Phase_5,385,1,48,76,726769568
7,23,Ticks_Phase_5,386,1,48,43,726810436
7,23,Ticks_Phase_5,387,5,42,127,727262532
7,23,Ticks_Phase_5,388,1,48,74,727281160
7,23,Ticks_Phase_5,389,5,42,127,727663068
7,23,Ticks_Phase_5,390,1,48,77,727782868
7,23,Ticks_Phase_5,391,5,42,127,728162536
7,23,Ticks_Phase_5,392,1,48,70,728292140
7,23,Ticks_Phase_5,393,1,48,49,728319072
7,23,Ticks_Phase_5,394,5,42,127,728663396
7,23,Ticks_Phase_5,395,1,48,64,728720276
7,23,Ticks_Phase_5,396,1,48,65,729150160
7,23,Ticks_Phase_5,397,5,42,127,729163300
7,23,Ticks_Phase_5,398,5,42,127,729662996
7,23,Ticks_Phase_5,399,1,48,54,729882696
7,23,Ticks_Phase_5,400,5,42,127,730162508
7,23,Ticks_Phase_5,401,1,48,64,730280820
7,23,Ticks_Phase_5,402,1,48,61,730657440
7,23,Ticks_Phase_5,403,5,42,127,730663312
7,23,Ticks_Phase_5,404,1,48,54,731147468
7,23,Ticks_Phase_5,405,5,42,127,731162924
7,23,Ticks_Phase_5,406,1,48,68,731638916
7,23,Ticks_Phase_5,407,1,48,50,731663268
7,23,Ticks_Phase_5,408,5,42,127,731664460
7,23,Ticks_Phase_5,409,1,48,62,732156404
7,23,Ticks_Phase_5,410,5,42,127,732162432
7,23,Ticks_Phase_5,411,1,48,66,732656848
7,23,Ticks_Phase_5,412,5,42,127,732663016
7,23,Ticks_Phase_5,413,1,48,54,732678400
7,23,Ticks_Phase_5,414,5,42,127,733163064
7,23,Ticks_Phase_5,415,1,48,64,733179880
7,23,Ticks_Phase_5,416,1,48,45,733207576
7,23,Ticks_Phase_5,417,5,42,127,733662504
7,23,Ticks_Phase_5,418,1,48,58,733675136
7,23,Ticks_Phase_5,419,1,48,37,733718320
7,23,Ticks_Phase_5,420,5,42,127,734163292
7,23,Ticks_Phase_5,421,1,48,65,734176068
7,23,Ticks_Phase_5,422,5,42,127,734663128
7,23,Ticks_Phase_5,423,1,48,57,734666100
7,23,Ticks_Phase_5,424,5,42,127,735162592
7,23,Ticks_Phase_5,425,1,48,63,735181144
7,23,Ticks_Phase_5,426,1,48,68,735656104
7,23,Ticks_Phase_5,427,5,42,127,735662424
7,23,Ticks_Phase_5,428,1,48,67,736158556
7,23,Ticks_Phase_5,429,5,42,127,736163236
7,23,Ticks_Phase_5,430,5,42,127,736662928
7,23,Ticks_Phase_5,431,1,48,70,736697800
7,23,Ticks_Phase_5,432,5,42,127,737162468
7,23,Ticks_Phase_5,0,9999,9999,9999,652640360
7,23,Ticks_Phase_5,1,9999,9999,9999,653141120
7,23,Ticks_Phase_5,2,9999,9999,9999,653640828
7,23,Ticks_Phase_5,3,9999,9999,9999,654140512
7,23,Ticks_Phase_5,4,9999,9999,9999,654640224
7,23,Ticks_Phase_5,5,9999,9999,9999,655140928
7,23,Ticks_Phase_5,6,9999,9999,9999,655640676
7,23,Ticks_Phase_5,7,9999,9999,9999,656140412
7,23,Ticks_Phase_5,8,9999,9999,9999,656640076
7,23,Ticks_Phase_5,9,9999,9999,9999,657140788
7,23,Ticks_Phase_5,10,9999,9999,9999,657640536
7,23,Ticks_Phase_5,11,9999,9999,9999,658140276
7,23,Ticks_Phase_5,12,9999,9999,9999,658640988
7,23,Ticks_Phase_5,13,9999,9999,9999,659140728
7,23,Ticks_Phase_5,14,9999,9999,9999,659640396
7,23,Ticks_Phase_5,15,9999,9999,9999,660140136
7,23,Ticks_Phase_5,16,9999,9999,9999,660640872
7,23,Ticks_Phase_5,17,9999,9999,9999,661140564
7,23,Ticks_Phase_5,18,9999,9999,9999,661640304
7,23,Ticks_Phase_5,19,9999,9999,9999,662141016
7,23,Ticks_Phase_5,20,9999,9999,9999,662640760
7,23,Ticks_Phase_5,21,9999,9999,9999,663140472
7,23,Ticks_Phase_5,22,9999,9999,9999,663640160
7,23,Ticks_Phase_5,23,9999,9999,9999,664140872
7,23,Ticks_Phase_5,24,9999,9999,9999,664640592
7,23,Ticks_Phase_5,25,9999,9999,9999,665140336
7,23,Ticks_Phase_5,26,9999,9999,9999,665641048
7,23,Ticks_Phase_5,27,9999,9999,9999,666140764
7,23,Ticks_Phase_5,28,9999,9999,9999,666640508
7,23,Ticks_Phase_5,29,9999,9999,9999,667140152
7,23,Ticks_Phase_5,30,9999,9999,9999,667630680
7,23,Ticks_Phase_5,31,9999,9999,9999,668130420
7,23,Ticks_Phase_5,32,9999,9999,9999,668630088
7,23,Ticks_Phase_5,33,9999,9999,9999,669130872
7,23,Ticks_Phase_5,34,9999,9999,9999,669630540
7,23,Ticks_Phase_5,35,9999,9999,9999,670130280
7,23,Ticks_Phase_5,36,9999,9999,9999,670630972
7,23,Ticks_Phase_5,37,9999,9999,9999,671130712
7,23,Ticks_Phase_5,38,9999,9999,9999,671630452
7,23,Ticks_Phase_5,39,9999,9999,9999,672130120
7,23,Ticks_Phase_5,40,9999,9999,9999,672630908
7,23,Ticks_Phase_5,41,9999,9999,9999,673130572
7,23,Ticks_Phase_5,42,9999,9999,9999,673630316
7,23,Ticks_Phase_5,43,9999,9999,9999,674131032
7,23,Ticks_Phase_5,44,9999,9999,9999,674630772
7,23,Ticks_Phase_5,45,9999,9999,9999,675130488
7,23,Ticks_Phase_5,46,9999,9999,9999,675630156
7,23,Ticks_Phase_5,47,9999,9999,9999,676130936
7,23,Ticks_Phase_5,48,9999,9999,9999,676640860
7,23,Ticks_Phase_5,49,9999,9999,9999,677140536
7,23,Ticks_Phase_5,50,9999,9999,9999,677640252
7,23,Ticks_Phase_5,51,9999,9999,9999,678141040
7,23,Ticks_Phase_5,52,9999,9999,9999,678640708
7,23,Ticks_Phase_5,53,9999,9999,9999,679140448
7,23,Ticks_Phase_5,54,9999,9999,9999,679640192
7,23,Ticks_Phase_5,55,9999,9999,9999,680140904
7,23,Ticks_Phase_5,56,9999,9999,9999,680640572
7,23,Ticks_Phase_5,57,9999,9999,9999,681140312
7,23,Ticks_Phase_5,58,9999,9999,9999,681641024
7,23,Ticks_Phase_5,59,9999,9999,9999,682140764
7,23,Ticks_Phase_5,60,9999,9999,9999,682640484
7,23,Ticks_Phase_5,61,9999,9999,9999,683140204
7,23,Ticks_Phase_5,62,9999,9999,9999,683640916
7,23,Ticks_Phase_5,63,9999,9999,9999,684140660
7,23,Ticks_Phase_5,64,9999,9999,9999,684660836
7,23,Ticks_Phase_5,65,9999,9999,9999,685160512
7,23,Ticks_Phase_5,66,9999,9999,9999,685660252
7,23,Ticks_Phase_5,67,9999,9999,9999,686160964
7,23,Ticks_Phase_5,68,9999,9999,9999,686660704
7,23,Ticks_Phase_5,69,9999,9999,9999,687160400
7,23,Ticks_Phase_5,70,9999,9999,9999,687660116
7,23,Ticks_Phase_5,71,9999,9999,9999,688160836
7,23,Ticks_Phase_5,72,9999,9999,9999,688660552
7,23,Ticks_Phase_5,73,9999,9999,9999,689160316
7,23,Ticks_Phase_5,74,9999,9999,9999,689661032
7,23,Ticks_Phase_5,75,9999,9999,9999,690160700
7,23,Ticks_Phase_5,76,9999,9999,9999,690660440
7,23,Ticks_Phase_5,77,9999,9999,9999,691160180
7,23,Ticks_Phase_5,78,9999,9999,9999,691660896
7,23,Ticks_Phase_5,79,9999,9999,9999,692160628
7,23,Ticks_Phase_5,80,9999,9999,9999,692660300
7,23,Ticks_Phase_5,81,9999,9999,9999,693140572
7,23,Ticks_Phase_5,82,9999,9999,9999,693640260
7,23,Ticks_Phase_5,83,9999,9999,9999,694140996
7,23,Ticks_Phase_5,84,9999,9999,9999,694640760
7,23,Ticks_Phase_5,85,9999,9999,9999,695140448
7,23,Ticks_Phase_5,86,9999,9999,9999,695640136
7,23,Ticks_Phase_5,87,9999,9999,9999,696140872
7,23,Ticks_Phase_5,88,9999,9999,9999,696640636
7,23,Ticks_Phase_5,89,9999,9999,9999,697140300
7,23,Ticks_Phase_5,90,9999,9999,9999,697641036
7,23,Ticks_Phase_5,91,9999,9999,9999,698140796
7,23,Ticks_Phase_5,92,9999,9999,9999,698640484
7,23,Ticks_Phase_5,93,9999,9999,9999,699140172
7,23,Ticks_Phase_5,94,9999,9999,9999,699640908
7,23,Ticks_Phase_5,95,9999,9999,9999,700140648
7,23,Ticks_Phase_5,96,9999,9999,9999,700640336
7,23,Ticks_Phase_5,97,9999,9999,9999,701090896
7,23,Ticks_Phase_5,98,9999,9999,9999,701590588
7,23,Ticks_Phase_5,99,9999,9999,9999,702090328
7,23,Ticks_Phase_5,100,9999,9999,9999,702591060
7,23,Ticks_Phase_5,101,9999,9999,9999,703090800
7,23,Ticks_Phase_5,102,9999,9999,9999,703590492
7,23,Ticks_Phase_5,103,9999,9999,9999,704090180
7,23,Ticks_Phase_5,104,9999,9999,9999,704590912
7,23,Ticks_Phase_5,105,9999,9999,9999,705090676
7,23,Ticks_Phase_5,106,9999,9999,9999,705590332
7,23,Ticks_Phase_5,107,9999,9999,9999,706091120
7,23,Ticks_Phase_5,108,9999,9999,9999,706601072
7,23,Ticks_Phase_5,109,9999,9999,9999,707100760
7,23,Ticks_Phase_5,110,9999,9999,9999,707600444
7,23,Ticks_Phase_5,111,9999,9999,9999,708100216
7,23,Ticks_Phase_5,112,9999,9999,9999,708600948
7,23,Ticks_Phase_5,113,9999,9999,9999,709100640
7,23,Ticks_Phase_5,114,9999,9999,9999,709650496
7,23,Ticks_Phase_5,115,9999,9999,9999,710150260
7,23,Ticks_Phase_5,116,9999,9999,9999,710650996
7,23,Ticks_Phase_5,117,9999,9999,9999,711150688
7,23,Ticks_Phase_5,118,9999,9999,9999,711650376
7,23,Ticks_Phase_5,119,9999,9999,9999,712150140
7,23,Ticks_Phase_5,120,9999,9999,9999,712650872
7,23,Ticks_Phase_5,121,9999,9999,9999,713150564
7,23,Ticks_Phase_5,122,9999,9999,9999,713650252
7,23,Ticks_Phase_5,123,9999,9999,9999,714150988
7,23,Ticks_Phase_5,124,9999,9999,9999,714650748
7,23,Ticks_Phase_5,125,9999,9999,9999,715150436
7,23,Ticks_Phase_5,126,9999,9999,9999,715650124
7,23,Ticks_Phase_5,127,9999,9999,9999,716150856
7,23,Ticks_Phase_5,128,9999,9999,9999,716650616
7,23,Ticks_Phase_5,129,9999,9999,9999,717150312
7,23,Ticks_Phase_5,130,9999,9999,9999,717651048
7,23,Ticks_Phase_5,131,9999,9999,9999,718251064
7,23,Ticks_Phase_5,132,9999,9999,9999,718761080
7,23,Ticks_Phase_5,133,9999,9999,9999,719260768
7,23,Ticks_Phase_5,134,9999,9999,9999,719760444
7,23,Ticks_Phase_5,135,9999,9999,9999,720260184
7,23,Ticks_Phase_5,136,9999,9999,9999,720760920
7,23,Ticks_Phase_5,137,9999,9999,9999,721260660
7,23,Ticks_Phase_5,138,9999,9999,9999,721760328
7,23,Ticks_Phase_5,139,9999,9999,9999,722261052
7,23,Ticks_Phase_5,140,9999,9999,9999,722760824
7,23,Ticks_Phase_5,141,9999,9999,9999,723260488
7,23,Ticks_Phase_5,142,9999,9999,9999,723760248
7,23,Ticks_Phase_5,143,9999,9999,9999,724260984
7,23,Ticks_Phase_5,144,9999,9999,9999,724760648
7,23,Ticks_Phase_5,145,9999,9999,9999,725260392
7,23,Ticks_Phase_5,146,9999,9999,9999,725760080
7,23,Ticks_Phase_5,147,9999,9999,9999,726260812
7,23,Ticks_Phase_5,148,9999,9999,9999,726760500
7,23,Ticks_Phase_5,149,9999,9999,9999,727260244
7,23,Ticks_Phase_5,150,9999,9999,9999,727660632
7,23,Ticks_Phase_5,151,9999,9999,9999,728160324
7,23,Ticks_Phase_5,152,9999,9999,9999,728661108
7,23,Ticks_Phase_5,153,9999,9999,9999,729160788
7,23,Ticks_Phase_5,154,9999,9999,9999,729660536
7,23,Ticks_Phase_5,155,9999,9999,9999,730160224
7,23,Ticks_Phase_5,156,9999,9999,9999,730660952
7,23,Ticks_Phase_5,157,9999,9999,9999,731160640
7,23,Ticks_Phase_5,158,9999,9999,9999,731660400
7,23,Ticks_Phase_5,159,9999,9999,9999,732160068
7,23,Ticks_Phase_5,160,9999,9999,9999,732660804
7,23,Ticks_Phase_5,161,9999,9999,9999,733160552
7,23,Ticks_Phase_5,162,9999,9999,9999,733660220
7,23,Ticks_Phase_5,163,9999,9999,9999,734161004
7,23,Ticks_Phase_5,164,9999,9999,9999,734660692
7,23,Ticks_Phase_5,165,9999,9999,9999,735160380
7,23,Ticks_Phase_5,166,9999,9999,9999,735660136
7,23,Ticks_Phase_5,167,9999,9999,9999,736160872
7,23,Ticks_Phase_5,168,9999,9999,9999,736660568
7,23,Ticks_Phase_5,169,9999,9999,9999,737160256
8,22,Ticks_Phase_8,0,5,42,127,750343652
8,22,Ticks_Phase_8,1,5,42,127,751144208
8,22,Ticks_Phase_8,2,1,48,17,751435172
8,22,Ticks_Phase_8,3,5,42,127,751944020
8,22,Ticks_Phase_8,4,5,42,127,752743752
8,22,Ticks_Phase_8,5,5,42,127,753543488
8,22,Ticks_Phase_8,6,1,48,75,753560304
8,22,Ticks_Phase_8,7,5,42,127,754344244
8,22,Ticks_Phase_8,8,1,48,84,754360396
8,22,Ticks_Phase_8,9,1,48,54,754395572
8,22,Ticks_Phase_8,10,5,42,127,755143936
8,22,Ticks_Phase_8,11,1,48,63,755197604
8,22,Ticks_Phase_8,12,1,48,83,755914480
8,22,Ticks_Phase_8,13,5,42,127,755943716
8,22,Ticks_Phase_8,14,5,42,127,756743508
8,22,Ticks_Phase_8,15,1,48,73,756746100
8,22,Ticks_Phase_8,16,5,42,127,757544564
8,22,Ticks_Phase_8,17,1,48,75,757581032
8,22,Ticks_Phase_8,18,1,48,72,758320200
8,22,Ticks_Phase_8,19,5,42,127,758344144
8,22,Ticks_Phase_8,20,1,48,43,758378176
8,22,Ticks_Phase_8,21,5,42,127,759143840
8,22,Ticks_Phase_8,22,1,48,78,759151764
8,22,Ticks_Phase_8,23,5,42,127,759943480
8,22,Ticks_Phase_8,24,1,48,91,759958352
8,22,Ticks_Phase_8,25,5,42,127,760744312
8,22,Ticks_Phase_8,26,1,48,79,760770192
8,22,Ticks_Phase_8,27,1,48,84,761536576
8,22,Ticks_Phase_8,28,5,42,127,761544168
8,22,Ticks_Phase_8,29,5,42,127,762343740
8,22,Ticks_Phase_8,30,1,48,71,762355096
8,22,Ticks_Phase_8,31,5,42,127,763143524
8,22,Ticks_Phase_8,32,1,48,68,763169480
8,22,Ticks_Phase_8,33,1,48,72,763929192
8,22,Ticks_Phase_8,34,5,42,127,763944276
8,22,Ticks_Phase_8,35,1,48,64,764742348
8,22,Ticks_Phase_8,36,5,42,127,764744160
8,22,Ticks_Phase_8,37,5,42,127,765543880
8,22,Ticks_Phase_8,38,1,48,71,765598296
8,22,Ticks_Phase_8,39,1,48,72,766314424
8,22,Ticks_Phase_8,40,5,42,127,766343584
8,22,Ticks_Phase_8,41,5,42,127,767144276
8,22,Ticks_Phase_8,42,1,48,85,767150980
8,22,Ticks_Phase_8,43,1,48,90,767926728
8,22,Ticks_Phase_8,44,5,42,127,767944128
8,22,Ticks_Phase_8,45,1,48,51,767974648
8,22,Ticks_Phase_8,46,5,42,127,768743752
8,22,Ticks_Phase_8,47,1,48,75,768755860
8,22,Ticks_Phase_8,48,5,42,127,769543388
8,22,Ticks_Phase_8,49,1,48,71,769569196
8,22,Ticks_Phase_8,50,5,42,127,770344220
8,22,Ticks_Phase_8,51,1,48,96,770364892
8,22,Ticks_Phase_8,52,5,42,127,771144032
8,22,Ticks_Phase_8,53,1,48,99,771156808
8,22,Ticks_Phase_8,54,5,42,127,771944040
8,22,Ticks_Phase_8,55,1,48,103,771966632
8,22,Ticks_Phase_8,56,1,48,48,772011184
8,22,Ticks_Phase_8,57,5,42,127,772743436
8,22,Ticks_Phase_8,58,1,48,83,772780176
8,22,Ticks_Phase_8,59,1,48,93,773539512
8,22,Ticks_Phase_8,60,5,42,127,773544264
8,22,Ticks_Phase_8,61,1,48,48,773588108
8,22,Ticks_Phase_8,62,5,42,127,774323444
8,22,Ticks_Phase_8,63,1,48,89,774349852
8,22,Ticks_Phase_8,64,1,48,100,775124572
8,22,Ticks_Phase_8,65,5,42,127,775126064
8,22,Ticks_Phase_8,66,1,48,98,775923080
8,22,Ticks_Phase_8,67,5,42,127,775924956
8,22,Ticks_Phase_8,68,1,48,53,775971040
8,22,Ticks_Phase_8,69,1,48,103,776719372
8,22,Ticks_Phase_8,70,5,42,127,776723896
8,22,Ticks_Phase_8,71,1,48,52,776765744
8,22,Ticks_Phase_8,72,5,42,127,777523592
8,22,Ticks_Phase_8,73,1,48,94,777533556
8,22,Ticks_Phase_8,74,1,48,75,778306744
8,22,Ticks_Phase_8,75,5,42,127,778324368
8,22,Ticks_Phase_8,76,1,48,103,779112972
8,22,Ticks_Phase_8,77,5,42,127,779124004
8,22,Ticks_Phase_8,78,5,42,127,779923948
8,22,Ticks_Phase_8,79,1,48,91,779929012
8,22,Ticks_Phase_8,80,1,48,30,780356276
8,22,Ticks_Phase_8,81,5,42,127,780723712
8,22,Ticks_Phase_8,82,1,48,73,780740380
8,22,Ticks_Phase_8,83,1,48,84,781521880
8,22,Ticks_Phase_8,84,5,42,127,781524464
8,22,Ticks_Phase_8,85,1,48,50,781569948
8,22,Ticks_Phase_8,86,5,42,127,782324160
8,22,Ticks_Phase_8,87,1,48,84,782349744
8,22,Ticks_Phase_8,88,5,42,127,783123868
8,22,Ticks_Phase_8,89,1,48,84,783133884
8,22,Ticks_Phase_8,90,1,48,98,783904900
8,22,Ticks_Phase_8,91,5,42,127,783923648
8,22,Ticks_Phase_8,92,5,42,127,784724660
8,22,Ticks_Phase_8,93,1,48,78,784727112
8,22,Ticks_Phase_8,94,1,48,74,785519768
8,22,Ticks_Phase_8,95,5,42,127,785523996
8,22,Ticks_Phase_8,96,1,48,76,786316036
8,22,Ticks_Phase_8,97,5,42,127,786323780
8,22,Ticks_Phase_8,98,5,42,127,787123648
8,22,Ticks_Phase_8,99,1,48,66,787140464
8,22,Ticks_Phase_8,100,5,42,127,787924628
8,22,Ticks_Phase_8,101,1,48,97,787948196
8,22,Ticks_Phase_8,102,1,48,79,788726328
8,22,Ticks_Phase_8,103,5,42,127,788743512
8,22,Ticks_Phase_8,104,1,48,44,788785704
8,22,Ticks_Phase_8,105,1,48,96,789537552
8,22,Ticks_Phase_8,106,5,42,127,789544172
8,22,Ticks_Phase_8,107,1,48,93,790331364
8,22,Ticks_Phase_8,108,5,42,127,790344132
8,22,Ticks_Phase_8,109,1,48,91,791119844
8,22,Ticks_Phase_8,110,5,42,127,791143844
8,22,Ticks_Phase_8,111,1,48,86,791902192
8,22,Ticks_Phase_8,112,5,42,127,791943632
8,22,Ticks_Phase_8,113,1,48,86,792741580
8,22,Ticks_Phase_8,114,5,42,127,792744536
8,22,Ticks_Phase_8,115,5,42,127,793544036
8,22,Ticks_Phase_8,116,1,48,105,793552328
8,22,Ticks_Phase_8,117,5,42,127,794343672
8,22,Ticks_Phase_8,118,1,48,112,794389776
8,22,Ticks_Phase_8,119,1,48,74,795141788
8,22,Ticks_Phase_8,120,5,42,127,795143452
8,22,Ticks_Phase_8,121,1,48,99,795934824
8,22,Ticks_Phase_8,122,5,42,127,795944508
8,22,Ticks_Phase_8,123,5,42,127,796743952
8,22,Ticks_Phase_8,124,1,48,92,796755088
8,22,Ticks_Phase_8,125,5,42,127,797543740
8,22,Ticks_Phase_8,126,1,48,75,797576368
8,22,Ticks_Phase_8,127,1,48,79,798334356
8,22,Ticks_Phase_8,128,5,42,127,798343596
8,22,Ticks_Phase_8,129,5,42,127,799144436
8,22,Ticks_Phase_8,130,1,48,87,799165608
8,22,Ticks_Phase_8,131,1,48,70,799928980
8,22,Ticks_Phase_8,132,5,42,127,799944288
8,22,Ticks_Phase_8,133,1,48,81,800744304
8,22,Ticks_Phase_8,134,5,42,127,800745420
8,22,Ticks_Phase_8,135,1,48,76,801529752
8,22,Ticks_Phase_8,136,5,42,127,801583332
8,22,Ticks_Phase_8,137,5,42,127,802384496
8,22,Ticks_Phase_8,138,1,48,74,802420040
8,22,Ticks_Phase_8,139,1,48,31,802498276
8,22,Ticks_Phase_8,140,1,48,77,803180552
8,22,Ticks_Phase_8,141,5,42,127,803184104
8,22,Ticks_Phase_8,142,5,42,127,803983600
8,22,Ticks_Phase_8,143,1,48,76,803986192
8,22,Ticks_Phase_8,144,5,42,127,804783536
8,22,Ticks_Phase_8,145,1,48,68,804811068
8,22,Ticks_Phase_8,146,1,48,76,805569352
8,22,Ticks_Phase_8,147,5,42,127,805584360
8,22,Ticks_Phase_8,148,5,42,127,806384228
8,22,Ticks_Phase_8,149,1,48,71,806395068
8,22,Ticks_Phase_8,150,1,48,34,806464792
8,22,Ticks_Phase_8,151,5,42,127,807183620
8,22,Ticks_Phase_8,152,1,48,64,807234172
8,22,Ticks_Phase_8,153,5,42,127,807983560
8,22,Ticks_Phase_8,154,1,48,81,808028112
8,22,Ticks_Phase_8,155,1,48,76,808758964
8,22,Ticks_Phase_8,156,5,42,127,808784184
8,22,Ticks_Phase_8,157,1,48,63,809572040
8,22,Ticks_Phase_8,158,5,42,127,809584268
8,22,Ticks_Phase_8,159,5,42,127,810384064
8,22,Ticks_Phase_8,160,1,48,79,810452792
8,22,Ticks_Phase_8,161,1,48,78,811137312
8,22,Ticks_Phase_8,162,5,42,127,811183472
8,22,Ticks_Phase_8,163,1,48,44,811187096
8,22,Ticks_Phase_8,164,1,48,77,811975416
8,22,Ticks_Phase_8,165,5,42,127,811984132
8,22,Ticks_Phase_8,166,1,48,43,812021752
8,22,Ticks_Phase_8,167,5,42,127,812783976
8,22,Ticks_Phase_8,168,1,48,68,812810536
8,22,Ticks_Phase_8,169,1,48,45,812850652
8,22,Ticks_Phase_8,170,1,48,75,813562068
8,22,Ticks_Phase_8,171,5,42,127,813583584
8,22,Ticks_Phase_8,172,1,48,53,813608924
8,22,Ticks_Phase_8,173,5,42,127,814383432
8,22,Ticks_Phase_8,174,1,48,81,814433084
8,22,Ticks_Phase_8,175,5,42,127,815144280
8,22,Ticks_Phase_8,176,1,48,78,815164876
8,22,Ticks_Phase_8,177,1,48,78,815913108
8,22,Ticks_Phase_8,178,5,42,127,815944008
8,22,Ticks_Phase_8,179,1,48,69,816721740
8,22,Ticks_Phase_8,180,5,42,127,816743944
8,22,Ticks_Phase_8,181,5,42,127,817543512
8,22,Ticks_Phase_8,182,1,48,75,817596736
8,22,Ticks_Phase_8,183,5,42,127,818344420
8,22,Ticks_Phase_8,184,1,48,68,818368812
8,22,Ticks_Phase_8,185,1,48,72,819123132
8,22,Ticks_Phase_8,186,5,42,127,819144128
8,22,Ticks_Phase_8,187,1,48,56,819943844
8,22,Ticks_Phase_8,188,5,42,127,819945032
8,22,Ticks_Phase_8,189,1,48,57,820702784
8,22,Ticks_Phase_8,190,5,42,127,820743696
8,22,Ticks_Phase_8,191,1,48,65,821517472
8,22,Ticks_Phase_8,192,5,42,127,821544308
8,22,Ticks_Phase_8,193,1,48,48,821550704
8,22,Ticks_Phase_8,194,5,42,127,822344104
8,22,Ticks_Phase_8,195,1,48,62,822372844
8,22,Ticks_Phase_8,196,5,42,127,823143668
8,22,Ticks_Phase_8,197,1,48,60,823156748
8,22,Ticks_Phase_8,198,1,48,62,823918704
8,22,Ticks_Phase_8,199,5,42,127,823943672
8,22,Ticks_Phase_8,200,1,48,42,823958980
8,22,Ticks_Phase_8,201,5,42,127,824744264
8,22,Ticks_Phase_8,202,1,48,68,824765060
8,22,Ticks_Phase_8,203,1,48,28,824841804
8,22,Ticks_Phase_8,204,5,42,127,825544104
8,22,Ticks_Phase_8,205,1,48,68,825559504
8,22,Ticks_Phase_8,206,5,42,127,826343892
8,22,Ticks_Phase_8,207,1,48,72,826385352
8,22,Ticks_Phase_8,208,1,48,64,827131276
8,22,Ticks_Phase_8,209,5,42,127,827143668
8,22,Ticks_Phase_8,210,5,42,127,827864532
8,22,Ticks_Phase_8,211,1,48,53,827973496
8,22,Ticks_Phase_8,212,5,42,127,828674428
8,22,Ticks_Phase_8,213,1,48,53,828694924
8,22,Ticks_Phase_8,214,5,42,127,829484472
8,22,Ticks_Phase_8,215,1,48,68,829516076
8,22,Ticks_Phase_8,216,5,42,127,830284136
8,22,Ticks_Phase_8,217,1,48,61,830329864
8,22,Ticks_Phase_8,218,5,42,127,831083772
8,22,Ticks_Phase_8,219,1,48,59,831102696
8,22,Ticks_Phase_8,220,5,42,127,831883560
8,22,Ticks_Phase_8,221,1,48,61,831921288
8,22,Ticks_Phase_8,222,1,48,63,832682652
8,22,Ticks_Phase_8,223,5,42,127,832684388
8,22,Ticks_Phase_8,224,1,48,30,832762832
8,22,Ticks_Phase_8,225,5,42,127,833484160
8,22,Ticks_Phase_8,226,1,48,58,833512672
8,22,Ticks_Phase_8,227,5,42,127,834283872
8,22,Ticks_Phase_8,228,1,48,60,834305636
8,22,Ticks_Phase_8,229,1,48,64,835045876
8,22,Ticks_Phase_8,230,5,42,127,835083648
8,22,Ticks_Phase_8,231,5,42,127,835884716
8,22,Ticks_Phase_8,232,1,48,68,835914076
8,22,Ticks_Phase_8,233,5,42,127,836684228
8,22,Ticks_Phase_8,234,1,48,76,836692060
8,22,Ticks_Phase_8,235,5,42,127,837484012
8,22,Ticks_Phase_8,236,1,48,58,837502492
8,22,Ticks_Phase_8,237,1,48,77,838281760
8,22,Ticks_Phase_8,238,5,42,127,838283496
8,22,Ticks_Phase_8,239,5,42,127,839084484
8,22,Ticks_Phase_8,240,1,48,72,839100780
8,22,Ticks_Phase_8,241,5,42,127,839884196
8,22,Ticks_Phase_8,242,1,48,63,839895332
8,22,Ticks_Phase_8,243,5,42,127,840684056
8,22,Ticks_Phase_8,244,1,48,65,840700276
8,22,Ticks_Phase_8,245,1,48,62,841489268
8,22,Ticks_Phase_8,246,5,42,127,841563468
8,22,Ticks_Phase_8,247,5,42,127,842364160
8,22,Ticks_Phase_8,248,1,48,63,842413712
8,22,Ticks_Phase_8,249,5,42,127,843164168
8,22,Ticks_Phase_8,250,1,48,63,843199644
8,22,Ticks_Phase_8,251,5,42,127,843964104
8,22,Ticks_Phase_8,252,1,48,63,843994040
8,22,Ticks_Phase_8,253,5,42,127,844763520
8,22,Ticks_Phase_8,254,1,48,63,844819208
8,22,Ticks_Phase_8,255,1,48,32,844880096
8,22,Ticks_Phase_8,256,1,48,56,845554712
8,22,Ticks_Phase_8,257,5,42,127,845564248
8,22,Ticks_Phase_8,258,5,42,127,846364192
8,22,Ticks_Phase_8,259,1,48,56,846372188
8,22,Ticks_Phase_8,260,5,42,127,847163628
8,22,Ticks_Phase_8,261,1,48,57,847185248
8,22,Ticks_Phase_8,262,1,48,64,847942716
8,22,Ticks_Phase_8,263,5,42,127,847963484
8,22,Ticks_Phase_8,264,5,42,127,848764320
8,22,Ticks_Phase_8,265,1,48,65,848785792
8,22,Ticks_Phase_8,266,1,48,69,849541076
8,22,Ticks_Phase_8,267,5,42,127,849564104
8,22,Ticks_Phase_8,268,1,48,47,849598212
8,22,Ticks_Phase_8,269,5,42,127,850363876
8,22,Ticks_Phase_8,270,1,48,62,850496200
8,22,Ticks_Phase_8,271,5,42,127,851163436
8,22,Ticks_Phase_8,272,1,48,60,851254428
8,22,Ticks_Phase_8,273,5,42,127,851964268
8,22,Ticks_Phase_8,274,1,48,63,852046952
8,22,Ticks_Phase_8,275,1,48,63,852756080
8,22,Ticks_Phase_8,276,5,42,127,852763900
8,22,Ticks_Phase_8,277,1,48,40,852798856
8,22,Ticks_Phase_8,278,5,42,127,853563920
8,22,Ticks_Phase_8,279,1,48,69,853579320
8,22,Ticks_Phase_8,280,5,42,127,854363484
8,22,Ticks_Phase_8,281,1,48,71,854377540
8,22,Ticks_Phase_8,282,1,48,63,855237000
8,22,Ticks_Phase_8,283,5,42,127,855324048
8,22,Ticks_Phase_8,284,5,42,127,856123868
8,22,Ticks_Phase_8,285,1,48,59,856191904
8,22,Ticks_Phase_8,286,5,42,127,856923580
8,22,Ticks_Phase_8,287,1,48,70,857564640
8,22,Ticks_Phase_8,288,1,48,53,857613524
8,22,Ticks_Phase_8,289,5,42,127,857724168
8,22,Ticks_Phase_8,290,1,48,71,858180100
8,22,Ticks_Phase_8,291,1,48,56,858211692
8,22,Ticks_Phase_8,292,5,42,127,858524008
8,22,Ticks_Phase_8,293,1,48,62,858850588
8,22,Ticks_Phase_8,294,1,48,50,858888832
8,22,Ticks_Phase_8,295,5,42,127,859323920
8,22,Ticks_Phase_8,296,1,48,54,859476688
8,22,Ticks_Phase_8,297,1,48,61,860038072
8,22,Ticks_Phase_8,298,5,42,127,860123700
8,22,Ticks_Phase_8,299,1,48,59,860850664
8,22,Ticks_Phase_8,300,1,48,40,860897900
8,22,Ticks_Phase_8,301,5,42,127,860924216
8,22,Ticks_Phase_8,302,5,42,127,861724156
8,22,Ticks_Phase_8,303,1,48,56,861727276
8,22,Ticks_Phase_8,304,5,42,127,862523744
8,22,Ticks_Phase_8,305,1,48,67,862602052
8,22,Ticks_Phase_8,306,5,42,127,863323604
8,22,Ticks_Phase_8,307,1,48,68,863344700
8,22,Ticks_Phase_8,308,5,42,127,864124216
8,22,Ticks_Phase_8,309,1,48,67,864138864
8,22,Ticks_Phase_8,310,5,42,127,864924000
8,22,Ticks_Phase_8,311,1,48,73,864949056
8,22,Ticks_Phase_8,312,5,42,127,865723712
8,22,Ticks_Phase_8,313,1,48,63,865725724
8,22,Ticks_Phase_8,314,5,42,127,866523500
8,22,Ticks_Phase_8,315,1,48,69,866549156
8,22,Ticks_Phase_8,316,5,42,127,867324480
8,22,Ticks_Phase_8,317,1,48,71,867344828
8,22,Ticks_Phase_8,318,5,42,127,868123968
8,22,Ticks_Phase_8,319,1,48,57,868158864
8,22,Ticks_Phase_8,320,5,42,127,868923708
8,22,Ticks_Phase_8,321,1,48,60,868931088
8,22,Ticks_Phase_8,322,5,42,127,869723492
8,22,Ticks_Phase_8,323,1,48,64,869739788
8,22,Ticks_Phase_8,324,5,42,127,870363520
8,22,Ticks_Phase_8,325,1,48,57,870523480
8,22,Ticks_Phase_8,326,5,42,127,871164500
8,22,Ticks_Phase_8,327,1,48,61,871772940
8,22,Ticks_Phase_8,328,1,48,48,871810432
8,22,Ticks_Phase_8,329,5,42,127,871963972
8,22,Ticks_Phase_8,330,1,48,57,872348240
8,22,Ticks_Phase_8,331,1,48,56,872693928
8,22,Ticks_Phase_8,332,5,42,127,872763700
8,22,Ticks_Phase_8,333,1,48,56,873483152
8,22,Ticks_Phase_8,334,5,42,127,873563632
8,22,Ticks_Phase_8,335,5,42,127,874364400
8,22,Ticks_Phase_8,336,1,48,53,874385572
8,22,Ticks_Phase_8,337,1,48,44,874410780
8,22,Ticks_Phase_8,338,5,42,127,875163944
8,22,Ticks_Phase_8,339,1,48,56,875197696
8,22,Ticks_Phase_8,340,5,42,127,875963656
8,22,Ticks_Phase_8,341,1,48,46,875990660
8,22,Ticks_Phase_8,342,5,42,127,876763440
8,22,Ticks_Phase_8,343,1,48,58,876766032
8,22,Ticks_Phase_8,344,5,42,127,877564272
8,22,Ticks_Phase_8,345,1,48,74,877612336
8,22,Ticks_Phase_8,346,1,48,69,878347776
8,22,Ticks_Phase_8,347,5,42,127,878364132
8,22,Ticks_Phase_8,348,1,48,50,878384760
8,22,Ticks_Phase_8,349,1,48,66,879154056
8,22,Ticks_Phase_8,350,5,42,127,879163844
8,22,Ticks_Phase_8,351,1,48,67,879958880
8,22,Ticks_Phase_8,352,5,42,127,879963704
8,22,Ticks_Phase_8,353,1,48,67,880759488
8,22,Ticks_Phase_8,354,5,42,127,880764388
8,22,Ticks_Phase_8,355,5,42,127,881564032
8,22,Ticks_Phase_8,356,1,48,71,881577412
8,22,Ticks_Phase_8,357,5,42,127,882363672
8,22,Ticks_Phase_8,358,1,48,70,882393308
8,22,Ticks_Phase_8,359,1,48,75,883157204
8,22,Ticks_Phase_8,360,5,42,127,883163448
8,22,Ticks_Phase_8,361,5,42,127,883964340
8,22,Ticks_Phase_8,362,1,48,68,883976144
8,22,Ticks_Phase_8,363,1,48,73,884760264
8,22,Ticks_Phase_8,364,5,42,127,884764044
8,22,Ticks_Phase_8,365,1,48,36,884813012
8,22,Ticks_Phase_8,366,5,42,127,885563692
8,22,Ticks_Phase_8,0,9999,9999,9999,750341216
8,22,Ticks_Phase_8,1,9999,9999,9999,751141996
8,22,Ticks_Phase_8,2,9999,9999,9999,751941732
8,22,Ticks_Phase_8,3,9999,9999,9999,752741464
8,22,Ticks_Phase_8,4,9999,9999,9999,753541200
8,22,Ticks_Phase_8,5,9999,9999,9999,754341960
8,22,Ticks_Phase_8,6,9999,9999,9999,755141724
8,22,Ticks_Phase_8,7,9999,9999,9999,755941428
8,22,Ticks_Phase_8,8,9999,9999,9999,756741220
8,22,Ticks_Phase_8,9,9999,9999,9999,757541980
8,22,Ticks_Phase_8,10,9999,9999,9999,758341708
8,22,Ticks_Phase_8,11,9999,9999,9999,759141480
8,22,Ticks_Phase_8,12,9999,9999,9999,759941192
8,22,Ticks_Phase_8,13,9999,9999,9999,760741952
8,22,Ticks_Phase_8,14,9999,9999,9999,761541732
8,22,Ticks_Phase_8,15,9999,9999,9999,762341452
8,22,Ticks_Phase_8,16,9999,9999,9999,763141236
8,22,Ticks_Phase_8,17,9999,9999,9999,763941988
8,22,Ticks_Phase_8,18,9999,9999,9999,764741740
8,22,Ticks_Phase_8,19,9999,9999,9999,765541444
8,22,Ticks_Phase_8,20,9999,9999,9999,766341224
8,22,Ticks_Phase_8,21,9999,9999,9999,767141988
8,22,Ticks_Phase_8,22,9999,9999,9999,767941696
8,22,Ticks_Phase_8,23,9999,9999,9999,768741464
8,22,Ticks_Phase_8,24,9999,9999,9999,769541176
8,22,Ticks_Phase_8,25,9999,9999,9999,770342008
8,22,Ticks_Phase_8,26,9999,9999,9999,771141744
8,22,Ticks_Phase_8,27,9999,9999,9999,771941456
8,22,Ticks_Phase_8,28,9999,9999,9999,772741224
8,22,Ticks_Phase_8,29,9999,9999,9999,773541976
8,22,Ticks_Phase_8,30,9999,9999,9999,774321232
8,22,Ticks_Phase_8,31,9999,9999,9999,775121988
8,22,Ticks_Phase_8,32,9999,9999,9999,775921776
8,22,Ticks_Phase_8,33,9999,9999,9999,776721536
8,22,Ticks_Phase_8,34,9999,9999,9999,777521232
8,22,Ticks_Phase_8,35,9999,9999,9999,778322008
8,22,Ticks_Phase_8,36,9999,9999,9999,779121720
8,22,Ticks_Phase_8,37,9999,9999,9999,779921512
8,22,Ticks_Phase_8,38,9999,9999,9999,780721276
8,22,Ticks_Phase_8,39,9999,9999,9999,781522028
8,22,Ticks_Phase_8,40,9999,9999,9999,782321724
8,22,Ticks_Phase_8,41,9999,9999,9999,783121508
8,22,Ticks_Phase_8,42,9999,9999,9999,783921216
8,22,Ticks_Phase_8,43,9999,9999,9999,784722004
8,22,Ticks_Phase_8,44,9999,9999,9999,785521784
8,22,Ticks_Phase_8,45,9999,9999,9999,786321496
8,22,Ticks_Phase_8,46,9999,9999,9999,787121212
8,22,Ticks_Phase_8,47,9999,9999,9999,787922044
8,22,Ticks_Phase_8,48,9999,9999,9999,788741224
8,22,Ticks_Phase_8,49,9999,9999,9999,789541960
8,22,Ticks_Phase_8,50,9999,9999,9999,790341696
8,22,Ticks_Phase_8,51,9999,9999,9999,791141484
8,22,Ticks_Phase_8,52,9999,9999,9999,791941196
8,22,Ticks_Phase_8,53,9999,9999,9999,792741956
8,22,Ticks_Phase_8,54,9999,9999,9999,793541748
8,22,Ticks_Phase_8,55,9999,9999,9999,794341460
8,22,Ticks_Phase_8,56,9999,9999,9999,795141188
8,22,Ticks_Phase_8,57,9999,9999,9999,795942000
8,22,Ticks_Phase_8,58,9999,9999,9999,796741740
8,22,Ticks_Phase_8,59,9999,9999,9999,797541456
8,22,Ticks_Phase_8,60,9999,9999,9999,798341236
8,22,Ticks_Phase_8,61,9999,9999,9999,799142000
8,22,Ticks_Phase_8,62,9999,9999,9999,799941704
8,22,Ticks_Phase_8,63,9999,9999,9999,800741496
8,22,Ticks_Phase_8,64,9999,9999,9999,801581120
8,22,Ticks_Phase_8,65,9999,9999,9999,802381912
8,22,Ticks_Phase_8,66,9999,9999,9999,803181668
8,22,Ticks_Phase_8,67,9999,9999,9999,803981388
8,22,Ticks_Phase_8,68,9999,9999,9999,804781176
8,22,Ticks_Phase_8,69,9999,9999,9999,805581928
8,22,Ticks_Phase_8,70,9999,9999,9999,806381644
8,22,Ticks_Phase_8,71,9999,9999,9999,807181408
8,22,Ticks_Phase_8,72,9999,9999,9999,807981124
8,22,Ticks_Phase_8,73,9999,9999,9999,808781896
8,22,Ticks_Phase_8,74,9999,9999,9999,809581684
8,22,Ticks_Phase_8,75,9999,9999,9999,810381404
8,22,Ticks_Phase_8,76,9999,9999,9999,811181108
8,22,Ticks_Phase_8,77,9999,9999,9999,811981920
8,22,Ticks_Phase_8,78,9999,9999,9999,812781692
8,22,Ticks_Phase_8,79,9999,9999,9999,813581372
8,22,Ticks_Phase_8,80,9999,9999,9999,814381144
8,22,Ticks_Phase_8,81,9999,9999,9999,815141988
8,22,Ticks_Phase_8,82,9999,9999,9999,815941720
8,22,Ticks_Phase_8,83,9999,9999,9999,816741432
8,22,Ticks_Phase_8,84,9999,9999,9999,817541228
8,22,Ticks_Phase_8,85,9999,9999,9999,818341984
8,22,Ticks_Phase_8,86,9999,9999,9999,819141692
8,22,Ticks_Phase_8,87,9999,9999,9999,819941484
8,22,Ticks_Phase_8,88,9999,9999,9999,820741188
8,22,Ticks_Phase_8,89,9999,9999,9999,821541948
8,22,Ticks_Phase_8,90,9999,9999,9999,822341744
8,22,Ticks_Phase_8,91,9999,9999,9999,823141456
8,22,Ticks_Phase_8,92,9999,9999,9999,823941236
8,22,Ticks_Phase_8,93,9999,9999,9999,824741980
8,22,Ticks_Phase_8,94,9999,9999,9999,825541744
8,22,Ticks_Phase_8,95,9999,9999,9999,826341456
8,22,Ticks_Phase_8,96,9999,9999,9999,827141232
8,22,Ticks_Phase_8,97,9999,9999,9999,827862096
8,22,Ticks_Phase_8,98,9999,9999,9999,828672068
8,22,Ticks_Phase_8,99,9999,9999,9999,829482040
8,22,Ticks_Phase_8,100,9999,9999,9999,830281848
8,22,Ticks_Phase_8,101,9999,9999,9999,831081560
8,22,Ticks_Phase_8,102,9999,9999,9999,831881276
8,22,Ticks_Phase_8,103,9999,9999,9999,832682052
8,22,Ticks_Phase_8,104,9999,9999,9999,833481796
8,22,Ticks_Phase_8,105,9999,9999,9999,834281584
8,22,Ticks_Phase_8,106,9999,9999,9999,835081288
8,22,Ticks_Phase_8,107,9999,9999,9999,835882056
8,22,Ticks_Phase_8,108,9999,9999,9999,836681792
8,22,Ticks_Phase_8,109,9999,9999,9999,837481576
8,22,Ticks_Phase_8,110,9999,9999,9999,838281308
8,22,Ticks_Phase_8,111,9999,9999,9999,839082048
8,22,Ticks_Phase_8,112,9999,9999,9999,839881836
8,22,Ticks_Phase_8,113,9999,9999,9999,840681544
8,22,Ticks_Phase_8,114,9999,9999,9999,841561180
8,22,Ticks_Phase_8,115,9999,9999,9999,842361948
8,22,Ticks_Phase_8,116,9999,9999,9999,843161660
8,22,Ticks_Phase_8,117,9999,9999,9999,843961448
8,22,Ticks_Phase_8,118,9999,9999,9999,844761156
8,22,Ticks_Phase_8,119,9999,9999,9999,845561964
8,22,Ticks_Phase_8,120,9999,9999,9999,846361684
8,22,Ticks_Phase_8,121,9999,9999,9999,847161416
8,22,Ticks_Phase_8,122,9999,9999,9999,847961196
8,22,Ticks_Phase_8,123,9999,9999,9999,848761960
8,22,Ticks_Phase_8,124,9999,9999,9999,849561668
8,22,Ticks_Phase_8,125,9999,9999,9999,850361440
8,22,Ticks_Phase_8,126,9999,9999,9999,851161148
8,22,Ticks_Phase_8,127,9999,9999,9999,851961984
8,22,Ticks_Phase_8,128,9999,9999,9999,852761688
8,22,Ticks_Phase_8,129,9999,9999,9999,853561412
8,22,Ticks_Phase_8,130,9999,9999,9999,854361196
8,22,Ticks_Phase_8,131,9999,9999,9999,855321688
8,22,Ticks_Phase_8,132,9999,9999,9999,856121432
8,22,Ticks_Phase_8,133,9999,9999,9999,856921144
8,22,Ticks_Phase_8,134,9999,9999,9999,857721956
8,22,Ticks_Phase_8,135,9999,9999,9999,858521720
8,22,Ticks_Phase_8,136,9999,9999,9999,859321412
8,22,Ticks_Phase_8,137,9999,9999,9999,860121192
8,22,Ticks_Phase_8,138,9999,9999,9999,860921928
8,22,Ticks_Phase_8,139,9999,9999,9999,861721720
8,22,Ticks_Phase_8,140,9999,9999,9999,862521456
8,22,Ticks_Phase_8,141,9999,9999,9999,863321168
8,22,Ticks_Phase_8,142,9999,9999,9999,864121928
8,22,Ticks_Phase_8,143,9999,9999,9999,864921716
8,22,Ticks_Phase_8,144,9999,9999,9999,865721424
8,22,Ticks_Phase_8,145,9999,9999,9999,866521212
8,22,Ticks_Phase_8,146,9999,9999,9999,867321972
8,22,Ticks_Phase_8,147,9999,9999,9999,868121680
8,22,Ticks_Phase_8,148,9999,9999,9999,868921420
8,22,Ticks_Phase_8,149,9999,9999,9999,869721204
8,22,Ticks_Phase_8,150,9999,9999,9999,870361160
8,22,Ticks_Phase_8,151,9999,9999,9999,871161916
8,22,Ticks_Phase_8,152,9999,9999,9999,871961684
8,22,Ticks_Phase_8,153,9999,9999,9999,872761412
8,22,Ticks_Phase_8,154,9999,9999,9999,873561200
8,22,Ticks_Phase_8,155,9999,9999,9999,874361964
8,22,Ticks_Phase_8,156,9999,9999,9999,875161656
8,22,Ticks_Phase_8,157,9999,9999,9999,875961444
8,22,Ticks_Phase_8,158,9999,9999,9999,876761152
8,22,Ticks_Phase_8,159,9999,9999,9999,877561912
8,22,Ticks_Phase_8,160,9999,9999,9999,878361696
8,22,Ticks_Phase_8,161,9999,9999,9999,879161408
8,22,Ticks_Phase_8,162,9999,9999,9999,879961196
8,22,Ticks_Phase_8,163,9999,9999,9999,880761952
8,22,Ticks_Phase_8,164,9999,9999,9999,881561672
8,22,Ticks_Phase_8,165,9999,9999,9999,882361460
8,22,Ticks_Phase_8,166,9999,9999,9999,883161164
8,22,Ticks_Phase_8,167,9999,9999,9999,883961980
8,22,Ticks_Phase_8,168,9999,9999,9999,884761684
8,22,Ticks_Phase_8,169,9999,9999,9999,885561408
9,21,Ticks_Linear_5,0,5,42,127,1007291708
9,21,Ticks_Linear_5,1,5,42,127,1007771960
9,21,Ticks_Linear_5,2,5,42,127,1008252208
9,21,Ticks_Linear_5,3,5,42,127,1008731484
9,21,Ticks_Linear_5,4,5,42,127,1009211888
9,21,Ticks_Linear_5,5,1,48,73,1009221300
9,21,Ticks_Linear_5,6,1,48,76,1009699748
9,21,Ticks_Linear_5,7,5,42,127,1009702268
9,21,Ticks_Linear_5,8,1,48,54,1010165528
9,21,Ticks_Linear_5,9,5,42,127,1010191708
9,21,Ticks_Linear_5,10,1,48,65,1010644560
9,21,Ticks_Linear_5,11,5,42,127,1010682120
9,21,Ticks_Linear_5,12,1,48,65,1011130184
9,21,Ticks_Linear_5,13,5,42,127,1011171712
9,21,Ticks_Linear_5,14,1,48,66,1011610716
9,21,Ticks_Linear_5,15,5,42,127,1011662272
9,21,Ticks_Linear_5,16,1,48,65,1012116172
9,21,Ticks_Linear_5,17,5,42,127,1012161972
9,21,Ticks_Linear_5,18,1,48,90,1012614380
9,21,Ticks_Linear_5,19,5,42,127,1012661672
9,21,Ticks_Linear_5,20,1,48,86,1013130784
9,21,Ticks_Linear_5,21,5,42,127,1013162568
9,21,Ticks_Linear_5,22,1,48,76,1013631008
9,21,Ticks_Linear_5,23,5,42,127,1013662048
9,21,Ticks_Linear_5,24,1,48,74,1014129272
9,21,Ticks_Linear_5,25,5,42,127,1014161824
9,21,Ticks_Linear_5,26,1,48,77,1014619924
9,21,Ticks_Linear_5,27,5,42,127,1014671708
9,21,Ticks_Linear_5,28,1,48,75,1015143132
9,21,Ticks_Linear_5,29,5,42,127,1015181664
9,21,Ticks_Linear_5,30,1,48,83,1015641932
9,21,Ticks_Linear_5,31,5,42,127,1015691700
9,21,Ticks_Linear_5,32,1,48,65,1016158480
9,21,Ticks_Linear_5,33,5,42,127,1016201508
9,21,Ticks_Linear_5,34,1,48,82,1016659816
9,21,Ticks_Linear_5,35,5,42,127,1016711616
9,21,Ticks_Linear_5,36,1,48,85,1017165892
9,21,Ticks_Linear_5,37,5,42,127,1017231612
9,21,Ticks_Linear_5,38,1,48,86,1017676668
9,21,Ticks_Linear_5,39,5,42,127,1017751828
9,21,Ticks_Linear_5,40,1,48,70,1018218608
9,21,Ticks_Linear_5,41,5,42,127,1018272048
9,21,Ticks_Linear_5,42,1,48,51,1018737780
9,21,Ticks_Linear_5,43,5,42,127,1018792416
9,21,Ticks_Linear_5,44,1,48,72,1019231572
9,21,Ticks_Linear_5,45,5,42,127,1019311588
9,21,Ticks_Linear_5,46,1,48,76,1019757172
9,21,Ticks_Linear_5,47,5,42,127,1019841840
9,21,Ticks_Linear_5,48,1,48,65,1020292300
9,21,Ticks_Linear_5,49,5,42,127,1020372616
9,21,Ticks_Linear_5,50,1,48,76,1020826440
9,21,Ticks_Linear_5,51,5,42,127,1020901676
9,21,Ticks_Linear_5,52,1,48,74,1021360072
9,21,Ticks_Linear_5,53,5,42,127,1021432152
9,21,Ticks_Linear_5,54,1,48,72,1021899228
9,21,Ticks_Linear_5,55,5,42,127,1021961508
9,21,Ticks_Linear_5,56,1,48,71,1022423348
9,21,Ticks_Linear_5,57,5,42,127,1022502688
9,21,Ticks_Linear_5,58,1,48,69,1023008260
9,21,Ticks_Linear_5,59,5,42,127,1023041808
9,21,Ticks_Linear_5,60,1,48,44,1023044028
9,21,Ticks_Linear_5,61,1,48,78,1023564884
9,21,Ticks_Linear_5,62,5,42,127,1023581476
9,21,Ticks_Linear_5,63,1,48,47,1023594388
9,21,Ticks_Linear_5,64,1,48,64,1024110320
9,21,Ticks_Linear_5,65,5,42,127,1024122412
9,21,Ticks_Linear_5,66,1,48,51,1024646560
9,21,Ticks_Linear_5,67,5,42,127,1024661880
9,21,Ticks_Linear_5,68,1,48,52,1025180340
9,21,Ticks_Linear_5,69,5,42,127,1025211832
9,21,Ticks_Linear_5,70,1,48,52,1025703924
9,21,Ticks_Linear_5,71,5,42,127,1025761556
9,21,Ticks_Linear_5,72,1,48,55,1026287944
9,21,Ticks_Linear_5,73,5,42,127,1026311432
9,21,Ticks_Linear_5,74,1,48,32,1026330268
9,21,Ticks_Linear_5,75,1,48,57,1026857868
9,21,Ticks_Linear_5,76,5,42,127,1026861532
9,21,Ticks_Linear_5,77,1,48,44,1027403352
9,21,Ticks_Linear_5,78,5,42,127,1027412304
9,21,Ticks_Linear_5,79,1,48,48,1027954644
9,21,Ticks_Linear_5,80,5,42,127,1027971392
9,21,Ticks_Linear_5,81,1,48,57,1028482584
9,21,Ticks_Linear_5,82,5,42,127,1028531524
9,21,Ticks_Linear_5,83,1,48,54,1029027804
9,21,Ticks_Linear_5,84,5,42,127,1029091656
9,21,Ticks_Linear_5,85,1,48,63,1029601728
9,21,Ticks_Linear_5,86,5,42,127,1029651716
9,21,Ticks_Linear_5,87,1,48,58,1030143212
9,21,Ticks_Linear_5,88,5,42,127,1030212096
9,21,Ticks_Linear_5,89,1,48,55,1030707560
9,21,Ticks_Linear_5,90,1,48,36,1030746556
9,21,Ticks_Linear_5,91,5,42,127,1030782244
9,21,Ticks_Linear_5,92,1,48,50,1031260492
9,21,Ticks_Linear_5,93,5,42,127,1031351592
9,21,Ticks_Linear_5,94,1,48,45,1031887416
9,21,Ticks_Linear_5,95,5,42,127,1031922208
9,21,Ticks_Linear_5,96,1,48,67,1032452648
9,21,Ticks_Linear_5,97,5,42,127,1032492552
9,21,Ticks_Linear_5,98,5,42,127,1033061680
9,21,Ticks_Linear_5,99,1,48,47,1033062868
9,21,Ticks_Linear_5,100,1,48,60,1033628876
9,21,Ticks_Linear_5,101,5,42,127,1033642328
9,21,Ticks_Linear_5,102,1,48,70,1034212532
9,21,Ticks_Linear_5,103,5,42,127,1034221928
9,21,Ticks_Linear_5,104,1,48,67,1034795152
9,21,Ticks_Linear_5,105,5,42,127,1034801484
9,21,Ticks_Linear_5,106,1,48,62,1035366216
9,21,Ticks_Linear_5,107,5,42,127,1035382136
9,21,Ticks_Linear_5,108,5,42,127,1035962044
9,21,Ticks_Linear_5,109,1,48,62,1035967484
9,21,Ticks_Linear_5,110,5,42,127,1036551612
9,21,Ticks_Linear_5,111,1,48,56,1036558772
9,21,Ticks_Linear_5,112,1,48,59,1037142028
9,21,Ticks_Linear_5,113,5,42,127,1037143436
9,21,Ticks_Linear_5,114,5,42,127,1037732188
9,21,Ticks_Linear_5,115,1,48,64,1037733600
9,21,Ticks_Linear_5,116,1,48,46,1037759392
9,21,Ticks_Linear_5,117,5,42,127,1038321956
9,21,Ticks_Linear_5,118,1,48,52,1038354128
9,21,Ticks_Linear_5,119,1,48,65,1038907072
9,21,Ticks_Linear_5,120,5,42,127,1038912060
9,21,Ticks_Linear_5,121,1,48,46,1038937028
9,21,Ticks_Linear_5,122,1,48,59,1039507172
9,21,Ticks_Linear_5,123,5,42,127,1039512012
9,21,Ticks_Linear_5,124,5,42,127,1040112140
9,21,Ticks_Linear_5,125,1,48,58,1040113108
9,21,Ticks_Linear_5,126,5,42,127,1040712140
9,21,Ticks_Linear_5,127,1,48,58,1040723348
9,21,Ticks_Linear_5,128,1,48,41,1040753736
9,21,Ticks_Linear_5,129,1,48,52,1041287480
9,21,Ticks_Linear_5,130,5,42,127,1041312012
9,21,Ticks_Linear_5,131,1,48,52,1041899672
9,21,Ticks_Linear_5,132,5,42,127,1041912288
9,21,Ticks_Linear_5,133,1,48,40,1042510452
9,21,Ticks_Linear_5,134,5,42,127,1042521572
9,21,Ticks_Linear_5,135,1,48,43,1043097616
9,21,Ticks_Linear_5,136,5,42,127,1043131952
9,21,Ticks_Linear_5,137,1,48,45,1043709636
9,21,Ticks_Linear_5,138,5,42,127,1043742112
9,21,Ticks_Linear_5,139,5,42,127,1044352232
9,21,Ticks_Linear_5,140,1,48,39,1044364184
9,21,Ticks_Linear_5,141,1,48,41,1044926692
9,21,Ticks_Linear_5,142,5,42,127,1044962008
9,21,Ticks_Linear_5,143,1,48,40,1045569296
9,21,Ticks_Linear_5,144,5,42,127,1045582076
9,21,Ticks_Linear_5,145,5,42,127,1046201680
9,21,Ticks_Linear_5,146,1,48,40,1046236548
9,21,Ticks_Linear_5,147,1,48,39,1046757716
9,21,Ticks_Linear_5,148,5,42,127,1046822164
9,21,Ticks_Linear_5,149,1,48,40,1047412460
9,21,Ticks_Linear_5,150,5,42,127,1047441784
9,21,Ticks_Linear_5,151,5,42,127,1048062280
9,21,Ticks_Linear_5,152,1,48,40,1048092660
9,21,Ticks_Linear_5,153,1,48,40,1048660436
9,21,Ticks_Linear_5,154,5,42,127,1048692152
9,21,Ticks_Linear_5,155,1,48,40,1049278824
9,21,Ticks_Linear_5,156,5,42,127,1049321784
9,21,Ticks_Linear_5,157,1,48,55,1049915524
9,21,Ticks_Linear_5,158,5,42,127,1049951660
9,21,Ticks_Linear_5,159,1,48,59,1050578248
9,21,Ticks_Linear_5,160,5,42,127,1050582560
9,21,Ticks_Linear_5,161,1,48,54,1051203336
9,21,Ticks_Linear_5,162,5,42,127,1051212068
9,21,Ticks_Linear_5,163,1,48,37,1051239352
9,21,Ticks_Linear_5,164,1,48,57,1051809572
9,21,Ticks_Linear_5,165,5,42,127,1051852008
9,21,Ticks_Linear_5,166,1,48,59,1052427448
9,21,Ticks_Linear_5,167,1,48,42,1052456852
9,21,Ticks_Linear_5,168,5,42,127,1052492024
9,21,Ticks_Linear_5,169,1,48,55,1053105880
9,21,Ticks_Linear_5,170,5,42,127,1053132212
9,21,Ticks_Linear_5,171,1,48,56,1053734164
9,21,Ticks_Linear_5,172,1,48,34,1053773376
9,21,Ticks_Linear_5,173,5,42,127,1053774344
9,21,Ticks_Linear_5,174,1,48,55,1054399360
9,21,Ticks_Linear_5,175,5,42,127,1054412068
9,21,Ticks_Linear_5,176,1,48,50,1055046772
9,21,Ticks_Linear_5,177,5,42,127,1055062688
9,21,Ticks_Linear_5,178,1,48,53,1055661872
9,21,Ticks_Linear_5,179,5,42,127,1055711564
9,21,Ticks_Linear_5,180,1,48,52,1056293672
9,21,Ticks_Linear_5,181,5,42,127,1056361740
9,21,Ticks_Linear_5,182,1,48,52,1056979192
9,21,Ticks_Linear_5,183,5,42,127,1057012112
9,21,Ticks_Linear_5,184,5,42,127,1057662368
9,21,Ticks_Linear_5,185,1,48,44,1057680172
9,21,Ticks_Linear_5,186,5,42,127,1058321656
9,21,Ticks_Linear_5,187,1,48,51,1058329036
9,21,Ticks_Linear_5,188,1,48,44,1058955148
9,21,Ticks_Linear_5,189,5,42,127,1058982304
9,21,Ticks_Linear_5,190,1,48,47,1059617280
9,21,Ticks_Linear_5,191,5,42,127,1059641688
9,21,Ticks_Linear_5,192,1,48,40,1060282356
9,21,Ticks_Linear_5,193,5,42,127,1060302316
9,21,Ticks_Linear_5,194,1,48,48,1060943916
9,21,Ticks_Linear_5,195,5,42,127,1060961704
9,21,Ticks_Linear_5,196,1,48,47,1061608588
9,21,Ticks_Linear_5,197,5,42,127,1061632444
9,21,Ticks_Linear_5,198,1,48,45,1062270524
9,21,Ticks_Linear_5,199,5,42,127,1062301940
9,21,Ticks_Linear_5,200,5,42,127,1062971740
9,21,Ticks_Linear_5,201,1,48,45,1062998892
9,21,Ticks_Linear_5,202,1,48,49,1063615096
9,21,Ticks_Linear_5,203,5,42,127,1063641352
9,21,Ticks_Linear_5,204,1,48,57,1064277920
9,21,Ticks_Linear_5,205,5,42,127,1064312120
9,21,Ticks_Linear_5,206,1,48,47,1064923364
9,21,Ticks_Linear_5,207,5,42,127,1064992148
9,21,Ticks_Linear_5,208,1,48,51,1065651568
9,21,Ticks_Linear_5,209,5,42,127,1065672200
9,21,Ticks_Linear_5,210,5,42,127,1066352184
9,21,Ticks_Linear_5,211,1,48,50,1066372532
9,21,Ticks_Linear_5,212,5,42,127,1067031916
9,21,Ticks_Linear_5,213,1,48,58,1067048904
9,21,Ticks_Linear_5,214,1,48,54,1067690652
9,21,Ticks_Linear_5,215,5,42,127,1067711812
9,21,Ticks_Linear_5,216,1,48,50,1068349204
9,21,Ticks_Linear_5,217,5,42,127,1068402196
9,21,Ticks_Linear_5,218,1,48,55,1069069220
9,21,Ticks_Linear_5,219,5,42,127,1069092336
9,21,Ticks_Linear_5,220,1,48,49,1069099220
9,21,Ticks_Linear_5,221,5,42,127,1069782484
9,21,Ticks_Linear_5,222,1,48,55,1069790328
9,21,Ticks_Linear_5,223,5,42,127,1070471524
9,21,Ticks_Linear_5,224,1,48,54,1070484452
9,21,Ticks_Linear_5,225,1,48,53,1071146804
9,21,Ticks_Linear_5,226,5,42,127,1071161756
9,21,Ticks_Linear_5,227,5,42,127,1071862160
9,21,Ticks_Linear_5,228,1,48,53,1071870676
9,21,Ticks_Linear_5,229,5,42,127,1072561460
9,21,Ticks_Linear_5,230,1,48,55,1072573040
9,21,Ticks_Linear_5,231,1,48,52,1073235468
9,21,Ticks_Linear_5,232,5,42,127,1073261948
9,21,Ticks_Linear_5,233,1,48,64,1073948220
9,21,Ticks_Linear_5,234,5,42,127,1073962296
9,21,Ticks_Linear_5,235,1,48,50,1073975060
9,21,Ticks_Linear_5,236,5,42,127,1074662080
9,21,Ticks_Linear_5,237,1,48,51,1074674336
9,21,Ticks_Linear_5,238,1,48,53,1075355788
9,21,Ticks_Linear_5,239,5,42,127,1075372380
9,21,Ticks_Linear_5,240,1,48,54,1076062580
9,21,Ticks_Linear_5,241,5,42,127,1076081940
9,21,Ticks_Linear_5,242,1,48,56,1076745748
9,21,Ticks_Linear_5,243,5,42,127,1076792096
9,21,Ticks_Linear_5,244,1,48,58,1077478448
9,21,Ticks_Linear_5,245,5,42,127,1077502452
9,21,Ticks_Linear_5,246,1,48,55,1078196544
9,21,Ticks_Linear_5,247,5,42,127,1078211864
9,21,Ticks_Linear_5,248,1,48,53,1078904456
9,21,Ticks_Linear_5,249,5,42,127,1078932132
9,21,Ticks_Linear_5,250,1,48,54,1079631392
9,21,Ticks_Linear_5,251,5,42,127,1079651724
9,21,Ticks_Linear_5,252,5,42,127,1080371552
9,21,Ticks_Linear_5,253,1,48,56,1080374892
9,21,Ticks_Linear_5,254,1,48,45,1081070708
9,21,Ticks_Linear_5,255,5,42,127,1081091340
9,21,Ticks_Linear_5,256,1,48,49,1081785428
9,21,Ticks_Linear_5,257,5,42,127,1081812428
9,21,Ticks_Linear_5,258,1,48,59,1082529880
9,21,Ticks_Linear_5,259,5,42,127,1082541460
9,21,Ticks_Linear_5,260,1,48,49,1083215928
9,21,Ticks_Linear_5,261,5,42,127,1083271760
9,21,Ticks_Linear_5,262,1,48,54,1083938188
9,21,Ticks_Linear_5,263,5,42,127,1084001912
9,21,Ticks_Linear_5,264,1,48,49,1084727076
9,21,Ticks_Linear_5,265,5,42,127,1084731768
9,21,Ticks_Linear_5,266,5,42,127,1085461976
9,21,Ticks_Linear_5,267,1,48,51,1085478272
9,21,Ticks_Linear_5,268,1,48,48,1086147968
9,21,Ticks_Linear_5,269,5,42,127,1086202304
9,21,Ticks_Linear_5,270,1,48,50,1086884192
9,21,Ticks_Linear_5,271,5,42,127,1086941896
9,21,Ticks_Linear_5,272,1,48,54,1087646688
9,21,Ticks_Linear_5,273,5,42,127,1087681860
9,21,Ticks_Linear_5,274,1,48,41,1088403212
9,21,Ticks_Linear_5,275,5,42,127,1088422200
9,21,Ticks_Linear_5,276,5,42,127,1089161644
9,21,Ticks_Linear_5,277,1,48,47,1089190676
9,21,Ticks_Linear_5,278,1,48,47,1089886508
9,21,Ticks_Linear_5,279,5,42,127,1089912084
9,21,Ticks_Linear_5,280,1,48,48,1090580696
9,21,Ticks_Linear_5,281,5,42,127,1090661636
9,21,Ticks_Linear_5,282,1,48,44,1091383656
9,21,Ticks_Linear_5,283,5,42,127,1091412600
9,21,Ticks_Linear_5,284,1,48,50,1092144216
9,21,Ticks_Linear_5,285,5,42,127,1092161780
9,21,Ticks_Linear_5,286,1,48,42,1092879892
9,21,Ticks_Linear_5,287,5,42,127,1092911552
9,21,Ticks_Linear_5,288,1,48,46,1093633404
9,21,Ticks_Linear_5,289,5,42,127,1093672332
9,21,Ticks_Linear_5,290,1,48,47,1094404444
9,21,Ticks_Linear_5,291,5,42,127,1094432044
9,21,Ticks_Linear_5,292,1,48,47,1095159076
9,21,Ticks_Linear_5,293,5,42,127,1095191924
9,21,Ticks_Linear_5,294,1,48,54,1095918060
9,21,Ticks_Linear_5,295,5,42,127,1095951656
9,21,Ticks_Linear_5,296,1,48,45,1096668436
9,21,Ticks_Linear_5,297,5,42,127,1096711616
9,21,Ticks_Linear_5,298,1,48,41,1097413120
9,21,Ticks_Linear_5,299,5,42,127,1097481536
9,21,Ticks_Linear_5,300,1,48,38,1098194940
9,21,Ticks_Linear_5,301,5,42,127,1098251748
9,21,Ticks_Linear_5,302,1,48,39,1098974820
9,21,Ticks_Linear_5,303,5,42,127,1099021668
9,21,Ticks_Linear_5,304,1,48,38,1099779940
9,21,Ticks_Linear_5,305,5,42,127,1099791664
9,21,Ticks_Linear_5,306,1,48,36,1100548280
9,21,Ticks_Linear_5,307,5,42,127,1100561732
9,21,Ticks_Linear_5,308,1,48,42,1101292968
9,21,Ticks_Linear_5,309,5,42,127,1101342208
9,21,Ticks_Linear_5,310,1,48,38,1102072320
9,21,Ticks_Linear_5,311,5,42,127,1102122408
9,21,Ticks_Linear_5,312,1,48,37,1102823068
9,21,Ticks_Linear_5,313,5,42,127,1102901540
9,21,Ticks_Linear_5,314,1,48,45,1103642264
9,21,Ticks_Linear_5,315,5,42,127,1103681868
9,21,Ticks_Linear_5,316,1,48,35,1104432204
9,21,Ticks_Linear_5,317,5,42,127,1104462196
9,21,Ticks_Linear_5,318,1,48,38,1105193208
9,21,Ticks_Linear_5,319,5,42,127,1105251732
9,21,Ticks_Linear_5,320,1,48,40,1106001996
9,21,Ticks_Linear_5,321,5,42,127,1106042320
9,21,Ticks_Linear_5,322,1,48,42,1106783740
9,21,Ticks_Linear_5,323,5,42,127,1106831708
9,21,Ticks_Linear_5,324,1,48,45,1107587504
9,21,Ticks_Linear_5,325,5,42,127,1107622368
9,21,Ticks_Linear_5,326,5,42,127,1108411916
9,21,Ticks_Linear_5,327,1,48,51,1108414360
9,21,Ticks_Linear_5,328,1,48,51,1109209744
9,21,Ticks_Linear_5,329,5,42,127,1109211484
9,21,Ticks_Linear_5,330,5,42,127,1110012332
9,21,Ticks_Linear_5,331,1,48,41,1110017548
9,21,Ticks_Linear_5,332,1,48,42,1110791196
9,21,Ticks_Linear_5,333,5,42,127,1110812420
9,21,Ticks_Linear_5,334,1,48,46,1111593632
9,21,Ticks_Linear_5,335,5,42,127,1111612096
9,21,Ticks_Linear_5,336,1,48,47,1112379588
9,21,Ticks_Linear_5,337,5,42,127,1112411448
9,21,Ticks_Linear_5,338,1,48,40,1113192036
9,21,Ticks_Linear_5,339,5,42,127,1113221432
9,21,Ticks_Linear_5,340,1,48,41,1114031040
9,21,Ticks_Linear_5,341,5,42,127,1114032532
9,21,Ticks_Linear_5,342,5,42,127,1114841328
9,21,Ticks_Linear_5,343,1,48,36,1114844816
9,21,Ticks_Linear_5,344,5,42,127,1115651308
9,21,Ticks_Linear_5,345,1,48,39,1115673448
9,21,Ticks_Linear_5,346,1,48,34,1116410100
9,21,Ticks_Linear_5,347,5,42,127,1116461384
9,21,Ticks_Linear_5,0,9999,9999,9999,1007289412
9,21,Ticks_Linear_5,1,9999,9999,9999,1007769660
9,21,Ticks_Linear_5,2,9999,9999,9999,1008249912
9,21,Ticks_Linear_5,3,9999,9999,9999,1008729188
9,21,Ticks_Linear_5,4,9999,9999,9999,1009209436
9,21,Ticks_Linear_5,5,9999,9999,9999,1009699896
9,21,Ticks_Linear_5,6,9999,9999,9999,1010189412
9,21,Ticks_Linear_5,7,9999,9999,9999,1010679896
9,21,Ticks_Linear_5,8,9999,9999,9999,1011169340
9,21,Ticks_Linear_5,9,9999,9999,9999,1011659900
9,21,Ticks_Linear_5,10,9999,9999,9999,1012159600
9,21,Ticks_Linear_5,11,9999,9999,9999,1012659300
9,21,Ticks_Linear_5,12,9999,9999,9999,1013160048
9,21,Ticks_Linear_5,13,9999,9999,9999,1013659748
9,21,Ticks_Linear_5,14,9999,9999,9999,1014159448
9,21,Ticks_Linear_5,15,9999,9999,9999,1014669408
9,21,Ticks_Linear_5,16,9999,9999,9999,1015179368
9,21,Ticks_Linear_5,17,9999,9999,9999,1015689328
9,21,Ticks_Linear_5,18,9999,9999,9999,1016199284
9,21,Ticks_Linear_5,19,9999,9999,9999,1016709244
9,21,Ticks_Linear_5,20,9999,9999,9999,1017229388
9,21,Ticks_Linear_5,21,9999,9999,9999,1017749608
9,21,Ticks_Linear_5,22,9999,9999,9999,1018269824
9,21,Ticks_Linear_5,23,9999,9999,9999,1018789968
9,21,Ticks_Linear_5,24,9999,9999,9999,1019309140
9,21,Ticks_Linear_5,25,9999,9999,9999,1019839544
9,21,Ticks_Linear_5,26,9999,9999,9999,1020370020
9,21,Ticks_Linear_5,27,9999,9999,9999,1020899452
9,21,Ticks_Linear_5,28,9999,9999,9999,1021429852
9,21,Ticks_Linear_5,29,9999,9999,9999,1021959284
9,21,Ticks_Linear_5,30,9999,9999,9999,1022499944
9,21,Ticks_Linear_5,31,9999,9999,9999,1023039584
9,21,Ticks_Linear_5,32,9999,9999,9999,1023579252
9,21,Ticks_Linear_5,33,9999,9999,9999,1024119892
9,21,Ticks_Linear_5,34,9999,9999,9999,1024659584
9,21,Ticks_Linear_5,35,9999,9999,9999,1025209460
9,21,Ticks_Linear_5,36,9999,9999,9999,1025759332
9,21,Ticks_Linear_5,37,9999,9999,9999,1026309208
9,21,Ticks_Linear_5,38,9999,9999,9999,1026859088
9,21,Ticks_Linear_5,39,9999,9999,9999,1027410008
9,21,Ticks_Linear_5,40,9999,9999,9999,1027969092
9,21,Ticks_Linear_5,41,9999,9999,9999,1028529228
9,21,Ticks_Linear_5,42,9999,9999,9999,1029089360
9,21,Ticks_Linear_5,43,9999,9999,9999,1029649492
9,21,Ticks_Linear_5,44,9999,9999,9999,1030209648
9,21,Ticks_Linear_5,45,9999,9999,9999,1030780020
9,21,Ticks_Linear_5,46,9999,9999,9999,1031349368
9,21,Ticks_Linear_5,47,9999,9999,9999,1031919684
9,21,Ticks_Linear_5,48,9999,9999,9999,1032490104
9,21,Ticks_Linear_5,49,9999,9999,9999,1033059380
9,21,Ticks_Linear_5,50,9999,9999,9999,1033640028
9,21,Ticks_Linear_5,51,9999,9999,9999,1034219632
9,21,Ticks_Linear_5,52,9999,9999,9999,1034799188
9,21,Ticks_Linear_5,53,9999,9999,9999,1035379840
9,21,Ticks_Linear_5,54,9999,9999,9999,1035959376
9,21,Ticks_Linear_5,55,9999,9999,9999,1036549240
9,21,Ticks_Linear_5,56,9999,9999,9999,1037140024
9,21,Ticks_Linear_5,57,9999,9999,9999,1037729888
9,21,Ticks_Linear_5,58,9999,9999,9999,1038319732
9,21,Ticks_Linear_5,59,9999,9999,9999,1038909536
9,21,Ticks_Linear_5,60,9999,9999,9999,1039509564
9,21,Ticks_Linear_5,61,9999,9999,9999,1040109692
9,21,Ticks_Linear_5,62,9999,9999,9999,1040709692
9,21,Ticks_Linear_5,63,9999,9999,9999,1041309788
9,21,Ticks_Linear_5,64,9999,9999,9999,1041909840
9,21,Ticks_Linear_5,65,9999,9999,9999,1042519124
9,21,Ticks_Linear_5,66,9999,9999,9999,1043129432
9,21,Ticks_Linear_5,67,9999,9999,9999,1043739740
9,21,Ticks_Linear_5,68,9999,9999,9999,1044350008
9,21,Ticks_Linear_5,69,9999,9999,9999,1044959336
9,21,Ticks_Linear_5,70,9999,9999,9999,1045579852
9,21,Ticks_Linear_5,71,9999,9999,9999,1046199380
9,21,Ticks_Linear_5,72,9999,9999,9999,1046819940
9,21,Ticks_Linear_5,73,9999,9999,9999,1047439484
9,21,Ticks_Linear_5,74,9999,9999,9999,1048059984
9,21,Ticks_Linear_5,75,9999,9999,9999,1048689776
9,21,Ticks_Linear_5,76,9999,9999,9999,1049319484
9,21,Ticks_Linear_5,77,9999,9999,9999,1049949288
9,21,Ticks_Linear_5,78,9999,9999,9999,1050580040
9,21,Ticks_Linear_5,79,9999,9999,9999,1051209844
9,21,Ticks_Linear_5,80,9999,9999,9999,1051849784
9,21,Ticks_Linear_5,81,9999,9999,9999,1052489800
9,21,Ticks_Linear_5,82,9999,9999,9999,1053129840
9,21,Ticks_Linear_5,83,9999,9999,9999,1053769824
9,21,Ticks_Linear_5,84,9999,9999,9999,1054409844
9,21,Ticks_Linear_5,85,9999,9999,9999,1055060088
9,21,Ticks_Linear_5,86,9999,9999,9999,1055709268
9,21,Ticks_Linear_5,87,9999,9999,9999,1056359516
9,21,Ticks_Linear_5,88,9999,9999,9999,1057009740
9,21,Ticks_Linear_5,89,9999,9999,9999,1057659992
9,21,Ticks_Linear_5,90,9999,9999,9999,1058319432
9,21,Ticks_Linear_5,91,9999,9999,9999,1058979928
9,21,Ticks_Linear_5,92,9999,9999,9999,1059639388
9,21,Ticks_Linear_5,93,9999,9999,9999,1060299868
9,21,Ticks_Linear_5,94,9999,9999,9999,1060959332
9,21,Ticks_Linear_5,95,9999,9999,9999,1061630072
9,21,Ticks_Linear_5,96,9999,9999,9999,1062299716
9,21,Ticks_Linear_5,97,9999,9999,9999,1062969440
9,21,Ticks_Linear_5,98,9999,9999,9999,1063639128
9,21,Ticks_Linear_5,99,9999,9999,9999,1064309820
9,21,Ticks_Linear_5,100,9999,9999,9999,1064989776
9,21,Ticks_Linear_5,101,9999,9999,9999,1065669752
9,21,Ticks_Linear_5,102,9999,9999,9999,1066349660
9,21,Ticks_Linear_5,103,9999,9999,9999,1067029616
9,21,Ticks_Linear_5,104,9999,9999,9999,1067709512
9,21,Ticks_Linear_5,105,9999,9999,9999,1068399676
9,21,Ticks_Linear_5,106,9999,9999,9999,1069089888
9,21,Ticks_Linear_5,107,9999,9999,9999,1069780036
9,21,Ticks_Linear_5,108,9999,9999,9999,1070469224
9,21,Ticks_Linear_5,109,9999,9999,9999,1071159384
9,21,Ticks_Linear_5,110,9999,9999,9999,1071859788
9,21,Ticks_Linear_5,111,9999,9999,9999,1072559160
9,21,Ticks_Linear_5,112,9999,9999,9999,1073259576
9,21,Ticks_Linear_5,113,9999,9999,9999,1073960000
9,21,Ticks_Linear_5,114,9999,9999,9999,1074659408
9,21,Ticks_Linear_5,115,9999,9999,9999,1075370084
9,21,Ticks_Linear_5,116,9999,9999,9999,1076079716
9,21,Ticks_Linear_5,117,9999,9999,9999,1076789352
9,21,Ticks_Linear_5,118,9999,9999,9999,1077500008
9,21,Ticks_Linear_5,119,9999,9999,9999,1078209640
9,21,Ticks_Linear_5,120,9999,9999,9999,1078929536
9,21,Ticks_Linear_5,121,9999,9999,9999,1079649352
9,21,Ticks_Linear_5,122,9999,9999,9999,1080369252
9,21,Ticks_Linear_5,123,9999,9999,9999,1081089116
9,21,Ticks_Linear_5,124,9999,9999,9999,1081809980
9,21,Ticks_Linear_5,125,9999,9999,9999,1082539088
9,21,Ticks_Linear_5,126,9999,9999,9999,1083269240
9,21,Ticks_Linear_5,127,9999,9999,9999,1083999316
9,21,Ticks_Linear_5,128,9999,9999,9999,1084729468
9,21,Ticks_Linear_5,129,9999,9999,9999,1085459528
9,21,Ticks_Linear_5,130,9999,9999,9999,1086199932
9,21,Ticks_Linear_5,131,9999,9999,9999,1086939224
9,21,Ticks_Linear_5,132,9999,9999,9999,1087679560
9,21,Ticks_Linear_5,133,9999,9999,9999,1088419900
9,21,Ticks_Linear_5,134,9999,9999,9999,1089159272
9,21,Ticks_Linear_5,135,9999,9999,9999,1089909860
9,21,Ticks_Linear_5,136,9999,9999,9999,1090659412
9,21,Ticks_Linear_5,137,9999,9999,9999,1091410008
9,21,Ticks_Linear_5,138,9999,9999,9999,1092159556
9,21,Ticks_Linear_5,139,9999,9999,9999,1092909180
9,21,Ticks_Linear_5,140,9999,9999,9999,1093670012
9,21,Ticks_Linear_5,141,9999,9999,9999,1094429820
9,21,Ticks_Linear_5,142,9999,9999,9999,1095189628
9,21,Ticks_Linear_5,143,9999,9999,9999,1095949432
9,21,Ticks_Linear_5,144,9999,9999,9999,1096709244
9,21,Ticks_Linear_5,145,9999,9999,9999,1097479236
9,21,Ticks_Linear_5,146,9999,9999,9999,1098249304
9,21,Ticks_Linear_5,147,9999,9999,9999,1099019372
9,21,Ticks_Linear_5,148,9999,9999,9999,1099789440
9,21,Ticks_Linear_5,149,9999,9999,9999,1100559432
9,21,Ticks_Linear_5,150,9999,9999,9999,1101339760
9,21,Ticks_Linear_5,151,9999,9999,9999,1102120036
9,21,Ticks_Linear_5,152,9999,9999,9999,1102899316
9,21,Ticks_Linear_5,153,9999,9999,9999,1103679568
9,21,Ticks_Linear_5,154,9999,9999,9999,1104459896
9,21,Ticks_Linear_5,155,9999,9999,9999,1105249360
9,21,Ticks_Linear_5,156,9999,9999,9999,1106039872
9,21,Ticks_Linear_5,157,9999,9999,9999,1106829412
9,21,Ticks_Linear_5,158,9999,9999,9999,1107619920
9,21,Ticks_Linear_5,159,9999,9999,9999,1108409468
9,21,Ticks_Linear_5,160,9999,9999,9999,1109209208
9,21,Ticks_Linear_5,161,9999,9999,9999,1110009960
9,21,Ticks_Linear_5,162,9999,9999,9999,1110809676
9,21,Ticks_Linear_5,163,9999,9999,9999,1111609424
9,21,Ticks_Linear_5,164,9999,9999,9999,1112409152
9,21,Ticks_Linear_5,165,9999,9999,9999,1113219132
9,21,Ticks_Linear_5,166,9999,9999,9999,1114029120
9,21,Ticks_Linear_5,167,9999,9999,9999,1114839104
9,21,Ticks_Linear_5,168,9999,9999,9999,1115649084
9,21,Ticks_Linear_5,169,9999,9999,9999,1116459084
10,20,Ticks_Linear_8,0,5,42,127,1131097488
10,20,Ticks_Linear_8,1,5,42,127,1131917752
10,20,Ticks_Linear_8,2,5,42,127,1132737864
10,20,Ticks_Linear_8,3,5,42,127,1133558056
10,20,Ticks_Linear_8,4,5,42,127,1134378420
10,20,Ticks_Linear_8,5,5,42,127,1135188424
10,20,Ticks_Linear_8,6,1,48,56,1135994556
10,20,Ticks_Linear_8,7,5,42,127,1135998496
10,20,Ticks_Linear_8,8,1,48,58,1136788524
10,20,Ticks_Linear_8,9,5,42,127,1136808332
10,20,Ticks_Linear_8,10,1,48,57,1137593328
10,20,Ticks_Linear_8,11,5,42,127,1137618388
10,20,Ticks_Linear_8,12,1,48,45,1138405332
10,20,Ticks_Linear_8,13,5,42,127,1138428300
10,20,Ticks_Linear_8,14,1,48,46,1139212400
10,20,Ticks_Linear_8,15,5,42,127,1139228096
10,20,Ticks_Linear_8,16,1,48,54,1140015228
10,20,Ticks_Linear_8,17,5,42,127,1140027844
10,20,Ticks_Linear_8,18,5,42,127,1140827504
10,20,Ticks_Linear_8,19,1,48,35,1140849796
10,20,Ticks_Linear_8,20,1,48,42,1141625516
10,20,Ticks_Linear_8,21,5,42,127,1141628192
10,20,Ticks_Linear_8,22,5,42,127,1142428072
10,20,Ticks_Linear_8,23,1,48,49,1142430664
10,20,Ticks_Linear_8,24,5,42,127,1143217464
10,20,Ticks_Linear_8,25,1,48,45,1143233380
10,20,Ticks_Linear_8,26,1,48,43,1143998864
10,20,Ticks_Linear_8,27,5,42,127,1144008192
10,20,Ticks_Linear_8,28,1,48,46,1144797736
10,20,Ticks_Linear_8,29,5,42,127,1144799148
10,20,Ticks_Linear_8,30,1,48,40,1144823072
10,20,Ticks_Linear_8,31,5,42,127,1145588228
10,20,Ticks_Linear_8,32,1,48,66,1145627296
10,20,Ticks_Linear_8,33,1,48,53,1145655220
10,20,Ticks_Linear_8,34,5,42,127,1146377744
10,20,Ticks_Linear_8,35,1,48,57,1146394116
10,20,Ticks_Linear_8,36,1,48,46,1146424820
10,20,Ticks_Linear_8,37,5,42,127,1147158200
10,20,Ticks_Linear_8,38,1,48,53,1147175268
10,20,Ticks_Linear_8,39,1,48,43,1147207384
10,20,Ticks_Linear_8,40,5,42,127,1147938280
10,20,Ticks_Linear_8,41,1,48,54,1147942924
10,20,Ticks_Linear_8,42,1,48,42,1147975096
10,20,Ticks_Linear_8,43,5,42,127,1148717416
10,20,Ticks_Linear_8,44,1,48,62,1148777828
10,20,Ticks_Linear_8,45,1,48,52,1148805208
10,20,Ticks_Linear_8,46,5,42,127,1149497944
10,20,Ticks_Linear_8,47,1,48,62,1149511544
10,20,Ticks_Linear_8,48,1,48,51,1149536844
10,20,Ticks_Linear_8,49,1,48,51,1150252736
10,20,Ticks_Linear_8,50,5,42,127,1150278096
10,20,Ticks_Linear_8,51,5,42,127,1151048096
10,20,Ticks_Linear_8,52,1,48,66,1151089860
10,20,Ticks_Linear_8,53,1,48,46,1151125864
10,20,Ticks_Linear_8,54,5,42,127,1151818072
10,20,Ticks_Linear_8,55,1,48,57,1151834216
10,20,Ticks_Linear_8,56,1,48,43,1151862500
10,20,Ticks_Linear_8,57,5,42,127,1152588040
10,20,Ticks_Linear_8,58,1,48,56,1152621936
10,20,Ticks_Linear_8,59,1,48,42,1152651348
10,20,Ticks_Linear_8,60,5,42,127,1153358088
10,20,Ticks_Linear_8,61,1,48,60,1153370792
10,20,Ticks_Linear_8,62,1,48,44,1153397508
10,20,Ticks_Linear_8,63,5,42,127,1154128284
10,20,Ticks_Linear_8,64,1,48,63,1154137104
10,20,Ticks_Linear_8,65,1,48,47,1154161332
10,20,Ticks_Linear_8,66,5,42,127,1154887920
10,20,Ticks_Linear_8,67,1,48,54,1154934392
10,20,Ticks_Linear_8,68,5,42,127,1155647804
10,20,Ticks_Linear_8,69,1,48,58,1155659236
10,20,Ticks_Linear_8,70,5,42,127,1156407760
10,20,Ticks_Linear_8,71,1,48,60,1156435360
10,20,Ticks_Linear_8,72,1,48,43,1156464772
10,20,Ticks_Linear_8,73,5,42,127,1157167400
10,20,Ticks_Linear_8,74,1,48,66,1157217404
10,20,Ticks_Linear_8,75,5,42,127,1157928256
10,20,Ticks_Linear_8,76,1,48,68,1157944024
10,20,Ticks_Linear_8,77,5,42,127,1158678004
10,20,Ticks_Linear_8,78,1,48,60,1158693868
10,20,Ticks_Linear_8,79,1,48,40,1158725840
10,20,Ticks_Linear_8,80,5,42,127,1159427312
10,20,Ticks_Linear_8,81,1,48,67,1159455356
10,20,Ticks_Linear_8,82,1,48,44,1159486900
10,20,Ticks_Linear_8,83,1,48,64,1160174528
10,20,Ticks_Linear_8,84,5,42,127,1160178024
10,20,Ticks_Linear_8,85,1,48,44,1160209212
10,20,Ticks_Linear_8,86,5,42,127,1160927784
10,20,Ticks_Linear_8,87,1,48,56,1160979584
10,20,Ticks_Linear_8,88,1,48,44,1161012828
10,20,Ticks_Linear_8,89,5,42,127,1161678136
10,20,Ticks_Linear_8,90,1,48,58,1161713900
10,20,Ticks_Linear_8,91,5,42,127,1162417572
10,20,Ticks_Linear_8,92,1,48,70,1162428032
10,20,Ticks_Linear_8,93,1,48,47,1162459688
10,20,Ticks_Linear_8,94,5,42,127,1163157884
10,20,Ticks_Linear_8,95,1,48,70,1163204960
10,20,Ticks_Linear_8,96,1,48,48,1163231224
10,20,Ticks_Linear_8,97,5,42,127,1163898720
10,20,Ticks_Linear_8,98,1,48,64,1163899688
10,20,Ticks_Linear_8,99,1,48,45,1163930732
10,20,Ticks_Linear_8,100,1,48,62,1164620944
10,20,Ticks_Linear_8,101,5,42,127,1164637836
10,20,Ticks_Linear_8,102,1,48,45,1164653668
10,20,Ticks_Linear_8,103,5,42,127,1165377788
10,20,Ticks_Linear_8,104,1,48,68,1165399404
10,20,Ticks_Linear_8,105,1,48,46,1165435836
10,20,Ticks_Linear_8,106,5,42,127,1166107892
10,20,Ticks_Linear_8,107,1,48,65,1166169820
10,20,Ticks_Linear_8,108,1,48,45,1166202900
10,20,Ticks_Linear_8,109,5,42,127,1166838024
10,20,Ticks_Linear_8,110,1,48,72,1166843088
10,20,Ticks_Linear_8,111,1,48,50,1166870324
10,20,Ticks_Linear_8,112,5,42,127,1167568156
10,20,Ticks_Linear_8,113,1,48,62,1167600932
10,20,Ticks_Linear_8,114,1,48,46,1167630860
10,20,Ticks_Linear_8,115,5,42,127,1168298360
10,20,Ticks_Linear_8,116,1,48,70,1168358172
10,20,Ticks_Linear_8,117,1,48,51,1168388408
10,20,Ticks_Linear_8,118,5,42,127,1169027444
10,20,Ticks_Linear_8,119,1,48,74,1169087332
10,20,Ticks_Linear_8,120,1,48,52,1169119808
10,20,Ticks_Linear_8,121,5,42,127,1169748440
10,20,Ticks_Linear_8,122,1,48,66,1169839404
10,20,Ticks_Linear_8,123,1,48,50,1169866640
10,20,Ticks_Linear_8,124,5,42,127,1170468088
10,20,Ticks_Linear_8,125,1,48,66,1170541676
10,20,Ticks_Linear_8,126,1,48,48,1170570560
10,20,Ticks_Linear_8,127,5,42,127,1171188008
10,20,Ticks_Linear_8,128,1,48,65,1171212320
10,20,Ticks_Linear_8,129,1,48,47,1171240552
10,20,Ticks_Linear_8,130,5,42,127,1171907880
10,20,Ticks_Linear_8,131,1,48,66,1171910772
10,20,Ticks_Linear_8,132,1,48,48,1171936892
10,20,Ticks_Linear_8,133,1,48,63,1172617520
10,20,Ticks_Linear_8,134,5,42,127,1172627816
10,20,Ticks_Linear_8,135,1,48,49,1172642300
10,20,Ticks_Linear_8,136,5,42,127,1173337584
10,20,Ticks_Linear_8,137,1,48,65,1173358528
10,20,Ticks_Linear_8,138,5,42,127,1174048464
10,20,Ticks_Linear_8,139,1,48,68,1174075656
10,20,Ticks_Linear_8,140,1,48,49,1174102064
10,20,Ticks_Linear_8,141,1,48,66,1174725444
10,20,Ticks_Linear_8,142,5,42,127,1174757624
10,20,Ticks_Linear_8,143,1,48,65,1175424896
10,20,Ticks_Linear_8,144,1,48,49,1175449592
10,20,Ticks_Linear_8,145,5,42,127,1175468284
10,20,Ticks_Linear_8,146,1,48,63,1176150172
10,20,Ticks_Linear_8,147,1,48,48,1176174780
10,20,Ticks_Linear_8,148,5,42,127,1176177976
10,20,Ticks_Linear_8,149,5,42,127,1176877580
10,20,Ticks_Linear_8,150,1,48,63,1176896276
10,20,Ticks_Linear_8,151,5,42,127,1177577828
10,20,Ticks_Linear_8,152,1,48,65,1177609556
10,20,Ticks_Linear_8,153,5,42,127,1178278172
10,20,Ticks_Linear_8,154,1,48,66,1178297624
10,20,Ticks_Linear_8,155,5,42,127,1178977624
10,20,Ticks_Linear_8,156,1,48,65,1179012564
10,20,Ticks_Linear_8,157,5,42,127,1179678244
10,20,Ticks_Linear_8,158,1,48,60,1179697200
10,20,Ticks_Linear_8,159,5,42,127,1180368336
10,20,Ticks_Linear_8,160,1,48,64,1180431512
10,20,Ticks_Linear_8,161,1,48,45,1180459228
10,20,Ticks_Linear_8,162,5,42,127,1181058328
10,20,Ticks_Linear_8,163,1,48,62,1181089980
10,20,Ticks_Linear_8,164,1,48,42,1181121180
10,20,Ticks_Linear_8,165,5,42,127,1181757804
10,20,Ticks_Linear_8,166,1,48,65,1181783532
10,20,Ticks_Linear_8,167,5,42,127,1182448092
10,20,Ticks_Linear_8,168,1,48,62,1182487384
10,20,Ticks_Linear_8,169,1,48,54,1183123072
10,20,Ticks_Linear_8,170,5,42,127,1183138248
10,20,Ticks_Linear_8,171,5,42,127,1183818308
10,20,Ticks_Linear_8,172,1,48,58,1183848988
10,20,Ticks_Linear_8,173,5,42,127,1184498260
10,20,Ticks_Linear_8,174,1,48,64,1184509248
10,20,Ticks_Linear_8,175,1,48,47,1184534904
10,20,Ticks_Linear_8,176,5,42,127,1185178144
10,20,Ticks_Linear_8,177,1,48,59,1185182232
10,20,Ticks_Linear_8,178,1,48,62,1185834552
10,20,Ticks_Linear_8,179,5,42,127,1185857968
10,20,Ticks_Linear_8,180,1,48,64,1186495404
10,20,Ticks_Linear_8,181,1,48,50,1186520028
10,20,Ticks_Linear_8,182,5,42,127,1186537972
10,20,Ticks_Linear_8,183,1,48,69,1187145184
10,20,Ticks_Linear_8,184,1,48,49,1187171456
10,20,Ticks_Linear_8,185,5,42,127,1187207596
10,20,Ticks_Linear_8,186,1,48,68,1187863836
10,20,Ticks_Linear_8,187,5,42,127,1187878212
10,20,Ticks_Linear_8,188,1,48,51,1187893964
10,20,Ticks_Linear_8,189,1,48,69,1188537956
10,20,Ticks_Linear_8,190,5,42,127,1188547956
10,20,Ticks_Linear_8,191,1,48,52,1188568588
10,20,Ticks_Linear_8,192,1,48,72,1189196720
10,20,Ticks_Linear_8,193,5,42,127,1189217804
10,20,Ticks_Linear_8,194,1,48,51,1189233036
10,20,Ticks_Linear_8,195,1,48,74,1189873800
10,20,Ticks_Linear_8,196,5,42,127,1189888300
10,20,Ticks_Linear_8,197,1,48,51,1189908784
10,20,Ticks_Linear_8,198,1,48,75,1190543424
10,20,Ticks_Linear_8,199,5,42,127,1190547964
10,20,Ticks_Linear_8,200,1,48,48,1190575096
10,20,Ticks_Linear_8,201,1,48,74,1191194444
10,20,Ticks_Linear_8,202,5,42,127,1191208300
10,20,Ticks_Linear_8,203,1,48,49,1191229376
10,20,Ticks_Linear_8,204,1,48,76,1191835608
10,20,Ticks_Linear_8,205,5,42,127,1191867712
10,20,Ticks_Linear_8,206,1,48,51,1191873732
10,20,Ticks_Linear_8,207,1,48,71,1192490116
10,20,Ticks_Linear_8,208,5,42,127,1192528272
10,20,Ticks_Linear_8,209,1,48,49,1192530788
10,20,Ticks_Linear_8,210,1,48,72,1193153864
10,20,Ticks_Linear_8,211,5,42,127,1193187984
10,20,Ticks_Linear_8,212,1,48,49,1193191912
10,20,Ticks_Linear_8,213,1,48,78,1193831280
10,20,Ticks_Linear_8,214,5,42,127,1193837840
10,20,Ticks_Linear_8,215,1,48,52,1193861760
10,20,Ticks_Linear_8,216,1,48,77,1194470996
10,20,Ticks_Linear_8,217,5,42,127,1194488116
10,20,Ticks_Linear_8,218,1,48,50,1194497516
10,20,Ticks_Linear_8,219,5,42,127,1195138420
10,20,Ticks_Linear_8,220,1,48,79,1195143408
10,20,Ticks_Linear_8,221,1,48,53,1195178368
10,20,Ticks_Linear_8,222,5,42,127,1195797760
10,20,Ticks_Linear_8,223,1,48,86,1195824488
10,20,Ticks_Linear_8,224,1,48,55,1195855020
10,20,Ticks_Linear_8,225,5,42,127,1196448212
10,20,Ticks_Linear_8,226,1,48,67,1196461368
10,20,Ticks_Linear_8,227,1,48,49,1196493920
10,20,Ticks_Linear_8,228,5,42,127,1197088080
10,20,Ticks_Linear_8,229,1,48,78,1197121448
10,20,Ticks_Linear_8,230,1,48,49,1197157904
10,20,Ticks_Linear_8,231,5,42,127,1197728172
10,20,Ticks_Linear_8,232,1,48,88,1197744012
10,20,Ticks_Linear_8,233,1,48,54,1197778824
10,20,Ticks_Linear_8,234,5,42,127,1198368040
10,20,Ticks_Linear_8,235,1,48,79,1198381120
10,20,Ticks_Linear_8,236,1,48,49,1198413292
10,20,Ticks_Linear_8,237,5,42,127,1199007980
10,20,Ticks_Linear_8,238,1,48,89,1199053932
10,20,Ticks_Linear_8,239,1,48,65,1199078176
10,20,Ticks_Linear_8,240,1,48,80,1199647996
10,20,Ticks_Linear_8,241,5,42,127,1199649556
10,20,Ticks_Linear_8,242,1,48,54,1199686516
10,20,Ticks_Linear_8,243,5,42,127,1200277828
10,20,Ticks_Linear_8,244,1,48,78,1200291956
10,20,Ticks_Linear_8,245,1,48,53,1200329456
10,20,Ticks_Linear_8,246,5,42,127,1200907664
10,20,Ticks_Linear_8,247,1,48,81,1200913396
10,20,Ticks_Linear_8,248,1,48,53,1200949128
10,20,Ticks_Linear_8,249,5,42,127,1201538640
10,20,Ticks_Linear_8,250,1,48,75,1201563924
10,20,Ticks_Linear_8,251,1,48,51,1201598660
10,20,Ticks_Linear_8,252,5,42,127,1202178284
10,20,Ticks_Linear_8,253,1,48,89,1202186652
10,20,Ticks_Linear_8,254,1,48,59,1202224536
10,20,Ticks_Linear_8,255,1,48,83,1202811912
10,20,Ticks_Linear_8,256,5,42,127,1202818544
10,20,Ticks_Linear_8,257,1,48,55,1202848684
10,20,Ticks_Linear_8,258,5,42,127,1203448308
10,20,Ticks_Linear_8,259,1,48,91,1203473664
10,20,Ticks_Linear_8,260,1,48,62,1203502800
10,20,Ticks_Linear_8,261,5,42,127,1204067680
10,20,Ticks_Linear_8,262,1,48,80,1204070800
10,20,Ticks_Linear_8,263,1,48,55,1204099240
10,20,Ticks_Linear_8,264,1,48,76,1204681360
10,20,Ticks_Linear_8,265,5,42,127,1204688144
10,20,Ticks_Linear_8,266,1,48,54,1204713564
10,20,Ticks_Linear_8,267,1,48,74,1205277572
10,20,Ticks_Linear_8,268,5,42,127,1205307744
10,20,Ticks_Linear_8,269,1,48,50,1205310788
10,20,Ticks_Linear_8,270,1,48,81,1205902856
10,20,Ticks_Linear_8,271,5,42,127,1205928588
10,20,Ticks_Linear_8,272,1,48,51,1205936792
10,20,Ticks_Linear_8,273,1,48,78,1206534784
10,20,Ticks_Linear_8,274,5,42,127,1206537680
10,20,Ticks_Linear_8,275,1,48,56,1206564916
10,20,Ticks_Linear_8,276,1,48,77,1207138440
10,20,Ticks_Linear_8,277,5,42,127,1207147764
10,20,Ticks_Linear_8,278,1,48,49,1207177460
10,20,Ticks_Linear_8,279,5,42,127,1207758132
10,20,Ticks_Linear_8,280,1,48,79,1207774800
10,20,Ticks_Linear_8,281,1,48,53,1207807812
10,20,Ticks_Linear_8,282,1,48,72,1208331676
10,20,Ticks_Linear_8,283,1,48,48,1208360508
10,20,Ticks_Linear_8,284,5,42,127,1208367444
10,20,Ticks_Linear_8,285,1,48,65,1208938992
10,20,Ticks_Linear_8,286,1,48,47,1208965176
10,20,Ticks_Linear_8,287,5,42,127,1208977728
10,20,Ticks_Linear_8,288,1,48,69,1209563576
10,20,Ticks_Linear_8,289,5,42,127,1209577780
10,20,Ticks_Linear_8,290,1,48,48,1209591892
10,20,Ticks_Linear_8,291,1,48,75,1210166180
10,20,Ticks_Linear_8,292,5,42,127,1210177828
10,20,Ticks_Linear_8,293,1,48,50,1210197416
10,20,Ticks_Linear_8,294,5,42,127,1210778088
10,20,Ticks_Linear_8,295,1,48,81,1210783824
10,20,Ticks_Linear_8,296,1,48,56,1210810692
10,20,Ticks_Linear_8,297,5,42,127,1211378116
10,20,Ticks_Linear_8,298,1,48,79,1211388576
10,20,Ticks_Linear_8,299,1,48,53,1211421276
10,20,Ticks_Linear_8,300,5,42,127,1211978168
10,20,Ticks_Linear_8,301,1,48,79,1212029516
10,20,Ticks_Linear_8,302,1,48,57,1212056380
10,20,Ticks_Linear_8,303,5,42,127,1212567860
10,20,Ticks_Linear_8,304,1,48,81,1212585424
10,20,Ticks_Linear_8,305,1,48,57,1212613640
10,20,Ticks_Linear_8,306,5,42,127,1213157704
10,20,Ticks_Linear_8,307,1,48,90,1213168312
10,20,Ticks_Linear_8,308,1,48,61,1213195480
10,20,Ticks_Linear_8,309,5,42,127,1213747572
10,20,Ticks_Linear_8,310,1,48,88,1213750316
10,20,Ticks_Linear_8,311,1,48,56,1213779128
10,20,Ticks_Linear_8,312,5,42,127,1214338388
10,20,Ticks_Linear_8,313,1,48,84,1214369440
10,20,Ticks_Linear_8,314,1,48,54,1214397952
10,20,Ticks_Linear_8,315,1,48,81,1214936236
10,20,Ticks_Linear_8,316,5,42,127,1214937732
10,20,Ticks_Linear_8,317,1,48,55,1214964124
10,20,Ticks_Linear_8,318,5,42,127,1215518224
10,20,Ticks_Linear_8,319,1,48,79,1215521892
10,20,Ticks_Linear_8,320,1,48,52,1215551824
10,20,Ticks_Linear_8,321,5,42,127,1216097608
10,20,Ticks_Linear_8,322,1,48,74,1216115172
10,20,Ticks_Linear_8,323,1,48,52,1216140692
10,20,Ticks_Linear_8,324,5,42,127,1216678164
10,20,Ticks_Linear_8,325,1,48,79,1216706600
10,20,Ticks_Linear_8,326,1,48,50,1216734648
10,20,Ticks_Linear_8,327,1,48,79,1217252524
10,20,Ticks_Linear_8,328,5,42,127,1217257812
10,20,Ticks_Linear_8,329,1,48,51,1217281360
10,20,Ticks_Linear_8,330,1,48,69,1217823896
10,20,Ticks_Linear_8,331,5,42,127,1217837572
10,20,Ticks_Linear_8,332,1,48,45,1217854972
10,20,Ticks_Linear_8,333,1,48,73,1218403704
10,20,Ticks_Linear_8,334,5,42,127,1218407796
10,20,Ticks_Linear_8,335,1,48,50,1218432688
10,20,Ticks_Linear_8,336,1,48,75,1218966972
10,20,Ticks_Linear_8,337,5,42,127,1218978164
10,20,Ticks_Linear_8,338,1,48,78,1219543716
10,20,Ticks_Linear_8,339,5,42,127,1219547512
10,20,Ticks_Linear_8,340,1,48,57,1219573748
10,20,Ticks_Linear_8,341,1,48,72,1220116912
10,20,Ticks_Linear_8,342,5,42,127,1220118476
10,20,Ticks_Linear_8,343,1,48,45,1220150296
10,20,Ticks_Linear_8,344,1,48,96,1220665996
10,20,Ticks_Linear_8,345,5,42,127,1220688276
10,20,Ticks_Linear_8,346,1,48,62,1220696184
10,20,Ticks_Linear_8,347,5,42,127,1221248324
10,20,Ticks_Linear_8,348,1,48,87,1221259308
10,20,Ticks_Linear_8,349,1,48,59,1221289760
10,20,Ticks_Linear_8,350,5,42,127,1221807388
10,20,Ticks_Linear_8,351,1,48,85,1221819424
10,20,Ticks_Linear_8,352,1,48,58,1221846808
10,20,Ticks_Linear_8,353,5,42,127,1222367648
10,20,Ticks_Linear_8,354,1,48,81,1222381848
10,20,Ticks_Linear_8,355,1,48,52,1222410808
10,20,Ticks_Linear_8,356,1,48,90,1222919096
10,20,Ticks_Linear_8,357,5,42,127,1222927752
10,20,Ticks_Linear_8,358,1,48,58,1222953048
10,20,Ticks_Linear_8,359,5,42,127,1223487900
10,20,Ticks_Linear_8,360,1,48,83,1223488864
10,20,Ticks_Linear_8,361,1,48,54,1223525284
10,20,Ticks_Linear_8,362,5,42,127,1224037680
10,20,Ticks_Linear_8,363,1,48,93,1224059892
10,20,Ticks_Linear_8,364,1,48,62,1224094016
10,20,Ticks_Linear_8,365,1,48,95,1224586628
10,20,Ticks_Linear_8,366,5,42,127,1224588420
10,20,Ticks_Linear_8,367,1,48,64,1224618412
10,20,Ticks_Linear_8,368,5,42,127,1225137604
10,20,Ticks_Linear_8,369,1,48,88,1225156832
10,20,Ticks_Linear_8,370,1,48,55,1225191176
10,20,Ticks_Linear_8,371,5,42,127,1225688432
10,20,Ticks_Linear_8,372,1,48,96,1225710796
10,20,Ticks_Linear_8,373,1,48,63,1225742900
10,20,Ticks_Linear_8,374,5,42,127,1226247572
10,20,Ticks_Linear_8,375,1,48,95,1226250164
10,20,Ticks_Linear_8,376,1,48,65,1226274724
10,20,Ticks_Linear_8,377,5,42,127,1226788164
10,20,Ticks_Linear_8,378,1,48,93,1226824904
10,20,Ticks_Linear_8,379,1,48,59,1226856416
10,20,Ticks_Linear_8,380,1,48,48,1226877440
10,20,Ticks_Linear_8,381,5,42,127,1227328036
10,20,Ticks_Linear_8,382,1,48,89,1227413676
10,20,Ticks_Linear_8,383,1,48,58,1227445864
10,20,Ticks_Linear_8,384,5,42,127,1227867480
10,20,Ticks_Linear_8,385,1,48,86,1227908640
10,20,Ticks_Linear_8,386,1,48,60,1227938876
10,20,Ticks_Linear_8,387,5,42,127,1228408120
10,20,Ticks_Linear_8,388,1,48,81,1228429588
10,20,Ticks_Linear_8,389,1,48,53,1228461016
10,20,Ticks_Linear_8,390,1,48,84,1228935984
10,20,Ticks_Linear_8,391,5,42,127,1228947784
10,20,Ticks_Linear_8,392,1,48,61,1228962868
10,20,Ticks_Linear_8,393,5,42,127,1229478244
10,20,Ticks_Linear_8,394,1,48,86,1229481364
10,20,Ticks_Linear_8,395,1,48,56,1229518044
10,20,Ticks_Linear_8,396,1,48,86,1230006596
10,20,Ticks_Linear_8,397,5,42,127,1230008396
10,20,Ticks_Linear_8,398,1,48,53,1230034928
10,20,Ticks_Linear_8,399,1,48,81,1230536980
10,20,Ticks_Linear_8,400,5,42,127,1230538548
10,20,Ticks_Linear_8,401,1,48,54,1230572880
10,20,Ticks_Linear_8,402,1,48,88,1231065320
10,20,Ticks_Linear_8,403,5,42,127,1231067364
10,20,Ticks_Linear_8,404,1,48,58,1231093672
10,20,Ticks_Linear_8,405,1,48,81,1231581300
10,20,Ticks_Linear_8,406,5,42,127,1231598120
10,20,Ticks_Linear_8,407,1,48,57,1231612008
10,20,Ticks_Linear_8,408,1,48,86,1232111984
10,20,Ticks_Linear_8,409,5,42,127,1232118092
10,20,Ticks_Linear_8,410,1,48,59,1232142084
10,20,Ticks_Linear_8,411,5,42,127,1232638296
10,20,Ticks_Linear_8,412,1,48,83,1232651524
10,20,Ticks_Linear_8,413,1,48,59,1232679832
10,20,Ticks_Linear_8,414,1,48,81,1233150580
10,20,Ticks_Linear_8,415,5,42,127,1233157364
10,20,Ticks_Linear_8,416,1,48,58,1233177996
10,20,Ticks_Linear_8,417,5,42,127,1233677792
10,20,Ticks_Linear_8,418,1,48,83,1233690944
10,20,Ticks_Linear_8,419,1,48,60,1233722696
10,20,Ticks_Linear_8,420,1,48,88,1234184000
10,20,Ticks_Linear_8,421,5,42,127,1234197832
10,20,Ticks_Linear_8,422,1,48,59,1234213912
10,20,Ticks_Linear_8,423,1,48,80,1234706720
10,20,Ticks_Linear_8,424,5,42,127,1234708216
10,20,Ticks_Linear_8,425,1,48,54,1234730296
10,20,Ticks_Linear_8,426,5,42,127,1235217864
10,20,Ticks_Linear_8,427,1,48,89,1235234776
10,20,Ticks_Linear_8,428,1,48,61,1235265232
10,20,Ticks_Linear_8,429,5,42,127,1235728024
10,20,Ticks_Linear_8,430,1,48,76,1235747200
10,20,Ticks_Linear_8,431,1,48,50,1235778324
10,20,Ticks_Linear_8,432,5,42,127,1236237812
10,20,Ticks_Linear_8,433,1,48,76,1236252760
10,20,Ticks_Linear_8,434,1,48,49,1236283764
10,20,Ticks_Linear_8,435,5,42,127,1236747672
10,20,Ticks_Linear_8,436,1,48,90,1236754532
10,20,Ticks_Linear_8,437,1,48,56,1236786144
10,20,Ticks_Linear_8,438,5,42,127,1237248476
10,20,Ticks_Linear_8,439,1,48,81,1237289364
10,20,Ticks_Linear_8,440,1,48,52,1237323632
10,20,Ticks_Linear_8,441,5,42,127,1237748004
10,20,Ticks_Linear_8,442,1,48,84,1237794352
10,20,Ticks_Linear_8,443,1,48,56,1237826620
10,20,Ticks_Linear_8,444,5,42,127,1238247908
10,20,Ticks_Linear_8,445,1,48,81,1238283600
10,20,Ticks_Linear_8,446,1,48,54,1238312064
10,20,Ticks_Linear_8,447,1,48,78,1238747808
10,20,Ticks_Linear_8,448,5,42,127,1238749144
10,20,Ticks_Linear_8,449,1,48,54,1238776000
10,20,Ticks_Linear_8,450,1,48,84,1239226480
10,20,Ticks_Linear_8,451,5,42,127,1239248380
10,20,Ticks_Linear_8,452,1,48,59,1239255608
10,20,Ticks_Linear_8,453,5,42,127,1239737804
10,20,Ticks_Linear_8,454,1,48,82,1239759420
10,20,Ticks_Linear_8,455,1,48,54,1239793844
10,20,Ticks_Linear_8,456,5,42,127,1240228124
10,20,Ticks_Linear_8,457,1,48,78,1240240232
10,20,Ticks_Linear_8,458,1,48,53,1240269192
10,20,Ticks_Linear_8,459,5,42,127,1240717692
10,20,Ticks_Linear_8,460,1,48,76,1240733680
10,20,Ticks_Linear_8,461,1,48,52,1240767968
10,20,Ticks_Linear_8,462,5,42,127,1241208080
10,20,Ticks_Linear_8,463,1,48,77,1241230524
10,20,Ticks_Linear_8,464,1,48,58,1241260304
10,20,Ticks_Linear_8,465,5,42,127,1241697652
10,20,Ticks_Linear_8,0,9999,9999,9999,1131095112
10,20,Ticks_Linear_8,1,9999,9999,9999,1131915376
10,20,Ticks_Linear_8,2,9999,9999,9999,1132735564
10,20,Ticks_Linear_8,3,9999,9999,9999,1133555828
10,20,Ticks_Linear_8,4,9999,9999,9999,1134376044
10,20,Ticks_Linear_8,5,9999,9999,9999,1135185972
10,20,Ticks_Linear_8,6,9999,9999,9999,1135995972
10,20,Ticks_Linear_8,7,9999,9999,9999,1136805956
10,20,Ticks_Linear_8,8,9999,9999,9999,1137615940
10,20,Ticks_Linear_8,9,9999,9999,9999,1138425924
10,20,Ticks_Linear_8,10,9999,9999,9999,1139225720
10,20,Ticks_Linear_8,11,9999,9999,9999,1140025468
10,20,Ticks_Linear_8,12,9999,9999,9999,1140825200
10,20,Ticks_Linear_8,13,9999,9999,9999,1141625964
10,20,Ticks_Linear_8,14,9999,9999,9999,1142425696
10,20,Ticks_Linear_8,15,9999,9999,9999,1143215160
10,20,Ticks_Linear_8,16,9999,9999,9999,1144005740
10,20,Ticks_Linear_8,17,9999,9999,9999,1144795212
10,20,Ticks_Linear_8,18,9999,9999,9999,1145585776
10,20,Ticks_Linear_8,19,9999,9999,9999,1146375292
10,20,Ticks_Linear_8,20,9999,9999,9999,1147155524
10,20,Ticks_Linear_8,21,9999,9999,9999,1147935832
10,20,Ticks_Linear_8,22,9999,9999,9999,1148715116
10,20,Ticks_Linear_8,23,9999,9999,9999,1149495420
10,20,Ticks_Linear_8,24,9999,9999,9999,1150275644
10,20,Ticks_Linear_8,25,9999,9999,9999,1151045720
10,20,Ticks_Linear_8,26,9999,9999,9999,1151815768
10,20,Ticks_Linear_8,27,9999,9999,9999,1152585816
10,20,Ticks_Linear_8,28,9999,9999,9999,1153355860
10,20,Ticks_Linear_8,29,9999,9999,9999,1154125908
10,20,Ticks_Linear_8,30,9999,9999,9999,1154885696
10,20,Ticks_Linear_8,31,9999,9999,9999,1155645504
10,20,Ticks_Linear_8,32,9999,9999,9999,1156405312
10,20,Ticks_Linear_8,33,9999,9999,9999,1157165172
10,20,Ticks_Linear_8,34,9999,9999,9999,1157925952
10,20,Ticks_Linear_8,35,9999,9999,9999,1158675552
10,20,Ticks_Linear_8,36,9999,9999,9999,1159425084
10,20,Ticks_Linear_8,37,9999,9999,9999,1160175724
10,20,Ticks_Linear_8,38,9999,9999,9999,1160925260
10,20,Ticks_Linear_8,39,9999,9999,9999,1161675832
10,20,Ticks_Linear_8,40,9999,9999,9999,1162415196
10,20,Ticks_Linear_8,41,9999,9999,9999,1163155512
10,20,Ticks_Linear_8,42,9999,9999,9999,1163895900
10,20,Ticks_Linear_8,43,9999,9999,9999,1164635236
10,20,Ticks_Linear_8,44,9999,9999,9999,1165375560
10,20,Ticks_Linear_8,45,9999,9999,9999,1166105664
10,20,Ticks_Linear_8,46,9999,9999,9999,1166835800
10,20,Ticks_Linear_8,47,9999,9999,9999,1167565928
10,20,Ticks_Linear_8,48,9999,9999,9999,1168296060
10,20,Ticks_Linear_8,49,9999,9999,9999,1169025144
10,20,Ticks_Linear_8,50,9999,9999,9999,1169745988
10,20,Ticks_Linear_8,51,9999,9999,9999,1170465860
10,20,Ticks_Linear_8,52,9999,9999,9999,1171185780
10,20,Ticks_Linear_8,53,9999,9999,9999,1171905652
10,20,Ticks_Linear_8,54,9999,9999,9999,1172625516
10,20,Ticks_Linear_8,55,9999,9999,9999,1173335136
10,20,Ticks_Linear_8,56,9999,9999,9999,1174045792
10,20,Ticks_Linear_8,57,9999,9999,9999,1174755400
10,20,Ticks_Linear_8,58,9999,9999,9999,1175466060
10,20,Ticks_Linear_8,59,9999,9999,9999,1176175672
10,20,Ticks_Linear_8,60,9999,9999,9999,1176875132
10,20,Ticks_Linear_8,61,9999,9999,9999,1177575524
10,20,Ticks_Linear_8,62,9999,9999,9999,1178275948
10,20,Ticks_Linear_8,63,9999,9999,9999,1178975324
10,20,Ticks_Linear_8,64,9999,9999,9999,1179675720
10,20,Ticks_Linear_8,65,9999,9999,9999,1180365884
10,20,Ticks_Linear_8,66,9999,9999,9999,1181056104
10,20,Ticks_Linear_8,67,9999,9999,9999,1181755500
10,20,Ticks_Linear_8,68,9999,9999,9999,1182445640
10,20,Ticks_Linear_8,69,9999,9999,9999,1183135872
10,20,Ticks_Linear_8,70,9999,9999,9999,1183815784
10,20,Ticks_Linear_8,71,9999,9999,9999,1184495736
10,20,Ticks_Linear_8,72,9999,9999,9999,1185175620
10,20,Ticks_Linear_8,73,9999,9999,9999,1185855592
10,20,Ticks_Linear_8,74,9999,9999,9999,1186535520
10,20,Ticks_Linear_8,75,9999,9999,9999,1187205220
10,20,Ticks_Linear_8,76,9999,9999,9999,1187875908
10,20,Ticks_Linear_8,77,9999,9999,9999,1188545656
10,20,Ticks_Linear_8,78,9999,9999,9999,1189215352
10,20,Ticks_Linear_8,79,9999,9999,9999,1189886072
10,20,Ticks_Linear_8,80,9999,9999,9999,1190545512
10,20,Ticks_Linear_8,81,9999,9999,9999,1191206000
10,20,Ticks_Linear_8,82,9999,9999,9999,1191865412
10,20,Ticks_Linear_8,83,9999,9999,9999,1192525896
10,20,Ticks_Linear_8,84,9999,9999,9999,1193185384
10,20,Ticks_Linear_8,85,9999,9999,9999,1193835616
10,20,Ticks_Linear_8,86,9999,9999,9999,1194485816
10,20,Ticks_Linear_8,87,9999,9999,9999,1195136120
10,20,Ticks_Linear_8,88,9999,9999,9999,1195795532
10,20,Ticks_Linear_8,89,9999,9999,9999,1196445760
10,20,Ticks_Linear_8,90,9999,9999,9999,1197085780
10,20,Ticks_Linear_8,91,9999,9999,9999,1197725796
10,20,Ticks_Linear_8,92,9999,9999,9999,1198365812
10,20,Ticks_Linear_8,93,9999,9999,9999,1199005752
10,20,Ticks_Linear_8,94,9999,9999,9999,1199645768
10,20,Ticks_Linear_8,95,9999,9999,9999,1200275528
10,20,Ticks_Linear_8,96,9999,9999,9999,1200905288
10,20,Ticks_Linear_8,97,9999,9999,9999,1201536120
10,20,Ticks_Linear_8,98,9999,9999,9999,1202176060
10,20,Ticks_Linear_8,99,9999,9999,9999,1202816096
10,20,Ticks_Linear_8,100,9999,9999,9999,1203445860
10,20,Ticks_Linear_8,101,9999,9999,9999,1204065380
10,20,Ticks_Linear_8,102,9999,9999,9999,1204685916
10,20,Ticks_Linear_8,103,9999,9999,9999,1205305444
10,20,Ticks_Linear_8,104,9999,9999,9999,1205925988
10,20,Ticks_Linear_8,105,9999,9999,9999,1206535228
10,20,Ticks_Linear_8,106,9999,9999,9999,1207145540
10,20,Ticks_Linear_8,107,9999,9999,9999,1207755828
10,20,Ticks_Linear_8,108,9999,9999,9999,1208365144
10,20,Ticks_Linear_8,109,9999,9999,9999,1208975428
10,20,Ticks_Linear_8,110,9999,9999,9999,1209575476
10,20,Ticks_Linear_8,111,9999,9999,9999,1210175604
10,20,Ticks_Linear_8,112,9999,9999,9999,1210775636
10,20,Ticks_Linear_8,113,9999,9999,9999,1211375740
10,20,Ticks_Linear_8,114,9999,9999,9999,1211975792
10,20,Ticks_Linear_8,115,9999,9999,9999,1212565560
10,20,Ticks_Linear_8,116,9999,9999,9999,1213155404
10,20,Ticks_Linear_8,117,9999,9999,9999,1213745268
10,20,Ticks_Linear_8,118,9999,9999,9999,1214336088
10,20,Ticks_Linear_8,119,9999,9999,9999,1214935140
10,20,Ticks_Linear_8,120,9999,9999,9999,1215515772
10,20,Ticks_Linear_8,121,9999,9999,9999,1216095304
10,20,Ticks_Linear_8,122,9999,9999,9999,1216675936
10,20,Ticks_Linear_8,123,9999,9999,9999,1217255512
10,20,Ticks_Linear_8,124,9999,9999,9999,1217835124
10,20,Ticks_Linear_8,125,9999,9999,9999,1218405496
10,20,Ticks_Linear_8,126,9999,9999,9999,1218975864
10,20,Ticks_Linear_8,127,9999,9999,9999,1219545212
10,20,Ticks_Linear_8,128,9999,9999,9999,1220115512
10,20,Ticks_Linear_8,129,9999,9999,9999,1220685900
10,20,Ticks_Linear_8,130,9999,9999,9999,1221246020
10,20,Ticks_Linear_8,131,9999,9999,9999,1221805164
10,20,Ticks_Linear_8,132,9999,9999,9999,1222365272
10,20,Ticks_Linear_8,133,9999,9999,9999,1222925376
10,20,Ticks_Linear_8,134,9999,9999,9999,1223485520
10,20,Ticks_Linear_8,135,9999,9999,9999,1224035452
10,20,Ticks_Linear_8,136,9999,9999,9999,1224585304
10,20,Ticks_Linear_8,137,9999,9999,9999,1225135232
10,20,Ticks_Linear_8,138,9999,9999,9999,1225686132
10,20,Ticks_Linear_8,139,9999,9999,9999,1226245196
10,20,Ticks_Linear_8,140,9999,9999,9999,1226785864
10,20,Ticks_Linear_8,141,9999,9999,9999,1227325512
10,20,Ticks_Linear_8,142,9999,9999,9999,1227865176
10,20,Ticks_Linear_8,143,9999,9999,9999,1228405816
10,20,Ticks_Linear_8,144,9999,9999,9999,1228945484
10,20,Ticks_Linear_8,145,9999,9999,9999,1229475944
10,20,Ticks_Linear_8,146,9999,9999,9999,1230005352
10,20,Ticks_Linear_8,147,9999,9999,9999,1230535732
10,20,Ticks_Linear_8,148,9999,9999,9999,1231065172
10,20,Ticks_Linear_8,149,9999,9999,9999,1231595592
10,20,Ticks_Linear_8,150,9999,9999,9999,1232115792
10,20,Ticks_Linear_8,151,9999,9999,9999,1232635992
10,20,Ticks_Linear_8,152,9999,9999,9999,1233155140
10,20,Ticks_Linear_8,153,9999,9999,9999,1233675340
10,20,Ticks_Linear_8,154,9999,9999,9999,1234195528
10,20,Ticks_Linear_8,155,9999,9999,9999,1234705476
10,20,Ticks_Linear_8,156,9999,9999,9999,1235215488
10,20,Ticks_Linear_8,157,9999,9999,9999,1235725424
10,20,Ticks_Linear_8,158,9999,9999,9999,1236235360
10,20,Ticks_Linear_8,159,9999,9999,9999,1236745296
10,20,Ticks_Linear_8,160,9999,9999,9999,1237246024
10,20,Ticks_Linear_8,161,9999,9999,9999,1237745780
10,20,Ticks_Linear_8,162,9999,9999,9999,1238245456
10,20,Ticks_Linear_8,163,9999,9999,9999,1238745208
10,20,Ticks_Linear_8,164,9999,9999,9999,1239245928
10,20,Ticks_Linear_8,165,9999,9999,9999,1239735352
10,20,Ticks_Linear_8,166,9999,9999,9999,1240225896
10,20,Ticks_Linear_8,167,9999,9999,9999,1240715388
10,20,Ticks_Linear_8,168,9999,9999,9999,1241205856
10,20,Ticks_Linear_8,169,9999,9999,9999,1241695348
11,25,Jits_Pract_5,0,5,56,103,1285123436
11,25,Jits_Pract_5,1,5,63,98,1285126612
11,25,Jits_Pract_5,2,5,80,127,1285129808
11,25,Jits_Pract_5,0,5,56,103,1285624512
11,25,Jits_Pract_5,1,5,63,98,1285627460
11,25,Jits_Pract_5,2,5,80,127,1285630576
11,25,Jits_Pract_5,0,5,56,103,1286123800
11,25,Jits_Pract_5,1,5,80,127,1286134444
11,25,Jits_Pract_5,2,5,63,98,1286153560
11,25,Jits_Pract_5,0,5,63,98,1286573500
11,25,Jits_Pract_5,1,5,80,127,1286604224
11,25,Jits_Pract_5,2,5,56,103,1286614568
11,25,Jits_Pract_5,0,5,80,127,1287133536
11,25,Jits_Pract_5,1,5,56,103,1287143732
11,25,Jits_Pract_5,2,5,63,98,1287173480
11,25,Jits_Pract_5,0,5,63,98,1287623992
11,25,Jits_Pract_5,1,5,56,103,1287653668
11,25,Jits_Pract_5,2,5,80,127,1287663864
11,25,Jits_Pract_5,0,5,56,103,1288073456
11,25,Jits_Pract_5,1,5,63,98,1288123808
11,25,Jits_Pract_5,2,5,80,127,1288144192
11,25,Jits_Pract_5,0,5,80,127,1288574544
11,25,Jits_Pract_5,1,5,63,98,1288623548
11,25,Jits_Pract_5,2,5,56,103,1288664312
11,25,Jits_Pract_5,0,5,56,103,1289074284
11,25,Jits_Pract_5,1,5,63,98,1289103740
11,25,Jits_Pract_5,2,5,80,127,1289174388
11,25,Jits_Pract_5,0,5,56,103,1289573804
11,25,Jits_Pract_5,1,5,80,127,1289634344
11,25,Jits_Pract_5,2,5,63,98,1289663796
11,25,Jits_Pract_5,0,5,56,103,1290083812
11,25,Jits_Pract_5,1,5,63,98,1290093936
11,25,Jits_Pract_5,2,5,80,127,1290133724
11,25,Jits_Pract_5,0,5,63,98,1290574336
11,25,Jits_Pract_5,1,5,80,127,1290654208
11,25,Jits_Pract_5,2,5,56,103,1290664256
11,25,Jits_Pract_5,0,5,63,98,1291124264
11,25,Jits_Pract_5,1,5,56,103,1291164052
11,25,Jits_Pract_5,2,5,80,127,1291167048
11,25,Jits_Pract_5,0,5,56,103,1291584052
11,25,Jits_Pract_5,1,5,63,98,1291594028
11,25,Jits_Pract_5,2,5,80,127,1291634260
11,25,Jits_Pract_5,0,5,56,103,1292074276
11,25,Jits_Pract_5,1,5,63,98,1292077344
11,25,Jits_Pract_5,2,5,80,127,1292093988
11,25,Jits_Pract_5,0,9999,9999,9999,1285371996
11,25,Jits_Pract_5,1,9999,9999,9999,1285871720
11,25,Jits_Pract_5,2,9999,9999,9999,1286371392
11,25,Jits_Pract_5,3,9999,9999,9999,1286871136
11,25,Jits_Pract_5,4,9999,9999,9999,1287371840
11,25,Jits_Pract_5,5,9999,9999,9999,1287871584
11,25,Jits_Pract_5,6,9999,9999,9999,1288371316
11,25,Jits_Pract_5,7,9999,9999,9999,1288872032
11,25,Jits_Pract_5,8,9999,9999,9999,1289371700
11,25,Jits_Pract_5,9,9999,9999,9999,1289871444
11,25,Jits_Pract_5,10,9999,9999,9999,1290371184
11,25,Jits_Pract_5,11,9999,9999,9999,1290871900
11,25,Jits_Pract_5,12,9999,9999,9999,1291371624
11,25,Jits_Pract_5,13,9999,9999,9999,1291871352
11,25,Jits_Pract_5,14,9999,9999,9999,1292372052
12,25,Jits_Pract_5,0,5,56,103,1378851100
12,25,Jits_Pract_5,1,5,63,98,1378854128
12,25,Jits_Pract_5,2,5,80,127,1378857400
12,25,Jits_Pract_5,0,5,56,103,1379350908
12,25,Jits_Pract_5,1,5,63,98,1379353852
12,25,Jits_Pract_5,2,5,80,127,1379357052
12,25,Jits_Pract_5,0,5,56,103,1379850692
12,25,Jits_Pract_5,1,5,80,127,1379861060
12,25,Jits_Pract_5,2,5,63,98,1379881520
12,25,Jits_Pract_5,0,5,63,98,1380301136
12,25,Jits_Pract_5,1,5,80,127,1380330812
12,25,Jits_Pract_5,2,5,56,103,1380341084
12,25,Jits_Pract_5,0,5,80,127,1380861176
12,25,Jits_Pract_5,1,5,56,103,1380870696
12,25,Jits_Pract_5,2,5,63,98,1380901220
12,25,Jits_Pract_5,0,5,63,98,1381350732
12,25,Jits_Pract_5,1,5,56,103,1381380556
12,25,Jits_Pract_5,2,5,80,127,1381390828
12,25,Jits_Pract_5,0,5,56,103,1381801460
12,25,Jits_Pract_5,1,5,63,98,1381850472
12,25,Jits_Pract_5,2,5,80,127,1381871004
12,25,Jits_Pract_5,0,5,80,127,1382301056
12,25,Jits_Pract_5,1,5,63,98,1382351112
12,25,Jits_Pract_5,2,5,56,103,1382391200
12,25,Jits_Pract_5,0,5,56,103,1382800652
12,25,Jits_Pract_5,1,5,63,98,1382830552
12,25,Jits_Pract_5,2,5,80,127,1382901204
12,25,Jits_Pract_5,0,5,56,103,1383300692
12,25,Jits_Pract_5,1,5,80,127,1383360864
12,25,Jits_Pract_5,2,5,63,98,1383390612
12,25,Jits_Pract_5,0,5,56,103,1383810624
12,25,Jits_Pract_5,1,5,63,98,1383820600
12,25,Jits_Pract_5,2,5,80,127,1383860612
12,25,Jits_Pract_5,0,5,63,98,1384300848
12,25,Jits_Pract_5,1,5,80,127,1384380720
12,25,Jits_Pract_5,2,5,56,103,1384390916
12,25,Jits_Pract_5,0,1,48,33,1384816420
12,25,Jits_Pract_5,1,5,63,98,1384850772
12,25,Jits_Pract_5,2,5,56,103,1384890628
12,25,Jits_Pract_5,3,5,80,127,1384893848
12,25,Jits_Pract_5,0,5,56,103,1385310528
12,25,Jits_Pract_5,1,5,63,98,1385320872
12,25,Jits_Pract_5,2,1,48,27,1385358144
12,25,Jits_Pract_5,3,5,80,127,1385360728
12,25,Jits_Pract_5,0,5,56,103,1385801012
12,25,Jits_Pract_5,1,5,63,98,1385804004
12,25,Jits_Pract_5,2,1,48,22,1385813716
12,25,Jits_Pract_5,3,5,80,127,1385820564
12,25,Jits_Pract_5,0,9999,9999,9999,1379098692
12,25,Jits_Pract_5,1,9999,9999,9999,1379598392
12,25,Jits_Pract_5,2,9999,9999,9999,1380098132
12,25,Jits_Pract_5,3,9999,9999,9999,1380598844
12,25,Jits_Pract_5,4,9999,9999,9999,1381098576
12,25,Jits_Pract_5,5,9999,9999,9999,1381598324
12,25,Jits_Pract_5,6,9999,9999,9999,1382099024
12,25,Jits_Pract_5,7,9999,9999,9999,1382598768
12,25,Jits_Pract_5,8,9999,9999,9999,1383098436
12,25,Jits_Pract_5,9,9999,9999,9999,1383598180
12,25,Jits_Pract_5,10,9999,9999,9999,1384098892
12,25,Jits_Pract_5,11,9999,9999,9999,1384598636
12,25,Jits_Pract_5,12,9999,9999,9999,1385098340
12,25,Jits_Pract_5,13,9999,9999,9999,1385599072
12,25,Jits_Pract_5,14,9999,9999,9999,1386098760
13,24,Jits_Pract_8,0,5,56,103,1405016552
13,24,Jits_Pract_8,1,5,63,98,1405019576
13,24,Jits_Pract_8,2,5,80,127,1405022920
13,24,Jits_Pract_8,0,5,56,103,1405817168
13,24,Jits_Pract_8,1,5,63,98,1405820188
13,24,Jits_Pract_8,2,5,80,127,1405823388
13,24,Jits_Pract_8,0,5,80,127,1406556512
13,24,Jits_Pract_8,1,5,63,98,1406646796
13,24,Jits_Pract_8,2,5,56,103,1406656916
13,24,Jits_Pract_8,3,1,48,31,1406697048
13,24,Jits_Pract_8,0,5,56,103,1407376888
13,24,Jits_Pract_8,1,5,63,98,1407386936
13,24,Jits_Pract_8,2,5,80,127,1407477064
13,24,Jits_Pract_8,3,1,48,34,1407771408
13,24,Jits_Pract_8,0,5,63,98,1408146988
13,24,Jits_Pract_8,1,5,80,127,1408176368
13,24,Jits_Pract_8,2,5,56,103,1408207088
13,24,Jits_Pract_8,3,1,48,36,1408572220
13,24,Jits_Pract_8,0,5,56,103,1408946812
13,24,Jits_Pract_8,1,5,80,127,1409046788
13,24,Jits_Pract_8,2,5,63,98,1409097136
13,24,Jits_Pract_8,0,1,48,29,1409437140
13,24,Jits_Pract_8,1,5,56,103,1409747352
13,24,Jits_Pract_8,2,5,80,127,1409796432
13,24,Jits_Pract_8,3,5,63,98,1409837292
13,24,Jits_Pract_8,0,1,48,27,1410240476
13,24,Jits_Pract_8,1,5,80,127,1410576844
13,24,Jits_Pract_8,2,5,63,98,1410606448
13,24,Jits_Pract_8,3,5,56,103,1410677100
13,24,Jits_Pract_8,0,1,48,37,1411049728
13,24,Jits_Pract_8,1,5,63,98,1411407248
13,24,Jits_Pract_8,2,5,56,103,1411436924
13,24,Jits_Pract_8,3,5,80,127,1411497384
13,24,Jits_Pract_8,4,1,48,34,1411796732
13,24,Jits_Pract_8,0,5,56,103,1412146824
13,24,Jits_Pract_8,1,5,80,127,1412149884
13,24,Jits_Pract_8,2,5,63,98,1412267364
13,24,Jits_Pract_8,3,1,48,40,1412575556
13,24,Jits_Pract_8,0,5,56,103,1413027196
13,24,Jits_Pract_8,1,5,80,127,1413067060
13,24,Jits_Pract_8,2,5,63,98,1413077332
13,24,Jits_Pract_8,0,1,48,43,1413422836
13,24,Jits_Pract_8,1,5,56,103,1413786904
13,24,Jits_Pract_8,2,5,80,127,1413806544
13,24,Jits_Pract_8,3,5,63,98,1413887232
13,24,Jits_Pract_8,0,1,48,44,1414253884
13,24,Jits_Pract_8,1,5,80,127,1414576624
13,24,Jits_Pract_8,2,5,56,103,1414676824
13,24,Jits_Pract_8,3,5,63,98,1414686944
13,24,Jits_Pract_8,0,1,48,46,1415058372
13,24,Jits_Pract_8,1,5,63,98,1415346792
13,24,Jits_Pract_8,2,5,80,127,1415406884
13,24,Jits_Pract_8,3,5,56,103,1415417156
13,24,Jits_Pract_8,4,1,48,43,1415783860
13,24,Jits_Pract_8,0,5,56,103,1416147348
13,24,Jits_Pract_8,1,5,63,98,1416216904
13,24,Jits_Pract_8,2,5,80,127,1416220264
13,24,Jits_Pract_8,3,1,48,46,1416580368
13,24,Jits_Pract_8,0,9999,9999,9999,1405414484
13,24,Jits_Pract_8,1,9999,9999,9999,1406214200
13,24,Jits_Pract_8,2,9999,9999,9999,1407014984
13,24,Jits_Pract_8,3,9999,9999,9999,1407814772
13,24,Jits_Pract_8,4,9999,9999,9999,1408614464
13,24,Jits_Pract_8,5,9999,9999,9999,1409414228
13,24,Jits_Pract_8,6,9999,9999,9999,1410214980
13,24,Jits_Pract_8,7,9999,9999,9999,1411014712
13,24,Jits_Pract_8,8,9999,9999,9999,1411814468
13,24,Jits_Pract_8,9,9999,9999,9999,1412614260
13,24,Jits_Pract_8,10,9999,9999,9999,1413414968
13,24,Jits_Pract_8,11,9999,9999,9999,1414214756
13,24,Jits_Pract_8,12,9999,9999,9999,1415014520
13,24,Jits_Pract_8,13,9999,9999,9999,1415814268
13,24,Jits_Pract_8,14,9999,9999,9999,1416615036
14,25,Jits_Pract_5,0,5,56,103,1474419124
14,25,Jits_Pract_5,1,5,63,98,1474422144
14,25,Jits_Pract_5,2,5,80,127,1474425120
14,25,Jits_Pract_5,0,5,56,103,1474919000
14,25,Jits_Pract_5,1,5,63,98,1474922172
14,25,Jits_Pract_5,2,5,80,127,1474925216
14,25,Jits_Pract_5,0,5,56,103,1475418444
14,25,Jits_Pract_5,1,5,80,127,1475428864
14,25,Jits_Pract_5,2,5,63,98,1475449100
14,25,Jits_Pract_5,0,5,63,98,1475869036
14,25,Jits_Pract_5,1,5,80,127,1475899008
14,25,Jits_Pract_5,2,5,56,103,1475908908
14,25,Jits_Pract_5,0,1,48,42,1476395988
14,25,Jits_Pract_5,1,5,80,127,1476429140
14,25,Jits_Pract_5,2,5,56,103,1476439784
14,25,Jits_Pract_5,3,5,63,98,1476469236
14,25,Jits_Pract_5,0,1,48,32,1476917300
14,25,Jits_Pract_5,1,5,63,98,1476918872
14,25,Jits_Pract_5,2,5,56,103,1476949296
14,25,Jits_Pract_5,3,5,80,127,1476958520
14,25,Jits_Pract_5,0,5,56,103,1477369248
14,25,Jits_Pract_5,1,5,63,98,1477419324
14,25,Jits_Pract_5,2,1,48,36,1477424316
14,25,Jits_Pract_5,3,5,80,127,1477438804
14,25,Jits_Pract_5,0,5,80,127,1477868876
14,25,Jits_Pract_5,1,1,48,38,1477884576
14,25,Jits_Pract_5,2,5,63,98,1477919024
14,25,Jits_Pract_5,3,5,56,103,1477958960
14,25,Jits_Pract_5,0,5,56,103,1478368656
14,25,Jits_Pract_5,1,5,63,98,1478399304
14,25,Jits_Pract_5,2,1,48,38,1478404592
14,25,Jits_Pract_5,3,5,80,127,1478468928
14,25,Jits_Pract_5,0,1,48,36,1478836936
14,25,Jits_Pract_5,1,5,56,103,1478869324
14,25,Jits_Pract_5,2,5,80,127,1478928692
14,25,Jits_Pract_5,3,5,63,98,1478958648
14,25,Jits_Pract_5,0,5,56,103,1479379284
14,25,Jits_Pract_5,1,5,63,98,1479388584
14,25,Jits_Pract_5,2,1,48,38,1479409908
14,25,Jits_Pract_5,3,5,80,127,1479428516
14,25,Jits_Pract_5,0,5,63,98,1479868800
14,25,Jits_Pract_5,1,1,48,33,1479890796
14,25,Jits_Pract_5,2,5,80,127,1479948736
14,25,Jits_Pract_5,3,5,56,103,1479959032
14,25,Jits_Pract_5,0,1,48,30,1480384180
14,25,Jits_Pract_5,1,5,63,98,1480418904
14,25,Jits_Pract_5,2,5,56,103,1480458692
14,25,Jits_Pract_5,3,5,80,127,1480461684
14,25,Jits_Pract_5,0,5,56,103,1480878564
14,25,Jits_Pract_5,1,5,63,98,1480888832
14,25,Jits_Pract_5,2,1,48,27,1480911132
14,25,Jits_Pract_5,3,5,80,127,1480928840
14,25,Jits_Pract_5,0,1,48,29,1481347520
14,25,Jits_Pract_5,1,5,56,103,1481368964
14,25,Jits_Pract_5,2,5,63,98,1481371956
14,25,Jits_Pract_5,3,5,80,127,1481389720
14,25,Jits_Pract_5,0,9999,9999,9999,1474666560
14,25,Jits_Pract_5,1,9999,9999,9999,1475166288
14,25,Jits_Pract_5,2,9999,9999,9999,1475667004
14,25,Jits_Pract_5,3,9999,9999,9999,1476166744
14,25,Jits_Pract_5,4,9999,9999,9999,1476666452
14,25,Jits_Pract_5,5,9999,9999,9999,1477166148
14,25,Jits_Pract_5,6,9999,9999,9999,1477666884
14,25,Jits_Pract_5,7,9999,9999,9999,1478166592
14,25,Jits_Pract_5,8,9999,9999,9999,1478666344
14,25,Jits_Pract_5,9,9999,9999,9999,1479167092
14,25,Jits_Pract_5,10,9999,9999,9999,1479666780
14,25,Jits_Pract_5,11,9999,9999,9999,1480166488
14,25,Jits_Pract_5,12,9999,9999,9999,1480666224
14,25,Jits_Pract_5,13,9999,9999,9999,1481166956
14,25,Jits_Pract_5,14,9999,9999,9999,1481666648
15,16,Jits_ISO_5,0,5,56,103,1515280836
15,16,Jits_ISO_5,1,5,63,98,1515283936
15,16,Jits_ISO_5,2,5,80,127,1515286984
15,16,Jits_ISO_5,0,5,56,103,1515780524
15,16,Jits_ISO_5,1,5,63,98,1515783700
15,16,Jits_ISO_5,2,5,80,127,1515786672
15,16,Jits_ISO_5,0,5,56,103,1516281160
15,16,Jits_ISO_5,1,5,80,127,1516290680
15,16,Jits_ISO_5,2,5,63,98,1516310864
15,16,Jits_ISO_5,0,5,63,98,1516730704
15,16,Jits_ISO_5,1,5,80,127,1516760452
15,16,Jits_ISO_5,2,5,56,103,1516770572
15,16,Jits_ISO_5,3,1,48,56,1516806352
15,16,Jits_ISO_5,0,1,48,57,1517248444
15,16,Jits_ISO_5,1,5,80,127,1517290960
15,16,Jits_ISO_5,2,5,56,103,1517301080
15,16,Jits_ISO_5,3,5,63,98,1517330932
15,16,Jits_ISO_5,0,1,48,48,1517759212
15,16,Jits_ISO_5,1,5,63,98,1517781332
15,16,Jits_ISO_5,2,5,56,103,1517810936
15,16,Jits_ISO_5,3,5,80,127,1517821204
15,16,Jits_ISO_5,0,5,56,103,1518230880
15,16,Jits_ISO_5,1,1,48,45,1518240448
15,16,Jits_ISO_5,2,5,63,98,1518281000
15,16,Jits_ISO_5,3,5,80,127,1518300932
15,16,Jits_ISO_5,0,1,48,48,1518715676
15,16,Jits_ISO_5,1,5,80,127,1518730696
15,16,Jits_ISO_5,2,5,63,98,1518780672
15,16,Jits_ISO_5,3,5,56,103,1518820668
15,16,Jits_ISO_5,0,5,56,103,1519231484
15,16,Jits_ISO_5,1,1,48,48,1519242472
15,16,Jits_ISO_5,2,5,63,98,1519261004
15,16,Jits_ISO_5,3,5,80,127,1519330532
15,16,Jits_ISO_5,0,5,56,103,1519731156
15,16,Jits_ISO_5,1,1,48,46,1519751736
15,16,Jits_ISO_5,2,5,80,127,1519790716
15,16,Jits_ISO_5,3,5,63,98,1519821288
15,16,Jits_ISO_5,0,1,48,43,1520215216
15,16,Jits_ISO_5,1,5,56,103,1520240940
15,16,Jits_ISO_5,2,5,63,98,1520251360
15,16,Jits_ISO_5,3,5,80,127,1520291148
15,16,Jits_ISO_5,0,1,48,45,1520722588
15,16,Jits_ISO_5,1,5,63,98,1520730704
15,16,Jits_ISO_5,2,5,80,127,1520811472
15,16,Jits_ISO_5,3,5,56,103,1520820608
15,16,Jits_ISO_5,0,1,48,36,1521233184
15,16,Jits_ISO_5,1,5,63,98,1521281536
15,16,Jits_ISO_5,2,5,56,103,1521321628
15,16,Jits_ISO_5,3,5,80,127,1521325792
15,16,Jits_ISO_5,0,5,56,103,1521741192
15,16,Jits_ISO_5,1,5,63,98,1521751384
15,16,Jits_ISO_5,2,1,48,41,1521787536
15,16,Jits_ISO_5,3,5,80,127,1521791316
15,16,Jits_ISO_5,0,5,56,103,1522230744
15,16,Jits_ISO_5,1,5,63,98,1522233584
15,16,Jits_ISO_5,2,1,48,43,1522245696
15,16,Jits_ISO_5,3,5,80,127,1522250972
15,16,Jits_ISO_5,0,1,48,39,1522701900
15,16,Jits_ISO_5,1,5,80,127,1522740588
15,16,Jits_ISO_5,2,5,56,103,1522750932
15,16,Jits_ISO_5,3,5,63,98,1522820444
15,16,Jits_ISO_5,0,1,48,32,1523161000
15,16,Jits_ISO_5,1,5,63,98,1523231176
15,16,Jits_ISO_5,2,5,56,103,1523250588
15,16,Jits_ISO_5,3,5,80,127,1523330516
15,16,Jits_ISO_5,4,1,48,36,1523524824
15,16,Jits_ISO_5,0,5,56,103,1523740972
15,16,Jits_ISO_5,1,5,80,127,1523780836
15,16,Jits_ISO_5,2,5,63,98,1523791404
15,16,Jits_ISO_5,3,1,48,28,1523990672
15,16,Jits_ISO_5,0,5,80,127,1524230504
15,16,Jits_ISO_5,1,5,63,98,1524261476
15,16,Jits_ISO_5,2,5,56,103,1524301040
15,16,Jits_ISO_5,3,1,48,28,1524444980
15,16,Jits_ISO_5,0,5,56,103,1524750652
15,16,Jits_ISO_5,1,5,63,98,1524781672
15,16,Jits_ISO_5,2,5,80,127,1524830604
15,16,Jits_ISO_5,3,1,48,25,1524936416
15,16,Jits_ISO_5,0,5,80,127,1525250584
15,16,Jits_ISO_5,1,5,56,103,1525291368
15,16,Jits_ISO_5,2,5,63,98,1525300516
15,16,Jits_ISO_5,3,1,48,24,1525362292
15,16,Jits_ISO_5,0,1,48,26,1525706312
15,16,Jits_ISO_5,1,5,80,127,1525730544
15,16,Jits_ISO_5,2,5,63,98,1525770556
15,16,Jits_ISO_5,3,5,56,103,1525830880
15,16,Jits_ISO_5,0,1,48,21,1526088640
15,16,Jits_ISO_5,1,5,56,103,1526231384
15,16,Jits_ISO_5,2,5,80,127,1526240608
15,16,Jits_ISO_5,3,5,63,98,1526320648
15,16,Jits_ISO_5,0,1,48,32,1526539028
15,16,Jits_ISO_5,1,5,80,127,1526731240
15,16,Jits_ISO_5,2,5,63,98,1526790432
15,16,Jits_ISO_5,3,5,56,103,1526821252
15,16,Jits_ISO_5,4,1,48,40,1526974712
15,16,Jits_ISO_5,0,5,56,103,1527230860
15,16,Jits_ISO_5,1,5,80,127,1527291324
15,16,Jits_ISO_5,2,5,63,98,1527331436
15,16,Jits_ISO_5,3,1,48,39,1527378972
15,16,Jits_ISO_5,0,1,48,40,1527739428
15,16,Jits_ISO_5,1,5,56,103,1527780800
15,16,Jits_ISO_5,2,5,63,98,1527790920
15,16,Jits_ISO_5,3,5,80,127,1527794432
15,16,Jits_ISO_5,0,1,48,39,1528101368
15,16,Jits_ISO_5,1,5,80,127,1528231364
15,16,Jits_ISO_5,2,5,63,98,1528321272
15,16,Jits_ISO_5,3,5,56,103,1528330720
15,16,Jits_ISO_5,4,1,48,32,1528512648
15,16,Jits_ISO_5,0,5,56,103,1528731168
15,16,Jits_ISO_5,1,5,63,98,1528734340
15,16,Jits_ISO_5,2,5,80,127,1528737536
15,16,Jits_ISO_5,3,1,48,36,1528849392
15,16,Jits_ISO_5,0,1,48,42,1529167036
15,16,Jits_ISO_5,1,5,80,127,1529251200
15,16,Jits_ISO_5,2,5,63,98,1529301388
15,16,Jits_ISO_5,3,5,56,103,1529330988
15,16,Jits_ISO_5,0,1,48,29,1529582992
15,16,Jits_ISO_5,1,5,56,103,1529730324
15,16,Jits_ISO_5,2,5,80,127,1529740516
15,16,Jits_ISO_5,3,5,63,98,1529811392
15,16,Jits_ISO_5,0,1,48,32,1530063020
15,16,Jits_ISO_5,1,5,56,103,1530241368
15,16,Jits_ISO_5,2,5,63,98,1530260704
15,16,Jits_ISO_5,3,5,80,127,1530321240
15,16,Jits_ISO_5,4,1,48,35,1530493380
15,16,Jits_ISO_5,0,5,80,127,1530730800
15,16,Jits_ISO_5,1,5,63,98,1530800480
15,16,Jits_ISO_5,2,5,56,103,1530821012
15,16,Jits_ISO_5,3,1,48,33,1530955244
15,16,Jits_ISO_5,0,5,80,127,1531251076
15,16,Jits_ISO_5,1,5,56,103,1531261424
15,16,Jits_ISO_5,2,5,63,98,1531270644
15,16,Jits_ISO_5,3,1,48,37,1531419120
15,16,Jits_ISO_5,0,5,80,127,1531740484
15,16,Jits_ISO_5,1,5,56,103,1531760944
15,16,Jits_ISO_5,2,1,48,40,1531814848
15,16,Jits_ISO_5,3,5,63,98,1531830616
15,16,Jits_ISO_5,0,1,48,38,1532224164
15,16,Jits_ISO_5,1,5,56,103,1532250344
15,16,Jits_ISO_5,2,5,80,127,1532281364
15,16,Jits_ISO_5,3,5,63,98,1532300552
15,16,Jits_ISO_5,0,1,48,36,1532696544
15,16,Jits_ISO_5,1,5,63,98,1532741084
15,16,Jits_ISO_5,2,5,56,103,1532801460
15,16,Jits_ISO_5,3,5,80,127,1532831060
15,16,Jits_ISO_5,0,5,63,98,1533230412
15,16,Jits_ISO_5,1,5,80,127,1533233700
15,16,Jits_ISO_5,2,1,48,47,1533253684
15,16,Jits_ISO_5,3,5,56,103,1533320460
15,16,Jits_ISO_5,0,5,56,103,1533750588
15,16,Jits_ISO_5,1,1,48,41,1533759256
15,16,Jits_ISO_5,2,5,63,98,1533781304
15,16,Jits_ISO_5,3,5,80,127,1533821240
15,16,Jits_ISO_5,0,5,63,98,1534251312
15,16,Jits_ISO_5,1,1,48,43,1534273008
15,16,Jits_ISO_5,2,5,56,103,1534291240
15,16,Jits_ISO_5,3,5,80,127,1534310876
15,16,Jits_ISO_5,0,5,63,98,1534761232
15,16,Jits_ISO_5,1,1,48,39,1534765772
15,16,Jits_ISO_5,2,5,56,103,1534801240
15,16,Jits_ISO_5,3,5,80,127,1534810388
15,16,Jits_ISO_5,0,5,80,127,1535240492
15,16,Jits_ISO_5,1,1,48,35,1535296800
15,16,Jits_ISO_5,2,5,63,98,1535311140
15,16,Jits_ISO_5,3,5,56,103,1535330552
15,16,Jits_ISO_5,0,5,56,103,1535731224
15,16,Jits_ISO_5,1,5,80,127,1535750488
15,16,Jits_ISO_5,2,5,63,98,1535790372
15,16,Jits_ISO_5,3,1,48,40,1535793268
15,16,Jits_ISO_5,0,5,63,98,1536241012
15,16,Jits_ISO_5,1,1,48,42,1536251476
15,16,Jits_ISO_5,2,5,80,127,1536260864
15,16,Jits_ISO_5,3,5,56,103,1536301428
15,16,Jits_ISO_5,0,5,63,98,1536740892
15,16,Jits_ISO_5,1,5,56,103,1536761052
15,16,Jits_ISO_5,2,1,48,42,1536762020
15,16,Jits_ISO_5,3,5,80,127,1536770420
15,16,Jits_ISO_5,0,5,80,127,1537240392
15,16,Jits_ISO_5,1,1,48,36,1537241732
15,16,Jits_ISO_5,2,5,56,103,1537260992
15,16,Jits_ISO_5,3,5,63,98,1537290916
15,16,Jits_ISO_5,0,1,48,41,1537750076
15,16,Jits_ISO_5,1,5,56,103,1537810952
15,16,Jits_ISO_5,2,5,80,127,1537814092
15,16,Jits_ISO_5,3,5,63,98,1537831264
15,16,Jits_ISO_5,0,5,63,98,1538230580
15,16,Jits_ISO_5,1,5,56,103,1538261376
15,16,Jits_ISO_5,2,1,48,38,1538276100
15,16,Jits_ISO_5,3,5,80,127,1538320660
15,16,Jits_ISO_5,0,1,48,43,1538753496
15,16,Jits_ISO_5,1,5,63,98,1538811144
15,16,Jits_ISO_5,2,5,56,103,1538820440
15,16,Jits_ISO_5,3,5,80,127,1538830812
15,16,Jits_ISO_5,0,5,56,103,1539260768
15,16,Jits_ISO_5,1,5,80,127,1539290368
15,16,Jits_ISO_5,2,5,63,98,1539300712
15,16,Jits_ISO_5,3,1,48,48,1539303756
15,16,Jits_ISO_5,0,1,48,55,1539758840
15,16,Jits_ISO_5,1,1,48,50,1539783384
15,16,Jits_ISO_5,2,5,63,98,1539800348
15,16,Jits_ISO_5,3,5,56,103,1539810544
15,16,Jits_ISO_5,4,5,80,127,1539831152
15,16,Jits_ISO_5,0,5,56,103,1540230456
15,16,Jits_ISO_5,1,1,48,53,1540268720
15,16,Jits_ISO_5,2,5,63,98,1540291208
15,16,Jits_ISO_5,3,5,80,127,1540294496
15,16,Jits_ISO_5,0,1,48,57,1540746340
15,16,Jits_ISO_5,1,5,80,127,1540750640
15,16,Jits_ISO_5,2,5,56,103,1540761132
15,16,Jits_ISO_5,3,5,63,98,1540830512
15,16,Jits_ISO_5,0,5,80,127,1541241164
15,16,Jits_ISO_5,1,1,48,55,1541249088
15,16,Jits_ISO_5,2,5,56,103,1541310984
15,16,Jits_ISO_5,3,5,63,98,1541321032
15,16,Jits_ISO_5,0,1,48,54,1541714876
15,16,Jits_ISO_5,1,5,63,98,1541781064
15,16,Jits_ISO_5,2,5,56,103,1541791036
15,16,Jits_ISO_5,3,5,80,127,1541811028
15,16,Jits_ISO_5,0,5,80,127,1542231360
15,16,Jits_ISO_5,1,1,48,52,1542235000
15,16,Jits_ISO_5,2,5,63,98,1542291068
15,16,Jits_ISO_5,3,5,56,103,1542330856
15,16,Jits_ISO_5,0,1,48,52,1542748392
15,16,Jits_ISO_5,1,5,56,103,1542771036
15,16,Jits_ISO_5,2,5,63,98,1542781232
15,16,Jits_ISO_5,3,5,80,127,1542821240
15,16,Jits_ISO_5,0,5,56,103,1543231068
15,16,Jits_ISO_5,1,1,48,54,1543238004
15,16,Jits_ISO_5,2,5,80,127,1543260440
15,16,Jits_ISO_5,3,5,63,98,1543310636
15,16,Jits_ISO_5,0,1,48,52,1543710332
15,16,Jits_ISO_5,1,5,56,103,1543770368
15,16,Jits_ISO_5,2,5,63,98,1543810364
15,16,Jits_ISO_5,3,5,80,127,1543813948
15,16,Jits_ISO_5,0,1,48,38,1544243912
15,16,Jits_ISO_5,1,5,56,103,1544271216
15,16,Jits_ISO_5,2,5,63,98,1544280364
15,16,Jits_ISO_5,3,5,80,127,1544301044
15,16,Jits_ISO_5,0,5,56,103,1544731020
15,16,Jits_ISO_5,1,5,80,127,1544734160
15,16,Jits_ISO_5,2,5,63,98,1544770880
15,16,Jits_ISO_5,3,1,48,52,1544774000
15,16,Jits_ISO_5,0,1,48,46,1545239492
15,16,Jits_ISO_5,1,5,63,98,1545270756
15,16,Jits_ISO_5,2,5,56,103,1545301252
15,16,Jits_ISO_5,3,5,80,127,1545320816
15,16,Jits_ISO_5,0,5,80,127,1545740828
15,16,Jits_ISO_5,1,5,56,103,1545751100
15,16,Jits_ISO_5,2,5,63,98,1545761296
15,16,Jits_ISO_5,3,1,48,46,1545784492
15,16,Jits_ISO_5,0,5,56,103,1546241444
15,16,Jits_ISO_5,1,1,48,40,1546255148
15,16,Jits_ISO_5,2,5,80,127,1546281180
15,16,Jits_ISO_5,3,5,63,98,1546311148
15,16,Jits_ISO_5,0,5,63,98,1546751304
15,16,Jits_ISO_5,1,1,48,26,1546752272
15,16,Jits_ISO_5,2,5,80,127,1546760672
15,16,Jits_ISO_5,3,5,56,103,1546771040
15,16,Jits_ISO_5,0,5,56,103,1547230736
15,16,Jits_ISO_5,1,1,48,36,1547235428
15,16,Jits_ISO_5,2,5,63,98,1547301256
15,16,Jits_ISO_5,3,5,80,127,1547310408
15,16,Jits_ISO_5,0,5,80,127,1547731232
15,16,Jits_ISO_5,1,5,56,103,1547740384
15,16,Jits_ISO_5,2,1,48,37,1547779912
15,16,Jits_ISO_5,3,5,63,98,1547790748
15,16,Jits_ISO_5,0,5,80,127,1548241240
15,16,Jits_ISO_5,1,1,48,27,1548242280
15,16,Jits_ISO_5,2,5,56,103,1548300896
15,16,Jits_ISO_5,3,5,63,98,1548331472
15,16,Jits_ISO_5,0,5,56,103,1548740912
15,16,Jits_ISO_5,1,5,80,127,1548743976
15,16,Jits_ISO_5,2,5,63,98,1548780772
15,16,Jits_ISO_5,3,1,48,37,1548800080
15,16,Jits_ISO_5,0,5,56,103,1549271292
15,16,Jits_ISO_5,1,1,48,47,1549294640
15,16,Jits_ISO_5,2,5,63,98,1549301108
15,16,Jits_ISO_5,3,5,80,127,1549311232
15,16,Jits_ISO_5,0,5,63,98,1549781380
15,16,Jits_ISO_5,1,5,80,127,1549790528
15,16,Jits_ISO_5,2,1,48,42,1549801096
15,16,Jits_ISO_5,3,5,56,103,1549802360
15,16,Jits_ISO_5,0,5,80,127,1550230916
15,16,Jits_ISO_5,1,5,56,103,1550280960
15,16,Jits_ISO_5,2,5,63,98,1550284108
15,16,Jits_ISO_5,3,1,48,42,1550294792
15,16,Jits_ISO_5,0,1,48,46,1550759176
15,16,Jits_ISO_5,1,5,56,103,1550761216
15,16,Jits_ISO_5,2,5,80,127,1550780852
15,16,Jits_ISO_5,3,5,63,98,1550790972
15,16,Jits_ISO_5,0,5,63,98,1551240800
15,16,Jits_ISO_5,1,1,48,44,1551251720
15,16,Jits_ISO_5,2,5,56,103,1551271220
15,16,Jits_ISO_5,3,5,80,127,1551290852
15,16,Jits_ISO_5,0,5,56,103,1551750796
15,16,Jits_ISO_5,1,1,48,42,1551757132
15,16,Jits_ISO_5,2,5,80,127,1551760688
15,16,Jits_ISO_5,3,5,63,98,1551831488
15,16,Jits_ISO_5,0,5,63,98,1552240960
15,16,Jits_ISO_5,1,5,80,127,1552280824
15,16,Jits_ISO_5,2,1,48,47,1552296000
15,16,Jits_ISO_5,3,5,56,103,1552320828
15,16,Jits_ISO_5,0,5,56,103,1552750932
15,16,Jits_ISO_5,1,5,63,98,1552761128
15,16,Jits_ISO_5,2,5,80,127,1552780688
15,16,Jits_ISO_5,3,1,48,52,1552793996
15,16,Jits_ISO_5,0,1,48,53,1553259644
15,16,Jits_ISO_5,1,5,63,98,1553290604
15,16,Jits_ISO_5,2,5,80,127,1553311140
15,16,Jits_ISO_5,3,5,56,103,1553330624
15,16,Jits_ISO_5,0,5,56,103,1553731012
15,16,Jits_ISO_5,1,1,48,57,1553796160
15,16,Jits_ISO_5,2,5,80,127,1553810728
15,16,Jits_ISO_5,3,5,63,98,1553821144
15,16,Jits_ISO_5,0,1,48,54,1554266832
15,16,Jits_ISO_5,1,5,80,127,1554270612
15,16,Jits_ISO_5,2,5,63,98,1554280732
15,16,Jits_ISO_5,3,5,56,103,1554310704
15,16,Jits_ISO_5,0,5,63,98,1554731468
15,16,Jits_ISO_5,1,1,48,53,1554756460
15,16,Jits_ISO_5,2,5,80,127,1554771400
15,16,Jits_ISO_5,3,5,56,103,1554830592
15,16,Jits_ISO_5,0,5,63,98,1555241468
15,16,Jits_ISO_5,1,1,48,57,1555274032
15,16,Jits_ISO_5,2,5,56,103,1555290616
15,16,Jits_ISO_5,3,5,80,127,1555321336
15,16,Jits_ISO_5,0,5,80,127,1555751244
15,16,Jits_ISO_5,1,1,48,54,1555757428
15,16,Jits_ISO_5,2,5,63,98,1555760904
15,16,Jits_ISO_5,3,5,56,103,1555831184
15,16,Jits_ISO_5,0,1,48,51,1556279736
15,16,Jits_ISO_5,1,5,80,127,1556320740
15,16,Jits_ISO_5,2,5,56,103,1556330856
15,16,Jits_ISO_5,3,5,63,98,1556334220
15,16,Jits_ISO_5,0,5,56,103,1556760988
15,16,Jits_ISO_5,1,5,80,127,1556781596
15,16,Jits_ISO_5,2,1,48,53,1556790144
15,16,Jits_ISO_5,3,5,63,98,1556791784
15,16,Jits_ISO_5,0,5,63,98,1557270848
15,16,Jits_ISO_5,1,1,48,56,1557273820
15,16,Jits_ISO_5,2,5,56,103,1557310784
15,16,Jits_ISO_5,3,5,80,127,1557331464
15,16,Jits_ISO_5,0,5,63,98,1557770588
15,16,Jits_ISO_5,1,1,48,54,1557796552
15,16,Jits_ISO_5,2,5,56,103,1557831044
15,16,Jits_ISO_5,3,5,80,127,1557834184
15,16,Jits_ISO_5,0,5,56,103,1558231628
15,16,Jits_ISO_5,1,5,80,127,1558250744
15,16,Jits_ISO_5,2,5,63,98,1558290704
15,16,Jits_ISO_5,3,1,48,50,1558309780
15,16,Jits_ISO_5,0,5,56,103,1558760740
15,16,Jits_ISO_5,1,1,48,52,1558767520
15,16,Jits_ISO_5,2,5,63,98,1558781564
15,16,Jits_ISO_5,3,5,80,127,1558790492
15,16,Jits_ISO_5,0,5,80,127,1559230896
15,16,Jits_ISO_5,1,5,56,103,1559260644
15,16,Jits_ISO_5,2,1,48,48,1559264364
15,16,Jits_ISO_5,3,5,63,98,1559300576
15,16,Jits_ISO_5,0,5,80,127,1559740756
15,16,Jits_ISO_5,1,5,56,103,1559761216
15,16,Jits_ISO_5,2,1,48,52,1559766800
15,16,Jits_ISO_5,3,5,63,98,1559820648
15,16,Jits_ISO_5,0,5,56,103,1560250696
15,16,Jits_ISO_5,1,1,48,55,1560268268
15,16,Jits_ISO_5,2,5,80,127,1560271148
15,16,Jits_ISO_5,3,5,63,98,1560330736
15,16,Jits_ISO_5,0,5,80,127,1560731112
15,16,Jits_ISO_5,1,5,56,103,1560741308
15,16,Jits_ISO_5,2,5,63,98,1560781100
15,16,Jits_ISO_5,3,1,48,55,1560785636
15,16,Jits_ISO_5,0,5,63,98,1561230712
15,16,Jits_ISO_5,1,5,56,103,1561270648
15,16,Jits_ISO_5,2,5,80,127,1561273712
15,16,Jits_ISO_5,3,1,48,56,1561287696
15,16,Jits_ISO_5,0,5,63,98,1561750812
15,16,Jits_ISO_5,1,1,48,56,1561764860
15,16,Jits_ISO_5,2,5,80,127,1561790892
15,16,Jits_ISO_5,3,5,56,103,1561820640
15,16,Jits_ISO_5,0,5,56,103,1562241476
15,16,Jits_ISO_5,1,5,63,98,1562250552
15,16,Jits_ISO_5,2,5,80,127,1562281572
15,16,Jits_ISO_5,3,1,48,53,1562296220
15,16,Jits_ISO_5,0,5,80,127,1562730812
15,16,Jits_ISO_5,1,1,48,43,1562764940
15,16,Jits_ISO_5,2,5,63,98,1562800408
15,16,Jits_ISO_5,3,5,56,103,1562810680
15,16,Jits_ISO_5,0,5,63,98,1563230708
15,16,Jits_ISO_5,1,1,48,49,1563257420
15,16,Jits_ISO_5,2,5,56,103,1563301428
15,16,Jits_ISO_5,3,5,80,127,1563310352
15,16,Jits_ISO_5,0,5,63,98,1563731560
15,16,Jits_ISO_5,1,5,56,103,1563750752
15,16,Jits_ISO_5,2,1,48,50,1563761964
15,16,Jits_ISO_5,3,5,80,127,1563790604
15,16,Jits_ISO_5,0,5,56,103,1564241556
15,16,Jits_ISO_5,1,1,48,55,1564249956
15,16,Jits_ISO_5,2,5,63,98,1564251448
15,16,Jits_ISO_5,3,5,80,127,1564331460
15,16,Jits_ISO_5,0,5,63,98,1564730744
15,16,Jits_ISO_5,1,1,48,48,1564753636
15,16,Jits_ISO_5,2,5,56,103,1564760632
15,16,Jits_ISO_5,3,5,80,127,1564801544
15,16,Jits_ISO_5,0,5,56,103,1565230548
15,16,Jits_ISO_5,1,1,48,60,1565257484
15,16,Jits_ISO_5,2,5,63,98,1565271380
15,16,Jits_ISO_5,3,5,80,127,1565311464
15,16,Jits_ISO_5,0,5,80,127,1565731420
15,16,Jits_ISO_5,1,1,48,59,1565739864
15,16,Jits_ISO_5,2,5,56,103,1565811060
15,16,Jits_ISO_5,3,5,63,98,1565821252
15,16,Jits_ISO_5,0,5,56,103,1566270876
15,16,Jits_ISO_5,1,1,48,43,1566273340
15,16,Jits_ISO_5,2,5,63,98,1566274980
15,16,Jits_ISO_5,3,5,80,127,1566281288
15,16,Jits_ISO_5,0,1,48,60,1566783392
15,16,Jits_ISO_5,1,5,56,103,1566791212
15,16,Jits_ISO_5,2,1,48,48,1566808644
15,16,Jits_ISO_5,3,5,63,98,1566810380
15,16,Jits_ISO_5,4,5,80,127,1566820652
15,16,Jits_ISO_5,0,5,63,98,1567250892
15,16,Jits_ISO_5,1,5,80,127,1567261160
15,16,Jits_ISO_5,2,1,48,45,1567280796
15,16,Jits_ISO_5,3,5,56,103,1567281836
15,16,Jits_ISO_5,0,1,48,57,1567744120
15,16,Jits_ISO_5,1,5,63,98,1567750592
15,16,Jits_ISO_5,2,5,56,103,1567831356
15,16,Jits_ISO_5,3,5,80,127,1567834348
15,16,Jits_ISO_5,0,5,63,98,1568251200
15,16,Jits_ISO_5,1,5,56,103,1568270636
15,16,Jits_ISO_5,2,1,48,47,1568285964
15,16,Jits_ISO_5,3,5,80,127,1568301424
15,16,Jits_ISO_5,0,5,56,103,1568750932
15,16,Jits_ISO_5,1,1,48,44,1568760720
15,16,Jits_ISO_5,2,5,63,98,1568770484
15,16,Jits_ISO_5,3,5,80,127,1568780704
15,16,Jits_ISO_5,0,1,48,43,1569243744
15,16,Jits_ISO_5,1,5,56,103,1569281312
15,16,Jits_ISO_5,2,5,63,98,1569311380
15,16,Jits_ISO_5,3,5,80,127,1569314668
15,16,Jits_ISO_5,0,5,56,103,1569731072
15,16,Jits_ISO_5,1,5,63,98,1569771012
15,16,Jits_ISO_5,2,1,48,48,1569784244
15,16,Jits_ISO_5,3,5,80,127,1569831340
15,16,Jits_ISO_5,0,1,48,49,1570247864
15,16,Jits_ISO_5,1,5,56,103,1570251264
15,16,Jits_ISO_5,2,5,63,98,1570261240
15,16,Jits_ISO_5,3,5,80,127,1570320752
15,16,Jits_ISO_5,0,1,48,49,1570742584
15,16,Jits_ISO_5,1,5,56,103,1570750776
15,16,Jits_ISO_5,2,5,80,127,1570771236
15,16,Jits_ISO_5,3,5,63,98,1570801280
15,16,Jits_ISO_5,0,1,48,44,1571238708
15,16,Jits_ISO_5,1,5,80,127,1571250508
15,16,Jits_ISO_5,2,5,56,103,1571260704
15,16,Jits_ISO_5,3,5,63,98,1571281312
15,16,Jits_ISO_5,0,5,63,98,1571741328
15,16,Jits_ISO_5,1,1,48,51,1571744824
15,16,Jits_ISO_5,2,5,80,127,1571820892
15,16,Jits_ISO_5,3,5,56,103,1571831236
15,16,Jits_ISO_5,0,1,48,41,1572275040
15,16,Jits_ISO_5,1,5,80,127,1572301368
15,16,Jits_ISO_5,2,5,56,103,1572320556
15,16,Jits_ISO_5,3,5,63,98,1572323624
15,16,Jits_ISO_5,0,5,63,98,1572771212
15,16,Jits_ISO_5,1,5,80,127,1572774424
15,16,Jits_ISO_5,2,1,48,44,1572782352
15,16,Jits_ISO_5,3,5,56,103,1572830548
15,16,Jits_ISO_5,0,5,56,103,1573250636
15,16,Jits_ISO_5,1,5,80,127,1573260612
15,16,Jits_ISO_5,2,1,48,48,1573291300
15,16,Jits_ISO_5,3,5,63,98,1573300540
15,16,Jits_ISO_5,0,5,56,103,1573730532
15,16,Jits_ISO_5,1,1,48,49,1573747880
15,16,Jits_ISO_5,2,5,63,98,1573791064
15,16,Jits_ISO_5,3,5,80,127,1573801260
15,16,Jits_ISO_5,0,1,48,47,1574238948
15,16,Jits_ISO_5,1,5,63,98,1574240608
15,16,Jits_ISO_5,2,5,80,127,1574280548
15,16,Jits_ISO_5,3,5,56,103,1574320632
15,16,Jits_ISO_5,0,5,56,103,1574741324
15,16,Jits_ISO_5,1,1,48,54,1574746908
15,16,Jits_ISO_5,2,5,63,98,1574821104
15,16,Jits_ISO_5,3,5,80,127,1574824696
15,16,Jits_ISO_5,0,9999,9999,9999,1515528316
15,16,Jits_ISO_5,1,9999,9999,9999,1516029000
15,16,Jits_ISO_5,2,9999,9999,9999,1516528740
15,16,Jits_ISO_5,3,9999,9999,9999,1517028452
15,16,Jits_ISO_5,4,9999,9999,9999,1517528116
15,16,Jits_ISO_5,5,9999,9999,9999,1518028900
15,16,Jits_ISO_5,6,9999,9999,9999,1518528636
15,16,Jits_ISO_5,7,9999,9999,9999,1519028308
15,16,Jits_ISO_5,8,9999,9999,9999,1519529012
15,16,Jits_ISO_5,9,9999,9999,9999,1520028764
15,16,Jits_ISO_5,10,9999,9999,9999,1520528436
15,16,Jits_ISO_5,11,9999,9999,9999,1521028172
15,16,Jits_ISO_5,12,9999,9999,9999,1521528944
15,16,Jits_ISO_5,13,9999,9999,9999,1522028604
15,16,Jits_ISO_5,14,9999,9999,9999,1522528336
15,16,Jits_ISO_5,15,9999,9999,9999,1523029052
15,16,Jits_ISO_5,16,9999,9999,9999,1523528780
15,16,Jits_ISO_5,17,9999,9999,9999,1524028480
15,16,Jits_ISO_5,18,9999,9999,9999,1524528220
15,16,Jits_ISO_5,19,9999,9999,9999,1525028944
15,16,Jits_ISO_5,20,9999,9999,9999,1525528656
15,16,Jits_ISO_5,21,9999,9999,9999,1526028404
15,16,Jits_ISO_5,22,9999,9999,9999,1526528112
15,16,Jits_ISO_5,23,9999,9999,9999,1527028860
15,16,Jits_ISO_5,24,9999,9999,9999,1527528540
15,16,Jits_ISO_5,25,9999,9999,9999,1528028284
15,16,Jits_ISO_5,26,9999,9999,9999,1528528960
15,16,Jits_ISO_5,27,9999,9999,9999,1529028688
15,16,Jits_ISO_5,28,9999,9999,9999,1529528436
15,16,Jits_ISO_5,29,9999,9999,9999,1530028096
15,16,Jits_ISO_5,30,9999,9999,9999,1530528872
15,16,Jits_ISO_5,31,9999,9999,9999,1531028568
15,16,Jits_ISO_5,32,9999,9999,9999,1531528304
15,16,Jits_ISO_5,33,9999,9999,9999,1532029024
15,16,Jits_ISO_5,34,9999,9999,9999,1532528696
15,16,Jits_ISO_5,35,9999,9999,9999,1533028432
15,16,Jits_ISO_5,36,9999,9999,9999,1533528156
15,16,Jits_ISO_5,37,9999,9999,9999,1534028864
15,16,Jits_ISO_5,38,9999,9999,9999,1534528612
15,16,Jits_ISO_5,39,9999,9999,9999,1535028348
15,16,Jits_ISO_5,40,9999,9999,9999,1535529032
15,16,Jits_ISO_5,41,9999,9999,9999,1536028776
15,16,Jits_ISO_5,42,9999,9999,9999,1536528452
15,16,Jits_ISO_5,43,9999,9999,9999,1537028156
15,16,Jits_ISO_5,44,9999,9999,9999,1537528928
15,16,Jits_ISO_5,45,9999,9999,9999,1538028600
15,16,Jits_ISO_5,46,9999,9999,9999,1538528332
15,16,Jits_ISO_5,47,9999,9999,9999,1539029044
15,16,Jits_ISO_5,48,9999,9999,9999,1539528780
15,16,Jits_ISO_5,49,9999,9999,9999,1540028512
15,16,Jits_ISO_5,50,9999,9999,9999,1540528200
15,16,Jits_ISO_5,51,9999,9999,9999,1541028920
15,16,Jits_ISO_5,52,9999,9999,9999,1541528656
15,16,Jits_ISO_5,53,9999,9999,9999,1542028408
15,16,Jits_ISO_5,54,9999,9999,9999,1542528068
15,16,Jits_ISO_5,55,9999,9999,9999,1543028792
15,16,Jits_ISO_5,56,9999,9999,9999,1543528520
15,16,Jits_ISO_5,57,9999,9999,9999,1544028264
15,16,Jits_ISO_5,58,9999,9999,9999,1544528968
15,16,Jits_ISO_5,59,9999,9999,9999,1545028688
15,16,Jits_ISO_5,60,9999,9999,9999,1545528436
15,16,Jits_ISO_5,61,9999,9999,9999,1546028096
15,16,Jits_ISO_5,62,9999,9999,9999,1546528888
15,16,Jits_ISO_5,63,9999,9999,9999,1547028556
15,16,Jits_ISO_5,64,9999,9999,9999,1547528268
15,16,Jits_ISO_5,65,9999,9999,9999,1548028984
15,16,Jits_ISO_5,66,9999,9999,9999,1548528732
15,16,Jits_ISO_5,67,9999,9999,9999,1549028468
15,16,Jits_ISO_5,68,9999,9999,9999,1549528144
15,16,Jits_ISO_5,69,9999,9999,9999,1550028864
15,16,Jits_ISO_5,70,9999,9999,9999,1550528584
15,16,Jits_ISO_5,71,9999,9999,9999,1551028336
15,16,Jits_ISO_5,72,9999,9999,9999,1551529040
15,16,Jits_ISO_5,73,9999,9999,9999,1552028776
15,16,Jits_ISO_5,74,9999,9999,9999,1552528500
15,16,Jits_ISO_5,75,9999,9999,9999,1553028156
15,16,Jits_ISO_5,76,9999,9999,9999,1553528884
15,16,Jits_ISO_5,77,9999,9999,9999,1554028616
15,16,Jits_ISO_5,78,9999,9999,9999,1554528368
15,16,Jits_ISO_5,79,9999,9999,9999,1555029076
15,16,Jits_ISO_5,80,9999,9999,9999,1555528812
15,16,Jits_ISO_5,81,9999,9999,9999,1556028472
15,16,Jits_ISO_5,82,9999,9999,9999,1556528216
15,16,Jits_ISO_5,83,9999,9999,9999,1557028924
15,16,Jits_ISO_5,84,9999,9999,9999,1557528676
15,16,Jits_ISO_5,85,9999,9999,9999,1558028404
15,16,Jits_ISO_5,86,9999,9999,9999,1558528108
15,16,Jits_ISO_5,87,9999,9999,9999,1559028828
15,16,Jits_ISO_5,88,9999,9999,9999,1559528500
15,16,Jits_ISO_5,89,9999,9999,9999,1560028248
15,16,Jits_ISO_5,90,9999,9999,9999,1560528972
15,16,Jits_ISO_5,91,9999,9999,9999,1561028720
15,16,Jits_ISO_5,92,9999,9999,9999,1561528376
15,16,Jits_ISO_5,93,9999,9999,9999,1562028116
15,16,Jits_ISO_5,94,9999,9999,9999,1562528892
15,16,Jits_ISO_5,95,9999,9999,9999,1563028564
15,16,Jits_ISO_5,96,9999,9999,9999,1563528312
15,16,Jits_ISO_5,97,9999,9999,9999,1564029016
15,16,Jits_ISO_5,98,9999,9999,9999,1564528748
15,16,Jits_ISO_5,99,9999,9999,9999,1565028420
15,16,Jits_ISO_5,100,9999,9999,9999,1565528152
15,16,Jits_ISO_5,101,9999,9999,9999,1566028876
15,16,Jits_ISO_5,102,9999,9999,9999,1566528616
15,16,Jits_ISO_5,103,9999,9999,9999,1567028348
15,16,Jits_ISO_5,104,9999,9999,9999,1567529012
15,16,Jits_ISO_5,105,9999,9999,9999,1568028792
15,16,Jits_ISO_5,106,9999,9999,9999,1568528452
15,16,Jits_ISO_5,107,9999,9999,9999,1569028160
15,16,Jits_ISO_5,108,9999,9999,9999,1569528940
15,16,Jits_ISO_5,109,9999,9999,9999,1570028600
15,16,Jits_ISO_5,110,9999,9999,9999,1570528352
15,16,Jits_ISO_5,111,9999,9999,9999,1571029056
15,16,Jits_ISO_5,112,9999,9999,9999,1571528788
15,16,Jits_ISO_5,113,9999,9999,9999,1572028524
15,16,Jits_ISO_5,114,9999,9999,9999,1572528180
15,16,Jits_ISO_5,115,9999,9999,9999,1573028952
15,16,Jits_ISO_5,116,9999,9999,9999,1573528688
15,16,Jits_ISO_5,117,9999,9999,9999,1574028360
15,16,Jits_ISO_5,118,9999,9999,9999,1574528108
15,16,Jits_ISO_5,119,9999,9999,9999,1575028808
16,7,Jits_ISO_8,0,5,56,103,1588429100
16,7,Jits_ISO_8,1,5,63,98,1588432196
16,7,Jits_ISO_8,2,5,80,127,1588435544
16,7,Jits_ISO_8,0,5,56,103,1589228948
16,7,Jits_ISO_8,1,5,63,98,1589232044
16,7,Jits_ISO_8,2,5,80,127,1589235240
16,7,Jits_ISO_8,0,5,80,127,1589969252
16,7,Jits_ISO_8,1,5,63,98,1590059264
16,7,Jits_ISO_8,2,5,56,103,1590068784
16,7,Jits_ISO_8,0,5,56,103,1590788748
16,7,Jits_ISO_8,1,5,63,98,1590798600
16,7,Jits_ISO_8,2,1,48,50,1590863444
16,7,Jits_ISO_8,3,5,80,127,1590888800
16,7,Jits_ISO_8,0,5,63,98,1591558656
16,7,Jits_ISO_8,1,1,48,34,1591578560
16,7,Jits_ISO_8,2,5,80,127,1591589448
16,7,Jits_ISO_8,3,5,56,103,1591618828
16,7,Jits_ISO_8,0,1,48,42,1592332924
16,7,Jits_ISO_8,1,5,56,103,1592359180
16,7,Jits_ISO_8,2,5,80,127,1592458592
16,7,Jits_ISO_8,3,5,63,98,1592508644
16,7,Jits_ISO_8,0,5,56,103,1593158968
16,7,Jits_ISO_8,1,1,48,42,1593191980
16,7,Jits_ISO_8,2,5,80,127,1593209168
16,7,Jits_ISO_8,3,5,63,98,1593249180
16,7,Jits_ISO_8,0,1,48,48,1593977844
16,7,Jits_ISO_8,1,5,80,127,1593988656
16,7,Jits_ISO_8,2,5,63,98,1594019156
16,7,Jits_ISO_8,3,5,56,103,1594088672
16,7,Jits_ISO_8,0,1,48,45,1594817664
16,7,Jits_ISO_8,1,5,63,98,1594819084
16,7,Jits_ISO_8,2,5,56,103,1594848612
16,7,Jits_ISO_8,3,5,80,127,1594909028
16,7,Jits_ISO_8,0,5,56,103,1595559460
16,7,Jits_ISO_8,1,5,80,127,1595562604
16,7,Jits_ISO_8,2,1,48,44,1595586024
16,7,Jits_ISO_8,3,5,63,98,1595679792
16,7,Jits_ISO_8,0,1,48,46,1596376904
16,7,Jits_ISO_8,1,5,56,103,1596438764
16,7,Jits_ISO_8,2,5,80,127,1596478764
16,7,Jits_ISO_8,3,5,63,98,1596489184
16,7,Jits_ISO_8,0,5,56,103,1597198776
16,7,Jits_ISO_8,1,1,48,54,1597216568
16,7,Jits_ISO_8,2,5,80,127,1597219228
16,7,Jits_ISO_8,3,5,63,98,1597299024
16,7,Jits_ISO_8,0,5,80,127,1597989360
16,7,Jits_ISO_8,1,1,48,48,1598014352
16,7,Jits_ISO_8,2,5,56,103,1598088560
16,7,Jits_ISO_8,3,5,63,98,1598098828
16,7,Jits_ISO_8,0,5,63,98,1598759496
16,7,Jits_ISO_8,1,5,80,127,1598818544
16,7,Jits_ISO_8,2,5,56,103,1598828888
16,7,Jits_ISO_8,3,1,48,56,1598865564
16,7,Jits_ISO_8,0,5,56,103,1599559052
16,7,Jits_ISO_8,1,1,48,49,1599589372
16,7,Jits_ISO_8,2,5,63,98,1599628500
16,7,Jits_ISO_8,3,5,80,127,1599632092
16,7,Jits_ISO_8,0,1,48,55,1600361428
16,7,Jits_ISO_8,1,5,63,98,1600388432
16,7,Jits_ISO_8,2,5,56,103,1600438552
16,7,Jits_ISO_8,3,5,80,127,1600442144
16,7,Jits_ISO_8,0,5,56,103,1601149392
16,7,Jits_ISO_8,1,5,80,127,1601152532
16,7,Jits_ISO_8,2,1,48,51,1601180760
16,7,Jits_ISO_8,3,5,63,98,1601239444
16,7,Jits_ISO_8,0,1,48,44,1601934380
16,7,Jits_ISO_8,1,5,63,98,1601989180
16,7,Jits_ISO_8,2,5,56,103,1602079328
16,7,Jits_ISO_8,3,5,80,127,1602108780
16,7,Jits_ISO_8,0,1,48,52,1602776668
16,7,Jits_ISO_8,1,5,56,103,1602778408
16,7,Jits_ISO_8,2,5,63,98,1602878816
16,7,Jits_ISO_8,3,5,80,127,1602908492
16,7,Jits_ISO_8,0,5,63,98,1603598604
16,7,Jits_ISO_8,1,5,56,103,1603609024
16,7,Jits_ISO_8,2,1,48,47,1603647212
16,7,Jits_ISO_8,3,5,80,127,1603699000
16,7,Jits_ISO_8,0,5,63,98,1604418992
16,7,Jits_ISO_8,1,1,48,45,1604489840
16,7,Jits_ISO_8,2,5,56,103,1604498928
16,7,Jits_ISO_8,3,5,80,127,1604501920
16,7,Jits_ISO_8,0,5,80,127,1605178612
16,7,Jits_ISO_8,1,5,63,98,1605199592
16,7,Jits_ISO_8,2,5,56,103,1605258564
16,7,Jits_ISO_8,3,1,48,49,1605286248
16,7,Jits_ISO_8,0,5,56,103,1606018344
16,7,Jits_ISO_8,1,5,63,98,1606039100
16,7,Jits_ISO_8,2,5,80,127,1606042464
16,7,Jits_ISO_8,3,1,48,43,1606091436
16,7,Jits_ISO_8,0,5,63,98,1606758792
16,7,Jits_ISO_8,1,1,48,40,1606823196
16,7,Jits_ISO_8,2,5,80,127,1606838660
16,7,Jits_ISO_8,3,5,56,103,1606848856
16,7,Jits_ISO_8,0,5,63,98,1607579252
16,7,Jits_ISO_8,1,1,48,48,1607598368
16,7,Jits_ISO_8,2,5,56,103,1607599628
16,7,Jits_ISO_8,3,5,80,127,1607648560
16,7,Jits_ISO_8,0,1,48,52,1608339220
16,7,Jits_ISO_8,1,5,80,127,1608378656
16,7,Jits_ISO_8,2,5,63,98,1608418744
16,7,Jits_ISO_8,3,5,56,103,1608439188
16,7,Jits_ISO_8,0,1,48,46,1609173232
16,7,Jits_ISO_8,1,5,56,103,1609218444
16,7,Jits_ISO_8,2,5,63,98,1609228740
16,7,Jits_ISO_8,3,5,80,127,1609249124
16,7,Jits_ISO_8,0,5,56,103,1609948408
16,7,Jits_ISO_8,1,1,48,49,1609974368
16,7,Jits_ISO_8,2,5,63,98,1610038560
16,7,Jits_ISO_8,3,5,80,127,1610099232
16,7,Jits_ISO_8,0,5,80,127,1610779240
16,7,Jits_ISO_8,1,5,56,103,1610789288
16,7,Jits_ISO_8,2,1,48,48,1610807404
16,7,Jits_ISO_8,3,5,63,98,1610858964
16,7,Jits_ISO_8,0,1,48,51,1611567920
16,7,Jits_ISO_8,1,5,63,98,1611608404
16,7,Jits_ISO_8,2,5,80,127,1611698676
16,7,Jits_ISO_8,3,5,56,103,1611708796
16,7,Jits_ISO_8,0,5,63,98,1612348864
16,7,Jits_ISO_8,1,5,80,127,1612399216
16,7,Jits_ISO_8,2,1,48,51,1612454472
16,7,Jits_ISO_8,3,5,56,103,1612459300
16,7,Jits_ISO_8,0,5,56,103,1613179136
16,7,Jits_ISO_8,1,5,80,127,1613229412
16,7,Jits_ISO_8,2,1,48,49,1613242120
16,7,Jits_ISO_8,3,5,63,98,1613248892
16,7,Jits_ISO_8,0,5,56,103,1613949264
16,7,Jits_ISO_8,1,5,80,127,1614008832
16,7,Jits_ISO_8,2,1,48,38,1614055920
16,7,Jits_ISO_8,3,5,63,98,1614079476
16,7,Jits_ISO_8,0,5,56,103,1614749056
16,7,Jits_ISO_8,1,5,80,127,1614779032
16,7,Jits_ISO_8,2,1,48,50,1614786732
16,7,Jits_ISO_8,3,5,63,98,1614808328
16,7,Jits_ISO_8,0,1,48,42,1615564392
16,7,Jits_ISO_8,1,5,56,103,1615588704
16,7,Jits_ISO_8,2,5,80,127,1615609164
16,7,Jits_ISO_8,3,5,63,98,1615668592
16,7,Jits_ISO_8,0,1,48,49,1616401068
16,7,Jits_ISO_8,1,5,80,127,1616469428
16,7,Jits_ISO_8,2,5,56,103,1616478504
16,7,Jits_ISO_8,3,5,63,98,1616488920
16,7,Jits_ISO_8,0,5,56,103,1617229216
16,7,Jits_ISO_8,1,1,48,48,1617255100
16,7,Jits_ISO_8,2,5,80,127,1617269072
16,7,Jits_ISO_8,3,5,63,98,1617298972
16,7,Jits_ISO_8,0,5,56,103,1617999272
16,7,Jits_ISO_8,1,5,63,98,1618029100
16,7,Jits_ISO_8,2,5,80,127,1618068964
16,7,Jits_ISO_8,3,1,48,40,1618095448
16,7,Jits_ISO_8,0,5,80,127,1618748872
16,7,Jits_ISO_8,1,5,63,98,1618799224
16,7,Jits_ISO_8,2,5,56,103,1618818340
16,7,Jits_ISO_8,3,1,48,55,1618868808
16,7,Jits_ISO_8,0,5,56,103,1619579380
16,7,Jits_ISO_8,1,1,48,52,1619637652
16,7,Jits_ISO_8,2,5,80,127,1619649060
16,7,Jits_ISO_8,3,5,63,98,1619709300
16,7,Jits_ISO_8,0,5,80,127,1620378960
16,7,Jits_ISO_8,1,5,63,98,1620469096
16,7,Jits_ISO_8,2,1,48,53,1620474308
16,7,Jits_ISO_8,3,5,56,103,1620488528
16,7,Jits_ISO_8,0,5,63,98,1621199212
16,7,Jits_ISO_8,1,5,56,103,1621218924
16,7,Jits_ISO_8,2,5,80,127,1621258664
16,7,Jits_ISO_8,3,1,48,49,1621308536
16,7,Jits_ISO_8,0,5,80,127,1621958912
16,7,Jits_ISO_8,1,5,63,98,1621978772
16,7,Jits_ISO_8,2,1,48,51,1622032932
16,7,Jits_ISO_8,3,5,56,103,1622059408
16,7,Jits_ISO_8,0,5,63,98,1622748596
16,7,Jits_ISO_8,1,1,48,46,1622855048
16,7,Jits_ISO_8,2,5,56,103,1622859200
16,7,Jits_ISO_8,3,5,80,127,1622862192
16,7,Jits_ISO_8,0,5,63,98,1623568848
16,7,Jits_ISO_8,1,5,56,103,1623579040
16,7,Jits_ISO_8,2,5,80,127,1623582180
16,7,Jits_ISO_8,3,1,48,51,1623652128
16,7,Jits_ISO_8,0,5,56,103,1624349136
16,7,Jits_ISO_8,1,1,48,50,1624389720
16,7,Jits_ISO_8,2,5,80,127,1624468788
16,7,Jits_ISO_8,3,5,63,98,1624508784
16,7,Jits_ISO_8,0,5,56,103,1625169240
16,7,Jits_ISO_8,1,5,80,127,1625249116
16,7,Jits_ISO_8,2,1,48,45,1625255892
16,7,Jits_ISO_8,3,5,63,98,1625268668
16,7,Jits_ISO_8,0,5,56,103,1625968968
16,7,Jits_ISO_8,1,1,48,49,1626031204
16,7,Jits_ISO_8,2,5,63,98,1626078652
16,7,Jits_ISO_8,3,5,80,127,1626081940
16,7,Jits_ISO_8,0,5,56,103,1626798432
16,7,Jits_ISO_8,1,5,80,127,1626829228
16,7,Jits_ISO_8,2,1,48,54,1626844628
16,7,Jits_ISO_8,3,5,63,98,1626848708
16,7,Jits_ISO_8,0,5,63,98,1627578824
16,7,Jits_ISO_8,1,5,56,103,1627588872
16,7,Jits_ISO_8,2,5,80,127,1627599140
16,7,Jits_ISO_8,3,1,48,48,1627625852
16,7,Jits_ISO_8,0,5,80,127,1628369236
16,7,Jits_ISO_8,1,5,56,103,1628418688
16,7,Jits_ISO_8,2,1,48,48,1628435764
16,7,Jits_ISO_8,3,5,63,98,1628459320
16,7,Jits_ISO_8,0,5,80,127,1629188736
16,7,Jits_ISO_8,1,5,63,98,1629208900
16,7,Jits_ISO_8,2,1,48,48,1629239740
16,7,Jits_ISO_8,3,5,56,103,1629259020
16,7,Jits_ISO_8,0,5,80,127,1629998724
16,7,Jits_ISO_8,1,5,56,103,1630029228
16,7,Jits_ISO_8,2,1,48,47,1630036308
16,7,Jits_ISO_8,3,5,63,98,1630098752
16,7,Jits_ISO_8,0,5,56,103,1630849328
16,7,Jits_ISO_8,1,1,48,42,1630853268
16,7,Jits_ISO_8,2,5,80,127,1630858768
16,7,Jits_ISO_8,3,5,63,98,1630898632
16,7,Jits_ISO_8,0,5,56,103,1631559072
16,7,Jits_ISO_8,1,5,63,98,1631578560
16,7,Jits_ISO_8,2,5,80,127,1631649212
16,7,Jits_ISO_8,3,1,48,44,1631738860
16,7,Jits_ISO_8,0,1,48,46,1632361156
16,7,Jits_ISO_8,1,5,63,98,1632379464
16,7,Jits_ISO_8,2,5,80,127,1632438660
16,7,Jits_ISO_8,3,5,56,103,1632459268
16,7,Jits_ISO_8,0,5,80,127,1633168692
16,7,Jits_ISO_8,1,5,56,103,1633198592
16,7,Jits_ISO_8,2,1,48,42,1633203728
16,7,Jits_ISO_8,3,5,63,98,1633229232
16,7,Jits_ISO_8,0,5,56,103,1633968488
16,7,Jits_ISO_8,1,1,48,50,1633998728
16,7,Jits_ISO_8,2,5,63,98,1634028872
16,7,Jits_ISO_8,3,5,80,127,1634089584
16,7,Jits_ISO_8,0,5,80,127,1634788664
16,7,Jits_ISO_8,1,5,56,103,1634809200
16,7,Jits_ISO_8,2,1,48,47,1634821188
16,7,Jits_ISO_8,3,5,63,98,1634878900
16,7,Jits_ISO_8,0,5,80,127,1635588392
16,7,Jits_ISO_8,1,5,63,98,1635609000
16,7,Jits_ISO_8,2,5,56,103,1635638600
16,7,Jits_ISO_8,3,1,48,48,1635649888
16,7,Jits_ISO_8,0,5,80,127,1636379044
16,7,Jits_ISO_8,1,5,63,98,1636398384
16,7,Jits_ISO_8,2,1,48,53,1636437840
16,7,Jits_ISO_8,3,5,56,103,1636458916
16,7,Jits_ISO_8,0,5,80,127,1637178692
16,7,Jits_ISO_8,1,1,48,61,1637259732
16,7,Jits_ISO_8,2,5,56,103,1637279012
16,7,Jits_ISO_8,3,5,63,98,1637308688
16,7,Jits_ISO_8,0,5,63,98,1637969420
16,7,Jits_ISO_8,1,5,80,127,1638018504
16,7,Jits_ISO_8,2,5,56,103,1638038888
16,7,Jits_ISO_8,3,1,48,65,1638139320
16,7,Jits_ISO_8,0,5,80,127,1638808916
16,7,Jits_ISO_8,1,5,56,103,1638838592
16,7,Jits_ISO_8,2,5,63,98,1638841804
16,7,Jits_ISO_8,3,1,48,46,1638925632
16,7,Jits_ISO_8,0,5,63,98,1639639420
16,7,Jits_ISO_8,1,5,56,103,1639679360
16,7,Jits_ISO_8,2,1,48,46,1639692396
16,7,Jits_ISO_8,3,5,80,127,1639698864
16,7,Jits_ISO_8,0,5,80,127,1640378596
16,7,Jits_ISO_8,1,1,48,46,1640427724
16,7,Jits_ISO_8,2,5,63,98,1640458712
16,7,Jits_ISO_8,3,5,56,103,1640498648
16,7,Jits_ISO_8,0,5,63,98,1641198996
16,7,Jits_ISO_8,1,1,48,54,1641242072
16,7,Jits_ISO_8,2,5,80,127,1641278812
16,7,Jits_ISO_8,3,5,56,103,1641299420
16,7,Jits_ISO_8,0,1,48,52,1642035408
16,7,Jits_ISO_8,1,5,56,103,1642038664
16,7,Jits_ISO_8,2,5,63,98,1642048784
16,7,Jits_ISO_8,3,5,80,127,1642088720
16,7,Jits_ISO_8,0,5,56,103,1642758508
16,7,Jits_ISO_8,1,5,80,127,1642761576
16,7,Jits_ISO_8,2,1,48,55,1642856388
16,7,Jits_ISO_8,3,1,48,46,1642880428
16,7,Jits_ISO_8,4,5,63,98,1642898880
16,7,Jits_ISO_8,0,5,56,103,1643549224
16,7,Jits_ISO_8,1,1,48,49,1643610032
16,7,Jits_ISO_8,2,5,63,98,1643639204
16,7,Jits_ISO_8,3,5,80,127,1643708720
16,7,Jits_ISO_8,0,5,63,98,1644428584
16,7,Jits_ISO_8,1,5,80,127,1644431800
16,7,Jits_ISO_8,2,1,48,60,1644438976
16,7,Jits_ISO_8,3,1,48,51,1644461796
16,7,Jits_ISO_8,4,5,56,103,1644489024
16,7,Jits_ISO_8,0,1,48,68,1645259276
16,7,Jits_ISO_8,1,5,80,127,1645269264
16,7,Jits_ISO_8,2,1,48,58,1645284124
16,7,Jits_ISO_8,3,5,56,103,1645288808
16,7,Jits_ISO_8,4,5,63,98,1645299372
16,7,Jits_ISO_8,0,5,56,103,1645978932
16,7,Jits_ISO_8,1,5,63,98,1645989424
16,7,Jits_ISO_8,2,5,80,127,1646058884
16,7,Jits_ISO_8,3,1,48,49,1646113864
16,7,Jits_ISO_8,0,5,80,127,1646778724
16,7,Jits_ISO_8,1,5,56,103,1646828856
16,7,Jits_ISO_8,2,1,48,62,1646834964
16,7,Jits_ISO_8,3,1,48,55,1646859920
16,7,Jits_ISO_8,4,5,63,98,1646879348
16,7,Jits_ISO_8,0,1,48,50,1647623536
16,7,Jits_ISO_8,1,5,56,103,1647659380
16,7,Jits_ISO_8,2,5,63,98,1647668532
16,7,Jits_ISO_8,3,5,80,127,1647708616
16,7,Jits_ISO_8,0,5,56,103,1648398644
16,7,Jits_ISO_8,1,1,48,56,1648410152
16,7,Jits_ISO_8,2,5,63,98,1648438500
16,7,Jits_ISO_8,3,5,80,127,1648488924
16,7,Jits_ISO_8,0,5,80,127,1649158504
16,7,Jits_ISO_8,1,5,56,103,1649208636
16,7,Jits_ISO_8,2,5,63,98,1649229316
16,7,Jits_ISO_8,3,1,48,53,1649244716
16,7,Jits_ISO_8,0,5,80,127,1649968488
16,7,Jits_ISO_8,1,1,48,58,1650003888
16,7,Jits_ISO_8,2,5,63,98,1650028948
16,7,Jits_ISO_8,3,5,56,103,1650109024
16,7,Jits_ISO_8,0,5,80,127,1650748948
16,7,Jits_ISO_8,1,5,56,103,1650788812
16,7,Jits_ISO_8,2,5,63,98,1650809200
16,7,Jits_ISO_8,3,1,48,47,1650841532
16,7,Jits_ISO_8,0,5,56,103,1651598788
16,7,Jits_ISO_8,1,5,80,127,1651609208
16,7,Jits_ISO_8,2,1,48,65,1651635844
16,7,Jits_ISO_8,3,5,63,98,1651648992
16,7,Jits_ISO_8,4,1,48,53,1651657272
16,7,Jits_ISO_8,0,1,48,53,1652423196
16,7,Jits_ISO_8,1,5,56,103,1652469228
16,7,Jits_ISO_8,2,5,63,98,1652508968
16,7,Jits_ISO_8,3,5,80,127,1652512480
16,7,Jits_ISO_8,0,5,63,98,1653159180
16,7,Jits_ISO_8,1,5,80,127,1653199196
16,7,Jits_ISO_8,2,1,48,61,1653236096
16,7,Jits_ISO_8,3,1,48,50,1653256940
16,7,Jits_ISO_8,4,5,56,103,1653268948
16,7,Jits_ISO_8,0,5,63,98,1653948772
16,7,Jits_ISO_8,1,1,48,63,1654006272
16,7,Jits_ISO_8,2,1,48,55,1654026128
16,7,Jits_ISO_8,3,5,56,103,1654028712
16,7,Jits_ISO_8,4,5,80,127,1654088956
16,7,Jits_ISO_8,0,5,80,127,1654758892
16,7,Jits_ISO_8,1,1,48,59,1654796436
16,7,Jits_ISO_8,2,5,63,98,1654809116
16,7,Jits_ISO_8,3,5,56,103,1654838568
16,7,Jits_ISO_8,0,5,56,103,1655549172
16,7,Jits_ISO_8,1,1,48,66,1655579216
16,7,Jits_ISO_8,2,5,63,98,1655598420
16,7,Jits_ISO_8,3,5,80,127,1655608620
16,7,Jits_ISO_8,0,5,56,103,1656359256
16,7,Jits_ISO_8,1,1,48,56,1656390620
16,7,Jits_ISO_8,2,5,63,98,1656468940
16,7,Jits_ISO_8,3,5,80,127,1656489460
16,7,Jits_ISO_8,0,5,63,98,1657158904
16,7,Jits_ISO_8,1,5,80,127,1657209256
16,7,Jits_ISO_8,2,1,48,67,1657239948
16,7,Jits_ISO_8,3,1,48,60,1657261496
16,7,Jits_ISO_8,4,5,56,103,1657299208
16,7,Jits_ISO_8,0,5,63,98,1657948716
16,7,Jits_ISO_8,1,5,80,127,1657979144
16,7,Jits_ISO_8,2,1,48,63,1658035672
16,7,Jits_ISO_8,3,1,48,51,1658057092
16,7,Jits_ISO_8,4,5,56,103,1658069320
16,7,Jits_ISO_8,0,5,63,98,1658749244
16,7,Jits_ISO_8,1,5,56,103,1658758544
16,7,Jits_ISO_8,2,1,48,68,1658836420
16,7,Jits_ISO_8,3,5,80,127,1658858784
16,7,Jits_ISO_8,0,1,48,58,1659641072
16,7,Jits_ISO_8,1,5,63,98,1659649416
16,7,Jits_ISO_8,2,5,80,127,1659679040
16,7,Jits_ISO_8,3,5,56,103,1659708940
16,7,Jits_ISO_8,0,1,48,59,1660468944
16,7,Jits_ISO_8,1,5,80,127,1660470208
16,7,Jits_ISO_8,2,5,63,98,1660478760
16,7,Jits_ISO_8,3,1,48,51,1660493852
16,7,Jits_ISO_8,4,5,56,103,1660508936
16,7,Jits_ISO_8,0,5,80,127,1661169136
16,7,Jits_ISO_8,1,5,63,98,1661188500
16,7,Jits_ISO_8,2,5,56,103,1661238700
16,7,Jits_ISO_8,3,1,48,66,1661312388
16,7,Jits_ISO_8,0,5,63,98,1661998852
16,7,Jits_ISO_8,1,1,48,53,1662025940
16,7,Jits_ISO_8,2,1,48,48,1662050652
16,7,Jits_ISO_8,3,5,80,127,1662058844
16,7,Jits_ISO_8,4,5,56,103,1662079300
16,7,Jits_ISO_8,0,5,63,98,1662759300
16,7,Jits_ISO_8,1,5,56,103,1662808456
16,7,Jits_ISO_8,2,5,80,127,1662818952
16,7,Jits_ISO_8,3,1,48,59,1662844836
16,7,Jits_ISO_8,4,1,48,53,1662864144
16,7,Jits_ISO_8,0,5,56,103,1663588892
16,7,Jits_ISO_8,1,5,80,127,1663599016
16,7,Jits_ISO_8,2,1,48,48,1663603180
16,7,Jits_ISO_8,3,5,63,98,1663699388
16,7,Jits_ISO_8,0,5,80,127,1664348684
16,7,Jits_ISO_8,1,5,63,98,1664358732
16,7,Jits_ISO_8,2,1,48,61,1664460292
16,7,Jits_ISO_8,3,5,56,103,1664509240
16,7,Jits_ISO_8,0,5,63,98,1665158444
16,7,Jits_ISO_8,1,5,80,127,1665198384
16,7,Jits_ISO_8,2,1,48,58,1665233192
16,7,Jits_ISO_8,3,5,56,103,1665279444
16,7,Jits_ISO_8,0,5,56,103,1665949008
16,7,Jits_ISO_8,1,1,48,67,1666033188
16,7,Jits_ISO_8,2,5,80,127,1666049328
16,7,Jits_ISO_8,3,1,48,51,1666056196
16,7,Jits_ISO_8,4,5,63,98,1666068964
16,7,Jits_ISO_8,0,1,48,60,1666800168
16,7,Jits_ISO_8,1,5,80,127,1666809108
16,7,Jits_ISO_8,2,5,56,103,1666818880
16,7,Jits_ISO_8,3,1,48,50,1666822436
16,7,Jits_ISO_8,4,5,63,98,1666908616
16,7,Jits_ISO_8,0,5,56,103,1667609000
16,7,Jits_ISO_8,1,1,48,60,1667629164
16,7,Jits_ISO_8,2,5,63,98,1667630648
16,7,Jits_ISO_8,3,5,80,127,1667709248
16,7,Jits_ISO_8,0,5,63,98,1668358604
16,7,Jits_ISO_8,1,5,56,103,1668448812
16,7,Jits_ISO_8,2,5,80,127,1668451952
16,7,Jits_ISO_8,3,1,48,61,1668475816
16,7,Jits_ISO_8,0,5,56,103,1669189016
16,7,Jits_ISO_8,1,5,80,127,1669249560
16,7,Jits_ISO_8,2,1,48,62,1669252076
16,7,Jits_ISO_8,3,5,63,98,1669258700
16,7,Jits_ISO_8,0,1,48,64,1670015736
16,7,Jits_ISO_8,1,1,48,52,1670037248
16,7,Jits_ISO_8,2,5,80,127,1670038756
16,7,Jits_ISO_8,3,5,56,103,1670049176
16,7,Jits_ISO_8,4,5,63,98,1670052316
16,7,Jits_ISO_8,0,5,56,103,1670798704
16,7,Jits_ISO_8,1,5,80,127,1670809048
16,7,Jits_ISO_8,2,1,48,59,1670810988
16,7,Jits_ISO_8,3,1,48,54,1670830460
16,7,Jits_ISO_8,4,5,63,98,1670831496
16,7,Jits_ISO_8,0,5,63,98,1671568900
16,7,Jits_ISO_8,1,5,80,127,1671629144
16,7,Jits_ISO_8,2,1,48,62,1671632708
16,7,Jits_ISO_8,3,1,48,54,1671654712
16,7,Jits_ISO_8,4,5,56,103,1671679316
16,7,Jits_ISO_8,0,1,48,62,1672434876
16,7,Jits_ISO_8,1,5,63,98,1672449520
16,7,Jits_ISO_8,2,5,56,103,1672458696
16,7,Jits_ISO_8,3,5,80,127,1672508820
16,7,Jits_ISO_8,0,5,63,98,1673148920
16,7,Jits_ISO_8,1,5,80,127,1673169232
16,7,Jits_ISO_8,2,5,56,103,1673178528
16,7,Jits_ISO_8,3,1,48,57,1673244292
16,7,Jits_ISO_8,0,5,63,98,1673948616
16,7,Jits_ISO_8,1,5,80,127,1673951908
16,7,Jits_ISO_8,2,1,48,61,1673966112
16,7,Jits_ISO_8,3,5,56,103,1673988424
16,7,Jits_ISO_8,0,1,48,59,1674775188
16,7,Jits_ISO_8,1,5,63,98,1674818836
16,7,Jits_ISO_8,2,5,80,127,1674848660
16,7,Jits_ISO_8,3,5,56,103,1674858932
16,7,Jits_ISO_8,0,5,56,103,1675568580
16,7,Jits_ISO_8,1,5,80,127,1675599152
16,7,Jits_ISO_8,2,1,48,60,1675601744
16,7,Jits_ISO_8,3,1,48,50,1675624044
16,7,Jits_ISO_8,4,5,63,98,1675628800
16,7,Jits_ISO_8,0,1,48,47,1676418460
16,7,Jits_ISO_8,1,5,63,98,1676468532
16,7,Jits_ISO_8,2,5,56,103,1676508392
16,7,Jits_ISO_8,3,5,80,127,1676511464
16,7,Jits_ISO_8,0,5,80,127,1677168972
16,7,Jits_ISO_8,1,1,48,66,1677238408
16,7,Jits_ISO_8,2,5,56,103,1677248916
16,7,Jits_ISO_8,3,1,48,57,1677260412
16,7,Jits_ISO_8,4,5,63,98,1677299096
16,7,Jits_ISO_8,0,5,80,127,1677949440
16,7,Jits_ISO_8,1,5,56,103,1677968704
16,7,Jits_ISO_8,2,5,63,98,1678058764
16,7,Jits_ISO_8,3,1,48,65,1678089852
16,7,Jits_ISO_8,0,5,80,127,1678789088
16,7,Jits_ISO_8,1,5,63,98,1678828808
16,7,Jits_ISO_8,2,1,48,67,1678841292
16,7,Jits_ISO_8,3,1,48,57,1678863692
16,7,Jits_ISO_8,4,5,56,103,1678868892
16,7,Jits_ISO_8,0,5,63,98,1679558992
16,7,Jits_ISO_8,1,5,80,127,1679618512
16,7,Jits_ISO_8,2,5,56,103,1679649084
16,7,Jits_ISO_8,3,1,48,60,1679656912
16,7,Jits_ISO_8,4,1,48,51,1679681096
16,7,Jits_ISO_8,0,5,56,103,1680358624
16,7,Jits_ISO_8,1,5,80,127,1680388324
16,7,Jits_ISO_8,2,1,48,59,1680400436
16,7,Jits_ISO_8,3,1,48,49,1680422432
16,7,Jits_ISO_8,4,5,63,98,1680478576
16,7,Jits_ISO_8,0,5,56,103,1681168700
16,7,Jits_ISO_8,1,1,48,70,1681219700
16,7,Jits_ISO_8,2,1,48,58,1681244984
16,7,Jits_ISO_8,3,5,80,127,1681279260
16,7,Jits_ISO_8,4,5,63,98,1681309012
16,7,Jits_ISO_8,0,1,48,60,1682009000
16,7,Jits_ISO_8,1,5,56,103,1682018544
16,7,Jits_ISO_8,2,1,48,52,1682031160
16,7,Jits_ISO_8,3,5,63,98,1682079212
16,7,Jits_ISO_8,4,5,80,127,1682108736
16,7,Jits_ISO_8,0,5,56,103,1682788656
16,7,Jits_ISO_8,1,1,48,63,1682827300
16,7,Jits_ISO_8,2,1,48,52,1682850048
16,7,Jits_ISO_8,3,5,63,98,1682859360
16,7,Jits_ISO_8,4,5,80,127,1682878848
16,7,Jits_ISO_8,0,5,80,127,1683558712
16,7,Jits_ISO_8,1,5,63,98,1683579320
16,7,Jits_ISO_8,2,5,56,103,1683629372
16,7,Jits_ISO_8,3,1,48,53,1683630264
16,7,Jits_ISO_8,0,9999,9999,9999,1588826172
16,7,Jits_ISO_8,1,9999,9999,9999,1589626992
16,7,Jits_ISO_8,2,9999,9999,9999,1590426712
16,7,Jits_ISO_8,3,9999,9999,9999,1591226484
16,7,Jits_ISO_8,4,9999,9999,9999,1592026180
16,7,Jits_ISO_8,5,9999,9999,9999,1592826940
16,7,Jits_ISO_8,6,9999,9999,9999,1593626744
16,7,Jits_ISO_8,7,9999,9999,9999,1594426472
16,7,Jits_ISO_8,8,9999,9999,9999,1595226184
16,7,Jits_ISO_8,9,9999,9999,9999,1596027004
16,7,Jits_ISO_8,10,9999,9999,9999,1596826732
16,7,Jits_ISO_8,11,9999,9999,9999,1597626448
16,7,Jits_ISO_8,12,9999,9999,9999,1598426180
16,7,Jits_ISO_8,13,9999,9999,9999,1599226944
16,7,Jits_ISO_8,14,9999,9999,9999,1600026744
16,7,Jits_ISO_8,15,9999,9999,9999,1600826460
16,7,Jits_ISO_8,16,9999,9999,9999,1601626224
16,7,Jits_ISO_8,17,9999,9999,9999,1602427000
16,7,Jits_ISO_8,18,9999,9999,9999,1603226712
16,7,Jits_ISO_8,19,9999,9999,9999,1604026424
16,7,Jits_ISO_8,20,9999,9999,9999,1604826204
16,7,Jits_ISO_8,21,9999,9999,9999,1605626956
16,7,Jits_ISO_8,22,9999,9999,9999,1606426696
16,7,Jits_ISO_8,23,9999,9999,9999,1607226420
16,7,Jits_ISO_8,24,9999,9999,9999,1608026200
16,7,Jits_ISO_8,25,9999,9999,9999,1608826956
16,7,Jits_ISO_8,26,9999,9999,9999,1609626736
16,7,Jits_ISO_8,27,9999,9999,9999,1610426448
16,7,Jits_ISO_8,28,9999,9999,9999,1611226168
16,7,Jits_ISO_8,29,9999,9999,9999,1612026944
16,7,Jits_ISO_8,30,9999,9999,9999,1612826676
16,7,Jits_ISO_8,31,9999,9999,9999,1613626456
16,7,Jits_ISO_8,32,9999,9999,9999,1614426180
16,7,Jits_ISO_8,33,9999,9999,9999,1615226944
16,7,Jits_ISO_8,34,9999,9999,9999,1616026740
16,7,Jits_ISO_8,35,9999,9999,9999,1616826456
16,7,Jits_ISO_8,36,9999,9999,9999,1617626172
16,7,Jits_ISO_8,37,9999,9999,9999,1618426940
16,7,Jits_ISO_8,38,9999,9999,9999,1619226684
16,7,Jits_ISO_8,39,9999,9999,9999,1620026484
16,7,Jits_ISO_8,40,9999,9999,9999,1620826212
16,7,Jits_ISO_8,41,9999,9999,9999,1621626980
16,7,Jits_ISO_8,42,9999,9999,9999,1622426688
16,7,Jits_ISO_8,43,9999,9999,9999,1623226476
16,7,Jits_ISO_8,44,9999,9999,9999,1624026172
16,7,Jits_ISO_8,45,9999,9999,9999,1624826932
16,7,Jits_ISO_8,46,9999,9999,9999,1625626680
16,7,Jits_ISO_8,47,9999,9999,9999,1626426476
16,7,Jits_ISO_8,48,9999,9999,9999,1627226200
16,7,Jits_ISO_8,49,9999,9999,9999,1628026964
16,7,Jits_ISO_8,50,9999,9999,9999,1628826748
16,7,Jits_ISO_8,51,9999,9999,9999,1629626444
16,7,Jits_ISO_8,52,9999,9999,9999,1630426172
16,7,Jits_ISO_8,53,9999,9999,9999,1631226952
16,7,Jits_ISO_8,54,9999,9999,9999,1632026696
16,7,Jits_ISO_8,55,9999,9999,9999,1632826424
16,7,Jits_ISO_8,56,9999,9999,9999,1633626200
16,7,Jits_ISO_8,57,9999,9999,9999,1634426972
16,7,Jits_ISO_8,58,9999,9999,9999,1635226696
16,7,Jits_ISO_8,59,9999,9999,9999,1636026468
16,7,Jits_ISO_8,60,9999,9999,9999,1636826192
16,7,Jits_ISO_8,61,9999,9999,9999,1637626964
16,7,Jits_ISO_8,62,9999,9999,9999,1638426708
16,7,Jits_ISO_8,63,9999,9999,9999,1639226484
16,7,Jits_ISO_8,64,9999,9999,9999,1640026212
16,7,Jits_ISO_8,65,9999,9999,9999,1640826968
16,7,Jits_ISO_8,66,9999,9999,9999,1641626692
16,7,Jits_ISO_8,67,9999,9999,9999,1642426484
16,7,Jits_ISO_8,68,9999,9999,9999,1643226228
16,7,Jits_ISO_8,69,9999,9999,9999,1644026944
16,7,Jits_ISO_8,70,9999,9999,9999,1644826732
16,7,Jits_ISO_8,71,9999,9999,9999,1645626448
16,7,Jits_ISO_8,72,9999,9999,9999,1646426176
16,7,Jits_ISO_8,73,9999,9999,9999,1647226996
16,7,Jits_ISO_8,74,9999,9999,9999,1648026676
16,7,Jits_ISO_8,75,9999,9999,9999,1648826460
16,7,Jits_ISO_8,76,9999,9999,9999,1649626180
16,7,Jits_ISO_8,77,9999,9999,9999,1650426948
16,7,Jits_ISO_8,78,9999,9999,9999,1651226684
16,7,Jits_ISO_8,79,9999,9999,9999,1652026460
16,7,Jits_ISO_8,80,9999,9999,9999,1652826204
16,7,Jits_ISO_8,81,9999,9999,9999,1653626932
16,7,Jits_ISO_8,82,9999,9999,9999,1654426716
16,7,Jits_ISO_8,83,9999,9999,9999,1655226444
16,7,Jits_ISO_8,84,9999,9999,9999,1656026236
16,7,Jits_ISO_8,85,9999,9999,9999,1656826936
16,7,Jits_ISO_8,86,9999,9999,9999,1657626732
16,7,Jits_ISO_8,87,9999,9999,9999,1658426436
16,7,Jits_ISO_8,88,9999,9999,9999,1659226232
16,7,Jits_ISO_8,89,9999,9999,9999,1660027000
16,7,Jits_ISO_8,90,9999,9999,9999,1660826696
16,7,Jits_ISO_8,91,9999,9999,9999,1661626424
16,7,Jits_ISO_8,92,9999,9999,9999,1662426204
16,7,Jits_ISO_8,93,9999,9999,9999,1663226952
16,7,Jits_ISO_8,94,9999,9999,9999,1664026704
16,7,Jits_ISO_8,95,9999,9999,9999,1664826424
16,7,Jits_ISO_8,96,9999,9999,9999,1665626220
16,7,Jits_ISO_8,97,9999,9999,9999,1666426952
16,7,Jits_ISO_8,98,9999,9999,9999,1667226676
16,7,Jits_ISO_8,99,9999,9999,9999,1668026484
16,7,Jits_ISO_8,100,9999,9999,9999,1668826196
16,7,Jits_ISO_8,101,9999,9999,9999,1669626948
16,7,Jits_ISO_8,102,9999,9999,9999,1670426740
16,7,Jits_ISO_8,103,9999,9999,9999,1671226444
16,7,Jits_ISO_8,104,9999,9999,9999,1672026172
16,7,Jits_ISO_8,105,9999,9999,9999,1672826952
16,7,Jits_ISO_8,106,9999,9999,9999,1673626728
16,7,Jits_ISO_8,107,9999,9999,9999,1674426492
16,7,Jits_ISO_8,108,9999,9999,9999,1675226208
16,7,Jits_ISO_8,109,9999,9999,9999,1676026940
16,7,Jits_ISO_8,110,9999,9999,9999,1676826704
16,7,Jits_ISO_8,111,9999,9999,9999,1677626468
16,7,Jits_ISO_8,112,9999,9999,9999,1678426204
16,7,Jits_ISO_8,113,9999,9999,9999,1679226952
16,7,Jits_ISO_8,114,9999,9999,9999,1680026744
16,7,Jits_ISO_8,115,9999,9999,9999,1680826448
16,7,Jits_ISO_8,116,9999,9999,9999,1681626172
16,7,Jits_ISO_8,117,9999,9999,9999,1682426944
16,7,Jits_ISO_8,118,9999,9999,9999,1683226744
16,7,Jits_ISO_8,119,9999,9999,9999,1684026480
17,17,Jits_Phase_5,0,5,56,103,1693899164
17,17,Jits_Phase_5,1,5,63,98,1693902260
17,17,Jits_Phase_5,2,5,80,127,1693905384
17,17,Jits_Phase_5,0,5,56,103,1694399096
17,17,Jits_Phase_5,1,5,63,98,1694402120
17,17,Jits_Phase_5,2,5,80,127,1694405164
17,17,Jits_Phase_5,0,5,56,103,1694898672
17,17,Jits_Phase_5,1,5,80,127,1694908868
17,17,Jits_Phase_5,2,5,63,98,1694929176
17,17,Jits_Phase_5,0,5,63,98,1695359216
17,17,Jits_Phase_5,1,1,48,73,1695381740
17,17,Jits_Phase_5,2,5,80,127,1695389032
17,17,Jits_Phase_5,3,5,56,103,1695399376
17,17,Jits_Phase_5,4,1,48,58,1695404500
17,17,Jits_Phase_5,0,1,48,76,1695879272
17,17,Jits_Phase_5,1,1,48,63,1695899024
17,17,Jits_Phase_5,2,5,80,127,1695918304
17,17,Jits_Phase_5,3,5,56,103,1695928948
17,17,Jits_Phase_5,4,5,63,98,1695959296
17,17,Jits_Phase_5,0,1,48,71,1696407388
17,17,Jits_Phase_5,1,5,63,98,1696408820
17,17,Jits_Phase_5,2,1,48,62,1696431924
17,17,Jits_Phase_5,3,5,56,103,1696438772
17,17,Jits_Phase_5,4,5,80,127,1696449044
17,17,Jits_Phase_5,0,5,56,103,1696858564
17,17,Jits_Phase_5,1,5,63,98,1696908840
17,17,Jits_Phase_5,2,5,80,127,1696929072
17,17,Jits_Phase_5,3,1,48,72,1696941332
17,17,Jits_Phase_5,4,1,48,64,1696968428
17,17,Jits_Phase_5,0,5,80,127,1697359176
17,17,Jits_Phase_5,1,1,48,71,1697405740
17,17,Jits_Phase_5,2,5,63,98,1697409372
17,17,Jits_Phase_5,3,1,48,58,1697428212
17,17,Jits_Phase_5,4,5,56,103,1697449212
17,17,Jits_Phase_5,0,5,56,103,1697858900
17,17,Jits_Phase_5,1,5,63,98,1697888872
17,17,Jits_Phase_5,2,1,48,59,1697924572
17,17,Jits_Phase_5,3,1,48,50,1697947336
17,17,Jits_Phase_5,4,5,80,127,1697959192
17,17,Jits_Phase_5,0,5,56,103,1698358764
17,17,Jits_Phase_5,1,1,48,75,1698407740
17,17,Jits_Phase_5,2,5,80,127,1698419000
17,17,Jits_Phase_5,3,1,48,62,1698429524
17,17,Jits_Phase_5,4,5,63,98,1698448948
17,17,Jits_Phase_5,0,5,56,103,1698868600
17,17,Jits_Phase_5,1,5,63,98,1698878796
17,17,Jits_Phase_5,2,1,48,71,1698905284
17,17,Jits_Phase_5,3,5,80,127,1698918876
17,17,Jits_Phase_5,4,1,48,61,1698927828
17,17,Jits_Phase_5,0,5,63,98,1699359100
17,17,Jits_Phase_5,1,1,48,75,1699402224
17,17,Jits_Phase_5,2,1,48,59,1699422652
17,17,Jits_Phase_5,3,5,80,127,1699439016
17,17,Jits_Phase_5,4,5,56,103,1699449208
17,17,Jits_Phase_5,0,5,63,98,1699908928
17,17,Jits_Phase_5,1,1,48,83,1699913840
17,17,Jits_Phase_5,2,1,48,67,1699938996
17,17,Jits_Phase_5,3,5,56,103,1699948984
17,17,Jits_Phase_5,4,5,80,127,1699951900
17,17,Jits_Phase_5,0,5,56,103,1700368840
17,17,Jits_Phase_5,1,5,63,98,1700379184
17,17,Jits_Phase_5,2,5,80,127,1700419048
17,17,Jits_Phase_5,3,1,48,92,1700462316
17,17,Jits_Phase_5,4,1,48,63,1700485884
17,17,Jits_Phase_5,0,5,56,103,1700859316
17,17,Jits_Phase_5,1,5,63,98,1700862456
17,17,Jits_Phase_5,2,5,80,127,1700878876
17,17,Jits_Phase_5,3,1,48,86,1700959604
17,17,Jits_Phase_5,4,1,48,62,1700987600
17,17,Jits_Phase_5,5,1,48,47,1701012212
17,17,Jits_Phase_5,0,5,80,127,1701369296
17,17,Jits_Phase_5,1,5,56,103,1701378320
17,17,Jits_Phase_5,2,5,63,98,1701449044
17,17,Jits_Phase_5,3,1,48,90,1701457116
17,17,Jits_Phase_5,4,1,48,63,1701493560
17,17,Jits_Phase_5,5,1,48,47,1701521712
17,17,Jits_Phase_5,0,5,63,98,1701858640
17,17,Jits_Phase_5,1,5,56,103,1701879096
17,17,Jits_Phase_5,2,1,48,82,1701954828
17,17,Jits_Phase_5,3,5,80,127,1701958980
17,17,Jits_Phase_5,4,1,48,63,1701987636
17,17,Jits_Phase_5,0,5,56,103,1702368756
17,17,Jits_Phase_5,1,5,80,127,1702408792
17,17,Jits_Phase_5,2,5,63,98,1702418916
17,17,Jits_Phase_5,3,1,48,78,1702464800
17,17,Jits_Phase_5,4,1,48,58,1702495568
17,17,Jits_Phase_5,0,5,80,127,1702859108
17,17,Jits_Phase_5,1,5,63,98,1702888860
17,17,Jits_Phase_5,2,5,56,103,1702928744
17,17,Jits_Phase_5,3,1,48,88,1702935752
17,17,Jits_Phase_5,4,1,48,62,1702967436
17,17,Jits_Phase_5,5,1,48,47,1702994364
17,17,Jits_Phase_5,0,5,56,103,1703379388
17,17,Jits_Phase_5,1,1,48,73,1703409284
17,17,Jits_Phase_5,2,5,63,98,1703410548
17,17,Jits_Phase_5,3,1,48,60,1703434580
17,17,Jits_Phase_5,4,5,80,127,1703459108
17,17,Jits_Phase_5,0,5,80,127,1703878960
17,17,Jits_Phase_5,1,5,56,103,1703918896
17,17,Jits_Phase_5,2,1,48,71,1703919788
17,17,Jits_Phase_5,3,5,63,98,1703929160
17,17,Jits_Phase_5,4,1,48,60,1703945016
17,17,Jits_Phase_5,0,5,80,127,1704359576
17,17,Jits_Phase_5,1,1,48,75,1704389672
17,17,Jits_Phase_5,2,5,63,98,1704399208
17,17,Jits_Phase_5,3,5,56,103,1704458796
17,17,Jits_Phase_5,0,5,56,103,1704858964
17,17,Jits_Phase_5,1,5,80,127,1704869160
17,17,Jits_Phase_5,2,1,48,63,1704892580
17,17,Jits_Phase_5,3,1,48,50,1704915400
17,17,Jits_Phase_5,4,5,63,98,1704948996
17,17,Jits_Phase_5,0,5,80,127,1705358828
17,17,Jits_Phase_5,1,1,48,71,1705393408
17,17,Jits_Phase_5,2,1,48,54,1705420168
17,17,Jits_Phase_5,3,5,63,98,1705421280
17,17,Jits_Phase_5,4,5,56,103,1705448788
17,17,Jits_Phase_5,0,5,56,103,1705858620
17,17,Jits_Phase_5,1,1,48,73,1705916664
17,17,Jits_Phase_5,2,5,80,127,1705918780
17,17,Jits_Phase_5,3,1,48,58,1705946464
17,17,Jits_Phase_5,4,5,63,98,1705958696
17,17,Jits_Phase_5,0,5,56,103,1706409432
17,17,Jits_Phase_5,1,5,63,98,1706418960
17,17,Jits_Phase_5,2,5,80,127,1706422168
17,17,Jits_Phase_5,3,1,48,79,1706447696
17,17,Jits_Phase_5,4,1,48,61,1706479736
17,17,Jits_Phase_5,0,5,80,127,1706858724
17,17,Jits_Phase_5,1,1,48,86,1706920500
17,17,Jits_Phase_5,2,1,48,66,1706947392
17,17,Jits_Phase_5,3,5,63,98,1706948828
17,17,Jits_Phase_5,4,5,56,103,1706959172
17,17,Jits_Phase_5,0,5,56,103,1707358504
17,17,Jits_Phase_5,1,5,63,98,1707361900
17,17,Jits_Phase_5,2,5,80,127,1707364944
17,17,Jits_Phase_5,3,1,48,81,1707434736
17,17,Jits_Phase_5,4,1,48,62,1707460492
17,17,Jits_Phase_5,0,5,80,127,1707878664
17,17,Jits_Phase_5,1,1,48,83,1707918572
17,17,Jits_Phase_5,2,5,63,98,1707929008
17,17,Jits_Phase_5,3,1,48,65,1707942744
17,17,Jits_Phase_5,4,5,56,103,1707958584
17,17,Jits_Phase_5,0,5,56,103,1708359124
17,17,Jits_Phase_5,1,5,80,127,1708369692
17,17,Jits_Phase_5,2,1,48,85,1708417252
17,17,Jits_Phase_5,3,5,63,98,1708438992
17,17,Jits_Phase_5,4,1,48,65,1708441436
17,17,Jits_Phase_5,0,5,56,103,1708869036
17,17,Jits_Phase_5,1,5,63,98,1708888524
17,17,Jits_Phase_5,2,1,48,84,1708893956
17,17,Jits_Phase_5,3,1,48,68,1708915960
17,17,Jits_Phase_5,4,5,80,127,1708948804
17,17,Jits_Phase_5,0,5,80,127,1709349124
17,17,Jits_Phase_5,1,1,48,79,1709385572
17,17,Jits_Phase_5,2,1,48,63,1709407668
17,17,Jits_Phase_5,3,5,63,98,1709418924
17,17,Jits_Phase_5,4,5,56,103,1709439608
17,17,Jits_Phase_5,0,5,80,127,1709869744
17,17,Jits_Phase_5,1,5,56,103,1709878668
17,17,Jits_Phase_5,2,5,63,98,1709888864
17,17,Jits_Phase_5,3,1,48,78,1709898880
17,17,Jits_Phase_5,4,1,48,59,1709920280
17,17,Jits_Phase_5,0,5,80,127,1710358824
17,17,Jits_Phase_5,1,5,56,103,1710379732
17,17,Jits_Phase_5,2,1,48,84,1710397548
17,17,Jits_Phase_5,3,5,63,98,1710449028
17,17,Jits_Phase_5,0,5,56,103,1710868776
17,17,Jits_Phase_5,1,5,80,127,1710898600
17,17,Jits_Phase_5,2,1,48,72,1710902764
17,17,Jits_Phase_5,3,5,63,98,1710919052
17,17,Jits_Phase_5,4,1,48,55,1710923720
17,17,Jits_Phase_5,0,5,63,98,1711368496
17,17,Jits_Phase_5,1,1,48,84,1711410048
17,17,Jits_Phase_5,2,5,56,103,1711428952
17,17,Jits_Phase_5,3,1,48,64,1711431100
17,17,Jits_Phase_5,4,5,80,127,1711458604
17,17,Jits_Phase_5,0,5,63,98,1711859032
17,17,Jits_Phase_5,1,5,80,127,1711862320
17,17,Jits_Phase_5,2,1,48,80,1711923748
17,17,Jits_Phase_5,3,1,48,63,1711945752
17,17,Jits_Phase_5,4,5,56,103,1711949232
17,17,Jits_Phase_5,0,5,56,103,1712379480
17,17,Jits_Phase_5,1,5,63,98,1712408880
17,17,Jits_Phase_5,2,1,48,81,1712423308
17,17,Jits_Phase_5,3,1,48,62,1712445984
17,17,Jits_Phase_5,4,5,80,127,1712448864
17,17,Jits_Phase_5,0,5,63,98,1712878904
17,17,Jits_Phase_5,1,5,56,103,1712918944
17,17,Jits_Phase_5,2,1,48,88,1712922136
17,17,Jits_Phase_5,3,5,80,127,1712939616
17,17,Jits_Phase_5,4,1,48,74,1712941540
17,17,Jits_Phase_5,0,5,63,98,1713388872
17,17,Jits_Phase_5,1,5,56,103,1713428760
17,17,Jits_Phase_5,2,1,48,76,1713438732
17,17,Jits_Phase_5,3,5,80,127,1713440368
17,17,Jits_Phase_5,4,1,48,56,1713462280
17,17,Jits_Phase_5,0,5,80,127,1713869096
17,17,Jits_Phase_5,1,5,63,98,1713938876
17,17,Jits_Phase_5,2,1,48,72,1713947920
17,17,Jits_Phase_5,3,5,56,103,1713959400
17,17,Jits_Phase_5,4,1,48,59,1713969180
17,17,Jits_Phase_5,0,5,56,103,1714358628
17,17,Jits_Phase_5,1,5,80,127,1714379384
17,17,Jits_Phase_5,2,5,63,98,1714419172
17,17,Jits_Phase_5,3,1,48,74,1714463436
17,17,Jits_Phase_5,4,1,48,62,1714485208
17,17,Jits_Phase_5,0,5,63,98,1714868608
17,17,Jits_Phase_5,1,5,80,127,1714889068
17,17,Jits_Phase_5,2,5,56,103,1714929076
17,17,Jits_Phase_5,3,1,48,80,1714983380
17,17,Jits_Phase_5,0,5,63,98,1715369476
17,17,Jits_Phase_5,1,5,56,103,1715388816
17,17,Jits_Phase_5,2,5,80,127,1715399012
17,17,Jits_Phase_5,3,1,48,71,1715487408
17,17,Jits_Phase_5,4,1,48,61,1715506788
17,17,Jits_Phase_5,0,5,80,127,1715869104
17,17,Jits_Phase_5,1,5,56,103,1715888444
17,17,Jits_Phase_5,2,5,63,98,1715919312
17,17,Jits_Phase_5,3,1,48,73,1715961912
17,17,Jits_Phase_5,4,1,48,57,1715983856
17,17,Jits_Phase_5,0,5,56,103,1716439544
17,17,Jits_Phase_5,1,5,80,127,1716442460
17,17,Jits_Phase_5,2,1,48,78,1716453672
17,17,Jits_Phase_5,3,5,63,98,1716458800
17,17,Jits_Phase_5,4,1,48,60,1716476280
17,17,Jits_Phase_5,0,5,63,98,1716859248
17,17,Jits_Phase_5,1,5,56,103,1716888924
17,17,Jits_Phase_5,2,5,80,127,1716949532
17,17,Jits_Phase_5,3,1,48,84,1716985456
17,17,Jits_Phase_5,4,1,48,62,1717011088
17,17,Jits_Phase_5,0,5,63,98,1717438816
17,17,Jits_Phase_5,1,5,56,103,1717449236
17,17,Jits_Phase_5,2,5,80,127,1717459504
17,17,Jits_Phase_5,3,1,48,81,1717491388
17,17,Jits_Phase_5,4,1,48,62,1717524272
17,17,Jits_Phase_5,0,5,56,103,1717898748
17,17,Jits_Phase_5,1,5,80,127,1717929244
17,17,Jits_Phase_5,2,5,63,98,1717938616
17,17,Jits_Phase_5,3,1,48,71,1718025428
17,17,Jits_Phase_5,4,1,48,57,1718050656
17,17,Jits_Phase_5,0,5,63,98,1718439448
17,17,Jits_Phase_5,1,1,48,65,1718445856
17,17,Jits_Phase_5,2,5,56,103,1718448588
17,17,Jits_Phase_5,3,1,48,55,1718467980
17,17,Jits_Phase_5,4,5,80,127,1718469176
17,17,Jits_Phase_5,0,5,56,103,1718869332
17,17,Jits_Phase_5,1,5,63,98,1718928744
17,17,Jits_Phase_5,2,5,80,127,1718932184
17,17,Jits_Phase_5,3,1,48,66,1718961452
17,17,Jits_Phase_5,0,5,80,127,1719388488
17,17,Jits_Phase_5,1,5,56,103,1719398760
17,17,Jits_Phase_5,2,1,48,71,1719435584
17,17,Jits_Phase_5,3,1,48,58,1719459992
17,17,Jits_Phase_5,4,5,63,98,1719469456
17,17,Jits_Phase_5,0,5,80,127,1719878968
17,17,Jits_Phase_5,1,1,48,72,1719946056
17,17,Jits_Phase_5,2,5,56,103,1719948640
17,17,Jits_Phase_5,3,5,63,98,1719958912
17,17,Jits_Phase_5,4,1,48,54,1719969360
17,17,Jits_Phase_5,0,5,63,98,1720418552
17,17,Jits_Phase_5,1,5,56,103,1720428820
17,17,Jits_Phase_5,2,5,80,127,1720449428
17,17,Jits_Phase_5,3,1,48,73,1720452548
17,17,Jits_Phase_5,4,1,48,58,1720477780
17,17,Jits_Phase_5,0,5,80,127,1720869256
17,17,Jits_Phase_5,1,5,63,98,1720928676
17,17,Jits_Phase_5,2,1,48,70,1720960340
17,17,Jits_Phase_5,3,5,56,103,1720968528
17,17,Jits_Phase_5,4,1,48,55,1720985480
17,17,Jits_Phase_5,0,5,56,103,1721408984
17,17,Jits_Phase_5,1,5,63,98,1721419328
17,17,Jits_Phase_5,2,1,48,71,1721453836
17,17,Jits_Phase_5,3,5,80,127,1721459332
17,17,Jits_Phase_5,4,1,48,56,1721479520
17,17,Jits_Phase_5,0,5,56,103,1721868620
17,17,Jits_Phase_5,1,5,80,127,1721899344
17,17,Jits_Phase_5,2,5,63,98,1721948496
17,17,Jits_Phase_5,3,1,48,73,1721977684
17,17,Jits_Phase_5,4,1,48,54,1722000732
17,17,Jits_Phase_5,0,5,56,103,1722409392
17,17,Jits_Phase_5,1,5,63,98,1722449404
17,17,Jits_Phase_5,2,1,48,70,1722450540
17,17,Jits_Phase_5,3,5,80,127,1722453732
17,17,Jits_Phase_5,4,1,48,57,1722472504
17,17,Jits_Phase_5,0,5,56,103,1722919148
17,17,Jits_Phase_5,1,5,63,98,1722928592
17,17,Jits_Phase_5,2,5,80,127,1722949200
17,17,Jits_Phase_5,3,1,48,68,1722952096
17,17,Jits_Phase_5,4,1,48,56,1722977404
17,17,Jits_Phase_5,0,5,56,103,1723379128
17,17,Jits_Phase_5,1,5,80,127,1723382268
17,17,Jits_Phase_5,2,5,63,98,1723419092
17,17,Jits_Phase_5,3,1,48,72,1723462284
17,17,Jits_Phase_5,4,1,48,60,1723484360
17,17,Jits_Phase_5,0,5,63,98,1723918572
17,17,Jits_Phase_5,1,1,48,65,1723931880
17,17,Jits_Phase_5,2,5,56,103,1723949364
17,17,Jits_Phase_5,3,1,48,52,1723954412
17,17,Jits_Phase_5,4,5,80,127,1723968828
17,17,Jits_Phase_5,0,5,80,127,1724388664
17,17,Jits_Phase_5,1,5,56,103,1724399232
17,17,Jits_Phase_5,2,5,63,98,1724409204
17,17,Jits_Phase_5,3,1,48,63,1724442232
17,17,Jits_Phase_5,4,1,48,51,1724464160
17,17,Jits_Phase_5,0,5,56,103,1724888380
17,17,Jits_Phase_5,1,5,80,127,1724929388
17,17,Jits_Phase_5,2,1,48,65,1724938952
17,17,Jits_Phase_5,3,5,63,98,1724959280
17,17,Jits_Phase_5,4,1,48,50,1724961724
17,17,Jits_Phase_5,0,5,63,98,1725399328
17,17,Jits_Phase_5,1,1,48,61,1725405512
17,17,Jits_Phase_5,2,5,80,127,1725408616
17,17,Jits_Phase_5,3,5,56,103,1725418888
17,17,Jits_Phase_5,0,5,56,103,1725889108
17,17,Jits_Phase_5,1,1,48,60,1725908340
17,17,Jits_Phase_5,2,5,63,98,1725958432
17,17,Jits_Phase_5,3,5,80,127,1725968776
17,17,Jits_Phase_5,0,5,80,127,1726399128
17,17,Jits_Phase_5,1,5,56,103,1726409248
17,17,Jits_Phase_5,2,1,48,67,1726412588
17,17,Jits_Phase_5,3,1,48,54,1726435188
17,17,Jits_Phase_5,4,5,63,98,1726459196
17,17,Jits_Phase_5,0,5,80,127,1726908812
17,17,Jits_Phase_5,1,1,48,61,1726926604
17,17,Jits_Phase_5,2,5,56,103,1726969192
17,17,Jits_Phase_5,3,5,63,98,1726999040
17,17,Jits_Phase_5,0,5,56,103,1727408424
17,17,Jits_Phase_5,1,5,80,127,1727411488
17,17,Jits_Phase_5,2,1,48,64,1727434236
17,17,Jits_Phase_5,3,5,63,98,1727448576
17,17,Jits_Phase_5,0,1,48,59,1727919460
17,17,Jits_Phase_5,1,5,56,103,1727938888
17,17,Jits_Phase_5,2,5,63,98,1727968560
17,17,Jits_Phase_5,3,5,80,127,1727978832
17,17,Jits_Phase_5,0,1,48,65,1728419288
17,17,Jits_Phase_5,1,5,63,98,1728449052
17,17,Jits_Phase_5,2,5,80,127,1728459172
17,17,Jits_Phase_5,3,5,56,103,1728469296
17,17,Jits_Phase_5,0,5,80,127,1728898464
17,17,Jits_Phase_5,1,1,48,61,1728938820
17,17,Jits_Phase_5,2,5,56,103,1728948584
17,17,Jits_Phase_5,3,5,63,98,1728951724
17,17,Jits_Phase_5,0,5,56,103,1729428928
17,17,Jits_Phase_5,1,5,80,127,1729449240
17,17,Jits_Phase_5,2,1,48,67,1729453256
17,17,Jits_Phase_5,3,5,63,98,1729458680
17,17,Jits_Phase_5,0,5,63,98,1729909064
17,17,Jits_Phase_5,1,5,56,103,1729938964
17,17,Jits_Phase_5,2,1,48,76,1729954288
17,17,Jits_Phase_5,3,5,80,127,1729959192
17,17,Jits_Phase_5,4,1,48,62,1729974124
17,17,Jits_Phase_5,0,5,56,103,1730419032
17,17,Jits_Phase_5,1,5,80,127,1730429156
17,17,Jits_Phase_5,2,1,48,79,1730452724
17,17,Jits_Phase_5,3,1,48,62,1730472848
17,17,Jits_Phase_5,4,5,63,98,1730499028
17,17,Jits_Phase_5,0,5,63,98,1730908568
17,17,Jits_Phase_5,1,5,80,127,1730948504
17,17,Jits_Phase_5,2,1,48,86,1730965472
17,17,Jits_Phase_5,3,5,56,103,1730989404
17,17,Jits_Phase_5,4,1,48,68,1730991328
17,17,Jits_Phase_5,0,5,56,103,1731418460
17,17,Jits_Phase_5,1,5,63,98,1731428876
17,17,Jits_Phase_5,2,5,80,127,1731449112
17,17,Jits_Phase_5,3,1,48,96,1731451124
17,17,Jits_Phase_5,4,1,48,76,1731470492
17,17,Jits_Phase_5,0,1,48,90,1731933864
17,17,Jits_Phase_5,1,1,48,66,1731956936
17,17,Jits_Phase_5,2,5,63,98,1731959052
17,17,Jits_Phase_5,3,5,80,127,1731978464
17,17,Jits_Phase_5,4,5,56,103,1731999068
17,17,Jits_Phase_5,0,5,56,103,1732398552
17,17,Jits_Phase_5,1,1,48,89,1732464592
17,17,Jits_Phase_5,2,5,80,127,1732479460
17,17,Jits_Phase_5,3,1,48,65,1732487152
17,17,Jits_Phase_5,4,5,63,98,1732488440
17,17,Jits_Phase_5,0,5,80,127,1732939104
17,17,Jits_Phase_5,1,5,63,98,1732949448
17,17,Jits_Phase_5,2,1,48,82,1732951008
17,17,Jits_Phase_5,3,1,48,57,1732974192
17,17,Jits_Phase_5,4,5,56,103,1732979020
17,17,Jits_Phase_5,0,5,63,98,1733399112
17,17,Jits_Phase_5,1,5,80,127,1733438980
17,17,Jits_Phase_5,2,1,48,83,1733457988
17,17,Jits_Phase_5,3,1,48,59,1733478416
17,17,Jits_Phase_5,4,5,56,103,1733499112
17,17,Jits_Phase_5,0,5,63,98,1733909008
17,17,Jits_Phase_5,1,1,48,83,1733937760
17,17,Jits_Phase_5,2,5,56,103,1733959132
17,17,Jits_Phase_5,3,5,80,127,1733988656
17,17,Jits_Phase_5,0,5,80,127,1734408540
17,17,Jits_Phase_5,1,5,63,98,1734419108
17,17,Jits_Phase_5,2,1,48,85,1734432940
17,17,Jits_Phase_5,3,1,48,58,1734455908
17,17,Jits_Phase_5,4,5,56,103,1734488384
17,17,Jits_Phase_5,0,1,48,89,1734952276
17,17,Jits_Phase_5,1,5,80,127,1734968860
17,17,Jits_Phase_5,2,1,48,60,1734975400
17,17,Jits_Phase_5,3,5,56,103,1734979032
17,17,Jits_Phase_5,4,5,63,98,1734982024
17,17,Jits_Phase_5,0,5,56,103,1735408984
17,17,Jits_Phase_5,1,5,80,127,1735428420
17,17,Jits_Phase_5,2,5,63,98,1735438692
17,17,Jits_Phase_5,3,1,48,84,1735480464
17,17,Jits_Phase_5,4,1,48,63,1735505004
17,17,Jits_Phase_5,0,5,63,98,1735919040
17,17,Jits_Phase_5,1,5,56,103,1735959004
17,17,Jits_Phase_5,2,5,80,127,1735979236
17,17,Jits_Phase_5,3,1,48,84,1735981828
17,17,Jits_Phase_5,4,1,48,65,1736004352
17,17,Jits_Phase_5,0,1,48,41,1736200016
17,17,Jits_Phase_5,1,5,63,98,1736418944
17,17,Jits_Phase_5,2,1,48,81,1736469964
17,17,Jits_Phase_5,3,5,56,103,1736479204
17,17,Jits_Phase_5,4,5,80,127,1736482268
17,17,Jits_Phase_5,5,1,48,59,1736491076
17,17,Jits_Phase_5,0,5,56,103,1736878400
17,17,Jits_Phase_5,1,5,80,127,1736898784
17,17,Jits_Phase_5,2,5,63,98,1736939092
17,17,Jits_Phase_5,3,1,48,65,1736987788
17,17,Jits_Phase_5,0,5,56,103,1737408872
17,17,Jits_Phase_5,1,5,63,98,1737429332
17,17,Jits_Phase_5,2,5,80,127,1737438552
17,17,Jits_Phase_5,3,1,48,70,1737508816
17,17,Jits_Phase_5,0,5,80,127,1737878964
17,17,Jits_Phase_5,1,5,56,103,1737908788
17,17,Jits_Phase_5,2,5,63,98,1737948576
17,17,Jits_Phase_5,3,1,48,76,1738040712
17,17,Jits_Phase_5,0,5,80,127,1738388840
17,17,Jits_Phase_5,1,5,56,103,1738409300
17,17,Jits_Phase_5,2,5,63,98,1738468936
17,17,Jits_Phase_5,3,1,48,72,1738562720
17,17,Jits_Phase_5,4,1,48,56,1738584268
17,17,Jits_Phase_5,0,1,48,40,1738805264
17,17,Jits_Phase_5,1,5,56,103,1738898796
17,17,Jits_Phase_5,2,5,80,127,1738919240
17,17,Jits_Phase_5,3,5,63,98,1738978876
17,17,Jits_Phase_5,4,1,48,68,1739071912
17,17,Jits_Phase_5,0,5,80,127,1739379104
17,17,Jits_Phase_5,1,5,56,103,1739389372
17,17,Jits_Phase_5,2,5,63,98,1739429236
17,17,Jits_Phase_5,3,1,48,79,1739594328
17,17,Jits_Phase_5,0,5,63,98,1739878920
17,17,Jits_Phase_5,1,5,56,103,1739918856
17,17,Jits_Phase_5,2,5,80,127,1739921996
17,17,Jits_Phase_5,3,1,48,80,1740107480
17,17,Jits_Phase_5,0,5,63,98,1740398884
17,17,Jits_Phase_5,1,5,80,127,1740438824
17,17,Jits_Phase_5,2,5,56,103,1740468720
17,17,Jits_Phase_5,3,1,48,64,1740632244
17,17,Jits_Phase_5,0,5,56,103,1740888372
17,17,Jits_Phase_5,1,5,63,98,1740898644
17,17,Jits_Phase_5,2,1,48,32,1740901540
17,17,Jits_Phase_5,3,5,80,127,1740929432
17,17,Jits_Phase_5,4,1,48,65,1741160212
17,17,Jits_Phase_5,0,5,80,127,1741378872
17,17,Jits_Phase_5,1,5,63,98,1741448700
17,17,Jits_Phase_5,2,5,56,103,1741458672
17,17,Jits_Phase_5,0,1,48,65,1741705388
17,17,Jits_Phase_5,1,5,63,98,1741878800
17,17,Jits_Phase_5,2,5,56,103,1741949376
17,17,Jits_Phase_5,3,5,80,127,1741958676
17,17,Jits_Phase_5,0,1,48,61,1742205736
17,17,Jits_Phase_5,1,5,63,98,1742358848
17,17,Jits_Phase_5,2,5,56,103,1742379232
17,17,Jits_Phase_5,3,5,80,127,1742419168
17,17,Jits_Phase_5,0,1,48,62,1742704292
17,17,Jits_Phase_5,1,5,56,103,1742839092
17,17,Jits_Phase_5,2,5,63,98,1742849536
17,17,Jits_Phase_5,3,5,80,127,1742929400
17,17,Jits_Phase_5,0,1,48,67,1743290432
17,17,Jits_Phase_5,1,5,63,98,1743328596
17,17,Jits_Phase_5,2,5,56,103,1743359268
17,17,Jits_Phase_5,3,5,80,127,1743399260
17,17,Jits_Phase_5,0,5,56,103,1743829320
17,17,Jits_Phase_5,1,1,48,68,1743853556
17,17,Jits_Phase_5,2,1,48,61,1743870432
17,17,Jits_Phase_5,3,5,63,98,1743871324
17,17,Jits_Phase_5,4,5,80,127,1743909092
17,17,Jits_Phase_5,0,5,80,127,1744329016
17,17,Jits_Phase_5,1,1,48,68,1744353852
17,17,Jits_Phase_5,2,1,48,55,1744373756
17,17,Jits_Phase_5,3,5,56,103,1744408880
17,17,Jits_Phase_5,4,5,63,98,1744419148
17,17,Jits_Phase_5,0,5,56,103,1744868808
17,17,Jits_Phase_5,1,5,63,98,1744871724
17,17,Jits_Phase_5,2,5,80,127,1744879076
17,17,Jits_Phase_5,3,1,48,72,1744902144
17,17,Jits_Phase_5,4,1,48,48,1744954484
17,17,Jits_Phase_5,5,1,48,29,1744999492
17,17,Jits_Phase_5,0,5,56,103,1745388860
17,17,Jits_Phase_5,1,5,63,98,1745409492
17,17,Jits_Phase_5,2,5,80,127,1745418712
17,17,Jits_Phase_5,3,1,48,77,1745429252
17,17,Jits_Phase_5,4,1,48,58,1745456504
17,17,Jits_Phase_5,0,5,63,98,1745848648
17,17,Jits_Phase_5,1,5,80,127,1745859068
17,17,Jits_Phase_5,2,5,56,103,1745879452
17,17,Jits_Phase_5,3,1,48,63,1745958780
17,17,Jits_Phase_5,4,1,48,45,1745997344
17,17,Jits_Phase_5,0,5,63,98,1746349548
17,17,Jits_Phase_5,1,5,56,103,1746429412
17,17,Jits_Phase_5,2,5,80,127,1746432628
17,17,Jits_Phase_5,3,1,48,75,1746440552
17,17,Jits_Phase_5,4,1,48,63,1746481356
17,17,Jits_Phase_5,5,1,48,47,1746509720
17,17,Jits_Phase_5,0,5,63,98,1746849260
17,17,Jits_Phase_5,1,5,56,103,1746868820
17,17,Jits_Phase_5,2,5,80,127,1746899244
17,17,Jits_Phase_5,3,1,48,72,1746923480
17,17,Jits_Phase_5,4,1,48,53,1746952996
17,17,Jits_Phase_5,0,5,56,103,1747348964
17,17,Jits_Phase_5,1,5,63,98,1747369424
17,17,Jits_Phase_5,2,5,80,127,1747378648
17,17,Jits_Phase_5,3,1,48,78,1747386404
17,17,Jits_Phase_5,4,1,48,59,1747415892
17,17,Jits_Phase_5,0,1,48,82,1747886796
17,17,Jits_Phase_5,1,5,56,103,1747888536
17,17,Jits_Phase_5,2,1,48,62,1747913360
17,17,Jits_Phase_5,3,5,63,98,1747919080
17,17,Jits_Phase_5,4,5,80,127,1747922520
17,17,Jits_Phase_5,0,5,56,103,1748339020
17,17,Jits_Phase_5,1,5,63,98,1748379104
17,17,Jits_Phase_5,2,1,48,87,1748393308
17,17,Jits_Phase_5,3,1,48,61,1748419740
17,17,Jits_Phase_5,4,5,80,127,1748439540
17,17,Jits_Phase_5,0,5,56,103,1748859192
17,17,Jits_Phase_5,1,5,63,98,1748868716
17,17,Jits_Phase_5,2,1,48,89,1748900752
17,17,Jits_Phase_5,3,5,80,127,1748928948
17,17,Jits_Phase_5,4,1,48,62,1748930948
17,17,Jits_Phase_5,0,5,56,103,1749358916
17,17,Jits_Phase_5,1,5,80,127,1749378628
17,17,Jits_Phase_5,2,5,63,98,1749409200
17,17,Jits_Phase_5,3,1,48,81,1749423996
17,17,Jits_Phase_5,4,1,48,59,1749449676
17,17,Jits_Phase_5,0,5,80,127,1749858564
17,17,Jits_Phase_5,1,5,56,103,1749868908
17,17,Jits_Phase_5,2,5,63,98,1749889588
17,17,Jits_Phase_5,3,1,48,88,1749935328
17,17,Jits_Phase_5,4,1,48,64,1749961528
17,17,Jits_Phase_5,0,5,63,98,1750349284
17,17,Jits_Phase_5,1,1,48,93,1750403868
17,17,Jits_Phase_5,2,5,80,127,1750429296
17,17,Jits_Phase_5,3,1,48,57,1750433224
17,17,Jits_Phase_5,4,5,56,103,1750439396
17,17,Jits_Phase_5,5,1,48,44,1750458912
17,17,Jits_Phase_5,0,1,48,89,1750912456
17,17,Jits_Phase_5,1,5,80,127,1750938932
17,17,Jits_Phase_5,2,1,48,55,1750946744
17,17,Jits_Phase_5,3,5,56,103,1750958468
17,17,Jits_Phase_5,4,5,63,98,1750961536
17,17,Jits_Phase_5,0,5,63,98,1751428596
17,17,Jits_Phase_5,1,5,80,127,1751431884
17,17,Jits_Phase_5,2,1,48,91,1751435004
17,17,Jits_Phase_5,3,1,48,66,1751461212
17,17,Jits_Phase_5,4,1,48,51,1751482236
17,17,Jits_Phase_5,5,5,56,103,1751488932
17,17,Jits_Phase_5,0,5,56,103,1751908632
17,17,Jits_Phase_5,1,5,80,127,1751918824
17,17,Jits_Phase_5,2,5,63,98,1751958760
17,17,Jits_Phase_5,3,1,48,86,1751973112
17,17,Jits_Phase_5,4,1,48,64,1751998416
17,17,Jits_Phase_5,0,5,56,103,1752388868
17,17,Jits_Phase_5,1,5,63,98,1752449480
17,17,Jits_Phase_5,2,5,80,127,1752458556
17,17,Jits_Phase_5,3,1,48,69,1752469388
17,17,Jits_Phase_5,4,1,48,55,1752490348
17,17,Jits_Phase_5,0,5,63,98,1752898928
17,17,Jits_Phase_5,1,5,80,127,1752938792
17,17,Jits_Phase_5,2,1,48,90,1752958472
17,17,Jits_Phase_5,3,1,48,66,1752978780
17,17,Jits_Phase_5,4,5,56,103,1752979896
17,17,Jits_Phase_5,0,5,56,103,1753398784
17,17,Jits_Phase_5,1,1,48,87,1753458392
17,17,Jits_Phase_5,2,1,48,66,1753477864
17,17,Jits_Phase_5,3,5,63,98,1753479152
17,17,Jits_Phase_5,4,5,80,127,1753482508
17,17,Jits_Phase_5,0,5,80,127,1753958880
17,17,Jits_Phase_5,1,1,48,84,1753981776
17,17,Jits_Phase_5,2,5,56,103,1753988320
17,17,Jits_Phase_5,3,5,63,98,1753991316
17,17,Jits_Phase_5,4,1,48,63,1754007016
17,17,Jits_Phase_5,0,5,56,103,1754418516
17,17,Jits_Phase_5,1,5,80,127,1754439048
17,17,Jits_Phase_5,2,5,63,98,1754479136
17,17,Jits_Phase_5,3,1,48,80,1754516944
17,17,Jits_Phase_5,4,1,48,59,1754542608
17,17,Jits_Phase_5,0,5,80,127,1754898980
17,17,Jits_Phase_5,1,5,63,98,1754919364
17,17,Jits_Phase_5,2,5,56,103,1754978628
17,17,Jits_Phase_5,3,1,48,81,1755015972
17,17,Jits_Phase_5,4,1,48,61,1755041648
17,17,Jits_Phase_5,0,5,63,98,1755408740
17,17,Jits_Phase_5,1,5,56,103,1755418936
17,17,Jits_Phase_5,2,5,80,127,1755469432
17,17,Jits_Phase_5,3,1,48,99,1755502888
17,17,Jits_Phase_5,4,1,48,73,1755527596
17,17,Jits_Phase_5,0,5,56,103,1755899424
17,17,Jits_Phase_5,1,5,63,98,1755918708
17,17,Jits_Phase_5,2,5,80,127,1755928900
17,17,Jits_Phase_5,3,1,48,86,1756007764
17,17,Jits_Phase_5,4,1,48,60,1756036880
17,17,Jits_Phase_5,0,5,56,103,1756388652
17,17,Jits_Phase_5,1,5,63,98,1756391716
17,17,Jits_Phase_5,2,5,80,127,1756409404
17,17,Jits_Phase_5,3,1,48,86,1756525356
17,17,Jits_Phase_5,4,1,48,64,1756551636
17,17,Jits_Phase_5,0,5,63,98,1756929360
17,17,Jits_Phase_5,1,5,56,103,1756959256
17,17,Jits_Phase_5,2,5,80,127,1756988708
17,17,Jits_Phase_5,3,1,48,93,1757045156
17,17,Jits_Phase_5,4,1,48,66,1757071436
17,17,Jits_Phase_5,0,5,80,127,1757389260
17,17,Jits_Phase_5,1,5,56,103,1757479412
17,17,Jits_Phase_5,2,5,63,98,1757482332
17,17,Jits_Phase_5,3,1,48,94,1757494960
17,17,Jits_Phase_5,4,1,48,70,1757519596
17,17,Jits_Phase_5,0,5,56,103,1757888736
17,17,Jits_Phase_5,1,5,80,127,1757891880
17,17,Jits_Phase_5,2,1,48,104,1757951884
17,17,Jits_Phase_5,3,5,63,98,1757968696
17,17,Jits_Phase_5,4,1,48,71,1757978848
17,17,Jits_Phase_5,0,5,80,127,1758388460
17,17,Jits_Phase_5,1,5,63,98,1758449148
17,17,Jits_Phase_5,2,1,48,89,1758478400
17,17,Jits_Phase_5,3,5,56,103,1758480108
17,17,Jits_Phase_5,4,1,48,68,1758503588
17,17,Jits_Phase_5,0,5,63,98,1758889304
17,17,Jits_Phase_5,1,5,80,127,1758898604
17,17,Jits_Phase_5,2,1,48,81,1758961052
17,17,Jits_Phase_5,3,5,56,103,1758969320
17,17,Jits_Phase_5,4,1,48,60,1758993868
17,17,Jits_Phase_5,0,5,56,103,1759448572
17,17,Jits_Phase_5,1,1,48,92,1759454384
17,17,Jits_Phase_5,2,1,48,65,1759477532
17,17,Jits_Phase_5,3,5,80,127,1759479336
17,17,Jits_Phase_5,4,5,63,98,1759529412
17,17,Jits_Phase_5,0,1,48,88,1759959268
17,17,Jits_Phase_5,1,1,48,59,1759983356
17,17,Jits_Phase_5,2,5,63,98,1760048452
17,17,Jits_Phase_5,3,5,56,103,1760079168
17,17,Jits_Phase_5,4,5,80,127,1760083116
17,17,Jits_Phase_5,0,1,48,83,1760478820
17,17,Jits_Phase_5,1,1,48,65,1760499176
17,17,Jits_Phase_5,2,5,63,98,1760549344
17,17,Jits_Phase_5,3,5,80,127,1760568684
17,17,Jits_Phase_5,4,5,56,103,1760578876
17,17,Jits_Phase_5,0,1,48,74,1761023272
17,17,Jits_Phase_5,1,1,48,57,1761043704
17,17,Jits_Phase_5,2,5,56,103,1761059164
17,17,Jits_Phase_5,3,5,63,98,1761062452
17,17,Jits_Phase_5,4,5,80,127,1761078576
17,17,Jits_Phase_5,5,1,48,47,1761282980
17,17,Jits_Phase_5,0,5,56,103,1761508712
17,17,Jits_Phase_5,1,5,63,98,1761519056
17,17,Jits_Phase_5,2,5,80,127,1761548684
17,17,Jits_Phase_5,3,1,48,81,1761563036
17,17,Jits_Phase_5,4,1,48,68,1761579128
17,17,Jits_Phase_5,0,5,63,98,1762029180
17,17,Jits_Phase_5,1,5,80,127,1762049368
17,17,Jits_Phase_5,2,1,48,59,1762060580
17,17,Jits_Phase_5,3,5,56,103,1762089220
17,17,Jits_Phase_5,0,1,48,70,1762550616
17,17,Jits_Phase_5,1,5,56,103,1762559360
17,17,Jits_Phase_5,2,1,48,60,1762570556
17,17,Jits_Phase_5,3,5,63,98,1762599272
17,17,Jits_Phase_5,4,5,80,127,1762602560
17,17,Jits_Phase_5,0,5,80,127,1762998580
17,17,Jits_Phase_5,1,5,56,103,1763038668
17,17,Jits_Phase_5,2,1,48,55,1763075516
17,17,Jits_Phase_5,3,5,63,98,1763088736
17,17,Jits_Phase_5,0,1,48,46,1763344416
17,17,Jits_Phase_5,1,5,56,103,1763558704
17,17,Jits_Phase_5,2,5,80,127,1763569124
17,17,Jits_Phase_5,3,1,48,57,1763589728
17,17,Jits_Phase_5,4,5,63,98,1763598744
17,17,Jits_Phase_5,0,5,56,103,1764009288
17,17,Jits_Phase_5,1,5,80,127,1764049376
17,17,Jits_Phase_5,2,1,48,72,1764070028
17,17,Jits_Phase_5,3,5,63,98,1764098400
17,17,Jits_Phase_5,0,5,56,103,1764509124
17,17,Jits_Phase_5,1,1,48,70,1764548088
17,17,Jits_Phase_5,2,5,80,127,1764549656
17,17,Jits_Phase_5,3,1,48,61,1764567376
17,17,Jits_Phase_5,4,5,63,98,1764599232
17,17,Jits_Phase_5,0,5,80,127,1764998432
17,17,Jits_Phase_5,1,1,48,79,1765061036
17,17,Jits_Phase_5,2,5,63,98,1765079268
17,17,Jits_Phase_5,3,1,48,63,1765081188
17,17,Jits_Phase_5,4,5,56,103,1765088616
17,17,Jits_Phase_5,0,5,80,127,1765549468
17,17,Jits_Phase_5,1,1,48,60,1765557940
17,17,Jits_Phase_5,2,5,56,103,1765559436
17,17,Jits_Phase_5,3,5,63,98,1765579068
17,17,Jits_Phase_5,0,5,63,98,1766018372
17,17,Jits_Phase_5,1,1,48,71,1766066672
17,17,Jits_Phase_5,2,5,56,103,1766089012
17,17,Jits_Phase_5,3,5,80,127,1766092080
17,17,Jits_Phase_5,0,5,80,127,1766508972
17,17,Jits_Phase_5,1,1,48,61,1766534188
17,17,Jits_Phase_5,2,1,48,52,1766556112
17,17,Jits_Phase_5,3,5,63,98,1766559296
17,17,Jits_Phase_5,4,5,56,103,1766599232
17,17,Jits_Phase_5,0,5,63,98,1767048552
17,17,Jits_Phase_5,1,1,48,69,1767076828
17,17,Jits_Phase_5,2,5,56,103,1767088480
17,17,Jits_Phase_5,3,5,80,127,1767098604
17,17,Jits_Phase_5,0,5,63,98,1767539160
17,17,Jits_Phase_5,1,5,56,103,1767558500
17,17,Jits_Phase_5,2,1,48,73,1767573000
17,17,Jits_Phase_5,3,5,80,127,1767579024
17,17,Jits_Phase_5,4,1,48,55,1767596056
17,17,Jits_Phase_5,0,5,80,127,1767999012
17,17,Jits_Phase_5,1,5,56,103,1768009056
17,17,Jits_Phase_5,2,5,63,98,1768028396
17,17,Jits_Phase_5,3,1,48,73,1768064912
17,17,Jits_Phase_5,4,1,48,55,1768087904
17,17,Jits_Phase_5,0,1,48,78,1768526032
17,17,Jits_Phase_5,1,5,63,98,1768529212
17,17,Jits_Phase_5,2,1,48,62,1768548728
17,17,Jits_Phase_5,3,5,56,103,1768569052
17,17,Jits_Phase_5,4,5,80,127,1768599100
17,17,Jits_Phase_5,0,5,56,103,1768989144
17,17,Jits_Phase_5,1,5,63,98,1769018820
17,17,Jits_Phase_5,2,1,48,84,1769041120
17,17,Jits_Phase_5,3,5,80,127,1769048340
17,17,Jits_Phase_5,4,1,48,62,1769072336
17,17,Jits_Phase_5,5,1,48,51,1769096128
17,17,Jits_Phase_5,0,5,80,127,1769408868
17,17,Jits_Phase_5,1,5,56,103,1769478416
17,17,Jits_Phase_5,2,5,63,98,1769481860
17,17,Jits_Phase_5,3,1,48,81,1769511800
17,17,Jits_Phase_5,4,1,48,59,1769538080
17,17,Jits_Phase_5,0,5,56,103,1769918992
17,17,Jits_Phase_5,1,5,63,98,1769969044
17,17,Jits_Phase_5,2,5,80,127,1769998668
17,17,Jits_Phase_5,3,1,48,78,1770050404
17,17,Jits_Phase_5,4,1,48,67,1770074496
17,17,Jits_Phase_5,0,5,63,98,1770399084
17,17,Jits_Phase_5,1,5,80,127,1770402448
17,17,Jits_Phase_5,2,5,56,103,1770458572
17,17,Jits_Phase_5,3,1,48,84,1770507420
17,17,Jits_Phase_5,4,1,48,65,1770536892
17,17,Jits_Phase_5,5,1,48,52,1770557864
17,17,Jits_Phase_5,0,5,56,103,1770928484
17,17,Jits_Phase_5,1,5,80,127,1770938976
17,17,Jits_Phase_5,2,1,48,100,1770966824
17,17,Jits_Phase_5,3,5,63,98,1770989020
17,17,Jits_Phase_5,4,1,48,66,1770993540
17,17,Jits_Phase_5,0,5,63,98,1771398396
17,17,Jits_Phase_5,1,5,56,103,1771408740
17,17,Jits_Phase_5,2,5,80,127,1771438488
17,17,Jits_Phase_5,3,1,48,89,1771449776
17,17,Jits_Phase_5,4,1,48,49,1771488032
17,17,Jits_Phase_5,0,5,63,98,1771929108
17,17,Jits_Phase_5,1,5,80,127,1771932320
17,17,Jits_Phase_5,2,1,48,86,1771943832
17,17,Jits_Phase_5,3,5,56,103,1771958700
17,17,Jits_Phase_5,4,1,48,52,1771979788
17,17,Jits_Phase_5,0,1,48,80,1772440460
17,17,Jits_Phase_5,1,5,63,98,1772449176
17,17,Jits_Phase_5,2,5,56,103,1772468736
17,17,Jits_Phase_5,3,5,80,127,1772471728
17,17,Jits_Phase_5,4,1,48,35,1772518892
17,17,Jits_Phase_5,0,5,63,98,1772909176
17,17,Jits_Phase_5,1,1,48,102,1772959420
17,17,Jits_Phase_5,2,5,56,103,1772978700
17,17,Jits_Phase_5,3,5,80,127,1772999084
17,17,Jits_Phase_5,4,1,48,45,1773001600
17,17,Jits_Phase_5,0,5,56,103,1773399824
17,17,Jits_Phase_5,1,5,63,98,1773408752
17,17,Jits_Phase_5,2,1,48,89,1773441684
17,17,Jits_Phase_5,3,1,48,42,1773485560
17,17,Jits_Phase_5,4,5,80,127,1773498924
17,17,Jits_Phase_5,0,5,56,103,1773918656
17,17,Jits_Phase_5,1,1,48,90,1773932332
17,17,Jits_Phase_5,2,5,80,127,1773958364
17,17,Jits_Phase_5,3,1,48,45,1773968012
17,17,Jits_Phase_5,4,5,63,98,1773969280
17,17,Jits_Phase_5,0,1,48,77,1774422980
17,17,Jits_Phase_5,1,5,56,103,1774438972
17,17,Jits_Phase_5,2,5,63,98,1774468572
17,17,Jits_Phase_5,3,5,80,127,1774499140
17,17,Jits_Phase_5,0,5,80,127,1774898424
17,17,Jits_Phase_5,1,5,63,98,1774938436
17,17,Jits_Phase_5,2,1,48,78,1774940372
17,17,Jits_Phase_5,3,5,56,103,1774958888
17,17,Jits_Phase_5,0,5,56,103,1775439164
17,17,Jits_Phase_5,1,1,48,73,1775440872
17,17,Jits_Phase_5,2,5,80,127,1775458792
17,17,Jits_Phase_5,3,5,63,98,1775479100
17,17,Jits_Phase_5,0,5,63,98,1775909336
17,17,Jits_Phase_5,1,5,56,103,1775918412
17,17,Jits_Phase_5,2,1,48,72,1775925792
17,17,Jits_Phase_5,3,5,80,127,1775978868
17,17,Jits_Phase_5,0,5,56,103,1776408940
17,17,Jits_Phase_5,1,1,48,65,1776435724
17,17,Jits_Phase_5,2,5,63,98,1776478760
17,17,Jits_Phase_5,3,5,80,127,1776498996
17,17,Jits_Phase_5,0,5,56,103,1776908632
17,17,Jits_Phase_5,1,5,63,98,1776939504
17,17,Jits_Phase_5,2,1,48,74,1776955952
17,17,Jits_Phase_5,3,5,80,127,1776979284
17,17,Jits_Phase_5,0,5,63,98,1777399080
17,17,Jits_Phase_5,1,5,56,103,1777449232
17,17,Jits_Phase_5,2,1,48,95,1777451824
17,17,Jits_Phase_5,3,5,80,127,1777458744
17,17,Jits_Phase_5,0,5,56,103,1777938936
17,17,Jits_Phase_5,1,1,48,97,1777945796
17,17,Jits_Phase_5,2,5,63,98,1777988984
17,17,Jits_Phase_5,3,5,80,127,1777999176
17,17,Jits_Phase_5,0,5,56,103,1778408788
17,17,Jits_Phase_5,1,5,63,98,1778418912
17,17,Jits_Phase_5,2,1,48,86,1778467608
17,17,Jits_Phase_5,3,5,80,127,1778498940
17,17,Jits_Phase_5,0,9999,9999,9999,1694146672
17,17,Jits_Phase_5,1,9999,9999,9999,1694646380
17,17,Jits_Phase_5,2,9999,9999,9999,1695147080
17,17,Jits_Phase_5,3,9999,9999,9999,1695657024
17,17,Jits_Phase_5,4,9999,9999,9999,1696156736
17,17,Jits_Phase_5,5,9999,9999,9999,1696656444
17,17,Jits_Phase_5,6,9999,9999,9999,1697156220
17,17,Jits_Phase_5,7,9999,9999,9999,1697656912
17,17,Jits_Phase_5,8,9999,9999,9999,1698156632
17,17,Jits_Phase_5,9,9999,9999,9999,1698656352
17,17,Jits_Phase_5,10,9999,9999,9999,1699157116
17,17,Jits_Phase_5,11,9999,9999,9999,1699656760
17,17,Jits_Phase_5,12,9999,9999,9999,1700156536
17,17,Jits_Phase_5,13,9999,9999,9999,1700656236
17,17,Jits_Phase_5,14,9999,9999,9999,1701156940
17,17,Jits_Phase_5,15,9999,9999,9999,1701656696
17,17,Jits_Phase_5,16,9999,9999,9999,1702156396
17,17,Jits_Phase_5,17,9999,9999,9999,1702656104
17,17,Jits_Phase_5,18,9999,9999,9999,1703156820
17,17,Jits_Phase_5,19,9999,9999,9999,1703656520
17,17,Jits_Phase_5,20,9999,9999,9999,1704156244
17,17,Jits_Phase_5,21,9999,9999,9999,1704656960
17,17,Jits_Phase_5,22,9999,9999,9999,1705156696
17,17,Jits_Phase_5,23,9999,9999,9999,1705656412
17,17,Jits_Phase_5,24,9999,9999,9999,1706156132
17,17,Jits_Phase_5,25,9999,9999,9999,1706656888
17,17,Jits_Phase_5,26,9999,9999,9999,1707156536
17,17,Jits_Phase_5,27,9999,9999,9999,1707656300
17,17,Jits_Phase_5,28,9999,9999,9999,1708156996
17,17,Jits_Phase_5,29,9999,9999,9999,1708656708
17,17,Jits_Phase_5,30,9999,9999,9999,1709146168
17,17,Jits_Phase_5,31,9999,9999,9999,1709646936
17,17,Jits_Phase_5,32,9999,9999,9999,1710146652
17,17,Jits_Phase_5,33,9999,9999,9999,1710646392
17,17,Jits_Phase_5,34,9999,9999,9999,1711147104
17,17,Jits_Phase_5,35,9999,9999,9999,1711657016
17,17,Jits_Phase_5,36,9999,9999,9999,1712156784
17,17,Jits_Phase_5,37,9999,9999,9999,1712656492
17,17,Jits_Phase_5,38,9999,9999,9999,1713156212
17,17,Jits_Phase_5,39,9999,9999,9999,1713656944
17,17,Jits_Phase_5,40,9999,9999,9999,1714156644
17,17,Jits_Phase_5,41,9999,9999,9999,1714656360
17,17,Jits_Phase_5,42,9999,9999,9999,1715157072
17,17,Jits_Phase_5,43,9999,9999,9999,1715656796
17,17,Jits_Phase_5,44,9999,9999,9999,1716156500
17,17,Jits_Phase_5,45,9999,9999,9999,1716656216
17,17,Jits_Phase_5,46,9999,9999,9999,1717156980
17,17,Jits_Phase_5,47,9999,9999,9999,1717656692
17,17,Jits_Phase_5,48,9999,9999,9999,1718166588
17,17,Jits_Phase_5,49,9999,9999,9999,1718666316
17,17,Jits_Phase_5,50,9999,9999,9999,1719167076
17,17,Jits_Phase_5,51,9999,9999,9999,1719666796
17,17,Jits_Phase_5,52,9999,9999,9999,1720166520
17,17,Jits_Phase_5,53,9999,9999,9999,1720666240
17,17,Jits_Phase_5,54,9999,9999,9999,1721166920
17,17,Jits_Phase_5,55,9999,9999,9999,1721666640
17,17,Jits_Phase_5,56,9999,9999,9999,1722166352
17,17,Jits_Phase_5,57,9999,9999,9999,1722667116
17,17,Jits_Phase_5,58,9999,9999,9999,1723177024
17,17,Jits_Phase_5,59,9999,9999,9999,1723676728
17,17,Jits_Phase_5,60,9999,9999,9999,1724176456
17,17,Jits_Phase_5,61,9999,9999,9999,1724676156
17,17,Jits_Phase_5,62,9999,9999,9999,1725176896
17,17,Jits_Phase_5,63,9999,9999,9999,1725676628
17,17,Jits_Phase_5,64,9999,9999,9999,1726196828
17,17,Jits_Phase_5,65,9999,9999,9999,1726696560
17,17,Jits_Phase_5,66,9999,9999,9999,1727196232
17,17,Jits_Phase_5,67,9999,9999,9999,1727696952
17,17,Jits_Phase_5,68,9999,9999,9999,1728196720
17,17,Jits_Phase_5,69,9999,9999,9999,1728696396
17,17,Jits_Phase_5,70,9999,9999,9999,1729196136
17,17,Jits_Phase_5,71,9999,9999,9999,1729696868
17,17,Jits_Phase_5,72,9999,9999,9999,1730196608
17,17,Jits_Phase_5,73,9999,9999,9999,1730696316
17,17,Jits_Phase_5,74,9999,9999,9999,1731197012
17,17,Jits_Phase_5,75,9999,9999,9999,1731696708
17,17,Jits_Phase_5,76,9999,9999,9999,1732196432
17,17,Jits_Phase_5,77,9999,9999,9999,1732696136
17,17,Jits_Phase_5,78,9999,9999,9999,1733196908
17,17,Jits_Phase_5,79,9999,9999,9999,1733696628
17,17,Jits_Phase_5,80,9999,9999,9999,1734196280
17,17,Jits_Phase_5,81,9999,9999,9999,1734676604
17,17,Jits_Phase_5,82,9999,9999,9999,1735176248
17,17,Jits_Phase_5,83,9999,9999,9999,1735677048
17,17,Jits_Phase_5,84,9999,9999,9999,1736176696
17,17,Jits_Phase_5,85,9999,9999,9999,1736676444
17,17,Jits_Phase_5,86,9999,9999,9999,1737176152
17,17,Jits_Phase_5,87,9999,9999,9999,1737676884
17,17,Jits_Phase_5,88,9999,9999,9999,1738176568
17,17,Jits_Phase_5,89,9999,9999,9999,1738676324
17,17,Jits_Phase_5,90,9999,9999,9999,1739177060
17,17,Jits_Phase_5,91,9999,9999,9999,1739676796
17,17,Jits_Phase_5,92,9999,9999,9999,1740176456
17,17,Jits_Phase_5,93,9999,9999,9999,1740676204
17,17,Jits_Phase_5,94,9999,9999,9999,1741176904
17,17,Jits_Phase_5,95,9999,9999,9999,1741676648
17,17,Jits_Phase_5,96,9999,9999,9999,1742176356
17,17,Jits_Phase_5,97,9999,9999,9999,1742626884
17,17,Jits_Phase_5,98,9999,9999,9999,1743126632
17,17,Jits_Phase_5,99,9999,9999,9999,1743626304
17,17,Jits_Phase_5,100,9999,9999,9999,1744127056
17,17,Jits_Phase_5,101,9999,9999,9999,1744626748
17,17,Jits_Phase_5,102,9999,9999,9999,1745126504
17,17,Jits_Phase_5,103,9999,9999,9999,1745626212
17,17,Jits_Phase_5,104,9999,9999,9999,1746126976
17,17,Jits_Phase_5,105,9999,9999,9999,1746626628
17,17,Jits_Phase_5,106,9999,9999,9999,1747126392
17,17,Jits_Phase_5,107,9999,9999,9999,1747627068
17,17,Jits_Phase_5,108,9999,9999,9999,1748137048
17,17,Jits_Phase_5,109,9999,9999,9999,1748636756
17,17,Jits_Phase_5,110,9999,9999,9999,1749136480
17,17,Jits_Phase_5,111,9999,9999,9999,1749636200
17,17,Jits_Phase_5,112,9999,9999,9999,1750136888
17,17,Jits_Phase_5,113,9999,9999,9999,1750636664
17,17,Jits_Phase_5,114,9999,9999,9999,1751186544
17,17,Jits_Phase_5,115,9999,9999,9999,1751686224
17,17,Jits_Phase_5,116,9999,9999,9999,1752186956
17,17,Jits_Phase_5,117,9999,9999,9999,1752686680
17,17,Jits_Phase_5,118,9999,9999,9999,1753186400
17,17,Jits_Phase_5,119,9999,9999,9999,1753686100
17,17,Jits_Phase_5,120,9999,9999,9999,1754186864
17,17,Jits_Phase_5,121,9999,9999,9999,1754686584
17,17,Jits_Phase_5,122,9999,9999,9999,1755186300
17,17,Jits_Phase_5,123,9999,9999,9999,1755686992
17,17,Jits_Phase_5,124,9999,9999,9999,1756186692
17,17,Jits_Phase_5,125,9999,9999,9999,1756686396
17,17,Jits_Phase_5,126,9999,9999,9999,1757186120
17,17,Jits_Phase_5,127,9999,9999,9999,1757686840
17,17,Jits_Phase_5,128,9999,9999,9999,1758186612
17,17,Jits_Phase_5,129,9999,9999,9999,1758686272
17,17,Jits_Phase_5,130,9999,9999,9999,1759187036
17,17,Jits_Phase_5,131,9999,9999,9999,1759787076
17,17,Jits_Phase_5,132,9999,9999,9999,1760297056
17,17,Jits_Phase_5,133,9999,9999,9999,1760796768
17,17,Jits_Phase_5,134,9999,9999,9999,1761296460
17,17,Jits_Phase_5,135,9999,9999,9999,1761796208
17,17,Jits_Phase_5,136,9999,9999,9999,1762296896
17,17,Jits_Phase_5,137,9999,9999,9999,1762796612
17,17,Jits_Phase_5,138,9999,9999,9999,1763296336
17,17,Jits_Phase_5,139,9999,9999,9999,1763797056
17,17,Jits_Phase_5,140,9999,9999,9999,1764296784
17,17,Jits_Phase_5,141,9999,9999,9999,1764796524
17,17,Jits_Phase_5,142,9999,9999,9999,1765296244
17,17,Jits_Phase_5,143,9999,9999,9999,1765796960
17,17,Jits_Phase_5,144,9999,9999,9999,1766296640
17,17,Jits_Phase_5,145,9999,9999,9999,1766796372
17,17,Jits_Phase_5,146,9999,9999,9999,1767296116
17,17,Jits_Phase_5,147,9999,9999,9999,1767796816
17,17,Jits_Phase_5,148,9999,9999,9999,1768296516
17,17,Jits_Phase_5,149,9999,9999,9999,1768796240
17,17,Jits_Phase_5,150,9999,9999,9999,1769196640
17,17,Jits_Phase_5,151,9999,9999,9999,1769696332
17,17,Jits_Phase_5,152,9999,9999,9999,1770197100
17,17,Jits_Phase_5,153,9999,9999,9999,1770696784
17,17,Jits_Phase_5,154,9999,9999,9999,1771196476
17,17,Jits_Phase_5,155,9999,9999,9999,1771696196
17,17,Jits_Phase_5,156,9999,9999,9999,1772196940
17,17,Jits_Phase_5,157,9999,9999,9999,1772696644
17,17,Jits_Phase_5,158,9999,9999,9999,1773196352
17,17,Jits_Phase_5,159,9999,9999,9999,1773696068
17,17,Jits_Phase_5,160,9999,9999,9999,1774196836
17,17,Jits_Phase_5,161,9999,9999,9999,1774696504
17,17,Jits_Phase_5,162,9999,9999,9999,1775196252
17,17,Jits_Phase_5,163,9999,9999,9999,1775696992
17,17,Jits_Phase_5,164,9999,9999,9999,1776196680
17,17,Jits_Phase_5,165,9999,9999,9999,1776696436
17,17,Jits_Phase_5,166,9999,9999,9999,1777196124
17,17,Jits_Phase_5,167,9999,9999,9999,1777696860
17,17,Jits_Phase_5,168,9999,9999,9999,1778196540
17,17,Jits_Phase_5,169,9999,9999,9999,1778696304
18,15,Jits_Phase_8,0,5,56,103,1840193040
18,15,Jits_Phase_8,1,5,63,98,1840196288
18,15,Jits_Phase_8,2,5,80,127,1840199336
18,15,Jits_Phase_8,0,5,56,103,1840992760
18,15,Jits_Phase_8,1,5,63,98,1840995932
18,15,Jits_Phase_8,2,5,80,127,1840999128
18,15,Jits_Phase_8,0,5,80,127,1841732928
18,15,Jits_Phase_8,1,5,63,98,1841823064
18,15,Jits_Phase_8,2,5,56,103,1841833336
18,15,Jits_Phase_8,0,5,56,103,1842553192
18,15,Jits_Phase_8,1,5,63,98,1842562344
18,15,Jits_Phase_8,2,5,80,127,1842652472
18,15,Jits_Phase_8,0,5,63,98,1843323408
18,15,Jits_Phase_8,1,5,80,127,1843353012
18,15,Jits_Phase_8,2,5,56,103,1843382832
18,15,Jits_Phase_8,3,1,48,67,1843386852
18,15,Jits_Phase_8,4,1,48,57,1843405632
18,15,Jits_Phase_8,0,1,48,78,1844116712
18,15,Jits_Phase_8,1,5,56,103,1844123184
18,15,Jits_Phase_8,2,1,48,66,1844138868
18,15,Jits_Phase_8,3,5,80,127,1844223360
18,15,Jits_Phase_8,4,5,63,98,1844272424
18,15,Jits_Phase_8,0,5,56,103,1844922832
18,15,Jits_Phase_8,1,5,80,127,1844972888
18,15,Jits_Phase_8,2,1,48,70,1844989136
18,15,Jits_Phase_8,3,1,48,54,1845012148
18,15,Jits_Phase_8,4,5,63,98,1845013268
18,15,Jits_Phase_8,0,5,80,127,1845753148
18,15,Jits_Phase_8,1,1,48,75,1845768328
18,15,Jits_Phase_8,2,5,63,98,1845783040
18,15,Jits_Phase_8,3,1,48,60,1845790876
18,15,Jits_Phase_8,4,5,56,103,1845852400
18,15,Jits_Phase_8,0,5,63,98,1846582696
18,15,Jits_Phase_8,1,1,48,70,1846605368
18,15,Jits_Phase_8,2,5,56,103,1846613488
18,15,Jits_Phase_8,3,1,48,56,1846627904
18,15,Jits_Phase_8,4,5,80,127,1846672732
18,15,Jits_Phase_8,0,5,56,103,1847323000
18,15,Jits_Phase_8,1,5,80,127,1847325992
18,15,Jits_Phase_8,2,1,48,67,1847432576
18,15,Jits_Phase_8,3,5,63,98,1847443088
18,15,Jits_Phase_8,4,1,48,51,1847456380
18,15,Jits_Phase_8,0,1,48,57,1848191088
18,15,Jits_Phase_8,1,5,56,103,1848202940
18,15,Jits_Phase_8,2,1,48,44,1848221716
18,15,Jits_Phase_8,3,5,80,127,1848242712
18,15,Jits_Phase_8,4,5,63,98,1848252832
18,15,Jits_Phase_8,0,5,56,103,1848962588
18,15,Jits_Phase_8,1,1,48,71,1848967124
18,15,Jits_Phase_8,2,5,80,127,1848982892
18,15,Jits_Phase_8,3,1,48,54,1848989060
18,15,Jits_Phase_8,4,5,63,98,1849062884
18,15,Jits_Phase_8,0,5,80,127,1849752872
18,15,Jits_Phase_8,1,1,48,83,1849810524
18,15,Jits_Phase_8,2,1,48,67,1849842208
18,15,Jits_Phase_8,3,5,56,103,1849853268
18,15,Jits_Phase_8,4,5,63,98,1849862640
18,15,Jits_Phase_8,5,1,48,46,1849869636
18,15,Jits_Phase_8,0,5,63,98,1850522976
18,15,Jits_Phase_8,1,5,80,127,1850583292
18,15,Jits_Phase_8,2,5,56,103,1850592812
18,15,Jits_Phase_8,3,1,48,83,1850615432
18,15,Jits_Phase_8,4,1,48,62,1850647100
18,15,Jits_Phase_8,0,5,56,103,1851322836
18,15,Jits_Phase_8,1,1,48,72,1851338608
18,15,Jits_Phase_8,2,1,48,62,1851360012
18,15,Jits_Phase_8,3,5,63,98,1851393484
18,15,Jits_Phase_8,4,5,80,127,1851396700
18,15,Jits_Phase_8,0,1,48,85,1852131064
18,15,Jits_Phase_8,1,5,63,98,1852153136
18,15,Jits_Phase_8,2,1,48,48,1852195796
18,15,Jits_Phase_8,3,5,56,103,1852203236
18,15,Jits_Phase_8,4,5,80,127,1852206460
18,15,Jits_Phase_8,0,5,56,103,1852912884
18,15,Jits_Phase_8,1,5,80,127,1852916104
18,15,Jits_Phase_8,2,1,48,67,1852985176
18,15,Jits_Phase_8,3,5,63,98,1853003112
18,15,Jits_Phase_8,0,1,48,68,1853692636
18,15,Jits_Phase_8,1,5,63,98,1853752672
18,15,Jits_Phase_8,2,5,56,103,1853842792
18,15,Jits_Phase_8,3,5,80,127,1853872616
18,15,Jits_Phase_8,0,5,56,103,1854543072
18,15,Jits_Phase_8,1,1,48,76,1854605528
18,15,Jits_Phase_8,2,5,63,98,1854642712
18,15,Jits_Phase_8,3,5,80,127,1854673360
18,15,Jits_Phase_8,4,1,48,20,1854691604
18,15,Jits_Phase_8,0,5,63,98,1855362508
18,15,Jits_Phase_8,1,5,56,103,1855372704
18,15,Jits_Phase_8,2,1,48,76,1855455460
18,15,Jits_Phase_8,3,5,80,127,1855462752
18,15,Jits_Phase_8,0,5,63,98,1856182720
18,15,Jits_Phase_8,1,1,48,78,1856243604
18,15,Jits_Phase_8,2,5,56,103,1856262680
18,15,Jits_Phase_8,3,5,80,127,1856265672
18,15,Jits_Phase_8,0,5,80,127,1856942540
18,15,Jits_Phase_8,1,5,63,98,1856962924
18,15,Jits_Phase_8,2,1,48,84,1857015364
18,15,Jits_Phase_8,3,5,56,103,1857023552
18,15,Jits_Phase_8,0,1,48,94,1857781472
18,15,Jits_Phase_8,1,5,56,103,1857783084
18,15,Jits_Phase_8,2,5,63,98,1857802648
18,15,Jits_Phase_8,3,5,80,127,1857806012
18,15,Jits_Phase_8,0,5,63,98,1858522728
18,15,Jits_Phase_8,1,1,48,86,1858574500
18,15,Jits_Phase_8,2,5,80,127,1858603592
18,15,Jits_Phase_8,3,5,56,103,1858612516
18,15,Jits_Phase_8,0,1,48,89,1859341388
18,15,Jits_Phase_8,1,5,63,98,1859343180
18,15,Jits_Phase_8,2,5,56,103,1859363120
18,15,Jits_Phase_8,3,5,80,127,1859413468
18,15,Jits_Phase_8,0,5,80,127,1860142644
18,15,Jits_Phase_8,1,1,48,82,1860164724
18,15,Jits_Phase_8,2,5,63,98,1860183548
18,15,Jits_Phase_8,3,5,56,103,1860202736
18,15,Jits_Phase_8,0,1,48,73,1860941704
18,15,Jits_Phase_8,1,5,56,103,1860983084
18,15,Jits_Phase_8,2,5,63,98,1860993656
18,15,Jits_Phase_8,3,5,80,127,1861012768
18,15,Jits_Phase_8,0,5,56,103,1861713396
18,15,Jits_Phase_8,1,1,48,88,1861742968
18,15,Jits_Phase_8,2,5,63,98,1861803524
18,15,Jits_Phase_8,3,5,80,127,1861862704
18,15,Jits_Phase_8,0,5,80,127,1862542764
18,15,Jits_Phase_8,1,5,56,103,1862553036
18,15,Jits_Phase_8,2,1,48,83,1862577356
18,15,Jits_Phase_8,3,5,63,98,1862622632
18,15,Jits_Phase_8,0,5,63,98,1863373400
18,15,Jits_Phase_8,1,1,48,92,1863379884
18,15,Jits_Phase_8,2,5,80,127,1863463252
18,15,Jits_Phase_8,3,5,56,103,1863472624
18,15,Jits_Phase_8,0,5,63,98,1864103412
18,15,Jits_Phase_8,1,5,80,127,1864152416
18,15,Jits_Phase_8,2,5,56,103,1864212832
18,15,Jits_Phase_8,3,1,48,105,1864274308
18,15,Jits_Phase_8,0,5,56,103,1864922508
18,15,Jits_Phase_8,1,5,80,127,1864972588
18,15,Jits_Phase_8,2,1,48,106,1864981856
18,15,Jits_Phase_8,3,5,63,98,1864993412
18,15,Jits_Phase_8,0,5,56,103,1865692544
18,15,Jits_Phase_8,1,5,80,127,1865753036
18,15,Jits_Phase_8,2,1,48,55,1865792720
18,15,Jits_Phase_8,3,5,63,98,1865822484
18,15,Jits_Phase_8,0,5,56,103,1866493464
18,15,Jits_Phase_8,1,5,80,127,1866522916
18,15,Jits_Phase_8,2,5,63,98,1866552664
18,15,Jits_Phase_8,3,1,48,80,1866577356
18,15,Jits_Phase_8,4,1,48,65,1866597788
18,15,Jits_Phase_8,0,5,56,103,1867332972
18,15,Jits_Phase_8,1,1,48,77,1867339012
18,15,Jits_Phase_8,2,5,80,127,1867352380
18,15,Jits_Phase_8,3,5,63,98,1867412992
18,15,Jits_Phase_8,0,1,48,85,1868159008
18,15,Jits_Phase_8,1,5,80,127,1868212532
18,15,Jits_Phase_8,2,5,56,103,1868222804
18,15,Jits_Phase_8,3,5,63,98,1868233148
18,15,Jits_Phase_8,0,1,48,66,1868959368
18,15,Jits_Phase_8,1,5,56,103,1868973416
18,15,Jits_Phase_8,2,5,80,127,1869013352
18,15,Jits_Phase_8,3,5,63,98,1869043176
18,15,Jits_Phase_8,0,5,56,103,1869742392
18,15,Jits_Phase_8,1,1,48,66,1869760952
18,15,Jits_Phase_8,2,5,63,98,1869773256
18,15,Jits_Phase_8,3,5,80,127,1869813416
18,15,Jits_Phase_8,0,5,80,127,1870493360
18,15,Jits_Phase_8,1,1,48,94,1870533948
18,15,Jits_Phase_8,2,5,63,98,1870543260
18,15,Jits_Phase_8,3,5,56,103,1870562596
18,15,Jits_Phase_8,0,1,48,89,1871315424
18,15,Jits_Phase_8,1,5,56,103,1871322420
18,15,Jits_Phase_8,2,5,80,127,1871393100
18,15,Jits_Phase_8,3,5,63,98,1871452576
18,15,Jits_Phase_8,0,5,80,127,1872123332
18,15,Jits_Phase_8,1,1,48,93,1872184888
18,15,Jits_Phase_8,2,5,63,98,1872213460
18,15,Jits_Phase_8,3,5,56,103,1872232724
18,15,Jits_Phase_8,0,5,63,98,1872942440
18,15,Jits_Phase_8,1,5,56,103,1872963048
18,15,Jits_Phase_8,2,1,48,68,1872983108
18,15,Jits_Phase_8,3,5,80,127,1873002828
18,15,Jits_Phase_8,0,5,80,127,1873703236
18,15,Jits_Phase_8,1,5,63,98,1873722872
18,15,Jits_Phase_8,2,1,48,66,1873777908
18,15,Jits_Phase_8,3,5,56,103,1873802588
18,15,Jits_Phase_8,0,5,63,98,1874492744
18,15,Jits_Phase_8,1,1,48,76,1874565464
18,15,Jits_Phase_8,2,5,56,103,1874603396
18,15,Jits_Phase_8,3,5,80,127,1874606316
18,15,Jits_Phase_8,0,5,63,98,1875313320
18,15,Jits_Phase_8,1,5,56,103,1875323216
18,15,Jits_Phase_8,2,5,80,127,1875326432
18,15,Jits_Phase_8,3,1,48,51,1875359292
18,15,Jits_Phase_8,0,1,48,65,1876067096
18,15,Jits_Phase_8,1,5,56,103,1876093272
18,15,Jits_Phase_8,2,5,80,127,1876213060
18,15,Jits_Phase_8,3,5,63,98,1876253220
18,15,Jits_Phase_8,0,5,56,103,1876912348
18,15,Jits_Phase_8,1,5,80,127,1876993440
18,15,Jits_Phase_8,2,5,63,98,1877013220
18,15,Jits_Phase_8,3,1,48,64,1877028028
18,15,Jits_Phase_8,0,5,56,103,1877713240
18,15,Jits_Phase_8,1,1,48,69,1877818868
18,15,Jits_Phase_8,2,5,63,98,1877823092
18,15,Jits_Phase_8,3,5,80,127,1877826308
18,15,Jits_Phase_8,0,5,56,103,1878553116
18,15,Jits_Phase_8,1,5,80,127,1878582568
18,15,Jits_Phase_8,2,5,63,98,1878603100
18,15,Jits_Phase_8,0,1,48,99,1879262440
18,15,Jits_Phase_8,1,5,63,98,1879342656
18,15,Jits_Phase_8,2,5,56,103,1879353884
18,15,Jits_Phase_8,3,5,80,127,1879362884
18,15,Jits_Phase_8,0,1,48,89,1880122900
18,15,Jits_Phase_8,1,5,80,127,1880133112
18,15,Jits_Phase_8,2,1,48,55,1880163716
18,15,Jits_Phase_8,3,5,56,103,1880183140
18,15,Jits_Phase_8,4,5,63,98,1880223080
18,15,Jits_Phase_8,0,5,80,127,1880953208
18,15,Jits_Phase_8,1,5,63,98,1880972768
18,15,Jits_Phase_8,2,1,48,92,1880997536
18,15,Jits_Phase_8,3,5,56,103,1881023188
18,15,Jits_Phase_8,0,5,80,127,1881763168
18,15,Jits_Phase_8,1,5,56,103,1881792920
18,15,Jits_Phase_8,2,1,48,93,1881803912
18,15,Jits_Phase_8,3,5,63,98,1881862468
18,15,Jits_Phase_8,0,5,56,103,1882613384
18,15,Jits_Phase_8,1,5,80,127,1882623432
18,15,Jits_Phase_8,2,1,48,97,1882646180
18,15,Jits_Phase_8,3,5,63,98,1882663216
18,15,Jits_Phase_8,0,5,56,103,1883322860
18,15,Jits_Phase_8,1,5,63,98,1883343096
18,15,Jits_Phase_8,2,5,80,127,1883412876
18,15,Jits_Phase_8,3,1,48,80,1883457944
18,15,Jits_Phase_8,0,1,48,94,1884142032
18,15,Jits_Phase_8,1,5,63,98,1884143900
18,15,Jits_Phase_8,2,5,80,127,1884203344
18,15,Jits_Phase_8,3,5,56,103,1884222980
18,15,Jits_Phase_8,0,5,80,127,1884932532
18,15,Jits_Phase_8,1,1,48,90,1884946740
18,15,Jits_Phase_8,2,5,56,103,1884963324
18,15,Jits_Phase_8,3,1,48,55,1884979008
18,15,Jits_Phase_8,4,5,63,98,1884992828
18,15,Jits_Phase_8,0,5,56,103,1885733156
18,15,Jits_Phase_8,1,1,48,95,1885773216
18,15,Jits_Phase_8,2,5,63,98,1885792792
18,15,Jits_Phase_8,3,5,80,127,1885853032
18,15,Jits_Phase_8,0,1,48,101,1886551200
18,15,Jits_Phase_8,1,5,80,127,1886552844
18,15,Jits_Phase_8,2,5,56,103,1886572932
18,15,Jits_Phase_8,3,5,63,98,1886642832
18,15,Jits_Phase_8,0,5,80,127,1887353236
18,15,Jits_Phase_8,1,1,48,105,1887361832
18,15,Jits_Phase_8,2,5,63,98,1887372644
18,15,Jits_Phase_8,3,5,56,103,1887403588
18,15,Jits_Phase_8,0,1,48,97,1888103388
18,15,Jits_Phase_8,1,5,80,127,1888142752
18,15,Jits_Phase_8,2,5,63,98,1888163136
18,15,Jits_Phase_8,3,5,56,103,1888222836
18,15,Jits_Phase_8,0,1,48,100,1888937380
18,15,Jits_Phase_8,1,5,80,127,1888942432
18,15,Jits_Phase_8,2,5,56,103,1889042912
18,15,Jits_Phase_8,3,5,63,98,1889072440
18,15,Jits_Phase_8,0,5,63,98,1889732932
18,15,Jits_Phase_8,1,5,80,127,1889783236
18,15,Jits_Phase_8,2,5,56,103,1889802648
18,15,Jits_Phase_8,3,1,48,92,1889821956
18,15,Jits_Phase_8,0,5,80,127,1890572572
18,15,Jits_Phase_8,1,1,48,98,1890581840
18,15,Jits_Phase_8,2,5,56,103,1890603584
18,15,Jits_Phase_8,3,5,63,98,1890606576
18,15,Jits_Phase_8,0,1,48,85,1891397544
18,15,Jits_Phase_8,1,5,63,98,1891422752
18,15,Jits_Phase_8,2,5,56,103,1891462764
18,15,Jits_Phase_8,3,5,80,127,1891482928
18,15,Jits_Phase_8,0,5,80,127,1892183336
18,15,Jits_Phase_8,1,1,48,74,1892262904
18,15,Jits_Phase_8,2,5,63,98,1892264320
18,15,Jits_Phase_8,3,5,56,103,1892303136
18,15,Jits_Phase_8,4,1,48,37,1892310296
18,15,Jits_Phase_8,0,5,63,98,1893002772
18,15,Jits_Phase_8,1,5,80,127,1893082568
18,15,Jits_Phase_8,2,5,56,103,1893102952
18,15,Jits_Phase_8,3,1,48,80,1893108092
18,15,Jits_Phase_8,0,5,56,103,1893843416
18,15,Jits_Phase_8,1,5,63,98,1893852716
18,15,Jits_Phase_8,2,5,80,127,1893892452
18,15,Jits_Phase_8,3,1,48,76,1893911012
18,15,Jits_Phase_8,0,5,56,103,1894563096
18,15,Jits_Phase_8,1,5,80,127,1894566316
18,15,Jits_Phase_8,2,5,63,98,1894702548
18,15,Jits_Phase_8,3,1,48,81,1894749036
18,15,Jits_Phase_8,0,5,56,103,1895352672
18,15,Jits_Phase_8,1,5,63,98,1895442760
18,15,Jits_Phase_8,2,5,80,127,1895512512
18,15,Jits_Phase_8,3,1,48,63,1895779340
18,15,Jits_Phase_8,0,5,63,98,1896233384
18,15,Jits_Phase_8,1,5,80,127,1896236528
18,15,Jits_Phase_8,2,5,56,103,1896292652
18,15,Jits_Phase_8,3,1,48,79,1896622936
18,15,Jits_Phase_8,0,5,80,127,1897072924
18,15,Jits_Phase_8,1,5,56,103,1897092484
18,15,Jits_Phase_8,2,5,63,98,1897102680
18,15,Jits_Phase_8,0,1,48,74,1897525788
18,15,Jits_Phase_8,1,5,56,103,1897782516
18,15,Jits_Phase_8,2,5,63,98,1897792860
18,15,Jits_Phase_8,3,5,80,127,1897862612
18,15,Jits_Phase_8,0,1,48,66,1898289872
18,15,Jits_Phase_8,1,1,48,47,1898320948
18,15,Jits_Phase_8,2,5,80,127,1898583668
18,15,Jits_Phase_8,3,5,56,103,1898632452
18,15,Jits_Phase_8,4,5,63,98,1898682800
18,15,Jits_Phase_8,0,1,48,63,1899375904
18,15,Jits_Phase_8,1,1,48,46,1899401588
18,15,Jits_Phase_8,2,5,56,103,1899462892
18,15,Jits_Phase_8,3,5,63,98,1899473460
18,15,Jits_Phase_8,4,5,80,127,1899513408
18,15,Jits_Phase_8,0,1,48,54,1900180488
18,15,Jits_Phase_8,1,5,56,103,1900203596
18,15,Jits_Phase_8,2,5,63,98,1900243460
18,15,Jits_Phase_8,3,5,80,127,1900292548
18,15,Jits_Phase_8,0,5,80,127,1900963280
18,15,Jits_Phase_8,1,5,56,103,1901013556
18,15,Jits_Phase_8,2,5,63,98,1901032820
18,15,Jits_Phase_8,3,1,48,63,1901053792
18,15,Jits_Phase_8,0,5,80,127,1901773532
18,15,Jits_Phase_8,1,1,48,75,1901824928
18,15,Jits_Phase_8,2,5,63,98,1901832524
18,15,Jits_Phase_8,3,1,48,23,1901902308
18,15,Jits_Phase_8,4,5,56,103,1901912520
18,15,Jits_Phase_8,0,5,80,127,1902552660
18,15,Jits_Phase_8,1,5,56,103,1902593376
18,15,Jits_Phase_8,2,5,63,98,1902612712
18,15,Jits_Phase_8,3,1,48,75,1902734420
18,15,Jits_Phase_8,4,1,48,41,1902774476
18,15,Jits_Phase_8,0,5,56,103,1903403580
18,15,Jits_Phase_8,1,5,80,127,1903412656
18,15,Jits_Phase_8,2,5,63,98,1903452520
18,15,Jits_Phase_8,3,1,48,65,1903576988
18,15,Jits_Phase_8,0,5,56,103,1904272656
18,15,Jits_Phase_8,1,5,63,98,1904312672
18,15,Jits_Phase_8,2,5,80,127,1904315884
18,15,Jits_Phase_8,3,1,48,73,1904407352
18,15,Jits_Phase_8,4,1,48,49,1904436624
18,15,Jits_Phase_8,0,5,63,98,1904942400
18,15,Jits_Phase_8,1,5,80,127,1904983460
18,15,Jits_Phase_8,2,5,56,103,1905053212
18,15,Jits_Phase_8,3,1,48,68,1905264460
18,15,Jits_Phase_8,0,5,63,98,1905712556
18,15,Jits_Phase_8,1,5,56,103,1905793324
18,15,Jits_Phase_8,2,5,80,127,1905852888
18,15,Jits_Phase_8,3,1,48,58,1906159416
18,15,Jits_Phase_8,0,5,80,127,1906522500
18,15,Jits_Phase_8,1,5,63,98,1906572632
18,15,Jits_Phase_8,2,5,56,103,1906603276
18,15,Jits_Phase_8,3,1,48,59,1906832132
18,15,Jits_Phase_8,0,5,56,103,1907313132
18,15,Jits_Phase_8,1,5,63,98,1907363260
18,15,Jits_Phase_8,2,5,80,127,1907373380
18,15,Jits_Phase_8,3,1,48,63,1907643888
18,15,Jits_Phase_8,4,1,48,46,1907688204
18,15,Jits_Phase_8,0,5,56,103,1908123116
18,15,Jits_Phase_8,1,5,63,98,1908232456
18,15,Jits_Phase_8,2,5,80,127,1908253212
18,15,Jits_Phase_8,3,1,48,64,1908501552
18,15,Jits_Phase_8,4,1,48,43,1908541156
18,15,Jits_Phase_8,0,5,63,98,1908922776
18,15,Jits_Phase_8,1,5,80,127,1908972904
18,15,Jits_Phase_8,2,5,56,103,1909063132
18,15,Jits_Phase_8,3,1,48,64,1909231360
18,15,Jits_Phase_8,4,1,48,41,1909278400
18,15,Jits_Phase_8,0,5,63,98,1909713344
18,15,Jits_Phase_8,1,5,80,127,1909743096
18,15,Jits_Phase_8,2,5,56,103,1909833252
18,15,Jits_Phase_8,3,1,48,48,1909977504
18,15,Jits_Phase_8,4,1,48,31,1910033548
18,15,Jits_Phase_8,0,5,63,98,1910513132
18,15,Jits_Phase_8,1,5,56,103,1910523404
18,15,Jits_Phase_8,2,5,80,127,1910622600
18,15,Jits_Phase_8,3,1,48,68,1910700340
18,15,Jits_Phase_8,4,1,48,49,1910729744
18,15,Jits_Phase_8,0,1,48,58,1911345020
18,15,Jits_Phase_8,1,5,63,98,1911413452
18,15,Jits_Phase_8,2,5,80,127,1911442980
18,15,Jits_Phase_8,3,5,56,103,1911472564
18,15,Jits_Phase_8,0,1,48,64,1912196028
18,15,Jits_Phase_8,1,5,80,127,1912233292
18,15,Jits_Phase_8,2,1,48,37,1912243696
18,15,Jits_Phase_8,3,5,63,98,1912244664
18,15,Jits_Phase_8,4,5,56,103,1912273292
18,15,Jits_Phase_8,0,5,80,127,1912932928
18,15,Jits_Phase_8,1,5,63,98,1912953088
18,15,Jits_Phase_8,2,5,56,103,1913003364
18,15,Jits_Phase_8,3,1,48,70,1913073984
18,15,Jits_Phase_8,4,1,48,43,1913112792
18,15,Jits_Phase_8,0,5,63,98,1913763224
18,15,Jits_Phase_8,1,1,48,74,1913766864
18,15,Jits_Phase_8,2,1,48,43,1913816596
18,15,Jits_Phase_8,3,5,80,127,1913822468
18,15,Jits_Phase_8,4,5,56,103,1913843548
18,15,Jits_Phase_8,0,5,63,98,1914523156
18,15,Jits_Phase_8,1,1,48,70,1914561724
18,15,Jits_Phase_8,2,5,56,103,1914573204
18,15,Jits_Phase_8,3,5,80,127,1914583548
18,15,Jits_Phase_8,0,5,56,103,1915352360
18,15,Jits_Phase_8,1,5,80,127,1915362628
18,15,Jits_Phase_8,2,1,48,67,1915366268
18,15,Jits_Phase_8,3,5,63,98,1915463396
18,15,Jits_Phase_8,0,5,80,127,1916113392
18,15,Jits_Phase_8,1,5,63,98,1916122392
18,15,Jits_Phase_8,2,1,48,67,1916163968
18,15,Jits_Phase_8,3,5,56,103,1916273056
18,15,Jits_Phase_8,0,5,63,98,1916923228
18,15,Jits_Phase_8,1,5,80,127,1916963168
18,15,Jits_Phase_8,2,1,48,54,1916992816
18,15,Jits_Phase_8,3,5,56,103,1917043104
18,15,Jits_Phase_8,0,5,56,103,1917673064
18,15,Jits_Phase_8,1,5,80,127,1917773116
18,15,Jits_Phase_8,2,5,63,98,1917792896
18,15,Jits_Phase_8,3,1,48,58,1917809496
18,15,Jits_Phase_8,4,1,48,35,1917862300
18,15,Jits_Phase_8,0,5,80,127,1918493052
18,15,Jits_Phase_8,1,5,56,103,1918503176
18,15,Jits_Phase_8,2,1,48,52,1918570956
18,15,Jits_Phase_8,3,5,63,98,1918593300
18,15,Jits_Phase_8,0,5,56,103,1919292976
18,15,Jits_Phase_8,1,5,63,98,1919313364
18,15,Jits_Phase_8,2,1,48,65,1919370732
18,15,Jits_Phase_8,3,5,80,127,1919393152
18,15,Jits_Phase_8,0,5,63,98,1920043236
18,15,Jits_Phase_8,1,5,56,103,1920132544
18,15,Jits_Phase_8,2,5,80,127,1920135460
18,15,Jits_Phase_8,3,1,48,72,1920174016
18,15,Jits_Phase_8,0,5,56,103,1920873024
18,15,Jits_Phase_8,1,5,80,127,1920933116
18,15,Jits_Phase_8,2,5,63,98,1920942416
18,15,Jits_Phase_8,3,1,48,61,1921000516
18,15,Jits_Phase_8,0,5,80,127,1921722992
18,15,Jits_Phase_8,1,5,56,103,1921733112
18,15,Jits_Phase_8,2,5,63,98,1921736104
18,15,Jits_Phase_8,3,1,48,62,1921751520
18,15,Jits_Phase_8,0,5,56,103,1922482824
18,15,Jits_Phase_8,1,5,80,127,1922492944
18,15,Jits_Phase_8,2,5,63,98,1922513404
18,15,Jits_Phase_8,3,1,48,58,1922525888
18,15,Jits_Phase_8,0,5,63,98,1923252624
18,15,Jits_Phase_8,1,1,48,60,1923290964
18,15,Jits_Phase_8,2,5,80,127,1923312864
18,15,Jits_Phase_8,3,5,56,103,1923363164
18,15,Jits_Phase_8,0,1,48,61,1924105044
18,15,Jits_Phase_8,1,5,63,98,1924133244
18,15,Jits_Phase_8,2,5,56,103,1924142392
18,15,Jits_Phase_8,3,5,80,127,1924192668
18,15,Jits_Phase_8,0,5,63,98,1924832820
18,15,Jits_Phase_8,1,5,80,127,1924853080
18,15,Jits_Phase_8,2,5,56,103,1924863200
18,15,Jits_Phase_8,3,1,48,84,1924930904
18,15,Jits_Phase_8,0,5,63,98,1925633340
18,15,Jits_Phase_8,1,5,80,127,1925636928
18,15,Jits_Phase_8,2,1,48,85,1925648444
18,15,Jits_Phase_8,3,5,56,103,1925673272
18,15,Jits_Phase_8,0,1,48,76,1926391920
18,15,Jits_Phase_8,1,5,63,98,1926502812
18,15,Jits_Phase_8,2,5,80,127,1926532412
18,15,Jits_Phase_8,3,5,56,103,1926542980
18,15,Jits_Phase_8,0,1,48,78,1927251624
18,15,Jits_Phase_8,1,5,56,103,1927253212
18,15,Jits_Phase_8,2,5,80,127,1927282964
18,15,Jits_Phase_8,3,5,63,98,1927312936
18,15,Jits_Phase_8,0,1,48,85,1928131912
18,15,Jits_Phase_8,1,5,63,98,1928152388
18,15,Jits_Phase_8,2,5,56,103,1928193324
18,15,Jits_Phase_8,3,5,80,127,1928196464
18,15,Jits_Phase_8,0,5,80,127,1928852732
18,15,Jits_Phase_8,1,5,56,103,1928932752
18,15,Jits_Phase_8,2,1,48,86,1928937144
18,15,Jits_Phase_8,3,5,63,98,1928982820
18,15,Jits_Phase_8,4,1,48,37,1928996188
18,15,Jits_Phase_8,0,5,80,127,1929633276
18,15,Jits_Phase_8,1,5,56,103,1929652692
18,15,Jits_Phase_8,2,5,63,98,1929742772
18,15,Jits_Phase_8,3,1,48,89,1929766564
18,15,Jits_Phase_8,0,5,80,127,1930472680
18,15,Jits_Phase_8,1,5,63,98,1930512792
18,15,Jits_Phase_8,2,1,48,74,1930528268
18,15,Jits_Phase_8,3,5,56,103,1930552796
18,15,Jits_Phase_8,0,5,63,98,1931282740
18,15,Jits_Phase_8,1,1,48,79,1931312168
18,15,Jits_Phase_8,2,5,80,127,1931343128
18,15,Jits_Phase_8,3,5,56,103,1931372800
18,15,Jits_Phase_8,0,1,48,82,1932096164
18,15,Jits_Phase_8,1,5,56,103,1932122792
18,15,Jits_Phase_8,2,5,80,127,1932153140
18,15,Jits_Phase_8,3,5,63,98,1932243256
18,15,Jits_Phase_8,0,5,56,103,1932932668
18,15,Jits_Phase_8,1,1,48,83,1932980524
18,15,Jits_Phase_8,2,5,80,127,1933043048
18,15,Jits_Phase_8,3,5,63,98,1933072856
18,15,Jits_Phase_8,0,5,56,103,1933783688
18,15,Jits_Phase_8,1,5,63,98,1933842760
18,15,Jits_Phase_8,2,1,48,82,1933860852
18,15,Jits_Phase_8,3,5,80,127,1933872728
18,15,Jits_Phase_8,0,5,56,103,1934552600
18,15,Jits_Phase_8,1,5,63,98,1934623056
18,15,Jits_Phase_8,2,1,48,87,1934632104
18,15,Jits_Phase_8,3,5,80,127,1934642540
18,15,Jits_Phase_8,0,5,80,127,1935322708
18,15,Jits_Phase_8,1,5,63,98,1935342944
18,15,Jits_Phase_8,2,5,56,103,1935393096
18,15,Jits_Phase_8,3,1,48,85,1935434048
18,15,Jits_Phase_8,0,5,63,98,1936142732
18,15,Jits_Phase_8,1,5,80,127,1936152928
18,15,Jits_Phase_8,2,1,48,84,1936162792
18,15,Jits_Phase_8,3,5,56,103,1936203272
18,15,Jits_Phase_8,0,1,48,69,1936923200
18,15,Jits_Phase_8,1,5,63,98,1936942556
18,15,Jits_Phase_8,2,5,80,127,1937013060
18,15,Jits_Phase_8,3,5,56,103,1937032532
18,15,Jits_Phase_8,0,1,48,72,1937729612
18,15,Jits_Phase_8,1,5,63,98,1937772792
18,15,Jits_Phase_8,2,5,80,127,1937776312
18,15,Jits_Phase_8,3,5,56,103,1937842612
18,15,Jits_Phase_8,0,5,80,127,1938522508
18,15,Jits_Phase_8,1,5,56,103,1938542968
18,15,Jits_Phase_8,2,5,63,98,1938553088
18,15,Jits_Phase_8,3,1,48,94,1938568864
18,15,Jits_Phase_8,0,5,56,103,1939342804
18,15,Jits_Phase_8,1,1,48,83,1939389672
18,15,Jits_Phase_8,2,5,63,98,1939432856
18,15,Jits_Phase_8,3,5,80,127,1939436292
18,15,Jits_Phase_8,0,5,80,127,1940112676
18,15,Jits_Phase_8,1,5,56,103,1940122872
18,15,Jits_Phase_8,2,5,63,98,1940142580
18,15,Jits_Phase_8,3,1,48,99,1940189444
18,15,Jits_Phase_8,0,5,63,98,1940912436
18,15,Jits_Phase_8,1,1,48,94,1940913476
18,15,Jits_Phase_8,2,5,80,127,1940972896
18,15,Jits_Phase_8,3,5,56,103,1940983560
18,15,Jits_Phase_8,0,1,48,95,1941659848
18,15,Jits_Phase_8,1,5,63,98,1941782916
18,15,Jits_Phase_8,2,5,80,127,1941812444
18,15,Jits_Phase_8,3,5,56,103,1941852456
18,15,Jits_Phase_8,0,1,48,86,1942534496
18,15,Jits_Phase_8,1,5,56,103,1942573552
18,15,Jits_Phase_8,2,5,80,127,1942582628
18,15,Jits_Phase_8,3,5,63,98,1942622564
18,15,Jits_Phase_8,0,5,80,127,1943333308
18,15,Jits_Phase_8,1,1,48,103,1943347888
18,15,Jits_Phase_8,2,5,56,103,1943413396
18,15,Jits_Phase_8,3,5,63,98,1943423440
18,15,Jits_Phase_8,0,1,48,79,1944118136
18,15,Jits_Phase_8,1,5,80,127,1944183276
18,15,Jits_Phase_8,2,5,56,103,1944262984
18,15,Jits_Phase_8,3,5,63,98,1944273180
18,15,Jits_Phase_8,0,1,48,95,1944977624
18,15,Jits_Phase_8,1,5,80,127,1945022756
18,15,Jits_Phase_8,2,5,56,103,1945072960
18,15,Jits_Phase_8,3,5,63,98,1945123292
18,15,Jits_Phase_8,0,1,48,86,1945871784
18,15,Jits_Phase_8,1,5,56,103,1945962908
18,15,Jits_Phase_8,2,5,63,98,1945965972
18,15,Jits_Phase_8,3,5,80,127,1946013168
18,15,Jits_Phase_8,0,5,56,103,1946783336
18,15,Jits_Phase_8,1,5,63,98,1946812944
18,15,Jits_Phase_8,2,5,80,127,1946823212
18,15,Jits_Phase_8,3,1,48,92,1946845216
18,15,Jits_Phase_8,0,5,63,98,1947492840
18,15,Jits_Phase_8,1,5,56,103,1947563420
18,15,Jits_Phase_8,2,5,80,127,1947612500
18,15,Jits_Phase_8,3,1,48,71,1947666432
18,15,Jits_Phase_8,0,5,63,98,1948323096
18,15,Jits_Phase_8,1,5,56,103,1948333284
18,15,Jits_Phase_8,2,5,80,127,1948336432
18,15,Jits_Phase_8,3,1,48,83,1948385404
18,15,Jits_Phase_8,0,5,80,127,1949072720
18,15,Jits_Phase_8,1,5,56,103,1949133112
18,15,Jits_Phase_8,2,1,48,87,1949161856
18,15,Jits_Phase_8,3,5,63,98,1949223184
18,15,Jits_Phase_8,0,5,80,127,1949872492
18,15,Jits_Phase_8,1,5,56,103,1949972988
18,15,Jits_Phase_8,2,5,63,98,1950012700
18,15,Jits_Phase_8,3,1,48,79,1950017240
18,15,Jits_Phase_8,0,5,56,103,1950722412
18,15,Jits_Phase_8,1,5,63,98,1950743092
18,15,Jits_Phase_8,2,5,80,127,1950782956
18,15,Jits_Phase_8,3,1,48,94,1950827800
18,15,Jits_Phase_8,0,5,63,98,1951492588
18,15,Jits_Phase_8,1,5,56,103,1951513048
18,15,Jits_Phase_8,2,5,80,127,1951613292
18,15,Jits_Phase_8,3,1,48,72,1951651328
18,15,Jits_Phase_8,0,5,63,98,1952283128
18,15,Jits_Phase_8,1,5,80,127,1952392444
18,15,Jits_Phase_8,2,1,48,88,1952408220
18,15,Jits_Phase_8,3,5,56,103,1952423160
18,15,Jits_Phase_8,0,1,48,84,1953099252
18,15,Jits_Phase_8,1,5,56,103,1953103328
18,15,Jits_Phase_8,2,5,63,98,1953133004
18,15,Jits_Phase_8,3,1,48,40,1953149964
18,15,Jits_Phase_8,4,5,80,127,1953183256
18,15,Jits_Phase_8,0,1,48,90,1953813188
18,15,Jits_Phase_8,1,1,48,36,1953862992
18,15,Jits_Phase_8,2,5,63,98,1953873204
18,15,Jits_Phase_8,3,5,56,103,1953903104
18,15,Jits_Phase_8,4,5,80,127,1953953156
18,15,Jits_Phase_8,0,1,48,103,1954576556
18,15,Jits_Phase_8,1,1,48,37,1954637592
18,15,Jits_Phase_8,2,5,56,103,1954702808
18,15,Jits_Phase_8,3,5,63,98,1954723116
18,15,Jits_Phase_8,4,5,80,127,1954803144
18,15,Jits_Phase_8,0,1,48,83,1955415184
18,15,Jits_Phase_8,1,1,48,38,1955469096
18,15,Jits_Phase_8,2,5,63,98,1955472880
18,15,Jits_Phase_8,3,5,56,103,1955533120
18,15,Jits_Phase_8,4,5,80,127,1955563076
18,15,Jits_Phase_8,0,1,48,94,1956309144
18,15,Jits_Phase_8,1,5,56,103,1956312400
18,15,Jits_Phase_8,2,5,80,127,1956373036
18,15,Jits_Phase_8,3,5,63,98,1956412884
18,15,Jits_Phase_8,0,5,63,98,1957092908
18,15,Jits_Phase_8,1,1,48,100,1957096480
18,15,Jits_Phase_8,2,5,56,103,1957153092
18,15,Jits_Phase_8,3,5,80,127,1957222904
18,15,Jits_Phase_8,0,1,48,108,1957802220
18,15,Jits_Phase_8,1,5,56,103,1957973224
18,15,Jits_Phase_8,2,5,63,98,1957982520
18,15,Jits_Phase_8,3,5,80,127,1957986032
18,15,Jits_Phase_8,0,1,48,73,1958705336
18,15,Jits_Phase_8,1,5,63,98,1958712632
18,15,Jits_Phase_8,2,1,48,52,1958733120
18,15,Jits_Phase_8,3,5,56,103,1958772996
18,15,Jits_Phase_8,4,5,80,127,1958776140
18,15,Jits_Phase_8,0,1,48,61,1959430580
18,15,Jits_Phase_8,1,1,48,43,1959462692
18,15,Jits_Phase_8,2,5,63,98,1959492988
18,15,Jits_Phase_8,3,5,80,127,1959522812
18,15,Jits_Phase_8,4,5,56,103,1959543196
18,15,Jits_Phase_8,0,5,56,103,1960223048
18,15,Jits_Phase_8,1,5,63,98,1960273176
18,15,Jits_Phase_8,2,1,48,73,1960338392
18,15,Jits_Phase_8,3,5,80,127,1960353184
18,15,Jits_Phase_8,4,1,48,44,1960375840
18,15,Jits_Phase_8,0,5,80,127,1960922520
18,15,Jits_Phase_8,1,5,63,98,1960962408
18,15,Jits_Phase_8,2,5,56,103,1960982868
18,15,Jits_Phase_8,3,1,48,64,1961038196
18,15,Jits_Phase_8,0,1,48,66,1961769324
18,15,Jits_Phase_8,1,5,56,103,1961792808
18,15,Jits_Phase_8,2,5,80,127,1961803080
18,15,Jits_Phase_8,3,5,63,98,1961822788
18,15,Jits_Phase_8,0,1,48,69,1962572872
18,15,Jits_Phase_8,1,5,56,103,1962574284
18,15,Jits_Phase_8,2,5,63,98,1962623216
18,15,Jits_Phase_8,3,5,80,127,1962652964
18,15,Jits_Phase_8,0,5,56,103,1963322956
18,15,Jits_Phase_8,1,5,63,98,1963333080
18,15,Jits_Phase_8,2,5,80,127,1963383056
18,15,Jits_Phase_8,3,1,48,70,1963410364
18,15,Jits_Phase_8,0,5,56,103,1964113128
18,15,Jits_Phase_8,1,5,80,127,1964116200
18,15,Jits_Phase_8,2,1,48,70,1964176488
18,15,Jits_Phase_8,3,5,63,98,1964273012
18,15,Jits_Phase_8,0,5,63,98,1964932456
18,15,Jits_Phase_8,1,1,48,70,1964995808
18,15,Jits_Phase_8,2,5,56,103,1965003028
18,15,Jits_Phase_8,3,5,80,127,1965043064
18,15,Jits_Phase_8,0,5,63,98,1965773268
18,15,Jits_Phase_8,1,1,48,56,1965788072
18,15,Jits_Phase_8,2,5,56,103,1965863420
18,15,Jits_Phase_8,3,5,80,127,1965866560
18,15,Jits_Phase_8,0,5,56,103,1966552572
18,15,Jits_Phase_8,1,5,63,98,1966642804
18,15,Jits_Phase_8,2,5,80,127,1966652776
18,15,Jits_Phase_8,3,1,48,77,1966655896
18,15,Jits_Phase_8,0,5,56,103,1967322676
18,15,Jits_Phase_8,1,5,63,98,1967372608
18,15,Jits_Phase_8,2,5,80,127,1967403624
18,15,Jits_Phase_8,3,1,48,74,1967472224
18,15,Jits_Phase_8,0,5,63,98,1968203012
18,15,Jits_Phase_8,1,5,80,127,1968213356
18,15,Jits_Phase_8,2,1,48,76,1968239096
18,15,Jits_Phase_8,3,5,56,103,1968272840
18,15,Jits_Phase_8,0,5,63,98,1968923056
18,15,Jits_Phase_8,1,5,80,127,1968983672
18,15,Jits_Phase_8,2,5,56,103,1969023460
18,15,Jits_Phase_8,3,1,48,87,1969059384
18,15,Jits_Phase_8,0,5,56,103,1969823056
18,15,Jits_Phase_8,1,5,80,127,1969842696
18,15,Jits_Phase_8,2,1,48,72,1969851520
18,15,Jits_Phase_8,3,5,63,98,1969862924
18,15,Jits_Phase_8,0,5,63,98,1970542900
18,15,Jits_Phase_8,1,5,56,103,1970562464
18,15,Jits_Phase_8,2,5,80,127,1970603744
18,15,Jits_Phase_8,3,1,48,85,1970679624
18,15,Jits_Phase_8,0,5,63,98,1971352924
18,15,Jits_Phase_8,1,5,80,127,1971382600
18,15,Jits_Phase_8,2,5,56,103,1971403132
18,15,Jits_Phase_8,3,1,48,59,1971414272
18,15,Jits_Phase_8,0,5,80,127,1972123008
18,15,Jits_Phase_8,1,1,48,74,1972151532
18,15,Jits_Phase_8,2,5,56,103,1972173128
18,15,Jits_Phase_8,3,5,63,98,1972232644
18,15,Jits_Phase_8,0,5,63,98,1972912664
18,15,Jits_Phase_8,1,1,48,78,1972977916
18,15,Jits_Phase_8,2,5,56,103,1973033456
18,15,Jits_Phase_8,3,5,80,127,1973062980
18,15,Jits_Phase_8,0,5,80,127,1973753056
18,15,Jits_Phase_8,1,5,63,98,1973772616
18,15,Jits_Phase_8,2,1,48,81,1973791472
18,15,Jits_Phase_8,3,5,56,103,1973843484
18,15,Jits_Phase_8,0,1,48,89,1974547392
18,15,Jits_Phase_8,1,5,63,98,1974573500
18,15,Jits_Phase_8,2,5,56,103,1974582648
18,15,Jits_Phase_8,3,5,80,127,1974662648
18,15,Jits_Phase_8,0,1,48,92,1975366712
18,15,Jits_Phase_8,1,5,56,103,1975432524
18,15,Jits_Phase_8,2,5,80,127,1975463468
18,15,Jits_Phase_8,3,5,63,98,1975472604
18,15,Jits_Phase_8,0,9999,9999,9999,1840590900
18,15,Jits_Phase_8,1,9999,9999,9999,1841390692
18,15,Jits_Phase_8,2,9999,9999,9999,1842190456
18,15,Jits_Phase_8,3,9999,9999,9999,1842990192
18,15,Jits_Phase_8,4,9999,9999,9999,1843790924
18,15,Jits_Phase_8,5,9999,9999,9999,1844590712
18,15,Jits_Phase_8,6,9999,9999,9999,1845390428
18,15,Jits_Phase_8,7,9999,9999,9999,1846190152
18,15,Jits_Phase_8,8,9999,9999,9999,1846990932
18,15,Jits_Phase_8,9,9999,9999,9999,1847790708
18,15,Jits_Phase_8,10,9999,9999,9999,1848590460
18,15,Jits_Phase_8,11,9999,9999,9999,1849390176
18,15,Jits_Phase_8,12,9999,9999,9999,1850190932
18,15,Jits_Phase_8,13,9999,9999,9999,1850990716
18,15,Jits_Phase_8,14,9999,9999,9999,1851790416
18,15,Jits_Phase_8,15,9999,9999,9999,1852590136
18,15,Jits_Phase_8,16,9999,9999,9999,1853390904
18,15,Jits_Phase_8,17,9999,9999,9999,1854190684
18,15,Jits_Phase_8,18,9999,9999,9999,1854990440
18,15,Jits_Phase_8,19,9999,9999,9999,1855790192
18,15,Jits_Phase_8,20,9999,9999,9999,1856590920
18,15,Jits_Phase_8,21,9999,9999,9999,1857390676
18,15,Jits_Phase_8,22,9999,9999,9999,1858190440
18,15,Jits_Phase_8,23,9999,9999,9999,1858990200
18,15,Jits_Phase_8,24,9999,9999,9999,1859790924
18,15,Jits_Phase_8,25,9999,9999,9999,1860590680
18,15,Jits_Phase_8,26,9999,9999,9999,1861390400
18,15,Jits_Phase_8,27,9999,9999,9999,1862190156
18,15,Jits_Phase_8,28,9999,9999,9999,1862990972
18,15,Jits_Phase_8,29,9999,9999,9999,1863790676
18,15,Jits_Phase_8,30,9999,9999,9999,1864570952
18,15,Jits_Phase_8,31,9999,9999,9999,1865370720
18,15,Jits_Phase_8,32,9999,9999,9999,1866170428
18,15,Jits_Phase_8,33,9999,9999,9999,1866970172
18,15,Jits_Phase_8,34,9999,9999,9999,1867770996
18,15,Jits_Phase_8,35,9999,9999,9999,1868570704
18,15,Jits_Phase_8,36,9999,9999,9999,1869370468
18,15,Jits_Phase_8,37,9999,9999,9999,1870170200
18,15,Jits_Phase_8,38,9999,9999,9999,1870970940
18,15,Jits_Phase_8,39,9999,9999,9999,1871770716
18,15,Jits_Phase_8,40,9999,9999,9999,1872570476
18,15,Jits_Phase_8,41,9999,9999,9999,1873370172
18,15,Jits_Phase_8,42,9999,9999,9999,1874171000
18,15,Jits_Phase_8,43,9999,9999,9999,1874970692
18,15,Jits_Phase_8,44,9999,9999,9999,1875770432
18,15,Jits_Phase_8,45,9999,9999,9999,1876570168
18,15,Jits_Phase_8,46,9999,9999,9999,1877370972
18,15,Jits_Phase_8,47,9999,9999,9999,1878170736
18,15,Jits_Phase_8,48,9999,9999,9999,1878990908
18,15,Jits_Phase_8,49,9999,9999,9999,1879790696
18,15,Jits_Phase_8,50,9999,9999,9999,1880590448
18,15,Jits_Phase_8,51,9999,9999,9999,1881390184
18,15,Jits_Phase_8,52,9999,9999,9999,1882190932
18,15,Jits_Phase_8,53,9999,9999,9999,1882990704
18,15,Jits_Phase_8,54,9999,9999,9999,1883790400
18,15,Jits_Phase_8,55,9999,9999,9999,1884590176
18,15,Jits_Phase_8,56,9999,9999,9999,1885390956
18,15,Jits_Phase_8,57,9999,9999,9999,1886190708
18,15,Jits_Phase_8,58,9999,9999,9999,1886990428
18,15,Jits_Phase_8,59,9999,9999,9999,1887790136
18,15,Jits_Phase_8,60,9999,9999,9999,1888590968
18,15,Jits_Phase_8,61,9999,9999,9999,1889390656
18,15,Jits_Phase_8,62,9999,9999,9999,1890190432
18,15,Jits_Phase_8,63,9999,9999,9999,1890990184
18,15,Jits_Phase_8,64,9999,9999,9999,1891830892
18,15,Jits_Phase_8,65,9999,9999,9999,1892630628
18,15,Jits_Phase_8,66,9999,9999,9999,1893430364
18,15,Jits_Phase_8,67,9999,9999,9999,1894230124
18,15,Jits_Phase_8,68,9999,9999,9999,1895030856
18,15,Jits_Phase_8,69,9999,9999,9999,1895830648
18,15,Jits_Phase_8,70,9999,9999,9999,1896630340
18,15,Jits_Phase_8,71,9999,9999,9999,1897430112
18,15,Jits_Phase_8,72,9999,9999,9999,1898230892
18,15,Jits_Phase_8,73,9999,9999,9999,1899030632
18,15,Jits_Phase_8,74,9999,9999,9999,1899830356
18,15,Jits_Phase_8,75,9999,9999,9999,1900630096
18,15,Jits_Phase_8,76,9999,9999,9999,1901430896
18,15,Jits_Phase_8,77,9999,9999,9999,1902230644
18,15,Jits_Phase_8,78,9999,9999,9999,1903030368
18,15,Jits_Phase_8,79,9999,9999,9999,1903830116
18,15,Jits_Phase_8,80,9999,9999,9999,1904630868
18,15,Jits_Phase_8,81,9999,9999,9999,1905390660
18,15,Jits_Phase_8,82,9999,9999,9999,1906190448
18,15,Jits_Phase_8,83,9999,9999,9999,1906990192
18,15,Jits_Phase_8,84,9999,9999,9999,1907790912
18,15,Jits_Phase_8,85,9999,9999,9999,1908590656
18,15,Jits_Phase_8,86,9999,9999,9999,1909390444
18,15,Jits_Phase_8,87,9999,9999,9999,1910190156
18,15,Jits_Phase_8,88,9999,9999,9999,1910990960
18,15,Jits_Phase_8,89,9999,9999,9999,1911790704
18,15,Jits_Phase_8,90,9999,9999,9999,1912590396
18,15,Jits_Phase_8,91,9999,9999,9999,1913390184
18,15,Jits_Phase_8,92,9999,9999,9999,1914190964
18,15,Jits_Phase_8,93,9999,9999,9999,1914990696
18,15,Jits_Phase_8,94,9999,9999,9999,1915790456
18,15,Jits_Phase_8,95,9999,9999,9999,1916590152
18,15,Jits_Phase_8,96,9999,9999,9999,1917390972
18,15,Jits_Phase_8,97,9999,9999,9999,1918110844
18,15,Jits_Phase_8,98,9999,9999,9999,1918910528
18,15,Jits_Phase_8,99,9999,9999,9999,1919710304
18,15,Jits_Phase_8,100,9999,9999,9999,1920511068
18,15,Jits_Phase_8,101,9999,9999,9999,1921310824
18,15,Jits_Phase_8,102,9999,9999,9999,1922110588
18,15,Jits_Phase_8,103,9999,9999,9999,1922910284
18,15,Jits_Phase_8,104,9999,9999,9999,1923711104
18,15,Jits_Phase_8,105,9999,9999,9999,1924510792
18,15,Jits_Phase_8,106,9999,9999,9999,1925310544
18,15,Jits_Phase_8,107,9999,9999,9999,1926110284
18,15,Jits_Phase_8,108,9999,9999,9999,1926911040
18,15,Jits_Phase_8,109,9999,9999,9999,1927710792
18,15,Jits_Phase_8,110,9999,9999,9999,1928510552
18,15,Jits_Phase_8,111,9999,9999,9999,1929310292
18,15,Jits_Phase_8,112,9999,9999,9999,1930111080
18,15,Jits_Phase_8,113,9999,9999,9999,1930910776
18,15,Jits_Phase_8,114,9999,9999,9999,1931790432
18,15,Jits_Phase_8,115,9999,9999,9999,1932590192
18,15,Jits_Phase_8,116,9999,9999,9999,1933390924
18,15,Jits_Phase_8,117,9999,9999,9999,1934190704
18,15,Jits_Phase_8,118,9999,9999,9999,1934990404
18,15,Jits_Phase_8,119,9999,9999,9999,1935790172
18,15,Jits_Phase_8,120,9999,9999,9999,1936590916
18,15,Jits_Phase_8,121,9999,9999,9999,1937390676
18,15,Jits_Phase_8,122,9999,9999,9999,1938190444
18,15,Jits_Phase_8,123,9999,9999,9999,1938990196
18,15,Jits_Phase_8,124,9999,9999,9999,1939790932
18,15,Jits_Phase_8,125,9999,9999,9999,1940590696
18,15,Jits_Phase_8,126,9999,9999,9999,1941390460
18,15,Jits_Phase_8,127,9999,9999,9999,1942190148
18,15,Jits_Phase_8,128,9999,9999,9999,1942990956
18,15,Jits_Phase_8,129,9999,9999,9999,1943790708
18,15,Jits_Phase_8,130,9999,9999,9999,1944590448
18,15,Jits_Phase_8,131,9999,9999,9999,1945550956
18,15,Jits_Phase_8,132,9999,9999,9999,1946350712
18,15,Jits_Phase_8,133,9999,9999,9999,1947150424
18,15,Jits_Phase_8,134,9999,9999,9999,1947950200
18,15,Jits_Phase_8,135,9999,9999,9999,1948750916
18,15,Jits_Phase_8,136,9999,9999,9999,1949550672
18,15,Jits_Phase_8,137,9999,9999,9999,1950350448
18,15,Jits_Phase_8,138,9999,9999,9999,1951150144
18,15,Jits_Phase_8,139,9999,9999,9999,1951950964
18,15,Jits_Phase_8,140,9999,9999,9999,1952750648
18,15,Jits_Phase_8,141,9999,9999,9999,1953550404
18,15,Jits_Phase_8,142,9999,9999,9999,1954350188
18,15,Jits_Phase_8,143,9999,9999,9999,1955150952
18,15,Jits_Phase_8,144,9999,9999,9999,1955950688
18,15,Jits_Phase_8,145,9999,9999,9999,1956750428
18,15,Jits_Phase_8,146,9999,9999,9999,1957550188
18,15,Jits_Phase_8,147,9999,9999,9999,1958350924
18,15,Jits_Phase_8,148,9999,9999,9999,1959150680
18,15,Jits_Phase_8,149,9999,9999,9999,1959950416
18,15,Jits_Phase_8,150,9999,9999,9999,1960590460
18,15,Jits_Phase_8,151,9999,9999,9999,1961390208
18,15,Jits_Phase_8,152,9999,9999,9999,1962190956
18,15,Jits_Phase_8,153,9999,9999,9999,1962990716
18,15,Jits_Phase_8,154,9999,9999,9999,1963790420
18,15,Jits_Phase_8,155,9999,9999,9999,1964590180
18,15,Jits_Phase_8,156,9999,9999,9999,1965390928
18,15,Jits_Phase_8,157,9999,9999,9999,1966190684
18,15,Jits_Phase_8,158,9999,9999,9999,1966990448
18,15,Jits_Phase_8,159,9999,9999,9999,1967790140
18,15,Jits_Phase_8,160,9999,9999,9999,1968590968
18,15,Jits_Phase_8,161,9999,9999,9999,1969390648
18,15,Jits_Phase_8,162,9999,9999,9999,1970190440
18,15,Jits_Phase_8,163,9999,9999,9999,1970990140
18,15,Jits_Phase_8,164,9999,9999,9999,1971790944
18,15,Jits_Phase_8,165,9999,9999,9999,1972590700
18,15,Jits_Phase_8,166,9999,9999,9999,1973390400
18,15,Jits_Phase_8,167,9999,9999,9999,1974190152
18,15,Jits_Phase_8,168,9999,9999,9999,1974990904
18,15,Jits_Phase_8,169,9999,9999,9999,1975790668
19,19,Jits_Linear_5,0,5,56,103,2009507156
19,19,Jits_Linear_5,1,5,63,98,2009510404
19,19,Jits_Linear_5,2,5,80,127,2009513596
19,19,Jits_Linear_5,0,5,56,103,2009986572
19,19,Jits_Linear_5,1,5,63,98,2009989596
19,19,Jits_Linear_5,2,5,80,127,2009992788
19,19,Jits_Linear_5,0,5,56,103,2010466528
19,19,Jits_Linear_5,1,5,80,127,2010477096
19,19,Jits_Linear_5,2,5,63,98,2010497332
19,19,Jits_Linear_5,0,5,63,98,2010896808
19,19,Jits_Linear_5,1,5,80,127,2010926336
19,19,Jits_Linear_5,2,5,56,103,2010936756
19,19,Jits_Linear_5,0,1,48,86,2011393932
19,19,Jits_Linear_5,1,5,80,127,2011437504
19,19,Jits_Linear_5,2,5,56,103,2011446652
19,19,Jits_Linear_5,3,5,63,98,2011477600
19,19,Jits_Linear_5,0,1,48,96,2011915772
19,19,Jits_Linear_5,1,5,63,98,2011917568
19,19,Jits_Linear_5,2,5,56,103,2011947392
19,19,Jits_Linear_5,3,5,80,127,2011956544
19,19,Jits_Linear_5,0,5,56,103,2012356928
19,19,Jits_Linear_5,1,5,63,98,2012407308
19,19,Jits_Linear_5,2,5,80,127,2012426500
19,19,Jits_Linear_5,3,1,48,94,2012463620
19,19,Jits_Linear_5,0,5,80,127,2012846588
19,19,Jits_Linear_5,1,1,48,81,2012896420
19,19,Jits_Linear_5,2,5,63,98,2012897908
19,19,Jits_Linear_5,3,5,56,103,2012936824
19,19,Jits_Linear_5,0,5,56,103,2013336852
19,19,Jits_Linear_5,1,5,63,98,2013366604
19,19,Jits_Linear_5,2,1,48,88,2013381256
19,19,Jits_Linear_5,3,5,80,127,2013437500
19,19,Jits_Linear_5,0,5,56,103,2013826516
19,19,Jits_Linear_5,1,1,48,82,2013856164
19,19,Jits_Linear_5,2,5,80,127,2013886756
19,19,Jits_Linear_5,3,5,63,98,2013916432
19,19,Jits_Linear_5,0,1,48,77,2014319144
19,19,Jits_Linear_5,1,5,56,103,2014327336
19,19,Jits_Linear_5,2,5,63,98,2014337460
19,19,Jits_Linear_5,3,1,48,38,2014368064
19,19,Jits_Linear_5,4,5,80,127,2014377376
19,19,Jits_Linear_5,0,5,63,98,2014816740
19,19,Jits_Linear_5,1,1,48,100,2014829824
19,19,Jits_Linear_5,2,5,80,127,2014896536
19,19,Jits_Linear_5,3,5,56,103,2014906732
19,19,Jits_Linear_5,0,5,63,98,2015366496
19,19,Jits_Linear_5,1,1,48,68,2015392528
19,19,Jits_Linear_5,2,5,56,103,2015406424
19,19,Jits_Linear_5,3,5,80,127,2015409492
19,19,Jits_Linear_5,0,5,56,103,2015827360
19,19,Jits_Linear_5,1,5,63,98,2015836508
19,19,Jits_Linear_5,2,5,80,127,2015876448
19,19,Jits_Linear_5,3,1,48,92,2015911700
19,19,Jits_Linear_5,0,5,56,103,2016316872
19,19,Jits_Linear_5,1,5,63,98,2016319788
19,19,Jits_Linear_5,2,5,80,127,2016337256
19,19,Jits_Linear_5,3,1,48,91,2016383740
19,19,Jits_Linear_5,0,5,80,127,2016837016
19,19,Jits_Linear_5,1,5,56,103,2016847360
19,19,Jits_Linear_5,2,1,48,85,2016884260
19,19,Jits_Linear_5,3,5,63,98,2016916740
19,19,Jits_Linear_5,0,5,63,98,2017336716
19,19,Jits_Linear_5,1,5,56,103,2017357400
19,19,Jits_Linear_5,2,1,48,89,2017381496
19,19,Jits_Linear_5,3,5,80,127,2017436892
19,19,Jits_Linear_5,0,5,56,103,2017856784
19,19,Jits_Linear_5,1,1,48,95,2017892860
19,19,Jits_Linear_5,2,5,80,127,2017896792
19,19,Jits_Linear_5,3,5,63,98,2017906988
19,19,Jits_Linear_5,0,5,80,127,2018356484
19,19,Jits_Linear_5,1,1,48,89,2018374820
19,19,Jits_Linear_5,2,5,63,98,2018387352
19,19,Jits_Linear_5,3,5,56,103,2018427440
19,19,Jits_Linear_5,0,5,56,103,2018886976
19,19,Jits_Linear_5,1,1,48,114,2018902676
19,19,Jits_Linear_5,2,5,63,98,2018916652
19,19,Jits_Linear_5,3,5,80,127,2018966928
19,19,Jits_Linear_5,0,5,80,127,2019397108
19,19,Jits_Linear_5,1,1,48,100,2019414620
19,19,Jits_Linear_5,2,5,56,103,2019437340
19,19,Jits_Linear_5,3,5,63,98,2019447240
19,19,Jits_Linear_5,0,5,80,127,2019896672
19,19,Jits_Linear_5,1,5,63,98,2019936612
19,19,Jits_Linear_5,2,1,48,88,2019941528
19,19,Jits_Linear_5,3,5,56,103,2019997296
19,19,Jits_Linear_5,0,5,56,103,2020416976
19,19,Jits_Linear_5,1,5,80,127,2020427472
19,19,Jits_Linear_5,2,1,48,84,2020435692
19,19,Jits_Linear_5,3,5,63,98,2020507112
19,19,Jits_Linear_5,0,5,80,127,2020937352
19,19,Jits_Linear_5,1,1,48,73,2020954272
19,19,Jits_Linear_5,2,5,63,98,2020996396
19,19,Jits_Linear_5,3,5,56,103,2021027344
19,19,Jits_Linear_5,0,5,56,103,2021457288
19,19,Jits_Linear_5,1,1,48,65,2021471492
19,19,Jits_Linear_5,2,5,80,127,2021516704
19,19,Jits_Linear_5,3,5,63,98,2021556640
19,19,Jits_Linear_5,0,1,48,64,2022023184
19,19,Jits_Linear_5,1,5,56,103,2022036780
19,19,Jits_Linear_5,2,5,63,98,2022047348
19,19,Jits_Linear_5,3,5,80,127,2022050560
19,19,Jits_Linear_5,0,5,80,127,2022517284
19,19,Jits_Linear_5,1,1,48,64,2022568732
19,19,Jits_Linear_5,2,5,63,98,2022607120
19,19,Jits_Linear_5,3,5,56,103,2022616492
19,19,Jits_Linear_5,0,5,56,103,2023046496
19,19,Jits_Linear_5,1,5,63,98,2023049664
19,19,Jits_Linear_5,2,5,80,127,2023052864
19,19,Jits_Linear_5,3,1,48,83,2023072468
19,19,Jits_Linear_5,0,1,48,85,2023578972
19,19,Jits_Linear_5,1,5,80,127,2023597428
19,19,Jits_Linear_5,2,5,63,98,2023646512
19,19,Jits_Linear_5,3,5,56,103,2023677392
19,19,Jits_Linear_5,0,5,56,103,2024107240
19,19,Jits_Linear_5,1,5,80,127,2024116464
19,19,Jits_Linear_5,2,1,48,93,2024123696
19,19,Jits_Linear_5,3,5,63,98,2024187212
19,19,Jits_Linear_5,0,5,56,103,2024647172
19,19,Jits_Linear_5,1,1,48,101,2024662052
19,19,Jits_Linear_5,2,5,63,98,2024666356
19,19,Jits_Linear_5,3,5,80,127,2024727068
19,19,Jits_Linear_5,0,5,80,127,2025176480
19,19,Jits_Linear_5,1,1,48,97,2025229220
19,19,Jits_Linear_5,2,5,63,98,2025247228
19,19,Jits_Linear_5,3,5,56,103,2025266492
19,19,Jits_Linear_5,0,5,80,127,2025736444
19,19,Jits_Linear_5,1,5,56,103,2025746868
19,19,Jits_Linear_5,2,5,63,98,2025757212
19,19,Jits_Linear_5,3,1,48,74,2025774276
19,19,Jits_Linear_5,0,5,80,127,2026267156
19,19,Jits_Linear_5,1,5,56,103,2026286424
19,19,Jits_Linear_5,2,1,48,92,2026291032
19,19,Jits_Linear_5,3,5,63,98,2026357144
19,19,Jits_Linear_5,0,5,56,103,2026817132
19,19,Jits_Linear_5,1,1,48,93,2026846288
19,19,Jits_Linear_5,2,5,80,127,2026848148
19,19,Jits_Linear_5,3,5,63,98,2026867336
19,19,Jits_Linear_5,0,5,63,98,2027356472
19,19,Jits_Linear_5,1,1,48,86,2027378776
19,19,Jits_Linear_5,2,5,56,103,2027417156
19,19,Jits_Linear_5,3,5,80,127,2027446684
19,19,Jits_Linear_5,0,5,63,98,2027897216
19,19,Jits_Linear_5,1,5,80,127,2027900580
19,19,Jits_Linear_5,2,1,48,94,2027928056
19,19,Jits_Linear_5,3,5,56,103,2027987420
19,19,Jits_Linear_5,0,5,56,103,2028466500
19,19,Jits_Linear_5,1,5,63,98,2028497224
19,19,Jits_Linear_5,2,1,48,63,2028505892
19,19,Jits_Linear_5,3,5,80,127,2028537108
19,19,Jits_Linear_5,0,1,48,81,2029012464
19,19,Jits_Linear_5,1,5,63,98,2029016620
19,19,Jits_Linear_5,2,5,56,103,2029057260
19,19,Jits_Linear_5,3,5,80,127,2029077044
19,19,Jits_Linear_5,0,1,48,71,2029538460
19,19,Jits_Linear_5,1,5,63,98,2029576644
19,19,Jits_Linear_5,2,5,56,103,2029616588
19,19,Jits_Linear_5,3,5,80,127,2029627080
19,19,Jits_Linear_5,0,1,48,74,2030097440
19,19,Jits_Linear_5,1,5,80,127,2030106904
19,19,Jits_Linear_5,2,5,63,98,2030176740
19,19,Jits_Linear_5,3,5,56,103,2030197036
19,19,Jits_Linear_5,0,5,56,103,2030656872
19,19,Jits_Linear_5,1,1,48,87,2030669060
19,19,Jits_Linear_5,2,5,80,127,2030677252
19,19,Jits_Linear_5,3,5,63,98,2030717340
19,19,Jits_Linear_5,0,1,48,88,2031205396
19,19,Jits_Linear_5,1,5,63,98,2031227220
19,19,Jits_Linear_5,2,5,80,127,2031246856
19,19,Jits_Linear_5,3,5,56,103,2031286644
19,19,Jits_Linear_5,0,1,48,97,2031754528
19,19,Jits_Linear_5,1,5,63,98,2031787364
19,19,Jits_Linear_5,2,5,56,103,2031807004
19,19,Jits_Linear_5,3,5,80,127,2031817272
19,19,Jits_Linear_5,0,1,48,79,2032316692
19,19,Jits_Linear_5,1,5,80,127,2032346460
19,19,Jits_Linear_5,2,5,56,103,2032367020
19,19,Jits_Linear_5,3,5,63,98,2032396620
19,19,Jits_Linear_5,0,1,48,94,2032865380
19,19,Jits_Linear_5,1,5,56,103,2032986488
19,19,Jits_Linear_5,2,5,80,127,2032989404
19,19,Jits_Linear_5,3,5,63,98,2033007020
19,19,Jits_Linear_5,0,1,48,83,2033475688
19,19,Jits_Linear_5,1,5,63,98,2033477112
19,19,Jits_Linear_5,2,5,56,103,2033506864
19,19,Jits_Linear_5,3,5,80,127,2033567032
19,19,Jits_Linear_5,0,5,63,98,2034127180
19,19,Jits_Linear_5,1,5,56,103,2034136328
19,19,Jits_Linear_5,2,5,80,127,2034146600
19,19,Jits_Linear_5,3,1,48,81,2034364364
19,19,Jits_Linear_5,0,5,56,103,2034647324
19,19,Jits_Linear_5,1,5,80,127,2034677100
19,19,Jits_Linear_5,2,5,63,98,2034687296
19,19,Jits_Linear_5,3,1,48,80,2034896736
19,19,Jits_Linear_5,4,1,48,53,2034922704
19,19,Jits_Linear_5,0,5,63,98,2035256940
19,19,Jits_Linear_5,1,5,56,103,2035267060
19,19,Jits_Linear_5,2,5,80,127,2035287296
19,19,Jits_Linear_5,3,1,48,68,2035478400
19,19,Jits_Linear_5,0,5,56,103,2035757524
19,19,Jits_Linear_5,1,5,63,98,2035816872
19,19,Jits_Linear_5,2,5,80,127,2035820088
19,19,Jits_Linear_5,3,1,48,62,2036076684
19,19,Jits_Linear_5,0,5,80,127,2036356496
19,19,Jits_Linear_5,1,5,56,103,2036366840
19,19,Jits_Linear_5,2,5,63,98,2036437496
19,19,Jits_Linear_5,0,1,48,67,2036681660
19,19,Jits_Linear_5,1,5,80,127,2036926768
19,19,Jits_Linear_5,2,5,56,103,2036996476
19,19,Jits_Linear_5,3,5,63,98,2037006896
19,19,Jits_Linear_5,0,1,48,66,2037348964
19,19,Jits_Linear_5,1,5,63,98,2037547480
19,19,Jits_Linear_5,2,5,56,103,2037556556
19,19,Jits_Linear_5,3,5,80,127,2037577088
19,19,Jits_Linear_5,0,1,48,59,2037923196
19,19,Jits_Linear_5,1,5,80,127,2038076912
19,19,Jits_Linear_5,2,5,63,98,2038137308
19,19,Jits_Linear_5,3,5,56,103,2038177024
19,19,Jits_Linear_5,0,1,48,66,2038582196
19,19,Jits_Linear_5,1,5,56,103,2038706820
19,19,Jits_Linear_5,2,5,63,98,2038716868
19,19,Jits_Linear_5,3,5,80,127,2038756804
19,19,Jits_Linear_5,0,1,48,74,2039217436
19,19,Jits_Linear_5,1,1,48,45,2039250076
19,19,Jits_Linear_5,2,5,56,103,2039256472
19,19,Jits_Linear_5,3,5,80,127,2039287148
19,19,Jits_Linear_5,4,5,63,98,2039337276
19,19,Jits_Linear_5,0,5,56,103,2039887076
19,19,Jits_Linear_5,1,1,48,77,2039890716
19,19,Jits_Linear_5,2,5,63,98,2039927004
19,19,Jits_Linear_5,3,5,80,127,2039930372
19,19,Jits_Linear_5,0,5,56,103,2040487240
19,19,Jits_Linear_5,1,5,63,98,2040496616
19,19,Jits_Linear_5,2,5,80,127,2040516852
19,19,Jits_Linear_5,3,1,48,21,2040537428
19,19,Jits_Linear_5,0,5,56,103,2041037208
19,19,Jits_Linear_5,1,5,80,127,2041040424
19,19,Jits_Linear_5,2,1,48,87,2041047228
19,19,Jits_Linear_5,3,5,63,98,2041077092
19,19,Jits_Linear_5,0,1,48,85,2041617588
19,19,Jits_Linear_5,1,5,63,98,2041666836
19,19,Jits_Linear_5,2,5,56,103,2041696736
19,19,Jits_Linear_5,3,5,80,127,2041717108
19,19,Jits_Linear_5,0,1,48,64,2042216624
19,19,Jits_Linear_5,1,5,80,127,2042237248
19,19,Jits_Linear_5,2,5,56,103,2042246696
19,19,Jits_Linear_5,3,5,63,98,2042257188
19,19,Jits_Linear_5,0,1,48,63,2042823132
19,19,Jits_Linear_5,1,5,56,103,2042837476
19,19,Jits_Linear_5,2,5,80,127,2042877220
19,19,Jits_Linear_5,3,1,48,26,2042884972
19,19,Jits_Linear_5,4,5,63,98,2042906872
19,19,Jits_Linear_5,0,5,63,98,2043446632
19,19,Jits_Linear_5,1,5,80,127,2043456828
19,19,Jits_Linear_5,2,1,48,74,2043465968
19,19,Jits_Linear_5,3,5,56,103,2043467612
19,19,Jits_Linear_5,0,5,56,103,2044027156
19,19,Jits_Linear_5,1,1,48,84,2044086020
19,19,Jits_Linear_5,2,5,63,98,2044096836
19,19,Jits_Linear_5,3,5,80,127,2044107180
19,19,Jits_Linear_5,0,5,80,127,2044636620
19,19,Jits_Linear_5,1,5,56,103,2044646892
19,19,Jits_Linear_5,2,1,48,83,2044648608
19,19,Jits_Linear_5,3,5,63,98,2044696964
19,19,Jits_Linear_5,0,5,80,127,2045257048
19,19,Jits_Linear_5,1,1,48,72,2045260684
19,19,Jits_Linear_5,2,5,56,103,2045316612
19,19,Jits_Linear_5,3,5,63,98,2045347112
19,19,Jits_Linear_5,0,5,56,103,2045867556
19,19,Jits_Linear_5,1,5,80,127,2045870696
19,19,Jits_Linear_5,2,1,48,70,2045872264
19,19,Jits_Linear_5,3,5,63,98,2045907416
19,19,Jits_Linear_5,0,1,48,71,2046486444
19,19,Jits_Linear_5,1,5,56,103,2046507520
19,19,Jits_Linear_5,2,5,63,98,2046536976
19,19,Jits_Linear_5,3,5,80,127,2046547248
19,19,Jits_Linear_5,0,1,48,57,2047126268
19,19,Jits_Linear_5,1,5,63,98,2047127760
19,19,Jits_Linear_5,2,5,80,127,2047137132
19,19,Jits_Linear_5,3,5,56,103,2047147480
19,19,Jits_Linear_5,0,5,80,127,2047686944
19,19,Jits_Linear_5,1,1,48,68,2047737020
19,19,Jits_Linear_5,2,5,56,103,2047738532
19,19,Jits_Linear_5,3,5,63,98,2047741204
19,19,Jits_Linear_5,0,1,48,64,2048323500
19,19,Jits_Linear_5,1,5,56,103,2048337396
19,19,Jits_Linear_5,2,5,80,127,2048356736
19,19,Jits_Linear_5,3,5,63,98,2048367008
19,19,Jits_Linear_5,0,1,48,67,2048908976
19,19,Jits_Linear_5,1,5,63,98,2048937624
19,19,Jits_Linear_5,2,5,56,103,2048966928
19,19,Jits_Linear_5,3,5,80,127,2048986564
19,19,Jits_Linear_5,0,1,48,64,2049556060
19,19,Jits_Linear_5,1,5,56,103,2049567540
19,19,Jits_Linear_5,2,5,80,127,2049577440
19,19,Jits_Linear_5,3,5,63,98,2049646824
19,19,Jits_Linear_5,0,1,48,71,2050162868
19,19,Jits_Linear_5,1,5,63,98,2050177588
19,19,Jits_Linear_5,2,5,80,127,2050217452
19,19,Jits_Linear_5,3,5,56,103,2050257540
19,19,Jits_Linear_5,0,1,48,67,2050811008
19,19,Jits_Linear_5,1,5,56,103,2050817556
19,19,Jits_Linear_5,2,5,63,98,2050826556
19,19,Jits_Linear_5,3,5,80,127,2050847236
19,19,Jits_Linear_5,0,1,48,70,2051391004
19,19,Jits_Linear_5,1,5,63,98,2051487148
19,19,Jits_Linear_5,2,5,80,127,2051506416
19,19,Jits_Linear_5,3,5,56,103,2051527024
19,19,Jits_Linear_5,0,5,56,103,2052056388
19,19,Jits_Linear_5,1,5,80,127,2052137556
19,19,Jits_Linear_5,2,1,48,74,2052144360
19,19,Jits_Linear_5,3,5,63,98,2052146476
19,19,Jits_Linear_5,0,1,48,82,2052718136
19,19,Jits_Linear_5,1,5,80,127,2052727304
19,19,Jits_Linear_5,2,5,63,98,2052737424
19,19,Jits_Linear_5,3,5,56,103,2052767176
19,19,Jits_Linear_5,0,1,48,79,2053307508
19,19,Jits_Linear_5,1,5,63,98,2053316972
19,19,Jits_Linear_5,2,5,80,127,2053356936
19,19,Jits_Linear_5,3,5,56,103,2053417384
19,19,Jits_Linear_5,0,1,48,84,2053945296
19,19,Jits_Linear_5,1,5,63,98,2053967348
19,19,Jits_Linear_5,2,5,56,103,2054017552
19,19,Jits_Linear_5,3,5,80,127,2054047360
19,19,Jits_Linear_5,0,1,48,69,2054597448
19,19,Jits_Linear_5,1,5,80,127,2054616428
19,19,Jits_Linear_5,2,5,63,98,2054626628
19,19,Jits_Linear_5,3,5,56,103,2054697512
19,19,Jits_Linear_5,0,1,48,57,2055251116
19,19,Jits_Linear_5,1,5,80,127,2055327272
19,19,Jits_Linear_5,2,5,56,103,2055337392
19,19,Jits_Linear_5,3,5,63,98,2055340680
19,19,Jits_Linear_5,0,5,56,103,2055906600
19,19,Jits_Linear_5,1,5,80,127,2055927084
19,19,Jits_Linear_5,2,5,63,98,2055937504
19,19,Jits_Linear_5,3,1,48,73,2055950664
19,19,Jits_Linear_5,0,5,63,98,2056556772
19,19,Jits_Linear_5,1,1,48,67,2056567756
19,19,Jits_Linear_5,2,5,56,103,2056596780
19,19,Jits_Linear_5,3,5,80,127,2056617240
19,19,Jits_Linear_5,0,5,63,98,2057196816
19,19,Jits_Linear_5,1,1,48,66,2057224276
19,19,Jits_Linear_5,2,5,56,103,2057257424
19,19,Jits_Linear_5,3,5,80,127,2057260416
19,19,Jits_Linear_5,0,5,56,103,2057816444
19,19,Jits_Linear_5,1,5,80,127,2057836980
19,19,Jits_Linear_5,2,1,48,72,2057869392
19,19,Jits_Linear_5,3,5,63,98,2057876912
19,19,Jits_Linear_5,0,1,48,68,2058426092
19,19,Jits_Linear_5,1,5,56,103,2058497244
19,19,Jits_Linear_5,2,5,63,98,2058518064
19,19,Jits_Linear_5,3,5,80,127,2058527212
19,19,Jits_Linear_5,0,1,48,60,2059104492
19,19,Jits_Linear_5,1,5,80,127,2059116800
19,19,Jits_Linear_5,2,5,56,103,2059146700
19,19,Jits_Linear_5,3,5,63,98,2059186568
19,19,Jits_Linear_5,0,5,80,127,2059777372
19,19,Jits_Linear_5,1,1,48,65,2059794120
19,19,Jits_Linear_5,2,5,56,103,2059796708
19,19,Jits_Linear_5,3,5,63,98,2059857172
19,19,Jits_Linear_5,0,5,56,103,2060436736
19,19,Jits_Linear_5,1,5,80,127,2060457420
19,19,Jits_Linear_5,2,1,48,66,2060462556
19,19,Jits_Linear_5,3,5,63,98,2060516608
19,19,Jits_Linear_5,0,5,80,127,2061076788
19,19,Jits_Linear_5,1,5,56,103,2061087356
19,19,Jits_Linear_5,2,1,48,72,2061113916
19,19,Jits_Linear_5,3,5,63,98,2061127140
19,19,Jits_Linear_5,0,5,63,98,2061737264
19,19,Jits_Linear_5,1,1,48,62,2061750572
19,19,Jits_Linear_5,2,5,56,103,2061777344
19,19,Jits_Linear_5,3,5,80,127,2061780260
19,19,Jits_Linear_5,0,5,63,98,2062417300
19,19,Jits_Linear_5,1,1,48,62,2062421168
19,19,Jits_Linear_5,2,5,80,127,2062457232
19,19,Jits_Linear_5,3,5,56,103,2062486832
19,19,Jits_Linear_5,0,5,56,103,2063066528
19,19,Jits_Linear_5,1,5,63,98,2063076724
19,19,Jits_Linear_5,2,1,48,73,2063101516
19,19,Jits_Linear_5,3,5,80,127,2063106272
19,19,Jits_Linear_5,0,5,80,127,2063727180
19,19,Jits_Linear_5,1,1,48,79,2063735032
19,19,Jits_Linear_5,2,5,63,98,2063796488
19,19,Jits_Linear_5,3,5,56,103,2063806908
19,19,Jits_Linear_5,0,5,63,98,2064396760
19,19,Jits_Linear_5,1,1,48,70,2064438016
19,19,Jits_Linear_5,2,5,56,103,2064467260
19,19,Jits_Linear_5,3,5,80,127,2064476560
19,19,Jits_Linear_5,0,5,63,98,2065067264
19,19,Jits_Linear_5,1,5,56,103,2065087048
19,19,Jits_Linear_5,2,1,48,71,2065102300
19,19,Jits_Linear_5,3,5,80,127,2065126908
19,19,Jits_Linear_5,0,5,56,103,2065747456
19,19,Jits_Linear_5,1,5,63,98,2065756460
19,19,Jits_Linear_5,2,1,48,76,2065784588
19,19,Jits_Linear_5,3,5,80,127,2065837368
19,19,Jits_Linear_5,0,5,63,98,2066407112
19,19,Jits_Linear_5,1,1,48,75,2066422168
19,19,Jits_Linear_5,2,5,56,103,2066436436
19,19,Jits_Linear_5,3,5,80,127,2066477424
19,19,Jits_Linear_5,0,5,56,103,2067076448
19,19,Jits_Linear_5,1,1,48,74,2067117804
19,19,Jits_Linear_5,2,5,63,98,2067118996
19,19,Jits_Linear_5,3,5,80,127,2067157216
19,19,Jits_Linear_5,0,1,48,76,2067754880
19,19,Jits_Linear_5,1,5,80,127,2067757544
19,19,Jits_Linear_5,2,5,56,103,2067837420
19,19,Jits_Linear_5,3,5,63,98,2067846420
19,19,Jits_Linear_5,0,1,48,77,2068473148
19,19,Jits_Linear_5,1,5,56,103,2068477376
19,19,Jits_Linear_5,2,5,63,98,2068480368
19,19,Jits_Linear_5,3,5,80,127,2068486600
19,19,Jits_Linear_5,0,1,48,81,2069144388
19,19,Jits_Linear_5,1,5,56,103,2069176796
19,19,Jits_Linear_5,2,5,63,98,2069197108
19,19,Jits_Linear_5,3,5,80,127,2069207380
19,19,Jits_Linear_5,0,5,63,98,2069816772
19,19,Jits_Linear_5,1,5,80,127,2069826968
19,19,Jits_Linear_5,2,1,48,69,2069835864
19,19,Jits_Linear_5,3,5,56,103,2069847496
19,19,Jits_Linear_5,0,1,48,81,2070489488
19,19,Jits_Linear_5,1,5,63,98,2070506996
19,19,Jits_Linear_5,2,5,56,103,2070587004
19,19,Jits_Linear_5,3,5,80,127,2070589844
19,19,Jits_Linear_5,0,5,63,98,2071197136
19,19,Jits_Linear_5,1,5,56,103,2071216472
19,19,Jits_Linear_5,2,1,48,71,2071236680
19,19,Jits_Linear_5,3,5,80,127,2071247264
19,19,Jits_Linear_5,0,5,56,103,2071887220
19,19,Jits_Linear_5,1,5,63,98,2071906932
19,19,Jits_Linear_5,2,1,48,74,2071908344
19,19,Jits_Linear_5,3,5,80,127,2071916972
19,19,Jits_Linear_5,0,1,48,80,2072605320
19,19,Jits_Linear_5,1,5,56,103,2072606984
19,19,Jits_Linear_5,2,5,63,98,2072636960
19,19,Jits_Linear_5,3,5,80,127,2072640100
19,19,Jits_Linear_5,0,5,56,103,2073247072
19,19,Jits_Linear_5,1,5,63,98,2073287012
19,19,Jits_Linear_5,2,1,48,77,2073307888
19,19,Jits_Linear_5,3,5,80,127,2073346300
19,19,Jits_Linear_5,0,5,56,103,2073956804
19,19,Jits_Linear_5,1,1,48,89,2073957916
19,19,Jits_Linear_5,2,5,63,98,2073966992
19,19,Jits_Linear_5,3,5,80,127,2074027384
19,19,Jits_Linear_5,0,5,56,103,2074657084
19,19,Jits_Linear_5,1,1,48,91,2074672932
19,19,Jits_Linear_5,2,5,80,127,2074676788
19,19,Jits_Linear_5,3,5,63,98,2074707364
19,19,Jits_Linear_5,0,1,48,89,2075356524
19,19,Jits_Linear_5,1,5,80,127,2075358160
19,19,Jits_Linear_5,2,5,56,103,2075366716
19,19,Jits_Linear_5,3,5,63,98,2075387272
19,19,Jits_Linear_5,0,1,48,94,2076028292
19,19,Jits_Linear_5,1,5,63,98,2076046900
19,19,Jits_Linear_5,2,5,80,127,2076126760
19,19,Jits_Linear_5,3,5,56,103,2076136808
19,19,Jits_Linear_5,0,5,80,127,2076806576
19,19,Jits_Linear_5,1,1,48,89,2076813208
19,19,Jits_Linear_5,2,5,56,103,2076826956
19,19,Jits_Linear_5,3,5,63,98,2076830168
19,19,Jits_Linear_5,0,5,63,98,2077486408
19,19,Jits_Linear_5,1,5,80,127,2077489844
19,19,Jits_Linear_5,2,1,48,88,2077538296
19,19,Jits_Linear_5,3,5,56,103,2077546864
19,19,Jits_Linear_5,0,5,56,103,2078177056
19,19,Jits_Linear_5,1,5,80,127,2078186760
19,19,Jits_Linear_5,2,1,48,105,2078196176
19,19,Jits_Linear_5,3,5,63,98,2078226768
19,19,Jits_Linear_5,0,5,56,103,2078866796
19,19,Jits_Linear_5,1,1,48,93,2078870512
19,19,Jits_Linear_5,2,5,63,98,2078927184
19,19,Jits_Linear_5,3,5,80,127,2078936484
19,19,Jits_Linear_5,0,1,48,93,2079586344
19,19,Jits_Linear_5,1,5,63,98,2079587828
19,19,Jits_Linear_5,2,5,80,127,2079626648
19,19,Jits_Linear_5,3,5,56,103,2079666812
19,19,Jits_Linear_5,0,5,56,103,2080297324
19,19,Jits_Linear_5,1,1,48,72,2080335364
19,19,Jits_Linear_5,2,5,63,98,2080377192
19,19,Jits_Linear_5,3,5,80,127,2080380704
19,19,Jits_Linear_5,0,1,48,79,2081027844
19,19,Jits_Linear_5,1,5,80,127,2081067580
19,19,Jits_Linear_5,2,5,56,103,2081097032
19,19,Jits_Linear_5,3,5,63,98,2081100020
19,19,Jits_Linear_5,0,1,48,83,2081721784
19,19,Jits_Linear_5,1,5,56,103,2081747216
19,19,Jits_Linear_5,2,5,80,127,2081766856
19,19,Jits_Linear_5,3,5,63,98,2081806796
19,19,Jits_Linear_5,0,1,48,80,2082432968
19,19,Jits_Linear_5,1,5,80,127,2082446792
19,19,Jits_Linear_5,2,5,63,98,2082467176
19,19,Jits_Linear_5,3,5,56,103,2082526520
19,19,Jits_Linear_5,0,1,48,78,2083148680
19,19,Jits_Linear_5,1,5,63,98,2083176808
19,19,Jits_Linear_5,2,5,56,103,2083187004
19,19,Jits_Linear_5,3,5,80,127,2083237280
19,19,Jits_Linear_5,0,5,56,103,2083886528
19,19,Jits_Linear_5,1,1,48,53,2083895500
19,19,Jits_Linear_5,2,5,63,98,2083906980
19,19,Jits_Linear_5,3,5,80,127,2083917104
19,19,Jits_Linear_5,0,1,48,83,2084587904
19,19,Jits_Linear_5,1,5,56,103,2084607480
19,19,Jits_Linear_5,2,5,63,98,2084610472
19,19,Jits_Linear_5,3,5,80,127,2084626744
19,19,Jits_Linear_5,0,1,48,94,2085307396
19,19,Jits_Linear_5,1,5,63,98,2085377424
19,19,Jits_Linear_5,2,5,56,103,2085407232
19,19,Jits_Linear_5,3,5,80,127,2085436836
19,19,Jits_Linear_5,0,1,48,103,2086040932
19,19,Jits_Linear_5,1,5,80,127,2086066664
19,19,Jits_Linear_5,2,5,56,103,2086156504
19,19,Jits_Linear_5,3,5,63,98,2086159576
19,19,Jits_Linear_5,0,1,48,89,2086792468
19,19,Jits_Linear_5,1,5,56,103,2086796696
19,19,Jits_Linear_5,2,5,80,127,2086799764
19,19,Jits_Linear_5,3,5,63,98,2086876644
19,19,Jits_Linear_5,0,5,80,127,2087526712
19,19,Jits_Linear_5,1,1,48,80,2087542188
19,19,Jits_Linear_5,2,5,63,98,2087587400
19,19,Jits_Linear_5,3,5,56,103,2087616924
19,19,Jits_Linear_5,0,5,63,98,2088256820
19,19,Jits_Linear_5,1,5,80,127,2088267092
19,19,Jits_Linear_5,2,1,48,88,2088298908
19,19,Jits_Linear_5,3,5,56,103,2088336692
19,19,Jits_Linear_5,0,1,48,100,2088998260
19,19,Jits_Linear_5,1,5,56,103,2089006528
19,19,Jits_Linear_5,2,5,80,127,2089037028
19,19,Jits_Linear_5,3,5,63,98,2089087600
19,19,Jits_Linear_5,0,1,48,106,2089729496
19,19,Jits_Linear_5,1,5,63,98,2089786692
19,19,Jits_Linear_5,2,5,56,103,2089816592
19,19,Jits_Linear_5,3,5,80,127,2089819512
19,19,Jits_Linear_5,0,1,48,93,2090484544
19,19,Jits_Linear_5,1,5,63,98,2090537408
19,19,Jits_Linear_5,2,5,80,127,2090556896
19,19,Jits_Linear_5,3,5,56,103,2090567240
19,19,Jits_Linear_5,0,1,48,75,2091221960
19,19,Jits_Linear_5,1,5,56,103,2091286752
19,19,Jits_Linear_5,2,5,63,98,2091289972
19,19,Jits_Linear_5,3,5,80,127,2091307292
19,19,Jits_Linear_5,0,5,56,103,2091987232
19,19,Jits_Linear_5,1,1,48,90,2091989168
19,19,Jits_Linear_5,2,5,63,98,2091996524
19,19,Jits_Linear_5,3,5,80,127,2092027496
19,19,Jits_Linear_5,0,1,48,95,2092719248
19,19,Jits_Linear_5,1,5,63,98,2092757336
19,19,Jits_Linear_5,2,5,80,127,2092776704
19,19,Jits_Linear_5,3,5,56,103,2092816704
19,19,Jits_Linear_5,0,1,48,102,2093513100
19,19,Jits_Linear_5,1,5,56,103,2093536588
19,19,Jits_Linear_5,2,5,63,98,2093576552
19,19,Jits_Linear_5,3,5,80,127,2093579840
19,19,Jits_Linear_5,0,5,80,127,2094226772
19,19,Jits_Linear_5,1,1,48,81,2094251092
19,19,Jits_Linear_5,2,5,56,103,2094266708
19,19,Jits_Linear_5,3,5,63,98,2094316860
19,19,Jits_Linear_5,0,1,48,81,2094974368
19,19,Jits_Linear_5,1,5,56,103,2095036748
19,19,Jits_Linear_5,2,5,80,127,2095047168
19,19,Jits_Linear_5,3,5,63,98,2095076680
19,19,Jits_Linear_5,0,1,48,86,2095725840
19,19,Jits_Linear_5,1,5,56,103,2095737176
19,19,Jits_Linear_5,2,5,80,127,2095777340
19,19,Jits_Linear_5,3,5,63,98,2095827380
19,19,Jits_Linear_5,0,1,48,82,2096475716
19,19,Jits_Linear_5,1,5,56,103,2096497092
19,19,Jits_Linear_5,2,5,80,127,2096537032
19,19,Jits_Linear_5,3,5,63,98,2096587368
19,19,Jits_Linear_5,0,1,48,75,2097242140
19,19,Jits_Linear_5,1,5,80,127,2097246444
19,19,Jits_Linear_5,2,5,63,98,2097326320
19,19,Jits_Linear_5,3,5,56,103,2097336652
19,19,Jits_Linear_5,0,1,48,86,2098037720
19,19,Jits_Linear_5,1,5,80,127,2098056556
19,19,Jits_Linear_5,2,5,56,103,2098066900
19,19,Jits_Linear_5,3,5,63,98,2098087284
19,19,Jits_Linear_5,0,5,63,98,2098786576
19,19,Jits_Linear_5,1,1,48,81,2098813440
19,19,Jits_Linear_5,2,5,56,103,2098857300
19,19,Jits_Linear_5,3,5,80,127,2098860368
19,19,Jits_Linear_5,0,1,48,76,2099544516
19,19,Jits_Linear_5,1,5,80,127,2099546404
19,19,Jits_Linear_5,2,5,63,98,2099596608
19,19,Jits_Linear_5,3,5,56,103,2099636472
19,19,Jits_Linear_5,0,1,48,90,2100316100
19,19,Jits_Linear_5,1,5,63,98,2100356440
19,19,Jits_Linear_5,2,5,56,103,2100397500
19,19,Jits_Linear_5,3,5,80,127,2100406576
19,19,Jits_Linear_5,0,1,48,94,2101057736
19,19,Jits_Linear_5,1,5,63,98,2101117252
19,19,Jits_Linear_5,2,5,56,103,2101136664
19,19,Jits_Linear_5,3,5,80,127,2101157184
19,19,Jits_Linear_5,0,1,48,92,2101820112
19,19,Jits_Linear_5,1,5,80,127,2101847268
19,19,Jits_Linear_5,2,5,56,103,2101856492
19,19,Jits_Linear_5,3,5,63,98,2101877176
19,19,Jits_Linear_5,0,1,48,81,2102560608
19,19,Jits_Linear_5,1,5,63,98,2102647180
19,19,Jits_Linear_5,2,5,56,103,2102687032
19,19,Jits_Linear_5,3,5,80,127,2102716708
19,19,Jits_Linear_5,0,1,48,86,2103373264
19,19,Jits_Linear_5,1,5,56,103,2103426424
19,19,Jits_Linear_5,2,5,63,98,2103457076
19,19,Jits_Linear_5,3,5,80,127,2103487108
19,19,Jits_Linear_5,0,5,80,127,2104177200
19,19,Jits_Linear_5,1,1,48,67,2104205500
19,19,Jits_Linear_5,2,5,56,103,2104246652
19,19,Jits_Linear_5,3,5,63,98,2104249716
19,19,Jits_Linear_5,0,5,56,103,2104966488
19,19,Jits_Linear_5,1,1,48,83,2105014024
19,19,Jits_Linear_5,2,5,63,98,2105016684
19,19,Jits_Linear_5,3,5,80,127,2105047480
19,19,Jits_Linear_5,0,1,48,92,2105718284
19,19,Jits_Linear_5,1,5,63,98,2105727300
19,19,Jits_Linear_5,2,5,80,127,2105730588
19,19,Jits_Linear_5,3,5,56,103,2105787016
19,19,Jits_Linear_5,0,1,48,100,2106488740
19,19,Jits_Linear_5,1,5,56,103,2106537248
19,19,Jits_Linear_5,2,5,80,127,2106546396
19,19,Jits_Linear_5,3,5,63,98,2106596660
19,19,Jits_Linear_5,0,5,63,98,2107297188
19,19,Jits_Linear_5,1,5,56,103,2107307312
19,19,Jits_Linear_5,2,1,48,75,2107310504
19,19,Jits_Linear_5,3,5,80,127,2107337056
19,19,Jits_Linear_5,0,1,48,96,2108062972
19,19,Jits_Linear_5,1,5,63,98,2108117324
19,19,Jits_Linear_5,2,5,80,127,2108120764
19,19,Jits_Linear_5,3,5,56,103,2108147028
19,19,Jits_Linear_5,0,1,48,97,2108896908
19,19,Jits_Linear_5,1,5,63,98,2108927380
19,19,Jits_Linear_5,2,5,56,103,2108946788
19,19,Jits_Linear_5,3,5,80,127,2108950076
19,19,Jits_Linear_5,0,5,63,98,2109677020
19,19,Jits_Linear_5,1,1,48,96,2109703660
19,19,Jits_Linear_5,2,5,56,103,2109746404
19,19,Jits_Linear_5,3,5,80,127,2109767084
19,19,Jits_Linear_5,0,1,48,88,2110453224
19,19,Jits_Linear_5,1,5,56,103,2110457304
19,19,Jits_Linear_5,2,5,63,98,2110466532
19,19,Jits_Linear_5,3,5,80,127,2110556500
19,19,Jits_Linear_5,0,1,48,80,2111237272
19,19,Jits_Linear_5,1,5,56,103,2111267040
19,19,Jits_Linear_5,2,5,80,127,2111307132
19,19,Jits_Linear_5,3,5,63,98,2111317400
19,19,Jits_Linear_5,0,1,48,84,2112042272
19,19,Jits_Linear_5,1,5,56,103,2112087484
19,19,Jits_Linear_5,2,5,63,98,2112117012
19,19,Jits_Linear_5,3,5,80,127,2112146824
19,19,Jits_Linear_5,0,1,48,93,2112834024
19,19,Jits_Linear_5,1,5,80,127,2112847248
19,19,Jits_Linear_5,2,5,63,98,2112887040
19,19,Jits_Linear_5,3,5,56,103,2112906824
19,19,Jits_Linear_5,0,1,48,81,2113611312
19,19,Jits_Linear_5,1,5,56,103,2113686944
19,19,Jits_Linear_5,2,5,80,127,2113707480
19,19,Jits_Linear_5,3,5,63,98,2113726804
19,19,Jits_Linear_5,0,1,48,80,2114455768
19,19,Jits_Linear_5,1,5,63,98,2114457192
19,19,Jits_Linear_5,2,5,56,103,2114467168
19,19,Jits_Linear_5,3,5,80,127,2114526660
19,19,Jits_Linear_5,0,1,48,60,2115255668
19,19,Jits_Linear_5,1,5,56,103,2115266928
19,19,Jits_Linear_5,2,5,63,98,2115336492
19,19,Jits_Linear_5,3,5,80,127,2115356936
19,19,Jits_Linear_5,0,1,48,91,2116024572
19,19,Jits_Linear_5,1,5,56,103,2116076912
19,19,Jits_Linear_5,2,5,63,98,2116106740
19,19,Jits_Linear_5,3,5,80,127,2116146588
19,19,Jits_Linear_5,0,5,63,98,2116876908
19,19,Jits_Linear_5,1,5,56,103,2116926816
19,19,Jits_Linear_5,2,1,48,76,2116929260
19,19,Jits_Linear_5,3,5,80,127,2116937156
19,19,Jits_Linear_5,0,5,56,103,2117726576
19,19,Jits_Linear_5,1,1,48,81,2117729620
19,19,Jits_Linear_5,2,5,63,98,2117776924
19,19,Jits_Linear_5,3,5,80,127,2117787044
19,19,Jits_Linear_5,0,5,56,103,2118506808
19,19,Jits_Linear_5,1,5,63,98,2118517228
19,19,Jits_Linear_5,2,1,48,93,2118578936
19,19,Jits_Linear_5,3,5,80,127,2118597016
19,19,Jits_Linear_5,0,9999,9999,9999,2009744488
19,19,Jits_Linear_5,1,9999,9999,9999,2010224724
19,19,Jits_Linear_5,2,9999,9999,9999,2010704984
19,19,Jits_Linear_5,3,9999,9999,9999,2011184192
19,19,Jits_Linear_5,4,9999,9999,9999,2011664488
19,19,Jits_Linear_5,5,9999,9999,9999,2012154964
19,19,Jits_Linear_5,6,9999,9999,9999,2012644444
19,19,Jits_Linear_5,7,9999,9999,9999,2013134924
19,19,Jits_Linear_5,8,9999,9999,9999,2013624440
19,19,Jits_Linear_5,9,9999,9999,9999,2014114928
19,19,Jits_Linear_5,10,9999,9999,9999,2014614608
19,19,Jits_Linear_5,11,9999,9999,9999,2015114296
19,19,Jits_Linear_5,12,9999,9999,9999,2015615036
19,19,Jits_Linear_5,13,9999,9999,9999,2016114796
19,19,Jits_Linear_5,14,9999,9999,9999,2016614484
19,19,Jits_Linear_5,15,9999,9999,9999,2017124452
19,19,Jits_Linear_5,16,9999,9999,9999,2017634420
19,19,Jits_Linear_5,17,9999,9999,9999,2018144368
19,19,Jits_Linear_5,18,9999,9999,9999,2018654332
19,19,Jits_Linear_5,19,9999,9999,9999,2019164228
19,19,Jits_Linear_5,20,9999,9999,9999,2019684468
19,19,Jits_Linear_5,21,9999,9999,9999,2020204636
19,19,Jits_Linear_5,22,9999,9999,9999,2020724792
19,19,Jits_Linear_5,23,9999,9999,9999,2021245020
19,19,Jits_Linear_5,24,9999,9999,9999,2021764208
19,19,Jits_Linear_5,25,9999,9999,9999,2022294620
19,19,Jits_Linear_5,26,9999,9999,9999,2022825028
19,19,Jits_Linear_5,27,9999,9999,9999,2023354452
19,19,Jits_Linear_5,28,9999,9999,9999,2023884876
19,19,Jits_Linear_5,29,9999,9999,9999,2024414304
19,19,Jits_Linear_5,30,9999,9999,9999,2024954936
19,19,Jits_Linear_5,31,9999,9999,9999,2025494584
19,19,Jits_Linear_5,32,9999,9999,9999,2026034292
19,19,Jits_Linear_5,33,9999,9999,9999,2026574972
19,19,Jits_Linear_5,34,9999,9999,9999,2027114608
19,19,Jits_Linear_5,35,9999,9999,9999,2027664512
19,19,Jits_Linear_5,36,9999,9999,9999,2028214388
19,19,Jits_Linear_5,37,9999,9999,9999,2028764276
19,19,Jits_Linear_5,38,9999,9999,9999,2029314128
19,19,Jits_Linear_5,39,9999,9999,9999,2029865064
19,19,Jits_Linear_5,40,9999,9999,9999,2030424168
19,19,Jits_Linear_5,41,9999,9999,9999,2030984316
19,19,Jits_Linear_5,42,9999,9999,9999,2031544400
19,19,Jits_Linear_5,43,9999,9999,9999,2032104548
19,19,Jits_Linear_5,44,9999,9999,9999,2032664640
19,19,Jits_Linear_5,45,9999,9999,9999,2033235048
19,19,Jits_Linear_5,46,9999,9999,9999,2033804416
19,19,Jits_Linear_5,47,9999,9999,9999,2034374776
19,19,Jits_Linear_5,48,9999,9999,9999,2034944072
19,19,Jits_Linear_5,49,9999,9999,9999,2035514424
19,19,Jits_Linear_5,50,9999,9999,9999,2036095088
19,19,Jits_Linear_5,51,9999,9999,9999,2036674668
19,19,Jits_Linear_5,52,9999,9999,9999,2037254256
19,19,Jits_Linear_5,53,9999,9999,9999,2037834864
19,19,Jits_Linear_5,54,9999,9999,9999,2038414420
19,19,Jits_Linear_5,55,9999,9999,9999,2039004240
19,19,Jits_Linear_5,56,9999,9999,9999,2039595108
19,19,Jits_Linear_5,57,9999,9999,9999,2040194132
19,19,Jits_Linear_5,58,9999,9999,9999,2040785008
19,19,Jits_Linear_5,59,9999,9999,9999,2041374780
19,19,Jits_Linear_5,60,9999,9999,9999,2041974880
19,19,Jits_Linear_5,61,9999,9999,9999,2042574956
19,19,Jits_Linear_5,62,9999,9999,9999,2043174968
19,19,Jits_Linear_5,63,9999,9999,9999,2043775044
19,19,Jits_Linear_5,64,9999,9999,9999,2044374080
19,19,Jits_Linear_5,65,9999,9999,9999,2044984388
19,19,Jits_Linear_5,66,9999,9999,9999,2045594680
19,19,Jits_Linear_5,67,9999,9999,9999,2046205052
19,19,Jits_Linear_5,68,9999,9999,9999,2046814296
19,19,Jits_Linear_5,69,9999,9999,9999,2047424568
19,19,Jits_Linear_5,70,9999,9999,9999,2048044144
19,19,Jits_Linear_5,71,9999,9999,9999,2048664692
19,19,Jits_Linear_5,72,9999,9999,9999,2049284200
19,19,Jits_Linear_5,73,9999,9999,9999,2049904732
19,19,Jits_Linear_5,74,9999,9999,9999,2050524220
19,19,Jits_Linear_5,75,9999,9999,9999,2051155036
19,19,Jits_Linear_5,76,9999,9999,9999,2051784792
19,19,Jits_Linear_5,77,9999,9999,9999,2052414572
19,19,Jits_Linear_5,78,9999,9999,9999,2053044336
19,19,Jits_Linear_5,79,9999,9999,9999,2053675084
19,19,Jits_Linear_5,80,9999,9999,9999,2054315100
19,19,Jits_Linear_5,81,9999,9999,9999,2054955064
19,19,Jits_Linear_5,82,9999,9999,9999,2055595072
19,19,Jits_Linear_5,83,9999,9999,9999,2056235112
19,19,Jits_Linear_5,84,9999,9999,9999,2056875076
19,19,Jits_Linear_5,85,9999,9999,9999,2057534584
19,19,Jits_Linear_5,86,9999,9999,9999,2058184784
19,19,Jits_Linear_5,87,9999,9999,9999,2058835028
19,19,Jits_Linear_5,88,9999,9999,9999,2059484256
19,19,Jits_Linear_5,89,9999,9999,9999,2060134484
19,19,Jits_Linear_5,90,9999,9999,9999,2060794992
19,19,Jits_Linear_5,91,9999,9999,9999,2061454420
19,19,Jits_Linear_5,92,9999,9999,9999,2062114912
19,19,Jits_Linear_5,93,9999,9999,9999,2062774332
19,19,Jits_Linear_5,94,9999,9999,9999,2063434824
19,19,Jits_Linear_5,95,9999,9999,9999,2064104520
19,19,Jits_Linear_5,96,9999,9999,9999,2064774244
19,19,Jits_Linear_5,97,9999,9999,9999,2065444920
19,19,Jits_Linear_5,98,9999,9999,9999,2066114680
19,19,Jits_Linear_5,99,9999,9999,9999,2066784324
19,19,Jits_Linear_5,100,9999,9999,9999,2067464296
19,19,Jits_Linear_5,101,9999,9999,9999,2068144180
19,19,Jits_Linear_5,102,9999,9999,9999,2068824144
19,19,Jits_Linear_5,103,9999,9999,9999,2069504120
19,19,Jits_Linear_5,104,9999,9999,9999,2070185036
19,19,Jits_Linear_5,105,9999,9999,9999,2070874220
19,19,Jits_Linear_5,106,9999,9999,9999,2071564380
19,19,Jits_Linear_5,107,9999,9999,9999,2072254588
19,19,Jits_Linear_5,108,9999,9999,9999,2072944760
19,19,Jits_Linear_5,109,9999,9999,9999,2073634920
19,19,Jits_Linear_5,110,9999,9999,9999,2074334288
19,19,Jits_Linear_5,111,9999,9999,9999,2075034716
19,19,Jits_Linear_5,112,9999,9999,9999,2075734104
19,19,Jits_Linear_5,113,9999,9999,9999,2076434508
19,19,Jits_Linear_5,114,9999,9999,9999,2077134904
19,19,Jits_Linear_5,115,9999,9999,9999,2077844552
19,19,Jits_Linear_5,116,9999,9999,9999,2078554196
19,19,Jits_Linear_5,117,9999,9999,9999,2079264832
19,19,Jits_Linear_5,118,9999,9999,9999,2079974464
19,19,Jits_Linear_5,119,9999,9999,9999,2080684092
19,19,Jits_Linear_5,120,9999,9999,9999,2081405052
19,19,Jits_Linear_5,121,9999,9999,9999,2082124856
19,19,Jits_Linear_5,122,9999,9999,9999,2082844760
19,19,Jits_Linear_5,123,9999,9999,9999,2083564660
19,19,Jits_Linear_5,124,9999,9999,9999,2084284536
19,19,Jits_Linear_5,125,9999,9999,9999,2085014628
19,19,Jits_Linear_5,126,9999,9999,9999,2085744728
19,19,Jits_Linear_5,127,9999,9999,9999,2086474812
19,19,Jits_Linear_5,128,9999,9999,9999,2087204920
19,19,Jits_Linear_5,129,9999,9999,9999,2087935088
19,19,Jits_Linear_5,130,9999,9999,9999,2088674384
19,19,Jits_Linear_5,131,9999,9999,9999,2089414732
19,19,Jits_Linear_5,132,9999,9999,9999,2090155108
19,19,Jits_Linear_5,133,9999,9999,9999,2090904632
19,19,Jits_Linear_5,134,9999,9999,9999,2091644984
19,19,Jits_Linear_5,135,9999,9999,9999,2092394556
19,19,Jits_Linear_5,136,9999,9999,9999,2093144144
19,19,Jits_Linear_5,137,9999,9999,9999,2093894764
19,19,Jits_Linear_5,138,9999,9999,9999,2094644292
19,19,Jits_Linear_5,139,9999,9999,9999,2095394932
19,19,Jits_Linear_5,140,9999,9999,9999,2096154700
19,19,Jits_Linear_5,141,9999,9999,9999,2096914540
19,19,Jits_Linear_5,142,9999,9999,9999,2097674308
19,19,Jits_Linear_5,143,9999,9999,9999,2098434144
19,19,Jits_Linear_5,144,9999,9999,9999,2099194944
19,19,Jits_Linear_5,145,9999,9999,9999,2099965044
19,19,Jits_Linear_5,146,9999,9999,9999,2100735072
19,19,Jits_Linear_5,147,9999,9999,9999,2101504056
19,19,Jits_Linear_5,148,9999,9999,9999,2102274148
19,19,Jits_Linear_5,149,9999,9999,9999,2103044176
19,19,Jits_Linear_5,150,9999,9999,9999,2103824464
19,19,Jits_Linear_5,151,9999,9999,9999,2104604744
19,19,Jits_Linear_5,152,9999,9999,9999,2105385048
19,19,Jits_Linear_5,153,9999,9999,9999,2106164288
19,19,Jits_Linear_5,154,9999,9999,9999,2106944576
19,19,Jits_Linear_5,155,9999,9999,9999,2107734104
19,19,Jits_Linear_5,156,9999,9999,9999,2108524648
19,19,Jits_Linear_5,157,9999,9999,9999,2109314148
19,19,Jits_Linear_5,158,9999,9999,9999,2110104700
19,19,Jits_Linear_5,159,9999,9999,9999,2110894204
19,19,Jits_Linear_5,160,9999,9999,9999,2111694944
19,19,Jits_Linear_5,161,9999,9999,9999,2112494668
19,19,Jits_Linear_5,162,9999,9999,9999,2113294432
19,19,Jits_Linear_5,163,9999,9999,9999,2114094200
19,19,Jits_Linear_5,164,9999,9999,9999,2114894940
19,19,Jits_Linear_5,165,9999,9999,9999,2115704900
19,19,Jits_Linear_5,166,9999,9999,9999,2116514932
19,19,Jits_Linear_5,167,9999,9999,9999,2117324888
19,19,Jits_Linear_5,168,9999,9999,9999,2118134876
19,19,Jits_Linear_5,169,9999,9999,9999,2118944848
20,18,Jits_Linear_8,0,5,56,103,2129880388
20,18,Jits_Linear_8,1,5,63,98,2129883488
20,18,Jits_Linear_8,2,5,80,127,2129886616
20,18,Jits_Linear_8,0,5,56,103,2130700580
20,18,Jits_Linear_8,1,5,63,98,2130703748
20,18,Jits_Linear_8,2,5,80,127,2130707096
20,18,Jits_Linear_8,0,5,80,127,2131460368
20,18,Jits_Linear_8,1,5,63,98,2131550504
20,18,Jits_Linear_8,2,5,56,103,2131560700
20,18,Jits_Linear_8,0,5,56,103,2132301296
20,18,Jits_Linear_8,1,5,63,98,2132311344
20,18,Jits_Linear_8,2,1,48,77,2132390064
20,18,Jits_Linear_8,3,5,80,127,2132400572
20,18,Jits_Linear_8,0,5,63,98,2133090796
20,18,Jits_Linear_8,1,5,80,127,2133121372
20,18,Jits_Linear_8,2,5,56,103,2133151420
20,18,Jits_Linear_8,3,1,48,82,2133165252
20,18,Jits_Linear_8,0,5,56,103,2133910852
20,18,Jits_Linear_8,1,1,48,88,2133956000
20,18,Jits_Linear_8,2,5,80,127,2134011196
20,18,Jits_Linear_8,3,5,63,98,2134061384
20,18,Jits_Linear_8,0,5,56,103,2134720964
20,18,Jits_Linear_8,1,5,80,127,2134771264
20,18,Jits_Linear_8,2,5,63,98,2134811056
20,18,Jits_Linear_8,3,1,48,84,2134908556
20,18,Jits_Linear_8,0,5,80,127,2135560612
20,18,Jits_Linear_8,1,5,63,98,2135591260
20,18,Jits_Linear_8,2,1,48,82,2135640464
20,18,Jits_Linear_8,3,5,56,103,2135661160
20,18,Jits_Linear_8,0,5,63,98,2136401364
20,18,Jits_Linear_8,1,5,56,103,2136431040
20,18,Jits_Linear_8,2,1,48,73,2136443672
20,18,Jits_Linear_8,3,5,80,127,2136491496
20,18,Jits_Linear_8,0,5,56,103,2137150844
20,18,Jits_Linear_8,1,5,80,127,2137154060
20,18,Jits_Linear_8,2,5,63,98,2137270572
20,18,Jits_Linear_8,3,1,48,68,2137284100
20,18,Jits_Linear_8,0,5,56,103,2138030396
20,18,Jits_Linear_8,1,1,48,68,2138035008
20,18,Jits_Linear_8,2,5,80,127,2138071304
20,18,Jits_Linear_8,3,5,63,98,2138080676
20,18,Jits_Linear_8,0,5,56,103,2138791356
20,18,Jits_Linear_8,1,5,80,127,2138810696
20,18,Jits_Linear_8,2,1,48,49,2138858728
20,18,Jits_Linear_8,3,5,63,98,2138890584
20,18,Jits_Linear_8,0,5,80,127,2139580864
20,18,Jits_Linear_8,1,1,48,43,2139638096
20,18,Jits_Linear_8,2,5,56,103,2139681132
20,18,Jits_Linear_8,3,5,63,98,2139691332
20,18,Jits_Linear_8,0,5,63,98,2140351040
20,18,Jits_Linear_8,1,5,80,127,2140411384
20,18,Jits_Linear_8,2,5,56,103,2140420460
20,18,Jits_Linear_8,3,1,48,50,2140464480
20,18,Jits_Linear_8,0,5,56,103,2141150568
20,18,Jits_Linear_8,1,1,48,50,2141208320
20,18,Jits_Linear_8,2,5,63,98,2141221168
20,18,Jits_Linear_8,3,5,80,127,2141224380
20,18,Jits_Linear_8,0,1,48,73,2141973840
20,18,Jits_Linear_8,1,5,63,98,2141981136
20,18,Jits_Linear_8,2,5,56,103,2142031188
20,18,Jits_Linear_8,3,5,80,127,2142034328
20,18,Jits_Linear_8,0,1,48,77,2142731064
20,18,Jits_Linear_8,1,5,56,103,2142732348
20,18,Jits_Linear_8,2,5,80,127,2142735088
20,18,Jits_Linear_8,3,5,63,98,2142820812
20,18,Jits_Linear_8,0,1,48,68,2143548976
20,18,Jits_Linear_8,1,5,63,98,2143561056
20,18,Jits_Linear_8,2,5,56,103,2143651104
20,18,Jits_Linear_8,3,5,80,127,2143681004
20,18,Jits_Linear_8,0,5,56,103,2144341344
20,18,Jits_Linear_8,1,5,63,98,2144440620
20,18,Jits_Linear_8,2,1,48,73,2144468456
20,18,Jits_Linear_8,3,5,80,127,2144471336
20,18,Jits_Linear_8,0,5,63,98,2145151304
20,18,Jits_Linear_8,1,5,56,103,2145160528
20,18,Jits_Linear_8,2,1,48,87,2145236760
20,18,Jits_Linear_8,3,5,80,127,2145250728
20,18,Jits_Linear_8,0,5,63,98,2145951116
20,18,Jits_Linear_8,1,1,48,78,2146020400
20,18,Jits_Linear_8,2,5,56,103,2146030904
20,18,Jits_Linear_8,3,5,80,127,2146033972
20,18,Jits_Linear_8,0,5,80,127,2146690380
20,18,Jits_Linear_8,1,5,63,98,2146710916
20,18,Jits_Linear_8,2,5,56,103,2146771380
20,18,Jits_Linear_8,3,1,48,102,2146794076
20,18,Jits_Linear_8,0,5,56,103,2147510764
20,18,Jits_Linear_8,1,1,48,78,2147515976
20,18,Jits_Linear_8,2,5,63,98,2147531212
20,18,Jits_Linear_8,3,5,80,127,2147534428
20,18,Jits_Linear_8,0,5,63,98,2148230504
20,18,Jits_Linear_8,1,1,48,63,2148301280
20,18,Jits_Linear_8,2,5,80,127,2148311344
20,18,Jits_Linear_8,3,5,56,103,2148320568
20,18,Jits_Linear_8,0,5,63,98,2149031380
20,18,Jits_Linear_8,1,5,56,103,2149050868
20,18,Jits_Linear_8,2,1,48,80,2149087092
20,18,Jits_Linear_8,3,5,80,127,2149100864
20,18,Jits_Linear_8,0,5,80,127,2149810832
20,18,Jits_Linear_8,1,5,63,98,2149850476
20,18,Jits_Linear_8,2,5,56,103,2149871108
20,18,Jits_Linear_8,3,1,48,116,2149881948
20,18,Jits_Linear_8,0,5,56,103,2150620872
20,18,Jits_Linear_8,1,5,63,98,2150630648
20,18,Jits_Linear_8,2,5,80,127,2150651184
20,18,Jits_Linear_8,3,1,48,71,2150684040
20,18,Jits_Linear_8,0,5,56,103,2151320848
20,18,Jits_Linear_8,1,5,63,98,2151410932
20,18,Jits_Linear_8,2,1,48,95,2151420276
20,18,Jits_Linear_8,3,5,80,127,2151470568
20,18,Jits_Linear_8,0,5,80,127,2152120840
20,18,Jits_Linear_8,1,5,56,103,2152131036
20,18,Jits_Linear_8,2,1,48,92,2152192544
20,18,Jits_Linear_8,3,5,63,98,2152200660
20,18,Jits_Linear_8,0,5,63,98,2152920532
20,18,Jits_Linear_8,1,1,48,95,2152953644
20,18,Jits_Linear_8,2,5,80,127,2153010540
20,18,Jits_Linear_8,3,5,56,103,2153020736
20,18,Jits_Linear_8,0,5,63,98,2153620872
20,18,Jits_Linear_8,1,5,80,127,2153671004
20,18,Jits_Linear_8,2,5,56,103,2153730520
20,18,Jits_Linear_8,3,1,48,95,2153743148
20,18,Jits_Linear_8,0,5,56,103,2154411556
20,18,Jits_Linear_8,1,5,80,127,2154460564
20,18,Jits_Linear_8,2,5,63,98,2154481048
20,18,Jits_Linear_8,3,1,48,103,2154542076
20,18,Jits_Linear_8,0,5,56,103,2155140536
20,18,Jits_Linear_8,1,5,80,127,2155200852
20,18,Jits_Linear_8,2,1,48,103,2155249328
20,18,Jits_Linear_8,3,5,63,98,2155270700
20,18,Jits_Linear_8,0,5,56,103,2155901280
20,18,Jits_Linear_8,1,5,80,127,2155930880
20,18,Jits_Linear_8,2,5,63,98,2155960632
20,18,Jits_Linear_8,3,1,48,95,2155966892
20,18,Jits_Linear_8,0,5,56,103,2156700968
20,18,Jits_Linear_8,1,1,48,70,2156720604
20,18,Jits_Linear_8,2,5,80,127,2156721940
20,18,Jits_Linear_8,3,5,63,98,2156780936
20,18,Jits_Linear_8,0,1,48,95,2157529408
20,18,Jits_Linear_8,1,5,80,127,2157540616
20,18,Jits_Linear_8,2,5,56,103,2157550812
20,18,Jits_Linear_8,3,5,63,98,2157561080
20,18,Jits_Linear_8,0,5,56,103,2158251352
20,18,Jits_Linear_8,1,5,80,127,2158291440
20,18,Jits_Linear_8,2,1,48,78,2158293376
20,18,Jits_Linear_8,3,5,63,98,2158321060
20,18,Jits_Linear_8,0,5,56,103,2158971336
20,18,Jits_Linear_8,1,5,63,98,2159001012
20,18,Jits_Linear_8,2,1,48,79,2159030132
20,18,Jits_Linear_8,3,5,80,127,2159040796
20,18,Jits_Linear_8,0,5,80,127,2159670640
20,18,Jits_Linear_8,1,5,63,98,2159720768
20,18,Jits_Linear_8,2,5,56,103,2159741376
20,18,Jits_Linear_8,3,1,48,93,2159800088
20,18,Jits_Linear_8,0,5,56,103,2160450928
20,18,Jits_Linear_8,1,5,80,127,2160520536
20,18,Jits_Linear_8,2,1,48,86,2160524552
20,18,Jits_Linear_8,3,5,63,98,2160580920
20,18,Jits_Linear_8,0,5,80,127,2161191360
20,18,Jits_Linear_8,1,1,48,72,2161259744
20,18,Jits_Linear_8,2,5,63,98,2161281564
20,18,Jits_Linear_8,3,5,56,103,2161300752
20,18,Jits_Linear_8,0,5,63,98,2161951200
20,18,Jits_Linear_8,1,5,56,103,2161970540
20,18,Jits_Linear_8,2,5,80,127,2162010628
20,18,Jits_Linear_8,3,1,48,97,2162025952
20,18,Jits_Linear_8,0,5,80,127,2162650460
20,18,Jits_Linear_8,1,5,63,98,2162670944
20,18,Jits_Linear_8,2,5,56,103,2162750816
20,18,Jits_Linear_8,3,1,48,47,2162794008
20,18,Jits_Linear_8,0,5,63,98,2163380552
20,18,Jits_Linear_8,1,5,56,103,2163491312
20,18,Jits_Linear_8,2,5,80,127,2163494376
20,18,Jits_Linear_8,3,1,48,102,2163503496
20,18,Jits_Linear_8,0,5,63,98,2164141348
20,18,Jits_Linear_8,1,5,56,103,2164150568
20,18,Jits_Linear_8,2,5,80,127,2164153708
20,18,Jits_Linear_8,3,1,48,104,2164238056
20,18,Jits_Linear_8,0,5,56,103,2164861380
20,18,Jits_Linear_8,1,1,48,89,2164954256
20,18,Jits_Linear_8,2,5,80,127,2164981352
20,18,Jits_Linear_8,3,5,63,98,2165020916
20,18,Jits_Linear_8,0,5,56,103,2165610804
20,18,Jits_Linear_8,1,5,80,127,2165690752
20,18,Jits_Linear_8,2,5,63,98,2165711360
20,18,Jits_Linear_8,3,1,48,92,2165743724
20,18,Jits_Linear_8,0,5,56,103,2166340972
20,18,Jits_Linear_8,1,5,63,98,2166450516
20,18,Jits_Linear_8,2,5,80,127,2166453732
20,18,Jits_Linear_8,3,1,48,70,2166514040
20,18,Jits_Linear_8,0,5,56,103,2167100732
20,18,Jits_Linear_8,1,5,80,127,2167130408
20,18,Jits_Linear_8,2,5,63,98,2167151092
20,18,Jits_Linear_8,3,1,48,71,2167256688
20,18,Jits_Linear_8,4,1,48,48,2167291912
20,18,Jits_Linear_8,0,5,63,98,2167810348
20,18,Jits_Linear_8,1,5,56,103,2167820620
20,18,Jits_Linear_8,2,5,80,127,2167830888
20,18,Jits_Linear_8,3,1,48,70,2167950276
20,18,Jits_Linear_8,4,1,48,35,2168005532
20,18,Jits_Linear_8,0,5,80,127,2168521184
20,18,Jits_Linear_8,1,5,56,103,2168571340
20,18,Jits_Linear_8,2,5,63,98,2168611428
20,18,Jits_Linear_8,3,1,48,80,2168722272
20,18,Jits_Linear_8,0,5,80,127,2169261468
20,18,Jits_Linear_8,1,5,63,98,2169280808
20,18,Jits_Linear_8,2,5,56,103,2169331184
20,18,Jits_Linear_8,3,1,48,76,2169452144
20,18,Jits_Linear_8,0,5,80,127,2169990364
20,18,Jits_Linear_8,1,5,56,103,2170021312
20,18,Jits_Linear_8,2,5,63,98,2170090796
20,18,Jits_Linear_8,3,1,48,76,2170167024
20,18,Jits_Linear_8,0,5,56,103,2170760548
20,18,Jits_Linear_8,1,5,80,127,2170770744
20,18,Jits_Linear_8,2,5,63,98,2170810608
20,18,Jits_Linear_8,3,1,48,80,2170888524
20,18,Jits_Linear_8,0,5,56,103,2171391368
20,18,Jits_Linear_8,1,5,63,98,2171410856
20,18,Jits_Linear_8,2,5,80,127,2171480388
20,18,Jits_Linear_8,3,1,48,65,2171632836
20,18,Jits_Linear_8,0,5,63,98,2172130800
20,18,Jits_Linear_8,1,5,80,127,2172191192
20,18,Jits_Linear_8,2,5,56,103,2172210532
20,18,Jits_Linear_8,3,1,48,66,2172372688
20,18,Jits_Linear_8,0,5,80,127,2172841372
20,18,Jits_Linear_8,1,5,56,103,2172871272
20,18,Jits_Linear_8,2,5,63,98,2172900752
20,18,Jits_Linear_8,3,1,48,62,2173164892
20,18,Jits_Linear_8,0,5,56,103,2173551228
20,18,Jits_Linear_8,1,5,63,98,2173611400
20,18,Jits_Linear_8,2,5,80,127,2173670692
20,18,Jits_Linear_8,3,1,48,56,2173951616
20,18,Jits_Linear_8,0,5,80,127,2174281248
20,18,Jits_Linear_8,1,5,56,103,2174300512
20,18,Jits_Linear_8,2,5,63,98,2174371392
20,18,Jits_Linear_8,0,1,48,82,2174734172
20,18,Jits_Linear_8,1,5,80,127,2174990832
20,18,Jits_Linear_8,2,5,63,98,2175011144
20,18,Jits_Linear_8,3,5,56,103,2175041188
20,18,Jits_Linear_8,0,1,48,86,2175524644
20,18,Jits_Linear_8,1,5,80,127,2175681100
20,18,Jits_Linear_8,2,5,63,98,2175701412
20,18,Jits_Linear_8,3,5,56,103,2175760780
20,18,Jits_Linear_8,0,1,48,95,2176318648
20,18,Jits_Linear_8,1,5,80,127,2176381228
20,18,Jits_Linear_8,2,5,56,103,2176480492
20,18,Jits_Linear_8,3,5,63,98,2176511240
20,18,Jits_Linear_8,0,5,63,98,2177070484
20,18,Jits_Linear_8,1,5,80,127,2177120540
20,18,Jits_Linear_8,2,5,56,103,2177141076
20,18,Jits_Linear_8,3,1,48,89,2177217976
20,18,Jits_Linear_8,0,5,80,127,2177811052
20,18,Jits_Linear_8,1,5,56,103,2177840428
20,18,Jits_Linear_8,2,5,63,98,2177843492
20,18,Jits_Linear_8,3,1,48,92,2178051088
20,18,Jits_Linear_8,0,5,63,98,2178541064
20,18,Jits_Linear_8,1,5,56,103,2178581080
20,18,Jits_Linear_8,2,5,80,127,2178601240
20,18,Jits_Linear_8,0,1,48,84,2178931248
20,18,Jits_Linear_8,1,5,80,127,2179181152
20,18,Jits_Linear_8,2,5,63,98,2179260880
20,18,Jits_Linear_8,3,5,56,103,2179301064
20,18,Jits_Linear_8,0,1,48,85,2179742996
20,18,Jits_Linear_8,1,5,63,98,2179890488
20,18,Jits_Linear_8,2,5,80,127,2179970360
20,18,Jits_Linear_8,3,5,56,103,2179991116
20,18,Jits_Linear_8,0,1,48,86,2180582800
20,18,Jits_Linear_8,1,5,56,103,2180620588
20,18,Jits_Linear_8,2,5,63,98,2180631008
20,18,Jits_Linear_8,3,5,80,127,2180670796
20,18,Jits_Linear_8,0,5,56,103,2181231000
20,18,Jits_Linear_8,1,5,80,127,2181233916
20,18,Jits_Linear_8,2,5,63,98,2181371204
20,18,Jits_Linear_8,3,1,48,79,2181410360
20,18,Jits_Linear_8,0,5,56,103,2181911036
20,18,Jits_Linear_8,1,5,63,98,2182001100
20,18,Jits_Linear_8,2,5,80,127,2182070928
20,18,Jits_Linear_8,3,1,48,83,2182166360
20,18,Jits_Linear_8,0,5,63,98,2182670656
20,18,Jits_Linear_8,1,5,80,127,2182673872
20,18,Jits_Linear_8,2,5,56,103,2182731192
20,18,Jits_Linear_8,0,1,48,86,2183051084
20,18,Jits_Linear_8,1,1,48,49,2183082232
20,18,Jits_Linear_8,2,5,80,127,2183390508
20,18,Jits_Linear_8,3,5,56,103,2183410992
20,18,Jits_Linear_8,4,5,63,98,2183421264
20,18,Jits_Linear_8,0,1,48,74,2183818692
20,18,Jits_Linear_8,1,1,48,41,2183857768
20,18,Jits_Linear_8,2,5,56,103,2183981360
20,18,Jits_Linear_8,3,5,63,98,2183990736
20,18,Jits_Linear_8,4,5,80,127,2184061164
20,18,Jits_Linear_8,0,1,48,71,2184501464
20,18,Jits_Linear_8,1,1,48,50,2184528104
20,18,Jits_Linear_8,2,5,80,127,2184661340
20,18,Jits_Linear_8,3,5,56,103,2184710448
20,18,Jits_Linear_8,4,5,63,98,2184760948
20,18,Jits_Linear_8,0,1,48,76,2185301648
20,18,Jits_Linear_8,1,5,56,103,2185421240
20,18,Jits_Linear_8,2,5,63,98,2185431436
20,18,Jits_Linear_8,3,5,80,127,2185471248
20,18,Jits_Linear_8,0,5,56,103,2186040764
20,18,Jits_Linear_8,1,1,48,74,2186071384
20,18,Jits_Linear_8,2,5,63,98,2186080772
20,18,Jits_Linear_8,3,5,80,127,2186131048
20,18,Jits_Linear_8,0,5,80,127,2186670440
20,18,Jits_Linear_8,1,1,48,70,2186688536
20,18,Jits_Linear_8,2,5,56,103,2186720636
20,18,Jits_Linear_8,3,5,63,98,2186741196
20,18,Jits_Linear_8,0,1,48,76,2187326696
20,18,Jits_Linear_8,1,5,80,127,2187351376
20,18,Jits_Linear_8,2,5,63,98,2187410868
20,18,Jits_Linear_8,3,5,56,103,2187490972
20,18,Jits_Linear_8,0,5,80,127,2188000816
20,18,Jits_Linear_8,1,5,56,103,2188040636
20,18,Jits_Linear_8,2,1,48,82,2188046968
20,18,Jits_Linear_8,3,5,63,98,2188060940
20,18,Jits_Linear_8,4,1,48,36,2188108160
20,18,Jits_Linear_8,0,1,48,70,2188706868
20,18,Jits_Linear_8,1,5,56,103,2188720684
20,18,Jits_Linear_8,2,5,80,127,2188730732
20,18,Jits_Linear_8,3,5,63,98,2188770992
20,18,Jits_Linear_8,0,1,48,82,2189367192
20,18,Jits_Linear_8,1,5,56,103,2189450844
20,18,Jits_Linear_8,2,5,63,98,2189490692
20,18,Jits_Linear_8,3,5,80,127,2189493908
20,18,Jits_Linear_8,0,5,63,98,2190010908
20,18,Jits_Linear_8,1,5,80,127,2190050652
20,18,Jits_Linear_8,2,1,48,75,2190091756
20,18,Jits_Linear_8,3,5,56,103,2190121444
20,18,Jits_Linear_8,0,5,63,98,2190661048
20,18,Jits_Linear_8,1,1,48,78,2190723208
20,18,Jits_Linear_8,2,5,56,103,2190740840
20,18,Jits_Linear_8,3,1,48,34,2190788212
20,18,Jits_Linear_8,4,5,80,127,2190801284
20,18,Jits_Linear_8,0,5,80,127,2191330860
20,18,Jits_Linear_8,1,1,48,72,2191360580
20,18,Jits_Linear_8,2,5,63,98,2191380832
20,18,Jits_Linear_8,3,5,56,103,2191410732
20,18,Jits_Linear_8,4,1,48,50,2191420584
20,18,Jits_Linear_8,0,5,56,103,2191980884
20,18,Jits_Linear_8,1,5,63,98,2192031016
20,18,Jits_Linear_8,2,5,80,127,2192041360
20,18,Jits_Linear_8,3,1,48,80,2192050852
20,18,Jits_Linear_8,0,5,56,103,2192650888
20,18,Jits_Linear_8,1,1,48,84,2192686964
20,18,Jits_Linear_8,2,5,63,98,2192761172
20,18,Jits_Linear_8,3,5,80,127,2192780656
20,18,Jits_Linear_8,0,5,63,98,2193300720
20,18,Jits_Linear_8,1,1,48,89,2193346692
20,18,Jits_Linear_8,2,5,80,127,2193350920
20,18,Jits_Linear_8,3,5,56,103,2193441076
20,18,Jits_Linear_8,0,5,63,98,2193940824
20,18,Jits_Linear_8,1,5,80,127,2193970500
20,18,Jits_Linear_8,2,1,48,81,2193994220
20,18,Jits_Linear_8,3,5,56,103,2194060628
20,18,Jits_Linear_8,0,5,63,98,2194591084
20,18,Jits_Linear_8,1,5,56,103,2194601652
20,18,Jits_Linear_8,2,5,80,127,2194700804
20,18,Jits_Linear_8,3,1,48,86,2194706916
20,18,Jits_Linear_8,0,5,63,98,2195340800
20,18,Jits_Linear_8,1,1,48,79,2195347432
20,18,Jits_Linear_8,2,5,80,127,2195371368
20,18,Jits_Linear_8,3,5,56,103,2195401188
20,18,Jits_Linear_8,0,5,80,127,2196001140
20,18,Jits_Linear_8,1,5,63,98,2196011484
20,18,Jits_Linear_8,2,5,56,103,2196041012
20,18,Jits_Linear_8,3,1,48,86,2196046672
20,18,Jits_Linear_8,0,5,80,127,2196540764
20,18,Jits_Linear_8,1,5,63,98,2196561148
20,18,Jits_Linear_8,2,5,56,103,2196610528
20,18,Jits_Linear_8,3,1,48,73,2196726560
20,18,Jits_Linear_8,0,5,63,98,2197210744
20,18,Jits_Linear_8,1,5,80,127,2197270940
20,18,Jits_Linear_8,2,5,56,103,2197291548
20,18,Jits_Linear_8,3,1,48,78,2197415424
20,18,Jits_Linear_8,0,5,63,98,2197810540
20,18,Jits_Linear_8,1,5,56,103,2197860748
20,18,Jits_Linear_8,2,5,80,127,2197870868
20,18,Jits_Linear_8,3,1,48,70,2198034320
20,18,Jits_Linear_8,0,5,56,103,2198481480
20,18,Jits_Linear_8,1,5,80,127,2198490556
20,18,Jits_Linear_8,2,5,63,98,2198590828
20,18,Jits_Linear_8,0,1,48,83,2198886532
20,18,Jits_Linear_8,1,5,80,127,2199081520
20,18,Jits_Linear_8,2,5,63,98,2199090596
20,18,Jits_Linear_8,3,5,56,103,2199240968
20,18,Jits_Linear_8,4,1,48,88,2199421880
20,18,Jits_Linear_8,0,5,63,98,2199721368
20,18,Jits_Linear_8,1,5,80,127,2199761384
20,18,Jits_Linear_8,2,5,56,103,2199841132
20,18,Jits_Linear_8,3,1,48,69,2200098224
20,18,Jits_Linear_8,0,5,56,103,2200340720
20,18,Jits_Linear_8,1,5,80,127,2200441344
20,18,Jits_Linear_8,2,5,63,98,2200460680
20,18,Jits_Linear_8,3,1,48,77,2200708500
20,18,Jits_Linear_8,0,1,48,47,2200742904
20,18,Jits_Linear_8,1,5,80,127,2201030916
20,18,Jits_Linear_8,2,5,56,103,2201041556
20,18,Jits_Linear_8,3,5,63,98,2201131564
20,18,Jits_Linear_8,0,1,48,70,2201412340
20,18,Jits_Linear_8,1,5,56,103,2201660828
20,18,Jits_Linear_8,2,5,63,98,2201681440
20,18,Jits_Linear_8,3,5,80,127,2201761232
20,18,Jits_Linear_8,0,1,48,74,2201998872
20,18,Jits_Linear_8,1,5,63,98,2202231364
20,18,Jits_Linear_8,2,5,56,103,2202321424
20,18,Jits_Linear_8,3,5,80,127,2202324636
20,18,Jits_Linear_8,4,1,48,78,2202496420
20,18,Jits_Linear_8,5,1,48,50,2202533036
20,18,Jits_Linear_8,0,5,56,103,2202881368
20,18,Jits_Linear_8,1,5,80,127,2202940788
20,18,Jits_Linear_8,2,5,63,98,2202950984
20,18,Jits_Linear_8,3,1,48,70,2203067444
20,18,Jits_Linear_8,4,1,48,53,2203094836
20,18,Jits_Linear_8,0,5,80,127,2203551248
20,18,Jits_Linear_8,1,5,56,103,2203561516
20,18,Jits_Linear_8,2,5,63,98,2203564584
20,18,Jits_Linear_8,3,1,48,74,2203721460
20,18,Jits_Linear_8,4,1,48,57,2203746756
20,18,Jits_Linear_8,0,5,56,103,2204130572
20,18,Jits_Linear_8,1,5,80,127,2204140844
20,18,Jits_Linear_8,2,5,63,98,2204161452
20,18,Jits_Linear_8,3,1,48,75,2204247644
20,18,Jits_Linear_8,4,1,48,51,2204271376
20,18,Jits_Linear_8,0,5,63,98,2204720436
20,18,Jits_Linear_8,1,1,48,76,2204756736
20,18,Jits_Linear_8,2,1,48,53,2204780584
20,18,Jits_Linear_8,3,5,80,127,2204781772
20,18,Jits_Linear_8,4,5,56,103,2204831228
20,18,Jits_Linear_8,0,1,48,76,2205323960
20,18,Jits_Linear_8,1,1,48,50,2205350396
20,18,Jits_Linear_8,2,5,63,98,2205420872
20,18,Jits_Linear_8,3,5,56,103,2205431440
20,18,Jits_Linear_8,4,5,80,127,2205481328
20,18,Jits_Linear_8,0,5,63,98,2205930892
20,18,Jits_Linear_8,1,5,80,127,2205951276
20,18,Jits_Linear_8,2,5,56,103,2205960572
20,18,Jits_Linear_8,3,1,48,80,2205997252
20,18,Jits_Linear_8,4,1,48,28,2206064728
20,18,Jits_Linear_8,5,1,48,18,2206228952
20,18,Jits_Linear_8,0,5,63,98,2206541288
20,18,Jits_Linear_8,1,5,80,127,2206544500
20,18,Jits_Linear_8,2,1,48,86,2206569284
20,18,Jits_Linear_8,3,5,56,103,2206581068
20,18,Jits_Linear_8,0,1,48,84,2207162132
20,18,Jits_Linear_8,1,5,63,98,2207221224
20,18,Jits_Linear_8,2,5,80,127,2207250680
20,18,Jits_Linear_8,3,5,56,103,2207261304
20,18,Jits_Linear_8,0,5,56,103,2207781144
20,18,Jits_Linear_8,1,5,80,127,2207810824
20,18,Jits_Linear_8,2,1,48,99,2207818280
20,18,Jits_Linear_8,3,5,63,98,2207840640
20,18,Jits_Linear_8,0,1,48,77,2208406588
20,18,Jits_Linear_8,1,5,63,98,2208480644
20,18,Jits_Linear_8,2,5,56,103,2208520496
20,18,Jits_Linear_8,3,5,80,127,2208523636
20,18,Jits_Linear_8,0,5,80,127,2208981348
20,18,Jits_Linear_8,1,1,48,73,2209021580
20,18,Jits_Linear_8,2,5,56,103,2209061312
20,18,Jits_Linear_8,3,5,63,98,2209111440
20,18,Jits_Linear_8,0,5,80,127,2209561152
20,18,Jits_Linear_8,1,5,56,103,2209581316
20,18,Jits_Linear_8,2,1,48,86,2209663028
20,18,Jits_Linear_8,3,5,63,98,2209670544
20,18,Jits_Linear_8,0,5,80,127,2210200872
20,18,Jits_Linear_8,1,1,48,77,2210210888
20,18,Jits_Linear_8,2,5,63,98,2210241100
20,18,Jits_Linear_8,3,5,56,103,2210280992
20,18,Jits_Linear_8,0,1,48,76,2210771584
20,18,Jits_Linear_8,1,5,63,98,2210773076
20,18,Jits_Linear_8,2,5,80,127,2210830576
20,18,Jits_Linear_8,3,5,56,103,2210861372
20,18,Jits_Linear_8,0,5,56,103,2211371304
20,18,Jits_Linear_8,1,5,80,127,2211401132
20,18,Jits_Linear_8,2,1,48,85,2211416980
20,18,Jits_Linear_8,3,5,63,98,2211491180
20,18,Jits_Linear_8,0,5,56,103,2211970340
20,18,Jits_Linear_8,1,1,48,66,2211986112
20,18,Jits_Linear_8,2,5,80,127,2212081320
20,18,Jits_Linear_8,3,5,63,98,2212110684
20,18,Jits_Linear_8,0,5,56,103,2212610308
20,18,Jits_Linear_8,1,1,48,84,2212653064
20,18,Jits_Linear_8,2,5,63,98,2212670772
20,18,Jits_Linear_8,3,5,80,127,2212700444
20,18,Jits_Linear_8,0,5,56,103,2213170616
20,18,Jits_Linear_8,1,5,63,98,2213241120
20,18,Jits_Linear_8,2,5,80,127,2213260608
20,18,Jits_Linear_8,3,1,48,56,2213346224
20,18,Jits_Linear_8,0,5,80,127,2213730544
20,18,Jits_Linear_8,1,5,63,98,2213751300
20,18,Jits_Linear_8,2,5,56,103,2213801428
20,18,Jits_Linear_8,3,1,48,78,2213881364
20,18,Jits_Linear_8,0,5,63,98,2214330704
20,18,Jits_Linear_8,1,5,80,127,2214341120
20,18,Jits_Linear_8,2,1,48,43,2214361776
20,18,Jits_Linear_8,3,5,56,103,2214391268
20,18,Jits_Linear_8,0,1,48,52,2214882364
20,18,Jits_Linear_8,1,5,63,98,2214911232
20,18,Jits_Linear_8,2,5,80,127,2214982396
20,18,Jits_Linear_8,3,5,56,103,2215000388
20,18,Jits_Linear_8,0,5,63,98,2215520604
20,18,Jits_Linear_8,1,5,80,127,2215524188
20,18,Jits_Linear_8,2,1,48,74,2215556604
20,18,Jits_Linear_8,3,5,56,103,2215591176
20,18,Jits_Linear_8,0,5,80,127,2216050912
20,18,Jits_Linear_8,1,5,56,103,2216070548
20,18,Jits_Linear_8,2,5,63,98,2216081116
20,18,Jits_Linear_8,3,1,48,72,2216211696
20,18,Jits_Linear_8,0,5,56,103,2216651132
20,18,Jits_Linear_8,1,5,63,98,2216741364
20,18,Jits_Linear_8,2,5,80,127,2216744580
20,18,Jits_Linear_8,3,1,48,63,2216778488
20,18,Jits_Linear_8,4,1,48,33,2216823952
20,18,Jits_Linear_8,0,5,80,127,2217201160
20,18,Jits_Linear_8,1,5,56,103,2217211208
20,18,Jits_Linear_8,2,5,63,98,2217230696
20,18,Jits_Linear_8,3,1,48,56,2217333076
20,18,Jits_Linear_8,0,5,63,98,2217771344
20,18,Jits_Linear_8,1,5,80,127,2217830988
20,18,Jits_Linear_8,2,5,56,103,2217841184
20,18,Jits_Linear_8,3,1,48,71,2217861764
20,18,Jits_Linear_8,0,1,48,61,2218400980
20,18,Jits_Linear_8,1,5,63,98,2218411416
20,18,Jits_Linear_8,2,1,48,45,2218429288
20,18,Jits_Linear_8,3,5,80,127,2218440996
20,18,Jits_Linear_8,4,5,56,103,2218480960
20,18,Jits_Linear_8,0,5,56,103,2218970340
20,18,Jits_Linear_8,1,5,80,127,2218980932
20,18,Jits_Linear_8,2,1,48,83,2218998352
20,18,Jits_Linear_8,3,5,63,98,2219020640
20,18,Jits_Linear_8,4,1,48,35,2219059108
20,18,Jits_Linear_8,0,5,80,127,2219500892
20,18,Jits_Linear_8,1,5,56,103,2219580988
20,18,Jits_Linear_8,2,5,63,98,2219591108
20,18,Jits_Linear_8,3,1,48,94,2219679788
20,18,Jits_Linear_8,0,5,80,127,2220111168
20,18,Jits_Linear_8,1,5,56,103,2220191040
20,18,Jits_Linear_8,2,5,63,98,2220201388
20,18,Jits_Linear_8,3,1,48,79,2220283564
20,18,Jits_Linear_8,0,5,80,127,2220631396
20,18,Jits_Linear_8,1,5,56,103,2220680628
20,18,Jits_Linear_8,2,5,63,98,2220730900
20,18,Jits_Linear_8,3,1,48,92,2220856456
20,18,Jits_Linear_8,0,5,56,103,2221250964
20,18,Jits_Linear_8,1,5,63,98,2221253880
20,18,Jits_Linear_8,2,5,80,127,2221300968
20,18,Jits_Linear_8,3,1,48,85,2221502456
20,18,Jits_Linear_8,0,5,56,103,2221830396
20,18,Jits_Linear_8,1,5,63,98,2221861272
20,18,Jits_Linear_8,2,5,80,127,2221870424
20,18,Jits_Linear_8,0,1,48,79,2222168152
20,18,Jits_Linear_8,1,5,63,98,2222300412
20,18,Jits_Linear_8,2,5,56,103,2222371320
20,18,Jits_Linear_8,3,5,80,127,2222421372
20,18,Jits_Linear_8,0,1,48,100,2222798492
20,18,Jits_Linear_8,1,5,63,98,2222891300
20,18,Jits_Linear_8,2,5,56,103,2222900668
20,18,Jits_Linear_8,3,5,80,127,2222903808
20,18,Jits_Linear_8,0,5,80,127,2223391084
20,18,Jits_Linear_8,1,5,56,103,2223450580
20,18,Jits_Linear_8,2,1,48,97,2223491980
20,18,Jits_Linear_8,3,5,63,98,2223540704
20,18,Jits_Linear_8,0,5,80,127,2223941044
20,18,Jits_Linear_8,1,5,56,103,2224041372
20,18,Jits_Linear_8,2,5,63,98,2224081312
20,18,Jits_Linear_8,3,1,48,81,2224156440
20,18,Jits_Linear_8,0,5,56,103,2224541060
20,18,Jits_Linear_8,1,5,63,98,2224560476
20,18,Jits_Linear_8,2,5,80,127,2224600412
20,18,Jits_Linear_8,3,1,48,92,2224794508
20,18,Jits_Linear_8,0,5,63,98,2225061280
20,18,Jits_Linear_8,1,5,56,103,2225080844
20,18,Jits_Linear_8,2,5,80,127,2225181112
20,18,Jits_Linear_8,0,1,48,85,2225499524
20,18,Jits_Linear_8,1,5,63,98,2225590804
20,18,Jits_Linear_8,2,5,80,127,2225701180
20,18,Jits_Linear_8,3,5,56,103,2225730780
20,18,Jits_Linear_8,0,5,56,103,2226150976
20,18,Jits_Linear_8,1,5,63,98,2226180432
20,18,Jits_Linear_8,2,1,48,88,2226203476
20,18,Jits_Linear_8,3,5,80,127,2226230624
20,18,Jits_Linear_8,0,5,63,98,2226660932
20,18,Jits_Linear_8,1,5,56,103,2226690312
20,18,Jits_Linear_8,2,5,80,127,2226740588
20,18,Jits_Linear_8,3,1,48,105,2226892780
20,18,Jits_Linear_8,0,5,56,103,2227231044
20,18,Jits_Linear_8,1,5,63,98,2227250680
20,18,Jits_Linear_8,2,5,80,127,2227330404
20,18,Jits_Linear_8,0,1,48,93,2227606928
20,18,Jits_Linear_8,1,5,63,98,2227740936
20,18,Jits_Linear_8,2,5,56,103,2227800576
20,18,Jits_Linear_8,3,5,80,127,2227831076
20,18,Jits_Linear_8,0,1,48,87,2228287640
20,18,Jits_Linear_8,1,5,56,103,2228320792
20,18,Jits_Linear_8,2,5,80,127,2228381992
20,18,Jits_Linear_8,3,5,63,98,2228420956
20,18,Jits_Linear_8,0,5,63,98,2228830668
20,18,Jits_Linear_8,1,5,56,103,2228890908
20,18,Jits_Linear_8,2,1,48,84,2228953664
20,18,Jits_Linear_8,3,5,80,127,2228960832
20,18,Jits_Linear_8,0,5,56,103,2229440856
20,18,Jits_Linear_8,1,5,63,98,2229451052
20,18,Jits_Linear_8,2,5,80,127,2229454788
20,18,Jits_Linear_8,3,1,48,92,2229474720
20,18,Jits_Linear_8,4,1,48,56,2229499132
20,18,Jits_Linear_8,0,5,63,98,2229910848
20,18,Jits_Linear_8,1,5,56,103,2229971236
20,18,Jits_Linear_8,2,5,80,127,2229974376
20,18,Jits_Linear_8,3,1,48,70,2230031696
20,18,Jits_Linear_8,0,5,63,98,2230420928
20,18,Jits_Linear_8,1,5,80,127,2230450680
20,18,Jits_Linear_8,2,5,56,103,2230470916
20,18,Jits_Linear_8,3,1,48,77,2230596988
20,18,Jits_Linear_8,4,1,48,51,2230623340
20,18,Jits_Linear_8,0,5,56,103,2230951284
20,18,Jits_Linear_8,1,5,63,98,2231000516
20,18,Jits_Linear_8,2,5,80,127,2231081456
20,18,Jits_Linear_8,3,1,48,34,2231090948
20,18,Jits_Linear_8,0,5,80,127,2231450976
20,18,Jits_Linear_8,1,5,63,98,2231490840
20,18,Jits_Linear_8,2,5,56,103,2231511672
20,18,Jits_Linear_8,3,1,48,57,2231592876
20,18,Jits_Linear_8,0,5,56,103,2232040748
20,18,Jits_Linear_8,1,5,80,127,2232051168
20,18,Jits_Linear_8,2,1,48,61,2232059464
20,18,Jits_Linear_8,3,5,63,98,2232070648
20,18,Jits_Linear_8,0,1,48,65,2232539360
20,18,Jits_Linear_8,1,5,56,103,2232540932
20,18,Jits_Linear_8,2,5,63,98,2232590640
20,18,Jits_Linear_8,3,5,80,127,2232621732
20,18,Jits_Linear_8,0,5,56,103,2233010724
20,18,Jits_Linear_8,1,5,63,98,2233020920
20,18,Jits_Linear_8,2,1,48,57,2233066088
20,18,Jits_Linear_8,3,5,80,127,2233070992
20,18,Jits_Linear_8,0,5,56,103,2233520672
20,18,Jits_Linear_8,1,5,80,127,2233523664
20,18,Jits_Linear_8,2,1,48,72,2233527156
20,18,Jits_Linear_8,3,1,48,38,2233572116
20,18,Jits_Linear_8,4,5,63,98,2233681208
20,18,Jits_Linear_8,0,1,48,69,2234030116
20,18,Jits_Linear_8,1,5,63,98,2234050892
20,18,Jits_Linear_8,2,1,48,45,2234068224
20,18,Jits_Linear_8,3,5,56,103,2234120576
20,18,Jits_Linear_8,4,5,80,127,2234160664
20,18,Jits_Linear_8,0,1,48,67,2234586096
20,18,Jits_Linear_8,1,5,63,98,2234600840
20,18,Jits_Linear_8,2,1,48,41,2234622080
20,18,Jits_Linear_8,3,5,56,103,2234691028
20,18,Jits_Linear_8,4,5,80,127,2234694096
20,18,Jits_Linear_8,0,5,56,103,2235091404
20,18,Jits_Linear_8,1,1,48,67,2235135972
20,18,Jits_Linear_8,2,5,63,98,2235181708
20,18,Jits_Linear_8,3,5,80,127,2235190784
20,18,Jits_Linear_8,0,5,56,103,2235570504
20,18,Jits_Linear_8,1,5,63,98,2235620584
20,18,Jits_Linear_8,2,5,80,127,2235650480
20,18,Jits_Linear_8,3,1,48,57,2235692112
20,18,Jits_Linear_8,0,5,63,98,2236151064
20,18,Jits_Linear_8,1,5,80,127,2236161408
20,18,Jits_Linear_8,2,1,48,72,2236181840
20,18,Jits_Linear_8,3,5,56,103,2236220744
20,18,Jits_Linear_8,0,5,63,98,2236570852
20,18,Jits_Linear_8,1,5,80,127,2236631692
20,18,Jits_Linear_8,2,5,56,103,2236671432
20,18,Jits_Linear_8,3,1,48,69,2236724892
20,18,Jits_Linear_8,0,5,56,103,2237171020
20,18,Jits_Linear_8,1,5,80,127,2237190436
20,18,Jits_Linear_8,2,5,63,98,2237211044
20,18,Jits_Linear_8,3,1,48,75,2237253416
20,18,Jits_Linear_8,0,5,63,98,2237590980
20,18,Jits_Linear_8,1,5,56,103,2237611516
20,18,Jits_Linear_8,2,5,80,127,2237651452
20,18,Jits_Linear_8,3,1,48,72,2237707928
20,18,Jits_Linear_8,0,5,63,98,2238100996
20,18,Jits_Linear_8,1,5,80,127,2238130672
20,18,Jits_Linear_8,2,5,56,103,2238151132
20,18,Jits_Linear_8,3,1,48,82,2238182368
20,18,Jits_Linear_8,0,5,80,127,2238570852
20,18,Jits_Linear_8,1,5,56,103,2238621132
20,18,Jits_Linear_8,2,1,48,78,2238632272
20,18,Jits_Linear_8,3,5,63,98,2238680616
20,18,Jits_Linear_8,0,5,63,98,2239051068
20,18,Jits_Linear_8,1,1,48,86,2239116140
20,18,Jits_Linear_8,2,5,56,103,2239170940
20,18,Jits_Linear_8,3,5,80,127,2239200644
20,18,Jits_Linear_8,0,5,80,127,2239580496
20,18,Jits_Linear_8,1,5,63,98,2239600884
20,18,Jits_Linear_8,2,1,48,79,2239636888
20,18,Jits_Linear_8,3,5,56,103,2239670704
20,18,Jits_Linear_8,0,5,63,98,2240090608
20,18,Jits_Linear_8,1,5,56,103,2240100804
20,18,Jits_Linear_8,2,1,48,88,2240150376
20,18,Jits_Linear_8,3,5,80,127,2240180592
20,18,Jits_Linear_8,0,1,48,84,2240625460
20,18,Jits_Linear_8,1,5,56,103,2240641604
20,18,Jits_Linear_8,2,5,80,127,2240670980
20,18,Jits_Linear_8,3,5,63,98,2240681476
20,18,Jits_Linear_8,0,9999,9999,9999,2130288700
20,18,Jits_Linear_8,1,9999,9999,9999,2131108936
20,18,Jits_Linear_8,2,9999,9999,9999,2131928144
20,18,Jits_Linear_8,3,9999,9999,9999,2132748396
20,18,Jits_Linear_8,4,9999,9999,9999,2133568612
20,18,Jits_Linear_8,5,9999,9999,9999,2134378560
20,18,Jits_Linear_8,6,9999,9999,9999,2135188592
20,18,Jits_Linear_8,7,9999,9999,9999,2135998548
20,18,Jits_Linear_8,8,9999,9999,9999,2136808536
20,18,Jits_Linear_8,9,9999,9999,9999,2137618540
20,18,Jits_Linear_8,10,9999,9999,9999,2138418240
20,18,Jits_Linear_8,11,9999,9999,9999,2139219056
20,18,Jits_Linear_8,12,9999,9999,9999,2140018756
20,18,Jits_Linear_8,13,9999,9999,9999,2140818520
20,18,Jits_Linear_8,14,9999,9999,9999,2141618260
20,18,Jits_Linear_8,15,9999,9999,9999,2142408804
20,18,Jits_Linear_8,16,9999,9999,9999,2143198280
20,18,Jits_Linear_8,17,9999,9999,9999,2143988840
20,18,Jits_Linear_8,18,9999,9999,9999,2144778336
20,18,Jits_Linear_8,19,9999,9999,9999,2145568864
20,18,Jits_Linear_8,20,9999,9999,9999,2146348144
20,18,Jits_Linear_8,21,9999,9999,9999,2147128412
20,18,Jits_Linear_8,22,9999,9999,9999,2147908704
20,18,Jits_Linear_8,23,9999,9999,9999,2148688992
20,18,Jits_Linear_8,24,9999,9999,9999,2149468220
20,18,Jits_Linear_8,25,9999,9999,9999,2150238304
20,18,Jits_Linear_8,26,9999,9999,9999,2151008340
20,18,Jits_Linear_8,27,9999,9999,9999,2151778364
20,18,Jits_Linear_8,28,9999,9999,9999,2152548460
20,18,Jits_Linear_8,29,9999,9999,9999,2153318492
20,18,Jits_Linear_8,30,9999,9999,9999,2154078312
20,18,Jits_Linear_8,31,9999,9999,9999,2154838132
20,18,Jits_Linear_8,32,9999,9999,9999,2155598948
20,18,Jits_Linear_8,33,9999,9999,9999,2156358716
20,18,Jits_Linear_8,34,9999,9999,9999,2157118548
20,18,Jits_Linear_8,35,9999,9999,9999,2157868132
20,18,Jits_Linear_8,36,9999,9999,9999,2158618744
20,18,Jits_Linear_8,37,9999,9999,9999,2159368248
20,18,Jits_Linear_8,38,9999,9999,9999,2160118864
20,18,Jits_Linear_8,39,9999,9999,9999,2160868440
20,18,Jits_Linear_8,40,9999,9999,9999,2161608776
20,18,Jits_Linear_8,41,9999,9999,9999,2162348160
20,18,Jits_Linear_8,42,9999,9999,9999,2163088496
20,18,Jits_Linear_8,43,9999,9999,9999,2163828844
20,18,Jits_Linear_8,44,9999,9999,9999,2164568132
20,18,Jits_Linear_8,45,9999,9999,9999,2165298296
20,18,Jits_Linear_8,46,9999,9999,9999,2166028392
20,18,Jits_Linear_8,47,9999,9999,9999,2166758480
20,18,Jits_Linear_8,48,9999,9999,9999,2167488604
20,18,Jits_Linear_8,49,9999,9999,9999,2168218740
20,18,Jits_Linear_8,50,9999,9999,9999,2168938620
20,18,Jits_Linear_8,51,9999,9999,9999,2169658452
20,18,Jits_Linear_8,52,9999,9999,9999,2170378360
20,18,Jits_Linear_8,53,9999,9999,9999,2171098168
20,18,Jits_Linear_8,54,9999,9999,9999,2171819116
20,18,Jits_Linear_8,55,9999,9999,9999,2172538992
20,18,Jits_Linear_8,56,9999,9999,9999,2173248636
20,18,Jits_Linear_8,57,9999,9999,9999,2173958196
20,18,Jits_Linear_8,58,9999,9999,9999,2174668868
20,18,Jits_Linear_8,59,9999,9999,9999,2175378520
20,18,Jits_Linear_8,60,9999,9999,9999,2176078932
20,18,Jits_Linear_8,61,9999,9999,9999,2176778296
20,18,Jits_Linear_8,62,9999,9999,9999,2177478756
20,18,Jits_Linear_8,63,9999,9999,9999,2178178108
20,18,Jits_Linear_8,64,9999,9999,9999,2178878564
20,18,Jits_Linear_8,65,9999,9999,9999,2179568724
20,18,Jits_Linear_8,66,9999,9999,9999,2180258924
20,18,Jits_Linear_8,67,9999,9999,9999,2180949080
20,18,Jits_Linear_8,68,9999,9999,9999,2181638244
20,18,Jits_Linear_8,69,9999,9999,9999,2182328380
20,18,Jits_Linear_8,70,9999,9999,9999,2183008368
20,18,Jits_Linear_8,71,9999,9999,9999,2183688248
20,18,Jits_Linear_8,72,9999,9999,9999,2184368228
20,18,Jits_Linear_8,73,9999,9999,9999,2185048164
20,18,Jits_Linear_8,74,9999,9999,9999,2185728120
20,18,Jits_Linear_8,75,9999,9999,9999,2186398840
20,18,Jits_Linear_8,76,9999,9999,9999,2187068472
20,18,Jits_Linear_8,77,9999,9999,9999,2187738232
20,18,Jits_Linear_8,78,9999,9999,9999,2188408940
20,18,Jits_Linear_8,79,9999,9999,9999,2189078644
20,18,Jits_Linear_8,80,9999,9999,9999,2189739100
20,18,Jits_Linear_8,81,9999,9999,9999,2190408792
20,18,Jits_Linear_8,82,9999,9999,9999,2191068252
20,18,Jits_Linear_8,83,9999,9999,9999,2191728692
20,18,Jits_Linear_8,84,9999,9999,9999,2192388208
20,18,Jits_Linear_8,85,9999,9999,9999,2193038416
20,18,Jits_Linear_8,86,9999,9999,9999,2193688644
20,18,Jits_Linear_8,87,9999,9999,9999,2194338908
20,18,Jits_Linear_8,88,9999,9999,9999,2194988144
20,18,Jits_Linear_8,89,9999,9999,9999,2195638344
20,18,Jits_Linear_8,90,9999,9999,9999,2196278384
20,18,Jits_Linear_8,91,9999,9999,9999,2196918392
20,18,Jits_Linear_8,92,9999,9999,9999,2197558360
20,18,Jits_Linear_8,93,9999,9999,9999,2198198360
20,18,Jits_Linear_8,94,9999,9999,9999,2198838332
20,18,Jits_Linear_8,95,9999,9999,9999,2199468092
20,18,Jits_Linear_8,96,9999,9999,9999,2200098896
20,18,Jits_Linear_8,97,9999,9999,9999,2200728632
20,18,Jits_Linear_8,98,9999,9999,9999,2201358400
20,18,Jits_Linear_8,99,9999,9999,9999,2201988216
20,18,Jits_Linear_8,100,9999,9999,9999,2202608708
20,18,Jits_Linear_8,101,9999,9999,9999,2203228264
20,18,Jits_Linear_8,102,9999,9999,9999,2203848764
20,18,Jits_Linear_8,103,9999,9999,9999,2204468324
20,18,Jits_Linear_8,104,9999,9999,9999,2205088832
20,18,Jits_Linear_8,105,9999,9999,9999,2205698124
20,18,Jits_Linear_8,106,9999,9999,9999,2206308416
20,18,Jits_Linear_8,107,9999,9999,9999,2206918756
20,18,Jits_Linear_8,108,9999,9999,9999,2207529040
20,18,Jits_Linear_8,109,9999,9999,9999,2208138324
20,18,Jits_Linear_8,110,9999,9999,9999,2208738408
20,18,Jits_Linear_8,111,9999,9999,9999,2209338484
20,18,Jits_Linear_8,112,9999,9999,9999,2209938488
20,18,Jits_Linear_8,113,9999,9999,9999,2210538596
20,18,Jits_Linear_8,114,9999,9999,9999,2211138676
20,18,Jits_Linear_8,115,9999,9999,9999,2211728484
20,18,Jits_Linear_8,116,9999,9999,9999,2212318312
20,18,Jits_Linear_8,117,9999,9999,9999,2212908084
20,18,Jits_Linear_8,118,9999,9999,9999,2213498952
20,18,Jits_Linear_8,119,9999,9999,9999,2214088768
20,18,Jits_Linear_8,120,9999,9999,9999,2214668352
20,18,Jits_Linear_8,121,9999,9999,9999,2215249016
20,18,Jits_Linear_8,122,9999,9999,9999,2215828552
20,18,Jits_Linear_8,123,9999,9999,9999,2216408164
20,18,Jits_Linear_8,124,9999,9999,9999,2216988756
20,18,Jits_Linear_8,125,9999,9999,9999,2217558112
20,18,Jits_Linear_8,126,9999,9999,9999,2218128452
20,18,Jits_Linear_8,127,9999,9999,9999,2218698832
20,18,Jits_Linear_8,128,9999,9999,9999,2219268184
20,18,Jits_Linear_8,129,9999,9999,9999,2219838520
20,18,Jits_Linear_8,130,9999,9999,9999,2220398680
20,18,Jits_Linear_8,131,9999,9999,9999,2220958836
20,18,Jits_Linear_8,132,9999,9999,9999,2221518924
20,18,Jits_Linear_8,133,9999,9999,9999,2222079044
20,18,Jits_Linear_8,134,9999,9999,9999,2222638168
20,18,Jits_Linear_8,135,9999,9999,9999,2223189076
20,18,Jits_Linear_8,136,9999,9999,9999,2223738976
20,18,Jits_Linear_8,137,9999,9999,9999,2224288868
20,18,Jits_Linear_8,138,9999,9999,9999,2224838776
20,18,Jits_Linear_8,139,9999,9999,9999,2225388616
20,18,Jits_Linear_8,140,9999,9999,9999,2225928320
20,18,Jits_Linear_8,141,9999,9999,9999,2226468976
20,18,Jits_Linear_8,142,9999,9999,9999,2227008596
20,18,Jits_Linear_8,143,9999,9999,9999,2227548244
20,18,Jits_Linear_8,144,9999,9999,9999,2228088920
20,18,Jits_Linear_8,145,9999,9999,9999,2228618348
20,18,Jits_Linear_8,146,9999,9999,9999,2229148744
20,18,Jits_Linear_8,147,9999,9999,9999,2229678140
20,18,Jits_Linear_8,148,9999,9999,9999,2230208608
20,18,Jits_Linear_8,149,9999,9999,9999,2230739052
20,18,Jits_Linear_8,150,9999,9999,9999,2231258204
20,18,Jits_Linear_8,151,9999,9999,9999,2231778364
20,18,Jits_Linear_8,152,9999,9999,9999,2232298584
20,18,Jits_Linear_8,153,9999,9999,9999,2232818812
20,18,Jits_Linear_8,154,9999,9999,9999,2233338936
20,18,Jits_Linear_8,155,9999,9999,9999,2233848932
20,18,Jits_Linear_8,156,9999,9999,9999,2234358864
20,18,Jits_Linear_8,157,9999,9999,9999,2234868852
20,18,Jits_Linear_8,158,9999,9999,9999,2235378796
20,18,Jits_Linear_8,159,9999,9999,9999,2235888752
20,18,Jits_Linear_8,160,9999,9999,9999,2236388456
20,18,Jits_Linear_8,161,9999,9999,9999,2236888180
20,18,Jits_Linear_8,162,9999,9999,9999,2237388908
20,18,Jits_Linear_8,163,9999,9999,9999,2237888600
20,18,Jits_Linear_8,164,9999,9999,9999,2238388280
20,18,Jits_Linear_8,165,9999,9999,9999,2238878816
20,18,Jits_Linear_8,166,9999,9999,9999,2239368252
20,18,Jits_Linear_8,167,9999,9999,9999,2239858792
20,18,Jits_Linear_8,168,9999,9999,9999,2240348228
20,18,Jits_Linear_8,169,9999,9999,9999,2240838776
21,5,ISIP_5,0,5,42,127,2320354528
21,5,ISIP_5,1,5,42,127,2320855268
21,5,ISIP_5,2,5,42,127,2321355352
21,5,ISIP_5,3,5,42,127,2321854996
21,5,ISIP_5,4,5,42,127,2322354564
21,5,ISIP_5,5,5,42,127,2322855328
21,5,ISIP_5,6,1,48,72,2323328008
21,5,ISIP_5,7,5,42,127,2323355188
21,5,ISIP_5,8,1,48,98,2323847144
21,5,ISIP_5,9,5,42,127,2323854736
21,5,ISIP_5,10,5,42,127,2324354436
21,5,ISIP_5,11,1,48,108,2324358156
21,5,ISIP_5,12,5,42,127,2324855104
21,5,ISIP_5,13,1,48,98,2324866900
21,5,ISIP_5,14,5,42,127,2325355020
21,5,ISIP_5,15,1,48,99,2325356884
21,5,ISIP_5,16,5,42,127,2325854568
21,5,ISIP_5,17,1,48,89,2325862096
21,5,ISIP_5,18,5,42,127,2326355232
21,5,ISIP_5,19,1,48,92,2326365156
21,5,ISIP_5,20,5,42,127,2326855000
21,5,ISIP_5,21,1,48,91,2326871660
21,5,ISIP_5,22,5,42,127,2327354920
21,5,ISIP_5,23,1,48,99,2327359544
21,5,ISIP_5,24,1,48,105,2327849788
21,5,ISIP_5,25,5,42,127,2327854388
21,5,ISIP_5,26,1,48,110,2328332732
21,5,ISIP_5,27,5,42,127,2328355128
21,5,ISIP_5,28,1,48,102,2328826740
21,5,ISIP_5,29,5,42,127,2328855048
21,5,ISIP_5,30,1,48,83,2329325532
21,5,ISIP_5,31,5,42,127,2329354888
21,5,ISIP_5,32,1,48,102,2329855712
21,5,ISIP_5,33,5,42,127,2329857132
21,5,ISIP_5,34,1,48,96,2330355108
21,5,ISIP_5,35,5,42,127,2330356900
21,5,ISIP_5,36,5,42,127,2330855100
21,5,ISIP_5,37,1,48,96,2330858296
21,5,ISIP_5,38,1,48,94,2331334092
21,5,ISIP_5,39,5,42,127,2331354420
21,5,ISIP_5,40,1,48,98,2331824584
21,5,ISIP_5,41,5,42,127,2331855060
21,5,ISIP_5,42,1,48,97,2332323380
21,5,ISIP_5,43,5,42,127,2332354908
21,5,ISIP_5,44,1,48,79,2332834148
21,5,ISIP_5,45,5,42,127,2332854824
21,5,ISIP_5,46,1,48,91,2333339524
21,5,ISIP_5,47,5,42,127,2333355492
21,5,ISIP_5,48,1,48,98,2333829872
21,5,ISIP_5,49,5,42,127,2333855036
21,5,ISIP_5,50,1,48,108,2334336820
21,5,ISIP_5,51,5,42,127,2334354732
21,5,ISIP_5,52,1,48,102,2334835688
21,5,ISIP_5,53,5,42,127,2334854724
21,5,ISIP_5,54,1,48,88,2335336288
21,5,ISIP_5,55,5,42,127,2335355320
21,5,ISIP_5,56,1,48,37,2335391112
21,5,ISIP_5,57,1,48,104,2335848828
21,5,ISIP_5,58,5,42,127,2335854916
21,5,ISIP_5,59,1,48,96,2336354916
21,5,ISIP_5,60,5,42,127,2336356412
21,5,ISIP_5,61,1,48,99,2336840660
21,5,ISIP_5,62,5,42,127,2336855580
21,5,ISIP_5,63,1,48,87,2337343576
21,5,ISIP_5,64,5,42,127,2337355124
21,5,ISIP_5,65,5,42,127,2337854824
21,5,ISIP_5,66,1,48,73,2337866024
21,5,ISIP_5,67,1,48,98,2338347524
21,5,ISIP_5,68,5,42,127,2338354664
21,5,ISIP_5,69,5,42,127,2338855188
21,5,ISIP_5,70,1,48,96,2338873568
21,5,ISIP_5,71,5,42,127,2339354960
21,5,ISIP_5,72,1,48,87,2339377972
21,5,ISIP_5,73,5,42,127,2339854652
21,5,ISIP_5,74,1,48,81,2339885224
21,5,ISIP_5,75,1,48,86,2340340024
21,5,ISIP_5,76,1,48,81,2340876752
21,5,ISIP_5,77,1,48,85,2341372400
21,5,ISIP_5,78,1,48,84,2341917796
21,5,ISIP_5,79,1,48,83,2342439252
21,5,ISIP_5,80,1,48,81,2342973120
21,5,ISIP_5,81,1,48,76,2343502212
21,5,ISIP_5,82,1,48,78,2344012372
21,5,ISIP_5,83,1,48,72,2344529712
21,5,ISIP_5,84,1,48,84,2345023416
21,5,ISIP_5,85,1,48,40,2345067608
21,5,ISIP_5,86,1,48,71,2345543208
21,5,ISIP_5,87,1,48,77,2346066536
21,5,ISIP_5,88,1,48,92,2346560916
21,5,ISIP_5,89,1,48,51,2346600764
21,5,ISIP_5,90,1,48,93,2347075468
21,5,ISIP_5,91,1,48,81,2347605528
21,5,ISIP_5,92,1,48,88,2348095576
21,5,ISIP_5,93,1,48,80,2348613740
21,5,ISIP_5,94,1,48,86,2349126516
21,5,ISIP_5,95,1,48,71,2349672284
21,5,ISIP_5,96,1,48,92,2350179832
21,5,ISIP_5,97,1,48,92,2350690140
21,5,ISIP_5,98,1,48,93,2351189088
21,5,ISIP_5,99,1,48,41,2351234392
21,5,ISIP_5,100,1,48,84,2351697428
21,5,ISIP_5,101,1,48,98,2352212304
21,5,ISIP_5,102,1,48,96,2352723512
21,5,ISIP_5,103,1,48,87,2353239064
21,5,ISIP_5,104,1,48,85,2353761416
21,5,ISIP_5,105,1,48,96,2354270980
21,5,ISIP_5,106,1,48,95,2354776876
21,5,ISIP_5,107,1,48,33,2354839536
21,5,ISIP_5,108,1,48,88,2355298236
21,5,ISIP_5,109,1,48,76,2355808172
21,5,ISIP_5,110,1,48,81,2356317220
21,5,ISIP_5,111,1,48,77,2356846452
21,5,ISIP_5,112,1,48,68,2357389320
21,5,ISIP_5,113,1,48,74,2357921468
21,5,ISIP_5,114,1,48,84,2358443152
21,5,ISIP_5,115,1,48,85,2358960196
21,5,ISIP_5,116,1,48,76,2359489276
21,5,ISIP_5,117,1,48,77,2360025348
21,5,ISIP_5,118,1,48,86,2360552188
21,5,ISIP_5,119,1,48,81,2361078808
21,5,ISIP_5,120,1,48,42,2361140792
21,5,ISIP_5,121,1,48,92,2361614228
21,5,ISIP_5,122,1,48,87,2362124540
21,5,ISIP_5,123,1,48,91,2362636500
21,5,ISIP_5,124,1,48,87,2363149052
21,5,ISIP_5,125,1,48,80,2363682476
21,5,ISIP_5,126,1,48,98,2364207528
21,5,ISIP_5,127,1,48,84,2364726736
21,5,ISIP_5,128,1,48,94,2365250288
21,5,ISIP_5,129,1,48,73,2365779672
21,5,ISIP_5,130,1,48,80,2366296344
21,5,ISIP_5,131,1,48,89,2366839196
21,5,ISIP_5,132,1,48,93,2367350328
21,5,ISIP_5,133,1,48,65,2367881348
21,5,ISIP_5,134,1,48,87,2368417840
21,5,ISIP_5,135,1,48,75,2368941468
21,5,ISIP_5,136,1,48,71,2369472268
21,5,ISIP_5,137,1,48,70,2370014096
21,5,ISIP_5,138,1,48,68,2370554624
21,5,ISIP_5,139,1,48,74,2371099272
21,5,ISIP_5,140,1,48,77,2371644068
21,5,ISIP_5,141,1,48,92,2372184820
21,5,ISIP_5,142,1,48,78,2372720340
21,5,ISIP_5,143,1,48,88,2373254812
21,5,ISIP_5,144,1,48,70,2373821524
21,5,ISIP_5,145,1,48,75,2374339616
21,5,ISIP_5,146,1,48,91,2374868188
21,5,ISIP_5,147,1,48,93,2375401260
21,5,ISIP_5,148,1,48,56,2375444396
21,5,ISIP_5,149,1,48,78,2375944760
21,5,ISIP_5,150,1,48,90,2376462704
21,5,ISIP_5,151,1,48,79,2376959256
21,5,ISIP_5,152,1,48,47,2377008524
21,5,ISIP_5,153,1,48,79,2377475000
21,5,ISIP_5,154,1,48,30,2377534672
21,5,ISIP_5,155,1,48,82,2377974596
21,5,ISIP_5,156,1,48,77,2378484684
21,5,ISIP_5,157,1,48,87,2379009660
21,5,ISIP_5,158,1,48,85,2379507404
21,5,ISIP_5,159,1,48,81,2380021456
21,5,ISIP_5,160,1,48,89,2380558400
21,5,ISIP_5,161,1,48,86,2381099080
21,5,ISIP_5,162,1,48,88,2381622408
21,5,ISIP_5,163,1,48,78,2382119476
21,5,ISIP_5,164,1,48,76,2382657764
21,5,ISIP_5,165,1,48,81,2383177648
21,5,ISIP_5,166,1,48,77,2383705388
21,5,ISIP_5,167,1,48,84,2384216672
21,5,ISIP_5,168,1,48,97,2384729160
21,5,ISIP_5,169,1,48,88,2385245380
21,5,ISIP_5,170,1,48,80,2385758980
21,5,ISIP_5,171,1,48,84,2386271388
21,5,ISIP_5,172,1,48,78,2386765168
21,5,ISIP_5,173,1,48,81,2387284232
21,5,ISIP_5,174,1,48,91,2387808828
21,5,ISIP_5,175,1,48,86,2388315772
21,5,ISIP_5,176,1,48,82,2388828852
21,5,ISIP_5,177,1,48,84,2389345372
21,5,ISIP_5,178,1,48,75,2389871328
21,5,ISIP_5,179,1,48,91,2390378876
21,5,ISIP_5,180,1,48,89,2390912448
21,5,ISIP_5,181,1,48,67,2391444752
21,5,ISIP_5,182,1,48,70,2391973016
21,5,ISIP_5,183,1,48,89,2392487812
21,5,ISIP_5,184,1,48,81,2393029016
21,5,ISIP_5,185,1,48,83,2393522796
21,5,ISIP_5,186,1,48,84,2394036848
21,5,ISIP_5,187,1,48,84,2394565788
21,5,ISIP_5,188,1,48,73,2395100952
21,5,ISIP_5,189,1,48,92,2395618820
21,5,ISIP_5,190,1,48,83,2396140948
21,5,ISIP_5,191,1,48,89,2396652684
21,5,ISIP_5,192,1,48,81,2397162244
21,5,ISIP_5,193,1,48,60,2397697096
21,5,ISIP_5,194,1,48,70,2398222064
21,5,ISIP_5,195,1,48,74,2398742848
21,5,ISIP_5,196,1,48,73,2399262812
21,5,ISIP_5,197,1,48,69,2399791596
21,5,ISIP_5,198,1,48,68,2400309088
21,5,ISIP_5,0,9999,9999,9999,2320352316
21,5,ISIP_5,1,9999,9999,9999,2320853052
21,5,ISIP_5,2,9999,9999,9999,2321352768
21,5,ISIP_5,3,9999,9999,9999,2321852488
21,5,ISIP_5,4,9999,9999,9999,2322352204
21,5,ISIP_5,5,9999,9999,9999,2322852968
21,5,ISIP_5,6,9999,9999,9999,2323352680
21,5,ISIP_5,7,9999,9999,9999,2323852372
21,5,ISIP_5,8,9999,9999,9999,2324352076
21,5,ISIP_5,9,9999,9999,9999,2324852816
21,5,ISIP_5,10,9999,9999,9999,2325352512
21,5,ISIP_5,11,9999,9999,9999,2325852280
21,5,ISIP_5,12,9999,9999,9999,2326352944
21,5,ISIP_5,13,9999,9999,9999,2326852716
21,5,ISIP_5,14,9999,9999,9999,2327352412
21,5,ISIP_5,15,9999,9999,9999,2327852100
21,5,ISIP_5,16,9999,9999,9999,2328352840
21,5,ISIP_5,17,9999,9999,9999,2328852536
21,5,ISIP_5,18,9999,9999,9999,2329352308
21,5,ISIP_5,19,9999,9999,9999,2329852980
21,5,ISIP_5,20,9999,9999,9999,2330352748
21,5,ISIP_5,21,9999,9999,9999,2330852444
21,5,ISIP_5,22,9999,9999,9999,2331352184
21,5,ISIP_5,23,9999,9999,9999,2331852848
21,5,ISIP_5,24,9999,9999,9999,2332352620
21,5,ISIP_5,25,9999,9999,9999,2332852316
21,5,ISIP_5,26,9999,9999,9999,2333353056
21,5,ISIP_5,27,9999,9999,9999,2333852752
21,5,ISIP_5,28,9999,9999,9999,2334352444
21,5,ISIP_5,29,9999,9999,9999,2334852216
21,5,ISIP_5,30,9999,9999,9999,2335352884
21,5,ISIP_5,31,9999,9999,9999,2335852632
21,5,ISIP_5,32,9999,9999,9999,2336352332
21,5,ISIP_5,33,9999,9999,9999,2336853068
21,5,ISIP_5,34,9999,9999,9999,2337352764
21,5,ISIP_5,35,9999,9999,9999,2337852464
21,5,ISIP_5,36,9999,9999,9999,2338352228
21,5,ISIP_5,37,9999,9999,9999,2338852976
21,5,ISIP_5,38,9999,9999,9999,2339352672
21,5,ISIP_5,39,9999,9999,9999,2339852368
21,5,ISIP_5,40,9999,9999,9999,2340352056
21,5,ISIP_5,41,9999,9999,9999,2340852800
21,5,ISIP_5,42,9999,9999,9999,2341352564
21,5,ISIP_5,43,9999,9999,9999,2341852256
21,5,ISIP_5,44,9999,9999,9999,2342352964
21,5,ISIP_5,45,9999,9999,9999,2342852656
21,5,ISIP_5,46,9999,9999,9999,2343352424
21,5,ISIP_5,47,9999,9999,9999,2343852112
21,5,ISIP_5,48,9999,9999,9999,2344352852
21,5,ISIP_5,49,9999,9999,9999,2344852540
21,5,ISIP_5,50,9999,9999,9999,2345352284
21,5,ISIP_5,51,9999,9999,9999,2345853020
21,5,ISIP_5,52,9999,9999,9999,2346352712
21,5,ISIP_5,53,9999,9999,9999,2346852456
21,5,ISIP_5,54,9999,9999,9999,2347352148
21,5,ISIP_5,55,9999,9999,9999,2347852888
21,5,ISIP_5,56,9999,9999,9999,2348352580
21,5,ISIP_5,57,9999,9999,9999,2348852344
21,5,ISIP_5,58,9999,9999,9999,2349353008
21,5,ISIP_5,59,9999,9999,9999,2349852772
21,5,ISIP_5,60,9999,9999,9999,2350352464
21,5,ISIP_5,61,9999,9999,9999,2350852156
21,5,ISIP_5,62,9999,9999,9999,2351352944
21,5,ISIP_5,63,9999,9999,9999,2351852636
21,5,ISIP_5,64,9999,9999,9999,2352352328
21,5,ISIP_5,65,9999,9999,9999,2352853112
21,5,ISIP_5,66,9999,9999,9999,2353352804
21,5,ISIP_5,67,9999,9999,9999,2353852508
21,5,ISIP_5,68,9999,9999,9999,2354352200
21,5,ISIP_5,69,9999,9999,9999,2354852916
21,5,ISIP_5,70,9999,9999,9999,2355352680
21,5,ISIP_5,71,9999,9999,9999,2355852372
21,5,ISIP_5,72,9999,9999,9999,2356352064
21,5,ISIP_5,73,9999,9999,9999,2356852800
21,5,ISIP_5,74,9999,9999,9999,2357352496
21,5,ISIP_5,75,9999,9999,9999,2357852264
21,5,ISIP_5,76,9999,9999,9999,2358353000
21,5,ISIP_5,77,9999,9999,9999,2358852692
21,5,ISIP_5,78,9999,9999,9999,2359352380
21,5,ISIP_5,79,9999,9999,9999,2359852148
21,5,ISIP_5,80,9999,9999,9999,2360352884
21,5,ISIP_5,81,9999,9999,9999,2360852576
21,5,ISIP_5,82,9999,9999,9999,2361352244
21,5,ISIP_5,83,9999,9999,9999,2361852984
21,5,ISIP_5,84,9999,9999,9999,2362352748
21,5,ISIP_5,85,9999,9999,9999,2362852440
21,5,ISIP_5,86,9999,9999,9999,2363352132
21,5,ISIP_5,87,9999,9999,9999,2363852916
21,5,ISIP_5,88,9999,9999,9999,2364352608
21,5,ISIP_5,89,9999,9999,9999,2364852300
21,5,ISIP_5,90,9999,9999,9999,2365353036
21,5,ISIP_5,91,9999,9999,9999,2365852744
21,5,ISIP_5,92,9999,9999,9999,2366352432
21,5,ISIP_5,93,9999,9999,9999,2366852200
21,5,ISIP_5,94,9999,9999,9999,2367352936
21,5,ISIP_5,95,9999,9999,9999,2367852608
21,5,ISIP_5,96,9999,9999,9999,2368352372
21,5,ISIP_5,97,9999,9999,9999,2368853112
21,5,ISIP_5,98,9999,9999,9999,2369352800
21,5,ISIP_5,99,9999,9999,9999,2369852492
21,5,ISIP_5,100,9999,9999,9999,2370352184
21,5,ISIP_5,101,9999,9999,9999,2370852924
21,5,ISIP_5,102,9999,9999,9999,2371352688
21,5,ISIP_5,103,9999,9999,9999,2371852380
21,5,ISIP_5,104,9999,9999,9999,2372352072
21,5,ISIP_5,105,9999,9999,9999,2372852808
21,5,ISIP_5,106,9999,9999,9999,2373352500
21,5,ISIP_5,107,9999,9999,9999,2373852280
21,5,ISIP_5,108,9999,9999,9999,2374352992
21,5,ISIP_5,109,9999,9999,9999,2374852688
21,5,ISIP_5,110,9999,9999,9999,2375352380
21,5,ISIP_5,111,9999,9999,9999,2375852120
21,5,ISIP_5,112,9999,9999,9999,2376352860
21,5,ISIP_5,113,9999,9999,9999,2376852552
21,5,ISIP_5,114,9999,9999,9999,2377352292
21,5,ISIP_5,115,9999,9999,9999,2377853012
21,5,ISIP_5,116,9999,9999,9999,2378352700
21,5,ISIP_5,117,9999,9999,9999,2378852468
21,5,ISIP_5,118,9999,9999,9999,2379352160
21,5,ISIP_5,119,9999,9999,9999,2379852896
21,5,ISIP_5,120,9999,9999,9999,2380352588
21,5,ISIP_5,121,9999,9999,9999,2380852280
21,5,ISIP_5,122,9999,9999,9999,2381353016
21,5,ISIP_5,123,9999,9999,9999,2381852780
21,5,ISIP_5,124,9999,9999,9999,2382352472
21,5,ISIP_5,125,9999,9999,9999,2382852164
21,5,ISIP_5,126,9999,9999,9999,2383352900
21,5,ISIP_5,127,9999,9999,9999,2383852664
21,5,ISIP_5,128,9999,9999,9999,2384352356
21,5,ISIP_5,129,9999,9999,9999,2384853072
21,5,ISIP_5,130,9999,9999,9999,2385352760
21,5,ISIP_5,131,9999,9999,9999,2385852468
21,5,ISIP_5,132,9999,9999,9999,2386352232
21,5,ISIP_5,133,9999,9999,9999,2386852968
21,5,ISIP_5,134,9999,9999,9999,2387352660
21,5,ISIP_5,135,9999,9999,9999,2387852352
21,5,ISIP_5,136,9999,9999,9999,2388352116
21,5,ISIP_5,137,9999,9999,9999,2388852852
21,5,ISIP_5,138,9999,9999,9999,2389352544
21,5,ISIP_5,139,9999,9999,9999,2389852240
21,5,ISIP_5,140,9999,9999,9999,2390352976
21,5,ISIP_5,141,9999,9999,9999,2390852668
21,5,ISIP_5,142,9999,9999,9999,2391352432
21,5,ISIP_5,143,9999,9999,9999,2391852124
21,5,ISIP_5,144,9999,9999,9999,2392352860
21,5,ISIP_5,145,9999,9999,9999,2392852552
21,5,ISIP_5,146,9999,9999,9999,2393352240
21,5,ISIP_5,147,9999,9999,9999,2393852976
21,5,ISIP_5,148,9999,9999,9999,2394352744
21,5,ISIP_5,149,9999,9999,9999,2394852432
21,5,ISIP_5,150,9999,9999,9999,2395352124
21,5,ISIP_5,151,9999,9999,9999,2395852912
21,5,ISIP_5,152,9999,9999,9999,2396352600
21,5,ISIP_5,153,9999,9999,9999,2396852292
21,5,ISIP_5,154,9999,9999,9999,2397353032
21,5,ISIP_5,155,9999,9999,9999,2397852724
21,5,ISIP_5,156,9999,9999,9999,2398352488
21,5,ISIP_5,157,9999,9999,9999,2398852180
21,5,ISIP_5,158,9999,9999,9999,2399352932
21,5,ISIP_5,159,9999,9999,9999,2399852620
22,3,ISIP_8,0,5,42,127,2423919968
22,3,ISIP_8,1,5,42,127,2424719648
22,3,ISIP_8,2,5,42,127,2425519404
22,3,ISIP_8,3,5,42,127,2426320428
22,3,ISIP_8,4,5,42,127,2427120060
22,3,ISIP_8,5,1,48,75,2427123028
22,3,ISIP_8,6,1,48,48,2427163620
22,3,ISIP_8,7,5,42,127,2427919700
22,3,ISIP_8,8,1,48,84,2427927304
22,3,ISIP_8,9,1,48,51,2427963108
22,3,ISIP_8,10,5,42,127,2428719408
22,3,ISIP_8,11,1,48,81,2428728960
22,3,ISIP_8,12,1,48,35,2428782416
22,3,ISIP_8,13,5,42,127,2429520464
22,3,ISIP_8,14,1,48,76,2429568168
22,3,ISIP_8,15,1,48,88,2430312228
22,3,ISIP_8,16,5,42,127,2430319968
22,3,ISIP_8,17,5,42,127,2431119708
22,3,ISIP_8,18,1,48,65,2431122456
22,3,ISIP_8,19,1,48,68,2431914164
22,3,ISIP_8,20,5,42,127,2431919436
22,3,ISIP_8,21,5,42,127,2432720368
22,3,ISIP_8,22,1,48,77,2432723364
22,3,ISIP_8,23,1,48,74,2433507148
22,3,ISIP_8,24,5,42,127,2433520196
22,3,ISIP_8,25,1,48,70,2434312568
22,3,ISIP_8,26,5,42,127,2434319704
22,3,ISIP_8,27,5,42,127,2435119448
22,3,ISIP_8,28,1,48,70,2435153900
22,3,ISIP_8,29,1,48,80,2435909792
22,3,ISIP_8,30,5,42,127,2435920368
22,3,ISIP_8,31,1,48,76,2436706152
22,3,ISIP_8,32,5,42,127,2436720252
22,3,ISIP_8,33,1,48,40,2436750584
22,3,ISIP_8,34,5,42,127,2437519596
22,3,ISIP_8,35,1,48,79,2437526004
22,3,ISIP_8,36,1,48,68,2438292060
22,3,ISIP_8,37,5,42,127,2438319472
22,3,ISIP_8,38,1,48,85,2439053872
22,3,ISIP_8,39,5,42,127,2439120328
22,3,ISIP_8,40,1,48,91,2439914340
22,3,ISIP_8,41,5,42,127,2439920208
22,3,ISIP_8,42,1,48,46,2439961388
22,3,ISIP_8,43,5,42,127,2440720004
22,3,ISIP_8,44,1,48,58,2440761044
22,3,ISIP_8,45,5,42,127,2441519440
22,3,ISIP_8,46,1,48,83,2441543424
22,3,ISIP_8,47,5,42,127,2442320220
22,3,ISIP_8,48,1,48,88,2442343832
22,3,ISIP_8,49,5,42,127,2443120104
22,3,ISIP_8,50,1,48,80,2443171916
22,3,ISIP_8,51,5,42,127,2443919912
22,3,ISIP_8,52,1,48,88,2443990672
22,3,ISIP_8,53,5,42,127,2444719420
22,3,ISIP_8,54,1,48,81,2444747668
22,3,ISIP_8,55,1,48,81,2445519976
22,3,ISIP_8,56,5,42,127,2445521388
22,3,ISIP_8,57,5,42,127,2446319880
22,3,ISIP_8,58,1,48,61,2446341024
22,3,ISIP_8,59,5,42,127,2447119916
22,3,ISIP_8,60,1,48,71,2447160880
22,3,ISIP_8,61,1,48,74,2447964500
22,3,ISIP_8,62,1,48,95,2448824368
22,3,ISIP_8,63,1,48,85,2449609436
22,3,ISIP_8,64,1,48,80,2450382164
22,3,ISIP_8,65,1,48,84,2451197400
22,3,ISIP_8,66,1,48,89,2451995788
22,3,ISIP_8,67,1,48,87,2452789980
22,3,ISIP_8,68,1,48,92,2453677820
22,3,ISIP_8,69,1,48,81,2454514448
22,3,ISIP_8,70,1,48,90,2455337144
22,3,ISIP_8,71,1,48,83,2456200600
22,3,ISIP_8,72,1,48,89,2457046432
22,3,ISIP_8,73,1,48,91,2457835616
22,3,ISIP_8,74,1,48,87,2458617916
22,3,ISIP_8,75,1,48,82,2459407400
22,3,ISIP_8,76,1,48,83,2460216248
22,3,ISIP_8,77,1,48,89,2460982244
22,3,ISIP_8,78,1,48,82,2461799252
22,3,ISIP_8,79,1,48,87,2462618352
22,3,ISIP_8,80,1,48,83,2463450424
22,3,ISIP_8,81,1,48,82,2464226440
22,3,ISIP_8,82,1,48,103,2465053168
22,3,ISIP_8,83,1,48,84,2465813404
22,3,ISIP_8,84,1,48,104,2466653304
22,3,ISIP_8,85,1,48,96,2467465896
22,3,ISIP_8,86,1,48,114,2468319432
22,3,ISIP_8,87,1,48,87,2469119980
22,3,ISIP_8,88,1,48,118,2469915076
22,3,ISIP_8,89,1,48,89,2470693484
22,3,ISIP_8,90,1,48,113,2471467932
22,3,ISIP_8,91,1,48,93,2472231536
22,3,ISIP_8,92,1,48,106,2473041964
22,3,ISIP_8,93,1,48,99,2473832188
22,3,ISIP_8,94,1,48,98,2474605592
22,3,ISIP_8,95,1,48,93,2475433296
22,3,ISIP_8,96,1,48,84,2476212604
22,3,ISIP_8,97,1,48,88,2477051108
22,3,ISIP_8,98,1,48,127,2477808048
22,3,ISIP_8,99,1,48,104,2478556768
22,3,ISIP_8,100,1,48,127,2479414012
22,3,ISIP_8,101,1,48,99,2480203348
22,3,ISIP_8,102,1,48,111,2481033816
22,3,ISIP_8,103,1,48,97,2481818212
22,3,ISIP_8,104,1,48,122,2482592212
22,3,ISIP_8,105,1,48,100,2483391720
22,3,ISIP_8,106,1,48,127,2484180400
22,3,ISIP_8,107,1,48,88,2484972124
22,3,ISIP_8,108,1,48,110,2485754872
22,3,ISIP_8,109,1,48,108,2486507856
22,3,ISIP_8,110,1,48,122,2487326580
22,3,ISIP_8,111,1,48,111,2488097216
22,3,ISIP_8,112,1,48,126,2488896796
22,3,ISIP_8,113,1,48,95,2489703856
22,3,ISIP_8,114,1,48,121,2490549812
22,3,ISIP_8,115,1,48,94,2491310420
22,3,ISIP_8,116,1,48,114,2492151840
22,3,ISIP_8,117,1,48,119,2492941692
22,3,ISIP_8,118,1,48,127,2493772088
22,3,ISIP_8,119,1,48,121,2494586328
22,3,ISIP_8,120,1,48,127,2495427344
22,3,ISIP_8,121,1,48,127,2496241532
22,3,ISIP_8,122,1,48,127,2497027800
22,3,ISIP_8,123,1,48,121,2497802768
22,3,ISIP_8,124,1,48,113,2498609828
22,3,ISIP_8,125,1,48,33,2498681092
22,3,ISIP_8,126,1,48,127,2499444240
22,3,ISIP_8,127,1,48,127,2500259528
22,3,ISIP_8,128,1,48,94,2501028144
22,3,ISIP_8,129,1,48,116,2501846816
22,3,ISIP_8,130,1,48,113,2502653204
22,3,ISIP_8,131,1,48,117,2503457644
22,3,ISIP_8,132,1,48,112,2504282284
22,3,ISIP_8,133,1,48,127,2505121056
22,3,ISIP_8,134,1,48,127,2505913304
22,3,ISIP_8,135,1,48,112,2506694632
22,3,ISIP_8,136,1,48,56,2506730092
22,3,ISIP_8,137,1,48,123,2507507908
22,3,ISIP_8,138,1,48,127,2508323712
22,3,ISIP_8,139,1,48,53,2508364680
22,3,ISIP_8,140,1,48,102,2509095672
22,3,ISIP_8,141,1,48,127,2509888224
22,3,ISIP_8,142,1,48,67,2509920516
22,3,ISIP_8,143,1,48,97,2510682248
22,3,ISIP_8,144,1,48,125,2511468592
22,3,ISIP_8,145,1,48,56,2511504168
22,3,ISIP_8,146,1,48,122,2512479480
22,3,ISIP_8,147,1,48,127,2513317724
22,3,ISIP_8,148,1,48,118,2514132216
22,3,ISIP_8,149,1,48,127,2514932244
22,3,ISIP_8,150,1,48,46,2514976648
22,3,ISIP_8,151,1,48,122,2515724544
22,3,ISIP_8,152,1,48,52,2515756536
22,3,ISIP_8,153,1,48,103,2516573164
22,3,ISIP_8,154,1,48,98,2517400200
22,3,ISIP_8,155,1,48,99,2518282680
22,3,ISIP_8,156,1,48,102,2519060720
22,3,ISIP_8,157,1,48,119,2519938848
22,3,ISIP_8,158,1,48,91,2520740296
22,3,ISIP_8,159,1,48,114,2521568328
22,3,ISIP_8,160,1,48,49,2521624472
22,3,ISIP_8,161,1,48,105,2522385832
22,3,ISIP_8,162,1,48,86,2523204112
22,3,ISIP_8,163,1,48,125,2524011696
22,3,ISIP_8,164,1,48,105,2524873728
22,3,ISIP_8,165,1,48,127,2525698172
22,3,ISIP_8,166,1,48,50,2525750204
22,3,ISIP_8,167,1,48,127,2526543952
22,3,ISIP_8,168,1,48,67,2526585292
22,3,ISIP_8,169,1,48,36,2526635088
22,3,ISIP_8,170,1,48,119,2527333164
22,3,ISIP_8,171,1,48,56,2527375176
22,3,ISIP_8,172,1,48,122,2528181188
22,3,ISIP_8,173,1,48,59,2528229664
22,3,ISIP_8,174,1,48,79,2528968404
22,3,ISIP_8,175,1,48,124,2529814760
22,3,ISIP_8,176,1,48,113,2530613212
22,3,ISIP_8,177,1,48,57,2530652316
22,3,ISIP_8,178,1,48,127,2531467824
22,3,ISIP_8,179,1,48,77,2531505124
22,3,ISIP_8,180,1,48,51,2531535348
22,3,ISIP_8,181,1,48,41,2531562328
22,3,ISIP_8,182,1,48,123,2532282076
22,3,ISIP_8,183,1,48,125,2533106364
22,3,ISIP_8,184,1,48,127,2534003480
22,3,ISIP_8,185,1,48,124,2534817196
22,3,ISIP_8,186,1,48,67,2534848740
22,3,ISIP_8,187,1,48,40,2534883148
22,3,ISIP_8,188,1,48,101,2535639052
22,3,ISIP_8,189,1,48,111,2536463980
22,3,ISIP_8,190,1,48,91,2537228032
22,3,ISIP_8,191,1,48,53,2537265108
22,3,ISIP_8,192,1,48,94,2538037016
22,3,ISIP_8,193,1,48,111,2538844896
22,3,ISIP_8,194,1,48,58,2538880928
22,3,ISIP_8,195,1,48,114,2539659644
22,3,ISIP_8,196,1,48,103,2540491912
22,3,ISIP_8,197,1,48,46,2540537664
22,3,ISIP_8,198,1,48,123,2541343976
22,3,ISIP_8,199,1,48,55,2541389804
22,3,ISIP_8,200,1,48,125,2542189160
22,3,ISIP_8,201,1,48,57,2542231996
22,3,ISIP_8,202,1,48,127,2543052468
22,3,ISIP_8,203,1,48,85,2543080272
22,3,ISIP_8,204,1,48,57,2543107180
22,3,ISIP_8,205,1,48,124,2543865020
22,3,ISIP_8,206,1,48,83,2543886616
22,3,ISIP_8,0,9999,9999,9999,2423917680
22,3,ISIP_8,1,9999,9999,9999,2424717360
22,3,ISIP_8,2,9999,9999,9999,2425517116
22,3,ISIP_8,3,9999,9999,9999,2426317916
22,3,ISIP_8,4,9999,9999,9999,2427117620
22,3,ISIP_8,5,9999,9999,9999,2427917408
22,3,ISIP_8,6,9999,9999,9999,2428717120
22,3,ISIP_8,7,9999,9999,9999,2429517880
22,3,ISIP_8,8,9999,9999,9999,2430317680
22,3,ISIP_8,9,9999,9999,9999,2431117420
22,3,ISIP_8,10,9999,9999,9999,2431917148
22,3,ISIP_8,11,9999,9999,9999,2432717932
22,3,ISIP_8,12,9999,9999,9999,2433517684
22,3,ISIP_8,13,9999,9999,9999,2434317416
22,3,ISIP_8,14,9999,9999,9999,2435117156
22,3,ISIP_8,15,9999,9999,9999,2435917932
22,3,ISIP_8,16,9999,9999,9999,2436717664
22,3,ISIP_8,17,9999,9999,9999,2437517384
22,3,ISIP_8,18,9999,9999,9999,2438317108
22,3,ISIP_8,19,9999,9999,9999,2439117888
22,3,ISIP_8,20,9999,9999,9999,2439917624
22,3,ISIP_8,21,9999,9999,9999,2440717416
22,3,ISIP_8,22,9999,9999,9999,2441517152
22,3,ISIP_8,23,9999,9999,9999,2442317932
22,3,ISIP_8,24,9999,9999,9999,2443117664
22,3,ISIP_8,25,9999,9999,9999,2443917400
22,3,ISIP_8,26,9999,9999,9999,2444717132
22,3,ISIP_8,27,9999,9999,9999,2445517908
22,3,ISIP_8,28,9999,9999,9999,2446317668
22,3,ISIP_8,29,9999,9999,9999,2447117404
22,3,ISIP_8,30,9999,9999,9999,2447917136
22,3,ISIP_8,31,9999,9999,9999,2448717912
22,3,ISIP_8,32,9999,9999,9999,2449517640
22,3,ISIP_8,33,9999,9999,9999,2450317368
22,3,ISIP_8,34,9999,9999,9999,2451117172
22,3,ISIP_8,35,9999,9999,9999,2451917880
22,3,ISIP_8,36,9999,9999,9999,2452717632
22,3,ISIP_8,37,9999,9999,9999,2453517360
22,3,ISIP_8,38,9999,9999,9999,2454317164
22,3,ISIP_8,39,9999,9999,9999,2455117940
22,3,ISIP_8,40,9999,9999,9999,2455917672
22,3,ISIP_8,41,9999,9999,9999,2456717400
22,3,ISIP_8,42,9999,9999,9999,2457517132
22,3,ISIP_8,43,9999,9999,9999,2458317908
22,3,ISIP_8,44,9999,9999,9999,2459117660
22,3,ISIP_8,45,9999,9999,9999,2459917392
22,3,ISIP_8,46,9999,9999,9999,2460717120
22,3,ISIP_8,47,9999,9999,9999,2461517896
22,3,ISIP_8,48,9999,9999,9999,2462317624
22,3,ISIP_8,49,9999,9999,9999,2463117428
22,3,ISIP_8,50,9999,9999,9999,2463917160
22,3,ISIP_8,51,9999,9999,9999,2464717932
22,3,ISIP_8,52,9999,9999,9999,2465517612
22,3,ISIP_8,53,9999,9999,9999,2466317416
22,3,ISIP_8,54,9999,9999,9999,2467117148
22,3,ISIP_8,55,9999,9999,9999,2467917924
22,3,ISIP_8,56,9999,9999,9999,2468717652
22,3,ISIP_8,57,9999,9999,9999,2469517384
22,3,ISIP_8,58,9999,9999,9999,2470317112
22,3,ISIP_8,59,9999,9999,9999,2471117888
22,3,ISIP_8,60,9999,9999,9999,2471917644
22,3,ISIP_8,61,9999,9999,9999,2472717372
22,3,ISIP_8,62,9999,9999,9999,2473517104
22,3,ISIP_8,63,9999,9999,9999,2474317876
22,3,ISIP_8,64,9999,9999,9999,2475117680
22,3,ISIP_8,65,9999,9999,9999,2475917412
22,3,ISIP_8,66,9999,9999,9999,2476717140
22,3,ISIP_8,67,9999,9999,9999,2477517916
22,3,ISIP_8,68,9999,9999,9999,2478317668
22,3,ISIP_8,69,9999,9999,9999,2479117400
22,3,ISIP_8,70,9999,9999,9999,2479917128
22,3,ISIP_8,71,9999,9999,9999,2480717904
22,3,ISIP_8,72,9999,9999,9999,2481517636
22,3,ISIP_8,73,9999,9999,9999,2482317364
22,3,ISIP_8,74,9999,9999,9999,2483117168
22,3,ISIP_8,75,9999,9999,9999,2483917940
22,3,ISIP_8,76,9999,9999,9999,2484717620
22,3,ISIP_8,77,9999,9999,9999,2485517424
22,3,ISIP_8,78,9999,9999,9999,2486317152
22,3,ISIP_8,79,9999,9999,9999,2487117928
22,3,ISIP_8,80,9999,9999,9999,2487917660
22,3,ISIP_8,81,9999,9999,9999,2488717388
22,3,ISIP_8,82,9999,9999,9999,2489517120
22,3,ISIP_8,83,9999,9999,9999,2490317892
22,3,ISIP_8,84,9999,9999,9999,2491117648
22,3,ISIP_8,85,9999,9999,9999,2491917376
22,3,ISIP_8,86,9999,9999,9999,2492717104
22,3,ISIP_8,87,9999,9999,9999,2493517880
22,3,ISIP_8,88,9999,9999,9999,2494317684
22,3,ISIP_8,89,9999,9999,9999,2495117412
22,3,ISIP_8,90,9999,9999,9999,2495917144
22,3,ISIP_8,91,9999,9999,9999,2496717920
22,3,ISIP_8,92,9999,9999,9999,2497517672
22,3,ISIP_8,93,9999,9999,9999,2498317404
22,3,ISIP_8,94,9999,9999,9999,2499117108
22,3,ISIP_8,95,9999,9999,9999,2499917884
22,3,ISIP_8,96,9999,9999,9999,2500717688
22,3,ISIP_8,97,9999,9999,9999,2501517416
22,3,ISIP_8,98,9999,9999,9999,2502317144
22,3,ISIP_8,99,9999,9999,9999,2503117928
22,3,ISIP_8,100,9999,9999,9999,2503917676
22,3,ISIP_8,101,9999,9999,9999,2504717404
22,3,ISIP_8,102,9999,9999,9999,2505517136
22,3,ISIP_8,103,9999,9999,9999,2506317908
22,3,ISIP_8,104,9999,9999,9999,2507117620
22,3,ISIP_8,105,9999,9999,9999,2507917424
22,3,ISIP_8,106,9999,9999,9999,2508717132
22,3,ISIP_8,107,9999,9999,9999,2509517932
22,3,ISIP_8,108,9999,9999,9999,2510317640
22,3,ISIP_8,109,9999,9999,9999,2511117368
22,3,ISIP_8,110,9999,9999,9999,2511917152
22,3,ISIP_8,111,9999,9999,9999,2512717928
22,3,ISIP_8,112,9999,9999,9999,2513517656
22,3,ISIP_8,113,9999,9999,9999,2514317388
22,3,ISIP_8,114,9999,9999,9999,2515117168
22,3,ISIP_8,115,9999,9999,9999,2515917872
22,3,ISIP_8,116,9999,9999,9999,2516717676
22,3,ISIP_8,117,9999,9999,9999,2517517404
22,3,ISIP_8,118,9999,9999,9999,2518317152
22,3,ISIP_8,119,9999,9999,9999,2519117928
22,3,ISIP_8,120,9999,9999,9999,2519917664
22,3,ISIP_8,121,9999,9999,9999,2520717392
22,3,ISIP_8,122,9999,9999,9999,2521517120
22,3,ISIP_8,123,9999,9999,9999,2522317900
22,3,ISIP_8,124,9999,9999,9999,2523117628
22,3,ISIP_8,125,9999,9999,9999,2523917360
22,3,ISIP_8,126,9999,9999,9999,2524717160
22,3,ISIP_8,127,9999,9999,9999,2525517936
22,3,ISIP_8,128,9999,9999,9999,2526317644
22,3,ISIP_8,129,9999,9999,9999,2527117408
22,3,ISIP_8,130,9999,9999,9999,2527917112
22,3,ISIP_8,131,9999,9999,9999,2528717892
22,3,ISIP_8,132,9999,9999,9999,2529517620
22,3,ISIP_8,133,9999,9999,9999,2530317424
22,3,ISIP_8,134,9999,9999,9999,2531117132
22,3,ISIP_8,135,9999,9999,9999,2531917920
22,3,ISIP_8,136,9999,9999,9999,2532717648
22,3,ISIP_8,137,9999,9999,9999,2533517376
22,3,ISIP_8,138,9999,9999,9999,2534317104
22,3,ISIP_8,139,9999,9999,9999,2535117940
22,3,ISIP_8,140,9999,9999,9999,2535917668
22,3,ISIP_8,141,9999,9999,9999,2536717396
22,3,ISIP_8,142,9999,9999,9999,2537517104
22,3,ISIP_8,143,9999,9999,9999,2538317880
22,3,ISIP_8,144,9999,9999,9999,2539117664
22,3,ISIP_8,145,9999,9999,9999,2539917396
22,3,ISIP_8,146,9999,9999,9999,2540717152
22,3,ISIP_8,147,9999,9999,9999,2541517932
22,3,ISIP_8,148,9999,9999,9999,2542317652
22,3,ISIP_8,149,9999,9999,9999,2543117412
23,11,Pattern_Practice,0,5,42,127,2648359388
23,11,Pattern_Practice,1,5,42,127,2648858880
23,11,Pattern_Practice,2,5,42,127,2649358744
23,11,Pattern_Practice,3,5,42,127,2649858464
23,11,Pattern_Practice,4,5,42,127,2650359452
23,11,Pattern_Practice,5,1,48,57,2650382392
23,11,Pattern_Practice,6,1,38,74,2650814048
23,11,Pattern_Practice,7,5,42,127,2650859284
23,11,Pattern_Practice,8,1,48,63,2650914300
23,11,Pattern_Practice,9,1,38,93,2651162036
23,11,Pattern_Practice,10,5,42,127,2651358648
23,11,Pattern_Practice,11,1,48,71,2651428936
23,11,Pattern_Practice,12,1,38,70,2651800156
23,11,Pattern_Practice,13,5,42,127,2651859380
23,11,Pattern_Practice,14,1,48,96,2651932268
23,11,Pattern_Practice,15,1,38,74,2652169832
23,11,Pattern_Practice,16,1,38,27,2652237876
23,11,Pattern_Practice,17,5,42,127,2652359312
23,11,Pattern_Practice,18,1,38,15,2652384276
23,11,Pattern_Practice,19,1,48,100,2652446708
23,11,Pattern_Practice,20,1,38,76,2652794048
23,11,Pattern_Practice,21,5,42,127,2652858632
23,11,Pattern_Practice,22,1,48,96,2652933640
23,11,Pattern_Practice,23,1,38,85,2653168812
23,11,Pattern_Practice,24,5,42,127,2653358588
23,11,Pattern_Practice,25,1,48,78,2653432044
23,11,Pattern_Practice,26,1,38,82,2653776856
23,11,Pattern_Practice,27,5,42,127,2653859324
23,11,Pattern_Practice,28,1,48,103,2653897008
23,11,Pattern_Practice,29,1,38,94,2654126988
23,11,Pattern_Practice,30,5,42,127,2654359128
23,11,Pattern_Practice,31,1,48,111,2654374140
23,11,Pattern_Practice,32,1,38,84,2654733120
23,11,Pattern_Practice,33,1,48,127,2654851356
23,11,Pattern_Practice,34,5,42,127,2654858572
23,11,Pattern_Practice,35,1,38,89,2655084296
23,11,Pattern_Practice,36,1,48,125,2655337192
23,11,Pattern_Practice,37,5,42,127,2655359368
23,11,Pattern_Practice,38,1,38,104,2655713544
23,11,Pattern_Practice,39,1,48,122,2655846064
23,11,Pattern_Practice,40,5,42,127,2655859188
23,11,Pattern_Practice,41,1,38,74,2656092092
23,11,Pattern_Practice,42,1,48,106,2656354636
23,11,Pattern_Practice,43,5,42,127,2656358936
23,11,Pattern_Practice,44,1,38,106,2656696156
23,11,Pattern_Practice,45,1,48,112,2656842616
23,11,Pattern_Practice,46,5,42,127,2656858436
23,11,Pattern_Practice,47,1,38,91,2657085352
23,11,Pattern_Practice,48,1,48,79,2657356052
23,11,Pattern_Practice,49,5,42,127,2657359304
23,11,Pattern_Practice,50,1,38,70,2657650328
23,11,Pattern_Practice,51,1,38,111,2657786236
23,11,Pattern_Practice,52,5,42,127,2657859124
23,11,Pattern_Practice,53,1,38,78,2657893644
23,11,Pattern_Practice,54,1,38,123,2658103676
23,11,Pattern_Practice,55,1,38,102,2658325304
23,11,Pattern_Practice,56,5,42,127,2658358552
23,11,Pattern_Practice,57,1,48,81,2658542164
23,11,Pattern_Practice,58,1,38,77,2658783164
23,11,Pattern_Practice,59,5,42,127,2658859272
23,11,Pattern_Practice,60,1,38,109,2659000752
23,11,Pattern_Practice,61,1,38,79,2659104348
23,11,Pattern_Practice,62,1,38,92,2659262900
23,11,Pattern_Practice,63,5,42,127,2659360104
23,11,Pattern_Practice,64,1,38,124,2659496436
23,11,Pattern_Practice,65,1,48,57,2659755836
23,11,Pattern_Practice,66,5,42,127,2659858952
23,11,Pattern_Practice,67,1,38,71,2660034856
23,11,Pattern_Practice,68,1,38,83,2660152812
23,11,Pattern_Practice,69,1,38,73,2660330088
23,11,Pattern_Practice,70,5,42,127,2660358472
23,11,Pattern_Practice,71,1,38,92,2660497104
23,11,Pattern_Practice,72,1,38,87,2660669892
23,11,Pattern_Practice,73,1,48,64,2660820316
23,11,Pattern_Practice,74,5,42,127,2660859168
23,11,Pattern_Practice,75,1,38,98,2660991372
23,11,Pattern_Practice,76,1,38,82,2661136560
23,11,Pattern_Practice,77,1,38,81,2661292040
23,11,Pattern_Practice,78,5,42,127,2661358892
23,11,Pattern_Practice,79,1,48,78,2661419440
23,11,Pattern_Practice,80,1,38,111,2661584596
23,11,Pattern_Practice,81,1,38,62,2661719140
23,11,Pattern_Practice,82,5,42,127,2661858680
23,11,Pattern_Practice,83,1,38,75,2661895976
23,11,Pattern_Practice,84,1,48,69,2661991776
23,11,Pattern_Practice,85,1,38,112,2662170080
23,11,Pattern_Practice,86,1,38,76,2662302752
23,11,Pattern_Practice,87,5,42,127,2662359432
23,11,Pattern_Practice,88,1,38,92,2662457076
23,11,Pattern_Practice,89,1,48,91,2662678256
23,11,Pattern_Practice,90,1,38,89,2662779964
23,11,Pattern_Practice,91,5,42,127,2662859008
23,11,Pattern_Practice,92,1,48,84,2663005496
23,11,Pattern_Practice,93,1,38,120,2663257040
23,11,Pattern_Practice,94,1,38,42,2663338772
23,11,Pattern_Practice,95,5,42,127,2663358708
23,11,Pattern_Practice,96,1,48,120,2663657612
23,11,Pattern_Practice,97,1,38,84,2663771280
23,11,Pattern_Practice,98,5,42,127,2663858676
23,11,Pattern_Practice,99,1,48,104,2664013948
23,11,Pattern_Practice,100,1,38,59,2664277760
23,11,Pattern_Practice,101,5,42,127,2664359176
23,11,Pattern_Practice,102,1,38,84,2664410176
23,11,Pattern_Practice,103,1,38,102,2664566104
23,11,Pattern_Practice,104,1,48,105,2664719892
23,11,Pattern_Practice,105,1,38,99,2664840144
23,11,Pattern_Practice,106,5,42,127,2664858956
23,11,Pattern_Practice,107,1,38,85,2665106144
23,11,Pattern_Practice,108,5,42,127,2665358780
23,11,Pattern_Practice,109,1,38,119,2665375888
23,11,Pattern_Practice,110,1,48,80,2665505660
23,11,Pattern_Practice,111,1,38,110,2665673436
23,11,Pattern_Practice,112,1,38,76,2665840964
23,11,Pattern_Practice,113,5,42,127,2665858352
23,11,Pattern_Practice,114,1,38,122,2665988116
23,11,Pattern_Practice,115,1,48,77,2666263516
23,11,Pattern_Practice,116,5,42,127,2666359132
23,11,Pattern_Practice,117,1,48,72,2666425152
23,11,Pattern_Practice,118,1,38,111,2666590312
23,11,Pattern_Practice,119,1,38,79,2666737140
23,11,Pattern_Practice,120,5,42,127,2666858784
23,11,Pattern_Practice,121,1,38,85,2666913656
23,11,Pattern_Practice,122,1,48,88,2667061088
23,11,Pattern_Practice,123,1,38,113,2667198624
23,11,Pattern_Practice,124,1,38,78,2667355552
23,11,Pattern_Practice,125,5,42,127,2667358652
23,11,Pattern_Practice,126,1,38,44,2667521844
23,11,Pattern_Practice,127,1,38,95,2667706876
23,11,Pattern_Practice,128,1,48,72,2667823708
23,11,Pattern_Practice,129,5,42,127,2667859348
23,11,Pattern_Practice,130,1,38,118,2667983648
23,11,Pattern_Practice,131,1,38,76,2668133820
23,11,Pattern_Practice,132,1,38,63,2668292620
23,11,Pattern_Practice,133,5,42,127,2668359000
23,11,Pattern_Practice,134,1,38,103,2668476168
23,11,Pattern_Practice,135,1,48,74,2668594576
23,11,Pattern_Practice,136,1,38,95,2668757788
23,11,Pattern_Practice,137,5,42,127,2668858712
23,11,Pattern_Practice,138,1,38,82,2668892944
23,11,Pattern_Practice,139,1,38,111,2669049500
23,11,Pattern_Practice,140,1,48,87,2669212160
23,11,Pattern_Practice,141,5,42,127,2669358584
23,11,Pattern_Practice,142,1,38,59,2669430820
23,11,Pattern_Practice,143,1,38,116,2669581312
23,11,Pattern_Practice,144,1,38,94,2669766140
23,11,Pattern_Practice,145,5,42,127,2669859148
23,11,Pattern_Practice,146,1,38,127,2669919920
23,11,Pattern_Practice,147,1,48,88,2670083052
23,11,Pattern_Practice,148,1,38,104,2670319872
23,11,Pattern_Practice,149,5,42,127,2670358876
23,11,Pattern_Practice,150,1,38,97,2670457792
23,11,Pattern_Practice,151,1,38,124,2670699096
23,11,Pattern_Practice,152,1,48,77,2670818328
23,11,Pattern_Practice,153,5,42,127,2670858748
23,11,Pattern_Practice,154,1,48,71,2670975468
23,11,Pattern_Practice,155,1,38,105,2671145784
23,11,Pattern_Practice,156,1,38,58,2671189672
23,11,Pattern_Practice,157,1,38,84,2671304940
23,11,Pattern_Practice,158,5,42,127,2671359428
23,11,Pattern_Practice,159,1,38,120,2671458192
23,11,Pattern_Practice,160,1,38,53,2671498040
23,11,Pattern_Practice,161,1,48,83,2671627596
23,11,Pattern_Practice,162,1,48,65,2671774544
23,11,Pattern_Practice,163,5,42,127,2671858980
23,11,Pattern_Practice,164,1,38,122,2671964104
23,11,Pattern_Practice,165,1,38,58,2672008964
23,11,Pattern_Practice,166,1,38,93,2672081596
23,11,Pattern_Practice,167,1,38,127,2672268196
23,11,Pattern_Practice,168,1,38,65,2672306772
23,11,Pattern_Practice,169,5,42,127,2672358812
23,11,Pattern_Practice,170,1,48,93,2672412780
23,11,Pattern_Practice,171,1,38,119,2672579180
23,11,Pattern_Practice,172,1,38,83,2672722124
23,11,Pattern_Practice,173,5,42,127,2672858672
23,11,Pattern_Practice,174,1,38,75,2672864708
23,11,Pattern_Practice,175,1,38,127,2673065444
23,11,Pattern_Practice,176,1,48,80,2673208012
23,11,Pattern_Practice,177,5,42,127,2673359148
23,11,Pattern_Practice,178,1,38,92,2673392332
23,11,Pattern_Practice,179,1,38,90,2673527024
23,11,Pattern_Practice,180,1,38,73,2673697340
23,11,Pattern_Practice,181,5,42,127,2673858924
23,11,Pattern_Practice,182,1,38,127,2673875676
23,11,Pattern_Practice,183,1,48,67,2674033624
23,11,Pattern_Practice,184,1,38,109,2674186668
23,11,Pattern_Practice,185,1,38,93,2674344692
23,11,Pattern_Practice,186,5,42,127,2674358644
23,11,Pattern_Practice,187,1,38,82,2674522512
23,11,Pattern_Practice,188,1,38,127,2674686320
23,11,Pattern_Practice,189,1,38,40,2674736936
23,11,Pattern_Practice,190,1,48,86,2674859624
23,11,Pattern_Practice,191,5,42,127,2674861116
23,11,Pattern_Practice,192,1,38,108,2675000600
23,11,Pattern_Practice,193,1,38,45,2675063628
23,11,Pattern_Practice,194,1,38,76,2675177700
23,11,Pattern_Practice,195,1,38,69,2675342608
23,11,Pattern_Practice,196,5,42,127,2675359020
23,11,Pattern_Practice,197,1,38,125,2675517056
23,11,Pattern_Practice,198,1,48,78,2675670320
23,11,Pattern_Practice,199,1,38,127,2675836948
23,11,Pattern_Practice,200,5,42,127,2675858820
23,11,Pattern_Practice,201,1,38,56,2675879056
23,11,Pattern_Practice,202,1,38,79,2675976964
23,11,Pattern_Practice,203,1,38,111,2676145008
23,11,Pattern_Practice,204,1,38,40,2676192136
23,11,Pattern_Practice,205,1,48,73,2676318380
23,11,Pattern_Practice,206,5,42,127,2676358504
23,11,Pattern_Practice,207,1,38,105,2676484820
23,11,Pattern_Practice,208,1,38,54,2676518532
23,11,Pattern_Practice,209,1,48,104,2676664444
23,11,Pattern_Practice,210,1,38,110,2676834312
23,11,Pattern_Practice,211,5,42,127,2676859476
23,11,Pattern_Practice,212,1,38,57,2676864896
23,11,Pattern_Practice,213,1,38,46,2676893000
23,11,Pattern_Practice,214,1,48,92,2676992264
23,11,Pattern_Practice,215,1,48,75,2677180352
23,11,Pattern_Practice,216,1,48,83,2677351796
23,11,Pattern_Practice,217,5,42,127,2677358860
23,11,Pattern_Practice,218,1,48,89,2677543892
23,11,Pattern_Practice,219,1,48,91,2677705608
23,11,Pattern_Practice,220,5,42,127,2677858596
23,11,Pattern_Practice,221,1,48,74,2677890808
23,11,Pattern_Practice,222,1,48,85,2678066056
23,11,Pattern_Practice,223,1,48,105,2678237048
23,11,Pattern_Practice,224,1,48,43,2678298140
23,11,Pattern_Practice,225,5,42,127,2678359580
23,11,Pattern_Practice,226,1,38,82,2678392980
23,11,Pattern_Practice,227,1,38,44,2678434920
23,11,Pattern_Practice,228,1,48,113,2678580776
23,11,Pattern_Practice,229,1,48,83,2678733512
23,11,Pattern_Practice,230,5,42,127,2678859120
23,11,Pattern_Practice,231,1,38,110,2678931948
23,11,Pattern_Practice,232,1,38,43,2678984984
23,11,Pattern_Practice,233,1,48,102,2679089456
23,11,Pattern_Practice,234,1,38,111,2679264336
23,11,Pattern_Practice,235,5,42,127,2679358840
23,11,Pattern_Practice,236,1,38,78,2679424544
23,11,Pattern_Practice,237,1,38,89,2679604660
23,11,Pattern_Practice,238,1,48,98,2679762340
23,11,Pattern_Practice,239,5,42,127,2679858472
23,11,Pattern_Practice,240,1,38,90,2679939608
23,11,Pattern_Practice,241,1,38,82,2680097884
23,11,Pattern_Practice,242,1,38,56,2680305296
23,11,Pattern_Practice,243,5,42,127,2680359560
23,11,Pattern_Practice,244,1,38,66,2680477476
23,11,Pattern_Practice,245,1,38,83,2680658936
23,11,Pattern_Practice,246,1,48,68,2680825816
23,11,Pattern_Practice,247,5,42,127,2680858916
23,11,Pattern_Practice,248,1,38,81,2680990444
23,11,Pattern_Practice,249,1,38,96,2681133832
23,11,Pattern_Practice,250,1,38,88,2681340580
23,11,Pattern_Practice,251,5,42,127,2681358640
23,11,Pattern_Practice,252,1,38,75,2681481192
23,11,Pattern_Practice,253,1,38,87,2681732444
23,11,Pattern_Practice,254,5,42,127,2681858448
23,11,Pattern_Practice,255,1,48,85,2681918864
23,11,Pattern_Practice,256,1,38,84,2682087980
23,11,Pattern_Practice,257,1,48,77,2682244212
23,11,Pattern_Practice,258,5,42,127,2682359592
23,11,Pattern_Practice,259,1,38,79,2682416116
23,11,Pattern_Practice,260,1,48,71,2682603264
23,11,Pattern_Practice,261,1,38,87,2682775652
23,11,Pattern_Practice,262,5,42,127,2682858736
23,11,Pattern_Practice,263,1,38,92,2682979872
23,11,Pattern_Practice,264,1,38,74,2683170236
23,11,Pattern_Practice,265,1,38,80,2683355440
23,11,Pattern_Practice,266,5,42,127,2683358540
23,11,Pattern_Practice,267,1,38,67,2683551328
23,11,Pattern_Practice,268,1,48,57,2683726356
23,11,Pattern_Practice,269,5,42,127,2683859540
23,11,Pattern_Practice,270,1,38,81,2683898412
23,11,Pattern_Practice,271,1,38,86,2684060552
23,11,Pattern_Practice,272,1,38,79,2684254128
23,11,Pattern_Practice,273,5,42,127,2684358892
23,11,Pattern_Practice,274,1,38,82,2684447428
23,11,Pattern_Practice,275,1,48,70,2684630612
23,11,Pattern_Practice,276,1,38,73,2684797316
23,11,Pattern_Practice,277,5,42,127,2684858760
23,11,Pattern_Practice,278,1,38,88,2684956132
23,11,Pattern_Practice,279,1,38,77,2685161156
23,11,Pattern_Practice,280,1,38,77,2685327784
23,11,Pattern_Practice,281,5,42,127,2685358484
23,11,Pattern_Practice,282,1,48,77,2685539708
23,11,Pattern_Practice,283,1,38,70,2685719824
23,11,Pattern_Practice,284,5,42,127,2685859336
23,11,Pattern_Practice,285,1,48,70,2685934664
23,11,Pattern_Practice,286,1,38,73,2686109292
23,11,Pattern_Practice,287,5,42,127,2686358936
23,11,Pattern_Practice,288,1,48,71,2686361612
23,11,Pattern_Practice,289,1,38,80,2686557876
23,11,Pattern_Practice,290,1,48,59,2686790424
23,11,Pattern_Practice,291,5,42,127,2686858528
23,11,Pattern_Practice,292,1,38,78,2687011624
23,11,Pattern_Practice,293,1,48,66,2687236696
23,11,Pattern_Practice,294,5,42,127,2687359456
23,11,Pattern_Practice,295,1,48,59,2687366392
23,11,Pattern_Practice,296,1,38,81,2687591380
23,11,Pattern_Practice,297,1,48,66,2687785112
23,11,Pattern_Practice,298,5,42,127,2687859120
23,11,Pattern_Practice,299,1,48,60,2687955372
23,11,Pattern_Practice,300,1,38,63,2688152744
23,11,Pattern_Practice,0,9999,9999,9999,2648356952
23,11,Pattern_Practice,1,9999,9999,9999,2648856668
23,11,Pattern_Practice,2,9999,9999,9999,2649356384
23,11,Pattern_Practice,3,9999,9999,9999,2649856100
23,11,Pattern_Practice,4,9999,9999,9999,2650356788
23,11,Pattern_Practice,5,9999,9999,9999,2650856552
23,11,Pattern_Practice,6,9999,9999,9999,2651356212
23,11,Pattern_Practice,7,9999,9999,9999,2651857020
23,11,Pattern_Practice,8,9999,9999,9999,2652356728
23,11,Pattern_Practice,9,9999,9999,9999,2652856420
23,11,Pattern_Practice,10,9999,9999,9999,2653356152
23,11,Pattern_Practice,11,9999,9999,9999,2653856888
23,11,Pattern_Practice,12,9999,9999,9999,2654356544
23,11,Pattern_Practice,13,9999,9999,9999,2654856284
23,11,Pattern_Practice,14,9999,9999,9999,2655357004
23,11,Pattern_Practice,15,9999,9999,9999,2655856752
23,11,Pattern_Practice,16,9999,9999,9999,2656356424
23,11,Pattern_Practice,17,9999,9999,9999,2656856148
23,11,Pattern_Practice,18,9999,9999,9999,2657356864
23,11,Pattern_Practice,19,9999,9999,9999,2657856612
23,11,Pattern_Practice,20,9999,9999,9999,2658356340
23,11,Pattern_Practice,21,9999,9999,9999,2658857060
23,11,Pattern_Practice,22,9999,9999,9999,2659356784
23,11,Pattern_Practice,23,9999,9999,9999,2659856440
23,11,Pattern_Practice,24,9999,9999,9999,2660356184
23,11,Pattern_Practice,25,9999,9999,9999,2660856880
23,11,Pattern_Practice,26,9999,9999,9999,2661356604
23,11,Pattern_Practice,27,9999,9999,9999,2661856316
23,11,Pattern_Practice,28,9999,9999,9999,2662357068
23,11,Pattern_Practice,29,9999,9999,9999,2662856792
23,11,Pattern_Practice,30,9999,9999,9999,2663356496
23,11,Pattern_Practice,31,9999,9999,9999,2663856240
23,11,Pattern_Practice,32,9999,9999,9999,2664356960
23,11,Pattern_Practice,33,9999,9999,9999,2664856668
23,11,Pattern_Practice,34,9999,9999,9999,2665356344
23,11,Pattern_Practice,35,9999,9999,9999,2665856064
23,11,Pattern_Practice,36,9999,9999,9999,2666356844
23,11,Pattern_Practice,37,9999,9999,9999,2666856568
23,11,Pattern_Practice,38,9999,9999,9999,2667356216
23,11,Pattern_Practice,39,9999,9999,9999,2667856988
23,11,Pattern_Practice,40,9999,9999,9999,2668356712
23,11,Pattern_Practice,41,9999,9999,9999,2668856424
23,11,Pattern_Practice,42,9999,9999,9999,2669356148
23,11,Pattern_Practice,43,9999,9999,9999,2669856864
23,11,Pattern_Practice,44,9999,9999,9999,2670356588
23,11,Pattern_Practice,45,9999,9999,9999,2670856312
23,11,Pattern_Practice,46,9999,9999,9999,2671356992
23,11,Pattern_Practice,47,9999,9999,9999,2671856692
23,11,Pattern_Practice,48,9999,9999,9999,2672356452
23,11,Pattern_Practice,49,9999,9999,9999,2672856164
23,11,Pattern_Practice,50,9999,9999,9999,2673356860
23,11,Pattern_Practice,51,9999,9999,9999,2673856560
23,11,Pattern_Practice,52,9999,9999,9999,2674356280
23,11,Pattern_Practice,53,9999,9999,9999,2674857036
23,11,Pattern_Practice,54,9999,9999,9999,2675356736
23,11,Pattern_Practice,55,9999,9999,9999,2675856460
23,11,Pattern_Practice,56,9999,9999,9999,2676356216
23,11,Pattern_Practice,57,9999,9999,9999,2676856892
23,11,Pattern_Practice,58,9999,9999,9999,2677356648
23,11,Pattern_Practice,59,9999,9999,9999,2677856308
23,11,Pattern_Practice,60,9999,9999,9999,2678357072
23,11,Pattern_Practice,61,9999,9999,9999,2678856756
23,11,Pattern_Practice,62,9999,9999,9999,2679356476
23,11,Pattern_Practice,63,9999,9999,9999,2679856188
23,11,Pattern_Practice,64,9999,9999,9999,2680356972
23,11,Pattern_Practice,65,9999,9999,9999,2680856628
23,11,Pattern_Practice,66,9999,9999,9999,2681356352
23,11,Pattern_Practice,67,9999,9999,9999,2681856084
23,11,Pattern_Practice,68,9999,9999,9999,2682356860
23,11,Pattern_Practice,69,9999,9999,9999,2682856524
23,11,Pattern_Practice,70,9999,9999,9999,2683356252
23,11,Pattern_Practice,71,9999,9999,9999,2683856956
23,11,Pattern_Practice,72,9999,9999,9999,2684356680
23,11,Pattern_Practice,73,9999,9999,9999,2684856400
23,11,Pattern_Practice,74,9999,9999,9999,2685356124
23,11,Pattern_Practice,75,9999,9999,9999,2685856828
23,11,Pattern_Practice,76,9999,9999,9999,2686356576
23,11,Pattern_Practice,77,9999,9999,9999,2686856240
23,11,Pattern_Practice,78,9999,9999,9999,2687357020
23,11,Pattern_Practice,79,9999,9999,9999,2687856760
24,13,Improv_Metronome,0,5,42,127,2716157440
24,13,Improv_Metronome,1,5,42,127,2716657008
24,13,Improv_Metronome,2,5,42,127,2717156652
24,13,Improv_Metronome,3,5,42,127,2717656516
24,13,Improv_Metronome,4,1,48,78,2718135144
24,13,Improv_Metronome,5,5,42,127,2718157420
24,13,Improv_Metronome,6,1,38,70,2718179392
24,13,Improv_Metronome,7,1,38,44,2718211976
24,13,Improv_Metronome,8,1,48,78,2718476888
24,13,Improv_Metronome,9,5,42,127,2718657268
24,13,Improv_Metronome,10,1,38,87,2718735412
24,13,Improv_Metronome,11,1,38,42,2718785128
24,13,Improv_Metronome,12,1,48,97,2719133536
24,13,Improv_Metronome,13,5,42,127,2719156612
24,13,Improv_Metronome,14,1,38,72,2719199328
24,13,Improv_Metronome,15,1,38,31,2719272352
24,13,Improv_Metronome,16,1,48,86,2719458900
24,13,Improv_Metronome,17,5,42,127,2719657580
24,13,Improv_Metronome,18,1,38,84,2719707844
24,13,Improv_Metronome,19,1,38,43,2719803568
24,13,Improv_Metronome,20,1,38,25,2719891280
24,13,Improv_Metronome,21,1,48,103,2720105880
24,13,Improv_Metronome,22,5,42,127,2720157300
24,13,Improv_Metronome,23,1,38,77,2720188992
24,13,Improv_Metronome,24,1,48,89,2720447168
24,13,Improv_Metronome,25,5,42,127,2720656720
24,13,Improv_Metronome,26,1,38,120,2720696188
24,13,Improv_Metronome,27,1,38,46,2720747952
24,13,Improv_Metronome,28,1,48,127,2721116708
24,13,Improv_Metronome,29,5,42,127,2721156536
24,13,Improv_Metronome,30,1,38,109,2721195556
24,13,Improv_Metronome,31,1,48,108,2721453372
24,13,Improv_Metronome,32,5,42,127,2721657388
24,13,Improv_Metronome,33,1,38,113,2721679512
24,13,Improv_Metronome,34,1,38,38,2721730148
24,13,Improv_Metronome,35,1,38,13,2721874188
24,13,Improv_Metronome,36,1,48,121,2722115860
24,13,Improv_Metronome,37,5,42,127,2722157328
24,13,Improv_Metronome,38,1,38,121,2722173612
24,13,Improv_Metronome,39,1,48,102,2722441976
24,13,Improv_Metronome,40,5,42,127,2722656616
24,13,Improv_Metronome,41,1,38,104,2722674696
24,13,Improv_Metronome,42,1,48,127,2723100996
24,13,Improv_Metronome,43,5,42,127,2723157500
24,13,Improv_Metronome,44,1,38,99,2723175128
24,13,Improv_Metronome,45,1,48,95,2723435112
24,13,Improv_Metronome,46,5,42,127,2723657304
24,13,Improv_Metronome,47,1,38,79,2723691992
24,13,Improv_Metronome,48,1,38,52,2723749860
24,13,Improv_Metronome,49,1,38,22,2723823768
24,13,Improv_Metronome,50,1,48,119,2724087136
24,13,Improv_Metronome,51,5,42,127,2724156732
24,13,Improv_Metronome,52,1,38,101,2724163288
24,13,Improv_Metronome,53,1,48,103,2724425576
24,13,Improv_Metronome,54,1,38,79,2724647136
24,13,Improv_Metronome,55,5,42,127,2724656516
24,13,Improv_Metronome,56,1,38,83,2724796804
24,13,Improv_Metronome,57,1,38,81,2724955972
24,13,Improv_Metronome,58,1,38,108,2725136540
24,13,Improv_Metronome,59,5,42,127,2725157292
24,13,Improv_Metronome,60,1,48,73,2725431488
24,13,Improv_Metronome,61,1,38,99,2725592976
24,13,Improv_Metronome,62,5,42,127,2725657112
24,13,Improv_Metronome,63,1,38,96,2725734940
24,13,Improv_Metronome,64,1,38,70,2725864188
24,13,Improv_Metronome,65,1,38,45,2725895132
24,13,Improv_Metronome,66,1,38,85,2726062436
24,13,Improv_Metronome,67,1,38,36,2726108888
24,13,Improv_Metronome,68,5,42,127,2726156644
24,13,Improv_Metronome,69,1,48,65,2726437348
24,13,Improv_Metronome,70,1,48,64,2726548176
24,13,Improv_Metronome,71,5,42,127,2726657424
24,13,Improv_Metronome,72,1,38,99,2726694572
24,13,Improv_Metronome,73,1,38,78,2726851732
24,13,Improv_Metronome,74,1,38,87,2727011248
24,13,Improv_Metronome,75,5,42,127,2727157224
24,13,Improv_Metronome,76,1,48,75,2727351676
24,13,Improv_Metronome,77,1,48,69,2727475164
24,13,Improv_Metronome,78,1,38,89,2727648480
24,13,Improv_Metronome,79,5,42,127,2727657040
24,13,Improv_Metronome,80,1,38,73,2727780792
24,13,Improv_Metronome,81,1,38,81,2727952832
24,13,Improv_Metronome,82,5,42,127,2728156548
24,13,Improv_Metronome,83,1,38,76,2728230352
24,13,Improv_Metronome,84,1,48,73,2728379556
24,13,Improv_Metronome,85,1,48,71,2728516884
24,13,Improv_Metronome,86,5,42,127,2728657248
24,13,Improv_Metronome,87,1,38,81,2728712872
24,13,Improv_Metronome,88,1,38,79,2728845168
24,13,Improv_Metronome,89,1,38,73,2729011000
24,13,Improv_Metronome,90,5,42,127,2729157124
24,13,Improv_Metronome,91,1,38,88,2729173628
24,13,Improv_Metronome,92,1,48,60,2729333904
24,13,Improv_Metronome,93,1,48,69,2729487912
24,13,Improv_Metronome,94,1,38,84,2729647956
24,13,Improv_Metronome,95,5,42,127,2729656596
24,13,Improv_Metronome,96,1,38,93,2729800944
24,13,Improv_Metronome,97,1,38,78,2729966848
24,13,Improv_Metronome,98,1,38,87,2730121876
24,13,Improv_Metronome,99,5,42,127,2730157368
24,13,Improv_Metronome,100,1,48,76,2730299544
24,13,Improv_Metronome,101,1,48,54,2730475844
24,13,Improv_Metronome,102,1,38,84,2730633572
24,13,Improv_Metronome,103,5,42,127,2730657092
24,13,Improv_Metronome,104,1,38,100,2730802860
24,13,Improv_Metronome,105,1,38,88,2730988812
24,13,Improv_Metronome,106,1,38,81,2731149080
24,13,Improv_Metronome,107,5,42,127,2731157116
24,13,Improv_Metronome,108,1,48,67,2731341556
24,13,Improv_Metronome,109,1,48,80,2731513148
24,13,Improv_Metronome,110,5,42,127,2731656552
24,13,Improv_Metronome,111,1,38,79,2731665056
24,13,Improv_Metronome,112,1,38,100,2731850860
24,13,Improv_Metronome,113,1,38,77,2732020128
24,13,Improv_Metronome,114,5,42,127,2732157252
24,13,Improv_Metronome,115,1,38,105,2732189392
24,13,Improv_Metronome,116,1,48,76,2732357992
24,13,Improv_Metronome,117,1,48,54,2732522920
24,13,Improv_Metronome,118,5,42,127,2732657128
24,13,Improv_Metronome,119,1,38,79,2732669892
24,13,Improv_Metronome,120,1,38,108,2732847768
24,13,Improv_Metronome,121,1,38,94,2732988140
24,13,Improv_Metronome,122,5,42,127,2733156852
24,13,Improv_Metronome,123,1,48,81,2733161016
24,13,Improv_Metronome,124,1,38,93,2733304408
24,13,Improv_Metronome,125,1,38,84,2733485176
24,13,Improv_Metronome,126,1,38,62,2733644048
24,13,Improv_Metronome,127,5,42,127,2733656644
24,13,Improv_Metronome,128,1,38,94,2733815724
24,13,Improv_Metronome,129,1,48,73,2733953184
24,13,Improv_Metronome,130,1,38,86,2734114372
24,13,Improv_Metronome,131,5,42,127,2734157192
24,13,Improv_Metronome,132,1,38,91,2734291440
24,13,Improv_Metronome,133,1,38,107,2734437728
24,13,Improv_Metronome,134,1,48,89,2734609164
24,13,Improv_Metronome,135,5,42,127,2734656844
24,13,Improv_Metronome,136,1,48,47,2734764144
24,13,Improv_Metronome,137,1,38,105,2734943360
24,13,Improv_Metronome,138,1,38,81,2735147040
24,13,Improv_Metronome,139,5,42,127,2735156496
24,13,Improv_Metronome,140,1,38,89,2735291992
24,13,Improv_Metronome,141,1,48,98,2735433812
24,13,Improv_Metronome,142,1,38,86,2735571664
24,13,Improv_Metronome,143,5,42,127,2735657268
24,13,Improv_Metronome,144,1,38,90,2735737560
24,13,Improv_Metronome,145,1,38,88,2735865996
24,13,Improv_Metronome,146,1,48,81,2736042864
24,13,Improv_Metronome,147,5,42,127,2736156980
24,13,Improv_Metronome,148,1,38,78,2736204152
24,13,Improv_Metronome,149,1,38,81,2736362876
24,13,Improv_Metronome,150,1,38,54,2736521652
24,13,Improv_Metronome,151,5,42,127,2736656780
24,13,Improv_Metronome,152,1,38,74,2736676724
24,13,Improv_Metronome,153,1,48,78,2736839492
24,13,Improv_Metronome,154,1,38,76,2736977844
24,13,Improv_Metronome,155,1,38,85,2737141808
24,13,Improv_Metronome,156,5,42,127,2737156796
24,13,Improv_Metronome,157,1,38,77,2737310692
24,13,Improv_Metronome,158,1,38,79,2737481384
24,13,Improv_Metronome,159,1,48,89,2737639960
24,13,Improv_Metronome,160,5,42,127,2737657200
24,13,Improv_Metronome,161,1,38,92,2737804364
24,13,Improv_Metronome,162,1,38,84,2737948276
24,13,Improv_Metronome,163,1,38,79,2738123600
24,13,Improv_Metronome,164,5,42,127,2738156848
24,13,Improv_Metronome,165,1,38,100,2738303416
24,13,Improv_Metronome,166,1,38,48,2738346476
24,13,Improv_Metronome,167,1,48,93,2738476924
24,13,Improv_Metronome,168,1,38,108,2738633556
24,13,Improv_Metronome,169,5,42,127,2738656704
24,13,Improv_Metronome,170,1,38,102,2738807012
24,13,Improv_Metronome,171,1,38,95,2738955560
24,13,Improv_Metronome,172,1,48,68,2739137624
24,13,Improv_Metronome,173,5,42,127,2739157328
24,13,Improv_Metronome,174,1,38,95,2739302772
24,13,Improv_Metronome,175,1,38,105,2739467628
24,13,Improv_Metronome,176,1,38,111,2739626624
24,13,Improv_Metronome,177,5,42,127,2739656980
24,13,Improv_Metronome,178,1,48,58,2739776312
24,13,Improv_Metronome,179,1,38,87,2739940576
24,13,Improv_Metronome,180,1,38,107,2740094560
24,13,Improv_Metronome,181,5,42,127,2740156680
24,13,Improv_Metronome,182,1,38,123,2740264596
24,13,Improv_Metronome,183,1,48,62,2740427660
24,13,Improv_Metronome,184,1,38,99,2740563692
24,13,Improv_Metronome,185,1,38,35,2740623060
24,13,Improv_Metronome,186,5,42,127,2740656384
24,13,Improv_Metronome,187,1,38,100,2740736852
24,13,Improv_Metronome,188,1,38,121,2740901832
24,13,Improv_Metronome,189,1,48,59,2741065268
24,13,Improv_Metronome,190,5,42,127,2741157080
24,13,Improv_Metronome,191,1,38,102,2741214660
24,13,Improv_Metronome,192,1,38,97,2741382560
24,13,Improv_Metronome,193,1,38,127,2741531788
24,13,Improv_Metronome,194,1,38,64,2741566992
24,13,Improv_Metronome,195,5,42,127,2741656860
24,13,Improv_Metronome,196,1,48,42,2741699552
24,13,Improv_Metronome,197,1,38,17,2741708140
24,13,Improv_Metronome,198,1,48,46,2741842276
24,13,Improv_Metronome,199,1,38,97,2742031816
24,13,Improv_Metronome,200,5,42,127,2742156600
24,13,Improv_Metronome,201,1,38,94,2742183128
24,13,Improv_Metronome,202,1,38,34,2742246184
24,13,Improv_Metronome,203,1,38,92,2742342648
24,13,Improv_Metronome,204,1,48,59,2742504364
24,13,Improv_Metronome,205,5,42,127,2742657424
24,13,Improv_Metronome,206,1,48,65,2742671540
24,13,Improv_Metronome,207,1,38,85,2742837744
24,13,Improv_Metronome,208,1,38,127,2742998040
24,13,Improv_Metronome,209,5,42,127,2743157076
24,13,Improv_Metronome,210,1,48,66,2743202528
24,13,Improv_Metronome,211,1,38,94,2743344200
24,13,Improv_Metronome,212,1,38,45,2743384040
24,13,Improv_Metronome,213,1,38,113,2743524744
24,13,Improv_Metronome,214,5,42,127,2743656708
24,13,Improv_Metronome,215,1,38,107,2743679644
24,13,Improv_Metronome,216,1,48,68,2743815104
24,13,Improv_Metronome,217,1,48,73,2743979196
24,13,Improv_Metronome,218,1,38,82,2744145992
24,13,Improv_Metronome,219,5,42,127,2744156500
24,13,Improv_Metronome,220,1,38,54,2744177624
24,13,Improv_Metronome,221,1,38,93,2744285416
24,13,Improv_Metronome,222,1,38,51,2744326004
24,13,Improv_Metronome,223,1,38,87,2744469972
24,13,Improv_Metronome,224,1,48,74,2744621812
24,13,Improv_Metronome,225,5,42,127,2744657300
24,13,Improv_Metronome,226,1,38,91,2744824984
24,13,Improv_Metronome,227,1,38,85,2744984584
24,13,Improv_Metronome,228,1,38,51,2745028040
24,13,Improv_Metronome,229,5,42,127,2745156860
24,13,Improv_Metronome,230,1,48,59,2745159908
24,13,Improv_Metronome,231,1,38,85,2745316612
24,13,Improv_Metronome,232,1,38,94,2745449128
24,13,Improv_Metronome,233,5,42,127,2745656736
24,13,Improv_Metronome,234,1,48,69,2745667184
24,13,Improv_Metronome,235,1,48,63,2745836304
24,13,Improv_Metronome,236,1,48,54,2745989172
24,13,Improv_Metronome,237,1,38,80,2746154548
24,13,Improv_Metronome,238,5,42,127,2746157576
24,13,Improv_Metronome,239,1,38,100,2746300028
24,13,Improv_Metronome,240,1,38,95,2746473864
24,13,Improv_Metronome,241,1,48,78,2746611344
24,13,Improv_Metronome,242,5,42,127,2746657080
24,13,Improv_Metronome,243,1,48,62,2746777168
24,13,Improv_Metronome,244,1,38,79,2746942396
24,13,Improv_Metronome,245,1,38,90,2747085636
24,13,Improv_Metronome,246,5,42,127,2747157032
24,13,Improv_Metronome,247,1,38,111,2747264772
24,13,Improv_Metronome,248,1,48,81,2747388568
24,13,Improv_Metronome,249,1,48,53,2747550556
24,13,Improv_Metronome,250,5,42,127,2747656516
24,13,Improv_Metronome,251,1,38,81,2747738844
24,13,Improv_Metronome,252,1,38,115,2747917692
24,13,Improv_Metronome,253,1,38,90,2748096612
24,13,Improv_Metronome,254,5,42,127,2748157528
24,13,Improv_Metronome,255,1,48,63,2748217780
24,13,Improv_Metronome,256,1,38,102,2748389892
24,13,Improv_Metronome,257,1,38,74,2748546272
24,13,Improv_Metronome,258,5,42,127,2748656940
24,13,Improv_Metronome,259,1,38,66,2748706580
24,13,Improv_Metronome,260,1,38,95,2748890292
24,13,Improv_Metronome,261,1,38,81,2749038440
24,13,Improv_Metronome,262,5,42,127,2749156592
24,13,Improv_Metronome,263,1,38,84,2749236824
24,13,Improv_Metronome,264,1,38,51,2749355360
24,13,Improv_Metronome,265,1,38,100,2749568240
24,13,Improv_Metronome,266,5,42,127,2749656556
24,13,Improv_Metronome,267,1,38,62,2749720392
24,13,Improv_Metronome,268,1,38,79,2749896096
24,13,Improv_Metronome,269,1,38,59,2750047540
24,13,Improv_Metronome,270,1,38,37,2750094568
24,13,Improv_Metronome,271,5,42,127,2750157380
24,13,Improv_Metronome,272,1,38,85,2750218380
24,13,Improv_Metronome,273,1,38,52,2750405520
24,13,Improv_Metronome,274,1,38,92,2750563628
24,13,Improv_Metronome,275,5,42,127,2750656736
24,13,Improv_Metronome,276,1,38,67,2750738224
24,13,Improv_Metronome,277,1,38,44,2750788620
24,13,Improv_Metronome,278,1,48,72,2750910516
24,13,Improv_Metronome,279,1,48,51,2751078492
24,13,Improv_Metronome,280,5,42,127,2751156612
24,13,Improv_Metronome,281,1,38,54,2751268348
24,13,Improv_Metronome,282,1,38,91,2751404308
24,13,Improv_Metronome,283,1,38,97,2751616884
24,13,Improv_Metronome,284,5,42,127,2751657608
24,13,Improv_Metronome,285,1,48,69,2751733216
24,13,Improv_Metronome,286,1,38,99,2751918768
24,13,Improv_Metronome,287,1,38,103,2752076072
24,13,Improv_Metronome,288,5,42,127,2752156960
24,13,Improv_Metronome,289,1,38,94,2752254632
24,13,Improv_Metronome,290,1,48,71,2752428068
24,13,Improv_Metronome,291,1,38,91,2752597488
24,13,Improv_Metronome,292,5,42,127,2752656684
24,13,Improv_Metronome,293,1,48,72,2752756524
24,13,Improv_Metronome,294,1,38,93,2752912160
24,13,Improv_Metronome,295,1,48,78,2753094444
24,13,Improv_Metronome,296,5,42,127,2753156340
24,13,Improv_Metronome,297,1,48,72,2753258576
24,13,Improv_Metronome,298,1,38,113,2753452056
24,13,Improv_Metronome,299,1,48,82,2753610700
24,13,Improv_Metronome,300,5,42,127,2753657484
24,13,Improv_Metronome,301,1,48,74,2753795548
24,13,Improv_Metronome,302,1,38,107,2753960156
24,13,Improv_Metronome,303,1,48,87,2754141164
24,13,Improv_Metronome,304,5,42,127,2754156760
24,13,Improv_Metronome,305,1,48,66,2754309036
24,13,Improv_Metronome,306,1,38,123,2754490100
24,13,Improv_Metronome,307,1,48,91,2754632588
24,13,Improv_Metronome,308,5,42,127,2754656564
24,13,Improv_Metronome,309,1,48,62,2754836136
24,13,Improv_Metronome,310,1,38,117,2754981300
24,13,Improv_Metronome,311,1,48,91,2755155148
24,13,Improv_Metronome,312,5,42,127,2755157488
24,13,Improv_Metronome,313,1,48,74,2755331824
24,13,Improv_Metronome,314,1,38,94,2755492100
24,13,Improv_Metronome,315,5,42,127,2755656920
24,13,Improv_Metronome,316,1,48,87,2755660040
24,13,Improv_Metronome,317,1,38,76,2755832228
24,13,Improv_Metronome,318,1,38,92,2755988308
24,13,Improv_Metronome,319,1,38,99,2756145612
24,13,Improv_Metronome,320,5,42,127,2756156640
24,13,Improv_Metronome,321,1,48,58,2756319984
24,13,Improv_Metronome,322,1,38,93,2756502316
24,13,Improv_Metronome,323,5,42,127,2756656372
24,13,Improv_Metronome,324,1,38,99,2756658388
24,13,Improv_Metronome,325,1,38,92,2756854264
24,13,Improv_Metronome,326,1,48,56,2757003764
24,13,Improv_Metronome,327,5,42,127,2757157516
24,13,Improv_Metronome,328,1,38,87,2757183224
24,13,Improv_Metronome,329,1,38,100,2757355568
24,13,Improv_Metronome,330,1,38,107,2757512468
24,13,Improv_Metronome,331,5,42,127,2757656948
24,13,Improv_Metronome,332,1,48,58,2757697464
24,13,Improv_Metronome,333,1,38,111,2757837868
24,13,Improv_Metronome,334,1,38,114,2758042188
24,13,Improv_Metronome,335,5,42,127,2758156600
24,13,Improv_Metronome,336,1,38,108,2758219404
24,13,Improv_Metronome,337,1,48,67,2758408200
24,13,Improv_Metronome,338,1,38,83,2758565696
24,13,Improv_Metronome,339,5,42,127,2758658568
24,13,Improv_Metronome,340,1,38,74,2758714940
24,13,Improv_Metronome,341,1,38,89,2758898424
24,13,Improv_Metronome,342,1,38,91,2759045604
24,13,Improv_Metronome,343,5,42,127,2759157172
24,13,Improv_Metronome,344,1,38,106,2759237332
24,13,Improv_Metronome,345,1,38,89,2759379080
24,13,Improv_Metronome,346,1,38,74,2759550344
24,13,Improv_Metronome,347,5,42,127,2759656828
24,13,Improv_Metronome,348,1,38,104,2759719036
24,13,Improv_Metronome,349,1,38,108,2759880228
24,13,Improv_Metronome,350,1,48,69,2760047524
24,13,Improv_Metronome,351,5,42,127,2760156476
24,13,Improv_Metronome,352,1,38,86,2760214344
24,13,Improv_Metronome,353,1,38,105,2760373044
24,13,Improv_Metronome,354,1,38,100,2760539024
24,13,Improv_Metronome,355,5,42,127,2760657176
24,13,Improv_Metronome,356,1,48,98,2760705016
24,13,Improv_Metronome,357,1,38,118,2760869776
24,13,Improv_Metronome,358,1,38,92,2761006960
24,13,Improv_Metronome,359,5,42,127,2761156900
24,13,Improv_Metronome,360,1,38,98,2761188816
24,13,Improv_Metronome,361,1,48,72,2761341904
24,13,Improv_Metronome,362,1,48,69,2761539524
24,13,Improv_Metronome,363,5,42,127,2761656676
24,13,Improv_Metronome,364,1,38,91,2761695044
24,13,Improv_Metronome,365,1,48,80,2761888748
24,13,Improv_Metronome,366,1,48,63,2762055624
24,13,Improv_Metronome,367,5,42,127,2762157300
24,13,Improv_Metronome,368,1,38,105,2762224540
24,13,Improv_Metronome,369,1,48,76,2762365740
24,13,Improv_Metronome,370,1,48,72,2762557752
24,13,Improv_Metronome,371,5,42,127,2762657252
24,13,Improv_Metronome,372,1,38,108,2762725992
24,13,Improv_Metronome,373,1,48,78,2762866968
24,13,Improv_Metronome,374,1,38,89,2763024568
24,13,Improv_Metronome,375,5,42,127,2763156976
24,13,Improv_Metronome,376,1,48,74,2763207020
24,13,Improv_Metronome,377,1,38,104,2763365568
24,13,Improv_Metronome,378,1,48,101,2763533492
24,13,Improv_Metronome,379,5,42,127,2763656480
24,13,Improv_Metronome,380,1,38,111,2763739128
24,13,Improv_Metronome,381,1,38,54,2763785932
24,13,Improv_Metronome,382,1,48,86,2763905064
24,13,Improv_Metronome,383,1,48,70,2764095424
24,13,Improv_Metronome,384,5,42,127,2764157172
24,13,Improv_Metronome,385,1,38,88,2764244816
24,13,Improv_Metronome,386,1,38,30,2764311816
24,13,Improv_Metronome,387,1,48,80,2764445832
24,13,Improv_Metronome,388,1,38,113,2764620784
24,13,Improv_Metronome,389,5,42,127,2764657096
24,13,Improv_Metronome,390,1,48,77,2764827028
24,13,Improv_Metronome,391,1,38,93,2764954760
24,13,Improv_Metronome,392,1,48,96,2765150132
24,13,Improv_Metronome,393,5,42,127,2765156824
24,13,Improv_Metronome,394,1,48,85,2765322184
24,13,Improv_Metronome,395,1,38,83,2765479764
24,13,Improv_Metronome,396,1,48,82,2765655044
24,13,Improv_Metronome,397,5,42,127,2765656548
24,13,Improv_Metronome,398,1,38,82,2765812340
24,13,Improv_Metronome,399,1,48,71,2766015792
24,13,Improv_Metronome,400,1,38,95,2766132232
24,13,Improv_Metronome,401,5,42,127,2766157024
24,13,Improv_Metronome,402,1,48,76,2766364272
24,13,Improv_Metronome,403,1,38,96,2766507192
24,13,Improv_Metronome,404,5,42,127,2766656980
24,13,Improv_Metronome,405,1,48,89,2766676108
24,13,Improv_Metronome,406,1,48,80,2766812244
24,13,Improv_Metronome,407,1,48,36,2766856504
24,13,Improv_Metronome,408,1,38,73,2767007120
24,13,Improv_Metronome,409,5,42,127,2767156612
24,13,Improv_Metronome,410,1,48,91,2767191220
24,13,Improv_Metronome,411,1,38,95,2767334980
24,13,Improv_Metronome,412,1,48,85,2767527944
24,13,Improv_Metronome,413,5,42,127,2767657232
24,13,Improv_Metronome,414,1,48,93,2767756164
24,13,Improv_Metronome,415,1,38,103,2767928804
24,13,Improv_Metronome,416,1,48,73,2768107420
24,13,Improv_Metronome,417,5,42,127,2768156976
24,13,Improv_Metronome,418,1,38,77,2768250884
24,13,Improv_Metronome,419,1,38,84,2768401604
24,13,Improv_Metronome,420,1,38,85,2768575356
24,13,Improv_Metronome,421,5,42,127,2768656848
24,13,Improv_Metronome,422,1,48,76,2768724872
24,13,Improv_Metronome,423,1,38,98,2768900804
24,13,Improv_Metronome,424,1,38,74,2769034448
24,13,Improv_Metronome,425,5,42,127,2769156484
24,13,Improv_Metronome,426,1,38,85,2769207920
24,13,Improv_Metronome,427,1,48,73,2769362008
24,13,Improv_Metronome,428,1,48,77,2769529236
24,13,Improv_Metronome,429,5,42,127,2769657108
24,13,Improv_Metronome,430,1,38,84,2769708176
24,13,Improv_Metronome,431,1,48,76,2769879760
24,13,Improv_Metronome,432,1,38,80,2770016916
24,13,Improv_Metronome,433,5,42,127,2770156980
24,13,Improv_Metronome,434,1,48,89,2770217472
24,13,Improv_Metronome,435,1,38,108,2770336904
24,13,Improv_Metronome,436,1,38,78,2770539084
24,13,Improv_Metronome,437,5,42,127,2770656560
24,13,Improv_Metronome,438,1,38,71,2770690044
24,13,Improv_Metronome,439,1,38,85,2770868040
24,13,Improv_Metronome,440,1,48,65,2771007316
24,13,Improv_Metronome,441,5,42,127,2771157256
24,13,Improv_Metronome,442,1,38,76,2771197696
24,13,Improv_Metronome,443,1,38,81,2771340988
24,13,Improv_Metronome,444,1,38,73,2771509060
24,13,Improv_Metronome,445,5,42,127,2771657056
24,13,Improv_Metronome,446,1,48,81,2771663388
24,13,Improv_Metronome,447,1,38,102,2771824856
24,13,Improv_Metronome,448,1,38,77,2771996000
24,13,Improv_Metronome,449,1,38,89,2772149836
24,13,Improv_Metronome,450,5,42,127,2772156900
24,13,Improv_Metronome,451,1,48,72,2772319720
24,13,Improv_Metronome,452,1,38,69,2772475376
24,13,Improv_Metronome,453,1,38,69,2772636844
24,13,Improv_Metronome,454,5,42,127,2772656400
24,13,Improv_Metronome,455,1,38,89,2772800824
24,13,Improv_Metronome,456,1,48,74,2772956704
24,13,Improv_Metronome,457,1,38,83,2773099772
24,13,Improv_Metronome,458,5,42,127,2773157172
24,13,Improv_Metronome,459,1,38,64,2773273624
24,13,Improv_Metronome,460,1,38,76,2773439448
24,13,Improv_Metronome,461,1,48,68,2773615500
24,13,Improv_Metronome,462,5,42,127,2773656900
24,13,Improv_Metronome,463,1,38,88,2773764744
24,13,Improv_Metronome,464,1,38,75,2773949876
24,13,Improv_Metronome,465,1,38,76,2774106628
24,13,Improv_Metronome,466,5,42,127,2774156628
24,13,Improv_Metronome,467,1,48,70,2774273820
24,13,Improv_Metronome,468,1,38,105,2774425864
24,13,Improv_Metronome,469,1,38,71,2774600368
24,13,Improv_Metronome,470,5,42,127,2774657324
24,13,Improv_Metronome,471,1,38,107,2774749612
24,13,Improv_Metronome,472,1,48,86,2774927980
24,13,Improv_Metronome,473,1,38,101,2775099572
24,13,Improv_Metronome,474,5,42,127,2775156976
24,13,Improv_Metronome,475,1,38,72,2775253228
24,13,Improv_Metronome,476,1,38,108,2775410732
24,13,Improv_Metronome,477,1,38,35,2775472788
24,13,Improv_Metronome,478,1,48,72,2775550968
24,13,Improv_Metronome,479,5,42,127,2775656876
24,13,Improv_Metronome,480,1,38,77,2775722524
24,13,Improv_Metronome,481,1,48,86,2775963004
24,13,Improv_Metronome,482,1,38,97,2776079912
24,13,Improv_Metronome,483,5,42,127,2776156540
24,13,Improv_Metronome,484,1,48,77,2776305520
24,13,Improv_Metronome,485,1,48,38,2776360776
24,13,Improv_Metronome,486,1,38,110,2776562432
24,13,Improv_Metronome,487,1,38,29,2776646788
24,13,Improv_Metronome,488,5,42,127,2776657364
24,13,Improv_Metronome,489,1,48,89,2776875168
24,13,Improv_Metronome,490,1,38,79,2777012168
24,13,Improv_Metronome,491,5,42,127,2777156952
24,13,Improv_Metronome,492,1,48,75,2777250644
24,13,Improv_Metronome,493,1,38,75,2777495912
24,13,Improv_Metronome,494,5,42,127,2777656624
24,13,Improv_Metronome,495,1,48,73,2777869944
24,13,Improv_Metronome,496,1,38,77,2777986088
24,13,Improv_Metronome,497,5,42,127,2778157712
24,13,Improv_Metronome,498,1,48,75,2778276096
24,13,Improv_Metronome,499,1,38,71,2778523304
24,13,Improv_Metronome,500,5,42,127,2778657088
24,13,Improv_Metronome,501,1,48,65,2778928604
24,13,Improv_Metronome,502,1,38,91,2779084260
24,13,Improv_Metronome,503,5,42,127,2779156924
24,13,Improv_Metronome,504,1,48,67,2779373604
24,13,Improv_Metronome,505,1,38,88,2779648636
24,13,Improv_Metronome,506,5,42,127,2779656748
24,13,Improv_Metronome,507,5,42,127,2780157496
24,13,Improv_Metronome,508,1,48,105,2780176700
24,13,Improv_Metronome,509,1,38,86,2780314448
24,13,Improv_Metronome,510,1,48,78,2780585816
24,13,Improv_Metronome,511,5,42,127,2780657088
24,13,Improv_Metronome,512,1,38,95,2780850408
24,13,Improv_Metronome,513,5,42,127,2781156844
24,13,Improv_Metronome,514,1,48,88,2781332144
24,13,Improv_Metronome,515,1,38,79,2781450780
24,13,Improv_Metronome,516,5,42,127,2781656516
24,13,Improv_Metronome,517,1,48,86,2781736600
24,13,Improv_Metronome,518,1,38,76,2782004752
24,13,Improv_Metronome,519,5,42,127,2782157088
24,13,Improv_Metronome,520,1,48,95,2782494804
24,13,Improv_Metronome,521,1,38,57,2782587456
24,13,Improv_Metronome,522,5,42,127,2782656764
24,13,Improv_Metronome,523,1,48,82,2782838480
24,13,Improv_Metronome,524,1,38,73,2783122868
24,13,Improv_Metronome,525,5,42,127,2783156784
24,13,Improv_Metronome,526,1,38,25,2783261864
24,13,Improv_Metronome,527,1,48,95,2783579004
24,13,Improv_Metronome,528,5,42,127,2783657280
24,13,Improv_Metronome,529,1,38,92,2783691972
24,13,Improv_Metronome,530,1,48,90,2783959676
24,13,Improv_Metronome,531,5,42,127,2784157084
24,13,Improv_Metronome,532,1,38,81,2784214532
24,13,Improv_Metronome,533,5,42,127,2784656704
24,13,Improv_Metronome,534,1,48,94,2784690112
24,13,Improv_Metronome,535,1,38,76,2784805308
24,13,Improv_Metronome,536,1,48,92,2785084304
24,13,Improv_Metronome,537,5,42,127,2785156744
24,13,Improv_Metronome,538,1,38,103,2785353596
24,13,Improv_Metronome,539,5,42,127,2785657172
24,13,Improv_Metronome,540,1,48,89,2785838032
24,13,Improv_Metronome,541,1,38,72,2785936372
24,13,Improv_Metronome,0,9999,9999,9999,2716154928
24,13,Improv_Metronome,1,9999,9999,9999,2716654644
24,13,Improv_Metronome,2,9999,9999,9999,2717154360
24,13,Improv_Metronome,3,9999,9999,9999,2717654080
24,13,Improv_Metronome,4,9999,9999,9999,2718154836
24,13,Improv_Metronome,5,9999,9999,9999,2718654580
24,13,Improv_Metronome,6,9999,9999,9999,2719154248
24,13,Improv_Metronome,7,9999,9999,9999,2719654992
24,13,Improv_Metronome,8,9999,9999,9999,2720154712
24,13,Improv_Metronome,9,9999,9999,9999,2720654432
24,13,Improv_Metronome,10,9999,9999,9999,2721154096
24,13,Improv_Metronome,11,9999,9999,9999,2721654876
24,13,Improv_Metronome,12,9999,9999,9999,2722154596
24,13,Improv_Metronome,13,9999,9999,9999,2722654328
24,13,Improv_Metronome,14,9999,9999,9999,2723155064
24,13,Improv_Metronome,15,9999,9999,9999,2723654720
24,13,Improv_Metronome,16,9999,9999,9999,2724154444
24,13,Improv_Metronome,17,9999,9999,9999,2724654156
24,13,Improv_Metronome,18,9999,9999,9999,2725154928
24,13,Improv_Metronome,19,9999,9999,9999,2725654600
24,13,Improv_Metronome,20,9999,9999,9999,2726154356
24,13,Improv_Metronome,21,9999,9999,9999,2726655060
24,13,Improv_Metronome,22,9999,9999,9999,2727154788
24,13,Improv_Metronome,23,9999,9999,9999,2727654452
24,13,Improv_Metronome,24,9999,9999,9999,2728154184
24,13,Improv_Metronome,25,9999,9999,9999,2728654960
24,13,Improv_Metronome,26,9999,9999,9999,2729154612
24,13,Improv_Metronome,27,9999,9999,9999,2729654380
24,13,Improv_Metronome,28,9999,9999,9999,2730155080
24,13,Improv_Metronome,29,9999,9999,9999,2730654804
24,13,Improv_Metronome,30,9999,9999,9999,2731154532
24,13,Improv_Metronome,31,9999,9999,9999,2731654264
24,13,Improv_Metronome,32,9999,9999,9999,2732154964
24,13,Improv_Metronome,33,9999,9999,9999,2732654688
24,13,Improv_Metronome,34,9999,9999,9999,2733154416
24,13,Improv_Metronome,35,9999,9999,9999,2733654132
24,13,Improv_Metronome,36,9999,9999,9999,2734154832
24,13,Improv_Metronome,37,9999,9999,9999,2734654556
24,13,Improv_Metronome,38,9999,9999,9999,2735154284
24,13,Improv_Metronome,39,9999,9999,9999,2735654980
24,13,Improv_Metronome,40,9999,9999,9999,2736154692
24,13,Improv_Metronome,41,9999,9999,9999,2736654416
24,13,Improv_Metronome,42,9999,9999,9999,2737154136
24,13,Improv_Metronome,43,9999,9999,9999,2737654836
24,13,Improv_Metronome,44,9999,9999,9999,2738154560
24,13,Improv_Metronome,45,9999,9999,9999,2738654268
24,13,Improv_Metronome,46,9999,9999,9999,2739155040
24,13,Improv_Metronome,47,9999,9999,9999,2739654764
24,13,Improv_Metronome,48,9999,9999,9999,2740154464
24,13,Improv_Metronome,49,9999,9999,9999,2740654168
24,13,Improv_Metronome,50,9999,9999,9999,2741154864
24,13,Improv_Metronome,51,9999,9999,9999,2741654644
24,13,Improv_Metronome,52,9999,9999,9999,2742154308
24,13,Improv_Metronome,53,9999,9999,9999,2742655064
24,13,Improv_Metronome,54,9999,9999,9999,2743154788
24,13,Improv_Metronome,55,9999,9999,9999,2743654492
24,13,Improv_Metronome,56,9999,9999,9999,2744154212
24,13,Improv_Metronome,57,9999,9999,9999,2744654936
24,13,Improv_Metronome,58,9999,9999,9999,2745154648
24,13,Improv_Metronome,59,9999,9999,9999,2745654372
24,13,Improv_Metronome,60,9999,9999,9999,2746155064
24,13,Improv_Metronome,61,9999,9999,9999,2746654792
24,13,Improv_Metronome,62,9999,9999,9999,2747154520
24,13,Improv_Metronome,63,9999,9999,9999,2747654228
24,13,Improv_Metronome,64,9999,9999,9999,2748154944
24,13,Improv_Metronome,65,9999,9999,9999,2748654652
24,13,Improv_Metronome,66,9999,9999,9999,2749154376
24,13,Improv_Metronome,67,9999,9999,9999,2749654116
24,13,Improv_Metronome,68,9999,9999,9999,2750154868
24,13,Improv_Metronome,69,9999,9999,9999,2750654520
24,13,Improv_Metronome,70,9999,9999,9999,2751154248
24,13,Improv_Metronome,71,9999,9999,9999,2751655020
24,13,Improv_Metronome,72,9999,9999,9999,2752154672
24,13,Improv_Metronome,73,9999,9999,9999,2752654396
24,13,Improv_Metronome,74,9999,9999,9999,2753154124
24,13,Improv_Metronome,75,9999,9999,9999,2753654896
24,13,Improv_Metronome,76,9999,9999,9999,2754154548
24,13,Improv_Metronome,77,9999,9999,9999,2754654272
24,13,Improv_Metronome,78,9999,9999,9999,2755155012
24,13,Improv_Metronome,79,9999,9999,9999,2755654708
24,13,Improv_Metronome,80,9999,9999,9999,2756154428
24,13,Improv_Metronome,81,9999,9999,9999,2756654160
24,13,Improv_Metronome,82,9999,9999,9999,2757154928
24,13,Improv_Metronome,83,9999,9999,9999,2757654584
24,13,Improv_Metronome,84,9999,9999,9999,2758154308
24,13,Improv_Metronome,85,9999,9999,9999,2758655024
24,13,Improv_Metronome,86,9999,9999,9999,2759154808
24,13,Improv_Metronome,87,9999,9999,9999,2759654460
24,13,Improv_Metronome,88,9999,9999,9999,2760154188
24,13,Improv_Metronome,89,9999,9999,9999,2760654960
24,13,Improv_Metronome,90,9999,9999,9999,2761154612
24,13,Improv_Metronome,91,9999,9999,9999,2761654388
24,13,Improv_Metronome,92,9999,9999,9999,2762155060
24,13,Improv_Metronome,93,9999,9999,9999,2762654828
24,13,Improv_Metronome,94,9999,9999,9999,2763154540
24,13,Improv_Metronome,95,9999,9999,9999,2763654264
24,13,Improv_Metronome,96,9999,9999,9999,2764154956
24,13,Improv_Metronome,97,9999,9999,9999,2764654660
24,13,Improv_Metronome,98,9999,9999,9999,2765154384
24,13,Improv_Metronome,99,9999,9999,9999,2765654120
24,13,Improv_Metronome,100,9999,9999,9999,2766154808
24,13,Improv_Metronome,101,9999,9999,9999,2766654540
24,13,Improv_Metronome,102,9999,9999,9999,2767154248
24,13,Improv_Metronome,103,9999,9999,9999,2767655020
24,13,Improv_Metronome,104,9999,9999,9999,2768154688
24,13,Improv_Metronome,105,9999,9999,9999,2768654412
24,13,Improv_Metronome,106,9999,9999,9999,2769154120
24,13,Improv_Metronome,107,9999,9999,9999,2769654892
24,13,Improv_Metronome,108,9999,9999,9999,2770154544
24,13,Improv_Metronome,109,9999,9999,9999,2770654268
24,13,Improv_Metronome,110,9999,9999,9999,2771155044
24,13,Improv_Metronome,111,9999,9999,9999,2771654768
24,13,Improv_Metronome,112,9999,9999,9999,2772154464
24,13,Improv_Metronome,113,9999,9999,9999,2772654184
24,13,Improv_Metronome,114,9999,9999,9999,2773154884
24,13,Improv_Metronome,115,9999,9999,9999,2773654612
24,13,Improv_Metronome,116,9999,9999,9999,2774154340
24,13,Improv_Metronome,117,9999,9999,9999,2774655036
24,13,Improv_Metronome,118,9999,9999,9999,2775154764
24,13,Improv_Metronome,119,9999,9999,9999,2775654512
24,13,Improv_Metronome,120,9999,9999,9999,2776154176
24,13,Improv_Metronome,121,9999,9999,9999,2776654928
24,13,Improv_Metronome,122,9999,9999,9999,2777154660
24,13,Improv_Metronome,123,9999,9999,9999,2777654332
24,13,Improv_Metronome,124,9999,9999,9999,2778155128
24,13,Improv_Metronome,125,9999,9999,9999,2778654796
24,13,Improv_Metronome,126,9999,9999,9999,2779154488
24,13,Improv_Metronome,127,9999,9999,9999,2779654236
24,13,Improv_Metronome,128,9999,9999,9999,2780154984
24,13,Improv_Metronome,129,9999,9999,9999,2780654648
24,13,Improv_Metronome,130,9999,9999,9999,2781154404
24,13,Improv_Metronome,131,9999,9999,9999,2781654080
24,13,Improv_Metronome,132,9999,9999,9999,2782154872
24,13,Improv_Metronome,133,9999,9999,9999,2782654548
24,13,Improv_Metronome,134,9999,9999,9999,2783154272
24,13,Improv_Metronome,135,9999,9999,9999,2783654992
24,13,Improv_Metronome,136,9999,9999,9999,2784154720
24,13,Improv_Metronome,137,9999,9999,9999,2784654416
24,13,Improv_Metronome,138,9999,9999,9999,2785154156
24,13,Improv_Metronome,139,9999,9999,9999,2785654884
25,14,Improv_Melody,0,2,48,80,2842439172
25,14,Improv_Melody,1,2,72,80,2842441920
25,14,Improv_Melody,2,5,42,127,2842443480
25,14,Improv_Melody,3,5,42,110,2842935948
25,14,Improv_Melody,4,5,42,110,2843436420
25,14,Improv_Melody,5,5,42,110,2843936068
25,14,Improv_Melody,6,5,42,127,2844436012
25,14,Improv_Melody,7,5,42,110,2844935584
25,14,Improv_Melody,8,5,42,110,2845436276
25,14,Improv_Melody,9,5,42,110,2845936076
25,14,Improv_Melody,10,2,43,80,2846438148
25,14,Improv_Melody,11,2,67,80,2846440532
25,14,Improv_Melody,12,5,42,127,2846443064
25,14,Improv_Melody,13,5,42,110,2846936432
25,14,Improv_Melody,14,5,42,110,2847436004
25,14,Improv_Melody,15,5,42,110,2847935800
25,14,Improv_Melody,16,5,42,127,2848435644
25,14,Improv_Melody,17,5,42,110,2848936264
25,14,Improv_Melody,18,5,42,110,2849436132
25,14,Improv_Melody,19,5,42,110,2849935708
25,14,Improv_Melody,20,2,45,80,2850438008
25,14,Improv_Melody,21,2,69,80,2850440008
25,14,Improv_Melody,22,5,42,127,2850442696
25,14,Improv_Melody,23,5,42,110,2850936136
25,14,Improv_Melody,24,5,42,110,2851435856
25,14,Improv_Melody,25,5,42,110,2851935728
25,14,Improv_Melody,26,5,42,127,2852436200
25,14,Improv_Melody,27,5,42,110,2852935920
25,14,Improv_Melody,28,5,42,110,2853435864
25,14,Improv_Melody,29,5,42,110,2853935436
25,14,Improv_Melody,30,2,41,80,2854438788
25,14,Improv_Melody,31,2,65,80,2854440860
25,14,Improv_Melody,32,5,42,127,2854443624
25,14,Improv_Melody,33,5,42,110,2854935868
25,14,Improv_Melody,34,5,42,110,2855435588
25,14,Improv_Melody,35,5,42,110,2855936584
25,14,Improv_Melody,36,5,42,127,2856436228
25,14,Improv_Melody,37,5,42,110,2856935800
25,14,Improv_Melody,38,5,42,110,2857435520
25,14,Improv_Melody,39,5,42,110,2857936140
25,14,Improv_Melody,40,1,38,14,2858021240
25,14,Improv_Melody,41,1,48,46,2858437380
25,14,Improv_Melody,42,2,48,80,2858439852
25,14,Improv_Melody,43,2,72,80,2858441780
25,14,Improv_Melody,44,5,42,127,2858444236
25,14,Improv_Melody,45,5,42,110,2858935692
25,14,Improv_Melody,46,1,48,59,2858962372
25,14,Improv_Melody,47,1,38,47,2859206440
25,14,Improv_Melody,48,5,42,110,2859436616
25,14,Improv_Melody,49,1,48,60,2859462804
25,14,Improv_Melody,50,1,48,55,2859701532
25,14,Improv_Melody,51,1,38,63,2859931460
25,14,Improv_Melody,52,5,42,110,2859936364
25,14,Improv_Melody,53,1,38,42,2859980260
25,14,Improv_Melody,54,1,48,58,2860426432
25,14,Improv_Melody,55,5,42,127,2860435820
25,14,Improv_Melody,56,1,48,54,2860670000
25,14,Improv_Melody,57,1,38,62,2860909280
25,14,Improv_Melody,58,5,42,110,2860935496
25,14,Improv_Melody,59,1,38,37,2860968148
25,14,Improv_Melody,60,1,48,59,2861150952
25,14,Improv_Melody,61,1,48,54,2861400928
25,14,Improv_Melody,62,5,42,110,2861436496
25,14,Improv_Melody,63,1,38,58,2861638668
25,14,Improv_Melody,64,1,38,32,2861700576
25,14,Improv_Melody,65,1,48,60,2861899760
25,14,Improv_Melody,66,5,42,110,2861935856
25,14,Improv_Melody,67,1,48,58,2862426392
25,14,Improv_Melody,68,2,43,80,2862438356
25,14,Improv_Melody,69,2,67,80,2862440208
25,14,Improv_Melody,70,5,42,127,2862442824
25,14,Improv_Melody,71,1,38,52,2862655536
25,14,Improv_Melody,72,1,38,29,2862712956
25,14,Improv_Melody,73,1,48,59,2862901972
25,14,Improv_Melody,74,5,42,110,2862936568
25,14,Improv_Melody,75,1,48,56,2863146068
25,14,Improv_Melody,76,1,38,59,2863392156
25,14,Improv_Melody,77,5,42,110,2863436396
25,14,Improv_Melody,78,1,38,34,2863445708
25,14,Improv_Melody,79,1,48,35,2863636444
25,14,Improv_Melody,80,1,38,63,2863880368
25,14,Improv_Melody,81,5,42,110,2863935832
25,14,Improv_Melody,82,1,38,31,2863946340
25,14,Improv_Melody,83,1,48,48,2864414524
25,14,Improv_Melody,84,5,42,127,2864435508
25,14,Improv_Melody,85,1,48,41,2864646048
25,14,Improv_Melody,86,1,38,60,2864869028
25,14,Improv_Melody,87,1,38,40,2864931912
25,14,Improv_Melody,88,5,42,110,2864936436
25,14,Improv_Melody,89,1,48,45,2865120872
25,14,Improv_Melody,90,1,38,60,2865365092
25,14,Improv_Melody,91,5,42,110,2865435964
25,14,Improv_Melody,92,1,48,43,2865619432
25,14,Improv_Melody,93,1,48,54,2865868360
25,14,Improv_Melody,94,5,42,110,2865935864
25,14,Improv_Melody,95,1,38,58,2866425132
25,14,Improv_Melody,96,2,45,80,2866437844
25,14,Improv_Melody,97,2,69,80,2866440072
25,14,Improv_Melody,98,5,42,127,2866442612
25,14,Improv_Melody,99,1,38,40,2866496352
25,14,Improv_Melody,100,5,42,110,2866936384
25,14,Improv_Melody,101,1,48,42,2866956488
25,14,Improv_Melody,102,1,38,56,2867189036
25,14,Improv_Melody,103,5,42,110,2867435840
25,14,Improv_Melody,104,1,48,46,2867438888
25,14,Improv_Melody,105,1,48,51,2867694244
25,14,Improv_Melody,106,5,42,110,2867935520
25,14,Improv_Melody,107,1,38,52,2867939540
25,14,Improv_Melody,108,1,38,45,2867990300
25,14,Improv_Melody,109,5,42,127,2868436392
25,14,Improv_Melody,110,1,48,47,2868447592
25,14,Improv_Melody,111,1,38,57,2868929696
25,14,Improv_Melody,112,5,42,110,2868936164
25,14,Improv_Melody,113,1,48,43,2869173832
25,14,Improv_Melody,114,1,38,54,2869407804
25,14,Improv_Melody,115,5,42,110,2869435692
25,14,Improv_Melody,116,1,48,52,2869673732
25,14,Improv_Melody,117,1,38,48,2869872472
25,14,Improv_Melody,118,1,38,36,2869934648
25,14,Improv_Melody,119,5,42,110,2869936744
25,14,Improv_Melody,120,1,48,65,2870424060
25,14,Improv_Melody,121,2,41,80,2870438572
25,14,Improv_Melody,122,2,65,80,2870440800
25,14,Improv_Melody,123,5,42,127,2870443412
25,14,Improv_Melody,124,1,48,29,2870528224
25,14,Improv_Melody,125,5,42,110,2870936064
25,14,Improv_Melody,126,1,38,44,2870953172
25,14,Improv_Melody,127,1,48,49,2871190956
25,14,Improv_Melody,128,1,38,53,2871401064
25,14,Improv_Melody,129,5,42,110,2871435588
25,14,Improv_Melody,130,1,38,21,2871477808
25,14,Improv_Melody,131,1,48,59,2871686276
25,14,Improv_Melody,132,1,38,60,2871933484
25,14,Improv_Melody,133,5,42,110,2871936440
25,14,Improv_Melody,134,1,38,43,2871973204
25,14,Improv_Melody,135,5,42,127,2872436048
25,14,Improv_Melody,136,1,48,63,2872450836
25,14,Improv_Melody,137,1,38,59,2872931288
25,14,Improv_Melody,138,5,42,110,2872936040
25,14,Improv_Melody,139,1,38,42,2872990832
25,14,Improv_Melody,140,1,48,59,2873171172
25,14,Improv_Melody,141,1,38,57,2873422944
25,14,Improv_Melody,142,5,42,110,2873435472
25,14,Improv_Melody,143,1,48,62,2873675560
25,14,Improv_Melody,144,1,38,58,2873914768
25,14,Improv_Melody,145,5,42,110,2873936200
25,14,Improv_Melody,146,1,38,39,2873979396
25,14,Improv_Melody,147,1,38,17,2874061076
25,14,Improv_Melody,148,1,38,79,2874419136
25,14,Improv_Melody,149,2,48,80,2874438432
25,14,Improv_Melody,150,2,72,80,2874440740
25,14,Improv_Melody,151,5,42,127,2874443348
25,14,Improv_Melody,152,1,38,40,2874635344
25,14,Improv_Melody,153,1,48,78,2874889880
25,14,Improv_Melody,154,5,42,110,2874935548
25,14,Improv_Melody,155,1,38,79,2875012848
25,14,Improv_Melody,156,1,38,74,2875291544
25,14,Improv_Melody,157,5,42,110,2875436332
25,14,Improv_Melody,158,1,38,73,2875533916
25,14,Improv_Melody,159,1,38,48,2875605428
25,14,Improv_Melody,160,1,38,29,2875672048
25,14,Improv_Melody,161,5,42,110,2875935984
25,14,Improv_Melody,162,1,48,51,2876022880
25,14,Improv_Melody,163,1,48,35,2876090944
25,14,Improv_Melody,164,5,42,127,2876435812
25,14,Improv_Melody,165,1,38,54,2876522400
25,14,Improv_Melody,166,1,38,62,2876648068
25,14,Improv_Melody,167,1,38,71,2876905372
25,14,Improv_Melody,168,5,42,110,2876935484
25,14,Improv_Melody,169,1,38,68,2877171908
25,14,Improv_Melody,170,1,38,49,2877220352
25,14,Improv_Melody,171,5,42,110,2877436340
25,14,Improv_Melody,172,1,48,56,2877680484
25,14,Improv_Melody,173,5,42,110,2877936040
25,14,Improv_Melody,174,1,38,77,2878171212
25,14,Improv_Melody,175,2,43,80,2878438168
25,14,Improv_Melody,176,2,67,80,2878440552
25,14,Improv_Melody,177,5,42,127,2878443084
25,14,Improv_Melody,178,1,38,68,2878667704
25,14,Improv_Melody,179,1,38,49,2878702240
25,14,Improv_Melody,180,5,42,110,2878936556
25,14,Improv_Melody,181,5,42,110,2879436128
25,14,Improv_Melody,182,1,48,44,2879837944
25,14,Improv_Melody,183,5,42,110,2879935976
25,14,Improv_Melody,184,1,38,54,2880057504
25,14,Improv_Melody,185,1,48,64,2880328420
25,14,Improv_Melody,186,1,48,38,2880365420
25,14,Improv_Melody,187,5,42,127,2880435700
25,14,Improv_Melody,188,1,48,46,2880898264
25,14,Improv_Melody,189,5,42,110,2880936296
25,14,Improv_Melody,190,1,38,51,2881419280
25,14,Improv_Melody,191,5,42,110,2881435920
25,14,Improv_Melody,192,1,38,37,2881470840
25,14,Improv_Melody,193,1,48,56,2881890608
25,14,Improv_Melody,194,5,42,110,2881935824
25,14,Improv_Melody,195,1,38,52,2882008740
25,14,Improv_Melody,196,1,48,53,2882272408
25,14,Improv_Melody,197,2,45,80,2882438152
25,14,Improv_Melody,198,2,69,80,2882440372
25,14,Improv_Melody,199,5,42,127,2882442908
25,14,Improv_Melody,200,1,38,57,2882532668
25,14,Improv_Melody,201,1,38,37,2882584032
25,14,Improv_Melody,202,5,42,110,2882936152
25,14,Improv_Melody,203,1,48,55,2883056132
25,14,Improv_Melody,204,1,48,36,2883105252
25,14,Improv_Melody,205,5,42,110,2883435760
25,14,Improv_Melody,206,1,38,40,2883560676
25,14,Improv_Melody,207,5,42,110,2883935684
25,14,Improv_Melody,208,1,38,52,2884032920
25,14,Improv_Melody,209,5,42,127,2884436280
25,14,Improv_Melody,210,1,48,43,2884526240
25,14,Improv_Melody,211,5,42,110,2884935980
25,14,Improv_Melody,212,1,38,30,2885000508
25,14,Improv_Melody,213,1,48,46,2885096924
25,14,Improv_Melody,214,1,38,64,2885340692
25,14,Improv_Melody,215,1,38,35,2885396544
25,14,Improv_Melody,216,5,42,110,2885435700
25,14,Improv_Melody,217,1,48,63,2885635696
25,14,Improv_Melody,218,1,48,38,2885683844
25,14,Improv_Melody,219,5,42,110,2885935440
25,14,Improv_Melody,220,1,48,48,2886162300
25,14,Improv_Melody,221,1,48,38,2886199384
25,14,Improv_Melody,222,2,41,80,2886438892
25,14,Improv_Melody,223,2,65,80,2886440820
25,14,Improv_Melody,224,5,42,127,2886443432
25,14,Improv_Melody,225,1,48,60,2886696324
25,14,Improv_Melody,226,5,42,110,2886935876
25,14,Improv_Melody,227,1,38,46,2887185556
25,14,Improv_Melody,228,5,42,110,2887435800
25,14,Improv_Melody,229,1,48,60,2887703656
25,14,Improv_Melody,230,5,42,110,2887936252
25,14,Improv_Melody,231,1,38,45,2888212632
25,14,Improv_Melody,232,1,38,32,2888263392
25,14,Improv_Melody,233,5,42,127,2888436152
25,14,Improv_Melody,234,1,48,44,2888718288
25,14,Improv_Melody,235,5,42,110,2888935700
25,14,Improv_Melody,236,1,38,51,2889244540
25,14,Improv_Melody,237,1,38,22,2889331064
25,14,Improv_Melody,238,5,42,110,2889435600
25,14,Improv_Melody,239,1,48,46,2889677424
25,14,Improv_Melody,240,5,42,110,2889936200
25,14,Improv_Melody,241,1,48,49,2890121748
25,14,Improv_Melody,242,1,38,57,2890241724
25,14,Improv_Melody,243,2,48,80,2890438688
25,14,Improv_Melody,244,2,72,80,2890440608
25,14,Improv_Melody,245,5,42,127,2890443144
25,14,Improv_Melody,246,1,48,54,2890513056
25,14,Improv_Melody,247,1,38,67,2890772384
25,14,Improv_Melody,248,1,38,37,2890837588
25,14,Improv_Melody,249,5,42,110,2890935620
25,14,Improv_Melody,250,1,48,50,2891324500
25,14,Improv_Melody,251,1,48,25,2891389548
25,14,Improv_Melody,252,5,42,110,2891436636
25,14,Improv_Melody,253,1,38,47,2891828964
25,14,Improv_Melody,254,5,42,110,2891936096
25,14,Improv_Melody,255,1,48,47,2892327096
25,14,Improv_Melody,256,5,42,127,2892435872
25,14,Improv_Melody,257,1,38,44,2892779444
25,14,Improv_Melody,258,1,38,54,2892896336
25,14,Improv_Melody,259,5,42,110,2892935640
25,14,Improv_Melody,260,1,38,31,2892952584
25,14,Improv_Melody,261,1,48,57,2893185652
25,14,Improv_Melody,262,1,48,24,2893256192
25,14,Improv_Melody,263,5,42,110,2893436180
25,14,Improv_Melody,264,1,38,60,2893450296
25,14,Improv_Melody,265,1,38,35,2893506020
25,14,Improv_Melody,266,5,42,110,2893936156
25,14,Improv_Melody,267,1,38,54,2893949000
25,14,Improv_Melody,268,2,43,80,2894437984
25,14,Improv_Melody,269,2,67,80,2894440288
25,14,Improv_Melody,270,5,42,127,2894442752
25,14,Improv_Melody,271,1,48,70,2894465840
25,14,Improv_Melody,272,1,48,48,2894505460
25,14,Improv_Melody,273,5,42,110,2894936368
25,14,Improv_Melody,274,1,38,56,2894971128
25,14,Improv_Melody,275,1,38,56,2895352324
25,14,Improv_Melody,276,5,42,110,2895436284
25,14,Improv_Melody,277,1,38,65,2895464072
25,14,Improv_Melody,278,1,48,56,2895758036
25,14,Improv_Melody,279,5,42,110,2895935804
25,14,Improv_Melody,280,1,38,68,2896018432
25,14,Improv_Melody,281,1,38,35,2896078876
25,14,Improv_Melody,282,5,42,127,2896435704
25,14,Improv_Melody,283,1,38,57,2896489236
25,14,Improv_Melody,284,5,42,110,2896936452
25,14,Improv_Melody,285,1,48,57,2897016760
25,14,Improv_Melody,286,1,48,34,2897076280
25,14,Improv_Melody,287,5,42,110,2897435980
25,14,Improv_Melody,288,1,38,65,2897529980
25,14,Improv_Melody,289,1,38,42,2897568780
25,14,Improv_Melody,290,5,42,110,2897935656
25,14,Improv_Melody,291,1,38,60,2897997788
25,14,Improv_Melody,292,1,48,53,2898436520
25,14,Improv_Melody,293,2,45,80,2898439368
25,14,Improv_Melody,294,2,69,80,2898441292
25,14,Improv_Melody,295,5,42,127,2898443824
25,14,Improv_Melody,296,1,38,58,2898510448
25,14,Improv_Melody,297,1,38,58,2898823528
25,14,Improv_Melody,298,5,42,110,2898936148
25,14,Improv_Melody,299,1,38,67,2899118336
25,14,Improv_Melody,300,1,38,37,2899166876
25,14,Improv_Melody,301,5,42,110,2899435824
25,14,Improv_Melody,302,1,48,54,2899637856
25,14,Improv_Melody,303,5,42,110,2899935600
25,14,Improv_Melody,304,1,38,57,2900093920
25,14,Improv_Melody,305,1,38,19,2900179420
25,14,Improv_Melody,306,5,42,127,2900436324
25,14,Improv_Melody,307,1,38,44,2900597264
25,14,Improv_Melody,308,5,42,110,2900936248
25,14,Improv_Melody,309,1,48,43,2901143336
25,14,Improv_Melody,310,5,42,110,2901435872
25,14,Improv_Melody,311,1,38,59,2901649024
25,14,Improv_Melody,312,1,38,40,2901682736
25,14,Improv_Melody,313,5,42,110,2901935452
25,14,Improv_Melody,314,1,38,52,2902120200
25,14,Improv_Melody,315,1,38,60,2902201060
25,14,Improv_Melody,316,2,41,80,2902438756
25,14,Improv_Melody,317,2,65,80,2902440984
25,14,Improv_Melody,318,5,42,127,2902443592
25,14,Improv_Melody,319,1,38,53,2902495804
25,14,Improv_Melody,320,1,38,66,2902755056
25,14,Improv_Melody,321,1,38,42,2902791760
25,14,Improv_Melody,322,5,42,110,2902935844
25,14,Improv_Melody,323,1,48,55,2903288764
25,14,Improv_Melody,324,5,42,110,2903435916
25,14,Improv_Melody,325,1,38,59,2903779568
25,14,Improv_Melody,326,5,42,110,2903936444
25,14,Improv_Melody,327,1,38,58,2904232196
25,14,Improv_Melody,328,1,38,23,2904306920
25,14,Improv_Melody,329,5,42,127,2904436192
25,14,Improv_Melody,330,1,38,60,2904669112
25,14,Improv_Melody,331,1,38,67,2904768224
25,14,Improv_Melody,332,5,42,110,2904935724
25,14,Improv_Melody,333,1,38,52,2905044108
25,14,Improv_Melody,334,1,38,71,2905351000
25,14,Improv_Melody,335,1,38,44,2905402448
25,14,Improv_Melody,336,5,42,110,2905435468
25,14,Improv_Melody,337,1,48,55,2905819568
25,14,Improv_Melody,338,5,42,110,2905936276
25,14,Improv_Melody,339,1,38,65,2906355996
25,14,Improv_Melody,340,2,48,80,2906438496
25,14,Improv_Melody,341,2,72,80,2906440728
25,14,Improv_Melody,342,5,42,127,2906443336
25,14,Improv_Melody,343,1,38,62,2906896996
25,14,Improv_Melody,344,5,42,110,2906935628
25,14,Improv_Melody,345,1,38,52,2907035144
25,14,Improv_Melody,346,1,38,64,2907335864
25,14,Improv_Melody,347,5,42,110,2907436340
25,14,Improv_Melody,348,1,38,56,2907625428
25,14,Improv_Melody,349,1,38,58,2907934600
25,14,Improv_Melody,350,5,42,110,2907937528
25,14,Improv_Melody,351,1,48,60,2908224436
25,14,Improv_Melody,352,5,42,127,2908435792
25,14,Improv_Melody,353,1,38,67,2908533676
25,14,Improv_Melody,354,1,38,64,2908825920
25,14,Improv_Melody,355,5,42,110,2908935472
25,14,Improv_Melody,356,1,38,60,2909279468
25,14,Improv_Melody,357,5,42,110,2909436292
25,14,Improv_Melody,358,1,38,63,2909442700
25,14,Improv_Melody,359,1,38,53,2909704944
25,14,Improv_Melody,360,5,42,110,2909936120
25,14,Improv_Melody,361,1,38,60,2910026828
25,14,Improv_Melody,362,1,38,77,2910308144
25,14,Improv_Melody,363,1,38,44,2910379112
25,14,Improv_Melody,364,2,43,80,2910438144
25,14,Improv_Melody,365,2,67,80,2910440224
25,14,Improv_Melody,366,5,42,127,2910442912
25,14,Improv_Melody,367,1,48,62,2910606080
25,14,Improv_Melody,368,1,38,64,2910909188
25,14,Improv_Melody,369,5,42,110,2910936384
25,14,Improv_Melody,370,1,38,82,2911206544
25,14,Improv_Melody,371,1,38,25,2911343172
25,14,Improv_Melody,372,1,38,16,2911412936
25,14,Improv_Melody,373,5,42,110,2911436088
25,14,Improv_Melody,374,1,38,51,2911651764
25,14,Improv_Melody,375,1,38,60,2911793512
25,14,Improv_Melody,376,5,42,110,2911935976
25,14,Improv_Melody,377,1,38,63,2912074852
25,14,Improv_Melody,378,1,38,66,2912376512
25,14,Improv_Melody,379,5,42,127,2912435644
25,14,Improv_Melody,380,1,38,70,2912633840
25,14,Improv_Melody,381,1,38,30,2912719268
25,14,Improv_Melody,382,5,42,110,2912936276
25,14,Improv_Melody,383,1,48,52,2912944556
25,14,Improv_Melody,384,1,38,59,2913234796
25,14,Improv_Melody,385,5,42,110,2913435956
25,14,Improv_Melody,386,1,38,81,2913523320
25,14,Improv_Melody,387,1,38,40,2913610892
25,14,Improv_Melody,388,1,38,27,2913685288
25,14,Improv_Melody,389,5,42,110,2913935688
25,14,Improv_Melody,390,1,38,60,2914052372
25,14,Improv_Melody,391,1,38,43,2914086604
25,14,Improv_Melody,392,2,45,80,2914437864
25,14,Improv_Melody,393,2,69,80,2914440096
25,14,Improv_Melody,394,5,42,127,2914442636
25,14,Improv_Melody,395,1,48,69,2914629860
25,14,Improv_Melody,396,5,42,110,2914936124
25,14,Improv_Melody,397,1,48,54,2915176828
25,14,Improv_Melody,398,5,42,110,2915435900
25,14,Improv_Melody,399,1,38,55,2915654688
25,14,Improv_Melody,400,5,42,110,2915935600
25,14,Improv_Melody,401,1,38,62,2916120732
25,14,Improv_Melody,402,1,38,33,2916190044
25,14,Improv_Melody,403,5,42,127,2916436324
25,14,Improv_Melody,404,1,38,61,2916585552
25,14,Improv_Melody,405,5,42,110,2916936100
25,14,Improv_Melody,406,1,48,73,2917071784
25,14,Improv_Melody,407,5,42,110,2917435876
25,14,Improv_Melody,408,1,38,61,2917540948
25,14,Improv_Melody,409,5,42,110,2917935424
25,14,Improv_Melody,410,1,38,61,2917991652
25,14,Improv_Melody,411,1,48,65,2918429540
25,14,Improv_Melody,412,2,41,80,2918439124
25,14,Improv_Melody,413,2,65,80,2918441048
25,14,Improv_Melody,414,5,42,127,2918443804
25,14,Improv_Melody,415,1,38,64,2918928356
25,14,Improv_Melody,416,5,42,110,2918936100
25,14,Improv_Melody,417,1,38,45,2918961720
25,14,Improv_Melody,418,1,38,65,2919415096
25,14,Improv_Melody,419,5,42,110,2919435780
25,14,Improv_Melody,420,1,38,68,2919852464
25,14,Improv_Melody,421,1,38,45,2919899816
25,14,Improv_Melody,422,5,42,110,2919936284
25,14,Improv_Melody,423,1,48,60,2920351468
25,14,Improv_Melody,424,5,42,127,2920436056
25,14,Improv_Melody,425,1,38,72,2920884628
25,14,Improv_Melody,426,5,42,110,2920935904
25,14,Improv_Melody,427,1,38,71,2921366952
25,14,Improv_Melody,428,1,38,43,2921416096
25,14,Improv_Melody,429,5,42,110,2921435728
25,14,Improv_Melody,430,1,48,65,2921882112
25,14,Improv_Melody,431,1,48,47,2921922656
25,14,Improv_Melody,432,5,42,110,2921936156
25,14,Improv_Melody,433,1,38,78,2922371692
25,14,Improv_Melody,434,1,38,48,2922408996
25,14,Improv_Melody,435,2,48,80,2922438264
25,14,Improv_Melody,436,2,72,80,2922440568
25,14,Improv_Melody,437,5,42,127,2922442880
25,14,Improv_Melody,438,1,38,45,2922911852
25,14,Improv_Melody,439,5,42,110,2922935848
25,14,Improv_Melody,440,1,38,28,2922969320
25,14,Improv_Melody,441,1,38,75,2923392304
25,14,Improv_Melody,442,1,38,49,2923428184
25,14,Improv_Melody,0,9999,9999,9999,2842433596
25,14,Improv_Melody,1,9999,9999,9999,2842933356
25,14,Improv_Melody,2,9999,9999,9999,2843434052
25,14,Improv_Melody,3,9999,9999,9999,2843933772
25,14,Improv_Melody,4,9999,9999,9999,2844433496
25,14,Improv_Melody,5,9999,9999,9999,2844933216
25,14,Improv_Melody,6,9999,9999,9999,2845433912
25,14,Improv_Melody,7,9999,9999,9999,2845933632
25,14,Improv_Melody,8,9999,9999,9999,2846433356
25,14,Improv_Melody,9,9999,9999,9999,2846934136
25,14,Improv_Melody,10,9999,9999,9999,2847433784
25,14,Improv_Melody,11,9999,9999,9999,2847933504
25,14,Improv_Melody,12,9999,9999,9999,2848433200
25,14,Improv_Melody,13,9999,9999,9999,2848933972
25,14,Improv_Melody,14,9999,9999,9999,2849433692
25,14,Improv_Melody,15,9999,9999,9999,2849933416
25,14,Improv_Melody,16,9999,9999,9999,2850433136
25,14,Improv_Melody,17,9999,9999,9999,2850933844
25,14,Improv_Melody,18,9999,9999,9999,2851433564
25,14,Improv_Melody,19,9999,9999,9999,2851933288
25,14,Improv_Melody,20,9999,9999,9999,2852433980
25,14,Improv_Melody,21,9999,9999,9999,2852933700
25,14,Improv_Melody,22,9999,9999,9999,2853433424
25,14,Improv_Melody,23,9999,9999,9999,2853933144
25,14,Improv_Melody,24,9999,9999,9999,2854433912
25,14,Improv_Melody,25,9999,9999,9999,2854933576
25,14,Improv_Melody,26,9999,9999,9999,2855433296
25,14,Improv_Melody,27,9999,9999,9999,2855934064
25,14,Improv_Melody,28,9999,9999,9999,2856433784
25,14,Improv_Melody,29,9999,9999,9999,2856933432
25,14,Improv_Melody,30,9999,9999,9999,2857433152
25,14,Improv_Melody,31,9999,9999,9999,2857933924
25,14,Improv_Melody,32,9999,9999,9999,2858433624
25,14,Improv_Melody,33,9999,9999,9999,2858933324
25,14,Improv_Melody,34,9999,9999,9999,2859434100
25,14,Improv_Melody,35,9999,9999,9999,2859933772
25,14,Improv_Melody,36,9999,9999,9999,2860433524
25,14,Improv_Melody,37,9999,9999,9999,2860933204
25,14,Improv_Melody,38,9999,9999,9999,2861433904
25,14,Improv_Melody,39,9999,9999,9999,2861933636
25,14,Improv_Melody,40,9999,9999,9999,2862433336
25,14,Improv_Melody,41,9999,9999,9999,2862934124
25,14,Improv_Melody,42,9999,9999,9999,2863433808
25,14,Improv_Melody,43,9999,9999,9999,2863933540
25,14,Improv_Melody,44,9999,9999,9999,2864433216
25,14,Improv_Melody,45,9999,9999,9999,2864933992
25,14,Improv_Melody,46,9999,9999,9999,2865433672
25,14,Improv_Melody,47,9999,9999,9999,2865933424
25,14,Improv_Melody,48,9999,9999,9999,2866433124
25,14,Improv_Melody,49,9999,9999,9999,2866933868
25,14,Improv_Melody,50,9999,9999,9999,2867433548
25,14,Improv_Melody,51,9999,9999,9999,2867933300
25,14,Improv_Melody,52,9999,9999,9999,2868434024
25,14,Improv_Melody,53,9999,9999,9999,2868933720
25,14,Improv_Melody,54,9999,9999,9999,2869433400
25,14,Improv_Melody,55,9999,9999,9999,2869933144
25,14,Improv_Melody,56,9999,9999,9999,2870433852
25,14,Improv_Melody,57,9999,9999,9999,2870933624
25,14,Improv_Melody,58,9999,9999,9999,2871433296
25,14,Improv_Melody,59,9999,9999,9999,2871934072
25,14,Improv_Melody,60,9999,9999,9999,2872433756
25,14,Improv_Melody,61,9999,9999,9999,2872933448
25,14,Improv_Melody,62,9999,9999,9999,2873433180
25,14,Improv_Melody,63,9999,9999,9999,2873933908
25,14,Improv_Melody,64,9999,9999,9999,2874433636
25,14,Improv_Melody,65,9999,9999,9999,2874933328
25,14,Improv_Melody,66,9999,9999,9999,2875434036
25,14,Improv_Melody,67,9999,9999,9999,2875933768
25,14,Improv_Melody,68,9999,9999,9999,2876433520
25,14,Improv_Melody,69,9999,9999,9999,2876933192
25,14,Improv_Melody,70,9999,9999,9999,2877433972
25,14,Improv_Melody,71,9999,9999,9999,2877933676
25,14,Improv_Melody,72,9999,9999,9999,2878433376
25,14,Improv_Melody,73,9999,9999,9999,2878934112
25,14,Improv_Melody,74,9999,9999,9999,2879433836
25,14,Improv_Melody,75,9999,9999,9999,2879933496
25,14,Improv_Melody,76,9999,9999,9999,2880433256
25,14,Improv_Melody,77,9999,9999,9999,2880934004
25,14,Improv_Melody,78,9999,9999,9999,2881433704
25,14,Improv_Melody,79,9999,9999,9999,2881933384
25,14,Improv_Melody,80,9999,9999,9999,2882433120
25,14,Improv_Melody,81,9999,9999,9999,2882933860
25,14,Improv_Melody,82,9999,9999,9999,2883433540
25,14,Improv_Melody,83,9999,9999,9999,2883933240
25,14,Improv_Melody,84,9999,9999,9999,2884433984
25,14,Improv_Melody,85,9999,9999,9999,2884933684
25,14,Improv_Melody,86,9999,9999,9999,2885433408
25,14,Improv_Melody,87,9999,9999,9999,2885933144
25,14,Improv_Melody,88,9999,9999,9999,2886433872
25,14,Improv_Melody,89,9999,9999,9999,2886933584
25,14,Improv_Melody,90,9999,9999,9999,2887433284
25,14,Improv_Melody,91,9999,9999,9999,2887934032
25,14,Improv_Melody,92,9999,9999,9999,2888433784
25,14,Improv_Melody,93,9999,9999,9999,2888933484
25,14,Improv_Melody,94,9999,9999,9999,2889433160
25,14,Improv_Melody,95,9999,9999,9999,2889933904
25,14,Improv_Melody,96,9999,9999,9999,2890433584
25,14,Improv_Melody,97,9999,9999,9999,2890933304
25,14,Improv_Melody,98,9999,9999,9999,2891434044
25,14,Improv_Melody,99,9999,9999,9999,2891933804
25,14,Improv_Melody,100,9999,9999,9999,2892433504
25,14,Improv_Melody,101,9999,9999,9999,2892933196
25,14,Improv_Melody,102,9999,9999,9999,2893433960
25,14,Improv_Melody,103,9999,9999,9999,2893933640
25,14,Improv_Melody,104,9999,9999,9999,2894433340
25,14,Improv_Melody,105,9999,9999,9999,2894934076
25,14,Improv_Melody,106,9999,9999,9999,2895433844
25,14,Improv_Melody,107,9999,9999,9999,2895933512
25,14,Improv_Melody,108,9999,9999,9999,2896433264
25,14,Improv_Melody,109,9999,9999,9999,2896934008
25,14,Improv_Melody,110,9999,9999,9999,2897433684
25,14,Improv_Melody,111,9999,9999,9999,2897933364
25,14,Improv_Melody,112,9999,9999,9999,2898433136
25,14,Improv_Melody,113,9999,9999,9999,2898933852
25,14,Improv_Melody,114,9999,9999,9999,2899433532
25,14,Improv_Melody,115,9999,9999,9999,2899933232
25,14,Improv_Melody,116,9999,9999,9999,2900434032
25,14,Improv_Melody,117,9999,9999,9999,2900933728
25,14,Improv_Melody,118,9999,9999,9999,2901433428
25,14,Improv_Melody,119,9999,9999,9999,2901933156
25,14,Improv_Melody,120,9999,9999,9999,2902433880
25,14,Improv_Melody,121,9999,9999,9999,2902933552
25,14,Improv_Melody,122,9999,9999,9999,2903433328
25,14,Improv_Melody,123,9999,9999,9999,2903934072
25,14,Improv_Melody,124,9999,9999,9999,2904433752
25,14,Improv_Melody,125,9999,9999,9999,2904933428
25,14,Improv_Melody,126,9999,9999,9999,2905433176
25,14,Improv_Melody,127,9999,9999,9999,2905933908
25,14,Improv_Melody,128,9999,9999,9999,2906433624
25,14,Improv_Melody,129,9999,9999,9999,2906933336
25,14,Improv_Melody,130,9999,9999,9999,2907434080
25,14,Improv_Melody,131,9999,9999,9999,2907933748
25,14,Improv_Melody,132,9999,9999,9999,2908433500
25,14,Improv_Melody,133,9999,9999,9999,2908933180
25,14,Improv_Melody,134,9999,9999,9999,2909433924
25,14,Improv_Melody,135,9999,9999,9999,2909933676
25,14,Improv_Melody,136,9999,9999,9999,2910433352
25,14,Improv_Melody,137,9999,9999,9999,2910934088
25,14,Improv_Melody,138,9999,9999,9999,2911433796
25,14,Improv_Melody,139,9999,9999,9999,2911933532
25,14,Improv_Melody,140,9999,9999,9999,2912433204
25,14,Improv_Melody,141,9999,9999,9999,2912933984
25,14,Improv_Melody,142,9999,9999,9999,2913433664
25,14,Improv_Melody,143,9999,9999,9999,2913933392
25,14,Improv_Melody,144,9999,9999,9999,2914433072
25,14,Improv_Melody,145,9999,9999,9999,2914933832
25,14,Improv_Melody,146,9999,9999,9999,2915433532
25,14,Improv_Melody,147,9999,9999,9999,2915933236
25,14,Improv_Melody,148,9999,9999,9999,2916434032
25,14,Improv_Melody,149,9999,9999,9999,2916933732
25,14,Improv_Melody,150,9999,9999,9999,2917433432
25,14,Improv_Melody,151,9999,9999,9999,2917933132
25,14,Improv_Melody,152,9999,9999,9999,2918433872
25,14,Improv_Melody,153,9999,9999,9999,2918933584
25,14,Improv_Melody,154,9999,9999,9999,2919433264
25,14,Improv_Melody,155,9999,9999,9999,2919934064
25,14,Improv_Melody,156,9999,9999,9999,2920433764
25,14,Improv_Melody,157,9999,9999,9999,2920933464
25,14,Improv_Melody,158,9999,9999,9999,2921433140
25,14,Improv_Melody,159,9999,9999,9999,2921933940
25,14,Improv_Melody,160,9999,9999,9999,2922433620
25,14,Improv_Melody,161,9999,9999,9999,2922933332
