pid,taskRunCount,taskID,taskName,i,channel,pitch,velocity,microseconds
1,1,Ticks_Pract_5,0,5,42,127,84392184
571,1,Ticks_Pract_5,1,5,42,127,84892048
571,1,Ticks_Pract_5,2,5,42,127,85391692
571,1,Ticks_Pract_5,3,5,42,127,85891556
571,1,Ticks_Pract_5,4,1,48,34,86385096
571,1,Ticks_Pract_5,5,5,42,127,86392088
571,1,Ticks_Pract_5,6,1,48,31,86877088
571,1,Ticks_Pract_5,7,5,42,127,86891784
571,1,Ticks_Pract_5,8,1,48,28,87378876
571,1,Ticks_Pract_5,9,5,42,127,87391628
571,1,Ticks_Pract_5,10,1,48,29,87874380
571,1,Ticks_Pract_5,11,5,42,127,87892516
571,1,Ticks_Pract_5,12,1,48,28,88390328
571,1,Ticks_Pract_5,13,5,42,127,88391988
571,1,Ticks_Pract_5,14,5,42,127,88891616
571,1,Ticks_Pract_5,15,1,48,32,88905804
571,1,Ticks_Pract_5,16,5,42,127,89391608
571,1,Ticks_Pract_5,17,1,48,38,89402508
571,1,Ticks_Pract_5,18,5,42,127,89892424
571,1,Ticks_Pract_5,19,1,48,38,89905940
571,1,Ticks_Pract_5,20,5,42,127,90391896
571,1,Ticks_Pract_5,21,1,48,37,90399204
571,1,Ticks_Pract_5,22,5,42,127,90891516
571,1,Ticks_Pract_5,23,1,48,38,90894256
571,1,Ticks_Pract_5,24,5,42,127,91392704
571,1,Ticks_Pract_5,25,1,48,38,91395000
571,1,Ticks_Pract_5,26,1,48,35,91885400
571,1,Ticks_Pract_5,27,5,42,127,91892020
571,1,Ticks_Pract_5,28,1,48,41,92389600
571,1,Ticks_Pract_5,29,5,42,127,92391788
571,1,Ticks_Pract_5,30,1,48,38,92885536
571,1,Ticks_Pract_5,31,5,42,127,92891484
571,1,Ticks_Pract_5,32,1,48,37,93366588
571,1,Ticks_Pract_5,33,5,42,127,93392424
571,1,Ticks_Pract_5,34,1,48,39,93861392
571,1,Ticks_Pract_5,35,5,42,127,93891872
571,1,Ticks_Pract_5,36,1,48,37,94391792
571,1,Ticks_Pract_5,37,5,42,127,94393204
571,1,Ticks_Pract_5,38,5,42,127,94892608
571,1,Ticks_Pract_5,39,1,48,37,94905228
571,1,Ticks_Pract_5,40,1,48,39,95391632
571,1,Ticks_Pract_5,41,5,42,127,95393124
571,1,Ticks_Pract_5,42,1,48,37,95871168
571,1,Ticks_Pract_5,43,5,42,127,95891696
571,1,Ticks_Pract_5,44,1,48,40,96360916
571,1,Ticks_Pract_5,45,5,42,127,96391392
571,1,Ticks_Pract_5,46,5,42,127,96892436
571,1,Ticks_Pract_5,47,1,48,39,96908424
571,1,Ticks_Pract_5,48,1,48,30,97372116
571,1,Ticks_Pract_5,49,5,42,127,97392200
571,1,Ticks_Pract_5,50,1,48,40,97885052
571,1,Ticks_Pract_5,51,5,42,127,97891672
571,1,Ticks_Pract_5,52,1,48,39,98358496
571,1,Ticks_Pract_5,53,5,42,127,98392336
571,1,Ticks_Pract_5,54,1,48,43,98880852
571,1,Ticks_Pract_5,55,5,42,127,98892256
571,1,Ticks_Pract_5,56,1,48,38,99376584
571,1,Ticks_Pract_5,57,5,42,127,99391728
571,1,Ticks_Pract_5,58,1,48,38,99861464
571,1,Ticks_Pract_5,59,5,42,127,99891420
571,1,Ticks_Pract_5,60,1,48,43,100390124
571,1,Ticks_Pract_5,61,5,42,127,100392236
571,1,Ticks_Pract_5,62,5,42,127,100891936
571,1,Ticks_Pract_5,63,1,48,33,100919444
571,1,Ticks_Pract_5,64,5,42,127,101391632
571,1,Ticks_Pract_5,65,1,48,34,101421232
571,1,Ticks_Pract_5,66,1,48,43,101880440
571,1,Ticks_Pract_5,67,5,42,127,101891320
571,1,Ticks_Pract_5,68,1,48,40,102387092
571,1,Ticks_Pract_5,69,5,42,127,102392208
571,1,Ticks_Pract_5,70,1,48,45,102880052
571,1,Ticks_Pract_5,71,5,42,127,102891828
571,1,Ticks_Pract_5,72,1,48,44,103376452
571,1,Ticks_Pract_5,73,5,42,127,103391524
571,1,Ticks_Pract_5,74,5,42,127,103892348
571,1,Ticks_Pract_5,75,1,48,45,103893388
571,1,Ticks_Pract_5,0,9999,9999,9999,84389972
571,1,Ticks_Pract_5,1,9999,9999,9999,84889688
571,1,Ticks_Pract_5,2,9999,9999,9999,85389404
571,1,Ticks_Pract_5,3,9999,9999,9999,85889124
571,1,Ticks_Pract_5,4,9999,9999,9999,86389876
571,1,Ticks_Pract_5,5,9999,9999,9999,86889572
571,1,Ticks_Pract_5,6,9999,9999,9999,87389268
571,1,Ticks_Pract_5,7,9999,9999,9999,87890008
571,1,Ticks_Pract_5,8,9999,9999,9999,88389728
571,1,Ticks_Pract_5,9,9999,9999,9999,88889404
571,1,Ticks_Pract_5,10,9999,9999,9999,89389172
571,1,Ticks_Pract_5,11,9999,9999,9999,89889840
571,1,Ticks_Pract_5,12,9999,9999,9999,90389608
571,1,Ticks_Pract_5,13,9999,9999,9999,90889304
571,1,Ticks_Pract_5,14,9999,9999,9999,91390048
571,1,Ticks_Pract_5,15,9999,9999,9999,91889732
571,1,Ticks_Pract_5,16,9999,9999,9999,92389468
571,1,Ticks_Pract_5,17,9999,9999,9999,92889196
571,1,Ticks_Pract_5,18,9999,9999,9999,93389912
571,1,Ticks_Pract_5,19,9999,9999,9999,93889584
571,1,Ticks_Pract_5,20,9999,9999,9999,94389360
571,1,Ticks_Pract_5,21,9999,9999,9999,94890100
571,1,Ticks_Pract_5,22,9999,9999,9999,95389796
571,1,Ticks_Pract_5,23,9999,9999,9999,95889484
571,1,Ticks_Pract_5,24,9999,9999,9999,96389180
571,1,Ticks_Pract_5,25,9999,9999,9999,96889928
571,1,Ticks_Pract_5,26,9999,9999,9999,97389688
571,1,Ticks_Pract_5,27,9999,9999,9999,97889384
571,1,Ticks_Pract_5,28,9999,9999,9999,98390124
571,1,Ticks_Pract_5,29,9999,9999,9999,98889820
571,1,Ticks_Pract_5,30,9999,9999,9999,99389516
571,1,Ticks_Pract_5,31,9999,9999,9999,99889208
571,1,Ticks_Pract_5,32,9999,9999,9999,100389988
571,1,Ticks_Pract_5,33,9999,9999,9999,100889652
571,1,Ticks_Pract_5,34,9999,9999,9999,101389420
571,1,Ticks_Pract_5,35,9999,9999,9999,101889108
571,1,Ticks_Pract_5,36,9999,9999,9999,102389848
571,1,Ticks_Pract_5,37,9999,9999,9999,102889544
571,1,Ticks_Pract_5,38,9999,9999,9999,103389240
571,1,Ticks_Pract_5,39,9999,9999,9999,103889984
572,0,Ticks_Pract_8,0,5,42,127,145265248
572,0,Ticks_Pract_8,1,5,42,127,146064632
572,0,Ticks_Pract_8,2,5,42,127,146864608
572,0,Ticks_Pract_8,3,1,48,31,146933128
572,0,Ticks_Pract_8,4,5,42,127,147665264
572,0,Ticks_Pract_8,5,1,48,32,147672204
572,0,Ticks_Pract_8,6,1,48,39,148447236
572,0,Ticks_Pract_8,7,5,42,127,148465440
572,0,Ticks_Pract_8,8,5,42,127,149265028
572,0,Ticks_Pract_8,9,1,48,38,149266216
572,0,Ticks_Pract_8,10,5,42,127,150064464
572,0,Ticks_Pract_8,11,1,48,38,150071848
572,0,Ticks_Pract_8,12,5,42,127,150865172
572,0,Ticks_Pract_8,13,1,48,38,150877116
572,0,Ticks_Pract_8,14,5,42,127,151664904
572,0,Ticks_Pract_8,15,1,48,42,151690016
572,0,Ticks_Pract_8,16,5,42,127,152464712
572,0,Ticks_Pract_8,17,1,48,40,152481444
572,0,Ticks_Pract_8,18,1,48,30,153249224
572,0,Ticks_Pract_8,19,5,42,127,153264440
572,0,Ticks_Pract_8,20,1,48,36,154011108
572,0,Ticks_Pract_8,21,5,42,127,154065244
572,0,Ticks_Pract_8,22,5,42,127,154864908
572,0,Ticks_Pract_8,23,1,48,43,154869976
572,0,Ticks_Pract_8,24,5,42,127,155664940
572,0,Ticks_Pract_8,25,1,48,40,155677560
572,0,Ticks_Pract_8,26,5,42,127,156464452
572,0,Ticks_Pract_8,27,1,48,43,156517088
572,0,Ticks_Pract_8,28,5,42,127,157265156
572,0,Ticks_Pract_8,29,1,48,35,157286904
572,0,Ticks_Pract_8,30,1,48,40,158052736
572,0,Ticks_Pract_8,31,5,42,127,158064960
572,0,Ticks_Pract_8,32,5,42,127,158864700
572,0,Ticks_Pract_8,33,1,48,38,158897740
572,0,Ticks_Pract_8,34,5,42,127,159664580
572,0,Ticks_Pract_8,35,1,48,39,159672416
572,0,Ticks_Pract_8,36,5,42,127,160465164
572,0,Ticks_Pract_8,37,1,48,41,160472020
572,0,Ticks_Pract_8,38,5,42,127,161264972
572,0,Ticks_Pract_8,39,1,48,38,161266088
572,0,Ticks_Pract_8,40,5,42,127,162064704
572,0,Ticks_Pract_8,41,1,48,42,162084652
572,0,Ticks_Pract_8,42,5,42,127,162864364
572,0,Ticks_Pract_8,43,1,48,45,162895604
572,0,Ticks_Pract_8,44,5,42,127,163665220
572,0,Ticks_Pract_8,45,1,48,42,163688012
572,0,Ticks_Pract_8,46,1,48,40,164462832
572,0,Ticks_Pract_8,47,5,42,127,164465020
572,0,Ticks_Pract_8,48,5,42,127,165264684
572,0,Ticks_Pract_8,49,1,48,40,165285232
572,0,Ticks_Pract_8,50,5,42,127,166064420
572,0,Ticks_Pract_8,51,1,48,44,166076888
572,0,Ticks_Pract_8,52,5,42,127,166865224
572,0,Ticks_Pract_8,53,1,48,38,166892732
572,0,Ticks_Pract_8,54,1,48,41,167643748
572,0,Ticks_Pract_8,55,5,42,127,167664876
572,0,Ticks_Pract_8,56,5,42,127,168464692
572,0,Ticks_Pract_8,57,1,48,38,168480748
572,0,Ticks_Pract_8,0,9999,9999,9999,145262660
572,0,Ticks_Pract_8,1,9999,9999,9999,146062416
572,0,Ticks_Pract_8,2,9999,9999,9999,146862172
572,0,Ticks_Pract_8,3,9999,9999,9999,147662904
572,0,Ticks_Pract_8,4,9999,9999,9999,148462704
572,0,Ticks_Pract_8,5,9999,9999,9999,149262444
572,0,Ticks_Pract_8,6,9999,9999,9999,150062176
572,0,Ticks_Pract_8,7,9999,9999,9999,150862956
572,0,Ticks_Pract_8,8,9999,9999,9999,151662692
572,0,Ticks_Pract_8,9,9999,9999,9999,152462424
572,0,Ticks_Pract_8,10,9999,9999,9999,153262152
572,0,Ticks_Pract_8,11,9999,9999,9999,154062956
572,0,Ticks_Pract_8,12,9999,9999,9999,154862696
572,0,Ticks_Pract_8,13,9999,9999,9999,155662432
572,0,Ticks_Pract_8,14,9999,9999,9999,156462164
572,0,Ticks_Pract_8,15,9999,9999,9999,157262944
572,0,Ticks_Pract_8,16,9999,9999,9999,158062672
572,0,Ticks_Pract_8,17,9999,9999,9999,158862412
572,0,Ticks_Pract_8,18,9999,9999,9999,159662144
572,0,Ticks_Pract_8,19,9999,9999,9999,160462948
572,0,Ticks_Pract_8,20,9999,9999,9999,161262684
572,0,Ticks_Pract_8,21,9999,9999,9999,162062416
572,0,Ticks_Pract_8,22,9999,9999,9999,162862148
572,0,Ticks_Pract_8,23,9999,9999,9999,163662932
572,0,Ticks_Pract_8,24,9999,9999,9999,164462696
572,0,Ticks_Pract_8,25,9999,9999,9999,165262396
572,0,Ticks_Pract_8,26,9999,9999,9999,166062132
572,0,Ticks_Pract_8,27,9999,9999,9999,166862936
572,0,Ticks_Pract_8,28,9999,9999,9999,167662664
572,0,Ticks_Pract_8,29,9999,9999,9999,168462404
573,4,T1_SMS_5,0,5,42,127,254677348
573,4,T1_SMS_5,1,5,42,127,255177216
573,4,T1_SMS_5,2,5,42,127,255676684
573,4,T1_SMS_5,3,5,42,127,256176624
573,4,T1_SMS_5,4,1,48,33,256648772
573,4,T1_SMS_5,5,5,42,127,256677156
573,4,T1_SMS_5,6,1,48,37,257135152
573,4,T1_SMS_5,7,5,42,127,257176924
573,4,T1_SMS_5,8,1,48,36,257632528
573,4,T1_SMS_5,9,5,42,127,257676620
573,4,T1_SMS_5,10,1,48,38,258147636
573,4,T1_SMS_5,11,5,42,127,258177584
573,4,T1_SMS_5,12,1,48,32,258671640
573,4,T1_SMS_5,13,5,42,127,258676984
573,4,T1_SMS_5,14,1,48,36,259176156
573,4,T1_SMS_5,15,5,42,127,259177728
573,4,T1_SMS_5,16,1,48,35,259667364
573,4,T1_SMS_5,17,5,42,127,259676448
573,4,T1_SMS_5,18,1,48,38,260171844
573,4,T1_SMS_5,19,5,42,127,260177116
573,4,T1_SMS_5,20,1,48,35,260675520
573,4,T1_SMS_5,21,5,42,127,260676884
573,4,T1_SMS_5,22,5,42,127,261176660
573,4,T1_SMS_5,23,1,48,38,261195108
573,4,T1_SMS_5,24,5,42,127,261677624
573,4,T1_SMS_5,25,1,48,36,261694952
573,4,T1_SMS_5,26,5,42,127,262177096
573,4,T1_SMS_5,27,1,48,39,262189268
573,4,T1_SMS_5,28,1,48,39,262669348
573,4,T1_SMS_5,29,5,42,127,262676784
573,4,T1_SMS_5,30,5,42,127,263176636
573,4,T1_SMS_5,31,1,48,43,263179680
573,4,T1_SMS_5,32,5,42,127,263677452
573,4,T1_SMS_5,33,1,48,40,263681992
573,4,T1_SMS_5,34,1,48,40,264173816
573,4,T1_SMS_5,35,5,42,127,264177140
573,4,T1_SMS_5,36,1,48,39,264676240
573,4,T1_SMS_5,37,5,42,127,264677736
573,4,T1_SMS_5,38,1,48,39,265169992
573,4,T1_SMS_5,39,5,42,127,265176604
573,4,T1_SMS_5,40,1,48,41,265663372
573,4,T1_SMS_5,41,5,42,127,265677196
573,4,T1_SMS_5,42,1,48,38,266168304
573,4,T1_SMS_5,43,5,42,127,266176796
573,4,T1_SMS_5,44,1,48,40,266664856
573,4,T1_SMS_5,45,5,42,127,266676712
573,4,T1_SMS_5,46,1,48,41,267175720
573,4,T1_SMS_5,47,5,42,127,267177304
573,4,T1_SMS_5,48,1,48,40,267672628
573,4,T1_SMS_5,49,5,42,127,267676924
573,4,T1_SMS_5,50,1,48,39,268168212
573,4,T1_SMS_5,51,5,42,127,268176696
573,4,T1_SMS_5,52,5,42,127,268676544
573,4,T1_SMS_5,53,1,48,39,268677436
573,4,T1_SMS_5,54,5,42,127,269177288
573,4,T1_SMS_5,55,1,48,41,269196936
573,4,T1_SMS_5,56,1,48,41,269664148
573,4,T1_SMS_5,57,5,42,127,269676976
573,4,T1_SMS_5,58,1,48,37,270149040
573,4,T1_SMS_5,59,5,42,127,270176748
573,4,T1_SMS_5,60,1,48,41,270666680
573,4,T1_SMS_5,61,5,42,127,270677340
573,4,T1_SMS_5,62,5,42,127,271177192
573,4,T1_SMS_5,63,1,48,43,271178156
573,4,T1_SMS_5,64,1,48,40,271674224
573,4,T1_SMS_5,65,5,42,127,271676732
573,4,T1_SMS_5,66,5,42,127,272176356
573,4,T1_SMS_5,67,1,48,42,272188296
573,4,T1_SMS_5,68,5,42,127,272677172
573,4,T1_SMS_5,69,1,48,42,272680812
573,4,T1_SMS_5,70,1,48,40,273172408
573,4,T1_SMS_5,71,5,42,127,273177156
573,4,T1_SMS_5,72,1,48,39,273669636
573,4,T1_SMS_5,73,5,42,127,273676628
573,4,T1_SMS_5,74,1,48,41,274167240
573,4,T1_SMS_5,75,5,42,127,274177448
573,4,T1_SMS_5,76,1,48,41,274656984
573,4,T1_SMS_5,77,5,42,127,274677216
573,4,T1_SMS_5,78,1,48,46,275161096
573,4,T1_SMS_5,79,5,42,127,275176760
573,4,T1_SMS_5,80,1,48,43,275665348
573,4,T1_SMS_5,81,5,42,127,275676456
573,4,T1_SMS_5,82,1,48,42,276173120
573,4,T1_SMS_5,83,5,42,127,276177272
573,4,T1_SMS_5,84,1,48,44,276661572
573,4,T1_SMS_5,85,5,42,127,276677016
573,4,T1_SMS_5,86,1,48,44,277147280
573,4,T1_SMS_5,87,5,42,127,277176712
573,4,T1_SMS_5,88,1,48,44,277670536
573,4,T1_SMS_5,89,5,42,127,277677376
573,4,T1_SMS_5,90,1,48,43,278172472
573,4,T1_SMS_5,91,5,42,127,278177296
573,4,T1_SMS_5,92,1,48,44,278671868
573,4,T1_SMS_5,93,5,42,127,278676768
573,4,T1_SMS_5,94,5,42,127,279176696
573,4,T1_SMS_5,95,1,48,42,279181008
573,4,T1_SMS_5,96,5,42,127,279677288
573,4,T1_SMS_5,97,1,48,43,279686244
573,4,T1_SMS_5,98,1,48,45,280166844
573,4,T1_SMS_5,99,5,42,127,280177196
573,4,T1_SMS_5,100,5,42,127,280676752
573,4,T1_SMS_5,101,1,48,44,280684280
573,4,T1_SMS_5,102,1,48,46,281161592
573,4,T1_SMS_5,103,5,42,127,281176516
573,4,T1_SMS_5,104,1,48,47,281653660
573,4,T1_SMS_5,105,5,42,127,281677184
573,4,T1_SMS_5,106,1,48,40,282163900
573,4,T1_SMS_5,107,5,42,127,282176952
573,4,T1_SMS_5,108,5,42,127,282676580
573,4,T1_SMS_5,109,1,48,46,282682912
573,4,T1_SMS_5,110,1,48,45,283172640
573,4,T1_SMS_5,111,5,42,127,283177388
573,4,T1_SMS_5,112,1,48,47,283664484
573,4,T1_SMS_5,113,5,42,127,283677084
573,4,T1_SMS_5,114,5,42,127,284176932
573,4,T1_SMS_5,115,1,48,44,284181472
573,4,T1_SMS_5,116,5,42,127,284676408
573,4,T1_SMS_5,117,1,48,42,284682664
573,4,T1_SMS_5,118,1,48,47,285162520
573,4,T1_SMS_5,119,5,42,127,285177140
573,4,T1_SMS_5,120,1,48,47,285673956
573,4,T1_SMS_5,121,5,42,127,285676984
573,4,T1_SMS_5,122,1,48,45,286160268
573,4,T1_SMS_5,123,5,42,127,286176608
573,4,T1_SMS_5,124,1,48,45,286663176
573,4,T1_SMS_5,125,5,42,127,286677348
573,4,T1_SMS_5,126,1,48,46,287171820
573,4,T1_SMS_5,127,5,42,127,287177192
573,4,T1_SMS_5,128,1,48,48,287662912
573,4,T1_SMS_5,129,5,42,127,287677012
573,4,T1_SMS_5,130,1,48,46,288173232
573,4,T1_SMS_5,131,5,42,127,288176480
573,4,T1_SMS_5,132,5,42,127,288677080
573,4,T1_SMS_5,133,1,48,48,288678568
573,4,T1_SMS_5,134,5,42,127,289177072
573,4,T1_SMS_5,135,1,48,45,289193580
573,4,T1_SMS_5,136,5,42,127,289677140
573,4,T1_SMS_5,137,1,48,47,289692452
573,4,T1_SMS_5,138,1,48,45,290168420
573,4,T1_SMS_5,139,5,42,127,290177284
573,4,T1_SMS_5,140,1,48,43,290657644
573,4,T1_SMS_5,141,5,42,127,290677128
573,4,T1_SMS_5,142,1,48,45,291172972
573,4,T1_SMS_5,143,5,42,127,291177044
573,4,T1_SMS_5,144,1,48,44,291673416
573,4,T1_SMS_5,145,5,42,127,291676592
573,4,T1_SMS_5,146,1,48,44,292169296
573,4,T1_SMS_5,147,5,42,127,292177260
573,4,T1_SMS_5,148,1,48,46,292673324
573,4,T1_SMS_5,149,5,42,127,292677028
573,4,T1_SMS_5,150,5,42,127,293176952
573,4,T1_SMS_5,151,1,48,49,293206476
573,4,T1_SMS_5,152,5,42,127,293677396
573,4,T1_SMS_5,153,1,48,49,293698536
573,4,T1_SMS_5,154,1,48,45,294171364
573,4,T1_SMS_5,155,5,42,127,294177084
573,4,T1_SMS_5,156,1,48,44,294669864
573,4,T1_SMS_5,157,5,42,127,294676928
573,4,T1_SMS_5,158,1,48,47,295170532
573,4,T1_SMS_5,159,5,42,127,295176772
573,4,T1_SMS_5,160,5,42,127,295677372
573,4,T1_SMS_5,161,1,48,45,295681984
573,4,T1_SMS_5,162,5,42,127,296177068
573,4,T1_SMS_5,163,1,48,47,296195064
573,4,T1_SMS_5,164,5,42,127,296676984
573,4,T1_SMS_5,165,1,48,47,296712792
573,4,T1_SMS_5,166,5,42,127,297176756
573,4,T1_SMS_5,167,1,48,45,297185256
573,4,T1_SMS_5,168,1,48,46,297675756
573,4,T1_SMS_5,169,5,42,127,297677196
573,4,T1_SMS_5,170,1,48,46,298166956
573,4,T1_SMS_5,171,5,42,127,298176792
573,4,T1_SMS_5,172,1,48,43,298673604
573,4,T1_SMS_5,173,5,42,127,298676856
573,4,T1_SMS_5,174,5,42,127,299177308
573,4,T1_SMS_5,175,1,48,42,299188580
573,4,T1_SMS_5,176,1,48,42,299667468
573,4,T1_SMS_5,177,5,42,127,299676996
573,4,T1_SMS_5,178,1,48,40,300158256
573,4,T1_SMS_5,179,5,42,127,300176840
573,4,T1_SMS_5,180,1,48,42,300674108
573,4,T1_SMS_5,181,5,42,127,300676684
573,4,T1_SMS_5,182,1,48,45,301167368
573,4,T1_SMS_5,183,5,42,127,301177052
573,4,T1_SMS_5,184,1,48,44,301672524
573,4,T1_SMS_5,185,5,42,127,301677044
573,4,T1_SMS_5,186,1,48,41,302160176
573,4,T1_SMS_5,187,5,42,127,302176816
573,4,T1_SMS_5,188,1,48,39,302669296
573,4,T1_SMS_5,189,5,42,127,302677260
573,4,T1_SMS_5,190,5,42,127,303177036
573,4,T1_SMS_5,191,1,48,41,303178596
573,4,T1_SMS_5,192,5,42,127,303676732
573,4,T1_SMS_5,193,1,48,38,303689420
573,4,T1_SMS_5,194,5,42,127,304176572
573,4,T1_SMS_5,195,1,48,40,304193976
573,4,T1_SMS_5,196,1,48,44,304670612
573,4,T1_SMS_5,197,5,42,127,304677160
573,4,T1_SMS_5,198,5,42,127,305177008
573,4,T1_SMS_5,199,1,48,41,305183416
573,4,T1_SMS_5,200,5,42,127,305676632
573,4,T1_SMS_5,201,1,48,39,305680120
573,4,T1_SMS_5,202,5,42,127,306177448
573,4,T1_SMS_5,203,1,48,44,306194324
573,4,T1_SMS_5,204,5,42,127,306677140
573,4,T1_SMS_5,205,1,48,43,306709584
573,4,T1_SMS_5,206,5,42,127,307176764
573,4,T1_SMS_5,207,1,48,38,307192668
573,4,T1_SMS_5,208,5,42,127,307676608
573,4,T1_SMS_5,209,1,48,38,307683616
573,4,T1_SMS_5,210,1,48,34,308158132
573,4,T1_SMS_5,211,5,42,127,308177120
573,4,T1_SMS_5,212,1,48,40,308652296
573,4,T1_SMS_5,213,5,42,127,308676964
573,4,T1_SMS_5,214,1,48,39,309150712
573,4,T1_SMS_5,215,5,42,127,309176632
573,4,T1_SMS_5,216,1,48,38,309656020
573,4,T1_SMS_5,217,5,42,127,309677448
573,4,T1_SMS_5,218,1,48,40,310148388
573,4,T1_SMS_5,219,5,42,127,310177220
573,4,T1_SMS_5,220,1,48,40,310635288
573,4,T1_SMS_5,221,5,42,127,310676912
573,4,T1_SMS_5,222,1,48,37,311136252
573,4,T1_SMS_5,223,5,42,127,311176460
573,4,T1_SMS_5,224,1,48,35,311636400
573,4,T1_SMS_5,225,5,42,127,311677428
573,4,T1_SMS_5,226,1,48,35,312126600
573,4,T1_SMS_5,227,5,42,127,312177048
573,4,T1_SMS_5,228,1,48,38,312632200
573,4,T1_SMS_5,229,5,42,127,312676596
573,4,T1_SMS_5,230,1,48,37,313128984
573,4,T1_SMS_5,231,5,42,127,313176436
573,4,T1_SMS_5,232,1,48,35,313626884
573,4,T1_SMS_5,233,5,42,127,313677032
573,4,T1_SMS_5,234,1,48,39,314135544
573,4,T1_SMS_5,235,5,42,127,314176876
573,4,T1_SMS_5,236,1,48,40,314662924
573,4,T1_SMS_5,237,5,42,127,314676496
573,4,T1_SMS_5,238,1,48,32,315169800
573,4,T1_SMS_5,239,5,42,127,315177608
573,4,T1_SMS_5,240,1,48,37,315672404
573,4,T1_SMS_5,241,5,42,127,315677156
573,4,T1_SMS_5,242,1,48,36,316153624
573,4,T1_SMS_5,243,5,42,127,316176700
573,4,T1_SMS_5,244,1,48,34,316646288
573,4,T1_SMS_5,245,5,42,127,316676544
573,4,T1_SMS_5,246,1,48,35,317162668
573,4,T1_SMS_5,247,5,42,127,317177656
573,4,T1_SMS_5,248,5,42,127,317676840
573,4,T1_SMS_5,249,1,48,35,317677732
573,4,T1_SMS_5,250,1,48,32,318165272
573,4,T1_SMS_5,251,5,42,127,318176604
573,4,T1_SMS_5,252,1,48,37,318665564
573,4,T1_SMS_5,253,5,42,127,318677568
573,4,T1_SMS_5,254,1,48,34,319166280
573,4,T1_SMS_5,255,5,42,127,319177340
573,4,T1_SMS_5,256,1,48,33,319653336
573,4,T1_SMS_5,0,9999,9999,9999,254675060
573,4,T1_SMS_5,1,9999,9999,9999,255174776
573,4,T1_SMS_5,2,9999,9999,9999,255674468
573,4,T1_SMS_5,3,9999,9999,9999,256174184
573,4,T1_SMS_5,4,9999,9999,9999,256674868
573,4,T1_SMS_5,5,9999,9999,9999,257174636
573,4,T1_SMS_5,6,9999,9999,9999,257674332
573,4,T1_SMS_5,7,9999,9999,9999,258175072
573,4,T1_SMS_5,8,9999,9999,9999,258674768
573,4,T1_SMS_5,9,9999,9999,9999,259174472
573,4,T1_SMS_5,10,9999,9999,9999,259674160
573,4,T1_SMS_5,11,9999,9999,9999,260174900
573,4,T1_SMS_5,12,9999,9999,9999,260674676
573,4,T1_SMS_5,13,9999,9999,9999,261174368
573,4,T1_SMS_5,14,9999,9999,9999,261675112
573,4,T1_SMS_5,15,9999,9999,9999,262174808
573,4,T1_SMS_5,16,9999,9999,9999,262674496
573,4,T1_SMS_5,17,9999,9999,9999,263174196
573,4,T1_SMS_5,18,9999,9999,9999,263674940
573,4,T1_SMS_5,19,9999,9999,9999,264174704
573,4,T1_SMS_5,20,9999,9999,9999,264674404
573,4,T1_SMS_5,21,9999,9999,9999,265174092
573,4,T1_SMS_5,22,9999,9999,9999,265674832
573,4,T1_SMS_5,23,9999,9999,9999,266174580
573,4,T1_SMS_5,24,9999,9999,9999,266674272
573,4,T1_SMS_5,25,9999,9999,9999,267175028
573,4,T1_SMS_5,26,9999,9999,9999,267674712
573,4,T1_SMS_5,27,9999,9999,9999,268174404
573,4,T1_SMS_5,28,9999,9999,9999,268674108
573,4,T1_SMS_5,29,9999,9999,9999,269174848
573,4,T1_SMS_5,30,9999,9999,9999,269674612
573,4,T1_SMS_5,31,9999,9999,9999,270174308
573,4,T1_SMS_5,32,9999,9999,9999,270675048
573,4,T1_SMS_5,33,9999,9999,9999,271174752
573,4,T1_SMS_5,34,9999,9999,9999,271674440
573,4,T1_SMS_5,35,9999,9999,9999,272174140
573,4,T1_SMS_5,36,9999,9999,9999,272674884
573,4,T1_SMS_5,37,9999,9999,9999,273174644
573,4,T1_SMS_5,38,9999,9999,9999,273674340
573,4,T1_SMS_5,39,9999,9999,9999,274175084
573,4,T1_SMS_5,40,9999,9999,9999,274674776
573,4,T1_SMS_5,41,9999,9999,9999,275174472
573,4,T1_SMS_5,42,9999,9999,9999,275674168
573,4,T1_SMS_5,43,9999,9999,9999,276174908
573,4,T1_SMS_5,44,9999,9999,9999,276674652
573,4,T1_SMS_5,45,9999,9999,9999,277174348
573,4,T1_SMS_5,46,9999,9999,9999,277675088
573,4,T1_SMS_5,47,9999,9999,9999,278174784
573,4,T1_SMS_5,48,9999,9999,9999,278674552
573,4,T1_SMS_5,49,9999,9999,9999,279174256
573,4,T1_SMS_5,50,9999,9999,9999,279674996
573,4,T1_SMS_5,51,9999,9999,9999,280174684
573,4,T1_SMS_5,52,9999,9999,9999,280674388
573,4,T1_SMS_5,53,9999,9999,9999,281174076
573,4,T1_SMS_5,54,9999,9999,9999,281674816
573,4,T1_SMS_5,55,9999,9999,9999,282174512
573,4,T1_SMS_5,56,9999,9999,9999,282674288
573,4,T1_SMS_5,57,9999,9999,9999,283175024
573,4,T1_SMS_5,58,9999,9999,9999,283674720
573,4,T1_SMS_5,59,9999,9999,9999,284174420
573,4,T1_SMS_5,60,9999,9999,9999,284674116
573,4,T1_SMS_5,61,9999,9999,9999,285174852
573,4,T1_SMS_5,62,9999,9999,9999,285674544
573,4,T1_SMS_5,63,9999,9999,9999,286174316
573,4,T1_SMS_5,64,9999,9999,9999,286675056
573,4,T1_SMS_5,65,9999,9999,9999,287174752
573,4,T1_SMS_5,66,9999,9999,9999,287674424
573,4,T1_SMS_5,67,9999,9999,9999,288174192
573,4,T1_SMS_5,68,9999,9999,9999,288674864
573,4,T1_SMS_5,69,9999,9999,9999,289174632
573,4,T1_SMS_5,70,9999,9999,9999,289674332
573,4,T1_SMS_5,71,9999,9999,9999,290175068
573,4,T1_SMS_5,72,9999,9999,9999,290674760
573,4,T1_SMS_5,73,9999,9999,9999,291174460
573,4,T1_SMS_5,74,9999,9999,9999,291674228
573,4,T1_SMS_5,75,9999,9999,9999,292174968
573,4,T1_SMS_5,76,9999,9999,9999,292674664
573,4,T1_SMS_5,77,9999,9999,9999,293174364
573,4,T1_SMS_5,78,9999,9999,9999,293675108
573,4,T1_SMS_5,79,9999,9999,9999,294174796
573,4,T1_SMS_5,80,9999,9999,9999,294674492
573,4,T1_SMS_5,81,9999,9999,9999,295174260
573,4,T1_SMS_5,82,9999,9999,9999,295674932
573,4,T1_SMS_5,83,9999,9999,9999,296174704
573,4,T1_SMS_5,84,9999,9999,9999,296674400
573,4,T1_SMS_5,85,9999,9999,9999,297174096
573,4,T1_SMS_5,86,9999,9999,9999,297674836
573,4,T1_SMS_5,87,9999,9999,9999,298174576
573,4,T1_SMS_5,88,9999,9999,9999,298674268
573,4,T1_SMS_5,89,9999,9999,9999,299175020
573,4,T1_SMS_5,90,9999,9999,9999,299674708
573,4,T1_SMS_5,91,9999,9999,9999,300174400
573,4,T1_SMS_5,92,9999,9999,9999,300674172
573,4,T1_SMS_5,93,9999,9999,9999,301174836
573,4,T1_SMS_5,94,9999,9999,9999,301674608
573,4,T1_SMS_5,95,9999,9999,9999,302174304
573,4,T1_SMS_5,96,9999,9999,9999,302675044
573,4,T1_SMS_5,97,9999,9999,9999,303174744
573,4,T1_SMS_5,98,9999,9999,9999,303674440
573,4,T1_SMS_5,99,9999,9999,9999,304174132
573,4,T1_SMS_5,100,9999,9999,9999,304674868
573,4,T1_SMS_5,101,9999,9999,9999,305174644
573,4,T1_SMS_5,102,9999,9999,9999,305674340
573,4,T1_SMS_5,103,9999,9999,9999,306175084
573,4,T1_SMS_5,104,9999,9999,9999,306674776
573,4,T1_SMS_5,105,9999,9999,9999,307174472
573,4,T1_SMS_5,106,9999,9999,9999,307674168
573,4,T1_SMS_5,107,9999,9999,9999,308174904
573,4,T1_SMS_5,108,9999,9999,9999,308674648
573,4,T1_SMS_5,109,9999,9999,9999,309174340
573,4,T1_SMS_5,110,9999,9999,9999,309675084
573,4,T1_SMS_5,111,9999,9999,9999,310174780
573,4,T1_SMS_5,112,9999,9999,9999,310674548
573,4,T1_SMS_5,113,9999,9999,9999,311174244
573,4,T1_SMS_5,114,9999,9999,9999,311674988
573,4,T1_SMS_5,115,9999,9999,9999,312174684
573,4,T1_SMS_5,116,9999,9999,9999,312674380
573,4,T1_SMS_5,117,9999,9999,9999,313174072
573,4,T1_SMS_5,118,9999,9999,9999,313674816
573,4,T1_SMS_5,119,9999,9999,9999,314174584
573,4,T1_SMS_5,120,9999,9999,9999,314674280
573,4,T1_SMS_5,121,9999,9999,9999,315175020
573,4,T1_SMS_5,122,9999,9999,9999,315674716
573,4,T1_SMS_5,123,9999,9999,9999,316174412
573,4,T1_SMS_5,124,9999,9999,9999,316674108
573,4,T1_SMS_5,125,9999,9999,9999,317174848
573,4,T1_SMS_5,126,9999,9999,9999,317674552
573,4,T1_SMS_5,127,9999,9999,9999,318174316
573,4,T1_SMS_5,128,9999,9999,9999,318675056
573,4,T1_SMS_5,129,9999,9999,9999,319174752
574,2,T1_SMS_8,0,5,42,127,362066500
574,2,T1_SMS_8,1,5,42,127,362866036
574,2,T1_SMS_8,2,5,42,127,363665640
574,2,T1_SMS_8,3,5,42,127,364465544
574,2,T1_SMS_8,4,1,48,38,365245740
574,2,T1_SMS_8,5,5,42,127,365266364
574,2,T1_SMS_8,6,1,48,32,366044076
574,2,T1_SMS_8,7,5,42,127,366066324
574,2,T1_SMS_8,8,1,48,33,366848080
574,2,T1_SMS_8,9,5,42,127,366865760
574,2,T1_SMS_8,10,5,42,127,367665572
574,2,T1_SMS_8,11,1,48,34,367703180
574,2,T1_SMS_8,12,5,42,127,368466204
574,2,T1_SMS_8,13,1,48,30,368495056
574,2,T1_SMS_8,14,1,48,27,369248096
574,2,T1_SMS_8,15,5,42,127,369266080
574,2,T1_SMS_8,16,5,42,127,370065896
574,2,T1_SMS_8,17,1,48,38,370072084
574,2,T1_SMS_8,18,5,42,127,370865480
574,2,T1_SMS_8,19,1,48,35,370885452
574,2,T1_SMS_8,20,1,48,37,371653600
574,2,T1_SMS_8,21,5,42,127,371666276
574,2,T1_SMS_8,22,1,48,32,372457608
574,2,T1_SMS_8,23,5,42,127,372466160
574,2,T1_SMS_8,24,1,48,31,373250680
574,2,T1_SMS_8,25,5,42,127,373265968
574,2,T1_SMS_8,26,1,48,34,374021984
574,2,T1_SMS_8,27,5,42,127,374065628
574,2,T1_SMS_8,28,1,48,32,374834364
574,2,T1_SMS_8,29,5,42,127,374866332
574,2,T1_SMS_8,30,1,48,30,375658856
574,2,T1_SMS_8,31,5,42,127,375665992
574,2,T1_SMS_8,32,1,48,34,376440112
574,2,T1_SMS_8,33,5,42,127,376465872
574,2,T1_SMS_8,34,1,48,32,377251736
574,2,T1_SMS_8,35,5,42,127,377265384
574,2,T1_SMS_8,36,5,42,127,378066268
574,2,T1_SMS_8,37,1,48,29,378074848
574,2,T1_SMS_8,38,1,48,37,378849808
574,2,T1_SMS_8,39,5,42,127,378865996
574,2,T1_SMS_8,40,1,48,30,379647596
574,2,T1_SMS_8,41,5,42,127,379665876
574,2,T1_SMS_8,42,1,48,30,380450768
574,2,T1_SMS_8,43,5,42,127,380465464
574,2,T1_SMS_8,44,1,48,30,381241752
574,2,T1_SMS_8,45,5,42,127,381266316
574,2,T1_SMS_8,46,1,48,35,382055992
574,2,T1_SMS_8,47,5,42,127,382065976
574,2,T1_SMS_8,48,1,48,36,382857000
574,2,T1_SMS_8,49,5,42,127,382865932
574,2,T1_SMS_8,50,5,42,127,383665448
574,2,T1_SMS_8,51,1,48,35,383677024
574,2,T1_SMS_8,52,1,48,37,384449760
574,2,T1_SMS_8,53,5,42,127,384466244
574,2,T1_SMS_8,54,1,48,29,385236180
574,2,T1_SMS_8,55,5,42,127,385265980
574,2,T1_SMS_8,56,1,48,31,386024840
574,2,T1_SMS_8,57,5,42,127,386065936
574,2,T1_SMS_8,58,5,42,127,386865604
574,2,T1_SMS_8,59,1,48,33,386868652
574,2,T1_SMS_8,60,5,42,127,387666160
574,2,T1_SMS_8,61,1,48,27,387688952
574,2,T1_SMS_8,62,1,48,32,388459344
574,2,T1_SMS_8,63,5,42,127,388465960
574,2,T1_SMS_8,64,1,48,34,389232080
574,2,T1_SMS_8,65,5,42,127,389265772
574,2,T1_SMS_8,66,1,48,34,390041532
574,2,T1_SMS_8,67,5,42,127,390065652
574,2,T1_SMS_8,68,1,48,36,390834084
574,2,T1_SMS_8,69,5,42,127,390866232
574,2,T1_SMS_8,70,1,48,31,391660252
574,2,T1_SMS_8,71,5,42,127,391665968
574,2,T1_SMS_8,72,5,42,127,392465860
574,2,T1_SMS_8,73,1,48,34,392474512
574,2,T1_SMS_8,74,5,42,127,393265592
574,2,T1_SMS_8,75,1,48,29,393272680
574,2,T1_SMS_8,76,1,48,30,394056608
574,2,T1_SMS_8,77,5,42,127,394066216
574,2,T1_SMS_8,78,5,42,127,394865960
574,2,T1_SMS_8,79,1,48,31,394890472
574,2,T1_SMS_8,80,5,42,127,395665764
574,2,T1_SMS_8,81,1,48,37,395692524
574,2,T1_SMS_8,82,5,42,127,396465572
574,2,T1_SMS_8,83,1,48,32,396489812
574,2,T1_SMS_8,84,5,42,127,397266304
574,2,T1_SMS_8,85,1,48,35,397280940
574,2,T1_SMS_8,86,5,42,127,398065888
574,2,T1_SMS_8,87,1,48,32,398066856
574,2,T1_SMS_8,88,5,42,127,398865844
574,2,T1_SMS_8,89,1,48,31,398889756
574,2,T1_SMS_8,90,5,42,127,399665648
574,2,T1_SMS_8,91,1,48,33,399722552
574,2,T1_SMS_8,92,5,42,127,400466356
574,2,T1_SMS_8,93,1,48,35,400485328
574,2,T1_SMS_8,94,5,42,127,401265940
574,2,T1_SMS_8,95,1,48,33,401283272
574,2,T1_SMS_8,96,5,42,127,402065824
574,2,T1_SMS_8,97,1,48,35,402071636
574,2,T1_SMS_8,98,1,48,32,402857588
574,2,T1_SMS_8,99,5,42,127,402865624
574,2,T1_SMS_8,100,5,42,127,403666360
574,2,T1_SMS_8,101,1,48,35,403684888
574,2,T1_SMS_8,102,5,42,127,404466020
574,2,T1_SMS_8,103,1,48,32,404490080
574,2,T1_SMS_8,104,5,42,127,405265752
574,2,T1_SMS_8,105,1,48,32,405267392
574,2,T1_SMS_8,106,1,48,36,406061336
574,2,T1_SMS_8,107,5,42,127,406065704
574,2,T1_SMS_8,108,5,42,127,406866416
574,2,T1_SMS_8,109,1,48,30,406881356
574,2,T1_SMS_8,110,5,42,127,407666220
574,2,T1_SMS_8,111,1,48,35,407697392
574,2,T1_SMS_8,112,5,42,127,408465732
574,2,T1_SMS_8,113,1,48,31,408484408
574,2,T1_SMS_8,114,5,42,127,409265540
574,2,T1_SMS_8,115,1,48,33,409280352
574,2,T1_SMS_8,116,5,42,127,410066344
574,2,T1_SMS_8,117,1,48,32,410091684
574,2,T1_SMS_8,118,5,42,127,410865932
574,2,T1_SMS_8,119,1,48,35,410867872
574,2,T1_SMS_8,120,5,42,127,411665888
574,2,T1_SMS_8,121,1,48,31,411698028
574,2,T1_SMS_8,122,5,42,127,412465472
574,2,T1_SMS_8,123,1,48,35,412479288
574,2,T1_SMS_8,124,5,42,127,413266176
574,2,T1_SMS_8,125,1,48,29,413280892
574,2,T1_SMS_8,126,5,42,127,414065984
574,2,T1_SMS_8,127,1,48,30,414088704
574,2,T1_SMS_8,128,5,42,127,414865716
574,2,T1_SMS_8,129,1,48,31,414879912
574,2,T1_SMS_8,130,5,42,127,415665524
574,2,T1_SMS_8,131,1,48,35,415669240
574,2,T1_SMS_8,132,1,48,40,416459188
574,2,T1_SMS_8,133,5,42,127,416466396
574,2,T1_SMS_8,134,5,42,127,417266064
574,2,T1_SMS_8,135,1,48,33,417288632
574,2,T1_SMS_8,136,5,42,127,418065724
574,2,T1_SMS_8,137,1,48,38,418083800
574,2,T1_SMS_8,138,5,42,127,418865608
574,2,T1_SMS_8,139,1,48,35,418869628
574,2,T1_SMS_8,140,5,42,127,419666312
574,2,T1_SMS_8,141,1,48,32,419671900
574,2,T1_SMS_8,142,5,42,127,420465972
574,2,T1_SMS_8,143,1,48,33,420469392
574,2,T1_SMS_8,144,1,48,30,421260132
574,2,T1_SMS_8,145,5,42,127,421265700
574,2,T1_SMS_8,146,1,48,32,422005788
574,2,T1_SMS_8,147,5,42,127,422065508
574,2,T1_SMS_8,148,1,48,29,422818988
574,2,T1_SMS_8,149,5,42,127,422866240
574,2,T1_SMS_8,150,1,48,31,423658084
574,2,T1_SMS_8,151,5,42,127,423666120
574,2,T1_SMS_8,152,1,48,32,424443752
574,2,T1_SMS_8,153,5,42,127,424465780
574,2,T1_SMS_8,154,1,48,29,425235788
574,2,T1_SMS_8,155,5,42,127,425265364
574,2,T1_SMS_8,156,1,48,35,426043452
574,2,T1_SMS_8,157,5,42,127,426066220
574,2,T1_SMS_8,158,1,48,35,426831664
574,2,T1_SMS_8,159,5,42,127,426866104
574,2,T1_SMS_8,160,1,48,32,427641120
574,2,T1_SMS_8,161,5,42,127,427665836
574,2,T1_SMS_8,162,1,48,33,428460376
574,2,T1_SMS_8,163,5,42,127,428465644
574,2,T1_SMS_8,164,5,42,127,429266308
574,2,T1_SMS_8,165,1,48,30,429277436
574,2,T1_SMS_8,166,5,42,127,430065964
574,2,T1_SMS_8,167,1,48,30,430115088
574,2,T1_SMS_8,168,5,42,127,430865924
574,2,T1_SMS_8,169,1,48,33,430877348
574,2,T1_SMS_8,170,1,48,31,431665056
574,2,T1_SMS_8,171,5,42,127,431666624
574,2,T1_SMS_8,172,1,48,31,432461536
574,2,T1_SMS_8,173,5,42,127,432466204
574,2,T1_SMS_8,174,5,42,127,433266096
574,2,T1_SMS_8,175,1,48,32,433276764
574,2,T1_SMS_8,176,5,42,127,434065976
574,2,T1_SMS_8,177,1,48,31,434081064
574,2,T1_SMS_8,178,5,42,127,434865488
574,2,T1_SMS_8,179,1,48,35,434876232
574,2,T1_SMS_8,180,5,42,127,435666140
574,2,T1_SMS_8,181,1,48,31,435682576
574,2,T1_SMS_8,182,1,48,33,436461496
574,2,T1_SMS_8,183,5,42,127,436466164
574,2,T1_SMS_8,184,1,48,38,437249712
574,2,T1_SMS_8,185,5,42,127,437265900
574,2,T1_SMS_8,186,1,48,24,438037632
574,2,T1_SMS_8,187,5,42,127,438065856
574,2,T1_SMS_8,188,1,48,29,438810884
574,2,T1_SMS_8,189,5,42,127,438866264
574,2,T1_SMS_8,190,5,42,127,439666152
574,2,T1_SMS_8,191,1,48,25,439704280
574,2,T1_SMS_8,192,5,42,127,440465740
574,2,T1_SMS_8,193,1,48,30,440470580
574,2,T1_SMS_8,194,5,42,127,441265768
574,2,T1_SMS_8,195,1,48,26,441297492
574,2,T1_SMS_8,196,1,48,28,442026716
574,2,T1_SMS_8,197,5,42,127,442066196
574,2,T1_SMS_8,198,1,48,29,442840392
574,2,T1_SMS_8,199,5,42,127,442866152
574,2,T1_SMS_8,200,1,48,32,443618732
574,2,T1_SMS_8,201,5,42,127,443665736
574,2,T1_SMS_8,202,1,48,30,444464800
574,2,T1_SMS_8,203,5,42,127,444466140
574,2,T1_SMS_8,204,1,48,30,445264820
574,2,T1_SMS_8,205,5,42,127,445266404
574,2,T1_SMS_8,206,1,48,29,446040820
574,2,T1_SMS_8,207,5,42,127,446066136
574,2,T1_SMS_8,208,1,48,27,446841752
574,2,T1_SMS_8,209,5,42,127,446865796
574,2,T1_SMS_8,210,1,48,32,447655100
574,2,T1_SMS_8,211,5,42,127,447665452
574,2,T1_SMS_8,212,1,48,31,448458824
574,2,T1_SMS_8,213,5,42,127,448466408
574,2,T1_SMS_8,214,1,48,33,449261776
574,2,T1_SMS_8,215,5,42,127,449266140
574,2,T1_SMS_8,216,1,48,31,450035400
574,2,T1_SMS_8,217,5,42,127,450065652
574,2,T1_SMS_8,218,1,48,34,450844332
574,2,T1_SMS_8,219,5,42,127,450865384
574,2,T1_SMS_8,220,1,48,37,451660296
574,2,T1_SMS_8,221,5,42,127,451666536
574,2,T1_SMS_8,222,5,42,127,452465980
574,2,T1_SMS_8,223,1,48,35,452481664
574,2,T1_SMS_8,224,5,42,127,453265640
574,2,T1_SMS_8,225,1,48,33,453271752
574,2,T1_SMS_8,226,1,48,32,454052168
574,2,T1_SMS_8,227,5,42,127,454065512
574,2,T1_SMS_8,228,1,48,29,454828488
574,2,T1_SMS_8,229,5,42,127,454866616
574,2,T1_SMS_8,230,1,48,33,455635500
574,2,T1_SMS_8,231,5,42,127,455665976
574,2,T1_SMS_8,232,1,48,28,456430372
574,2,T1_SMS_8,233,5,42,127,456465708
574,2,T1_SMS_8,234,1,48,28,457258904
574,2,T1_SMS_8,235,5,42,127,457265368
574,2,T1_SMS_8,0,9999,9999,9999,362063992
574,2,T1_SMS_8,1,9999,9999,9999,362863672
574,2,T1_SMS_8,2,9999,9999,9999,363663428
574,2,T1_SMS_8,3,9999,9999,9999,364463180
574,2,T1_SMS_8,4,9999,9999,9999,365263928
574,2,T1_SMS_8,5,9999,9999,9999,366063664
574,2,T1_SMS_8,6,9999,9999,9999,366863472
574,2,T1_SMS_8,7,9999,9999,9999,367663212
574,2,T1_SMS_8,8,9999,9999,9999,368463992
574,2,T1_SMS_8,9,9999,9999,9999,369263716
574,2,T1_SMS_8,10,9999,9999,9999,370063456
574,2,T1_SMS_8,11,9999,9999,9999,370863192
574,2,T1_SMS_8,12,9999,9999,9999,371663988
574,2,T1_SMS_8,13,9999,9999,9999,372463724
574,2,T1_SMS_8,14,9999,9999,9999,373263456
574,2,T1_SMS_8,15,9999,9999,9999,374063192
574,2,T1_SMS_8,16,9999,9999,9999,374863972
574,2,T1_SMS_8,17,9999,9999,9999,375663704
574,2,T1_SMS_8,18,9999,9999,9999,376463436
574,2,T1_SMS_8,19,9999,9999,9999,377263168
574,2,T1_SMS_8,20,9999,9999,9999,378063980
574,2,T1_SMS_8,21,9999,9999,9999,378863708
574,2,T1_SMS_8,22,9999,9999,9999,379663440
574,2,T1_SMS_8,23,9999,9999,9999,380463176
574,2,T1_SMS_8,24,9999,9999,9999,381263956
574,2,T1_SMS_8,25,9999,9999,9999,382063688
574,2,T1_SMS_8,26,9999,9999,9999,382863420
574,2,T1_SMS_8,27,9999,9999,9999,383663160
574,2,T1_SMS_8,28,9999,9999,9999,384463956
574,2,T1_SMS_8,29,9999,9999,9999,385263692
574,2,T1_SMS_8,30,9999,9999,9999,386063424
574,2,T1_SMS_8,31,9999,9999,9999,386863168
574,2,T1_SMS_8,32,9999,9999,9999,387663948
574,2,T1_SMS_8,33,9999,9999,9999,388463672
574,2,T1_SMS_8,34,9999,9999,9999,389263408
574,2,T1_SMS_8,35,9999,9999,9999,390063216
574,2,T1_SMS_8,36,9999,9999,9999,390863944
574,2,T1_SMS_8,37,9999,9999,9999,391663684
574,2,T1_SMS_8,38,9999,9999,9999,392463424
574,2,T1_SMS_8,39,9999,9999,9999,393263156
574,2,T1_SMS_8,40,9999,9999,9999,394063928
574,2,T1_SMS_8,41,9999,9999,9999,394863672
574,2,T1_SMS_8,42,9999,9999,9999,395663476
574,2,T1_SMS_8,43,9999,9999,9999,396463208
574,2,T1_SMS_8,44,9999,9999,9999,397263940
574,2,T1_SMS_8,45,9999,9999,9999,398063672
574,2,T1_SMS_8,46,9999,9999,9999,398863408
574,2,T1_SMS_8,47,9999,9999,9999,399663212
574,2,T1_SMS_8,48,9999,9999,9999,400463920
574,2,T1_SMS_8,49,9999,9999,9999,401263728
574,2,T1_SMS_8,50,9999,9999,9999,402063460
574,2,T1_SMS_8,51,9999,9999,9999,402863188
574,2,T1_SMS_8,52,9999,9999,9999,403663924
574,2,T1_SMS_8,53,9999,9999,9999,404463732
574,2,T1_SMS_8,54,9999,9999,9999,405263464
574,2,T1_SMS_8,55,9999,9999,9999,406063192
574,2,T1_SMS_8,56,9999,9999,9999,406863976
574,2,T1_SMS_8,57,9999,9999,9999,407663708
574,2,T1_SMS_8,58,9999,9999,9999,408463444
574,2,T1_SMS_8,59,9999,9999,9999,409263176
574,2,T1_SMS_8,60,9999,9999,9999,410063984
574,2,T1_SMS_8,61,9999,9999,9999,410863716
574,2,T1_SMS_8,62,9999,9999,9999,411663452
574,2,T1_SMS_8,63,9999,9999,9999,412463184
574,2,T1_SMS_8,64,9999,9999,9999,413263964
574,2,T1_SMS_8,65,9999,9999,9999,414063696
574,2,T1_SMS_8,66,9999,9999,9999,414863428
574,2,T1_SMS_8,67,9999,9999,9999,415663160
574,2,T1_SMS_8,68,9999,9999,9999,416463960
574,2,T1_SMS_8,69,9999,9999,9999,417263704
574,2,T1_SMS_8,70,9999,9999,9999,418063436
574,2,T1_SMS_8,71,9999,9999,9999,418863172
574,2,T1_SMS_8,72,9999,9999,9999,419663948
574,2,T1_SMS_8,73,9999,9999,9999,420463684
574,2,T1_SMS_8,74,9999,9999,9999,421263412
574,2,T1_SMS_8,75,9999,9999,9999,422063220
574,2,T1_SMS_8,76,9999,9999,9999,422863952
574,2,T1_SMS_8,77,9999,9999,9999,423663684
574,2,T1_SMS_8,78,9999,9999,9999,424463416
574,2,T1_SMS_8,79,9999,9999,9999,425263152
574,2,T1_SMS_8,80,9999,9999,9999,426063932
574,2,T1_SMS_8,81,9999,9999,9999,426863668
574,2,T1_SMS_8,82,9999,9999,9999,427663472
574,2,T1_SMS_8,83,9999,9999,9999,428463208
574,2,T1_SMS_8,84,9999,9999,9999,429263944
574,2,T1_SMS_8,85,9999,9999,9999,430063676
574,2,T1_SMS_8,86,9999,9999,9999,430863412
574,2,T1_SMS_8,87,9999,9999,9999,431663216
574,2,T1_SMS_8,88,9999,9999,9999,432463916
574,2,T1_SMS_8,89,9999,9999,9999,433263732
574,2,T1_SMS_8,90,9999,9999,9999,434063464
574,2,T1_SMS_8,91,9999,9999,9999,434863200
574,2,T1_SMS_8,92,9999,9999,9999,435663928
574,2,T1_SMS_8,93,9999,9999,9999,436463728
574,2,T1_SMS_8,94,9999,9999,9999,437263464
574,2,T1_SMS_8,95,9999,9999,9999,438063196
574,2,T1_SMS_8,96,9999,9999,9999,438863976
574,2,T1_SMS_8,97,9999,9999,9999,439663716
574,2,T1_SMS_8,98,9999,9999,9999,440463448
574,2,T1_SMS_8,99,9999,9999,9999,441263184
574,2,T1_SMS_8,100,9999,9999,9999,442063984
574,2,T1_SMS_8,101,9999,9999,9999,442863716
574,2,T1_SMS_8,102,9999,9999,9999,443663448
574,2,T1_SMS_8,103,9999,9999,9999,444463188
574,2,T1_SMS_8,104,9999,9999,9999,445263972
574,2,T1_SMS_8,105,9999,9999,9999,446063700
574,2,T1_SMS_8,106,9999,9999,9999,446863432
574,2,T1_SMS_8,107,9999,9999,9999,447663164
574,2,T1_SMS_8,108,9999,9999,9999,448463972
574,2,T1_SMS_8,109,9999,9999,9999,449263704
574,2,T1_SMS_8,110,9999,9999,9999,450063440
574,2,T1_SMS_8,111,9999,9999,9999,450863172
574,2,T1_SMS_8,112,9999,9999,9999,451663952
574,2,T1_SMS_8,113,9999,9999,9999,452463692
574,2,T1_SMS_8,114,9999,9999,9999,453263424
574,2,T1_SMS_8,115,9999,9999,9999,454063152
574,2,T1_SMS_8,116,9999,9999,9999,454863956
574,2,T1_SMS_8,117,9999,9999,9999,455663688
574,2,T1_SMS_8,118,9999,9999,9999,456463420
574,2,T1_SMS_8,119,9999,9999,9999,457263156
575,10,Ticks_ISO_T2_5,0,5,42,127,469743948
575,10,Ticks_ISO_T2_5,1,5,42,127,470243736
575,10,Ticks_ISO_T2_5,2,5,42,127,470744352
575,10,Ticks_ISO_T2_5,3,5,42,127,471244068
575,10,Ticks_ISO_T2_5,4,1,48,33,471739180
575,10,Ticks_ISO_T2_5,5,5,42,127,471743780
575,10,Ticks_ISO_T2_5,6,5,42,127,472243528
575,10,Ticks_ISO_T2_5,7,1,48,36,472254752
575,10,Ticks_ISO_T2_5,8,5,42,127,472744272
575,10,Ticks_ISO_T2_5,9,1,48,35,472768588
575,10,Ticks_ISO_T2_5,10,5,42,127,473243964
575,10,Ticks_ISO_T2_5,11,1,48,36,473270648
575,10,Ticks_ISO_T2_5,12,5,42,127,473743736
575,10,Ticks_ISO_T2_5,13,1,48,33,473762264
575,10,Ticks_ISO_T2_5,14,5,42,127,474243360
575,10,Ticks_ISO_T2_5,15,1,48,35,474273328
575,10,Ticks_ISO_T2_5,16,5,42,127,474744096
575,10,Ticks_ISO_T2_5,17,1,48,36,474767416
575,10,Ticks_ISO_T2_5,18,5,42,127,475243944
575,10,Ticks_ISO_T2_5,19,1,48,34,475267928
575,10,Ticks_ISO_T2_5,20,5,42,127,475743564
575,10,Ticks_ISO_T2_5,21,1,48,36,475757524
575,10,Ticks_ISO_T2_5,22,5,42,127,476244228
575,10,Ticks_ISO_T2_5,23,1,48,38,476252056
575,10,Ticks_ISO_T2_5,24,5,42,127,476744072
575,10,Ticks_ISO_T2_5,25,1,48,34,476747196
575,10,Ticks_ISO_T2_5,26,5,42,127,477243840
575,10,Ticks_ISO_T2_5,27,1,48,34,477257432
575,10,Ticks_ISO_T2_5,28,5,42,127,477743540
575,10,Ticks_ISO_T2_5,29,1,48,35,477769996
575,10,Ticks_ISO_T2_5,30,5,42,127,478244056
575,10,Ticks_ISO_T2_5,31,1,48,35,478254952
575,10,Ticks_ISO_T2_5,32,5,42,127,478743824
575,10,Ticks_ISO_T2_5,33,1,48,32,478757416
575,10,Ticks_ISO_T2_5,34,5,42,127,479243816
575,10,Ticks_ISO_T2_5,35,1,48,37,479263844
575,10,Ticks_ISO_T2_5,36,5,42,127,479744484
575,10,Ticks_ISO_T2_5,37,1,48,31,479760768
575,10,Ticks_ISO_T2_5,38,1,48,37,480244476
575,10,Ticks_ISO_T2_5,39,5,42,127,480245588
575,10,Ticks_ISO_T2_5,40,5,42,127,480743872
575,10,Ticks_ISO_T2_5,41,1,48,35,480766584
575,10,Ticks_ISO_T2_5,42,5,42,127,481243716
575,10,Ticks_ISO_T2_5,43,1,48,32,481273988
575,10,Ticks_ISO_T2_5,44,5,42,127,481744308
575,10,Ticks_ISO_T2_5,45,1,48,34,481769644
575,10,Ticks_ISO_T2_5,46,5,42,127,482243928
575,10,Ticks_ISO_T2_5,47,1,48,37,482272104
575,10,Ticks_ISO_T2_5,48,5,42,127,482743820
575,10,Ticks_ISO_T2_5,49,1,48,34,482751156
575,10,Ticks_ISO_T2_5,50,5,42,127,483244492
575,10,Ticks_ISO_T2_5,51,1,48,31,483248732
575,10,Ticks_ISO_T2_5,52,1,48,35,483728888
575,10,Ticks_ISO_T2_5,53,5,42,127,483744028
575,10,Ticks_ISO_T2_5,54,5,42,127,484243804
575,10,Ticks_ISO_T2_5,55,1,48,37,484248420
575,10,Ticks_ISO_T2_5,56,5,42,127,484743796
575,10,Ticks_ISO_T2_5,57,1,48,36,484776240
575,10,Ticks_ISO_T2_5,58,5,42,127,485244388
575,10,Ticks_ISO_T2_5,59,1,48,38,485259628
575,10,Ticks_ISO_T2_5,60,5,42,127,485743936
575,10,Ticks_ISO_T2_5,61,1,48,36,485758720
575,10,Ticks_ISO_T2_5,62,5,42,127,486243776
575,10,Ticks_ISO_T2_5,63,1,48,40,486248548
575,10,Ticks_ISO_T2_5,64,5,42,127,486744516
575,10,Ticks_ISO_T2_5,65,1,48,38,486758784
575,10,Ticks_ISO_T2_5,66,5,42,127,487244064
575,10,Ticks_ISO_T2_5,67,1,48,37,487262668
575,10,Ticks_ISO_T2_5,68,5,42,127,487743908
575,10,Ticks_ISO_T2_5,69,1,48,37,487762880
575,10,Ticks_ISO_T2_5,70,5,42,127,488243752
575,10,Ticks_ISO_T2_5,71,1,48,36,488272980
575,10,Ticks_ISO_T2_5,72,5,42,127,488744420
575,10,Ticks_ISO_T2_5,73,1,48,35,488753820
575,10,Ticks_ISO_T2_5,74,5,42,127,489244040
575,10,Ticks_ISO_T2_5,75,1,48,37,489250904
575,10,Ticks_ISO_T2_5,76,5,42,127,489743812
575,10,Ticks_ISO_T2_5,77,1,48,36,489768252
575,10,Ticks_ISO_T2_5,78,5,42,127,490243728
575,10,Ticks_ISO_T2_5,79,1,48,42,490256652
575,10,Ticks_ISO_T2_5,80,5,42,127,490744096
575,10,Ticks_ISO_T2_5,81,1,48,37,490758364
575,10,Ticks_ISO_T2_5,82,5,42,127,491243868
575,10,Ticks_ISO_T2_5,83,1,48,36,491271068
575,10,Ticks_ISO_T2_5,84,5,42,127,491743784
575,10,Ticks_ISO_T2_5,85,1,48,36,491774652
575,10,Ticks_ISO_T2_5,86,5,42,127,492244376
575,10,Ticks_ISO_T2_5,87,1,48,30,492290060
575,10,Ticks_ISO_T2_5,88,5,42,127,492744072
575,10,Ticks_ISO_T2_5,89,1,48,38,492784964
575,10,Ticks_ISO_T2_5,90,5,42,127,493243692
575,10,Ticks_ISO_T2_5,91,1,48,36,493263940
575,10,Ticks_ISO_T2_5,92,5,42,127,493743584
575,10,Ticks_ISO_T2_5,93,1,48,37,493755480
575,10,Ticks_ISO_T2_5,94,1,48,38,494244104
575,10,Ticks_ISO_T2_5,95,5,42,127,494245588
575,10,Ticks_ISO_T2_5,96,1,48,39,494744316
575,10,Ticks_ISO_T2_5,97,5,42,127,494745508
575,10,Ticks_ISO_T2_5,98,5,42,127,495243492
575,10,Ticks_ISO_T2_5,99,1,48,40,495252368
575,10,Ticks_ISO_T2_5,100,5,42,127,495744456
575,10,Ticks_ISO_T2_5,101,1,48,38,495752440
575,10,Ticks_ISO_T2_5,102,5,42,127,496244004
575,10,Ticks_ISO_T2_5,103,1,48,40,496257520
575,10,Ticks_ISO_T2_5,104,5,42,127,496743696
575,10,Ticks_ISO_T2_5,105,1,48,37,496745184
575,10,Ticks_ISO_T2_5,106,1,48,34,497242784
575,10,Ticks_ISO_T2_5,107,5,42,127,497244208
575,10,Ticks_ISO_T2_5,108,5,42,127,497744356
575,10,Ticks_ISO_T2_5,109,1,48,41,497747924
575,10,Ticks_ISO_T2_5,110,5,42,127,498243828
575,10,Ticks_ISO_T2_5,111,1,48,35,498251732
575,10,Ticks_ISO_T2_5,112,1,48,37,498738696
575,10,Ticks_ISO_T2_5,113,5,42,127,498743588
575,10,Ticks_ISO_T2_5,114,5,42,127,499244412
575,10,Ticks_ISO_T2_5,115,1,48,39,499252840
575,10,Ticks_ISO_T2_5,116,1,48,41,499743356
575,10,Ticks_ISO_T2_5,117,5,42,127,499744776
575,10,Ticks_ISO_T2_5,118,1,48,38,500222520
575,10,Ticks_ISO_T2_5,119,5,42,127,500243944
575,10,Ticks_ISO_T2_5,120,1,48,39,500713236
575,10,Ticks_ISO_T2_5,121,5,42,127,500743564
575,10,Ticks_ISO_T2_5,122,1,48,38,501236120
575,10,Ticks_ISO_T2_5,123,5,42,127,501244304
575,10,Ticks_ISO_T2_5,124,5,42,127,501744080
575,10,Ticks_ISO_T2_5,125,1,48,38,501774728
575,10,Ticks_ISO_T2_5,126,5,42,127,502243556
575,10,Ticks_ISO_T2_5,127,1,48,36,502245568
575,10,Ticks_ISO_T2_5,128,1,48,34,502736548
575,10,Ticks_ISO_T2_5,129,5,42,127,502744364
575,10,Ticks_ISO_T2_5,130,5,42,127,503244288
575,10,Ticks_ISO_T2_5,131,1,48,36,503249724
575,10,Ticks_ISO_T2_5,132,5,42,127,503743760
575,10,Ticks_ISO_T2_5,133,1,48,42,503753836
575,10,Ticks_ISO_T2_5,134,5,42,127,504243504
575,10,Ticks_ISO_T2_5,135,1,48,38,504264824
575,10,Ticks_ISO_T2_5,136,5,42,127,504744396
575,10,Ticks_ISO_T2_5,137,1,48,37,504765940
575,10,Ticks_ISO_T2_5,138,5,42,127,505244164
575,10,Ticks_ISO_T2_5,139,1,48,36,505261124
575,10,Ticks_ISO_T2_5,140,5,42,127,505743708
575,10,Ticks_ISO_T2_5,141,1,48,37,505765228
575,10,Ticks_ISO_T2_5,142,5,42,127,506243480
575,10,Ticks_ISO_T2_5,143,1,48,36,506247204
575,10,Ticks_ISO_T2_5,144,1,48,37,506738800
575,10,Ticks_ISO_T2_5,145,5,42,127,506744364
575,10,Ticks_ISO_T2_5,146,1,48,37,507237144
575,10,Ticks_ISO_T2_5,147,5,42,127,507244208
575,10,Ticks_ISO_T2_5,148,1,48,35,507739164
575,10,Ticks_ISO_T2_5,149,5,42,127,507743604
575,10,Ticks_ISO_T2_5,150,5,42,127,508244424
575,10,Ticks_ISO_T2_5,151,1,48,39,508245392
575,10,Ticks_ISO_T2_5,152,5,42,127,508744196
575,10,Ticks_ISO_T2_5,153,1,48,37,508753976
575,10,Ticks_ISO_T2_5,154,5,42,127,509244040
575,10,Ticks_ISO_T2_5,155,1,48,40,509251272
575,10,Ticks_ISO_T2_5,156,5,42,127,509743436
575,10,Ticks_ISO_T2_5,157,1,48,37,509765180
575,10,Ticks_ISO_T2_5,158,5,42,127,510244180
575,10,Ticks_ISO_T2_5,159,1,48,36,510276996
575,10,Ticks_ISO_T2_5,160,5,42,127,510744168
575,10,Ticks_ISO_T2_5,161,1,48,39,510785884
575,10,Ticks_ISO_T2_5,162,5,42,127,511243568
575,10,Ticks_ISO_T2_5,163,1,48,36,511281396
575,10,Ticks_ISO_T2_5,164,5,42,127,511744312
575,10,Ticks_ISO_T2_5,165,1,48,40,511770920
575,10,Ticks_ISO_T2_5,166,5,42,127,512244228
575,10,Ticks_ISO_T2_5,167,1,48,37,512257672
575,10,Ticks_ISO_T2_5,168,5,42,127,512743776
575,10,Ticks_ISO_T2_5,169,1,48,38,512757968
575,10,Ticks_ISO_T2_5,170,1,48,39,513225032
575,10,Ticks_ISO_T2_5,171,5,42,127,513243392
575,10,Ticks_ISO_T2_5,172,1,48,41,513740208
575,10,Ticks_ISO_T2_5,173,5,42,127,513744356
575,10,Ticks_ISO_T2_5,174,5,42,127,514244204
575,10,Ticks_ISO_T2_5,175,1,48,35,514262956
575,10,Ticks_ISO_T2_5,176,5,42,127,514743728
575,10,Ticks_ISO_T2_5,177,1,48,35,514765544
575,10,Ticks_ISO_T2_5,178,5,42,127,515244296
575,10,Ticks_ISO_T2_5,179,1,48,39,515281024
575,10,Ticks_ISO_T2_5,180,5,42,127,515744064
575,10,Ticks_ISO_T2_5,181,1,48,39,515782360
575,10,Ticks_ISO_T2_5,182,5,42,127,516244132
575,10,Ticks_ISO_T2_5,183,1,48,39,516258620
575,10,Ticks_ISO_T2_5,184,5,42,127,516743456
575,10,Ticks_ISO_T2_5,185,1,48,35,516766020
575,10,Ticks_ISO_T2_5,186,5,42,127,517244196
575,10,Ticks_ISO_T2_5,187,1,48,36,517246356
575,10,Ticks_ISO_T2_5,188,5,42,127,517744040
575,10,Ticks_ISO_T2_5,189,1,48,36,517753588
575,10,Ticks_ISO_T2_5,190,5,42,127,518244032
575,10,Ticks_ISO_T2_5,191,1,48,38,518246324
575,10,Ticks_ISO_T2_5,192,5,42,127,518744324
575,10,Ticks_ISO_T2_5,193,1,48,39,518745292
575,10,Ticks_ISO_T2_5,194,5,42,127,519244244
575,10,Ticks_ISO_T2_5,195,1,48,36,519252748
575,10,Ticks_ISO_T2_5,196,5,42,127,519744088
575,10,Ticks_ISO_T2_5,197,1,48,31,519754388
575,10,Ticks_ISO_T2_5,198,5,42,127,520243708
575,10,Ticks_ISO_T2_5,199,1,48,36,520254228
575,10,Ticks_ISO_T2_5,200,5,42,127,520744376
575,10,Ticks_ISO_T2_5,201,1,48,35,520763052
575,10,Ticks_ISO_T2_5,202,1,48,35,521243016
575,10,Ticks_ISO_T2_5,203,5,42,127,521244656
575,10,Ticks_ISO_T2_5,204,5,42,127,521743840
575,10,Ticks_ISO_T2_5,205,1,48,35,521747932
575,10,Ticks_ISO_T2_5,206,5,42,127,522243384
575,10,Ticks_ISO_T2_5,207,1,48,36,522254204
575,10,Ticks_ISO_T2_5,208,1,48,38,522736376
575,10,Ticks_ISO_T2_5,209,5,42,127,522744120
575,10,Ticks_ISO_T2_5,210,5,42,127,523243820
575,10,Ticks_ISO_T2_5,211,1,48,35,523250832
575,10,Ticks_ISO_T2_5,212,5,42,127,523743736
575,10,Ticks_ISO_T2_5,213,1,48,38,523766980
575,10,Ticks_ISO_T2_5,214,5,42,127,524244256
575,10,Ticks_ISO_T2_5,215,1,48,37,524247000
575,10,Ticks_ISO_T2_5,216,1,48,36,524741440
575,10,Ticks_ISO_T2_5,217,5,42,127,524744016
575,10,Ticks_ISO_T2_5,218,1,48,40,525240540
575,10,Ticks_ISO_T2_5,219,5,42,127,525243712
575,10,Ticks_ISO_T2_5,220,5,42,127,525743612
575,10,Ticks_ISO_T2_5,221,1,48,40,525760444
575,10,Ticks_ISO_T2_5,222,1,48,37,526230780
575,10,Ticks_ISO_T2_5,223,5,42,127,526244200
575,10,Ticks_ISO_T2_5,224,1,48,39,526731144
575,10,Ticks_ISO_T2_5,225,5,42,127,526743968
575,10,Ticks_ISO_T2_5,226,1,48,37,527232632
575,10,Ticks_ISO_T2_5,227,5,42,127,527243588
575,10,Ticks_ISO_T2_5,228,1,48,40,527727768
575,10,Ticks_ISO_T2_5,229,5,42,127,527744480
575,10,Ticks_ISO_T2_5,230,5,42,127,528244104
575,10,Ticks_ISO_T2_5,231,1,48,34,528259344
575,10,Ticks_ISO_T2_5,232,5,42,127,528743948
575,10,Ticks_ISO_T2_5,233,1,48,29,528767192
575,10,Ticks_ISO_T2_5,234,1,48,35,529232828
575,10,Ticks_ISO_T2_5,235,5,42,127,529243632
575,10,Ticks_ISO_T2_5,236,1,48,37,529730584
575,10,Ticks_ISO_T2_5,237,5,42,127,529744152
575,10,Ticks_ISO_T2_5,238,1,48,37,530216364
575,10,Ticks_ISO_T2_5,239,5,42,127,530243848
575,10,Ticks_ISO_T2_5,240,1,48,38,530718524
575,10,Ticks_ISO_T2_5,241,5,42,127,530743692
575,10,Ticks_ISO_T2_5,242,1,48,36,531215676
575,10,Ticks_ISO_T2_5,243,5,42,127,531244656
575,10,Ticks_ISO_T2_5,244,1,48,37,531720312
575,10,Ticks_ISO_T2_5,245,5,42,127,531743980
575,10,Ticks_ISO_T2_5,246,1,48,38,532225388
575,10,Ticks_ISO_T2_5,247,5,42,127,532243672
575,10,Ticks_ISO_T2_5,248,1,48,38,532721044
575,10,Ticks_ISO_T2_5,249,5,42,127,532743740
575,10,Ticks_ISO_T2_5,250,1,48,37,533235848
575,10,Ticks_ISO_T2_5,251,5,42,127,533244480
575,10,Ticks_ISO_T2_5,252,1,48,37,533735472
575,10,Ticks_ISO_T2_5,253,5,42,127,533744028
575,10,Ticks_ISO_T2_5,254,1,48,39,534215488
575,10,Ticks_ISO_T2_5,255,5,42,127,534243800
575,10,Ticks_ISO_T2_5,256,1,48,41,534712268
575,10,Ticks_ISO_T2_5,0,9999,9999,9999,469741660
575,10,Ticks_ISO_T2_5,1,9999,9999,9999,470241376
575,10,Ticks_ISO_T2_5,2,9999,9999,9999,470742064
575,10,Ticks_ISO_T2_5,3,9999,9999,9999,471241784
575,10,Ticks_ISO_T2_5,4,9999,9999,9999,471741492
575,10,Ticks_ISO_T2_5,5,9999,9999,9999,472241244
575,10,Ticks_ISO_T2_5,6,9999,9999,9999,472741984
575,10,Ticks_ISO_T2_5,7,9999,9999,9999,473241680
575,10,Ticks_ISO_T2_5,8,9999,9999,9999,473741376
575,10,Ticks_ISO_T2_5,9,9999,9999,9999,474241072
575,10,Ticks_ISO_T2_5,10,9999,9999,9999,474741812
575,10,Ticks_ISO_T2_5,11,9999,9999,9999,475241580
575,10,Ticks_ISO_T2_5,12,9999,9999,9999,475741276
575,10,Ticks_ISO_T2_5,13,9999,9999,9999,476242016
575,10,Ticks_ISO_T2_5,14,9999,9999,9999,476741712
575,10,Ticks_ISO_T2_5,15,9999,9999,9999,477241408
575,10,Ticks_ISO_T2_5,16,9999,9999,9999,477741176
575,10,Ticks_ISO_T2_5,17,9999,9999,9999,478241844
575,10,Ticks_ISO_T2_5,18,9999,9999,9999,478741612
575,10,Ticks_ISO_T2_5,19,9999,9999,9999,479241308
575,10,Ticks_ISO_T2_5,20,9999,9999,9999,479742048
575,10,Ticks_ISO_T2_5,21,9999,9999,9999,480241740
575,10,Ticks_ISO_T2_5,22,9999,9999,9999,480741436
575,10,Ticks_ISO_T2_5,23,9999,9999,9999,481241204
575,10,Ticks_ISO_T2_5,24,9999,9999,9999,481741872
575,10,Ticks_ISO_T2_5,25,9999,9999,9999,482241644
575,10,Ticks_ISO_T2_5,26,9999,9999,9999,482741312
575,10,Ticks_ISO_T2_5,27,9999,9999,9999,483242056
575,10,Ticks_ISO_T2_5,28,9999,9999,9999,483741816
575,10,Ticks_ISO_T2_5,29,9999,9999,9999,484241520
575,10,Ticks_ISO_T2_5,30,9999,9999,9999,484741212
575,10,Ticks_ISO_T2_5,31,9999,9999,9999,485241952
575,10,Ticks_ISO_T2_5,32,9999,9999,9999,485741648
575,10,Ticks_ISO_T2_5,33,9999,9999,9999,486241344
575,10,Ticks_ISO_T2_5,34,9999,9999,9999,486742084
575,10,Ticks_ISO_T2_5,35,9999,9999,9999,487241776
575,10,Ticks_ISO_T2_5,36,9999,9999,9999,487741548
575,10,Ticks_ISO_T2_5,37,9999,9999,9999,488241240
575,10,Ticks_ISO_T2_5,38,9999,9999,9999,488741984
575,10,Ticks_ISO_T2_5,39,9999,9999,9999,489241680
575,10,Ticks_ISO_T2_5,40,9999,9999,9999,489741376
575,10,Ticks_ISO_T2_5,41,9999,9999,9999,490241144
575,10,Ticks_ISO_T2_5,42,9999,9999,9999,490741812
575,10,Ticks_ISO_T2_5,43,9999,9999,9999,491241580
575,10,Ticks_ISO_T2_5,44,9999,9999,9999,491741276
575,10,Ticks_ISO_T2_5,45,9999,9999,9999,492242016
575,10,Ticks_ISO_T2_5,46,9999,9999,9999,492741708
575,10,Ticks_ISO_T2_5,47,9999,9999,9999,493241404
575,10,Ticks_ISO_T2_5,48,9999,9999,9999,493741148
575,10,Ticks_ISO_T2_5,49,9999,9999,9999,494241892
575,10,Ticks_ISO_T2_5,50,9999,9999,9999,494741584
575,10,Ticks_ISO_T2_5,51,9999,9999,9999,495241280
575,10,Ticks_ISO_T2_5,52,9999,9999,9999,495742020
575,10,Ticks_ISO_T2_5,53,9999,9999,9999,496241716
575,10,Ticks_ISO_T2_5,54,9999,9999,9999,496741484
575,10,Ticks_ISO_T2_5,55,9999,9999,9999,497241180
575,10,Ticks_ISO_T2_5,56,9999,9999,9999,497741920
575,10,Ticks_ISO_T2_5,57,9999,9999,9999,498241616
575,10,Ticks_ISO_T2_5,58,9999,9999,9999,498741304
575,10,Ticks_ISO_T2_5,59,9999,9999,9999,499242052
575,10,Ticks_ISO_T2_5,60,9999,9999,9999,499741748
575,10,Ticks_ISO_T2_5,61,9999,9999,9999,500241508
575,10,Ticks_ISO_T2_5,62,9999,9999,9999,500741204
575,10,Ticks_ISO_T2_5,63,9999,9999,9999,501241944
575,10,Ticks_ISO_T2_5,64,9999,9999,9999,501741648
575,10,Ticks_ISO_T2_5,65,9999,9999,9999,502241344
575,10,Ticks_ISO_T2_5,66,9999,9999,9999,502742076
575,10,Ticks_ISO_T2_5,67,9999,9999,9999,503241776
575,10,Ticks_ISO_T2_5,68,9999,9999,9999,503741548
575,10,Ticks_ISO_T2_5,69,9999,9999,9999,504241216
575,10,Ticks_ISO_T2_5,70,9999,9999,9999,504741960
575,10,Ticks_ISO_T2_5,71,9999,9999,9999,505241656
575,10,Ticks_ISO_T2_5,72,9999,9999,9999,505741424
575,10,Ticks_ISO_T2_5,73,9999,9999,9999,506241116
575,10,Ticks_ISO_T2_5,74,9999,9999,9999,506741856
575,10,Ticks_ISO_T2_5,75,9999,9999,9999,507241548
575,10,Ticks_ISO_T2_5,76,9999,9999,9999,507741244
575,10,Ticks_ISO_T2_5,77,9999,9999,9999,508241992
575,10,Ticks_ISO_T2_5,78,9999,9999,9999,508741688
575,10,Ticks_ISO_T2_5,79,9999,9999,9999,509241456
575,10,Ticks_ISO_T2_5,80,9999,9999,9999,509741148
575,10,Ticks_ISO_T2_5,81,9999,9999,9999,510241892
575,10,Ticks_ISO_T2_5,82,9999,9999,9999,510741584
575,10,Ticks_ISO_T2_5,83,9999,9999,9999,511241284
575,10,Ticks_ISO_T2_5,84,9999,9999,9999,511742024
575,10,Ticks_ISO_T2_5,85,9999,9999,9999,512241720
575,10,Ticks_ISO_T2_5,86,9999,9999,9999,512741488
575,10,Ticks_ISO_T2_5,87,9999,9999,9999,513241180
575,10,Ticks_ISO_T2_5,88,9999,9999,9999,513741920
575,10,Ticks_ISO_T2_5,89,9999,9999,9999,514241620
575,10,Ticks_ISO_T2_5,90,9999,9999,9999,514741364
575,10,Ticks_ISO_T2_5,91,9999,9999,9999,515242084
575,10,Ticks_ISO_T2_5,92,9999,9999,9999,515741776
575,10,Ticks_ISO_T2_5,93,9999,9999,9999,516241472
575,10,Ticks_ISO_T2_5,94,9999,9999,9999,516741168
575,10,Ticks_ISO_T2_5,95,9999,9999,9999,517241908
575,10,Ticks_ISO_T2_5,96,9999,9999,9999,517741676
575,10,Ticks_ISO_T2_5,97,9999,9999,9999,518241372
575,10,Ticks_ISO_T2_5,98,9999,9999,9999,518742112
575,10,Ticks_ISO_T2_5,99,9999,9999,9999,519241808
575,10,Ticks_ISO_T2_5,100,9999,9999,9999,519741504
575,10,Ticks_ISO_T2_5,101,9999,9999,9999,520241272
575,10,Ticks_ISO_T2_5,102,9999,9999,9999,520741940
575,10,Ticks_ISO_T2_5,103,9999,9999,9999,521241708
575,10,Ticks_ISO_T2_5,104,9999,9999,9999,521741404
575,10,Ticks_ISO_T2_5,105,9999,9999,9999,522241096
575,10,Ticks_ISO_T2_5,106,9999,9999,9999,522741832
575,10,Ticks_ISO_T2_5,107,9999,9999,9999,523241532
575,10,Ticks_ISO_T2_5,108,9999,9999,9999,523741304
575,10,Ticks_ISO_T2_5,109,9999,9999,9999,524241968
575,10,Ticks_ISO_T2_5,110,9999,9999,9999,524741732
575,10,Ticks_ISO_T2_5,111,9999,9999,9999,525241424
575,10,Ticks_ISO_T2_5,112,9999,9999,9999,525741176
575,10,Ticks_ISO_T2_5,113,9999,9999,9999,526241912
575,10,Ticks_ISO_T2_5,114,9999,9999,9999,526741608
575,10,Ticks_ISO_T2_5,115,9999,9999,9999,527241304
575,10,Ticks_ISO_T2_5,116,9999,9999,9999,527742044
575,10,Ticks_ISO_T2_5,117,9999,9999,9999,528241744
575,10,Ticks_ISO_T2_5,118,9999,9999,9999,528741436
575,10,Ticks_ISO_T2_5,119,9999,9999,9999,529241200
575,10,Ticks_ISO_T2_5,120,9999,9999,9999,529741940
575,10,Ticks_ISO_T2_5,121,9999,9999,9999,530241636
575,10,Ticks_ISO_T2_5,122,9999,9999,9999,530741332
575,10,Ticks_ISO_T2_5,123,9999,9999,9999,531242072
575,10,Ticks_ISO_T2_5,124,9999,9999,9999,531741768
575,10,Ticks_ISO_T2_5,125,9999,9999,9999,532241460
575,10,Ticks_ISO_T2_5,126,9999,9999,9999,532741232
575,10,Ticks_ISO_T2_5,127,9999,9999,9999,533241972
575,10,Ticks_ISO_T2_5,128,9999,9999,9999,533741668
575,10,Ticks_ISO_T2_5,129,9999,9999,9999,534241364
576,9,Ticks_ISO_T2_8,0,5,42,127,545995220
576,9,Ticks_ISO_T2_8,1,5,42,127,546794972
576,9,Ticks_ISO_T2_8,2,5,42,127,547594504
576,9,Ticks_ISO_T2_8,3,5,42,127,548395456
576,9,Ticks_ISO_T2_8,4,1,48,42,549145956
576,9,Ticks_ISO_T2_8,5,5,42,127,549195128
576,9,Ticks_ISO_T2_8,6,1,48,43,549922724
576,9,Ticks_ISO_T2_8,7,5,42,127,549994788
576,9,Ticks_ISO_T2_8,8,1,48,38,550769884
576,9,Ticks_ISO_T2_8,9,5,42,127,550794596
576,9,Ticks_ISO_T2_8,10,5,42,127,551595308
576,9,Ticks_ISO_T2_8,11,1,48,37,551607508
576,9,Ticks_ISO_T2_8,12,5,42,127,552395216
576,9,Ticks_ISO_T2_8,13,1,48,40,552401628
576,9,Ticks_ISO_T2_8,14,5,42,127,553194728
576,9,Ticks_ISO_T2_8,15,1,48,38,553204204
576,9,Ticks_ISO_T2_8,16,1,48,36,553993096
576,9,Ticks_ISO_T2_8,17,5,42,127,553994676
576,9,Ticks_ISO_T2_8,18,5,42,127,554795316
576,9,Ticks_ISO_T2_8,19,1,48,37,554803228
576,9,Ticks_ISO_T2_8,20,5,42,127,555595124
576,9,Ticks_ISO_T2_8,21,1,48,33,555615300
576,9,Ticks_ISO_T2_8,22,1,48,35,556384868
576,9,Ticks_ISO_T2_8,23,5,42,127,556395148
576,9,Ticks_ISO_T2_8,24,1,48,37,557163356
576,9,Ticks_ISO_T2_8,25,5,42,127,557194508
576,9,Ticks_ISO_T2_8,26,1,48,30,557960328
576,9,Ticks_ISO_T2_8,27,5,42,127,557995436
576,9,Ticks_ISO_T2_8,28,1,48,29,558783044
576,9,Ticks_ISO_T2_8,29,5,42,127,558795048
576,9,Ticks_ISO_T2_8,30,1,48,25,559591832
576,9,Ticks_ISO_T2_8,31,5,42,127,559595004
576,9,Ticks_ISO_T2_8,32,1,48,30,560372716
576,9,Ticks_ISO_T2_8,33,5,42,127,560394592
576,9,Ticks_ISO_T2_8,34,1,48,32,561186508
576,9,Ticks_ISO_T2_8,35,5,42,127,561195444
576,9,Ticks_ISO_T2_8,36,5,42,127,561995036
576,9,Ticks_ISO_T2_8,37,1,48,35,562003912
576,9,Ticks_ISO_T2_8,38,1,48,32,562792652
576,9,Ticks_ISO_T2_8,39,5,42,127,562794840
576,9,Ticks_ISO_T2_8,40,1,48,35,563566416
576,9,Ticks_ISO_T2_8,41,5,42,127,563594796
576,9,Ticks_ISO_T2_8,42,5,42,127,564395288
576,9,Ticks_ISO_T2_8,43,1,48,29,564401920
576,9,Ticks_ISO_T2_8,44,5,42,127,565195120
576,9,Ticks_ISO_T2_8,45,1,48,26,565201828
576,9,Ticks_ISO_T2_8,46,1,48,38,565979556
576,9,Ticks_ISO_T2_8,47,5,42,127,565994996
576,9,Ticks_ISO_T2_8,48,1,48,30,566783256
576,9,Ticks_ISO_T2_8,49,5,42,127,566794728
576,9,Ticks_ISO_T2_8,50,1,48,29,567590020
576,9,Ticks_ISO_T2_8,51,5,42,127,567595508
576,9,Ticks_ISO_T2_8,52,5,42,127,568395100
576,9,Ticks_ISO_T2_8,53,1,48,29,568433004
576,9,Ticks_ISO_T2_8,54,5,42,127,569194908
576,9,Ticks_ISO_T2_8,55,1,48,30,569213440
576,9,Ticks_ISO_T2_8,56,1,48,26,569985328
576,9,Ticks_ISO_T2_8,57,5,42,127,569994860
576,9,Ticks_ISO_T2_8,58,5,42,127,570795500
576,9,Ticks_ISO_T2_8,59,1,48,31,570798992
576,9,Ticks_ISO_T2_8,60,5,42,127,571595108
576,9,Ticks_ISO_T2_8,61,1,48,32,571619244
576,9,Ticks_ISO_T2_8,62,1,48,31,572393636
576,9,Ticks_ISO_T2_8,63,5,42,127,572395204
576,9,Ticks_ISO_T2_8,64,1,48,31,573171272
576,9,Ticks_ISO_T2_8,65,5,42,127,573194864
576,9,Ticks_ISO_T2_8,66,1,48,32,573963000
576,9,Ticks_ISO_T2_8,67,5,42,127,573995348
576,9,Ticks_ISO_T2_8,68,1,48,26,574791232
576,9,Ticks_ISO_T2_8,69,5,42,127,574795008
576,9,Ticks_ISO_T2_8,70,5,42,127,575594748
576,9,Ticks_ISO_T2_8,71,1,48,28,575605344
576,9,Ticks_ISO_T2_8,72,1,48,32,576389052
576,9,Ticks_ISO_T2_8,73,5,42,127,576394772
576,9,Ticks_ISO_T2_8,74,1,48,26,577176672
576,9,Ticks_ISO_T2_8,75,5,42,127,577195476
576,9,Ticks_ISO_T2_8,76,1,48,29,577965704
576,9,Ticks_ISO_T2_8,77,5,42,127,577995084
576,9,Ticks_ISO_T2_8,78,5,42,127,578794824
576,9,Ticks_ISO_T2_8,79,1,48,28,578806620
576,9,Ticks_ISO_T2_8,80,5,42,127,579594784
576,9,Ticks_ISO_T2_8,81,1,48,30,579640392
576,9,Ticks_ISO_T2_8,82,1,48,20,580376904
576,9,Ticks_ISO_T2_8,83,5,42,127,580395484
576,9,Ticks_ISO_T2_8,84,1,48,25,581152620
576,9,Ticks_ISO_T2_8,85,5,42,127,581195068
576,9,Ticks_ISO_T2_8,86,1,48,23,581979660
576,9,Ticks_ISO_T2_8,87,5,42,127,581994800
576,9,Ticks_ISO_T2_8,88,1,48,28,582764584
576,9,Ticks_ISO_T2_8,89,5,42,127,582794536
576,9,Ticks_ISO_T2_8,90,1,48,29,583585776
576,9,Ticks_ISO_T2_8,91,5,42,127,583595464
576,9,Ticks_ISO_T2_8,92,1,48,30,584389576
576,9,Ticks_ISO_T2_8,93,5,42,127,584395000
576,9,Ticks_ISO_T2_8,94,5,42,127,585194812
576,9,Ticks_ISO_T2_8,95,1,48,37,585208256
576,9,Ticks_ISO_T2_8,96,5,42,127,585994548
576,9,Ticks_ISO_T2_8,97,1,48,30,586018460
576,9,Ticks_ISO_T2_8,98,5,42,127,586795628
576,9,Ticks_ISO_T2_8,99,1,48,34,586799796
576,9,Ticks_ISO_T2_8,100,1,48,27,587588816
576,9,Ticks_ISO_T2_8,101,5,42,127,587595204
576,9,Ticks_ISO_T2_8,102,5,42,127,588394720
576,9,Ticks_ISO_T2_8,103,1,48,26,588396132
576,9,Ticks_ISO_T2_8,104,5,42,127,589194604
576,9,Ticks_ISO_T2_8,105,1,48,29,589223676
576,9,Ticks_ISO_T2_8,106,5,42,127,589995456
576,9,Ticks_ISO_T2_8,107,1,48,19,590016556
576,9,Ticks_ISO_T2_8,108,5,42,127,590795216
576,9,Ticks_ISO_T2_8,109,1,48,29,590796628
576,9,Ticks_ISO_T2_8,110,5,42,127,591594804
576,9,Ticks_ISO_T2_8,111,1,48,27,591596216
576,9,Ticks_ISO_T2_8,112,5,42,127,592394536
576,9,Ticks_ISO_T2_8,113,1,48,27,592395500
576,9,Ticks_ISO_T2_8,114,5,42,127,593195392
576,9,Ticks_ISO_T2_8,115,1,48,28,593231200
576,9,Ticks_ISO_T2_8,116,5,42,127,593995272
576,9,Ticks_ISO_T2_8,117,1,48,24,594000416
576,9,Ticks_ISO_T2_8,118,5,42,127,594794860
576,9,Ticks_ISO_T2_8,119,1,48,25,594814360
576,9,Ticks_ISO_T2_8,120,1,48,32,595591412
576,9,Ticks_ISO_T2_8,121,5,42,127,595594588
576,9,Ticks_ISO_T2_8,122,5,42,127,596395448
576,9,Ticks_ISO_T2_8,123,1,48,30,596430828
576,9,Ticks_ISO_T2_8,124,5,42,127,597195280
576,9,Ticks_ISO_T2_8,125,1,48,30,597218972
576,9,Ticks_ISO_T2_8,126,5,42,127,597994792
576,9,Ticks_ISO_T2_8,127,1,48,22,598025364
576,9,Ticks_ISO_T2_8,128,1,48,25,598789924
576,9,Ticks_ISO_T2_8,129,5,42,127,598794592
576,9,Ticks_ISO_T2_8,130,1,48,29,599559440
576,9,Ticks_ISO_T2_8,131,5,42,127,599595300
576,9,Ticks_ISO_T2_8,132,5,42,127,600395264
576,9,Ticks_ISO_T2_8,133,1,48,29,600405116
576,9,Ticks_ISO_T2_8,134,5,42,127,601195068
576,9,Ticks_ISO_T2_8,135,1,48,24,601211956
576,9,Ticks_ISO_T2_8,136,5,42,127,601994504
576,9,Ticks_ISO_T2_8,137,1,48,28,602029788
576,9,Ticks_ISO_T2_8,138,5,42,127,602795360
576,9,Ticks_ISO_T2_8,139,1,48,33,602852056
576,9,Ticks_ISO_T2_8,140,5,42,127,603595116
576,9,Ticks_ISO_T2_8,141,1,48,28,603612524
576,9,Ticks_ISO_T2_8,142,1,48,25,604387708
576,9,Ticks_ISO_T2_8,143,5,42,127,604395068
576,9,Ticks_ISO_T2_8,144,1,48,32,605186840
576,9,Ticks_ISO_T2_8,145,5,42,127,605194576
576,9,Ticks_ISO_T2_8,146,1,48,29,605992408
576,9,Ticks_ISO_T2_8,147,5,42,127,605995356
576,9,Ticks_ISO_T2_8,148,1,48,26,606790800
576,9,Ticks_ISO_T2_8,149,5,42,127,606795016
576,9,Ticks_ISO_T2_8,150,5,42,127,607595052
576,9,Ticks_ISO_T2_8,151,1,48,27,607601768
576,9,Ticks_ISO_T2_8,152,5,42,127,608394564
576,9,Ticks_ISO_T2_8,153,1,48,26,608423044
576,9,Ticks_ISO_T2_8,154,1,48,29,609186328
576,9,Ticks_ISO_T2_8,155,5,42,127,609195336
576,9,Ticks_ISO_T2_8,156,5,42,127,609995176
576,9,Ticks_ISO_T2_8,157,1,48,31,610026268
576,9,Ticks_ISO_T2_8,158,5,42,127,610794912
576,9,Ticks_ISO_T2_8,159,1,48,29,610820400
576,9,Ticks_ISO_T2_8,160,5,42,127,611595016
576,9,Ticks_ISO_T2_8,161,1,48,32,611609356
576,9,Ticks_ISO_T2_8,162,5,42,127,612395424
576,9,Ticks_ISO_T2_8,163,1,48,25,612406096
576,9,Ticks_ISO_T2_8,164,5,42,127,613195084
576,9,Ticks_ISO_T2_8,165,1,48,27,613223784
576,9,Ticks_ISO_T2_8,166,5,42,127,613994816
576,9,Ticks_ISO_T2_8,167,1,48,30,614052240
576,9,Ticks_ISO_T2_8,168,1,48,21,614791372
576,9,Ticks_ISO_T2_8,169,5,42,127,614794840
576,9,Ticks_ISO_T2_8,170,1,48,26,615564696
576,9,Ticks_ISO_T2_8,171,5,42,127,615595396
576,9,Ticks_ISO_T2_8,172,5,42,127,616395088
576,9,Ticks_ISO_T2_8,173,1,48,28,616403520
576,9,Ticks_ISO_T2_8,174,1,48,29,617182292
576,9,Ticks_ISO_T2_8,175,5,42,127,617194888
576,9,Ticks_ISO_T2_8,176,1,48,28,617978656
576,9,Ticks_ISO_T2_8,177,5,42,127,617994696
576,9,Ticks_ISO_T2_8,178,1,48,19,618777272
576,9,Ticks_ISO_T2_8,179,5,42,127,618795476
576,9,Ticks_ISO_T2_8,180,1,48,25,619565556
576,9,Ticks_ISO_T2_8,181,5,42,127,619595060
576,9,Ticks_ISO_T2_8,182,1,48,27,620377188
576,9,Ticks_ISO_T2_8,183,5,42,127,620394868
576,9,Ticks_ISO_T2_8,184,5,42,127,621194608
576,9,Ticks_ISO_T2_8,185,1,48,25,621200872
576,9,Ticks_ISO_T2_8,186,1,48,24,621964684
576,9,Ticks_ISO_T2_8,187,5,42,127,621995312
576,9,Ticks_ISO_T2_8,188,1,48,25,622784788
576,9,Ticks_ISO_T2_8,189,5,42,127,622795068
576,9,Ticks_ISO_T2_8,190,1,48,34,623571208
576,9,Ticks_ISO_T2_8,191,5,42,127,623594800
576,9,Ticks_ISO_T2_8,192,1,48,32,624381564
576,9,Ticks_ISO_T2_8,193,5,42,127,624394536
576,9,Ticks_ISO_T2_8,194,5,42,127,625195544
576,9,Ticks_ISO_T2_8,195,1,48,29,625199788
576,9,Ticks_ISO_T2_8,196,1,48,27,625988432
576,9,Ticks_ISO_T2_8,197,5,42,127,625995048
576,9,Ticks_ISO_T2_8,198,1,48,30,626762812
576,9,Ticks_ISO_T2_8,199,5,42,127,626794856
576,9,Ticks_ISO_T2_8,200,1,48,32,627581616
576,9,Ticks_ISO_T2_8,201,5,42,127,627594588
576,9,Ticks_ISO_T2_8,202,1,48,27,628383444
576,9,Ticks_ISO_T2_8,203,5,42,127,628395520
576,9,Ticks_ISO_T2_8,204,5,42,127,629195060
576,9,Ticks_ISO_T2_8,205,1,48,25,629207532
576,9,Ticks_ISO_T2_8,206,5,42,127,629994796
576,9,Ticks_ISO_T2_8,207,1,48,28,630003152
576,9,Ticks_ISO_T2_8,208,5,42,127,630794680
576,9,Ticks_ISO_T2_8,209,1,48,31,630798772
576,9,Ticks_ISO_T2_8,210,1,48,26,631588992
576,9,Ticks_ISO_T2_8,211,5,42,127,631595528
576,9,Ticks_ISO_T2_8,212,5,42,127,632395268
576,9,Ticks_ISO_T2_8,213,1,48,34,632417764
576,9,Ticks_ISO_T2_8,214,1,48,34,633173792
576,9,Ticks_ISO_T2_8,215,5,42,127,633194844
576,9,Ticks_ISO_T2_8,216,1,48,33,633984820
576,9,Ticks_ISO_T2_8,217,5,42,127,633994580
576,9,Ticks_ISO_T2_8,218,5,42,127,634795364
576,9,Ticks_ISO_T2_8,219,1,48,23,634808008
576,9,Ticks_ISO_T2_8,220,1,48,28,635580048
576,9,Ticks_ISO_T2_8,221,5,42,127,635595264
576,9,Ticks_ISO_T2_8,222,5,42,127,636394708
576,9,Ticks_ISO_T2_8,223,1,48,24,636405156
576,9,Ticks_ISO_T2_8,224,5,42,127,637194516
576,9,Ticks_ISO_T2_8,225,1,48,23,637202344
576,9,Ticks_ISO_T2_8,226,1,48,30,637983288
576,9,Ticks_ISO_T2_8,227,5,42,127,637995292
576,9,Ticks_ISO_T2_8,228,5,42,127,638795400
576,9,Ticks_ISO_T2_8,229,1,48,28,638807280
576,9,Ticks_ISO_T2_8,230,5,42,127,639594836
576,9,Ticks_ISO_T2_8,231,1,48,29,639634460
576,9,Ticks_ISO_T2_8,232,5,42,127,640394572
576,9,Ticks_ISO_T2_8,233,1,48,27,640444088
576,9,Ticks_ISO_T2_8,234,5,42,127,641195424
576,9,Ticks_ISO_T2_8,235,1,48,29,641233424
576,9,Ticks_ISO_T2_8,0,9999,9999,9999,545992780
576,9,Ticks_ISO_T2_8,1,9999,9999,9999,546792536
576,9,Ticks_ISO_T2_8,2,9999,9999,9999,547592292
576,9,Ticks_ISO_T2_8,3,9999,9999,9999,548393020
576,9,Ticks_ISO_T2_8,4,9999,9999,9999,549192768
576,9,Ticks_ISO_T2_8,5,9999,9999,9999,549992500
576,9,Ticks_ISO_T2_8,6,9999,9999,9999,550792308
576,9,Ticks_ISO_T2_8,7,9999,9999,9999,551593020
576,9,Ticks_ISO_T2_8,8,9999,9999,9999,552392780
576,9,Ticks_ISO_T2_8,9,9999,9999,9999,553192512
576,9,Ticks_ISO_T2_8,10,9999,9999,9999,553992248
576,9,Ticks_ISO_T2_8,11,9999,9999,9999,554793028
576,9,Ticks_ISO_T2_8,12,9999,9999,9999,555592760
576,9,Ticks_ISO_T2_8,13,9999,9999,9999,556392564
576,9,Ticks_ISO_T2_8,14,9999,9999,9999,557192296
576,9,Ticks_ISO_T2_8,15,9999,9999,9999,557993076
576,9,Ticks_ISO_T2_8,16,9999,9999,9999,558792760
576,9,Ticks_ISO_T2_8,17,9999,9999,9999,559592492
576,9,Ticks_ISO_T2_8,18,9999,9999,9999,560392304
576,9,Ticks_ISO_T2_8,19,9999,9999,9999,561193008
576,9,Ticks_ISO_T2_8,20,9999,9999,9999,561992748
576,9,Ticks_ISO_T2_8,21,9999,9999,9999,562792524
576,9,Ticks_ISO_T2_8,22,9999,9999,9999,563592288
576,9,Ticks_ISO_T2_8,23,9999,9999,9999,564393072
576,9,Ticks_ISO_T2_8,24,9999,9999,9999,565192756
576,9,Ticks_ISO_T2_8,25,9999,9999,9999,565992560
576,9,Ticks_ISO_T2_8,26,9999,9999,9999,566792292
576,9,Ticks_ISO_T2_8,27,9999,9999,9999,567593072
576,9,Ticks_ISO_T2_8,28,9999,9999,9999,568392812
576,9,Ticks_ISO_T2_8,29,9999,9999,9999,569192548
576,9,Ticks_ISO_T2_8,30,9999,9999,9999,569992276
576,9,Ticks_ISO_T2_8,31,9999,9999,9999,570793060
576,9,Ticks_ISO_T2_8,32,9999,9999,9999,571592820
576,9,Ticks_ISO_T2_8,33,9999,9999,9999,572392552
576,9,Ticks_ISO_T2_8,34,9999,9999,9999,573192280
576,9,Ticks_ISO_T2_8,35,9999,9999,9999,573993060
576,9,Ticks_ISO_T2_8,36,9999,9999,9999,574792792
576,9,Ticks_ISO_T2_8,37,9999,9999,9999,575592532
576,9,Ticks_ISO_T2_8,38,9999,9999,9999,576392260
576,9,Ticks_ISO_T2_8,39,9999,9999,9999,577193040
576,9,Ticks_ISO_T2_8,40,9999,9999,9999,577992796
576,9,Ticks_ISO_T2_8,41,9999,9999,9999,578792536
576,9,Ticks_ISO_T2_8,42,9999,9999,9999,579592272
576,9,Ticks_ISO_T2_8,43,9999,9999,9999,580393048
576,9,Ticks_ISO_T2_8,44,9999,9999,9999,581192780
576,9,Ticks_ISO_T2_8,45,9999,9999,9999,581992516
576,9,Ticks_ISO_T2_8,46,9999,9999,9999,582792248
576,9,Ticks_ISO_T2_8,47,9999,9999,9999,583593028
576,9,Ticks_ISO_T2_8,48,9999,9999,9999,584392784
576,9,Ticks_ISO_T2_8,49,9999,9999,9999,585192524
576,9,Ticks_ISO_T2_8,50,9999,9999,9999,585992260
576,9,Ticks_ISO_T2_8,51,9999,9999,9999,586793040
576,9,Ticks_ISO_T2_8,52,9999,9999,9999,587592768
576,9,Ticks_ISO_T2_8,53,9999,9999,9999,588392508
576,9,Ticks_ISO_T2_8,54,9999,9999,9999,589192240
576,9,Ticks_ISO_T2_8,55,9999,9999,9999,589993020
576,9,Ticks_ISO_T2_8,56,9999,9999,9999,590792780
576,9,Ticks_ISO_T2_8,57,9999,9999,9999,591592516
576,9,Ticks_ISO_T2_8,58,9999,9999,9999,592392248
576,9,Ticks_ISO_T2_8,59,9999,9999,9999,593193028
576,9,Ticks_ISO_T2_8,60,9999,9999,9999,593992760
576,9,Ticks_ISO_T2_8,61,9999,9999,9999,594792496
576,9,Ticks_ISO_T2_8,62,9999,9999,9999,595592300
576,9,Ticks_ISO_T2_8,63,9999,9999,9999,596393012
576,9,Ticks_ISO_T2_8,64,9999,9999,9999,597192768
576,9,Ticks_ISO_T2_8,65,9999,9999,9999,597992504
576,9,Ticks_ISO_T2_8,66,9999,9999,9999,598792308
576,9,Ticks_ISO_T2_8,67,9999,9999,9999,599593012
576,9,Ticks_ISO_T2_8,68,9999,9999,9999,600392752
576,9,Ticks_ISO_T2_8,69,9999,9999,9999,601192560
576,9,Ticks_ISO_T2_8,70,9999,9999,9999,601992292
576,9,Ticks_ISO_T2_8,71,9999,9999,9999,602793072
576,9,Ticks_ISO_T2_8,72,9999,9999,9999,603592752
576,9,Ticks_ISO_T2_8,73,9999,9999,9999,604392556
576,9,Ticks_ISO_T2_8,74,9999,9999,9999,605192288
576,9,Ticks_ISO_T2_8,75,9999,9999,9999,605993068
576,9,Ticks_ISO_T2_8,76,9999,9999,9999,606792804
576,9,Ticks_ISO_T2_8,77,9999,9999,9999,607592544
576,9,Ticks_ISO_T2_8,78,9999,9999,9999,608392276
576,9,Ticks_ISO_T2_8,79,9999,9999,9999,609193048
576,9,Ticks_ISO_T2_8,80,9999,9999,9999,609992816
576,9,Ticks_ISO_T2_8,81,9999,9999,9999,610792548
576,9,Ticks_ISO_T2_8,82,9999,9999,9999,611592280
576,9,Ticks_ISO_T2_8,83,9999,9999,9999,612393060
576,9,Ticks_ISO_T2_8,84,9999,9999,9999,613192796
576,9,Ticks_ISO_T2_8,85,9999,9999,9999,613992528
576,9,Ticks_ISO_T2_8,86,9999,9999,9999,614792256
576,9,Ticks_ISO_T2_8,87,9999,9999,9999,615593036
576,9,Ticks_ISO_T2_8,88,9999,9999,9999,616392800
576,9,Ticks_ISO_T2_8,89,9999,9999,9999,617192528
576,9,Ticks_ISO_T2_8,90,9999,9999,9999,617992260
576,9,Ticks_ISO_T2_8,91,9999,9999,9999,618793040
576,9,Ticks_ISO_T2_8,92,9999,9999,9999,619592772
576,9,Ticks_ISO_T2_8,93,9999,9999,9999,620392508
576,9,Ticks_ISO_T2_8,94,9999,9999,9999,621192248
576,9,Ticks_ISO_T2_8,95,9999,9999,9999,621993024
576,9,Ticks_ISO_T2_8,96,9999,9999,9999,622792780
576,9,Ticks_ISO_T2_8,97,9999,9999,9999,623592512
576,9,Ticks_ISO_T2_8,98,9999,9999,9999,624392248
576,9,Ticks_ISO_T2_8,99,9999,9999,9999,625193032
576,9,Ticks_ISO_T2_8,100,9999,9999,9999,625992760
576,9,Ticks_ISO_T2_8,101,9999,9999,9999,626792496
576,9,Ticks_ISO_T2_8,102,9999,9999,9999,627592300
576,9,Ticks_ISO_T2_8,103,9999,9999,9999,628393008
576,9,Ticks_ISO_T2_8,104,9999,9999,9999,629192772
576,9,Ticks_ISO_T2_8,105,9999,9999,9999,629992508
576,9,Ticks_ISO_T2_8,106,9999,9999,9999,630792244
576,9,Ticks_ISO_T2_8,107,9999,9999,9999,631593016
576,9,Ticks_ISO_T2_8,108,9999,9999,9999,632392756
576,9,Ticks_ISO_T2_8,109,9999,9999,9999,633192556
576,9,Ticks_ISO_T2_8,110,9999,9999,9999,633992292
576,9,Ticks_ISO_T2_8,111,9999,9999,9999,634793076
576,9,Ticks_ISO_T2_8,112,9999,9999,9999,635592752
576,9,Ticks_ISO_T2_8,113,9999,9999,9999,636392496
576,9,Ticks_ISO_T2_8,114,9999,9999,9999,637192300
576,9,Ticks_ISO_T2_8,115,9999,9999,9999,637993076
576,9,Ticks_ISO_T2_8,116,9999,9999,9999,638792816
576,9,Ticks_ISO_T2_8,117,9999,9999,9999,639592548
576,9,Ticks_ISO_T2_8,118,9999,9999,9999,640392284
576,9,Ticks_ISO_T2_8,119,9999,9999,9999,641193064
577,21,Ticks_Linear_5,0,5,42,127,652985840
577,21,Ticks_Linear_5,1,5,42,127,653466064
577,21,Ticks_Linear_5,2,5,42,127,653946092
577,21,Ticks_Linear_5,3,5,42,127,654425444
577,21,Ticks_Linear_5,4,1,48,36,654890220
577,21,Ticks_Linear_5,5,5,42,127,654905912
577,21,Ticks_Linear_5,6,1,48,37,655384008
577,21,Ticks_Linear_5,7,5,42,127,655396176
577,21,Ticks_Linear_5,8,1,48,39,655880780
577,21,Ticks_Linear_5,9,5,42,127,655885692
577,21,Ticks_Linear_5,10,5,42,127,656376040
577,21,Ticks_Linear_5,11,1,48,38,656381700
577,21,Ticks_Linear_5,12,5,42,127,656865704
577,21,Ticks_Linear_5,13,1,48,41,656876236
577,21,Ticks_Linear_5,14,5,42,127,657356264
577,21,Ticks_Linear_5,15,1,48,37,657360580
577,21,Ticks_Linear_5,16,1,48,38,657848732
577,21,Ticks_Linear_5,17,5,42,127,657855812
577,21,Ticks_Linear_5,18,1,48,38,658335300
577,21,Ticks_Linear_5,19,5,42,127,658355660
577,21,Ticks_Linear_5,20,1,48,35,658839192
577,21,Ticks_Linear_5,21,5,42,127,658856308
577,21,Ticks_Linear_5,22,1,48,38,659319944
577,21,Ticks_Linear_5,23,5,42,127,659355932
577,21,Ticks_Linear_5,24,1,48,33,659840236
577,21,Ticks_Linear_5,25,5,42,127,659855856
577,21,Ticks_Linear_5,26,1,48,34,660337920
577,21,Ticks_Linear_5,27,5,42,127,660365812
577,21,Ticks_Linear_5,28,1,48,32,660844588
577,21,Ticks_Linear_5,29,5,42,127,660875700
577,21,Ticks_Linear_5,30,1,48,33,661333860
577,21,Ticks_Linear_5,31,5,42,127,661385732
577,21,Ticks_Linear_5,32,1,48,34,661862548
577,21,Ticks_Linear_5,33,5,42,127,661895764
577,21,Ticks_Linear_5,34,1,48,33,662371828
577,21,Ticks_Linear_5,35,5,42,127,662405648
577,21,Ticks_Linear_5,36,1,48,33,662905608
577,21,Ticks_Linear_5,37,5,42,127,662925644
577,21,Ticks_Linear_5,38,1,48,32,663437208
577,21,Ticks_Linear_5,39,5,42,127,663445788
577,21,Ticks_Linear_5,40,1,48,33,663949112
577,21,Ticks_Linear_5,41,5,42,127,663966008
577,21,Ticks_Linear_5,42,5,42,127,664486232
577,21,Ticks_Linear_5,43,1,48,31,664487796
577,21,Ticks_Linear_5,44,5,42,127,665005476
577,21,Ticks_Linear_5,45,1,48,30,665014520
577,21,Ticks_Linear_5,46,1,48,30,665517092
577,21,Ticks_Linear_5,47,5,42,127,665535872
577,21,Ticks_Linear_5,48,1,48,32,666045120
577,21,Ticks_Linear_5,49,5,42,127,666066200
577,21,Ticks_Linear_5,50,1,48,32,666565712
577,21,Ticks_Linear_5,51,5,42,127,666595704
577,21,Ticks_Linear_5,52,1,48,34,667110416
577,21,Ticks_Linear_5,53,5,42,127,667126032
577,21,Ticks_Linear_5,54,1,48,30,667645168
577,21,Ticks_Linear_5,55,5,42,127,667655760
577,21,Ticks_Linear_5,56,1,48,29,668163364
577,21,Ticks_Linear_5,57,5,42,127,668196124
577,21,Ticks_Linear_5,58,1,48,33,668709636
577,21,Ticks_Linear_5,59,5,42,127,668735816
577,21,Ticks_Linear_5,60,1,48,34,669261604
577,21,Ticks_Linear_5,61,5,42,127,669275656
577,21,Ticks_Linear_5,62,5,42,127,669816248
577,21,Ticks_Linear_5,63,1,48,30,669825812
577,21,Ticks_Linear_5,64,5,42,127,670355792
577,21,Ticks_Linear_5,65,1,48,33,670375988
577,21,Ticks_Linear_5,66,5,42,127,670905616
577,21,Ticks_Linear_5,67,1,48,29,670925212
577,21,Ticks_Linear_5,68,5,42,127,671455636
577,21,Ticks_Linear_5,69,1,48,30,671475764
577,21,Ticks_Linear_5,70,5,42,127,672005512
577,21,Ticks_Linear_5,71,1,48,35,672008632
577,21,Ticks_Linear_5,72,5,42,127,672556436
577,21,Ticks_Linear_5,73,1,48,29,672590932
577,21,Ticks_Linear_5,74,5,42,127,673106380
577,21,Ticks_Linear_5,75,1,48,28,673119684
577,21,Ticks_Linear_5,76,5,42,127,673666516
577,21,Ticks_Linear_5,77,1,48,31,673669932
577,21,Ticks_Linear_5,78,1,48,34,674228196
577,21,Ticks_Linear_5,79,5,42,127,674235652
577,21,Ticks_Linear_5,80,5,42,127,674796016
577,21,Ticks_Linear_5,81,1,48,29,674813960
577,21,Ticks_Linear_5,82,5,42,127,675356076
577,21,Ticks_Linear_5,83,1,48,32,675386004
577,21,Ticks_Linear_5,84,5,42,127,675916284
577,21,Ticks_Linear_5,85,1,48,29,675951080
577,21,Ticks_Linear_5,86,5,42,127,676485628
577,21,Ticks_Linear_5,87,1,48,31,676502520
577,21,Ticks_Linear_5,88,1,48,31,677034780
577,21,Ticks_Linear_5,89,5,42,127,677055812
577,21,Ticks_Linear_5,90,1,48,33,677590816
577,21,Ticks_Linear_5,91,5,42,127,677626280
577,21,Ticks_Linear_5,92,1,48,33,678174396
577,21,Ticks_Linear_5,93,5,42,127,678195476
577,21,Ticks_Linear_5,94,1,48,31,678744712
577,21,Ticks_Linear_5,95,5,42,127,678765944
577,21,Ticks_Linear_5,96,1,48,30,679322740
577,21,Ticks_Linear_5,97,5,42,127,679345424
577,21,Ticks_Linear_5,98,1,48,30,679911508
577,21,Ticks_Linear_5,99,5,42,127,679926224
577,21,Ticks_Linear_5,100,5,42,127,680505688
577,21,Ticks_Linear_5,101,1,48,29,680509484
577,21,Ticks_Linear_5,102,5,42,127,681086412
577,21,Ticks_Linear_5,103,1,48,25,681090804
577,21,Ticks_Linear_5,104,1,48,27,681651316
577,21,Ticks_Linear_5,105,5,42,127,681665888
577,21,Ticks_Linear_5,106,1,48,32,682244184
577,21,Ticks_Linear_5,107,5,42,127,682255604
577,21,Ticks_Linear_5,108,1,48,27,682828352
577,21,Ticks_Linear_5,109,5,42,127,682845616
577,21,Ticks_Linear_5,110,1,48,30,683411320
577,21,Ticks_Linear_5,111,5,42,127,683436528
577,21,Ticks_Linear_5,112,1,48,30,684007632
577,21,Ticks_Linear_5,113,5,42,127,684026464
577,21,Ticks_Linear_5,114,1,48,27,684611564
577,21,Ticks_Linear_5,115,5,42,127,684616176
577,21,Ticks_Linear_5,116,1,48,28,685213964
577,21,Ticks_Linear_5,117,5,42,127,685216376
577,21,Ticks_Linear_5,118,1,48,29,685810716
577,21,Ticks_Linear_5,119,5,42,127,685816148
577,21,Ticks_Linear_5,120,5,42,127,686416352
577,21,Ticks_Linear_5,121,1,48,30,686430104
577,21,Ticks_Linear_5,122,5,42,127,687016252
577,21,Ticks_Linear_5,123,1,48,30,687038420
577,21,Ticks_Linear_5,124,5,42,127,687616332
577,21,Ticks_Linear_5,125,1,48,29,687636148
577,21,Ticks_Linear_5,126,1,48,32,688202244
577,21,Ticks_Linear_5,127,5,42,127,688225880
577,21,Ticks_Linear_5,128,1,48,32,688809488
577,21,Ticks_Linear_5,129,5,42,127,688836064
577,21,Ticks_Linear_5,130,1,48,28,689425140
577,21,Ticks_Linear_5,131,5,42,127,689446148
577,21,Ticks_Linear_5,132,1,48,29,690024816
577,21,Ticks_Linear_5,133,5,42,127,690055408
577,21,Ticks_Linear_5,134,1,48,31,690620540
577,21,Ticks_Linear_5,135,5,42,127,690666112
577,21,Ticks_Linear_5,136,1,48,27,691253696
577,21,Ticks_Linear_5,137,5,42,127,691286308
577,21,Ticks_Linear_5,138,1,48,28,691859880
577,21,Ticks_Linear_5,139,5,42,127,691906148
577,21,Ticks_Linear_5,140,1,48,32,692482120
577,21,Ticks_Linear_5,141,5,42,127,692525448
577,21,Ticks_Linear_5,142,1,48,28,693123584
577,21,Ticks_Linear_5,143,5,42,127,693146084
577,21,Ticks_Linear_5,144,1,48,32,693759152
577,21,Ticks_Linear_5,145,5,42,127,693765484
577,21,Ticks_Linear_5,146,1,48,30,694382484
577,21,Ticks_Linear_5,147,5,42,127,694396160
577,21,Ticks_Linear_5,148,1,48,28,694995892
577,21,Ticks_Linear_5,149,5,42,127,695025964
577,21,Ticks_Linear_5,150,1,48,28,695618936
577,21,Ticks_Linear_5,151,5,42,127,695655892
577,21,Ticks_Linear_5,152,1,48,29,696268960
577,21,Ticks_Linear_5,153,5,42,127,696285696
577,21,Ticks_Linear_5,154,5,42,127,696916380
577,21,Ticks_Linear_5,155,1,48,30,696933272
577,21,Ticks_Linear_5,156,1,48,32,697531756
577,21,Ticks_Linear_5,157,5,42,127,697556436
577,21,Ticks_Linear_5,158,1,48,32,698130084
577,21,Ticks_Linear_5,159,5,42,127,698196476
577,21,Ticks_Linear_5,160,1,48,30,698767432
577,21,Ticks_Linear_5,161,5,42,127,698836316
577,21,Ticks_Linear_5,162,1,48,29,699454972
577,21,Ticks_Linear_5,163,5,42,127,699476352
577,21,Ticks_Linear_5,164,5,42,127,700116200
577,21,Ticks_Linear_5,165,1,48,33,700179604
577,21,Ticks_Linear_5,166,1,48,33,700756192
577,21,Ticks_Linear_5,167,5,42,127,700765668
577,21,Ticks_Linear_5,168,5,42,127,701415772
577,21,Ticks_Linear_5,169,1,48,29,701425260
577,21,Ticks_Linear_5,170,1,48,31,702066216
577,21,Ticks_Linear_5,171,5,42,127,702067480
577,21,Ticks_Linear_5,172,5,42,127,702716312
577,21,Ticks_Linear_5,173,1,48,32,702748792
577,21,Ticks_Linear_5,174,5,42,127,703365712
577,21,Ticks_Linear_5,175,1,48,32,703381864
577,21,Ticks_Linear_5,176,1,48,32,704011644
577,21,Ticks_Linear_5,177,5,42,127,704025844
577,21,Ticks_Linear_5,178,1,48,30,704673320
577,21,Ticks_Linear_5,179,5,42,127,704685676
577,21,Ticks_Linear_5,180,1,48,30,705305084
577,21,Ticks_Linear_5,181,5,42,127,705345788
577,21,Ticks_Linear_5,182,1,48,30,705951780
577,21,Ticks_Linear_5,183,5,42,127,706006368
577,21,Ticks_Linear_5,184,1,48,27,706633476
577,21,Ticks_Linear_5,185,5,42,127,706665728
577,21,Ticks_Linear_5,186,1,48,28,707322520
577,21,Ticks_Linear_5,187,5,42,127,707335672
577,21,Ticks_Linear_5,188,1,48,32,707991768
577,21,Ticks_Linear_5,189,5,42,127,708006264
577,21,Ticks_Linear_5,190,1,48,32,708670772
577,21,Ticks_Linear_5,191,5,42,127,708676056
577,21,Ticks_Linear_5,192,5,42,127,709345636
577,21,Ticks_Linear_5,193,1,48,28,709405148
577,21,Ticks_Linear_5,194,5,42,127,710016380
577,21,Ticks_Linear_5,195,1,48,28,710045864
577,21,Ticks_Linear_5,196,1,48,33,710668452
577,21,Ticks_Linear_5,197,5,42,127,710696272
577,21,Ticks_Linear_5,198,1,48,30,711333268
577,21,Ticks_Linear_5,199,5,42,127,711376176
577,21,Ticks_Linear_5,200,1,48,28,712023132
577,21,Ticks_Linear_5,201,5,42,127,712056128
577,21,Ticks_Linear_5,202,1,48,28,712692696
577,21,Ticks_Linear_5,203,5,42,127,712736032
577,21,Ticks_Linear_5,204,1,48,32,713390356
577,21,Ticks_Linear_5,205,5,42,127,713416012
577,21,Ticks_Linear_5,206,5,42,127,714106156
577,21,Ticks_Linear_5,207,1,48,32,714107644
577,21,Ticks_Linear_5,208,1,48,29,714790280
577,21,Ticks_Linear_5,209,5,42,127,714796616
577,21,Ticks_Linear_5,210,1,48,31,715475876
577,21,Ticks_Linear_5,211,5,42,127,715485504
577,21,Ticks_Linear_5,212,1,48,34,716145272
577,21,Ticks_Linear_5,213,5,42,127,716175716
577,21,Ticks_Linear_5,214,1,48,35,716851604
577,21,Ticks_Linear_5,215,5,42,127,716865952
577,21,Ticks_Linear_5,216,5,42,127,717566456
577,21,Ticks_Linear_5,217,1,48,30,717583888
577,21,Ticks_Linear_5,218,1,48,32,718236932
577,21,Ticks_Linear_5,219,5,42,127,718265752
577,21,Ticks_Linear_5,220,1,48,30,718930088
577,21,Ticks_Linear_5,221,5,42,127,718966072
577,21,Ticks_Linear_5,222,1,48,31,719620472
577,21,Ticks_Linear_5,223,5,42,127,719665448
577,21,Ticks_Linear_5,224,1,48,31,720326360
577,21,Ticks_Linear_5,225,5,42,127,720365868
577,21,Ticks_Linear_5,226,1,48,27,721044284
577,21,Ticks_Linear_5,227,5,42,127,721075500
577,21,Ticks_Linear_5,228,1,48,30,721756840
577,21,Ticks_Linear_5,229,5,42,127,721786456
577,21,Ticks_Linear_5,230,5,42,127,722495724
577,21,Ticks_Linear_5,231,1,48,29,722500412
577,21,Ticks_Linear_5,232,5,42,127,723205508
577,21,Ticks_Linear_5,233,1,48,27,723223444
577,21,Ticks_Linear_5,234,5,42,127,723916412
577,21,Ticks_Linear_5,235,1,48,29,723919536
577,21,Ticks_Linear_5,236,1,48,32,724631740
577,21,Ticks_Linear_5,237,5,42,127,724635904
577,21,Ticks_Linear_5,238,5,42,127,725355880
577,21,Ticks_Linear_5,239,1,48,29,725372844
577,21,Ticks_Linear_5,240,5,42,127,726075772
577,21,Ticks_Linear_5,241,1,48,26,726088032
577,21,Ticks_Linear_5,242,1,48,29,726788728
577,21,Ticks_Linear_5,243,5,42,127,726795584
577,21,Ticks_Linear_5,244,5,42,127,727515484
577,21,Ticks_Linear_5,245,1,48,29,727526316
577,21,Ticks_Linear_5,246,5,42,127,728245560
577,21,Ticks_Linear_5,247,1,48,29,728251820
577,21,Ticks_Linear_5,248,5,42,127,728975688
577,21,Ticks_Linear_5,249,1,48,23,728984804
577,21,Ticks_Linear_5,250,5,42,127,729705840
577,21,Ticks_Linear_5,251,1,48,31,729718396
577,21,Ticks_Linear_5,252,5,42,127,730436292
577,21,Ticks_Linear_5,253,1,48,29,730460532
577,21,Ticks_Linear_5,254,5,42,127,731166220
577,21,Ticks_Linear_5,255,1,48,28,731201092
577,21,Ticks_Linear_5,256,5,42,127,731906488
577,21,Ticks_Linear_5,257,1,48,28,731935296
577,21,Ticks_Linear_5,258,1,48,35,732651264
577,21,Ticks_Linear_5,259,5,42,127,732656100
577,21,Ticks_Linear_5,260,5,42,127,733396372
577,21,Ticks_Linear_5,261,1,48,30,733416796
577,21,Ticks_Linear_5,262,5,42,127,734135584
577,21,Ticks_Linear_5,263,1,48,33,734144400
577,21,Ticks_Linear_5,264,1,48,32,734851808
577,21,Ticks_Linear_5,265,5,42,127,734876264
577,21,Ticks_Linear_5,266,1,48,36,735576872
577,21,Ticks_Linear_5,267,5,42,127,735625592
577,21,Ticks_Linear_5,268,1,48,33,736353464
577,21,Ticks_Linear_5,269,5,42,127,736376112
577,21,Ticks_Linear_5,270,5,42,127,737125964
577,21,Ticks_Linear_5,271,1,48,32,737133812
577,21,Ticks_Linear_5,272,5,42,127,737876264
577,21,Ticks_Linear_5,273,1,48,26,737959064
577,21,Ticks_Linear_5,274,5,42,127,738626184
577,21,Ticks_Linear_5,275,1,48,30,738647136
577,21,Ticks_Linear_5,276,5,42,127,739385920
577,21,Ticks_Linear_5,277,1,48,24,739412772
577,21,Ticks_Linear_5,278,1,48,27,740144676
577,21,Ticks_Linear_5,279,5,42,127,740146244
577,21,Ticks_Linear_5,280,5,42,127,740906356
577,21,Ticks_Linear_5,281,1,48,29,740912916
577,21,Ticks_Linear_5,282,1,48,23,741653536
577,21,Ticks_Linear_5,283,5,42,127,741666160
577,21,Ticks_Linear_5,284,1,48,26,742397620
577,21,Ticks_Linear_5,285,5,42,127,742426120
577,21,Ticks_Linear_5,286,1,48,30,743167096
577,21,Ticks_Linear_5,287,5,42,127,743196112
577,21,Ticks_Linear_5,288,1,48,29,743932732
577,21,Ticks_Linear_5,289,5,42,127,743966032
577,21,Ticks_Linear_5,290,1,48,24,744711864
577,21,Ticks_Linear_5,291,5,42,127,744736024
577,21,Ticks_Linear_5,292,5,42,127,745506100
577,21,Ticks_Linear_5,293,1,48,23,745509292
577,21,Ticks_Linear_5,294,1,48,26,746253268
577,21,Ticks_Linear_5,295,5,42,127,746276088
577,21,Ticks_Linear_5,296,1,48,25,746993384
577,21,Ticks_Linear_5,297,5,42,127,747055516
577,21,Ticks_Linear_5,298,1,48,27,747762856
577,21,Ticks_Linear_5,299,5,42,127,747835988
577,21,Ticks_Linear_5,300,1,48,27,748560108
577,21,Ticks_Linear_5,301,5,42,127,748616092
577,21,Ticks_Linear_5,302,1,48,26,749390016
577,21,Ticks_Linear_5,303,5,42,127,749396344
577,21,Ticks_Linear_5,304,1,48,23,750158064
577,21,Ticks_Linear_5,305,5,42,127,750175700
577,21,Ticks_Linear_5,306,5,42,127,750966072
577,21,Ticks_Linear_5,307,1,48,24,750971804
577,21,Ticks_Linear_5,308,5,42,127,751755756
577,21,Ticks_Linear_5,309,1,48,25,751767792
577,21,Ticks_Linear_5,310,1,48,23,752536188
577,21,Ticks_Linear_5,311,5,42,127,752546036
577,21,Ticks_Linear_5,312,1,48,25,753332636
577,21,Ticks_Linear_5,313,5,42,127,753335900
577,21,Ticks_Linear_5,314,5,42,127,754126120
577,21,Ticks_Linear_5,315,1,48,20,754146016
577,21,Ticks_Linear_5,316,1,48,24,754829616
577,21,Ticks_Linear_5,317,5,42,127,754925824
577,21,Ticks_Linear_5,318,1,48,26,755601556
577,21,Ticks_Linear_5,319,5,42,127,755725920
577,21,Ticks_Linear_5,320,1,48,24,756460164
577,21,Ticks_Linear_5,321,5,42,127,756525436
577,21,Ticks_Linear_5,322,5,42,127,757326064
577,21,Ticks_Linear_5,323,1,48,22,757351796
577,21,Ticks_Linear_5,324,5,42,127,758125936
577,21,Ticks_Linear_5,325,1,48,23,758152344
577,21,Ticks_Linear_5,326,1,48,22,758900896
577,21,Ticks_Linear_5,327,5,42,127,758935836
577,21,Ticks_Linear_5,328,1,48,19,759710804
577,21,Ticks_Linear_5,329,5,42,127,759745768
577,21,Ticks_Linear_5,330,1,48,25,760516172
577,21,Ticks_Linear_5,331,5,42,127,760555752
577,21,Ticks_Linear_5,332,1,48,30,761345700
577,21,Ticks_Linear_5,333,5,42,127,761365812
577,21,Ticks_Linear_5,334,1,48,29,762137336
577,21,Ticks_Linear_5,335,5,42,127,762175792
577,21,Ticks_Linear_5,0,9999,9999,9999,652983392
577,21,Ticks_Linear_5,1,9999,9999,9999,653463616
577,21,Ticks_Linear_5,2,9999,9999,9999,653943868
577,21,Ticks_Linear_5,3,9999,9999,9999,654423148
577,21,Ticks_Linear_5,4,9999,9999,9999,654903392
577,21,Ticks_Linear_5,5,9999,9999,9999,655393876
577,21,Ticks_Linear_5,6,9999,9999,9999,655883320
577,21,Ticks_Linear_5,7,9999,9999,9999,656373816
577,21,Ticks_Linear_5,8,9999,9999,9999,656863328
577,21,Ticks_Linear_5,9,9999,9999,9999,657353816
577,21,Ticks_Linear_5,10,9999,9999,9999,657853512
577,21,Ticks_Linear_5,11,9999,9999,9999,658353212
577,21,Ticks_Linear_5,12,9999,9999,9999,658854008
577,21,Ticks_Linear_5,13,9999,9999,9999,659353708
577,21,Ticks_Linear_5,14,9999,9999,9999,659853408
577,21,Ticks_Linear_5,15,9999,9999,9999,660363368
577,21,Ticks_Linear_5,16,9999,9999,9999,660873328
577,21,Ticks_Linear_5,17,9999,9999,9999,661383284
577,21,Ticks_Linear_5,18,9999,9999,9999,661893244
577,21,Ticks_Linear_5,19,9999,9999,9999,662403128
577,21,Ticks_Linear_5,20,9999,9999,9999,662923348
577,21,Ticks_Linear_5,21,9999,9999,9999,663443564
577,21,Ticks_Linear_5,22,9999,9999,9999,663963708
577,21,Ticks_Linear_5,23,9999,9999,9999,664483932
577,21,Ticks_Linear_5,24,9999,9999,9999,665003104
577,21,Ticks_Linear_5,25,9999,9999,9999,665533500
577,21,Ticks_Linear_5,26,9999,9999,9999,666063976
577,21,Ticks_Linear_5,27,9999,9999,9999,666593404
577,21,Ticks_Linear_5,28,9999,9999,9999,667123808
577,21,Ticks_Linear_5,29,9999,9999,9999,667653240
577,21,Ticks_Linear_5,30,9999,9999,9999,668193900
577,21,Ticks_Linear_5,31,9999,9999,9999,668733516
577,21,Ticks_Linear_5,32,9999,9999,9999,669273208
577,21,Ticks_Linear_5,33,9999,9999,9999,669813876
577,21,Ticks_Linear_5,34,9999,9999,9999,670353492
577,21,Ticks_Linear_5,35,9999,9999,9999,670903392
577,21,Ticks_Linear_5,36,9999,9999,9999,671453264
577,21,Ticks_Linear_5,37,9999,9999,9999,672003140
577,21,Ticks_Linear_5,38,9999,9999,9999,672554060
577,21,Ticks_Linear_5,39,9999,9999,9999,673103932
577,21,Ticks_Linear_5,40,9999,9999,9999,673664064
577,21,Ticks_Linear_5,41,9999,9999,9999,674233428
577,21,Ticks_Linear_5,42,9999,9999,9999,674793572
577,21,Ticks_Linear_5,43,9999,9999,9999,675353700
577,21,Ticks_Linear_5,44,9999,9999,9999,675913836
577,21,Ticks_Linear_5,45,9999,9999,9999,676483180
577,21,Ticks_Linear_5,46,9999,9999,9999,677053516
577,21,Ticks_Linear_5,47,9999,9999,9999,677623908
577,21,Ticks_Linear_5,48,9999,9999,9999,678193256
577,21,Ticks_Linear_5,49,9999,9999,9999,678763644
577,21,Ticks_Linear_5,50,9999,9999,9999,679343200
577,21,Ticks_Linear_5,51,9999,9999,9999,679923780
577,21,Ticks_Linear_5,52,9999,9999,9999,680503388
577,21,Ticks_Linear_5,53,9999,9999,9999,681083964
577,21,Ticks_Linear_5,54,9999,9999,9999,681663588
577,21,Ticks_Linear_5,55,9999,9999,9999,682253380
577,21,Ticks_Linear_5,56,9999,9999,9999,682843244
577,21,Ticks_Linear_5,57,9999,9999,9999,683434080
577,21,Ticks_Linear_5,58,9999,9999,9999,684023868
577,21,Ticks_Linear_5,59,9999,9999,9999,684613732
577,21,Ticks_Linear_5,60,9999,9999,9999,685213816
577,21,Ticks_Linear_5,61,9999,9999,9999,685813852
577,21,Ticks_Linear_5,62,9999,9999,9999,686413908
577,21,Ticks_Linear_5,63,9999,9999,9999,687013956
577,21,Ticks_Linear_5,64,9999,9999,9999,687614028
577,21,Ticks_Linear_5,65,9999,9999,9999,688223356
577,21,Ticks_Linear_5,66,9999,9999,9999,688833616
577,21,Ticks_Linear_5,67,9999,9999,9999,689443924
577,21,Ticks_Linear_5,68,9999,9999,9999,690053184
577,21,Ticks_Linear_5,69,9999,9999,9999,690663516
577,21,Ticks_Linear_5,70,9999,9999,9999,691284084
577,21,Ticks_Linear_5,71,9999,9999,9999,691903552
577,21,Ticks_Linear_5,72,9999,9999,9999,692523076
577,21,Ticks_Linear_5,73,9999,9999,9999,693143640
577,21,Ticks_Linear_5,74,9999,9999,9999,693763184
577,21,Ticks_Linear_5,75,9999,9999,9999,694393936
577,21,Ticks_Linear_5,76,9999,9999,9999,695023740
577,21,Ticks_Linear_5,77,9999,9999,9999,695653448
577,21,Ticks_Linear_5,78,9999,9999,9999,696283248
577,21,Ticks_Linear_5,79,9999,9999,9999,696914008
577,21,Ticks_Linear_5,80,9999,9999,9999,697553992
577,21,Ticks_Linear_5,81,9999,9999,9999,698194028
577,21,Ticks_Linear_5,82,9999,9999,9999,698834016
577,21,Ticks_Linear_5,83,9999,9999,9999,699473980
577,21,Ticks_Linear_5,84,9999,9999,9999,700113976
577,21,Ticks_Linear_5,85,9999,9999,9999,700763220
577,21,Ticks_Linear_5,86,9999,9999,9999,701413472
577,21,Ticks_Linear_5,87,9999,9999,9999,702063696
577,21,Ticks_Linear_5,88,9999,9999,9999,702713940
577,21,Ticks_Linear_5,89,9999,9999,9999,703363192
577,21,Ticks_Linear_5,90,9999,9999,9999,704023620
577,21,Ticks_Linear_5,91,9999,9999,9999,704683128
577,21,Ticks_Linear_5,92,9999,9999,9999,705343564
577,21,Ticks_Linear_5,93,9999,9999,9999,706004068
577,21,Ticks_Linear_5,94,9999,9999,9999,706663504
577,21,Ticks_Linear_5,95,9999,9999,9999,707333224
577,21,Ticks_Linear_5,96,9999,9999,9999,708003964
577,21,Ticks_Linear_5,97,9999,9999,9999,708673608
577,21,Ticks_Linear_5,98,9999,9999,9999,709343336
577,21,Ticks_Linear_5,99,9999,9999,9999,710014076
577,21,Ticks_Linear_5,100,9999,9999,9999,710693972
577,21,Ticks_Linear_5,101,9999,9999,9999,711373952
577,21,Ticks_Linear_5,102,9999,9999,9999,712053828
577,21,Ticks_Linear_5,103,9999,9999,9999,712733808
577,21,Ticks_Linear_5,104,9999,9999,9999,713413712
577,21,Ticks_Linear_5,105,9999,9999,9999,714103932
577,21,Ticks_Linear_5,106,9999,9999,9999,714794092
577,21,Ticks_Linear_5,107,9999,9999,9999,715483204
577,21,Ticks_Linear_5,108,9999,9999,9999,716173416
577,21,Ticks_Linear_5,109,9999,9999,9999,716863580
577,21,Ticks_Linear_5,110,9999,9999,9999,717564008
577,21,Ticks_Linear_5,111,9999,9999,9999,718263380
577,21,Ticks_Linear_5,112,9999,9999,9999,718963776
577,21,Ticks_Linear_5,113,9999,9999,9999,719663224
577,21,Ticks_Linear_5,114,9999,9999,9999,720363644
577,21,Ticks_Linear_5,115,9999,9999,9999,721073280
577,21,Ticks_Linear_5,116,9999,9999,9999,721783936
577,21,Ticks_Linear_5,117,9999,9999,9999,722493500
577,21,Ticks_Linear_5,118,9999,9999,9999,723203136
577,21,Ticks_Linear_5,119,9999,9999,9999,723913816
577,21,Ticks_Linear_5,120,9999,9999,9999,724633680
577,21,Ticks_Linear_5,121,9999,9999,9999,725353580
577,21,Ticks_Linear_5,122,9999,9999,9999,726073400
577,21,Ticks_Linear_5,123,9999,9999,9999,726793288
577,21,Ticks_Linear_5,124,9999,9999,9999,727513184
577,21,Ticks_Linear_5,125,9999,9999,9999,728243264
577,21,Ticks_Linear_5,126,9999,9999,9999,728973388
577,21,Ticks_Linear_5,127,9999,9999,9999,729703540
577,21,Ticks_Linear_5,128,9999,9999,9999,730433620
577,21,Ticks_Linear_5,129,9999,9999,9999,731163772
577,21,Ticks_Linear_5,130,9999,9999,9999,731904112
577,21,Ticks_Linear_5,131,9999,9999,9999,732653656
577,21,Ticks_Linear_5,132,9999,9999,9999,733393996
577,21,Ticks_Linear_5,133,9999,9999,9999,734133360
577,21,Ticks_Linear_5,134,9999,9999,9999,734873668
577,21,Ticks_Linear_5,135,9999,9999,9999,735623292
577,21,Ticks_Linear_5,136,9999,9999,9999,736373888
577,21,Ticks_Linear_5,137,9999,9999,9999,737123444
577,21,Ticks_Linear_5,138,9999,9999,9999,737874040
577,21,Ticks_Linear_5,139,9999,9999,9999,738623588
577,21,Ticks_Linear_5,140,9999,9999,9999,739383396
577,21,Ticks_Linear_5,141,9999,9999,9999,740143204
577,21,Ticks_Linear_5,142,9999,9999,9999,740904060
577,21,Ticks_Linear_5,143,9999,9999,9999,741663860
577,21,Ticks_Linear_5,144,9999,9999,9999,742423672
577,21,Ticks_Linear_5,145,9999,9999,9999,743193664
577,21,Ticks_Linear_5,146,9999,9999,9999,743963732
577,21,Ticks_Linear_5,147,9999,9999,9999,744733800
577,21,Ticks_Linear_5,148,9999,9999,9999,745503800
577,21,Ticks_Linear_5,149,9999,9999,9999,746273860
577,21,Ticks_Linear_5,150,9999,9999,9999,747053144
577,21,Ticks_Linear_5,151,9999,9999,9999,747833468
577,21,Ticks_Linear_5,152,9999,9999,9999,748613720
577,21,Ticks_Linear_5,153,9999,9999,9999,749394048
577,21,Ticks_Linear_5,154,9999,9999,9999,750173252
577,21,Ticks_Linear_5,155,9999,9999,9999,750963772
577,21,Ticks_Linear_5,156,9999,9999,9999,751753312
577,21,Ticks_Linear_5,157,9999,9999,9999,752543812
577,21,Ticks_Linear_5,158,9999,9999,9999,753333304
577,21,Ticks_Linear_5,159,9999,9999,9999,754123896
577,21,Ticks_Linear_5,160,9999,9999,9999,754923600
577,21,Ticks_Linear_5,161,9999,9999,9999,755723324
577,21,Ticks_Linear_5,162,9999,9999,9999,756523064
577,21,Ticks_Linear_5,163,9999,9999,9999,757323840
577,21,Ticks_Linear_5,164,9999,9999,9999,758123636
577,21,Ticks_Linear_5,165,9999,9999,9999,758933612
577,21,Ticks_Linear_5,166,9999,9999,9999,759743548
577,21,Ticks_Linear_5,167,9999,9999,9999,760553528
577,21,Ticks_Linear_5,168,9999,9999,9999,761363512
577,21,Ticks_Linear_5,169,9999,9999,9999,762173496
578,20,Ticks_Linear_8,0,5,42,127,774223260
578,20,Ticks_Linear_8,1,5,42,127,775042332
578,20,Ticks_Linear_8,2,5,42,127,775862544
578,20,Ticks_Linear_8,3,5,42,127,776682880
578,20,Ticks_Linear_8,4,1,48,35,777472472
578,20,Ticks_Linear_8,5,5,42,127,777503140
578,20,Ticks_Linear_8,6,1,48,36,778256844
578,20,Ticks_Linear_8,7,5,42,127,778313124
578,20,Ticks_Linear_8,8,1,48,35,779059108
578,20,Ticks_Linear_8,9,5,42,127,779123112
578,20,Ticks_Linear_8,10,1,48,40,779906172
578,20,Ticks_Linear_8,11,5,42,127,779933092
578,20,Ticks_Linear_8,12,1,48,30,780738192
578,20,Ticks_Linear_8,13,5,42,127,780743028
578,20,Ticks_Linear_8,14,5,42,127,781552944
578,20,Ticks_Linear_8,15,1,48,33,781561388
578,20,Ticks_Linear_8,16,1,48,27,782318844
578,20,Ticks_Linear_8,17,5,42,127,782352664
578,20,Ticks_Linear_8,18,1,48,26,783102100
578,20,Ticks_Linear_8,19,5,42,127,783152384
578,20,Ticks_Linear_8,20,1,48,29,783894928
578,20,Ticks_Linear_8,21,5,42,127,783953308
578,20,Ticks_Linear_8,22,1,48,29,784717488
578,20,Ticks_Linear_8,23,5,42,127,784752956
578,20,Ticks_Linear_8,24,1,48,28,785521316
578,20,Ticks_Linear_8,25,5,42,127,785552956
578,20,Ticks_Linear_8,26,1,48,31,786298268
578,20,Ticks_Linear_8,27,5,42,127,786343168
578,20,Ticks_Linear_8,28,1,48,31,787090048
578,20,Ticks_Linear_8,29,5,42,127,787132808
578,20,Ticks_Linear_8,30,1,48,29,787871288
578,20,Ticks_Linear_8,31,5,42,127,787923320
578,20,Ticks_Linear_8,32,1,48,30,788655376
578,20,Ticks_Linear_8,33,5,42,127,788713004
578,20,Ticks_Linear_8,34,1,48,30,789462516
578,20,Ticks_Linear_8,35,5,42,127,789503220
578,20,Ticks_Linear_8,36,1,48,30,790233780
578,20,Ticks_Linear_8,37,5,42,127,790282872
578,20,Ticks_Linear_8,38,1,48,27,791025716
578,20,Ticks_Linear_8,39,5,42,127,791063052
578,20,Ticks_Linear_8,40,1,48,27,791792268
578,20,Ticks_Linear_8,41,5,42,127,791843156
578,20,Ticks_Linear_8,42,1,48,29,792584948
578,20,Ticks_Linear_8,43,5,42,127,792622360
578,20,Ticks_Linear_8,44,1,48,27,793367968
578,20,Ticks_Linear_8,45,5,42,127,793402836
578,20,Ticks_Linear_8,46,5,42,127,794172912
578,20,Ticks_Linear_8,47,1,48,24,794196472
578,20,Ticks_Linear_8,48,1,48,30,794909448
578,20,Ticks_Linear_8,49,5,42,127,794942896
578,20,Ticks_Linear_8,50,5,42,127,795712748
578,20,Ticks_Linear_8,51,1,48,31,795718860
578,20,Ticks_Linear_8,52,5,42,127,796482964
578,20,Ticks_Linear_8,53,1,48,30,796498808
578,20,Ticks_Linear_8,54,1,48,38,797225500
578,20,Ticks_Linear_8,55,5,42,127,797252880
578,20,Ticks_Linear_8,56,5,42,127,798012696
578,20,Ticks_Linear_8,57,1,48,29,798013732
578,20,Ticks_Linear_8,58,5,42,127,798772576
578,20,Ticks_Linear_8,59,1,48,30,798805128
578,20,Ticks_Linear_8,60,1,48,32,799517652
578,20,Ticks_Linear_8,61,5,42,127,799533500
578,20,Ticks_Linear_8,62,5,42,127,800302748
578,20,Ticks_Linear_8,63,1,48,24,800310360
578,20,Ticks_Linear_8,64,1,48,30,801042896
578,20,Ticks_Linear_8,65,5,42,127,801063376
578,20,Ticks_Linear_8,66,5,42,127,801812784
578,20,Ticks_Linear_8,67,1,48,29,801849296
578,20,Ticks_Linear_8,68,5,42,127,802562632
578,20,Ticks_Linear_8,69,1,48,29,802614052
578,20,Ticks_Linear_8,70,5,42,127,803312932
578,20,Ticks_Linear_8,71,1,48,32,803317620
578,20,Ticks_Linear_8,72,5,42,127,804062776
578,20,Ticks_Linear_8,73,1,48,32,804081856
578,20,Ticks_Linear_8,74,1,48,30,804799096
578,20,Ticks_Linear_8,75,5,42,127,804813072
578,20,Ticks_Linear_8,76,1,48,30,805527056
578,20,Ticks_Linear_8,77,5,42,127,805552660
578,20,Ticks_Linear_8,78,1,48,28,806272864
578,20,Ticks_Linear_8,79,5,42,127,806292752
578,20,Ticks_Linear_8,80,1,48,27,807027576
578,20,Ticks_Linear_8,81,5,42,127,807033312
578,20,Ticks_Linear_8,82,1,48,30,807753240
578,20,Ticks_Linear_8,83,5,42,127,807772528
578,20,Ticks_Linear_8,84,1,48,30,808482720
578,20,Ticks_Linear_8,85,5,42,127,808512792
578,20,Ticks_Linear_8,86,1,48,26,809231676
578,20,Ticks_Linear_8,87,5,42,127,809243020
578,20,Ticks_Linear_8,88,1,48,24,809971056
578,20,Ticks_Linear_8,89,5,42,127,809973024
578,20,Ticks_Linear_8,90,1,48,26,810687932
578,20,Ticks_Linear_8,91,5,42,127,810703252
578,20,Ticks_Linear_8,92,1,48,23,811403980
578,20,Ticks_Linear_8,93,5,42,127,811433476
578,20,Ticks_Linear_8,94,1,48,28,812126796
578,20,Ticks_Linear_8,95,5,42,127,812162484
578,20,Ticks_Linear_8,96,1,48,24,812852316
578,20,Ticks_Linear_8,97,5,42,127,812883428
578,20,Ticks_Linear_8,98,1,48,20,813595192
578,20,Ticks_Linear_8,99,5,42,127,813603468
578,20,Ticks_Linear_8,100,1,48,19,814273604
578,20,Ticks_Linear_8,101,5,42,127,814323216
578,20,Ticks_Linear_8,102,1,48,19,815025472
578,20,Ticks_Linear_8,103,5,42,127,815042812
578,20,Ticks_Linear_8,104,5,42,127,815762688
578,20,Ticks_Linear_8,105,1,48,21,815800196
578,20,Ticks_Linear_8,106,5,42,127,816472472
578,20,Ticks_Linear_8,107,1,48,21,816507788
578,20,Ticks_Linear_8,108,5,42,127,817183076
578,20,Ticks_Linear_8,109,1,48,27,817205140
578,20,Ticks_Linear_8,110,5,42,127,817892788
578,20,Ticks_Linear_8,111,1,48,26,817926760
578,20,Ticks_Linear_8,112,5,42,127,818603468
578,20,Ticks_Linear_8,113,1,48,26,818626280
578,20,Ticks_Linear_8,114,5,42,127,819313152
578,20,Ticks_Linear_8,115,1,48,21,819314120
578,20,Ticks_Linear_8,116,5,42,127,820013352
578,20,Ticks_Linear_8,117,1,48,21,820046648
578,20,Ticks_Linear_8,118,1,48,23,820722308
578,20,Ticks_Linear_8,119,5,42,127,820723876
578,20,Ticks_Linear_8,120,5,42,127,821422360
578,20,Ticks_Linear_8,121,1,48,24,821424300
578,20,Ticks_Linear_8,122,5,42,127,822122760
578,20,Ticks_Linear_8,123,1,48,21,822136360
578,20,Ticks_Linear_8,124,1,48,26,822819012
578,20,Ticks_Linear_8,125,5,42,127,822823252
578,20,Ticks_Linear_8,126,5,42,127,823512372
578,20,Ticks_Linear_8,127,1,48,27,823526724
578,20,Ticks_Linear_8,128,5,42,127,824202660
578,20,Ticks_Linear_8,129,1,48,28,824219548
578,20,Ticks_Linear_8,130,1,48,27,824877940
578,20,Ticks_Linear_8,131,5,42,127,824892668
578,20,Ticks_Linear_8,132,1,48,26,825560924
578,20,Ticks_Linear_8,133,5,42,127,825583052
578,20,Ticks_Linear_8,134,1,48,28,826246416
578,20,Ticks_Linear_8,135,5,42,127,826273264
578,20,Ticks_Linear_8,136,1,48,30,826904680
578,20,Ticks_Linear_8,137,5,42,127,826953168
578,20,Ticks_Linear_8,138,1,48,26,827617900
578,20,Ticks_Linear_8,139,5,42,127,827633220
578,20,Ticks_Linear_8,140,1,48,26,828278236
578,20,Ticks_Linear_8,141,5,42,127,828313176
578,20,Ticks_Linear_8,142,1,48,28,828968844
578,20,Ticks_Linear_8,143,5,42,127,828993080
578,20,Ticks_Linear_8,144,1,48,27,829659904
578,20,Ticks_Linear_8,145,5,42,127,829672908
578,20,Ticks_Linear_8,146,1,48,27,830336048
578,20,Ticks_Linear_8,147,5,42,127,830342456
578,20,Ticks_Linear_8,148,5,42,127,831013228
578,20,Ticks_Linear_8,149,1,48,24,831066524
578,20,Ticks_Linear_8,150,1,48,27,831664328
578,20,Ticks_Linear_8,151,5,42,127,831683164
578,20,Ticks_Linear_8,152,1,48,27,832300092
578,20,Ticks_Linear_8,153,5,42,127,832352560
578,20,Ticks_Linear_8,154,1,48,26,832952744
578,20,Ticks_Linear_8,155,5,42,127,833023400
578,20,Ticks_Linear_8,156,1,48,21,833668036
578,20,Ticks_Linear_8,157,5,42,127,833683060
578,20,Ticks_Linear_8,158,1,48,23,834336708
578,20,Ticks_Linear_8,159,5,42,127,834343272
578,20,Ticks_Linear_8,160,5,42,127,835003036
578,20,Ticks_Linear_8,161,1,48,21,835025928
578,20,Ticks_Linear_8,162,1,48,24,835653740
578,20,Ticks_Linear_8,163,5,42,127,835663288
578,20,Ticks_Linear_8,164,1,48,24,836303684
578,20,Ticks_Linear_8,165,5,42,127,836322972
578,20,Ticks_Linear_8,166,1,48,23,836926272
578,20,Ticks_Linear_8,167,5,42,127,836972824
578,20,Ticks_Linear_8,168,5,42,127,837623152
578,20,Ticks_Linear_8,169,1,48,23,837646040
578,20,Ticks_Linear_8,170,1,48,21,838259244
578,20,Ticks_Linear_8,171,5,42,127,838273368
578,20,Ticks_Linear_8,172,5,42,127,838922724
578,20,Ticks_Linear_8,173,1,48,24,838934380
578,20,Ticks_Linear_8,174,5,42,127,839573024
578,20,Ticks_Linear_8,175,1,48,27,839596764
578,20,Ticks_Linear_8,176,5,42,127,840212936
578,20,Ticks_Linear_8,177,1,48,24,840230876
578,20,Ticks_Linear_8,178,1,48,30,840852300
578,20,Ticks_Linear_8,179,5,42,127,840853940
578,20,Ticks_Linear_8,180,5,42,127,841492892
578,20,Ticks_Linear_8,181,1,48,27,841519224
578,20,Ticks_Linear_8,182,5,42,127,842132932
578,20,Ticks_Linear_8,183,1,48,29,842143540
578,20,Ticks_Linear_8,184,1,48,24,842765228
578,20,Ticks_Linear_8,185,5,42,127,842772840
578,20,Ticks_Linear_8,186,5,42,127,843402848
578,20,Ticks_Linear_8,187,1,48,26,843430624
578,20,Ticks_Linear_8,188,5,42,127,844033476
578,20,Ticks_Linear_8,189,1,48,29,844037940
578,20,Ticks_Linear_8,190,1,48,27,844663256
578,20,Ticks_Linear_8,191,5,42,127,844664592
578,20,Ticks_Linear_8,192,1,48,27,845265896
578,20,Ticks_Linear_8,193,5,42,127,845292904
578,20,Ticks_Linear_8,194,1,48,29,845883924
578,20,Ticks_Linear_8,195,5,42,127,845922608
578,20,Ticks_Linear_8,196,1,48,28,846522420
578,20,Ticks_Linear_8,197,5,42,127,846543200
578,20,Ticks_Linear_8,198,1,48,30,847147844
578,20,Ticks_Linear_8,199,5,42,127,847162868
578,20,Ticks_Linear_8,200,1,48,29,847779568
578,20,Ticks_Linear_8,201,5,42,127,847783236
578,20,Ticks_Linear_8,202,5,42,127,848402764
578,20,Ticks_Linear_8,203,1,48,27,848408652
578,20,Ticks_Linear_8,204,5,42,127,849023404
578,20,Ticks_Linear_8,205,1,48,25,849030192
578,20,Ticks_Linear_8,206,5,42,127,849632616
578,20,Ticks_Linear_8,207,1,48,27,849636708
578,20,Ticks_Linear_8,208,1,48,25,850231500
578,20,Ticks_Linear_8,209,5,42,127,850242920
578,20,Ticks_Linear_8,210,1,48,26,850838056
578,20,Ticks_Linear_8,211,5,42,127,850853324
578,20,Ticks_Linear_8,212,1,48,29,851443076
578,20,Ticks_Linear_8,213,5,42,127,851462660
578,20,Ticks_Linear_8,214,1,48,27,852051292
578,20,Ticks_Linear_8,215,5,42,127,852072820
578,20,Ticks_Linear_8,216,1,48,27,852649928
578,20,Ticks_Linear_8,217,5,42,127,852672744
578,20,Ticks_Linear_8,218,1,48,29,853265564
578,20,Ticks_Linear_8,219,5,42,127,853273020
578,20,Ticks_Linear_8,220,5,42,127,853872924
578,20,Ticks_Linear_8,221,1,48,27,853881736
578,20,Ticks_Linear_8,222,1,48,27,854453260
578,20,Ticks_Linear_8,223,5,42,127,854473140
578,20,Ticks_Linear_8,224,1,48,29,855059436
578,20,Ticks_Linear_8,225,5,42,127,855073264
578,20,Ticks_Linear_8,226,1,48,26,855650592
578,20,Ticks_Linear_8,227,5,42,127,855662980
578,20,Ticks_Linear_8,228,5,42,127,856252728
578,20,Ticks_Linear_8,229,1,48,27,856256896
578,20,Ticks_Linear_8,230,5,42,127,856842592
578,20,Ticks_Linear_8,231,1,48,28,856875364
578,20,Ticks_Linear_8,232,5,42,127,857432380
578,20,Ticks_Linear_8,233,1,48,24,857462988
578,20,Ticks_Linear_8,234,1,48,27,858023168
578,20,Ticks_Linear_8,235,5,42,127,858024580
578,20,Ticks_Linear_8,236,5,42,127,858602848
578,20,Ticks_Linear_8,237,1,48,27,858619968
578,20,Ticks_Linear_8,238,1,48,26,859174760
578,20,Ticks_Linear_8,239,5,42,127,859182596
578,20,Ticks_Linear_8,240,1,48,28,859749272
578,20,Ticks_Linear_8,241,5,42,127,859763324
578,20,Ticks_Linear_8,242,1,48,26,860323344
578,20,Ticks_Linear_8,243,5,42,127,860342652
578,20,Ticks_Linear_8,244,1,48,26,860904992
578,20,Ticks_Linear_8,245,5,42,127,860923380
578,20,Ticks_Linear_8,246,1,48,24,861454868
578,20,Ticks_Linear_8,247,5,42,127,861492728
578,20,Ticks_Linear_8,248,1,48,27,862025188
578,20,Ticks_Linear_8,249,5,42,127,862062824
578,20,Ticks_Linear_8,250,1,48,23,862597152
578,20,Ticks_Linear_8,251,5,42,127,862633460
578,20,Ticks_Linear_8,252,1,48,27,863173640
578,20,Ticks_Linear_8,253,5,42,127,863202660
578,20,Ticks_Linear_8,254,1,48,27,863757512
578,20,Ticks_Linear_8,255,5,42,127,863773204
578,20,Ticks_Linear_8,256,1,48,25,864320648
578,20,Ticks_Linear_8,257,5,42,127,864333484
578,20,Ticks_Linear_8,258,1,48,25,864871496
578,20,Ticks_Linear_8,259,5,42,127,864893396
578,20,Ticks_Linear_8,260,1,48,27,865427424
578,20,Ticks_Linear_8,261,5,42,127,865453480
578,20,Ticks_Linear_8,262,1,48,23,865994856
578,20,Ticks_Linear_8,263,5,42,127,866022752
578,20,Ticks_Linear_8,264,1,48,27,866538956
578,20,Ticks_Linear_8,265,5,42,127,866582884
578,20,Ticks_Linear_8,266,1,48,25,867113176
578,20,Ticks_Linear_8,267,5,42,127,867132760
578,20,Ticks_Linear_8,268,1,48,22,867681584
578,20,Ticks_Linear_8,269,5,42,127,867683228
578,20,Ticks_Linear_8,270,1,48,27,868206628
578,20,Ticks_Linear_8,271,5,42,127,868232432
578,20,Ticks_Linear_8,272,1,48,27,868779440
578,20,Ticks_Linear_8,273,5,42,127,868782484
578,20,Ticks_Linear_8,274,1,48,21,869326324
578,20,Ticks_Linear_8,275,5,42,127,869333256
578,20,Ticks_Linear_8,276,1,48,25,869834864
578,20,Ticks_Linear_8,277,5,42,127,869873020
578,20,Ticks_Linear_8,278,1,48,23,870397836
578,20,Ticks_Linear_8,279,5,42,127,870412564
578,20,Ticks_Linear_8,280,1,48,29,870926372
578,20,Ticks_Linear_8,281,5,42,127,870953376
578,20,Ticks_Linear_8,282,1,48,26,871492996
578,20,Ticks_Linear_8,283,5,42,127,871494408
578,20,Ticks_Linear_8,284,5,42,127,872032760
578,20,Ticks_Linear_8,285,1,48,25,872043820
578,20,Ticks_Linear_8,286,1,48,25,872551064
578,20,Ticks_Linear_8,287,5,42,127,872563084
578,20,Ticks_Linear_8,288,5,42,127,873092444
578,20,Ticks_Linear_8,289,1,48,28,873097880
578,20,Ticks_Linear_8,290,5,42,127,873622996
578,20,Ticks_Linear_8,291,1,48,27,873636772
578,20,Ticks_Linear_8,292,1,48,25,874149552
578,20,Ticks_Linear_8,293,5,42,127,874153268
578,20,Ticks_Linear_8,294,1,48,27,874655668
578,20,Ticks_Linear_8,295,5,42,127,874682624
578,20,Ticks_Linear_8,296,1,48,29,875191352
578,20,Ticks_Linear_8,297,5,42,127,875202920
578,20,Ticks_Linear_8,298,1,48,29,875686028
578,20,Ticks_Linear_8,299,5,42,127,875723064
578,20,Ticks_Linear_8,300,1,48,31,876205792
578,20,Ticks_Linear_8,301,5,42,127,876243356
578,20,Ticks_Linear_8,302,1,48,28,876732980
578,20,Ticks_Linear_8,303,5,42,127,876762452
578,20,Ticks_Linear_8,304,1,48,26,877268620
578,20,Ticks_Linear_8,305,5,42,127,877283044
578,20,Ticks_Linear_8,306,1,48,24,877776936
578,20,Ticks_Linear_8,307,5,42,127,877792708
578,20,Ticks_Linear_8,308,1,48,29,878301008
578,20,Ticks_Linear_8,309,5,42,127,878302444
578,20,Ticks_Linear_8,310,5,42,127,878812484
578,20,Ticks_Linear_8,311,1,48,28,878825788
578,20,Ticks_Linear_8,312,5,42,127,879322444
578,20,Ticks_Linear_8,313,1,48,30,879352820
578,20,Ticks_Linear_8,314,1,48,27,879830356
578,20,Ticks_Linear_8,315,5,42,127,879832324
578,20,Ticks_Linear_8,316,5,42,127,880333300
578,20,Ticks_Linear_8,317,1,48,27,880359704
578,20,Ticks_Linear_8,318,5,42,127,880832924
578,20,Ticks_Linear_8,319,1,48,28,880840920
578,20,Ticks_Linear_8,320,5,42,127,881332624
578,20,Ticks_Linear_8,321,1,48,29,881356408
578,20,Ticks_Linear_8,322,5,42,127,881833224
578,20,Ticks_Linear_8,323,1,48,29,881835308
578,20,Ticks_Linear_8,324,1,48,29,882312408
578,20,Ticks_Linear_8,325,5,42,127,882333040
578,20,Ticks_Linear_8,326,1,48,29,882793760
578,20,Ticks_Linear_8,327,5,42,127,882822632
578,20,Ticks_Linear_8,328,1,48,30,883300504
578,20,Ticks_Linear_8,329,5,42,127,883312968
578,20,Ticks_Linear_8,330,5,42,127,883802492
578,20,Ticks_Linear_8,331,1,48,30,883826200
578,20,Ticks_Linear_8,332,5,42,127,884292976
578,20,Ticks_Linear_8,333,1,48,28,884328368
578,20,Ticks_Linear_8,334,5,42,127,884782568
578,20,Ticks_Linear_8,0,9999,9999,9999,774220888
578,20,Ticks_Linear_8,1,9999,9999,9999,775040108
578,20,Ticks_Linear_8,2,9999,9999,9999,775860320
578,20,Ticks_Linear_8,3,9999,9999,9999,776680508
578,20,Ticks_Linear_8,4,9999,9999,9999,777500764
578,20,Ticks_Linear_8,5,9999,9999,9999,778310752
578,20,Ticks_Linear_8,6,9999,9999,9999,779120736
578,20,Ticks_Linear_8,7,9999,9999,9999,779930720
578,20,Ticks_Linear_8,8,9999,9999,9999,780740728
578,20,Ticks_Linear_8,9,9999,9999,9999,781550644
578,20,Ticks_Linear_8,10,9999,9999,9999,782350440
578,20,Ticks_Linear_8,11,9999,9999,9999,783150160
578,20,Ticks_Linear_8,12,9999,9999,9999,783950932
578,20,Ticks_Linear_8,13,9999,9999,9999,784750660
578,20,Ticks_Linear_8,14,9999,9999,9999,785550432
578,20,Ticks_Linear_8,15,9999,9999,9999,786340944
578,20,Ticks_Linear_8,16,9999,9999,9999,787130436
578,20,Ticks_Linear_8,17,9999,9999,9999,787921020
578,20,Ticks_Linear_8,18,9999,9999,9999,788710484
578,20,Ticks_Linear_8,19,9999,9999,9999,789500996
578,20,Ticks_Linear_8,20,9999,9999,9999,790280276
578,20,Ticks_Linear_8,21,9999,9999,9999,791060604
578,20,Ticks_Linear_8,22,9999,9999,9999,791840856
578,20,Ticks_Linear_8,23,9999,9999,9999,792620136
578,20,Ticks_Linear_8,24,9999,9999,9999,793400388
578,20,Ticks_Linear_8,25,9999,9999,9999,794170464
578,20,Ticks_Linear_8,26,9999,9999,9999,794940524
578,20,Ticks_Linear_8,27,9999,9999,9999,795710524
578,20,Ticks_Linear_8,28,9999,9999,9999,796480592
578,20,Ticks_Linear_8,29,9999,9999,9999,797250656
578,20,Ticks_Linear_8,30,9999,9999,9999,798010468
578,20,Ticks_Linear_8,31,9999,9999,9999,798770276
578,20,Ticks_Linear_8,32,9999,9999,9999,799531124
578,20,Ticks_Linear_8,33,9999,9999,9999,800300152
578,20,Ticks_Linear_8,34,9999,9999,9999,801060928
578,20,Ticks_Linear_8,35,9999,9999,9999,801810488
578,20,Ticks_Linear_8,36,9999,9999,9999,802560112
578,20,Ticks_Linear_8,37,9999,9999,9999,803310708
578,20,Ticks_Linear_8,38,9999,9999,9999,804060256
578,20,Ticks_Linear_8,39,9999,9999,9999,804810848
578,20,Ticks_Linear_8,40,9999,9999,9999,805550140
578,20,Ticks_Linear_8,41,9999,9999,9999,806290528
578,20,Ticks_Linear_8,42,9999,9999,9999,807030864
578,20,Ticks_Linear_8,43,9999,9999,9999,807770228
578,20,Ticks_Linear_8,44,9999,9999,9999,808510568
578,20,Ticks_Linear_8,45,9999,9999,9999,809240644
578,20,Ticks_Linear_8,46,9999,9999,9999,809970760
578,20,Ticks_Linear_8,47,9999,9999,9999,810700876
578,20,Ticks_Linear_8,48,9999,9999,9999,811431028
578,20,Ticks_Linear_8,49,9999,9999,9999,812160112
578,20,Ticks_Linear_8,50,9999,9999,9999,812880980
578,20,Ticks_Linear_8,51,9999,9999,9999,813600872
578,20,Ticks_Linear_8,52,9999,9999,9999,814320692
578,20,Ticks_Linear_8,53,9999,9999,9999,815040588
578,20,Ticks_Linear_8,54,9999,9999,9999,815760464
578,20,Ticks_Linear_8,55,9999,9999,9999,816470100
578,20,Ticks_Linear_8,56,9999,9999,9999,817180776
578,20,Ticks_Linear_8,57,9999,9999,9999,817890412
578,20,Ticks_Linear_8,58,9999,9999,9999,818601020
578,20,Ticks_Linear_8,59,9999,9999,9999,819310704
578,20,Ticks_Linear_8,60,9999,9999,9999,820011128
578,20,Ticks_Linear_8,61,9999,9999,9999,820720760
578,20,Ticks_Linear_8,62,9999,9999,9999,821420136
578,20,Ticks_Linear_8,63,9999,9999,9999,822120532
578,20,Ticks_Linear_8,64,9999,9999,9999,822820952
578,20,Ticks_Linear_8,65,9999,9999,9999,823510072
578,20,Ticks_Linear_8,66,9999,9999,9999,824200284
578,20,Ticks_Linear_8,67,9999,9999,9999,824890444
578,20,Ticks_Linear_8,68,9999,9999,9999,825580604
578,20,Ticks_Linear_8,69,9999,9999,9999,826270820
578,20,Ticks_Linear_8,70,9999,9999,9999,826950724
578,20,Ticks_Linear_8,71,9999,9999,9999,827630700
578,20,Ticks_Linear_8,72,9999,9999,9999,828310652
578,20,Ticks_Linear_8,73,9999,9999,9999,828990556
578,20,Ticks_Linear_8,74,9999,9999,9999,829670460
578,20,Ticks_Linear_8,75,9999,9999,9999,830340156
578,20,Ticks_Linear_8,76,9999,9999,9999,831010928
578,20,Ticks_Linear_8,77,9999,9999,9999,831680568
578,20,Ticks_Linear_8,78,9999,9999,9999,832350260
578,20,Ticks_Linear_8,79,9999,9999,9999,833021028
578,20,Ticks_Linear_8,80,9999,9999,9999,833680464
578,20,Ticks_Linear_8,81,9999,9999,9999,834340972
578,20,Ticks_Linear_8,82,9999,9999,9999,835000440
578,20,Ticks_Linear_8,83,9999,9999,9999,835660916
578,20,Ticks_Linear_8,84,9999,9999,9999,836320376
578,20,Ticks_Linear_8,85,9999,9999,9999,836970600
578,20,Ticks_Linear_8,86,9999,9999,9999,837620852
578,20,Ticks_Linear_8,87,9999,9999,9999,838271068
578,20,Ticks_Linear_8,88,9999,9999,9999,838920276
578,20,Ticks_Linear_8,89,9999,9999,9999,839570500
578,20,Ticks_Linear_8,90,9999,9999,9999,840210488
578,20,Ticks_Linear_8,91,9999,9999,9999,840850528
578,20,Ticks_Linear_8,92,9999,9999,9999,841490520
578,20,Ticks_Linear_8,93,9999,9999,9999,842130556
578,20,Ticks_Linear_8,94,9999,9999,9999,842770540
578,20,Ticks_Linear_8,95,9999,9999,9999,843400252
578,20,Ticks_Linear_8,96,9999,9999,9999,844031104
578,20,Ticks_Linear_8,97,9999,9999,9999,844660808
578,20,Ticks_Linear_8,98,9999,9999,9999,845290604
578,20,Ticks_Linear_8,99,9999,9999,9999,845920384
578,20,Ticks_Linear_8,100,9999,9999,9999,846540900
578,20,Ticks_Linear_8,101,9999,9999,9999,847160420
578,20,Ticks_Linear_8,102,9999,9999,9999,847780936
578,20,Ticks_Linear_8,103,9999,9999,9999,848400464
578,20,Ticks_Linear_8,104,9999,9999,9999,849021032
578,20,Ticks_Linear_8,105,9999,9999,9999,849630316
578,20,Ticks_Linear_8,106,9999,9999,9999,850240620
578,20,Ticks_Linear_8,107,9999,9999,9999,850850928
578,20,Ticks_Linear_8,108,9999,9999,9999,851460212
578,20,Ticks_Linear_8,109,9999,9999,9999,852070520
578,20,Ticks_Linear_8,110,9999,9999,9999,852670520
578,20,Ticks_Linear_8,111,9999,9999,9999,853270644
578,20,Ticks_Linear_8,112,9999,9999,9999,853870700
578,20,Ticks_Linear_8,113,9999,9999,9999,854470768
578,20,Ticks_Linear_8,114,9999,9999,9999,855070816
578,20,Ticks_Linear_8,115,9999,9999,9999,855660608
578,20,Ticks_Linear_8,116,9999,9999,9999,856250428
578,20,Ticks_Linear_8,117,9999,9999,9999,856840292
578,20,Ticks_Linear_8,118,9999,9999,9999,857430084
578,20,Ticks_Linear_8,119,9999,9999,9999,858020944
578,20,Ticks_Linear_8,120,9999,9999,9999,858600548
578,20,Ticks_Linear_8,121,9999,9999,9999,859180148
578,20,Ticks_Linear_8,122,9999,9999,9999,859760728
578,20,Ticks_Linear_8,123,9999,9999,9999,860340280
578,20,Ticks_Linear_8,124,9999,9999,9999,860920932
578,20,Ticks_Linear_8,125,9999,9999,9999,861490280
578,20,Ticks_Linear_8,126,9999,9999,9999,862060600
578,20,Ticks_Linear_8,127,9999,9999,9999,862631016
578,20,Ticks_Linear_8,128,9999,9999,9999,863200360
578,20,Ticks_Linear_8,129,9999,9999,9999,863770680
578,20,Ticks_Linear_8,130,9999,9999,9999,864330816
578,20,Ticks_Linear_8,131,9999,9999,9999,864890948
578,20,Ticks_Linear_8,132,9999,9999,9999,865451108
578,20,Ticks_Linear_8,133,9999,9999,9999,866020456
578,20,Ticks_Linear_8,134,9999,9999,9999,866580588
578,20,Ticks_Linear_8,135,9999,9999,9999,867130460
578,20,Ticks_Linear_8,136,9999,9999,9999,867680344
578,20,Ticks_Linear_8,137,9999,9999,9999,868230208
578,20,Ticks_Linear_8,138,9999,9999,9999,868780112
578,20,Ticks_Linear_8,139,9999,9999,9999,869331032
578,20,Ticks_Linear_8,140,9999,9999,9999,869870648
578,20,Ticks_Linear_8,141,9999,9999,9999,870410340
578,20,Ticks_Linear_8,142,9999,9999,9999,870951000
578,20,Ticks_Linear_8,143,9999,9999,9999,871490620
578,20,Ticks_Linear_8,144,9999,9999,9999,872030312
578,20,Ticks_Linear_8,145,9999,9999,9999,872560708
578,20,Ticks_Linear_8,146,9999,9999,9999,873090144
578,20,Ticks_Linear_8,147,9999,9999,9999,873620548
578,20,Ticks_Linear_8,148,9999,9999,9999,874150972
578,20,Ticks_Linear_8,149,9999,9999,9999,874680400
578,20,Ticks_Linear_8,150,9999,9999,9999,875200620
578,20,Ticks_Linear_8,151,9999,9999,9999,875720764
578,20,Ticks_Linear_8,152,9999,9999,9999,876240980
578,20,Ticks_Linear_8,153,9999,9999,9999,876760156
578,20,Ticks_Linear_8,154,9999,9999,9999,877280372
578,20,Ticks_Linear_8,155,9999,9999,9999,877790332
578,20,Ticks_Linear_8,156,9999,9999,9999,878300224
578,20,Ticks_Linear_8,157,9999,9999,9999,878810188
578,20,Ticks_Linear_8,158,9999,9999,9999,879320144
578,20,Ticks_Linear_8,159,9999,9999,9999,879830136
578,20,Ticks_Linear_8,160,9999,9999,9999,880330852
578,20,Ticks_Linear_8,161,9999,9999,9999,880830552
578,20,Ticks_Linear_8,162,9999,9999,9999,881330252
578,20,Ticks_Linear_8,163,9999,9999,9999,881830996
578,20,Ticks_Linear_8,164,9999,9999,9999,882330740
578,20,Ticks_Linear_8,165,9999,9999,9999,882820184
578,20,Ticks_Linear_8,166,9999,9999,9999,883310672
578,20,Ticks_Linear_8,167,9999,9999,9999,883800120
578,20,Ticks_Linear_8,168,9999,9999,9999,884290680
578,20,Ticks_Linear_8,169,9999,9999,9999,884780120
579,23,Ticks_Phase_5,0,5,42,127,895397236
579,23,Ticks_Phase_5,1,5,42,127,895896844
579,23,Ticks_Phase_5,2,5,42,127,896396632
579,23,Ticks_Phase_5,3,5,42,127,896897536
579,23,Ticks_Phase_5,4,1,48,26,897373012
579,23,Ticks_Phase_5,5,5,42,127,897397164
579,23,Ticks_Phase_5,6,1,48,25,897881616
579,23,Ticks_Phase_5,7,5,42,127,897896776
579,23,Ticks_Phase_5,8,1,48,27,898390664
579,23,Ticks_Phase_5,9,5,42,127,898396468
579,23,Ticks_Phase_5,10,5,42,127,898897356
579,23,Ticks_Phase_5,11,1,48,25,898911032
579,23,Ticks_Phase_5,12,5,42,127,899396968
579,23,Ticks_Phase_5,13,1,48,26,899431384
579,23,Ticks_Phase_5,14,5,42,127,899896660
579,23,Ticks_Phase_5,15,1,48,24,899929656
579,23,Ticks_Phase_5,16,5,42,127,900397392
579,23,Ticks_Phase_5,17,1,48,28,900424688
579,23,Ticks_Phase_5,18,5,42,127,900907416
579,23,Ticks_Phase_5,19,1,48,26,900942728
579,23,Ticks_Phase_5,20,5,42,127,901406956
579,23,Ticks_Phase_5,21,1,48,24,901432388
579,23,Ticks_Phase_5,22,5,42,127,901906792
579,23,Ticks_Phase_5,23,1,48,23,901929900
579,23,Ticks_Phase_5,24,5,42,127,902406628
579,23,Ticks_Phase_5,25,1,48,24,902433700
579,23,Ticks_Phase_5,26,5,42,127,902907364
579,23,Ticks_Phase_5,27,1,48,27,902938644
579,23,Ticks_Phase_5,28,1,48,27,903405692
579,23,Ticks_Phase_5,29,5,42,127,903407044
579,23,Ticks_Phase_5,30,1,48,24,903906136
579,23,Ticks_Phase_5,31,5,42,127,903907556
579,23,Ticks_Phase_5,32,5,42,127,904407324
579,23,Ticks_Phase_5,33,1,48,27,904409916
579,23,Ticks_Phase_5,34,1,48,27,904897548
579,23,Ticks_Phase_5,35,5,42,127,904907156
579,23,Ticks_Phase_5,36,5,42,127,905406852
579,23,Ticks_Phase_5,37,1,48,24,905420748
579,23,Ticks_Phase_5,38,5,42,127,905906540
579,23,Ticks_Phase_5,39,1,48,27,905929724
579,23,Ticks_Phase_5,40,5,42,127,906407276
579,23,Ticks_Phase_5,41,1,48,23,906418484
579,23,Ticks_Phase_5,42,1,48,26,906905424
579,23,Ticks_Phase_5,43,5,42,127,906906860
579,23,Ticks_Phase_5,44,1,48,27,907402016
579,23,Ticks_Phase_5,45,5,42,127,907406696
579,23,Ticks_Phase_5,46,5,42,127,907906316
579,23,Ticks_Phase_5,47,1,48,26,907909956
579,23,Ticks_Phase_5,48,1,48,28,908404084
579,23,Ticks_Phase_5,49,5,42,127,908407192
579,23,Ticks_Phase_5,50,1,48,28,908896968
579,23,Ticks_Phase_5,51,5,42,127,908906732
579,23,Ticks_Phase_5,52,1,48,32,909399648
579,23,Ticks_Phase_5,53,5,42,127,909406496
579,23,Ticks_Phase_5,54,5,42,127,909907384
579,23,Ticks_Phase_5,55,1,48,24,909910576
579,23,Ticks_Phase_5,56,5,42,127,910396740
579,23,Ticks_Phase_5,57,1,48,33,910402024
579,23,Ticks_Phase_5,58,5,42,127,910896432
579,23,Ticks_Phase_5,59,1,48,25,910918196
579,23,Ticks_Phase_5,60,5,42,127,911397312
579,23,Ticks_Phase_5,61,1,48,28,911406652
579,23,Ticks_Phase_5,62,1,48,28,911879740
579,23,Ticks_Phase_5,63,5,42,127,911897220
579,23,Ticks_Phase_5,64,1,48,32,912385052
579,23,Ticks_Phase_5,65,5,42,127,912396608
579,23,Ticks_Phase_5,66,5,42,127,912897348
579,23,Ticks_Phase_5,67,1,48,27,912909532
579,23,Ticks_Phase_5,68,5,42,127,913397260
579,23,Ticks_Phase_5,69,1,48,27,913403148
579,23,Ticks_Phase_5,70,5,42,127,913897096
579,23,Ticks_Phase_5,71,1,48,25,913904252
579,23,Ticks_Phase_5,72,1,48,26,914395584
579,23,Ticks_Phase_5,73,5,42,127,914397232
579,23,Ticks_Phase_5,74,1,48,27,914893140
579,23,Ticks_Phase_5,75,5,42,127,914897292
579,23,Ticks_Phase_5,76,1,48,27,915394392
579,23,Ticks_Phase_5,77,5,42,127,915397128
579,23,Ticks_Phase_5,78,5,42,127,915896604
579,23,Ticks_Phase_5,79,1,48,24,915908112
579,23,Ticks_Phase_5,80,1,48,27,916389212
579,23,Ticks_Phase_5,81,5,42,127,916397408
579,23,Ticks_Phase_5,82,1,48,25,916876748
579,23,Ticks_Phase_5,83,5,42,127,916907352
579,23,Ticks_Phase_5,84,1,48,26,917386400
579,23,Ticks_Phase_5,85,5,42,127,917407092
579,23,Ticks_Phase_5,86,1,48,25,917899460
579,23,Ticks_Phase_5,87,5,42,127,917907052
579,23,Ticks_Phase_5,88,1,48,26,918385220
579,23,Ticks_Phase_5,89,5,42,127,918406368
579,23,Ticks_Phase_5,90,1,48,26,918899504
579,23,Ticks_Phase_5,91,5,42,127,918907180
579,23,Ticks_Phase_5,92,1,48,24,919377260
579,23,Ticks_Phase_5,93,5,42,127,919417200
579,23,Ticks_Phase_5,94,5,42,127,919917120
579,23,Ticks_Phase_5,95,1,48,24,919920236
579,23,Ticks_Phase_5,96,5,42,127,920416660
579,23,Ticks_Phase_5,97,1,48,23,920430408
579,23,Ticks_Phase_5,98,1,48,26,920887408
579,23,Ticks_Phase_5,99,5,42,127,920917312
579,23,Ticks_Phase_5,100,1,48,27,921387988
579,23,Ticks_Phase_5,101,5,42,127,921417000
579,23,Ticks_Phase_5,102,1,48,26,921904976
579,23,Ticks_Phase_5,103,5,42,127,921916984
579,23,Ticks_Phase_5,104,1,48,25,922411696
579,23,Ticks_Phase_5,105,5,42,127,922416448
579,23,Ticks_Phase_5,106,1,48,25,922917044
579,23,Ticks_Phase_5,107,5,42,127,922918456
579,23,Ticks_Phase_5,108,5,42,127,923417028
579,23,Ticks_Phase_5,109,1,48,25,923421720
579,23,Ticks_Phase_5,110,5,42,127,923916864
579,23,Ticks_Phase_5,111,1,48,25,923924168
579,23,Ticks_Phase_5,112,5,42,127,924417376
579,23,Ticks_Phase_5,113,1,48,26,924434804
579,23,Ticks_Phase_5,114,5,42,127,924917064
579,23,Ticks_Phase_5,115,1,48,29,924920776
579,23,Ticks_Phase_5,116,1,48,24,925416372
579,23,Ticks_Phase_5,117,5,42,127,925417944
579,23,Ticks_Phase_5,118,5,42,127,925916516
579,23,Ticks_Phase_5,119,1,48,28,925922700
579,23,Ticks_Phase_5,120,1,48,24,926400888
579,23,Ticks_Phase_5,121,5,42,127,926417172
579,23,Ticks_Phase_5,122,1,48,27,926899976
579,23,Ticks_Phase_5,123,5,42,127,926916936
579,23,Ticks_Phase_5,124,1,48,27,927401388
579,23,Ticks_Phase_5,125,5,42,127,927437144
579,23,Ticks_Phase_5,126,1,48,29,927930208
579,23,Ticks_Phase_5,127,5,42,127,927936904
579,23,Ticks_Phase_5,128,5,42,127,928436676
579,23,Ticks_Phase_5,129,1,48,26,928445336
579,23,Ticks_Phase_5,130,5,42,127,928937336
579,23,Ticks_Phase_5,131,1,48,24,928960224
579,23,Ticks_Phase_5,132,5,42,127,929437148
579,23,Ticks_Phase_5,133,1,48,25,929440044
579,23,Ticks_Phase_5,134,5,42,127,929936884
579,23,Ticks_Phase_5,135,1,48,24,929957852
579,23,Ticks_Phase_5,136,5,42,127,930436724
579,23,Ticks_Phase_5,137,1,48,29,930463952
579,23,Ticks_Phase_5,138,5,42,127,930937136
579,23,Ticks_Phase_5,139,1,48,27,930959504
579,23,Ticks_Phase_5,140,5,42,127,931436900
579,23,Ticks_Phase_5,141,1,48,31,931465856
579,23,Ticks_Phase_5,142,5,42,127,931936808
579,23,Ticks_Phase_5,143,1,48,27,931960296
579,23,Ticks_Phase_5,144,5,42,127,932437472
579,23,Ticks_Phase_5,145,1,48,26,932450024
579,23,Ticks_Phase_5,146,5,42,127,932937084
579,23,Ticks_Phase_5,147,1,48,28,932963260
579,23,Ticks_Phase_5,148,5,42,127,933436848
579,23,Ticks_Phase_5,149,1,48,27,933467680
579,23,Ticks_Phase_5,150,5,42,127,933936760
579,23,Ticks_Phase_5,151,1,48,26,933939432
579,23,Ticks_Phase_5,152,5,42,127,934437200
579,23,Ticks_Phase_5,153,1,48,29,934460308
579,23,Ticks_Phase_5,154,5,42,127,934936888
579,23,Ticks_Phase_5,155,1,48,28,934961120
579,23,Ticks_Phase_5,156,5,42,127,935436800
579,23,Ticks_Phase_5,157,1,48,23,935442160
579,23,Ticks_Phase_5,158,5,42,127,935916868
579,23,Ticks_Phase_5,159,1,48,27,935920208
579,23,Ticks_Phase_5,160,5,42,127,936416704
579,23,Ticks_Phase_5,161,1,48,25,936427544
579,23,Ticks_Phase_5,162,5,42,127,936917216
579,23,Ticks_Phase_5,163,1,48,29,936936668
579,23,Ticks_Phase_5,164,5,42,127,937417128
579,23,Ticks_Phase_5,165,1,48,28,937442108
579,23,Ticks_Phase_5,166,1,48,27,937913176
579,23,Ticks_Phase_5,167,5,42,127,937916812
579,23,Ticks_Phase_5,168,1,48,27,938406508
579,23,Ticks_Phase_5,169,5,42,127,938416572
579,23,Ticks_Phase_5,170,1,48,28,938883772
579,23,Ticks_Phase_5,171,5,42,127,938917160
579,23,Ticks_Phase_5,172,1,48,24,939363540
579,23,Ticks_Phase_5,173,5,42,127,939416896
579,23,Ticks_Phase_5,174,1,48,29,939862480
579,23,Ticks_Phase_5,175,5,42,127,939916508
579,23,Ticks_Phase_5,176,1,48,24,940368988
579,23,Ticks_Phase_5,177,5,42,127,940417468
579,23,Ticks_Phase_5,178,1,48,22,940914964
579,23,Ticks_Phase_5,179,5,42,127,940917008
579,23,Ticks_Phase_5,180,5,42,127,941416776
579,23,Ticks_Phase_5,181,1,48,21,941452164
579,23,Ticks_Phase_5,182,5,42,127,941916464
579,23,Ticks_Phase_5,183,1,48,23,941978892
579,23,Ticks_Phase_5,184,5,42,127,942417420
579,23,Ticks_Phase_5,185,1,48,24,942430500
579,23,Ticks_Phase_5,186,5,42,127,942917036
579,23,Ticks_Phase_5,187,1,48,27,942919628
579,23,Ticks_Phase_5,188,1,48,26,943411440
579,23,Ticks_Phase_5,189,5,42,127,943416792
579,23,Ticks_Phase_5,190,5,42,127,943867360
579,23,Ticks_Phase_5,191,1,48,26,943904620
579,23,Ticks_Phase_5,192,5,42,127,944366900
579,23,Ticks_Phase_5,193,1,48,28,944375412
579,23,Ticks_Phase_5,194,5,42,127,944866660
579,23,Ticks_Phase_5,195,1,48,28,944876372
579,23,Ticks_Phase_5,196,5,42,127,945367396
579,23,Ticks_Phase_5,197,1,48,25,945382796
579,23,Ticks_Phase_5,198,1,48,27,945852444
579,23,Ticks_Phase_5,199,5,42,127,945867080
579,23,Ticks_Phase_5,200,1,48,27,946353328
579,23,Ticks_Phase_5,201,5,42,127,946366768
579,23,Ticks_Phase_5,202,1,48,27,946864644
579,23,Ticks_Phase_5,203,5,42,127,946866456
579,23,Ticks_Phase_5,204,1,48,25,947366368
579,23,Ticks_Phase_5,205,5,42,127,947367788
579,23,Ticks_Phase_5,206,5,42,127,947867012
579,23,Ticks_Phase_5,207,1,48,24,947871176
579,23,Ticks_Phase_5,208,1,48,26,948365392
579,23,Ticks_Phase_5,209,5,42,127,948366888
579,23,Ticks_Phase_5,210,1,48,29,948856812
579,23,Ticks_Phase_5,211,5,42,127,948866356
579,23,Ticks_Phase_5,212,5,42,127,949367396
579,23,Ticks_Phase_5,213,1,48,24,949373728
579,23,Ticks_Phase_5,214,1,48,24,949856716
579,23,Ticks_Phase_5,215,5,42,127,949867004
579,23,Ticks_Phase_5,216,1,48,23,950354744
579,23,Ticks_Phase_5,217,5,42,127,950366616
579,23,Ticks_Phase_5,218,1,48,22,950850996
579,23,Ticks_Phase_5,219,5,42,127,950867424
579,23,Ticks_Phase_5,220,1,48,23,951354424
579,23,Ticks_Phase_5,221,5,42,127,951366964
579,23,Ticks_Phase_5,222,1,48,26,951851492
579,23,Ticks_Phase_5,223,5,42,127,951866732
579,23,Ticks_Phase_5,224,1,48,22,952336280
579,23,Ticks_Phase_5,225,5,42,127,952416520
579,23,Ticks_Phase_5,226,1,48,21,952850572
579,23,Ticks_Phase_5,227,5,42,127,952917328
579,23,Ticks_Phase_5,228,5,42,127,953417320
579,23,Ticks_Phase_5,229,1,48,19,953425684
579,23,Ticks_Phase_5,230,5,42,127,953916932
579,23,Ticks_Phase_5,231,1,48,17,953936380
579,23,Ticks_Phase_5,232,5,42,127,954416400
579,23,Ticks_Phase_5,233,1,48,21,954423556
579,23,Ticks_Phase_5,234,1,48,24,954916000
579,23,Ticks_Phase_5,235,5,42,127,954917500
579,23,Ticks_Phase_5,236,1,48,24,955415764
579,23,Ticks_Phase_5,237,5,42,127,955417412
579,23,Ticks_Phase_5,238,5,42,127,955916588
579,23,Ticks_Phase_5,239,1,48,21,955918600
579,23,Ticks_Phase_5,240,5,42,127,956417324
579,23,Ticks_Phase_5,241,1,48,21,956423508
579,23,Ticks_Phase_5,242,5,42,127,956917088
579,23,Ticks_Phase_5,243,1,48,20,956918720
579,23,Ticks_Phase_5,244,5,42,127,957416776
579,23,Ticks_Phase_5,245,1,48,22,957428580
579,23,Ticks_Phase_5,246,5,42,127,957916540
579,23,Ticks_Phase_5,247,1,48,24,957923400
579,23,Ticks_Phase_5,248,5,42,127,958417276
579,23,Ticks_Phase_5,249,1,48,26,958419940
579,23,Ticks_Phase_5,250,5,42,127,958917112
579,23,Ticks_Phase_5,251,1,48,25,958920676
579,23,Ticks_Phase_5,252,5,42,127,959416872
579,23,Ticks_Phase_5,253,1,48,26,959419316
579,23,Ticks_Phase_5,254,5,42,127,959917388
579,23,Ticks_Phase_5,255,1,48,23,959928596
579,23,Ticks_Phase_5,256,5,42,127,960427336
579,23,Ticks_Phase_5,257,1,48,21,960429044
579,23,Ticks_Phase_5,258,1,48,24,960929604
579,23,Ticks_Phase_5,259,5,42,127,961026320
579,23,Ticks_Phase_5,260,1,48,20,961465844
579,23,Ticks_Phase_5,261,5,42,127,961527128
579,23,Ticks_Phase_5,262,1,48,21,962023184
579,23,Ticks_Phase_5,263,5,42,127,962027040
579,23,Ticks_Phase_5,264,5,42,127,962526436
579,23,Ticks_Phase_5,265,1,48,17,962607736
579,23,Ticks_Phase_5,266,5,42,127,963027172
579,23,Ticks_Phase_5,267,1,48,22,963035608
579,23,Ticks_Phase_5,268,5,42,127,963527008
579,23,Ticks_Phase_5,269,1,48,24,963536864
579,23,Ticks_Phase_5,270,5,42,127,964026844
579,23,Ticks_Phase_5,271,1,48,24,964028256
579,23,Ticks_Phase_5,272,5,42,127,964526308
579,23,Ticks_Phase_5,273,1,48,21,964551064
579,23,Ticks_Phase_5,274,5,42,127,965027116
579,23,Ticks_Phase_5,275,1,48,23,965034796
579,23,Ticks_Phase_5,276,5,42,127,965527004
579,23,Ticks_Phase_5,277,1,48,24,965532892
579,23,Ticks_Phase_5,278,5,42,127,966026472
579,23,Ticks_Phase_5,279,1,48,24,966029960
579,23,Ticks_Phase_5,280,5,42,127,966527276
579,23,Ticks_Phase_5,281,1,48,24,966536988
579,23,Ticks_Phase_5,282,5,42,127,967027040
579,23,Ticks_Phase_5,283,1,48,23,967049556
579,23,Ticks_Phase_5,284,5,42,127,967526804
579,23,Ticks_Phase_5,285,1,48,24,967553208
579,23,Ticks_Phase_5,286,5,42,127,968026340
579,23,Ticks_Phase_5,287,1,48,24,968033496
579,23,Ticks_Phase_5,288,5,42,127,968527076
579,23,Ticks_Phase_5,289,1,48,23,968529088
579,23,Ticks_Phase_5,290,5,42,127,969026840
579,23,Ticks_Phase_5,291,1,48,23,969031600
579,23,Ticks_Phase_5,292,5,42,127,969526824
579,23,Ticks_Phase_5,293,1,48,22,969537812
579,23,Ticks_Phase_5,294,5,42,127,970027412
579,23,Ticks_Phase_5,295,1,48,24,970048656
579,23,Ticks_Phase_5,296,5,42,127,970426828
579,23,Ticks_Phase_5,297,1,48,25,970526548
579,23,Ticks_Phase_5,298,5,42,127,970926516
579,23,Ticks_Phase_5,299,1,48,19,970999652
579,23,Ticks_Phase_5,300,5,42,127,971427252
579,23,Ticks_Phase_5,301,1,48,18,971437784
579,23,Ticks_Phase_5,302,5,42,127,971926988
579,23,Ticks_Phase_5,303,1,48,22,971992732
579,23,Ticks_Phase_5,304,5,42,127,972426752
579,23,Ticks_Phase_5,305,1,48,21,972489132
579,23,Ticks_Phase_5,306,5,42,127,972927264
579,23,Ticks_Phase_5,307,1,48,24,972937280
579,23,Ticks_Phase_5,308,5,42,127,973427028
579,23,Ticks_Phase_5,309,1,48,24,973431264
579,23,Ticks_Phase_5,310,5,42,127,973926712
579,23,Ticks_Phase_5,311,1,48,23,973974844
579,23,Ticks_Phase_5,312,5,42,127,974426624
579,23,Ticks_Phase_5,313,1,48,20,974429220
579,23,Ticks_Phase_5,314,1,48,22,974927212
579,23,Ticks_Phase_5,315,5,42,127,974928696
579,23,Ticks_Phase_5,316,1,48,23,975418024
579,23,Ticks_Phase_5,317,5,42,127,975426892
579,23,Ticks_Phase_5,318,1,48,22,975925072
579,23,Ticks_Phase_5,319,5,42,127,975926656
579,23,Ticks_Phase_5,320,1,48,23,976405872
579,23,Ticks_Phase_5,321,5,42,127,976427468
579,23,Ticks_Phase_5,322,1,48,23,976918740
579,23,Ticks_Phase_5,323,5,42,127,976927080
579,23,Ticks_Phase_5,324,1,48,22,977415880
579,23,Ticks_Phase_5,325,5,42,127,977426692
579,23,Ticks_Phase_5,326,1,48,23,977903424
579,23,Ticks_Phase_5,327,5,42,127,977926604
579,23,Ticks_Phase_5,328,1,48,25,978420044
579,23,Ticks_Phase_5,329,5,42,127,978427188
579,23,Ticks_Phase_5,330,1,48,22,978919732
579,23,Ticks_Phase_5,331,5,42,127,978927028
579,23,Ticks_Phase_5,332,1,48,23,979401592
579,23,Ticks_Phase_5,333,5,42,127,979426640
579,23,Ticks_Phase_5,334,1,48,22,979925332
579,23,Ticks_Phase_5,335,5,42,127,979927300
579,23,Ticks_Phase_5,0,9999,9999,9999,895394872
579,23,Ticks_Phase_5,1,9999,9999,9999,895894632
579,23,Ticks_Phase_5,2,9999,9999,9999,896394340
579,23,Ticks_Phase_5,3,9999,9999,9999,896895096
579,23,Ticks_Phase_5,4,9999,9999,9999,897394800
579,23,Ticks_Phase_5,5,9999,9999,9999,897894488
579,23,Ticks_Phase_5,6,9999,9999,9999,898394176
579,23,Ticks_Phase_5,7,9999,9999,9999,898894920
579,23,Ticks_Phase_5,8,9999,9999,9999,899394680
579,23,Ticks_Phase_5,9,9999,9999,9999,899894368
579,23,Ticks_Phase_5,10,9999,9999,9999,900395104
579,23,Ticks_Phase_5,11,9999,9999,9999,900905052
579,23,Ticks_Phase_5,12,9999,9999,9999,901404740
579,23,Ticks_Phase_5,13,9999,9999,9999,901904500
579,23,Ticks_Phase_5,14,9999,9999,9999,902404188
579,23,Ticks_Phase_5,15,9999,9999,9999,902904924
579,23,Ticks_Phase_5,16,9999,9999,9999,903404612
579,23,Ticks_Phase_5,17,9999,9999,9999,903904376
579,23,Ticks_Phase_5,18,9999,9999,9999,904405112
579,23,Ticks_Phase_5,19,9999,9999,9999,904904792
579,23,Ticks_Phase_5,20,9999,9999,9999,905404488
579,23,Ticks_Phase_5,21,9999,9999,9999,905904252
579,23,Ticks_Phase_5,22,9999,9999,9999,906404988
579,23,Ticks_Phase_5,23,9999,9999,9999,906904652
579,23,Ticks_Phase_5,24,9999,9999,9999,907404404
579,23,Ticks_Phase_5,25,9999,9999,9999,907904100
579,23,Ticks_Phase_5,26,9999,9999,9999,908404828
579,23,Ticks_Phase_5,27,9999,9999,9999,908904516
579,23,Ticks_Phase_5,28,9999,9999,9999,909404280
579,23,Ticks_Phase_5,29,9999,9999,9999,909905020
579,23,Ticks_Phase_5,30,9999,9999,9999,910394448
579,23,Ticks_Phase_5,31,9999,9999,9999,910894140
579,23,Ticks_Phase_5,32,9999,9999,9999,911394876
579,23,Ticks_Phase_5,33,9999,9999,9999,911894632
579,23,Ticks_Phase_5,34,9999,9999,9999,912394320
579,23,Ticks_Phase_5,35,9999,9999,9999,912895060
579,23,Ticks_Phase_5,36,9999,9999,9999,913394748
579,23,Ticks_Phase_5,37,9999,9999,9999,913894512
579,23,Ticks_Phase_5,38,9999,9999,9999,914394200
579,23,Ticks_Phase_5,39,9999,9999,9999,914894928
579,23,Ticks_Phase_5,40,9999,9999,9999,915394616
579,23,Ticks_Phase_5,41,9999,9999,9999,915894388
579,23,Ticks_Phase_5,42,9999,9999,9999,916395116
579,23,Ticks_Phase_5,43,9999,9999,9999,916905064
579,23,Ticks_Phase_5,44,9999,9999,9999,917404728
579,23,Ticks_Phase_5,45,9999,9999,9999,917904464
579,23,Ticks_Phase_5,46,9999,9999,9999,918404152
579,23,Ticks_Phase_5,47,9999,9999,9999,918904888
579,23,Ticks_Phase_5,48,9999,9999,9999,919414912
579,23,Ticks_Phase_5,49,9999,9999,9999,919914608
579,23,Ticks_Phase_5,50,9999,9999,9999,920414296
579,23,Ticks_Phase_5,51,9999,9999,9999,920915020
579,23,Ticks_Phase_5,52,9999,9999,9999,921414712
579,23,Ticks_Phase_5,53,9999,9999,9999,921914472
579,23,Ticks_Phase_5,54,9999,9999,9999,922414160
579,23,Ticks_Phase_5,55,9999,9999,9999,922914904
579,23,Ticks_Phase_5,56,9999,9999,9999,923414588
579,23,Ticks_Phase_5,57,9999,9999,9999,923914352
579,23,Ticks_Phase_5,58,9999,9999,9999,924415088
579,23,Ticks_Phase_5,59,9999,9999,9999,924914776
579,23,Ticks_Phase_5,60,9999,9999,9999,925414464
579,23,Ticks_Phase_5,61,9999,9999,9999,925914228
579,23,Ticks_Phase_5,62,9999,9999,9999,926414956
579,23,Ticks_Phase_5,63,9999,9999,9999,926914644
579,23,Ticks_Phase_5,64,9999,9999,9999,927434852
579,23,Ticks_Phase_5,65,9999,9999,9999,927934540
579,23,Ticks_Phase_5,66,9999,9999,9999,928434236
579,23,Ticks_Phase_5,67,9999,9999,9999,928934972
579,23,Ticks_Phase_5,68,9999,9999,9999,929434708
579,23,Ticks_Phase_5,69,9999,9999,9999,929934448
579,23,Ticks_Phase_5,70,9999,9999,9999,930434136
579,23,Ticks_Phase_5,71,9999,9999,9999,930934848
579,23,Ticks_Phase_5,72,9999,9999,9999,931434608
579,23,Ticks_Phase_5,73,9999,9999,9999,931934296
579,23,Ticks_Phase_5,74,9999,9999,9999,932435032
579,23,Ticks_Phase_5,75,9999,9999,9999,932934720
579,23,Ticks_Phase_5,76,9999,9999,9999,933434484
579,23,Ticks_Phase_5,77,9999,9999,9999,933934172
579,23,Ticks_Phase_5,78,9999,9999,9999,934434912
579,23,Ticks_Phase_5,79,9999,9999,9999,934934600
579,23,Ticks_Phase_5,80,9999,9999,9999,935434360
579,23,Ticks_Phase_5,81,9999,9999,9999,935914580
579,23,Ticks_Phase_5,82,9999,9999,9999,936414268
579,23,Ticks_Phase_5,83,9999,9999,9999,936915000
579,23,Ticks_Phase_5,84,9999,9999,9999,937414764
579,23,Ticks_Phase_5,85,9999,9999,9999,937914448
579,23,Ticks_Phase_5,86,9999,9999,9999,938414136
579,23,Ticks_Phase_5,87,9999,9999,9999,938914868
579,23,Ticks_Phase_5,88,9999,9999,9999,939414608
579,23,Ticks_Phase_5,89,9999,9999,9999,939914296
579,23,Ticks_Phase_5,90,9999,9999,9999,940415028
579,23,Ticks_Phase_5,91,9999,9999,9999,940914756
579,23,Ticks_Phase_5,92,9999,9999,9999,941414488
579,23,Ticks_Phase_5,93,9999,9999,9999,941914172
579,23,Ticks_Phase_5,94,9999,9999,9999,942414908
579,23,Ticks_Phase_5,95,9999,9999,9999,942914668
579,23,Ticks_Phase_5,96,9999,9999,9999,943414352
579,23,Ticks_Phase_5,97,9999,9999,9999,943864920
579,23,Ticks_Phase_5,98,9999,9999,9999,944364608
579,23,Ticks_Phase_5,99,9999,9999,9999,944864372
579,23,Ticks_Phase_5,100,9999,9999,9999,945365108
579,23,Ticks_Phase_5,101,9999,9999,9999,945864792
579,23,Ticks_Phase_5,102,9999,9999,9999,946364480
579,23,Ticks_Phase_5,103,9999,9999,9999,946864192
579,23,Ticks_Phase_5,104,9999,9999,9999,947364984
579,23,Ticks_Phase_5,105,9999,9999,9999,947864648
579,23,Ticks_Phase_5,106,9999,9999,9999,948364384
579,23,Ticks_Phase_5,107,9999,9999,9999,948864068
579,23,Ticks_Phase_5,108,9999,9999,9999,949364808
579,23,Ticks_Phase_5,109,9999,9999,9999,949864564
579,23,Ticks_Phase_5,110,9999,9999,9999,950364252
579,23,Ticks_Phase_5,111,9999,9999,9999,950864988
579,23,Ticks_Phase_5,112,9999,9999,9999,951364676
579,23,Ticks_Phase_5,113,9999,9999,9999,951864440
579,23,Ticks_Phase_5,114,9999,9999,9999,952414304
579,23,Ticks_Phase_5,115,9999,9999,9999,952915036
579,23,Ticks_Phase_5,116,9999,9999,9999,953414732
579,23,Ticks_Phase_5,117,9999,9999,9999,953914496
579,23,Ticks_Phase_5,118,9999,9999,9999,954414184
579,23,Ticks_Phase_5,119,9999,9999,9999,954914920
579,23,Ticks_Phase_5,120,9999,9999,9999,955414608
579,23,Ticks_Phase_5,121,9999,9999,9999,955914296
579,23,Ticks_Phase_5,122,9999,9999,9999,956415036
579,23,Ticks_Phase_5,123,9999,9999,9999,956914796
579,23,Ticks_Phase_5,124,9999,9999,9999,957414488
579,23,Ticks_Phase_5,125,9999,9999,9999,957914176
579,23,Ticks_Phase_5,126,9999,9999,9999,958414912
579,23,Ticks_Phase_5,127,9999,9999,9999,958914672
579,23,Ticks_Phase_5,128,9999,9999,9999,959414360
579,23,Ticks_Phase_5,129,9999,9999,9999,959915096
579,23,Ticks_Phase_5,130,9999,9999,9999,960425044
579,23,Ticks_Phase_5,131,9999,9999,9999,961024104
579,23,Ticks_Phase_5,132,9999,9999,9999,961524840
579,23,Ticks_Phase_5,133,9999,9999,9999,962024528
579,23,Ticks_Phase_5,134,9999,9999,9999,962524220
579,23,Ticks_Phase_5,135,9999,9999,9999,963024956
579,23,Ticks_Phase_5,136,9999,9999,9999,963524716
579,23,Ticks_Phase_5,137,9999,9999,9999,964024404
579,23,Ticks_Phase_5,138,9999,9999,9999,964524096
579,23,Ticks_Phase_5,139,9999,9999,9999,965024828
579,23,Ticks_Phase_5,140,9999,9999,9999,965524568
579,23,Ticks_Phase_5,141,9999,9999,9999,966024256
579,23,Ticks_Phase_5,142,9999,9999,9999,966524988
579,23,Ticks_Phase_5,143,9999,9999,9999,967024752
579,23,Ticks_Phase_5,144,9999,9999,9999,967524440
579,23,Ticks_Phase_5,145,9999,9999,9999,968024128
579,23,Ticks_Phase_5,146,9999,9999,9999,968524864
579,23,Ticks_Phase_5,147,9999,9999,9999,969024624
579,23,Ticks_Phase_5,148,9999,9999,9999,969524312
579,23,Ticks_Phase_5,149,9999,9999,9999,970025048
579,23,Ticks_Phase_5,150,9999,9999,9999,970424388
579,23,Ticks_Phase_5,151,9999,9999,9999,970924152
579,23,Ticks_Phase_5,152,9999,9999,9999,971424888
579,23,Ticks_Phase_5,153,9999,9999,9999,971924552
579,23,Ticks_Phase_5,154,9999,9999,9999,972424316
579,23,Ticks_Phase_5,155,9999,9999,9999,972925048
579,23,Ticks_Phase_5,156,9999,9999,9999,973424736
579,23,Ticks_Phase_5,157,9999,9999,9999,973924424
579,23,Ticks_Phase_5,158,9999,9999,9999,974424184
579,23,Ticks_Phase_5,159,9999,9999,9999,974924920
579,23,Ticks_Phase_5,160,9999,9999,9999,975424604
579,23,Ticks_Phase_5,161,9999,9999,9999,975924300
579,23,Ticks_Phase_5,162,9999,9999,9999,976425028
579,23,Ticks_Phase_5,163,9999,9999,9999,976924792
579,23,Ticks_Phase_5,164,9999,9999,9999,977424480
579,23,Ticks_Phase_5,165,9999,9999,9999,977924168
579,23,Ticks_Phase_5,166,9999,9999,9999,978424900
579,23,Ticks_Phase_5,167,9999,9999,9999,978924664
579,23,Ticks_Phase_5,168,9999,9999,9999,979424352
579,23,Ticks_Phase_5,169,9999,9999,9999,979925052
5710,22,Ticks_Phase_8,0,5,42,127,991442464
5710,22,Ticks_Phase_8,1,5,42,127,992242048
5710,22,Ticks_Phase_8,2,5,42,127,993041708
5710,22,Ticks_Phase_8,3,1,48,29,993070520
5710,22,Ticks_Phase_8,4,1,48,28,993837336
5710,22,Ticks_Phase_8,5,5,42,127,993841636
5710,22,Ticks_Phase_8,6,1,48,31,994638464
5710,22,Ticks_Phase_8,7,5,42,127,994642468
5710,22,Ticks_Phase_8,8,1,48,25,995406428
5710,22,Ticks_Phase_8,9,5,42,127,995441956
5710,22,Ticks_Phase_8,10,1,48,20,996161136
5710,22,Ticks_Phase_8,11,5,42,127,996241820
5710,22,Ticks_Phase_8,12,1,48,25,996967280
5710,22,Ticks_Phase_8,13,5,42,127,997041404
5710,22,Ticks_Phase_8,14,1,48,22,997834640
5710,22,Ticks_Phase_8,15,5,42,127,997842164
5710,22,Ticks_Phase_8,16,1,48,21,998641128
5710,22,Ticks_Phase_8,17,5,42,127,998642696
5710,22,Ticks_Phase_8,18,1,48,24,999417964
5710,22,Ticks_Phase_8,19,5,42,127,999441736
5710,22,Ticks_Phase_8,20,1,48,24,1000194236
5710,22,Ticks_Phase_8,21,5,42,127,1000241448
5710,22,Ticks_Phase_8,22,1,48,24,1001014164
5710,22,Ticks_Phase_8,23,5,42,127,1001042280
5710,22,Ticks_Phase_8,24,1,48,28,1001818144
5710,22,Ticks_Phase_8,25,5,42,127,1001842212
5710,22,Ticks_Phase_8,26,1,48,27,1002603180
5710,22,Ticks_Phase_8,27,5,42,127,1002641704
5710,22,Ticks_Phase_8,28,1,48,24,1003397200
5710,22,Ticks_Phase_8,29,5,42,127,1003441664
5710,22,Ticks_Phase_8,30,1,48,22,1004214384
5710,22,Ticks_Phase_8,31,5,42,127,1004242272
5710,22,Ticks_Phase_8,32,1,48,22,1005016268
5710,22,Ticks_Phase_8,33,5,42,127,1005041984
5710,22,Ticks_Phase_8,34,5,42,127,1005842000
5710,22,Ticks_Phase_8,35,1,48,19,1005861452
5710,22,Ticks_Phase_8,36,1,48,21,1006589176
5710,22,Ticks_Phase_8,37,5,42,127,1006641632
5710,22,Ticks_Phase_8,38,1,48,20,1007380736
5710,22,Ticks_Phase_8,39,5,42,127,1007442244
5710,22,Ticks_Phase_8,40,1,48,25,1008168980
5710,22,Ticks_Phase_8,41,5,42,127,1008242028
5710,22,Ticks_Phase_8,42,1,48,23,1009013032
5710,22,Ticks_Phase_8,43,5,42,127,1009042036
5710,22,Ticks_Phase_8,44,1,48,24,1009820332
5710,22,Ticks_Phase_8,45,5,42,127,1009841476
5710,22,Ticks_Phase_8,46,1,48,26,1010613304
5710,22,Ticks_Phase_8,47,5,42,127,1010642308
5710,22,Ticks_Phase_8,48,1,48,25,1011442400
5710,22,Ticks_Phase_8,49,5,42,127,1011443744
5710,22,Ticks_Phase_8,50,5,42,127,1012241964
5710,22,Ticks_Phase_8,51,1,48,23,1012275340
5710,22,Ticks_Phase_8,52,5,42,127,1013041452
5710,22,Ticks_Phase_8,53,1,48,25,1013046888
5710,22,Ticks_Phase_8,54,1,48,21,1013821660
5710,22,Ticks_Phase_8,55,5,42,127,1013842276
5710,22,Ticks_Phase_8,56,1,48,25,1014583844
5710,22,Ticks_Phase_8,57,5,42,127,1014641916
5710,22,Ticks_Phase_8,58,1,48,24,1015412612
5710,22,Ticks_Phase_8,59,5,42,127,1015422232
5710,22,Ticks_Phase_8,60,1,48,25,1016199216
5710,22,Ticks_Phase_8,61,5,42,127,1016222040
5710,22,Ticks_Phase_8,62,1,48,20,1017015204
5710,22,Ticks_Phase_8,63,5,42,127,1017021680
5710,22,Ticks_Phase_8,64,1,48,25,1017794628
5710,22,Ticks_Phase_8,65,5,42,127,1017821616
5710,22,Ticks_Phase_8,66,1,48,23,1018613508
5710,22,Ticks_Phase_8,67,5,42,127,1018622300
5710,22,Ticks_Phase_8,68,1,48,24,1019419728
5710,22,Ticks_Phase_8,69,5,42,127,1019422160
5710,22,Ticks_Phase_8,70,5,42,127,1020221728
5710,22,Ticks_Phase_8,71,1,48,20,1020263940
5710,22,Ticks_Phase_8,72,5,42,127,1021021664
5710,22,Ticks_Phase_8,73,1,48,22,1021032272
5710,22,Ticks_Phase_8,74,5,42,127,1021822648
5710,22,Ticks_Phase_8,75,1,48,24,1021852528
5710,22,Ticks_Phase_8,76,5,42,127,1022622084
5710,22,Ticks_Phase_8,77,1,48,20,1022628792
5710,22,Ticks_Phase_8,78,5,42,127,1023421872
5710,22,Ticks_Phase_8,79,1,48,19,1023453072
5710,22,Ticks_Phase_8,80,1,48,23,1024193692
5710,22,Ticks_Phase_8,81,5,42,127,1024221652
5710,22,Ticks_Phase_8,82,1,48,21,1025011004
5710,22,Ticks_Phase_8,83,5,42,127,1025022560
5710,22,Ticks_Phase_8,84,1,48,27,1025771848
5710,22,Ticks_Phase_8,85,5,42,127,1025822048
5710,22,Ticks_Phase_8,86,1,48,28,1026593644
5710,22,Ticks_Phase_8,87,5,42,127,1026621984
5710,22,Ticks_Phase_8,88,5,42,127,1027421556
5710,22,Ticks_Phase_8,89,1,48,28,1027423924
5710,22,Ticks_Phase_8,90,5,42,127,1028222608
5710,22,Ticks_Phase_8,91,1,48,26,1028261632
5710,22,Ticks_Phase_8,92,1,48,27,1029014348
5710,22,Ticks_Phase_8,93,5,42,127,1029022044
5710,22,Ticks_Phase_8,94,1,48,32,1029817004
5710,22,Ticks_Phase_8,95,5,42,127,1029842572
5710,22,Ticks_Phase_8,96,1,48,30,1030634544
5710,22,Ticks_Phase_8,97,5,42,127,1030641912
5710,22,Ticks_Phase_8,98,1,48,26,1031399200
5710,22,Ticks_Phase_8,99,5,42,127,1031441776
5710,22,Ticks_Phase_8,100,1,48,27,1032230748
5710,22,Ticks_Phase_8,101,5,42,127,1032241560
5710,22,Ticks_Phase_8,102,1,48,31,1033027612
5710,22,Ticks_Phase_8,103,5,42,127,1033042544
5710,22,Ticks_Phase_8,104,1,48,29,1033786356
5710,22,Ticks_Phase_8,105,5,42,127,1033841956
5710,22,Ticks_Phase_8,106,1,48,25,1034603524
5710,22,Ticks_Phase_8,107,5,42,127,1034641744
5710,22,Ticks_Phase_8,108,1,48,23,1035381520
5710,22,Ticks_Phase_8,109,5,42,127,1035441632
5710,22,Ticks_Phase_8,110,1,48,21,1036201772
5710,22,Ticks_Phase_8,111,5,42,127,1036242316
5710,22,Ticks_Phase_8,112,1,48,25,1037016684
5710,22,Ticks_Phase_8,113,5,42,127,1037042024
5710,22,Ticks_Phase_8,114,1,48,24,1037806504
5710,22,Ticks_Phase_8,115,5,42,127,1037841812
5710,22,Ticks_Phase_8,116,1,48,19,1038632656
5710,22,Ticks_Phase_8,117,5,42,127,1038641524
5710,22,Ticks_Phase_8,118,1,48,22,1039413868
5710,22,Ticks_Phase_8,119,5,42,127,1039442356
5710,22,Ticks_Phase_8,120,1,48,19,1040216424
5710,22,Ticks_Phase_8,121,5,42,127,1040242216
5710,22,Ticks_Phase_8,122,1,48,19,1041000188
5710,22,Ticks_Phase_8,123,5,42,127,1041041776
5710,22,Ticks_Phase_8,124,1,48,19,1041806108
5710,22,Ticks_Phase_8,125,5,42,127,1041841440
5710,22,Ticks_Phase_8,126,1,48,21,1042612140
5710,22,Ticks_Phase_8,127,5,42,127,1042682336
5710,22,Ticks_Phase_8,128,5,42,127,1043482132
5710,22,Ticks_Phase_8,129,1,48,17,1043502552
5710,22,Ticks_Phase_8,130,5,42,127,1044281696
5710,22,Ticks_Phase_8,131,1,48,20,1044296192
5710,22,Ticks_Phase_8,132,1,48,16,1045069452
5710,22,Ticks_Phase_8,133,5,42,127,1045081400
5710,22,Ticks_Phase_8,134,1,48,22,1045853448
5710,22,Ticks_Phase_8,135,5,42,127,1045882232
5710,22,Ticks_Phase_8,136,1,48,23,1046678544
5710,22,Ticks_Phase_8,137,5,42,127,1046682192
5710,22,Ticks_Phase_8,138,1,48,21,1047470128
5710,22,Ticks_Phase_8,139,5,42,127,1047481608
5710,22,Ticks_Phase_8,140,1,48,17,1048278660
5710,22,Ticks_Phase_8,141,5,42,127,1048281320
5710,22,Ticks_Phase_8,142,5,42,127,1049082160
5710,22,Ticks_Phase_8,143,1,48,18,1049097180
5710,22,Ticks_Phase_8,144,1,48,24,1049871128
5710,22,Ticks_Phase_8,145,5,42,127,1049882088
5710,22,Ticks_Phase_8,146,5,42,127,1050681952
5710,22,Ticks_Phase_8,147,1,48,22,1050683816
5710,22,Ticks_Phase_8,148,1,48,18,1051478108
5710,22,Ticks_Phase_8,149,5,42,127,1051481436
5710,22,Ticks_Phase_8,150,5,42,127,1052282200
5710,22,Ticks_Phase_8,151,1,48,19,1052296024
5710,22,Ticks_Phase_8,152,1,48,23,1053041892
5710,22,Ticks_Phase_8,153,5,42,127,1053081932
5710,22,Ticks_Phase_8,154,1,48,24,1053839268
5710,22,Ticks_Phase_8,155,5,42,127,1053881940
5710,22,Ticks_Phase_8,156,1,48,21,1054649188
5710,22,Ticks_Phase_8,157,5,42,127,1054681352
5710,22,Ticks_Phase_8,158,1,48,22,1055452652
5710,22,Ticks_Phase_8,159,5,42,127,1055482188
5710,22,Ticks_Phase_8,160,5,42,127,1056241916
5710,22,Ticks_Phase_8,161,1,48,20,1056271924
5710,22,Ticks_Phase_8,162,1,48,27,1057013656
5710,22,Ticks_Phase_8,163,5,42,127,1057041844
5710,22,Ticks_Phase_8,164,1,48,18,1057784988
5710,22,Ticks_Phase_8,165,5,42,127,1057841484
5710,22,Ticks_Phase_8,166,1,48,22,1058610616
5710,22,Ticks_Phase_8,167,5,42,127,1058642392
5710,22,Ticks_Phase_8,168,1,48,20,1059419912
5710,22,Ticks_Phase_8,169,5,42,127,1059442176
5710,22,Ticks_Phase_8,170,1,48,24,1060191088
5710,22,Ticks_Phase_8,171,5,42,127,1060241816
5710,22,Ticks_Phase_8,172,1,48,25,1061034556
5710,22,Ticks_Phase_8,173,5,42,127,1061041624
5710,22,Ticks_Phase_8,174,5,42,127,1061842168
5710,22,Ticks_Phase_8,175,1,48,25,1061863788
5710,22,Ticks_Phase_8,176,1,48,24,1062629572
5710,22,Ticks_Phase_8,177,5,42,127,1062642024
5710,22,Ticks_Phase_8,178,1,48,25,1063382472
5710,22,Ticks_Phase_8,179,5,42,127,1063441956
5710,22,Ticks_Phase_8,180,1,48,25,1064156864
5710,22,Ticks_Phase_8,181,5,42,127,1064241672
5710,22,Ticks_Phase_8,182,1,48,19,1064978292
5710,22,Ticks_Phase_8,183,5,42,127,1065042428
5710,22,Ticks_Phase_8,184,1,48,19,1065779440
5710,22,Ticks_Phase_8,185,5,42,127,1065842140
5710,22,Ticks_Phase_8,186,1,48,24,1066572476
5710,22,Ticks_Phase_8,187,5,42,127,1066641852
5710,22,Ticks_Phase_8,188,1,48,19,1067373836
5710,22,Ticks_Phase_8,189,5,42,127,1067441736
5710,22,Ticks_Phase_8,190,1,48,22,1068172272
5710,22,Ticks_Phase_8,191,5,42,127,1068242196
5710,22,Ticks_Phase_8,192,5,42,127,1068962012
5710,22,Ticks_Phase_8,193,1,48,21,1068998376
5710,22,Ticks_Phase_8,194,1,48,21,1069617724
5710,22,Ticks_Phase_8,195,5,42,127,1069762000
5710,22,Ticks_Phase_8,196,1,48,21,1070445596
5710,22,Ticks_Phase_8,197,5,42,127,1070561712
5710,22,Ticks_Phase_8,198,1,48,20,1071226060
5710,22,Ticks_Phase_8,199,5,42,127,1071362616
5710,22,Ticks_Phase_8,200,1,48,21,1072040020
5710,22,Ticks_Phase_8,201,5,42,127,1072172588
5710,22,Ticks_Phase_8,202,1,48,25,1072855388
5710,22,Ticks_Phase_8,203,5,42,127,1072972076
5710,22,Ticks_Phase_8,204,1,48,19,1073685124
5710,22,Ticks_Phase_8,205,5,42,127,1073771952
5710,22,Ticks_Phase_8,206,1,48,22,1074542656
5710,22,Ticks_Phase_8,207,5,42,127,1074571588
5710,22,Ticks_Phase_8,208,5,42,127,1075372604
5710,22,Ticks_Phase_8,209,1,48,23,1075373568
5710,22,Ticks_Phase_8,210,5,42,127,1076172240
5710,22,Ticks_Phase_8,211,1,48,19,1076182700
5710,22,Ticks_Phase_8,212,1,48,24,1076955660
5710,22,Ticks_Phase_8,213,5,42,127,1076971872
5710,22,Ticks_Phase_8,214,1,48,22,1077728560
5710,22,Ticks_Phase_8,215,5,42,127,1077771732
5710,22,Ticks_Phase_8,216,1,48,23,1078548192
5710,22,Ticks_Phase_8,217,5,42,127,1078572488
5710,22,Ticks_Phase_8,218,1,48,25,1079286952
5710,22,Ticks_Phase_8,219,5,42,127,1079372352
5710,22,Ticks_Phase_8,220,1,48,23,1080137360
5710,22,Ticks_Phase_8,221,5,42,127,1080171840
5710,22,Ticks_Phase_8,222,1,48,21,1080969044
5710,22,Ticks_Phase_8,223,5,42,127,1080971704
5710,22,Ticks_Phase_8,224,5,42,127,1081772420
5710,22,Ticks_Phase_8,225,1,48,21,1081775388
5710,22,Ticks_Phase_8,226,1,48,15,1082602200
5710,22,Ticks_Phase_8,227,5,42,127,1082651880
5710,22,Ticks_Phase_8,228,5,42,127,1083451748
5710,22,Ticks_Phase_8,229,1,48,16,1083476280
5710,22,Ticks_Phase_8,230,1,48,17,1084235244
5710,22,Ticks_Phase_8,231,5,42,127,1084251604
5710,22,Ticks_Phase_8,232,1,48,18,1085032264
5710,22,Ticks_Phase_8,233,5,42,127,1085052212
5710,22,Ticks_Phase_8,234,1,48,19,1085830408
5710,22,Ticks_Phase_8,235,5,42,127,1085852172
5710,22,Ticks_Phase_8,236,1,48,26,1086629908
5710,22,Ticks_Phase_8,237,5,42,127,1086651808
5710,22,Ticks_Phase_8,238,1,48,22,1087443848
5710,22,Ticks_Phase_8,239,5,42,127,1087451372
5710,22,Ticks_Phase_8,240,1,48,20,1088237264
5710,22,Ticks_Phase_8,241,5,42,127,1088252204
5710,22,Ticks_Phase_8,242,1,48,21,1089028888
5710,22,Ticks_Phase_8,243,5,42,127,1089051988
5710,22,Ticks_Phase_8,244,1,48,21,1089804716
5710,22,Ticks_Phase_8,245,5,42,127,1089851852
5710,22,Ticks_Phase_8,246,1,48,21,1090615584
5710,22,Ticks_Phase_8,247,5,42,127,1090651488
5710,22,Ticks_Phase_8,248,1,48,20,1091433796
5710,22,Ticks_Phase_8,249,5,42,127,1091452172
5710,22,Ticks_Phase_8,250,1,48,19,1092203400
5710,22,Ticks_Phase_8,251,5,42,127,1092252132
5710,22,Ticks_Phase_8,252,1,48,20,1093023884
5710,22,Ticks_Phase_8,253,5,42,127,1093051696
5710,22,Ticks_Phase_8,254,5,42,127,1093851492
5710,22,Ticks_Phase_8,255,1,48,20,1093893624
5710,22,Ticks_Phase_8,256,5,42,127,1094652248
5710,22,Ticks_Phase_8,257,1,48,20,1094699856
5710,22,Ticks_Phase_8,258,1,48,24,1095431780
5710,22,Ticks_Phase_8,259,5,42,127,1095452176
5710,22,Ticks_Phase_8,260,1,48,22,1096203632
5710,22,Ticks_Phase_8,261,5,42,127,1096411412
5710,22,Ticks_Phase_8,262,5,42,127,1097212268
5710,22,Ticks_Phase_8,263,1,48,16,1097324420
5710,22,Ticks_Phase_8,264,5,42,127,1098011904
5710,22,Ticks_Phase_8,265,1,48,18,1098049780
5710,22,Ticks_Phase_8,266,5,42,127,1098811840
5710,22,Ticks_Phase_8,267,1,48,20,1098848952
5710,22,Ticks_Phase_8,268,5,42,127,1099611476
5710,22,Ticks_Phase_8,269,1,48,19,1099657352
5710,22,Ticks_Phase_8,270,1,48,22,1100411856
5710,22,Ticks_Phase_8,271,5,42,127,1100413348
5710,22,Ticks_Phase_8,272,5,42,127,1101212116
5710,22,Ticks_Phase_8,273,1,48,21,1101224896
5710,22,Ticks_Phase_8,274,1,48,24,1102009560
5710,22,Ticks_Phase_8,275,5,42,127,1102011748
5710,22,Ticks_Phase_8,276,5,42,127,1102811392
5710,22,Ticks_Phase_8,277,1,48,26,1102819072
5710,22,Ticks_Phase_8,278,5,42,127,1103612300
5710,22,Ticks_Phase_8,279,1,48,19,1103648364
5710,22,Ticks_Phase_8,280,1,48,19,1104402020
5710,22,Ticks_Phase_8,281,5,42,127,1104412080
5710,22,Ticks_Phase_8,282,5,42,127,1105211724
5710,22,Ticks_Phase_8,283,1,48,21,1105220388
5710,22,Ticks_Phase_8,284,5,42,127,1106011436
5710,22,Ticks_Phase_8,285,1,48,21,1106019580
5710,22,Ticks_Phase_8,286,1,48,19,1106785268
5710,22,Ticks_Phase_8,287,5,42,127,1106812488
5710,22,Ticks_Phase_8,288,5,42,127,1107612008
5710,22,Ticks_Phase_8,289,1,48,24,1107626800
5710,22,Ticks_Phase_8,290,1,48,19,1108397820
5710,22,Ticks_Phase_8,291,5,42,127,1108411936
5710,22,Ticks_Phase_8,292,1,48,23,1109170956
5710,22,Ticks_Phase_8,293,5,42,127,1109211648
5710,22,Ticks_Phase_8,294,1,48,22,1109973288
5710,22,Ticks_Phase_8,295,5,42,127,1110012260
5710,22,Ticks_Phase_8,296,5,42,127,1110811980
5710,22,Ticks_Phase_8,297,1,48,27,1111201196
5710,22,Ticks_Phase_8,298,5,42,127,1111452104
5710,22,Ticks_Phase_8,299,1,48,20,1111702532
5710,22,Ticks_Phase_8,300,5,42,127,1112251816
5710,22,Ticks_Phase_8,301,1,48,22,1112333944
5710,22,Ticks_Phase_8,302,1,48,20,1113020572
5710,22,Ticks_Phase_8,303,5,42,127,1113051892
5710,22,Ticks_Phase_8,304,1,48,21,1113818548
5710,22,Ticks_Phase_8,305,5,42,127,1113852280
5710,22,Ticks_Phase_8,306,1,48,20,1114608676
5710,22,Ticks_Phase_8,307,5,42,127,1114651992
5710,22,Ticks_Phase_8,308,1,48,21,1115426284
5710,22,Ticks_Phase_8,309,5,42,127,1115451704
5710,22,Ticks_Phase_8,310,1,48,21,1116179652
5710,22,Ticks_Phase_8,311,5,42,127,1116251712
5710,22,Ticks_Phase_8,312,5,42,127,1117052404
5710,22,Ticks_Phase_8,313,1,48,24,1117100040
5710,22,Ticks_Phase_8,314,1,48,22,1117841000
5710,22,Ticks_Phase_8,315,5,42,127,1117851984
5710,22,Ticks_Phase_8,316,1,48,25,1118587608
5710,22,Ticks_Phase_8,317,5,42,127,1118651768
5710,22,Ticks_Phase_8,318,1,48,23,1119368372
5710,22,Ticks_Phase_8,319,5,42,127,1119451408
5710,22,Ticks_Phase_8,320,1,48,21,1120193652
5710,22,Ticks_Phase_8,321,5,42,127,1120252388
5710,22,Ticks_Phase_8,322,1,48,25,1121003392
5710,22,Ticks_Phase_8,323,5,42,127,1121051952
5710,22,Ticks_Phase_8,324,1,48,22,1121849928
5710,22,Ticks_Phase_8,325,5,42,127,1121851664
5710,22,Ticks_Phase_8,326,1,48,27,1122639728
5710,22,Ticks_Phase_8,327,5,42,127,1122651524
5710,22,Ticks_Phase_8,328,1,48,26,1123436296
5710,22,Ticks_Phase_8,329,5,42,127,1123452356
5710,22,Ticks_Phase_8,330,1,48,30,1124237880
5710,22,Ticks_Phase_8,331,5,42,127,1124251944
5710,22,Ticks_Phase_8,332,5,42,127,1125051888
5710,22,Ticks_Phase_8,333,1,48,30,1125054560
5710,22,Ticks_Phase_8,334,5,42,127,1125851448
5710,22,Ticks_Phase_8,335,1,48,30,1125861464
5710,22,Ticks_Phase_8,336,5,42,127,1126652504
5710,22,Ticks_Phase_8,0,9999,9999,9999,991439952
5710,22,Ticks_Phase_8,1,9999,9999,9999,992239688
5710,22,Ticks_Phase_8,2,9999,9999,9999,993039420
5710,22,Ticks_Phase_8,3,9999,9999,9999,993839200
5710,22,Ticks_Phase_8,4,9999,9999,9999,994639960
5710,22,Ticks_Phase_8,5,9999,9999,9999,995439672
5710,22,Ticks_Phase_8,6,9999,9999,9999,996239456
5710,22,Ticks_Phase_8,7,9999,9999,9999,997039192
5710,22,Ticks_Phase_8,8,9999,9999,9999,997839952
5710,22,Ticks_Phase_8,9,9999,9999,9999,998639744
5710,22,Ticks_Phase_8,10,9999,9999,9999,999439448
5710,22,Ticks_Phase_8,11,9999,9999,9999,1000239160
5710,22,Ticks_Phase_8,12,9999,9999,9999,1001039992
5710,22,Ticks_Phase_8,13,9999,9999,9999,1001839704
5710,22,Ticks_Phase_8,14,9999,9999,9999,1002639416
5710,22,Ticks_Phase_8,15,9999,9999,9999,1003439228
5710,22,Ticks_Phase_8,16,9999,9999,9999,1004239984
5710,22,Ticks_Phase_8,17,9999,9999,9999,1005039700
5710,22,Ticks_Phase_8,18,9999,9999,9999,1005839416
5710,22,Ticks_Phase_8,19,9999,9999,9999,1006639196
5710,22,Ticks_Phase_8,20,9999,9999,9999,1007439956
5710,22,Ticks_Phase_8,21,9999,9999,9999,1008239740
5710,22,Ticks_Phase_8,22,9999,9999,9999,1009039452
5710,22,Ticks_Phase_8,23,9999,9999,9999,1009839192
5710,22,Ticks_Phase_8,24,9999,9999,9999,1010639948
5710,22,Ticks_Phase_8,25,9999,9999,9999,1011439744
5710,22,Ticks_Phase_8,26,9999,9999,9999,1012239452
5710,22,Ticks_Phase_8,27,9999,9999,9999,1013039164
5710,22,Ticks_Phase_8,28,9999,9999,9999,1013839992
5710,22,Ticks_Phase_8,29,9999,9999,9999,1014639704
5710,22,Ticks_Phase_8,30,9999,9999,9999,1015420016
5710,22,Ticks_Phase_8,31,9999,9999,9999,1016219752
5710,22,Ticks_Phase_8,32,9999,9999,9999,1017019468
5710,22,Ticks_Phase_8,33,9999,9999,9999,1017819256
5710,22,Ticks_Phase_8,34,9999,9999,9999,1018620012
5710,22,Ticks_Phase_8,35,9999,9999,9999,1019419800
5710,22,Ticks_Phase_8,36,9999,9999,9999,1020219516
5710,22,Ticks_Phase_8,37,9999,9999,9999,1021019228
5710,22,Ticks_Phase_8,38,9999,9999,9999,1021819988
5710,22,Ticks_Phase_8,39,9999,9999,9999,1022619724
5710,22,Ticks_Phase_8,40,9999,9999,9999,1023419512
5710,22,Ticks_Phase_8,41,9999,9999,9999,1024219216
5710,22,Ticks_Phase_8,42,9999,9999,9999,1025019976
5710,22,Ticks_Phase_8,43,9999,9999,9999,1025819764
5710,22,Ticks_Phase_8,44,9999,9999,9999,1026619476
5710,22,Ticks_Phase_8,45,9999,9999,9999,1027419196
5710,22,Ticks_Phase_8,46,9999,9999,9999,1028220024
5710,22,Ticks_Phase_8,47,9999,9999,9999,1029019756
5710,22,Ticks_Phase_8,48,9999,9999,9999,1029839988
5710,22,Ticks_Phase_8,49,9999,9999,9999,1030639700
5710,22,Ticks_Phase_8,50,9999,9999,9999,1031439412
5710,22,Ticks_Phase_8,51,9999,9999,9999,1032239200
5710,22,Ticks_Phase_8,52,9999,9999,9999,1033039960
5710,22,Ticks_Phase_8,53,9999,9999,9999,1033839672
5710,22,Ticks_Phase_8,54,9999,9999,9999,1034639460
5710,22,Ticks_Phase_8,55,9999,9999,9999,1035439196
5710,22,Ticks_Phase_8,56,9999,9999,9999,1036239952
5710,22,Ticks_Phase_8,57,9999,9999,9999,1037039740
5710,22,Ticks_Phase_8,58,9999,9999,9999,1037839452
5710,22,Ticks_Phase_8,59,9999,9999,9999,1038639164
5710,22,Ticks_Phase_8,60,9999,9999,9999,1039439996
5710,22,Ticks_Phase_8,61,9999,9999,9999,1040239704
5710,22,Ticks_Phase_8,62,9999,9999,9999,1041039416
5710,22,Ticks_Phase_8,63,9999,9999,9999,1041839228
5710,22,Ticks_Phase_8,64,9999,9999,9999,1042679900
5710,22,Ticks_Phase_8,65,9999,9999,9999,1043479620
5710,22,Ticks_Phase_8,66,9999,9999,9999,1044279408
5710,22,Ticks_Phase_8,67,9999,9999,9999,1045079112
5710,22,Ticks_Phase_8,68,9999,9999,9999,1045879872
5710,22,Ticks_Phase_8,69,9999,9999,9999,1046679656
5710,22,Ticks_Phase_8,70,9999,9999,9999,1047479396
5710,22,Ticks_Phase_8,71,9999,9999,9999,1048279108
5710,22,Ticks_Phase_8,72,9999,9999,9999,1049079872
5710,22,Ticks_Phase_8,73,9999,9999,9999,1049879652
5710,22,Ticks_Phase_8,74,9999,9999,9999,1050679368
5710,22,Ticks_Phase_8,75,9999,9999,9999,1051479148
5710,22,Ticks_Phase_8,76,9999,9999,9999,1052279916
5710,22,Ticks_Phase_8,77,9999,9999,9999,1053079620
5710,22,Ticks_Phase_8,78,9999,9999,9999,1053879356
5710,22,Ticks_Phase_8,79,9999,9999,9999,1054679140
5710,22,Ticks_Phase_8,80,9999,9999,9999,1055479900
5710,22,Ticks_Phase_8,81,9999,9999,9999,1056239704
5710,22,Ticks_Phase_8,82,9999,9999,9999,1057039484
5710,22,Ticks_Phase_8,83,9999,9999,9999,1057839196
5710,22,Ticks_Phase_8,84,9999,9999,9999,1058639956
5710,22,Ticks_Phase_8,85,9999,9999,9999,1059439740
5710,22,Ticks_Phase_8,86,9999,9999,9999,1060239452
5710,22,Ticks_Phase_8,87,9999,9999,9999,1061039192
5710,22,Ticks_Phase_8,88,9999,9999,9999,1061839956
5710,22,Ticks_Phase_8,89,9999,9999,9999,1062639736
5710,22,Ticks_Phase_8,90,9999,9999,9999,1063439448
5710,22,Ticks_Phase_8,91,9999,9999,9999,1064239160
5710,22,Ticks_Phase_8,92,9999,9999,9999,1065039992
5710,22,Ticks_Phase_8,93,9999,9999,9999,1065839704
5710,22,Ticks_Phase_8,94,9999,9999,9999,1066639416
5710,22,Ticks_Phase_8,95,9999,9999,9999,1067439228
5710,22,Ticks_Phase_8,96,9999,9999,9999,1068239984
5710,22,Ticks_Phase_8,97,9999,9999,9999,1068959800
5710,22,Ticks_Phase_8,98,9999,9999,9999,1069759564
5710,22,Ticks_Phase_8,99,9999,9999,9999,1070559348
5710,22,Ticks_Phase_8,100,9999,9999,9999,1071360108
5710,22,Ticks_Phase_8,101,9999,9999,9999,1072170076
5710,22,Ticks_Phase_8,102,9999,9999,9999,1072969788
5710,22,Ticks_Phase_8,103,9999,9999,9999,1073769592
5710,22,Ticks_Phase_8,104,9999,9999,9999,1074569304
5710,22,Ticks_Phase_8,105,9999,9999,9999,1075370092
5710,22,Ticks_Phase_8,106,9999,9999,9999,1076169804
5710,22,Ticks_Phase_8,107,9999,9999,9999,1076969584
5710,22,Ticks_Phase_8,108,9999,9999,9999,1077769296
5710,22,Ticks_Phase_8,109,9999,9999,9999,1078570056
5710,22,Ticks_Phase_8,110,9999,9999,9999,1079369844
5710,22,Ticks_Phase_8,111,9999,9999,9999,1080169552
5710,22,Ticks_Phase_8,112,9999,9999,9999,1080969340
5710,22,Ticks_Phase_8,113,9999,9999,9999,1081770056
5710,22,Ticks_Phase_8,114,9999,9999,9999,1082649668
5710,22,Ticks_Phase_8,115,9999,9999,9999,1083449460
5710,22,Ticks_Phase_8,116,9999,9999,9999,1084249168
5710,22,Ticks_Phase_8,117,9999,9999,9999,1085049924
5710,22,Ticks_Phase_8,118,9999,9999,9999,1085849660
5710,22,Ticks_Phase_8,119,9999,9999,9999,1086649448
5710,22,Ticks_Phase_8,120,9999,9999,9999,1087449160
5710,22,Ticks_Phase_8,121,9999,9999,9999,1088249916
5710,22,Ticks_Phase_8,122,9999,9999,9999,1089049700
5710,22,Ticks_Phase_8,123,9999,9999,9999,1089849416
5710,22,Ticks_Phase_8,124,9999,9999,9999,1090649200
5710,22,Ticks_Phase_8,125,9999,9999,9999,1091449960
5710,22,Ticks_Phase_8,126,9999,9999,9999,1092249700
5710,22,Ticks_Phase_8,127,9999,9999,9999,1093049412
5710,22,Ticks_Phase_8,128,9999,9999,9999,1093849204
5710,22,Ticks_Phase_8,129,9999,9999,9999,1094649960
5710,22,Ticks_Phase_8,130,9999,9999,9999,1095449668
5710,22,Ticks_Phase_8,131,9999,9999,9999,1096409200
5710,22,Ticks_Phase_8,132,9999,9999,9999,1097209980
5710,22,Ticks_Phase_8,133,9999,9999,9999,1098009692
5710,22,Ticks_Phase_8,134,9999,9999,9999,1098809404
5710,22,Ticks_Phase_8,135,9999,9999,9999,1099609188
5710,22,Ticks_Phase_8,136,9999,9999,9999,1100409948
5710,22,Ticks_Phase_8,137,9999,9999,9999,1101209680
5710,22,Ticks_Phase_8,138,9999,9999,9999,1102009428
5710,22,Ticks_Phase_8,139,9999,9999,9999,1102809180
5710,22,Ticks_Phase_8,140,9999,9999,9999,1103609940
5710,22,Ticks_Phase_8,141,9999,9999,9999,1104409720
5710,22,Ticks_Phase_8,142,9999,9999,9999,1105209436
5710,22,Ticks_Phase_8,143,9999,9999,9999,1106009148
5710,22,Ticks_Phase_8,144,9999,9999,9999,1106809976
5710,22,Ticks_Phase_8,145,9999,9999,9999,1107609720
5710,22,Ticks_Phase_8,146,9999,9999,9999,1108409424
5710,22,Ticks_Phase_8,147,9999,9999,9999,1109209212
5710,22,Ticks_Phase_8,148,9999,9999,9999,1110009972
5710,22,Ticks_Phase_8,149,9999,9999,9999,1110809692
5710,22,Ticks_Phase_8,150,9999,9999,9999,1111449668
5710,22,Ticks_Phase_8,151,9999,9999,9999,1112249456
5710,22,Ticks_Phase_8,152,9999,9999,9999,1113049160
5710,22,Ticks_Phase_8,153,9999,9999,9999,1113849920
5710,22,Ticks_Phase_8,154,9999,9999,9999,1114649704
5710,22,Ticks_Phase_8,155,9999,9999,9999,1115449420
5710,22,Ticks_Phase_8,156,9999,9999,9999,1116249204
5710,22,Ticks_Phase_8,157,9999,9999,9999,1117049968
5710,22,Ticks_Phase_8,158,9999,9999,9999,1117849700
5710,22,Ticks_Phase_8,159,9999,9999,9999,1118649408
5710,22,Ticks_Phase_8,160,9999,9999,9999,1119449196
5710,22,Ticks_Phase_8,161,9999,9999,9999,1120249956
5710,22,Ticks_Phase_8,162,9999,9999,9999,1121049664
5710,22,Ticks_Phase_8,163,9999,9999,9999,1121849400
5710,22,Ticks_Phase_8,164,9999,9999,9999,1122649164
5710,22,Ticks_Phase_8,165,9999,9999,9999,1123449920
5710,22,Ticks_Phase_8,166,9999,9999,9999,1124249660
5710,22,Ticks_Phase_8,167,9999,9999,9999,1125049452
5710,22,Ticks_Phase_8,168,9999,9999,9999,1125849164
5710,22,Ticks_Phase_8,169,9999,9999,9999,1126649920
5711,25,Jits_Pract_5,0,5,56,103,1173838364
5711,25,Jits_Pract_5,1,5,63,98,1173841312
5711,25,Jits_Pract_5,2,5,80,127,1173844436
5711,25,Jits_Pract_5,0,5,56,103,1174338164
5711,25,Jits_Pract_5,1,5,63,98,1174341192
5711,25,Jits_Pract_5,2,5,80,127,1174344236
5711,25,Jits_Pract_5,0,5,56,103,1174837764
5711,25,Jits_Pract_5,1,5,80,127,1174848332
5711,25,Jits_Pract_5,2,5,63,98,1174868268
5711,25,Jits_Pract_5,0,5,63,98,1175288280
5711,25,Jits_Pract_5,1,5,80,127,1175317732
5711,25,Jits_Pract_5,2,5,56,103,1175328300
5711,25,Jits_Pract_5,0,5,80,127,1175848248
5711,25,Jits_Pract_5,1,5,56,103,1175857544
5711,25,Jits_Pract_5,2,5,63,98,1175888264
5711,25,Jits_Pract_5,0,5,63,98,1176337728
5711,25,Jits_Pract_5,1,5,56,103,1176367404
5711,25,Jits_Pract_5,2,5,80,127,1176377900
5711,25,Jits_Pract_5,0,5,56,103,1176788312
5711,25,Jits_Pract_5,1,5,63,98,1176837544
5711,25,Jits_Pract_5,2,5,80,127,1176858224
5711,25,Jits_Pract_5,0,5,80,127,1177288280
5711,25,Jits_Pract_5,1,5,63,98,1177338184
5711,25,Jits_Pract_5,2,5,56,103,1177378196
5711,25,Jits_Pract_5,0,5,56,103,1177788168
5711,25,Jits_Pract_5,1,5,63,98,1177817400
5711,25,Jits_Pract_5,2,5,80,127,1177888052
5711,25,Jits_Pract_5,0,5,56,103,1178287392
5711,25,Jits_Pract_5,1,5,80,127,1178348232
5711,25,Jits_Pract_5,2,5,63,98,1178377608
5711,25,Jits_Pract_5,0,5,56,103,1178797552
5711,25,Jits_Pract_5,1,5,63,98,1178807672
5711,25,Jits_Pract_5,2,5,80,127,1178847460
5711,25,Jits_Pract_5,0,5,63,98,1179288148
5711,25,Jits_Pract_5,1,5,80,127,1179367872
5711,25,Jits_Pract_5,2,5,56,103,1179378292
5711,25,Jits_Pract_5,0,5,63,98,1179837784
5711,25,Jits_Pract_5,1,5,56,103,1179877640
5711,25,Jits_Pract_5,2,5,80,127,1179880860
5711,25,Jits_Pract_5,0,5,56,103,1180297548
5711,25,Jits_Pract_5,1,5,63,98,1180307768
5711,25,Jits_Pract_5,2,5,80,127,1180347928
5711,25,Jits_Pract_5,0,5,56,103,1180788068
5711,25,Jits_Pract_5,1,5,63,98,1180791212
5711,25,Jits_Pract_5,2,5,80,127,1180807556
5711,25,Jits_Pract_5,0,9999,9999,9999,1174085728
5711,25,Jits_Pract_5,1,9999,9999,9999,1174585452
5711,25,Jits_Pract_5,2,9999,9999,9999,1175085128
5711,25,Jits_Pract_5,3,9999,9999,9999,1175585912
5711,25,Jits_Pract_5,4,9999,9999,9999,1176085572
5711,25,Jits_Pract_5,5,9999,9999,9999,1176585320
5711,25,Jits_Pract_5,6,9999,9999,9999,1177086020
5711,25,Jits_Pract_5,7,9999,9999,9999,1177585764
5711,25,Jits_Pract_5,8,9999,9999,9999,1178085432
5711,25,Jits_Pract_5,9,9999,9999,9999,1178585176
5711,25,Jits_Pract_5,10,9999,9999,9999,1179085888
5711,25,Jits_Pract_5,11,9999,9999,9999,1179585636
5711,25,Jits_Pract_5,12,9999,9999,9999,1180085364
5711,25,Jits_Pract_5,13,9999,9999,9999,1180586060
5711,25,Jits_Pract_5,14,9999,9999,9999,1181085788
5712,25,Jits_Pract_5,0,5,56,103,1276582196
5712,25,Jits_Pract_5,1,5,63,98,1276585292
5712,25,Jits_Pract_5,2,5,80,127,1276588416
5712,25,Jits_Pract_5,0,5,56,103,1277081844
5712,25,Jits_Pract_5,1,5,63,98,1277085020
5712,25,Jits_Pract_5,2,5,80,127,1277088144
5712,25,Jits_Pract_5,0,5,56,103,1277581888
5712,25,Jits_Pract_5,1,5,80,127,1277592012
5712,25,Jits_Pract_5,2,5,63,98,1277612692
5712,25,Jits_Pract_5,0,5,63,98,1278032308
5712,25,Jits_Pract_5,1,5,80,127,1278061908
5712,25,Jits_Pract_5,2,5,56,103,1278072032
5712,25,Jits_Pract_5,3,1,48,15,1278102072
5712,25,Jits_Pract_5,0,1,48,23,1278590020
5712,25,Jits_Pract_5,1,5,80,127,1278592524
5712,25,Jits_Pract_5,2,5,56,103,1278601824
5712,25,Jits_Pract_5,3,5,63,98,1278632348
5712,25,Jits_Pract_5,0,1,48,22,1279081816
5712,25,Jits_Pract_5,1,5,63,98,1279083156
5712,25,Jits_Pract_5,2,5,56,103,1279111560
5712,25,Jits_Pract_5,3,5,80,127,1279121856
5712,25,Jits_Pract_5,0,5,56,103,1279532584
5712,25,Jits_Pract_5,1,5,63,98,1279581816
5712,25,Jits_Pract_5,2,5,80,127,1279601904
5712,25,Jits_Pract_5,3,1,48,22,1279602868
5712,25,Jits_Pract_5,0,5,80,127,1280042480
5712,25,Jits_Pract_5,1,1,48,28,1280078260
5712,25,Jits_Pract_5,2,5,63,98,1280091780
5712,25,Jits_Pract_5,3,5,56,103,1280131496
5712,25,Jits_Pract_5,0,5,56,103,1280542108
5712,25,Jits_Pract_5,1,5,63,98,1280571636
5712,25,Jits_Pract_5,2,1,48,27,1280604644
5712,25,Jits_Pract_5,3,5,80,127,1280642356
5712,25,Jits_Pract_5,0,5,56,103,1281041812
5712,25,Jits_Pract_5,1,1,48,27,1281069888
5712,25,Jits_Pract_5,2,5,80,127,1281102124
5712,25,Jits_Pract_5,3,5,63,98,1281131796
5712,25,Jits_Pract_5,0,5,56,103,1281551708
5712,25,Jits_Pract_5,1,5,63,98,1281561904
5712,25,Jits_Pract_5,2,1,48,29,1281592596
5712,25,Jits_Pract_5,3,5,80,127,1281601832
5712,25,Jits_Pract_5,0,5,63,98,1282042268
5712,25,Jits_Pract_5,1,1,48,29,1282080832
5712,25,Jits_Pract_5,2,5,80,127,1282121984
5712,25,Jits_Pract_5,3,5,56,103,1282132700
5712,25,Jits_Pract_5,0,5,63,98,1282592008
5712,25,Jits_Pract_5,1,1,48,26,1282604640
5712,25,Jits_Pract_5,2,5,56,103,1282632012
5712,25,Jits_Pract_5,3,5,80,127,1282635080
5712,25,Jits_Pract_5,0,5,56,103,1283051760
5712,25,Jits_Pract_5,1,5,63,98,1283062028
5712,25,Jits_Pract_5,2,5,80,127,1283102040
5712,25,Jits_Pract_5,3,1,48,26,1283108004
5712,25,Jits_Pract_5,0,5,56,103,1283542388
5712,25,Jits_Pract_5,1,5,63,98,1283545384
5712,25,Jits_Pract_5,2,5,80,127,1283561876
5712,25,Jits_Pract_5,3,1,48,26,1283588512
5712,25,Jits_Pract_5,0,9999,9999,9999,1276829784
5712,25,Jits_Pract_5,1,9999,9999,9999,1277329512
5712,25,Jits_Pract_5,2,9999,9999,9999,1277829232
5712,25,Jits_Pract_5,3,9999,9999,9999,1278329920
5712,25,Jits_Pract_5,4,9999,9999,9999,1278829692
5712,25,Jits_Pract_5,5,9999,9999,9999,1279329388
5712,25,Jits_Pract_5,6,9999,9999,9999,1279830128
5712,25,Jits_Pract_5,7,9999,9999,9999,1280340024
5712,25,Jits_Pract_5,8,9999,9999,9999,1280839800
5712,25,Jits_Pract_5,9,9999,9999,9999,1281339504
5712,25,Jits_Pract_5,10,9999,9999,9999,1281839204
5712,25,Jits_Pract_5,11,9999,9999,9999,1282339960
5712,25,Jits_Pract_5,12,9999,9999,9999,1282839644
5712,25,Jits_Pract_5,13,9999,9999,9999,1283339332
5712,25,Jits_Pract_5,14,9999,9999,9999,1283840068
5713,24,Jits_Pract_8,0,5,56,103,1290269024
5713,24,Jits_Pract_8,1,5,63,98,1290272200
5713,24,Jits_Pract_8,2,5,80,127,1290275392
5713,24,Jits_Pract_8,0,5,56,103,1291079000
5713,24,Jits_Pract_8,1,5,63,98,1291082324
5713,24,Jits_Pract_8,2,5,80,127,1291085516
5713,24,Jits_Pract_8,0,5,80,127,1291819540
5713,24,Jits_Pract_8,1,5,63,98,1291908480
5713,24,Jits_Pract_8,2,5,56,103,1291918848
5713,24,Jits_Pract_8,0,5,56,103,1292638608
5713,24,Jits_Pract_8,1,5,63,98,1292648952
5713,24,Jits_Pract_8,2,5,80,127,1292739032
5713,24,Jits_Pract_8,0,5,63,98,1293408524
5713,24,Jits_Pract_8,1,1,48,35,1293417792
5713,24,Jits_Pract_8,2,5,80,127,1293439612
5713,24,Jits_Pract_8,3,5,56,103,1293469164
5713,24,Jits_Pract_8,0,1,48,41,1294180520
5713,24,Jits_Pract_8,1,5,56,103,1294209388
5713,24,Jits_Pract_8,2,5,80,127,1294308600
5713,24,Jits_Pract_8,3,5,63,98,1294358800
5713,24,Jits_Pract_8,0,5,56,103,1295009328
5713,24,Jits_Pract_8,1,5,80,127,1295059384
5713,24,Jits_Pract_8,2,1,48,41,1295076276
5713,24,Jits_Pract_8,3,5,63,98,1295099312
5713,24,Jits_Pract_8,0,5,80,127,1295838544
5713,24,Jits_Pract_8,1,5,63,98,1295869264
5713,24,Jits_Pract_8,2,1,48,42,1295872384
5713,24,Jits_Pract_8,3,5,56,103,1295939160
5713,24,Jits_Pract_8,0,5,63,98,1296669256
5713,24,Jits_Pract_8,1,1,48,42,1296688712
5713,24,Jits_Pract_8,2,5,56,103,1296698924
5713,24,Jits_Pract_8,3,5,80,127,1296759312
5713,24,Jits_Pract_8,0,5,56,103,1297409296
5713,24,Jits_Pract_8,1,5,80,127,1297412444
5713,24,Jits_Pract_8,2,1,48,39,1297489964
5713,24,Jits_Pract_8,3,5,63,98,1297529168
5713,24,Jits_Pract_8,0,1,48,32,1298253228
5713,24,Jits_Pract_8,1,5,56,103,1298289148
5713,24,Jits_Pract_8,2,5,80,127,1298329184
5713,24,Jits_Pract_8,3,5,63,98,1298339232
5713,24,Jits_Pract_8,0,5,56,103,1299048760
5713,24,Jits_Pract_8,1,5,80,127,1299069292
5713,24,Jits_Pract_8,2,1,48,39,1299111692
5713,24,Jits_Pract_8,3,5,63,98,1299149100
5713,24,Jits_Pract_8,0,5,80,127,1299839312
5713,24,Jits_Pract_8,1,1,48,40,1299931908
5713,24,Jits_Pract_8,2,5,56,103,1299938608
5713,24,Jits_Pract_8,3,5,63,98,1299949176
5713,24,Jits_Pract_8,0,5,63,98,1300609272
5713,24,Jits_Pract_8,1,5,80,127,1300668716
5713,24,Jits_Pract_8,2,5,56,103,1300678984
5713,24,Jits_Pract_8,3,1,48,40,1300738296
5713,24,Jits_Pract_8,0,5,56,103,1301409196
5713,24,Jits_Pract_8,1,5,63,98,1301478648
5713,24,Jits_Pract_8,2,5,80,127,1301482168
5713,24,Jits_Pract_8,3,1,48,27,1301496668
5713,24,Jits_Pract_8,0,9999,9999,9999,1290667128
5713,24,Jits_Pract_8,1,9999,9999,9999,1291477104
5713,24,Jits_Pract_8,2,9999,9999,9999,1292276840
5713,24,Jits_Pract_8,3,9999,9999,9999,1293076576
5713,24,Jits_Pract_8,4,9999,9999,9999,1293876280
5713,24,Jits_Pract_8,5,9999,9999,9999,1294677084
5713,24,Jits_Pract_8,6,9999,9999,9999,1295476840
5713,24,Jits_Pract_8,7,9999,9999,9999,1296276564
5713,24,Jits_Pract_8,8,9999,9999,9999,1297076340
5713,24,Jits_Pract_8,9,9999,9999,9999,1297877056
5713,24,Jits_Pract_8,10,9999,9999,9999,1298676832
5713,24,Jits_Pract_8,11,9999,9999,9999,1299476588
5713,24,Jits_Pract_8,12,9999,9999,9999,1300276292
5713,24,Jits_Pract_8,13,9999,9999,9999,1301077104
5713,24,Jits_Pract_8,14,9999,9999,9999,1301876848
5714,16,Jits_ISO_5,0,5,56,103,1341188400
5714,16,Jits_ISO_5,1,5,63,98,1341191496
5714,16,Jits_ISO_5,2,5,80,127,1341194696
5714,16,Jits_ISO_5,0,5,56,103,1341689168
5714,16,Jits_ISO_5,1,5,63,98,1341692264
5714,16,Jits_ISO_5,2,5,80,127,1341695460
5714,16,Jits_ISO_5,3,1,48,37,1341765256
5714,16,Jits_ISO_5,0,5,56,103,1342188988
5714,16,Jits_ISO_5,1,5,80,127,1342199260
5714,16,Jits_ISO_5,2,5,63,98,1342219040
5714,16,Jits_ISO_5,3,1,48,38,1342220980
5714,16,Jits_ISO_5,0,5,63,98,1342638392
5714,16,Jits_ISO_5,1,5,80,127,1342669260
5714,16,Jits_ISO_5,2,5,56,103,1342679532
5714,16,Jits_ISO_5,3,1,48,32,1342736968
5714,16,Jits_ISO_5,0,1,48,37,1343189780
5714,16,Jits_ISO_5,1,5,80,127,1343198796
5714,16,Jits_ISO_5,2,5,56,103,1343208844
5714,16,Jits_ISO_5,3,5,63,98,1343238368
5714,16,Jits_ISO_5,0,5,63,98,1343689028
5714,16,Jits_ISO_5,1,5,56,103,1343718628
5714,16,Jits_ISO_5,2,1,48,29,1343721368
5714,16,Jits_ISO_5,3,5,80,127,1343729264
5714,16,Jits_ISO_5,0,5,56,103,1344138492
5714,16,Jits_ISO_5,1,5,63,98,1344188916
5714,16,Jits_ISO_5,2,1,48,37,1344194580
5714,16,Jits_ISO_5,3,5,80,127,1344209216
5714,16,Jits_ISO_5,0,5,80,127,1344639480
5714,16,Jits_ISO_5,1,1,48,36,1344662252
5714,16,Jits_ISO_5,2,5,63,98,1344688504
5714,16,Jits_ISO_5,3,5,56,103,1344728364
5714,16,Jits_ISO_5,0,5,56,103,1345139000
5714,16,Jits_ISO_5,1,1,48,38,1345168176
5714,16,Jits_ISO_5,2,5,63,98,1345169668
5714,16,Jits_ISO_5,3,5,80,127,1345239420
5714,16,Jits_ISO_5,0,5,56,103,1345638824
5714,16,Jits_ISO_5,1,1,48,38,1345658956
5714,16,Jits_ISO_5,2,5,80,127,1345699080
5714,16,Jits_ISO_5,3,5,63,98,1345729052
5714,16,Jits_ISO_5,0,5,56,103,1346148756
5714,16,Jits_ISO_5,1,5,63,98,1346159248
5714,16,Jits_ISO_5,2,1,48,37,1346187196
5714,16,Jits_ISO_5,3,5,80,127,1346198980
5714,16,Jits_ISO_5,0,5,63,98,1346639128
5714,16,Jits_ISO_5,1,1,48,38,1346662324
5714,16,Jits_ISO_5,2,5,80,127,1346718940
5714,16,Jits_ISO_5,3,5,56,103,1346729284
5714,16,Jits_ISO_5,0,1,48,41,1347148496
5714,16,Jits_ISO_5,1,5,63,98,1347189128
5714,16,Jits_ISO_5,2,5,56,103,1347229160
5714,16,Jits_ISO_5,3,5,80,127,1347232152
5714,16,Jits_ISO_5,0,5,56,103,1347649000
5714,16,Jits_ISO_5,1,5,63,98,1347659124
5714,16,Jits_ISO_5,2,1,48,40,1347682468
5714,16,Jits_ISO_5,3,5,80,127,1347699200
5714,16,Jits_ISO_5,0,5,56,103,1348139452
5714,16,Jits_ISO_5,1,5,63,98,1348142444
5714,16,Jits_ISO_5,2,5,80,127,1348158788
5714,16,Jits_ISO_5,3,1,48,40,1348167084
5714,16,Jits_ISO_5,0,1,48,41,1348646852
5714,16,Jits_ISO_5,1,5,80,127,1348649364
5714,16,Jits_ISO_5,2,5,56,103,1348658440
5714,16,Jits_ISO_5,3,5,63,98,1348729312
5714,16,Jits_ISO_5,0,5,63,98,1349138912
5714,16,Jits_ISO_5,1,5,56,103,1349159224
5714,16,Jits_ISO_5,2,1,48,36,1349176264
5714,16,Jits_ISO_5,3,5,80,127,1349239160
5714,16,Jits_ISO_5,0,1,48,37,1349647172
5714,16,Jits_ISO_5,1,5,56,103,1349648680
5714,16,Jits_ISO_5,2,5,80,127,1349688768
5714,16,Jits_ISO_5,3,5,63,98,1349698888
5714,16,Jits_ISO_5,0,5,80,127,1350139204
5714,16,Jits_ISO_5,1,1,48,40,1350154152
5714,16,Jits_ISO_5,2,5,63,98,1350169092
5714,16,Jits_ISO_5,3,5,56,103,1350208956
5714,16,Jits_ISO_5,0,1,48,38,1350650976
5714,16,Jits_ISO_5,1,5,56,103,1350658420
5714,16,Jits_ISO_5,2,5,63,98,1350689068
5714,16,Jits_ISO_5,3,5,80,127,1350739264
5714,16,Jits_ISO_5,0,1,48,39,1351143664
5714,16,Jits_ISO_5,1,5,80,127,1351159200
5714,16,Jits_ISO_5,2,5,56,103,1351199140
5714,16,Jits_ISO_5,3,5,63,98,1351209336
5714,16,Jits_ISO_5,0,5,80,127,1351639464
5714,16,Jits_ISO_5,1,1,48,34,1351651576
5714,16,Jits_ISO_5,2,5,63,98,1351679468
5714,16,Jits_ISO_5,3,5,56,103,1351739032
5714,16,Jits_ISO_5,0,5,56,103,1352139064
5714,16,Jits_ISO_5,1,5,80,127,1352149332
5714,16,Jits_ISO_5,2,1,48,40,1352175368
5714,16,Jits_ISO_5,3,5,63,98,1352229116
5714,16,Jits_ISO_5,0,5,80,127,1352638880
5714,16,Jits_ISO_5,1,1,48,37,1352663276
5714,16,Jits_ISO_5,2,5,63,98,1352699188
5714,16,Jits_ISO_5,3,5,56,103,1352729012
5714,16,Jits_ISO_5,0,5,56,103,1353138628
5714,16,Jits_ISO_5,1,1,48,37,1353166756
5714,16,Jits_ISO_5,2,5,80,127,1353198864
5714,16,Jits_ISO_5,3,5,63,98,1353238948
5714,16,Jits_ISO_5,0,1,48,40,1353651380
5714,16,Jits_ISO_5,1,5,56,103,1353688492
5714,16,Jits_ISO_5,2,5,63,98,1353698760
5714,16,Jits_ISO_5,3,5,80,127,1353702272
5714,16,Jits_ISO_5,0,5,80,127,1354138924
5714,16,Jits_ISO_5,1,1,48,38,1354165856
5714,16,Jits_ISO_5,2,5,63,98,1354229196
5714,16,Jits_ISO_5,3,5,56,103,1354239316
5714,16,Jits_ISO_5,0,5,56,103,1354638876
5714,16,Jits_ISO_5,1,5,63,98,1354641976
5714,16,Jits_ISO_5,2,5,80,127,1354645092
5714,16,Jits_ISO_5,3,1,48,30,1354693016
5714,16,Jits_ISO_5,0,5,80,127,1355158840
5714,16,Jits_ISO_5,1,1,48,35,1355161212
5714,16,Jits_ISO_5,2,5,63,98,1355209108
5714,16,Jits_ISO_5,3,5,56,103,1355239008
5714,16,Jits_ISO_5,0,5,56,103,1355639088
5714,16,Jits_ISO_5,1,1,48,36,1355646692
5714,16,Jits_ISO_5,2,5,80,127,1355649280
5714,16,Jits_ISO_5,3,5,63,98,1355718904
5714,16,Jits_ISO_5,0,5,56,103,1356149020
5714,16,Jits_ISO_5,1,1,48,39,1356152140
5714,16,Jits_ISO_5,2,5,63,98,1356168672
5714,16,Jits_ISO_5,3,5,80,127,1356228912
5714,16,Jits_ISO_5,0,5,80,127,1356638580
5714,16,Jits_ISO_5,1,1,48,40,1356641624
5714,16,Jits_ISO_5,2,5,63,98,1356709176
5714,16,Jits_ISO_5,3,5,56,103,1356728884
5714,16,Jits_ISO_5,0,1,48,42,1357145404
5714,16,Jits_ISO_5,1,5,80,127,1357158772
5714,16,Jits_ISO_5,2,5,56,103,1357169120
5714,16,Jits_ISO_5,3,5,63,98,1357179240
5714,16,Jits_ISO_5,0,1,48,40,1357625580
5714,16,Jits_ISO_5,1,5,80,127,1357649140
5714,16,Jits_ISO_5,2,5,56,103,1357668848
5714,16,Jits_ISO_5,3,5,63,98,1357739284
5714,16,Jits_ISO_5,0,1,48,42,1358135272
5714,16,Jits_ISO_5,1,5,56,103,1358159284
5714,16,Jits_ISO_5,2,5,80,127,1358188960
5714,16,Jits_ISO_5,3,5,63,98,1358209716
5714,16,Jits_ISO_5,0,1,48,40,1358623696
5714,16,Jits_ISO_5,1,5,63,98,1358648680
5714,16,Jits_ISO_5,2,5,56,103,1358709068
5714,16,Jits_ISO_5,3,5,80,127,1358738904
5714,16,Jits_ISO_5,0,5,63,98,1359139204
5714,16,Jits_ISO_5,1,1,48,39,1359141240
5714,16,Jits_ISO_5,2,5,80,127,1359143680
5714,16,Jits_ISO_5,3,5,56,103,1359229400
5714,16,Jits_ISO_5,0,1,48,34,1359642264
5714,16,Jits_ISO_5,1,5,56,103,1359659672
5714,16,Jits_ISO_5,2,5,63,98,1359689048
5714,16,Jits_ISO_5,3,5,80,127,1359728912
5714,16,Jits_ISO_5,0,1,48,39,1360140428
5714,16,Jits_ISO_5,1,5,63,98,1360159108
5714,16,Jits_ISO_5,2,5,56,103,1360198972
5714,16,Jits_ISO_5,3,5,80,127,1360218604
5714,16,Jits_ISO_5,0,1,48,42,1360632584
5714,16,Jits_ISO_5,1,5,63,98,1360669176
5714,16,Jits_ISO_5,2,5,56,103,1360708892
5714,16,Jits_ISO_5,3,5,80,127,1360719164
5714,16,Jits_ISO_5,0,1,48,38,1361139444
5714,16,Jits_ISO_5,1,5,80,127,1361149208
5714,16,Jits_ISO_5,2,5,63,98,1361219036
5714,16,Jits_ISO_5,3,5,56,103,1361239928
5714,16,Jits_ISO_5,0,5,56,103,1361638836
5714,16,Jits_ISO_5,1,1,48,39,1361642928
5714,16,Jits_ISO_5,2,5,80,127,1361659140
5714,16,Jits_ISO_5,3,5,63,98,1361699148
5714,16,Jits_ISO_5,0,1,48,38,1362148620
5714,16,Jits_ISO_5,1,5,63,98,1362150108
5714,16,Jits_ISO_5,2,5,80,127,1362169148
5714,16,Jits_ISO_5,3,5,56,103,1362209084
5714,16,Jits_ISO_5,0,1,48,36,1362641052
5714,16,Jits_ISO_5,1,5,63,98,1362648492
5714,16,Jits_ISO_5,2,5,56,103,1362668876
5714,16,Jits_ISO_5,3,5,80,127,1362679072
5714,16,Jits_ISO_5,0,1,48,38,1363135824
5714,16,Jits_ISO_5,1,5,80,127,1363149192
5714,16,Jits_ISO_5,2,5,56,103,1363168532
5714,16,Jits_ISO_5,3,5,63,98,1363199476
5714,16,Jits_ISO_5,0,1,48,35,1363623572
5714,16,Jits_ISO_5,1,5,56,103,1363718588
5714,16,Jits_ISO_5,2,5,80,127,1363721580
5714,16,Jits_ISO_5,3,5,63,98,1363739044
5714,16,Jits_ISO_5,0,5,63,98,1364139372
5714,16,Jits_ISO_5,1,1,48,41,1364159948
5714,16,Jits_ISO_5,2,5,56,103,1364168964
5714,16,Jits_ISO_5,3,5,80,127,1364228600
5714,16,Jits_ISO_5,0,1,48,38,1364643480
5714,16,Jits_ISO_5,1,5,63,98,1364718884
5714,16,Jits_ISO_5,2,5,56,103,1364729080
5714,16,Jits_ISO_5,3,5,80,127,1364738660
5714,16,Jits_ISO_5,0,1,48,40,1365150044
5714,16,Jits_ISO_5,1,5,56,103,1365168576
5714,16,Jits_ISO_5,2,5,80,127,1365199148
5714,16,Jits_ISO_5,3,5,63,98,1365208744
5714,16,Jits_ISO_5,0,1,48,41,1365649252
5714,16,Jits_ISO_5,1,5,63,98,1365709136
5714,16,Jits_ISO_5,2,5,56,103,1365719708
5714,16,Jits_ISO_5,3,5,80,127,1365739044
5714,16,Jits_ISO_5,0,5,56,103,1366139184
5714,16,Jits_ISO_5,1,1,48,41,1366178968
5714,16,Jits_ISO_5,2,5,63,98,1366198692
5714,16,Jits_ISO_5,3,5,80,127,1366201980
5714,16,Jits_ISO_5,0,5,80,127,1366658396
5714,16,Jits_ISO_5,1,5,56,103,1366668768
5714,16,Jits_ISO_5,2,1,48,37,1366688372
5714,16,Jits_ISO_5,3,5,63,98,1366739260
5714,16,Jits_ISO_5,0,5,80,127,1367148852
5714,16,Jits_ISO_5,1,1,48,42,1367175960
5714,16,Jits_ISO_5,2,5,56,103,1367218476
5714,16,Jits_ISO_5,3,5,63,98,1367228820
5714,16,Jits_ISO_5,0,1,48,40,1367679808
5714,16,Jits_ISO_5,1,5,63,98,1367688624
5714,16,Jits_ISO_5,2,5,56,103,1367698672
5714,16,Jits_ISO_5,3,5,80,127,1367719504
5714,16,Jits_ISO_5,0,5,80,127,1368139336
5714,16,Jits_ISO_5,1,1,48,43,1368171300
5714,16,Jits_ISO_5,2,5,63,98,1368198920
5714,16,Jits_ISO_5,3,5,56,103,1368238560
5714,16,Jits_ISO_5,0,1,48,39,1368671792
5714,16,Jits_ISO_5,1,5,56,103,1368678712
5714,16,Jits_ISO_5,2,5,63,98,1368689132
5714,16,Jits_ISO_5,3,5,80,127,1368728944
5714,16,Jits_ISO_5,0,5,56,103,1369138592
5714,16,Jits_ISO_5,1,5,80,127,1369169540
5714,16,Jits_ISO_5,2,1,48,31,1369196628
5714,16,Jits_ISO_5,3,5,63,98,1369218388
5714,16,Jits_ISO_5,0,1,48,41,1369647752
5714,16,Jits_ISO_5,1,5,56,103,1369679164
5714,16,Jits_ISO_5,2,5,63,98,1369719172
5714,16,Jits_ISO_5,3,5,80,127,1369722688
5714,16,Jits_ISO_5,0,1,48,38,1370087916
5714,16,Jits_ISO_5,1,5,56,103,1370179700
5714,16,Jits_ISO_5,2,5,63,98,1370189144
5714,16,Jits_ISO_5,3,5,80,127,1370208776
5714,16,Jits_ISO_5,0,1,48,40,1370608544
5714,16,Jits_ISO_5,1,5,56,103,1370638688
5714,16,Jits_ISO_5,2,5,80,127,1370641828
5714,16,Jits_ISO_5,3,5,63,98,1370678696
5714,16,Jits_ISO_5,0,1,48,32,1371126532
5714,16,Jits_ISO_5,1,5,63,98,1371179536
5714,16,Jits_ISO_5,2,5,56,103,1371209136
5714,16,Jits_ISO_5,3,5,80,127,1371228532
5714,16,Jits_ISO_5,0,1,48,37,1371636456
5714,16,Jits_ISO_5,1,5,80,127,1371649380
5714,16,Jits_ISO_5,2,5,56,103,1371658528
5714,16,Jits_ISO_5,3,5,63,98,1371668872
5714,16,Jits_ISO_5,0,1,48,38,1372118892
5714,16,Jits_ISO_5,1,5,56,103,1372148960
5714,16,Jits_ISO_5,2,5,80,127,1372188900
5714,16,Jits_ISO_5,3,5,63,98,1372218704
5714,16,Jits_ISO_5,0,1,48,37,1372625508
5714,16,Jits_ISO_5,1,5,63,98,1372659180
5714,16,Jits_ISO_5,2,5,80,127,1372669524
5714,16,Jits_ISO_5,3,5,56,103,1372678452
5714,16,Jits_ISO_5,0,1,48,40,1373110716
5714,16,Jits_ISO_5,1,5,56,103,1373139284
5714,16,Jits_ISO_5,2,5,63,98,1373209024
5714,16,Jits_ISO_5,3,5,80,127,1373219296
5714,16,Jits_ISO_5,0,5,80,127,1373638952
5714,16,Jits_ISO_5,1,1,48,41,1373645732
5714,16,Jits_ISO_5,2,5,56,103,1373649436
5714,16,Jits_ISO_5,3,5,63,98,1373698588
5714,16,Jits_ISO_5,0,1,48,36,1374149404
5714,16,Jits_ISO_5,1,5,80,127,1374150444
5714,16,Jits_ISO_5,2,5,56,103,1374209268
5714,16,Jits_ISO_5,3,5,63,98,1374239164
5714,16,Jits_ISO_5,0,5,56,103,1374648692
5714,16,Jits_ISO_5,1,5,80,127,1374651684
5714,16,Jits_ISO_5,2,1,48,35,1374678040
5714,16,Jits_ISO_5,3,5,63,98,1374688696
5714,16,Jits_ISO_5,0,5,56,103,1375179292
5714,16,Jits_ISO_5,1,1,48,28,1375197256
5714,16,Jits_ISO_5,2,5,63,98,1375208736
5714,16,Jits_ISO_5,3,5,80,127,1375218932
5714,16,Jits_ISO_5,0,1,48,37,1375681784
5714,16,Jits_ISO_5,1,5,63,98,1375689152
5714,16,Jits_ISO_5,2,5,80,127,1375699420
5714,16,Jits_ISO_5,3,5,56,103,1375708496
5714,16,Jits_ISO_5,0,5,80,127,1376138548
5714,16,Jits_ISO_5,1,1,48,37,1376181968
5714,16,Jits_ISO_5,2,5,56,103,1376188816
5714,16,Jits_ISO_5,3,5,63,98,1376191880
5714,16,Jits_ISO_5,0,5,56,103,1376669000
5714,16,Jits_ISO_5,1,1,48,41,1376683056
5714,16,Jits_ISO_5,2,5,80,127,1376688480
5714,16,Jits_ISO_5,3,5,63,98,1376698676
5714,16,Jits_ISO_5,0,5,63,98,1377149388
5714,16,Jits_ISO_5,1,1,48,43,1377166304
5714,16,Jits_ISO_5,2,5,56,103,1377179080
5714,16,Jits_ISO_5,3,5,80,127,1377198420
5714,16,Jits_ISO_5,0,1,48,37,1377655592
5714,16,Jits_ISO_5,1,5,56,103,1377659300
5714,16,Jits_ISO_5,2,5,80,127,1377668524
5714,16,Jits_ISO_5,3,5,63,98,1377739272
5714,16,Jits_ISO_5,0,5,63,98,1378148704
5714,16,Jits_ISO_5,1,1,48,37,1378159540
5714,16,Jits_ISO_5,2,5,80,127,1378188584
5714,16,Jits_ISO_5,3,5,56,103,1378228520
5714,16,Jits_ISO_5,0,1,48,39,1378636024
5714,16,Jits_ISO_5,1,5,56,103,1378658536
5714,16,Jits_ISO_5,2,5,63,98,1378668880
5714,16,Jits_ISO_5,3,5,80,127,1378689488
5714,16,Jits_ISO_5,4,1,48,23,1378697192
5714,16,Jits_ISO_5,0,1,48,40,1379166720
5714,16,Jits_ISO_5,1,5,63,98,1379199328
5714,16,Jits_ISO_5,2,5,80,127,1379218692
5714,16,Jits_ISO_5,3,5,56,103,1379239372
5714,16,Jits_ISO_5,0,5,56,103,1379638616
5714,16,Jits_ISO_5,1,1,48,36,1379716288
5714,16,Jits_ISO_5,2,5,80,127,1379718428
5714,16,Jits_ISO_5,3,5,63,98,1379728772
5714,16,Jits_ISO_5,0,5,80,127,1380179264
5714,16,Jits_ISO_5,1,5,63,98,1380188640
5714,16,Jits_ISO_5,2,1,48,35,1380211760
5714,16,Jits_ISO_5,3,5,56,103,1380219204
5714,16,Jits_ISO_5,0,5,63,98,1380639080
5714,16,Jits_ISO_5,1,5,80,127,1380679316
5714,16,Jits_ISO_5,2,1,48,41,1380728364
5714,16,Jits_ISO_5,3,5,56,103,1380738276
5714,16,Jits_ISO_5,0,5,63,98,1381149148
5714,16,Jits_ISO_5,1,5,56,103,1381199352
5714,16,Jits_ISO_5,2,1,48,43,1381209372
5714,16,Jits_ISO_5,3,5,80,127,1381229092
5714,16,Jits_ISO_5,0,5,80,127,1381659072
5714,16,Jits_ISO_5,1,5,63,98,1381669120
5714,16,Jits_ISO_5,2,1,48,41,1381699508
5714,16,Jits_ISO_5,3,5,56,103,1381738716
5714,16,Jits_ISO_5,0,1,48,42,1382190032
5714,16,Jits_ISO_5,1,5,80,127,1382229316
5714,16,Jits_ISO_5,2,5,56,103,1382238536
5714,16,Jits_ISO_5,3,5,63,98,1382241680
5714,16,Jits_ISO_5,0,5,56,103,1382668596
5714,16,Jits_ISO_5,1,5,80,127,1382689424
5714,16,Jits_ISO_5,2,5,63,98,1382699248
5714,16,Jits_ISO_5,3,1,48,41,1382709264
5714,16,Jits_ISO_5,0,5,63,98,1383178680
5714,16,Jits_ISO_5,1,1,48,40,1383191460
5714,16,Jits_ISO_5,2,5,56,103,1383218612
5714,16,Jits_ISO_5,3,5,80,127,1383239292
5714,16,Jits_ISO_5,0,5,63,98,1383679316
5714,16,Jits_ISO_5,1,1,48,39,1383693968
5714,16,Jits_ISO_5,2,5,56,103,1383738872
5714,16,Jits_ISO_5,3,5,80,127,1383742012
5714,16,Jits_ISO_5,0,5,56,103,1384139036
5714,16,Jits_ISO_5,1,5,80,127,1384158672
5714,16,Jits_ISO_5,2,1,48,34,1384181868
5714,16,Jits_ISO_5,3,5,63,98,1384198600
5714,16,Jits_ISO_5,0,5,56,103,1384668524
5714,16,Jits_ISO_5,1,1,48,30,1384670316
5714,16,Jits_ISO_5,2,5,63,98,1384689272
5714,16,Jits_ISO_5,3,5,80,127,1384699244
5714,16,Jits_ISO_5,0,5,80,127,1385138972
5714,16,Jits_ISO_5,1,1,48,39,1385156860
5714,16,Jits_ISO_5,2,5,56,103,1385169240
5714,16,Jits_ISO_5,3,5,63,98,1385209176
5714,16,Jits_ISO_5,0,5,80,127,1385648608
5714,16,Jits_ISO_5,1,1,48,43,1385659524
5714,16,Jits_ISO_5,2,5,56,103,1385669060
5714,16,Jits_ISO_5,3,5,63,98,1385729300
5714,16,Jits_ISO_5,0,5,56,103,1386158468
5714,16,Jits_ISO_5,1,1,48,40,1386161216
5714,16,Jits_ISO_5,2,5,80,127,1386178992
5714,16,Jits_ISO_5,3,1,48,23,1386220080
5714,16,Jits_ISO_5,4,5,63,98,1386239284
5714,16,Jits_ISO_5,0,5,80,127,1386638672
5714,16,Jits_ISO_5,1,5,56,103,1386649092
5714,16,Jits_ISO_5,2,1,48,41,1386676024
5714,16,Jits_ISO_5,3,5,63,98,1386689320
5714,16,Jits_ISO_5,0,5,63,98,1387138464
5714,16,Jits_ISO_5,1,1,48,39,1387164080
5714,16,Jits_ISO_5,2,5,56,103,1387179320
5714,16,Jits_ISO_5,3,5,80,127,1387182384
5714,16,Jits_ISO_5,0,5,63,98,1387658588
5714,16,Jits_ISO_5,1,1,48,40,1387677824
5714,16,Jits_ISO_5,2,5,80,127,1387698596
5714,16,Jits_ISO_5,3,5,56,103,1387729240
5714,16,Jits_ISO_5,0,5,56,103,1388149004
5714,16,Jits_ISO_5,1,5,63,98,1388159276
5714,16,Jits_ISO_5,2,5,80,127,1388189196
5714,16,Jits_ISO_5,3,1,48,36,1388194036
5714,16,Jits_ISO_5,0,5,80,127,1388638560
5714,16,Jits_ISO_5,1,1,48,37,1388662504
5714,16,Jits_ISO_5,2,5,63,98,1388709228
5714,16,Jits_ISO_5,3,5,56,103,1388718304
5714,16,Jits_ISO_5,0,5,63,98,1389139280
5714,16,Jits_ISO_5,1,1,48,36,1389175652
5714,16,Jits_ISO_5,2,5,56,103,1389208980
5714,16,Jits_ISO_5,3,5,80,127,1389219172
5714,16,Jits_ISO_5,0,5,63,98,1389639228
5714,16,Jits_ISO_5,1,5,56,103,1389658344
5714,16,Jits_ISO_5,2,1,48,36,1389675236
5714,16,Jits_ISO_5,3,5,80,127,1389698272
5714,16,Jits_ISO_5,0,5,56,103,1390149072
5714,16,Jits_ISO_5,1,1,48,34,1390158816
5714,16,Jits_ISO_5,2,5,63,98,1390160312
5714,16,Jits_ISO_5,3,5,80,127,1390239004
5714,16,Jits_ISO_5,0,5,63,98,1390638484
5714,16,Jits_ISO_5,1,1,48,37,1390650520
5714,16,Jits_ISO_5,2,5,56,103,1390669124
5714,16,Jits_ISO_5,3,5,80,127,1390709132
5714,16,Jits_ISO_5,0,5,56,103,1391139184
5714,16,Jits_ISO_5,1,1,48,40,1391156004
5714,16,Jits_ISO_5,2,5,63,98,1391179192
5714,16,Jits_ISO_5,3,5,80,127,1391219052
5714,16,Jits_ISO_5,0,5,80,127,1391639156
5714,16,Jits_ISO_5,1,1,48,45,1391645416
5714,16,Jits_ISO_5,2,5,56,103,1391718796
5714,16,Jits_ISO_5,3,5,63,98,1391729140
5714,16,Jits_ISO_5,0,1,48,36,1392152132
5714,16,Jits_ISO_5,1,5,56,103,1392178452
5714,16,Jits_ISO_5,2,5,63,98,1392181600
5714,16,Jits_ISO_5,3,5,80,127,1392189028
5714,16,Jits_ISO_5,0,1,48,37,1392668800
5714,16,Jits_ISO_5,1,5,56,103,1392699008
5714,16,Jits_ISO_5,2,5,63,98,1392719096
5714,16,Jits_ISO_5,3,5,80,127,1392728392
5714,16,Jits_ISO_5,0,5,63,98,1393158444
5714,16,Jits_ISO_5,1,5,80,127,1393168936
5714,16,Jits_ISO_5,2,5,56,103,1393189172
5714,16,Jits_ISO_5,3,1,48,35,1393196944
5714,16,Jits_ISO_5,0,5,63,98,1393659296
5714,16,Jits_ISO_5,1,1,48,38,1393692228
5714,16,Jits_ISO_5,2,5,56,103,1393739000
5714,16,Jits_ISO_5,3,5,80,127,1393742148
5714,16,Jits_ISO_5,0,1,48,38,1394154788
5714,16,Jits_ISO_5,1,5,63,98,1394159016
5714,16,Jits_ISO_5,2,5,56,103,1394178352
5714,16,Jits_ISO_5,3,5,80,127,1394209224
5714,16,Jits_ISO_5,0,5,56,103,1394658756
5714,16,Jits_ISO_5,1,5,63,98,1394679064
5714,16,Jits_ISO_5,2,1,48,32,1394689632
5714,16,Jits_ISO_5,3,5,80,127,1394690972
5714,16,Jits_ISO_5,0,1,48,38,1395154788
5714,16,Jits_ISO_5,1,5,56,103,1395189064
5714,16,Jits_ISO_5,2,5,63,98,1395218884
5714,16,Jits_ISO_5,3,5,80,127,1395222248
5714,16,Jits_ISO_5,0,1,48,42,1395632120
5714,16,Jits_ISO_5,1,5,56,103,1395638596
5714,16,Jits_ISO_5,2,5,63,98,1395678680
5714,16,Jits_ISO_5,3,5,80,127,1395739052
5714,16,Jits_ISO_5,0,1,48,41,1396132824
5714,16,Jits_ISO_5,1,5,56,103,1396158928
5714,16,Jits_ISO_5,2,5,63,98,1396169200
5714,16,Jits_ISO_5,3,5,80,127,1396228376
5714,16,Jits_ISO_5,0,5,56,103,1396658444
5714,16,Jits_ISO_5,1,1,48,38,1396667936
5714,16,Jits_ISO_5,2,5,80,127,1396678896
5714,16,Jits_ISO_5,3,5,63,98,1396708940
5714,16,Jits_ISO_5,0,5,80,127,1397159384
5714,16,Jits_ISO_5,1,1,48,41,1397166172
5714,16,Jits_ISO_5,2,5,56,103,1397168676
5714,16,Jits_ISO_5,3,5,63,98,1397188912
5714,16,Jits_ISO_5,0,5,63,98,1397648940
5714,16,Jits_ISO_5,1,1,48,43,1397668548
5714,16,Jits_ISO_5,2,5,80,127,1397728580
5714,16,Jits_ISO_5,3,5,56,103,1397739000
5714,16,Jits_ISO_5,0,1,48,39,1398164072
5714,16,Jits_ISO_5,1,5,80,127,1398208908
5714,16,Jits_ISO_5,2,5,56,103,1398229436
5714,16,Jits_ISO_5,3,5,63,98,1398232652
5714,16,Jits_ISO_5,0,1,48,43,1398655900
5714,16,Jits_ISO_5,1,5,63,98,1398678964
5714,16,Jits_ISO_5,2,5,80,127,1398682328
5714,16,Jits_ISO_5,3,5,56,103,1398739276
5714,16,Jits_ISO_5,0,1,48,44,1399140508
5714,16,Jits_ISO_5,1,5,56,103,1399159112
5714,16,Jits_ISO_5,2,5,80,127,1399169532
5714,16,Jits_ISO_5,3,5,63,98,1399209344
5714,16,Jits_ISO_5,0,5,56,103,1399639524
5714,16,Jits_ISO_5,1,1,48,43,1399642120
5714,16,Jits_ISO_5,2,1,48,26,1399692764
5714,16,Jits_ISO_5,3,5,63,98,1399698784
5714,16,Jits_ISO_5,4,5,80,127,1399708980
5714,16,Jits_ISO_5,0,1,48,43,1400136532
5714,16,Jits_ISO_5,1,5,63,98,1400149236
5714,16,Jits_ISO_5,2,5,80,127,1400189172
5714,16,Jits_ISO_5,3,5,56,103,1400229136
5714,16,Jits_ISO_5,0,5,56,103,1400648976
5714,16,Jits_ISO_5,1,1,48,38,1400652992
5714,16,Jits_ISO_5,2,5,63,98,1400728932
5714,16,Jits_ISO_5,3,5,80,127,1400732448
5714,16,Jits_ISO_5,0,9999,9999,9999,1341437028
5714,16,Jits_ISO_5,1,9999,9999,9999,1341936724
5714,16,Jits_ISO_5,2,9999,9999,9999,1342436476
5714,16,Jits_ISO_5,3,9999,9999,9999,1342936144
5714,16,Jits_ISO_5,4,9999,9999,9999,1343436924
5714,16,Jits_ISO_5,5,9999,9999,9999,1343936588
5714,16,Jits_ISO_5,6,9999,9999,9999,1344436320
5714,16,Jits_ISO_5,7,9999,9999,9999,1344937036
5714,16,Jits_ISO_5,8,9999,9999,9999,1345436780
5714,16,Jits_ISO_5,9,9999,9999,9999,1345936452
5714,16,Jits_ISO_5,10,9999,9999,9999,1346436172
5714,16,Jits_ISO_5,11,9999,9999,9999,1346936884
5714,16,Jits_ISO_5,12,9999,9999,9999,1347436612
5714,16,Jits_ISO_5,13,9999,9999,9999,1347936340
5714,16,Jits_ISO_5,14,9999,9999,9999,1348437116
5714,16,Jits_ISO_5,15,9999,9999,9999,1348936788
5714,16,Jits_ISO_5,16,9999,9999,9999,1349436520
5714,16,Jits_ISO_5,17,9999,9999,9999,1349936248
5714,16,Jits_ISO_5,18,9999,9999,9999,1350436952
5714,16,Jits_ISO_5,19,9999,9999,9999,1350936628
5714,16,Jits_ISO_5,20,9999,9999,9999,1351436360
5714,16,Jits_ISO_5,21,9999,9999,9999,1351936096
5714,16,Jits_ISO_5,22,9999,9999,9999,1352436816
5714,16,Jits_ISO_5,23,9999,9999,9999,1352936560
5714,16,Jits_ISO_5,24,9999,9999,9999,1353436236
5714,16,Jits_ISO_5,25,9999,9999,9999,1353937020
5714,16,Jits_ISO_5,26,9999,9999,9999,1354436676
5714,16,Jits_ISO_5,27,9999,9999,9999,1354936396
5714,16,Jits_ISO_5,28,9999,9999,9999,1355436144
5714,16,Jits_ISO_5,29,9999,9999,9999,1355936864
5714,16,Jits_ISO_5,30,9999,9999,9999,1356436536
5714,16,Jits_ISO_5,31,9999,9999,9999,1356936284
5714,16,Jits_ISO_5,32,9999,9999,9999,1357437052
5714,16,Jits_ISO_5,33,9999,9999,9999,1357936708
5714,16,Jits_ISO_5,34,9999,9999,9999,1358436444
5714,16,Jits_ISO_5,35,9999,9999,9999,1358936180
5714,16,Jits_ISO_5,36,9999,9999,9999,1359436876
5714,16,Jits_ISO_5,37,9999,9999,9999,1359936608
5714,16,Jits_ISO_5,38,9999,9999,9999,1360436340
5714,16,Jits_ISO_5,39,9999,9999,9999,1360937048
5714,16,Jits_ISO_5,40,9999,9999,9999,1361436784
5714,16,Jits_ISO_5,41,9999,9999,9999,1361936436
5714,16,Jits_ISO_5,42,9999,9999,9999,1362436184
5714,16,Jits_ISO_5,43,9999,9999,9999,1362936884
5714,16,Jits_ISO_5,44,9999,9999,9999,1363436616
5714,16,Jits_ISO_5,45,9999,9999,9999,1363936348
5714,16,Jits_ISO_5,46,9999,9999,9999,1364437048
5714,16,Jits_ISO_5,47,9999,9999,9999,1364936788
5714,16,Jits_ISO_5,48,9999,9999,9999,1365436520
5714,16,Jits_ISO_5,49,9999,9999,9999,1365936180
5714,16,Jits_ISO_5,50,9999,9999,9999,1366436948
5714,16,Jits_ISO_5,51,9999,9999,9999,1366936696
5714,16,Jits_ISO_5,52,9999,9999,9999,1367436368
5714,16,Jits_ISO_5,53,9999,9999,9999,1367936092
5714,16,Jits_ISO_5,54,9999,9999,9999,1368436796
5714,16,Jits_ISO_5,55,9999,9999,9999,1368936540
5714,16,Jits_ISO_5,56,9999,9999,9999,1369436272
5714,16,Jits_ISO_5,57,9999,9999,9999,1369936984
5714,16,Jits_ISO_5,58,9999,9999,9999,1370436716
5714,16,Jits_ISO_5,59,9999,9999,9999,1370936436
5714,16,Jits_ISO_5,60,9999,9999,9999,1371436096
5714,16,Jits_ISO_5,61,9999,9999,9999,1371936872
5714,16,Jits_ISO_5,62,9999,9999,9999,1372436532
5714,16,Jits_ISO_5,63,9999,9999,9999,1372936264
5714,16,Jits_ISO_5,64,9999,9999,9999,1373437044
5714,16,Jits_ISO_5,65,9999,9999,9999,1373936700
5714,16,Jits_ISO_5,66,9999,9999,9999,1374436452
5714,16,Jits_ISO_5,67,9999,9999,9999,1374936172
5714,16,Jits_ISO_5,68,9999,9999,9999,1375436892
5714,16,Jits_ISO_5,69,9999,9999,9999,1375936568
5714,16,Jits_ISO_5,70,9999,9999,9999,1376436292
5714,16,Jits_ISO_5,71,9999,9999,9999,1376937084
5714,16,Jits_ISO_5,72,9999,9999,9999,1377436752
5714,16,Jits_ISO_5,73,9999,9999,9999,1377936484
5714,16,Jits_ISO_5,74,9999,9999,9999,1378436192
5714,16,Jits_ISO_5,75,9999,9999,9999,1378936940
5714,16,Jits_ISO_5,76,9999,9999,9999,1379436636
5714,16,Jits_ISO_5,77,9999,9999,9999,1379936368
5714,16,Jits_ISO_5,78,9999,9999,9999,1380437088
5714,16,Jits_ISO_5,79,9999,9999,9999,1380936760
5714,16,Jits_ISO_5,80,9999,9999,9999,1381436492
5714,16,Jits_ISO_5,81,9999,9999,9999,1381936228
5714,16,Jits_ISO_5,82,9999,9999,9999,1382436944
5714,16,Jits_ISO_5,83,9999,9999,9999,1382936680
5714,16,Jits_ISO_5,84,9999,9999,9999,1383436356
5714,16,Jits_ISO_5,85,9999,9999,9999,1383936084
5714,16,Jits_ISO_5,86,9999,9999,9999,1384436788
5714,16,Jits_ISO_5,87,9999,9999,9999,1384936532
5714,16,Jits_ISO_5,88,9999,9999,9999,1385436276
5714,16,Jits_ISO_5,89,9999,9999,9999,1385936996
5714,16,Jits_ISO_5,90,9999,9999,9999,1386436720
5714,16,Jits_ISO_5,91,9999,9999,9999,1386936424
5714,16,Jits_ISO_5,92,9999,9999,9999,1387436156
5714,16,Jits_ISO_5,93,9999,9999,9999,1387936864
5714,16,Jits_ISO_5,94,9999,9999,9999,1388436592
5714,16,Jits_ISO_5,95,9999,9999,9999,1388936264
5714,16,Jits_ISO_5,96,9999,9999,9999,1389437032
5714,16,Jits_ISO_5,97,9999,9999,9999,1389936756
5714,16,Jits_ISO_5,98,9999,9999,9999,1390436412
5714,16,Jits_ISO_5,99,9999,9999,9999,1390936160
5714,16,Jits_ISO_5,100,9999,9999,9999,1391436864
5714,16,Jits_ISO_5,101,9999,9999,9999,1391936612
5714,16,Jits_ISO_5,102,9999,9999,9999,1392436280
5714,16,Jits_ISO_5,103,9999,9999,9999,1392937064
5714,16,Jits_ISO_5,104,9999,9999,9999,1393436792
5714,16,Jits_ISO_5,105,9999,9999,9999,1393936440
5714,16,Jits_ISO_5,106,9999,9999,9999,1394436176
5714,16,Jits_ISO_5,107,9999,9999,9999,1394936952
5714,16,Jits_ISO_5,108,9999,9999,9999,1395436620
5714,16,Jits_ISO_5,109,9999,9999,9999,1395936356
5714,16,Jits_ISO_5,110,9999,9999,9999,1396437060
5714,16,Jits_ISO_5,111,9999,9999,9999,1396936792
5714,16,Jits_ISO_5,112,9999,9999,9999,1397436536
5714,16,Jits_ISO_5,113,9999,9999,9999,1397936212
5714,16,Jits_ISO_5,114,9999,9999,9999,1398436984
5714,16,Jits_ISO_5,115,9999,9999,9999,1398936636
5714,16,Jits_ISO_5,116,9999,9999,9999,1399436372
5714,16,Jits_ISO_5,117,9999,9999,9999,1399936056
5714,16,Jits_ISO_5,118,9999,9999,9999,1400436808
5714,16,Jits_ISO_5,119,9999,9999,9999,1400936532
5715,7,Jits_ISO_8,0,5,56,103,1411195288
5715,7,Jits_ISO_8,1,5,63,98,1411198312
5715,7,Jits_ISO_8,2,5,80,127,1411201436
5715,7,Jits_ISO_8,0,5,56,103,1411994940
5715,7,Jits_ISO_8,1,5,63,98,1411998036
5715,7,Jits_ISO_8,2,5,80,127,1412001160
5715,7,Jits_ISO_8,0,5,80,127,1412735440
5715,7,Jits_ISO_8,1,5,63,98,1412824628
5715,7,Jits_ISO_8,2,5,56,103,1412834752
5715,7,Jits_ISO_8,0,5,56,103,1413554520
5715,7,Jits_ISO_8,1,5,63,98,1413564864
5715,7,Jits_ISO_8,2,5,80,127,1413654772
5715,7,Jits_ISO_8,0,1,48,39,1414313972
5715,7,Jits_ISO_8,1,5,63,98,1414324712
5715,7,Jits_ISO_8,2,5,80,127,1414355508
5715,7,Jits_ISO_8,3,5,56,103,1414384960
5715,7,Jits_ISO_8,0,1,48,43,1415025388
5715,7,Jits_ISO_8,1,1,48,24,1415080676
5715,7,Jits_ISO_8,2,5,56,103,1415125440
5715,7,Jits_ISO_8,3,5,80,127,1415224628
5715,7,Jits_ISO_8,4,5,63,98,1415274756
5715,7,Jits_ISO_8,0,5,56,103,1415925252
5715,7,Jits_ISO_8,1,1,48,42,1415946804
5715,7,Jits_ISO_8,2,5,80,127,1415975524
5715,7,Jits_ISO_8,3,5,63,98,1416015164
5715,7,Jits_ISO_8,0,1,48,41,1416734984
5715,7,Jits_ISO_8,1,5,80,127,1416754564
5715,7,Jits_ISO_8,2,5,63,98,1416785508
5715,7,Jits_ISO_8,3,5,56,103,1416854900
5715,7,Jits_ISO_8,0,1,48,43,1417529064
5715,7,Jits_ISO_8,1,5,63,98,1417584988
5715,7,Jits_ISO_8,2,5,56,103,1417614764
5715,7,Jits_ISO_8,3,5,80,127,1417675216
5715,7,Jits_ISO_8,0,1,48,45,1418309676
5715,7,Jits_ISO_8,1,5,56,103,1418325436
5715,7,Jits_ISO_8,2,5,80,127,1418328500
5715,7,Jits_ISO_8,3,1,48,26,1418362840
5715,7,Jits_ISO_8,4,5,63,98,1418445388
5715,7,Jits_ISO_8,0,1,48,44,1419100524
5715,7,Jits_ISO_8,1,5,56,103,1419205008
5715,7,Jits_ISO_8,2,5,80,127,1419244876
5715,7,Jits_ISO_8,3,5,63,98,1419255444
5715,7,Jits_ISO_8,0,1,48,38,1419937432
5715,7,Jits_ISO_8,1,5,56,103,1419964808
5715,7,Jits_ISO_8,2,5,80,127,1419985488
5715,7,Jits_ISO_8,3,5,63,98,1420065268
5715,7,Jits_ISO_8,0,1,48,35,1420745916
5715,7,Jits_ISO_8,1,5,80,127,1420755228
5715,7,Jits_ISO_8,2,5,56,103,1420854492
5715,7,Jits_ISO_8,3,5,63,98,1420864764
5715,7,Jits_ISO_8,0,5,63,98,1421525356
5715,7,Jits_ISO_8,1,1,48,40,1421556720
5715,7,Jits_ISO_8,2,5,80,127,1421584620
5715,7,Jits_ISO_8,3,5,56,103,1421595412
5715,7,Jits_ISO_8,0,1,48,42,1422290036
5715,7,Jits_ISO_8,1,5,56,103,1422325280
5715,7,Jits_ISO_8,2,5,63,98,1422394796
5715,7,Jits_ISO_8,3,5,80,127,1422398160
5715,7,Jits_ISO_8,0,1,48,35,1423143236
5715,7,Jits_ISO_8,1,5,63,98,1423154572
5715,7,Jits_ISO_8,2,5,56,103,1423204772
5715,7,Jits_ISO_8,3,5,80,127,1423207840
5715,7,Jits_ISO_8,0,5,56,103,1423915464
5715,7,Jits_ISO_8,1,5,80,127,1423918456
5715,7,Jits_ISO_8,2,1,48,24,1423924132
5715,7,Jits_ISO_8,3,5,63,98,1424004340
5715,7,Jits_ISO_8,0,1,48,40,1424685620
5715,7,Jits_ISO_8,1,5,63,98,1424755176
5715,7,Jits_ISO_8,2,5,56,103,1424845320
5715,7,Jits_ISO_8,3,5,80,127,1424874772
5715,7,Jits_ISO_8,0,1,48,43,1425536060
5715,7,Jits_ISO_8,1,5,56,103,1425544500
5715,7,Jits_ISO_8,2,5,63,98,1425645036
5715,7,Jits_ISO_8,3,5,80,127,1425674636
5715,7,Jits_ISO_8,0,5,63,98,1426364748
5715,7,Jits_ISO_8,1,5,56,103,1426375244
5715,7,Jits_ISO_8,2,1,48,49,1426385556
5715,7,Jits_ISO_8,3,1,48,31,1426452052
5715,7,Jits_ISO_8,4,5,80,127,1426465272
5715,7,Jits_ISO_8,0,5,63,98,1427185284
5715,7,Jits_ISO_8,1,1,48,41,1427206392
5715,7,Jits_ISO_8,2,5,56,103,1427265000
5715,7,Jits_ISO_8,3,1,48,26,1427266948
5715,7,Jits_ISO_8,4,5,80,127,1427269696
5715,7,Jits_ISO_8,0,5,80,127,1427944760
5715,7,Jits_ISO_8,1,5,63,98,1427965296
5715,7,Jits_ISO_8,2,1,48,34,1428001372
5715,7,Jits_ISO_8,3,5,56,103,1428024632
5715,7,Jits_ISO_8,0,1,48,37,1428767976
5715,7,Jits_ISO_8,1,5,56,103,1428784488
5715,7,Jits_ISO_8,2,5,63,98,1428805248
5715,7,Jits_ISO_8,3,5,80,127,1428808604
5715,7,Jits_ISO_8,0,5,63,98,1429524928
5715,7,Jits_ISO_8,1,1,48,47,1429545508
5715,7,Jits_ISO_8,2,5,80,127,1429604940
5715,7,Jits_ISO_8,3,5,56,103,1429615212
5715,7,Jits_ISO_8,0,1,48,42,1430288412
5715,7,Jits_ISO_8,1,5,63,98,1430345008
5715,7,Jits_ISO_8,2,5,56,103,1430364420
5715,7,Jits_ISO_8,3,5,80,127,1430414632
5715,7,Jits_ISO_8,0,1,48,34,1431086768
5715,7,Jits_ISO_8,1,5,80,127,1431144788
5715,7,Jits_ISO_8,2,5,63,98,1431184664
5715,7,Jits_ISO_8,3,5,56,103,1431205124
5715,7,Jits_ISO_8,0,1,48,38,1431902816
5715,7,Jits_ISO_8,1,5,56,103,1431984532
5715,7,Jits_ISO_8,2,5,63,98,1431996280
5715,7,Jits_ISO_8,3,5,80,127,1432015172
5715,7,Jits_ISO_8,0,5,56,103,1432714496
5715,7,Jits_ISO_8,1,1,48,45,1432730196
5715,7,Jits_ISO_8,2,1,48,32,1432776256
5715,7,Jits_ISO_8,3,5,63,98,1432804828
5715,7,Jits_ISO_8,4,5,80,127,1432865220
5715,7,Jits_ISO_8,0,5,80,127,1433545012
5715,7,Jits_ISO_8,1,5,56,103,1433555504
5715,7,Jits_ISO_8,2,1,48,40,1433565228
5715,7,Jits_ISO_8,3,5,63,98,1433625104
5715,7,Jits_ISO_8,0,1,48,43,1434363812
5715,7,Jits_ISO_8,1,5,63,98,1434374476
5715,7,Jits_ISO_8,2,5,80,127,1434464596
5715,7,Jits_ISO_8,3,5,56,103,1434474940
5715,7,Jits_ISO_8,0,5,63,98,1435115008
5715,7,Jits_ISO_8,1,1,48,48,1435155740
5715,7,Jits_ISO_8,2,5,80,127,1435165128
5715,7,Jits_ISO_8,3,1,48,31,1435213416
5715,7,Jits_ISO_8,4,5,56,103,1435224448
5715,7,Jits_ISO_8,0,1,48,42,1435915356
5715,7,Jits_ISO_8,1,5,56,103,1435945348
5715,7,Jits_ISO_8,2,5,80,127,1435994580
5715,7,Jits_ISO_8,3,5,63,98,1436015096
5715,7,Jits_ISO_8,0,5,56,103,1436715392
5715,7,Jits_ISO_8,1,1,48,39,1436722024
5715,7,Jits_ISO_8,2,5,80,127,1436774732
5715,7,Jits_ISO_8,3,5,63,98,1436845540
5715,7,Jits_ISO_8,0,5,56,103,1437515040
5715,7,Jits_ISO_8,1,1,48,42,1437538984
5715,7,Jits_ISO_8,2,5,80,127,1437544856
5715,7,Jits_ISO_8,3,5,63,98,1437574556
5715,7,Jits_ISO_8,0,1,48,45,1438308800
5715,7,Jits_ISO_8,1,5,56,103,1438354932
5715,7,Jits_ISO_8,2,5,80,127,1438375320
5715,7,Jits_ISO_8,3,5,63,98,1438434868
5715,7,Jits_ISO_8,0,1,48,46,1439136556
5715,7,Jits_ISO_8,1,5,80,127,1439234348
5715,7,Jits_ISO_8,2,5,56,103,1439244768
5715,7,Jits_ISO_8,3,5,63,98,1439255188
5715,7,Jits_ISO_8,0,1,48,46,1439976664
5715,7,Jits_ISO_8,1,5,56,103,1439995192
5715,7,Jits_ISO_8,2,5,80,127,1440035056
5715,7,Jits_ISO_8,3,5,63,98,1440065028
5715,7,Jits_ISO_8,0,5,56,103,1440765320
5715,7,Jits_ISO_8,1,5,63,98,1440794920
5715,7,Jits_ISO_8,2,5,80,127,1440835156
5715,7,Jits_ISO_8,3,1,48,39,1440837680
5715,7,Jits_ISO_8,0,5,80,127,1441515068
5715,7,Jits_ISO_8,1,5,63,98,1441565124
5715,7,Jits_ISO_8,2,5,56,103,1441584608
5715,7,Jits_ISO_8,3,1,48,28,1441642332
5715,7,Jits_ISO_8,0,5,56,103,1442345280
5715,7,Jits_ISO_8,1,5,80,127,1442414888
5715,7,Jits_ISO_8,2,1,48,38,1442420624
5715,7,Jits_ISO_8,3,5,63,98,1442475372
5715,7,Jits_ISO_8,0,5,80,127,1443145004
5715,7,Jits_ISO_8,1,1,48,45,1443210256
5715,7,Jits_ISO_8,2,5,63,98,1443235160
5715,7,Jits_ISO_8,3,5,56,103,1443254872
5715,7,Jits_ISO_8,0,5,63,98,1443965260
5715,7,Jits_ISO_8,1,1,48,40,1443973136
5715,7,Jits_ISO_8,2,5,56,103,1443984912
5715,7,Jits_ISO_8,3,5,80,127,1444024924
5715,7,Jits_ISO_8,0,1,48,40,1444711876
5715,7,Jits_ISO_8,1,5,80,127,1444725248
5715,7,Jits_ISO_8,2,5,63,98,1444744612
5715,7,Jits_ISO_8,3,5,56,103,1444824392
5715,7,Jits_ISO_8,0,1,48,34,1445482136
5715,7,Jits_ISO_8,1,5,63,98,1445514860
5715,7,Jits_ISO_8,2,5,56,103,1445625056
5715,7,Jits_ISO_8,3,5,80,127,1445628204
5715,7,Jits_ISO_8,0,1,48,37,1446327720
5715,7,Jits_ISO_8,1,5,63,98,1446335016
5715,7,Jits_ISO_8,2,5,56,103,1446345060
5715,7,Jits_ISO_8,3,5,80,127,1446348352
5715,7,Jits_ISO_8,0,5,56,103,1447115084
5715,7,Jits_ISO_8,1,1,48,35,1447117676
5715,7,Jits_ISO_8,2,5,80,127,1447234868
5715,7,Jits_ISO_8,3,5,63,98,1447274884
5715,7,Jits_ISO_8,0,5,56,103,1447935340
5715,7,Jits_ISO_8,1,1,48,35,1447978240
5715,7,Jits_ISO_8,2,5,80,127,1448015204
5715,7,Jits_ISO_8,3,5,63,98,1448034768
5715,7,Jits_ISO_8,0,5,56,103,1448735068
5715,7,Jits_ISO_8,1,1,48,37,1448754972
5715,7,Jits_ISO_8,2,5,63,98,1448844848
5715,7,Jits_ISO_8,3,5,80,127,1448848140
5715,7,Jits_ISO_8,0,5,56,103,1449564600
5715,7,Jits_ISO_8,1,5,80,127,1449595252
5715,7,Jits_ISO_8,2,1,48,36,1449613408
5715,7,Jits_ISO_8,3,5,63,98,1449614980
5715,7,Jits_ISO_8,0,5,63,98,1450344848
5715,7,Jits_ISO_8,1,5,56,103,1450354972
5715,7,Jits_ISO_8,2,5,80,127,1450365760
5715,7,Jits_ISO_8,3,1,48,33,1450371228
5715,7,Jits_ISO_8,0,1,48,43,1451121808
5715,7,Jits_ISO_8,1,5,80,127,1451135328
5715,7,Jits_ISO_8,2,5,56,103,1451184584
5715,7,Jits_ISO_8,3,5,63,98,1451224356
5715,7,Jits_ISO_8,0,5,80,127,1451954772
5715,7,Jits_ISO_8,1,5,63,98,1451975008
5715,7,Jits_ISO_8,2,1,48,39,1451980072
5715,7,Jits_ISO_8,3,5,56,103,1452025200
5715,7,Jits_ISO_8,0,5,80,127,1452764536
5715,7,Jits_ISO_8,1,1,48,40,1452795260
5715,7,Jits_ISO_8,2,5,56,103,1452796672
5715,7,Jits_ISO_8,3,5,63,98,1452864860
5715,7,Jits_ISO_8,0,5,56,103,1453614460
5715,7,Jits_ISO_8,1,5,80,127,1453624656
5715,7,Jits_ISO_8,2,1,48,36,1453638716
5715,7,Jits_ISO_8,3,5,63,98,1453664812
5715,7,Jits_ISO_8,0,5,56,103,1454325104
5715,7,Jits_ISO_8,1,5,63,98,1454344740
5715,7,Jits_ISO_8,2,5,80,127,1454415096
5715,7,Jits_ISO_8,3,1,48,35,1454416060
5715,7,Jits_ISO_8,0,1,48,37,1455124416
5715,7,Jits_ISO_8,1,5,63,98,1455145420
5715,7,Jits_ISO_8,2,5,80,127,1455204616
5715,7,Jits_ISO_8,3,5,56,103,1455225136
5715,7,Jits_ISO_8,0,1,48,41,1455933280
5715,7,Jits_ISO_8,1,5,80,127,1455934716
5715,7,Jits_ISO_8,2,5,56,103,1455964688
5715,7,Jits_ISO_8,3,5,63,98,1455995560
5715,7,Jits_ISO_8,0,5,56,103,1456734728
5715,7,Jits_ISO_8,1,1,48,40,1456770088
5715,7,Jits_ISO_8,2,5,63,98,1456794916
5715,7,Jits_ISO_8,3,5,80,127,1456855528
5715,7,Jits_ISO_8,0,5,80,127,1457554780
5715,7,Jits_ISO_8,1,5,56,103,1457575240
5715,7,Jits_ISO_8,2,1,48,35,1457605632
5715,7,Jits_ISO_8,3,5,63,98,1457644768
5715,7,Jits_ISO_8,0,5,80,127,1458354656
5715,7,Jits_ISO_8,1,5,63,98,1458375116
5715,7,Jits_ISO_8,2,1,48,30,1458396520
5715,7,Jits_ISO_8,3,5,56,103,1458404784
5715,7,Jits_ISO_8,0,5,80,127,1459145008
5715,7,Jits_ISO_8,1,5,63,98,1459164720
5715,7,Jits_ISO_8,2,1,48,40,1459175036
5715,7,Jits_ISO_8,3,5,56,103,1459224880
5715,7,Jits_ISO_8,0,5,80,127,1459944880
5715,7,Jits_ISO_8,1,1,48,37,1459969724
5715,7,Jits_ISO_8,2,5,56,103,1460045052
5715,7,Jits_ISO_8,3,5,63,98,1460074860
5715,7,Jits_ISO_8,0,5,63,98,1460735464
5715,7,Jits_ISO_8,1,5,80,127,1460784624
5715,7,Jits_ISO_8,2,5,56,103,1460805080
5715,7,Jits_ISO_8,3,1,48,38,1460807976
5715,7,Jits_ISO_8,0,1,48,43,1461552060
5715,7,Jits_ISO_8,1,5,80,127,1461575100
5715,7,Jits_ISO_8,2,5,56,103,1461604848
5715,7,Jits_ISO_8,3,5,63,98,1461607916
5715,7,Jits_ISO_8,0,1,48,44,1462336260
5715,7,Jits_ISO_8,1,5,63,98,1462404348
5715,7,Jits_ISO_8,2,5,56,103,1462445544
5715,7,Jits_ISO_8,3,5,80,127,1462464804
5715,7,Jits_ISO_8,0,5,80,127,1463144776
5715,7,Jits_ISO_8,1,1,48,36,1463161820
5715,7,Jits_ISO_8,2,5,63,98,1463224816
5715,7,Jits_ISO_8,3,5,56,103,1463264592
5715,7,Jits_ISO_8,0,5,63,98,1463964984
5715,7,Jits_ISO_8,1,1,48,40,1464025272
5715,7,Jits_ISO_8,2,5,80,127,1464044848
5715,7,Jits_ISO_8,3,5,56,103,1464065604
5715,7,Jits_ISO_8,0,1,48,43,1464768560
5715,7,Jits_ISO_8,1,5,56,103,1464804700
5715,7,Jits_ISO_8,2,5,63,98,1464815416
5715,7,Jits_ISO_8,3,5,80,127,1464854832
5715,7,Jits_ISO_8,0,5,56,103,1465524772
5715,7,Jits_ISO_8,1,5,80,127,1465527616
5715,7,Jits_ISO_8,2,1,48,40,1465548196
5715,7,Jits_ISO_8,3,5,63,98,1465664780
5715,7,Jits_ISO_8,0,5,56,103,1466315048
5715,7,Jits_ISO_8,1,1,48,42,1466336600
5715,7,Jits_ISO_8,2,5,63,98,1466405248
5715,7,Jits_ISO_8,3,5,80,127,1466474988
5715,7,Jits_ISO_8,0,1,48,41,1467150168
5715,7,Jits_ISO_8,1,5,63,98,1467194708
5715,7,Jits_ISO_8,2,5,80,127,1467198220
5715,7,Jits_ISO_8,3,5,56,103,1467255304
5715,7,Jits_ISO_8,0,1,48,40,1467962776
5715,7,Jits_ISO_8,1,5,80,127,1468034448
5715,7,Jits_ISO_8,2,5,56,103,1468055644
5715,7,Jits_ISO_8,3,5,63,98,1468065236
5715,7,Jits_ISO_8,0,5,56,103,1468745212
5715,7,Jits_ISO_8,1,5,63,98,1468755484
5715,7,Jits_ISO_8,2,1,48,39,1468806876
5715,7,Jits_ISO_8,3,5,80,127,1468824884
5715,7,Jits_ISO_8,0,5,80,127,1469544784
5715,7,Jits_ISO_8,1,1,48,35,1469574308
5715,7,Jits_ISO_8,2,5,56,103,1469594856
5715,7,Jits_ISO_8,3,5,63,98,1469645352
5715,7,Jits_ISO_8,0,1,48,31,1470349064
5715,7,Jits_ISO_8,1,5,56,103,1470424320
5715,7,Jits_ISO_8,2,5,63,98,1470434668
5715,7,Jits_ISO_8,3,5,80,127,1470474588
5715,7,Jits_ISO_8,0,5,56,103,1471164776
5715,7,Jits_ISO_8,1,1,48,42,1471165744
5715,7,Jits_ISO_8,2,5,63,98,1471204784
5715,7,Jits_ISO_8,3,5,80,127,1471255060
5715,7,Jits_ISO_8,0,5,80,127,1471924496
5715,7,Jits_ISO_8,1,1,48,41,1471964184
5715,7,Jits_ISO_8,2,5,56,103,1471974692
5715,7,Jits_ISO_8,3,5,63,98,1471995228
5715,7,Jits_ISO_8,0,5,80,127,1472734480
5715,7,Jits_ISO_8,1,1,48,38,1472765180
5715,7,Jits_ISO_8,2,5,63,98,1472795168
5715,7,Jits_ISO_8,3,5,56,103,1472874724
5715,7,Jits_ISO_8,0,5,80,127,1473514804
5715,7,Jits_ISO_8,1,5,56,103,1473554744
5715,7,Jits_ISO_8,2,5,63,98,1473575276
5715,7,Jits_ISO_8,3,1,48,34,1473585516
5715,7,Jits_ISO_8,0,1,48,35,1474348128
5715,7,Jits_ISO_8,1,5,56,103,1474364712
5715,7,Jits_ISO_8,2,5,80,127,1474375208
5715,7,Jits_ISO_8,3,5,63,98,1474415072
5715,7,Jits_ISO_8,0,1,48,40,1475136372
5715,7,Jits_ISO_8,1,5,56,103,1475235160
5715,7,Jits_ISO_8,2,5,63,98,1475275396
5715,7,Jits_ISO_8,3,5,80,127,1475278464
5715,7,Jits_ISO_8,0,5,63,98,1475925324
5715,7,Jits_ISO_8,1,1,48,39,1475958636
5715,7,Jits_ISO_8,2,5,80,127,1475965260
5715,7,Jits_ISO_8,3,5,56,103,1476035188
5715,7,Jits_ISO_8,0,5,63,98,1476715064
5715,7,Jits_ISO_8,1,1,48,43,1476756196
5715,7,Jits_ISO_8,2,5,56,103,1476794656
5715,7,Jits_ISO_8,3,5,80,127,1476855108
5715,7,Jits_ISO_8,0,5,80,127,1477525060
5715,7,Jits_ISO_8,1,1,48,45,1477540836
5715,7,Jits_ISO_8,2,5,63,98,1477575108
5715,7,Jits_ISO_8,3,5,56,103,1477604708
5715,7,Jits_ISO_8,0,5,56,103,1478315340
5715,7,Jits_ISO_8,1,5,63,98,1478364576
5715,7,Jits_ISO_8,2,5,80,127,1478374696
5715,7,Jits_ISO_8,3,1,48,35,1478376708
5715,7,Jits_ISO_8,0,5,56,103,1479125328
5715,7,Jits_ISO_8,1,1,48,37,1479133172
5715,7,Jits_ISO_8,2,5,63,98,1479235068
5715,7,Jits_ISO_8,3,5,80,127,1479255380
5715,7,Jits_ISO_8,0,5,63,98,1479925052
5715,7,Jits_ISO_8,1,5,80,127,1479975256
5715,7,Jits_ISO_8,2,1,48,40,1479995012
5715,7,Jits_ISO_8,3,5,56,103,1480065404
5715,7,Jits_ISO_8,0,5,63,98,1480714496
5715,7,Jits_ISO_8,1,5,80,127,1480745220
5715,7,Jits_ISO_8,2,1,48,36,1480787000
5715,7,Jits_ISO_8,3,5,56,103,1480834396
5715,7,Jits_ISO_8,0,5,63,98,1481515244
5715,7,Jits_ISO_8,1,5,56,103,1481524544
5715,7,Jits_ISO_8,2,1,48,45,1481555384
5715,7,Jits_ISO_8,3,5,80,127,1481625104
5715,7,Jits_ISO_8,0,1,48,39,1482342648
5715,7,Jits_ISO_8,1,5,63,98,1482414320
5715,7,Jits_ISO_8,2,5,80,127,1482445104
5715,7,Jits_ISO_8,3,5,56,103,1482475076
5715,7,Jits_ISO_8,0,1,48,37,1483167928
5715,7,Jits_ISO_8,1,5,80,127,1483234932
5715,7,Jits_ISO_8,2,5,63,98,1483245056
5715,7,Jits_ISO_8,3,5,56,103,1483274568
5715,7,Jits_ISO_8,0,5,80,127,1483935088
5715,7,Jits_ISO_8,1,5,63,98,1483954572
5715,7,Jits_ISO_8,2,5,56,103,1484004848
5715,7,Jits_ISO_8,3,1,48,39,1484025880
5715,7,Jits_ISO_8,0,1,48,45,1484749748
5715,7,Jits_ISO_8,1,5,63,98,1484764396
5715,7,Jits_ISO_8,2,5,80,127,1484824936
5715,7,Jits_ISO_8,3,5,56,103,1484845308
5715,7,Jits_ISO_8,0,5,63,98,1485525304
5715,7,Jits_ISO_8,1,1,48,40,1485564388
5715,7,Jits_ISO_8,2,5,56,103,1485574676
5715,7,Jits_ISO_8,3,5,80,127,1485584944
5715,7,Jits_ISO_8,0,1,48,44,1486346776
5715,7,Jits_ISO_8,1,5,56,103,1486355192
5715,7,Jits_ISO_8,2,5,80,127,1486365164
5715,7,Jits_ISO_8,3,5,63,98,1486465344
5715,7,Jits_ISO_8,0,5,80,127,1487114896
5715,7,Jits_ISO_8,1,5,63,98,1487124872
5715,7,Jits_ISO_8,2,1,48,45,1487173924
5715,7,Jits_ISO_8,3,5,56,103,1487275316
5715,7,Jits_ISO_8,0,5,63,98,1487924584
5715,7,Jits_ISO_8,1,5,80,127,1487964524
5715,7,Jits_ISO_8,2,1,48,42,1487980300
5715,7,Jits_ISO_8,3,5,56,103,1488045384
5715,7,Jits_ISO_8,0,5,56,103,1488715148
5715,7,Jits_ISO_8,1,1,48,43,1488769464
5715,7,Jits_ISO_8,2,5,80,127,1488814372
5715,7,Jits_ISO_8,3,5,63,98,1488834904
5715,7,Jits_ISO_8,0,5,80,127,1489575212
5715,7,Jits_ISO_8,1,5,56,103,1489584364
5715,7,Jits_ISO_8,2,1,48,37,1489601560
5715,7,Jits_ISO_8,3,5,63,98,1489674784
5715,7,Jits_ISO_8,0,5,56,103,1490374940
5715,7,Jits_ISO_8,1,5,63,98,1490394576
5715,7,Jits_ISO_8,2,1,48,39,1490397620
5715,7,Jits_ISO_8,3,5,80,127,1490475336
5715,7,Jits_ISO_8,0,5,63,98,1491124688
5715,7,Jits_ISO_8,1,1,48,42,1491170132
5715,7,Jits_ISO_8,2,5,56,103,1491214816
5715,7,Jits_ISO_8,3,5,80,127,1491217812
5715,7,Jits_ISO_8,0,1,48,37,1491952988
5715,7,Jits_ISO_8,1,5,56,103,1491954952
5715,7,Jits_ISO_8,2,5,80,127,1492014444
5715,7,Jits_ISO_8,3,5,63,98,1492024864
5715,7,Jits_ISO_8,0,1,48,39,1492724744
5715,7,Jits_ISO_8,1,5,80,127,1492804936
5715,7,Jits_ISO_8,2,5,56,103,1492815204
5715,7,Jits_ISO_8,3,5,63,98,1492818420
5715,7,Jits_ISO_8,0,1,48,35,1493545352
5715,7,Jits_ISO_8,1,5,56,103,1493565004
5715,7,Jits_ISO_8,2,5,80,127,1493574904
5715,7,Jits_ISO_8,3,5,63,98,1493594612
5715,7,Jits_ISO_8,0,5,63,98,1494334972
5715,7,Jits_ISO_8,1,1,48,41,1494339064
5715,7,Jits_ISO_8,2,5,80,127,1494395136
5715,7,Jits_ISO_8,3,5,56,103,1494445348
5715,7,Jits_ISO_8,0,1,48,39,1495156756
5715,7,Jits_ISO_8,1,5,63,98,1495214572
5715,7,Jits_ISO_8,2,5,56,103,1495224768
5715,7,Jits_ISO_8,3,5,80,127,1495274956
5715,7,Jits_ISO_8,0,5,63,98,1495914992
5715,7,Jits_ISO_8,1,5,80,127,1495935544
5715,7,Jits_ISO_8,2,5,56,103,1495944620
5715,7,Jits_ISO_8,3,1,48,40,1495990288
5715,7,Jits_ISO_8,0,5,63,98,1496714708
5715,7,Jits_ISO_8,1,5,80,127,1496717924
5715,7,Jits_ISO_8,2,5,56,103,1496754796
5715,7,Jits_ISO_8,3,1,48,38,1496779712
5715,7,Jits_ISO_8,0,1,48,35,1497544192
5715,7,Jits_ISO_8,1,5,63,98,1497584972
5715,7,Jits_ISO_8,2,5,80,127,1497614800
5715,7,Jits_ISO_8,3,5,56,103,1497624920
5715,7,Jits_ISO_8,0,5,56,103,1498334716
5715,7,Jits_ISO_8,1,5,80,127,1498365440
5715,7,Jits_ISO_8,2,1,48,37,1498378000
5715,7,Jits_ISO_8,3,5,63,98,1498394884
5715,7,Jits_ISO_8,0,1,48,40,1499178236
5715,7,Jits_ISO_8,1,5,63,98,1499234608
5715,7,Jits_ISO_8,2,5,56,103,1499274632
5715,7,Jits_ISO_8,3,5,80,127,1499277772
5715,7,Jits_ISO_8,0,5,80,127,1499935048
5715,7,Jits_ISO_8,1,1,48,36,1499984848
5715,7,Jits_ISO_8,2,5,56,103,1500014916
5715,7,Jits_ISO_8,3,5,63,98,1500065216
5715,7,Jits_ISO_8,0,5,80,127,1500715668
5715,7,Jits_ISO_8,1,5,56,103,1500734784
5715,7,Jits_ISO_8,2,1,48,35,1500813076
5715,7,Jits_ISO_8,3,5,63,98,1500824932
5715,7,Jits_ISO_8,0,5,80,127,1501555024
5715,7,Jits_ISO_8,1,1,48,37,1501574128
5715,7,Jits_ISO_8,2,5,63,98,1501594980
5715,7,Jits_ISO_8,3,5,56,103,1501634920
5715,7,Jits_ISO_8,0,5,63,98,1502325080
5715,7,Jits_ISO_8,1,1,48,38,1502343664
5715,7,Jits_ISO_8,2,5,80,127,1502384668
5715,7,Jits_ISO_8,3,5,56,103,1502415164
5715,7,Jits_ISO_8,0,5,56,103,1503124812
5715,7,Jits_ISO_8,1,1,48,37,1503140964
5715,7,Jits_ISO_8,2,5,80,127,1503154704
5715,7,Jits_ISO_8,3,5,63,98,1503244676
5715,7,Jits_ISO_8,0,5,56,103,1503934800
5715,7,Jits_ISO_8,1,1,48,38,1503940836
5715,7,Jits_ISO_8,2,5,80,127,1504045516
5715,7,Jits_ISO_8,3,5,63,98,1504075044
5715,7,Jits_ISO_8,0,1,48,41,1504765220
5715,7,Jits_ISO_8,1,5,56,103,1504784724
5715,7,Jits_ISO_8,2,5,63,98,1504845116
5715,7,Jits_ISO_8,3,5,80,127,1504874924
5715,7,Jits_ISO_8,0,5,56,103,1505554700
5715,7,Jits_ISO_8,1,1,48,39,1505572124
5715,7,Jits_ISO_8,2,5,63,98,1505624676
5715,7,Jits_ISO_8,3,5,80,127,1505644912
5715,7,Jits_ISO_8,0,5,80,127,1506324832
5715,7,Jits_ISO_8,1,5,63,98,1506345516
5715,7,Jits_ISO_8,2,1,48,41,1506365948
5715,7,Jits_ISO_8,3,5,56,103,1506394664
5715,7,Jits_ISO_8,0,9999,9999,9999,1411592284
5715,7,Jits_ISO_8,1,9999,9999,9999,1412393032
5715,7,Jits_ISO_8,2,9999,9999,9999,1413192828
5715,7,Jits_ISO_8,3,9999,9999,9999,1413992548
5715,7,Jits_ISO_8,4,9999,9999,9999,1414792264
5715,7,Jits_ISO_8,5,9999,9999,9999,1415593076
5715,7,Jits_ISO_8,6,9999,9999,9999,1416392800
5715,7,Jits_ISO_8,7,9999,9999,9999,1417192524
5715,7,Jits_ISO_8,8,9999,9999,9999,1417992316
5715,7,Jits_ISO_8,9,9999,9999,9999,1418793036
5715,7,Jits_ISO_8,10,9999,9999,9999,1419592772
5715,7,Jits_ISO_8,11,9999,9999,9999,1420392560
5715,7,Jits_ISO_8,12,9999,9999,9999,1421192300
5715,7,Jits_ISO_8,13,9999,9999,9999,1421993056
5715,7,Jits_ISO_8,14,9999,9999,9999,1422792828
5715,7,Jits_ISO_8,15,9999,9999,9999,1423592524
5715,7,Jits_ISO_8,16,9999,9999,9999,1424392292
5715,7,Jits_ISO_8,17,9999,9999,9999,1425193068
5715,7,Jits_ISO_8,18,9999,9999,9999,1425992784
5715,7,Jits_ISO_8,19,9999,9999,9999,1426792544
5715,7,Jits_ISO_8,20,9999,9999,9999,1427592280
5715,7,Jits_ISO_8,21,9999,9999,9999,1428393052
5715,7,Jits_ISO_8,22,9999,9999,9999,1429192768
5715,7,Jits_ISO_8,23,9999,9999,9999,1429992552
5715,7,Jits_ISO_8,24,9999,9999,9999,1430792260
5715,7,Jits_ISO_8,25,9999,9999,9999,1431593012
5715,7,Jits_ISO_8,26,9999,9999,9999,1432392800
5715,7,Jits_ISO_8,27,9999,9999,9999,1433192564
5715,7,Jits_ISO_8,28,9999,9999,9999,1433992260
5715,7,Jits_ISO_8,29,9999,9999,9999,1434793040
5715,7,Jits_ISO_8,30,9999,9999,9999,1435592796
5715,7,Jits_ISO_8,31,9999,9999,9999,1436392528
5715,7,Jits_ISO_8,32,9999,9999,9999,1437192308
5715,7,Jits_ISO_8,33,9999,9999,9999,1437993072
5715,7,Jits_ISO_8,34,9999,9999,9999,1438792796
5715,7,Jits_ISO_8,35,9999,9999,9999,1439592512
5715,7,Jits_ISO_8,36,9999,9999,9999,1440392256
5715,7,Jits_ISO_8,37,9999,9999,9999,1441193012
5715,7,Jits_ISO_8,38,9999,9999,9999,1441992804
5715,7,Jits_ISO_8,39,9999,9999,9999,1442792532
5715,7,Jits_ISO_8,40,9999,9999,9999,1443592256
5715,7,Jits_ISO_8,41,9999,9999,9999,1444393024
5715,7,Jits_ISO_8,42,9999,9999,9999,1445192804
5715,7,Jits_ISO_8,43,9999,9999,9999,1445992504
5715,7,Jits_ISO_8,44,9999,9999,9999,1446792296
5715,7,Jits_ISO_8,45,9999,9999,9999,1447593052
5715,7,Jits_ISO_8,46,9999,9999,9999,1448392776
5715,7,Jits_ISO_8,47,9999,9999,9999,1449192572
5715,7,Jits_ISO_8,48,9999,9999,9999,1449992296
5715,7,Jits_ISO_8,49,9999,9999,9999,1450793064
5715,7,Jits_ISO_8,50,9999,9999,9999,1451592768
5715,7,Jits_ISO_8,51,9999,9999,9999,1452392552
5715,7,Jits_ISO_8,52,9999,9999,9999,1453192304
5715,7,Jits_ISO_8,53,9999,9999,9999,1453993084
5715,7,Jits_ISO_8,54,9999,9999,9999,1454792800
5715,7,Jits_ISO_8,55,9999,9999,9999,1455592524
5715,7,Jits_ISO_8,56,9999,9999,9999,1456392308
5715,7,Jits_ISO_8,57,9999,9999,9999,1457193064
5715,7,Jits_ISO_8,58,9999,9999,9999,1457992788
5715,7,Jits_ISO_8,59,9999,9999,9999,1458792512
5715,7,Jits_ISO_8,60,9999,9999,9999,1459592256
5715,7,Jits_ISO_8,61,9999,9999,9999,1460393032
5715,7,Jits_ISO_8,62,9999,9999,9999,1461192824
5715,7,Jits_ISO_8,63,9999,9999,9999,1461992528
5715,7,Jits_ISO_8,64,9999,9999,9999,1462792316
5715,7,Jits_ISO_8,65,9999,9999,9999,1463593072
5715,7,Jits_ISO_8,66,9999,9999,9999,1464392804
5715,7,Jits_ISO_8,67,9999,9999,9999,1465192516
5715,7,Jits_ISO_8,68,9999,9999,9999,1465992316
5715,7,Jits_ISO_8,69,9999,9999,9999,1466793012
5715,7,Jits_ISO_8,70,9999,9999,9999,1467592804
5715,7,Jits_ISO_8,71,9999,9999,9999,1468392524
5715,7,Jits_ISO_8,72,9999,9999,9999,1469192308
5715,7,Jits_ISO_8,73,9999,9999,9999,1469993080
5715,7,Jits_ISO_8,74,9999,9999,9999,1470792812
5715,7,Jits_ISO_8,75,9999,9999,9999,1471592520
5715,7,Jits_ISO_8,76,9999,9999,9999,1472392268
5715,7,Jits_ISO_8,77,9999,9999,9999,1473193044
5715,7,Jits_ISO_8,78,9999,9999,9999,1473992764
5715,7,Jits_ISO_8,79,9999,9999,9999,1474792560
5715,7,Jits_ISO_8,80,9999,9999,9999,1475592272
5715,7,Jits_ISO_8,81,9999,9999,9999,1476393024
5715,7,Jits_ISO_8,82,9999,9999,9999,1477192804
5715,7,Jits_ISO_8,83,9999,9999,9999,1477992512
5715,7,Jits_ISO_8,84,9999,9999,9999,1478792256
5715,7,Jits_ISO_8,85,9999,9999,9999,1479593032
5715,7,Jits_ISO_8,86,9999,9999,9999,1480392828
5715,7,Jits_ISO_8,87,9999,9999,9999,1481192532
5715,7,Jits_ISO_8,88,9999,9999,9999,1481992308
5715,7,Jits_ISO_8,89,9999,9999,9999,1482793072
5715,7,Jits_ISO_8,90,9999,9999,9999,1483592788
5715,7,Jits_ISO_8,91,9999,9999,9999,1484392572
5715,7,Jits_ISO_8,92,9999,9999,9999,1485192248
5715,7,Jits_ISO_8,93,9999,9999,9999,1485993072
5715,7,Jits_ISO_8,94,9999,9999,9999,1486792780
5715,7,Jits_ISO_8,95,9999,9999,9999,1487592564
5715,7,Jits_ISO_8,96,9999,9999,9999,1488392284
5715,7,Jits_ISO_8,97,9999,9999,9999,1489193040
5715,7,Jits_ISO_8,98,9999,9999,9999,1489992768
5715,7,Jits_ISO_8,99,9999,9999,9999,1490792568
5715,7,Jits_ISO_8,100,9999,9999,9999,1491592308
5715,7,Jits_ISO_8,101,9999,9999,9999,1492393064
5715,7,Jits_ISO_8,102,9999,9999,9999,1493192768
5715,7,Jits_ISO_8,103,9999,9999,9999,1493992552
5715,7,Jits_ISO_8,104,9999,9999,9999,1494792264
5715,7,Jits_ISO_8,105,9999,9999,9999,1495593028
5715,7,Jits_ISO_8,106,9999,9999,9999,1496392796
5715,7,Jits_ISO_8,107,9999,9999,9999,1497192560
5715,7,Jits_ISO_8,108,9999,9999,9999,1497992296
5715,7,Jits_ISO_8,109,9999,9999,9999,1498793052
5715,7,Jits_ISO_8,110,9999,9999,9999,1499592776
5715,7,Jits_ISO_8,111,9999,9999,9999,1500392564
5715,7,Jits_ISO_8,112,9999,9999,9999,1501192284
5715,7,Jits_ISO_8,113,9999,9999,9999,1501993056
5715,7,Jits_ISO_8,114,9999,9999,9999,1502792780
5715,7,Jits_ISO_8,115,9999,9999,9999,1503592560
5715,7,Jits_ISO_8,116,9999,9999,9999,1504392316
5715,7,Jits_ISO_8,117,9999,9999,9999,1505193020
5715,7,Jits_ISO_8,118,9999,9999,9999,1505992808
5715,7,Jits_ISO_8,119,9999,9999,9999,1506792532
5716,19,Jits_Linear_5,0,5,56,103,1515701684
5716,19,Jits_Linear_5,1,5,63,98,1515704632
5716,19,Jits_Linear_5,2,5,80,127,1515707680
5716,19,Jits_Linear_5,0,5,56,103,1516181920
5716,19,Jits_Linear_5,1,5,63,98,1516185016
5716,19,Jits_Linear_5,2,5,80,127,1516188288
5716,19,Jits_Linear_5,0,5,56,103,1516662520
5716,19,Jits_Linear_5,1,5,80,127,1516672296
5716,19,Jits_Linear_5,2,5,63,98,1516691932
5716,19,Jits_Linear_5,0,5,63,98,1517092428
5716,19,Jits_Linear_5,1,5,80,127,1517121884
5716,19,Jits_Linear_5,2,5,56,103,1517132152
5716,19,Jits_Linear_5,0,1,48,37,1517627248
5716,19,Jits_Linear_5,1,5,80,127,1517631928
5716,19,Jits_Linear_5,2,5,56,103,1517642276
5716,19,Jits_Linear_5,3,5,63,98,1517671728
5716,19,Jits_Linear_5,0,5,63,98,1518112372
5716,19,Jits_Linear_5,1,5,56,103,1518141976
5716,19,Jits_Linear_5,2,1,48,40,1518150820
5716,19,Jits_Linear_5,3,5,80,127,1518152388
5716,19,Jits_Linear_5,0,5,56,103,1518552428
5716,19,Jits_Linear_5,1,5,63,98,1518601732
5716,19,Jits_Linear_5,2,5,80,127,1518622116
5716,19,Jits_Linear_5,3,1,48,43,1518651912
5716,19,Jits_Linear_5,0,5,80,127,1519042236
5716,19,Jits_Linear_5,1,5,63,98,1519092216
5716,19,Jits_Linear_5,2,5,56,103,1519132156
5716,19,Jits_Linear_5,3,1,48,39,1519139168
5716,19,Jits_Linear_5,0,5,56,103,1519532280
5716,19,Jits_Linear_5,1,5,63,98,1519562180
5716,19,Jits_Linear_5,2,5,80,127,1519631864
5716,19,Jits_Linear_5,3,1,48,43,1519634460
5716,19,Jits_Linear_5,0,5,56,103,1520021868
5716,19,Jits_Linear_5,1,5,80,127,1520082188
5716,19,Jits_Linear_5,2,5,63,98,1520112236
5716,19,Jits_Linear_5,3,1,48,40,1520129900
5716,19,Jits_Linear_5,0,5,56,103,1520521504
5716,19,Jits_Linear_5,1,5,63,98,1520531700
5716,19,Jits_Linear_5,2,5,80,127,1520571712
5716,19,Jits_Linear_5,3,1,48,43,1520618272
5716,19,Jits_Linear_5,0,5,63,98,1521012108
5716,19,Jits_Linear_5,1,5,80,127,1521091932
5716,19,Jits_Linear_5,2,5,56,103,1521102352
5716,19,Jits_Linear_5,3,1,48,46,1521114088
5716,19,Jits_Linear_5,0,5,63,98,1521562024
5716,19,Jits_Linear_5,1,5,56,103,1521602108
5716,19,Jits_Linear_5,2,5,80,127,1521605104
5716,19,Jits_Linear_5,3,1,48,45,1521615344
5716,19,Jits_Linear_5,0,5,56,103,1522021672
5716,19,Jits_Linear_5,1,5,63,98,1522032088
5716,19,Jits_Linear_5,2,5,80,127,1522071980
5716,19,Jits_Linear_5,3,1,48,42,1522114880
5716,19,Jits_Linear_5,0,5,56,103,1522512372
5716,19,Jits_Linear_5,1,5,63,98,1522515368
5716,19,Jits_Linear_5,2,5,80,127,1522531640
5716,19,Jits_Linear_5,3,1,48,45,1522608268
5716,19,Jits_Linear_5,0,5,80,127,1523032440
5716,19,Jits_Linear_5,1,5,56,103,1523041588
5716,19,Jits_Linear_5,2,1,48,43,1523111816
5716,19,Jits_Linear_5,3,5,63,98,1523113384
5716,19,Jits_Linear_5,0,5,63,98,1523532136
5716,19,Jits_Linear_5,1,5,56,103,1523551548
5716,19,Jits_Linear_5,2,1,48,43,1523605788
5716,19,Jits_Linear_5,3,5,80,127,1523631588
5716,19,Jits_Linear_5,0,5,56,103,1524052272
5716,19,Jits_Linear_5,1,5,80,127,1524092212
5716,19,Jits_Linear_5,2,5,63,98,1524101460
5716,19,Jits_Linear_5,3,1,48,42,1524104356
5716,19,Jits_Linear_5,0,5,80,127,1524552188
5716,19,Jits_Linear_5,1,5,63,98,1524581868
5716,19,Jits_Linear_5,2,1,48,46,1524606288
5716,19,Jits_Linear_5,3,5,56,103,1524621600
5716,19,Jits_Linear_5,0,5,56,103,1525081336
5716,19,Jits_Linear_5,1,1,48,45,1525108344
5716,19,Jits_Linear_5,2,5,63,98,1525112128
5716,19,Jits_Linear_5,3,5,80,127,1525162428
5716,19,Jits_Linear_5,0,5,80,127,1525592428
5716,19,Jits_Linear_5,1,1,48,41,1525618988
5716,19,Jits_Linear_5,2,5,56,103,1525632236
5716,19,Jits_Linear_5,3,5,63,98,1525641460
5716,19,Jits_Linear_5,0,5,80,127,1526092048
5716,19,Jits_Linear_5,1,5,63,98,1526132064
5716,19,Jits_Linear_5,2,1,48,41,1526133328
5716,19,Jits_Linear_5,3,5,56,103,1526191428
5716,19,Jits_Linear_5,0,5,56,103,1526621424
5716,19,Jits_Linear_5,1,5,80,127,1526631916
5716,19,Jits_Linear_5,2,1,48,41,1526652272
5716,19,Jits_Linear_5,3,5,63,98,1526711656
5716,19,Jits_Linear_5,0,5,80,127,1527141876
5716,19,Jits_Linear_5,1,1,48,38,1527147088
5716,19,Jits_Linear_5,2,5,63,98,1527202136
5716,19,Jits_Linear_5,3,5,56,103,1527232036
5716,19,Jits_Linear_5,0,5,56,103,1527661880
5716,19,Jits_Linear_5,1,1,48,46,1527677136
5716,19,Jits_Linear_5,2,5,80,127,1527722344
5716,19,Jits_Linear_5,3,5,63,98,1527762208
5716,19,Jits_Linear_5,0,1,48,46,1528177176
5716,19,Jits_Linear_5,1,5,56,103,1528241600
5716,19,Jits_Linear_5,2,5,63,98,1528252168
5716,19,Jits_Linear_5,3,5,80,127,1528255304
5716,19,Jits_Linear_5,0,1,48,43,1528691852
5716,19,Jits_Linear_5,1,5,80,127,1528721944
5716,19,Jits_Linear_5,2,5,63,98,1528812068
5716,19,Jits_Linear_5,3,5,56,103,1528822040
5716,19,Jits_Linear_5,0,1,48,41,1529218600
5716,19,Jits_Linear_5,1,5,56,103,1529252336
5716,19,Jits_Linear_5,2,5,63,98,1529255284
5716,19,Jits_Linear_5,3,5,80,127,1529258480
5716,19,Jits_Linear_5,0,1,48,42,1529729144
5716,19,Jits_Linear_5,1,5,80,127,1529802064
5716,19,Jits_Linear_5,2,5,63,98,1529852256
5716,19,Jits_Linear_5,3,5,56,103,1529882080
5716,19,Jits_Linear_5,0,1,48,43,1530247624
5716,19,Jits_Linear_5,1,5,56,103,1530312168
5716,19,Jits_Linear_5,2,5,80,127,1530322140
5716,19,Jits_Linear_5,3,5,63,98,1530391956
5716,19,Jits_Linear_5,0,1,48,40,1530828080
5716,19,Jits_Linear_5,1,5,56,103,1530851644
5716,19,Jits_Linear_5,2,5,63,98,1530872252
5716,19,Jits_Linear_5,3,5,80,127,1530931504
5716,19,Jits_Linear_5,0,5,80,127,1531382276
5716,19,Jits_Linear_5,1,1,48,43,1531389508
5716,19,Jits_Linear_5,2,5,63,98,1531451880
5716,19,Jits_Linear_5,3,5,56,103,1531472192
5716,19,Jits_Linear_5,0,5,80,127,1531942220
5716,19,Jits_Linear_5,1,5,56,103,1531951368
5716,19,Jits_Linear_5,2,5,63,98,1531961864
5716,19,Jits_Linear_5,3,1,48,48,1531972632
5716,19,Jits_Linear_5,0,5,80,127,1532471888
5716,19,Jits_Linear_5,1,5,56,103,1532492124
5716,19,Jits_Linear_5,2,1,48,47,1532536896
5716,19,Jits_Linear_5,3,5,63,98,1532562048
5716,19,Jits_Linear_5,0,5,56,103,1533021564
5716,19,Jits_Linear_5,1,5,80,127,1533052288
5716,19,Jits_Linear_5,2,5,63,98,1533072024
5716,19,Jits_Linear_5,3,1,48,42,1533095220
5716,19,Jits_Linear_5,0,5,63,98,1533562176
5716,19,Jits_Linear_5,1,5,56,103,1533621992
5716,19,Jits_Linear_5,2,1,48,43,1533642124
5716,19,Jits_Linear_5,3,5,80,127,1533652188
5716,19,Jits_Linear_5,0,5,63,98,1534101896
5716,19,Jits_Linear_5,1,5,80,127,1534105036
5716,19,Jits_Linear_5,2,1,48,43,1534175364
5716,19,Jits_Linear_5,3,5,56,103,1534192168
5716,19,Jits_Linear_5,0,5,56,103,1534672148
5716,19,Jits_Linear_5,1,5,63,98,1534701976
5716,19,Jits_Linear_5,2,1,48,45,1534705844
5716,19,Jits_Linear_5,3,5,80,127,1534741984
5716,19,Jits_Linear_5,0,5,63,98,1535222128
5716,19,Jits_Linear_5,1,1,48,45,1535256860
5716,19,Jits_Linear_5,2,5,56,103,1535262060
5716,19,Jits_Linear_5,3,5,80,127,1535281400
5716,19,Jits_Linear_5,0,5,63,98,1535782204
5716,19,Jits_Linear_5,1,1,48,45,1535791096
5716,19,Jits_Linear_5,2,5,56,103,1535822064
5716,19,Jits_Linear_5,3,5,80,127,1535832408
5716,19,Jits_Linear_5,0,5,80,127,1536311936
5716,19,Jits_Linear_5,1,1,48,43,1536347044
5716,19,Jits_Linear_5,2,5,63,98,1536382388
5716,19,Jits_Linear_5,3,5,56,103,1536401728
5716,19,Jits_Linear_5,0,5,56,103,1536861680
5716,19,Jits_Linear_5,1,5,80,127,1536882140
5716,19,Jits_Linear_5,2,5,63,98,1536921884
5716,19,Jits_Linear_5,3,1,48,44,1536923896
5716,19,Jits_Linear_5,0,5,63,98,1537431904
5716,19,Jits_Linear_5,1,5,80,127,1537452292
5716,19,Jits_Linear_5,2,1,48,40,1537470248
5716,19,Jits_Linear_5,3,5,56,103,1537492224
5716,19,Jits_Linear_5,0,5,63,98,1538002240
5716,19,Jits_Linear_5,1,1,48,36,1538018468
5716,19,Jits_Linear_5,2,5,56,103,1538021720
5716,19,Jits_Linear_5,3,5,80,127,1538032068
5716,19,Jits_Linear_5,0,5,80,127,1538562312
5716,19,Jits_Linear_5,1,5,56,103,1538581796
5716,19,Jits_Linear_5,2,1,48,38,1538586336
5716,19,Jits_Linear_5,3,5,63,98,1538611540
5716,19,Jits_Linear_5,0,1,48,38,1539143416
5716,19,Jits_Linear_5,1,5,56,103,1539202356
5716,19,Jits_Linear_5,2,5,80,127,1539205424
5716,19,Jits_Linear_5,3,5,63,98,1539221916
5716,19,Jits_Linear_5,0,5,63,98,1539691824
5716,19,Jits_Linear_5,1,1,48,41,1539719156
5716,19,Jits_Linear_5,2,5,56,103,1539721668
5716,19,Jits_Linear_5,3,5,80,127,1539781988
5716,19,Jits_Linear_5,0,1,48,43,1540264848
5716,19,Jits_Linear_5,1,5,63,98,1540342200
5716,19,Jits_Linear_5,2,5,56,103,1540352396
5716,19,Jits_Linear_5,3,5,80,127,1540361548
5716,19,Jits_Linear_5,0,1,48,40,1540848972
5716,19,Jits_Linear_5,1,5,56,103,1540862344
5716,19,Jits_Linear_5,2,5,80,127,1540892020
5716,19,Jits_Linear_5,3,5,63,98,1540902364
5716,19,Jits_Linear_5,0,1,48,45,1541412204
5716,19,Jits_Linear_5,1,5,63,98,1541471572
5716,19,Jits_Linear_5,2,5,56,103,1541481692
5716,19,Jits_Linear_5,3,5,80,127,1541502400
5716,19,Jits_Linear_5,0,5,56,103,1541972756
5716,19,Jits_Linear_5,1,1,48,45,1541998800
5716,19,Jits_Linear_5,2,5,63,98,1542031748
5716,19,Jits_Linear_5,3,5,80,127,1542035112
5716,19,Jits_Linear_5,0,1,48,41,1542546688
5716,19,Jits_Linear_5,1,5,80,127,1542572564
5716,19,Jits_Linear_5,2,5,56,103,1542581864
5716,19,Jits_Linear_5,3,5,63,98,1542652352
5716,19,Jits_Linear_5,0,1,48,39,1543130224
5716,19,Jits_Linear_5,1,5,80,127,1543141704
5716,19,Jits_Linear_5,2,5,56,103,1543212512
5716,19,Jits_Linear_5,3,5,63,98,1543221660
5716,19,Jits_Linear_5,0,1,48,39,1543726324
5716,19,Jits_Linear_5,1,5,63,98,1543762172
5716,19,Jits_Linear_5,2,5,56,103,1543771768
5716,19,Jits_Linear_5,3,5,80,127,1543792004
5716,19,Jits_Linear_5,0,5,80,127,1544291752
5716,19,Jits_Linear_5,1,1,48,37,1544311356
5716,19,Jits_Linear_5,2,5,63,98,1544352088
5716,19,Jits_Linear_5,3,5,56,103,1544392100
5716,19,Jits_Linear_5,0,1,48,43,1544899096
5716,19,Jits_Linear_5,1,5,56,103,1544921536
5716,19,Jits_Linear_5,2,5,63,98,1544931808
5716,19,Jits_Linear_5,3,5,80,127,1544971672
5716,19,Jits_Linear_5,0,5,56,103,1545472552
5716,19,Jits_Linear_5,1,1,48,36,1545487732
5716,19,Jits_Linear_5,2,5,80,127,1545502072
5716,19,Jits_Linear_5,3,5,63,98,1545552200
5716,19,Jits_Linear_5,0,1,48,39,1546052616
5716,19,Jits_Linear_5,1,5,56,103,1546102160
5716,19,Jits_Linear_5,2,5,63,98,1546141972
5716,19,Jits_Linear_5,3,5,80,127,1546145492
5716,19,Jits_Linear_5,0,1,48,38,1546626484
5716,19,Jits_Linear_5,1,5,56,103,1546692000
5716,19,Jits_Linear_5,2,5,63,98,1546702124
5716,19,Jits_Linear_5,3,5,80,127,1546721520
5716,19,Jits_Linear_5,0,1,48,38,1547205968
5716,19,Jits_Linear_5,1,5,56,103,1547241884
5716,19,Jits_Linear_5,2,5,80,127,1547244952
5716,19,Jits_Linear_5,3,5,63,98,1547281748
5716,19,Jits_Linear_5,0,1,48,37,1547804016
5716,19,Jits_Linear_5,1,5,63,98,1547871476
5716,19,Jits_Linear_5,2,5,56,103,1547902432
5716,19,Jits_Linear_5,3,5,80,127,1547921700
5716,19,Jits_Linear_5,0,1,48,37,1548417380
5716,19,Jits_Linear_5,1,5,80,127,1548441988
5716,19,Jits_Linear_5,2,5,56,103,1548452336
5716,19,Jits_Linear_5,3,5,63,98,1548461932
5716,19,Jits_Linear_5,0,1,48,32,1548995356
5716,19,Jits_Linear_5,1,5,56,103,1549041988
5716,19,Jits_Linear_5,2,5,80,127,1549081932
5716,19,Jits_Linear_5,3,5,63,98,1549111516
5716,19,Jits_Linear_5,0,1,48,35,1549611776
5716,19,Jits_Linear_5,1,5,63,98,1549652484
5716,19,Jits_Linear_5,2,5,80,127,1549661708
5716,19,Jits_Linear_5,3,5,56,103,1549671680
5716,19,Jits_Linear_5,0,5,56,103,1550231916
5716,19,Jits_Linear_5,1,1,48,32,1550244032
5716,19,Jits_Linear_5,2,5,63,98,1550301672
5716,19,Jits_Linear_5,3,5,80,127,1550311868
5716,19,Jits_Linear_5,0,1,48,36,1550838492
5716,19,Jits_Linear_5,1,5,80,127,1550842272
5716,19,Jits_Linear_5,2,5,56,103,1550851648
5716,19,Jits_Linear_5,3,5,63,98,1550901700
5716,19,Jits_Linear_5,0,1,48,35,1551461764
5716,19,Jits_Linear_5,1,5,80,127,1551463180
5716,19,Jits_Linear_5,2,5,56,103,1551522104
5716,19,Jits_Linear_5,3,5,63,98,1551551852
5716,19,Jits_Linear_5,0,5,56,103,1552082400
5716,19,Jits_Linear_5,1,5,80,127,1552085316
5716,19,Jits_Linear_5,2,1,48,39,1552091444
5716,19,Jits_Linear_5,3,5,63,98,1552122404
5716,19,Jits_Linear_5,0,5,56,103,1552722416
5716,19,Jits_Linear_5,1,1,48,42,1552728604
5716,19,Jits_Linear_5,2,5,63,98,1552751944
5716,19,Jits_Linear_5,3,5,80,127,1552762364
5716,19,Jits_Linear_5,0,5,63,98,1553341728
5716,19,Jits_Linear_5,1,5,80,127,1553351924
5716,19,Jits_Linear_5,2,1,48,40,1553361364
5716,19,Jits_Linear_5,3,5,56,103,1553362928
5716,19,Jits_Linear_5,0,5,80,127,1553901872
5716,19,Jits_Linear_5,1,5,56,103,1553952076
5716,19,Jits_Linear_5,2,5,63,98,1553955364
5716,19,Jits_Linear_5,3,1,48,39,1553966876
5716,19,Jits_Linear_5,0,5,56,103,1554552380
5716,19,Jits_Linear_5,1,5,80,127,1554571744
5716,19,Jits_Linear_5,2,5,63,98,1554582012
5716,19,Jits_Linear_5,3,1,48,43,1554585576
5716,19,Jits_Linear_5,0,5,63,98,1555152424
5716,19,Jits_Linear_5,1,5,56,103,1555182024
5716,19,Jits_Linear_5,2,1,48,38,1555186264
5716,19,Jits_Linear_5,3,5,80,127,1555202404
5716,19,Jits_Linear_5,0,1,48,38,1555777940
5716,19,Jits_Linear_5,1,5,56,103,1555782092
5716,19,Jits_Linear_5,2,5,80,127,1555792440
5716,19,Jits_Linear_5,3,5,63,98,1555861772
5716,19,Jits_Linear_5,0,1,48,41,1556387408
5716,19,Jits_Linear_5,1,5,63,98,1556392240
5716,19,Jits_Linear_5,2,5,80,127,1556432476
5716,19,Jits_Linear_5,3,5,56,103,1556472268
5716,19,Jits_Linear_5,0,1,48,39,1556998128
5716,19,Jits_Linear_5,1,5,56,103,1557032404
5716,19,Jits_Linear_5,2,5,63,98,1557041480
5716,19,Jits_Linear_5,3,5,80,127,1557061864
5716,19,Jits_Linear_5,0,1,48,37,1557620924
5716,19,Jits_Linear_5,1,5,63,98,1557702264
5716,19,Jits_Linear_5,2,5,80,127,1557721512
5716,19,Jits_Linear_5,3,5,56,103,1557741824
5716,19,Jits_Linear_5,0,5,56,103,1558272312
5716,19,Jits_Linear_5,1,1,48,36,1558280236
5716,19,Jits_Linear_5,2,5,80,127,1558352328
5716,19,Jits_Linear_5,3,5,63,98,1558361624
5716,19,Jits_Linear_5,0,1,48,39,1558940832
5716,19,Jits_Linear_5,1,5,80,127,1558942400
5716,19,Jits_Linear_5,2,5,63,98,1558952300
5716,19,Jits_Linear_5,3,5,56,103,1558981904
5716,19,Jits_Linear_5,0,5,63,98,1559531924
5716,19,Jits_Linear_5,1,5,80,127,1559571792
5716,19,Jits_Linear_5,2,1,48,32,1559627804
5716,19,Jits_Linear_5,3,5,56,103,1559632548
5716,19,Jits_Linear_5,0,5,63,98,1560171796
5716,19,Jits_Linear_5,1,5,56,103,1560222248
5716,19,Jits_Linear_5,2,5,80,127,1560251776
5716,19,Jits_Linear_5,3,1,48,36,1560267104
5716,19,Jits_Linear_5,0,5,80,127,1560822544
5716,19,Jits_Linear_5,1,5,63,98,1560832296
5716,19,Jits_Linear_5,2,1,48,32,1560900308
5716,19,Jits_Linear_5,3,5,56,103,1560901972
5716,19,Jits_Linear_5,0,1,48,30,1561524384
5716,19,Jits_Linear_5,1,5,80,127,1561531752
5716,19,Jits_Linear_5,2,5,56,103,1561542168
5716,19,Jits_Linear_5,3,5,63,98,1561545236
5716,19,Jits_Linear_5,0,5,56,103,1562112356
5716,19,Jits_Linear_5,1,5,80,127,1562131988
5716,19,Jits_Linear_5,2,1,48,33,1562140524
5716,19,Jits_Linear_5,3,5,63,98,1562142252
5716,19,Jits_Linear_5,0,5,63,98,1562761624
5716,19,Jits_Linear_5,1,1,48,34,1562785120
5716,19,Jits_Linear_5,2,5,56,103,1562801408
5716,19,Jits_Linear_5,3,5,80,127,1562822168
5716,19,Jits_Linear_5,0,1,48,36,1563411452
5716,19,Jits_Linear_5,1,5,63,98,1563413168
5716,19,Jits_Linear_5,2,5,56,103,1563472216
5716,19,Jits_Linear_5,3,5,80,127,1563475284
5716,19,Jits_Linear_5,0,5,56,103,1564022316
5716,19,Jits_Linear_5,1,5,80,127,1564041456
5716,19,Jits_Linear_5,2,1,48,30,1564073124
5716,19,Jits_Linear_5,3,5,63,98,1564081464
5716,19,Jits_Linear_5,0,5,56,103,1564702228
5716,19,Jits_Linear_5,1,5,63,98,1564721420
5716,19,Jits_Linear_5,2,1,48,38,1564725956
5716,19,Jits_Linear_5,3,5,80,127,1564731756
5716,19,Jits_Linear_5,0,5,80,127,1565321456
5716,19,Jits_Linear_5,1,5,56,103,1565352252
5716,19,Jits_Linear_5,2,5,63,98,1565392340
5716,19,Jits_Linear_5,3,1,48,28,1565462892
5716,19,Jits_Linear_5,0,5,80,127,1565982008
5716,19,Jits_Linear_5,1,5,56,103,1566001500
5716,19,Jits_Linear_5,2,5,63,98,1566061888
5716,19,Jits_Linear_5,3,1,48,30,1566103768
5716,19,Jits_Linear_5,0,5,56,103,1566641620
5716,19,Jits_Linear_5,1,5,80,127,1566662080
5716,19,Jits_Linear_5,2,1,48,29,1566704308
5716,19,Jits_Linear_5,3,5,63,98,1566722392
5716,19,Jits_Linear_5,0,5,80,127,1567281428
5716,19,Jits_Linear_5,1,5,56,103,1567291624
5716,19,Jits_Linear_5,2,1,48,28,1567326952
5716,19,Jits_Linear_5,3,5,63,98,1567331632
5716,19,Jits_Linear_5,0,5,63,98,1567942228
5716,19,Jits_Linear_5,1,1,48,33,1567954192
5716,19,Jits_Linear_5,2,5,56,103,1567982084
5716,19,Jits_Linear_5,3,5,80,127,1567985152
5716,19,Jits_Linear_5,0,1,48,30,1568607592
5716,19,Jits_Linear_5,1,5,63,98,1568622084
5716,19,Jits_Linear_5,2,5,80,127,1568661976
5716,19,Jits_Linear_5,3,5,56,103,1568691500
5716,19,Jits_Linear_5,0,1,48,33,1569266964
5716,19,Jits_Linear_5,1,5,56,103,1569272164
5716,19,Jits_Linear_5,2,5,63,98,1569282512
5716,19,Jits_Linear_5,3,5,80,127,1569312112
5716,19,Jits_Linear_5,0,1,48,33,1569867112
5716,19,Jits_Linear_5,1,5,80,127,1569931532
5716,19,Jits_Linear_5,2,5,63,98,1570002252
5716,19,Jits_Linear_5,3,5,56,103,1570011476
5716,19,Jits_Linear_5,0,1,48,36,1570574288
5716,19,Jits_Linear_5,1,5,63,98,1570602264
5716,19,Jits_Linear_5,2,5,56,103,1570672084
5716,19,Jits_Linear_5,3,5,80,127,1570682204
5716,19,Jits_Linear_5,0,1,48,36,1571270540
5716,19,Jits_Linear_5,1,5,63,98,1571272196
5716,19,Jits_Linear_5,2,5,56,103,1571291460
5716,19,Jits_Linear_5,3,5,80,127,1571331400
5716,19,Jits_Linear_5,0,1,48,40,1571932860
5716,19,Jits_Linear_5,1,5,56,103,1571952216
5716,19,Jits_Linear_5,2,5,63,98,1571962264
5716,19,Jits_Linear_5,3,5,80,127,1572041992
5716,19,Jits_Linear_5,0,5,63,98,1572611368
5716,19,Jits_Linear_5,1,1,48,40,1572614708
5716,19,Jits_Linear_5,2,5,56,103,1572642160
5716,19,Jits_Linear_5,3,5,80,127,1572682100
5716,19,Jits_Linear_5,0,5,56,103,1573282124
5716,19,Jits_Linear_5,1,1,48,40,1573308540
5716,19,Jits_Linear_5,2,5,63,98,1573322056
5716,19,Jits_Linear_5,3,5,80,127,1573361996
5716,19,Jits_Linear_5,0,5,80,127,1573962080
5716,19,Jits_Linear_5,1,1,48,34,1573998980
5716,19,Jits_Linear_5,2,5,56,103,1574042048
5716,19,Jits_Linear_5,3,5,63,98,1574052092
5716,19,Jits_Linear_5,0,1,48,38,1574668848
5716,19,Jits_Linear_5,1,5,56,103,1574681920
5716,19,Jits_Linear_5,2,5,63,98,1574684836
5716,19,Jits_Linear_5,3,5,80,127,1574692336
5716,19,Jits_Linear_5,0,1,48,39,1575321916
5716,19,Jits_Linear_5,1,5,56,103,1575382256
5716,19,Jits_Linear_5,2,5,63,98,1575402116
5716,19,Jits_Linear_5,3,5,80,127,1575412088
5716,19,Jits_Linear_5,0,1,48,41,1576007704
5716,19,Jits_Linear_5,1,5,63,98,1576022344
5716,19,Jits_Linear_5,2,5,80,127,1576031568
5716,19,Jits_Linear_5,3,5,56,103,1576052028
5716,19,Jits_Linear_5,0,1,48,40,1576698456
5716,19,Jits_Linear_5,1,5,63,98,1576711456
5716,19,Jits_Linear_5,2,5,56,103,1576792376
5716,19,Jits_Linear_5,3,5,80,127,1576796400
5716,19,Jits_Linear_5,0,5,63,98,1577401988
5716,19,Jits_Linear_5,1,1,48,41,1577410432
5716,19,Jits_Linear_5,2,5,56,103,1577422368
5716,19,Jits_Linear_5,3,5,80,127,1577451968
5716,19,Jits_Linear_5,0,5,56,103,1578092048
5716,19,Jits_Linear_5,1,1,48,35,1578105504
5716,19,Jits_Linear_5,2,5,63,98,1578112380
5716,19,Jits_Linear_5,3,5,80,127,1578121600
5716,19,Jits_Linear_5,0,5,56,103,1578811892
5716,19,Jits_Linear_5,1,1,48,30,1578824304
5716,19,Jits_Linear_5,2,5,63,98,1578841488
5716,19,Jits_Linear_5,3,5,80,127,1578844924
5716,19,Jits_Linear_5,0,5,56,103,1579451860
5716,19,Jits_Linear_5,1,5,63,98,1579491800
5716,19,Jits_Linear_5,2,5,80,127,1579552044
5716,19,Jits_Linear_5,3,1,48,28,1579583184
5716,19,Jits_Linear_5,0,5,56,103,1580162564
5716,19,Jits_Linear_5,1,5,63,98,1580171860
5716,19,Jits_Linear_5,2,5,80,127,1580232180
5716,19,Jits_Linear_5,3,1,48,32,1580236872
5716,19,Jits_Linear_5,0,5,56,103,1580861928
5716,19,Jits_Linear_5,1,5,80,127,1580882164
5716,19,Jits_Linear_5,2,5,63,98,1580912064
5716,19,Jits_Linear_5,3,1,48,27,1580929232
5716,19,Jits_Linear_5,0,5,80,127,1581562220
5716,19,Jits_Linear_5,1,5,56,103,1581571368
5716,19,Jits_Linear_5,2,5,63,98,1581591904
5716,19,Jits_Linear_5,3,1,48,25,1581604608
5716,19,Jits_Linear_5,0,5,63,98,1582252536
5716,19,Jits_Linear_5,1,1,48,24,1582269428
5716,19,Jits_Linear_5,2,5,80,127,1582332328
5716,19,Jits_Linear_5,3,5,56,103,1582341476
5716,19,Jits_Linear_5,0,1,48,32,1582940700
5716,19,Jits_Linear_5,1,5,80,127,1583012296
5716,19,Jits_Linear_5,2,5,56,103,1583031932
5716,19,Jits_Linear_5,3,5,63,98,1583034848
5716,19,Jits_Linear_5,0,1,48,29,1583692548
5716,19,Jits_Linear_5,1,5,63,98,1583693908
5716,19,Jits_Linear_5,2,5,80,127,1583696720
5716,19,Jits_Linear_5,3,5,56,103,1583751756
5716,19,Jits_Linear_5,0,5,56,103,1584382248
5716,19,Jits_Linear_5,1,5,80,127,1584391624
5716,19,Jits_Linear_5,2,5,63,98,1584431412
5716,19,Jits_Linear_5,3,1,48,32,1584436480
5716,19,Jits_Linear_5,0,5,56,103,1585071444
5716,19,Jits_Linear_5,1,1,48,29,1585111132
5716,19,Jits_Linear_5,2,5,63,98,1585131832
5716,19,Jits_Linear_5,3,5,80,127,1585142028
5716,19,Jits_Linear_5,0,5,63,98,1585792488
5716,19,Jits_Linear_5,1,1,48,30,1585801756
5716,19,Jits_Linear_5,2,5,80,127,1585832272
5716,19,Jits_Linear_5,3,5,56,103,1585872136
5716,19,Jits_Linear_5,0,1,48,30,1586497644
5716,19,Jits_Linear_5,1,5,56,103,1586501948
5716,19,Jits_Linear_5,2,5,63,98,1586581992
5716,19,Jits_Linear_5,3,5,80,127,1586585208
5716,19,Jits_Linear_5,0,1,48,35,1587200620
5716,19,Jits_Linear_5,1,5,80,127,1587272044
5716,19,Jits_Linear_5,2,5,56,103,1587301856
5716,19,Jits_Linear_5,3,5,63,98,1587304772
5716,19,Jits_Linear_5,0,1,48,33,1587948376
5716,19,Jits_Linear_5,1,5,56,103,1587952084
5716,19,Jits_Linear_5,2,5,80,127,1587971496
5716,19,Jits_Linear_5,3,5,63,98,1588012336
5716,19,Jits_Linear_5,0,1,48,37,1588651160
5716,19,Jits_Linear_5,1,5,80,127,1588652656
5716,19,Jits_Linear_5,2,5,63,98,1588671920
5716,19,Jits_Linear_5,3,5,56,103,1588732236
5716,19,Jits_Linear_5,0,1,48,38,1589381488
5716,19,Jits_Linear_5,1,5,63,98,1589382976
5716,19,Jits_Linear_5,2,5,56,103,1589391900
5716,19,Jits_Linear_5,3,5,80,127,1589442104
5716,19,Jits_Linear_5,0,5,56,103,1590092000
5716,19,Jits_Linear_5,1,5,63,98,1590111784
5716,19,Jits_Linear_5,2,1,48,31,1590117820
5716,19,Jits_Linear_5,3,5,80,127,1590121824
5716,19,Jits_Linear_5,0,5,56,103,1590811988
5716,19,Jits_Linear_5,1,5,63,98,1590815128
5716,19,Jits_Linear_5,2,5,80,127,1590831548
5716,19,Jits_Linear_5,3,1,48,31,1590855868
5716,19,Jits_Linear_5,0,1,48,30,1591513504
5716,19,Jits_Linear_5,1,5,63,98,1591581936
5716,19,Jits_Linear_5,2,5,56,103,1591611748
5716,19,Jits_Linear_5,3,5,80,127,1591641572
5716,19,Jits_Linear_5,0,1,48,31,1592249208
5716,19,Jits_Linear_5,1,5,80,127,1592272620
5716,19,Jits_Linear_5,2,5,56,103,1592362444
5716,19,Jits_Linear_5,3,5,63,98,1592365436
5716,19,Jits_Linear_5,0,5,56,103,1593002340
5716,19,Jits_Linear_5,1,5,80,127,1593005404
5716,19,Jits_Linear_5,2,1,48,33,1593028080
5716,19,Jits_Linear_5,3,5,63,98,1593082352
5716,19,Jits_Linear_5,0,5,80,127,1593731692
5716,19,Jits_Linear_5,1,1,48,30,1593761788
5716,19,Jits_Linear_5,2,5,63,98,1593791780
5716,19,Jits_Linear_5,3,5,56,103,1593821532
5716,19,Jits_Linear_5,0,5,63,98,1594461408
5716,19,Jits_Linear_5,1,5,80,127,1594471828
5716,19,Jits_Linear_5,2,1,48,37,1594522620
5716,19,Jits_Linear_5,3,5,56,103,1594541452
5716,19,Jits_Linear_5,0,5,56,103,1595222436
5716,19,Jits_Linear_5,1,5,80,127,1595252116
5716,19,Jits_Linear_5,2,1,48,27,1595282380
5716,19,Jits_Linear_5,3,5,63,98,1595302188
5716,19,Jits_Linear_5,0,5,63,98,1596001624
5716,19,Jits_Linear_5,1,1,48,24,1596008704
5716,19,Jits_Linear_5,2,5,56,103,1596032660
5716,19,Jits_Linear_5,3,5,80,127,1596035580
5716,19,Jits_Linear_5,0,5,63,98,1596742048
5716,19,Jits_Linear_5,1,5,80,127,1596761388
5716,19,Jits_Linear_5,2,1,48,22,1596770068
5716,19,Jits_Linear_5,3,5,56,103,1596771652
5716,19,Jits_Linear_5,0,5,56,103,1597491552
5716,19,Jits_Linear_5,1,1,48,27,1597492536
5716,19,Jits_Linear_5,2,5,63,98,1597495656
5716,19,Jits_Linear_5,3,5,80,127,1597511928
5716,19,Jits_Linear_5,0,1,48,32,1598189312
5716,19,Jits_Linear_5,1,5,56,103,1598191972
5716,19,Jits_Linear_5,2,5,63,98,1598202616
5716,19,Jits_Linear_5,3,5,80,127,1598231996
5716,19,Jits_Linear_5,0,1,48,26,1598899420
5716,19,Jits_Linear_5,1,5,63,98,1598962000
5716,19,Jits_Linear_5,2,5,80,127,1598981488
5716,19,Jits_Linear_5,3,5,56,103,1599021336
5716,19,Jits_Linear_5,0,1,48,21,1599679088
5716,19,Jits_Linear_5,1,5,56,103,1599742436
5716,19,Jits_Linear_5,2,5,63,98,1599782508
5716,19,Jits_Linear_5,3,5,80,127,1599785800
5716,19,Jits_Linear_5,0,5,80,127,1600431552
5716,19,Jits_Linear_5,1,5,56,103,1600472468
5716,19,Jits_Linear_5,2,5,63,98,1600521548
5716,19,Jits_Linear_5,3,1,48,21,1600532688
5716,19,Jits_Linear_5,0,5,56,103,1601241532
5716,19,Jits_Linear_5,1,5,80,127,1601251728
5716,19,Jits_Linear_5,2,1,48,28,1601256340
5716,19,Jits_Linear_5,3,5,63,98,1601282520
5716,19,Jits_Linear_5,0,5,56,103,1601941744
5716,19,Jits_Linear_5,1,1,48,32,1601981984
5716,19,Jits_Linear_5,2,5,80,127,1601983396
5716,19,Jits_Linear_5,3,5,63,98,1602032108
5716,19,Jits_Linear_5,0,5,56,103,1602701820
5716,19,Jits_Linear_5,1,1,48,37,1602719312
5716,19,Jits_Linear_5,2,5,80,127,1602741752
5716,19,Jits_Linear_5,3,5,63,98,1602791808
5716,19,Jits_Linear_5,0,5,80,127,1603452228
5716,19,Jits_Linear_5,1,1,48,38,1603469520
5716,19,Jits_Linear_5,2,5,63,98,1603532392
5716,19,Jits_Linear_5,3,5,56,103,1603542520
5716,19,Jits_Linear_5,0,1,48,37,1604218556
5716,19,Jits_Linear_5,1,5,80,127,1604262348
5716,19,Jits_Linear_5,2,5,56,103,1604271424
5716,19,Jits_Linear_5,3,5,63,98,1604291808
5716,19,Jits_Linear_5,0,5,63,98,1604992376
5716,19,Jits_Linear_5,1,1,48,35,1604998708
5716,19,Jits_Linear_5,2,5,56,103,1605061976
5716,19,Jits_Linear_5,3,5,80,127,1605065116
5716,19,Jits_Linear_5,0,5,80,127,1605752252
5716,19,Jits_Linear_5,1,1,48,35,1605763272
5716,19,Jits_Linear_5,2,5,63,98,1605802252
5716,19,Jits_Linear_5,3,5,56,103,1605842488
5716,19,Jits_Linear_5,0,1,48,33,1606543792
5716,19,Jits_Linear_5,1,5,63,98,1606562248
5716,19,Jits_Linear_5,2,5,56,103,1606602264
5716,19,Jits_Linear_5,3,5,80,127,1606612384
5716,19,Jits_Linear_5,0,5,63,98,1607322096
5716,19,Jits_Linear_5,1,5,56,103,1607341288
5716,19,Jits_Linear_5,2,1,48,40,1607360152
5716,19,Jits_Linear_5,3,5,80,127,1607361812
5716,19,Jits_Linear_5,0,5,80,127,1608052160
5716,19,Jits_Linear_5,1,5,56,103,1608062384
5716,19,Jits_Linear_5,2,5,63,98,1608081648
5716,19,Jits_Linear_5,3,1,48,37,1608090016
5716,19,Jits_Linear_5,0,1,48,36,1608825632
5716,19,Jits_Linear_5,1,5,63,98,1608851812
5716,19,Jits_Linear_5,2,5,56,103,1608891752
5716,19,Jits_Linear_5,3,5,80,127,1608921428
5716,19,Jits_Linear_5,0,5,56,103,1609632260
5716,19,Jits_Linear_5,1,1,48,33,1609647216
5716,19,Jits_Linear_5,2,5,63,98,1609661780
5716,19,Jits_Linear_5,3,5,80,127,1609691604
5716,19,Jits_Linear_5,0,5,80,127,1610381624
5716,19,Jits_Linear_5,1,5,56,103,1610452428
5716,19,Jits_Linear_5,2,1,48,33,1610453860
5716,19,Jits_Linear_5,3,5,63,98,1610456608
5716,19,Jits_Linear_5,0,5,56,103,1611172328
5716,19,Jits_Linear_5,1,5,63,98,1611222312
5716,19,Jits_Linear_5,2,5,80,127,1611252212
5716,19,Jits_Linear_5,3,1,48,35,1611267316
5716,19,Jits_Linear_5,0,5,63,98,1611932408
5716,19,Jits_Linear_5,1,5,80,127,1611935472
5716,19,Jits_Linear_5,2,5,56,103,1611992500
5716,19,Jits_Linear_5,3,1,48,37,1612021616
5716,19,Jits_Linear_5,0,1,48,39,1612730716
5716,19,Jits_Linear_5,1,5,56,103,1612742420
5716,19,Jits_Linear_5,2,5,80,127,1612752172
5716,19,Jits_Linear_5,3,5,63,98,1612802448
5716,19,Jits_Linear_5,0,5,63,98,1613501672
5716,19,Jits_Linear_5,1,5,56,103,1613512164
5716,19,Jits_Linear_5,2,1,48,35,1613528540
5716,19,Jits_Linear_5,3,5,80,127,1613541684
5716,19,Jits_Linear_5,0,1,48,40,1614269636
5716,19,Jits_Linear_5,1,5,63,98,1614322172
5716,19,Jits_Linear_5,2,5,80,127,1614325388
5716,19,Jits_Linear_5,3,5,56,103,1614351624
5716,19,Jits_Linear_5,0,1,48,37,1615063840
5716,19,Jits_Linear_5,1,5,63,98,1615132124
5716,19,Jits_Linear_5,2,5,56,103,1615151460
5716,19,Jits_Linear_5,3,5,80,127,1615154528
5716,19,Jits_Linear_5,0,1,48,40,1615843676
5716,19,Jits_Linear_5,1,5,63,98,1615881540
5716,19,Jits_Linear_5,2,5,56,103,1615952328
5716,19,Jits_Linear_5,3,5,80,127,1615971592
5716,19,Jits_Linear_5,0,1,48,34,1616658872
5716,19,Jits_Linear_5,1,5,56,103,1616662052
5716,19,Jits_Linear_5,2,5,63,98,1616672324
5716,19,Jits_Linear_5,3,5,80,127,1616762320
5716,19,Jits_Linear_5,0,1,48,29,1617444340
5716,19,Jits_Linear_5,1,5,56,103,1617471940
5716,19,Jits_Linear_5,2,5,80,127,1617511880
5716,19,Jits_Linear_5,3,5,63,98,1617522076
5716,19,Jits_Linear_5,0,1,48,35,1618257140
5716,19,Jits_Linear_5,1,5,56,103,1618292016
5716,19,Jits_Linear_5,2,5,63,98,1618321940
5716,19,Jits_Linear_5,3,5,80,127,1618351468
5716,19,Jits_Linear_5,0,5,80,127,1619052152
5716,19,Jits_Linear_5,1,1,48,35,1619075824
5716,19,Jits_Linear_5,2,5,63,98,1619092040
5716,19,Jits_Linear_5,3,5,56,103,1619112276
5716,19,Jits_Linear_5,0,1,48,36,1619846904
5716,19,Jits_Linear_5,1,5,56,103,1619891592
5716,19,Jits_Linear_5,2,5,80,127,1619912128
5716,19,Jits_Linear_5,3,5,63,98,1619931612
5716,19,Jits_Linear_5,0,5,63,98,1620661548
5716,19,Jits_Linear_5,1,1,48,36,1620669076
5716,19,Jits_Linear_5,2,5,56,103,1620672112
5716,19,Jits_Linear_5,3,5,80,127,1620732128
5716,19,Jits_Linear_5,0,1,48,32,1621424044
5716,19,Jits_Linear_5,1,5,56,103,1621471576
5716,19,Jits_Linear_5,2,5,63,98,1621542220
5716,19,Jits_Linear_5,3,5,80,127,1621562004
5716,19,Jits_Linear_5,0,1,48,37,1622262032
5716,19,Jits_Linear_5,1,5,56,103,1622281464
5716,19,Jits_Linear_5,2,5,63,98,1622312188
5716,19,Jits_Linear_5,3,5,80,127,1622352200
5716,19,Jits_Linear_5,0,1,48,36,1623066664
5716,19,Jits_Linear_5,1,5,63,98,1623082280
5716,19,Jits_Linear_5,2,5,56,103,1623131436
5716,19,Jits_Linear_5,3,5,80,127,1623141856
5716,19,Jits_Linear_5,0,5,56,103,1623932200
5716,19,Jits_Linear_5,1,5,63,98,1623981360
5716,19,Jits_Linear_5,2,5,80,127,1623991928
5716,19,Jits_Linear_5,3,1,48,29,1624048904
5716,19,Jits_Linear_5,0,5,56,103,1624711684
5716,19,Jits_Linear_5,1,1,48,32,1624712652
5716,19,Jits_Linear_5,2,5,63,98,1624721800
5716,19,Jits_Linear_5,3,5,80,127,1624801748
5716,19,Jits_Linear_5,0,9999,9999,9999,1515939916
5716,19,Jits_Linear_5,1,9999,9999,9999,1516419184
5716,19,Jits_Linear_5,2,9999,9999,9999,1516899412
5716,19,Jits_Linear_5,3,9999,9999,9999,1517379668
5716,19,Jits_Linear_5,4,9999,9999,9999,1517859964
5716,19,Jits_Linear_5,5,9999,9999,9999,1518349396
5716,19,Jits_Linear_5,6,9999,9999,9999,1518839868
5716,19,Jits_Linear_5,7,9999,9999,9999,1519329380
5716,19,Jits_Linear_5,8,9999,9999,9999,1519819872
5716,19,Jits_Linear_5,9,9999,9999,9999,1520309312
5716,19,Jits_Linear_5,10,9999,9999,9999,1520810060
5716,19,Jits_Linear_5,11,9999,9999,9999,1521309764
5716,19,Jits_Linear_5,12,9999,9999,9999,1521809520
5716,19,Jits_Linear_5,13,9999,9999,9999,1522309208
5716,19,Jits_Linear_5,14,9999,9999,9999,1522809916
5716,19,Jits_Linear_5,15,9999,9999,9999,1523319880
5716,19,Jits_Linear_5,16,9999,9999,9999,1523829840
5716,19,Jits_Linear_5,17,9999,9999,9999,1524339784
5716,19,Jits_Linear_5,18,9999,9999,9999,1524849744
5716,19,Jits_Linear_5,19,9999,9999,9999,1525359708
5716,19,Jits_Linear_5,20,9999,9999,9999,1525879864
5716,19,Jits_Linear_5,21,9999,9999,9999,1526400116
5716,19,Jits_Linear_5,22,9999,9999,9999,1526929488
5716,19,Jits_Linear_5,23,9999,9999,9999,1527449716
5716,19,Jits_Linear_5,24,9999,9999,9999,1527969848
5716,19,Jits_Linear_5,25,9999,9999,9999,1528499288
5716,19,Jits_Linear_5,26,9999,9999,9999,1529029696
5716,19,Jits_Linear_5,27,9999,9999,9999,1529559104
5716,19,Jits_Linear_5,28,9999,9999,9999,1530089588
5716,19,Jits_Linear_5,29,9999,9999,9999,1530619988
5716,19,Jits_Linear_5,30,9999,9999,9999,1531159612
5716,19,Jits_Linear_5,31,9999,9999,9999,1531699312
5716,19,Jits_Linear_5,32,9999,9999,9999,1532239992
5716,19,Jits_Linear_5,33,9999,9999,9999,1532779628
5716,19,Jits_Linear_5,34,9999,9999,9999,1533319292
5716,19,Jits_Linear_5,35,9999,9999,9999,1533869120
5716,19,Jits_Linear_5,36,9999,9999,9999,1534420040
5716,19,Jits_Linear_5,37,9999,9999,9999,1534969928
5716,19,Jits_Linear_5,38,9999,9999,9999,1535519828
5716,19,Jits_Linear_5,39,9999,9999,9999,1536069716
5716,19,Jits_Linear_5,40,9999,9999,9999,1536629868
5716,19,Jits_Linear_5,41,9999,9999,9999,1537189972
5716,19,Jits_Linear_5,42,9999,9999,9999,1537750132
5716,19,Jits_Linear_5,43,9999,9999,9999,1538319420
5716,19,Jits_Linear_5,44,9999,9999,9999,1538879564
5716,19,Jits_Linear_5,45,9999,9999,9999,1539449984
5716,19,Jits_Linear_5,46,9999,9999,9999,1540019296
5716,19,Jits_Linear_5,47,9999,9999,9999,1540589640
5716,19,Jits_Linear_5,48,9999,9999,9999,1541160048
5716,19,Jits_Linear_5,49,9999,9999,9999,1541729344
5716,19,Jits_Linear_5,50,9999,9999,9999,1542309960
5716,19,Jits_Linear_5,51,9999,9999,9999,1542889528
5716,19,Jits_Linear_5,52,9999,9999,9999,1543469160
5716,19,Jits_Linear_5,53,9999,9999,9999,1544049760
5716,19,Jits_Linear_5,54,9999,9999,9999,1544629336
5716,19,Jits_Linear_5,55,9999,9999,9999,1545219172
5716,19,Jits_Linear_5,56,9999,9999,9999,1545810036
5716,19,Jits_Linear_5,57,9999,9999,9999,1546399812
5716,19,Jits_Linear_5,58,9999,9999,9999,1546989636
5716,19,Jits_Linear_5,59,9999,9999,9999,1547579512
5716,19,Jits_Linear_5,60,9999,9999,9999,1548179548
5716,19,Jits_Linear_5,61,9999,9999,9999,1548779624
5716,19,Jits_Linear_5,62,9999,9999,9999,1549379704
5716,19,Jits_Linear_5,63,9999,9999,9999,1549979732
5716,19,Jits_Linear_5,64,9999,9999,9999,1550579816
5716,19,Jits_Linear_5,65,9999,9999,9999,1551190100
5716,19,Jits_Linear_5,66,9999,9999,9999,1551809616
5716,19,Jits_Linear_5,67,9999,9999,9999,1552419948
5716,19,Jits_Linear_5,68,9999,9999,9999,1553029212
5716,19,Jits_Linear_5,69,9999,9999,9999,1553639496
5716,19,Jits_Linear_5,70,9999,9999,9999,1554260096
5716,19,Jits_Linear_5,71,9999,9999,9999,1554879548
5716,19,Jits_Linear_5,72,9999,9999,9999,1555499120
5716,19,Jits_Linear_5,73,9999,9999,9999,1556119680
5716,19,Jits_Linear_5,74,9999,9999,9999,1556739168
5716,19,Jits_Linear_5,75,9999,9999,9999,1557369968
5716,19,Jits_Linear_5,76,9999,9999,9999,1557999672
5716,19,Jits_Linear_5,77,9999,9999,9999,1558629496
5716,19,Jits_Linear_5,78,9999,9999,9999,1559259216
5716,19,Jits_Linear_5,79,9999,9999,9999,1559890012
5716,19,Jits_Linear_5,80,9999,9999,9999,1560529980
5716,19,Jits_Linear_5,81,9999,9999,9999,1561169992
5716,19,Jits_Linear_5,82,9999,9999,9999,1561810044
5716,19,Jits_Linear_5,83,9999,9999,9999,1562449980
5716,19,Jits_Linear_5,84,9999,9999,9999,1563090040
5716,19,Jits_Linear_5,85,9999,9999,9999,1563739192
5716,19,Jits_Linear_5,86,9999,9999,9999,1564389492
5716,19,Jits_Linear_5,87,9999,9999,9999,1565039708
5716,19,Jits_Linear_5,88,9999,9999,9999,1565689948
5716,19,Jits_Linear_5,89,9999,9999,9999,1566339148
5716,19,Jits_Linear_5,90,9999,9999,9999,1566999632
5716,19,Jits_Linear_5,91,9999,9999,9999,1567659088
5716,19,Jits_Linear_5,92,9999,9999,9999,1568319556
5716,19,Jits_Linear_5,93,9999,9999,9999,1568980048
5716,19,Jits_Linear_5,94,9999,9999,9999,1569639544
5716,19,Jits_Linear_5,95,9999,9999,9999,1570309180
5716,19,Jits_Linear_5,96,9999,9999,9999,1570979936
5716,19,Jits_Linear_5,97,9999,9999,9999,1571649612
5716,19,Jits_Linear_5,98,9999,9999,9999,1572319320
5716,19,Jits_Linear_5,99,9999,9999,9999,1572990076
5716,19,Jits_Linear_5,100,9999,9999,9999,1573669948
5716,19,Jits_Linear_5,101,9999,9999,9999,1574349932
5716,19,Jits_Linear_5,102,9999,9999,9999,1575029884
5716,19,Jits_Linear_5,103,9999,9999,9999,1575709776
5716,19,Jits_Linear_5,104,9999,9999,9999,1576389748
5716,19,Jits_Linear_5,105,9999,9999,9999,1577079876
5716,19,Jits_Linear_5,106,9999,9999,9999,1577770108
5716,19,Jits_Linear_5,107,9999,9999,9999,1578459220
5716,19,Jits_Linear_5,108,9999,9999,9999,1579149388
5716,19,Jits_Linear_5,109,9999,9999,9999,1579839612
5716,19,Jits_Linear_5,110,9999,9999,9999,1580539976
5716,19,Jits_Linear_5,111,9999,9999,9999,1581239368
5716,19,Jits_Linear_5,112,9999,9999,9999,1581939776
5716,19,Jits_Linear_5,113,9999,9999,9999,1582639168
5716,19,Jits_Linear_5,114,9999,9999,9999,1583339588
5716,19,Jits_Linear_5,115,9999,9999,9999,1584049220
5716,19,Jits_Linear_5,116,9999,9999,9999,1584759884
5716,19,Jits_Linear_5,117,9999,9999,9999,1585469532
5716,19,Jits_Linear_5,118,9999,9999,9999,1586179192
5716,19,Jits_Linear_5,119,9999,9999,9999,1586889796
5716,19,Jits_Linear_5,120,9999,9999,9999,1587609700
5716,19,Jits_Linear_5,121,9999,9999,9999,1588329576
5716,19,Jits_Linear_5,122,9999,9999,9999,1589049404
5716,19,Jits_Linear_5,123,9999,9999,9999,1589769312
5716,19,Jits_Linear_5,124,9999,9999,9999,1590489208
5716,19,Jits_Linear_5,125,9999,9999,9999,1591219300
5716,19,Jits_Linear_5,126,9999,9999,9999,1591949416
5716,19,Jits_Linear_5,127,9999,9999,9999,1592679552
5716,19,Jits_Linear_5,128,9999,9999,9999,1593409636
5716,19,Jits_Linear_5,129,9999,9999,9999,1594139748
5716,19,Jits_Linear_5,130,9999,9999,9999,1594880120
5716,19,Jits_Linear_5,131,9999,9999,9999,1595629692
5716,19,Jits_Linear_5,132,9999,9999,9999,1596369980
5716,19,Jits_Linear_5,133,9999,9999,9999,1597109368
5716,19,Jits_Linear_5,134,9999,9999,9999,1597849720
5716,19,Jits_Linear_5,135,9999,9999,9999,1598599232
5716,19,Jits_Linear_5,136,9999,9999,9999,1599349828
5716,19,Jits_Linear_5,137,9999,9999,9999,1600099396
5716,19,Jits_Linear_5,138,9999,9999,9999,1600850020
5716,19,Jits_Linear_5,139,9999,9999,9999,1601599612
5716,19,Jits_Linear_5,140,9999,9999,9999,1602359388
5716,19,Jits_Linear_5,141,9999,9999,9999,1603119164
5716,19,Jits_Linear_5,142,9999,9999,9999,1603880064
5716,19,Jits_Linear_5,143,9999,9999,9999,1604639840
5716,19,Jits_Linear_5,144,9999,9999,9999,1605399672
5716,19,Jits_Linear_5,145,9999,9999,9999,1606169696
5716,19,Jits_Linear_5,146,9999,9999,9999,1606939744
5716,19,Jits_Linear_5,147,9999,9999,9999,1607709768
5716,19,Jits_Linear_5,148,9999,9999,9999,1608479864
5716,19,Jits_Linear_5,149,9999,9999,9999,1609249908
5716,19,Jits_Linear_5,150,9999,9999,9999,1610029152
5716,19,Jits_Linear_5,151,9999,9999,9999,1610809444
5716,19,Jits_Linear_5,152,9999,9999,9999,1611589748
5716,19,Jits_Linear_5,153,9999,9999,9999,1612370040
5716,19,Jits_Linear_5,154,9999,9999,9999,1613149280
5716,19,Jits_Linear_5,155,9999,9999,9999,1613939832
5716,19,Jits_Linear_5,156,9999,9999,9999,1614729272
5716,19,Jits_Linear_5,157,9999,9999,9999,1615519820
5716,19,Jits_Linear_5,158,9999,9999,9999,1616309328
5716,19,Jits_Linear_5,159,9999,9999,9999,1617099880
5716,19,Jits_Linear_5,160,9999,9999,9999,1617899576
5716,19,Jits_Linear_5,161,9999,9999,9999,1618699348
5716,19,Jits_Linear_5,162,9999,9999,9999,1619499112
5716,19,Jits_Linear_5,163,9999,9999,9999,1620299872
5716,19,Jits_Linear_5,164,9999,9999,9999,1621099636
5716,19,Jits_Linear_5,165,9999,9999,9999,1621909628
5716,19,Jits_Linear_5,166,9999,9999,9999,1622719584
5716,19,Jits_Linear_5,167,9999,9999,9999,1623529544
5716,19,Jits_Linear_5,168,9999,9999,9999,1624339580
5716,19,Jits_Linear_5,169,9999,9999,9999,1625149552
5717,18,Jits_Linear_8,0,5,56,103,1636847068
5717,18,Jits_Linear_8,1,5,63,98,1636850244
5717,18,Jits_Linear_8,2,5,80,127,1636853288
5717,18,Jits_Linear_8,0,5,56,103,1637667304
5717,18,Jits_Linear_8,1,5,63,98,1637670552
5717,18,Jits_Linear_8,2,5,80,127,1637673600
5717,18,Jits_Linear_8,0,5,80,127,1638426872
5717,18,Jits_Linear_8,1,5,63,98,1638517008
5717,18,Jits_Linear_8,2,5,56,103,1638527444
5717,18,Jits_Linear_8,0,5,56,103,1639266672
5717,18,Jits_Linear_8,1,5,63,98,1639277016
5717,18,Jits_Linear_8,2,5,80,127,1639367100
5717,18,Jits_Linear_8,0,1,48,50,1640023344
5717,18,Jits_Linear_8,1,5,63,98,1640057416
5717,18,Jits_Linear_8,2,5,80,127,1640086868
5717,18,Jits_Linear_8,3,5,56,103,1640116604
5717,18,Jits_Linear_8,0,1,48,43,1640780016
5717,18,Jits_Linear_8,1,5,56,103,1640877452
5717,18,Jits_Linear_8,2,5,80,127,1640976656
5717,18,Jits_Linear_8,3,5,63,98,1641026860
5717,18,Jits_Linear_8,0,5,56,103,1641687716
5717,18,Jits_Linear_8,1,5,80,127,1641736500
5717,18,Jits_Linear_8,2,1,48,32,1641746216
5717,18,Jits_Linear_8,3,5,63,98,1641776580
5717,18,Jits_Linear_8,0,5,80,127,1642527188
5717,18,Jits_Linear_8,1,1,48,35,1642537580
5717,18,Jits_Linear_8,2,5,63,98,1642556784
5717,18,Jits_Linear_8,3,5,56,103,1642626344
5717,18,Jits_Linear_8,0,1,48,37,1643366112
5717,18,Jits_Linear_8,1,5,63,98,1643377000
5717,18,Jits_Linear_8,2,5,56,103,1643406700
5717,18,Jits_Linear_8,3,5,80,127,1643467076
5717,18,Jits_Linear_8,0,5,56,103,1644126560
5717,18,Jits_Linear_8,1,5,80,127,1644129480
5717,18,Jits_Linear_8,2,1,48,29,1644148636
5717,18,Jits_Linear_8,3,5,63,98,1644247640
5717,18,Jits_Linear_8,0,1,48,38,1644929536
5717,18,Jits_Linear_8,1,5,56,103,1645007480
5717,18,Jits_Linear_8,2,5,80,127,1645047408
5717,18,Jits_Linear_8,3,5,63,98,1645057528
5717,18,Jits_Linear_8,0,1,48,41,1645713704
5717,18,Jits_Linear_8,1,5,56,103,1645767156
5717,18,Jits_Linear_8,2,5,80,127,1645786720
5717,18,Jits_Linear_8,3,5,63,98,1645867548
5717,18,Jits_Linear_8,0,1,48,33,1646537288
5717,18,Jits_Linear_8,1,5,80,127,1646556496
5717,18,Jits_Linear_8,2,5,56,103,1646656952
5717,18,Jits_Linear_8,3,5,63,98,1646667372
5717,18,Jits_Linear_8,0,5,63,98,1647326516
5717,18,Jits_Linear_8,1,1,48,35,1647359004
5717,18,Jits_Linear_8,2,5,80,127,1647386976
5717,18,Jits_Linear_8,3,5,56,103,1647397320
5717,18,Jits_Linear_8,0,1,48,39,1648070556
5717,18,Jits_Linear_8,1,5,56,103,1648127528
5717,18,Jits_Linear_8,2,5,63,98,1648197348
5717,18,Jits_Linear_8,3,5,80,127,1648200632
5717,18,Jits_Linear_8,0,1,48,33,1648895336
5717,18,Jits_Linear_8,1,5,63,98,1648956792
5717,18,Jits_Linear_8,2,5,56,103,1649006904
5717,18,Jits_Linear_8,3,5,80,127,1649010120
5717,18,Jits_Linear_8,0,5,56,103,1649707388
5717,18,Jits_Linear_8,1,5,80,127,1649710380
5717,18,Jits_Linear_8,2,1,48,29,1649722336
5717,18,Jits_Linear_8,3,5,63,98,1649796492
5717,18,Jits_Linear_8,0,1,48,29,1650479836
5717,18,Jits_Linear_8,1,5,63,98,1650537104
5717,18,Jits_Linear_8,2,5,56,103,1650627176
5717,18,Jits_Linear_8,3,5,80,127,1650656480
5717,18,Jits_Linear_8,0,1,48,31,1651296088
5717,18,Jits_Linear_8,1,5,56,103,1651317460
5717,18,Jits_Linear_8,2,5,63,98,1651416528
5717,18,Jits_Linear_8,3,5,80,127,1651447400
5717,18,Jits_Linear_8,0,1,48,33,1652094732
5717,18,Jits_Linear_8,1,5,63,98,1652127360
5717,18,Jits_Linear_8,2,5,56,103,1652137480
5717,18,Jits_Linear_8,3,5,80,127,1652226476
5717,18,Jits_Linear_8,0,1,48,36,1652913448
5717,18,Jits_Linear_8,1,5,63,98,1652937232
5717,18,Jits_Linear_8,2,5,56,103,1653017236
5717,18,Jits_Linear_8,3,5,80,127,1653020228
5717,18,Jits_Linear_8,0,5,80,127,1653677424
5717,18,Jits_Linear_8,1,5,63,98,1653696984
5717,18,Jits_Linear_8,2,1,48,36,1653726260
5717,18,Jits_Linear_8,3,5,56,103,1653757296
5717,18,Jits_Linear_8,0,1,48,34,1654496972
5717,18,Jits_Linear_8,1,5,56,103,1654498160
5717,18,Jits_Linear_8,2,5,63,98,1654517276
5717,18,Jits_Linear_8,3,5,80,127,1654520492
5717,18,Jits_Linear_8,0,5,63,98,1655216472
5717,18,Jits_Linear_8,1,1,48,38,1655285156
5717,18,Jits_Linear_8,2,5,80,127,1655297536
5717,18,Jits_Linear_8,3,5,56,103,1655306536
5717,18,Jits_Linear_8,0,5,63,98,1656017272
5717,18,Jits_Linear_8,1,5,56,103,1656036612
5717,18,Jits_Linear_8,2,1,48,41,1656046548
5717,18,Jits_Linear_8,3,5,80,127,1656087028
5717,18,Jits_Linear_8,0,1,48,38,1656796648
5717,18,Jits_Linear_8,1,5,80,127,1656798056
5717,18,Jits_Linear_8,2,5,63,98,1656836504
5717,18,Jits_Linear_8,3,5,56,103,1656857040
5717,18,Jits_Linear_8,0,1,48,36,1657571860
5717,18,Jits_Linear_8,1,5,56,103,1657606584
5717,18,Jits_Linear_8,2,5,63,98,1657616708
5717,18,Jits_Linear_8,3,5,80,127,1657637168
5717,18,Jits_Linear_8,0,5,56,103,1658307000
5717,18,Jits_Linear_8,1,1,48,36,1658362704
5717,18,Jits_Linear_8,2,5,63,98,1658397276
5717,18,Jits_Linear_8,3,5,80,127,1658456532
5717,18,Jits_Linear_8,0,5,80,127,1659106620
5717,18,Jits_Linear_8,1,5,56,103,1659117040
5717,18,Jits_Linear_8,2,1,48,38,1659149680
5717,18,Jits_Linear_8,3,5,63,98,1659186492
5717,18,Jits_Linear_8,0,5,63,98,1659906316
5717,18,Jits_Linear_8,1,1,48,36,1659959104
5717,18,Jits_Linear_8,2,5,80,127,1659996668
5717,18,Jits_Linear_8,3,5,56,103,1660007012
5717,18,Jits_Linear_8,0,5,63,98,1660606952
5717,18,Jits_Linear_8,1,5,80,127,1660657004
5717,18,Jits_Linear_8,2,5,56,103,1660717396
5717,18,Jits_Linear_8,3,1,48,34,1660721488
5717,18,Jits_Linear_8,0,5,56,103,1661397412
5717,18,Jits_Linear_8,1,1,48,37,1661430804
5717,18,Jits_Linear_8,2,5,80,127,1661446416
5717,18,Jits_Linear_8,3,5,63,98,1661467244
5717,18,Jits_Linear_8,0,5,56,103,1662126384
5717,18,Jits_Linear_8,1,1,48,40,1662186924
5717,18,Jits_Linear_8,2,5,80,127,1662188112
5717,18,Jits_Linear_8,3,5,63,98,1662256448
5717,18,Jits_Linear_8,0,5,56,103,1662887264
5717,18,Jits_Linear_8,1,5,80,127,1662916940
5717,18,Jits_Linear_8,2,5,63,98,1662946616
5717,18,Jits_Linear_8,3,1,48,40,1662989444
5717,18,Jits_Linear_8,0,5,56,103,1663686948
5717,18,Jits_Linear_8,1,5,80,127,1663706436
5717,18,Jits_Linear_8,2,1,48,37,1663722208
5717,18,Jits_Linear_8,3,5,63,98,1663767120
5717,18,Jits_Linear_8,0,1,48,39,1664474088
5717,18,Jits_Linear_8,1,5,80,127,1664526948
5717,18,Jits_Linear_8,2,5,56,103,1664537144
5717,18,Jits_Linear_8,3,5,63,98,1664547044
5717,18,Jits_Linear_8,0,5,56,103,1665237336
5717,18,Jits_Linear_8,1,1,48,40,1665246380
5717,18,Jits_Linear_8,2,5,80,127,1665277344
5717,18,Jits_Linear_8,3,5,63,98,1665306872
5717,18,Jits_Linear_8,0,5,56,103,1665957168
5717,18,Jits_Linear_8,1,5,63,98,1665986844
5717,18,Jits_Linear_8,2,1,48,38,1666005256
5717,18,Jits_Linear_8,3,5,80,127,1666027148
5717,18,Jits_Linear_8,0,5,80,127,1666656592
5717,18,Jits_Linear_8,1,5,63,98,1666707044
5717,18,Jits_Linear_8,2,5,56,103,1666727204
5717,18,Jits_Linear_8,3,1,48,37,1666750628
5717,18,Jits_Linear_8,0,1,48,42,1667436124
5717,18,Jits_Linear_8,1,5,56,103,1667437540
5717,18,Jits_Linear_8,2,5,80,127,1667506580
5717,18,Jits_Linear_8,3,5,63,98,1667566956
5717,18,Jits_Linear_8,0,5,80,127,1668177152
5717,18,Jits_Linear_8,1,1,48,35,1668230196
5717,18,Jits_Linear_8,2,5,63,98,1668267308
5717,18,Jits_Linear_8,3,5,56,103,1668287016
5717,18,Jits_Linear_8,0,5,63,98,1668937068
5717,18,Jits_Linear_8,1,5,56,103,1668956408
5717,18,Jits_Linear_8,2,1,48,33,1668992436
5717,18,Jits_Linear_8,3,5,80,127,1668996588
5717,18,Jits_Linear_8,0,5,80,127,1669636580
5717,18,Jits_Linear_8,1,5,63,98,1669656964
5717,18,Jits_Linear_8,2,1,48,29,1669725120
5717,18,Jits_Linear_8,3,5,56,103,1669736904
5717,18,Jits_Linear_8,0,5,63,98,1670366668
5717,18,Jits_Linear_8,1,1,48,42,1670445092
5717,18,Jits_Linear_8,2,5,56,103,1670477100
5717,18,Jits_Linear_8,3,5,80,127,1670480240
5717,18,Jits_Linear_8,0,5,63,98,1671127456
5717,18,Jits_Linear_8,1,5,56,103,1671136752
5717,18,Jits_Linear_8,2,5,80,127,1671139748
5717,18,Jits_Linear_8,3,1,48,40,1671162416
5717,18,Jits_Linear_8,0,5,56,103,1671847184
5717,18,Jits_Linear_8,1,1,48,37,1671887468
5717,18,Jits_Linear_8,2,5,80,127,1671967204
5717,18,Jits_Linear_8,3,5,63,98,1672006980
5717,18,Jits_Linear_8,0,5,56,103,1672596836
5717,18,Jits_Linear_8,1,5,80,127,1672676856
5717,18,Jits_Linear_8,2,1,48,39,1672677820
5717,18,Jits_Linear_8,3,5,63,98,1672697160
5717,18,Jits_Linear_8,0,5,56,103,1673326984
5717,18,Jits_Linear_8,1,1,48,42,1673388268
5717,18,Jits_Linear_8,2,5,63,98,1673436616
5717,18,Jits_Linear_8,3,5,80,127,1673439980
5717,18,Jits_Linear_8,0,5,56,103,1674086744
5717,18,Jits_Linear_8,1,5,80,127,1674116444
5717,18,Jits_Linear_8,2,5,63,98,1674136828
5717,18,Jits_Linear_8,3,1,48,46,1674142940
5717,18,Jits_Linear_8,0,5,63,98,1674797580
5717,18,Jits_Linear_8,1,5,56,103,1674806580
5717,18,Jits_Linear_8,2,5,80,127,1674816848
5717,18,Jits_Linear_8,3,1,48,42,1674865148
5717,18,Jits_Linear_8,0,5,80,127,1675507124
5717,18,Jits_Linear_8,1,5,56,103,1675557104
5717,18,Jits_Linear_8,2,1,48,37,1675583744
5717,18,Jits_Linear_8,3,5,63,98,1675597184
5717,18,Jits_Linear_8,0,5,80,127,1676247408
5717,18,Jits_Linear_8,1,5,63,98,1676266896
5717,18,Jits_Linear_8,2,5,56,103,1676317024
5717,18,Jits_Linear_8,3,1,48,33,1676333992
5717,18,Jits_Linear_8,0,5,80,127,1676976824
5717,18,Jits_Linear_8,1,5,56,103,1677007176
5717,18,Jits_Linear_8,2,1,48,26,1677063556
5717,18,Jits_Linear_8,3,5,63,98,1677076852
5717,18,Jits_Linear_8,0,5,56,103,1677746636
5717,18,Jits_Linear_8,1,5,80,127,1677756904
5717,18,Jits_Linear_8,2,1,48,28,1677786924
5717,18,Jits_Linear_8,3,5,63,98,1677796836
5717,18,Jits_Linear_8,0,5,56,103,1678377356
5717,18,Jits_Linear_8,1,5,63,98,1678396844
5717,18,Jits_Linear_8,2,5,80,127,1678466548
5717,18,Jits_Linear_8,3,1,48,30,1678507576
5717,18,Jits_Linear_8,0,5,63,98,1679116808
5717,18,Jits_Linear_8,1,1,48,22,1679171920
5717,18,Jits_Linear_8,2,5,80,127,1679177120
5717,18,Jits_Linear_8,3,5,56,103,1679196608
5717,18,Jits_Linear_8,0,5,80,127,1679816992
5717,18,Jits_Linear_8,1,5,56,103,1679846744
5717,18,Jits_Linear_8,2,5,63,98,1679876568
5717,18,Jits_Linear_8,3,1,48,25,1679885688
5717,18,Jits_Linear_8,0,5,56,103,1680526776
5717,18,Jits_Linear_8,1,5,63,98,1680587096
5717,18,Jits_Linear_8,2,1,48,25,1680595392
5717,18,Jits_Linear_8,3,5,80,127,1680646656
5717,18,Jits_Linear_8,0,5,80,127,1681256772
5717,18,Jits_Linear_8,1,5,56,103,1681277256
5717,18,Jits_Linear_8,2,1,48,24,1681323076
5717,18,Jits_Linear_8,3,5,63,98,1681346856
5717,18,Jits_Linear_8,0,5,80,127,1681966556
5717,18,Jits_Linear_8,1,5,63,98,1681986796
5717,18,Jits_Linear_8,2,5,56,103,1682016696
5717,18,Jits_Linear_8,3,1,48,24,1682040660
5717,18,Jits_Linear_8,0,5,80,127,1682656716
5717,18,Jits_Linear_8,1,5,63,98,1682677100
5717,18,Jits_Linear_8,2,1,48,29,1682682312
5717,18,Jits_Linear_8,3,5,56,103,1682736732
5717,18,Jits_Linear_8,0,5,80,127,1683357128
5717,18,Jits_Linear_8,1,1,48,33,1683371260
5717,18,Jits_Linear_8,2,5,56,103,1683457596
5717,18,Jits_Linear_8,3,5,63,98,1683486960
5717,18,Jits_Linear_8,0,5,63,98,1684056632
5717,18,Jits_Linear_8,1,5,80,127,1684106712
5717,18,Jits_Linear_8,2,1,48,29,1684120844
5717,18,Jits_Linear_8,3,5,56,103,1684127016
5717,18,Jits_Linear_8,0,5,80,127,1684796752
5717,18,Jits_Linear_8,1,1,48,28,1684823764
5717,18,Jits_Linear_8,2,5,56,103,1684826420
5717,18,Jits_Linear_8,3,5,63,98,1684829560
5717,18,Jits_Linear_8,0,1,48,32,1685507996
5717,18,Jits_Linear_8,1,5,63,98,1685526828
5717,18,Jits_Linear_8,2,5,56,103,1685566696
5717,18,Jits_Linear_8,3,5,80,127,1685587600
5717,18,Jits_Linear_8,0,5,80,127,1686166788
5717,18,Jits_Linear_8,1,1,48,29,1686190956
5717,18,Jits_Linear_8,2,5,63,98,1686246808
5717,18,Jits_Linear_8,3,5,56,103,1686286728
5717,18,Jits_Linear_8,0,5,63,98,1686876636
5717,18,Jits_Linear_8,1,1,48,29,1686893008
5717,18,Jits_Linear_8,2,5,80,127,1686957572
5717,18,Jits_Linear_8,3,5,56,103,1686976760
5717,18,Jits_Linear_8,0,5,56,103,1687606644
5717,18,Jits_Linear_8,1,1,48,32,1687613952
5717,18,Jits_Linear_8,2,5,63,98,1687616984
5717,18,Jits_Linear_8,3,5,80,127,1687656700
5717,18,Jits_Linear_8,0,5,56,103,1688217012
5717,18,Jits_Linear_8,1,5,80,127,1688220080
5717,18,Jits_Linear_8,2,1,48,35,1688310480
5717,18,Jits_Linear_8,3,5,63,98,1688357332
5717,18,Jits_Linear_8,0,5,56,103,1688897024
5717,18,Jits_Linear_8,1,5,63,98,1688986960
5717,18,Jits_Linear_8,2,5,80,127,1689056568
5717,18,Jits_Linear_8,3,1,48,33,1689072564
5717,18,Jits_Linear_8,0,5,63,98,1689656640
5717,18,Jits_Linear_8,1,5,80,127,1689660004
5717,18,Jits_Linear_8,2,5,56,103,1689716980
5717,18,Jits_Linear_8,3,1,48,34,1689734268
5717,18,Jits_Linear_8,0,5,80,127,1690376600
5717,18,Jits_Linear_8,1,5,56,103,1690396912
5717,18,Jits_Linear_8,2,5,63,98,1690407700
5717,18,Jits_Linear_8,3,1,48,29,1690438096
5717,18,Jits_Linear_8,0,5,56,103,1690967540
5717,18,Jits_Linear_8,1,5,63,98,1690976616
5717,18,Jits_Linear_8,2,5,80,127,1691047368
5717,18,Jits_Linear_8,3,1,48,35,1691117460
5717,18,Jits_Linear_8,0,5,80,127,1691647580
5717,18,Jits_Linear_8,1,5,56,103,1691696516
5717,18,Jits_Linear_8,2,1,48,30,1691730276
5717,18,Jits_Linear_8,3,5,63,98,1691746636
5717,18,Jits_Linear_8,0,1,48,35,1692404240
5717,18,Jits_Linear_8,1,5,56,103,1692407420
5717,18,Jits_Linear_8,2,5,63,98,1692417316
5717,18,Jits_Linear_8,3,5,80,127,1692457480
5717,18,Jits_Linear_8,0,5,56,103,1693026604
5717,18,Jits_Linear_8,1,5,63,98,1693066644
5717,18,Jits_Linear_8,2,1,48,30,1693103468
5717,18,Jits_Linear_8,3,5,80,127,1693116912
5717,18,Jits_Linear_8,0,5,80,127,1693666644
5717,18,Jits_Linear_8,1,5,56,103,1693716992
5717,18,Jits_Linear_8,2,5,63,98,1693737228
5717,18,Jits_Linear_8,3,1,48,32,1693740276
5717,18,Jits_Linear_8,0,5,80,127,1694346680
5717,18,Jits_Linear_8,1,1,48,29,1694381636
5717,18,Jits_Linear_8,2,5,63,98,1694406988
5717,18,Jits_Linear_8,3,5,56,103,1694486844
5717,18,Jits_Linear_8,0,5,80,127,1694996884
5717,18,Jits_Linear_8,1,5,56,103,1695036824
5717,18,Jits_Linear_8,2,1,48,30,1695054468
5717,18,Jits_Linear_8,3,5,63,98,1695057200
5717,18,Jits_Linear_8,0,1,48,36,1695685740
5717,18,Jits_Linear_8,1,5,56,103,1695716700
5717,18,Jits_Linear_8,2,5,80,127,1695726824
5717,18,Jits_Linear_8,3,5,63,98,1695766764
5717,18,Jits_Linear_8,0,1,48,42,1696371128
5717,18,Jits_Linear_8,1,5,56,103,1696446760
5717,18,Jits_Linear_8,2,5,63,98,1696486760
5717,18,Jits_Linear_8,3,5,80,127,1696490348
5717,18,Jits_Linear_8,0,5,63,98,1696996784
5717,18,Jits_Linear_8,1,1,48,37,1697020652
5717,18,Jits_Linear_8,2,5,80,127,1697036716
5717,18,Jits_Linear_8,3,5,56,103,1697107372
5717,18,Jits_Linear_8,0,1,48,43,1697645004
5717,18,Jits_Linear_8,1,5,63,98,1697646892
5717,18,Jits_Linear_8,2,5,56,103,1697726788
5717,18,Jits_Linear_8,3,5,80,127,1697787388
5717,18,Jits_Linear_8,0,5,80,127,1698316592
5717,18,Jits_Linear_8,1,1,48,43,1698318604
5717,18,Jits_Linear_8,2,5,63,98,1698366864
5717,18,Jits_Linear_8,3,5,56,103,1698396392
5717,18,Jits_Linear_8,0,5,56,103,1698967336
5717,18,Jits_Linear_8,1,1,48,42,1698975412
5717,18,Jits_Linear_8,2,5,63,98,1699017164
5717,18,Jits_Linear_8,3,5,80,127,1699027360
5717,18,Jits_Linear_8,0,1,48,49,1699598248
5717,18,Jits_Linear_8,1,5,56,103,1699636564
5717,18,Jits_Linear_8,2,5,63,98,1699747164
5717,18,Jits_Linear_8,3,5,80,127,1699766576
5717,18,Jits_Linear_8,0,5,63,98,1700286788
5717,18,Jits_Linear_8,1,1,48,42,1700327448
5717,18,Jits_Linear_8,2,5,80,127,1700337208
5717,18,Jits_Linear_8,3,5,56,103,1700428152
5717,18,Jits_Linear_8,0,5,63,98,1700926940
5717,18,Jits_Linear_8,1,5,80,127,1700956468
5717,18,Jits_Linear_8,2,1,48,47,1700982980
5717,18,Jits_Linear_8,3,5,56,103,1701046616
5717,18,Jits_Linear_8,0,5,63,98,1701577148
5717,18,Jits_Linear_8,1,5,56,103,1701587348
5717,18,Jits_Linear_8,2,1,48,46,1701644864
5717,18,Jits_Linear_8,3,5,80,127,1701686612
5717,18,Jits_Linear_8,0,1,48,37,1702299328
5717,18,Jits_Linear_8,1,5,63,98,1702326704
5717,18,Jits_Linear_8,2,5,80,127,1702357504
5717,18,Jits_Linear_8,3,5,56,103,1702387104
5717,18,Jits_Linear_8,0,1,48,44,1702965792
5717,18,Jits_Linear_8,1,5,80,127,1702987240
5717,18,Jits_Linear_8,2,5,63,98,1702997292
5717,18,Jits_Linear_8,3,5,56,103,1703027188
5717,18,Jits_Linear_8,0,5,80,127,1703526984
5717,18,Jits_Linear_8,1,5,63,98,1703547244
5717,18,Jits_Linear_8,2,5,56,103,1703597448
5717,18,Jits_Linear_8,3,1,48,41,1703636532
5717,18,Jits_Linear_8,0,5,63,98,1704196392
5717,18,Jits_Linear_8,1,5,80,127,1704256860
5717,18,Jits_Linear_8,2,5,56,103,1704277320
5717,18,Jits_Linear_8,3,1,48,38,1704289728
5717,18,Jits_Linear_8,0,5,63,98,1704796608
5717,18,Jits_Linear_8,1,5,56,103,1704846836
5717,18,Jits_Linear_8,2,5,80,127,1704857180
5717,18,Jits_Linear_8,3,1,48,32,1704917912
5717,18,Jits_Linear_8,0,5,56,103,1705467272
5717,18,Jits_Linear_8,1,5,80,127,1705476424
5717,18,Jits_Linear_8,2,1,48,43,1705500216
5717,18,Jits_Linear_8,3,5,63,98,1705576960
5717,18,Jits_Linear_8,0,5,80,127,1706067356
5717,18,Jits_Linear_8,1,5,63,98,1706076504
5717,18,Jits_Linear_8,2,1,48,43,1706162948
5717,18,Jits_Linear_8,3,5,56,103,1706227188
5717,18,Jits_Linear_8,0,5,63,98,1706707168
5717,18,Jits_Linear_8,1,5,80,127,1706747184
5717,18,Jits_Linear_8,2,1,48,39,1706813752
5717,18,Jits_Linear_8,3,5,56,103,1706827120
5717,18,Jits_Linear_8,0,5,56,103,1707326936
5717,18,Jits_Linear_8,1,5,80,127,1707427140
5717,18,Jits_Linear_8,2,5,63,98,1707446776
5717,18,Jits_Linear_8,3,1,48,44,1707472140
5717,18,Jits_Linear_8,0,5,80,127,1708017104
5717,18,Jits_Linear_8,1,5,56,103,1708027448
5717,18,Jits_Linear_8,2,1,48,41,1708116372
5717,18,Jits_Linear_8,3,5,63,98,1708118024
5717,18,Jits_Linear_8,0,5,56,103,1708646932
5717,18,Jits_Linear_8,1,5,63,98,1708667120
5717,18,Jits_Linear_8,2,5,80,127,1708747064
5717,18,Jits_Linear_8,3,1,48,43,1708810036
5717,18,Jits_Linear_8,0,5,63,98,1709217000
5717,18,Jits_Linear_8,1,5,56,103,1709307208
5717,18,Jits_Linear_8,2,5,80,127,1709310352
5717,18,Jits_Linear_8,3,1,48,40,1709478684
5717,18,Jits_Linear_8,0,5,56,103,1709867328
5717,18,Jits_Linear_8,1,5,80,127,1709927048
5717,18,Jits_Linear_8,2,5,63,98,1709937096
5717,18,Jits_Linear_8,3,1,48,38,1710143996
5717,18,Jits_Linear_8,0,5,80,127,1710537044
5717,18,Jits_Linear_8,1,5,56,103,1710547236
5717,18,Jits_Linear_8,2,5,63,98,1710550380
5717,18,Jits_Linear_8,3,1,48,40,1710814388
5717,18,Jits_Linear_8,0,5,56,103,1711116888
5717,18,Jits_Linear_8,1,5,80,127,1711127008
5717,18,Jits_Linear_8,2,5,63,98,1711147392
5717,18,Jits_Linear_8,0,1,48,38,1711510696
5717,18,Jits_Linear_8,1,5,63,98,1711706416
5717,18,Jits_Linear_8,2,5,80,127,1711766908
5717,18,Jits_Linear_8,3,5,56,103,1711817036
5717,18,Jits_Linear_8,0,1,48,39,1712258620
5717,18,Jits_Linear_8,1,5,63,98,1712406836
5717,18,Jits_Linear_8,2,5,56,103,1712417032
5717,18,Jits_Linear_8,3,5,80,127,1712467308
5717,18,Jits_Linear_8,0,5,63,98,1712916796
5717,18,Jits_Linear_8,1,5,80,127,1712937404
5717,18,Jits_Linear_8,2,5,56,103,1712946480
5717,18,Jits_Linear_8,3,1,48,39,1712985120
5717,18,Jits_Linear_8,0,5,63,98,1713527216
5717,18,Jits_Linear_8,1,5,80,127,1713530508
5717,18,Jits_Linear_8,2,5,56,103,1713567080
5717,18,Jits_Linear_8,3,1,48,39,1713634932
5717,18,Jits_Linear_8,0,5,63,98,1714207216
5717,18,Jits_Linear_8,1,5,80,127,1714236816
5717,18,Jits_Linear_8,2,5,56,103,1714247012
5717,18,Jits_Linear_8,3,1,48,37,1714308888
5717,18,Jits_Linear_8,0,5,56,103,1714767200
5717,18,Jits_Linear_8,1,5,80,127,1714796880
5717,18,Jits_Linear_8,2,5,63,98,1714826728
5717,18,Jits_Linear_8,3,1,48,43,1714998028
5717,18,Jits_Linear_8,0,5,63,98,1715466732
5717,18,Jits_Linear_8,1,5,56,103,1715506520
5717,18,Jits_Linear_8,2,5,80,127,1715509808
5717,18,Jits_Linear_8,3,1,48,36,1715634924
5717,18,Jits_Linear_8,0,5,80,127,1715967208
5717,18,Jits_Linear_8,1,5,56,103,1716047080
5717,18,Jits_Linear_8,2,5,63,98,1716097528
5717,18,Jits_Linear_8,3,1,48,32,1716288308
5717,18,Jits_Linear_8,0,5,80,127,1716546988
5717,18,Jits_Linear_8,1,5,56,103,1716567296
5717,18,Jits_Linear_8,2,5,63,98,1716656484
5717,18,Jits_Linear_8,0,1,48,28,1716946568
5717,18,Jits_Linear_8,1,5,80,127,1717186884
5717,18,Jits_Linear_8,2,5,63,98,1717226828
5717,18,Jits_Linear_8,3,5,56,103,1717266916
5717,18,Jits_Linear_8,0,1,48,39,1717621808
5717,18,Jits_Linear_8,1,5,63,98,1717757212
5717,18,Jits_Linear_8,2,5,80,127,1717817004
5717,18,Jits_Linear_8,3,5,56,103,1717847280
5717,18,Jits_Linear_8,0,1,48,38,1718312748
5717,18,Jits_Linear_8,1,5,56,103,1718357212
5717,18,Jits_Linear_8,2,5,80,127,1718386988
5717,18,Jits_Linear_8,3,5,63,98,1718477104
5717,18,Jits_Linear_8,0,1,48,33,1718829056
5717,18,Jits_Linear_8,1,5,56,103,1718957364
5717,18,Jits_Linear_8,2,5,80,127,1719066980
5717,18,Jits_Linear_8,3,5,63,98,1719096804
5717,18,Jits_Linear_8,0,1,48,32,1719446464
5717,18,Jits_Linear_8,1,5,56,103,1719597596
5717,18,Jits_Linear_8,2,5,63,98,1719656796
5717,18,Jits_Linear_8,3,5,80,127,1719686716
5717,18,Jits_Linear_8,0,1,48,35,1720050508
5717,18,Jits_Linear_8,1,5,56,103,1720156616
5717,18,Jits_Linear_8,2,5,63,98,1720227148
5717,18,Jits_Linear_8,3,5,80,127,1720246636
5717,18,Jits_Linear_8,0,1,48,28,1720651552
5717,18,Jits_Linear_8,1,5,80,127,1720716720
5717,18,Jits_Linear_8,2,5,63,98,1720737108
5717,18,Jits_Linear_8,3,5,56,103,1720787292
5717,18,Jits_Linear_8,0,1,48,27,1721236892
5717,18,Jits_Linear_8,1,5,63,98,1721316860
5717,18,Jits_Linear_8,2,5,80,127,1721326912
5717,18,Jits_Linear_8,3,5,56,103,1721377024
5717,18,Jits_Linear_8,0,1,48,31,1721827672
5717,18,Jits_Linear_8,1,5,63,98,1721897300
5717,18,Jits_Linear_8,2,5,80,127,1721966820
5717,18,Jits_Linear_8,3,5,56,103,1721986628
5717,18,Jits_Linear_8,0,1,48,38,1722435012
5717,18,Jits_Linear_8,1,5,63,98,1722506756
5717,18,Jits_Linear_8,2,5,80,127,1722509972
5717,18,Jits_Linear_8,3,5,56,103,1722577172
5717,18,Jits_Linear_8,0,5,80,127,1723036924
5717,18,Jits_Linear_8,1,1,48,43,1723037888
5717,18,Jits_Linear_8,2,5,56,103,1723056700
5717,18,Jits_Linear_8,3,5,63,98,1723066972
5717,18,Jits_Linear_8,0,5,56,103,1723637072
5717,18,Jits_Linear_8,1,1,48,43,1723643108
5717,18,Jits_Linear_8,2,5,63,98,1723727120
5717,18,Jits_Linear_8,3,5,80,127,1723730712
5717,18,Jits_Linear_8,0,5,80,127,1724186948
5717,18,Jits_Linear_8,1,5,56,103,1724197220
5717,18,Jits_Linear_8,2,5,63,98,1724216632
5717,18,Jits_Linear_8,3,1,48,38,1724277164
5717,18,Jits_Linear_8,0,5,63,98,1724757580
5717,18,Jits_Linear_8,1,5,80,127,1724816876
5717,18,Jits_Linear_8,2,5,56,103,1724826924
5717,18,Jits_Linear_8,3,1,48,37,1724830040
5717,18,Jits_Linear_8,0,5,63,98,1725397308
5717,18,Jits_Linear_8,1,1,48,35,1725416692
5717,18,Jits_Linear_8,2,5,80,127,1725427052
5717,18,Jits_Linear_8,3,5,56,103,1725466916
5717,18,Jits_Linear_8,0,5,56,103,1725956624
5717,18,Jits_Linear_8,1,5,80,127,1725966748
5717,18,Jits_Linear_8,2,1,48,36,1725992412
5717,18,Jits_Linear_8,3,5,63,98,1726006756
5717,18,Jits_Linear_8,0,5,80,127,1726486808
5717,18,Jits_Linear_8,1,5,56,103,1726566684
5717,18,Jits_Linear_8,2,5,63,98,1726576880
5717,18,Jits_Linear_8,3,1,48,36,1726586244
5717,18,Jits_Linear_8,0,5,80,127,1727097176
5717,18,Jits_Linear_8,1,1,48,39,1727155968
5717,18,Jits_Linear_8,2,5,56,103,1727177116
5717,18,Jits_Linear_8,3,5,63,98,1727187240
5717,18,Jits_Linear_8,0,5,80,127,1727617700
5717,18,Jits_Linear_8,1,5,56,103,1727666560
5717,18,Jits_Linear_8,2,5,63,98,1727716908
5717,18,Jits_Linear_8,3,1,48,43,1727771492
5717,18,Jits_Linear_8,0,5,56,103,1728236812
5717,18,Jits_Linear_8,1,5,63,98,1728240036
5717,18,Jits_Linear_8,2,5,80,127,1728287096
5717,18,Jits_Linear_8,3,1,48,44,1728305580
5717,18,Jits_Linear_8,0,5,56,103,1728816524
5717,18,Jits_Linear_8,1,5,63,98,1728847172
5717,18,Jits_Linear_8,2,5,80,127,1728856396
5717,18,Jits_Linear_8,3,1,48,44,1728880112
5717,18,Jits_Linear_8,0,5,63,98,1729286476
5717,18,Jits_Linear_8,1,5,56,103,1729357280
5717,18,Jits_Linear_8,2,5,80,127,1729407284
5717,18,Jits_Linear_8,3,1,48,43,1729450552
5717,18,Jits_Linear_8,0,5,63,98,1729877328
5717,18,Jits_Linear_8,1,5,56,103,1729886552
5717,18,Jits_Linear_8,2,5,80,127,1729889544
5717,18,Jits_Linear_8,3,1,48,43,1730023712
5717,18,Jits_Linear_8,0,5,80,127,1730377068
5717,18,Jits_Linear_8,1,5,56,103,1730436436
5717,18,Jits_Linear_8,2,5,63,98,1730526644
5717,18,Jits_Linear_8,3,1,48,37,1730587372
5717,18,Jits_Linear_8,0,5,80,127,1730927028
5717,18,Jits_Linear_8,1,5,56,103,1731027528
5717,18,Jits_Linear_8,2,5,63,98,1731067316
5717,18,Jits_Linear_8,3,1,48,36,1731164984
5717,18,Jits_Linear_8,0,5,56,103,1731526916
5717,18,Jits_Linear_8,1,5,63,98,1731546552
5717,18,Jits_Linear_8,2,5,80,127,1731586568
5717,18,Jits_Linear_8,3,1,48,40,1731745388
5717,18,Jits_Linear_8,0,5,63,98,1732047432
5717,18,Jits_Linear_8,1,5,56,103,1732066624
5717,18,Jits_Linear_8,2,5,80,127,1732166944
5717,18,Jits_Linear_8,3,1,48,39,1732338196
5717,18,Jits_Linear_8,0,5,63,98,1732576556
5717,18,Jits_Linear_8,1,5,80,127,1732687440
5717,18,Jits_Linear_8,2,5,56,103,1732716892
5717,18,Jits_Linear_8,0,1,48,41,1732927256
5717,18,Jits_Linear_8,1,5,56,103,1733136708
5717,18,Jits_Linear_8,2,5,63,98,1733166460
5717,18,Jits_Linear_8,3,5,80,127,1733216588
5717,18,Jits_Linear_8,0,1,48,39,1733489892
5717,18,Jits_Linear_8,1,5,63,98,1733646724
5717,18,Jits_Linear_8,2,5,56,103,1733677592
5717,18,Jits_Linear_8,3,5,80,127,1733726524
5717,18,Jits_Linear_8,0,1,48,47,1734090252
5717,18,Jits_Linear_8,1,5,56,103,1734217040
5717,18,Jits_Linear_8,2,5,63,98,1734236600
5717,18,Jits_Linear_8,3,5,80,127,1734317544
5717,18,Jits_Linear_8,0,1,48,35,1734691148
5717,18,Jits_Linear_8,1,5,63,98,1734726992
5717,18,Jits_Linear_8,2,5,56,103,1734786496
5717,18,Jits_Linear_8,3,5,80,127,1734816996
5717,18,Jits_Linear_8,0,1,48,42,1735294460
5717,18,Jits_Linear_8,1,5,56,103,1735306564
5717,18,Jits_Linear_8,2,5,80,127,1735366956
5717,18,Jits_Linear_8,3,5,63,98,1735407100
5717,18,Jits_Linear_8,0,5,63,98,1735816512
5717,18,Jits_Linear_8,1,5,56,103,1735876904
5717,18,Jits_Linear_8,2,1,48,45,1735903396
5717,18,Jits_Linear_8,3,5,80,127,1735946728
5717,18,Jits_Linear_8,0,5,56,103,1736426852
5717,18,Jits_Linear_8,1,5,63,98,1736437044
5717,18,Jits_Linear_8,2,5,80,127,1736440560
5717,18,Jits_Linear_8,3,1,48,48,1736472372
5717,18,Jits_Linear_8,0,5,63,98,1736896868
5717,18,Jits_Linear_8,1,5,56,103,1736957404
5717,18,Jits_Linear_8,2,5,80,127,1736960400
5717,18,Jits_Linear_8,3,1,48,50,1737065492
5717,18,Jits_Linear_8,0,5,63,98,1737406876
5717,18,Jits_Linear_8,1,5,80,127,1737436404
5717,18,Jits_Linear_8,2,5,56,103,1737456936
5717,18,Jits_Linear_8,3,1,48,44,1737621212
5717,18,Jits_Linear_8,0,5,56,103,1737937488
5717,18,Jits_Linear_8,1,5,63,98,1737986348
5717,18,Jits_Linear_8,2,5,80,127,1738067488
5717,18,Jits_Linear_8,3,1,48,46,1738177840
5717,18,Jits_Linear_8,0,5,80,127,1738437032
5717,18,Jits_Linear_8,1,5,63,98,1738476900
5717,18,Jits_Linear_8,2,5,56,103,1738497356
5717,18,Jits_Linear_8,0,1,48,39,1738771336
5717,18,Jits_Linear_8,1,5,56,103,1739026920
5717,18,Jits_Linear_8,2,5,80,127,1739037116
5717,18,Jits_Linear_8,3,5,63,98,1739056380
5717,18,Jits_Linear_8,0,1,48,44,1739333548
5717,18,Jits_Linear_8,1,5,56,103,1739526452
5717,18,Jits_Linear_8,2,5,63,98,1739576804
5717,18,Jits_Linear_8,3,5,80,127,1739607376
5717,18,Jits_Linear_8,0,1,48,50,1739904600
5717,18,Jits_Linear_8,1,5,56,103,1739996476
5717,18,Jits_Linear_8,2,5,63,98,1740006660
5717,18,Jits_Linear_8,3,5,80,127,1740057232
5717,18,Jits_Linear_8,0,1,48,48,1740494164
5717,18,Jits_Linear_8,1,5,56,103,1740506484
5717,18,Jits_Linear_8,2,5,80,127,1740509404
5717,18,Jits_Linear_8,3,5,63,98,1740667200
5717,18,Jits_Linear_8,0,5,63,98,1741037100
5717,18,Jits_Linear_8,1,1,48,46,1741092964
5717,18,Jits_Linear_8,2,5,56,103,1741106556
5717,18,Jits_Linear_8,3,5,80,127,1741146568
5717,18,Jits_Linear_8,0,5,63,98,1741586680
5717,18,Jits_Linear_8,1,1,48,46,1741669592
5717,18,Jits_Linear_8,2,5,56,103,1741677032
5717,18,Jits_Linear_8,3,5,80,127,1741679948
5717,18,Jits_Linear_8,0,5,56,103,1742077436
5717,18,Jits_Linear_8,1,5,63,98,1742167352
5717,18,Jits_Linear_8,2,5,80,127,1742176576
5717,18,Jits_Linear_8,3,1,48,46,1742214172
5717,18,Jits_Linear_8,0,5,56,103,1742556532
5717,18,Jits_Linear_8,1,5,63,98,1742606660
5717,18,Jits_Linear_8,2,5,80,127,1742637384
5717,18,Jits_Linear_8,3,1,48,43,1742772524
5717,18,Jits_Linear_8,0,5,63,98,1743137360
5717,18,Jits_Linear_8,1,5,80,127,1743147260
5717,18,Jits_Linear_8,2,5,56,103,1743206752
5717,18,Jits_Linear_8,3,1,48,46,1743372532
5717,18,Jits_Linear_8,0,5,63,98,1743557100
5717,18,Jits_Linear_8,1,5,80,127,1743617348
5717,18,Jits_Linear_8,2,5,56,103,1743657284
5717,18,Jits_Linear_8,0,1,48,50,1743937176
5717,18,Jits_Linear_8,1,5,56,103,1744157184
5717,18,Jits_Linear_8,2,5,80,127,1744176376
5717,18,Jits_Linear_8,3,5,63,98,1744197132
5717,18,Jits_Linear_8,0,1,48,46,1744520720
5717,18,Jits_Linear_8,1,5,63,98,1744577168
5717,18,Jits_Linear_8,2,5,56,103,1744597332
5717,18,Jits_Linear_8,3,5,80,127,1744637252
5717,18,Jits_Linear_8,0,5,63,98,1745086888
5717,18,Jits_Linear_8,1,1,48,47,1745094048
5717,18,Jits_Linear_8,2,5,80,127,1745116484
5717,18,Jits_Linear_8,3,5,56,103,1745137168
5717,18,Jits_Linear_8,0,5,80,127,1745556748
5717,18,Jits_Linear_8,1,5,56,103,1745607096
5717,18,Jits_Linear_8,2,1,48,46,1745653288
5717,18,Jits_Linear_8,3,5,63,98,1745666436
5717,18,Jits_Linear_8,0,5,63,98,1746037180
5717,18,Jits_Linear_8,1,5,56,103,1746156988
5717,18,Jits_Linear_8,2,5,80,127,1746186660
5717,18,Jits_Linear_8,3,1,48,44,1746225892
5717,18,Jits_Linear_8,0,5,80,127,1746566456
5717,18,Jits_Linear_8,1,5,63,98,1746587216
5717,18,Jits_Linear_8,2,5,56,103,1746656744
5717,18,Jits_Linear_8,3,1,48,44,1746767072
5717,18,Jits_Linear_8,0,5,63,98,1747076488
5717,18,Jits_Linear_8,1,5,56,103,1747086684
5717,18,Jits_Linear_8,2,5,80,127,1747166628
5717,18,Jits_Linear_8,3,1,48,42,1747289008
5717,18,Jits_Linear_8,0,5,56,103,1747627340
5717,18,Jits_Linear_8,1,5,80,127,1747657092
5717,18,Jits_Linear_8,2,5,63,98,1747667436
5717,18,Jits_Linear_8,0,9999,9999,9999,1637254256
5717,18,Jits_Linear_8,1,9999,9999,9999,1638074492
5717,18,Jits_Linear_8,2,9999,9999,9999,1638894668
5717,18,Jits_Linear_8,3,9999,9999,9999,1639714916
5717,18,Jits_Linear_8,4,9999,9999,9999,1640534092
5717,18,Jits_Linear_8,5,9999,9999,9999,1641344060
5717,18,Jits_Linear_8,6,9999,9999,9999,1642155120
5717,18,Jits_Linear_8,7,9999,9999,9999,1642974292
5717,18,Jits_Linear_8,8,9999,9999,9999,1643784252
5717,18,Jits_Linear_8,9,9999,9999,9999,1644594260
5717,18,Jits_Linear_8,10,9999,9999,9999,1645395008
5717,18,Jits_Linear_8,11,9999,9999,9999,1646194764
5717,18,Jits_Linear_8,12,9999,9999,9999,1646994540
5717,18,Jits_Linear_8,13,9999,9999,9999,1647794292
5717,18,Jits_Linear_8,14,9999,9999,9999,1648595004
5717,18,Jits_Linear_8,15,9999,9999,9999,1649384560
5717,18,Jits_Linear_8,16,9999,9999,9999,1650175080
5717,18,Jits_Linear_8,17,9999,9999,9999,1650964592
5717,18,Jits_Linear_8,18,9999,9999,9999,1651755064
5717,18,Jits_Linear_8,19,9999,9999,9999,1652554816
5717,18,Jits_Linear_8,20,9999,9999,9999,1653334116
5717,18,Jits_Linear_8,21,9999,9999,9999,1654114388
5717,18,Jits_Linear_8,22,9999,9999,9999,1654894668
5717,18,Jits_Linear_8,23,9999,9999,9999,1655674960
5717,18,Jits_Linear_8,24,9999,9999,9999,1656454260
5717,18,Jits_Linear_8,25,9999,9999,9999,1657224268
5717,18,Jits_Linear_8,26,9999,9999,9999,1657994356
5717,18,Jits_Linear_8,27,9999,9999,9999,1658764368
5717,18,Jits_Linear_8,28,9999,9999,9999,1659534392
5717,18,Jits_Linear_8,29,9999,9999,9999,1660304496
5717,18,Jits_Linear_8,30,9999,9999,9999,1661064316
5717,18,Jits_Linear_8,31,9999,9999,9999,1661824064
5717,18,Jits_Linear_8,32,9999,9999,9999,1662584944
5717,18,Jits_Linear_8,33,9999,9999,9999,1663344752
5717,18,Jits_Linear_8,34,9999,9999,9999,1664104508
5717,18,Jits_Linear_8,35,9999,9999,9999,1664854092
5717,18,Jits_Linear_8,36,9999,9999,9999,1665604700
5717,18,Jits_Linear_8,37,9999,9999,9999,1666354276
5717,18,Jits_Linear_8,38,9999,9999,9999,1667104892
5717,18,Jits_Linear_8,39,9999,9999,9999,1667854396
5717,18,Jits_Linear_8,40,9999,9999,9999,1668594744
5717,18,Jits_Linear_8,41,9999,9999,9999,1669334128
5717,18,Jits_Linear_8,42,9999,9999,9999,1670074468
5717,18,Jits_Linear_8,43,9999,9999,9999,1670814812
5717,18,Jits_Linear_8,44,9999,9999,9999,1671554168
5717,18,Jits_Linear_8,45,9999,9999,9999,1672284228
5717,18,Jits_Linear_8,46,9999,9999,9999,1673014400
5717,18,Jits_Linear_8,47,9999,9999,9999,1673744488
5717,18,Jits_Linear_8,48,9999,9999,9999,1674474584
5717,18,Jits_Linear_8,49,9999,9999,9999,1675204672
5717,18,Jits_Linear_8,50,9999,9999,9999,1675924560
5717,18,Jits_Linear_8,51,9999,9999,9999,1676644440
5717,18,Jits_Linear_8,52,9999,9999,9999,1677364348
5717,18,Jits_Linear_8,53,9999,9999,9999,1678084184
5717,18,Jits_Linear_8,54,9999,9999,9999,1678805056
5717,18,Jits_Linear_8,55,9999,9999,9999,1679514692
5717,18,Jits_Linear_8,56,9999,9999,9999,1680224360
5717,18,Jits_Linear_8,57,9999,9999,9999,1680934976
5717,18,Jits_Linear_8,58,9999,9999,9999,1681644612
5717,18,Jits_Linear_8,59,9999,9999,9999,1682354252
5717,18,Jits_Linear_8,60,9999,9999,9999,1683054644
5717,18,Jits_Linear_8,61,9999,9999,9999,1683755068
5717,18,Jits_Linear_8,62,9999,9999,9999,1684464704
5717,18,Jits_Linear_8,63,9999,9999,9999,1685164128
5717,18,Jits_Linear_8,64,9999,9999,9999,1685864536
5717,18,Jits_Linear_8,65,9999,9999,9999,1686554688
5717,18,Jits_Linear_8,66,9999,9999,9999,1687244928
5717,18,Jits_Linear_8,67,9999,9999,9999,1687935080
5717,18,Jits_Linear_8,68,9999,9999,9999,1688624228
5717,18,Jits_Linear_8,69,9999,9999,9999,1689314392
5717,18,Jits_Linear_8,70,9999,9999,9999,1689994356
5717,18,Jits_Linear_8,71,9999,9999,9999,1690674292
5717,18,Jits_Linear_8,72,9999,9999,9999,1691354188
5717,18,Jits_Linear_8,73,9999,9999,9999,1692034156
5717,18,Jits_Linear_8,74,9999,9999,9999,1692715084
5717,18,Jits_Linear_8,75,9999,9999,9999,1693395044
5717,18,Jits_Linear_8,76,9999,9999,9999,1694064724
5717,18,Jits_Linear_8,77,9999,9999,9999,1694734424
5717,18,Jits_Linear_8,78,9999,9999,9999,1695404128
5717,18,Jits_Linear_8,79,9999,9999,9999,1696074856
5717,18,Jits_Linear_8,80,9999,9999,9999,1696734268
5717,18,Jits_Linear_8,81,9999,9999,9999,1697394796
5717,18,Jits_Linear_8,82,9999,9999,9999,1698054224
5717,18,Jits_Linear_8,83,9999,9999,9999,1698714696
5717,18,Jits_Linear_8,84,9999,9999,9999,1699374188
5717,18,Jits_Linear_8,85,9999,9999,9999,1700024420
5717,18,Jits_Linear_8,86,9999,9999,9999,1700674684
5717,18,Jits_Linear_8,87,9999,9999,9999,1701324900
5717,18,Jits_Linear_8,88,9999,9999,9999,1701974108
5717,18,Jits_Linear_8,89,9999,9999,9999,1702624332
5717,18,Jits_Linear_8,90,9999,9999,9999,1703264320
5717,18,Jits_Linear_8,91,9999,9999,9999,1703904340
5717,18,Jits_Linear_8,92,9999,9999,9999,1704544360
5717,18,Jits_Linear_8,93,9999,9999,9999,1705184376
5717,18,Jits_Linear_8,94,9999,9999,9999,1705824380
5717,18,Jits_Linear_8,95,9999,9999,9999,1706454080
5717,18,Jits_Linear_8,96,9999,9999,9999,1707084876
5717,18,Jits_Linear_8,97,9999,9999,9999,1707714636
5717,18,Jits_Linear_8,98,9999,9999,9999,1708344392
5717,18,Jits_Linear_8,99,9999,9999,9999,1708974172
5717,18,Jits_Linear_8,100,9999,9999,9999,1709594700
5717,18,Jits_Linear_8,101,9999,9999,9999,1710214212
5717,18,Jits_Linear_8,102,9999,9999,9999,1710834744
5717,18,Jits_Linear_8,103,9999,9999,9999,1711454308
5717,18,Jits_Linear_8,104,9999,9999,9999,1712074880
5717,18,Jits_Linear_8,105,9999,9999,9999,1712684100
5717,18,Jits_Linear_8,106,9999,9999,9999,1713294448
5717,18,Jits_Linear_8,107,9999,9999,9999,1713904760
5717,18,Jits_Linear_8,108,9999,9999,9999,1714515024
5717,18,Jits_Linear_8,109,9999,9999,9999,1715124328
5717,18,Jits_Linear_8,110,9999,9999,9999,1715724352
5717,18,Jits_Linear_8,111,9999,9999,9999,1716324404
5717,18,Jits_Linear_8,112,9999,9999,9999,1716924516
5717,18,Jits_Linear_8,113,9999,9999,9999,1717524536
5717,18,Jits_Linear_8,114,9999,9999,9999,1718124600
5717,18,Jits_Linear_8,115,9999,9999,9999,1718714424
5717,18,Jits_Linear_8,116,9999,9999,9999,1719304308
5717,18,Jits_Linear_8,117,9999,9999,9999,1719894124
5717,18,Jits_Linear_8,118,9999,9999,9999,1720484928
5717,18,Jits_Linear_8,119,9999,9999,9999,1721074804
5717,18,Jits_Linear_8,120,9999,9999,9999,1721654344
5717,18,Jits_Linear_8,121,9999,9999,9999,1722234960
5717,18,Jits_Linear_8,122,9999,9999,9999,1722814568
5717,18,Jits_Linear_8,123,9999,9999,9999,1723394172
5717,18,Jits_Linear_8,124,9999,9999,9999,1723974768
5717,18,Jits_Linear_8,125,9999,9999,9999,1724544076
5717,18,Jits_Linear_8,126,9999,9999,9999,1725114484
5717,18,Jits_Linear_8,127,9999,9999,9999,1725684816
5717,18,Jits_Linear_8,128,9999,9999,9999,1726254172
5717,18,Jits_Linear_8,129,9999,9999,9999,1726824512
5717,18,Jits_Linear_8,130,9999,9999,9999,1727384692
5717,18,Jits_Linear_8,131,9999,9999,9999,1727944768
5717,18,Jits_Linear_8,132,9999,9999,9999,1728504916
5717,18,Jits_Linear_8,133,9999,9999,9999,1729065072
5717,18,Jits_Linear_8,134,9999,9999,9999,1729624176
5717,18,Jits_Linear_8,135,9999,9999,9999,1730175036
5717,18,Jits_Linear_8,136,9999,9999,9999,1730724984
5717,18,Jits_Linear_8,137,9999,9999,9999,1731274872
5717,18,Jits_Linear_8,138,9999,9999,9999,1731824704
5717,18,Jits_Linear_8,139,9999,9999,9999,1732374592
5717,18,Jits_Linear_8,140,9999,9999,9999,1732914284
5717,18,Jits_Linear_8,141,9999,9999,9999,1733454952
5717,18,Jits_Linear_8,142,9999,9999,9999,1733994560
5717,18,Jits_Linear_8,143,9999,9999,9999,1734534260
5717,18,Jits_Linear_8,144,9999,9999,9999,1735074916
5717,18,Jits_Linear_8,145,9999,9999,9999,1735604344
5717,18,Jits_Linear_8,146,9999,9999,9999,1736134736
5717,18,Jits_Linear_8,147,9999,9999,9999,1736664156
5717,18,Jits_Linear_8,148,9999,9999,9999,1737194556
5717,18,Jits_Linear_8,149,9999,9999,9999,1737725020
5717,18,Jits_Linear_8,150,9999,9999,9999,1738244200
5717,18,Jits_Linear_8,151,9999,9999,9999,1738764344
5717,18,Jits_Linear_8,152,9999,9999,9999,1739284560
5717,18,Jits_Linear_8,153,9999,9999,9999,1739804768
5717,18,Jits_Linear_8,154,9999,9999,9999,1740324968
5717,18,Jits_Linear_8,155,9999,9999,9999,1740834900
5717,18,Jits_Linear_8,156,9999,9999,9999,1741344844
5717,18,Jits_Linear_8,157,9999,9999,9999,1741854780
5717,18,Jits_Linear_8,158,9999,9999,9999,1742364728
5717,18,Jits_Linear_8,159,9999,9999,9999,1742874680
5717,18,Jits_Linear_8,160,9999,9999,9999,1743374396
5717,18,Jits_Linear_8,161,9999,9999,9999,1743874152
5717,18,Jits_Linear_8,162,9999,9999,9999,1744374896
5717,18,Jits_Linear_8,163,9999,9999,9999,1744874572
5717,18,Jits_Linear_8,164,9999,9999,9999,1745374324
5717,18,Jits_Linear_8,165,9999,9999,9999,1745864784
5717,18,Jits_Linear_8,166,9999,9999,9999,1746354288
5717,18,Jits_Linear_8,167,9999,9999,9999,1746844768
5717,18,Jits_Linear_8,168,9999,9999,9999,1747334272
5717,18,Jits_Linear_8,169,9999,9999,9999,1747824748
5718,17,Jits_Phase_5,0,5,56,103,1758630208
5718,17,Jits_Phase_5,1,5,63,98,1758633232
5718,17,Jits_Phase_5,2,5,80,127,1758636576
5718,17,Jits_Phase_5,0,5,56,103,1759130144
5718,17,Jits_Phase_5,1,5,63,98,1759133092
5718,17,Jits_Phase_5,2,5,80,127,1759136364
5718,17,Jits_Phase_5,0,5,56,103,1759629868
5718,17,Jits_Phase_5,1,5,80,127,1759639916
5718,17,Jits_Phase_5,2,5,63,98,1759660448
5718,17,Jits_Phase_5,0,5,63,98,1760080280
5718,17,Jits_Phase_5,1,5,80,127,1760110028
5718,17,Jits_Phase_5,2,5,56,103,1760120148
5718,17,Jits_Phase_5,0,1,48,40,1760605168
5718,17,Jits_Phase_5,1,5,80,127,1760640512
5718,17,Jits_Phase_5,2,5,56,103,1760649736
5718,17,Jits_Phase_5,3,5,63,98,1760680232
5718,17,Jits_Phase_5,0,1,48,40,1761118488
5718,17,Jits_Phase_5,1,5,63,98,1761129820
5718,17,Jits_Phase_5,2,5,56,103,1761159744
5718,17,Jits_Phase_5,3,5,80,127,1761169864
5718,17,Jits_Phase_5,0,5,56,103,1761580284
5718,17,Jits_Phase_5,1,1,48,41,1761623484
5718,17,Jits_Phase_5,2,5,63,98,1761629656
5718,17,Jits_Phase_5,3,5,80,127,1761649988
5718,17,Jits_Phase_5,0,5,80,127,1762090312
5718,17,Jits_Phase_5,1,1,48,42,1762122800
5718,17,Jits_Phase_5,2,5,63,98,1762139608
5718,17,Jits_Phase_5,3,5,56,103,1762179420
5718,17,Jits_Phase_5,0,5,56,103,1762590000
5718,17,Jits_Phase_5,1,5,63,98,1762619972
5718,17,Jits_Phase_5,2,1,48,37,1762623764
5718,17,Jits_Phase_5,3,5,80,127,1762690712
5718,17,Jits_Phase_5,0,5,56,103,1763089688
5718,17,Jits_Phase_5,1,1,48,40,1763100596
5718,17,Jits_Phase_5,2,5,80,127,1763150144
5718,17,Jits_Phase_5,3,5,63,98,1763179968
5718,17,Jits_Phase_5,0,5,56,103,1763599712
5718,17,Jits_Phase_5,1,5,63,98,1763609908
5718,17,Jits_Phase_5,2,1,48,47,1763633184
5718,17,Jits_Phase_5,3,5,80,127,1763649840
5718,17,Jits_Phase_5,0,5,63,98,1764090332
5718,17,Jits_Phase_5,1,1,48,40,1764145364
5718,17,Jits_Phase_5,2,5,80,127,1764170192
5718,17,Jits_Phase_5,3,5,56,103,1764180536
5718,17,Jits_Phase_5,0,1,48,41,1764627892
5718,17,Jits_Phase_5,1,5,63,98,1764639976
5718,17,Jits_Phase_5,2,5,56,103,1764679984
5718,17,Jits_Phase_5,3,5,80,127,1764682976
5718,17,Jits_Phase_5,0,5,56,103,1765099792
5718,17,Jits_Phase_5,1,5,63,98,1765110208
5718,17,Jits_Phase_5,2,1,48,45,1765140900
5718,17,Jits_Phase_5,3,5,80,127,1765149992
5718,17,Jits_Phase_5,0,5,56,103,1765590556
5718,17,Jits_Phase_5,1,5,63,98,1765593700
5718,17,Jits_Phase_5,2,5,80,127,1765609820
5718,17,Jits_Phase_5,3,1,48,47,1765618940
5718,17,Jits_Phase_5,0,5,80,127,1766109716
5718,17,Jits_Phase_5,1,1,48,44,1766120284
5718,17,Jits_Phase_5,2,5,56,103,1766121324
5718,17,Jits_Phase_5,3,5,63,98,1766189360
5718,17,Jits_Phase_5,0,5,63,98,1766600112
5718,17,Jits_Phase_5,1,5,56,103,1766619676
5718,17,Jits_Phase_5,2,1,48,47,1766646836
5718,17,Jits_Phase_5,3,5,80,127,1766700652
5718,17,Jits_Phase_5,0,5,56,103,1767110052
5718,17,Jits_Phase_5,1,1,48,43,1767121040
5718,17,Jits_Phase_5,2,5,80,127,1767149908
5718,17,Jits_Phase_5,3,5,63,98,1767160180
5718,17,Jits_Phase_5,0,5,80,127,1767599624
5718,17,Jits_Phase_5,1,5,63,98,1767630200
5718,17,Jits_Phase_5,2,1,48,48,1767639688
5718,17,Jits_Phase_5,3,5,56,103,1767670052
5718,17,Jits_Phase_5,0,5,56,103,1768119688
5718,17,Jits_Phase_5,1,5,63,98,1768150636
5718,17,Jits_Phase_5,2,1,48,44,1768155328
5718,17,Jits_Phase_5,3,5,80,127,1768199632
5718,17,Jits_Phase_5,0,5,80,127,1768620576
5718,17,Jits_Phase_5,1,1,48,43,1768646092
5718,17,Jits_Phase_5,2,5,56,103,1768660508
5718,17,Jits_Phase_5,3,5,63,98,1768669656
5718,17,Jits_Phase_5,0,5,80,127,1769099588
5718,17,Jits_Phase_5,1,5,63,98,1769139528
5718,17,Jits_Phase_5,2,1,48,39,1769150436
5718,17,Jits_Phase_5,3,5,56,103,1769199984
5718,17,Jits_Phase_5,0,5,56,103,1769600476
5718,17,Jits_Phase_5,1,5,80,127,1769609624
5718,17,Jits_Phase_5,2,1,48,39,1769627640
5718,17,Jits_Phase_5,3,5,63,98,1769689856
5718,17,Jits_Phase_5,0,5,80,127,1770100012
5718,17,Jits_Phase_5,1,1,48,45,1770129660
5718,17,Jits_Phase_5,2,5,63,98,1770159424
5718,17,Jits_Phase_5,3,5,56,103,1770190144
5718,17,Jits_Phase_5,0,5,56,103,1770599900
5718,17,Jits_Phase_5,1,1,48,46,1770649800
5718,17,Jits_Phase_5,2,5,80,127,1770660084
5718,17,Jits_Phase_5,3,5,63,98,1770700020
5718,17,Jits_Phase_5,0,5,56,103,1771149664
5718,17,Jits_Phase_5,1,1,48,43,1771154424
5718,17,Jits_Phase_5,2,5,63,98,1771159848
5718,17,Jits_Phase_5,3,5,80,127,1771163512
5718,17,Jits_Phase_5,0,5,80,127,1771600244
5718,17,Jits_Phase_5,1,1,48,45,1771659204
5718,17,Jits_Phase_5,2,5,63,98,1771690396
5718,17,Jits_Phase_5,3,5,56,103,1771699468
5718,17,Jits_Phase_5,0,5,56,103,1772099912
5718,17,Jits_Phase_5,1,5,63,98,1772102940
5718,17,Jits_Phase_5,2,5,80,127,1772106140
5718,17,Jits_Phase_5,3,1,48,43,1772157524
5718,17,Jits_Phase_5,0,5,80,127,1772620124
5718,17,Jits_Phase_5,1,1,48,38,1772638756
5718,17,Jits_Phase_5,2,5,63,98,1772670416
5718,17,Jits_Phase_5,3,5,56,103,1772699944
5718,17,Jits_Phase_5,0,5,56,103,1773100560
5718,17,Jits_Phase_5,1,5,80,127,1773109484
5718,17,Jits_Phase_5,2,1,48,44,1773110452
5718,17,Jits_Phase_5,3,5,63,98,1773180376
5718,17,Jits_Phase_5,0,5,56,103,1773610508
5718,17,Jits_Phase_5,1,1,48,42,1773616844
5718,17,Jits_Phase_5,2,5,63,98,1773629768
5718,17,Jits_Phase_5,3,5,80,127,1773690400
5718,17,Jits_Phase_5,0,5,80,127,1774099712
5718,17,Jits_Phase_5,1,1,48,43,1774121488
5718,17,Jits_Phase_5,2,5,63,98,1774169536
5718,17,Jits_Phase_5,3,5,56,103,1774189920
5718,17,Jits_Phase_5,0,5,80,127,1774620004
5718,17,Jits_Phase_5,1,5,56,103,1774630420
5718,17,Jits_Phase_5,2,1,48,42,1774634960
5718,17,Jits_Phase_5,3,5,63,98,1774639712
5718,17,Jits_Phase_5,0,5,80,127,1775109500
5718,17,Jits_Phase_5,1,5,56,103,1775129884
5718,17,Jits_Phase_5,2,1,48,41,1775155096
5718,17,Jits_Phase_5,3,5,63,98,1775199556
5718,17,Jits_Phase_5,0,5,56,103,1775619528
5718,17,Jits_Phase_5,1,5,80,127,1775650548
5718,17,Jits_Phase_5,2,1,48,40,1775655536
5718,17,Jits_Phase_5,3,5,63,98,1775669580
5718,17,Jits_Phase_5,0,5,63,98,1776109924
5718,17,Jits_Phase_5,1,5,56,103,1776170460
5718,17,Jits_Phase_5,2,1,48,40,1776184140
5718,17,Jits_Phase_5,3,5,80,127,1776200204
5718,17,Jits_Phase_5,0,5,63,98,1776600604
5718,17,Jits_Phase_5,1,5,80,127,1776603820
5718,17,Jits_Phase_5,2,1,48,43,1776657820
5718,17,Jits_Phase_5,3,5,56,103,1776689456
5718,17,Jits_Phase_5,0,1,48,44,1777115740
5718,17,Jits_Phase_5,1,5,56,103,1777119520
5718,17,Jits_Phase_5,2,5,63,98,1777150612
5718,17,Jits_Phase_5,3,5,80,127,1777190400
5718,17,Jits_Phase_5,0,5,63,98,1777620400
5718,17,Jits_Phase_5,1,1,48,45,1777645692
5718,17,Jits_Phase_5,2,5,56,103,1777660480
5718,17,Jits_Phase_5,3,5,80,127,1777679592
5718,17,Jits_Phase_5,0,1,48,47,1778126624
5718,17,Jits_Phase_5,1,5,63,98,1778130408
5718,17,Jits_Phase_5,2,5,56,103,1778170496
5718,17,Jits_Phase_5,3,5,80,127,1778179420
5718,17,Jits_Phase_5,0,5,80,127,1778609488
5718,17,Jits_Phase_5,1,1,48,41,1778632384
5718,17,Jits_Phase_5,2,5,63,98,1778680208
5718,17,Jits_Phase_5,3,5,56,103,1778699696
5718,17,Jits_Phase_5,0,5,56,103,1779099964
5718,17,Jits_Phase_5,1,1,48,43,1779116708
5718,17,Jits_Phase_5,2,5,80,127,1779119444
5718,17,Jits_Phase_5,3,5,63,98,1779160576
5718,17,Jits_Phase_5,0,1,48,43,1779588980
5718,17,Jits_Phase_5,1,5,63,98,1779609908
5718,17,Jits_Phase_5,2,5,80,127,1779629396
5718,17,Jits_Phase_5,3,5,56,103,1779670600
5718,17,Jits_Phase_5,0,1,48,39,1780060832
5718,17,Jits_Phase_5,1,5,63,98,1780109732
5718,17,Jits_Phase_5,2,5,56,103,1780130264
5718,17,Jits_Phase_5,3,5,80,127,1780140384
5718,17,Jits_Phase_5,0,1,48,41,1780553084
5718,17,Jits_Phase_5,1,5,80,127,1780610448
5718,17,Jits_Phase_5,2,5,56,103,1780629784
5718,17,Jits_Phase_5,3,5,63,98,1780659596
5718,17,Jits_Phase_5,0,1,48,39,1781057092
5718,17,Jits_Phase_5,1,5,56,103,1781179704
5718,17,Jits_Phase_5,2,5,80,127,1781182772
5718,17,Jits_Phase_5,3,5,63,98,1781200312
5718,17,Jits_Phase_5,0,1,48,42,1781569212
5718,17,Jits_Phase_5,1,5,63,98,1781599580
5718,17,Jits_Phase_5,2,5,56,103,1781630324
5718,17,Jits_Phase_5,3,5,80,127,1781689648
5718,17,Jits_Phase_5,0,1,48,38,1782082440
5718,17,Jits_Phase_5,1,5,63,98,1782180324
5718,17,Jits_Phase_5,2,5,56,103,1782189400
5718,17,Jits_Phase_5,3,5,80,127,1782199744
5718,17,Jits_Phase_5,0,1,48,36,1782627064
5718,17,Jits_Phase_5,1,5,56,103,1782640012
5718,17,Jits_Phase_5,2,5,80,127,1782669764
5718,17,Jits_Phase_5,3,5,63,98,1782679956
5718,17,Jits_Phase_5,0,1,48,41,1783124276
5718,17,Jits_Phase_5,1,5,63,98,1783179700
5718,17,Jits_Phase_5,2,5,56,103,1783189892
5718,17,Jits_Phase_5,3,5,80,127,1783210428
5718,17,Jits_Phase_5,0,5,56,103,1783609684
5718,17,Jits_Phase_5,1,1,48,40,1783656320
5718,17,Jits_Phase_5,2,5,63,98,1783670388
5718,17,Jits_Phase_5,3,5,80,127,1783673676
5718,17,Jits_Phase_5,0,5,80,127,1784130036
5718,17,Jits_Phase_5,1,5,56,103,1784140304
5718,17,Jits_Phase_5,2,1,48,44,1784155104
5718,17,Jits_Phase_5,3,5,63,98,1784209704
5718,17,Jits_Phase_5,0,5,80,127,1784620360
5718,17,Jits_Phase_5,1,1,48,43,1784671652
5718,17,Jits_Phase_5,2,5,56,103,1784690056
5718,17,Jits_Phase_5,3,5,63,98,1784700252
5718,17,Jits_Phase_5,0,5,63,98,1785160280
5718,17,Jits_Phase_5,1,1,48,48,1785170700
5718,17,Jits_Phase_5,2,5,56,103,1785171812
5718,17,Jits_Phase_5,3,5,80,127,1785189660
5718,17,Jits_Phase_5,0,5,80,127,1785609612
5718,17,Jits_Phase_5,1,5,63,98,1785669928
5718,17,Jits_Phase_5,2,1,48,46,1785680316
5718,17,Jits_Phase_5,3,5,56,103,1785709932
5718,17,Jits_Phase_5,0,5,56,103,1786150108
5718,17,Jits_Phase_5,1,5,63,98,1786159404
5718,17,Jits_Phase_5,2,1,48,51,1786194656
5718,17,Jits_Phase_5,3,5,80,127,1786200308
5718,17,Jits_Phase_5,0,5,56,103,1786610312
5718,17,Jits_Phase_5,1,5,80,127,1786639688
5718,17,Jits_Phase_5,2,5,63,98,1786690108
5718,17,Jits_Phase_5,3,1,48,48,1786691520
5718,17,Jits_Phase_5,0,5,56,103,1787149560
5718,17,Jits_Phase_5,1,5,63,98,1787189572
5718,17,Jits_Phase_5,2,1,48,53,1787192788
5718,17,Jits_Phase_5,3,5,80,127,1787194348
5718,17,Jits_Phase_5,0,5,56,103,1787650364
5718,17,Jits_Phase_5,1,5,63,98,1787659516
5718,17,Jits_Phase_5,2,1,48,47,1787674692
5718,17,Jits_Phase_5,3,5,80,127,1787680336
5718,17,Jits_Phase_5,0,5,56,103,1788110344
5718,17,Jits_Phase_5,1,5,80,127,1788113408
5718,17,Jits_Phase_5,2,5,63,98,1788150280
5718,17,Jits_Phase_5,3,1,48,48,1788154000
5718,17,Jits_Phase_5,0,5,63,98,1788649804
5718,17,Jits_Phase_5,1,1,48,47,1788653148
5718,17,Jits_Phase_5,2,5,56,103,1788679396
5718,17,Jits_Phase_5,3,5,80,127,1788700152
5718,17,Jits_Phase_5,0,5,80,127,1789120032
5718,17,Jits_Phase_5,1,5,56,103,1789130080
5718,17,Jits_Phase_5,2,5,63,98,1789140276
5718,17,Jits_Phase_5,3,1,48,46,1789160176
5718,17,Jits_Phase_5,0,5,56,103,1789619496
5718,17,Jits_Phase_5,1,1,48,47,1789646060
5718,17,Jits_Phase_5,2,5,80,127,1789659428
5718,17,Jits_Phase_5,3,5,63,98,1789690220
5718,17,Jits_Phase_5,0,1,48,43,1790118480
5718,17,Jits_Phase_5,1,5,63,98,1790129664
5718,17,Jits_Phase_5,2,5,80,127,1790139712
5718,17,Jits_Phase_5,3,5,56,103,1790150056
5718,17,Jits_Phase_5,0,5,56,103,1790620200
5718,17,Jits_Phase_5,1,1,48,40,1790627132
5718,17,Jits_Phase_5,2,5,63,98,1790689648
5718,17,Jits_Phase_5,3,5,80,127,1790699996
5718,17,Jits_Phase_5,0,5,80,127,1791130004
5718,17,Jits_Phase_5,1,5,56,103,1791140124
5718,17,Jits_Phase_5,2,1,48,46,1791141092
5718,17,Jits_Phase_5,3,5,63,98,1791190392
5718,17,Jits_Phase_5,0,5,80,127,1791640104
5718,17,Jits_Phase_5,1,1,48,48,1791641144
5718,17,Jits_Phase_5,2,5,56,103,1791700336
5718,17,Jits_Phase_5,3,5,63,98,1791729936
5718,17,Jits_Phase_5,0,5,56,103,1792139568
5718,17,Jits_Phase_5,1,5,80,127,1792142560
5718,17,Jits_Phase_5,2,1,48,48,1792169512
5718,17,Jits_Phase_5,3,5,63,98,1792179500
5718,17,Jits_Phase_5,0,1,48,50,1792653292
5718,17,Jits_Phase_5,1,5,56,103,1792670252
5718,17,Jits_Phase_5,2,5,63,98,1792699856
5718,17,Jits_Phase_5,3,5,80,127,1792710196
5718,17,Jits_Phase_5,0,1,48,49,1793140988
5718,17,Jits_Phase_5,1,5,63,98,1793180192
5718,17,Jits_Phase_5,2,5,80,127,1793190240
5718,17,Jits_Phase_5,3,5,56,103,1793199464
5718,17,Jits_Phase_5,0,5,80,127,1793629504
5718,17,Jits_Phase_5,1,1,48,50,1793643260
5718,17,Jits_Phase_5,2,5,56,103,1793679948
5718,17,Jits_Phase_5,3,5,63,98,1793683088
5718,17,Jits_Phase_5,0,1,48,51,1794153500
5718,17,Jits_Phase_5,1,5,56,103,1794160140
5718,17,Jits_Phase_5,2,5,80,127,1794179404
5718,17,Jits_Phase_5,3,5,63,98,1794189676
5718,17,Jits_Phase_5,0,5,63,98,1794640168
5718,17,Jits_Phase_5,1,1,48,47,1794664712
5718,17,Jits_Phase_5,2,5,56,103,1794670304
5718,17,Jits_Phase_5,3,5,80,127,1794690316
5718,17,Jits_Phase_5,0,5,56,103,1795150176
5718,17,Jits_Phase_5,1,5,80,127,1795160448
5718,17,Jits_Phase_5,2,1,48,47,1795163112
5718,17,Jits_Phase_5,3,5,63,98,1795230068
5718,17,Jits_Phase_5,0,5,63,98,1795639672
5718,17,Jits_Phase_5,1,1,48,43,1795669316
5718,17,Jits_Phase_5,2,5,80,127,1795679676
5718,17,Jits_Phase_5,3,5,56,103,1795719488
5718,17,Jits_Phase_5,0,1,48,46,1796149008
5718,17,Jits_Phase_5,1,5,56,103,1796150352
5718,17,Jits_Phase_5,2,5,63,98,1796159948
5718,17,Jits_Phase_5,3,5,80,127,1796180332
5718,17,Jits_Phase_5,0,1,48,45,1796675988
5718,17,Jits_Phase_5,1,5,63,98,1796690256
5718,17,Jits_Phase_5,2,5,80,127,1796709740
5718,17,Jits_Phase_5,3,5,56,103,1796730224
5718,17,Jits_Phase_5,0,5,56,103,1797129556
5718,17,Jits_Phase_5,1,5,80,127,1797209424
5718,17,Jits_Phase_5,2,1,48,35,1797215536
5718,17,Jits_Phase_5,3,5,63,98,1797219836
5718,17,Jits_Phase_5,0,5,80,127,1797670224
5718,17,Jits_Phase_5,1,5,63,98,1797679448
5718,17,Jits_Phase_5,2,5,56,103,1797710168
5718,17,Jits_Phase_5,3,1,48,48,1797729324
5718,17,Jits_Phase_5,0,5,63,98,1798129984
5718,17,Jits_Phase_5,1,5,80,127,1798169920
5718,17,Jits_Phase_5,2,5,56,103,1798230456
5718,17,Jits_Phase_5,3,1,48,51,1798237244
5718,17,Jits_Phase_5,0,5,63,98,1798640144
5718,17,Jits_Phase_5,1,5,56,103,1798690124
5718,17,Jits_Phase_5,2,5,80,127,1798719796
5718,17,Jits_Phase_5,3,1,48,46,1798741940
5718,17,Jits_Phase_5,0,5,80,127,1799139968
5718,17,Jits_Phase_5,1,5,63,98,1799149940
5718,17,Jits_Phase_5,2,5,56,103,1799219468
5718,17,Jits_Phase_5,3,1,48,46,1799238472
5718,17,Jits_Phase_5,0,5,80,127,1799700044
5718,17,Jits_Phase_5,1,1,48,51,1799707956
5718,17,Jits_Phase_5,2,5,56,103,1799710084
5718,17,Jits_Phase_5,3,5,63,98,1799713300
5718,17,Jits_Phase_5,0,5,56,103,1800140024
5718,17,Jits_Phase_5,1,5,80,127,1800159732
5718,17,Jits_Phase_5,2,5,63,98,1800169856
5718,17,Jits_Phase_5,3,1,48,49,1800210056
5718,17,Jits_Phase_5,0,5,63,98,1800650052
5718,17,Jits_Phase_5,1,5,56,103,1800689992
5718,17,Jits_Phase_5,2,5,80,127,1800709624
5718,17,Jits_Phase_5,3,1,48,46,1800724352
5718,17,Jits_Phase_5,0,5,63,98,1801149804
5718,17,Jits_Phase_5,1,5,56,103,1801210112
5718,17,Jits_Phase_5,2,5,80,127,1801213336
5718,17,Jits_Phase_5,3,1,48,47,1801233464
5718,17,Jits_Phase_5,0,5,56,103,1801609468
5718,17,Jits_Phase_5,1,5,80,127,1801630148
5718,17,Jits_Phase_5,2,5,63,98,1801669936
5718,17,Jits_Phase_5,3,1,48,46,1801753356
5718,17,Jits_Phase_5,0,5,56,103,1802139944
5718,17,Jits_Phase_5,1,5,63,98,1802159580
5718,17,Jits_Phase_5,2,5,80,127,1802169848
5718,17,Jits_Phase_5,3,1,48,47,1802254916
5718,17,Jits_Phase_5,0,5,80,127,1802609968
5718,17,Jits_Phase_5,1,5,56,103,1802640012
5718,17,Jits_Phase_5,2,5,63,98,1802679728
5718,17,Jits_Phase_5,3,1,48,41,1802773332
5718,17,Jits_Phase_5,0,5,80,127,1803119988
5718,17,Jits_Phase_5,1,5,56,103,1803139328
5718,17,Jits_Phase_5,2,5,63,98,1803199936
5718,17,Jits_Phase_5,3,1,48,45,1803243428
5718,17,Jits_Phase_5,0,5,56,103,1803629944
5718,17,Jits_Phase_5,1,5,80,127,1803650328
5718,17,Jits_Phase_5,2,5,63,98,1803709888
5718,17,Jits_Phase_5,3,1,48,39,1803721852
5718,17,Jits_Phase_5,0,5,80,127,1804110052
5718,17,Jits_Phase_5,1,5,56,103,1804120396
5718,17,Jits_Phase_5,2,5,63,98,1804160508
5718,17,Jits_Phase_5,3,1,48,46,1804225948
5718,17,Jits_Phase_5,0,5,63,98,1804609888
5718,17,Jits_Phase_5,1,5,56,103,1804649824
5718,17,Jits_Phase_5,2,5,80,127,1804653036
5718,17,Jits_Phase_5,3,1,48,44,1804732044
5718,17,Jits_Phase_5,0,5,63,98,1805130120
5718,17,Jits_Phase_5,1,5,80,127,1805169932
5718,17,Jits_Phase_5,2,5,56,103,1805199980
5718,17,Jits_Phase_5,3,1,48,47,1805232244
5718,17,Jits_Phase_5,0,5,56,103,1805619604
5718,17,Jits_Phase_5,1,5,63,98,1805630096
5718,17,Jits_Phase_5,2,5,80,127,1805659624
5718,17,Jits_Phase_5,3,1,48,47,1805725764
5718,17,Jits_Phase_5,0,5,80,127,1806110000
5718,17,Jits_Phase_5,1,5,63,98,1806179752
5718,17,Jits_Phase_5,2,5,56,103,1806190120
5718,17,Jits_Phase_5,3,1,48,42,1806225000
5718,17,Jits_Phase_5,0,5,63,98,1806609764
5718,17,Jits_Phase_5,1,5,56,103,1806680564
5718,17,Jits_Phase_5,2,5,80,127,1806689712
5718,17,Jits_Phase_5,3,1,48,47,1806719900
5718,17,Jits_Phase_5,0,5,63,98,1807089884
5718,17,Jits_Phase_5,1,5,56,103,1807109596
5718,17,Jits_Phase_5,2,5,80,127,1807149380
5718,17,Jits_Phase_5,3,1,48,48,1807211452
5718,17,Jits_Phase_5,0,5,56,103,1807570228
5718,17,Jits_Phase_5,1,5,63,98,1807579752
5718,17,Jits_Phase_5,2,5,80,127,1807660292
5718,17,Jits_Phase_5,3,1,48,51,1807706404
5718,17,Jits_Phase_5,0,5,63,98,1808059728
5718,17,Jits_Phase_5,1,5,56,103,1808089404
5718,17,Jits_Phase_5,2,5,80,127,1808130612
5718,17,Jits_Phase_5,3,1,48,48,1808196124
5718,17,Jits_Phase_5,0,5,56,103,1808559404
5718,17,Jits_Phase_5,1,5,63,98,1808600832
5718,17,Jits_Phase_5,2,5,80,127,1808640472
5718,17,Jits_Phase_5,3,1,48,48,1808672728
5718,17,Jits_Phase_5,0,5,80,127,1809060212
5718,17,Jits_Phase_5,1,5,56,103,1809140080
5718,17,Jits_Phase_5,2,5,63,98,1809150276
5718,17,Jits_Phase_5,3,1,48,48,1809177660
5718,17,Jits_Phase_5,0,5,56,103,1809599904
5718,17,Jits_Phase_5,1,5,63,98,1809602968
5718,17,Jits_Phase_5,2,5,80,127,1809610176
5718,17,Jits_Phase_5,3,1,48,47,1809679744
5718,17,Jits_Phase_5,0,5,56,103,1810120040
5718,17,Jits_Phase_5,1,5,63,98,1810139748
5718,17,Jits_Phase_5,2,5,80,127,1810149944
5718,17,Jits_Phase_5,3,1,48,50,1810175904
5718,17,Jits_Phase_5,0,5,63,98,1810579800
5718,17,Jits_Phase_5,1,5,80,127,1810589920
5718,17,Jits_Phase_5,2,5,56,103,1810609704
5718,17,Jits_Phase_5,3,1,48,49,1810657404
5718,17,Jits_Phase_5,0,5,63,98,1811079768
5718,17,Jits_Phase_5,1,1,48,48,1811152784
5718,17,Jits_Phase_5,2,5,56,103,1811160676
5718,17,Jits_Phase_5,3,5,80,127,1811163740
5718,17,Jits_Phase_5,0,5,63,98,1811580408
5718,17,Jits_Phase_5,1,5,56,103,1811599676
5718,17,Jits_Phase_5,2,5,80,127,1811629572
5718,17,Jits_Phase_5,3,1,48,55,1811647756
5718,17,Jits_Phase_5,0,5,56,103,1812080008
5718,17,Jits_Phase_5,1,5,63,98,1812099568
5718,17,Jits_Phase_5,2,5,80,127,1812109616
5718,17,Jits_Phase_5,3,1,48,56,1812142176
5718,17,Jits_Phase_5,0,5,56,103,1812610856
5718,17,Jits_Phase_5,1,5,63,98,1812640160
5718,17,Jits_Phase_5,2,5,80,127,1812643524
5718,17,Jits_Phase_5,3,1,48,55,1812649276
5718,17,Jits_Phase_5,0,5,56,103,1813059872
5718,17,Jits_Phase_5,1,5,63,98,1813099960
5718,17,Jits_Phase_5,2,1,48,55,1813137572
5718,17,Jits_Phase_5,3,5,80,127,1813160436
5718,17,Jits_Phase_5,0,5,56,103,1813580088
5718,17,Jits_Phase_5,1,5,63,98,1813590580
5718,17,Jits_Phase_5,2,1,48,61,1813626232
5718,17,Jits_Phase_5,3,5,80,127,1813649716
5718,17,Jits_Phase_5,4,1,48,42,1813655060
5718,17,Jits_Phase_5,0,5,56,103,1814079728
5718,17,Jits_Phase_5,1,5,80,127,1814100556
5718,17,Jits_Phase_5,2,1,48,54,1814128516
5718,17,Jits_Phase_5,3,5,63,98,1814130024
5718,17,Jits_Phase_5,0,5,80,127,1814589900
5718,17,Jits_Phase_5,1,5,56,103,1814599948
5718,17,Jits_Phase_5,2,5,63,98,1814619584
5718,17,Jits_Phase_5,3,1,48,57,1814622480
5718,17,Jits_Phase_5,0,5,63,98,1815080520
5718,17,Jits_Phase_5,1,1,48,55,1815115400
5718,17,Jits_Phase_5,2,5,80,127,1815160256
5718,17,Jits_Phase_5,3,5,56,103,1815170824
5718,17,Jits_Phase_5,0,1,48,51,1815614480
5718,17,Jits_Phase_5,1,5,80,127,1815670048
5718,17,Jits_Phase_5,2,5,56,103,1815689532
5718,17,Jits_Phase_5,3,5,63,98,1815692672
5718,17,Jits_Phase_5,0,1,48,50,1816136464
5718,17,Jits_Phase_5,1,5,63,98,1816159724
5718,17,Jits_Phase_5,2,5,80,127,1816163012
5718,17,Jits_Phase_5,3,5,56,103,1816220132
5718,17,Jits_Phase_5,0,5,56,103,1816639844
5718,17,Jits_Phase_5,1,5,80,127,1816649964
5718,17,Jits_Phase_5,2,1,48,48,1816651376
5718,17,Jits_Phase_5,3,5,63,98,1816690068
5718,17,Jits_Phase_5,0,1,48,49,1817130836
5718,17,Jits_Phase_5,1,5,56,103,1817132024
5718,17,Jits_Phase_5,2,5,63,98,1817189652
5718,17,Jits_Phase_5,3,5,80,127,1817199948
5718,17,Jits_Phase_5,0,1,48,49,1817635344
5718,17,Jits_Phase_5,1,5,63,98,1817640472
5718,17,Jits_Phase_5,2,5,80,127,1817680484
5718,17,Jits_Phase_5,3,5,56,103,1817720368
5718,17,Jits_Phase_5,0,1,48,53,1818139552
5718,17,Jits_Phase_5,1,5,56,103,1818140896
5718,17,Jits_Phase_5,2,5,63,98,1818219864
5718,17,Jits_Phase_5,3,5,80,127,1818223328
5718,17,Jits_Phase_5,0,1,48,57,1818660172
5718,17,Jits_Phase_5,1,5,80,127,1818700052
5718,17,Jits_Phase_5,2,5,56,103,1818729876
5718,17,Jits_Phase_5,3,5,63,98,1818732964
5718,17,Jits_Phase_5,0,5,56,103,1819159872
5718,17,Jits_Phase_5,1,1,48,53,1819179272
5718,17,Jits_Phase_5,2,5,80,127,1819180844
5718,17,Jits_Phase_5,3,5,63,98,1819220480
5718,17,Jits_Phase_5,0,5,80,127,1819640304
5718,17,Jits_Phase_5,1,5,63,98,1819659720
5718,17,Jits_Phase_5,2,1,48,51,1819678800
5718,17,Jits_Phase_5,3,5,56,103,1819720024
5718,17,Jits_Phase_5,0,5,63,98,1820150036
5718,17,Jits_Phase_5,1,5,56,103,1820160304
5718,17,Jits_Phase_5,2,1,48,58,1820182448
5718,17,Jits_Phase_5,3,5,80,127,1820209524
5718,17,Jits_Phase_5,4,1,48,44,1820214196
5718,17,Jits_Phase_5,0,5,56,103,1820639628
5718,17,Jits_Phase_5,1,5,63,98,1820660012
5718,17,Jits_Phase_5,2,5,80,127,1820670356
5718,17,Jits_Phase_5,3,1,48,59,1820681116
5718,17,Jits_Phase_5,4,1,48,46,1820706332
5718,17,Jits_Phase_5,0,5,56,103,1821140388
5718,17,Jits_Phase_5,1,5,63,98,1821143752
5718,17,Jits_Phase_5,2,5,80,127,1821159652
5718,17,Jits_Phase_5,3,1,48,56,1821195200
5718,17,Jits_Phase_5,0,1,48,52,1821678792
5718,17,Jits_Phase_5,1,5,63,98,1821680364
5718,17,Jits_Phase_5,2,5,56,103,1821709668
5718,17,Jits_Phase_5,3,5,80,127,1821740536
5718,17,Jits_Phase_5,0,5,80,127,1822139824
5718,17,Jits_Phase_5,1,1,48,53,1822181824
5718,17,Jits_Phase_5,2,5,56,103,1822229796
5718,17,Jits_Phase_5,3,5,63,98,1822232864
5718,17,Jits_Phase_5,0,5,56,103,1822639428
5718,17,Jits_Phase_5,1,5,80,127,1822642420
5718,17,Jits_Phase_5,2,1,48,49,1822713784
5718,17,Jits_Phase_5,3,5,63,98,1822720332
5718,17,Jits_Phase_5,0,5,80,127,1823140304
5718,17,Jits_Phase_5,1,5,63,98,1823199720
5718,17,Jits_Phase_5,2,1,48,50,1823210332
5718,17,Jits_Phase_5,3,5,56,103,1823230360
5718,17,Jits_Phase_5,0,5,63,98,1823639848
5718,17,Jits_Phase_5,1,5,80,127,1823650340
5718,17,Jits_Phase_5,2,1,48,50,1823705964
5718,17,Jits_Phase_5,3,5,56,103,1823719784
5718,17,Jits_Phase_5,0,1,48,46,1824188860
5718,17,Jits_Phase_5,1,5,56,103,1824200344
5718,17,Jits_Phase_5,2,5,80,127,1824229872
5718,17,Jits_Phase_5,3,5,63,98,1824281028
5718,17,Jits_Phase_5,0,1,48,49,1824686944
5718,17,Jits_Phase_5,1,5,63,98,1824789832
5718,17,Jits_Phase_5,2,5,56,103,1824819580
5718,17,Jits_Phase_5,3,5,80,127,1824822720
5718,17,Jits_Phase_5,0,1,48,47,1825200188
5718,17,Jits_Phase_5,1,5,63,98,1825289516
5718,17,Jits_Phase_5,2,5,80,127,1825310332
5718,17,Jits_Phase_5,3,5,56,103,1825320528
5718,17,Jits_Phase_5,0,1,48,46,1825704276
5718,17,Jits_Phase_5,1,5,56,103,1825799528
5718,17,Jits_Phase_5,2,5,63,98,1825802596
5718,17,Jits_Phase_5,3,5,80,127,1825819972
5718,17,Jits_Phase_5,0,1,48,43,1826209196
5718,17,Jits_Phase_5,1,5,56,103,1826250352
5718,17,Jits_Phase_5,2,5,63,98,1826260324
5718,17,Jits_Phase_5,3,5,80,127,1826289996
5718,17,Jits_Phase_5,0,1,48,37,1826730668
5718,17,Jits_Phase_5,1,5,63,98,1826770252
5718,17,Jits_Phase_5,2,5,80,127,1826789740
5718,17,Jits_Phase_5,3,5,56,103,1826829808
5718,17,Jits_Phase_5,0,1,48,47,1827231168
5718,17,Jits_Phase_5,1,5,56,103,1827299596
5718,17,Jits_Phase_5,2,5,63,98,1827339592
5718,17,Jits_Phase_5,3,5,80,127,1827342884
5718,17,Jits_Phase_5,0,5,80,127,1827740232
5718,17,Jits_Phase_5,1,1,48,46,1827756756
5718,17,Jits_Phase_5,2,5,56,103,1827780168
5718,17,Jits_Phase_5,3,5,63,98,1827830364
5718,17,Jits_Phase_5,0,1,48,41,1828289944
5718,17,Jits_Phase_5,1,5,56,103,1828300228
5718,17,Jits_Phase_5,2,5,80,127,1828310352
5718,17,Jits_Phase_5,3,5,63,98,1828340172
5718,17,Jits_Phase_5,0,5,56,103,1828749944
5718,17,Jits_Phase_5,1,5,80,127,1828789584
5718,17,Jits_Phase_5,2,1,48,48,1828797492
5718,17,Jits_Phase_5,3,5,63,98,1828840000
5718,17,Jits_Phase_5,0,5,56,103,1829250388
5718,17,Jits_Phase_5,1,1,48,47,1829280032
5718,17,Jits_Phase_5,2,5,80,127,1829290316
5718,17,Jits_Phase_5,3,5,63,98,1829339468
5718,17,Jits_Phase_5,0,5,80,127,1829740180
5718,17,Jits_Phase_5,1,1,48,48,1829791852
5718,17,Jits_Phase_5,2,5,63,98,1829819892
5718,17,Jits_Phase_5,3,5,56,103,1829830312
5718,17,Jits_Phase_5,0,1,48,41,1830286880
5718,17,Jits_Phase_5,1,5,80,127,1830289764
5718,17,Jits_Phase_5,2,5,56,103,1830300184
5718,17,Jits_Phase_5,3,5,63,98,1830319444
5718,17,Jits_Phase_5,0,5,63,98,1830759828
5718,17,Jits_Phase_5,1,1,48,51,1830788972
5718,17,Jits_Phase_5,2,5,56,103,1830829376
5718,17,Jits_Phase_5,3,5,80,127,1830832516
5718,17,Jits_Phase_5,0,5,80,127,1831250280
5718,17,Jits_Phase_5,1,1,48,50,1831275196
5718,17,Jits_Phase_5,2,5,63,98,1831299380
5718,17,Jits_Phase_5,3,5,56,103,1831340364
5718,17,Jits_Phase_5,0,1,48,47,1831738560
5718,17,Jits_Phase_5,1,5,63,98,1831789924
5718,17,Jits_Phase_5,2,5,56,103,1831830084
5718,17,Jits_Phase_5,3,5,80,127,1831840340
5718,17,Jits_Phase_5,0,1,48,47,1832269996
5718,17,Jits_Phase_5,1,5,63,98,1832280580
5718,17,Jits_Phase_5,2,5,56,103,1832300164
5718,17,Jits_Phase_5,3,5,80,127,1832320472
5718,17,Jits_Phase_5,0,5,80,127,1832740108
5718,17,Jits_Phase_5,1,5,56,103,1832749556
5718,17,Jits_Phase_5,2,1,48,44,1832766604
5718,17,Jits_Phase_5,3,5,63,98,1832769932
5718,17,Jits_Phase_5,0,1,48,47,1833252640
5718,17,Jits_Phase_5,1,5,63,98,1833269752
5718,17,Jits_Phase_5,2,5,56,103,1833309692
5718,17,Jits_Phase_5,3,5,80,127,1833340212
5718,17,Jits_Phase_5,0,5,56,103,1833730328
5718,17,Jits_Phase_5,1,1,48,43,1833757412
5718,17,Jits_Phase_5,2,5,63,98,1833760296
5718,17,Jits_Phase_5,3,5,80,127,1833789968
5718,17,Jits_Phase_5,0,5,80,127,1834150240
5718,17,Jits_Phase_5,1,5,56,103,1834220068
5718,17,Jits_Phase_5,2,5,63,98,1834223284
5718,17,Jits_Phase_5,3,1,48,52,1834262668
5718,17,Jits_Phase_5,0,5,56,103,1834660184
5718,17,Jits_Phase_5,1,5,63,98,1834710236
5718,17,Jits_Phase_5,2,5,80,127,1834739984
5718,17,Jits_Phase_5,3,1,48,45,1834758912
5718,17,Jits_Phase_5,0,5,63,98,1835139572
5718,17,Jits_Phase_5,1,5,80,127,1835142936
5718,17,Jits_Phase_5,2,5,56,103,1835200108
5718,17,Jits_Phase_5,3,1,48,47,1835240540
5718,17,Jits_Phase_5,0,5,56,103,1835669952
5718,17,Jits_Phase_5,1,5,80,127,1835680076
5718,17,Jits_Phase_5,2,5,63,98,1835730272
5718,17,Jits_Phase_5,3,1,48,39,1835737448
5718,17,Jits_Phase_5,0,5,63,98,1836140196
5718,17,Jits_Phase_5,1,5,56,103,1836150244
5718,17,Jits_Phase_5,2,5,80,127,1836179768
5718,17,Jits_Phase_5,3,1,48,46,1836216140
5718,17,Jits_Phase_5,0,5,63,98,1836670284
5718,17,Jits_Phase_5,1,5,80,127,1836673500
5718,17,Jits_Phase_5,2,5,56,103,1836700256
5718,17,Jits_Phase_5,3,1,48,49,1836708844
5718,17,Jits_Phase_5,0,5,63,98,1837189428
5718,17,Jits_Phase_5,1,5,56,103,1837210184
5718,17,Jits_Phase_5,2,5,80,127,1837213176
5718,17,Jits_Phase_5,3,1,48,48,1837217192
5718,17,Jits_Phase_5,4,1,48,35,1837255756
5718,17,Jits_Phase_5,0,5,63,98,1837650292
5718,17,Jits_Phase_5,1,1,48,46,1837709928
5718,17,Jits_Phase_5,2,5,56,103,1837720140
5718,17,Jits_Phase_5,3,5,80,127,1837740376
5718,17,Jits_Phase_5,0,5,56,103,1838139708
5718,17,Jits_Phase_5,1,5,63,98,1838150348
5718,17,Jits_Phase_5,2,1,48,50,1838182012
5718,17,Jits_Phase_5,3,5,80,127,1838239972
5718,17,Jits_Phase_5,0,5,56,103,1838660136
5718,17,Jits_Phase_5,1,1,48,49,1838686696
5718,17,Jits_Phase_5,2,5,80,127,1838699944
5718,17,Jits_Phase_5,3,5,63,98,1838710064
5718,17,Jits_Phase_5,0,1,48,47,1839179832
5718,17,Jits_Phase_5,1,5,56,103,1839181244
5718,17,Jits_Phase_5,2,5,63,98,1839210096
5718,17,Jits_Phase_5,3,5,80,127,1839239572
5718,17,Jits_Phase_5,0,5,80,127,1839639952
5718,17,Jits_Phase_5,1,5,63,98,1839679964
5718,17,Jits_Phase_5,2,1,48,48,1839696340
5718,17,Jits_Phase_5,3,5,56,103,1839700268
5718,17,Jits_Phase_5,0,1,48,49,1840178060
5718,17,Jits_Phase_5,1,5,56,103,1840179496
5718,17,Jits_Phase_5,2,5,80,127,1840199952
5718,17,Jits_Phase_5,3,5,63,98,1840219512
5718,17,Jits_Phase_5,0,5,63,98,1840649584
5718,17,Jits_Phase_5,1,5,56,103,1840660000
5718,17,Jits_Phase_5,2,1,48,51,1840676376
5718,17,Jits_Phase_5,3,5,80,127,1840720380
5718,17,Jits_Phase_5,0,5,56,103,1841150304
5718,17,Jits_Phase_5,1,1,48,41,1841167668
5718,17,Jits_Phase_5,2,5,63,98,1841220128
5718,17,Jits_Phase_5,3,5,80,127,1841240364
5718,17,Jits_Phase_5,0,1,48,47,1841620004
5718,17,Jits_Phase_5,1,5,56,103,1841650068
5718,17,Jits_Phase_5,2,5,63,98,1841679672
5718,17,Jits_Phase_5,3,5,80,127,1841719664
5718,17,Jits_Phase_5,0,1,48,46,1842089260
5718,17,Jits_Phase_5,1,5,63,98,1842139480
5718,17,Jits_Phase_5,2,5,56,103,1842189892
5718,17,Jits_Phase_5,3,5,80,127,1842199936
5718,17,Jits_Phase_5,0,1,48,48,1842617392
5718,17,Jits_Phase_5,1,5,56,103,1842680284
5718,17,Jits_Phase_5,2,5,63,98,1842730472
5718,17,Jits_Phase_5,3,5,80,127,1842739620
5718,17,Jits_Phase_5,0,1,48,50,1843127428
5718,17,Jits_Phase_5,1,5,56,103,1843150220
5718,17,Jits_Phase_5,2,5,63,98,1843160568
5718,17,Jits_Phase_5,3,5,80,127,1843240192
5718,17,Jits_Phase_5,0,9999,9999,9999,1758877788
5718,17,Jits_Phase_5,1,9999,9999,9999,1759377500
5718,17,Jits_Phase_5,2,9999,9999,9999,1759877232
5718,17,Jits_Phase_5,3,9999,9999,9999,1760377976
5718,17,Jits_Phase_5,4,9999,9999,9999,1760877644
5718,17,Jits_Phase_5,5,9999,9999,9999,1761377392
5718,17,Jits_Phase_5,6,9999,9999,9999,1761878112
5718,17,Jits_Phase_5,7,9999,9999,9999,1762388068
5718,17,Jits_Phase_5,8,9999,9999,9999,1762887752
5718,17,Jits_Phase_5,9,9999,9999,9999,1763387516
5718,17,Jits_Phase_5,10,9999,9999,9999,1763887204
5718,17,Jits_Phase_5,11,9999,9999,9999,1764387940
5718,17,Jits_Phase_5,12,9999,9999,9999,1764887608
5718,17,Jits_Phase_5,13,9999,9999,9999,1765387356
5718,17,Jits_Phase_5,14,9999,9999,9999,1765888080
5718,17,Jits_Phase_5,15,9999,9999,9999,1766398032
5718,17,Jits_Phase_5,16,9999,9999,9999,1766897720
5718,17,Jits_Phase_5,17,9999,9999,9999,1767397468
5718,17,Jits_Phase_5,18,9999,9999,9999,1767897156
5718,17,Jits_Phase_5,19,9999,9999,9999,1768397892
5718,17,Jits_Phase_5,20,9999,9999,9999,1768897656
5718,17,Jits_Phase_5,21,9999,9999,9999,1769397348
5718,17,Jits_Phase_5,22,9999,9999,9999,1769898080
5718,17,Jits_Phase_5,23,9999,9999,9999,1770397772
5718,17,Jits_Phase_5,24,9999,9999,9999,1770897532
5718,17,Jits_Phase_5,25,9999,9999,9999,1771397216
5718,17,Jits_Phase_5,26,9999,9999,9999,1771897956
5718,17,Jits_Phase_5,27,9999,9999,9999,1772397668
5718,17,Jits_Phase_5,28,9999,9999,9999,1772897356
5718,17,Jits_Phase_5,29,9999,9999,9999,1773398092
5718,17,Jits_Phase_5,30,9999,9999,9999,1773897852
5718,17,Jits_Phase_5,31,9999,9999,9999,1774397544
5718,17,Jits_Phase_5,32,9999,9999,9999,1774897232
5718,17,Jits_Phase_5,33,9999,9999,9999,1775397964
5718,17,Jits_Phase_5,34,9999,9999,9999,1775897652
5718,17,Jits_Phase_5,35,9999,9999,9999,1776397420
5718,17,Jits_Phase_5,36,9999,9999,9999,1776897080
5718,17,Jits_Phase_5,37,9999,9999,9999,1777397880
5718,17,Jits_Phase_5,38,9999,9999,9999,1777897556
5718,17,Jits_Phase_5,39,9999,9999,9999,1778397308
5718,17,Jits_Phase_5,40,9999,9999,9999,1778898032
5718,17,Jits_Phase_5,41,9999,9999,9999,1779397716
5718,17,Jits_Phase_5,42,9999,9999,9999,1779897408
5718,17,Jits_Phase_5,43,9999,9999,9999,1780397152
5718,17,Jits_Phase_5,44,9999,9999,9999,1780897872
5718,17,Jits_Phase_5,45,9999,9999,9999,1781397616
5718,17,Jits_Phase_5,46,9999,9999,9999,1781897292
5718,17,Jits_Phase_5,47,9999,9999,9999,1782398020
5718,17,Jits_Phase_5,48,9999,9999,9999,1782907960
5718,17,Jits_Phase_5,49,9999,9999,9999,1783407716
5718,17,Jits_Phase_5,50,9999,9999,9999,1783907428
5718,17,Jits_Phase_5,51,9999,9999,9999,1784407116
5718,17,Jits_Phase_5,52,9999,9999,9999,1784907852
5718,17,Jits_Phase_5,53,9999,9999,9999,1785407548
5718,17,Jits_Phase_5,54,9999,9999,9999,1785907272
5718,17,Jits_Phase_5,55,9999,9999,9999,1786408008
5718,17,Jits_Phase_5,56,9999,9999,9999,1786907768
5718,17,Jits_Phase_5,57,9999,9999,9999,1787407452
5718,17,Jits_Phase_5,58,9999,9999,9999,1787907144
5718,17,Jits_Phase_5,59,9999,9999,9999,1788407864
5718,17,Jits_Phase_5,60,9999,9999,9999,1788907628
5718,17,Jits_Phase_5,61,9999,9999,9999,1789407300
5718,17,Jits_Phase_5,62,9999,9999,9999,1789908036
5718,17,Jits_Phase_5,63,9999,9999,9999,1790407796
5718,17,Jits_Phase_5,64,9999,9999,9999,1790927996
5718,17,Jits_Phase_5,65,9999,9999,9999,1791427680
5718,17,Jits_Phase_5,66,9999,9999,9999,1791927372
5718,17,Jits_Phase_5,67,9999,9999,9999,1792427128
5718,17,Jits_Phase_5,68,9999,9999,9999,1792927864
5718,17,Jits_Phase_5,69,9999,9999,9999,1793427540
5718,17,Jits_Phase_5,70,9999,9999,9999,1793927276
5718,17,Jits_Phase_5,71,9999,9999,9999,1794428012
5718,17,Jits_Phase_5,72,9999,9999,9999,1794927684
5718,17,Jits_Phase_5,73,9999,9999,9999,1795427404
5718,17,Jits_Phase_5,74,9999,9999,9999,1795927164
5718,17,Jits_Phase_5,75,9999,9999,9999,1796427884
5718,17,Jits_Phase_5,76,9999,9999,9999,1796927560
5718,17,Jits_Phase_5,77,9999,9999,9999,1797427312
5718,17,Jits_Phase_5,78,9999,9999,9999,1797928048
5718,17,Jits_Phase_5,79,9999,9999,9999,1798427740
5718,17,Jits_Phase_5,80,9999,9999,9999,1798927416
5718,17,Jits_Phase_5,81,9999,9999,9999,1799407684
5718,17,Jits_Phase_5,82,9999,9999,9999,1799907448
5718,17,Jits_Phase_5,83,9999,9999,9999,1800407140
5718,17,Jits_Phase_5,84,9999,9999,9999,1800907880
5718,17,Jits_Phase_5,85,9999,9999,9999,1801407548
5718,17,Jits_Phase_5,86,9999,9999,9999,1801907296
5718,17,Jits_Phase_5,87,9999,9999,9999,1802408032
5718,17,Jits_Phase_5,88,9999,9999,9999,1802907720
5718,17,Jits_Phase_5,89,9999,9999,9999,1803407480
5718,17,Jits_Phase_5,90,9999,9999,9999,1803907172
5718,17,Jits_Phase_5,91,9999,9999,9999,1804407904
5718,17,Jits_Phase_5,92,9999,9999,9999,1804907604
5718,17,Jits_Phase_5,93,9999,9999,9999,1805407348
5718,17,Jits_Phase_5,94,9999,9999,9999,1805908068
5718,17,Jits_Phase_5,95,9999,9999,9999,1806407756
5718,17,Jits_Phase_5,96,9999,9999,9999,1806907448
5718,17,Jits_Phase_5,97,9999,9999,9999,1807358048
5718,17,Jits_Phase_5,98,9999,9999,9999,1807857724
5718,17,Jits_Phase_5,99,9999,9999,9999,1808357484
5718,17,Jits_Phase_5,100,9999,9999,9999,1808857156
5718,17,Jits_Phase_5,101,9999,9999,9999,1809357892
5718,17,Jits_Phase_5,102,9999,9999,9999,1809857644
5718,17,Jits_Phase_5,103,9999,9999,9999,1810357340
5718,17,Jits_Phase_5,104,9999,9999,9999,1810858072
5718,17,Jits_Phase_5,105,9999,9999,9999,1811357816
5718,17,Jits_Phase_5,106,9999,9999,9999,1811857492
5718,17,Jits_Phase_5,107,9999,9999,9999,1812357236
5718,17,Jits_Phase_5,108,9999,9999,9999,1812857964
5718,17,Jits_Phase_5,109,9999,9999,9999,1813357652
5718,17,Jits_Phase_5,110,9999,9999,9999,1813857368
5718,17,Jits_Phase_5,111,9999,9999,9999,1814358076
5718,17,Jits_Phase_5,112,9999,9999,9999,1814868028
5718,17,Jits_Phase_5,113,9999,9999,9999,1815367792
5718,17,Jits_Phase_5,114,9999,9999,9999,1815917680
5718,17,Jits_Phase_5,115,9999,9999,9999,1816417400
5718,17,Jits_Phase_5,116,9999,9999,9999,1816918116
5718,17,Jits_Phase_5,117,9999,9999,9999,1817428072
5718,17,Jits_Phase_5,118,9999,9999,9999,1817927748
5718,17,Jits_Phase_5,119,9999,9999,9999,1818427492
5718,17,Jits_Phase_5,120,9999,9999,9999,1818927164
5718,17,Jits_Phase_5,121,9999,9999,9999,1819427960
5718,17,Jits_Phase_5,122,9999,9999,9999,1819927648
5718,17,Jits_Phase_5,123,9999,9999,9999,1820427392
5718,17,Jits_Phase_5,124,9999,9999,9999,1820928068
5718,17,Jits_Phase_5,125,9999,9999,9999,1821438060
5718,17,Jits_Phase_5,126,9999,9999,9999,1821937752
5718,17,Jits_Phase_5,127,9999,9999,9999,1822437496
5718,17,Jits_Phase_5,128,9999,9999,9999,1822937176
5718,17,Jits_Phase_5,129,9999,9999,9999,1823437912
5718,17,Jits_Phase_5,130,9999,9999,9999,1823937600
5718,17,Jits_Phase_5,131,9999,9999,9999,1824537660
5718,17,Jits_Phase_5,132,9999,9999,9999,1825037408
5718,17,Jits_Phase_5,133,9999,9999,9999,1825537088
5718,17,Jits_Phase_5,134,9999,9999,9999,1826037876
5718,17,Jits_Phase_5,135,9999,9999,9999,1826537548
5718,17,Jits_Phase_5,136,9999,9999,9999,1827037300
5718,17,Jits_Phase_5,137,9999,9999,9999,1827538016
5718,17,Jits_Phase_5,138,9999,9999,9999,1828037692
5718,17,Jits_Phase_5,139,9999,9999,9999,1828537464
5718,17,Jits_Phase_5,140,9999,9999,9999,1829037140
5718,17,Jits_Phase_5,141,9999,9999,9999,1829537880
5718,17,Jits_Phase_5,142,9999,9999,9999,1830037564
5718,17,Jits_Phase_5,143,9999,9999,9999,1830537332
5718,17,Jits_Phase_5,144,9999,9999,9999,1831038048
5718,17,Jits_Phase_5,145,9999,9999,9999,1831537724
5718,17,Jits_Phase_5,146,9999,9999,9999,1832037468
5718,17,Jits_Phase_5,147,9999,9999,9999,1832537140
5718,17,Jits_Phase_5,148,9999,9999,9999,1833037932
5718,17,Jits_Phase_5,149,9999,9999,9999,1833537624
5718,17,Jits_Phase_5,150,9999,9999,9999,1833938040
5718,17,Jits_Phase_5,151,9999,9999,9999,1834437724
5718,17,Jits_Phase_5,152,9999,9999,9999,1834937416
5718,17,Jits_Phase_5,153,9999,9999,9999,1835437168
5718,17,Jits_Phase_5,154,9999,9999,9999,1835937892
5718,17,Jits_Phase_5,155,9999,9999,9999,1836437576
5718,17,Jits_Phase_5,156,9999,9999,9999,1836937316
5718,17,Jits_Phase_5,157,9999,9999,9999,1837438008
5718,17,Jits_Phase_5,158,9999,9999,9999,1837937740
5718,17,Jits_Phase_5,159,9999,9999,9999,1838437460
5718,17,Jits_Phase_5,160,9999,9999,9999,1838937144
5718,17,Jits_Phase_5,161,9999,9999,9999,1839437884
5718,17,Jits_Phase_5,162,9999,9999,9999,1839937636
5718,17,Jits_Phase_5,163,9999,9999,9999,1840437328
5718,17,Jits_Phase_5,164,9999,9999,9999,1840938048
5718,17,Jits_Phase_5,165,9999,9999,9999,1841437804
5718,17,Jits_Phase_5,166,9999,9999,9999,1841937492
5718,17,Jits_Phase_5,167,9999,9999,9999,1842437244
5718,17,Jits_Phase_5,168,9999,9999,9999,1842937972
5718,17,Jits_Phase_5,169,9999,9999,9999,1843437644
5719,15,Jits_Phase_8,0,5,56,103,1853887896
5719,15,Jits_Phase_8,1,5,63,98,1853891144
5719,15,Jits_Phase_8,2,5,80,127,1853894188
5719,15,Jits_Phase_8,0,5,56,103,1854687760
5719,15,Jits_Phase_8,1,5,63,98,1854690864
5719,15,Jits_Phase_8,2,5,80,127,1854693984
5719,15,Jits_Phase_8,0,5,80,127,1855428008
5719,15,Jits_Phase_8,1,1,48,55,1855497292
5719,15,Jits_Phase_8,2,5,63,98,1855517988
5719,15,Jits_Phase_8,3,5,56,103,1855528704
5719,15,Jits_Phase_8,4,1,48,40,1855538032
5719,15,Jits_Phase_8,0,5,56,103,1856248116
5719,15,Jits_Phase_8,1,5,63,98,1856258612
5719,15,Jits_Phase_8,2,1,48,53,1856273716
5719,15,Jits_Phase_8,3,1,48,39,1856309660
5719,15,Jits_Phase_8,4,5,80,127,1856347592
5719,15,Jits_Phase_8,0,5,63,98,1857018172
5719,15,Jits_Phase_8,1,5,80,127,1857047776
5719,15,Jits_Phase_8,2,1,48,50,1857061528
5719,15,Jits_Phase_8,3,5,56,103,1857077740
5719,15,Jits_Phase_8,0,5,56,103,1857817924
5719,15,Jits_Phase_8,1,1,48,43,1857832576
5719,15,Jits_Phase_8,2,5,80,127,1857918412
5719,15,Jits_Phase_8,3,5,63,98,1857967552
5719,15,Jits_Phase_8,0,5,56,103,1858617772
5719,15,Jits_Phase_8,1,5,80,127,1858667776
5719,15,Jits_Phase_8,2,1,48,40,1858689476
5719,15,Jits_Phase_8,3,5,63,98,1858707856
5719,15,Jits_Phase_8,0,5,80,127,1859448356
5719,15,Jits_Phase_8,1,1,48,44,1859458748
5719,15,Jits_Phase_8,2,5,63,98,1859477952
5719,15,Jits_Phase_8,3,5,56,103,1859547632
5719,15,Jits_Phase_8,0,5,63,98,1860277580
5719,15,Jits_Phase_8,1,1,48,43,1860299280
5719,15,Jits_Phase_8,2,5,56,103,1860308444
5719,15,Jits_Phase_8,3,5,80,127,1860367636
5719,15,Jits_Phase_8,0,5,56,103,1861018072
5719,15,Jits_Phase_8,1,5,80,127,1861021064
5719,15,Jits_Phase_8,2,1,48,38,1861096640
5719,15,Jits_Phase_8,3,5,63,98,1861137788
5719,15,Jits_Phase_8,0,1,48,48,1861873316
5719,15,Jits_Phase_8,1,5,56,103,1861897548
5719,15,Jits_Phase_8,2,5,80,127,1861937636
5719,15,Jits_Phase_8,3,5,63,98,1861947832
5719,15,Jits_Phase_8,0,5,56,103,1862658580
5719,15,Jits_Phase_8,1,5,80,127,1862677844
5719,15,Jits_Phase_8,2,1,48,46,1862692876
5719,15,Jits_Phase_8,3,5,63,98,1862757708
5719,15,Jits_Phase_8,0,5,80,127,1863447944
5719,15,Jits_Phase_8,1,1,48,51,1863505816
5719,15,Jits_Phase_8,2,5,56,103,1863548508
5719,15,Jits_Phase_8,3,5,63,98,1863557508
5719,15,Jits_Phase_8,0,5,63,98,1864218052
5719,15,Jits_Phase_8,1,5,80,127,1864278592
5719,15,Jits_Phase_8,2,5,56,103,1864287592
5719,15,Jits_Phase_8,3,1,48,50,1864324440
5719,15,Jits_Phase_8,0,5,56,103,1865017804
5719,15,Jits_Phase_8,1,1,48,50,1865079988
5719,15,Jits_Phase_8,2,5,63,98,1865088324
5719,15,Jits_Phase_8,3,5,80,127,1865091764
5719,15,Jits_Phase_8,0,1,48,48,1865820148
5719,15,Jits_Phase_8,1,5,63,98,1865848372
5719,15,Jits_Phase_8,2,5,56,103,1865898424
5719,15,Jits_Phase_8,3,5,80,127,1865901564
5719,15,Jits_Phase_8,0,1,48,50,1866604632
5719,15,Jits_Phase_8,1,5,56,103,1866608184
5719,15,Jits_Phase_8,2,5,80,127,1866611100
5719,15,Jits_Phase_8,3,5,63,98,1866698312
5719,15,Jits_Phase_8,0,1,48,49,1867397864
5719,15,Jits_Phase_8,1,5,63,98,1867447636
5719,15,Jits_Phase_8,2,5,56,103,1867537756
5719,15,Jits_Phase_8,3,5,80,127,1867567508
5719,15,Jits_Phase_8,0,1,48,52,1868223168
5719,15,Jits_Phase_8,1,5,56,103,1868238480
5719,15,Jits_Phase_8,2,5,63,98,1868337596
5719,15,Jits_Phase_8,3,5,80,127,1868368468
5719,15,Jits_Phase_8,0,1,48,52,1869036656
5719,15,Jits_Phase_8,1,5,63,98,1869058476
5719,15,Jits_Phase_8,2,5,56,103,1869067552
5719,15,Jits_Phase_8,3,5,80,127,1869157740
5719,15,Jits_Phase_8,0,1,48,48,1869828320
5719,15,Jits_Phase_8,1,5,63,98,1869877644
5719,15,Jits_Phase_8,2,5,56,103,1869957520
5719,15,Jits_Phase_8,3,5,80,127,1869960664
5719,15,Jits_Phase_8,0,1,48,52,1870635420
5719,15,Jits_Phase_8,1,5,80,127,1870637388
5719,15,Jits_Phase_8,2,5,63,98,1870657772
5719,15,Jits_Phase_8,3,5,56,103,1870718332
5719,15,Jits_Phase_8,0,1,48,43,1871445424
5719,15,Jits_Phase_8,1,5,56,103,1871478296
5719,15,Jits_Phase_8,2,5,63,98,1871497480
5719,15,Jits_Phase_8,3,5,80,127,1871500700
5719,15,Jits_Phase_8,0,5,63,98,1872217568
5719,15,Jits_Phase_8,1,1,48,50,1872229904
5719,15,Jits_Phase_8,2,5,80,127,1872298356
5719,15,Jits_Phase_8,3,5,56,103,1872307652
5719,15,Jits_Phase_8,0,1,48,45,1873014384
5719,15,Jits_Phase_8,1,5,63,98,1873037572
5719,15,Jits_Phase_8,2,5,56,103,1873058404
5719,15,Jits_Phase_8,3,5,80,127,1873108664
5719,15,Jits_Phase_8,0,1,48,53,1873793392
5719,15,Jits_Phase_8,1,5,80,127,1873837404
5719,15,Jits_Phase_8,2,5,63,98,1873878540
5719,15,Jits_Phase_8,3,5,56,103,1873897788
5719,15,Jits_Phase_8,0,1,48,44,1874633760
5719,15,Jits_Phase_8,1,5,56,103,1874678292
5719,15,Jits_Phase_8,2,5,63,98,1874688340
5719,15,Jits_Phase_8,3,5,80,127,1874707900
5719,15,Jits_Phase_8,0,5,56,103,1875408228
5719,15,Jits_Phase_8,1,1,48,48,1875412768
5719,15,Jits_Phase_8,2,5,63,98,1875498284
5719,15,Jits_Phase_8,3,5,80,127,1875557684
5719,15,Jits_Phase_8,0,1,48,49,1876229696
5719,15,Jits_Phase_8,1,5,80,127,1876237664
5719,15,Jits_Phase_8,2,5,56,103,1876248084
5719,15,Jits_Phase_8,3,5,63,98,1876317616
5719,15,Jits_Phase_8,0,1,48,40,1877047516
5719,15,Jits_Phase_8,1,5,63,98,1877068364
5719,15,Jits_Phase_8,2,5,80,127,1877158284
5719,15,Jits_Phase_8,3,5,56,103,1877167360
5719,15,Jits_Phase_8,0,5,63,98,1877798160
5719,15,Jits_Phase_8,1,5,80,127,1877848364
5719,15,Jits_Phase_8,2,1,48,40,1877852456
5719,15,Jits_Phase_8,3,5,56,103,1877908020
5719,15,Jits_Phase_8,0,5,56,103,1878617472
5719,15,Jits_Phase_8,1,1,48,44,1878640920
5719,15,Jits_Phase_8,2,5,80,127,1878667692
5719,15,Jits_Phase_8,3,5,63,98,1878688224
5719,15,Jits_Phase_8,0,5,56,103,1879387504
5719,15,Jits_Phase_8,1,5,80,127,1879448140
5719,15,Jits_Phase_8,2,1,48,51,1879468796
5719,15,Jits_Phase_8,3,5,63,98,1879517516
5719,15,Jits_Phase_8,0,5,56,103,1880188348
5719,15,Jits_Phase_8,1,5,80,127,1880218096
5719,15,Jits_Phase_8,2,5,63,98,1880247624
5719,15,Jits_Phase_8,3,1,48,45,1880291348
5719,15,Jits_Phase_8,0,5,56,103,1881028120
5719,15,Jits_Phase_8,1,1,48,53,1881043896
5719,15,Jits_Phase_8,2,5,80,127,1881048576
5719,15,Jits_Phase_8,3,5,63,98,1881107992
5719,15,Jits_Phase_8,0,1,48,53,1881857836
5719,15,Jits_Phase_8,1,5,80,127,1881907760
5719,15,Jits_Phase_8,2,5,56,103,1881918028
5719,15,Jits_Phase_8,3,5,63,98,1881928076
5719,15,Jits_Phase_8,0,5,56,103,1882668496
5719,15,Jits_Phase_8,1,1,48,53,1882676792
5719,15,Jits_Phase_8,2,5,80,127,1882708280
5719,15,Jits_Phase_8,3,5,63,98,1882738052
5719,15,Jits_Phase_8,0,5,56,103,1883437412
5719,15,Jits_Phase_8,1,5,63,98,1883468132
5719,15,Jits_Phase_8,2,1,48,41,1883499444
5719,15,Jits_Phase_8,3,5,80,127,1883508016
5719,15,Jits_Phase_8,0,5,80,127,1884188108
5719,15,Jits_Phase_8,1,5,63,98,1884238236
5719,15,Jits_Phase_8,2,1,48,41,1884256824
5719,15,Jits_Phase_8,3,5,56,103,1884258320
5719,15,Jits_Phase_8,0,5,56,103,1885017320
5719,15,Jits_Phase_8,1,1,48,51,1885036352
5719,15,Jits_Phase_8,2,5,80,127,1885087992
5719,15,Jits_Phase_8,3,5,63,98,1885147472
5719,15,Jits_Phase_8,0,5,80,127,1885818096
5719,15,Jits_Phase_8,1,1,48,47,1885846992
5719,15,Jits_Phase_8,2,5,63,98,1885908372
5719,15,Jits_Phase_8,3,5,56,103,1885928008
5719,15,Jits_Phase_8,0,1,48,40,1886636972
5719,15,Jits_Phase_8,1,5,63,98,1886638540
5719,15,Jits_Phase_8,2,5,56,103,1886657880
5719,15,Jits_Phase_8,3,5,80,127,1886698040
5719,15,Jits_Phase_8,0,5,80,127,1887398224
5719,15,Jits_Phase_8,1,5,63,98,1887417860
5719,15,Jits_Phase_8,2,1,48,39,1887423748
5719,15,Jits_Phase_8,3,5,56,103,1887497720
5719,15,Jits_Phase_8,0,5,63,98,1888187880
5719,15,Jits_Phase_8,1,1,48,46,1888221416
5719,15,Jits_Phase_8,2,5,56,103,1888298308
5719,15,Jits_Phase_8,3,5,80,127,1888301448
5719,15,Jits_Phase_8,0,5,63,98,1889008004
5719,15,Jits_Phase_8,1,1,48,43,1889011800
5719,15,Jits_Phase_8,2,5,56,103,1889018192
5719,15,Jits_Phase_8,3,5,80,127,1889021184
5719,15,Jits_Phase_8,0,1,48,38,1889778640
5719,15,Jits_Phase_8,1,5,56,103,1889788256
5719,15,Jits_Phase_8,2,5,80,127,1889908068
5719,15,Jits_Phase_8,3,5,63,98,1889948008
5719,15,Jits_Phase_8,0,5,56,103,1890607428
5719,15,Jits_Phase_8,1,1,48,46,1890619544
5719,15,Jits_Phase_8,2,5,80,127,1890688364
5719,15,Jits_Phase_8,3,5,63,98,1890708000
5719,15,Jits_Phase_8,0,5,56,103,1891408248
5719,15,Jits_Phase_8,1,1,48,52,1891424328
5719,15,Jits_Phase_8,2,5,63,98,1891519156
5719,15,Jits_Phase_8,3,5,80,127,1891521904
5719,15,Jits_Phase_8,0,1,48,45,1892237384
5719,15,Jits_Phase_8,1,5,56,103,1892247820
5719,15,Jits_Phase_8,2,5,80,127,1892277792
5719,15,Jits_Phase_8,3,5,63,98,1892298028
5719,15,Jits_Phase_8,0,1,48,43,1893019904
5719,15,Jits_Phase_8,1,5,63,98,1893037460
5719,15,Jits_Phase_8,2,5,56,103,1893047808
5719,15,Jits_Phase_8,3,5,80,127,1893058004
5719,15,Jits_Phase_8,0,1,48,42,1893813804
5719,15,Jits_Phase_8,1,5,80,127,1893827920
5719,15,Jits_Phase_8,2,5,56,103,1893878048
5719,15,Jits_Phase_8,3,5,63,98,1893918048
5719,15,Jits_Phase_8,0,1,48,46,1894613036
5719,15,Jits_Phase_8,1,5,80,127,1894648056
5719,15,Jits_Phase_8,2,5,63,98,1894667840
5719,15,Jits_Phase_8,3,5,56,103,1894717804
5719,15,Jits_Phase_8,0,1,48,46,1895389200
5719,15,Jits_Phase_8,1,5,80,127,1895458152
5719,15,Jits_Phase_8,2,5,56,103,1895487888
5719,15,Jits_Phase_8,3,5,63,98,1895557444
5719,15,Jits_Phase_8,0,1,48,40,1896218632
5719,15,Jits_Phase_8,1,5,56,103,1896308064
5719,15,Jits_Phase_8,2,5,80,127,1896318260
5719,15,Jits_Phase_8,3,5,63,98,1896358256
5719,15,Jits_Phase_8,0,5,56,103,1897017828
5719,15,Jits_Phase_8,1,1,48,44,1897020424
5719,15,Jits_Phase_8,2,5,63,98,1897038204
5719,15,Jits_Phase_8,3,5,80,127,1897107908
5719,15,Jits_Phase_8,0,1,48,44,1897802952
5719,15,Jits_Phase_8,1,5,63,98,1897838068
5719,15,Jits_Phase_8,2,5,80,127,1897898460
5719,15,Jits_Phase_8,3,5,56,103,1897917784
5719,15,Jits_Phase_8,0,1,48,40,1898597320
5719,15,Jits_Phase_8,1,5,80,127,1898627412
5719,15,Jits_Phase_8,2,5,56,103,1898658284
5719,15,Jits_Phase_8,3,5,63,98,1898687812
5719,15,Jits_Phase_8,0,1,48,42,1899378440
5719,15,Jits_Phase_8,1,5,56,103,1899428140
5719,15,Jits_Phase_8,2,5,63,98,1899487544
5719,15,Jits_Phase_8,3,5,80,127,1899548008
5719,15,Jits_Phase_8,0,1,48,36,1900217312
5719,15,Jits_Phase_8,1,5,80,127,1900248728
5719,15,Jits_Phase_8,2,5,56,103,1900267840
5719,15,Jits_Phase_8,3,5,63,98,1900337804
5719,15,Jits_Phase_8,0,5,80,127,1901048416
5719,15,Jits_Phase_8,1,1,48,42,1901060304
5719,15,Jits_Phase_8,2,5,63,98,1901067600
5719,15,Jits_Phase_8,3,5,56,103,1901098468
5719,15,Jits_Phase_8,0,1,48,42,1901794552
5719,15,Jits_Phase_8,1,5,80,127,1901837668
5719,15,Jits_Phase_8,2,5,63,98,1901858200
5719,15,Jits_Phase_8,3,5,56,103,1901917676
5719,15,Jits_Phase_8,0,1,48,41,1902570864
5719,15,Jits_Phase_8,1,5,80,127,1902637572
5719,15,Jits_Phase_8,2,5,56,103,1902737756
5719,15,Jits_Phase_8,3,5,63,98,1902767432
5719,15,Jits_Phase_8,0,1,48,42,1903383884
5719,15,Jits_Phase_8,1,5,63,98,1903427820
5719,15,Jits_Phase_8,2,5,80,127,1903478108
5719,15,Jits_Phase_8,3,5,56,103,1903497596
5719,15,Jits_Phase_8,0,1,48,41,1904180720
5719,15,Jits_Phase_8,1,5,80,127,1904267536
5719,15,Jits_Phase_8,2,5,56,103,1904298540
5719,15,Jits_Phase_8,3,5,63,98,1904301532
5719,15,Jits_Phase_8,0,1,48,37,1904977552
5719,15,Jits_Phase_8,1,5,63,98,1905117616
5719,15,Jits_Phase_8,2,5,56,103,1905157704
5719,15,Jits_Phase_8,3,5,80,127,1905178088
5719,15,Jits_Phase_8,0,1,48,39,1905843040
5719,15,Jits_Phase_8,1,5,80,127,1905878656
5719,15,Jits_Phase_8,2,5,63,98,1905958288
5719,15,Jits_Phase_8,3,5,56,103,1905998452
5719,15,Jits_Phase_8,0,1,48,43,1906639888
5719,15,Jits_Phase_8,1,5,63,98,1906697600
5719,15,Jits_Phase_8,2,5,80,127,1906777608
5719,15,Jits_Phase_8,3,5,56,103,1906797944
5719,15,Jits_Phase_8,0,1,48,45,1907472612
5719,15,Jits_Phase_8,1,5,56,103,1907538348
5719,15,Jits_Phase_8,2,5,63,98,1907547496
5719,15,Jits_Phase_8,3,5,80,127,1907587368
5719,15,Jits_Phase_8,0,5,56,103,1908268512
5719,15,Jits_Phase_8,1,1,48,43,1908269496
5719,15,Jits_Phase_8,2,5,80,127,1908272548
5719,15,Jits_Phase_8,3,5,63,98,1908407644
5719,15,Jits_Phase_8,0,5,56,103,1909068348
5719,15,Jits_Phase_8,1,1,48,46,1909080388
5719,15,Jits_Phase_8,2,5,63,98,1909158352
5719,15,Jits_Phase_8,3,5,80,127,1909227796
5719,15,Jits_Phase_8,0,5,63,98,1909947636
5719,15,Jits_Phase_8,1,5,80,127,1909951080
5719,15,Jits_Phase_8,2,1,48,46,1909958780
5719,15,Jits_Phase_8,3,5,56,103,1910008396
5719,15,Jits_Phase_8,0,1,48,47,1910730652
5719,15,Jits_Phase_8,1,5,80,127,1910787476
5719,15,Jits_Phase_8,2,5,56,103,1910807936
5719,15,Jits_Phase_8,3,5,63,98,1910818428
5719,15,Jits_Phase_8,0,5,56,103,1911498240
5719,15,Jits_Phase_8,1,5,63,98,1911508512
5719,15,Jits_Phase_8,2,1,48,46,1911533204
5719,15,Jits_Phase_8,3,5,80,127,1911578036
5719,15,Jits_Phase_8,0,1,48,49,1912283144
5719,15,Jits_Phase_8,1,5,80,127,1912297784
5719,15,Jits_Phase_8,2,5,56,103,1912347912
5719,15,Jits_Phase_8,3,5,63,98,1912398392
5719,15,Jits_Phase_8,0,1,48,43,1913115712
5719,15,Jits_Phase_8,1,5,56,103,1913177560
5719,15,Jits_Phase_8,2,5,63,98,1913187680
5719,15,Jits_Phase_8,3,5,80,127,1913227776
5719,15,Jits_Phase_8,0,5,56,103,1913917696
5719,15,Jits_Phase_8,1,1,48,39,1913931304
5719,15,Jits_Phase_8,2,5,63,98,1913957704
5719,15,Jits_Phase_8,3,5,80,127,1914008004
5719,15,Jits_Phase_8,0,1,48,41,1914668664
5719,15,Jits_Phase_8,1,5,80,127,1914677608
5719,15,Jits_Phase_8,2,5,56,103,1914727832
5719,15,Jits_Phase_8,3,5,63,98,1914748368
5719,15,Jits_Phase_8,0,1,48,43,1915479808
5719,15,Jits_Phase_8,1,5,80,127,1915487552
5719,15,Jits_Phase_8,2,5,63,98,1915548116
5719,15,Jits_Phase_8,3,5,56,103,1915627748
5719,15,Jits_Phase_8,0,5,80,127,1916267864
5719,15,Jits_Phase_8,1,1,48,42,1916304764
5719,15,Jits_Phase_8,2,5,56,103,1916307944
5719,15,Jits_Phase_8,3,5,63,98,1916328328
5719,15,Jits_Phase_8,0,1,48,41,1917062500
5719,15,Jits_Phase_8,1,5,56,103,1917117820
5719,15,Jits_Phase_8,2,5,80,127,1917128164
5719,15,Jits_Phase_8,3,5,63,98,1917168088
5719,15,Jits_Phase_8,0,1,48,42,1917865544
5719,15,Jits_Phase_8,1,5,56,103,1917988140
5719,15,Jits_Phase_8,2,5,63,98,1918028300
5719,15,Jits_Phase_8,3,5,80,127,1918031664
5719,15,Jits_Phase_8,0,5,63,98,1918658376
5719,15,Jits_Phase_8,1,5,80,127,1918698316
5719,15,Jits_Phase_8,2,1,48,36,1918719344
5719,15,Jits_Phase_8,3,5,56,103,1918767392
5719,15,Jits_Phase_8,0,5,63,98,1919428096
5719,15,Jits_Phase_8,1,1,48,41,1919441852
5719,15,Jits_Phase_8,2,5,56,103,1919507888
5719,15,Jits_Phase_8,3,5,80,127,1919568188
5719,15,Jits_Phase_8,0,1,48,44,1920229624
5719,15,Jits_Phase_8,1,5,80,127,1920238036
5719,15,Jits_Phase_8,2,5,63,98,1920288092
5719,15,Jits_Phase_8,3,5,56,103,1920317840
5719,15,Jits_Phase_8,0,5,56,103,1921027312
5719,15,Jits_Phase_8,1,1,48,37,1921037332
5719,15,Jits_Phase_8,2,5,63,98,1921077584
5719,15,Jits_Phase_8,3,5,80,127,1921088076
5719,15,Jits_Phase_8,0,1,48,47,1921781336
5719,15,Jits_Phase_8,1,5,56,103,1921837556
5719,15,Jits_Phase_8,2,5,63,98,1921948080
5719,15,Jits_Phase_8,3,5,80,127,1921967344
5719,15,Jits_Phase_8,0,1,48,43,1922605828
5719,15,Jits_Phase_8,1,5,63,98,1922638140
5719,15,Jits_Phase_8,2,5,80,127,1922688220
5719,15,Jits_Phase_8,3,5,56,103,1922777364
5719,15,Jits_Phase_8,0,1,48,39,1923382124
5719,15,Jits_Phase_8,1,5,63,98,1923427560
5719,15,Jits_Phase_8,2,5,80,127,1923458456
5719,15,Jits_Phase_8,3,5,56,103,1923547452
5719,15,Jits_Phase_8,0,1,48,43,1924182700
5719,15,Jits_Phase_8,1,5,63,98,1924227488
5719,15,Jits_Phase_8,2,5,56,103,1924237680
5719,15,Jits_Phase_8,3,5,80,127,1924338284
5719,15,Jits_Phase_8,0,1,48,34,1924938396
5719,15,Jits_Phase_8,1,5,63,98,1925127464
5719,15,Jits_Phase_8,2,5,80,127,1925158260
5719,15,Jits_Phase_8,3,5,56,103,1925188084
5719,15,Jits_Phase_8,0,1,48,37,1925792428
5719,15,Jits_Phase_8,1,5,80,127,1925947908
5719,15,Jits_Phase_8,2,5,63,98,1925958180
5719,15,Jits_Phase_8,3,5,56,103,1925987556
5719,15,Jits_Phase_8,0,5,80,127,1926648048
5719,15,Jits_Phase_8,1,5,63,98,1926667760
5719,15,Jits_Phase_8,2,1,48,40,1926668796
5719,15,Jits_Phase_8,3,5,56,103,1926718024
5719,15,Jits_Phase_8,0,1,48,46,1927440740
5719,15,Jits_Phase_8,1,5,63,98,1927477556
5719,15,Jits_Phase_8,2,5,80,127,1927538552
5719,15,Jits_Phase_8,3,5,56,103,1927557516
5719,15,Jits_Phase_8,0,5,63,98,1928237312
5719,15,Jits_Phase_8,1,5,56,103,1928287664
5719,15,Jits_Phase_8,2,5,80,127,1928298332
5719,15,Jits_Phase_8,3,1,48,48,1928310972
5719,15,Jits_Phase_8,0,5,56,103,1929068032
5719,15,Jits_Phase_8,1,5,80,127,1929078080
5719,15,Jits_Phase_8,2,1,48,44,1929096568
5719,15,Jits_Phase_8,3,5,63,98,1929177496
5719,15,Jits_Phase_8,0,5,80,127,1929827624
5719,15,Jits_Phase_8,1,5,63,98,1929837848
5719,15,Jits_Phase_8,2,1,48,46,1929899028
5719,15,Jits_Phase_8,3,5,56,103,1929987380
5719,15,Jits_Phase_8,0,5,63,98,1930637760
5719,15,Jits_Phase_8,1,5,80,127,1930677772
5719,15,Jits_Phase_8,2,1,48,50,1930724332
5719,15,Jits_Phase_8,3,5,56,103,1930757632
5719,15,Jits_Phase_8,0,5,56,103,1931388212
5719,15,Jits_Phase_8,1,5,80,127,1931487564
5719,15,Jits_Phase_8,2,5,63,98,1931508024
5719,15,Jits_Phase_8,3,1,48,52,1931540132
5719,15,Jits_Phase_8,0,5,80,127,1932207324
5719,15,Jits_Phase_8,1,5,56,103,1932217964
5719,15,Jits_Phase_8,2,1,48,44,1932299976
5719,15,Jits_Phase_8,3,5,63,98,1932307940
5719,15,Jits_Phase_8,0,5,56,103,1933008220
5719,15,Jits_Phase_8,1,5,63,98,1933027632
5719,15,Jits_Phase_8,2,1,48,45,1933058848
5719,15,Jits_Phase_8,3,5,80,127,1933107644
5719,15,Jits_Phase_8,0,5,63,98,1933757800
5719,15,Jits_Phase_8,1,1,48,45,1933818832
5719,15,Jits_Phase_8,2,5,56,103,1933847924
5719,15,Jits_Phase_8,3,5,80,127,1933850992
5719,15,Jits_Phase_8,0,5,56,103,1934588340
5719,15,Jits_Phase_8,1,1,48,40,1934615668
5719,15,Jits_Phase_8,2,5,80,127,1934647752
5719,15,Jits_Phase_8,3,5,63,98,1934657872
5719,15,Jits_Phase_8,0,1,48,50,1935389884
5719,15,Jits_Phase_8,1,5,80,127,1935438084
5719,15,Jits_Phase_8,2,5,56,103,1935448344
5719,15,Jits_Phase_8,3,5,63,98,1935451716
5719,15,Jits_Phase_8,0,1,48,50,1936188356
5719,15,Jits_Phase_8,1,5,56,103,1936197900
5719,15,Jits_Phase_8,2,5,80,127,1936208168
5719,15,Jits_Phase_8,3,5,63,98,1936227876
5719,15,Jits_Phase_8,0,1,48,49,1936962708
5719,15,Jits_Phase_8,1,5,63,98,1936967984
5719,15,Jits_Phase_8,2,5,80,127,1937027576
5719,15,Jits_Phase_8,3,5,56,103,1937077760
5719,15,Jits_Phase_8,0,1,48,50,1937770960
5719,15,Jits_Phase_8,1,5,63,98,1937847784
5719,15,Jits_Phase_8,2,5,56,103,1937857832
5719,15,Jits_Phase_8,3,5,80,127,1937908016
5719,15,Jits_Phase_8,0,5,63,98,1938548208
5719,15,Jits_Phase_8,1,5,80,127,1938567548
5719,15,Jits_Phase_8,2,5,56,103,1938577744
5719,15,Jits_Phase_8,3,1,48,36,1938597200
5719,15,Jits_Phase_8,0,1,48,46,1939311888
5719,15,Jits_Phase_8,1,5,63,98,1939347876
5719,15,Jits_Phase_8,2,5,80,127,1939351092
5719,15,Jits_Phase_8,3,5,56,103,1939387812
5719,15,Jits_Phase_8,0,1,48,48,1940092444
5719,15,Jits_Phase_8,1,5,63,98,1940218404
5719,15,Jits_Phase_8,2,5,80,127,1940248008
5719,15,Jits_Phase_8,3,5,56,103,1940258128
5719,15,Jits_Phase_8,0,1,48,46,1940941504
5719,15,Jits_Phase_8,1,5,56,103,1940967908
5719,15,Jits_Phase_8,2,5,80,127,1940997732
5719,15,Jits_Phase_8,3,5,63,98,1941028228
5719,15,Jits_Phase_8,0,1,48,43,1941729048
5719,15,Jits_Phase_8,1,5,63,98,1941867992
5719,15,Jits_Phase_8,2,5,56,103,1941907932
5719,15,Jits_Phase_8,3,5,80,127,1941910996
5719,15,Jits_Phase_8,0,1,48,41,1942554348
5719,15,Jits_Phase_8,1,5,80,127,1942568244
5719,15,Jits_Phase_8,2,5,56,103,1942648216
5719,15,Jits_Phase_8,3,5,63,98,1942698624
5719,15,Jits_Phase_8,0,5,80,127,1943347708
5719,15,Jits_Phase_8,1,5,56,103,1943367944
5719,15,Jits_Phase_8,2,1,48,43,1943388300
5719,15,Jits_Phase_8,3,5,63,98,1943458092
5719,15,Jits_Phase_8,0,1,48,46,1944152004
5719,15,Jits_Phase_8,1,5,80,127,1944188396
5719,15,Jits_Phase_8,2,5,63,98,1944228112
5719,15,Jits_Phase_8,3,5,56,103,1944268112
5719,15,Jits_Phase_8,0,1,48,43,1944959140
5719,15,Jits_Phase_8,1,5,63,98,1944998200
5719,15,Jits_Phase_8,2,5,80,127,1945057752
5719,15,Jits_Phase_8,3,5,56,103,1945088548
5719,15,Jits_Phase_8,0,1,48,45,1945833736
5719,15,Jits_Phase_8,1,5,56,103,1945837888
5719,15,Jits_Phase_8,2,5,80,127,1945867712
5719,15,Jits_Phase_8,3,5,63,98,1945957776
5719,15,Jits_Phase_8,0,5,56,103,1946647836
5719,15,Jits_Phase_8,1,1,48,38,1946685952
5719,15,Jits_Phase_8,2,5,80,127,1946757840
5719,15,Jits_Phase_8,3,5,63,98,1946788104
5719,15,Jits_Phase_8,0,1,48,40,1947448484
5719,15,Jits_Phase_8,1,5,56,103,1947497828
5719,15,Jits_Phase_8,2,5,63,98,1947558356
5719,15,Jits_Phase_8,3,5,80,127,1947587880
5719,15,Jits_Phase_8,0,1,48,38,1948266492
5719,15,Jits_Phase_8,1,5,56,103,1948267776
5719,15,Jits_Phase_8,2,5,63,98,1948337460
5719,15,Jits_Phase_8,3,5,80,127,1948357916
5719,15,Jits_Phase_8,0,5,80,127,1949037872
5719,15,Jits_Phase_8,1,5,63,98,1949058556
5719,15,Jits_Phase_8,2,1,48,38,1949074404
5719,15,Jits_Phase_8,3,5,56,103,1949107552
5719,15,Jits_Phase_8,0,1,48,43,1949852888
5719,15,Jits_Phase_8,1,5,63,98,1949858164
5719,15,Jits_Phase_8,2,5,80,127,1949868508
5719,15,Jits_Phase_8,3,5,56,103,1949917512
5719,15,Jits_Phase_8,0,1,48,38,1950648744
5719,15,Jits_Phase_8,1,5,63,98,1950657760
5719,15,Jits_Phase_8,2,5,80,127,1950727516
5719,15,Jits_Phase_8,3,5,56,103,1950747904
5719,15,Jits_Phase_8,0,1,48,41,1951467308
5719,15,Jits_Phase_8,1,5,63,98,1951488460
5719,15,Jits_Phase_8,2,5,80,127,1951491748
5719,15,Jits_Phase_8,3,5,56,103,1951558064
5719,15,Jits_Phase_8,0,5,80,127,1952237872
5719,15,Jits_Phase_8,1,5,56,103,1952258480
5719,15,Jits_Phase_8,2,5,63,98,1952267556
5719,15,Jits_Phase_8,3,1,48,42,1952317272
5719,15,Jits_Phase_8,0,1,48,41,1953038432
5719,15,Jits_Phase_8,1,5,56,103,1953058304
5719,15,Jits_Phase_8,2,5,63,98,1953148372
5719,15,Jits_Phase_8,3,5,80,127,1953151588
5719,15,Jits_Phase_8,0,5,80,127,1953828316
5719,15,Jits_Phase_8,1,5,56,103,1953837544
5719,15,Jits_Phase_8,2,1,48,41,1953856796
5719,15,Jits_Phase_8,3,5,63,98,1953858440
5719,15,Jits_Phase_8,0,1,48,48,1954602200
5719,15,Jits_Phase_8,1,5,63,98,1954627928
5719,15,Jits_Phase_8,2,5,80,127,1954688344
5719,15,Jits_Phase_8,3,5,56,103,1954698524
5719,15,Jits_Phase_8,0,1,48,44,1955386300
5719,15,Jits_Phase_8,1,5,63,98,1955498340
5719,15,Jits_Phase_8,2,5,80,127,1955527940
5719,15,Jits_Phase_8,3,5,56,103,1955567952
5719,15,Jits_Phase_8,0,1,48,45,1956208632
5719,15,Jits_Phase_8,1,5,56,103,1956287928
5719,15,Jits_Phase_8,2,5,80,127,1956298048
5719,15,Jits_Phase_8,3,5,63,98,1956337972
5719,15,Jits_Phase_8,0,1,48,41,1957004032
5719,15,Jits_Phase_8,1,5,80,127,1957047748
5719,15,Jits_Phase_8,2,5,56,103,1957127528
5719,15,Jits_Phase_8,3,5,63,98,1957137800
5719,15,Jits_Phase_8,0,1,48,42,1957854368
5719,15,Jits_Phase_8,1,5,80,127,1957897632
5719,15,Jits_Phase_8,2,5,56,103,1957977488
5719,15,Jits_Phase_8,3,5,63,98,1957987832
5719,15,Jits_Phase_8,0,1,48,43,1958650172
5719,15,Jits_Phase_8,1,5,80,127,1958738380
5719,15,Jits_Phase_8,2,5,56,103,1958787324
5719,15,Jits_Phase_8,3,5,63,98,1958837524
5719,15,Jits_Phase_8,0,1,48,41,1959479736
5719,15,Jits_Phase_8,1,5,56,103,1959678460
5719,15,Jits_Phase_8,2,5,63,98,1959681528
5719,15,Jits_Phase_8,3,5,80,127,1959727616
5719,15,Jits_Phase_8,0,1,48,39,1960351064
5719,15,Jits_Phase_8,1,5,56,103,1960497480
5719,15,Jits_Phase_8,2,5,63,98,1960528200
5719,15,Jits_Phase_8,3,5,80,127,1960537424
5719,15,Jits_Phase_8,0,1,48,41,1961169488
5719,15,Jits_Phase_8,1,5,63,98,1961208176
5719,15,Jits_Phase_8,2,5,56,103,1961277768
5719,15,Jits_Phase_8,3,5,80,127,1961328068
5719,15,Jits_Phase_8,0,1,48,40,1961977716
5719,15,Jits_Phase_8,1,5,63,98,1962037604
5719,15,Jits_Phase_8,2,5,56,103,1962047872
5719,15,Jits_Phase_8,3,5,80,127,1962050792
5719,15,Jits_Phase_8,0,5,80,127,1962788356
5719,15,Jits_Phase_8,1,1,48,46,1962796056
5719,15,Jits_Phase_8,2,5,56,103,1962847472
5719,15,Jits_Phase_8,3,5,63,98,1962937612
5719,15,Jits_Phase_8,0,5,80,127,1963587980
5719,15,Jits_Phase_8,1,1,48,40,1963642812
5719,15,Jits_Phase_8,2,5,56,103,1963688248
5719,15,Jits_Phase_8,3,5,63,98,1963728108
5719,15,Jits_Phase_8,0,5,56,103,1964437828
5719,15,Jits_Phase_8,1,1,48,42,1964456544
5719,15,Jits_Phase_8,2,5,63,98,1964458280
5719,15,Jits_Phase_8,3,5,80,127,1964498216
5719,15,Jits_Phase_8,0,5,63,98,1965208008
5719,15,Jits_Phase_8,1,5,56,103,1965228316
5719,15,Jits_Phase_8,2,1,48,45,1965287032
5719,15,Jits_Phase_8,3,5,80,127,1965327804
5719,15,Jits_Phase_8,0,5,63,98,1965997420
5719,15,Jits_Phase_8,1,1,48,45,1966064740
5719,15,Jits_Phase_8,2,5,80,127,1966108296
5719,15,Jits_Phase_8,3,5,56,103,1966137824
5719,15,Jits_Phase_8,0,5,56,103,1966817564
5719,15,Jits_Phase_8,1,5,63,98,1966848288
5719,15,Jits_Phase_8,2,1,48,38,1966886252
5719,15,Jits_Phase_8,3,5,80,127,1966897584
5719,15,Jits_Phase_8,0,5,63,98,1967587660
5719,15,Jits_Phase_8,1,5,56,103,1967618312
5719,15,Jits_Phase_8,2,1,48,40,1967647428
5719,15,Jits_Phase_8,3,5,80,127,1967667456
5719,15,Jits_Phase_8,0,1,48,41,1968412176
5719,15,Jits_Phase_8,1,5,56,103,1968418052
5719,15,Jits_Phase_8,2,5,63,98,1968437688
5719,15,Jits_Phase_8,3,5,80,127,1968517488
5719,15,Jits_Phase_8,0,5,63,98,1969188140
5719,15,Jits_Phase_8,1,1,48,35,1969206852
5719,15,Jits_Phase_8,2,5,56,103,1969247556
5719,15,Jits_Phase_8,3,5,80,127,1969278380
5719,15,Jits_Phase_8,0,1,48,36,1969982620
5719,15,Jits_Phase_8,1,5,56,103,1970028072
5719,15,Jits_Phase_8,2,5,80,127,1970088376
5719,15,Jits_Phase_8,3,5,63,98,1970128164
5719,15,Jits_Phase_8,0,1,48,40,1970780056
5719,15,Jits_Phase_8,1,5,63,98,1970808060
5719,15,Jits_Phase_8,2,5,56,103,1970867552
5719,15,Jits_Phase_8,3,5,80,127,1970938188
5719,15,Jits_Phase_8,0,1,48,43,1971635892
5719,15,Jits_Phase_8,1,5,56,103,1971688056
5719,15,Jits_Phase_8,2,5,63,98,1971698104
5719,15,Jits_Phase_8,3,5,80,127,1971701392
5719,15,Jits_Phase_8,0,5,63,98,1972428100
5719,15,Jits_Phase_8,1,1,48,40,1972459312
5719,15,Jits_Phase_8,2,5,56,103,1972487732
5719,15,Jits_Phase_8,3,5,80,127,1972490724
5719,15,Jits_Phase_8,0,5,63,98,1973208444
5719,15,Jits_Phase_8,1,5,80,127,1973238268
5719,15,Jits_Phase_8,2,1,48,36,1973244456
5719,15,Jits_Phase_8,3,5,56,103,1973257524
5719,15,Jits_Phase_8,0,5,56,103,1973937396
5719,15,Jits_Phase_8,1,1,48,40,1973983368
5719,15,Jits_Phase_8,2,5,63,98,1973987816
5719,15,Jits_Phase_8,3,5,80,127,1974067464
5719,15,Jits_Phase_8,0,5,80,127,1974638060
5719,15,Jits_Phase_8,1,5,63,98,1974677928
5719,15,Jits_Phase_8,2,5,56,103,1974698312
5719,15,Jits_Phase_8,3,1,48,36,1974753716
5719,15,Jits_Phase_8,0,5,56,103,1975508332
5719,15,Jits_Phase_8,1,5,80,127,1975517480
5719,15,Jits_Phase_8,2,5,63,98,1975538088
5719,15,Jits_Phase_8,3,1,48,40,1975576420
5719,15,Jits_Phase_8,0,5,56,103,1976287648
5719,15,Jits_Phase_8,1,5,63,98,1976337852
5719,15,Jits_Phase_8,2,1,48,38,1976355196
5719,15,Jits_Phase_8,3,5,80,127,1976367520
5719,15,Jits_Phase_8,0,5,56,103,1977038200
5719,15,Jits_Phase_8,1,5,63,98,1977048400
5719,15,Jits_Phase_8,2,5,80,127,1977097700
5719,15,Jits_Phase_8,3,1,48,41,1977122916
5719,15,Jits_Phase_8,0,5,56,103,1977827848
5719,15,Jits_Phase_8,1,5,80,127,1977830916
5719,15,Jits_Phase_8,2,1,48,35,1977871124
5719,15,Jits_Phase_8,3,5,63,98,1977987356
5719,15,Jits_Phase_8,0,1,48,35,1978590416
5719,15,Jits_Phase_8,1,5,63,98,1978647908
5719,15,Jits_Phase_8,2,5,56,103,1978717648
5719,15,Jits_Phase_8,3,5,80,127,1978757540
5719,15,Jits_Phase_8,0,1,48,38,1979390772
5719,15,Jits_Phase_8,1,5,63,98,1979487812
5719,15,Jits_Phase_8,2,5,56,103,1979577968
5719,15,Jits_Phase_8,3,5,80,127,1979581108
5719,15,Jits_Phase_8,0,1,48,41,1980247404
5719,15,Jits_Phase_8,1,5,56,103,1980267980
5719,15,Jits_Phase_8,2,5,63,98,1980357948
5719,15,Jits_Phase_8,3,5,80,127,1980368220
5719,15,Jits_Phase_8,0,5,56,103,1981037928
5719,15,Jits_Phase_8,1,1,48,34,1981049588
5719,15,Jits_Phase_8,2,5,63,98,1981088124
5719,15,Jits_Phase_8,3,5,80,127,1981117724
5719,15,Jits_Phase_8,0,1,48,35,1981837744
5719,15,Jits_Phase_8,1,5,63,98,1981917632
5719,15,Jits_Phase_8,2,5,80,127,1981927756
5719,15,Jits_Phase_8,3,5,56,103,1981988128
5719,15,Jits_Phase_8,0,5,63,98,1982637312
5719,15,Jits_Phase_8,1,5,80,127,1982697852
5719,15,Jits_Phase_8,2,1,48,42,1982700824
5719,15,Jits_Phase_8,3,5,56,103,1982737636
5719,15,Jits_Phase_8,0,1,48,44,1983410060
5719,15,Jits_Phase_8,1,5,56,103,1983537592
5719,15,Jits_Phase_8,2,5,80,127,1983558124
5719,15,Jits_Phase_8,3,5,63,98,1983577316
5719,15,Jits_Phase_8,0,1,48,39,1984216724
5719,15,Jits_Phase_8,1,5,63,98,1984258628
5719,15,Jits_Phase_8,2,5,56,103,1984277964
5719,15,Jits_Phase_8,3,5,80,127,1984317664
5719,15,Jits_Phase_8,0,1,48,39,1984999844
5719,15,Jits_Phase_8,1,5,63,98,1985068348
5719,15,Jits_Phase_8,2,5,80,127,1985098232
5719,15,Jits_Phase_8,3,5,56,103,1985117496
5719,15,Jits_Phase_8,0,1,48,38,1985797656
5719,15,Jits_Phase_8,1,5,80,127,1985837612
5719,15,Jits_Phase_8,2,5,56,103,1985887888
5719,15,Jits_Phase_8,3,5,63,98,1985947916
5719,15,Jits_Phase_8,0,1,48,40,1986599576
5719,15,Jits_Phase_8,1,5,63,98,1986628072
5719,15,Jits_Phase_8,2,5,56,103,1986747812
5719,15,Jits_Phase_8,3,5,80,127,1986777712
5719,15,Jits_Phase_8,0,1,48,44,1987416500
5719,15,Jits_Phase_8,1,5,80,127,1987467792
5719,15,Jits_Phase_8,2,5,63,98,1987488104
5719,15,Jits_Phase_8,3,5,56,103,1987557692
5719,15,Jits_Phase_8,0,1,48,43,1988251188
5719,15,Jits_Phase_8,1,5,63,98,1988287780
5719,15,Jits_Phase_8,2,5,56,103,1988298052
5719,15,Jits_Phase_8,3,5,80,127,1988377976
5719,15,Jits_Phase_8,0,1,48,42,1989060464
5719,15,Jits_Phase_8,1,5,56,103,1989148000
5719,15,Jits_Phase_8,2,5,80,127,1989177588
5719,15,Jits_Phase_8,3,5,63,98,1989188008
5719,15,Jits_Phase_8,0,9999,9999,9999,1854285904
5719,15,Jits_Phase_8,1,9999,9999,9999,1855085648
5719,15,Jits_Phase_8,2,9999,9999,9999,1855885416
5719,15,Jits_Phase_8,3,9999,9999,9999,1856685144
5719,15,Jits_Phase_8,4,9999,9999,9999,1857485936
5719,15,Jits_Phase_8,5,9999,9999,9999,1858285696
5719,15,Jits_Phase_8,6,9999,9999,9999,1859085388
5719,15,Jits_Phase_8,7,9999,9999,9999,1859885160
5719,15,Jits_Phase_8,8,9999,9999,9999,1860685912
5719,15,Jits_Phase_8,9,9999,9999,9999,1861485684
5719,15,Jits_Phase_8,10,9999,9999,9999,1862285388
5719,15,Jits_Phase_8,11,9999,9999,9999,1863085148
5719,15,Jits_Phase_8,12,9999,9999,9999,1863885896
5719,15,Jits_Phase_8,13,9999,9999,9999,1864685668
5719,15,Jits_Phase_8,14,9999,9999,9999,1865485412
5719,15,Jits_Phase_8,15,9999,9999,9999,1866285172
5719,15,Jits_Phase_8,16,9999,9999,9999,1867085884
5719,15,Jits_Phase_8,17,9999,9999,9999,1867885676
5719,15,Jits_Phase_8,18,9999,9999,9999,1868685436
5719,15,Jits_Phase_8,19,9999,9999,9999,1869485124
5719,15,Jits_Phase_8,20,9999,9999,9999,1870285928
5719,15,Jits_Phase_8,21,9999,9999,9999,1871085680
5719,15,Jits_Phase_8,22,9999,9999,9999,1871885432
5719,15,Jits_Phase_8,23,9999,9999,9999,1872685112
5719,15,Jits_Phase_8,24,9999,9999,9999,1873485912
5719,15,Jits_Phase_8,25,9999,9999,9999,1874285624
5719,15,Jits_Phase_8,26,9999,9999,9999,1875085384
5719,15,Jits_Phase_8,27,9999,9999,9999,1875885140
5719,15,Jits_Phase_8,28,9999,9999,9999,1876685884
5719,15,Jits_Phase_8,29,9999,9999,9999,1877485652
5719,15,Jits_Phase_8,30,9999,9999,9999,1878265928
5719,15,Jits_Phase_8,31,9999,9999,9999,1879065684
5719,15,Jits_Phase_8,32,9999,9999,9999,1879865460
5719,15,Jits_Phase_8,33,9999,9999,9999,1880665152
5719,15,Jits_Phase_8,34,9999,9999,9999,1881465924
5719,15,Jits_Phase_8,35,9999,9999,9999,1882265704
5719,15,Jits_Phase_8,36,9999,9999,9999,1883065472
5719,15,Jits_Phase_8,37,9999,9999,9999,1883865172
5719,15,Jits_Phase_8,38,9999,9999,9999,1884665912
5719,15,Jits_Phase_8,39,9999,9999,9999,1885465688
5719,15,Jits_Phase_8,40,9999,9999,9999,1886265464
5719,15,Jits_Phase_8,41,9999,9999,9999,1887065160
5719,15,Jits_Phase_8,42,9999,9999,9999,1887865912
5719,15,Jits_Phase_8,43,9999,9999,9999,1888665680
5719,15,Jits_Phase_8,44,9999,9999,9999,1889465416
5719,15,Jits_Phase_8,45,9999,9999,9999,1890265176
5719,15,Jits_Phase_8,46,9999,9999,9999,1891065980
5719,15,Jits_Phase_8,47,9999,9999,9999,1891865672
5719,15,Jits_Phase_8,48,9999,9999,9999,1892685896
5719,15,Jits_Phase_8,49,9999,9999,9999,1893485676
5719,15,Jits_Phase_8,50,9999,9999,9999,1894285432
5719,15,Jits_Phase_8,51,9999,9999,9999,1895085116
5719,15,Jits_Phase_8,52,9999,9999,9999,1895885924
5719,15,Jits_Phase_8,53,9999,9999,9999,1896685684
5719,15,Jits_Phase_8,54,9999,9999,9999,1897485368
5719,15,Jits_Phase_8,55,9999,9999,9999,1898285144
5719,15,Jits_Phase_8,56,9999,9999,9999,1899085944
5719,15,Jits_Phase_8,57,9999,9999,9999,1899885656
5719,15,Jits_Phase_8,58,9999,9999,9999,1900685412
5719,15,Jits_Phase_8,59,9999,9999,9999,1901485144
5719,15,Jits_Phase_8,60,9999,9999,9999,1902285884
5719,15,Jits_Phase_8,61,9999,9999,9999,1903085648
5719,15,Jits_Phase_8,62,9999,9999,9999,1903885404
5719,15,Jits_Phase_8,63,9999,9999,9999,1904685152
5719,15,Jits_Phase_8,64,9999,9999,9999,1905525848
5719,15,Jits_Phase_8,65,9999,9999,9999,1906325612
5719,15,Jits_Phase_8,66,9999,9999,9999,1907125372
5719,15,Jits_Phase_8,67,9999,9999,9999,1907926112
5719,15,Jits_Phase_8,68,9999,9999,9999,1908736120
5719,15,Jits_Phase_8,69,9999,9999,9999,1909546084
5719,15,Jits_Phase_8,70,9999,9999,9999,1910345852
5719,15,Jits_Phase_8,71,9999,9999,9999,1911145572
5719,15,Jits_Phase_8,72,9999,9999,9999,1911945332
5719,15,Jits_Phase_8,73,9999,9999,9999,1912746076
5719,15,Jits_Phase_8,74,9999,9999,9999,1913545844
5719,15,Jits_Phase_8,75,9999,9999,9999,1914345536
5719,15,Jits_Phase_8,76,9999,9999,9999,1915145304
5719,15,Jits_Phase_8,77,9999,9999,9999,1915946112
5719,15,Jits_Phase_8,78,9999,9999,9999,1916745788
5719,15,Jits_Phase_8,79,9999,9999,9999,1917545588
5719,15,Jits_Phase_8,80,9999,9999,9999,1918345272
5719,15,Jits_Phase_8,81,9999,9999,9999,1919105096
5719,15,Jits_Phase_8,82,9999,9999,9999,1919905908
5719,15,Jits_Phase_8,83,9999,9999,9999,1920705660
5719,15,Jits_Phase_8,84,9999,9999,9999,1921505336
5719,15,Jits_Phase_8,85,9999,9999,9999,1922305112
5719,15,Jits_Phase_8,86,9999,9999,9999,1923105916
5719,15,Jits_Phase_8,87,9999,9999,9999,1923905596
5719,15,Jits_Phase_8,88,9999,9999,9999,1924705344
5719,15,Jits_Phase_8,89,9999,9999,9999,1925505132
5719,15,Jits_Phase_8,90,9999,9999,9999,1926305872
5719,15,Jits_Phase_8,91,9999,9999,9999,1927105624
5719,15,Jits_Phase_8,92,9999,9999,9999,1927905400
5719,15,Jits_Phase_8,93,9999,9999,9999,1928705080
5719,15,Jits_Phase_8,94,9999,9999,9999,1929505884
5719,15,Jits_Phase_8,95,9999,9999,9999,1930305656
5719,15,Jits_Phase_8,96,9999,9999,9999,1931105352
5719,15,Jits_Phase_8,97,9999,9999,9999,1931825244
5719,15,Jits_Phase_8,98,9999,9999,9999,1932625992
5719,15,Jits_Phase_8,99,9999,9999,9999,1933425720
5719,15,Jits_Phase_8,100,9999,9999,9999,1934225484
5719,15,Jits_Phase_8,101,9999,9999,9999,1935025244
5719,15,Jits_Phase_8,102,9999,9999,9999,1935825984
5719,15,Jits_Phase_8,103,9999,9999,9999,1936625736
5719,15,Jits_Phase_8,104,9999,9999,9999,1937425496
5719,15,Jits_Phase_8,105,9999,9999,9999,1938225260
5719,15,Jits_Phase_8,106,9999,9999,9999,1939025984
5719,15,Jits_Phase_8,107,9999,9999,9999,1939825748
5719,15,Jits_Phase_8,108,9999,9999,9999,1940625512
5719,15,Jits_Phase_8,109,9999,9999,9999,1941425264
5719,15,Jits_Phase_8,110,9999,9999,9999,1942225996
5719,15,Jits_Phase_8,111,9999,9999,9999,1943025760
5719,15,Jits_Phase_8,112,9999,9999,9999,1943825512
5719,15,Jits_Phase_8,113,9999,9999,9999,1944625212
5719,15,Jits_Phase_8,114,9999,9999,9999,1945505900
5719,15,Jits_Phase_8,115,9999,9999,9999,1946305660
5719,15,Jits_Phase_8,116,9999,9999,9999,1947105348
5719,15,Jits_Phase_8,117,9999,9999,9999,1947905124
5719,15,Jits_Phase_8,118,9999,9999,9999,1948705856
5719,15,Jits_Phase_8,119,9999,9999,9999,1949505612
5719,15,Jits_Phase_8,120,9999,9999,9999,1950305380
5719,15,Jits_Phase_8,121,9999,9999,9999,1951105084
5719,15,Jits_Phase_8,122,9999,9999,9999,1951905880
5719,15,Jits_Phase_8,123,9999,9999,9999,1952705632
5719,15,Jits_Phase_8,124,9999,9999,9999,1953505396
5719,15,Jits_Phase_8,125,9999,9999,9999,1954305148
5719,15,Jits_Phase_8,126,9999,9999,9999,1955105884
5719,15,Jits_Phase_8,127,9999,9999,9999,1955905648
5719,15,Jits_Phase_8,128,9999,9999,9999,1956705404
5719,15,Jits_Phase_8,129,9999,9999,9999,1957505112
5719,15,Jits_Phase_8,130,9999,9999,9999,1958305852
5719,15,Jits_Phase_8,131,9999,9999,9999,1959265336
5719,15,Jits_Phase_8,132,9999,9999,9999,1960065112
5719,15,Jits_Phase_8,133,9999,9999,9999,1960865852
5719,15,Jits_Phase_8,134,9999,9999,9999,1961665612
5719,15,Jits_Phase_8,135,9999,9999,9999,1962465356
5719,15,Jits_Phase_8,136,9999,9999,9999,1963265116
5719,15,Jits_Phase_8,137,9999,9999,9999,1964065864
5719,15,Jits_Phase_8,138,9999,9999,9999,1964865636
5719,15,Jits_Phase_8,139,9999,9999,9999,1965665336
5719,15,Jits_Phase_8,140,9999,9999,9999,1966465116
5719,15,Jits_Phase_8,141,9999,9999,9999,1967265848
5719,15,Jits_Phase_8,142,9999,9999,9999,1968065612
5719,15,Jits_Phase_8,143,9999,9999,9999,1968865372
5719,15,Jits_Phase_8,144,9999,9999,9999,1969665124
5719,15,Jits_Phase_8,145,9999,9999,9999,1970465860
5719,15,Jits_Phase_8,146,9999,9999,9999,1971265620
5719,15,Jits_Phase_8,147,9999,9999,9999,1972065372
5719,15,Jits_Phase_8,148,9999,9999,9999,1972865140
5719,15,Jits_Phase_8,149,9999,9999,9999,1973665868
5719,15,Jits_Phase_8,150,9999,9999,9999,1974305884
5719,15,Jits_Phase_8,151,9999,9999,9999,1975105652
5719,15,Jits_Phase_8,152,9999,9999,9999,1975905352
5719,15,Jits_Phase_8,153,9999,9999,9999,1976705148
5719,15,Jits_Phase_8,154,9999,9999,9999,1977505888
5719,15,Jits_Phase_8,155,9999,9999,9999,1978305648
5719,15,Jits_Phase_8,156,9999,9999,9999,1979105348
5719,15,Jits_Phase_8,157,9999,9999,9999,1979905104
5719,15,Jits_Phase_8,158,9999,9999,9999,1980705912
5719,15,Jits_Phase_8,159,9999,9999,9999,1981505592
5719,15,Jits_Phase_8,160,9999,9999,9999,1982305372
5719,15,Jits_Phase_8,161,9999,9999,9999,1983105080
5719,15,Jits_Phase_8,162,9999,9999,9999,1983905892
5719,15,Jits_Phase_8,163,9999,9999,9999,1984705648
5719,15,Jits_Phase_8,164,9999,9999,9999,1985505404
5719,15,Jits_Phase_8,165,9999,9999,9999,1986305088
5719,15,Jits_Phase_8,166,9999,9999,9999,1987105892
5719,15,Jits_Phase_8,167,9999,9999,9999,1987905648
5719,15,Jits_Phase_8,168,9999,9999,9999,1988705336
5719,15,Jits_Phase_8,169,9999,9999,9999,1989505128
5720,5,ISIP_5,0,5,42,127,2110195020
5720,5,ISIP_5,1,5,42,127,2110694812
5720,5,ISIP_5,2,5,42,127,2111194604
5720,5,ISIP_5,3,5,42,127,2111695220
5720,5,ISIP_5,4,1,48,53,2112180756
5720,5,ISIP_5,5,5,42,127,2112194852
5720,5,ISIP_5,6,1,48,46,2112663772
5720,5,ISIP_5,7,5,42,127,2112694548
5720,5,ISIP_5,8,1,48,43,2113182016
5720,5,ISIP_5,9,5,42,127,2113195516
5720,5,ISIP_5,10,1,48,42,2113677748
5720,5,ISIP_5,11,5,42,127,2113695056
5720,5,ISIP_5,12,1,48,46,2114176916
5720,5,ISIP_5,13,5,42,127,2114194680
5720,5,ISIP_5,14,1,48,41,2114657236
5720,5,ISIP_5,15,5,42,127,2114694520
5720,5,ISIP_5,16,1,48,34,2115193528
5720,5,ISIP_5,17,5,42,127,2115195264
5720,5,ISIP_5,18,1,48,29,2115618456
5720,5,ISIP_5,19,5,42,127,2115695032
5720,5,ISIP_5,20,1,48,38,2116149268
5720,5,ISIP_5,21,5,42,127,2116194576
5720,5,ISIP_5,22,1,48,29,2116636992
5720,5,ISIP_5,23,5,42,127,2116695520
5720,5,ISIP_5,24,1,48,23,2117130332
5720,5,ISIP_5,25,5,42,127,2117195064
5720,5,ISIP_5,26,1,48,32,2117651796
5720,5,ISIP_5,27,5,42,127,2117694688
5720,5,ISIP_5,28,1,48,35,2118167348
5720,5,ISIP_5,29,5,42,127,2118194608
5720,5,ISIP_5,30,1,48,39,2118674220
5720,5,ISIP_5,31,5,42,127,2118695424
5720,5,ISIP_5,32,1,48,36,2119172868
5720,5,ISIP_5,33,5,42,127,2119195044
5720,5,ISIP_5,34,1,48,39,2119688348
5720,5,ISIP_5,35,5,42,127,2119694664
5720,5,ISIP_5,36,5,42,127,2120194364
5720,5,ISIP_5,37,1,48,40,2120207732
5720,5,ISIP_5,38,1,48,39,2120694580
5720,5,ISIP_5,39,5,42,127,2120696224
5720,5,ISIP_5,40,1,48,38,2121192364
5720,5,ISIP_5,41,5,42,127,2121194872
5720,5,ISIP_5,42,5,42,127,2121694424
5720,5,ISIP_5,43,1,48,37,2121701656
5720,5,ISIP_5,44,1,48,36,2122194484
5720,5,ISIP_5,45,5,42,127,2122196204
5720,5,ISIP_5,46,1,48,40,2122689204
5720,5,ISIP_5,47,5,42,127,2122695224
5720,5,ISIP_5,48,1,48,35,2123185760
5720,5,ISIP_5,49,5,42,127,2123194696
5720,5,ISIP_5,50,1,48,40,2123677304
5720,5,ISIP_5,51,5,42,127,2123694392
5720,5,ISIP_5,52,1,48,43,2124169592
5720,5,ISIP_5,53,5,42,127,2124195428
5720,5,ISIP_5,54,1,48,34,2124689708
5720,5,ISIP_5,55,5,42,127,2124694976
5720,5,ISIP_5,56,5,42,127,2125194528
5720,5,ISIP_5,57,1,48,33,2125202512
5720,5,ISIP_5,58,1,48,35,2125681168
5720,5,ISIP_5,59,5,42,127,2125695264
5720,5,ISIP_5,60,1,48,38,2126158028
5720,5,ISIP_5,61,5,42,127,2126195404
5720,5,ISIP_5,62,1,48,35,2126654728
5720,5,ISIP_5,63,5,42,127,2126694728
5720,5,ISIP_5,64,1,48,39,2127143428
5720,5,ISIP_5,65,5,42,127,2127194648
5720,5,ISIP_5,66,1,48,36,2127678352
5720,5,ISIP_5,67,5,42,127,2127695292
5720,5,ISIP_5,68,1,48,38,2128171688
5720,5,ISIP_5,69,5,42,127,2128195208
5720,5,ISIP_5,70,1,48,37,2128673480
5720,5,ISIP_5,71,5,42,127,2128694608
5720,5,ISIP_5,72,1,48,40,2129166140
5720,5,ISIP_5,73,5,42,127,2129195348
5720,5,ISIP_5,74,1,48,41,2129667632
5720,5,ISIP_5,75,5,42,127,2129695192
5720,5,ISIP_5,76,1,48,36,2130172940
5720,5,ISIP_5,77,1,48,40,2130705104
5720,5,ISIP_5,78,1,48,42,2131215940
5720,5,ISIP_5,79,1,48,38,2131715108
5720,5,ISIP_5,80,1,48,36,2132209864
5720,5,ISIP_5,81,1,48,38,2132729072
5720,5,ISIP_5,82,1,48,38,2133207968
5720,5,ISIP_5,83,1,48,39,2133736308
5720,5,ISIP_5,84,1,48,36,2134226128
5720,5,ISIP_5,85,1,48,37,2134741152
5720,5,ISIP_5,86,1,48,42,2135240168
5720,5,ISIP_5,87,1,48,36,2135750628
5720,5,ISIP_5,88,1,48,38,2136250316
5720,5,ISIP_5,89,1,48,35,2136767740
5720,5,ISIP_5,90,1,48,36,2137253968
5720,5,ISIP_5,91,1,48,39,2137763904
5720,5,ISIP_5,92,1,48,37,2138273992
5720,5,ISIP_5,93,1,48,38,2138782060
5720,5,ISIP_5,94,1,48,36,2139292972
5720,5,ISIP_5,95,1,48,38,2139808440
5720,5,ISIP_5,96,1,48,38,2140302600
5720,5,ISIP_5,97,1,48,35,2140807148
5720,5,ISIP_5,98,1,48,36,2141292932
5720,5,ISIP_5,99,1,48,40,2141816032
5720,5,ISIP_5,100,1,48,37,2142306896
5720,5,ISIP_5,101,1,48,38,2142804768
5720,5,ISIP_5,102,1,48,37,2143329768
5720,5,ISIP_5,103,1,48,39,2143832944
5720,5,ISIP_5,104,1,48,40,2144314736
5720,5,ISIP_5,105,1,48,36,2144803580
5720,5,ISIP_5,106,1,48,32,2145307088
5720,5,ISIP_5,107,1,48,34,2145818368
5720,5,ISIP_5,108,1,48,33,2146299136
5720,5,ISIP_5,109,1,48,35,2146809976
5720,5,ISIP_5,110,1,48,35,2147320284
5720,5,ISIP_5,111,1,48,31,2147837772
5720,5,ISIP_5,112,1,48,31,2148314504
5720,5,ISIP_5,113,1,48,31,2148830648
5720,5,ISIP_5,114,1,48,35,2149353448
5720,5,ISIP_5,115,1,48,38,2149859872
5720,5,ISIP_5,116,1,48,35,2150354480
5720,5,ISIP_5,117,1,48,35,2150852596
5720,5,ISIP_5,118,1,48,33,2151337704
5720,5,ISIP_5,119,1,48,32,2151862380
5720,5,ISIP_5,120,1,48,35,2152366628
5720,5,ISIP_5,121,1,48,38,2152869912
5720,5,ISIP_5,122,1,48,33,2153374240
5720,5,ISIP_5,123,1,48,36,2153896888
5720,5,ISIP_5,124,1,48,38,2154396136
5720,5,ISIP_5,125,1,48,37,2154902636
5720,5,ISIP_5,126,1,48,32,2155400900
5720,5,ISIP_5,127,1,48,37,2155914656
5720,5,ISIP_5,128,1,48,32,2156416888
5720,5,ISIP_5,129,1,48,37,2156919420
5720,5,ISIP_5,130,1,48,33,2157442152
5720,5,ISIP_5,131,1,48,35,2157934432
5720,5,ISIP_5,132,1,48,34,2158428064
5720,5,ISIP_5,133,1,48,37,2158937184
5720,5,ISIP_5,134,1,48,35,2159453328
5720,5,ISIP_5,135,1,48,37,2159982116
5720,5,ISIP_5,136,1,48,31,2160482928
5720,5,ISIP_5,137,1,48,37,2160992492
5720,5,ISIP_5,138,1,48,39,2161500636
5720,5,ISIP_5,139,1,48,36,2162021944
5720,5,ISIP_5,140,1,48,35,2162546768
5720,5,ISIP_5,141,1,48,37,2163042192
5720,5,ISIP_5,142,1,48,36,2163543280
5720,5,ISIP_5,143,1,48,36,2164050004
5720,5,ISIP_5,144,1,48,35,2164548492
5720,5,ISIP_5,145,1,48,32,2165062772
5720,5,ISIP_5,146,1,48,36,2165555804
5720,5,ISIP_5,147,1,48,35,2166059088
5720,5,ISIP_5,148,1,48,37,2166563264
5720,5,ISIP_5,149,1,48,38,2167061980
5720,5,ISIP_5,150,1,48,38,2167573336
5720,5,ISIP_5,151,1,48,37,2168057024
5720,5,ISIP_5,152,1,48,33,2168566360
5720,5,ISIP_5,153,1,48,38,2169064256
5720,5,ISIP_5,154,1,48,32,2169569336
5720,5,ISIP_5,155,1,48,32,2170078072
5720,5,ISIP_5,156,1,48,35,2170554652
5720,5,ISIP_5,157,1,48,39,2171067208
5720,5,ISIP_5,158,1,48,37,2171575800
5720,5,ISIP_5,159,1,48,35,2172073844
5720,5,ISIP_5,160,1,48,34,2172595528
5720,5,ISIP_5,161,1,48,35,2173094920
5720,5,ISIP_5,162,1,48,40,2173596780
5720,5,ISIP_5,163,1,48,39,2174091312
5720,5,ISIP_5,164,1,48,35,2174595032
5720,5,ISIP_5,165,1,48,36,2175102356
5720,5,ISIP_5,166,1,48,38,2175596064
5720,5,ISIP_5,167,1,48,38,2176124328
5720,5,ISIP_5,168,1,48,36,2176636880
5720,5,ISIP_5,169,1,48,40,2177158640
5720,5,ISIP_5,170,1,48,37,2177666560
5720,5,ISIP_5,171,1,48,33,2178177244
5720,5,ISIP_5,172,1,48,39,2178665940
5720,5,ISIP_5,173,1,48,38,2179153784
5720,5,ISIP_5,174,1,48,36,2179667836
5720,5,ISIP_5,175,1,48,33,2180157804
5720,5,ISIP_5,176,1,48,29,2180660412
5720,5,ISIP_5,177,1,48,40,2181145288
5720,5,ISIP_5,178,1,48,36,2181656652
5720,5,ISIP_5,179,1,48,40,2182157836
5720,5,ISIP_5,180,1,48,39,2182659472
5720,5,ISIP_5,181,1,48,43,2183161404
5720,5,ISIP_5,182,1,48,35,2183665284
5720,5,ISIP_5,183,1,48,36,2184169088
5720,5,ISIP_5,184,1,48,38,2184686808
5720,5,ISIP_5,185,1,48,41,2185189640
5720,5,ISIP_5,186,1,48,40,2185754564
5720,5,ISIP_5,187,1,48,41,2186290608
5720,5,ISIP_5,188,1,48,42,2186801220
5720,5,ISIP_5,189,1,48,40,2187298736
5720,5,ISIP_5,190,1,48,35,2187806884
5720,5,ISIP_5,191,1,48,37,2188316000
5720,5,ISIP_5,192,1,48,34,2188812920
5720,5,ISIP_5,193,1,48,37,2189316724
5720,5,ISIP_5,194,1,48,35,2189822844
5720,5,ISIP_5,0,9999,9999,9999,2110192736
5720,5,ISIP_5,1,9999,9999,9999,2110692452
5720,5,ISIP_5,2,9999,9999,9999,2111192168
5720,5,ISIP_5,3,9999,9999,9999,2111692856
5720,5,ISIP_5,4,9999,9999,9999,2112192568
5720,5,ISIP_5,5,9999,9999,9999,2112692336
5720,5,ISIP_5,6,9999,9999,9999,2113193076
5720,5,ISIP_5,7,9999,9999,9999,2113692772
5720,5,ISIP_5,8,9999,9999,9999,2114192468
5720,5,ISIP_5,9,9999,9999,9999,2114692160
5720,5,ISIP_5,10,9999,9999,9999,2115192928
5720,5,ISIP_5,11,9999,9999,9999,2115692596
5720,5,ISIP_5,12,9999,9999,9999,2116192364
5720,5,ISIP_5,13,9999,9999,9999,2116693080
5720,5,ISIP_5,14,9999,9999,9999,2117192776
5720,5,ISIP_5,15,9999,9999,9999,2117692476
5720,5,ISIP_5,16,9999,9999,9999,2118192248
5720,5,ISIP_5,17,9999,9999,9999,2118692912
5720,5,ISIP_5,18,9999,9999,9999,2119192684
5720,5,ISIP_5,19,9999,9999,9999,2119692380
5720,5,ISIP_5,20,9999,9999,9999,2120192080
5720,5,ISIP_5,21,9999,9999,9999,2120692820
5720,5,ISIP_5,22,9999,9999,9999,2121192512
5720,5,ISIP_5,23,9999,9999,9999,2121692212
5720,5,ISIP_5,24,9999,9999,9999,2122192952
5720,5,ISIP_5,25,9999,9999,9999,2122692716
5720,5,ISIP_5,26,9999,9999,9999,2123192412
5720,5,ISIP_5,27,9999,9999,9999,2123692104
5720,5,ISIP_5,28,9999,9999,9999,2124192844
5720,5,ISIP_5,29,9999,9999,9999,2124692540
5720,5,ISIP_5,30,9999,9999,9999,2125192244
5720,5,ISIP_5,31,9999,9999,9999,2125692976
5720,5,ISIP_5,32,9999,9999,9999,2126192748
5720,5,ISIP_5,33,9999,9999,9999,2126692444
5720,5,ISIP_5,34,9999,9999,9999,2127192116
5720,5,ISIP_5,35,9999,9999,9999,2127692856
5720,5,ISIP_5,36,9999,9999,9999,2128192624
5720,5,ISIP_5,37,9999,9999,9999,2128692320
5720,5,ISIP_5,38,9999,9999,9999,2129193060
5720,5,ISIP_5,39,9999,9999,9999,2129692756
5720,5,ISIP_5,40,9999,9999,9999,2130192452
5720,5,ISIP_5,41,9999,9999,9999,2130692148
5720,5,ISIP_5,42,9999,9999,9999,2131192888
5720,5,ISIP_5,43,9999,9999,9999,2131692652
5720,5,ISIP_5,44,9999,9999,9999,2132192340
5720,5,ISIP_5,45,9999,9999,9999,2132693080
5720,5,ISIP_5,46,9999,9999,9999,2133192772
5720,5,ISIP_5,47,9999,9999,9999,2133692536
5720,5,ISIP_5,48,9999,9999,9999,2134192228
5720,5,ISIP_5,49,9999,9999,9999,2134692964
5720,5,ISIP_5,50,9999,9999,9999,2135192656
5720,5,ISIP_5,51,9999,9999,9999,2135692348
5720,5,ISIP_5,52,9999,9999,9999,2136192112
5720,5,ISIP_5,53,9999,9999,9999,2136692848
5720,5,ISIP_5,54,9999,9999,9999,2137192540
5720,5,ISIP_5,55,9999,9999,9999,2137692232
5720,5,ISIP_5,56,9999,9999,9999,2138193016
5720,5,ISIP_5,57,9999,9999,9999,2138692708
5720,5,ISIP_5,58,9999,9999,9999,2139192400
5720,5,ISIP_5,59,9999,9999,9999,2139692092
5720,5,ISIP_5,60,9999,9999,9999,2140192828
5720,5,ISIP_5,61,9999,9999,9999,2140692596
5720,5,ISIP_5,62,9999,9999,9999,2141192284
5720,5,ISIP_5,63,9999,9999,9999,2141693024
5720,5,ISIP_5,64,9999,9999,9999,2142192716
5720,5,ISIP_5,65,9999,9999,9999,2142692408
5720,5,ISIP_5,66,9999,9999,9999,2143192172
5720,5,ISIP_5,67,9999,9999,9999,2143692908
5720,5,ISIP_5,68,9999,9999,9999,2144192576
5720,5,ISIP_5,69,9999,9999,9999,2144692340
5720,5,ISIP_5,70,9999,9999,9999,2145193076
5720,5,ISIP_5,71,9999,9999,9999,2145692768
5720,5,ISIP_5,72,9999,9999,9999,2146192456
5720,5,ISIP_5,73,9999,9999,9999,2146692148
5720,5,ISIP_5,74,9999,9999,9999,2147192888
5720,5,ISIP_5,75,9999,9999,9999,2147692652
5720,5,ISIP_5,76,9999,9999,9999,2148192344
5720,5,ISIP_5,77,9999,9999,9999,2148693056
5720,5,ISIP_5,78,9999,9999,9999,2149192820
5720,5,ISIP_5,79,9999,9999,9999,2149692512
5720,5,ISIP_5,80,9999,9999,9999,2150192204
5720,5,ISIP_5,81,9999,9999,9999,2150692940
5720,5,ISIP_5,82,9999,9999,9999,2151192628
5720,5,ISIP_5,83,9999,9999,9999,2151692396
5720,5,ISIP_5,84,9999,9999,9999,2152192084
5720,5,ISIP_5,85,9999,9999,9999,2152692824
5720,5,ISIP_5,86,9999,9999,9999,2153192516
5720,5,ISIP_5,87,9999,9999,9999,2153692280
5720,5,ISIP_5,88,9999,9999,9999,2154193016
5720,5,ISIP_5,89,9999,9999,9999,2154692708
5720,5,ISIP_5,90,9999,9999,9999,2155192400
5720,5,ISIP_5,91,9999,9999,9999,2155692092
5720,5,ISIP_5,92,9999,9999,9999,2156192828
5720,5,ISIP_5,93,9999,9999,9999,2156692592
5720,5,ISIP_5,94,9999,9999,9999,2157192284
5720,5,ISIP_5,95,9999,9999,9999,2157693020
5720,5,ISIP_5,96,9999,9999,9999,2158192712
5720,5,ISIP_5,97,9999,9999,9999,2158692400
5720,5,ISIP_5,98,9999,9999,9999,2159192168
5720,5,ISIP_5,99,9999,9999,9999,2159692880
5720,5,ISIP_5,100,9999,9999,9999,2160192572
5720,5,ISIP_5,101,9999,9999,9999,2160692336
5720,5,ISIP_5,102,9999,9999,9999,2161193076
5720,5,ISIP_5,103,9999,9999,9999,2161692768
5720,5,ISIP_5,104,9999,9999,9999,2162192456
5720,5,ISIP_5,105,9999,9999,9999,2162692148
5720,5,ISIP_5,106,9999,9999,9999,2163192888
5720,5,ISIP_5,107,9999,9999,9999,2163692652
5720,5,ISIP_5,108,9999,9999,9999,2164192340
5720,5,ISIP_5,109,9999,9999,9999,2164693080
5720,5,ISIP_5,110,9999,9999,9999,2165192768
5720,5,ISIP_5,111,9999,9999,9999,2165692536
5720,5,ISIP_5,112,9999,9999,9999,2166192224
5720,5,ISIP_5,113,9999,9999,9999,2166692960
5720,5,ISIP_5,114,9999,9999,9999,2167192652
5720,5,ISIP_5,115,9999,9999,9999,2167692344
5720,5,ISIP_5,116,9999,9999,9999,2168192108
5720,5,ISIP_5,117,9999,9999,9999,2168692844
5720,5,ISIP_5,118,9999,9999,9999,2169192536
5720,5,ISIP_5,119,9999,9999,9999,2169692228
5720,5,ISIP_5,120,9999,9999,9999,2170193016
5720,5,ISIP_5,121,9999,9999,9999,2170692704
5720,5,ISIP_5,122,9999,9999,9999,2171192396
5720,5,ISIP_5,123,9999,9999,9999,2171692088
5720,5,ISIP_5,124,9999,9999,9999,2172192824
5720,5,ISIP_5,125,9999,9999,9999,2172692592
5720,5,ISIP_5,126,9999,9999,9999,2173192284
5720,5,ISIP_5,127,9999,9999,9999,2173693020
5720,5,ISIP_5,128,9999,9999,9999,2174192708
5720,5,ISIP_5,129,9999,9999,9999,2174692476
5720,5,ISIP_5,130,9999,9999,9999,2175192180
5720,5,ISIP_5,131,9999,9999,9999,2175692920
5720,5,ISIP_5,132,9999,9999,9999,2176192608
5720,5,ISIP_5,133,9999,9999,9999,2176692300
5720,5,ISIP_5,134,9999,9999,9999,2177193040
5720,5,ISIP_5,135,9999,9999,9999,2177692728
5720,5,ISIP_5,136,9999,9999,9999,2178192496
5720,5,ISIP_5,137,9999,9999,9999,2178692184
5720,5,ISIP_5,138,9999,9999,9999,2179192920
5720,5,ISIP_5,139,9999,9999,9999,2179692612
5720,5,ISIP_5,140,9999,9999,9999,2180192376
5720,5,ISIP_5,141,9999,9999,9999,2180693088
5720,5,ISIP_5,142,9999,9999,9999,2181192780
5720,5,ISIP_5,143,9999,9999,9999,2181692472
5720,5,ISIP_5,144,9999,9999,9999,2182192236
5720,5,ISIP_5,145,9999,9999,9999,2182692972
5720,5,ISIP_5,146,9999,9999,9999,2183192660
5720,5,ISIP_5,147,9999,9999,9999,2183692352
5720,5,ISIP_5,148,9999,9999,9999,2184192120
5720,5,ISIP_5,149,9999,9999,9999,2184692856
5720,5,ISIP_5,150,9999,9999,9999,2185192548
5720,5,ISIP_5,151,9999,9999,9999,2185692244
5720,5,ISIP_5,152,9999,9999,9999,2186192980
5720,5,ISIP_5,153,9999,9999,9999,2186692672
5720,5,ISIP_5,154,9999,9999,9999,2187192436
5720,5,ISIP_5,155,9999,9999,9999,2187692128
5720,5,ISIP_5,156,9999,9999,9999,2188192864
5720,5,ISIP_5,157,9999,9999,9999,2188692556
5720,5,ISIP_5,158,9999,9999,9999,2189192248
5720,5,ISIP_5,159,9999,9999,9999,2189692984
5721,3,ISIP_8,0,5,42,127,2217270844
5721,3,ISIP_8,1,5,42,127,2218071300
5721,3,ISIP_8,2,5,42,127,2218871128
5721,3,ISIP_8,3,5,42,127,2219671180
5721,3,ISIP_8,4,1,48,46,2220441952
5721,3,ISIP_8,5,5,42,127,2220470560
5721,3,ISIP_8,6,1,48,42,2221208028
5721,3,ISIP_8,7,5,42,127,2221271268
5721,3,ISIP_8,8,1,48,38,2221977992
5721,3,ISIP_8,9,5,42,127,2222071000
5721,3,ISIP_8,10,1,48,39,2222788796
5721,3,ISIP_8,11,5,42,127,2222870884
5721,3,ISIP_8,12,1,48,35,2223629520
5721,3,ISIP_8,13,5,42,127,2223670840
5721,3,ISIP_8,14,1,48,22,2224353708
5721,3,ISIP_8,15,5,42,127,2224471256
5721,3,ISIP_8,16,1,48,31,2225160248
5721,3,ISIP_8,17,5,42,127,2225271140
5721,3,ISIP_8,18,1,48,30,2225996628
5721,3,ISIP_8,19,5,42,127,2226071036
5721,3,ISIP_8,20,1,48,33,2226800728
5721,3,ISIP_8,21,5,42,127,2226870916
5721,3,ISIP_8,22,1,48,34,2227584824
5721,3,ISIP_8,23,5,42,127,2227671476
5721,3,ISIP_8,24,1,48,30,2228378652
5721,3,ISIP_8,25,5,42,127,2228471716
5721,3,ISIP_8,26,1,48,30,2229190352
5721,3,ISIP_8,27,5,42,127,2229270868
5721,3,ISIP_8,28,1,48,36,2229974084
5721,3,ISIP_8,29,5,42,127,2230070752
5721,3,ISIP_8,30,1,48,31,2230792136
5721,3,ISIP_8,31,5,42,127,2230871332
5721,3,ISIP_8,32,1,48,36,2231600996
5721,3,ISIP_8,33,5,42,127,2231671140
5721,3,ISIP_8,34,1,48,30,2232412500
5721,3,ISIP_8,35,5,42,127,2232470800
5721,3,ISIP_8,36,1,48,30,2233192108
5721,3,ISIP_8,37,5,42,127,2233270756
5721,3,ISIP_8,38,1,48,32,2233995588
5721,3,ISIP_8,39,5,42,127,2234071388
5721,3,ISIP_8,40,1,48,26,2234804744
5721,3,ISIP_8,41,5,42,127,2234871048
5721,3,ISIP_8,42,1,48,29,2235645912
5721,3,ISIP_8,43,5,42,127,2235670856
5721,3,ISIP_8,44,1,48,29,2236431736
5721,3,ISIP_8,45,5,42,127,2236470516
5721,3,ISIP_8,46,1,48,25,2237250844
5721,3,ISIP_8,47,5,42,127,2237271768
5721,3,ISIP_8,48,1,48,29,2238043420
5721,3,ISIP_8,49,5,42,127,2238071128
5721,3,ISIP_8,50,1,48,26,2238856988
5721,3,ISIP_8,51,5,42,127,2238870860
5721,3,ISIP_8,52,1,48,25,2239662188
5721,3,ISIP_8,53,5,42,127,2239670596
5721,3,ISIP_8,54,1,48,27,2240457132
5721,3,ISIP_8,55,5,42,127,2240471672
5721,3,ISIP_8,56,1,48,29,2241256040
5721,3,ISIP_8,57,1,48,27,2242032576
5721,3,ISIP_8,58,1,48,29,2242822512
5721,3,ISIP_8,59,1,48,25,2243609148
5721,3,ISIP_8,60,1,48,31,2244364600
5721,3,ISIP_8,61,1,48,29,2245160512
5721,3,ISIP_8,62,1,48,31,2245961512
5721,3,ISIP_8,63,1,48,32,2246736936
5721,3,ISIP_8,64,1,48,28,2247541548
5721,3,ISIP_8,65,1,48,26,2248313748
5721,3,ISIP_8,66,1,48,29,2249119312
5721,3,ISIP_8,67,1,48,30,2249892860
5721,3,ISIP_8,68,1,48,32,2250698880
5721,3,ISIP_8,69,1,48,32,2251493448
5721,3,ISIP_8,70,1,48,29,2252271480
5721,3,ISIP_8,71,1,48,28,2253033288
5721,3,ISIP_8,72,1,48,31,2253861812
5721,3,ISIP_8,73,1,48,31,2254662892
5721,3,ISIP_8,74,1,48,27,2255455244
5721,3,ISIP_8,75,1,48,24,2256218544
5721,3,ISIP_8,76,1,48,37,2257000096
5721,3,ISIP_8,77,1,48,33,2257799456
5721,3,ISIP_8,78,1,48,33,2258601872
5721,3,ISIP_8,79,1,48,32,2259358296
5721,3,ISIP_8,80,1,48,29,2260156680
5721,3,ISIP_8,81,1,48,34,2260930604
5721,3,ISIP_8,82,1,48,31,2261717096
5721,3,ISIP_8,83,1,48,33,2262464384
5721,3,ISIP_8,84,1,48,30,2263234724
5721,3,ISIP_8,85,1,48,33,2264001088
5721,3,ISIP_8,86,1,48,32,2264761776
5721,3,ISIP_8,87,1,48,33,2265501744
5721,3,ISIP_8,88,1,48,32,2266269232
5721,3,ISIP_8,89,1,48,32,2267027752
5721,3,ISIP_8,90,1,48,34,2267830168
5721,3,ISIP_8,91,1,48,30,2268584796
5721,3,ISIP_8,92,1,48,30,2269307936
5721,3,ISIP_8,93,1,48,31,2270097420
5721,3,ISIP_8,94,1,48,29,2270907992
5721,3,ISIP_8,95,1,48,29,2271665224
5721,3,ISIP_8,96,1,48,28,2272395088
5721,3,ISIP_8,97,1,48,32,2273157792
5721,3,ISIP_8,98,1,48,27,2273994544
5721,3,ISIP_8,99,1,48,26,2274742816
5721,3,ISIP_8,100,1,48,29,2275491308
5721,3,ISIP_8,101,1,48,30,2276268672
5721,3,ISIP_8,102,1,48,28,2277042524
5721,3,ISIP_8,103,1,48,28,2277802980
5721,3,ISIP_8,104,1,48,29,2278543244
5721,3,ISIP_8,105,1,48,32,2279350756
5721,3,ISIP_8,106,1,48,31,2280127824
5721,3,ISIP_8,107,1,48,28,2280855972
5721,3,ISIP_8,108,1,48,29,2281572672
5721,3,ISIP_8,109,1,48,28,2282370756
5721,3,ISIP_8,110,1,48,27,2283198456
5721,3,ISIP_8,111,1,48,27,2283979864
5721,3,ISIP_8,112,1,48,31,2284756776
5721,3,ISIP_8,113,1,48,28,2285535268
5721,3,ISIP_8,114,1,48,28,2286331404
5721,3,ISIP_8,115,1,48,29,2287102040
5721,3,ISIP_8,116,1,48,27,2287885160
5721,3,ISIP_8,117,1,48,28,2288662900
5721,3,ISIP_8,118,1,48,30,2289416556
5721,3,ISIP_8,119,1,48,30,2290173720
5721,3,ISIP_8,120,1,48,31,2290971732
5721,3,ISIP_8,121,1,48,29,2291725536
5721,3,ISIP_8,122,1,48,30,2292511496
5721,3,ISIP_8,123,1,48,34,2293272708
5721,3,ISIP_8,124,1,48,29,2294044896
5721,3,ISIP_8,125,1,48,27,2294821732
5721,3,ISIP_8,126,1,48,28,2295586460
5721,3,ISIP_8,127,1,48,29,2296366144
5721,3,ISIP_8,128,1,48,30,2297138940
5721,3,ISIP_8,129,1,48,33,2297942812
5721,3,ISIP_8,130,1,48,29,2298727280
5721,3,ISIP_8,131,1,48,30,2299487964
5721,3,ISIP_8,132,1,48,28,2300266228
5721,3,ISIP_8,133,1,48,27,2301071644
5721,3,ISIP_8,134,1,48,26,2301868232
5721,3,ISIP_8,135,1,48,26,2302630188
5721,3,ISIP_8,136,1,48,28,2303413836
5721,3,ISIP_8,137,1,48,27,2304197860
5721,3,ISIP_8,138,1,48,28,2304958464
5721,3,ISIP_8,139,1,48,30,2305725284
5721,3,ISIP_8,140,1,48,28,2306483948
5721,3,ISIP_8,141,1,48,23,2307246504
5721,3,ISIP_8,142,1,48,29,2307983780
5721,3,ISIP_8,143,1,48,26,2308720152
5721,3,ISIP_8,144,1,48,27,2309507320
5721,3,ISIP_8,145,1,48,29,2310261640
5721,3,ISIP_8,146,1,48,28,2311022856
5721,3,ISIP_8,147,1,48,30,2311782864
5721,3,ISIP_8,148,1,48,27,2312550056
5721,3,ISIP_8,149,1,48,29,2313307376
5721,3,ISIP_8,150,1,48,30,2314095212
5721,3,ISIP_8,151,1,48,31,2314886788
5721,3,ISIP_8,152,1,48,27,2315649552
5721,3,ISIP_8,153,1,48,30,2316404404
5721,3,ISIP_8,154,1,48,28,2317151552
5721,3,ISIP_8,155,1,48,27,2317937144
5721,3,ISIP_8,156,1,48,31,2318708076
5721,3,ISIP_8,157,1,48,28,2319487832
5721,3,ISIP_8,158,1,48,27,2320272904
5721,3,ISIP_8,159,1,48,27,2321051388
5721,3,ISIP_8,160,1,48,27,2321824268
5721,3,ISIP_8,161,1,48,26,2322599240
5721,3,ISIP_8,162,1,48,29,2323341676
5721,3,ISIP_8,163,1,48,28,2324129656
5721,3,ISIP_8,164,1,48,25,2324885560
5721,3,ISIP_8,165,1,48,27,2325651028
5721,3,ISIP_8,166,1,48,29,2326490700
5721,3,ISIP_8,167,1,48,29,2327271056
5721,3,ISIP_8,168,1,48,29,2328031816
5721,3,ISIP_8,169,1,48,30,2328802752
5721,3,ISIP_8,170,1,48,28,2329568596
5721,3,ISIP_8,171,1,48,35,2330316636
5721,3,ISIP_8,172,1,48,29,2331088096
5721,3,ISIP_8,173,1,48,35,2331835840
5721,3,ISIP_8,174,1,48,33,2332627044
5721,3,ISIP_8,175,1,48,29,2333411516
5721,3,ISIP_8,176,1,48,33,2334208476
5721,3,ISIP_8,177,1,48,33,2334971624
5721,3,ISIP_8,178,1,48,30,2335752880
5721,3,ISIP_8,179,1,48,31,2336487464
5721,3,ISIP_8,180,1,48,27,2337223672
5721,3,ISIP_8,0,9999,9999,9999,2217268332
5721,3,ISIP_8,1,9999,9999,9999,2218069084
5721,3,ISIP_8,2,9999,9999,9999,2218868840
5721,3,ISIP_8,3,9999,9999,9999,2219668592
5721,3,ISIP_8,4,9999,9999,9999,2220468268
5721,3,ISIP_8,5,9999,9999,9999,2221269052
5721,3,ISIP_8,6,9999,9999,9999,2222068784
5721,3,ISIP_8,7,9999,9999,9999,2222868592
5721,3,ISIP_8,8,9999,9999,9999,2223668328
5721,3,ISIP_8,9,9999,9999,9999,2224469040
5721,3,ISIP_8,10,9999,9999,9999,2225268852
5721,3,ISIP_8,11,9999,9999,9999,2226068596
5721,3,ISIP_8,12,9999,9999,9999,2226868332
5721,3,ISIP_8,13,9999,9999,9999,2227669112
5721,3,ISIP_8,14,9999,9999,9999,2228468844
5721,3,ISIP_8,15,9999,9999,9999,2229268580
5721,3,ISIP_8,16,9999,9999,9999,2230068316
5721,3,ISIP_8,17,9999,9999,9999,2230869044
5721,3,ISIP_8,18,9999,9999,9999,2231668852
5721,3,ISIP_8,19,9999,9999,9999,2232468584
5721,3,ISIP_8,20,9999,9999,9999,2233268320
5721,3,ISIP_8,21,9999,9999,9999,2234069100
5721,3,ISIP_8,22,9999,9999,9999,2234868836
5721,3,ISIP_8,23,9999,9999,9999,2235668568
5721,3,ISIP_8,24,9999,9999,9999,2236468300
5721,3,ISIP_8,25,9999,9999,9999,2237269108
5721,3,ISIP_8,26,9999,9999,9999,2238068840
5721,3,ISIP_8,27,9999,9999,9999,2238868572
5721,3,ISIP_8,28,9999,9999,9999,2239668304
5721,3,ISIP_8,29,9999,9999,9999,2240469084
5721,3,ISIP_8,30,9999,9999,9999,2241268820
5721,3,ISIP_8,31,9999,9999,9999,2242068548
5721,3,ISIP_8,32,9999,9999,9999,2242868276
5721,3,ISIP_8,33,9999,9999,9999,2243669076
5721,3,ISIP_8,34,9999,9999,9999,2244468792
5721,3,ISIP_8,35,9999,9999,9999,2245268596
5721,3,ISIP_8,36,9999,9999,9999,2246068324
5721,3,ISIP_8,37,9999,9999,9999,2246869100
5721,3,ISIP_8,38,9999,9999,9999,2247668828
5721,3,ISIP_8,39,9999,9999,9999,2248468556
5721,3,ISIP_8,40,9999,9999,9999,2249268288
5721,3,ISIP_8,41,9999,9999,9999,2250069088
5721,3,ISIP_8,42,9999,9999,9999,2250868816
5721,3,ISIP_8,43,9999,9999,9999,2251668544
5721,3,ISIP_8,44,9999,9999,9999,2252468272
5721,3,ISIP_8,45,9999,9999,9999,2253269052
5721,3,ISIP_8,46,9999,9999,9999,2254068852
5721,3,ISIP_8,47,9999,9999,9999,2254868584
5721,3,ISIP_8,48,9999,9999,9999,2255668312
5721,3,ISIP_8,49,9999,9999,9999,2256469040
5721,3,ISIP_8,50,9999,9999,9999,2257268844
5721,3,ISIP_8,51,9999,9999,9999,2258068572
5721,3,ISIP_8,52,9999,9999,9999,2258868304
5721,3,ISIP_8,53,9999,9999,9999,2259669076
5721,3,ISIP_8,54,9999,9999,9999,2260468808
5721,3,ISIP_8,55,9999,9999,9999,2261268536
5721,3,ISIP_8,56,9999,9999,9999,2262068340
5721,3,ISIP_8,57,9999,9999,9999,2262869068
5721,3,ISIP_8,58,9999,9999,9999,2263668796
5721,3,ISIP_8,59,9999,9999,9999,2264468600
5721,3,ISIP_8,60,9999,9999,9999,2265268332
5721,3,ISIP_8,61,9999,9999,9999,2266069104
5721,3,ISIP_8,62,9999,9999,9999,2266868836
5721,3,ISIP_8,63,9999,9999,9999,2267668564
5721,3,ISIP_8,64,9999,9999,9999,2268468292
5721,3,ISIP_8,65,9999,9999,9999,2269269096
5721,3,ISIP_8,66,9999,9999,9999,2270068824
5721,3,ISIP_8,67,9999,9999,9999,2270868556
5721,3,ISIP_8,68,9999,9999,9999,2271668276
5721,3,ISIP_8,69,9999,9999,9999,2272469052
5721,3,ISIP_8,70,9999,9999,9999,2273268840
5721,3,ISIP_8,71,9999,9999,9999,2274068584
5721,3,ISIP_8,72,9999,9999,9999,2274868300
5721,3,ISIP_8,73,9999,9999,9999,2275669100
5721,3,ISIP_8,74,9999,9999,9999,2276468832
5721,3,ISIP_8,75,9999,9999,9999,2277268560
5721,3,ISIP_8,76,9999,9999,9999,2278068288
5721,3,ISIP_8,77,9999,9999,9999,2278869064
5721,3,ISIP_8,78,9999,9999,9999,2279668792
5721,3,ISIP_8,79,9999,9999,9999,2280468596
5721,3,ISIP_8,80,9999,9999,9999,2281268328
5721,3,ISIP_8,81,9999,9999,9999,2282069052
5721,3,ISIP_8,82,9999,9999,9999,2282868784
5721,3,ISIP_8,83,9999,9999,9999,2283668584
5721,3,ISIP_8,84,9999,9999,9999,2284468316
5721,3,ISIP_8,85,9999,9999,9999,2285269092
5721,3,ISIP_8,86,9999,9999,9999,2286068820
5721,3,ISIP_8,87,9999,9999,9999,2286868548
5721,3,ISIP_8,88,9999,9999,9999,2287668276
5721,3,ISIP_8,89,9999,9999,9999,2288469080
5721,3,ISIP_8,90,9999,9999,9999,2289268812
5721,3,ISIP_8,91,9999,9999,9999,2290068536
5721,3,ISIP_8,92,9999,9999,9999,2290868340
5721,3,ISIP_8,93,9999,9999,9999,2291669040
5721,3,ISIP_8,94,9999,9999,9999,2292468844
5721,3,ISIP_8,95,9999,9999,9999,2293268572
5721,3,ISIP_8,96,9999,9999,9999,2294068296
5721,3,ISIP_8,97,9999,9999,9999,2294869096
5721,3,ISIP_8,98,9999,9999,9999,2295668824
5721,3,ISIP_8,99,9999,9999,9999,2296468540
5721,3,ISIP_8,100,9999,9999,9999,2297268340
5721,3,ISIP_8,101,9999,9999,9999,2298069044
5721,3,ISIP_8,102,9999,9999,9999,2298868848
5721,3,ISIP_8,103,9999,9999,9999,2299668576
5721,3,ISIP_8,104,9999,9999,9999,2300468304
5721,3,ISIP_8,105,9999,9999,9999,2301269108
5721,3,ISIP_8,106,9999,9999,9999,2302068836
5721,3,ISIP_8,107,9999,9999,9999,2302868568
5721,3,ISIP_8,108,9999,9999,9999,2303668296
5721,3,ISIP_8,109,9999,9999,9999,2304469072
5721,3,ISIP_8,110,9999,9999,9999,2305268800
5721,3,ISIP_8,111,9999,9999,9999,2306068528
5721,3,ISIP_8,112,9999,9999,9999,2306868332
5721,3,ISIP_8,113,9999,9999,9999,2307669060
5721,3,ISIP_8,114,9999,9999,9999,2308468788
5721,3,ISIP_8,115,9999,9999,9999,2309268596
5721,3,ISIP_8,116,9999,9999,9999,2310068324
5721,3,ISIP_8,117,9999,9999,9999,2310869100
5721,3,ISIP_8,118,9999,9999,9999,2311668828
5721,3,ISIP_8,119,9999,9999,9999,2312468556
5721,3,ISIP_8,120,9999,9999,9999,2313268288
5721,3,ISIP_8,121,9999,9999,9999,2314069088
5721,3,ISIP_8,122,9999,9999,9999,2314868816
5721,3,ISIP_8,123,9999,9999,9999,2315668540
5721,3,ISIP_8,124,9999,9999,9999,2316468272
5721,3,ISIP_8,125,9999,9999,9999,2317269104
5721,3,ISIP_8,126,9999,9999,9999,2318068836
5721,3,ISIP_8,127,9999,9999,9999,2318868564
5721,3,ISIP_8,128,9999,9999,9999,2319668296
5721,3,ISIP_8,129,9999,9999,9999,2320469096
5721,3,ISIP_8,130,9999,9999,9999,2321268824
5721,3,ISIP_8,131,9999,9999,9999,2322068556
5721,3,ISIP_8,132,9999,9999,9999,2322868284
5721,3,ISIP_8,133,9999,9999,9999,2323669060
5721,3,ISIP_8,134,9999,9999,9999,2324468792
5721,3,ISIP_8,135,9999,9999,9999,2325268596
5721,3,ISIP_8,136,9999,9999,9999,2326068324
5721,3,ISIP_8,137,9999,9999,9999,2326869052
5721,3,ISIP_8,138,9999,9999,9999,2327668856
5721,3,ISIP_8,139,9999,9999,9999,2328468584
5721,3,ISIP_8,140,9999,9999,9999,2329268316
5721,3,ISIP_8,141,9999,9999,9999,2330069088
5721,3,ISIP_8,142,9999,9999,9999,2330868820
5721,3,ISIP_8,143,9999,9999,9999,2331668548
5721,3,ISIP_8,144,9999,9999,9999,2332468276
5721,3,ISIP_8,145,9999,9999,9999,2333269080
5721,3,ISIP_8,146,9999,9999,9999,2334068808
5721,3,ISIP_8,147,9999,9999,9999,2334868536
5721,3,ISIP_8,148,9999,9999,9999,2335668340
5721,3,ISIP_8,149,9999,9999,9999,2336469044
5722,11,Pattern_Practice,0,5,42,127,2465446372
5722,11,Pattern_Practice,1,5,42,127,2465946236
5722,11,Pattern_Practice,2,5,42,127,2466445656
5722,11,Pattern_Practice,3,5,42,127,2466946272
5722,11,Pattern_Practice,4,5,42,127,2467446212
5722,11,Pattern_Practice,5,1,38,24,2467447104
5722,11,Pattern_Practice,6,5,42,127,2467946056
5722,11,Pattern_Practice,7,1,48,46,2467968324
5722,11,Pattern_Practice,8,1,38,44,2468433144
5722,11,Pattern_Practice,9,5,42,127,2468445448
5722,11,Pattern_Practice,10,5,42,127,2468946420
5722,11,Pattern_Practice,11,1,48,43,2468957916
5722,11,Pattern_Practice,12,1,38,42,2469410896
5722,11,Pattern_Practice,13,5,42,127,2469446404
5722,11,Pattern_Practice,14,1,48,38,2469455508
5722,11,Pattern_Practice,15,1,38,43,2469903896
5722,11,Pattern_Practice,16,1,48,44,2469931032
5722,11,Pattern_Practice,17,5,42,127,2469946096
5722,11,Pattern_Practice,18,1,48,43,2470436908
5722,11,Pattern_Practice,19,1,38,37,2470443404
5722,11,Pattern_Practice,20,5,42,127,2470446040
5722,11,Pattern_Practice,21,1,38,35,2470927052
5722,11,Pattern_Practice,22,5,42,127,2470946084
5722,11,Pattern_Practice,23,1,38,37,2471440060
5722,11,Pattern_Practice,24,5,42,127,2471446224
5722,11,Pattern_Practice,25,1,48,46,2471936092
5722,11,Pattern_Practice,26,5,42,127,2471945920
5722,11,Pattern_Practice,27,1,48,46,2472422392
5722,11,Pattern_Practice,28,5,42,127,2472446292
5722,11,Pattern_Practice,29,1,38,49,2472913264
5722,11,Pattern_Practice,30,5,42,127,2472946060
5722,11,Pattern_Practice,31,5,42,127,2473445908
5722,11,Pattern_Practice,32,1,48,37,2473454116
5722,11,Pattern_Practice,33,5,42,127,2473945308
5722,11,Pattern_Practice,34,1,38,27,2473963160
5722,11,Pattern_Practice,35,5,42,127,2474446124
5722,11,Pattern_Practice,36,1,38,33,2474460760
5722,11,Pattern_Practice,37,5,42,127,2474945968
5722,11,Pattern_Practice,38,1,38,34,2474949456
5722,11,Pattern_Practice,39,5,42,127,2475445884
5722,11,Pattern_Practice,40,1,38,32,2475473164
5722,11,Pattern_Practice,41,5,42,127,2475946256
5722,11,Pattern_Practice,42,1,48,46,2475961416
5722,11,Pattern_Practice,43,1,48,52,2476443900
5722,11,Pattern_Practice,44,5,42,127,2476445944
5722,11,Pattern_Practice,45,5,42,127,2476945940
5722,11,Pattern_Practice,46,1,48,51,2476949284
5722,11,Pattern_Practice,47,1,48,52,2477444132
5722,11,Pattern_Practice,48,5,42,127,2477445556
5722,11,Pattern_Practice,49,1,38,47,2477944180
5722,11,Pattern_Practice,50,5,42,127,2477946296
5722,11,Pattern_Practice,51,1,38,48,2478444716
5722,11,Pattern_Practice,52,5,42,127,2478447112
5722,11,Pattern_Practice,53,5,42,127,2478945916
5722,11,Pattern_Practice,54,1,38,49,2478950756
5722,11,Pattern_Practice,55,5,42,127,2479446508
5722,11,Pattern_Practice,56,1,38,53,2479469900
5722,11,Pattern_Practice,57,5,42,127,2479945980
5722,11,Pattern_Practice,58,1,48,40,2479962860
5722,11,Pattern_Practice,59,5,42,127,2480445796
5722,11,Pattern_Practice,60,1,38,38,2480456268
5722,11,Pattern_Practice,61,1,48,44,2480942384
5722,11,Pattern_Practice,62,5,42,127,2480945632
5722,11,Pattern_Practice,63,1,38,45,2481446680
5722,11,Pattern_Practice,64,5,42,127,2481448692
5722,11,Pattern_Practice,65,1,48,47,2481503896
5722,11,Pattern_Practice,66,5,42,127,2481945968
5722,11,Pattern_Practice,67,1,38,14,2481988804
5722,11,Pattern_Practice,68,1,48,44,2481995672
5722,11,Pattern_Practice,69,5,42,127,2482445752
5722,11,Pattern_Practice,70,1,48,40,2482468544
5722,11,Pattern_Practice,71,5,42,127,2482946420
5722,11,Pattern_Practice,72,1,38,28,2483039400
5722,11,Pattern_Practice,73,1,38,34,2483322876
5722,11,Pattern_Practice,74,5,42,127,2483446020
5722,11,Pattern_Practice,75,1,48,40,2483485336
5722,11,Pattern_Practice,76,1,38,44,2483578480
5722,11,Pattern_Practice,77,1,48,40,2483748444
5722,11,Pattern_Practice,78,1,38,42,2483845084
5722,11,Pattern_Practice,79,5,42,127,2483945784
5722,11,Pattern_Practice,80,1,48,49,2484004180
5722,11,Pattern_Practice,81,1,38,43,2484089612
5722,11,Pattern_Practice,82,1,48,42,2484263616
5722,11,Pattern_Practice,83,1,38,44,2484338736
5722,11,Pattern_Practice,84,5,42,127,2484445608
5722,11,Pattern_Practice,85,1,48,37,2484525324
5722,11,Pattern_Practice,86,1,38,41,2484594452
5722,11,Pattern_Practice,87,1,48,38,2484777208
5722,11,Pattern_Practice,88,1,38,44,2484849328
5722,11,Pattern_Practice,89,5,42,127,2484946780
5722,11,Pattern_Practice,90,1,48,42,2485021408
5722,11,Pattern_Practice,91,1,38,47,2485106396
5722,11,Pattern_Practice,92,1,48,35,2485291920
5722,11,Pattern_Practice,93,1,38,38,2485379528
5722,11,Pattern_Practice,94,5,42,127,2485445896
5722,11,Pattern_Practice,95,1,38,35,2485876216
5722,11,Pattern_Practice,96,5,42,127,2485945736
5722,11,Pattern_Practice,97,1,38,37,2486362376
5722,11,Pattern_Practice,98,5,42,127,2486445356
5722,11,Pattern_Practice,99,1,48,45,2486887648
5722,11,Pattern_Practice,100,5,42,127,2486946100
5722,11,Pattern_Practice,101,1,38,45,2487400656
5722,11,Pattern_Practice,102,5,42,127,2487445940
5722,11,Pattern_Practice,103,1,48,29,2487887188
5722,11,Pattern_Practice,104,1,48,43,2487915812
5722,11,Pattern_Practice,105,5,42,127,2487945540
5722,11,Pattern_Practice,106,1,38,45,2488393588
5722,11,Pattern_Practice,107,1,38,44,2488430216
5722,11,Pattern_Practice,108,5,42,127,2488446260
5722,11,Pattern_Practice,109,1,48,29,2488913756
5722,11,Pattern_Practice,110,5,42,127,2488945956
5722,11,Pattern_Practice,111,1,48,48,2488958484
5722,11,Pattern_Practice,112,1,38,44,2489426072
5722,11,Pattern_Practice,113,5,42,127,2489445628
5722,11,Pattern_Practice,114,1,38,48,2489453820
5722,11,Pattern_Practice,115,1,48,31,2489927316
5722,11,Pattern_Practice,116,5,42,127,2489945600
5722,11,Pattern_Practice,117,1,48,56,2489969272
5722,11,Pattern_Practice,118,5,42,127,2490446252
5722,11,Pattern_Practice,119,1,38,47,2490454756
5722,11,Pattern_Practice,120,5,42,127,2490945776
5722,11,Pattern_Practice,121,1,48,59,2490985496
5722,11,Pattern_Practice,122,1,38,54,2491406980
5722,11,Pattern_Practice,123,5,42,127,2491445536
5722,11,Pattern_Practice,124,1,48,62,2491937788
5722,11,Pattern_Practice,125,5,42,127,2491946500
5722,11,Pattern_Practice,126,5,42,127,2492446128
5722,11,Pattern_Practice,127,1,38,48,2492458300
5722,11,Pattern_Practice,128,5,42,127,2492945752
5722,11,Pattern_Practice,129,1,48,50,2492959488
5722,11,Pattern_Practice,130,1,38,41,2492966500
5722,11,Pattern_Practice,131,5,42,127,2493445472
5722,11,Pattern_Practice,132,1,38,51,2493462276
5722,11,Pattern_Practice,133,1,48,50,2493475424
5722,11,Pattern_Practice,134,5,42,127,2493946168
5722,11,Pattern_Practice,135,1,38,49,2493968584
5722,11,Pattern_Practice,136,1,48,48,2493976264
5722,11,Pattern_Practice,137,1,38,51,2494420860
5722,11,Pattern_Practice,138,5,42,127,2494445808
5722,11,Pattern_Practice,139,1,48,27,2494893852
5722,11,Pattern_Practice,140,5,42,127,2494945576
5722,11,Pattern_Practice,141,5,42,127,2495446548
5722,11,Pattern_Practice,142,1,38,35,2495480780
5722,11,Pattern_Practice,143,1,48,47,2495485696
5722,11,Pattern_Practice,144,5,42,127,2495946120
5722,11,Pattern_Practice,145,1,38,50,2495995988
5722,11,Pattern_Practice,146,1,48,42,2496001352
5722,11,Pattern_Practice,147,5,42,127,2496445764
5722,11,Pattern_Practice,148,1,38,40,2496493388
5722,11,Pattern_Practice,149,1,48,44,2496497184
5722,11,Pattern_Practice,150,5,42,127,2496945412
5722,11,Pattern_Practice,151,1,38,47,2496981888
5722,11,Pattern_Practice,152,1,48,49,2497003036
5722,11,Pattern_Practice,153,5,42,127,2497446568
5722,11,Pattern_Practice,154,1,38,47,2497488656
5722,11,Pattern_Practice,155,1,48,51,2497503220
5722,11,Pattern_Practice,156,5,42,127,2497945840
5722,11,Pattern_Practice,157,1,38,46,2497986060
5722,11,Pattern_Practice,158,5,42,127,2498445760
5722,11,Pattern_Practice,159,1,38,47,2498488596
5722,11,Pattern_Practice,160,5,42,127,2498946576
5722,11,Pattern_Practice,161,1,38,43,2498980140
5722,11,Pattern_Practice,162,5,42,127,2499446344
5722,11,Pattern_Practice,163,1,48,47,2499477588
5722,11,Pattern_Practice,164,1,38,30,2499494324
5722,11,Pattern_Practice,165,5,42,127,2499945844
5722,11,Pattern_Practice,166,1,48,51,2500022788
5722,11,Pattern_Practice,167,5,42,127,2500445612
5722,11,Pattern_Practice,168,1,48,40,2500603708
5722,11,Pattern_Practice,169,5,42,127,2500946428
5722,11,Pattern_Practice,170,1,38,39,2501045136
5722,11,Pattern_Practice,171,1,48,46,2501111988
5722,11,Pattern_Practice,172,5,42,127,2501445864
5722,11,Pattern_Practice,173,1,38,42,2501552356
5722,11,Pattern_Practice,174,5,42,127,2501945684
5722,11,Pattern_Practice,175,1,48,49,2502071420
5722,11,Pattern_Practice,176,1,38,39,2502074616
5722,11,Pattern_Practice,177,5,42,127,2502445552
5722,11,Pattern_Practice,178,1,38,48,2502570764
5722,11,Pattern_Practice,179,1,48,49,2502613308
5722,11,Pattern_Practice,180,5,42,127,2502946396
5722,11,Pattern_Practice,181,1,38,41,2503067872
5722,11,Pattern_Practice,182,1,48,48,2503086848
5722,11,Pattern_Practice,183,5,42,127,2503445968
5722,11,Pattern_Practice,184,1,38,45,2503583076
5722,11,Pattern_Practice,185,1,48,47,2503602124
5722,11,Pattern_Practice,186,5,42,127,2503945544
5722,11,Pattern_Practice,187,1,38,46,2504091776
5722,11,Pattern_Practice,188,1,48,50,2504101624
5722,11,Pattern_Practice,189,5,42,127,2504446384
5722,11,Pattern_Practice,190,1,48,46,2504617080
5722,11,Pattern_Practice,191,1,38,35,2504620868
5722,11,Pattern_Practice,192,5,42,127,2504945960
5722,11,Pattern_Practice,193,1,38,30,2505176340
5722,11,Pattern_Practice,0,9999,9999,9999,2465443936
5722,11,Pattern_Practice,1,9999,9999,9999,2465943652
5722,11,Pattern_Practice,2,9999,9999,9999,2466443368
5722,11,Pattern_Practice,3,9999,9999,9999,2466944060
5722,11,Pattern_Practice,4,9999,9999,9999,2467443776
5722,11,Pattern_Practice,5,9999,9999,9999,2467943544
5722,11,Pattern_Practice,6,9999,9999,9999,2468443232
5722,11,Pattern_Practice,7,9999,9999,9999,2468943984
5722,11,Pattern_Practice,8,9999,9999,9999,2469443648
5722,11,Pattern_Practice,9,9999,9999,9999,2469943360
5722,11,Pattern_Practice,10,9999,9999,9999,2470443124
5722,11,Pattern_Practice,11,9999,9999,9999,2470943800
5722,11,Pattern_Practice,12,9999,9999,9999,2471443568
5722,11,Pattern_Practice,13,9999,9999,9999,2471943260
5722,11,Pattern_Practice,14,9999,9999,9999,2472444004
5722,11,Pattern_Practice,15,9999,9999,9999,2472943696
5722,11,Pattern_Practice,16,9999,9999,9999,2473443400
5722,11,Pattern_Practice,17,9999,9999,9999,2473943092
5722,11,Pattern_Practice,18,9999,9999,9999,2474443836
5722,11,Pattern_Practice,19,9999,9999,9999,2474943604
5722,11,Pattern_Practice,20,9999,9999,9999,2475443300
5722,11,Pattern_Practice,21,9999,9999,9999,2475944040
5722,11,Pattern_Practice,22,9999,9999,9999,2476443768
5722,11,Pattern_Practice,23,9999,9999,9999,2476943432
5722,11,Pattern_Practice,24,9999,9999,9999,2477443124
5722,11,Pattern_Practice,25,9999,9999,9999,2477943896
5722,11,Pattern_Practice,26,9999,9999,9999,2478443636
5722,11,Pattern_Practice,27,9999,9999,9999,2478943332
5722,11,Pattern_Practice,28,9999,9999,9999,2479444072
5722,11,Pattern_Practice,29,9999,9999,9999,2479943764
5722,11,Pattern_Practice,30,9999,9999,9999,2480443508
5722,11,Pattern_Practice,31,9999,9999,9999,2480943196
5722,11,Pattern_Practice,32,9999,9999,9999,2481443944
5722,11,Pattern_Practice,33,9999,9999,9999,2481943604
5722,11,Pattern_Practice,34,9999,9999,9999,2482443316
5722,11,Pattern_Practice,35,9999,9999,9999,2482944060
5722,11,Pattern_Practice,36,9999,9999,9999,2483443804
5722,11,Pattern_Practice,37,9999,9999,9999,2483943548
5722,11,Pattern_Practice,38,9999,9999,9999,2484443248
5722,11,Pattern_Practice,39,9999,9999,9999,2484943924
5722,11,Pattern_Practice,40,9999,9999,9999,2485443680
5722,11,Pattern_Practice,41,9999,9999,9999,2485943376
5722,11,Pattern_Practice,42,9999,9999,9999,2486443072
5722,11,Pattern_Practice,43,9999,9999,9999,2486943812
5722,11,Pattern_Practice,44,9999,9999,9999,2487443504
5722,11,Pattern_Practice,45,9999,9999,9999,2487943252
5722,11,Pattern_Practice,46,9999,9999,9999,2488443972
5722,11,Pattern_Practice,47,9999,9999,9999,2488943668
5722,11,Pattern_Practice,48,9999,9999,9999,2489443416
5722,11,Pattern_Practice,49,9999,9999,9999,2489943088
5722,11,Pattern_Practice,50,9999,9999,9999,2490443892
5722,11,Pattern_Practice,51,9999,9999,9999,2490943560
5722,11,Pattern_Practice,52,9999,9999,9999,2491443248
5722,11,Pattern_Practice,53,9999,9999,9999,2491943992
5722,11,Pattern_Practice,54,9999,9999,9999,2492443768
5722,11,Pattern_Practice,55,9999,9999,9999,2492943464
5722,11,Pattern_Practice,56,9999,9999,9999,2493443184
5722,11,Pattern_Practice,57,9999,9999,9999,2493943880
5722,11,Pattern_Practice,58,9999,9999,9999,2494443592
5722,11,Pattern_Practice,59,9999,9999,9999,2494943288
5722,11,Pattern_Practice,60,9999,9999,9999,2495444036
5722,11,Pattern_Practice,61,9999,9999,9999,2495943756
5722,11,Pattern_Practice,62,9999,9999,9999,2496443476
5722,11,Pattern_Practice,63,9999,9999,9999,2496943200
5722,11,Pattern_Practice,64,9999,9999,9999,2497443908
5722,11,Pattern_Practice,65,9999,9999,9999,2497943628
5722,11,Pattern_Practice,66,9999,9999,9999,2498443324
5722,11,Pattern_Practice,67,9999,9999,9999,2498944064
5722,11,Pattern_Practice,68,9999,9999,9999,2499443832
5722,11,Pattern_Practice,69,9999,9999,9999,2499943480
5722,11,Pattern_Practice,70,9999,9999,9999,2500443248
5722,11,Pattern_Practice,71,9999,9999,9999,2500943992
5722,11,Pattern_Practice,72,9999,9999,9999,2501443652
5722,11,Pattern_Practice,73,9999,9999,9999,2501943396
5722,11,Pattern_Practice,74,9999,9999,9999,2502443116
5722,11,Pattern_Practice,75,9999,9999,9999,2502943812
5722,11,Pattern_Practice,76,9999,9999,9999,2503443532
5722,11,Pattern_Practice,77,9999,9999,9999,2503943256
5722,11,Pattern_Practice,78,9999,9999,9999,2504444024
5722,11,Pattern_Practice,79,9999,9999,9999,2504943672
5723,13,Improv_Metronome,0,5,42,127,2578225692
5723,13,Improv_Metronome,1,5,42,127,2578726452
5723,13,Improv_Metronome,2,5,42,127,2579225948
5723,13,Improv_Metronome,3,5,42,127,2579725664
5723,13,Improv_Metronome,4,5,42,127,2580226352
5723,13,Improv_Metronome,5,1,48,47,2580234780
5723,13,Improv_Metronome,6,5,42,127,2580726272
5723,13,Improv_Metronome,7,1,38,48,2580727684
5723,13,Improv_Metronome,8,5,42,127,2581225892
5723,13,Improv_Metronome,9,1,48,62,2581249284
5723,13,Improv_Metronome,10,1,38,56,2581712528
5723,13,Improv_Metronome,11,5,42,127,2581725652
5723,13,Improv_Metronome,12,1,48,60,2582224972
5723,13,Improv_Metronome,13,5,42,127,2582226544
5723,13,Improv_Metronome,14,5,42,127,2582725948
5723,13,Improv_Metronome,15,1,38,54,2582743356
5723,13,Improv_Metronome,16,5,42,127,2583225644
5723,13,Improv_Metronome,17,1,48,63,2583240652
5723,13,Improv_Metronome,18,1,48,55,2583472756
5723,13,Improv_Metronome,19,5,42,127,2583725392
5723,13,Improv_Metronome,20,1,48,62,2583737112
5723,13,Improv_Metronome,21,5,42,127,2584226208
5723,13,Improv_Metronome,22,1,48,58,2584244884
5723,13,Improv_Metronome,23,1,38,60,2584721748
5723,13,Improv_Metronome,24,5,42,127,2584725820
5723,13,Improv_Metronome,25,1,38,42,2584750168
5723,13,Improv_Metronome,26,5,42,127,2585225576
5723,13,Improv_Metronome,27,1,48,64,2585248584
5723,13,Improv_Metronome,28,5,42,127,2585726168
5723,13,Improv_Metronome,29,1,38,51,2585740280
5723,13,Improv_Metronome,30,5,42,127,2586226160
5723,13,Improv_Metronome,31,1,48,66,2586285080
5723,13,Improv_Metronome,32,1,48,33,2586339660
5723,13,Improv_Metronome,33,5,42,127,2586725612
5723,13,Improv_Metronome,34,1,38,48,2586760668
5723,13,Improv_Metronome,35,5,42,127,2587225380
5723,13,Improv_Metronome,36,1,48,62,2587283700
5723,13,Improv_Metronome,37,1,48,49,2587506148
5723,13,Improv_Metronome,38,5,42,127,2587726172
5723,13,Improv_Metronome,39,1,48,60,2587746268
5723,13,Improv_Metronome,40,5,42,127,2588225868
5723,13,Improv_Metronome,41,1,48,58,2588235196
5723,13,Improv_Metronome,42,1,48,33,2588277728
5723,13,Improv_Metronome,43,5,42,127,2588725516
5723,13,Improv_Metronome,44,1,38,48,2588741224
5723,13,Improv_Metronome,45,5,42,127,2589226404
5723,13,Improv_Metronome,46,1,48,61,2589230200
5723,13,Improv_Metronome,47,1,48,32,2589284276
5723,13,Improv_Metronome,48,5,42,127,2589726152
5723,13,Improv_Metronome,49,1,38,44,2589760788
5723,13,Improv_Metronome,50,5,42,127,2590225852
5723,13,Improv_Metronome,51,1,48,59,2590233528
5723,13,Improv_Metronome,52,1,48,30,2590289780
5723,13,Improv_Metronome,53,5,42,127,2590725448
5723,13,Improv_Metronome,54,1,38,46,2590726416
5723,13,Improv_Metronome,55,5,42,127,2591226268
5723,13,Improv_Metronome,56,1,48,61,2591243220
5723,13,Improv_Metronome,57,1,48,54,2591471432
5723,13,Improv_Metronome,58,1,48,58,2591726236
5723,13,Improv_Metronome,59,5,42,127,2591727500
5723,13,Improv_Metronome,60,5,42,127,2592225784
5723,13,Improv_Metronome,61,1,38,50,2592257104
5723,13,Improv_Metronome,62,1,38,38,2592480896
5723,13,Improv_Metronome,63,5,42,127,2592726352
5723,13,Improv_Metronome,64,1,38,54,2592739192
5723,13,Improv_Metronome,65,5,42,127,2593226048
5723,13,Improv_Metronome,66,1,48,56,2593230064
5723,13,Improv_Metronome,67,1,48,42,2593457748
5723,13,Improv_Metronome,68,1,48,58,2593722308
5723,13,Improv_Metronome,69,5,42,127,2593725936
5723,13,Improv_Metronome,70,1,38,68,2594218344
5723,13,Improv_Metronome,71,5,42,127,2594225484
5723,13,Improv_Metronome,72,1,38,42,2594255436
5723,13,Improv_Metronome,73,1,38,42,2594469808
5723,13,Improv_Metronome,74,1,38,50,2594715444
5723,13,Improv_Metronome,75,5,42,127,2594726104
5723,13,Improv_Metronome,76,5,42,127,2595226028
5723,13,Improv_Metronome,77,1,38,67,2595250540
5723,13,Improv_Metronome,78,1,38,46,2595283576
5723,13,Improv_Metronome,79,5,42,127,2595725552
5723,13,Improv_Metronome,80,1,38,59,2595731212
5723,13,Improv_Metronome,81,1,48,60,2596220344
5723,13,Improv_Metronome,82,5,42,127,2596226364
5723,13,Improv_Metronome,83,1,48,57,2596708448
5723,13,Improv_Metronome,84,5,42,127,2596725984
5723,13,Improv_Metronome,85,1,38,72,2597189288
5723,13,Improv_Metronome,86,1,38,50,2597219036
5723,13,Improv_Metronome,87,5,42,127,2597226028
5723,13,Improv_Metronome,88,1,38,57,2597677792
5723,13,Improv_Metronome,89,5,42,127,2597725796
5723,13,Improv_Metronome,90,1,48,57,2598213044
5723,13,Improv_Metronome,91,5,42,127,2598226240
5723,13,Improv_Metronome,92,1,48,60,2598695284
5723,13,Improv_Metronome,93,5,42,127,2598726008
5723,13,Improv_Metronome,94,1,38,67,2599212028
5723,13,Improv_Metronome,95,5,42,127,2599225828
5723,13,Improv_Metronome,96,1,38,35,2599260896
5723,13,Improv_Metronome,97,1,38,45,2599432008
5723,13,Improv_Metronome,98,1,38,55,2599722976
5723,13,Improv_Metronome,99,5,42,127,2599726000
5723,13,Improv_Metronome,100,1,48,58,2600218784
5723,13,Improv_Metronome,101,5,42,127,2600226148
5723,13,Improv_Metronome,102,1,48,52,2600460476
5723,13,Improv_Metronome,103,1,48,58,2600705592
5723,13,Improv_Metronome,104,5,42,127,2600726044
5723,13,Improv_Metronome,105,1,38,62,2601221816
5723,13,Improv_Metronome,106,5,42,127,2601225592
5723,13,Improv_Metronome,107,1,38,30,2601275968
5723,13,Improv_Metronome,108,1,38,48,2601466480
5723,13,Improv_Metronome,109,1,38,52,2601718400
5723,13,Improv_Metronome,110,5,42,127,2601726288
5723,13,Improv_Metronome,111,5,42,127,2602225992
5723,13,Improv_Metronome,112,1,48,61,2602230452
5723,13,Improv_Metronome,113,1,48,54,2602477140
5723,13,Improv_Metronome,114,1,48,53,2602696524
5723,13,Improv_Metronome,115,5,42,127,2602725952
5723,13,Improv_Metronome,116,5,42,127,2603225356
5723,13,Improv_Metronome,117,1,48,61,2603245376
5723,13,Improv_Metronome,118,1,48,30,2603307960
5723,13,Improv_Metronome,119,5,42,127,2603726152
5723,13,Improv_Metronome,120,1,48,61,2603745196
5723,13,Improv_Metronome,121,5,42,127,2604225968
5723,13,Improv_Metronome,122,1,48,55,2604229688
5723,13,Improv_Metronome,123,1,48,21,2604303492
5723,13,Improv_Metronome,124,5,42,127,2604725792
5723,13,Improv_Metronome,125,1,48,60,2604732504
5723,13,Improv_Metronome,126,1,48,32,2604789696
5723,13,Improv_Metronome,127,1,38,51,2605220260
5723,13,Improv_Metronome,128,5,42,127,2605226204
5723,13,Improv_Metronome,129,1,38,53,2605430916
5723,13,Improv_Metronome,130,1,38,60,2605721880
5723,13,Improv_Metronome,131,5,42,127,2605726176
5723,13,Improv_Metronome,132,1,48,65,2606222096
5723,13,Improv_Metronome,133,5,42,127,2606226020
5723,13,Improv_Metronome,134,1,48,58,2606449956
5723,13,Improv_Metronome,135,1,48,66,2606709128
5723,13,Improv_Metronome,136,5,42,127,2606725472
5723,13,Improv_Metronome,137,1,38,62,2607211512
5723,13,Improv_Metronome,138,5,42,127,2607226212
5723,13,Improv_Metronome,139,1,38,30,2607264616
5723,13,Improv_Metronome,140,1,38,50,2607454156
5723,13,Improv_Metronome,141,1,38,57,2607718724
5723,13,Improv_Metronome,142,5,42,127,2607725864
5723,13,Improv_Metronome,143,1,48,71,2608205176
5723,13,Improv_Metronome,144,5,42,127,2608225928
5723,13,Improv_Metronome,145,1,48,56,2608464444
5723,13,Improv_Metronome,146,1,48,60,2608721084
5723,13,Improv_Metronome,147,5,42,127,2608726428
5723,13,Improv_Metronome,148,1,38,61,2609222872
5723,13,Improv_Metronome,149,5,42,127,2609226048
5723,13,Improv_Metronome,150,1,38,44,2609257576
5723,13,Improv_Metronome,151,1,48,56,2609718176
5723,13,Improv_Metronome,152,5,42,127,2609726084
5723,13,Improv_Metronome,153,1,38,65,2610224864
5723,13,Improv_Metronome,154,5,42,127,2610227848
5723,13,Improv_Metronome,155,1,38,38,2610269048
5723,13,Improv_Metronome,156,5,42,127,2610726184
5723,13,Improv_Metronome,157,1,48,53,2610757976
5723,13,Improv_Metronome,158,1,38,53,2611213120
5723,13,Improv_Metronome,159,5,42,127,2611225872
5723,13,Improv_Metronome,160,1,48,59,2611714536
5723,13,Improv_Metronome,161,5,42,127,2611725792
5723,13,Improv_Metronome,162,1,38,59,2612193212
5723,13,Improv_Metronome,163,5,42,127,2612226456
5723,13,Improv_Metronome,164,1,38,43,2612438348
5723,13,Improv_Metronome,165,1,38,62,2612716296
5723,13,Improv_Metronome,166,5,42,127,2612726056
5723,13,Improv_Metronome,167,1,38,43,2612744940
5723,13,Improv_Metronome,168,5,42,127,2613225956
5723,13,Improv_Metronome,169,1,48,65,2613249496
5723,13,Improv_Metronome,170,1,38,56,2613718876
5723,13,Improv_Metronome,171,5,42,127,2613725648
5723,13,Improv_Metronome,172,1,38,37,2613754704
5723,13,Improv_Metronome,173,5,42,127,2614226300
5723,13,Improv_Metronome,174,1,48,56,2614229864
5723,13,Improv_Metronome,175,1,38,55,2614708376
5723,13,Improv_Metronome,176,5,42,127,2614725912
5723,13,Improv_Metronome,177,1,38,39,2614741060
5723,13,Improv_Metronome,178,5,42,127,2615225668
5723,13,Improv_Metronome,179,1,48,49,2615247264
5723,13,Improv_Metronome,180,5,42,127,2615725364
5723,13,Improv_Metronome,181,1,38,54,2615737980
5723,13,Improv_Metronome,182,1,48,60,2616221128
5723,13,Improv_Metronome,183,5,42,127,2616226024
5723,13,Improv_Metronome,184,1,48,56,2616477708
5723,13,Improv_Metronome,185,1,48,60,2616719680
5723,13,Improv_Metronome,186,5,42,127,2616725996
5723,13,Improv_Metronome,187,5,42,127,2617225548
5723,13,Improv_Metronome,188,1,48,60,2617240260
5723,13,Improv_Metronome,189,1,48,21,2617334556
5723,13,Improv_Metronome,190,5,42,127,2617726492
5723,13,Improv_Metronome,191,1,38,62,2617731780
5723,13,Improv_Metronome,192,1,38,47,2617765340
5723,13,Improv_Metronome,193,1,48,58,2618212364
5723,13,Improv_Metronome,194,5,42,127,2618226084
5723,13,Improv_Metronome,195,1,48,20,2618315804
5723,13,Improv_Metronome,196,5,42,127,2618725688
5723,13,Improv_Metronome,197,1,38,47,2618738008
5723,13,Improv_Metronome,198,1,48,58,2619216588
5723,13,Improv_Metronome,199,5,42,127,2619225376
5723,13,Improv_Metronome,200,1,48,23,2619284504
5723,13,Improv_Metronome,201,5,42,127,2619726328
5723,13,Improv_Metronome,202,1,38,43,2619775668
5723,13,Improv_Metronome,203,5,42,127,2620225872
5723,13,Improv_Metronome,204,1,48,63,2620243128
5723,13,Improv_Metronome,205,1,48,54,2620495948
5723,13,Improv_Metronome,206,5,42,127,2620725596
5723,13,Improv_Metronome,207,1,48,57,2620727684
5723,13,Improv_Metronome,208,5,42,127,2621226560
5723,13,Improv_Metronome,209,1,38,56,2621241352
5723,13,Improv_Metronome,210,1,38,38,2621281668
5723,13,Improv_Metronome,211,5,42,127,2621725936
5723,13,Improv_Metronome,212,1,48,54,2621728752
5723,13,Improv_Metronome,213,5,42,127,2622225708
5723,13,Improv_Metronome,214,1,38,55,2622249244
5723,13,Improv_Metronome,215,1,48,56,2622715632
5723,13,Improv_Metronome,216,5,42,127,2622725616
5723,13,Improv_Metronome,217,1,48,31,2622763648
5723,13,Improv_Metronome,218,1,38,60,2623224604
5723,13,Improv_Metronome,219,5,42,127,2623227604
5723,13,Improv_Metronome,220,1,38,46,2623251804
5723,13,Improv_Metronome,221,1,48,62,2623715276
5723,13,Improv_Metronome,222,5,42,127,2623725784
5723,13,Improv_Metronome,223,1,48,57,2623963924
5723,13,Improv_Metronome,224,1,48,54,2624201560
5723,13,Improv_Metronome,225,5,42,127,2624225680
5723,13,Improv_Metronome,226,5,42,127,2624726576
5723,13,Improv_Metronome,227,1,48,52,2624774948
5723,13,Improv_Metronome,228,5,42,127,2625226348
5723,13,Improv_Metronome,229,1,48,62,2625254224
5723,13,Improv_Metronome,230,1,48,35,2625298408
5723,13,Improv_Metronome,231,5,42,127,2625725948
5723,13,Improv_Metronome,232,1,48,54,2625750384
5723,13,Improv_Metronome,233,1,48,28,2625818876
5723,13,Improv_Metronome,234,5,42,127,2626225472
5723,13,Improv_Metronome,235,1,48,57,2626235844
5723,13,Improv_Metronome,236,1,48,31,2626299844
5723,13,Improv_Metronome,237,5,42,127,2626726412
5723,13,Improv_Metronome,238,1,38,63,2626744420
5723,13,Improv_Metronome,239,1,38,35,2626794356
5723,13,Improv_Metronome,240,1,38,47,2626979784
5723,13,Improv_Metronome,241,5,42,127,2627225840
5723,13,Improv_Metronome,242,1,38,59,2627247212
5723,13,Improv_Metronome,243,1,38,42,2627277180
5723,13,Improv_Metronome,244,1,38,48,2627493348
5723,13,Improv_Metronome,245,5,42,127,2627725568
5723,13,Improv_Metronome,246,1,38,54,2627740424
5723,13,Improv_Metronome,247,1,38,44,2627976640
5723,13,Improv_Metronome,248,5,42,127,2628226432
5723,13,Improv_Metronome,249,1,38,62,2628243312
5723,13,Improv_Metronome,250,1,48,68,2628720852
5723,13,Improv_Metronome,251,5,42,127,2628726344
5723,13,Improv_Metronome,252,1,48,28,2628800428
5723,13,Improv_Metronome,253,5,42,127,2629225800
5723,13,Improv_Metronome,254,1,48,65,2629234756
5723,13,Improv_Metronome,255,1,48,33,2629289036
5723,13,Improv_Metronome,256,5,42,127,2629725624
5723,13,Improv_Metronome,257,1,48,71,2629726516
5723,13,Improv_Metronome,258,1,48,35,2629780476
5723,13,Improv_Metronome,259,1,48,67,2630220096
5723,13,Improv_Metronome,260,5,42,127,2630226336
5723,13,Improv_Metronome,261,1,48,36,2630269084
5723,13,Improv_Metronome,262,5,42,127,2630726388
5723,13,Improv_Metronome,263,1,38,49,2630738708
5723,13,Improv_Metronome,264,1,38,46,2630986664
5723,13,Improv_Metronome,265,5,42,127,2631225816
5723,13,Improv_Metronome,266,1,38,38,2631228884
5723,13,Improv_Metronome,267,1,38,38,2631486264
5723,13,Improv_Metronome,268,5,42,127,2631725412
5723,13,Improv_Metronome,269,1,38,37,2631735036
5723,13,Improv_Metronome,270,1,38,41,2631969908
5723,13,Improv_Metronome,271,1,38,48,2632224460
5723,13,Improv_Metronome,272,5,42,127,2632226644
5723,13,Improv_Metronome,273,5,42,127,2632726124
5723,13,Improv_Metronome,274,1,38,55,2632754228
5723,13,Improv_Metronome,275,5,42,127,2633225520
5723,13,Improv_Metronome,276,1,38,58,2633239108
5723,13,Improv_Metronome,277,5,42,127,2633726336
5723,13,Improv_Metronome,278,1,38,59,2633754664
5723,13,Improv_Metronome,279,5,42,127,2634226176
5723,13,Improv_Metronome,280,1,38,62,2634259592
5723,13,Improv_Metronome,281,1,48,63,2634709080
5723,13,Improv_Metronome,282,5,42,127,2634725644
5723,13,Improv_Metronome,283,1,48,56,2634978068
5723,13,Improv_Metronome,284,1,48,55,2635213016
5723,13,Improv_Metronome,285,5,42,127,2635225388
5723,13,Improv_Metronome,286,1,48,57,2635469364
5723,13,Improv_Metronome,287,1,48,54,2635711864
5723,13,Improv_Metronome,288,5,42,127,2635726332
5723,13,Improv_Metronome,289,1,48,54,2635940240
5723,13,Improv_Metronome,290,1,48,59,2636204132
5723,13,Improv_Metronome,291,5,42,127,2636226080
5723,13,Improv_Metronome,292,1,38,62,2636724116
5723,13,Improv_Metronome,293,5,42,127,2636726820
5723,13,Improv_Metronome,294,1,38,58,2637213092
5723,13,Improv_Metronome,295,5,42,127,2637226292
5723,13,Improv_Metronome,296,1,38,54,2637712492
5723,13,Improv_Metronome,297,5,42,127,2637726284
5723,13,Improv_Metronome,298,5,42,127,2638225764
5723,13,Improv_Metronome,299,1,38,57,2638247876
5723,13,Improv_Metronome,300,1,48,55,2638708584
5723,13,Improv_Metronome,301,5,42,127,2638725524
5723,13,Improv_Metronome,302,1,48,51,2638978328
5723,13,Improv_Metronome,303,1,48,51,2639207284
5723,13,Improv_Metronome,304,5,42,127,2639226096
5723,13,Improv_Metronome,305,1,48,51,2639456156
5723,13,Improv_Metronome,306,1,48,48,2639687064
5723,13,Improv_Metronome,307,5,42,127,2639726212
5723,13,Improv_Metronome,308,1,48,51,2639934360
5723,13,Improv_Metronome,309,1,48,59,2640196012
5723,13,Improv_Metronome,310,5,42,127,2640225592
5723,13,Improv_Metronome,311,1,38,52,2640717248
5723,13,Improv_Metronome,312,5,42,127,2640726480
5723,13,Improv_Metronome,313,5,42,127,2641226108
5723,13,Improv_Metronome,314,1,48,60,2641472192
5723,13,Improv_Metronome,315,1,38,55,2641725048
5723,13,Improv_Metronome,316,5,42,127,2641727964
5723,13,Improv_Metronome,317,5,42,127,2642225476
5723,13,Improv_Metronome,318,1,48,65,2642453536
5723,13,Improv_Metronome,319,1,38,52,2642721608
5723,13,Improv_Metronome,320,5,42,127,2642726284
5723,13,Improv_Metronome,321,1,48,60,2642943184
5723,13,Improv_Metronome,322,1,38,59,2643198616
5723,13,Improv_Metronome,323,5,42,127,2643225880
5723,13,Improv_Metronome,324,1,48,59,2643406056
5723,13,Improv_Metronome,325,1,38,60,2643701812
5723,13,Improv_Metronome,326,5,42,127,2643725704
5723,13,Improv_Metronome,327,5,42,127,2644226524
5723,13,Improv_Metronome,328,1,38,64,2644718272
5723,13,Improv_Metronome,329,5,42,127,2644726012
5723,13,Improv_Metronome,330,5,42,127,2645225936
5723,13,Improv_Metronome,331,1,48,71,2645513536
5723,13,Improv_Metronome,332,5,42,127,2645725480
5723,13,Improv_Metronome,333,1,38,63,2645769516
5723,13,Improv_Metronome,334,5,42,127,2646226224
5723,13,Improv_Metronome,335,1,48,68,2646517632
5723,13,Improv_Metronome,336,5,42,127,2646725916
5723,13,Improv_Metronome,337,1,38,66,2646779596
5723,13,Improv_Metronome,338,1,38,41,2646813604
5723,13,Improv_Metronome,339,1,48,62,2647048176
5723,13,Improv_Metronome,340,5,42,127,2647225644
5723,13,Improv_Metronome,341,1,38,58,2647266084
5723,13,Improv_Metronome,342,1,48,61,2647525564
5723,13,Improv_Metronome,343,5,42,127,2647725388
5723,13,Improv_Metronome,344,1,38,59,2647761492
5723,13,Improv_Metronome,0,9999,9999,9999,2578223180
5723,13,Improv_Metronome,1,9999,9999,9999,2578723944
5723,13,Improv_Metronome,2,9999,9999,9999,2579223660
5723,13,Improv_Metronome,3,9999,9999,9999,2579723376
5723,13,Improv_Metronome,4,9999,9999,9999,2580224064
5723,13,Improv_Metronome,5,9999,9999,9999,2580723760
5723,13,Improv_Metronome,6,9999,9999,9999,2581223528
5723,13,Improv_Metronome,7,9999,9999,9999,2581723216
5723,13,Improv_Metronome,8,9999,9999,9999,2582223968
5723,13,Improv_Metronome,9,9999,9999,9999,2582723660
5723,13,Improv_Metronome,10,9999,9999,9999,2583223356
5723,13,Improv_Metronome,11,9999,9999,9999,2583723104
5723,13,Improv_Metronome,12,9999,9999,9999,2584223844
5723,13,Improv_Metronome,13,9999,9999,9999,2584723536
5723,13,Improv_Metronome,14,9999,9999,9999,2585223288
5723,13,Improv_Metronome,15,9999,9999,9999,2585723952
5723,13,Improv_Metronome,16,9999,9999,9999,2586223724
5723,13,Improv_Metronome,17,9999,9999,9999,2586723396
5723,13,Improv_Metronome,18,9999,9999,9999,2587223092
5723,13,Improv_Metronome,19,9999,9999,9999,2587723888
5723,13,Improv_Metronome,20,9999,9999,9999,2588223580
5723,13,Improv_Metronome,21,9999,9999,9999,2588723304
5723,13,Improv_Metronome,22,9999,9999,9999,2589224044
5723,13,Improv_Metronome,23,9999,9999,9999,2589723716
5723,13,Improv_Metronome,24,9999,9999,9999,2590223412
5723,13,Improv_Metronome,25,9999,9999,9999,2590723160
5723,13,Improv_Metronome,26,9999,9999,9999,2591223904
5723,13,Improv_Metronome,27,9999,9999,9999,2591723576
5723,13,Improv_Metronome,28,9999,9999,9999,2592223348
5723,13,Improv_Metronome,29,9999,9999,9999,2592724064
5723,13,Improv_Metronome,30,9999,9999,9999,2593223760
5723,13,Improv_Metronome,31,9999,9999,9999,2593723500
5723,13,Improv_Metronome,32,9999,9999,9999,2594223196
5723,13,Improv_Metronome,33,9999,9999,9999,2594723892
5723,13,Improv_Metronome,34,9999,9999,9999,2595223668
5723,13,Improv_Metronome,35,9999,9999,9999,2595723340
5723,13,Improv_Metronome,36,9999,9999,9999,2596224076
5723,13,Improv_Metronome,37,9999,9999,9999,2596723772
5723,13,Improv_Metronome,38,9999,9999,9999,2597223516
5723,13,Improv_Metronome,39,9999,9999,9999,2597723212
5723,13,Improv_Metronome,40,9999,9999,9999,2598223952
5723,13,Improv_Metronome,41,9999,9999,9999,2598723648
5723,13,Improv_Metronome,42,9999,9999,9999,2599223392
5723,13,Improv_Metronome,43,9999,9999,9999,2599723120
5723,13,Improv_Metronome,44,9999,9999,9999,2600223860
5723,13,Improv_Metronome,45,9999,9999,9999,2600723532
5723,13,Improv_Metronome,46,9999,9999,9999,2601223228
5723,13,Improv_Metronome,47,9999,9999,9999,2601724000
5723,13,Improv_Metronome,48,9999,9999,9999,2602223704
5723,13,Improv_Metronome,49,9999,9999,9999,2602723444
5723,13,Improv_Metronome,50,9999,9999,9999,2603223144
5723,13,Improv_Metronome,51,9999,9999,9999,2603723864
5723,13,Improv_Metronome,52,9999,9999,9999,2604223608
5723,13,Improv_Metronome,53,9999,9999,9999,2604723280
5723,13,Improv_Metronome,54,9999,9999,9999,2605223992
5723,13,Improv_Metronome,55,9999,9999,9999,2605723740
5723,13,Improv_Metronome,56,9999,9999,9999,2606223436
5723,13,Improv_Metronome,57,9999,9999,9999,2606723184
5723,13,Improv_Metronome,58,9999,9999,9999,2607223924
5723,13,Improv_Metronome,59,9999,9999,9999,2607723576
5723,13,Improv_Metronome,60,9999,9999,9999,2608223344
5723,13,Improv_Metronome,61,9999,9999,9999,2608724064
5723,13,Improv_Metronome,62,9999,9999,9999,2609223760
5723,13,Improv_Metronome,63,9999,9999,9999,2609723484
5723,13,Improv_Metronome,64,9999,9999,9999,2610223176
5723,13,Improv_Metronome,65,9999,9999,9999,2610723896
5723,13,Improv_Metronome,66,9999,9999,9999,2611223660
5723,13,Improv_Metronome,67,9999,9999,9999,2611723356
5723,13,Improv_Metronome,68,9999,9999,9999,2612224096
5723,13,Improv_Metronome,69,9999,9999,9999,2612723768
5723,13,Improv_Metronome,70,9999,9999,9999,2613223520
5723,13,Improv_Metronome,71,9999,9999,9999,2613723212
5723,13,Improv_Metronome,72,9999,9999,9999,2614223940
5723,13,Improv_Metronome,73,9999,9999,9999,2614723700
5723,13,Improv_Metronome,74,9999,9999,9999,2615223380
5723,13,Improv_Metronome,75,9999,9999,9999,2615723076
5723,13,Improv_Metronome,76,9999,9999,9999,2616223812
5723,13,Improv_Metronome,77,9999,9999,9999,2616723560
5723,13,Improv_Metronome,78,9999,9999,9999,2617223260
5723,13,Improv_Metronome,79,9999,9999,9999,2617723980
5723,13,Improv_Metronome,80,9999,9999,9999,2618223724
5723,13,Improv_Metronome,81,9999,9999,9999,2618723400
5723,13,Improv_Metronome,82,9999,9999,9999,2619223092
5723,13,Improv_Metronome,83,9999,9999,9999,2619723892
5723,13,Improv_Metronome,84,9999,9999,9999,2620223584
5723,13,Improv_Metronome,85,9999,9999,9999,2620723308
5723,13,Improv_Metronome,86,9999,9999,9999,2621224048
5723,13,Improv_Metronome,87,9999,9999,9999,2621723720
5723,13,Improv_Metronome,88,9999,9999,9999,2622223416
5723,13,Improv_Metronome,89,9999,9999,9999,2622723180
5723,13,Improv_Metronome,90,9999,9999,9999,2623223912
5723,13,Improv_Metronome,91,9999,9999,9999,2623723572
5723,13,Improv_Metronome,92,9999,9999,9999,2624223320
5723,13,Improv_Metronome,93,9999,9999,9999,2624724064
5723,13,Improv_Metronome,94,9999,9999,9999,2625223760
5723,13,Improv_Metronome,95,9999,9999,9999,2625723508
5723,13,Improv_Metronome,96,9999,9999,9999,2626223184
5723,13,Improv_Metronome,97,9999,9999,9999,2626723900
5723,13,Improv_Metronome,98,9999,9999,9999,2627223628
5723,13,Improv_Metronome,99,9999,9999,9999,2627723352
5723,13,Improv_Metronome,100,9999,9999,9999,2628224072
5723,13,Improv_Metronome,101,9999,9999,9999,2628723760
5723,13,Improv_Metronome,102,9999,9999,9999,2629223512
5723,13,Improv_Metronome,103,9999,9999,9999,2629723188
5723,13,Improv_Metronome,104,9999,9999,9999,2630223976
5723,13,Improv_Metronome,105,9999,9999,9999,2630723652
5723,13,Improv_Metronome,106,9999,9999,9999,2631223380
5723,13,Improv_Metronome,107,9999,9999,9999,2631723124
5723,13,Improv_Metronome,108,9999,9999,9999,2632223860
5723,13,Improv_Metronome,109,9999,9999,9999,2632723540
5723,13,Improv_Metronome,110,9999,9999,9999,2633223232
5723,13,Improv_Metronome,111,9999,9999,9999,2633723972
5723,13,Improv_Metronome,112,9999,9999,9999,2634223668
5723,13,Improv_Metronome,113,9999,9999,9999,2634723428
5723,13,Improv_Metronome,114,9999,9999,9999,2635223100
5723,13,Improv_Metronome,115,9999,9999,9999,2635723896
5723,13,Improv_Metronome,116,9999,9999,9999,2636223568
5723,13,Improv_Metronome,117,9999,9999,9999,2636723268
5723,13,Improv_Metronome,118,9999,9999,9999,2637224004
5723,13,Improv_Metronome,119,9999,9999,9999,2637723700
5723,13,Improv_Metronome,120,9999,9999,9999,2638223476
5723,13,Improv_Metronome,121,9999,9999,9999,2638723160
5723,13,Improv_Metronome,122,9999,9999,9999,2639223880
5723,13,Improv_Metronome,123,9999,9999,9999,2639723628
5723,13,Improv_Metronome,124,9999,9999,9999,2640223300
5723,13,Improv_Metronome,125,9999,9999,9999,2640724044
5723,13,Improv_Metronome,126,9999,9999,9999,2641223744
5723,13,Improv_Metronome,127,9999,9999,9999,2641723440
5723,13,Improv_Metronome,128,9999,9999,9999,2642223184
5723,13,Improv_Metronome,129,9999,9999,9999,2642723920
5723,13,Improv_Metronome,130,9999,9999,9999,2643223668
5723,13,Improv_Metronome,131,9999,9999,9999,2643723340
5723,13,Improv_Metronome,132,9999,9999,9999,2644224088
5723,13,Improv_Metronome,133,9999,9999,9999,2644723800
5723,13,Improv_Metronome,134,9999,9999,9999,2645223500
5723,13,Improv_Metronome,135,9999,9999,9999,2645723196
5723,13,Improv_Metronome,136,9999,9999,9999,2646223936
5723,13,Improv_Metronome,137,9999,9999,9999,2646723704
5723,13,Improv_Metronome,138,9999,9999,9999,2647223356
5723,13,Improv_Metronome,139,9999,9999,9999,2647723104
5724,14,Improv_Melody,0,2,48,80,2728557976
5724,14,Improv_Melody,1,2,72,80,2728560724
5724,14,Improv_Melody,2,5,42,127,2728562284
5724,14,Improv_Melody,3,5,42,110,2729054676
5724,14,Improv_Melody,4,5,42,110,2729555368
5724,14,Improv_Melody,5,5,42,110,2730055016
5724,14,Improv_Melody,6,5,42,127,2730554812
5724,14,Improv_Melody,7,5,42,110,2731054508
5724,14,Improv_Melody,8,5,42,110,2731555276
5724,14,Improv_Melody,9,5,42,110,2732054924
5724,14,Improv_Melody,10,2,43,80,2732557072
5724,14,Improv_Melody,11,2,67,80,2732559300
5724,14,Improv_Melody,12,5,42,127,2732561916
5724,14,Improv_Melody,13,5,42,110,2733055208
5724,14,Improv_Melody,14,5,42,110,2733554928
5724,14,Improv_Melody,15,5,42,110,2734054724
5724,14,Improv_Melody,16,5,42,127,2734554668
5724,14,Improv_Melody,17,5,42,110,2735055140
5724,14,Improv_Melody,18,5,42,110,2735554860
5724,14,Improv_Melody,19,5,42,110,2736054808
5724,14,Improv_Melody,20,2,45,80,2736558008
5724,14,Improv_Melody,21,2,69,80,2736560080
5724,14,Improv_Melody,22,5,42,127,2736562696
5724,14,Improv_Melody,23,5,42,110,2737055160
5724,14,Improv_Melody,24,5,42,110,2737554660
5724,14,Improv_Melody,25,5,42,110,2738054456
5724,14,Improv_Melody,26,5,42,127,2738555148
5724,14,Improv_Melody,27,5,42,110,2739054872
5724,14,Improv_Melody,28,5,42,110,2739554740
5724,14,Improv_Melody,29,5,42,110,2740055584
5724,14,Improv_Melody,30,2,41,80,2740557736
5724,14,Improv_Melody,31,2,65,80,2740559664
5724,14,Improv_Melody,32,5,42,127,2740562500
5724,14,Improv_Melody,33,5,42,110,2741054816
5724,14,Improv_Melody,34,5,42,110,2741554516
5724,14,Improv_Melody,35,5,42,110,2742055504
5724,14,Improv_Melody,36,5,42,127,2742554932
5724,14,Improv_Melody,37,5,42,110,2743054656
5724,14,Improv_Melody,38,5,42,110,2743554600
5724,14,Improv_Melody,39,5,42,110,2744055292
5724,14,Improv_Melody,40,2,48,80,2744556988
5724,14,Improv_Melody,41,2,72,80,2744559372
5724,14,Improv_Melody,42,5,42,127,2744561836
5724,14,Improv_Melody,43,5,42,110,2745054600
5724,14,Improv_Melody,44,5,42,110,2745555444
5724,14,Improv_Melody,45,5,42,110,2746055164
5724,14,Improv_Melody,46,5,42,127,2746554588
5724,14,Improv_Melody,47,5,42,110,2747054608
5724,14,Improv_Melody,48,5,42,110,2747555300
5724,14,Improv_Melody,49,5,42,110,2748054876
5724,14,Improv_Melody,50,2,43,80,2748557024
5724,14,Improv_Melody,51,2,67,80,2748559324
5724,14,Improv_Melody,52,5,42,127,2748561716
5724,14,Improv_Melody,53,1,38,49,2748575532
5724,14,Improv_Melody,54,1,38,48,2749054832
5724,14,Improv_Melody,55,5,42,110,2749056844
5724,14,Improv_Melody,56,1,38,54,2749554532
5724,14,Improv_Melody,57,5,42,110,2749557516
5724,14,Improv_Melody,58,1,38,49,2750045288
5724,14,Improv_Melody,59,5,42,110,2750054900
5724,14,Improv_Melody,60,5,42,127,2750554460
5724,14,Improv_Melody,61,1,38,53,2750566704
5724,14,Improv_Melody,62,5,42,110,2751055356
5724,14,Improv_Melody,63,1,38,50,2751056620
5724,14,Improv_Melody,64,5,42,110,2751555056
5724,14,Improv_Melody,65,1,38,45,2751559668
5724,14,Improv_Melody,66,1,38,42,2752042492
5724,14,Improv_Melody,67,5,42,110,2752054600
5724,14,Improv_Melody,68,1,38,48,2752391400
5724,14,Improv_Melody,69,2,45,80,2752557808
5724,14,Improv_Melody,70,2,69,80,2752560192
5724,14,Improv_Melody,71,5,42,127,2752562652
5724,14,Improv_Melody,72,1,38,33,2752708208
5724,14,Improv_Melody,73,1,38,41,2752931704
5724,14,Improv_Melody,74,5,42,110,2753055296
5724,14,Improv_Melody,75,1,38,41,2753212900
5724,14,Improv_Melody,76,1,38,34,2753404832
5724,14,Improv_Melody,77,5,42,110,2753554752
5724,14,Improv_Melody,78,1,38,34,2753692832
5724,14,Improv_Melody,79,1,38,26,2753880352
5724,14,Improv_Melody,80,5,42,110,2754054504
5724,14,Improv_Melody,81,1,48,33,2754552532
5724,14,Improv_Melody,82,5,42,127,2754555188
5724,14,Improv_Melody,83,1,38,37,2754607000
5724,14,Improv_Melody,84,1,38,41,2754881432
5724,14,Improv_Melody,85,1,48,34,2754883884
5724,14,Improv_Melody,86,5,42,110,2755055088
5724,14,Improv_Melody,87,1,38,46,2755090372
5724,14,Improv_Melody,88,1,48,46,2755094168
5724,14,Improv_Melody,89,1,48,44,2755407568
5724,14,Improv_Melody,90,1,38,45,2755410096
5724,14,Improv_Melody,91,1,38,32,2755552232
5724,14,Improv_Melody,92,5,42,110,2755554740
5724,14,Improv_Melody,93,1,48,48,2755567508
5724,14,Improv_Melody,94,1,38,50,2755887768
5724,14,Improv_Melody,95,1,48,46,2755900432
5724,14,Improv_Melody,96,5,42,110,2756055404
5724,14,Improv_Melody,97,1,48,47,2756076700
5724,14,Improv_Melody,98,1,38,41,2756089996
5724,14,Improv_Melody,99,1,38,49,2756417380
5724,14,Improv_Melody,100,1,48,46,2756427088
5724,14,Improv_Melody,101,2,41,80,2756557488
5724,14,Improv_Melody,102,2,65,80,2756559788
5724,14,Improv_Melody,103,5,42,127,2756562404
5724,14,Improv_Melody,104,1,48,45,2756593052
5724,14,Improv_Melody,105,1,38,39,2756608440
5724,14,Improv_Melody,106,1,48,48,2756917428
5724,14,Improv_Melody,107,5,42,110,2757054780
5724,14,Improv_Melody,108,1,48,39,2757087296
5724,14,Improv_Melody,109,1,48,44,2757428300
5724,14,Improv_Melody,110,5,42,110,2757554456
5724,14,Improv_Melody,111,1,48,43,2757600132
5724,14,Improv_Melody,112,1,48,48,2757928572
5724,14,Improv_Melody,113,5,42,110,2758055180
5724,14,Improv_Melody,114,1,48,39,2758093828
5724,14,Improv_Melody,115,1,48,51,2758418824
5724,14,Improv_Melody,116,5,42,127,2758555156
5724,14,Improv_Melody,117,1,48,36,2758580640
5724,14,Improv_Melody,118,1,48,44,2758604252
5724,14,Improv_Melody,119,1,48,47,2758914740
5724,14,Improv_Melody,120,5,42,110,2759054812
5724,14,Improv_Melody,121,1,48,39,2759090544
5724,14,Improv_Melody,122,1,48,42,2759111388
5724,14,Improv_Melody,123,1,48,52,2759421280
5724,14,Improv_Melody,124,5,42,110,2759554392
5724,14,Improv_Melody,125,1,48,39,2759586604
5724,14,Improv_Melody,126,1,48,43,2759609020
5724,14,Improv_Melody,127,1,48,52,2759910836
5724,14,Improv_Melody,128,5,42,110,2760055096
5724,14,Improv_Melody,129,1,48,64,2760094192
5724,14,Improv_Melody,130,2,48,80,2760557296
5724,14,Improv_Melody,131,2,72,80,2760559596
5724,14,Improv_Melody,132,1,38,57,2760560868
5724,14,Improv_Melody,133,5,42,127,2760564672
5724,14,Improv_Melody,134,1,38,53,2760880532
5724,14,Improv_Melody,135,1,38,55,2761053044
5724,14,Improv_Melody,136,5,42,110,2761056120
5724,14,Improv_Melody,137,1,38,55,2761414392
5724,14,Improv_Melody,138,5,42,110,2761555212
5724,14,Improv_Melody,139,1,38,37,2761572312
5724,14,Improv_Melody,140,1,38,49,2761586056
5724,14,Improv_Melody,141,1,38,46,2761925040
5724,14,Improv_Melody,142,5,42,110,2762055164
5724,14,Improv_Melody,143,1,38,47,2762087832
5724,14,Improv_Melody,144,1,38,45,2762421128
5724,14,Improv_Melody,145,1,38,59,2762444000
5724,14,Improv_Melody,146,5,42,127,2762554820
5724,14,Improv_Melody,147,1,38,39,2762597956
5724,14,Improv_Melody,148,1,38,38,2762624192
5724,14,Improv_Melody,149,1,38,48,2762938792
5724,14,Improv_Melody,150,1,38,62,2762949612
5724,14,Improv_Melody,151,5,42,110,2763054432
5724,14,Improv_Melody,152,1,38,32,2763105072
5724,14,Improv_Melody,153,1,38,48,2763116048
5724,14,Improv_Melody,154,1,38,56,2763422796
5724,14,Improv_Melody,155,5,42,110,2763555208
5724,14,Improv_Melody,156,1,38,48,2763579524
5724,14,Improv_Melody,157,1,38,43,2763922476
5724,14,Improv_Melody,158,5,42,110,2764055036
5724,14,Improv_Melody,159,1,38,44,2764114504
5724,14,Improv_Melody,160,1,38,59,2764123904
5724,14,Improv_Melody,161,2,43,80,2764557296
5724,14,Improv_Melody,162,2,67,80,2764559296
5724,14,Improv_Melody,163,5,42,127,2764562060
5724,14,Improv_Melody,164,1,48,57,2764603428
5724,14,Improv_Melody,165,5,42,110,2765055328
5724,14,Improv_Melody,166,1,38,76,2765084252
5724,14,Improv_Melody,167,1,38,48,2765121052
5724,14,Improv_Melody,168,5,42,110,2765554932
5724,14,Improv_Melody,169,1,48,67,2765583104
5724,14,Improv_Melody,170,1,48,65,2765823952
5724,14,Improv_Melody,171,1,48,77,2766033096
5724,14,Improv_Melody,172,5,42,110,2766054972
5724,14,Improv_Melody,173,1,48,57,2766060992
5724,14,Improv_Melody,174,1,38,77,2766535164
5724,14,Improv_Melody,175,5,42,127,2766554352
5724,14,Improv_Melody,176,1,38,49,2766576528
5724,14,Improv_Melody,177,1,48,58,2767031100
5724,14,Improv_Melody,178,5,42,110,2767055152
5724,14,Improv_Melody,179,1,38,67,2767545084
5724,14,Improv_Melody,180,5,42,110,2767555148
5724,14,Improv_Melody,181,1,48,51,2767557592
5724,14,Improv_Melody,182,1,38,34,2767589888
5724,14,Improv_Melody,183,1,38,64,2768028140
5724,14,Improv_Melody,184,1,48,59,2768038072
5724,14,Improv_Melody,185,5,42,110,2768054860
5724,14,Improv_Melody,186,1,38,50,2768528764
5724,14,Improv_Melody,187,2,45,80,2768557936
5724,14,Improv_Melody,188,2,69,80,2768559864
5724,14,Improv_Melody,189,5,42,127,2768562552
5724,14,Improv_Melody,190,1,38,47,2768832256
5724,14,Improv_Melody,191,1,38,56,2769003100
5724,14,Improv_Melody,192,5,42,110,2769054976
5724,14,Improv_Melody,193,1,38,54,2769366048
5724,14,Improv_Melody,194,1,38,51,2769526712
5724,14,Improv_Melody,195,5,42,110,2769554952
5724,14,Improv_Melody,196,1,38,57,2769878216
5724,14,Improv_Melody,197,5,42,110,2770054560
5724,14,Improv_Melody,198,1,38,61,2770084088
5724,14,Improv_Melody,199,5,42,127,2770555232
5724,14,Improv_Melody,200,1,48,55,2770559920
5724,14,Improv_Melody,201,1,48,63,2770921800
5724,14,Improv_Melody,202,1,48,52,2770948776
5724,14,Improv_Melody,203,5,42,110,2771055040
5724,14,Improv_Melody,204,1,48,21,2771071696
5724,14,Improv_Melody,205,1,48,58,2771083120
5724,14,Improv_Melody,206,1,48,55,2771431680
5724,14,Improv_Melody,207,5,42,110,2771554844
5724,14,Improv_Melody,208,1,48,50,2771590280
5724,14,Improv_Melody,209,1,48,56,2771955664
5724,14,Improv_Melody,210,5,42,110,2772055348
5724,14,Improv_Melody,211,1,48,46,2772135876
5724,14,Improv_Melody,212,2,41,80,2772557400
5724,14,Improv_Melody,213,2,65,80,2772559776
5724,14,Improv_Melody,214,5,42,127,2772562164
5724,14,Improv_Melody,215,1,48,68,2772587200
5724,14,Improv_Melody,216,1,38,50,2772604756
5724,14,Improv_Melody,217,1,48,45,2772619772
5724,14,Improv_Melody,218,5,42,110,2773054916
5724,14,Improv_Melody,219,1,38,65,2773089824
5724,14,Improv_Melody,220,1,48,60,2773104460
5724,14,Improv_Melody,221,5,42,110,2773554916
5724,14,Improv_Melody,222,1,38,57,2773595760
5724,14,Improv_Melody,223,5,42,110,2774055140
5724,14,Improv_Melody,224,1,38,59,2774065740
5724,14,Improv_Melody,225,1,48,47,2774541180
5724,14,Improv_Melody,226,5,42,127,2774554984
5724,14,Improv_Melody,227,5,42,110,2775054912
5724,14,Improv_Melody,228,1,38,53,2775076732
5724,14,Improv_Melody,229,1,48,57,2775082548
5724,14,Improv_Melody,230,5,42,110,2775554340
5724,14,Improv_Melody,231,1,48,56,2775591492
5724,14,Improv_Melody,232,1,38,50,2775594760
5724,14,Improv_Melody,233,5,42,110,2776055116
5724,14,Improv_Melody,234,1,38,56,2776091592
5724,14,Improv_Melody,235,1,48,58,2776093968
5724,14,Improv_Melody,236,2,48,80,2776557268
5724,14,Improv_Melody,237,2,72,80,2776559728
5724,14,Improv_Melody,238,5,42,127,2776562036
5724,14,Improv_Melody,239,1,38,58,2776572412
5724,14,Improv_Melody,240,5,42,110,2777054780
5724,14,Improv_Melody,241,1,38,64,2777093948
5724,14,Improv_Melody,242,5,42,110,2777555228
5724,14,Improv_Melody,243,1,38,59,2777588864
5724,14,Improv_Melody,244,1,38,54,2777607016
5724,14,Improv_Melody,245,5,42,110,2778054904
5724,14,Improv_Melody,246,1,38,47,2778082108
5724,14,Improv_Melody,247,1,38,62,2778102060
5724,14,Improv_Melody,248,5,42,127,2778554732
5724,14,Improv_Melody,249,1,48,60,2778561964
5724,14,Improv_Melody,250,1,48,62,2778589992
5724,14,Improv_Melody,251,5,42,110,2779054784
5724,14,Improv_Melody,252,1,48,65,2779078472
5724,14,Improv_Melody,253,1,48,37,2779133352
5724,14,Improv_Melody,254,5,42,110,2779555136
5724,14,Improv_Melody,255,1,48,63,2779578748
5724,14,Improv_Melody,256,1,48,39,2779633780
5724,14,Improv_Melody,257,1,48,68,2780047516
5724,14,Improv_Melody,258,5,42,110,2780054884
5724,14,Improv_Melody,259,1,38,57,2780276800
5724,14,Improv_Melody,260,1,48,67,2780503660
5724,14,Improv_Melody,261,2,43,80,2780557292
5724,14,Improv_Melody,262,2,67,80,2780559520
5724,14,Improv_Melody,263,5,42,127,2780561980
5724,14,Improv_Melody,264,1,38,58,2780802668
5724,14,Improv_Melody,265,5,42,110,2781055308
5724,14,Improv_Melody,266,1,48,57,2781109064
5724,14,Improv_Melody,267,5,42,110,2781555008
5724,14,Improv_Melody,268,1,48,66,2781610784
5724,14,Improv_Melody,269,1,38,51,2781863080
5724,14,Improv_Melody,270,5,42,110,2782054760
5724,14,Improv_Melody,271,1,48,64,2782096552
5724,14,Improv_Melody,272,5,42,127,2782554684
5724,14,Improv_Melody,273,1,48,76,2782609788
5724,14,Improv_Melody,274,1,48,26,2782677980
5724,14,Improv_Melody,275,1,38,51,2782854508
5724,14,Improv_Melody,276,5,42,110,2783055240
5724,14,Improv_Melody,277,1,48,71,2783123956
5724,14,Improv_Melody,278,1,48,44,2783178384
5724,14,Improv_Melody,279,5,42,110,2783554916
5724,14,Improv_Melody,280,1,48,81,2783624752
5724,14,Improv_Melody,281,1,48,47,2783670956
5724,14,Improv_Melody,282,1,38,49,2783885408
5724,14,Improv_Melody,283,5,42,110,2784054648
5724,14,Improv_Melody,284,1,48,77,2784113792
5724,14,Improv_Melody,285,1,48,49,2784153408
5724,14,Improv_Melody,286,2,45,80,2784558076
5724,14,Improv_Melody,287,2,69,80,2784560232
5724,14,Improv_Melody,288,5,42,127,2784562692
5724,14,Improv_Melody,289,1,48,83,2784629864
5724,14,Improv_Melody,290,1,48,51,2784670452
5724,14,Improv_Melody,291,1,38,44,2784879816
5724,14,Improv_Melody,292,5,42,110,2785055092
5724,14,Improv_Melody,293,1,48,72,2785098324
5724,14,Improv_Melody,294,1,48,44,2785134808
5724,14,Improv_Melody,295,5,42,110,2785554768
5724,14,Improv_Melody,296,1,48,81,2785592168
5724,14,Improv_Melody,297,1,48,51,2785624612
5724,14,Improv_Melody,298,1,38,46,2785858880
5724,14,Improv_Melody,299,5,42,110,2786054572
5724,14,Improv_Melody,300,1,48,72,2786076468
5724,14,Improv_Melody,301,1,48,48,2786106540
5724,14,Improv_Melody,302,5,42,127,2786555444
5724,14,Improv_Melody,303,1,48,72,2786582424
5724,14,Improv_Melody,304,1,48,47,2786612576
5724,14,Improv_Melody,305,1,38,51,2786861996
5724,14,Improv_Melody,306,5,42,110,2787055100
5724,14,Improv_Melody,307,1,48,68,2787065104
5724,14,Improv_Melody,308,1,48,69,2787551912
5724,14,Improv_Melody,309,5,42,110,2787554644
5724,14,Improv_Melody,310,1,48,44,2787581384
5724,14,Improv_Melody,311,1,38,57,2787852384
5724,14,Improv_Melody,312,1,48,64,2788041616
5724,14,Improv_Melody,313,5,42,110,2788055348
5724,14,Improv_Melody,314,1,48,42,2788073712
5724,14,Improv_Melody,315,2,41,80,2788557764
5724,14,Improv_Melody,316,1,38,76,2788559552
5724,14,Improv_Melody,317,2,65,80,2788562536
5724,14,Improv_Melody,318,5,42,127,2788564848
5724,14,Improv_Melody,319,1,38,40,2788605356
5724,14,Improv_Melody,320,5,42,110,2789054812
5724,14,Improv_Melody,321,1,38,81,2789078724
5724,14,Improv_Melody,322,1,38,50,2789115352
5724,14,Improv_Melody,323,5,42,110,2789554488
5724,14,Improv_Melody,324,1,38,79,2789578104
5724,14,Improv_Melody,325,1,38,49,2789619072
5724,14,Improv_Melody,326,5,42,110,2790055364
5724,14,Improv_Melody,327,1,38,69,2790103736
5724,14,Improv_Melody,328,1,38,43,2790144852
5724,14,Improv_Melody,329,5,42,127,2790554892
5724,14,Improv_Melody,330,1,38,81,2790594668
5724,14,Improv_Melody,331,1,38,49,2790634432
5724,14,Improv_Melody,332,1,48,54,2790840732
5724,14,Improv_Melody,333,1,38,66,2791050320
5724,14,Improv_Melody,334,5,42,110,2791054696
5724,14,Improv_Melody,335,1,38,48,2791078292
5724,14,Improv_Melody,336,5,42,110,2791554452
5724,14,Improv_Melody,337,1,48,66,2791578512
5724,14,Improv_Melody,338,1,48,39,2791621876
5724,14,Improv_Melody,339,1,38,57,2791850388
5724,14,Improv_Melody,340,5,42,110,2792055156
5724,14,Improv_Melody,341,1,48,62,2792069424
5724,14,Improv_Melody,342,1,48,38,2792104032
5724,14,Improv_Melody,343,2,48,80,2792557416
5724,14,Improv_Melody,344,2,72,80,2792559340
5724,14,Improv_Melody,345,5,42,127,2792561880
5724,14,Improv_Melody,346,1,48,68,2792588184
5724,14,Improv_Melody,347,1,48,42,2792629528
5724,14,Improv_Melody,348,1,38,60,2792881524
5724,14,Improv_Melody,349,1,38,29,2792936556
5724,14,Improv_Melody,350,1,48,68,2793045312
5724,14,Improv_Melody,351,5,42,110,2793054552
5724,14,Improv_Melody,352,1,48,40,2793089372
5724,14,Improv_Melody,353,1,48,74,2793547308
5724,14,Improv_Melody,354,5,42,110,2793555500
5724,14,Improv_Melody,355,1,48,44,2793585532
5724,14,Improv_Melody,356,1,38,61,2793861168
5724,14,Improv_Melody,357,1,38,37,2793900116
5724,14,Improv_Melody,358,1,48,66,2794037300
5724,14,Improv_Melody,359,5,42,110,2794054988
5724,14,Improv_Melody,360,1,48,39,2794075744
5724,14,Improv_Melody,361,1,48,69,2794544356
5724,14,Improv_Melody,362,5,42,127,2794554592
5724,14,Improv_Melody,363,1,48,42,2794581552
5724,14,Improv_Melody,364,1,38,74,2794873416
5724,14,Improv_Melody,365,1,38,45,2794909520
5724,14,Improv_Melody,366,5,42,110,2795054432
5724,14,Improv_Melody,367,1,48,70,2795074632
5724,14,Improv_Melody,368,1,48,43,2795111032
5724,14,Improv_Melody,369,5,42,110,2795555380
5724,14,Improv_Melody,370,1,48,62,2795558496
5724,14,Improv_Melody,371,1,48,41,2795589168
5724,14,Improv_Melody,372,1,38,70,2795894720
5724,14,Improv_Melody,373,1,38,41,2795935164
5724,14,Improv_Melody,374,5,42,110,2796055088
5724,14,Improv_Melody,375,1,48,69,2796057760
5724,14,Improv_Melody,376,1,48,43,2796091424
5724,14,Improv_Melody,377,1,48,60,2796523684
5724,14,Improv_Melody,378,1,48,41,2796556600
5724,14,Improv_Melody,379,2,43,80,2796559128
5724,14,Improv_Melody,380,2,67,80,2796561052
5724,14,Improv_Melody,381,5,42,127,2796563592
5724,14,Improv_Melody,382,1,38,77,2796934600
5724,14,Improv_Melody,383,1,38,45,2796978336
5724,14,Improv_Melody,384,5,42,110,2797055412
5724,14,Improv_Melody,385,1,48,62,2797096368
5724,14,Improv_Melody,386,1,48,36,2797136012
5724,14,Improv_Melody,387,1,48,55,2797546804
5724,14,Improv_Melody,388,5,42,110,2797555296
5724,14,Improv_Melody,389,1,48,31,2797592956
5724,14,Improv_Melody,390,1,48,64,2797949392
5724,14,Improv_Melody,391,5,42,110,2798054732
5724,14,Improv_Melody,392,1,48,57,2798477216
5724,14,Improv_Melody,393,5,42,127,2798554448
5724,14,Improv_Melody,394,1,48,63,2799046032
5724,14,Improv_Melody,395,5,42,110,2799055272
5724,14,Improv_Melody,396,1,48,37,2799083132
5724,14,Improv_Melody,397,5,42,110,2799555104
5724,14,Improv_Melody,398,1,48,65,2799559268
5724,14,Improv_Melody,399,1,48,41,2799595448
5724,14,Improv_Melody,400,1,38,80,2799921120
5724,14,Improv_Melody,401,1,38,46,2799965104
5724,14,Improv_Melody,402,5,42,110,2800054676
5724,14,Improv_Melody,403,1,48,64,2800120092
5724,14,Improv_Melody,404,2,45,80,2800557616
5724,14,Improv_Melody,405,2,69,80,2800560068
5724,14,Improv_Melody,406,5,42,127,2800562460
5724,14,Improv_Melody,407,1,48,65,2800565876
5724,14,Improv_Melody,408,1,48,41,2800601604
5724,14,Improv_Melody,409,1,38,62,2800911192
5724,14,Improv_Melody,410,1,38,33,2800957272
5724,14,Improv_Melody,411,5,42,110,2801055280
5724,14,Improv_Melody,412,1,48,62,2801062216
5724,14,Improv_Melody,413,1,48,59,2801527040
5724,14,Improv_Melody,414,5,42,110,2801554976
5724,14,Improv_Melody,415,1,38,64,2801888036
5724,14,Improv_Melody,416,1,38,37,2801934692
5724,14,Improv_Melody,417,1,48,65,2802043524
5724,14,Improv_Melody,418,5,42,110,2802054632
5724,14,Improv_Melody,419,1,48,38,2802083840
5724,14,Improv_Melody,420,1,48,60,2802504760
5724,14,Improv_Melody,421,5,42,127,2802555656
5724,14,Improv_Melody,422,1,38,63,2802891044
5724,14,Improv_Melody,423,1,38,35,2802930512
5724,14,Improv_Melody,424,1,48,62,2803052136
5724,14,Improv_Melody,425,5,42,110,2803055240
5724,14,Improv_Melody,426,1,48,59,2803513616
5724,14,Improv_Melody,427,5,42,110,2803554716
5724,14,Improv_Melody,428,1,38,70,2803896904
5724,14,Improv_Melody,429,1,38,44,2803933388
5724,14,Improv_Melody,430,1,48,57,2804048952
5724,14,Improv_Melody,431,5,42,110,2804055348
5724,14,Improv_Melody,432,1,48,61,2804500008
5724,14,Improv_Melody,433,1,48,37,2804537108
5724,14,Improv_Melody,434,2,41,80,2804557600
5724,14,Improv_Melody,435,2,65,80,2804559908
5724,14,Improv_Melody,436,5,42,127,2804562296
5724,14,Improv_Melody,437,1,38,61,2804921160
5724,14,Improv_Melody,438,1,38,40,2804956964
5724,14,Improv_Melody,439,5,42,110,2805055000
5724,14,Improv_Melody,440,1,48,52,2805206220
5724,14,Improv_Melody,441,5,42,110,2805554548
5724,14,Improv_Melody,442,1,38,54,2805577040
5724,14,Improv_Melody,443,5,42,110,2806055196
5724,14,Improv_Melody,444,1,48,70,2806552796
5724,14,Improv_Melody,445,5,42,127,2806555060
5724,14,Improv_Melody,446,1,48,41,2806600596
5724,14,Improv_Melody,447,5,42,110,2807054672
5724,14,Improv_Melody,448,1,38,73,2807068788
5724,14,Improv_Melody,449,5,42,110,2807554372
5724,14,Improv_Melody,450,1,48,71,2807561976
5724,14,Improv_Melody,451,1,48,60,2807809040
5724,14,Improv_Melody,452,5,42,110,2808055168
5724,14,Improv_Melody,453,1,48,73,2808099648
5724,14,Improv_Melody,454,1,48,43,2808153880
5724,14,Improv_Melody,455,2,48,80,2808557584
5724,14,Improv_Melody,456,1,38,68,2808559216
5724,14,Improv_Melody,457,2,72,80,2808562500
5724,14,Improv_Melody,458,5,42,127,2808564892
5724,14,Improv_Melody,459,1,38,40,2808606892
5724,14,Improv_Melody,460,5,42,110,2809054700
5724,14,Improv_Melody,461,1,48,64,2809059912
5724,14,Improv_Melody,462,1,48,35,2809115020
5724,14,Improv_Melody,463,1,38,67,2809545208
5724,14,Improv_Melody,0,9999,9999,9999,2728552548
5724,14,Improv_Melody,1,9999,9999,9999,2729052236
5724,14,Improv_Melody,2,9999,9999,9999,2729553004
5724,14,Improv_Melody,3,9999,9999,9999,2730052724
5724,14,Improv_Melody,4,9999,9999,9999,2730552372
5724,14,Improv_Melody,5,9999,9999,9999,2731052144
5724,14,Improv_Melody,6,9999,9999,9999,2731552836
5724,14,Improv_Melody,7,9999,9999,9999,2732052560
5724,14,Improv_Melody,8,9999,9999,9999,2732552280
5724,14,Improv_Melody,9,9999,9999,9999,2733052988
5724,14,Improv_Melody,10,9999,9999,9999,2733552712
5724,14,Improv_Melody,11,9999,9999,9999,2734052432
5724,14,Improv_Melody,12,9999,9999,9999,2734552156
5724,14,Improv_Melody,13,9999,9999,9999,2735052848
5724,14,Improv_Melody,14,9999,9999,9999,2735552568
5724,14,Improv_Melody,15,9999,9999,9999,2736052292
5724,14,Improv_Melody,16,9999,9999,9999,2736553060
5724,14,Improv_Melody,17,9999,9999,9999,2737052796
5724,14,Improv_Melody,18,9999,9999,9999,2737552440
5724,14,Improv_Melody,19,9999,9999,9999,2738052164
5724,14,Improv_Melody,20,9999,9999,9999,2738552932
5724,14,Improv_Melody,21,9999,9999,9999,2739052656
5724,14,Improv_Melody,22,9999,9999,9999,2739552376
5724,14,Improv_Melody,23,9999,9999,9999,2740053068
5724,14,Improv_Melody,24,9999,9999,9999,2740552792
5724,14,Improv_Melody,25,9999,9999,9999,2741052528
5724,14,Improv_Melody,26,9999,9999,9999,2741552224
5724,14,Improv_Melody,27,9999,9999,9999,2742052916
5724,14,Improv_Melody,28,9999,9999,9999,2742552640
5724,14,Improv_Melody,29,9999,9999,9999,2743052360
5724,14,Improv_Melody,30,9999,9999,9999,2743552084
5724,14,Improv_Melody,31,9999,9999,9999,2744052852
5724,14,Improv_Melody,32,9999,9999,9999,2744552500
5724,14,Improv_Melody,33,9999,9999,9999,2745052232
5724,14,Improv_Melody,34,9999,9999,9999,2745553004
5724,14,Improv_Melody,35,9999,9999,9999,2746052724
5724,14,Improv_Melody,36,9999,9999,9999,2746552372
5724,14,Improv_Melody,37,9999,9999,9999,2747052092
5724,14,Improv_Melody,38,9999,9999,9999,2747552860
5724,14,Improv_Melody,39,9999,9999,9999,2748052584
5724,14,Improv_Melody,40,9999,9999,9999,2748552304
5724,14,Improv_Melody,41,9999,9999,9999,2749052992
5724,14,Improv_Melody,42,9999,9999,9999,2749552692
5724,14,Improv_Melody,43,9999,9999,9999,2750052460
5724,14,Improv_Melody,44,9999,9999,9999,2750552168
5724,14,Improv_Melody,45,9999,9999,9999,2751052916
5724,14,Improv_Melody,46,9999,9999,9999,2751552616
5724,14,Improv_Melody,47,9999,9999,9999,2752052284
5724,14,Improv_Melody,48,9999,9999,9999,2752553016
5724,14,Improv_Melody,49,9999,9999,9999,2753052780
5724,14,Improv_Melody,50,9999,9999,9999,2753552460
5724,14,Improv_Melody,51,9999,9999,9999,2754052212
5724,14,Improv_Melody,52,9999,9999,9999,2754552900
5724,14,Improv_Melody,53,9999,9999,9999,2755052648
5724,14,Improv_Melody,54,9999,9999,9999,2755552376
5724,14,Improv_Melody,55,9999,9999,9999,2756053112
5724,14,Improv_Melody,56,9999,9999,9999,2756552768
5724,14,Improv_Melody,57,9999,9999,9999,2757052488
5724,14,Improv_Melody,58,9999,9999,9999,2757552240
5724,14,Improv_Melody,59,9999,9999,9999,2758052960
5724,14,Improv_Melody,60,9999,9999,9999,2758552640
5724,14,Improv_Melody,61,9999,9999,9999,2759052368
5724,14,Improv_Melody,62,9999,9999,9999,2759552100
5724,14,Improv_Melody,63,9999,9999,9999,2760052804
5724,14,Improv_Melody,64,9999,9999,9999,2760552504
5724,14,Improv_Melody,65,9999,9999,9999,2761052268
5724,14,Improv_Melody,66,9999,9999,9999,2761552992
5724,14,Improv_Melody,67,9999,9999,9999,2762052724
5724,14,Improv_Melody,68,9999,9999,9999,2762552380
5724,14,Improv_Melody,69,9999,9999,9999,2763052140
5724,14,Improv_Melody,70,9999,9999,9999,2763552844
5724,14,Improv_Melody,71,9999,9999,9999,2764052596
5724,14,Improv_Melody,72,9999,9999,9999,2764552276
5724,14,Improv_Melody,73,9999,9999,9999,2765053036
5724,14,Improv_Melody,74,9999,9999,9999,2765552712
5724,14,Improv_Melody,75,9999,9999,9999,2766052456
5724,14,Improv_Melody,76,9999,9999,9999,2766552136
5724,14,Improv_Melody,77,9999,9999,9999,2767052860
5724,14,Improv_Melody,78,9999,9999,9999,2767552632
5724,14,Improv_Melody,79,9999,9999,9999,2768052348
5724,14,Improv_Melody,80,9999,9999,9999,2768553064
5724,14,Improv_Melody,81,9999,9999,9999,2769052760
5724,14,Improv_Melody,82,9999,9999,9999,2769552436
5724,14,Improv_Melody,83,9999,9999,9999,2770052196
5724,14,Improv_Melody,84,9999,9999,9999,2770552944
5724,14,Improv_Melody,85,9999,9999,9999,2771052600
5724,14,Improv_Melody,86,9999,9999,9999,2771552328
5724,14,Improv_Melody,87,9999,9999,9999,2772053052
5724,14,Improv_Melody,88,9999,9999,9999,2772552752
5724,14,Improv_Melody,89,9999,9999,9999,2773052476
5724,14,Improv_Melody,90,9999,9999,9999,2773552252
5724,14,Improv_Melody,91,9999,9999,9999,2774052924
5724,14,Improv_Melody,92,9999,9999,9999,2774552692
5724,14,Improv_Melody,93,9999,9999,9999,2775052400
5724,14,Improv_Melody,94,9999,9999,9999,2775552048
5724,14,Improv_Melody,95,9999,9999,9999,2776052824
5724,14,Improv_Melody,96,9999,9999,9999,2776552552
5724,14,Improv_Melody,97,9999,9999,9999,2777052264
5724,14,Improv_Melody,98,9999,9999,9999,2777553012
5724,14,Improv_Melody,99,9999,9999,9999,2778052688
5724,14,Improv_Melody,100,9999,9999,9999,2778552440
5724,14,Improv_Melody,101,9999,9999,9999,2779052120
5724,14,Improv_Melody,102,9999,9999,9999,2779552844
5724,14,Improv_Melody,103,9999,9999,9999,2780052592
5724,14,Improv_Melody,104,9999,9999,9999,2780552272
5724,14,Improv_Melody,105,9999,9999,9999,2781053016
5724,14,Improv_Melody,106,9999,9999,9999,2781552716
5724,14,Improv_Melody,107,9999,9999,9999,2782052468
5724,14,Improv_Melody,108,9999,9999,9999,2782552168
5724,14,Improv_Melody,109,9999,9999,9999,2783052872
5724,14,Improv_Melody,110,9999,9999,9999,2783552624
5724,14,Improv_Melody,111,9999,9999,9999,2784052280
5724,14,Improv_Melody,112,9999,9999,9999,2784553056
5724,14,Improv_Melody,113,9999,9999,9999,2785052724
5724,14,Improv_Melody,114,9999,9999,9999,2785552476
5724,14,Improv_Melody,115,9999,9999,9999,2786052208
5724,14,Improv_Melody,116,9999,9999,9999,2786552932
5724,14,Improv_Melody,117,9999,9999,9999,2787052660
5724,14,Improv_Melody,118,9999,9999,9999,2787552356
5724,14,Improv_Melody,119,9999,9999,9999,2788053056
5724,14,Improv_Melody,120,9999,9999,9999,2788552816
5724,14,Improv_Melody,121,9999,9999,9999,2789052520
5724,14,Improv_Melody,122,9999,9999,9999,2789552200
5724,14,Improv_Melody,123,9999,9999,9999,2790052924
5724,14,Improv_Melody,124,9999,9999,9999,2790552676
5724,14,Improv_Melody,125,9999,9999,9999,2791052404
5724,14,Improv_Melody,126,9999,9999,9999,2791552088
5724,14,Improv_Melody,127,9999,9999,9999,2792052792
5724,14,Improv_Melody,128,9999,9999,9999,2792552544
5724,14,Improv_Melody,129,9999,9999,9999,2793052260
5724,14,Improv_Melody,130,9999,9999,9999,2793552984
5724,14,Improv_Melody,131,9999,9999,9999,2794052696
5724,14,Improv_Melody,132,9999,9999,9999,2794552372
5724,14,Improv_Melody,133,9999,9999,9999,2795052140
5724,14,Improv_Melody,134,9999,9999,9999,2795552864
5724,14,Improv_Melody,135,9999,9999,9999,2796052572
5724,14,Improv_Melody,136,9999,9999,9999,2796552244
5724,14,Improv_Melody,137,9999,9999,9999,2797053048
5724,14,Improv_Melody,138,9999,9999,9999,2797552704
5724,14,Improv_Melody,139,9999,9999,9999,2798052440
5724,14,Improv_Melody,140,9999,9999,9999,2798552156
5724,14,Improv_Melody,141,9999,9999,9999,2799052904
5724,14,Improv_Melody,142,9999,9999,9999,2799552588
5724,14,Improv_Melody,143,9999,9999,9999,2800052312
5724,14,Improv_Melody,144,9999,9999,9999,2800553044
5724,14,Improv_Melody,145,9999,9999,9999,2801052768
5724,14,Improv_Melody,146,9999,9999,9999,2801552460
5724,14,Improv_Melody,147,9999,9999,9999,2802052192
5724,14,Improv_Melody,148,9999,9999,9999,2802552916
5724,14,Improv_Melody,149,9999,9999,9999,2803052652
5724,14,Improv_Melody,150,9999,9999,9999,2803552352
5724,14,Improv_Melody,151,9999,9999,9999,2804053056
5724,14,Improv_Melody,152,9999,9999,9999,2804552808
5724,14,Improv_Melody,153,9999,9999,9999,2805052484
5724,14,Improv_Melody,154,9999,9999,9999,2805552232
5724,14,Improv_Melody,155,9999,9999,9999,2806052980
5724,14,Improv_Melody,156,9999,9999,9999,2806552656
5724,14,Improv_Melody,157,9999,9999,9999,2807052380
5724,14,Improv_Melody,158,9999,9999,9999,2807552080
5724,14,Improv_Melody,159,9999,9999,9999,2808052804
5724,14,Improv_Melody,160,9999,9999,9999,2808552556
5724,14,Improv_Melody,161,9999,9999,9999,2809052260
57